<svg width="273" height="233" viewBox="0 0 273 233" fill="none" xmlns="http://www.w3.org/2000/svg">
<g clip-path="url(#clip0_12696_93644)">
<path fill-rule="evenodd" clip-rule="evenodd" d="M189.538 38.8808V1.29785H188.209V38.8808H189.538Z" fill="#3E9AF8"/>
<path d="M189.538 38.4969C176.744 38.4969 164.075 41.0168 152.255 45.913C140.435 50.8091 129.694 57.9854 120.647 67.0323C111.601 76.0791 104.424 86.8193 99.5282 98.6395C94.6321 110.46 92.1121 123.129 92.1121 135.923H93.4396C93.4396 123.303 95.9253 110.807 100.755 99.1476C105.584 87.4883 112.663 76.8945 121.586 67.971C130.51 59.0474 141.104 51.9688 152.763 47.1394C164.422 42.31 176.918 39.8244 189.538 39.8244V38.4969Z" fill="#3E9AF8"/>
<path fill-rule="evenodd" clip-rule="evenodd" d="M93.4401 135.48L20.8135 135.48L20.8135 136.809L93.4401 136.809L93.4401 135.48Z" fill="#3E9AF8"/>
<path d="M10.6283 146.551C16.4981 146.551 21.2566 141.793 21.2566 135.923C21.2566 130.053 16.4981 125.294 10.6283 125.294C4.75845 125.294 0 130.053 0 135.923C0 141.793 4.75845 146.551 10.6283 146.551Z" fill="#F4F8FE"/>
<path fill-rule="evenodd" clip-rule="evenodd" d="M19.928 135.923C19.928 141.059 15.7644 145.222 10.6283 145.222C5.49218 145.222 1.32854 141.059 1.32854 135.923C1.32854 130.787 5.49218 126.623 10.6283 126.623C15.7644 126.623 19.928 130.787 19.928 135.923ZM21.2566 135.923C21.2566 141.793 16.4981 146.551 10.6283 146.551C4.75845 146.551 0 141.793 0 135.923C0 130.053 4.75845 125.294 10.6283 125.294C16.4981 125.294 21.2566 130.053 21.2566 135.923Z" fill="#3E9AF8"/>
<rect x="0.664268" y="0.664268" width="165.181" height="165.181" rx="82.5906" transform="matrix(0 1 1 0 106.283 52.668)" stroke="#3E9AF8" stroke-width="1.32854"/>
<path fill-rule="evenodd" clip-rule="evenodd" d="M201.059 125.715H198.085C197.516 125.715 197.033 126.202 197.033 126.83C197.033 127.458 197.516 127.945 198.085 127.945H201.059C201.628 127.945 202.111 127.458 202.111 126.83C202.111 126.202 201.628 125.715 201.059 125.715ZM198.085 125.445H201.059C201.789 125.445 202.38 126.065 202.38 126.83C202.38 127.594 201.789 128.214 201.059 128.214H198.085C197.355 128.214 196.764 127.594 196.764 126.83C196.764 126.065 197.355 125.445 198.085 125.445Z" fill="#3E9AF8"/>
<path fill-rule="evenodd" clip-rule="evenodd" d="M212.622 125.715H209.649C209.079 125.715 208.597 126.202 208.597 126.83C208.597 127.458 209.079 127.945 209.649 127.945H212.622C213.192 127.945 213.674 127.458 213.674 126.83C213.674 126.202 213.192 125.715 212.622 125.715ZM209.649 125.445H212.622C213.352 125.445 213.944 126.065 213.944 126.83C213.944 127.594 213.352 128.214 212.622 128.214H209.649C208.919 128.214 208.327 127.594 208.327 126.83C208.327 126.065 208.919 125.445 209.649 125.445Z" fill="#3E9AF8"/>
<path fill-rule="evenodd" clip-rule="evenodd" d="M201.059 137.657H198.085C197.516 137.657 197.033 138.144 197.033 138.772C197.033 139.399 197.516 139.887 198.085 139.887H201.059C201.628 139.887 202.111 139.399 202.111 138.772C202.111 138.144 201.628 137.657 201.059 137.657ZM198.085 137.387H201.059C201.789 137.387 202.38 138.007 202.38 138.772C202.38 139.536 201.789 140.156 201.059 140.156H198.085C197.355 140.156 196.764 139.536 196.764 138.772C196.764 138.007 197.355 137.387 198.085 137.387Z" fill="#3E9AF8"/>
<path fill-rule="evenodd" clip-rule="evenodd" d="M212.622 137.657H209.649C209.079 137.657 208.597 138.144 208.597 138.772C208.597 139.399 209.079 139.887 209.649 139.887H212.622C213.192 139.887 213.674 139.399 213.674 138.772C213.674 138.144 213.192 137.657 212.622 137.657ZM209.649 137.387H212.622C213.352 137.387 213.944 138.007 213.944 138.772C213.944 139.536 213.352 140.156 212.622 140.156H209.649C208.919 140.156 208.327 139.536 208.327 138.772C208.327 138.007 208.919 137.387 209.649 137.387Z" fill="#3E9AF8"/>
<path fill-rule="evenodd" clip-rule="evenodd" d="M201.059 149.599H198.085C197.516 149.599 197.033 150.086 197.033 150.714C197.033 151.342 197.516 151.829 198.085 151.829H201.059C201.628 151.829 202.111 151.342 202.111 150.714C202.111 150.086 201.628 149.599 201.059 149.599ZM198.085 149.33H201.059C201.789 149.33 202.38 149.95 202.38 150.714C202.38 151.479 201.789 152.099 201.059 152.099H198.085C197.355 152.099 196.764 151.479 196.764 150.714C196.764 149.95 197.355 149.33 198.085 149.33Z" fill="#3E9AF8"/>
<path fill-rule="evenodd" clip-rule="evenodd" d="M212.622 149.599H209.649C209.079 149.599 208.597 150.086 208.597 150.714C208.597 151.342 209.079 151.829 209.649 151.829H212.622C213.192 151.829 213.674 151.342 213.674 150.714C213.674 150.086 213.192 149.599 212.622 149.599ZM209.649 149.33H212.622C213.352 149.33 213.944 149.95 213.944 150.714C213.944 151.479 213.352 152.099 212.622 152.099H209.649C208.919 152.099 208.327 151.479 208.327 150.714C208.327 149.95 208.919 149.33 209.649 149.33Z" fill="#3E9AF8"/>
<path fill-rule="evenodd" clip-rule="evenodd" d="M169.175 141.982H166.367C165.797 141.982 165.315 142.47 165.315 143.097C165.315 143.725 165.797 144.212 166.367 144.212H169.175C169.744 144.212 170.227 143.725 170.227 143.097C170.227 142.47 169.744 141.982 169.175 141.982ZM166.367 141.713H169.175C169.905 141.713 170.497 142.333 170.497 143.097C170.497 143.862 169.905 144.482 169.175 144.482H166.367C165.637 144.482 165.045 143.862 165.045 143.097C165.045 142.333 165.637 141.713 166.367 141.713Z" fill="#3E9AF8"/>
<path fill-rule="evenodd" clip-rule="evenodd" d="M180.244 141.982H177.436C176.867 141.982 176.384 142.47 176.384 143.097C176.384 143.725 176.867 144.212 177.436 144.212H180.244C180.814 144.212 181.296 143.725 181.296 143.097C181.296 142.47 180.814 141.982 180.244 141.982ZM177.436 141.713H180.244C180.974 141.713 181.566 142.333 181.566 143.097C181.566 143.862 180.974 144.482 180.244 144.482H177.436C176.706 144.482 176.114 143.862 176.114 143.097C176.114 142.333 176.706 141.713 177.436 141.713Z" fill="#3E9AF8"/>
<path fill-rule="evenodd" clip-rule="evenodd" d="M169.175 153.925H166.367C165.797 153.925 165.315 154.413 165.315 155.04C165.315 155.668 165.797 156.155 166.367 156.155H169.175C169.744 156.155 170.227 155.668 170.227 155.04C170.227 154.413 169.744 153.925 169.175 153.925ZM166.367 153.656H169.175C169.905 153.656 170.497 154.276 170.497 155.04C170.497 155.805 169.905 156.425 169.175 156.425H166.367C165.637 156.425 165.045 155.805 165.045 155.04C165.045 154.276 165.637 153.656 166.367 153.656Z" fill="#3E9AF8"/>
<path fill-rule="evenodd" clip-rule="evenodd" d="M180.244 153.925H177.436C176.867 153.925 176.384 154.413 176.384 155.04C176.384 155.668 176.867 156.155 177.436 156.155H180.244C180.814 156.155 181.296 155.668 181.296 155.04C181.296 154.413 180.814 153.925 180.244 153.925ZM177.436 153.656H180.244C180.974 153.656 181.566 154.276 181.566 155.04C181.566 155.805 180.974 156.425 180.244 156.425H177.436C176.706 156.425 176.114 155.805 176.114 155.04C176.114 154.276 176.706 153.656 177.436 153.656Z" fill="#3E9AF8"/>
<path fill-rule="evenodd" clip-rule="evenodd" d="M169.175 165.867H166.367C165.797 165.867 165.315 166.354 165.315 166.982C165.315 167.609 165.797 168.097 166.367 168.097H169.175C169.744 168.097 170.227 167.609 170.227 166.982C170.227 166.354 169.744 165.867 169.175 165.867ZM166.367 165.597H169.175C169.905 165.597 170.497 166.217 170.497 166.982C170.497 167.746 169.905 168.366 169.175 168.366H166.367C165.637 168.366 165.045 167.746 165.045 166.982C165.045 166.217 165.637 165.597 166.367 165.597Z" fill="#3E9AF8"/>
<path fill-rule="evenodd" clip-rule="evenodd" d="M180.244 165.867H177.436C176.867 165.867 176.384 166.354 176.384 166.982C176.384 167.609 176.867 168.097 177.436 168.097H180.244C180.814 168.097 181.296 167.609 181.296 166.982C181.296 166.354 180.814 165.867 180.244 165.867ZM177.436 165.597H180.244C180.974 165.597 181.566 166.217 181.566 166.982C181.566 167.746 180.974 168.366 180.244 168.366H177.436C176.706 168.366 176.114 167.746 176.114 166.982C176.114 166.217 176.706 165.597 177.436 165.597Z" fill="#3E9AF8"/>
<path fill-rule="evenodd" clip-rule="evenodd" d="M215.423 106.534C213.293 106.535 211.267 107.33 209.965 108.784C209.313 109.513 208.193 109.576 207.464 108.923C206.735 108.271 206.673 107.151 207.325 106.422C209.413 104.089 212.47 102.992 215.423 102.992C218.376 102.992 221.433 104.089 223.52 106.422C224.173 107.151 224.111 108.271 223.382 108.923C222.652 109.576 221.533 109.513 220.88 108.784C219.579 107.33 217.553 106.534 215.423 106.534Z" fill="#3E9AF8"/>
<path fill-rule="evenodd" clip-rule="evenodd" d="M215.972 98.7239C212.05 98.7239 208.294 100.222 205.942 103.054C205.317 103.807 204.2 103.91 203.447 103.285C202.695 102.66 202.591 101.544 203.216 100.791C206.367 96.9967 211.21 95.1812 215.972 95.1812C220.736 95.1811 225.638 96.9961 228.951 100.751C229.598 101.484 229.528 102.604 228.794 103.251C228.061 103.898 226.941 103.828 226.294 103.095C223.76 100.222 219.892 98.7239 215.972 98.7239Z" fill="#3E9AF8"/>
<path fill-rule="evenodd" clip-rule="evenodd" d="M215.666 110.05C216.644 110.05 217.437 110.843 217.437 111.822V115.154H221.423C222.89 115.154 224.08 116.343 224.08 117.811V160.722C224.08 161.701 223.287 162.494 222.308 162.494C221.33 162.494 220.537 161.701 220.537 160.722V118.696H191.309V173.122H196.623V160.956C196.623 159.489 197.813 158.299 199.28 158.299H210.794C212.262 158.299 213.451 159.489 213.451 160.956V173.122L228.508 173.122C229.486 173.122 230.279 173.915 230.279 174.893C230.279 175.872 229.486 176.665 228.508 176.665L150.567 176.664C149.589 176.664 148.796 175.871 148.796 174.893C148.796 173.915 149.589 173.122 150.567 173.122H154.996V135.44C154.996 133.973 156.185 132.783 157.653 132.783H164.295V128.987C164.295 128.009 165.089 127.216 166.067 127.216C167.045 127.216 167.838 128.009 167.838 128.987V132.783H187.766V117.811C187.766 116.343 188.956 115.154 190.423 115.154H213.894V111.822C213.894 110.843 214.687 110.05 215.666 110.05ZM187.766 136.326H158.538V173.122H187.766V136.326ZM209.909 173.122V161.842H200.166V173.122H209.909Z" fill="#3E9AF8"/>
<path fill-rule="evenodd" clip-rule="evenodd" d="M163.853 143.369C163.853 142.391 164.646 141.598 165.624 141.598H170.052C171.031 141.598 171.824 142.391 171.824 143.369C171.824 144.347 171.031 145.14 170.052 145.14H165.624C164.646 145.14 163.853 144.347 163.853 143.369Z" fill="#3E9AF8"/>
<path fill-rule="evenodd" clip-rule="evenodd" d="M163.853 155.432C163.853 154.453 164.646 153.66 165.624 153.66H170.052C171.031 153.66 171.824 154.453 171.824 155.432C171.824 156.41 171.031 157.203 170.052 157.203H165.624C164.646 157.203 163.853 156.41 163.853 155.432Z" fill="#3E9AF8"/>
<path fill-rule="evenodd" clip-rule="evenodd" d="M163.853 166.566C163.853 165.588 164.646 164.794 165.624 164.794H170.052C171.031 164.794 171.824 165.588 171.824 166.566C171.824 167.544 171.031 168.337 170.052 168.337H165.624C164.646 168.337 163.853 167.544 163.853 166.566Z" fill="#3E9AF8"/>
<path fill-rule="evenodd" clip-rule="evenodd" d="M174.48 166.566C174.48 165.588 175.274 164.794 176.252 164.794H180.68C181.659 164.794 182.452 165.588 182.452 166.566C182.452 167.544 181.659 168.337 180.68 168.337H176.252C175.274 168.337 174.48 167.544 174.48 166.566Z" fill="#3E9AF8"/>
<path fill-rule="evenodd" clip-rule="evenodd" d="M174.48 155.432C174.48 154.453 175.274 153.66 176.252 153.66H180.68C181.659 153.66 182.452 154.453 182.452 155.432C182.452 156.41 181.659 157.203 180.68 157.203H176.252C175.274 157.203 174.48 156.41 174.48 155.432Z" fill="#3E9AF8"/>
<path fill-rule="evenodd" clip-rule="evenodd" d="M174.48 143.369C174.48 142.391 175.274 141.598 176.252 141.598H180.68C181.659 141.598 182.452 142.391 182.452 143.369C182.452 144.347 181.659 145.14 180.68 145.14H176.252C175.274 145.14 174.48 144.347 174.48 143.369Z" fill="#3E9AF8"/>
<path fill-rule="evenodd" clip-rule="evenodd" d="M196.623 126.668C196.623 125.69 197.416 124.897 198.394 124.897H202.823C203.801 124.897 204.594 125.69 204.594 126.668C204.594 127.647 203.801 128.44 202.823 128.44H198.394C197.416 128.44 196.623 127.647 196.623 126.668Z" fill="#3E9AF8"/>
<path fill-rule="evenodd" clip-rule="evenodd" d="M196.623 138.73C196.623 137.752 197.416 136.959 198.394 136.959H202.823C203.801 136.959 204.594 137.752 204.594 138.73C204.594 139.709 203.801 140.502 202.823 140.502H198.394C197.416 140.502 196.623 139.709 196.623 138.73Z" fill="#3E9AF8"/>
<path fill-rule="evenodd" clip-rule="evenodd" d="M196.623 150.792C196.623 149.814 197.416 149.021 198.394 149.021H202.823C203.801 149.021 204.594 149.814 204.594 150.792C204.594 151.77 203.801 152.563 202.823 152.563H198.394C197.416 152.563 196.623 151.77 196.623 150.792Z" fill="#3E9AF8"/>
<path fill-rule="evenodd" clip-rule="evenodd" d="M207.252 150.792C207.252 149.814 208.045 149.021 209.023 149.021H213.452C214.43 149.021 215.223 149.814 215.223 150.792C215.223 151.77 214.43 152.563 213.452 152.563H209.023C208.045 152.563 207.252 151.77 207.252 150.792Z" fill="#3E9AF8"/>
<path fill-rule="evenodd" clip-rule="evenodd" d="M207.252 138.73C207.252 137.752 208.045 136.959 209.023 136.959H213.452C214.43 136.959 215.223 137.752 215.223 138.73C215.223 139.709 214.43 140.502 213.452 140.502H209.023C208.045 140.502 207.252 139.709 207.252 138.73Z" fill="#3E9AF8"/>
<path fill-rule="evenodd" clip-rule="evenodd" d="M207.252 126.668C207.252 125.69 208.045 124.897 209.023 124.897H213.452C214.43 124.897 215.223 125.69 215.223 126.668C215.223 127.647 214.43 128.44 213.452 128.44H209.023C208.045 128.44 207.252 127.647 207.252 126.668Z" fill="#3E9AF8"/>
<path d="M224.08 167.808C224.08 168.786 223.287 169.579 222.308 169.579C221.33 169.579 220.537 168.786 220.537 167.808C220.537 166.83 221.33 166.037 222.308 166.037C223.287 166.037 224.08 166.83 224.08 167.808Z" fill="#3E9AF8"/>
<path fill-rule="evenodd" clip-rule="evenodd" d="M222.308 168.473C222.676 168.473 222.974 168.175 222.974 167.808C222.974 167.441 222.676 167.143 222.308 167.143C221.941 167.143 221.643 167.441 221.643 167.808C221.643 168.175 221.941 168.473 222.308 168.473ZM222.308 169.579C223.287 169.579 224.08 168.786 224.08 167.808C224.08 166.83 223.287 166.037 222.308 166.037C221.33 166.037 220.537 166.83 220.537 167.808C220.537 168.786 221.33 169.579 222.308 169.579Z" fill="#3E9AF8"/>
<path fill-rule="evenodd" clip-rule="evenodd" d="M165.947 122.43C163.817 122.43 161.791 123.226 160.49 124.68C159.837 125.409 158.718 125.471 157.989 124.819C157.26 124.166 157.197 123.046 157.85 122.317C159.937 119.985 162.994 118.887 165.947 118.887C168.9 118.887 171.957 119.985 174.045 122.317C174.697 123.047 174.635 124.166 173.906 124.819C173.177 125.471 172.057 125.409 171.405 124.68C170.104 123.226 168.077 122.43 165.947 122.43Z" fill="#3E9AF8"/>
<path fill-rule="evenodd" clip-rule="evenodd" d="M166.496 114.619C162.574 114.619 158.818 116.117 156.466 118.949C155.841 119.702 154.724 119.805 153.972 119.18C153.219 118.555 153.116 117.439 153.741 116.686C156.891 112.892 161.734 111.076 166.496 111.076C171.261 111.076 176.162 112.891 179.475 116.646C180.122 117.379 180.052 118.499 179.319 119.146C178.585 119.793 177.466 119.723 176.819 118.99C174.284 116.117 170.416 114.619 166.496 114.619Z" fill="#3E9AF8"/>
</g>
<defs>
<clipPath id="clip0_12696_93644">
<rect width="232" height="273" fill="white" transform="matrix(0 1 1 0 0 0.413086)"/>
</clipPath>
</defs>
</svg>
