<svg width="262" height="308" viewBox="0 0 246 308" fill="none" xmlns="http://www.w3.org/2000/svg">
<path fill-rule="evenodd" clip-rule="evenodd" d="M42.4334 94H0V95.5H42.4334V94Z" fill="#3E9AF8"/>
<path d="M42 94C42 108.445 44.8452 122.749 50.3732 136.095C55.9013 149.441 64.0038 161.567 74.2183 171.782C84.4327 181.996 96.559 190.099 109.905 195.627C123.251 201.155 137.555 204 152 204V202.501C137.751 202.501 123.642 199.695 110.478 194.242C97.3144 188.789 85.3533 180.797 75.2781 170.722C65.2028 160.647 57.2107 148.686 51.758 135.522C46.3053 122.358 43.4988 108.249 43.4988 94H42Z" fill="#3E9AF8"/>
<path fill-rule="evenodd" clip-rule="evenodd" d="M151.5 202.5L151.5 284.5L153 284.5L153 202.5L151.5 202.5Z" fill="#3E9AF8"/>
<path d="M164 296C164 289.373 158.627 284 152 284C145.373 284 140 289.373 140 296C140 302.627 145.373 308 152 308C158.627 308 164 302.627 164 296Z" fill="#F4F8FE"/>
<path fill-rule="evenodd" clip-rule="evenodd" d="M152 285.5C157.799 285.5 162.5 290.201 162.5 296C162.5 301.799 157.799 306.5 152 306.5C146.201 306.5 141.5 301.799 141.5 296C141.5 290.201 146.201 285.5 152 285.5ZM152 284C158.627 284 164 289.373 164 296C164 302.627 158.627 308 152 308C145.373 308 140 302.627 140 296C140 289.373 145.373 284 152 284Z" fill="#3E9AF8"/>
<rect x="0.75" y="-0.75" width="186.5" height="186.5" rx="93.2499" transform="matrix(1 0 0 -1 58 186.5)" stroke="#3E9AF8" stroke-width="1.5"/>
<path fill-rule="evenodd" clip-rule="evenodd" d="M165.008 82.4743H161.651C161.008 82.4743 160.463 83.0245 160.463 83.7332C160.463 84.4418 161.008 84.992 161.651 84.992H165.008C165.651 84.992 166.196 84.4418 166.196 83.7332C166.196 83.0245 165.651 82.4743 165.008 82.4743ZM161.651 82.1699H165.008C165.832 82.1699 166.5 82.8699 166.5 83.7332C166.5 84.5965 165.832 85.2964 165.008 85.2964H161.651C160.827 85.2964 160.159 84.5965 160.159 83.7332C160.159 82.8699 160.827 82.1699 161.651 82.1699Z" fill="#3E9AF8"/>
<path fill-rule="evenodd" clip-rule="evenodd" d="M178.065 82.4743H174.707C174.065 82.4743 173.519 83.0245 173.519 83.7332C173.519 84.4418 174.065 84.992 174.707 84.992H178.065C178.707 84.992 179.252 84.4418 179.252 83.7332C179.252 83.0245 178.707 82.4743 178.065 82.4743ZM174.707 82.1699H178.065C178.889 82.1699 179.557 82.8699 179.557 83.7332C179.557 84.5965 178.889 85.2964 178.065 85.2964H174.707C173.883 85.2964 173.215 84.5965 173.215 83.7332C173.215 82.8699 173.883 82.1699 174.707 82.1699Z" fill="#3E9AF8"/>
<path fill-rule="evenodd" clip-rule="evenodd" d="M165.008 95.9577H161.651C161.008 95.9577 160.463 96.5079 160.463 97.2166C160.463 97.9252 161.008 98.4754 161.651 98.4754H165.008C165.651 98.4754 166.196 97.9252 166.196 97.2166C166.196 96.5079 165.651 95.9577 165.008 95.9577ZM161.651 95.6533H165.008C165.832 95.6533 166.5 96.3533 166.5 97.2166C166.5 98.0799 165.832 98.7798 165.008 98.7798H161.651C160.827 98.7798 160.159 98.0799 160.159 97.2166C160.159 96.3533 160.827 95.6533 161.651 95.6533Z" fill="#3E9AF8"/>
<path fill-rule="evenodd" clip-rule="evenodd" d="M178.065 95.9577H174.707C174.065 95.9577 173.519 96.5079 173.519 97.2166C173.519 97.9252 174.065 98.4754 174.707 98.4754H178.065C178.707 98.4754 179.252 97.9252 179.252 97.2166C179.252 96.5079 178.707 95.9577 178.065 95.9577ZM174.707 95.6533H178.065C178.889 95.6533 179.557 96.3533 179.557 97.2166C179.557 98.0799 178.889 98.7798 178.065 98.7798H174.707C173.883 98.7798 173.215 98.0799 173.215 97.2166C173.215 96.3533 173.883 95.6533 174.707 95.6533Z" fill="#3E9AF8"/>
<path fill-rule="evenodd" clip-rule="evenodd" d="M165.008 109.441H161.651C161.008 109.441 160.463 109.991 160.463 110.7C160.463 111.409 161.008 111.959 161.651 111.959H165.008C165.651 111.959 166.196 111.409 166.196 110.7C166.196 109.991 165.651 109.441 165.008 109.441ZM161.651 109.137H165.008C165.832 109.137 166.5 109.837 166.5 110.7C166.5 111.563 165.832 112.263 165.008 112.263H161.651C160.827 112.263 160.159 111.563 160.159 110.7C160.159 109.837 160.827 109.137 161.651 109.137Z" fill="#3E9AF8"/>
<path fill-rule="evenodd" clip-rule="evenodd" d="M178.065 109.441H174.707C174.065 109.441 173.519 109.991 173.519 110.7C173.519 111.409 174.065 111.959 174.707 111.959H178.065C178.707 111.959 179.252 111.409 179.252 110.7C179.252 109.991 178.707 109.441 178.065 109.441ZM174.707 109.137H178.065C178.889 109.137 179.557 109.837 179.557 110.7C179.557 111.563 178.889 112.263 178.065 112.263H174.707C173.883 112.263 173.215 111.563 173.215 110.7C173.215 109.837 173.883 109.137 174.707 109.137Z" fill="#3E9AF8"/>
<path fill-rule="evenodd" clip-rule="evenodd" d="M129.009 100.842H125.839C125.196 100.842 124.651 101.392 124.651 102.1C124.651 102.809 125.196 103.359 125.839 103.359H129.009C129.652 103.359 130.197 102.809 130.197 102.1C130.197 101.392 129.652 100.842 129.009 100.842ZM125.839 100.537H129.009C129.834 100.537 130.502 101.237 130.502 102.1C130.502 102.964 129.834 103.664 129.009 103.664H125.839C125.015 103.664 124.346 102.964 124.346 102.1C124.346 101.237 125.015 100.537 125.839 100.537Z" fill="#3E9AF8"/>
<path fill-rule="evenodd" clip-rule="evenodd" d="M141.507 100.842H138.336C137.693 100.842 137.148 101.392 137.148 102.1C137.148 102.809 137.693 103.359 138.336 103.359H141.507C142.149 103.359 142.694 102.809 142.694 102.1C142.694 101.392 142.149 100.842 141.507 100.842ZM138.336 100.537H141.507C142.331 100.537 142.999 101.237 142.999 102.1C142.999 102.964 142.331 103.664 141.507 103.664H138.336C137.512 103.664 136.844 102.964 136.844 102.1C136.844 101.237 137.512 100.537 138.336 100.537Z" fill="#3E9AF8"/>
<path fill-rule="evenodd" clip-rule="evenodd" d="M129.009 114.326H125.839C125.196 114.326 124.651 114.876 124.651 115.585C124.651 116.293 125.196 116.844 125.839 116.844H129.009C129.652 116.844 130.197 116.293 130.197 115.585C130.197 114.876 129.652 114.326 129.009 114.326ZM125.839 114.021H129.009C129.834 114.021 130.502 114.721 130.502 115.585C130.502 116.448 129.834 117.148 129.009 117.148H125.839C125.015 117.148 124.346 116.448 124.346 115.585C124.346 114.721 125.015 114.021 125.839 114.021Z" fill="#3E9AF8"/>
<path fill-rule="evenodd" clip-rule="evenodd" d="M141.507 114.326H138.336C137.693 114.326 137.148 114.876 137.148 115.585C137.148 116.293 137.693 116.844 138.336 116.844H141.507C142.149 116.844 142.694 116.293 142.694 115.585C142.694 114.876 142.149 114.326 141.507 114.326ZM138.336 114.021H141.507C142.331 114.021 142.999 114.721 142.999 115.585C142.999 116.448 142.331 117.148 141.507 117.148H138.336C137.512 117.148 136.844 116.448 136.844 115.585C136.844 114.721 137.512 114.021 138.336 114.021Z" fill="#3E9AF8"/>
<path fill-rule="evenodd" clip-rule="evenodd" d="M129.009 127.808H125.839C125.196 127.808 124.651 128.358 124.651 129.067C124.651 129.776 125.196 130.326 125.839 130.326H129.009C129.652 130.326 130.197 129.776 130.197 129.067C130.197 128.358 129.652 127.808 129.009 127.808ZM125.839 127.504H129.009C129.834 127.504 130.502 128.204 130.502 129.067C130.502 129.93 129.834 130.63 129.009 130.63H125.839C125.015 130.63 124.346 129.93 124.346 129.067C124.346 128.204 125.015 127.504 125.839 127.504Z" fill="#3E9AF8"/>
<path fill-rule="evenodd" clip-rule="evenodd" d="M141.507 127.808H138.336C137.693 127.808 137.148 128.358 137.148 129.067C137.148 129.776 137.693 130.326 138.336 130.326H141.507C142.149 130.326 142.694 129.776 142.694 129.067C142.694 128.358 142.149 127.808 141.507 127.808ZM138.336 127.504H141.507C142.331 127.504 142.999 128.204 142.999 129.067C142.999 129.93 142.331 130.63 141.507 130.63H138.336C137.512 130.63 136.844 129.93 136.844 129.067C136.844 128.204 137.512 127.504 138.336 127.504Z" fill="#3E9AF8"/>
<path fill-rule="evenodd" clip-rule="evenodd" d="M181.226 60.8184C178.821 60.8184 176.534 61.7171 175.064 63.3588C174.328 64.1819 173.063 64.252 172.24 63.5153C171.417 62.7787 171.347 61.5143 172.084 60.6913C174.441 58.0577 177.892 56.8184 181.226 56.8184C184.56 56.8183 188.012 58.0573 190.369 60.6913C191.105 61.5145 191.035 62.7789 190.212 63.5154C189.389 64.252 188.124 64.1818 187.388 63.3587C185.919 61.7169 183.631 60.8183 181.226 60.8184Z" fill="#3E9AF8"/>
<path fill-rule="evenodd" clip-rule="evenodd" d="M181.846 52C177.417 52 173.177 53.6911 170.521 56.8892C169.816 57.739 168.555 57.8558 167.705 57.1501C166.855 56.4445 166.738 55.1835 167.444 54.3338C171.001 50.0499 176.469 48 181.846 48C187.225 48 192.76 50.0492 196.5 54.2883C197.231 55.1166 197.152 56.3804 196.323 57.1112C195.495 57.842 194.231 57.763 193.5 56.9347C190.639 53.6918 186.272 52 181.846 52Z" fill="#3E9AF8"/>
<path fill-rule="evenodd" clip-rule="evenodd" d="M181.5 64.7881C182.605 64.7881 183.5 65.6835 183.5 66.7881V70.55H188C189.657 70.55 191 71.8931 191 73.55V122C191 123.105 190.105 124 189 124C187.895 124 187 123.105 187 122V74.55H154V136H160V122.264C160 120.607 161.343 119.264 163 119.264H176C177.657 119.264 179 120.607 179 122.264V136L196 136C197.105 136 198 136.895 198 138C198 139.105 197.105 140 196 140L108 140C106.895 140 106 139.104 106 138C106 136.895 106.895 136 108 136H113V93.4548C113 91.7979 114.343 90.4548 116 90.4548H123.5V86.169C123.5 85.0645 124.395 84.169 125.5 84.169C126.605 84.169 127.5 85.0645 127.5 86.169V90.4548H150V73.55C150 71.8931 151.343 70.55 153 70.55H179.5V66.7881C179.5 65.6835 180.395 64.7881 181.5 64.7881ZM150 94.4548H117V136H150V94.4548ZM175 136V123.264H164V136H175Z" fill="#3E9AF8"/>
<path fill-rule="evenodd" clip-rule="evenodd" d="M123 102.407C123 101.303 123.895 100.407 125 100.407H130C131.105 100.407 132 101.303 132 102.407C132 103.512 131.105 104.407 130 104.407H125C123.895 104.407 123 103.512 123 102.407Z" fill="#3E9AF8"/>
<path fill-rule="evenodd" clip-rule="evenodd" d="M123 116.026C123 114.922 123.895 114.026 125 114.026H130C131.105 114.026 132 114.922 132 116.026C132 117.131 131.105 118.026 130 118.026H125C123.895 118.026 123 117.131 123 116.026Z" fill="#3E9AF8"/>
<path fill-rule="evenodd" clip-rule="evenodd" d="M123 128.598C123 127.493 123.895 126.598 125 126.598H130C131.105 126.598 132 127.493 132 128.598C132 129.702 131.105 130.598 130 130.598H125C123.895 130.598 123 129.702 123 128.598Z" fill="#3E9AF8"/>
<path fill-rule="evenodd" clip-rule="evenodd" d="M135 128.598C135 127.493 135.895 126.598 137 126.598H142C143.105 126.598 144 127.493 144 128.598C144 129.702 143.105 130.598 142 130.598H137C135.895 130.598 135 129.702 135 128.598Z" fill="#3E9AF8"/>
<path fill-rule="evenodd" clip-rule="evenodd" d="M135 116.026C135 114.922 135.895 114.026 137 114.026H142C143.105 114.026 144 114.922 144 116.026C144 117.131 143.105 118.026 142 118.026H137C135.895 118.026 135 117.131 135 116.026Z" fill="#3E9AF8"/>
<path fill-rule="evenodd" clip-rule="evenodd" d="M135 102.407C135 101.303 135.895 100.407 137 100.407H142C143.105 100.407 144 101.303 144 102.407C144 103.512 143.105 104.407 142 104.407H137C135.895 104.407 135 103.512 135 102.407Z" fill="#3E9AF8"/>
<path fill-rule="evenodd" clip-rule="evenodd" d="M160 83.5508C160 82.4462 160.895 81.5508 162 81.5508H167C168.105 81.5508 169 82.4462 169 83.5508C169 84.6554 168.105 85.5508 167 85.5508H162C160.895 85.5508 160 84.6554 160 83.5508Z" fill="#3E9AF8"/>
<path fill-rule="evenodd" clip-rule="evenodd" d="M160 97.1699C160 96.0654 160.895 95.1699 162 95.1699H167C168.105 95.1699 169 96.0654 169 97.1699C169 98.2745 168.105 99.1699 167 99.1699H162C160.895 99.1699 160 98.2745 160 97.1699Z" fill="#3E9AF8"/>
<path fill-rule="evenodd" clip-rule="evenodd" d="M160 110.788C160 109.684 160.895 108.788 162 108.788H167C168.105 108.788 169 109.684 169 110.788C169 111.893 168.105 112.788 167 112.788H162C160.895 112.788 160 111.893 160 110.788Z" fill="#3E9AF8"/>
<path fill-rule="evenodd" clip-rule="evenodd" d="M172 110.788C172 109.684 172.895 108.788 174 108.788H179C180.105 108.788 181 109.684 181 110.788C181 111.893 180.105 112.788 179 112.788H174C172.895 112.788 172 111.893 172 110.788Z" fill="#3E9AF8"/>
<path fill-rule="evenodd" clip-rule="evenodd" d="M172 97.1699C172 96.0654 172.895 95.1699 174 95.1699H179C180.105 95.1699 181 96.0654 181 97.1699C181 98.2745 180.105 99.1699 179 99.1699H174C172.895 99.1699 172 98.2745 172 97.1699Z" fill="#3E9AF8"/>
<path fill-rule="evenodd" clip-rule="evenodd" d="M172 83.5508C172 82.4462 172.895 81.5508 174 81.5508H179C180.105 81.5508 181 82.4462 181 83.5508C181 84.6554 180.105 85.5508 179 85.5508H174C172.895 85.5508 172 84.6554 172 83.5508Z" fill="#3E9AF8"/>
<path d="M191 130C191 131.105 190.105 132 189 132C187.895 132 187 131.105 187 130C187 128.895 187.895 128 189 128C190.105 128 191 128.895 191 130Z" fill="#3E9AF8"/>
<path fill-rule="evenodd" clip-rule="evenodd" d="M189 130.751C189.415 130.751 189.751 130.415 189.751 130C189.751 129.585 189.415 129.249 189 129.249C188.585 129.249 188.249 129.585 188.249 130C188.249 130.415 188.585 130.751 189 130.751ZM189 132C190.105 132 191 131.105 191 130C191 128.895 190.105 128 189 128C187.895 128 187 128.895 187 130C187 131.105 187.895 132 189 132Z" fill="#3E9AF8"/>
<path fill-rule="evenodd" clip-rule="evenodd" d="M125.365 78.7656C122.96 78.7657 120.673 79.6644 119.203 81.306C118.467 82.1291 117.202 82.1992 116.379 81.4626C115.556 80.726 115.486 79.4616 116.223 78.6385C118.58 76.0049 122.031 74.7657 125.365 74.7656C128.699 74.7655 132.151 76.0046 134.508 78.6386C135.244 79.4618 135.174 80.7261 134.351 81.4627C133.528 82.1993 132.264 82.1291 131.527 81.3059C130.058 79.6641 127.77 78.7656 125.365 78.7656Z" fill="#3E9AF8"/>
<path fill-rule="evenodd" clip-rule="evenodd" d="M125.985 69.9463C121.557 69.9463 117.316 71.6374 114.661 74.8355C113.955 75.6853 112.694 75.8021 111.844 75.0964C110.994 74.3908 110.878 73.1298 111.583 72.2801C115.141 67.9962 120.608 65.9463 125.985 65.9463C131.364 65.9463 136.899 67.9955 140.639 72.2346C141.37 73.0628 141.291 74.3267 140.462 75.0575C139.634 75.7883 138.37 75.7092 137.64 74.881C134.778 71.6381 130.411 69.9463 125.985 69.9463Z" fill="#3E9AF8"/>
</svg>
