<svg width="262" height="308" viewBox="0 0 246 308" fill="none" xmlns="http://www.w3.org/2000/svg">
<path fill-rule="evenodd" clip-rule="evenodd" d="M42.4334 94H0V95.5H42.4334V94Z" fill="#3E9AF8"/>
<path d="M42 94C42 108.445 44.8452 122.749 50.3732 136.095C55.9013 149.441 64.0038 161.567 74.2183 171.782C84.4327 181.996 96.559 190.099 109.905 195.627C123.251 201.155 137.555 204 152 204V202.501C137.751 202.501 123.642 199.695 110.478 194.242C97.3144 188.789 85.3533 180.797 75.2781 170.722C65.2028 160.647 57.2107 148.686 51.758 135.522C46.3053 122.358 43.4988 108.249 43.4988 94H42Z" fill="#3E9AF8"/>
<path fill-rule="evenodd" clip-rule="evenodd" d="M151.5 202.5L151.5 284.5L153 284.5L153 202.5L151.5 202.5Z" fill="#3E9AF8"/>
<path d="M164 296C164 289.373 158.627 284 152 284C145.373 284 140 289.373 140 296C140 302.627 145.373 308 152 308C158.627 308 164 302.627 164 296Z" fill="#F4F8FE"/>
<path fill-rule="evenodd" clip-rule="evenodd" d="M152 285.5C157.799 285.5 162.5 290.201 162.5 296C162.5 301.799 157.799 306.5 152 306.5C146.201 306.5 141.5 301.799 141.5 296C141.5 290.201 146.201 285.5 152 285.5ZM152 284C158.627 284 164 289.373 164 296C164 302.627 158.627 308 152 308C145.373 308 140 302.627 140 296C140 289.373 145.373 284 152 284Z" fill="#3E9AF8"/>
<rect x="0.75" y="-0.75" width="186.5" height="186.5" rx="93.25" transform="matrix(1 0 0 -1 58 186.5)" stroke="#3E9AF8" stroke-width="1.5"/>
<path fill-rule="evenodd" clip-rule="evenodd" d="M140 56H117C113.134 56 110 59.134 110 63C110 66.866 113.134 70 117 70H140C143.866 70 147 66.866 147 63C147 59.134 143.866 56 140 56ZM117 52C110.925 52 106 56.9249 106 63C106 69.0751 110.925 74 117 74H140C146.075 74 151 69.0751 151 63C151 56.9249 146.075 52 140 52H117Z" fill="#3E9AF8"/>
<path fill-rule="evenodd" clip-rule="evenodd" d="M113.782 63C113.782 61.8954 114.678 61 115.782 61H129.478C130.582 61 131.478 61.8954 131.478 63C131.478 64.1046 130.582 65 129.478 65H115.782C114.678 65 113.782 64.1046 113.782 63Z" fill="#3E9AF8"/>
<path d="M143.174 63C143.174 64.1046 142.298 65 141.217 65C140.137 65 139.261 64.1046 139.261 63C139.261 61.8954 140.137 61 141.217 61C142.298 61 143.174 61.8954 143.174 63Z" fill="#3E9AF8"/>
<path d="M137.305 63C137.305 64.1046 136.429 65 135.348 65C134.268 65 133.392 64.1046 133.392 63C133.392 61.8954 134.268 61 135.348 61C136.429 61 137.305 61.8954 137.305 63Z" fill="#3E9AF8"/>
<path fill-rule="evenodd" clip-rule="evenodd" d="M139.022 92H117C113.134 92 110 95.134 110 99C110 102.866 113.134 106 117 106H139.022C142.888 106 146.022 102.866 146.022 99C146.022 95.134 142.888 92 139.022 92ZM117 88C110.925 88 106 92.9249 106 99C106 105.075 110.925 110 117 110H139.022C145.097 110 150.022 105.075 150.022 99C150.022 92.9249 145.097 88 139.022 88H117Z" fill="#3E9AF8"/>
<path fill-rule="evenodd" clip-rule="evenodd" d="M113.57 99C113.57 97.8954 114.466 97 115.57 97H128.968C130.073 97 130.968 97.8954 130.968 99C130.968 100.105 130.073 101 128.968 101H115.57C114.466 101 113.57 100.105 113.57 99Z" fill="#3E9AF8"/>
<path d="M142.366 99C142.366 100.105 141.509 101 140.452 101C139.395 101 138.538 100.105 138.538 99C138.538 97.8954 139.395 97 140.452 97C141.509 97 142.366 97.8954 142.366 99Z" fill="#3E9AF8"/>
<path d="M136.624 99C136.624 100.105 135.767 101 134.71 101C133.653 101 132.796 100.105 132.796 99C132.796 97.8954 133.653 97 134.71 97C135.767 97 136.624 97.8954 136.624 99Z" fill="#3E9AF8"/>
<path fill-rule="evenodd" clip-rule="evenodd" d="M140 74H117C113.134 74 110 77.134 110 81C110 84.866 113.134 88 117 88H140C143.866 88 147 84.866 147 81C147 77.134 143.866 74 140 74ZM117 70C110.925 70 106 74.9249 106 81C106 87.0751 110.925 92 117 92H140C146.075 92 151 87.0751 151 81C151 74.9249 146.075 70 140 70H117Z" fill="#3E9AF8"/>
<path fill-rule="evenodd" clip-rule="evenodd" d="M113.782 81C113.782 79.8954 114.678 79 115.782 79H129.478C130.582 79 131.478 79.8954 131.478 81C131.478 82.1046 130.582 83 129.478 83H115.782C114.678 83 113.782 82.1046 113.782 81Z" fill="#3E9AF8"/>
<path d="M143.174 81C143.174 82.1046 142.298 83 141.217 83C140.137 83 139.261 82.1046 139.261 81C139.261 79.8954 140.137 79 141.217 79C142.298 79 143.174 79.8954 143.174 81Z" fill="#3E9AF8"/>
<path d="M137.305 81C137.305 82.1046 136.429 83 135.348 83C134.268 83 133.392 82.1046 133.392 81C133.392 79.8954 134.268 79 135.348 79C136.429 79 137.305 79.8954 137.305 81Z" fill="#3E9AF8"/>
<path fill-rule="evenodd" clip-rule="evenodd" d="M187 56H164C160.134 56 157 59.134 157 63C157 66.866 160.134 70 164 70H187C190.866 70 194 66.866 194 63C194 59.134 190.866 56 187 56ZM164 52C157.925 52 153 56.9249 153 63C153 69.0751 157.925 74 164 74H187C193.075 74 198 69.0751 198 63C198 56.9249 193.075 52 187 52H164Z" fill="#3E9AF8"/>
<path fill-rule="evenodd" clip-rule="evenodd" d="M160.782 63C160.782 61.8954 161.678 61 162.782 61H176.478C177.582 61 178.478 61.8954 178.478 63C178.478 64.1046 177.582 65 176.478 65H162.782C161.678 65 160.782 64.1046 160.782 63Z" fill="#3E9AF8"/>
<path d="M190.174 63C190.174 64.1046 189.298 65 188.217 65C187.137 65 186.261 64.1046 186.261 63C186.261 61.8954 187.137 61 188.217 61C189.298 61 190.174 61.8954 190.174 63Z" fill="#3E9AF8"/>
<path d="M184.305 63C184.305 64.1046 183.429 65 182.348 65C181.268 65 180.392 64.1046 180.392 63C180.392 61.8954 181.268 61 182.348 61C183.429 61 184.305 61.8954 184.305 63Z" fill="#3E9AF8"/>
<path fill-rule="evenodd" clip-rule="evenodd" d="M187 74H164C160.134 74 157 77.134 157 81C157 84.866 160.134 88 164 88H187C190.866 88 194 84.866 194 81C194 77.134 190.866 74 187 74ZM164 70C157.925 70 153 74.9249 153 81C153 87.0751 157.925 92 164 92H187C193.075 92 198 87.0751 198 81C198 74.9249 193.075 70 187 70H164Z" fill="#3E9AF8"/>
<path fill-rule="evenodd" clip-rule="evenodd" d="M160.782 81C160.782 79.8954 161.678 79 162.782 79H176.478C177.582 79 178.478 79.8954 178.478 81C178.478 82.1046 177.582 83 176.478 83H162.782C161.678 83 160.782 82.1046 160.782 81Z" fill="#3E9AF8"/>
<path d="M190.174 81C190.174 82.1046 189.298 83 188.217 83C187.137 83 186.261 82.1046 186.261 81C186.261 79.8954 187.137 79 188.217 79C189.298 79 190.174 79.8954 190.174 81Z" fill="#3E9AF8"/>
<path d="M184.305 81C184.305 82.1046 183.429 83 182.348 83C181.268 83 180.392 82.1046 180.392 81C180.392 79.8954 181.268 79 182.348 79C183.429 79 184.305 79.8954 184.305 81Z" fill="#3E9AF8"/>
<path fill-rule="evenodd" clip-rule="evenodd" d="M187 92H164C160.134 92 157 95.134 157 99C157 102.866 160.134 106 164 106H187C190.866 106 194 102.866 194 99C194 95.134 190.866 92 187 92ZM164 88C157.925 88 153 92.9249 153 99C153 105.075 157.925 110 164 110H187C193.075 110 198 105.075 198 99C198 92.9249 193.075 88 187 88H164Z" fill="#3E9AF8"/>
<path fill-rule="evenodd" clip-rule="evenodd" d="M160.782 99C160.782 97.8954 161.678 97 162.782 97H176.478C177.582 97 178.478 97.8954 178.478 99C178.478 100.105 177.582 101 176.478 101H162.782C161.678 101 160.782 100.105 160.782 99Z" fill="#3E9AF8"/>
<path d="M190.174 99C190.174 100.105 189.298 101 188.217 101C187.137 101 186.261 100.105 186.261 99C186.261 97.8954 187.137 97 188.217 97C189.298 97 190.174 97.8954 190.174 99Z" fill="#3E9AF8"/>
<path d="M184.305 99C184.305 100.105 183.429 101 182.348 101C181.268 101 180.392 100.105 180.392 99C180.392 97.8954 181.268 97 182.348 97C183.429 97 184.305 97.8954 184.305 99Z" fill="#3E9AF8"/>
<path fill-rule="evenodd" clip-rule="evenodd" d="M132 132C132 133.105 131.105 134 130 134C128.895 134 128 133.105 128 132C128 130.895 128.895 130 130 130C131.105 130 132 130.895 132 132ZM136 132C136 135.314 133.314 138 130 138C126.686 138 124 135.314 124 132C124 128.686 126.686 126 130 126C133.314 126 136 128.686 136 132Z" fill="#3E9AF8"/>
<path fill-rule="evenodd" clip-rule="evenodd" d="M106 133C106 134.105 106.895 135 108 135H126C127.105 135 128 134.105 128 133C128 131.895 127.105 131 126 131H108C106.895 131 106 131.895 106 133ZM130 114C128.895 114 128 114.895 128 116V127.5C128 128.605 128.895 129.5 130 129.5C131.105 129.5 132 128.605 132 127.5V116C132 114.895 131.105 114 130 114Z" fill="#3E9AF8"/>
<path fill-rule="evenodd" clip-rule="evenodd" d="M172 132C172 133.105 172.895 134 174 134C175.105 134 176 133.105 176 132C176 130.895 175.105 130 174 130C172.895 130 172 130.895 172 132ZM168 132C168 135.314 170.686 138 174 138C177.314 138 180 135.314 180 132C180 128.686 177.314 126 174 126C170.686 126 168 128.686 168 132Z" fill="#3E9AF8"/>
<path fill-rule="evenodd" clip-rule="evenodd" d="M198 133C198 134.105 197.105 135 196 135H178C176.895 135 176 134.105 176 133C176 131.895 176.895 131 178 131H196C197.105 131 198 131.895 198 133ZM174 114C175.105 114 176 114.895 176 116V127.5C176 128.605 175.105 129.5 174 129.5C172.895 129.5 172 128.605 172 127.5V116C172 114.895 172.895 114 174 114Z" fill="#3E9AF8"/>
<path fill-rule="evenodd" clip-rule="evenodd" d="M139 133C139 131.895 139.895 131 141 131H163C164.105 131 165 131.895 165 133C165 134.105 164.105 135 163 135H141C139.895 135 139 134.105 139 133Z" fill="#3E9AF8"/>
</svg>
