<svg width="273" height="233" viewBox="0 0 273 233" fill="none" xmlns="http://www.w3.org/2000/svg">
<g clip-path="url(#clip0_12696_93671)">
<path fill-rule="evenodd" clip-rule="evenodd" d="M189.538 38.8808V1.29785H188.209V38.8808H189.538Z" fill="#3E9AF8"/>
<path d="M189.538 38.4969C176.744 38.4969 164.075 41.0168 152.255 45.913C140.435 50.8091 129.694 57.9854 120.647 67.0323C111.601 76.0791 104.424 86.8193 99.5282 98.6395C94.6321 110.46 92.1121 123.129 92.1121 135.923H93.4396C93.4396 123.303 95.9253 110.807 100.755 99.1476C105.584 87.4883 112.663 76.8945 121.586 67.971C130.51 59.0474 141.104 51.9688 152.763 47.1394C164.422 42.31 176.918 39.8244 189.538 39.8244V38.4969Z" fill="#3E9AF8"/>
<path fill-rule="evenodd" clip-rule="evenodd" d="M93.4401 135.48L20.8135 135.48L20.8135 136.809L93.4401 136.809L93.4401 135.48Z" fill="#3E9AF8"/>
<path d="M10.6283 146.551C16.4981 146.551 21.2566 141.793 21.2566 135.923C21.2566 130.053 16.4981 125.294 10.6283 125.294C4.75845 125.294 0 130.053 0 135.923C0 141.793 4.75845 146.551 10.6283 146.551Z" fill="#F4F8FE"/>
<path fill-rule="evenodd" clip-rule="evenodd" d="M19.928 135.923C19.928 141.059 15.7644 145.222 10.6283 145.222C5.49218 145.222 1.32854 141.059 1.32854 135.923C1.32854 130.787 5.49218 126.623 10.6283 126.623C15.7644 126.623 19.928 130.787 19.928 135.923ZM21.2566 135.923C21.2566 141.793 16.4981 146.551 10.6283 146.551C4.75845 146.551 0 141.793 0 135.923C0 130.053 4.75845 125.294 10.6283 125.294C16.4981 125.294 21.2566 130.053 21.2566 135.923Z" fill="#3E9AF8"/>
<rect x="0.664268" y="0.664268" width="165.181" height="165.181" rx="82.5907" transform="matrix(0 1 1 0 106.283 52.668)" stroke="#3E9AF8" stroke-width="1.32854"/>
<path fill-rule="evenodd" clip-rule="evenodd" d="M178.909 102.267H158.538C155.114 102.267 152.339 105.043 152.339 108.467C152.339 111.891 155.114 114.667 158.538 114.667H178.909C182.333 114.667 185.109 111.891 185.109 108.467C185.109 105.043 182.333 102.267 178.909 102.267ZM158.538 98.7241C153.158 98.7241 148.796 103.086 148.796 108.467C148.796 113.847 153.158 118.209 158.538 118.209H178.909C184.29 118.209 188.652 113.847 188.652 108.467C188.652 103.086 184.29 98.7241 178.909 98.7241H158.538Z" fill="#3E9AF8"/>
<path fill-rule="evenodd" clip-rule="evenodd" d="M155.688 108.467C155.688 107.488 156.481 106.695 157.459 106.695H169.589C170.567 106.695 171.36 107.488 171.36 108.467C171.36 109.445 170.567 110.238 169.589 110.238H157.459C156.481 110.238 155.688 109.445 155.688 108.467Z" fill="#3E9AF8"/>
<path d="M181.722 108.467C181.722 109.445 180.946 110.238 179.989 110.238C179.032 110.238 178.256 109.445 178.256 108.467C178.256 107.488 179.032 106.695 179.989 106.695C180.946 106.695 181.722 107.488 181.722 108.467Z" fill="#3E9AF8"/>
<path d="M176.521 108.467C176.521 109.445 175.746 110.238 174.789 110.238C173.831 110.238 173.056 109.445 173.056 108.467C173.056 107.488 173.831 106.695 174.789 106.695C175.746 106.695 176.521 107.488 176.521 108.467Z" fill="#3E9AF8"/>
<path fill-rule="evenodd" clip-rule="evenodd" d="M178.043 134.152H158.538C155.114 134.152 152.339 136.927 152.339 140.351C152.339 143.776 155.114 146.551 158.538 146.551H178.043C181.467 146.551 184.243 143.776 184.243 140.351C184.243 136.927 181.467 134.152 178.043 134.152ZM158.538 130.609C153.158 130.609 148.796 134.971 148.796 140.351C148.796 145.732 153.158 150.094 158.538 150.094H178.043C183.424 150.094 187.786 145.732 187.786 140.351C187.786 134.971 183.424 130.609 178.043 130.609H158.538Z" fill="#3E9AF8"/>
<path fill-rule="evenodd" clip-rule="evenodd" d="M155.501 140.351C155.501 139.373 156.294 138.58 157.272 138.58H169.139C170.117 138.58 170.91 139.373 170.91 140.351C170.91 141.33 170.117 142.123 169.139 142.123H157.272C156.294 142.123 155.501 141.33 155.501 140.351Z" fill="#3E9AF8"/>
<path d="M181.004 140.351C181.004 141.33 180.245 142.123 179.308 142.123C178.372 142.123 177.613 141.33 177.613 140.351C177.613 139.373 178.372 138.58 179.308 138.58C180.245 138.58 181.004 139.373 181.004 140.351Z" fill="#3E9AF8"/>
<path d="M175.919 140.351C175.919 141.33 175.16 142.123 174.224 142.123C173.287 142.123 172.528 141.33 172.528 140.351C172.528 139.373 173.287 138.58 174.224 138.58C175.16 138.58 175.919 139.373 175.919 140.351Z" fill="#3E9AF8"/>
<path fill-rule="evenodd" clip-rule="evenodd" d="M178.909 118.209H158.538C155.114 118.209 152.339 120.985 152.339 124.409C152.339 127.833 155.114 130.609 158.538 130.609H178.909C182.333 130.609 185.109 127.833 185.109 124.409C185.109 120.985 182.333 118.209 178.909 118.209ZM158.538 114.667C153.158 114.667 148.796 119.028 148.796 124.409C148.796 129.79 153.158 134.152 158.538 134.152H178.909C184.29 134.152 188.652 129.79 188.652 124.409C188.652 119.028 184.29 114.667 178.909 114.667H158.538Z" fill="#3E9AF8"/>
<path fill-rule="evenodd" clip-rule="evenodd" d="M155.688 124.409C155.688 123.431 156.481 122.638 157.459 122.638H169.589C170.567 122.638 171.36 123.431 171.36 124.409C171.36 125.387 170.567 126.18 169.589 126.18H157.459C156.481 126.18 155.688 125.387 155.688 124.409Z" fill="#3E9AF8"/>
<path d="M181.722 124.409C181.722 125.387 180.946 126.18 179.989 126.18C179.032 126.18 178.256 125.387 178.256 124.409C178.256 123.431 179.032 122.638 179.989 122.638C180.946 122.638 181.722 123.431 181.722 124.409Z" fill="#3E9AF8"/>
<path d="M176.521 124.409C176.521 125.387 175.746 126.18 174.789 126.18C173.831 126.18 173.056 125.387 173.056 124.409C173.056 123.431 173.831 122.638 174.789 122.638C175.746 122.638 176.521 123.431 176.521 124.409Z" fill="#3E9AF8"/>
<path fill-rule="evenodd" clip-rule="evenodd" d="M220.538 102.266H200.167C196.743 102.266 193.968 105.042 193.968 108.466C193.968 111.89 196.743 114.666 200.167 114.666H220.538C223.962 114.666 226.738 111.89 226.738 108.466C226.738 105.042 223.962 102.266 220.538 102.266ZM200.167 98.7231C194.787 98.7231 190.425 103.085 190.425 108.466C190.425 113.846 194.787 118.208 200.167 118.208H220.538C225.919 118.208 230.281 113.846 230.281 108.466C230.281 103.085 225.919 98.7231 220.538 98.7231H200.167Z" fill="#3E9AF8"/>
<path fill-rule="evenodd" clip-rule="evenodd" d="M197.316 108.466C197.316 107.487 198.109 106.694 199.088 106.694H211.218C212.196 106.694 212.989 107.487 212.989 108.466C212.989 109.444 212.196 110.237 211.218 110.237H199.088C198.109 110.237 197.316 109.444 197.316 108.466Z" fill="#3E9AF8"/>
<path d="M223.351 108.466C223.351 109.444 222.575 110.237 221.618 110.237C220.661 110.237 219.885 109.444 219.885 108.466C219.885 107.487 220.661 106.694 221.618 106.694C222.575 106.694 223.351 107.487 223.351 108.466Z" fill="#3E9AF8"/>
<path d="M218.15 108.466C218.15 109.444 217.374 110.237 216.417 110.237C215.46 110.237 214.685 109.444 214.685 108.466C214.685 107.487 215.46 106.694 216.417 106.694C217.374 106.694 218.15 107.487 218.15 108.466Z" fill="#3E9AF8"/>
<path fill-rule="evenodd" clip-rule="evenodd" d="M220.538 118.208H200.167C196.743 118.208 193.968 120.984 193.968 124.408C193.968 127.832 196.743 130.608 200.167 130.608H220.538C223.962 130.608 226.738 127.832 226.738 124.408C226.738 120.984 223.962 118.208 220.538 118.208ZM200.167 114.666C194.787 114.666 190.425 119.027 190.425 124.408C190.425 129.789 194.787 134.151 200.167 134.151H220.538C225.919 134.151 230.281 129.789 230.281 124.408C230.281 119.027 225.919 114.666 220.538 114.666H200.167Z" fill="#3E9AF8"/>
<path fill-rule="evenodd" clip-rule="evenodd" d="M197.316 124.408C197.316 123.43 198.109 122.637 199.088 122.637H211.218C212.196 122.637 212.989 123.43 212.989 124.408C212.989 125.386 212.196 126.179 211.218 126.179H199.088C198.109 126.179 197.316 125.386 197.316 124.408Z" fill="#3E9AF8"/>
<path d="M223.351 124.408C223.351 125.386 222.575 126.179 221.618 126.179C220.661 126.179 219.885 125.386 219.885 124.408C219.885 123.43 220.661 122.637 221.618 122.637C222.575 122.637 223.351 123.43 223.351 124.408Z" fill="#3E9AF8"/>
<path d="M218.15 124.408C218.15 125.386 217.374 126.179 216.417 126.179C215.46 126.179 214.685 125.386 214.685 124.408C214.685 123.43 215.46 122.637 216.417 122.637C217.374 122.637 218.15 123.43 218.15 124.408Z" fill="#3E9AF8"/>
<path fill-rule="evenodd" clip-rule="evenodd" d="M220.538 134.151H200.167C196.743 134.151 193.968 136.927 193.968 140.351C193.968 143.775 196.743 146.551 200.167 146.551H220.538C223.962 146.551 226.738 143.775 226.738 140.351C226.738 136.927 223.962 134.151 220.538 134.151ZM200.167 130.608C194.787 130.608 190.425 134.97 190.425 140.351C190.425 145.732 194.787 150.094 200.167 150.094H220.538C225.919 150.094 230.281 145.732 230.281 140.351C230.281 134.97 225.919 130.608 220.538 130.608H200.167Z" fill="#3E9AF8"/>
<path fill-rule="evenodd" clip-rule="evenodd" d="M197.316 140.351C197.316 139.373 198.109 138.58 199.088 138.58H211.218C212.196 138.58 212.989 139.373 212.989 140.351C212.989 141.329 212.196 142.122 211.218 142.122H199.088C198.109 142.122 197.316 141.329 197.316 140.351Z" fill="#3E9AF8"/>
<path d="M223.351 140.351C223.351 141.329 222.575 142.122 221.618 142.122C220.661 142.122 219.885 141.329 219.885 140.351C219.885 139.373 220.661 138.58 221.618 138.58C222.575 138.58 223.351 139.373 223.351 140.351Z" fill="#3E9AF8"/>
<path d="M218.15 140.351C218.15 141.329 217.374 142.122 216.417 142.122C215.46 142.122 214.685 141.329 214.685 140.351C214.685 139.373 215.46 138.58 216.417 138.58C217.374 138.58 218.15 139.373 218.15 140.351Z" fill="#3E9AF8"/>
<path fill-rule="evenodd" clip-rule="evenodd" d="M171.824 169.579C171.824 170.558 171.031 171.351 170.052 171.351C169.074 171.351 168.281 170.558 168.281 169.579C168.281 168.601 169.074 167.808 170.052 167.808C171.031 167.808 171.824 168.601 171.824 169.579ZM175.367 169.579C175.367 172.514 172.987 174.893 170.052 174.893C167.118 174.893 164.738 172.514 164.738 169.579C164.738 166.644 167.118 164.265 170.052 164.265C172.987 164.265 175.367 166.644 175.367 169.579Z" fill="#3E9AF8"/>
<path fill-rule="evenodd" clip-rule="evenodd" d="M148.796 170.465C148.796 171.443 149.589 172.236 150.567 172.236H166.51C167.488 172.236 168.281 171.443 168.281 170.465C168.281 169.487 167.488 168.693 166.51 168.693H150.567C149.589 168.693 148.796 169.487 148.796 170.465ZM170.052 153.637C169.074 153.637 168.281 154.43 168.281 155.408V165.594C168.281 166.572 169.074 167.365 170.052 167.365C171.031 167.365 171.824 166.572 171.824 165.594V155.408C171.824 154.43 171.031 153.637 170.052 153.637Z" fill="#3E9AF8"/>
<path fill-rule="evenodd" clip-rule="evenodd" d="M207.25 169.579C207.25 170.558 208.043 171.351 209.022 171.351C210 171.351 210.793 170.558 210.793 169.579C210.793 168.601 210 167.808 209.022 167.808C208.043 167.808 207.25 168.601 207.25 169.579ZM203.708 169.579C203.708 172.514 206.087 174.893 209.022 174.893C211.957 174.893 214.336 172.514 214.336 169.579C214.336 166.644 211.957 164.265 209.022 164.265C206.087 164.265 203.708 166.644 203.708 169.579Z" fill="#3E9AF8"/>
<path fill-rule="evenodd" clip-rule="evenodd" d="M230.278 170.465C230.278 171.443 229.485 172.236 228.507 172.236H212.565C211.586 172.236 210.793 171.443 210.793 170.465C210.793 169.487 211.586 168.693 212.565 168.693H228.507C229.485 168.693 230.278 169.487 230.278 170.465ZM209.022 153.637C210 153.637 210.793 154.43 210.793 155.408V165.594C210.793 166.572 210 167.365 209.022 167.365C208.043 167.365 207.25 166.572 207.25 165.594V155.408C207.25 154.43 208.043 153.637 209.022 153.637Z" fill="#3E9AF8"/>
<path fill-rule="evenodd" clip-rule="evenodd" d="M178.023 170.465C178.023 169.486 178.817 168.693 179.795 168.693H199.28C200.258 168.693 201.051 169.486 201.051 170.465C201.051 171.443 200.258 172.236 199.28 172.236H179.795C178.817 172.236 178.023 171.443 178.023 170.465Z" fill="#3E9AF8"/>
</g>
<defs>
<clipPath id="clip0_12696_93671">
<rect width="232" height="273" fill="white" transform="matrix(0 1 1 0 0 0.413086)"/>
</clipPath>
</defs>
</svg>
