<svg width="273" height="233" viewBox="0 0 273 233" fill="none" xmlns="http://www.w3.org/2000/svg">
<g clip-path="url(#clip0_12696_93658)">
<path fill-rule="evenodd" clip-rule="evenodd" d="M83.4625 38.8808V1.29785H84.791V38.8808H83.4625Z" fill="#91A3BE"/>
<path d="M83.4619 38.4969C96.2561 38.4969 108.925 41.0168 120.745 45.913C132.565 50.8091 143.306 57.9854 152.353 67.0323C161.399 76.0791 168.576 86.8193 173.472 98.6395C178.368 110.46 180.888 123.129 180.888 135.923H179.56C179.56 123.303 177.075 110.807 172.245 99.1476C167.416 87.4883 160.337 76.8945 151.414 67.971C142.49 59.0474 131.896 51.9688 120.237 47.1394C108.578 42.31 96.0817 39.8244 83.4619 39.8244V38.4969Z" fill="#91A3BE"/>
<path fill-rule="evenodd" clip-rule="evenodd" d="M179.56 135.48L252.187 135.48L252.187 136.809L179.56 136.809L179.56 135.48Z" fill="#91A3BE"/>
<path d="M262.372 146.551C256.502 146.551 251.743 141.793 251.743 135.923C251.743 130.053 256.502 125.294 262.372 125.294C268.242 125.294 273 130.053 273 135.923C273 141.793 268.242 146.551 262.372 146.551Z" fill="#F4F8FE"/>
<path fill-rule="evenodd" clip-rule="evenodd" d="M253.072 135.923C253.072 141.059 257.236 145.222 262.372 145.222C267.508 145.222 271.671 141.059 271.671 135.923C271.671 130.787 267.508 126.623 262.372 126.623C257.236 126.623 253.072 130.787 253.072 135.923ZM251.743 135.923C251.743 141.793 256.502 146.551 262.372 146.551C268.242 146.551 273 141.793 273 135.923C273 130.053 268.242 125.294 262.372 125.294C256.502 125.294 251.743 130.053 251.743 135.923Z" fill="#91A3BE"/>
<rect x="166.053" y="53.3322" width="165.181" height="165.181" rx="82.5907" transform="rotate(90 166.053 53.3322)" stroke="#91A3BE" stroke-width="1.32854"/>
<g clip-path="url(#clip1_12696_93658)">
<path d="M93.2041 134.151H97.6326" stroke="#305680" stroke-width="3.54276" stroke-linecap="round"/>
<path d="M109.146 141.237H114.461" stroke="#305680" stroke-width="3.54276" stroke-linecap="round"/>
<path d="M109.146 151.865H114.461" stroke="#305680" stroke-width="3.54276" stroke-linecap="round"/>
<path d="M52.4619 141.237H57.7761" stroke="#305680" stroke-width="3.54276" stroke-linecap="round"/>
<path d="M52.4619 151.865H57.7761" stroke="#305680" stroke-width="3.54276" stroke-linecap="round"/>
<path d="M81.6904 134.151H86.1189" stroke="#305680" stroke-width="3.54276" stroke-linecap="round"/>
<path d="M70.1758 134.151H74.6042" stroke="#305680" stroke-width="3.54276" stroke-linecap="round"/>
<path d="M47.1484 130.609V174.008C47.1484 174.497 47.545 174.893 48.0341 174.893H69.2907M103.833 128.837H118.889C119.379 128.837 119.775 129.234 119.775 129.723V174.008C119.775 174.497 119.379 174.893 118.889 174.893H97.6328M69.2907 174.893V150.141C69.2907 149.652 69.6872 149.255 70.1764 149.255H83.2403M69.2907 174.893H83.4618M97.6328 174.893V150.141C97.6328 149.652 97.2363 149.255 96.7471 149.255H83.2403M97.6328 174.893H83.4618M83.2403 149.255L83.4618 174.893" stroke="#305680" stroke-width="3.54276" stroke-linecap="round"/>
<path d="M103.832 110.238H107.818M103.832 110.238H63.0907M103.832 110.238V128.837M103.832 173.565V128.837M59.1051 110.238H63.0907M63.0907 110.238V128.837M63.0907 173.565V128.837M63.0907 128.837H44.4912M103.832 128.837H122.432" stroke="#305680" stroke-width="3.54276" stroke-linecap="round"/>
<rect x="64.8623" y="96.0669" width="37.199" height="28.3421" fill="#F3F3F3"/>
<circle cx="98.5175" cy="116.437" r="1.77138" fill="#305680"/>
<path d="M72.3012 105.794V114.643C72.3012 114.883 72.3968 115.114 72.5755 115.275C75.9174 118.283 84.0949 122.1 92.5267 115.285C92.7302 115.121 92.8493 114.868 92.8493 114.607V105.563M98.5177 103.103V110.238M98.5177 103.103L82.853 97.9296C82.6726 97.87 82.4779 97.87 82.2975 97.9296L68.8389 102.374C68.0663 102.629 68.0176 103.704 68.764 104.028L82.2226 109.869C82.4476 109.967 82.7029 109.967 82.9279 109.869L98.5177 103.103Z" stroke="#305680" stroke-width="3.54276" stroke-linecap="round"/>
</g>
</g>
<defs>
<clipPath id="clip0_12696_93658">
<rect width="232" height="273" fill="white" transform="matrix(0 1 -1 0 273 0.413086)"/>
</clipPath>
<clipPath id="clip1_12696_93658">
<rect width="81.4836" height="81.4836" fill="white" transform="translate(42.7197 95.1812)"/>
</clipPath>
</defs>
</svg>
