<svg width="246" height="308" viewBox="0 0 246 308" fill="none" xmlns="http://www.w3.org/2000/svg">
<path fill-rule="evenodd" clip-rule="evenodd" d="M42.4334 214H0V212.5H42.4334V214Z" fill="#91A3BE"/>
<path d="M42 214C42 199.555 44.8452 185.251 50.3732 171.905C55.9013 158.559 64.0038 146.433 74.2183 136.218C84.4327 126.004 96.559 117.901 109.905 112.373C123.251 106.845 137.555 104 152 104V105.499C137.751 105.499 123.642 108.305 110.478 113.758C97.3144 119.211 85.3533 127.203 75.2781 137.278C65.2028 147.353 57.2107 159.314 51.758 172.478C46.3053 185.642 43.4988 199.751 43.4988 214H42Z" fill="#91A3BE"/>
<path fill-rule="evenodd" clip-rule="evenodd" d="M151.5 105.5L151.5 23.5L153 23.5L153 105.5L151.5 105.5Z" fill="#91A3BE"/>
<path d="M164 12C164 18.6274 158.627 24 152 24C145.373 24 140 18.6274 140 12C140 5.37258 145.373 0 152 0C158.627 0 164 5.37258 164 12Z" fill="#F4F8FE"/>
<path fill-rule="evenodd" clip-rule="evenodd" d="M152 22.5C157.799 22.5 162.5 17.799 162.5 12C162.5 6.20101 157.799 1.5 152 1.5C146.201 1.5 141.5 6.20101 141.5 12C141.5 17.799 146.201 22.5 152 22.5ZM152 24C158.627 24 164 18.6274 164 12C164 5.37258 158.627 0 152 0C145.373 0 140 5.37258 140 12C140 18.6274 145.373 24 152 24Z" fill="#91A3BE"/>
<rect x="58.75" y="120.75" width="186.5" height="186.5" rx="93.25" stroke="#91A3BE" stroke-width="1.5"/>
<path d="M110.995 246.114C112.096 246.114 112.989 245.218 112.989 244.111C112.989 243.005 112.096 242.108 110.995 242.108C109.893 242.108 109 243.005 109 244.111C109 245.218 109.893 246.114 110.995 246.114Z" fill="#305680"/>
<path fill-rule="evenodd" clip-rule="evenodd" d="M176.205 230.462C175.807 229.65 174.887 229.241 174.021 229.491C171.653 230.176 169.484 231.44 167.695 233.172C167.119 233.729 166.962 234.593 167.306 235.318C167.475 235.677 167.556 236.079 167.537 236.485C167.517 236.891 167.399 237.282 167.197 237.619C166.995 237.956 166.719 238.226 166.4 238.411C166.081 238.595 165.726 238.689 165.37 238.689H165.314C164.495 238.689 163.772 239.227 163.534 240.013C163.081 241.511 162.839 243.101 162.839 244.745C162.838 245.811 162.941 246.876 163.147 247.921C163.333 248.868 164.206 249.516 165.162 249.417C165.577 249.374 165.998 249.46 166.373 249.67C166.75 249.88 167.067 250.208 167.277 250.622C167.487 251.036 167.575 251.511 167.526 251.985C167.476 252.458 167.293 252.898 167.008 253.249C166.422 253.971 166.456 255.016 167.087 255.699C168.911 257.673 171.202 259.128 173.739 259.916C174.72 260.221 175.761 259.669 176.065 258.684C176.213 258.205 176.5 257.798 176.872 257.516C177.243 257.234 177.683 257.088 178.126 257.088C178.57 257.088 179.009 257.234 179.38 257.516C179.752 257.798 180.039 258.205 180.187 258.684C180.491 259.669 181.532 260.221 182.513 259.916C185.05 259.128 187.341 257.673 189.165 255.7C189.796 255.017 189.83 253.972 189.244 253.25C188.959 252.898 188.776 252.458 188.727 251.985C188.677 251.512 188.766 251.037 188.975 250.623C189.185 250.209 189.503 249.881 189.879 249.67C190.254 249.46 190.675 249.375 191.09 249.418C192.046 249.517 192.92 248.868 193.106 247.921C193.307 246.894 193.413 245.833 193.413 244.747C193.415 243.143 193.181 241.548 192.719 240.015C192.478 239.218 191.741 238.677 190.911 238.689C190.552 238.694 190.195 238.604 189.872 238.422C189.549 238.24 189.269 237.971 189.063 237.633C188.858 237.295 188.736 236.903 188.716 236.494C188.695 236.085 188.775 235.68 188.947 235.319C189.29 234.593 189.133 233.729 188.557 233.172C186.768 231.44 184.599 230.176 182.231 229.491C181.365 229.241 180.445 229.65 180.047 230.462C179.858 230.848 179.574 231.164 179.235 231.38C178.896 231.596 178.512 231.706 178.126 231.706C177.739 231.706 177.356 231.596 177.017 231.38C176.678 231.164 176.394 230.848 176.205 230.462ZM171.252 236.665C171.277 236.142 171.236 235.62 171.132 235.11C171.956 234.455 172.86 233.919 173.819 233.516C174.172 233.906 174.577 234.249 175.024 234.534C175.799 235.028 176.676 235.33 177.584 235.416L178.127 235.442C179.226 235.442 180.3 235.125 181.228 234.534C181.676 234.249 182.08 233.906 182.433 233.516C183.392 233.919 184.296 234.455 185.121 235.11C185.014 235.626 184.973 236.156 185.001 236.686C185.053 237.709 185.357 238.705 185.888 239.579C186.42 240.454 187.163 241.179 188.053 241.68C188.493 241.928 188.961 242.117 189.445 242.242C189.611 243.063 189.694 243.902 189.694 244.744V244.746C189.694 245.103 189.679 245.456 189.65 245.805C189.1 245.926 188.567 246.128 188.069 246.407C187.033 246.986 186.197 247.868 185.66 248.929C185.122 249.991 184.904 251.189 185.027 252.374C185.089 252.97 185.236 253.551 185.463 254.099C184.666 254.784 183.787 255.352 182.849 255.791C182.506 255.317 182.093 254.893 181.622 254.536C180.614 253.771 179.39 253.353 178.126 253.353C176.862 253.353 175.638 253.771 174.63 254.536C174.159 254.893 173.747 255.317 173.403 255.791C172.465 255.352 171.586 254.783 170.789 254.099C171.016 253.55 171.163 252.969 171.225 252.373C171.349 251.188 171.13 249.99 170.593 248.929C170.055 247.867 169.219 246.986 168.183 246.406C167.685 246.128 167.152 245.926 166.602 245.805C166.573 245.453 166.558 245.101 166.559 244.748L166.559 244.746C166.559 243.885 166.644 243.048 166.806 242.241C167.311 242.111 167.798 241.912 168.254 241.649C169.132 241.142 169.863 240.415 170.385 239.543C170.907 238.672 171.204 237.681 171.252 236.665Z" fill="#305680"/>
<path fill-rule="evenodd" clip-rule="evenodd" d="M173.772 240.05C174.927 238.89 176.494 238.238 178.129 238.238C178.938 238.238 179.739 238.398 180.486 238.709C181.234 239.02 181.913 239.475 182.485 240.05C183.058 240.624 183.511 241.306 183.821 242.057C184.131 242.808 184.29 243.612 184.29 244.425C184.29 245.237 184.131 246.042 183.821 246.792C183.511 247.543 183.058 248.225 182.485 248.8C181.913 249.374 181.234 249.83 180.486 250.141C179.739 250.452 178.938 250.612 178.129 250.612C176.494 250.612 174.927 249.96 173.772 248.8C172.616 247.639 171.967 246.066 171.967 244.425C171.967 242.784 172.616 241.21 173.772 240.05ZM178.129 241.973C177.481 241.973 176.86 242.231 176.402 242.691C175.944 243.151 175.687 243.775 175.687 244.425C175.687 245.075 175.944 245.699 176.402 246.158C176.86 246.618 177.481 246.876 178.129 246.876C178.449 246.876 178.767 246.813 179.063 246.69C179.359 246.567 179.628 246.386 179.855 246.158C180.082 245.931 180.262 245.66 180.384 245.363C180.507 245.066 180.57 244.747 180.57 244.425C180.57 244.103 180.507 243.784 180.384 243.487C180.262 243.189 180.082 242.919 179.855 242.691C179.628 242.464 179.359 242.283 179.063 242.16C178.767 242.037 178.449 241.973 178.129 241.973Z" fill="#305680"/>
<path fill-rule="evenodd" clip-rule="evenodd" d="M122.001 236.474V253.651H130.394V236.474H122.001ZM134.383 253.651V235.392C134.383 233.777 133.079 232.468 131.471 232.468H120.923C119.315 232.468 118.012 233.777 118.012 235.392V253.651H112.989V252.123C112.989 251.017 112.096 250.12 110.995 250.12C109.893 250.12 109 251.017 109 252.123V254.733C109 256.348 110.304 257.657 111.912 257.657H158.987C160.088 257.657 160.981 256.76 160.981 255.654C160.981 254.548 160.088 253.651 158.987 253.651H134.383Z" fill="#305680"/>
<path fill-rule="evenodd" clip-rule="evenodd" d="M127.603 189.344L122.439 215.27H135.632L129.872 189.344H127.603ZM139.719 215.27H150.048L145.483 195.791H142.245L138.834 211.284L139.719 215.27ZM136.782 202.047L133.578 187.625C133.281 186.289 132.1 185.338 130.736 185.338H126.72C125.332 185.338 124.137 186.322 123.865 187.688L118.371 215.27H117.713C116.105 215.27 114.801 216.579 114.801 218.194V221.29H111.912C110.304 221.29 109 222.599 109 224.214V236.1C109 237.206 109.893 238.103 110.995 238.103C112.096 238.103 112.989 237.206 112.989 236.1V225.296H116.796L190.011 225.711V226.943C190.011 228.049 190.904 228.946 192.005 228.946C193.107 228.946 194 228.049 194 226.943V224.635C194 223.027 192.706 221.721 191.105 221.711L158.23 221.525V218.194C158.23 216.579 156.926 215.27 155.318 215.27H154.146L149.171 194.039C148.862 192.718 147.688 191.785 146.337 191.785H141.38C140.014 191.785 138.831 192.738 138.536 194.078L136.782 202.047ZM154.24 221.502V219.276H118.791V221.301L154.24 221.502Z" fill="#305680"/>
<path fill-rule="evenodd" clip-rule="evenodd" d="M153.487 173.323C154.739 173.859 156.168 173.695 157.277 172.886C157.934 172.407 158.728 172.127 159.598 172.127C161.673 172.127 163.389 173.753 163.621 175.844C163.808 177.525 164.963 178.916 166.533 179.355C168.684 179.956 170.262 182.002 170.262 184.421C170.262 187.317 168.004 189.665 165.219 189.665C163.226 189.665 161.494 188.462 160.674 186.697C160.165 185.601 159.217 184.795 158.083 184.494C156.949 184.193 155.745 184.428 154.794 185.136C153.725 185.931 152.421 186.398 151.001 186.398C148.795 186.398 146.843 185.264 145.654 183.507C144.423 181.687 142.025 181.21 140.235 182.429C139.744 182.764 139.159 182.959 138.519 182.959C136.784 182.959 135.378 181.496 135.378 179.692C135.378 177.888 136.784 176.425 138.519 176.425C139.145 176.425 139.716 176.611 140.2 176.931C142.006 178.126 144.397 177.616 145.605 175.779C146.788 173.981 148.764 172.814 151.001 172.814C151.889 172.814 152.726 172.996 153.487 173.323ZM142.33 173.45C144.221 170.574 147.399 168.688 151.001 168.688C152.417 168.688 153.767 168.979 154.999 169.507C156.301 168.557 157.887 168 159.598 168C163.711 168 167.101 171.221 167.563 175.37C171.403 176.443 174.229 180.088 174.229 184.421C174.229 189.596 170.195 193.791 165.219 193.791C162.749 193.791 160.512 192.758 158.884 191.084C158.157 190.336 157.552 189.461 157.102 188.493C156.141 189.207 155.06 189.758 153.895 190.104C152.976 190.378 152.005 190.525 151.001 190.525C147.449 190.525 144.309 188.69 142.409 185.882C141.291 186.643 139.955 187.086 138.519 187.086C134.593 187.086 131.41 183.775 131.41 179.692C131.41 175.609 134.593 172.299 138.519 172.299C139.921 172.299 141.228 172.721 142.33 173.45Z" fill="#305680"/>
</svg>
