<svg width="273" height="219" viewBox="0 0 273 219" fill="none" xmlns="http://www.w3.org/2000/svg">
<path fill-rule="evenodd" clip-rule="evenodd" d="M83.5113 37.7758V0.192871L84.8398 0.192871V37.7758H83.5113Z" fill="#91A3BE"/>
<path d="M83.5117 37.3919C96.3059 37.3919 108.975 39.9119 120.795 44.808C132.615 49.7041 143.355 56.8805 152.402 65.9273C161.449 74.9741 168.625 85.7143 173.522 97.5346C178.418 109.355 180.938 122.024 180.938 134.818H179.61C179.61 122.198 177.125 109.702 172.295 98.0426C167.466 86.3834 160.387 75.7895 151.464 66.866C142.54 57.9424 131.946 50.8638 120.287 46.0344C108.628 41.205 96.1316 38.7194 83.5117 38.7194V37.3919Z" fill="#91A3BE"/>
<path fill-rule="evenodd" clip-rule="evenodd" d="M179.608 134.375L252.234 134.375L252.234 135.704L179.608 135.704L179.608 134.375Z" fill="#91A3BE"/>
<path d="M262.421 145.446C256.551 145.446 251.792 140.688 251.792 134.818C251.792 128.948 256.551 124.189 262.421 124.189C268.29 124.189 273.049 128.948 273.049 134.818C273.049 140.688 268.29 145.446 262.421 145.446Z" fill="#F4F8FE"/>
<path fill-rule="evenodd" clip-rule="evenodd" d="M253.121 134.818C253.121 139.954 257.284 144.117 262.421 144.117C267.557 144.117 271.72 139.954 271.72 134.818C271.72 129.682 267.557 125.518 262.421 125.518C257.284 125.518 253.121 129.682 253.121 134.818ZM251.792 134.818C251.792 140.688 256.551 145.446 262.421 145.446C268.29 145.446 273.049 140.688 273.049 134.818C273.049 128.948 268.29 124.189 262.421 124.189C256.551 124.189 251.792 128.948 251.792 134.818Z" fill="#91A3BE"/>
<rect x="166.101" y="52.2273" width="165.181" height="165.181" rx="82.5907" transform="rotate(90 166.101 52.2273)" stroke="#91A3BE" stroke-width="1.32854"/>
<g clip-path="url(#clip0_12696_93627)">
<path d="M47.4512 163.52C48.4269 163.52 49.2179 162.725 49.2179 161.746C49.2179 160.766 48.4269 159.972 47.4512 159.972C46.4755 159.972 45.6846 160.766 45.6846 161.746C45.6846 162.725 46.4755 163.52 47.4512 163.52Z" fill="#305680"/>
<path fill-rule="evenodd" clip-rule="evenodd" d="M105.206 149.656C104.854 148.937 104.039 148.575 103.272 148.796C101.175 149.403 99.2542 150.522 97.6691 152.056C97.1592 152.55 97.0204 153.315 97.3244 153.957C97.4749 154.275 97.5464 154.631 97.5292 154.991C97.512 155.351 97.407 155.696 97.2282 155.995C97.0495 156.293 96.8047 156.533 96.5219 156.696C96.2395 156.859 95.9256 156.943 95.6102 156.942H95.5602C94.8349 156.942 94.1948 157.419 93.984 158.116C93.5827 159.442 93.3682 160.851 93.3682 162.306C93.3673 163.251 93.4587 164.194 93.6408 165.119C93.8058 165.958 94.5795 166.532 95.426 166.444C95.7934 166.406 96.1663 166.482 96.4987 166.668C96.8319 166.854 97.1134 167.145 97.2989 167.512C97.4847 167.878 97.5629 168.299 97.5192 168.718C97.4756 169.138 97.3132 169.527 97.0607 169.839C96.5422 170.478 96.5721 171.404 97.1308 172.008C98.7465 173.756 100.775 175.045 103.022 175.743C103.891 176.013 104.814 175.525 105.083 174.652C105.214 174.228 105.468 173.868 105.798 173.618C106.126 173.368 106.515 173.239 106.908 173.239C107.301 173.239 107.69 173.368 108.019 173.618C108.348 173.868 108.602 174.228 108.733 174.652C109.002 175.525 109.925 176.013 110.794 175.743C113.041 175.046 115.069 173.757 116.685 172.009C117.244 171.404 117.274 170.479 116.755 169.839C116.503 169.528 116.34 169.138 116.297 168.719C116.253 168.3 116.331 167.879 116.517 167.512C116.703 167.146 116.984 166.855 117.317 166.669C117.65 166.483 118.023 166.407 118.39 166.445C119.237 166.533 120.011 165.958 120.175 165.12C120.354 164.21 120.448 163.27 120.448 162.309C120.449 160.888 120.242 159.475 119.833 158.117C119.62 157.411 118.966 156.932 118.231 156.943C117.914 156.947 117.597 156.868 117.312 156.707C117.025 156.545 116.777 156.307 116.595 156.008C116.413 155.708 116.306 155.361 116.287 154.999C116.269 154.637 116.34 154.278 116.492 153.958C116.796 153.315 116.657 152.55 116.147 152.056C114.562 150.522 112.641 149.403 110.544 148.796C109.777 148.575 108.962 148.937 108.61 149.656C108.442 149.998 108.191 150.278 107.89 150.469C107.59 150.66 107.25 150.758 106.908 150.758C106.565 150.758 106.226 150.66 105.926 150.469C105.625 150.278 105.374 149.998 105.206 149.656ZM100.82 155.15C100.842 154.687 100.806 154.224 100.713 153.773C101.444 153.192 102.244 152.718 103.093 152.361C103.406 152.706 103.764 153.01 104.16 153.262C104.847 153.7 105.624 153.967 106.428 154.044L106.908 154.067C107.882 154.067 108.833 153.786 109.656 153.262C110.052 153.01 110.41 152.706 110.723 152.361C111.572 152.718 112.372 153.192 113.103 153.773C113.009 154.23 112.973 154.699 112.997 155.168C113.043 156.075 113.312 156.957 113.783 157.731C114.254 158.506 114.912 159.148 115.7 159.592C116.09 159.812 116.504 159.979 116.933 160.089C117.08 160.817 117.154 161.56 117.153 162.306V162.307C117.153 162.624 117.14 162.937 117.114 163.246C116.627 163.353 116.156 163.532 115.714 163.778C114.797 164.292 114.057 165.072 113.58 166.013C113.104 166.952 112.911 168.014 113.02 169.063C113.075 169.591 113.206 170.106 113.406 170.591C112.701 171.197 111.922 171.701 111.091 172.09C110.787 171.67 110.422 171.294 110.004 170.978C109.112 170.301 108.027 169.931 106.908 169.931C105.789 169.931 104.705 170.301 103.812 170.978C103.394 171.294 103.029 171.67 102.725 172.09C101.894 171.701 101.115 171.197 100.41 170.591C100.61 170.105 100.741 169.59 100.796 169.062C100.905 168.013 100.712 166.952 100.236 166.012C99.7594 165.072 99.0193 164.291 98.1018 163.778C97.6603 163.531 97.1884 163.352 96.7012 163.245C96.6754 162.934 96.6626 162.621 96.6629 162.309L96.6629 162.307C96.6629 161.545 96.7386 160.803 96.8823 160.089C97.3292 159.974 97.7604 159.797 98.1643 159.564C98.9418 159.115 99.5897 158.472 100.052 157.699C100.514 156.927 100.777 156.05 100.82 155.15Z" fill="#305680"/>
<path fill-rule="evenodd" clip-rule="evenodd" d="M103.052 158.148C104.075 157.121 105.463 156.543 106.91 156.543C107.627 156.543 108.337 156.685 108.999 156.961C109.661 157.236 110.262 157.64 110.769 158.148C111.276 158.657 111.678 159.261 111.952 159.926C112.226 160.591 112.368 161.304 112.368 162.023C112.368 162.743 112.226 163.455 111.952 164.12C111.678 164.785 111.276 165.389 110.769 165.898C110.262 166.407 109.661 166.811 108.999 167.086C108.337 167.361 107.627 167.503 106.91 167.503C105.463 167.503 104.075 166.926 103.052 165.898C102.028 164.87 101.453 163.477 101.453 162.023C101.453 160.57 102.028 159.176 103.052 158.148ZM106.91 159.852C106.337 159.852 105.787 160.081 105.381 160.488C104.976 160.895 104.748 161.447 104.748 162.023C104.748 162.599 104.976 163.151 105.381 163.559C105.787 163.966 106.337 164.195 106.91 164.195C107.194 164.195 107.476 164.139 107.738 164.029C108 163.92 108.239 163.76 108.439 163.559C108.64 163.357 108.8 163.118 108.908 162.854C109.017 162.591 109.073 162.308 109.073 162.023C109.073 161.738 109.017 161.456 108.908 161.192C108.8 160.929 108.64 160.689 108.439 160.488C108.239 160.286 108 160.126 107.738 160.017C107.476 159.908 107.194 159.852 106.91 159.852Z" fill="#305680"/>
<path fill-rule="evenodd" clip-rule="evenodd" d="M57.1994 154.981V170.194H64.6327V154.981H57.1994ZM68.166 170.194V154.023C68.166 152.593 67.0114 151.433 65.587 151.433H56.2451C54.8208 151.433 53.6661 152.593 53.6661 154.023V170.194H49.2179V168.841C49.2179 167.861 48.4269 167.067 47.4512 167.067C46.4755 167.067 45.6846 167.861 45.6846 168.841V171.153C45.6846 172.583 46.8392 173.742 48.2636 173.742H89.9573C90.933 173.742 91.724 172.948 91.724 171.968C91.724 170.989 90.933 170.194 89.9573 170.194H68.166Z" fill="#305680"/>
<path fill-rule="evenodd" clip-rule="evenodd" d="M62.1613 113.238L57.5877 136.201H69.2723L64.171 113.238H62.1613ZM72.8925 136.201H82.0403L77.9976 118.948H75.1292L72.1083 132.671L72.8925 136.201ZM70.2908 124.49L67.4531 111.716C67.1901 110.532 66.1439 109.69 64.9359 109.69H61.3789C60.1496 109.69 59.0911 110.562 58.85 111.772L53.9844 136.201H53.4019C51.9776 136.201 50.8229 137.36 50.8229 138.791V141.533H48.2636C46.8392 141.533 45.6846 142.692 45.6846 144.123V154.65C45.6846 155.629 46.4755 156.424 47.4512 156.424C48.4269 156.424 49.2179 155.629 49.2179 154.65V145.081H52.5896L117.435 145.449V146.54C117.435 147.519 118.226 148.314 119.202 148.314C120.177 148.314 120.968 147.519 120.968 146.54V144.496C120.968 143.071 119.822 141.914 118.404 141.906L89.2869 141.741V138.791C89.2869 137.36 88.1323 136.201 86.7079 136.201H85.6701L81.2639 117.397C80.9898 116.227 79.9503 115.4 78.7535 115.4H74.3628C73.153 115.4 72.1058 116.245 71.8446 117.431L70.2908 124.49ZM85.7536 141.721V139.749H54.3562V141.543L85.7536 141.721Z" fill="#305680"/>
<path fill-rule="evenodd" clip-rule="evenodd" d="M85.0865 99.0486C86.1957 99.5241 87.4615 99.3782 88.4437 98.6617C89.025 98.2377 89.7289 97.9894 90.4991 97.9894C92.3369 97.9894 93.8563 99.4297 94.0625 101.282C94.2281 102.77 95.2504 104.003 96.6417 104.392C98.5462 104.924 99.9437 106.736 99.9437 108.878C99.9437 111.443 97.9442 113.523 95.4777 113.523C93.7119 113.523 92.1786 112.457 91.4524 110.894C91.0014 109.924 90.1615 109.21 89.1572 108.943C88.153 108.677 87.0868 108.885 86.2438 109.512C85.2975 110.216 84.1428 110.629 82.8849 110.629C80.9307 110.629 79.2018 109.625 78.1492 108.069C77.0585 106.457 74.935 106.034 73.3494 107.115C72.9143 107.411 72.3966 107.584 71.8296 107.584C70.293 107.584 69.0474 106.288 69.0474 104.69C69.0474 103.092 70.293 101.797 71.8296 101.797C72.3836 101.797 72.8899 101.961 73.3184 102.245C74.9176 103.303 77.0354 102.852 78.1055 101.224C79.1532 99.6314 80.9035 98.5985 82.8849 98.5985C83.6712 98.5985 84.4125 98.7597 85.0865 99.0486ZM75.2048 99.1611C76.8795 96.6147 79.6946 94.9436 82.8849 94.9436C84.1386 94.9436 85.3343 95.2017 86.4257 95.6695C87.5789 94.8282 88.9836 94.3345 90.4991 94.3345C94.1421 94.3345 97.1444 97.1872 97.5534 100.862C100.954 101.812 103.458 105.041 103.458 108.878C103.458 113.462 99.8851 117.178 95.4777 117.178C93.2901 117.178 91.3081 116.262 89.8665 114.78C89.2227 114.117 88.6866 113.342 88.2882 112.485C87.4373 113.118 86.4794 113.605 85.4482 113.912C84.6339 114.154 83.774 114.284 82.8849 114.284C79.7387 114.284 76.9575 112.659 75.275 110.172C74.285 110.846 73.1013 111.238 71.8296 111.238C68.3522 111.238 65.5332 108.307 65.5332 104.69C65.5332 101.073 68.3522 98.1417 71.8296 98.1417C73.0714 98.1417 74.2293 98.5156 75.2048 99.1611Z" fill="#305680"/>
</g>
<defs>
<clipPath id="clip0_12696_93627">
<rect width="81.4836" height="81.4836" fill="white" transform="translate(42.7686 94.0762)"/>
</clipPath>
</defs>
</svg>
