<svg width="273" height="233" viewBox="0 0 273 233" fill="none" xmlns="http://www.w3.org/2000/svg">
<g clip-path="url(#clip0_12696_93684)">
<path fill-rule="evenodd" clip-rule="evenodd" d="M83.4625 38.8808V1.29785H84.791V38.8808H83.4625Z" fill="#91A3BE"/>
<path d="M83.4619 38.4969C96.2561 38.4969 108.925 41.0168 120.745 45.913C132.565 50.8091 143.306 57.9854 152.353 67.0323C161.399 76.0791 168.576 86.8193 173.472 98.6395C178.368 110.46 180.888 123.129 180.888 135.923H179.56C179.56 123.303 177.075 110.807 172.245 99.1476C167.416 87.4883 160.337 76.8945 151.414 67.971C142.49 59.0474 131.896 51.9688 120.237 47.1394C108.578 42.31 96.0817 39.8244 83.4619 39.8244V38.4969Z" fill="#91A3BE"/>
<path fill-rule="evenodd" clip-rule="evenodd" d="M179.56 135.48L252.187 135.48L252.187 136.809L179.56 136.809L179.56 135.48Z" fill="#91A3BE"/>
<path d="M262.372 146.551C256.502 146.551 251.743 141.793 251.743 135.923C251.743 130.053 256.502 125.294 262.372 125.294C268.242 125.294 273 130.053 273 135.923C273 141.793 268.242 146.551 262.372 146.551Z" fill="#F4F8FE"/>
<path fill-rule="evenodd" clip-rule="evenodd" d="M253.072 135.923C253.072 141.059 257.236 145.222 262.372 145.222C267.508 145.222 271.671 141.059 271.671 135.923C271.671 130.787 267.508 126.623 262.372 126.623C257.236 126.623 253.072 130.787 253.072 135.923ZM251.743 135.923C251.743 141.793 256.502 146.551 262.372 146.551C268.242 146.551 273 141.793 273 135.923C273 130.053 268.242 125.294 262.372 125.294C256.502 125.294 251.743 130.053 251.743 135.923Z" fill="#91A3BE"/>
<rect x="166.053" y="53.3322" width="165.181" height="165.181" rx="82.5907" transform="rotate(90 166.053 53.3322)" stroke="#91A3BE" stroke-width="1.32854"/>
<g clip-path="url(#clip1_12696_93684)">
<path d="M68.4049 173.122H48.034M68.4049 173.122H75.4904M68.4049 173.122V164.265M68.4049 118.317L110.187 99.9315C110.505 99.7914 110.854 100.056 110.804 100.4L100.29 173.122M68.4049 118.317L45.2618 115.641C44.9212 115.602 44.667 115.948 44.8063 116.261L48.034 123.524M68.4049 118.317V123.524M100.29 173.122H118.889M100.29 173.122H93.2042M122.432 173.122H118.889M118.889 173.122V166.037M48.034 123.524V173.122M48.034 123.524H68.4049M48.034 173.122H44.4912M93.2042 173.122V155.408M93.2042 173.122H84.3473M93.2042 155.408H84.3473M93.2042 155.408H94.9756M84.3473 155.408V173.122M84.3473 155.408H75.4904M84.3473 173.122H75.4904M75.4904 155.408V173.122M75.4904 155.408H73.719M108.078 123.569H118.889M118.889 123.569V118.652C118.889 118.408 118.691 118.209 118.446 118.209H108.704M118.889 123.569V153.637M68.4049 123.524V129.388V132.38M68.4049 164.265H54.2338M68.4049 164.265V162.601V156.401V153.637M68.4049 153.637V151.53V145.773V143.009M68.4049 153.637H54.2338M68.4049 143.009V140.459V134.702V132.38M68.4049 143.009H54.2338M68.4049 132.38H54.2338M103.39 164.265H112.689M103.832 153.637H113.575M105.161 143.009H113.575M106.49 132.38H113.575" stroke="#305680" stroke-width="3.54276" stroke-linecap="round"/>
<path d="M76.3311 122.278H80.3167C80.5612 122.278 80.7595 122.477 80.7595 122.721V124.935M95.8163 137.335H81.2024C80.9578 137.335 80.7595 137.137 80.7595 136.892V133.792M80.7595 124.935H95.3734C95.618 124.935 95.8163 125.134 95.8163 125.378V131.099C95.8163 131.123 95.8144 131.147 95.8101 131.171C95.649 132.067 94.9072 133.792 93.1592 133.792C91.3878 133.792 84.1547 133.792 80.7595 133.792M80.7595 124.935V133.792" stroke="#305680" stroke-width="2.65707" stroke-linecap="round"/>
<circle cx="84.7454" cy="142.206" r="2.21423" stroke="#305680" stroke-width="1.77138"/>
<circle cx="91.8304" cy="142.206" r="2.21423" stroke="#305680" stroke-width="1.77138"/>
<circle cx="118.89" cy="159.837" r="1.77138" fill="#305680"/>
</g>
</g>
<defs>
<clipPath id="clip0_12696_93684">
<rect width="232" height="273" fill="white" transform="matrix(0 1 -1 0 273 0.413086)"/>
</clipPath>
<clipPath id="clip1_12696_93684">
<rect width="81.4836" height="81.4836" fill="white" transform="translate(42.7197 95.1812)"/>
</clipPath>
</defs>
</svg>
