<svg width="246" height="308" viewBox="0 0 246 308" fill="none" xmlns="http://www.w3.org/2000/svg">
<path fill-rule="evenodd" clip-rule="evenodd" d="M42.4334 214H0V212.5H42.4334V214Z" fill="#91A3BE"/>
<path d="M42 214C42 199.555 44.8452 185.251 50.3732 171.905C55.9013 158.559 64.0038 146.433 74.2183 136.218C84.4327 126.004 96.559 117.901 109.905 112.373C123.251 106.845 137.555 104 152 104V105.499C137.751 105.499 123.642 108.305 110.478 113.758C97.3144 119.211 85.3533 127.203 75.2781 137.278C65.2028 147.353 57.2107 159.314 51.758 172.478C46.3053 185.642 43.4988 199.751 43.4988 214H42Z" fill="#91A3BE"/>
<path fill-rule="evenodd" clip-rule="evenodd" d="M151.5 105.5L151.5 23.5L153 23.5L153 105.5L151.5 105.5Z" fill="#91A3BE"/>
<path d="M164 12C164 18.6274 158.627 24 152 24C145.373 24 140 18.6274 140 12C140 5.37258 145.373 0 152 0C158.627 0 164 5.37258 164 12Z" fill="#F4F8FE"/>
<path fill-rule="evenodd" clip-rule="evenodd" d="M152 22.5C157.799 22.5 162.5 17.799 162.5 12C162.5 6.20101 157.799 1.5 152 1.5C146.201 1.5 141.5 6.20101 141.5 12C141.5 17.799 146.201 22.5 152 22.5ZM152 24C158.627 24 164 18.6274 164 12C164 5.37258 158.627 0 152 0C145.373 0 140 5.37258 140 12C140 18.6274 145.373 24 152 24Z" fill="#91A3BE"/>
<rect x="58.75" y="120.75" width="186.5" height="186.5" rx="93.25" stroke="#91A3BE" stroke-width="1.5"/>
<path d="M135 256H112M135 256H143M135 256V246M135 194.121L182.175 173.363C182.534 173.205 182.927 173.504 182.871 173.892L171 256M135 194.121L108.87 191.101C108.486 191.056 108.199 191.447 108.356 191.8L112 200M135 194.121V200M171 256H192M171 256H163M196 256H192M192 256V248M112 200V256M112 200H135M112 256H108M163 256V236M163 256H153M163 236H153M163 236H165M153 236V256M153 236H143M153 256H143M143 236V256M143 236H141M179.793 200.052H192M192 200.052V194.5C192 194.224 191.776 194 191.5 194H180.5M192 200.052V234M135 200V206.621V210M135 246H119M135 246V244.121V237.121V234M135 234V231.621V225.121V222M135 234H119M135 222V219.121V212.621V210M135 222H119M135 210H119M174.5 246H185M175 234H186M176.5 222H186M178 210H186" stroke="#305680" stroke-width="4" stroke-linecap="round"/>
<path d="M143.949 198.594H148.449C148.726 198.594 148.949 198.818 148.949 199.094V201.594M165.949 215.594H149.449C149.173 215.594 148.949 215.37 148.949 215.094V211.594M148.949 201.594H165.449C165.726 201.594 165.949 201.818 165.949 202.094V208.553C165.949 208.58 165.947 208.607 165.943 208.634C165.761 209.647 164.923 211.594 162.949 211.594C160.949 211.594 152.783 211.594 148.949 211.594M148.949 201.594V211.594" stroke="#305680" stroke-width="3" stroke-linecap="round"/>
<circle cx="153.449" cy="221.094" r="2.5" stroke="#305680" stroke-width="2"/>
<circle cx="161.449" cy="221.094" r="2.5" stroke="#305680" stroke-width="2"/>
<circle cx="192" cy="241" r="2" fill="#305680"/>
</svg>
