<svg width="340" height="266" viewBox="0 0 340 266" fill="none" xmlns="http://www.w3.org/2000/svg">
    <g clip-path="url(#clip0_14679_18199)">
        <path fill-rule="evenodd" clip-rule="evenodd" d="M113.387 184.486C102.809 184.486 93.2465 180.196 86.3203 173.283C79.4141 166.357 75.1176 156.795 75.1176 146.216C75.1176 135.657 79.4074 126.095 86.3203 119.169C93.2465 112.243 102.809 107.966 113.387 107.966C123.946 107.966 133.509 112.236 140.435 119.169C147.361 126.102 151.637 135.657 151.637 146.216C151.637 156.795 147.368 166.357 140.435 173.283C133.509 180.196 123.946 184.486 113.387 184.486ZM89.3683 237.286C81.0676 235.101 73.2184 231.807 65.9734 227.59C64.2203 226.574 62.248 226.501 60.4418 227.418L46.8352 234.364C44.5574 235.512 41.9211 235.101 40.1348 233.308L26.3023 219.475C24.516 217.689 24.0977 215.053 25.2465 212.775L32.1926 199.148C33.1156 197.362 33.0426 195.383 32.0199 193.63C27.8031 186.385 24.5094 178.536 22.3246 170.235C21.8133 168.276 20.4453 166.829 18.5195 166.204L3.9832 161.483C1.57266 160.693 -0.0078125 158.548 -0.0078125 156.004V136.448C-0.0078125 133.904 1.57266 131.739 3.9832 130.949L18.5129 126.241C20.432 125.604 21.8066 124.169 22.318 122.21C24.5027 113.909 27.7965 106.06 32.0133 98.8152C33.0293 97.0621 33.0891 95.0898 32.1859 93.2836L25.2332 79.657C24.0844 77.3992 24.4961 74.7629 26.2891 72.9566L40.1215 59.1375C41.9078 57.3312 44.5441 56.9195 46.8219 58.0816L60.4352 65.0078C62.2414 65.9309 64.2203 65.8711 65.9668 64.8551C73.2117 60.6184 81.0609 57.3246 89.3617 55.1398C91.3207 54.6285 92.7683 53.2738 93.3926 51.3547L98.1141 36.825C98.8844 34.3945 101.049 32.834 103.593 32.834H123.149C125.693 32.834 127.857 34.3945 128.628 36.825L133.349 51.3547C133.987 53.2738 135.421 54.6285 137.38 55.1398C145.681 57.3445 153.55 60.6184 160.775 64.8551C162.528 65.8711 164.5 65.9309 166.307 65.0078L179.933 58.0816C182.191 56.9129 184.827 57.3312 186.614 59.1375L200.446 72.9566C202.252 74.7629 202.664 77.3992 201.502 79.657L194.576 93.2836C193.653 95.0898 193.712 97.0687 194.729 98.8152C198.965 106.06 202.239 113.909 204.444 122.21C204.955 124.169 206.31 125.597 208.229 126.241L222.759 130.949C225.189 131.739 226.75 133.904 226.75 136.448V156.004C226.75 158.548 225.189 160.693 222.759 161.483L208.229 166.204C206.31 166.829 204.955 168.276 204.424 170.235C203.109 175.262 201.376 180.136 199.264 184.825C196.01 181.624 192.75 178.463 189.476 175.302C183.791 169.784 174.72 169.883 169.149 175.488L95.9957 249.106L93.3992 241.084C92.775 239.165 91.3273 237.797 89.3683 237.286ZM78.584 181.02C87.4891 189.945 99.8008 195.436 113.387 195.436C126.974 195.436 139.286 189.938 148.191 181.02C157.096 172.114 162.608 159.803 162.608 146.216C162.608 132.629 157.089 120.318 148.191 111.412C139.293 102.507 126.974 96.9957 113.387 96.9957C99.8008 96.9957 87.4891 102.514 78.584 111.412C69.659 120.318 64.1672 132.629 64.1672 146.216C64.1672 159.803 69.659 172.114 78.584 181.02ZM336.486 165.135H282.464C281.017 165.135 279.775 165.965 279.224 167.3C278.659 168.635 278.958 170.102 279.974 171.118L290.871 182.016C292.246 183.39 292.246 185.608 290.871 186.983L241.1 236.754C239.745 238.109 237.521 238.129 236.146 236.774C217.944 218.685 200.174 200.895 181.859 183.164C180.484 181.85 178.28 181.863 176.925 183.218L83.4582 277.289C82.7809 277.986 82.4422 278.829 82.4422 279.812C82.4621 280.775 82.8207 281.618 83.518 282.296L106.236 304.19C107.61 305.505 109.795 305.491 111.15 304.137L177.277 237.598C178.632 236.223 180.856 236.223 182.231 237.578C200.38 255.627 217.904 273.417 235.954 291.486C237.308 292.861 239.546 292.861 240.921 291.486L318.151 214.243C319.506 212.888 321.744 212.888 323.105 214.243L334.002 225.14C335.038 226.176 336.486 226.455 337.841 225.91C339.175 225.346 340.005 224.124 340.005 222.67V168.628C340.005 166.716 338.425 165.135 336.486 165.135Z" fill="url(#paint0_linear_14679_18199)" fill-opacity="0.2"/>
    </g>
    <defs>
        <linearGradient id="paint0_linear_14679_18199" x1="287.187" y1="51.9059" x2="287.306" y2="347.738" gradientUnits="userSpaceOnUse">
            <stop stop-color="#3E9AF8"/>
            <stop offset="1" stop-color="#3E9AF8" stop-opacity="0"/>
        </linearGradient>
        <clipPath id="clip0_14679_18199">
            <rect width="340" height="340" fill="white" transform="translate(0 -1)"/>
        </clipPath>
    </defs>
</svg>
