<svg width="79" height="158" viewBox="0 0 79 158" fill="none" xmlns="http://www.w3.org/2000/svg">
<rect width="79" height="158" fill="#F5F5F5"/>
<g clip-path="url(#clip0_0_1)">
<path d="M78.2 22.5L39.1999 45L0.199997 22.5L39.1999 0L78.2 22.5Z" fill="#FEFEFD"/>
<path d="M72.8 22.5L39.1999 41.9L5.5999 22.5L39.1999 3.10001L72.8 22.5Z" fill="#F1F8F8"/>
<path d="M39.1999 67.6L0.199997 45V22.5L39.1999 45V67.6Z" fill="#F1F8F8"/>
<path d="M78.2 45L39.2 67.6V45L78.2 22.5V45Z" fill="#C4CCCB"/>
<path d="M18.7998 37L13.7998 34.1V40.5L18.7998 43.4V37Z" fill="url(#paint0_linear_0_1)"/>
<path d="M6.3999 29.8L1.3999 26.9V33.3L6.3999 36.2V29.8Z" fill="url(#paint1_linear_0_1)"/>
<path d="M12.5999 33.4L7.5999 30.5V36.9L12.5999 39.8V33.4Z" fill="url(#paint2_linear_0_1)"/>
<path d="M31.3 44.2001L26.2 41.3V47.6L31.3 50.5V44.2001Z" fill="url(#paint3_linear_0_1)"/>
<path d="M25 40.6001L20 37.7001V44.1001L25 47.0001V40.6001Z" fill="url(#paint4_linear_0_1)"/>
<path d="M18.7998 45.4L13.7998 42.5V48.9L18.7998 51.8V45.4Z" fill="url(#paint5_linear_0_1)"/>
<path d="M12.5999 41.8L7.5999 38.9V45.3L12.5999 48.2V41.8Z" fill="url(#paint6_linear_0_1)"/>
<path d="M6.3999 38.2001L1.3999 35.3V41.7001L6.3999 44.6V38.2001Z" fill="url(#paint7_linear_0_1)"/>
<path d="M31.3 52.6001L26.2 49.7001V56.0001L31.3 58.9001V52.6001Z" fill="url(#paint8_linear_0_1)"/>
<path d="M25 49.0001L20 46.1001V52.5001L25 55.4001V49.0001Z" fill="url(#paint9_linear_0_1)"/>
<path d="M38 48.1L32.5 44.9V51.2L38 54.4V48.1Z" fill="url(#paint10_linear_0_1)"/>
<path d="M38 56.5L32.5 53.3V59.6L38 62.8V56.5Z" fill="url(#paint11_linear_0_1)"/>
<path d="M59.5999 37L64.6 34.1V40.5L59.5999 43.4V37Z" fill="url(#paint12_linear_0_1)"/>
<path d="M72 29.8L77 26.9V33.3L72 36.2V29.8Z" fill="url(#paint13_linear_0_1)"/>
<path d="M65.8 33.4L70.8 30.5V36.9L65.8 39.8V33.4Z" fill="url(#paint14_linear_0_1)"/>
<path d="M47.0999 44.2001L52.1999 41.3V47.6L47.0999 50.5V44.2001Z" fill="url(#paint15_linear_0_1)"/>
<path d="M53.2998 40.6001L58.3998 37.7001V44.1001L53.2998 47.0001V40.6001Z" fill="url(#paint16_linear_0_1)"/>
<path d="M59.5999 45.4L64.6 42.5V48.9L59.5999 51.8V45.4Z" fill="url(#paint17_linear_0_1)"/>
<path d="M65.8 41.8L70.8 38.9V45.3L65.8 48.2V41.8Z" fill="url(#paint18_linear_0_1)"/>
<path d="M72 38.2001L77 35.3V41.7001L72 44.6V38.2001Z" fill="url(#paint19_linear_0_1)"/>
<path d="M47.0999 52.6001L52.1999 49.7001V56.0001L47.0999 58.9001V52.6001Z" fill="url(#paint20_linear_0_1)"/>
<path d="M53.2998 49.0001L58.3998 46.1001V52.5001L53.2998 55.4001V49.0001Z" fill="url(#paint21_linear_0_1)"/>
<path d="M40.3999 48.1L45.8999 44.9V51.2L40.3999 54.4V48.1Z" fill="url(#paint22_linear_0_1)"/>
<path d="M40.3999 56.5L45.8999 53.3V59.6L40.3999 62.8V56.5Z" fill="url(#paint23_linear_0_1)"/>
<path d="M39.1999 90.1L0.199997 67.6V45L39.1999 67.6V90.1Z" fill="#F1F8F8"/>
<path d="M78.2 67.6L39.2 90.1V67.6L78.2 45V67.6Z" fill="#C4CCCB"/>
<path d="M18.7998 59.5L13.7998 56.6V63L18.7998 65.9V59.5Z" fill="url(#paint24_linear_0_1)"/>
<path d="M6.3999 52.4L1.3999 49.5V55.8L6.3999 58.7V52.4Z" fill="url(#paint25_linear_0_1)"/>
<path d="M12.5999 55.9L7.5999 53V59.4L12.5999 62.3V55.9Z" fill="url(#paint26_linear_0_1)"/>
<path d="M31.3 66.7L26.2 63.8V70.2L31.3 73.1V66.7Z" fill="url(#paint27_linear_0_1)"/>
<path d="M25 63.1L20 60.2V66.6L25 69.5V63.1Z" fill="url(#paint28_linear_0_1)"/>
<path d="M18.7998 67.9L13.7998 65V71.4L18.7998 74.3V67.9Z" fill="url(#paint29_linear_0_1)"/>
<path d="M12.5999 64.3L7.5999 61.4V67.8L12.5999 70.7V64.3Z" fill="url(#paint30_linear_0_1)"/>
<path d="M6.3999 60.7L1.3999 57.8V64.2L6.3999 67.1V60.7Z" fill="url(#paint31_linear_0_1)"/>
<path d="M31.3 75.1001L26.2 72.2001V78.6001L31.3 81.5001V75.1001Z" fill="url(#paint32_linear_0_1)"/>
<path d="M25 71.5001L20 68.6001V75.0001L25 77.9001V71.5001Z" fill="url(#paint33_linear_0_1)"/>
<path d="M38 70.6L32.5 67.4V73.8L38 77V70.6Z" fill="url(#paint34_linear_0_1)"/>
<path d="M38 79L32.5 75.8V82.1L38 85.4V79Z" fill="url(#paint35_linear_0_1)"/>
<path d="M59.5999 59.5L64.6 56.6V63L59.5999 65.9V59.5Z" fill="url(#paint36_linear_0_1)"/>
<path d="M72 52.4L77 49.5V55.8L72 58.7V52.4Z" fill="url(#paint37_linear_0_1)"/>
<path d="M65.8 55.9L70.8 53V59.4L65.8 62.3V55.9Z" fill="url(#paint38_linear_0_1)"/>
<path d="M47.0999 66.7L52.1999 63.8V70.2L47.0999 73.1V66.7Z" fill="url(#paint39_linear_0_1)"/>
<path d="M53.2998 63.1L58.3998 60.2V66.6L53.2998 69.5V63.1Z" fill="url(#paint40_linear_0_1)"/>
<path d="M59.5999 67.9L64.6 65V71.4L59.5999 74.3V67.9Z" fill="url(#paint41_linear_0_1)"/>
<path d="M65.8 64.3L70.8 61.4V67.8L65.8 70.7V64.3Z" fill="url(#paint42_linear_0_1)"/>
<path d="M72 60.7L77 57.8V64.2L72 67.1V60.7Z" fill="url(#paint43_linear_0_1)"/>
<path d="M47.0999 75.1001L52.1999 72.2001V78.6001L47.0999 81.5001V75.1001Z" fill="url(#paint44_linear_0_1)"/>
<path d="M53.2998 71.5001L58.3998 68.6001V75.0001L53.2998 77.9001V71.5001Z" fill="url(#paint45_linear_0_1)"/>
<path d="M40.3999 70.6L45.8999 67.4V73.8L40.3999 77V70.6Z" fill="url(#paint46_linear_0_1)"/>
<path d="M40.3999 79L45.8999 75.8V82.1L40.3999 85.4V79Z" fill="url(#paint47_linear_0_1)"/>
<path d="M39.1999 112.6L0.199997 90.1V67.6L39.1999 90.1V112.6Z" fill="#F1F8F8"/>
<path d="M78.2 90.1L39.2 112.6V90.1L78.2 67.6V90.1Z" fill="#C4CCCB"/>
<path d="M18.7998 82L13.7998 79.1V85.5L18.7998 88.4V82Z" fill="url(#paint48_linear_0_1)"/>
<path d="M6.3999 74.9L1.3999 72V78.3L6.3999 81.2V74.9Z" fill="url(#paint49_linear_0_1)"/>
<path d="M12.5999 78.5L7.5999 75.6V81.9L12.5999 84.8V78.5Z" fill="url(#paint50_linear_0_1)"/>
<path d="M31.3 89.2L26.2 86.3V92.7L31.3 95.6V89.2Z" fill="url(#paint51_linear_0_1)"/>
<path d="M25 85.6L20 82.7V89.1L25 92V85.6Z" fill="url(#paint52_linear_0_1)"/>
<path d="M18.7998 90.4L13.7998 87.5V93.9L18.7998 96.8V90.4Z" fill="url(#paint53_linear_0_1)"/>
<path d="M12.5999 86.8L7.5999 84V90.3L12.5999 93.2V86.8Z" fill="url(#paint54_linear_0_1)"/>
<path d="M6.3999 83.3L1.3999 80.4V86.7L6.3999 89.6V83.3Z" fill="url(#paint55_linear_0_1)"/>
<path d="M31.3 97.6L26.2 94.7V101.1L31.3 104V97.6Z" fill="url(#paint56_linear_0_1)"/>
<path d="M25 94L20 91.1V97.5L25 100.4V94Z" fill="url(#paint57_linear_0_1)"/>
<path d="M38 93.1L32.5 89.9V96.3L38 99.5V93.1Z" fill="url(#paint58_linear_0_1)"/>
<path d="M38 101.5L32.5 98.3V104.7L38 107.9V101.5Z" fill="url(#paint59_linear_0_1)"/>
<path d="M59.5999 82L64.6 79.1V85.5L59.5999 88.4V82Z" fill="url(#paint60_linear_0_1)"/>
<path d="M72 74.9L77 72V78.3L72 81.2V74.9Z" fill="url(#paint61_linear_0_1)"/>
<path d="M65.8 78.5L70.8 75.6V81.9L65.8 84.8V78.5Z" fill="url(#paint62_linear_0_1)"/>
<path d="M47.0999 89.2L52.1999 86.3V92.7L47.0999 95.6V89.2Z" fill="url(#paint63_linear_0_1)"/>
<path d="M53.2998 85.6L58.3998 82.7V89.1L53.2998 92V85.6Z" fill="url(#paint64_linear_0_1)"/>
<path d="M59.5999 90.4L64.6 87.5V93.9L59.5999 96.8V90.4Z" fill="url(#paint65_linear_0_1)"/>
<path d="M65.8 86.8L70.8 84V90.3L65.8 93.2V86.8Z" fill="url(#paint66_linear_0_1)"/>
<path d="M72 83.3L77 80.4V86.7L72 89.6V83.3Z" fill="url(#paint67_linear_0_1)"/>
<path d="M47.0999 97.6L52.1999 94.7V101.1L47.0999 104V97.6Z" fill="url(#paint68_linear_0_1)"/>
<path d="M53.2998 94L58.3998 91.1V97.5L53.2998 100.4V94Z" fill="url(#paint69_linear_0_1)"/>
<path d="M40.3999 93.1L45.8999 89.9V96.3L40.3999 99.5V93.1Z" fill="url(#paint70_linear_0_1)"/>
<path d="M40.3999 101.5L45.8999 98.3V104.7L40.3999 107.9V101.5Z" fill="url(#paint71_linear_0_1)"/>
<path d="M39.1999 135.1L0.199997 112.6V90.1L39.1999 112.6V135.1Z" fill="#F1F8F8"/>
<path d="M78.2 112.6L39.2 135.1V112.6L78.2 90.1V112.6Z" fill="#C4CCCB"/>
<path d="M18.7998 104.6L13.7998 101.7V108L18.7998 110.9V104.6Z" fill="url(#paint72_linear_0_1)"/>
<path d="M6.3999 97.4L1.3999 94.5V100.9L6.3999 103.8V97.4Z" fill="url(#paint73_linear_0_1)"/>
<path d="M12.5999 101L7.5999 98.1V104.4L12.5999 107.3V101Z" fill="url(#paint74_linear_0_1)"/>
<path d="M31.3 111.7L26.2 108.8V115.2L31.3 118.1V111.7Z" fill="url(#paint75_linear_0_1)"/>
<path d="M25 108.2L20 105.3V111.6L25 114.5V108.2Z" fill="url(#paint76_linear_0_1)"/>
<path d="M18.7998 113L13.7998 110.1V116.4L18.7998 119.3V113Z" fill="url(#paint77_linear_0_1)"/>
<path d="M12.5999 109.4L7.5999 106.5V112.8L12.5999 115.7V109.4Z" fill="url(#paint78_linear_0_1)"/>
<path d="M6.3999 105.8L1.3999 102.9V109.2L6.3999 112.1V105.8Z" fill="url(#paint79_linear_0_1)"/>
<path d="M31.3 120.1L26.2 117.2V123.6L31.3 126.5V120.1Z" fill="url(#paint80_linear_0_1)"/>
<path d="M25 116.5L20 113.6V120L25 122.9V116.5Z" fill="url(#paint81_linear_0_1)"/>
<path d="M38 115.6L32.5 112.4V118.8L38 122V115.6Z" fill="url(#paint82_linear_0_1)"/>
<path d="M38 124L32.5 120.8V127.2L38 130.4V124Z" fill="url(#paint83_linear_0_1)"/>
<path d="M59.5999 104.6L64.6 101.7V108L59.5999 110.9V104.6Z" fill="url(#paint84_linear_0_1)"/>
<path d="M72 97.4L77 94.5V100.9L72 103.8V97.4Z" fill="url(#paint85_linear_0_1)"/>
<path d="M65.8 101L70.8 98.1V104.4L65.8 107.3V101Z" fill="url(#paint86_linear_0_1)"/>
<path d="M47.0999 111.7L52.1999 108.8V115.2L47.0999 118.1V111.7Z" fill="url(#paint87_linear_0_1)"/>
<path d="M53.2998 108.2L58.3998 105.3V111.6L53.2998 114.5V108.2Z" fill="url(#paint88_linear_0_1)"/>
<path d="M59.5999 113L64.6 110.1V116.4L59.5999 119.3V113Z" fill="url(#paint89_linear_0_1)"/>
<path d="M65.8 109.4L70.8 106.5V112.8L65.8 115.7V109.4Z" fill="url(#paint90_linear_0_1)"/>
<path d="M72 105.8L77 102.9V109.2L72 112.1V105.8Z" fill="url(#paint91_linear_0_1)"/>
<path d="M47.0999 120.1L52.1999 117.2V123.6L47.0999 126.5V120.1Z" fill="url(#paint92_linear_0_1)"/>
<path d="M53.2998 116.5L58.3998 113.6V120L53.2998 122.9V116.5Z" fill="url(#paint93_linear_0_1)"/>
<path d="M40.3999 115.6L45.8999 112.4V118.8L40.3999 122V115.6Z" fill="url(#paint94_linear_0_1)"/>
<path d="M40.3999 124L45.8999 120.8V127.2L40.3999 130.4V124Z" fill="url(#paint95_linear_0_1)"/>
<path d="M39.1999 157.6L0.199997 135.1V112.6L39.1999 135.1V157.6Z" fill="#F1F8F8"/>
<path d="M78.2 135.1L39.2 157.6V135.1L78.2 112.6V135.1Z" fill="#C4CCCB"/>
<path d="M39.1999 5.8L70.5 23.9L72.8 22.5L39.1999 3.10001L5.5999 22.5L7.8999 23.9L39.1999 5.8Z" fill="#C4CCCB"/>
<path d="M39.1999 157.6L0.199997 135.1V118.8L39.1999 141.3V157.6Z" fill="#6F6F6F"/>
<path d="M39.2 157.6L78.2 135.1V118.8L39.2 141.3V157.6Z" fill="#3C4547"/>
<path d="M59.4 145.9L59.3 146V137.7L59.4 137.6V145.9Z" fill="#3C4547"/>
</g>
<defs>
<linearGradient id="paint0_linear_0_1" x1="40.3248" y1="66.2409" x2="1.95398" y2="22.2777" gradientUnits="userSpaceOnUse">
<stop stop-color="#579DBC"/>
<stop offset="1" stop-color="#A4D2EB"/>
</linearGradient>
<linearGradient id="paint1_linear_0_1" x1="36.8255" y1="69.2956" x2="-1.5455" y2="25.3322" gradientUnits="userSpaceOnUse">
<stop stop-color="#579DBC"/>
<stop offset="1" stop-color="#A4D2EB"/>
</linearGradient>
<linearGradient id="paint2_linear_0_1" x1="38.5748" y1="67.7679" x2="0.204407" y2="23.8051" gradientUnits="userSpaceOnUse">
<stop stop-color="#579DBC"/>
<stop offset="1" stop-color="#A4D2EB"/>
</linearGradient>
<linearGradient id="paint3_linear_0_1" x1="43.8245" y1="63.1864" x2="5.45381" y2="19.2232" gradientUnits="userSpaceOnUse">
<stop stop-color="#579DBC"/>
<stop offset="1" stop-color="#A4D2EB"/>
</linearGradient>
<linearGradient id="paint4_linear_0_1" x1="42.0747" y1="64.7137" x2="3.7041" y2="20.7506" gradientUnits="userSpaceOnUse">
<stop stop-color="#579DBC"/>
<stop offset="1" stop-color="#A4D2EB"/>
</linearGradient>
<linearGradient id="paint5_linear_0_1" x1="36.1689" y1="69.8681" x2="-2.2018" y2="25.9049" gradientUnits="userSpaceOnUse">
<stop stop-color="#579DBC"/>
<stop offset="1" stop-color="#A4D2EB"/>
</linearGradient>
<linearGradient id="paint6_linear_0_1" x1="34.419" y1="71.3951" x2="-3.95137" y2="27.4323" gradientUnits="userSpaceOnUse">
<stop stop-color="#579DBC"/>
<stop offset="1" stop-color="#A4D2EB"/>
</linearGradient>
<linearGradient id="paint7_linear_0_1" x1="32.6696" y1="72.9227" x2="-5.70139" y2="28.9593" gradientUnits="userSpaceOnUse">
<stop stop-color="#579DBC"/>
<stop offset="1" stop-color="#A4D2EB"/>
</linearGradient>
<linearGradient id="paint8_linear_0_1" x1="39.6686" y1="66.8137" x2="1.29802" y2="22.8504" gradientUnits="userSpaceOnUse">
<stop stop-color="#579DBC"/>
<stop offset="1" stop-color="#A4D2EB"/>
</linearGradient>
<linearGradient id="paint9_linear_0_1" x1="37.9188" y1="68.3409" x2="-0.451792" y2="24.3778" gradientUnits="userSpaceOnUse">
<stop stop-color="#579DBC"/>
<stop offset="1" stop-color="#A4D2EB"/>
</linearGradient>
<linearGradient id="paint10_linear_0_1" x1="45.6489" y1="61.594" x2="7.2784" y2="17.6311" gradientUnits="userSpaceOnUse">
<stop stop-color="#579DBC"/>
<stop offset="1" stop-color="#A4D2EB"/>
</linearGradient>
<linearGradient id="paint11_linear_0_1" x1="41.4931" y1="65.2213" x2="3.1224" y2="21.2581" gradientUnits="userSpaceOnUse">
<stop stop-color="#579DBC"/>
<stop offset="1" stop-color="#A4D2EB"/>
</linearGradient>
<linearGradient id="paint12_linear_0_1" x1="78.41" y1="38.6775" x2="39.4178" y2="38.8328" gradientUnits="userSpaceOnUse">
<stop stop-color="#579DBC"/>
<stop offset="1" stop-color="#447794"/>
</linearGradient>
<linearGradient id="paint13_linear_0_1" x1="78.381" y1="31.5521" x2="39.3893" y2="31.7075" gradientUnits="userSpaceOnUse">
<stop stop-color="#579DBC"/>
<stop offset="1" stop-color="#447794"/>
</linearGradient>
<linearGradient id="paint14_linear_0_1" x1="78.396" y1="35.1148" x2="39.403" y2="35.2701" gradientUnits="userSpaceOnUse">
<stop stop-color="#579DBC"/>
<stop offset="1" stop-color="#447794"/>
</linearGradient>
<linearGradient id="paint15_linear_0_1" x1="78.438" y1="45.8028" x2="39.4461" y2="45.9581" gradientUnits="userSpaceOnUse">
<stop stop-color="#579DBC"/>
<stop offset="1" stop-color="#447794"/>
</linearGradient>
<linearGradient id="paint16_linear_0_1" x1="78.424" y1="42.2402" x2="39.4319" y2="42.3956" gradientUnits="userSpaceOnUse">
<stop stop-color="#579DBC"/>
<stop offset="1" stop-color="#447794"/>
</linearGradient>
<linearGradient id="paint17_linear_0_1" x1="78.443" y1="47.066" x2="39.4513" y2="47.2214" gradientUnits="userSpaceOnUse">
<stop stop-color="#579DBC"/>
<stop offset="1" stop-color="#447794"/>
</linearGradient>
<linearGradient id="paint18_linear_0_1" x1="78.429" y1="43.5033" x2="39.4364" y2="43.6587" gradientUnits="userSpaceOnUse">
<stop stop-color="#579DBC"/>
<stop offset="1" stop-color="#447794"/>
</linearGradient>
<linearGradient id="paint19_linear_0_1" x1="78.415" y1="39.9407" x2="39.4227" y2="40.0961" gradientUnits="userSpaceOnUse">
<stop stop-color="#579DBC"/>
<stop offset="1" stop-color="#447794"/>
</linearGradient>
<linearGradient id="paint20_linear_0_1" x1="78.472" y1="54.1914" x2="39.4796" y2="54.3468" gradientUnits="userSpaceOnUse">
<stop stop-color="#579DBC"/>
<stop offset="1" stop-color="#447794"/>
</linearGradient>
<linearGradient id="paint21_linear_0_1" x1="78.457" y1="50.6288" x2="39.4653" y2="50.7842" gradientUnits="userSpaceOnUse">
<stop stop-color="#579DBC"/>
<stop offset="1" stop-color="#447794"/>
</linearGradient>
<linearGradient id="paint22_linear_0_1" x1="78.453" y1="49.5173" x2="39.461" y2="49.6727" gradientUnits="userSpaceOnUse">
<stop stop-color="#579DBC"/>
<stop offset="1" stop-color="#447794"/>
</linearGradient>
<linearGradient id="paint23_linear_0_1" x1="78.487" y1="57.906" x2="39.4944" y2="58.0613" gradientUnits="userSpaceOnUse">
<stop stop-color="#579DBC"/>
<stop offset="1" stop-color="#447794"/>
</linearGradient>
<linearGradient id="paint24_linear_0_1" x1="40.3246" y1="88.76" x2="1.95408" y2="44.797" gradientUnits="userSpaceOnUse">
<stop stop-color="#579DBC"/>
<stop offset="1" stop-color="#A4D2EB"/>
</linearGradient>
<linearGradient id="paint25_linear_0_1" x1="36.8255" y1="91.815" x2="-1.54548" y2="47.8513" gradientUnits="userSpaceOnUse">
<stop stop-color="#579DBC"/>
<stop offset="1" stop-color="#A4D2EB"/>
</linearGradient>
<linearGradient id="paint26_linear_0_1" x1="38.575" y1="90.287" x2="0.20419" y2="46.3242" gradientUnits="userSpaceOnUse">
<stop stop-color="#579DBC"/>
<stop offset="1" stop-color="#A4D2EB"/>
</linearGradient>
<linearGradient id="paint27_linear_0_1" x1="43.8244" y1="85.706" x2="5.45405" y2="41.7426" gradientUnits="userSpaceOnUse">
<stop stop-color="#579DBC"/>
<stop offset="1" stop-color="#A4D2EB"/>
</linearGradient>
<linearGradient id="paint28_linear_0_1" x1="42.0749" y1="87.233" x2="3.70389" y2="43.2695" gradientUnits="userSpaceOnUse">
<stop stop-color="#579DBC"/>
<stop offset="1" stop-color="#A4D2EB"/>
</linearGradient>
<linearGradient id="paint29_linear_0_1" x1="36.1688" y1="92.387" x2="-2.20172" y2="48.4242" gradientUnits="userSpaceOnUse">
<stop stop-color="#579DBC"/>
<stop offset="1" stop-color="#A4D2EB"/>
</linearGradient>
<linearGradient id="paint30_linear_0_1" x1="34.4192" y1="93.914" x2="-3.95146" y2="49.9513" gradientUnits="userSpaceOnUse">
<stop stop-color="#579DBC"/>
<stop offset="1" stop-color="#A4D2EB"/>
</linearGradient>
<linearGradient id="paint31_linear_0_1" x1="32.6694" y1="95.442" x2="-5.70127" y2="51.4785" gradientUnits="userSpaceOnUse">
<stop stop-color="#579DBC"/>
<stop offset="1" stop-color="#A4D2EB"/>
</linearGradient>
<linearGradient id="paint32_linear_0_1" x1="39.6686" y1="89.333" x2="1.29806" y2="45.3696" gradientUnits="userSpaceOnUse">
<stop stop-color="#579DBC"/>
<stop offset="1" stop-color="#A4D2EB"/>
</linearGradient>
<linearGradient id="paint33_linear_0_1" x1="37.919" y1="90.86" x2="-0.452023" y2="46.8967" gradientUnits="userSpaceOnUse">
<stop stop-color="#579DBC"/>
<stop offset="1" stop-color="#A4D2EB"/>
</linearGradient>
<linearGradient id="paint34_linear_0_1" x1="45.649" y1="84.113" x2="7.27822" y2="40.15" gradientUnits="userSpaceOnUse">
<stop stop-color="#579DBC"/>
<stop offset="1" stop-color="#A4D2EB"/>
</linearGradient>
<linearGradient id="paint35_linear_0_1" x1="41.4931" y1="87.74" x2="3.12262" y2="43.7775" gradientUnits="userSpaceOnUse">
<stop stop-color="#579DBC"/>
<stop offset="1" stop-color="#A4D2EB"/>
</linearGradient>
<linearGradient id="paint36_linear_0_1" x1="78.41" y1="61.1966" x2="39.4178" y2="61.352" gradientUnits="userSpaceOnUse">
<stop stop-color="#579DBC"/>
<stop offset="1" stop-color="#447794"/>
</linearGradient>
<linearGradient id="paint37_linear_0_1" x1="78.381" y1="54.0712" x2="39.3893" y2="54.2266" gradientUnits="userSpaceOnUse">
<stop stop-color="#579DBC"/>
<stop offset="1" stop-color="#447794"/>
</linearGradient>
<linearGradient id="paint38_linear_0_1" x1="78.396" y1="57.6339" x2="39.403" y2="57.7893" gradientUnits="userSpaceOnUse">
<stop stop-color="#579DBC"/>
<stop offset="1" stop-color="#447794"/>
</linearGradient>
<linearGradient id="paint39_linear_0_1" x1="78.438" y1="68.3219" x2="39.4461" y2="68.4773" gradientUnits="userSpaceOnUse">
<stop stop-color="#579DBC"/>
<stop offset="1" stop-color="#447794"/>
</linearGradient>
<linearGradient id="paint40_linear_0_1" x1="78.424" y1="64.7593" x2="39.4319" y2="64.9147" gradientUnits="userSpaceOnUse">
<stop stop-color="#579DBC"/>
<stop offset="1" stop-color="#447794"/>
</linearGradient>
<linearGradient id="paint41_linear_0_1" x1="78.443" y1="69.5852" x2="39.4513" y2="69.7405" gradientUnits="userSpaceOnUse">
<stop stop-color="#579DBC"/>
<stop offset="1" stop-color="#447794"/>
</linearGradient>
<linearGradient id="paint42_linear_0_1" x1="78.429" y1="66.0225" x2="39.4364" y2="66.1779" gradientUnits="userSpaceOnUse">
<stop stop-color="#579DBC"/>
<stop offset="1" stop-color="#447794"/>
</linearGradient>
<linearGradient id="paint43_linear_0_1" x1="78.415" y1="62.4599" x2="39.4227" y2="62.6152" gradientUnits="userSpaceOnUse">
<stop stop-color="#579DBC"/>
<stop offset="1" stop-color="#447794"/>
</linearGradient>
<linearGradient id="paint44_linear_0_1" x1="78.472" y1="76.7106" x2="39.4796" y2="76.866" gradientUnits="userSpaceOnUse">
<stop stop-color="#579DBC"/>
<stop offset="1" stop-color="#447794"/>
</linearGradient>
<linearGradient id="paint45_linear_0_1" x1="78.457" y1="73.148" x2="39.4653" y2="73.3033" gradientUnits="userSpaceOnUse">
<stop stop-color="#579DBC"/>
<stop offset="1" stop-color="#447794"/>
</linearGradient>
<linearGradient id="paint46_linear_0_1" x1="78.453" y1="72.0365" x2="39.461" y2="72.1919" gradientUnits="userSpaceOnUse">
<stop stop-color="#579DBC"/>
<stop offset="1" stop-color="#447794"/>
</linearGradient>
<linearGradient id="paint47_linear_0_1" x1="78.487" y1="80.4251" x2="39.4944" y2="80.5805" gradientUnits="userSpaceOnUse">
<stop stop-color="#579DBC"/>
<stop offset="1" stop-color="#447794"/>
</linearGradient>
<linearGradient id="paint48_linear_0_1" x1="40.3248" y1="111.279" x2="1.95398" y2="67.316" gradientUnits="userSpaceOnUse">
<stop stop-color="#579DBC"/>
<stop offset="1" stop-color="#A4D2EB"/>
</linearGradient>
<linearGradient id="paint49_linear_0_1" x1="36.8255" y1="114.334" x2="-1.54546" y2="70.3705" gradientUnits="userSpaceOnUse">
<stop stop-color="#579DBC"/>
<stop offset="1" stop-color="#A4D2EB"/>
</linearGradient>
<linearGradient id="paint50_linear_0_1" x1="38.5748" y1="112.806" x2="0.20426" y2="68.8434" gradientUnits="userSpaceOnUse">
<stop stop-color="#579DBC"/>
<stop offset="1" stop-color="#A4D2EB"/>
</linearGradient>
<linearGradient id="paint51_linear_0_1" x1="43.8245" y1="108.225" x2="5.45387" y2="64.2615" gradientUnits="userSpaceOnUse">
<stop stop-color="#579DBC"/>
<stop offset="1" stop-color="#A4D2EB"/>
</linearGradient>
<linearGradient id="paint52_linear_0_1" x1="42.0747" y1="109.752" x2="3.70398" y2="65.7889" gradientUnits="userSpaceOnUse">
<stop stop-color="#579DBC"/>
<stop offset="1" stop-color="#A4D2EB"/>
</linearGradient>
<linearGradient id="paint53_linear_0_1" x1="36.1688" y1="114.906" x2="-2.20172" y2="70.9433" gradientUnits="userSpaceOnUse">
<stop stop-color="#579DBC"/>
<stop offset="1" stop-color="#A4D2EB"/>
</linearGradient>
<linearGradient id="paint54_linear_0_1" x1="34.4192" y1="116.434" x2="-3.95147" y2="72.4705" gradientUnits="userSpaceOnUse">
<stop stop-color="#579DBC"/>
<stop offset="1" stop-color="#A4D2EB"/>
</linearGradient>
<linearGradient id="paint55_linear_0_1" x1="32.6696" y1="117.961" x2="-5.70137" y2="73.9976" gradientUnits="userSpaceOnUse">
<stop stop-color="#579DBC"/>
<stop offset="1" stop-color="#A4D2EB"/>
</linearGradient>
<linearGradient id="paint56_linear_0_1" x1="39.6686" y1="111.852" x2="1.29818" y2="67.889" gradientUnits="userSpaceOnUse">
<stop stop-color="#579DBC"/>
<stop offset="1" stop-color="#A4D2EB"/>
</linearGradient>
<linearGradient id="paint57_linear_0_1" x1="37.919" y1="113.379" x2="-0.452025" y2="69.4158" gradientUnits="userSpaceOnUse">
<stop stop-color="#579DBC"/>
<stop offset="1" stop-color="#A4D2EB"/>
</linearGradient>
<linearGradient id="paint58_linear_0_1" x1="45.649" y1="106.633" x2="7.27822" y2="62.6692" gradientUnits="userSpaceOnUse">
<stop stop-color="#579DBC"/>
<stop offset="1" stop-color="#A4D2EB"/>
</linearGradient>
<linearGradient id="paint59_linear_0_1" x1="41.4931" y1="110.26" x2="3.12242" y2="66.2964" gradientUnits="userSpaceOnUse">
<stop stop-color="#579DBC"/>
<stop offset="1" stop-color="#A4D2EB"/>
</linearGradient>
<linearGradient id="paint60_linear_0_1" x1="78.41" y1="83.7158" x2="39.4178" y2="83.8711" gradientUnits="userSpaceOnUse">
<stop stop-color="#579DBC"/>
<stop offset="1" stop-color="#447794"/>
</linearGradient>
<linearGradient id="paint61_linear_0_1" x1="78.381" y1="76.5904" x2="39.3893" y2="76.7458" gradientUnits="userSpaceOnUse">
<stop stop-color="#579DBC"/>
<stop offset="1" stop-color="#447794"/>
</linearGradient>
<linearGradient id="paint62_linear_0_1" x1="78.396" y1="80.1531" x2="39.403" y2="80.3084" gradientUnits="userSpaceOnUse">
<stop stop-color="#579DBC"/>
<stop offset="1" stop-color="#447794"/>
</linearGradient>
<linearGradient id="paint63_linear_0_1" x1="78.438" y1="90.841" x2="39.4461" y2="90.996" gradientUnits="userSpaceOnUse">
<stop stop-color="#579DBC"/>
<stop offset="1" stop-color="#447794"/>
</linearGradient>
<linearGradient id="paint64_linear_0_1" x1="78.424" y1="87.278" x2="39.4319" y2="87.434" gradientUnits="userSpaceOnUse">
<stop stop-color="#579DBC"/>
<stop offset="1" stop-color="#447794"/>
</linearGradient>
<linearGradient id="paint65_linear_0_1" x1="78.443" y1="92.104" x2="39.4513" y2="92.26" gradientUnits="userSpaceOnUse">
<stop stop-color="#579DBC"/>
<stop offset="1" stop-color="#447794"/>
</linearGradient>
<linearGradient id="paint66_linear_0_1" x1="78.429" y1="88.542" x2="39.4364" y2="88.697" gradientUnits="userSpaceOnUse">
<stop stop-color="#579DBC"/>
<stop offset="1" stop-color="#447794"/>
</linearGradient>
<linearGradient id="paint67_linear_0_1" x1="78.415" y1="84.979" x2="39.4227" y2="85.134" gradientUnits="userSpaceOnUse">
<stop stop-color="#579DBC"/>
<stop offset="1" stop-color="#447794"/>
</linearGradient>
<linearGradient id="paint68_linear_0_1" x1="78.471" y1="99.23" x2="39.4796" y2="99.385" gradientUnits="userSpaceOnUse">
<stop stop-color="#579DBC"/>
<stop offset="1" stop-color="#447794"/>
</linearGradient>
<linearGradient id="paint69_linear_0_1" x1="78.457" y1="95.667" x2="39.4653" y2="95.822" gradientUnits="userSpaceOnUse">
<stop stop-color="#579DBC"/>
<stop offset="1" stop-color="#447794"/>
</linearGradient>
<linearGradient id="paint70_linear_0_1" x1="78.453" y1="94.556" x2="39.461" y2="94.711" gradientUnits="userSpaceOnUse">
<stop stop-color="#579DBC"/>
<stop offset="1" stop-color="#447794"/>
</linearGradient>
<linearGradient id="paint71_linear_0_1" x1="78.487" y1="102.944" x2="39.4944" y2="103.1" gradientUnits="userSpaceOnUse">
<stop stop-color="#579DBC"/>
<stop offset="1" stop-color="#447794"/>
</linearGradient>
<linearGradient id="paint72_linear_0_1" x1="40.3246" y1="133.798" x2="1.95406" y2="89.835" gradientUnits="userSpaceOnUse">
<stop stop-color="#579DBC"/>
<stop offset="1" stop-color="#A4D2EB"/>
</linearGradient>
<linearGradient id="paint73_linear_0_1" x1="36.8252" y1="136.853" x2="-1.54542" y2="92.89" gradientUnits="userSpaceOnUse">
<stop stop-color="#579DBC"/>
<stop offset="1" stop-color="#A4D2EB"/>
</linearGradient>
<linearGradient id="paint74_linear_0_1" x1="38.575" y1="135.326" x2="0.20416" y2="91.362" gradientUnits="userSpaceOnUse">
<stop stop-color="#579DBC"/>
<stop offset="1" stop-color="#A4D2EB"/>
</linearGradient>
<linearGradient id="paint75_linear_0_1" x1="43.8245" y1="130.744" x2="5.45383" y2="86.7809" gradientUnits="userSpaceOnUse">
<stop stop-color="#579DBC"/>
<stop offset="1" stop-color="#A4D2EB"/>
</linearGradient>
<linearGradient id="paint76_linear_0_1" x1="42.0749" y1="132.271" x2="3.70394" y2="88.308" gradientUnits="userSpaceOnUse">
<stop stop-color="#579DBC"/>
<stop offset="1" stop-color="#A4D2EB"/>
</linearGradient>
<linearGradient id="paint77_linear_0_1" x1="36.1689" y1="137.426" x2="-2.20184" y2="93.462" gradientUnits="userSpaceOnUse">
<stop stop-color="#579DBC"/>
<stop offset="1" stop-color="#A4D2EB"/>
</linearGradient>
<linearGradient id="paint78_linear_0_1" x1="34.4192" y1="138.953" x2="-3.95147" y2="94.99" gradientUnits="userSpaceOnUse">
<stop stop-color="#579DBC"/>
<stop offset="1" stop-color="#A4D2EB"/>
</linearGradient>
<linearGradient id="paint79_linear_0_1" x1="32.6696" y1="140.48" x2="-5.7014" y2="96.517" gradientUnits="userSpaceOnUse">
<stop stop-color="#579DBC"/>
<stop offset="1" stop-color="#A4D2EB"/>
</linearGradient>
<linearGradient id="paint80_linear_0_1" x1="39.6686" y1="134.371" x2="1.29799" y2="90.408" gradientUnits="userSpaceOnUse">
<stop stop-color="#579DBC"/>
<stop offset="1" stop-color="#A4D2EB"/>
</linearGradient>
<linearGradient id="paint81_linear_0_1" x1="37.919" y1="135.898" x2="-0.451855" y2="91.935" gradientUnits="userSpaceOnUse">
<stop stop-color="#579DBC"/>
<stop offset="1" stop-color="#A4D2EB"/>
</linearGradient>
<linearGradient id="paint82_linear_0_1" x1="45.649" y1="129.152" x2="7.27818" y2="85.188" gradientUnits="userSpaceOnUse">
<stop stop-color="#579DBC"/>
<stop offset="1" stop-color="#A4D2EB"/>
</linearGradient>
<linearGradient id="paint83_linear_0_1" x1="41.4931" y1="132.779" x2="3.12268" y2="88.816" gradientUnits="userSpaceOnUse">
<stop stop-color="#579DBC"/>
<stop offset="1" stop-color="#A4D2EB"/>
</linearGradient>
<linearGradient id="paint84_linear_0_1" x1="78.41" y1="106.235" x2="39.4178" y2="106.39" gradientUnits="userSpaceOnUse">
<stop stop-color="#579DBC"/>
<stop offset="1" stop-color="#447794"/>
</linearGradient>
<linearGradient id="paint85_linear_0_1" x1="78.381" y1="99.11" x2="39.3893" y2="99.265" gradientUnits="userSpaceOnUse">
<stop stop-color="#579DBC"/>
<stop offset="1" stop-color="#447794"/>
</linearGradient>
<linearGradient id="paint86_linear_0_1" x1="78.396" y1="102.672" x2="39.403" y2="102.828" gradientUnits="userSpaceOnUse">
<stop stop-color="#579DBC"/>
<stop offset="1" stop-color="#447794"/>
</linearGradient>
<linearGradient id="paint87_linear_0_1" x1="78.438" y1="113.36" x2="39.4461" y2="113.516" gradientUnits="userSpaceOnUse">
<stop stop-color="#579DBC"/>
<stop offset="1" stop-color="#447794"/>
</linearGradient>
<linearGradient id="paint88_linear_0_1" x1="78.424" y1="109.798" x2="39.4319" y2="109.953" gradientUnits="userSpaceOnUse">
<stop stop-color="#579DBC"/>
<stop offset="1" stop-color="#447794"/>
</linearGradient>
<linearGradient id="paint89_linear_0_1" x1="78.443" y1="114.623" x2="39.4513" y2="114.779" gradientUnits="userSpaceOnUse">
<stop stop-color="#579DBC"/>
<stop offset="1" stop-color="#447794"/>
</linearGradient>
<linearGradient id="paint90_linear_0_1" x1="78.429" y1="111.061" x2="39.4364" y2="111.216" gradientUnits="userSpaceOnUse">
<stop stop-color="#579DBC"/>
<stop offset="1" stop-color="#447794"/>
</linearGradient>
<linearGradient id="paint91_linear_0_1" x1="78.415" y1="107.498" x2="39.4227" y2="107.654" gradientUnits="userSpaceOnUse">
<stop stop-color="#579DBC"/>
<stop offset="1" stop-color="#447794"/>
</linearGradient>
<linearGradient id="paint92_linear_0_1" x1="78.472" y1="121.749" x2="39.4796" y2="121.904" gradientUnits="userSpaceOnUse">
<stop stop-color="#579DBC"/>
<stop offset="1" stop-color="#447794"/>
</linearGradient>
<linearGradient id="paint93_linear_0_1" x1="78.457" y1="118.186" x2="39.4653" y2="118.341" gradientUnits="userSpaceOnUse">
<stop stop-color="#579DBC"/>
<stop offset="1" stop-color="#447794"/>
</linearGradient>
<linearGradient id="paint94_linear_0_1" x1="78.453" y1="117.075" x2="39.461" y2="117.23" gradientUnits="userSpaceOnUse">
<stop stop-color="#579DBC"/>
<stop offset="1" stop-color="#447794"/>
</linearGradient>
<linearGradient id="paint95_linear_0_1" x1="78.486" y1="125.463" x2="39.4944" y2="125.619" gradientUnits="userSpaceOnUse">
<stop stop-color="#579DBC"/>
<stop offset="1" stop-color="#447794"/>
</linearGradient>
<clipPath id="clip0_0_1">
<rect width="79" height="158" fill="white"/>
</clipPath>
</defs>
</svg>
