<?xml version="1.0" encoding="utf-8"?>
<!-- Generator: Adobe Illustrator 24.2.3, SVG Export Plug-In . SVG Version: 6.00 Build 0)  -->
<svg version="1.1" id="Слой_1" xmlns="http://www.w3.org/2000/svg" xmlns:xlink="http://www.w3.org/1999/xlink" x="0px" y="0px"
	 viewBox="0 0 48 48" style="enable-background:new 0 0 48 48;" xml:space="preserve">
<style type="text/css">
	.st0{clip-path:url(#SVGID_2_);}
	.st1{fill:#00695C;}
	.st2{fill:none;stroke:#00695C;stroke-width:4;stroke-opacity:0.2;}
	.st3{fill:#FFFFFF;}
	.st4{fill:#FFFFFF;filter:url(#Adobe_OpacityMaskFilter);}
	.st5{mask:url(#path-5-outside-1_1325_32647_1_);fill:none;stroke:#FFFFFF;stroke-width:0.28;}
	.st6{fill:#FFFFFF;filter:url(#Adobe_OpacityMaskFilter_1_);}
	.st7{mask:url(#path-5-outside-1_1325_32647_2_);fill:none;stroke:#FFFFFF;stroke-width:0.28;}
	.st8{fill:#FFFFFF;filter:url(#Adobe_OpacityMaskFilter_2_);}
	.st9{mask:url(#path-5-outside-1_1325_32647_3_);fill:none;stroke:#FFFFFF;stroke-width:0.28;}
	.st10{fill:none;stroke:#00695C;stroke-width:4;stroke-opacity:0.1;}
</style>
<g>
	<defs>
		<path id="SVGID_1_" d="M24,4L24,4c11,0,20,9,20,20l0,0c0,11-9,20-20,20l0,0C13,44,4,35,4,24l0,0C4,13,13,4,24,4z"/>
	</defs>
	<clipPath id="SVGID_2_">
		<use xlink:href="#SVGID_1_"  style="overflow:visible;"/>
	</clipPath>
	<g class="st0">
		<path class="st1" d="M24,8L24,8c8.8,0,16,7.2,16,16l0,0c0,8.8-7.2,16-16,16l0,0c-8.8,0-16-7.2-16-16l0,0C8,15.2,15.2,8,24,8z"/>
		<path class="st2" d="M24,6L24,6c9.9,0,18,8.1,18,18l0,0c0,9.9-8.1,18-18,18l0,0c-9.9,0-18-8.1-18-18l0,0C6,14.1,14.1,6,24,6z"/>
		<path class="st3" d="M31.2,20.8c-0.4-0.9-1-1.8-1.7-2.5C28.8,17.6,28,17,27,16.6c-1-0.4-2-0.6-3.1-0.6s-2.1,0.2-3.1,0.6
			c-0.9,0.4-1.8,1-2.5,1.7c-0.7,0.7-1.3,1.6-1.7,2.5c-0.4,1-0.6,2-0.6,3.1c0,1,0.2,1.9,0.5,2.9c0.3,0.8,0.8,1.6,1.4,2.3l-0.3,0.3
			c-0.3,0.3-0.3,0.7-0.1,1l0.8,1l0,0c-0.1,0.1-0.1,0.4,0,0.5l0.4,0.4c0.1,0.1,0.4,0.1,0.5,0l0.3-0.3l0.9,0.9c0,0,0.1,0.1,0.2,0.1
			c0.1,0,0.1,0,0.2-0.1c0.1-0.1,0.1-0.2,0-0.3l-0.9-0.9l1-1l0.9,0.9c0.1,0.1,0.2,0.1,0.3,0c0.1-0.1,0.1-0.2,0-0.3l-0.9-0.9l0.3-0.3
			c0.1-0.1,0.1-0.4,0-0.5L21,29.2c-0.1-0.1-0.4-0.1-0.5,0l0,0l-1-0.8c-0.3-0.2-0.7-0.2-1,0l-0.3,0.3c-1.1-1.3-1.8-3.1-1.8-4.8
			c0-4.1,3.3-7.5,7.5-7.5c4.1,0,7.5,3.3,7.5,7.5c0,2.3-1,4.4-2.8,5.8l-0.8-1.2c0-0.1-0.1-0.1-0.2-0.1c-0.1,0-0.2,0.1-0.2,0.1
			L26,31.7c0,0.1,0,0.2,0,0.2c0,0.1,0.1,0.1,0.2,0.1c0,0,0,0,0,0l3.4-0.3c0.1,0,0.2-0.1,0.2-0.3c0-0.1-0.1-0.2-0.3-0.2l-3,0.3
			l1.1-2.3l0.8,1c0.1,0.1,0.2,0.1,0.3,0.1c0,0,0,0,0,0c0.5-0.4,0.9-0.8,1.3-1.2c0.4-0.5,0.7-1,1-1.5c0.3-0.5,0.5-1.1,0.6-1.7
			c0.1-0.6,0.2-1.2,0.2-1.9C31.9,22.9,31.7,21.8,31.2,20.8z M20.8,29.6l0.3,0.3L19,31.9l-0.3-0.3L20.8,29.6z M18.9,28.8
			c0.1-0.1,0.2-0.1,0.3,0l0.9,0.8L18.7,31l-0.8-0.9c-0.1-0.1-0.1-0.2,0-0.3L18.9,28.8z"/>
		<path class="st3" d="M26,23.2c0-0.1-0.1-0.1-0.2-0.1h-1.3l0.2-4.1c0-0.1-0.1-0.2-0.2-0.2c-0.1,0-0.2,0-0.3,0.1l-2.6,5.5
			c0,0.1,0,0.2,0,0.2c0,0.1,0.1,0.1,0.2,0.1h1.3l-0.2,4.1c0,0.1,0.1,0.2,0.2,0.2c0,0,0,0,0,0c0.1,0,0.2-0.1,0.2-0.1l2.6-5.5
			C26.1,23.4,26.1,23.3,26,23.2z M23.6,27.7l0.2-3.2c0-0.1,0-0.1-0.1-0.2c0,0-0.1-0.1-0.2-0.1h-1.2l1.9-4.1l-0.2,3.2
			c0,0.1,0,0.1,0.1,0.2c0,0,0.1,0.1,0.2,0.1h1.2L23.6,27.7z"/>
		<path class="st3" d="M21.7,19.5l-0.8-1.4l0,0C20.8,18,20.6,18,20.5,18c-1,0.6-1.9,1.4-2.5,2.4c-0.3,0.5-0.5,1.1-0.7,1.6
			c-0.2,0.6-0.2,1.2-0.2,1.8c0,0.1,0.1,0.2,0.2,0.2h1.7c0,0,0.1,0,0.1,0c0,0,0,0,0,0c0,0,0,0,0,0c0,0,0,0,0,0c0,0,0,0,0,0
			c0.1,0,0.1-0.1,0.1-0.2c0-0.8,0.2-1.6,0.6-2.3c0,0,0,0,0,0c0.4-0.7,1-1.3,1.7-1.7C21.7,19.9,21.8,19.7,21.7,19.5
			C21.7,19.6,21.7,19.6,21.7,19.5C21.7,19.6,21.7,19.6,21.7,19.5z M18.9,23.7h-1.3c0-0.4,0.1-0.8,0.2-1.2l1.2,0.3
			C18.9,23.1,18.9,23.4,18.9,23.7z M19.1,22.4l-1.2-0.3c0.1-0.4,0.3-0.8,0.5-1.1l1.1,0.6C19.3,21.9,19.2,22.1,19.1,22.4z M19.7,21.2
			l-1.1-0.6c0.2-0.3,0.5-0.7,0.7-0.9l0.9,0.9C20,20.7,19.8,21,19.7,21.2z M20.5,20.2l-0.9-0.9c0.3-0.3,0.6-0.5,0.9-0.7l0.6,1.1
			C21,19.8,20.7,20,20.5,20.2z"/>
		<defs>
			<filter id="Adobe_OpacityMaskFilter" filterUnits="userSpaceOnUse" x="15.9" y="15.9" width="16.1" height="17.3">
				<feColorMatrix  type="matrix" values="1 0 0 0 0  0 1 0 0 0  0 0 1 0 0  0 0 0 1 0"/>
			</filter>
		</defs>
		<mask maskUnits="userSpaceOnUse" x="15.9" y="15.9" width="16.1" height="17.3" id="path-5-outside-1_1325_32647_1_">
			<rect x="15" y="15" class="st4" width="18" height="19"/>
			<path d="M31.2,20.8c-0.4-0.9-1-1.8-1.7-2.5C28.8,17.6,28,17,27,16.6c-1-0.4-2-0.6-3.1-0.6s-2.1,0.2-3.1,0.6
				c-0.9,0.4-1.8,1-2.5,1.7c-0.7,0.7-1.3,1.6-1.7,2.5c-0.4,1-0.6,2-0.6,3.1c0,1,0.2,1.9,0.5,2.9c0.3,0.8,0.8,1.6,1.4,2.3l-0.3,0.3
				c-0.3,0.3-0.3,0.7-0.1,1l0.8,1l0,0c-0.1,0.1-0.1,0.4,0,0.5l0.4,0.4c0.1,0.1,0.4,0.1,0.5,0l0.3-0.3l0.9,0.9c0,0,0.1,0.1,0.2,0.1
				c0.1,0,0.1,0,0.2-0.1c0.1-0.1,0.1-0.2,0-0.3l-0.9-0.9l1-1l0.9,0.9c0.1,0.1,0.2,0.1,0.3,0c0.1-0.1,0.1-0.2,0-0.3l-0.9-0.9l0.3-0.3
				c0.1-0.1,0.1-0.4,0-0.5L21,29.2c-0.1-0.1-0.4-0.1-0.5,0l0,0l-1-0.8c-0.3-0.2-0.7-0.2-1,0l-0.3,0.3c-1.1-1.3-1.8-3.1-1.8-4.8
				c0-4.1,3.3-7.5,7.5-7.5c4.1,0,7.5,3.3,7.5,7.5c0,2.3-1,4.4-2.8,5.8l-0.8-1.2c0-0.1-0.1-0.1-0.2-0.1c-0.1,0-0.2,0.1-0.2,0.1
				L26,31.7c0,0.1,0,0.2,0,0.2c0,0.1,0.1,0.1,0.2,0.1c0,0,0,0,0,0l3.4-0.3c0.1,0,0.2-0.1,0.2-0.3c0-0.1-0.1-0.2-0.3-0.2l-3,0.3
				l1.1-2.3l0.8,1c0.1,0.1,0.2,0.1,0.3,0.1c0,0,0,0,0,0c0.5-0.4,0.9-0.8,1.3-1.2c0.4-0.5,0.7-1,1-1.5c0.3-0.5,0.5-1.1,0.6-1.7
				c0.1-0.6,0.2-1.2,0.2-1.9C31.9,22.9,31.7,21.8,31.2,20.8z M20.8,29.6l0.3,0.3L19,31.9l-0.3-0.3L20.8,29.6z M18.9,28.8
				c0.1-0.1,0.2-0.1,0.3,0l0.9,0.8L18.7,31l-0.8-0.9c-0.1-0.1-0.1-0.2,0-0.3L18.9,28.8z"/>
			<path d="M26,23.2c0-0.1-0.1-0.1-0.2-0.1h-1.3l0.2-4.1c0-0.1-0.1-0.2-0.2-0.2c-0.1,0-0.2,0-0.3,0.1l-2.6,5.5c0,0.1,0,0.2,0,0.2
				c0,0.1,0.1,0.1,0.2,0.1h1.3l-0.2,4.1c0,0.1,0.1,0.2,0.2,0.2c0,0,0,0,0,0c0.1,0,0.2-0.1,0.2-0.1l2.6-5.5
				C26.1,23.4,26.1,23.3,26,23.2z M23.6,27.7l0.2-3.2c0-0.1,0-0.1-0.1-0.2c0,0-0.1-0.1-0.2-0.1h-1.2l1.9-4.1l-0.2,3.2
				c0,0.1,0,0.1,0.1,0.2c0,0,0.1,0.1,0.2,0.1h1.2L23.6,27.7z"/>
			<path d="M21.7,19.5l-0.8-1.4l0,0C20.8,18,20.6,18,20.5,18c-1,0.6-1.9,1.4-2.5,2.4c-0.3,0.5-0.5,1.1-0.7,1.6
				c-0.2,0.6-0.2,1.2-0.2,1.8c0,0.1,0.1,0.2,0.2,0.2h1.7c0,0,0.1,0,0.1,0c0,0,0,0,0,0c0,0,0,0,0,0c0,0,0,0,0,0c0,0,0,0,0,0
				c0.1,0,0.1-0.1,0.1-0.2c0-0.8,0.2-1.6,0.6-2.3c0,0,0,0,0,0c0.4-0.7,1-1.3,1.7-1.7C21.7,19.9,21.8,19.7,21.7,19.5
				C21.7,19.6,21.7,19.6,21.7,19.5C21.7,19.6,21.7,19.6,21.7,19.5z M18.9,23.7h-1.3c0-0.4,0.1-0.8,0.2-1.2l1.2,0.3
				C18.9,23.1,18.9,23.4,18.9,23.7z M19.1,22.4l-1.2-0.3c0.1-0.4,0.3-0.8,0.5-1.1l1.1,0.6C19.3,21.9,19.2,22.1,19.1,22.4z
				 M19.7,21.2l-1.1-0.6c0.2-0.3,0.5-0.7,0.7-0.9l0.9,0.9C20,20.7,19.8,21,19.7,21.2z M20.5,20.2l-0.9-0.9c0.3-0.3,0.6-0.5,0.9-0.7
				l0.6,1.1C21,19.8,20.7,20,20.5,20.2z"/>
		</mask>
		<path class="st5" d="M31.2,20.8c-0.4-0.9-1-1.8-1.7-2.5C28.8,17.6,28,17,27,16.6c-1-0.4-2-0.6-3.1-0.6s-2.1,0.2-3.1,0.6
			c-0.9,0.4-1.8,1-2.5,1.7c-0.7,0.7-1.3,1.6-1.7,2.5c-0.4,1-0.6,2-0.6,3.1c0,1,0.2,1.9,0.5,2.9c0.3,0.8,0.8,1.6,1.4,2.3l-0.3,0.3
			c-0.3,0.3-0.3,0.7-0.1,1l0.8,1l0,0c-0.1,0.1-0.1,0.4,0,0.5l0.4,0.4c0.1,0.1,0.4,0.1,0.5,0l0.3-0.3l0.9,0.9c0,0,0.1,0.1,0.2,0.1
			c0.1,0,0.1,0,0.2-0.1c0.1-0.1,0.1-0.2,0-0.3l-0.9-0.9l1-1l0.9,0.9c0.1,0.1,0.2,0.1,0.3,0c0.1-0.1,0.1-0.2,0-0.3l-0.9-0.9l0.3-0.3
			c0.1-0.1,0.1-0.4,0-0.5L21,29.2c-0.1-0.1-0.4-0.1-0.5,0l0,0l-1-0.8c-0.3-0.2-0.7-0.2-1,0l-0.3,0.3c-1.1-1.3-1.8-3.1-1.8-4.8
			c0-4.1,3.3-7.5,7.5-7.5c4.1,0,7.5,3.3,7.5,7.5c0,2.3-1,4.4-2.8,5.8l-0.8-1.2c0-0.1-0.1-0.1-0.2-0.1c-0.1,0-0.2,0.1-0.2,0.1
			L26,31.7c0,0.1,0,0.2,0,0.2c0,0.1,0.1,0.1,0.2,0.1c0,0,0,0,0,0l3.4-0.3c0.1,0,0.2-0.1,0.2-0.3c0-0.1-0.1-0.2-0.3-0.2l-3,0.3
			l1.1-2.3l0.8,1c0.1,0.1,0.2,0.1,0.3,0.1c0,0,0,0,0,0c0.5-0.4,0.9-0.8,1.3-1.2c0.4-0.5,0.7-1,1-1.5c0.3-0.5,0.5-1.1,0.6-1.7
			c0.1-0.6,0.2-1.2,0.2-1.9C31.9,22.9,31.7,21.8,31.2,20.8z M20.8,29.6l0.3,0.3L19,31.9l-0.3-0.3L20.8,29.6z M18.9,28.8
			c0.1-0.1,0.2-0.1,0.3,0l0.9,0.8L18.7,31l-0.8-0.9c-0.1-0.1-0.1-0.2,0-0.3L18.9,28.8z"/>
		<defs>
			<filter id="Adobe_OpacityMaskFilter_1_" filterUnits="userSpaceOnUse" x="21.6" y="18.6" width="4.6" height="10.6">
				<feColorMatrix  type="matrix" values="1 0 0 0 0  0 1 0 0 0  0 0 1 0 0  0 0 0 1 0"/>
			</filter>
		</defs>
		<mask maskUnits="userSpaceOnUse" x="21.6" y="18.6" width="4.6" height="10.6" id="path-5-outside-1_1325_32647_2_">
			<rect x="15" y="15" class="st6" width="18" height="19"/>
			<path d="M31.2,20.8c-0.4-0.9-1-1.8-1.7-2.5C28.8,17.6,28,17,27,16.6c-1-0.4-2-0.6-3.1-0.6s-2.1,0.2-3.1,0.6
				c-0.9,0.4-1.8,1-2.5,1.7c-0.7,0.7-1.3,1.6-1.7,2.5c-0.4,1-0.6,2-0.6,3.1c0,1,0.2,1.9,0.5,2.9c0.3,0.8,0.8,1.6,1.4,2.3l-0.3,0.3
				c-0.3,0.3-0.3,0.7-0.1,1l0.8,1l0,0c-0.1,0.1-0.1,0.4,0,0.5l0.4,0.4c0.1,0.1,0.4,0.1,0.5,0l0.3-0.3l0.9,0.9c0,0,0.1,0.1,0.2,0.1
				c0.1,0,0.1,0,0.2-0.1c0.1-0.1,0.1-0.2,0-0.3l-0.9-0.9l1-1l0.9,0.9c0.1,0.1,0.2,0.1,0.3,0c0.1-0.1,0.1-0.2,0-0.3l-0.9-0.9l0.3-0.3
				c0.1-0.1,0.1-0.4,0-0.5L21,29.2c-0.1-0.1-0.4-0.1-0.5,0l0,0l-1-0.8c-0.3-0.2-0.7-0.2-1,0l-0.3,0.3c-1.1-1.3-1.8-3.1-1.8-4.8
				c0-4.1,3.3-7.5,7.5-7.5c4.1,0,7.5,3.3,7.5,7.5c0,2.3-1,4.4-2.8,5.8l-0.8-1.2c0-0.1-0.1-0.1-0.2-0.1c-0.1,0-0.2,0.1-0.2,0.1
				L26,31.7c0,0.1,0,0.2,0,0.2c0,0.1,0.1,0.1,0.2,0.1c0,0,0,0,0,0l3.4-0.3c0.1,0,0.2-0.1,0.2-0.3c0-0.1-0.1-0.2-0.3-0.2l-3,0.3
				l1.1-2.3l0.8,1c0.1,0.1,0.2,0.1,0.3,0.1c0,0,0,0,0,0c0.5-0.4,0.9-0.8,1.3-1.2c0.4-0.5,0.7-1,1-1.5c0.3-0.5,0.5-1.1,0.6-1.7
				c0.1-0.6,0.2-1.2,0.2-1.9C31.9,22.9,31.7,21.8,31.2,20.8z M20.8,29.6l0.3,0.3L19,31.9l-0.3-0.3L20.8,29.6z M18.9,28.8
				c0.1-0.1,0.2-0.1,0.3,0l0.9,0.8L18.7,31l-0.8-0.9c-0.1-0.1-0.1-0.2,0-0.3L18.9,28.8z"/>
			<path d="M26,23.2c0-0.1-0.1-0.1-0.2-0.1h-1.3l0.2-4.1c0-0.1-0.1-0.2-0.2-0.2c-0.1,0-0.2,0-0.3,0.1l-2.6,5.5c0,0.1,0,0.2,0,0.2
				c0,0.1,0.1,0.1,0.2,0.1h1.3l-0.2,4.1c0,0.1,0.1,0.2,0.2,0.2c0,0,0,0,0,0c0.1,0,0.2-0.1,0.2-0.1l2.6-5.5
				C26.1,23.4,26.1,23.3,26,23.2z M23.6,27.7l0.2-3.2c0-0.1,0-0.1-0.1-0.2c0,0-0.1-0.1-0.2-0.1h-1.2l1.9-4.1l-0.2,3.2
				c0,0.1,0,0.1,0.1,0.2c0,0,0.1,0.1,0.2,0.1h1.2L23.6,27.7z"/>
			<path d="M21.7,19.5l-0.8-1.4l0,0C20.8,18,20.6,18,20.5,18c-1,0.6-1.9,1.4-2.5,2.4c-0.3,0.5-0.5,1.1-0.7,1.6
				c-0.2,0.6-0.2,1.2-0.2,1.8c0,0.1,0.1,0.2,0.2,0.2h1.7c0,0,0.1,0,0.1,0c0,0,0,0,0,0c0,0,0,0,0,0c0,0,0,0,0,0c0,0,0,0,0,0
				c0.1,0,0.1-0.1,0.1-0.2c0-0.8,0.2-1.6,0.6-2.3c0,0,0,0,0,0c0.4-0.7,1-1.3,1.7-1.7C21.7,19.9,21.8,19.7,21.7,19.5
				C21.7,19.6,21.7,19.6,21.7,19.5C21.7,19.6,21.7,19.6,21.7,19.5z M18.9,23.7h-1.3c0-0.4,0.1-0.8,0.2-1.2l1.2,0.3
				C18.9,23.1,18.9,23.4,18.9,23.7z M19.1,22.4l-1.2-0.3c0.1-0.4,0.3-0.8,0.5-1.1l1.1,0.6C19.3,21.9,19.2,22.1,19.1,22.4z
				 M19.7,21.2l-1.1-0.6c0.2-0.3,0.5-0.7,0.7-0.9l0.9,0.9C20,20.7,19.8,21,19.7,21.2z M20.5,20.2l-0.9-0.9c0.3-0.3,0.6-0.5,0.9-0.7
				l0.6,1.1C21,19.8,20.7,20,20.5,20.2z"/>
		</mask>
		<path class="st7" d="M26,23.2c0-0.1-0.1-0.1-0.2-0.1h-1.3l0.2-4.1c0-0.1-0.1-0.2-0.2-0.2c-0.1,0-0.2,0-0.3,0.1l-2.6,5.5
			c0,0.1,0,0.2,0,0.2c0,0.1,0.1,0.1,0.2,0.1h1.3l-0.2,4.1c0,0.1,0.1,0.2,0.2,0.2c0,0,0,0,0,0c0.1,0,0.2-0.1,0.2-0.1l2.6-5.5
			C26.1,23.4,26.1,23.3,26,23.2z M23.6,27.7l0.2-3.2c0-0.1,0-0.1-0.1-0.2c0,0-0.1-0.1-0.2-0.1h-1.2l1.9-4.1l-0.2,3.2
			c0,0.1,0,0.1,0.1,0.2c0,0,0.1,0.1,0.2,0.1h1.2L23.6,27.7z"/>
		<defs>
			<filter id="Adobe_OpacityMaskFilter_2_" filterUnits="userSpaceOnUse" x="17" y="17.9" width="4.9" height="6.4">
				<feColorMatrix  type="matrix" values="1 0 0 0 0  0 1 0 0 0  0 0 1 0 0  0 0 0 1 0"/>
			</filter>
		</defs>
		<mask maskUnits="userSpaceOnUse" x="17" y="17.9" width="4.9" height="6.4" id="path-5-outside-1_1325_32647_3_">
			<rect x="15" y="15" class="st8" width="18" height="19"/>
			<path d="M31.2,20.8c-0.4-0.9-1-1.8-1.7-2.5C28.8,17.6,28,17,27,16.6c-1-0.4-2-0.6-3.1-0.6s-2.1,0.2-3.1,0.6
				c-0.9,0.4-1.8,1-2.5,1.7c-0.7,0.7-1.3,1.6-1.7,2.5c-0.4,1-0.6,2-0.6,3.1c0,1,0.2,1.9,0.5,2.9c0.3,0.8,0.8,1.6,1.4,2.3l-0.3,0.3
				c-0.3,0.3-0.3,0.7-0.1,1l0.8,1l0,0c-0.1,0.1-0.1,0.4,0,0.5l0.4,0.4c0.1,0.1,0.4,0.1,0.5,0l0.3-0.3l0.9,0.9c0,0,0.1,0.1,0.2,0.1
				c0.1,0,0.1,0,0.2-0.1c0.1-0.1,0.1-0.2,0-0.3l-0.9-0.9l1-1l0.9,0.9c0.1,0.1,0.2,0.1,0.3,0c0.1-0.1,0.1-0.2,0-0.3l-0.9-0.9l0.3-0.3
				c0.1-0.1,0.1-0.4,0-0.5L21,29.2c-0.1-0.1-0.4-0.1-0.5,0l0,0l-1-0.8c-0.3-0.2-0.7-0.2-1,0l-0.3,0.3c-1.1-1.3-1.8-3.1-1.8-4.8
				c0-4.1,3.3-7.5,7.5-7.5c4.1,0,7.5,3.3,7.5,7.5c0,2.3-1,4.4-2.8,5.8l-0.8-1.2c0-0.1-0.1-0.1-0.2-0.1c-0.1,0-0.2,0.1-0.2,0.1
				L26,31.7c0,0.1,0,0.2,0,0.2c0,0.1,0.1,0.1,0.2,0.1c0,0,0,0,0,0l3.4-0.3c0.1,0,0.2-0.1,0.2-0.3c0-0.1-0.1-0.2-0.3-0.2l-3,0.3
				l1.1-2.3l0.8,1c0.1,0.1,0.2,0.1,0.3,0.1c0,0,0,0,0,0c0.5-0.4,0.9-0.8,1.3-1.2c0.4-0.5,0.7-1,1-1.5c0.3-0.5,0.5-1.1,0.6-1.7
				c0.1-0.6,0.2-1.2,0.2-1.9C31.9,22.9,31.7,21.8,31.2,20.8z M20.8,29.6l0.3,0.3L19,31.9l-0.3-0.3L20.8,29.6z M18.9,28.8
				c0.1-0.1,0.2-0.1,0.3,0l0.9,0.8L18.7,31l-0.8-0.9c-0.1-0.1-0.1-0.2,0-0.3L18.9,28.8z"/>
			<path d="M26,23.2c0-0.1-0.1-0.1-0.2-0.1h-1.3l0.2-4.1c0-0.1-0.1-0.2-0.2-0.2c-0.1,0-0.2,0-0.3,0.1l-2.6,5.5c0,0.1,0,0.2,0,0.2
				c0,0.1,0.1,0.1,0.2,0.1h1.3l-0.2,4.1c0,0.1,0.1,0.2,0.2,0.2c0,0,0,0,0,0c0.1,0,0.2-0.1,0.2-0.1l2.6-5.5
				C26.1,23.4,26.1,23.3,26,23.2z M23.6,27.7l0.2-3.2c0-0.1,0-0.1-0.1-0.2c0,0-0.1-0.1-0.2-0.1h-1.2l1.9-4.1l-0.2,3.2
				c0,0.1,0,0.1,0.1,0.2c0,0,0.1,0.1,0.2,0.1h1.2L23.6,27.7z"/>
			<path d="M21.7,19.5l-0.8-1.4l0,0C20.8,18,20.6,18,20.5,18c-1,0.6-1.9,1.4-2.5,2.4c-0.3,0.5-0.5,1.1-0.7,1.6
				c-0.2,0.6-0.2,1.2-0.2,1.8c0,0.1,0.1,0.2,0.2,0.2h1.7c0,0,0.1,0,0.1,0c0,0,0,0,0,0c0,0,0,0,0,0c0,0,0,0,0,0c0,0,0,0,0,0
				c0.1,0,0.1-0.1,0.1-0.2c0-0.8,0.2-1.6,0.6-2.3c0,0,0,0,0,0c0.4-0.7,1-1.3,1.7-1.7C21.7,19.9,21.8,19.7,21.7,19.5
				C21.7,19.6,21.7,19.6,21.7,19.5C21.7,19.6,21.7,19.6,21.7,19.5z M18.9,23.7h-1.3c0-0.4,0.1-0.8,0.2-1.2l1.2,0.3
				C18.9,23.1,18.9,23.4,18.9,23.7z M19.1,22.4l-1.2-0.3c0.1-0.4,0.3-0.8,0.5-1.1l1.1,0.6C19.3,21.9,19.2,22.1,19.1,22.4z
				 M19.7,21.2l-1.1-0.6c0.2-0.3,0.5-0.7,0.7-0.9l0.9,0.9C20,20.7,19.8,21,19.7,21.2z M20.5,20.2l-0.9-0.9c0.3-0.3,0.6-0.5,0.9-0.7
				l0.6,1.1C21,19.8,20.7,20,20.5,20.2z"/>
		</mask>
		<path class="st9" d="M21.7,19.5l-0.8-1.4l0,0C20.8,18,20.6,18,20.5,18c-1,0.6-1.9,1.4-2.5,2.4c-0.3,0.5-0.5,1.1-0.7,1.6
			c-0.2,0.6-0.2,1.2-0.2,1.8c0,0.1,0.1,0.2,0.2,0.2h1.7c0,0,0.1,0,0.1,0c0,0,0,0,0,0c0,0,0,0,0,0c0,0,0,0,0,0c0,0,0,0,0,0
			c0.1,0,0.1-0.1,0.1-0.2c0-0.8,0.2-1.6,0.6-2.3c0,0,0,0,0,0c0.4-0.7,1-1.3,1.7-1.7C21.7,19.9,21.8,19.7,21.7,19.5
			C21.7,19.6,21.7,19.6,21.7,19.5C21.7,19.6,21.7,19.6,21.7,19.5z M18.9,23.7h-1.3c0-0.4,0.1-0.8,0.2-1.2l1.2,0.3
			C18.9,23.1,18.9,23.4,18.9,23.7z M19.1,22.4l-1.2-0.3c0.1-0.4,0.3-0.8,0.5-1.1l1.1,0.6C19.3,21.9,19.2,22.1,19.1,22.4z M19.7,21.2
			l-1.1-0.6c0.2-0.3,0.5-0.7,0.7-0.9l0.9,0.9C20,20.7,19.8,21,19.7,21.2z M20.5,20.2l-0.9-0.9c0.3-0.3,0.6-0.5,0.9-0.7l0.6,1.1
			C21,19.8,20.7,20,20.5,20.2z"/>
	</g>
</g>
<path class="st10" d="M24,2L24,2c12.2,0,22,9.8,22,22l0,0c0,12.2-9.8,22-22,22l0,0C11.8,46,2,36.2,2,24l0,0C2,11.8,11.8,2,24,2z"/>
</svg>
