<?xml version="1.0" encoding="utf-8"?>
<!-- Generator: Adobe Illustrator 24.2.3, SVG Export Plug-In . SVG Version: 6.00 Build 0)  -->
<svg version="1.1" id="Слой_1" xmlns="http://www.w3.org/2000/svg" xmlns:xlink="http://www.w3.org/1999/xlink" x="0px" y="0px"
	 viewBox="0 0 48 48" style="enable-background:new 0 0 48 48;" xml:space="preserve">
<style type="text/css">
	.st0{clip-path:url(#SVGID_2_);}
	.st1{fill:#00695C;}
	.st2{fill:none;stroke:#00695C;stroke-width:4;stroke-opacity:0.2;}
	.st3{fill:#FFFFFF;}
	.st4{fill:#FFFFFF;filter:url(#Adobe_OpacityMaskFilter);}
	.st5{mask:url(#path-5-outside-1_1325_32677_1_);fill:none;stroke:#FFFFFF;stroke-width:0.1689;}
	.st6{fill:#FFFFFF;filter:url(#Adobe_OpacityMaskFilter_1_);}
	.st7{mask:url(#path-5-outside-1_1325_32677_2_);fill:none;stroke:#FFFFFF;stroke-width:0.1689;}
	.st8{fill:#FFFFFF;filter:url(#Adobe_OpacityMaskFilter_2_);}
	.st9{mask:url(#path-5-outside-1_1325_32677_3_);fill:none;stroke:#FFFFFF;stroke-width:0.1689;}
	.st10{fill:#FFFFFF;filter:url(#Adobe_OpacityMaskFilter_3_);}
	.st11{mask:url(#path-5-outside-1_1325_32677_4_);fill:none;stroke:#FFFFFF;stroke-width:0.1689;}
	.st12{fill:#FFFFFF;filter:url(#Adobe_OpacityMaskFilter_4_);}
	.st13{mask:url(#path-5-outside-1_1325_32677_5_);fill:none;stroke:#FFFFFF;stroke-width:0.1689;}
	.st14{fill:#FFFFFF;filter:url(#Adobe_OpacityMaskFilter_5_);}
	.st15{mask:url(#path-5-outside-1_1325_32677_6_);fill:none;stroke:#FFFFFF;stroke-width:0.1689;}
	.st16{fill:none;stroke:#00695C;stroke-width:4;stroke-opacity:0.1;}
</style>
<g>
	<defs>
		<path id="SVGID_1_" d="M24,4L24,4c11,0,20,9,20,20l0,0c0,11-9,20-20,20l0,0C13,44,4,35,4,24l0,0C4,13,13,4,24,4z"/>
	</defs>
	<clipPath id="SVGID_2_">
		<use xlink:href="#SVGID_1_"  style="overflow:visible;"/>
	</clipPath>
	<g class="st0">
		<path class="st1" d="M24,8L24,8c8.8,0,16,7.2,16,16l0,0c0,8.8-7.2,16-16,16l0,0c-8.8,0-16-7.2-16-16l0,0C8,15.2,15.2,8,24,8z"/>
		<path class="st2" d="M24,6L24,6c9.9,0,18,8.1,18,18l0,0c0,9.9-8.1,18-18,18l0,0c-9.9,0-18-8.1-18-18l0,0C6,14.1,14.1,6,24,6z"/>
		<path class="st3" d="M29.8,25.1c1.3-0.9,2.2-2.5,2.2-4.2c0-2.7-2.1-4.9-4.7-4.9c-2.5,0-4.5,2.1-4.7,4.6c-2.2,0.1-4,1.8-4.5,4.1
			c-1.3,0.6-2.2,2-2.2,3.5c0,2.1,1.6,3.8,3.6,3.8h8.3c2,0,3.6-1.7,3.6-3.8C31.4,26.9,30.8,25.7,29.8,25.1z M27.3,16.5
			c2.3,0,4.2,2,4.2,4.5c0,1.6-0.8,3.1-2.2,3.9c-0.5-0.2-1-0.4-1.5-0.4c-0.1,0-0.1,0-0.2,0c-0.5-2.2-2.4-3.8-4.6-3.8
			C23.2,18.3,25.1,16.5,27.3,16.5z M27.9,31.5h-8.3c-1.7,0-3.2-1.5-3.2-3.3c0-1.4,0.8-2.6,2-3.1c0.1,0,0.1-0.1,0.1-0.2
			c0.4-2.2,2.2-3.9,4.3-3.9c2.1,0,3.9,1.5,4.3,3.7c0,0.1,0.1,0.2,0.2,0.2c0.1,0,0.2,0,0.4,0c1.7,0,3.2,1.5,3.2,3.3
			C31,30.1,29.6,31.5,27.9,31.5z"/>
		<path class="st3" d="M23.8,20.2c0.1,0,0.2,0,0.3-0.2c0.1-0.2,0.1-0.5,0.2-0.7l0.3,0.2c0,0,0.1,0,0.1,0c0.1,0,0.1,0,0.2-0.1
			c0.1-0.1,0-0.2-0.1-0.3L24.6,19c0.1-0.2,0.3-0.4,0.4-0.5c0.2-0.2,0.3-0.3,0.5-0.4l0.2,0.3c0,0.1,0.1,0.1,0.2,0.1c0,0,0.1,0,0.1,0
			c0.1-0.1,0.1-0.2,0.1-0.3l-0.2-0.3c0.4-0.2,0.8-0.3,1.3-0.4v0.4c0,0.1,0.1,0.2,0.2,0.2c0.1,0,0.2-0.1,0.2-0.2v-0.4
			c0.4,0,0.9,0.1,1.3,0.4l-0.2,0.3c-0.1,0.1,0,0.2,0.1,0.3c0,0,0.1,0,0.1,0c0.1,0,0.1,0,0.2-0.1l0.2-0.3c0.2,0.1,0.4,0.3,0.5,0.4
			c0.2,0.2,0.3,0.3,0.4,0.5l-0.3,0.2c-0.1,0.1-0.1,0.2-0.1,0.3c0,0.1,0.1,0.1,0.2,0.1c0,0,0.1,0,0.1,0l0.3-0.2
			c0.2,0.4,0.3,0.9,0.3,1.3h-0.4c-0.1,0-0.2,0.1-0.2,0.2c0,0.1,0.1,0.2,0.2,0.2h0.4c0,0.3-0.1,0.6-0.2,0.9c0,0.1,0,0.2,0.1,0.3
			c0,0,0,0,0.1,0c0.1,0,0.2-0.1,0.2-0.2c0.5-1.4,0.1-3-0.9-4.1c-1.5-1.5-3.8-1.5-5.3,0c-0.5,0.5-0.8,1.1-1,1.8
			C23.7,20.1,23.7,20.2,23.8,20.2z"/>
		<path class="st3" d="M28.1,18.3c-0.1,0-0.2,0-0.3,0.1l-0.5,1.7c-0.1,0-0.3,0-0.4,0.1c-0.2,0.1-0.3,0.3-0.3,0.5
			c0,0.2,0,0.4,0.1,0.6c0.1,0.1,0.1,0.2,0.2,0.2l-0.1,0.3c0,0.1,0,0.2,0.1,0.3c0,0,0,0,0.1,0c0.1,0,0.2-0.1,0.2-0.2l0.1-0.3
			c0,0,0,0,0,0c0.1,0,0.3,0,0.4-0.1c0.2-0.1,0.3-0.3,0.3-0.5c0-0.2,0-0.4-0.1-0.6c0-0.1-0.1-0.1-0.2-0.2l0.5-1.7
			C28.3,18.4,28.3,18.3,28.1,18.3z M27.6,21c0,0.1-0.1,0.2-0.1,0.2c-0.1,0-0.2,0.1-0.2,0c-0.1,0-0.1-0.1-0.2-0.1
			c0-0.1-0.1-0.2,0-0.2c0-0.1,0.1-0.2,0.1-0.2c0.1,0,0.1-0.1,0.2,0c0.1,0,0.1,0.1,0.2,0.1C27.6,20.8,27.6,20.9,27.6,21z"/>
		<path class="st3" d="M21.5,26h-0.6c-0.5,0-0.9,0.4-0.9,1v3.1c0,0.1,0.1,0.2,0.2,0.2s0.2-0.1,0.2-0.2V29H22v1.1
			c0,0.1,0.1,0.2,0.2,0.2c0.1,0,0.2-0.1,0.2-0.2V27C22.4,26.4,22,26,21.5,26z M20.4,28.6V27c0-0.3,0.2-0.6,0.5-0.6h0.6
			c0.3,0,0.5,0.3,0.5,0.6v1.7H20.4z"/>
		<path class="st3" d="M27.9,26.4c0.1,0,0.2-0.1,0.2-0.2c0-0.1-0.1-0.2-0.2-0.2h-1.5c-0.1,0-0.2,0.1-0.2,0.2c0,0.1,0.1,0.2,0.2,0.2
			h0.6v3.5h-0.6c-0.1,0-0.2,0.1-0.2,0.2s0.1,0.2,0.2,0.2h1.5c0.1,0,0.2-0.1,0.2-0.2s-0.1-0.2-0.2-0.2h-0.6v-3.5H27.9z"/>
		<path class="st3" d="M25.4,29.7c0-0.1,0.1-0.2,0.1-0.4V27c0-0.5-0.4-1-0.9-1H24c-0.5,0-0.9,0.4-0.9,1v2.4c0,0.5,0.4,1,0.9,1h0.6
			c0.2,0,0.5-0.1,0.6-0.3l0.2,0.2c0,0,0.1,0.1,0.1,0.1c0,0,0.1,0,0.1,0c0.1-0.1,0.1-0.2,0-0.3L25.4,29.7z M24.5,29.9H24
			c-0.3,0-0.5-0.3-0.5-0.6V27c0-0.3,0.2-0.6,0.5-0.6h0.6c0.3,0,0.5,0.3,0.5,0.6v2.4c0,0,0,0,0,0l-0.6-0.7c-0.1-0.1-0.2-0.1-0.3,0
			c-0.1,0.1-0.1,0.2,0,0.3l0.7,0.8C24.8,29.8,24.7,29.9,24.5,29.9z"/>
		<defs>
			<filter id="Adobe_OpacityMaskFilter" filterUnits="userSpaceOnUse" x="15.9" y="15.9" width="16.2" height="16.2">
				<feColorMatrix  type="matrix" values="1 0 0 0 0  0 1 0 0 0  0 0 1 0 0  0 0 0 1 0"/>
			</filter>
		</defs>
		<mask maskUnits="userSpaceOnUse" x="15.9" y="15.9" width="16.2" height="16.2" id="path-5-outside-1_1325_32677_1_">
			<rect x="15" y="15" class="st4" width="18" height="18"/>
			<path d="M29.8,25.1c1.3-0.9,2.2-2.5,2.2-4.2c0-2.7-2.1-4.9-4.7-4.9c-2.5,0-4.5,2.1-4.7,4.6c-2.2,0.1-4,1.8-4.5,4.1
				c-1.3,0.6-2.2,2-2.2,3.5c0,2.1,1.6,3.8,3.6,3.8h8.3c2,0,3.6-1.7,3.6-3.8C31.4,26.9,30.8,25.7,29.8,25.1z M27.3,16.5
				c2.3,0,4.2,2,4.2,4.5c0,1.6-0.8,3.1-2.2,3.9c-0.5-0.2-1-0.4-1.5-0.4c-0.1,0-0.1,0-0.2,0c-0.5-2.2-2.4-3.8-4.6-3.8
				C23.2,18.3,25.1,16.5,27.3,16.5z M27.9,31.5h-8.3c-1.7,0-3.2-1.5-3.2-3.3c0-1.4,0.8-2.6,2-3.1c0.1,0,0.1-0.1,0.1-0.2
				c0.4-2.2,2.2-3.9,4.3-3.9c2.1,0,3.9,1.5,4.3,3.7c0,0.1,0.1,0.2,0.2,0.2c0.1,0,0.2,0,0.4,0c1.7,0,3.2,1.5,3.2,3.3
				C31,30.1,29.6,31.5,27.9,31.5z"/>
			<path d="M23.8,20.2c0.1,0,0.2,0,0.3-0.2c0.1-0.2,0.1-0.5,0.2-0.7l0.3,0.2c0,0,0.1,0,0.1,0c0.1,0,0.1,0,0.2-0.1
				c0.1-0.1,0-0.2-0.1-0.3L24.6,19c0.1-0.2,0.3-0.4,0.4-0.5c0.2-0.2,0.3-0.3,0.5-0.4l0.2,0.3c0,0.1,0.1,0.1,0.2,0.1c0,0,0.1,0,0.1,0
				c0.1-0.1,0.1-0.2,0.1-0.3l-0.2-0.3c0.4-0.2,0.8-0.3,1.3-0.4v0.4c0,0.1,0.1,0.2,0.2,0.2c0.1,0,0.2-0.1,0.2-0.2v-0.4
				c0.4,0,0.9,0.1,1.3,0.4l-0.2,0.3c-0.1,0.1,0,0.2,0.1,0.3c0,0,0.1,0,0.1,0c0.1,0,0.1,0,0.2-0.1l0.2-0.3c0.2,0.1,0.4,0.3,0.5,0.4
				c0.2,0.2,0.3,0.3,0.4,0.5l-0.3,0.2c-0.1,0.1-0.1,0.2-0.1,0.3c0,0.1,0.1,0.1,0.2,0.1c0,0,0.1,0,0.1,0l0.3-0.2
				c0.2,0.4,0.3,0.9,0.3,1.3h-0.4c-0.1,0-0.2,0.1-0.2,0.2c0,0.1,0.1,0.2,0.2,0.2h0.4c0,0.3-0.1,0.6-0.2,0.9c0,0.1,0,0.2,0.1,0.3
				c0,0,0,0,0.1,0c0.1,0,0.2-0.1,0.2-0.2c0.5-1.4,0.1-3-0.9-4.1c-1.5-1.5-3.8-1.5-5.3,0c-0.5,0.5-0.8,1.1-1,1.8
				C23.7,20.1,23.7,20.2,23.8,20.2z"/>
			<path d="M28.1,18.3c-0.1,0-0.2,0-0.3,0.1l-0.5,1.7c-0.1,0-0.3,0-0.4,0.1c-0.2,0.1-0.3,0.3-0.3,0.5c0,0.2,0,0.4,0.1,0.6
				c0.1,0.1,0.1,0.2,0.2,0.2l-0.1,0.3c0,0.1,0,0.2,0.1,0.3c0,0,0,0,0.1,0c0.1,0,0.2-0.1,0.2-0.2l0.1-0.3c0,0,0,0,0,0
				c0.1,0,0.3,0,0.4-0.1c0.2-0.1,0.3-0.3,0.3-0.5c0-0.2,0-0.4-0.1-0.6c0-0.1-0.1-0.1-0.2-0.2l0.5-1.7C28.3,18.4,28.3,18.3,28.1,18.3
				z M27.6,21c0,0.1-0.1,0.2-0.1,0.2c-0.1,0-0.2,0.1-0.2,0c-0.1,0-0.1-0.1-0.2-0.1c0-0.1-0.1-0.2,0-0.2c0-0.1,0.1-0.2,0.1-0.2
				c0.1,0,0.1-0.1,0.2,0c0.1,0,0.1,0.1,0.2,0.1C27.6,20.8,27.6,20.9,27.6,21z"/>
			<path d="M21.5,26h-0.6c-0.5,0-0.9,0.4-0.9,1v3.1c0,0.1,0.1,0.2,0.2,0.2s0.2-0.1,0.2-0.2V29H22v1.1c0,0.1,0.1,0.2,0.2,0.2
				c0.1,0,0.2-0.1,0.2-0.2V27C22.4,26.4,22,26,21.5,26z M20.4,28.6V27c0-0.3,0.2-0.6,0.5-0.6h0.6c0.3,0,0.5,0.3,0.5,0.6v1.7H20.4z"
				/>
			<path d="M27.9,26.4c0.1,0,0.2-0.1,0.2-0.2c0-0.1-0.1-0.2-0.2-0.2h-1.5c-0.1,0-0.2,0.1-0.2,0.2c0,0.1,0.1,0.2,0.2,0.2h0.6v3.5
				h-0.6c-0.1,0-0.2,0.1-0.2,0.2s0.1,0.2,0.2,0.2h1.5c0.1,0,0.2-0.1,0.2-0.2s-0.1-0.2-0.2-0.2h-0.6v-3.5H27.9z"/>
			<path d="M25.4,29.7c0-0.1,0.1-0.2,0.1-0.4V27c0-0.5-0.4-1-0.9-1H24c-0.5,0-0.9,0.4-0.9,1v2.4c0,0.5,0.4,1,0.9,1h0.6
				c0.2,0,0.5-0.1,0.6-0.3l0.2,0.2c0,0,0.1,0.1,0.1,0.1c0,0,0.1,0,0.1,0c0.1-0.1,0.1-0.2,0-0.3L25.4,29.7z M24.5,29.9H24
				c-0.3,0-0.5-0.3-0.5-0.6V27c0-0.3,0.2-0.6,0.5-0.6h0.6c0.3,0,0.5,0.3,0.5,0.6v2.4c0,0,0,0,0,0l-0.6-0.7c-0.1-0.1-0.2-0.1-0.3,0
				c-0.1,0.1-0.1,0.2,0,0.3l0.7,0.8C24.8,29.8,24.7,29.9,24.5,29.9z"/>
		</mask>
		<path class="st5" d="M29.8,25.1c1.3-0.9,2.2-2.5,2.2-4.2c0-2.7-2.1-4.9-4.7-4.9c-2.5,0-4.5,2.1-4.7,4.6c-2.2,0.1-4,1.8-4.5,4.1
			c-1.3,0.6-2.2,2-2.2,3.5c0,2.1,1.6,3.8,3.6,3.8h8.3c2,0,3.6-1.7,3.6-3.8C31.4,26.9,30.8,25.7,29.8,25.1z M27.3,16.5
			c2.3,0,4.2,2,4.2,4.5c0,1.6-0.8,3.1-2.2,3.9c-0.5-0.2-1-0.4-1.5-0.4c-0.1,0-0.1,0-0.2,0c-0.5-2.2-2.4-3.8-4.6-3.8
			C23.2,18.3,25.1,16.5,27.3,16.5z M27.9,31.5h-8.3c-1.7,0-3.2-1.5-3.2-3.3c0-1.4,0.8-2.6,2-3.1c0.1,0,0.1-0.1,0.1-0.2
			c0.4-2.2,2.2-3.9,4.3-3.9c2.1,0,3.9,1.5,4.3,3.7c0,0.1,0.1,0.2,0.2,0.2c0.1,0,0.2,0,0.4,0c1.7,0,3.2,1.5,3.2,3.3
			C31,30.1,29.6,31.5,27.9,31.5z"/>
		<defs>
			<filter id="Adobe_OpacityMaskFilter_1_" filterUnits="userSpaceOnUse" x="23.6" y="16.9" width="7.6" height="5.6">
				<feColorMatrix  type="matrix" values="1 0 0 0 0  0 1 0 0 0  0 0 1 0 0  0 0 0 1 0"/>
			</filter>
		</defs>
		<mask maskUnits="userSpaceOnUse" x="23.6" y="16.9" width="7.6" height="5.6" id="path-5-outside-1_1325_32677_2_">
			<rect x="15" y="15" class="st6" width="18" height="18"/>
			<path d="M29.8,25.1c1.3-0.9,2.2-2.5,2.2-4.2c0-2.7-2.1-4.9-4.7-4.9c-2.5,0-4.5,2.1-4.7,4.6c-2.2,0.1-4,1.8-4.5,4.1
				c-1.3,0.6-2.2,2-2.2,3.5c0,2.1,1.6,3.8,3.6,3.8h8.3c2,0,3.6-1.7,3.6-3.8C31.4,26.9,30.8,25.7,29.8,25.1z M27.3,16.5
				c2.3,0,4.2,2,4.2,4.5c0,1.6-0.8,3.1-2.2,3.9c-0.5-0.2-1-0.4-1.5-0.4c-0.1,0-0.1,0-0.2,0c-0.5-2.2-2.4-3.8-4.6-3.8
				C23.2,18.3,25.1,16.5,27.3,16.5z M27.9,31.5h-8.3c-1.7,0-3.2-1.5-3.2-3.3c0-1.4,0.8-2.6,2-3.1c0.1,0,0.1-0.1,0.1-0.2
				c0.4-2.2,2.2-3.9,4.3-3.9c2.1,0,3.9,1.5,4.3,3.7c0,0.1,0.1,0.2,0.2,0.2c0.1,0,0.2,0,0.4,0c1.7,0,3.2,1.5,3.2,3.3
				C31,30.1,29.6,31.5,27.9,31.5z"/>
			<path d="M23.8,20.2c0.1,0,0.2,0,0.3-0.2c0.1-0.2,0.1-0.5,0.2-0.7l0.3,0.2c0,0,0.1,0,0.1,0c0.1,0,0.1,0,0.2-0.1
				c0.1-0.1,0-0.2-0.1-0.3L24.6,19c0.1-0.2,0.3-0.4,0.4-0.5c0.2-0.2,0.3-0.3,0.5-0.4l0.2,0.3c0,0.1,0.1,0.1,0.2,0.1c0,0,0.1,0,0.1,0
				c0.1-0.1,0.1-0.2,0.1-0.3l-0.2-0.3c0.4-0.2,0.8-0.3,1.3-0.4v0.4c0,0.1,0.1,0.2,0.2,0.2c0.1,0,0.2-0.1,0.2-0.2v-0.4
				c0.4,0,0.9,0.1,1.3,0.4l-0.2,0.3c-0.1,0.1,0,0.2,0.1,0.3c0,0,0.1,0,0.1,0c0.1,0,0.1,0,0.2-0.1l0.2-0.3c0.2,0.1,0.4,0.3,0.5,0.4
				c0.2,0.2,0.3,0.3,0.4,0.5l-0.3,0.2c-0.1,0.1-0.1,0.2-0.1,0.3c0,0.1,0.1,0.1,0.2,0.1c0,0,0.1,0,0.1,0l0.3-0.2
				c0.2,0.4,0.3,0.9,0.3,1.3h-0.4c-0.1,0-0.2,0.1-0.2,0.2c0,0.1,0.1,0.2,0.2,0.2h0.4c0,0.3-0.1,0.6-0.2,0.9c0,0.1,0,0.2,0.1,0.3
				c0,0,0,0,0.1,0c0.1,0,0.2-0.1,0.2-0.2c0.5-1.4,0.1-3-0.9-4.1c-1.5-1.5-3.8-1.5-5.3,0c-0.5,0.5-0.8,1.1-1,1.8
				C23.7,20.1,23.7,20.2,23.8,20.2z"/>
			<path d="M28.1,18.3c-0.1,0-0.2,0-0.3,0.1l-0.5,1.7c-0.1,0-0.3,0-0.4,0.1c-0.2,0.1-0.3,0.3-0.3,0.5c0,0.2,0,0.4,0.1,0.6
				c0.1,0.1,0.1,0.2,0.2,0.2l-0.1,0.3c0,0.1,0,0.2,0.1,0.3c0,0,0,0,0.1,0c0.1,0,0.2-0.1,0.2-0.2l0.1-0.3c0,0,0,0,0,0
				c0.1,0,0.3,0,0.4-0.1c0.2-0.1,0.3-0.3,0.3-0.5c0-0.2,0-0.4-0.1-0.6c0-0.1-0.1-0.1-0.2-0.2l0.5-1.7C28.3,18.4,28.3,18.3,28.1,18.3
				z M27.6,21c0,0.1-0.1,0.2-0.1,0.2c-0.1,0-0.2,0.1-0.2,0c-0.1,0-0.1-0.1-0.2-0.1c0-0.1-0.1-0.2,0-0.2c0-0.1,0.1-0.2,0.1-0.2
				c0.1,0,0.1-0.1,0.2,0c0.1,0,0.1,0.1,0.2,0.1C27.6,20.8,27.6,20.9,27.6,21z"/>
			<path d="M21.5,26h-0.6c-0.5,0-0.9,0.4-0.9,1v3.1c0,0.1,0.1,0.2,0.2,0.2s0.2-0.1,0.2-0.2V29H22v1.1c0,0.1,0.1,0.2,0.2,0.2
				c0.1,0,0.2-0.1,0.2-0.2V27C22.4,26.4,22,26,21.5,26z M20.4,28.6V27c0-0.3,0.2-0.6,0.5-0.6h0.6c0.3,0,0.5,0.3,0.5,0.6v1.7H20.4z"
				/>
			<path d="M27.9,26.4c0.1,0,0.2-0.1,0.2-0.2c0-0.1-0.1-0.2-0.2-0.2h-1.5c-0.1,0-0.2,0.1-0.2,0.2c0,0.1,0.1,0.2,0.2,0.2h0.6v3.5
				h-0.6c-0.1,0-0.2,0.1-0.2,0.2s0.1,0.2,0.2,0.2h1.5c0.1,0,0.2-0.1,0.2-0.2s-0.1-0.2-0.2-0.2h-0.6v-3.5H27.9z"/>
			<path d="M25.4,29.7c0-0.1,0.1-0.2,0.1-0.4V27c0-0.5-0.4-1-0.9-1H24c-0.5,0-0.9,0.4-0.9,1v2.4c0,0.5,0.4,1,0.9,1h0.6
				c0.2,0,0.5-0.1,0.6-0.3l0.2,0.2c0,0,0.1,0.1,0.1,0.1c0,0,0.1,0,0.1,0c0.1-0.1,0.1-0.2,0-0.3L25.4,29.7z M24.5,29.9H24
				c-0.3,0-0.5-0.3-0.5-0.6V27c0-0.3,0.2-0.6,0.5-0.6h0.6c0.3,0,0.5,0.3,0.5,0.6v2.4c0,0,0,0,0,0l-0.6-0.7c-0.1-0.1-0.2-0.1-0.3,0
				c-0.1,0.1-0.1,0.2,0,0.3l0.7,0.8C24.8,29.8,24.7,29.9,24.5,29.9z"/>
		</mask>
		<path class="st7" d="M23.8,20.2c0.1,0,0.2,0,0.3-0.2c0.1-0.2,0.1-0.5,0.2-0.7l0.3,0.2c0,0,0.1,0,0.1,0c0.1,0,0.1,0,0.2-0.1
			c0.1-0.1,0-0.2-0.1-0.3L24.6,19c0.1-0.2,0.3-0.4,0.4-0.5c0.2-0.2,0.3-0.3,0.5-0.4l0.2,0.3c0,0.1,0.1,0.1,0.2,0.1c0,0,0.1,0,0.1,0
			c0.1-0.1,0.1-0.2,0.1-0.3l-0.2-0.3c0.4-0.2,0.8-0.3,1.3-0.4v0.4c0,0.1,0.1,0.2,0.2,0.2c0.1,0,0.2-0.1,0.2-0.2v-0.4
			c0.4,0,0.9,0.1,1.3,0.4l-0.2,0.3c-0.1,0.1,0,0.2,0.1,0.3c0,0,0.1,0,0.1,0c0.1,0,0.1,0,0.2-0.1l0.2-0.3c0.2,0.1,0.4,0.3,0.5,0.4
			c0.2,0.2,0.3,0.3,0.4,0.5l-0.3,0.2c-0.1,0.1-0.1,0.2-0.1,0.3c0,0.1,0.1,0.1,0.2,0.1c0,0,0.1,0,0.1,0l0.3-0.2
			c0.2,0.4,0.3,0.9,0.3,1.3h-0.4c-0.1,0-0.2,0.1-0.2,0.2c0,0.1,0.1,0.2,0.2,0.2h0.4c0,0.3-0.1,0.6-0.2,0.9c0,0.1,0,0.2,0.1,0.3
			c0,0,0,0,0.1,0c0.1,0,0.2-0.1,0.2-0.2c0.5-1.4,0.1-3-0.9-4.1c-1.5-1.5-3.8-1.5-5.3,0c-0.5,0.5-0.8,1.1-1,1.8
			C23.7,20.1,23.7,20.2,23.8,20.2z"/>
		<defs>
			<filter id="Adobe_OpacityMaskFilter_2_" filterUnits="userSpaceOnUse" x="26.5" y="18.2" width="1.9" height="4">
				<feColorMatrix  type="matrix" values="1 0 0 0 0  0 1 0 0 0  0 0 1 0 0  0 0 0 1 0"/>
			</filter>
		</defs>
		<mask maskUnits="userSpaceOnUse" x="26.5" y="18.2" width="1.9" height="4" id="path-5-outside-1_1325_32677_3_">
			<rect x="15" y="15" class="st8" width="18" height="18"/>
			<path d="M29.8,25.1c1.3-0.9,2.2-2.5,2.2-4.2c0-2.7-2.1-4.9-4.7-4.9c-2.5,0-4.5,2.1-4.7,4.6c-2.2,0.1-4,1.8-4.5,4.1
				c-1.3,0.6-2.2,2-2.2,3.5c0,2.1,1.6,3.8,3.6,3.8h8.3c2,0,3.6-1.7,3.6-3.8C31.4,26.9,30.8,25.7,29.8,25.1z M27.3,16.5
				c2.3,0,4.2,2,4.2,4.5c0,1.6-0.8,3.1-2.2,3.9c-0.5-0.2-1-0.4-1.5-0.4c-0.1,0-0.1,0-0.2,0c-0.5-2.2-2.4-3.8-4.6-3.8
				C23.2,18.3,25.1,16.5,27.3,16.5z M27.9,31.5h-8.3c-1.7,0-3.2-1.5-3.2-3.3c0-1.4,0.8-2.6,2-3.1c0.1,0,0.1-0.1,0.1-0.2
				c0.4-2.2,2.2-3.9,4.3-3.9c2.1,0,3.9,1.5,4.3,3.7c0,0.1,0.1,0.2,0.2,0.2c0.1,0,0.2,0,0.4,0c1.7,0,3.2,1.5,3.2,3.3
				C31,30.1,29.6,31.5,27.9,31.5z"/>
			<path d="M23.8,20.2c0.1,0,0.2,0,0.3-0.2c0.1-0.2,0.1-0.5,0.2-0.7l0.3,0.2c0,0,0.1,0,0.1,0c0.1,0,0.1,0,0.2-0.1
				c0.1-0.1,0-0.2-0.1-0.3L24.6,19c0.1-0.2,0.3-0.4,0.4-0.5c0.2-0.2,0.3-0.3,0.5-0.4l0.2,0.3c0,0.1,0.1,0.1,0.2,0.1c0,0,0.1,0,0.1,0
				c0.1-0.1,0.1-0.2,0.1-0.3l-0.2-0.3c0.4-0.2,0.8-0.3,1.3-0.4v0.4c0,0.1,0.1,0.2,0.2,0.2c0.1,0,0.2-0.1,0.2-0.2v-0.4
				c0.4,0,0.9,0.1,1.3,0.4l-0.2,0.3c-0.1,0.1,0,0.2,0.1,0.3c0,0,0.1,0,0.1,0c0.1,0,0.1,0,0.2-0.1l0.2-0.3c0.2,0.1,0.4,0.3,0.5,0.4
				c0.2,0.2,0.3,0.3,0.4,0.5l-0.3,0.2c-0.1,0.1-0.1,0.2-0.1,0.3c0,0.1,0.1,0.1,0.2,0.1c0,0,0.1,0,0.1,0l0.3-0.2
				c0.2,0.4,0.3,0.9,0.3,1.3h-0.4c-0.1,0-0.2,0.1-0.2,0.2c0,0.1,0.1,0.2,0.2,0.2h0.4c0,0.3-0.1,0.6-0.2,0.9c0,0.1,0,0.2,0.1,0.3
				c0,0,0,0,0.1,0c0.1,0,0.2-0.1,0.2-0.2c0.5-1.4,0.1-3-0.9-4.1c-1.5-1.5-3.8-1.5-5.3,0c-0.5,0.5-0.8,1.1-1,1.8
				C23.7,20.1,23.7,20.2,23.8,20.2z"/>
			<path d="M28.1,18.3c-0.1,0-0.2,0-0.3,0.1l-0.5,1.7c-0.1,0-0.3,0-0.4,0.1c-0.2,0.1-0.3,0.3-0.3,0.5c0,0.2,0,0.4,0.1,0.6
				c0.1,0.1,0.1,0.2,0.2,0.2l-0.1,0.3c0,0.1,0,0.2,0.1,0.3c0,0,0,0,0.1,0c0.1,0,0.2-0.1,0.2-0.2l0.1-0.3c0,0,0,0,0,0
				c0.1,0,0.3,0,0.4-0.1c0.2-0.1,0.3-0.3,0.3-0.5c0-0.2,0-0.4-0.1-0.6c0-0.1-0.1-0.1-0.2-0.2l0.5-1.7C28.3,18.4,28.3,18.3,28.1,18.3
				z M27.6,21c0,0.1-0.1,0.2-0.1,0.2c-0.1,0-0.2,0.1-0.2,0c-0.1,0-0.1-0.1-0.2-0.1c0-0.1-0.1-0.2,0-0.2c0-0.1,0.1-0.2,0.1-0.2
				c0.1,0,0.1-0.1,0.2,0c0.1,0,0.1,0.1,0.2,0.1C27.6,20.8,27.6,20.9,27.6,21z"/>
			<path d="M21.5,26h-0.6c-0.5,0-0.9,0.4-0.9,1v3.1c0,0.1,0.1,0.2,0.2,0.2s0.2-0.1,0.2-0.2V29H22v1.1c0,0.1,0.1,0.2,0.2,0.2
				c0.1,0,0.2-0.1,0.2-0.2V27C22.4,26.4,22,26,21.5,26z M20.4,28.6V27c0-0.3,0.2-0.6,0.5-0.6h0.6c0.3,0,0.5,0.3,0.5,0.6v1.7H20.4z"
				/>
			<path d="M27.9,26.4c0.1,0,0.2-0.1,0.2-0.2c0-0.1-0.1-0.2-0.2-0.2h-1.5c-0.1,0-0.2,0.1-0.2,0.2c0,0.1,0.1,0.2,0.2,0.2h0.6v3.5
				h-0.6c-0.1,0-0.2,0.1-0.2,0.2s0.1,0.2,0.2,0.2h1.5c0.1,0,0.2-0.1,0.2-0.2s-0.1-0.2-0.2-0.2h-0.6v-3.5H27.9z"/>
			<path d="M25.4,29.7c0-0.1,0.1-0.2,0.1-0.4V27c0-0.5-0.4-1-0.9-1H24c-0.5,0-0.9,0.4-0.9,1v2.4c0,0.5,0.4,1,0.9,1h0.6
				c0.2,0,0.5-0.1,0.6-0.3l0.2,0.2c0,0,0.1,0.1,0.1,0.1c0,0,0.1,0,0.1,0c0.1-0.1,0.1-0.2,0-0.3L25.4,29.7z M24.5,29.9H24
				c-0.3,0-0.5-0.3-0.5-0.6V27c0-0.3,0.2-0.6,0.5-0.6h0.6c0.3,0,0.5,0.3,0.5,0.6v2.4c0,0,0,0,0,0l-0.6-0.7c-0.1-0.1-0.2-0.1-0.3,0
				c-0.1,0.1-0.1,0.2,0,0.3l0.7,0.8C24.8,29.8,24.7,29.9,24.5,29.9z"/>
		</mask>
		<path class="st9" d="M28.1,18.3c-0.1,0-0.2,0-0.3,0.1l-0.5,1.7c-0.1,0-0.3,0-0.4,0.1c-0.2,0.1-0.3,0.3-0.3,0.5
			c0,0.2,0,0.4,0.1,0.6c0.1,0.1,0.1,0.2,0.2,0.2l-0.1,0.3c0,0.1,0,0.2,0.1,0.3c0,0,0,0,0.1,0c0.1,0,0.2-0.1,0.2-0.2l0.1-0.3
			c0,0,0,0,0,0c0.1,0,0.3,0,0.4-0.1c0.2-0.1,0.3-0.3,0.3-0.5c0-0.2,0-0.4-0.1-0.6c0-0.1-0.1-0.1-0.2-0.2l0.5-1.7
			C28.3,18.4,28.3,18.3,28.1,18.3z M27.6,21c0,0.1-0.1,0.2-0.1,0.2c-0.1,0-0.2,0.1-0.2,0c-0.1,0-0.1-0.1-0.2-0.1
			c0-0.1-0.1-0.2,0-0.2c0-0.1,0.1-0.2,0.1-0.2c0.1,0,0.1-0.1,0.2,0c0.1,0,0.1,0.1,0.2,0.1C27.6,20.8,27.6,20.9,27.6,21z"/>
		<defs>
			<filter id="Adobe_OpacityMaskFilter_3_" filterUnits="userSpaceOnUse" x="19.9" y="25.9" width="2.5" height="4.5">
				<feColorMatrix  type="matrix" values="1 0 0 0 0  0 1 0 0 0  0 0 1 0 0  0 0 0 1 0"/>
			</filter>
		</defs>
		<mask maskUnits="userSpaceOnUse" x="19.9" y="25.9" width="2.5" height="4.5" id="path-5-outside-1_1325_32677_4_">
			<rect x="15" y="15" class="st10" width="18" height="18"/>
			<path d="M29.8,25.1c1.3-0.9,2.2-2.5,2.2-4.2c0-2.7-2.1-4.9-4.7-4.9c-2.5,0-4.5,2.1-4.7,4.6c-2.2,0.1-4,1.8-4.5,4.1
				c-1.3,0.6-2.2,2-2.2,3.5c0,2.1,1.6,3.8,3.6,3.8h8.3c2,0,3.6-1.7,3.6-3.8C31.4,26.9,30.8,25.7,29.8,25.1z M27.3,16.5
				c2.3,0,4.2,2,4.2,4.5c0,1.6-0.8,3.1-2.2,3.9c-0.5-0.2-1-0.4-1.5-0.4c-0.1,0-0.1,0-0.2,0c-0.5-2.2-2.4-3.8-4.6-3.8
				C23.2,18.3,25.1,16.5,27.3,16.5z M27.9,31.5h-8.3c-1.7,0-3.2-1.5-3.2-3.3c0-1.4,0.8-2.6,2-3.1c0.1,0,0.1-0.1,0.1-0.2
				c0.4-2.2,2.2-3.9,4.3-3.9c2.1,0,3.9,1.5,4.3,3.7c0,0.1,0.1,0.2,0.2,0.2c0.1,0,0.2,0,0.4,0c1.7,0,3.2,1.5,3.2,3.3
				C31,30.1,29.6,31.5,27.9,31.5z"/>
			<path d="M23.8,20.2c0.1,0,0.2,0,0.3-0.2c0.1-0.2,0.1-0.5,0.2-0.7l0.3,0.2c0,0,0.1,0,0.1,0c0.1,0,0.1,0,0.2-0.1
				c0.1-0.1,0-0.2-0.1-0.3L24.6,19c0.1-0.2,0.3-0.4,0.4-0.5c0.2-0.2,0.3-0.3,0.5-0.4l0.2,0.3c0,0.1,0.1,0.1,0.2,0.1c0,0,0.1,0,0.1,0
				c0.1-0.1,0.1-0.2,0.1-0.3l-0.2-0.3c0.4-0.2,0.8-0.3,1.3-0.4v0.4c0,0.1,0.1,0.2,0.2,0.2c0.1,0,0.2-0.1,0.2-0.2v-0.4
				c0.4,0,0.9,0.1,1.3,0.4l-0.2,0.3c-0.1,0.1,0,0.2,0.1,0.3c0,0,0.1,0,0.1,0c0.1,0,0.1,0,0.2-0.1l0.2-0.3c0.2,0.1,0.4,0.3,0.5,0.4
				c0.2,0.2,0.3,0.3,0.4,0.5l-0.3,0.2c-0.1,0.1-0.1,0.2-0.1,0.3c0,0.1,0.1,0.1,0.2,0.1c0,0,0.1,0,0.1,0l0.3-0.2
				c0.2,0.4,0.3,0.9,0.3,1.3h-0.4c-0.1,0-0.2,0.1-0.2,0.2c0,0.1,0.1,0.2,0.2,0.2h0.4c0,0.3-0.1,0.6-0.2,0.9c0,0.1,0,0.2,0.1,0.3
				c0,0,0,0,0.1,0c0.1,0,0.2-0.1,0.2-0.2c0.5-1.4,0.1-3-0.9-4.1c-1.5-1.5-3.8-1.5-5.3,0c-0.5,0.5-0.8,1.1-1,1.8
				C23.7,20.1,23.7,20.2,23.8,20.2z"/>
			<path d="M28.1,18.3c-0.1,0-0.2,0-0.3,0.1l-0.5,1.7c-0.1,0-0.3,0-0.4,0.1c-0.2,0.1-0.3,0.3-0.3,0.5c0,0.2,0,0.4,0.1,0.6
				c0.1,0.1,0.1,0.2,0.2,0.2l-0.1,0.3c0,0.1,0,0.2,0.1,0.3c0,0,0,0,0.1,0c0.1,0,0.2-0.1,0.2-0.2l0.1-0.3c0,0,0,0,0,0
				c0.1,0,0.3,0,0.4-0.1c0.2-0.1,0.3-0.3,0.3-0.5c0-0.2,0-0.4-0.1-0.6c0-0.1-0.1-0.1-0.2-0.2l0.5-1.7C28.3,18.4,28.3,18.3,28.1,18.3
				z M27.6,21c0,0.1-0.1,0.2-0.1,0.2c-0.1,0-0.2,0.1-0.2,0c-0.1,0-0.1-0.1-0.2-0.1c0-0.1-0.1-0.2,0-0.2c0-0.1,0.1-0.2,0.1-0.2
				c0.1,0,0.1-0.1,0.2,0c0.1,0,0.1,0.1,0.2,0.1C27.6,20.8,27.6,20.9,27.6,21z"/>
			<path d="M21.5,26h-0.6c-0.5,0-0.9,0.4-0.9,1v3.1c0,0.1,0.1,0.2,0.2,0.2s0.2-0.1,0.2-0.2V29H22v1.1c0,0.1,0.1,0.2,0.2,0.2
				c0.1,0,0.2-0.1,0.2-0.2V27C22.4,26.4,22,26,21.5,26z M20.4,28.6V27c0-0.3,0.2-0.6,0.5-0.6h0.6c0.3,0,0.5,0.3,0.5,0.6v1.7H20.4z"
				/>
			<path d="M27.9,26.4c0.1,0,0.2-0.1,0.2-0.2c0-0.1-0.1-0.2-0.2-0.2h-1.5c-0.1,0-0.2,0.1-0.2,0.2c0,0.1,0.1,0.2,0.2,0.2h0.6v3.5
				h-0.6c-0.1,0-0.2,0.1-0.2,0.2s0.1,0.2,0.2,0.2h1.5c0.1,0,0.2-0.1,0.2-0.2s-0.1-0.2-0.2-0.2h-0.6v-3.5H27.9z"/>
			<path d="M25.4,29.7c0-0.1,0.1-0.2,0.1-0.4V27c0-0.5-0.4-1-0.9-1H24c-0.5,0-0.9,0.4-0.9,1v2.4c0,0.5,0.4,1,0.9,1h0.6
				c0.2,0,0.5-0.1,0.6-0.3l0.2,0.2c0,0,0.1,0.1,0.1,0.1c0,0,0.1,0,0.1,0c0.1-0.1,0.1-0.2,0-0.3L25.4,29.7z M24.5,29.9H24
				c-0.3,0-0.5-0.3-0.5-0.6V27c0-0.3,0.2-0.6,0.5-0.6h0.6c0.3,0,0.5,0.3,0.5,0.6v2.4c0,0,0,0,0,0l-0.6-0.7c-0.1-0.1-0.2-0.1-0.3,0
				c-0.1,0.1-0.1,0.2,0,0.3l0.7,0.8C24.8,29.8,24.7,29.9,24.5,29.9z"/>
		</mask>
		<path class="st11" d="M21.5,26h-0.6c-0.5,0-0.9,0.4-0.9,1v3.1c0,0.1,0.1,0.2,0.2,0.2s0.2-0.1,0.2-0.2V29H22v1.1
			c0,0.1,0.1,0.2,0.2,0.2c0.1,0,0.2-0.1,0.2-0.2V27C22.4,26.4,22,26,21.5,26z M20.4,28.6V27c0-0.3,0.2-0.6,0.5-0.6h0.6
			c0.3,0,0.5,0.3,0.5,0.6v1.7H20.4z"/>
		<defs>
			<filter id="Adobe_OpacityMaskFilter_4_" filterUnits="userSpaceOnUse" x="26.1" y="25.9" width="2" height="4.5">
				<feColorMatrix  type="matrix" values="1 0 0 0 0  0 1 0 0 0  0 0 1 0 0  0 0 0 1 0"/>
			</filter>
		</defs>
		<mask maskUnits="userSpaceOnUse" x="26.1" y="25.9" width="2" height="4.5" id="path-5-outside-1_1325_32677_5_">
			<rect x="15" y="15" class="st12" width="18" height="18"/>
			<path d="M29.8,25.1c1.3-0.9,2.2-2.5,2.2-4.2c0-2.7-2.1-4.9-4.7-4.9c-2.5,0-4.5,2.1-4.7,4.6c-2.2,0.1-4,1.8-4.5,4.1
				c-1.3,0.6-2.2,2-2.2,3.5c0,2.1,1.6,3.8,3.6,3.8h8.3c2,0,3.6-1.7,3.6-3.8C31.4,26.9,30.8,25.7,29.8,25.1z M27.3,16.5
				c2.3,0,4.2,2,4.2,4.5c0,1.6-0.8,3.1-2.2,3.9c-0.5-0.2-1-0.4-1.5-0.4c-0.1,0-0.1,0-0.2,0c-0.5-2.2-2.4-3.8-4.6-3.8
				C23.2,18.3,25.1,16.5,27.3,16.5z M27.9,31.5h-8.3c-1.7,0-3.2-1.5-3.2-3.3c0-1.4,0.8-2.6,2-3.1c0.1,0,0.1-0.1,0.1-0.2
				c0.4-2.2,2.2-3.9,4.3-3.9c2.1,0,3.9,1.5,4.3,3.7c0,0.1,0.1,0.2,0.2,0.2c0.1,0,0.2,0,0.4,0c1.7,0,3.2,1.5,3.2,3.3
				C31,30.1,29.6,31.5,27.9,31.5z"/>
			<path d="M23.8,20.2c0.1,0,0.2,0,0.3-0.2c0.1-0.2,0.1-0.5,0.2-0.7l0.3,0.2c0,0,0.1,0,0.1,0c0.1,0,0.1,0,0.2-0.1
				c0.1-0.1,0-0.2-0.1-0.3L24.6,19c0.1-0.2,0.3-0.4,0.4-0.5c0.2-0.2,0.3-0.3,0.5-0.4l0.2,0.3c0,0.1,0.1,0.1,0.2,0.1c0,0,0.1,0,0.1,0
				c0.1-0.1,0.1-0.2,0.1-0.3l-0.2-0.3c0.4-0.2,0.8-0.3,1.3-0.4v0.4c0,0.1,0.1,0.2,0.2,0.2c0.1,0,0.2-0.1,0.2-0.2v-0.4
				c0.4,0,0.9,0.1,1.3,0.4l-0.2,0.3c-0.1,0.1,0,0.2,0.1,0.3c0,0,0.1,0,0.1,0c0.1,0,0.1,0,0.2-0.1l0.2-0.3c0.2,0.1,0.4,0.3,0.5,0.4
				c0.2,0.2,0.3,0.3,0.4,0.5l-0.3,0.2c-0.1,0.1-0.1,0.2-0.1,0.3c0,0.1,0.1,0.1,0.2,0.1c0,0,0.1,0,0.1,0l0.3-0.2
				c0.2,0.4,0.3,0.9,0.3,1.3h-0.4c-0.1,0-0.2,0.1-0.2,0.2c0,0.1,0.1,0.2,0.2,0.2h0.4c0,0.3-0.1,0.6-0.2,0.9c0,0.1,0,0.2,0.1,0.3
				c0,0,0,0,0.1,0c0.1,0,0.2-0.1,0.2-0.2c0.5-1.4,0.1-3-0.9-4.1c-1.5-1.5-3.8-1.5-5.3,0c-0.5,0.5-0.8,1.1-1,1.8
				C23.7,20.1,23.7,20.2,23.8,20.2z"/>
			<path d="M28.1,18.3c-0.1,0-0.2,0-0.3,0.1l-0.5,1.7c-0.1,0-0.3,0-0.4,0.1c-0.2,0.1-0.3,0.3-0.3,0.5c0,0.2,0,0.4,0.1,0.6
				c0.1,0.1,0.1,0.2,0.2,0.2l-0.1,0.3c0,0.1,0,0.2,0.1,0.3c0,0,0,0,0.1,0c0.1,0,0.2-0.1,0.2-0.2l0.1-0.3c0,0,0,0,0,0
				c0.1,0,0.3,0,0.4-0.1c0.2-0.1,0.3-0.3,0.3-0.5c0-0.2,0-0.4-0.1-0.6c0-0.1-0.1-0.1-0.2-0.2l0.5-1.7C28.3,18.4,28.3,18.3,28.1,18.3
				z M27.6,21c0,0.1-0.1,0.2-0.1,0.2c-0.1,0-0.2,0.1-0.2,0c-0.1,0-0.1-0.1-0.2-0.1c0-0.1-0.1-0.2,0-0.2c0-0.1,0.1-0.2,0.1-0.2
				c0.1,0,0.1-0.1,0.2,0c0.1,0,0.1,0.1,0.2,0.1C27.6,20.8,27.6,20.9,27.6,21z"/>
			<path d="M21.5,26h-0.6c-0.5,0-0.9,0.4-0.9,1v3.1c0,0.1,0.1,0.2,0.2,0.2s0.2-0.1,0.2-0.2V29H22v1.1c0,0.1,0.1,0.2,0.2,0.2
				c0.1,0,0.2-0.1,0.2-0.2V27C22.4,26.4,22,26,21.5,26z M20.4,28.6V27c0-0.3,0.2-0.6,0.5-0.6h0.6c0.3,0,0.5,0.3,0.5,0.6v1.7H20.4z"
				/>
			<path d="M27.9,26.4c0.1,0,0.2-0.1,0.2-0.2c0-0.1-0.1-0.2-0.2-0.2h-1.5c-0.1,0-0.2,0.1-0.2,0.2c0,0.1,0.1,0.2,0.2,0.2h0.6v3.5
				h-0.6c-0.1,0-0.2,0.1-0.2,0.2s0.1,0.2,0.2,0.2h1.5c0.1,0,0.2-0.1,0.2-0.2s-0.1-0.2-0.2-0.2h-0.6v-3.5H27.9z"/>
			<path d="M25.4,29.7c0-0.1,0.1-0.2,0.1-0.4V27c0-0.5-0.4-1-0.9-1H24c-0.5,0-0.9,0.4-0.9,1v2.4c0,0.5,0.4,1,0.9,1h0.6
				c0.2,0,0.5-0.1,0.6-0.3l0.2,0.2c0,0,0.1,0.1,0.1,0.1c0,0,0.1,0,0.1,0c0.1-0.1,0.1-0.2,0-0.3L25.4,29.7z M24.5,29.9H24
				c-0.3,0-0.5-0.3-0.5-0.6V27c0-0.3,0.2-0.6,0.5-0.6h0.6c0.3,0,0.5,0.3,0.5,0.6v2.4c0,0,0,0,0,0l-0.6-0.7c-0.1-0.1-0.2-0.1-0.3,0
				c-0.1,0.1-0.1,0.2,0,0.3l0.7,0.8C24.8,29.8,24.7,29.9,24.5,29.9z"/>
		</mask>
		<path class="st13" d="M27.9,26.4c0.1,0,0.2-0.1,0.2-0.2c0-0.1-0.1-0.2-0.2-0.2h-1.5c-0.1,0-0.2,0.1-0.2,0.2c0,0.1,0.1,0.2,0.2,0.2
			h0.6v3.5h-0.6c-0.1,0-0.2,0.1-0.2,0.2s0.1,0.2,0.2,0.2h1.5c0.1,0,0.2-0.1,0.2-0.2s-0.1-0.2-0.2-0.2h-0.6v-3.5H27.9z"/>
		<defs>
			<filter id="Adobe_OpacityMaskFilter_5_" filterUnits="userSpaceOnUse" x="23" y="25.9" width="2.7" height="4.5">
				<feColorMatrix  type="matrix" values="1 0 0 0 0  0 1 0 0 0  0 0 1 0 0  0 0 0 1 0"/>
			</filter>
		</defs>
		<mask maskUnits="userSpaceOnUse" x="23" y="25.9" width="2.7" height="4.5" id="path-5-outside-1_1325_32677_6_">
			<rect x="15" y="15" class="st14" width="18" height="18"/>
			<path d="M29.8,25.1c1.3-0.9,2.2-2.5,2.2-4.2c0-2.7-2.1-4.9-4.7-4.9c-2.5,0-4.5,2.1-4.7,4.6c-2.2,0.1-4,1.8-4.5,4.1
				c-1.3,0.6-2.2,2-2.2,3.5c0,2.1,1.6,3.8,3.6,3.8h8.3c2,0,3.6-1.7,3.6-3.8C31.4,26.9,30.8,25.7,29.8,25.1z M27.3,16.5
				c2.3,0,4.2,2,4.2,4.5c0,1.6-0.8,3.1-2.2,3.9c-0.5-0.2-1-0.4-1.5-0.4c-0.1,0-0.1,0-0.2,0c-0.5-2.2-2.4-3.8-4.6-3.8
				C23.2,18.3,25.1,16.5,27.3,16.5z M27.9,31.5h-8.3c-1.7,0-3.2-1.5-3.2-3.3c0-1.4,0.8-2.6,2-3.1c0.1,0,0.1-0.1,0.1-0.2
				c0.4-2.2,2.2-3.9,4.3-3.9c2.1,0,3.9,1.5,4.3,3.7c0,0.1,0.1,0.2,0.2,0.2c0.1,0,0.2,0,0.4,0c1.7,0,3.2,1.5,3.2,3.3
				C31,30.1,29.6,31.5,27.9,31.5z"/>
			<path d="M23.8,20.2c0.1,0,0.2,0,0.3-0.2c0.1-0.2,0.1-0.5,0.2-0.7l0.3,0.2c0,0,0.1,0,0.1,0c0.1,0,0.1,0,0.2-0.1
				c0.1-0.1,0-0.2-0.1-0.3L24.6,19c0.1-0.2,0.3-0.4,0.4-0.5c0.2-0.2,0.3-0.3,0.5-0.4l0.2,0.3c0,0.1,0.1,0.1,0.2,0.1c0,0,0.1,0,0.1,0
				c0.1-0.1,0.1-0.2,0.1-0.3l-0.2-0.3c0.4-0.2,0.8-0.3,1.3-0.4v0.4c0,0.1,0.1,0.2,0.2,0.2c0.1,0,0.2-0.1,0.2-0.2v-0.4
				c0.4,0,0.9,0.1,1.3,0.4l-0.2,0.3c-0.1,0.1,0,0.2,0.1,0.3c0,0,0.1,0,0.1,0c0.1,0,0.1,0,0.2-0.1l0.2-0.3c0.2,0.1,0.4,0.3,0.5,0.4
				c0.2,0.2,0.3,0.3,0.4,0.5l-0.3,0.2c-0.1,0.1-0.1,0.2-0.1,0.3c0,0.1,0.1,0.1,0.2,0.1c0,0,0.1,0,0.1,0l0.3-0.2
				c0.2,0.4,0.3,0.9,0.3,1.3h-0.4c-0.1,0-0.2,0.1-0.2,0.2c0,0.1,0.1,0.2,0.2,0.2h0.4c0,0.3-0.1,0.6-0.2,0.9c0,0.1,0,0.2,0.1,0.3
				c0,0,0,0,0.1,0c0.1,0,0.2-0.1,0.2-0.2c0.5-1.4,0.1-3-0.9-4.1c-1.5-1.5-3.8-1.5-5.3,0c-0.5,0.5-0.8,1.1-1,1.8
				C23.7,20.1,23.7,20.2,23.8,20.2z"/>
			<path d="M28.1,18.3c-0.1,0-0.2,0-0.3,0.1l-0.5,1.7c-0.1,0-0.3,0-0.4,0.1c-0.2,0.1-0.3,0.3-0.3,0.5c0,0.2,0,0.4,0.1,0.6
				c0.1,0.1,0.1,0.2,0.2,0.2l-0.1,0.3c0,0.1,0,0.2,0.1,0.3c0,0,0,0,0.1,0c0.1,0,0.2-0.1,0.2-0.2l0.1-0.3c0,0,0,0,0,0
				c0.1,0,0.3,0,0.4-0.1c0.2-0.1,0.3-0.3,0.3-0.5c0-0.2,0-0.4-0.1-0.6c0-0.1-0.1-0.1-0.2-0.2l0.5-1.7C28.3,18.4,28.3,18.3,28.1,18.3
				z M27.6,21c0,0.1-0.1,0.2-0.1,0.2c-0.1,0-0.2,0.1-0.2,0c-0.1,0-0.1-0.1-0.2-0.1c0-0.1-0.1-0.2,0-0.2c0-0.1,0.1-0.2,0.1-0.2
				c0.1,0,0.1-0.1,0.2,0c0.1,0,0.1,0.1,0.2,0.1C27.6,20.8,27.6,20.9,27.6,21z"/>
			<path d="M21.5,26h-0.6c-0.5,0-0.9,0.4-0.9,1v3.1c0,0.1,0.1,0.2,0.2,0.2s0.2-0.1,0.2-0.2V29H22v1.1c0,0.1,0.1,0.2,0.2,0.2
				c0.1,0,0.2-0.1,0.2-0.2V27C22.4,26.4,22,26,21.5,26z M20.4,28.6V27c0-0.3,0.2-0.6,0.5-0.6h0.6c0.3,0,0.5,0.3,0.5,0.6v1.7H20.4z"
				/>
			<path d="M27.9,26.4c0.1,0,0.2-0.1,0.2-0.2c0-0.1-0.1-0.2-0.2-0.2h-1.5c-0.1,0-0.2,0.1-0.2,0.2c0,0.1,0.1,0.2,0.2,0.2h0.6v3.5
				h-0.6c-0.1,0-0.2,0.1-0.2,0.2s0.1,0.2,0.2,0.2h1.5c0.1,0,0.2-0.1,0.2-0.2s-0.1-0.2-0.2-0.2h-0.6v-3.5H27.9z"/>
			<path d="M25.4,29.7c0-0.1,0.1-0.2,0.1-0.4V27c0-0.5-0.4-1-0.9-1H24c-0.5,0-0.9,0.4-0.9,1v2.4c0,0.5,0.4,1,0.9,1h0.6
				c0.2,0,0.5-0.1,0.6-0.3l0.2,0.2c0,0,0.1,0.1,0.1,0.1c0,0,0.1,0,0.1,0c0.1-0.1,0.1-0.2,0-0.3L25.4,29.7z M24.5,29.9H24
				c-0.3,0-0.5-0.3-0.5-0.6V27c0-0.3,0.2-0.6,0.5-0.6h0.6c0.3,0,0.5,0.3,0.5,0.6v2.4c0,0,0,0,0,0l-0.6-0.7c-0.1-0.1-0.2-0.1-0.3,0
				c-0.1,0.1-0.1,0.2,0,0.3l0.7,0.8C24.8,29.8,24.7,29.9,24.5,29.9z"/>
		</mask>
		<path class="st15" d="M25.4,29.7c0-0.1,0.1-0.2,0.1-0.4V27c0-0.5-0.4-1-0.9-1H24c-0.5,0-0.9,0.4-0.9,1v2.4c0,0.5,0.4,1,0.9,1h0.6
			c0.2,0,0.5-0.1,0.6-0.3l0.2,0.2c0,0,0.1,0.1,0.1,0.1c0,0,0.1,0,0.1,0c0.1-0.1,0.1-0.2,0-0.3L25.4,29.7z M24.5,29.9H24
			c-0.3,0-0.5-0.3-0.5-0.6V27c0-0.3,0.2-0.6,0.5-0.6h0.6c0.3,0,0.5,0.3,0.5,0.6v2.4c0,0,0,0,0,0l-0.6-0.7c-0.1-0.1-0.2-0.1-0.3,0
			c-0.1,0.1-0.1,0.2,0,0.3l0.7,0.8C24.8,29.8,24.7,29.9,24.5,29.9z"/>
	</g>
</g>
<path class="st16" d="M24,2L24,2c12.2,0,22,9.8,22,22l0,0c0,12.2-9.8,22-22,22l0,0C11.8,46,2,36.2,2,24l0,0C2,11.8,11.8,2,24,2z"/>
</svg>
