<svg width="395" height="452" viewBox="0 0 395 452" fill="none" xmlns="http://www.w3.org/2000/svg">
<circle opacity="0.3" cx="391" cy="258" r="4" transform="rotate(90 391 258)" fill="#27AE60"/>
<circle opacity="0.3" cx="353" cy="258" r="4" transform="rotate(90 353 258)" fill="#27AE60"/>
<circle opacity="0.3" cx="315" cy="258" r="4" transform="rotate(90 315 258)" fill="#27AE60"/>
<circle opacity="0.3" cx="277" cy="258" r="4" transform="rotate(90 277 258)" fill="#27AE60"/>
<circle cx="391" cy="372" r="4" transform="rotate(90 391 372)" fill="#1F8B4D"/>
<circle opacity="0.3" cx="353" cy="372" r="4" transform="rotate(90 353 372)" fill="#27AE60"/>
<circle cx="315" cy="372" r="4" transform="rotate(90 315 372)" fill="#1F8B4D"/>
<circle opacity="0.3" cx="277" cy="372" r="4" transform="rotate(90 277 372)" fill="#27AE60"/>
<circle opacity="0.3" cx="391" cy="296" r="4" transform="rotate(90 391 296)" fill="#27AE60"/>
<circle cx="353" cy="296" r="4" transform="rotate(90 353 296)" fill="#1F8B4D"/>
<circle opacity="0.3" cx="315" cy="296" r="4" transform="rotate(90 315 296)" fill="#27AE60"/>
<circle cx="277" cy="296" r="4" transform="rotate(90 277 296)" fill="#1F8B4D"/>
<circle opacity="0.3" cx="391" cy="410" r="4" transform="rotate(90 391 410)" fill="#27AE60"/>
<circle opacity="0.3" cx="353" cy="410" r="4" transform="rotate(90 353 410)" fill="#27AE60"/>
<circle opacity="0.3" cx="315" cy="410" r="4" transform="rotate(90 315 410)" fill="#27AE60"/>
<circle opacity="0.3" cx="277" cy="410" r="4" transform="rotate(90 277 410)" fill="#27AE60"/>
<circle opacity="0.3" cx="391" cy="334" r="4" transform="rotate(90 391 334)" fill="#27AE60"/>
<circle opacity="0.3" cx="353" cy="334" r="4" transform="rotate(90 353 334)" fill="#27AE60"/>
<circle opacity="0.3" cx="315" cy="334" r="4" transform="rotate(90 315 334)" fill="#27AE60"/>
<circle opacity="0.3" cx="277" cy="334" r="4" transform="rotate(90 277 334)" fill="#27AE60"/>
<circle opacity="0.3" cx="391" cy="448" r="4" transform="rotate(90 391 448)" fill="#27AE60"/>
<circle cx="353" cy="448" r="4" transform="rotate(90 353 448)" fill="#1F8B4D"/>
<circle opacity="0.3" cx="315" cy="448" r="4" transform="rotate(90 315 448)" fill="#27AE60"/>
<circle cx="277" cy="448" r="4" transform="rotate(90 277 448)" fill="#1F8B4D"/>
<circle opacity="0.3" cx="118" cy="4" r="4" transform="rotate(90 118 4)" fill="#27AE60"/>
<circle opacity="0.3" cx="80" cy="4" r="4" transform="rotate(90 80 4)" fill="#27AE60"/>
<circle opacity="0.3" cx="42" cy="4" r="4" transform="rotate(90 42 4)" fill="#27AE60"/>
<circle opacity="0.3" cx="4" cy="4" r="4" transform="rotate(90 4 4)" fill="#27AE60"/>
<circle cx="118" cy="118" r="4" transform="rotate(90 118 118)" fill="#1F8B4D"/>
<circle opacity="0.3" cx="80" cy="118" r="4" transform="rotate(90 80 118)" fill="#27AE60"/>
<circle cx="42" cy="118" r="4" transform="rotate(90 42 118)" fill="#1F8B4D"/>
<circle opacity="0.3" cx="4" cy="118" r="4" transform="rotate(90 4 118)" fill="#27AE60"/>
<circle opacity="0.3" cx="118" cy="42" r="4" transform="rotate(90 118 42)" fill="#27AE60"/>
<circle cx="80" cy="42" r="4" transform="rotate(90 80 42)" fill="#1F8B4D"/>
<circle opacity="0.3" cx="42" cy="42" r="4" transform="rotate(90 42 42)" fill="#27AE60"/>
<circle cx="4" cy="42" r="4" transform="rotate(90 4 42)" fill="#1F8B4D"/>
<circle opacity="0.3" cx="118" cy="156" r="4" transform="rotate(90 118 156)" fill="#27AE60"/>
<circle opacity="0.3" cx="80" cy="156" r="4" transform="rotate(90 80 156)" fill="#27AE60"/>
<circle opacity="0.3" cx="42" cy="156" r="4" transform="rotate(90 42 156)" fill="#27AE60"/>
<circle opacity="0.3" cx="4" cy="156" r="4" transform="rotate(90 4 156)" fill="#27AE60"/>
<circle opacity="0.3" cx="118" cy="80" r="4" transform="rotate(90 118 80)" fill="#27AE60"/>
<circle opacity="0.3" cx="80" cy="80" r="4" transform="rotate(90 80 80)" fill="#27AE60"/>
<circle opacity="0.3" cx="42" cy="80" r="4" transform="rotate(90 42 80)" fill="#27AE60"/>
<circle opacity="0.3" cx="4" cy="80" r="4" transform="rotate(90 4 80)" fill="#27AE60"/>
<circle opacity="0.3" cx="118" cy="194" r="4" transform="rotate(90 118 194)" fill="#27AE60"/>
<circle cx="80" cy="194" r="4" transform="rotate(90 80 194)" fill="#1F8B4D"/>
<circle opacity="0.3" cx="42" cy="194" r="4" transform="rotate(90 42 194)" fill="#27AE60"/>
<circle cx="4" cy="194" r="4" transform="rotate(90 4 194)" fill="#1F8B4D"/>
</svg>
