<?xml version="1.0" encoding="UTF-8"?>
<svg width="626" height="751" fill="none" version="1.1" viewBox="0 0 626 751" xmlns="http://www.w3.org/2000/svg">
 <rect width="626" height="72" fill="#328d4a"/>
 <g fill="#c1dad6">
  <path d="m37.138 36.94c0.04-0.3 0.06-0.61 0.06-0.94 0-0.32-0.02-0.64-0.07-0.94l2.03-1.58c0.18-0.14 0.23-0.41 0.12-0.61l-1.92-3.32c-0.12-0.22-0.37-0.29-0.59-0.22l-2.39 0.96c-0.5-0.38-1.03-0.7-1.62-0.94l-0.36-2.54c-0.04-0.24-0.24-0.41-0.48-0.41h-3.84c-0.24 0-0.43 0.17-0.47 0.41l-0.36 2.54c-0.59 0.24-1.13 0.57-1.62 0.94l-2.39-0.96c-0.22-0.08-0.47 0-0.59 0.22l-1.91 3.32c-0.12 0.21-0.08 0.47 0.12 0.61l2.03 1.58c-0.05 0.3-0.09 0.63-0.09 0.94s0.02 0.64 0.07 0.94l-2.03 1.58c-0.18 0.14-0.23 0.41-0.12 0.61l1.92 3.32c0.12 0.22 0.37 0.29 0.59 0.22l2.39-0.96c0.5 0.38 1.03 0.7 1.62 0.94l0.36 2.54c0.05 0.24 0.24 0.41 0.48 0.41h3.84c0.24 0 0.44-0.17 0.47-0.41l0.36-2.54c0.59-0.24 1.13-0.56 1.62-0.94l2.39 0.96c0.22 0.08 0.47 0 0.59-0.22l1.92-3.32c0.12-0.22 0.07-0.47-0.12-0.61zm-7.14 2.66c-1.98 0-3.6-1.62-3.6-3.6s1.62-3.6 3.6-3.6 3.6 1.62 3.6 3.6-1.62 3.6-3.6 3.6z"/>
  <path d="m58.154 37.494c0-0.625-0.2214-1.1067-0.6641-1.4453-0.4362-0.3385-1.2272-0.6803-2.373-1.0254-1.1458-0.345-2.0573-0.7291-2.7344-1.1523-1.2956-0.8138-1.9433-1.875-1.9433-3.1836 0-1.1458 0.4654-2.0898 1.3964-2.832 0.9375-0.7422 2.1517-1.1133 3.6426-1.1133 0.9896 0 1.8718 0.1823 2.6465 0.5469 0.7747 0.3645 1.3835 0.8854 1.8262 1.5625 0.4427 0.6705 0.664 1.416 0.664 2.2363h-2.4609c0-0.7422-0.2344-1.3216-0.7031-1.7383-0.4623-0.4232-1.1263-0.6348-1.9922-0.6348-0.8073 0-1.4356 0.1726-1.8848 0.5176-0.4427 0.3451-0.664 0.8268-0.664 1.4453 0 0.5209 0.2408 0.9571 0.7226 1.3086 0.4818 0.3451 1.2761 0.6836 2.3828 1.0157 1.1068 0.3255 1.9955 0.6998 2.666 1.123 0.6706 0.4167 1.1622 0.8984 1.4746 1.4453 0.3126 0.5404 0.4688 1.1751 0.4688 1.9043 0 1.1849-0.4557 2.1289-1.3672 2.832-0.9049 0.6967-2.1354 1.045-3.6914 1.045-1.0286 0-1.9759-0.1888-2.8418-0.5664-0.8594-0.3842-1.5299-0.9115-2.0117-1.5821-0.4753-0.6705-0.7129-1.4518-0.7129-2.3437h2.4707c0 0.8073 0.2669 1.4323 0.8008 1.875 0.5338 0.4427 1.2988 0.664 2.2949 0.664 0.8594 0 1.5039-0.1725 1.9336-0.5175 0.4362-0.3516 0.6543-0.8138 0.6543-1.3868z"/>
  <path d="m66.46 37.758 2.1484-7.168h2.5293l-4.1992 12.168c-0.6445 1.7774-1.7383 2.666-3.2813 2.666-0.345 0-0.7259-0.0586-1.1425-0.1758v-1.8359l0.4492 0.0293c0.5989 0 1.0481-0.1107 1.3476-0.332 0.306-0.2149 0.5469-0.5795 0.7227-1.0938l0.3418-0.9082-3.711-10.518h2.5586z"/>
  <path d="m78.632 38.285c0-0.4232-0.1758-0.7455-0.5273-0.9668-0.3451-0.2214-0.9212-0.4167-1.7285-0.586-0.8073-0.1692-1.4812-0.3841-2.0215-0.6445-1.1849-0.5729-1.7774-1.403-1.7774-2.4902 0-0.9115 0.3841-1.6732 1.1524-2.2852 0.7682-0.612 1.7448-0.918 2.9297-0.918 1.263 0 2.2819 0.3125 3.0566 0.9375 0.7813 0.625 1.1719 1.4356 1.1719 2.4317h-2.3731c0-0.4558-0.1692-0.8334-0.5078-1.1328-0.3385-0.306-0.7877-0.459-1.3476-0.459-0.5209 0-0.9473 0.1204-1.2793 0.3613-0.3256 0.2409-0.4883 0.5632-0.4883 0.9668 0 0.3646 0.153 0.6478 0.459 0.8496s0.9245 0.4069 1.8554 0.6152c0.931 0.2019 1.6602 0.446 2.1875 0.7325 0.5339 0.2799 0.9278 0.6185 1.1817 1.0156 0.2604 0.3971 0.3906 0.8789 0.3906 1.4453 0 0.9505-0.3939 1.722-1.1816 2.3145-0.7878 0.5859-1.8197 0.8789-3.0957 0.8789-0.8659 0-1.6374-0.1563-2.3145-0.4688s-1.2044-0.7422-1.582-1.289c-0.3776-0.5469-0.5664-1.1361-0.5664-1.7676h2.3047c0.0325 0.5599 0.2441 0.9928 0.6347 1.2988 0.3906 0.2995 0.9082 0.4492 1.5528 0.4492 0.625 0 1.1002-0.1172 1.4257-0.3515 0.3256-0.2409 0.4883-0.5534 0.4883-0.9375z"/>
  <path d="m86.215 28.022v2.5683h1.865v1.7579h-1.865v5.8984c0 0.4036 0.078 0.6966 0.235 0.8789 0.162 0.1758 0.449 0.2637 0.859 0.2637 0.273 0 0.55-0.0326 0.83-0.0977v1.836c-0.54 0.1497-1.061 0.2246-1.562 0.2246-1.8234 0-2.7348-1.0059-2.7348-3.0176v-5.9863h-1.7383v-1.7579h1.7383v-2.5683z"/>
  <path d="m94.755 41.352c-1.504 0-2.725-0.472-3.662-1.4161-0.931-0.9505-1.397-2.2135-1.397-3.789v-0.293c0-1.0547 0.202-1.9954 0.606-2.8223 0.41-0.8333 0.983-1.4811 1.719-1.9433 0.735-0.4622 1.556-0.6934 2.461-0.6934 1.438 0 2.548 0.459 3.33 1.377 0.787 0.918 1.181 2.2168 1.181 3.8965v0.957h-6.904c0.072 0.8724 0.361 1.5625 0.869 2.0703 0.515 0.5078 1.159 0.7617 1.934 0.7617 1.087 0 1.972-0.4394 2.656-1.3183l1.279 1.2207c-0.423 0.6315-0.989 1.123-1.699 1.4746-0.703 0.345-1.494 0.5176-2.373 0.5176zm-0.283-9.0528c-0.651 0-1.179 0.2279-1.582 0.6836-0.397 0.4558-0.651 1.0905-0.762 1.9043h4.522v-0.1758c-0.052-0.7942-0.264-1.3932-0.635-1.7968-0.371-0.4102-0.886-0.6153-1.543-0.6153z"/>
  <path d="m103.28 30.59 0.069 1.1036c0.742-0.8659 1.758-1.2989 3.047-1.2989 1.412 0 2.379 0.5404 2.9 1.6211 0.768-1.0807 1.849-1.6211 3.242-1.6211 1.166 0 2.031 0.3223 2.598 0.9668 0.573 0.6446 0.866 1.5951 0.879 2.8516v6.9433h-2.373v-6.875c0-0.6705-0.147-1.1621-0.44-1.4746s-0.778-0.4687-1.455-0.4687c-0.54 0-0.983 0.1465-1.328 0.4394-0.338 0.2865-0.576 0.6641-0.713 1.1329l0.01 7.246h-2.373v-6.9531c-0.033-1.2435-0.667-1.8652-1.904-1.8652-0.951 0-1.625 0.3874-2.022 1.1621v7.6562h-2.373v-10.566z"/>
  <path d="m131.49 37.494c0-0.625-0.221-1.1067-0.664-1.4453-0.436-0.3385-1.227-0.6803-2.373-1.0254-1.146-0.345-2.058-0.7291-2.735-1.1523-1.295-0.8138-1.943-1.875-1.943-3.1836 0-1.1458 0.466-2.0898 1.397-2.832 0.937-0.7422 2.151-1.1133 3.642-1.1133 0.99 0 1.872 0.1823 2.647 0.5469 0.774 0.3645 1.383 0.8854 1.826 1.5625 0.442 0.6705 0.664 1.416 0.664 2.2363h-2.461c0-0.7422-0.234-1.3216-0.703-1.7383-0.462-0.4232-1.127-0.6348-1.992-0.6348-0.808 0-1.436 0.1726-1.885 0.5176-0.443 0.3451-0.664 0.8268-0.664 1.4453 0 0.5209 0.241 0.9571 0.722 1.3086 0.482 0.3451 1.276 0.6836 2.383 1.0157 1.107 0.3255 1.996 0.6998 2.666 1.123 0.671 0.4167 1.162 0.8984 1.475 1.4453 0.312 0.5404 0.469 1.1751 0.469 1.9043 0 1.1849-0.456 2.1289-1.368 2.832-0.905 0.6967-2.135 1.045-3.691 1.045-1.029 0-1.976-0.1888-2.842-0.5664-0.859-0.3842-1.53-0.9115-2.012-1.5821-0.475-0.6705-0.712-1.4518-0.712-2.3437h2.47c0 0.8073 0.267 1.4323 0.801 1.875s1.299 0.664 2.295 0.664c0.859 0 1.504-0.1725 1.934-0.5175 0.436-0.3516 0.654-0.8138 0.654-1.3868z"/>
  <path d="m140.75 41.352c-1.504 0-2.724-0.472-3.662-1.4161-0.931-0.9505-1.396-2.2135-1.396-3.789v-0.293c0-1.0547 0.202-1.9954 0.605-2.8223 0.41-0.8333 0.983-1.4811 1.719-1.9433s1.556-0.6934 2.461-0.6934c1.439 0 2.549 0.459 3.33 1.377 0.788 0.918 1.182 2.2168 1.182 3.8965v0.957h-6.905c0.072 0.8724 0.362 1.5625 0.87 2.0703 0.514 0.5078 1.158 0.7617 1.933 0.7617 1.087 0 1.973-0.4394 2.656-1.3183l1.28 1.2207c-0.424 0.6315-0.99 1.123-1.7 1.4746-0.703 0.345-1.494 0.5176-2.373 0.5176zm-0.283-9.0528c-0.651 0-1.178 0.2279-1.582 0.6836-0.397 0.4558-0.651 1.0905-0.762 1.9043h4.522v-0.1758c-0.052-0.7942-0.264-1.3932-0.635-1.7968-0.371-0.4102-0.885-0.6153-1.543-0.6153z"/>
  <path d="m150.01 28.022v2.5683h1.865v1.7579h-1.865v5.8984c0 0.4036 0.078 0.6966 0.234 0.8789 0.163 0.1758 0.449 0.2637 0.86 0.2637 0.273 0 0.55-0.0326 0.83-0.0977v1.836c-0.541 0.1497-1.061 0.2246-1.563 0.2246-1.823 0-2.734-1.0059-2.734-3.0176v-5.9863h-1.738v-1.7579h1.738v-2.5683z"/>
  <path d="m156.87 28.022v2.5683h1.865v1.7579h-1.865v5.8984c0 0.4036 0.078 0.6966 0.234 0.8789 0.163 0.1758 0.45 0.2637 0.86 0.2637 0.273 0 0.55-0.0326 0.83-0.0977v1.836c-0.54 0.1497-1.061 0.2246-1.563 0.2246-1.823 0-2.734-1.0059-2.734-3.0176v-5.9863h-1.738v-1.7579h1.738v-2.5683z"/>
  <path d="m163.28 41.156h-2.373v-10.566h2.373zm-2.52-13.31c0-0.3646 0.114-0.6673 0.342-0.9082 0.235-0.2409 0.567-0.3613 0.996-0.3613 0.43 0 0.762 0.1204 0.996 0.3613 0.235 0.2409 0.352 0.5436 0.352 0.9082 0 0.3581-0.117 0.6576-0.352 0.8984-0.234 0.2344-0.566 0.3516-0.996 0.3516-0.429 0-0.761-0.1172-0.996-0.3516-0.228-0.2408-0.342-0.5403-0.342-0.8984z"/>
  <path d="m168.28 30.59 0.068 1.2207c0.782-0.944 1.807-1.416 3.076-1.416 2.201 0 3.321 1.2598 3.36 3.7793v6.9824h-2.373v-6.8457c0-0.6705-0.147-1.1653-0.44-1.4843-0.286-0.3255-0.758-0.4883-1.416-0.4883-0.957 0-1.67 0.4329-2.138 1.2988v7.5195h-2.373v-10.566z"/>
  <path d="m177 35.795c0-1.6406 0.384-2.9492 1.152-3.9258 0.775-0.983 1.8-1.4746 3.076-1.4746 1.204 0 2.152 0.42 2.842 1.2598l0.107-1.0645h2.139v10.244c0 1.3867-0.433 2.4805-1.299 3.2812-0.859 0.8008-2.021 1.2012-3.486 1.2012-0.775 0-1.533-0.1628-2.276-0.4883-0.735-0.319-1.295-0.7389-1.679-1.2597l1.123-1.4258c0.729 0.8659 1.627 1.2988 2.695 1.2988 0.788 0 1.41-0.2148 1.865-0.6445 0.456-0.4232 0.684-1.0482 0.684-1.875v-0.7129c-0.684 0.7617-1.595 1.1426-2.734 1.1426-1.237 0-2.25-0.4916-3.038-1.4746-0.781-0.9831-1.171-2.3438-1.171-4.0821zm2.363 0.2051c0 1.0612 0.215 1.8978 0.644 2.5098 0.437 0.6054 1.039 0.9082 1.807 0.9082 0.957 0 1.667-0.4102 2.129-1.2305v-4.6484c-0.449-0.8008-1.152-1.2012-2.109-1.2012-0.782 0-1.39 0.3092-1.827 0.9277-0.429 0.6185-0.644 1.53-0.644 2.7344z"/>
  <path d="m194.88 38.285c0-0.4232-0.176-0.7455-0.527-0.9668-0.345-0.2214-0.921-0.4167-1.729-0.586-0.807-0.1692-1.481-0.3841-2.021-0.6445-1.185-0.5729-1.778-1.403-1.778-2.4902 0-0.9115 0.385-1.6732 1.153-2.2852s1.745-0.918 2.929-0.918c1.263 0 2.282 0.3125 3.057 0.9375 0.781 0.625 1.172 1.4356 1.172 2.4317h-2.373c0-0.4558-0.169-0.8334-0.508-1.1328-0.338-0.306-0.788-0.459-1.348-0.459-0.52 0-0.947 0.1204-1.279 0.3613-0.325 0.2409-0.488 0.5632-0.488 0.9668 0 0.3646 0.153 0.6478 0.459 0.8496s0.924 0.4069 1.855 0.6152c0.931 0.2019 1.66 0.446 2.188 0.7325 0.534 0.2799 0.928 0.6185 1.181 1.0156 0.261 0.3971 0.391 0.8789 0.391 1.4453 0 0.9505-0.394 1.722-1.182 2.3145-0.787 0.5859-1.819 0.8789-3.095 0.8789-0.866 0-1.638-0.1563-2.315-0.4688s-1.204-0.7422-1.582-1.289c-0.377-0.5469-0.566-1.1361-0.566-1.7676h2.305c0.032 0.5599 0.244 0.9928 0.634 1.2988 0.391 0.2995 0.908 0.4492 1.553 0.4492 0.625 0 1.1-0.1172 1.426-0.3515 0.325-0.2409 0.488-0.5534 0.488-0.9375z"/>
 </g>
 <path d="m223.25 35.976-6.035-2.2168v-2.334l8.437 3.6328v1.8848l-8.437 3.6328v-2.334z" fill="#fff"/>
 <rect x="-.88613" y="72.614" width="626" height="678.99" fill="#fff"/>
 <path d="m51 501.99h-14c-1.11 0-2 0.9-2 2v14c0 1.1 0.89 2 2 2h14c1.11 0 2-0.9 2-2v-14c0-1.1-0.89-2-2-2zm-9 14-5-5 1.41-1.41 3.59 3.58 7.59-7.59 1.41 1.42-9 9z" fill="#F84E1D"/>
 <g transform="translate(-70.506 -.29313)" fill="#000" stroke-width=".35873px" aria-label="Enable self registration from mobile application">
  <path d="m143.01 515.55v-10.201h6.4109v1.107h-5.0587v3.279h4.4141v1.1h-4.4141v3.6154h5.1288v1.1z"/>
  <path d="m154.12 508.92q-0.62358 0-1.1 0.33631t-0.7497 0.87581v5.416h-1.2962v-7.581h1.2261l0.042 0.94588q0.8618-1.086 2.2631-1.086 1.114 0 1.7656 0.62358 0.65861 0.62358 0.66562 2.0949v5.0026h-1.3032v-4.9816q0-0.88982-0.39236-1.2682-0.38536-0.37835-1.121-0.37835z"/>
  <path d="m163.57 515.55q-0.12612-0.27325-0.18217-0.79874-0.36434 0.38536-0.91085 0.66562-0.5465 0.27325-1.2472 0.27325-1.1631 0-1.8637-0.6516-0.70065-0.65161-0.70065-1.5975 0-1.2191 0.92486-1.8497 0.92485-0.63759 2.4873-0.63759h1.2822v-0.60256q0-0.67262-0.40638-1.072-0.39937-0.40638-1.1911-0.40638-0.73568 0-1.1911 0.36434-0.44842 0.35733-0.44842 0.83377h-1.2962q0-0.81275 0.81976-1.5274 0.81976-0.71467 2.193-0.71467 1.2331 0 2.0249 0.63059 0.79173 0.63058 0.79173 1.9058v3.4052q0 1.051 0.26625 1.6676v0.1121zm-2.151-0.99492q0.70065 0 1.2121-0.35033 0.51848-0.35032 0.72867-0.77772v-1.5624h-1.2051q-2.186 0.042-2.186 1.4013 0 0.5395 0.36434 0.91785 0.36433 0.37135 1.086 0.37135z"/>
  <path d="m173.12 511.84q0 1.6605-0.77071 2.7536-0.77072 1.093-2.179 1.093-1.4363 0-2.214-1.0159l-0.0701 0.87581h-1.1911v-10.762h1.3032v4.0007q0.77072-0.95989 2.158-0.95989 1.4293 0 2.193 1.065 0.77071 1.065 0.77071 2.8026zm-3.286-2.9217q-0.70766 0-1.1491 0.34332-0.44141 0.33631-0.68664 0.83377v3.3001q0.25224 0.50447 0.70065 0.84778 0.44842 0.34332 1.1491 0.34332 1.051 0 1.5064-0.80575 0.46243-0.81275 0.46243-1.9408v-0.14714q0-1.128-0.44141-1.9478-0.4344-0.82676-1.5414-0.82676z"/>
  <path d="m176.17 504.78v10.762h-1.3032v-10.762z"/>
  <path d="m184.24 514.22q-0.37135 0.56052-1.051 1.016-0.67963 0.44841-1.8007 0.44841-1.5835 0-2.5364-1.03-0.94588-1.03-0.94588-2.6344v-0.29427q0-1.2402 0.46944-2.109 0.47644-0.87581 1.2331-1.3312 0.7567-0.46243 1.6115-0.46243 1.6255 0 2.3682 1.065 0.7497 1.058 0.7497 2.6485v0.58154h-5.1288q0.028 1.044 0.61657 1.7796 0.59556 0.72867 1.6325 0.72867 0.68663 0 1.1631-0.28026 0.47645-0.28026 0.83378-0.74969zm-3.0198-5.3319q-0.77072 0-1.3032 0.56052-0.5325 0.56052-0.66562 1.6115h3.7905v-0.0981q-0.049-0.7567-0.4414-1.4153-0.38536-0.65861-1.3803-0.65861z"/>
  <path d="m193.83 513.53q0-0.41339-0.30829-0.74269-0.30128-0.33631-1.4013-0.56052-1.2682-0.25924-2.0179-0.7497-0.74969-0.49746-0.74969-1.4433 0-0.89683 0.76371-1.5554 0.77071-0.65861 2.0459-0.65861 1.3593 0 2.123 0.69365 0.76371 0.69364 0.76371 1.6746h-1.2962q0-0.46944-0.41339-0.88282-0.41338-0.42039-1.1771-0.42039-0.80574 0-1.1561 0.35033-0.35032 0.35032-0.35032 0.7637 0 0.41339 0.32229 0.67263 0.32931 0.25223 1.3873 0.49045 1.3943 0.31529 2.0739 0.82677 0.68664 0.51147 0.68664 1.4433 0 1.0019-0.80575 1.6255-0.79874 0.62358-2.123 0.62358-1.5064 0-2.3051-0.77071-0.79874-0.77072-0.79874-1.7096h1.3032q0.042 0.80575 0.61657 1.114 0.58154 0.30128 1.1841 0.30128 0.79174 0 1.2121-0.30828 0.42039-0.30829 0.42039-0.77772z"/>
  <path d="m202.82 514.22q-0.37134 0.56052-1.051 1.016-0.67963 0.44841-1.8007 0.44841-1.5835 0-2.5364-1.03-0.94588-1.03-0.94588-2.6344v-0.29427q0-1.2402 0.46943-2.109 0.47645-0.87581 1.2332-1.3312 0.7567-0.46243 1.6115-0.46243 1.6255 0 2.3682 1.065 0.74969 1.058 0.74969 2.6485v0.58154h-5.1288q0.028 1.044 0.61657 1.7796 0.59555 0.72867 1.6325 0.72867 0.68664 0 1.1631-0.28026t0.83377-0.74969zm-3.0198-5.3319q-0.77071 0-1.3032 0.56052-0.53249 0.56052-0.66561 1.6115h3.7905v-0.0981q-0.049-0.7567-0.44141-1.4153-0.38536-0.65861-1.3803-0.65861z"/>
  <path d="m205.84 504.78v10.762h-1.3032v-10.762z"/>
  <path d="m211.46 508.96h-1.6115v6.5861h-1.2962v-6.5861h-1.1981v-0.99493h1.1981v-0.84778q0.014-1.2051 0.67262-1.8427 0.66562-0.63759 1.8147-0.63759 0.42739 0 0.89683 0.1121l-0.0701 1.058q-0.29427-0.0631-0.70065-0.0631-1.2962 0-1.3172 1.3803v0.84077h1.6115z"/>
  <path d="m219.49 509.07q-1.2682 0-1.7306 1.093v5.381h-1.2962v-7.581h1.2612l0.028 0.86881q0.62357-1.0089 1.8007-1.0089 0.36434 0 0.57454 0.0981l-7e-3 1.2051q-0.28727-0.0561-0.63058-0.0561z"/>
  <path d="m227.19 514.22q-0.37135 0.56052-1.051 1.016-0.67963 0.44841-1.8007 0.44841-1.5835 0-2.5364-1.03-0.94588-1.03-0.94588-2.6344v-0.29427q0-1.2402 0.46944-2.109 0.47644-0.87581 1.2331-1.3312 0.7567-0.46243 1.6115-0.46243 1.6255 0 2.3682 1.065 0.7497 1.058 0.7497 2.6485v0.58154h-5.1288q0.028 1.044 0.61657 1.7796 0.59556 0.72867 1.6325 0.72867 0.68663 0 1.1631-0.28026 0.47645-0.28026 0.83378-0.74969zm-3.0198-5.3319q-0.77072 0-1.3032 0.56052-0.5325 0.56052-0.66562 1.6115h3.7905v-0.0981q-0.049-0.7567-0.4414-1.4153-0.38536-0.65861-1.3803-0.65861z"/>
  <path d="m231.69 518.54q-0.58855 0-1.4433-0.28726-0.85479-0.28727-1.3663-1.03l0.67963-0.77071q0.84077 1.023 2.0319 1.023 0.91785 0 1.4644-0.51848 0.5465-0.51148 0.5465-1.5064v-0.66562q-0.77071 0.90384-2.123 0.90384-1.3663 0-2.172-1.093-0.80575-1.093-0.80575-2.7536v-0.14714q0-1.7376 0.79875-2.8026 0.80574-1.065 2.193-1.065 1.3943 0 2.165 0.98091l0.0631-0.84078h1.1771v7.4199q0 1.5064-0.89683 2.3262-0.89683 0.82676-2.3121 0.82676zm-1.8918-6.6982q0 1.128 0.46943 1.9408 0.47644 0.80575 1.5274 0.80575 1.2331 0 1.8077-1.121v-3.4542q-0.24522-0.46943-0.67963-0.77772-0.4344-0.31529-1.114-0.31529-1.058 0-1.5344 0.82676-0.47644 0.81976-0.47644 1.9478z"/>
  <path d="m236.87 505.95q0-0.31529 0.18918-0.53249 0.19618-0.2172 0.57453-0.2172 0.37134 0 0.56753 0.2172 0.20318 0.2172 0.20318 0.53249 0 0.30128-0.20318 0.51848-0.19619 0.2102-0.56753 0.2102-0.37835 0-0.57453-0.2102-0.18918-0.2172-0.18918-0.51848zm1.4013 2.0109v7.581h-1.3032v-7.581z"/>
  <path d="m244.77 513.53q0-0.41339-0.30828-0.74269-0.30128-0.33631-1.4013-0.56052-1.2682-0.25924-2.0179-0.7497-0.7497-0.49746-0.7497-1.4433 0-0.89683 0.76371-1.5554 0.77071-0.65861 2.0459-0.65861 1.3593 0 2.123 0.69365 0.76371 0.69364 0.76371 1.6746h-1.2962q0-0.46944-0.41338-0.88282-0.41339-0.42039-1.1771-0.42039-0.80575 0-1.1561 0.35033-0.35032 0.35032-0.35032 0.7637 0 0.41339 0.3223 0.67263 0.3293 0.25223 1.3873 0.49045 1.3943 0.31529 2.0739 0.82677 0.68663 0.51147 0.68663 1.4433 0 1.0019-0.80574 1.6255-0.79874 0.62358-2.123 0.62358-1.5064 0-2.3051-0.77071-0.79874-0.77072-0.79874-1.7096h1.3032q0.042 0.80575 0.61657 1.114 0.58154 0.30128 1.1841 0.30128 0.79173 0 1.2121-0.30828 0.42039-0.30829 0.42039-0.77772z"/>
  <path d="m250.97 515.55q-0.44141 0.14013-1.0019 0.14013-0.72166 0-1.2331-0.44141-0.51147-0.44141-0.51147-1.5835v-4.7014h-1.3873v-0.99493h1.3873v-1.8427h1.2962v1.8427h1.4153v0.99493h-1.4153v4.7084q0 0.58154 0.25223 0.74269 0.25224 0.16115 0.58154 0.16115 0.24523 0 0.60957-0.0841z"/>
  <path d="m255.48 509.07q-1.2682 0-1.7306 1.093v5.381h-1.2962v-7.581h1.2612l0.028 0.86881q0.62358-1.0089 1.8007-1.0089 0.36434 0 0.57454 0.0981l-7e-3 1.2051q-0.28727-0.0561-0.63058-0.0561z"/>
  <path d="m261.71 515.55q-0.12611-0.27325-0.18217-0.79874-0.36433 0.38536-0.91084 0.66562-0.54651 0.27325-1.2472 0.27325-1.1631 0-1.8637-0.6516-0.70065-0.65161-0.70065-1.5975 0-1.2191 0.92485-1.8497 0.92486-0.63759 2.4873-0.63759h1.2822v-0.60256q0-0.67262-0.40638-1.072-0.39937-0.40638-1.1911-0.40638-0.73568 0-1.1911 0.36434-0.44841 0.35733-0.44841 0.83377h-1.2962q0-0.81275 0.81976-1.5274 0.81976-0.71467 2.193-0.71467 1.2331 0 2.0249 0.63059 0.79173 0.63058 0.79173 1.9058v3.4052q0 1.051 0.26625 1.6676v0.1121zm-2.151-0.99492q0.70065 0 1.2121-0.35033 0.51848-0.35032 0.72868-0.77772v-1.5624h-1.2051q-2.186 0.042-2.186 1.4013 0 0.5395 0.36434 0.91785 0.36434 0.37135 1.086 0.37135z"/>
  <path d="m268.05 515.55q-0.44141 0.14013-1.0019 0.14013-0.72167 0-1.2332-0.44141-0.51147-0.44141-0.51147-1.5835v-4.7014h-1.3873v-0.99493h1.3873v-1.8427h1.2962v1.8427h1.4153v0.99493h-1.4153v4.7084q0 0.58154 0.25224 0.74269 0.25223 0.16115 0.58153 0.16115 0.24523 0 0.60957-0.0841z"/>
  <path d="m269.54 505.95q0-0.31529 0.18917-0.53249 0.19619-0.2172 0.57454-0.2172 0.37134 0 0.56752 0.2172 0.20319 0.2172 0.20319 0.53249 0 0.30128-0.20319 0.51848-0.19618 0.2102-0.56752 0.2102-0.37835 0-0.57454-0.2102-0.18917-0.2172-0.18917-0.51848zm1.4013 2.0109v7.581h-1.3032v-7.581z"/>
  <path d="m272.68 511.68q0-1.6465 0.92486-2.7466 0.92485-1.107 2.5153-1.107 1.5905 0 2.5153 1.086 0.92486 1.079 0.94588 2.6975v0.23122q0 1.6465-0.93187 2.7465-0.92485 1.1-2.5153 1.1-1.5975 0-2.5293-1.1-0.92486-1.1-0.92486-2.7465zm1.2962 0.16115q0 1.128 0.53249 1.9548 0.5395 0.82676 1.6255 0.82676 1.058 0 1.5975-0.81275 0.5395-0.81976 0.54651-1.9478v-0.18217q0-1.114-0.5395-1.9478-0.5395-0.84078-1.6185-0.84078-1.072 0-1.6115 0.84078-0.53249 0.83377-0.53249 1.9478z"/>
  <path d="m284.35 508.92q-0.62358 0-1.1 0.33631t-0.74969 0.87581v5.416h-1.2962v-7.581h1.2261l0.042 0.94588q0.8618-1.086 2.2631-1.086 1.114 0 1.7656 0.62358 0.65861 0.62358 0.66561 2.0949v5.0026h-1.3032v-4.9816q0-0.88982-0.39236-1.2682-0.38536-0.37835-1.121-0.37835z"/>
  <path d="m296.24 508.96h-1.6115v6.5861h-1.2962v-6.5861h-1.1981v-0.99493h1.1981v-0.84778q0.014-1.2051 0.67262-1.8427 0.66562-0.63759 1.8147-0.63759 0.42739 0 0.89683 0.1121l-0.0701 1.058q-0.29427-0.0631-0.70065-0.0631-1.2962 0-1.3172 1.3803v0.84077h1.6115z"/>
  <path d="m300.71 509.07q-1.2682 0-1.7306 1.093v5.381h-1.2962v-7.581h1.2612l0.028 0.86881q0.62357-1.0089 1.8007-1.0089 0.36434 0 0.57454 0.0981l-7e-3 1.2051q-0.28727-0.0561-0.63058-0.0561z"/>
  <path d="m302.06 511.68q0-1.6465 0.92486-2.7466 0.92486-1.107 2.5153-1.107 1.5905 0 2.5153 1.086 0.92486 1.079 0.94588 2.6975v0.23122q0 1.6465-0.93186 2.7465-0.92486 1.1-2.5153 1.1-1.5975 0-2.5294-1.1-0.92486-1.1-0.92486-2.7465zm1.2962 0.16115q0 1.128 0.53249 1.9548 0.5395 0.82676 1.6255 0.82676 1.058 0 1.5975-0.81275 0.5395-0.81976 0.5465-1.9478v-0.18217q0-1.114-0.5395-1.9478-0.5395-0.84078-1.6185-0.84078-1.072 0-1.6115 0.84078-0.53249 0.83377-0.53249 1.9478z"/>
  <path d="m313.62 508.92q-1.2752 0-1.7446 1.072v5.5562h-1.3032v-7.581h1.2331l0.035 0.82677q0.81976-0.9669 2.2421-0.9669 0.72868 0 1.2962 0.29428 0.57454 0.28726 0.87581 0.92485 0.37836-0.5465 0.98091-0.88281 0.60957-0.33632 1.4293-0.33632 1.2191 0 1.8777 0.65161 0.66562 0.6516 0.66562 2.0879v4.9816h-1.3032v-4.9956q0-0.95288-0.44141-1.2892-0.4344-0.34332-1.1771-0.34332-0.78473 0-1.2331 0.46943-0.44842 0.46243-0.51849 1.128v5.0307h-1.2962v-4.9886q0-0.88983-0.44141-1.2612-0.44141-0.37835-1.1771-0.37835z"/>
  <path d="m329.76 508.92q-1.2752 0-1.7446 1.072v5.5562h-1.3032v-7.581h1.2331l0.035 0.82677q0.81976-0.9669 2.2421-0.9669 0.72868 0 1.2962 0.29428 0.57454 0.28726 0.87581 0.92485 0.37836-0.5465 0.98091-0.88281 0.60957-0.33632 1.4293-0.33632 1.2191 0 1.8777 0.65161 0.66562 0.6516 0.66562 2.0879v4.9816h-1.3032v-4.9956q0-0.95288-0.44141-1.2892-0.4344-0.34332-1.1771-0.34332-0.78473 0-1.2332 0.46943-0.44841 0.46243-0.51848 1.128v5.0307h-1.2962v-4.9886q0-0.88983-0.44141-1.2612-0.44141-0.37835-1.1771-0.37835z"/>
  <path d="m338.97 511.68q0-1.6465 0.92485-2.7466 0.92486-1.107 2.5153-1.107 1.5905 0 2.5153 1.086 0.92485 1.079 0.94587 2.6975v0.23122q0 1.6465-0.93186 2.7465-0.92486 1.1-2.5153 1.1-1.5975 0-2.5294-1.1-0.92485-1.1-0.92485-2.7465zm1.2962 0.16115q0 1.128 0.53249 1.9548 0.5395 0.82676 1.6255 0.82676 1.058 0 1.5975-0.81275 0.5395-0.81976 0.54651-1.9478v-0.18217q0-1.114-0.5395-1.9478-0.5395-0.84078-1.6185-0.84078-1.072 0-1.6115 0.84078-0.53249 0.83377-0.53249 1.9478z"/>
  <path d="m353.91 511.84q0 1.6605-0.77072 2.7536-0.77071 1.093-2.179 1.093-1.4363 0-2.214-1.0159l-0.0701 0.87581h-1.1911v-10.762h1.3032v4.0007q0.77071-0.95989 2.158-0.95989 1.4293 0 2.193 1.065 0.77072 1.065 0.77072 2.8026zm-3.286-2.9217q-0.70765 0-1.1491 0.34332-0.44141 0.33631-0.68664 0.83377v3.3001q0.25223 0.50447 0.70065 0.84778 0.44841 0.34332 1.1491 0.34332 1.051 0 1.5064-0.80575 0.46243-0.81275 0.46243-1.9408v-0.14714q0-1.128-0.44141-1.9478-0.4344-0.82676-1.5414-0.82676z"/>
  <path d="m355.56 505.95q0-0.31529 0.18917-0.53249 0.19619-0.2172 0.57454-0.2172 0.37134 0 0.56752 0.2172 0.20319 0.2172 0.20319 0.53249 0 0.30128-0.20319 0.51848-0.19618 0.2102-0.56752 0.2102-0.37835 0-0.57454-0.2102-0.18917-0.2172-0.18917-0.51848zm1.4013 2.0109v7.581h-1.3032v-7.581z"/>
  <path d="m360.45 504.78v10.762h-1.3032v-10.762z"/>
  <path d="m368.53 514.22q-0.37134 0.56052-1.051 1.016-0.67963 0.44841-1.8007 0.44841-1.5835 0-2.5364-1.03-0.94588-1.03-0.94588-2.6344v-0.29427q0-1.2402 0.46944-2.109 0.47644-0.87581 1.2331-1.3312 0.7567-0.46243 1.6115-0.46243 1.6255 0 2.3682 1.065 0.74969 1.058 0.74969 2.6485v0.58154h-5.1288q0.028 1.044 0.61657 1.7796 0.59555 0.72867 1.6325 0.72867 0.68664 0 1.1631-0.28026t0.83377-0.74969zm-3.0198-5.3319q-0.77071 0-1.3032 0.56052-0.53249 0.56052-0.66561 1.6115h3.7905v-0.0981q-0.049-0.7567-0.44141-1.4153-0.38535-0.65861-1.3803-0.65861z"/>
  <path d="m378.38 515.55q-0.12612-0.27325-0.18217-0.79874-0.36434 0.38536-0.91084 0.66562-0.54651 0.27325-1.2472 0.27325-1.1631 0-1.8637-0.6516-0.70064-0.65161-0.70064-1.5975 0-1.2191 0.92485-1.8497 0.92486-0.63759 2.4873-0.63759h1.2822v-0.60256q0-0.67262-0.40638-1.072-0.39937-0.40638-1.1911-0.40638-0.73569 0-1.1911 0.36434-0.44841 0.35733-0.44841 0.83377h-1.2962q0-0.81275 0.81976-1.5274 0.81976-0.71467 2.193-0.71467 1.2331 0 2.0249 0.63059 0.79174 0.63058 0.79174 1.9058v3.4052q0 1.051 0.26624 1.6676v0.1121zm-2.151-0.99492q0.70065 0 1.2121-0.35033 0.51848-0.35032 0.72868-0.77772v-1.5624h-1.2051q-2.186 0.042-2.186 1.4013 0 0.5395 0.36434 0.91785 0.36434 0.37135 1.086 0.37135z"/>
  <path d="m384.97 515.69q-1.3663 0-2.165-0.87581v3.6504h-1.3032v-10.496h1.1911l0.0631 0.83378q0.79874-0.97391 2.193-0.97391 1.4363 0 2.2 1.065t0.76371 2.8026v0.14714q0 1.6605-0.77072 2.7536-0.76371 1.093-2.172 1.093zm-0.39937-6.7683q-1.1771 0-1.7656 1.044v3.6294q0.59555 1.03 1.7796 1.03 1.051 0 1.5344-0.82676 0.49046-0.82677 0.49046-1.9548v-0.14714q0-1.128-0.49046-1.9478-0.48345-0.82676-1.5484-0.82676z"/>
  <path d="m393.02 515.69q-1.3663 0-2.165-0.87581v3.6504h-1.3032v-10.496h1.1911l0.0631 0.83378q0.79874-0.97391 2.193-0.97391 1.4363 0 2.2 1.065t0.76371 2.8026v0.14714q0 1.6605-0.77071 2.7536-0.76371 1.093-2.172 1.093zm-0.39937-6.7683q-1.1771 0-1.7656 1.044v3.6294q0.59555 1.03 1.7796 1.03 1.051 0 1.5344-0.82676 0.49045-0.82677 0.49045-1.9548v-0.14714q0-1.128-0.49045-1.9478-0.48345-0.82676-1.5484-0.82676z"/>
  <path d="m399.03 504.78v10.762h-1.3032v-10.762z"/>
  <path d="m401.12 505.95q0-0.31529 0.18918-0.53249 0.19618-0.2172 0.57453-0.2172 0.37134 0 0.56753 0.2172 0.20319 0.2172 0.20319 0.53249 0 0.30128-0.20319 0.51848-0.19619 0.2102-0.56753 0.2102-0.37835 0-0.57453-0.2102-0.18918-0.2172-0.18918-0.51848zm1.4013 2.0109v7.581h-1.3032v-7.581z"/>
  <path d="m407.63 514.62q0.69364 0 1.2121-0.41338 0.52549-0.41338 0.57453-1.058h1.2332q-0.0491 1.0159-0.93187 1.7796-0.88282 0.7567-2.0879 0.7567-1.7096 0-2.5434-1.128-0.82677-1.128-0.82677-2.6555v-0.29427q0-1.5274 0.82677-2.6555 0.83377-1.128 2.5434-1.128 1.3312 0 2.151 0.79174 0.81976 0.78473 0.86881 1.9548h-1.2332q-0.049-0.70065-0.53249-1.1911-0.47644-0.49046-1.2542-0.49046-0.79874 0-1.2542 0.40638-0.44841 0.40637-0.63759 1.03-0.18217 0.62358-0.18217 1.2822v0.29427q0 0.66562 0.18217 1.2892t0.63059 1.03q0.45542 0.39937 1.2612 0.39937z"/>
  <path d="m416.79 515.55q-0.12612-0.27325-0.18217-0.79874-0.36434 0.38536-0.91085 0.66562-0.5465 0.27325-1.2472 0.27325-1.1631 0-1.8637-0.6516-0.70065-0.65161-0.70065-1.5975 0-1.2191 0.92486-1.8497 0.92486-0.63759 2.4873-0.63759h1.2822v-0.60256q0-0.67262-0.40637-1.072-0.39937-0.40638-1.1911-0.40638-0.73568 0-1.1911 0.36434-0.44842 0.35733-0.44842 0.83377h-1.2962q0-0.81275 0.81976-1.5274 0.81976-0.71467 2.193-0.71467 1.2332 0 2.0249 0.63059 0.79173 0.63058 0.79173 1.9058v3.4052q0 1.051 0.26625 1.6676v0.1121zm-2.151-0.99492q0.70065 0 1.2121-0.35033 0.51848-0.35032 0.72867-0.77772v-1.5624h-1.2051q-2.186 0.042-2.186 1.4013 0 0.5395 0.36434 0.91785 0.36434 0.37135 1.086 0.37135z"/>
  <path d="m423.12 515.55q-0.44141 0.14013-1.0019 0.14013-0.72167 0-1.2331-0.44141t-0.51147-1.5835v-4.7014h-1.3873v-0.99493h1.3873v-1.8427h1.2962v1.8427h1.4153v0.99493h-1.4153v4.7084q0 0.58154 0.25223 0.74269t0.58154 0.16115q0.24523 0 0.60956-0.0841z"/>
  <path d="m424.62 505.95q0-0.31529 0.18917-0.53249 0.19619-0.2172 0.57454-0.2172 0.37134 0 0.56752 0.2172 0.20319 0.2172 0.20319 0.53249 0 0.30128-0.20319 0.51848-0.19618 0.2102-0.56752 0.2102-0.37835 0-0.57454-0.2102-0.18917-0.2172-0.18917-0.51848zm1.4013 2.0109v7.581h-1.3032v-7.581z"/>
  <path d="m427.75 511.68q0-1.6465 0.92486-2.7466 0.92486-1.107 2.5153-1.107t2.5153 1.086q0.92486 1.079 0.94588 2.6975v0.23122q0 1.6465-0.93187 2.7465-0.92485 1.1-2.5153 1.1-1.5975 0-2.5293-1.1-0.92486-1.1-0.92486-2.7465zm1.2962 0.16115q0 1.128 0.5325 1.9548 0.5395 0.82676 1.6255 0.82676 1.058 0 1.5975-0.81275 0.5395-0.81976 0.54651-1.9478v-0.18217q0-1.114-0.5395-1.9478-0.5395-0.84078-1.6185-0.84078-1.072 0-1.6115 0.84078-0.5325 0.83377-0.5325 1.9478z"/>
  <path d="m439.43 508.92q-0.62358 0-1.1 0.33631t-0.74969 0.87581v5.416h-1.2962v-7.581h1.2261l0.042 0.94588q0.8618-1.086 2.2631-1.086 1.114 0 1.7656 0.62358 0.65861 0.62358 0.66562 2.0949v5.0026h-1.3032v-4.9816q0-0.88982-0.39236-1.2682-0.38536-0.37835-1.121-0.37835z"/>
 </g>
 <g transform="translate(-117.08 -1.6235)" fill="#fff" stroke-width=".54701px" aria-label="Self Registration">
  <path d="m407.17 40.629q0-0.91881-0.61966-1.4851-0.60898-0.56624-2.8312-1.25-2.2116-0.69445-3.6004-1.7628-1.3782-1.0791-1.3782-2.9487 0-1.8804 1.5171-3.0876 1.5278-1.218 3.9958-1.218 2.6389 0 4.124 1.4103 1.4851 1.3996 1.4851 3.344h-2.6923q0-1.1432-0.71582-1.8697-0.71581-0.73718-2.2329-0.73718-1.421 0-2.1047 0.61966-0.67309 0.60898-0.67309 1.5278 0 0.87607 0.81197 1.453 0.81198 0.56624 2.4466 1.047 2.6389 0.76924 3.8996 1.9231 1.2714 1.1539 1.2714 3.0128 0 1.9658-1.5064 3.109-1.4957 1.1432-4.0278 1.1432-1.4957 0-2.8953-0.54488-1.3889-0.54488-2.297-1.6346-0.89744-1.0898-0.89744-2.7351h2.703q0 1.4744 0.97223 2.1261 0.98291 0.65171 2.4145 0.65171 1.4103 0 2.1154-0.57693 0.71582-0.57693 0.71582-1.5171z"/>
  <path d="m421.55 42.68q-0.55556 0.81197-1.6453 1.4957-1.0791 0.68377-2.8098 0.68377-2.5748 0-4.0492-1.6026t-1.4744-3.9851v-0.43804q0-2.7351 1.5064-4.3483 1.5171-1.6133 3.718-1.6133 2.5214 0 3.7287 1.6026 1.218 1.6026 1.218 4.1026v1.1004h-7.5535q0.10684 1.3355 0.89744 2.2222 0.80129 0.87607 2.1688 0.87607 1.7842 0 2.8953-1.4316zm-4.7543-7.7244q-1.0684 0-1.7201 0.74787-0.65171 0.74787-0.84402 2.0727h4.9359v-0.19231q-0.0534-1.015-0.56624-1.8163-0.51283-0.81197-1.8056-0.81197z"/>
  <path d="m426.5 28.236v16.41h-2.5962v-16.41z"/>
  <path d="m435.2 34.998h-2.3398v9.6475h-2.6068v-9.6475h-1.7628v-1.9124h1.7628v-1.1004q0-1.9338 1.0898-2.9487 1.0898-1.0256 2.9701-1.0256 0.71582 0 1.4637 0.19231l-0.0641 2.0299q-0.44872-0.08547-1.0043-0.08547-1.8269 0-1.8483 1.7949v1.1432h2.3398z"/>
  <path d="m451.64 44.646-3.1197-5.9936h-3.0235v5.9936h-2.6923v-15.556h5.4701q2.6816 0 4.1453 1.1966 1.4637 1.1966 1.4637 3.4936 0 1.5598-0.75856 2.6175-0.75855 1.0577-2.094 1.6133l3.4936 6.4958v0.13889zm-6.1432-13.387v5.2244h2.7778q1.453 0 2.1795-0.7265 0.73719-0.73718 0.73719-1.8483 0-1.1966-0.68377-1.9124-0.68376-0.7265-2.1902-0.73718z"/>
  <path d="m465.76 42.68q-0.55556 0.81197-1.6453 1.4957-1.0791 0.68377-2.8098 0.68377-2.5748 0-4.0492-1.6026t-1.4744-3.9851v-0.43804q0-2.7351 1.5064-4.3483 1.5171-1.6133 3.718-1.6133 2.5214 0 3.7287 1.6026 1.218 1.6026 1.218 4.1026v1.1004h-7.5535q0.10684 1.3355 0.89745 2.2222 0.80128 0.87607 2.1688 0.87607 1.7842 0 2.8953-1.4316zm-4.7543-7.7244q-1.0684 0-1.7201 0.74787-0.65171 0.74787-0.84402 2.0727h4.9359v-0.19231q-0.0534-1.015-0.56624-1.8163-0.51283-0.81197-1.8056-0.81197z"/>
  <path d="m472.45 49.197q-0.95086 0-2.2543-0.43804-1.3034-0.42735-2.0727-1.4744l1.2286-1.5492q1.218 1.421 2.9487 1.421 1.2928 0 2.0406-0.71582 0.75856-0.70513 0.75856-2.062v-0.77992q-1.1325 1.2607-2.9915 1.2607-2.1154 0-3.3547-1.6453-1.2393-1.656-1.2607-4.1346v-0.30983q0-2.6389 1.2393-4.2629 1.25-1.6346 3.3975-1.6346 1.9872 0 3.109 1.3568l0.10684-1.1432h2.3504v11.239q0 2.3398-1.4637 3.6005-1.453 1.2714-3.7821 1.2714zm-2.3611-10.203q0 1.5492 0.64103 2.6496 0.64103 1.0898 2.0406 1.0898 1.6026 0 2.3291-1.3675v-5.0535q-0.71582-1.3248-2.3077-1.3248-1.4103 0-2.062 1.1111-0.64103 1.1111-0.64103 2.671z"/>
  <path d="m480.36 30.073q0-0.5983 0.38462-0.98291 0.3953-0.3953 1.0898-0.3953t1.0791 0.3953q0.39531 0.38462 0.39531 0.98291t-0.39531 0.9936q-0.38461 0.38462-1.0791 0.38462t-1.0898-0.38462q-0.38462-0.3953-0.38462-0.9936zm2.7564 3.0128v11.56h-2.5962v-11.56z"/>
  <path d="m492.44 41.505q0-0.55556-0.4594-0.96155-0.44872-0.41667-1.9658-0.73718-1.8804-0.3953-3.0449-1.1752-1.1538-0.7906-1.1538-2.2543 0-1.421 1.1966-2.4573 1.1966-1.047 3.2586-1.047 2.1688 0 3.3975 1.0577 1.2393 1.0577 1.2393 2.6175h-2.5962q0-0.67308-0.51283-1.1966-0.51282-0.53419-1.5278-0.53419-0.98292 0-1.453 0.43804-0.47009 0.43804-0.47009 1.015 0 0.55556 0.47009 0.89744t1.9017 0.65171q2.0086 0.43804 3.1304 1.218 1.1325 0.76924 1.1325 2.3184 0 1.5385-1.2714 2.5214t-3.3975 0.98291q-2.3825 0-3.6325-1.218-1.25-1.218-1.25-2.6496h2.5214q0.0427 1.0684 0.77992 1.4957 0.74787 0.42735 1.6026 0.42735 1.0256 0 1.5598-0.3953 0.54487-0.3953 0.54487-1.015z"/>
  <path d="m502.63 44.603q-0.74787 0.25641-1.7094 0.25641-1.2927 0-2.1474-0.7265-0.84402-0.73718-0.84402-2.5214v-6.6133h-1.9124v-1.9124h1.9124v-2.8098h2.5855v2.8098h2.0406v1.9124h-2.0406v6.4637q0 0.77992 0.3312 1.015 0.34188 0.22436 0.87607 0.22436 0.44872 0 0.90813-0.10684z"/>
  <path d="m509.55 35.372q-1.8056 0-2.4145 1.3675v7.906h-2.5855v-11.56h2.4786l0.0641 1.3034q0.91881-1.5171 2.6069-1.5171 0.5235 0 0.91881 0.13889l-0.0214 2.4466q-0.53419-0.08547-1.047-0.08547z"/>
  <path d="m518.83 44.646q-0.19231-0.3953-0.29915-1.0898-1.2286 1.3034-3.0449 1.3034-1.7308 0-2.8312-0.9936-1.1004-0.9936-1.1004-2.468 0-1.8483 1.3782-2.8312 1.3782-0.98291 3.8782-0.98291h1.6346v-0.75855q0-0.90813-0.51282-1.4423-0.50214-0.54488-1.5171-0.54488-0.92949 0-1.485 0.4594-0.54488 0.4594-0.54488 1.1218h-2.5855q0-1.3675 1.2821-2.4573 1.2928-1.0898 3.4829-1.0898 1.9444 0 3.2052 0.9936 1.2714 0.9936 1.2714 2.9808v5.1282q0 1.5598 0.43804 2.4893v0.18162zm-2.8526-1.8697q0.89745 0 1.5492-0.42735 0.65172-0.43804 0.91881-0.96155v-2.1795h-1.5812q-2.7244 0.0641-2.7244 1.9338 0 0.69445 0.47009 1.1645 0.47009 0.47009 1.3675 0.47009z"/>
  <path d="m529.13 44.603q-0.74787 0.25641-1.7094 0.25641-1.2927 0-2.1474-0.7265-0.84402-0.73718-0.84402-2.5214v-6.6133h-1.9124v-1.9124h1.9124v-2.8098h2.5855v2.8098h2.0406v1.9124h-2.0406v6.4637q0 0.77992 0.3312 1.015 0.34188 0.22436 0.87607 0.22436 0.44872 0 0.90813-0.10684z"/>
  <path d="m531.06 30.073q0-0.5983 0.38461-0.98291 0.39531-0.3953 1.0898-0.3953t1.0791 0.3953q0.39531 0.38462 0.39531 0.98291t-0.39531 0.9936q-0.38461 0.38462-1.0791 0.38462t-1.0898-0.38462q-0.38461-0.3953-0.38461-0.9936zm2.7564 3.0128v11.56h-2.5962v-11.56z"/>
  <path d="m536.17 38.759q0-2.5107 1.421-4.1987 1.421-1.688 3.9423-1.688 2.5107 0 3.921 1.6453 1.421 1.6453 1.4637 4.1026v0.36325q0 2.5214-1.421 4.1987-1.4103 1.6774-3.9423 1.6774-2.5428 0-3.9637-1.6774-1.421-1.6774-1.421-4.1987zm2.5855 0.22436q0 1.5598 0.6624 2.6816 0.67308 1.1111 2.1368 1.1111 1.4316 0 2.094-1.1111 0.67308-1.1218 0.67308-2.6816v-0.22436q0-1.5278-0.67308-2.6603-0.6624-1.1432-2.1154-1.1432-1.4423 0-2.1154 1.1432-0.6624 1.1325-0.6624 2.6603z"/>
  <path d="m554 34.988q-1.5492 0-2.3291 1.4103v8.2479h-2.5962v-11.56h2.4466l0.0855 1.3248q1.2714-1.5385 3.344-1.5385 1.6667 0 2.671 0.96155 1.0043 0.96154 1.015 3.2799v7.5321h-2.5962v-7.5001q0-1.1966-0.52351-1.6774-0.51282-0.48077-1.5171-0.48077z"/>
 </g>
 <g transform="matrix(1.2769 0 0 1.2769 244.37 20.115)" fill="#fff">
  <path d="m8 10h-3v-3h-2v3h-3v2h3v3h2v-3h3z"/>
  <path d="m18 11c1.66 0 2.99-1.34 2.99-3s-1.33-3-2.99-3c-0.32 0-0.63 0.05-0.91 0.14 0.57 0.81 0.9 1.79 0.9 2.86s-0.34 2.04-0.9 2.86c0.28 0.09 0.59 0.14 0.91 0.14z"/>
  <path d="m13 11c1.66 0 2.99-1.34 2.99-3s-1.33-3-2.99-3-3 1.34-3 3 1.34 3 3 3z"/>
  <path d="m19.62 13.16c0.83 0.73 1.38 1.66 1.38 2.84v2h3v-2c0-1.54-2.37-2.49-4.38-2.84z"/>
  <path d="m13 13c-2 0-6 1-6 3v2h12v-2c0-2-4-3-6-3z"/>
 </g>
</svg>
