<?xml version="1.0" encoding="utf-8"?>
<!-- Generator: Adobe Illustrator 19.0.0, SVG Export Plug-In . SVG Version: 6.00 Build 0)  -->
<svg version="1.1" id="Layer_1" xmlns="http://www.w3.org/2000/svg" xmlns:xlink="http://www.w3.org/1999/xlink" x="0px" y="0px"
	 viewBox="241 174.5 1094 444.5" style="enable-background:new 241 174.5 1094 444.5;" xml:space="preserve">
<style type="text/css">
	.st0{fill:#F3FBFF;}
	.st1{fill:#FFFFFF;stroke:#7BD0FF;stroke-miterlimit:10;}
	.st2{fill:#FFFFFF;stroke:#0098FA;stroke-miterlimit:10;}
	.st3{fill:#0098FA;}
	.st4{fill:#FFFFFF;}
	.st5{enable-background:new    ;}
	.st6{fill:#472482;}
	.st7{fill:#352483;}
	.st8{fill:none;stroke:#069437;stroke-linecap:round;stroke-miterlimit:10;}
	.st9{fill:#069437;}
	.st10{fill:#D6EFFF;}
	.st11{fill:#292B67;}
	.st12{fill:none;stroke:#D6EFFF;stroke-linecap:square;stroke-miterlimit:10;}
	.st13{fill:none;stroke:#D6EFFF;stroke-width:4;stroke-linecap:square;stroke-miterlimit:10;}
	.st14{fill:none;stroke:#0098FA;stroke-width:4;stroke-linecap:round;stroke-miterlimit:10;}
</style>
<path class="st0" d="M1312.5,619h-1049c-12.4,0-22.5-10.1-22.5-22.5V197c0-12.4,10.1-22.5,22.5-22.5h1049
	c12.4,0,22.5,10.1,22.5,22.5v399.5C1335,608.9,1324.9,619,1312.5,619z"/>
<path class="st1" d="M392.1,344.6h-57.2c-6.6,0-12-5.4-12-12v-33.8c0-6.6,5.4-12,12-12H392c6.6,0,12,5.4,12,12v33.8
	C404.1,339.2,398.7,344.6,392.1,344.6z"/>
<path class="st1" d="M413.2,349.1h-69.9c-6.6,0-12-5.4-12-12v-42.9c0-6.6,5.4-12,12-12h69.9c6.6,0,12,5.4,12,12v42.9
	C425.2,343.7,419.8,349.1,413.2,349.1z"/>
<path class="st2" d="M447.5,357h-92c-6.6,0-12-5.4-12-12v-58.7c0-6.6,5.4-12,12-12h92c6.6,0,12,5.4,12,12V345
	C459.5,351.6,454.1,357,447.5,357z"/>
<g>
	<path class="st3" d="M389.1,323.1L389.1,323.1c-0.7,0-1.3-0.6-1.3-1.3v-39.4c0-0.7,0.6-1.3,1.3-1.3l0,0c0.7,0,1.3,0.6,1.3,1.3v39.4
		C390.4,322.6,389.8,323.1,389.1,323.1z"/>
	<path class="st3" d="M394.8,323.1L394.8,323.1c-0.7,0-1.3-0.6-1.3-1.3v-39.4c0-0.7,0.6-1.3,1.3-1.3l0,0c0.7,0,1.3,0.6,1.3,1.3v39.4
		C396.1,322.6,395.5,323.1,394.8,323.1z"/>
	<path class="st3" d="M400.5,323.1L400.5,323.1c-0.7,0-1.3-0.6-1.3-1.3v-39.4c0-0.7,0.6-1.3,1.3-1.3l0,0c0.7,0,1.3,0.6,1.3,1.3v39.4
		C401.8,322.6,401.2,323.1,400.5,323.1z"/>
	<path class="st3" d="M406.1,323.1L406.1,323.1c-0.7,0-1.3-0.6-1.3-1.3v-39.4c0-0.7,0.6-1.3,1.3-1.3l0,0c0.7,0,1.3,0.6,1.3,1.3v39.4
		C407.4,322.6,406.8,323.1,406.1,323.1z"/>
	<path class="st3" d="M411.5,323.1L411.5,323.1c-0.7,0-1.3-0.6-1.3-1.3v-39.4c0-0.7,0.6-1.3,1.3-1.3l0,0c0.7,0,1.3,0.6,1.3,1.3v39.4
		C412.8,322.6,412.3,323.1,411.5,323.1z"/>
	<g>
		<path class="st3" d="M379.5,290.9L379.5,290.9c0-0.7,0.6-1.3,1.3-1.3h39.4c0.7,0,1.3,0.6,1.3,1.3l0,0c0,0.7-0.6,1.3-1.3,1.3h-39.4
			C380.1,292.2,379.5,291.6,379.5,290.9z"/>
		<path class="st3" d="M379.5,296.5L379.5,296.5c0-0.7,0.6-1.3,1.3-1.3h39.4c0.7,0,1.3,0.6,1.3,1.3l0,0c0,0.7-0.6,1.3-1.3,1.3h-39.4
			C380.1,297.8,379.5,297.3,379.5,296.5z"/>
		<path class="st3" d="M379.5,302.2L379.5,302.2c0-0.7,0.6-1.3,1.3-1.3h39.4c0.7,0,1.3,0.6,1.3,1.3l0,0c0,0.7-0.6,1.3-1.3,1.3h-39.4
			C380.1,303.6,379.5,303,379.5,302.2z"/>
		<path class="st3" d="M379.5,307.8L379.5,307.8c0-0.7,0.6-1.3,1.3-1.3h39.4c0.7,0,1.3,0.6,1.3,1.3l0,0c0,0.7-0.6,1.3-1.3,1.3h-39.4
			C380.1,309.1,379.5,308.5,379.5,307.8z"/>
		<path class="st3" d="M379.5,313.3L379.5,313.3c0-0.7,0.6-1.3,1.3-1.3h39.4c0.7,0,1.3,0.6,1.3,1.3l0,0c0,0.7-0.6,1.3-1.3,1.3h-39.4
			C380.1,314.6,379.5,314,379.5,313.3z"/>
	</g>
	<path class="st3" d="M413,317.4h-25c-1.6,0-2.8-1.3-2.8-2.8v-25c0-1.6,1.3-2.8,2.8-2.8h25c1.6,0,2.8,1.3,2.8,2.8v25
		C415.8,316.2,414.6,317.4,413,317.4z"/>
	<path class="st4" d="M407.2,312.9h-13.5c-2.3,0-4.1-1.8-4.1-4.1v-13.5c0-2.3,1.8-4.1,4.1-4.1h13.5c2.3,0,4.1,1.8,4.1,4.1v13.5
		C411.3,311.1,409.5,312.9,407.2,312.9z"/>
	<path class="st3" d="M406.7,310.6h-12.4c-1.3,0-2.3-1-2.3-2.3v-12.4c0-1.3,1-2.3,2.3-2.3h12.4c1.3,0,2.3,1,2.3,2.3v12.4
		C409,309.6,408,310.6,406.7,310.6z"/>
</g>
<g class="st5">
	<path class="st6" d="M368.2,346.1V345c0.1,0.1,0.3,0.2,0.5,0.3s0.4,0.2,0.6,0.2s0.4,0.1,0.6,0.1s0.4,0.1,0.6,0.1
		c0.6,0,1.1-0.1,1.4-0.3s0.4-0.5,0.4-1c0-0.2,0-0.4-0.1-0.6s-0.2-0.3-0.4-0.5s-0.4-0.3-0.6-0.4s-0.5-0.3-0.8-0.4
		c-0.3-0.1-0.6-0.3-0.8-0.5s-0.5-0.3-0.7-0.5s-0.3-0.4-0.4-0.6s-0.2-0.5-0.2-0.8c0-0.4,0.1-0.7,0.3-1s0.4-0.5,0.7-0.7
		s0.6-0.3,0.9-0.4s0.7-0.1,1.1-0.1c0.8,0,1.4,0.1,1.8,0.3v1.1c-0.5-0.3-1.1-0.5-1.9-0.5c-0.2,0-0.4,0-0.6,0.1s-0.4,0.1-0.6,0.2
		s-0.3,0.2-0.4,0.4s-0.2,0.4-0.2,0.6c0,0.2,0,0.4,0.1,0.6s0.2,0.3,0.4,0.4s0.3,0.3,0.6,0.4s0.5,0.3,0.8,0.4c0.3,0.1,0.6,0.3,0.9,0.5
		s0.5,0.3,0.7,0.5s0.4,0.4,0.5,0.7s0.2,0.5,0.2,0.8c0,0.4-0.1,0.8-0.2,1.1s-0.4,0.5-0.7,0.7s-0.6,0.3-1,0.4s-0.7,0.1-1.1,0.1
		c-0.1,0-0.3,0-0.5,0s-0.4-0.1-0.6-0.1s-0.4-0.1-0.6-0.2S368.3,346.2,368.2,346.1z"/>
	<path class="st6" d="M383.4,346.5h-1V343c0-0.7-0.1-1.1-0.3-1.4s-0.5-0.4-1-0.4c-0.4,0-0.8,0.2-1,0.6s-0.4,0.8-0.4,1.3v3.4h-1v-3.6
		c0-1.2-0.5-1.8-1.4-1.8c-0.4,0-0.8,0.2-1,0.5s-0.4,0.8-0.4,1.4v3.4h-1v-6h1v0.9h0c0.4-0.7,1-1.1,1.9-1.1c0.4,0,0.8,0.1,1.1,0.3
		s0.5,0.5,0.6,0.9c0.4-0.8,1.1-1.2,2-1.2c1.3,0,2,0.8,2,2.4V346.5z"/>
	<path class="st6" d="M389.5,346.5h-1v-0.9h0c-0.4,0.7-1,1.1-1.8,1.1c-0.6,0-1.1-0.2-1.4-0.5s-0.5-0.7-0.5-1.3c0-1.1,0.7-1.8,2-2
		l1.8-0.3c0-1-0.4-1.5-1.2-1.5c-0.7,0-1.4,0.2-2,0.7v-1c0.6-0.4,1.3-0.6,2-0.6c1.4,0,2.1,0.7,2.1,2.2V346.5z M388.5,343.5l-1.4,0.2
		c-0.4,0.1-0.8,0.2-1,0.3s-0.3,0.4-0.3,0.8c0,0.3,0.1,0.5,0.3,0.7s0.5,0.3,0.8,0.3c0.5,0,0.9-0.2,1.2-0.5s0.5-0.8,0.5-1.3V343.5z"/>
	<path class="st6" d="M394.4,341.5c-0.2-0.1-0.4-0.2-0.7-0.2c-0.4,0-0.8,0.2-1,0.6s-0.4,0.9-0.4,1.6v3.1h-1v-6h1v1.2h0
		c0.1-0.4,0.3-0.8,0.6-1s0.6-0.4,0.9-0.4c0.3,0,0.4,0,0.6,0.1V341.5z"/>
	<path class="st6" d="M398.2,346.4c-0.2,0.1-0.5,0.2-0.9,0.2c-1.1,0-1.6-0.6-1.6-1.8v-3.6h-1v-0.8h1V339l1-0.3v1.8h1.5v0.8h-1.5v3.4
		c0,0.4,0.1,0.7,0.2,0.9s0.4,0.3,0.7,0.3c0.2,0,0.5-0.1,0.6-0.2V346.4z"/>
	<path class="st6" d="M411.3,346.5h-1V343c0-0.7-0.1-1.1-0.3-1.4s-0.5-0.4-1-0.4c-0.4,0-0.8,0.2-1,0.6s-0.4,0.8-0.4,1.3v3.4h-1v-3.6
		c0-1.2-0.5-1.8-1.4-1.8c-0.4,0-0.8,0.2-1,0.5s-0.4,0.8-0.4,1.4v3.4h-1v-6h1v0.9h0c0.4-0.7,1-1.1,1.9-1.1c0.4,0,0.8,0.1,1.1,0.3
		s0.5,0.5,0.6,0.9c0.4-0.8,1.1-1.2,2-1.2c1.3,0,2,0.8,2,2.4V346.5z"/>
	<path class="st6" d="M418,343.7h-4.2c0,0.7,0.2,1.2,0.5,1.5s0.8,0.5,1.4,0.5c0.7,0,1.3-0.2,1.9-0.7v0.9c-0.5,0.4-1.2,0.6-2.1,0.6
		c-0.8,0-1.5-0.3-2-0.8s-0.7-1.3-0.7-2.3c0-0.9,0.3-1.7,0.8-2.3s1.2-0.9,2-0.9s1.4,0.3,1.8,0.8s0.6,1.2,0.6,2.1V343.7z M417,342.9
		c0-0.6-0.1-1-0.4-1.3s-0.6-0.5-1.1-0.5c-0.5,0-0.8,0.2-1.2,0.5s-0.5,0.7-0.6,1.3H417z"/>
	<path class="st6" d="M422.2,346.4c-0.2,0.1-0.5,0.2-0.9,0.2c-1.1,0-1.6-0.6-1.6-1.8v-3.6h-1v-0.8h1V339l1-0.3v1.8h1.5v0.8h-1.5v3.4
		c0,0.4,0.1,0.7,0.2,0.9s0.4,0.3,0.7,0.3c0.2,0,0.5-0.1,0.6-0.2V346.4z"/>
	<path class="st6" d="M428.3,343.7h-4.2c0,0.7,0.2,1.2,0.5,1.5s0.8,0.5,1.4,0.5c0.7,0,1.3-0.2,1.9-0.7v0.9c-0.5,0.4-1.2,0.6-2.1,0.6
		c-0.8,0-1.5-0.3-2-0.8s-0.7-1.3-0.7-2.3c0-0.9,0.3-1.7,0.8-2.3s1.2-0.9,2-0.9s1.4,0.3,1.8,0.8s0.6,1.2,0.6,2.1V343.7z M427.3,342.9
		c0-0.6-0.1-1-0.4-1.3s-0.6-0.5-1.1-0.5c-0.5,0-0.8,0.2-1.2,0.5s-0.5,0.7-0.6,1.3H427.3z"/>
	<path class="st6" d="M432.9,341.5c-0.2-0.1-0.4-0.2-0.7-0.2c-0.4,0-0.8,0.2-1,0.6s-0.4,0.9-0.4,1.6v3.1h-1v-6h1v1.2h0
		c0.1-0.4,0.3-0.8,0.6-1s0.6-0.4,0.9-0.4c0.3,0,0.4,0,0.6,0.1V341.5z"/>
	<path class="st6" d="M433.6,346.3v-1c0.5,0.4,1.1,0.6,1.7,0.6c0.8,0,1.3-0.3,1.3-0.8c0-0.2,0-0.3-0.1-0.4s-0.2-0.2-0.3-0.3
		s-0.3-0.2-0.4-0.2s-0.3-0.1-0.5-0.2c-0.3-0.1-0.5-0.2-0.7-0.3s-0.4-0.2-0.5-0.4s-0.2-0.3-0.3-0.5s-0.1-0.4-0.1-0.6
		c0-0.3,0.1-0.5,0.2-0.7s0.3-0.4,0.5-0.5s0.5-0.3,0.7-0.3s0.6-0.1,0.9-0.1c0.5,0,1,0.1,1.4,0.3v1c-0.4-0.3-0.9-0.4-1.5-0.4
		c-0.2,0-0.3,0-0.5,0.1s-0.3,0.1-0.4,0.2s-0.2,0.2-0.2,0.3s-0.1,0.2-0.1,0.3c0,0.2,0,0.3,0.1,0.4s0.1,0.2,0.2,0.3s0.2,0.2,0.4,0.2
		s0.3,0.1,0.5,0.2c0.3,0.1,0.5,0.2,0.7,0.3s0.4,0.2,0.5,0.4s0.3,0.3,0.3,0.5s0.1,0.4,0.1,0.6c0,0.3-0.1,0.6-0.2,0.8
		s-0.3,0.4-0.5,0.5s-0.5,0.3-0.8,0.3s-0.6,0.1-0.9,0.1C434.6,346.6,434,346.5,433.6,346.3z"/>
</g>
<path class="st1" d="M662.2,352.2h-57.1c-6.6,0-12-5.4-12-12v-39.4c0-6.6,5.4-12,12-12h57.1c6.6,0,12,5.4,12,12v39.4
	C674.2,346.8,668.8,352.2,662.2,352.2z"/>
<path class="st1" d="M683.3,361h-69.9c-6.6,0-12-5.4-12-12v-52.7c0-6.6,5.4-12,12-12h69.9c6.6,0,12,5.4,12,12V349
	C695.3,355.6,689.9,361,683.3,361z"/>
<path class="st2" d="M717.9,374.2h-92c-6.6,0-12-5.4-12-12v-75.9c0-6.6,5.4-12,12-12h92c6.6,0,12,5.4,12,12v75.9
	C729.9,368.8,724.5,374.2,717.9,374.2z"/>
<path class="st2" d="M1040.3,544.9H892.4c-6.6,0-12-5.4-12-12V286.3c0-6.6,5.4-12,12-12h147.9c6.6,0,12,5.4,12,12v246.6
	C1052.3,539.5,1046.9,544.9,1040.3,544.9z"/>
<g class="st5">
	<path class="st6" d="M645.2,339h-2.4v7.5h-1V339h-2.4v-0.9h5.8V339z"/>
	<path class="st6" d="M651.4,346.5h-1V343c0-1.3-0.5-1.9-1.4-1.9c-0.5,0-0.9,0.2-1.2,0.5s-0.5,0.8-0.5,1.4v3.4h-1v-8.9h1v3.9h0
		c0.5-0.8,1.1-1.1,2-1.1c1.4,0,2,0.8,2,2.4V346.5z"/>
	<path class="st6" d="M653.7,339c-0.2,0-0.3-0.1-0.4-0.2s-0.2-0.3-0.2-0.4s0.1-0.3,0.2-0.4s0.3-0.2,0.4-0.2c0.2,0,0.3,0.1,0.4,0.2
		s0.2,0.3,0.2,0.4c0,0.2-0.1,0.3-0.2,0.4S653.8,339,653.7,339z M654.1,346.5h-1v-6h1V346.5z"/>
	<path class="st6" d="M661.1,346.5h-1v-3.4c0-1.3-0.5-1.9-1.4-1.9c-0.5,0-0.9,0.2-1.2,0.5s-0.5,0.8-0.5,1.4v3.4h-1v-6h1v1h0
		c0.5-0.8,1.1-1.1,2-1.1c0.7,0,1.2,0.2,1.5,0.6s0.5,1,0.5,1.8V346.5z"/>
	<path class="st6" d="M668,346c0,2.2-1.1,3.3-3.2,3.3c-0.7,0-1.4-0.1-1.9-0.4v-1c0.7,0.4,1.3,0.6,1.9,0.6c1.5,0,2.2-0.8,2.2-2.4
		v-0.7h0c-0.5,0.8-1.1,1.1-2.1,1.1c-0.7,0-1.3-0.3-1.8-0.8s-0.7-1.2-0.7-2.1c0-1,0.2-1.8,0.7-2.4s1.2-0.9,2-0.9c0.8,0,1.4,0.3,1.8,1
		h0v-0.8h1V346z M667,343.8v-0.9c0-0.5-0.2-0.9-0.5-1.2s-0.7-0.5-1.2-0.5c-0.6,0-1.1,0.2-1.4,0.6s-0.5,1-0.5,1.8
		c0,0.7,0.2,1.2,0.5,1.6s0.7,0.6,1.3,0.6c0.5,0,1-0.2,1.3-0.6S667,344.4,667,343.8z"/>
	<path class="st6" d="M669.6,346.3v-1c0.5,0.4,1.1,0.6,1.7,0.6c0.8,0,1.3-0.3,1.3-0.8c0-0.2,0-0.3-0.1-0.4s-0.2-0.2-0.3-0.3
		s-0.3-0.2-0.4-0.2s-0.3-0.1-0.5-0.2c-0.3-0.1-0.5-0.2-0.7-0.3s-0.4-0.2-0.5-0.4s-0.2-0.3-0.3-0.5s-0.1-0.4-0.1-0.6
		c0-0.3,0.1-0.5,0.2-0.7s0.3-0.4,0.5-0.5s0.5-0.3,0.7-0.3s0.6-0.1,0.9-0.1c0.5,0,1,0.1,1.4,0.3v1c-0.4-0.3-0.9-0.4-1.5-0.4
		c-0.2,0-0.3,0-0.5,0.1s-0.3,0.1-0.4,0.2s-0.2,0.2-0.2,0.3s-0.1,0.2-0.1,0.3c0,0.2,0,0.3,0.1,0.4s0.1,0.2,0.2,0.3s0.2,0.2,0.4,0.2
		s0.3,0.1,0.5,0.2c0.3,0.1,0.5,0.2,0.7,0.3s0.4,0.2,0.5,0.4s0.3,0.3,0.3,0.5s0.1,0.4,0.1,0.6c0,0.3-0.1,0.6-0.2,0.8
		s-0.3,0.4-0.5,0.5s-0.5,0.3-0.8,0.3s-0.6,0.1-0.9,0.1C670.6,346.6,670,346.5,669.6,346.3z"/>
	<path class="st6" d="M675.2,346.5v-8.4h2.4c0.7,0,1.3,0.2,1.7,0.5s0.6,0.8,0.6,1.4c0,0.5-0.1,0.9-0.4,1.2s-0.6,0.6-1.1,0.8v0
		c0.6,0.1,1,0.3,1.4,0.6s0.5,0.8,0.5,1.4c0,0.7-0.3,1.3-0.8,1.7s-1.2,0.7-2,0.7H675.2z M676.1,339v2.7h1c0.5,0,1-0.1,1.3-0.4
		s0.5-0.6,0.5-1.1c0-0.8-0.5-1.2-1.6-1.2H676.1z M676.1,342.6v3h1.3c0.6,0,1-0.1,1.3-0.4s0.5-0.6,0.5-1.1c0-1-0.7-1.5-2-1.5H676.1z"
		/>
	<path class="st6" d="M684.4,346.6c-0.9,0-1.6-0.3-2.1-0.8s-0.8-1.3-0.8-2.2c0-1,0.3-1.8,0.8-2.4s1.3-0.8,2.2-0.8
		c0.9,0,1.6,0.3,2.1,0.8s0.8,1.3,0.8,2.3c0,1-0.3,1.7-0.8,2.3S685.3,346.6,684.4,346.6z M684.5,341.2c-0.6,0-1.1,0.2-1.5,0.6
		s-0.5,1-0.5,1.7c0,0.7,0.2,1.3,0.5,1.7s0.8,0.6,1.5,0.6c0.6,0,1.1-0.2,1.4-0.6s0.5-1,0.5-1.7c0-0.8-0.2-1.3-0.5-1.7
		S685.1,341.2,684.5,341.2z"/>
	<path class="st6" d="M693.2,346.5h-1v-0.9h0c-0.4,0.7-1,1.1-1.8,1.1c-0.6,0-1.1-0.2-1.4-0.5s-0.5-0.7-0.5-1.3c0-1.1,0.7-1.8,2-2
		l1.8-0.3c0-1-0.4-1.5-1.2-1.5c-0.7,0-1.4,0.2-2,0.7v-1c0.6-0.4,1.3-0.6,2-0.6c1.4,0,2.1,0.7,2.1,2.2V346.5z M692.3,343.5l-1.4,0.2
		c-0.4,0.1-0.8,0.2-1,0.3s-0.3,0.4-0.3,0.8c0,0.3,0.1,0.5,0.3,0.7s0.5,0.3,0.8,0.3c0.5,0,0.9-0.2,1.2-0.5s0.5-0.8,0.5-1.3V343.5z"/>
	<path class="st6" d="M698.2,341.5c-0.2-0.1-0.4-0.2-0.7-0.2c-0.4,0-0.8,0.2-1,0.6s-0.4,0.9-0.4,1.6v3.1h-1v-6h1v1.2h0
		c0.1-0.4,0.3-0.8,0.6-1s0.6-0.4,0.9-0.4c0.3,0,0.4,0,0.6,0.1V341.5z"/>
	<path class="st6" d="M704.3,346.5h-1v-1h0c-0.4,0.8-1.1,1.2-2.1,1.2c-0.8,0-1.4-0.3-1.8-0.8s-0.7-1.3-0.7-2.2c0-1,0.3-1.8,0.8-2.4
		s1.2-0.9,2-0.9c0.8,0,1.4,0.3,1.8,1h0v-3.7h1V346.5z M703.4,343.8v-0.9c0-0.5-0.2-0.9-0.5-1.2s-0.7-0.5-1.2-0.5
		c-0.6,0-1,0.2-1.4,0.6s-0.5,1-0.5,1.8c0,0.7,0.2,1.2,0.5,1.6s0.8,0.6,1.3,0.6c0.5,0,1-0.2,1.3-0.6S703.4,344.4,703.4,343.8z"/>
</g>
<g class="st5">
	<path class="st6" d="M636,352.5v0.8h-0.8v6.7h0.8v0.8h-2.6V360h0.8v-6.7h-0.8v-0.8H636z"/>
	<path class="st6" d="M644.2,360.9H643l-4.3-6.7c-0.1-0.2-0.2-0.3-0.3-0.5h0c0,0.2,0,0.6,0,1.2v6.1h-1v-8.4h1.3l4.2,6.6
		c0.2,0.3,0.3,0.5,0.3,0.6h0c0-0.2-0.1-0.7-0.1-1.2v-5.9h1V360.9z"/>
	<path class="st6" d="M651.4,353.4h-2.4v7.5h-1v-7.5h-2.4v-0.9h5.8V353.4z"/>
	<path class="st6" d="M657.1,360.9h-4.5v-8.4h4.3v0.9h-3.3v2.8h3v0.9h-3v2.9h3.5V360.9z"/>
	<path class="st6" d="M665,360.3c-0.8,0.5-1.8,0.7-2.8,0.7c-1.2,0-2.2-0.4-2.9-1.2s-1.1-1.8-1.1-3.1c0-1.3,0.4-2.4,1.2-3.2
		s1.9-1.3,3.1-1.3c0.9,0,1.7,0.1,2.3,0.4v1.1c-0.7-0.4-1.5-0.6-2.4-0.6c-0.9,0-1.7,0.3-2.3,1s-0.9,1.5-0.9,2.5
		c0,1.1,0.3,1.9,0.8,2.5s1.3,0.9,2.3,0.9c0.7,0,1.2-0.1,1.7-0.4v-2.4h-1.8v-0.9h2.8V360.3z"/>
	<path class="st6" d="M673,360.9h-1.2l-1.4-2.4c-0.1-0.2-0.3-0.4-0.4-0.6s-0.2-0.3-0.4-0.4s-0.3-0.2-0.4-0.2s-0.3-0.1-0.5-0.1H668
		v3.6h-1v-8.4h2.5c0.4,0,0.7,0,1,0.1s0.6,0.2,0.8,0.4s0.4,0.4,0.5,0.7s0.2,0.6,0.2,1c0,0.3,0,0.6-0.1,0.8s-0.2,0.5-0.4,0.7
		s-0.4,0.4-0.6,0.5s-0.5,0.2-0.8,0.3v0c0.1,0.1,0.3,0.1,0.4,0.2s0.2,0.2,0.3,0.3s0.2,0.2,0.3,0.4s0.2,0.3,0.3,0.5L673,360.9z
		 M668,353.4v3h1.3c0.2,0,0.5,0,0.7-0.1s0.4-0.2,0.5-0.3s0.3-0.3,0.4-0.5s0.1-0.4,0.1-0.7c0-0.4-0.1-0.8-0.4-1.1s-0.7-0.4-1.3-0.4
		H668z"/>
	<path class="st6" d="M680.7,360.9h-1.1l-0.9-2.4h-3.6l-0.8,2.4h-1.1l3.2-8.4h1L680.7,360.9z M678.4,357.6l-1.3-3.6
		c0-0.1-0.1-0.3-0.1-0.6h0c0,0.2-0.1,0.4-0.1,0.6l-1.3,3.6H678.4z"/>
	<path class="st6" d="M686.9,353.4h-2.4v7.5h-1v-7.5H681v-0.9h5.8V353.4z"/>
	<path class="st6" d="M690,352.5v0.8h-0.8v6.7h0.8v0.8h-2.6V360h0.8v-6.7h-0.8v-0.8H690z"/>
	<path class="st6" d="M694.8,361c-1.2,0-2.1-0.4-2.9-1.2s-1.1-1.8-1.1-3.1c0-1.4,0.4-2.4,1.1-3.2s1.7-1.2,3-1.2
		c1.2,0,2.1,0.4,2.8,1.2s1.1,1.8,1.1,3.1c0,1.4-0.4,2.5-1.1,3.3S696,361,694.8,361z M694.8,353.2c-0.9,0-1.6,0.3-2.2,1
		s-0.8,1.5-0.8,2.5s0.3,1.9,0.8,2.5s1.2,0.9,2.1,0.9c0.9,0,1.6-0.3,2.2-0.9s0.8-1.4,0.8-2.5c0-1.1-0.3-2-0.8-2.6
		S695.7,353.2,694.8,353.2z"/>
	<path class="st6" d="M707.2,360.9H706l-4.3-6.7c-0.1-0.2-0.2-0.3-0.3-0.5h0c0,0.2,0,0.6,0,1.2v6.1h-1v-8.4h1.3l4.2,6.6
		c0.2,0.3,0.3,0.5,0.3,0.6h0c0-0.2-0.1-0.7-0.1-1.2v-5.9h1V360.9z"/>
	<path class="st6" d="M709,360.5v-1.2c0.1,0.1,0.3,0.2,0.5,0.3s0.4,0.2,0.6,0.2s0.4,0.1,0.6,0.1s0.4,0.1,0.6,0.1
		c0.6,0,1.1-0.1,1.4-0.3s0.4-0.5,0.4-1c0-0.2,0-0.4-0.1-0.6s-0.2-0.3-0.4-0.5s-0.4-0.3-0.6-0.4s-0.5-0.3-0.8-0.4
		c-0.3-0.1-0.6-0.3-0.8-0.5s-0.5-0.3-0.7-0.5s-0.3-0.4-0.4-0.6s-0.2-0.5-0.2-0.8c0-0.4,0.1-0.7,0.3-1s0.4-0.5,0.7-0.7
		s0.6-0.3,0.9-0.4s0.7-0.1,1.1-0.1c0.8,0,1.4,0.1,1.8,0.3v1.1c-0.5-0.3-1.1-0.5-1.9-0.5c-0.2,0-0.4,0-0.6,0.1s-0.4,0.1-0.6,0.2
		s-0.3,0.2-0.4,0.4s-0.2,0.4-0.2,0.6c0,0.2,0,0.4,0.1,0.6s0.2,0.3,0.4,0.4s0.3,0.3,0.6,0.4s0.5,0.3,0.8,0.4c0.3,0.1,0.6,0.3,0.9,0.5
		s0.5,0.3,0.7,0.5s0.4,0.4,0.5,0.7s0.2,0.5,0.2,0.8c0,0.4-0.1,0.8-0.2,1.1s-0.4,0.5-0.7,0.7s-0.6,0.3-1,0.4s-0.7,0.1-1.1,0.1
		c-0.1,0-0.3,0-0.5,0s-0.4-0.1-0.6-0.1s-0.4-0.1-0.6-0.2S709.1,360.6,709,360.5z"/>
</g>
<path class="st2" d="M1232,409.2h-92c-6.6,0-12-5.4-12-12v-75.9c0-6.6,5.4-12,12-12h92c6.6,0,12,5.4,12,12v75.9
	C1244,403.8,1238.6,409.2,1232,409.2z"/>
<g class="st5">
	<path class="st6" d="M1167,397.5h-4.5v-8.4h4.3v0.9h-3.3v2.8h3v0.9h-3v2.9h3.5V397.5z"/>
	<path class="st6" d="M1173.5,397.5h-1v-3.4c0-1.3-0.5-1.9-1.4-1.9c-0.5,0-0.9,0.2-1.2,0.5s-0.5,0.8-0.5,1.4v3.4h-1v-6h1v1h0
		c0.5-0.8,1.1-1.1,2-1.1c0.7,0,1.2,0.2,1.5,0.6s0.5,1,0.5,1.8V397.5z"/>
	<path class="st6" d="M1180.4,397.5h-1v-1h0c-0.4,0.8-1.1,1.2-2.1,1.2c-0.8,0-1.4-0.3-1.8-0.8s-0.7-1.3-0.7-2.2c0-1,0.3-1.8,0.8-2.4
		s1.2-0.9,2-0.9c0.8,0,1.4,0.3,1.8,1h0v-3.7h1V397.5z M1179.5,394.8v-0.9c0-0.5-0.2-0.9-0.5-1.2s-0.7-0.5-1.2-0.5
		c-0.6,0-1,0.2-1.4,0.6s-0.5,1-0.5,1.8c0,0.7,0.2,1.2,0.5,1.6s0.8,0.6,1.3,0.6c0.5,0,1-0.2,1.3-0.6S1179.5,395.4,1179.5,394.8z"/>
	<path class="st6" d="M1191.9,394.1c0,2.4-1.1,3.5-3.2,3.5c-2,0-3.1-1.1-3.1-3.4v-5.1h1v5.1c0,1.7,0.7,2.6,2.2,2.6
		c1.4,0,2.1-0.8,2.1-2.5v-5.2h1V394.1z"/>
	<path class="st6" d="M1193.5,397.3v-1c0.5,0.4,1.1,0.6,1.7,0.6c0.8,0,1.3-0.3,1.3-0.8c0-0.2,0-0.3-0.1-0.4s-0.2-0.2-0.3-0.3
		s-0.3-0.2-0.4-0.2s-0.3-0.1-0.5-0.2c-0.3-0.1-0.5-0.2-0.7-0.3s-0.4-0.2-0.5-0.4s-0.2-0.3-0.3-0.5s-0.1-0.4-0.1-0.6
		c0-0.3,0.1-0.5,0.2-0.7s0.3-0.4,0.5-0.5s0.5-0.3,0.7-0.3s0.6-0.1,0.9-0.1c0.5,0,1,0.1,1.4,0.3v1c-0.4-0.3-0.9-0.4-1.5-0.4
		c-0.2,0-0.3,0-0.5,0.1s-0.3,0.1-0.4,0.2s-0.2,0.2-0.2,0.3s-0.1,0.2-0.1,0.3c0,0.2,0,0.3,0.1,0.4s0.1,0.2,0.2,0.3s0.2,0.2,0.4,0.2
		s0.3,0.1,0.5,0.2c0.3,0.1,0.5,0.2,0.7,0.3s0.4,0.2,0.5,0.4s0.3,0.3,0.3,0.5s0.1,0.4,0.1,0.6c0,0.3-0.1,0.6-0.2,0.8
		s-0.3,0.4-0.5,0.5s-0.5,0.3-0.8,0.3s-0.6,0.1-0.9,0.1C1194.5,397.6,1194,397.5,1193.5,397.3z"/>
	<path class="st6" d="M1203.8,394.7h-4.2c0,0.7,0.2,1.2,0.5,1.5s0.8,0.5,1.4,0.5c0.7,0,1.3-0.2,1.9-0.7v0.9
		c-0.5,0.4-1.2,0.6-2.1,0.6c-0.8,0-1.5-0.3-2-0.8s-0.7-1.3-0.7-2.3c0-0.9,0.3-1.7,0.8-2.3s1.2-0.9,2-0.9s1.4,0.3,1.8,0.8
		s0.6,1.2,0.6,2.1V394.7z M1202.8,393.9c0-0.6-0.1-1-0.4-1.3s-0.6-0.5-1.1-0.5c-0.5,0-0.8,0.2-1.2,0.5s-0.5,0.7-0.6,1.3H1202.8z"/>
	<path class="st6" d="M1208.4,392.5c-0.2-0.1-0.4-0.2-0.7-0.2c-0.4,0-0.8,0.2-1,0.6s-0.4,0.9-0.4,1.6v3.1h-1v-6h1v1.2h0
		c0.1-0.4,0.3-0.8,0.6-1s0.6-0.4,0.9-0.4c0.3,0,0.4,0,0.6,0.1V392.5z"/>
</g>
<path class="st2" d="M1232,522.4h-92c-6.6,0-12-5.4-12-12v-75.9c0-6.6,5.4-12,12-12h92c6.6,0,12,5.4,12,12v75.9
	C1244,517,1238.6,522.4,1232,522.4z"/>
<g class="st5">
	<path class="st6" d="M1165.6,507.7h-1.1l-0.9-2.4h-3.6l-0.8,2.4h-1.1l3.2-8.4h1L1165.6,507.7z M1163.2,504.4l-1.3-3.6
		c0-0.1-0.1-0.3-0.1-0.6h0c0,0.2-0.1,0.4-0.1,0.6l-1.3,3.6H1163.2z"/>
	<path class="st6" d="M1173.6,507.7h-1.2l-4.3-6.7c-0.1-0.2-0.2-0.3-0.3-0.5h0c0,0.2,0,0.6,0,1.2v6.1h-1v-8.4h1.3l4.2,6.6
		c0.2,0.3,0.3,0.5,0.3,0.6h0c0-0.2-0.1-0.7-0.1-1.2v-5.9h1V507.7z"/>
	<path class="st6" d="M1182.3,507.7h-1.1l-0.9-2.4h-3.6l-0.8,2.4h-1.1l3.2-8.4h1L1182.3,507.7z M1180,504.4l-1.3-3.6
		c0-0.1-0.1-0.3-0.1-0.6h0c0,0.2-0.1,0.4-0.1,0.6l-1.3,3.6H1180z"/>
	<path class="st6" d="M1187.9,507.7h-4.4v-8.4h1v7.5h3.4V507.7z"/>
	<path class="st6" d="M1194.6,499.3l-2.8,5.3v3.1h-1v-3.1l-2.7-5.3h1.1l1.9,3.8c0,0,0.1,0.2,0.2,0.5h0c0-0.1,0.1-0.3,0.2-0.5l2-3.8
		H1194.6z"/>
	<path class="st6" d="M1200.8,500.2h-2.4v7.5h-1v-7.5h-2.4v-0.9h5.8V500.2z"/>
	<path class="st6" d="M1203.9,499.3v0.8h-0.8v6.7h0.8v0.8h-2.6v-0.8h0.8v-6.7h-0.8v-0.8H1203.9z"/>
	<path class="st6" d="M1211,507.3c-0.6,0.3-1.4,0.5-2.3,0.5c-1.2,0-2.2-0.4-2.9-1.2s-1.1-1.8-1.1-3c0-1.3,0.4-2.4,1.2-3.3
		s1.8-1.2,3.1-1.2c0.8,0,1.5,0.1,2,0.3v1c-0.6-0.3-1.3-0.5-2-0.5c-1,0-1.7,0.3-2.3,1s-0.9,1.5-0.9,2.6c0,1,0.3,1.8,0.8,2.4
		s1.3,0.9,2.2,0.9c0.8,0,1.6-0.2,2.2-0.6V507.3z"/>
	<path class="st6" d="M1212.3,507.3v-1.2c0.1,0.1,0.3,0.2,0.5,0.3s0.4,0.2,0.6,0.2s0.4,0.1,0.6,0.1s0.4,0.1,0.6,0.1
		c0.6,0,1.1-0.1,1.4-0.3s0.4-0.5,0.4-1c0-0.2,0-0.4-0.1-0.6s-0.2-0.3-0.4-0.5s-0.4-0.3-0.6-0.4s-0.5-0.3-0.8-0.4
		c-0.3-0.1-0.6-0.3-0.8-0.5s-0.5-0.3-0.7-0.5s-0.3-0.4-0.4-0.6s-0.2-0.5-0.2-0.8c0-0.4,0.1-0.7,0.3-1s0.4-0.5,0.7-0.7
		s0.6-0.3,0.9-0.4s0.7-0.1,1.1-0.1c0.8,0,1.4,0.1,1.8,0.3v1.1c-0.5-0.3-1.1-0.5-1.9-0.5c-0.2,0-0.4,0-0.6,0.1s-0.4,0.1-0.6,0.2
		s-0.3,0.2-0.4,0.4s-0.2,0.4-0.2,0.6c0,0.2,0,0.4,0.1,0.6s0.2,0.3,0.4,0.4s0.3,0.3,0.6,0.4s0.5,0.3,0.8,0.4c0.3,0.1,0.6,0.3,0.9,0.5
		s0.5,0.3,0.7,0.5s0.4,0.4,0.5,0.7s0.2,0.5,0.2,0.8c0,0.4-0.1,0.8-0.2,1.1s-0.4,0.5-0.7,0.7s-0.6,0.3-1,0.4s-0.7,0.1-1.1,0.1
		c-0.1,0-0.3,0-0.5,0s-0.4-0.1-0.6-0.1s-0.4-0.1-0.6-0.2S1212.4,507.4,1212.3,507.3z"/>
</g>
<path class="st1" d="M392.1,532.5h-57.2c-6.6,0-12-5.4-12-12v-33.8c0-6.6,5.4-12,12-12H392c6.6,0,12,5.4,12,12v33.8
	C404.1,527.1,398.7,532.5,392.1,532.5z"/>
<path class="st1" d="M413.2,537.1h-69.9c-6.6,0-12-5.4-12-12v-42.9c0-6.6,5.4-12,12-12h69.9c6.6,0,12,5.4,12,12v42.9
	C425.2,531.7,419.8,537.1,413.2,537.1z"/>
<path class="st2" d="M447.5,544.9h-92c-6.6,0-12-5.4-12-12v-58.7c0-6.6,5.4-12,12-12h92c6.6,0,12,5.4,12,12v58.7
	C459.5,539.5,454.1,544.9,447.5,544.9z"/>
<g>
	<path class="st3" d="M389.1,511.1L389.1,511.1c-0.7,0-1.3-0.6-1.3-1.3v-39.4c0-0.7,0.6-1.3,1.3-1.3l0,0c0.7,0,1.3,0.6,1.3,1.3v39.4
		C390.4,510.5,389.8,511.1,389.1,511.1z"/>
	<path class="st3" d="M394.8,511.1L394.8,511.1c-0.7,0-1.3-0.6-1.3-1.3v-39.4c0-0.7,0.6-1.3,1.3-1.3l0,0c0.7,0,1.3,0.6,1.3,1.3v39.4
		C396.1,510.5,395.5,511.1,394.8,511.1z"/>
	<path class="st3" d="M400.5,511.1L400.5,511.1c-0.7,0-1.3-0.6-1.3-1.3v-39.4c0-0.7,0.6-1.3,1.3-1.3l0,0c0.7,0,1.3,0.6,1.3,1.3v39.4
		C401.8,510.5,401.2,511.1,400.5,511.1z"/>
	<path class="st3" d="M406.1,511.1L406.1,511.1c-0.7,0-1.3-0.6-1.3-1.3v-39.4c0-0.7,0.6-1.3,1.3-1.3l0,0c0.7,0,1.3,0.6,1.3,1.3v39.4
		C407.4,510.5,406.8,511.1,406.1,511.1z"/>
	<path class="st3" d="M411.5,511.1L411.5,511.1c-0.7,0-1.3-0.6-1.3-1.3v-39.4c0-0.7,0.6-1.3,1.3-1.3l0,0c0.7,0,1.3,0.6,1.3,1.3v39.4
		C412.8,510.5,412.3,511.1,411.5,511.1z"/>
	<g>
		<path class="st3" d="M379.5,478.8L379.5,478.8c0-0.7,0.6-1.3,1.3-1.3h39.4c0.7,0,1.3,0.6,1.3,1.3l0,0c0,0.7-0.6,1.3-1.3,1.3h-39.4
			C380.1,480.1,379.5,479.5,379.5,478.8z"/>
		<path class="st3" d="M379.5,484.5L379.5,484.5c0-0.7,0.6-1.3,1.3-1.3h39.4c0.7,0,1.3,0.6,1.3,1.3l0,0c0,0.7-0.6,1.3-1.3,1.3h-39.4
			C380.1,485.8,379.5,485.2,379.5,484.5z"/>
		<path class="st3" d="M379.5,490.2L379.5,490.2c0-0.7,0.6-1.3,1.3-1.3h39.4c0.7,0,1.3,0.6,1.3,1.3l0,0c0,0.7-0.6,1.3-1.3,1.3h-39.4
			C380.1,491.5,379.5,490.9,379.5,490.2z"/>
		<path class="st3" d="M379.5,495.8L379.5,495.8c0-0.7,0.6-1.3,1.3-1.3h39.4c0.7,0,1.3,0.6,1.3,1.3l0,0c0,0.7-0.6,1.3-1.3,1.3h-39.4
			C380.1,497.1,379.5,496.5,379.5,495.8z"/>
		<path class="st3" d="M379.5,501.2L379.5,501.2c0-0.7,0.6-1.3,1.3-1.3h39.4c0.7,0,1.3,0.6,1.3,1.3l0,0c0,0.7-0.6,1.3-1.3,1.3h-39.4
			C380.1,502.5,379.5,502,379.5,501.2z"/>
	</g>
	<path class="st3" d="M413,505.4h-25c-1.6,0-2.8-1.3-2.8-2.8v-25c0-1.6,1.3-2.8,2.8-2.8h25c1.6,0,2.8,1.3,2.8,2.8v25
		C415.8,504.1,414.6,505.4,413,505.4z"/>
	<path class="st4" d="M407.2,500.8h-13.5c-2.3,0-4.1-1.8-4.1-4.1v-13.5c0-2.3,1.8-4.1,4.1-4.1h13.5c2.3,0,4.1,1.8,4.1,4.1v13.5
		C411.3,499,409.5,500.8,407.2,500.8z"/>
	<path class="st3" d="M406.7,498.5h-12.4c-1.3,0-2.3-1-2.3-2.3v-12.4c0-1.3,1-2.3,2.3-2.3h12.4c1.3,0,2.3,1,2.3,2.3v12.4
		C409,497.5,408,498.5,406.7,498.5z"/>
</g>
<g class="st5">
	<path class="st6" d="M368.2,534.1v-1.2c0.1,0.1,0.3,0.2,0.5,0.3s0.4,0.2,0.6,0.2s0.4,0.1,0.6,0.1s0.4,0.1,0.6,0.1
		c0.6,0,1.1-0.1,1.4-0.3s0.4-0.5,0.4-1c0-0.2,0-0.4-0.1-0.6s-0.2-0.3-0.4-0.5s-0.4-0.3-0.6-0.4s-0.5-0.3-0.8-0.4
		c-0.3-0.1-0.6-0.3-0.8-0.5s-0.5-0.3-0.7-0.5s-0.3-0.4-0.4-0.6s-0.2-0.5-0.2-0.8c0-0.4,0.1-0.7,0.3-1s0.4-0.5,0.7-0.7
		s0.6-0.3,0.9-0.4s0.7-0.1,1.1-0.1c0.8,0,1.4,0.1,1.8,0.3v1.1c-0.5-0.3-1.1-0.5-1.9-0.5c-0.2,0-0.4,0-0.6,0.1s-0.4,0.1-0.6,0.2
		s-0.3,0.2-0.4,0.4s-0.2,0.4-0.2,0.6c0,0.2,0,0.4,0.1,0.6s0.2,0.3,0.4,0.4s0.3,0.3,0.6,0.4s0.5,0.3,0.8,0.4c0.3,0.1,0.6,0.3,0.9,0.5
		s0.5,0.3,0.7,0.5s0.4,0.4,0.5,0.7s0.2,0.5,0.2,0.8c0,0.4-0.1,0.8-0.2,1.1s-0.4,0.5-0.7,0.7s-0.6,0.3-1,0.4s-0.7,0.1-1.1,0.1
		c-0.1,0-0.3,0-0.5,0s-0.4-0.1-0.6-0.1s-0.4-0.1-0.6-0.2S368.3,534.2,368.2,534.1z"/>
	<path class="st6" d="M383.4,534.4h-1V531c0-0.7-0.1-1.1-0.3-1.4s-0.5-0.4-1-0.4c-0.4,0-0.8,0.2-1,0.6s-0.4,0.8-0.4,1.3v3.4h-1v-3.6
		c0-1.2-0.5-1.8-1.4-1.8c-0.4,0-0.8,0.2-1,0.5s-0.4,0.8-0.4,1.4v3.4h-1v-6h1v0.9h0c0.4-0.7,1-1.1,1.9-1.1c0.4,0,0.8,0.1,1.1,0.3
		s0.5,0.5,0.6,0.9c0.4-0.8,1.1-1.2,2-1.2c1.3,0,2,0.8,2,2.4V534.4z"/>
	<path class="st6" d="M389.5,534.4h-1v-0.9h0c-0.4,0.7-1,1.1-1.8,1.1c-0.6,0-1.1-0.2-1.4-0.5s-0.5-0.7-0.5-1.3c0-1.1,0.7-1.8,2-2
		l1.8-0.3c0-1-0.4-1.5-1.2-1.5c-0.7,0-1.4,0.2-2,0.7v-1c0.6-0.4,1.3-0.6,2-0.6c1.4,0,2.1,0.7,2.1,2.2V534.4z M388.5,531.4l-1.4,0.2
		c-0.4,0.1-0.8,0.2-1,0.3s-0.3,0.4-0.3,0.8c0,0.3,0.1,0.5,0.3,0.7s0.5,0.3,0.8,0.3c0.5,0,0.9-0.2,1.2-0.5s0.5-0.8,0.5-1.3V531.4z"/>
	<path class="st6" d="M394.4,529.4c-0.2-0.1-0.4-0.2-0.7-0.2c-0.4,0-0.8,0.2-1,0.6s-0.4,0.9-0.4,1.6v3.1h-1v-6h1v1.2h0
		c0.1-0.4,0.3-0.8,0.6-1s0.6-0.4,0.9-0.4c0.3,0,0.4,0,0.6,0.1V529.4z"/>
	<path class="st6" d="M398.2,534.4c-0.2,0.1-0.5,0.2-0.9,0.2c-1.1,0-1.6-0.6-1.6-1.8v-3.6h-1v-0.8h1V527l1-0.3v1.8h1.5v0.8h-1.5v3.4
		c0,0.4,0.1,0.7,0.2,0.9s0.4,0.3,0.7,0.3c0.2,0,0.5-0.1,0.6-0.2V534.4z"/>
	<path class="st6" d="M411.3,534.4h-1V531c0-0.7-0.1-1.1-0.3-1.4s-0.5-0.4-1-0.4c-0.4,0-0.8,0.2-1,0.6s-0.4,0.8-0.4,1.3v3.4h-1v-3.6
		c0-1.2-0.5-1.8-1.4-1.8c-0.4,0-0.8,0.2-1,0.5s-0.4,0.8-0.4,1.4v3.4h-1v-6h1v0.9h0c0.4-0.7,1-1.1,1.9-1.1c0.4,0,0.8,0.1,1.1,0.3
		s0.5,0.5,0.6,0.9c0.4-0.8,1.1-1.2,2-1.2c1.3,0,2,0.8,2,2.4V534.4z"/>
	<path class="st6" d="M418,531.7h-4.2c0,0.7,0.2,1.2,0.5,1.5s0.8,0.5,1.4,0.5c0.7,0,1.3-0.2,1.9-0.7v0.9c-0.5,0.4-1.2,0.6-2.1,0.6
		c-0.8,0-1.5-0.3-2-0.8s-0.7-1.3-0.7-2.3c0-0.9,0.3-1.7,0.8-2.3s1.2-0.9,2-0.9s1.4,0.3,1.8,0.8s0.6,1.2,0.6,2.1V531.7z M417,530.9
		c0-0.6-0.1-1-0.4-1.3s-0.6-0.5-1.1-0.5c-0.5,0-0.8,0.2-1.2,0.5s-0.5,0.7-0.6,1.3H417z"/>
	<path class="st6" d="M422.2,534.4c-0.2,0.1-0.5,0.2-0.9,0.2c-1.1,0-1.6-0.6-1.6-1.8v-3.6h-1v-0.8h1V527l1-0.3v1.8h1.5v0.8h-1.5v3.4
		c0,0.4,0.1,0.7,0.2,0.9s0.4,0.3,0.7,0.3c0.2,0,0.5-0.1,0.6-0.2V534.4z"/>
	<path class="st6" d="M428.3,531.7h-4.2c0,0.7,0.2,1.2,0.5,1.5s0.8,0.5,1.4,0.5c0.7,0,1.3-0.2,1.9-0.7v0.9c-0.5,0.4-1.2,0.6-2.1,0.6
		c-0.8,0-1.5-0.3-2-0.8s-0.7-1.3-0.7-2.3c0-0.9,0.3-1.7,0.8-2.3s1.2-0.9,2-0.9s1.4,0.3,1.8,0.8s0.6,1.2,0.6,2.1V531.7z M427.3,530.9
		c0-0.6-0.1-1-0.4-1.3s-0.6-0.5-1.1-0.5c-0.5,0-0.8,0.2-1.2,0.5s-0.5,0.7-0.6,1.3H427.3z"/>
	<path class="st6" d="M432.9,529.4c-0.2-0.1-0.4-0.2-0.7-0.2c-0.4,0-0.8,0.2-1,0.6s-0.4,0.9-0.4,1.6v3.1h-1v-6h1v1.2h0
		c0.1-0.4,0.3-0.8,0.6-1s0.6-0.4,0.9-0.4c0.3,0,0.4,0,0.6,0.1V529.4z"/>
	<path class="st6" d="M433.6,534.2v-1c0.5,0.4,1.1,0.6,1.7,0.6c0.8,0,1.3-0.3,1.3-0.8c0-0.2,0-0.3-0.1-0.4s-0.2-0.2-0.3-0.3
		s-0.3-0.2-0.4-0.2s-0.3-0.1-0.5-0.2c-0.3-0.1-0.5-0.2-0.7-0.3s-0.4-0.2-0.5-0.4s-0.2-0.3-0.3-0.5s-0.1-0.4-0.1-0.6
		c0-0.3,0.1-0.5,0.2-0.7s0.3-0.4,0.5-0.5s0.5-0.3,0.7-0.3s0.6-0.1,0.9-0.1c0.5,0,1,0.1,1.4,0.3v1c-0.4-0.3-0.9-0.4-1.5-0.4
		c-0.2,0-0.3,0-0.5,0.1s-0.3,0.1-0.4,0.2s-0.2,0.2-0.2,0.3s-0.1,0.2-0.1,0.3c0,0.2,0,0.3,0.1,0.4s0.1,0.2,0.2,0.3s0.2,0.2,0.4,0.2
		s0.3,0.1,0.5,0.2c0.3,0.1,0.5,0.2,0.7,0.3s0.4,0.2,0.5,0.4s0.3,0.3,0.3,0.5s0.1,0.4,0.1,0.6c0,0.3-0.1,0.6-0.2,0.8
		s-0.3,0.4-0.5,0.5s-0.5,0.3-0.8,0.3s-0.6,0.1-0.9,0.1C434.6,534.6,434,534.5,433.6,534.2z"/>
</g>
<path id="XMLID_67_" class="st3" d="M691.7,285.1c0.4,0,0.8,0,1.2,0l0.1,0.1c2.4,0.4,3.9,2.2,3.9,4.6c0,0.7,0,1.4,0,2.1
	c0,0.2,0,0.4,0,0.6c0.2,0,0.4,0,0.5,0c2.2,0,4.4,0,6.5,0c0.4,0,0.7,0,1.1,0.1c1.8,0.4,2.9,1.9,2.9,3.8c0,2.2,0,4.5,0,6.7
	c0,0.1,0,0.3,0,0.5c0.2,0,0.3,0,0.5,0c0.8,0,1.6,0,2.4,0c2.4,0.1,4.2,1.8,4.5,4.2c0.2,2.3-1.3,4.4-3.6,4.9c-0.4,0.1-0.8,0.1-1.2,0.1
	c-0.8,0-1.6,0-2.5,0c0,0.2,0,0.3,0,0.5c0,2.2,0,4.5,0,6.7c0,2.3-1.6,3.9-3.9,3.9c-2.1,0-4.3,0-6.4,0c-0.1,0-0.2,0-0.4,0
	c0-0.8,0-1.6,0-2.3c0-0.4,0-0.8-0.1-1.2c-0.3-2.3-2.4-4.1-4.7-4.2c-2.5-0.1-4.6,1.6-5,3.9c-0.2,1.1-0.1,2.2-0.1,3.2
	c0,0.2,0,0.3,0,0.5c-0.1,0-0.2,0-0.2,0c-2.3,0-4.6,0-6.9,0c-1,0-1.8-0.4-2.5-1.1c-0.6-0.6-0.8-1.3-1-2c0-2.5,0-5,0-7.5c1,0,2,0,3,0
	c0.3,0,0.6,0,0.8-0.1c2.3-0.5,4-2.6,3.9-5c-0.1-2.4-1.8-4.4-4.2-4.7c-1.2-0.1-2.4-0.1-3.5-0.1c0-2.5,0-5,0-7.5
	c0.1-0.2,0.1-0.4,0.2-0.6c0.5-1.5,1.9-2.5,3.7-2.5c2.2,0,4.4,0,6.6,0c0.1,0,0.3,0,0.5,0c0-0.2,0-0.3,0-0.4c0-0.8,0-1.5,0-2.3
	c0-1.8,0.8-3.1,2.3-4C690.6,285.4,691.2,285.3,691.7,285.1z"/>
<path id="XMLID_1_" class="st7" d="M650.2,285.1c0.4,0,0.8,0,1.2,0l0.1,0.1c2.4,0.4,3.9,2.2,3.9,4.6c0,0.7,0,1.4,0,2.1
	c0,0.2,0,0.4,0,0.6c0.2,0,0.4,0,0.5,0c2.2,0,4.4,0,6.5,0c0.4,0,0.7,0,1.1,0.1c1.8,0.4,2.9,1.9,2.9,3.8c0,2.2,0,4.5,0,6.7
	c0,0.1,0,0.3,0,0.5c0.2,0,0.3,0,0.5,0c0.8,0,1.6,0,2.4,0c2.4,0.1,4.2,1.8,4.5,4.2c0.2,2.3-1.3,4.4-3.6,4.9c-0.4,0.1-0.8,0.1-1.2,0.1
	c-0.8,0-1.6,0-2.5,0c0,0.2,0,0.3,0,0.5c0,2.2,0,4.5,0,6.7c0,2.3-1.6,3.9-3.9,3.9c-2.1,0-4.3,0-6.4,0c-0.1,0-0.2,0-0.4,0
	c0-0.8,0-1.6,0-2.3c0-0.4,0-0.8-0.1-1.2c-0.3-2.3-2.4-4.1-4.7-4.2c-2.5-0.1-4.6,1.6-5,3.9c-0.2,1.1-0.1,2.2-0.1,3.2
	c0,0.2,0,0.3,0,0.5c-0.1,0-0.2,0-0.2,0c-2.3,0-4.6,0-6.9,0c-1,0-1.8-0.4-2.5-1.1c-0.6-0.6-0.8-1.3-1-2c0-2.5,0-5,0-7.5c1,0,2,0,3,0
	c0.3,0,0.6,0,0.8-0.1c2.3-0.5,4-2.6,3.9-5c-0.1-2.4-1.8-4.4-4.2-4.7c-1.2-0.1-2.4-0.1-3.5-0.1c0-2.5,0-5,0-7.5
	c0.1-0.2,0.1-0.4,0.2-0.6c0.5-1.5,1.9-2.5,3.7-2.5c2.2,0,4.4,0,6.6,0c0.1,0,0.3,0,0.5,0c0-0.2,0-0.3,0-0.4c0-0.8,0-1.5,0-2.3
	c0-1.8,0.8-3.1,2.3-4C649.1,285.4,649.7,285.3,650.2,285.1z"/>
<path class="st2" d="M1012.4,420.1h-92c-6.6,0-12-5.4-12-12v-75.9c0-6.6,5.4-12,12-12h92c6.6,0,12,5.4,12,12v75.9
	C1024.4,414.7,1019,420.1,1012.4,420.1z"/>
<g class="st5">
	<path class="st6" d="M931.2,411.7v-8.4h2.3c3,0,4.4,1.4,4.4,4.1c0,1.3-0.4,2.3-1.2,3.1s-1.9,1.2-3.3,1.2H931.2z M932.1,404.2v6.6
		h1.3c1.1,0,2-0.3,2.6-0.9s0.9-1.4,0.9-2.5c0-2.2-1.1-3.2-3.4-3.2H932.1z"/>
	<path class="st6" d="M946.1,411.7H945l-0.9-2.4h-3.6l-0.8,2.4h-1.1l3.2-8.4h1L946.1,411.7z M943.8,408.5l-1.3-3.6
		c0-0.1-0.1-0.3-0.1-0.6h0c0,0.2-0.1,0.4-0.1,0.6l-1.3,3.6H943.8z"/>
	<path class="st6" d="M946.9,411.4v-1.2c0.1,0.1,0.3,0.2,0.5,0.3s0.4,0.2,0.6,0.2s0.4,0.1,0.6,0.1s0.4,0.1,0.6,0.1
		c0.6,0,1.1-0.1,1.4-0.3s0.4-0.5,0.4-1c0-0.2,0-0.4-0.1-0.6s-0.2-0.3-0.4-0.5s-0.4-0.3-0.6-0.4s-0.5-0.3-0.8-0.4
		c-0.3-0.1-0.6-0.3-0.8-0.5s-0.5-0.3-0.7-0.5s-0.3-0.4-0.4-0.6s-0.2-0.5-0.2-0.8c0-0.4,0.1-0.7,0.3-1s0.4-0.5,0.7-0.7
		s0.6-0.3,0.9-0.4s0.7-0.1,1.1-0.1c0.8,0,1.4,0.1,1.8,0.3v1.1c-0.5-0.3-1.1-0.5-1.9-0.5c-0.2,0-0.4,0-0.6,0.1s-0.4,0.1-0.6,0.2
		s-0.3,0.2-0.4,0.4s-0.2,0.4-0.2,0.6c0,0.2,0,0.4,0.1,0.6s0.2,0.3,0.4,0.4s0.3,0.3,0.6,0.4s0.5,0.3,0.8,0.4c0.3,0.1,0.6,0.3,0.9,0.5
		s0.5,0.3,0.7,0.5s0.4,0.4,0.5,0.7s0.2,0.5,0.2,0.8c0,0.4-0.1,0.8-0.2,1.1s-0.4,0.5-0.7,0.7s-0.6,0.3-1,0.4s-0.7,0.1-1.1,0.1
		c-0.1,0-0.3,0-0.5,0s-0.4-0.1-0.6-0.1s-0.4-0.1-0.6-0.2S947,411.5,946.9,411.4z"/>
	<path class="st6" d="M960,411.7h-1v-3.8h-4.3v3.8h-1v-8.4h1v3.7h4.3v-3.7h1V411.7z"/>
	<path class="st6" d="M962.2,411.7v-8.4h2.4c0.7,0,1.3,0.2,1.7,0.5s0.6,0.8,0.6,1.4c0,0.5-0.1,0.9-0.4,1.2s-0.6,0.6-1.1,0.8v0
		c0.6,0.1,1,0.3,1.4,0.6s0.5,0.8,0.5,1.4c0,0.7-0.3,1.3-0.8,1.7s-1.2,0.7-2,0.7H962.2z M963.2,404.2v2.7h1c0.5,0,1-0.1,1.3-0.4
		s0.5-0.6,0.5-1.1c0-0.8-0.5-1.2-1.6-1.2H963.2z M963.2,407.8v3h1.3c0.6,0,1-0.1,1.3-0.4s0.5-0.6,0.5-1.1c0-1-0.7-1.5-2-1.5H963.2z"
		/>
	<path class="st6" d="M972.5,411.9c-1.2,0-2.1-0.4-2.9-1.2s-1.1-1.8-1.1-3.1c0-1.4,0.4-2.4,1.1-3.2s1.7-1.2,3-1.2
		c1.2,0,2.1,0.4,2.8,1.2s1.1,1.8,1.1,3.1c0,1.4-0.4,2.5-1.1,3.3S973.7,411.9,972.5,411.9z M972.5,404.1c-0.9,0-1.6,0.3-2.2,1
		s-0.8,1.5-0.8,2.5s0.3,1.9,0.8,2.5s1.2,0.9,2.1,0.9c0.9,0,1.6-0.3,2.2-0.9s0.8-1.4,0.8-2.5c0-1.1-0.3-2-0.8-2.6
		S973.4,404.1,972.5,404.1z"/>
	<path class="st6" d="M984.6,411.7h-1.1l-0.9-2.4h-3.6l-0.8,2.4h-1.1l3.2-8.4h1L984.6,411.7z M982.3,408.5l-1.3-3.6
		c0-0.1-0.1-0.3-0.1-0.6h0c0,0.2-0.1,0.4-0.1,0.6l-1.3,3.6H982.3z"/>
	<path class="st6" d="M991.9,411.7h-1.2l-1.4-2.4c-0.1-0.2-0.3-0.4-0.4-0.6s-0.2-0.3-0.4-0.4s-0.3-0.2-0.4-0.2s-0.3-0.1-0.5-0.1
		h-0.8v3.6h-1v-8.4h2.5c0.4,0,0.7,0,1,0.1s0.6,0.2,0.8,0.4s0.4,0.4,0.5,0.7s0.2,0.6,0.2,1c0,0.3,0,0.6-0.1,0.8s-0.2,0.5-0.4,0.7
		s-0.4,0.4-0.6,0.5s-0.5,0.2-0.8,0.3v0c0.1,0.1,0.3,0.1,0.4,0.2s0.2,0.2,0.3,0.3s0.2,0.2,0.3,0.4s0.2,0.3,0.3,0.5L991.9,411.7z
		 M986.9,404.2v3h1.3c0.2,0,0.5,0,0.7-0.1s0.4-0.2,0.5-0.3s0.3-0.3,0.4-0.5s0.1-0.4,0.1-0.7c0-0.4-0.1-0.8-0.4-1.1s-0.7-0.4-1.3-0.4
		H986.9z"/>
	<path class="st6" d="M993,411.7v-8.4h2.3c3,0,4.4,1.4,4.4,4.1c0,1.3-0.4,2.3-1.2,3.1s-1.9,1.2-3.3,1.2H993z M994,404.2v6.6h1.3
		c1.1,0,2-0.3,2.6-0.9s0.9-1.4,0.9-2.5c0-2.2-1.1-3.2-3.4-3.2H994z"/>
	<path class="st6" d="M1001.1,411.4v-1.2c0.1,0.1,0.3,0.2,0.5,0.3s0.4,0.2,0.6,0.2s0.4,0.1,0.6,0.1s0.4,0.1,0.6,0.1
		c0.6,0,1.1-0.1,1.4-0.3s0.4-0.5,0.4-1c0-0.2,0-0.4-0.1-0.6s-0.2-0.3-0.4-0.5s-0.4-0.3-0.6-0.4s-0.5-0.3-0.8-0.4
		c-0.3-0.1-0.6-0.3-0.8-0.5s-0.5-0.3-0.7-0.5s-0.3-0.4-0.4-0.6s-0.2-0.5-0.2-0.8c0-0.4,0.1-0.7,0.3-1s0.4-0.5,0.7-0.7
		s0.6-0.3,0.9-0.4s0.7-0.1,1.1-0.1c0.8,0,1.4,0.1,1.8,0.3v1.1c-0.5-0.3-1.1-0.5-1.9-0.5c-0.2,0-0.4,0-0.6,0.1s-0.4,0.1-0.6,0.2
		s-0.3,0.2-0.4,0.4s-0.2,0.4-0.2,0.6c0,0.2,0,0.4,0.1,0.6s0.2,0.3,0.4,0.4s0.3,0.3,0.6,0.4s0.5,0.3,0.8,0.4c0.3,0.1,0.6,0.3,0.9,0.5
		s0.5,0.3,0.7,0.5s0.4,0.4,0.5,0.7s0.2,0.5,0.2,0.8c0,0.4-0.1,0.8-0.2,1.1s-0.4,0.5-0.7,0.7s-0.6,0.3-1,0.4s-0.7,0.1-1.1,0.1
		c-0.1,0-0.3,0-0.5,0s-0.4-0.1-0.6-0.1s-0.4-0.1-0.6-0.2S1001.2,411.5,1001.1,411.4z"/>
</g>
<path class="st2" d="M1012.4,531.4h-92c-6.6,0-12-5.4-12-12v-75.9c0-6.6,5.4-12,12-12h92c6.6,0,12,5.4,12,12v75.9
	C1024.4,526,1019,531.4,1012.4,531.4z"/>
<g class="st5">
	<path class="st6" d="M938.5,519.7h-1.2l-1.4-2.4c-0.1-0.2-0.3-0.4-0.4-0.6s-0.2-0.3-0.4-0.4s-0.3-0.2-0.4-0.2s-0.3-0.1-0.5-0.1
		h-0.8v3.6h-1v-8.4h2.5c0.4,0,0.7,0,1,0.1s0.6,0.2,0.8,0.4s0.4,0.4,0.5,0.7s0.2,0.6,0.2,1c0,0.3,0,0.6-0.1,0.8s-0.2,0.5-0.4,0.7
		s-0.4,0.4-0.6,0.5s-0.5,0.2-0.8,0.3v0c0.1,0.1,0.3,0.1,0.4,0.2s0.2,0.2,0.3,0.3s0.2,0.2,0.3,0.4s0.2,0.3,0.3,0.5L938.5,519.7z
		 M933.5,512.2v3h1.3c0.2,0,0.5,0,0.7-0.1s0.4-0.2,0.5-0.3s0.3-0.3,0.4-0.5s0.1-0.4,0.1-0.7c0-0.4-0.1-0.8-0.4-1.1s-0.7-0.4-1.3-0.4
		H933.5z"/>
	<path class="st6" d="M945.8,516.3c0,2.4-1.1,3.5-3.2,3.5c-2,0-3.1-1.1-3.1-3.4v-5.1h1v5.1c0,1.7,0.7,2.6,2.2,2.6
		c1.4,0,2.1-0.8,2.1-2.5v-5.2h1V516.3z"/>
	<path class="st6" d="M952.3,519.7h-4.4v-8.4h1v7.5h3.4V519.7z"/>
	<path class="st6" d="M958,519.7h-4.5v-8.4h4.3v0.9h-3.3v2.8h3v0.9h-3v2.9h3.5V519.7z"/>
	<path class="st6" d="M967.4,519.7H963v-8.4h4.3v0.9h-3.3v2.8h3v0.9h-3v2.9h3.5V519.7z"/>
	<path class="st6" d="M975.8,519.7h-1.2l-4.3-6.7c-0.1-0.2-0.2-0.3-0.3-0.5h0c0,0.2,0,0.6,0,1.2v6.1h-1v-8.4h1.3l4.2,6.6
		c0.2,0.3,0.3,0.5,0.3,0.6h0c0-0.2-0.1-0.7-0.1-1.2v-5.9h1V519.7z"/>
	<path class="st6" d="M984.3,519.1c-0.8,0.5-1.8,0.7-2.8,0.7c-1.2,0-2.2-0.4-2.9-1.2s-1.1-1.8-1.1-3.1c0-1.3,0.4-2.4,1.2-3.2
		s1.9-1.3,3.1-1.3c0.9,0,1.7,0.1,2.3,0.4v1.1c-0.7-0.4-1.5-0.6-2.4-0.6c-0.9,0-1.7,0.3-2.3,1s-0.9,1.5-0.9,2.5
		c0,1.1,0.3,1.9,0.8,2.5s1.3,0.9,2.3,0.9c0.7,0,1.2-0.1,1.7-0.4v-2.4h-1.8v-0.9h2.8V519.1z"/>
	<path class="st6" d="M988,511.3v0.8h-0.8v6.7h0.8v0.8h-2.6v-0.8h0.8v-6.7h-0.8v-0.8H988z"/>
	<path class="st6" d="M996.2,519.7H995l-4.3-6.7c-0.1-0.2-0.2-0.3-0.3-0.5h0c0,0.2,0,0.6,0,1.2v6.1h-1v-8.4h1.3l4.2,6.6
		c0.2,0.3,0.3,0.5,0.3,0.6h0c0-0.2-0.1-0.7-0.1-1.2v-5.9h1V519.7z"/>
	<path class="st6" d="M1002.9,519.7h-4.5v-8.4h4.3v0.9h-3.3v2.8h3v0.9h-3v2.9h3.5V519.7z"/>
</g>
<line class="st8" x1="472.7" y1="290.9" x2="579.1" y2="290.9"/>
<g>
	<line class="st8" x1="472.4" y1="290.9" x2="476.5" y2="285.9"/>
	<line class="st8" x1="472.4" y1="290.9" x2="476.5" y2="295.7"/>
</g>
<g>
	<line class="st8" x1="579.3" y1="290.9" x2="575.2" y2="285.9"/>
	<line class="st8" x1="579.3" y1="290.9" x2="575.1" y2="295.7"/>
</g>
<line class="st8" x1="749.1" y1="327.7" x2="861.5" y2="327.7"/>
<g>
	<line class="st8" x1="749.1" y1="327.7" x2="753.2" y2="322.8"/>
	<line class="st8" x1="749.1" y1="327.7" x2="753.2" y2="332.6"/>
</g>
<g>
	<line class="st8" x1="861.7" y1="327.7" x2="857.6" y2="322.8"/>
	<line class="st8" x1="861.7" y1="327.7" x2="857.6" y2="332.6"/>
</g>
<line class="st8" x1="1062.1" y1="472.7" x2="1118.7" y2="472.7"/>
<g>
	<line class="st8" x1="1062.1" y1="472.7" x2="1066.2" y2="467.8"/>
	<line class="st8" x1="1062.1" y1="472.7" x2="1066.2" y2="477.6"/>
</g>
<g>
	<line class="st8" x1="1118.7" y1="472.7" x2="1114.6" y2="467.8"/>
	<line class="st8" x1="1118.7" y1="472.7" x2="1114.6" y2="477.6"/>
</g>
<line class="st8" x1="1062.1" y1="364.7" x2="1118.7" y2="364.7"/>
<g>
	<line class="st8" x1="1062.1" y1="364.7" x2="1066.2" y2="359.7"/>
	<line class="st8" x1="1062.1" y1="364.7" x2="1066.2" y2="369.6"/>
</g>
<g>
	<line class="st8" x1="1118.7" y1="364.7" x2="1114.6" y2="359.7"/>
	<line class="st8" x1="1118.7" y1="364.7" x2="1114.6" y2="369.6"/>
</g>
<line class="st8" x1="472.7" y1="314.6" x2="579.1" y2="314.6"/>
<g>
	<line class="st8" x1="472.4" y1="314.6" x2="476.5" y2="309.7"/>
	<line class="st8" x1="472.4" y1="314.6" x2="476.5" y2="319.5"/>
</g>
<g>
	<line class="st8" x1="579.3" y1="314.6" x2="575.2" y2="309.7"/>
	<line class="st8" x1="579.3" y1="314.6" x2="575.1" y2="319.5"/>
</g>
<line class="st8" x1="472.7" y1="337.5" x2="579.1" y2="337.5"/>
<g>
	<line class="st8" x1="472.4" y1="337.5" x2="476.5" y2="332.5"/>
	<line class="st8" x1="472.4" y1="337.5" x2="476.5" y2="342.4"/>
</g>
<g>
	<line class="st8" x1="579.3" y1="337.5" x2="575.2" y2="332.5"/>
	<line class="st8" x1="579.3" y1="337.5" x2="575.1" y2="342.4"/>
</g>
<line class="st8" x1="472.7" y1="361" x2="579.1" y2="361"/>
<g>
	<line class="st8" x1="472.4" y1="361" x2="476.5" y2="356.1"/>
	<line class="st8" x1="472.4" y1="361" x2="476.5" y2="365.9"/>
</g>
<line class="st8" x1="448.8" y1="388.5" x2="606.3" y2="388.5"/>
<line class="st8" x1="448.8" y1="388.5" x2="448.8" y2="371.5"/>
<g>
	<line class="st8" x1="448.7" y1="371" x2="453.7" y2="375.1"/>
	<line class="st8" x1="448.7" y1="371" x2="443.8" y2="375.1"/>
</g>
<line class="st8" x1="606.3" y1="388.5" x2="606.3" y2="371.5"/>
<g>
	<line class="st8" x1="606.3" y1="371" x2="611.2" y2="375.1"/>
	<line class="st8" x1="606.3" y1="371" x2="601.4" y2="375.1"/>
</g>
<g>
	<line class="st8" x1="579.3" y1="361" x2="575.2" y2="356.1"/>
	<line class="st8" x1="579.3" y1="361" x2="575.1" y2="365.9"/>
</g>
<line class="st8" x1="476.5" y1="497.1" x2="862" y2="497.1"/>
<g>
	<line class="st8" x1="476.5" y1="497.1" x2="480.6" y2="492.2"/>
	<line class="st8" x1="476.5" y1="497.1" x2="480.6" y2="502"/>
</g>
<g>
	<line class="st8" x1="862" y1="497.1" x2="857.9" y2="492.2"/>
	<line class="st8" x1="862" y1="497.1" x2="857.9" y2="502"/>
</g>
<path class="st9" d="M557.9,295.8h-60.8c-2.7,0-4.9-2.2-4.9-4.9l0,0c0-2.7,2.2-4.9,4.9-4.9h60.8c2.7,0,4.9,2.2,4.9,4.9l0,0
	C562.8,293.6,560.6,295.8,557.9,295.8z"/>
<path class="st9" d="M557.9,319.5h-60.8c-2.7,0-4.9-2.2-4.9-4.9l0,0c0-2.7,2.2-4.9,4.9-4.9h60.8c2.7,0,4.9,2.2,4.9,4.9l0,0
	C562.8,317.3,560.6,319.5,557.9,319.5z"/>
<path class="st9" d="M557.9,342.4h-60.8c-2.7,0-4.9-2.2-4.9-4.9l0,0c0-2.7,2.2-4.9,4.9-4.9h60.8c2.7,0,4.9,2.2,4.9,4.9l0,0
	C562.8,340.2,560.6,342.4,557.9,342.4z"/>
<path class="st9" d="M557.9,365.9h-60.8c-2.7,0-4.9-2.2-4.9-4.9l0,0c0-2.7,2.2-4.9,4.9-4.9h60.8c2.7,0,4.9,2.2,4.9,4.9l0,0
	C562.8,363.7,560.6,365.9,557.9,365.9z"/>
<path class="st9" d="M557.9,393.4h-60.8c-2.7,0-4.9-2.2-4.9-4.9l0,0c0-2.7,2.2-4.9,4.9-4.9h60.8c2.7,0,4.9,2.2,4.9,4.9l0,0
	C562.8,391.2,560.6,393.4,557.9,393.4z"/>
<path class="st9" d="M630.1,502h-49c-2.7,0-4.9-2.2-4.9-4.9l0,0c0-2.7,2.2-4.9,4.9-4.9h49c2.7,0,4.9,2.2,4.9,4.9l0,0
	C635,499.8,632.8,502,630.1,502z"/>
<path class="st9" d="M693.3,502h-49c-2.7,0-4.9-2.2-4.9-4.9l0,0c0-2.7,2.2-4.9,4.9-4.9h49c2.7,0,4.9,2.2,4.9,4.9l0,0
	C698.3,499.8,696,502,693.3,502z"/>
<path class="st9" d="M756.8,502h-49c-2.7,0-4.9-2.2-4.9-4.9l0,0c0-2.7,2.2-4.9,4.9-4.9h49c2.7,0,4.9,2.2,4.9,4.9l0,0
	C761.8,499.8,759.5,502,756.8,502z"/>
<g class="st5">
	<path class="st4" d="M514,293.7v-0.9c0.1,0.1,0.2,0.2,0.4,0.2s0.3,0.1,0.4,0.2c0.2,0,0.3,0.1,0.5,0.1s0.3,0,0.4,0
		c0.5,0,0.8-0.1,1-0.3c0.2-0.2,0.3-0.4,0.3-0.7c0-0.2,0-0.3-0.1-0.4c-0.1-0.1-0.2-0.2-0.3-0.3c-0.1-0.1-0.3-0.2-0.5-0.3
		c-0.2-0.1-0.4-0.2-0.6-0.3c-0.2-0.1-0.4-0.2-0.6-0.3c-0.2-0.1-0.4-0.2-0.5-0.4s-0.3-0.3-0.3-0.5c-0.1-0.2-0.1-0.4-0.1-0.6
		c0-0.3,0.1-0.5,0.2-0.7c0.1-0.2,0.3-0.4,0.5-0.5s0.4-0.2,0.7-0.3c0.3-0.1,0.5-0.1,0.8-0.1c0.6,0,1.1,0.1,1.4,0.2v0.8
		c-0.4-0.3-0.8-0.4-1.4-0.4c-0.2,0-0.3,0-0.5,0.1c-0.2,0-0.3,0.1-0.4,0.2s-0.2,0.2-0.3,0.3s-0.1,0.3-0.1,0.4c0,0.2,0,0.3,0.1,0.4
		c0.1,0.1,0.1,0.2,0.3,0.3s0.3,0.2,0.4,0.3c0.2,0.1,0.4,0.2,0.6,0.3c0.2,0.1,0.4,0.2,0.6,0.4s0.4,0.3,0.5,0.4
		c0.2,0.1,0.3,0.3,0.4,0.5c0.1,0.2,0.1,0.4,0.1,0.6c0,0.3-0.1,0.6-0.2,0.8c-0.1,0.2-0.3,0.4-0.5,0.5c-0.2,0.1-0.4,0.2-0.7,0.3
		c-0.3,0.1-0.6,0.1-0.9,0.1c-0.1,0-0.2,0-0.4,0c-0.1,0-0.3,0-0.4-0.1c-0.2,0-0.3-0.1-0.4-0.1C514.2,293.8,514.1,293.7,514,293.7z"/>
	<path class="st4" d="M520.5,287.6v0.6h-0.6v5h0.6v0.6h-2v-0.6h0.6v-5h-0.6v-0.6H520.5z"/>
	<path class="st4" d="M526.2,293.5c-0.6,0.4-1.3,0.5-2.1,0.5c-0.9,0-1.6-0.3-2.2-0.9c-0.6-0.6-0.8-1.3-0.8-2.3c0-1,0.3-1.8,0.9-2.4
		c0.6-0.6,1.4-0.9,2.3-0.9c0.7,0,1.3,0.1,1.7,0.3v0.8c-0.5-0.3-1.1-0.5-1.8-0.5c-0.7,0-1.3,0.2-1.7,0.7s-0.7,1.1-0.7,1.9
		c0,0.8,0.2,1.4,0.6,1.9c0.4,0.5,1,0.7,1.7,0.7c0.5,0,0.9-0.1,1.3-0.3v-1.8h-1.4v-0.7h2.1V293.5z"/>
	<path class="st4" d="M530.9,288.3h-2.5v2.2h2.3v0.7h-2.3v2.8h-0.7v-6.3h3.2V288.3z"/>
	<path class="st4" d="M534.6,294c-0.9,0-1.6-0.3-2.1-0.9c-0.5-0.6-0.8-1.4-0.8-2.3c0-1,0.3-1.8,0.8-2.4s1.3-0.9,2.2-0.9
		c0.9,0,1.6,0.3,2.1,0.9c0.5,0.6,0.8,1.4,0.8,2.3c0,1-0.3,1.8-0.8,2.4S535.5,294,534.6,294z M534.7,288.2c-0.7,0-1.2,0.2-1.6,0.7
		c-0.4,0.5-0.6,1.1-0.6,1.9c0,0.8,0.2,1.4,0.6,1.9c0.4,0.5,0.9,0.7,1.6,0.7c0.7,0,1.2-0.2,1.6-0.7s0.6-1.1,0.6-1.9
		c0-0.8-0.2-1.5-0.6-1.9C535.9,288.4,535.3,288.2,534.7,288.2z"/>
	<path class="st4" d="M543.2,293.9h-0.9l-1.5-2.4c0-0.1-0.1-0.2-0.1-0.3h0c0,0.1-0.1,0.2-0.1,0.3l-1.5,2.4h-0.9l2.1-3.2l-1.9-3.1
		h0.9l1.3,2.2c0.1,0.1,0.2,0.3,0.2,0.4h0c0.1-0.2,0.2-0.3,0.2-0.5l1.3-2.2h0.8l-2,3.1L543.2,293.9z"/>
</g>
<g class="st5">
	<path class="st4" d="M522.6,318.1h-3.3v-6.3h0.7v5.6h2.5V318.1z"/>
	<path class="st4" d="M525.3,318.2c-0.7,0-1.2-0.2-1.6-0.6c-0.4-0.4-0.6-1-0.6-1.7c0-0.8,0.2-1.3,0.6-1.8c0.4-0.4,1-0.6,1.7-0.6
		c0.7,0,1.2,0.2,1.6,0.6c0.4,0.4,0.6,1,0.6,1.7c0,0.7-0.2,1.3-0.6,1.7C526.6,318,526,318.2,525.3,318.2z M525.4,314.1
		c-0.5,0-0.8,0.2-1.1,0.5c-0.3,0.3-0.4,0.7-0.4,1.3c0,0.5,0.1,1,0.4,1.3c0.3,0.3,0.6,0.5,1.1,0.5c0.5,0,0.8-0.2,1.1-0.5
		c0.3-0.3,0.4-0.7,0.4-1.3c0-0.6-0.1-1-0.4-1.3C526.2,314.2,525.9,314.1,525.4,314.1z"/>
	<path class="st4" d="M533.4,318.1h-0.9l-1.1-1.8c-0.1-0.2-0.2-0.3-0.3-0.4c-0.1-0.1-0.2-0.2-0.3-0.3s-0.2-0.1-0.3-0.2
		c-0.1,0-0.2-0.1-0.4-0.1h-0.6v2.7h-0.7v-6.3h1.9c0.3,0,0.5,0,0.8,0.1c0.2,0.1,0.4,0.2,0.6,0.3c0.2,0.1,0.3,0.3,0.4,0.5
		c0.1,0.2,0.1,0.5,0.1,0.7c0,0.2,0,0.4-0.1,0.6c-0.1,0.2-0.2,0.3-0.3,0.5c-0.1,0.1-0.3,0.3-0.4,0.4c-0.2,0.1-0.4,0.2-0.6,0.2v0
		c0.1,0,0.2,0.1,0.3,0.2c0.1,0.1,0.2,0.1,0.2,0.2s0.1,0.2,0.2,0.3c0.1,0.1,0.1,0.2,0.2,0.4L533.4,318.1z M529.6,312.4v2.3h1
		c0.2,0,0.4,0,0.5-0.1s0.3-0.1,0.4-0.2c0.1-0.1,0.2-0.2,0.3-0.4c0.1-0.2,0.1-0.3,0.1-0.5c0-0.3-0.1-0.6-0.3-0.8
		c-0.2-0.2-0.5-0.3-0.9-0.3H529.6z"/>
	<path class="st4" d="M537.3,318.1h-0.7v-0.7h0c-0.3,0.5-0.8,0.8-1.4,0.8c-0.4,0-0.8-0.1-1.1-0.4c-0.3-0.2-0.4-0.6-0.4-0.9
		c0-0.8,0.5-1.3,1.5-1.5l1.3-0.2c0-0.8-0.3-1.1-0.9-1.1c-0.5,0-1,0.2-1.5,0.6v-0.7c0.4-0.3,1-0.4,1.5-0.4c1.1,0,1.6,0.6,1.6,1.7
		V318.1z M536.6,315.8l-1.1,0.1c-0.3,0-0.6,0.1-0.8,0.2c-0.2,0.1-0.3,0.3-0.3,0.6c0,0.2,0.1,0.4,0.2,0.5c0.2,0.1,0.4,0.2,0.6,0.2
		c0.4,0,0.7-0.1,0.9-0.4c0.2-0.3,0.3-0.6,0.3-1V315.8z"/>
</g>
<g class="st5">
	<path class="st4" d="M517.4,334.8l-3.7,5.5h3.6v0.7h-4.7v-0.2l3.7-5.4h-3.4v-0.7h4.5V334.8z"/>
	<path class="st4" d="M519.8,334.6v0.6h-0.6v5h0.6v0.6h-2v-0.6h0.6v-5h-0.6v-0.6H519.8z"/>
	<path class="st4" d="M525.6,340.5c-0.6,0.4-1.3,0.5-2.1,0.5c-0.9,0-1.6-0.3-2.2-0.9c-0.6-0.6-0.8-1.3-0.8-2.3c0-1,0.3-1.8,0.9-2.4
		c0.6-0.6,1.4-0.9,2.3-0.9c0.7,0,1.3,0.1,1.7,0.3v0.8c-0.5-0.3-1.1-0.5-1.8-0.5c-0.7,0-1.3,0.2-1.7,0.7s-0.7,1.1-0.7,1.9
		c0,0.8,0.2,1.4,0.6,1.9c0.4,0.5,1,0.7,1.7,0.7c0.5,0,0.9-0.1,1.3-0.3v-1.8h-1.4v-0.7h2.1V340.5z"/>
	<path class="st4" d="M527,340.9v-6.3h1.8c0.5,0,1,0.1,1.3,0.4c0.3,0.3,0.5,0.6,0.5,1c0,0.4-0.1,0.7-0.3,0.9s-0.5,0.5-0.8,0.6v0
		c0.4,0,0.8,0.2,1,0.5c0.3,0.3,0.4,0.6,0.4,1.1c0,0.5-0.2,1-0.6,1.3s-0.9,0.5-1.5,0.5H527z M527.8,335.3v2h0.8c0.4,0,0.7-0.1,1-0.3
		c0.2-0.2,0.3-0.5,0.3-0.8c0-0.6-0.4-0.9-1.2-0.9H527.8z M527.8,338v2.3h1c0.4,0,0.8-0.1,1-0.3c0.2-0.2,0.4-0.5,0.4-0.8
		c0-0.7-0.5-1.1-1.5-1.1H527.8z"/>
	<path class="st4" d="M535.5,340.9h-3.3v-6.3h3.2v0.7h-2.5v2.1h2.3v0.7h-2.3v2.2h2.6V340.9z"/>
	<path class="st4" d="M540.1,340.9h-3.3v-6.3h3.2v0.7h-2.5v2.1h2.3v0.7h-2.3v2.2h2.6V340.9z"/>
</g>
<g class="st5">
	<path class="st4" d="M601.1,500.1h-0.7v-4.2c0-0.3,0-0.7,0.1-1.2h0c-0.1,0.3-0.1,0.5-0.2,0.6l-2.2,4.8h-0.4l-2.1-4.8
		c-0.1-0.1-0.1-0.4-0.2-0.6h0c0,0.3,0,0.7,0,1.2v4.2h-0.7v-6.3h1l1.9,4.4c0.1,0.3,0.2,0.6,0.3,0.8h0c0.1-0.3,0.2-0.6,0.3-0.8l2-4.4
		h0.9V500.1z"/>
	<path class="st4" d="M605.2,500.3c-0.2,0-0.4,0-0.6-0.1c-0.2,0-0.4-0.1-0.6-0.2c-0.2-0.1-0.4-0.2-0.5-0.3c-0.2-0.1-0.3-0.2-0.5-0.4
		c-0.5-0.6-0.8-1.4-0.8-2.3c0-1,0.3-1.8,0.8-2.4c0.6-0.6,1.3-0.9,2.3-0.9c0.9,0,1.5,0.3,2.1,0.9s0.8,1.4,0.8,2.3
		c0,0.4,0,0.8-0.1,1.1c-0.1,0.4-0.2,0.7-0.4,1s-0.4,0.5-0.7,0.7c-0.3,0.2-0.6,0.3-1,0.4c0.2,0.2,0.3,0.3,0.4,0.4
		c0.1,0.1,0.3,0.2,0.4,0.3c0.1,0.1,0.3,0.2,0.4,0.2s0.3,0.1,0.5,0.1c0,0,0.1,0,0.2,0c0.1,0,0.1,0,0.2,0c0.1,0,0.1,0,0.2,0
		c0.1,0,0.1,0,0.1,0v0.7c0,0-0.1,0-0.2,0c-0.1,0-0.1,0-0.2,0c-0.1,0-0.1,0-0.2,0c-0.1,0-0.1,0-0.2,0c-0.3,0-0.5,0-0.8-0.1
		c-0.2-0.1-0.4-0.2-0.6-0.3c-0.2-0.1-0.4-0.3-0.6-0.5S605.4,500.5,605.2,500.3z M605.3,494.4c-0.7,0-1.2,0.2-1.6,0.7
		c-0.4,0.5-0.6,1.1-0.6,1.9c0,0.8,0.2,1.4,0.6,1.9c0.4,0.5,0.9,0.7,1.6,0.7c0.7,0,1.2-0.2,1.6-0.7s0.6-1.1,0.6-1.9
		c0-0.8-0.2-1.5-0.6-1.9C606.5,494.6,606,494.4,605.3,494.4z"/>
	<path class="st4" d="M613.2,494.5h-1.8v5.6h-0.7v-5.6h-1.8v-0.7h4.4V494.5z"/>
	<path class="st4" d="M617.9,494.5h-1.8v5.6h-0.7v-5.6h-1.8v-0.7h4.4V494.5z"/>
</g>
<g class="st5">
	<path class="st4" d="M504.3,364.5v-6.3h1.8c0.5,0,1,0.1,1.3,0.4c0.3,0.3,0.5,0.6,0.5,1c0,0.4-0.1,0.7-0.3,0.9s-0.5,0.5-0.8,0.6v0
		c0.4,0,0.8,0.2,1,0.5c0.3,0.3,0.4,0.6,0.4,1.1c0,0.5-0.2,1-0.6,1.3s-0.9,0.5-1.5,0.5H504.3z M505.1,358.8v2h0.8
		c0.4,0,0.7-0.1,1-0.3c0.2-0.2,0.3-0.5,0.3-0.8c0-0.6-0.4-0.9-1.2-0.9H505.1z M505.1,361.5v2.3h1c0.4,0,0.8-0.1,1-0.3
		c0.2-0.2,0.4-0.5,0.4-0.8c0-0.7-0.5-1.1-1.5-1.1H505.1z"/>
	<path class="st4" d="M512.8,364.5h-3.3v-6.3h0.7v5.6h2.5V364.5z"/>
	<path class="st4" d="M518.3,361.9c0,1.8-0.8,2.7-2.4,2.7c-1.5,0-2.3-0.9-2.3-2.6v-3.9h0.7v3.8c0,1.3,0.5,1.9,1.6,1.9
		c1.1,0,1.6-0.6,1.6-1.9v-3.9h0.7V361.9z"/>
	<path class="st4" d="M523.2,364.5h-3.3v-6.3h3.2v0.7h-2.5v2.1h2.3v0.7h-2.3v2.2h2.6V364.5z"/>
	<path class="st4" d="M528.2,358.8h-1.8v5.6h-0.7v-5.6h-1.8v-0.7h4.4V358.8z"/>
	<path class="st4" d="M531.7,364.6c-0.9,0-1.6-0.3-2.1-0.9c-0.5-0.6-0.8-1.4-0.8-2.3c0-1,0.3-1.8,0.8-2.4s1.3-0.9,2.2-0.9
		c0.9,0,1.6,0.3,2.1,0.9c0.5,0.6,0.8,1.4,0.8,2.3c0,1-0.3,1.8-0.8,2.4S532.6,364.6,531.7,364.6z M531.8,358.7
		c-0.7,0-1.2,0.2-1.6,0.7c-0.4,0.5-0.6,1.1-0.6,1.9c0,0.8,0.2,1.4,0.6,1.9c0.4,0.5,0.9,0.7,1.6,0.7c0.7,0,1.2-0.2,1.6-0.7
		s0.6-1.1,0.6-1.9c0-0.8-0.2-1.5-0.6-1.9C533,359,532.4,358.7,531.8,358.7z"/>
	<path class="st4" d="M538.5,364.6c-0.9,0-1.6-0.3-2.1-0.9c-0.5-0.6-0.8-1.4-0.8-2.3c0-1,0.3-1.8,0.8-2.4s1.3-0.9,2.2-0.9
		c0.9,0,1.6,0.3,2.1,0.9c0.5,0.6,0.8,1.4,0.8,2.3c0,1-0.3,1.8-0.8,2.4S539.4,364.6,538.5,364.6z M538.6,358.7
		c-0.7,0-1.2,0.2-1.6,0.7c-0.4,0.5-0.6,1.1-0.6,1.9c0,0.8,0.2,1.4,0.6,1.9c0.4,0.5,0.9,0.7,1.6,0.7c0.7,0,1.2-0.2,1.6-0.7
		s0.6-1.1,0.6-1.9c0-0.8-0.2-1.5-0.6-1.9C539.8,359,539.2,358.7,538.6,358.7z"/>
	<path class="st4" d="M546.5,358.8h-1.8v5.6h-0.7v-5.6h-1.8v-0.7h4.4V358.8z"/>
	<path class="st4" d="M552.2,364.5h-0.7v-2.9h-3.3v2.9h-0.7v-6.3h0.7v2.8h3.3v-2.8h0.7V364.5z"/>
</g>
<g class="st5">
	<path class="st4" d="M515.6,391.6c-0.5,0.2-1,0.4-1.7,0.4c-0.9,0-1.6-0.3-2.2-0.9s-0.8-1.3-0.8-2.3c0-1,0.3-1.8,0.9-2.4
		s1.4-0.9,2.3-0.9c0.6,0,1.1,0.1,1.5,0.3v0.8c-0.5-0.3-0.9-0.4-1.5-0.4c-0.7,0-1.3,0.2-1.8,0.7c-0.5,0.5-0.7,1.1-0.7,1.9
		c0,0.8,0.2,1.4,0.6,1.8c0.4,0.5,1,0.7,1.7,0.7c0.6,0,1.2-0.1,1.6-0.4V391.6z"/>
	<path class="st4" d="M521.5,389.3c0,1.8-0.8,2.7-2.4,2.7c-1.5,0-2.3-0.9-2.3-2.6v-3.9h0.7v3.8c0,1.3,0.5,1.9,1.6,1.9
		c1.1,0,1.6-0.6,1.6-1.9v-3.9h0.7V389.3z"/>
	<path class="st4" d="M522.8,391.6v-0.9c0.1,0.1,0.2,0.2,0.4,0.2s0.3,0.1,0.4,0.2c0.2,0,0.3,0.1,0.5,0.1s0.3,0,0.4,0
		c0.5,0,0.8-0.1,1-0.3c0.2-0.2,0.3-0.4,0.3-0.7c0-0.2,0-0.3-0.1-0.4c-0.1-0.1-0.2-0.2-0.3-0.3c-0.1-0.1-0.3-0.2-0.5-0.3
		c-0.2-0.1-0.4-0.2-0.6-0.3c-0.2-0.1-0.4-0.2-0.6-0.3c-0.2-0.1-0.4-0.2-0.5-0.4s-0.3-0.3-0.3-0.5c-0.1-0.2-0.1-0.4-0.1-0.6
		c0-0.3,0.1-0.5,0.2-0.7c0.1-0.2,0.3-0.4,0.5-0.5s0.4-0.2,0.7-0.3c0.3-0.1,0.5-0.1,0.8-0.1c0.6,0,1.1,0.1,1.4,0.2v0.8
		c-0.4-0.3-0.8-0.4-1.4-0.4c-0.2,0-0.3,0-0.5,0.1c-0.2,0-0.3,0.1-0.4,0.2s-0.2,0.2-0.3,0.3s-0.1,0.3-0.1,0.4c0,0.2,0,0.3,0.1,0.4
		c0.1,0.1,0.1,0.2,0.3,0.3s0.3,0.2,0.4,0.3c0.2,0.1,0.4,0.2,0.6,0.3c0.2,0.1,0.4,0.2,0.6,0.4s0.4,0.3,0.5,0.4
		c0.2,0.1,0.3,0.3,0.4,0.5c0.1,0.2,0.1,0.4,0.1,0.6c0,0.3-0.1,0.6-0.2,0.8c-0.1,0.2-0.3,0.4-0.5,0.5c-0.2,0.1-0.4,0.2-0.7,0.3
		c-0.3,0.1-0.6,0.1-0.9,0.1c-0.1,0-0.2,0-0.4,0c-0.1,0-0.3,0-0.4-0.1c-0.2,0-0.3-0.1-0.4-0.1C523,391.7,522.9,391.6,522.8,391.6z"/>
	<path class="st4" d="M531.6,386.2h-1.8v5.6H529v-5.6h-1.8v-0.7h4.4V386.2z"/>
	<path class="st4" d="M535.1,391.9c-0.9,0-1.6-0.3-2.1-0.9c-0.5-0.6-0.8-1.4-0.8-2.3c0-1,0.3-1.8,0.8-2.4s1.3-0.9,2.2-0.9
		c0.9,0,1.6,0.3,2.1,0.9c0.5,0.6,0.8,1.4,0.8,2.3c0,1-0.3,1.8-0.8,2.4S536,391.9,535.1,391.9z M535.2,386.1c-0.7,0-1.2,0.2-1.6,0.7
		c-0.4,0.5-0.6,1.1-0.6,1.9c0,0.8,0.2,1.4,0.6,1.9c0.4,0.5,0.9,0.7,1.6,0.7c0.7,0,1.2-0.2,1.6-0.7s0.6-1.1,0.6-1.9
		c0-0.8-0.2-1.5-0.6-1.9C536.4,386.3,535.9,386.1,535.2,386.1z"/>
	<path class="st4" d="M545.8,391.8h-0.7v-4.2c0-0.3,0-0.7,0.1-1.2h0c-0.1,0.3-0.1,0.5-0.2,0.6l-2.2,4.8h-0.4l-2.1-4.8
		c-0.1-0.1-0.1-0.4-0.2-0.6h0c0,0.3,0,0.7,0,1.2v4.2h-0.7v-6.3h1l1.9,4.4c0.1,0.3,0.2,0.6,0.3,0.8h0c0.1-0.3,0.2-0.6,0.3-0.8l2-4.4
		h0.9V391.8z"/>
</g>
<g class="st5">
	<path class="st4" d="M649.8,453.9l-3,7.3h-0.7l3-7.3H649.8z"/>
	<path class="st4" d="M657.8,460.2H657v-2.9h-3.3v2.9H653v-6.3h0.7v2.8h3.3v-2.8h0.7V460.2z"/>
	<path class="st4" d="M663.2,454.5h-1.8v5.6h-0.7v-5.6h-1.8v-0.7h4.4V454.5z"/>
	<path class="st4" d="M667.9,454.5h-1.8v5.6h-0.7v-5.6h-1.8v-0.7h4.4V454.5z"/>
	<path class="st4" d="M669.6,457.8v2.4h-0.7v-6.3h1.7c0.7,0,1.2,0.2,1.6,0.5s0.6,0.8,0.6,1.4s-0.2,1.1-0.6,1.5s-1,0.6-1.7,0.6H669.6
		z M669.6,454.5v2.6h0.8c0.5,0,0.9-0.1,1.2-0.3c0.3-0.2,0.4-0.6,0.4-1c0-0.8-0.5-1.2-1.5-1.2H669.6z"/>
	<path class="st4" d="M679.1,453.9l-3,7.3h-0.7l3-7.3H679.1z"/>
	<path class="st4" d="M686.6,459.9c-0.5,0.2-1,0.4-1.7,0.4c-0.9,0-1.6-0.3-2.2-0.9s-0.8-1.3-0.8-2.3c0-1,0.3-1.8,0.9-2.4
		s1.4-0.9,2.3-0.9c0.6,0,1.1,0.1,1.5,0.3v0.8c-0.5-0.3-0.9-0.4-1.5-0.4c-0.7,0-1.3,0.2-1.8,0.7c-0.5,0.5-0.7,1.1-0.7,1.9
		c0,0.8,0.2,1.4,0.6,1.8c0.4,0.5,1,0.7,1.7,0.7c0.6,0,1.2-0.1,1.6-0.4V459.9z"/>
	<path class="st4" d="M689.7,460.3c-0.7,0-1.2-0.2-1.6-0.6c-0.4-0.4-0.6-1-0.6-1.7c0-0.8,0.2-1.3,0.6-1.8c0.4-0.4,1-0.6,1.7-0.6
		c0.7,0,1.2,0.2,1.6,0.6c0.4,0.4,0.6,1,0.6,1.7c0,0.7-0.2,1.3-0.6,1.7C690.9,460.1,690.4,460.3,689.7,460.3z M689.8,456.2
		c-0.5,0-0.8,0.2-1.1,0.5c-0.3,0.3-0.4,0.7-0.4,1.3c0,0.5,0.1,1,0.4,1.3c0.3,0.3,0.6,0.5,1.1,0.5c0.5,0,0.8-0.2,1.1-0.5
		c0.3-0.3,0.4-0.7,0.4-1.3c0-0.6-0.1-1-0.4-1.3C690.6,456.3,690.2,456.2,689.8,456.2z"/>
	<path class="st4" d="M698.1,460.2h-0.8l-0.7-1.8h-2.7l-0.6,1.8h-0.8l2.4-6.3h0.8L698.1,460.2z M696.3,457.8l-1-2.7
		c0-0.1-0.1-0.2-0.1-0.4h0c0,0.2-0.1,0.3-0.1,0.4l-1,2.7H696.3z"/>
	<path class="st4" d="M699.7,457.8v2.4H699v-6.3h1.7c0.7,0,1.2,0.2,1.6,0.5s0.6,0.8,0.6,1.4s-0.2,1.1-0.6,1.5s-1,0.6-1.7,0.6H699.7z
		 M699.7,454.5v2.6h0.8c0.5,0,0.9-0.1,1.2-0.3c0.3-0.2,0.4-0.6,0.4-1c0-0.8-0.5-1.2-1.5-1.2H699.7z"/>
</g>
<g class="st5">
	<path class="st4" d="M663.3,500.1h-0.7v-2.9h-3.3v2.9h-0.7v-6.3h0.7v2.8h3.3v-2.8h0.7V500.1z"/>
	<path class="st4" d="M668.7,494.5h-1.8v5.6h-0.7v-5.6h-1.8v-0.7h4.4V494.5z"/>
	<path class="st4" d="M673.4,494.5h-1.8v5.6h-0.7v-5.6h-1.8v-0.7h4.4V494.5z"/>
	<path class="st4" d="M675.2,497.8v2.4h-0.7v-6.3h1.7c0.7,0,1.2,0.2,1.6,0.5s0.6,0.8,0.6,1.4s-0.2,1.1-0.6,1.5s-1,0.6-1.7,0.6H675.2
		z M675.2,494.5v2.6h0.8c0.5,0,0.9-0.1,1.2-0.3c0.3-0.2,0.4-0.6,0.4-1c0-0.8-0.5-1.2-1.5-1.2H675.2z"/>
</g>
<g class="st5">
	<path class="st4" d="M726.6,499.9c-0.5,0.2-1,0.4-1.7,0.4c-0.9,0-1.6-0.3-2.2-0.9s-0.8-1.3-0.8-2.3c0-1,0.3-1.8,0.9-2.4
		s1.4-0.9,2.3-0.9c0.6,0,1.1,0.1,1.5,0.3v0.8c-0.5-0.3-0.9-0.4-1.5-0.4c-0.7,0-1.3,0.2-1.8,0.7c-0.5,0.5-0.7,1.1-0.7,1.9
		c0,0.8,0.2,1.4,0.6,1.8c0.4,0.5,1,0.7,1.7,0.7c0.6,0,1.2-0.1,1.6-0.4V499.9z"/>
	<path class="st4" d="M729.7,500.3c-0.7,0-1.2-0.2-1.6-0.6c-0.4-0.4-0.6-1-0.6-1.7c0-0.8,0.2-1.3,0.6-1.8c0.4-0.4,1-0.6,1.7-0.6
		c0.7,0,1.2,0.2,1.6,0.6c0.4,0.4,0.6,1,0.6,1.7c0,0.7-0.2,1.3-0.6,1.7C730.9,500,730.3,500.3,729.7,500.3z M729.7,496.1
		c-0.5,0-0.8,0.2-1.1,0.5c-0.3,0.3-0.4,0.7-0.4,1.3c0,0.5,0.1,1,0.4,1.3c0.3,0.3,0.6,0.5,1.1,0.5c0.5,0,0.8-0.2,1.1-0.5
		c0.3-0.3,0.4-0.7,0.4-1.3c0-0.6-0.1-1-0.4-1.3C730.5,496.3,730.2,496.1,729.7,496.1z"/>
	<path class="st4" d="M738,500.1h-0.8l-0.7-1.8h-2.7l-0.6,1.8h-0.8l2.4-6.3h0.8L738,500.1z M736.3,497.7l-1-2.7
		c0-0.1-0.1-0.2-0.1-0.4h0c0,0.2-0.1,0.3-0.1,0.4l-1,2.7H736.3z"/>
	<path class="st4" d="M739.7,497.8v2.4h-0.7v-6.3h1.7c0.7,0,1.2,0.2,1.6,0.5s0.6,0.8,0.6,1.4s-0.2,1.1-0.6,1.5s-1,0.6-1.7,0.6H739.7
		z M739.7,494.5v2.6h0.8c0.5,0,0.9-0.1,1.2-0.3c0.3-0.2,0.4-0.6,0.4-1c0-0.8-0.5-1.2-1.5-1.2H739.7z"/>
</g>
<path class="st10" d="M1035,307H898.7c-2.9,0-5.2-2.4-5.2-5.2v-12.3c0-2.9,2.4-5.2,5.2-5.2H1035c2.9,0,5.2,2.4,5.2,5.2v12.3
	C1040.3,304.6,1037.9,307,1035,307z"/>
<g>
	<path class="st11" d="M926.4,292.2"/>
	<path class="st11" d="M925.4,286.1c-1.7,0-3.3,0.5-4.6,1.3c-0.4-0.3-0.9-0.5-1.4-0.5l0,0c-1.2,0-2.2,1-2.2,2.2l0,0
		c0,0.5,0.2,1,0.5,1.4c-0.8,1.4-1.3,2.9-1.3,4.6c0,0.3,0.2,0.5,0.5,0.5s0.5-0.2,0.5-0.5c0-1.5,0.4-2.8,1.1-4
		c0.3,0.1,0.6,0.2,0.9,0.2l0,0c1.2,0,2.2-1,2.2-2.2c0-0.3-0.1-0.6-0.2-0.9c1.2-0.7,2.5-1.1,4-1.1c0.3,0,0.5-0.2,0.5-0.5
		C925.9,286.4,925.7,286.1,925.4,286.1z M919.4,290.3c-0.3,0-0.5-0.1-0.7-0.3l0,0c-0.3-0.2-0.4-0.5-0.4-0.9c0-0.6,0.5-1.1,1.1-1.1
		c0.4,0,0.7,0.1,0.9,0.4l0,0c0.2,0.2,0.2,0.4,0.2,0.7C920.5,289.7,920,290.3,919.4,290.3z"/>
	<path class="st11" d="M922.2,301.5L922.2,301.5L922.2,301.5z"/>
	<path class="st11" d="M920.4,299.6L920.4,299.6L920.4,299.6z"/>
	<path class="st11" d="M930.5,293.4L930.5,293.4c0.1-0.1,0.8-0.8,1.2-1.2c0.1-0.1,0.1-0.2,0.1-0.4c0-0.3-0.2-0.5-0.5-0.5
		c-0.1,0-0.2,0.1-0.3,0.1c-0.4,0.4-1.1,1.1-1.2,1.2l-1.2-1.2c0.2-0.2,0.8-0.8,1.2-1.2c0.1-0.1,0.1-0.2,0.1-0.4
		c0-0.3-0.2-0.5-0.5-0.5c-0.1,0-0.2,0.1-0.3,0.1c-0.3,0.3-1,1-1.2,1.2l-1.1-1.1c-0.2-0.2-0.6-0.2-0.9,0l-1.5,1.5
		c0,0-0.8-0.8-1.2-1.2c-0.1-0.1-0.2-0.1-0.4-0.1c-0.3,0-0.5,0.2-0.5,0.5c0,0.1,0.1,0.2,0.1,0.3c0.3,0.3,1,1,1.2,1.2l-1.5,1.5l0,0
		c-0.2-0.2-0.8-0.8-1.1-1.1c-0.1-0.1-0.2-0.1-0.4-0.1c-0.1,0-0.3,0.1-0.4,0.1c-0.1,0.1-0.1,0.2-0.1,0.4c0,0.1,0.1,0.2,0.1,0.3
		c0.3,0.3,1,1,1.1,1.1l-1.5,1.5c-0.2,0.2-0.2,0.6,0,0.9l1.1,1.1l0,0c-0.2,0.2-0.9,0.9-1.2,1.2c-0.1,0.1-0.1,0.2-0.1,0.4
		c0,0.3,0.2,0.5,0.5,0.5c0.1,0,0.2-0.1,0.3-0.1c0.3-0.3,1-1,1.2-1.2l1.2,1.2l0,0c-0.2,0.2-0.9,0.9-1.2,1.2c-0.1,0.1-0.1,0.2-0.1,0.4
		c0,0.3,0.2,0.5,0.5,0.5c0.1,0,0.2-0.1,0.3-0.1c0.3-0.3,1-1,1.2-1.2l1.1,1.1c0.2,0.2,0.6,0.2,0.9,0l1.5-1.5c0.2,0.2,0.9,0.9,1.2,1.2
		c0.1,0.1,0.2,0.1,0.4,0.1c0.3,0,0.5-0.2,0.5-0.5l0,0c0-0.1-0.1-0.2-0.1-0.3c-0.3-0.3-1-1-1.2-1.2l1.5-1.5c0.2,0.2,0.9,0.9,1.2,1.2
		c0.1,0.1,0.2,0.1,0.4,0.1c0.3,0,0.5-0.2,0.5-0.5l0,0c0-0.1-0.1-0.2-0.1-0.3c-0.3-0.3-1-1-1.2-1.2l1.5-1.5c0.2-0.2,0.2-0.6,0-0.9
		L930.5,293.4z M928.1,293.4c-0.1,0.2-0.4,0.3-0.6,0.3l0.4,1.4c0.1,0.3-0.1,0.5-0.4,0.6l-2.6,0.8l0.5,1.9c0.1,0.3-0.1,0.5-0.4,0.6
		c-0.3,0.1-0.5-0.1-0.6-0.3l-0.6-2.4c-0.1-0.3,0.1-0.5,0.4-0.6l2.6-0.8l-0.2-1c-0.2,0.2-0.4,0.2-0.6,0.1c-0.2-0.1-0.3-0.4-0.2-0.6
		l0.5-1.2c0-0.1,0.1-0.1,0.1-0.2c0.1-0.1,0.2-0.2,0.4-0.2c0.1,0,0.2,0,0.3,0.1l1,0.7C928.2,293,928.2,293.2,928.1,293.4z"/>
	<path class="st11" d="M935.4,296.2c0-0.3-0.2-0.5-0.5-0.5s-0.5,0.2-0.5,0.5c0,1.5-0.4,2.8-1.1,4c-0.3-0.1-0.6-0.2-0.9-0.2l0,0
		c-1.2,0-2.2,1-2.2,2.2c0,0.3,0.1,0.6,0.2,0.9c-1.2,0.7-2.5,1.1-4,1.1c-0.3,0-0.5,0.2-0.5,0.5s0.2,0.5,0.5,0.5l0,0
		c1.7,0,3.3-0.5,4.6-1.3c0.4,0.3,0.9,0.5,1.4,0.5l0,0c1.2,0,2.2-1,2.2-2.2l0,0c0-0.5-0.2-1-0.5-1.4
		C934.9,299.4,935.4,297.9,935.4,296.2z M932.4,303.3c-0.4,0-0.7-0.1-0.9-0.4l0,0c-0.2-0.2-0.2-0.4-0.2-0.7c0-0.6,0.5-1.1,1.1-1.1
		c0.3,0,0.5,0.1,0.7,0.3l0,0c0.3,0.2,0.4,0.5,0.4,0.9C933.5,302.8,933,303.3,932.4,303.3z"/>
	<polygon class="st11" points="944.7,291.7 941.9,291.7 941.9,299.7 940.7,299.7 940.7,291.7 937.8,291.7 937.8,290.7 944.7,290.7 	
		"/>
	<path class="st11" d="M944.7,291.7"/>
	<path class="st11" d="M947,293.8c0.5-0.6,1.2-0.9,2-0.9c1.4,0,2.1,0.8,2.1,2.4v4.4H950v-4.4c0-0.5-0.1-0.8-0.3-1.1
		c-0.2-0.2-0.5-0.3-1-0.3c-0.4,0-0.7,0.1-1,0.3s-0.5,0.5-0.7,0.8v4.7h-1.1v-9.5h1.1V293.8z"/>
	<path class="st11" d="M947,293.8"/>
	<rect x="953" y="293" class="st11" width="1.1" height="6.7"/>
	<path class="st11" d="M952.9,291.2c0-0.2,0.1-0.3,0.2-0.5c0.1-0.1,0.3-0.2,0.5-0.2s0.4,0.1,0.5,0.2c0.1,0.1,0.2,0.3,0.2,0.5
		s-0.1,0.3-0.2,0.5c-0.1,0.1-0.3,0.2-0.5,0.2s-0.4-0.1-0.5-0.2C952.9,291.6,952.9,291.4,952.9,291.2L952.9,291.2z"/>
	<path class="st11" d="M952.9,291.2"/>
	<path class="st11" d="M957,293v0.8c0.5-0.6,1.2-1,2-1c1.4,0,2.1,0.8,2.1,2.4v4.4H960v-4.4c0-0.5-0.1-0.8-0.3-1.1
		c-0.2-0.2-0.5-0.3-1-0.3c-0.4,0-0.7,0.1-1,0.3s-0.5,0.5-0.7,0.8v4.7h-1.1v-6.7L957,293L957,293z"/>
	<path class="st11" d="M957,293"/>
	<path class="st11" d="M967.2,293l-0.1,0.7c-0.5-0.6-1.1-0.9-1.9-0.9c-0.8,0-1.4,0.3-1.9,0.9c-0.5,0.6-0.7,1.4-0.7,2.5
		s0.2,1.9,0.7,2.6c0.5,0.6,1.1,0.9,1.9,0.9c0.8,0,1.4-0.3,1.9-0.8v0.6c0,0.6-0.2,1-0.5,1.3s-0.7,0.5-1.3,0.5c-0.7,0-1.3-0.3-1.8-0.9
		l-0.6,0.7c0.2,0.4,0.6,0.6,1.1,0.8s0.9,0.3,1.4,0.3c0.9,0,1.5-0.2,2.1-0.7c0.5-0.5,0.8-1.2,0.8-2V293L967.2,293L967.2,293z
		 M967.1,297.8c-0.3,0.7-0.9,1-1.6,1c-0.6,0-1-0.2-1.3-0.6c-0.3-0.4-0.5-1-0.5-1.8s0.2-1.5,0.5-1.9s0.7-0.6,1.3-0.6
		c0.7,0,1.2,0.3,1.6,1V297.8z"/>
	<path class="st11" d="M973.8,297.9c0-0.3-0.1-0.5-0.4-0.7c-0.2-0.2-0.6-0.3-1.2-0.4c-0.6-0.1-1-0.3-1.4-0.4
		c-0.3-0.2-0.6-0.4-0.8-0.6c-0.2-0.2-0.2-0.5-0.2-0.8c0-0.5,0.2-1,0.7-1.4s1.1-0.6,1.8-0.6c0.8,0,1.4,0.2,1.8,0.6
		c0.5,0.4,0.7,0.9,0.7,1.5h-1.1c0-0.3-0.1-0.6-0.4-0.8c-0.3-0.2-0.6-0.3-1-0.3s-0.7,0.1-1,0.3c-0.2,0.2-0.4,0.4-0.4,0.7
		s0.1,0.5,0.3,0.6s0.6,0.3,1.2,0.4c0.6,0.1,1,0.3,1.4,0.5s0.6,0.4,0.8,0.6c0.2,0.2,0.3,0.5,0.3,0.9c0,0.6-0.2,1.1-0.7,1.4
		c-0.5,0.4-1.1,0.5-1.9,0.5c-0.5,0-1-0.1-1.4-0.3s-0.7-0.5-1-0.8c-0.2-0.3-0.3-0.7-0.3-1.1h1.1c0,0.4,0.2,0.7,0.5,0.9
		s0.7,0.3,1.1,0.3c0.4,0,0.8-0.1,1-0.3C973.7,298.4,973.8,298.2,973.8,297.9L973.8,297.9z"/>
	<path class="st11" d="M973.8,297.9"/>
	<g>
		<path class="st11" d="M981.1,295c0.4-0.2,0.7-0.4,1-0.7c0.2-0.3,0.4-0.7,0.4-1.1c0-0.8-0.2-1.4-0.7-1.8c-0.5-0.4-1.2-0.6-2.2-0.6
			h-2.9v9h3.1c1,0,1.7-0.2,2.2-0.7s0.8-1.1,0.8-1.9c0-0.5-0.1-1-0.4-1.4C982,295.3,981.6,295.1,981.1,295z M977.8,291.7h1.7
			c0.6,0,1,0.1,1.3,0.3s0.4,0.6,0.4,1.1c0,0.4-0.2,0.8-0.5,1.1s-0.7,0.4-1.2,0.4h-1.8L977.8,291.7L977.8,291.7z M981,298.3
			c-0.3,0.3-0.7,0.4-1.3,0.4h-2v-3.2h2c1.2,0,1.8,0.5,1.8,1.6C981.5,297.6,981.4,298,981,298.3z"/>
		<path class="st11" d="M989.2,293.8c-0.6-0.6-1.3-0.9-2.2-0.9c-0.6,0-1.1,0.1-1.6,0.4c-0.5,0.3-0.8,0.7-1.1,1.2s-0.4,1.1-0.4,1.8
			v0.1c0,1,0.3,1.9,0.8,2.5c0.6,0.6,1.3,0.9,2.2,0.9c0.6,0,1.1-0.1,1.6-0.4c0.5-0.3,0.8-0.7,1.1-1.2s0.4-1.1,0.4-1.7v-0.1
			C990,295.3,989.8,294.5,989.2,293.8z M988.4,298.2c-0.3,0.5-0.8,0.7-1.4,0.7c-0.6,0-1-0.2-1.4-0.7c-0.3-0.4-0.5-1-0.5-1.8
			s0.2-1.5,0.5-1.9s0.8-0.7,1.4-0.7c0.6,0,1,0.2,1.4,0.7c0.3,0.5,0.5,1,0.5,1.8C988.9,297.1,988.7,297.7,988.4,298.2z"/>
	</g>
	<path class="st11" d="M1001.6,294"/>
	<g>
		<path class="st11" d="M996.5,295c0-0.7-0.2-1.2-0.7-1.6c-0.4-0.4-1-0.6-1.8-0.6c-0.5,0-0.9,0.1-1.3,0.3c-0.4,0.2-0.7,0.4-1,0.7
			c-0.2,0.3-0.4,0.6-0.4,1h1.1c0-0.3,0.1-0.5,0.4-0.7c0.3-0.2,0.6-0.3,1-0.3c0.5,0,0.8,0.1,1.1,0.4c0.2,0.2,0.4,0.5,0.4,0.9v0.5
			h-1.1c-1,0-1.7,0.2-2.2,0.6c-0.5,0.4-0.8,0.9-0.8,1.6c0,0.6,0.2,1,0.6,1.4c0.4,0.4,1,0.6,1.6,0.6c0.7,0,1.4-0.3,1.9-0.8
			c0,0.3,0.1,0.6,0.2,0.7h1.2v-0.1c-0.2-0.4-0.2-0.8-0.2-1.5V295z M995.4,297.8c-0.1,0.3-0.4,0.5-0.7,0.7s-0.7,0.3-1,0.3
			c-0.4,0-0.7-0.1-0.9-0.3s-0.4-0.5-0.4-0.8c0-0.8,0.7-1.2,2.1-1.2h0.9L995.4,297.8L995.4,297.8z"/>
		<path class="st11" d="M999.5,293.8V293h-1.1v6.7h1.1V295c0.3-0.6,0.8-1,1.5-1c0.2,0,0.4,0,0.6,0v-1.1c-0.1-0.1-0.3-0.1-0.5-0.1
			C1000.4,292.9,999.8,293.2,999.5,293.8z"/>
		<path class="st11" d="M1006.8,290.2v3.5c-0.5-0.5-1.1-0.8-1.9-0.8c-0.8,0-1.4,0.3-1.9,0.9c-0.5,0.6-0.7,1.4-0.7,2.5v0.1
			c0,1,0.2,1.8,0.7,2.5c0.5,0.6,1.1,0.9,1.9,0.9c0.8,0,1.4-0.3,1.9-0.8l0.1,0.7h1v-9.5L1006.8,290.2L1006.8,290.2z M1006.8,297.8
			c-0.3,0.6-0.9,1-1.6,1c-0.5,0-1-0.2-1.3-0.6c-0.3-0.4-0.5-1-0.5-1.8s0.2-1.5,0.5-1.9s0.7-0.6,1.3-0.6c0.7,0,1.2,0.3,1.6,0.9V297.8
			z"/>
	</g>
</g>
<g>
	<path class="st3" d="M998.1,392.6h-59.8c-4.2,0-7.6-3.4-7.6-7.6v-46.2c0-4.2,3.4-7.6,7.6-7.6h59.8c4.2,0,7.6,3.4,7.6,7.6V385
		C1005.7,389.2,1002.3,392.6,998.1,392.6z"/>
	<path class="st4" d="M997.6,387.8h-59c-1.9,0-3.5-1.6-3.5-3.5v-35.5c0-1.9,1.6-3.5,3.5-3.5h59c1.9,0,3.5,1.6,3.5,3.5v35.5
		C1001.1,386.3,999.5,387.8,997.6,387.8z"/>
	<path class="st4" d="M983.5,342.2h-1.9c-0.9,0-1.6-0.7-1.6-1.6v-1.9c0-0.9,0.7-1.6,1.6-1.6h1.9c0.9,0,1.6,0.7,1.6,1.6v1.9
		C985.2,341.5,984.4,342.2,983.5,342.2z"/>
	<path class="st4" d="M991.6,342.2h-1.9c-0.9,0-1.6-0.7-1.6-1.6v-1.9c0-0.9,0.7-1.6,1.6-1.6h1.9c0.9,0,1.6,0.7,1.6,1.6v1.9
		C993.2,341.5,992.5,342.2,991.6,342.2z"/>
	<path class="st4" d="M999.4,342.2h-1.9c-0.9,0-1.6-0.7-1.6-1.6v-1.9c0-0.9,0.7-1.6,1.6-1.6h1.9c0.9,0,1.6,0.7,1.6,1.6v1.9
		C1001.1,341.5,1000.3,342.2,999.4,342.2z"/>
	<path class="st3" d="M997.6,355.3h-25.9c-0.5,0-0.8-0.4-0.8-0.8v-0.2c0-0.5,0.4-0.8,0.8-0.8h25.9c0.5,0,0.8,0.4,0.8,0.8v0.2
		C998.5,354.9,998.1,355.3,997.6,355.3z"/>
	<path class="st10" d="M997.6,358.8h-25.9c-0.5,0-0.8-0.4-0.8-0.8v-0.2c0-0.5,0.4-0.8,0.8-0.8h25.9c0.5,0,0.8,0.4,0.8,0.8v0.2
		C998.5,358.5,998.1,358.8,997.6,358.8z"/>
	<path class="st10" d="M997.6,362.8h-25.9c-0.5,0-0.8-0.4-0.8-0.8v-0.2c0-0.5,0.4-0.8,0.8-0.8h25.9c0.5,0,0.8,0.4,0.8,0.8v0.2
		C998.5,362.5,998.1,362.8,997.6,362.8z"/>
	<path class="st10" d="M997.6,366.6h-25.9c-0.5,0-0.8-0.4-0.8-0.8v-0.2c0-0.5,0.4-0.8,0.8-0.8h25.9c0.5,0,0.8,0.4,0.8,0.8v0.2
		C998.5,366.2,998.1,366.6,997.6,366.6z"/>
	<path class="st10" d="M997.6,370.4h-25.9c-0.5,0-0.8-0.4-0.8-0.8v-0.2c0-0.5,0.4-0.8,0.8-0.8h25.9c0.5,0,0.8,0.4,0.8,0.8v0.2
		C998.5,370,998.1,370.4,997.6,370.4z"/>
	<g>
		<circle class="st3" cx="969.1" cy="376.2" r="8.4"/>
		<path class="st10" d="M969.1,376.2l7.4,0.5c0-0.2,0-0.3,0-0.5c0-4.1-3.3-7.4-7.4-7.4s-7.4,3.3-7.4,7.4c0,4.1,3.3,7.4,7.4,7.4
			c0.1,0,0.1,0,0.2,0L969.1,376.2z"/>
	</g>
	<path class="st10" d="M939.5,382.3L939.5,382.3c-0.3,0-0.4-0.2-0.4-0.3v-24.6c0-0.2,0.2-0.3,0.3-0.3h0.1c0.2,0,0.3,0.2,0.3,0.3V382
		C939.8,382.1,939.7,382.3,939.5,382.3z"/>
	<path class="st10" d="M939.4,382.3h20.2c0.2,0,0.3-0.1,0.3-0.3v-0.1c0-0.2-0.1-0.3-0.3-0.3h-20.2c-0.2,0-0.3,0.1-0.3,0.3v0.1
		C939.1,382.1,939.2,382.3,939.4,382.3z"/>
	<path class="st10" d="M939.3,378.6h-1.8c-0.1,0-0.1-0.1-0.1-0.1l0,0c0-0.1,0.1-0.1,0.1-0.1h1.8
		C939.4,378.4,939.4,378.5,939.3,378.6L939.3,378.6C939.5,378.6,939.4,378.6,939.3,378.6z"/>
	<path class="st10" d="M939.3,375.3h-1.8c-0.1,0-0.1-0.1-0.1-0.1l0,0c0-0.1,0.1-0.1,0.1-0.1h1.8
		C939.4,375.1,939.4,375.2,939.3,375.3L939.3,375.3C939.5,375.2,939.4,375.3,939.3,375.3z"/>
	<path class="st3" d="M939.3,371.9h-1.8c-0.1,0-0.1-0.1-0.1-0.1l0,0c0-0.1,0.1-0.1,0.1-0.1h1.8C939.4,371.7,939.4,371.8,939.3,371.9
		L939.3,371.9C939.5,371.8,939.4,371.9,939.3,371.9z"/>
	<path class="st10" d="M939.3,371.9h-1.8c-0.1,0-0.1-0.1-0.1-0.1l0,0c0-0.1,0.1-0.1,0.1-0.1h1.8
		C939.4,371.7,939.4,371.8,939.3,371.9L939.3,371.9C939.5,371.8,939.4,371.9,939.3,371.9z"/>
	<path class="st10" d="M939.3,368.5h-1.8c-0.1,0-0.1-0.1-0.1-0.1l0,0c0-0.1,0.1-0.1,0.1-0.1h1.8
		C939.4,368.3,939.4,368.4,939.3,368.5L939.3,368.5C939.5,368.5,939.4,368.5,939.3,368.5z"/>
	<path class="st10" d="M939.3,365h-1.8c-0.1,0-0.1-0.1-0.1-0.1l0,0c0-0.1,0.1-0.1,0.1-0.1h1.8C939.4,364.8,939.4,364.9,939.3,365
		L939.3,365C939.5,365,939.4,365,939.3,365z"/>
	<rect x="942" y="372.3" class="st3" width="2.8" height="9.3"/>
	<rect x="942" y="374.3" class="st10" width="2.8" height="4.4"/>
	<rect x="946.7" y="369.4" class="st3" width="2.8" height="12.1"/>
	<rect x="946.7" y="370.4" class="st10" width="2.8" height="3"/>
	<rect x="951.5" y="375.6" class="st3" width="2.8" height="6"/>
	<rect x="951.5" y="375.7" class="st10" width="2.8" height="0.7"/>
	<rect x="956.3" y="366.9" class="st3" width="2.8" height="14.7"/>
	<rect x="956.3" y="370.7" class="st10" width="2.8" height="8.9"/>
	<line class="st12" x1="942" y1="366.6" x2="949.5" y2="360.6"/>
	<line class="st12" x1="949.5" y1="360.6" x2="952.9" y2="365"/>
	<line class="st13" x1="952.9" y1="365" x2="963.3" y2="357"/>
</g>
<g>
	<g>
		<path class="st3" d="M982.5,492.7L982.5,492.7c-1.5,0-2.8-1.3-2.8-2.8v-45.3c0-1.5,1.3-2.8,2.8-2.8l0,0c1.5,0,2.8,1.3,2.8,2.8
			v45.3C985.3,491.4,984,492.7,982.5,492.7z"/>
		<path class="st3" d="M957,467.3L957,467.3c0-1.5,1.3-2.8,2.8-2.8h45.3c1.5,0,2.8,1.3,2.8,2.8l0,0c0,1.5-1.3,2.8-2.8,2.8h-45.3
			C958.3,470.1,957,468.8,957,467.3z"/>
	</g>
	<g>
		<path class="st3" d="M964.4,485.3L964.4,485.3c-1.1-1.1-1.1-2.9,0-4l32.1-32.1c1.1-1.1,2.9-1.1,4,0l0,0c1.1,1.1,1.1,2.9,0,4
			l-32.1,32.1C967.3,486.4,965.5,486.4,964.4,485.3z"/>
		<path class="st3" d="M964.3,449.3L964.3,449.3c1.1-1.1,2.9-1.1,4,0l32.1,32.1c1.1,1.1,1.1,2.9,0,4l0,0c-1.1,1.1-2.9,1.1-4,0
			l-32.1-32.1C963.3,452.2,963.3,450.4,964.3,449.3z"/>
	</g>
	<circle class="st3" cx="982.3" cy="467.3" r="20.7"/>
	<circle class="st10" cx="982.3" cy="467.3" r="13.2"/>
	<circle class="st3" cx="982.4" cy="467.2" r="9.8"/>
</g>
<g>
	<g>
		<path class="st3" d="M950.7,494.4L950.7,494.4c-0.8,0.3-1.8-0.1-2.2-0.9l-10.2-24.9c-0.3-0.8,0.1-1.8,0.9-2.2l0,0
			c0.8-0.3,1.8,0.1,2.2,0.9l10.2,24.9C952,493.1,951.6,494.1,950.7,494.4z"/>
		<path class="st3" d="M931,486.2L931,486.2c-0.3-0.8,0.1-1.8,0.9-2.2l24.9-10.2c0.8-0.3,1.8,0.1,2.2,0.9l0,0
			c0.3,0.8-0.1,1.8-0.9,2.2l-24.9,10.2C932.4,487.5,931.4,487.1,931,486.2z"/>
	</g>
	<g>
		<path class="st3" d="M939.1,494.4L939.1,494.4c-0.8-0.4-1.2-1.3-0.9-2.2l10.4-24.8c0.4-0.8,1.3-1.2,2.2-0.9l0,0
			c0.8,0.4,1.2,1.3,0.9,2.2l-10.4,24.8C940.9,494.4,940,494.8,939.1,494.4z"/>
		<path class="st3" d="M931,474.7L931,474.7c0.4-0.8,1.3-1.2,2.2-0.9l24.8,10.4c0.8,0.4,1.2,1.3,0.9,2.2l0,0
			c-0.4,0.8-1.3,1.2-2.2,0.9l-24.8-10.4C931.1,476.5,930.7,475.5,931,474.7z"/>
	</g>
	<circle class="st3" cx="944.9" cy="480.5" r="12.3"/>
	<circle class="st10" cx="944.9" cy="480.5" r="7.8"/>
	<circle class="st3" cx="945" cy="480.5" r="5.8"/>
</g>
<ellipse class="st3" cx="1186.5" cy="341.3" rx="14.5" ry="16.1"/>
<path class="st3" d="M1210.3,370.2c0,10.1-11.5,7-23.8,7s-24.9,3-24.9-7s12-18.3,24.3-18.3C1198.3,352,1210.3,360.1,1210.3,370.2z"
	/>
<line class="st14" x1="1153" y1="479.7" x2="1170" y2="463.7"/>
<line class="st14" x1="1170" y1="463.7" x2="1184" y2="479.7"/>
<line class="st14" x1="1184" y1="479.7" x2="1221.3" y2="439.2"/>
<line class="st14" x1="1222" y1="438.9" x2="1222" y2="453.6"/>
<line class="st14" x1="1221.3" y1="439" x2="1206.7" y2="440.8"/>
</svg>
