<svg width="282.22mm" height="93.349mm" version="1.1" viewBox="0 0 1e3 330.76" xmlns="http://www.w3.org/2000/svg">
 <g transform="translate(1068.4 -22.73)">
  <flowRoot transform="translate(-1126.5 -14.454)" fill="#000000" font-family="sans-serif" letter-spacing="0px" stroke-width="1px" word-spacing="0px" style="line-height:0.01%" xml:space="preserve"><flowRegion><rect x="817" y="247.59" width="244" height="128"/></flowRegion><flowPara font-size="40px" style="line-height:1.25"> </flowPara></flowRoot>
  <g transform="matrix(1.0477 0 0 1.0477 50.95 -16.857)" fill="#305680">
   <g transform="matrix(.096863 0 0 .096863 -562.95 -20.348)" shape-rendering="auto">
    <path d="m151.13 732.36c-28.363 0-54.915 7.9153-77.613 21.537-6.4723-5.2623-14.605-8.1915-23.067-8.1937a8.7661 8.7661 0 0 0-0.0035 0c-20.154 7.3e-4 -36.679 16.528-36.678 36.682a8.7661 8.7661 0 0 0 0 0.0106c0.0099 8.4147 2.9267 16.483 8.1033 22.927-13.825 22.819-21.865 49.572-21.865 78.161a8.7661 8.7661 0 1 0 17.531 0c0-24.702 6.7193-47.748 18.378-67.574 4.5663 1.9846 9.4727 3.1496 14.519 3.1573a8.7661 8.7661 0 0 0 0.01241 0c20.155 6.2e-4 36.683-16.527 36.682-36.682a8.7661 8.7661 0 0 0 0-4e-3c-0.0016-4.9994-1.1387-9.8628-3.0828-14.397 19.717-11.484 42.585-18.095 67.085-18.095a8.7661 8.7661 0 1 0 0-17.531zm-100.69 30.874c5.9129 2e-3 11.191 2.5121 14.836 7.0769a8.7661 8.7661 0 0 0 0.1826 0.21451c2.6715 3.3798 4.1326 7.5531 4.1341 11.863-0.0015 10.677-8.468 19.144-19.144 19.148-4.37-8e-3 -8.6011-1.5088-12-4.2546a8.7661 8.7661 0 0 0-0.01241-9e-3c-4.514-3.6331-7.1358-9.0979-7.1442-14.893 0.0025-10.677 8.4701-19.144 19.148-19.146z" color="#000000" color-rendering="auto" image-rendering="auto" solid-color="#000000" style="isolation:auto;mix-blend-mode:normal;text-decoration-color:#000000;text-decoration-line:none;text-decoration-style:solid;text-indent:0;text-transform:none;white-space:normal"/>
    <path d="m66.992 835.19c-1.492 1.5583-2.3663 3.7103-2.2576 6.0713 0.0962 2.0447 0.91322 4.0204 2.3372 5.5177 6.8051 6.8559 20.223 20.223 20.223 20.223l11.844-11.83s-12.973-12.961-20.176-20.171c-1.604-1.6325-3.7498-2.3141-6.012-2.3243-2.3583-0.0112-4.4673 0.95389-5.9592 2.5122zm32.147 19.983-36.639 36.639c-3.9751 3.976-3.9751 10.421 0 14.397l80.387 80.387c3.9758 3.9759 10.422 3.9763 14.398 0l99.345-99.345c3.9754-3.9764 3.975-10.422-6.7e-4 -14.398l-18.63-18.628-61.758-61.758c-3.976-3.9751-10.421-3.9751-14.397 0l-24.791 24.791zm37.914-37.914s-12.973-12.961-20.176-20.171c-1.604-1.6325-3.7498-2.3141-6.012-2.3243-4.7166-0.0226-8.4341 3.8616-8.2169 8.5834 0.0962 2.0447 0.91322 4.0204 2.3372 5.5177 6.8051 6.8559 20.223 20.223 20.223 20.223zm69.193 5.2132s12.961-12.973 20.171-20.176c1.6325-1.604 2.3141-3.7498 2.3243-6.012 0.0225-4.7166-3.8616-8.4341-8.5834-8.2169-2.0447 0.0962-4.0204 0.91322-5.5177 2.3372-6.8559 6.8051-20.223 20.223-20.223 20.223zm31.753 31.753s12.961-12.973 20.171-20.176c1.6325-1.604 2.314-3.7498 2.3243-6.012 0.0225-4.7166-3.8616-8.4341-8.5834-8.2169-2.0447 0.0962-4.0204 0.91323-5.5177 2.3372-6.8559 6.8051-20.223 20.223-20.223 20.223zm-18.009 69.667s12.973 12.961 20.178 20.169c1.604 1.6324 3.7498 2.314 6.012 2.3243 4.7166 0.0225 8.4342-3.8615 8.2169-8.5834l-2e-3 2e-3c-0.0962-2.0447-0.91415-4.0214-2.3382-5.5186-6.8051-6.8559-20.222-20.222-20.222-20.222l-11.844 11.83zm-37.914 37.914s12.973 12.961 20.178 20.169c1.604 1.6324 3.7498 2.314 6.012 2.3242 4.7166 0.023 8.4342-3.8615 8.2169-8.5834h-2e-3c-0.0962-2.0447-0.91323-4.0205-2.3372-5.5177-6.8051-6.8559-20.223-20.223-20.223-20.223l-11.844 11.83zm-69.667-5.6871s-12.961 12.973-20.169 20.178c-1.6324 1.604-2.314 3.7498-2.3243 6.012-0.02251 4.7166 3.8615 8.4342 8.5834 8.2169h-0.0019c2.0447-0.096 4.0204-0.9132 5.5177-2.3373 6.8561-6.8048 20.223-20.223 20.223-20.223zm-31.753-31.753s-12.961 12.973-20.169 20.178c-1.6324 1.604-2.314 3.7498-2.3243 6.012-0.02251 4.7167 3.8615 8.4342 8.5834 8.2169h-0.0019c2.0447-0.0962 4.0204-0.91322 5.5177-2.3372 6.8561-6.8047 20.223-20.223 20.223-20.223zm87.237-90.554c1.6794-1.7064 3.9669-2.6599 6.2971-2.626 1.6628 0.0237 3.253 0.55012 4.5625 1.5097l16.499 12.1c3.2009 2.297 4.1445 6.6589 2.2308 10.312-1.9137 3.6528-6.1234 5.5243-9.9506 4.4227l6.124 23.948c1.1128 4.3517-1.564 8.9677-5.9833 10.317l-44.642 13.631 8.2456 31.883c1.1728 4.3696-1.5017 9.0445-5.9546 10.407-4.4529 1.3625-8.9756-1.1106-10.068-5.5047l-10.282-39.769c-1.1265-4.3556 1.5493-8.9847 5.9759-10.338l44.661-13.637-4.1219-16.118c-2.7634 3.0643-7.2335 3.8084-10.586 1.7615-3.3531-2.0469-4.6144-6.2896-2.9861-10.047l8.1169-19.454c0.43322-1.0376 1.0673-1.9888 1.8624-2.7973z" color="#000000" color-rendering="auto" fill-rule="evenodd" image-rendering="auto" solid-color="#000000" style="isolation:auto;mix-blend-mode:normal;text-decoration-color:#000000;text-decoration-line:none;text-decoration-style:solid;text-indent:0;text-transform:none;white-space:normal"/>
    <path d="m168.87 1052.4c28.363 0 54.915-7.9155 77.614-21.538 6.4724 5.2624 14.605 8.1917 23.067 8.1939a8.7662 8.7662 0 0 0 4e-3 0c20.155-7e-4 36.68-16.528 36.679-36.682a8.7662 8.7662 0 0 0 0-0.011c-0.01-8.4149-2.9267-16.484-8.1034-22.927 13.825-22.82 21.866-49.572 21.866-78.162a8.7662 8.7662 0 1 0-17.531 0c0 24.703-6.7194 47.749-18.378 67.575-4.5664-1.9846-9.4728-3.1496-14.519-3.1573a8.7662 8.7662 0 0 0-0.0124 0c-20.155-6.2e-4 -36.683 16.527-36.682 36.682 2e-3 4.9994 1.1387 9.8628 3.0829 14.397-19.717 11.484-42.586 18.095-67.086 18.095a8.7662 8.7662 0 1 0 0 17.531zm100.69-30.875c-5.913 0-11.191-2.5122-14.836-7.0769a8.7662 8.7662 0 0 0-0.18261-0.2146c-2.6715-3.3799-4.1327-7.5531-4.1341-11.863 2e-3 -10.677 8.4681-19.144 19.144-19.148 4.37 8e-3 8.6012 1.5088 12 4.2547a8.7662 8.7662 0 0 0 0.0124 9e-3c4.5141 3.6332 7.1359 9.098 7.1443 14.893-3e-3 10.677-8.4702 19.145-19.148 19.146z" color="#000000" color-rendering="auto" image-rendering="auto" solid-color="#000000" style="isolation:auto;mix-blend-mode:normal;text-decoration-color:#000000;text-decoration-line:none;text-decoration-style:solid;text-indent:0;text-transform:none;white-space:normal"/>
   </g>
   <text x="-524.09467" y="72.2649" font-family="Roboto" letter-spacing="0px" stroke-width="1px" word-spacing="0px" style="line-height:0%" xml:space="preserve"><tspan x="-524.09467" y="72.2649" font-size="22.5px" style="line-height:1.25">ThingsBoard</tspan></text>
  </g>
  <rect x="-549.02" y="25.292" width="245.34" height="325.64" fill="none" stroke="#305680" stroke-linecap="round" stroke-linejoin="round" stroke-width="5.125"/>
  <g transform="matrix(1.0658 0 0 1.0658 616.79 17.159)">
   <g transform="matrix(1.2195 0 0 1.2195 -1762.3 -944.14)">
    <g transform="matrix(.32105 0 0 .32105 533.31 749.25)">
     <g transform="translate(572,260)" fill="#305680">
      <path d="m-333.96 113.84v12.615c0 0.76745 0.62355 1.407 1.407 1.407h9.753c0.76745 0 1.407-0.62356 1.407-1.407v-22.192l-7.0829 7.0829c-1.5029 1.4869-3.4216 2.3503-5.4841 2.4942z"/>
      <path d="m-316.54 104.11v22.352c0 0.76745 0.62355 1.407 1.407 1.407h9.753c0.76746 0 1.407-0.62356 1.407-1.407v-13.159c-2.2224-0.048-4.3009-0.92734-5.8678-2.4942z"/>
      <path d="m-299.11 111.91v14.55c0 0.76745 0.62355 1.407 1.407 1.407h9.753c0.76745 0 1.407-0.62356 1.407-1.407v-26.845l-11.176 11.176c-0.43169 0.43169-0.89536 0.79943-1.391 1.1192z"/>
      <path d="m-270.06 83.114-11.624 11.624v31.721c0 0.76745 0.62356 1.407 1.407 1.407h9.753c0.76745 0 1.407-0.62356 1.407-1.407v-42.466c-0.31977-0.2718-0.5596-0.51163-0.73547-0.67152z"/>
     </g>
     <path d="m309.92 322.52c-0.46367-0.49565-1.1672-0.75147-2.0625-0.75147h-0.25582c-4.5408 0.20786-9.0655 0.4317-13.606 0.63955-0.60757 0.032-1.439 0.064-2.0945 0.71948-0.20785 0.20786-0.36773 0.44768-0.49564 0.73548-0.67152 1.455 0.2718 2.3983 0.71948 2.846l1.1352 1.1512c0.78344 0.79943 1.5829 1.5989 2.3823 2.3823l-27.436 27.452-12.327-12.327c-0.73547-0.73547-1.7268-1.1512-2.782-1.1512-1.0552 0-2.0306 0.4157-2.766 1.1512l-16.42 16.404c-1.5349 1.5349-1.5349 4.0131 0 5.548l0.73547 0.73547c0.73548 0.73548 1.7268 1.1512 2.782 1.1512 1.0552 0 2.0306-0.4157 2.766-1.1512l12.903-12.903 12.327 12.327c0.73548 0.73548 1.7268 1.1512 2.782 1.1512 1.0552 0 2.0306-0.4157 2.782-1.1512l30.954-30.954 3.5015 3.4855c0.4157 0.4157 0.99129 0.99129 1.8707 0.99129 0.36774 0 0.73547-0.0959 1.1192-0.30378 0.25582-0.1439 0.47966-0.30378 0.67152-0.49565 0.68751-0.68751 0.81542-1.5669 0.84739-2.2544 0.12791-2.9419 0.27181-5.8838 0.41571-8.8417l0.20785-4.4288c0.048-0.92734-0.15989-1.6468-0.65553-2.1585z" fill="#237de0"/>
    </g>
    <g transform="matrix(.3362 0 0 .3362 499.69 745.02)">
     <path d="m384.67 442.38 11.443 23.507c0.46533 0.95604-0.0238 1.7382-1.0871 1.7382h-71.791c-1.0633 0-1.5525-0.78215-1.0871-1.7382l11.443-23.507c0.18203-0.37389 0.67128-0.6799 1.0871-0.6799h9.8119c0.30237 0 0.71075 0.18931 0.90869 0.41797 0.66569 0.76928 1.3438 1.5208 2.0199 2.2647 0.64214 0.70613 1.2877 1.4215 1.9281 2.1536h-11.644c-0.4159 0-0.90516 0.30589-1.0871 0.6799l-7.5806 15.573h60.191l-7.58-15.573c-0.18191-0.37401-0.67116-0.6799-1.0872-0.6799h-11.671c0.64031-0.73212 1.2861-1.4475 1.9282-2.1536 0.67821-0.74608 1.3601-1.4962 2.0273-2.2657 0.19769-0.22805 0.60522-0.417 0.90711-0.417h9.8326c0.41567 0 0.9048 0.30577 1.0868 0.6799z" fill="#305680"/>
     <path d="m359.34 409.48c-0.61306-8e-3 -1.2341 0.0169-1.8613 0.0762-9.8674 0.93273-16.624 10.493-14.902 20.254 1.749 9.9148 10.889 12.966 15.426 24.096 0.40875 1.0029 1.8218 1.0089 2.2305 6e-3 5.029-12.344 15.723-14.753 15.723-27.598 0-9.2241-7.4192-16.715-16.615-16.834zm-0.2207 7.9434c4.9104 0 8.8906 3.9804 8.8906 8.8906 0 4.9104-3.9802 8.8906-8.8906 8.8906-4.9104 0-8.8906-3.9802-8.8906-8.8906 0-4.9103 3.9802-8.8906 8.8906-8.8906z" fill="#237de0"/>
    </g>
    <g transform="matrix(.30896 0 0 .30896 564.55 727.74)">
     <path d="m273.85 427.41c6.1897 0.24454 12.02 1.8791 17.193 4.6002l-5.6034 9.7052c-3.5149-1.7806-7.4368-2.8736-11.589-3.1008zm20.002 6.2251c5.0687 3.2108 9.3741 7.5172 12.585 12.585l-9.7071 5.6041c-2.2134-3.3772-5.105-6.2691-8.4816-8.4822zm14.21 15.395c2.7211 5.1713 4.3544 11.003 4.5999 17.192h-11.205c-0.22716-4.1523-1.3189-8.0748-3.0998-11.589zm-76.269 17.192c0.24486-6.1893 1.8784-12.021 4.5999-17.192l9.7049 5.6031c-1.7809 3.5142-2.8733 7.4368-3.1001 11.589zm6.2251-20.002c3.2105-5.0687 7.5169-9.3735 12.585-12.585l5.6038 9.7065c-3.3772 2.213-6.2691 5.105-8.4825 8.4825zm15.394-14.21c5.1716-2.7221 11.003-4.3553 17.193-4.6002v11.205c-4.1523 0.22749-8.0748 1.3192-11.589 3.1005l-5.6031-9.7049" fill="#237de0"/>
     <path d="m272.18 469.64c0.90237 0.36855 2.0049-0.0438 2.3099-0.96911l7.8016-23.762-11.081 22.421c-0.4317 0.87417 0.0668 1.9414 0.96911 2.3104" fill="#305680" fill-rule="evenodd"/>
    </g>
    <g transform="matrix(.34624 0 0 .34624 525.05 769)">
     <path d="m361.97 326.49c13.47 0.84189 23.994 11.786 25.256 25.256h-25.256zm-2.1047-4.2094h-2.1047v33.675h33.675v-2.1047c0-17.259-14.312-31.571-31.571-31.571z" fill="#237de0"/>
     <path d="m353.55 360.16v-33.675c-16.417 1.2628-29.466 14.733-29.466 31.571 0 17.259 14.312 31.571 31.571 31.571 16.838 0 30.308-13.049 31.571-29.466z" fill="#305680"/>
    </g>
   </g>
   <text x="-1063.0382" y="90.366386" fill="#237de0" font-family="Roboto" font-weight="bold" letter-spacing="0px" stroke-width="1px" word-spacing="0px" style="line-height:0%" xml:space="preserve"><tspan x="-1063.0382" y="90.366386" font-family="Roboto" font-size="15px" font-weight="bold" style="line-height:125%">Real-time dashboards</tspan></text>
   <rect x="-1070.4" y="70.169" width="163.86" height="96.878" fill="none" stroke="#305680" stroke-linecap="round" stroke-linejoin="round" stroke-width="5.2"/>
  </g>
  <g transform="matrix(1.0477 0 0 1.0477 44.664 -35.715)">
   <g fill="#fff" stroke="#305680" stroke-linecap="round" stroke-linejoin="round" stroke-width="5.2">
    <rect x="-1034.7" y="90.773" width="106.63" height="112.56"/>
    <rect x="-1046.7" y="80.148" width="106.63" height="112.56"/>
    <rect x="-1059.8" y="69.618" width="106.63" height="112.56"/>
   </g>
   <text x="-1007.4784" y="87.757423" fill="#237de0" font-family="Roboto" font-weight="bold" letter-spacing="0px" stroke-width="1px" text-align="center" text-anchor="middle" word-spacing="0px" style="line-height:0%" xml:space="preserve"><tspan x="-1007.4784" y="87.757423" font-size="15.236px" style="line-height:1.25">Smart Meters</tspan></text>
   <g transform="matrix(1.7371 0 0 1.7371 723.49 -407.58)">
    <path d="m-996.59 290.63a21.62 21.62 0 0 0-21.618 21.62 21.62 21.62 0 0 0 21.618 21.62 21.62 21.62 0 0 0 21.62-21.62 21.62 21.62 0 0 0-21.62-21.62zm0 6.3826c8.4156 0 15.239 6.8218 15.239 15.237h-30.477c0-8.4156 6.8218-15.237 15.237-15.237zm-9.547 24.383h4.6968v5.3732h-4.6968zm7.1986 0h4.6985v5.3732h-4.6985zm7.2003 0h4.6968v5.3732h-4.6968z" fill="#305680"/>
    <path d="m-989.9 303.82-4.1055 4.1973c-0.78099-0.49363-1.6516-0.8535-2.6387-0.85351-2.785-3e-5 -5.0664 2.2769-5.0664 5.0625 0 1.059 0.4052 1.9896 0.9668 2.8047l-2.0508 2.002 1.3965 1.4316 2.0918-2.043c0.786 0.5023 1.6656 0.86915 2.6621 0.86914 2.785-5e-5 5.0645-2.2794 5.0645-5.0644 0-1.0685-0.41164-2.0068-0.98242-2.8262l4.0918-4.1816z" color="#000000" color-rendering="auto" fill="#237de0" image-rendering="auto" shape-rendering="auto" solid-color="#000000" style="isolation:auto;mix-blend-mode:normal;text-decoration-color:#000000;text-decoration-line:none;text-decoration-style:solid;text-indent:0;text-transform:none;white-space:normal"/>
   </g>
  </g>
  <g transform="matrix(1.0477 0 0 1.0477 30.705 -28.613)">
   <g transform="matrix(.1543 0 0 .1543 -218.37 142.52)" fill="#305680">
    <g fill="#305680">
     <path d="m204.58 216.67c50.664 0 91.74-48.075 91.74-107.38 0-82.237-41.074-107.38-91.74-107.38-50.668 0-91.74 25.14-91.74 107.38 1e-3 59.303 41.073 107.38 91.74 107.38z"/>
     <path d="m407.16 374.72-46.28-104.27c-2.117-4.771-5.836-8.728-10.465-11.138l-71.83-37.392c-1.584-0.823-3.502-0.663-4.926 0.415-20.316 15.366-44.203 23.488-69.076 23.488-24.877 0-48.762-8.122-69.078-23.488-1.428-1.078-3.346-1.238-4.93-0.415l-71.83 37.4c-4.631 2.41-8.346 6.365-10.465 11.138l-46.284 104.26c-3.191 7.188-2.537 15.412 1.75 22.005 4.285 6.592 11.537 10.526 19.4 10.526h362.86c7.863 0 15.117-3.936 19.402-10.527 4.285-6.592 4.941-14.819 1.75-22.004z"/>
    </g>
   </g>
   <rect x="-276.38" y="114.78" width="179.14" height="99.129" fill="none" stroke="#305680" stroke-linecap="round" stroke-linejoin="round" stroke-width="5.2"/>
   <text x="-222.39169" y="136.28528" fill="#237de0" font-family="Roboto" font-size="17.5px" font-weight="bold" letter-spacing="0px" word-spacing="0px" style="line-height:0%" line-height="125%" xml:space="preserve"><tspan x="-222.39169" y="136.28528" font-family="Roboto" font-size="17.5px" font-weight="bold" style="line-height:125%">End User</tspan></text>
  </g>
  <g transform="matrix(1.0477 0 0 1.0477 62.825 -23.784)">
   <path d="m-179.03 273.98c-0.46597-0.4981-1.1729-0.75517-2.0727-0.75517h-0.25716c-4.5633 0.20893-9.1103 0.43384-13.673 0.64268-0.61069 0.0321-1.4462 0.0645-2.105 0.72309-0.20897 0.20892-0.36959 0.44989-0.49809 0.73912-0.67493 1.4622 0.27306 2.4102 0.72296 2.86l1.1409 1.1569c0.78721 0.80337 1.5906 1.6068 2.3939 2.3942l-27.572 27.588-12.388-12.388c-0.73901-0.73913-1.7354-1.1569-2.7958-1.1569s-2.0405 0.41774-2.7797 1.1569l-16.501 16.485c-1.5426 1.5425-1.5426 4.033 0 5.5755l0.73902 0.73913c0.73918 0.73911 1.7354 1.1569 2.7958 1.1569 1.0606 0 2.0405-0.41777 2.7797-1.1569l12.967-12.967 12.388 12.388c0.73902 0.73915 1.7354 1.1569 2.7958 1.1569 1.0606 0 2.0405-0.41774 2.7959-1.1569l31.107-31.107 3.5189 3.5027c0.41777 0.41773 0.99618 0.99623 1.8799 0.99623 0.36959 0 0.73918-0.0964 1.1247-0.30534 0.25716-0.14455 0.48203-0.30528 0.67493-0.49808 0.69084-0.69092 0.8195-1.5746 0.85162-2.2656 0.12949-2.9565 0.27306-5.9129 0.41777-8.8854l0.20881-4.4507c0.0492-0.93194-0.16062-1.655-0.6587-2.1692z" fill="#305680"/>
   <rect x="-306.95" y="236.59" width="178.98" height="98.28" fill="none" stroke="#305680" stroke-linecap="round" stroke-linejoin="round" stroke-width="5.2"/>
   <text x="-298.18982" y="259.28836" fill="#237de0" font-family="Roboto" font-weight="bold" letter-spacing="0px" stroke-width="1px" word-spacing="0px" style="line-height:0%" xml:space="preserve"><tspan x="-298.18982" y="259.28836" font-size="17.413px" style="line-height:1.25">Analytics framework</tspan></text>
  </g>
  <g transform="matrix(1.0477 0 0 1.0477 44.664 132.58)">
   <g fill="#fff" stroke="#305680" stroke-linecap="round" stroke-linejoin="round" stroke-width="5.2">
    <rect x="-1034.7" y="90.773" width="106.63" height="112.56"/>
    <rect x="-1046.7" y="80.148" width="106.63" height="112.56"/>
    <rect x="-1059.8" y="69.618" width="106.63" height="112.56"/>
   </g>
   <text x="-1007.4784" y="87.757423" fill="#237de0" font-family="Roboto" font-weight="bold" letter-spacing="0px" stroke-width="1px" text-align="center" text-anchor="middle" word-spacing="0px" style="line-height:0%" xml:space="preserve"><tspan x="-1007.4784" y="87.757423" font-size="15.236px" style="line-height:1.25">Smart Meters</tspan></text>
   <g transform="matrix(1.7371 0 0 1.7371 723.49 -407.58)">
    <path d="m-996.59 290.63a21.62 21.62 0 0 0-21.618 21.62 21.62 21.62 0 0 0 21.618 21.62 21.62 21.62 0 0 0 21.62-21.62 21.62 21.62 0 0 0-21.62-21.62zm0 6.3826c8.4156 0 15.239 6.8218 15.239 15.237h-30.477c0-8.4156 6.8218-15.237 15.237-15.237zm-9.547 24.383h4.6968v5.3732h-4.6968zm7.1986 0h4.6985v5.3732h-4.6985zm7.2003 0h4.6968v5.3732h-4.6968z" fill="#305680"/>
    <path d="m-989.9 303.82-4.1055 4.1973c-0.78099-0.49363-1.6516-0.8535-2.6387-0.85351-2.785-3e-5 -5.0664 2.2769-5.0664 5.0625 0 1.059 0.4052 1.9896 0.9668 2.8047l-2.0508 2.002 1.3965 1.4316 2.0918-2.043c0.786 0.5023 1.6656 0.86915 2.6621 0.86914 2.785-5e-5 5.0645-2.2794 5.0645-5.0644 0-1.0685-0.41164-2.0068-0.98242-2.8262l4.0918-4.1816z" color="#000000" color-rendering="auto" fill="#237de0" image-rendering="auto" shape-rendering="auto" solid-color="#000000" style="isolation:auto;mix-blend-mode:normal;text-decoration-color:#000000;text-decoration-line:none;text-decoration-style:solid;text-indent:0;text-transform:none;white-space:normal"/>
   </g>
  </g>
  <g fill="#305680">
   <path d="m-897.06 268.67c-7.4385 2.5607-14.867 5.1339-22.3 7.7019 7.7025 2.1408 15.43 4.2395 23.151 6.3493-0.99216-1.5578-2.0227-3.1037-3.0251-4.6588 26.122-0.15289 297.97-0.28126 324.09-0.41675-0.80787 1.6095-1.6479 3.2119-2.4503 4.8248 7.4385-2.5608 14.866-5.1326 22.299-7.7007-7.7021-2.1406-15.43-4.2408-23.151-6.3505 0.99216 1.5578 2.0238 3.1049 3.0262 4.66-26.122 0.15431-297.97 0.28095-324.09 0.41551 0.80787-1.6095 1.648-3.2119 2.4503-4.8248z"/>
   <path d="m-321.65 136.67c-7.4385 2.5607-14.867 5.1339-22.3 7.7019 7.7025 2.1408 15.43 4.2395 23.151 6.3493-0.99216-1.5578-2.0227-3.1037-3.0251-4.6588 26.122-0.15289 13.83-0.28126 39.952-0.41675-0.80787 1.6095-1.6479 3.2119-2.4503 4.8248 7.4385-2.5608 14.866-5.1326 22.299-7.7007-7.7021-2.1406-15.43-4.2408-23.151-6.3505 0.99216 1.5578 2.0238 3.1049 3.0262 4.66-26.122 0.15431-13.83 0.28095-39.952 0.41551 0.80787-1.6095 1.648-3.2119 2.4503-4.8248z"/>
   <path d="m-321.65 268.67c-7.4385 2.5607-14.867 5.1339-22.3 7.7019 7.7025 2.1408 15.43 4.2395 23.151 6.3493-0.99216-1.5578-2.0227-3.1037-3.0251-4.6588 26.122-0.15289 13.83-0.28126 39.952-0.41675-0.80787 1.6095-1.6479 3.2119-2.4503 4.8248 7.4385-2.5608 14.866-5.1326 22.299-7.7007-7.7021-2.1406-15.43-4.2408-23.151-6.3505 0.99216 1.5578 2.0238 3.1049 3.0262 4.66-26.122 0.15431-13.83 0.28095-39.952 0.41551 0.80787-1.6095 1.648-3.2119 2.4503-4.8248z"/>
  </g>
  <text x="-831.83752" y="263.23331" fill="#237de0" font-family="Roboto" font-weight="bold" letter-spacing="0px" stroke-width="1px" word-spacing="0px" style="line-height:0%" xml:space="preserve"><tspan x="-831.83752" y="263.23331" font-size="20.954px" style="line-height:1.25">MQTT / HTTP / COAP</tspan></text>
  <path d="m-612.59 111.62c-7.4385 2.5607-14.867 5.1339-22.3 7.7019 7.7025 2.1408 15.43 4.2395 23.151 6.3493-0.99216-1.5578-2.0227-3.1037-3.0251-4.6588 26.122-0.15289 13.83-0.28127 39.952-0.41675-0.80787 1.6095-1.6479 3.2119-2.4503 4.8248 7.4385-2.5608 14.866-5.1326 22.299-7.7007-7.7021-2.1406-15.43-4.2408-23.151-6.3505 0.99216 1.5578 2.0238 3.1049 3.0262 4.66-26.122 0.15431-13.83 0.28094-39.952 0.41551 0.80787-1.6095 1.648-3.2119 2.4503-4.8248z" fill="#305680"/>
  <g transform="translate(.30596 -2.0525)">
   <path d="m-897.4 79.852c-7.4386 2.5607-14.867 5.1339-22.3 7.7019 7.7025 2.1408 15.43 4.2395 23.151 6.3493-0.99214-1.5578-2.0226-3.1037-3.025-4.6588 26.122-0.15289 27.536-0.28126 53.657-0.41675-0.80791 1.6095-1.6479 3.2119-2.4504 4.8248 7.4385-2.5608 14.866-5.1326 22.299-7.7007-7.7021-2.1406-15.43-4.2408-23.151-6.3505 0.99214 1.5578 2.0238 3.1049 3.0263 4.66-26.122 0.15431-27.536 0.28095-53.658 0.41551 0.8079-1.6095 1.648-3.2119 2.4504-4.8248z" fill="#305680"/>
   <text x="-891.95697" y="78.302467" fill="#237de0" font-family="Roboto" font-weight="bold" letter-spacing="0px" stroke-width="1px" word-spacing="0px" style="line-height:0%" xml:space="preserve"><tspan x="-891.95697" y="78.302467" font-size="15.963px" style="line-height:1.25">LoRa</tspan></text>
   <g transform="matrix(1.0477 0 0 1.0477 42.086 6.8348)">
    <path d="m-896.72 99.424c-7.0999 2.4442-14.19 4.9002-21.285 7.3514 7.3519 2.0433 14.727 4.0465 22.097 6.0603-0.947-1.4869-1.9306-2.9624-2.8874-4.4468 24.933-0.14593 26.282-0.26846 51.215-0.39778-0.7711 1.5362-1.5729 3.0657-2.3388 4.6052 7.0999-2.4442 14.189-4.899 21.284-7.3502-7.3515-2.0432-14.728-4.0478-22.097-6.0615 0.947 1.4869 1.9317 2.9636 2.8885 4.4479-24.933 0.14729-26.282 0.26816-51.215 0.3966 0.7711-1.5362 1.573-3.0657 2.3388-4.6052z" fill="#305680"/>
    <text x="-896.02911" y="98.445076" fill="#237de0" font-family="Roboto" font-weight="bold" letter-spacing="0px" stroke-width="1px" word-spacing="0px" style="line-height:0%" xml:space="preserve"><tspan x="-896.02911" y="98.445076" font-size="15.236px" style="line-height:1.25">ZigBee</tspan></text>
   </g>
   <g transform="matrix(1.0477 0 0 1.0477 41.345 .96695)">
    <path d="m-896.01 135.34c-7.0999 2.4442-14.19 4.9002-21.285 7.3514 7.3519 2.0433 14.727 4.0465 22.097 6.0603-0.947-1.4869-1.9306-2.9624-2.8874-4.4468 24.933-0.14593 26.282-0.26846 51.215-0.39778-0.7711 1.5362-1.5729 3.0657-2.3388 4.6052 7.0999-2.4442 14.189-4.899 21.284-7.3502-7.3515-2.0432-14.728-4.0478-22.097-6.0615 0.947 1.4869 1.9317 2.9636 2.8885 4.4479-24.933 0.14729-26.282 0.26816-51.215 0.3966 0.7711-1.5362 1.573-3.0657 2.3388-4.6052z" fill="#305680"/>
    <text x="-904.34283" y="133.96211" fill="#237de0" font-family="Roboto" font-weight="bold" letter-spacing="0px" stroke-width="1px" word-spacing="0px" style="line-height:0%" xml:space="preserve"><tspan x="-904.34283" y="133.96211" font-size="15.236px" style="line-height:1.25">Bluetooth</tspan></text>
   </g>
   <g transform="matrix(1.0477 0 0 1.0477 41.76 -.1904)">
    <text x="-873.48511" y="162.65356" fill="#237de0" font-family="Roboto" font-weight="bold" letter-spacing="0px" stroke-width="1px" text-align="center" text-anchor="middle" word-spacing="0px" style="line-height:0%" xml:space="preserve"><tspan x="-873.48511" y="162.65356" font-family="Roboto" font-size="60px" font-weight="bold" text-align="center" text-anchor="middle" style="line-height:125%">...</tspan></text>
    <path d="m-896.41 165.43c-7.0999 2.4442-14.19 4.9002-21.285 7.3514 7.3519 2.0433 14.727 4.0465 22.097 6.0603-0.947-1.4869-1.9306-2.9624-2.8874-4.4468 24.933-0.14593 26.282-0.26846 51.215-0.39778-0.7711 1.5362-1.5729 3.0657-2.3388 4.6052 7.0999-2.4442 14.189-4.899 21.284-7.3502-7.3515-2.0432-14.728-4.0478-22.097-6.0615 0.947 1.4869 1.9317 2.9636 2.8885 4.4479-24.933 0.14729-26.282 0.26816-51.215 0.3966 0.7711-1.5362 1.573-3.0657 2.3388-4.6052z" fill="#305680"/>
   </g>
   <g transform="translate(-2.4273)">
    <path d="m-894.97 47.447c-7.4385 2.5607-14.867 5.1339-22.3 7.7019 7.7025 2.1408 15.43 4.2395 23.151 6.3493-0.9922-1.5578-2.0226-3.1037-3.0251-4.6588 26.122-0.15289 27.536-0.28126 53.658-0.41675-0.80791 1.6095-1.6479 3.2119-2.4504 4.8248 7.4385-2.5608 14.866-5.1326 22.299-7.7007-7.7021-2.1406-15.43-4.2408-23.151-6.3505 0.99214 1.5578 2.0238 3.1049 3.0263 4.66-26.122 0.15431-27.536 0.28095-53.658 0.41551 0.8079-1.6095 1.648-3.2119 2.4504-4.8248z" fill="#305680"/>
    <text x="-895.52966" y="43.896793" fill="#237de0" font-family="Roboto" font-weight="bold" letter-spacing="0px" stroke-width="1px" word-spacing="0px" style="line-height:0%" xml:space="preserve"><tspan x="-895.52966" y="43.896793" font-size="15.963px" style="line-height:1.25">Sigfox</tspan></text>
   </g>
  </g>
  <g transform="matrix(.75579 0 0 .75579 950.94 -1.1713)">
   <g>
    <g fill="#fff" stroke="#305680" stroke-linecap="round" stroke-linejoin="round" stroke-width="3.5433">
     <rect x="-2294.6" y="88.932" width="186" height="196.35"/>
     <rect x="-2315.4" y="70.398" width="186" height="196.35"/>
     <rect x="-2338.4" y="52.03" width="186" height="196.35"/>
    </g>
    <g fill="#237de0" stroke-width="1.7444px" aria-label="Integrations">
     <path d="m-2313.4 83.671h-3.8933v-18.895h3.8933z"/>
     <path d="m-2306.6 69.63 0.1168 1.6222q1.5054-1.8817 4.036-1.8817 2.2321 0 3.3222 1.3107t1.1161 3.9192v9.0712h-3.7505v-8.9804q0-1.1939-0.5191-1.726-0.5191-0.54505-1.726-0.54505-1.5833 0-2.3749 1.3497v9.9018h-3.7505v-14.042z"/>
     <path d="m-2290.7 66.178v3.452h2.4008v2.7512h-2.4008v7.0078q0 0.77865 0.2985 1.1161t1.142 0.33741q0.6229 0 1.1031-0.09084v2.8421q-1.1031 0.33742-2.2711 0.33742-3.9451 0-4.023-3.9841v-7.5659h-2.0504v-2.7512h2.0504v-3.452z"/>
     <path d="m-2279.7 83.931q-3.0887 0-5.0353-1.8947-1.9336-1.8947-1.9336-5.0482v-0.36337q0-2.1153 0.8176-3.7764 0.8175-1.6741 2.31-2.5695 1.5053-0.90842 3.426-0.90842 2.881 0 4.5291 1.8168 1.6612 1.8168 1.6612 5.1521v1.5313h-8.9415q0.1817 1.3756 1.0901 2.2062 0.9214 0.83056 2.323 0.83056 2.1672 0 3.3871-1.5703l1.8428 2.0634q-0.8436 1.1939-2.2841 1.8688-1.4405 0.66185-3.1924 0.66185zm-0.4283-11.524q-1.116 0-1.8168 0.75269-0.6878 0.75269-0.8825 2.1543h5.217v-0.29848q-0.026-1.2458-0.6749-1.9207-0.6488-0.68781-1.8428-0.68781z"/>
     <path d="m-2272.3 76.547q0-3.2314 1.5313-5.204 1.5443-1.9726 4.1528-1.9726 2.31 0 3.5948 1.5833l0.1557-1.3237h3.4001v13.574q0 1.8428-0.8435 3.2054-0.8306 1.3626-2.349 2.0764-1.5183 0.71376-3.5558 0.71376-1.5443 0-3.0108-0.62292-1.4664-0.60994-2.2191-1.5833l1.6611-2.284q1.4016 1.5703 3.4001 1.5703 1.4924 0 2.323-0.8046 0.8305-0.79162 0.8305-2.2581v-0.75269q-1.2977 1.4665-3.413 1.4665-2.5306 0-4.1009-1.9726-1.5573-1.9856-1.5573-5.2559zm3.7505 0.27253q0 1.9077 0.7656 2.9978 0.7657 1.0771 2.1024 1.0771 1.713 0 2.4527-1.2848v-5.9047q-0.7527-1.2848-2.4268-1.2848-1.3496 0-2.1283 1.1031-0.7656 1.1031-0.7656 3.2963z"/>
     <path d="m-2248.7 73.147q-0.7656-0.10382-1.3496-0.10382-2.1283 0-2.7902 1.4405v9.188h-3.7505v-14.042h3.5429l0.1038 1.6741q1.129-1.9336 3.1276-1.9336 0.6229 0 1.1679 0.16871z"/>
     <path d="m-2239.2 83.671q-0.2596-0.50612-0.3764-1.2588-1.3626 1.5184-3.5428 1.5184-2.0634 0-3.4261-1.1939-1.3496-1.1939-1.3496-3.0108 0-2.2321 1.6481-3.4261 1.6611-1.1939 4.7887-1.2069h1.726v-0.8046q0-0.97331-0.5061-1.5573-0.4932-0.58399-1.5703-0.58399-0.9474 0-1.4924 0.45421-0.5321 0.45421-0.5321 1.2458h-3.7505q0-1.2199 0.7527-2.2581 0.7527-1.0382 2.1283-1.6222 1.3756-0.59696 3.0887-0.59696 2.5955 0 4.1138 1.3107 1.5314 1.2977 1.5314 3.6596v6.0864q0.013 1.9985 0.558 3.0237v0.22062zm-3.1016-2.6085q0.8305 0 1.5313-0.36337 0.7008-0.37635 1.0382-0.99926v-2.4138h-1.4016q-2.8161 0-2.9978 1.9466l-0.013 0.22062q0 0.70078 0.4931 1.155t1.3497 0.45421z"/>
     <path d="m-2228.5 66.178v3.452h2.4008v2.7512h-2.4008v7.0078q0 0.77865 0.2985 1.1161t1.142 0.33741q0.6229 0 1.1031-0.09084v2.8421q-1.1031 0.33742-2.2711 0.33742-3.9451 0-4.023-3.9841v-7.5659h-2.0504v-2.7512h2.0504v-3.452z"/>
     <path d="m-2220.1 83.671h-3.7634v-14.042h3.7634zm-3.984-17.675q0-0.84354 0.558-1.3886 0.571-0.54505 1.5443-0.54505 0.9603 0 1.5314 0.54505 0.571 0.54505 0.571 1.3886 0 0.85651-0.584 1.4016-0.571 0.54505-1.5184 0.54505-0.9473 0-1.5313-0.54505-0.571-0.54505-0.571-1.4016z"/>
     <path d="m-2217.6 76.521q0-2.0894 0.8046-3.7245t2.31-2.5306q1.5183-0.89544 3.5169-0.89544 2.842 0 4.6329 1.739 1.8039 1.739 2.0115 4.7238l0.026 0.96033q0 3.2314-1.8039 5.191-1.8039 1.9466-4.8406 1.9466t-4.8536-1.9466q-1.8038-1.9466-1.8038-5.2948zm3.7505 0.27253q0 1.9985 0.7527 3.0627 0.7526 1.0512 2.1542 1.0512 1.3626 0 2.1283-1.0382 0.7657-1.0512 0.7657-3.3482 0-1.9596-0.7657-3.0367-0.7657-1.0771-2.1542-1.0771-1.3757 0-2.1283 1.0771-0.7527 1.0642-0.7527 3.3093z"/>
     <path d="m-2198.5 69.63 0.1168 1.6222q1.5054-1.8817 4.036-1.8817 2.2321 0 3.3222 1.3107 1.0902 1.3107 1.1161 3.9192v9.0712h-3.7505v-8.9804q0-1.1939-0.5191-1.726-0.5191-0.54505-1.726-0.54505-1.5832 0-2.3749 1.3497v9.9018h-3.7504v-14.042z"/>
     <path d="m-2179.4 79.791q0-0.68781-0.6878-1.0771-0.6748-0.4023-2.1802-0.71376-5.0093-1.0512-5.0093-4.2566 0-1.8688 1.5443-3.1146 1.5573-1.2588 4.062-1.2588 2.6734 0 4.2696 1.2588 1.6092 1.2588 1.6092 3.2703h-3.7505q0-0.8046-0.5191-1.3237-0.5191-0.53208-1.6222-0.53208-0.9473 0-1.4664 0.42826-0.5191 0.42826-0.5191 1.0901 0 0.62292 0.5839 1.0122 0.597 0.37635 1.9986 0.66185 1.4015 0.27253 2.3619 0.62292 2.9718 1.0901 2.9718 3.7764 0 1.9207-1.6481 3.1146-1.6482 1.181-4.2566 1.181-1.765 0-3.1406-0.62292-1.3626-0.6359-2.1413-1.726-0.7786-1.1031-0.7786-2.3749h3.5558q0.052 0.99926 0.7397 1.5313 0.6878 0.53208 1.8428 0.53208 1.0772 0 1.6222-0.4023 0.558-0.41528 0.558-1.0771z"/>
    </g>
   </g>
   <g transform="translate(1.3258)">
    <g transform="matrix(-.31273 0 0 -.31273 -2167.6 243.68)" fill="#305680">
     <g fill="#305680">
      <path d="m465.3 145.05h-43.5c-17.7 0-21.8-14.7-12.6-25.3 15.2-17.2 7.1-43-20.2-44.5-27.3 1-35.4 27.3-20.2 44 9.1 10.1 5.1 25.3-12.6 25.3h-42.5c-12.6 0-23.3 10.1-23.3 23.3v55.1h-1-78.4v-21.8c0-2-2.5-3-4.6-1.5l-51.1 42c-1.5 1.5-1.5 4 0 5.6l51.1 42c2 1.5 4.6 0 4.6-2v-21.8h78.2 1v55.6c0 12.6 10.1 23.3 23.3 23.3h42.5c17.7 0 21.8 14.7 12.6 24.8-15.2 17.2-7.1 43 20.2 44 27.3-1 35.4-27.3 20.2-44-9.1-10.1-5.1-24.8 12.6-24.8h43c13.2 0 23.8-10.6 23.8-23.8v-43.6c-0.5-17.2-15.2-21.2-25.3-12.1-17.2 15.2-43.5 7.1-44.5-20.2 1-27.3 27.3-35.4 44.5-20.2 10.1 9.1 24.8 5.1 25.3-12.1v-44c0.1-12.7-10-23.3-23.1-23.3z" fill="#305680"/>
     </g>
    </g>
    <g transform="matrix(-.31273 0 0 -.31273 -2167.6 243.68)" fill="#237de0">
     <g fill="#237de0">
      <path d="m244.7 145.45h-43.5c-17.7 0-21.8-15.2-12.6-25.3 15.2-17.2 7.1-43.5-20.2-44.5-27.3 1-35.4 26.8-20.2 44 9.1 10.1 5.1 25.3-12.6 25.3h-42.5c-13.2 0-23.3 10.6-23.3 23.3v43.5c0 17.7-15.2 21.8-25.3 12.6-17.2-15.2-43.5-7.1-44.5 20.2 1 27.3 27.3 35.4 44 20.2 10.1-9.1 25.3-5.1 25.3 12.6v43c0 13.2 10.6 23.3 23.3 23.3h42.5c17.7 0 21.8 14.7 12.6 24.8-15.2 16.7-7.1 43 20.2 44 27.3-1 35.4-26.8 20.2-44-9.1-10.1-5.1-24.8 12.6-24.8h43c13.2 0 23.8-10.6 23.8-23.8v-32.7h-34.4c-0.5 13.7-11.7 24.8-25.3 24.8-6.1 0-11.6-2-16.2-5.6l-51.1-42c-6.1-5.1-9.6-12.1-9.6-20.2s3.5-15.2 9.6-20.2l51.6-42c4.6-3.5 10.1-5.6 16.2-5.6 13.7 0 24.8 11.1 25.3 24.8h34.4v-32.4c0-13.2-10.6-23.3-23.3-23.3z" fill="#237de0"/>
     </g>
    </g>
   </g>
  </g>
  <g transform="translate(-4.6875 -152.81)">
   <rect x="-519.15" y="377.3" width="173.07" height="103.71" fill="none" stroke="#305680" stroke-linecap="round" stroke-linejoin="round" stroke-width="5.448"/>
   <g transform="matrix(.94623 0 0 .94623 -716.21 -438.44)">
    <g transform="matrix(.97318 -1.2702 1.2702 .97318 -1152.1 594.01)" clip-rule="evenodd" fill="#237de0" fill-rule="evenodd">
     <path d="m363.34 833.96c1.6957 0.36941 3.8357-2.9495 2.9776-4.2854-0.28078-0.43886-0.42149-0.92847-0.43076-1.4141 0.91589-0.99503 2.8621-2.1052 3.8572-2.5322 0.45803 0.20996 0.8627 0.54821 1.155 1.0035 0.93562 1.458 4.7543 0.81995 5.1349-0.92501 0.11881-0.54527 0.48638-1.0913 0.76615-1.3768 0.95979-8.3e-4 3.0259 0.39787 4.4258 0.95493 0.17933 0.35712 0.24744 1.032 0.12672 1.5803-0.40182 1.8456 2.9168 3.8563 4.3141 2.9593 0.46665-0.2999 1.1255-0.46344 1.5066-0.43241 0.72718 0.70605 2.04 2.7585 2.4742 3.7763-0.28144 0.41708-0.55777 0.92771-1.0396 1.2367-1.3968 0.89757-0.86622 4.7699 0.9287 5.1612 0.59041 0.12892 1.1144 0.44934 1.4642 0.86128-0.0522 0.99901-0.60101 3.4216-0.99349 4.3106-0.22593 0.18113-1.0626 0.27217-1.6303 0.14824-2.4433-0.53217-4.0844 2.6069-2.9925 4.3071 0.30832 0.48046 0.50284 1.0269 0.43021 1.5521-0.69255 0.70104-2.6906 1.997-3.7743 2.4303-0.47093-0.17709-0.92799-0.55723-1.2371-1.0394-0.97473-1.5191-4.726-1.0652-5.1609 0.92952-0.11338 0.51901-0.42849 0.96401-0.74944 1.3942-1.2742-0.0952-3.4871-0.44591-4.5187-1.0113-0.17766-0.48873-0.16174-1.0337-0.0509-1.5412 0.38053-1.746-2.7597-3.9861-4.278-3.011-0.42426 0.27277-0.928 0.47952-1.4014 0.49982-0.93531-0.87967-2.3071-2.9541-2.6105-3.9706 0.23037-0.50933 0.63103-0.82739 1.0711-1.1106 1.6403-1.0524 0.97092-4.7227-0.9238-5.1353-0.51861-0.1135-0.99378-0.41073-1.3581-0.73085 0.10629-1.1032 0.34297-3.0499 0.9398-4.462 0.58126-0.22927 1.0294-0.2464 1.5775-0.12715zm4.5488 3.6302c-0.94174 4.3184 1.7959 8.581 6.1138 9.5222 4.3177 0.94039 8.5808-1.798 9.5221-6.1162 0.94133-4.3182-1.7961-8.5811-6.1137-9.5218-4.3178-0.94079-8.5809 1.797-9.5222 6.1158z"/>
     <path d="m370.63 810.63c0.80729 0.40719 2.319-0.98843 2.0601-1.7741-0.0845-0.25795-0.0917-0.52326-0.0332-0.76946 0.5916-0.38269 1.7179-0.68931 2.2756-0.77511 0.20371 0.16557 0.36382 0.38889 0.45196 0.65661 0.28212 0.85735 2.2916 1.0327 2.7108 0.20203 0.13097-0.25958 0.38746-0.48717 0.56577-0.59476 0.48429 0.12457 1.4747 0.59475 2.1083 1.058 0.044 0.20351-0.01 0.55282-0.14186 0.81371-0.44301 0.8787 0.96927 2.3252 1.7909 2.0546 0.27446-0.0905 0.62813-0.0872 0.81631-0.022 0.2749 0.45087 0.66993 1.6572 0.75642 2.2272-0.19629 0.17375-0.40218 0.39537-0.68547 0.48849-0.82153 0.2709-1.0581 2.2935-0.20358 2.7246 0.281 0.14202 0.50369 0.37179 0.62648 0.62514-0.15641 0.49718-0.74874 1.6478-1.0625 2.0452-0.13756 0.062-0.5715-1e-3 -0.84171-0.1375-1.1633-0.58663-2.3999 0.78323-2.0705 1.7831 0.093 0.28252 0.11995 0.58351 0.0149 0.83898-0.44066 0.26346-1.6174 0.65704-2.2205 0.73453-0.2145-0.15066-0.39557-0.40194-0.48871-0.68545-0.2939-0.89325-2.2454-1.1528-2.7245-0.20313-0.12491 0.247-0.34169 0.43051-0.55961 0.60572-0.6304-0.21394-1.701-0.67903-2.1478-1.0986-0.026-0.26968 0.053-0.54252 0.17501-0.78411 0.41933-0.83125-0.87309-2.3702-1.766-2.076-0.24954 0.0824-0.53058 0.12105-0.77206 0.0696-0.35727-0.56555-0.77918-1.7906-0.79985-2.343 0.18253-0.22695 0.42608-0.33522 0.68497-0.42076 0.96451-0.31732 1.1048-2.256 0.20269-2.7109-0.24683-0.12481-0.44784-0.33661-0.58996-0.54554 0.19728-0.54269 0.57016-1.4939 1.0551-2.1285 0.32308-0.04 0.55138 0.01 0.81234 0.14127zm1.822 2.4236c-1.0374 2.0558-0.21145 4.5626 1.8442 5.5997 2.0556 1.0366 4.5628 0.21034 5.6-1.8455 1.0372-2.0558 0.21133-4.5628-1.8442-5.5995-2.0557-1.0369-4.5627-0.2109-5.6 1.8452z"/>
     <path d="m347.84 818.38c1.2056 0.23226 2.6624-2.1517 2.0326-3.0818-0.20608-0.30559-0.31398-0.64947-0.32885-0.99278 0.63076-0.71942 1.9882-1.5379 2.6848-1.8569 0.32753 0.14068 0.61953 0.37297 0.83402 0.68997 0.68666 1.0152 3.3765 0.49859 3.6159-0.74207 0.0747-0.38768 0.32533-0.78014 0.51832-0.98683 0.67881-0.017 2.1469 0.22964 3.1465 0.59967 0.13295 0.24952 0.19266 0.72564 0.11665 1.1155-0.2526 1.3122 2.129 2.6776 3.1018 2.0192 0.32491-0.22009 0.7881-0.34703 1.0581-0.3316 0.5264 0.48692 1.49 1.9161 1.8145 2.6285-0.19193 0.2998-0.37863 0.66567-0.7141 0.89244-0.97257 0.65872-0.53105 3.3884 0.74513 3.6344 0.41977 0.0811 0.79589 0.29873 1.0503 0.58409-0.0198 0.70746-0.36655 2.4302-0.62891 3.0657-0.15669 0.13198-0.7469 0.21068-1.1505 0.13274-1.7372-0.33459-2.8441 1.9136-2.0428 3.0974 0.22628 0.33453 0.37321 0.71768 0.33083 1.0904-0.47783 0.50766-1.8688 1.4584-2.6278 1.7834-0.3361-0.11719-0.66587-0.37822-0.89273-0.714-0.71537-1.0577-3.3608-0.67257-3.6342 0.74571-0.0713 0.36901-0.28654 0.68914-0.50619 0.99885-0.90283-0.0455-2.4739-0.25572-3.2132-0.63794-0.13402-0.34262-0.13207-0.72833-0.0624-1.0892 0.23926-1.2414-2.02-2.772-3.0771-2.0564-0.2954 0.20018-0.64814 0.35503-0.98264 0.37748-0.67656-0.60616-1.6823-2.0498-1.9142-2.7636 0.15416-0.36419 0.43215-0.59597 0.73858-0.80378 1.1421-0.7724 0.60591-3.3568-0.74121-3.6162-0.36874-0.0714-0.7099-0.27349-0.97307-0.49365 0.0563-0.78208 0.1904-2.1629 0.58836-3.1718 0.40718-0.1721 0.72384-0.19189 1.1135-0.11693zm3.2793 2.4897c-0.59218 3.0703 1.4169 6.0383 4.487 6.6301 3.0698 0.59125 6.0381-1.4185 6.63-4.4887 0.59191-3.0702-1.4171-6.0384-4.4869-6.6298-3.0699-0.59153-6.0382 1.4177-6.6301 4.4884z"/>
    </g>
    <path d="m323.43 949.36 0.01-42.659v0" fill="none" stroke="#305680" stroke-linecap="round" stroke-linejoin="round" stroke-width="8.4145"/>
    <g transform="matrix(.10005 .033696 -.033696 .10005 345 899.17)" fill="#237de0">
     <path d="m362.3 125.06c-2.851-2.853-6.092-4.28-9.706-4.287-0.77 0-1.902 0.193-3.432 0.572l-113.06 27.979 48.817-132.19c0.951-1.903 1.431-3.614 1.431-5.139 0-3.234-1.242-6.04-3.713-8.42-2.474-2.383-5.52-3.571-9.134-3.571h-93.645c-3.045 0-5.708 0.855-7.994 2.568-2.284 1.715-3.809 3.905-4.568 6.567l-57.386 235.55c-0.953 4.564 0.284 8.277 3.711 11.135 2.473 2.099 5.421 3.139 8.848 3.139 1.524 0 2.666-0.089 3.427-0.281l115.91-28.838-56.244 230.69c-0.76 3.045-0.333 5.899 1.287 8.562 1.619 2.669 4.047 4.476 7.281 5.427 1.903 0.377 3.239 0.568 3.999 0.568 5.52 0 9.514-2.375 11.991-7.136l154.17-330.33c2.095-4.567 1.434-8.756-1.998-12.561z" fill="#237de0"/>
    </g>
   </g>
   <text x="-476.79858" y="398.74957" fill="#237de0" font-family="Roboto" font-size="12.572px" font-weight="bold" letter-spacing="0px" stroke-width="1.0477px" word-spacing="0px" style="line-height:0%" xml:space="preserve"><tspan x="-476.79858" y="398.74957" font-size="18.243px" stroke-width="1.0477px" style="line-height:1.25">Rule Engine</tspan></text>
  </g>
 </g>
</svg>
