<svg xmlns="http://www.w3.org/2000/svg" height="16.827mm" width="100.91mm" version="1.1" viewBox="0 0 100.91455 16.827499">
 <g transform="translate(-39.345 -103.37)">
  <g>
   <g fill="#2f2b2c" transform="matrix(.26458 0 0 .26458 39.345 103.37)">
    <path d="m145 22.5h2.6v3.9h0.1c1.5-2.8 3.9-4.6 7.6-4.6 3.1 0 5.8 1.5 6.7 4.6 1.4-3.1 4.3-4.6 7.4-4.6 5.1 0 7.7 2.7 7.7 8.2v15.8h-2.9v-15.7c0-3.8-1.4-5.9-5.5-5.9-4.9 0-6.3 4.1-6.3 8.4v13.2h-2.9v-15.8c0-3.2-1.3-5.8-4.9-5.8-4.9 0-6.9 3.7-7 8.6v13h-2.6z" class="st0"/>
    <path d="m181.3 29.6c0.3-5.5 4.1-7.8 9.5-7.8 4.1 0 8.6 1.3 8.6 7.5v12.4c0 1.1 0.5 1.7 1.7 1.7 0.3 0 0.7-0.1 0.9-0.2v2.4c-0.6 0.1-1.1 0.2-1.9 0.2-2.9 0-3.3-1.6-3.3-4.1h-0.1c-2 3-4 4.8-8.5 4.8-4.3 0-7.8-2.1-7.8-6.8 0-6.6 6.4-6.8 12.5-7.5 2.4-0.3 3.7-0.6 3.7-3.2 0-3.8-2.8-4.8-6.1-4.8-3.5 0-6.2 1.6-6.2 5.4zm15.2 3.5c-0.5 0.7-1.7 0.9-2.5 1-4.8 0.9-10.9 0.8-10.9 5.4 0 2.9 2.5 4.6 5.2 4.6 4.3 0 8.2-2.8 8.1-7.3v-3.7z" class="st0"/>
    <path d="m205.7 22.5h2.6v5.5h0.1c1.4-3.8 4.6-6 8.8-5.8v2.8c-5.2-0.3-8.7 3.5-8.7 8.4v12.4h-2.9v-23.3z" class="st0"/>
    <path d="m221.5 13.5h2.9v20.3l12.9-11.3h3.8l-10 8.6 10.6 14.7h-3.6l-9.1-12.7-4.6 3.8v8.9h-2.9z" class="st0"/>
    <path d="m244.7 34.9c0 4.2 2.2 9.2 7.7 9.2 4.2 0 6.4-2.4 7.3-6h2.9c-1.2 5.3-4.3 8.4-10.2 8.4-7.4 0-10.5-5.7-10.5-12.4 0-6.2 3.1-12.4 10.5-12.4 7.5 0 10.5 6.6 10.3 13.1h-18zm15.1-2.4c-0.1-4.3-2.8-8.3-7.4-8.3-4.7 0-7.2 4.1-7.7 8.3z" class="st0"/>
    <path d="m271.7 22.5h4.8v2.4h-4.8v15.7c0 1.9 0.3 2.9 2.3 3.1 0.8 0 1.6 0 2.4-0.1v2.4c-0.9 0-1.7 0.1-2.5 0.1-3.8 0-5.1-1.3-5.1-5.2v-16h-4.1v-2.4h4.1v-7h2.9z" class="st0"/>
    <path d="m281.3 22.5h2.6v4.4h0.1c1.3-3.2 4.6-5.1 8.3-5.1 7.1 0 10.5 5.7 10.5 12.4 0 6.6-3.4 12.4-10.5 12.4-3.5 0-6.9-1.8-8.1-5.1h-0.1v13.1h-2.9v-32.1zm11 1.7c-6.3 0-8.2 4.7-8.2 10 0 4.8 2.1 10 8.2 10 5.4 0 7.6-5.1 7.6-10s-2.1-10-7.6-10z" class="st0"/>
    <path d="m306.2 13.5h2.9v32.3h-2.9z" class="st0"/>
    <path d="m314.9 29.6c0.3-5.5 4.1-7.8 9.5-7.8 4.1 0 8.6 1.3 8.6 7.5v12.4c0 1.1 0.5 1.7 1.7 1.7 0.3 0 0.7-0.1 0.9-0.2v2.4c-0.6 0.1-1.1 0.2-1.9 0.2-2.9 0-3.3-1.6-3.3-4.1h-0.1c-2 3-4 4.8-8.5 4.8-4.3 0-7.8-2.1-7.8-6.8 0-6.6 6.4-6.8 12.5-7.5 2.4-0.3 3.7-0.6 3.7-3.2 0-3.8-2.8-4.8-6.1-4.8-3.5 0-6.2 1.6-6.2 5.4zm15.2 3.5c-0.5 0.7-1.7 0.9-2.5 1-4.8 0.9-10.9 0.8-10.9 5.4 0 2.9 2.5 4.6 5.2 4.6 4.3 0 8.2-2.8 8.1-7.3v-3.7z" class="st0"/>
    <path d="m354.9 29.8c-0.8-3.5-2.9-5.6-6.6-5.6-5.5 0-8.2 5-8.2 10s2.7 10 8.2 10c3.5 0 6.4-2.8 6.8-6.7h2.9c-0.8 5.6-4.4 9.1-9.6 9.1-7.2 0-11-5.7-11-12.4s3.9-12.4 11-12.4c5 0 8.8 2.7 9.5 8z" class="st0"/>
    <path d="m363.4 34.9c0 4.2 2.2 9.2 7.7 9.2 4.2 0 6.4-2.4 7.3-6h2.9c-1.2 5.3-4.3 8.4-10.2 8.4-7.4 0-10.5-5.7-10.5-12.4 0-6.2 3.1-12.4 10.5-12.4 7.5 0 10.5 6.6 10.3 13.1h-18zm15.1-2.4c-0.1-4.3-2.8-8.3-7.4-8.3-4.7 0-7.2 4.1-7.7 8.3z" class="st0"/>
   </g>
   <circle stroke-width=".26458" class="st0" cy="118.77" cx="43.975" r="1.4288" fill="#57585a"/>
   <circle stroke-width=".26458" class="st0" cy="118.77" cx="52.23" r="1.4288" fill="#57585a"/>
   <polygon transform="matrix(.26458 0 0 .26458 39.345 103.37)" points="55.9 50.3 66.8 15.2 84 15.2 84 8 59.9 8 50.3 40.8 15.2 40.8 9.2 21.5 0 21.5 9.5 50.3" class="st0" fill="#58595b"/>
   <g fill="#fa9a06">
    <g transform="matrix(.26458 0 0 .26458 39.345 103.37)">
     <g fill="#fa9a06">
      <g fill="#fa9a06">
       <path d="m94.9 46.6c-0.5 0-1.1-0.4-1.3-1l-6.2-22.1c-0.1-0.5 0.2-1 0.7-1.1l4.4-0.5c0.5-0.1 1.1 0.3 1.2 0.9l1.6 7.4c0.1 0.5 0.3 1.4 0.4 2 0 0 0.4 1.9 0.6 3.3s0.4 2.5 0.5 3.3c0.1-0.7 0.3-1.9 0.6-3.5s0.7-3.3 1.2-5l2-7.2c0.1-0.5 0.7-1 1.3-1h4c0.6 0 1.1 0.4 1.2 1l1.5 6.1c0.1 0.5 0.3 1.4 0.5 1.9 0 0 0.5 2.3 0.9 4.1 0.3 1.7 0.6 2.9 0.7 3.6 0-0.1 0.1-0.5 0.2-1.2s0.2-1.3 0.3-1.8 0.2-1.2 0.4-2.2 0.4-1.9 0.5-2.8l1.7-7.7c0.1-0.5 0.7-1 1.2-1h4.6c0.6 0 0.9 0.4 0.7 1l-6.4 22.5c-0.2 0.5-0.7 1-1.3 1h-3.9c-0.5 0-1.1-0.4-1.3-1l-1.7-6.5c-0.1-0.5-0.4-1.4-0.5-1.9 0 0-0.8-3.3-1.2-5-0.1-0.7-0.2-1.5-0.4-2.5-0.1 0.9-0.3 2-0.6 3.2-0.2 1.1-0.5 2.3-0.9 3.6-0.3 1.3-0.6 2.5-0.8 3.4s-0.4 1.5-0.4 1.6l-1 4.1c-0.1 0.5-0.7 1-1.2 1z" class="st0" fill="#fa9a06"/>
      </g>
     </g>
    </g>
    <g transform="matrix(.26458 0 0 .26458 39.345 103.37)">
     <g fill="#fa9a06">
      <g fill="#fa9a06">
       <path d="m139 23.5-1.6 3.4c-0.2 0.5-0.8 0.7-1.3 0.5 0 0-3.1-1.4-4.9-1.4s-3 1-3 2.4c0 1.2 0.8 1.9 2.9 2.5l1.9 0.5c0.5 0.1 1.4 0.4 1.9 0.7 0 0 2.9 1.3 3.8 2.4 0.9 1.2 1.3 2.5 1.3 4.2 0 5.1-4 8.6-10 8.6-2.9 0-6.1-1-9.5-2.8l1.8-3.8c0.2-0.5 0.8-0.7 1.3-0.4 0 0 4.3 2.3 6.9 2.3 1.7 0 3.1-1.2 3.1-2.8 0-1.7-1.1-2.5-3.6-3l-1.8-0.3c-0.5-0.1-1.4-0.4-1.9-0.6 0 0-2.6-1.1-3.4-2.1-0.8-1.1-1.3-2.8-1.3-4.4 0-4.8 3.6-8 9.1-8 3.7-0.2 6.2 1 8.3 2.1z" class="st0" fill="#fa9a06"/>
      </g>
     </g>
    </g>
    <path d="m225.81 412.88c-4.1 0-8.6992 1.4996-9.6992 6.5996-0.1 0.49999 0.19959 0.80023 0.59961 0.90039l4.1992 0.5c0.39999 0 0.70062-0.4008 0.80078-0.80079 0.40003-1.8 1.8-2.5996 3.5-2.5996 0.90002-0.00001 1.9004 0.29963 2.4004 1.0996 0.60019 0.80002 0.5 2.0996 0.5 3.0996v0.59961c-2.6 0.30002-5.8012 0.49998-8.2012 1.5-2.7 1.2-4.5996 3.6016-4.5996 7.1016 0 4.5 2.8 6.7988 6.5 6.7988 3.1 0 4.7992-0.79922 7.1992-3.1992 0.80001 1.1 1.1 1.7004 2.5 2.9004 0.29998 0.19993 0.6999 0.19853 1-0.10157 0.90002-0.80001 2.4008-2.0992 3.3008-2.6992 0.3001-0.30001 0.3001-0.79923 0-1.1992-0.80001-1.1-1.5996-2-1.5996-4v-6.8008c0-2.9 0.19959-5.5-1.9004-7.5-1.6-1.6-4.4-2.1992-6.5-2.1992zm2.4004 12.898v0.90039h-0.0996c0 1.7-0.00077 3.0996-0.80078 4.5996-0.70001 1.2-1.8 2-3 2-1.7 0-2.5996-1.2996-2.5996-3.0996 0-3.7 3.3-4.4004 6.5-4.4004z" transform="scale(.26458)"/>
   </g>
   <g fill="#1f71b3" transform="matrix(.26458 0 0 .26458 39.345 103.37)">
    <path d="m31.9 25.1-8.5-2.7v12.3c0.6 0.3 6.4 2.1 8.4 2.8l0.1-12.4" class="st2"/>
    <path d="m33.9 25.1 8.5-2.7v12c-0.6 0.3-6.4 2.1-8.4 2.8l-0.1-12.1" class="st2"/>
    <polyline class="st2" points="40.7 21.1 32.9 19 25.1 21.1 32.9 23.6 40.7 21.1"/>
   </g>
   <g fill="#83c4ea" transform="matrix(.26458 0 0 .26458 39.345 103.37)">
    <path d="m42.8 6.1-8.5-2.7v12.3c0.6 0.3 6.4 2.1 8.4 2.8l0.1-12.4" class="st3"/>
    <path d="m44.7 6.1 8.4-2.7v12c-0.6 0.3-6.4 2.1-8.4 2.8v-12.1" class="st3"/>
    <polyline class="st3" points="51.5 2.1 43.8 0 36 2.1 43.8 4.6 51.5 2.1"/>
   </g>
   <g fill="#f90" transform="matrix(.26458 0 0 .26458 39.345 103.37)">
    <path d="m20.1 6.1-8.5-2.7v12.3c0.6 0.3 6.4 2.1 8.4 2.8l0.1-12.4" class="st4"/>
    <path d="m22 6.1 8.4-2.7v12c-0.6 0.3-6.4 2.1-8.4 2.8v-12.1" class="st4"/>
    <polyline class="st4" points="28.8 2.1 21 0 13.2 2.1 21 4.6 28.8 2.1"/>
   </g>
  </g>
 </g>
</svg>
