<?xml version="1.0" encoding="UTF-8" standalone="no"?>
<!-- Generator: Adobe Illustrator 19.2.1, SVG Export Plug-In . SVG Version: 6.00 Build 0)  -->

<svg
   xmlns:dc="http://purl.org/dc/elements/1.1/"
   xmlns:cc="http://creativecommons.org/ns#"
   xmlns:rdf="http://www.w3.org/1999/02/22-rdf-syntax-ns#"
   xmlns:svg="http://www.w3.org/2000/svg"
   xmlns="http://www.w3.org/2000/svg"
   xmlns:sodipodi="http://sodipodi.sourceforge.net/DTD/sodipodi-0.dtd"
   xmlns:inkscape="http://www.inkscape.org/namespaces/inkscape"
   version="1.1"
   x="0px"
   y="0px"
   viewBox="0 0 623.59998 188.89999"
   xml:space="preserve"
   id="svg4986"
   sodipodi:docname="azure_logo.svg"
   width="623.59998"
   height="188.89999"
   inkscape:version="0.92.2 (unknown)"><metadata
     id="metadata4992"><rdf:RDF><cc:Work
         rdf:about=""><dc:format>image/svg+xml</dc:format><dc:type
           rdf:resource="http://purl.org/dc/dcmitype/StillImage" /><dc:title></dc:title></cc:Work></rdf:RDF></metadata><defs
     id="defs4990" /><sodipodi:namedview
     pagecolor="#ffffff"
     bordercolor="#666666"
     borderopacity="1"
     objecttolerance="10"
     gridtolerance="10"
     guidetolerance="10"
     inkscape:pageopacity="0"
     inkscape:pageshadow="2"
     inkscape:window-width="1920"
     inkscape:window-height="1017"
     id="namedview4988"
     showgrid="false"
     fit-margin-top="0"
     fit-margin-left="0"
     fit-margin-right="0"
     fit-margin-bottom="0"
     inkscape:zoom="1.3420245"
     inkscape:cx="310.9"
     inkscape:cy="95.4"
     inkscape:window-x="0"
     inkscape:window-y="24"
     inkscape:window-maximized="1"
     inkscape:current-layer="svg4986" /><style
     type="text/css"
     id="style4906">
	.st0{display:none;}
	.st1{display:inline;}
	.st2{fill:#0C0407;}
	.st3{fill:#35A8E1;}
</style><g
     id="Layer_1"
     class="st0"
     style="display:none"
     transform="translate(-15.1,-232.5)"><g
       class="st1"
       id="g4944"
       style="display:inline"><path
         class="st2"
         d="m 240,670.9 1.6,-0.1 c 0.1,0.6 0.3,1.2 0.5,1.6 0.3,0.4 0.7,0.7 1.3,1 0.6,0.3 1.2,0.4 2,0.4 0.7,0 1.2,-0.1 1.7,-0.3 0.5,-0.2 0.9,-0.5 1.1,-0.8 0.2,-0.3 0.4,-0.7 0.4,-1.1 0,-0.4 -0.1,-0.8 -0.4,-1.1 -0.3,-0.3 -0.6,-0.6 -1.2,-0.8 -0.3,-0.1 -1.1,-0.3 -2.3,-0.6 -1.2,-0.3 -2,-0.6 -2.5,-0.8 -0.6,-0.3 -1.1,-0.7 -1.4,-1.2 -0.3,-0.5 -0.5,-1 -0.5,-1.6 0,-0.7 0.2,-1.3 0.6,-1.8 0.4,-0.5 0.9,-1 1.6,-1.3 0.7,-0.3 1.5,-0.4 2.4,-0.4 1,0 1.8,0.2 2.5,0.5 0.7,0.3 1.3,0.8 1.7,1.4 0.4,0.6 0.6,1.3 0.6,2 l -1.6,0.1 c -0.1,-0.8 -0.4,-1.4 -0.9,-1.8 -0.5,-0.4 -1.3,-0.6 -2.2,-0.6 -1,0 -1.8,0.2 -2.3,0.6 -0.5,0.4 -0.7,0.8 -0.7,1.4 0,0.5 0.2,0.8 0.5,1.1 0.3,0.3 1.2,0.6 2.6,0.9 1.4,0.3 2.3,0.6 2.9,0.8 0.8,0.3 1.3,0.8 1.7,1.3 0.4,0.5 0.5,1.1 0.5,1.8 0,0.7 -0.2,1.3 -0.6,1.9 -0.4,0.6 -1,1.1 -1.7,1.4 -0.7,0.3 -1.6,0.5 -2.5,0.5 -1.2,0 -2.1,-0.2 -2.9,-0.5 -0.8,-0.3 -1.4,-0.9 -1.9,-1.5 -0.3,-0.7 -0.6,-1.5 -0.6,-2.4 z"
         id="path4908"
         inkscape:connector-curvature="0"
         style="fill:#0c0407" /><path
         class="st2"
         d="m 258.8,672.1 1.6,0.2 c -0.3,1 -0.7,1.7 -1.4,2.2 -0.7,0.5 -1.6,0.8 -2.7,0.8 -1.4,0 -2.4,-0.4 -3.2,-1.3 -0.8,-0.8 -1.2,-2 -1.2,-3.5 0,-1.6 0.4,-2.8 1.2,-3.7 0.8,-0.9 1.9,-1.3 3.1,-1.3 1.2,0 2.3,0.4 3.1,1.3 0.8,0.9 1.2,2 1.2,3.6 0,0.1 0,0.2 0,0.4 h -7 c 0.1,1 0.3,1.8 0.9,2.4 0.6,0.6 1.2,0.8 2,0.8 0.6,0 1.1,-0.2 1.5,-0.5 0.4,-0.3 0.7,-0.8 0.9,-1.4 z m -5.2,-2.6 h 5.2 c -0.1,-0.8 -0.3,-1.4 -0.6,-1.8 -0.5,-0.6 -1.2,-0.9 -2,-0.9 -0.7,0 -1.3,0.2 -1.8,0.7 -0.5,0.5 -0.8,1.2 -0.8,2 z"
         id="path4910"
         inkscape:connector-curvature="0"
         style="fill:#0c0407" /><path
         class="st2"
         d="m 268.8,672.1 1.6,0.2 c -0.3,1 -0.7,1.7 -1.4,2.2 -0.7,0.5 -1.6,0.8 -2.7,0.8 -1.4,0 -2.4,-0.4 -3.2,-1.3 -0.8,-0.8 -1.2,-2 -1.2,-3.5 0,-1.6 0.4,-2.8 1.2,-3.7 0.8,-0.9 1.9,-1.3 3.1,-1.3 1.2,0 2.3,0.4 3.1,1.3 0.8,0.9 1.2,2 1.2,3.6 0,0.1 0,0.2 0,0.4 h -7 c 0.1,1 0.3,1.8 0.9,2.4 0.6,0.6 1.2,0.8 2,0.8 0.6,0 1.1,-0.2 1.5,-0.5 0.4,-0.3 0.7,-0.8 0.9,-1.4 z m -5.2,-2.6 h 5.2 c -0.1,-0.8 -0.3,-1.4 -0.6,-1.8 -0.5,-0.6 -1.2,-0.9 -2,-0.9 -0.7,0 -1.3,0.2 -1.8,0.7 -0.5,0.5 -0.7,1.2 -0.8,2 z"
         id="path4912"
         inkscape:connector-curvature="0"
         style="fill:#0c0407" /><path
         class="st2"
         d="m 272.4,675.1 v -12.9 h 1.6 v 7.3 l 3.7,-3.8 h 2 l -3.6,3.5 3.9,5.9 h -2 l -3.1,-4.8 -1.1,1.1 v 3.7 z"
         id="path4914"
         inkscape:connector-curvature="0"
         style="fill:#0c0407" /><path
         class="st2"
         d="m 285.3,675.1 -5,-12.9 h 1.8 l 3.3,9.4 c 0.3,0.8 0.5,1.5 0.7,2.1 0.2,-0.7 0.4,-1.4 0.7,-2.1 l 3.5,-9.4 h 1.7 l -5,12.9 z"
         id="path4916"
         inkscape:connector-curvature="0"
         style="fill:#0c0407" /><path
         class="st2"
         d="m 298.8,672.1 1.6,0.2 c -0.3,1 -0.7,1.7 -1.4,2.2 -0.7,0.5 -1.6,0.8 -2.7,0.8 -1.4,0 -2.4,-0.4 -3.2,-1.3 -0.8,-0.8 -1.2,-2 -1.2,-3.5 0,-1.6 0.4,-2.8 1.2,-3.7 0.8,-0.9 1.9,-1.3 3.1,-1.3 1.2,0 2.3,0.4 3.1,1.3 0.8,0.9 1.2,2 1.2,3.6 0,0.1 0,0.2 0,0.4 h -7 c 0.1,1 0.3,1.8 0.9,2.4 0.6,0.6 1.2,0.8 2,0.8 0.6,0 1.1,-0.2 1.5,-0.5 0.4,-0.3 0.7,-0.8 0.9,-1.4 z m -5.2,-2.6 h 5.2 c -0.1,-0.8 -0.3,-1.4 -0.6,-1.8 -0.5,-0.6 -1.2,-0.9 -2,-0.9 -0.7,0 -1.3,0.2 -1.8,0.7 -0.5,0.5 -0.7,1.2 -0.8,2 z"
         id="path4918"
         inkscape:connector-curvature="0"
         style="fill:#0c0407" /><path
         class="st2"
         d="m 308.5,671.7 1.6,0.2 c -0.2,1.1 -0.6,1.9 -1.3,2.5 -0.7,0.6 -1.6,0.9 -2.6,0.9 -1.3,0 -2.3,-0.4 -3.1,-1.3 -0.8,-0.8 -1.2,-2 -1.2,-3.6 0,-1 0.2,-1.9 0.5,-2.6 0.3,-0.7 0.8,-1.3 1.5,-1.7 0.7,-0.4 1.4,-0.6 2.2,-0.6 1,0 1.8,0.3 2.5,0.8 0.7,0.5 1.1,1.2 1.2,2.2 l -1.5,0.2 c -0.1,-0.6 -0.4,-1.1 -0.8,-1.4 -0.4,-0.3 -0.8,-0.5 -1.3,-0.5 -0.8,0 -1.4,0.3 -1.9,0.9 -0.5,0.6 -0.7,1.5 -0.7,2.7 0,1.3 0.2,2.2 0.7,2.7 0.5,0.5 1.1,0.9 1.9,0.9 0.6,0 1.1,-0.2 1.6,-0.6 0.5,-0.4 0.6,-1 0.7,-1.7 z"
         id="path4920"
         inkscape:connector-curvature="0"
         style="fill:#0c0407" /><path
         class="st2"
         d="m 314.9,673.7 0.2,1.4 c -0.4,0.1 -0.8,0.1 -1.2,0.1 -0.6,0 -1,-0.1 -1.3,-0.3 -0.3,-0.2 -0.5,-0.4 -0.7,-0.7 -0.2,-0.3 -0.2,-0.9 -0.2,-1.9 V 667 h -1.2 v -1.2 h 1.2 v -2.3 l 1.6,-0.9 v 3.3 h 1.6 v 1.2 h -1.6 v 5.5 c 0,0.5 0,0.7 0.1,0.9 0.1,0.2 0.1,0.2 0.3,0.3 0.1,0.1 0.3,0.1 0.5,0.1 0.2,-0.2 0.4,-0.2 0.7,-0.2 z"
         id="path4922"
         inkscape:connector-curvature="0"
         style="fill:#0c0407" /><path
         class="st2"
         d="m 315.9,670.4 c 0,-1.7 0.5,-3 1.4,-3.8 0.8,-0.7 1.8,-1 2.9,-1 1.3,0 2.3,0.4 3.1,1.3 0.8,0.9 1.2,2 1.2,3.5 0,1.2 -0.2,2.1 -0.5,2.8 -0.4,0.7 -0.9,1.2 -1.6,1.6 -0.7,0.4 -1.4,0.6 -2.3,0.6 -1.3,0 -2.4,-0.4 -3.2,-1.3 -0.6,-0.9 -1,-2.1 -1,-3.7 z m 1.6,0 c 0,1.2 0.3,2.1 0.8,2.7 0.5,0.6 1.2,0.9 2,0.9 0.8,0 1.4,-0.3 2,-0.9 0.6,-0.6 0.8,-1.5 0.8,-2.7 0,-1.2 -0.3,-2 -0.8,-2.6 -0.5,-0.6 -1.2,-0.9 -2,-0.9 -0.8,0 -1.4,0.3 -2,0.9 -0.6,0.6 -0.8,1.4 -0.8,2.6 z"
         id="path4924"
         inkscape:connector-curvature="0"
         style="fill:#0c0407" /><path
         class="st2"
         d="m 326.4,675.1 v -9.3 h 1.4 v 1.4 c 0.4,-0.7 0.7,-1.1 1,-1.3 0.3,-0.2 0.6,-0.3 1,-0.3 0.5,0 1.1,0.2 1.6,0.5 l -0.5,1.5 c -0.4,-0.2 -0.8,-0.3 -1.2,-0.3 -0.3,0 -0.7,0.1 -0.9,0.3 -0.2,0.2 -0.5,0.5 -0.6,0.9 -0.2,0.6 -0.3,1.2 -0.3,1.8 v 4.9 h -1.5 z"
         id="path4926"
         inkscape:connector-curvature="0"
         style="fill:#0c0407" /><path
         class="st2"
         d="m 332.6,675.1 v -12.9 h 1.7 v 11.4 h 6.3 v 1.5 z"
         id="path4928"
         inkscape:connector-curvature="0"
         style="fill:#0c0407" /><path
         class="st2"
         d="m 341.9,670.4 c 0,-1.7 0.5,-3 1.4,-3.8 0.8,-0.7 1.8,-1 2.9,-1 1.3,0 2.3,0.4 3.1,1.3 0.8,0.9 1.2,2 1.2,3.5 0,1.2 -0.2,2.1 -0.5,2.8 -0.4,0.7 -0.9,1.2 -1.6,1.6 -0.7,0.4 -1.4,0.6 -2.3,0.6 -1.3,0 -2.4,-0.4 -3.2,-1.3 -0.6,-0.9 -1,-2.1 -1,-3.7 z m 1.6,0 c 0,1.2 0.3,2.1 0.8,2.7 0.5,0.6 1.2,0.9 2,0.9 0.8,0 1.4,-0.3 2,-0.9 0.6,-0.6 0.8,-1.5 0.8,-2.7 0,-1.2 -0.3,-2 -0.8,-2.6 -0.5,-0.6 -1.2,-0.9 -2,-0.9 -0.8,0 -1.4,0.3 -2,0.9 -0.6,0.6 -0.8,1.4 -0.8,2.6 z"
         id="path4930"
         inkscape:connector-curvature="0"
         style="fill:#0c0407" /><path
         class="st2"
         d="m 352.2,675.8 1.5,0.2 c 0.1,0.5 0.2,0.8 0.5,1 0.4,0.3 0.9,0.4 1.6,0.4 0.7,0 1.3,-0.1 1.7,-0.4 0.4,-0.3 0.7,-0.7 0.8,-1.2 0.1,-0.3 0.1,-1 0.1,-2 -0.7,0.8 -1.6,1.2 -2.6,1.2 -1.3,0 -2.3,-0.5 -3,-1.4 -0.7,-0.9 -1.1,-2 -1.1,-3.3 0,-0.9 0.2,-1.7 0.5,-2.5 0.3,-0.8 0.8,-1.3 1.4,-1.7 0.6,-0.4 1.3,-0.6 2.2,-0.6 1.1,0 2,0.4 2.7,1.3 v -1.1 h 1.5 v 8.1 c 0,1.5 -0.1,2.5 -0.4,3.1 -0.3,0.6 -0.8,1.1 -1.4,1.4 -0.6,0.4 -1.4,0.5 -2.4,0.5 -1.1,0 -2,-0.3 -2.7,-0.8 -0.6,-0.4 -0.9,-1.1 -0.9,-2.2 z m 1.3,-5.6 c 0,1.2 0.2,2.1 0.7,2.7 0.5,0.6 1.1,0.8 1.8,0.8 0.7,0 1.3,-0.3 1.8,-0.8 0.5,-0.5 0.7,-1.4 0.7,-2.6 0,-1.1 -0.3,-2 -0.8,-2.6 -0.5,-0.6 -1.1,-0.9 -1.8,-0.9 -0.7,0 -1.3,0.3 -1.8,0.9 -0.4,0.6 -0.6,1.4 -0.6,2.5 z"
         id="path4932"
         inkscape:connector-curvature="0"
         style="fill:#0c0407" /><path
         class="st2"
         d="m 361.9,670.4 c 0,-1.7 0.5,-3 1.4,-3.8 0.8,-0.7 1.8,-1 2.9,-1 1.3,0 2.3,0.4 3.1,1.3 0.8,0.9 1.2,2 1.2,3.5 0,1.2 -0.2,2.1 -0.5,2.8 -0.4,0.7 -0.9,1.2 -1.6,1.6 -0.7,0.4 -1.4,0.6 -2.3,0.6 -1.3,0 -2.4,-0.4 -3.2,-1.3 -0.6,-0.9 -1,-2.1 -1,-3.7 z m 1.6,0 c 0,1.2 0.3,2.1 0.8,2.7 0.5,0.6 1.2,0.9 2,0.9 0.8,0 1.4,-0.3 2,-0.9 0.6,-0.6 0.8,-1.5 0.8,-2.7 0,-1.2 -0.3,-2 -0.8,-2.6 -0.5,-0.6 -1.2,-0.9 -2,-0.9 -0.8,0 -1.4,0.3 -2,0.9 -0.6,0.6 -0.8,1.4 -0.8,2.6 z"
         id="path4934"
         inkscape:connector-curvature="0"
         style="fill:#0c0407" /><path
         class="st2"
         d="m 372.9,675.1 v -1.8 h 1.8 v 1.8 z"
         id="path4936"
         inkscape:connector-curvature="0"
         style="fill:#0c0407" /><path
         class="st2"
         d="m 386.9,670.6 1.7,0.4 c -0.4,1.4 -1,2.5 -1.9,3.2 -0.9,0.7 -2.1,1.1 -3.4,1.1 -1.4,0 -2.5,-0.3 -3.4,-0.8 -0.9,-0.6 -1.5,-1.4 -2,-2.5 -0.5,-1.1 -0.7,-2.2 -0.7,-3.5 0,-1.3 0.3,-2.5 0.8,-3.5 0.5,-1 1.2,-1.8 2.2,-2.3 0.9,-0.5 2,-0.8 3.1,-0.8 1.3,0 2.4,0.3 3.3,1 0.9,0.7 1.5,1.6 1.8,2.8 l -1.7,0.4 c -0.3,-0.9 -0.7,-1.6 -1.3,-2 -0.6,-0.4 -1.3,-0.6 -2.1,-0.6 -1,0 -1.8,0.2 -2.5,0.7 -0.7,0.5 -1.1,1.1 -1.4,1.9 -0.3,0.8 -0.4,1.6 -0.4,2.5 0,1.1 0.2,2.1 0.5,2.9 0.3,0.8 0.8,1.4 1.5,1.8 0.7,0.4 1.4,0.6 2.2,0.6 1,0 1.8,-0.3 2.4,-0.8 0.6,-0.5 1.1,-1.5 1.3,-2.5 z"
         id="path4938"
         inkscape:connector-curvature="0"
         style="fill:#0c0407" /><path
         class="st2"
         d="m 389.9,670.4 c 0,-1.7 0.5,-3 1.4,-3.8 0.8,-0.7 1.8,-1 2.9,-1 1.3,0 2.3,0.4 3.1,1.3 0.8,0.9 1.2,2 1.2,3.5 0,1.2 -0.2,2.1 -0.5,2.8 -0.4,0.7 -0.9,1.2 -1.6,1.6 -0.7,0.4 -1.4,0.6 -2.3,0.6 -1.3,0 -2.4,-0.4 -3.2,-1.3 -0.6,-0.9 -1,-2.1 -1,-3.7 z m 1.6,0 c 0,1.2 0.3,2.1 0.8,2.7 0.5,0.6 1.2,0.9 2,0.9 0.8,0 1.4,-0.3 2,-0.9 0.6,-0.6 0.8,-1.5 0.8,-2.7 0,-1.2 -0.3,-2 -0.8,-2.6 -0.5,-0.6 -1.2,-0.9 -2,-0.9 -0.8,0 -1.4,0.3 -2,0.9 -0.6,0.6 -0.8,1.4 -0.8,2.6 z"
         id="path4940"
         inkscape:connector-curvature="0"
         style="fill:#0c0407" /><path
         class="st2"
         d="m 400.5,675.1 v -9.3 h 1.4 v 1.3 c 0.3,-0.5 0.7,-0.8 1.2,-1.1 0.5,-0.3 1,-0.4 1.7,-0.4 0.7,0 1.3,0.1 1.7,0.4 0.4,0.3 0.8,0.7 0.9,1.2 0.7,-1.1 1.7,-1.6 2.9,-1.6 0.9,0 1.6,0.3 2.1,0.8 0.5,0.5 0.7,1.3 0.7,2.4 v 6.4 h -1.6 v -5.9 c 0,-0.6 -0.1,-1.1 -0.2,-1.4 -0.1,-0.3 -0.3,-0.5 -0.6,-0.7 -0.3,-0.2 -0.6,-0.3 -0.9,-0.3 -0.7,0 -1.2,0.2 -1.6,0.7 -0.4,0.4 -0.7,1.1 -0.7,2.1 v 5.4 h -1.6 V 669 c 0,-0.7 -0.1,-1.2 -0.4,-1.6 -0.3,-0.4 -0.7,-0.5 -1.3,-0.5 -0.4,0 -0.9,0.1 -1.2,0.4 -0.4,0.2 -0.7,0.6 -0.8,1 -0.1,0.4 -0.3,1.1 -0.3,2 v 4.8 z"
         id="path4942"
         inkscape:connector-curvature="0"
         style="fill:#0c0407" /></g></g><path
     class="st3"
     d="m 83.9,14.5 c 35,-4.9 69.9,-9.7 104.9,-14.5 -0.1,30.8 0,61.6 0,92.4 -35,0 -70,0 -105,0 0.1,-25.9 -0.1,-51.9 0.1,-77.9"
     id="path4947"
     inkscape:connector-curvature="0"
     style="fill:#35a8e1" /><path
     class="st3"
     d="m 585.6,15.1 c 3.6,-4.8 10.8,-6 15.7,-2.6 -3.8,1 -8.1,0.8 -11.6,2.7 -3,4.2 -1.4,9.8 -1.9,14.7 7,0.1 13.9,0 20.9,0.1 0.1,-5.1 0.2,-10.1 0.2,-15.2 l 3.7,0.1 c 0,5 0,10 0,14.9 3.7,0.1 7.3,0.1 11,0.2 v 2.8 c -3.7,0 -7.4,0 -11,0.1 0.1,10.8 0,21.5 0,32.3 0.3,2.9 -0.7,6.8 2,8.8 2.5,2 6,1.5 9,2.1 0,0.7 0,2.1 0,2.7 -5.6,0.1 -13.5,-1.1 -14.4,-7.9 -0.7,-12.7 -0.1,-25.4 -0.2,-38.1 -7,0 -14,0 -21,0 0,15.4 0.1,30.8 -0.1,46.2 -0.9,-0.3 -2.5,-0.9 -3.4,-1.1 -0.7,-14.9 -0.2,-30 -0.2,-44.9 -3.4,-0.6 -8.3,1.2 -10.2,-2.7 3.3,-0.2 6.7,-0.4 10,-0.5 0.2,-4.9 -0.5,-10.1 1.5,-14.7"
     id="path4949"
     inkscape:connector-curvature="0"
     style="fill:#35a8e1" /><path
     class="st3"
     d="m 242.3,11 c 1.5,0.3 4.4,0.9 5.9,1.2 10.3,20.1 18.8,41.2 28.5,61.6 10.8,-19.9 18.8,-41.3 28.5,-61.8 2.1,0 4.2,-0.1 6.3,-0.1 0,22.2 0,44.4 0,66.7 -1.1,-0.1 -3.4,-0.3 -4.5,-0.4 0.1,-20.5 0.3,-40.9 -0.1,-61.4 -9.8,20.3 -18.4,41.2 -27.8,61.6 -1,0 -3.1,0 -4.1,0 -6.3,-13.6 -12.5,-27.3 -18.7,-41 -3,-6.5 -5.3,-13.4 -9.7,-19.1 -0.7,20 -0.2,40 -0.3,60.1 -1,0 -3.1,0.1 -4.1,0.2 0.1,-22.6 0,-45.1 0.1,-67.6"
     id="path4951"
     inkscape:connector-curvature="0"
     style="fill:#35a8e1" /><path
     class="st3"
     d="m 324.8,11.8 c 0.9,0 2.7,0.1 3.5,0.1 v 8.9 c -0.9,0 -2.7,0 -3.6,0 0,-3 0.1,-6 0.1,-9"
     id="path4953"
     inkscape:connector-curvature="0"
     style="fill:#35a8e1" /><path
     class="st3"
     d="m 0,26.3 c 26.6,-3.8 53.3,-7 79.9,-11.4 0.2,25.9 0,51.7 0.1,77.6 C 53.4,92.7 26.8,92.2 0.2,92.8 0,70.6 0.2,48.4 0,26.3"
     id="path4955"
     inkscape:connector-curvature="0"
     style="fill:#35a8e1" /><path
     class="st3"
     d="m 345.3,35.3 c 11.1,-11.6 34.7,-8.1 38.9,8.5 -0.8,0.3 -2.5,0.9 -3.4,1.2 -3,-16 -27,-18 -35,-5.2 -5.7,8.8 -5.3,21.5 0.7,30 7.8,10 27.2,9.2 32.2,-3.3 1.2,-2.5 2.2,-5.8 5.8,-5.1 -2.5,13.2 -16.8,21.2 -29.4,17.2 -18.2,-4.3 -22.2,-30.8 -9.8,-43.3"
     id="path4957"
     inkscape:connector-curvature="0"
     style="fill:#35a8e1" /><path
     class="st3"
     d="m 324.8,29.8 3.6,0.1 c 0,16.1 0,32.3 0,48.4 l -3.5,0.2 c -0.2,-16.2 -0.2,-32.4 -0.1,-48.7"
     id="path4959"
     inkscape:connector-curvature="0"
     style="fill:#35a8e1" /><path
     class="st3"
     d="m 393.8,29.9 c 0.9,0 2.7,0 3.7,0 0.1,3 0.1,5.9 0.2,8.9 5.4,-4.7 11.8,-10 19.5,-8.7 0.4,0.5 1.3,1.5 1.7,2.1 -8.9,0.4 -18.8,5.1 -20.8,14.6 -1.3,10.8 0.1,21.8 -0.8,32.6 -0.9,-0.5 -2.5,-1.5 -3.3,-1.9 -0.6,-15.9 -0.1,-31.7 -0.2,-47.6"
     id="path4961"
     inkscape:connector-curvature="0"
     style="fill:#35a8e1" /><path
     class="st3"
     d="M 436.8,32.4 C 419.1,38.1 418,67 434.4,75 c 7.2,3 16.5,2.3 22.1,-3.5 8.6,-8.8 8.8,-24.3 1,-33.6 -5,-6 -13.5,-7.5 -20.7,-5.5 m -2,-2.4 c 8.5,-3 18.7,-1 25,5.4 10,10.7 9.3,29.8 -2,39.2 -10.5,8.5 -28.3,5.8 -34.9,-6.3 -8,-12.8 -3.3,-33.3 11.9,-38.3"
     id="path4963"
     inkscape:connector-curvature="0"
     style="fill:#35a8e1" /><path
     class="st3"
     d="m 482.1,31.8 c 8.1,-4.2 18.7,-4.5 26.6,0.2 4.5,2.4 5.4,7.9 6.7,12.3 -5.8,0.1 -4.5,-7.5 -8.8,-9.9 -6.5,-4 -15.5,-3.8 -22.1,-0.3 -5.4,2.8 -5.3,11.4 0.2,14.1 8.5,4.4 19,3.2 27.2,8.3 4.8,3 5.6,9.7 3.7,14.6 -2.5,5.5 -8.9,7.3 -14.3,8.2 -8.5,1.3 -18.6,-0.6 -23.7,-8.1 -1.9,-3 -4.2,-7.6 0.1,-9.5 1.6,3.9 2.5,8.6 6.1,11.3 6.6,5 15.9,4.5 23.3,1.9 6.5,-2.1 8.1,-12.1 2.2,-15.8 -8.8,-4.9 -20.1,-3.2 -28.4,-9.1 -6.1,-4.5 -5.4,-14.7 1.2,-18.2"
     id="path4965"
     inkscape:connector-curvature="0"
     style="fill:#35a8e1" /><path
     class="st3"
     d="m 545.1,31.7 c -15.9,1.2 -21.8,21.5 -15.3,34.1 4.5,10.9 19.8,14.1 29.1,7.4 9.8,-7.5 11.1,-22.8 4.8,-33 -3.8,-6.3 -11.4,-9.5 -18.6,-8.5 m -7.4,-1.1 c 9.2,-4 21,-1.9 27.6,5.9 8.3,10.3 7.9,26.5 -1,36.2 -8.4,8.6 -23.5,9.3 -32.4,1.1 -13,-11.3 -10.6,-36.3 5.8,-43.2"
     id="path4967"
     inkscape:connector-curvature="0"
     style="fill:#35a8e1" /><path
     class="st3"
     d="m 0.2,96.3 c 26.6,0 53.2,0 79.8,0 0.1,25.7 0,51.4 0.1,77.2 C 53.4,171.1 26.9,166.1 0.3,162.9 0.1,140.6 0.1,118.5 0.2,96.3"
     id="path4969"
     inkscape:connector-curvature="0"
     style="fill:#35a8e1" /><path
     class="st3"
     d="m 83.8,174.3 c 0.2,-26 -0.2,-52.1 0.2,-78.1 34.9,0.2 69.9,-0.1 104.8,0.1 0,30.9 0,61.7 0,92.6 -35.1,-4.5 -70.1,-9.6 -105,-14.6"
     id="path4971"
     inkscape:connector-curvature="0"
     style="fill:#35a8e1" /><path
     class="st3"
     d="m 256.1,142.6 c 8.4,0 16.7,0 25.1,0 -4,-10.5 -7.8,-21.1 -12.3,-31.3 -4.8,10.1 -8.3,20.9 -12.8,31.3 m 7.7,-39.3 c 3.6,0 7.1,0.1 10.7,0.2 9.2,22.3 18.5,44.6 28.3,66.7 -3.5,0 -7,-0.1 -10.5,-0.1 -2.6,-6.7 -5.2,-13.3 -7.8,-20 -10.5,0.1 -20.9,0 -31.4,0.1 -2.7,6.7 -5.4,13.3 -8.1,20 -3.2,0 -6.3,0 -9.4,0 9.4,-22.3 18.7,-44.7 28.2,-66.9"
     id="path4973"
     inkscape:connector-curvature="0"
     style="fill:#35a8e1" /><path
     class="st3"
     d="m 421.5,131.1 c 4.9,-6.1 11.2,-11.3 19.5,-11.1 0,2.7 0,5.4 0.1,8.1 -7.2,0.3 -15.6,3.1 -17.7,10.9 -2.4,10.2 -0.7,20.7 -1.2,31.1 -2.9,0 -5.8,0 -8.6,0 -0.1,-16.2 -0.1,-32.5 0,-48.7 h 8 v 9.7 z"
     id="path4975"
     inkscape:connector-curvature="0"
     style="fill:#35a8e1" /><path
     class="st3"
     d="m 451.3,141.4 c 10.7,0.2 21.3,0.2 32,0 -1.7,-8 -8.4,-15.7 -17.4,-14.2 -8.1,-0.4 -13,7.2 -14.6,14.2 M 449,129 c 8.4,-10.6 26.4,-11.7 35.6,-1.5 5.1,5.7 6.6,13.4 6.8,20.8 -13.4,0.1 -26.7,-0.1 -40.1,0.1 1,4 1.3,8.6 4.6,11.5 7.8,7.8 23.2,6 27.2,-4.9 2,0.1 6,0.1 7.9,0.2 -4.7,16.9 -28.2,20.8 -40.3,9.8 -9.3,-9.4 -10.2,-25.9 -1.7,-36"
     id="path4977"
     inkscape:connector-curvature="0"
     style="fill:#35a8e1" /><path
     class="st3"
     d="m 305.7,121.5 c 14,-0.1 27.9,-0.2 41.9,0.1 -0.3,5.4 -4.5,9 -7.8,12.9 -8.3,9.5 -16.7,19 -24.9,28.6 11.1,2.1 22.4,-1.2 33.5,1.2 0,1.4 0.1,4.3 0.1,5.8 -14.7,0 -29.5,0 -44.2,0 V 164 c 10.3,-11.8 21.1,-23.1 30.9,-35.3 -9.5,-0.8 -19.1,-0.1 -28.6,-0.7 -0.3,-1.5 -0.7,-4.8 -0.9,-6.5"
     id="path4979"
     inkscape:connector-curvature="0"
     style="fill:#35a8e1" /><path
     class="st3"
     d="m 356.2,121.4 c 2.8,0 5.7,0 8.6,0.1 0.2,12 -0.6,24.1 0.3,36.1 4.5,12.9 26.4,6.9 26.4,-6 0.3,-10 0,-20.1 0.1,-30.1 2.1,0 6.2,0 8.3,0 0,16.2 0,32.5 0,48.7 -1.9,0 -5.7,0 -7.6,0 -0.2,-1.6 -0.5,-4.9 -0.7,-6.6 -6.8,7.7 -18.3,9.8 -27.5,5.5 -5.8,-2.6 -7.7,-9.4 -7.7,-15.2 -0.4,-10.9 -0.1,-21.7 -0.2,-32.5"
     id="path4981"
     inkscape:connector-curvature="0"
     style="fill:#35a8e1" /></svg>