<svg width="260" height="151" viewBox="0 0 260 151" fill="none" xmlns="http://www.w3.org/2000/svg">
<rect width="56.8033" height="34.082" transform="matrix(-1 0 0 1 249.902 58.459)" fill="#1F8B4D"/>
<path fill-rule="evenodd" clip-rule="evenodd" d="M254 56.0624C254 53.8188 252.181 52 249.937 52H193.062C190.819 52 189 53.8188 189 56.0624V60.9376C189 63.1812 190.819 65 193.062 65H249.938C252.181 65 254 63.1812 254 60.9376V56.0624Z" fill="#27AE60"/>
<path fill-rule="evenodd" clip-rule="evenodd" d="M254 90.0625C254 87.8188 252.181 86 249.937 86H193.062C190.819 86 189 87.8188 189 90.0625V94.9375C189 97.1812 190.819 99 193.062 99H249.938C252.181 99 254 97.1812 254 94.9375C254 92.6938 254 90.0625 254 90.0625Z" fill="#27AE60"/>
<path fill-rule="evenodd" clip-rule="evenodd" d="M254 73.0625C254 70.8188 252.181 69 249.937 69H193.062C190.819 69 189 70.8188 189 73.0625V77.9375C189 80.1812 190.819 82 193.062 82H249.938C252.181 82 254 80.1812 254 77.9375L254 73.0625Z" fill="#27AE60"/>
<path d="M238.5 92.5C238.5 92.2239 238.276 92 238 92H205C204.724 92 204.5 92.2239 204.5 92.5V92.5C204.5 92.7761 204.724 93 205 93H238C238.276 93 238.5 92.7761 238.5 92.5V92.5Z" fill="white"/>
<circle r="2" transform="matrix(-1 0 0 1 246 58.5)" fill="white"/>
<ellipse rx="2" ry="2" transform="matrix(-1 0 0 1 246 92.5)" fill="white"/>
<circle r="2" transform="matrix(-1 0 0 1 204 75.5)" fill="white"/>
<circle r="2" transform="matrix(-1 0 0 1 239 58.5)" fill="white"/>
<circle r="2" transform="matrix(-1 0 0 1 197 75.5)" fill="white"/>
<path d="M153 60H117M117 60L122.684 65.5M117 60L122.684 54.5" stroke="#212529" stroke-width="4" stroke-linecap="square"/>
<path d="M117 89H153M153 89L147.316 94.5M153 89L147.316 83.5" stroke="#212529" stroke-width="4" stroke-linecap="square"/>
<path d="M29.7891 57C21.4831 57 14.6321 63.2688 13.8644 71.2536C8.42818 73.1148 4.5 78.2147 4.5 84C4.5 91.4444 10.8026 97.5 18.3633 97.5H68.6367C76.1974 97.5 82.5 91.4444 82.5 84C82.5 78.219 78.5762 73.1257 73.1534 71.2602C72.3723 60.7881 63.4729 52.5 52.6406 52.5C46.8429 52.5 41.4559 54.8643 37.5639 59.0523C35.1673 57.7053 32.516 57 29.7891 57Z" stroke="#4CA1EF" stroke-width="9"/>
<path opacity="0.03" d="M69 109.007C81.1956 132.752 105.948 149 134.5 149C163.052 149 187.804 132.752 200 109.007M200 41.9926C187.804 18.2476 163.052 2 134.5 2C105.948 2 81.1956 18.2476 69 41.9926" stroke="#212529" stroke-width="4" stroke-linecap="round"/>
</svg>
