<svg width="340" height="120" viewBox="0 0 340 120" fill="none" xmlns="http://www.w3.org/2000/svg">
<g clip-path="url(#clip0)">
<path d="M7 32.9999H97V86.9999H7V32.9999Z" fill="#0D2743"/>
<path fill-rule="evenodd" clip-rule="evenodd" d="M0 29.2498C0 25.7981 2.91015 22.9999 6.5 22.9999H97.5C101.09 22.9999 104 25.7981 104 29.2498V36.75C104 40.2017 101.09 42.9999 97.5 42.9999H6.5C2.91015 42.9999 0 40.2017 0 36.75V29.2498Z" fill="#305680"/>
<path fill-rule="evenodd" clip-rule="evenodd" d="M0 83.2499C0 79.7981 2.91015 76.9999 6.5 76.9999H97.5C101.09 76.9999 104 79.7981 104 83.2499V90.7499C104 94.2017 101.09 96.9999 97.5 96.9999H6.5C2.91015 96.9999 0 94.2017 0 90.7499C0 87.2981 0 83.2499 0 83.2499Z" fill="#305680"/>
<path fill-rule="evenodd" clip-rule="evenodd" d="M0 56.2499C0 52.7981 2.91015 49.9999 6.5 49.9999H97.5C101.09 49.9999 104 52.7981 104 56.2499V63.7499C104 67.2017 101.09 69.9999 97.5 69.9999H6.5C2.91015 69.9999 0 67.2017 0 63.7499L0 56.2499Z" fill="#305680"/>
<path d="M25 86.9999C25 86.4476 25.4477 85.9999 26 85.9999H78C78.5523 85.9999 79 86.4476 79 86.9999V86.9999C79 87.5522 78.5523 87.9999 78 87.9999H26C25.4477 87.9999 25 87.5522 25 86.9999V86.9999Z" fill="white"/>
<path d="M16 32.9999C16 34.6567 14.6569 35.9999 13 35.9999C11.3431 35.9999 10 34.6567 10 32.9999C10 31.343 11.3431 29.9999 13 29.9999C14.6569 29.9999 16 31.343 16 32.9999Z" fill="white"/>
<path d="M16 86.9999C16 88.6567 14.6569 89.9999 13 89.9999C11.3431 89.9999 10 88.6567 10 86.9999C10 85.343 11.3431 83.9999 13 83.9999C14.6569 83.9999 16 85.343 16 86.9999Z" fill="white"/>
<path d="M83 59.9999C83 61.6567 81.6569 62.9999 80 62.9999C78.3431 62.9999 77 61.6567 77 59.9999C77 58.343 78.3431 56.9999 80 56.9999C81.6569 56.9999 83 58.343 83 59.9999Z" fill="white"/>
<path d="M27 32.9999C27 34.6567 25.6569 35.9999 24 35.9999C22.3431 35.9999 21 34.6567 21 32.9999C21 31.343 22.3431 29.9999 24 29.9999C25.6569 29.9999 27 31.343 27 32.9999Z" fill="white"/>
<path d="M94 59.9999C94 61.6567 92.6569 62.9999 91 62.9999C89.3431 62.9999 88 61.6567 88 59.9999C88 58.343 89.3431 56.9999 91 56.9999C92.6569 56.9999 94 58.343 94 59.9999Z" fill="white"/>
<path fill-rule="evenodd" clip-rule="evenodd" d="M215.812 48.6846C219.014 30.0979 235.411 16 255 16C264.666 16 273.772 19.4242 280.921 25.5888C284.598 24.15 288.505 23.4 292.5 23.4C307.912 23.4 320.911 34.1674 324.036 48.6075C333.408 53.2563 340 62.842 340 73.8C340 89.5164 326.808 102 311.25 102H228.75C213.192 102 200 89.5164 200 73.8C200 62.8969 206.528 53.3593 215.812 48.6846ZM255 28C240.325 28 228.367 39.2467 227.321 53.2955L227.028 57.235L223.293 58.5225C216.633 60.8187 212 67.0409 212 73.8C212 82.5672 219.493 90 228.75 90H311.25C320.507 90 328 82.5672 328 73.8C328 67.0343 323.362 60.8049 316.686 58.5145L313.029 57.2601L312.66 53.4123C311.699 43.393 303.072 35.4 292.5 35.4C289.078 35.4 285.739 36.2832 282.686 38.0028L278.561 40.3258L275.342 36.8548C270.09 31.1912 262.843 28 255 28Z" fill="#305680"/>
<path fill-rule="evenodd" clip-rule="evenodd" d="M166.586 36.5858C167.367 35.8047 168.633 35.8047 169.414 36.5858L175.414 42.5858C176.195 43.3668 176.195 44.6332 175.414 45.4142L169.414 51.4142C168.633 52.1953 167.367 52.1953 166.586 51.4142C165.805 50.6332 165.805 49.3668 166.586 48.5858L169.172 46H136C134.895 46 134 45.1046 134 44C134 42.8954 134.895 42 136 42H169.172L166.586 39.4142C165.805 38.6332 165.805 37.3668 166.586 36.5858Z" fill="#0D2743"/>
<path fill-rule="evenodd" clip-rule="evenodd" d="M143.414 68.5858C142.633 67.8047 141.367 67.8047 140.586 68.5858L134.586 74.5858C133.805 75.3668 133.805 76.6332 134.586 77.4142L140.586 83.4142C141.367 84.1953 142.633 84.1953 143.414 83.4142C144.195 82.6332 144.195 81.3668 143.414 80.5858L140.828 78H174C175.105 78 176 77.1046 176 76C176 74.8954 175.105 74 174 74H140.828L143.414 71.4142C144.195 70.6332 144.195 69.3668 143.414 68.5858Z" fill="#0D2743"/>
</g>
<defs>
<clipPath id="clip0">
<rect width="340" height="120" fill="white"/>
</clipPath>
</defs>
</svg>
