<svg xmlns="http://www.w3.org/2000/svg" xml:space="preserve" viewBox="0 0 157.07115 135.40671" height="135.41" width="157.07" version="1.1" y="0px" x="0px"><defs><clipPath id="clipPath18" clipPathUnits="userSpaceOnUse"><path d="m0 928h1502v-928h-1502z"/></clipPath><clipPath id="clipPath46" clipPathUnits="userSpaceOnUse"><path d="m530.8 799.47h413.19v-145.83h-413.19z"/></clipPath><clipPath id="clipPath62" clipPathUnits="userSpaceOnUse"><path d="m585.7 706.57h358.29v-146.85h-358.29z"/></clipPath><clipPath id="clipPath78" clipPathUnits="userSpaceOnUse"><path d="m481.61 655.14h352.45v-242.28h-352.45z"/></clipPath><clipPath id="clipPath94" clipPathUnits="userSpaceOnUse"><path d="m481.61 561.22h299.01v-241.27h-299.01z"/></clipPath><clipPath id="clipPath110" clipPathUnits="userSpaceOnUse"><path d="m778.89 703.57h242.11v-383.62h-242.11z"/></clipPath><clipPath id="clipPath130" clipPathUnits="userSpaceOnUse"><path d="m778.89 703.57h242.11v-383.62h-242.11z"/></clipPath><clipPath id="clipPath150" clipPathUnits="userSpaceOnUse"><path d="m634.4 799.47c-12.886 0-24.785-6.891-31.199-18.071l-116.88-203.79c-6.355-11.087-6.355-24.696 0-35.785l116.88-203.8c6.414-11.176 18.313-18.071 31.199-18.071h233.77c12.883 0 24.781 6.895 31.195 18.071l116.88 203.8c6.355 11.089 6.355 24.698 0 35.785l-72.258 125.96-44.625 77.832c-6.414 11.18-18.312 18.071-31.195 18.071z"/></clipPath><mask id="mask166" height="1" width="1" y="0" x="0" maskUnits="userSpaceOnUse"><path d="m-32768 32767h65535v-65535h-65535z" fill="url(#radialGradient164)"/></mask><radialGradient id="radialGradient164" cx="0" gradientUnits="userSpaceOnUse" cy="0" r="1" gradientTransform="matrix(553.65 0 0 553.65 559.09 767.08)"><stop stop-opacity=".099992" stop-color="#fff" offset="0"/><stop stop-opacity="0" stop-color="#fff" offset="1"/></radialGradient><radialGradient id="radialGradient186" cx="0" gradientUnits="userSpaceOnUse" cy="0" r="1" gradientTransform="matrix(553.65 0 0 553.65 559.09 767.08)"><stop stop-color="#fff" offset="0"/><stop stop-color="#fff" offset="1"/></radialGradient></defs><style type="text/css">
	.st0{fill:#252F3E;}
	.st1{fill-rule:evenodd;clip-rule:evenodd;fill:#FF9900;}
</style><g transform="matrix(.28269 0 0 .28269 -.47152 7.8515)"><path d="m86.4 66.4c0 3.7 0.4 6.7 1.1 8.9 0.8 2.2 1.8 4.6 3.2 7.2 0.5 0.8 0.7 1.6 0.7 2.3 0 1-0.6 2-1.9 3l-6.3 4.2c-0.9 0.6-1.8 0.9-2.6 0.9-1 0-2-0.5-3-1.4-1.4-1.5-2.6-3.1-3.6-4.7-1-1.7-2-3.6-3.1-5.9-7.8 9.2-17.6 13.8-29.4 13.8-8.4 0-15.1-2.4-20-7.2s-7.4-11.2-7.4-19.2c0-8.5 3-15.4 9.1-20.6s14.2-7.8 24.5-7.8c3.4 0 6.9 0.3 10.6 0.8s7.5 1.3 11.5 2.2v-7.3c0-7.6-1.6-12.9-4.7-16-3.2-3.1-8.6-4.6-16.3-4.6-3.5 0-7.1 0.4-10.8 1.3s-7.3 2-10.8 3.4c-1.6 0.7-2.8 1.1-3.5 1.3s-1.2 0.3-1.6 0.3c-1.4 0-2.1-1-2.1-3.1v-4.9c0-1.6 0.2-2.8 0.7-3.5s1.4-1.4 2.8-2.1c3.5-1.8 7.7-3.3 12.6-4.5 4.9-1.3 10.1-1.9 15.6-1.9 11.9 0 20.6 2.7 26.2 8.1 5.5 5.4 8.3 13.6 8.3 24.6v32.4zm-40.6 15.2c3.3 0 6.7-0.6 10.3-1.8s6.8-3.4 9.5-6.4c1.6-1.9 2.8-4 3.4-6.4s1-5.3 1-8.7v-4.2c-2.9-0.7-6-1.3-9.2-1.7s-6.3-0.6-9.4-0.6c-6.7 0-11.6 1.3-14.9 4s-4.9 6.5-4.9 11.5c0 4.7 1.2 8.2 3.7 10.6 2.4 2.5 5.9 3.7 10.5 3.7zm80.3 10.8c-1.8 0-3-0.3-3.8-1-0.8-0.6-1.5-2-2.1-3.9l-23.5-77.3c-0.6-2-0.9-3.3-0.9-4 0-1.6 0.8-2.5 2.4-2.5h9.8c1.9 0 3.2 0.3 3.9 1 0.8 0.6 1.4 2 2 3.9l16.8 66.2 15.6-66.2c0.5-2 1.1-3.3 1.9-3.9s2.2-1 4-1h8c1.9 0 3.2 0.3 4 1 0.8 0.6 1.5 2 1.9 3.9l15.8 67 17.3-67c0.6-2 1.3-3.3 2-3.9 0.8-0.6 2.1-1 3.9-1h9.3c1.6 0 2.5 0.8 2.5 2.5 0 0.5-0.1 1-0.2 1.6s-0.3 1.4-0.7 2.5l-24.1 77.3c-0.6 2-1.3 3.3-2.1 3.9s-2.1 1-3.8 1h-8.6c-1.9 0-3.2-0.3-4-1s-1.5-2-1.9-4l-15.5-64.5-15.4 64.4c-0.5 2-1.1 3.3-1.9 4s-2.2 1-4 1zm128.5 2.7c-5.2 0-10.4-0.6-15.4-1.8s-8.9-2.5-11.5-4c-1.6-0.9-2.7-1.9-3.1-2.8s-0.6-1.9-0.6-2.8v-5.1c0-2.1 0.8-3.1 2.3-3.1 0.6 0 1.2 0.1 1.8 0.3s1.5 0.6 2.5 1c3.4 1.5 7.1 2.7 11 3.5 4 0.8 7.9 1.2 11.9 1.2 6.3 0 11.2-1.1 14.6-3.3s5.2-5.4 5.2-9.5c0-2.8-0.9-5.1-2.7-7s-5.2-3.6-10.1-5.2l-14.5-4.5c-7.3-2.3-12.7-5.7-16-10.2-3.3-4.4-5-9.3-5-14.5 0-4.2 0.9-7.9 2.7-11.1s4.2-6 7.2-8.2c3-2.3 6.4-4 10.4-5.2s8.2-1.7 12.6-1.7c2.2 0 4.5 0.1 6.7 0.4 2.3 0.3 4.4 0.7 6.5 1.1 2 0.5 3.9 1 5.7 1.6s3.2 1.2 4.2 1.8c1.4 0.8 2.4 1.6 3 2.5 0.6 0.8 0.9 1.9 0.9 3.3v4.7c0 2.1-0.8 3.2-2.3 3.2-0.8 0-2.1-0.4-3.8-1.2-5.7-2.6-12.1-3.9-19.2-3.9-5.7 0-10.2 0.9-13.3 2.8s-4.7 4.8-4.7 8.9c0 2.8 1 5.2 3 7.1s5.7 3.8 11 5.5l14.2 4.5c7.2 2.3 12.4 5.5 15.5 9.6s4.6 8.8 4.6 14c0 4.3-0.9 8.2-2.6 11.6-1.8 3.4-4.2 6.4-7.3 8.8-3.1 2.5-6.8 4.3-11.1 5.6-4.5 1.4-9.2 2.1-14.3 2.1z" class="st0" fill="#252f3e"/><g fill-rule="evenodd" clip-rule="evenodd" fill="#f90"><path d="m273.5 143.7c-32.9 24.3-80.7 37.2-121.8 37.2-57.6 0-109.5-21.3-148.7-56.7-3.1-2.8-0.3-6.6 3.4-4.4 42.4 24.6 94.7 39.5 148.8 39.5 36.5 0 76.6-7.6 113.5-23.2 5.5-2.5 10.2 3.6 4.8 7.6z" class="st1"/><path d="m287.2 128.1c-4.2-5.4-27.8-2.6-38.5-1.3-3.2 0.4-3.7-2.4-0.8-4.5 18.8-13.2 49.7-9.4 53.3-5 3.6 4.5-1 35.4-18.6 50.2-2.7 2.3-5.3 1.1-4.1-1.9 4-9.9 12.9-32.2 8.7-37.5z" class="st1"/></g></g><g transform="translate(-88.711 5.9983)"><g transform="matrix(.13421 0 0 -.13421 29.413 171.94)"><g clip-path="url(#clipPath18)"><g transform="translate(834.06 415.86)"><path d="m0 0-55.172-95.902h-144.49c-12.887 0-24.785 6.894-31.199 18.07l-116.88 203.8c-6.356 11.09-6.356 24.699 0 35.785l44.476 77.531 54.907-95.422 82.77-143.87z" fill="#f8bb16"/></g><g transform="translate(1016.2 541.82)"><path d="m0 0-116.88-203.8c-6.414-11.176-18.312-18.07-31.195-18.07h-89.281l55.172 95.902 82.808 143.86-82.808 143.86h109.93l72.26-125.96c6.355-11.091 6.355-24.7 0-35.79" fill="#ea4334"/></g><g transform="translate(943.99 703.57)"><path d="m0 0h-275.52l-82.773-143.86-54.906 95.421 72.406 126.27c6.414 11.18 18.312 18.07 31.199 18.07h233.77c12.882 0 24.781-6.89 31.195-18.07z" fill="#0074bc"/></g><g transform="translate(834.06 703.57)"><path d="m0 0 82.781-143.86-82.781-143.86h-165.56l-82.804 143.86 82.77 143.86z" fill="#e2e3e4"/></g><g transform="translate(751.29 631.64)"><path d="m0 0c39.727 0 71.93-32.207 71.93-71.93 0-39.726-32.203-71.929-71.93-71.929-39.723 0-71.926 32.203-71.926 71.929 0 39.724 32.203 71.931 71.926 71.931" fill="#fff"/></g><g opacity="0.2" clip-path="url(#clipPath46)"><g transform="translate(603.2 778.41)"><path d="m0 0c6.414 11.18 18.312 18.074 31.199 18.074h233.77c12.883 0 24.781-6.894 31.195-18.074l42.918-74.836h1.707l-44.63 77.832c-6.414 11.18-18.312 18.07-31.195 18.07h-233.76c-12.888 0-24.786-6.89-31.2-18.07l-72.406-126.27 0.867-1.496z" fill="#fff"/></g></g><g opacity="0.2" clip-path="url(#clipPath62)"><g transform="translate(585.7 559.71)"><path d="m0 0 82.773 143.86h275.52l-1.707 2.997h-273.81l-82.77-143.86" fill="#2c3079"/></g></g><g opacity="0.2" clip-path="url(#clipPath78)"><g transform="translate(486.32 574.61)"><path d="m0 0 44.477 77.535 54.906-95.43 82.773-143.86h163.85l1.738 2.996h-165.59l-82.777 143.86-54.906 95.427-44.477-77.531c-3.445-5.992-4.945-12.707-4.676-19.391 0.239 5.665 1.77 11.297 4.676 16.395" fill="#fff"/></g></g><g opacity="0.2" clip-path="url(#clipPath94)"><g transform="translate(780.62 322.95)"><path d="m0 0h-146.22c-12.886 0-24.785 6.891-31.199 18.07l-116.88 203.8c-2.906 5.098-4.437 10.731-4.675 16.399-0.27-6.688 1.23-13.399 4.675-19.395l116.88-203.8c6.414-11.176 18.313-18.07 31.199-18.07h144.49z" fill="#be3b26"/></g></g><g opacity="0.2" clip-path="url(#clipPath110)"><g transform="translate(918.55 559.71)"><path d="m0 0-82.75 143.86h-1.738l82.808-143.86z" fill="#3f2723"/></g><g transform="translate(1016.2 544.82)"><path d="m0 0-116.88-203.8c-6.414-11.18-18.312-18.07-31.195-18.07h-87.547l-1.734-2.996h89.281c12.883 0 24.781 6.894 31.195 18.07l116.88 203.8c3.449 6 4.945 12.711 4.68 19.398-0.243-5.668-1.77-11.3-4.68-16.398" fill="#3f2723"/></g></g><g opacity="0.2" clip-path="url(#clipPath130)"><g transform="translate(943.99 700.57)"><path d="m0 0 72.258-125.96c2.91-5.097 4.437-10.73 4.68-16.394 0.265 6.683-1.231 13.398-4.68 19.39l-72.258 125.96h-109.93l1.74-3" fill="#fff"/></g><g transform="translate(834.06 412.86)"><path d="m0 0 84.488 146.86h-1.679l-82.809-143.86-55.172-95.906h1.734z" fill="#fff"/></g></g></g></g><g transform="matrix(.13421 0 0 -.13421 29.413 171.94)"><g clip-path="url(#clipPath150)"><g mask="url(#mask166)"><path fill="url(#radialGradient186)" d="m634.4 799.47c-12.886 0-24.785-6.891-31.199-18.071l-116.88-203.79c-6.355-11.087-6.355-24.696 0-35.785l116.88-203.8c6.414-11.176 18.313-18.071 31.199-18.071h233.77c12.883 0 24.781 6.895 31.195 18.071l116.88 203.8c6.355 11.089 6.355 24.698 0 35.785l-72.258 125.96-44.625 77.832c-6.414 11.18-18.312 18.071-31.195 18.071z"/></g></g></g></g><path stroke-width=".23438" fill="#00adef" d="m97.07 8.5214 24.52-3.3392 0.01 23.653-24.508 0.139-0.022-20.452zm24.509 23.038 0.0187 23.673-24.509-3.3697-0.003-20.462 24.491 0.15867zm2.97-26.814 32.51-4.7451v28.534l-32.51 0.257v-24.046zm32.52 27.037-0.008 28.405-32.512-4.5887-0.0454-23.869z"/><g transform="matrix(.67124 0 0 .67124 -4.6494 -565.93)" fill="#007ba9"><path style="color-rendering:auto;text-decoration-color:#000000;color:#000000;isolation:auto;mix-blend-mode:normal;shape-rendering:auto;solid-color:#000000;text-decoration-line:none;text-decoration-style:solid;image-rendering:auto;white-space:normal;text-indent:0;text-transform:none" d="m152.5 951.44a7.5008 7.5008 0 0 0 -7.5 7.5v11.111a7.5008 7.5008 0 0 0 7.5 7.5h78.791a7.5008 7.5008 0 0 0 7.5 -7.5v-11.111a7.5008 7.5008 0 0 0 -7.5 -7.5zm0.79883 6.0957h39.285v13.572h-39.285zm52.781 0.0371a6.7857 6.7857 0 0 1 6.7871 6.7852 6.7857 6.7857 0 0 1 -6.7871 6.7852 6.7857 6.7857 0 0 1 -6.7852 -6.7852 6.7857 6.7857 0 0 1 6.7852 -6.7852zm17.643 0a6.7857 6.7857 0 0 1 6.7871 6.7852 6.7857 6.7857 0 0 1 -6.7871 6.7852 6.7857 6.7857 0 0 1 -6.7852 -6.7852 6.7857 6.7857 0 0 1 6.7852 -6.7852z"/><path style="color-rendering:auto;text-decoration-color:#000000;color:#000000;isolation:auto;mix-blend-mode:normal;shape-rendering:auto;solid-color:#000000;text-decoration-line:none;text-decoration-style:solid;image-rendering:auto;white-space:normal;text-indent:0;text-transform:none" d="m152.5 985.02a7.5008 7.5008 0 0 0 -7.5 7.5v11.111a7.5008 7.5008 0 0 0 7.5 7.5h78.791a7.5008 7.5008 0 0 0 7.5 -7.5v-11.111a7.5008 7.5008 0 0 0 -7.5 -7.5zm0.79883 6.0957h39.285v13.572h-39.285zm52.781 0.0371a6.7857 6.7857 0 0 1 6.7871 6.7852 6.7857 6.7857 0 0 1 -6.7871 6.7852 6.7857 6.7857 0 0 1 -6.7852 -6.7852 6.7857 6.7857 0 0 1 6.7852 -6.7852zm17.643 0a6.7857 6.7857 0 0 1 6.7871 6.7852 6.7857 6.7857 0 0 1 -6.7871 6.7852 6.7857 6.7857 0 0 1 -6.7852 -6.7852 6.7857 6.7857 0 0 1 6.7852 -6.7852z"/><path style="color-rendering:auto;text-decoration-color:#000000;color:#000000;isolation:auto;mix-blend-mode:normal;shape-rendering:auto;solid-color:#000000;text-decoration-line:none;text-decoration-style:solid;image-rendering:auto;white-space:normal;text-indent:0;text-transform:none" d="m152.5 1018.7a7.5008 7.5008 0 0 0 -7.5 7.5v11.111a7.5008 7.5008 0 0 0 7.5 7.5h78.791a7.5008 7.5008 0 0 0 7.5 -7.5v-11.111a7.5008 7.5008 0 0 0 -7.5 -7.5zm0.79883 6.0957h39.285v13.572h-39.285zm52.781 0.037a6.7857 6.7857 0 0 1 6.7871 6.7851 6.7857 6.7857 0 0 1 -6.7871 6.7853 6.7857 6.7857 0 0 1 -6.7852 -6.7853 6.7857 6.7857 0 0 1 6.7852 -6.7851zm17.643 0a6.7857 6.7857 0 0 1 6.7871 6.7851 6.7857 6.7857 0 0 1 -6.7871 6.7853 6.7857 6.7857 0 0 1 -6.7852 -6.7853 6.7857 6.7857 0 0 1 6.7852 -6.7851z"/></g></svg>
