<svg width="60" height="60" viewBox="0 0 60 60" fill="none" xmlns="http://www.w3.org/2000/svg">
<path fill-rule="evenodd" clip-rule="evenodd" d="M54 60L18 60C15.2386 60 13 57.7614 13 55L13 5C13 2.23858 15.2386 -1.91287e-06 18 -1.79217e-06L46.5858 -3.04224e-07C47.9119 -7.84042e-09 49.1836 0.526785 50.1213 1.46447L57.5355 8.87868C58.4732 9.81637 59 11.0881 59 12.4142L59 55C59 57.7614 56.7614 60 54 60ZM47.2929 4.29289C47.1054 4.10536 46.851 4 46.5858 4L18 4C17.4477 4 17 4.44771 17 5L17 55C17 55.5523 17.4477 56 18 56L54 56C54.5523 56 55 55.5523 55 55L55 12.4142C55 12.149 54.8946 11.8946 54.7071 11.7071L47.2929 4.29289Z" fill="#0D2743"/>
<path fill-rule="evenodd" clip-rule="evenodd" d="M45.2346 0.152238C45.982 -0.157324 46.8422 0.0137879 47.4142 0.585784L58.4142 11.5858C58.9862 12.1578 59.1573 13.018 58.8478 13.7654C58.5382 14.5127 57.8089 15 57 15H48C45.7909 15 44 13.2091 44 11V2C44 1.19107 44.4873 0.4618 45.2346 0.152238ZM48 13C46.8954 13 46 12.1046 46 11V2L57 13H48Z" fill="#0D2743"/>
<path d="M2 12H38V30H2V12Z" fill="#305680"/>
<path d="M2 34H38V52H2V34Z" fill="#305680"/>
<path d="M7.75146 20.776C7.75146 19.944 7.93146 19.204 8.29146 18.556C8.65146 17.9 9.15146 17.392 9.79146 17.032C10.4395 16.664 11.1715 16.48 11.9875 16.48C12.9875 16.48 13.8435 16.744 14.5555 17.272C15.2675 17.8 15.7435 18.52 15.9835 19.432H13.7275C13.5595 19.08 13.3195 18.812 13.0075 18.628C12.7035 18.444 12.3555 18.352 11.9635 18.352C11.3315 18.352 10.8195 18.572 10.4275 19.012C10.0355 19.452 9.83947 20.04 9.83947 20.776C9.83947 21.512 10.0355 22.1 10.4275 22.54C10.8195 22.98 11.3315 23.2 11.9635 23.2C12.3555 23.2 12.7035 23.108 13.0075 22.924C13.3195 22.74 13.5595 22.472 13.7275 22.12H15.9835C15.7435 23.032 15.2675 23.752 14.5555 24.28C13.8435 24.8 12.9875 25.06 11.9875 25.06C11.1715 25.06 10.4395 24.88 9.79146 24.52C9.15146 24.152 8.65146 23.644 8.29146 22.996C7.93146 22.348 7.75146 21.608 7.75146 20.776Z" fill="white"/>
<path d="M20.2881 25.084C19.6721 25.084 19.1201 24.984 18.6321 24.784C18.1441 24.584 17.7521 24.288 17.4561 23.896C17.1681 23.504 17.0161 23.032 17.0001 22.48H19.1841C19.2161 22.792 19.3241 23.032 19.5081 23.2C19.6921 23.36 19.9321 23.44 20.2281 23.44C20.5321 23.44 20.7721 23.372 20.9481 23.236C21.1241 23.092 21.2121 22.896 21.2121 22.648C21.2121 22.44 21.1401 22.268 20.9961 22.132C20.8601 21.996 20.6881 21.884 20.4801 21.796C20.2801 21.708 19.9921 21.608 19.6161 21.496C19.0721 21.328 18.6281 21.16 18.2841 20.992C17.9401 20.824 17.6441 20.576 17.3961 20.248C17.1481 19.92 17.0241 19.492 17.0241 18.964C17.0241 18.18 17.3081 17.568 17.8761 17.128C18.4441 16.68 19.1841 16.456 20.0961 16.456C21.0241 16.456 21.7721 16.68 22.3401 17.128C22.9081 17.568 23.2121 18.184 23.2521 18.976H21.0321C21.0161 18.704 20.9161 18.492 20.7321 18.34C20.5481 18.18 20.3121 18.1 20.0241 18.1C19.7761 18.1 19.5761 18.168 19.4241 18.304C19.2721 18.432 19.1961 18.62 19.1961 18.868C19.1961 19.14 19.3241 19.352 19.5801 19.504C19.8361 19.656 20.2361 19.82 20.7801 19.996C21.3241 20.18 21.7641 20.356 22.1001 20.524C22.4441 20.692 22.7401 20.936 22.9881 21.256C23.2361 21.576 23.3601 21.988 23.3601 22.492C23.3601 22.972 23.2361 23.408 22.9881 23.8C22.7481 24.192 22.3961 24.504 21.9321 24.736C21.4681 24.968 20.9201 25.084 20.2881 25.084Z" fill="white"/>
<path d="M32.5309 16.576L29.5429 25H26.9749L23.9869 16.576H26.1709L28.2589 22.936L30.3589 16.576H32.5309Z" fill="white"/>
<path d="M13.3842 47L11.6682 44.42L10.1562 47H7.82819L10.5282 42.716L7.76819 38.576H10.1562L11.8482 41.12L13.3362 38.576H15.6642L12.9882 42.824L15.7722 47H13.3842Z" fill="white"/>
<path d="M20.5343 45.416H23.2223V47H18.4823V38.576H20.5343V45.416Z" fill="white"/>
<path d="M28.9291 47.084C28.3131 47.084 27.7611 46.984 27.2731 46.784C26.7851 46.584 26.3931 46.288 26.0971 45.896C25.8091 45.504 25.6571 45.032 25.6411 44.48H27.8251C27.8571 44.792 27.9651 45.032 28.1491 45.2C28.3331 45.36 28.5731 45.44 28.8691 45.44C29.1731 45.44 29.4131 45.372 29.5891 45.236C29.7651 45.092 29.8531 44.896 29.8531 44.648C29.8531 44.44 29.7811 44.268 29.6371 44.132C29.5011 43.996 29.3291 43.884 29.1211 43.796C28.9211 43.708 28.6331 43.608 28.2571 43.496C27.7131 43.328 27.2691 43.16 26.9251 42.992C26.5811 42.824 26.2851 42.576 26.0371 42.248C25.7891 41.92 25.6651 41.492 25.6651 40.964C25.6651 40.18 25.9491 39.568 26.5171 39.128C27.0851 38.68 27.8251 38.456 28.7371 38.456C29.6651 38.456 30.4131 38.68 30.9811 39.128C31.5491 39.568 31.8531 40.184 31.8931 40.976H29.6731C29.6571 40.704 29.5571 40.492 29.3731 40.34C29.1891 40.18 28.9531 40.1 28.6651 40.1C28.4171 40.1 28.2171 40.168 28.0651 40.304C27.9131 40.432 27.8371 40.62 27.8371 40.868C27.8371 41.14 27.9651 41.352 28.2211 41.504C28.4771 41.656 28.8771 41.82 29.4211 41.996C29.9651 42.18 30.4051 42.356 30.7411 42.524C31.0851 42.692 31.3811 42.936 31.6291 43.256C31.8771 43.576 32.0011 43.988 32.0011 44.492C32.0011 44.972 31.8771 45.408 31.6291 45.8C31.3891 46.192 31.0371 46.504 30.5731 46.736C30.1091 46.968 29.5611 47.084 28.9291 47.084Z" fill="white"/>
</svg>
