<svg xmlns="http://www.w3.org/2000/svg" height="162" width="162" version="1.1" viewBox="0 0 151.875 151.87374">
 <g transform="translate(-262.24 -550.82)">
  <g transform="matrix(.93442 0 0 .93442 245.66 119.96)">
   <path d="m78.903 486.91h40.208v-4.4675h-40.207c-2.4571 0-4.4675 2.0104-4.4675 4.4675v26.805c0 2.4571 2.0104 4.4675 4.4675 4.4675h8.9351v-4.4675h-8.9351z" fill="#305680"/>
   <path d="m21.984 395v3.9766c-1.3626 1.2286-2.2344 2.971-2.2344 4.959 0 1.9881 0.87176 3.7304 2.2344 4.959v3.9746h8.9355v-3.9746c1.3626-1.2286 2.2324-2.9932 2.2324-4.959 0-1.9657-0.86982-3.7304-2.2324-4.959v-3.98zm4.4668 5.584c1.854 0 3.3516 1.4976 3.3516 3.3516s-1.4975 3.3496-3.3516 3.3496c-1.854 0-3.3496-1.4956-3.3496-3.3496s1.4956-3.3516 3.3496-3.3516z" transform="translate(70.321 105.31)" fill="#237de0"/>
   <path d="m37.621 386.06c-1.1169 0-2.2344 1.1175-2.2344 2.2344v22.338c0 1.1169 1.1175 2.2324 2.2344 2.2324h13.402c1.1169 0 2.2324-1.1155 2.2324-2.2324v-22.338c0-1.1169-1.1155-2.2344-2.2324-2.2344zm2.2324 4.4668h8.9355v17.871h-8.9355z" transform="translate(70.321 105.31)" fill="#237de0"/>
  </g>
  <g transform="matrix(.94381 0 0 .94381 128.98 270.91)">
   <g transform="translate(1.0295 -9.2655)">
    <path style="color-rendering:auto;text-decoration-color:#000000;color:#000000;isolation:auto;mix-blend-mode:normal;shape-rendering:auto;solid-color:#000000;text-decoration-line:none;text-decoration-style:solid;image-rendering:auto;white-space:normal;text-indent:0;text-transform:none" d="m252.92 372.8c-0.69688 0.00007-1.2618 0.56498-1.2619 1.2619v24.474c0.00007 0.69688 0.56499 1.2618 1.2619 1.2619h24.474c0.69688-0.00007 1.2618-0.56499 1.2619-1.2619v-24.474c-0.00007-0.69688-0.56499-1.2618-1.2619-1.2619z" fill="#305680"/>
    <g fill-rule="evenodd" fill="#237de0">
     <g transform="matrix(.33747 0 0 .33747 116.67 348.38)">
      <path style="color-rendering:auto;text-decoration-color:#000000;color:#000000;isolation:auto;mix-blend-mode:normal;shape-rendering:auto;solid-color:#000000;text-decoration-line:none;text-decoration-style:solid;image-rendering:auto;white-space:normal;text-indent:0;text-transform:none" d="m419.92 49.559a5 5 0 0 0 -4.9233 5.0698v13.733h9.999v-13.733a5 5 0 0 0 -5.0757 -5.0698z"/>
      <path style="color-rendering:auto;text-decoration-color:#000000;color:#000000;isolation:auto;mix-blend-mode:normal;shape-rendering:auto;solid-color:#000000;text-decoration-line:none;text-decoration-style:solid;image-rendering:auto;white-space:normal;text-indent:0;text-transform:none" d="m439.92 49.559a5 5 0 0 0 -4.9233 5.0698v13.733h9.999v-13.733a5 5 0 0 0 -5.0757 -5.0698z"/>
      <path style="color-rendering:auto;text-decoration-color:#000000;color:#000000;isolation:auto;mix-blend-mode:normal;shape-rendering:auto;solid-color:#000000;text-decoration-line:none;text-decoration-style:solid;image-rendering:auto;white-space:normal;text-indent:0;text-transform:none" d="m459.92 49.559a5 5 0 0 0 -4.9233 5.0698v13.733h9.999v-13.733a5 5 0 0 0 -5.0757 -5.0698z"/>
     </g>
     <g transform="matrix(-.33747 0 0 -.33747 413.64 424.22)">
      <path style="color-rendering:auto;text-decoration-color:#000000;color:#000000;isolation:auto;mix-blend-mode:normal;shape-rendering:auto;solid-color:#000000;text-decoration-line:none;text-decoration-style:solid;image-rendering:auto;white-space:normal;text-indent:0;text-transform:none" d="m419.92 49.559a5 5 0 0 0 -4.9233 5.0698v13.733h9.999v-13.733a5 5 0 0 0 -5.0757 -5.0698z"/>
      <path style="color-rendering:auto;text-decoration-color:#000000;color:#000000;isolation:auto;mix-blend-mode:normal;shape-rendering:auto;solid-color:#000000;text-decoration-line:none;text-decoration-style:solid;image-rendering:auto;white-space:normal;text-indent:0;text-transform:none" d="m439.92 49.559a5 5 0 0 0 -4.9233 5.0698v13.733h9.999v-13.733a5 5 0 0 0 -5.0757 -5.0698z"/>
      <path style="color-rendering:auto;text-decoration-color:#000000;color:#000000;isolation:auto;mix-blend-mode:normal;shape-rendering:auto;solid-color:#000000;text-decoration-line:none;text-decoration-style:solid;image-rendering:auto;white-space:normal;text-indent:0;text-transform:none" d="m459.92 49.559a5 5 0 0 0 -4.9233 5.0698v13.733h9.999v-13.733a5 5 0 0 0 -5.0757 -5.0698z"/>
     </g>
     <g transform="matrix(0 -.33747 .33747 0 227.24 534.78)">
      <path style="color-rendering:auto;text-decoration-color:#000000;color:#000000;isolation:auto;mix-blend-mode:normal;shape-rendering:auto;solid-color:#000000;text-decoration-line:none;text-decoration-style:solid;image-rendering:auto;white-space:normal;text-indent:0;text-transform:none" d="m419.92 49.559a5 5 0 0 0 -4.9233 5.0698v13.733h9.999v-13.733a5 5 0 0 0 -5.0757 -5.0698z"/>
      <path style="color-rendering:auto;text-decoration-color:#000000;color:#000000;isolation:auto;mix-blend-mode:normal;shape-rendering:auto;solid-color:#000000;text-decoration-line:none;text-decoration-style:solid;image-rendering:auto;white-space:normal;text-indent:0;text-transform:none" d="m439.92 49.559a5 5 0 0 0 -4.9233 5.0698v13.733h9.999v-13.733a5 5 0 0 0 -5.0757 -5.0698z"/>
      <path style="color-rendering:auto;text-decoration-color:#000000;color:#000000;isolation:auto;mix-blend-mode:normal;shape-rendering:auto;solid-color:#000000;text-decoration-line:none;text-decoration-style:solid;image-rendering:auto;white-space:normal;text-indent:0;text-transform:none" d="m459.92 49.559a5 5 0 0 0 -4.9233 5.0698v13.733h9.999v-13.733a5 5 0 0 0 -5.0757 -5.0698z"/>
     </g>
     <g transform="matrix(0 .33747 -.33747 0 303.08 237.81)">
      <path style="color-rendering:auto;text-decoration-color:#000000;color:#000000;isolation:auto;mix-blend-mode:normal;shape-rendering:auto;solid-color:#000000;text-decoration-line:none;text-decoration-style:solid;image-rendering:auto;white-space:normal;text-indent:0;text-transform:none" d="m419.92 49.559a5 5 0 0 0 -4.9233 5.0698v13.733h9.999v-13.733a5 5 0 0 0 -5.0757 -5.0698z"/>
      <path style="color-rendering:auto;text-decoration-color:#000000;color:#000000;isolation:auto;mix-blend-mode:normal;shape-rendering:auto;solid-color:#000000;text-decoration-line:none;text-decoration-style:solid;image-rendering:auto;white-space:normal;text-indent:0;text-transform:none" d="m439.92 49.559a5 5 0 0 0 -4.9233 5.0698v13.733h9.999v-13.733a5 5 0 0 0 -5.0757 -5.0698z"/>
      <path style="color-rendering:auto;text-decoration-color:#000000;color:#000000;isolation:auto;mix-blend-mode:normal;shape-rendering:auto;solid-color:#000000;text-decoration-line:none;text-decoration-style:solid;image-rendering:auto;white-space:normal;text-indent:0;text-transform:none" d="m459.92 49.559a5 5 0 0 0 -4.9233 5.0698v13.733h9.999v-13.733a5 5 0 0 0 -5.0757 -5.0698z"/>
     </g>
    </g>
   </g>
  </g>
  <g transform="matrix(.95340 0 0 .95340 205.51 257.39)">
   <path d="m7.9629 264.6v35.035h19.437v-35.035zm3.8926 3.8926h3.8926v3.8926h-3.8926zm7.7852 0h3.8945v3.8926h-3.8945zm-7.7852 7.7852h3.8926v3.8926h-3.8926zm7.7852 0h3.8945v3.8926h-3.8945zm-7.7852 7.7852h3.8926v3.8926h-3.8926zm7.7852 0h3.8945v3.8926h-3.8945zm-7.7852 7.7852h3.8926v3.8945h-3.8926zm7.7852 0h3.8945v3.8945h-3.8945z" transform="translate(70.321 105.31)" fill="#305680"/>
   <path d="m97.704 404.94h19.49v-27.25h-19.482s-0.0039 21.349-0.0039 27.25zm0.02734-23.357h15.57v19.465h-15.569v-3.8945h3.889v-3.8926h-3.8926v-3.8926h3.893v-3.8926h-3.8926zm7.7852 3.8926v3.8926h3.8926v-3.8926zm0 7.7852v3.8926h3.8926v-3.8926z" fill="#237de0"/>
  </g>
  <g transform="matrix(.91619 0 0 .91619 93.275 209.72)">
   <g fill="#305680">
    <g transform="matrix(.51467 0 0 .51467 242.77 471.91)">
     <path fill="#305680" d="m90 83h-75c-1.1 0-2-0.9-2-2v-1c0-1.1 0.9-2 2-2 0.7 0 1.4 0.4 1.7 1h72.4l1.8-1.8v-39.4l-2.4-2.4c-0.3-0.4-0.5-0.9-0.5-1.4v-12h-71v6c0 1.1-0.9 2-2 2s-2-0.9-2-2v-8c0-1.1 0.9-2 2-2h75c1.1 0 2 0.9 2 2v13.2l2.4 2.4c0.4 0.4 0.6 0.9 0.6 1.4v41c0 0.5-0.2 1-0.6 1.4l-3 3c-0.4 0.4-0.9 0.6-1.4 0.6z"/>
    </g>
    <g transform="matrix(.51467 0 0 .28892 242.77 484.12)">
     <path fill="#305680" d="m15 65c-1.1 0-2-0.9-2-2v-15c0-1.1 0.9-2 2-2s2 0.9 2 2v15c0 1.1-0.9 2-2 2z"/>
    </g>
    <path d="m254.16 496.85h-10.26c-0.51297 0-0.96183-0.44886-0.96183-0.96183v-7.0534c0-0.51297 0.44886-0.96183 0.96183-0.96183h10.26c0.51298 0 0.96183 0.44886 0.96183 0.96183v7.0534c0 0.51297-0.44885 0.96183-0.96183 0.96183z"/>
    <path d="m255.61 511.54h-9.8278c-0.56158 0-1.053-0.49139-1.053-1.053v-5.6158c0-0.56159 0.49138-1.053 1.053-1.053h9.8278c0.56159 0 1.053 0.49138 1.053 1.053v5.6158c0 0.56159-0.49139 1.053-1.053 1.053z"/>
   </g>
   <g fill="#237de0">
    <path d="m271.6 488.19h-13.862c-0.6931 0-1.2996-0.12737-1.2996-0.27294v-2.0016c0-0.14557 0.60647-0.27294 1.2996-0.27294h13.862c0.6931 0 1.2996 0.12737 1.2996 0.27294v2.0016c0 0.14557-0.60647 0.27294-1.2996 0.27294z"/>
    <path d="m285.36 504.69h-17.48c-0.87435 0-1.6394-0.23073-1.6394-0.49441v-3.6257c0-0.26368 0.76508-0.49441 1.6394-0.49441h17.487c0.87435 0 1.6394 0.23073 1.6394 0.49441v3.6257c0 0.26368-0.76508 0.49441-1.6394 0.49441z"/>
    <path d="m284.75 488.16h-7.9812c-0.39905 0-0.74823-0.12737-0.74823-0.27294v-2.0016c0-0.14557 0.34918-0.27295 0.74823-0.27295h7.9812c0.39906 0 0.74823 0.12738 0.74823 0.27295v2.0016c0 0.14557-0.34917 0.27294-0.74823 0.27294z"/>
    <path d="m280.92 495.37h-6.1031c-0.30507 0-0.57217-0.1872-0.57217-0.40116v-2.9419c0-0.21396 0.26714-0.40117 0.57217-0.40117h6.1031c0.30507 0 0.57217 0.18721 0.57217 0.40117v2.9419c0 0.21396-0.26716 0.40116-0.57217 0.40116z"/>
    <path d="m273.83 511.21h-10.349c-0.51745 0-0.97023-0.12737-0.97023-0.27294v-2.0016c0-0.14557 0.45278-0.27294 0.97023-0.27294h10.349c0.51745 0 0.97023 0.12737 0.97023 0.27294v2.0016c0 0.14557-0.45278 0.27294-0.97023 0.27294z"/>
    <path d="m286.31 511.18h-7.7488c-0.38744 0-0.72645-0.12737-0.72645-0.27294v-2.0016c0-0.14558 0.33901-0.27295 0.72645-0.27295h7.7488c0.38743 0 0.72644 0.12737 0.72644 0.27295v2.0016c0 0.14557-0.33901 0.27294-0.72644 0.27294z"/>
   </g>
  </g>
  <path d="m264.71 626.75c0 20.286 16.446 36.731 36.732 36.731 0.00001 20.286 16.445 36.731 36.731 36.731s36.731-16.445 36.731-36.731c20.286-0.00001 36.731-16.445 36.731-36.731s-16.445-36.731-36.731-36.731c0-20.286-16.445-36.731-36.731-36.731s-36.731 16.445-36.731 36.731c-20.286 0-36.732 16.445-36.732 36.731z" stroke="#237de0" stroke-linecap="round" stroke-width="4.9495" fill="none"/>
 </g>
</svg>
