<svg width="215" height="160" viewBox="0 0 215 160" fill="none" xmlns="http://www.w3.org/2000/svg">
<rect width="215" height="160" fill="white"/>
<rect width="215" height="48" transform="translate(0 8)" fill="white"/>
<path opacity="0.83" d="M63.75 32.7422H58.8203V36.7734H64.5469V38H57.3203V26.625H64.4688V27.8594H58.8203V31.5156H63.75V32.7422ZM69.0234 32.6328L70.8984 29.5469H72.5859L69.8203 33.7266L72.6719 38H71L69.0469 34.8359L67.0938 38H65.4141L68.2656 33.7266L65.5 29.5469H67.1719L69.0234 32.6328ZM81.2656 33.8672C81.2656 35.1536 80.9714 36.1901 80.3828 36.9766C79.7943 37.763 78.9974 38.1562 77.9922 38.1562C76.9661 38.1562 76.1589 37.8307 75.5703 37.1797V41.25H74.125V29.5469H75.4453L75.5156 30.4844C76.1042 29.7552 76.9219 29.3906 77.9688 29.3906C78.9844 29.3906 79.7865 29.7734 80.375 30.5391C80.9688 31.3047 81.2656 32.3698 81.2656 33.7344V33.8672ZM79.8203 33.7031C79.8203 32.75 79.6172 31.9974 79.2109 31.4453C78.8047 30.8932 78.2474 30.6172 77.5391 30.6172C76.6641 30.6172 76.0078 31.0052 75.5703 31.7812V35.8203C76.0026 36.5911 76.6641 36.9766 77.5547 36.9766C78.2474 36.9766 78.7969 36.7031 79.2031 36.1562C79.6146 35.6042 79.8203 34.7865 79.8203 33.7031ZM82.7266 33.6953C82.7266 32.8672 82.888 32.1224 83.2109 31.4609C83.5391 30.7995 83.9922 30.2891 84.5703 29.9297C85.1536 29.5703 85.8177 29.3906 86.5625 29.3906C87.7135 29.3906 88.6432 29.7891 89.3516 30.5859C90.0651 31.3828 90.4219 32.4427 90.4219 33.7656V33.8672C90.4219 34.6901 90.263 35.4297 89.9453 36.0859C89.6328 36.737 89.1823 37.2448 88.5938 37.6094C88.0104 37.974 87.3385 38.1562 86.5781 38.1562C85.4323 38.1562 84.5026 37.7578 83.7891 36.9609C83.0807 36.1641 82.7266 35.1094 82.7266 33.7969V33.6953ZM84.1797 33.8672C84.1797 34.8047 84.3958 35.5573 84.8281 36.125C85.2656 36.6927 85.849 36.9766 86.5781 36.9766C87.3125 36.9766 87.8958 36.6901 88.3281 36.1172C88.7604 35.5391 88.9766 34.7318 88.9766 33.6953C88.9766 32.7682 88.7552 32.0182 88.3125 31.4453C87.875 30.8672 87.2917 30.5781 86.5625 30.5781C85.849 30.5781 85.2734 30.862 84.8359 31.4297C84.3984 31.9974 84.1797 32.8099 84.1797 33.8672ZM96.3203 30.8438C96.1016 30.8073 95.8646 30.7891 95.6094 30.7891C94.6615 30.7891 94.0182 31.1927 93.6797 32V38H92.2344V29.5469H93.6406L93.6641 30.5234C94.138 29.7682 94.8099 29.3906 95.6797 29.3906C95.9609 29.3906 96.1745 29.4271 96.3203 29.5V30.8438ZM100.008 27.5V29.5469H101.586V30.6641H100.008V35.9062C100.008 36.2448 100.078 36.5 100.219 36.6719C100.359 36.8385 100.599 36.9219 100.938 36.9219C101.104 36.9219 101.333 36.8906 101.625 36.8281V38C101.245 38.1042 100.875 38.1562 100.516 38.1562C99.8698 38.1562 99.3828 37.9609 99.0547 37.5703C98.7266 37.1797 98.5625 36.625 98.5625 35.9062V30.6641H97.0234V29.5469H98.5625V27.5H100.008ZM106.898 33.7031C106.898 32.4062 107.206 31.3646 107.82 30.5781C108.435 29.7865 109.24 29.3906 110.234 29.3906C111.224 29.3906 112.008 29.7292 112.586 30.4062V26H114.031V38H112.703L112.633 37.0938C112.055 37.8021 111.25 38.1562 110.219 38.1562C109.24 38.1562 108.44 37.7552 107.82 36.9531C107.206 36.151 106.898 35.1042 106.898 33.8125V33.7031ZM108.344 33.8672C108.344 34.8255 108.542 35.5755 108.938 36.1172C109.333 36.6589 109.88 36.9297 110.578 36.9297C111.495 36.9297 112.164 36.5182 112.586 35.6953V31.8125C112.154 31.0156 111.49 30.6172 110.594 30.6172C109.885 30.6172 109.333 30.8906 108.938 31.4375C108.542 31.9844 108.344 32.7943 108.344 33.8672ZM121.5 38C121.417 37.8333 121.349 37.5365 121.297 37.1094C120.625 37.8073 119.823 38.1562 118.891 38.1562C118.057 38.1562 117.372 37.9219 116.836 37.4531C116.305 36.9792 116.039 36.3802 116.039 35.6562C116.039 34.776 116.372 34.0938 117.039 33.6094C117.711 33.1198 118.654 32.875 119.867 32.875H121.273V32.2109C121.273 31.7057 121.122 31.3047 120.82 31.0078C120.518 30.7057 120.073 30.5547 119.484 30.5547C118.969 30.5547 118.536 30.6849 118.188 30.9453C117.839 31.2057 117.664 31.5208 117.664 31.8906H116.211C116.211 31.4688 116.359 31.0625 116.656 30.6719C116.958 30.276 117.365 29.9635 117.875 29.7344C118.391 29.5052 118.956 29.3906 119.57 29.3906C120.544 29.3906 121.307 29.6354 121.859 30.125C122.411 30.6094 122.698 31.2786 122.719 32.1328V36.0234C122.719 36.7995 122.818 37.4167 123.016 37.875V38H121.5ZM119.102 36.8984C119.555 36.8984 119.984 36.7812 120.391 36.5469C120.797 36.3125 121.091 36.0078 121.273 35.6328V33.8984H120.141C118.37 33.8984 117.484 34.4167 117.484 35.4531C117.484 35.9062 117.635 36.2604 117.938 36.5156C118.24 36.7708 118.628 36.8984 119.102 36.8984ZM126.945 27.5V29.5469H128.523V30.6641H126.945V35.9062C126.945 36.2448 127.016 36.5 127.156 36.6719C127.297 36.8385 127.536 36.9219 127.875 36.9219C128.042 36.9219 128.271 36.8906 128.562 36.8281V38C128.182 38.1042 127.812 38.1562 127.453 38.1562C126.807 38.1562 126.32 37.9609 125.992 37.5703C125.664 37.1797 125.5 36.625 125.5 35.9062V30.6641H123.961V29.5469H125.5V27.5H126.945ZM135.438 38C135.354 37.8333 135.286 37.5365 135.234 37.1094C134.562 37.8073 133.76 38.1562 132.828 38.1562C131.995 38.1562 131.31 37.9219 130.773 37.4531C130.242 36.9792 129.977 36.3802 129.977 35.6562C129.977 34.776 130.31 34.0938 130.977 33.6094C131.648 33.1198 132.591 32.875 133.805 32.875H135.211V32.2109C135.211 31.7057 135.06 31.3047 134.758 31.0078C134.456 30.7057 134.01 30.5547 133.422 30.5547C132.906 30.5547 132.474 30.6849 132.125 30.9453C131.776 31.2057 131.602 31.5208 131.602 31.8906H130.148C130.148 31.4688 130.297 31.0625 130.594 30.6719C130.896 30.276 131.302 29.9635 131.812 29.7344C132.328 29.5052 132.893 29.3906 133.508 29.3906C134.482 29.3906 135.245 29.6354 135.797 30.125C136.349 30.6094 136.635 31.2786 136.656 32.1328V36.0234C136.656 36.7995 136.755 37.4167 136.953 37.875V38H135.438ZM133.039 36.8984C133.492 36.8984 133.922 36.7812 134.328 36.5469C134.734 36.3125 135.029 36.0078 135.211 35.6328V33.8984H134.078C132.307 33.8984 131.422 34.4167 131.422 35.4531C131.422 35.9062 131.573 36.2604 131.875 36.5156C132.177 36.7708 132.565 36.8984 133.039 36.8984ZM144.852 27.5V29.5469H146.43V30.6641H144.852V35.9062C144.852 36.2448 144.922 36.5 145.062 36.6719C145.203 36.8385 145.443 36.9219 145.781 36.9219C145.948 36.9219 146.177 36.8906 146.469 36.8281V38C146.089 38.1042 145.719 38.1562 145.359 38.1562C144.714 38.1562 144.227 37.9609 143.898 37.5703C143.57 37.1797 143.406 36.625 143.406 35.9062V30.6641H141.867V29.5469H143.406V27.5H144.852ZM147.586 33.6953C147.586 32.8672 147.747 32.1224 148.07 31.4609C148.398 30.7995 148.852 30.2891 149.43 29.9297C150.013 29.5703 150.677 29.3906 151.422 29.3906C152.573 29.3906 153.503 29.7891 154.211 30.5859C154.924 31.3828 155.281 32.4427 155.281 33.7656V33.8672C155.281 34.6901 155.122 35.4297 154.805 36.0859C154.492 36.737 154.042 37.2448 153.453 37.6094C152.87 37.974 152.198 38.1562 151.438 38.1562C150.292 38.1562 149.362 37.7578 148.648 36.9609C147.94 36.1641 147.586 35.1094 147.586 33.7969V33.6953ZM149.039 33.8672C149.039 34.8047 149.255 35.5573 149.688 36.125C150.125 36.6927 150.708 36.9766 151.438 36.9766C152.172 36.9766 152.755 36.6901 153.188 36.1172C153.62 35.5391 153.836 34.7318 153.836 33.6953C153.836 32.7682 153.615 32.0182 153.172 31.4453C152.734 30.8672 152.151 30.5781 151.422 30.5781C150.708 30.5781 150.133 30.862 149.695 31.4297C149.258 31.9974 149.039 32.8099 149.039 33.8672ZM169.656 34.3906C169.516 35.5938 169.07 36.5234 168.32 37.1797C167.576 37.8307 166.583 38.1562 165.344 38.1562C164 38.1562 162.922 37.6745 162.109 36.7109C161.302 35.7474 160.898 34.4583 160.898 32.8438V31.75C160.898 30.6927 161.086 29.763 161.461 28.9609C161.841 28.1589 162.378 27.5443 163.07 27.1172C163.763 26.6849 164.565 26.4688 165.477 26.4688C166.685 26.4688 167.654 26.8073 168.383 27.4844C169.112 28.1562 169.536 29.0885 169.656 30.2812H168.148C168.018 29.375 167.734 28.7188 167.297 28.3125C166.865 27.9062 166.258 27.7031 165.477 27.7031C164.518 27.7031 163.766 28.0573 163.219 28.7656C162.677 29.474 162.406 30.4818 162.406 31.7891V32.8906C162.406 34.125 162.664 35.1068 163.18 35.8359C163.695 36.5651 164.417 36.9297 165.344 36.9297C166.177 36.9297 166.815 36.7422 167.258 36.3672C167.706 35.987 168.003 35.3281 168.148 34.3906H169.656ZM175.062 32.9297C173.776 32.5599 172.839 32.1068 172.25 31.5703C171.667 31.0286 171.375 30.362 171.375 29.5703C171.375 28.6745 171.732 27.9349 172.445 27.3516C173.164 26.763 174.096 26.4688 175.242 26.4688C176.023 26.4688 176.719 26.6198 177.328 26.9219C177.943 27.224 178.417 27.6406 178.75 28.1719C179.089 28.7031 179.258 29.2839 179.258 29.9141H177.75C177.75 29.2266 177.531 28.6875 177.094 28.2969C176.656 27.901 176.039 27.7031 175.242 27.7031C174.503 27.7031 173.924 27.8672 173.508 28.1953C173.096 28.5182 172.891 28.9688 172.891 29.5469C172.891 30.0104 173.086 30.4036 173.477 30.7266C173.872 31.0443 174.542 31.3359 175.484 31.6016C176.432 31.8672 177.172 32.1615 177.703 32.4844C178.24 32.8021 178.635 33.1745 178.891 33.6016C179.151 34.0286 179.281 34.5312 179.281 35.1094C179.281 36.0312 178.922 36.7708 178.203 37.3281C177.484 37.8802 176.523 38.1562 175.32 38.1562C174.539 38.1562 173.81 38.0078 173.133 37.7109C172.456 37.4089 171.932 36.9974 171.562 36.4766C171.198 35.9557 171.016 35.3646 171.016 34.7031H172.523C172.523 35.3906 172.776 35.9349 173.281 36.3359C173.792 36.7318 174.471 36.9297 175.32 36.9297C176.112 36.9297 176.719 36.7682 177.141 36.4453C177.562 36.1224 177.773 35.6823 177.773 35.125C177.773 34.5677 177.578 34.138 177.188 33.8359C176.797 33.5286 176.089 33.2266 175.062 32.9297ZM184.977 36.0078L188.227 26.625H189.867L185.648 38H184.32L180.109 26.625H181.742L184.977 36.0078Z" fill="black"/>
<g opacity="0.54">
<path d="M22 22C20.9 22 20.01 22.9 20.01 24L20 40C20 41.1 20.89 42 21.99 42H34C35.1 42 36 41.1 36 40V28L30 22H22ZM29 29V23.5L34.5 29H29Z" fill="black"/>
</g>
<rect width="215" height="48" transform="translate(0 56)" fill="white"/>
<path opacity="0.83" d="M63.75 80.7422H58.8203V84.7734H64.5469V86H57.3203V74.625H64.4688V75.8594H58.8203V79.5156H63.75V80.7422ZM69.0234 80.6328L70.8984 77.5469H72.5859L69.8203 81.7266L72.6719 86H71L69.0469 82.8359L67.0938 86H65.4141L68.2656 81.7266L65.5 77.5469H67.1719L69.0234 80.6328ZM81.2656 81.8672C81.2656 83.1536 80.9714 84.1901 80.3828 84.9766C79.7943 85.763 78.9974 86.1562 77.9922 86.1562C76.9661 86.1562 76.1589 85.8307 75.5703 85.1797V89.25H74.125V77.5469H75.4453L75.5156 78.4844C76.1042 77.7552 76.9219 77.3906 77.9688 77.3906C78.9844 77.3906 79.7865 77.7734 80.375 78.5391C80.9688 79.3047 81.2656 80.3698 81.2656 81.7344V81.8672ZM79.8203 81.7031C79.8203 80.75 79.6172 79.9974 79.2109 79.4453C78.8047 78.8932 78.2474 78.6172 77.5391 78.6172C76.6641 78.6172 76.0078 79.0052 75.5703 79.7812V83.8203C76.0026 84.5911 76.6641 84.9766 77.5547 84.9766C78.2474 84.9766 78.7969 84.7031 79.2031 84.1562C79.6146 83.6042 79.8203 82.7865 79.8203 81.7031ZM82.7266 81.6953C82.7266 80.8672 82.888 80.1224 83.2109 79.4609C83.5391 78.7995 83.9922 78.2891 84.5703 77.9297C85.1536 77.5703 85.8177 77.3906 86.5625 77.3906C87.7135 77.3906 88.6432 77.7891 89.3516 78.5859C90.0651 79.3828 90.4219 80.4427 90.4219 81.7656V81.8672C90.4219 82.6901 90.263 83.4297 89.9453 84.0859C89.6328 84.737 89.1823 85.2448 88.5938 85.6094C88.0104 85.974 87.3385 86.1562 86.5781 86.1562C85.4323 86.1562 84.5026 85.7578 83.7891 84.9609C83.0807 84.1641 82.7266 83.1094 82.7266 81.7969V81.6953ZM84.1797 81.8672C84.1797 82.8047 84.3958 83.5573 84.8281 84.125C85.2656 84.6927 85.849 84.9766 86.5781 84.9766C87.3125 84.9766 87.8958 84.6901 88.3281 84.1172C88.7604 83.5391 88.9766 82.7318 88.9766 81.6953C88.9766 80.7682 88.7552 80.0182 88.3125 79.4453C87.875 78.8672 87.2917 78.5781 86.5625 78.5781C85.849 78.5781 85.2734 78.862 84.8359 79.4297C84.3984 79.9974 84.1797 80.8099 84.1797 81.8672ZM96.3203 78.8438C96.1016 78.8073 95.8646 78.7891 95.6094 78.7891C94.6615 78.7891 94.0182 79.1927 93.6797 80V86H92.2344V77.5469H93.6406L93.6641 78.5234C94.138 77.7682 94.8099 77.3906 95.6797 77.3906C95.9609 77.3906 96.1745 77.4271 96.3203 77.5V78.8438ZM100.008 75.5V77.5469H101.586V78.6641H100.008V83.9062C100.008 84.2448 100.078 84.5 100.219 84.6719C100.359 84.8385 100.599 84.9219 100.938 84.9219C101.104 84.9219 101.333 84.8906 101.625 84.8281V86C101.245 86.1042 100.875 86.1562 100.516 86.1562C99.8698 86.1562 99.3828 85.9609 99.0547 85.5703C98.7266 85.1797 98.5625 84.625 98.5625 83.9062V78.6641H97.0234V77.5469H98.5625V75.5H100.008ZM106.898 81.7031C106.898 80.4062 107.206 79.3646 107.82 78.5781C108.435 77.7865 109.24 77.3906 110.234 77.3906C111.224 77.3906 112.008 77.7292 112.586 78.4062V74H114.031V86H112.703L112.633 85.0938C112.055 85.8021 111.25 86.1562 110.219 86.1562C109.24 86.1562 108.44 85.7552 107.82 84.9531C107.206 84.151 106.898 83.1042 106.898 81.8125V81.7031ZM108.344 81.8672C108.344 82.8255 108.542 83.5755 108.938 84.1172C109.333 84.6589 109.88 84.9297 110.578 84.9297C111.495 84.9297 112.164 84.5182 112.586 83.6953V79.8125C112.154 79.0156 111.49 78.6172 110.594 78.6172C109.885 78.6172 109.333 78.8906 108.938 79.4375C108.542 79.9844 108.344 80.7943 108.344 81.8672ZM121.5 86C121.417 85.8333 121.349 85.5365 121.297 85.1094C120.625 85.8073 119.823 86.1562 118.891 86.1562C118.057 86.1562 117.372 85.9219 116.836 85.4531C116.305 84.9792 116.039 84.3802 116.039 83.6562C116.039 82.776 116.372 82.0938 117.039 81.6094C117.711 81.1198 118.654 80.875 119.867 80.875H121.273V80.2109C121.273 79.7057 121.122 79.3047 120.82 79.0078C120.518 78.7057 120.073 78.5547 119.484 78.5547C118.969 78.5547 118.536 78.6849 118.188 78.9453C117.839 79.2057 117.664 79.5208 117.664 79.8906H116.211C116.211 79.4688 116.359 79.0625 116.656 78.6719C116.958 78.276 117.365 77.9635 117.875 77.7344C118.391 77.5052 118.956 77.3906 119.57 77.3906C120.544 77.3906 121.307 77.6354 121.859 78.125C122.411 78.6094 122.698 79.2786 122.719 80.1328V84.0234C122.719 84.7995 122.818 85.4167 123.016 85.875V86H121.5ZM119.102 84.8984C119.555 84.8984 119.984 84.7812 120.391 84.5469C120.797 84.3125 121.091 84.0078 121.273 83.6328V81.8984H120.141C118.37 81.8984 117.484 82.4167 117.484 83.4531C117.484 83.9062 117.635 84.2604 117.938 84.5156C118.24 84.7708 118.628 84.8984 119.102 84.8984ZM126.945 75.5V77.5469H128.523V78.6641H126.945V83.9062C126.945 84.2448 127.016 84.5 127.156 84.6719C127.297 84.8385 127.536 84.9219 127.875 84.9219C128.042 84.9219 128.271 84.8906 128.562 84.8281V86C128.182 86.1042 127.812 86.1562 127.453 86.1562C126.807 86.1562 126.32 85.9609 125.992 85.5703C125.664 85.1797 125.5 84.625 125.5 83.9062V78.6641H123.961V77.5469H125.5V75.5H126.945ZM135.438 86C135.354 85.8333 135.286 85.5365 135.234 85.1094C134.562 85.8073 133.76 86.1562 132.828 86.1562C131.995 86.1562 131.31 85.9219 130.773 85.4531C130.242 84.9792 129.977 84.3802 129.977 83.6562C129.977 82.776 130.31 82.0938 130.977 81.6094C131.648 81.1198 132.591 80.875 133.805 80.875H135.211V80.2109C135.211 79.7057 135.06 79.3047 134.758 79.0078C134.456 78.7057 134.01 78.5547 133.422 78.5547C132.906 78.5547 132.474 78.6849 132.125 78.9453C131.776 79.2057 131.602 79.5208 131.602 79.8906H130.148C130.148 79.4688 130.297 79.0625 130.594 78.6719C130.896 78.276 131.302 77.9635 131.812 77.7344C132.328 77.5052 132.893 77.3906 133.508 77.3906C134.482 77.3906 135.245 77.6354 135.797 78.125C136.349 78.6094 136.635 79.2786 136.656 80.1328V84.0234C136.656 84.7995 136.755 85.4167 136.953 85.875V86H135.438ZM133.039 84.8984C133.492 84.8984 133.922 84.7812 134.328 84.5469C134.734 84.3125 135.029 84.0078 135.211 83.6328V81.8984H134.078C132.307 81.8984 131.422 82.4167 131.422 83.4531C131.422 83.9062 131.573 84.2604 131.875 84.5156C132.177 84.7708 132.565 84.8984 133.039 84.8984ZM144.852 75.5V77.5469H146.43V78.6641H144.852V83.9062C144.852 84.2448 144.922 84.5 145.062 84.6719C145.203 84.8385 145.443 84.9219 145.781 84.9219C145.948 84.9219 146.177 84.8906 146.469 84.8281V86C146.089 86.1042 145.719 86.1562 145.359 86.1562C144.714 86.1562 144.227 85.9609 143.898 85.5703C143.57 85.1797 143.406 84.625 143.406 83.9062V78.6641H141.867V77.5469H143.406V75.5H144.852ZM147.586 81.6953C147.586 80.8672 147.747 80.1224 148.07 79.4609C148.398 78.7995 148.852 78.2891 149.43 77.9297C150.013 77.5703 150.677 77.3906 151.422 77.3906C152.573 77.3906 153.503 77.7891 154.211 78.5859C154.924 79.3828 155.281 80.4427 155.281 81.7656V81.8672C155.281 82.6901 155.122 83.4297 154.805 84.0859C154.492 84.737 154.042 85.2448 153.453 85.6094C152.87 85.974 152.198 86.1562 151.438 86.1562C150.292 86.1562 149.362 85.7578 148.648 84.9609C147.94 84.1641 147.586 83.1094 147.586 81.7969V81.6953ZM149.039 81.8672C149.039 82.8047 149.255 83.5573 149.688 84.125C150.125 84.6927 150.708 84.9766 151.438 84.9766C152.172 84.9766 152.755 84.6901 153.188 84.1172C153.62 83.5391 153.836 82.7318 153.836 81.6953C153.836 80.7682 153.615 80.0182 153.172 79.4453C152.734 78.8672 152.151 78.5781 151.422 78.5781C150.708 78.5781 150.133 78.862 149.695 79.4297C149.258 79.9974 149.039 80.8099 149.039 81.8672ZM165 78.9844L167.727 74.625H169.492L165.898 80.2656L169.578 86H167.797L165 81.5625L162.188 86H160.414L164.102 80.2656L160.5 74.625H162.258L165 78.9844ZM172.828 84.7734H178.219V86H171.32V74.625H172.828V84.7734ZM183.281 80.9297C181.995 80.5599 181.057 80.1068 180.469 79.5703C179.885 79.0286 179.594 78.362 179.594 77.5703C179.594 76.6745 179.951 75.9349 180.664 75.3516C181.383 74.763 182.315 74.4688 183.461 74.4688C184.242 74.4688 184.938 74.6198 185.547 74.9219C186.161 75.224 186.635 75.6406 186.969 76.1719C187.307 76.7031 187.477 77.2839 187.477 77.9141H185.969C185.969 77.2266 185.75 76.6875 185.312 76.2969C184.875 75.901 184.258 75.7031 183.461 75.7031C182.721 75.7031 182.143 75.8672 181.727 76.1953C181.315 76.5182 181.109 76.9688 181.109 77.5469C181.109 78.0104 181.305 78.4036 181.695 78.7266C182.091 79.0443 182.76 79.3359 183.703 79.6016C184.651 79.8672 185.391 80.1615 185.922 80.4844C186.458 80.8021 186.854 81.1745 187.109 81.6016C187.37 82.0286 187.5 82.5312 187.5 83.1094C187.5 84.0312 187.141 84.7708 186.422 85.3281C185.703 85.8802 184.742 86.1562 183.539 86.1562C182.758 86.1562 182.029 86.0078 181.352 85.7109C180.674 85.4089 180.151 84.9974 179.781 84.4766C179.417 83.9557 179.234 83.3646 179.234 82.7031H180.742C180.742 83.3906 180.995 83.9349 181.5 84.3359C182.01 84.7318 182.69 84.9297 183.539 84.9297C184.331 84.9297 184.938 84.7682 185.359 84.4453C185.781 84.1224 185.992 83.6823 185.992 83.125C185.992 82.5677 185.797 82.138 185.406 81.8359C185.016 81.5286 184.307 81.2266 183.281 80.9297Z" fill="black"/>
<g opacity="0.54">
<path d="M22 70C20.9 70 20.01 70.9 20.01 72L20 88C20 89.1 20.89 90 21.99 90H34C35.1 90 36 89.1 36 88V76L30 70H22ZM29 77V71.5L34.5 77H29Z" fill="black"/>
</g>
<rect width="215" height="48" transform="translate(0 104)" fill="white"/>
<path opacity="0.83" d="M63.75 128.742H58.8203V132.773H64.5469V134H57.3203V122.625H64.4688V123.859H58.8203V127.516H63.75V128.742ZM69.0234 128.633L70.8984 125.547H72.5859L69.8203 129.727L72.6719 134H71L69.0469 130.836L67.0938 134H65.4141L68.2656 129.727L65.5 125.547H67.1719L69.0234 128.633ZM81.2656 129.867C81.2656 131.154 80.9714 132.19 80.3828 132.977C79.7943 133.763 78.9974 134.156 77.9922 134.156C76.9661 134.156 76.1589 133.831 75.5703 133.18V137.25H74.125V125.547H75.4453L75.5156 126.484C76.1042 125.755 76.9219 125.391 77.9688 125.391C78.9844 125.391 79.7865 125.773 80.375 126.539C80.9688 127.305 81.2656 128.37 81.2656 129.734V129.867ZM79.8203 129.703C79.8203 128.75 79.6172 127.997 79.2109 127.445C78.8047 126.893 78.2474 126.617 77.5391 126.617C76.6641 126.617 76.0078 127.005 75.5703 127.781V131.82C76.0026 132.591 76.6641 132.977 77.5547 132.977C78.2474 132.977 78.7969 132.703 79.2031 132.156C79.6146 131.604 79.8203 130.786 79.8203 129.703ZM82.7266 129.695C82.7266 128.867 82.888 128.122 83.2109 127.461C83.5391 126.799 83.9922 126.289 84.5703 125.93C85.1536 125.57 85.8177 125.391 86.5625 125.391C87.7135 125.391 88.6432 125.789 89.3516 126.586C90.0651 127.383 90.4219 128.443 90.4219 129.766V129.867C90.4219 130.69 90.263 131.43 89.9453 132.086C89.6328 132.737 89.1823 133.245 88.5938 133.609C88.0104 133.974 87.3385 134.156 86.5781 134.156C85.4323 134.156 84.5026 133.758 83.7891 132.961C83.0807 132.164 82.7266 131.109 82.7266 129.797V129.695ZM84.1797 129.867C84.1797 130.805 84.3958 131.557 84.8281 132.125C85.2656 132.693 85.849 132.977 86.5781 132.977C87.3125 132.977 87.8958 132.69 88.3281 132.117C88.7604 131.539 88.9766 130.732 88.9766 129.695C88.9766 128.768 88.7552 128.018 88.3125 127.445C87.875 126.867 87.2917 126.578 86.5625 126.578C85.849 126.578 85.2734 126.862 84.8359 127.43C84.3984 127.997 84.1797 128.81 84.1797 129.867ZM96.3203 126.844C96.1016 126.807 95.8646 126.789 95.6094 126.789C94.6615 126.789 94.0182 127.193 93.6797 128V134H92.2344V125.547H93.6406L93.6641 126.523C94.138 125.768 94.8099 125.391 95.6797 125.391C95.9609 125.391 96.1745 125.427 96.3203 125.5V126.844ZM100.008 123.5V125.547H101.586V126.664H100.008V131.906C100.008 132.245 100.078 132.5 100.219 132.672C100.359 132.839 100.599 132.922 100.938 132.922C101.104 132.922 101.333 132.891 101.625 132.828V134C101.245 134.104 100.875 134.156 100.516 134.156C99.8698 134.156 99.3828 133.961 99.0547 133.57C98.7266 133.18 98.5625 132.625 98.5625 131.906V126.664H97.0234V125.547H98.5625V123.5H100.008ZM106.898 129.703C106.898 128.406 107.206 127.365 107.82 126.578C108.435 125.786 109.24 125.391 110.234 125.391C111.224 125.391 112.008 125.729 112.586 126.406V122H114.031V134H112.703L112.633 133.094C112.055 133.802 111.25 134.156 110.219 134.156C109.24 134.156 108.44 133.755 107.82 132.953C107.206 132.151 106.898 131.104 106.898 129.812V129.703ZM108.344 129.867C108.344 130.826 108.542 131.576 108.938 132.117C109.333 132.659 109.88 132.93 110.578 132.93C111.495 132.93 112.164 132.518 112.586 131.695V127.812C112.154 127.016 111.49 126.617 110.594 126.617C109.885 126.617 109.333 126.891 108.938 127.438C108.542 127.984 108.344 128.794 108.344 129.867ZM121.5 134C121.417 133.833 121.349 133.536 121.297 133.109C120.625 133.807 119.823 134.156 118.891 134.156C118.057 134.156 117.372 133.922 116.836 133.453C116.305 132.979 116.039 132.38 116.039 131.656C116.039 130.776 116.372 130.094 117.039 129.609C117.711 129.12 118.654 128.875 119.867 128.875H121.273V128.211C121.273 127.706 121.122 127.305 120.82 127.008C120.518 126.706 120.073 126.555 119.484 126.555C118.969 126.555 118.536 126.685 118.188 126.945C117.839 127.206 117.664 127.521 117.664 127.891H116.211C116.211 127.469 116.359 127.062 116.656 126.672C116.958 126.276 117.365 125.964 117.875 125.734C118.391 125.505 118.956 125.391 119.57 125.391C120.544 125.391 121.307 125.635 121.859 126.125C122.411 126.609 122.698 127.279 122.719 128.133V132.023C122.719 132.799 122.818 133.417 123.016 133.875V134H121.5ZM119.102 132.898C119.555 132.898 119.984 132.781 120.391 132.547C120.797 132.312 121.091 132.008 121.273 131.633V129.898H120.141C118.37 129.898 117.484 130.417 117.484 131.453C117.484 131.906 117.635 132.26 117.938 132.516C118.24 132.771 118.628 132.898 119.102 132.898ZM126.945 123.5V125.547H128.523V126.664H126.945V131.906C126.945 132.245 127.016 132.5 127.156 132.672C127.297 132.839 127.536 132.922 127.875 132.922C128.042 132.922 128.271 132.891 128.562 132.828V134C128.182 134.104 127.812 134.156 127.453 134.156C126.807 134.156 126.32 133.961 125.992 133.57C125.664 133.18 125.5 132.625 125.5 131.906V126.664H123.961V125.547H125.5V123.5H126.945ZM135.438 134C135.354 133.833 135.286 133.536 135.234 133.109C134.562 133.807 133.76 134.156 132.828 134.156C131.995 134.156 131.31 133.922 130.773 133.453C130.242 132.979 129.977 132.38 129.977 131.656C129.977 130.776 130.31 130.094 130.977 129.609C131.648 129.12 132.591 128.875 133.805 128.875H135.211V128.211C135.211 127.706 135.06 127.305 134.758 127.008C134.456 126.706 134.01 126.555 133.422 126.555C132.906 126.555 132.474 126.685 132.125 126.945C131.776 127.206 131.602 127.521 131.602 127.891H130.148C130.148 127.469 130.297 127.062 130.594 126.672C130.896 126.276 131.302 125.964 131.812 125.734C132.328 125.505 132.893 125.391 133.508 125.391C134.482 125.391 135.245 125.635 135.797 126.125C136.349 126.609 136.635 127.279 136.656 128.133V132.023C136.656 132.799 136.755 133.417 136.953 133.875V134H135.438ZM133.039 132.898C133.492 132.898 133.922 132.781 134.328 132.547C134.734 132.312 135.029 132.008 135.211 131.633V129.898H134.078C132.307 129.898 131.422 130.417 131.422 131.453C131.422 131.906 131.573 132.26 131.875 132.516C132.177 132.771 132.565 132.898 133.039 132.898ZM144.852 123.5V125.547H146.43V126.664H144.852V131.906C144.852 132.245 144.922 132.5 145.062 132.672C145.203 132.839 145.443 132.922 145.781 132.922C145.948 132.922 146.177 132.891 146.469 132.828V134C146.089 134.104 145.719 134.156 145.359 134.156C144.714 134.156 144.227 133.961 143.898 133.57C143.57 133.18 143.406 132.625 143.406 131.906V126.664H141.867V125.547H143.406V123.5H144.852ZM147.586 129.695C147.586 128.867 147.747 128.122 148.07 127.461C148.398 126.799 148.852 126.289 149.43 125.93C150.013 125.57 150.677 125.391 151.422 125.391C152.573 125.391 153.503 125.789 154.211 126.586C154.924 127.383 155.281 128.443 155.281 129.766V129.867C155.281 130.69 155.122 131.43 154.805 132.086C154.492 132.737 154.042 133.245 153.453 133.609C152.87 133.974 152.198 134.156 151.438 134.156C150.292 134.156 149.362 133.758 148.648 132.961C147.94 132.164 147.586 131.109 147.586 129.797V129.695ZM149.039 129.867C149.039 130.805 149.255 131.557 149.688 132.125C150.125 132.693 150.708 132.977 151.438 132.977C152.172 132.977 152.755 132.69 153.188 132.117C153.62 131.539 153.836 130.732 153.836 129.695C153.836 128.768 153.615 128.018 153.172 127.445C152.734 126.867 152.151 126.578 151.422 126.578C150.708 126.578 150.133 126.862 149.695 127.43C149.258 127.997 149.039 128.81 149.039 129.867ZM165 126.984L167.727 122.625H169.492L165.898 128.266L169.578 134H167.797L165 129.562L162.188 134H160.414L164.102 128.266L160.5 122.625H162.258L165 126.984ZM172.828 132.773H178.219V134H171.32V122.625H172.828V132.773ZM183.281 128.93C181.995 128.56 181.057 128.107 180.469 127.57C179.885 127.029 179.594 126.362 179.594 125.57C179.594 124.674 179.951 123.935 180.664 123.352C181.383 122.763 182.315 122.469 183.461 122.469C184.242 122.469 184.938 122.62 185.547 122.922C186.161 123.224 186.635 123.641 186.969 124.172C187.307 124.703 187.477 125.284 187.477 125.914H185.969C185.969 125.227 185.75 124.688 185.312 124.297C184.875 123.901 184.258 123.703 183.461 123.703C182.721 123.703 182.143 123.867 181.727 124.195C181.315 124.518 181.109 124.969 181.109 125.547C181.109 126.01 181.305 126.404 181.695 126.727C182.091 127.044 182.76 127.336 183.703 127.602C184.651 127.867 185.391 128.161 185.922 128.484C186.458 128.802 186.854 129.174 187.109 129.602C187.37 130.029 187.5 130.531 187.5 131.109C187.5 132.031 187.141 132.771 186.422 133.328C185.703 133.88 184.742 134.156 183.539 134.156C182.758 134.156 182.029 134.008 181.352 133.711C180.674 133.409 180.151 132.997 179.781 132.477C179.417 131.956 179.234 131.365 179.234 130.703H180.742C180.742 131.391 180.995 131.935 181.5 132.336C182.01 132.732 182.69 132.93 183.539 132.93C184.331 132.93 184.938 132.768 185.359 132.445C185.781 132.122 185.992 131.682 185.992 131.125C185.992 130.568 185.797 130.138 185.406 129.836C185.016 129.529 184.307 129.227 183.281 128.93ZM193.141 126.984L195.867 122.625H197.633L194.039 128.266L197.719 134H195.938L193.141 129.562L190.328 134H188.555L192.242 128.266L188.641 122.625H190.398L193.141 126.984Z" fill="black"/>
<g opacity="0.54">
<path d="M22 118C20.9 118 20.01 118.9 20.01 120L20 136C20 137.1 20.89 138 21.99 138H34C35.1 138 36 137.1 36 136V124L30 118H22ZM29 125V119.5L34.5 125H29Z" fill="black"/>
</g>
</svg>
