<svg width="500" height="238" viewBox="0 0 500 238" fill="none" xmlns="http://www.w3.org/2000/svg">
<rect x="194" width="91" height="37" rx="6" fill="#27AE60"/>
<path fill-rule="evenodd" clip-rule="evenodd" d="M220.001 16C220.001 18.2091 218.21 20 216.001 20C215.692 20 215.391 19.965 215.102 19.8987L209.587 25.4142C209.212 25.7893 208.703 26 208.172 26H207.208C206.763 26 206.539 25.4614 206.854 25.1464L208.001 24V23C208.001 22.4477 208.449 22 209.001 22H210.001V20C210.001 19.4477 210.449 19 211.001 19H212.001L212.717 18.2841C212.266 17.6365 212.001 16.8492 212.001 16C212.001 13.7909 213.792 12 216.001 12C218.21 12 220.001 13.7909 220.001 16ZM218.001 15C218.001 15.5523 217.553 16 217.001 16C216.449 16 216.001 15.5523 216.001 15C216.001 14.4477 216.449 14 217.001 14C217.553 14 218.001 14.4477 218.001 15Z" fill="white"/>
<path d="M233.09 23H231.689V15.6348H229.17V14.4336H235.609V15.6348H233.09V23ZM239.611 23.1172C238.604 23.1172 237.814 22.8242 237.244 22.2383C236.678 21.6484 236.395 20.8379 236.395 19.8066C236.395 18.748 236.658 17.916 237.186 17.3105C237.713 16.7051 238.438 16.4023 239.359 16.4023C240.215 16.4023 240.891 16.6621 241.387 17.1816C241.883 17.7012 242.131 18.416 242.131 19.3262V20.0703H237.812C237.832 20.6992 238.002 21.1836 238.322 21.5234C238.643 21.8594 239.094 22.0273 239.676 22.0273C240.059 22.0273 240.414 21.9922 240.742 21.9219C241.074 21.8477 241.43 21.7266 241.809 21.5586V22.6777C241.473 22.8379 241.133 22.9512 240.789 23.0176C240.445 23.084 240.053 23.1172 239.611 23.1172ZM239.359 17.4453C238.922 17.4453 238.57 17.584 238.305 17.8613C238.043 18.1387 237.887 18.543 237.836 19.0742H240.777C240.77 18.5391 240.641 18.1348 240.391 17.8613C240.141 17.584 239.797 17.4453 239.359 17.4453ZM249.396 23H248.014V19.0156C248.014 18.5156 247.912 18.1426 247.709 17.8965C247.51 17.6504 247.191 17.5273 246.754 17.5273C246.172 17.5273 245.746 17.6992 245.477 18.043C245.207 18.3867 245.072 18.9629 245.072 19.7715V23H243.695V16.5195H244.773L244.967 17.3691H245.037C245.232 17.0605 245.51 16.8223 245.869 16.6543C246.229 16.4863 246.627 16.4023 247.064 16.4023C248.619 16.4023 249.396 17.1934 249.396 18.7754V23ZM255.367 23L255.092 22.0977H255.045C254.732 22.4922 254.418 22.7617 254.102 22.9062C253.785 23.0469 253.379 23.1172 252.883 23.1172C252.246 23.1172 251.748 22.9453 251.389 22.6016C251.033 22.2578 250.855 21.7715 250.855 21.1426C250.855 20.4746 251.104 19.9707 251.6 19.6309C252.096 19.291 252.852 19.1055 253.867 19.0742L254.986 19.0391V18.6934C254.986 18.2793 254.889 17.9707 254.693 17.7676C254.502 17.5605 254.203 17.457 253.797 17.457C253.465 17.457 253.146 17.5059 252.842 17.6035C252.537 17.7012 252.244 17.8164 251.963 17.9492L251.518 16.9648C251.869 16.7812 252.254 16.6426 252.672 16.5488C253.09 16.4512 253.484 16.4023 253.855 16.4023C254.68 16.4023 255.301 16.582 255.719 16.9414C256.141 17.3008 256.352 17.8652 256.352 18.6348V23H255.367ZM253.316 22.0625C253.816 22.0625 254.217 21.9238 254.518 21.6465C254.822 21.3652 254.975 20.9727 254.975 20.4688V19.9062L254.143 19.9414C253.494 19.9648 253.021 20.0742 252.725 20.2695C252.432 20.4609 252.285 20.7559 252.285 21.1543C252.285 21.4434 252.371 21.668 252.543 21.8281C252.715 21.9844 252.973 22.0625 253.316 22.0625ZM263.975 23H262.592V19.0156C262.592 18.5156 262.49 18.1426 262.287 17.8965C262.088 17.6504 261.77 17.5273 261.332 17.5273C260.75 17.5273 260.324 17.6992 260.055 18.043C259.785 18.3867 259.65 18.9629 259.65 19.7715V23H258.273V16.5195H259.352L259.545 17.3691H259.615C259.811 17.0605 260.088 16.8223 260.447 16.6543C260.807 16.4863 261.205 16.4023 261.643 16.4023C263.197 16.4023 263.975 17.1934 263.975 18.7754V23ZM268.305 22.0039C268.641 22.0039 268.977 21.9512 269.312 21.8457V22.8828C269.16 22.9492 268.963 23.0039 268.721 23.0469C268.482 23.0938 268.234 23.1172 267.977 23.1172C266.672 23.1172 266.02 22.4297 266.02 21.0547V17.5625H265.135V16.9531L266.084 16.4492L266.553 15.0781H267.402V16.5195H269.248V17.5625H267.402V21.0312C267.402 21.3633 267.484 21.6094 267.648 21.7695C267.816 21.9258 268.035 22.0039 268.305 22.0039Z" fill="white"/>
<rect x="174" y="187" width="143" height="37" rx="6" fill="#EDFFF5"/>
<rect x="174.5" y="187.5" width="142" height="36" rx="5.5" stroke="#1F8B4D" stroke-opacity="0.4"/>
<rect x="171" y="190" width="143" height="37" rx="6" fill="#EDFFF5"/>
<rect x="171.5" y="190.5" width="142" height="36" rx="5.5" stroke="#1F8B4D" stroke-opacity="0.4"/>
<rect x="168" y="193" width="143" height="37" rx="6" fill="#EDFFF5"/>
<circle cx="184" cy="208.5" r="2.5" fill="#27AE60"/>
<path fill-rule="evenodd" clip-rule="evenodd" d="M182.382 212.341C180.979 212.962 180 214.367 180 216V216.074C180 216.585 180.415 217 180.926 217H187.074C187.585 217 188 216.585 188 216.074V216C188 214.367 187.021 212.962 185.618 212.341C185.121 212.551 184.574 212.667 184 212.667C183.426 212.667 182.879 212.551 182.382 212.341Z" fill="#27AE60"/>
<circle cx="190" cy="208.5" r="2" stroke="#27AE60"/>
<mask id="path-14-inside-1" fill="white">
<path fill-rule="evenodd" clip-rule="evenodd" d="M188.382 212.341C186.979 212.962 186 214.367 186 216V216.074C186 216.585 186.415 217 186.926 217H193.074C193.585 217 194 216.585 194 216.074V216C194 214.367 193.021 212.962 191.618 212.341C191.121 212.551 190.574 212.667 190 212.667C189.426 212.667 188.879 212.551 188.382 212.341Z"/>
</mask>
<path d="M188.382 212.341L188.771 211.419L188.372 211.251L187.977 211.426L188.382 212.341ZM191.618 212.341L192.023 211.426L191.628 211.251L191.23 211.419L191.618 212.341ZM187 216C187 214.777 187.732 213.722 188.787 213.255L187.977 211.426C186.225 212.202 185 213.957 185 216H187ZM187 216.074V216H185V216.074H187ZM186.926 216C186.967 216 187 216.033 187 216.074H185C185 217.138 185.862 218 186.926 218V216ZM193.074 216H186.926V218H193.074V216ZM193 216.074C193 216.033 193.033 216 193.074 216V218C194.138 218 195 217.138 195 216.074H193ZM193 216V216.074H195V216H193ZM191.213 213.255C192.268 213.722 193 214.777 193 216H195C195 213.957 193.775 212.202 192.023 211.426L191.213 213.255ZM191.23 211.419C190.853 211.578 190.438 211.667 190 211.667V213.667C190.71 213.667 191.389 213.523 192.007 213.262L191.23 211.419ZM190 211.667C189.562 211.667 189.147 211.578 188.771 211.419L187.993 213.262C188.611 213.523 189.29 213.667 190 213.667V211.667Z" fill="#27AE60" mask="url(#path-14-inside-1)"/>
<path d="M207.846 208.201C206.904 208.201 206.16 208.516 205.613 209.145C205.07 209.77 204.799 210.627 204.799 211.717C204.799 212.838 205.061 213.705 205.584 214.318C206.111 214.928 206.861 215.232 207.834 215.232C208.432 215.232 209.113 215.125 209.879 214.91V215.783C209.285 216.006 208.553 216.117 207.682 216.117C206.42 216.117 205.445 215.734 204.758 214.969C204.074 214.203 203.732 213.115 203.732 211.705C203.732 210.822 203.896 210.049 204.225 209.385C204.557 208.721 205.033 208.209 205.654 207.85C206.279 207.49 207.014 207.311 207.857 207.311C208.756 207.311 209.541 207.475 210.213 207.803L209.791 208.658C209.143 208.354 208.494 208.201 207.846 208.201ZM212.516 209.578V213.744C212.516 214.268 212.635 214.658 212.873 214.916C213.111 215.174 213.484 215.303 213.992 215.303C214.664 215.303 215.154 215.119 215.463 214.752C215.775 214.385 215.932 213.785 215.932 212.953V209.578H216.904V216H216.102L215.961 215.139H215.908C215.709 215.455 215.432 215.697 215.076 215.865C214.725 216.033 214.322 216.117 213.869 216.117C213.088 216.117 212.502 215.932 212.111 215.561C211.725 215.189 211.531 214.596 211.531 213.779V209.578H212.516ZM223.115 214.248C223.115 214.846 222.893 215.307 222.447 215.631C222.002 215.955 221.377 216.117 220.572 216.117C219.721 216.117 219.057 215.982 218.58 215.713V214.811C218.889 214.967 219.219 215.09 219.57 215.18C219.926 215.27 220.268 215.314 220.596 215.314C221.104 215.314 221.494 215.234 221.768 215.074C222.041 214.91 222.178 214.662 222.178 214.33C222.178 214.08 222.068 213.867 221.85 213.691C221.635 213.512 221.213 213.301 220.584 213.059C219.986 212.836 219.561 212.643 219.307 212.479C219.057 212.311 218.869 212.121 218.744 211.91C218.623 211.699 218.562 211.447 218.562 211.154C218.562 210.631 218.775 210.219 219.201 209.918C219.627 209.613 220.211 209.461 220.953 209.461C221.645 209.461 222.32 209.602 222.98 209.883L222.635 210.674C221.99 210.408 221.406 210.275 220.883 210.275C220.422 210.275 220.074 210.348 219.84 210.492C219.605 210.637 219.488 210.836 219.488 211.09C219.488 211.262 219.531 211.408 219.617 211.529C219.707 211.65 219.85 211.766 220.045 211.875C220.24 211.984 220.615 212.143 221.17 212.35C221.932 212.627 222.445 212.906 222.711 213.188C222.98 213.469 223.115 213.822 223.115 214.248ZM226.777 215.314C226.949 215.314 227.115 215.303 227.275 215.279C227.436 215.252 227.562 215.225 227.656 215.197V215.941C227.551 215.992 227.395 216.033 227.188 216.064C226.984 216.1 226.801 216.117 226.637 216.117C225.395 216.117 224.773 215.463 224.773 214.154V210.334H223.854V209.865L224.773 209.461L225.184 208.09H225.746V209.578H227.609V210.334H225.746V214.113C225.746 214.5 225.838 214.797 226.021 215.004C226.205 215.211 226.457 215.314 226.777 215.314ZM234.488 212.783C234.488 213.83 234.225 214.648 233.697 215.238C233.17 215.824 232.441 216.117 231.512 216.117C230.938 216.117 230.428 215.982 229.982 215.713C229.537 215.443 229.193 215.057 228.951 214.553C228.709 214.049 228.588 213.459 228.588 212.783C228.588 211.736 228.85 210.922 229.373 210.34C229.896 209.754 230.623 209.461 231.553 209.461C232.451 209.461 233.164 209.76 233.691 210.357C234.223 210.955 234.488 211.764 234.488 212.783ZM229.596 212.783C229.596 213.604 229.76 214.229 230.088 214.658C230.416 215.088 230.898 215.303 231.535 215.303C232.172 215.303 232.654 215.09 232.982 214.664C233.314 214.234 233.48 213.607 233.48 212.783C233.48 211.967 233.314 211.348 232.982 210.926C232.654 210.5 232.168 210.287 231.523 210.287C230.887 210.287 230.406 210.496 230.082 210.914C229.758 211.332 229.596 211.955 229.596 212.783ZM244.385 216V211.822C244.385 211.311 244.275 210.928 244.057 210.674C243.838 210.416 243.498 210.287 243.037 210.287C242.432 210.287 241.984 210.461 241.695 210.809C241.406 211.156 241.262 211.691 241.262 212.414V216H240.289V211.822C240.289 211.311 240.18 210.928 239.961 210.674C239.742 210.416 239.4 210.287 238.936 210.287C238.326 210.287 237.879 210.471 237.594 210.838C237.312 211.201 237.172 211.799 237.172 212.631V216H236.199V209.578H236.99L237.148 210.457H237.195C237.379 210.145 237.637 209.9 237.969 209.725C238.305 209.549 238.68 209.461 239.094 209.461C240.098 209.461 240.754 209.824 241.062 210.551H241.109C241.301 210.215 241.578 209.949 241.941 209.754C242.305 209.559 242.719 209.461 243.184 209.461C243.91 209.461 244.453 209.648 244.812 210.023C245.176 210.395 245.357 210.99 245.357 211.811V216H244.385ZM250.08 216.117C249.131 216.117 248.381 215.828 247.83 215.25C247.283 214.672 247.01 213.869 247.01 212.842C247.01 211.807 247.264 210.984 247.771 210.375C248.283 209.766 248.969 209.461 249.828 209.461C250.633 209.461 251.27 209.727 251.738 210.258C252.207 210.785 252.441 211.482 252.441 212.35V212.965H248.018C248.037 213.719 248.227 214.291 248.586 214.682C248.949 215.072 249.459 215.268 250.115 215.268C250.807 215.268 251.49 215.123 252.166 214.834V215.701C251.822 215.85 251.496 215.955 251.188 216.018C250.883 216.084 250.514 216.117 250.08 216.117ZM249.816 210.275C249.301 210.275 248.889 210.443 248.58 210.779C248.275 211.115 248.096 211.58 248.041 212.174H251.398C251.398 211.561 251.262 211.092 250.988 210.768C250.715 210.439 250.324 210.275 249.816 210.275ZM257.035 209.461C257.32 209.461 257.576 209.484 257.803 209.531L257.668 210.434C257.402 210.375 257.168 210.346 256.965 210.346C256.445 210.346 256 210.557 255.629 210.979C255.262 211.4 255.078 211.926 255.078 212.555V216H254.105V209.578H254.908L255.02 210.768H255.066C255.305 210.35 255.592 210.027 255.928 209.801C256.264 209.574 256.633 209.461 257.035 209.461ZM266.035 211.512H268.947V215.678C268.494 215.822 268.033 215.932 267.564 216.006C267.096 216.08 266.553 216.117 265.936 216.117C264.639 216.117 263.629 215.732 262.906 214.963C262.184 214.189 261.822 213.107 261.822 211.717C261.822 210.826 262 210.047 262.355 209.379C262.715 208.707 263.23 208.195 263.902 207.844C264.574 207.488 265.361 207.311 266.264 207.311C267.178 207.311 268.029 207.479 268.818 207.814L268.432 208.693C267.658 208.365 266.914 208.201 266.199 208.201C265.156 208.201 264.342 208.512 263.756 209.133C263.17 209.754 262.877 210.615 262.877 211.717C262.877 212.873 263.158 213.75 263.721 214.348C264.287 214.945 265.117 215.244 266.211 215.244C266.805 215.244 267.385 215.176 267.951 215.039V212.402H266.035V211.512ZM273.793 209.461C274.078 209.461 274.334 209.484 274.561 209.531L274.426 210.434C274.16 210.375 273.926 210.346 273.723 210.346C273.203 210.346 272.758 210.557 272.387 210.979C272.02 211.4 271.836 211.926 271.836 212.555V216H270.863V209.578H271.666L271.777 210.768H271.824C272.062 210.35 272.35 210.027 272.686 209.801C273.021 209.574 273.391 209.461 273.793 209.461ZM281.305 212.783C281.305 213.83 281.041 214.648 280.514 215.238C279.986 215.824 279.258 216.117 278.328 216.117C277.754 216.117 277.244 215.982 276.799 215.713C276.354 215.443 276.01 215.057 275.768 214.553C275.525 214.049 275.404 213.459 275.404 212.783C275.404 211.736 275.666 210.922 276.189 210.34C276.713 209.754 277.439 209.461 278.369 209.461C279.268 209.461 279.98 209.76 280.508 210.357C281.039 210.955 281.305 211.764 281.305 212.783ZM276.412 212.783C276.412 213.604 276.576 214.229 276.904 214.658C277.232 215.088 277.715 215.303 278.352 215.303C278.988 215.303 279.471 215.09 279.799 214.664C280.131 214.234 280.297 213.607 280.297 212.783C280.297 211.967 280.131 211.348 279.799 210.926C279.471 210.5 278.984 210.287 278.34 210.287C277.703 210.287 277.223 210.496 276.898 210.914C276.574 211.332 276.412 211.955 276.412 212.783ZM283.93 209.578V213.744C283.93 214.268 284.049 214.658 284.287 214.916C284.525 215.174 284.898 215.303 285.406 215.303C286.078 215.303 286.568 215.119 286.877 214.752C287.189 214.385 287.346 213.785 287.346 212.953V209.578H288.318V216H287.516L287.375 215.139H287.322C287.123 215.455 286.846 215.697 286.49 215.865C286.139 216.033 285.736 216.117 285.283 216.117C284.502 216.117 283.916 215.932 283.525 215.561C283.139 215.189 282.945 214.596 282.945 213.779V209.578H283.93ZM293.375 216.117C292.957 216.117 292.574 216.041 292.227 215.889C291.883 215.732 291.594 215.494 291.359 215.174H291.289C291.336 215.549 291.359 215.904 291.359 216.24V218.883H290.387V209.578H291.178L291.312 210.457H291.359C291.609 210.105 291.9 209.852 292.232 209.695C292.564 209.539 292.945 209.461 293.375 209.461C294.227 209.461 294.883 209.752 295.344 210.334C295.809 210.916 296.041 211.732 296.041 212.783C296.041 213.838 295.805 214.658 295.332 215.244C294.863 215.826 294.211 216.117 293.375 216.117ZM293.234 210.287C292.578 210.287 292.104 210.469 291.811 210.832C291.518 211.195 291.367 211.773 291.359 212.566V212.783C291.359 213.686 291.51 214.332 291.811 214.723C292.111 215.109 292.594 215.303 293.258 215.303C293.812 215.303 294.246 215.078 294.559 214.629C294.875 214.18 295.033 213.561 295.033 212.771C295.033 211.971 294.875 211.357 294.559 210.932C294.246 210.502 293.805 210.287 293.234 210.287Z" fill="#28232D"/>
<rect x="168.5" y="193.5" width="142" height="36" rx="5.5" stroke="#1F8B4D" stroke-opacity="0.4"/>
<rect x="41" y="187" width="115" height="37" rx="6" fill="#EDFFF5"/>
<rect x="41.5" y="187.5" width="114" height="36" rx="5.5" stroke="#1F8B4D" stroke-opacity="0.4"/>
<rect x="38" y="190" width="115" height="37" rx="6" fill="#EDFFF5"/>
<rect x="38.5" y="190.5" width="114" height="36" rx="5.5" stroke="#1F8B4D" stroke-opacity="0.4"/>
<rect x="35" y="193" width="115" height="37" rx="6" fill="#EDFFF5"/>
<circle cx="51" cy="208.5" r="2.5" fill="#27AE60"/>
<path fill-rule="evenodd" clip-rule="evenodd" d="M49.3818 212.341C47.9788 212.962 47 214.367 47 216V216.074C47 216.585 47.4146 217 47.9259 217H54.0741C54.5854 217 55 216.585 55 216.074V216C55 214.367 54.0212 212.962 52.6182 212.341C52.1207 212.551 51.5739 212.667 51 212.667C50.4261 212.667 49.8793 212.551 49.3818 212.341Z" fill="#27AE60"/>
<circle cx="57" cy="208.5" r="2" stroke="#27AE60"/>
<mask id="path-27-inside-2" fill="white">
<path fill-rule="evenodd" clip-rule="evenodd" d="M55.3818 212.341C53.9788 212.962 53 214.367 53 216V216.074C53 216.585 53.4146 217 53.9259 217H60.0741C60.5854 217 61 216.585 61 216.074V216C61 214.367 60.0212 212.962 58.6182 212.341C58.1207 212.551 57.5739 212.667 57 212.667C56.4261 212.667 55.8793 212.551 55.3818 212.341Z"/>
</mask>
<path d="M55.3818 212.341L55.7705 211.419L55.3722 211.251L54.9769 211.426L55.3818 212.341ZM58.6182 212.341L59.0231 211.426L58.6278 211.251L58.2295 211.419L58.6182 212.341ZM54 216C54 214.777 54.7324 213.722 55.7868 213.255L54.9769 211.426C53.2253 212.202 52 213.957 52 216H54ZM54 216.074V216H52V216.074H54ZM53.9259 216C53.9668 216 54 216.033 54 216.074H52C52 217.138 52.8623 218 53.9259 218V216ZM60.0741 216H53.9259V218H60.0741V216ZM60 216.074C60 216.033 60.0332 216 60.0741 216V218C61.1377 218 62 217.138 62 216.074H60ZM60 216V216.074H62V216H60ZM58.2132 213.255C59.2676 213.722 60 214.777 60 216H62C62 213.957 60.7747 212.202 59.0231 211.426L58.2132 213.255ZM58.2295 211.419C57.8528 211.578 57.438 211.667 57 211.667V213.667C57.7098 213.667 58.3885 213.523 59.0068 213.262L58.2295 211.419ZM57 211.667C56.562 211.667 56.1472 211.578 55.7705 211.419L54.9932 213.262C55.6115 213.523 56.2902 213.667 57 213.667V211.667Z" fill="#27AE60" mask="url(#path-27-inside-2)"/>
<path d="M77.6465 207.434V212.977C77.6465 213.953 77.3516 214.721 76.7617 215.279C76.1719 215.838 75.3613 216.117 74.3301 216.117C73.2988 216.117 72.5 215.836 71.9336 215.273C71.3711 214.711 71.0898 213.938 71.0898 212.953V207.434H72.0859V213.023C72.0859 213.738 72.2812 214.287 72.6719 214.67C73.0625 215.053 73.6367 215.244 74.3945 215.244C75.1172 215.244 75.6738 215.053 76.0645 214.67C76.4551 214.283 76.6504 213.73 76.6504 213.012V207.434H77.6465ZM83.916 214.248C83.916 214.846 83.6934 215.307 83.248 215.631C82.8027 215.955 82.1777 216.117 81.373 216.117C80.5215 216.117 79.8574 215.982 79.3809 215.713V214.811C79.6895 214.967 80.0195 215.09 80.3711 215.18C80.7266 215.27 81.0684 215.314 81.3965 215.314C81.9043 215.314 82.2949 215.234 82.5684 215.074C82.8418 214.91 82.9785 214.662 82.9785 214.33C82.9785 214.08 82.8691 213.867 82.6504 213.691C82.4355 213.512 82.0137 213.301 81.3848 213.059C80.7871 212.836 80.3613 212.643 80.1074 212.479C79.8574 212.311 79.6699 212.121 79.5449 211.91C79.4238 211.699 79.3633 211.447 79.3633 211.154C79.3633 210.631 79.5762 210.219 80.002 209.918C80.4277 209.613 81.0117 209.461 81.7539 209.461C82.4453 209.461 83.1211 209.602 83.7812 209.883L83.4355 210.674C82.791 210.408 82.207 210.275 81.6836 210.275C81.2227 210.275 80.875 210.348 80.6406 210.492C80.4062 210.637 80.2891 210.836 80.2891 211.09C80.2891 211.262 80.332 211.408 80.418 211.529C80.5078 211.65 80.6504 211.766 80.8457 211.875C81.041 211.984 81.416 212.143 81.9707 212.35C82.7324 212.627 83.2461 212.906 83.5117 213.188C83.7812 213.469 83.916 213.822 83.916 214.248ZM88.2168 216.117C87.2676 216.117 86.5176 215.828 85.9668 215.25C85.4199 214.672 85.1465 213.869 85.1465 212.842C85.1465 211.807 85.4004 210.984 85.9082 210.375C86.4199 209.766 87.1055 209.461 87.9648 209.461C88.7695 209.461 89.4062 209.727 89.875 210.258C90.3438 210.785 90.5781 211.482 90.5781 212.35V212.965H86.1543C86.1738 213.719 86.3633 214.291 86.7227 214.682C87.0859 215.072 87.5957 215.268 88.252 215.268C88.9434 215.268 89.627 215.123 90.3027 214.834V215.701C89.959 215.85 89.6328 215.955 89.3242 216.018C89.0195 216.084 88.6504 216.117 88.2168 216.117ZM87.9531 210.275C87.4375 210.275 87.0254 210.443 86.7168 210.779C86.4121 211.115 86.2324 211.58 86.1777 212.174H89.5352C89.5352 211.561 89.3984 211.092 89.125 210.768C88.8516 210.439 88.4609 210.275 87.9531 210.275ZM95.1719 209.461C95.457 209.461 95.7129 209.484 95.9395 209.531L95.8047 210.434C95.5391 210.375 95.3047 210.346 95.1016 210.346C94.582 210.346 94.1367 210.557 93.7656 210.979C93.3984 211.4 93.2148 211.926 93.2148 212.555V216H92.2422V209.578H93.0449L93.1562 210.768H93.2031C93.4414 210.35 93.7285 210.027 94.0645 209.801C94.4004 209.574 94.7695 209.461 95.1719 209.461ZM104.172 211.512H107.084V215.678C106.631 215.822 106.17 215.932 105.701 216.006C105.232 216.08 104.689 216.117 104.072 216.117C102.775 216.117 101.766 215.732 101.043 214.963C100.32 214.189 99.959 213.107 99.959 211.717C99.959 210.826 100.137 210.047 100.492 209.379C100.852 208.707 101.367 208.195 102.039 207.844C102.711 207.488 103.498 207.311 104.4 207.311C105.314 207.311 106.166 207.479 106.955 207.814L106.568 208.693C105.795 208.365 105.051 208.201 104.336 208.201C103.293 208.201 102.479 208.512 101.893 209.133C101.307 209.754 101.014 210.615 101.014 211.717C101.014 212.873 101.295 213.75 101.857 214.348C102.424 214.945 103.254 215.244 104.348 215.244C104.941 215.244 105.521 215.176 106.088 215.039V212.402H104.172V211.512ZM111.93 209.461C112.215 209.461 112.471 209.484 112.697 209.531L112.562 210.434C112.297 210.375 112.062 210.346 111.859 210.346C111.34 210.346 110.895 210.557 110.523 210.979C110.156 211.4 109.973 211.926 109.973 212.555V216H109V209.578H109.803L109.914 210.768H109.961C110.199 210.35 110.486 210.027 110.822 209.801C111.158 209.574 111.527 209.461 111.93 209.461ZM119.441 212.783C119.441 213.83 119.178 214.648 118.65 215.238C118.123 215.824 117.395 216.117 116.465 216.117C115.891 216.117 115.381 215.982 114.936 215.713C114.49 215.443 114.146 215.057 113.904 214.553C113.662 214.049 113.541 213.459 113.541 212.783C113.541 211.736 113.803 210.922 114.326 210.34C114.85 209.754 115.576 209.461 116.506 209.461C117.404 209.461 118.117 209.76 118.645 210.357C119.176 210.955 119.441 211.764 119.441 212.783ZM114.549 212.783C114.549 213.604 114.713 214.229 115.041 214.658C115.369 215.088 115.852 215.303 116.488 215.303C117.125 215.303 117.607 215.09 117.936 214.664C118.268 214.234 118.434 213.607 118.434 212.783C118.434 211.967 118.268 211.348 117.936 210.926C117.607 210.5 117.121 210.287 116.477 210.287C115.84 210.287 115.359 210.496 115.035 210.914C114.711 211.332 114.549 211.955 114.549 212.783ZM122.066 209.578V213.744C122.066 214.268 122.186 214.658 122.424 214.916C122.662 215.174 123.035 215.303 123.543 215.303C124.215 215.303 124.705 215.119 125.014 214.752C125.326 214.385 125.482 213.785 125.482 212.953V209.578H126.455V216H125.652L125.512 215.139H125.459C125.26 215.455 124.982 215.697 124.627 215.865C124.275 216.033 123.873 216.117 123.42 216.117C122.639 216.117 122.053 215.932 121.662 215.561C121.275 215.189 121.082 214.596 121.082 213.779V209.578H122.066ZM131.512 216.117C131.094 216.117 130.711 216.041 130.363 215.889C130.02 215.732 129.73 215.494 129.496 215.174H129.426C129.473 215.549 129.496 215.904 129.496 216.24V218.883H128.523V209.578H129.314L129.449 210.457H129.496C129.746 210.105 130.037 209.852 130.369 209.695C130.701 209.539 131.082 209.461 131.512 209.461C132.363 209.461 133.02 209.752 133.48 210.334C133.945 210.916 134.178 211.732 134.178 212.783C134.178 213.838 133.941 214.658 133.469 215.244C133 215.826 132.348 216.117 131.512 216.117ZM131.371 210.287C130.715 210.287 130.24 210.469 129.947 210.832C129.654 211.195 129.504 211.773 129.496 212.566V212.783C129.496 213.686 129.646 214.332 129.947 214.723C130.248 215.109 130.73 215.303 131.395 215.303C131.949 215.303 132.383 215.078 132.695 214.629C133.012 214.18 133.17 213.561 133.17 212.771C133.17 211.971 133.012 211.357 132.695 210.932C132.383 210.502 131.941 210.287 131.371 210.287Z" fill="#28232D"/>
<rect x="35.5" y="193.5" width="114" height="36" rx="5.5" stroke="#1F8B4D" stroke-opacity="0.4"/>
<rect x="335" y="187" width="125" height="37" rx="6" fill="#EDFFF5"/>
<rect x="335.5" y="187.5" width="124" height="36" rx="5.5" stroke="#1F8B4D" stroke-opacity="0.4"/>
<rect x="332" y="190" width="125" height="37" rx="6" fill="#EDFFF5"/>
<rect x="332.5" y="190.5" width="124" height="36" rx="5.5" stroke="#1F8B4D" stroke-opacity="0.4"/>
<rect x="329" y="193" width="125" height="37" rx="6" fill="#EDFFF5"/>
<path fill-rule="evenodd" clip-rule="evenodd" d="M346 205.5C346 205.224 346.224 205 346.5 205C346.776 205 347 205.224 347 205.5V207H349V205.5C349 205.224 349.224 205 349.5 205C349.776 205 350 205.224 350 205.5V207H351C352.105 207 353 207.895 353 209V210H354.5C354.776 210 355 210.224 355 210.5C355 210.776 354.776 211 354.5 211H353V213H354.5C354.776 213 355 213.224 355 213.5C355 213.776 354.776 214 354.5 214H353V215C353 216.105 352.105 217 351 217H350V218.5C350 218.776 349.776 219 349.5 219C349.224 219 349 218.776 349 218.5V217H347V218.5C347 218.776 346.776 219 346.5 219C346.224 219 346 218.776 346 218.5V217H345C343.895 217 343 216.105 343 215V214H341.5C341.224 214 341 213.776 341 213.5C341 213.224 341.224 213 341.5 213H343V211H341.5C341.224 211 341 210.776 341 210.5C341 210.224 341.224 210 341.5 210H343V209C343 207.895 343.895 207 345 207H346V205.5ZM346 212C346 210.895 346.895 210 348 210C349.105 210 350 210.895 350 212C350 213.105 349.105 214 348 214C346.895 214 346 213.105 346 212ZM348 211C347.448 211 347 211.448 347 212C347 212.552 347.448 213 348 213C348.552 213 349 212.552 349 212C349 211.448 348.552 211 348 211Z" fill="#27AE60"/>
<path d="M372.016 211.635C372.016 213.049 371.631 214.131 370.861 214.881C370.096 215.627 368.992 216 367.551 216H365.178V207.434H367.803C369.135 207.434 370.17 207.803 370.908 208.541C371.646 209.279 372.016 210.311 372.016 211.635ZM370.961 211.67C370.961 210.553 370.68 209.711 370.117 209.145C369.559 208.578 368.727 208.295 367.621 208.295H366.174V215.139H367.387C368.574 215.139 369.467 214.848 370.064 214.266C370.662 213.68 370.961 212.814 370.961 211.67ZM376.498 216.117C375.549 216.117 374.799 215.828 374.248 215.25C373.701 214.672 373.428 213.869 373.428 212.842C373.428 211.807 373.682 210.984 374.189 210.375C374.701 209.766 375.387 209.461 376.246 209.461C377.051 209.461 377.688 209.727 378.156 210.258C378.625 210.785 378.859 211.482 378.859 212.35V212.965H374.436C374.455 213.719 374.645 214.291 375.004 214.682C375.367 215.072 375.877 215.268 376.533 215.268C377.225 215.268 377.908 215.123 378.584 214.834V215.701C378.24 215.85 377.914 215.955 377.605 216.018C377.301 216.084 376.932 216.117 376.498 216.117ZM376.234 210.275C375.719 210.275 375.307 210.443 374.998 210.779C374.693 211.115 374.514 211.58 374.459 212.174H377.816C377.816 211.561 377.68 211.092 377.406 210.768C377.133 210.439 376.742 210.275 376.234 210.275ZM381.93 216L379.492 209.578H380.535L381.918 213.387C382.23 214.277 382.414 214.855 382.469 215.121H382.516C382.559 214.914 382.693 214.486 382.92 213.838C383.15 213.186 383.664 211.766 384.461 209.578H385.504L383.066 216H381.93ZM387.508 216H386.535V209.578H387.508V216ZM386.453 207.838C386.453 207.615 386.508 207.453 386.617 207.352C386.727 207.246 386.863 207.193 387.027 207.193C387.184 207.193 387.318 207.246 387.432 207.352C387.545 207.457 387.602 207.619 387.602 207.838C387.602 208.057 387.545 208.221 387.432 208.33C387.318 208.436 387.184 208.488 387.027 208.488C386.863 208.488 386.727 208.436 386.617 208.33C386.508 208.221 386.453 208.057 386.453 207.838ZM392.137 216.117C391.207 216.117 390.486 215.832 389.975 215.262C389.467 214.688 389.213 213.877 389.213 212.83C389.213 211.756 389.471 210.926 389.986 210.34C390.506 209.754 391.244 209.461 392.201 209.461C392.51 209.461 392.818 209.494 393.127 209.561C393.436 209.627 393.678 209.705 393.854 209.795L393.555 210.621C393.34 210.535 393.105 210.465 392.852 210.41C392.598 210.352 392.373 210.322 392.178 210.322C390.873 210.322 390.221 211.154 390.221 212.818C390.221 213.607 390.379 214.213 390.695 214.635C391.016 215.057 391.488 215.268 392.113 215.268C392.648 215.268 393.197 215.152 393.76 214.922V215.783C393.33 216.006 392.789 216.117 392.137 216.117ZM398.002 216.117C397.053 216.117 396.303 215.828 395.752 215.25C395.205 214.672 394.932 213.869 394.932 212.842C394.932 211.807 395.186 210.984 395.693 210.375C396.205 209.766 396.891 209.461 397.75 209.461C398.555 209.461 399.191 209.727 399.66 210.258C400.129 210.785 400.363 211.482 400.363 212.35V212.965H395.939C395.959 213.719 396.148 214.291 396.508 214.682C396.871 215.072 397.381 215.268 398.037 215.268C398.729 215.268 399.412 215.123 400.088 214.834V215.701C399.744 215.85 399.418 215.955 399.109 216.018C398.805 216.084 398.436 216.117 398.002 216.117ZM397.738 210.275C397.223 210.275 396.811 210.443 396.502 210.779C396.197 211.115 396.018 211.58 395.963 212.174H399.32C399.32 211.561 399.184 211.092 398.91 210.768C398.637 210.439 398.246 210.275 397.738 210.275ZM409.059 211.512H411.971V215.678C411.518 215.822 411.057 215.932 410.588 216.006C410.119 216.08 409.576 216.117 408.959 216.117C407.662 216.117 406.652 215.732 405.93 214.963C405.207 214.189 404.846 213.107 404.846 211.717C404.846 210.826 405.023 210.047 405.379 209.379C405.738 208.707 406.254 208.195 406.926 207.844C407.598 207.488 408.385 207.311 409.287 207.311C410.201 207.311 411.053 207.479 411.842 207.814L411.455 208.693C410.682 208.365 409.938 208.201 409.223 208.201C408.18 208.201 407.365 208.512 406.779 209.133C406.193 209.754 405.9 210.615 405.9 211.717C405.9 212.873 406.182 213.75 406.744 214.348C407.311 214.945 408.141 215.244 409.234 215.244C409.828 215.244 410.408 215.176 410.975 215.039V212.402H409.059V211.512ZM416.816 209.461C417.102 209.461 417.357 209.484 417.584 209.531L417.449 210.434C417.184 210.375 416.949 210.346 416.746 210.346C416.227 210.346 415.781 210.557 415.41 210.979C415.043 211.4 414.859 211.926 414.859 212.555V216H413.887V209.578H414.689L414.801 210.768H414.848C415.086 210.35 415.373 210.027 415.709 209.801C416.045 209.574 416.414 209.461 416.816 209.461ZM424.328 212.783C424.328 213.83 424.064 214.648 423.537 215.238C423.01 215.824 422.281 216.117 421.352 216.117C420.777 216.117 420.268 215.982 419.822 215.713C419.377 215.443 419.033 215.057 418.791 214.553C418.549 214.049 418.428 213.459 418.428 212.783C418.428 211.736 418.689 210.922 419.213 210.34C419.736 209.754 420.463 209.461 421.393 209.461C422.291 209.461 423.004 209.76 423.531 210.357C424.062 210.955 424.328 211.764 424.328 212.783ZM419.436 212.783C419.436 213.604 419.6 214.229 419.928 214.658C420.256 215.088 420.738 215.303 421.375 215.303C422.012 215.303 422.494 215.09 422.822 214.664C423.154 214.234 423.32 213.607 423.32 212.783C423.32 211.967 423.154 211.348 422.822 210.926C422.494 210.5 422.008 210.287 421.363 210.287C420.727 210.287 420.246 210.496 419.922 210.914C419.598 211.332 419.436 211.955 419.436 212.783ZM426.953 209.578V213.744C426.953 214.268 427.072 214.658 427.311 214.916C427.549 215.174 427.922 215.303 428.43 215.303C429.102 215.303 429.592 215.119 429.9 214.752C430.213 214.385 430.369 213.785 430.369 212.953V209.578H431.342V216H430.539L430.398 215.139H430.346C430.146 215.455 429.869 215.697 429.514 215.865C429.162 216.033 428.76 216.117 428.307 216.117C427.525 216.117 426.939 215.932 426.549 215.561C426.162 215.189 425.969 214.596 425.969 213.779V209.578H426.953ZM436.398 216.117C435.98 216.117 435.598 216.041 435.25 215.889C434.906 215.732 434.617 215.494 434.383 215.174H434.312C434.359 215.549 434.383 215.904 434.383 216.24V218.883H433.41V209.578H434.201L434.336 210.457H434.383C434.633 210.105 434.924 209.852 435.256 209.695C435.588 209.539 435.969 209.461 436.398 209.461C437.25 209.461 437.906 209.752 438.367 210.334C438.832 210.916 439.064 211.732 439.064 212.783C439.064 213.838 438.828 214.658 438.355 215.244C437.887 215.826 437.234 216.117 436.398 216.117ZM436.258 210.287C435.602 210.287 435.127 210.469 434.834 210.832C434.541 211.195 434.391 211.773 434.383 212.566V212.783C434.383 213.686 434.533 214.332 434.834 214.723C435.135 215.109 435.617 215.303 436.281 215.303C436.836 215.303 437.27 215.078 437.582 214.629C437.898 214.18 438.057 213.561 438.057 212.771C438.057 211.971 437.898 211.357 437.582 210.932C437.27 210.502 436.828 210.287 436.258 210.287Z" fill="#28232D"/>
<rect x="329.5" y="193.5" width="124" height="36" rx="5.5" stroke="#1F8B4D" stroke-opacity="0.4"/>
<rect x="172" y="61" width="147" height="37" rx="6" fill="white"/>
<rect x="172.5" y="61.5" width="146" height="36" rx="5.5" stroke="#1F8B4D" stroke-opacity="0.4"/>
<rect x="169" y="64" width="147" height="37" rx="6" fill="white"/>
<rect x="169.5" y="64.5" width="146" height="36" rx="5.5" stroke="#1F8B4D" stroke-opacity="0.4"/>
<rect x="166" y="67" width="147" height="37" rx="6" fill="white"/>
<circle cx="182" cy="82.5" r="2.5" fill="#27AE60"/>
<path fill-rule="evenodd" clip-rule="evenodd" d="M180.382 86.3408C178.979 86.9622 178 88.3668 178 90V90.0741C178 90.5854 178.415 91 178.926 91H185.074C185.585 91 186 90.5854 186 90.0741V90C186 88.3668 185.021 86.9622 183.618 86.3408C183.121 86.5507 182.574 86.6667 182 86.6667C181.426 86.6667 180.879 86.5507 180.382 86.3408Z" fill="#27AE60"/>
<circle cx="188" cy="82.5" r="2" stroke="#27AE60"/>
<mask id="path-49-inside-3" fill="white">
<path fill-rule="evenodd" clip-rule="evenodd" d="M186.382 86.3408C184.979 86.9622 184 88.3668 184 90V90.0741C184 90.5854 184.415 91 184.926 91H191.074C191.585 91 192 90.5854 192 90.0741V90C192 88.3668 191.021 86.9622 189.618 86.3408C189.121 86.5507 188.574 86.6667 188 86.6667C187.426 86.6667 186.879 86.5507 186.382 86.3408Z"/>
</mask>
<path d="M186.382 86.3408L186.771 85.4194L186.372 85.2514L185.977 85.4265L186.382 86.3408ZM189.618 86.3408L190.023 85.4265L189.628 85.2514L189.23 85.4194L189.618 86.3408ZM185 90C185 88.7766 185.732 87.7221 186.787 87.2552L185.977 85.4265C184.225 86.2022 183 87.9569 183 90H185ZM185 90.0741V90H183V90.0741H185ZM184.926 90C184.967 90 185 90.0332 185 90.0741H183C183 91.1377 183.862 92 184.926 92V90ZM191.074 90H184.926V92H191.074V90ZM191 90.0741C191 90.0332 191.033 90 191.074 90V92C192.138 92 193 91.1377 193 90.0741H191ZM191 90V90.0741H193V90H191ZM189.213 87.2552C190.268 87.7221 191 88.7766 191 90H193C193 87.9569 191.775 86.2022 190.023 85.4265L189.213 87.2552ZM189.23 85.4194C188.853 85.5783 188.438 85.6667 188 85.6667V87.6667C188.71 87.6667 189.389 87.523 190.007 87.2622L189.23 85.4194ZM188 85.6667C187.562 85.6667 187.147 85.5783 186.771 85.4194L185.993 87.2622C186.611 87.523 187.29 87.6667 188 87.6667V85.6667Z" fill="#27AE60" mask="url(#path-49-inside-3)"/>
<path d="M205.775 82.5117C204.971 82.5117 204.338 82.7969 203.877 83.3672C203.416 83.9375 203.186 84.7246 203.186 85.7285C203.186 86.7793 203.406 87.5742 203.848 88.1133C204.293 88.6523 204.936 88.9219 205.775 88.9219C206.139 88.9219 206.49 88.8867 206.83 88.8164C207.17 88.7422 207.523 88.6484 207.891 88.5352V89.7363C207.219 89.9902 206.457 90.1172 205.605 90.1172C204.352 90.1172 203.389 89.7383 202.717 88.9805C202.045 88.2188 201.709 87.1309 201.709 85.7168C201.709 84.8262 201.871 84.0469 202.195 83.3789C202.523 82.7109 202.996 82.1992 203.613 81.8438C204.23 81.4883 204.955 81.3105 205.787 81.3105C206.662 81.3105 207.471 81.4941 208.213 81.8613L207.709 83.0273C207.42 82.8906 207.113 82.7715 206.789 82.6699C206.469 82.5645 206.131 82.5117 205.775 82.5117ZM214.16 90L213.967 89.1504H213.896C213.705 89.4512 213.432 89.6875 213.076 89.8594C212.725 90.0312 212.322 90.1172 211.869 90.1172C211.084 90.1172 210.498 89.9219 210.111 89.5312C209.725 89.1406 209.531 88.5488 209.531 87.7559V83.5195H210.92V87.5156C210.92 88.0117 211.021 88.3848 211.225 88.6348C211.428 88.8809 211.746 89.0039 212.18 89.0039C212.758 89.0039 213.182 88.832 213.451 88.4883C213.725 88.1406 213.861 87.5605 213.861 86.748V83.5195H215.244V90H214.16ZM221.561 88.1543C221.561 88.7871 221.33 89.2734 220.869 89.6133C220.408 89.9492 219.748 90.1172 218.889 90.1172C218.025 90.1172 217.332 89.9863 216.809 89.7246V88.5352C217.57 88.8867 218.279 89.0625 218.936 89.0625C219.783 89.0625 220.207 88.8066 220.207 88.2949C220.207 88.1309 220.16 87.9941 220.066 87.8848C219.973 87.7754 219.818 87.6621 219.604 87.5449C219.389 87.4277 219.09 87.2949 218.707 87.1465C217.961 86.8574 217.455 86.5684 217.189 86.2793C216.928 85.9902 216.797 85.6152 216.797 85.1543C216.797 84.5996 217.02 84.1699 217.465 83.8652C217.914 83.5566 218.523 83.4023 219.293 83.4023C220.055 83.4023 220.775 83.5566 221.455 83.8652L221.01 84.9023C220.311 84.6133 219.723 84.4688 219.246 84.4688C218.52 84.4688 218.156 84.6758 218.156 85.0898C218.156 85.293 218.25 85.4648 218.438 85.6055C218.629 85.7461 219.043 85.9395 219.68 86.1855C220.215 86.3926 220.604 86.582 220.846 86.7539C221.088 86.9258 221.268 87.125 221.385 87.3516C221.502 87.5742 221.561 87.8418 221.561 88.1543ZM225.469 89.0039C225.805 89.0039 226.141 88.9512 226.477 88.8457V89.8828C226.324 89.9492 226.127 90.0039 225.885 90.0469C225.646 90.0938 225.398 90.1172 225.141 90.1172C223.836 90.1172 223.184 89.4297 223.184 88.0547V84.5625H222.299V83.9531L223.248 83.4492L223.717 82.0781H224.566V83.5195H226.412V84.5625H224.566V88.0312C224.566 88.3633 224.648 88.6094 224.812 88.7695C224.98 88.9258 225.199 89.0039 225.469 89.0039ZM233.525 86.748C233.525 87.8066 233.254 88.6328 232.711 89.2266C232.168 89.8203 231.412 90.1172 230.443 90.1172C229.838 90.1172 229.303 89.9805 228.838 89.707C228.373 89.4336 228.016 89.041 227.766 88.5293C227.516 88.0176 227.391 87.4238 227.391 86.748C227.391 85.6973 227.66 84.877 228.199 84.2871C228.738 83.6973 229.498 83.4023 230.479 83.4023C231.416 83.4023 232.158 83.7051 232.705 84.3105C233.252 84.9121 233.525 85.7246 233.525 86.748ZM228.809 86.748C228.809 88.2441 229.361 88.9922 230.467 88.9922C231.561 88.9922 232.107 88.2441 232.107 86.748C232.107 85.2676 231.557 84.5273 230.455 84.5273C229.877 84.5273 229.457 84.7188 229.195 85.1016C228.938 85.4844 228.809 86.0332 228.809 86.748ZM240.574 90H239.191V86.0039C239.191 85.5078 239.098 85.1387 238.91 84.8965C238.723 84.6504 238.43 84.5273 238.031 84.5273C237.5 84.5273 237.109 84.7012 236.859 85.0488C236.613 85.3926 236.49 85.9668 236.49 86.7715V90H235.113V83.5195H236.191L236.385 84.3691H236.455C236.635 84.0605 236.895 83.8223 237.234 83.6543C237.578 83.4863 237.955 83.4023 238.365 83.4023C239.361 83.4023 240.021 83.7422 240.346 84.4219H240.439C240.631 84.1016 240.9 83.8516 241.248 83.6719C241.596 83.4922 241.994 83.4023 242.443 83.4023C243.217 83.4023 243.779 83.5977 244.131 83.9883C244.486 84.3789 244.664 84.9746 244.664 85.7754V90H243.287V86.0039C243.287 85.5078 243.191 85.1387 243 84.8965C242.812 84.6504 242.52 84.5273 242.121 84.5273C241.586 84.5273 241.193 84.6953 240.943 85.0312C240.697 85.3633 240.574 85.875 240.574 86.5664V90ZM249.416 90.1172C248.408 90.1172 247.619 89.8242 247.049 89.2383C246.482 88.6484 246.199 87.8379 246.199 86.8066C246.199 85.748 246.463 84.916 246.99 84.3105C247.518 83.7051 248.242 83.4023 249.164 83.4023C250.02 83.4023 250.695 83.6621 251.191 84.1816C251.688 84.7012 251.936 85.416 251.936 86.3262V87.0703H247.617C247.637 87.6992 247.807 88.1836 248.127 88.5234C248.447 88.8594 248.898 89.0273 249.48 89.0273C249.863 89.0273 250.219 88.9922 250.547 88.9219C250.879 88.8477 251.234 88.7266 251.613 88.5586V89.6777C251.277 89.8379 250.938 89.9512 250.594 90.0176C250.25 90.084 249.857 90.1172 249.416 90.1172ZM249.164 84.4453C248.727 84.4453 248.375 84.584 248.109 84.8613C247.848 85.1387 247.691 85.543 247.641 86.0742H250.582C250.574 85.5391 250.445 85.1348 250.195 84.8613C249.945 84.584 249.602 84.4453 249.164 84.4453ZM256.787 83.4023C257.064 83.4023 257.293 83.4219 257.473 83.4609L257.338 84.7441C257.143 84.6973 256.939 84.6738 256.729 84.6738C256.178 84.6738 255.73 84.8535 255.387 85.2129C255.047 85.5723 254.877 86.0391 254.877 86.6133V90H253.5V83.5195H254.578L254.76 84.6621H254.83C255.045 84.2754 255.324 83.9688 255.668 83.7422C256.016 83.5156 256.389 83.4023 256.787 83.4023ZM265.447 85.3535H268.6V89.6543C268.084 89.8223 267.588 89.9414 267.111 90.0117C266.639 90.082 266.127 90.1172 265.576 90.1172C264.279 90.1172 263.279 89.7344 262.576 88.9688C261.873 88.1992 261.521 87.1152 261.521 85.7168C261.521 84.3379 261.918 83.2598 262.711 82.4824C263.504 81.7012 264.596 81.3105 265.986 81.3105C266.881 81.3105 267.729 81.4824 268.529 81.8262L268.037 82.9922C267.342 82.6719 266.646 82.5117 265.951 82.5117C265.037 82.5117 264.314 82.7988 263.783 83.373C263.252 83.9473 262.986 84.7324 262.986 85.7285C262.986 86.7754 263.225 87.5723 263.701 88.1191C264.182 88.6621 264.871 88.9336 265.77 88.9336C266.223 88.9336 266.707 88.877 267.223 88.7637V86.5547H265.447V85.3535ZM273.803 83.4023C274.08 83.4023 274.309 83.4219 274.488 83.4609L274.354 84.7441C274.158 84.6973 273.955 84.6738 273.744 84.6738C273.193 84.6738 272.746 84.8535 272.402 85.2129C272.062 85.5723 271.893 86.0391 271.893 86.6133V90H270.516V83.5195H271.594L271.775 84.6621H271.846C272.061 84.2754 272.34 83.9688 272.684 83.7422C273.031 83.5156 273.404 83.4023 273.803 83.4023ZM281.443 86.748C281.443 87.8066 281.172 88.6328 280.629 89.2266C280.086 89.8203 279.33 90.1172 278.361 90.1172C277.756 90.1172 277.221 89.9805 276.756 89.707C276.291 89.4336 275.934 89.041 275.684 88.5293C275.434 88.0176 275.309 87.4238 275.309 86.748C275.309 85.6973 275.578 84.877 276.117 84.2871C276.656 83.6973 277.416 83.4023 278.396 83.4023C279.334 83.4023 280.076 83.7051 280.623 84.3105C281.17 84.9121 281.443 85.7246 281.443 86.748ZM276.727 86.748C276.727 88.2441 277.279 88.9922 278.385 88.9922C279.479 88.9922 280.025 88.2441 280.025 86.748C280.025 85.2676 279.475 84.5273 278.373 84.5273C277.795 84.5273 277.375 84.7188 277.113 85.1016C276.855 85.4844 276.727 86.0332 276.727 86.748ZM287.602 90L287.408 89.1504H287.338C287.146 89.4512 286.873 89.6875 286.518 89.8594C286.166 90.0312 285.764 90.1172 285.311 90.1172C284.525 90.1172 283.939 89.9219 283.553 89.5312C283.166 89.1406 282.973 88.5488 282.973 87.7559V83.5195H284.361V87.5156C284.361 88.0117 284.463 88.3848 284.666 88.6348C284.869 88.8809 285.188 89.0039 285.621 89.0039C286.199 89.0039 286.623 88.832 286.893 88.4883C287.166 88.1406 287.303 87.5605 287.303 86.748V83.5195H288.686V90H287.602ZM293.936 90.1172C293.115 90.1172 292.479 89.8223 292.025 89.2324H291.943C291.998 89.7793 292.025 90.1113 292.025 90.2285V92.8828H290.648V83.5195H291.762C291.793 83.6406 291.857 83.9297 291.955 84.3867H292.025C292.455 83.7305 293.1 83.4023 293.959 83.4023C294.768 83.4023 295.396 83.6953 295.846 84.2812C296.299 84.8672 296.525 85.6895 296.525 86.748C296.525 87.8066 296.295 88.6328 295.834 89.2266C295.377 89.8203 294.744 90.1172 293.936 90.1172ZM293.602 84.5273C293.055 84.5273 292.654 84.6875 292.4 85.0078C292.15 85.3281 292.025 85.8398 292.025 86.543V86.748C292.025 87.5371 292.15 88.1094 292.4 88.4648C292.65 88.8164 293.059 88.9922 293.625 88.9922C294.102 88.9922 294.469 88.7969 294.727 88.4062C294.984 88.0156 295.113 87.459 295.113 86.7363C295.113 86.0098 294.984 85.4609 294.727 85.0898C294.473 84.7148 294.098 84.5273 293.602 84.5273Z" fill="#28232D"/>
<rect x="166.5" y="67.5" width="146" height="36" rx="5.5" stroke="#1F8B4D" stroke-opacity="0.4"/>
<rect x="37" y="61" width="117" height="37" rx="6" fill="white"/>
<rect x="37.5" y="61.5" width="116" height="36" rx="5.5" stroke="#1F8B4D" stroke-opacity="0.4"/>
<rect x="34" y="64" width="117" height="37" rx="6" fill="white"/>
<rect x="34.5" y="64.5" width="116" height="36" rx="5.5" stroke="#1F8B4D" stroke-opacity="0.4"/>
<rect x="31" y="67" width="117" height="37" rx="6" fill="white"/>
<circle cx="47" cy="82.5" r="2.5" fill="#27AE60"/>
<path fill-rule="evenodd" clip-rule="evenodd" d="M45.3818 86.3408C43.9788 86.9622 43 88.3668 43 90V90.0741C43 90.5854 43.4146 91 43.9259 91H50.0741C50.5854 91 51 90.5854 51 90.0741V90C51 88.3668 50.0212 86.9622 48.6182 86.3408C48.1207 86.5507 47.5739 86.6667 47 86.6667C46.4261 86.6667 45.8793 86.5507 45.3818 86.3408Z" fill="#27AE60"/>
<circle cx="53" cy="82.5" r="2" stroke="#27AE60"/>
<mask id="path-61-inside-4" fill="white">
<path fill-rule="evenodd" clip-rule="evenodd" d="M51.3818 86.3408C49.9788 86.9622 49 88.3668 49 90V90.0741C49 90.5854 49.4146 91 49.9259 91H56.0741C56.5854 91 57 90.5854 57 90.0741V90C57 88.3668 56.0212 86.9622 54.6182 86.3408C54.1207 86.5507 53.5739 86.6667 53 86.6667C52.4261 86.6667 51.8793 86.5507 51.3818 86.3408Z"/>
</mask>
<path d="M51.3818 86.3408L51.7705 85.4194L51.3722 85.2514L50.9769 85.4265L51.3818 86.3408ZM54.6182 86.3408L55.0231 85.4265L54.6278 85.2514L54.2295 85.4194L54.6182 86.3408ZM50 90C50 88.7766 50.7324 87.7221 51.7868 87.2552L50.9769 85.4265C49.2253 86.2022 48 87.9569 48 90H50ZM50 90.0741V90H48V90.0741H50ZM49.9259 90C49.9668 90 50 90.0332 50 90.0741H48C48 91.1377 48.8623 92 49.9259 92V90ZM56.0741 90H49.9259V92H56.0741V90ZM56 90.0741C56 90.0332 56.0332 90 56.0741 90V92C57.1377 92 58 91.1377 58 90.0741H56ZM56 90V90.0741H58V90H56ZM54.2132 87.2552C55.2676 87.7221 56 88.7766 56 90H58C58 87.9569 56.7747 86.2022 55.0231 85.4265L54.2132 87.2552ZM54.2295 85.4194C53.8528 85.5783 53.438 85.6667 53 85.6667V87.6667C53.7098 87.6667 54.3885 87.523 55.0068 87.2622L54.2295 85.4194ZM53 85.6667C52.562 85.6667 52.1472 85.5783 51.7705 85.4194L50.9932 87.2622C51.6115 87.523 52.2902 87.6667 53 87.6667V85.6667Z" fill="#27AE60" mask="url(#path-61-inside-4)"/>
<path d="M73.8457 81.4336V86.9766C73.8457 87.6094 73.709 88.1641 73.4355 88.6406C73.166 89.1133 72.7734 89.4785 72.2578 89.7363C71.7461 89.9902 71.1328 90.1172 70.418 90.1172C69.3555 90.1172 68.5293 89.8359 67.9395 89.2734C67.3496 88.7109 67.0547 87.9375 67.0547 86.9531V81.4336H68.4609V86.8535C68.4609 87.5605 68.625 88.082 68.9531 88.418C69.2812 88.7539 69.7852 88.9219 70.4648 88.9219C71.7852 88.9219 72.4453 88.2285 72.4453 86.8418V81.4336H73.8457ZM80.2441 88.1543C80.2441 88.7871 80.0137 89.2734 79.5527 89.6133C79.0918 89.9492 78.4316 90.1172 77.5723 90.1172C76.709 90.1172 76.0156 89.9863 75.4922 89.7246V88.5352C76.2539 88.8867 76.9629 89.0625 77.6191 89.0625C78.4668 89.0625 78.8906 88.8066 78.8906 88.2949C78.8906 88.1309 78.8438 87.9941 78.75 87.8848C78.6562 87.7754 78.502 87.6621 78.2871 87.5449C78.0723 87.4277 77.7734 87.2949 77.3906 87.1465C76.6445 86.8574 76.1387 86.5684 75.873 86.2793C75.6113 85.9902 75.4805 85.6152 75.4805 85.1543C75.4805 84.5996 75.7031 84.1699 76.1484 83.8652C76.5977 83.5566 77.207 83.4023 77.9766 83.4023C78.7383 83.4023 79.459 83.5566 80.1387 83.8652L79.6934 84.9023C78.9941 84.6133 78.4062 84.4688 77.9297 84.4688C77.2031 84.4688 76.8398 84.6758 76.8398 85.0898C76.8398 85.293 76.9336 85.4648 77.1211 85.6055C77.3125 85.7461 77.7266 85.9395 78.3633 86.1855C78.8984 86.3926 79.2871 86.582 79.5293 86.7539C79.7715 86.9258 79.9512 87.125 80.0684 87.3516C80.1855 87.5742 80.2441 87.8418 80.2441 88.1543ZM84.5684 90.1172C83.5605 90.1172 82.7715 89.8242 82.2012 89.2383C81.6348 88.6484 81.3516 87.8379 81.3516 86.8066C81.3516 85.748 81.6152 84.916 82.1426 84.3105C82.6699 83.7051 83.3945 83.4023 84.3164 83.4023C85.1719 83.4023 85.8477 83.6621 86.3438 84.1816C86.8398 84.7012 87.0879 85.416 87.0879 86.3262V87.0703H82.7695C82.7891 87.6992 82.959 88.1836 83.2793 88.5234C83.5996 88.8594 84.0508 89.0273 84.6328 89.0273C85.0156 89.0273 85.3711 88.9922 85.6992 88.9219C86.0312 88.8477 86.3867 88.7266 86.7656 88.5586V89.6777C86.4297 89.8379 86.0898 89.9512 85.7461 90.0176C85.4023 90.084 85.0098 90.1172 84.5684 90.1172ZM84.3164 84.4453C83.8789 84.4453 83.5273 84.584 83.2617 84.8613C83 85.1387 82.8438 85.543 82.793 86.0742H85.7344C85.7266 85.5391 85.5977 85.1348 85.3477 84.8613C85.0977 84.584 84.7539 84.4453 84.3164 84.4453ZM91.9395 83.4023C92.2168 83.4023 92.4453 83.4219 92.625 83.4609L92.4902 84.7441C92.2949 84.6973 92.0918 84.6738 91.8809 84.6738C91.3301 84.6738 90.8828 84.8535 90.5391 85.2129C90.1992 85.5723 90.0293 86.0391 90.0293 86.6133V90H88.6523V83.5195H89.7305L89.9121 84.6621H89.9824C90.1973 84.2754 90.4766 83.9688 90.8203 83.7422C91.168 83.5156 91.541 83.4023 91.9395 83.4023ZM100.6 85.3535H103.752V89.6543C103.236 89.8223 102.74 89.9414 102.264 90.0117C101.791 90.082 101.279 90.1172 100.729 90.1172C99.4316 90.1172 98.4316 89.7344 97.7285 88.9688C97.0254 88.1992 96.6738 87.1152 96.6738 85.7168C96.6738 84.3379 97.0703 83.2598 97.8633 82.4824C98.6562 81.7012 99.748 81.3105 101.139 81.3105C102.033 81.3105 102.881 81.4824 103.682 81.8262L103.189 82.9922C102.494 82.6719 101.799 82.5117 101.104 82.5117C100.189 82.5117 99.4668 82.7988 98.9355 83.373C98.4043 83.9473 98.1387 84.7324 98.1387 85.7285C98.1387 86.7754 98.377 87.5723 98.8535 88.1191C99.334 88.6621 100.023 88.9336 100.922 88.9336C101.375 88.9336 101.859 88.877 102.375 88.7637V86.5547H100.6V85.3535ZM108.955 83.4023C109.232 83.4023 109.461 83.4219 109.641 83.4609L109.506 84.7441C109.311 84.6973 109.107 84.6738 108.896 84.6738C108.346 84.6738 107.898 84.8535 107.555 85.2129C107.215 85.5723 107.045 86.0391 107.045 86.6133V90H105.668V83.5195H106.746L106.928 84.6621H106.998C107.213 84.2754 107.492 83.9688 107.836 83.7422C108.184 83.5156 108.557 83.4023 108.955 83.4023ZM116.596 86.748C116.596 87.8066 116.324 88.6328 115.781 89.2266C115.238 89.8203 114.482 90.1172 113.514 90.1172C112.908 90.1172 112.373 89.9805 111.908 89.707C111.443 89.4336 111.086 89.041 110.836 88.5293C110.586 88.0176 110.461 87.4238 110.461 86.748C110.461 85.6973 110.73 84.877 111.27 84.2871C111.809 83.6973 112.568 83.4023 113.549 83.4023C114.486 83.4023 115.229 83.7051 115.775 84.3105C116.322 84.9121 116.596 85.7246 116.596 86.748ZM111.879 86.748C111.879 88.2441 112.432 88.9922 113.537 88.9922C114.631 88.9922 115.178 88.2441 115.178 86.748C115.178 85.2676 114.627 84.5273 113.525 84.5273C112.947 84.5273 112.527 84.7188 112.266 85.1016C112.008 85.4844 111.879 86.0332 111.879 86.748ZM122.754 90L122.561 89.1504H122.49C122.299 89.4512 122.025 89.6875 121.67 89.8594C121.318 90.0312 120.916 90.1172 120.463 90.1172C119.678 90.1172 119.092 89.9219 118.705 89.5312C118.318 89.1406 118.125 88.5488 118.125 87.7559V83.5195H119.514V87.5156C119.514 88.0117 119.615 88.3848 119.818 88.6348C120.021 88.8809 120.34 89.0039 120.773 89.0039C121.352 89.0039 121.775 88.832 122.045 88.4883C122.318 88.1406 122.455 87.5605 122.455 86.748V83.5195H123.838V90H122.754ZM129.088 90.1172C128.268 90.1172 127.631 89.8223 127.178 89.2324H127.096C127.15 89.7793 127.178 90.1113 127.178 90.2285V92.8828H125.801V83.5195H126.914C126.945 83.6406 127.01 83.9297 127.107 84.3867H127.178C127.607 83.7305 128.252 83.4023 129.111 83.4023C129.92 83.4023 130.549 83.6953 130.998 84.2812C131.451 84.8672 131.678 85.6895 131.678 86.748C131.678 87.8066 131.447 88.6328 130.986 89.2266C130.529 89.8203 129.896 90.1172 129.088 90.1172ZM128.754 84.5273C128.207 84.5273 127.807 84.6875 127.553 85.0078C127.303 85.3281 127.178 85.8398 127.178 86.543V86.748C127.178 87.5371 127.303 88.1094 127.553 88.4648C127.803 88.8164 128.211 88.9922 128.777 88.9922C129.254 88.9922 129.621 88.7969 129.879 88.4062C130.137 88.0156 130.266 87.459 130.266 86.7363C130.266 86.0098 130.137 85.4609 129.879 85.0898C129.625 84.7148 129.25 84.5273 128.754 84.5273Z" fill="#28232D"/>
<rect x="31.5" y="67.5" width="116" height="36" rx="5.5" stroke="#1F8B4D" stroke-opacity="0.4"/>
<rect x="337" y="61" width="127" height="37" rx="6" fill="white"/>
<rect x="337.5" y="61.5" width="126" height="36" rx="5.5" stroke="#1F8B4D" stroke-opacity="0.4"/>
<rect x="334" y="64" width="127" height="37" rx="6" fill="white"/>
<rect x="334.5" y="64.5" width="126" height="36" rx="5.5" stroke="#1F8B4D" stroke-opacity="0.4"/>
<rect x="331" y="67" width="127" height="37" rx="6" fill="white"/>
<path fill-rule="evenodd" clip-rule="evenodd" d="M348 79.5C348 79.2239 348.224 79 348.5 79C348.776 79 349 79.2239 349 79.5V81H351V79.5C351 79.2239 351.224 79 351.5 79C351.776 79 352 79.2239 352 79.5V81H353C354.105 81 355 81.8954 355 83V84H356.5C356.776 84 357 84.2239 357 84.5C357 84.7761 356.776 85 356.5 85H355V87H356.5C356.776 87 357 87.2239 357 87.5C357 87.7761 356.776 88 356.5 88H355V89C355 90.1046 354.105 91 353 91H352V92.5C352 92.7761 351.776 93 351.5 93C351.224 93 351 92.7761 351 92.5V91H349V92.5C349 92.7761 348.776 93 348.5 93C348.224 93 348 92.7761 348 92.5V91H347C345.895 91 345 90.1046 345 89V88H343.5C343.224 88 343 87.7761 343 87.5C343 87.2239 343.224 87 343.5 87H345V85H343.5C343.224 85 343 84.7761 343 84.5C343 84.2239 343.224 84 343.5 84H345V83C345 81.8954 345.895 81 347 81H348V79.5ZM348 86C348 84.8954 348.895 84 350 84C351.105 84 352 84.8954 352 86C352 87.1046 351.105 88 350 88C348.895 88 348 87.1046 348 86ZM350 85C349.448 85 349 85.4477 349 86C349 86.5523 349.448 87 350 87C350.552 87 351 86.5523 351 86C351 85.4477 350.552 85 350 85Z" fill="#27AE60"/>
<path d="M374.098 85.6348C374.098 87.0488 373.705 88.1309 372.92 88.8809C372.135 89.627 371.004 90 369.527 90H367.131V81.4336H369.779C371.143 81.4336 372.203 81.8008 372.961 82.5352C373.719 83.2695 374.098 84.3027 374.098 85.6348ZM372.621 85.6816C372.621 83.6309 371.662 82.6055 369.744 82.6055H368.531V88.8223H369.527C371.59 88.8223 372.621 87.7754 372.621 85.6816ZM378.627 90.1172C377.619 90.1172 376.83 89.8242 376.26 89.2383C375.693 88.6484 375.41 87.8379 375.41 86.8066C375.41 85.748 375.674 84.916 376.201 84.3105C376.729 83.7051 377.453 83.4023 378.375 83.4023C379.23 83.4023 379.906 83.6621 380.402 84.1816C380.898 84.7012 381.146 85.416 381.146 86.3262V87.0703H376.828C376.848 87.6992 377.018 88.1836 377.338 88.5234C377.658 88.8594 378.109 89.0273 378.691 89.0273C379.074 89.0273 379.43 88.9922 379.758 88.9219C380.09 88.8477 380.445 88.7266 380.824 88.5586V89.6777C380.488 89.8379 380.148 89.9512 379.805 90.0176C379.461 90.084 379.068 90.1172 378.627 90.1172ZM378.375 84.4453C377.938 84.4453 377.586 84.584 377.32 84.8613C377.059 85.1387 376.902 85.543 376.852 86.0742H379.793C379.785 85.5391 379.656 85.1348 379.406 84.8613C379.156 84.584 378.812 84.4453 378.375 84.4453ZM384.188 90L381.727 83.5195H383.18L384.498 87.2871C384.725 87.9199 384.861 88.4316 384.908 88.8223H384.955C384.99 88.541 385.127 88.0293 385.365 87.2871L386.684 83.5195H388.148L385.676 90H384.188ZM390.51 90H389.133V83.5195H390.51V90ZM389.051 81.8027C389.051 81.5566 389.117 81.3672 389.25 81.2344C389.387 81.1016 389.58 81.0352 389.83 81.0352C390.072 81.0352 390.26 81.1016 390.393 81.2344C390.529 81.3672 390.598 81.5566 390.598 81.8027C390.598 82.0371 390.529 82.2227 390.393 82.3594C390.26 82.4922 390.072 82.5586 389.83 82.5586C389.58 82.5586 389.387 82.4922 389.25 82.3594C389.117 82.2227 389.051 82.0371 389.051 81.8027ZM395.098 90.1172C394.117 90.1172 393.371 89.832 392.859 89.2617C392.352 88.6875 392.098 87.8652 392.098 86.7949C392.098 85.7051 392.363 84.8672 392.895 84.2812C393.43 83.6953 394.201 83.4023 395.209 83.4023C395.893 83.4023 396.508 83.5293 397.055 83.7832L396.639 84.8906C396.057 84.6641 395.576 84.5508 395.197 84.5508C394.076 84.5508 393.516 85.2949 393.516 86.7832C393.516 87.5098 393.654 88.0566 393.932 88.4238C394.213 88.7871 394.623 88.9688 395.162 88.9688C395.775 88.9688 396.355 88.8164 396.902 88.5117V89.7129C396.656 89.8574 396.393 89.9609 396.111 90.0234C395.834 90.0859 395.496 90.1172 395.098 90.1172ZM401.256 90.1172C400.248 90.1172 399.459 89.8242 398.889 89.2383C398.322 88.6484 398.039 87.8379 398.039 86.8066C398.039 85.748 398.303 84.916 398.83 84.3105C399.357 83.7051 400.082 83.4023 401.004 83.4023C401.859 83.4023 402.535 83.6621 403.031 84.1816C403.527 84.7012 403.775 85.416 403.775 86.3262V87.0703H399.457C399.477 87.6992 399.646 88.1836 399.967 88.5234C400.287 88.8594 400.738 89.0273 401.32 89.0273C401.703 89.0273 402.059 88.9922 402.387 88.9219C402.719 88.8477 403.074 88.7266 403.453 88.5586V89.6777C403.117 89.8379 402.777 89.9512 402.434 90.0176C402.09 90.084 401.697 90.1172 401.256 90.1172ZM401.004 84.4453C400.566 84.4453 400.215 84.584 399.949 84.8613C399.688 85.1387 399.531 85.543 399.48 86.0742H402.422C402.414 85.5391 402.285 85.1348 402.035 84.8613C401.785 84.584 401.441 84.4453 401.004 84.4453ZM412.107 85.3535H415.26V89.6543C414.744 89.8223 414.248 89.9414 413.771 90.0117C413.299 90.082 412.787 90.1172 412.236 90.1172C410.939 90.1172 409.939 89.7344 409.236 88.9688C408.533 88.1992 408.182 87.1152 408.182 85.7168C408.182 84.3379 408.578 83.2598 409.371 82.4824C410.164 81.7012 411.256 81.3105 412.646 81.3105C413.541 81.3105 414.389 81.4824 415.189 81.8262L414.697 82.9922C414.002 82.6719 413.307 82.5117 412.611 82.5117C411.697 82.5117 410.975 82.7988 410.443 83.373C409.912 83.9473 409.646 84.7324 409.646 85.7285C409.646 86.7754 409.885 87.5723 410.361 88.1191C410.842 88.6621 411.531 88.9336 412.43 88.9336C412.883 88.9336 413.367 88.877 413.883 88.7637V86.5547H412.107V85.3535ZM420.463 83.4023C420.74 83.4023 420.969 83.4219 421.148 83.4609L421.014 84.7441C420.818 84.6973 420.615 84.6738 420.404 84.6738C419.854 84.6738 419.406 84.8535 419.062 85.2129C418.723 85.5723 418.553 86.0391 418.553 86.6133V90H417.176V83.5195H418.254L418.436 84.6621H418.506C418.721 84.2754 419 83.9688 419.344 83.7422C419.691 83.5156 420.064 83.4023 420.463 83.4023ZM428.104 86.748C428.104 87.8066 427.832 88.6328 427.289 89.2266C426.746 89.8203 425.99 90.1172 425.021 90.1172C424.416 90.1172 423.881 89.9805 423.416 89.707C422.951 89.4336 422.594 89.041 422.344 88.5293C422.094 88.0176 421.969 87.4238 421.969 86.748C421.969 85.6973 422.238 84.877 422.777 84.2871C423.316 83.6973 424.076 83.4023 425.057 83.4023C425.994 83.4023 426.736 83.7051 427.283 84.3105C427.83 84.9121 428.104 85.7246 428.104 86.748ZM423.387 86.748C423.387 88.2441 423.939 88.9922 425.045 88.9922C426.139 88.9922 426.686 88.2441 426.686 86.748C426.686 85.2676 426.135 84.5273 425.033 84.5273C424.455 84.5273 424.035 84.7188 423.773 85.1016C423.516 85.4844 423.387 86.0332 423.387 86.748ZM434.262 90L434.068 89.1504H433.998C433.807 89.4512 433.533 89.6875 433.178 89.8594C432.826 90.0312 432.424 90.1172 431.971 90.1172C431.186 90.1172 430.6 89.9219 430.213 89.5312C429.826 89.1406 429.633 88.5488 429.633 87.7559V83.5195H431.021V87.5156C431.021 88.0117 431.123 88.3848 431.326 88.6348C431.529 88.8809 431.848 89.0039 432.281 89.0039C432.859 89.0039 433.283 88.832 433.553 88.4883C433.826 88.1406 433.963 87.5605 433.963 86.748V83.5195H435.346V90H434.262ZM440.596 90.1172C439.775 90.1172 439.139 89.8223 438.686 89.2324H438.604C438.658 89.7793 438.686 90.1113 438.686 90.2285V92.8828H437.309V83.5195H438.422C438.453 83.6406 438.518 83.9297 438.615 84.3867H438.686C439.115 83.7305 439.76 83.4023 440.619 83.4023C441.428 83.4023 442.057 83.6953 442.506 84.2812C442.959 84.8672 443.186 85.6895 443.186 86.748C443.186 87.8066 442.955 88.6328 442.494 89.2266C442.037 89.8203 441.404 90.1172 440.596 90.1172ZM440.262 84.5273C439.715 84.5273 439.314 84.6875 439.061 85.0078C438.811 85.3281 438.686 85.8398 438.686 86.543V86.748C438.686 87.5371 438.811 88.1094 439.061 88.4648C439.311 88.8164 439.719 88.9922 440.285 88.9922C440.762 88.9922 441.129 88.7969 441.387 88.4062C441.645 88.0156 441.773 87.459 441.773 86.7363C441.773 86.0098 441.645 85.4609 441.387 85.0898C441.133 84.7148 440.758 84.5273 440.262 84.5273Z" fill="#28232D"/>
<rect x="331.5" y="67.5" width="126" height="36" rx="5.5" stroke="#1F8B4D" stroke-opacity="0.4"/>
<rect x="186" y="126" width="107" height="37" rx="6" fill="#12783D"/>
<circle cx="205" cy="142" r="3" fill="white"/>
<path fill-rule="evenodd" clip-rule="evenodd" d="M202.484 146.322C201.024 146.941 200 148.388 200 150.074C200 150.585 200.415 151 200.926 151H209.074C209.585 151 210 150.585 210 150.074C210 148.388 208.976 146.941 207.516 146.322C206.777 146.753 205.917 147 205 147C204.083 147 203.223 146.753 202.484 146.322Z" fill="white"/>
<path d="M225.775 141.512C224.971 141.512 224.338 141.797 223.877 142.367C223.416 142.938 223.186 143.725 223.186 144.729C223.186 145.779 223.406 146.574 223.848 147.113C224.293 147.652 224.936 147.922 225.775 147.922C226.139 147.922 226.49 147.887 226.83 147.816C227.17 147.742 227.523 147.648 227.891 147.535V148.736C227.219 148.99 226.457 149.117 225.605 149.117C224.352 149.117 223.389 148.738 222.717 147.98C222.045 147.219 221.709 146.131 221.709 144.717C221.709 143.826 221.871 143.047 222.195 142.379C222.523 141.711 222.996 141.199 223.613 140.844C224.23 140.488 224.955 140.311 225.787 140.311C226.662 140.311 227.471 140.494 228.213 140.861L227.709 142.027C227.42 141.891 227.113 141.771 226.789 141.67C226.469 141.564 226.131 141.512 225.775 141.512ZM234.16 149L233.967 148.15H233.896C233.705 148.451 233.432 148.688 233.076 148.859C232.725 149.031 232.322 149.117 231.869 149.117C231.084 149.117 230.498 148.922 230.111 148.531C229.725 148.141 229.531 147.549 229.531 146.756V142.52H230.92V146.516C230.92 147.012 231.021 147.385 231.225 147.635C231.428 147.881 231.746 148.004 232.18 148.004C232.758 148.004 233.182 147.832 233.451 147.488C233.725 147.141 233.861 146.561 233.861 145.748V142.52H235.244V149H234.16ZM241.561 147.154C241.561 147.787 241.33 148.273 240.869 148.613C240.408 148.949 239.748 149.117 238.889 149.117C238.025 149.117 237.332 148.986 236.809 148.725V147.535C237.57 147.887 238.279 148.062 238.936 148.062C239.783 148.062 240.207 147.807 240.207 147.295C240.207 147.131 240.16 146.994 240.066 146.885C239.973 146.775 239.818 146.662 239.604 146.545C239.389 146.428 239.09 146.295 238.707 146.146C237.961 145.857 237.455 145.568 237.189 145.279C236.928 144.99 236.797 144.615 236.797 144.154C236.797 143.6 237.02 143.17 237.465 142.865C237.914 142.557 238.523 142.402 239.293 142.402C240.055 142.402 240.775 142.557 241.455 142.865L241.01 143.902C240.311 143.613 239.723 143.469 239.246 143.469C238.52 143.469 238.156 143.676 238.156 144.09C238.156 144.293 238.25 144.465 238.438 144.605C238.629 144.746 239.043 144.939 239.68 145.186C240.215 145.393 240.604 145.582 240.846 145.754C241.088 145.926 241.268 146.125 241.385 146.352C241.502 146.574 241.561 146.842 241.561 147.154ZM245.469 148.004C245.805 148.004 246.141 147.951 246.477 147.846V148.883C246.324 148.949 246.127 149.004 245.885 149.047C245.646 149.094 245.398 149.117 245.141 149.117C243.836 149.117 243.184 148.43 243.184 147.055V143.562H242.299V142.953L243.248 142.449L243.717 141.078H244.566V142.52H246.412V143.562H244.566V147.031C244.566 147.363 244.648 147.609 244.812 147.77C244.98 147.926 245.199 148.004 245.469 148.004ZM253.525 145.748C253.525 146.807 253.254 147.633 252.711 148.227C252.168 148.82 251.412 149.117 250.443 149.117C249.838 149.117 249.303 148.98 248.838 148.707C248.373 148.434 248.016 148.041 247.766 147.529C247.516 147.018 247.391 146.424 247.391 145.748C247.391 144.697 247.66 143.877 248.199 143.287C248.738 142.697 249.498 142.402 250.479 142.402C251.416 142.402 252.158 142.705 252.705 143.311C253.252 143.912 253.525 144.725 253.525 145.748ZM248.809 145.748C248.809 147.244 249.361 147.992 250.467 147.992C251.561 147.992 252.107 147.244 252.107 145.748C252.107 144.268 251.557 143.527 250.455 143.527C249.877 143.527 249.457 143.719 249.195 144.102C248.938 144.484 248.809 145.033 248.809 145.748ZM260.574 149H259.191V145.004C259.191 144.508 259.098 144.139 258.91 143.896C258.723 143.65 258.43 143.527 258.031 143.527C257.5 143.527 257.109 143.701 256.859 144.049C256.613 144.393 256.49 144.967 256.49 145.771V149H255.113V142.52H256.191L256.385 143.369H256.455C256.635 143.061 256.895 142.822 257.234 142.654C257.578 142.486 257.955 142.402 258.365 142.402C259.361 142.402 260.021 142.742 260.346 143.422H260.439C260.631 143.102 260.9 142.852 261.248 142.672C261.596 142.492 261.994 142.402 262.443 142.402C263.217 142.402 263.779 142.598 264.131 142.988C264.486 143.379 264.664 143.975 264.664 144.775V149H263.287V145.004C263.287 144.508 263.191 144.139 263 143.896C262.812 143.65 262.52 143.527 262.121 143.527C261.586 143.527 261.193 143.695 260.943 144.031C260.697 144.363 260.574 144.875 260.574 145.566V149ZM269.416 149.117C268.408 149.117 267.619 148.824 267.049 148.238C266.482 147.648 266.199 146.838 266.199 145.807C266.199 144.748 266.463 143.916 266.99 143.311C267.518 142.705 268.242 142.402 269.164 142.402C270.02 142.402 270.695 142.662 271.191 143.182C271.688 143.701 271.936 144.416 271.936 145.326V146.07H267.617C267.637 146.699 267.807 147.184 268.127 147.523C268.447 147.859 268.898 148.027 269.48 148.027C269.863 148.027 270.219 147.992 270.547 147.922C270.879 147.848 271.234 147.727 271.613 147.559V148.678C271.277 148.838 270.938 148.951 270.594 149.018C270.25 149.084 269.857 149.117 269.416 149.117ZM269.164 143.445C268.727 143.445 268.375 143.584 268.109 143.861C267.848 144.139 267.691 144.543 267.641 145.074H270.582C270.574 144.539 270.445 144.135 270.195 143.861C269.945 143.584 269.602 143.445 269.164 143.445ZM276.787 142.402C277.064 142.402 277.293 142.422 277.473 142.461L277.338 143.744C277.143 143.697 276.939 143.674 276.729 143.674C276.178 143.674 275.73 143.854 275.387 144.213C275.047 144.572 274.877 145.039 274.877 145.613V149H273.5V142.52H274.578L274.76 143.662H274.83C275.045 143.275 275.324 142.969 275.668 142.742C276.016 142.516 276.389 142.402 276.787 142.402Z" fill="white"/>
<path d="M393.681 63.8297C394.079 64.3984 394.921 64.3984 395.319 63.8297L396.899 61.5735C397.363 60.9107 396.888 60 396.079 60L392.921 60C392.112 60 391.637 60.9107 392.101 61.5735L393.681 63.8297Z" fill="#28232D"/>
<path fill-rule="evenodd" clip-rule="evenodd" d="M395 57.5003L395 60L394 59.9999L394 57.5002C394 54.4626 391.538 52 388.5 52L253.5 52C249.91 52 247 49.09 247 45.5002L247 40L248 40L248 45.5002C248 48.5377 250.463 51 253.5 51L388.5 51C392.09 51 395.001 53.9103 395 57.5003Z" fill="#28232D"/>
<path d="M390.681 189.83C391.079 190.398 391.921 190.398 392.319 189.83L393.899 187.573C394.363 186.911 393.888 186 393.079 186L389.921 186C389.112 186 388.637 186.911 389.101 187.573L390.681 189.83Z" fill="#28232D"/>
<path fill-rule="evenodd" clip-rule="evenodd" d="M392 183.5L392 186L391 186L391 183.5C391 180.463 388.538 178 385.5 178L253.5 178C249.91 178 247 175.09 247 171.5L247 166L248 166L248 171.5C248 174.538 250.463 177 253.5 177L385.5 177C389.09 177 392.001 179.91 392 183.5Z" fill="#28232D"/>
<path d="M90.3192 63.8297C89.9211 64.3984 89.0789 64.3984 88.6808 63.8297L87.1014 61.5735C86.6375 60.9107 87.1116 60 87.9207 60L91.0793 60C91.8884 60 92.3625 60.9107 91.8986 61.5735L90.3192 63.8297Z" fill="#28232D"/>
<path fill-rule="evenodd" clip-rule="evenodd" d="M88.9997 57.5003L88.9998 60L89.9998 59.9999L89.9997 57.5002C89.9995 54.4626 92.462 52 95.4997 52L225.5 52C229.09 52 232 49.09 232 45.5002L232 40L231 40L231 45.5002C231 48.5377 228.537 51 225.5 51L95.4997 51C91.9097 51 88.9995 53.9103 88.9997 57.5003Z" fill="#28232D"/>
<path d="M93.3192 189.83C92.9211 190.398 92.0789 190.398 91.6808 189.83L90.1014 187.573C89.6375 186.911 90.1116 186 90.9207 186L94.0793 186C94.8884 186 95.3625 186.911 94.8986 187.573L93.3192 189.83Z" fill="#28232D"/>
<path fill-rule="evenodd" clip-rule="evenodd" d="M91.9997 183.5L91.9998 186L92.9998 186L92.9997 183.5C92.9995 180.463 95.462 178 98.4997 178L225.5 178C229.09 178 232 175.09 232 171.5L232 166L231 166L231 171.5C231 174.538 228.537 177 225.5 177L98.4997 177C94.9097 177 91.9995 179.91 91.9997 183.5Z" fill="#28232D"/>
<path fill-rule="evenodd" clip-rule="evenodd" d="M240 60L240 40H239L239 60H240Z" fill="#28232D"/>
<path d="M240.319 63.8297C239.921 64.3984 239.079 64.3984 238.681 63.8297L237.101 61.5735C236.637 60.9107 237.112 60 237.921 60L241.079 60C241.888 60 242.363 60.9107 241.899 61.5735L240.319 63.8297Z" fill="#28232D"/>
<path fill-rule="evenodd" clip-rule="evenodd" d="M240 186L240 166H239L239 186H240Z" fill="#28232D"/>
<path d="M240.319 189.83C239.921 190.398 239.079 190.398 238.681 189.83L237.101 187.573C236.637 186.911 237.112 186 237.921 186L241.079 186C241.888 186 242.363 186.911 241.899 187.573L240.319 189.83Z" fill="#28232D"/>
<path fill-rule="evenodd" clip-rule="evenodd" d="M240 119L240 107H239L239 119H240Z" fill="#28232D"/>
<path d="M240.319 122.83C239.921 123.398 239.079 123.398 238.681 122.83L237.101 120.573C236.637 119.911 237.112 119 237.921 119L241.079 119C241.888 119 242.363 119.911 241.899 120.573L240.319 122.83Z" fill="#28232D"/>
</svg>
