<svg width="282" height="225" viewBox="0 0 282 225" fill="none" xmlns="http://www.w3.org/2000/svg">
<g clip-path="url(#clip0)">
<rect width="282" height="225" fill="white"/>
<rect width="282" height="256" rx="4" fill="white"/>
<rect y="8" width="282" height="48" fill="black" fill-opacity="0.04"/>
<path opacity="0.83" d="M26.0625 38H24.5547L18.8281 29.2344V38H17.3203V26.625H18.8281L24.5703 35.4297V26.625H26.0625V38ZM28.7266 38V26.625H32.4453C33.6797 26.625 34.6068 26.8802 35.2266 27.3906C35.8516 27.901 36.1641 28.6562 36.1641 29.6562C36.1641 30.1875 36.013 30.6589 35.7109 31.0703C35.4089 31.4766 34.9974 31.7917 34.4766 32.0156C35.0911 32.1875 35.5755 32.5156 35.9297 33C36.2891 33.4792 36.4688 34.0521 36.4688 34.7188C36.4688 35.7396 36.138 36.5417 35.4766 37.125C34.8151 37.7083 33.8802 38 32.6719 38H28.7266ZM30.2266 32.6797V36.7734H32.7031C33.401 36.7734 33.9505 36.5938 34.3516 36.2344C34.7578 35.8698 34.9609 35.3698 34.9609 34.7344C34.9609 33.3646 34.2161 32.6797 32.7266 32.6797H30.2266ZM30.2266 31.4766H32.4922C33.1484 31.4766 33.6719 31.3125 34.0625 30.9844C34.4583 30.6562 34.6562 30.2109 34.6562 29.6484C34.6562 29.0234 34.474 28.5703 34.1094 28.2891C33.7448 28.0026 33.1901 27.8594 32.4453 27.8594H30.2266V31.4766ZM41.4766 33.7578H37.6641V32.5781H41.4766V33.7578ZM44.7266 38H43.2266V26.625H44.7266V38ZM46.8672 33.6953C46.8672 32.8672 47.0286 32.1224 47.3516 31.4609C47.6797 30.7995 48.1328 30.2891 48.7109 29.9297C49.2943 29.5703 49.9583 29.3906 50.7031 29.3906C51.8542 29.3906 52.7839 29.7891 53.4922 30.5859C54.2057 31.3828 54.5625 32.4427 54.5625 33.7656V33.8672C54.5625 34.6901 54.4036 35.4297 54.0859 36.0859C53.7734 36.737 53.3229 37.2448 52.7344 37.6094C52.151 37.974 51.4792 38.1562 50.7188 38.1562C49.5729 38.1562 48.6432 37.7578 47.9297 36.9609C47.2214 36.1641 46.8672 35.1094 46.8672 33.7969V33.6953ZM48.3203 33.8672C48.3203 34.8047 48.5365 35.5573 48.9688 36.125C49.4062 36.6927 49.9896 36.9766 50.7188 36.9766C51.4531 36.9766 52.0365 36.6901 52.4688 36.1172C52.901 35.5391 53.1172 34.7318 53.1172 33.6953C53.1172 32.7682 52.8958 32.0182 52.4531 31.4453C52.0156 30.8672 51.4323 30.5781 50.7031 30.5781C49.9896 30.5781 49.4141 30.862 48.9766 31.4297C48.5391 31.9974 48.3203 32.8099 48.3203 33.8672ZM64.4609 27.8594H60.8047V38H59.3125V27.8594H55.6641V26.625H64.4609V27.8594Z" fill="black"/>
<rect width="282" height="48" transform="translate(0 56)" fill="white"/>
<path opacity="0.83" d="M18.8281 84.7734H24.2188V86H17.3203V74.625H18.8281V84.7734ZM25.3203 81.6953C25.3203 80.8672 25.4818 80.1224 25.8047 79.4609C26.1328 78.7995 26.5859 78.2891 27.1641 77.9297C27.7474 77.5703 28.4115 77.3906 29.1562 77.3906C30.3073 77.3906 31.237 77.7891 31.9453 78.5859C32.6589 79.3828 33.0156 80.4427 33.0156 81.7656V81.8672C33.0156 82.6901 32.8568 83.4297 32.5391 84.0859C32.2266 84.737 31.776 85.2448 31.1875 85.6094C30.6042 85.974 29.9323 86.1562 29.1719 86.1562C28.026 86.1562 27.0964 85.7578 26.3828 84.9609C25.6745 84.1641 25.3203 83.1094 25.3203 81.7969V81.6953ZM26.7734 81.8672C26.7734 82.8047 26.9896 83.5573 27.4219 84.125C27.8594 84.6927 28.4427 84.9766 29.1719 84.9766C29.9062 84.9766 30.4896 84.6901 30.9219 84.1172C31.3542 83.5391 31.5703 82.7318 31.5703 81.6953C31.5703 80.7682 31.349 80.0182 30.9062 79.4453C30.4688 78.8672 29.8854 78.5781 29.1562 78.5781C28.4427 78.5781 27.8672 78.862 27.4297 79.4297C26.9922 79.9974 26.7734 80.8099 26.7734 81.8672ZM39.2266 81.3984H36.5547V86H35.0469V74.625H38.8125C40.0938 74.625 41.0781 74.9167 41.7656 75.5C42.4583 76.0833 42.8047 76.9323 42.8047 78.0469C42.8047 78.7552 42.612 79.3724 42.2266 79.8984C41.8464 80.4245 41.3151 80.8177 40.6328 81.0781L43.3047 85.9062V86H41.6953L39.2266 81.3984ZM36.5547 80.1719H38.8594C39.6042 80.1719 40.1953 79.9792 40.6328 79.5938C41.0755 79.2083 41.2969 78.6927 41.2969 78.0469C41.2969 77.3438 41.0859 76.8047 40.6641 76.4297C40.2474 76.0547 39.6432 75.8646 38.8516 75.8594H36.5547V80.1719ZM49.9062 86C49.8229 85.8333 49.7552 85.5365 49.7031 85.1094C49.0312 85.8073 48.2292 86.1562 47.2969 86.1562C46.4635 86.1562 45.7786 85.9219 45.2422 85.4531C44.7109 84.9792 44.4453 84.3802 44.4453 83.6562C44.4453 82.776 44.7786 82.0938 45.4453 81.6094C46.1172 81.1198 47.0599 80.875 48.2734 80.875H49.6797V80.2109C49.6797 79.7057 49.5286 79.3047 49.2266 79.0078C48.9245 78.7057 48.4792 78.5547 47.8906 78.5547C47.375 78.5547 46.9427 78.6849 46.5938 78.9453C46.2448 79.2057 46.0703 79.5208 46.0703 79.8906H44.6172C44.6172 79.4688 44.7656 79.0625 45.0625 78.6719C45.3646 78.276 45.7708 77.9635 46.2812 77.7344C46.7969 77.5052 47.362 77.3906 47.9766 77.3906C48.9505 77.3906 49.7135 77.6354 50.2656 78.125C50.8177 78.6094 51.1042 79.2786 51.125 80.1328V84.0234C51.125 84.7995 51.224 85.4167 51.4219 85.875V86H49.9062ZM47.5078 84.8984C47.9609 84.8984 48.3906 84.7812 48.7969 84.5469C49.2031 84.3125 49.4974 84.0078 49.6797 83.6328V81.8984H48.5469C46.776 81.8984 45.8906 82.4167 45.8906 83.4531C45.8906 83.9062 46.0417 84.2604 46.3438 84.5156C46.6458 84.7708 47.0339 84.8984 47.5078 84.8984ZM56.0703 82.4141L56.2891 83.9141L56.6094 82.5625L58.8594 74.625H60.125L62.3203 82.5625L62.6328 83.9375L62.875 82.4062L64.6406 74.625H66.1484L63.3906 86H62.0234L59.6797 77.7109L59.5 76.8438L59.3203 77.7109L56.8906 86H55.5234L52.7734 74.625H54.2734L56.0703 82.4141ZM73.7578 83.0312H68.9922L67.9219 86H66.375L70.7188 74.625H72.0312L76.3828 86H74.8438L73.7578 83.0312ZM69.4453 81.7969H73.3125L71.375 76.4766L69.4453 81.7969ZM86.6562 86H85.1484L79.4219 77.2344V86H77.9141V74.625H79.4219L85.1641 83.4297V74.625H86.6562V86Z" fill="black"/>
<rect width="282" height="48" transform="translate(0 104)" fill="white"/>
<path opacity="0.83" d="M23.6016 131.031H18.8359L17.7656 134H16.2188L20.5625 122.625H21.875L26.2266 134H24.6875L23.6016 131.031ZM19.2891 129.797H23.1562L21.2188 124.477L19.2891 129.797ZM29.6641 130.414L29.8828 131.914L30.2031 130.562L32.4531 122.625H33.7188L35.9141 130.562L36.2266 131.938L36.4688 130.406L38.2344 122.625H39.7422L36.9844 134H35.6172L33.2734 125.711L33.0938 124.844L32.9141 125.711L30.4844 134H29.1172L26.3672 122.625H27.8672L29.6641 130.414ZM44.7656 128.93C43.4792 128.56 42.5417 128.107 41.9531 127.57C41.3698 127.029 41.0781 126.362 41.0781 125.57C41.0781 124.674 41.4349 123.935 42.1484 123.352C42.8672 122.763 43.7995 122.469 44.9453 122.469C45.7266 122.469 46.4219 122.62 47.0312 122.922C47.6458 123.224 48.1198 123.641 48.4531 124.172C48.7917 124.703 48.9609 125.284 48.9609 125.914H47.4531C47.4531 125.227 47.2344 124.688 46.7969 124.297C46.3594 123.901 45.7422 123.703 44.9453 123.703C44.2057 123.703 43.6276 123.867 43.2109 124.195C42.7995 124.518 42.5938 124.969 42.5938 125.547C42.5938 126.01 42.7891 126.404 43.1797 126.727C43.5755 127.044 44.2448 127.336 45.1875 127.602C46.1354 127.867 46.875 128.161 47.4062 128.484C47.9427 128.802 48.3385 129.174 48.5938 129.602C48.8542 130.029 48.9844 130.531 48.9844 131.109C48.9844 132.031 48.625 132.771 47.9062 133.328C47.1875 133.88 46.2266 134.156 45.0234 134.156C44.2422 134.156 43.513 134.008 42.8359 133.711C42.1589 133.409 41.6354 132.997 41.2656 132.477C40.901 131.956 40.7188 131.365 40.7188 130.703H42.2266C42.2266 131.391 42.4792 131.935 42.9844 132.336C43.4948 132.732 44.1745 132.93 45.0234 132.93C45.8151 132.93 46.4219 132.768 46.8438 132.445C47.2656 132.122 47.4766 131.682 47.4766 131.125C47.4766 130.568 47.2812 130.138 46.8906 129.836C46.5 129.529 45.7917 129.227 44.7656 128.93ZM56.4922 134H54.9922V122.625H56.4922V134ZM58.6328 129.695C58.6328 128.867 58.7943 128.122 59.1172 127.461C59.4453 126.799 59.8984 126.289 60.4766 125.93C61.0599 125.57 61.724 125.391 62.4688 125.391C63.6198 125.391 64.5495 125.789 65.2578 126.586C65.9714 127.383 66.3281 128.443 66.3281 129.766V129.867C66.3281 130.69 66.1693 131.43 65.8516 132.086C65.5391 132.737 65.0885 133.245 64.5 133.609C63.9167 133.974 63.2448 134.156 62.4844 134.156C61.3385 134.156 60.4089 133.758 59.6953 132.961C58.987 132.164 58.6328 131.109 58.6328 129.797V129.695ZM60.0859 129.867C60.0859 130.805 60.3021 131.557 60.7344 132.125C61.1719 132.693 61.7552 132.977 62.4844 132.977C63.2188 132.977 63.8021 132.69 64.2344 132.117C64.6667 131.539 64.8828 130.732 64.8828 129.695C64.8828 128.768 64.6615 128.018 64.2188 127.445C63.7812 126.867 63.1979 126.578 62.4688 126.578C61.7552 126.578 61.1797 126.862 60.7422 127.43C60.3047 127.997 60.0859 128.81 60.0859 129.867ZM76.2266 123.859H72.5703V134H71.0781V123.859H67.4297V122.625H76.2266V123.859Z" fill="black"/>
<rect width="282" height="48" transform="translate(0 152)" fill="white"/>
<path opacity="0.83" d="M19.2578 170.625L22.9766 179.906L26.6953 170.625H28.6406V182H27.1406V177.57L27.2812 172.789L23.5469 182H22.3984L18.6719 172.812L18.8203 177.57V182H17.3203V170.625H19.2578ZM32.6328 182H31.1875V173.547H32.6328V182ZM31.0703 171.305C31.0703 171.07 31.1406 170.872 31.2812 170.711C31.4271 170.549 31.6406 170.469 31.9219 170.469C32.2031 170.469 32.4167 170.549 32.5625 170.711C32.7083 170.872 32.7812 171.07 32.7812 171.305C32.7812 171.539 32.7083 171.734 32.5625 171.891C32.4167 172.047 32.2031 172.125 31.9219 172.125C31.6406 172.125 31.4271 172.047 31.2812 171.891C31.1406 171.734 31.0703 171.539 31.0703 171.305ZM38.3438 180.977C38.8594 180.977 39.3099 180.82 39.6953 180.508C40.0807 180.195 40.2943 179.805 40.3359 179.336H41.7031C41.6771 179.82 41.5104 180.281 41.2031 180.719C40.8958 181.156 40.4844 181.505 39.9688 181.766C39.4583 182.026 38.9167 182.156 38.3438 182.156C37.1927 182.156 36.276 181.773 35.5938 181.008C34.9167 180.237 34.5781 179.185 34.5781 177.852V177.609C34.5781 176.786 34.7292 176.055 35.0312 175.414C35.3333 174.773 35.7656 174.276 36.3281 173.922C36.8958 173.568 37.5651 173.391 38.3359 173.391C39.2839 173.391 40.0703 173.674 40.6953 174.242C41.3255 174.81 41.6615 175.547 41.7031 176.453H40.3359C40.2943 175.906 40.0859 175.458 39.7109 175.109C39.3411 174.755 38.8828 174.578 38.3359 174.578C37.6016 174.578 37.0312 174.844 36.625 175.375C36.224 175.901 36.0234 176.664 36.0234 177.664V177.938C36.0234 178.911 36.224 179.661 36.625 180.188C37.026 180.714 37.599 180.977 38.3438 180.977ZM47.4141 174.844C47.1953 174.807 46.9583 174.789 46.7031 174.789C45.7552 174.789 45.112 175.193 44.7734 176V182H43.3281V173.547H44.7344L44.7578 174.523C45.2318 173.768 45.9036 173.391 46.7734 173.391C47.0547 173.391 47.2682 173.427 47.4141 173.5V174.844ZM48.2109 177.695C48.2109 176.867 48.3724 176.122 48.6953 175.461C49.0234 174.799 49.4766 174.289 50.0547 173.93C50.638 173.57 51.3021 173.391 52.0469 173.391C53.1979 173.391 54.1276 173.789 54.8359 174.586C55.5495 175.383 55.9062 176.443 55.9062 177.766V177.867C55.9062 178.69 55.7474 179.43 55.4297 180.086C55.1172 180.737 54.6667 181.245 54.0781 181.609C53.4948 181.974 52.8229 182.156 52.0625 182.156C50.9167 182.156 49.987 181.758 49.2734 180.961C48.5651 180.164 48.2109 179.109 48.2109 177.797V177.695ZM49.6641 177.867C49.6641 178.805 49.8802 179.557 50.3125 180.125C50.75 180.693 51.3333 180.977 52.0625 180.977C52.7969 180.977 53.3802 180.69 53.8125 180.117C54.2448 179.539 54.4609 178.732 54.4609 177.695C54.4609 176.768 54.2396 176.018 53.7969 175.445C53.3594 174.867 52.776 174.578 52.0469 174.578C51.3333 174.578 50.7578 174.862 50.3203 175.43C49.8828 175.997 49.6641 176.81 49.6641 177.867ZM62.6406 179.758C62.6406 179.367 62.4922 179.065 62.1953 178.852C61.9036 178.633 61.3906 178.445 60.6562 178.289C59.9271 178.133 59.3464 177.945 58.9141 177.727C58.487 177.508 58.1693 177.247 57.9609 176.945C57.7578 176.643 57.6562 176.284 57.6562 175.867C57.6562 175.174 57.9479 174.589 58.5312 174.109C59.1198 173.63 59.8698 173.391 60.7812 173.391C61.7396 173.391 62.5156 173.638 63.1094 174.133C63.7083 174.628 64.0078 175.26 64.0078 176.031H62.5547C62.5547 175.635 62.3854 175.294 62.0469 175.008C61.7135 174.721 61.2917 174.578 60.7812 174.578C60.2552 174.578 59.8438 174.693 59.5469 174.922C59.25 175.151 59.1016 175.451 59.1016 175.82C59.1016 176.169 59.2396 176.432 59.5156 176.609C59.7917 176.786 60.2891 176.956 61.0078 177.117C61.7318 177.279 62.3177 177.471 62.7656 177.695C63.2135 177.919 63.5443 178.19 63.7578 178.508C63.9766 178.82 64.0859 179.203 64.0859 179.656C64.0859 180.411 63.7839 181.018 63.1797 181.477C62.5755 181.93 61.7917 182.156 60.8281 182.156C60.151 182.156 59.5521 182.036 59.0312 181.797C58.5104 181.557 58.1016 181.224 57.8047 180.797C57.513 180.365 57.3672 179.898 57.3672 179.398H58.8125C58.8385 179.883 59.0312 180.268 59.3906 180.555C59.7552 180.836 60.2344 180.977 60.8281 180.977C61.375 180.977 61.8125 180.867 62.1406 180.648C62.474 180.424 62.6406 180.128 62.6406 179.758ZM65.5859 177.695C65.5859 176.867 65.7474 176.122 66.0703 175.461C66.3984 174.799 66.8516 174.289 67.4297 173.93C68.013 173.57 68.6771 173.391 69.4219 173.391C70.5729 173.391 71.5026 173.789 72.2109 174.586C72.9245 175.383 73.2812 176.443 73.2812 177.766V177.867C73.2812 178.69 73.1224 179.43 72.8047 180.086C72.4922 180.737 72.0417 181.245 71.4531 181.609C70.8698 181.974 70.1979 182.156 69.4375 182.156C68.2917 182.156 67.362 181.758 66.6484 180.961C65.9401 180.164 65.5859 179.109 65.5859 177.797V177.695ZM67.0391 177.867C67.0391 178.805 67.2552 179.557 67.6875 180.125C68.125 180.693 68.7083 180.977 69.4375 180.977C70.1719 180.977 70.7552 180.69 71.1875 180.117C71.6198 179.539 71.8359 178.732 71.8359 177.695C71.8359 176.768 71.6146 176.018 71.1719 175.445C70.7344 174.867 70.151 174.578 69.4219 174.578C68.7083 174.578 68.1328 174.862 67.6953 175.43C67.2578 175.997 67.0391 176.81 67.0391 177.867ZM75.8047 182V174.664H74.4688V173.547H75.8047V172.68C75.8047 171.773 76.0469 171.073 76.5312 170.578C77.0156 170.083 77.7005 169.836 78.5859 169.836C78.9193 169.836 79.25 169.88 79.5781 169.969L79.5 171.141C79.2552 171.094 78.9948 171.07 78.7188 171.07C78.25 171.07 77.888 171.208 77.6328 171.484C77.3776 171.755 77.25 172.146 77.25 172.656V173.547H79.0547V174.664H77.25V182H75.8047ZM82.6172 171.5V173.547H84.1953V174.664H82.6172V179.906C82.6172 180.245 82.6875 180.5 82.8281 180.672C82.9688 180.839 83.2083 180.922 83.5469 180.922C83.7135 180.922 83.9427 180.891 84.2344 180.828V182C83.8542 182.104 83.4844 182.156 83.125 182.156C82.4792 182.156 81.9922 181.961 81.6641 181.57C81.3359 181.18 81.1719 180.625 81.1719 179.906V174.664H79.6328V173.547H81.1719V171.5H82.6172ZM96.3672 179.031H91.6016L90.5312 182H88.9844L93.3281 170.625H94.6406L98.9922 182H97.4531L96.3672 179.031ZM92.0547 177.797H95.9219L93.9844 172.477L92.0547 177.797ZM101.75 180.82H106.695V182H99.9844V180.938L104.648 174.742H100.055V173.547H106.461V174.57L101.75 180.82ZM113.547 181.164C112.984 181.826 112.159 182.156 111.07 182.156C110.169 182.156 109.482 181.896 109.008 181.375C108.539 180.849 108.302 180.073 108.297 179.047V173.547H109.742V179.008C109.742 180.289 110.263 180.93 111.305 180.93C112.409 180.93 113.143 180.518 113.508 179.695V173.547H114.953V182H113.578L113.547 181.164ZM121.242 174.844C121.023 174.807 120.786 174.789 120.531 174.789C119.583 174.789 118.94 175.193 118.602 176V182H117.156V173.547H118.562L118.586 174.523C119.06 173.768 119.732 173.391 120.602 173.391C120.883 173.391 121.096 173.427 121.242 173.5V174.844ZM125.93 182.156C124.784 182.156 123.852 181.781 123.133 181.031C122.414 180.276 122.055 179.268 122.055 178.008V177.742C122.055 176.904 122.214 176.156 122.531 175.5C122.854 174.839 123.302 174.323 123.875 173.953C124.453 173.578 125.078 173.391 125.75 173.391C126.849 173.391 127.703 173.753 128.312 174.477C128.922 175.201 129.227 176.237 129.227 177.586V178.188H123.5C123.521 179.021 123.763 179.695 124.227 180.211C124.695 180.721 125.289 180.977 126.008 180.977C126.518 180.977 126.951 180.872 127.305 180.664C127.659 180.456 127.969 180.18 128.234 179.836L129.117 180.523C128.409 181.612 127.346 182.156 125.93 182.156ZM125.75 174.578C125.167 174.578 124.677 174.792 124.281 175.219C123.885 175.641 123.641 176.234 123.547 177H127.781V176.891C127.74 176.156 127.542 175.589 127.188 175.188C126.833 174.781 126.354 174.578 125.75 174.578Z" fill="black"/>
<rect width="282" height="48" transform="translate(0 200)" fill="white"/>
<path opacity="0.83" d="M20.6719 224.93C19.3854 224.56 18.4479 224.107 17.8594 223.57C17.276 223.029 16.9844 222.362 16.9844 221.57C16.9844 220.674 17.3411 219.935 18.0547 219.352C18.7734 218.763 19.7057 218.469 20.8516 218.469C21.6328 218.469 22.3281 218.62 22.9375 218.922C23.5521 219.224 24.026 219.641 24.3594 220.172C24.6979 220.703 24.8672 221.284 24.8672 221.914H23.3594C23.3594 221.227 23.1406 220.688 22.7031 220.297C22.2656 219.901 21.6484 219.703 20.8516 219.703C20.112 219.703 19.5339 219.867 19.1172 220.195C18.7057 220.518 18.5 220.969 18.5 221.547C18.5 222.01 18.6953 222.404 19.0859 222.727C19.4818 223.044 20.151 223.336 21.0938 223.602C22.0417 223.867 22.7812 224.161 23.3125 224.484C23.849 224.802 24.2448 225.174 24.5 225.602C24.7604 226.029 24.8906 226.531 24.8906 227.109C24.8906 228.031 24.5312 228.771 23.8125 229.328C23.0938 229.88 22.1328 230.156 20.9297 230.156C20.1484 230.156 19.4193 230.008 18.7422 229.711C18.0651 229.409 17.5417 228.997 17.1719 228.477C16.8073 227.956 16.625 227.365 16.625 226.703H18.1328C18.1328 227.391 18.3854 227.935 18.8906 228.336C19.401 228.732 20.0807 228.93 20.9297 228.93C21.7214 228.93 22.3281 228.768 22.75 228.445C23.1719 228.122 23.3828 227.682 23.3828 227.125C23.3828 226.568 23.1875 226.138 22.7969 225.836C22.4062 225.529 21.6979 225.227 20.6719 224.93ZM28.1641 230H26.7188V221.547H28.1641V230ZM26.6016 219.305C26.6016 219.07 26.6719 218.872 26.8125 218.711C26.9583 218.549 27.1719 218.469 27.4531 218.469C27.7344 218.469 27.9479 218.549 28.0938 218.711C28.2396 218.872 28.3125 219.07 28.3125 219.305C28.3125 219.539 28.2396 219.734 28.0938 219.891C27.9479 220.047 27.7344 220.125 27.4531 220.125C27.1719 220.125 26.9583 220.047 26.8125 219.891C26.6719 219.734 26.6016 219.539 26.6016 219.305ZM30.1406 225.703C30.1406 224.385 30.4453 223.339 31.0547 222.562C31.6641 221.781 32.4714 221.391 33.4766 221.391C34.5078 221.391 35.3125 221.755 35.8906 222.484L35.9609 221.547H37.2812V229.797C37.2812 230.891 36.9557 231.753 36.3047 232.383C35.6589 233.013 34.7891 233.328 33.6953 233.328C33.0859 233.328 32.4896 233.198 31.9062 232.938C31.3229 232.677 30.8776 232.32 30.5703 231.867L31.3203 231C31.9401 231.766 32.6979 232.148 33.5938 232.148C34.2969 232.148 34.8438 231.951 35.2344 231.555C35.6302 231.159 35.8281 230.602 35.8281 229.883V229.156C35.25 229.823 34.4609 230.156 33.4609 230.156C32.4714 230.156 31.6693 229.758 31.0547 228.961C30.4453 228.164 30.1406 227.078 30.1406 225.703ZM31.5938 225.867C31.5938 226.82 31.7891 227.57 32.1797 228.117C32.5703 228.659 33.1172 228.93 33.8203 228.93C34.7318 228.93 35.401 228.516 35.8281 227.688V223.828C35.3854 223.021 34.7214 222.617 33.8359 222.617C33.1328 222.617 32.5833 222.891 32.1875 223.438C31.7917 223.984 31.5938 224.794 31.5938 225.867ZM40.1797 230V222.664H38.8438V221.547H40.1797V220.68C40.1797 219.773 40.4219 219.073 40.9062 218.578C41.3906 218.083 42.0755 217.836 42.9609 217.836C43.2943 217.836 43.625 217.88 43.9531 217.969L43.875 219.141C43.6302 219.094 43.3698 219.07 43.0938 219.07C42.625 219.07 42.263 219.208 42.0078 219.484C41.7526 219.755 41.625 220.146 41.625 220.656V221.547H43.4297V222.664H41.625V230H40.1797ZM44.6484 225.695C44.6484 224.867 44.8099 224.122 45.1328 223.461C45.4609 222.799 45.9141 222.289 46.4922 221.93C47.0755 221.57 47.7396 221.391 48.4844 221.391C49.6354 221.391 50.5651 221.789 51.2734 222.586C51.987 223.383 52.3438 224.443 52.3438 225.766V225.867C52.3438 226.69 52.1849 227.43 51.8672 228.086C51.5547 228.737 51.1042 229.245 50.5156 229.609C49.9323 229.974 49.2604 230.156 48.5 230.156C47.3542 230.156 46.4245 229.758 45.7109 228.961C45.0026 228.164 44.6484 227.109 44.6484 225.797V225.695ZM46.1016 225.867C46.1016 226.805 46.3177 227.557 46.75 228.125C47.1875 228.693 47.7708 228.977 48.5 228.977C49.2344 228.977 49.8177 228.69 50.25 228.117C50.6823 227.539 50.8984 226.732 50.8984 225.695C50.8984 224.768 50.6771 224.018 50.2344 223.445C49.7969 222.867 49.2135 222.578 48.4844 222.578C47.7708 222.578 47.1953 222.862 46.7578 223.43C46.3203 223.997 46.1016 224.81 46.1016 225.867ZM56.8203 224.633L58.6953 221.547H60.3828L57.6172 225.727L60.4688 230H58.7969L56.8438 226.836L54.8906 230H53.2109L56.0625 225.727L53.2969 221.547H54.9688L56.8203 224.633Z" fill="black"/>
<rect opacity="0.17" x="274" y="13" width="3" height="53" rx="1.5" fill="black"/>
</g>
<defs>
<clipPath id="clip0">
<rect width="282" height="225" fill="white"/>
</clipPath>
</defs>
</svg>
