<svg width="60" height="60" viewBox="0 0 60 60" fill="none" xmlns="http://www.w3.org/2000/svg">
<path fill-rule="evenodd" clip-rule="evenodd" d="M30 19C23.9249 19 19 23.9249 19 30C19 36.0751 23.9249 41 30 41C36.0751 41 41 36.0751 41 30C41 23.9249 36.0751 19 30 19ZM30 15C21.7157 15 15 21.7157 15 30C15 38.2843 21.7157 45 30 45C38.2843 45 45 38.2843 45 30C45 21.7157 38.2843 15 30 15Z" fill="#0D2743"/>
<path fill-rule="evenodd" clip-rule="evenodd" d="M15.5039 46.3359L21.5039 37.3359L26.4962 40.6641L20.4962 49.6641L15.5039 46.3359Z" fill="#0D2743"/>
<path fill-rule="evenodd" clip-rule="evenodd" d="M21.4805 21.1306L13.2305 8.3806L18.2679 5.12109L26.5179 17.8711L21.4805 21.1306Z" fill="#0D2743"/>
<path fill-rule="evenodd" clip-rule="evenodd" d="M16.2715 31.4911L6.52148 30.7411L6.98166 24.7588L16.7317 25.5088L16.2715 31.4911Z" fill="#0D2743"/>
<path d="M51 53.25C51 55.3211 49.3211 57 47.25 57C45.1789 57 43.5 55.3211 43.5 53.25C43.5 51.1789 45.1789 49.5 47.25 49.5C49.3211 49.5 51 51.1789 51 53.25Z" fill="#305680"/>
<path d="M19.5 6.75C19.5 8.82107 17.8211 10.5 15.75 10.5C13.6789 10.5 12 8.82107 12 6.75C12 4.67893 13.6789 3 15.75 3C17.8211 3 19.5 4.67893 19.5 6.75Z" fill="#305680"/>
<path d="M10.5 27.75C10.5 29.8211 8.82107 31.5 6.75 31.5C4.67893 31.5 3 29.8211 3 27.75C3 25.6789 4.67893 24 6.75 24C8.82107 24 10.5 25.6789 10.5 27.75Z" fill="#305680"/>
<path fill-rule="evenodd" clip-rule="evenodd" d="M37 20.75L44.5 14L48.5138 18.4598L41.0138 25.2098L37 20.75Z" fill="#0D2743"/>
<path fill-rule="evenodd" clip-rule="evenodd" d="M39.8768 37.9219L47.3768 47.6719L42.6211 51.3301L35.1211 41.5801L39.8768 37.9219Z" fill="#0D2743"/>
<path fill-rule="evenodd" clip-rule="evenodd" d="M15.75 6C15.3358 6 15 6.33579 15 6.75C15 7.16421 15.3358 7.5 15.75 7.5C16.1642 7.5 16.5 7.16421 16.5 6.75C16.5 6.33579 16.1642 6 15.75 6ZM9 6.75C9 3.02208 12.0221 0 15.75 0C19.4779 0 22.5 3.02208 22.5 6.75C22.5 10.4779 19.4779 13.5 15.75 13.5C12.0221 13.5 9 10.4779 9 6.75Z" fill="#305680"/>
<path fill-rule="evenodd" clip-rule="evenodd" d="M6.75 27C6.33579 27 6 27.3358 6 27.75C6 28.1642 6.33579 28.5 6.75 28.5C7.16421 28.5 7.5 28.1642 7.5 27.75C7.5 27.3358 7.16421 27 6.75 27ZM0 27.75C0 24.0221 3.02208 21 6.75 21C10.4779 21 13.5 24.0221 13.5 27.75C13.5 31.4779 10.4779 34.5 6.75 34.5C3.02208 34.5 0 31.4779 0 27.75Z" fill="#305680"/>
<path fill-rule="evenodd" clip-rule="evenodd" d="M15.5 49C13.567 49 12 50.567 12 52.5C12 54.433 13.567 56 15.5 56C17.433 56 19 54.433 19 52.5C19 50.567 17.433 49 15.5 49ZM15.5 45C11.3579 45 8 48.3579 8 52.5C8 56.6421 11.3579 60 15.5 60C19.6421 60 23 56.6421 23 52.5C23 48.3579 19.6421 45 15.5 45Z" fill="#0D2743"/>
<path fill-rule="evenodd" clip-rule="evenodd" d="M47.25 52.5C46.8358 52.5 46.5 52.8358 46.5 53.25C46.5 53.6642 46.8358 54 47.25 54C47.6642 54 48 53.6642 48 53.25C48 52.8358 47.6642 52.5 47.25 52.5ZM40.5 53.25C40.5 49.5221 43.5221 46.5 47.25 46.5C50.9779 46.5 54 49.5221 54 53.25C54 56.9779 50.9779 60 47.25 60C43.5221 60 40.5 56.9779 40.5 53.25Z" fill="#305680"/>
<path fill-rule="evenodd" clip-rule="evenodd" d="M51 7C48.2386 7 46 9.23858 46 12C46 14.7614 48.2386 17 51 17C53.7614 17 56 14.7614 56 12C56 9.23858 53.7614 7 51 7ZM51 3C46.0294 3 42 7.02944 42 12C42 16.9706 46.0294 21 51 21C55.9706 21 60 16.9706 60 12C60 7.02944 55.9706 3 51 3Z" fill="#0D2743"/>
</svg>
