<svg xmlns="http://www.w3.org/2000/svg" height="36.443mm" width="40.029mm" version="1.1" viewBox="0 0 40.028988 36.443157">
 <g transform="translate(-16.77 107.02)">
  <g>
   <g>
    <path style="color-rendering:auto;text-decoration-color:#000000;color:#000000;font-variant-numeric:normal;shape-rendering:auto;font-variant-ligatures:normal;text-decoration-line:none;font-variant-position:normal;mix-blend-mode:normal;solid-color:#000000;font-feature-settings:normal;shape-padding:0;font-variant-alternates:normal;text-indent:0;dominant-baseline:auto;font-variant-caps:normal;image-rendering:auto;white-space:normal;text-decoration-style:solid;text-orientation:mixed;isolation:auto;text-transform:none" d="m36.77-107.02a0.25071 0.25071 0 0 0 -0.04243 0.004l-8.3992 1.5106a0.25071 0.25071 0 0 0 -0.11163 0.44327s1.4286 1.1584 2.0557 1.841c-1.2917 2.3862-4.5166 4.6901-7.4742 6.3683-3.019 1.713-5.7187 2.7947-5.7187 2.7947a0.25071 0.25071 0 0 0 -0.0013 0.46481c2.9784 1.2152 6.3029 0.6512 9.3987-0.70244 3.0247-1.3226 5.8347-3.4021 7.9547-5.3767l1.9976 1.4813a0.25071 0.25071 0 0 0 0.40018 -0.19585l0.19323-8.3764a0.25071 0.25071 0 0 0 -0.25264 -0.25656z" fill="#305680"/>
    <path style="color-rendering:auto;text-decoration-color:#000000;color:#000000;font-variant-numeric:normal;shape-rendering:auto;font-variant-ligatures:normal;text-decoration-line:none;font-variant-position:normal;mix-blend-mode:normal;solid-color:#000000;font-feature-settings:normal;shape-padding:0;font-variant-alternates:normal;text-indent:0;dominant-baseline:auto;font-variant-caps:normal;image-rendering:auto;white-space:normal;text-decoration-style:solid;text-orientation:mixed;isolation:auto;text-transform:none" d="m36.514-106.47-0.17496 7.5858-1.7711-1.3128a0.25071 0.25071 0 0 0 -0.32119 0.0189c-2.1011 1.9827-4.9491 4.1004-7.971 5.4217-2.789 1.2195-5.6997 1.6942-8.3405 0.86956 0.7741-0.3252 2.6437-1.132 5.1103-2.5317 3.0517-1.7316 6.4408-4.0835 7.7777-6.7247a0.25071 0.25071 0 0 0 -0.03199 -0.27549c-0.49591-0.58572-1.3688-1.3074-1.8416-1.6908z" fill="#00adef"/>
    <path style="color-rendering:auto;text-decoration-color:#000000;color:#000000;font-variant-numeric:normal;shape-rendering:auto;font-variant-ligatures:normal;text-decoration-line:none;font-variant-position:normal;mix-blend-mode:normal;solid-color:#000000;font-feature-settings:normal;shape-padding:0;font-variant-alternates:normal;text-indent:0;dominant-baseline:auto;font-variant-caps:normal;image-rendering:auto;white-space:normal;text-decoration-style:solid;text-orientation:mixed;isolation:auto;text-transform:none" d="m17.552-102.14c-0.26801-0.00006-0.4854 0.217-0.48571 0.48502v6.0394l0.97072-0.56585v-4.9878h8.6448l0.82149-0.97072zm20.619 0-0.0285 0.97072h7.0386v15.403h-27.144v-5.9326l-0.97072-0.32835c-0.0052 2.3784 0.0078 4.7568-0.0015 7.1352h-0.2853c-0.01751 1.3728-0.007 2.7462-0.007 4.1192-0.000177 0.14786 0.11969 0.2678 0.26755 0.26773h11.789l-1.7953 4.3532c-0.11948 0.28869 0.02954 0.65005 0.2679 0.64962h9.1362c0.23836 0.000442 0.38738-0.36093 0.2679-0.64962l-1.796-4.3532h11.269c0.14793 0.000176 0.26789-0.1198 0.26772-0.26773 0.0045-1.373-0.0069-2.7462 0.0017-4.1192h-0.296c0.001-5.5876 0.000442-11.175 0.000442-16.763-0.000265-0.26802-0.21769-0.48508-0.48571-0.48502zm-20.863 17.782h28.604v3.3177h-28.604zm12.235 3.8523h4.6526l1.7067 4.3272h-8.066z" fill="#305680"/>
    <path style="color-rendering:auto;text-decoration-color:#000000;color:#000000;font-variant-numeric:normal;shape-rendering:auto;font-variant-ligatures:normal;text-decoration-line:none;font-variant-position:normal;mix-blend-mode:normal;solid-color:#000000;font-feature-settings:normal;shape-padding:0;font-variant-alternates:normal;text-indent:0;dominant-baseline:auto;font-variant-caps:normal;image-rendering:auto;white-space:normal;text-decoration-style:solid;text-orientation:mixed;isolation:auto;text-transform:none" d="m20.319-89.756a0.2359 0.2359 0 0 0 -0.23567 0.23567v2.4951a0.2359 0.2359 0 0 0 0.23567 0.23632h2.8078a0.2359 0.2359 0 0 0 0.23567 -0.23632v-2.4951a0.2359 0.2359 0 0 0 -0.23567 -0.23567z" fill="#305680"/>
    <path style="color-rendering:auto;text-decoration-color:#000000;color:#000000;font-variant-numeric:normal;shape-rendering:auto;font-variant-ligatures:normal;text-decoration-line:none;font-variant-position:normal;mix-blend-mode:normal;solid-color:#000000;font-feature-settings:normal;shape-padding:0;font-variant-alternates:normal;text-indent:0;dominant-baseline:auto;font-variant-caps:normal;image-rendering:auto;white-space:normal;text-decoration-style:solid;text-orientation:mixed;isolation:auto;text-transform:none" d="m20.554-89.284h2.3365v2.0238h-2.3365z" fill="#f90"/>
    <path style="color-rendering:auto;text-decoration-color:#000000;color:#000000;font-variant-numeric:normal;shape-rendering:auto;font-variant-ligatures:normal;text-decoration-line:none;font-variant-position:normal;mix-blend-mode:normal;solid-color:#000000;font-feature-settings:normal;shape-padding:0;font-variant-alternates:normal;text-indent:0;dominant-baseline:auto;font-variant-caps:normal;image-rendering:auto;white-space:normal;text-decoration-style:solid;text-orientation:mixed;isolation:auto;text-transform:none" d="m25.345-92.235c-0.1301 0.00013-0.23554 0.10557-0.23567 0.23567v4.9745c-0.000231 0.13036 0.10531 0.23619 0.23567 0.23632h2.8078c0.13036-0.00013 0.2359-0.10596 0.23567-0.23632v-4.9745c-0.00013-0.1301-0.10557-0.23554-0.23567-0.23567z" fill="#305680"/>
    <path style="color-rendering:auto;text-decoration-color:#000000;color:#000000;font-variant-numeric:normal;shape-rendering:auto;font-variant-ligatures:normal;text-decoration-line:none;font-variant-position:normal;mix-blend-mode:normal;solid-color:#000000;font-feature-settings:normal;shape-padding:0;font-variant-alternates:normal;text-indent:0;dominant-baseline:auto;font-variant-caps:normal;image-rendering:auto;white-space:normal;text-decoration-style:solid;text-orientation:mixed;isolation:auto;text-transform:none" d="m25.581-91.764h2.3365v4.5031h-2.3365z" fill="#f90"/>
    <path style="color-rendering:auto;text-decoration-color:#000000;color:#000000;font-variant-numeric:normal;shape-rendering:auto;font-variant-ligatures:normal;text-decoration-line:none;font-variant-position:normal;mix-blend-mode:normal;solid-color:#000000;font-feature-settings:normal;shape-padding:0;font-variant-alternates:normal;text-indent:0;dominant-baseline:auto;font-variant-caps:normal;image-rendering:auto;white-space:normal;text-decoration-style:solid;text-orientation:mixed;isolation:auto;text-transform:none" d="m30.251-93.53c-0.1301 0.00013-0.23554 0.10557-0.23567 0.23567v6.2694c-0.00023 0.13036 0.10531 0.23619 0.23567 0.23632h2.8078c0.13036-0.000133 0.2359-0.10596 0.23567-0.23632v-6.2694c-0.000127-0.1301-0.10556-0.23554-0.23567-0.23567z" fill="#305680"/>
    <path style="color-rendering:auto;text-decoration-color:#000000;color:#000000;font-variant-numeric:normal;shape-rendering:auto;font-variant-ligatures:normal;text-decoration-line:none;font-variant-position:normal;mix-blend-mode:normal;solid-color:#000000;font-feature-settings:normal;shape-padding:0;font-variant-alternates:normal;text-indent:0;dominant-baseline:auto;font-variant-caps:normal;image-rendering:auto;white-space:normal;text-decoration-style:solid;text-orientation:mixed;isolation:auto;text-transform:none" d="m30.486-93.059h2.3365v5.7981h-2.3365z" fill="#f90"/>
    <path style="color-rendering:auto;text-decoration-color:#000000;color:#000000;font-variant-numeric:normal;shape-rendering:auto;font-variant-ligatures:normal;text-decoration-line:none;font-variant-position:normal;mix-blend-mode:normal;solid-color:#000000;font-feature-settings:normal;shape-padding:0;font-variant-alternates:normal;text-indent:0;dominant-baseline:auto;font-variant-caps:normal;image-rendering:auto;white-space:normal;text-decoration-style:solid;text-orientation:mixed;isolation:auto;text-transform:none" d="m35.253-96.076c-0.1301 0.00013-0.23554 0.10557-0.23567 0.23567v8.8154c-0.000231 0.13036 0.10531 0.23619 0.23567 0.23632h2.8078c0.13036-0.000133 0.2359-0.10596 0.23567-0.23632v-8.8154c-0.000127-0.1301-0.10556-0.23554-0.23567-0.23567z" fill="#305680"/>
    <path style="color-rendering:auto;text-decoration-color:#000000;color:#000000;font-variant-numeric:normal;shape-rendering:auto;font-variant-ligatures:normal;text-decoration-line:none;font-variant-position:normal;mix-blend-mode:normal;solid-color:#000000;font-feature-settings:normal;shape-padding:0;font-variant-alternates:normal;text-indent:0;dominant-baseline:auto;font-variant-caps:normal;image-rendering:auto;white-space:normal;text-decoration-style:solid;text-orientation:mixed;isolation:auto;text-transform:none" d="m35.489-95.605h2.3365v8.3441h-2.3365z" fill="#f90"/>
    <path style="color-rendering:auto;text-decoration-color:#000000;color:#000000;font-variant-numeric:normal;shape-rendering:auto;font-variant-ligatures:normal;text-decoration-line:none;font-variant-position:normal;mix-blend-mode:normal;solid-color:#000000;font-feature-settings:normal;shape-padding:0;font-variant-alternates:normal;text-indent:0;dominant-baseline:auto;font-variant-caps:normal;image-rendering:auto;white-space:normal;text-decoration-style:solid;text-orientation:mixed;isolation:auto;text-transform:none" d="m40.19-98.603c-0.13011 0.00013-0.23554 0.10557-0.23567 0.23567v11.342c-0.000231 0.13036 0.10531 0.23619 0.23567 0.23632h2.8078c0.13036-0.000089 0.2359-0.10596 0.23567-0.23632v-11.342c-0.000127-0.1301-0.10556-0.23554-0.23567-0.23567z" fill="#305680"/>
    <path style="color-rendering:auto;text-decoration-color:#000000;color:#000000;font-variant-numeric:normal;shape-rendering:auto;font-variant-ligatures:normal;text-decoration-line:none;font-variant-position:normal;mix-blend-mode:normal;solid-color:#000000;font-feature-settings:normal;shape-padding:0;font-variant-alternates:normal;text-indent:0;dominant-baseline:auto;font-variant-caps:normal;image-rendering:auto;white-space:normal;text-decoration-style:solid;text-orientation:mixed;isolation:auto;text-transform:none" d="m40.426-98.132h2.3365v10.871h-2.3365z" fill="#f90"/>
   </g>
   <path style="color-rendering:auto;text-decoration-color:#000000;color:#000000;font-variant-numeric:normal;shape-rendering:auto;font-variant-ligatures:normal;text-decoration-line:none;font-variant-position:normal;mix-blend-mode:normal;solid-color:#000000;font-feature-settings:normal;shape-padding:0;font-variant-alternates:normal;text-indent:0;dominant-baseline:auto;font-variant-caps:normal;image-rendering:auto;white-space:normal;text-decoration-style:solid;text-orientation:mixed;isolation:auto;text-transform:none" d="m46.414-91.344c-5.7262 0-10.385 4.6585-10.385 10.385 0 5.7262 4.6586 10.383 10.385 10.383 5.7261 0 10.385-4.6566 10.385-10.383 0-5.7262-4.6585-10.385-10.385-10.385zm0 1.4395c4.9495 0 8.9453 3.9958 8.9453 8.9453s-3.9957 8.9434-8.9453 8.9434-8.9453-3.9938-8.9453-8.9434c0-4.9495 3.9958-8.9453 8.9453-8.9453z" fill="#305680"/>
   <path style="color-rendering:auto;text-decoration-color:#000000;color:#000000;font-variant-numeric:normal;shape-rendering:auto;font-variant-ligatures:normal;text-decoration-line:none;font-variant-position:normal;mix-blend-mode:normal;solid-color:#000000;font-feature-settings:normal;shape-padding:0;font-variant-alternates:normal;text-indent:0;dominant-baseline:auto;font-variant-caps:normal;image-rendering:auto;white-space:normal;text-decoration-style:solid;text-orientation:mixed;isolation:auto;text-transform:none" d="m46.414-90.348c5.1883 0 9.3883 4.1999 9.3883 9.3883 0 5.1883-4.1999 9.3883-9.3883 9.3883-5.1883 0-9.3889-4.1999-9.3889-9.3883 0-5.1883 4.2006-9.3883 9.3889-9.3883z" fill="#18d4b2"/>
   <g aria-label="$" style="font-variant-ligatures:normal;font-variant-numeric:normal;font-variant-caps:normal;font-feature-settings:normal" transform="matrix(.32590 0 0 .29775 5.4678 -105.58)" fill="#fff">
    <path style="font-variant-ligatures:normal;font-variant-numeric:normal;font-variant-caps:normal;font-feature-settings:normal" d="m134.7 88.019q0 1.9582-0.69352 3.386-0.69352 1.387-1.8358 2.3253-1.1015 0.89749-2.5701 1.387-1.4686 0.48954-2.978 0.61193v3.3044h-1.8766v-3.2636q-4.0387-0.12239-6.1193-2.3661-2.0398-2.2437-2.0398-5.9561h4.0795q0 1.999 0.89749 3.386 0.89749 1.3462 3.182 1.4278v-8.566q-1.591-0.44875-2.978-0.89749-1.387-0.48954-2.4477-1.2239-1.0607-0.77511-1.6726-1.999-0.61193-1.2239-0.61193-3.182 0-1.591 0.57114-2.9373 0.57113-1.3462 1.591-2.3253 1.0199-0.97908 2.4069-1.5094 1.4278-0.57113 3.1412-0.57113v-2.6925h1.8766v2.6517q1.7542 0 3.1004 0.57113t2.2437 1.5502q0.8975 0.97908 1.3462 2.3253 0.44875 1.3054 0.44875 2.8149h-4.0795q0-1.999-0.69352-2.8149-0.65272-0.8567-2.3661-0.93829v7.7511q1.1831 0.32636 2.5701 0.69352 1.4278 0.36716 2.6517 1.1831 1.2238 0.77511 2.0398 2.1621 0.81591 1.387 0.81591 3.7124zm-9.954-15.461q-1.2238 0.08159-1.9582 0.40795-0.69351 0.28557-1.1015 0.77511-0.36715 0.48954-0.48954 1.1423-0.12238 0.65272-0.12238 1.387 0 0.93829 0.24477 1.5094 0.24477 0.53034 0.69352 0.89749 0.48954 0.32636 1.1423 0.57113 0.69352 0.20398 1.591 0.48954zm5.9153 15.788q0-1.1423-0.28557-1.8766-0.28557-0.73431-0.8159-1.1831-0.53034-0.44875-1.3054-0.73431-0.73431-0.28557-1.6318-0.53034v8.1998q1.9174-0.12239 2.978-0.93829 1.0607-0.8567 1.0607-2.9373z" stroke-width="1.0443px" fill="#fff"/>
   </g>
  </g>
 </g>
</svg>
