<svg width="340" height="120" viewBox="0 0 340 120" fill="none" xmlns="http://www.w3.org/2000/svg">
<path fill-rule="evenodd" clip-rule="evenodd" d="M136 1C138.209 1 140 2.79086 140 5V37.5213C126.69 46.9387 118 62.4546 118 80C118 96.0494 125.271 110.401 136.698 119.939C136.472 119.979 136.238 120 136 120H108C105.791 120 104 118.209 104 116V5C104 2.79086 105.791 1 108 1H136ZM200 37.5213C213.31 46.9387 222 62.4546 222 80C222 96.0494 214.729 110.401 203.302 119.939C203.528 119.979 203.762 120 204 120H232C234.209 120 236 118.209 236 116V19C236 16.7909 234.209 15 232 15H204C201.791 15 200 16.7909 200 19V37.5213ZM152 31.1997C157.609 29.1302 163.672 28 170 28C176.328 28 182.391 29.1302 188 31.1997V25C188 22.7909 186.209 21 184 21H156C153.791 21 152 22.7909 152 25V31.1997ZM280 54C282.209 54 284 55.7909 284 58V116C284 118.209 282.209 120 280 120H252C249.791 120 248 118.209 248 116V58C248 55.7909 249.791 54 252 54H280ZM92 39C92 36.7909 90.2091 35 88 35H60C57.7909 35 56 36.7909 56 39V116C56 118.209 57.7909 120 60 120H88C90.2091 120 92 118.209 92 116V39ZM328 41C330.209 41 332 42.7909 332 45V116C332 118.209 330.209 120 328 120H300C297.791 120 296 118.209 296 116V45C296 42.7909 297.791 41 300 41H328ZM44 69C44 66.7909 42.2091 65 40 65H12C9.79086 65 8 66.7909 8 69V116C8 118.209 9.79086 120 12 120H40C42.2091 120 44 118.209 44 116V69Z" fill="#305680"/>
<path fill-rule="evenodd" clip-rule="evenodd" d="M170 48C152.327 48 138 62.3269 138 80C138 97.6731 152.327 112 170 112C187.673 112 202 97.6731 202 80C202 62.3269 187.673 48 170 48ZM130 80C130 57.9086 147.909 40 170 40C192.091 40 210 57.9086 210 80C210 102.091 192.091 120 170 120C147.909 120 130 102.091 130 80Z" fill="#0D2743"/>
<path d="M203 80C203 98.2254 188.225 113 170 113C151.775 113 137 98.2254 137 80C137 61.7746 151.775 47 170 47C188.225 47 203 61.7746 203 80Z" fill="#305680"/>
<path fill-rule="evenodd" clip-rule="evenodd" d="M163.19 70.2744C163.87 68.0669 166.335 66 170 66C174.342 66 177 68.9011 177 71.5V74.5H183V71.5C183 64.7101 176.704 60 170 60C163.296 60 157 64.7101 157 71.5V72.8873L176.81 89.7256C176.13 91.9331 173.665 94 170 94C165.658 94 163 91.0989 163 88.5V85.5H157V88.5C157 95.2899 163.296 100 170 100C176.704 100 183 95.2899 183 88.5V87.1127L163.19 70.2744Z" fill="white"/>
<path d="M168 54H172V62H168V54Z" fill="white"/>
<path d="M168 98H172V106H168V98Z" fill="white"/>
</svg>
