<svg enable-background="new 0 0 1000 1000" version="1.1" viewBox="0 0 1e3 1e3" xmlns="http://www.w3.org/2000/svg">
 <g>
  <path d="m540.9 901.1h-385.1c-80.4 0-145.8-65.4-145.8-145.8v-522.7c0-80.4 65.4-145.8 145.8-145.8h638.5c80.4 0 145.8 65.4 145.8 145.8v224.2c0 10.7-8.7 19.4-19.4 19.4s-19.4-8.7-19.4-19.4v-224.2c0-59-48-107.1-107-107.1h-638.5c-59 0-107 48-107 107.1v522.6c0 59 48 107.1 107 107.1h385.1c10.7 0 19.4 8.7 19.4 19.4s-8.7 19.4-19.4 19.4z" fill="#305680"/>
  <g transform="matrix(5.761 0 0 5.761 319.94 -2253.5)" stroke-width=".14122">
   <path d="m78.27 479.89c-2.0704 0-3.8587 1.5344-4.1641 3.5781-0.20359 1.3602-0.39962 2.7598-0.58203 4.1582-2e-3 0.0153-0.0015 4e-3 0.01172 0-2.367 0.65262-4.6503 1.5986-6.7871 2.8125 0.01148-7e-3 0.01272-1e-3 0.0039-8e-3 -1.1179-0.86007-2.2433-1.709-3.3496-2.5273-1.6618-1.229-4.0109-1.0497-5.4746 0.41406l-4.5703 4.5703c-1.464 1.4641-1.6433 3.8133-0.41406 5.4746 0.82131 1.1103 1.6704 2.2357 2.5273 3.3496 0.0039 5e-3 3e-3 3e-3 0.0078-6e-3 -1.2144 2.1379-2.1603 4.4226-2.8125 6.7891 4e-3 -0.0144 0.01447-0.0136 0-0.0117-1.3953 0.18213-2.7933 0.37803-4.1562 0.58203-2.044 0.30548-3.5801 2.0936-3.5801 4.1641v6.4629c0 2.0703 1.5342 3.8603 3.5781 4.166 1.3634 0.20406 2.7633 0.39815 4.1582 0.58008 0.01519 2e-3 0.0037 2e-3 0-0.0117 0.65221 2.3666 1.5983 4.6514 2.8125 6.7891-0.0048-8e-3 -0.0039-0.011-0.0078-6e-3 -0.85921 1.1168-1.7083 2.2441-2.5273 3.3516-1.2288 1.6611-1.0519 4.0086 0.41211 5.4727l4.5723 4.5723c1.4643 1.4641 3.8135 1.6414 5.4746 0.4121 1.1062-0.81821 2.2316-1.6673 3.3496-2.5273 0.0049-4e-3 0.0026-3e-3 -0.0059-8e-3 2.1372 1.2141 4.4218 2.1599 6.7891 2.8125-0.01336-4e-3 -0.0136-0.0144-0.01172 0 0.18241 1.3982 0.3786 2.7966 0.58203 4.1562 0.30563 2.0438 2.0934 3.5801 4.1641 3.5801h6.4629c2.0705 0 3.8586-1.536 4.1641-3.5801 0.20357-1.3613 0.39976-2.7596 0.58203-4.1562 2e-3 -0.0151 0.0012-4e-3 -0.01172 0 2.3662-0.6524 4.6489-1.5972 6.7852-2.8106-0.0047 1e-3 -0.0085 8.7e-4 -2e-3 6e-3 1.1178 0.86006 2.2434 1.7091 3.3496 2.5273 1.6614 1.229 4.0105 1.0499 5.4746-0.41406l4.5703-4.5703c1.4638-1.464 1.6431-3.813 0.41406-5.4746-0.81986-1.1079-1.669-2.2355-2.5273-3.3516-4e-3 -5e-3 -3e-3 -3e-3 -8e-3 6e-3 1.2142-2.1376 2.1603-4.4206 2.8125-6.7871-3e-3 0.0114-0.0122 0.0114 0 0.01 1.3954-0.18193 2.7954-0.37615 4.1582-0.58007 2.0438-0.30549 3.5781-2.0938 3.5781-4.1641v-6.4648c0-2.0699-1.5344-3.8586-3.5781-4.1641-1.3627-0.20407-2.7626-0.39814-4.1582-0.58008-0.0136-2e-3 -4e-3 -2e-3 0 0.0117-0.65221-2.3669-1.5984-4.6516-2.8125-6.7891 6e-3 0.01-4e-5 0.018 8e-3 8e-3 0.85853-1.1158 1.7075-2.2452 2.5273-3.3535 1.2286-1.6611 1.0518-4.0086-0.41211-5.4726l-4.5723-4.5723c-1.4641-1.464-3.8131-1.6411-5.4746-0.41211-1.1062 0.81821-2.2316 1.6673-3.3496 2.5273a0.41801 0.41801 0 0 0-2e-3 2e-3c-9e-3 7e-3 -0.0022 1.6e-4 0.0078 6e-3 -2.1373-1.2141-4.4221-2.1602-6.7891-2.8125 0.01363 4e-3 0.01366 0.0149 0.01172 0-0.18236-1.3978-0.37659-2.7961-0.58008-4.1562-0.30582-2.044-2.0954-3.5801-4.166-3.5801zm0 4.2129h6.4629c0.1992 1.331 0.39174 2.6997 0.57031 4.0684 0.21945 1.6828 1.4159 3.0666 3.0449 3.5156 2.0314 0.55995 3.9913 1.372 5.8262 2.4141 1.4701 0.83461 3.2973 0.70614 4.6426-0.32813 1.0949-0.84223 2.2006-1.6755 3.2832-2.4766l4.5684 4.5684c-0.8024 1.0849-1.6357 2.1882-2.4766 3.2812-1.0349 1.3456-1.1657 3.1734-0.33008 4.6445 1.0423 1.8349 1.8561 3.795 2.416 5.8262 0.44896 1.6288 1.8313 2.8256 3.5137 3.0449 1.3665 0.17834 2.7351 0.36908 4.0684 0.56836v6.4629c-1.3334 0.19949-2.7022 0.39188-4.0684 0.57032-1.6827 0.2193-3.0665 1.4157-3.5156 3.0449-0.5598 2.031-1.372 3.9914-2.4141 5.8262-0.83552 1.471-0.70488 3.2973 0.33008 4.6426 0.84037 1.0924 1.6743 2.1968 2.4766 3.2812l-4.5703 4.5703c-1.082-0.80064-2.1854-1.635-3.2793-2.4766h-2e-3c-1.3451-1.0342-3.1722-1.1652-4.6426-0.33008-1.8349 1.0422-3.7951 1.8561-5.8262 2.416-1.6286 0.4489-2.8271 1.8305-3.0469 3.5137-0.17819 1.3673-0.36907 2.7361-0.56836 4.0684h-6.4629c-0.19888-1.3308-0.38989-2.6998-0.56836-4.0684-0.2195-1.6832-1.4183-3.0648-3.0469-3.5137-2.0313-0.55989-3.9914-1.3737-5.8262-2.416-0.64514-0.3662-1.3597-0.54688-2.0703-0.54688-0.91012 0-1.8187 0.2952-2.5742 0.87696-1.0945 0.84191-2.1989 1.6757-3.2812 2.4766l-4.5684-4.5703c0.80174-1.0837 1.6355-2.188 2.4766-3.2812 1.0348-1.3453 1.1653-3.1717 0.33008-4.6426-1.0425-1.8353-1.8543-3.7952-2.4141-5.8262-0.44902-1.629-1.8329-2.8255-3.5156-3.0449-1.3655-0.17815-2.7341-0.37096-4.0684-0.57032v-6.4609c1.3342-0.19949 2.7029-0.39217 4.0684-0.57032 1.6829-0.21929 3.0666-1.4158 3.5156-3.0449 0.55951-2.0308 1.3716-3.9909 2.4141-5.8262 0.83538-1.471 0.70478-3.2975-0.33008-4.6426-0.83918-1.0912-1.6724-2.1964-2.4766-3.2832l4.5684-4.5684c1.0827 0.80104 2.1883 1.6342 3.2832 2.4766 1.3455 1.0348 3.1717 1.1635 4.6426 0.32813 1.8344-1.042 3.7948-1.8541 5.8262-2.4141 1.629-0.44898 2.8274-1.8324 3.0469-3.5156 0.17863-1.3687 0.36922-2.7373 0.56836-4.0684z" fill="#305680"/>
   <path d="m81.502 499.41c-9.3878 0-17.047 7.6591-17.047 17.047 0 9.3878 7.6593 17.045 17.047 17.045 9.3876 0 17.045-7.6574 17.045-17.045 0-9.3876-7.6571-17.047-17.045-17.047zm0 6.0801c6.0587 0 10.965 4.9078 10.965 10.967 0 6.059-4.9057 10.965-10.965 10.965s-10.967-4.9061-10.967-10.965c0-6.0588 4.9082-10.967 10.967-10.967z" fill="#237de0"/>
  </g>
  <path d="m803.51 299.3h-187.4c-10.7 0-19.4-8.7-19.4-19.4s8.7-19.4 19.4-19.4h187.4c10.7 0 19.4 8.7 19.4 19.4s-8.7 19.4-19.4 19.4zm0 122.7h-187.4c-10.7 0-19.4-8.7-19.4-19.4s8.7-19.4 19.4-19.4h187.4c10.7 0 19.4 8.7 19.4 19.4 0 10.8-8.7 19.4-19.4 19.4z" fill="#237de0"/>
  <path d="m353.02 530.95c-91.4 0-165.7-74.3-165.7-165.7 0-91.4 74.3-165.7 165.7-165.7s165.7 74.3 165.7 165.7c0 91.4-74.3 165.7-165.7 165.7zm0-292.6c-70 0-126.9 56.9-126.9 126.9 0 70 56.9 126.9 126.9 126.9s127-56.9 127-126.9c-0.1-70-57-126.9-127-126.9zm-226.7 519.5c-10.7 0-19.4-8.7-19.4-19.4 0-135.7 110.4-246.1 246-246.1 78.2 0 150 35.9 197 98.6 6.4 8.6 4.7 20.7-3.9 27.1-8.5 6.4-20.7 4.7-27.1-3.9-39.6-52.8-100.1-83.1-166-83.1-114.3 0-207.3 93-207.3 207.3 0.1 10.8-8.6 19.5-19.3 19.5z" fill="#305680"/>
 </g>
</svg>
