<svg width="60" height="60" viewBox="0 0 60 60" fill="none" xmlns="http://www.w3.org/2000/svg">
<path fill-rule="evenodd" clip-rule="evenodd" d="M49 29L49 6C49 4.89543 48.1046 4 47 4L6 4C4.89543 4 4 4.89543 4 6L4 44C4 45.1046 4.89543 46 6 46L29.8824 46C30.9869 46 31.8824 46.8954 31.8824 48C31.8824 49.1046 30.9869 50 29.8824 50L6 50C2.6863 50 -2.06815e-06 47.3137 -1.9233e-06 44L-2.62268e-07 6C-1.17421e-07 2.68629 2.68629 -2.19928e-06 6 -2.05444e-06L47 -2.62268e-07C50.3137 -1.17422e-07 53 2.68629 53 6L53 29C53 30.1046 52.1046 31 51 31C49.8954 31 49 30.1046 49 29Z" fill="#0D2743"/>
<path d="M9 38C9 34.6863 11.6863 32 15 32H25C28.3137 32 31 34.6863 31 38V42H9V38Z" fill="#305680"/>
<path d="M27 22C27 25.866 23.866 29 20 29C16.134 29 13 25.866 13 22C13 18.134 16.134 15 20 15C23.866 15 27 18.134 27 22Z" fill="#305680"/>
<path fill-rule="evenodd" clip-rule="evenodd" d="M54.9999 43C54.9999 46.866 51.8659 50 47.9999 50C47.3872 50 46.7929 49.9213 46.2265 49.7734L36.5857 59.4142C36.2106 59.7893 35.7019 60 35.1715 60H32.2069C31.7615 60 31.5384 59.4614 31.8534 59.1464L33.9999 57V54C33.9999 53.4477 34.4476 53 34.9999 53H37.9999V49C37.9999 48.4477 38.4476 48 38.9999 48H40.9999L42.1517 46.8482C41.4236 45.7441 40.9999 44.4215 40.9999 43C40.9999 39.134 44.1339 36 47.9999 36C51.8659 36 54.9999 39.134 54.9999 43ZM50.9999 41.5C50.9999 42.3284 50.3283 43 49.4999 43C48.6715 43 47.9999 42.3284 47.9999 41.5C47.9999 40.6716 48.6715 40 49.4999 40C50.3283 40 50.9999 40.6716 50.9999 41.5Z" fill="#305680"/>
</svg>
