<svg xmlns="http://www.w3.org/2000/svg" height="97.473mm" width="104.62mm" version="1.1" viewBox="0 0 370.70015 345.37571">
 <g transform="translate(-178.05 -352.7)">
  <path d="m525.95 442.95c0-0.14579-0.0729-0.21868-0.0729-0.36446 0-0.0729-0.0729-0.21868-0.0729-0.29157 0-0.14579-0.0729-0.21868-0.14579-0.36446 0-0.0729-0.0729-0.21868-0.0729-0.29157-0.0729-0.14579-0.0729-0.21868-0.14579-0.36446-0.0729-0.0729-0.0729-0.21868-0.14578-0.29157-0.0729-0.0729-0.0729-0.21868-0.14578-0.29157-0.0729-0.0729-0.14579-0.21868-0.14579-0.29157-0.0729-0.0729-0.14578-0.21868-0.14578-0.29157-0.0729-0.0729-0.14579-0.21868-0.21869-0.29157-0.0729-0.0729-0.14578-0.14578-0.14578-0.21868l-0.0729-0.0729-70.633-83.899-0.14578-0.14579c-0.14578-0.14579-0.21868-0.29157-0.36446-0.36446l-0.21868-0.21867c-0.14578-0.0729-0.21868-0.21868-0.36446-0.29157-0.0729-0.0729-0.14579-0.14579-0.21868-0.14579-0.14578-0.0729-0.21867-0.14578-0.36447-0.29157-0.0729-0.0729-0.14577-0.0729-0.21867-0.14578l-0.43735-0.21868c-0.0729-0.0729-0.14578-0.0729-0.21868-0.14578-0.14578-0.0729-0.29157-0.14579-0.51025-0.21868-0.0729 0-0.14579-0.0729-0.21867-0.0729-0.14578-0.0729-0.36446-0.0729-0.51025-0.14579-0.0729 0-0.14578-0.0729-0.21867-0.0729-0.21868-0.0729-0.36446-0.0729-0.58315-0.0729h-1.0205l-229.79-0.45c-1.8952 0-3.7904 0.72892-5.1754 2.1139s-2.1139 3.2073-2.1139 5.1754v331.44c0 4.0091 3.2802 7.2892 7.2892 7.2892h300.35c4.0091 0 7.2892-3.2802 7.2892-7.2892v-247.98c0-0.14578 0-0.29157-0.0729-0.43735zm-70.56-62.542 47.599 56.564-47.599-0.36446zm56.054 303.6h-285.77v-316.8l215.14 0.51025v76.1c0 4.0091 3.2072 7.2892 7.2163 7.2892l63.416 0.43736z" stroke-width=".72892" fill="#305680"/>
  <g transform="matrix(1.7494 0 0 1.7494 -174.12 -57.486)">
   <g transform="translate(572,260)" fill="#305680">
    <path d="m-333.96 113.84v12.615c0 0.76745 0.62355 1.407 1.407 1.407h9.753c0.76745 0 1.407-0.62356 1.407-1.407v-22.192l-7.0829 7.0829c-1.5029 1.4869-3.4216 2.3503-5.4841 2.4942z"/>
    <path d="m-316.54 104.11v22.352c0 0.76745 0.62355 1.407 1.407 1.407h9.753c0.76746 0 1.407-0.62356 1.407-1.407v-13.159c-2.2224-0.048-4.3009-0.92734-5.8678-2.4942z"/>
    <path d="m-299.11 111.91v14.55c0 0.76745 0.62355 1.407 1.407 1.407h9.753c0.76745 0 1.407-0.62356 1.407-1.407v-26.845l-11.176 11.176c-0.43169 0.43169-0.89536 0.79943-1.391 1.1192z"/>
    <path d="m-270.06 83.114-11.624 11.624v31.721c0 0.76745 0.62356 1.407 1.407 1.407h9.753c0.76745 0 1.407-0.62356 1.407-1.407v-42.466c-0.31977-0.2718-0.5596-0.51163-0.73547-0.67152z"/>
   </g>
   <path fill="#237de0" d="m309.92 322.52c-0.46367-0.49565-1.1672-0.75147-2.0625-0.75147h-0.25582c-4.5408 0.20786-9.0655 0.4317-13.606 0.63955-0.60757 0.032-1.439 0.064-2.0945 0.71948-0.20785 0.20786-0.36773 0.44768-0.49564 0.73548-0.67152 1.455 0.2718 2.3983 0.71948 2.846l1.1352 1.1512c0.78344 0.79943 1.5829 1.5989 2.3823 2.3823l-27.436 27.452-12.327-12.327c-0.73547-0.73547-1.7268-1.1512-2.782-1.1512s-2.0306 0.4157-2.766 1.1512l-16.42 16.404c-1.5349 1.5349-1.5349 4.0131 0 5.548l0.73547 0.73547c0.73548 0.73548 1.7268 1.1512 2.782 1.1512s2.0306-0.4157 2.766-1.1512l12.903-12.903 12.327 12.327c0.73548 0.73548 1.7268 1.1512 2.782 1.1512s2.0306-0.4157 2.782-1.1512l30.954-30.954 3.5015 3.4855c0.4157 0.4157 0.99129 0.99129 1.8707 0.99129 0.36774 0 0.73547-0.0959 1.1192-0.30378 0.25582-0.1439 0.47966-0.30378 0.67152-0.49565 0.68751-0.68751 0.81542-1.5669 0.84739-2.2544 0.12791-2.9419 0.27181-5.8838 0.41571-8.8417l0.20785-4.4288c0.048-0.92734-0.15989-1.6468-0.65553-2.1585z"/>
  </g>
  <g transform="matrix(1.0325 0 0 1.0325 -24.618 -16.329)">
   <g transform="matrix(1.8346 0 0 1.8346 -208.17 -89.067)">
    <path d="m361.97 326.49c13.47 0.84189 23.994 11.786 25.256 25.256h-25.256zm-2.1047-4.2094h-2.1047v33.675h33.675v-2.1047c0-17.259-14.312-31.571-31.571-31.571z" fill="#237de0"/>
    <path d="m353.55 360.16v-33.675c-16.417 1.2628-29.466 14.733-29.466 31.571 0 17.259 14.312 31.571 31.571 31.571 16.838 0 30.308-13.049 31.571-29.466z" fill="#305680"/>
   </g>
  </g>
  <path d="m240.16 401.02c0 4.364 3.5705 7.9344 7.9344 7.9344h167.12c4.3639 0 7.9344-3.5705 7.9344-7.9344s-3.5705-7.9344-7.9344-7.9344h-167.12c-4.3639 0-7.9344 3.5705-7.9344 7.9344z" stroke-width=".79344" fill="#305680"/>
  <path d="m415.89 430.77h-167.12c-4.3639 0-7.9344 3.5705-7.9344 7.9344s3.5705 7.9344 7.9344 7.9344h167.12c4.3639 0 7.9344-3.5705 7.9344-7.9344s-3.5705-7.9344-7.9344-7.9344z" stroke-width=".79344" fill="#305680"/>
 </g>
</svg>
