<svg width="60" height="60" viewBox="0 0 60 60" fill="none" xmlns="http://www.w3.org/2000/svg">
<path fill-rule="evenodd" clip-rule="evenodd" d="M48 60L12 60C9.23858 60 7 57.7614 7 55L7 5C7 2.23858 9.23857 -1.91287e-06 12 -1.79217e-06L40.5858 -3.04224e-07C41.9119 -7.84042e-09 43.1836 0.526785 44.1213 1.46447L51.5355 8.87868C52.4732 9.81637 53 11.0881 53 12.4142L53 55C53 57.7614 50.7614 60 48 60ZM41.2929 4.29289C41.1054 4.10536 40.851 4 40.5858 4L12 4C11.4477 4 11 4.44771 11 5L11 55C11 55.5523 11.4477 56 12 56L48 56C48.5523 56 49 55.5523 49 55L49 12.4142C49 12.149 48.8946 11.8946 48.7071 11.7071L41.2929 4.29289Z" fill="#0D2743"/>
<path d="M18 21C18 20.4477 18.4477 20 19 20H32C32.5523 20 33 20.4477 33 21V21C33 21.5523 32.5523 22 32 22H19C18.4477 22 18 21.5523 18 21V21Z" fill="#0D2743"/>
<path d="M18 17C18 16.4477 18.4477 16 19 16H27C27.5523 16 28 16.4477 28 17V17C28 17.5523 27.5523 18 27 18H19C18.4477 18 18 17.5523 18 17V17Z" fill="#0D2743"/>
<path d="M18 13C18 12.4477 18.4477 12 19 12H30C30.5523 12 31 12.4477 31 13V13C31 13.5523 30.5523 14 30 14H19C18.4477 14 18 13.5523 18 13V13Z" fill="#0D2743"/>
<path d="M18 38H24V50H18V38Z" fill="#305680"/>
<path d="M27 33H33V50H27V33Z" fill="#305680"/>
<path d="M36 42H42V50H36V42Z" fill="#305680"/>
<path fill-rule="evenodd" clip-rule="evenodd" d="M39.2346 0.152238C39.982 -0.157324 40.8422 0.0137879 41.4142 0.585784L52.4142 11.5858C52.9862 12.1578 53.1573 13.018 52.8478 13.7654C52.5382 14.5127 51.8089 15 51 15H42C39.7909 15 38 13.2091 38 11V2C38 1.19107 38.4873 0.4618 39.2346 0.152238ZM42 13C40.8954 13 40 12.1046 40 11V2L51 13H42Z" fill="#0D2743"/>
</svg>
