<svg width="500" height="238" viewBox="0 0 500 238" fill="none" xmlns="http://www.w3.org/2000/svg">
<rect x="282" y="61" width="137" height="37" rx="6" fill="white"/>
<rect x="282.5" y="61.5" width="136" height="36" rx="5.5" stroke="#1F8B4D" stroke-opacity="0.4"/>
<rect x="279" y="64" width="137" height="37" rx="6" fill="white"/>
<rect x="279.5" y="64.5" width="136" height="36" rx="5.5" stroke="#1F8B4D" stroke-opacity="0.4"/>
<rect x="276" y="67" width="137" height="37" rx="6" fill="white"/>
<circle cx="292" cy="82.5" r="2.5" fill="#27AE60"/>
<path fill-rule="evenodd" clip-rule="evenodd" d="M290.382 86.3408C288.979 86.9622 288 88.3668 288 90V90.0741C288 90.5854 288.415 91 288.926 91H295.074C295.585 91 296 90.5854 296 90.0741V90C296 88.3668 295.021 86.9622 293.618 86.3408C293.121 86.5507 292.574 86.6667 292 86.6667C291.426 86.6667 290.879 86.5507 290.382 86.3408Z" fill="#27AE60"/>
<circle cx="298" cy="82.5" r="2" stroke="#27AE60"/>
<mask id="path-11-inside-1" fill="white">
<path fill-rule="evenodd" clip-rule="evenodd" d="M296.382 86.3408C294.979 86.9622 294 88.3668 294 90V90.0741C294 90.5854 294.415 91 294.926 91H301.074C301.585 91 302 90.5854 302 90.0741V90C302 88.3668 301.021 86.9622 299.618 86.3408C299.121 86.5507 298.574 86.6667 298 86.6667C297.426 86.6667 296.879 86.5507 296.382 86.3408Z"/>
</mask>
<path d="M296.382 86.3408L296.771 85.4194L296.372 85.2514L295.977 85.4265L296.382 86.3408ZM299.618 86.3408L300.023 85.4265L299.628 85.2514L299.23 85.4194L299.618 86.3408ZM295 90C295 88.7766 295.732 87.7221 296.787 87.2552L295.977 85.4265C294.225 86.2022 293 87.9569 293 90H295ZM295 90.0741V90H293V90.0741H295ZM294.926 90C294.967 90 295 90.0332 295 90.0741H293C293 91.1377 293.862 92 294.926 92V90ZM301.074 90H294.926V92H301.074V90ZM301 90.0741C301 90.0332 301.033 90 301.074 90V92C302.138 92 303 91.1377 303 90.0741H301ZM301 90V90.0741H303V90H301ZM299.213 87.2552C300.268 87.7221 301 88.7766 301 90H303C303 87.9569 301.775 86.2022 300.023 85.4265L299.213 87.2552ZM299.23 85.4194C298.853 85.5783 298.438 85.6667 298 85.6667V87.6667C298.71 87.6667 299.389 87.523 300.007 87.2622L299.23 85.4194ZM298 85.6667C297.562 85.6667 297.147 85.5783 296.771 85.4194L295.993 87.2622C296.611 87.523 297.29 87.6667 298 87.6667V85.6667Z" fill="#27AE60" mask="url(#path-11-inside-1)"/>
<path d="M315.09 90H313.689V82.6348H311.17V81.4336H317.609V82.6348H315.09V90ZM321.611 90.1172C320.604 90.1172 319.814 89.8242 319.244 89.2383C318.678 88.6484 318.395 87.8379 318.395 86.8066C318.395 85.748 318.658 84.916 319.186 84.3105C319.713 83.7051 320.438 83.4023 321.359 83.4023C322.215 83.4023 322.891 83.6621 323.387 84.1816C323.883 84.7012 324.131 85.416 324.131 86.3262V87.0703H319.812C319.832 87.6992 320.002 88.1836 320.322 88.5234C320.643 88.8594 321.094 89.0273 321.676 89.0273C322.059 89.0273 322.414 88.9922 322.742 88.9219C323.074 88.8477 323.43 88.7266 323.809 88.5586V89.6777C323.473 89.8379 323.133 89.9512 322.789 90.0176C322.445 90.084 322.053 90.1172 321.611 90.1172ZM321.359 84.4453C320.922 84.4453 320.57 84.584 320.305 84.8613C320.043 85.1387 319.887 85.543 319.836 86.0742H322.777C322.77 85.5391 322.641 85.1348 322.391 84.8613C322.141 84.584 321.797 84.4453 321.359 84.4453ZM331.396 90H330.014V86.0156C330.014 85.5156 329.912 85.1426 329.709 84.8965C329.51 84.6504 329.191 84.5273 328.754 84.5273C328.172 84.5273 327.746 84.6992 327.477 85.043C327.207 85.3867 327.072 85.9629 327.072 86.7715V90H325.695V83.5195H326.773L326.967 84.3691H327.037C327.232 84.0605 327.51 83.8223 327.869 83.6543C328.229 83.4863 328.627 83.4023 329.064 83.4023C330.619 83.4023 331.396 84.1934 331.396 85.7754V90ZM337.367 90L337.092 89.0977H337.045C336.732 89.4922 336.418 89.7617 336.102 89.9062C335.785 90.0469 335.379 90.1172 334.883 90.1172C334.246 90.1172 333.748 89.9453 333.389 89.6016C333.033 89.2578 332.855 88.7715 332.855 88.1426C332.855 87.4746 333.104 86.9707 333.6 86.6309C334.096 86.291 334.852 86.1055 335.867 86.0742L336.986 86.0391V85.6934C336.986 85.2793 336.889 84.9707 336.693 84.7676C336.502 84.5605 336.203 84.457 335.797 84.457C335.465 84.457 335.146 84.5059 334.842 84.6035C334.537 84.7012 334.244 84.8164 333.963 84.9492L333.518 83.9648C333.869 83.7812 334.254 83.6426 334.672 83.5488C335.09 83.4512 335.484 83.4023 335.855 83.4023C336.68 83.4023 337.301 83.582 337.719 83.9414C338.141 84.3008 338.352 84.8652 338.352 85.6348V90H337.367ZM335.316 89.0625C335.816 89.0625 336.217 88.9238 336.518 88.6465C336.822 88.3652 336.975 87.9727 336.975 87.4688V86.9062L336.143 86.9414C335.494 86.9648 335.021 87.0742 334.725 87.2695C334.432 87.4609 334.285 87.7559 334.285 88.1543C334.285 88.4434 334.371 88.668 334.543 88.8281C334.715 88.9844 334.973 89.0625 335.316 89.0625ZM345.975 90H344.592V86.0156C344.592 85.5156 344.49 85.1426 344.287 84.8965C344.088 84.6504 343.77 84.5273 343.332 84.5273C342.75 84.5273 342.324 84.6992 342.055 85.043C341.785 85.3867 341.65 85.9629 341.65 86.7715V90H340.273V83.5195H341.352L341.545 84.3691H341.615C341.811 84.0605 342.088 83.8223 342.447 83.6543C342.807 83.4863 343.205 83.4023 343.643 83.4023C345.197 83.4023 345.975 84.1934 345.975 85.7754V90ZM350.305 89.0039C350.641 89.0039 350.977 88.9512 351.312 88.8457V89.8828C351.16 89.9492 350.963 90.0039 350.721 90.0469C350.482 90.0938 350.234 90.1172 349.977 90.1172C348.672 90.1172 348.02 89.4297 348.02 88.0547V84.5625H347.135V83.9531L348.084 83.4492L348.553 82.0781H349.402V83.5195H351.248V84.5625H349.402V88.0312C349.402 88.3633 349.484 88.6094 349.648 88.7695C349.816 88.9258 350.035 89.0039 350.305 89.0039ZM361.191 90L360.336 87.6211H357.061L356.223 90H354.746L357.951 81.3984H359.475L362.68 90H361.191ZM359.967 86.4141L359.164 84.082C359.105 83.9258 359.023 83.6797 358.918 83.3438C358.816 83.0078 358.746 82.7617 358.707 82.6055C358.602 83.0859 358.447 83.6113 358.244 84.1816L357.471 86.4141H359.967ZM365.85 90.1172C365.041 90.1172 364.41 89.8242 363.957 89.2383C363.504 88.6523 363.277 87.8301 363.277 86.7715C363.277 85.709 363.506 84.8828 363.963 84.293C364.424 83.6992 365.061 83.4023 365.873 83.4023C366.725 83.4023 367.373 83.7168 367.818 84.3457H367.889C367.822 83.8809 367.789 83.5137 367.789 83.2441V80.8828H369.172V90H368.094L367.854 89.1504H367.789C367.348 89.7949 366.701 90.1172 365.85 90.1172ZM366.219 89.0039C366.785 89.0039 367.197 88.8457 367.455 88.5293C367.713 88.209 367.846 87.6914 367.854 86.9766V86.7832C367.854 85.9668 367.721 85.3867 367.455 85.043C367.189 84.6992 366.773 84.5273 366.207 84.5273C365.723 84.5273 365.35 84.7246 365.088 85.1191C364.826 85.5098 364.695 86.0684 364.695 86.7949C364.695 87.5137 364.822 88.0625 365.076 88.4414C365.33 88.8164 365.711 89.0039 366.219 89.0039ZM376.602 90H375.219V86.0039C375.219 85.5078 375.125 85.1387 374.938 84.8965C374.75 84.6504 374.457 84.5273 374.059 84.5273C373.527 84.5273 373.137 84.7012 372.887 85.0488C372.641 85.3926 372.518 85.9668 372.518 86.7715V90H371.141V83.5195H372.219L372.412 84.3691H372.482C372.662 84.0605 372.922 83.8223 373.262 83.6543C373.605 83.4863 373.982 83.4023 374.393 83.4023C375.389 83.4023 376.049 83.7422 376.373 84.4219H376.467C376.658 84.1016 376.928 83.8516 377.275 83.6719C377.623 83.4922 378.021 83.4023 378.471 83.4023C379.244 83.4023 379.807 83.5977 380.158 83.9883C380.514 84.3789 380.691 84.9746 380.691 85.7754V90H379.314V86.0039C379.314 85.5078 379.219 85.1387 379.027 84.8965C378.84 84.6504 378.547 84.5273 378.148 84.5273C377.613 84.5273 377.221 84.6953 376.971 85.0312C376.725 85.3633 376.602 85.875 376.602 86.5664V90ZM383.99 90H382.613V83.5195H383.99V90ZM382.531 81.8027C382.531 81.5566 382.598 81.3672 382.73 81.2344C382.867 81.1016 383.061 81.0352 383.311 81.0352C383.553 81.0352 383.74 81.1016 383.873 81.2344C384.01 81.3672 384.078 81.5566 384.078 81.8027C384.078 82.0371 384.01 82.2227 383.873 82.3594C383.74 82.4922 383.553 82.5586 383.311 82.5586C383.061 82.5586 382.867 82.4922 382.73 82.3594C382.598 82.2227 382.531 82.0371 382.531 81.8027ZM391.666 90H390.283V86.0156C390.283 85.5156 390.182 85.1426 389.979 84.8965C389.779 84.6504 389.461 84.5273 389.023 84.5273C388.441 84.5273 388.016 84.6992 387.746 85.043C387.477 85.3867 387.342 85.9629 387.342 86.7715V90H385.965V83.5195H387.043L387.236 84.3691H387.307C387.502 84.0605 387.779 83.8223 388.139 83.6543C388.498 83.4863 388.896 83.4023 389.334 83.4023C390.889 83.4023 391.666 84.1934 391.666 85.7754V90ZM397.936 88.1543C397.936 88.7871 397.705 89.2734 397.244 89.6133C396.783 89.9492 396.123 90.1172 395.264 90.1172C394.4 90.1172 393.707 89.9863 393.184 89.7246V88.5352C393.945 88.8867 394.654 89.0625 395.311 89.0625C396.158 89.0625 396.582 88.8066 396.582 88.2949C396.582 88.1309 396.535 87.9941 396.441 87.8848C396.348 87.7754 396.193 87.6621 395.979 87.5449C395.764 87.4277 395.465 87.2949 395.082 87.1465C394.336 86.8574 393.83 86.5684 393.564 86.2793C393.303 85.9902 393.172 85.6152 393.172 85.1543C393.172 84.5996 393.395 84.1699 393.84 83.8652C394.289 83.5566 394.898 83.4023 395.668 83.4023C396.43 83.4023 397.15 83.5566 397.83 83.8652L397.385 84.9023C396.686 84.6133 396.098 84.4688 395.621 84.4688C394.895 84.4688 394.531 84.6758 394.531 85.0898C394.531 85.293 394.625 85.4648 394.812 85.6055C395.004 85.7461 395.418 85.9395 396.055 86.1855C396.59 86.3926 396.979 86.582 397.221 86.7539C397.463 86.9258 397.643 87.125 397.76 87.3516C397.877 87.5742 397.936 87.8418 397.936 88.1543Z" fill="#28232D"/>
<rect x="276.5" y="67.5" width="136" height="36" rx="5.5" stroke="#1F8B4D" stroke-opacity="0.4"/>
<rect x="235" y="122" width="219" height="53" rx="6" fill="white"/>
<path fill-rule="evenodd" clip-rule="evenodd" d="M254.501 142.289C254.191 142.11 253.81 142.11 253.501 142.289L249.305 144.711C248.995 144.89 248.805 145.22 248.805 145.577V150.423C248.805 150.78 248.995 151.11 249.305 151.289L253.501 153.711C253.81 153.89 254.191 153.89 254.501 153.711L258.697 151.289C259.006 151.11 259.197 150.78 259.197 150.423V145.577C259.197 145.22 259.006 144.89 258.697 144.711L254.501 142.289ZM250.749 145.566C250.509 145.429 250.204 145.512 250.067 145.752C249.93 145.992 250.013 146.297 250.253 146.434L253.501 148.29V152C253.501 152.276 253.725 152.5 254.001 152.5C254.277 152.5 254.501 152.276 254.501 152V148.29L257.749 146.434C257.989 146.297 258.072 145.992 257.935 145.752C257.798 145.512 257.493 145.429 257.253 145.566L254.001 147.424L250.749 145.566Z" fill="#27AE60"/>
<path d="M274.635 140.354H277.787V144.654C277.271 144.822 276.775 144.941 276.299 145.012C275.826 145.082 275.314 145.117 274.764 145.117C273.467 145.117 272.467 144.734 271.764 143.969C271.061 143.199 270.709 142.115 270.709 140.717C270.709 139.338 271.105 138.26 271.898 137.482C272.691 136.701 273.783 136.311 275.174 136.311C276.068 136.311 276.916 136.482 277.717 136.826L277.225 137.992C276.529 137.672 275.834 137.512 275.139 137.512C274.225 137.512 273.502 137.799 272.971 138.373C272.439 138.947 272.174 139.732 272.174 140.729C272.174 141.775 272.412 142.572 272.889 143.119C273.369 143.662 274.059 143.934 274.957 143.934C275.41 143.934 275.895 143.877 276.41 143.764V141.555H274.635V140.354ZM282.533 145.117C281.525 145.117 280.736 144.824 280.166 144.238C279.6 143.648 279.316 142.838 279.316 141.807C279.316 140.748 279.58 139.916 280.107 139.311C280.635 138.705 281.359 138.402 282.281 138.402C283.137 138.402 283.812 138.662 284.309 139.182C284.805 139.701 285.053 140.416 285.053 141.326V142.07H280.734C280.754 142.699 280.924 143.184 281.244 143.523C281.564 143.859 282.016 144.027 282.598 144.027C282.98 144.027 283.336 143.992 283.664 143.922C283.996 143.848 284.352 143.727 284.73 143.559V144.678C284.395 144.838 284.055 144.951 283.711 145.018C283.367 145.084 282.975 145.117 282.533 145.117ZM282.281 139.445C281.844 139.445 281.492 139.584 281.227 139.861C280.965 140.139 280.809 140.543 280.758 141.074H283.699C283.691 140.539 283.562 140.135 283.312 139.861C283.062 139.584 282.719 139.445 282.281 139.445ZM292.318 145H290.936V141.016C290.936 140.516 290.834 140.143 290.631 139.896C290.432 139.65 290.113 139.527 289.676 139.527C289.094 139.527 288.668 139.699 288.398 140.043C288.129 140.387 287.994 140.963 287.994 141.771V145H286.617V138.52H287.695L287.889 139.369H287.959C288.154 139.061 288.432 138.822 288.791 138.654C289.15 138.486 289.549 138.402 289.986 138.402C291.541 138.402 292.318 139.193 292.318 140.775V145ZM297.064 145.117C296.057 145.117 295.268 144.824 294.697 144.238C294.131 143.648 293.848 142.838 293.848 141.807C293.848 140.748 294.111 139.916 294.639 139.311C295.166 138.705 295.891 138.402 296.812 138.402C297.668 138.402 298.344 138.662 298.84 139.182C299.336 139.701 299.584 140.416 299.584 141.326V142.07H295.266C295.285 142.699 295.455 143.184 295.775 143.523C296.096 143.859 296.547 144.027 297.129 144.027C297.512 144.027 297.867 143.992 298.195 143.922C298.527 143.848 298.883 143.727 299.262 143.559V144.678C298.926 144.838 298.586 144.951 298.242 145.018C297.898 145.084 297.506 145.117 297.064 145.117ZM296.812 139.445C296.375 139.445 296.023 139.584 295.758 139.861C295.496 140.139 295.34 140.543 295.289 141.074H298.23C298.223 140.539 298.094 140.135 297.844 139.861C297.594 139.584 297.25 139.445 296.812 139.445ZM304.436 138.402C304.713 138.402 304.941 138.422 305.121 138.461L304.986 139.744C304.791 139.697 304.588 139.674 304.377 139.674C303.826 139.674 303.379 139.854 303.035 140.213C302.695 140.572 302.525 141.039 302.525 141.613V145H301.148V138.52H302.227L302.408 139.662H302.479C302.693 139.275 302.973 138.969 303.316 138.742C303.664 138.516 304.037 138.402 304.436 138.402ZM307.705 145H306.328V138.52H307.705V145ZM306.246 136.803C306.246 136.557 306.312 136.367 306.445 136.234C306.582 136.102 306.775 136.035 307.025 136.035C307.268 136.035 307.455 136.102 307.588 136.234C307.725 136.367 307.793 136.557 307.793 136.803C307.793 137.037 307.725 137.223 307.588 137.359C307.455 137.492 307.268 137.559 307.025 137.559C306.775 137.559 306.582 137.492 306.445 137.359C306.312 137.223 306.246 137.037 306.246 136.803ZM312.293 145.117C311.312 145.117 310.566 144.832 310.055 144.262C309.547 143.688 309.293 142.865 309.293 141.795C309.293 140.705 309.559 139.867 310.09 139.281C310.625 138.695 311.396 138.402 312.404 138.402C313.088 138.402 313.703 138.529 314.25 138.783L313.834 139.891C313.252 139.664 312.771 139.551 312.393 139.551C311.271 139.551 310.711 140.295 310.711 141.783C310.711 142.51 310.85 143.057 311.127 143.424C311.408 143.787 311.818 143.969 312.357 143.969C312.971 143.969 313.551 143.816 314.098 143.512V144.713C313.852 144.857 313.588 144.961 313.307 145.023C313.029 145.086 312.691 145.117 312.293 145.117ZM320.285 140.418H321.258C321.91 140.418 322.383 140.297 322.676 140.055C322.969 139.812 323.115 139.453 323.115 138.977C323.115 138.492 322.957 138.145 322.641 137.934C322.324 137.723 321.848 137.617 321.211 137.617H320.285V140.418ZM320.285 141.578V145H318.885V136.434H321.305C322.41 136.434 323.229 136.641 323.76 137.055C324.291 137.469 324.557 138.094 324.557 138.93C324.557 139.996 324.002 140.756 322.893 141.209L325.312 145H323.719L321.668 141.578H320.285ZM332.162 141.748C332.162 142.807 331.891 143.633 331.348 144.227C330.805 144.82 330.049 145.117 329.08 145.117C328.475 145.117 327.939 144.98 327.475 144.707C327.01 144.434 326.652 144.041 326.402 143.529C326.152 143.018 326.027 142.424 326.027 141.748C326.027 140.697 326.297 139.877 326.836 139.287C327.375 138.697 328.135 138.402 329.115 138.402C330.053 138.402 330.795 138.705 331.342 139.311C331.889 139.912 332.162 140.725 332.162 141.748ZM327.445 141.748C327.445 143.244 327.998 143.992 329.104 143.992C330.197 143.992 330.744 143.244 330.744 141.748C330.744 140.268 330.193 139.527 329.092 139.527C328.514 139.527 328.094 139.719 327.832 140.102C327.574 140.484 327.445 141.033 327.445 141.748ZM335.127 145H333.75V135.883H335.127V145ZM339.932 145.117C338.924 145.117 338.135 144.824 337.564 144.238C336.998 143.648 336.715 142.838 336.715 141.807C336.715 140.748 336.979 139.916 337.506 139.311C338.033 138.705 338.758 138.402 339.68 138.402C340.535 138.402 341.211 138.662 341.707 139.182C342.203 139.701 342.451 140.416 342.451 141.326V142.07H338.133C338.152 142.699 338.322 143.184 338.643 143.523C338.963 143.859 339.414 144.027 339.996 144.027C340.379 144.027 340.734 143.992 341.062 143.922C341.395 143.848 341.75 143.727 342.129 143.559V144.678C341.793 144.838 341.453 144.951 341.109 145.018C340.766 145.084 340.373 145.117 339.932 145.117ZM339.68 139.445C339.242 139.445 338.891 139.584 338.625 139.861C338.363 140.139 338.207 140.543 338.156 141.074H341.098C341.09 140.539 340.961 140.135 340.711 139.861C340.461 139.584 340.117 139.445 339.68 139.445ZM270.48 157.713C270.48 156.678 270.631 155.709 270.932 154.807C271.236 153.904 271.674 153.113 272.244 152.434H273.445C272.902 153.168 272.486 153.992 272.197 154.906C271.908 155.816 271.764 156.748 271.764 157.701C271.764 158.654 271.908 159.578 272.197 160.473C272.486 161.367 272.898 162.176 273.434 162.898H272.244C271.67 162.234 271.232 161.459 270.932 160.572C270.631 159.686 270.48 158.732 270.48 157.713ZM276.34 156.418H277.312C277.965 156.418 278.438 156.297 278.73 156.055C279.023 155.812 279.17 155.453 279.17 154.977C279.17 154.492 279.012 154.145 278.695 153.934C278.379 153.723 277.902 153.617 277.266 153.617H276.34V156.418ZM276.34 157.578V161H274.939V152.434H277.359C278.465 152.434 279.283 152.641 279.814 153.055C280.346 153.469 280.611 154.094 280.611 154.93C280.611 155.996 280.057 156.756 278.947 157.209L281.367 161H279.773L277.723 157.578H276.34ZM285.299 161.117C284.291 161.117 283.502 160.824 282.932 160.238C282.365 159.648 282.082 158.838 282.082 157.807C282.082 156.748 282.346 155.916 282.873 155.311C283.4 154.705 284.125 154.402 285.047 154.402C285.902 154.402 286.578 154.662 287.074 155.182C287.57 155.701 287.818 156.416 287.818 157.326V158.07H283.5C283.52 158.699 283.689 159.184 284.01 159.523C284.33 159.859 284.781 160.027 285.363 160.027C285.746 160.027 286.102 159.992 286.43 159.922C286.762 159.848 287.117 159.727 287.496 159.559V160.678C287.16 160.838 286.82 160.951 286.477 161.018C286.133 161.084 285.74 161.117 285.299 161.117ZM285.047 155.445C284.609 155.445 284.258 155.584 283.992 155.861C283.73 156.139 283.574 156.543 283.523 157.074H286.465C286.457 156.539 286.328 156.135 286.078 155.861C285.828 155.584 285.484 155.445 285.047 155.445ZM293.736 159.154C293.736 159.787 293.506 160.273 293.045 160.613C292.584 160.949 291.924 161.117 291.064 161.117C290.201 161.117 289.508 160.986 288.984 160.725V159.535C289.746 159.887 290.455 160.062 291.111 160.062C291.959 160.062 292.383 159.807 292.383 159.295C292.383 159.131 292.336 158.994 292.242 158.885C292.148 158.775 291.994 158.662 291.779 158.545C291.564 158.428 291.266 158.295 290.883 158.146C290.137 157.857 289.631 157.568 289.365 157.279C289.104 156.99 288.973 156.615 288.973 156.154C288.973 155.6 289.195 155.17 289.641 154.865C290.09 154.557 290.699 154.402 291.469 154.402C292.23 154.402 292.951 154.557 293.631 154.865L293.186 155.902C292.486 155.613 291.898 155.469 291.422 155.469C290.695 155.469 290.332 155.676 290.332 156.09C290.332 156.293 290.426 156.465 290.613 156.605C290.805 156.746 291.219 156.939 291.855 157.186C292.391 157.393 292.779 157.582 293.021 157.754C293.264 157.926 293.443 158.125 293.561 158.352C293.678 158.574 293.736 158.842 293.736 159.154ZM300.979 157.748C300.979 158.807 300.707 159.633 300.164 160.227C299.621 160.82 298.865 161.117 297.896 161.117C297.291 161.117 296.756 160.98 296.291 160.707C295.826 160.434 295.469 160.041 295.219 159.529C294.969 159.018 294.844 158.424 294.844 157.748C294.844 156.697 295.113 155.877 295.652 155.287C296.191 154.697 296.951 154.402 297.932 154.402C298.869 154.402 299.611 154.705 300.158 155.311C300.705 155.912 300.979 156.725 300.979 157.748ZM296.262 157.748C296.262 159.244 296.814 159.992 297.92 159.992C299.014 159.992 299.561 159.244 299.561 157.748C299.561 156.268 299.01 155.527 297.908 155.527C297.33 155.527 296.91 155.719 296.648 156.102C296.391 156.484 296.262 157.033 296.262 157.748ZM307.137 161L306.943 160.15H306.873C306.682 160.451 306.408 160.688 306.053 160.859C305.701 161.031 305.299 161.117 304.846 161.117C304.061 161.117 303.475 160.922 303.088 160.531C302.701 160.141 302.508 159.549 302.508 158.756V154.52H303.896V158.516C303.896 159.012 303.998 159.385 304.201 159.635C304.404 159.881 304.723 160.004 305.156 160.004C305.734 160.004 306.158 159.832 306.428 159.488C306.701 159.141 306.838 158.561 306.838 157.748V154.52H308.221V161H307.137ZM313.471 154.402C313.748 154.402 313.977 154.422 314.156 154.461L314.021 155.744C313.826 155.697 313.623 155.674 313.412 155.674C312.861 155.674 312.414 155.854 312.07 156.213C311.73 156.572 311.561 157.039 311.561 157.613V161H310.184V154.52H311.262L311.443 155.662H311.514C311.729 155.275 312.008 154.969 312.352 154.742C312.699 154.516 313.072 154.402 313.471 154.402ZM317.977 161.117C316.996 161.117 316.25 160.832 315.738 160.262C315.23 159.688 314.977 158.865 314.977 157.795C314.977 156.705 315.242 155.867 315.773 155.281C316.309 154.695 317.08 154.402 318.088 154.402C318.771 154.402 319.387 154.529 319.934 154.783L319.518 155.891C318.936 155.664 318.455 155.551 318.076 155.551C316.955 155.551 316.395 156.295 316.395 157.783C316.395 158.51 316.533 159.057 316.811 159.424C317.092 159.787 317.502 159.969 318.041 159.969C318.654 159.969 319.234 159.816 319.781 159.512V160.713C319.535 160.857 319.271 160.961 318.99 161.023C318.713 161.086 318.375 161.117 317.977 161.117ZM324.135 161.117C323.127 161.117 322.338 160.824 321.768 160.238C321.201 159.648 320.918 158.838 320.918 157.807C320.918 156.748 321.182 155.916 321.709 155.311C322.236 154.705 322.961 154.402 323.883 154.402C324.738 154.402 325.414 154.662 325.91 155.182C326.406 155.701 326.654 156.416 326.654 157.326V158.07H322.336C322.355 158.699 322.525 159.184 322.846 159.523C323.166 159.859 323.617 160.027 324.199 160.027C324.582 160.027 324.938 159.992 325.266 159.922C325.598 159.848 325.953 159.727 326.332 159.559V160.678C325.996 160.838 325.656 160.951 325.312 161.018C324.969 161.084 324.576 161.117 324.135 161.117ZM323.883 155.445C323.445 155.445 323.094 155.584 322.828 155.861C322.566 156.139 322.41 156.543 322.359 157.074H325.301C325.293 156.539 325.164 156.135 324.914 155.861C324.664 155.584 324.32 155.445 323.883 155.445ZM328.014 160.268C328.014 159.982 328.088 159.764 328.236 159.611C328.385 159.459 328.6 159.383 328.881 159.383C329.166 159.383 329.383 159.463 329.531 159.623C329.68 159.779 329.754 159.994 329.754 160.268C329.754 160.545 329.678 160.766 329.525 160.93C329.377 161.09 329.162 161.17 328.881 161.17C328.6 161.17 328.385 161.09 328.236 160.93C328.088 160.77 328.014 160.549 328.014 160.268ZM328.014 155.264C328.014 154.674 328.303 154.379 328.881 154.379C329.174 154.379 329.393 154.457 329.537 154.613C329.682 154.77 329.754 154.986 329.754 155.264C329.754 155.541 329.678 155.762 329.525 155.926C329.377 156.086 329.162 156.166 328.881 156.166C328.6 156.166 328.385 156.086 328.236 155.926C328.088 155.766 328.014 155.545 328.014 155.264ZM340.102 161L339.246 158.621H335.971L335.133 161H333.656L336.861 152.398H338.385L341.59 161H340.102ZM338.877 157.414L338.074 155.082C338.016 154.926 337.934 154.68 337.828 154.344C337.727 154.008 337.656 153.762 337.617 153.605C337.512 154.086 337.357 154.611 337.154 155.182L336.381 157.414H338.877ZM343.951 161H342.574V151.883H343.951V161ZM347.303 161H345.926V151.883H347.303V161ZM350.707 159.74C350.52 160.467 350.176 161.402 349.676 162.547H348.662C348.932 161.492 349.133 160.512 349.266 159.605H350.619L350.707 159.74ZM363.357 156.705C363.357 158.1 363.008 159.184 362.309 159.957C361.613 160.73 360.627 161.117 359.35 161.117C358.057 161.117 357.062 160.734 356.367 159.969C355.676 159.199 355.33 158.107 355.33 156.693C355.33 155.279 355.678 154.193 356.373 153.436C357.072 152.678 358.068 152.299 359.361 152.299C360.635 152.299 361.619 152.684 362.314 153.453C363.01 154.223 363.357 155.307 363.357 156.705ZM356.818 156.705C356.818 157.76 357.031 158.561 357.457 159.107C357.883 159.65 358.514 159.922 359.35 159.922C360.182 159.922 360.809 159.652 361.23 159.113C361.656 158.574 361.869 157.771 361.869 156.705C361.869 155.654 361.658 154.857 361.236 154.314C360.818 153.771 360.193 153.5 359.361 153.5C358.521 153.5 357.887 153.771 357.457 154.314C357.031 154.857 356.818 155.654 356.818 156.705ZM368.338 161.117C367.518 161.117 366.881 160.822 366.428 160.232H366.346C366.4 160.779 366.428 161.111 366.428 161.229V163.883H365.051V154.52H366.164C366.195 154.641 366.26 154.93 366.357 155.387H366.428C366.857 154.73 367.502 154.402 368.361 154.402C369.17 154.402 369.799 154.695 370.248 155.281C370.701 155.867 370.928 156.689 370.928 157.748C370.928 158.807 370.697 159.633 370.236 160.227C369.779 160.82 369.146 161.117 368.338 161.117ZM368.004 155.527C367.457 155.527 367.057 155.688 366.803 156.008C366.553 156.328 366.428 156.84 366.428 157.543V157.748C366.428 158.537 366.553 159.109 366.803 159.465C367.053 159.816 367.461 159.992 368.027 159.992C368.504 159.992 368.871 159.797 369.129 159.406C369.387 159.016 369.516 158.459 369.516 157.736C369.516 157.01 369.387 156.461 369.129 156.09C368.875 155.715 368.5 155.527 368.004 155.527ZM375.357 161.117C374.35 161.117 373.561 160.824 372.99 160.238C372.424 159.648 372.141 158.838 372.141 157.807C372.141 156.748 372.404 155.916 372.932 155.311C373.459 154.705 374.184 154.402 375.105 154.402C375.961 154.402 376.637 154.662 377.133 155.182C377.629 155.701 377.877 156.416 377.877 157.326V158.07H373.559C373.578 158.699 373.748 159.184 374.068 159.523C374.389 159.859 374.84 160.027 375.422 160.027C375.805 160.027 376.16 159.992 376.488 159.922C376.82 159.848 377.176 159.727 377.555 159.559V160.678C377.219 160.838 376.879 160.951 376.535 161.018C376.191 161.084 375.799 161.117 375.357 161.117ZM375.105 155.445C374.668 155.445 374.316 155.584 374.051 155.861C373.789 156.139 373.633 156.543 373.582 157.074H376.523C376.516 156.539 376.387 156.135 376.137 155.861C375.887 155.584 375.543 155.445 375.105 155.445ZM382.729 154.402C383.006 154.402 383.234 154.422 383.414 154.461L383.279 155.744C383.084 155.697 382.881 155.674 382.67 155.674C382.119 155.674 381.672 155.854 381.328 156.213C380.988 156.572 380.818 157.039 380.818 157.613V161H379.441V154.52H380.52L380.701 155.662H380.771C380.986 155.275 381.266 154.969 381.609 154.742C381.957 154.516 382.33 154.402 382.729 154.402ZM388.676 161L388.4 160.098H388.354C388.041 160.492 387.727 160.762 387.41 160.906C387.094 161.047 386.688 161.117 386.191 161.117C385.555 161.117 385.057 160.945 384.697 160.602C384.342 160.258 384.164 159.771 384.164 159.143C384.164 158.475 384.412 157.971 384.908 157.631C385.404 157.291 386.16 157.105 387.176 157.074L388.295 157.039V156.693C388.295 156.279 388.197 155.971 388.002 155.768C387.811 155.561 387.512 155.457 387.105 155.457C386.773 155.457 386.455 155.506 386.15 155.604C385.846 155.701 385.553 155.816 385.271 155.949L384.826 154.965C385.178 154.781 385.562 154.643 385.98 154.549C386.398 154.451 386.793 154.402 387.164 154.402C387.988 154.402 388.609 154.582 389.027 154.941C389.449 155.301 389.66 155.865 389.66 156.635V161H388.676ZM386.625 160.062C387.125 160.062 387.525 159.924 387.826 159.646C388.131 159.365 388.283 158.973 388.283 158.469V157.906L387.451 157.941C386.803 157.965 386.33 158.074 386.033 158.27C385.74 158.461 385.594 158.756 385.594 159.154C385.594 159.443 385.68 159.668 385.852 159.828C386.023 159.984 386.281 160.062 386.625 160.062ZM393.996 160.004C394.332 160.004 394.668 159.951 395.004 159.846V160.883C394.852 160.949 394.654 161.004 394.412 161.047C394.174 161.094 393.926 161.117 393.668 161.117C392.363 161.117 391.711 160.43 391.711 159.055V155.562H390.826V154.953L391.775 154.449L392.244 153.078H393.094V154.52H394.939V155.562H393.094V159.031C393.094 159.363 393.176 159.609 393.34 159.77C393.508 159.926 393.727 160.004 393.996 160.004ZM397.682 161H396.305V154.52H397.682V161ZM396.223 152.803C396.223 152.557 396.289 152.367 396.422 152.234C396.559 152.102 396.752 152.035 397.002 152.035C397.244 152.035 397.432 152.102 397.564 152.234C397.701 152.367 397.77 152.557 397.77 152.803C397.77 153.037 397.701 153.223 397.564 153.359C397.432 153.492 397.244 153.559 397.002 153.559C396.752 153.559 396.559 153.492 396.422 153.359C396.289 153.223 396.223 153.037 396.223 152.803ZM405.404 157.748C405.404 158.807 405.133 159.633 404.59 160.227C404.047 160.82 403.291 161.117 402.322 161.117C401.717 161.117 401.182 160.98 400.717 160.707C400.252 160.434 399.895 160.041 399.645 159.529C399.395 159.018 399.27 158.424 399.27 157.748C399.27 156.697 399.539 155.877 400.078 155.287C400.617 154.697 401.377 154.402 402.357 154.402C403.295 154.402 404.037 154.705 404.584 155.311C405.131 155.912 405.404 156.725 405.404 157.748ZM400.688 157.748C400.688 159.244 401.24 159.992 402.346 159.992C403.439 159.992 403.986 159.244 403.986 157.748C403.986 156.268 403.436 155.527 402.334 155.527C401.756 155.527 401.336 155.719 401.074 156.102C400.816 156.484 400.688 157.033 400.688 157.748ZM412.693 161H411.311V157.016C411.311 156.516 411.209 156.143 411.006 155.896C410.807 155.65 410.488 155.527 410.051 155.527C409.469 155.527 409.043 155.699 408.773 156.043C408.504 156.387 408.369 156.963 408.369 157.771V161H406.992V154.52H408.07L408.264 155.369H408.334C408.529 155.061 408.807 154.822 409.166 154.654C409.525 154.486 409.924 154.402 410.361 154.402C411.916 154.402 412.693 155.193 412.693 156.775V161ZM414.404 160.268C414.404 159.982 414.479 159.764 414.627 159.611C414.775 159.459 414.99 159.383 415.271 159.383C415.557 159.383 415.773 159.463 415.922 159.623C416.07 159.779 416.145 159.994 416.145 160.268C416.145 160.545 416.068 160.766 415.916 160.93C415.768 161.09 415.553 161.17 415.271 161.17C414.99 161.17 414.775 161.09 414.627 160.93C414.479 160.77 414.404 160.549 414.404 160.268ZM414.404 155.264C414.404 154.674 414.693 154.379 415.271 154.379C415.564 154.379 415.783 154.457 415.928 154.613C416.072 154.77 416.145 154.986 416.145 155.264C416.145 155.541 416.068 155.762 415.916 155.926C415.768 156.086 415.553 156.166 415.271 156.166C414.99 156.166 414.775 156.086 414.627 155.926C414.479 155.766 414.404 155.545 414.404 155.264ZM426.492 161L425.637 158.621H422.361L421.523 161H420.047L423.252 152.398H424.775L427.98 161H426.492ZM425.268 157.414L424.465 155.082C424.406 154.926 424.324 154.68 424.219 154.344C424.117 154.008 424.047 153.762 424.008 153.605C423.902 154.086 423.748 154.611 423.545 155.182L422.771 157.414H425.268ZM430.342 161H428.965V151.883H430.342V161ZM433.693 161H432.316V151.883H433.693V161ZM438.006 157.713C438.006 158.74 437.854 159.697 437.549 160.584C437.248 161.471 436.812 162.242 436.242 162.898H435.053C435.592 162.168 436.004 161.357 436.289 160.467C436.578 159.576 436.723 158.654 436.723 157.701C436.723 156.744 436.578 155.812 436.289 154.906C436 153.996 435.584 153.172 435.041 152.434H436.242C436.816 153.117 437.254 153.912 437.555 154.818C437.855 155.721 438.006 156.686 438.006 157.713Z" fill="#28232D"/>
<rect x="235.5" y="122.5" width="218" height="52" rx="5.5" stroke="#1F8B4D" stroke-opacity="0.4"/>
<rect x="55" y="122" width="143" height="53" rx="6" fill="#EDFFF5"/>
<path fill-rule="evenodd" clip-rule="evenodd" d="M74.5008 142.289C74.1914 142.11 73.8102 142.11 73.5008 142.289L69.3047 144.711C68.9953 144.89 68.8047 145.22 68.8047 145.577V150.423C68.8047 150.78 68.9953 151.11 69.3047 151.289L73.5008 153.711C73.8102 153.89 74.1914 153.89 74.5008 153.711L78.697 151.289C79.0064 151.11 79.197 150.78 79.197 150.423V145.577C79.197 145.22 79.0064 144.89 78.697 144.711L74.5008 142.289ZM70.7489 145.566C70.5092 145.429 70.2037 145.512 70.0667 145.752C69.9297 145.992 70.013 146.297 70.2528 146.434L73.5008 148.29V152C73.5008 152.276 73.7247 152.5 74.0008 152.5C74.277 152.5 74.5008 152.276 74.5008 152V148.29L77.7489 146.434C77.9887 146.297 78.072 145.992 77.935 145.752C77.798 145.512 77.4925 145.429 77.2528 145.566L74.0008 147.424L70.7489 145.566Z" fill="#27AE60"/>
<path d="M94.9453 140.512H97.8574V144.678C97.4043 144.822 96.9434 144.932 96.4746 145.006C96.0059 145.08 95.4629 145.117 94.8457 145.117C93.5488 145.117 92.5391 144.732 91.8164 143.963C91.0938 143.189 90.7324 142.107 90.7324 140.717C90.7324 139.826 90.9102 139.047 91.2656 138.379C91.625 137.707 92.1406 137.195 92.8125 136.844C93.4844 136.488 94.2715 136.311 95.1738 136.311C96.0879 136.311 96.9395 136.479 97.7285 136.814L97.3418 137.693C96.5684 137.365 95.8242 137.201 95.1094 137.201C94.0664 137.201 93.252 137.512 92.666 138.133C92.0801 138.754 91.7871 139.615 91.7871 140.717C91.7871 141.873 92.0684 142.75 92.6309 143.348C93.1973 143.945 94.0273 144.244 95.1211 144.244C95.7148 144.244 96.2949 144.176 96.8613 144.039V141.402H94.9453V140.512ZM102.703 138.461C102.988 138.461 103.244 138.484 103.471 138.531L103.336 139.434C103.07 139.375 102.836 139.346 102.633 139.346C102.113 139.346 101.668 139.557 101.297 139.979C100.93 140.4 100.746 140.926 100.746 141.555V145H99.7734V138.578H100.576L100.688 139.768H100.734C100.973 139.35 101.26 139.027 101.596 138.801C101.932 138.574 102.301 138.461 102.703 138.461ZM110.215 141.783C110.215 142.83 109.951 143.648 109.424 144.238C108.896 144.824 108.168 145.117 107.238 145.117C106.664 145.117 106.154 144.982 105.709 144.713C105.264 144.443 104.92 144.057 104.678 143.553C104.436 143.049 104.314 142.459 104.314 141.783C104.314 140.736 104.576 139.922 105.1 139.34C105.623 138.754 106.35 138.461 107.279 138.461C108.178 138.461 108.891 138.76 109.418 139.357C109.949 139.955 110.215 140.764 110.215 141.783ZM105.322 141.783C105.322 142.604 105.486 143.229 105.814 143.658C106.143 144.088 106.625 144.303 107.262 144.303C107.898 144.303 108.381 144.09 108.709 143.664C109.041 143.234 109.207 142.607 109.207 141.783C109.207 140.967 109.041 140.348 108.709 139.926C108.381 139.5 107.895 139.287 107.25 139.287C106.613 139.287 106.133 139.496 105.809 139.914C105.484 140.332 105.322 140.955 105.322 141.783ZM112.84 138.578V142.744C112.84 143.268 112.959 143.658 113.197 143.916C113.436 144.174 113.809 144.303 114.316 144.303C114.988 144.303 115.479 144.119 115.787 143.752C116.1 143.385 116.256 142.785 116.256 141.953V138.578H117.229V145H116.426L116.285 144.139H116.232C116.033 144.455 115.756 144.697 115.4 144.865C115.049 145.033 114.646 145.117 114.193 145.117C113.412 145.117 112.826 144.932 112.436 144.561C112.049 144.189 111.855 143.596 111.855 142.779V138.578H112.84ZM122.285 145.117C121.867 145.117 121.484 145.041 121.137 144.889C120.793 144.732 120.504 144.494 120.27 144.174H120.199C120.246 144.549 120.27 144.904 120.27 145.24V147.883H119.297V138.578H120.088L120.223 139.457H120.27C120.52 139.105 120.811 138.852 121.143 138.695C121.475 138.539 121.855 138.461 122.285 138.461C123.137 138.461 123.793 138.752 124.254 139.334C124.719 139.916 124.951 140.732 124.951 141.783C124.951 142.838 124.715 143.658 124.242 144.244C123.773 144.826 123.121 145.117 122.285 145.117ZM122.145 139.287C121.488 139.287 121.014 139.469 120.721 139.832C120.428 140.195 120.277 140.773 120.27 141.566V141.783C120.27 142.686 120.42 143.332 120.721 143.723C121.021 144.109 121.504 144.303 122.168 144.303C122.723 144.303 123.156 144.078 123.469 143.629C123.785 143.18 123.943 142.561 123.943 141.771C123.943 140.971 123.785 140.357 123.469 139.932C123.156 139.502 122.715 139.287 122.145 139.287ZM130.916 141.438V145H129.92V136.434H132.27C133.32 136.434 134.096 136.635 134.596 137.037C135.1 137.439 135.352 138.045 135.352 138.854C135.352 139.986 134.777 140.752 133.629 141.15L135.955 145H134.777L132.703 141.438H130.916ZM130.916 140.582H132.281C132.984 140.582 133.5 140.443 133.828 140.166C134.156 139.885 134.32 139.465 134.32 138.906C134.32 138.34 134.152 137.932 133.816 137.682C133.484 137.432 132.949 137.307 132.211 137.307H130.916V140.582ZM142.734 141.783C142.734 142.83 142.471 143.648 141.943 144.238C141.416 144.824 140.688 145.117 139.758 145.117C139.184 145.117 138.674 144.982 138.229 144.713C137.783 144.443 137.439 144.057 137.197 143.553C136.955 143.049 136.834 142.459 136.834 141.783C136.834 140.736 137.096 139.922 137.619 139.34C138.143 138.754 138.869 138.461 139.799 138.461C140.697 138.461 141.41 138.76 141.938 139.357C142.469 139.955 142.734 140.764 142.734 141.783ZM137.842 141.783C137.842 142.604 138.006 143.229 138.334 143.658C138.662 144.088 139.145 144.303 139.781 144.303C140.418 144.303 140.9 144.09 141.229 143.664C141.561 143.234 141.727 142.607 141.727 141.783C141.727 140.967 141.561 140.348 141.229 139.926C140.9 139.5 140.414 139.287 139.77 139.287C139.133 139.287 138.652 139.496 138.328 139.914C138.004 140.332 137.842 140.955 137.842 141.783ZM145.418 145H144.445V135.883H145.418V145ZM150.193 145.117C149.244 145.117 148.494 144.828 147.943 144.25C147.396 143.672 147.123 142.869 147.123 141.842C147.123 140.807 147.377 139.984 147.885 139.375C148.396 138.766 149.082 138.461 149.941 138.461C150.746 138.461 151.383 138.727 151.852 139.258C152.32 139.785 152.555 140.482 152.555 141.35V141.965H148.131C148.15 142.719 148.34 143.291 148.699 143.682C149.062 144.072 149.572 144.268 150.229 144.268C150.92 144.268 151.604 144.123 152.279 143.834V144.701C151.936 144.85 151.609 144.955 151.301 145.018C150.996 145.084 150.627 145.117 150.193 145.117ZM149.93 139.275C149.414 139.275 149.002 139.443 148.693 139.779C148.389 140.115 148.209 140.58 148.154 141.174H151.512C151.512 140.561 151.375 140.092 151.102 139.768C150.828 139.439 150.438 139.275 149.93 139.275ZM90.4805 157.713C90.4805 156.678 90.6309 155.709 90.9316 154.807C91.2363 153.904 91.6738 153.113 92.2441 152.434H93.1934C92.6309 153.188 92.207 154.016 91.9219 154.918C91.6406 155.82 91.5 156.748 91.5 157.701C91.5 158.639 91.6445 159.555 91.9336 160.449C92.2227 161.344 92.6387 162.16 93.1816 162.898H92.2441C91.6699 162.234 91.2324 161.459 90.9316 160.572C90.6309 159.686 90.4805 158.732 90.4805 157.713ZM95.7246 157.438V161H94.7285V152.434H97.0781C98.1289 152.434 98.9043 152.635 99.4043 153.037C99.9082 153.439 100.16 154.045 100.16 154.854C100.16 155.986 99.5859 156.752 98.4375 157.15L100.764 161H99.5859L97.5117 157.438H95.7246ZM95.7246 156.582H97.0898C97.793 156.582 98.3086 156.443 98.6367 156.166C98.9648 155.885 99.1289 155.465 99.1289 154.906C99.1289 154.34 98.9609 153.932 98.625 153.682C98.293 153.432 97.7578 153.307 97.0195 153.307H95.7246V156.582ZM104.713 161.117C103.764 161.117 103.014 160.828 102.463 160.25C101.916 159.672 101.643 158.869 101.643 157.842C101.643 156.807 101.896 155.984 102.404 155.375C102.916 154.766 103.602 154.461 104.461 154.461C105.266 154.461 105.902 154.727 106.371 155.258C106.84 155.785 107.074 156.482 107.074 157.35V157.965H102.65C102.67 158.719 102.859 159.291 103.219 159.682C103.582 160.072 104.092 160.268 104.748 160.268C105.439 160.268 106.123 160.123 106.799 159.834V160.701C106.455 160.85 106.129 160.955 105.82 161.018C105.516 161.084 105.146 161.117 104.713 161.117ZM104.449 155.275C103.934 155.275 103.521 155.443 103.213 155.779C102.908 156.115 102.729 156.58 102.674 157.174H106.031C106.031 156.561 105.895 156.092 105.621 155.768C105.348 155.439 104.957 155.275 104.449 155.275ZM112.688 161L112.494 160.086H112.447C112.127 160.488 111.807 160.762 111.486 160.906C111.17 161.047 110.773 161.117 110.297 161.117C109.66 161.117 109.16 160.953 108.797 160.625C108.438 160.297 108.258 159.83 108.258 159.225C108.258 157.928 109.295 157.248 111.369 157.186L112.459 157.15V156.752C112.459 156.248 112.35 155.877 112.131 155.639C111.916 155.396 111.57 155.275 111.094 155.275C110.559 155.275 109.953 155.439 109.277 155.768L108.979 155.023C109.295 154.852 109.641 154.717 110.016 154.619C110.395 154.521 110.773 154.473 111.152 154.473C111.918 154.473 112.484 154.643 112.852 154.982C113.223 155.322 113.408 155.867 113.408 156.617V161H112.688ZM110.49 160.314C111.096 160.314 111.57 160.148 111.914 159.816C112.262 159.484 112.436 159.02 112.436 158.422V157.842L111.463 157.883C110.689 157.91 110.131 158.031 109.787 158.246C109.447 158.457 109.277 158.787 109.277 159.236C109.277 159.588 109.383 159.855 109.594 160.039C109.809 160.223 110.107 160.314 110.49 160.314ZM119.789 160.139H119.736C119.287 160.791 118.615 161.117 117.721 161.117C116.881 161.117 116.227 160.83 115.758 160.256C115.293 159.682 115.061 158.865 115.061 157.807C115.061 156.748 115.295 155.926 115.764 155.34C116.232 154.754 116.885 154.461 117.721 154.461C118.592 154.461 119.26 154.777 119.725 155.41H119.801L119.76 154.947L119.736 154.496V151.883H120.709V161H119.918L119.789 160.139ZM117.844 160.303C118.508 160.303 118.988 160.123 119.285 159.764C119.586 159.4 119.736 158.816 119.736 158.012V157.807C119.736 156.896 119.584 156.248 119.279 155.861C118.979 155.471 118.496 155.275 117.832 155.275C117.262 155.275 116.824 155.498 116.52 155.943C116.219 156.385 116.068 157.01 116.068 157.818C116.068 158.639 116.219 159.258 116.52 159.676C116.82 160.094 117.262 160.303 117.844 160.303ZM129.844 161L129.65 160.086H129.604C129.283 160.488 128.963 160.762 128.643 160.906C128.326 161.047 127.93 161.117 127.453 161.117C126.816 161.117 126.316 160.953 125.953 160.625C125.594 160.297 125.414 159.83 125.414 159.225C125.414 157.928 126.451 157.248 128.525 157.186L129.615 157.15V156.752C129.615 156.248 129.506 155.877 129.287 155.639C129.072 155.396 128.727 155.275 128.25 155.275C127.715 155.275 127.109 155.439 126.434 155.768L126.135 155.023C126.451 154.852 126.797 154.717 127.172 154.619C127.551 154.521 127.93 154.473 128.309 154.473C129.074 154.473 129.641 154.643 130.008 154.982C130.379 155.322 130.564 155.867 130.564 156.617V161H129.844ZM127.646 160.314C128.252 160.314 128.727 160.148 129.07 159.816C129.418 159.484 129.592 159.02 129.592 158.422V157.842L128.619 157.883C127.846 157.91 127.287 158.031 126.943 158.246C126.604 158.457 126.434 158.787 126.434 159.236C126.434 159.588 126.539 159.855 126.75 160.039C126.965 160.223 127.264 160.314 127.646 160.314ZM136.969 161V156.846C136.969 156.322 136.85 155.932 136.611 155.674C136.373 155.416 136 155.287 135.492 155.287C134.82 155.287 134.328 155.469 134.016 155.832C133.703 156.195 133.547 156.795 133.547 157.631V161H132.574V154.578H133.365L133.523 155.457H133.57C133.77 155.141 134.049 154.896 134.408 154.725C134.768 154.549 135.168 154.461 135.609 154.461C136.383 154.461 136.965 154.648 137.355 155.023C137.746 155.395 137.941 155.99 137.941 156.811V161H136.969ZM144.316 160.139H144.264C143.814 160.791 143.143 161.117 142.248 161.117C141.408 161.117 140.754 160.83 140.285 160.256C139.82 159.682 139.588 158.865 139.588 157.807C139.588 156.748 139.822 155.926 140.291 155.34C140.76 154.754 141.412 154.461 142.248 154.461C143.119 154.461 143.787 154.777 144.252 155.41H144.328L144.287 154.947L144.264 154.496V151.883H145.236V161H144.445L144.316 160.139ZM142.371 160.303C143.035 160.303 143.516 160.123 143.812 159.764C144.113 159.4 144.264 158.816 144.264 158.012V157.807C144.264 156.896 144.111 156.248 143.807 155.861C143.506 155.471 143.023 155.275 142.359 155.275C141.789 155.275 141.352 155.498 141.047 155.943C140.746 156.385 140.596 157.01 140.596 157.818C140.596 158.639 140.746 159.258 141.047 159.676C141.348 160.094 141.789 160.303 142.371 160.303ZM158.045 161H157.061L155.332 155.264C155.25 155.01 155.158 154.689 155.057 154.303C154.955 153.916 154.902 153.684 154.898 153.605C154.812 154.121 154.676 154.686 154.488 155.299L152.812 161H151.828L149.549 152.434H150.604L151.957 157.725C152.145 158.467 152.281 159.139 152.367 159.74C152.473 159.025 152.629 158.326 152.836 157.643L154.371 152.434H155.426L157.037 157.689C157.225 158.295 157.383 158.979 157.512 159.74C157.586 159.186 157.727 158.51 157.934 157.713L159.281 152.434H160.336L158.045 161ZM164.461 154.461C164.746 154.461 165.002 154.484 165.229 154.531L165.094 155.434C164.828 155.375 164.594 155.346 164.391 155.346C163.871 155.346 163.426 155.557 163.055 155.979C162.688 156.4 162.504 156.926 162.504 157.555V161H161.531V154.578H162.334L162.445 155.768H162.492C162.73 155.35 163.018 155.027 163.354 154.801C163.689 154.574 164.059 154.461 164.461 154.461ZM167.402 161H166.43V154.578H167.402V161ZM166.348 152.838C166.348 152.615 166.402 152.453 166.512 152.352C166.621 152.246 166.758 152.193 166.922 152.193C167.078 152.193 167.213 152.246 167.326 152.352C167.439 152.457 167.496 152.619 167.496 152.838C167.496 153.057 167.439 153.221 167.326 153.33C167.213 153.436 167.078 153.488 166.922 153.488C166.758 153.488 166.621 153.436 166.512 153.33C166.402 153.221 166.348 153.057 166.348 152.838ZM171.539 160.314C171.711 160.314 171.877 160.303 172.037 160.279C172.197 160.252 172.324 160.225 172.418 160.197V160.941C172.312 160.992 172.156 161.033 171.949 161.064C171.746 161.1 171.562 161.117 171.398 161.117C170.156 161.117 169.535 160.463 169.535 159.154V155.334H168.615V154.865L169.535 154.461L169.945 153.09H170.508V154.578H172.371V155.334H170.508V159.113C170.508 159.5 170.6 159.797 170.783 160.004C170.967 160.211 171.219 160.314 171.539 160.314ZM176.42 161.117C175.471 161.117 174.721 160.828 174.17 160.25C173.623 159.672 173.35 158.869 173.35 157.842C173.35 156.807 173.604 155.984 174.111 155.375C174.623 154.766 175.309 154.461 176.168 154.461C176.973 154.461 177.609 154.727 178.078 155.258C178.547 155.785 178.781 156.482 178.781 157.35V157.965H174.357C174.377 158.719 174.566 159.291 174.926 159.682C175.289 160.072 175.799 160.268 176.455 160.268C177.146 160.268 177.83 160.123 178.506 159.834V160.701C178.162 160.85 177.836 160.955 177.527 161.018C177.223 161.084 176.854 161.117 176.42 161.117ZM176.156 155.275C175.641 155.275 175.229 155.443 174.92 155.779C174.615 156.115 174.436 156.58 174.381 157.174H177.738C177.738 156.561 177.602 156.092 177.328 155.768C177.055 155.439 176.664 155.275 176.156 155.275ZM182.484 157.713C182.484 158.74 182.332 159.697 182.027 160.584C181.727 161.471 181.291 162.242 180.721 162.898H179.783C180.326 162.164 180.742 161.35 181.031 160.455C181.32 159.557 181.465 158.639 181.465 157.701C181.465 156.748 181.322 155.82 181.037 154.918C180.756 154.016 180.334 153.188 179.771 152.434H180.721C181.295 153.117 181.732 153.912 182.033 154.818C182.334 155.721 182.484 156.686 182.484 157.713Z" fill="#28232D"/>
<rect x="55.5" y="122.5" width="142" height="52" rx="5.5" stroke="#1F8B4D" stroke-opacity="0.4"/>
<rect x="42" y="61" width="181" height="37" rx="6" fill="#EDFFF5"/>
<rect x="42.5" y="61.5" width="180" height="36" rx="5.5" stroke="#1F8B4D" stroke-opacity="0.4"/>
<rect x="39" y="64" width="181" height="37" rx="6" fill="#EDFFF5"/>
<rect x="39.5" y="64.5" width="180" height="36" rx="5.5" stroke="#1F8B4D" stroke-opacity="0.4"/>
<rect x="36" y="67" width="181" height="37" rx="6" fill="#EDFFF5"/>
<circle cx="52" cy="82.5" r="2.5" fill="#27AE60"/>
<path fill-rule="evenodd" clip-rule="evenodd" d="M50.3818 86.3408C48.9788 86.9622 48 88.3668 48 90V90.0741C48 90.5854 48.4146 91 48.9259 91H55.0741C55.5854 91 56 90.5854 56 90.0741V90C56 88.3668 55.0212 86.9622 53.6182 86.3408C53.1207 86.5507 52.5739 86.6667 52 86.6667C51.4261 86.6667 50.8793 86.5507 50.3818 86.3408Z" fill="#27AE60"/>
<circle cx="58" cy="82.5" r="2" stroke="#27AE60"/>
<mask id="path-31-inside-2" fill="white">
<path fill-rule="evenodd" clip-rule="evenodd" d="M56.3818 86.3408C54.9788 86.9622 54 88.3668 54 90V90.0741C54 90.5854 54.4146 91 54.9259 91H61.0741C61.5854 91 62 90.5854 62 90.0741V90C62 88.3668 61.0212 86.9622 59.6182 86.3408C59.1207 86.5507 58.5739 86.6667 58 86.6667C57.4261 86.6667 56.8793 86.5507 56.3818 86.3408Z"/>
</mask>
<path d="M56.3818 86.3408L56.7705 85.4194L56.3722 85.2514L55.9769 85.4265L56.3818 86.3408ZM59.6182 86.3408L60.0231 85.4265L59.6278 85.2514L59.2295 85.4194L59.6182 86.3408ZM55 90C55 88.7766 55.7324 87.7221 56.7868 87.2552L55.9769 85.4265C54.2253 86.2022 53 87.9569 53 90H55ZM55 90.0741V90H53V90.0741H55ZM54.9259 90C54.9668 90 55 90.0332 55 90.0741H53C53 91.1377 53.8623 92 54.9259 92V90ZM61.0741 90H54.9259V92H61.0741V90ZM61 90.0741C61 90.0332 61.0332 90 61.0741 90V92C62.1377 92 63 91.1377 63 90.0741H61ZM61 90V90.0741H63V90H61ZM59.2132 87.2552C60.2676 87.7221 61 88.7766 61 90H63C63 87.9569 61.7747 86.2022 60.0231 85.4265L59.2132 87.2552ZM59.2295 85.4194C58.8528 85.5783 58.438 85.6667 58 85.6667V87.6667C58.7098 87.6667 59.3885 87.523 60.0068 87.2622L59.2295 85.4194ZM58 85.6667C57.562 85.6667 57.1472 85.5783 56.7705 85.4194L55.9932 87.2622C56.6115 87.523 57.2902 87.6667 58 87.6667V85.6667Z" fill="#27AE60" mask="url(#path-31-inside-2)"/>
<path d="M79.0156 85.6348C79.0156 87.0488 78.6309 88.1309 77.8613 88.8809C77.0957 89.627 75.9922 90 74.5508 90H72.1777V81.4336H74.8027C76.1348 81.4336 77.1699 81.8027 77.9082 82.541C78.6465 83.2793 79.0156 84.3105 79.0156 85.6348ZM77.9609 85.6699C77.9609 84.5527 77.6797 83.7109 77.1172 83.1445C76.5586 82.5781 75.7266 82.2949 74.6211 82.2949H73.1738V89.1387H74.3867C75.5742 89.1387 76.4668 88.8477 77.0645 88.2656C77.6621 87.6797 77.9609 86.8145 77.9609 85.6699ZM83.498 90.1172C82.5488 90.1172 81.7988 89.8281 81.248 89.25C80.7012 88.6719 80.4277 87.8691 80.4277 86.8418C80.4277 85.8066 80.6816 84.9844 81.1895 84.375C81.7012 83.7656 82.3867 83.4609 83.2461 83.4609C84.0508 83.4609 84.6875 83.7266 85.1562 84.2578C85.625 84.7852 85.8594 85.4824 85.8594 86.3496V86.9648H81.4355C81.4551 87.7188 81.6445 88.291 82.0039 88.6816C82.3672 89.0723 82.877 89.2676 83.5332 89.2676C84.2246 89.2676 84.9082 89.123 85.584 88.834V89.7012C85.2402 89.8496 84.9141 89.9551 84.6055 90.0176C84.3008 90.084 83.9316 90.1172 83.498 90.1172ZM83.2344 84.2754C82.7188 84.2754 82.3066 84.4434 81.998 84.7793C81.6934 85.1152 81.5137 85.5801 81.459 86.1738H84.8164C84.8164 85.5605 84.6797 85.0918 84.4062 84.7676C84.1328 84.4395 83.7422 84.2754 83.2344 84.2754ZM88.9297 90L86.4922 83.5781H87.5352L88.918 87.3867C89.2305 88.2773 89.4141 88.8555 89.4688 89.1211H89.5156C89.5586 88.9141 89.6934 88.4863 89.9199 87.8379C90.1504 87.1855 90.6641 85.7656 91.4609 83.5781H92.5039L90.0664 90H88.9297ZM94.5078 90H93.5352V83.5781H94.5078V90ZM93.4531 81.8379C93.4531 81.6152 93.5078 81.4531 93.6172 81.3516C93.7266 81.2461 93.8633 81.1934 94.0273 81.1934C94.1836 81.1934 94.3184 81.2461 94.4316 81.3516C94.5449 81.457 94.6016 81.6191 94.6016 81.8379C94.6016 82.0566 94.5449 82.2207 94.4316 82.3301C94.3184 82.4355 94.1836 82.4883 94.0273 82.4883C93.8633 82.4883 93.7266 82.4355 93.6172 82.3301C93.5078 82.2207 93.4531 82.0566 93.4531 81.8379ZM99.1367 90.1172C98.207 90.1172 97.4863 89.832 96.9746 89.2617C96.4668 88.6875 96.2129 87.877 96.2129 86.8301C96.2129 85.7559 96.4707 84.9258 96.9863 84.3398C97.5059 83.7539 98.2441 83.4609 99.2012 83.4609C99.5098 83.4609 99.8184 83.4941 100.127 83.5605C100.436 83.627 100.678 83.7051 100.854 83.7949L100.555 84.6211C100.34 84.5352 100.105 84.4648 99.8516 84.4102C99.5977 84.3516 99.373 84.3223 99.1777 84.3223C97.873 84.3223 97.2207 85.1543 97.2207 86.8184C97.2207 87.6074 97.3789 88.2129 97.6953 88.6348C98.0156 89.0566 98.4883 89.2676 99.1133 89.2676C99.6484 89.2676 100.197 89.1523 100.76 88.9219V89.7832C100.33 90.0059 99.7891 90.1172 99.1367 90.1172ZM105.002 90.1172C104.053 90.1172 103.303 89.8281 102.752 89.25C102.205 88.6719 101.932 87.8691 101.932 86.8418C101.932 85.8066 102.186 84.9844 102.693 84.375C103.205 83.7656 103.891 83.4609 104.75 83.4609C105.555 83.4609 106.191 83.7266 106.66 84.2578C107.129 84.7852 107.363 85.4824 107.363 86.3496V86.9648H102.939C102.959 87.7188 103.148 88.291 103.508 88.6816C103.871 89.0723 104.381 89.2676 105.037 89.2676C105.729 89.2676 106.412 89.123 107.088 88.834V89.7012C106.744 89.8496 106.418 89.9551 106.109 90.0176C105.805 90.084 105.436 90.1172 105.002 90.1172ZM104.738 84.2754C104.223 84.2754 103.811 84.4434 103.502 84.7793C103.197 85.1152 103.018 85.5801 102.963 86.1738H106.32C106.32 85.5605 106.184 85.0918 105.91 84.7676C105.637 84.4395 105.246 84.2754 104.738 84.2754ZM116.059 85.5117H118.971V89.6777C118.518 89.8223 118.057 89.9316 117.588 90.0059C117.119 90.0801 116.576 90.1172 115.959 90.1172C114.662 90.1172 113.652 89.7324 112.93 88.9629C112.207 88.1895 111.846 87.1074 111.846 85.7168C111.846 84.8262 112.023 84.0469 112.379 83.3789C112.738 82.707 113.254 82.1953 113.926 81.8438C114.598 81.4883 115.385 81.3105 116.287 81.3105C117.201 81.3105 118.053 81.4785 118.842 81.8145L118.455 82.6934C117.682 82.3652 116.938 82.2012 116.223 82.2012C115.18 82.2012 114.365 82.5117 113.779 83.1328C113.193 83.7539 112.9 84.6152 112.9 85.7168C112.9 86.873 113.182 87.75 113.744 88.3477C114.311 88.9453 115.141 89.2441 116.234 89.2441C116.828 89.2441 117.408 89.1758 117.975 89.0391V86.4023H116.059V85.5117ZM123.816 83.4609C124.102 83.4609 124.357 83.4844 124.584 83.5312L124.449 84.4336C124.184 84.375 123.949 84.3457 123.746 84.3457C123.227 84.3457 122.781 84.5566 122.41 84.9785C122.043 85.4004 121.859 85.9258 121.859 86.5547V90H120.887V83.5781H121.689L121.801 84.7676H121.848C122.086 84.3496 122.373 84.0273 122.709 83.8008C123.045 83.5742 123.414 83.4609 123.816 83.4609ZM131.328 86.7832C131.328 87.8301 131.064 88.6484 130.537 89.2383C130.01 89.8242 129.281 90.1172 128.352 90.1172C127.777 90.1172 127.268 89.9824 126.822 89.7129C126.377 89.4434 126.033 89.0566 125.791 88.5527C125.549 88.0488 125.428 87.459 125.428 86.7832C125.428 85.7363 125.689 84.9219 126.213 84.3398C126.736 83.7539 127.463 83.4609 128.393 83.4609C129.291 83.4609 130.004 83.7598 130.531 84.3574C131.062 84.9551 131.328 85.7637 131.328 86.7832ZM126.436 86.7832C126.436 87.6035 126.6 88.2285 126.928 88.6582C127.256 89.0879 127.738 89.3027 128.375 89.3027C129.012 89.3027 129.494 89.0898 129.822 88.6641C130.154 88.2344 130.32 87.6074 130.32 86.7832C130.32 85.9668 130.154 85.3477 129.822 84.9258C129.494 84.5 129.008 84.2871 128.363 84.2871C127.727 84.2871 127.246 84.4961 126.922 84.9141C126.598 85.332 126.436 85.9551 126.436 86.7832ZM133.953 83.5781V87.7441C133.953 88.2676 134.072 88.6582 134.311 88.916C134.549 89.1738 134.922 89.3027 135.43 89.3027C136.102 89.3027 136.592 89.1191 136.9 88.752C137.213 88.3848 137.369 87.7852 137.369 86.9531V83.5781H138.342V90H137.539L137.398 89.1387H137.346C137.146 89.4551 136.869 89.6973 136.514 89.8652C136.162 90.0332 135.76 90.1172 135.307 90.1172C134.525 90.1172 133.939 89.9316 133.549 89.5605C133.162 89.1895 132.969 88.5957 132.969 87.7793V83.5781H133.953ZM143.398 90.1172C142.98 90.1172 142.598 90.041 142.25 89.8887C141.906 89.7324 141.617 89.4941 141.383 89.1738H141.312C141.359 89.5488 141.383 89.9043 141.383 90.2402V92.8828H140.41V83.5781H141.201L141.336 84.457H141.383C141.633 84.1055 141.924 83.8516 142.256 83.6953C142.588 83.5391 142.969 83.4609 143.398 83.4609C144.25 83.4609 144.906 83.752 145.367 84.334C145.832 84.916 146.064 85.7324 146.064 86.7832C146.064 87.8379 145.828 88.6582 145.355 89.2441C144.887 89.8262 144.234 90.1172 143.398 90.1172ZM143.258 84.2871C142.602 84.2871 142.127 84.4688 141.834 84.832C141.541 85.1953 141.391 85.7734 141.383 86.5664V86.7832C141.383 87.6855 141.533 88.332 141.834 88.7227C142.135 89.1094 142.617 89.3027 143.281 89.3027C143.836 89.3027 144.27 89.0781 144.582 88.6289C144.898 88.1797 145.057 87.5605 145.057 86.7715C145.057 85.9707 144.898 85.3574 144.582 84.9316C144.27 84.502 143.828 84.2871 143.258 84.2871ZM156.418 90L155.352 87.2754H151.918L150.863 90H149.855L153.242 81.3984H154.08L157.449 90H156.418ZM155.041 86.3789L154.045 83.7246C153.916 83.3887 153.783 82.9766 153.646 82.4883C153.561 82.8633 153.438 83.2754 153.277 83.7246L152.27 86.3789H155.041ZM167.129 90L166.062 87.2754H162.629L161.574 90H160.566L163.953 81.3984H164.791L168.16 90H167.129ZM165.752 86.3789L164.756 83.7246C164.627 83.3887 164.494 82.9766 164.357 82.4883C164.271 82.8633 164.148 83.2754 163.988 83.7246L162.98 86.3789H165.752ZM173.562 89.1387H173.51C173.061 89.791 172.389 90.1172 171.494 90.1172C170.654 90.1172 170 89.8301 169.531 89.2559C169.066 88.6816 168.834 87.8652 168.834 86.8066C168.834 85.748 169.068 84.9258 169.537 84.3398C170.006 83.7539 170.658 83.4609 171.494 83.4609C172.365 83.4609 173.033 83.7773 173.498 84.4102H173.574L173.533 83.9473L173.51 83.4961V80.8828H174.482V90H173.691L173.562 89.1387ZM171.617 89.3027C172.281 89.3027 172.762 89.123 173.059 88.7637C173.359 88.4004 173.51 87.8164 173.51 87.0117V86.8066C173.51 85.8965 173.357 85.248 173.053 84.8613C172.752 84.4707 172.27 84.2754 171.605 84.2754C171.035 84.2754 170.598 84.498 170.293 84.9434C169.992 85.3848 169.842 86.0098 169.842 86.8184C169.842 87.6387 169.992 88.2578 170.293 88.6758C170.594 89.0938 171.035 89.3027 171.617 89.3027ZM184.736 90V85.8223C184.736 85.3105 184.627 84.9277 184.408 84.6738C184.189 84.416 183.85 84.2871 183.389 84.2871C182.783 84.2871 182.336 84.4609 182.047 84.8086C181.758 85.1562 181.613 85.6914 181.613 86.4141V90H180.641V85.8223C180.641 85.3105 180.531 84.9277 180.312 84.6738C180.094 84.416 179.752 84.2871 179.287 84.2871C178.678 84.2871 178.23 84.4707 177.945 84.8379C177.664 85.2012 177.523 85.7988 177.523 86.6309V90H176.551V83.5781H177.342L177.5 84.457H177.547C177.73 84.1445 177.988 83.9004 178.32 83.7246C178.656 83.5488 179.031 83.4609 179.445 83.4609C180.449 83.4609 181.105 83.8242 181.414 84.5508H181.461C181.652 84.2148 181.93 83.9492 182.293 83.7539C182.656 83.5586 183.07 83.4609 183.535 83.4609C184.262 83.4609 184.805 83.6484 185.164 84.0234C185.527 84.3945 185.709 84.9902 185.709 85.8105V90H184.736ZM188.691 90H187.719V83.5781H188.691V90ZM187.637 81.8379C187.637 81.6152 187.691 81.4531 187.801 81.3516C187.91 81.2461 188.047 81.1934 188.211 81.1934C188.367 81.1934 188.502 81.2461 188.615 81.3516C188.729 81.457 188.785 81.6191 188.785 81.8379C188.785 82.0566 188.729 82.2207 188.615 82.3301C188.502 82.4355 188.367 82.4883 188.211 82.4883C188.047 82.4883 187.91 82.4355 187.801 82.3301C187.691 82.2207 187.637 82.0566 187.637 81.8379ZM195.148 90V85.8457C195.148 85.3223 195.029 84.9316 194.791 84.6738C194.553 84.416 194.18 84.2871 193.672 84.2871C193 84.2871 192.508 84.4688 192.195 84.832C191.883 85.1953 191.727 85.7949 191.727 86.6309V90H190.754V83.5781H191.545L191.703 84.457H191.75C191.949 84.1406 192.229 83.8965 192.588 83.7246C192.947 83.5488 193.348 83.4609 193.789 83.4609C194.562 83.4609 195.145 83.6484 195.535 84.0234C195.926 84.3945 196.121 84.9902 196.121 85.8105V90H195.148ZM202.268 88.248C202.268 88.8457 202.045 89.3066 201.6 89.6309C201.154 89.9551 200.529 90.1172 199.725 90.1172C198.873 90.1172 198.209 89.9824 197.732 89.7129V88.8105C198.041 88.9668 198.371 89.0898 198.723 89.1797C199.078 89.2695 199.42 89.3145 199.748 89.3145C200.256 89.3145 200.646 89.2344 200.92 89.0742C201.193 88.9102 201.33 88.6621 201.33 88.3301C201.33 88.0801 201.221 87.8672 201.002 87.6914C200.787 87.5117 200.365 87.3008 199.736 87.0586C199.139 86.8359 198.713 86.6426 198.459 86.4785C198.209 86.3105 198.021 86.1211 197.896 85.9102C197.775 85.6992 197.715 85.4473 197.715 85.1543C197.715 84.6309 197.928 84.2188 198.354 83.918C198.779 83.6133 199.363 83.4609 200.105 83.4609C200.797 83.4609 201.473 83.6016 202.133 83.8828L201.787 84.6738C201.143 84.4082 200.559 84.2754 200.035 84.2754C199.574 84.2754 199.227 84.3477 198.992 84.4922C198.758 84.6367 198.641 84.8359 198.641 85.0898C198.641 85.2617 198.684 85.4082 198.77 85.5293C198.859 85.6504 199.002 85.7656 199.197 85.875C199.393 85.9844 199.768 86.1426 200.322 86.3496C201.084 86.627 201.598 86.9062 201.863 87.1875C202.133 87.4688 202.268 87.8223 202.268 88.248Z" fill="#28232D"/>
<rect x="36.5" y="67.5" width="180" height="36" rx="5.5" stroke="#1F8B4D" stroke-opacity="0.4"/>
<rect x="63.5" y="195.5" width="138" height="36" rx="5.5" fill="white" stroke="#1F8B4D"/>
<rect x="60.5" y="198.5" width="138" height="36" rx="5.5" fill="white" stroke="#1F8B4D"/>
<rect x="57" y="201" width="139" height="37" rx="6" fill="#12783D"/>
<path fill-rule="evenodd" clip-rule="evenodd" d="M74 213.5C74 213.224 74.2239 213 74.5 213C74.7761 213 75 213.224 75 213.5V215H77V213.5C77 213.224 77.2239 213 77.5 213C77.7761 213 78 213.224 78 213.5V215H79C80.1046 215 81 215.895 81 217V218H82.5C82.7761 218 83 218.224 83 218.5C83 218.776 82.7761 219 82.5 219H81V221H82.5C82.7761 221 83 221.224 83 221.5C83 221.776 82.7761 222 82.5 222H81V223C81 224.105 80.1046 225 79 225H78V226.5C78 226.776 77.7761 227 77.5 227C77.2239 227 77 226.776 77 226.5V225H75V226.5C75 226.776 74.7761 227 74.5 227C74.2239 227 74 226.776 74 226.5V225H73C71.8954 225 71 224.105 71 223V222H69.5C69.2239 222 69 221.776 69 221.5C69 221.224 69.2239 221 69.5 221H71V219H69.5C69.2239 219 69 218.776 69 218.5C69 218.224 69.2239 218 69.5 218H71V217C71 215.895 71.8954 215 73 215H74V213.5ZM74 220C74 218.895 74.8954 218 76 218C77.1046 218 78 218.895 78 220C78 221.105 77.1046 222 76 222C74.8954 222 74 221.105 74 220ZM76 219C75.4477 219 75 219.448 75 220C75 220.552 75.4477 221 76 221C76.5523 221 77 220.552 77 220C77 219.448 76.5523 219 76 219Z" fill="white"/>
<path d="M100.098 219.635C100.098 221.049 99.7051 222.131 98.9199 222.881C98.1348 223.627 97.0039 224 95.5273 224H93.1309V215.434H95.7793C97.1426 215.434 98.2031 215.801 98.9609 216.535C99.7188 217.27 100.098 218.303 100.098 219.635ZM98.6211 219.682C98.6211 217.631 97.6621 216.605 95.7441 216.605H94.5312V222.822H95.5273C97.5898 222.822 98.6211 221.775 98.6211 219.682ZM104.627 224.117C103.619 224.117 102.83 223.824 102.26 223.238C101.693 222.648 101.41 221.838 101.41 220.807C101.41 219.748 101.674 218.916 102.201 218.311C102.729 217.705 103.453 217.402 104.375 217.402C105.23 217.402 105.906 217.662 106.402 218.182C106.898 218.701 107.146 219.416 107.146 220.326V221.07H102.828C102.848 221.699 103.018 222.184 103.338 222.523C103.658 222.859 104.109 223.027 104.691 223.027C105.074 223.027 105.43 222.992 105.758 222.922C106.09 222.848 106.445 222.727 106.824 222.559V223.678C106.488 223.838 106.148 223.951 105.805 224.018C105.461 224.084 105.068 224.117 104.627 224.117ZM104.375 218.445C103.938 218.445 103.586 218.584 103.32 218.861C103.059 219.139 102.902 219.543 102.852 220.074H105.793C105.785 219.539 105.656 219.135 105.406 218.861C105.156 218.584 104.812 218.445 104.375 218.445ZM110.188 224L107.727 217.52H109.18L110.498 221.287C110.725 221.92 110.861 222.432 110.908 222.822H110.955C110.99 222.541 111.127 222.029 111.365 221.287L112.684 217.52H114.148L111.676 224H110.188ZM116.51 224H115.133V217.52H116.51V224ZM115.051 215.803C115.051 215.557 115.117 215.367 115.25 215.234C115.387 215.102 115.58 215.035 115.83 215.035C116.072 215.035 116.26 215.102 116.393 215.234C116.529 215.367 116.598 215.557 116.598 215.803C116.598 216.037 116.529 216.223 116.393 216.359C116.26 216.492 116.072 216.559 115.83 216.559C115.58 216.559 115.387 216.492 115.25 216.359C115.117 216.223 115.051 216.037 115.051 215.803ZM121.098 224.117C120.117 224.117 119.371 223.832 118.859 223.262C118.352 222.688 118.098 221.865 118.098 220.795C118.098 219.705 118.363 218.867 118.895 218.281C119.43 217.695 120.201 217.402 121.209 217.402C121.893 217.402 122.508 217.529 123.055 217.783L122.639 218.891C122.057 218.664 121.576 218.551 121.197 218.551C120.076 218.551 119.516 219.295 119.516 220.783C119.516 221.51 119.654 222.057 119.932 222.424C120.213 222.787 120.623 222.969 121.162 222.969C121.775 222.969 122.355 222.816 122.902 222.512V223.713C122.656 223.857 122.393 223.961 122.111 224.023C121.834 224.086 121.496 224.117 121.098 224.117ZM127.256 224.117C126.248 224.117 125.459 223.824 124.889 223.238C124.322 222.648 124.039 221.838 124.039 220.807C124.039 219.748 124.303 218.916 124.83 218.311C125.357 217.705 126.082 217.402 127.004 217.402C127.859 217.402 128.535 217.662 129.031 218.182C129.527 218.701 129.775 219.416 129.775 220.326V221.07H125.457C125.477 221.699 125.646 222.184 125.967 222.523C126.287 222.859 126.738 223.027 127.32 223.027C127.703 223.027 128.059 222.992 128.387 222.922C128.719 222.848 129.074 222.727 129.453 222.559V223.678C129.117 223.838 128.777 223.951 128.434 224.018C128.09 224.084 127.697 224.117 127.256 224.117ZM127.004 218.445C126.566 218.445 126.215 218.584 125.949 218.861C125.688 219.139 125.531 219.543 125.48 220.074H128.422C128.414 219.539 128.285 219.135 128.035 218.861C127.785 218.584 127.441 218.445 127.004 218.445ZM138.107 219.354H141.26V223.654C140.744 223.822 140.248 223.941 139.771 224.012C139.299 224.082 138.787 224.117 138.236 224.117C136.939 224.117 135.939 223.734 135.236 222.969C134.533 222.199 134.182 221.115 134.182 219.717C134.182 218.338 134.578 217.26 135.371 216.482C136.164 215.701 137.256 215.311 138.646 215.311C139.541 215.311 140.389 215.482 141.189 215.826L140.697 216.992C140.002 216.672 139.307 216.512 138.611 216.512C137.697 216.512 136.975 216.799 136.443 217.373C135.912 217.947 135.646 218.732 135.646 219.729C135.646 220.775 135.885 221.572 136.361 222.119C136.842 222.662 137.531 222.934 138.43 222.934C138.883 222.934 139.367 222.877 139.883 222.764V220.555H138.107V219.354ZM146.463 217.402C146.74 217.402 146.969 217.422 147.148 217.461L147.014 218.744C146.818 218.697 146.615 218.674 146.404 218.674C145.854 218.674 145.406 218.854 145.062 219.213C144.723 219.572 144.553 220.039 144.553 220.613V224H143.176V217.52H144.254L144.436 218.662H144.506C144.721 218.275 145 217.969 145.344 217.742C145.691 217.516 146.064 217.402 146.463 217.402ZM154.104 220.748C154.104 221.807 153.832 222.633 153.289 223.227C152.746 223.82 151.99 224.117 151.021 224.117C150.416 224.117 149.881 223.98 149.416 223.707C148.951 223.434 148.594 223.041 148.344 222.529C148.094 222.018 147.969 221.424 147.969 220.748C147.969 219.697 148.238 218.877 148.777 218.287C149.316 217.697 150.076 217.402 151.057 217.402C151.994 217.402 152.736 217.705 153.283 218.311C153.83 218.912 154.104 219.725 154.104 220.748ZM149.387 220.748C149.387 222.244 149.939 222.992 151.045 222.992C152.139 222.992 152.686 222.244 152.686 220.748C152.686 219.268 152.135 218.527 151.033 218.527C150.455 218.527 150.035 218.719 149.773 219.102C149.516 219.484 149.387 220.033 149.387 220.748ZM160.262 224L160.068 223.15H159.998C159.807 223.451 159.533 223.688 159.178 223.859C158.826 224.031 158.424 224.117 157.971 224.117C157.186 224.117 156.6 223.922 156.213 223.531C155.826 223.141 155.633 222.549 155.633 221.756V217.52H157.021V221.516C157.021 222.012 157.123 222.385 157.326 222.635C157.529 222.881 157.848 223.004 158.281 223.004C158.859 223.004 159.283 222.832 159.553 222.488C159.826 222.141 159.963 221.561 159.963 220.748V217.52H161.346V224H160.262ZM166.596 224.117C165.775 224.117 165.139 223.822 164.686 223.232H164.604C164.658 223.779 164.686 224.111 164.686 224.229V226.883H163.309V217.52H164.422C164.453 217.641 164.518 217.93 164.615 218.387H164.686C165.115 217.73 165.76 217.402 166.619 217.402C167.428 217.402 168.057 217.695 168.506 218.281C168.959 218.867 169.186 219.689 169.186 220.748C169.186 221.807 168.955 222.633 168.494 223.227C168.037 223.82 167.404 224.117 166.596 224.117ZM166.262 218.527C165.715 218.527 165.314 218.688 165.061 219.008C164.811 219.328 164.686 219.84 164.686 220.543V220.748C164.686 221.537 164.811 222.109 165.061 222.465C165.311 222.816 165.719 222.992 166.285 222.992C166.762 222.992 167.129 222.797 167.387 222.406C167.645 222.016 167.773 221.459 167.773 220.736C167.773 220.01 167.645 219.461 167.387 219.09C167.133 218.715 166.758 218.527 166.262 218.527ZM179.363 224L178.508 221.621H175.232L174.395 224H172.918L176.123 215.398H177.646L180.852 224H179.363ZM178.139 220.414L177.336 218.082C177.277 217.926 177.195 217.68 177.09 217.344C176.988 217.008 176.918 216.762 176.879 216.605C176.773 217.086 176.619 217.611 176.416 218.182L175.643 220.414H178.139Z" fill="white"/>
<rect x="281.5" y="195.5" width="138" height="36" rx="5.5" fill="white" stroke="#1F8B4D"/>
<rect x="278.5" y="198.5" width="138" height="36" rx="5.5" fill="white" stroke="#1F8B4D"/>
<rect x="275" y="201" width="139" height="37" rx="6" fill="#12783D"/>
<path fill-rule="evenodd" clip-rule="evenodd" d="M292 213.5C292 213.224 292.224 213 292.5 213C292.776 213 293 213.224 293 213.5V215H295V213.5C295 213.224 295.224 213 295.5 213C295.776 213 296 213.224 296 213.5V215H297C298.105 215 299 215.895 299 217V218H300.5C300.776 218 301 218.224 301 218.5C301 218.776 300.776 219 300.5 219H299V221H300.5C300.776 221 301 221.224 301 221.5C301 221.776 300.776 222 300.5 222H299V223C299 224.105 298.105 225 297 225H296V226.5C296 226.776 295.776 227 295.5 227C295.224 227 295 226.776 295 226.5V225H293V226.5C293 226.776 292.776 227 292.5 227C292.224 227 292 226.776 292 226.5V225H291C289.895 225 289 224.105 289 223V222H287.5C287.224 222 287 221.776 287 221.5C287 221.224 287.224 221 287.5 221H289V219H287.5C287.224 219 287 218.776 287 218.5C287 218.224 287.224 218 287.5 218H289V217C289 215.895 289.895 215 291 215H292V213.5ZM292 220C292 218.895 292.895 218 294 218C295.105 218 296 218.895 296 220C296 221.105 295.105 222 294 222C292.895 222 292 221.105 292 220ZM294 219C293.448 219 293 219.448 293 220C293 220.552 293.448 221 294 221C294.552 221 295 220.552 295 220C295 219.448 294.552 219 294 219Z" fill="white"/>
<path d="M318.098 219.635C318.098 221.049 317.705 222.131 316.92 222.881C316.135 223.627 315.004 224 313.527 224H311.131V215.434H313.779C315.143 215.434 316.203 215.801 316.961 216.535C317.719 217.27 318.098 218.303 318.098 219.635ZM316.621 219.682C316.621 217.631 315.662 216.605 313.744 216.605H312.531V222.822H313.527C315.59 222.822 316.621 221.775 316.621 219.682ZM322.627 224.117C321.619 224.117 320.83 223.824 320.26 223.238C319.693 222.648 319.41 221.838 319.41 220.807C319.41 219.748 319.674 218.916 320.201 218.311C320.729 217.705 321.453 217.402 322.375 217.402C323.23 217.402 323.906 217.662 324.402 218.182C324.898 218.701 325.146 219.416 325.146 220.326V221.07H320.828C320.848 221.699 321.018 222.184 321.338 222.523C321.658 222.859 322.109 223.027 322.691 223.027C323.074 223.027 323.43 222.992 323.758 222.922C324.09 222.848 324.445 222.727 324.824 222.559V223.678C324.488 223.838 324.148 223.951 323.805 224.018C323.461 224.084 323.068 224.117 322.627 224.117ZM322.375 218.445C321.938 218.445 321.586 218.584 321.32 218.861C321.059 219.139 320.902 219.543 320.852 220.074H323.793C323.785 219.539 323.656 219.135 323.406 218.861C323.156 218.584 322.812 218.445 322.375 218.445ZM328.188 224L325.727 217.52H327.18L328.498 221.287C328.725 221.92 328.861 222.432 328.908 222.822H328.955C328.99 222.541 329.127 222.029 329.365 221.287L330.684 217.52H332.148L329.676 224H328.188ZM334.51 224H333.133V217.52H334.51V224ZM333.051 215.803C333.051 215.557 333.117 215.367 333.25 215.234C333.387 215.102 333.58 215.035 333.83 215.035C334.072 215.035 334.26 215.102 334.393 215.234C334.529 215.367 334.598 215.557 334.598 215.803C334.598 216.037 334.529 216.223 334.393 216.359C334.26 216.492 334.072 216.559 333.83 216.559C333.58 216.559 333.387 216.492 333.25 216.359C333.117 216.223 333.051 216.037 333.051 215.803ZM339.098 224.117C338.117 224.117 337.371 223.832 336.859 223.262C336.352 222.688 336.098 221.865 336.098 220.795C336.098 219.705 336.363 218.867 336.895 218.281C337.43 217.695 338.201 217.402 339.209 217.402C339.893 217.402 340.508 217.529 341.055 217.783L340.639 218.891C340.057 218.664 339.576 218.551 339.197 218.551C338.076 218.551 337.516 219.295 337.516 220.783C337.516 221.51 337.654 222.057 337.932 222.424C338.213 222.787 338.623 222.969 339.162 222.969C339.775 222.969 340.355 222.816 340.902 222.512V223.713C340.656 223.857 340.393 223.961 340.111 224.023C339.834 224.086 339.496 224.117 339.098 224.117ZM345.256 224.117C344.248 224.117 343.459 223.824 342.889 223.238C342.322 222.648 342.039 221.838 342.039 220.807C342.039 219.748 342.303 218.916 342.83 218.311C343.357 217.705 344.082 217.402 345.004 217.402C345.859 217.402 346.535 217.662 347.031 218.182C347.527 218.701 347.775 219.416 347.775 220.326V221.07H343.457C343.477 221.699 343.646 222.184 343.967 222.523C344.287 222.859 344.738 223.027 345.32 223.027C345.703 223.027 346.059 222.992 346.387 222.922C346.719 222.848 347.074 222.727 347.453 222.559V223.678C347.117 223.838 346.777 223.951 346.434 224.018C346.09 224.084 345.697 224.117 345.256 224.117ZM345.004 218.445C344.566 218.445 344.215 218.584 343.949 218.861C343.688 219.139 343.531 219.543 343.48 220.074H346.422C346.414 219.539 346.285 219.135 346.035 218.861C345.785 218.584 345.441 218.445 345.004 218.445ZM356.107 219.354H359.26V223.654C358.744 223.822 358.248 223.941 357.771 224.012C357.299 224.082 356.787 224.117 356.236 224.117C354.939 224.117 353.939 223.734 353.236 222.969C352.533 222.199 352.182 221.115 352.182 219.717C352.182 218.338 352.578 217.26 353.371 216.482C354.164 215.701 355.256 215.311 356.646 215.311C357.541 215.311 358.389 215.482 359.189 215.826L358.697 216.992C358.002 216.672 357.307 216.512 356.611 216.512C355.697 216.512 354.975 216.799 354.443 217.373C353.912 217.947 353.646 218.732 353.646 219.729C353.646 220.775 353.885 221.572 354.361 222.119C354.842 222.662 355.531 222.934 356.43 222.934C356.883 222.934 357.367 222.877 357.883 222.764V220.555H356.107V219.354ZM364.463 217.402C364.74 217.402 364.969 217.422 365.148 217.461L365.014 218.744C364.818 218.697 364.615 218.674 364.404 218.674C363.854 218.674 363.406 218.854 363.062 219.213C362.723 219.572 362.553 220.039 362.553 220.613V224H361.176V217.52H362.254L362.436 218.662H362.506C362.721 218.275 363 217.969 363.344 217.742C363.691 217.516 364.064 217.402 364.463 217.402ZM372.104 220.748C372.104 221.807 371.832 222.633 371.289 223.227C370.746 223.82 369.99 224.117 369.021 224.117C368.416 224.117 367.881 223.98 367.416 223.707C366.951 223.434 366.594 223.041 366.344 222.529C366.094 222.018 365.969 221.424 365.969 220.748C365.969 219.697 366.238 218.877 366.777 218.287C367.316 217.697 368.076 217.402 369.057 217.402C369.994 217.402 370.736 217.705 371.283 218.311C371.83 218.912 372.104 219.725 372.104 220.748ZM367.387 220.748C367.387 222.244 367.939 222.992 369.045 222.992C370.139 222.992 370.686 222.244 370.686 220.748C370.686 219.268 370.135 218.527 369.033 218.527C368.455 218.527 368.035 218.719 367.773 219.102C367.516 219.484 367.387 220.033 367.387 220.748ZM378.262 224L378.068 223.15H377.998C377.807 223.451 377.533 223.688 377.178 223.859C376.826 224.031 376.424 224.117 375.971 224.117C375.186 224.117 374.6 223.922 374.213 223.531C373.826 223.141 373.633 222.549 373.633 221.756V217.52H375.021V221.516C375.021 222.012 375.123 222.385 375.326 222.635C375.529 222.881 375.848 223.004 376.281 223.004C376.859 223.004 377.283 222.832 377.553 222.488C377.826 222.141 377.963 221.561 377.963 220.748V217.52H379.346V224H378.262ZM384.596 224.117C383.775 224.117 383.139 223.822 382.686 223.232H382.604C382.658 223.779 382.686 224.111 382.686 224.229V226.883H381.309V217.52H382.422C382.453 217.641 382.518 217.93 382.615 218.387H382.686C383.115 217.73 383.76 217.402 384.619 217.402C385.428 217.402 386.057 217.695 386.506 218.281C386.959 218.867 387.186 219.689 387.186 220.748C387.186 221.807 386.955 222.633 386.494 223.227C386.037 223.82 385.404 224.117 384.596 224.117ZM384.262 218.527C383.715 218.527 383.314 218.688 383.061 219.008C382.811 219.328 382.686 219.84 382.686 220.543V220.748C382.686 221.537 382.811 222.109 383.061 222.465C383.311 222.816 383.719 222.992 384.285 222.992C384.762 222.992 385.129 222.797 385.387 222.406C385.645 222.016 385.773 221.459 385.773 220.736C385.773 220.01 385.645 219.461 385.387 219.09C385.133 218.715 384.758 218.527 384.262 218.527ZM392.049 215.434H394.592C395.771 215.434 396.623 215.605 397.146 215.949C397.674 216.293 397.938 216.836 397.938 217.578C397.938 218.078 397.809 218.494 397.551 218.826C397.293 219.158 396.922 219.367 396.438 219.453V219.512C397.039 219.625 397.48 219.85 397.762 220.186C398.047 220.518 398.189 220.969 398.189 221.539C398.189 222.309 397.92 222.912 397.381 223.35C396.846 223.783 396.1 224 395.143 224H392.049V215.434ZM393.449 218.973H394.797C395.383 218.973 395.811 218.881 396.08 218.697C396.35 218.51 396.484 218.193 396.484 217.748C396.484 217.346 396.338 217.055 396.045 216.875C395.756 216.695 395.295 216.605 394.662 216.605H393.449V218.973ZM393.449 220.109V222.822H394.938C395.523 222.822 395.965 222.711 396.262 222.488C396.562 222.262 396.713 221.906 396.713 221.422C396.713 220.977 396.561 220.646 396.256 220.432C395.951 220.217 395.488 220.109 394.867 220.109H393.449Z" fill="white"/>
<rect x="191" width="91" height="37" rx="6" fill="#27AE60"/>
<path fill-rule="evenodd" clip-rule="evenodd" d="M217.001 16C217.001 18.2091 215.21 20 213.001 20C212.692 20 212.391 19.965 212.102 19.8987L206.587 25.4142C206.212 25.7893 205.703 26 205.172 26H204.208C203.763 26 203.539 25.4614 203.854 25.1464L205.001 24V23C205.001 22.4477 205.449 22 206.001 22H207.001V20C207.001 19.4477 207.449 19 208.001 19H209.001L209.717 18.2841C209.266 17.6365 209.001 16.8492 209.001 16C209.001 13.7909 210.792 12 213.001 12C215.21 12 217.001 13.7909 217.001 16ZM215.001 15C215.001 15.5523 214.553 16 214.001 16C213.449 16 213.001 15.5523 213.001 15C213.001 14.4477 213.449 14 214.001 14C214.553 14 215.001 14.4477 215.001 15Z" fill="white"/>
<path d="M230.09 23H228.689V15.6348H226.17V14.4336H232.609V15.6348H230.09V23ZM236.611 23.1172C235.604 23.1172 234.814 22.8242 234.244 22.2383C233.678 21.6484 233.395 20.8379 233.395 19.8066C233.395 18.748 233.658 17.916 234.186 17.3105C234.713 16.7051 235.438 16.4023 236.359 16.4023C237.215 16.4023 237.891 16.6621 238.387 17.1816C238.883 17.7012 239.131 18.416 239.131 19.3262V20.0703H234.812C234.832 20.6992 235.002 21.1836 235.322 21.5234C235.643 21.8594 236.094 22.0273 236.676 22.0273C237.059 22.0273 237.414 21.9922 237.742 21.9219C238.074 21.8477 238.43 21.7266 238.809 21.5586V22.6777C238.473 22.8379 238.133 22.9512 237.789 23.0176C237.445 23.084 237.053 23.1172 236.611 23.1172ZM236.359 17.4453C235.922 17.4453 235.57 17.584 235.305 17.8613C235.043 18.1387 234.887 18.543 234.836 19.0742H237.777C237.77 18.5391 237.641 18.1348 237.391 17.8613C237.141 17.584 236.797 17.4453 236.359 17.4453ZM246.396 23H245.014V19.0156C245.014 18.5156 244.912 18.1426 244.709 17.8965C244.51 17.6504 244.191 17.5273 243.754 17.5273C243.172 17.5273 242.746 17.6992 242.477 18.043C242.207 18.3867 242.072 18.9629 242.072 19.7715V23H240.695V16.5195H241.773L241.967 17.3691H242.037C242.232 17.0605 242.51 16.8223 242.869 16.6543C243.229 16.4863 243.627 16.4023 244.064 16.4023C245.619 16.4023 246.396 17.1934 246.396 18.7754V23ZM252.367 23L252.092 22.0977H252.045C251.732 22.4922 251.418 22.7617 251.102 22.9062C250.785 23.0469 250.379 23.1172 249.883 23.1172C249.246 23.1172 248.748 22.9453 248.389 22.6016C248.033 22.2578 247.855 21.7715 247.855 21.1426C247.855 20.4746 248.104 19.9707 248.6 19.6309C249.096 19.291 249.852 19.1055 250.867 19.0742L251.986 19.0391V18.6934C251.986 18.2793 251.889 17.9707 251.693 17.7676C251.502 17.5605 251.203 17.457 250.797 17.457C250.465 17.457 250.146 17.5059 249.842 17.6035C249.537 17.7012 249.244 17.8164 248.963 17.9492L248.518 16.9648C248.869 16.7812 249.254 16.6426 249.672 16.5488C250.09 16.4512 250.484 16.4023 250.855 16.4023C251.68 16.4023 252.301 16.582 252.719 16.9414C253.141 17.3008 253.352 17.8652 253.352 18.6348V23H252.367ZM250.316 22.0625C250.816 22.0625 251.217 21.9238 251.518 21.6465C251.822 21.3652 251.975 20.9727 251.975 20.4688V19.9062L251.143 19.9414C250.494 19.9648 250.021 20.0742 249.725 20.2695C249.432 20.4609 249.285 20.7559 249.285 21.1543C249.285 21.4434 249.371 21.668 249.543 21.8281C249.715 21.9844 249.973 22.0625 250.316 22.0625ZM260.975 23H259.592V19.0156C259.592 18.5156 259.49 18.1426 259.287 17.8965C259.088 17.6504 258.77 17.5273 258.332 17.5273C257.75 17.5273 257.324 17.6992 257.055 18.043C256.785 18.3867 256.65 18.9629 256.65 19.7715V23H255.273V16.5195H256.352L256.545 17.3691H256.615C256.811 17.0605 257.088 16.8223 257.447 16.6543C257.807 16.4863 258.205 16.4023 258.643 16.4023C260.197 16.4023 260.975 17.1934 260.975 18.7754V23ZM265.305 22.0039C265.641 22.0039 265.977 21.9512 266.312 21.8457V22.8828C266.16 22.9492 265.963 23.0039 265.721 23.0469C265.482 23.0938 265.234 23.1172 264.977 23.1172C263.672 23.1172 263.02 22.4297 263.02 21.0547V17.5625H262.135V16.9531L263.084 16.4492L263.553 15.0781H264.402V16.5195H266.248V17.5625H264.402V21.0312C264.402 21.3633 264.484 21.6094 264.648 21.7695C264.816 21.9258 265.035 22.0039 265.305 22.0039Z" fill="white"/>
<path fill-rule="evenodd" clip-rule="evenodd" d="M345 115L345 107H344L344 115L345 115Z" fill="#28232D"/>
<path d="M345.319 118.83C344.921 119.398 344.079 119.398 343.681 118.83L342.101 116.573C341.637 115.911 342.112 115 342.921 115L346.079 115C346.888 115 347.363 115.911 346.899 116.573L345.319 118.83Z" fill="#28232D"/>
<path fill-rule="evenodd" clip-rule="evenodd" d="M349 194L349 178H348L348 194H349Z" fill="#28232D"/>
<path d="M349.319 197.83C348.921 198.398 348.079 198.398 347.681 197.83L346.101 195.573C345.637 194.911 346.112 194 346.921 194L350.079 194C350.888 194 351.363 194.911 350.899 195.573L349.319 197.83Z" fill="#28232D"/>
<path fill-rule="evenodd" clip-rule="evenodd" d="M127 115L127 107H126L126 115L127 115Z" fill="#28232D"/>
<path d="M127.319 118.83C126.921 119.398 126.079 119.398 125.681 118.83L124.101 116.573C123.637 115.911 124.112 115 124.921 115L128.079 115C128.888 115 129.363 115.911 128.899 116.573L127.319 118.83Z" fill="#28232D"/>
<path fill-rule="evenodd" clip-rule="evenodd" d="M123 194L123 178H122L122 194H123Z" fill="#28232D"/>
<path d="M123.319 197.83C122.921 198.398 122.079 198.398 121.681 197.83L120.101 195.573C119.637 194.911 120.112 194 120.921 194L124.079 194C124.888 194 125.363 194.911 124.899 195.573L123.319 197.83Z" fill="#28232D"/>
<path d="M343.681 63.8297C344.079 64.3984 344.921 64.3984 345.319 63.8297L346.899 61.5735C347.363 60.9107 346.888 60 346.079 60L342.921 60C342.112 60 341.637 60.9107 342.101 61.5735L343.681 63.8297Z" fill="#28232D"/>
<path fill-rule="evenodd" clip-rule="evenodd" d="M345 57.5002L345 60L344 60L344 57.5002C344.001 54.4625 341.538 52 338.5 52L246.5 52C242.91 52 240 49.0899 240 45.5002L240 40L241 40L241 45.5001C241 48.5376 243.463 51 246.5 51L338.5 51C342.09 51 345.001 53.9103 345 57.5002Z" fill="#28232D"/>
<path d="M127.319 63.8297C126.921 64.3984 126.079 64.3984 125.681 63.8297L124.101 61.5735C123.637 60.9107 124.112 60 124.921 60L128.079 60C128.888 60 129.363 60.9107 128.899 61.5735L127.319 63.8297Z" fill="#28232D"/>
<path fill-rule="evenodd" clip-rule="evenodd" d="M126 57.5002L126 60L127 60L127 57.5002C126.999 54.4625 129.462 52 132.5 52L226.5 52C230.09 52 233 49.0899 233 45.5002L233 40L232 40L232 45.5001C232 48.5376 229.537 51 226.5 51L132.5 51C128.91 51 125.999 53.9103 126 57.5002Z" fill="#28232D"/>
<path d="M131.319 197.83C130.921 198.398 130.079 198.398 129.681 197.83L128.101 195.573C127.637 194.911 128.112 194 128.921 194L132.079 194C132.888 194 133.363 194.911 132.899 195.573L131.319 197.83Z" fill="#28232D"/>
<path fill-rule="evenodd" clip-rule="evenodd" d="M130 193.5L130 194L131 194L131 193.5C131 190.462 133.463 188 136.5 188L334.5 188C338.09 188 341 185.09 341 181.5L341 178L340 178L340 181.5C340 184.538 337.538 187 334.5 187L136.5 187C132.91 187 130 189.91 130 193.5Z" fill="#28232D"/>
</svg>
