<svg width="500" height="238" viewBox="0 0 500 238" fill="none" xmlns="http://www.w3.org/2000/svg">
<rect x="224" y="61" width="137" height="37" rx="6" fill="white"/>
<rect x="224.5" y="61.5" width="136" height="36" rx="5.5" stroke="#1F8B4D" stroke-opacity="0.4"/>
<rect x="221" y="64" width="137" height="37" rx="6" fill="white"/>
<rect x="221.5" y="64.5" width="136" height="36" rx="5.5" stroke="#1F8B4D" stroke-opacity="0.4"/>
<rect x="218" y="67" width="137" height="37" rx="6" fill="white"/>
<circle cx="234" cy="82.5" r="2.5" fill="#27AE60"/>
<path fill-rule="evenodd" clip-rule="evenodd" d="M232.382 86.3408C230.979 86.9622 230 88.3668 230 90V90.0741C230 90.5854 230.415 91 230.926 91H237.074C237.585 91 238 90.5854 238 90.0741V90C238 88.3668 237.021 86.9622 235.618 86.3408C235.121 86.5507 234.574 86.6667 234 86.6667C233.426 86.6667 232.879 86.5507 232.382 86.3408Z" fill="#27AE60"/>
<circle cx="240" cy="82.5" r="2" stroke="#27AE60"/>
<mask id="path-11-inside-1" fill="white">
<path fill-rule="evenodd" clip-rule="evenodd" d="M238.382 86.3408C236.979 86.9622 236 88.3668 236 90V90.0741C236 90.5854 236.415 91 236.926 91H243.074C243.585 91 244 90.5854 244 90.0741V90C244 88.3668 243.021 86.9622 241.618 86.3408C241.121 86.5507 240.574 86.6667 240 86.6667C239.426 86.6667 238.879 86.5507 238.382 86.3408Z"/>
</mask>
<path d="M238.382 86.3408L238.771 85.4194L238.372 85.2514L237.977 85.4265L238.382 86.3408ZM241.618 86.3408L242.023 85.4265L241.628 85.2514L241.23 85.4194L241.618 86.3408ZM237 90C237 88.7766 237.732 87.7221 238.787 87.2552L237.977 85.4265C236.225 86.2022 235 87.9569 235 90H237ZM237 90.0741V90H235V90.0741H237ZM236.926 90C236.967 90 237 90.0332 237 90.0741H235C235 91.1377 235.862 92 236.926 92V90ZM243.074 90H236.926V92H243.074V90ZM243 90.0741C243 90.0332 243.033 90 243.074 90V92C244.138 92 245 91.1377 245 90.0741H243ZM243 90V90.0741H245V90H243ZM241.213 87.2552C242.268 87.7221 243 88.7766 243 90H245C245 87.9569 243.775 86.2022 242.023 85.4265L241.213 87.2552ZM241.23 85.4194C240.853 85.5783 240.438 85.6667 240 85.6667V87.6667C240.71 87.6667 241.389 87.523 242.007 87.2622L241.23 85.4194ZM240 85.6667C239.562 85.6667 239.147 85.5783 238.771 85.4194L237.993 87.2622C238.611 87.523 239.29 87.6667 240 87.6667V85.6667Z" fill="#27AE60" mask="url(#path-11-inside-1)"/>
<path d="M257.09 90H255.689V82.6348H253.17V81.4336H259.609V82.6348H257.09V90ZM263.611 90.1172C262.604 90.1172 261.814 89.8242 261.244 89.2383C260.678 88.6484 260.395 87.8379 260.395 86.8066C260.395 85.748 260.658 84.916 261.186 84.3105C261.713 83.7051 262.438 83.4023 263.359 83.4023C264.215 83.4023 264.891 83.6621 265.387 84.1816C265.883 84.7012 266.131 85.416 266.131 86.3262V87.0703H261.812C261.832 87.6992 262.002 88.1836 262.322 88.5234C262.643 88.8594 263.094 89.0273 263.676 89.0273C264.059 89.0273 264.414 88.9922 264.742 88.9219C265.074 88.8477 265.43 88.7266 265.809 88.5586V89.6777C265.473 89.8379 265.133 89.9512 264.789 90.0176C264.445 90.084 264.053 90.1172 263.611 90.1172ZM263.359 84.4453C262.922 84.4453 262.57 84.584 262.305 84.8613C262.043 85.1387 261.887 85.543 261.836 86.0742H264.777C264.77 85.5391 264.641 85.1348 264.391 84.8613C264.141 84.584 263.797 84.4453 263.359 84.4453ZM273.396 90H272.014V86.0156C272.014 85.5156 271.912 85.1426 271.709 84.8965C271.51 84.6504 271.191 84.5273 270.754 84.5273C270.172 84.5273 269.746 84.6992 269.477 85.043C269.207 85.3867 269.072 85.9629 269.072 86.7715V90H267.695V83.5195H268.773L268.967 84.3691H269.037C269.232 84.0605 269.51 83.8223 269.869 83.6543C270.229 83.4863 270.627 83.4023 271.064 83.4023C272.619 83.4023 273.396 84.1934 273.396 85.7754V90ZM279.367 90L279.092 89.0977H279.045C278.732 89.4922 278.418 89.7617 278.102 89.9062C277.785 90.0469 277.379 90.1172 276.883 90.1172C276.246 90.1172 275.748 89.9453 275.389 89.6016C275.033 89.2578 274.855 88.7715 274.855 88.1426C274.855 87.4746 275.104 86.9707 275.6 86.6309C276.096 86.291 276.852 86.1055 277.867 86.0742L278.986 86.0391V85.6934C278.986 85.2793 278.889 84.9707 278.693 84.7676C278.502 84.5605 278.203 84.457 277.797 84.457C277.465 84.457 277.146 84.5059 276.842 84.6035C276.537 84.7012 276.244 84.8164 275.963 84.9492L275.518 83.9648C275.869 83.7812 276.254 83.6426 276.672 83.5488C277.09 83.4512 277.484 83.4023 277.855 83.4023C278.68 83.4023 279.301 83.582 279.719 83.9414C280.141 84.3008 280.352 84.8652 280.352 85.6348V90H279.367ZM277.316 89.0625C277.816 89.0625 278.217 88.9238 278.518 88.6465C278.822 88.3652 278.975 87.9727 278.975 87.4688V86.9062L278.143 86.9414C277.494 86.9648 277.021 87.0742 276.725 87.2695C276.432 87.4609 276.285 87.7559 276.285 88.1543C276.285 88.4434 276.371 88.668 276.543 88.8281C276.715 88.9844 276.973 89.0625 277.316 89.0625ZM287.975 90H286.592V86.0156C286.592 85.5156 286.49 85.1426 286.287 84.8965C286.088 84.6504 285.77 84.5273 285.332 84.5273C284.75 84.5273 284.324 84.6992 284.055 85.043C283.785 85.3867 283.65 85.9629 283.65 86.7715V90H282.273V83.5195H283.352L283.545 84.3691H283.615C283.811 84.0605 284.088 83.8223 284.447 83.6543C284.807 83.4863 285.205 83.4023 285.643 83.4023C287.197 83.4023 287.975 84.1934 287.975 85.7754V90ZM292.305 89.0039C292.641 89.0039 292.977 88.9512 293.312 88.8457V89.8828C293.16 89.9492 292.963 90.0039 292.721 90.0469C292.482 90.0938 292.234 90.1172 291.977 90.1172C290.672 90.1172 290.02 89.4297 290.02 88.0547V84.5625H289.135V83.9531L290.084 83.4492L290.553 82.0781H291.402V83.5195H293.248V84.5625H291.402V88.0312C291.402 88.3633 291.484 88.6094 291.648 88.7695C291.816 88.9258 292.035 89.0039 292.305 89.0039ZM303.191 90L302.336 87.6211H299.061L298.223 90H296.746L299.951 81.3984H301.475L304.68 90H303.191ZM301.967 86.4141L301.164 84.082C301.105 83.9258 301.023 83.6797 300.918 83.3438C300.816 83.0078 300.746 82.7617 300.707 82.6055C300.602 83.0859 300.447 83.6113 300.244 84.1816L299.471 86.4141H301.967ZM307.85 90.1172C307.041 90.1172 306.41 89.8242 305.957 89.2383C305.504 88.6523 305.277 87.8301 305.277 86.7715C305.277 85.709 305.506 84.8828 305.963 84.293C306.424 83.6992 307.061 83.4023 307.873 83.4023C308.725 83.4023 309.373 83.7168 309.818 84.3457H309.889C309.822 83.8809 309.789 83.5137 309.789 83.2441V80.8828H311.172V90H310.094L309.854 89.1504H309.789C309.348 89.7949 308.701 90.1172 307.85 90.1172ZM308.219 89.0039C308.785 89.0039 309.197 88.8457 309.455 88.5293C309.713 88.209 309.846 87.6914 309.854 86.9766V86.7832C309.854 85.9668 309.721 85.3867 309.455 85.043C309.189 84.6992 308.773 84.5273 308.207 84.5273C307.723 84.5273 307.35 84.7246 307.088 85.1191C306.826 85.5098 306.695 86.0684 306.695 86.7949C306.695 87.5137 306.822 88.0625 307.076 88.4414C307.33 88.8164 307.711 89.0039 308.219 89.0039ZM318.602 90H317.219V86.0039C317.219 85.5078 317.125 85.1387 316.938 84.8965C316.75 84.6504 316.457 84.5273 316.059 84.5273C315.527 84.5273 315.137 84.7012 314.887 85.0488C314.641 85.3926 314.518 85.9668 314.518 86.7715V90H313.141V83.5195H314.219L314.412 84.3691H314.482C314.662 84.0605 314.922 83.8223 315.262 83.6543C315.605 83.4863 315.982 83.4023 316.393 83.4023C317.389 83.4023 318.049 83.7422 318.373 84.4219H318.467C318.658 84.1016 318.928 83.8516 319.275 83.6719C319.623 83.4922 320.021 83.4023 320.471 83.4023C321.244 83.4023 321.807 83.5977 322.158 83.9883C322.514 84.3789 322.691 84.9746 322.691 85.7754V90H321.314V86.0039C321.314 85.5078 321.219 85.1387 321.027 84.8965C320.84 84.6504 320.547 84.5273 320.148 84.5273C319.613 84.5273 319.221 84.6953 318.971 85.0312C318.725 85.3633 318.602 85.875 318.602 86.5664V90ZM325.99 90H324.613V83.5195H325.99V90ZM324.531 81.8027C324.531 81.5566 324.598 81.3672 324.73 81.2344C324.867 81.1016 325.061 81.0352 325.311 81.0352C325.553 81.0352 325.74 81.1016 325.873 81.2344C326.01 81.3672 326.078 81.5566 326.078 81.8027C326.078 82.0371 326.01 82.2227 325.873 82.3594C325.74 82.4922 325.553 82.5586 325.311 82.5586C325.061 82.5586 324.867 82.4922 324.73 82.3594C324.598 82.2227 324.531 82.0371 324.531 81.8027ZM333.666 90H332.283V86.0156C332.283 85.5156 332.182 85.1426 331.979 84.8965C331.779 84.6504 331.461 84.5273 331.023 84.5273C330.441 84.5273 330.016 84.6992 329.746 85.043C329.477 85.3867 329.342 85.9629 329.342 86.7715V90H327.965V83.5195H329.043L329.236 84.3691H329.307C329.502 84.0605 329.779 83.8223 330.139 83.6543C330.498 83.4863 330.896 83.4023 331.334 83.4023C332.889 83.4023 333.666 84.1934 333.666 85.7754V90ZM339.936 88.1543C339.936 88.7871 339.705 89.2734 339.244 89.6133C338.783 89.9492 338.123 90.1172 337.264 90.1172C336.4 90.1172 335.707 89.9863 335.184 89.7246V88.5352C335.945 88.8867 336.654 89.0625 337.311 89.0625C338.158 89.0625 338.582 88.8066 338.582 88.2949C338.582 88.1309 338.535 87.9941 338.441 87.8848C338.348 87.7754 338.193 87.6621 337.979 87.5449C337.764 87.4277 337.465 87.2949 337.082 87.1465C336.336 86.8574 335.83 86.5684 335.564 86.2793C335.303 85.9902 335.172 85.6152 335.172 85.1543C335.172 84.5996 335.395 84.1699 335.84 83.8652C336.289 83.5566 336.898 83.4023 337.668 83.4023C338.43 83.4023 339.15 83.5566 339.83 83.8652L339.385 84.9023C338.686 84.6133 338.098 84.4688 337.621 84.4688C336.895 84.4688 336.531 84.6758 336.531 85.0898C336.531 85.293 336.625 85.4648 336.812 85.6055C337.004 85.7461 337.418 85.9395 338.055 86.1855C338.59 86.3926 338.979 86.582 339.221 86.7539C339.463 86.9258 339.643 87.125 339.76 87.3516C339.877 87.5742 339.936 87.8418 339.936 88.1543Z" fill="#28232D"/>
<rect x="218.5" y="67.5" width="136" height="36" rx="5.5" stroke="#1F8B4D" stroke-opacity="0.4"/>
<rect x="270" y="126" width="219" height="53" rx="6" fill="white"/>
<path fill-rule="evenodd" clip-rule="evenodd" d="M289.501 146.289C289.191 146.11 288.81 146.11 288.501 146.289L284.305 148.711C283.995 148.89 283.805 149.22 283.805 149.577V154.423C283.805 154.78 283.995 155.11 284.305 155.289L288.501 157.711C288.81 157.89 289.191 157.89 289.501 157.711L293.697 155.289C294.006 155.11 294.197 154.78 294.197 154.423V149.577C294.197 149.22 294.006 148.89 293.697 148.711L289.501 146.289ZM285.749 149.566C285.509 149.429 285.204 149.512 285.067 149.752C284.93 149.992 285.013 150.297 285.253 150.434L288.501 152.29V156C288.501 156.276 288.725 156.5 289.001 156.5C289.277 156.5 289.501 156.276 289.501 156V152.29L292.749 150.434C292.989 150.297 293.072 149.992 292.935 149.752C292.798 149.512 292.493 149.429 292.253 149.566L289.001 151.424L285.749 149.566Z" fill="#27AE60"/>
<path d="M309.635 144.354H312.787V148.654C312.271 148.822 311.775 148.941 311.299 149.012C310.826 149.082 310.314 149.117 309.764 149.117C308.467 149.117 307.467 148.734 306.764 147.969C306.061 147.199 305.709 146.115 305.709 144.717C305.709 143.338 306.105 142.26 306.898 141.482C307.691 140.701 308.783 140.311 310.174 140.311C311.068 140.311 311.916 140.482 312.717 140.826L312.225 141.992C311.529 141.672 310.834 141.512 310.139 141.512C309.225 141.512 308.502 141.799 307.971 142.373C307.439 142.947 307.174 143.732 307.174 144.729C307.174 145.775 307.412 146.572 307.889 147.119C308.369 147.662 309.059 147.934 309.957 147.934C310.41 147.934 310.895 147.877 311.41 147.764V145.555H309.635V144.354ZM317.533 149.117C316.525 149.117 315.736 148.824 315.166 148.238C314.6 147.648 314.316 146.838 314.316 145.807C314.316 144.748 314.58 143.916 315.107 143.311C315.635 142.705 316.359 142.402 317.281 142.402C318.137 142.402 318.812 142.662 319.309 143.182C319.805 143.701 320.053 144.416 320.053 145.326V146.07H315.734C315.754 146.699 315.924 147.184 316.244 147.523C316.564 147.859 317.016 148.027 317.598 148.027C317.98 148.027 318.336 147.992 318.664 147.922C318.996 147.848 319.352 147.727 319.73 147.559V148.678C319.395 148.838 319.055 148.951 318.711 149.018C318.367 149.084 317.975 149.117 317.533 149.117ZM317.281 143.445C316.844 143.445 316.492 143.584 316.227 143.861C315.965 144.139 315.809 144.543 315.758 145.074H318.699C318.691 144.539 318.562 144.135 318.312 143.861C318.062 143.584 317.719 143.445 317.281 143.445ZM327.318 149H325.936V145.016C325.936 144.516 325.834 144.143 325.631 143.896C325.432 143.65 325.113 143.527 324.676 143.527C324.094 143.527 323.668 143.699 323.398 144.043C323.129 144.387 322.994 144.963 322.994 145.771V149H321.617V142.52H322.695L322.889 143.369H322.959C323.154 143.061 323.432 142.822 323.791 142.654C324.15 142.486 324.549 142.402 324.986 142.402C326.541 142.402 327.318 143.193 327.318 144.775V149ZM332.064 149.117C331.057 149.117 330.268 148.824 329.697 148.238C329.131 147.648 328.848 146.838 328.848 145.807C328.848 144.748 329.111 143.916 329.639 143.311C330.166 142.705 330.891 142.402 331.812 142.402C332.668 142.402 333.344 142.662 333.84 143.182C334.336 143.701 334.584 144.416 334.584 145.326V146.07H330.266C330.285 146.699 330.455 147.184 330.775 147.523C331.096 147.859 331.547 148.027 332.129 148.027C332.512 148.027 332.867 147.992 333.195 147.922C333.527 147.848 333.883 147.727 334.262 147.559V148.678C333.926 148.838 333.586 148.951 333.242 149.018C332.898 149.084 332.506 149.117 332.064 149.117ZM331.812 143.445C331.375 143.445 331.023 143.584 330.758 143.861C330.496 144.139 330.34 144.543 330.289 145.074H333.23C333.223 144.539 333.094 144.135 332.844 143.861C332.594 143.584 332.25 143.445 331.812 143.445ZM339.436 142.402C339.713 142.402 339.941 142.422 340.121 142.461L339.986 143.744C339.791 143.697 339.588 143.674 339.377 143.674C338.826 143.674 338.379 143.854 338.035 144.213C337.695 144.572 337.525 145.039 337.525 145.613V149H336.148V142.52H337.227L337.408 143.662H337.479C337.693 143.275 337.973 142.969 338.316 142.742C338.664 142.516 339.037 142.402 339.436 142.402ZM342.705 149H341.328V142.52H342.705V149ZM341.246 140.803C341.246 140.557 341.312 140.367 341.445 140.234C341.582 140.102 341.775 140.035 342.025 140.035C342.268 140.035 342.455 140.102 342.588 140.234C342.725 140.367 342.793 140.557 342.793 140.803C342.793 141.037 342.725 141.223 342.588 141.359C342.455 141.492 342.268 141.559 342.025 141.559C341.775 141.559 341.582 141.492 341.445 141.359C341.312 141.223 341.246 141.037 341.246 140.803ZM347.293 149.117C346.312 149.117 345.566 148.832 345.055 148.262C344.547 147.688 344.293 146.865 344.293 145.795C344.293 144.705 344.559 143.867 345.09 143.281C345.625 142.695 346.396 142.402 347.404 142.402C348.088 142.402 348.703 142.529 349.25 142.783L348.834 143.891C348.252 143.664 347.771 143.551 347.393 143.551C346.271 143.551 345.711 144.295 345.711 145.783C345.711 146.51 345.85 147.057 346.127 147.424C346.408 147.787 346.818 147.969 347.357 147.969C347.971 147.969 348.551 147.816 349.098 147.512V148.713C348.852 148.857 348.588 148.961 348.307 149.023C348.029 149.086 347.691 149.117 347.293 149.117ZM355.285 144.418H356.258C356.91 144.418 357.383 144.297 357.676 144.055C357.969 143.812 358.115 143.453 358.115 142.977C358.115 142.492 357.957 142.145 357.641 141.934C357.324 141.723 356.848 141.617 356.211 141.617H355.285V144.418ZM355.285 145.578V149H353.885V140.434H356.305C357.41 140.434 358.229 140.641 358.76 141.055C359.291 141.469 359.557 142.094 359.557 142.93C359.557 143.996 359.002 144.756 357.893 145.209L360.312 149H358.719L356.668 145.578H355.285ZM367.162 145.748C367.162 146.807 366.891 147.633 366.348 148.227C365.805 148.82 365.049 149.117 364.08 149.117C363.475 149.117 362.939 148.98 362.475 148.707C362.01 148.434 361.652 148.041 361.402 147.529C361.152 147.018 361.027 146.424 361.027 145.748C361.027 144.697 361.297 143.877 361.836 143.287C362.375 142.697 363.135 142.402 364.115 142.402C365.053 142.402 365.795 142.705 366.342 143.311C366.889 143.912 367.162 144.725 367.162 145.748ZM362.445 145.748C362.445 147.244 362.998 147.992 364.104 147.992C365.197 147.992 365.744 147.244 365.744 145.748C365.744 144.268 365.193 143.527 364.092 143.527C363.514 143.527 363.094 143.719 362.832 144.102C362.574 144.484 362.445 145.033 362.445 145.748ZM370.127 149H368.75V139.883H370.127V149ZM374.932 149.117C373.924 149.117 373.135 148.824 372.564 148.238C371.998 147.648 371.715 146.838 371.715 145.807C371.715 144.748 371.979 143.916 372.506 143.311C373.033 142.705 373.758 142.402 374.68 142.402C375.535 142.402 376.211 142.662 376.707 143.182C377.203 143.701 377.451 144.416 377.451 145.326V146.07H373.133C373.152 146.699 373.322 147.184 373.643 147.523C373.963 147.859 374.414 148.027 374.996 148.027C375.379 148.027 375.734 147.992 376.062 147.922C376.395 147.848 376.75 147.727 377.129 147.559V148.678C376.793 148.838 376.453 148.951 376.109 149.018C375.766 149.084 375.373 149.117 374.932 149.117ZM374.68 143.445C374.242 143.445 373.891 143.584 373.625 143.861C373.363 144.139 373.207 144.543 373.156 145.074H376.098C376.09 144.539 375.961 144.135 375.711 143.861C375.461 143.584 375.117 143.445 374.68 143.445ZM305.48 161.713C305.48 160.678 305.631 159.709 305.932 158.807C306.236 157.904 306.674 157.113 307.244 156.434H308.445C307.902 157.168 307.486 157.992 307.197 158.906C306.908 159.816 306.764 160.748 306.764 161.701C306.764 162.654 306.908 163.578 307.197 164.473C307.486 165.367 307.898 166.176 308.434 166.898H307.244C306.67 166.234 306.232 165.459 305.932 164.572C305.631 163.686 305.48 162.732 305.48 161.713ZM311.34 160.418H312.312C312.965 160.418 313.438 160.297 313.73 160.055C314.023 159.812 314.17 159.453 314.17 158.977C314.17 158.492 314.012 158.145 313.695 157.934C313.379 157.723 312.902 157.617 312.266 157.617H311.34V160.418ZM311.34 161.578V165H309.939V156.434H312.359C313.465 156.434 314.283 156.641 314.814 157.055C315.346 157.469 315.611 158.094 315.611 158.93C315.611 159.996 315.057 160.756 313.947 161.209L316.367 165H314.773L312.723 161.578H311.34ZM320.299 165.117C319.291 165.117 318.502 164.824 317.932 164.238C317.365 163.648 317.082 162.838 317.082 161.807C317.082 160.748 317.346 159.916 317.873 159.311C318.4 158.705 319.125 158.402 320.047 158.402C320.902 158.402 321.578 158.662 322.074 159.182C322.57 159.701 322.818 160.416 322.818 161.326V162.07H318.5C318.52 162.699 318.689 163.184 319.01 163.523C319.33 163.859 319.781 164.027 320.363 164.027C320.746 164.027 321.102 163.992 321.43 163.922C321.762 163.848 322.117 163.727 322.496 163.559V164.678C322.16 164.838 321.82 164.951 321.477 165.018C321.133 165.084 320.74 165.117 320.299 165.117ZM320.047 159.445C319.609 159.445 319.258 159.584 318.992 159.861C318.73 160.139 318.574 160.543 318.523 161.074H321.465C321.457 160.539 321.328 160.135 321.078 159.861C320.828 159.584 320.484 159.445 320.047 159.445ZM328.736 163.154C328.736 163.787 328.506 164.273 328.045 164.613C327.584 164.949 326.924 165.117 326.064 165.117C325.201 165.117 324.508 164.986 323.984 164.725V163.535C324.746 163.887 325.455 164.062 326.111 164.062C326.959 164.062 327.383 163.807 327.383 163.295C327.383 163.131 327.336 162.994 327.242 162.885C327.148 162.775 326.994 162.662 326.779 162.545C326.564 162.428 326.266 162.295 325.883 162.146C325.137 161.857 324.631 161.568 324.365 161.279C324.104 160.99 323.973 160.615 323.973 160.154C323.973 159.6 324.195 159.17 324.641 158.865C325.09 158.557 325.699 158.402 326.469 158.402C327.23 158.402 327.951 158.557 328.631 158.865L328.186 159.902C327.486 159.613 326.898 159.469 326.422 159.469C325.695 159.469 325.332 159.676 325.332 160.09C325.332 160.293 325.426 160.465 325.613 160.605C325.805 160.746 326.219 160.939 326.855 161.186C327.391 161.393 327.779 161.582 328.021 161.754C328.264 161.926 328.443 162.125 328.561 162.352C328.678 162.574 328.736 162.842 328.736 163.154ZM335.979 161.748C335.979 162.807 335.707 163.633 335.164 164.227C334.621 164.82 333.865 165.117 332.896 165.117C332.291 165.117 331.756 164.98 331.291 164.707C330.826 164.434 330.469 164.041 330.219 163.529C329.969 163.018 329.844 162.424 329.844 161.748C329.844 160.697 330.113 159.877 330.652 159.287C331.191 158.697 331.951 158.402 332.932 158.402C333.869 158.402 334.611 158.705 335.158 159.311C335.705 159.912 335.979 160.725 335.979 161.748ZM331.262 161.748C331.262 163.244 331.814 163.992 332.92 163.992C334.014 163.992 334.561 163.244 334.561 161.748C334.561 160.268 334.01 159.527 332.908 159.527C332.33 159.527 331.91 159.719 331.648 160.102C331.391 160.484 331.262 161.033 331.262 161.748ZM342.137 165L341.943 164.15H341.873C341.682 164.451 341.408 164.688 341.053 164.859C340.701 165.031 340.299 165.117 339.846 165.117C339.061 165.117 338.475 164.922 338.088 164.531C337.701 164.141 337.508 163.549 337.508 162.756V158.52H338.896V162.516C338.896 163.012 338.998 163.385 339.201 163.635C339.404 163.881 339.723 164.004 340.156 164.004C340.734 164.004 341.158 163.832 341.428 163.488C341.701 163.141 341.838 162.561 341.838 161.748V158.52H343.221V165H342.137ZM348.471 158.402C348.748 158.402 348.977 158.422 349.156 158.461L349.021 159.744C348.826 159.697 348.623 159.674 348.412 159.674C347.861 159.674 347.414 159.854 347.07 160.213C346.73 160.572 346.561 161.039 346.561 161.613V165H345.184V158.52H346.262L346.443 159.662H346.514C346.729 159.275 347.008 158.969 347.352 158.742C347.699 158.516 348.072 158.402 348.471 158.402ZM352.977 165.117C351.996 165.117 351.25 164.832 350.738 164.262C350.23 163.688 349.977 162.865 349.977 161.795C349.977 160.705 350.242 159.867 350.773 159.281C351.309 158.695 352.08 158.402 353.088 158.402C353.771 158.402 354.387 158.529 354.934 158.783L354.518 159.891C353.936 159.664 353.455 159.551 353.076 159.551C351.955 159.551 351.395 160.295 351.395 161.783C351.395 162.51 351.533 163.057 351.811 163.424C352.092 163.787 352.502 163.969 353.041 163.969C353.654 163.969 354.234 163.816 354.781 163.512V164.713C354.535 164.857 354.271 164.961 353.99 165.023C353.713 165.086 353.375 165.117 352.977 165.117ZM359.135 165.117C358.127 165.117 357.338 164.824 356.768 164.238C356.201 163.648 355.918 162.838 355.918 161.807C355.918 160.748 356.182 159.916 356.709 159.311C357.236 158.705 357.961 158.402 358.883 158.402C359.738 158.402 360.414 158.662 360.91 159.182C361.406 159.701 361.654 160.416 361.654 161.326V162.07H357.336C357.355 162.699 357.525 163.184 357.846 163.523C358.166 163.859 358.617 164.027 359.199 164.027C359.582 164.027 359.938 163.992 360.266 163.922C360.598 163.848 360.953 163.727 361.332 163.559V164.678C360.996 164.838 360.656 164.951 360.312 165.018C359.969 165.084 359.576 165.117 359.135 165.117ZM358.883 159.445C358.445 159.445 358.094 159.584 357.828 159.861C357.566 160.139 357.41 160.543 357.359 161.074H360.301C360.293 160.539 360.164 160.135 359.914 159.861C359.664 159.584 359.32 159.445 358.883 159.445ZM363.014 164.268C363.014 163.982 363.088 163.764 363.236 163.611C363.385 163.459 363.6 163.383 363.881 163.383C364.166 163.383 364.383 163.463 364.531 163.623C364.68 163.779 364.754 163.994 364.754 164.268C364.754 164.545 364.678 164.766 364.525 164.93C364.377 165.09 364.162 165.17 363.881 165.17C363.6 165.17 363.385 165.09 363.236 164.93C363.088 164.77 363.014 164.549 363.014 164.268ZM363.014 159.264C363.014 158.674 363.303 158.379 363.881 158.379C364.174 158.379 364.393 158.457 364.537 158.613C364.682 158.77 364.754 158.986 364.754 159.264C364.754 159.541 364.678 159.762 364.525 159.926C364.377 160.086 364.162 160.166 363.881 160.166C363.6 160.166 363.385 160.086 363.236 159.926C363.088 159.766 363.014 159.545 363.014 159.264ZM375.102 165L374.246 162.621H370.971L370.133 165H368.656L371.861 156.398H373.385L376.59 165H375.102ZM373.877 161.414L373.074 159.082C373.016 158.926 372.934 158.68 372.828 158.344C372.727 158.008 372.656 157.762 372.617 157.605C372.512 158.086 372.357 158.611 372.154 159.182L371.381 161.414H373.877ZM378.951 165H377.574V155.883H378.951V165ZM382.303 165H380.926V155.883H382.303V165ZM385.707 163.74C385.52 164.467 385.176 165.402 384.676 166.547H383.662C383.932 165.492 384.133 164.512 384.266 163.605H385.619L385.707 163.74ZM398.357 160.705C398.357 162.1 398.008 163.184 397.309 163.957C396.613 164.73 395.627 165.117 394.35 165.117C393.057 165.117 392.062 164.734 391.367 163.969C390.676 163.199 390.33 162.107 390.33 160.693C390.33 159.279 390.678 158.193 391.373 157.436C392.072 156.678 393.068 156.299 394.361 156.299C395.635 156.299 396.619 156.684 397.314 157.453C398.01 158.223 398.357 159.307 398.357 160.705ZM391.818 160.705C391.818 161.76 392.031 162.561 392.457 163.107C392.883 163.65 393.514 163.922 394.35 163.922C395.182 163.922 395.809 163.652 396.23 163.113C396.656 162.574 396.869 161.771 396.869 160.705C396.869 159.654 396.658 158.857 396.236 158.314C395.818 157.771 395.193 157.5 394.361 157.5C393.521 157.5 392.887 157.771 392.457 158.314C392.031 158.857 391.818 159.654 391.818 160.705ZM403.338 165.117C402.518 165.117 401.881 164.822 401.428 164.232H401.346C401.4 164.779 401.428 165.111 401.428 165.229V167.883H400.051V158.52H401.164C401.195 158.641 401.26 158.93 401.357 159.387H401.428C401.857 158.73 402.502 158.402 403.361 158.402C404.17 158.402 404.799 158.695 405.248 159.281C405.701 159.867 405.928 160.689 405.928 161.748C405.928 162.807 405.697 163.633 405.236 164.227C404.779 164.82 404.146 165.117 403.338 165.117ZM403.004 159.527C402.457 159.527 402.057 159.688 401.803 160.008C401.553 160.328 401.428 160.84 401.428 161.543V161.748C401.428 162.537 401.553 163.109 401.803 163.465C402.053 163.816 402.461 163.992 403.027 163.992C403.504 163.992 403.871 163.797 404.129 163.406C404.387 163.016 404.516 162.459 404.516 161.736C404.516 161.01 404.387 160.461 404.129 160.09C403.875 159.715 403.5 159.527 403.004 159.527ZM410.357 165.117C409.35 165.117 408.561 164.824 407.99 164.238C407.424 163.648 407.141 162.838 407.141 161.807C407.141 160.748 407.404 159.916 407.932 159.311C408.459 158.705 409.184 158.402 410.105 158.402C410.961 158.402 411.637 158.662 412.133 159.182C412.629 159.701 412.877 160.416 412.877 161.326V162.07H408.559C408.578 162.699 408.748 163.184 409.068 163.523C409.389 163.859 409.84 164.027 410.422 164.027C410.805 164.027 411.16 163.992 411.488 163.922C411.82 163.848 412.176 163.727 412.555 163.559V164.678C412.219 164.838 411.879 164.951 411.535 165.018C411.191 165.084 410.799 165.117 410.357 165.117ZM410.105 159.445C409.668 159.445 409.316 159.584 409.051 159.861C408.789 160.139 408.633 160.543 408.582 161.074H411.523C411.516 160.539 411.387 160.135 411.137 159.861C410.887 159.584 410.543 159.445 410.105 159.445ZM417.729 158.402C418.006 158.402 418.234 158.422 418.414 158.461L418.279 159.744C418.084 159.697 417.881 159.674 417.67 159.674C417.119 159.674 416.672 159.854 416.328 160.213C415.988 160.572 415.818 161.039 415.818 161.613V165H414.441V158.52H415.52L415.701 159.662H415.771C415.986 159.275 416.266 158.969 416.609 158.742C416.957 158.516 417.33 158.402 417.729 158.402ZM423.676 165L423.4 164.098H423.354C423.041 164.492 422.727 164.762 422.41 164.906C422.094 165.047 421.688 165.117 421.191 165.117C420.555 165.117 420.057 164.945 419.697 164.602C419.342 164.258 419.164 163.771 419.164 163.143C419.164 162.475 419.412 161.971 419.908 161.631C420.404 161.291 421.16 161.105 422.176 161.074L423.295 161.039V160.693C423.295 160.279 423.197 159.971 423.002 159.768C422.811 159.561 422.512 159.457 422.105 159.457C421.773 159.457 421.455 159.506 421.15 159.604C420.846 159.701 420.553 159.816 420.271 159.949L419.826 158.965C420.178 158.781 420.562 158.643 420.98 158.549C421.398 158.451 421.793 158.402 422.164 158.402C422.988 158.402 423.609 158.582 424.027 158.941C424.449 159.301 424.66 159.865 424.66 160.635V165H423.676ZM421.625 164.062C422.125 164.062 422.525 163.924 422.826 163.646C423.131 163.365 423.283 162.973 423.283 162.469V161.906L422.451 161.941C421.803 161.965 421.33 162.074 421.033 162.27C420.74 162.461 420.594 162.756 420.594 163.154C420.594 163.443 420.68 163.668 420.852 163.828C421.023 163.984 421.281 164.062 421.625 164.062ZM428.996 164.004C429.332 164.004 429.668 163.951 430.004 163.846V164.883C429.852 164.949 429.654 165.004 429.412 165.047C429.174 165.094 428.926 165.117 428.668 165.117C427.363 165.117 426.711 164.43 426.711 163.055V159.562H425.826V158.953L426.775 158.449L427.244 157.078H428.094V158.52H429.939V159.562H428.094V163.031C428.094 163.363 428.176 163.609 428.34 163.77C428.508 163.926 428.727 164.004 428.996 164.004ZM432.682 165H431.305V158.52H432.682V165ZM431.223 156.803C431.223 156.557 431.289 156.367 431.422 156.234C431.559 156.102 431.752 156.035 432.002 156.035C432.244 156.035 432.432 156.102 432.564 156.234C432.701 156.367 432.77 156.557 432.77 156.803C432.77 157.037 432.701 157.223 432.564 157.359C432.432 157.492 432.244 157.559 432.002 157.559C431.752 157.559 431.559 157.492 431.422 157.359C431.289 157.223 431.223 157.037 431.223 156.803ZM440.404 161.748C440.404 162.807 440.133 163.633 439.59 164.227C439.047 164.82 438.291 165.117 437.322 165.117C436.717 165.117 436.182 164.98 435.717 164.707C435.252 164.434 434.895 164.041 434.645 163.529C434.395 163.018 434.27 162.424 434.27 161.748C434.27 160.697 434.539 159.877 435.078 159.287C435.617 158.697 436.377 158.402 437.357 158.402C438.295 158.402 439.037 158.705 439.584 159.311C440.131 159.912 440.404 160.725 440.404 161.748ZM435.688 161.748C435.688 163.244 436.24 163.992 437.346 163.992C438.439 163.992 438.986 163.244 438.986 161.748C438.986 160.268 438.436 159.527 437.334 159.527C436.756 159.527 436.336 159.719 436.074 160.102C435.816 160.484 435.688 161.033 435.688 161.748ZM447.693 165H446.311V161.016C446.311 160.516 446.209 160.143 446.006 159.896C445.807 159.65 445.488 159.527 445.051 159.527C444.469 159.527 444.043 159.699 443.773 160.043C443.504 160.387 443.369 160.963 443.369 161.771V165H441.992V158.52H443.07L443.264 159.369H443.334C443.529 159.061 443.807 158.822 444.166 158.654C444.525 158.486 444.924 158.402 445.361 158.402C446.916 158.402 447.693 159.193 447.693 160.775V165ZM449.404 164.268C449.404 163.982 449.479 163.764 449.627 163.611C449.775 163.459 449.99 163.383 450.271 163.383C450.557 163.383 450.773 163.463 450.922 163.623C451.07 163.779 451.145 163.994 451.145 164.268C451.145 164.545 451.068 164.766 450.916 164.93C450.768 165.09 450.553 165.17 450.271 165.17C449.99 165.17 449.775 165.09 449.627 164.93C449.479 164.77 449.404 164.549 449.404 164.268ZM449.404 159.264C449.404 158.674 449.693 158.379 450.271 158.379C450.564 158.379 450.783 158.457 450.928 158.613C451.072 158.77 451.145 158.986 451.145 159.264C451.145 159.541 451.068 159.762 450.916 159.926C450.768 160.086 450.553 160.166 450.271 160.166C449.99 160.166 449.775 160.086 449.627 159.926C449.479 159.766 449.404 159.545 449.404 159.264ZM461.492 165L460.637 162.621H457.361L456.523 165H455.047L458.252 156.398H459.775L462.98 165H461.492ZM460.268 161.414L459.465 159.082C459.406 158.926 459.324 158.68 459.219 158.344C459.117 158.008 459.047 157.762 459.008 157.605C458.902 158.086 458.748 158.611 458.545 159.182L457.771 161.414H460.268ZM465.342 165H463.965V155.883H465.342V165ZM468.693 165H467.316V155.883H468.693V165ZM473.006 161.713C473.006 162.74 472.854 163.697 472.549 164.584C472.248 165.471 471.812 166.242 471.242 166.898H470.053C470.592 166.168 471.004 165.357 471.289 164.467C471.578 163.576 471.723 162.654 471.723 161.701C471.723 160.744 471.578 159.812 471.289 158.906C471 157.996 470.584 157.172 470.041 156.434H471.242C471.816 157.117 472.254 157.912 472.555 158.818C472.855 159.721 473.006 160.686 473.006 161.713Z" fill="#28232D"/>
<rect x="270.5" y="126.5" width="218" height="52" rx="5.5" stroke="#1F8B4D" stroke-opacity="0.4"/>
<rect y="126" width="143" height="53" rx="6" fill="#EDFFF5"/>
<path fill-rule="evenodd" clip-rule="evenodd" d="M19.5008 146.289C19.1914 146.11 18.8102 146.11 18.5008 146.289L14.3047 148.711C13.9953 148.89 13.8047 149.22 13.8047 149.577V154.423C13.8047 154.78 13.9953 155.11 14.3047 155.289L18.5008 157.711C18.8102 157.89 19.1914 157.89 19.5008 157.711L23.697 155.289C24.0064 155.11 24.197 154.78 24.197 154.423V149.577C24.197 149.22 24.0064 148.89 23.697 148.711L19.5008 146.289ZM15.7489 149.566C15.5092 149.429 15.2037 149.512 15.0667 149.752C14.9297 149.992 15.013 150.297 15.2528 150.434L18.5008 152.29V156C18.5008 156.276 18.7247 156.5 19.0008 156.5C19.277 156.5 19.5008 156.276 19.5008 156V152.29L22.7489 150.434C22.9887 150.297 23.072 149.992 22.935 149.752C22.798 149.512 22.4925 149.429 22.2528 149.566L19.0008 151.424L15.7489 149.566Z" fill="#27AE60"/>
<path d="M39.9453 144.512H42.8574V148.678C42.4043 148.822 41.9434 148.932 41.4746 149.006C41.0059 149.08 40.4629 149.117 39.8457 149.117C38.5488 149.117 37.5391 148.732 36.8164 147.963C36.0938 147.189 35.7324 146.107 35.7324 144.717C35.7324 143.826 35.9102 143.047 36.2656 142.379C36.625 141.707 37.1406 141.195 37.8125 140.844C38.4844 140.488 39.2715 140.311 40.1738 140.311C41.0879 140.311 41.9395 140.479 42.7285 140.814L42.3418 141.693C41.5684 141.365 40.8242 141.201 40.1094 141.201C39.0664 141.201 38.252 141.512 37.666 142.133C37.0801 142.754 36.7871 143.615 36.7871 144.717C36.7871 145.873 37.0684 146.75 37.6309 147.348C38.1973 147.945 39.0273 148.244 40.1211 148.244C40.7148 148.244 41.2949 148.176 41.8613 148.039V145.402H39.9453V144.512ZM47.7031 142.461C47.9883 142.461 48.2441 142.484 48.4707 142.531L48.3359 143.434C48.0703 143.375 47.8359 143.346 47.6328 143.346C47.1133 143.346 46.668 143.557 46.2969 143.979C45.9297 144.4 45.7461 144.926 45.7461 145.555V149H44.7734V142.578H45.5762L45.6875 143.768H45.7344C45.9727 143.35 46.2598 143.027 46.5957 142.801C46.9316 142.574 47.3008 142.461 47.7031 142.461ZM55.2148 145.783C55.2148 146.83 54.9512 147.648 54.4238 148.238C53.8965 148.824 53.168 149.117 52.2383 149.117C51.6641 149.117 51.1543 148.982 50.709 148.713C50.2637 148.443 49.9199 148.057 49.6777 147.553C49.4355 147.049 49.3145 146.459 49.3145 145.783C49.3145 144.736 49.5762 143.922 50.0996 143.34C50.623 142.754 51.3496 142.461 52.2793 142.461C53.1777 142.461 53.8906 142.76 54.418 143.357C54.9492 143.955 55.2148 144.764 55.2148 145.783ZM50.3223 145.783C50.3223 146.604 50.4863 147.229 50.8145 147.658C51.1426 148.088 51.625 148.303 52.2617 148.303C52.8984 148.303 53.3809 148.09 53.709 147.664C54.041 147.234 54.207 146.607 54.207 145.783C54.207 144.967 54.041 144.348 53.709 143.926C53.3809 143.5 52.8945 143.287 52.25 143.287C51.6133 143.287 51.1328 143.496 50.8086 143.914C50.4844 144.332 50.3223 144.955 50.3223 145.783ZM57.8398 142.578V146.744C57.8398 147.268 57.959 147.658 58.1973 147.916C58.4355 148.174 58.8086 148.303 59.3164 148.303C59.9883 148.303 60.4785 148.119 60.7871 147.752C61.0996 147.385 61.2559 146.785 61.2559 145.953V142.578H62.2285V149H61.4258L61.2852 148.139H61.2324C61.0332 148.455 60.7559 148.697 60.4004 148.865C60.0488 149.033 59.6465 149.117 59.1934 149.117C58.4121 149.117 57.8262 148.932 57.4355 148.561C57.0488 148.189 56.8555 147.596 56.8555 146.779V142.578H57.8398ZM67.2852 149.117C66.8672 149.117 66.4844 149.041 66.1367 148.889C65.793 148.732 65.5039 148.494 65.2695 148.174H65.1992C65.2461 148.549 65.2695 148.904 65.2695 149.24V151.883H64.2969V142.578H65.0879L65.2227 143.457H65.2695C65.5195 143.105 65.8105 142.852 66.1426 142.695C66.4746 142.539 66.8555 142.461 67.2852 142.461C68.1367 142.461 68.793 142.752 69.2539 143.334C69.7188 143.916 69.9512 144.732 69.9512 145.783C69.9512 146.838 69.7148 147.658 69.2422 148.244C68.7734 148.826 68.1211 149.117 67.2852 149.117ZM67.1445 143.287C66.4883 143.287 66.0137 143.469 65.7207 143.832C65.4277 144.195 65.2773 144.773 65.2695 145.566V145.783C65.2695 146.686 65.4199 147.332 65.7207 147.723C66.0215 148.109 66.5039 148.303 67.168 148.303C67.7227 148.303 68.1562 148.078 68.4688 147.629C68.7852 147.18 68.9434 146.561 68.9434 145.771C68.9434 144.971 68.7852 144.357 68.4688 143.932C68.1562 143.502 67.7148 143.287 67.1445 143.287ZM75.916 145.438V149H74.9199V140.434H77.2695C78.3203 140.434 79.0957 140.635 79.5957 141.037C80.0996 141.439 80.3516 142.045 80.3516 142.854C80.3516 143.986 79.7773 144.752 78.6289 145.15L80.9551 149H79.7773L77.7031 145.438H75.916ZM75.916 144.582H77.2812C77.9844 144.582 78.5 144.443 78.8281 144.166C79.1562 143.885 79.3203 143.465 79.3203 142.906C79.3203 142.34 79.1523 141.932 78.8164 141.682C78.4844 141.432 77.9492 141.307 77.2109 141.307H75.916V144.582ZM87.7344 145.783C87.7344 146.83 87.4707 147.648 86.9434 148.238C86.416 148.824 85.6875 149.117 84.7578 149.117C84.1836 149.117 83.6738 148.982 83.2285 148.713C82.7832 148.443 82.4395 148.057 82.1973 147.553C81.9551 147.049 81.834 146.459 81.834 145.783C81.834 144.736 82.0957 143.922 82.6191 143.34C83.1426 142.754 83.8691 142.461 84.7988 142.461C85.6973 142.461 86.4102 142.76 86.9375 143.357C87.4688 143.955 87.7344 144.764 87.7344 145.783ZM82.8418 145.783C82.8418 146.604 83.0059 147.229 83.334 147.658C83.6621 148.088 84.1445 148.303 84.7812 148.303C85.418 148.303 85.9004 148.09 86.2285 147.664C86.5605 147.234 86.7266 146.607 86.7266 145.783C86.7266 144.967 86.5605 144.348 86.2285 143.926C85.9004 143.5 85.4141 143.287 84.7695 143.287C84.1328 143.287 83.6523 143.496 83.3281 143.914C83.0039 144.332 82.8418 144.955 82.8418 145.783ZM90.418 149H89.4453V139.883H90.418V149ZM95.1934 149.117C94.2441 149.117 93.4941 148.828 92.9434 148.25C92.3965 147.672 92.123 146.869 92.123 145.842C92.123 144.807 92.377 143.984 92.8848 143.375C93.3965 142.766 94.082 142.461 94.9414 142.461C95.7461 142.461 96.3828 142.727 96.8516 143.258C97.3203 143.785 97.5547 144.482 97.5547 145.35V145.965H93.1309C93.1504 146.719 93.3398 147.291 93.6992 147.682C94.0625 148.072 94.5723 148.268 95.2285 148.268C95.9199 148.268 96.6035 148.123 97.2793 147.834V148.701C96.9355 148.85 96.6094 148.955 96.3008 149.018C95.9961 149.084 95.627 149.117 95.1934 149.117ZM94.9297 143.275C94.4141 143.275 94.002 143.443 93.6934 143.779C93.3887 144.115 93.209 144.58 93.1543 145.174H96.5117C96.5117 144.561 96.375 144.092 96.1016 143.768C95.8281 143.439 95.4375 143.275 94.9297 143.275ZM35.4805 161.713C35.4805 160.678 35.6309 159.709 35.9316 158.807C36.2363 157.904 36.6738 157.113 37.2441 156.434H38.1934C37.6309 157.188 37.207 158.016 36.9219 158.918C36.6406 159.82 36.5 160.748 36.5 161.701C36.5 162.639 36.6445 163.555 36.9336 164.449C37.2227 165.344 37.6387 166.16 38.1816 166.898H37.2441C36.6699 166.234 36.2324 165.459 35.9316 164.572C35.6309 163.686 35.4805 162.732 35.4805 161.713ZM40.7246 161.438V165H39.7285V156.434H42.0781C43.1289 156.434 43.9043 156.635 44.4043 157.037C44.9082 157.439 45.1602 158.045 45.1602 158.854C45.1602 159.986 44.5859 160.752 43.4375 161.15L45.7637 165H44.5859L42.5117 161.438H40.7246ZM40.7246 160.582H42.0898C42.793 160.582 43.3086 160.443 43.6367 160.166C43.9648 159.885 44.1289 159.465 44.1289 158.906C44.1289 158.34 43.9609 157.932 43.625 157.682C43.293 157.432 42.7578 157.307 42.0195 157.307H40.7246V160.582ZM49.7129 165.117C48.7637 165.117 48.0137 164.828 47.4629 164.25C46.916 163.672 46.6426 162.869 46.6426 161.842C46.6426 160.807 46.8965 159.984 47.4043 159.375C47.916 158.766 48.6016 158.461 49.4609 158.461C50.2656 158.461 50.9023 158.727 51.3711 159.258C51.8398 159.785 52.0742 160.482 52.0742 161.35V161.965H47.6504C47.6699 162.719 47.8594 163.291 48.2188 163.682C48.582 164.072 49.0918 164.268 49.748 164.268C50.4395 164.268 51.123 164.123 51.7988 163.834V164.701C51.4551 164.85 51.1289 164.955 50.8203 165.018C50.5156 165.084 50.1465 165.117 49.7129 165.117ZM49.4492 159.275C48.9336 159.275 48.5215 159.443 48.2129 159.779C47.9082 160.115 47.7285 160.58 47.6738 161.174H51.0312C51.0312 160.561 50.8945 160.092 50.6211 159.768C50.3477 159.439 49.957 159.275 49.4492 159.275ZM57.6875 165L57.4941 164.086H57.4473C57.127 164.488 56.8066 164.762 56.4863 164.906C56.1699 165.047 55.7734 165.117 55.2969 165.117C54.6602 165.117 54.1602 164.953 53.7969 164.625C53.4375 164.297 53.2578 163.83 53.2578 163.225C53.2578 161.928 54.2949 161.248 56.3691 161.186L57.459 161.15V160.752C57.459 160.248 57.3496 159.877 57.1309 159.639C56.916 159.396 56.5703 159.275 56.0938 159.275C55.5586 159.275 54.9531 159.439 54.2773 159.768L53.9785 159.023C54.2949 158.852 54.6406 158.717 55.0156 158.619C55.3945 158.521 55.7734 158.473 56.1523 158.473C56.918 158.473 57.4844 158.643 57.8516 158.982C58.2227 159.322 58.4082 159.867 58.4082 160.617V165H57.6875ZM55.4902 164.314C56.0957 164.314 56.5703 164.148 56.9141 163.816C57.2617 163.484 57.4355 163.02 57.4355 162.422V161.842L56.4629 161.883C55.6895 161.91 55.1309 162.031 54.7871 162.246C54.4473 162.457 54.2773 162.787 54.2773 163.236C54.2773 163.588 54.3828 163.855 54.5938 164.039C54.8086 164.223 55.1074 164.314 55.4902 164.314ZM64.7891 164.139H64.7363C64.2871 164.791 63.6152 165.117 62.7207 165.117C61.8809 165.117 61.2266 164.83 60.7578 164.256C60.293 163.682 60.0605 162.865 60.0605 161.807C60.0605 160.748 60.2949 159.926 60.7637 159.34C61.2324 158.754 61.8848 158.461 62.7207 158.461C63.5918 158.461 64.2598 158.777 64.7246 159.41H64.8008L64.7598 158.947L64.7363 158.496V155.883H65.709V165H64.918L64.7891 164.139ZM62.8438 164.303C63.5078 164.303 63.9883 164.123 64.2852 163.764C64.5859 163.4 64.7363 162.816 64.7363 162.012V161.807C64.7363 160.896 64.584 160.248 64.2793 159.861C63.9785 159.471 63.4961 159.275 62.832 159.275C62.2617 159.275 61.8242 159.498 61.5195 159.943C61.2188 160.385 61.0684 161.01 61.0684 161.818C61.0684 162.639 61.2188 163.258 61.5195 163.676C61.8203 164.094 62.2617 164.303 62.8438 164.303ZM74.8438 165L74.6504 164.086H74.6035C74.2832 164.488 73.9629 164.762 73.6426 164.906C73.3262 165.047 72.9297 165.117 72.4531 165.117C71.8164 165.117 71.3164 164.953 70.9531 164.625C70.5938 164.297 70.4141 163.83 70.4141 163.225C70.4141 161.928 71.4512 161.248 73.5254 161.186L74.6152 161.15V160.752C74.6152 160.248 74.5059 159.877 74.2871 159.639C74.0723 159.396 73.7266 159.275 73.25 159.275C72.7148 159.275 72.1094 159.439 71.4336 159.768L71.1348 159.023C71.4512 158.852 71.7969 158.717 72.1719 158.619C72.5508 158.521 72.9297 158.473 73.3086 158.473C74.0742 158.473 74.6406 158.643 75.0078 158.982C75.3789 159.322 75.5645 159.867 75.5645 160.617V165H74.8438ZM72.6465 164.314C73.252 164.314 73.7266 164.148 74.0703 163.816C74.418 163.484 74.5918 163.02 74.5918 162.422V161.842L73.6191 161.883C72.8457 161.91 72.2871 162.031 71.9434 162.246C71.6035 162.457 71.4336 162.787 71.4336 163.236C71.4336 163.588 71.5391 163.855 71.75 164.039C71.9648 164.223 72.2637 164.314 72.6465 164.314ZM81.9688 165V160.846C81.9688 160.322 81.8496 159.932 81.6113 159.674C81.373 159.416 81 159.287 80.4922 159.287C79.8203 159.287 79.3281 159.469 79.0156 159.832C78.7031 160.195 78.5469 160.795 78.5469 161.631V165H77.5742V158.578H78.3652L78.5234 159.457H78.5703C78.7695 159.141 79.0488 158.896 79.4082 158.725C79.7676 158.549 80.168 158.461 80.6094 158.461C81.3828 158.461 81.9648 158.648 82.3555 159.023C82.7461 159.395 82.9414 159.99 82.9414 160.811V165H81.9688ZM89.3164 164.139H89.2637C88.8145 164.791 88.1426 165.117 87.248 165.117C86.4082 165.117 85.7539 164.83 85.2852 164.256C84.8203 163.682 84.5879 162.865 84.5879 161.807C84.5879 160.748 84.8223 159.926 85.291 159.34C85.7598 158.754 86.4121 158.461 87.248 158.461C88.1191 158.461 88.7871 158.777 89.252 159.41H89.3281L89.2871 158.947L89.2637 158.496V155.883H90.2363V165H89.4453L89.3164 164.139ZM87.3711 164.303C88.0352 164.303 88.5156 164.123 88.8125 163.764C89.1133 163.4 89.2637 162.816 89.2637 162.012V161.807C89.2637 160.896 89.1113 160.248 88.8066 159.861C88.5059 159.471 88.0234 159.275 87.3594 159.275C86.7891 159.275 86.3516 159.498 86.0469 159.943C85.7461 160.385 85.5957 161.01 85.5957 161.818C85.5957 162.639 85.7461 163.258 86.0469 163.676C86.3477 164.094 86.7891 164.303 87.3711 164.303ZM103.045 165H102.061L100.332 159.264C100.25 159.01 100.158 158.689 100.057 158.303C99.9551 157.916 99.9023 157.684 99.8984 157.605C99.8125 158.121 99.6758 158.686 99.4883 159.299L97.8125 165H96.8281L94.5488 156.434H95.6035L96.957 161.725C97.1445 162.467 97.2812 163.139 97.3672 163.74C97.4727 163.025 97.6289 162.326 97.8359 161.643L99.3711 156.434H100.426L102.037 161.689C102.225 162.295 102.383 162.979 102.512 163.74C102.586 163.186 102.727 162.51 102.934 161.713L104.281 156.434H105.336L103.045 165ZM109.461 158.461C109.746 158.461 110.002 158.484 110.229 158.531L110.094 159.434C109.828 159.375 109.594 159.346 109.391 159.346C108.871 159.346 108.426 159.557 108.055 159.979C107.688 160.4 107.504 160.926 107.504 161.555V165H106.531V158.578H107.334L107.445 159.768H107.492C107.73 159.35 108.018 159.027 108.354 158.801C108.689 158.574 109.059 158.461 109.461 158.461ZM112.402 165H111.43V158.578H112.402V165ZM111.348 156.838C111.348 156.615 111.402 156.453 111.512 156.352C111.621 156.246 111.758 156.193 111.922 156.193C112.078 156.193 112.213 156.246 112.326 156.352C112.439 156.457 112.496 156.619 112.496 156.838C112.496 157.057 112.439 157.221 112.326 157.33C112.213 157.436 112.078 157.488 111.922 157.488C111.758 157.488 111.621 157.436 111.512 157.33C111.402 157.221 111.348 157.057 111.348 156.838ZM116.539 164.314C116.711 164.314 116.877 164.303 117.037 164.279C117.197 164.252 117.324 164.225 117.418 164.197V164.941C117.312 164.992 117.156 165.033 116.949 165.064C116.746 165.1 116.562 165.117 116.398 165.117C115.156 165.117 114.535 164.463 114.535 163.154V159.334H113.615V158.865L114.535 158.461L114.945 157.09H115.508V158.578H117.371V159.334H115.508V163.113C115.508 163.5 115.6 163.797 115.783 164.004C115.967 164.211 116.219 164.314 116.539 164.314ZM121.42 165.117C120.471 165.117 119.721 164.828 119.17 164.25C118.623 163.672 118.35 162.869 118.35 161.842C118.35 160.807 118.604 159.984 119.111 159.375C119.623 158.766 120.309 158.461 121.168 158.461C121.973 158.461 122.609 158.727 123.078 159.258C123.547 159.785 123.781 160.482 123.781 161.35V161.965H119.357C119.377 162.719 119.566 163.291 119.926 163.682C120.289 164.072 120.799 164.268 121.455 164.268C122.146 164.268 122.83 164.123 123.506 163.834V164.701C123.162 164.85 122.836 164.955 122.527 165.018C122.223 165.084 121.854 165.117 121.42 165.117ZM121.156 159.275C120.641 159.275 120.229 159.443 119.92 159.779C119.615 160.115 119.436 160.58 119.381 161.174H122.738C122.738 160.561 122.602 160.092 122.328 159.768C122.055 159.439 121.664 159.275 121.156 159.275ZM127.484 161.713C127.484 162.74 127.332 163.697 127.027 164.584C126.727 165.471 126.291 166.242 125.721 166.898H124.783C125.326 166.164 125.742 165.35 126.031 164.455C126.32 163.557 126.465 162.639 126.465 161.701C126.465 160.748 126.322 159.82 126.037 158.918C125.756 158.016 125.334 157.188 124.771 156.434H125.721C126.295 157.117 126.732 157.912 127.033 158.818C127.334 159.721 127.484 160.686 127.484 161.713Z" fill="#28232D"/>
<rect x="0.5" y="126.5" width="142" height="52" rx="5.5" stroke="#1F8B4D" stroke-opacity="0.4"/>
<rect x="62" y="61" width="141" height="37" rx="6" fill="#EDFFF5"/>
<rect x="62.5" y="61.5" width="140" height="36" rx="5.5" stroke="#1F8B4D" stroke-opacity="0.4"/>
<rect x="59" y="64" width="141" height="37" rx="6" fill="#EDFFF5"/>
<rect x="59.5" y="64.5" width="140" height="36" rx="5.5" stroke="#1F8B4D" stroke-opacity="0.4"/>
<rect x="56" y="67" width="141" height="37" rx="6" fill="#EDFFF5"/>
<circle cx="72" cy="82.5" r="2.5" fill="#27AE60"/>
<path fill-rule="evenodd" clip-rule="evenodd" d="M70.3818 86.3408C68.9788 86.9622 68 88.3668 68 90V90.0741C68 90.5854 68.4146 91 68.9259 91H75.0741C75.5854 91 76 90.5854 76 90.0741V90C76 88.3668 75.0212 86.9622 73.6182 86.3408C73.1207 86.5507 72.5739 86.6667 72 86.6667C71.4261 86.6667 70.8793 86.5507 70.3818 86.3408Z" fill="#27AE60"/>
<circle cx="78" cy="82.5" r="2" stroke="#27AE60"/>
<mask id="path-31-inside-2" fill="white">
<path fill-rule="evenodd" clip-rule="evenodd" d="M76.3818 86.3408C74.9788 86.9622 74 88.3668 74 90V90.0741C74 90.5854 74.4146 91 74.9259 91H81.0741C81.5854 91 82 90.5854 82 90.0741V90C82 88.3668 81.0212 86.9622 79.6182 86.3408C79.1207 86.5507 78.5739 86.6667 78 86.6667C77.4261 86.6667 76.8793 86.5507 76.3818 86.3408Z"/>
</mask>
<path d="M76.3818 86.3408L76.7705 85.4194L76.3722 85.2514L75.9769 85.4265L76.3818 86.3408ZM79.6182 86.3408L80.0231 85.4265L79.6278 85.2514L79.2295 85.4194L79.6182 86.3408ZM75 90C75 88.7766 75.7324 87.7221 76.7868 87.2552L75.9769 85.4265C74.2253 86.2022 73 87.9569 73 90H75ZM75 90.0741V90H73V90.0741H75ZM74.9259 90C74.9668 90 75 90.0332 75 90.0741H73C73 91.1377 73.8623 92 74.9259 92V90ZM81.0741 90H74.9259V92H81.0741V90ZM81 90.0741C81 90.0332 81.0332 90 81.0741 90V92C82.1377 92 83 91.1377 83 90.0741H81ZM81 90V90.0741H83V90H81ZM79.2132 87.2552C80.2676 87.7221 81 88.7766 81 90H83C83 87.9569 81.7747 86.2022 80.0231 85.4265L79.2132 87.2552ZM79.2295 85.4194C78.8528 85.5783 78.438 85.6667 78 85.6667V87.6667C78.7098 87.6667 79.3885 87.523 80.0068 87.2622L79.2295 85.4194ZM78 85.6667C77.562 85.6667 77.1472 85.5783 76.7705 85.4194L75.9932 87.2622C76.6115 87.523 77.2902 87.6667 78 87.6667V85.6667Z" fill="#27AE60" mask="url(#path-31-inside-2)"/>
<path d="M95.9453 85.5117H98.8574V89.6777C98.4043 89.8223 97.9434 89.9316 97.4746 90.0059C97.0059 90.0801 96.4629 90.1172 95.8457 90.1172C94.5488 90.1172 93.5391 89.7324 92.8164 88.9629C92.0938 88.1895 91.7324 87.1074 91.7324 85.7168C91.7324 84.8262 91.9102 84.0469 92.2656 83.3789C92.625 82.707 93.1406 82.1953 93.8125 81.8438C94.4844 81.4883 95.2715 81.3105 96.1738 81.3105C97.0879 81.3105 97.9395 81.4785 98.7285 81.8145L98.3418 82.6934C97.5684 82.3652 96.8242 82.2012 96.1094 82.2012C95.0664 82.2012 94.252 82.5117 93.666 83.1328C93.0801 83.7539 92.7871 84.6152 92.7871 85.7168C92.7871 86.873 93.0684 87.75 93.6309 88.3477C94.1973 88.9453 95.0273 89.2441 96.1211 89.2441C96.7148 89.2441 97.2949 89.1758 97.8613 89.0391V86.4023H95.9453V85.5117ZM103.703 83.4609C103.988 83.4609 104.244 83.4844 104.471 83.5312L104.336 84.4336C104.07 84.375 103.836 84.3457 103.633 84.3457C103.113 84.3457 102.668 84.5566 102.297 84.9785C101.93 85.4004 101.746 85.9258 101.746 86.5547V90H100.773V83.5781H101.576L101.688 84.7676H101.734C101.973 84.3496 102.26 84.0273 102.596 83.8008C102.932 83.5742 103.301 83.4609 103.703 83.4609ZM111.215 86.7832C111.215 87.8301 110.951 88.6484 110.424 89.2383C109.896 89.8242 109.168 90.1172 108.238 90.1172C107.664 90.1172 107.154 89.9824 106.709 89.7129C106.264 89.4434 105.92 89.0566 105.678 88.5527C105.436 88.0488 105.314 87.459 105.314 86.7832C105.314 85.7363 105.576 84.9219 106.1 84.3398C106.623 83.7539 107.35 83.4609 108.279 83.4609C109.178 83.4609 109.891 83.7598 110.418 84.3574C110.949 84.9551 111.215 85.7637 111.215 86.7832ZM106.322 86.7832C106.322 87.6035 106.486 88.2285 106.814 88.6582C107.143 89.0879 107.625 89.3027 108.262 89.3027C108.898 89.3027 109.381 89.0898 109.709 88.6641C110.041 88.2344 110.207 87.6074 110.207 86.7832C110.207 85.9668 110.041 85.3477 109.709 84.9258C109.381 84.5 108.895 84.2871 108.25 84.2871C107.613 84.2871 107.133 84.4961 106.809 84.9141C106.484 85.332 106.322 85.9551 106.322 86.7832ZM113.84 83.5781V87.7441C113.84 88.2676 113.959 88.6582 114.197 88.916C114.436 89.1738 114.809 89.3027 115.316 89.3027C115.988 89.3027 116.479 89.1191 116.787 88.752C117.1 88.3848 117.256 87.7852 117.256 86.9531V83.5781H118.229V90H117.426L117.285 89.1387H117.232C117.033 89.4551 116.756 89.6973 116.4 89.8652C116.049 90.0332 115.646 90.1172 115.193 90.1172C114.412 90.1172 113.826 89.9316 113.436 89.5605C113.049 89.1895 112.855 88.5957 112.855 87.7793V83.5781H113.84ZM123.285 90.1172C122.867 90.1172 122.484 90.041 122.137 89.8887C121.793 89.7324 121.504 89.4941 121.27 89.1738H121.199C121.246 89.5488 121.27 89.9043 121.27 90.2402V92.8828H120.297V83.5781H121.088L121.223 84.457H121.27C121.52 84.1055 121.811 83.8516 122.143 83.6953C122.475 83.5391 122.855 83.4609 123.285 83.4609C124.137 83.4609 124.793 83.752 125.254 84.334C125.719 84.916 125.951 85.7324 125.951 86.7832C125.951 87.8379 125.715 88.6582 125.242 89.2441C124.773 89.8262 124.121 90.1172 123.285 90.1172ZM123.145 84.2871C122.488 84.2871 122.014 84.4688 121.721 84.832C121.428 85.1953 121.277 85.7734 121.27 86.5664V86.7832C121.27 87.6855 121.42 88.332 121.721 88.7227C122.021 89.1094 122.504 89.3027 123.168 89.3027C123.723 89.3027 124.156 89.0781 124.469 88.6289C124.785 88.1797 124.943 87.5605 124.943 86.7715C124.943 85.9707 124.785 85.3574 124.469 84.9316C124.156 84.502 123.715 84.2871 123.145 84.2871ZM136.305 90L135.238 87.2754H131.805L130.75 90H129.742L133.129 81.3984H133.967L137.336 90H136.305ZM134.928 86.3789L133.932 83.7246C133.803 83.3887 133.67 82.9766 133.533 82.4883C133.447 82.8633 133.324 83.2754 133.164 83.7246L132.156 86.3789H134.928ZM147.016 90L145.949 87.2754H142.516L141.461 90H140.453L143.84 81.3984H144.678L148.047 90H147.016ZM145.639 86.3789L144.643 83.7246C144.514 83.3887 144.381 82.9766 144.244 82.4883C144.158 82.8633 144.035 83.2754 143.875 83.7246L142.867 86.3789H145.639ZM153.449 89.1387H153.396C152.947 89.791 152.275 90.1172 151.381 90.1172C150.541 90.1172 149.887 89.8301 149.418 89.2559C148.953 88.6816 148.721 87.8652 148.721 86.8066C148.721 85.748 148.955 84.9258 149.424 84.3398C149.893 83.7539 150.545 83.4609 151.381 83.4609C152.252 83.4609 152.92 83.7773 153.385 84.4102H153.461L153.42 83.9473L153.396 83.4961V80.8828H154.369V90H153.578L153.449 89.1387ZM151.504 89.3027C152.168 89.3027 152.648 89.123 152.945 88.7637C153.246 88.4004 153.396 87.8164 153.396 87.0117V86.8066C153.396 85.8965 153.244 85.248 152.939 84.8613C152.639 84.4707 152.156 84.2754 151.492 84.2754C150.922 84.2754 150.484 84.498 150.18 84.9434C149.879 85.3848 149.729 86.0098 149.729 86.8184C149.729 87.6387 149.879 88.2578 150.18 88.6758C150.48 89.0938 150.922 89.3027 151.504 89.3027ZM164.623 90V85.8223C164.623 85.3105 164.514 84.9277 164.295 84.6738C164.076 84.416 163.736 84.2871 163.275 84.2871C162.67 84.2871 162.223 84.4609 161.934 84.8086C161.645 85.1562 161.5 85.6914 161.5 86.4141V90H160.527V85.8223C160.527 85.3105 160.418 84.9277 160.199 84.6738C159.98 84.416 159.639 84.2871 159.174 84.2871C158.564 84.2871 158.117 84.4707 157.832 84.8379C157.551 85.2012 157.41 85.7988 157.41 86.6309V90H156.438V83.5781H157.229L157.387 84.457H157.434C157.617 84.1445 157.875 83.9004 158.207 83.7246C158.543 83.5488 158.918 83.4609 159.332 83.4609C160.336 83.4609 160.992 83.8242 161.301 84.5508H161.348C161.539 84.2148 161.816 83.9492 162.18 83.7539C162.543 83.5586 162.957 83.4609 163.422 83.4609C164.148 83.4609 164.691 83.6484 165.051 84.0234C165.414 84.3945 165.596 84.9902 165.596 85.8105V90H164.623ZM168.578 90H167.605V83.5781H168.578V90ZM167.523 81.8379C167.523 81.6152 167.578 81.4531 167.688 81.3516C167.797 81.2461 167.934 81.1934 168.098 81.1934C168.254 81.1934 168.389 81.2461 168.502 81.3516C168.615 81.457 168.672 81.6191 168.672 81.8379C168.672 82.0566 168.615 82.2207 168.502 82.3301C168.389 82.4355 168.254 82.4883 168.098 82.4883C167.934 82.4883 167.797 82.4355 167.688 82.3301C167.578 82.2207 167.523 82.0566 167.523 81.8379ZM175.035 90V85.8457C175.035 85.3223 174.916 84.9316 174.678 84.6738C174.439 84.416 174.066 84.2871 173.559 84.2871C172.887 84.2871 172.395 84.4688 172.082 84.832C171.77 85.1953 171.613 85.7949 171.613 86.6309V90H170.641V83.5781H171.432L171.59 84.457H171.637C171.836 84.1406 172.115 83.8965 172.475 83.7246C172.834 83.5488 173.234 83.4609 173.676 83.4609C174.449 83.4609 175.031 83.6484 175.422 84.0234C175.812 84.3945 176.008 84.9902 176.008 85.8105V90H175.035ZM182.154 88.248C182.154 88.8457 181.932 89.3066 181.486 89.6309C181.041 89.9551 180.416 90.1172 179.611 90.1172C178.76 90.1172 178.096 89.9824 177.619 89.7129V88.8105C177.928 88.9668 178.258 89.0898 178.609 89.1797C178.965 89.2695 179.307 89.3145 179.635 89.3145C180.143 89.3145 180.533 89.2344 180.807 89.0742C181.08 88.9102 181.217 88.6621 181.217 88.3301C181.217 88.0801 181.107 87.8672 180.889 87.6914C180.674 87.5117 180.252 87.3008 179.623 87.0586C179.025 86.8359 178.6 86.6426 178.346 86.4785C178.096 86.3105 177.908 86.1211 177.783 85.9102C177.662 85.6992 177.602 85.4473 177.602 85.1543C177.602 84.6309 177.814 84.2188 178.24 83.918C178.666 83.6133 179.25 83.4609 179.992 83.4609C180.684 83.4609 181.359 83.6016 182.02 83.8828L181.674 84.6738C181.029 84.4082 180.445 84.2754 179.922 84.2754C179.461 84.2754 179.113 84.3477 178.879 84.4922C178.645 84.6367 178.527 84.8359 178.527 85.0898C178.527 85.2617 178.57 85.4082 178.656 85.5293C178.746 85.6504 178.889 85.7656 179.084 85.875C179.279 85.9844 179.654 86.1426 180.209 86.3496C180.971 86.627 181.484 86.9062 181.75 87.1875C182.02 87.4688 182.154 87.8223 182.154 88.248Z" fill="#28232D"/>
<rect x="56.5" y="67.5" width="140" height="36" rx="5.5" stroke="#1F8B4D" stroke-opacity="0.4"/>
<rect x="63.5" y="195.5" width="138" height="36" rx="5.5" fill="white" stroke="#1F8B4D"/>
<rect x="60.5" y="198.5" width="138" height="36" rx="5.5" fill="white" stroke="#1F8B4D"/>
<rect x="57" y="201" width="139" height="37" rx="6" fill="#12783D"/>
<path fill-rule="evenodd" clip-rule="evenodd" d="M74 213.5C74 213.224 74.2239 213 74.5 213C74.7761 213 75 213.224 75 213.5V215H77V213.5C77 213.224 77.2239 213 77.5 213C77.7761 213 78 213.224 78 213.5V215H79C80.1046 215 81 215.895 81 217V218H82.5C82.7761 218 83 218.224 83 218.5C83 218.776 82.7761 219 82.5 219H81V221H82.5C82.7761 221 83 221.224 83 221.5C83 221.776 82.7761 222 82.5 222H81V223C81 224.105 80.1046 225 79 225H78V226.5C78 226.776 77.7761 227 77.5 227C77.2239 227 77 226.776 77 226.5V225H75V226.5C75 226.776 74.7761 227 74.5 227C74.2239 227 74 226.776 74 226.5V225H73C71.8954 225 71 224.105 71 223V222H69.5C69.2239 222 69 221.776 69 221.5C69 221.224 69.2239 221 69.5 221H71V219H69.5C69.2239 219 69 218.776 69 218.5C69 218.224 69.2239 218 69.5 218H71V217C71 215.895 71.8954 215 73 215H74V213.5ZM74 220C74 218.895 74.8954 218 76 218C77.1046 218 78 218.895 78 220C78 221.105 77.1046 222 76 222C74.8954 222 74 221.105 74 220ZM76 219C75.4477 219 75 219.448 75 220C75 220.552 75.4477 221 76 221C76.5523 221 77 220.552 77 220C77 219.448 76.5523 219 76 219Z" fill="white"/>
<path d="M100.098 219.635C100.098 221.049 99.7051 222.131 98.9199 222.881C98.1348 223.627 97.0039 224 95.5273 224H93.1309V215.434H95.7793C97.1426 215.434 98.2031 215.801 98.9609 216.535C99.7188 217.27 100.098 218.303 100.098 219.635ZM98.6211 219.682C98.6211 217.631 97.6621 216.605 95.7441 216.605H94.5312V222.822H95.5273C97.5898 222.822 98.6211 221.775 98.6211 219.682ZM104.627 224.117C103.619 224.117 102.83 223.824 102.26 223.238C101.693 222.648 101.41 221.838 101.41 220.807C101.41 219.748 101.674 218.916 102.201 218.311C102.729 217.705 103.453 217.402 104.375 217.402C105.23 217.402 105.906 217.662 106.402 218.182C106.898 218.701 107.146 219.416 107.146 220.326V221.07H102.828C102.848 221.699 103.018 222.184 103.338 222.523C103.658 222.859 104.109 223.027 104.691 223.027C105.074 223.027 105.43 222.992 105.758 222.922C106.09 222.848 106.445 222.727 106.824 222.559V223.678C106.488 223.838 106.148 223.951 105.805 224.018C105.461 224.084 105.068 224.117 104.627 224.117ZM104.375 218.445C103.938 218.445 103.586 218.584 103.32 218.861C103.059 219.139 102.902 219.543 102.852 220.074H105.793C105.785 219.539 105.656 219.135 105.406 218.861C105.156 218.584 104.812 218.445 104.375 218.445ZM110.188 224L107.727 217.52H109.18L110.498 221.287C110.725 221.92 110.861 222.432 110.908 222.822H110.955C110.99 222.541 111.127 222.029 111.365 221.287L112.684 217.52H114.148L111.676 224H110.188ZM116.51 224H115.133V217.52H116.51V224ZM115.051 215.803C115.051 215.557 115.117 215.367 115.25 215.234C115.387 215.102 115.58 215.035 115.83 215.035C116.072 215.035 116.26 215.102 116.393 215.234C116.529 215.367 116.598 215.557 116.598 215.803C116.598 216.037 116.529 216.223 116.393 216.359C116.26 216.492 116.072 216.559 115.83 216.559C115.58 216.559 115.387 216.492 115.25 216.359C115.117 216.223 115.051 216.037 115.051 215.803ZM121.098 224.117C120.117 224.117 119.371 223.832 118.859 223.262C118.352 222.688 118.098 221.865 118.098 220.795C118.098 219.705 118.363 218.867 118.895 218.281C119.43 217.695 120.201 217.402 121.209 217.402C121.893 217.402 122.508 217.529 123.055 217.783L122.639 218.891C122.057 218.664 121.576 218.551 121.197 218.551C120.076 218.551 119.516 219.295 119.516 220.783C119.516 221.51 119.654 222.057 119.932 222.424C120.213 222.787 120.623 222.969 121.162 222.969C121.775 222.969 122.355 222.816 122.902 222.512V223.713C122.656 223.857 122.393 223.961 122.111 224.023C121.834 224.086 121.496 224.117 121.098 224.117ZM127.256 224.117C126.248 224.117 125.459 223.824 124.889 223.238C124.322 222.648 124.039 221.838 124.039 220.807C124.039 219.748 124.303 218.916 124.83 218.311C125.357 217.705 126.082 217.402 127.004 217.402C127.859 217.402 128.535 217.662 129.031 218.182C129.527 218.701 129.775 219.416 129.775 220.326V221.07H125.457C125.477 221.699 125.646 222.184 125.967 222.523C126.287 222.859 126.738 223.027 127.32 223.027C127.703 223.027 128.059 222.992 128.387 222.922C128.719 222.848 129.074 222.727 129.453 222.559V223.678C129.117 223.838 128.777 223.951 128.434 224.018C128.09 224.084 127.697 224.117 127.256 224.117ZM127.004 218.445C126.566 218.445 126.215 218.584 125.949 218.861C125.688 219.139 125.531 219.543 125.48 220.074H128.422C128.414 219.539 128.285 219.135 128.035 218.861C127.785 218.584 127.441 218.445 127.004 218.445ZM138.107 219.354H141.26V223.654C140.744 223.822 140.248 223.941 139.771 224.012C139.299 224.082 138.787 224.117 138.236 224.117C136.939 224.117 135.939 223.734 135.236 222.969C134.533 222.199 134.182 221.115 134.182 219.717C134.182 218.338 134.578 217.26 135.371 216.482C136.164 215.701 137.256 215.311 138.646 215.311C139.541 215.311 140.389 215.482 141.189 215.826L140.697 216.992C140.002 216.672 139.307 216.512 138.611 216.512C137.697 216.512 136.975 216.799 136.443 217.373C135.912 217.947 135.646 218.732 135.646 219.729C135.646 220.775 135.885 221.572 136.361 222.119C136.842 222.662 137.531 222.934 138.43 222.934C138.883 222.934 139.367 222.877 139.883 222.764V220.555H138.107V219.354ZM146.463 217.402C146.74 217.402 146.969 217.422 147.148 217.461L147.014 218.744C146.818 218.697 146.615 218.674 146.404 218.674C145.854 218.674 145.406 218.854 145.062 219.213C144.723 219.572 144.553 220.039 144.553 220.613V224H143.176V217.52H144.254L144.436 218.662H144.506C144.721 218.275 145 217.969 145.344 217.742C145.691 217.516 146.064 217.402 146.463 217.402ZM154.104 220.748C154.104 221.807 153.832 222.633 153.289 223.227C152.746 223.82 151.99 224.117 151.021 224.117C150.416 224.117 149.881 223.98 149.416 223.707C148.951 223.434 148.594 223.041 148.344 222.529C148.094 222.018 147.969 221.424 147.969 220.748C147.969 219.697 148.238 218.877 148.777 218.287C149.316 217.697 150.076 217.402 151.057 217.402C151.994 217.402 152.736 217.705 153.283 218.311C153.83 218.912 154.104 219.725 154.104 220.748ZM149.387 220.748C149.387 222.244 149.939 222.992 151.045 222.992C152.139 222.992 152.686 222.244 152.686 220.748C152.686 219.268 152.135 218.527 151.033 218.527C150.455 218.527 150.035 218.719 149.773 219.102C149.516 219.484 149.387 220.033 149.387 220.748ZM160.262 224L160.068 223.15H159.998C159.807 223.451 159.533 223.688 159.178 223.859C158.826 224.031 158.424 224.117 157.971 224.117C157.186 224.117 156.6 223.922 156.213 223.531C155.826 223.141 155.633 222.549 155.633 221.756V217.52H157.021V221.516C157.021 222.012 157.123 222.385 157.326 222.635C157.529 222.881 157.848 223.004 158.281 223.004C158.859 223.004 159.283 222.832 159.553 222.488C159.826 222.141 159.963 221.561 159.963 220.748V217.52H161.346V224H160.262ZM166.596 224.117C165.775 224.117 165.139 223.822 164.686 223.232H164.604C164.658 223.779 164.686 224.111 164.686 224.229V226.883H163.309V217.52H164.422C164.453 217.641 164.518 217.93 164.615 218.387H164.686C165.115 217.73 165.76 217.402 166.619 217.402C167.428 217.402 168.057 217.695 168.506 218.281C168.959 218.867 169.186 219.689 169.186 220.748C169.186 221.807 168.955 222.633 168.494 223.227C168.037 223.82 167.404 224.117 166.596 224.117ZM166.262 218.527C165.715 218.527 165.314 218.688 165.061 219.008C164.811 219.328 164.686 219.84 164.686 220.543V220.748C164.686 221.537 164.811 222.109 165.061 222.465C165.311 222.816 165.719 222.992 166.285 222.992C166.762 222.992 167.129 222.797 167.387 222.406C167.645 222.016 167.773 221.459 167.773 220.736C167.773 220.01 167.645 219.461 167.387 219.09C167.133 218.715 166.758 218.527 166.262 218.527ZM179.363 224L178.508 221.621H175.232L174.395 224H172.918L176.123 215.398H177.646L180.852 224H179.363ZM178.139 220.414L177.336 218.082C177.277 217.926 177.195 217.68 177.09 217.344C176.988 217.008 176.918 216.762 176.879 216.605C176.773 217.086 176.619 217.611 176.416 218.182L175.643 220.414H178.139Z" fill="white"/>
<rect x="223.5" y="195.5" width="138" height="36" rx="5.5" fill="white" stroke="#1F8B4D"/>
<rect x="220.5" y="198.5" width="138" height="36" rx="5.5" fill="white" stroke="#1F8B4D"/>
<rect x="217" y="201" width="139" height="37" rx="6" fill="#12783D"/>
<path fill-rule="evenodd" clip-rule="evenodd" d="M234 213.5C234 213.224 234.224 213 234.5 213C234.776 213 235 213.224 235 213.5V215H237V213.5C237 213.224 237.224 213 237.5 213C237.776 213 238 213.224 238 213.5V215H239C240.105 215 241 215.895 241 217V218H242.5C242.776 218 243 218.224 243 218.5C243 218.776 242.776 219 242.5 219H241V221H242.5C242.776 221 243 221.224 243 221.5C243 221.776 242.776 222 242.5 222H241V223C241 224.105 240.105 225 239 225H238V226.5C238 226.776 237.776 227 237.5 227C237.224 227 237 226.776 237 226.5V225H235V226.5C235 226.776 234.776 227 234.5 227C234.224 227 234 226.776 234 226.5V225H233C231.895 225 231 224.105 231 223V222H229.5C229.224 222 229 221.776 229 221.5C229 221.224 229.224 221 229.5 221H231V219H229.5C229.224 219 229 218.776 229 218.5C229 218.224 229.224 218 229.5 218H231V217C231 215.895 231.895 215 233 215H234V213.5ZM234 220C234 218.895 234.895 218 236 218C237.105 218 238 218.895 238 220C238 221.105 237.105 222 236 222C234.895 222 234 221.105 234 220ZM236 219C235.448 219 235 219.448 235 220C235 220.552 235.448 221 236 221C236.552 221 237 220.552 237 220C237 219.448 236.552 219 236 219Z" fill="white"/>
<path d="M260.098 219.635C260.098 221.049 259.705 222.131 258.92 222.881C258.135 223.627 257.004 224 255.527 224H253.131V215.434H255.779C257.143 215.434 258.203 215.801 258.961 216.535C259.719 217.27 260.098 218.303 260.098 219.635ZM258.621 219.682C258.621 217.631 257.662 216.605 255.744 216.605H254.531V222.822H255.527C257.59 222.822 258.621 221.775 258.621 219.682ZM264.627 224.117C263.619 224.117 262.83 223.824 262.26 223.238C261.693 222.648 261.41 221.838 261.41 220.807C261.41 219.748 261.674 218.916 262.201 218.311C262.729 217.705 263.453 217.402 264.375 217.402C265.23 217.402 265.906 217.662 266.402 218.182C266.898 218.701 267.146 219.416 267.146 220.326V221.07H262.828C262.848 221.699 263.018 222.184 263.338 222.523C263.658 222.859 264.109 223.027 264.691 223.027C265.074 223.027 265.43 222.992 265.758 222.922C266.09 222.848 266.445 222.727 266.824 222.559V223.678C266.488 223.838 266.148 223.951 265.805 224.018C265.461 224.084 265.068 224.117 264.627 224.117ZM264.375 218.445C263.938 218.445 263.586 218.584 263.32 218.861C263.059 219.139 262.902 219.543 262.852 220.074H265.793C265.785 219.539 265.656 219.135 265.406 218.861C265.156 218.584 264.812 218.445 264.375 218.445ZM270.188 224L267.727 217.52H269.18L270.498 221.287C270.725 221.92 270.861 222.432 270.908 222.822H270.955C270.99 222.541 271.127 222.029 271.365 221.287L272.684 217.52H274.148L271.676 224H270.188ZM276.51 224H275.133V217.52H276.51V224ZM275.051 215.803C275.051 215.557 275.117 215.367 275.25 215.234C275.387 215.102 275.58 215.035 275.83 215.035C276.072 215.035 276.26 215.102 276.393 215.234C276.529 215.367 276.598 215.557 276.598 215.803C276.598 216.037 276.529 216.223 276.393 216.359C276.26 216.492 276.072 216.559 275.83 216.559C275.58 216.559 275.387 216.492 275.25 216.359C275.117 216.223 275.051 216.037 275.051 215.803ZM281.098 224.117C280.117 224.117 279.371 223.832 278.859 223.262C278.352 222.688 278.098 221.865 278.098 220.795C278.098 219.705 278.363 218.867 278.895 218.281C279.43 217.695 280.201 217.402 281.209 217.402C281.893 217.402 282.508 217.529 283.055 217.783L282.639 218.891C282.057 218.664 281.576 218.551 281.197 218.551C280.076 218.551 279.516 219.295 279.516 220.783C279.516 221.51 279.654 222.057 279.932 222.424C280.213 222.787 280.623 222.969 281.162 222.969C281.775 222.969 282.355 222.816 282.902 222.512V223.713C282.656 223.857 282.393 223.961 282.111 224.023C281.834 224.086 281.496 224.117 281.098 224.117ZM287.256 224.117C286.248 224.117 285.459 223.824 284.889 223.238C284.322 222.648 284.039 221.838 284.039 220.807C284.039 219.748 284.303 218.916 284.83 218.311C285.357 217.705 286.082 217.402 287.004 217.402C287.859 217.402 288.535 217.662 289.031 218.182C289.527 218.701 289.775 219.416 289.775 220.326V221.07H285.457C285.477 221.699 285.646 222.184 285.967 222.523C286.287 222.859 286.738 223.027 287.32 223.027C287.703 223.027 288.059 222.992 288.387 222.922C288.719 222.848 289.074 222.727 289.453 222.559V223.678C289.117 223.838 288.777 223.951 288.434 224.018C288.09 224.084 287.697 224.117 287.256 224.117ZM287.004 218.445C286.566 218.445 286.215 218.584 285.949 218.861C285.688 219.139 285.531 219.543 285.48 220.074H288.422C288.414 219.539 288.285 219.135 288.035 218.861C287.785 218.584 287.441 218.445 287.004 218.445ZM298.107 219.354H301.26V223.654C300.744 223.822 300.248 223.941 299.771 224.012C299.299 224.082 298.787 224.117 298.236 224.117C296.939 224.117 295.939 223.734 295.236 222.969C294.533 222.199 294.182 221.115 294.182 219.717C294.182 218.338 294.578 217.26 295.371 216.482C296.164 215.701 297.256 215.311 298.646 215.311C299.541 215.311 300.389 215.482 301.189 215.826L300.697 216.992C300.002 216.672 299.307 216.512 298.611 216.512C297.697 216.512 296.975 216.799 296.443 217.373C295.912 217.947 295.646 218.732 295.646 219.729C295.646 220.775 295.885 221.572 296.361 222.119C296.842 222.662 297.531 222.934 298.43 222.934C298.883 222.934 299.367 222.877 299.883 222.764V220.555H298.107V219.354ZM306.463 217.402C306.74 217.402 306.969 217.422 307.148 217.461L307.014 218.744C306.818 218.697 306.615 218.674 306.404 218.674C305.854 218.674 305.406 218.854 305.062 219.213C304.723 219.572 304.553 220.039 304.553 220.613V224H303.176V217.52H304.254L304.436 218.662H304.506C304.721 218.275 305 217.969 305.344 217.742C305.691 217.516 306.064 217.402 306.463 217.402ZM314.104 220.748C314.104 221.807 313.832 222.633 313.289 223.227C312.746 223.82 311.99 224.117 311.021 224.117C310.416 224.117 309.881 223.98 309.416 223.707C308.951 223.434 308.594 223.041 308.344 222.529C308.094 222.018 307.969 221.424 307.969 220.748C307.969 219.697 308.238 218.877 308.777 218.287C309.316 217.697 310.076 217.402 311.057 217.402C311.994 217.402 312.736 217.705 313.283 218.311C313.83 218.912 314.104 219.725 314.104 220.748ZM309.387 220.748C309.387 222.244 309.939 222.992 311.045 222.992C312.139 222.992 312.686 222.244 312.686 220.748C312.686 219.268 312.135 218.527 311.033 218.527C310.455 218.527 310.035 218.719 309.773 219.102C309.516 219.484 309.387 220.033 309.387 220.748ZM320.262 224L320.068 223.15H319.998C319.807 223.451 319.533 223.688 319.178 223.859C318.826 224.031 318.424 224.117 317.971 224.117C317.186 224.117 316.6 223.922 316.213 223.531C315.826 223.141 315.633 222.549 315.633 221.756V217.52H317.021V221.516C317.021 222.012 317.123 222.385 317.326 222.635C317.529 222.881 317.848 223.004 318.281 223.004C318.859 223.004 319.283 222.832 319.553 222.488C319.826 222.141 319.963 221.561 319.963 220.748V217.52H321.346V224H320.262ZM326.596 224.117C325.775 224.117 325.139 223.822 324.686 223.232H324.604C324.658 223.779 324.686 224.111 324.686 224.229V226.883H323.309V217.52H324.422C324.453 217.641 324.518 217.93 324.615 218.387H324.686C325.115 217.73 325.76 217.402 326.619 217.402C327.428 217.402 328.057 217.695 328.506 218.281C328.959 218.867 329.186 219.689 329.186 220.748C329.186 221.807 328.955 222.633 328.494 223.227C328.037 223.82 327.404 224.117 326.596 224.117ZM326.262 218.527C325.715 218.527 325.314 218.688 325.061 219.008C324.811 219.328 324.686 219.84 324.686 220.543V220.748C324.686 221.537 324.811 222.109 325.061 222.465C325.311 222.816 325.719 222.992 326.285 222.992C326.762 222.992 327.129 222.797 327.387 222.406C327.645 222.016 327.773 221.459 327.773 220.736C327.773 220.01 327.645 219.461 327.387 219.09C327.133 218.715 326.758 218.527 326.262 218.527ZM334.049 215.434H336.592C337.771 215.434 338.623 215.605 339.146 215.949C339.674 216.293 339.938 216.836 339.938 217.578C339.938 218.078 339.809 218.494 339.551 218.826C339.293 219.158 338.922 219.367 338.438 219.453V219.512C339.039 219.625 339.48 219.85 339.762 220.186C340.047 220.518 340.189 220.969 340.189 221.539C340.189 222.309 339.92 222.912 339.381 223.35C338.846 223.783 338.1 224 337.143 224H334.049V215.434ZM335.449 218.973H336.797C337.383 218.973 337.811 218.881 338.08 218.697C338.35 218.51 338.484 218.193 338.484 217.748C338.484 217.346 338.338 217.055 338.045 216.875C337.756 216.695 337.295 216.605 336.662 216.605H335.449V218.973ZM335.449 220.109V222.822H336.938C337.523 222.822 337.965 222.711 338.262 222.488C338.562 222.262 338.713 221.906 338.713 221.422C338.713 220.977 338.561 220.646 338.256 220.432C337.951 220.217 337.488 220.109 336.867 220.109H335.449Z" fill="white"/>
<rect x="162" width="91" height="37" rx="6" fill="#27AE60"/>
<path fill-rule="evenodd" clip-rule="evenodd" d="M188.001 16C188.001 18.2091 186.21 20 184.001 20C183.692 20 183.391 19.965 183.102 19.8987L177.587 25.4142C177.212 25.7893 176.703 26 176.172 26H175.208C174.763 26 174.539 25.4614 174.854 25.1464L176.001 24V23C176.001 22.4477 176.449 22 177.001 22H178.001V20C178.001 19.4477 178.449 19 179.001 19H180.001L180.717 18.2841C180.266 17.6365 180.001 16.8492 180.001 16C180.001 13.7909 181.792 12 184.001 12C186.21 12 188.001 13.7909 188.001 16ZM186.001 15C186.001 15.5523 185.553 16 185.001 16C184.449 16 184.001 15.5523 184.001 15C184.001 14.4477 184.449 14 185.001 14C185.553 14 186.001 14.4477 186.001 15Z" fill="white"/>
<path d="M201.09 23H199.689V15.6348H197.17V14.4336H203.609V15.6348H201.09V23ZM207.611 23.1172C206.604 23.1172 205.814 22.8242 205.244 22.2383C204.678 21.6484 204.395 20.8379 204.395 19.8066C204.395 18.748 204.658 17.916 205.186 17.3105C205.713 16.7051 206.438 16.4023 207.359 16.4023C208.215 16.4023 208.891 16.6621 209.387 17.1816C209.883 17.7012 210.131 18.416 210.131 19.3262V20.0703H205.812C205.832 20.6992 206.002 21.1836 206.322 21.5234C206.643 21.8594 207.094 22.0273 207.676 22.0273C208.059 22.0273 208.414 21.9922 208.742 21.9219C209.074 21.8477 209.43 21.7266 209.809 21.5586V22.6777C209.473 22.8379 209.133 22.9512 208.789 23.0176C208.445 23.084 208.053 23.1172 207.611 23.1172ZM207.359 17.4453C206.922 17.4453 206.57 17.584 206.305 17.8613C206.043 18.1387 205.887 18.543 205.836 19.0742H208.777C208.77 18.5391 208.641 18.1348 208.391 17.8613C208.141 17.584 207.797 17.4453 207.359 17.4453ZM217.396 23H216.014V19.0156C216.014 18.5156 215.912 18.1426 215.709 17.8965C215.51 17.6504 215.191 17.5273 214.754 17.5273C214.172 17.5273 213.746 17.6992 213.477 18.043C213.207 18.3867 213.072 18.9629 213.072 19.7715V23H211.695V16.5195H212.773L212.967 17.3691H213.037C213.232 17.0605 213.51 16.8223 213.869 16.6543C214.229 16.4863 214.627 16.4023 215.064 16.4023C216.619 16.4023 217.396 17.1934 217.396 18.7754V23ZM223.367 23L223.092 22.0977H223.045C222.732 22.4922 222.418 22.7617 222.102 22.9062C221.785 23.0469 221.379 23.1172 220.883 23.1172C220.246 23.1172 219.748 22.9453 219.389 22.6016C219.033 22.2578 218.855 21.7715 218.855 21.1426C218.855 20.4746 219.104 19.9707 219.6 19.6309C220.096 19.291 220.852 19.1055 221.867 19.0742L222.986 19.0391V18.6934C222.986 18.2793 222.889 17.9707 222.693 17.7676C222.502 17.5605 222.203 17.457 221.797 17.457C221.465 17.457 221.146 17.5059 220.842 17.6035C220.537 17.7012 220.244 17.8164 219.963 17.9492L219.518 16.9648C219.869 16.7812 220.254 16.6426 220.672 16.5488C221.09 16.4512 221.484 16.4023 221.855 16.4023C222.68 16.4023 223.301 16.582 223.719 16.9414C224.141 17.3008 224.352 17.8652 224.352 18.6348V23H223.367ZM221.316 22.0625C221.816 22.0625 222.217 21.9238 222.518 21.6465C222.822 21.3652 222.975 20.9727 222.975 20.4688V19.9062L222.143 19.9414C221.494 19.9648 221.021 20.0742 220.725 20.2695C220.432 20.4609 220.285 20.7559 220.285 21.1543C220.285 21.4434 220.371 21.668 220.543 21.8281C220.715 21.9844 220.973 22.0625 221.316 22.0625ZM231.975 23H230.592V19.0156C230.592 18.5156 230.49 18.1426 230.287 17.8965C230.088 17.6504 229.77 17.5273 229.332 17.5273C228.75 17.5273 228.324 17.6992 228.055 18.043C227.785 18.3867 227.65 18.9629 227.65 19.7715V23H226.273V16.5195H227.352L227.545 17.3691H227.615C227.811 17.0605 228.088 16.8223 228.447 16.6543C228.807 16.4863 229.205 16.4023 229.643 16.4023C231.197 16.4023 231.975 17.1934 231.975 18.7754V23ZM236.305 22.0039C236.641 22.0039 236.977 21.9512 237.312 21.8457V22.8828C237.16 22.9492 236.963 23.0039 236.721 23.0469C236.482 23.0938 236.234 23.1172 235.977 23.1172C234.672 23.1172 234.02 22.4297 234.02 21.0547V17.5625H233.135V16.9531L234.084 16.4492L234.553 15.0781H235.402V16.5195H237.248V17.5625H235.402V21.0312C235.402 21.3633 235.484 21.6094 235.648 21.7695C235.816 21.9258 236.035 22.0039 236.305 22.0039Z" fill="white"/>
<path fill-rule="evenodd" clip-rule="evenodd" d="M247 194L247 107H246L246 194H247Z" fill="#28232D"/>
<path d="M247.319 197.83C246.921 198.398 246.079 198.398 245.681 197.83L244.101 195.573C243.637 194.911 244.112 194 244.921 194L248.079 194C248.888 194 249.363 194.911 248.899 195.573L247.319 197.83Z" fill="#28232D"/>
<path fill-rule="evenodd" clip-rule="evenodd" d="M167 194L167 107H166L166 194H167Z" fill="#28232D"/>
<path d="M167.319 197.83C166.921 198.398 166.079 198.398 165.681 197.83L164.101 195.573C163.637 194.911 164.112 194 164.921 194L168.079 194C168.888 194 169.363 194.911 168.899 195.573L167.319 197.83Z" fill="#28232D"/>
<path d="M285.681 63.8297C286.079 64.3984 286.921 64.3984 287.319 63.8297L288.899 61.5735C289.363 60.9107 288.888 60 288.079 60L284.921 60C284.112 60 283.637 60.9107 284.101 61.5735L285.681 63.8297Z" fill="#28232D"/>
<path fill-rule="evenodd" clip-rule="evenodd" d="M287 57.5002L287 60L286 60L286 57.5001C286.001 54.4625 283.538 52 280.5 52L217.5 52C213.91 52 211 49.0899 211 45.5001L211 40L212 40L212 45.5001C212 48.5376 214.463 51 217.5 51L280.5 51C284.09 51 287.001 53.9102 287 57.5002Z" fill="#28232D"/>
<path d="M378.681 122.83C379.079 123.398 379.921 123.398 380.319 122.83L381.899 120.573C382.363 119.911 381.888 119 381.079 119L377.921 119C377.112 119 376.637 119.911 377.101 120.573L378.681 122.83Z" fill="#28232D"/>
<path fill-rule="evenodd" clip-rule="evenodd" d="M374.401 113.4C377.493 113.4 380.001 115.907 380 119L379 119C379.001 116.459 376.941 114.4 374.401 114.4L292.5 114.4C288.91 114.4 286 111.49 286 107.9L286 107L287 107L287 107.9C287 110.938 289.463 113.4 292.5 113.4L374.401 113.4Z" fill="#28232D"/>
<path d="M72.3192 122.83C71.9211 123.398 71.0789 123.398 70.6808 122.83L69.1014 120.573C68.6375 119.911 69.1116 119 69.9207 119L73.0793 119C73.8884 119 74.3625 119.911 73.8986 120.573L72.3192 122.83Z" fill="#28232D"/>
<path fill-rule="evenodd" clip-rule="evenodd" d="M76.5994 113.4C73.5066 113.4 70.9994 115.907 70.9995 119L71.9995 119C71.9994 116.459 74.0589 114.4 76.5994 114.4L120.5 114.4C124.09 114.4 127 111.49 127 107.9L127 107L126 107L126 107.9C126 110.938 123.537 113.4 120.5 113.4L76.5994 113.4Z" fill="#28232D"/>
<path d="M127.319 63.8297C126.921 64.3984 126.079 64.3984 125.681 63.8297L124.101 61.5735C123.637 60.9107 124.112 60 124.921 60L128.079 60C128.888 60 129.363 60.9107 128.899 61.5735L127.319 63.8297Z" fill="#28232D"/>
<path fill-rule="evenodd" clip-rule="evenodd" d="M126 57.5002L126 60L127 60L127 57.5001C126.999 54.4625 129.462 52 132.5 52L197.5 52C201.09 52 204 49.0899 204 45.5001L204 40L203 40L203 45.5001C203 48.5376 200.537 51 197.5 51L132.5 51C128.91 51 125.999 53.9102 126 57.5002Z" fill="#28232D"/>
<path d="M176.319 197.83C175.921 198.398 175.079 198.398 174.681 197.83L173.101 195.573C172.637 194.911 173.112 194 173.921 194L177.079 194C177.888 194 178.363 194.911 177.899 195.573L176.319 197.83Z" fill="#28232D"/>
<path fill-rule="evenodd" clip-rule="evenodd" d="M174.999 162.5L175 194L176 194L175.999 162.5C175.999 159.462 178.462 157 181.499 157L232.5 157C236.09 157 239 154.09 239 150.5L239 107L238 107L238 150.5C238 153.538 235.537 156 232.5 156L181.499 156C177.909 156 174.999 158.91 174.999 162.5Z" fill="#28232D"/>
</svg>
