<svg xmlns="http://www.w3.org/2000/svg" height="97.473mm" width="104.62mm" version="1.1" viewBox="0 0 370.70015 345.37571">
 <g transform="translate(-178.05 -352.7)">
  <g transform="translate(-1.213 2.5116)">
   <path d="m179.15 399.14c-34.059 0-61.664 27.666-61.664 61.725s27.605 61.723 61.664 61.723c34.12 0 61.785-27.663 61.785-61.723s-27.665-61.725-61.785-61.725zm0.0586 13.629c26.577 0 48.096 21.519 48.096 48.096s-21.519 48.096-48.096 48.096c-26.576 0-48.096-21.519-48.096-48.096s21.519-48.096 48.096-48.096z" transform="matrix(2.7728 0 0 2.7728 -132.32 -755.02)" stroke-width="6.1011" fill="#305680"/>
   <path d="m347.69 429.82a8.4712 8.4712 0 0 0 -8.4707 8.4707v101.5a8.4712 8.4712 0 0 0 4.1133 7.2637l88.814 53.289a8.4712 8.4712 0 0 0 11.59 -2.8535l12.688-20.809a8.4712 8.4712 0 0 0 -2.9102 -11.695l-71.97-42.7v-83.99a8.4712 8.4712 0 0 0 -8.4707 -8.4707z" stroke-width="16.917" fill="#237de0"/>
  </g>
 </g>
</svg>
