<svg xmlns="http://www.w3.org/2000/svg" height="58.881mm" width="89.017mm" version="1.1" xmlns:xlink="http://www.w3.org/1999/xlink" viewBox="0 0 315.41331 208.63409">
 <g transform="translate(-21.508 -356.55)">
  <path d="m179.15 402.64c-32.171 0-58.166 26.052-58.166 58.227 0 32.174 25.995 58.225 58.166 58.225 32.235 0 58.287-26.054 58.287-58.225s-26.052-58.227-58.287-58.227zm0.0586 6.6328c28.471 0 51.594 23.123 51.594 51.594s-23.123 51.594-51.594 51.594-51.594-23.123-51.594-51.594 23.123-51.594 51.594-51.594z" stroke-width="6.1011" fill="#305680"/>
  <path d="m182.27 430.36h-9.1517v36.606l32.031 19.218 4.5758-7.5043-27.455-16.29z" stroke-width="6.1011" fill="#237de0"/>
  <g stroke-width=".14122" transform="translate(-7.5 .93750)">
   <path d="m78.27 479.89c-2.0704 0-3.8587 1.5344-4.1641 3.5781-0.20359 1.3602-0.39962 2.7598-0.58203 4.1582-0.002 0.0153-0.0015 0.004 0.01172 0-2.367 0.65262-4.6503 1.5986-6.7871 2.8125 0.01148-0.007 0.01272-0.001 0.0039-0.008-1.1179-0.86007-2.2433-1.709-3.3496-2.5273-1.6618-1.229-4.0109-1.0497-5.4746 0.41406l-4.5703 4.5703c-1.464 1.4641-1.6433 3.8133-0.41406 5.4746 0.82131 1.1103 1.6704 2.2357 2.5273 3.3496 0.0039 0.005 0.003 0.003 0.0078-0.006-1.2144 2.1379-2.1603 4.4226-2.8125 6.7891 0.004-0.0144 0.01447-0.0136 0-0.0117-1.3953 0.18213-2.7933 0.37803-4.1562 0.58203-2.044 0.30548-3.5801 2.0936-3.5801 4.1641v6.4629c0 2.0703 1.5342 3.8603 3.5781 4.166 1.3634 0.20406 2.7633 0.39815 4.1582 0.58008 0.01519 0.002 0.0037 0.002 0-0.0117 0.65221 2.3666 1.5983 4.6514 2.8125 6.7891-0.0048-0.008-0.0039-0.011-0.0078-0.006-0.85921 1.1168-1.7083 2.2441-2.5273 3.3516-1.2288 1.6611-1.0519 4.0086 0.41211 5.4727l4.5723 4.5723c1.4643 1.4641 3.8135 1.6414 5.4746 0.4121 1.1062-0.81821 2.2316-1.6673 3.3496-2.5273 0.0049-0.004 0.0026-0.003-0.0059-0.008 2.1372 1.2141 4.4218 2.1599 6.7891 2.8125-0.01336-0.004-0.0136-0.0144-0.01172 0 0.18241 1.3982 0.3786 2.7966 0.58203 4.1562 0.30563 2.0438 2.0934 3.5801 4.1641 3.5801h6.4629c2.0705 0 3.8586-1.536 4.1641-3.5801 0.20357-1.3613 0.39976-2.7596 0.58203-4.1562 0.002-0.0151 0.0012-0.004-0.01172 0 2.3662-0.6524 4.6489-1.5972 6.7852-2.8106-0.0047 0.001-0.0085 0.00087-0.002 0.006 1.1178 0.86006 2.2434 1.7091 3.3496 2.5273 1.6614 1.229 4.0105 1.0499 5.4746-0.41406l4.5703-4.5703c1.4638-1.464 1.6431-3.813 0.41406-5.4746-0.81986-1.1079-1.669-2.2355-2.5273-3.3516-0.004-0.005-0.003-0.003-0.008 0.006 1.2142-2.1376 2.1603-4.4206 2.8125-6.7871-0.003 0.0114-0.0122 0.0114 0 0.01 1.3954-0.18193 2.7954-0.37615 4.1582-0.58007 2.0438-0.30549 3.5781-2.0938 3.5781-4.1641v-6.4648c0-2.0699-1.5344-3.8586-3.5781-4.1641-1.3627-0.20407-2.7626-0.39814-4.1582-0.58008-0.0136-0.002-0.004-0.002 0 0.0117-0.65221-2.3669-1.5984-4.6516-2.8125-6.7891 0.006 0.01-0.00004 0.018 0.008 0.008 0.85853-1.1158 1.7075-2.2452 2.5273-3.3535 1.2286-1.6611 1.0518-4.0086-0.41211-5.4726l-4.5723-4.5723c-1.4641-1.464-3.8131-1.6411-5.4746-0.41211-1.1062 0.81821-2.2316 1.6673-3.3496 2.5273a0.41801 0.41801 0 0 0 -0.002 0.002c-0.009 0.007-0.0022 0.00016 0.0078 0.006-2.1373-1.2141-4.4221-2.1602-6.7891-2.8125 0.01363 0.004 0.01366 0.0149 0.01172 0-0.18236-1.3978-0.37659-2.7961-0.58008-4.1562-0.30582-2.044-2.0954-3.5801-4.166-3.5801zm0 4.2129h6.4629c0.1992 1.331 0.39174 2.6997 0.57031 4.0684 0.21945 1.6828 1.4159 3.0666 3.0449 3.5156 2.0314 0.55995 3.9913 1.372 5.8262 2.4141 1.4701 0.83461 3.2973 0.70614 4.6426-0.32813 1.0949-0.84223 2.2006-1.6755 3.2832-2.4766l4.5684 4.5684c-0.8024 1.0849-1.6357 2.1882-2.4766 3.2812-1.0349 1.3456-1.1657 3.1734-0.33008 4.6445 1.0423 1.8349 1.8561 3.795 2.416 5.8262 0.44896 1.6288 1.8313 2.8256 3.5137 3.0449 1.3665 0.17834 2.7351 0.36908 4.0684 0.56836v6.4629c-1.3334 0.19949-2.7022 0.39188-4.0684 0.57032-1.6827 0.2193-3.0665 1.4157-3.5156 3.0449-0.5598 2.031-1.372 3.9914-2.4141 5.8262-0.83552 1.471-0.70488 3.2973 0.33008 4.6426 0.84037 1.0924 1.6743 2.1968 2.4766 3.2812l-4.5703 4.5703c-1.082-0.80064-2.1854-1.635-3.2793-2.4766h-0.002c-1.3451-1.0342-3.1722-1.1652-4.6426-0.33008-1.8349 1.0422-3.7951 1.8561-5.8262 2.416-1.6286 0.4489-2.8271 1.8305-3.0469 3.5137-0.17819 1.3673-0.36907 2.7361-0.56836 4.0684h-6.4629c-0.19888-1.3308-0.38989-2.6998-0.56836-4.0684-0.2195-1.6832-1.4183-3.0648-3.0469-3.5137-2.0313-0.55989-3.9914-1.3737-5.8262-2.416-0.64514-0.3662-1.3597-0.54688-2.0703-0.54688-0.91012 0-1.8187 0.2952-2.5742 0.87696-1.0945 0.84191-2.1989 1.6757-3.2812 2.4766l-4.5684-4.5703c0.80174-1.0837 1.6355-2.188 2.4766-3.2812 1.0348-1.3453 1.1653-3.1717 0.33008-4.6426-1.0425-1.8353-1.8543-3.7952-2.4141-5.8262-0.44902-1.629-1.8329-2.8255-3.5156-3.0449-1.3655-0.17815-2.7341-0.37096-4.0684-0.57032v-6.4609c1.3342-0.19949 2.7029-0.39217 4.0684-0.57032 1.6829-0.21929 3.0666-1.4158 3.5156-3.0449 0.55951-2.0308 1.3716-3.9909 2.4141-5.8262 0.83538-1.471 0.70478-3.2975-0.33008-4.6426-0.83918-1.0912-1.6724-2.1964-2.4766-3.2832l4.5684-4.5684c1.0827 0.80104 2.1883 1.6342 3.2832 2.4766 1.3455 1.0348 3.1717 1.1635 4.6426 0.32813 1.8344-1.042 3.7948-1.8541 5.8262-2.4141 1.629-0.44898 2.8274-1.8324 3.0469-3.5156 0.17863-1.3687 0.36922-2.7373 0.56836-4.0684z" fill="#305680"/>
   <path d="m81.502 499.41c-9.3878 0-17.047 7.6591-17.047 17.047 0 9.3878 7.6593 17.045 17.047 17.045 9.3876 0 17.045-7.6574 17.045-17.045s-7.6571-17.047-17.045-17.047zm0 6.0801c6.0587 0 10.965 4.9078 10.965 10.967 0 6.059-4.9057 10.965-10.965 10.965-6.0591 0-10.967-4.9061-10.967-10.965 0-6.0588 4.9082-10.967 10.967-10.967z" fill="#237de0"/>
  </g>
  <path d="m284.68 384.49c-9.0886 0-16.467 7.0625-16.467 15.773 0 5.161 1.8054 8.4309 3.5957 11.127 1.8123 2.7291 3.5996 4.8583 3.5996 7.9024 0 1.1284 0.70775 2.071 1.9238 3.0547a1.4812 1.4812 0 0 1 0.48242 1.5898c-0.1322 0.42664-0.11328 0.42591-0.11328 0.2168 0 0.1222 0.0272 0.2051 0.21875 0.49804a1.4812 1.4812 0 0 1 0.043 1.5488c-0.19342 0.33578-0.20118 0.38662-0.20118 0.42774 0 0.0716 0.0143 0.132 0.20508 0.44921a1.4812 1.4812 0 0 1 -0.0156 1.5508c-0.19169 0.30544-0.21094 0.37533-0.21094 0.47461 0 0.24726 0.15585 0.55954 0.36328 0.77343-0.30224-0.31168-0.27353-0.29717 0.14258 0.0762a1.4812 1.4812 0 0 1 0.45312 1.4395c-0.11132 0.47469-0.0957 0.46752-0.0957 0.18359 0 0.58224 0.40733 1.0015 1.0996 1.3984 0.53059 0.30425 1.3956 0.54952 2.4043 0.74609a1.4812 1.4812 0 0 1 0.83594 0.48438c0.52463 0.60569 1.0989 0.9375 1.7852 0.9375 0.6825 0 1.259-0.33104 1.7832-0.93164a1.4812 1.4812 0 0 1 0.8379 -0.48047c1.0165-0.19398 1.8899-0.43917 2.4297-0.74609 0.70241-0.3994 1.1133-0.81578 1.1133-1.4024 0 0.29723 0.0146 0.30091-0.0918-0.17578a1.4812 1.4812 0 0 1 0.46875 -1.4356c0.41104-0.361 0.44583-0.37803 0.1582-0.084 0.21458-0.21939 0.37109-0.52853 0.37109-0.78125 0-0.0691-0.0143-0.13342-0.20507-0.45117a1.4812 1.4812 0 0 1 0.0156 -1.5508c0.19188-0.30529 0.21094-0.37157 0.21094-0.47071 0-0.12437-0.0279-0.2081-0.21875-0.5a1.4812 1.4812 0 0 1 -0.043 -1.5488c0.19322-0.33595 0.20117-0.38969 0.20117-0.42773 0 0.18998 0.0194 0.19323-0.125-0.23242a1.4812 1.4812 0 0 1 0.45899 -1.6191c1.1829-0.97601 1.8691-1.9022 1.8691-3.0098 0-3.0454 1.786-5.1756 3.5957-7.9043 1.7878-2.6957 3.5898-5.9646 3.5898-11.125-0.00099-8.7138-7.3788-15.775-16.469-15.775zm0 4.2695c6.7171 0 12.197 5.1572 12.197 11.502 0 4.4376-1.6849 7.0032-3.4707 9.627a1.4812 1.4812 0 0 1 -0.0957 0.16211 1.4812 1.4812 0 0 1 0 0.002c-1.521 2.234-3.1872 4.8072-3.5039 8.1777a1.4812 1.4812 0 0 1 -0.63282 1.0801c-0.0338 0.0234-0.56347 0.41904-1.293 0.69726-0.88308 0.33678-1.9813 0.58985-3.1953 0.58985-1.2142 0-2.3136-0.25418-3.1973-0.5918-0.73338-0.28022-1.2697-0.68309-1.293-0.69922a1.4812 1.4812 0 0 1 -0.63086 -1.0781c-0.31658-3.3731-1.984-5.9488-3.5078-8.1816-1.8276-2.6782-3.5703-5.2615-3.5703-9.7852 0-6.3447 5.4777-11.502 12.193-11.502z" transform="matrix(1.2524 0 0 1.2524 -71.686 -95.287)" stroke-width="1.426" fill="#305680"/>
  <g stroke-width="1.908" fill="#237de0" transform="matrix(.91894 0 0 .91894 20.341 46.615)">
   <path d="m287.6 362.53c1.5874 0 2.8868-1.7172 2.8868-3.816v-6.8001c0-2.0988-1.2994-3.816-2.8868-3.816-1.5875 0-2.8868 1.7172-2.8868 3.816v6.8001c0 2.1007 1.2994 3.816 2.8868 3.816z"/>
   <path d="m272.81 366.5c1.3757-0.79374 1.639-2.9307 0.59148-4.7471l-3.3982-5.89c-1.0494-1.8183-3.0337-2.6559-4.4094-1.8622-1.3757 0.79373-1.6409 2.9307-0.59339 4.7471l3.402 5.89c1.0494 1.8183 3.0318 2.656 4.4075 1.8622z"/>
   <path d="m260.12 372.92-5.8862-3.4001c-1.8183-1.0494-3.9553-0.78418-4.749 0.59149-0.79373 1.3757 0.0421 3.3581 1.8622 4.4075l5.8881 3.4001c1.8183 1.0494 3.9553 0.7842 4.7471-0.59148 0.79181-1.3757-0.0439-3.3581-1.8622-4.4075z"/>
   <path d="m323.86 409.72-5.8881-3.3982c-1.8183-1.0513-3.9553-0.7861-4.7471 0.59147-0.79373 1.3757 0.0401 3.3581 1.8641 4.4075l5.8843 3.4001c1.8183 1.0494 3.9553 0.7842 4.749-0.59147 0.79373-1.3776-0.042-3.36-1.8622-4.4094z"/>
   <path d="m258.02 392.12c0-1.5894-1.7172-2.8868-3.816-2.8868h-6.8001c-2.0988 0-3.816 1.2994-3.816 2.8868 0 1.5875 1.7172 2.8868 3.816 2.8868h6.8001c2.0988 0 3.816-1.2994 3.816-2.8868z"/>
   <path d="m327.8 389.23h-6.7982c-2.1007 0-3.816 1.2994-3.816 2.8868 0 1.5875 1.7153 2.8868 3.816 2.8868h6.7982c2.1007 0 3.816-1.2994 3.816-2.8868 0-1.5875-1.7172-2.8868-3.816-2.8868z"/>
   <path d="m257.23 406.32-5.8881 3.3982c-1.8183 1.0494-2.6559 3.0318-1.8622 4.4094 0.79373 1.3757 2.9307 1.639 4.749 0.59147l5.8862-3.4001c1.8183-1.0494 2.656-3.0318 1.8622-4.4075-0.79184-1.3738-2.9288-1.6428-4.7471-0.59147z"/>
   <path d="m317.97 377.92 5.8881-3.4001c1.8183-1.0494 2.6559-3.0318 1.8622-4.4075-0.79373-1.3757-2.9307-1.6409-4.749-0.59149l-5.8862 3.4001c-1.8164 1.0494-2.6559 3.0318-1.8622 4.4075 0.79182 1.3757 2.9288 1.6409 4.7471 0.59148z"/>
   <path d="m309.61 354c-1.3776-0.79374-3.3619 0.0439-4.4113 1.8622l-3.3982 5.89c-1.0494 1.8183-0.7842 3.9534 0.59147 4.7471 1.3776 0.79373 3.36-0.0439 4.4094-1.8622l3.402-5.89c1.0475-1.8164 0.78038-3.9534-0.5934-4.7471z"/>
  </g>
  <g stroke-width=".20453" transform="translate(0,5.625)">
   <g fill="#237de0">
    <path d="m275.96 509.14c-0.60283-0.0441-1.216 0.21057-1.6328 0.64648l-9.5039 9.9238c-0.84584 0.88264-0.84477 2.2675 0 3.1504l9.5039 9.9238c0.41846 0.43711 1.0303 0.69107 1.6348 0.64648 0.60451-0.0446 1.1713-0.38436 1.5215-0.87695a1.2066 1.2066 0 0 0 0.002 0l0.68945-0.9707c0.7008-0.98671 0.61366-2.2304-0.21679-3.1113l-6.7774-7.1875 6.7774-7.1875c0.8298-0.87976 0.91694-2.124 0.21679-3.1094l-0.68945-0.97071c-0.35166-0.49493-0.92105-0.83273-1.5254-0.87695z"/>
    <path d="m289.6 508.7c-1.0762 0-1.9492 0.61875-2.3027 1.6367l-7.3887 21.244c-0.17658 0.50769-0.13789 1.1216 0.1914 1.5859 0.32929 0.46432 0.89735 0.70313 1.4356 0.70313h1.2754c1.0764 0 1.9489-0.61932 2.3027-1.6367l7.3887-21.244c0.17724-0.50888 0.13696-1.1243-0.19336-1.5879-0.33033-0.46363-0.89759-0.70117-1.4356-0.70117z"/>
    <path d="m296.45 509.14c-0.60447 0.0442-1.1718 0.38239-1.5234 0.87695a1.2066 1.2066 0 0 0 -0.002 0l-0.68945 0.97071c-0.70042 0.98573-0.61395 2.2298 0.21484 3.1094a1.2066 1.2066 0 0 0 0.002 0l6.7774 7.1875-6.7774 7.1875c-0.83097 0.881-0.91745 2.1248-0.21679 3.1113l0.68945 0.9707a1.2066 1.2066 0 0 0 0.002 0c0.3508 0.49317 0.91715 0.8324 1.5215 0.87695 0.60433 0.0446 1.2176-0.20851 1.6367-0.64648l9.502-9.9238c0.84554-0.88322 0.84503-2.2677 0-3.1504l-9.502-9.9238c-0.41942-0.43812-1.0314-0.69062-1.6348-0.64648z"/>
   </g>
   <path d="m250.88 481.51c-3.0124 0-5.4766 2.4617-5.4766 5.4746v57.625c0 3.0129 2.4642 5.4746 5.4766 5.4746h70.648c3.0127 0 5.4746-2.4621 5.4746-5.4746v-57.625c0.00047-3.0124-2.4619-5.4746-5.4746-5.4746zm2.8574 6.334h6.5176c0.20985 0 0.37305 0.1632 0.37305 0.37304v2.0449c0 0.20968-0.16353 0.37304-0.37305 0.37304h-6.5176c-0.20985 0-0.375-0.16475-0.375-0.37304v-2.0449c0-0.20813 0.16548-0.37304 0.375-0.37304zm13.045 0h6.5176c0.20985 0 0.37305 0.1632 0.37305 0.37304v2.0449c0 0.20967-0.16354 0.37304-0.37305 0.37304h-6.5176c-0.20987 0-0.375-0.16474-0.375-0.37304v-2.0449c0-0.20813 0.16548-0.37304 0.375-0.37304zm13.383 0h6.5176c0.20986 0 0.375 0.16474 0.375 0.37304v2.0449c0 0.20797-0.16581 0.37304-0.375 0.37304h-6.5176c-0.20952 0-0.375-0.16491-0.375-0.37304v-2.0449c0-0.20796 0.16583-0.37304 0.375-0.37304zm-29.088 8.2344h70.254c0.24816 0 0.4375 0.19141 0.4375 0.42578v47.479c0 0.23436-0.19081 0.42773-0.4375 0.42773h-70.254c-0.24702 0-0.4375-0.1932-0.4375-0.42773v-47.479c0-0.23451 0.18902-0.42578 0.4375-0.42578z" xlink:href="#path118404" fill="#305680"/>
   <path id="path118404" d="m250.88 482.44c-2.5064 0-4.543 2.0345-4.543 4.541v57.625c0 2.5065 2.0365 4.541 4.543 4.541h70.648c2.5069 0 4.541-2.0344 4.541-4.541v-57.625c0.00039-2.5064-2.0342-4.541-4.541-4.541zm2.8574 4.4668h6.5176c0.71766 0 1.3066 0.58898 1.3066 1.3066v2.0449c0 0.71771-0.58914 1.3066-1.3066 1.3066h-6.5176c-0.71766 0-1.3086-0.5885-1.3086-1.3066v-2.0449c0-0.71819 0.59109-1.3066 1.3086-1.3066zm13.045 0h6.5176c0.71767 0 1.3066 0.58898 1.3066 1.3066v2.0449c0 0.71771-0.58915 1.3066-1.3066 1.3066h-6.5176c-0.71767 0-1.3086-0.5885-1.3086-1.3066v-2.0449c0-0.71819 0.59109-1.3066 1.3086-1.3066zm13.383 0h6.5176c0.71767 0 1.3086 0.5885 1.3086 1.3066v2.0449c0 0.71824-0.59125 1.3066-1.3086 1.3066h-6.5176c-0.7175 0-1.3086-0.58845-1.3086-1.3066v-2.0449c0-0.71824 0.59125-1.3066 1.3086-1.3066zm-29.088 8.2344h70.254c0.75136 0 1.3711 0.61127 1.3711 1.3594v47.479c0 0.74811-0.6193 1.3613-1.3711 1.3613h-70.254c-0.75197 0-1.3711-0.61327-1.3711-1.3613v-47.479c0-0.74805 0.61958-1.3594 1.3711-1.3594z" stroke-width=".20453" fill="#305680"/>
  </g>
  <g transform="matrix(1.011 0 0 1.011 -201.39 50.337)">
   <g transform="translate(572,260)" fill="#305680">
    <path d="m-333.96 113.84v12.615c0 0.76745 0.62355 1.407 1.407 1.407h9.753c0.76745 0 1.407-0.62356 1.407-1.407v-22.192l-7.0829 7.0829c-1.5029 1.4869-3.4216 2.3503-5.4841 2.4942z"/>
    <path d="m-316.54 104.11v22.352c0 0.76745 0.62355 1.407 1.407 1.407h9.753c0.76746 0 1.407-0.62356 1.407-1.407v-13.159c-2.2224-0.048-4.3009-0.92734-5.8678-2.4942z"/>
    <path d="m-299.11 111.91v14.55c0 0.76745 0.62355 1.407 1.407 1.407h9.753c0.76745 0 1.407-0.62356 1.407-1.407v-26.845l-11.176 11.176c-0.43169 0.43169-0.89536 0.79943-1.391 1.1192z"/>
    <path d="m-270.06 83.114-11.624 11.624v31.721c0 0.76745 0.62356 1.407 1.407 1.407h9.753c0.76745 0 1.407-0.62356 1.407-1.407v-42.466c-0.31977-0.2718-0.5596-0.51163-0.73547-0.67152z"/>
   </g>
   <path fill="#237de0" d="m309.92 322.52c-0.46367-0.49565-1.1672-0.75147-2.0625-0.75147h-0.25582c-4.5408 0.20786-9.0655 0.4317-13.606 0.63955-0.60757 0.032-1.439 0.064-2.0945 0.71948-0.20785 0.20786-0.36773 0.44768-0.49564 0.73548-0.67152 1.455 0.2718 2.3983 0.71948 2.846l1.1352 1.1512c0.78344 0.79943 1.5829 1.5989 2.3823 2.3823l-27.436 27.452-12.327-12.327c-0.73547-0.73547-1.7268-1.1512-2.782-1.1512s-2.0306 0.4157-2.766 1.1512l-16.42 16.404c-1.5349 1.5349-1.5349 4.0131 0 5.548l0.73547 0.73547c0.73548 0.73548 1.7268 1.1512 2.782 1.1512s2.0306-0.4157 2.766-1.1512l12.903-12.903 12.327 12.327c0.73548 0.73548 1.7268 1.1512 2.782 1.1512s2.0306-0.4157 2.782-1.1512l30.954-30.954 3.5015 3.4855c0.4157 0.4157 0.99129 0.99129 1.8707 0.99129 0.36774 0 0.73547-0.0959 1.1192-0.30378 0.25582-0.1439 0.47966-0.30378 0.67152-0.49565 0.68751-0.68751 0.81542-1.5669 0.84739-2.2544 0.12791-2.9419 0.27181-5.8838 0.41571-8.8417l0.20785-4.4288c0.048-0.92734-0.15989-1.6468-0.65553-2.1585z"/>
  </g>
 </g>
</svg>
