<?xml version="1.0" encoding="utf-8"?>
<!-- Generator: Adobe Illustrator 19.0.0, SVG Export Plug-In . SVG Version: 6.00 Build 0)  -->
<svg version="1.1" baseProfile="tiny" id="Layer_1" xmlns="http://www.w3.org/2000/svg" xmlns:xlink="http://www.w3.org/1999/xlink"
	 x="0px" y="0px" viewBox="290 215.9 1192.8 363.1" xml:space="preserve">
<image width="908" height="536" id="XMLID_1101_" xlink:href="DD36592B.png"  transform="matrix(1 0 0 1 250 43)">
</image>
<circle id="XMLID_1140_" fill="#FFFFFF" stroke="#5555FF" stroke-width="7" stroke-miterlimit="10" cx="447.3" cy="393.6" r="103.9"/>
<rect id="XMLID_1141_" x="1183.3" y="353.5" fill="#549955" width="153.1" height="1.4"/>
<g id="XMLID_1541_">
	<path id="XMLID_1542_" fill="#5AC5F1" d="M1020.1,363.6c-1,0.5-2.3,0.8-3.8,0.8c-1.9,0-3.5-0.6-4.7-1.9s-1.8-2.9-1.8-4.9
		c0-2.2,0.7-4,2-5.3c1.3-1.3,3-2,5-2c1.3,0,2.4,0.2,3.2,0.6v1.7c-1-0.5-2.1-0.8-3.2-0.8c-1.6,0-2.8,0.5-3.8,1.6
		c-1,1-1.5,2.4-1.5,4.2c0,1.7,0.5,3,1.4,4s2.1,1.5,3.6,1.5c1.4,0,2.6-0.3,3.6-0.9V363.6z"/>
	<path id="XMLID_1544_" fill="#5AC5F1" d="M1029.9,364.2h-7.1v-13.7h1.6v12.2h5.5V364.2z"/>
	<path id="XMLID_1546_" fill="#5AC5F1" d="M1037.5,364.4c-1.9,0-3.5-0.6-4.7-1.9c-1.2-1.3-1.7-2.9-1.7-5c0-2.2,0.6-4,1.8-5.3
		c1.2-1.3,2.8-2,4.8-2c1.9,0,3.4,0.6,4.6,1.9s1.7,2.9,1.7,5c0,2.2-0.6,4-1.8,5.3C1041.1,363.8,1039.5,364.4,1037.5,364.4z
		 M1037.7,351.8c-1.4,0-2.6,0.5-3.5,1.6c-0.9,1.1-1.3,2.4-1.3,4.1s0.4,3,1.3,4.1c0.9,1,2,1.5,3.4,1.5c1.5,0,2.7-0.5,3.5-1.5
		c0.8-1,1.3-2.3,1.3-4.1s-0.4-3.2-1.3-4.2C1040.2,352.3,1039.1,351.8,1037.7,351.8z"/>
	<path id="XMLID_1549_" fill="#5AC5F1" d="M1056.7,358.7c0,3.8-1.7,5.8-5.2,5.8c-3.3,0-5-1.8-5-5.5v-8.4h1.6v8.3
		c0,2.8,1.2,4.2,3.5,4.2s3.4-1.4,3.4-4.1v-8.4h1.6L1056.7,358.7L1056.7,358.7z"/>
	<path id="XMLID_1553_" fill="#5AC5F1" d="M1060.1,364.2v-13.7h3.8c4.8,0,7.2,2.2,7.2,6.7c0,2.1-0.7,3.8-2,5.1
		c-1.3,1.3-3.1,1.9-5.4,1.9H1060.1z M1061.7,352v10.8h2c1.8,0,3.2-0.5,4.2-1.4c1-1,1.5-2.3,1.5-4.1c0-3.5-1.9-5.2-5.6-5.2h-2.1V352z
		"/>
	<path id="XMLID_1556_" fill="#6E6259" d="M1037.1,390.9c-1.4,0-2.6-0.5-3.5-1.4s-1.3-2.1-1.3-3.6c0-1.6,0.4-2.9,1.3-3.8
		c0.9-0.9,2.1-1.4,3.6-1.4s2.6,0.4,3.4,1.3c0.8,0.9,1.2,2.1,1.2,3.7c0,1.6-0.4,2.8-1.3,3.7C1039.7,390.4,1038.5,390.9,1037.1,390.9z
		 M1037.2,382c-1,0-1.8,0.3-2.4,1c-0.6,0.7-0.9,1.6-0.9,2.8c0,1.2,0.3,2.1,0.9,2.7c0.6,0.7,1.4,1,2.4,1s1.8-0.3,2.3-1
		s0.8-1.6,0.8-2.8c0-1.2-0.3-2.2-0.8-2.8S1038.2,382,1037.2,382z"/>
	<path id="XMLID_1559_" fill="#6E6259" d="M1049.5,382.5c-0.3-0.2-0.7-0.3-1.2-0.3c-0.7,0-1.2,0.3-1.7,0.9c-0.4,0.6-0.7,1.5-0.7,2.6
		v5h-1.6v-9.8h1.6v2l0,0c0.2-0.7,0.6-1.2,1-1.6c0.5-0.4,1-0.6,1.5-0.6c0.4,0,0.7,0,0.9,0.1v1.7H1049.5z"/>
	<path id="XMLID_1561_" fill="#F3900B" d="M986.4,417.4c-1.9,0-3.5-0.6-4.7-1.9s-1.7-2.9-1.7-5c0-2.2,0.6-4,1.8-5.3
		c1.2-1.3,2.8-2,4.8-2c1.9,0,3.4,0.6,4.6,1.9s1.7,2.9,1.7,5c0,2.2-0.6,4-1.8,5.3C989.9,416.7,988.3,417.4,986.4,417.4z M986.5,404.7
		c-1.4,0-2.6,0.5-3.5,1.6c-0.9,1.1-1.3,2.4-1.3,4.1s0.4,3,1.3,4.1c0.9,1,2,1.5,3.4,1.5c1.5,0,2.7-0.5,3.5-1.5s1.3-2.3,1.3-4.1
		c0-1.8-0.4-3.2-1.3-4.2S988,404.7,986.5,404.7z"/>
	<path id="XMLID_1564_" fill="#F3900B" d="M1006.6,417.2h-2l-7-10.9c-0.2-0.3-0.3-0.6-0.4-0.9h-0.1c0.1,0.3,0.1,0.9,0.1,1.9v9.9
		h-1.6v-13.7h2.1l6.8,10.7c0.3,0.4,0.5,0.7,0.6,0.9l0,0c-0.1-0.4-0.1-1.1-0.1-2v-9.6h1.6L1006.6,417.2L1006.6,417.2z"/>
	<path id="XMLID_1566_" fill="#F3900B" d="M1014.9,412.3h-5.2v-1.2h5.2V412.3z"/>
	<path id="XMLID_1568_" fill="#F3900B" d="M1019.6,412v5.2h-1.6v-13.7h3.8c1.5,0,2.6,0.4,3.4,1.1c0.8,0.7,1.2,1.7,1.2,3
		s-0.4,2.4-1.3,3.2c-0.9,0.8-2.1,1.2-3.6,1.2H1019.6z M1019.6,405v5.6h1.7c1.1,0,1.9-0.3,2.5-0.8c0.6-0.5,0.9-1.2,0.9-2.1
		c0-1.8-1.1-2.7-3.2-2.7H1019.6z"/>
	<path id="XMLID_1571_" fill="#F3900B" d="M1038.7,417.2h-1.9l-2.3-3.8c-0.2-0.4-0.4-0.7-0.6-0.9s-0.4-0.5-0.6-0.6
		c-0.2-0.2-0.4-0.3-0.7-0.3c-0.2-0.1-0.5-0.1-0.8-0.1h-1.3v5.8h-1.6v-13.7h4.1c0.6,0,1.1,0.1,1.7,0.2c0.5,0.1,0.9,0.4,1.3,0.7
		c0.4,0.3,0.7,0.7,0.9,1.1c0.2,0.4,0.3,1,0.3,1.6c0,0.5-0.1,0.9-0.2,1.3c-0.1,0.4-0.3,0.8-0.6,1.1c-0.3,0.3-0.6,0.6-1,0.8
		c-0.4,0.2-0.8,0.4-1.3,0.5l0,0c0.2,0.1,0.4,0.2,0.6,0.3c0.2,0.1,0.3,0.3,0.5,0.5s0.3,0.4,0.5,0.6c0.1,0.2,0.3,0.5,0.5,0.8
		L1038.7,417.2z M1030.5,405v5h2.2c0.4,0,0.8-0.1,1.1-0.2c0.3-0.1,0.6-0.3,0.9-0.5c0.2-0.2,0.4-0.5,0.6-0.8s0.2-0.7,0.2-1.1
		c0-0.7-0.2-1.3-0.7-1.7c-0.5-0.4-1.2-0.6-2.1-0.6L1030.5,405L1030.5,405z"/>
	<path id="XMLID_1574_" fill="#F3900B" d="M1047.8,417.2h-7.2v-13.7h6.9v1.4h-5.3v4.5h4.9v1.4h-4.9v4.8h5.6V417.2z"/>
	<path id="XMLID_1576_" fill="#F3900B" d="M1064.4,417.2h-1.6V408c0-0.7,0-1.6,0.1-2.7l0,0c-0.2,0.6-0.3,1.1-0.4,1.3l-4.7,10.5h-0.8
		l-4.7-10.4c-0.1-0.3-0.3-0.8-0.4-1.4l0,0c0.1,0.5,0.1,1.4,0.1,2.7v9.1h-1.5v-13.7h2.1l4.2,9.5c0.3,0.7,0.5,1.3,0.6,1.6h0.1
		c0.3-0.7,0.5-1.3,0.7-1.7l4.3-9.5h2L1064.4,417.2L1064.4,417.2z"/>
	<path id="XMLID_1578_" fill="#F3900B" d="M1070.9,403.5v1.4h-1.3v10.9h1.3v1.4h-4.3v-1.4h1.3v-10.9h-1.3v-1.4H1070.9z"/>
	<path id="XMLID_1580_" fill="#F3900B" d="M1072.5,416.6v-1.9c0.2,0.2,0.5,0.4,0.8,0.5c0.3,0.2,0.6,0.3,1,0.4c0.4,0.1,0.7,0.2,1,0.2
		c0.3,0.1,0.6,0.1,0.9,0.1c1,0,1.7-0.2,2.2-0.5c0.5-0.4,0.7-0.9,0.7-1.6c0-0.4-0.1-0.7-0.2-1s-0.4-0.5-0.7-0.7
		c-0.3-0.2-0.6-0.4-1-0.6c-0.4-0.2-0.8-0.4-1.3-0.7c-0.5-0.2-0.9-0.5-1.3-0.7c-0.4-0.2-0.8-0.5-1.1-0.8c-0.3-0.3-0.5-0.6-0.7-1
		s-0.3-0.8-0.3-1.3c0-0.6,0.1-1.2,0.4-1.6c0.3-0.5,0.6-0.8,1.1-1.1c0.4-0.3,1-0.5,1.5-0.7s1.1-0.2,1.7-0.2c1.3,0,2.3,0.2,2.9,0.5
		v1.8c-0.8-0.6-1.8-0.8-3.1-0.8c-0.3,0-0.7,0-1,0.1c-0.3,0.1-0.7,0.2-0.9,0.4c-0.3,0.2-0.5,0.4-0.7,0.6c-0.2,0.3-0.3,0.6-0.3,1
		c0,0.3,0.1,0.7,0.2,0.9c0.1,0.3,0.3,0.5,0.6,0.7c0.3,0.2,0.6,0.4,0.9,0.6s0.8,0.4,1.3,0.6s1,0.5,1.4,0.8c0.4,0.3,0.8,0.6,1.2,0.9
		c0.3,0.3,0.6,0.7,0.8,1.1c0.2,0.4,0.3,0.8,0.3,1.4c0,0.7-0.1,1.2-0.4,1.7s-0.6,0.8-1.1,1.1s-1,0.5-1.5,0.6
		c-0.6,0.1-1.2,0.2-1.8,0.2c-0.2,0-0.5,0-0.8-0.1c-0.3,0-0.6-0.1-1-0.2c-0.3-0.1-0.6-0.1-0.9-0.2
		C1072.9,416.8,1072.7,416.7,1072.5,416.6z"/>
	<path id="XMLID_1584_" fill="#F3900B" d="M1090.7,417.2h-7.2v-13.7h6.9v1.4h-5.3v4.5h4.9v1.4h-4.9v4.8h5.6V417.2z"/>
	<path id="XMLID_1586_" fill="#F3900B" d="M1092.7,416.6v-1.9c0.2,0.2,0.5,0.4,0.8,0.5c0.3,0.2,0.6,0.3,1,0.4c0.4,0.1,0.7,0.2,1,0.2
		c0.3,0.1,0.6,0.1,0.9,0.1c1,0,1.7-0.2,2.2-0.5c0.5-0.4,0.7-0.9,0.7-1.6c0-0.4-0.1-0.7-0.2-1c-0.1-0.3-0.4-0.5-0.7-0.7
		c-0.3-0.2-0.6-0.4-1-0.6s-0.8-0.4-1.3-0.7c-0.5-0.2-0.9-0.5-1.3-0.7c-0.4-0.2-0.8-0.5-1.1-0.8s-0.5-0.6-0.7-1
		c-0.2-0.4-0.3-0.8-0.3-1.3c0-0.6,0.1-1.2,0.4-1.6c0.3-0.5,0.6-0.8,1.1-1.1c0.4-0.3,1-0.5,1.5-0.7s1.1-0.2,1.7-0.2
		c1.3,0,2.3,0.2,2.9,0.5v1.8c-0.8-0.6-1.8-0.8-3.1-0.8c-0.3,0-0.7,0-1,0.1c-0.3,0.1-0.7,0.2-0.9,0.4c-0.3,0.2-0.5,0.4-0.7,0.6
		c-0.2,0.3-0.3,0.6-0.3,1c0,0.3,0.1,0.7,0.2,0.9c0.1,0.3,0.3,0.5,0.6,0.7s0.6,0.4,0.9,0.6s0.8,0.4,1.3,0.6s1,0.5,1.4,0.8
		c0.4,0.3,0.8,0.6,1.2,0.9c0.3,0.3,0.6,0.7,0.8,1.1c0.2,0.4,0.3,0.8,0.3,1.4c0,0.7-0.1,1.2-0.4,1.7s-0.6,0.8-1.1,1.1s-1,0.5-1.5,0.6
		c-0.6,0.1-1.2,0.2-1.8,0.2c-0.2,0-0.5,0-0.8-0.1c-0.3,0-0.6-0.1-1-0.2c-0.3-0.1-0.6-0.1-0.9-0.2
		C1093.2,416.8,1092.9,416.7,1092.7,416.6z"/>
</g>
<g id="XMLID_1501_">
	<path id="XMLID_1502_" fill="#6E6259" d="M1182.5,345.4v-14.6h4c5.2,0,7.7,2.4,7.7,7.1c0,2.3-0.7,4.1-2.1,5.4
		c-1.4,1.4-3.3,2.1-5.8,2.1H1182.5z M1184.2,332.3v11.6h2.2c1.9,0,3.4-0.5,4.5-1.5s1.6-2.5,1.6-4.4c0-3.7-2-5.6-6-5.6h-2.3V332.3z"
		/>
	<path id="XMLID_1505_" fill="#6E6259" d="M1205.3,340.6h-7.3c0,1.2,0.3,2.1,0.9,2.7s1.4,0.9,2.5,0.9c1.2,0,2.3-0.4,3.2-1.2v1.6
		c-0.9,0.7-2.1,1-3.6,1s-2.6-0.5-3.5-1.4c-0.9-0.9-1.3-2.3-1.3-4c0-1.6,0.5-3,1.4-4s2.1-1.5,3.4-1.5c1.4,0,2.4,0.4,3.2,1.3
		c0.7,0.9,1.1,2.1,1.1,3.7V340.6L1205.3,340.6z M1203.6,339.2c0-1-0.2-1.7-0.7-2.3c-0.5-0.5-1.1-0.8-1.9-0.8s-1.5,0.3-2,0.8
		c-0.6,0.6-0.9,1.3-1,2.2h5.6V339.2z"/>
	<path id="XMLID_1510_" fill="#6E6259" d="M1209.6,343.9L1209.6,343.9v6.3h-1.7v-15.3h1.7v1.8l0,0c0.8-1.4,2-2.1,3.6-2.1
		c1.3,0,2.4,0.5,3.2,1.4c0.8,0.9,1.1,2.2,1.1,3.8c0,1.7-0.4,3.1-1.3,4.2c-0.9,1.1-2,1.6-3.5,1.6
		C1211.4,345.7,1210.3,345.1,1209.6,343.9z M1209.5,339.7v1.5c0,0.9,0.3,1.6,0.8,2.2s1.3,0.9,2.1,0.9c1,0,1.8-0.4,2.4-1.2
		c0.6-0.8,0.9-1.9,0.9-3.2c0-1.2-0.3-2.1-0.8-2.7c-0.5-0.6-1.3-1-2.2-1c-1,0-1.8,0.3-2.3,1C1209.8,337.8,1209.5,338.7,1209.5,339.7z
		"/>
	<path id="XMLID_1513_" fill="#6E6259" d="M1221.8,345.4h-1.7v-15.5h1.7V345.4z"/>
	<path id="XMLID_1515_" fill="#6E6259" d="M1229.6,345.7c-1.5,0-2.8-0.5-3.7-1.5c-0.9-1-1.4-2.3-1.4-3.9c0-1.8,0.5-3.1,1.4-4.1
		c1-1,2.3-1.5,3.9-1.5c1.6,0,2.8,0.5,3.6,1.4c0.9,1,1.3,2.3,1.3,4c0,1.7-0.5,3-1.4,4C1232.4,345.2,1231.2,345.7,1229.6,345.7z
		 M1229.7,336.1c-1.1,0-1.9,0.4-2.6,1.1c-0.7,0.7-0.9,1.7-0.9,3c0,1.2,0.3,2.2,0.9,2.9c0.6,0.7,1.5,1.1,2.5,1.1
		c1.1,0,1.9-0.4,2.5-1.1c0.6-0.7,0.9-1.7,0.9-3c0-1.3-0.3-2.3-0.9-3C1231.6,336.5,1230.8,336.1,1229.7,336.1z"/>
	<path id="XMLID_1518_" fill="#6E6259" d="M1245.8,335l-4.8,12.1c-0.9,2.2-2.1,3.2-3.6,3.2c-0.4,0-0.8,0-1.1-0.1v-1.5
		c0.4,0.1,0.7,0.2,1,0.2c0.8,0,1.5-0.5,1.9-1.5l0.8-2l-4.1-10.4h1.9l2.8,8c0,0.1,0.1,0.4,0.2,0.8h0.1c0-0.2,0.1-0.4,0.2-0.8l3-8.1
		h1.7V335z"/>
	<path id="XMLID_1520_" fill="#6E6259" d="M1260.8,345.4h-1.7v-1.6l0,0c-0.7,1.3-1.8,1.9-3.2,1.9c-1,0-1.9-0.3-2.4-0.8
		c-0.6-0.6-0.9-1.3-0.9-2.2c0-2,1.1-3.1,3.4-3.4l3.1-0.4c0-1.8-0.7-2.7-2.2-2.7c-1.3,0-2.4,0.4-3.4,1.3v-1.7c1-0.7,2.2-1,3.6-1
		c2.5,0,3.7,1.3,3.7,3.9L1260.8,345.4L1260.8,345.4z M1259.1,340.1l-2.5,0.3c-0.8,0.1-1.4,0.3-1.8,0.6c-0.4,0.3-0.6,0.8-0.6,1.5
		c0,0.5,0.2,0.9,0.5,1.3c0.4,0.3,0.8,0.5,1.5,0.5c0.8,0,1.5-0.3,2.1-0.9c0.5-0.6,0.8-1.3,0.8-2.2V340.1z"/>
	<path id="XMLID_1523_" fill="#6E6259" d="M1272.6,345.4h-1.7v-6c0-2.2-0.8-3.3-2.4-3.3c-0.8,0-1.5,0.3-2.1,0.9
		c-0.5,0.6-0.8,1.4-0.8,2.4v6h-1.7v-10.5h1.7v1.7l0,0c0.8-1.3,1.9-2,3.4-2c1.1,0,2,0.4,2.6,1.1c0.6,0.7,0.9,1.8,0.9,3.2
		L1272.6,345.4L1272.6,345.4z"/>
	<path id="XMLID_1525_" fill="#6E6259" d="M1284.1,335l-4.8,12.1c-0.9,2.2-2.1,3.2-3.6,3.2c-0.4,0-0.8,0-1.1-0.1v-1.5
		c0.4,0.1,0.7,0.2,1,0.2c0.8,0,1.5-0.5,1.9-1.5l0.8-2l-4.1-10.4h1.9l2.8,8c0,0.1,0.1,0.4,0.2,0.8h0.1c0-0.2,0.1-0.4,0.2-0.8l3-8.1
		h1.7V335z"/>
	<path id="XMLID_1527_" fill="#6E6259" d="M1299.1,335l-3.1,10.5h-1.7l-2.2-7.5c-0.1-0.3-0.1-0.6-0.2-1l0,0c0,0.2-0.1,0.6-0.2,0.9
		l-2.3,7.5h-1.7l-3.2-10.5h1.8l2.2,7.9c0.1,0.2,0.1,0.6,0.1,0.9h0.1c0-0.3,0.1-0.6,0.2-1l2.4-7.8h1.5l2.2,7.9
		c0.1,0.3,0.1,0.6,0.2,0.9h0.1c0-0.3,0.1-0.6,0.2-0.9l2.1-7.9h1.5V335z"/>
	<path id="XMLID_1529_" fill="#6E6259" d="M1309.7,345.4h-1.7v-6c0-2.2-0.8-3.3-2.4-3.3c-0.8,0-1.5,0.3-2.1,0.9
		c-0.6,0.6-0.8,1.4-0.8,2.4v5.9h-1.7v-15.4h1.7v6.8l0,0c0.8-1.3,1.9-2,3.4-2c2.4,0,3.5,1.4,3.5,4.3L1309.7,345.4L1309.7,345.4z"/>
	<path id="XMLID_1531_" fill="#6E6259" d="M1321.2,340.6h-7.4c0,1.2,0.3,2.1,0.9,2.7s1.4,0.9,2.5,0.9c1.2,0,2.3-0.4,3.2-1.2v1.6
		c-0.9,0.7-2.1,1-3.6,1s-2.6-0.5-3.5-1.4c-0.9-0.9-1.3-2.3-1.3-4c0-1.6,0.5-3,1.4-4c0.9-1,2.1-1.5,3.4-1.5c1.4,0,2.4,0.4,3.2,1.3
		c0.7,0.9,1.1,2.1,1.1,3.7v0.9H1321.2z M1319.5,339.2c0-1-0.2-1.7-0.7-2.3s-1.1-0.8-1.9-0.8s-1.5,0.3-2,0.8c-0.6,0.6-0.9,1.3-1,2.2
		h5.6V339.2z"/>
	<path id="XMLID_1534_" fill="#6E6259" d="M1329.2,336.7c-0.3-0.2-0.7-0.3-1.3-0.3c-0.7,0-1.3,0.3-1.8,1s-0.7,1.6-0.7,2.8v5.3h-1.7
		V335h1.7v2.2l0,0c0.2-0.7,0.6-1.3,1.1-1.7s1-0.6,1.6-0.6c0.4,0,0.8,0,1,0.1v1.7H1329.2z"/>
	<path id="XMLID_1536_" fill="#6E6259" d="M1339.4,340.6h-7.4c0,1.2,0.3,2.1,0.9,2.7s1.4,0.9,2.5,0.9c1.2,0,2.3-0.4,3.2-1.2v1.6
		c-0.9,0.7-2.1,1-3.6,1s-2.6-0.5-3.5-1.4c-0.9-0.9-1.3-2.3-1.3-4c0-1.6,0.5-3,1.4-4s2.1-1.5,3.4-1.5c1.4,0,2.4,0.4,3.2,1.3
		c0.7,0.9,1.1,2.1,1.1,3.7v0.9H1339.4z M1337.7,339.2c0-1-0.2-1.7-0.7-2.3s-1.1-0.8-1.9-0.8s-1.5,0.3-2,0.8c-0.6,0.6-0.9,1.3-1,2.2
		h5.6V339.2z"/>
</g>
<g id="XMLID_1199_">
	<path id="XMLID_1200_" fill="#6E6259" d="M1181.4,389.7v-2c0.2,0.2,0.5,0.4,0.8,0.6c0.3,0.2,0.7,0.3,1,0.4c0.3,0.1,0.7,0.2,1.1,0.3
		c0.4,0.1,0.7,0.1,1,0.1c1.1,0,1.8-0.2,2.4-0.6c0.5-0.4,0.8-1,0.8-1.7c0-0.4-0.1-0.7-0.3-1c-0.2-0.3-0.4-0.6-0.7-0.8
		s-0.7-0.5-1.1-0.7c-0.4-0.2-0.9-0.5-1.4-0.7c-0.5-0.3-1-0.5-1.4-0.8c-0.4-0.3-0.8-0.6-1.2-0.9c-0.3-0.3-0.6-0.7-0.8-1.1
		c-0.2-0.4-0.3-0.9-0.3-1.4c0-0.7,0.1-1.2,0.4-1.7s0.7-0.9,1.2-1.2c0.5-0.3,1-0.6,1.6-0.7c0.6-0.2,1.2-0.2,1.9-0.2
		c1.4,0,2.5,0.2,3.2,0.5v1.9c-0.9-0.6-2-0.9-3.3-0.9c-0.4,0-0.7,0-1.1,0.1c-0.4,0.1-0.7,0.2-1,0.4c-0.3,0.2-0.5,0.4-0.7,0.7
		c-0.2,0.3-0.3,0.6-0.3,1s0.1,0.7,0.2,1c0.1,0.3,0.3,0.5,0.6,0.7c0.3,0.2,0.6,0.4,1,0.7c0.4,0.2,0.8,0.4,1.4,0.7
		c0.5,0.3,1,0.5,1.5,0.8s0.9,0.6,1.2,0.9c0.4,0.3,0.6,0.7,0.8,1.2c0.2,0.4,0.3,0.9,0.3,1.4c0,0.7-0.1,1.3-0.4,1.8s-0.7,0.9-1.1,1.2
		c-0.4,0.3-1,0.5-1.7,0.7c-0.6,0.1-1.3,0.2-2,0.2c-0.2,0-0.5,0-0.9-0.1c-0.3,0-0.7-0.1-1-0.2c-0.4-0.1-0.7-0.2-1-0.3
		C1181.8,389.9,1181.6,389.8,1181.4,389.7z"/>
	<path id="XMLID_1202_" fill="#6E6259" d="M1201.4,385.4h-7.4c0,1.2,0.3,2.1,0.9,2.7c0.6,0.6,1.4,0.9,2.5,0.9c1.2,0,2.3-0.4,3.2-1.2
		v1.6c-0.9,0.7-2.1,1-3.6,1s-2.6-0.5-3.5-1.4c-0.9-0.9-1.3-2.3-1.3-4c0-1.6,0.5-3,1.4-4s2.1-1.5,3.4-1.5c1.4,0,2.4,0.4,3.2,1.3
		c0.7,0.9,1.1,2.1,1.1,3.7L1201.4,385.4L1201.4,385.4z M1199.7,384c0-1-0.2-1.7-0.7-2.3c-0.5-0.6-1.1-0.8-1.9-0.8
		c-0.8,0-1.5,0.3-2,0.8c-0.6,0.6-0.9,1.3-1,2.2h5.6V384z"/>
	<path id="XMLID_1205_" fill="#6E6259" d="M1211.4,390.2h-1.7v-1.6l0,0c-0.7,1.3-1.8,1.9-3.2,1.9c-1,0-1.9-0.3-2.4-0.8
		c-0.6-0.6-0.9-1.3-0.9-2.2c0-2,1.1-3.1,3.4-3.4l3.1-0.4c0-1.8-0.7-2.7-2.2-2.7c-1.3,0-2.4,0.4-3.4,1.3v-1.7c1-0.7,2.2-1,3.6-1
		c2.5,0,3.7,1.3,3.7,3.9L1211.4,390.2L1211.4,390.2z M1209.7,385l-2.5,0.3c-0.8,0.1-1.4,0.3-1.8,0.6c-0.4,0.3-0.6,0.8-0.6,1.5
		c0,0.5,0.2,0.9,0.5,1.3c0.4,0.3,0.8,0.5,1.5,0.5c0.8,0,1.5-0.3,2.1-0.9c0.5-0.6,0.8-1.3,0.8-2.2V385z"/>
	<path id="XMLID_1208_" fill="#6E6259" d="M1229.4,390.2h-1.7v-6c0-1.2-0.2-2-0.5-2.5c-0.4-0.5-1-0.8-1.8-0.8c-0.7,0-1.3,0.3-1.8,1
		s-0.8,1.4-0.8,2.3v6h-1.7V384c0-2.1-0.8-3.1-2.4-3.1c-0.7,0-1.3,0.3-1.8,0.9c-0.5,0.6-0.7,1.4-0.7,2.4v6h-1.7v-10.5h1.7v1.7l0,0
		c0.7-1.3,1.8-1.9,3.2-1.9c0.7,0,1.3,0.2,1.9,0.6c0.5,0.4,0.9,0.9,1.1,1.6c0.8-1.4,1.9-2.2,3.5-2.2c2.3,0,3.5,1.4,3.5,4.3V390.2z"/>
	<path id="XMLID_1210_" fill="#6E6259" d="M1234.2,390.2h-1.7v-15.5h1.7V390.2z"/>
	<path id="XMLID_1212_" fill="#6E6259" d="M1246,385.4h-7.4c0,1.2,0.3,2.1,0.9,2.7c0.6,0.6,1.4,0.9,2.5,0.9c1.2,0,2.3-0.4,3.2-1.2
		v1.6c-0.9,0.7-2.1,1-3.6,1s-2.6-0.5-3.5-1.4c-0.9-0.9-1.3-2.3-1.3-4c0-1.6,0.5-3,1.4-4s2.1-1.5,3.4-1.5c1.4,0,2.4,0.4,3.2,1.3
		c0.7,0.9,1.1,2.1,1.1,3.7L1246,385.4L1246,385.4z M1244.3,384c0-1-0.2-1.7-0.7-2.3c-0.5-0.6-1.1-0.8-1.9-0.8s-1.5,0.3-2,0.8
		c-0.6,0.6-0.9,1.3-1,2.2h5.6V384z"/>
	<path id="XMLID_1215_" fill="#6E6259" d="M1247.9,389.9v-1.8c0.9,0.7,1.9,1,3,1c1.5,0,2.2-0.5,2.2-1.5c0-0.3-0.1-0.5-0.2-0.7
		s-0.3-0.4-0.5-0.5s-0.5-0.3-0.8-0.4c-0.3-0.1-0.6-0.2-0.9-0.4c-0.5-0.2-0.9-0.4-1.2-0.6c-0.4-0.2-0.6-0.4-0.9-0.6
		c-0.2-0.2-0.4-0.5-0.5-0.8c-0.1-0.3-0.2-0.6-0.2-1.1s0.1-0.9,0.3-1.3s0.5-0.7,0.9-0.9c0.4-0.3,0.8-0.4,1.3-0.6
		c0.5-0.1,1-0.2,1.5-0.2c0.9,0,1.7,0.2,2.4,0.5v1.7c-0.8-0.5-1.7-0.8-2.7-0.8c-0.3,0-0.6,0-0.8,0.1c-0.3,0.1-0.5,0.2-0.6,0.3
		c-0.2,0.1-0.3,0.3-0.4,0.5c-0.1,0.2-0.1,0.4-0.1,0.6c0,0.3,0,0.5,0.1,0.7c0.1,0.2,0.2,0.3,0.4,0.5c0.2,0.1,0.4,0.3,0.7,0.4
		c0.3,0.1,0.6,0.2,0.9,0.4c0.5,0.2,0.9,0.4,1.2,0.5c0.4,0.2,0.7,0.4,0.9,0.6c0.3,0.2,0.5,0.5,0.6,0.8c0.1,0.3,0.2,0.7,0.2,1.1
		c0,0.5-0.1,1-0.3,1.3c-0.2,0.4-0.5,0.7-0.9,0.9c-0.4,0.3-0.8,0.4-1.3,0.6c-0.5,0.1-1,0.2-1.6,0.2
		C1249.6,390.5,1248.7,390.3,1247.9,389.9z"/>
	<path id="XMLID_1217_" fill="#6E6259" d="M1256.8,389.9v-1.8c0.9,0.7,1.9,1,3,1c1.5,0,2.2-0.5,2.2-1.5c0-0.3-0.1-0.5-0.2-0.7
		c-0.1-0.2-0.3-0.4-0.5-0.5c-0.2-0.1-0.5-0.3-0.8-0.4c-0.3-0.1-0.6-0.2-0.9-0.4c-0.5-0.2-0.9-0.4-1.2-0.6c-0.4-0.2-0.6-0.4-0.9-0.6
		c-0.2-0.2-0.4-0.5-0.5-0.8c-0.1-0.3-0.2-0.6-0.2-1.1s0.1-0.9,0.3-1.3c0.2-0.4,0.5-0.7,0.9-0.9c0.4-0.3,0.8-0.4,1.3-0.6
		c0.5-0.1,1-0.2,1.5-0.2c0.9,0,1.7,0.2,2.4,0.5v1.7c-0.8-0.5-1.7-0.8-2.7-0.8c-0.3,0-0.6,0-0.8,0.1c-0.3,0.1-0.5,0.2-0.6,0.3
		c-0.2,0.1-0.3,0.3-0.4,0.5s-0.1,0.4-0.1,0.6c0,0.3,0,0.5,0.1,0.7c0.1,0.2,0.2,0.3,0.4,0.5c0.2,0.1,0.4,0.3,0.7,0.4
		c0.3,0.1,0.6,0.2,0.9,0.4c0.5,0.2,0.9,0.4,1.2,0.5c0.4,0.2,0.7,0.4,0.9,0.6c0.3,0.2,0.5,0.5,0.6,0.8s0.2,0.7,0.2,1.1
		c0,0.5-0.1,1-0.3,1.3c-0.2,0.4-0.5,0.7-0.9,0.9c-0.4,0.3-0.8,0.4-1.3,0.6c-0.5,0.1-1,0.2-1.6,0.2
		C1258.5,390.5,1257.6,390.3,1256.8,389.9z"/>
	<path id="XMLID_1219_" fill="#6E6259" d="M1272.9,377.1c-0.3,0-0.6-0.1-0.8-0.3c-0.2-0.2-0.3-0.5-0.3-0.8c0-0.3,0.1-0.6,0.3-0.8
		c0.2-0.2,0.5-0.3,0.8-0.3s0.6,0.1,0.8,0.3c0.2,0.2,0.3,0.5,0.3,0.8c0,0.3-0.1,0.6-0.3,0.8C1273.4,377,1273.2,377.1,1272.9,377.1z
		 M1273.7,390.2h-1.7v-10.5h1.7V390.2z"/>
	<path id="XMLID_1222_" fill="#6E6259" d="M1285.7,390.2h-1.7v-6c0-2.2-0.8-3.3-2.4-3.3c-0.8,0-1.5,0.3-2.1,0.9
		c-0.5,0.6-0.8,1.4-0.8,2.4v6h-1.7v-10.5h1.7v1.7l0,0c0.8-1.3,1.9-2,3.4-2c1.1,0,2,0.4,2.6,1.1c0.6,0.7,0.9,1.8,0.9,3.2
		L1285.7,390.2L1285.7,390.2z"/>
	<path id="XMLID_1224_" fill="#6E6259" d="M1293.7,390.1c-0.4,0.2-0.9,0.3-1.6,0.3c-1.8,0-2.7-1-2.7-3.1v-6.2h-1.8v-1.4h1.8v-2.6
		l1.7-0.5v3.1h2.6v1.4h-2.6v5.9c0,0.7,0.1,1.2,0.4,1.5c0.2,0.3,0.6,0.4,1.2,0.4c0.4,0,0.8-0.1,1.1-0.3v1.5H1293.7z"/>
	<path id="XMLID_1226_" fill="#6E6259" d="M1304.4,385.4h-7.4c0,1.2,0.3,2.1,0.9,2.7c0.6,0.6,1.4,0.9,2.5,0.9c1.2,0,2.3-0.4,3.2-1.2
		v1.6c-0.9,0.7-2.1,1-3.6,1s-2.6-0.5-3.5-1.4c-0.9-0.9-1.3-2.3-1.3-4c0-1.6,0.5-3,1.4-4s2.1-1.5,3.4-1.5c1.4,0,2.4,0.4,3.2,1.3
		c0.7,0.9,1.1,2.1,1.1,3.7L1304.4,385.4L1304.4,385.4z M1302.7,384c0-1-0.2-1.7-0.7-2.3c-0.5-0.6-1.1-0.8-1.9-0.8
		c-0.8,0-1.5,0.3-2,0.8c-0.6,0.6-0.9,1.3-1,2.2h5.6V384z"/>
	<path id="XMLID_1229_" fill="#6E6259" d="M1315.8,389.4c0,3.8-1.8,5.8-5.5,5.8c-1.3,0-2.4-0.2-3.4-0.7v-1.7c1.2,0.7,2.3,1,3.4,1
		c2.6,0,3.9-1.4,3.9-4.1v-1.1l0,0c-0.8,1.3-2,2-3.6,2c-1.3,0-2.3-0.5-3.1-1.4c-0.8-0.9-1.2-2.2-1.2-3.7c0-1.8,0.4-3.2,1.3-4.2
		s2-1.6,3.5-1.6c1.4,0,2.5,0.6,3.1,1.7l0,0V380h1.7L1315.8,389.4L1315.8,389.4z M1314.2,385.5V384c0-0.8-0.3-1.5-0.8-2.1
		s-1.3-0.9-2.1-0.9c-1,0-1.8,0.4-2.4,1.1c-0.6,0.8-0.9,1.8-0.9,3.2c0,1.2,0.3,2.1,0.8,2.8c0.6,0.7,1.3,1,2.2,1c0.9,0,1.7-0.3,2.3-1
		C1313.9,387.4,1314.2,386.6,1314.2,385.5z"/>
	<path id="XMLID_1232_" fill="#6E6259" d="M1324.7,381.5c-0.3-0.2-0.7-0.3-1.3-0.3c-0.7,0-1.3,0.3-1.8,1c-0.5,0.7-0.7,1.6-0.7,2.8
		v5.3h-1.7v-10.5h1.7v2.2l0,0c0.2-0.7,0.6-1.3,1.1-1.7c0.5-0.4,1-0.6,1.6-0.6c0.4,0,0.8,0,1,0.1v1.7H1324.7z"/>
	<path id="XMLID_1234_" fill="#6E6259" d="M1334,390.2h-1.7v-1.6l0,0c-0.7,1.3-1.8,1.9-3.2,1.9c-1,0-1.9-0.3-2.4-0.8
		c-0.6-0.6-0.9-1.3-0.9-2.2c0-2,1.1-3.1,3.4-3.4l3.1-0.4c0-1.8-0.7-2.7-2.2-2.7c-1.3,0-2.4,0.4-3.4,1.3v-1.7c1-0.7,2.2-1,3.6-1
		c2.5,0,3.7,1.3,3.7,3.9V390.2z M1332.3,385l-2.5,0.3c-0.8,0.1-1.4,0.3-1.8,0.6c-0.4,0.3-0.6,0.8-0.6,1.5c0,0.5,0.2,0.9,0.5,1.3
		c0.4,0.3,0.8,0.5,1.5,0.5c0.8,0,1.5-0.3,2.1-0.9c0.5-0.6,0.8-1.3,0.8-2.2V385z"/>
	<path id="XMLID_1237_" fill="#6E6259" d="M1342,390.1c-0.4,0.2-0.9,0.3-1.6,0.3c-1.8,0-2.7-1-2.7-3.1v-6.2h-1.8v-1.4h1.8v-2.6
		l1.7-0.5v3.1h2.6v1.4h-2.6v5.9c0,0.7,0.1,1.2,0.4,1.5c0.2,0.3,0.6,0.4,1.2,0.4c0.4,0,0.8-0.1,1.1-0.3L1342,390.1L1342,390.1z"/>
	<path id="XMLID_1239_" fill="#6E6259" d="M1345.1,377.1c-0.3,0-0.6-0.1-0.8-0.3s-0.3-0.5-0.3-0.8c0-0.3,0.1-0.6,0.3-0.8
		c0.2-0.2,0.5-0.3,0.8-0.3s0.6,0.1,0.8,0.3c0.2,0.2,0.3,0.5,0.3,0.8c0,0.3-0.1,0.6-0.3,0.8C1345.6,377,1345.4,377.1,1345.1,377.1z
		 M1345.9,390.2h-1.7v-10.5h1.7V390.2z"/>
	<path id="XMLID_1242_" fill="#6E6259" d="M1353.6,390.5c-1.5,0-2.8-0.5-3.7-1.5c-0.9-1-1.4-2.3-1.4-3.9c0-1.8,0.5-3.1,1.4-4.1
		c1-1,2.3-1.5,3.9-1.5s2.8,0.5,3.6,1.4c0.9,1,1.3,2.3,1.3,4s-0.5,3-1.4,4C1356.5,390,1355.2,390.5,1353.6,390.5z M1353.8,381
		c-1.1,0-1.9,0.4-2.6,1.1s-0.9,1.7-0.9,3c0,1.2,0.3,2.2,0.9,2.9s1.5,1.1,2.5,1.1c1.1,0,1.9-0.4,2.5-1.1s0.9-1.7,0.9-3
		s-0.3-2.3-0.9-3C1355.7,381.3,1354.8,381,1353.8,381z"/>
	<path id="XMLID_1245_" fill="#6E6259" d="M1370.2,390.2h-1.7v-6c0-2.2-0.8-3.3-2.4-3.3c-0.8,0-1.5,0.3-2.1,0.9
		c-0.5,0.6-0.8,1.4-0.8,2.4v6h-1.7v-10.5h1.7v1.7l0,0c0.8-1.3,1.9-2,3.4-2c1.1,0,2,0.4,2.6,1.1s0.9,1.8,0.9,3.2L1370.2,390.2
		L1370.2,390.2z"/>
	<path id="XMLID_1247_" fill="#6E6259" d="M1191.6,399l-8.6,12.7h8.4v1.6h-10.9v-0.5l8.5-12.6h-7.8v-1.6h10.5L1191.6,399L1191.6,399
		z"/>
	<path id="XMLID_1250_" fill="#6E6259" d="M1202.2,408.4h-7.4c0,1.2,0.3,2.1,0.9,2.7c0.6,0.6,1.4,0.9,2.5,0.9c1.2,0,2.3-0.4,3.2-1.2
		v1.6c-0.9,0.7-2.1,1-3.6,1s-2.6-0.5-3.5-1.4s-1.3-2.3-1.3-4c0-1.6,0.5-3,1.4-4c0.9-1,2.1-1.5,3.4-1.5c1.4,0,2.4,0.4,3.2,1.3
		c0.7,0.9,1.1,2.1,1.1,3.7L1202.2,408.4L1202.2,408.4z M1200.5,407c0-1-0.2-1.7-0.7-2.3c-0.5-0.6-1.1-0.8-1.9-0.8
		c-0.8,0-1.5,0.3-2,0.8c-0.6,0.6-0.9,1.3-1,2.2h5.6V407z"/>
	<path id="XMLID_1253_" fill="#6E6259" d="M1210.2,404.5c-0.3-0.2-0.7-0.3-1.3-0.3c-0.7,0-1.3,0.3-1.8,1c-0.5,0.7-0.7,1.6-0.7,2.8
		v5.3h-1.7v-10.5h1.7v2.2l0,0c0.2-0.7,0.6-1.3,1.1-1.7c0.5-0.4,1-0.6,1.6-0.6c0.4,0,0.8,0,1,0.1L1210.2,404.5L1210.2,404.5z"/>
	<path id="XMLID_1255_" fill="#6E6259" d="M1216.4,413.5c-1.5,0-2.8-0.5-3.7-1.5c-0.9-1-1.4-2.3-1.4-3.9c0-1.8,0.5-3.1,1.4-4.1
		c1-1,2.3-1.5,3.9-1.5c1.6,0,2.8,0.5,3.6,1.4c0.9,1,1.3,2.3,1.3,4s-0.5,3-1.4,4C1219.2,413,1217.9,413.5,1216.4,413.5z M1216.5,404
		c-1.1,0-1.9,0.4-2.6,1.1s-0.9,1.7-0.9,3c0,1.2,0.3,2.2,0.9,2.9s1.5,1.1,2.5,1.1c1.1,0,1.9-0.4,2.5-1.1s0.9-1.7,0.9-3
		s-0.3-2.3-0.9-3C1218.4,404.3,1217.6,404,1216.5,404z"/>
	<path id="XMLID_1258_" fill="#6E6259" d="M1237.1,412.8c-0.8,0.5-1.8,0.7-2.9,0.7c-1.5,0-2.7-0.5-3.6-1.5s-1.4-2.2-1.4-3.8
		c0-1.7,0.5-3.1,1.5-4.1s2.3-1.6,4-1.6c0.9,0,1.7,0.2,2.4,0.5v1.7c-0.8-0.5-1.6-0.8-2.5-0.8c-1.1,0-1.9,0.4-2.6,1.1
		c-0.7,0.8-1,1.8-1,3s0.3,2.2,1,2.9c0.6,0.7,1.5,1.1,2.6,1.1c0.9,0,1.8-0.3,2.6-0.9L1237.1,412.8L1237.1,412.8z"/>
	<path id="XMLID_1260_" fill="#6E6259" d="M1244,413.5c-1.5,0-2.8-0.5-3.7-1.5c-0.9-1-1.4-2.3-1.4-3.9c0-1.8,0.5-3.1,1.4-4.1
		c1-1,2.3-1.5,3.9-1.5c1.6,0,2.8,0.5,3.6,1.4c0.9,1,1.3,2.3,1.3,4s-0.5,3-1.4,4C1246.8,413,1245.6,413.5,1244,413.5z M1244.1,404
		c-1.1,0-1.9,0.4-2.6,1.1s-0.9,1.7-0.9,3c0,1.2,0.3,2.2,0.9,2.9s1.5,1.1,2.5,1.1c1.1,0,1.9-0.4,2.5-1.1s0.9-1.7,0.9-3
		s-0.3-2.3-0.9-3C1246,404.3,1245.2,404,1244.1,404z"/>
	<path id="XMLID_1263_" fill="#6E6259" d="M1260.8,413.2h-1.7v-1.8l0,0c-0.8,1.3-2,2-3.6,2c-1.3,0-2.4-0.5-3.1-1.4
		c-0.8-0.9-1.2-2.2-1.2-3.8c0-1.7,0.4-3.1,1.3-4.2s2-1.6,3.5-1.6c1.4,0,2.5,0.6,3.1,1.7l0,0v-6.5h1.7V413.2z M1259.1,408.5V407
		c0-0.8-0.3-1.6-0.8-2.1c-0.6-0.6-1.3-0.9-2.1-0.9c-1,0-1.8,0.4-2.4,1.1c-0.6,0.7-0.9,1.8-0.9,3.1c0,1.2,0.3,2.2,0.8,2.9
		c0.6,0.7,1.3,1,2.3,1c0.9,0,1.7-0.3,2.3-1C1258.8,410.4,1259.1,409.5,1259.1,408.5z"/>
	<path id="XMLID_1266_" fill="#6E6259" d="M1265,400.1c-0.3,0-0.6-0.1-0.8-0.3c-0.2-0.2-0.3-0.5-0.3-0.8c0-0.3,0.1-0.6,0.3-0.8
		c0.2-0.2,0.5-0.3,0.8-0.3s0.6,0.1,0.8,0.3c0.2,0.2,0.3,0.5,0.3,0.8c0,0.3-0.1,0.6-0.3,0.8C1265.6,400,1265.3,400.1,1265,400.1z
		 M1265.9,413.2h-1.7v-10.5h1.7V413.2z"/>
	<path id="XMLID_1269_" fill="#6E6259" d="M1277.9,413.2h-1.7v-6c0-2.2-0.8-3.3-2.4-3.3c-0.8,0-1.5,0.3-2.1,0.9
		c-0.5,0.6-0.8,1.4-0.8,2.4v6h-1.7v-10.5h1.7v1.7l0,0c0.8-1.3,1.9-2,3.4-2c1.1,0,2,0.4,2.6,1.1s0.9,1.8,0.9,3.2L1277.9,413.2
		L1277.9,413.2z"/>
	<path id="XMLID_1271_" fill="#6E6259" d="M1290,412.4c0,3.8-1.8,5.8-5.5,5.8c-1.3,0-2.4-0.2-3.4-0.7v-1.7c1.2,0.7,2.3,1,3.4,1
		c2.6,0,3.9-1.4,3.9-4.1v-1.1l0,0c-0.8,1.3-2,2-3.6,2c-1.3,0-2.3-0.5-3.1-1.4c-0.8-0.9-1.2-2.2-1.2-3.7c0-1.8,0.4-3.2,1.3-4.2
		s2-1.6,3.5-1.6c1.4,0,2.5,0.6,3.1,1.7l0,0V403h1.7v9.4H1290z M1288.3,408.5V407c0-0.8-0.3-1.5-0.8-2.1s-1.3-0.9-2.1-0.9
		c-1,0-1.8,0.4-2.4,1.1c-0.6,0.8-0.9,1.8-0.9,3.2c0,1.2,0.3,2.1,0.8,2.8c0.6,0.7,1.3,1,2.2,1s1.7-0.3,2.3-1
		C1288,410.4,1288.3,409.6,1288.3,408.5z"/>
	<path id="XMLID_1276_" fill="#6E6259" d="M1307.5,408.4h-7.4c0,1.2,0.3,2.1,0.9,2.7c0.6,0.6,1.4,0.9,2.5,0.9c1.2,0,2.3-0.4,3.2-1.2
		v1.6c-0.9,0.7-2.1,1-3.6,1s-2.6-0.5-3.5-1.4c-0.9-0.9-1.3-2.3-1.3-4c0-1.6,0.5-3,1.4-4s2.1-1.5,3.4-1.5c1.4,0,2.4,0.4,3.2,1.3
		c0.7,0.9,1.1,2.1,1.1,3.7L1307.5,408.4L1307.5,408.4z M1305.8,407c0-1-0.2-1.7-0.7-2.3c-0.5-0.6-1.1-0.8-1.9-0.8s-1.5,0.3-2,0.8
		c-0.6,0.6-0.9,1.3-1,2.2h5.6V407z"/>
	<path id="XMLID_1279_" fill="#6E6259" d="M1315.2,399.2c-0.3-0.2-0.7-0.3-1.1-0.3c-1.2,0-1.8,0.7-1.8,2.2v1.6h2.4v1.4h-2.4v9h-1.7
		v-9h-1.8v-1.4h1.8V401c0-1.1,0.3-2,0.9-2.6c0.6-0.6,1.4-1,2.4-1c0.5,0,0.9,0.1,1.2,0.2L1315.2,399.2L1315.2,399.2z"/>
	<path id="XMLID_1281_" fill="#6E6259" d="M1321.7,399.2c-0.3-0.2-0.7-0.3-1.1-0.3c-1.2,0-1.8,0.7-1.8,2.2v1.6h2.4v1.4h-2.4v9h-1.7
		v-9h-1.8v-1.4h1.8V401c0-1.1,0.3-2,0.9-2.6s1.4-1,2.4-1c0.5,0,0.9,0.1,1.2,0.2L1321.7,399.2L1321.7,399.2z"/>
	<path id="XMLID_1283_" fill="#6E6259" d="M1327.5,413.5c-1.5,0-2.8-0.5-3.7-1.5c-0.9-1-1.4-2.3-1.4-3.9c0-1.8,0.5-3.1,1.4-4.1
		c1-1,2.3-1.5,3.9-1.5s2.8,0.5,3.6,1.4c0.9,1,1.3,2.3,1.3,4s-0.5,3-1.4,4C1330.3,413,1329.1,413.5,1327.5,413.5z M1327.6,404
		c-1.1,0-1.9,0.4-2.6,1.1s-0.9,1.7-0.9,3c0,1.2,0.3,2.2,0.9,2.9s1.5,1.1,2.5,1.1c1.1,0,1.9-0.4,2.5-1.1s0.9-1.7,0.9-3
		s-0.3-2.3-0.9-3C1329.5,404.3,1328.7,404,1327.6,404z"/>
	<path id="XMLID_1288_" fill="#6E6259" d="M1340.8,404.5c-0.3-0.2-0.7-0.3-1.3-0.3c-0.7,0-1.3,0.3-1.8,1c-0.5,0.7-0.7,1.6-0.7,2.8
		v5.3h-1.7v-10.5h1.7v2.2l0,0c0.2-0.7,0.6-1.3,1.1-1.7c0.5-0.4,1-0.6,1.6-0.6c0.4,0,0.8,0,1,0.1v1.7H1340.8z"/>
	<path id="XMLID_1290_" fill="#6E6259" d="M1347.5,413.1c-0.4,0.2-0.9,0.3-1.6,0.3c-1.8,0-2.7-1-2.7-3.1v-6.2h-1.8v-1.4h1.8v-2.6
		l1.7-0.5v3.1h2.6v1.4h-2.6v5.9c0,0.7,0.1,1.2,0.4,1.5c0.2,0.3,0.6,0.4,1.2,0.4c0.4,0,0.8-0.1,1.1-0.3L1347.5,413.1L1347.5,413.1z"
		/>
	<path id="XMLID_1292_" fill="#6E6259" d="M1349.1,412.9v-1.8c0.9,0.7,1.9,1,3,1c1.5,0,2.2-0.5,2.2-1.5c0-0.3-0.1-0.5-0.2-0.7
		s-0.3-0.4-0.5-0.5s-0.5-0.3-0.8-0.4c-0.3-0.1-0.6-0.2-0.9-0.4c-0.5-0.2-0.9-0.4-1.2-0.6c-0.4-0.2-0.6-0.4-0.9-0.6
		c-0.2-0.2-0.4-0.5-0.5-0.8c-0.1-0.3-0.2-0.6-0.2-1.1s0.1-0.9,0.3-1.3c0.2-0.4,0.5-0.7,0.9-0.9c0.4-0.3,0.8-0.4,1.3-0.6
		c0.5-0.1,1-0.2,1.5-0.2c0.9,0,1.7,0.2,2.4,0.5v1.7c-0.8-0.5-1.7-0.8-2.7-0.8c-0.3,0-0.6,0-0.8,0.1c-0.3,0.1-0.5,0.2-0.6,0.3
		c-0.2,0.1-0.3,0.3-0.4,0.5s-0.1,0.4-0.1,0.6c0,0.3,0,0.5,0.1,0.7c0.1,0.2,0.2,0.3,0.4,0.5c0.2,0.1,0.4,0.3,0.7,0.4
		c0.3,0.1,0.6,0.2,0.9,0.4c0.5,0.2,0.9,0.4,1.2,0.5c0.4,0.2,0.7,0.4,0.9,0.6c0.3,0.2,0.5,0.5,0.6,0.8s0.2,0.7,0.2,1.1
		c0,0.5-0.1,1-0.3,1.3c-0.2,0.4-0.5,0.7-0.9,0.9c-0.4,0.3-0.8,0.4-1.3,0.6c-0.5,0.1-1,0.2-1.6,0.2
		C1350.8,413.5,1349.9,413.3,1349.1,412.9z"/>
	<path id="XMLID_1294_" fill="#6E6259" d="M1182.1,436.2v-14.6h4c5.2,0,7.7,2.4,7.7,7.1c0,2.3-0.7,4.1-2.1,5.4
		c-1.4,1.4-3.3,2.1-5.8,2.1H1182.1z M1183.8,423.1v11.5h2.2c1.9,0,3.4-0.5,4.5-1.5s1.6-2.5,1.6-4.4c0-3.7-2-5.6-6-5.6H1183.8z"/>
	<path id="XMLID_1297_" fill="#6E6259" d="M1202,427.5c-0.3-0.2-0.7-0.3-1.3-0.3c-0.7,0-1.3,0.3-1.8,1c-0.5,0.7-0.7,1.6-0.7,2.8v5.3
		h-1.7v-10.5h1.7v2.2l0,0c0.2-0.7,0.6-1.3,1.1-1.7c0.5-0.4,1-0.6,1.6-0.6c0.4,0,0.8,0,1,0.1v1.7H1202z"/>
	<path id="XMLID_1299_" fill="#6E6259" d="M1211.3,436.2h-1.7v-1.6l0,0c-0.7,1.3-1.8,1.9-3.2,1.9c-1,0-1.9-0.3-2.4-0.8
		c-0.6-0.6-0.9-1.3-0.9-2.2c0-2,1.1-3.1,3.4-3.4l3.1-0.4c0-1.8-0.7-2.7-2.2-2.7c-1.3,0-2.4,0.4-3.4,1.3v-1.7c1-0.7,2.2-1,3.6-1
		c2.5,0,3.7,1.3,3.7,3.9L1211.3,436.2L1211.3,436.2z M1209.6,430.9l-2.5,0.3c-0.8,0.1-1.4,0.3-1.8,0.6c-0.4,0.3-0.6,0.8-0.6,1.5
		c0,0.5,0.2,0.9,0.5,1.3c0.4,0.3,0.8,0.5,1.5,0.5c0.8,0,1.5-0.3,2.1-0.9c0.5-0.6,0.8-1.3,0.8-2.2V430.9z"/>
	<path id="XMLID_1302_" fill="#6E6259" d="M1223.4,435.4c0,3.8-1.8,5.8-5.5,5.8c-1.3,0-2.4-0.2-3.4-0.7v-1.7c1.2,0.7,2.3,1,3.4,1
		c2.6,0,3.9-1.4,3.9-4.1v-1.1l0,0c-0.8,1.3-2,2-3.6,2c-1.3,0-2.3-0.5-3.1-1.4c-0.8-0.9-1.2-2.2-1.2-3.7c0-1.8,0.4-3.2,1.3-4.2
		s2-1.6,3.5-1.6c1.4,0,2.5,0.6,3.1,1.7l0,0V426h1.7L1223.4,435.4L1223.4,435.4z M1221.7,431.5V430c0-0.8-0.3-1.5-0.8-2.1
		s-1.3-0.9-2.1-0.9c-1,0-1.8,0.4-2.4,1.1c-0.6,0.8-0.9,1.8-0.9,3.2c0,1.2,0.3,2.1,0.8,2.8c0.6,0.7,1.3,1,2.2,1s1.7-0.3,2.3-1
		C1221.4,433.4,1221.7,432.5,1221.7,431.5z"/>
	<path id="XMLID_1305_" fill="#6E6259" d="M1245.5,436.5c-0.4,0-0.7-0.1-1-0.2c-0.3-0.1-0.6-0.3-0.8-0.4c-0.2-0.1-0.5-0.4-0.7-0.7
		s-0.5-0.6-0.7-0.9c-0.3,0.3-0.6,0.6-0.9,0.8c-0.4,0.3-0.8,0.5-1.2,0.7s-0.9,0.4-1.4,0.5s-1.1,0.2-1.7,0.2c-0.7,0-1.4-0.1-2-0.3
		c-0.6-0.2-1.1-0.5-1.6-0.8c-0.4-0.4-0.8-0.8-1-1.3c-0.2-0.5-0.4-1.1-0.4-1.8c0-1,0.3-1.9,0.9-2.7c0.6-0.8,1.4-1.3,2.5-1.8
		c-0.2-0.1-0.4-0.3-0.6-0.5c-0.2-0.2-0.4-0.4-0.5-0.7c-0.2-0.3-0.3-0.5-0.4-0.8c-0.1-0.3-0.1-0.6-0.1-1c0-0.5,0.1-1,0.3-1.4
		c0.2-0.4,0.5-0.8,0.8-1.1c0.3-0.3,0.7-0.5,1.2-0.6c0.5-0.1,1-0.2,1.5-0.2s1,0.1,1.5,0.2c0.4,0.1,0.8,0.4,1.1,0.6
		c0.3,0.3,0.6,0.6,0.7,1c0.2,0.4,0.3,0.8,0.3,1.3c0,0.8-0.2,1.5-0.7,2s-1.2,1-2.1,1.4c0.5,0.2,0.9,0.4,1.3,0.7
		c0.4,0.3,0.7,0.6,1.1,0.9s0.6,0.7,0.9,1.1c0.3,0.4,0.6,0.8,0.8,1.2c0.6-0.8,1-1.6,1.2-2.5c0.3-0.9,0.4-1.9,0.4-2.9
		c0-0.3,0-0.5,0-0.7c0-0.2-0.1-0.5-0.1-0.7h1.6c0.1,0.2,0.1,0.4,0.1,0.6s0,0.4,0,0.7c0,0.6-0.1,1.2-0.2,1.9
		c-0.1,0.6-0.3,1.2-0.5,1.8c-0.2,0.6-0.5,1.1-0.8,1.7c-0.3,0.6-0.6,1-0.9,1.5c0.2,0.3,0.5,0.6,0.7,0.9c0.2,0.2,0.4,0.4,0.6,0.6
		s0.4,0.3,0.6,0.4c0.2,0.1,0.5,0.1,0.7,0.1s0.4,0,0.6-0.1c0.2-0.1,0.4-0.1,0.7-0.2v1.6c-0.2,0.1-0.5,0.2-0.8,0.2
		C1246,436.4,1245.8,436.5,1245.5,436.5z M1237,435c0.5,0,1-0.1,1.4-0.2c0.4-0.1,0.8-0.3,1.2-0.4c0.4-0.2,0.7-0.4,1-0.7
		c0.3-0.2,0.6-0.5,0.8-0.8c-0.4-0.6-0.8-1.2-1.1-1.7c-0.4-0.5-0.7-0.9-1.1-1.2c-0.4-0.3-0.7-0.6-1.1-0.9c-0.4-0.2-0.9-0.5-1.4-0.7
		c-0.4,0.2-0.8,0.4-1.2,0.6c-0.4,0.2-0.7,0.5-0.9,0.7c-0.3,0.3-0.5,0.6-0.6,1c-0.1,0.4-0.2,0.8-0.2,1.3s0.1,0.9,0.3,1.2
		c0.2,0.4,0.4,0.6,0.7,0.9c0.3,0.2,0.6,0.4,1,0.5C1236.2,434.7,1236.5,435,1237,435z M1239.5,424.6c0-0.3-0.1-0.6-0.2-0.9
		c-0.1-0.2-0.3-0.4-0.5-0.6c-0.2-0.2-0.4-0.3-0.6-0.3c-0.2-0.1-0.5-0.1-0.7-0.1c-0.7,0-1.2,0.2-1.6,0.5c-0.4,0.4-0.6,0.9-0.6,1.5
		c0,0.3,0,0.5,0.1,0.8c0.1,0.3,0.2,0.5,0.4,0.7s0.3,0.4,0.5,0.6s0.4,0.3,0.7,0.4c0.9-0.3,1.5-0.6,1.9-1
		C1239.3,425.8,1239.5,425.2,1239.5,424.6z"/>
	<path id="XMLID_1309_" fill="#6E6259" d="M1263.8,436.2h-1.7v-1.8l0,0c-0.8,1.3-2,2-3.6,2c-1.3,0-2.4-0.5-3.1-1.4
		c-0.8-0.9-1.2-2.2-1.2-3.8c0-1.7,0.4-3.1,1.3-4.2s2-1.6,3.5-1.6c1.4,0,2.5,0.6,3.1,1.7l0,0v-6.5h1.7V436.2z M1262.2,431.5V430
		c0-0.8-0.3-1.6-0.8-2.1c-0.6-0.6-1.3-0.9-2.1-0.9c-1,0-1.8,0.4-2.4,1.1s-0.9,1.8-0.9,3.1c0,1.2,0.3,2.2,0.8,2.9
		c0.6,0.7,1.3,1,2.3,1c0.9,0,1.7-0.3,2.3-1C1261.9,433.4,1262.2,432.5,1262.2,431.5z"/>
	<path id="XMLID_1312_" fill="#6E6259" d="M1272.7,427.5c-0.3-0.2-0.7-0.3-1.3-0.3c-0.7,0-1.3,0.3-1.8,1c-0.5,0.7-0.7,1.6-0.7,2.8
		v5.3h-1.7v-10.5h1.7v2.2l0,0c0.2-0.7,0.6-1.3,1.1-1.7c0.5-0.4,1-0.6,1.6-0.6c0.4,0,0.8,0,1,0.1L1272.7,427.5L1272.7,427.5z"/>
	<path id="XMLID_1314_" fill="#6E6259" d="M1278.9,436.5c-1.5,0-2.8-0.5-3.7-1.5c-0.9-1-1.4-2.3-1.4-3.9c0-1.8,0.5-3.1,1.4-4.1
		c1-1,2.3-1.5,3.9-1.5c1.6,0,2.8,0.5,3.6,1.4c0.9,1,1.3,2.3,1.3,4s-0.5,3-1.4,4C1281.7,436,1280.5,436.5,1278.9,436.5z M1279,426.9
		c-1.1,0-1.9,0.4-2.6,1.1s-0.9,1.7-0.9,3c0,1.2,0.3,2.2,0.9,2.9s1.5,1.1,2.5,1.1c1.1,0,1.9-0.4,2.5-1.1c0.6-0.7,0.9-1.7,0.9-3
		s-0.3-2.3-0.9-3C1280.9,427.3,1280.1,426.9,1279,426.9z"/>
	<path id="XMLID_1319_" fill="#6E6259" d="M1288.5,434.7L1288.5,434.7v6.3h-1.7v-15.3h1.7v1.8l0,0c0.8-1.4,2-2.1,3.6-2.1
		c1.3,0,2.4,0.5,3.2,1.4c0.8,0.9,1.1,2.2,1.1,3.8c0,1.7-0.4,3.1-1.3,4.2s-2,1.6-3.5,1.6C1290.2,436.5,1289.2,435.9,1288.5,434.7z
		 M1288.4,430.5v1.5c0,0.9,0.3,1.6,0.8,2.2c0.6,0.6,1.3,0.9,2.1,0.9c1,0,1.8-0.4,2.4-1.2c0.6-0.8,0.9-1.9,0.9-3.2
		c0-1.2-0.3-2.1-0.8-2.7c-0.5-0.7-1.3-1-2.2-1c-1,0-1.8,0.3-2.3,1C1288.7,428.6,1288.4,429.5,1288.4,430.5z"/>
	<path id="XMLID_1322_" fill="#6E6259" d="M1305.6,423.1c-0.3,0-0.6-0.1-0.8-0.3c-0.2-0.2-0.3-0.5-0.3-0.8c0-0.3,0.1-0.6,0.3-0.8
		c0.2-0.2,0.5-0.3,0.8-0.3s0.6,0.1,0.8,0.3c0.2,0.2,0.3,0.5,0.3,0.8c0,0.3-0.1,0.6-0.3,0.8C1306.2,423,1305.9,423.1,1305.6,423.1z
		 M1306.4,436.2h-1.7v-10.5h1.7V436.2z"/>
	<path id="XMLID_1325_" fill="#6E6259" d="M1318.5,436.2h-1.7v-6c0-2.2-0.8-3.3-2.4-3.3c-0.8,0-1.5,0.3-2.1,0.9
		c-0.5,0.6-0.8,1.4-0.8,2.4v6h-1.7v-10.5h1.7v1.7l0,0c0.8-1.3,1.9-2,3.4-2c1.1,0,2,0.4,2.6,1.1s0.9,1.8,0.9,3.2L1318.5,436.2
		L1318.5,436.2z"/>
	<path id="XMLID_1327_" fill="#6E6259" d="M1326.5,436.1c-0.4,0.2-0.9,0.3-1.6,0.3c-1.8,0-2.7-1-2.7-3.1v-6.2h-1.8v-1.4h1.8v-2.6
		l1.7-0.5v3.1h2.6v1.4h-2.6v5.9c0,0.7,0.1,1.2,0.4,1.5c0.2,0.3,0.6,0.4,1.2,0.4c0.4,0,0.8-0.1,1.1-0.3L1326.5,436.1L1326.5,436.1z"
		/>
	<path id="XMLID_1329_" fill="#6E6259" d="M1337.1,431.4h-7.4c0,1.2,0.3,2.1,0.9,2.7c0.6,0.6,1.4,0.9,2.5,0.9c1.2,0,2.3-0.4,3.2-1.2
		v1.6c-0.9,0.7-2.1,1-3.6,1s-2.6-0.5-3.5-1.4s-1.3-2.3-1.3-4c0-1.6,0.5-3,1.4-4s2.1-1.5,3.4-1.5c1.4,0,2.4,0.4,3.2,1.3
		c0.7,0.9,1.1,2.1,1.1,3.7v0.9H1337.1z M1335.4,430c0-1-0.2-1.7-0.7-2.3c-0.5-0.6-1.1-0.8-1.9-0.8s-1.5,0.3-2,0.8
		c-0.6,0.6-0.9,1.3-1,2.2h5.6V430z"/>
	<path id="XMLID_1334_" fill="#6E6259" d="M1345.1,427.5c-0.3-0.2-0.7-0.3-1.3-0.3c-0.7,0-1.3,0.3-1.8,1c-0.5,0.7-0.7,1.6-0.7,2.8
		v5.3h-1.7v-10.5h1.7v2.2l0,0c0.2-0.7,0.6-1.3,1.1-1.7c0.5-0.4,1-0.6,1.6-0.6c0.4,0,0.8,0,1,0.1v1.7H1345.1z"/>
	<path id="XMLID_1336_" fill="#6E6259" d="M1352.1,422.2c-0.3-0.2-0.7-0.3-1.1-0.3c-1.2,0-1.8,0.7-1.8,2.2v1.6h2.4v1.4h-2.4v9h-1.7
		v-9h-1.8v-1.4h1.8V424c0-1.1,0.3-2,0.9-2.6s1.4-1,2.4-1c0.5,0,0.9,0.1,1.2,0.2L1352.1,422.2L1352.1,422.2z"/>
	<path id="XMLID_1338_" fill="#6E6259" d="M1361,436.2h-1.7v-1.6l0,0c-0.7,1.3-1.8,1.9-3.2,1.9c-1,0-1.9-0.3-2.4-0.8
		c-0.6-0.6-0.9-1.3-0.9-2.2c0-2,1.1-3.1,3.4-3.4l3.1-0.4c0-1.8-0.7-2.7-2.2-2.7c-1.3,0-2.4,0.4-3.4,1.3v-1.7c1-0.7,2.2-1,3.6-1
		c2.5,0,3.7,1.3,3.7,3.9V436.2z M1359.3,430.9l-2.5,0.3c-0.8,0.1-1.4,0.3-1.8,0.6c-0.4,0.3-0.6,0.8-0.6,1.5c0,0.5,0.2,0.9,0.5,1.3
		c0.4,0.3,0.8,0.5,1.5,0.5c0.8,0,1.5-0.3,2.1-0.9c0.5-0.6,0.8-1.3,0.8-2.2V430.9z"/>
	<path id="XMLID_1341_" fill="#6E6259" d="M1371.2,435.8c-0.8,0.5-1.8,0.7-2.9,0.7c-1.5,0-2.7-0.5-3.6-1.5s-1.4-2.2-1.4-3.8
		c0-1.7,0.5-3.1,1.5-4.1s2.3-1.6,4-1.6c0.9,0,1.7,0.2,2.4,0.5v1.7c-0.8-0.5-1.6-0.8-2.5-0.8c-1.1,0-1.9,0.4-2.6,1.1
		c-0.7,0.8-1,1.8-1,3s0.3,2.2,1,2.9c0.6,0.7,1.5,1.1,2.6,1.1c0.9,0,1.8-0.3,2.6-0.9L1371.2,435.8L1371.2,435.8z"/>
	<path id="XMLID_1343_" fill="#6E6259" d="M1382.2,431.4h-7.4c0,1.2,0.3,2.1,0.9,2.7c0.6,0.6,1.4,0.9,2.5,0.9c1.2,0,2.3-0.4,3.2-1.2
		v1.6c-0.9,0.7-2.1,1-3.6,1s-2.6-0.5-3.5-1.4s-1.3-2.3-1.3-4c0-1.6,0.5-3,1.4-4s2.1-1.5,3.4-1.5c1.4,0,2.4,0.4,3.2,1.3
		c0.7,0.9,1.1,2.1,1.1,3.7v0.9H1382.2z M1380.5,430c0-1-0.2-1.7-0.7-2.3c-0.5-0.6-1.1-0.8-1.9-0.8s-1.5,0.3-2,0.8
		c-0.6,0.6-0.9,1.3-1,2.2h5.6V430z"/>
	<path id="XMLID_1346_" fill="#6E6259" d="M1189.5,446.1h-5.7v5.1h5.3v1.5h-5.3v6.5h-1.7v-14.6h7.4V446.1z"/>
	<path id="XMLID_1348_" fill="#6E6259" d="M1193.8,459.2h-1.7v-15.5h1.7V459.2z"/>
	<path id="XMLID_1350_" fill="#6E6259" d="M1205.5,454.4h-7.4c0,1.2,0.3,2.1,0.9,2.7c0.6,0.6,1.4,0.9,2.5,0.9c1.2,0,2.3-0.4,3.2-1.2
		v1.6c-0.9,0.7-2.1,1-3.6,1s-2.6-0.5-3.5-1.4c-0.9-0.9-1.3-2.3-1.3-4c0-1.6,0.5-3,1.4-4s2.1-1.5,3.4-1.5c1.4,0,2.4,0.4,3.2,1.3
		c0.7,0.9,1.1,2.1,1.1,3.7L1205.5,454.4L1205.5,454.4z M1203.8,453c0-1-0.2-1.7-0.7-2.3c-0.5-0.6-1.1-0.8-1.9-0.8s-1.5,0.3-2,0.8
		c-0.6,0.6-0.9,1.3-1,2.2h5.6V453z"/>
	<path id="XMLID_1353_" fill="#6E6259" d="M1215.7,448.8l-3.5,5.3l3.4,5.2h-1.9l-2.1-3.4c-0.1-0.2-0.3-0.5-0.5-0.8l0,0
		c0,0.1-0.2,0.3-0.5,0.8l-2.1,3.4h-1.9l3.6-5.1l-3.4-5.3h1.9l2,3.6c0.2,0.3,0.3,0.5,0.4,0.8l0,0l2.6-4.4h2V448.8z"/>
	<path id="XMLID_1355_" fill="#6E6259" d="M1218.5,446.1c-0.3,0-0.6-0.1-0.8-0.3c-0.2-0.2-0.3-0.5-0.3-0.8c0-0.3,0.1-0.6,0.3-0.8
		c0.2-0.2,0.5-0.3,0.8-0.3s0.6,0.1,0.8,0.3c0.2,0.2,0.3,0.5,0.3,0.8c0,0.3-0.1,0.6-0.3,0.8C1219.1,446,1218.8,446.1,1218.5,446.1z
		 M1219.3,459.2h-1.7v-10.5h1.7V459.2z"/>
	<path id="XMLID_1358_" fill="#6E6259" d="M1224.4,457.7L1224.4,457.7v1.5h-1.7v-15.5h1.7v6.9l0,0c0.8-1.4,2-2.1,3.6-2.1
		c1.3,0,2.4,0.5,3.1,1.4c0.7,0.9,1.1,2.2,1.1,3.8c0,1.7-0.4,3.1-1.3,4.2c-0.9,1.1-2,1.6-3.5,1.6
		C1226.2,459.5,1225.2,458.9,1224.4,457.7z M1224.4,453.5v1.5c0,0.9,0.3,1.6,0.8,2.2c0.6,0.6,1.3,0.9,2.1,0.9c1,0,1.8-0.4,2.4-1.2
		c0.6-0.8,0.9-1.9,0.9-3.2c0-1.2-0.3-2.1-0.8-2.7c-0.5-0.7-1.3-1-2.2-1c-1,0-1.8,0.3-2.3,1C1224.7,451.6,1224.4,452.5,1224.4,453.5z
		"/>
	<path id="XMLID_1363_" fill="#6E6259" d="M1236.7,459.2h-1.7v-15.5h1.7V459.2z"/>
	<path id="XMLID_1365_" fill="#6E6259" d="M1248.5,454.4h-7.4c0,1.2,0.3,2.1,0.9,2.7c0.6,0.6,1.4,0.9,2.5,0.9c1.2,0,2.3-0.4,3.2-1.2
		v1.6c-0.9,0.7-2.1,1-3.6,1s-2.6-0.5-3.5-1.4c-0.9-0.9-1.3-2.3-1.3-4c0-1.6,0.5-3,1.4-4s2.1-1.5,3.4-1.5c1.4,0,2.4,0.4,3.2,1.3
		c0.7,0.9,1.1,2.1,1.1,3.7L1248.5,454.4L1248.5,454.4z M1246.8,453c0-1-0.2-1.7-0.7-2.3c-0.5-0.6-1.1-0.8-1.9-0.8s-1.5,0.3-2,0.8
		c-0.6,0.6-0.9,1.3-1,2.2h5.6V453z"/>
	<path id="XMLID_1368_" fill="#6E6259" d="M1263.9,458.7c-0.8,0.5-1.8,0.7-2.9,0.7c-1.5,0-2.7-0.5-3.6-1.5s-1.4-2.2-1.4-3.8
		c0-1.7,0.5-3.1,1.5-4.1s2.3-1.6,4-1.6c0.9,0,1.7,0.2,2.4,0.5v1.7c-0.8-0.5-1.6-0.8-2.5-0.8c-1.1,0-1.9,0.4-2.6,1.1
		c-0.7,0.8-1,1.8-1,3c0,1.2,0.3,2.2,1,2.9c0.6,0.7,1.5,1.1,2.6,1.1c0.9,0,1.8-0.3,2.6-0.9L1263.9,458.7L1263.9,458.7z"/>
	<path id="XMLID_1370_" fill="#6E6259" d="M1270.8,459.5c-1.5,0-2.8-0.5-3.7-1.5s-1.4-2.3-1.4-3.9c0-1.8,0.5-3.1,1.4-4.1
		c1-1,2.3-1.5,3.9-1.5c1.6,0,2.8,0.5,3.6,1.4c0.9,1,1.3,2.3,1.3,4s-0.5,3-1.4,4C1273.6,459,1272.3,459.5,1270.8,459.5z
		 M1270.9,449.9c-1.1,0-1.9,0.4-2.6,1.1s-0.9,1.7-0.9,3c0,1.2,0.3,2.2,0.9,2.9s1.5,1.1,2.5,1.1c1.1,0,1.9-0.4,2.5-1.1
		c0.6-0.7,0.9-1.7,0.9-3s-0.3-2.3-0.9-3C1272.8,450.3,1272,449.9,1270.9,449.9z"/>
	<path id="XMLID_1373_" fill="#6E6259" d="M1287.3,459.2h-1.7v-6c0-2.2-0.8-3.3-2.4-3.3c-0.8,0-1.5,0.3-2.1,0.9
		c-0.5,0.6-0.8,1.4-0.8,2.4v6h-1.7v-10.5h1.7v1.7l0,0c0.8-1.3,1.9-2,3.4-2c1.1,0,2,0.4,2.6,1.1c0.6,0.7,0.9,1.8,0.9,3.2v6.5H1287.3z
		"/>
	<path id="XMLID_1377_" fill="#6E6259" d="M1295.6,445.2c-0.3-0.2-0.7-0.3-1.1-0.3c-1.2,0-1.8,0.7-1.8,2.2v1.6h2.4v1.4h-2.4v9h-1.7
		v-9h-1.8v-1.4h1.8V447c0-1.1,0.3-2,0.9-2.6s1.4-1,2.4-1c0.5,0,0.9,0.1,1.2,0.2L1295.6,445.2L1295.6,445.2z"/>
	<path id="XMLID_1379_" fill="#6E6259" d="M1297.9,446.1c-0.3,0-0.6-0.1-0.8-0.3c-0.2-0.2-0.3-0.5-0.3-0.8c0-0.3,0.1-0.6,0.3-0.8
		c0.2-0.2,0.5-0.3,0.8-0.3s0.6,0.1,0.8,0.3c0.2,0.2,0.3,0.5,0.3,0.8c0,0.3-0.1,0.6-0.3,0.8C1298.4,446,1298.2,446.1,1297.9,446.1z
		 M1298.7,459.2h-1.7v-10.5h1.7V459.2z"/>
	<path id="XMLID_1382_" fill="#6E6259" d="M1311,458.4c0,3.8-1.8,5.8-5.5,5.8c-1.3,0-2.4-0.2-3.4-0.7v-1.7c1.2,0.7,2.3,1,3.4,1
		c2.6,0,3.9-1.4,3.9-4.1v-1.1l0,0c-0.8,1.3-2,2-3.6,2c-1.3,0-2.3-0.5-3.1-1.4c-0.8-0.9-1.2-2.2-1.2-3.7c0-1.8,0.4-3.2,1.3-4.2
		s2-1.6,3.5-1.6c1.4,0,2.5,0.6,3.1,1.7l0,0V449h1.7v9.4H1311z M1309.3,454.5V453c0-0.8-0.3-1.5-0.8-2.1s-1.3-0.9-2.1-0.9
		c-1,0-1.8,0.4-2.4,1.1c-0.6,0.8-0.9,1.8-0.9,3.2c0,1.2,0.3,2.1,0.8,2.8c0.6,0.7,1.3,1,2.2,1s1.7-0.3,2.3-1
		C1309,456.4,1309.3,455.5,1309.3,454.5z"/>
	<path id="XMLID_1385_" fill="#6E6259" d="M1322.8,459.2h-1.7v-1.7l0,0c-0.7,1.3-1.8,1.9-3.2,1.9c-2.5,0-3.7-1.5-3.7-4.5v-6.2h1.7v6
		c0,2.2,0.8,3.3,2.5,3.3c0.8,0,1.5-0.3,2-0.9s0.8-1.4,0.8-2.4v-6h1.7v10.5H1322.8z"/>
	<path id="XMLID_1387_" fill="#6E6259" d="M1331.7,450.5c-0.3-0.2-0.7-0.3-1.3-0.3c-0.7,0-1.3,0.3-1.8,1c-0.5,0.7-0.7,1.6-0.7,2.8
		v5.3h-1.7v-10.5h1.7v2.2l0,0c0.2-0.7,0.6-1.3,1.1-1.7c0.5-0.4,1-0.6,1.6-0.6c0.4,0,0.8,0,1,0.1v1.7H1331.7z"/>
	<path id="XMLID_1389_" fill="#6E6259" d="M1341,459.2h-1.7v-1.6l0,0c-0.7,1.3-1.8,1.9-3.2,1.9c-1,0-1.9-0.3-2.4-0.8
		c-0.6-0.6-0.9-1.3-0.9-2.2c0-2,1.1-3.1,3.4-3.4l3.1-0.4c0-1.8-0.7-2.7-2.2-2.7c-1.3,0-2.4,0.4-3.4,1.3v-1.7c1-0.7,2.2-1,3.6-1
		c2.5,0,3.7,1.3,3.7,3.9V459.2z M1339.3,453.9l-2.5,0.3c-0.8,0.1-1.4,0.3-1.8,0.6c-0.4,0.3-0.6,0.8-0.6,1.5c0,0.5,0.2,0.9,0.5,1.3
		c0.4,0.3,0.8,0.5,1.5,0.5c0.8,0,1.5-0.3,2.1-0.9c0.5-0.6,0.8-1.3,0.8-2.2V453.9z"/>
	<path id="XMLID_1392_" fill="#6E6259" d="M1349,459.1c-0.4,0.2-0.9,0.3-1.6,0.3c-1.8,0-2.7-1-2.7-3.1v-6.2h-1.8v-1.4h1.8v-2.6
		l1.7-0.5v3.1h2.6v1.4h-2.6v5.9c0,0.7,0.1,1.2,0.4,1.5c0.2,0.3,0.6,0.4,1.2,0.4c0.4,0,0.8-0.1,1.1-0.3L1349,459.1L1349,459.1z"/>
	<path id="XMLID_1394_" fill="#6E6259" d="M1352.1,446.1c-0.3,0-0.6-0.1-0.8-0.3s-0.3-0.5-0.3-0.8c0-0.3,0.1-0.6,0.3-0.8
		c0.2-0.2,0.5-0.3,0.8-0.3s0.6,0.1,0.8,0.3c0.2,0.2,0.3,0.5,0.3,0.8c0,0.3-0.1,0.6-0.3,0.8C1352.6,446,1352.4,446.1,1352.1,446.1z
		 M1352.9,459.2h-1.7v-10.5h1.7V459.2z"/>
	<path id="XMLID_1397_" fill="#6E6259" d="M1360.6,459.5c-1.5,0-2.8-0.5-3.7-1.5c-0.9-1-1.4-2.3-1.4-3.9c0-1.8,0.5-3.1,1.4-4.1
		c1-1,2.3-1.5,3.9-1.5s2.8,0.5,3.6,1.4c0.9,1,1.3,2.3,1.3,4s-0.5,3-1.4,4C1363.5,459,1362.2,459.5,1360.6,459.5z M1360.8,449.9
		c-1.1,0-1.9,0.4-2.6,1.1s-0.9,1.7-0.9,3c0,1.2,0.3,2.2,0.9,2.9s1.5,1.1,2.5,1.1c1.1,0,1.9-0.4,2.5-1.1c0.6-0.7,0.9-1.7,0.9-3
		s-0.3-2.3-0.9-3C1362.7,450.3,1361.8,449.9,1360.8,449.9z"/>
	<path id="XMLID_1400_" fill="#6E6259" d="M1377.2,459.2h-1.7v-6c0-2.2-0.8-3.3-2.4-3.3c-0.8,0-1.5,0.3-2.1,0.9
		c-0.5,0.6-0.8,1.4-0.8,2.4v6h-1.7v-10.5h1.7v1.7l0,0c0.8-1.3,1.9-2,3.4-2c1.1,0,2,0.4,2.6,1.1s0.9,1.8,0.9,3.2L1377.2,459.2
		L1377.2,459.2z"/>
	<path id="XMLID_1402_" fill="#6E6259" d="M1193.4,482.2h-1.9l-1.6-4.1h-6.2l-1.5,4.1h-1.9l5.6-14.6h1.8L1193.4,482.2z
		 M1189.4,476.6l-2.3-6.2c-0.1-0.2-0.1-0.5-0.2-1l0,0c-0.1,0.4-0.1,0.7-0.2,1l-2.3,6.2H1189.4z"/>
	<path id="XMLID_1407_" fill="#6E6259" d="M1204.3,482.2h-1.7v-1.8l0,0c-0.8,1.3-2,2-3.6,2c-1.3,0-2.4-0.5-3.1-1.4
		c-0.8-0.9-1.2-2.2-1.2-3.8c0-1.7,0.4-3.1,1.3-4.2s2-1.6,3.5-1.6c1.4,0,2.5,0.6,3.1,1.7l0,0v-6.5h1.7V482.2z M1202.6,477.5V476
		c0-0.8-0.3-1.6-0.8-2.1c-0.6-0.6-1.3-0.9-2.1-0.9c-1,0-1.8,0.4-2.4,1.1c-0.6,0.7-0.9,1.8-0.9,3.1c0,1.2,0.3,2.2,0.8,2.9
		c0.6,0.7,1.3,1,2.3,1c0.9,0,1.7-0.3,2.3-1C1202.3,479.4,1202.6,478.5,1202.6,477.5z"/>
	<path id="XMLID_1411_" fill="#6E6259" d="M1215.9,471.8l-4.2,10.5h-1.6l-4-10.5h1.8l2.7,7.6c0.2,0.6,0.3,1,0.4,1.5l0,0
		c0.1-0.5,0.2-1,0.3-1.4l2.8-7.6h1.8V471.8z"/>
	<path id="XMLID_1413_" fill="#6E6259" d="M1225.2,482.2h-1.7v-1.6l0,0c-0.7,1.3-1.8,1.9-3.2,1.9c-1,0-1.9-0.3-2.4-0.8
		c-0.6-0.6-0.9-1.3-0.9-2.2c0-2,1.1-3.1,3.4-3.4l3.1-0.4c0-1.8-0.7-2.7-2.2-2.7c-1.3,0-2.4,0.4-3.4,1.3v-1.7c1-0.7,2.2-1,3.6-1
		c2.5,0,3.7,1.3,3.7,3.9V482.2L1225.2,482.2z M1223.5,476.9l-2.5,0.3c-0.8,0.1-1.4,0.3-1.8,0.6c-0.4,0.3-0.6,0.8-0.6,1.5
		c0,0.5,0.2,0.9,0.5,1.3c0.4,0.3,0.8,0.5,1.5,0.5c0.8,0,1.5-0.3,2.1-0.9c0.5-0.6,0.8-1.3,0.8-2.2V476.9z"/>
	<path id="XMLID_1416_" fill="#6E6259" d="M1237,482.2h-1.7v-6c0-2.2-0.8-3.3-2.4-3.3c-0.8,0-1.5,0.3-2.1,0.9
		c-0.5,0.6-0.8,1.4-0.8,2.4v6h-1.7v-10.5h1.7v1.7l0,0c0.8-1.3,1.9-2,3.4-2c1.1,0,2,0.4,2.6,1.1s0.9,1.8,0.9,3.2L1237,482.2
		L1237,482.2z"/>
	<path id="XMLID_1420_" fill="#6E6259" d="M1247.3,481.7c-0.8,0.5-1.8,0.7-2.9,0.7c-1.5,0-2.7-0.5-3.6-1.5c-0.9-1-1.4-2.2-1.4-3.8
		c0-1.7,0.5-3.1,1.5-4.1s2.3-1.6,4-1.6c0.9,0,1.7,0.2,2.4,0.5v1.7c-0.8-0.5-1.6-0.8-2.5-0.8c-1.1,0-1.9,0.4-2.6,1.1
		c-0.7,0.8-1,1.8-1,3s0.3,2.2,1,2.9c0.6,0.7,1.5,1.1,2.6,1.1c0.9,0,1.8-0.3,2.6-0.9L1247.3,481.7L1247.3,481.7z"/>
	<path id="XMLID_1422_" fill="#6E6259" d="M1258.2,477.4h-7.4c0,1.2,0.3,2.1,0.9,2.7c0.6,0.6,1.4,0.9,2.5,0.9c1.2,0,2.3-0.4,3.2-1.2
		v1.6c-0.9,0.7-2.1,1-3.6,1s-2.6-0.5-3.5-1.4s-1.3-2.3-1.3-4c0-1.6,0.5-3,1.4-4c0.9-1,2.1-1.5,3.4-1.5c1.4,0,2.4,0.4,3.2,1.3
		c0.7,0.9,1.1,2.1,1.1,3.7L1258.2,477.4L1258.2,477.4z M1256.5,476c0-1-0.2-1.7-0.7-2.3s-1.1-0.8-1.9-0.8c-0.8,0-1.5,0.3-2,0.8
		c-0.6,0.6-0.9,1.3-1,2.2L1256.5,476L1256.5,476z"/>
	<path id="XMLID_1425_" fill="#6E6259" d="M1269.7,482.2h-1.7v-1.8l0,0c-0.8,1.3-2,2-3.6,2c-1.3,0-2.4-0.5-3.1-1.4
		c-0.8-0.9-1.2-2.2-1.2-3.8c0-1.7,0.4-3.1,1.3-4.2s2-1.6,3.5-1.6c1.4,0,2.5,0.6,3.1,1.7l0,0v-6.5h1.7V482.2z M1268,477.5V476
		c0-0.8-0.3-1.6-0.8-2.1c-0.6-0.6-1.3-0.9-2.1-0.9c-1,0-1.8,0.4-2.4,1.1c-0.6,0.7-0.9,1.8-0.9,3.1c0,1.2,0.3,2.2,0.8,2.9
		c0.6,0.7,1.3,1,2.3,1c0.9,0,1.7-0.3,2.3-1C1267.7,479.4,1268,478.5,1268,477.5z"/>
	<path id="XMLID_1428_" fill="#6E6259" d="M1286.2,482.2h-1.7v-1.6l0,0c-0.7,1.3-1.8,1.9-3.2,1.9c-1,0-1.9-0.3-2.4-0.8
		c-0.6-0.6-0.9-1.3-0.9-2.2c0-2,1.1-3.1,3.4-3.4l3.1-0.4c0-1.8-0.7-2.7-2.2-2.7c-1.3,0-2.4,0.4-3.4,1.3v-1.7c1-0.7,2.2-1,3.6-1
		c2.5,0,3.7,1.3,3.7,3.9V482.2L1286.2,482.2z M1284.6,476.9l-2.5,0.3c-0.8,0.1-1.4,0.3-1.8,0.6c-0.4,0.3-0.6,0.8-0.6,1.5
		c0,0.5,0.2,0.9,0.5,1.3c0.4,0.3,0.8,0.5,1.5,0.5c0.8,0,1.5-0.3,2.1-0.9c0.5-0.6,0.8-1.3,0.8-2.2V476.9z"/>
	<path id="XMLID_1431_" fill="#6E6259" d="M1298.1,482.2h-1.7v-6c0-2.2-0.8-3.3-2.4-3.3c-0.8,0-1.5,0.3-2.1,0.9
		c-0.5,0.6-0.8,1.4-0.8,2.4v6h-1.7v-10.5h1.7v1.7l0,0c0.8-1.3,1.9-2,3.4-2c1.1,0,2,0.4,2.6,1.1s0.9,1.8,0.9,3.2L1298.1,482.2
		L1298.1,482.2z"/>
	<path id="XMLID_1433_" fill="#6E6259" d="M1308.7,482.2h-1.7v-1.6l0,0c-0.7,1.3-1.8,1.9-3.2,1.9c-1,0-1.9-0.3-2.4-0.8
		c-0.6-0.6-0.9-1.3-0.9-2.2c0-2,1.1-3.1,3.4-3.4l3.1-0.4c0-1.8-0.7-2.7-2.2-2.7c-1.3,0-2.4,0.4-3.4,1.3v-1.7c1-0.7,2.2-1,3.6-1
		c2.5,0,3.7,1.3,3.7,3.9V482.2L1308.7,482.2z M1307,476.9l-2.5,0.3c-0.8,0.1-1.4,0.3-1.8,0.6c-0.4,0.3-0.6,0.8-0.6,1.5
		c0,0.5,0.2,0.9,0.5,1.3c0.4,0.3,0.8,0.5,1.5,0.5c0.8,0,1.5-0.3,2.1-0.9c0.5-0.6,0.8-1.3,0.8-2.2V476.9z"/>
	<path id="XMLID_1436_" fill="#6E6259" d="M1313.5,482.2h-1.7v-15.5h1.7V482.2z"/>
	<path id="XMLID_1438_" fill="#6E6259" d="M1325.2,471.8l-4.8,12.1c-0.9,2.2-2.1,3.2-3.6,3.2c-0.4,0-0.8,0-1.1-0.1v-1.5
		c0.4,0.1,0.7,0.2,1,0.2c0.8,0,1.5-0.5,1.9-1.5l0.8-2l-4.1-10.4h1.9l2.8,8c0,0.1,0.1,0.4,0.2,0.8h0.1c0-0.2,0.1-0.4,0.2-0.8l3-8.1
		L1325.2,471.8L1325.2,471.8z"/>
	<path id="XMLID_1440_" fill="#6E6259" d="M1331.9,482.1c-0.4,0.2-0.9,0.3-1.6,0.3c-1.8,0-2.7-1-2.7-3.1v-6.2h-1.8v-1.4h1.8v-2.6
		l1.7-0.5v3.1h2.6v1.4h-2.6v5.9c0,0.7,0.1,1.2,0.4,1.5c0.2,0.3,0.6,0.4,1.2,0.4c0.4,0,0.8-0.1,1.1-0.3L1331.9,482.1L1331.9,482.1z"
		/>
	<path id="XMLID_1442_" fill="#6E6259" d="M1335,469.1c-0.3,0-0.6-0.1-0.8-0.3s-0.3-0.5-0.3-0.8c0-0.3,0.1-0.6,0.3-0.8
		c0.2-0.2,0.5-0.3,0.8-0.3s0.6,0.1,0.8,0.3c0.2,0.2,0.3,0.5,0.3,0.8c0,0.3-0.1,0.6-0.3,0.8S1335.3,469.1,1335,469.1z M1335.8,482.2
		h-1.7v-10.5h1.7V482.2z"/>
	<path id="XMLID_1445_" fill="#6E6259" d="M1346.3,481.7c-0.8,0.5-1.8,0.7-2.9,0.7c-1.5,0-2.7-0.5-3.6-1.5s-1.4-2.2-1.4-3.8
		c0-1.7,0.5-3.1,1.5-4.1s2.3-1.6,4-1.6c0.9,0,1.7,0.2,2.4,0.5v1.7c-0.8-0.5-1.6-0.8-2.5-0.8c-1.1,0-1.9,0.4-2.6,1.1
		c-0.7,0.8-1,1.8-1,3s0.3,2.2,1,2.9c0.6,0.7,1.5,1.1,2.6,1.1c0.9,0,1.8-0.3,2.6-0.9L1346.3,481.7L1346.3,481.7z"/>
	<path id="XMLID_1447_" fill="#6E6259" d="M1348.2,481.8V480c0.9,0.7,1.9,1,3,1c1.5,0,2.2-0.5,2.2-1.5c0-0.3-0.1-0.5-0.2-0.7
		s-0.3-0.4-0.5-0.5s-0.5-0.3-0.8-0.4s-0.6-0.2-0.9-0.4c-0.5-0.2-0.9-0.4-1.2-0.6c-0.4-0.2-0.6-0.4-0.9-0.6c-0.2-0.2-0.4-0.5-0.5-0.8
		s-0.2-0.6-0.2-1.1s0.1-0.9,0.3-1.3c0.2-0.4,0.5-0.7,0.9-0.9c0.4-0.3,0.8-0.4,1.3-0.6c0.5-0.1,1-0.2,1.5-0.2c0.9,0,1.7,0.2,2.4,0.5
		v1.7c-0.8-0.5-1.7-0.8-2.7-0.8c-0.3,0-0.6,0-0.8,0.1c-0.3,0.1-0.5,0.2-0.6,0.3c-0.2,0.1-0.3,0.3-0.4,0.5s-0.1,0.4-0.1,0.6
		c0,0.3,0,0.5,0.1,0.7s0.2,0.3,0.4,0.5c0.2,0.1,0.4,0.3,0.7,0.4c0.3,0.1,0.6,0.2,0.9,0.4c0.5,0.2,0.9,0.4,1.2,0.5
		c0.4,0.2,0.7,0.4,0.9,0.6c0.3,0.2,0.5,0.5,0.6,0.8s0.2,0.7,0.2,1.1c0,0.5-0.1,1-0.3,1.3c-0.2,0.4-0.5,0.7-0.9,0.9
		c-0.4,0.3-0.8,0.4-1.3,0.6c-0.5,0.1-1,0.2-1.6,0.2C1349.9,482.5,1349,482.3,1348.2,481.8z"/>
	<path id="XMLID_1451_" fill="#6E6259" d="M1181.4,504.6v-2c0.2,0.2,0.5,0.4,0.8,0.6c0.3,0.2,0.7,0.3,1,0.4c0.3,0.1,0.7,0.2,1.1,0.3
		c0.4,0.1,0.7,0.1,1,0.1c1.1,0,1.8-0.2,2.4-0.6c0.5-0.4,0.8-1,0.8-1.7c0-0.4-0.1-0.7-0.3-1c-0.2-0.3-0.4-0.6-0.7-0.8
		c-0.3-0.2-0.7-0.5-1.1-0.7s-0.9-0.5-1.4-0.7c-0.5-0.3-1-0.5-1.4-0.8s-0.8-0.6-1.2-0.9c-0.3-0.3-0.6-0.7-0.8-1.1s-0.3-0.9-0.3-1.4
		c0-0.7,0.1-1.2,0.4-1.7s0.7-0.9,1.2-1.2s1-0.6,1.6-0.7c0.6-0.2,1.2-0.2,1.9-0.2c1.4,0,2.5,0.2,3.2,0.5v1.9c-0.9-0.6-2-0.9-3.3-0.9
		c-0.4,0-0.7,0-1.1,0.1s-0.7,0.2-1,0.4c-0.3,0.2-0.5,0.4-0.7,0.7c-0.2,0.3-0.3,0.6-0.3,1s0.1,0.7,0.2,1c0.1,0.3,0.3,0.5,0.6,0.7
		c0.3,0.2,0.6,0.4,1,0.7c0.4,0.2,0.8,0.4,1.4,0.7c0.5,0.3,1,0.5,1.5,0.8s0.9,0.6,1.2,0.9c0.4,0.3,0.6,0.7,0.8,1.2
		c0.2,0.4,0.3,0.9,0.3,1.4c0,0.7-0.1,1.3-0.4,1.8s-0.7,0.9-1.1,1.2s-1,0.5-1.7,0.7c-0.6,0.1-1.3,0.2-2,0.2c-0.2,0-0.5,0-0.9-0.1
		c-0.3,0-0.7-0.1-1-0.2c-0.4-0.1-0.7-0.2-1-0.3C1181.8,504.8,1181.6,504.8,1181.4,504.6z"/>
	<path id="XMLID_1453_" fill="#6E6259" d="M1201.7,505.2h-1.7v-6c0-2.2-0.8-3.3-2.4-3.3c-0.8,0-1.5,0.3-2.1,0.9s-0.8,1.4-0.8,2.4
		v5.9h-1.7v-15.5h1.7v6.8l0,0c0.8-1.3,1.9-2,3.4-2c2.4,0,3.5,1.4,3.5,4.3L1201.7,505.2L1201.7,505.2z"/>
	<path id="XMLID_1455_" fill="#6E6259" d="M1212.3,505.2h-1.7v-1.6l0,0c-0.7,1.3-1.8,1.9-3.2,1.9c-1,0-1.9-0.3-2.4-0.8
		c-0.6-0.6-0.9-1.3-0.9-2.2c0-2,1.1-3.1,3.4-3.4l3.1-0.4c0-1.8-0.7-2.7-2.2-2.7c-1.3,0-2.4,0.4-3.4,1.3v-1.7c1-0.7,2.2-1,3.6-1
		c2.5,0,3.7,1.3,3.7,3.9L1212.3,505.2L1212.3,505.2z M1210.6,499.9l-2.5,0.3c-0.8,0.1-1.4,0.3-1.8,0.6c-0.4,0.3-0.6,0.8-0.6,1.5
		c0,0.5,0.2,0.9,0.5,1.3c0.4,0.3,0.8,0.5,1.5,0.5c0.8,0,1.5-0.3,2.1-0.9c0.5-0.6,0.8-1.3,0.8-2.2V499.9z"/>
	<path id="XMLID_1458_" fill="#6E6259" d="M1220.9,496.5c-0.3-0.2-0.7-0.3-1.3-0.3c-0.7,0-1.3,0.3-1.8,1s-0.7,1.6-0.7,2.8v5.3h-1.7
		v-10.5h1.7v2.2l0,0c0.2-0.7,0.6-1.3,1.1-1.7c0.5-0.4,1-0.6,1.6-0.6c0.4,0,0.8,0,1,0.1L1220.9,496.5L1220.9,496.5z"/>
	<path id="XMLID_1460_" fill="#6E6259" d="M1230.2,505.2h-1.7v-1.6l0,0c-0.7,1.3-1.8,1.9-3.2,1.9c-1,0-1.9-0.3-2.4-0.8
		c-0.6-0.6-0.9-1.3-0.9-2.2c0-2,1.1-3.1,3.4-3.4l3.1-0.4c0-1.8-0.7-2.7-2.2-2.7c-1.3,0-2.4,0.4-3.4,1.3v-1.7c1-0.7,2.2-1,3.6-1
		c2.5,0,3.7,1.3,3.7,3.9V505.2L1230.2,505.2z M1228.5,499.9l-2.5,0.3c-0.8,0.1-1.4,0.3-1.8,0.6c-0.4,0.3-0.6,0.8-0.6,1.5
		c0,0.5,0.2,0.9,0.5,1.3c0.4,0.3,0.8,0.5,1.5,0.5c0.8,0,1.5-0.3,2.1-0.9c0.5-0.6,0.8-1.3,0.8-2.2V499.9z"/>
	<path id="XMLID_1465_" fill="#6E6259" d="M1235.1,503.7L1235.1,503.7v1.5h-1.7v-15.5h1.7v6.9l0,0c0.8-1.4,2-2.1,3.6-2.1
		c1.3,0,2.4,0.5,3.1,1.4s1.1,2.2,1.1,3.8c0,1.7-0.4,3.1-1.3,4.2c-0.9,1.1-2,1.6-3.5,1.6C1236.8,505.5,1235.8,504.9,1235.1,503.7z
		 M1235,499.5v1.5c0,0.9,0.3,1.6,0.8,2.2c0.6,0.6,1.3,0.9,2.1,0.9c1,0,1.8-0.4,2.4-1.2c0.6-0.8,0.9-1.9,0.9-3.2
		c0-1.2-0.3-2.1-0.8-2.7c-0.5-0.7-1.3-1-2.2-1c-1,0-1.8,0.3-2.3,1C1235.3,497.6,1235,498.5,1235,499.5z"/>
	<path id="XMLID_1468_" fill="#6E6259" d="M1247.3,505.2h-1.7v-15.5h1.7V505.2z"/>
	<path id="XMLID_1470_" fill="#6E6259" d="M1259.1,500.4h-7.4c0,1.2,0.3,2.1,0.9,2.7s1.4,0.9,2.5,0.9c1.2,0,2.3-0.4,3.2-1.2v1.6
		c-0.9,0.7-2.1,1-3.6,1s-2.6-0.5-3.5-1.4c-0.9-0.9-1.3-2.3-1.3-4c0-1.6,0.5-3,1.4-4s2.1-1.5,3.4-1.5c1.4,0,2.4,0.4,3.2,1.3
		c0.7,0.9,1.1,2.1,1.1,3.7L1259.1,500.4L1259.1,500.4z M1257.4,499c0-1-0.2-1.7-0.7-2.3s-1.1-0.8-1.9-0.8s-1.5,0.3-2,0.8
		c-0.6,0.6-0.9,1.3-1,2.2L1257.4,499L1257.4,499z"/>
	<path id="XMLID_1473_" fill="#6E6259" d="M1276.3,505.2h-1.7v-1.8l0,0c-0.8,1.3-2,2-3.6,2c-1.3,0-2.4-0.5-3.1-1.4
		c-0.8-0.9-1.2-2.2-1.2-3.8c0-1.7,0.4-3.1,1.3-4.2s2-1.6,3.5-1.6c1.4,0,2.5,0.6,3.1,1.7l0,0v-6.5h1.7V505.2z M1274.6,500.5v-1.6
		c0-0.8-0.3-1.6-0.8-2.1c-0.6-0.6-1.3-0.9-2.1-0.9c-1,0-1.8,0.4-2.4,1.1c-0.6,0.7-0.9,1.8-0.9,3.1c0,1.2,0.3,2.2,0.8,2.9
		c0.6,0.7,1.3,1,2.3,1c0.9,0,1.7-0.3,2.3-1C1274.3,502.4,1274.6,501.5,1274.6,500.5z"/>
	<path id="XMLID_1476_" fill="#6E6259" d="M1287.1,505.2h-1.7v-1.6l0,0c-0.7,1.3-1.8,1.9-3.2,1.9c-1,0-1.9-0.3-2.4-0.8
		c-0.6-0.6-0.9-1.3-0.9-2.2c0-2,1.1-3.1,3.4-3.4l3.1-0.4c0-1.8-0.7-2.7-2.2-2.7c-1.3,0-2.4,0.4-3.4,1.3v-1.7c1-0.7,2.2-1,3.6-1
		c2.5,0,3.7,1.3,3.7,3.9L1287.1,505.2L1287.1,505.2z M1285.5,499.9l-2.5,0.3c-0.8,0.1-1.4,0.3-1.8,0.6c-0.4,0.3-0.6,0.8-0.6,1.5
		c0,0.5,0.2,0.9,0.5,1.3c0.4,0.3,0.8,0.5,1.5,0.5c0.8,0,1.5-0.3,2.1-0.9c0.5-0.6,0.8-1.3,0.8-2.2V499.9z"/>
	<path id="XMLID_1479_" fill="#6E6259" d="M1289.7,504.8V503c0.9,0.7,1.9,1,3,1c1.5,0,2.2-0.5,2.2-1.5c0-0.3-0.1-0.5-0.2-0.7
		c-0.1-0.2-0.3-0.4-0.5-0.5c-0.2-0.1-0.5-0.3-0.8-0.4s-0.6-0.2-0.9-0.4c-0.5-0.2-0.9-0.4-1.2-0.6c-0.4-0.2-0.6-0.4-0.9-0.6
		c-0.2-0.2-0.4-0.5-0.5-0.8c-0.1-0.3-0.2-0.6-0.2-1.1s0.1-0.9,0.3-1.3c0.2-0.4,0.5-0.7,0.9-0.9c0.4-0.3,0.8-0.4,1.3-0.6
		c0.5-0.1,1-0.2,1.5-0.2c0.9,0,1.7,0.2,2.4,0.5v1.7c-0.8-0.5-1.7-0.8-2.7-0.8c-0.3,0-0.6,0-0.8,0.1c-0.3,0.1-0.5,0.2-0.6,0.3
		c-0.2,0.1-0.3,0.3-0.4,0.5s-0.1,0.4-0.1,0.6c0,0.3,0,0.5,0.1,0.7s0.2,0.3,0.4,0.5c0.2,0.1,0.4,0.3,0.7,0.4c0.3,0.1,0.6,0.2,0.9,0.4
		c0.5,0.2,0.9,0.4,1.2,0.5c0.4,0.2,0.7,0.4,0.9,0.6c0.3,0.2,0.5,0.5,0.6,0.8s0.2,0.7,0.2,1.1c0,0.5-0.1,1-0.3,1.3
		c-0.2,0.4-0.5,0.7-0.9,0.9c-0.4,0.3-0.8,0.4-1.3,0.6c-0.5,0.1-1,0.2-1.6,0.2C1291.4,505.5,1290.5,505.3,1289.7,504.8z"/>
	<path id="XMLID_1481_" fill="#6E6259" d="M1307.8,505.2h-1.7v-6c0-2.2-0.8-3.3-2.4-3.3c-0.8,0-1.5,0.3-2.1,0.9s-0.8,1.4-0.8,2.4
		v5.9h-1.7v-15.5h1.7v6.8l0,0c0.8-1.3,1.9-2,3.4-2c2.4,0,3.5,1.4,3.5,4.3v6.5H1307.8z"/>
	<path id="XMLID_1483_" fill="#6E6259" d="M1312.7,503.7L1312.7,503.7v1.5h-1.7v-15.5h1.7v6.9l0,0c0.8-1.4,2-2.1,3.6-2.1
		c1.3,0,2.4,0.5,3.1,1.4s1.1,2.2,1.1,3.8c0,1.7-0.4,3.1-1.3,4.2s-2,1.6-3.5,1.6C1314.5,505.5,1313.4,504.9,1312.7,503.7z
		 M1312.7,499.5v1.5c0,0.9,0.3,1.6,0.8,2.2c0.6,0.6,1.3,0.9,2.1,0.9c1,0,1.8-0.4,2.4-1.2c0.6-0.8,0.9-1.9,0.9-3.2
		c0-1.2-0.3-2.1-0.8-2.7c-0.5-0.7-1.3-1-2.2-1c-1,0-1.8,0.3-2.3,1C1313,497.6,1312.7,498.5,1312.7,499.5z"/>
	<path id="XMLID_1486_" fill="#6E6259" d="M1327.7,505.5c-1.5,0-2.8-0.5-3.7-1.5c-0.9-1-1.4-2.3-1.4-3.9c0-1.8,0.5-3.1,1.4-4.1
		c1-1,2.3-1.5,3.9-1.5s2.8,0.5,3.6,1.4c0.9,1,1.3,2.3,1.3,4s-0.5,3-1.4,4C1330.5,505,1329.2,505.5,1327.7,505.5z M1327.8,495.9
		c-1.1,0-1.9,0.4-2.6,1.1s-0.9,1.7-0.9,3c0,1.2,0.3,2.2,0.9,2.9s1.5,1.1,2.5,1.1c1.1,0,1.9-0.4,2.5-1.1s0.9-1.7,0.9-3
		s-0.3-2.3-0.9-3C1329.7,496.3,1328.9,495.9,1327.8,495.9z"/>
	<path id="XMLID_1489_" fill="#6E6259" d="M1343,505.2h-1.7v-1.6l0,0c-0.7,1.3-1.8,1.9-3.2,1.9c-1,0-1.9-0.3-2.4-0.8
		c-0.6-0.6-0.9-1.3-0.9-2.2c0-2,1.1-3.1,3.4-3.4l3.1-0.4c0-1.8-0.7-2.7-2.2-2.7c-1.3,0-2.4,0.4-3.4,1.3v-1.7c1-0.7,2.2-1,3.6-1
		c2.5,0,3.7,1.3,3.7,3.9V505.2z M1341.3,499.9l-2.5,0.3c-0.8,0.1-1.4,0.3-1.8,0.6c-0.4,0.3-0.6,0.8-0.6,1.5c0,0.5,0.2,0.9,0.5,1.3
		c0.4,0.3,0.8,0.5,1.5,0.5c0.8,0,1.5-0.3,2.1-0.9c0.5-0.6,0.8-1.3,0.8-2.2V499.9z"/>
	<path id="XMLID_1492_" fill="#6E6259" d="M1351.6,496.5c-0.3-0.2-0.7-0.3-1.3-0.3c-0.7,0-1.3,0.3-1.8,1s-0.7,1.6-0.7,2.8v5.3h-1.7
		v-10.5h1.7v2.2l0,0c0.2-0.7,0.6-1.3,1.1-1.7c0.5-0.4,1-0.6,1.6-0.6c0.4,0,0.8,0,1,0.1v1.7H1351.6z"/>
	<path id="XMLID_1496_" fill="#6E6259" d="M1362.4,505.2h-1.7v-1.8l0,0c-0.8,1.3-2,2-3.6,2c-1.3,0-2.4-0.5-3.1-1.4
		c-0.8-0.9-1.2-2.2-1.2-3.8c0-1.7,0.4-3.1,1.3-4.2s2-1.6,3.5-1.6c1.4,0,2.5,0.6,3.1,1.7l0,0v-6.5h1.7L1362.4,505.2L1362.4,505.2z
		 M1360.7,500.5v-1.6c0-0.8-0.3-1.6-0.8-2.1c-0.6-0.6-1.3-0.9-2.1-0.9c-1,0-1.8,0.4-2.4,1.1s-0.9,1.8-0.9,3.1c0,1.2,0.3,2.2,0.8,2.9
		c0.6,0.7,1.3,1,2.3,1c0.9,0,1.7-0.3,2.3-1C1360.4,502.4,1360.7,501.5,1360.7,500.5z"/>
	<path id="XMLID_1499_" fill="#6E6259" d="M1365.1,504.8V503c0.9,0.7,1.9,1,3,1c1.5,0,2.2-0.5,2.2-1.5c0-0.3-0.1-0.5-0.2-0.7
		s-0.3-0.4-0.5-0.5s-0.5-0.3-0.8-0.4s-0.6-0.2-0.9-0.4c-0.5-0.2-0.9-0.4-1.2-0.6c-0.4-0.2-0.6-0.4-0.9-0.6c-0.2-0.2-0.4-0.5-0.5-0.8
		s-0.2-0.6-0.2-1.1s0.1-0.9,0.3-1.3c0.2-0.4,0.5-0.7,0.9-0.9c0.4-0.3,0.8-0.4,1.3-0.6c0.5-0.1,1-0.2,1.5-0.2c0.9,0,1.7,0.2,2.4,0.5
		v1.7c-0.8-0.5-1.7-0.8-2.7-0.8c-0.3,0-0.6,0-0.8,0.1c-0.3,0.1-0.5,0.2-0.6,0.3c-0.2,0.1-0.3,0.3-0.4,0.5s-0.1,0.4-0.1,0.6
		c0,0.3,0,0.5,0.1,0.7s0.2,0.3,0.4,0.5c0.2,0.1,0.4,0.3,0.7,0.4c0.3,0.1,0.6,0.2,0.9,0.4c0.5,0.2,0.9,0.4,1.2,0.5
		c0.4,0.2,0.7,0.4,0.9,0.6c0.3,0.2,0.5,0.5,0.6,0.8s0.2,0.7,0.2,1.1c0,0.5-0.1,1-0.3,1.3c-0.2,0.4-0.5,0.7-0.9,0.9
		c-0.4,0.3-0.8,0.4-1.3,0.6c-0.5,0.1-1,0.2-1.6,0.2C1366.8,505.5,1365.9,505.3,1365.1,504.8z"/>
</g>
<g id="XMLID_1_">
	<path id="XMLID_24_" fill="#6E6259" d="M1071.7,440.7c-2.1,0-3.8-1.7-3.8-3.8s1.7-3.8,3.8-3.8c2.1,0,3.8,1.7,3.8,3.8
		C1075.4,439.1,1073.8,440.7,1071.7,440.7z M1073.1,426h-65.2c-6.1,0-11,4.9-11,11s4.9,11,11,11h65.2c6.1,0,11-4.9,11-11
		S1079.2,426,1073.1,426z"/>
	<path id="XMLID_16_" fill="#6E6259" d="M1071.7,465.1c-2.1,0-3.8-1.7-3.8-3.8s1.7-3.8,3.8-3.8c2.1,0,3.8,1.7,3.8,3.8
		C1075.4,463.5,1073.8,465.1,1071.7,465.1z M1073.1,450.4h-65.2c-6.1,0-11,4.9-11,11s4.9,11,11,11h65.2c6.1,0,11-4.9,11-11
		S1079.2,450.4,1073.1,450.4z"/>
	<path id="XMLID_8_" fill="#6E6259" d="M1071.7,489.5c-2.1,0-3.8-1.7-3.8-3.8c0-2.1,1.7-3.8,3.8-3.8c2.1,0,3.8,1.7,3.8,3.8
		C1075.4,487.9,1073.8,489.5,1071.7,489.5z M1073.1,474.8h-65.2c-6.1,0-11,4.9-11,11s4.9,11,11,11h65.2c6.1,0,11-4.9,11-11
		S1079.2,474.8,1073.1,474.8z"/>
	<rect id="XMLID_7_" x="1021.9" y="508" fill="#F3900B" width="37.1" height="8.4"/>
	<rect id="XMLID_6_" x="1038" y="499.4" fill="#F3900B" width="5" height="12.6"/>
	<rect id="XMLID_5_" x="989.9" y="510.7" fill="#F3900B" width="29.8" height="2.8"/>
	<rect id="XMLID_4_" x="1061.4" y="510.7" fill="#F3900B" width="29.8" height="2.8"/>
</g>
<path id="XMLID_1248_" fill="#FFFFFF" stroke="#57C4F1" stroke-width="7" stroke-miterlimit="10" d="M1075.4,299.8
	c0,0,1.9-25.9-21.9-28.9c-20.4-2.1-26.6,16.8-26.6,16.8s-6.1-5.9-14.5-1.1c-7.5,4.6-6.1,13-6.1,13s-16.6,3.2-16.6,20.1
	c0.4,16.8,18,17,18,17h64.8c0,0,16.4,0,18.7-16C1092.3,303.2,1075.4,299.8,1075.4,299.8z"/>
<path id="XMLID_1720_" fill="#5555FF" d="M474.3,330.8c0.1,0,0.1,0,0.2,0c0.2,0.2,0.3,0.5,0.5,0.7c2.3,2.3,4.7,4.7,7,7
	c0.8,0.8,1.5,1.5,2.4,2.4c-4.5,4.5-8.9,8.9-13.3,13.3c4.5,4.4,8.9,8.8,13.5,13.4c4.4-4.4,8.8-8.8,13.1-13.1c3.3,3.3,6.5,6.5,9.9,9.9
	c-4.4,4.3-8.8,8.7-13.2,13.2c0.2,0.2,0.4,0.4,0.6,0.7c4,4,7.9,8,11.9,11.9c0.8,0.8,0.8,0.8,0,1.5c-3.9,3.9-7.8,7.8-11.7,11.8
	c-0.2,0.2-0.5,0.5-0.8,0.8c4.5,4.5,8.9,8.8,13.2,13.1c-3.3,3.3-6.6,6.6-10,10c-4.3-4.3-8.7-8.7-13.3-13.3c-0.1,0.2-0.3,0.5-0.5,0.7
	c-4,4-8,8.1-12.1,12.1c-0.5,0.5-0.5,0.8,0,1.3c4,4,8,8,12,12c0.2,0.2,0.4,0.4,0.5,0.6c-3.3,3.3-6.6,6.6-9.9,9.9
	c-4.3-4.3-8.7-8.7-13.1-13.1c-0.2,0.2-0.4,0.3-0.5,0.4c-4.2,4.2-8.3,8.4-12.5,12.6c-0.1,0.1-0.2,0.3-0.3,0.5c-0.1,0-0.1,0-0.2,0
	c-0.1-0.2-0.2-0.4-0.3-0.5c-4.2-4.2-8.3-8.4-12.5-12.5c-0.2-0.2-0.4-0.3-0.7-0.5c-4.4,4.4-8.8,8.8-13,13c-3.3-3.3-6.5-6.5-9.9-9.9
	c4.3-4.3,8.7-8.7,13.1-13.1c-0.1-0.1-0.2-0.3-0.3-0.4c-4.2-4.2-8.3-8.4-12.5-12.6c-0.5-0.5-0.7-0.3-1.1,0.1
	c-4,4.1-8.1,8.1-12.1,12.1c-0.2,0.2-0.4,0.4-0.6,0.6c-0.2-0.2-0.4-0.4-0.6-0.5c-2.9-2.9-5.8-5.8-8.7-8.7c-0.2-0.2-0.5-0.4-0.7-0.6
	c0-0.1,0-0.1,0-0.2c0.2-0.1,0.4-0.3,0.6-0.4c4.1-4.1,8.1-8.1,12.2-12.2c0.2-0.2,0.3-0.4,0.7-0.8c-4.4-4.4-8.8-8.8-13.3-13.2
	c4.4-4.4,8.9-8.8,13.3-13.2c-4.5-4.4-8.9-8.9-13.2-13.2c3.3-3.4,6.6-6.6,10-10c4.4,4.4,8.8,8.8,13.1,13.1c4.5-4.4,8.9-8.8,13.4-13.3
	c-4.4-4.4-8.8-8.8-13.1-13.1c3.3-3.3,6.6-6.6,10-9.9c4.3,4.3,8.7,8.8,13.2,13.2c0.2-0.2,0.4-0.3,0.5-0.5c4.1-4.1,8.3-8.3,12.4-12.4
	c0.1-0.1,0.2-0.3,0.3-0.5c0.1,0,0.1,0,0.2,0c0.1,0.2,0.3,0.4,0.4,0.6c4,4.1,8.1,8.1,12.1,12.2c0.2,0.2,0.4,0.4,0.7,0.6
	c0.2-0.2,0.3-0.3,0.5-0.4c4.2-4.2,8.3-8.3,12.5-12.5C474.2,331.2,474.2,331,474.3,330.8z M457.8,360.7c-0.2-0.2-0.3-0.4-0.5-0.6
	c-2.9-2.9-5.9-5.9-8.8-8.9c-0.5-0.6-0.9-0.5-1.4,0c-12.9,13-25.9,25.9-38.9,38.9c-0.5,0.5-0.6,0.8,0,1.3c3,2.9,5.9,5.9,8.9,8.9
	c0.2,0.2,0.4,0.4,0.5,0.5C431.1,387.5,444.4,374.1,457.8,360.7z M456.1,372.5c-0.2,0.2-0.4,0.3-0.6,0.5
	c-10.8,10.8-21.5,21.5-32.3,32.3c-0.5,0.5-0.5,0.8,0,1.3c3,3,6,6,9,8.9c0.2,0.2,0.4,0.3,0.5,0.4c11.2-11.2,22.3-22.3,33.4-33.4
	C462.8,379.2,459.5,375.9,456.1,372.5z M471.3,407.5c-0.2-0.2-0.4-0.4-0.5-0.6c-3-3-6-6-9-9c-0.5-0.5-0.7-0.5-1.2,0
	c-7.4,7.5-14.9,14.9-22.3,22.3c-0.5,0.5-0.5,0.8,0,1.3c3,2.9,6,5.9,8.9,8.9c0.5,0.5,0.8,0.6,1.4,0c3.8-3.9,7.7-7.7,11.6-11.6
	c3.6-3.6,7.1-7.1,10.7-10.7C470.9,408,471,407.8,471.3,407.5z"/>
<path id="XMLID_1719_" fill="#FFFFFF" d="M447.9,451.1c0.1-0.2,0.2-0.4,0.3-0.5c4.2-4.2,8.3-8.4,12.5-12.6c0.1-0.1,0.3-0.3,0.5-0.4
	c4.4,4.4,8.8,8.8,13.1,13.1c3.4-3.3,6.6-6.6,9.9-9.9c-0.1-0.1-0.3-0.4-0.5-0.6c-4-4-8-8-12-12c-0.5-0.5-0.5-0.8,0-1.3
	c4-4,8.1-8,12.1-12.1c0.2-0.2,0.3-0.5,0.5-0.7c4.6,4.6,9,9,13.3,13.3c3.4-3.4,6.7-6.7,10-10c-4.3-4.3-8.7-8.7-13.2-13.1
	c0.3-0.4,0.5-0.6,0.8-0.8c3.9-3.9,7.8-7.8,11.7-11.8c0.8-0.8,0.8-0.8,0-1.5c-4-4-7.9-8-11.9-11.9c-0.2-0.2-0.4-0.4-0.6-0.7
	c4.5-4.4,8.9-8.9,13.2-13.2c-3.4-3.4-6.6-6.6-9.9-9.9c-4.3,4.3-8.7,8.7-13.1,13.1c-4.6-4.6-9-9-13.5-13.4c4.4-4.4,8.8-8.8,13.3-13.3
	c-0.9-0.9-1.7-1.6-2.4-2.4c-2.3-2.3-4.7-4.7-7-7c-0.2-0.2-0.3-0.5-0.5-0.7c11.1,0,22.2,0,33.4,0c0,40.1,0,80.2,0,120.3
	C487.9,451.1,467.9,451.1,447.9,451.1z"/>
<path id="XMLID_1718_" fill="#FFFFFF" d="M447.7,330.8c-0.1,0.2-0.2,0.4-0.3,0.5c-4.1,4.1-8.3,8.3-12.4,12.4
	c-0.1,0.1-0.3,0.3-0.5,0.5c-4.4-4.4-8.8-8.9-13.2-13.2c-3.4,3.4-6.6,6.6-10,9.9c4.3,4.3,8.7,8.7,13.1,13.1c-4.5,4.5-9,8.9-13.4,13.3
	c-4.3-4.3-8.7-8.7-13.1-13.1c-3.4,3.4-6.7,6.7-10,10c4.4,4.4,8.8,8.8,13.2,13.2c-4.5,4.4-8.9,8.8-13.3,13.2
	c4.5,4.5,8.9,8.9,13.3,13.2c-0.3,0.4-0.5,0.6-0.7,0.8c-4.1,4.1-8.1,8.1-12.2,12.2c-0.2,0.2-0.4,0.3-0.6,0.4c0-28.9,0-57.7,0-86.6
	C407.7,330.8,427.7,330.8,447.7,330.8z"/>
<path id="XMLID_1717_" fill="#FFFFFF" d="M387.7,417.6c0.2,0.2,0.5,0.4,0.7,0.6c2.9,2.9,5.8,5.8,8.7,8.7c0.2,0.2,0.3,0.3,0.6,0.5
	c0.2-0.2,0.4-0.4,0.6-0.6c4-4,8.1-8.1,12.1-12.1c0.4-0.4,0.6-0.5,1.1-0.1c4.2,4.2,8.3,8.4,12.5,12.6c0.1,0.1,0.2,0.2,0.3,0.4
	c-4.4,4.4-8.8,8.8-13.1,13.1c3.4,3.4,6.6,6.6,9.9,9.9c4.2-4.2,8.6-8.6,13-13c0.3,0.3,0.5,0.4,0.7,0.5c4.2,4.2,8.3,8.4,12.5,12.5
	c0.1,0.1,0.2,0.3,0.3,0.5c-20,0-40,0-60,0C387.7,439.9,387.7,428.7,387.7,417.6z"/>
<path id="XMLID_1716_" fill="#FFFFFF" d="M474.3,330.8c-0.1,0.2-0.2,0.4-0.3,0.5c-4.2,4.2-8.3,8.3-12.5,12.5
	c-0.1,0.1-0.3,0.2-0.5,0.4c-0.2-0.2-0.4-0.4-0.7-0.6c-4-4.1-8.1-8.1-12.1-12.2c-0.2-0.2-0.3-0.4-0.4-0.6
	C456.7,330.8,465.5,330.8,474.3,330.8z"/>
<path id="XMLID_1714_" fill="#FFFFFF" d="M457.8,360.7c-13.4,13.4-26.8,26.8-40.2,40.2c-0.1-0.1-0.3-0.3-0.5-0.5
	c-3-3-5.9-5.9-8.9-8.9c-0.5-0.5-0.5-0.8,0-1.3c13-13,25.9-25.9,38.9-38.9c0.5-0.5,0.8-0.6,1.4,0c2.9,3,5.9,5.9,8.8,8.9
	C457.5,360.3,457.7,360.5,457.8,360.7z"/>
<path id="XMLID_1713_" fill="#FFFFFF" d="M456.1,372.5c3.4,3.4,6.7,6.7,10,10c-11.1,11.1-22.2,22.2-33.4,33.4
	c-0.1-0.1-0.3-0.2-0.5-0.4c-3-3-6-6-9-8.9c-0.5-0.5-0.5-0.8,0-1.3c10.8-10.7,21.5-21.5,32.3-32.3
	C455.7,372.8,455.9,372.6,456.1,372.5z"/>
<path id="XMLID_1712_" fill="#FFFFFF" d="M471.3,407.5c-0.2,0.2-0.4,0.4-0.6,0.6c-3.6,3.6-7.1,7.1-10.7,10.7
	c-3.9,3.9-7.7,7.7-11.6,11.6c-0.5,0.6-0.9,0.5-1.4,0c-2.9-3-5.9-6-8.9-8.9c-0.5-0.5-0.5-0.8,0-1.3c7.5-7.4,14.9-14.9,22.3-22.3
	c0.5-0.5,0.7-0.5,1.2,0c3,3,6,6,9,9C470.9,407.1,471.1,407.3,471.3,407.5z"/>
<circle id="XMLID_1144_" fill="#FFFFFF" stroke="#539855" stroke-miterlimit="10" cx="681.7" cy="477.2" r="23.9"/>
<g id="XMLID_1143_">
	<path id="XMLID_1184_" fill="#549955" d="M683.1,472.4"/>
	<path id="XMLID_1181_" fill="#549955" d="M681.4,462.6c-2.7,0-5.3,0.8-7.5,2.1c-0.6-0.5-1.4-0.8-2.2-0.8l0,0
		c-1.9,0-3.5,1.6-3.5,3.5l0,0c0,0.8,0.3,1.6,0.8,2.2c-1.3,2.2-2.1,4.8-2.1,7.5c0,0.5,0.4,0.9,0.8,0.9c0.5,0,0.8-0.4,0.8-0.9
		c0-2.4,0.6-4.6,1.8-6.5c0.4,0.2,0.9,0.3,1.4,0.3l0,0c1.9,0,3.5-1.6,3.5-3.5c0-0.5-0.1-0.9-0.3-1.4c1.9-1.1,4.1-1.7,6.4-1.7
		c0.5,0,0.9-0.4,0.9-0.8C682.3,463,681.9,462.6,681.4,462.6z M671.8,469.3c-0.4,0-0.8-0.1-1.2-0.4l0,0c-0.4-0.3-0.7-0.9-0.7-1.4
		c0-1,0.8-1.8,1.8-1.8c0.6,0,1.1,0.2,1.4,0.7l0,0c0.3,0.3,0.4,0.7,0.4,1.1C673.6,468.4,672.8,469.3,671.8,469.3z"/>
	<path id="XMLID_1180_" fill="#549955" d="M676.4,487.4L676.4,487.4L676.4,487.4z"/>
	<path id="XMLID_1179_" fill="#549955" d="M673.3,484.4L673.3,484.4L673.3,484.4z"/>
	<path id="XMLID_1176_" fill="#549955" d="M689.8,474.3L689.8,474.3c0.2-0.2,1.3-1.3,1.9-1.9c0.2-0.2,0.2-0.4,0.2-0.6
		c0-0.5-0.4-0.8-0.8-0.8c-0.2,0-0.4,0.1-0.5,0.2c-0.6,0.6-1.7,1.7-1.9,1.9l-1.9-1.9c0.3-0.3,1.3-1.3,1.9-1.9
		c0.2-0.2,0.2-0.4,0.2-0.6c0-0.5-0.4-0.8-0.8-0.8c-0.2,0-0.4,0.1-0.5,0.2c-0.6,0.6-1.7,1.7-1.9,1.9l-1.7-1.7c-0.4-0.4-1-0.4-1.4,0
		l-2.4,2.4c0,0-1.2-1.2-1.9-1.9c-0.2-0.2-0.4-0.2-0.6-0.2c-0.5,0-0.8,0.4-0.8,0.8c0,0.2,0.1,0.4,0.2,0.5c0.6,0.6,1.6,1.7,1.9,1.9
		l-2.5,2.5l0,0c-0.3-0.3-1.3-1.3-1.9-1.9c-0.2-0.2-0.4-0.2-0.6-0.2s-0.4,0.1-0.6,0.2c-0.1,0.2-0.2,0.4-0.2,0.6s0.1,0.4,0.2,0.5
		c0.6,0.6,1.6,1.6,1.9,1.9l-2.4,2.4c-0.4,0.4-0.4,1,0,1.4l1.7,1.7l0,0c-0.4,0.4-1.4,1.4-1.9,1.9c-0.2,0.2-0.2,0.4-0.2,0.6
		c0,0.5,0.4,0.8,0.8,0.8c0.2,0,0.4-0.1,0.5-0.2c0.5-0.5,1.5-1.5,1.9-1.9l1.9,1.9l0,0c-0.4,0.4-1.4,1.4-1.9,1.9
		c-0.2,0.2-0.2,0.4-0.2,0.6c0,0.5,0.4,0.8,0.8,0.8c0.2,0,0.4-0.1,0.5-0.2c0.5-0.5,1.6-1.6,1.9-1.9l1.8,1.8c0.4,0.4,1,0.4,1.4,0
		l2.4-2.4c0.4,0.4,1.4,1.4,1.9,1.9c0.2,0.2,0.4,0.2,0.6,0.2c0.5,0,0.8-0.4,0.8-0.8l0,0c0-0.2-0.1-0.4-0.2-0.5
		c-0.5-0.5-1.6-1.6-1.9-1.9l2.5-2.5c0.4,0.4,1.4,1.4,1.9,1.9c0.2,0.2,0.4,0.2,0.6,0.2c0.5,0,0.8-0.4,0.8-0.8l0,0
		c0-0.2-0.1-0.4-0.2-0.5c-0.5-0.5-1.6-1.6-1.9-1.9l2.4-2.4c0.4-0.4,0.4-1,0-1.4L689.8,474.3z M685.9,474.4c-0.2,0.4-0.6,0.5-1,0.4
		l0.6,2.3c0.1,0.4-0.2,0.9-0.6,1l-4.3,1.3l0.8,3.1c0.1,0.4-0.1,0.9-0.6,1c-0.4,0.1-0.9-0.1-1-0.5l-1-3.8c-0.1-0.4,0.1-0.9,0.6-1
		l4.3-1.3l-0.4-1.5c-0.3,0.3-0.7,0.4-1,0.2c-0.3-0.2-0.4-0.6-0.3-1l0.8-1.9c0-0.1,0.1-0.2,0.2-0.3c0.2-0.2,0.4-0.3,0.6-0.3
		c0.2,0,0.3,0.1,0.4,0.1l1.6,1.2C686,473.6,686.1,474,685.9,474.4z"/>
	<path id="XMLID_1173_" fill="#549955" d="M697.7,478.8c0-0.5-0.4-0.9-0.8-0.9c-0.5,0-0.8,0.4-0.8,0.9c0,2.4-0.6,4.6-1.8,6.5
		c-0.4-0.2-0.9-0.3-1.4-0.3l0,0c-1.9,0-3.5,1.6-3.5,3.5c0,0.5,0.1,0.9,0.3,1.4c-1.9,1.1-4.1,1.7-6.4,1.7c-0.5,0-0.9,0.4-0.9,0.8
		s0.4,0.8,0.9,0.8l0,0c2.7,0,5.3-0.8,7.5-2.1c0.6,0.5,1.4,0.8,2.2,0.8l0,0c1.9,0,3.5-1.6,3.5-3.5l0,0c0-0.8-0.3-1.6-0.8-2.2
		C696.9,484.2,697.7,481.6,697.7,478.8z M692.8,490.4c-0.6,0-1.1-0.2-1.4-0.7l0,0c-0.3-0.3-0.4-0.7-0.4-1.1c0-1,0.8-1.8,1.8-1.8
		c0.4,0,0.8,0.1,1.2,0.4l0,0c0.4,0.3,0.7,0.9,0.7,1.4C694.7,489.6,693.9,490.4,692.8,490.4z"/>
</g>
<circle id="XMLID_1162_" fill="#FFFFFF" stroke="#281F6B" stroke-miterlimit="10" cx="804.3" cy="476.8" r="23.9"/>
<g id="XMLID_1145_">
	<path id="XMLID_1161_" fill="#281F6B" d="M805.7,472"/>
	<path id="XMLID_1156_" fill="#281F6B" d="M804.1,462.3c-2.7,0-5.3,0.8-7.4,2.1c-0.6-0.5-1.4-0.8-2.2-0.8l0,0
		c-1.9,0-3.5,1.6-3.5,3.5l0,0c0,0.8,0.3,1.6,0.8,2.2c-1.3,2.2-2.1,4.8-2.1,7.5c0,0.5,0.4,0.9,0.8,0.9c0.5,0,0.8-0.4,0.8-0.9
		c0-2.4,0.6-4.6,1.8-6.5c0.4,0.2,0.9,0.3,1.4,0.3l0,0c1.9,0,3.5-1.6,3.5-3.5c0-0.5-0.1-0.9-0.3-1.4c1.9-1.1,4.1-1.7,6.4-1.7
		c0.5,0,0.9-0.4,0.9-0.8C804.9,462.6,804.5,462.3,804.1,462.3z M794.4,468.9c-0.4,0-0.8-0.1-1.2-0.4l0,0c-0.4-0.3-0.7-0.9-0.7-1.4
		c0-1,0.8-1.8,1.8-1.8c0.6,0,1.1,0.2,1.4,0.7l0,0c0.3,0.3,0.4,0.7,0.4,1.1C796.2,468.1,795.4,468.9,794.4,468.9z"/>
	<path id="XMLID_1154_" fill="#281F6B" d="M799,487L799,487L799,487z"/>
	<path id="XMLID_1152_" fill="#281F6B" d="M796,484L796,484L796,484z"/>
	<path id="XMLID_1149_" fill="#281F6B" d="M812.4,474L812.4,474c0.2-0.2,1.3-1.3,1.9-1.9c0.2-0.2,0.2-0.4,0.2-0.6
		c0-0.5-0.4-0.8-0.8-0.8c-0.2,0-0.4,0.1-0.5,0.2c-0.6,0.6-1.7,1.7-1.9,1.9l-1.9-1.9c0.3-0.3,1.3-1.3,1.9-1.9
		c0.2-0.2,0.2-0.4,0.2-0.6c0-0.5-0.4-0.8-0.8-0.8c-0.2,0-0.4,0.1-0.5,0.2c-0.6,0.6-1.6,1.6-1.9,1.9l-1.7-1.7c-0.4-0.4-1-0.4-1.4,0
		l-2.4,2.4c0,0-1.2-1.2-1.9-1.9c-0.2-0.2-0.4-0.2-0.6-0.2c-0.5,0-0.8,0.4-0.8,0.8c0,0.2,0.1,0.4,0.2,0.5c0.6,0.6,1.6,1.6,1.9,1.9
		l-2.5,2.5l0,0c-0.3-0.3-1.3-1.3-1.9-1.9c-0.2-0.2-0.4-0.2-0.6-0.2c-0.2,0-0.4,0.1-0.6,0.2c-0.1,0.1-0.2,0.4-0.2,0.6
		s0.1,0.4,0.2,0.5c0.6,0.6,1.6,1.6,1.9,1.9l-2.4,2.4c-0.4,0.4-0.4,1,0,1.4l1.7,1.7l0,0c-0.4,0.4-1.4,1.4-1.9,1.9
		c-0.2,0.2-0.2,0.4-0.2,0.6c0,0.5,0.4,0.8,0.8,0.8c0.2,0,0.4-0.1,0.5-0.2c0.5-0.5,1.5-1.5,1.9-1.9l1.9,1.9l0,0
		c-0.4,0.4-1.4,1.4-1.9,1.9c-0.2,0.2-0.2,0.4-0.2,0.6c0,0.5,0.4,0.8,0.8,0.8c0.2,0,0.4-0.1,0.5-0.2c0.5-0.5,1.6-1.6,1.9-1.9l1.8,1.8
		c0.4,0.4,1,0.4,1.4,0l2.4-2.4c0.4,0.4,1.4,1.4,1.9,1.9c0.2,0.2,0.4,0.2,0.6,0.2c0.5,0,0.8-0.4,0.8-0.8l0,0c0-0.2-0.1-0.4-0.2-0.5
		c-0.5-0.5-1.6-1.6-1.9-1.9l2.5-2.5c0.4,0.4,1.4,1.4,1.9,1.9c0.2,0.2,0.4,0.2,0.6,0.2c0.5,0,0.8-0.4,0.8-0.8l0,0
		c0-0.2-0.1-0.4-0.2-0.5c-0.5-0.5-1.6-1.6-1.9-1.9l2.4-2.4c0.4-0.4,0.4-1,0-1.4L812.4,474z M808.5,474c-0.2,0.4-0.6,0.5-1,0.4
		l0.6,2.3c0.1,0.4-0.2,0.9-0.6,1l-4.3,1.3l0.8,3.1c0.1,0.4-0.1,0.9-0.6,1c-0.4,0.1-0.9-0.1-1-0.5l-1-3.8c-0.1-0.4,0.1-0.9,0.6-1
		l4.3-1.3l-0.3-1.6c-0.3,0.3-0.7,0.4-1,0.2c-0.3-0.2-0.4-0.6-0.3-1l0.8-1.9c0-0.1,0.1-0.2,0.2-0.3c0.2-0.2,0.4-0.3,0.6-0.3
		c0.2,0,0.3,0.1,0.4,0.1l1.6,1.2C808.6,473.3,808.7,473.7,808.5,474z"/>
	<path id="XMLID_1146_" fill="#281F6B" d="M820.3,478.5c0-0.5-0.4-0.9-0.8-0.9c-0.5,0-0.8,0.4-0.8,0.9c0,2.4-0.6,4.6-1.8,6.5
		c-0.4-0.2-0.9-0.3-1.4-0.3l0,0c-1.9,0-3.5,1.6-3.5,3.5c0,0.5,0.1,0.9,0.3,1.4c-1.9,1.1-4.1,1.7-6.4,1.7c-0.5,0-0.9,0.4-0.9,0.8
		s0.4,0.8,0.9,0.8l0,0c2.7,0,5.3-0.8,7.4-2.1c0.6,0.5,1.4,0.8,2.2,0.8l0,0c1.9,0,3.5-1.6,3.5-3.5l0,0c0-0.8-0.3-1.6-0.8-2.2
		C819.5,483.8,820.3,481.2,820.3,478.5z M815.4,490c-0.6,0-1.1-0.2-1.4-0.7l0,0c-0.3-0.3-0.4-0.7-0.4-1.1c0-1,0.8-1.8,1.8-1.8
		c0.4,0,0.8,0.1,1.2,0.4l0,0c0.4,0.3,0.7,0.9,0.7,1.4C817.3,489.2,816.4,490,815.4,490z"/>
</g>
<g id="XMLID_1193_">
	<path id="XMLID_1194_" fill="#549955" d="M673.6,511.4v3.7h-1.1v-9.8h2.7c1,0,1.9,0.3,2.4,0.8c0.6,0.5,0.9,1.2,0.9,2.2
		s-0.3,1.7-1,2.3c-0.6,0.6-1.5,0.9-2.6,0.9h-1.3V511.4z M673.6,506.4v4h1.2c0.8,0,1.4-0.2,1.8-0.5c0.4-0.4,0.6-0.9,0.6-1.5
		c0-1.3-0.8-1.9-2.3-1.9h-1.3V506.4z"/>
	<path id="XMLID_1197_" fill="#549955" d="M685.5,515.1h-5.2v-9.8h5v1h-3.8v3.3h3.5v1h-3.5v3.4h4V515.1z"/>
</g>
<g id="XMLID_9_">
	<path id="XMLID_1153_" fill="#281F6B" d="M804.1,514.7c-0.7,0.4-1.6,0.6-2.7,0.6c-1.4,0-2.5-0.4-3.3-1.3s-1.3-2.1-1.3-3.5
		c0-1.6,0.5-2.8,1.4-3.8c0.9-1,2.1-1.4,3.6-1.4c0.9,0,1.7,0.1,2.3,0.4v1.2c-0.7-0.4-1.5-0.6-2.3-0.6c-1.1,0-2,0.4-2.7,1.1
		c-0.7,0.8-1,1.8-1,3s0.3,2.1,1,2.9c0.7,0.7,1.5,1.1,2.6,1.1c1,0,1.8-0.2,2.6-0.7v1H804.1z"/>
	<path id="XMLID_1187_" fill="#281F6B" d="M811.2,515.1H806v-9.8h5v1h-3.8v3.3h3.5v1h-3.5v3.4h4V515.1z"/>
</g>
<g id="XMLID_1167_">
	
		<line id="XMLID_1164_" fill="none" stroke="#F3900B" stroke-width="5" stroke-linecap="round" stroke-miterlimit="10" x1="618.7" y1="477.7" x2="629.7" y2="498.9"/>
	
		<line id="XMLID_1166_" fill="none" stroke="#F3900B" stroke-width="5" stroke-linecap="round" stroke-miterlimit="10" x1="629.7" y1="498.9" x2="650.2" y2="456.9"/>
</g>
<g id="XMLID_1168_">
	
		<line id="XMLID_1172_" fill="none" stroke="#F3900B" stroke-width="5" stroke-linecap="round" stroke-miterlimit="10" x1="742.9" y1="478.1" x2="754" y2="499.3"/>
	
		<line id="XMLID_1169_" fill="none" stroke="#F3900B" stroke-width="5" stroke-linecap="round" stroke-miterlimit="10" x1="754" y1="499.3" x2="774.5" y2="457.3"/>
</g>
<g>
	<path fill="#5555FF" d="M604.8,327.8h-6.3v17.9h-5v-17.9h-6.2v-4h17.5V327.8z"/>
	<path fill="#5555FF" d="M622.4,345.7h-4.8v-8.9c0-2.3-0.8-3.4-2.5-3.4c-0.9,0-1.6,0.3-2.1,1c-0.5,0.6-0.8,1.5-0.8,2.5v9h-4.8v-23.2
		h4.8v9.9h0.1c1.2-1.8,2.8-2.7,4.8-2.7c3.6,0,5.3,2.1,5.3,6.4V345.7z"/>
	<path fill="#5555FF" d="M628.7,327.5c-0.8,0-1.5-0.2-2-0.7c-0.5-0.5-0.8-1.1-0.8-1.8c0-0.7,0.3-1.3,0.8-1.8c0.5-0.5,1.2-0.7,2-0.7
		c0.8,0,1.5,0.2,2,0.7s0.8,1.1,0.8,1.8c0,0.7-0.3,1.3-0.8,1.8C630.2,327.3,629.5,327.5,628.7,327.5z M631.1,345.7h-4.8V330h4.8
		V345.7z"/>
	<path fill="#5555FF" d="M650.3,345.7h-4.8V337c0-2.4-0.9-3.6-2.6-3.6c-0.8,0-1.5,0.3-2.1,1c-0.5,0.6-0.8,1.5-0.8,2.5v9h-4.8V330
		h4.8v2.5h0.1c1.2-1.9,2.8-2.9,5-2.9c3.5,0,5.2,2.2,5.2,6.5V345.7z"/>
	<path fill="#5555FF" d="M669.5,343.9c0,2.9-0.8,5.2-2.5,6.8c-1.7,1.6-4.1,2.4-7.3,2.4c-2.1,0-3.8-0.3-5-0.9v-4.1
		c1.6,0.9,3.2,1.4,4.9,1.4c1.6,0,2.9-0.4,3.8-1.3c0.9-0.9,1.3-2,1.3-3.5v-1.2h-0.1c-1.1,1.8-2.7,2.6-4.9,2.6c-2,0-3.6-0.7-4.8-2.1
		c-1.2-1.4-1.8-3.3-1.8-5.7c0-2.7,0.7-4.8,2-6.3c1.3-1.6,3-2.3,5.2-2.3c1.9,0,3.3,0.7,4.3,2.2h0.1V330h4.8V343.9z M664.7,338.2v-1.2
		c0-1-0.3-1.8-0.9-2.5c-0.6-0.7-1.4-1-2.3-1c-1.1,0-1.9,0.4-2.5,1.3c-0.6,0.8-0.9,2-0.9,3.5c0,1.3,0.3,2.3,0.9,3.1s1.4,1.1,2.4,1.1
		c1,0,1.8-0.4,2.4-1.2C664.4,340.4,664.7,339.4,664.7,338.2z"/>
	<path fill="#5555FF" d="M672.5,345.3v-3.9c0.8,0.5,1.6,0.8,2.4,1.1c0.8,0.2,1.5,0.4,2.2,0.4c0.9,0,1.5-0.1,2-0.4
		c0.5-0.2,0.7-0.6,0.7-1.1c0-0.3-0.1-0.6-0.3-0.8c-0.2-0.2-0.5-0.4-0.9-0.5c-0.4-0.2-0.7-0.3-1.2-0.4s-0.8-0.3-1.2-0.4
		c-0.6-0.2-1.2-0.5-1.6-0.8c-0.5-0.3-0.9-0.6-1.2-0.9c-0.3-0.4-0.6-0.8-0.7-1.2s-0.3-1-0.3-1.7c0-0.9,0.2-1.6,0.6-2.3
		c0.4-0.6,0.9-1.2,1.5-1.6s1.4-0.7,2.2-0.9c0.8-0.2,1.7-0.3,2.6-0.3c0.7,0,1.4,0.1,2.1,0.2c0.7,0.1,1.4,0.3,2.1,0.5v3.7
		c-0.6-0.4-1.3-0.6-2-0.8c-0.7-0.2-1.4-0.3-2.1-0.3c-0.3,0-0.6,0-0.9,0.1c-0.3,0.1-0.5,0.1-0.7,0.2c-0.2,0.1-0.4,0.2-0.5,0.4
		s-0.2,0.4-0.2,0.6c0,0.3,0.1,0.5,0.3,0.7c0.2,0.2,0.4,0.4,0.7,0.5c0.3,0.1,0.6,0.3,1,0.4c0.4,0.1,0.7,0.2,1.1,0.4
		c0.6,0.2,1.2,0.5,1.7,0.7c0.5,0.3,1,0.6,1.3,0.9c0.4,0.4,0.7,0.8,0.9,1.3c0.2,0.5,0.3,1.1,0.3,1.7c0,0.9-0.2,1.7-0.6,2.4
		c-0.4,0.7-0.9,1.2-1.6,1.6c-0.7,0.4-1.4,0.7-2.3,0.9s-1.8,0.3-2.7,0.3C675.6,346.1,674,345.8,672.5,345.3z"/>
	<path fill="#5555FF" d="M687.8,345.7v-22h8c2.5,0,4.3,0.4,5.7,1.3c1.3,0.9,2,2.2,2,3.8c0,1.2-0.4,2.2-1.2,3.1
		c-0.8,0.9-1.8,1.5-3.1,1.9v0.1c1.6,0.2,2.8,0.8,3.7,1.7s1.4,2.1,1.4,3.5c0,2-0.7,3.6-2.2,4.8s-3.4,1.8-5.9,1.8H687.8z M692.8,327.4
		v5.2h2.2c1,0,1.8-0.2,2.4-0.7c0.6-0.5,0.9-1.2,0.9-2c0-1.6-1.2-2.4-3.6-2.4H692.8z M692.8,336.3v5.8h2.7c1.1,0,2-0.3,2.7-0.8
		c0.6-0.5,1-1.3,1-2.2c0-0.9-0.3-1.6-1-2.1c-0.6-0.5-1.5-0.8-2.7-0.8H692.8z"/>
	<path fill="#5555FF" d="M715,346.1c-2.6,0-4.7-0.7-6.2-2.2s-2.2-3.5-2.2-6c0-2.6,0.8-4.6,2.3-6.1s3.7-2.2,6.3-2.2
		c2.6,0,4.6,0.7,6.1,2.2c1.5,1.5,2.2,3.4,2.2,5.8c0,2.6-0.8,4.7-2.3,6.2S717.6,346.1,715,346.1z M715.1,333.3c-1.1,0-2,0.4-2.7,1.2
		c-0.6,0.8-1,1.9-1,3.3c0,3,1.2,4.5,3.6,4.5c2.3,0,3.5-1.5,3.5-4.6C718.6,334.8,717.4,333.3,715.1,333.3z"/>
	<path fill="#5555FF" d="M739.7,345.7h-4.6v-2.3h-0.1c-1.1,1.8-2.6,2.6-4.7,2.6c-1.5,0-2.7-0.4-3.6-1.3c-0.9-0.9-1.3-2-1.3-3.5
		c0-3,1.8-4.8,5.4-5.3l4.3-0.6c0-1.7-0.9-2.6-2.8-2.6c-1.9,0-3.6,0.6-5.3,1.7v-3.6c0.7-0.3,1.6-0.7,2.8-0.9c1.2-0.3,2.2-0.4,3.2-0.4
		c4.5,0,6.7,2.2,6.7,6.7V345.7z M735.2,339.3v-1.1l-2.9,0.4c-1.6,0.2-2.4,0.9-2.4,2.1c0,0.6,0.2,1,0.6,1.4s0.9,0.5,1.6,0.5
		c0.9,0,1.7-0.3,2.2-0.9S735.2,340.3,735.2,339.3z"/>
	<path fill="#5555FF" d="M753.8,334.4c-0.6-0.3-1.3-0.5-2-0.5c-1.1,0-1.9,0.4-2.5,1.2s-0.9,1.8-0.9,3.1v7.5h-4.8V330h4.8v2.9h0.1
		c0.8-2.1,2.1-3.2,4.1-3.2c0.5,0,0.9,0.1,1.2,0.2V334.4z"/>
	<path fill="#5555FF" d="M771.4,345.7h-4.8v-2.2h-0.1c-1.1,1.7-2.7,2.5-4.9,2.5c-2,0-3.5-0.7-4.7-2.1c-1.2-1.4-1.8-3.3-1.8-5.8
		c0-2.6,0.7-4.7,2-6.2s3-2.3,5.2-2.3c2,0,3.4,0.7,4.2,2.2h0.1v-9.3h4.8V345.7z M766.7,338.1v-1.2c0-1-0.3-1.9-0.9-2.5s-1.4-1-2.3-1
		c-1.1,0-1.9,0.4-2.5,1.3c-0.6,0.8-0.9,2-0.9,3.5c0,1.4,0.3,2.4,0.9,3.2c0.6,0.7,1.4,1.1,2.4,1.1c1,0,1.8-0.4,2.4-1.2
		C766.4,340.4,766.7,339.4,766.7,338.1z"/>
	<path fill="#5555FF" d="M800.1,327.8h-6.3v17.9h-5v-17.9h-6.2v-4h17.5V327.8z"/>
	<path fill="#5555FF" d="M812.8,334.4c-0.6-0.3-1.3-0.5-2-0.5c-1.1,0-1.9,0.4-2.5,1.2s-0.9,1.8-0.9,3.1v7.5h-4.8V330h4.8v2.9h0.1
		c0.8-2.1,2.1-3.2,4.1-3.2c0.5,0,0.9,0.1,1.2,0.2V334.4z"/>
	<path fill="#5555FF" d="M829.2,339.2h-10.2c0.2,2.3,1.6,3.4,4.3,3.4c1.7,0,3.2-0.4,4.6-1.2v3.5c-1.5,0.8-3.3,1.2-5.7,1.2
		c-2.5,0-4.5-0.7-5.9-2.1c-1.4-1.4-2.1-3.4-2.1-5.9c0-2.6,0.8-4.7,2.3-6.2c1.5-1.5,3.4-2.3,5.6-2.3c2.3,0,4.1,0.7,5.3,2
		c1.3,1.4,1.9,3.2,1.9,5.5V339.2z M824.7,336.3c0-2.2-0.9-3.4-2.7-3.4c-0.8,0-1.4,0.3-2,1c-0.6,0.6-0.9,1.4-1,2.4H824.7z"/>
	<path fill="#5555FF" d="M847.2,345.7h-4.8V337c0-2.4-0.9-3.6-2.6-3.6c-0.8,0-1.5,0.3-2.1,1c-0.5,0.6-0.8,1.5-0.8,2.5v9H832V330h4.8
		v2.5h0.1c1.2-1.9,2.8-2.9,5-2.9c3.5,0,5.2,2.2,5.2,6.5V345.7z"/>
	<path fill="#5555FF" d="M866.4,345.7h-4.8v-2.2h-0.1c-1.1,1.7-2.7,2.5-4.9,2.5c-2,0-3.5-0.7-4.7-2.1c-1.2-1.4-1.8-3.3-1.8-5.8
		c0-2.6,0.7-4.7,2-6.2s3-2.3,5.2-2.3c2,0,3.4,0.7,4.2,2.2h0.1v-9.3h4.8V345.7z M861.6,338.1v-1.2c0-1-0.3-1.9-0.9-2.5s-1.4-1-2.3-1
		c-1.1,0-1.9,0.4-2.5,1.3c-0.6,0.8-0.9,2-0.9,3.5c0,1.4,0.3,2.4,0.9,3.2c0.6,0.7,1.4,1.1,2.4,1.1c1,0,1.8-0.4,2.4-1.2
		C861.3,340.4,861.6,339.4,861.6,338.1z"/>
	<path fill="#5555FF" d="M882.9,345.7h-14.1v-2l7.9-10.1h-7.1V330h13.2v2.4l-7.5,9.7h7.5V345.7z"/>
	<path fill="#5555FF" d="M694.4,383.4h-5.4l-1.6-4.9h-7.8l-1.5,4.9h-5.4l8-22h5.9L694.4,383.4z M686.4,374.7l-2.4-7.4
		c-0.2-0.6-0.3-1.2-0.4-2h-0.1c-0.1,0.6-0.2,1.3-0.4,1.9l-2.4,7.4H686.4z"/>
	<path fill="#5555FF" d="M711.9,383.4H707v-8.7c0-2.4-0.9-3.6-2.6-3.6c-0.8,0-1.5,0.3-2.1,1c-0.5,0.6-0.8,1.5-0.8,2.5v9h-4.8v-15.7
		h4.8v2.5h0.1c1.2-1.9,2.8-2.9,5-2.9c3.5,0,5.2,2.2,5.2,6.5V383.4z"/>
	<path fill="#5555FF" d="M728.8,383.4h-4.6v-2.3h-0.1c-1.1,1.8-2.6,2.6-4.7,2.6c-1.5,0-2.7-0.4-3.6-1.3c-0.9-0.9-1.3-2-1.3-3.5
		c0-3,1.8-4.8,5.4-5.3l4.3-0.6c0-1.7-0.9-2.6-2.8-2.6c-1.9,0-3.6,0.6-5.3,1.7v-3.6c0.7-0.3,1.6-0.7,2.8-0.9c1.2-0.3,2.2-0.4,3.2-0.4
		c4.5,0,6.7,2.2,6.7,6.7V383.4z M724.2,377v-1.1l-2.9,0.4c-1.6,0.2-2.4,0.9-2.4,2.1c0,0.6,0.2,1,0.6,1.4s0.9,0.5,1.6,0.5
		c0.9,0,1.7-0.3,2.2-0.9S724.2,378,724.2,377z"/>
	<path fill="#5555FF" d="M737.4,383.4h-4.8v-23.2h4.8V383.4z"/>
	<path fill="#5555FF" d="M756.5,367.7l-6.4,17c-1.5,4.1-3.8,6.1-6.9,6.1c-1.2,0-2.1-0.1-2.9-0.4v-3.9c0.6,0.4,1.3,0.6,2.1,0.6
		c1.2,0,2.1-0.6,2.6-1.8l0.8-1.9l-6.4-15.7h5.4l2.9,9.5c0.2,0.6,0.3,1.3,0.4,2.1h0.1c0.1-0.6,0.3-1.3,0.5-2.1l3-9.6H756.5z"/>
	<path fill="#5555FF" d="M767.9,383.2c-0.7,0.4-1.8,0.6-3.2,0.6c-3.4,0-5.1-1.8-5.1-5.3v-7.2H757v-3.6h2.5v-3.4l4.8-1.4v4.8h3.5v3.6
		h-3.5v6.3c0,1.6,0.6,2.5,1.9,2.5c0.5,0,1-0.1,1.6-0.4V383.2z"/>
	<path fill="#5555FF" d="M773.1,365.2c-0.8,0-1.5-0.2-2-0.7c-0.5-0.5-0.8-1.1-0.8-1.8c0-0.7,0.3-1.3,0.8-1.8c0.5-0.5,1.2-0.7,2-0.7
		c0.8,0,1.5,0.2,2,0.7s0.8,1.1,0.8,1.8c0,0.7-0.3,1.3-0.8,1.8C774.6,365,773.9,365.2,773.1,365.2z M775.5,383.4h-4.8v-15.7h4.8
		V383.4z"/>
	<path fill="#5555FF" d="M791.4,382.8c-1.1,0.6-2.7,1-4.7,1c-2.4,0-4.4-0.7-5.9-2.2c-1.5-1.5-2.2-3.3-2.2-5.7c0-2.7,0.8-4.8,2.4-6.3
		s3.7-2.3,6.4-2.3c1.8,0,3.2,0.2,4,0.7v4.1c-1-0.8-2.1-1.1-3.4-1.1c-1.4,0-2.5,0.4-3.3,1.2s-1.2,1.9-1.2,3.4c0,1.4,0.4,2.5,1.2,3.3
		c0.8,0.8,1.8,1.2,3.2,1.2c1.2,0,2.4-0.4,3.5-1.1V382.8z"/>
	<path fill="#5555FF" d="M793.6,383V379c0.8,0.5,1.6,0.8,2.4,1.1c0.8,0.2,1.5,0.4,2.2,0.4c0.9,0,1.5-0.1,2-0.4
		c0.5-0.2,0.7-0.6,0.7-1.1c0-0.3-0.1-0.6-0.3-0.8c-0.2-0.2-0.5-0.4-0.9-0.5c-0.4-0.2-0.7-0.3-1.2-0.4s-0.8-0.3-1.2-0.4
		c-0.6-0.2-1.2-0.5-1.6-0.8c-0.5-0.3-0.9-0.6-1.2-0.9c-0.3-0.4-0.6-0.8-0.7-1.2s-0.3-1-0.3-1.7c0-0.9,0.2-1.6,0.6-2.3
		c0.4-0.6,0.9-1.2,1.5-1.6s1.4-0.7,2.2-0.9c0.8-0.2,1.7-0.3,2.6-0.3c0.7,0,1.4,0.1,2.1,0.2c0.7,0.1,1.4,0.3,2.1,0.5v3.7
		c-0.6-0.4-1.3-0.6-2-0.8c-0.7-0.2-1.4-0.3-2.1-0.3c-0.3,0-0.6,0-0.9,0.1c-0.3,0.1-0.5,0.1-0.7,0.2c-0.2,0.1-0.4,0.2-0.5,0.4
		s-0.2,0.4-0.2,0.6c0,0.3,0.1,0.5,0.3,0.7c0.2,0.2,0.4,0.4,0.7,0.5c0.3,0.1,0.6,0.3,1,0.4c0.4,0.1,0.7,0.2,1.1,0.4
		c0.6,0.2,1.2,0.5,1.7,0.7c0.5,0.3,1,0.6,1.3,0.9c0.4,0.4,0.7,0.8,0.9,1.3c0.2,0.5,0.3,1.1,0.3,1.7c0,0.9-0.2,1.7-0.6,2.4
		c-0.4,0.7-0.9,1.2-1.6,1.6c-0.7,0.4-1.4,0.7-2.3,0.9s-1.8,0.3-2.7,0.3C796.7,383.8,795.1,383.5,793.6,383z"/>
	<path fill="#5555FF" d="M645.6,408.1v7h-2.2v-18.5h5.1c2,0,3.5,0.5,4.6,1.4c1.1,1,1.6,2.3,1.6,4.1c0,1.8-0.6,3.2-1.8,4.3
		c-1.2,1.1-2.8,1.7-4.9,1.7H645.6z M645.6,398.5v7.6h2.3c1.5,0,2.6-0.3,3.4-1c0.8-0.7,1.2-1.7,1.2-2.9c0-2.4-1.4-3.7-4.3-3.7H645.6z
		"/>
	<path fill="#5555FF" d="M668.5,409h-9.3c0,1.5,0.4,2.6,1.2,3.4c0.8,0.8,1.8,1.2,3.1,1.2c1.5,0,2.9-0.5,4.1-1.5v2
		c-1.2,0.8-2.7,1.3-4.6,1.3c-1.9,0-3.3-0.6-4.4-1.8c-1.1-1.2-1.6-2.9-1.6-5.1c0-2.1,0.6-3.7,1.7-5c1.2-1.3,2.6-1.9,4.3-1.9
		c1.7,0,3.1,0.6,4,1.7c0.9,1.1,1.4,2.7,1.4,4.7V409z M666.4,407.2c0-1.2-0.3-2.2-0.9-2.9s-1.4-1-2.4-1c-1,0-1.8,0.4-2.5,1.1
		c-0.7,0.7-1.1,1.6-1.3,2.8H666.4z"/>
	<path fill="#5555FF" d="M678.6,404c-0.4-0.3-0.9-0.4-1.6-0.4c-0.9,0-1.7,0.4-2.3,1.3c-0.6,0.9-0.9,2-0.9,3.5v6.7h-2.1v-13.2h2.1
		v2.7h0.1c0.3-0.9,0.8-1.7,1.4-2.2c0.6-0.5,1.3-0.8,2.1-0.8c0.6,0,1,0.1,1.3,0.2V404z"/>
	<path fill="#5555FF" d="M683.1,413.2L683.1,413.2l-0.1,8h-2.1v-19.3h2.1v2.3h0.1c1-1.8,2.6-2.6,4.6-2.6c1.7,0,3,0.6,4,1.8
		c1,1.2,1.4,2.8,1.4,4.8c0,2.2-0.5,4-1.6,5.3c-1.1,1.3-2.5,2-4.4,2C685.4,415.4,684,414.7,683.1,413.2z M683.1,407.9v1.8
		c0,1.1,0.4,2,1.1,2.8s1.6,1.1,2.7,1.1c1.3,0,2.3-0.5,3-1.5c0.7-1,1.1-2.3,1.1-4.1c0-1.5-0.3-2.6-1-3.5c-0.7-0.8-1.6-1.3-2.8-1.3
		c-1.2,0-2.2,0.4-3,1.3C683.4,405.5,683.1,406.6,683.1,407.9z"/>
	<path fill="#5555FF" d="M707.1,409h-9.3c0,1.5,0.4,2.6,1.2,3.4c0.8,0.8,1.8,1.2,3.1,1.2c1.5,0,2.9-0.5,4.1-1.5v2
		c-1.2,0.8-2.7,1.3-4.6,1.3c-1.9,0-3.3-0.6-4.4-1.8c-1.1-1.2-1.6-2.9-1.6-5.1c0-2.1,0.6-3.7,1.7-5c1.2-1.3,2.6-1.9,4.3-1.9
		c1.7,0,3.1,0.6,4,1.7c0.9,1.1,1.4,2.7,1.4,4.7V409z M704.9,407.2c0-1.2-0.3-2.2-0.9-2.9s-1.4-1-2.4-1c-1,0-1.8,0.4-2.5,1.1
		c-0.7,0.7-1.1,1.6-1.3,2.8H704.9z"/>
	<path fill="#5555FF" d="M716.4,415c-0.5,0.3-1.2,0.4-2,0.4c-2.3,0-3.5-1.3-3.5-3.9v-7.8h-2.3v-1.8h2.3v-3.2l2.1-0.7v3.9h3.3v1.8
		h-3.3v7.4c0,0.9,0.2,1.5,0.5,1.9s0.8,0.6,1.5,0.6c0.5,0,1-0.1,1.4-0.4V415z"/>
	<path fill="#5555FF" d="M730,415.1h-2.1V413h-0.1c-0.9,1.6-2.2,2.4-4.1,2.4c-3.1,0-4.7-1.9-4.7-5.6v-7.9h2.1v7.6
		c0,2.8,1.1,4.2,3.2,4.2c1,0,1.9-0.4,2.5-1.1s1-1.8,1-3v-7.6h2.1V415.1z"/>
	<path fill="#5555FF" d="M743.7,415.1h-2.1V413h-0.1c-0.9,1.6-2.3,2.4-4.1,2.4c-1.3,0-2.3-0.3-3.1-1c-0.7-0.7-1.1-1.6-1.1-2.8
		c0-2.5,1.5-3.9,4.4-4.3l4-0.6c0-2.2-0.9-3.4-2.7-3.4c-1.6,0-3,0.5-4.3,1.6v-2.2c1.3-0.8,2.8-1.2,4.5-1.2c3.1,0,4.7,1.6,4.7,4.9
		V415.1z M741.6,408.4l-3.2,0.4c-1,0.1-1.7,0.4-2.2,0.7c-0.5,0.3-0.7,1-0.7,1.9c0,0.6,0.2,1.2,0.7,1.6c0.5,0.4,1.1,0.6,1.8,0.6
		c1,0,1.9-0.4,2.6-1.1c0.7-0.7,1-1.7,1-2.8V408.4z"/>
	<path fill="#5555FF" d="M749.8,415.1h-2.1v-19.6h2.1V415.1z"/>
	<path fill="#5555FF" d="M763.4,415.1h-2.1v-19.6h2.1V415.1z"/>
	<path fill="#5555FF" d="M768.8,398.5c-0.4,0-0.7-0.1-1-0.4s-0.4-0.6-0.4-1c0-0.4,0.1-0.7,0.4-1c0.3-0.3,0.6-0.4,1-0.4
		c0.4,0,0.7,0.1,1,0.4c0.3,0.3,0.4,0.6,0.4,1c0,0.4-0.1,0.7-0.4,1C769.5,398.4,769.2,398.5,768.8,398.5z M769.8,415.1h-2.1v-13.2
		h2.1V415.1z"/>
	<path fill="#5555FF" d="M783.1,414.5c-1,0.6-2.2,0.9-3.6,0.9c-1.9,0-3.4-0.6-4.6-1.8c-1.2-1.2-1.7-2.8-1.7-4.8
		c0-2.2,0.6-3.9,1.9-5.2c1.2-1.3,2.9-2,5-2c1.2,0,2.2,0.2,3.1,0.6v2.2c-1-0.7-2-1-3.1-1c-1.4,0-2.5,0.5-3.3,1.5
		c-0.9,1-1.3,2.2-1.3,3.8c0,1.5,0.4,2.8,1.2,3.7c0.8,0.9,1.9,1.3,3.3,1.3c1.2,0,2.2-0.4,3.3-1.1V414.5z"/>
	<path fill="#5555FF" d="M797,409h-9.3c0,1.5,0.4,2.6,1.2,3.4c0.8,0.8,1.8,1.2,3.1,1.2c1.5,0,2.9-0.5,4.1-1.5v2
		c-1.2,0.8-2.7,1.3-4.6,1.3c-1.9,0-3.3-0.6-4.4-1.8c-1.1-1.2-1.6-2.9-1.6-5.1c0-2.1,0.6-3.7,1.7-5c1.2-1.3,2.6-1.9,4.3-1.9
		c1.7,0,3.1,0.6,4,1.7c0.9,1.1,1.4,2.7,1.4,4.7V409z M794.8,407.2c0-1.2-0.3-2.2-0.9-2.9s-1.4-1-2.4-1c-1,0-1.8,0.4-2.5,1.1
		c-0.7,0.7-1.1,1.6-1.3,2.8H794.8z"/>
	<path fill="#5555FF" d="M811.1,415.1H809v-7.5c0-2.8-1-4.2-3.1-4.2c-1.1,0-1.9,0.4-2.6,1.2c-0.7,0.8-1,1.8-1,3v7.5h-2.1v-13.2h2.1
		v2.2h0.1c1-1.7,2.4-2.5,4.3-2.5c1.4,0,2.6,0.5,3.3,1.4c0.8,0.9,1.1,2.3,1.1,4V415.1z"/>
	<path fill="#5555FF" d="M814.3,414.6v-2.3c1.2,0.9,2.4,1.3,3.8,1.3c1.9,0,2.8-0.6,2.8-1.9c0-0.4-0.1-0.7-0.2-0.9s-0.4-0.5-0.6-0.7
		c-0.3-0.2-0.6-0.4-1-0.5c-0.4-0.2-0.8-0.3-1.2-0.5c-0.6-0.2-1.1-0.5-1.5-0.7c-0.4-0.2-0.8-0.5-1.1-0.8c-0.3-0.3-0.5-0.6-0.7-1
		c-0.2-0.4-0.2-0.8-0.2-1.3c0-0.6,0.1-1.2,0.4-1.6c0.3-0.5,0.7-0.9,1.1-1.2c0.5-0.3,1-0.6,1.6-0.7c0.6-0.2,1.2-0.2,1.9-0.2
		c1.1,0,2.2,0.2,3.1,0.6v2.1c-1-0.6-2.1-1-3.4-1c-0.4,0-0.8,0-1.1,0.1c-0.3,0.1-0.6,0.2-0.8,0.4c-0.2,0.2-0.4,0.4-0.5,0.6
		c-0.1,0.2-0.2,0.5-0.2,0.8c0,0.3,0.1,0.6,0.2,0.9c0.1,0.2,0.3,0.4,0.5,0.6c0.2,0.2,0.5,0.3,0.9,0.5s0.7,0.3,1.2,0.5
		c0.6,0.2,1.1,0.5,1.6,0.7c0.5,0.2,0.9,0.5,1.2,0.8s0.6,0.6,0.8,1c0.2,0.4,0.3,0.8,0.3,1.4c0,0.7-0.1,1.2-0.4,1.7
		c-0.3,0.5-0.7,0.9-1.2,1.2s-1,0.6-1.7,0.7c-0.6,0.2-1.3,0.2-2,0.2C816.5,415.4,815.3,415.1,814.3,414.6z"/>
	<path fill="#5555FF" d="M837,409h-9.3c0,1.5,0.4,2.6,1.2,3.4c0.8,0.8,1.8,1.2,3.1,1.2c1.5,0,2.9-0.5,4.1-1.5v2
		c-1.2,0.8-2.7,1.3-4.6,1.3c-1.9,0-3.3-0.6-4.4-1.8c-1.1-1.2-1.6-2.9-1.6-5.1c0-2.1,0.6-3.7,1.7-5c1.2-1.3,2.6-1.9,4.3-1.9
		c1.7,0,3.1,0.6,4,1.7c0.9,1.1,1.4,2.7,1.4,4.7V409z M834.8,407.2c0-1.2-0.3-2.2-0.9-2.9s-1.4-1-2.4-1c-1,0-1.8,0.4-2.5,1.1
		c-0.7,0.7-1.1,1.6-1.3,2.8H834.8z"/>
</g>
</svg>
