<svg xmlns="http://www.w3.org/2000/svg" height="50.633mm" width="78.337mm" version="1.1" viewBox="0 0 277.57058 179.40742">
 <g transform="translate(-70.321 -105.31)">
  <path d="m70.711 245.85h154.55m-154.04-44.16h154.55m0.17232-41.957-0.0486 124.09m121.25-177.76-122.14 0.36c122.14 0 122.14-0.35742 122.14-0.35742zm-275.94 0.36133v53.309h154.74v-53.309zm275.66 53.035-120.93 0.27344c122.14 0 120.93-0.27344 120.93-0.27344zm-275.66 0.27344-0.1317 124.98" stroke="#305680" stroke-width="1.5" fill="none"/>
  <g transform="matrix(.22345 0 0 .22345 149.58 107.47)">
   <g>
    <path d="m-181.06 48.693-19.066 19.064 0.0469 0.04688-26.385 26.385-19.064 19.064-35.176 35.176-10.271-10.271-0.10351 39.713 39.713-0.10351-10.273-10.273 35.176-35.176 19.064-19.064 26.385-26.385 22.1 22.637 19.064-19.064-41.209-41.748zm69.562 69.92-19.066 19.064 30.055 29.697-10.271 10.273 39.713 0.10351-0.10352-39.713-10.271 10.271z" fill="#237de0"/>
    <path d="m-180.73 178.42 19.066-19.064-0.0469-0.0469 26.385-26.385 19.064-19.064 35.176-35.176 10.271 10.272 0.10351-39.713-39.713 0.10351 10.273 10.273-35.176 35.176-19.064 19.064-26.385 26.385-22.1-22.637-19.064 19.064 41.209 41.748zm-69.562-69.92 19.066-19.064-30.055-29.697 10.271-10.273-39.713-0.10351 0.10352 39.713 10.271-10.272z" fill="#305680"/>
   </g>
   <g fill="#305680">
    <path d="m0.22908 85.894q-0.66406 9.1797-6.7969 14.453-6.0938 5.2734-16.094 5.2734-10.938 0-17.227-7.3438-6.25-7.3828-6.25-20.234v-3.4766q0-8.2031 2.8906-14.453 2.8906-6.25 8.2422-9.5703 5.3906-3.3594 12.5-3.3594 9.8438 0 15.859 5.2734 6.0156 5.2734 6.9531 14.805h-11.718q-0.42969-5.5078-3.0859-7.9688-2.6172-2.5-8.0078-2.5-5.8594 0-8.7891 4.2188-2.8906 4.1797-2.9688 13.008v4.2969q0 9.2188 2.7734 13.477 2.8125 4.2578 8.8281 4.2578 5.4297 0 8.0859-2.4609 2.6953-2.5 3.0859-7.6953z"/>
    <path d="m5.4244 83.316q0-6.2891 2.4219-11.211t6.9531-7.6172q4.5703-2.6953 10.586-2.6953 8.5547 0 13.945 5.2344 5.4297 5.2344 6.0547 14.219l0.07813 2.8906q0 9.7266-5.4297 15.625-5.4297 5.8594-14.57 5.8594-9.1406 0-14.609-5.8594-5.4297-5.8594-5.4297-15.938v-0.50781zm11.289 0.82031q0 6.0156 2.2656 9.2188 2.2656 3.1641 6.4844 3.1641 4.1016 0 6.4062-3.125 2.3047-3.1641 2.3047-10.078 0-5.8984-2.3047-9.1406t-6.4844-3.2422q-4.1406 0-6.4062 3.2422-2.2656 3.2031-2.2656 9.9609z"/>
    <path d="m63.081 62.573 0.35156 4.7266q4.4922-5.5078 12.148-5.5078 8.1641 0 11.211 6.4453 4.4531-6.4453 12.695-6.4453 6.875 0 10.234 4.0234 3.3594 3.9844 3.3594 12.031v26.993h-11.33v-26.954q0-3.5938-1.4062-5.2344-1.4062-1.6797-4.9609-1.6797-5.0781 0-7.0312 4.8438l0.03906 29.023h-11.287v-26.915q0-3.6719-1.4453-5.3125t-4.9219-1.6406q-4.8047 0-6.9531 3.9844v29.884h-11.289v-42.267h10.586z"/>
    <path d="m159.76 84.097q0 9.7656-4.4531 15.664-4.4141 5.8594-11.953 5.8594-6.4062 0-10.352-4.4531v19.922h-11.29v-58.517h10.469l0.39062 4.1406q4.1016-4.9219 10.703-4.9219 7.8125 0 12.148 5.7812 4.3359 5.7812 4.3359 15.938zm-11.289-0.82031q0-5.8984-2.1094-9.1016-2.0703-3.2031-6.0547-3.2031-5.3125 0-7.3047 4.0625v17.305q2.0703 4.1797 7.3828 4.1797 8.0859 0 8.0859-13.242z"/>
    <path d="m191.21 104.84q-0.78125-1.5234-1.1328-3.7891-4.1016 4.5703-10.664 4.5703-6.2109 0-10.312-3.5938-4.0625-3.5938-4.0625-9.0625 0-6.7188 4.9609-10.312 5-3.5938 14.414-3.6328h5.1953v-2.4219q0-2.9297-1.5234-4.6875-1.4844-1.7578-4.7266-1.7578-2.8516 0-4.4922 1.3672-1.6016 1.3672-1.6016 3.75h-11.289q0-3.6719 2.2656-6.7969t6.4062-4.8828q4.1406-1.7969 9.2969-1.7969 7.8125 0 12.383 3.9453 4.6094 3.9062 4.6094 11.016v18.32q0.0391 6.0156 1.6797 9.1016v0.66406zm-9.3359-7.8516q2.5 0 4.6094-1.0938 2.1094-1.1328 3.125-3.0078v-7.2656h-4.2188q-8.4766 0-9.0234 5.8594l-0.0391 0.66406q0 2.1094 1.4844 3.4766t4.0625 1.3672z"/>
    <path d="m220.07 62.573 0.35157 4.8828q4.5312-5.6641 12.148-5.6641 6.7188 0 10 3.9453t3.3594 11.797v27.306h-11.29v-27.032q0-3.5938-1.5625-5.1953-1.5625-1.6406-5.1953-1.6406-4.7656 0-7.1484 4.0625v29.805h-11.28v-42.267z"/>
    <path d="m270.31 88.863 7.8125-26.289h12.109l-16.992 48.828-0.9375 2.2266q-3.7891 8.2812-12.5 8.2812-2.4609 0-5-0.74219v-8.5547l1.7188 0.0391q3.2031 0 4.7656-0.97656 1.6016-0.97657 2.5-3.2422l1.3281-3.4766-14.805-42.383h12.148l7.8516 26.289z"/>
   </g>
   <g fill="#237de0">
    <path d="m3.0238 175.64h-11.719l-22.812-37.42v37.422h-11.719v-56.875h11.719l22.852 37.5v-37.5h11.679z"/>
    <path d="m37.086 175.64q-0.78125-1.5234-1.1328-3.7891-4.1016 4.5703-10.664 4.5703-6.2109 0-10.312-3.5938-4.0625-3.5938-4.0625-9.0625 0-6.7188 4.9609-10.312 5-3.5938 14.414-3.6328h5.1953v-2.4219q0-2.9297-1.5234-4.6875-1.4844-1.7578-4.7266-1.7578-2.8516 0-4.4922 1.3672-1.6016 1.3672-1.6016 3.75h-11.288q0-3.6719 2.2656-6.7969t6.4062-4.8828q4.1406-1.7969 9.2969-1.7969 7.8125 0 12.383 3.9453 4.6094 3.9062 4.6094 11.016v18.32q0.03906 6.0156 1.6797 9.1016v0.66406zm-9.3359-7.8516q2.5 0 4.6094-1.0938 2.1094-1.1328 3.125-3.0078v-7.2656h-4.2188q-8.4766 0-9.0234 5.8594l-0.03906 0.66406q0 2.1094 1.4844 3.4766t4.0625 1.3672z"/>
    <path d="m66.149 133.37 0.35156 4.7266q4.4922-5.5078 12.148-5.5078 8.1641 0 11.211 6.4453 4.4531-6.4453 12.695-6.4453 6.875 0 10.234 4.0234 3.3594 3.9844 3.3594 12.031v26.992h-11.328v-26.953q0-3.5938-1.4062-5.2344-1.4062-1.6797-4.9609-1.6797-5.0781 0-7.0312 4.8438l0.03906 29.023h-11.289v-26.914q0-3.6719-1.4453-5.3125t-4.9219-1.6406q-4.8047 0-6.9531 3.9844v29.883h-11.289v-42.266h10.586z"/>
    <path d="m144.23 176.42q-9.2969 0-15.156-5.7031-5.8203-5.7031-5.8203-15.195v-1.0938q0-6.3672 2.4609-11.367 2.4609-5.0391 6.9531-7.7344 4.5312-2.7344 10.312-2.7344 8.6719 0 13.633 5.4688 5 5.4688 5 15.508v4.6094h-26.914q0.54688 4.1406 3.2812 6.6406 2.7734 2.5 6.9922 2.5 6.5234 0 10.195-4.7266l5.5469 6.2109q-2.5391 3.5938-6.875 5.625-4.3359 1.9922-9.6094 1.9922zm-1.2891-34.688q-3.3594 0-5.4688 2.2656-2.0703 2.2656-2.6562 6.4844h15.703v-0.89843q-0.0781-3.75-2.0312-5.7812-1.9531-2.0703-5.5469-2.0703z"/>
   </g>
  </g>
  <rect rx="2" ry="2" height="14.708" width="14.708" y="173.23" x="87.353" fill="#237de0"/>
  <g stroke="#237de0" stroke-linecap="round" stroke-width="9.229" fill="none">
   <path d="m120.35 223.28h63.878"/>
   <path d="m120.56 180.64h41.735"/>
   <path d="m273.03 131.89h63.878"/>
  </g>
  <rect rx="2" ry="2" height="14.708" width="14.708" y="216.24" x="87.474" fill="#237de0"/>
  <rect rx="2" ry="2" height="14.708" width="14.708" y="124" x="241.82" fill="#237de0"/>
  <path d="m120.28 267.05h56.009" stroke="#237de0" stroke-linecap="round" stroke-width="9.229" fill="none"/>
  <rect rx="2" ry="2" height="14.708" width="14.708" y="260.01" x="87.405" fill="#237de0"/>
  <g transform="matrix(.52738 0 0 .52738 119.64 13.274)">
   <g fill="#305680" transform="translate(572,260)">
    <path d="m-333.96 113.84v12.615c0 0.76745 0.62355 1.407 1.407 1.407h9.753c0.76745 0 1.407-0.62356 1.407-1.407v-22.192l-7.0829 7.0829c-1.5029 1.4869-3.4216 2.3503-5.4841 2.4942z"/>
    <path d="m-316.54 104.11v22.352c0 0.76745 0.62355 1.407 1.407 1.407h9.753c0.76746 0 1.407-0.62356 1.407-1.407v-13.159c-2.2224-0.048-4.3009-0.92734-5.8678-2.4942z"/>
    <path d="m-299.11 111.91v14.55c0 0.76745 0.62355 1.407 1.407 1.407h9.753c0.76745 0 1.407-0.62356 1.407-1.407v-26.845l-11.176 11.176c-0.43169 0.43169-0.89536 0.79943-1.391 1.1192z"/>
    <path d="m-270.06 83.114-11.624 11.624v31.721c0 0.76745 0.62356 1.407 1.407 1.407h9.753c0.76745 0 1.407-0.62356 1.407-1.407v-42.466c-0.31977-0.2718-0.5596-0.51163-0.73547-0.67152z"/>
   </g>
   <path d="m309.92 322.52c-0.46367-0.49565-1.1672-0.75147-2.0625-0.75147h-0.25582c-4.5408 0.20786-9.0655 0.4317-13.606 0.63955-0.60757 0.032-1.439 0.064-2.0945 0.71948-0.20785 0.20786-0.36773 0.44768-0.49564 0.73548-0.67152 1.455 0.2718 2.3983 0.71948 2.846l1.1352 1.1512c0.78344 0.79943 1.5829 1.5989 2.3823 2.3823l-27.436 27.452-12.327-12.327c-0.73547-0.73547-1.7268-1.1512-2.782-1.1512s-2.0306 0.4157-2.766 1.1512l-16.42 16.404c-1.5349 1.5349-1.5349 4.0131 0 5.548l0.73547 0.73547c0.73548 0.73548 1.7268 1.1512 2.782 1.1512s2.0306-0.4157 2.766-1.1512l12.903-12.903 12.327 12.327c0.73548 0.73548 1.7268 1.1512 2.782 1.1512s2.0306-0.4157 2.782-1.1512l30.954-30.954 3.5015 3.4855c0.4157 0.4157 0.99129 0.99129 1.8707 0.99129 0.36774 0 0.73547-0.0959 1.1192-0.30378 0.25582-0.1439 0.47966-0.30378 0.67152-0.49565 0.68751-0.68751 0.81542-1.5669 0.84739-2.2544 0.12791-2.9419 0.27181-5.8838 0.41571-8.8417l0.20785-4.4288c0.048-0.92734-0.15989-1.6468-0.65553-2.1585z" fill="#237de0"/>
  </g>
  <g transform="matrix(.55226 0 0 .55226 112.44 2.402)">
   <path d="m384.67 442.38 11.443 23.507c0.46533 0.95604-0.0238 1.7382-1.0871 1.7382h-71.791c-1.0633 0-1.5525-0.78215-1.0871-1.7382l11.443-23.507c0.18203-0.37389 0.67128-0.6799 1.0871-0.6799h9.8119c0.30237 0 0.71075 0.18931 0.90869 0.41797 0.66569 0.76928 1.3438 1.5208 2.0199 2.2647 0.64214 0.70613 1.2877 1.4215 1.9281 2.1536h-11.644c-0.4159 0-0.90516 0.30589-1.0871 0.6799l-7.5806 15.573h60.191l-7.58-15.573c-0.18191-0.37401-0.67116-0.6799-1.0872-0.6799h-11.671c0.64031-0.73212 1.2861-1.4475 1.9282-2.1536 0.67821-0.74608 1.3601-1.4962 2.0273-2.2657 0.19769-0.22805 0.60522-0.417 0.90711-0.417h9.8326c0.41567 0 0.9048 0.30577 1.0868 0.6799z" fill="#305680"/>
   <path d="m359.34 409.48c-0.61306-0.008-1.2341 0.0169-1.8613 0.0762-9.8674 0.93273-16.624 10.493-14.902 20.254 1.749 9.9148 10.889 12.966 15.426 24.096 0.40875 1.0029 1.8218 1.0089 2.2305 0.006 5.029-12.344 15.723-14.753 15.723-27.598 0-9.2241-7.4192-16.715-16.615-16.834zm-0.2207 7.9434c4.9104 0 8.8906 3.9804 8.8906 8.8906 0 4.9104-3.9802 8.8906-8.8906 8.8906s-8.8906-3.9802-8.8906-8.8906c0-4.9103 3.9802-8.8906 8.8906-8.8906z" fill="#237de0"/>
  </g>
  <g transform="matrix(.50752 0 0 .50752 124.22 24.093)">
   <path d="m273.85 427.41c6.1897 0.24454 12.02 1.8791 17.193 4.6002l-5.6034 9.7052c-3.5149-1.7806-7.4368-2.8736-11.589-3.1008zm20.002 6.2251c5.0687 3.2108 9.3741 7.5172 12.585 12.585l-9.7071 5.6041c-2.2134-3.3772-5.105-6.2691-8.4816-8.4822zm14.21 15.395c2.7211 5.1713 4.3544 11.003 4.5999 17.192h-11.205c-0.22716-4.1523-1.3189-8.0748-3.0998-11.589zm-76.269 17.192c0.24486-6.1893 1.8784-12.021 4.5999-17.192l9.7049 5.6031c-1.7809 3.5142-2.8733 7.4368-3.1001 11.589zm6.2251-20.002c3.2105-5.0687 7.5169-9.3735 12.585-12.585l5.6038 9.7065c-3.3772 2.213-6.2691 5.105-8.4825 8.4825zm15.394-14.21c5.1716-2.7221 11.003-4.3553 17.193-4.6002v11.205c-4.1523 0.22749-8.0748 1.3192-11.589 3.1005l-5.6031-9.7049" fill="#237de0"/>
   <path d="m272.18 469.64c0.90237 0.36855 2.0049-0.0438 2.3099-0.96911l7.8016-23.762-11.081 22.421c-0.4317 0.87417 0.0668 1.9414 0.96911 2.3104" fill-rule="evenodd" fill="#305680"/>
  </g>
  <g transform="matrix(.56875 0 0 .56875 107.36 -3.7709)">
   <path d="m361.97 326.49c13.47 0.84189 23.994 11.786 25.256 25.256h-25.256zm-2.1047-4.2094h-2.1047v33.675h33.675v-2.1047c0-17.259-14.312-31.571-31.571-31.571z" fill="#237de0"/>
   <path d="m353.55 360.16v-33.675c-16.417 1.2628-29.466 14.733-29.466 31.571 0 17.259 14.312 31.571 31.571 31.571 16.838 0 30.308-13.049 31.571-29.466z" fill="#305680"/>
  </g>
 </g>
</svg>
