<svg xmlns="http://www.w3.org/2000/svg" height="16.474mm" width="15.618mm" version="1.1" viewBox="0 0 55.340396 58.371502">
 <g transform="translate(-76.811 -108.88)">
  <g transform="matrix(.24894 0 0 .24894 149.27 96.762)">
   <path d="m-181.06 48.693-19.066 19.064 0.0469 0.04688-26.385 26.385-19.064 19.064-35.176 35.176-10.271-10.271-0.10351 39.713 39.713-0.10351-10.273-10.273 35.176-35.176 19.064-19.064 26.385-26.385 22.1 22.637 19.064-19.064-41.209-41.748zm69.562 69.92-19.066 19.064 30.055 29.697-10.271 10.273 39.713 0.10351-0.10352-39.713-10.271 10.271z" fill="#237de0"/>
   <path d="m-180.73 178.42 19.066-19.064-0.0469-0.0469 26.385-26.385 19.064-19.064 35.176-35.176 10.271 10.272 0.10351-39.713-39.713 0.10351 10.273 10.273-35.176 35.176-19.064 19.064-26.385 26.385-22.1-22.637-19.064 19.064 41.209 41.748zm-69.562-69.92 19.066-19.064-30.055-29.697 10.271-10.273-39.713-0.10351 0.10352 39.713 10.271-10.272z" fill="#305680"/>
  </g>
  <g transform="matrix(.16299 0 0 .16299 84.846 138.5)">
   <g fill="#305680">
    <path d="m0.22908 85.894q-0.66406 9.1797-6.7969 14.453-6.0938 5.2734-16.094 5.2734-10.938 0-17.227-7.3438-6.25-7.3828-6.25-20.234v-3.4766q0-8.2031 2.8906-14.453 2.8906-6.25 8.2422-9.5703 5.3906-3.3594 12.5-3.3594 9.8438 0 15.859 5.2734 6.0156 5.2734 6.9531 14.805h-11.718q-0.42969-5.5078-3.0859-7.9688-2.6172-2.5-8.0078-2.5-5.8594 0-8.7891 4.2188-2.8906 4.1797-2.9688 13.008v4.2969q0 9.2188 2.7734 13.477 2.8125 4.2578 8.8281 4.2578 5.4297 0 8.0859-2.4609 2.6953-2.5 3.0859-7.6953z"/>
    <path d="m5.4244 83.316q0-6.2891 2.4219-11.211t6.9531-7.6172q4.5703-2.6953 10.586-2.6953 8.5547 0 13.945 5.2344 5.4297 5.2344 6.0547 14.219l0.07813 2.8906q0 9.7266-5.4297 15.625-5.4297 5.8594-14.57 5.8594-9.1406 0-14.609-5.8594-5.4297-5.8594-5.4297-15.938v-0.50781zm11.289 0.82031q0 6.0156 2.2656 9.2188 2.2656 3.1641 6.4844 3.1641 4.1016 0 6.4062-3.125 2.3047-3.1641 2.3047-10.078 0-5.8984-2.3047-9.1406t-6.4844-3.2422q-4.1406 0-6.4062 3.2422-2.2656 3.2031-2.2656 9.9609z"/>
    <path d="m63.081 62.573 0.35156 4.7266q4.4922-5.5078 12.148-5.5078 8.1641 0 11.211 6.4453 4.4531-6.4453 12.695-6.4453 6.875 0 10.234 4.0234 3.3594 3.9844 3.3594 12.031v26.993h-11.33v-26.954q0-3.5938-1.4062-5.2344-1.4062-1.6797-4.9609-1.6797-5.0781 0-7.0312 4.8438l0.03906 29.023h-11.287v-26.915q0-3.6719-1.4453-5.3125t-4.9219-1.6406q-4.8047 0-6.9531 3.9844v29.884h-11.289v-42.267h10.586z"/>
    <path d="m159.76 84.097q0 9.7656-4.4531 15.664-4.4141 5.8594-11.953 5.8594-6.4062 0-10.352-4.4531v19.922h-11.29v-58.517h10.469l0.39062 4.1406q4.1016-4.9219 10.703-4.9219 7.8125 0 12.148 5.7812 4.3359 5.7812 4.3359 15.938zm-11.289-0.82031q0-5.8984-2.1094-9.1016-2.0703-3.2031-6.0547-3.2031-5.3125 0-7.3047 4.0625v17.305q2.0703 4.1797 7.3828 4.1797 8.0859 0 8.0859-13.242z"/>
    <path d="m191.21 104.84q-0.78125-1.5234-1.1328-3.7891-4.1016 4.5703-10.664 4.5703-6.2109 0-10.312-3.5938-4.0625-3.5938-4.0625-9.0625 0-6.7188 4.9609-10.312 5-3.5938 14.414-3.6328h5.1953v-2.4219q0-2.9297-1.5234-4.6875-1.4844-1.7578-4.7266-1.7578-2.8516 0-4.4922 1.3672-1.6016 1.3672-1.6016 3.75h-11.289q0-3.6719 2.2656-6.7969t6.4062-4.8828q4.1406-1.7969 9.2969-1.7969 7.8125 0 12.383 3.9453 4.6094 3.9062 4.6094 11.016v18.32q0.0391 6.0156 1.6797 9.1016v0.66406zm-9.3359-7.8516q2.5 0 4.6094-1.0938 2.1094-1.1328 3.125-3.0078v-7.2656h-4.2188q-8.4766 0-9.0234 5.8594l-0.0391 0.66406q0 2.1094 1.4844 3.4766t4.0625 1.3672z"/>
    <path d="m220.07 62.573 0.35157 4.8828q4.5312-5.6641 12.148-5.6641 6.7188 0 10 3.9453t3.3594 11.797v27.306h-11.29v-27.032q0-3.5938-1.5625-5.1953-1.5625-1.6406-5.1953-1.6406-4.7656 0-7.1484 4.0625v29.805h-11.28v-42.267z"/>
    <path d="m270.31 88.863 7.8125-26.289h12.109l-16.992 48.828-0.9375 2.2266q-3.7891 8.2812-12.5 8.2812-2.4609 0-5-0.74219v-8.5547l1.7188 0.0391q3.2031 0 4.7656-0.97656 1.6016-0.97657 2.5-3.2422l1.3281-3.4766-14.805-42.383h12.148l7.8516 26.289z"/>
   </g>
   <g fill="#237de0">
    <path d="m3.0238 175.64h-11.719l-22.812-37.42v37.422h-11.719v-56.875h11.719l22.852 37.5v-37.5h11.679z"/>
    <path d="m37.086 175.64q-0.78125-1.5234-1.1328-3.7891-4.1016 4.5703-10.664 4.5703-6.2109 0-10.312-3.5938-4.0625-3.5938-4.0625-9.0625 0-6.7188 4.9609-10.312 5-3.5938 14.414-3.6328h5.1953v-2.4219q0-2.9297-1.5234-4.6875-1.4844-1.7578-4.7266-1.7578-2.8516 0-4.4922 1.3672-1.6016 1.3672-1.6016 3.75h-11.288q0-3.6719 2.2656-6.7969t6.4062-4.8828q4.1406-1.7969 9.2969-1.7969 7.8125 0 12.383 3.9453 4.6094 3.9062 4.6094 11.016v18.32q0.03906 6.0156 1.6797 9.1016v0.66406zm-9.3359-7.8516q2.5 0 4.6094-1.0938 2.1094-1.1328 3.125-3.0078v-7.2656h-4.2188q-8.4766 0-9.0234 5.8594l-0.03906 0.66406q0 2.1094 1.4844 3.4766t4.0625 1.3672z"/>
    <path d="m66.149 133.37 0.35156 4.7266q4.4922-5.5078 12.148-5.5078 8.1641 0 11.211 6.4453 4.4531-6.4453 12.695-6.4453 6.875 0 10.234 4.0234 3.3594 3.9844 3.3594 12.031v26.992h-11.328v-26.953q0-3.5938-1.4062-5.2344-1.4062-1.6797-4.9609-1.6797-5.0781 0-7.0312 4.8438l0.03906 29.023h-11.289v-26.914q0-3.6719-1.4453-5.3125t-4.9219-1.6406q-4.8047 0-6.9531 3.9844v29.883h-11.289v-42.266h10.586z"/>
    <path d="m144.23 176.42q-9.2969 0-15.156-5.7031-5.8203-5.7031-5.8203-15.195v-1.0938q0-6.3672 2.4609-11.367 2.4609-5.0391 6.9531-7.7344 4.5312-2.7344 10.312-2.7344 8.6719 0 13.633 5.4688 5 5.4688 5 15.508v4.6094h-26.914q0.54688 4.1406 3.2812 6.6406 2.7734 2.5 6.9922 2.5 6.5234 0 10.195-4.7266l5.5469 6.2109q-2.5391 3.5938-6.875 5.625-4.3359 1.9922-9.6094 1.9922zm-1.2891-34.688q-3.3594 0-5.4688 2.2656-2.0703 2.2656-2.6562 6.4844h15.703v-0.89843q-0.0781-3.75-2.0312-5.7812-1.9531-2.0703-5.5469-2.0703z"/>
   </g>
  </g>
 </g>
</svg>
