<svg width="60" height="60" viewBox="0 0 60 60" fill="none" xmlns="http://www.w3.org/2000/svg">
<path fill-rule="evenodd" clip-rule="evenodd" d="M54 50.8396L54 15C54 10.5817 50.4183 7 46 7L18.0007 7C19.2561 8.67132 20 10.7488 20 13L20 50.8396L35.7157 43.3953C36.5286 43.0103 37.4714 43.0103 38.2843 43.3953L54 50.8396ZM10 7L10 3L46 3C52.6274 3 58 8.37258 58 15L58 52.4198C58 54.6221 55.7061 56.0738 53.7157 55.131L37 47.213L20.2843 55.131C18.2939 56.0738 16 54.6221 16 52.4198L16 13C16 9.68629 13.3137 7 10 7Z" fill="#0D2743"/>
<path fill-rule="evenodd" clip-rule="evenodd" d="M2 24H18V28H2V24Z" fill="#0D2743"/>
<path fill-rule="evenodd" clip-rule="evenodd" d="M0 13C0 7.47715 4.47715 3 10 3H18C19.1046 3 20 3.89543 20 5C20 6.10457 19.1046 7 18 7H10C6.68629 7 4 9.68629 4 13V26C4 27.1046 3.10457 28 2 28C0.89543 28 0 27.1046 0 26V13Z" fill="#0D2743"/>
<path d="M28 14H40C43.3137 14 46 16.6863 46 20V22H34C30.6863 22 28 19.3137 28 16V14Z" fill="#305680"/>
</svg>
