<svg width="273" height="232" viewBox="0 0 273 232" fill="none" xmlns="http://www.w3.org/2000/svg">
    <g clip-path="url(#clip0_14598_1483)">
        <path fill-rule="evenodd" clip-rule="evenodd" d="M189.538 38.4677V0.884766L188.209 0.884766V38.4677H189.538Z" fill="#3E9AF8"/>
        <path d="M189.538 38.0838C176.744 38.0838 164.075 40.6038 152.255 45.4999C140.434 50.396 129.694 57.5723 120.647 66.6192C111.6 75.666 104.424 86.4062 99.528 98.2265C94.6318 110.047 92.1119 122.716 92.1119 135.51H93.4394C93.4394 122.89 95.925 110.394 100.754 98.7345C105.584 87.0753 112.662 76.4814 121.586 67.5579C130.51 58.6343 141.103 51.5557 152.763 46.7263C164.422 41.8969 176.918 39.4113 189.538 39.4113V38.0838Z" fill="#3E9AF8"/>
        <path fill-rule="evenodd" clip-rule="evenodd" d="M93.4404 135.067L20.8137 135.067L20.8137 136.395L93.4404 136.396L93.4404 135.067Z" fill="#3E9AF8"/>
        <path d="M10.6283 146.138C16.4981 146.138 21.2566 141.379 21.2566 135.51C21.2566 129.64 16.4981 124.881 10.6283 124.881C4.75845 124.881 0 129.64 0 135.51C0 141.379 4.75845 146.138 10.6283 146.138Z" fill="#F4F8FE"/>
        <path fill-rule="evenodd" clip-rule="evenodd" d="M19.928 135.51C19.928 140.646 15.7644 144.809 10.6283 144.809C5.49218 144.809 1.32854 140.646 1.32854 135.51C1.32854 130.374 5.49218 126.21 10.6283 126.21C15.7644 126.21 19.928 130.374 19.928 135.51ZM21.2566 135.51C21.2566 141.379 16.4981 146.138 10.6283 146.138C4.75845 146.138 0 141.379 0 135.51C0 129.64 4.75845 124.881 10.6283 124.881C16.4981 124.881 21.2566 129.64 21.2566 135.51Z" fill="#3E9AF8"/>
        <rect x="0.664268" y="0.664268" width="164.698" height="164.698" rx="82.3489" transform="matrix(0 1 1 0 106.283 52.2549)" stroke="#3E9AF8" stroke-width="1.32854"/>
        <g clip-path="url(#clip1_14598_1483)">
            <mask id="mask0_14598_1483" style="mask-type:luminance" maskUnits="userSpaceOnUse" x="148" y="94" width="82" height="82">
                <path d="M148.796 94.7681H229.796V175.768H148.796V94.7681Z" fill="white"/>
            </mask>
            <g mask="url(#mask0_14598_1483)">
                <path d="M172.497 149.447C169.668 152.595 167.982 156.555 167.982 160.858V164.402H150.378V149.281H172.497V149.447Z" stroke="#2A7DEC" stroke-width="3.52174" stroke-miterlimit="10" stroke-linecap="round" stroke-linejoin="round"/>
                <path d="M228.214 149.281V164.402H210.755V160.858C210.755 156.484 209.013 152.464 206.096 149.292V149.281H228.214Z" stroke="#2A7DEC" stroke-width="3.52174" stroke-miterlimit="10" stroke-linecap="round" stroke-linejoin="round"/>
                <path d="M172.497 149.28H150.378V128.052H172.497V149.28Z" stroke="#2A7DEC" stroke-width="3.52174" stroke-miterlimit="10" stroke-linecap="round" stroke-linejoin="round"/>
                <path d="M206.095 128.052H228.214V149.28H206.095V128.052Z" stroke="#2A7DEC" stroke-width="3.52174" stroke-miterlimit="10" stroke-linecap="round" stroke-linejoin="round"/>
                <path d="M206.095 128.052V149.28C196.817 140.002 181.775 140.002 172.497 149.28V128.052C174.206 126.343 181.703 121.73 189.613 121.73C196.455 121.73 204.202 126.159 206.095 128.052Z" stroke="#2A7DEC" stroke-width="3.52174" stroke-miterlimit="10" stroke-linecap="round" stroke-linejoin="round"/>
                <path d="M150.378 140.711H172.497V149.28H150.378V140.711Z" stroke="#2A7DEC" stroke-width="3.52174" stroke-miterlimit="10" stroke-linecap="round" stroke-linejoin="round"/>
                <path d="M206.095 140.711H228.214V149.28H206.095V140.711Z" stroke="#2A7DEC" stroke-width="3.52174" stroke-miterlimit="10" stroke-linecap="round" stroke-linejoin="round"/>
                <path d="M195.799 133.991C199.452 134.836 203.113 136.422 206.095 139.129V149.28C196.817 140.002 181.775 140.002 172.497 149.28V139.129C175.389 136.524 178.815 134.997 182.412 134.091" stroke="#2A7DEC" stroke-width="3.52174" stroke-miterlimit="10" stroke-linecap="round" stroke-linejoin="round"/>
                <path d="M172.497 128.052V112.122" stroke="#2A7DEC" stroke-width="3.52174" stroke-miterlimit="10" stroke-linecap="round" stroke-linejoin="round"/>
                <path d="M206.095 128.052V112.122" stroke="#2A7DEC" stroke-width="3.52174" stroke-miterlimit="10" stroke-linecap="round" stroke-linejoin="round"/>
                <path d="M150.378 116.48H172.497C172.497 116.48 177.834 110.382 189.296 110.382C200.759 110.382 206.096 116.48 206.096 116.48H228.214" stroke="#2A7DEC" stroke-width="3.52174" stroke-miterlimit="10" stroke-linecap="round" stroke-linejoin="round"/>
                <path d="M189.296 106.134V121.729" stroke="#2A7DEC" stroke-width="3.52174" stroke-miterlimit="10" stroke-linecap="round" stroke-linejoin="round"/>
                <path d="M156.071 112.122V128.052" stroke="#2A7DEC" stroke-width="3.52174" stroke-miterlimit="10" stroke-linecap="round" stroke-linejoin="round"/>
                <path d="M222.246 112.122V128.052" stroke="#2A7DEC" stroke-width="3.52174" stroke-miterlimit="10" stroke-linecap="round" stroke-linejoin="round"/>
            </g>
            <circle cx="189.296" cy="132.627" r="1.76087" fill="#2A7DEC"/>
        </g>
    </g>
    <defs>
        <clipPath id="clip0_14598_1483">
            <rect width="232" height="273" fill="white" transform="matrix(0 1 1 0 0 0)"/>
        </clipPath>
        <clipPath id="clip1_14598_1483">
            <rect width="81" height="81" fill="white" transform="translate(148.796 94.7681)"/>
        </clipPath>
    </defs>
</svg>
