<svg width="261" height="428" viewBox="0 0 306 428" fill="none" xmlns="http://www.w3.org/2000/svg">
<path fill-rule="evenodd" clip-rule="evenodd" d="M43.4334 214H1V212.5H43.4334V214Z" fill="#91A3BE"/>
<path d="M43 214C43 199.555 45.8452 185.251 51.3732 171.905C56.9013 158.559 65.0038 146.433 75.2183 136.218C85.4327 126.004 97.559 117.901 110.905 112.373C124.251 106.845 138.555 104 153 104V105.499C138.751 105.499 124.642 108.305 111.478 113.758C98.3144 119.211 86.3533 127.203 76.2781 137.278C66.2028 147.353 58.2107 159.314 52.758 172.478C47.3053 185.642 44.4988 199.751 44.4988 214H43Z" fill="#91A3BE"/>
<path fill-rule="evenodd" clip-rule="evenodd" d="M152.5 105.5L152.5 23.5L154 23.5L154 105.5L152.5 105.5Z" fill="#91A3BE"/>
<path d="M165 12C165 18.6274 159.627 24 153 24C146.373 24 141 18.6274 141 12C141 5.37258 146.373 0 153 0C159.627 0 165 5.37258 165 12Z" fill="#F4F8FE"/>
<path fill-rule="evenodd" clip-rule="evenodd" d="M153 22.5C158.799 22.5 163.5 17.799 163.5 12C163.5 6.20101 158.799 1.5 153 1.5C147.201 1.5 142.5 6.20101 142.5 12C142.5 17.799 147.201 22.5 153 22.5ZM153 24C159.627 24 165 18.6274 165 12C165 5.37258 159.627 0 153 0C146.373 0 141 5.37258 141 12C141 18.6274 146.373 24 153 24Z" fill="#91A3BE"/>
<rect x="59.75" y="120.75" width="186.5" height="186.5" rx="93.25" stroke="#91A3BE" stroke-width="1.5"/>
<path d="M198.475 214.309L183.442 199.238C183.104 198.9 182.646 198.711 182.169 198.711H172.934C170.86 198.711 169.172 200.398 169.172 202.472V223.125H163.253V205.156C163.253 203.175 161.641 201.562 159.66 201.562H152.472V183.594C152.472 181.612 150.86 180 148.878 180H130.91C128.928 180 127.316 181.612 127.316 183.594V191.5H120.106C119.113 191.5 118.309 192.304 118.309 193.297C118.309 194.289 119.113 195.094 120.106 195.094H127.316V201.562H108.797C107.804 201.562 107 202.367 107 203.359C107 204.352 107.804 205.156 108.797 205.156H116.512V223.125H108.797C107.804 223.125 107 223.929 107 224.922V234.984C107 235.977 107.804 236.781 108.797 236.781H116.396C116.354 237.135 116.329 237.494 116.329 237.859C116.329 239.88 117 241.747 118.131 243.25H108.797C107.804 243.25 107 244.054 107 245.047C107 246.039 107.804 246.844 108.797 246.844H139.688C144.642 246.844 148.673 242.813 148.673 237.859C148.673 237.494 148.648 237.135 148.605 236.781H174.629C174.587 237.135 174.562 237.494 174.562 237.859C174.562 239.88 175.234 241.747 176.364 243.25H159.379C158.386 243.25 157.582 244.054 157.582 245.047C157.582 246.039 158.386 246.844 159.379 246.844H183.547C188.501 246.844 192.531 242.813 192.531 237.859C192.531 237.494 192.507 237.135 192.465 236.781H195.238C197.312 236.781 199 235.094 199 233.019V215.578C199 215.102 198.811 214.646 198.475 214.309ZM195.406 220.25H186.088L189.402 216.937L192.715 213.623L195.406 216.321V220.25ZM179.953 218.453V213.194L186.127 207.019L190.177 211.079L181.121 220.134C180.44 219.879 179.953 219.222 179.953 218.453ZM183.589 204.475L179.953 208.111V202.304H181.424L183.589 204.475ZM159.662 223.125H159.66H141.691V205.156H145.285V210.547C145.285 211.539 146.089 212.344 147.082 212.344H154.269C155.262 212.344 156.066 211.539 156.066 210.547V205.156H159.66L159.662 223.125ZM148.878 205.156H152.472V208.75H148.878V205.156ZM141.668 183.594V187.188H138.075V183.594H141.668ZM130.91 183.594H134.481V188.984C134.481 189.977 135.285 190.781 136.278 190.781H143.465C144.457 190.781 145.262 189.977 145.262 188.984V183.594H148.878L148.881 201.562H148.878H130.91V183.594ZM130.91 205.156V208.75H127.316V205.156H130.91ZM120.106 205.156H123.722V210.547C123.722 211.539 124.527 212.344 125.519 212.344H132.707C133.699 212.344 134.503 211.539 134.503 210.547V205.156H138.075L138.077 223.125H138.075H120.106V205.156ZM119.923 237.859C119.923 234.887 122.341 232.469 125.313 232.469C128.286 232.469 130.704 234.887 130.704 237.859C130.704 240.832 128.286 243.25 125.313 243.25C122.341 243.25 119.923 240.832 119.923 237.859ZM132.501 243.244C132.502 243.246 132.504 243.248 132.506 243.25H132.496C132.497 243.248 132.499 243.246 132.501 243.244ZM139.688 243.25C136.716 243.25 134.298 240.832 134.298 237.859C134.298 234.887 136.716 232.469 139.688 232.469C142.661 232.469 145.079 234.887 145.079 237.859C145.079 240.832 142.661 243.25 139.688 243.25ZM147.359 233.188C145.78 230.603 142.932 228.875 139.688 228.875C136.752 228.875 134.141 230.291 132.501 232.475C130.86 230.291 128.249 228.875 125.313 228.875C122.069 228.875 119.222 230.603 117.642 233.188H110.594V226.719H169.172V233.188H147.359ZM183.547 243.25C180.574 243.25 178.156 240.832 178.156 237.859C178.156 234.887 180.574 232.469 183.547 232.469C186.519 232.469 188.938 234.887 188.938 237.859C188.938 240.832 186.519 243.25 183.547 243.25ZM195.238 233.188H191.218C189.638 230.603 186.791 228.875 183.547 228.875C180.303 228.875 177.455 230.603 175.876 233.188H172.766V202.472C172.766 202.38 172.841 202.304 172.934 202.304H176.359V218.453C176.359 221.426 178.777 223.844 181.75 223.844H195.406V233.019C195.406 233.112 195.33 233.188 195.238 233.188Z" fill="#305680"/>
<path d="M152.191 243.25C151.719 243.25 151.255 243.442 150.921 243.776C150.587 244.111 150.395 244.574 150.395 245.047C150.395 245.519 150.587 245.983 150.921 246.317C151.255 246.651 151.719 246.844 152.191 246.844C152.664 246.844 153.128 246.651 153.462 246.317C153.796 245.983 153.988 245.519 153.988 245.047C153.988 244.574 153.796 244.111 153.462 243.776C153.128 243.442 152.664 243.25 152.191 243.25Z" fill="#305680"/>
<path d="M112.797 195.094C113.27 195.094 113.733 194.901 114.067 194.567C114.401 194.233 114.594 193.769 114.594 193.297C114.594 192.824 114.402 192.361 114.067 192.026C113.733 191.692 113.27 191.5 112.797 191.5C112.323 191.5 111.859 191.692 111.525 192.026C111.191 192.361 111 192.824 111 193.297C111 193.769 111.191 194.233 111.525 194.567C111.859 194.901 112.323 195.094 112.797 195.094Z" fill="#305680"/>
</svg>
