<svg width="273" height="218" viewBox="0 0 273 218" fill="none" xmlns="http://www.w3.org/2000/svg">
    <path fill-rule="evenodd" clip-rule="evenodd" d="M83.2552 37.5829V0L84.5838 0V37.5829H83.2552Z" fill="#91A3BE"/>
    <path d="M83.2556 37.199C96.0498 37.199 108.719 39.719 120.539 44.6151C132.359 49.5112 143.099 56.6876 152.146 65.7344C161.193 74.7813 168.369 85.5214 173.266 97.3417C178.162 109.162 180.682 121.831 180.682 134.625H179.354C179.354 122.005 176.868 109.509 172.039 97.8497C167.21 86.1905 160.131 75.5967 151.208 66.6731C142.284 57.7495 131.69 50.671 120.031 45.8416C108.372 41.0122 95.8755 38.5265 83.2556 38.5265V37.199Z" fill="#91A3BE"/>
    <path fill-rule="evenodd" clip-rule="evenodd" d="M179.352 134.182L251.978 134.182L251.978 135.511L179.352 135.511L179.352 134.182Z" fill="#91A3BE"/>
    <path d="M262.164 145.253C256.295 145.253 251.536 140.495 251.536 134.625C251.536 128.755 256.295 123.997 262.164 123.997C268.034 123.997 272.793 128.755 272.793 134.625C272.793 140.495 268.034 145.253 262.164 145.253Z" fill="#F4F8FE"/>
    <path fill-rule="evenodd" clip-rule="evenodd" d="M252.865 134.625C252.865 139.761 257.028 143.925 262.164 143.925C267.301 143.925 271.464 139.761 271.464 134.625C271.464 129.489 267.301 125.325 262.164 125.325C257.028 125.325 252.865 129.489 252.865 134.625ZM251.536 134.625C251.536 140.495 256.295 145.253 262.164 145.253C268.034 145.253 272.793 140.495 272.793 134.625C272.793 128.755 268.034 123.997 262.164 123.997C256.295 123.997 251.536 128.755 251.536 134.625Z" fill="#91A3BE"/>
    <rect x="165.845" y="52.0344" width="164.698" height="164.698" rx="82.3489" transform="rotate(90 165.845 52.0344)" stroke="#91A3BE" stroke-width="1.32854"/>
    <g clip-path="url(#clip0_14598_1386)">
        <path d="M122.414 162.97V172.775H98.3286V162.97C99.0214 162.979 99.7126 163.228 100.269 163.714L100.313 163.753C101.446 164.748 103.143 164.748 104.276 163.753L104.322 163.714C105.456 162.72 107.152 162.72 108.286 163.714L108.332 163.753C109.465 164.748 111.162 164.748 112.295 163.753L112.34 163.714C113.475 162.72 115.17 162.72 116.305 163.714L116.349 163.753C117.485 164.748 119.179 164.748 120.315 163.753L120.359 163.714C120.927 163.217 121.635 162.968 122.342 162.968C122.367 162.968 122.39 162.968 122.414 162.97Z" stroke="#305680" stroke-width="3.52174" stroke-miterlimit="10" stroke-linecap="round" stroke-linejoin="round"/>
        <path d="M98.3287 162.97V172.775H74.243V162.97C74.9357 162.979 75.6269 163.228 76.1828 163.714L76.2273 163.753C77.3607 164.748 79.0572 164.748 80.1906 163.753L80.2368 163.714C81.3702 162.72 83.0667 162.72 84.2001 163.714L84.2463 163.753C85.3797 164.748 87.0762 164.748 88.2096 163.753L88.2541 163.714C89.3892 162.72 91.084 162.72 92.2193 163.714L92.2637 163.753C93.3988 164.748 95.0936 164.748 96.2289 163.753L96.2734 163.714C96.8418 163.217 97.549 162.968 98.256 162.968C98.2806 162.968 98.3037 162.968 98.3287 162.97Z" stroke="#305680" stroke-width="3.52174" stroke-miterlimit="10" stroke-linecap="round" stroke-linejoin="round"/>
        <path d="M91.4487 141.951L84.7349 133.125L80.785 135.558L80.0166 140.218L91.4487 141.951Z" stroke="#305680" stroke-width="3.52174" stroke-miterlimit="10" stroke-linecap="round" stroke-linejoin="round"/>
        <path d="M105.454 141.756L112.167 132.931L116.095 134.77L116.886 140.024L105.454 141.756Z" stroke="#305680" stroke-width="3.52174" stroke-miterlimit="10" stroke-linecap="round" stroke-linejoin="round"/>
        <path d="M98.3294 153.543V172.775H74.243V148.81H93.6039L98.3278 153.542L98.3294 153.543Z" stroke="#305680" stroke-width="3.52174" stroke-miterlimit="10" stroke-linecap="round" stroke-linejoin="round"/>
        <path d="M122.414 148.81V172.775H98.3279V153.542L98.3295 153.543L98.3643 153.588L103.291 148.81H122.414Z" stroke="#305680" stroke-width="3.52174" stroke-miterlimit="10" stroke-linecap="round" stroke-linejoin="round"/>
        <circle cx="61.9257" cy="128.66" r="1.76087" fill="#305680"/>
        <path d="M57.1296 133.51L44.5784 146.061L50.5702 152.053L84.0874 118.535L78.0958 112.543L66.9042 123.735" stroke="#305680" stroke-width="3.52174" stroke-miterlimit="10" stroke-linecap="round" stroke-linejoin="round"/>
        <path d="M96.656 100.446C94.7451 98.535 91.6468 98.535 89.7359 100.446L87.607 102.575L94.5271 109.495L96.656 107.366C98.567 105.455 98.567 102.357 96.656 100.446Z" stroke="#305680" stroke-width="3.52174" stroke-miterlimit="10" stroke-linecap="round" stroke-linejoin="round"/>
        <path d="M84.7661 99.7349L75.0264 109.475L87.6271 122.075L97.3668 112.336L84.7661 99.7349Z" stroke="#305680" stroke-width="3.52174" stroke-miterlimit="10" stroke-linecap="round" stroke-linejoin="round"/>
        <path d="M95.3041 114.399L89.783 119.92C92.8548 123.33 94.9694 127.506 95.8952 132.019L96.6152 135.526C96.7011 135.945 96.9081 136.314 97.1937 136.6C97.5815 136.987 98.1144 137.222 98.6955 137.222C99.7969 137.222 100.715 136.382 100.81 135.285L101.012 132.971C101.601 126.238 99.528 119.583 95.3041 114.399Z" stroke="#305680" stroke-width="3.52174" stroke-miterlimit="10" stroke-linecap="round" stroke-linejoin="round"/>
        <path d="M82.7032 101.798L77.1821 107.319C73.7717 104.247 69.5958 102.133 65.0827 101.207L61.5763 100.487C61.1569 100.401 60.7882 100.194 60.5026 99.9083C60.1148 99.5206 59.8799 98.9876 59.8799 98.4065C59.8799 97.3051 60.7198 96.3867 61.8176 96.2921L64.1316 96.0901C70.864 95.5013 77.5194 97.574 82.7032 101.798Z" stroke="#305680" stroke-width="3.52174" stroke-miterlimit="10" stroke-linecap="round" stroke-linejoin="round"/>
    </g>
    <defs>
        <clipPath id="clip0_14598_1386">
            <rect width="81" height="81" fill="white" transform="translate(42.9964 93.8833)"/>
        </clipPath>
    </defs>
</svg>
