<svg width="273" height="232" viewBox="0 0 273 232" fill="none" xmlns="http://www.w3.org/2000/svg">
    <g clip-path="url(#clip0_13683_4215)">
        <path fill-rule="evenodd" clip-rule="evenodd" d="M83.4622 38.4677V0.884766L84.7908 0.884766V38.4677H83.4622Z" fill="#91A3BE"/>
        <path d="M83.4622 38.0838C96.2563 38.0838 108.925 40.6038 120.745 45.4999C132.566 50.396 143.306 57.5723 152.353 66.6192C161.4 75.666 168.576 86.4062 173.472 98.2265C178.368 110.047 180.888 122.716 180.888 135.51H179.561C179.561 122.89 177.075 110.394 172.246 98.7345C167.416 87.0753 160.338 76.4814 151.414 67.5579C142.49 58.6343 131.897 51.5557 120.237 46.7263C108.578 41.8969 96.082 39.4113 83.4622 39.4113V38.0838Z" fill="#91A3BE"/>
        <path fill-rule="evenodd" clip-rule="evenodd" d="M179.56 135.067L252.186 135.067L252.186 136.395L179.56 136.396L179.56 135.067Z" fill="#91A3BE"/>
        <path d="M262.372 146.138C256.502 146.138 251.743 141.379 251.743 135.51C251.743 129.64 256.502 124.881 262.372 124.881C268.242 124.881 273 129.64 273 135.51C273 141.379 268.242 146.138 262.372 146.138Z" fill="#F4F8FE"/>
        <path fill-rule="evenodd" clip-rule="evenodd" d="M253.072 135.51C253.072 140.646 257.236 144.809 262.372 144.809C267.508 144.809 271.671 140.646 271.671 135.51C271.671 130.374 267.508 126.21 262.372 126.21C257.236 126.21 253.072 130.374 253.072 135.51ZM251.743 135.51C251.743 141.379 256.502 146.138 262.372 146.138C268.242 146.138 273 141.379 273 135.51C273 129.64 268.242 124.881 262.372 124.881C256.502 124.881 251.743 129.64 251.743 135.51Z" fill="#91A3BE"/>
        <rect x="166.053" y="52.9192" width="164.698" height="164.698" rx="82.3489" transform="rotate(90 166.053 52.9192)" stroke="#91A3BE" stroke-width="1.32854"/>
        <g clip-path="url(#clip1_13683_4215)">
            <mask id="mask0_13683_4215" style="mask-type:luminance" maskUnits="userSpaceOnUse" x="43" y="94" width="82" height="82">
                <path d="M43.2039 94.7681H124.204V175.768H43.2039V94.7681Z" fill="white"/>
            </mask>
            <g mask="url(#mask0_13683_4215)">
                <path d="M79.7489 96.3493H87.6591C88.5292 96.3493 89.0981 97.0731 89.2411 97.9313L90.0274 102.648C94.5017 103.511 98.6571 105.269 102.297 107.731L106.189 104.951C106.897 104.446 107.811 104.336 108.427 104.951L114.02 110.545C114.635 111.16 114.526 112.074 114.02 112.782L111.24 116.674C113.703 120.314 115.461 124.47 116.323 128.944L121.04 129.73C121.899 129.873 122.622 130.442 122.622 131.312L122.622 139.223C122.622 140.093 121.898 140.662 121.04 140.805L116.323 141.591C115.461 146.065 113.702 150.22 111.24 153.861L114.02 157.753C114.526 158.461 114.635 159.375 114.02 159.99L108.427 165.583C107.811 166.199 106.897 166.089 106.189 165.583L102.297 162.803C98.6575 165.267 94.5017 167.024 90.0272 167.887L89.2411 172.604C89.0979 173.462 88.5292 174.186 87.6591 174.186H79.7489C78.8788 174.186 78.3099 173.462 78.1669 172.604L77.3808 167.887C72.9063 167.024 68.7511 165.266 65.1106 162.803L61.2186 165.583C60.5106 166.089 59.5967 166.199 58.9815 165.583L53.388 159.99C52.7728 159.375 52.8824 158.461 53.388 157.753L56.168 153.861C53.7049 150.221 51.9474 146.065 51.0851 141.591L46.3679 140.805C45.5095 140.662 44.7859 140.093 44.7859 139.223V131.312C44.7859 130.442 45.5097 129.873 46.3679 129.73L51.0851 128.944C51.9474 124.47 53.7057 120.315 56.168 116.674L53.388 112.782C52.8823 112.074 52.7728 111.16 53.388 110.545L58.9815 104.951C59.5967 104.336 60.5106 104.446 61.2186 104.951L65.1106 107.731C68.7507 105.269 72.9063 103.511 77.3808 102.648L78.1669 97.9313C78.3101 97.0731 78.8788 96.3493 79.7489 96.3493Z" stroke="#305680" stroke-width="3.52174" stroke-miterlimit="22.926" stroke-linecap="round" stroke-linejoin="round"/>
                <path d="M72.6546 114.263C75.9548 112.523 79.7141 111.537 83.7041 111.537C96.81 111.537 107.435 122.162 107.435 135.268C107.435 148.373 96.81 158.998 83.7041 158.998C70.5981 158.998 59.9736 148.373 59.9736 135.268C59.9736 131.278 60.9594 127.519 62.699 124.219" stroke="#305680" stroke-width="3.52174" stroke-miterlimit="22.926" stroke-linecap="round" stroke-linejoin="round"/>
                <path d="M74.3846 134.12C72.9308 135.089 70.9664 134.697 69.997 133.243C69.0277 131.789 69.4207 129.824 70.8746 128.855L81.9488 121.472C83.0641 120.729 84.4801 120.787 85.5165 121.511L96.5331 128.855C97.987 129.824 98.3799 131.789 97.4106 133.243C96.4413 134.697 94.4769 135.089 93.023 134.12L83.7038 127.907L74.3846 134.12Z" stroke="#305680" stroke-width="3.52174" stroke-miterlimit="22.926" stroke-linecap="round" stroke-linejoin="round"/>
                <path d="M94.6052 134.924V146.43H72.8027V134.924" stroke="#305680" stroke-width="3.52174" stroke-miterlimit="22.926" stroke-linecap="round" stroke-linejoin="round"/>
                <path d="M80.5398 146.035V137.364H86.8679V146.035" stroke="#305680" stroke-width="3.52174" stroke-miterlimit="22.926" stroke-linecap="round" stroke-linejoin="round"/>
                <path d="M66.9231 118.489L66.924 118.488" stroke="#305680" stroke-width="3.52174" stroke-miterlimit="2.613" stroke-linecap="round" stroke-linejoin="round"/>
            </g>
        </g>
    </g>
    <defs>
        <clipPath id="clip0_13683_4215">
            <rect width="232" height="273" fill="white" transform="matrix(0 1 -1 0 273 0)"/>
        </clipPath>
        <clipPath id="clip1_13683_4215">
            <rect width="81" height="81" fill="white" transform="translate(43.2039 94.7681)"/>
        </clipPath>
    </defs>
</svg>
