<svg width="248" height="308" viewBox="0 0 246 308" fill="none" xmlns="http://www.w3.org/2000/svg">
    <path fill-rule="evenodd" clip-rule="evenodd" d="M42.4334 214H0V212.5H42.4334V214Z" fill="#91A3BE"/>
    <path d="M42 214C42 199.555 44.8452 185.251 50.3732 171.905C55.9013 158.559 64.0038 146.433 74.2183 136.218C84.4327 126.004 96.559 117.901 109.905 112.373C123.251 106.845 137.555 104 152 104V105.499C137.751 105.499 123.642 108.305 110.478 113.758C97.3144 119.211 85.3533 127.203 75.2781 137.278C65.2028 147.353 57.2107 159.314 51.758 172.478C46.3053 185.642 43.4988 199.751 43.4988 214H42Z" fill="#91A3BE"/>
    <path fill-rule="evenodd" clip-rule="evenodd" d="M151.5 105.5L151.5 23.5L153 23.5L153 105.5L151.5 105.5Z" fill="#91A3BE"/>
    <path d="M164 12C164 18.6274 158.627 24 152 24C145.373 24 140 18.6274 140 12C140 5.37258 145.373 0 152 0C158.627 0 164 5.37258 164 12Z" fill="#F4F8FE"/>
    <path fill-rule="evenodd" clip-rule="evenodd" d="M152 22.5C157.799 22.5 162.5 17.799 162.5 12C162.5 6.20101 157.799 1.5 152 1.5C146.201 1.5 141.5 6.20101 141.5 12C141.5 17.799 146.201 22.5 152 22.5ZM152 24C158.627 24 164 18.6274 164 12C164 5.37258 158.627 0 152 0C145.373 0 140 5.37258 140 12C140 18.6274 145.373 24 152 24Z" fill="#91A3BE"/>
    <rect x="58.75" y="120.75" width="186.5" height="186.5" rx="93.25" stroke="#91A3BE" stroke-width="1.5"/>
    <g clip-path="url(#clip0_13666_3826)">
        <mask id="mask0_13666_3826" style="mask-type:luminance" maskUnits="userSpaceOnUse" x="106" y="168" width="93" height="92">
            <path d="M106 168H198V260H106V168Z" fill="white"/>
        </mask>
        <g mask="url(#mask0_13666_3826)">
            <path d="M147.508 169.796H156.492C157.481 169.796 158.127 170.618 158.289 171.593L159.182 176.951C164.264 177.93 168.984 179.927 173.119 182.724L177.539 179.566C178.343 178.992 179.381 178.868 180.08 179.566L186.433 185.919C187.132 186.618 187.007 187.656 186.433 188.46L183.276 192.881C186.073 197.015 188.069 201.735 189.049 206.817L194.407 207.71C195.382 207.873 196.203 208.519 196.203 209.507L196.203 218.492C196.203 219.48 195.381 220.126 194.407 220.288L189.049 221.181C188.069 226.263 186.073 230.983 183.276 235.118L186.433 239.538C187.008 240.342 187.132 241.381 186.433 242.079L180.08 248.432C179.381 249.131 178.343 249.007 177.539 248.432L173.119 245.275C168.984 248.072 164.264 250.069 159.182 251.048L158.289 256.406C158.127 257.381 157.481 258.203 156.492 258.203H147.508C146.52 258.203 145.874 257.381 145.711 256.406L144.818 251.048C139.736 250.069 135.017 248.072 130.882 245.275L126.461 248.432C125.657 249.007 124.619 249.131 123.92 248.432L117.567 242.079C116.868 241.381 116.993 240.342 117.567 239.538L120.725 235.118C117.927 230.983 115.931 226.264 114.951 221.181L109.594 220.288C108.619 220.126 107.797 219.48 107.797 218.492V209.507C107.797 208.519 108.619 207.873 109.594 207.71L114.951 206.817C115.931 201.735 117.928 197.016 120.725 192.881L117.567 188.46C116.993 187.656 116.868 186.618 117.567 185.919L123.92 179.566C124.619 178.868 125.657 178.992 126.461 179.566L130.882 182.724C135.016 179.927 139.736 177.93 144.818 176.951L145.711 171.593C145.874 170.618 146.52 169.796 147.508 169.796Z" stroke="#305680" stroke-width="4" stroke-miterlimit="22.926" stroke-linecap="round" stroke-linejoin="round"/>
            <path d="M139.45 190.143C143.198 188.167 147.468 187.046 152 187.046C166.886 187.046 178.953 199.114 178.953 214C178.953 228.885 166.886 240.953 152 240.953C137.114 240.953 125.047 228.885 125.047 214C125.047 209.468 126.167 205.198 128.142 201.451" stroke="#305680" stroke-width="4" stroke-miterlimit="22.926" stroke-linecap="round" stroke-linejoin="round"/>
            <path d="M141.415 212.696C139.764 213.797 137.533 213.351 136.432 211.7C135.331 210.048 135.777 207.817 137.429 206.716L150.007 198.331C151.273 197.486 152.882 197.552 154.059 198.375L166.572 206.716C168.223 207.817 168.669 210.048 167.568 211.7C166.467 213.351 164.236 213.797 162.585 212.696L152 205.64L141.415 212.696Z" stroke="#305680" stroke-width="4" stroke-miterlimit="22.926" stroke-linecap="round" stroke-linejoin="round"/>
            <path d="M164.382 213.61V226.678H139.619V213.61" stroke="#305680" stroke-width="4" stroke-miterlimit="22.926" stroke-linecap="round" stroke-linejoin="round"/>
            <path d="M148.406 226.229V216.381H155.594V226.229" stroke="#305680" stroke-width="4" stroke-miterlimit="22.926" stroke-linecap="round" stroke-linejoin="round"/>
            <path d="M132.94 194.942L132.941 194.941" stroke="#305680" stroke-width="4" stroke-miterlimit="2.613" stroke-linecap="round" stroke-linejoin="round"/>
        </g>
    </g>
    <defs>
        <clipPath id="clip0_13666_3826">
            <rect width="92" height="92" fill="white" transform="translate(106 168)"/>
        </clipPath>
    </defs>
</svg>
