<?xml version="1.0" encoding="UTF-8"?>
<svg width="36" height="36" fill="none" version="1.1" viewBox="0 0 36 36" xmlns="http://www.w3.org/2000/svg">
 <g clip-path="url(#clip0_2335_7013)" fill="#000">
  <path d="M19 4C23.564 4 27.4138 7.05745 28.6131 11.2359C32.8427 12.1966 36 15.9796 36 20.5C36 25.6153 31.9571 29.7863 26.8923 29.992V29.9974H26.7232C26.649 29.9991 26.5746 30 26.5 30C26.4254 30 26.351 29.9991 26.2768 29.9974H8.20483C8.13676 29.9991 8.06848 30 8 30C7.93152 30 7.86324 29.9991 7.79517 29.9974H7.6569V29.9928C3.39778 29.8131 0 26.3033 0 22C0 17.5817 3.58172 14 8 14C8.33873 14 8.67253 14.0211 9.00019 14.0619L9 14C9 8.47715 13.4772 4 19 4Z" clip-rule="evenodd" fill-rule="evenodd" opacity=".16"/>
  <path d="m14.487 22.388h-3.406l-0.546 1.612h-2.327l3.302-9.126h2.574l3.302 9.126h-2.353l-0.546-1.612zm-0.572-1.716-1.131-3.341-1.118 3.341h2.249zm11.431-2.86c0 0.5287-0.1214 1.014-0.364 1.456-0.2427 0.4333-0.6154 0.7843-1.118 1.053-0.5027 0.2687-1.1267 0.403-1.872 0.403h-1.378v3.276h-2.223v-9.126h3.601c0.728 0 1.3433 0.1257 1.846 0.377 0.5026 0.2513 0.8796 0.598 1.131 1.04 0.2513 0.442 0.377 0.949 0.377 1.521zm-3.523 1.144c0.4246 0 0.741-0.0997 0.949-0.299s0.312-0.481 0.312-0.845-0.104-0.6457-0.312-0.845-0.5244-0.299-0.949-0.299h-1.209v2.288h1.209zm6.9033-4.082v9.126h-2.223v-9.126h2.223z"/>
 </g>
 <defs>
  <clipPath id="clip0_2335_7013">
   <rect width="36" height="36" fill="#fff"/>
  </clipPath>
 </defs>
</svg>
