<?xml version="1.0" encoding="UTF-8"?>
<svg width="36" height="36" version="1.1" viewBox="0 0 36 36" xmlns="http://www.w3.org/2000/svg">
 <path d="m0.9998 18c0-4.5087 1.7911-8.8327 4.9792-12.021 3.1881-3.1881 7.5121-4.9792 12.021-4.9792s8.8327 1.7911 12.021 4.9792c3.1881 3.1881 4.9792 7.5121 4.9792 12.021s-1.7911 8.8327-4.9792 12.021-7.5121 4.9792-12.021 4.9792-8.8327-1.7911-12.021-4.9792c-3.1881-3.1881-4.9792-7.5121-4.9792-12.021z" opacity=".16"/>
 <path d="m25.679 10.888c-0.13006-0.0735-0.28827-0.08775-0.43143-0.02735l-2.5541 1.0227c-0.53605-0.41452-1.1271-0.73739-1.7415-0.99984l-0.38871-2.7311c-0.01303-0.063685-0.0352-0.12189-0.06603-0.1753-0.08737-0.15133-0.25466-0.25619-0.44334-0.25408l-4.1082-0.00235c-0.26265-0.00265-0.4729 0.18912-0.50878 0.43534l-0.38314 2.7271c-0.30541 0.12885-0.61491 0.27163-0.90866 0.44123-0.29376 0.1696-0.57166 0.36582-0.83595 0.56589l-2.554-1.0311c-0.23118-0.09204-0.4974 0.0018-0.63156 0.22164l-2.0517 3.5601c-0.096174 0.16234-0.087959 0.35914 0.00455 0.51937 0.030837 0.05341 0.069329 0.10232 0.11283 0.13655l2.1704 1.7022c-0.08882 0.66846-0.09486 1.3369-0.0039 2.0084l-2.1631 1.6994c-0.19822 0.15005-0.25149 0.42989-0.123 0.65243l2.0559 3.5603c0.12849 0.22254 0.3971 0.31722 0.62616 0.22058l2.5541-1.0227c0.53605 0.41452 1.1271 0.73741 1.7415 0.99984l0.38871 2.7311c0.01303 0.06369 0.03519 0.12189 0.06603 0.1753 0.08737 0.15133 0.25465 0.25622 0.44334 0.25408l4.1082 0.0023c0.25751-0.0062 0.4715-0.18993 0.50737-0.43616l0.38455-2.7263c0.30541-0.12885 0.60601-0.26649 0.90867-0.44123 0.30266-0.17474 0.57165-0.36582 0.83595-0.56589l2.5526 1.0303c0.23117 0.09204 0.49821-0.0032 0.63238-0.22305l2.0523-3.5579c0.09614-0.16236 0.08877-0.36055-0.0038-0.52078-0.03084-0.05341-0.07015-0.10091-0.11364-0.13514l-2.1703-1.7021c0.08882-0.66847 0.09486-1.3369 0.0039-2.0084l2.1639-1.7008c0.19822-0.15005 0.25068-0.42848 0.12219-0.65102l-2.0559-3.5603c-0.04818-0.08345-0.11669-0.14913-0.19473-0.19323zm-5.6355 3.5674a4.0909 4.0909 0 0 1 1.4975 5.5886 4.0909 4.0909 0 0 1-5.5886 1.4975 4.0909 4.0909 0 0 1-1.4975-5.5886 4.0909 4.0909 0 0 1 5.5886-1.4975z" stroke-width="1.0279"/>
</svg>
