<?xml version="1.0" encoding="UTF-8"?>
<svg xmlns="http://www.w3.org/2000/svg" width="34" height="33" viewBox="0 0 34 33" fill="none">
  <path d="M1 32.1118H33" stroke="currentColor" stroke-width="1.68421" stroke-linecap="round" opacity=".16"/>
  <path d="M1 16.9539H33" stroke="currentColor" stroke-width="1.68421" stroke-linecap="round" opacity=".16"/>
  <path d="M1 1.7959H33" stroke="currentColor" stroke-width="1.68421" stroke-linecap="round" opacity=".16"/>
  <rect x="2.6842" y="21.1646" width="3.36842" height="11.7895" rx="0.842105" fill="currentColor" opacity=".16"/>
  <rect width="3.36842" height="11.7895" rx="0.842105" transform="matrix(-1 0 0 1 31.3158 6.00635)" fill="currentColor" opacity=".16"/>
  <rect width="3.36842" height="11.7895" rx="0.842105" transform="matrix(-1 0 0 1 16.1578 5.16455)" fill="currentColor" opacity=".16"/>
  <rect x="6.05261" y="19.4802" width="3.36842" height="13.4737" rx="0.842105" fill="currentColor" opacity=".16"/>
  <rect x="21.2104" y="19.4802" width="3.36842" height="13.4737" rx="0.842105" fill="currentColor" opacity=".16"/>
  <rect width="3.36842" height="13.4737" rx="0.842105" transform="matrix(-1 0 0 1 12.7896 4.32227)" fill="currentColor" opacity=".16"/>
  <rect x="26.2632" y="21.1646" width="3.36842" height="11.7895" rx="0.842105" fill="currentColor" opacity=".16"/>
  <rect width="3.36842" height="11.7895" rx="0.842105" transform="matrix(-1 0 0 1 9.42102 6.00635)" fill="currentColor" opacity=".16"/>
  <rect x="29.6316" y="19.4802" width="3.36842" height="13.4737" rx="0.842105" fill="currentColor" opacity=".16"/>
  <rect width="3.36842" height="13.4737" rx="0.842105" transform="matrix(-1 0 0 1 4.36841 4.32227)" fill="currentColor" opacity=".16"/>
  <path fill-rule="evenodd" clip-rule="evenodd" d="M13.6303 19.9013C13.6303 19.6687 13.8189 19.4802 14.0514 19.4802C14.2839 19.4802 14.4725 19.6687 14.4725 19.9013V21.1654H16.1575V19.9013C16.1575 19.6687 16.346 19.4802 16.5785 19.4802C16.8111 19.4802 16.9996 19.6687 16.9996 19.9013V21.1792C18.3262 21.3104 19.3813 22.3652 19.5131 23.6917H20.7894C21.022 23.6917 21.2105 23.8802 21.2105 24.1127C21.2105 24.3453 21.022 24.5338 20.7894 24.5338H19.5269V26.2188H20.7894C21.022 26.2188 21.2105 26.4073 21.2105 26.6398C21.2105 26.8724 21.022 27.0609 20.7894 27.0609H19.513C19.381 28.387 18.326 29.4415 16.9996 29.5727V30.8486C16.9996 31.0812 16.8111 31.2697 16.5785 31.2697C16.346 31.2697 16.1575 31.0812 16.1575 30.8486V29.5865H14.4725V30.8486C14.4725 31.0812 14.2839 31.2697 14.0514 31.2697C13.8189 31.2697 13.6303 31.0812 13.6303 30.8486V29.5724C12.3053 29.44 11.2517 28.3861 11.1198 27.0609H9.84207C9.60953 27.0609 9.42102 26.8724 9.42102 26.6398C9.42102 26.4073 9.60953 26.2188 9.84207 26.2188H11.1059V24.5338H9.84207C9.60953 24.5338 9.42102 24.3453 9.42102 24.1127C9.42102 23.8802 9.60953 23.6917 9.84207 23.6917H11.1197C11.2514 22.3662 12.3051 21.3119 13.6303 21.1795V19.9013ZM13.6304 25.3742C13.6304 24.4441 14.3844 23.69 15.3146 23.69C16.2448 23.69 16.9988 24.4441 16.9988 25.3742C16.9988 26.3044 16.2448 27.0584 15.3146 27.0584C14.3844 27.0584 13.6304 26.3044 13.6304 25.3742ZM15.3161 24.5322C14.8511 24.5322 14.474 24.9092 14.474 25.3743C14.474 25.8394 14.8511 26.2164 15.3161 26.2164C15.7812 26.2164 16.1582 25.8394 16.1582 25.3743C16.1582 24.9092 15.7812 24.5322 15.3161 24.5322Z" fill="currentColor"/>
  <path fill-rule="evenodd" clip-rule="evenodd" d="M20.3672 4.74332C20.3672 4.51078 20.5557 4.32227 20.7882 4.32227C21.0208 4.32227 21.2093 4.51078 21.2093 4.74332V6.00724H22.8943V4.74332C22.8943 4.51078 23.0828 4.32227 23.3153 4.32227C23.5479 4.32227 23.7364 4.51078 23.7364 4.74332V6.02098C25.0631 6.15216 26.1184 7.20709 26.25 8.5337H27.5263C27.7588 8.5337 27.9473 8.72221 27.9473 8.95475C27.9473 9.18729 27.7588 9.3758 27.5263 9.3758H26.2639V11.0606H27.5263C27.7588 11.0606 27.9473 11.2491 27.9473 11.4816C27.9473 11.7142 27.7588 11.9027 27.5263 11.9027H26.2499C26.1179 13.2289 25.0628 14.2834 23.7364 14.4145V15.6907C23.7364 15.9232 23.5479 16.1117 23.3153 16.1117C23.0828 16.1117 22.8943 15.9232 22.8943 15.6907V14.4283H21.2093V15.6907C21.2093 15.9232 21.0208 16.1117 20.7882 16.1117C20.5557 16.1117 20.3672 15.9232 20.3672 15.6907V14.4142C19.0422 14.2817 17.9887 13.2279 17.8567 11.9027H16.5789C16.3463 11.9027 16.1578 11.7142 16.1578 11.4816C16.1578 11.2491 16.3463 11.0606 16.5789 11.0606H17.8428V9.3758H16.5789C16.3463 9.3758 16.1578 9.18729 16.1578 8.95475C16.1578 8.72221 16.3463 8.5337 16.5789 8.5337H17.8567C17.9882 7.20813 19.0419 6.15381 20.3672 6.02129V4.74332ZM20.3672 10.2161C20.3672 9.28598 21.1212 8.53193 22.0514 8.53193C22.9816 8.53193 23.7356 9.28598 23.7356 10.2161C23.7356 11.1463 22.9816 11.9004 22.0514 11.9004C21.1212 11.9004 20.3672 11.1463 20.3672 10.2161ZM22.0529 9.37453C21.5878 9.37453 21.2108 9.75156 21.2108 10.2166C21.2108 10.6817 21.5878 11.0587 22.0529 11.0587C22.518 11.0587 22.895 10.6817 22.895 10.2166C22.895 9.75156 22.518 9.37453 22.0529 9.37453Z" fill="currentColor"/>
</svg>
