<?xml version="1.0" encoding="UTF-8"?>
<svg width="36" height="36" version="1.1" viewBox="0 0 36 36" xmlns="http://www.w3.org/2000/svg">
 <path d="m18.34 10.18c1.4267 0 2.5667 0.3733 3.42 1.12 0.8667 0.7467 1.3 1.8 1.3 3.16 0 1.2533-0.4133 2.2333-1.24 2.94-0.8133 0.6933-1.8933 1.0467-3.24 1.06l-0.1 1.5h-3l-0.1-3.72h1.2c1.0267 0 1.8067-0.1267 2.34-0.38 0.5467-0.2533 0.82-0.7133 0.82-1.38 0-0.4667-0.1267-0.8333-0.38-1.1s-0.6067-0.4-1.06-0.4c-0.48 0-0.8533 0.14-1.12 0.42-0.2667 0.2667-0.4 0.6333-0.4 1.1h-3.22c-0.0267-0.8133 0.14-1.5467 0.5-2.2 0.3733-0.6533 0.92-1.1667 1.64-1.54 0.7333-0.3867 1.6133-0.58 2.64-0.58zm-1.32 14.98c-0.6 0-1.0933-0.1733-1.48-0.52-0.3733-0.36-0.56-0.8-0.56-1.32 0-0.5333 0.1867-0.98 0.56-1.34 0.3867-0.36 0.88-0.54 1.48-0.54 0.5867 0 1.0667 0.18 1.44 0.54 0.3867 0.36 0.58 0.8067 0.58 1.34 0 0.52-0.1933 0.96-0.58 1.32-0.3733 0.3467-0.8533 0.52-1.44 0.52z"/>
 <path d="m1 18c0-4.5087 1.7911-8.8327 4.9792-12.021 3.1881-3.1881 7.5121-4.9792 12.021-4.9792s8.8327 1.7911 12.021 4.9792c3.1881 3.1881 4.9792 7.5121 4.9792 12.021s-1.7911 8.8327-4.9792 12.021-7.5121 4.9792-12.021 4.9792-8.8327-1.7911-12.021-4.9792c-3.1881-3.1881-4.9792-7.5121-4.9792-12.021z" opacity=".16"/>
</svg>
