<?xml version="1.0" encoding="UTF-8"?>
<svg width="36" height="36" fill="none" version="1.1" viewBox="0 0 36 36" xmlns="http://www.w3.org/2000/svg">
 <g fill="#000">
  <path d="m18.004 28.914c-0.3818 0-0.7356-0.2004-0.9321-0.5279-0.6127-1.0212-1.7164-1.6461-2.9075-1.6461h-8.5512c-0.96078 0-1.7396-0.7789-1.7396-1.7396v-15.805c-0.67399 0.12446-1.087 0.21011-1.087 0.21011v20.595s5.5156-1.1442 9.1305-1.1442c3.6148 0 6.0869 1.1442 6.0869 1.1442s2.4721-1.1442 6.087-1.1442 9.1304 1.1442 9.1304 1.1442v-20.595s-0.4129-0.08565-1.087-0.21011v15.805c0 0.9607-0.7789 1.7396-1.7396 1.7396h-8.5512c-1.1911 0-2.2948 0.6249-2.9075 1.6461-0.1964 0.3275-0.5502 0.5279-0.9321 0.5279z" clip-rule="evenodd" fill-rule="evenodd"/>
  <path d="m4.9604 7.1748c0-0.60033 0.48665-1.087 1.087-1.087h8.6957c1.8009 0 3.2608 1.4599 3.2608 3.2609v18.478c-0.8092-1.3487-2.2667-2.1739-3.8395-2.1739h-8.5513c-0.36047 0-0.65269-0.2922-0.65269-0.6527v-17.826z" opacity=".16"/>
  <path d="m31.047 7.1748c0-0.60033-0.4866-1.087-1.087-1.087h-8.6956c-1.801 0-3.2609 1.4599-3.2609 3.2609v18.478c0.8092-1.3487 2.2667-2.1739 3.8396-2.1739h8.5512c0.3605 0 0.6527-0.2922 0.6527-0.6527v-17.826z" opacity=".16"/>
  <path d="m20.178 15.988v-9.9005c0-0.60033 0.4867-1.087 1.087-1.087h4.3478c0.6003 0 1.087 0.48663 1.087 1.087v9.9005c0 0.4243-0.4647 0.685-0.8269 0.4637l-1.8671-1.1411c-0.3481-0.2126-0.7857-0.2126-1.1336 0l-1.8673 1.1411c-0.3622 0.2213-0.8269-0.0394-0.8269-0.4637z"/>
 </g>
</svg>
