<?xml version="1.0" encoding="UTF-8"?>
<svg width="36" height="37" fill="none" version="1.1" viewBox="0 0 36 37" xmlns="http://www.w3.org/2000/svg">
 <g fill="#000">
  <path d="m11 35.25c0-0.4142 0.3332-0.75 0.7442-0.75h13.512c0.411 0 0.7442 0.3358 0.7442 0.75s-0.3332 0.75-0.7442 0.75h-13.512c-0.411 0-0.7442-0.3358-0.7442-0.75z" clip-rule="evenodd" fill-rule="evenodd"/>
  <rect x="16" y="31" width="5" height="4"/>
  <path d="m3.9766 10c-1.6441 0-2.9766 1.3325-2.9766 2.9766v15.047c0 1.6441 1.3325 2.9766 2.9766 2.9766h28.047c1.6441 0 2.9766-1.3325 2.9766-2.9766v-15.047c0-1.0388-0.53333-1.9518-1.3398-2.4844-0.017767 0.67948-0.28223 1.3544-0.80078 1.873l-5.3145 5.3125c-0.006302 0.006422-0.011241 0.013194-0.017578 0.019532-0.5367 0.5367-1.2437 0.80479-1.9453 0.80469-0.7016 1e-4 -1.4085-0.26799-1.9453-0.80469-0.006175-0.006175-0.011425-0.013277-0.017578-0.019532l-0.019532-0.019531-5.2949-5.293c-0.6442-0.6442-0.89814-1.5289-0.76953-2.3652h-13.559zm21.605 3.5625c-0.16157 0.24429-0.39327 0.4396-0.67578 0.55664-0.16014 0.066343-0.32718 0.10051-0.49414 0.10938l1.1699 1.1699 1.168-1.168c-0.16631-0.009048-0.33266-0.043318-0.49219-0.10938-0.2822-0.11691-0.5142-0.31465-0.67578-0.55859zm-0.17969 2.0156 0.10547 0.10156-0.003906-0.00586-0.10156-0.095703z" fill-opacity=".15686"/>
  <path d="m25.582 2c0.6904 0 1.25 0.55964 1.25 1.25v9.4845l3.1986-3.1985c0.4881-0.48816 1.2796-0.48816 1.7677 0 0.4882 0.48816 0.4882 1.2796 0 1.7678l-5.3142 5.3142c-0.0059 0.0061-0.0118 0.0122-0.0178 0.0182-0.2441 0.2441-0.5641 0.3662-0.8841 0.3661-0.3199 1e-4 -0.6399-0.122-0.884-0.3661-0.0061-6e-3 -0.012-0.0121-0.0179-0.0182l-5.3142-5.3142c-0.4881-0.4882-0.4881-1.2796 0-1.7678 0.4882-0.48816 1.2796-0.48816 1.7678 0l3.1981 3.1982v-9.4842c0-0.69036 0.5597-1.25 1.25-1.25z" clip-rule="evenodd" fill-rule="evenodd"/>
  <path d="m25.582 2c0.6904 0 1.25 0.55964 1.25 1.25v9.4845l3.1986-3.1985c0.4881-0.48816 1.2796-0.48816 1.7677 0 0.4882 0.48816 0.4882 1.2796 0 1.7678l-5.3142 5.3142c-0.0059 0.0061-0.0118 0.0122-0.0178 0.0182-0.2441 0.2441-0.5641 0.3662-0.8841 0.3661-0.3199 1e-4 -0.6399-0.122-0.884-0.3661-0.0061-6e-3 -0.012-0.0121-0.0179-0.0182l-5.3142-5.3142c-0.4881-0.4882-0.4881-1.2796 0-1.7678 0.4882-0.48816 1.2796-0.48816 1.7678 0l3.1981 3.1982v-9.4842c0-0.69036 0.5597-1.25 1.25-1.25z" clip-rule="evenodd" fill-rule="evenodd"/>
 </g>
</svg>
