<svg width="34" height="33" viewBox="0 0 34 33" fill="none" xmlns="http://www.w3.org/2000/svg">
<path fill-rule="evenodd" clip-rule="evenodd" d="M6.63056 8.4111C8.27345 8.62571 9.77926 7.46785 9.99386 5.82495C10.2085 4.18206 9.05061 2.67625 7.40771 2.46165C5.76482 2.24704 4.25901 3.4049 4.04441 5.0478C3.94243 5.82844 4.15034 6.57813 4.57291 7.17306C3.24269 8.84141 2.35794 10.8275 2.01107 12.9445C1.64843 15.1575 1.88851 17.4227 2.69945 19.5039C2.84735 19.8835 3.28747 20.0451 3.65767 19.8751C4.02786 19.705 4.18763 19.2678 4.04273 18.8871C3.35267 17.0739 3.15176 15.1061 3.46688 13.183C3.77024 11.3317 4.54 9.5938 5.69673 8.1301C5.98302 8.27061 6.29678 8.3675 6.63056 8.4111ZM6.81817 6.97483C5.96851 6.86384 5.36969 6.08508 5.48068 5.23541C5.59167 4.38575 6.37043 3.78693 7.2201 3.89792C8.06976 4.00891 8.66858 4.78767 8.55759 5.63734C8.4466 6.487 7.66784 7.08582 6.81817 6.97483Z" fill="white"/>
<path fill-rule="evenodd" clip-rule="evenodd" d="M13.9416 26.5452C13.3214 25.0088 11.5731 24.2661 10.0367 24.8863C8.50031 25.5066 7.75762 27.2549 8.37786 28.7912C8.9981 30.3276 10.7464 31.0703 12.2828 30.4501C13.0128 30.1554 13.5636 29.606 13.8742 28.9456C15.9808 29.2846 18.1454 29.0794 20.1597 28.3415C22.2654 27.57 24.1204 26.248 25.5347 24.5192C25.7926 24.2039 25.7171 23.7412 25.3872 23.5023C25.0572 23.2634 24.5979 23.339 24.3375 23.6523C23.0972 25.1442 21.482 26.2859 19.6522 26.9563C17.8907 27.6016 15.9988 27.785 14.1556 27.4966C14.1374 27.1782 14.0676 26.8573 13.9416 26.5452ZM12.5984 27.0874C12.9192 27.882 12.5351 28.7861 11.7405 29.1069C10.946 29.4277 10.0418 29.0436 9.72102 28.249C9.40025 27.4544 9.78434 26.5503 10.5789 26.2295C11.3735 25.9087 12.2777 26.2928 12.5984 27.0874Z" fill="white"/>
<path fill-rule="evenodd" clip-rule="evenodd" d="M26.3904 12.8397C25.1537 13.9423 25.0451 15.8387 26.1478 17.0754C27.2504 18.312 29.1468 18.4207 30.3834 17.318C31.6201 16.2154 31.7288 14.319 30.6261 13.0823C30.1022 12.4947 29.399 12.1618 28.6726 12.0925C28.2802 9.99512 27.3561 8.027 25.9813 6.3803C24.5441 4.65881 22.6733 3.35922 20.5684 2.61186C20.1845 2.47555 19.7745 2.70287 19.661 3.09413C19.5476 3.48539 19.7739 3.89217 20.1567 4.03151C21.9798 4.69508 23.5999 5.8298 24.8488 7.32575C26.0511 8.76584 26.8626 10.4846 27.2137 12.3169C26.9201 12.4416 26.6417 12.6157 26.3904 12.8397ZM27.3544 13.9208C27.994 13.3505 28.9747 13.4067 29.545 14.0463C30.1152 14.6859 30.059 15.6666 29.4195 16.2369C28.7799 16.8072 27.7991 16.751 27.2289 16.1114C26.6586 15.4718 26.7148 14.4911 27.3544 13.9208Z" fill="white"/>
<path fill-rule="evenodd" clip-rule="evenodd" d="M21.6877 13.1151C21.7807 13.0192 22.7109 12.0603 23.2457 11.5089C23.3698 11.3811 23.424 11.2053 23.424 11.0295C23.424 10.6539 23.1217 10.3583 22.7574 10.3743C22.6024 10.3822 22.4473 10.4462 22.3311 10.558C21.8272 11.0774 20.8583 12.0763 20.773 12.1642L19.2304 10.574C19.3932 10.4062 20.2614 9.51125 20.7652 8.98385C20.8893 8.856 20.9435 8.6802 20.9435 8.50441C20.9435 8.12884 20.6412 7.83318 20.2769 7.84916C20.1219 7.85715 19.9668 7.92108 19.8506 8.03295C19.37 8.52838 18.4708 9.45531 18.308 9.62312L16.8972 8.16879C16.5872 7.84916 16.0911 7.84916 15.781 8.16879L13.8586 10.1585C13.7424 10.0386 12.8277 9.09573 12.3083 8.56034C12.1843 8.43249 12.0138 8.37655 11.8432 8.37655C11.4789 8.37655 11.1921 8.68819 11.2076 9.06376C11.2154 9.23157 11.2774 9.38339 11.3859 9.50326C11.882 10.0147 12.8199 10.9816 12.944 11.1094L10.9286 13.187C10.8278 13.0831 9.90535 12.1322 9.3705 11.5889C9.24647 11.461 9.07594 11.4051 8.90541 11.4051C8.71937 11.4051 8.55659 11.485 8.44031 11.6048C8.32404 11.7247 8.25428 11.9005 8.26203 12.0923C8.26978 12.2521 8.33179 12.4119 8.44031 12.5318C8.93641 13.0512 9.8976 14.034 9.99837 14.1379L8.07599 16.1196C7.76593 16.4393 7.76593 16.9507 8.07599 17.2703L9.49452 18.7167C9.41701 18.7966 8.47132 19.7714 7.93646 20.3228C7.81244 20.4507 7.75818 20.6265 7.75818 20.8023C7.75818 21.1778 8.06049 21.4735 8.42481 21.4575C8.57984 21.4495 8.73487 21.3856 8.85114 21.2737C9.36275 20.7543 10.3394 19.7475 10.417 19.6676L11.9595 21.2577C11.8742 21.3456 10.9363 22.3125 10.4015 22.8639C10.2774 22.9917 10.2232 23.1675 10.2232 23.3433C10.2232 23.7189 10.5255 24.0146 10.8898 23.9986C11.0448 23.9906 11.1999 23.9267 11.3161 23.8148C11.8277 23.2954 12.7967 22.2885 12.8742 22.2006L14.316 23.6869C14.626 24.0066 15.1221 24.0066 15.4322 23.6869L17.3546 21.7052C17.3546 21.7052 18.3623 22.744 18.9204 23.3194C19.0444 23.4472 19.2149 23.5031 19.3855 23.5031C19.7498 23.5031 20.0366 23.1915 20.0211 22.8159C20.0134 22.6561 19.9513 22.4963 19.8428 22.3764C19.3157 21.8251 18.277 20.7623 18.277 20.7623L20.3002 18.6767C20.3389 18.7167 21.3156 19.7235 21.866 20.2829C21.99 20.4107 22.1605 20.4666 22.3311 20.4666C22.6954 20.4666 22.9822 20.155 22.9667 19.7794C22.9589 19.6196 22.8969 19.4598 22.7884 19.3399C22.269 18.7966 21.2458 17.7498 21.2226 17.7258L23.145 15.7441C23.455 15.4244 23.455 14.913 23.145 14.5934L21.6877 13.1151ZM18.5483 13.187C18.401 13.4827 18.0755 13.6265 17.7809 13.5386L18.2538 15.4564C18.339 15.8 18.1297 16.1756 17.7887 16.2795L14.3237 17.3662L14.9671 19.9153C15.0601 20.2669 14.8508 20.6344 14.502 20.7463C14.1532 20.8582 13.8044 20.6584 13.7191 20.3068L12.9285 17.1265C12.8432 16.7749 13.0525 16.4073 13.3935 16.3034L16.8585 15.2167L16.5407 13.9302C16.3236 14.1779 15.9826 14.2338 15.719 14.074C15.4554 13.9142 15.3624 13.5706 15.4865 13.2749L16.1143 11.7167C16.1453 11.6368 16.1996 11.5569 16.2616 11.493C16.3934 11.3571 16.5717 11.2772 16.75 11.2852C16.8817 11.2852 17.0058 11.3252 17.1065 11.4051L18.3855 12.372C18.6258 12.5398 18.6956 12.8914 18.5483 13.187Z" fill="white"/>
</svg>
