<?xml version="1.0" encoding="UTF-8"?>
<svg width="36" height="36" fill="none" version="1.1" viewBox="0 0 36 36" xmlns="http://www.w3.org/2000/svg">
 <g fill="#000">
  <path d="m17.002 1.166e-4c-3.1908 0-6.1779 0.89047-8.7315 2.4229-0.72814-0.59201-1.6431-0.92155-2.5951-0.92179h-3.9e-4c-2.2674 8e-5 -4.1264 1.8594-4.1263 4.1267v0.00119c0.00111 0.94666 0.32925 1.8544 0.91162 2.5793-1.5553 2.5672-2.4598 5.5768-2.4598 8.7931-0.0016153 0.1305 0.022698 0.2601 0.07153 0.3811 0.048832 0.1211 0.12121 0.2313 0.21294 0.3241 0.091729 0.0929 0.20098 0.1666 0.32143 0.217 0.12044 0.0503 0.24968 0.0762 0.38021 0.0762 0.13053 0 0.25977-0.0259 0.38021-0.0762 0.12044-0.0504 0.2297-0.1241 0.32143-0.217 0.09172-0.0928 0.1641-0.203 0.21294-0.3241 0.04883-0.121 0.07314-0.2506 0.07153-0.3811 0-2.779 0.75592-5.3717 2.0676-7.6021 0.51371 0.22326 1.0657 0.35433 1.6334 0.3552h0.0014c2.2675 7e-5 4.1268-1.8593 4.1267-4.1267v-4.5e-4c-1.8e-4 -0.56243-0.1281-1.1096-0.34681-1.6196 2.2181-1.2919 4.7909-2.0356 7.5471-2.0356 0.1305 0.00161 0.26-0.02269 0.3811-0.07153 0.1211-0.04883 0.2312-0.12121 0.3241-0.21294 0.0928-0.09173 0.1666-0.20098 0.2169-0.32142 0.0503-0.12045 0.0763-0.24968 0.0763-0.38021 0-0.13053-0.026-0.25977-0.0763-0.38022-0.0503-0.12044-0.1241-0.2297-0.2169-0.32143-0.0929-0.091729-0.203-0.16411-0.3241-0.21294-0.1211-0.048833-0.2506-0.073142-0.3811-0.071528v4.1199e-5zm-11.327 3.4734c0.6652 2.2e-4 1.259 0.28261 1.6691 0.79614 0.00672 0.00816 0.01356 0.0162 0.02054 0.02414 0.30054 0.38023 0.46492 0.84972 0.46508 1.3346-1.6e-4 1.2011-0.95264 2.1537-2.1537 2.1541-0.49162-9e-4 -0.96762-0.16974-1.35-0.47865-4.7e-4 -3.4e-4 -9.3e-4 -6.8e-4 -0.0014-0.00101-0.50783-0.40873-0.80277-1.0235-0.80372-1.6755 2.8e-4 -1.2012 0.95288-2.1538 2.1541-2.1539v2e-5z"/>
  <path d="m7.5323 11.568c-0.16784 0.1753-0.2662 0.4174-0.25398 0.683 0.01082 0.2301 0.10274 0.4523 0.26294 0.6208 0.76557 0.7713 2.2751 2.2751 2.2751 2.2751l1.3325-1.3309s-1.4595-1.4581-2.2698-2.2691c-0.18045-0.1837-0.42185-0.2604-0.67635-0.2615-0.26531-0.0013-0.50257 0.1073-0.67042 0.2826zm3.6166 2.248-4.122 4.122c-0.44719 0.4473-0.44719 1.1724 0 1.6197l9.0436 9.0435c0.4472 0.4473 1.1724 0.4473 1.6198 0l11.176-11.176c0.4473-0.4473 0.4472-1.1725 0-1.6198l-2.0959-2.0957-6.9477-6.9477c-0.4473-0.44719-1.1724-0.44719-1.6197 0l-2.789 2.789-4.2653 4.2653zm4.2653-4.2653s-1.4595-1.4581-2.2698-2.2692c-0.1805-0.18366-0.4219-0.26033-0.6764-0.26148-0.5306-0.00254-0.9488 0.43442-0.9244 0.96563 0.0109 0.23003 0.1028 0.4523 0.263 0.62074 0.7656 0.77129 2.2751 2.2751 2.2751 2.2751l1.3325-1.3308zm7.7842 0.58648s1.4581-1.4595 2.2692-2.2698c0.1837-0.18045 0.2603-0.42184 0.2615-0.67634 0.0025-0.53062-0.4344-0.94885-0.9656-0.92441-0.2301 0.01083-0.4523 0.10275-0.6208 0.26295-0.7713 0.76557-2.2751 2.2751-2.2751 2.2751l1.3308 1.3325zm3.5722 3.5722s1.4582-1.4595 2.2692-2.2698c0.1837-0.1804 0.2603-0.4218 0.2615-0.6763 0.0025-0.5307-0.4344-0.94888-0.9656-0.92444-0.2301 0.01082-0.4523 0.10274-0.6208 0.26294-0.7713 0.7656-2.2751 2.2751-2.2751 2.2751l1.3308 1.3325zm-2.026 7.8376s1.4595 1.4581 2.27 2.2689c0.1805 0.1837 0.4219 0.2604 0.6764 0.2615 0.5306 0.0025 0.9488-0.4344 0.9244-0.9656l-3e-4 2e-4c-0.0108-0.23-0.1028-0.4524-0.263-0.6208-0.7656-0.7713-2.275-2.2751-2.275-2.2751l-1.3325 1.3309zm-4.2653 4.2653s1.4595 1.4581 2.27 2.269c0.1804 0.1836 0.4218 0.2603 0.6763 0.2614 0.5307 0.0026 0.9489-0.4344 0.9244-0.9656h-2e-4c-0.0108-0.23-0.1027-0.4523-0.2629-0.6207-0.7656-0.7713-2.2751-2.2752-2.2751-2.2752l-1.3325 1.3309v2e-4zm-7.8376-0.6398s-1.4581 1.4595-2.2689 2.27c-0.1837 0.1804-0.2604 0.4219-0.2615 0.6764-0.0025 0.5306 0.4344 0.9488 0.9656 0.9243h-2e-4c0.23-0.0108 0.4523-0.1027 0.6207-0.2629 0.7714-0.7655 2.2752-2.2751 2.2752-2.2751l-1.3309-1.3327zm-3.5722-3.5722s-1.4581 1.4595-2.269 2.27c-0.18364 0.1804-0.26032 0.4218-0.26148 0.6763-0.00253 0.5307 0.43443 0.9489 0.96564 0.9244h-2.2e-4c0.23003-0.0108 0.4523-0.1027 0.62075-0.2629 0.77131-0.7655 2.2752-2.2751 2.2752-2.2751l-1.3309-1.3327zm9.8141-10.187c0.189-0.192 0.4463-0.2993 0.7085-0.2955 0.187 0.0027 0.3659 0.0619 0.5132 0.1699l1.8561 1.3612c0.3601 0.2584 0.4663 0.7491 0.251 1.1601-0.2153 0.4109-0.6889 0.6214-1.1195 0.4975l0.689 2.6942c0.1252 0.4895-0.176 1.0088-0.6731 1.1606l-5.0222 1.5335 0.9276 3.5868c0.132 0.4916-0.1689 1.0175-0.6699 1.1708-0.5009 0.1533-1.0097-0.125-1.1326-0.6193l-1.1568-4.474c-0.1267-0.49 0.1743-1.0108 0.6723-1.163l5.0244-1.5342-0.4637-1.8133c-0.3109 0.3448-0.8138 0.4285-1.191 0.1982s-0.5191-0.7076-0.3359-1.1303l0.9131-2.1886c0.0488-0.1167 0.1201-0.2237 0.2095-0.3146z" clip-rule="evenodd" fill-rule="evenodd"/>
  <path d="m18.998 36c3.1908 0 6.1779-0.8905 8.7316-2.423 0.7281 0.5921 1.6431 0.9216 2.5951 0.9219h4e-4c2.2674-1e-4 4.1265-1.8594 4.1264-4.1268v-0.0013c-0.0011-0.9466-0.3293-1.8544-0.9116-2.5793 1.5553-2.5672 2.4598-5.5768 2.4598-8.7932 0.0017-0.1305-0.0227-0.2601-0.0715-0.3811-0.0488-0.1211-0.1212-0.2313-0.2129-0.3241-0.0918-0.0929-0.201-0.1666-0.3215-0.217-0.1204-0.0503-0.2496-0.0762-0.3802-0.0762-0.1305 0-0.2598 0.0259-0.3802 0.0762-0.1204 0.0504-0.2297 0.1241-0.3214 0.217-0.0918 0.0928-0.1641 0.203-0.213 0.3241-0.0488 0.121-0.0731 0.2506-0.0715 0.3811 0 2.779-0.7559 5.3717-2.0676 7.6022-0.5137-0.2233-1.0657-0.3544-1.6334-0.3552h-0.0014c-2.2675-1e-4 -4.1268 1.8592-4.1267 4.1267 2e-4 0.5625 0.1281 1.1096 0.3468 1.6197-2.2182 1.2919-4.7909 2.0356-7.5472 2.0356-0.1305-0.0016-0.26 0.0228-0.381 0.0716-0.1211 0.0488-0.2312 0.1212-0.3241 0.213-0.0928 0.0917-0.1666 0.2009-0.2169 0.3214-0.0503 0.1204-0.0762 0.2496-0.0762 0.3801 0 0.1306 0.0259 0.2598 0.0762 0.3802 0.0503 0.1205 0.1241 0.2297 0.2169 0.3214 0.0929 0.0918 0.203 0.1642 0.3241 0.213 0.121 0.0488 0.2505 0.0732 0.381 0.0716v4e-4zm11.327-3.4734c-0.6652 0-1.259-0.2826-1.6691-0.7961-0.0067-0.0082-0.0136-0.0162-0.0206-0.0242-0.3005-0.3802-0.4649-0.8497-0.4651-1.3346 3e-4 -1.2011 0.9527-2.1538 2.1538-2.1541 0.4916 9e-4 0.9676 0.1697 1.35 0.4786 4e-4 3e-4 9e-4 7e-4 0.0014 1e-3 0.5078 0.4087 0.8028 1.0235 0.8037 1.6755-3e-4 1.2012-0.9529 2.1538-2.1541 2.1539z"/>
 </g>
</svg>
