<?xml version="1.0" encoding="UTF-8"?>
<svg width="36" height="36" version="1.1" viewBox="0 0 36 36" xmlns="http://www.w3.org/2000/svg">
 <path d="m1 18c0-4.5087 1.7911-8.8327 4.9792-12.021 3.1881-3.1881 7.5121-4.9792 12.021-4.9792s8.8327 1.7911 12.021 4.9792c3.1881 3.1881 4.9792 7.5121 4.9792 12.021s-1.7911 8.8327-4.9792 12.021-7.5121 4.9792-12.021 4.9792-8.8327-1.7911-12.021-4.9792c-3.1881-3.1881-4.9792-7.5121-4.9792-12.021z" opacity=".16"/>
 <path d="m25 17.998c-1e-4 0.2627-0.0649 0.5207-0.1876 0.7476s-0.299 0.4145-0.5109 0.5438l-7.2215 4.4203c-0.3141 0.1923-0.6694 0.2922-1.0305 0.2898-0.3611-0.0025-0.7152-0.1072-1.027-0.3038-0.3118-0.1965-0.5704-0.478-0.7498-0.8163-0.1794-0.3382-0.2735-0.7214-0.2727-1.1112v-7.5433c2e-4 -0.3893 0.0949-0.7718 0.2747-1.1092 0.1799-0.3374 0.4385-0.6181 0.7502-0.8139 0.3116-0.1959 0.6654-0.3001 1.026-0.3023s0.7154 0.0978 1.0291 0.2898l7.2215 4.4174c0.2119 0.1292 0.3882 0.3169 0.5109 0.5437 0.1227 0.2269 0.1875 0.4849 0.1876 0.7476z"/>
</svg>
