<svg width="200" height="160" viewBox="0 0 200 160" fill="none" xmlns="http://www.w3.org/2000/svg">
<g clip-path="url(#clip0_17180_26381)">
<path d="M196 0.5H4C2.067 0.5 0.5 2.067 0.5 4V72C0.5 73.933 2.067 75.5 4 75.5H196C197.933 75.5 199.5 73.933 199.5 72V4C199.5 2.067 197.933 0.5 196 0.5Z" fill="white" stroke="black" stroke-opacity="0.1"/>
<path d="M11.9999 16.1H12.9999C12.9476 16.4603 12.8105 16.803 12.5999 17.1C12.4325 17.3911 12.191 17.6326 11.8999 17.8L10.6999 18.1C10.2999 18.1 9.9999 18.1 9.6999 17.9C9.43306 17.7861 9.19421 17.6155 8.9999 17.4C8.80579 17.1309 8.66959 16.8244 8.5999 16.5L8.3999 15.4V14.9C8.41878 14.5589 8.48612 14.2222 8.5999 13.9C8.5999 13.5 8.7999 13.2 8.9999 12.9L9.7999 12.4L10.7999 12.2C11.1999 12.2 11.5999 12.3 11.7999 12.5C12.1999 12.7 12.3999 12.9 12.5999 13.2C12.7999 13.5 12.8999 13.8 12.8999 14.2H11.8999C11.9008 13.9958 11.867 13.7929 11.7999 13.6C11.713 13.4271 11.5728 13.2869 11.3999 13.2L10.6999 13L10.0999 13.1C9.93398 13.1962 9.79609 13.3341 9.6999 13.5C9.59835 13.6866 9.53064 13.8898 9.4999 14.1C9.43672 14.3621 9.40318 14.6304 9.3999 14.9V16.2L9.6999 16.8L10.0999 17.2L10.6999 17.3L11.3999 17.2C11.5728 17.1131 11.713 16.9729 11.7999 16.8C11.8792 16.5756 11.9132 16.3377 11.8999 16.1H11.9999ZM18.5999 15V15.3C18.5999 15.7 18.5999 16.1 18.3999 16.5C18.2855 16.796 18.1158 17.0675 17.8999 17.3C17.7165 17.5518 17.4768 17.7572 17.1999 17.9L16.1999 18.1C15.7999 18.1 15.5999 18.1 15.1999 17.9C14.925 17.7543 14.6859 17.5494 14.4999 17.3C14.2858 17.0661 14.1164 16.7949 13.9999 16.5C13.8994 16.1085 13.8656 15.7028 13.8999 15.3V15L13.9999 13.8L14.4999 13C14.6999 12.7 14.9999 12.6 15.2999 12.4L16.2999 12.2L17.1999 12.4L17.8999 13L18.3999 13.8L18.5999 15ZM17.5999 15.3V14.2L17.1999 13.5C17.0914 13.3706 16.9545 13.268 16.7999 13.2C16.6194 13.085 16.4133 13.0163 16.1999 13C15.9999 13 15.7999 13 15.6999 13.2C15.4999 13.2 15.2999 13.4 15.1999 13.5C15.0511 13.7093 14.9488 13.9479 14.8999 14.2C14.8684 14.4657 14.8684 14.7343 14.8999 15V16.2L15.1999 16.8L15.6999 17.2H16.1999C16.3972 17.2468 16.6026 17.2468 16.7999 17.2L17.1999 16.8L17.4999 16.2L17.5999 15.3ZM23.4999 17.3V18H19.6999V17.4L21.4999 15.4C21.6808 15.1771 21.8477 14.9434 21.9999 14.7L22.1999 14.3C22.2634 14.1585 22.2962 14.0051 22.2962 13.85C22.2962 13.6949 22.2634 13.5415 22.1999 13.4C22.1333 13.2714 22.0285 13.1666 21.8999 13.1C21.7761 13.0362 21.6392 13.0019 21.4999 13C21.2944 12.9702 21.0847 13.0052 20.8999 13.1C20.7641 13.2023 20.6601 13.341 20.5999 13.5L20.4999 14H19.4999L19.7999 13.1L20.3999 12.5C20.7008 12.3132 21.0459 12.2097 21.3999 12.2L22.3999 12.4L23.0999 13L23.2999 13.8L23.1999 14.3L22.8999 14.9C22.8108 15.073 22.7106 15.24 22.5999 15.4L22.0999 15.9L20.8999 17.2H23.4999V17.3ZM27.7999 12V18H26.7999V12H27.7999ZM30.8999 18H30.0999C29.8314 17.889 29.5919 17.718 29.3999 17.5C29.2204 17.2962 29.0843 17.0581 28.9999 16.8V16L29.0999 15C29.1958 14.7774 29.3313 14.5741 29.4999 14.4L30.0999 13.9L30.8999 13.8L31.6999 13.9L32.2999 14.4L32.5999 15L32.6999 15.9V16.3H29.3999V15.6H31.7999C31.8145 15.3949 31.7802 15.1893 31.6999 15C31.6287 14.8748 31.5251 14.7712 31.3999 14.7C31.2614 14.5776 31.0847 14.5069 30.8999 14.5C30.7583 14.4987 30.6188 14.5351 30.4958 14.6054C30.3728 14.6757 30.2707 14.7773 30.1999 14.9L29.9999 15.4C29.9758 15.5993 29.9758 15.8007 29.9999 16V16.6L30.1999 17.1C30.3134 17.2206 30.455 17.3112 30.6121 17.3635C30.7691 17.4159 30.9368 17.4284 31.0999 17.4C31.2933 17.3963 31.4834 17.3495 31.6564 17.263C31.8294 17.1765 31.9809 17.0525 32.0999 16.9L32.5999 17.4L32.2999 17.8L31.6999 18.1H30.9999L30.8999 18ZM34.8999 17.3L35.8999 13.8H36.8999L35.4999 18H34.7999L34.8999 17.3ZM34.0999 13.8L35.0999 17.3L35.1999 18H34.5999L33.0999 13.8H34.0999ZM39.5999 18.1C39.2999 18.1 38.9999 18.1 38.6999 17.9C38.4762 17.8062 38.2725 17.6704 38.0999 17.5C37.9204 17.2962 37.7843 17.0581 37.6999 16.8L37.4999 16C37.4999 15.6 37.4999 15.3 37.6999 15C37.6999 14.8 37.8999 14.6 38.0999 14.4L38.6999 13.9L39.4999 13.8L40.1999 13.9C40.4999 14 40.6999 14.2 40.7999 14.4L41.0999 15L41.2999 15.9V16.3H37.9999V15.6H40.2999C40.3467 15.4027 40.3467 15.1973 40.2999 15C40.202 14.8598 40.0619 14.7547 39.8999 14.7C39.7614 14.5776 39.5847 14.5069 39.3999 14.5C39.2601 14.4978 39.1222 14.5323 38.9999 14.6C38.8747 14.6712 38.7711 14.7748 38.6999 14.9L38.4999 15.4C38.4758 15.5993 38.4758 15.8007 38.4999 16V16.6L38.7999 17.1L39.0999 17.3L39.5999 17.4C39.7933 17.3963 39.9834 17.3495 40.1564 17.263C40.3294 17.1765 40.4809 17.0525 40.5999 16.9L41.1999 17.4C40.9583 17.7427 40.6046 17.9903 40.1999 18.1H39.5999ZM43.1999 12V18H42.2999V12H43.2999H43.1999Z" fill="black" fill-opacity="0.9"/>
<path d="M65.5998 49.0002V51.2002H53.2998V49.5002L60.5998 37.9002H62.8998L60.3998 42.1002L56.1998 48.9002H65.5998V49.0002ZM63.5998 38.0002V55.0002H60.5998V38.0002H63.5998ZM78.5998 45.0002V47.8002C78.5998 49.2002 78.5998 50.3002 78.2998 51.3002C78.0591 52.1098 77.6502 52.8595 77.0998 53.5002C76.6488 54.0668 76.0648 54.5134 75.3998 54.8002C74.6667 55.0828 73.8853 55.2187 73.0998 55.2002C72.4601 55.226 71.8201 55.1587 71.1998 55.0002C70.6193 54.8408 70.0756 54.569 69.5998 54.2002C69.1388 53.7767 68.7652 53.2671 68.4998 52.7002C68.1442 52.0726 67.8751 51.3999 67.6998 50.7002C67.4998 49.8002 67.4998 48.9002 67.4998 47.8002V45.0002C67.4998 43.7002 67.4998 42.6002 67.8998 41.6002C68.0805 40.8066 68.4207 40.0581 68.8998 39.4002C69.3757 38.8168 69.9963 38.3685 70.6998 38.1002C71.3998 37.8002 72.1998 37.7002 72.9998 37.7002C73.6998 37.7002 74.3998 37.7002 74.9998 38.0002C75.5396 38.1365 76.0486 38.3741 76.4998 38.7002C77.4952 39.6455 78.1908 40.8627 78.4998 42.2002L78.5998 45.0002ZM75.7998 48.2002V42.8002L75.3998 41.5002C75.2651 41.1614 75.0607 40.8548 74.7998 40.6002C74.5768 40.3721 74.3025 40.2007 73.9998 40.1002C73.6822 39.9706 73.3428 39.9027 72.9998 39.9002C72.5998 39.9002 72.1998 40.0002 71.8998 40.2002C71.4998 40.4002 71.1998 40.6002 70.9998 41.0002C70.7998 41.4002 70.5998 41.8002 70.4998 42.4002L70.2998 44.6002V48.2002L70.3998 50.0002C70.3998 50.6002 70.5998 51.0002 70.7998 51.4002L71.2998 52.4002L72.0998 52.8002L73.0998 53.0002L74.2998 52.7002C74.5998 52.6002 74.8998 52.3002 75.0998 51.9002C75.3998 51.5002 75.4998 51.0002 75.5998 50.4002C75.7998 49.8002 75.7998 49.1002 75.7998 48.2002ZM92.2998 45.0002V47.8002C92.2998 49.2002 92.1998 50.3002 91.8998 51.3002C91.689 52.1016 91.3145 52.8507 90.7998 53.5002C90.3208 54.0803 89.7011 54.5279 88.9998 54.8002C88.2667 55.0828 87.4853 55.2187 86.6998 55.2002C86.0601 55.226 85.4201 55.1587 84.7998 55.0002C84.2544 54.829 83.7458 54.5577 83.2998 54.2002C82.8028 53.7862 82.3946 53.2759 82.0998 52.7002C81.7788 52.0675 81.5434 51.395 81.3998 50.7002C81.1998 49.8002 81.0998 48.9002 81.0998 47.8002V45.0002C81.0998 43.7002 81.1998 42.6002 81.4998 41.6002C81.7106 40.7988 82.0851 40.0497 82.5998 39.4002C83.0756 38.8168 83.6963 38.3685 84.3998 38.1002C85.0998 37.8002 85.7998 37.7002 86.6998 37.7002C87.3998 37.7002 87.9998 37.7002 88.5998 38.0002C89.1396 38.1365 89.6486 38.3741 90.0998 38.7002C90.5998 39.1002 90.9998 39.6002 91.2998 40.2002C91.5998 40.7002 91.8998 41.4002 91.9998 42.2002C92.1998 43.0002 92.2998 44.0002 92.2998 45.0002ZM89.4998 48.2002V44.6002C89.4998 43.9002 89.4998 43.3002 89.2998 42.8002C89.2998 42.3002 89.1998 41.8002 88.9998 41.5002C88.8651 41.1614 88.6607 40.8548 88.3998 40.6002C88.2055 40.3847 87.9666 40.2141 87.6998 40.1002C87.3822 39.9706 87.0428 39.9027 86.6998 39.9002C86.1998 39.9002 85.8998 40.0002 85.4998 40.2002L84.5998 41.0002C84.3998 41.4002 84.1998 41.8002 84.0998 42.4002L83.8998 44.6002V48.2002C83.8998 48.9002 83.8998 49.5002 84.0998 50.0002C84.0998 50.6002 84.1998 51.0002 84.3998 51.4002C84.5998 51.8002 84.6998 52.1002 84.9998 52.4002L85.6998 52.8002L86.6998 53.0002C87.1998 53.0002 87.5998 52.9002 87.8998 52.7002C88.1998 52.6002 88.4998 52.3002 88.7998 51.9002L89.2998 50.4002L89.4998 48.2002ZM103.8 44.8002V59.8002H101V42.4002H103.6L103.8 44.9002V44.8002ZM112 48.5002V48.8002C112 49.8002 112 50.6002 111.7 51.4002C111.488 52.1212 111.15 52.7985 110.7 53.4002C110.317 53.9786 109.803 54.4583 109.2 54.8002C108.6 55.1002 107.9 55.2002 107.2 55.2002C106.3 55.2002 105.6 55.1002 105.1 54.8002C104.505 54.4898 103.992 54.0446 103.6 53.5002C103.168 52.9238 102.83 52.2825 102.6 51.6002C102.353 50.819 102.185 50.015 102.1 49.2002V48.2002C102.1 47.4002 102.3 46.5002 102.6 45.8002C102.8 45.0002 103.2 44.3002 103.6 43.8002C103.989 43.2532 104.503 42.8075 105.1 42.5002C105.6 42.2002 106.3 42.1002 107.1 42.1002C107.9 42.1002 108.6 42.2002 109.2 42.6002C109.831 42.8974 110.38 43.3435 110.8 43.9002C111.2 44.4002 111.5 45.1002 111.8 45.9002L112 48.5002ZM109.2 48.8002V48.5002L109.1 46.9002C108.974 46.4364 108.771 45.997 108.5 45.6002C108.297 45.1909 107.986 44.845 107.6 44.6002L106.3 44.4002C105.8 44.4002 105.4 44.4002 105.1 44.6002L104.1 45.3002C103.877 45.6027 103.708 45.9408 103.6 46.3002L103.3 47.6002V50.0002L103.8 51.5002C104 52.0002 104.3 52.4002 104.8 52.7002C105.2 52.9002 105.8 53.1002 106.4 53.1002C106.9 53.1002 107.3 53.0002 107.7 52.8002L108.5 51.8002C108.8 51.5002 108.9 51.0002 109.1 50.5002C109.189 49.9718 109.222 49.4356 109.2 48.9002V48.8002ZM117.2 44.8002V59.8002H114.5V42.4002H117.1L117.3 44.9002L117.2 44.8002ZM125.5 48.5002V48.8002C125.5 49.8002 125.5 50.6002 125.2 51.4002C124.988 52.1212 124.65 52.7985 124.2 53.4002C123.817 53.9786 123.303 54.4583 122.7 54.8002C122.1 55.1002 121.4 55.2002 120.7 55.2002C119.8 55.2002 119.1 55.1002 118.6 54.8002C118.005 54.4898 117.492 54.0446 117.1 53.5002C116.668 52.9238 116.33 52.2825 116.1 51.6002C115.853 50.819 115.685 50.015 115.6 49.2002V48.2002C115.6 47.4002 115.8 46.5002 116.1 45.8002C116.3 45.0002 116.7 44.3002 117.1 43.8002C117.489 43.2532 118.003 42.8075 118.6 42.5002C119.1 42.2002 119.8 42.1002 120.6 42.1002C121.4 42.1002 122.1 42.2002 122.7 42.6002C123.331 42.8974 123.88 43.3435 124.3 43.9002C124.7 44.4002 125 45.1002 125.3 45.9002L125.5 48.5002ZM122.7 48.8002V48.5002L122.6 46.9002C122.474 46.4364 122.271 45.997 122 45.6002C121.797 45.1909 121.486 44.845 121.1 44.6002L119.8 44.4002C119.3 44.4002 118.9 44.4002 118.6 44.6002L117.6 45.3002C117.377 45.6027 117.208 45.9408 117.1 46.3002L116.8 47.6002V50.0002L117.3 51.5002C117.5 52.0002 117.8 52.4002 118.3 52.7002C118.7 52.9002 119.3 53.1002 119.9 53.1002C120.4 53.1002 120.8 53.0002 121.2 52.8002L122 51.8002C122.3 51.5002 122.4 51.0002 122.6 50.5002C122.689 49.9718 122.722 49.4356 122.7 48.9002V48.8002ZM130.7 44.9002V55.0002H128V42.3002H130.7L130.9 44.9002H130.7ZM130.3 48.2002H129.3C129.3 47.3002 129.5 46.5002 129.7 45.8002C129.9 45.075 130.24 44.3957 130.7 43.8002C131.1 43.3002 131.6 42.8002 132.2 42.5002C132.894 42.2025 133.646 42.0657 134.4 42.1002C135 42.1002 135.5 42.1002 136 42.3002C136.5 42.5002 136.9 42.8002 137.2 43.1002C137.6 43.5002 137.9 43.9002 138.1 44.5002C138.3 45.1002 138.4 45.8002 138.4 46.5002V55.0002H135.5V46.8002C135.5 46.2002 135.5 45.7002 135.2 45.3002C135.046 44.9987 134.801 44.7537 134.5 44.6002C134.1 44.4002 133.7 44.4002 133.3 44.4002C132.7 44.4002 132.3 44.4002 131.9 44.7002C131.5 44.9002 131.2 45.1002 131 45.5002C130.765 45.8685 130.596 46.2744 130.5 46.7002C130.374 47.1905 130.307 47.694 130.3 48.2002ZM138.2 47.4002L136.9 47.7002C136.9 47.0002 136.9 46.2002 137.2 45.6002C137.4 44.9002 137.7 44.3002 138.2 43.8002C138.597 43.2606 139.109 42.8165 139.7 42.5002C140.3 42.2002 141 42.1002 141.8 42.1002C142.4 42.1002 143 42.1002 143.5 42.4002C143.991 42.5581 144.437 42.8326 144.8 43.2002C145.2 43.6002 145.5 44.0002 145.7 44.6002C145.9 45.2002 145.9 46.0002 145.9 46.8002V55.0002H143.1V46.8002C143.1 46.1002 143.1 45.6002 142.8 45.3002C142.7 44.9002 142.4 44.7002 142.1 44.6002C141.7 44.4002 141.3 44.4002 140.9 44.4002C140.4 44.4002 140 44.4002 139.7 44.6002C139.382 44.7679 139.108 45.0076 138.9 45.3002C138.636 45.5911 138.432 45.9308 138.3 46.3002L138.2 47.4002Z" fill="#3FA71A"/>
<path d="M196 84.5H4C2.067 84.5 0.5 86.067 0.5 88V156C0.5 157.933 2.067 159.5 4 159.5H196C197.933 159.5 199.5 157.933 199.5 156V88C199.5 86.067 197.933 84.5 196 84.5Z" fill="white" stroke="black" stroke-opacity="0.1"/>
<path d="M10.7001 99.9002H9.3001V99.0002H10.7001L11.4001 98.9002C11.5403 98.8023 11.6454 98.6622 11.7001 98.5002L11.8001 98.0002V97.5002C11.7132 97.3273 11.573 97.1871 11.4001 97.1002L10.7001 97.0002H9.6001V101.9H8.6001V96.2002H10.7001C11.2001 96.2002 11.6001 96.2002 11.9001 96.4002L12.6001 97.1002L12.8001 98.1002C12.8001 98.4002 12.8001 98.7002 12.6001 99.0002C12.4307 99.2645 12.1872 99.4732 11.9001 99.6002L10.7001 99.8002V99.9002ZM14.3001 96.3002H15.3001L16.9001 100.7L18.5001 96.3002H19.4001L17.2001 102H16.5001L14.3001 96.3002ZM13.9001 96.3002H14.8001L14.9001 100.1V102H13.9001V96.3002ZM18.9001 96.3002H19.8001V102H18.8001V100.1L18.9001 96.3002ZM24.9001 101.3V102H21.0001V101.4L22.9001 99.4002C23.081 99.1773 23.2479 98.9436 23.4001 98.7002L23.6001 98.3002C23.6636 98.1587 23.6964 98.0053 23.6964 97.8502C23.6964 97.6951 23.6636 97.5417 23.6001 97.4002C23.5335 97.2716 23.4287 97.1668 23.3001 97.1002C23.1466 97.0194 22.9729 96.9846 22.8001 97.0002C22.6276 96.9898 22.4553 97.0242 22.3001 97.1002C22.1643 97.2025 22.0603 97.3412 22.0001 97.5002L21.9001 98.0002H20.9001L21.2001 97.1002C21.3001 96.9002 21.5001 96.6002 21.8001 96.5002C22.101 96.3134 22.4461 96.2099 22.8001 96.2002L23.8001 96.4002C24.1001 96.6002 24.3001 96.7002 24.4001 97.0002C24.6001 97.2002 24.6001 97.5002 24.6001 97.8002V98.3002L24.3001 98.9002C24.1788 99.0762 24.0451 99.2432 23.9001 99.4002L23.5001 99.9002L22.2001 101.3H25.0001H24.9001ZM25.9001 101.5C25.9001 101.4 25.9001 101.3 26.1001 101.2C26.1467 101.138 26.2071 101.088 26.2765 101.053C26.3459 101.018 26.4225 101 26.5001 101C26.7001 101 26.8001 101 26.9001 101.2C26.965 101.287 27.0001 101.392 27.0001 101.5L26.9001 101.9C26.8444 101.944 26.7799 101.976 26.7109 101.993C26.6419 102.011 26.57 102.013 26.5001 102C26.4301 102.013 26.3583 102.011 26.2893 101.993C26.2203 101.976 26.1558 101.944 26.1001 101.9C26.038 101.854 25.9876 101.793 25.9529 101.724C25.9182 101.654 25.9001 101.578 25.9001 101.5ZM29.3001 99.4002L28.5001 99.2002L28.9001 96.3002H31.9001V97.1002H29.6001L29.5001 98.5002C29.6292 98.4517 29.7634 98.4181 29.9001 98.4002L30.4001 98.3002L31.1001 98.4002C31.3001 98.4002 31.5001 98.6002 31.6001 98.8002C31.8001 98.9002 31.9001 99.2002 32.0001 99.4002C32.1536 99.8884 32.1536 100.412 32.0001 100.9C32.0001 101.1 31.8001 101.3 31.6001 101.5C31.4621 101.666 31.292 101.802 31.1001 101.9C30.8186 102.033 30.5112 102.101 30.2001 102.1L29.6001 102C29.3839 101.937 29.1807 101.835 29.0001 101.7C28.8344 101.562 28.6984 101.392 28.6001 101.2C28.4837 100.984 28.4154 100.745 28.4001 100.5H29.3001C29.3001 100.6 29.3001 100.8 29.5001 100.9C29.5001 101.1 29.6001 101.2 29.8001 101.2L30.2001 101.3C30.3321 101.327 30.4681 101.327 30.6001 101.3C30.7253 101.229 30.8289 101.125 30.9001 101L31.1001 100.6C31.1763 100.305 31.1763 99.9954 31.1001 99.7002C31.0645 99.5535 30.9961 99.4167 30.9001 99.3002C30.8166 99.2116 30.714 99.1432 30.6001 99.1002C30.4361 99.0579 30.2641 99.0579 30.1001 99.1002H29.6001C29.4872 99.1864 29.3863 99.2873 29.3001 99.4002Z" fill="black" fill-opacity="0.9"/>
<mask id="mask0_17180_26381" style="mask-type:luminance" maskUnits="userSpaceOnUse" x="8" y="135" width="184" height="13">
<path d="M8 135.5H192V147.5H8V135.5Z" fill="white"/>
</mask>
<g mask="url(#mask0_17180_26381)">
<path d="M7.5 141.7H191" stroke="black" stroke-opacity="0.1" stroke-width="0.3"/>
<path d="M8.7002 144.8H18.5002L31.5002 147L42.7002 139L64.3002 144.8L89.1002 138.9L96.3002 139.1C101.1 141.3 110.8 147 111.3 147H125.8L138.2 140H148.6L157.8 136L170.2 137.1L189.8 139.9" stroke="black" stroke-opacity="0.9" stroke-width="1.3"/>
<path fill-rule="evenodd" clip-rule="evenodd" d="M8.5 135.5H8V137.5H8.5V136H10V135.5H8.5ZM8.5 147V145.4H8V147.5H10V147H8.5ZM191.5 135.5H192V137.5H191.5V136H190V135.5H191.5ZM191.5 147V145.4H192V147.5H190V147H191.5Z" fill="black" fill-opacity="0.4"/>
</g>
<path d="M78.0999 120.3H79.7999C80.3999 120.3 80.9999 120.3 81.3999 120C81.8999 119.8 82.1999 119.5 82.3999 119C82.5999 118.7 82.6999 118.2 82.6999 117.7C82.6999 117.1 82.6999 116.7 82.3999 116.3C82.232 115.925 81.9527 115.611 81.5999 115.4C81.1342 115.172 80.6174 115.069 80.0999 115.1C79.6159 115.086 79.1355 115.189 78.6999 115.4C78.2976 115.567 77.9508 115.844 77.6999 116.2C77.4999 116.6 77.3999 117 77.3999 117.5H74.5999C74.5999 116.6 74.7999 115.8 75.2999 115.1C75.7999 114.4 76.3999 113.9 77.2999 113.5C78.0999 113 78.9999 112.8 79.9999 112.8C81.0319 112.777 82.0564 112.981 82.9999 113.4C83.7999 113.8 84.3999 114.3 84.8999 115C85.2999 115.7 85.4999 116.6 85.4999 117.7C85.4999 118.2 85.4999 118.7 85.1999 119.2C84.9999 119.7 84.5999 120.2 84.1999 120.5C83.7999 120.9 83.1999 121.3 82.4999 121.5C81.8999 121.8 81.0999 121.9 80.1999 121.9H78.1999V120.3H78.0999ZM78.0999 122.5V121H80.1999C81.1999 121 82.0999 121.1 82.7999 121.3C83.4999 121.6 84.0999 121.9 84.4999 122.3C84.9999 122.7 85.2999 123.2 85.4999 123.7C85.6999 124.2 85.7999 124.7 85.7999 125.4C85.8195 126.121 85.6831 126.837 85.3999 127.5C85.1312 128.12 84.7201 128.669 84.1999 129.1C83.6399 129.557 82.9938 129.897 82.2999 130.1C81.5855 130.309 80.8441 130.41 80.0999 130.4C79.3556 130.413 78.6136 130.312 77.8999 130.1C77.2451 129.877 76.6355 129.538 76.0999 129.1C75.6076 128.721 75.199 128.245 74.8999 127.7C74.5999 127 74.3999 126.3 74.3999 125.5H77.1999C77.1999 126.1 77.3999 126.5 77.5999 126.9C77.8447 127.286 78.1906 127.597 78.5999 127.8C78.9999 128 79.5999 128.1 80.0999 128.1C80.6999 128.1 81.1999 128.1 81.5999 127.8C82.0342 127.586 82.3857 127.234 82.5999 126.8C82.8999 126.5 82.9999 126 82.9999 125.4C83.0187 124.84 82.8801 124.286 82.5999 123.8C82.354 123.354 81.9672 123.003 81.4999 122.8C80.9999 122.6 80.4999 122.5 79.7999 122.5H77.9999H78.0999ZM99.5999 120.2V123C99.5999 124.3 99.3999 125.4 99.1999 126.4C98.9724 127.245 98.5628 128.03 97.9999 128.7C97.5489 129.267 96.9649 129.713 96.2999 130C95.5668 130.283 94.7854 130.419 93.9999 130.4C93.3552 130.395 92.7148 130.294 92.0999 130.1C91.5545 129.929 91.0459 129.658 90.5999 129.3C90.1132 128.915 89.7057 128.44 89.3999 127.9C89.0358 127.241 88.7664 126.534 88.5999 125.8C88.3999 125 88.3999 124 88.3999 123V120.2C88.3999 118.8 88.3999 117.7 88.7999 116.8C88.9675 115.972 89.3083 115.188 89.7999 114.5C90.3033 113.902 90.9602 113.453 91.6999 113.2C93.0502 112.703 94.5274 112.668 95.8999 113.1C96.4472 113.267 96.9567 113.539 97.3999 113.9C97.7999 114.2 98.1999 114.7 98.4999 115.3C98.8999 115.9 99.0999 116.6 99.2999 117.3C99.4999 118.2 99.5999 119.1 99.5999 120.2ZM96.6999 123.4V118L96.2999 116.6C96.1652 116.261 95.9608 115.955 95.6999 115.7C95.4769 115.472 95.2026 115.301 94.8999 115.2C94.5758 115.105 94.2366 115.071 93.8999 115.1C93.4999 115.1 93.0999 115.1 92.7999 115.3C92.3999 115.5 92.0999 115.8 91.8999 116.1L91.3999 117.6L91.1999 119.8V123.4L91.2999 125.2C91.2999 125.7 91.4999 126.2 91.6999 126.5L92.1999 127.5L92.9999 128L93.9999 128.1C94.3999 128.1 94.7999 128.1 95.1999 127.9C95.4999 127.7 95.7999 127.4 95.9999 127C96.2999 126.7 96.3999 126.2 96.5999 125.6L96.6999 123.4ZM106.9 123.8H107.9V130.1H107L106.9 128.7V123.8ZM107.1 127.2H107.5L107.4 128.4C107.326 128.754 107.191 129.093 107 129.4C106.851 129.645 106.645 129.851 106.4 130C106.1 130.2 105.8 130.3 105.4 130.3C105.1 130.3 104.9 130.3 104.6 130.1C104.38 130.047 104.175 129.944 104 129.8C103.82 129.596 103.684 129.358 103.6 129.1L103.4 127.4H104.1V128.4C104.1 128.6 104.3 128.9 104.5 129C104.5 129.2 104.7 129.2 104.9 129.3H106.2L106.8 128.8L107 128.1C107.036 127.768 107.036 127.433 107 127.1L107.1 127.2ZM103 123.8H104V132.6H103V123.8ZM114.2 123.8H115.2V130C115.2 130.6 115.1 131 114.9 131.4C114.686 131.834 114.334 132.186 113.9 132.4C113.235 132.686 112.489 132.721 111.8 132.5C111.452 132.457 111.114 132.356 110.8 132.2C110.553 132.012 110.348 131.773 110.2 131.5L110.8 130.9L111.6 131.6L112.5 131.8L113.3 131.6L113.9 131C114.1 130.7 114.1 130.4 114.1 130V125.2L114.2 123.8ZM110 127L110.1 125.6L110.6 124.6C110.805 124.285 111.087 124.028 111.42 123.853C111.752 123.678 112.124 123.591 112.5 123.6C112.9 123.6 113.2 123.8 113.5 123.9C113.8 124 114.1 124.2 114.3 124.5L114.8 125.5C114.907 125.892 114.974 126.294 115 126.7V127.2C114.985 127.64 114.918 128.076 114.8 128.5C114.697 128.862 114.528 129.201 114.3 129.5C114.088 129.765 113.813 129.971 113.5 130.1C113.184 130.235 112.843 130.303 112.5 130.3C112.1 130.3 111.7 130.2 111.5 130C111.148 129.843 110.839 129.602 110.6 129.3C110.376 128.999 110.207 128.66 110.1 128.3C110.005 127.874 109.971 127.436 110 127ZM111 127L111.1 128L111.4 128.7L112 129.2L112.7 129.3C113.1 129.3 113.4 129.3 113.7 129.1L114.2 128.5L114.5 127.7V126.3C114.455 126.093 114.388 125.892 114.3 125.7C114.236 125.484 114.135 125.281 114 125.1C113.835 124.92 113.629 124.783 113.4 124.7C113.176 124.618 112.938 124.584 112.7 124.6C112.4 124.6 112.2 124.6 112 124.8C111.759 124.911 111.552 125.083 111.4 125.3C111.263 125.516 111.162 125.752 111.1 126C111.058 126.332 111.058 126.668 111.1 127H111ZM121.1 121.6L117.6 130.9H116.6L120.2 121.6H121.2H121.1ZM123.8 125.1V130.1H122.8V123.8H123.8V125.1ZM123.6 126.7H123.1L123.2 125.5L123.7 124.5L124.5 123.9L125.6 123.7L126.5 123.8C126.739 123.896 126.953 124.045 127.127 124.235C127.3 124.426 127.427 124.653 127.5 124.9L127.7 125.9V130.1H126.7V126C126.7 125.6 126.6 125.4 126.4 125.2C126.325 124.994 126.184 124.818 126 124.7C125.776 124.618 125.538 124.584 125.3 124.6C124.9 124.6 124.7 124.6 124.5 124.8C124.268 124.879 124.062 125.017 123.9 125.2L123.7 125.9C123.638 126.163 123.605 126.431 123.6 126.7ZM127.6 126.1L127 126.4C126.98 126.064 127.014 125.726 127.1 125.4C127.207 125.071 127.377 124.765 127.6 124.5C127.8 124.2 128.1 124.1 128.4 123.9L129.4 123.7L130.4 123.8C130.6 123.9 130.9 124 131 124.2L131.5 124.9L131.6 125.9V130.1H130.6V126C130.6 125.6 130.5 125.3 130.3 125.1C130.213 124.927 130.073 124.787 129.9 124.7C129.675 124.623 129.437 124.589 129.2 124.6L128.5 124.7C128.339 124.803 128.202 124.939 128.1 125.1C127.9 125.2 127.8 125.4 127.8 125.5C127.733 125.693 127.699 125.896 127.7 126.1H127.6ZM134.4 123.5H135.3C135.433 123.44 135.54 123.333 135.6 123.2C135.659 123.111 135.694 123.007 135.7 122.9C135.687 122.746 135.616 122.603 135.5 122.5L134.9 122.3C134.727 122.29 134.555 122.324 134.4 122.4C134.338 122.447 134.287 122.507 134.253 122.577C134.218 122.646 134.2 122.723 134.2 122.8H133.2C133.2 122.6 133.3 122.3 133.5 122.2C133.6 122 133.8 121.8 134.1 121.7L134.9 121.5L135.9 121.7C136.1 121.7 136.3 121.9 136.4 122.1C136.6 122.3 136.6 122.6 136.6 122.9C136.61 123.073 136.576 123.245 136.5 123.4L135.9 123.8L135 124H134.4V123.5ZM134.4 124.2V123.8H135L136 123.9C136.2 123.9 136.4 124.1 136.5 124.3C136.7 124.5 136.7 124.7 136.7 124.9C136.7 125.2 136.7 125.5 136.5 125.7C136.307 125.895 136.065 126.033 135.8 126.1L134.9 126.3L134.1 126.2C133.823 126.105 133.579 125.932 133.4 125.7L133.2 124.9H134.2L134.3 125.4L135 125.5L135.6 125.4C135.67 125.338 135.724 125.261 135.759 125.174C135.794 125.087 135.808 124.993 135.8 124.9C135.815 124.759 135.779 124.618 135.7 124.5C135.623 124.404 135.518 124.335 135.4 124.3H134.4V124.2Z" fill="#FFA600"/>
<path d="M158 120.7H163.4V127.4L160.7 129.4L158 127.4V120.7Z" fill="url(#paint0_linear_17180_26381)" fill-opacity="0.3"/>
<path fill-rule="evenodd" clip-rule="evenodd" d="M160.5 129.8C160.527 129.841 160.565 129.875 160.608 129.899C160.652 129.922 160.7 129.934 160.75 129.934C160.8 129.934 160.848 129.922 160.892 129.899C160.935 129.875 160.973 129.841 161 129.8L163.4 127.4L162.9 126.9L161.6 128.2C161.558 128.238 161.507 128.263 161.452 128.273C161.397 128.283 161.34 128.277 161.288 128.256C161.236 128.235 161.19 128.2 161.157 128.155C161.124 128.11 161.104 128.056 161.1 128V124.7H160.4V128C160.396 128.056 160.376 128.11 160.343 128.155C160.31 128.2 160.264 128.235 160.212 128.256C160.16 128.277 160.103 128.283 160.048 128.273C159.993 128.263 159.942 128.238 159.9 128.2L158.5 126.9L158 127.4L160.5 129.8Z" fill="black" fill-opacity="0.9"/>
<path d="M170.3 125.2V126.2H167.2V125.2H170.2H170.3ZM175.3 120.8V129.4H174V122.4L172 123.2V122L175.3 120.8ZM182.7 120.8H182.8V121.9C182.2 121.9 181.8 122 181.4 122.2C181.058 122.329 180.751 122.534 180.5 122.8L180 123.8L179.8 124.9V126.3L179.9 127.2L180.3 127.8L180.7 128.2L181.3 128.4C181.5 128.4 181.7 128.4 181.9 128.2L182.3 127.9L182.6 127.3C182.734 126.843 182.734 126.357 182.6 125.9C182.53 125.717 182.428 125.548 182.3 125.4C182.201 125.236 182.063 125.099 181.9 125C181.722 124.881 181.514 124.812 181.3 124.8L180.5 125C180.287 125.155 180.115 125.362 180 125.6C179.849 125.77 179.746 125.977 179.7 126.2L179.2 126C179.209 125.657 179.277 125.319 179.4 125L180 124.3L180.7 123.9L181.7 123.7C182.1 123.7 182.4 123.7 182.7 123.9L183.5 124.6C183.7 124.8 183.8 125.1 183.9 125.5C184.123 126.216 184.123 126.983 183.9 127.7C183.8 128.1 183.6 128.4 183.3 128.7C183.077 128.952 182.805 129.156 182.5 129.3L181.3 129.5C180.9 129.5 180.4 129.4 180.1 129.2C179.718 129.046 179.376 128.806 179.1 128.5C178.878 128.197 178.709 127.859 178.6 127.5C178.455 127.048 178.387 126.574 178.4 126.1V125.6C178.4 124.9 178.5 124.3 178.7 123.7C178.839 123.161 179.076 122.652 179.4 122.2C179.748 121.768 180.194 121.425 180.7 121.2C181.3 120.9 181.9 120.8 182.7 120.8ZM185.5 124.5V124.2L185.6 123.5L186.1 123L186.8 122.9L187.5 123L187.9 123.5L188.1 124.2V124.5C188.1 124.8 188.1 125 187.9 125.2C187.815 125.4 187.676 125.572 187.5 125.7L186.8 125.8L186.1 125.7C185.887 125.587 185.713 125.413 185.6 125.2C185.508 124.979 185.473 124.738 185.5 124.5ZM186.1 124.2V124.9C186.167 125.028 186.272 125.133 186.4 125.2C186.52 125.273 186.66 125.307 186.8 125.3C186.931 125.339 187.07 125.339 187.2 125.3C187.309 125.192 187.379 125.051 187.4 124.9C187.427 124.768 187.427 124.632 187.4 124.5V124.2C187.427 124.068 187.427 123.932 187.4 123.8C187.357 123.677 187.275 123.572 187.167 123.5C187.059 123.427 186.93 123.392 186.8 123.4C186.66 123.392 186.52 123.427 186.4 123.5C186.272 123.566 186.167 123.671 186.1 123.8C186.073 123.932 186.073 124.068 186.1 124.2ZM188.6 128.2V127.8L188.7 127.1L189.2 126.7L189.9 126.5C190.2 126.5 190.4 126.5 190.6 126.7C190.8 126.7 190.9 126.9 191 127.1L191.2 127.8V128.1C191.2 128.4 191.2 128.6 191 128.8C190.915 129 190.776 129.172 190.6 129.3C190.391 129.432 190.148 129.501 189.9 129.5L189.2 129.3C188.991 129.183 188.817 129.009 188.7 128.8C188.608 128.579 188.573 128.338 188.6 128.1V128.2ZM189.2 127.8V128.5L189.5 128.8C189.62 128.873 189.76 128.907 189.9 128.9C190.031 128.939 190.17 128.939 190.3 128.9C190.409 128.792 190.479 128.651 190.5 128.5V127.8C190.527 127.668 190.527 127.532 190.5 127.4C190.457 127.277 190.375 127.172 190.267 127.1C190.159 127.027 190.03 126.992 189.9 127C189.77 126.992 189.642 127.027 189.533 127.1C189.425 127.172 189.343 127.277 189.3 127.4C189.239 127.525 189.205 127.661 189.2 127.8ZM190.1 123.8L187 128.8L186.5 128.6L189.6 123.6L190.1 123.9V123.8Z" fill="black" fill-opacity="0.9"/>
</g>
<defs>
<linearGradient id="paint0_linear_17180_26381" x1="160.5" y1="129.9" x2="160.5" y2="120.7" gradientUnits="userSpaceOnUse">
<stop stop-color="white"/>
<stop offset="1" stop-color="white" stop-opacity="0"/>
</linearGradient>
<clipPath id="clip0_17180_26381">
<rect width="200" height="160" fill="white"/>
</clipPath>
</defs>
</svg>
