<svg width="200" height="160" viewBox="0 0 200 160" fill="none" xmlns="http://www.w3.org/2000/svg">
<rect x="0.75" y="12.75" width="198.5" height="58.5" rx="3.25" fill="white"/>
<rect x="0.75" y="12.75" width="198.5" height="58.5" rx="3.25" stroke="#00695C" stroke-width="1.5"/>
<path d="M62.1663 51.3333V44.3333H66.833V51.3333H72.6663V42H76.1663L64.4997 31.5L52.833 42H56.333V51.3333H62.1663Z" fill="#00695C"/>
<path d="M90.1953 42.9316H86.21L86.1885 40.9658H89.6689C90.2562 40.9658 90.7539 40.8799 91.1621 40.708C91.5775 40.529 91.8926 40.2747 92.1074 39.9453C92.3223 39.6087 92.4297 39.2041 92.4297 38.7314C92.4297 38.2087 92.3294 37.7826 92.1289 37.4531C91.9284 37.1237 91.6204 36.8838 91.2051 36.7334C90.7969 36.583 90.2741 36.5078 89.6367 36.5078H87.0264V50H84.3301V34.3594H89.6367C90.4961 34.3594 91.2624 34.4417 91.9355 34.6064C92.6159 34.7712 93.1924 35.029 93.665 35.3799C94.1449 35.7236 94.5065 36.1605 94.75 36.6904C95.0007 37.2204 95.126 37.8506 95.126 38.5811C95.126 39.2256 94.972 39.8164 94.6641 40.3535C94.3561 40.8835 93.9014 41.3167 93.2998 41.6533C92.6982 41.9899 91.9499 42.1904 91.0547 42.2549L90.1953 42.9316ZM90.0771 50H85.3613L86.5752 47.8623H90.0771C90.6859 47.8623 91.1943 47.762 91.6025 47.5615C92.0107 47.3538 92.3151 47.071 92.5156 46.7129C92.7233 46.3477 92.8271 45.9215 92.8271 45.4346C92.8271 44.9261 92.7376 44.4857 92.5586 44.1133C92.3796 43.7337 92.0967 43.4437 91.71 43.2432C91.3232 43.0355 90.8184 42.9316 90.1953 42.9316H87.166L87.1875 40.9658H91.1299L91.7422 41.707C92.6016 41.7357 93.307 41.9255 93.8584 42.2764C94.417 42.6273 94.8324 43.082 95.1045 43.6406C95.3766 44.1992 95.5127 44.8008 95.5127 45.4453C95.5127 46.4408 95.2943 47.2751 94.8574 47.9482C94.4277 48.6214 93.8083 49.1335 92.999 49.4844C92.1898 49.8281 91.2158 50 90.0771 50ZM105.216 47.2607V38.377H107.815V50H105.366L105.216 47.2607ZM105.581 44.8438L106.451 44.8223C106.451 45.6029 106.365 46.3226 106.193 46.9814C106.021 47.6331 105.757 48.2025 105.398 48.6895C105.04 49.1693 104.582 49.5452 104.023 49.8174C103.465 50.0824 102.795 50.2148 102.015 50.2148C101.449 50.2148 100.93 50.1325 100.457 49.9678C99.9844 49.8031 99.5762 49.5488 99.2324 49.2051C98.8958 48.8613 98.6344 48.4137 98.4482 47.8623C98.262 47.3109 98.1689 46.652 98.1689 45.8857V38.377H100.758V45.9072C100.758 46.3298 100.808 46.6842 100.908 46.9707C101.008 47.25 101.145 47.4756 101.316 47.6475C101.488 47.8193 101.689 47.9411 101.918 48.0127C102.147 48.0843 102.391 48.1201 102.648 48.1201C103.386 48.1201 103.966 47.9769 104.389 47.6904C104.818 47.3968 105.123 47.0029 105.302 46.5088C105.488 46.0146 105.581 45.4596 105.581 44.8438ZM116.047 38.377V40.2676H109.494V38.377H116.047ZM111.385 35.5303H113.974V46.7881C113.974 47.1462 114.024 47.4219 114.124 47.6152C114.231 47.8014 114.378 47.9268 114.564 47.9912C114.751 48.0557 114.969 48.0879 115.22 48.0879C115.399 48.0879 115.571 48.0771 115.735 48.0557C115.9 48.0342 116.033 48.0127 116.133 47.9912L116.144 49.9678C115.929 50.0322 115.678 50.0895 115.392 50.1396C115.112 50.1898 114.79 50.2148 114.425 50.2148C113.83 50.2148 113.304 50.111 112.846 49.9033C112.387 49.6885 112.029 49.3411 111.771 48.8613C111.514 48.3815 111.385 47.7441 111.385 46.9492V35.5303ZM123.623 38.377V40.2676H117.07V38.377H123.623ZM118.961 35.5303H121.55V46.7881C121.55 47.1462 121.6 47.4219 121.7 47.6152C121.808 47.8014 121.954 47.9268 122.141 47.9912C122.327 48.0557 122.545 48.0879 122.796 48.0879C122.975 48.0879 123.147 48.0771 123.312 48.0557C123.476 48.0342 123.609 48.0127 123.709 47.9912L123.72 49.9678C123.505 50.0322 123.254 50.0895 122.968 50.1396C122.688 50.1898 122.366 50.2148 122.001 50.2148C121.407 50.2148 120.88 50.111 120.422 49.9033C119.964 49.6885 119.605 49.3411 119.348 48.8613C119.09 48.3815 118.961 47.7441 118.961 46.9492V35.5303ZM125.119 44.3174V44.0703C125.119 43.2324 125.241 42.4554 125.484 41.7393C125.728 41.016 126.079 40.3893 126.537 39.8594C127.003 39.3223 127.568 38.9069 128.234 38.6133C128.908 38.3125 129.667 38.1621 130.512 38.1621C131.364 38.1621 132.123 38.3125 132.789 38.6133C133.462 38.9069 134.032 39.3223 134.497 39.8594C134.963 40.3893 135.317 41.016 135.561 41.7393C135.804 42.4554 135.926 43.2324 135.926 44.0703V44.3174C135.926 45.1553 135.804 45.9323 135.561 46.6484C135.317 47.3646 134.963 47.9912 134.497 48.5283C134.032 49.0583 133.466 49.4736 132.8 49.7744C132.134 50.068 131.378 50.2148 130.533 50.2148C129.681 50.2148 128.918 50.068 128.245 49.7744C127.579 49.4736 127.013 49.0583 126.548 48.5283C126.082 47.9912 125.728 47.3646 125.484 46.6484C125.241 45.9323 125.119 45.1553 125.119 44.3174ZM127.708 44.0703V44.3174C127.708 44.8402 127.762 45.3343 127.869 45.7998C127.977 46.2653 128.145 46.6735 128.374 47.0244C128.603 47.3753 128.897 47.651 129.255 47.8516C129.613 48.0521 130.039 48.1523 130.533 48.1523C131.013 48.1523 131.428 48.0521 131.779 47.8516C132.137 47.651 132.431 47.3753 132.66 47.0244C132.889 46.6735 133.058 46.2653 133.165 45.7998C133.28 45.3343 133.337 44.8402 133.337 44.3174V44.0703C133.337 43.5547 133.28 43.0677 133.165 42.6094C133.058 42.1439 132.886 41.7321 132.649 41.374C132.42 41.016 132.127 40.7367 131.769 40.5361C131.418 40.3285 130.999 40.2246 130.512 40.2246C130.025 40.2246 129.602 40.3285 129.244 40.5361C128.893 40.7367 128.603 41.016 128.374 41.374C128.145 41.7321 127.977 42.1439 127.869 42.6094C127.762 43.0677 127.708 43.5547 127.708 44.0703ZM140.913 40.8584V50H138.324V38.377H140.763L140.913 40.8584ZM140.451 43.7588L139.613 43.748C139.62 42.9245 139.735 42.1689 139.957 41.4814C140.186 40.7939 140.501 40.2031 140.902 39.709C141.311 39.2148 141.798 38.8353 142.363 38.5703C142.929 38.2982 143.559 38.1621 144.254 38.1621C144.812 38.1621 145.317 38.2409 145.769 38.3984C146.227 38.5488 146.617 38.7959 146.939 39.1396C147.269 39.4834 147.52 39.931 147.691 40.4824C147.863 41.0267 147.949 41.6963 147.949 42.4912V50H145.35V42.4805C145.35 41.9219 145.267 41.4814 145.103 41.1592C144.945 40.8298 144.712 40.597 144.404 40.4609C144.104 40.3177 143.728 40.2461 143.276 40.2461C142.832 40.2461 142.435 40.3392 142.084 40.5254C141.733 40.7116 141.436 40.9658 141.192 41.2881C140.956 41.6104 140.773 41.9827 140.645 42.4053C140.516 42.8278 140.451 43.279 140.451 43.7588Z" fill="#00695C"/>
<rect x="0.75" y="88.75" width="198.5" height="58.5" rx="3.25" fill="white"/>
<rect x="0.75" y="88.75" width="198.5" height="58.5" rx="3.25" stroke="#00695C" stroke-width="1.5"/>
<path d="M65.4997 111V113.333H75.5213L64.333 124.522L65.978 126.167L77.1663 114.978V125H79.4997V111H65.4997Z" fill="#00695C"/>
<path d="M100.564 121.972C100.564 121.649 100.514 121.363 100.414 121.112C100.321 120.862 100.153 120.632 99.9092 120.425C99.6657 120.217 99.3219 120.017 98.8779 119.823C98.4411 119.623 97.8825 119.419 97.2021 119.211C96.4574 118.982 95.7699 118.728 95.1396 118.448C94.5166 118.162 93.9723 117.832 93.5068 117.46C93.0413 117.08 92.6797 116.647 92.4219 116.16C92.1641 115.666 92.0352 115.097 92.0352 114.452C92.0352 113.815 92.1676 113.235 92.4326 112.712C92.7048 112.189 93.0879 111.738 93.582 111.358C94.0833 110.972 94.6742 110.674 95.3545 110.467C96.0348 110.252 96.7868 110.145 97.6104 110.145C98.7705 110.145 99.7695 110.359 100.607 110.789C101.452 111.219 102.101 111.795 102.552 112.519C103.01 113.242 103.239 114.04 103.239 114.914H100.564C100.564 114.398 100.453 113.944 100.231 113.55C100.017 113.149 99.6872 112.834 99.2432 112.604C98.8063 112.375 98.2513 112.261 97.5781 112.261C96.9408 112.261 96.4108 112.357 95.9883 112.551C95.5658 112.744 95.2507 113.006 95.043 113.335C94.8353 113.664 94.7314 114.037 94.7314 114.452C94.7314 114.746 94.7995 115.014 94.9355 115.258C95.0716 115.494 95.2793 115.716 95.5586 115.924C95.8379 116.124 96.1888 116.314 96.6113 116.493C97.0339 116.672 97.5316 116.844 98.1045 117.009C98.971 117.267 99.7266 117.553 100.371 117.868C101.016 118.176 101.553 118.527 101.982 118.921C102.412 119.315 102.734 119.762 102.949 120.264C103.164 120.758 103.271 121.32 103.271 121.95C103.271 122.609 103.139 123.203 102.874 123.733C102.609 124.256 102.229 124.704 101.735 125.076C101.248 125.441 100.661 125.724 99.9736 125.925C99.2933 126.118 98.5342 126.215 97.6963 126.215C96.9443 126.215 96.2031 126.115 95.4727 125.914C94.7493 125.714 94.0905 125.409 93.4961 125.001C92.9017 124.586 92.429 124.07 92.0781 123.454C91.7272 122.831 91.5518 122.104 91.5518 121.273H94.248C94.248 121.782 94.334 122.215 94.5059 122.573C94.6849 122.931 94.932 123.225 95.2471 123.454C95.5622 123.676 95.9274 123.841 96.3428 123.948C96.7653 124.056 97.2165 124.109 97.6963 124.109C98.3265 124.109 98.8529 124.02 99.2754 123.841C99.7051 123.662 100.027 123.411 100.242 123.089C100.457 122.767 100.564 122.394 100.564 121.972ZM110.772 126.215C109.913 126.215 109.136 126.075 108.441 125.796C107.754 125.509 107.167 125.112 106.68 124.604C106.2 124.095 105.831 123.497 105.573 122.81C105.315 122.122 105.187 121.381 105.187 120.586V120.156C105.187 119.247 105.319 118.423 105.584 117.686C105.849 116.948 106.218 116.318 106.69 115.795C107.163 115.265 107.722 114.86 108.366 114.581C109.011 114.302 109.709 114.162 110.461 114.162C111.292 114.162 112.019 114.302 112.642 114.581C113.265 114.86 113.78 115.254 114.188 115.763C114.604 116.264 114.912 116.862 115.112 117.557C115.32 118.251 115.424 119.018 115.424 119.855V120.962H106.443V119.104H112.867V118.899C112.853 118.434 112.76 117.997 112.588 117.589C112.423 117.181 112.169 116.851 111.825 116.601C111.481 116.35 111.023 116.225 110.45 116.225C110.021 116.225 109.637 116.318 109.301 116.504C108.971 116.683 108.696 116.944 108.474 117.288C108.252 117.632 108.08 118.047 107.958 118.534C107.843 119.014 107.786 119.555 107.786 120.156V120.586C107.786 121.094 107.854 121.567 107.99 122.004C108.133 122.434 108.341 122.81 108.613 123.132C108.885 123.454 109.215 123.708 109.602 123.895C109.988 124.074 110.429 124.163 110.923 124.163C111.546 124.163 112.101 124.038 112.588 123.787C113.075 123.536 113.497 123.182 113.855 122.724L115.22 124.045C114.969 124.41 114.643 124.761 114.242 125.098C113.841 125.427 113.351 125.696 112.771 125.903C112.198 126.111 111.532 126.215 110.772 126.215ZM120.261 116.858V126H117.672V114.377H120.11L120.261 116.858ZM119.799 119.759L118.961 119.748C118.968 118.924 119.083 118.169 119.305 117.481C119.534 116.794 119.849 116.203 120.25 115.709C120.658 115.215 121.145 114.835 121.711 114.57C122.277 114.298 122.907 114.162 123.602 114.162C124.16 114.162 124.665 114.241 125.116 114.398C125.575 114.549 125.965 114.796 126.287 115.14C126.617 115.483 126.867 115.931 127.039 116.482C127.211 117.027 127.297 117.696 127.297 118.491V126H124.697V118.48C124.697 117.922 124.615 117.481 124.45 117.159C124.293 116.83 124.06 116.597 123.752 116.461C123.451 116.318 123.075 116.246 122.624 116.246C122.18 116.246 121.783 116.339 121.432 116.525C121.081 116.712 120.784 116.966 120.54 117.288C120.304 117.61 120.121 117.983 119.992 118.405C119.863 118.828 119.799 119.279 119.799 119.759ZM137.279 123.594V109.5H139.879V126H137.526L137.279 123.594ZM129.717 120.317V120.092C129.717 119.211 129.821 118.409 130.028 117.686C130.236 116.955 130.537 116.328 130.931 115.806C131.325 115.276 131.804 114.871 132.37 114.592C132.936 114.305 133.573 114.162 134.282 114.162C134.984 114.162 135.6 114.298 136.13 114.57C136.66 114.842 137.111 115.233 137.483 115.741C137.856 116.243 138.153 116.844 138.375 117.546C138.597 118.241 138.755 119.014 138.848 119.866V120.586C138.755 121.417 138.597 122.176 138.375 122.863C138.153 123.551 137.856 124.145 137.483 124.646C137.111 125.148 136.656 125.535 136.119 125.807C135.589 126.079 134.97 126.215 134.261 126.215C133.559 126.215 132.925 126.068 132.359 125.774C131.801 125.481 131.325 125.069 130.931 124.539C130.537 124.009 130.236 123.386 130.028 122.67C129.821 121.947 129.717 121.162 129.717 120.317ZM132.306 120.092V120.317C132.306 120.847 132.352 121.341 132.445 121.8C132.546 122.258 132.7 122.663 132.907 123.014C133.115 123.357 133.383 123.63 133.713 123.83C134.049 124.023 134.451 124.12 134.916 124.12C135.503 124.12 135.987 123.991 136.366 123.733C136.746 123.476 137.043 123.128 137.258 122.691C137.48 122.247 137.63 121.753 137.709 121.209V119.265C137.666 118.842 137.576 118.448 137.44 118.083C137.312 117.718 137.136 117.399 136.914 117.127C136.692 116.848 136.416 116.633 136.087 116.482C135.765 116.325 135.382 116.246 134.938 116.246C134.465 116.246 134.064 116.346 133.734 116.547C133.405 116.747 133.133 117.023 132.918 117.374C132.71 117.725 132.556 118.133 132.456 118.599C132.356 119.064 132.306 119.562 132.306 120.092Z" fill="#00695C"/>
</svg>
