<svg width="200" height="160" viewBox="0 0 200 160" fill="none" xmlns="http://www.w3.org/2000/svg">
<g clip-path="url(#clip0_18377_11573)">
<path d="M19.2461 20.9969L4.95448 54.3254L0 63.5V76H96V60.9561V45.3333L88.8987 69.0461L84.9407 54.2153L83.2233 58.5773L75.8824 74.9376C70.9889 57.1433 66.9111 50.5036 61.5851 33.0209L56.0897 59.1309H49.0221L47.657 16.702L44.9076 0L31.825 41.6708L28.7141 40.3627L19.2461 20.9969Z" fill="url(#paint0_linear_18377_11573)"/>
<path d="M0 63.6487L5.00109 53.488L19.4271 20.3988L28.9842 40.6255L32.1244 41.9243L44.8696 1L47.7391 16.1703C48.2772 32.6209 48.4184 42.5494 48.9565 59H56L61.5652 32.1233L75.913 74L85.0185 53.4413L88.9565 68.0176L96 44.7194" stroke="url(#paint1_linear_18377_11573)" stroke-width="0.776582"/>
</g>
<g clip-path="url(#clip1_18377_11573)">
<path d="M0 0L96 1.60872e-05" stroke="black" stroke-opacity="0.12" stroke-width="0.25417"/>
<path d="M0 19L96 19" stroke="black" stroke-opacity="0.12" stroke-width="0.25417"/>
<path d="M0 38L96 38" stroke="black" stroke-opacity="0.12" stroke-width="0.25417"/>
<path d="M0 57L96 57" stroke="black" stroke-opacity="0.12" stroke-width="0.25417"/>
<path d="M0 76L96 76" stroke="black" stroke-opacity="0.12" stroke-width="0.25417"/>
</g>
<mask id="path-9-outside-1_18377_11573" maskUnits="userSpaceOnUse" x="152.019" y="3.25" width="35" height="51" fill="black">
<rect fill="white" x="152.019" y="3.25" width="35" height="51"/>
<path d="M153.342 7.26249C153.39 5.88606 154.547 4.79955 155.916 4.95061C160.635 5.47143 165.199 6.9984 169.294 9.43958C174.105 12.3073 178.113 16.3438 180.947 21.1744C183.781 26.005 185.349 31.4732 185.506 37.0716C185.639 41.8373 184.745 46.5659 182.897 50.9398C182.361 52.2085 180.849 52.6882 179.624 52.0586C178.399 51.4291 177.927 49.929 178.446 48.6533C179.92 45.0325 180.63 41.1365 180.52 37.2109C180.387 32.4522 179.054 27.8042 176.645 23.6982C174.236 19.5922 170.829 16.1612 166.74 13.7236C163.367 11.7128 159.62 10.4317 155.74 9.95152C154.373 9.78234 153.294 8.63891 153.342 7.26249Z"/>
</mask>
<path d="M153.342 7.26249C153.39 5.88606 154.547 4.79955 155.916 4.95061C160.635 5.47143 165.199 6.9984 169.294 9.43958C174.105 12.3073 178.113 16.3438 180.947 21.1744C183.781 26.005 185.349 31.4732 185.506 37.0716C185.639 41.8373 184.745 46.5659 182.897 50.9398C182.361 52.2085 180.849 52.6882 179.624 52.0586C178.399 51.4291 177.927 49.929 178.446 48.6533C179.92 45.0325 180.63 41.1365 180.52 37.2109C180.387 32.4522 179.054 27.8042 176.645 23.6982C174.236 19.5922 170.829 16.1612 166.74 13.7236C163.367 11.7128 159.62 10.4317 155.74 9.95152C154.373 9.78234 153.294 8.63891 153.342 7.26249Z" fill="#FF4D5A"/>
<path d="M153.342 7.26249C153.39 5.88606 154.547 4.79955 155.916 4.95061C160.635 5.47143 165.199 6.9984 169.294 9.43958C174.105 12.3073 178.113 16.3438 180.947 21.1744C183.781 26.005 185.349 31.4732 185.506 37.0716C185.639 41.8373 184.745 46.5659 182.897 50.9398C182.361 52.2085 180.849 52.6882 179.624 52.0586C178.399 51.4291 177.927 49.929 178.446 48.6533C179.92 45.0325 180.63 41.1365 180.52 37.2109C180.387 32.4522 179.054 27.8042 176.645 23.6982C174.236 19.5922 170.829 16.1612 166.74 13.7236C163.367 11.7128 159.62 10.4317 155.74 9.95152C154.373 9.78234 153.294 8.63891 153.342 7.26249Z" fill="white" fill-opacity="0.1"/>
<path d="M153.342 7.26249C153.39 5.88606 154.547 4.79955 155.916 4.95061C160.635 5.47143 165.199 6.9984 169.294 9.43958C174.105 12.3073 178.113 16.3438 180.947 21.1744C183.781 26.005 185.349 31.4732 185.506 37.0716C185.639 41.8373 184.745 46.5659 182.897 50.9398C182.361 52.2085 180.849 52.6882 179.624 52.0586C178.399 51.4291 177.927 49.929 178.446 48.6533C179.92 45.0325 180.63 41.1365 180.52 37.2109C180.387 32.4522 179.054 27.8042 176.645 23.6982C174.236 19.5922 170.829 16.1612 166.74 13.7236C163.367 11.7128 159.62 10.4317 155.74 9.95152C154.373 9.78234 153.294 8.63891 153.342 7.26249Z" stroke="white" stroke-width="1.93371" mask="url(#path-9-outside-1_18377_11573)"/>
<path d="M151.195 7.26249C151.147 5.88606 149.99 4.79955 148.621 4.95062C143.727 5.49067 139.003 7.11237 134.797 9.71053C129.881 12.7465 125.841 17.0109 123.076 22.0835C120.31 27.1561 118.914 32.8618 119.025 38.6383C119.136 44.4148 120.75 50.0627 123.708 55.0254C126.666 59.9881 130.867 64.0943 135.895 66.9393C140.924 69.7843 146.607 71.27 152.385 71.2498C158.162 71.2296 163.835 69.7044 168.843 66.8243C173.13 64.3596 176.803 60.9754 179.606 56.9273C180.39 55.7949 179.984 54.2607 178.796 53.5637C177.608 52.8668 176.089 53.2724 175.29 54.3943C172.936 57.6999 169.892 60.4681 166.357 62.5007C162.1 64.9487 157.278 66.2452 152.367 66.2623C147.456 66.2795 142.626 65.0167 138.351 62.5984C134.077 60.1802 130.507 56.6899 127.992 52.4716C125.478 48.2533 124.106 43.4526 124.011 38.5426C123.917 33.6325 125.104 28.7827 127.455 24.471C129.805 20.1593 133.239 16.5345 137.417 13.9539C140.887 11.8113 144.77 10.45 148.797 9.95151C150.164 9.78234 151.243 8.63891 151.195 7.26249Z" fill="#4CAF50"/>
<path d="M147.105 29.2344V33.5H146.549V29.2344H147.105ZM148.477 29.2344V29.6973H145.181V29.2344H148.477ZM148.591 31.9502V31.8828C148.591 31.6543 148.624 31.4424 148.69 31.2471C148.757 31.0498 148.853 30.8789 148.978 30.7344C149.103 30.5879 149.254 30.4746 149.432 30.3945C149.609 30.3125 149.809 30.2715 150.029 30.2715C150.252 30.2715 150.452 30.3125 150.63 30.3945C150.81 30.4746 150.962 30.5879 151.087 30.7344C151.214 30.8789 151.311 31.0498 151.377 31.2471C151.443 31.4424 151.477 31.6543 151.477 31.8828V31.9502C151.477 32.1787 151.443 32.3906 151.377 32.5859C151.311 32.7812 151.214 32.9521 151.087 33.0986C150.962 33.2432 150.811 33.3564 150.633 33.4385C150.457 33.5186 150.258 33.5586 150.035 33.5586C149.812 33.5586 149.612 33.5186 149.435 33.4385C149.257 33.3564 149.104 33.2432 148.978 33.0986C148.853 32.9521 148.757 32.7812 148.69 32.5859C148.624 32.3906 148.591 32.1787 148.591 31.9502ZM149.133 31.8828V31.9502C149.133 32.1084 149.151 32.2578 149.188 32.3984C149.226 32.5371 149.281 32.6602 149.355 32.7676C149.432 32.875 149.526 32.96 149.64 33.0225C149.753 33.083 149.885 33.1133 150.035 33.1133C150.184 33.1133 150.313 33.083 150.425 33.0225C150.538 32.96 150.632 32.875 150.706 32.7676C150.78 32.6602 150.836 32.5371 150.873 32.3984C150.912 32.2578 150.932 32.1084 150.932 31.9502V31.8828C150.932 31.7266 150.912 31.5791 150.873 31.4404C150.836 31.2998 150.779 31.1758 150.703 31.0684C150.629 30.959 150.535 30.873 150.422 30.8105C150.311 30.748 150.18 30.7168 150.029 30.7168C149.881 30.7168 149.75 30.748 149.637 30.8105C149.525 30.873 149.432 30.959 149.355 31.0684C149.281 31.1758 149.226 31.2998 149.188 31.4404C149.151 31.5791 149.133 31.7266 149.133 31.8828ZM153.483 30.3301V30.7461H151.77V30.3301H153.483ZM152.35 29.5596H152.892V32.7148C152.892 32.8223 152.908 32.9033 152.941 32.958C152.975 33.0127 153.018 33.0488 153.07 33.0664C153.123 33.084 153.18 33.0928 153.24 33.0928C153.285 33.0928 153.332 33.0889 153.381 33.0811C153.432 33.0713 153.47 33.0635 153.495 33.0576L153.498 33.5C153.455 33.5137 153.398 33.5264 153.328 33.5381C153.26 33.5518 153.177 33.5586 153.079 33.5586C152.946 33.5586 152.824 33.5322 152.713 33.4795C152.602 33.4268 152.513 33.3389 152.446 33.2158C152.382 33.0908 152.35 32.9229 152.35 32.7119V29.5596ZM155.988 32.958V31.3262C155.988 31.2012 155.963 31.0928 155.912 31.001C155.863 30.9072 155.789 30.835 155.689 30.7842C155.59 30.7334 155.467 30.708 155.32 30.708C155.184 30.708 155.063 30.7314 154.96 30.7783C154.858 30.8252 154.778 30.8867 154.72 30.9629C154.663 31.0391 154.635 31.1211 154.635 31.209H154.093C154.093 31.0957 154.122 30.9834 154.181 30.8721C154.239 30.7607 154.323 30.6602 154.433 30.5703C154.544 30.4785 154.677 30.4062 154.831 30.3535C154.987 30.2988 155.161 30.2715 155.353 30.2715C155.583 30.2715 155.786 30.3105 155.962 30.3887C156.14 30.4668 156.278 30.585 156.378 30.7432C156.479 30.8994 156.53 31.0957 156.53 31.332V32.8086C156.53 32.9141 156.539 33.0264 156.557 33.1455C156.576 33.2646 156.604 33.3672 156.642 33.4531V33.5H156.076C156.049 33.4375 156.027 33.3545 156.012 33.251C155.996 33.1455 155.988 33.0479 155.988 32.958ZM156.082 31.5781L156.088 31.959H155.54C155.386 31.959 155.248 31.9717 155.127 31.9971C155.006 32.0205 154.904 32.0566 154.822 32.1055C154.74 32.1543 154.678 32.2158 154.635 32.29C154.592 32.3623 154.57 32.4473 154.57 32.5449C154.57 32.6445 154.593 32.7354 154.638 32.8174C154.683 32.8994 154.75 32.9648 154.84 33.0137C154.932 33.0605 155.044 33.084 155.177 33.084C155.343 33.084 155.489 33.0488 155.616 32.9785C155.743 32.9082 155.844 32.8223 155.918 32.7207C155.994 32.6191 156.035 32.5205 156.041 32.4248L156.272 32.6855C156.259 32.7676 156.222 32.8584 156.161 32.958C156.101 33.0576 156.02 33.1533 155.918 33.2451C155.818 33.335 155.699 33.4102 155.561 33.4707C155.424 33.5293 155.27 33.5586 155.098 33.5586C154.883 33.5586 154.694 33.5166 154.532 33.4326C154.372 33.3486 154.247 33.2363 154.157 33.0957C154.069 32.9531 154.025 32.7939 154.025 32.6182C154.025 32.4482 154.059 32.2988 154.125 32.1699C154.191 32.0391 154.287 31.9307 154.412 31.8447C154.537 31.7568 154.688 31.6904 154.863 31.6455C155.039 31.6006 155.235 31.5781 155.452 31.5781H156.082ZM157.972 29V33.5H157.427V29H157.972Z" fill="black" fill-opacity="0.38"/>
<path d="M145.731 36.9395V45.5H144.319V38.6152L142.228 39.3242V38.1582L145.562 36.9395H145.731ZM154.274 43.1738C154.274 43.7051 154.151 44.1523 153.905 44.5156C153.659 44.8789 153.323 45.1543 152.897 45.3418C152.476 45.5254 151.999 45.6172 151.468 45.6172C150.937 45.6172 150.458 45.5254 150.032 45.3418C149.606 45.1543 149.271 44.8789 149.024 44.5156C148.778 44.1523 148.655 43.7051 148.655 43.1738C148.655 42.8223 148.724 42.5039 148.86 42.2188C148.997 41.9297 149.19 41.6816 149.44 41.4746C149.694 41.2637 149.991 41.1016 150.331 40.9883C150.675 40.875 151.05 40.8184 151.456 40.8184C151.995 40.8184 152.478 40.918 152.903 41.1172C153.329 41.3164 153.663 41.5918 153.905 41.9434C154.151 42.2949 154.274 42.7051 154.274 43.1738ZM152.856 43.1035C152.856 42.8184 152.798 42.5684 152.681 42.3535C152.563 42.1387 152.399 41.9727 152.188 41.8555C151.978 41.7383 151.733 41.6797 151.456 41.6797C151.175 41.6797 150.931 41.7383 150.724 41.8555C150.517 41.9727 150.354 42.1387 150.237 42.3535C150.124 42.5684 150.067 42.8184 150.067 43.1035C150.067 43.3926 150.124 43.6426 150.237 43.8535C150.351 44.0605 150.513 44.2188 150.724 44.3281C150.935 44.4375 151.183 44.4922 151.468 44.4922C151.753 44.4922 151.999 44.4375 152.206 44.3281C152.413 44.2188 152.573 44.0605 152.687 43.8535C152.8 43.6426 152.856 43.3926 152.856 43.1035ZM154.081 39.2129C154.081 39.6387 153.968 40.0176 153.741 40.3496C153.519 40.6816 153.21 40.9434 152.815 41.1348C152.421 41.3223 151.972 41.416 151.468 41.416C150.96 41.416 150.507 41.3223 150.108 41.1348C149.714 40.9434 149.403 40.6816 149.177 40.3496C148.954 40.0176 148.843 39.6387 148.843 39.2129C148.843 38.7051 148.954 38.2773 149.177 37.9297C149.403 37.5781 149.714 37.3105 150.108 37.127C150.503 36.9434 150.954 36.8516 151.462 36.8516C151.97 36.8516 152.421 36.9434 152.815 37.127C153.21 37.3105 153.519 37.5781 153.741 37.9297C153.968 38.2773 154.081 38.7051 154.081 39.2129ZM152.669 39.2598C152.669 39.0059 152.618 38.7832 152.517 38.5918C152.419 38.3965 152.28 38.2441 152.101 38.1348C151.921 38.0254 151.708 37.9707 151.462 37.9707C151.216 37.9707 151.003 38.0234 150.823 38.1289C150.644 38.2344 150.505 38.3828 150.407 38.5742C150.31 38.7656 150.261 38.9941 150.261 39.2598C150.261 39.5215 150.31 39.75 150.407 39.9453C150.505 40.1367 150.644 40.2871 150.823 40.3965C151.007 40.5059 151.222 40.5605 151.468 40.5605C151.714 40.5605 151.927 40.5059 152.106 40.3965C152.286 40.2871 152.425 40.1367 152.522 39.9453C152.62 39.75 152.669 39.5215 152.669 39.2598ZM157.175 40.5957H158.019C158.347 40.5957 158.618 40.5391 158.833 40.4258C159.052 40.3125 159.214 40.1562 159.319 39.957C159.425 39.7578 159.478 39.5293 159.478 39.2715C159.478 39.002 159.429 38.7715 159.331 38.5801C159.237 38.3848 159.093 38.2344 158.897 38.1289C158.706 38.0234 158.462 37.9707 158.165 37.9707C157.915 37.9707 157.688 38.0215 157.485 38.123C157.286 38.2207 157.128 38.3613 157.011 38.5449C156.894 38.7246 156.835 38.9395 156.835 39.1895H155.417C155.417 38.7363 155.536 38.334 155.774 37.9824C156.013 37.6309 156.337 37.3555 156.747 37.1562C157.161 36.9531 157.626 36.8516 158.142 36.8516C158.692 36.8516 159.173 36.9434 159.583 37.127C159.997 37.3066 160.319 37.5762 160.55 37.9355C160.78 38.2949 160.896 38.7402 160.896 39.2715C160.896 39.5137 160.839 39.7598 160.726 40.0098C160.612 40.2598 160.444 40.4883 160.222 40.6953C159.999 40.8984 159.722 41.0645 159.39 41.1934C159.058 41.3184 158.673 41.3809 158.235 41.3809H157.175V40.5957ZM157.175 41.6973V40.9238H158.235C158.735 40.9238 159.161 40.9824 159.513 41.0996C159.868 41.2168 160.157 41.3789 160.38 41.5859C160.603 41.7891 160.765 42.0215 160.866 42.2832C160.972 42.5449 161.024 42.8223 161.024 43.1152C161.024 43.5137 160.952 43.8691 160.808 44.1816C160.667 44.4902 160.466 44.752 160.204 44.9668C159.942 45.1816 159.636 45.3438 159.284 45.4531C158.937 45.5625 158.558 45.6172 158.147 45.6172C157.78 45.6172 157.429 45.5664 157.093 45.4648C156.757 45.3633 156.456 45.2129 156.19 45.0137C155.925 44.8105 155.714 44.5586 155.558 44.2578C155.405 43.9531 155.329 43.6016 155.329 43.2031H156.741C156.741 43.457 156.8 43.6816 156.917 43.877C157.038 44.0684 157.206 44.2188 157.421 44.3281C157.64 44.4375 157.89 44.4922 158.171 44.4922C158.468 44.4922 158.724 44.4395 158.938 44.334C159.153 44.2285 159.317 44.0723 159.431 43.8652C159.548 43.6582 159.606 43.4082 159.606 43.1152C159.606 42.7832 159.542 42.5137 159.413 42.3066C159.284 42.0996 159.101 41.9473 158.862 41.8496C158.624 41.748 158.343 41.6973 158.019 41.6973H157.175Z" fill="black" fill-opacity="0.87"/>
<g clip-path="url(#clip2_18377_11573)">
<path d="M2 88L197 88" stroke="black" stroke-opacity="0.12" stroke-width="0.5"/>
<path d="M2 106L197 106" stroke="black" stroke-opacity="0.12" stroke-width="0.5"/>
<path d="M2 124L197 124" stroke="black" stroke-opacity="0.12" stroke-width="0.5"/>
<path d="M2 142L197 142" stroke="black" stroke-opacity="0.12" stroke-width="0.5"/>
<path d="M2 160L197 160" stroke="black" stroke-opacity="0.12"/>
<path d="M103.695 91C103.695 89.8954 104.591 89 105.695 89H117.695C118.8 89 119.695 89.8954 119.695 91V160H103.695V91Z" fill="#4196F6"/>
<path d="M136 124C136 122.895 136.895 122 138 122H150C151.105 122 152 122.895 152 124V160H136V124Z" fill="#4196F6"/>
<path d="M7.69531 143C7.69531 141.895 8.59074 141 9.69531 141H21.6953C22.7999 141 23.6953 141.895 23.6953 143V160H7.69531V143Z" fill="#4196F6"/>
<path d="M39.6953 107C39.6953 105.895 40.5907 105 41.6953 105H53.6953C54.7999 105 55.6953 105.895 55.6953 107V160H39.6953V107Z" fill="#4196F6"/>
<path d="M72 132C72 130.895 72.8954 130 74 130H86C87.1046 130 88 130.895 88 132V160H72V132Z" fill="#4196F6"/>
<path d="M167.695 150C167.695 148.895 168.59 148 169.695 148H181.695C182.799 148 183.695 148.895 183.695 150V160H167.695V150Z" fill="#4196F6"/>
<path d="M4 109L18.5211 103.031C18.5933 103.001 18.6687 102.98 18.7457 102.968L59.5747 96.5365C59.6615 96.5228 59.7498 96.5207 59.8373 96.5301L99.0933 100.755L139.044 99.7131L181.142 95.8402C181.21 95.8339 181.278 95.8206 181.344 95.8005L197 91" stroke="#FFC107" stroke-width="2" stroke-linecap="round"/>
<circle cx="59" cy="97" r="1.5" fill="white" stroke="#FFC107"/>
<circle cx="18.6953" cy="103.161" r="1.5" fill="white" stroke="#FFC107"/>
<circle cx="3.69531" cy="109.161" r="1.5" fill="white" stroke="#FFC107"/>
<circle cx="100" cy="101" r="1.5" fill="white" stroke="#FFC107"/>
<circle cx="143" cy="99" r="1.5" fill="white" stroke="#FFC107"/>
<circle cx="180.695" cy="96.1611" r="1.5" fill="white" stroke="#FFC107"/>
<circle cx="196" cy="91" r="1.5" fill="white" stroke="#FFC107"/>
<path d="M4 132L18.6393 119.814L60.305 127.6L100.282 116L140.258 116L177.982 122.184L196 127.6" stroke="#4CAF50" stroke-width="2" stroke-linecap="round"/>
<circle cx="59" cy="128" r="1.5" fill="white" stroke="#4CAF50"/>
<circle cx="19" cy="120" r="1.5" fill="white" stroke="#4CAF50"/>
<circle cx="100" cy="116" r="1.5" fill="white" stroke="#4CAF50"/>
<circle cx="178.695" cy="122" r="1.5" fill="white" stroke="#4CAF50"/>
<circle cx="196" cy="128" r="1.5" fill="white" stroke="#4CAF50"/>
<circle cx="3.69531" cy="131.161" r="1.5" fill="white" stroke="#4CAF50"/>
<circle cx="143" cy="116" r="1.5" fill="white" stroke="#4CAF50"/>
</g>
<defs>
<linearGradient id="paint0_linear_18377_11573" x1="45.6986" y1="84.7493" x2="45.6986" y2="-19.9388" gradientUnits="userSpaceOnUse">
<stop offset="0.173389" stop-color="#6DC770"/>
<stop offset="0.262979" stop-color="#6DC770"/>
<stop offset="0.267969" stop-color="#FFC107"/>
<stop offset="0.446178" stop-color="#FFC107"/>
<stop offset="0.448316" stop-color="#FD8F3C"/>
<stop offset="0.624387" stop-color="#FD8F3C"/>
<stop offset="0.630803" stop-color="#F2737C"/>
</linearGradient>
<linearGradient id="paint1_linear_18377_11573" x1="45.2797" y1="74.6635" x2="45.2261" y2="-20.2431" gradientUnits="userSpaceOnUse">
<stop offset="0.182254" stop-color="#3FA71A"/>
<stop offset="0.190118" stop-color="#FFA600"/>
<stop offset="0.382761" stop-color="#FFA600"/>
<stop offset="0.388268" stop-color="#F56E08"/>
<stop offset="0.581695" stop-color="#F56E08"/>
<stop offset="0.587985" stop-color="#FF4D5A"/>
</linearGradient>
<clipPath id="clip0_18377_11573">
<rect width="96" height="76" fill="white"/>
</clipPath>
<clipPath id="clip1_18377_11573">
<rect width="96" height="76" fill="white"/>
</clipPath>
<clipPath id="clip2_18377_11573">
<rect width="200" height="76" fill="white" transform="translate(0 84)"/>
</clipPath>
</defs>
</svg>
