<svg width="200" height="160" viewBox="0 0 200 160" fill="none" xmlns="http://www.w3.org/2000/svg">
<rect y="88" width="200" height="60" rx="4" fill="white"/>
<rect x="0.5" y="88.5" width="199" height="59" rx="3.5" stroke="black" stroke-opacity="0.12"/>
<rect x="8" y="96.5" width="43" height="43" rx="4" fill="#F18D17"/>
<path d="M21.3333 112.083C21.3333 111.487 21.8208 111 22.4167 111H39.75C40.3458 111 40.8333 110.512 40.8333 109.916C40.8333 109.321 40.3458 108.833 39.75 108.833H21.3333C20.1417 108.833 19.1667 109.808 19.1667 111V122.916H18.625C17.7258 122.916 17 123.642 17 124.541C17 125.441 17.7258 126.166 18.625 126.166H32.1667V122.916H21.3333V112.083ZM41.9167 113.166H35.4167C34.8208 113.166 34.3333 113.654 34.3333 114.25V125.083C34.3333 125.679 34.8208 126.166 35.4167 126.166H41.9167C42.5125 126.166 43 125.679 43 125.083V114.25C43 113.654 42.5125 113.166 41.9167 113.166ZM40.8333 122.916H36.5V115.333H40.8333V122.916Z" fill="white"/>
<path d="M66.2988 106H64.5176L64.5293 105.08H66.2988C66.9082 105.08 67.416 104.953 67.8223 104.699C68.2285 104.441 68.5332 104.082 68.7363 103.621C68.9434 103.156 69.0469 102.613 69.0469 101.992V101.471C69.0469 100.982 68.9883 100.549 68.8711 100.17C68.7539 99.7871 68.582 99.4648 68.3555 99.2031C68.1289 98.9375 67.8516 98.7363 67.5234 98.5996C67.1992 98.4629 66.8262 98.3945 66.4043 98.3945H64.4824V97.4688H66.4043C66.9629 97.4688 67.4727 97.5625 67.9336 97.75C68.3945 97.9336 68.791 98.2012 69.123 98.5527C69.459 98.9004 69.7168 99.3223 69.8965 99.8184C70.0762 100.311 70.166 100.865 70.166 101.482V101.992C70.166 102.609 70.0762 103.166 69.8965 103.662C69.7168 104.154 69.457 104.574 69.1172 104.922C68.7812 105.27 68.375 105.537 67.8984 105.725C67.4258 105.908 66.8926 106 66.2988 106ZM65.1211 97.4688V106H63.9902V97.4688H65.1211ZM74.732 106.117C74.2906 106.117 73.8902 106.043 73.5309 105.895C73.1754 105.742 72.8687 105.529 72.6109 105.256C72.357 104.982 72.1617 104.658 72.025 104.283C71.8883 103.908 71.8199 103.498 71.8199 103.053V102.807C71.8199 102.291 71.8961 101.832 72.0484 101.43C72.2008 101.023 72.4078 100.68 72.6695 100.398C72.9312 100.117 73.2281 99.9043 73.5602 99.7598C73.8922 99.6152 74.2359 99.543 74.5914 99.543C75.0445 99.543 75.4352 99.6211 75.7633 99.7773C76.0953 99.9336 76.3668 100.152 76.5777 100.434C76.7887 100.711 76.9449 101.039 77.0465 101.418C77.148 101.793 77.1988 102.203 77.1988 102.648V103.135H72.4645V102.25H76.1148V102.168C76.0992 101.887 76.0406 101.613 75.9391 101.348C75.8414 101.082 75.6852 100.863 75.4703 100.691C75.2555 100.52 74.9625 100.434 74.5914 100.434C74.3453 100.434 74.1187 100.486 73.9117 100.592C73.7047 100.693 73.527 100.846 73.3785 101.049C73.2301 101.252 73.1148 101.5 73.0328 101.793C72.9508 102.086 72.9098 102.424 72.9098 102.807V103.053C72.9098 103.354 72.9508 103.637 73.0328 103.902C73.1187 104.164 73.2418 104.395 73.402 104.594C73.566 104.793 73.7633 104.949 73.9937 105.062C74.2281 105.176 74.4937 105.232 74.7906 105.232C75.1734 105.232 75.4977 105.154 75.7633 104.998C76.0289 104.842 76.2613 104.633 76.4605 104.371L77.1168 104.893C76.9801 105.1 76.8062 105.297 76.5953 105.484C76.3844 105.672 76.1246 105.824 75.816 105.941C75.5113 106.059 75.15 106.117 74.732 106.117ZM80.7102 105.021L82.4445 99.6602H83.552L81.2727 106H80.5461L80.7102 105.021ZM79.2629 99.6602L81.05 105.051L81.173 106H80.4465L78.1496 99.6602H79.2629ZM86.1727 99.6602V106H85.0828V99.6602H86.1727ZM85.0008 97.9785C85.0008 97.8027 85.0535 97.6543 85.159 97.5332C85.2684 97.4121 85.4285 97.3516 85.6395 97.3516C85.8465 97.3516 86.0047 97.4121 86.1141 97.5332C86.2273 97.6543 86.284 97.8027 86.284 97.9785C86.284 98.1465 86.2273 98.291 86.1141 98.4121C86.0047 98.5293 85.8465 98.5879 85.6395 98.5879C85.4285 98.5879 85.2684 98.5293 85.159 98.4121C85.0535 98.291 85.0008 98.1465 85.0008 97.9785ZM90.85 105.227C91.1078 105.227 91.3461 105.174 91.5648 105.068C91.7836 104.963 91.9633 104.818 92.1039 104.635C92.2445 104.447 92.3246 104.234 92.3441 103.996H93.3754C93.3559 104.371 93.2289 104.721 92.9945 105.045C92.7641 105.365 92.4613 105.625 92.0863 105.824C91.7113 106.02 91.2992 106.117 90.85 106.117C90.3734 106.117 89.9574 106.033 89.602 105.865C89.2504 105.697 88.9574 105.467 88.723 105.174C88.4926 104.881 88.3188 104.545 88.2016 104.166C88.0883 103.783 88.0316 103.379 88.0316 102.953V102.707C88.0316 102.281 88.0883 101.879 88.2016 101.5C88.3188 101.117 88.4926 100.779 88.723 100.486C88.9574 100.193 89.2504 99.9629 89.602 99.7949C89.9574 99.627 90.3734 99.543 90.85 99.543C91.3461 99.543 91.7797 99.6445 92.1508 99.8477C92.5219 100.047 92.8129 100.32 93.0238 100.668C93.2387 101.012 93.3559 101.402 93.3754 101.84H92.3441C92.3246 101.578 92.2504 101.342 92.1215 101.131C91.9965 100.92 91.8246 100.752 91.6059 100.627C91.391 100.498 91.1391 100.434 90.85 100.434C90.518 100.434 90.2387 100.5 90.0121 100.633C89.7895 100.762 89.6117 100.938 89.4789 101.16C89.35 101.379 89.2563 101.623 89.1977 101.893C89.143 102.158 89.1156 102.43 89.1156 102.707V102.953C89.1156 103.23 89.143 103.504 89.1977 103.773C89.2523 104.043 89.3441 104.287 89.473 104.506C89.6059 104.725 89.7836 104.9 90.0063 105.033C90.2328 105.162 90.5141 105.227 90.85 105.227ZM97.625 106.117C97.1836 106.117 96.7832 106.043 96.4238 105.895C96.0684 105.742 95.7617 105.529 95.5039 105.256C95.25 104.982 95.0547 104.658 94.918 104.283C94.7812 103.908 94.7129 103.498 94.7129 103.053V102.807C94.7129 102.291 94.7891 101.832 94.9414 101.43C95.0938 101.023 95.3008 100.68 95.5625 100.398C95.8242 100.117 96.1211 99.9043 96.4531 99.7598C96.7852 99.6152 97.1289 99.543 97.4844 99.543C97.9375 99.543 98.3281 99.6211 98.6562 99.7773C98.9883 99.9336 99.2598 100.152 99.4707 100.434C99.6816 100.711 99.8379 101.039 99.9395 101.418C100.041 101.793 100.092 102.203 100.092 102.648V103.135H95.3574V102.25H99.0078V102.168C98.9922 101.887 98.9336 101.613 98.832 101.348C98.7344 101.082 98.5781 100.863 98.3633 100.691C98.1484 100.52 97.8555 100.434 97.4844 100.434C97.2383 100.434 97.0117 100.486 96.8047 100.592C96.5977 100.693 96.4199 100.846 96.2715 101.049C96.123 101.252 96.0078 101.5 95.9258 101.793C95.8438 102.086 95.8027 102.424 95.8027 102.807V103.053C95.8027 103.354 95.8438 103.637 95.9258 103.902C96.0117 104.164 96.1348 104.395 96.2949 104.594C96.459 104.793 96.6562 104.949 96.8867 105.062C97.1211 105.176 97.3867 105.232 97.6836 105.232C98.0664 105.232 98.3906 105.154 98.6562 104.998C98.9219 104.842 99.1543 104.633 99.3535 104.371L100.01 104.893C99.873 105.1 99.6992 105.297 99.4883 105.484C99.2773 105.672 99.0176 105.824 98.709 105.941C98.4043 106.059 98.043 106.117 97.625 106.117ZM105.449 104.318C105.449 104.162 105.414 104.018 105.343 103.885C105.277 103.748 105.138 103.625 104.927 103.516C104.72 103.402 104.408 103.305 103.99 103.223C103.638 103.148 103.32 103.061 103.035 102.959C102.754 102.857 102.513 102.734 102.314 102.59C102.119 102.445 101.968 102.275 101.863 102.08C101.757 101.885 101.705 101.656 101.705 101.395C101.705 101.145 101.759 100.908 101.869 100.686C101.982 100.463 102.14 100.266 102.343 100.094C102.55 99.9219 102.798 99.7871 103.088 99.6895C103.377 99.5918 103.699 99.543 104.054 99.543C104.562 99.543 104.996 99.6328 105.355 99.8125C105.714 99.9922 105.99 100.232 106.181 100.533C106.373 100.83 106.468 101.16 106.468 101.523H105.384C105.384 101.348 105.332 101.178 105.226 101.014C105.125 100.846 104.974 100.707 104.775 100.598C104.58 100.488 104.339 100.434 104.054 100.434C103.754 100.434 103.509 100.48 103.322 100.574C103.138 100.664 103.004 100.779 102.918 100.92C102.836 101.061 102.795 101.209 102.795 101.365C102.795 101.482 102.814 101.588 102.853 101.682C102.896 101.771 102.97 101.855 103.076 101.934C103.181 102.008 103.33 102.078 103.521 102.145C103.713 102.211 103.957 102.277 104.254 102.344C104.773 102.461 105.201 102.602 105.537 102.766C105.873 102.93 106.123 103.131 106.287 103.369C106.451 103.607 106.533 103.896 106.533 104.236C106.533 104.514 106.474 104.768 106.357 104.998C106.244 105.229 106.078 105.428 105.859 105.596C105.644 105.76 105.386 105.889 105.086 105.982C104.789 106.072 104.455 106.117 104.084 106.117C103.525 106.117 103.052 106.018 102.666 105.818C102.279 105.619 101.986 105.361 101.787 105.045C101.588 104.729 101.488 104.395 101.488 104.043H102.578C102.593 104.34 102.679 104.576 102.836 104.752C102.992 104.924 103.183 105.047 103.41 105.121C103.636 105.191 103.861 105.227 104.084 105.227C104.38 105.227 104.629 105.188 104.828 105.109C105.031 105.031 105.185 104.924 105.291 104.787C105.396 104.65 105.449 104.494 105.449 104.318Z" fill="black" fill-opacity="0.54"/>
<path d="M75.7266 131.75V134H64.2891V132.066L69.8438 126.008C70.4531 125.32 70.9336 124.727 71.2852 124.227C71.6367 123.727 71.8828 123.277 72.0234 122.879C72.1719 122.473 72.2461 122.078 72.2461 121.695C72.2461 121.156 72.1445 120.684 71.9414 120.277C71.7461 119.863 71.457 119.539 71.0742 119.305C70.6914 119.062 70.2266 118.941 69.6797 118.941C69.0469 118.941 68.5156 119.078 68.0859 119.352C67.6562 119.625 67.332 120.004 67.1133 120.488C66.8945 120.965 66.7852 121.512 66.7852 122.129H63.9609C63.9609 121.137 64.1875 120.23 64.6406 119.41C65.0938 118.582 65.75 117.926 66.6094 117.441C67.4688 116.949 68.5039 116.703 69.7148 116.703C70.8555 116.703 71.8242 116.895 72.6211 117.277C73.418 117.66 74.0234 118.203 74.4375 118.906C74.8594 119.609 75.0703 120.441 75.0703 121.402C75.0703 121.934 74.9844 122.461 74.8125 122.984C74.6406 123.508 74.3945 124.031 74.0742 124.555C73.7617 125.07 73.3906 125.59 72.9609 126.113C72.5312 126.629 72.0586 127.152 71.543 127.684L67.8516 131.75H75.7266ZM80.2031 131.773H80.4375C81.5156 131.773 82.4141 131.633 83.1328 131.352C83.8594 131.062 84.4375 130.664 84.8672 130.156C85.2969 129.648 85.6055 129.051 85.793 128.363C85.9805 127.676 86.0742 126.93 86.0742 126.125V123.184C86.0742 122.488 86 121.879 85.8516 121.355C85.7109 120.824 85.5078 120.383 85.2422 120.031C84.9844 119.672 84.6836 119.402 84.3398 119.223C84.0039 119.043 83.6406 118.953 83.25 118.953C82.8203 118.953 82.4336 119.051 82.0898 119.246C81.7539 119.434 81.4688 119.695 81.2344 120.031C81.0078 120.359 80.832 120.746 80.707 121.191C80.5898 121.629 80.5312 122.098 80.5312 122.598C80.5312 123.066 80.5859 123.52 80.6953 123.957C80.8125 124.387 80.9844 124.77 81.2109 125.105C81.4375 125.441 81.7227 125.707 82.0664 125.902C82.4102 126.098 82.8125 126.195 83.2734 126.195C83.7109 126.195 84.1133 126.113 84.4805 125.949C84.8477 125.777 85.168 125.547 85.4414 125.258C85.7148 124.969 85.9297 124.645 86.0859 124.285C86.2422 123.926 86.3281 123.559 86.3438 123.184L87.4219 123.512C87.4219 124.105 87.2969 124.691 87.0469 125.27C86.8047 125.84 86.4648 126.363 86.0273 126.84C85.5977 127.309 85.0938 127.684 84.5156 127.965C83.9453 128.246 83.3242 128.387 82.6523 128.387C81.8398 128.387 81.1211 128.234 80.4961 127.93C79.8789 127.617 79.3633 127.195 78.9492 126.664C78.543 126.133 78.2383 125.523 78.0352 124.836C77.832 124.148 77.7305 123.426 77.7305 122.668C77.7305 121.848 77.8555 121.078 78.1055 120.359C78.3555 119.641 78.7188 119.008 79.1953 118.461C79.6719 117.906 80.25 117.477 80.9297 117.172C81.6172 116.859 82.3945 116.703 83.2617 116.703C84.1836 116.703 84.9922 116.883 85.6875 117.242C86.3828 117.602 86.9688 118.098 87.4453 118.73C87.9219 119.363 88.2812 120.098 88.5234 120.934C88.7656 121.77 88.8867 122.668 88.8867 123.629V124.625C88.8867 125.633 88.7969 126.605 88.6172 127.543C88.4375 128.473 88.1445 129.336 87.7383 130.133C87.3398 130.922 86.8125 131.617 86.1562 132.219C85.5078 132.812 84.7109 133.277 83.7656 133.613C82.8281 133.941 81.7266 134.105 80.4609 134.105H80.2031V131.773ZM100.102 116.832H100.453V119.141H100.254C99.2461 119.141 98.375 119.297 97.6406 119.609C96.9141 119.922 96.3164 120.352 95.8477 120.898C95.3789 121.445 95.0273 122.086 94.793 122.82C94.5664 123.547 94.4531 124.32 94.4531 125.141V127.824C94.4531 128.504 94.5273 129.105 94.6758 129.629C94.8242 130.145 95.0312 130.578 95.2969 130.93C95.5703 131.273 95.8828 131.535 96.2344 131.715C96.5859 131.895 96.9648 131.984 97.3711 131.984C97.793 131.984 98.1758 131.898 98.5195 131.727C98.8633 131.547 99.1562 131.301 99.3984 130.988C99.6406 130.676 99.8242 130.305 99.9492 129.875C100.074 129.445 100.137 128.977 100.137 128.469C100.137 127.984 100.074 127.531 99.9492 127.109C99.832 126.68 99.6562 126.305 99.4219 125.984C99.1875 125.656 98.8945 125.402 98.543 125.223C98.1992 125.035 97.8008 124.941 97.3477 124.941C96.7852 124.941 96.2734 125.074 95.8125 125.34C95.3594 125.605 94.9922 125.953 94.7109 126.383C94.4375 126.805 94.2891 127.254 94.2656 127.73L93.1875 127.379C93.25 126.652 93.4102 126 93.668 125.422C93.9336 124.844 94.2812 124.352 94.7109 123.945C95.1406 123.539 95.6367 123.23 96.1992 123.02C96.7695 122.801 97.3945 122.691 98.0742 122.691C98.9023 122.691 99.6211 122.848 100.23 123.16C100.84 123.473 101.344 123.898 101.742 124.438C102.148 124.969 102.449 125.578 102.645 126.266C102.848 126.945 102.949 127.656 102.949 128.398C102.949 129.219 102.824 129.984 102.574 130.695C102.324 131.398 101.957 132.016 101.473 132.547C100.996 133.078 100.414 133.492 99.7266 133.789C99.0469 134.086 98.2734 134.234 97.4062 134.234C96.4922 134.234 95.6758 134.059 94.957 133.707C94.2461 133.355 93.6406 132.871 93.1406 132.254C92.6484 131.637 92.2734 130.926 92.0156 130.121C91.7578 129.316 91.6289 128.465 91.6289 127.566V126.395C91.6289 125.098 91.793 123.875 92.1211 122.727C92.4492 121.57 92.9531 120.551 93.6328 119.668C94.3203 118.785 95.1992 118.094 96.2695 117.594C97.3398 117.086 98.6172 116.832 100.102 116.832Z" fill="black" fill-opacity="0.87"/>
<rect y="12" width="200" height="60" rx="4" fill="white"/>
<rect x="0.5" y="12.5" width="199" height="59" rx="3.5" stroke="black" stroke-opacity="0.12"/>
<rect x="8" y="20.5" width="43" height="43" rx="4" fill="#D12730"/>
<path d="M19.2297 54H39.7703C41.8707 54 43.1801 51.6434 42.1299 49.7666L31.8596 31.4076C30.8094 29.5308 28.1906 29.5308 27.1404 31.4076L16.8701 49.7666C15.8199 51.6434 17.1293 54 19.2297 54ZM29.5 44.122C28.7498 44.122 28.1361 43.487 28.1361 42.7109V39.8886C28.1361 39.1125 28.7498 38.4774 29.5 38.4774C30.2502 38.4774 30.8639 39.1125 30.8639 39.8886V42.7109C30.8639 43.487 30.2502 44.122 29.5 44.122ZM30.8639 49.7666H28.1361V46.9443H30.8639V49.7666Z" fill="white"/>
<path d="M67.1426 21.4688V30H66.0293V21.4688H67.1426ZM69.8848 21.4688V22.3945H63.293V21.4688H69.8848ZM70.5133 26.9004V26.7656C70.5133 26.3086 70.5797 25.8848 70.7125 25.4941C70.8453 25.0996 71.0367 24.7578 71.2867 24.4688C71.5367 24.1758 71.8395 23.9492 72.1949 23.7891C72.5504 23.625 72.9488 23.543 73.3902 23.543C73.8355 23.543 74.2359 23.625 74.5914 23.7891C74.9508 23.9492 75.2555 24.1758 75.5055 24.4688C75.7594 24.7578 75.9527 25.0996 76.0855 25.4941C76.2184 25.8848 76.2848 26.3086 76.2848 26.7656V26.9004C76.2848 27.3574 76.2184 27.7812 76.0855 28.1719C75.9527 28.5625 75.7594 28.9043 75.5055 29.1973C75.2555 29.4863 74.9527 29.7129 74.5973 29.877C74.2457 30.0371 73.8473 30.1172 73.402 30.1172C72.9566 30.1172 72.5563 30.0371 72.2008 29.877C71.8453 29.7129 71.5406 29.4863 71.2867 29.1973C71.0367 28.9043 70.8453 28.5625 70.7125 28.1719C70.5797 27.7812 70.5133 27.3574 70.5133 26.9004ZM71.5973 26.7656V26.9004C71.5973 27.2168 71.6344 27.5156 71.7086 27.7969C71.7828 28.0742 71.8941 28.3203 72.0426 28.5352C72.1949 28.75 72.3844 28.9199 72.6109 29.0449C72.8375 29.166 73.1012 29.2266 73.402 29.2266C73.6988 29.2266 73.9586 29.166 74.1813 29.0449C74.4078 28.9199 74.5953 28.75 74.7438 28.5352C74.8922 28.3203 75.0035 28.0742 75.0777 27.7969C75.1559 27.5156 75.1949 27.2168 75.1949 26.9004V26.7656C75.1949 26.4531 75.1559 26.1582 75.0777 25.8809C75.0035 25.5996 74.8902 25.3516 74.7379 25.1367C74.5895 24.918 74.402 24.7461 74.1754 24.6211C73.9527 24.4961 73.691 24.4336 73.3902 24.4336C73.0934 24.4336 72.8316 24.4961 72.6051 24.6211C72.3824 24.7461 72.1949 24.918 72.0426 25.1367C71.8941 25.3516 71.7828 25.5996 71.7086 25.8809C71.6344 26.1582 71.5973 26.4531 71.5973 26.7656ZM80.6984 23.6602V24.4922H77.2707V23.6602H80.6984ZM78.4309 22.1191H79.5148V28.4297C79.5148 28.6445 79.548 28.8066 79.6145 28.916C79.6809 29.0254 79.7668 29.0977 79.8723 29.1328C79.9777 29.168 80.091 29.1855 80.2121 29.1855C80.302 29.1855 80.3957 29.1777 80.4934 29.1621C80.5949 29.1426 80.6711 29.127 80.7219 29.1152L80.7277 30C80.6418 30.0273 80.5285 30.0527 80.3879 30.0762C80.2512 30.1035 80.0852 30.1172 79.8898 30.1172C79.6242 30.1172 79.3801 30.0645 79.1574 29.959C78.9348 29.8535 78.757 29.6777 78.6242 29.4316C78.4953 29.1816 78.4309 28.8457 78.4309 28.4238V22.1191ZM86.1082 28.916V25.6523C86.1082 25.4023 86.0574 25.1855 85.9559 25.002C85.8582 24.8145 85.7098 24.6699 85.5105 24.5684C85.3113 24.4668 85.0652 24.416 84.7723 24.416C84.4988 24.416 84.2586 24.4629 84.0516 24.5566C83.8484 24.6504 83.6883 24.7734 83.5711 24.9258C83.4578 25.0781 83.4012 25.2422 83.4012 25.418H82.3172C82.3172 25.1914 82.3758 24.9668 82.493 24.7441C82.6102 24.5215 82.7781 24.3203 82.9969 24.1406C83.2195 23.957 83.4852 23.8125 83.7938 23.707C84.1063 23.5977 84.4539 23.543 84.8367 23.543C85.2977 23.543 85.7039 23.6211 86.0555 23.7773C86.4109 23.9336 86.6883 24.1699 86.8875 24.4863C87.0906 24.7988 87.1922 25.1914 87.1922 25.6641V28.6172C87.1922 28.8281 87.2098 29.0527 87.2449 29.291C87.284 29.5293 87.3406 29.7344 87.4148 29.9062V30H86.284C86.2293 29.875 86.1863 29.709 86.1551 29.502C86.1238 29.291 86.1082 29.0957 86.1082 28.916ZM86.2957 26.1562L86.3074 26.918H85.2117C84.9031 26.918 84.6277 26.9434 84.3855 26.9941C84.1434 27.041 83.9402 27.1133 83.7762 27.2109C83.6121 27.3086 83.4871 27.4316 83.4012 27.5801C83.3152 27.7246 83.2723 27.8945 83.2723 28.0898C83.2723 28.2891 83.3172 28.4707 83.407 28.6348C83.4969 28.7988 83.6316 28.9297 83.8113 29.0273C83.9949 29.1211 84.2195 29.168 84.4852 29.168C84.8172 29.168 85.1102 29.0977 85.3641 28.957C85.618 28.8164 85.8191 28.6445 85.9676 28.4414C86.1199 28.2383 86.202 28.041 86.2137 27.8496L86.6766 28.3711C86.6492 28.5352 86.575 28.7168 86.4539 28.916C86.3328 29.1152 86.1707 29.3066 85.9676 29.4902C85.7684 29.6699 85.5301 29.8203 85.2527 29.9414C84.9793 30.0586 84.6707 30.1172 84.327 30.1172C83.8973 30.1172 83.5203 30.0332 83.1961 29.8652C82.8758 29.6973 82.6258 29.4727 82.4461 29.1914C82.2703 28.9062 82.1824 28.5879 82.1824 28.2363C82.1824 27.8965 82.2488 27.5977 82.3816 27.3398C82.5145 27.0781 82.7059 26.8613 82.9559 26.6895C83.2059 26.5137 83.5066 26.3809 83.8582 26.291C84.2098 26.2012 84.6023 26.1562 85.0359 26.1562H86.2957ZM90.475 21V30H89.3852V21H90.475Z" fill="black" fill-opacity="0.54"/>
<path d="M67.6055 48.1914H69.293C69.9492 48.1914 70.4922 48.0781 70.9219 47.8516C71.3594 47.625 71.6836 47.3125 71.8945 46.9141C72.1055 46.5156 72.2109 46.0586 72.2109 45.543C72.2109 45.0039 72.1133 44.543 71.918 44.1602C71.7305 43.7695 71.4414 43.4688 71.0508 43.2578C70.668 43.0469 70.1797 42.9414 69.5859 42.9414C69.0859 42.9414 68.6328 43.043 68.2266 43.2461C67.8281 43.4414 67.5117 43.7227 67.2773 44.0898C67.043 44.4492 66.9258 44.8789 66.9258 45.3789H64.0898C64.0898 44.4727 64.3281 43.668 64.8047 42.9648C65.2812 42.2617 65.9297 41.7109 66.75 41.3125C67.5781 40.9062 68.5078 40.7031 69.5391 40.7031C70.6406 40.7031 71.6016 40.8867 72.4219 41.2539C73.25 41.6133 73.8945 42.1523 74.3555 42.8711C74.8164 43.5898 75.0469 44.4805 75.0469 45.543C75.0469 46.0273 74.9336 46.5195 74.707 47.0195C74.4805 47.5195 74.1445 47.9766 73.6992 48.3906C73.2539 48.7969 72.6992 49.1289 72.0352 49.3867C71.3711 49.6367 70.6016 49.7617 69.7266 49.7617H67.6055V48.1914ZM67.6055 50.3945V48.8477H69.7266C70.7266 48.8477 71.5781 48.9648 72.2812 49.1992C72.9922 49.4336 73.5703 49.7578 74.0156 50.1719C74.4609 50.5781 74.7852 51.043 74.9883 51.5664C75.1992 52.0898 75.3047 52.6445 75.3047 53.2305C75.3047 54.0273 75.1602 54.7383 74.8711 55.3633C74.5898 55.9805 74.1875 56.5039 73.6641 56.9336C73.1406 57.3633 72.5273 57.6875 71.8242 57.9062C71.1289 58.125 70.3711 58.2344 69.5508 58.2344C68.8164 58.2344 68.1133 58.1328 67.4414 57.9297C66.7695 57.7266 66.168 57.4258 65.6367 57.0273C65.1055 56.6211 64.6836 56.1172 64.3711 55.5156C64.0664 54.9062 63.9141 54.2031 63.9141 53.4062H66.7383C66.7383 53.9141 66.8555 54.3633 67.0898 54.7539C67.332 55.1367 67.668 55.4375 68.0977 55.6562C68.5352 55.875 69.0352 55.9844 69.5977 55.9844C70.1914 55.9844 70.7031 55.8789 71.1328 55.668C71.5625 55.457 71.8906 55.1445 72.1172 54.7305C72.3516 54.3164 72.4688 53.8164 72.4688 53.2305C72.4688 52.5664 72.3398 52.0273 72.082 51.6133C71.8242 51.1992 71.457 50.8945 70.9805 50.6992C70.5039 50.4961 69.9414 50.3945 69.293 50.3945H67.6055Z" fill="black" fill-opacity="0.87"/>
</svg>
