<svg width="200" height="160" viewBox="0 0 200 160" fill="none" xmlns="http://www.w3.org/2000/svg">
    <g clip-path="url(#clip0_3_27742)">
        <rect x="102" width="98" height="99" rx="4" fill="black"/>
        <rect width="98" height="99" rx="4" fill="black"/>
        <path d="M151 76V95C150.664 95 150.328 94.9955 149.993 94.9883L150.401 75.9932C150.6 75.9974 150.8 76 151 76ZM152.006 94.9883C151.671 94.9955 151.336 95 151 95V76C151.2 76 151.4 75.9974 151.599 75.9932L152.006 94.9883ZM148.036 75.8408C148.425 75.883 148.818 75.9168 149.214 75.9424L147.988 94.8994C147.318 94.8561 146.652 94.7992 145.99 94.7275L148.036 75.8408ZM156.009 94.7275C155.347 94.7992 154.681 94.8561 154.011 94.8994L153.398 85.4229L152.786 75.9424C153.182 75.9168 153.575 75.883 153.964 75.8408L156.009 94.7275ZM145.71 75.4854C146.093 75.5611 146.479 75.629 146.868 75.6885L144.001 94.4697C143.337 94.3683 142.677 94.2506 142.022 94.1211L145.71 75.4854ZM159.977 94.1211C159.322 94.2506 158.662 94.3683 157.998 94.4697L156.565 85.0801L155.132 75.6885C155.521 75.629 155.907 75.5611 156.29 75.4854L159.977 94.1211ZM143.432 74.9297C143.806 75.0385 144.184 75.1396 144.564 75.2324L140.062 93.6875C139.41 93.5285 138.764 93.3564 138.123 93.1699L143.432 74.9297ZM163.876 93.1699C163.235 93.3564 162.589 93.5285 161.937 93.6875L157.436 75.2324C157.816 75.1396 158.194 75.0385 158.568 74.9297L163.876 93.1699ZM141.214 74.1768C141.577 74.3181 141.944 74.4524 142.314 74.5781L136.208 92.5693C135.573 92.3538 134.944 92.124 134.322 91.8818L141.214 74.1768ZM167.677 91.8818C167.055 92.124 166.426 92.3538 165.791 92.5693L162.738 83.5742L159.686 74.5781C160.056 74.4524 160.423 74.3181 160.786 74.1768L167.677 91.8818ZM139.066 73.2314C139.417 73.4045 139.772 73.5696 140.13 73.7275L136.299 82.4199L136.3 82.4209L132.47 91.1113C131.856 90.841 131.25 90.5577 130.651 90.2617L139.066 73.2314ZM171.348 90.2617C170.749 90.5576 170.143 90.8411 169.529 91.1113L165.7 82.4209L161.87 73.7275C162.228 73.5696 162.583 73.4046 162.934 73.2314L171.348 90.2617ZM137.006 72.0977C137.341 72.3014 137.68 72.4984 138.024 72.6875L128.871 89.335C128.284 89.0123 127.704 88.6793 127.133 88.332L137.006 72.0977ZM164.994 72.0977L174.866 88.332C174.295 88.6793 173.715 89.0123 173.128 89.335L163.976 72.6875C164.32 72.4984 164.659 72.3014 164.994 72.0977ZM135.045 70.7861C135.362 71.019 135.685 71.2449 136.012 71.4639L125.442 87.249C124.886 86.8766 124.339 86.4924 123.8 86.0967L135.045 70.7861ZM178.199 86.0967C177.66 86.4924 177.113 86.8766 176.557 87.249L165.988 71.4639C166.315 71.2449 166.638 71.019 166.955 70.7861L178.199 86.0967ZM133.203 69.3057C133.499 69.5655 133.801 69.8186 134.108 70.0654L122.208 84.873C121.686 84.4538 121.174 84.0242 120.671 83.583L133.203 69.3057ZM181.328 83.583C180.825 84.0242 180.313 84.4538 179.791 84.873L167.892 70.0654C168.199 69.8186 168.501 69.5655 168.797 69.3057L181.328 83.583ZM131.494 67.6689C131.767 67.9538 132.046 68.233 132.331 68.5059L119.19 82.2275C118.707 81.7649 118.234 81.2918 117.771 80.8086L131.494 67.6689ZM184.228 80.8086C183.765 81.2918 183.292 81.7649 182.809 82.2275L169.669 68.5059C169.954 68.233 170.233 67.9538 170.506 67.6689L184.228 80.8086ZM129.935 65.8916C130.181 66.1987 130.434 66.5008 130.694 66.7969L116.416 79.3281C115.975 78.8255 115.545 78.3127 115.126 77.791L129.935 65.8916ZM186.873 77.791C186.454 78.3127 186.024 78.8255 185.583 79.3281L171.306 66.7969C171.566 66.5008 171.819 66.1987 172.065 65.8916L186.873 77.791ZM128.536 63.9883C128.755 64.3153 128.981 64.638 129.214 64.9551L113.902 76.1992C113.507 75.6605 113.122 75.1129 112.75 74.5566L128.536 63.9883ZM189.249 74.5566C188.877 75.1129 188.492 75.6604 188.097 76.1992L180.442 70.5781L172.786 64.9551C173.019 64.638 173.245 64.3153 173.464 63.9883L189.249 74.5566ZM127.312 61.9756C127.502 62.3196 127.699 62.659 127.902 62.9941L111.667 72.8662C111.32 72.2952 110.987 71.7149 110.664 71.1279L127.312 61.9756ZM191.335 71.1279C191.012 71.7149 190.679 72.2952 190.332 72.8662L182.215 67.9307L174.098 62.9941C174.301 62.659 174.498 62.3196 174.688 61.9756L191.335 71.1279ZM126.272 59.8701C126.43 60.2285 126.595 60.5832 126.769 60.9336L109.737 69.3477C109.441 68.7487 109.158 68.1426 108.888 67.5293L126.272 59.8701ZM184.42 63.7002L193.111 67.5293C192.841 68.1426 192.558 68.7487 192.262 69.3477L183.748 65.1416L175.231 60.9336C175.405 60.5832 175.57 60.2284 175.728 59.8701L184.42 63.7002ZM125.422 57.6855C125.548 58.0561 125.682 58.4229 125.823 58.7861L108.117 65.6768C107.875 65.0545 107.645 64.426 107.43 63.791L107.7 63.7002L125.422 57.6855ZM194.569 63.791C194.354 64.4261 194.124 65.0545 193.882 65.6768L185.03 62.2324L176.177 58.7861C176.318 58.4229 176.452 58.0561 176.578 57.6855L194.569 63.791ZM124.768 55.4355C124.86 55.8163 124.961 56.1944 125.07 56.5684L106.829 61.876C106.643 61.2352 106.471 60.5885 106.312 59.9365L124.768 55.4355ZM195.688 59.9365C195.528 60.5885 195.356 61.2352 195.17 61.876L176.93 56.5684C177.039 56.1944 177.14 55.8163 177.232 55.4355L195.688 59.9365ZM124.312 53.1318C124.371 53.5211 124.439 53.9073 124.515 54.29L105.878 57.9766C105.748 57.3218 105.631 56.6625 105.529 55.998L124.312 53.1318ZM177.688 53.1318L196.47 55.998C196.368 56.6625 196.251 57.3218 196.121 57.9766L177.485 54.29C177.561 53.9073 177.629 53.5211 177.688 53.1318ZM124.058 50.7861C124.083 51.1819 124.117 51.5746 124.159 51.9639L105.271 54.0088C105.2 53.3469 105.143 52.6808 105.1 52.0107L124.058 50.7861ZM196.899 52.0107C196.856 52.6808 196.799 53.3469 196.728 54.0088L187.285 52.9873L177.841 51.9639C177.883 51.5746 177.917 51.1819 177.942 50.7861L196.899 52.0107ZM105 49C105 48.6635 105.004 48.3279 105.011 47.9932L124.007 48.4014C124.003 48.6001 124 48.7996 124 49C124 49.2004 124.003 49.3999 124.007 49.5986L105.011 50.0059C105.004 49.6714 105 49.3361 105 49ZM197 49C197 49.3361 196.995 49.6714 196.988 50.0059L177.993 49.5986C177.997 49.3999 178 49.2004 178 49C178 48.7996 177.997 48.6001 177.993 48.4014L196.988 47.9932C196.995 48.3279 197 48.6635 197 49ZM114.715 45.0127L124.159 46.0361C124.117 46.4254 124.083 46.8181 124.058 47.2139L105.1 45.9883C105.143 45.3182 105.2 44.6521 105.271 43.9902L114.715 45.0127ZM196.728 43.9902C196.799 44.6522 196.856 45.3182 196.899 45.9883L187.423 46.6016L187.422 46.6006L177.942 47.2139C177.917 46.8181 177.883 46.4254 177.841 46.0361L196.728 43.9902ZM124.515 43.71C124.439 44.0927 124.371 44.4789 124.312 44.8682L114.92 43.4336L105.529 42.001C105.631 41.3366 105.748 40.6772 105.878 40.0225L124.515 43.71ZM196.121 40.0225C196.251 40.6772 196.368 41.3365 196.47 42.001L187.08 43.4346L187.079 43.4336L177.688 44.8682C177.629 44.4789 177.561 44.0927 177.485 43.71L196.121 40.0225ZM125.07 41.4316C124.961 41.8056 124.86 42.1837 124.768 42.5645L106.312 38.0625C106.471 37.4105 106.643 36.7638 106.829 36.123L125.07 41.4316ZM195.17 36.123C195.356 36.7638 195.528 37.4105 195.688 38.0625L177.232 42.5645C177.14 42.1837 177.039 41.8056 176.93 41.4316L195.17 36.123ZM116.97 35.7676L125.823 39.2139C125.682 39.5771 125.548 39.9439 125.422 40.3145L107.43 34.208C107.645 33.573 107.875 32.9445 108.117 32.3223L116.97 35.7676ZM193.882 32.3223C194.124 32.9445 194.354 33.573 194.569 34.208L185.574 37.2617L185.573 37.2607L176.578 40.3145C176.452 39.9439 176.318 39.5771 176.177 39.2139L193.882 32.3223ZM118.252 32.8584L126.769 37.0664C126.595 37.4168 126.43 37.7716 126.272 38.1299L117.579 34.2988L108.888 30.4697C109.158 29.8564 109.441 29.2503 109.737 28.6514L118.252 32.8584ZM192.262 28.6514C192.558 29.2503 192.841 29.8564 193.111 30.4697L184.421 34.2998L184.42 34.2988L175.728 38.1299C175.57 37.7715 175.405 37.4168 175.231 37.0664L192.262 28.6514ZM111.668 25.1338L119.785 30.0693L127.902 35.0059C127.699 35.341 127.502 35.6804 127.312 36.0244L110.664 26.8711C110.987 26.2842 111.32 25.7038 111.667 25.1328L111.668 25.1338ZM190.332 25.1328C190.679 25.7038 191.012 26.2841 191.335 26.8711L174.688 36.0244C174.498 35.6804 174.301 35.341 174.098 35.0059L190.332 25.1328ZM129.214 33.0449C128.981 33.362 128.755 33.6847 128.536 34.0117L112.75 23.4424C113.122 22.8861 113.507 22.3386 113.902 21.7998L129.214 33.0449ZM188.097 21.7998C188.492 22.3386 188.877 22.8861 189.249 23.4424L173.464 34.0117C173.245 33.6847 173.019 33.362 172.786 33.0449L188.097 21.7998ZM130.694 31.2031C130.434 31.4992 130.181 31.8013 129.935 32.1084L115.126 20.208C115.545 19.6863 115.975 19.1735 116.416 18.6709L130.694 31.2031ZM185.583 18.6709C186.024 19.1735 186.454 19.6863 186.873 20.208L172.065 32.1084C171.819 31.8013 171.566 31.4992 171.306 31.2031L185.583 18.6709ZM132.331 29.4941C132.046 29.767 131.767 30.0461 131.494 30.3311L117.771 17.1904C118.234 16.7073 118.707 16.2342 119.19 15.7715L132.331 29.4941ZM182.809 15.7715C183.292 16.2342 183.765 16.7073 184.228 17.1904L170.506 30.3311C170.233 30.0461 169.954 29.767 169.669 29.4941L182.809 15.7715ZM134.108 27.9346C133.801 28.1814 133.499 28.4345 133.203 28.6943L120.671 14.416C121.174 13.9749 121.686 13.5452 122.208 13.126L134.108 27.9346ZM179.791 13.126C180.313 13.5452 180.825 13.9749 181.328 14.416L168.797 28.6943C168.501 28.4345 168.199 28.1814 167.892 27.9346L179.791 13.126ZM136.012 26.5361C135.685 26.7551 135.362 26.981 135.045 27.2139L123.8 11.9023C124.339 11.5067 124.886 11.1224 125.442 10.75L136.012 26.5361ZM138.024 25.3125C137.68 25.5016 137.341 25.6986 137.006 25.9023L127.134 9.66797L127.133 9.66699C127.704 9.31978 128.284 8.98675 128.871 8.66406L138.024 25.3125ZM140.13 24.2725C139.772 24.4304 139.417 24.5954 139.066 24.7686L130.651 7.7373C131.25 7.44138 131.856 7.15796 132.47 6.8877L140.13 24.2725ZM142.314 23.4219C141.944 23.5476 141.577 23.6819 141.214 23.8232L134.322 6.11719C134.944 5.87502 135.573 5.64521 136.208 5.42969L142.314 23.4219ZM144.564 22.7676C144.184 22.8604 143.806 22.9615 143.432 23.0703L138.123 4.8291C138.764 4.64261 139.41 4.47055 140.062 4.31152L144.564 22.7676ZM146.868 22.3115C146.479 22.371 146.093 22.4389 145.71 22.5146L142.022 3.87793C142.677 3.74839 143.337 3.63072 144.001 3.5293L146.868 22.3115ZM148.602 12.5771L149.214 22.0576C148.818 22.0832 148.425 22.117 148.036 22.1592L145.99 3.27148C146.652 3.19979 147.318 3.14292 147.988 3.09961L148.602 12.5771Z" fill="#172418"/>
        <path d="M95 59C95 59.3361 94.9955 59.6714 94.9883 60.0059L75.9932 59.5986C75.9974 59.3999 76 59.2004 76 59C76 58.7996 75.9974 58.6001 75.9932 58.4014L94.9883 57.9932C94.9955 58.3279 95 58.6635 95 59ZM94.7275 53.9902C94.7992 54.6522 94.8561 55.3182 94.8994 55.9883L85.4229 56.6016L85.4219 56.6006L75.9424 57.2139C75.9168 56.8181 75.883 56.4254 75.8408 56.0361L94.7275 53.9902ZM94.1211 50.0225C94.2506 50.6772 94.3683 51.3365 94.4697 52.001L85.0801 53.4346L85.0791 53.4336L75.6885 54.8682C75.629 54.4789 75.5611 54.0927 75.4854 53.71L94.1211 50.0225ZM93.1699 46.123C93.3564 46.7638 93.5285 47.4105 93.6875 48.0625L75.2324 52.5645C75.1396 52.1837 75.0385 51.8056 74.9297 51.4316L93.1699 46.123ZM91.8818 42.3223C92.124 42.9445 92.3538 43.573 92.5693 44.208L83.5742 47.2617L83.5732 47.2607L74.5781 50.3145C74.4524 49.9439 74.3181 49.5771 74.1768 49.2139L91.8818 42.3223ZM90.2617 38.6514C90.5577 39.2503 90.8411 39.8564 91.1113 40.4697L82.4209 44.2998L82.4199 44.2988L73.7275 48.1299C73.5696 47.7715 73.4046 47.4168 73.2314 47.0664L90.2617 38.6514ZM88.332 35.1328C88.6793 35.7038 89.0123 36.2841 89.335 36.8711L72.6875 46.0244C72.4984 45.6804 72.3014 45.341 72.0977 45.0059L88.332 35.1328ZM86.0967 31.7998C86.4924 32.3386 86.8766 32.8861 87.249 33.4424L71.4639 44.0117C71.2449 43.6847 71.019 43.362 70.7861 43.0449L86.0967 31.7998ZM83.583 28.6709C84.0242 29.1735 84.4538 29.6863 84.873 30.208L70.0654 42.1084C69.8186 41.8013 69.5655 41.4992 69.3057 41.2031L83.583 28.6709ZM80.8086 25.7715C81.2918 26.2342 81.7649 26.7073 82.2275 27.1904L68.5059 40.3311C68.233 40.0461 67.9539 39.767 67.6689 39.4941L80.8086 25.7715ZM77.791 23.126C78.3127 23.5452 78.8255 23.9749 79.3281 24.416L66.7969 38.6943C66.5008 38.4345 66.1987 38.1814 65.8916 37.9346L77.791 23.126Z" fill="#1F2326"/>
        <path d="M3.01074 57.9932C3.00355 58.3279 3 58.6635 3 59C3 59.3361 3.00357 59.6714 3.01074 60.0059L22.0068 59.5986C22.0026 59.3999 22 59.2004 22 59C22 58.7996 22.0026 58.6001 22.0068 58.4014L3.01074 57.9932Z" fill="#F4CC7B"/>
        <path d="M22.1592 56.0361L12.7148 55.0127L3.27148 53.9902C3.19979 54.6521 3.14292 55.3182 3.09961 55.9883L22.0576 57.2139C22.0832 56.8181 22.117 56.4254 22.1592 56.0361Z" fill="#F4CC7B"/>
        <path d="M22.3115 54.8682C22.371 54.4789 22.4389 54.0927 22.5146 53.71L3.87793 50.0225C3.74839 50.6772 3.63072 51.3366 3.5293 52.001L12.9199 53.4336L22.3115 54.8682Z" fill="#F4CC7B"/>
        <path d="M22.7676 52.5645C22.8604 52.1837 22.9615 51.8056 23.0703 51.4316L4.8291 46.123C4.64261 46.7638 4.47055 47.4105 4.31152 48.0625L22.7676 52.5645Z" fill="#F4CC7B"/>
        <path d="M23.8232 49.2139L14.9697 45.7676L6.11719 42.3223C5.87502 42.9445 5.64521 43.573 5.42969 44.208L23.4219 50.3145C23.5476 49.9439 23.6819 49.5771 23.8232 49.2139Z" fill="#F4CC7B"/>
        <path d="M24.7686 47.0664L16.252 42.8584L7.7373 38.6514C7.44138 39.2503 7.15796 39.8564 6.8877 40.4697L15.5791 44.2988L24.2725 48.1299C24.4304 47.7716 24.5954 47.4168 24.7686 47.0664Z" fill="#F4CC7B"/>
        <path d="M17.7852 40.0693L9.66797 35.1338L9.66699 35.1328C9.31978 35.7038 8.98675 36.2842 8.66406 36.8711L25.3125 46.0244C25.5016 45.6804 25.6986 45.341 25.9023 45.0059L17.7852 40.0693Z" fill="#F4CC7B"/>
        <path d="M26.5361 44.0117C26.7551 43.6847 26.981 43.362 27.2139 43.0449L11.9023 31.7998C11.5067 32.3386 11.1224 32.8861 10.75 33.4424L26.5361 44.0117Z" fill="#F4CC7B"/>
        <path d="M27.9346 42.1084C28.1814 41.8013 28.4345 41.4992 28.6943 41.2031L14.416 28.6709C13.9749 29.1735 13.5452 29.6863 13.126 30.208L27.9346 42.1084Z" fill="#F4CC7B"/>
        <path d="M29.4941 40.3311C29.767 40.0461 30.0461 39.767 30.3311 39.4941L17.1904 25.7715C16.7073 26.2342 16.2342 26.7073 15.7715 27.1904L29.4941 40.3311Z" fill="#F4CC7B"/>
        <path d="M31.2031 38.6943C31.4992 38.4345 31.8013 38.1814 32.1084 37.9346L20.208 23.126C19.6863 23.5452 19.1735 23.9749 18.6709 24.416L31.2031 38.6943Z" fill="#F4CC7B"/>
        <path d="M33.0449 37.2139C33.362 36.981 33.6847 36.7551 34.0117 36.5361L23.4424 20.75C22.8861 21.1224 22.3386 21.5067 21.7998 21.9023L33.0449 37.2139Z" fill="#F4CC7B"/>
        <path d="M35.0059 35.9023C35.341 35.6986 35.6804 35.5016 36.0244 35.3125L26.8711 18.6641C26.2842 18.9868 25.7038 19.3198 25.1328 19.667L25.1338 19.668L35.0059 35.9023Z" fill="#F4CC7B"/>
        <path d="M37.0664 34.7686C37.4168 34.5954 37.7715 34.4304 38.1299 34.2725L30.4697 16.8877C29.8564 17.158 29.2503 17.4414 28.6514 17.7373L37.0664 34.7686Z" fill="#F4CC7B"/>
        <path d="M39.2139 33.8232C39.5771 33.6819 39.9439 33.5476 40.3145 33.4219L34.208 15.4297C33.573 15.6452 32.9445 15.875 32.3223 16.1172L39.2139 33.8232Z" fill="#F4CC7B"/>
        <path d="M41.4316 33.0703C41.8056 32.9615 42.1837 32.8604 42.5645 32.7676L38.0625 14.3115C37.4105 14.4706 36.7638 14.6426 36.123 14.8291L41.4316 33.0703Z" fill="#F4CC7B"/>
        <path d="M43.71 32.5146C44.0927 32.4389 44.4789 32.371 44.8682 32.3115L42.001 13.5293C41.3366 13.6307 40.6772 13.7484 40.0225 13.8779L43.71 32.5146Z" fill="#F4CC7B"/>
        <path d="M47.2139 32.0576L46.6016 22.5771L45.9883 13.0996C45.3182 13.1429 44.6521 13.1998 43.9902 13.2715L46.0361 32.1592C46.4254 32.117 46.8181 32.0832 47.2139 32.0576Z" fill="#F4CC7B"/>
        <path d="M178.199 11.9023C177.66 11.5067 177.113 11.1224 176.557 10.75L165.988 26.5361C166.315 26.7551 166.638 26.981 166.955 27.2139L178.199 11.9023Z" fill="#9CF1A0"/>
        <path d="M174.866 9.66699C174.295 9.31979 173.715 8.98675 173.128 8.66406L163.976 25.3125C164.32 25.5016 164.659 25.6986 164.994 25.9023L169.93 17.7842L169.931 17.7852L174.866 9.66699Z" fill="#9CF1A0"/>
        <path d="M171.348 7.7373C170.749 7.44139 170.143 7.15795 169.529 6.8877L161.87 24.2725C162.228 24.4304 162.583 24.5954 162.934 24.7686L171.348 7.7373Z" fill="#9CF1A0"/>
        <path d="M167.677 6.11719C167.055 5.87503 166.426 5.6452 165.791 5.42969L159.686 23.4219C160.056 23.5476 160.423 23.6819 160.786 23.8232L164.231 14.9688L164.232 14.9697L167.677 6.11719Z" fill="#9CF1A0"/>
        <path d="M163.876 4.8291C163.235 4.64263 162.589 4.47054 161.937 4.31152L157.436 22.7676C157.816 22.8604 158.194 22.9615 158.568 23.0703L163.876 4.8291Z" fill="#9CF1A0"/>
        <path d="M159.977 3.87793C159.322 3.74841 158.662 3.63071 157.998 3.5293L155.132 22.3115C155.521 22.371 155.907 22.4389 156.29 22.5146L159.977 3.87793Z" fill="#9CF1A0"/>
        <path d="M156.009 3.27148C155.347 3.1998 154.681 3.1429 154.011 3.09961L152.786 22.0576C153.182 22.0832 153.575 22.117 153.964 22.1592L154.986 12.7139L154.987 12.7148L156.009 3.27148Z" fill="#9CF1A0"/>
        <path d="M152.006 3.01074C151.671 3.00357 151.336 3 151 3C150.664 3 150.328 3.00355 149.993 3.01074L150.401 22.0068C150.6 22.0026 150.8 22 151 22C151.2 22 151.4 22.0026 151.599 22.0068L152.006 3.01074Z" fill="#9CF1A0"/>
        <path d="M76.1992 21.9023C75.6605 21.5067 75.1129 21.1224 74.5566 20.75L63.9883 36.5361C64.3153 36.7551 64.638 36.981 64.9551 37.2139L76.1992 21.9023Z" fill="#F4CC7B"/>
        <path d="M72.8662 19.667C72.2952 19.3198 71.7149 18.9867 71.1279 18.6641L61.9756 35.3125C62.3196 35.5016 62.659 35.6986 62.9941 35.9023L67.9297 27.7842L67.9307 27.7852L72.8662 19.667Z" fill="#F4CC7B"/>
        <path d="M69.3477 17.7373C68.7487 17.4414 68.1426 17.158 67.5293 16.8877L59.8701 34.2725C60.2284 34.4304 60.5832 34.5954 60.9336 34.7686L69.3477 17.7373Z" fill="#F4CC7B"/>
        <path d="M65.6768 16.1172C65.0545 15.875 64.4261 15.6452 63.791 15.4297L57.6855 33.4219C58.0561 33.5476 58.4229 33.6819 58.7861 33.8232L62.2314 24.9688L62.2324 24.9697L65.6768 16.1172Z" fill="#F4CC7B"/>
        <path d="M61.876 14.8291C61.2352 14.6426 60.5885 14.4705 59.9365 14.3115L55.4355 32.7676C55.8163 32.8604 56.1944 32.9615 56.5684 33.0703L61.876 14.8291Z" fill="#F4CC7B"/>
        <path d="M57.9766 13.8779C57.3218 13.7484 56.6625 13.6307 55.998 13.5293L53.1318 32.3115C53.5211 32.371 53.9073 32.4389 54.29 32.5146L57.9766 13.8779Z" fill="#F4CC7B"/>
        <path d="M54.0088 13.2715C53.3469 13.1998 52.6808 13.1429 52.0107 13.0996L50.7861 32.0576C51.1819 32.0832 51.5746 32.117 51.9639 32.1592L52.9863 22.7139L52.9873 22.7148L54.0088 13.2715Z" fill="#F4CC7B"/>
        <path d="M50.0059 13.0107C49.6714 13.0036 49.3361 13 49 13C48.6635 13 48.3279 13.0036 47.9932 13.0107L48.4014 32.0068C48.6001 32.0026 48.7996 32 49 32C49.2004 32 49.3999 32.0026 49.5986 32.0068L50.0059 13.0107Z" fill="#F4CC7B"/>
        <path d="M140.779 56.704L139.051 55.056V51.12L140.779 49.552V56.704ZM134.491 50.128C134.117 49.8293 133.739 49.536 133.355 49.248L134.491 48.4H138.859L139.979 49.248L138.859 50.128H134.491ZM133.099 41.152H140.251L138.667 42.88H134.747L133.099 41.152ZM132.587 48.992V41.84L134.315 43.392V47.36L132.587 48.992ZM140.731 41.84V48.992L139.003 47.44V43.488L140.731 41.84ZM143.23 55.04H145.246V57.088H143.23V55.04ZM155.469 56.704L153.741 55.056V51.12L155.469 49.552V56.704ZM149.181 50.128C148.808 49.8293 148.429 49.536 148.045 49.248L149.181 48.4H153.549L154.669 49.248L153.549 50.128H149.181ZM147.789 41.152H154.941L153.357 42.88H149.437L147.789 41.152ZM147.277 48.992V41.84L149.005 43.392V47.36L147.277 48.992ZM155.421 41.84V48.992L153.693 47.44V43.488L155.421 41.84ZM160.752 57.408L162.4 55.68H166.352L167.904 57.408H160.752ZM160.272 49.552L162 51.216V55.136L160.272 56.704V49.552ZM168.416 56.704L166.688 55.056V51.12L168.416 49.552V56.704ZM162.128 50.128C161.755 49.8293 161.376 49.536 160.992 49.248L162.128 48.4H166.496L167.616 49.248L166.496 50.128H162.128ZM160.736 41.152H167.888L166.304 42.88H162.384L160.736 41.152ZM160.224 48.992V41.84L161.952 43.392V47.36L160.224 48.992ZM168.368 41.84V48.992L166.64 47.44V43.488L168.368 41.84Z" fill="#9CF1A0"/>
        <path d="M34.8376 66.197L33.4466 64.858V61.66L34.8376 60.386V66.197ZM28.5976 53.561H34.4216L33.1476 54.965H29.9366L28.5976 53.561ZM34.7986 54.12V59.931L33.4076 58.67V55.459L34.7986 54.12ZM39.1061 66.769L40.4451 65.365H43.6561L44.9171 66.769H39.1061ZM38.7161 60.386L40.1201 61.738V64.923L38.7161 66.197V60.386ZM45.3331 66.197L43.9291 64.858V61.66L45.3331 60.386V66.197ZM40.2241 60.854C39.9207 60.6113 39.6131 60.373 39.3011 60.139L40.2241 59.45H43.7731L44.6831 60.139L43.7731 60.854H40.2241ZM39.0931 53.561H44.9041L43.6171 54.965H40.4321L39.0931 53.561ZM38.6771 59.931V54.12L40.0811 55.381V58.605L38.6771 59.931ZM47.3525 64.845H48.9905V66.509H47.3525V64.845ZM51.0985 66.769L52.4375 65.365H55.6485L56.9095 66.769H51.0985ZM50.7085 60.386L52.1125 61.738V64.923L50.7085 66.197V60.386ZM52.2165 60.854C51.9131 60.6113 51.6055 60.373 51.2935 60.139L52.2165 59.45H55.7655L56.6755 60.139L55.7655 60.854H52.2165ZM51.0855 53.561H56.8965L55.6095 54.965H52.4245L51.0855 53.561ZM57.2865 54.12V59.931L55.8825 58.67V55.459L57.2865 54.12ZM61.6459 66.769L62.9849 65.365H66.1959L67.4569 66.769H61.6459ZM67.8729 66.197L66.4689 64.858V61.66L67.8729 60.386V66.197ZM62.7639 60.854C62.4606 60.6113 62.1529 60.373 61.8409 60.139L62.7639 59.45H66.3129L67.2229 60.139L66.3129 60.854H62.7639ZM61.6329 53.561H67.4439L66.1569 54.965H62.9719L61.6329 53.561ZM61.2169 59.931V54.12L62.6209 55.381V58.605L61.2169 59.931Z" fill="#87FCFF"/>
        <path d="M9.99388 86.917L10.9209 85.945H13.1439L14.0169 86.917H9.99388ZM9.72388 82.498L10.6959 83.434V85.639L9.72388 86.521V82.498ZM14.3049 86.521L13.3329 85.594V83.38L14.3049 82.498V86.521ZM9.98488 77.773H14.0079L13.1169 78.745H10.9119L9.98488 77.773ZM9.69688 82.183V78.16L10.6689 79.033V81.265L9.69688 82.183ZM14.2779 78.16V82.183L13.3059 81.31V79.087L14.2779 78.16Z" fill="#ABABAB"/>
        <path d="M77.9566 86.521L76.9846 85.594V83.38L77.9566 82.498V86.521ZM77.9296 78.16V82.183L76.9576 81.31V79.087L77.9296 78.16ZM80.9939 86.917L81.9209 85.945H84.1439L85.0169 86.917H80.9939ZM80.7239 82.498L81.6959 83.434V85.639L80.7239 86.521V82.498ZM85.3049 86.521L84.3329 85.594V83.38L85.3049 82.498V86.521ZM80.9849 77.773H85.0079L84.1169 78.745H81.9119L80.9849 77.773ZM80.6969 82.183V78.16L81.6689 79.033V81.265L80.6969 82.183ZM85.2779 78.16V82.183L84.3059 81.31V79.087L85.2779 78.16ZM88.3421 86.917L89.2691 85.945H91.4921L92.3651 86.917H88.3421ZM88.0721 82.498L89.0441 83.434V85.639L88.0721 86.521V82.498ZM92.6531 86.521L91.6811 85.594V83.38L92.6531 82.498V86.521ZM88.3331 77.773H92.3561L91.4651 78.745H89.2601L88.3331 77.773ZM88.0451 82.183V78.16L89.0171 79.033V81.265L88.0451 82.183ZM92.6261 78.16V82.183L91.6541 81.31V79.087L92.6261 78.16Z" fill="#ABABAB"/>
        <path d="M41.9672 82.3125H42.6625L44.1508 86.9492L45.6352 82.3125H46.3305L44.4203 88H43.8734L41.9672 82.3125ZM41.7406 82.3125H42.35L42.4555 85.7812V88H41.7406V82.3125ZM45.9437 82.3125H46.5531V88H45.8383V85.7812L45.9437 82.3125ZM49.75 85.7695H48.5078V85.1562H49.75C49.9844 85.1562 50.1732 85.1094 50.3164 85.0156C50.4622 84.9219 50.5677 84.7917 50.6328 84.625C50.7005 84.4583 50.7344 84.2682 50.7344 84.0547C50.7344 83.8594 50.7005 83.6758 50.6328 83.5039C50.5677 83.332 50.4622 83.194 50.3164 83.0898C50.1732 82.9831 49.9844 82.9297 49.75 82.9297H48.6562V88H47.9375V82.3125H49.75C50.1172 82.3125 50.4271 82.3867 50.6797 82.5352C50.9323 82.6836 51.1237 82.8893 51.2539 83.1523C51.3867 83.4128 51.4531 83.7109 51.4531 84.0469C51.4531 84.4115 51.3867 84.7227 51.2539 84.9805C51.1237 85.2383 50.9323 85.4349 50.6797 85.5703C50.4271 85.7031 50.1172 85.7695 49.75 85.7695ZM55.6109 84.7578V85.3711H53.1461V84.7578H55.6109ZM53.2437 82.3125V88H52.525V82.3125H53.2437ZM56.2477 82.3125V88H55.5289V82.3125H56.2477Z" fill="#87FCFF"/>
        <rect y="103" width="200" height="57" rx="4" fill="#BABAB2"/>
        <path d="M85.6195 148.688V149.465H82.6V148.688H85.6195ZM82.8422 146.312V152H81.8617V146.312H82.8422ZM86.3734 146.312V152H85.3969V146.312H86.3734ZM90.8828 146.312H91.8594V150.113C91.8594 150.546 91.7656 150.908 91.5781 151.199C91.3906 151.491 91.1354 151.711 90.8125 151.859C90.4922 152.005 90.1341 152.078 89.7383 152.078C89.3294 152.078 88.9648 152.005 88.6445 151.859C88.3242 151.711 88.0716 151.491 87.8867 151.199C87.7044 150.908 87.6133 150.546 87.6133 150.113V146.312H88.5898V150.113C88.5898 150.387 88.6367 150.612 88.7305 150.789C88.8242 150.964 88.957 151.092 89.1289 151.176C89.3008 151.259 89.5039 151.301 89.7383 151.301C89.9727 151.301 90.1745 151.259 90.3438 151.176C90.5156 151.092 90.6484 150.964 90.7422 150.789C90.8359 150.612 90.8828 150.387 90.8828 150.113V146.312ZM93.4742 146.312H94.3492L95.9938 150.699L97.6344 146.312H98.5094L96.3375 152H95.6422L93.4742 146.312ZM93.0758 146.312H93.9078L94.0523 150.109V152H93.0758V146.312ZM98.0758 146.312H98.9117V152H97.9313V150.109L98.0758 146.312ZM101.273 146.312V152H100.292V146.312H101.273ZM104.294 152H103.079L103.087 151.223H104.294C104.645 151.223 104.94 151.146 105.177 150.992C105.416 150.839 105.596 150.618 105.716 150.332C105.838 150.046 105.899 149.704 105.899 149.309V149C105.899 148.693 105.864 148.421 105.794 148.184C105.726 147.947 105.624 147.747 105.489 147.586C105.356 147.424 105.192 147.302 104.997 147.219C104.804 147.135 104.582 147.094 104.329 147.094H103.055V146.312H104.329C104.707 146.312 105.052 146.376 105.364 146.504C105.677 146.629 105.946 146.81 106.173 147.047C106.402 147.284 106.578 147.568 106.7 147.898C106.822 148.229 106.884 148.599 106.884 149.008V149.309C106.884 149.717 106.822 150.087 106.7 150.418C106.578 150.749 106.402 151.033 106.173 151.27C105.943 151.504 105.67 151.685 105.352 151.812C105.037 151.938 104.684 152 104.294 152ZM103.622 146.312V152H102.641V146.312H103.622ZM109.065 146.312V152H108.084V146.312H109.065ZM112.656 146.312V152H111.684V146.312H112.656ZM114.441 146.312V147.094H109.914V146.312H114.441ZM115.947 146.312L117.267 149.027L118.588 146.312H119.673L117.759 149.906V152H116.771V149.906L114.857 146.312H115.947Z" fill="#444444"/>
        <path d="M13.2393 148.189V149.816C13.2393 150.596 13.1618 151.261 13.0068 151.812C12.8564 152.359 12.6377 152.804 12.3506 153.146C12.0635 153.487 11.7194 153.738 11.3184 153.897C10.9219 154.057 10.4775 154.137 9.98535 154.137C9.59342 154.137 9.22884 154.087 8.8916 153.986C8.55892 153.886 8.25814 153.729 7.98926 153.515C7.72038 153.3 7.49023 153.025 7.29883 152.688C7.11198 152.346 6.96615 151.938 6.86133 151.464C6.76107 150.99 6.71094 150.441 6.71094 149.816V148.189C6.71094 147.406 6.78841 146.745 6.94336 146.207C7.09831 145.665 7.31934 145.225 7.60645 144.888C7.89355 144.546 8.23535 144.298 8.63184 144.143C9.03288 143.988 9.47949 143.91 9.97168 143.91C10.3682 143.91 10.7327 143.96 11.0654 144.061C11.4027 144.156 11.7035 144.309 11.9678 144.519C12.2367 144.728 12.4645 145.002 12.6514 145.339C12.8428 145.672 12.9886 146.075 13.0889 146.549C13.1891 147.018 13.2393 147.565 13.2393 148.189ZM11.5918 150.049V147.943C11.5918 147.547 11.569 147.198 11.5234 146.897C11.4779 146.592 11.4095 146.335 11.3184 146.125C11.2318 145.911 11.1224 145.738 10.9902 145.605C10.8581 145.469 10.7077 145.371 10.5391 145.312C10.3704 145.248 10.1813 145.216 9.97168 145.216C9.71647 145.216 9.48861 145.266 9.28809 145.366C9.08757 145.462 8.91895 145.617 8.78223 145.831C8.64551 146.045 8.54069 146.328 8.46777 146.679C8.39941 147.025 8.36523 147.447 8.36523 147.943V150.049C8.36523 150.45 8.38802 150.803 8.43359 151.108C8.47917 151.414 8.54753 151.676 8.63867 151.895C8.72982 152.109 8.83919 152.286 8.9668 152.428C9.09896 152.564 9.24935 152.665 9.41797 152.729C9.59115 152.792 9.78027 152.824 9.98535 152.824C10.2451 152.824 10.4753 152.774 10.6758 152.674C10.8763 152.574 11.0449 152.414 11.1816 152.195C11.3184 151.972 11.4209 151.683 11.4893 151.327C11.5576 150.972 11.5918 150.546 11.5918 150.049Z" fill="#444444"/>
        <path d="M94.6865 115.278H95.6709C96.0537 115.278 96.3704 115.212 96.6211 115.08C96.8763 114.948 97.0654 114.766 97.1885 114.533C97.3115 114.301 97.373 114.034 97.373 113.733C97.373 113.419 97.3161 113.15 97.2021 112.927C97.0928 112.699 96.9242 112.523 96.6963 112.4C96.473 112.277 96.1882 112.216 95.8418 112.216C95.5501 112.216 95.2858 112.275 95.0488 112.394C94.8164 112.507 94.6318 112.672 94.4951 112.886C94.3584 113.095 94.29 113.346 94.29 113.638H92.6357C92.6357 113.109 92.7747 112.64 93.0527 112.229C93.3307 111.819 93.709 111.498 94.1875 111.266C94.6706 111.029 95.2129 110.91 95.8145 110.91C96.457 110.91 97.0176 111.017 97.4961 111.231C97.9792 111.441 98.3551 111.756 98.624 112.175C98.8929 112.594 99.0273 113.114 99.0273 113.733C99.0273 114.016 98.9613 114.303 98.8291 114.595C98.6969 114.886 98.501 115.153 98.2412 115.395C97.9814 115.632 97.6579 115.825 97.2705 115.976C96.8831 116.121 96.4342 116.194 95.9238 116.194H94.6865V115.278ZM94.6865 116.563V115.661H95.9238C96.5072 115.661 97.0039 115.729 97.4141 115.866C97.8288 116.003 98.166 116.192 98.4258 116.434C98.6855 116.671 98.8747 116.942 98.9932 117.247C99.1162 117.552 99.1777 117.876 99.1777 118.218C99.1777 118.683 99.0934 119.097 98.9248 119.462C98.7607 119.822 98.526 120.127 98.2207 120.378C97.9154 120.629 97.5576 120.818 97.1475 120.945C96.7419 121.073 96.2998 121.137 95.8213 121.137C95.3929 121.137 94.9827 121.077 94.5908 120.959C94.1989 120.84 93.848 120.665 93.5381 120.433C93.2282 120.196 92.9821 119.902 92.7998 119.551C92.6221 119.195 92.5332 118.785 92.5332 118.32H94.1807C94.1807 118.617 94.249 118.879 94.3857 119.106C94.527 119.33 94.723 119.505 94.9736 119.633C95.2288 119.76 95.5205 119.824 95.8486 119.824C96.195 119.824 96.4935 119.763 96.7441 119.64C96.9948 119.517 97.1862 119.334 97.3184 119.093C97.4551 118.851 97.5234 118.56 97.5234 118.218C97.5234 117.83 97.4482 117.516 97.2979 117.274C97.1475 117.033 96.9333 116.855 96.6553 116.741C96.3773 116.623 96.0492 116.563 95.6709 116.563H94.6865ZM107.217 118.286C107.217 118.906 107.073 119.428 106.786 119.852C106.499 120.275 106.107 120.597 105.61 120.815C105.118 121.03 104.562 121.137 103.942 121.137C103.323 121.137 102.764 121.03 102.268 120.815C101.771 120.597 101.379 120.275 101.092 119.852C100.805 119.428 100.661 118.906 100.661 118.286C100.661 117.876 100.741 117.505 100.9 117.172C101.06 116.835 101.285 116.545 101.577 116.304C101.873 116.058 102.22 115.868 102.616 115.736C103.017 115.604 103.455 115.538 103.929 115.538C104.558 115.538 105.12 115.654 105.617 115.887C106.114 116.119 106.504 116.44 106.786 116.851C107.073 117.261 107.217 117.739 107.217 118.286ZM105.562 118.204C105.562 117.871 105.494 117.58 105.357 117.329C105.221 117.078 105.029 116.885 104.783 116.748C104.537 116.611 104.252 116.543 103.929 116.543C103.601 116.543 103.316 116.611 103.074 116.748C102.833 116.885 102.644 117.078 102.507 117.329C102.375 117.58 102.309 117.871 102.309 118.204C102.309 118.541 102.375 118.833 102.507 119.079C102.639 119.321 102.828 119.505 103.074 119.633C103.32 119.76 103.61 119.824 103.942 119.824C104.275 119.824 104.562 119.76 104.804 119.633C105.045 119.505 105.232 119.321 105.364 119.079C105.496 118.833 105.562 118.541 105.562 118.204ZM106.991 113.665C106.991 114.162 106.859 114.604 106.595 114.991C106.335 115.379 105.975 115.684 105.515 115.907C105.054 116.126 104.53 116.235 103.942 116.235C103.35 116.235 102.821 116.126 102.356 115.907C101.896 115.684 101.534 115.379 101.27 114.991C101.01 114.604 100.88 114.162 100.88 113.665C100.88 113.073 101.01 112.574 101.27 112.168C101.534 111.758 101.896 111.446 102.356 111.231C102.817 111.017 103.343 110.91 103.936 110.91C104.528 110.91 105.054 111.017 105.515 111.231C105.975 111.446 106.335 111.758 106.595 112.168C106.859 112.574 106.991 113.073 106.991 113.665ZM105.344 113.72C105.344 113.424 105.285 113.164 105.166 112.94C105.052 112.713 104.89 112.535 104.681 112.407C104.471 112.28 104.223 112.216 103.936 112.216C103.648 112.216 103.4 112.277 103.19 112.4C102.981 112.523 102.819 112.697 102.705 112.92C102.591 113.143 102.534 113.41 102.534 113.72C102.534 114.025 102.591 114.292 102.705 114.52C102.819 114.743 102.981 114.918 103.19 115.046C103.405 115.174 103.655 115.237 103.942 115.237C104.229 115.237 104.478 115.174 104.688 115.046C104.897 114.918 105.059 114.743 105.173 114.52C105.287 114.292 105.344 114.025 105.344 113.72Z" fill="#444444"/>
        <path d="M175.379 144.013V154H173.731V145.968L171.291 146.795V145.435L175.181 144.013H175.379ZM185.325 148.189V149.816C185.325 150.596 185.248 151.261 185.093 151.812C184.942 152.359 184.724 152.804 184.437 153.146C184.149 153.487 183.805 153.738 183.404 153.897C183.008 154.057 182.563 154.137 182.071 154.137C181.679 154.137 181.315 154.087 180.978 153.986C180.645 153.886 180.344 153.729 180.075 153.515C179.806 153.3 179.576 153.025 179.385 152.688C179.198 152.346 179.052 151.938 178.947 151.464C178.847 150.99 178.797 150.441 178.797 149.816V148.189C178.797 147.406 178.874 146.745 179.029 146.207C179.184 145.665 179.405 145.225 179.692 144.888C179.979 144.546 180.321 144.298 180.718 144.143C181.119 143.988 181.565 143.91 182.058 143.91C182.454 143.91 182.819 143.96 183.151 144.061C183.489 144.156 183.789 144.309 184.054 144.519C184.323 144.728 184.55 145.002 184.737 145.339C184.929 145.672 185.075 146.075 185.175 146.549C185.275 147.018 185.325 147.565 185.325 148.189ZM183.678 150.049V147.943C183.678 147.547 183.655 147.198 183.609 146.897C183.564 146.592 183.495 146.335 183.404 146.125C183.318 145.911 183.208 145.738 183.076 145.605C182.944 145.469 182.794 145.371 182.625 145.312C182.456 145.248 182.267 145.216 182.058 145.216C181.802 145.216 181.575 145.266 181.374 145.366C181.174 145.462 181.005 145.617 180.868 145.831C180.731 146.045 180.627 146.328 180.554 146.679C180.485 147.025 180.451 147.447 180.451 147.943V150.049C180.451 150.45 180.474 150.803 180.52 151.108C180.565 151.414 180.633 151.676 180.725 151.895C180.816 152.109 180.925 152.286 181.053 152.428C181.185 152.564 181.335 152.665 181.504 152.729C181.677 152.792 181.866 152.824 182.071 152.824C182.331 152.824 182.561 152.774 182.762 152.674C182.962 152.574 183.131 152.414 183.268 152.195C183.404 151.972 183.507 151.683 183.575 151.327C183.644 150.972 183.678 150.546 183.678 150.049ZM193.282 148.189V149.816C193.282 150.596 193.205 151.261 193.05 151.812C192.899 152.359 192.681 152.804 192.394 153.146C192.106 153.487 191.762 153.738 191.361 153.897C190.965 154.057 190.521 154.137 190.028 154.137C189.636 154.137 189.272 154.087 188.935 153.986C188.602 153.886 188.301 153.729 188.032 153.515C187.763 153.3 187.533 153.025 187.342 152.688C187.155 152.346 187.009 151.938 186.904 151.464C186.804 150.99 186.754 150.441 186.754 149.816V148.189C186.754 147.406 186.831 146.745 186.986 146.207C187.141 145.665 187.362 145.225 187.649 144.888C187.937 144.546 188.278 144.298 188.675 144.143C189.076 143.988 189.522 143.91 190.015 143.91C190.411 143.91 190.776 143.96 191.108 144.061C191.446 144.156 191.746 144.309 192.011 144.519C192.28 144.728 192.507 145.002 192.694 145.339C192.886 145.672 193.032 146.075 193.132 146.549C193.232 147.018 193.282 147.565 193.282 148.189ZM191.635 150.049V147.943C191.635 147.547 191.612 147.198 191.566 146.897C191.521 146.592 191.452 146.335 191.361 146.125C191.275 145.911 191.165 145.738 191.033 145.605C190.901 145.469 190.751 145.371 190.582 145.312C190.413 145.248 190.224 145.216 190.015 145.216C189.759 145.216 189.532 145.266 189.331 145.366C189.131 145.462 188.962 145.617 188.825 145.831C188.688 146.045 188.584 146.328 188.511 146.679C188.442 147.025 188.408 147.447 188.408 147.943V150.049C188.408 150.45 188.431 150.803 188.477 151.108C188.522 151.414 188.59 151.676 188.682 151.895C188.773 152.109 188.882 152.286 189.01 152.428C189.142 152.564 189.292 152.665 189.461 152.729C189.634 152.792 189.823 152.824 190.028 152.824C190.288 152.824 190.518 152.774 190.719 152.674C190.919 152.574 191.088 152.414 191.225 152.195C191.361 151.972 191.464 151.683 191.532 151.327C191.601 150.972 191.635 150.546 191.635 150.049Z" fill="#444444"/>
        <rect x="6" y="125" width="188" height="16" fill="#A3A39C"/>
        <rect x="6" y="125" width="66" height="16" fill="#444444"/>
    </g>
    <defs>
        <clipPath id="clip0_3_27742">
            <rect width="200" height="160" fill="white"/>
        </clipPath>
    </defs>
</svg>
