<svg width="200" height="160" viewBox="0 0 200 160" fill="none" xmlns="http://www.w3.org/2000/svg">
<g clip-path="url(#clip0_18293_14076)">
<rect width="200" height="160" rx="4" fill="white"/>
<rect x="0.5" y="0.5" width="199" height="159" rx="3.5" stroke="black" stroke-opacity="0.12"/>
<path d="M182.917 17.8335H182.083V19.9168H184.167V19.0835H182.917V17.8335ZM182.083 16.1668H182.917V14.9168H184.167V14.0835H182.083V16.1668ZM187.083 19.0835H185.833V19.9168H187.917V17.8335H187.083V19.0835ZM185.833 14.0835V14.9168H187.083V16.1668H187.917V14.0835H185.833Z" fill="black" fill-opacity="0.76"/>
<path d="M13.1626 21.5C12.9626 21.5 12.7876 21.425 12.6376 21.275C12.4876 21.125 12.4126 20.95 12.4126 20.75V18.1625C12.4126 17.9625 12.4876 17.7875 12.6376 17.6375C12.7876 17.4875 12.9626 17.4125 13.1626 17.4125H18.9376V15.2H19.6876V17.4125H20.9876C21.1876 17.4125 21.3626 17.4875 21.5126 17.6375C21.6626 17.7875 21.7376 17.9625 21.7376 18.1625V20.75C21.7376 20.95 21.6626 21.125 21.5126 21.275C21.3626 21.425 21.1876 21.5 20.9876 21.5H13.1626ZM14.8876 19.4612C14.8876 19.3121 14.8372 19.1875 14.7363 19.0875C14.6354 18.9875 14.5104 18.9375 14.3613 18.9375C14.2122 18.9375 14.0876 18.9879 13.9876 19.0888C13.8876 19.1897 13.8376 19.3147 13.8376 19.4638C13.8376 19.6129 13.888 19.7375 13.9889 19.8375C14.0898 19.9375 14.2148 19.9875 14.3639 19.9875C14.513 19.9875 14.6376 19.9371 14.7376 19.8362C14.8376 19.7353 14.8876 19.6103 14.8876 19.4612ZM16.7376 19.4612C16.7376 19.3121 16.6872 19.1875 16.5863 19.0875C16.4854 18.9875 16.3604 18.9375 16.2113 18.9375C16.0622 18.9375 15.9376 18.9879 15.8376 19.0888C15.7376 19.1897 15.6876 19.3147 15.6876 19.4638C15.6876 19.6129 15.738 19.7375 15.8389 19.8375C15.9398 19.9375 16.0648 19.9875 16.2139 19.9875C16.363 19.9875 16.4876 19.9371 16.5876 19.8362C16.6876 19.7353 16.7376 19.6103 16.7376 19.4612ZM18.0639 19.9875C18.213 19.9875 18.3376 19.9371 18.4376 19.8362C18.5376 19.7353 18.5876 19.6103 18.5876 19.4612C18.5876 19.3121 18.5372 19.1875 18.4363 19.0875C18.3354 18.9875 18.2104 18.9375 18.0613 18.9375C17.9122 18.9375 17.7876 18.9879 17.6876 19.0888C17.5876 19.1897 17.5376 19.3147 17.5376 19.4638C17.5376 19.6129 17.588 19.7375 17.6889 19.8375C17.7898 19.9375 17.9148 19.9875 18.0639 19.9875ZM18.3126 14.6625L17.8001 14.15C18.0001 13.95 18.2269 13.7917 18.4805 13.675C18.7341 13.5583 19.0115 13.5 19.3126 13.5C19.6137 13.5 19.8911 13.5583 20.1447 13.675C20.3983 13.7917 20.6251 13.95 20.8251 14.15L20.3126 14.6625C20.1959 14.5458 20.0501 14.4479 19.8751 14.3688C19.7001 14.2896 19.5147 14.25 19.3188 14.25C19.123 14.25 18.9355 14.2896 18.7563 14.3688C18.5772 14.4479 18.4293 14.5458 18.3126 14.6625ZM17.2501 13.6L16.7001 13.05C16.9751 12.775 17.3418 12.5312 17.8001 12.3187C18.2584 12.1063 18.7626 12 19.3126 12C19.8626 12 20.3668 12.1063 20.8251 12.3187C21.2834 12.5312 21.6501 12.775 21.9251 13.05L21.3751 13.6C21.1584 13.3583 20.873 13.1562 20.5188 12.9938C20.1647 12.8313 19.7626 12.75 19.3126 12.75C18.8626 12.75 18.4605 12.8313 18.1063 12.9938C17.7522 13.1562 17.4668 13.3583 17.2501 13.6Z" fill="black" fill-opacity="0.76"/>
<path d="M28.0002 59.9167V58.25H23.8335V65.75H32.1668V59.9167H28.0002ZM25.5002 64.9167H24.6668V64.0833H25.5002V64.9167ZM25.5002 63.25H24.6668V62.4167H25.5002V63.25ZM25.5002 61.5833H24.6668V60.75H25.5002V61.5833ZM25.5002 59.9167H24.6668V59.0833H25.5002V59.9167ZM27.1668 64.9167H26.3335V64.0833H27.1668V64.9167ZM27.1668 63.25H26.3335V62.4167H27.1668V63.25ZM27.1668 61.5833H26.3335V60.75H27.1668V61.5833ZM27.1668 59.9167H26.3335V59.0833H27.1668V59.9167ZM31.3335 64.9167H28.0002V64.0833H28.8335V63.25H28.0002V62.4167H28.8335V61.5833H28.0002V60.75H31.3335V64.9167ZM30.5002 61.5833H29.6668V62.4167H30.5002V61.5833ZM30.5002 63.25H29.6668V64.0833H30.5002V63.25Z" fill="black" fill-opacity="0.76"/>
<path d="M24.6667 71.9165C24.6667 71.6873 24.8542 71.4998 25.0833 71.4998H31.75C31.9792 71.4998 32.1667 71.3123 32.1667 71.0832C32.1667 70.854 31.9792 70.6665 31.75 70.6665H24.6667C24.2083 70.6665 23.8333 71.0415 23.8333 71.4998V76.0832H23.625C23.2792 76.0832 23 76.3623 23 76.7082C23 77.054 23.2792 77.3332 23.625 77.3332H28.8333V76.0832H24.6667V71.9165ZM32.5833 72.3332H30.0833C29.8542 72.3332 29.6667 72.5207 29.6667 72.7498V76.9165C29.6667 77.1457 29.8542 77.3332 30.0833 77.3332H32.5833C32.8125 77.3332 33 77.1457 33 76.9165V72.7498C33 72.5207 32.8125 72.3332 32.5833 72.3332ZM32.1667 76.0832H30.5V73.1665H32.1667V76.0832Z" fill="black" fill-opacity="0.76"/>
<path d="M31.75 84.0835V86.7918H26.8875V84.0835H31.75ZM29.1125 89.9168V87.2085H26.8875V89.9168H29.1125ZM29.5292 87.2085V89.9168H31.75V87.2085H29.5292ZM26.4708 89.9168V84.0835H24.25V89.9168H26.4708Z" fill="black" fill-opacity="0.76"/>
<path d="M24.25 99.4167H27.5833V95.25H24.25V99.4167ZM24.25 102.75H27.5833V100.25H24.25V102.75ZM28.4167 102.75H31.75V98.5833H28.4167V102.75ZM28.4167 95.25V97.75H31.75V95.25H28.4167Z" fill="black" fill-opacity="0.76"/>
<path d="M26.2376 109.817L25.596 109.283L23.3418 112L25.596 114.717L26.2376 114.183L24.4251 112L26.2376 109.817ZM25.9168 112.417H26.7501V111.583H25.9168V112.417ZM30.0835 111.583H29.2501V112.417H30.0835V111.583ZM27.5835 112.417H28.4168V111.583H27.5835V112.417ZM30.4043 109.283L29.7626 109.817L31.5751 112L29.7626 114.183L30.4043 114.717L32.6585 112L30.4043 109.283Z" fill="black" fill-opacity="0.76"/>
<path d="M29.2734 19.3867V20H26.2617V19.3867H29.2734ZM26.4141 14.3125V20H25.6602V14.3125H26.4141ZM28.875 16.7578V17.3711H26.2617V16.7578H28.875ZM29.2344 14.3125V14.9297H26.2617V14.3125H29.2344ZM32.8086 19.1797V14H33.5352V20H32.8711L32.8086 19.1797ZM29.9648 17.9336V17.8516C29.9648 17.5286 30.0039 17.2357 30.082 16.9727C30.1628 16.707 30.276 16.4792 30.4219 16.2891C30.5703 16.099 30.7461 15.9531 30.9492 15.8516C31.1549 15.7474 31.3841 15.6953 31.6367 15.6953C31.9023 15.6953 32.1341 15.7422 32.332 15.8359C32.5326 15.9271 32.7018 16.0612 32.8398 16.2383C32.9805 16.4128 33.0911 16.6237 33.1719 16.8711C33.2526 17.1185 33.3086 17.3984 33.3398 17.7109V18.0703C33.3112 18.3802 33.2552 18.6589 33.1719 18.9062C33.0911 19.1536 32.9805 19.3646 32.8398 19.5391C32.7018 19.7135 32.5326 19.8477 32.332 19.9414C32.1315 20.0326 31.8971 20.0781 31.6289 20.0781C31.3815 20.0781 31.1549 20.0247 30.9492 19.918C30.7461 19.8112 30.5703 19.6615 30.4219 19.4688C30.276 19.276 30.1628 19.0495 30.082 18.7891C30.0039 18.526 29.9648 18.2409 29.9648 17.9336ZM30.6914 17.8516V17.9336C30.6914 18.1445 30.7122 18.3424 30.7539 18.5273C30.7982 18.7122 30.8659 18.875 30.957 19.0156C31.0482 19.1562 31.1641 19.2669 31.3047 19.3477C31.4453 19.4258 31.6133 19.4648 31.8086 19.4648C32.0482 19.4648 32.2448 19.4141 32.3984 19.3125C32.5547 19.2109 32.6797 19.0768 32.7734 18.9102C32.8672 18.7435 32.9401 18.5625 32.9922 18.3672V17.4258C32.9609 17.2826 32.9154 17.1445 32.8555 17.0117C32.7982 16.8763 32.7227 16.7565 32.6289 16.6523C32.5378 16.5456 32.4245 16.4609 32.2891 16.3984C32.1562 16.3359 31.9987 16.3047 31.8164 16.3047C31.6185 16.3047 31.4479 16.3464 31.3047 16.4297C31.1641 16.5104 31.0482 16.6224 30.957 16.7656C30.8659 16.9062 30.7982 17.0703 30.7539 17.2578C30.7122 17.4427 30.6914 17.6406 30.6914 17.8516ZM37.5234 15.7734H38.1797V19.9102C38.1797 20.2826 38.1042 20.6003 37.9531 20.8633C37.8021 21.1263 37.5911 21.3255 37.3203 21.4609C37.0521 21.599 36.7422 21.668 36.3906 21.668C36.2448 21.668 36.0729 21.6445 35.875 21.5977C35.6797 21.5534 35.487 21.4766 35.2969 21.3672C35.1094 21.2604 34.9518 21.1159 34.8242 20.9336L35.2031 20.5039C35.3802 20.7174 35.5651 20.8659 35.7578 20.9492C35.9531 21.0326 36.1458 21.0742 36.3359 21.0742C36.5651 21.0742 36.763 21.0312 36.9297 20.9453C37.0964 20.8594 37.2253 20.7318 37.3164 20.5625C37.4102 20.3958 37.457 20.1901 37.457 19.9453V16.7031L37.5234 15.7734ZM34.6133 17.9336V17.8516C34.6133 17.5286 34.651 17.2357 34.7266 16.9727C34.8047 16.707 34.9154 16.4792 35.0586 16.2891C35.2044 16.099 35.3802 15.9531 35.5859 15.8516C35.7917 15.7474 36.0234 15.6953 36.2812 15.6953C36.5469 15.6953 36.7786 15.7422 36.9766 15.8359C37.1771 15.9271 37.3464 16.0612 37.4844 16.2383C37.625 16.4128 37.7357 16.6237 37.8164 16.8711C37.8971 17.1185 37.9531 17.3984 37.9844 17.7109V18.0703C37.9557 18.3802 37.8997 18.6589 37.8164 18.9062C37.7357 19.1536 37.625 19.3646 37.4844 19.5391C37.3464 19.7135 37.1771 19.8477 36.9766 19.9414C36.776 20.0326 36.5417 20.0781 36.2734 20.0781C36.0208 20.0781 35.7917 20.0247 35.5859 19.918C35.3828 19.8112 35.2083 19.6615 35.0625 19.4688C34.9167 19.276 34.8047 19.0495 34.7266 18.7891C34.651 18.526 34.6133 18.2409 34.6133 17.9336ZM35.3359 17.8516V17.9336C35.3359 18.1445 35.3568 18.3424 35.3984 18.5273C35.4427 18.7122 35.5091 18.875 35.5977 19.0156C35.6888 19.1562 35.8047 19.2669 35.9453 19.3477C36.0859 19.4258 36.2539 19.4648 36.4492 19.4648C36.6888 19.4648 36.8867 19.4141 37.043 19.3125C37.1992 19.2109 37.3229 19.0768 37.4141 18.9102C37.5078 18.7435 37.5807 18.5625 37.6328 18.3672V17.4258C37.6042 17.2826 37.5599 17.1445 37.5 17.0117C37.4427 16.8763 37.3672 16.7565 37.2734 16.6523C37.1823 16.5456 37.069 16.4609 36.9336 16.3984C36.7982 16.3359 36.6393 16.3047 36.457 16.3047C36.2591 16.3047 36.0885 16.3464 35.9453 16.4297C35.8047 16.5104 35.6888 16.6224 35.5977 16.7656C35.5091 16.9062 35.4427 17.0703 35.3984 17.2578C35.3568 17.4427 35.3359 17.6406 35.3359 17.8516ZM41.1562 20.0781C40.862 20.0781 40.5951 20.0286 40.3555 19.9297C40.1185 19.8281 39.9141 19.6862 39.7422 19.5039C39.5729 19.3216 39.4427 19.1055 39.3516 18.8555C39.2604 18.6055 39.2148 18.332 39.2148 18.0352V17.8711C39.2148 17.5273 39.2656 17.2214 39.3672 16.9531C39.4688 16.6823 39.6068 16.4531 39.7812 16.2656C39.9557 16.0781 40.1536 15.9362 40.375 15.8398C40.5964 15.7435 40.8255 15.6953 41.0625 15.6953C41.3646 15.6953 41.625 15.7474 41.8438 15.8516C42.0651 15.9557 42.2461 16.1016 42.3867 16.2891C42.5273 16.474 42.6315 16.6927 42.6992 16.9453C42.7669 17.1953 42.8008 17.4688 42.8008 17.7656V18.0898H39.6445V17.5H42.0781V17.4453C42.0677 17.2578 42.0286 17.0755 41.9609 16.8984C41.8958 16.7214 41.7917 16.5755 41.6484 16.4609C41.5052 16.3464 41.3099 16.2891 41.0625 16.2891C40.8984 16.2891 40.7474 16.3242 40.6094 16.3945C40.4714 16.4622 40.3529 16.5638 40.2539 16.6992C40.1549 16.8346 40.0781 17 40.0234 17.1953C39.9688 17.3906 39.9414 17.6159 39.9414 17.8711V18.0352C39.9414 18.2357 39.9688 18.4245 40.0234 18.6016C40.0807 18.776 40.1628 18.9297 40.2695 19.0625C40.3789 19.1953 40.5104 19.2995 40.6641 19.375C40.8203 19.4505 40.9974 19.4883 41.1953 19.4883C41.4505 19.4883 41.6667 19.4362 41.8438 19.332C42.0208 19.2279 42.1758 19.0885 42.3086 18.9141L42.7461 19.2617C42.6549 19.3997 42.5391 19.5312 42.3984 19.6562C42.2578 19.7812 42.0846 19.8828 41.8789 19.9609C41.6758 20.0391 41.4349 20.0781 41.1562 20.0781ZM46.418 20L47.5234 14.3125H48.0859L46.9766 20H46.418ZM48.0078 20L49.1172 14.3125H49.6758L48.5664 20H48.0078ZM50.1523 16.4805H46.0898V15.9375H50.1523V16.4805ZM49.8594 18.3984H45.793V17.8594H49.8594V18.3984ZM53.2305 14.2812V20H52.5078V15.1836L51.0508 15.7148V15.0625L53.1172 14.2812H53.2305ZM60.6953 19.3477L62.1406 20.4922L61.6328 20.9609L60.2109 19.832L60.6953 19.3477ZM62.1211 16.9766V17.3359C62.1211 17.763 62.0677 18.1458 61.9609 18.4844C61.8542 18.8229 61.7005 19.1107 61.5 19.3477C61.2995 19.5846 61.0586 19.7656 60.7773 19.8906C60.4987 20.0156 60.1862 20.0781 59.8398 20.0781C59.5039 20.0781 59.1953 20.0156 58.9141 19.8906C58.6354 19.7656 58.3932 19.5846 58.1875 19.3477C57.9844 19.1107 57.8268 18.8229 57.7148 18.4844C57.6029 18.1458 57.5469 17.763 57.5469 17.3359V16.9766C57.5469 16.5495 57.6016 16.168 57.7109 15.832C57.8229 15.4935 57.9805 15.2057 58.1836 14.9688C58.3867 14.7292 58.6276 14.5469 58.9062 14.4219C59.1875 14.2969 59.4961 14.2344 59.832 14.2344C60.1784 14.2344 60.4922 14.2969 60.7734 14.4219C61.0547 14.5469 61.2956 14.7292 61.4961 14.9688C61.6966 15.2057 61.8503 15.4935 61.957 15.832C62.0664 16.168 62.1211 16.5495 62.1211 16.9766ZM61.375 17.3359V16.9688C61.375 16.6302 61.3398 16.3307 61.2695 16.0703C61.2018 15.8099 61.1016 15.5911 60.9688 15.4141C60.8359 15.237 60.6745 15.1029 60.4844 15.0117C60.2943 14.9206 60.0768 14.875 59.832 14.875C59.6003 14.875 59.3893 14.9206 59.1992 15.0117C59.0117 15.1029 58.8503 15.237 58.7148 15.4141C58.5794 15.5911 58.4753 15.8099 58.4023 16.0703C58.3294 16.3307 58.293 16.6302 58.293 16.9688V17.3359C58.293 17.6771 58.3294 17.9792 58.4023 18.2422C58.4753 18.5026 58.5794 18.7227 58.7148 18.9023C58.8529 19.0794 59.0169 19.2135 59.207 19.3047C59.3971 19.3958 59.6081 19.4414 59.8398 19.4414C60.0846 19.4414 60.3021 19.3958 60.4922 19.3047C60.6823 19.2135 60.8424 19.0794 60.9727 18.9023C61.1055 18.7227 61.2057 18.5026 61.2734 18.2422C61.3411 17.9792 61.375 17.6771 61.375 17.3359ZM65.8867 19.0234V15.7734H66.6133V20H65.9219L65.8867 19.0234ZM66.0234 18.1328L66.3242 18.125C66.3242 18.4062 66.2943 18.6667 66.2344 18.9062C66.1771 19.1432 66.0833 19.349 65.9531 19.5234C65.8229 19.6979 65.6523 19.8346 65.4414 19.9336C65.2305 20.0299 64.974 20.0781 64.6719 20.0781C64.4661 20.0781 64.2773 20.0482 64.1055 19.9883C63.9362 19.9284 63.7904 19.8359 63.668 19.7109C63.5456 19.5859 63.4505 19.4232 63.3828 19.2227C63.3177 19.0221 63.2852 18.7812 63.2852 18.5V15.7734H64.0078V18.5078C64.0078 18.6979 64.0286 18.8555 64.0703 18.9805C64.1146 19.1029 64.1732 19.2005 64.2461 19.2734C64.3216 19.3438 64.4049 19.3932 64.4961 19.4219C64.5898 19.4505 64.6862 19.4648 64.7852 19.4648C65.0924 19.4648 65.3359 19.4062 65.5156 19.2891C65.6953 19.1693 65.8242 19.0091 65.9023 18.8086C65.9831 18.6055 66.0234 18.3802 66.0234 18.1328ZM68.625 15.7734V20H67.8984V15.7734H68.625ZM67.8438 14.6523C67.8438 14.5352 67.8789 14.4362 67.9492 14.3555C68.0221 14.2747 68.1289 14.2344 68.2695 14.2344C68.4076 14.2344 68.513 14.2747 68.5859 14.3555C68.6615 14.4362 68.6992 14.5352 68.6992 14.6523C68.6992 14.7643 68.6615 14.8607 68.5859 14.9414C68.513 15.0195 68.4076 15.0586 68.2695 15.0586C68.1289 15.0586 68.0221 15.0195 67.9492 14.9414C67.8789 14.8607 67.8438 14.7643 67.8438 14.6523ZM71.6016 19.4844C71.7734 19.4844 71.9323 19.4492 72.0781 19.3789C72.224 19.3086 72.3438 19.2122 72.4375 19.0898C72.5312 18.9648 72.5846 18.8229 72.5977 18.6641H73.2852C73.2721 18.9141 73.1875 19.1471 73.0312 19.3633C72.8776 19.5768 72.6758 19.75 72.4258 19.8828C72.1758 20.013 71.901 20.0781 71.6016 20.0781C71.2839 20.0781 71.0065 20.0221 70.7695 19.9102C70.5352 19.7982 70.3398 19.6445 70.1836 19.4492C70.0299 19.2539 69.9141 19.0299 69.8359 18.7773C69.7604 18.5221 69.7227 18.2526 69.7227 17.9688V17.8047C69.7227 17.5208 69.7604 17.2526 69.8359 17C69.9141 16.7448 70.0299 16.5195 70.1836 16.3242C70.3398 16.1289 70.5352 15.9753 70.7695 15.8633C71.0065 15.7513 71.2839 15.6953 71.6016 15.6953C71.9323 15.6953 72.2214 15.763 72.4688 15.8984C72.7161 16.0312 72.9102 16.2135 73.0508 16.4453C73.194 16.6745 73.2721 16.9349 73.2852 17.2266H72.5977C72.5846 17.0521 72.5352 16.8945 72.4492 16.7539C72.3659 16.6133 72.2513 16.5013 72.1055 16.418C71.9622 16.332 71.7943 16.2891 71.6016 16.2891C71.3802 16.2891 71.194 16.3333 71.043 16.4219C70.8945 16.5078 70.776 16.625 70.6875 16.7734C70.6016 16.9193 70.5391 17.082 70.5 17.2617C70.4635 17.4388 70.4453 17.6198 70.4453 17.8047V17.9688C70.4453 18.1536 70.4635 18.3359 70.5 18.5156C70.5365 18.6953 70.5977 18.8581 70.6836 19.0039C70.7721 19.1497 70.8906 19.2669 71.0391 19.3555C71.1901 19.4414 71.3776 19.4844 71.6016 19.4844ZM74.9492 14V20H74.2227V14H74.9492ZM77.5312 15.7734L75.6875 17.7461L74.6562 18.8164L74.5977 18.0469L75.3359 17.1641L76.6484 15.7734H77.5312ZM76.8711 20L75.3633 17.9844L75.7383 17.3398L77.7227 20H76.8711ZM85 16.9766V17.3359C85 17.763 84.9466 18.1458 84.8398 18.4844C84.7331 18.8229 84.5794 19.1107 84.3789 19.3477C84.1784 19.5846 83.9375 19.7656 83.6562 19.8906C83.3776 20.0156 83.0651 20.0781 82.7188 20.0781C82.3828 20.0781 82.0742 20.0156 81.793 19.8906C81.5143 19.7656 81.2721 19.5846 81.0664 19.3477C80.8633 19.1107 80.7057 18.8229 80.5938 18.4844C80.4818 18.1458 80.4258 17.763 80.4258 17.3359V16.9766C80.4258 16.5495 80.4805 16.168 80.5898 15.832C80.7018 15.4935 80.8594 15.2057 81.0625 14.9688C81.2656 14.7292 81.5065 14.5469 81.7852 14.4219C82.0664 14.2969 82.375 14.2344 82.7109 14.2344C83.0573 14.2344 83.3698 14.2969 83.6484 14.4219C83.9297 14.5469 84.1706 14.7292 84.3711 14.9688C84.5742 15.2057 84.7292 15.4935 84.8359 15.832C84.9453 16.168 85 16.5495 85 16.9766ZM84.2539 17.3359V16.9688C84.2539 16.6302 84.2188 16.3307 84.1484 16.0703C84.0807 15.8099 83.9805 15.5911 83.8477 15.4141C83.7148 15.237 83.5521 15.1029 83.3594 15.0117C83.1693 14.9206 82.9531 14.875 82.7109 14.875C82.4766 14.875 82.2643 14.9206 82.0742 15.0117C81.8867 15.1029 81.7253 15.237 81.5898 15.4141C81.457 15.5911 81.3542 15.8099 81.2812 16.0703C81.2083 16.3307 81.1719 16.6302 81.1719 16.9688V17.3359C81.1719 17.6771 81.2083 17.9792 81.2812 18.2422C81.3542 18.5026 81.4583 18.7227 81.5938 18.9023C81.7318 19.0794 81.8945 19.2135 82.082 19.3047C82.2721 19.3958 82.4844 19.4414 82.7188 19.4414C82.9635 19.4414 83.181 19.3958 83.3711 19.3047C83.5612 19.2135 83.7214 19.0794 83.8516 18.9023C83.9844 18.7227 84.0846 18.5026 84.1523 18.2422C84.2201 17.9792 84.2539 17.6771 84.2539 17.3359ZM87.4297 19.3477L88.5859 15.7734H89.3242L87.8047 20H87.3203L87.4297 19.3477ZM86.4648 15.7734L87.6562 19.3672L87.7383 20H87.2539L85.7227 15.7734H86.4648ZM91.8438 20.0781C91.5495 20.0781 91.2826 20.0286 91.043 19.9297C90.806 19.8281 90.6016 19.6862 90.4297 19.5039C90.2604 19.3216 90.1302 19.1055 90.0391 18.8555C89.9479 18.6055 89.9023 18.332 89.9023 18.0352V17.8711C89.9023 17.5273 89.9531 17.2214 90.0547 16.9531C90.1562 16.6823 90.2943 16.4531 90.4688 16.2656C90.6432 16.0781 90.8411 15.9362 91.0625 15.8398C91.2839 15.7435 91.513 15.6953 91.75 15.6953C92.0521 15.6953 92.3125 15.7474 92.5312 15.8516C92.7526 15.9557 92.9336 16.1016 93.0742 16.2891C93.2148 16.474 93.319 16.6927 93.3867 16.9453C93.4544 17.1953 93.4883 17.4688 93.4883 17.7656V18.0898H90.332V17.5H92.7656V17.4453C92.7552 17.2578 92.7161 17.0755 92.6484 16.8984C92.5833 16.7214 92.4792 16.5755 92.3359 16.4609C92.1927 16.3464 91.9974 16.2891 91.75 16.2891C91.5859 16.2891 91.4349 16.3242 91.2969 16.3945C91.1589 16.4622 91.0404 16.5638 90.9414 16.6992C90.8424 16.8346 90.7656 17 90.7109 17.1953C90.6562 17.3906 90.6289 17.6159 90.6289 17.8711V18.0352C90.6289 18.2357 90.6562 18.4245 90.7109 18.6016C90.7682 18.776 90.8503 18.9297 90.957 19.0625C91.0664 19.1953 91.1979 19.2995 91.3516 19.375C91.5078 19.4505 91.6849 19.4883 91.8828 19.4883C92.138 19.4883 92.3542 19.4362 92.5312 19.332C92.7083 19.2279 92.8633 19.0885 92.9961 18.9141L93.4336 19.2617C93.3424 19.3997 93.2266 19.5312 93.0859 19.6562C92.9453 19.7812 92.7721 19.8828 92.5664 19.9609C92.3633 20.0391 92.1224 20.0781 91.8438 20.0781ZM95.1797 16.4375V20H94.457V15.7734H95.1602L95.1797 16.4375ZM96.5 15.75L96.4961 16.4219C96.4362 16.4089 96.3789 16.401 96.3242 16.3984C96.2721 16.3932 96.2122 16.3906 96.1445 16.3906C95.9779 16.3906 95.8307 16.4167 95.7031 16.4688C95.5755 16.5208 95.4674 16.5938 95.3789 16.6875C95.2904 16.7812 95.2201 16.8932 95.168 17.0234C95.1185 17.151 95.0859 17.2917 95.0703 17.4453L94.8672 17.5625C94.8672 17.3073 94.8919 17.0677 94.9414 16.8438C94.9935 16.6198 95.0729 16.4219 95.1797 16.25C95.2865 16.0755 95.4219 15.9401 95.5859 15.8438C95.7526 15.7448 95.9505 15.6953 96.1797 15.6953C96.2318 15.6953 96.2917 15.7018 96.3594 15.7148C96.4271 15.7253 96.474 15.737 96.5 15.75ZM98.6484 19.3477L99.8047 15.7734H100.543L99.0234 20H98.5391L98.6484 19.3477ZM97.6836 15.7734L98.875 19.3672L98.957 20H98.4727L96.9414 15.7734H97.6836ZM102.148 15.7734V20H101.422V15.7734H102.148ZM101.367 14.6523C101.367 14.5352 101.402 14.4362 101.473 14.3555C101.546 14.2747 101.652 14.2344 101.793 14.2344C101.931 14.2344 102.036 14.2747 102.109 14.3555C102.185 14.4362 102.223 14.5352 102.223 14.6523C102.223 14.7643 102.185 14.8607 102.109 14.9414C102.036 15.0195 101.931 15.0586 101.793 15.0586C101.652 15.0586 101.546 15.0195 101.473 14.9414C101.402 14.8607 101.367 14.7643 101.367 14.6523ZM105.188 20.0781C104.893 20.0781 104.626 20.0286 104.387 19.9297C104.15 19.8281 103.945 19.6862 103.773 19.5039C103.604 19.3216 103.474 19.1055 103.383 18.8555C103.292 18.6055 103.246 18.332 103.246 18.0352V17.8711C103.246 17.5273 103.297 17.2214 103.398 16.9531C103.5 16.6823 103.638 16.4531 103.812 16.2656C103.987 16.0781 104.185 15.9362 104.406 15.8398C104.628 15.7435 104.857 15.6953 105.094 15.6953C105.396 15.6953 105.656 15.7474 105.875 15.8516C106.096 15.9557 106.277 16.1016 106.418 16.2891C106.559 16.474 106.663 16.6927 106.73 16.9453C106.798 17.1953 106.832 17.4688 106.832 17.7656V18.0898H103.676V17.5H106.109V17.4453C106.099 17.2578 106.06 17.0755 105.992 16.8984C105.927 16.7214 105.823 16.5755 105.68 16.4609C105.536 16.3464 105.341 16.2891 105.094 16.2891C104.93 16.2891 104.779 16.3242 104.641 16.3945C104.503 16.4622 104.384 16.5638 104.285 16.6992C104.186 16.8346 104.109 17 104.055 17.1953C104 17.3906 103.973 17.6159 103.973 17.8711V18.0352C103.973 18.2357 104 18.4245 104.055 18.6016C104.112 18.776 104.194 18.9297 104.301 19.0625C104.41 19.1953 104.542 19.2995 104.695 19.375C104.852 19.4505 105.029 19.4883 105.227 19.4883C105.482 19.4883 105.698 19.4362 105.875 19.332C106.052 19.2279 106.207 19.0885 106.34 18.9141L106.777 19.2617C106.686 19.3997 106.57 19.5312 106.43 19.6562C106.289 19.7812 106.116 19.8828 105.91 19.9609C105.707 20.0391 105.466 20.0781 105.188 20.0781ZM108.871 19.25L109.957 15.7734H110.434L110.34 16.4648L109.234 20H108.77L108.871 19.25ZM108.141 15.7734L109.066 19.2891L109.133 20H108.645L107.418 15.7734H108.141ZM111.473 19.2617L112.355 15.7734H113.074L111.848 20H111.363L111.473 19.2617ZM110.539 15.7734L111.602 19.1914L111.723 20H111.262L110.125 16.457L110.031 15.7734H110.539Z" fill="black" fill-opacity="0.76"/>
<path d="M13.4199 36.4644L11.7725 41H11.0991L12.9961 36.0234H13.4302L13.4199 36.4644ZM14.8008 41L13.1499 36.4644L13.1396 36.0234H13.5737L15.4775 41H14.8008ZM14.7153 39.1577V39.6978H11.9194V39.1577H14.7153ZM18.3267 40.019C18.3267 39.9279 18.3062 39.8436 18.2651 39.7661C18.2264 39.6864 18.1455 39.6146 18.0225 39.5508C17.9017 39.4847 17.7194 39.4277 17.4756 39.3799C17.2705 39.3366 17.0848 39.2853 16.9185 39.2261C16.7544 39.1668 16.6143 39.0951 16.498 39.0107C16.3841 38.9264 16.2964 38.8273 16.2349 38.7134C16.1733 38.5994 16.1426 38.4661 16.1426 38.3135C16.1426 38.1676 16.1745 38.0298 16.2383 37.8999C16.3044 37.77 16.3966 37.6549 16.5151 37.5547C16.6359 37.4544 16.7806 37.3758 16.9492 37.3188C17.1178 37.2619 17.3058 37.2334 17.5132 37.2334C17.8094 37.2334 18.0623 37.2858 18.272 37.3906C18.4816 37.4954 18.6423 37.6356 18.7539 37.811C18.8656 37.9842 18.9214 38.1768 18.9214 38.3887H18.2891C18.2891 38.2861 18.2583 38.187 18.1968 38.0913C18.1375 37.9933 18.0498 37.9124 17.9336 37.8486C17.8197 37.7848 17.6795 37.7529 17.5132 37.7529C17.3377 37.7529 17.1953 37.7803 17.0859 37.835C16.9788 37.8874 16.9002 37.9546 16.8501 38.0366C16.8022 38.1187 16.7783 38.2052 16.7783 38.2964C16.7783 38.3647 16.7897 38.4263 16.8125 38.481C16.8376 38.5334 16.8809 38.5824 16.9424 38.6279C17.0039 38.6712 17.0905 38.7122 17.2021 38.751C17.3138 38.7897 17.4562 38.8285 17.6294 38.8672C17.9325 38.9355 18.182 39.0176 18.3779 39.1133C18.5739 39.209 18.7197 39.3263 18.8154 39.4653C18.9111 39.6043 18.959 39.7729 18.959 39.9712C18.959 40.133 18.9248 40.2811 18.8564 40.4155C18.7904 40.55 18.6935 40.6662 18.5659 40.7642C18.4406 40.8599 18.2902 40.9351 18.1147 40.9897C17.9416 41.0422 17.7467 41.0684 17.5303 41.0684C17.2044 41.0684 16.9287 41.0103 16.7031 40.894C16.4775 40.7778 16.3066 40.6274 16.1904 40.4429C16.0742 40.2583 16.0161 40.0635 16.0161 39.8584H16.6519C16.661 40.0316 16.7111 40.1694 16.8022 40.272C16.8934 40.3722 17.005 40.444 17.1372 40.4873C17.2694 40.5283 17.4004 40.5488 17.5303 40.5488C17.7035 40.5488 17.8481 40.526 17.9644 40.4805C18.0828 40.4349 18.1729 40.3722 18.2344 40.2925C18.2959 40.2127 18.3267 40.1216 18.3267 40.019ZM22.0679 40.019C22.0679 39.9279 22.0474 39.8436 22.0063 39.7661C21.9676 39.6864 21.8867 39.6146 21.7637 39.5508C21.6429 39.4847 21.4606 39.4277 21.2168 39.3799C21.0117 39.3366 20.826 39.2853 20.6597 39.2261C20.4956 39.1668 20.3555 39.0951 20.2393 39.0107C20.1253 38.9264 20.0376 38.8273 19.9761 38.7134C19.9146 38.5994 19.8838 38.4661 19.8838 38.3135C19.8838 38.1676 19.9157 38.0298 19.9795 37.8999C20.0456 37.77 20.1379 37.6549 20.2563 37.5547C20.3771 37.4544 20.5218 37.3758 20.6904 37.3188C20.859 37.2619 21.047 37.2334 21.2544 37.2334C21.5506 37.2334 21.8035 37.2858 22.0132 37.3906C22.2228 37.4954 22.3835 37.6356 22.4951 37.811C22.6068 37.9842 22.6626 38.1768 22.6626 38.3887H22.0303C22.0303 38.2861 21.9995 38.187 21.938 38.0913C21.8787 37.9933 21.791 37.9124 21.6748 37.8486C21.5609 37.7848 21.4207 37.7529 21.2544 37.7529C21.0789 37.7529 20.9365 37.7803 20.8271 37.835C20.7201 37.8874 20.6414 37.9546 20.5913 38.0366C20.5435 38.1187 20.5195 38.2052 20.5195 38.2964C20.5195 38.3647 20.5309 38.4263 20.5537 38.481C20.5788 38.5334 20.6221 38.5824 20.6836 38.6279C20.7451 38.6712 20.8317 38.7122 20.9434 38.751C21.055 38.7897 21.1974 38.8285 21.3706 38.8672C21.6737 38.9355 21.9232 39.0176 22.1191 39.1133C22.3151 39.209 22.4609 39.3263 22.5566 39.4653C22.6523 39.6043 22.7002 39.7729 22.7002 39.9712C22.7002 40.133 22.666 40.2811 22.5977 40.4155C22.5316 40.55 22.4347 40.6662 22.3071 40.7642C22.1818 40.8599 22.0314 40.9351 21.856 40.9897C21.6828 41.0422 21.488 41.0684 21.2715 41.0684C20.9456 41.0684 20.6699 41.0103 20.4443 40.894C20.2188 40.7778 20.0479 40.6274 19.9316 40.4429C19.8154 40.2583 19.7573 40.0635 19.7573 39.8584H20.3931C20.4022 40.0316 20.4523 40.1694 20.5435 40.272C20.6346 40.3722 20.7463 40.444 20.8784 40.4873C21.0106 40.5283 21.1416 40.5488 21.2715 40.5488C21.4447 40.5488 21.5894 40.526 21.7056 40.4805C21.8241 40.4349 21.9141 40.3722 21.9756 40.2925C22.0371 40.2127 22.0679 40.1216 22.0679 40.019ZM24.3428 37.3018V41H23.707V37.3018H24.3428ZM23.6592 36.3208C23.6592 36.2183 23.6899 36.1317 23.7515 36.061C23.8153 35.9904 23.9087 35.9551 24.0317 35.9551C24.1525 35.9551 24.2448 35.9904 24.3086 36.061C24.3747 36.1317 24.4077 36.2183 24.4077 36.3208C24.4077 36.4188 24.3747 36.5031 24.3086 36.5737C24.2448 36.6421 24.1525 36.6763 24.0317 36.6763C23.9087 36.6763 23.8153 36.6421 23.7515 36.5737C23.6899 36.5031 23.6592 36.4188 23.6592 36.3208ZM27.8789 37.3018H28.4531V40.9214C28.4531 41.2472 28.387 41.5252 28.2549 41.7554C28.1227 41.9855 27.9382 42.1598 27.7012 42.2783C27.4665 42.3991 27.1953 42.4595 26.8877 42.4595C26.7601 42.4595 26.6097 42.439 26.4365 42.3979C26.2656 42.3592 26.097 42.292 25.9307 42.1963C25.7666 42.1029 25.6287 41.9764 25.5171 41.8169L25.8486 41.4409C26.0036 41.6278 26.1654 41.7576 26.334 41.8306C26.5049 41.9035 26.6735 41.9399 26.8398 41.9399C27.0404 41.9399 27.2135 41.9023 27.3594 41.8271C27.5052 41.752 27.618 41.6403 27.6978 41.4922C27.7798 41.3464 27.8208 41.1663 27.8208 40.9521V38.1152L27.8789 37.3018ZM25.3325 39.1919V39.1201C25.3325 38.8376 25.3656 38.5812 25.4316 38.3511C25.5 38.1187 25.5968 37.9193 25.7222 37.7529C25.8498 37.5866 26.0036 37.459 26.1836 37.3701C26.3636 37.279 26.5664 37.2334 26.792 37.2334C27.0244 37.2334 27.2272 37.2744 27.4004 37.3564C27.5758 37.4362 27.724 37.5535 27.8447 37.7085C27.9678 37.8612 28.0646 38.0457 28.1353 38.2622C28.2059 38.4787 28.2549 38.7236 28.2822 38.9971V39.3115C28.2572 39.5827 28.2082 39.8265 28.1353 40.043C28.0646 40.2594 27.9678 40.444 27.8447 40.5967C27.724 40.7493 27.5758 40.8667 27.4004 40.9487C27.2249 41.0285 27.0199 41.0684 26.7852 41.0684C26.5641 41.0684 26.3636 41.0216 26.1836 40.9282C26.0059 40.8348 25.8532 40.7038 25.7256 40.5352C25.598 40.3665 25.5 40.1683 25.4316 39.9404C25.3656 39.7103 25.3325 39.4608 25.3325 39.1919ZM25.9648 39.1201V39.1919C25.9648 39.3765 25.9831 39.5496 26.0195 39.7114C26.0583 39.8732 26.1164 40.0156 26.1938 40.1387C26.2736 40.2617 26.375 40.3586 26.498 40.4292C26.6211 40.4976 26.7681 40.5317 26.939 40.5317C27.1486 40.5317 27.3218 40.4873 27.4585 40.3984C27.5952 40.3096 27.7035 40.1922 27.7832 40.0464C27.8652 39.9006 27.929 39.7422 27.9746 39.5713V38.7476C27.9495 38.6222 27.9108 38.5015 27.8584 38.3853C27.8083 38.2668 27.7422 38.1619 27.6602 38.0708C27.5804 37.9774 27.4813 37.9033 27.3628 37.8486C27.2443 37.7939 27.1053 37.7666 26.9458 37.7666C26.7726 37.7666 26.6234 37.8031 26.498 37.876C26.375 37.9466 26.2736 38.0446 26.1938 38.1699C26.1164 38.293 26.0583 38.4365 26.0195 38.6006C25.9831 38.7624 25.9648 38.9355 25.9648 39.1201ZM30.1709 38.0913V41H29.5386V37.3018H30.1367L30.1709 38.0913ZM30.0205 39.0107L29.7573 39.0005C29.7596 38.7476 29.7972 38.514 29.8701 38.2998C29.943 38.0833 30.0456 37.8953 30.1777 37.7358C30.3099 37.5763 30.4671 37.4533 30.6494 37.3667C30.834 37.2778 31.0379 37.2334 31.2612 37.2334C31.4435 37.2334 31.6076 37.2585 31.7534 37.3086C31.8993 37.3564 32.0234 37.4339 32.126 37.541C32.2308 37.6481 32.3105 37.7871 32.3652 37.958C32.4199 38.1266 32.4473 38.3328 32.4473 38.5767V41H31.8115V38.5698C31.8115 38.3761 31.783 38.2212 31.7261 38.105C31.6691 37.9865 31.5859 37.901 31.4766 37.8486C31.3672 37.7939 31.2327 37.7666 31.0732 37.7666C30.916 37.7666 30.7725 37.7996 30.6426 37.8657C30.515 37.9318 30.4045 38.0229 30.311 38.1392C30.2199 38.2554 30.1481 38.3887 30.0957 38.5391C30.0456 38.6872 30.0205 38.8444 30.0205 39.0107ZM35.0674 41.0684C34.8099 41.0684 34.5763 41.0251 34.3667 40.9385C34.1593 40.8496 33.9805 40.7254 33.8301 40.5659C33.682 40.4064 33.568 40.2173 33.4883 39.9985C33.4085 39.7798 33.3687 39.5405 33.3687 39.2808V39.1372C33.3687 38.8364 33.4131 38.5687 33.502 38.334C33.5908 38.097 33.7116 37.8965 33.8643 37.7324C34.0169 37.5684 34.1901 37.4442 34.3838 37.3599C34.5775 37.2756 34.778 37.2334 34.9854 37.2334C35.2497 37.2334 35.4775 37.279 35.6689 37.3701C35.8626 37.4613 36.021 37.5889 36.144 37.7529C36.2671 37.9147 36.3582 38.1061 36.4175 38.3271C36.4767 38.5459 36.5063 38.7852 36.5063 39.0449V39.3286H33.7446V38.8125H35.874V38.7646C35.8649 38.6006 35.8307 38.4411 35.7715 38.2861C35.7145 38.1312 35.6234 38.0036 35.498 37.9033C35.3727 37.8031 35.2018 37.7529 34.9854 37.7529C34.8418 37.7529 34.7096 37.7837 34.5889 37.8452C34.4681 37.9045 34.3644 37.9933 34.2778 38.1118C34.1912 38.2303 34.124 38.375 34.0762 38.5459C34.0283 38.7168 34.0044 38.9139 34.0044 39.1372V39.2808C34.0044 39.4562 34.0283 39.6214 34.0762 39.7764C34.1263 39.929 34.1981 40.0635 34.2915 40.1797C34.3872 40.2959 34.5023 40.387 34.6367 40.4531C34.7734 40.5192 34.9284 40.5522 35.1016 40.5522C35.3249 40.5522 35.514 40.5067 35.6689 40.4155C35.8239 40.3244 35.9595 40.2025 36.0757 40.0498L36.4585 40.354C36.3787 40.4748 36.2773 40.5898 36.1543 40.6992C36.0312 40.8086 35.8797 40.8975 35.6997 40.9658C35.522 41.0342 35.3112 41.0684 35.0674 41.0684ZM39.7007 40.2822V35.75H40.3364V41H39.7554L39.7007 40.2822ZM37.2124 39.1919V39.1201C37.2124 38.8376 37.2466 38.5812 37.3149 38.3511C37.3856 38.1187 37.4847 37.9193 37.6123 37.7529C37.7422 37.5866 37.896 37.459 38.0737 37.3701C38.2537 37.279 38.4543 37.2334 38.6753 37.2334C38.9077 37.2334 39.1105 37.2744 39.2837 37.3564C39.4591 37.4362 39.6073 37.5535 39.728 37.7085C39.8511 37.8612 39.9479 38.0457 40.0186 38.2622C40.0892 38.4787 40.1382 38.7236 40.1655 38.9971V39.3115C40.1405 39.5827 40.0915 39.8265 40.0186 40.043C39.9479 40.2594 39.8511 40.444 39.728 40.5967C39.6073 40.7493 39.4591 40.8667 39.2837 40.9487C39.1082 41.0285 38.9032 41.0684 38.6685 41.0684C38.452 41.0684 38.2537 41.0216 38.0737 40.9282C37.896 40.8348 37.7422 40.7038 37.6123 40.5352C37.4847 40.3665 37.3856 40.1683 37.3149 39.9404C37.2466 39.7103 37.2124 39.4608 37.2124 39.1919ZM37.8481 39.1201V39.1919C37.8481 39.3765 37.8664 39.5496 37.9028 39.7114C37.9416 39.8732 38.0008 40.0156 38.0806 40.1387C38.1603 40.2617 38.2617 40.3586 38.3848 40.4292C38.5078 40.4976 38.6548 40.5317 38.8257 40.5317C39.0353 40.5317 39.2074 40.4873 39.3418 40.3984C39.4785 40.3096 39.5879 40.1922 39.6699 40.0464C39.752 39.9006 39.8158 39.7422 39.8613 39.5713V38.7476C39.834 38.6222 39.7941 38.5015 39.7417 38.3853C39.6916 38.2668 39.6255 38.1619 39.5435 38.0708C39.4637 37.9774 39.3646 37.9033 39.2461 37.8486C39.1299 37.7939 38.992 37.7666 38.8325 37.7666C38.6593 37.7666 38.5101 37.8031 38.3848 37.876C38.2617 37.9466 38.1603 38.0446 38.0806 38.1699C38.0008 38.293 37.9416 38.4365 37.9028 38.6006C37.8664 38.7624 37.8481 38.9355 37.8481 39.1201ZM44.8555 37.3018V37.7871H42.856V37.3018H44.8555ZM43.5327 36.4028H44.165V40.084C44.165 40.2093 44.1844 40.3039 44.2231 40.3677C44.2619 40.4315 44.312 40.4736 44.3735 40.4941C44.4351 40.5146 44.5011 40.5249 44.5718 40.5249C44.6242 40.5249 44.6789 40.5203 44.7358 40.5112C44.7951 40.4998 44.8395 40.4907 44.8691 40.4839L44.8726 41C44.8224 41.016 44.7563 41.0308 44.6743 41.0444C44.5946 41.0604 44.4977 41.0684 44.3838 41.0684C44.2288 41.0684 44.0864 41.0376 43.9565 40.9761C43.8267 40.9146 43.723 40.812 43.6455 40.6685C43.5703 40.5226 43.5327 40.3267 43.5327 40.0806V36.4028ZM45.4863 39.1919V39.1133C45.4863 38.8467 45.5251 38.5994 45.6025 38.3716C45.68 38.1414 45.7917 37.9421 45.9375 37.7734C46.0833 37.6025 46.2599 37.4704 46.4673 37.377C46.6746 37.2812 46.9071 37.2334 47.1646 37.2334C47.4243 37.2334 47.6579 37.2812 47.8652 37.377C48.0749 37.4704 48.2526 37.6025 48.3984 37.7734C48.5465 37.9421 48.6593 38.1414 48.7368 38.3716C48.8143 38.5994 48.853 38.8467 48.853 39.1133V39.1919C48.853 39.4585 48.8143 39.7057 48.7368 39.9336C48.6593 40.1615 48.5465 40.3608 48.3984 40.5317C48.2526 40.7004 48.076 40.8325 47.8687 40.9282C47.6636 41.0216 47.4312 41.0684 47.1714 41.0684C46.9116 41.0684 46.6781 41.0216 46.4707 40.9282C46.2633 40.8325 46.0856 40.7004 45.9375 40.5317C45.7917 40.3608 45.68 40.1615 45.6025 39.9336C45.5251 39.7057 45.4863 39.4585 45.4863 39.1919ZM46.1187 39.1133V39.1919C46.1187 39.3765 46.1403 39.5508 46.1836 39.7148C46.2269 39.8766 46.2918 40.0202 46.3784 40.1455C46.4673 40.2708 46.5778 40.37 46.71 40.4429C46.8421 40.5135 46.9959 40.5488 47.1714 40.5488C47.3446 40.5488 47.4961 40.5135 47.626 40.4429C47.7581 40.37 47.8675 40.2708 47.9541 40.1455C48.0407 40.0202 48.1056 39.8766 48.1489 39.7148C48.1945 39.5508 48.2173 39.3765 48.2173 39.1919V39.1133C48.2173 38.931 48.1945 38.759 48.1489 38.5972C48.1056 38.4331 48.0396 38.2884 47.9507 38.1631C47.8641 38.0355 47.7547 37.9352 47.6226 37.8623C47.4927 37.7894 47.34 37.7529 47.1646 37.7529C46.9914 37.7529 46.8387 37.7894 46.7065 37.8623C46.5767 37.9352 46.4673 38.0355 46.3784 38.1631C46.2918 38.2884 46.2269 38.4331 46.1836 38.5972C46.1403 38.759 46.1187 38.931 46.1187 39.1133ZM54.7324 39.4175H55.3887C55.3545 39.7319 55.2645 40.0133 55.1187 40.2617C54.9728 40.5101 54.7666 40.7072 54.5 40.853C54.2334 40.9966 53.9007 41.0684 53.502 41.0684C53.2103 41.0684 52.9448 41.0137 52.7056 40.9043C52.4686 40.7949 52.2646 40.64 52.0938 40.4395C51.9229 40.2367 51.7907 39.994 51.6973 39.7114C51.6061 39.4266 51.5605 39.1099 51.5605 38.7612V38.2656C51.5605 37.917 51.6061 37.6014 51.6973 37.3188C51.7907 37.034 51.924 36.7902 52.0972 36.5874C52.2726 36.3846 52.4834 36.2285 52.7295 36.1191C52.9756 36.0098 53.2524 35.9551 53.5601 35.9551C53.936 35.9551 54.2539 36.0257 54.5137 36.167C54.7734 36.3083 54.9751 36.5042 55.1187 36.7549C55.2645 37.0033 55.3545 37.2915 55.3887 37.6196H54.7324C54.7005 37.3872 54.6413 37.1878 54.5547 37.0215C54.4681 36.8529 54.3451 36.723 54.1855 36.6318C54.026 36.5407 53.8175 36.4951 53.5601 36.4951C53.339 36.4951 53.1442 36.5373 52.9756 36.6216C52.8092 36.7059 52.6691 36.8255 52.5552 36.9805C52.4435 37.1354 52.3592 37.3211 52.3022 37.5376C52.2453 37.7541 52.2168 37.9945 52.2168 38.2588V38.7612C52.2168 39.005 52.2419 39.234 52.292 39.4482C52.3444 39.6624 52.423 39.8504 52.5278 40.0122C52.6326 40.174 52.766 40.3016 52.9277 40.395C53.0895 40.4862 53.2809 40.5317 53.502 40.5317C53.7822 40.5317 54.0055 40.4873 54.1719 40.3984C54.3382 40.3096 54.4635 40.182 54.5479 40.0156C54.6344 39.8493 54.696 39.6499 54.7324 39.4175ZM58.5796 40.1455V37.3018H59.2153V41H58.6104L58.5796 40.1455ZM58.6992 39.3662L58.9624 39.3594C58.9624 39.6055 58.9362 39.8333 58.8838 40.043C58.8337 40.2503 58.7516 40.4303 58.6377 40.583C58.5238 40.7357 58.3745 40.8553 58.1899 40.9419C58.0054 41.0262 57.7809 41.0684 57.5166 41.0684C57.3366 41.0684 57.1714 41.0422 57.021 40.9897C56.8729 40.9373 56.7453 40.8564 56.6382 40.7471C56.5311 40.6377 56.4479 40.4953 56.3887 40.3198C56.3317 40.1444 56.3032 39.9336 56.3032 39.6875V37.3018H56.9355V39.6943C56.9355 39.8607 56.9538 39.9985 56.9902 40.1079C57.029 40.215 57.0802 40.3005 57.144 40.3643C57.2101 40.4258 57.283 40.4691 57.3628 40.4941C57.4448 40.5192 57.5291 40.5317 57.6157 40.5317C57.8846 40.5317 58.0977 40.4805 58.2549 40.3779C58.4121 40.2731 58.5249 40.133 58.5933 39.9575C58.6639 39.7798 58.6992 39.5827 58.6992 39.3662ZM62.4575 40.019C62.4575 39.9279 62.437 39.8436 62.396 39.7661C62.3573 39.6864 62.2764 39.6146 62.1533 39.5508C62.0326 39.4847 61.8503 39.4277 61.6064 39.3799C61.4014 39.3366 61.2157 39.2853 61.0493 39.2261C60.8853 39.1668 60.7451 39.0951 60.6289 39.0107C60.515 38.9264 60.4272 38.8273 60.3657 38.7134C60.3042 38.5994 60.2734 38.4661 60.2734 38.3135C60.2734 38.1676 60.3053 38.0298 60.3691 37.8999C60.4352 37.77 60.5275 37.6549 60.646 37.5547C60.7668 37.4544 60.9115 37.3758 61.0801 37.3188C61.2487 37.2619 61.4367 37.2334 61.644 37.2334C61.9403 37.2334 62.1932 37.2858 62.4028 37.3906C62.6125 37.4954 62.7731 37.6356 62.8848 37.811C62.9964 37.9842 63.0522 38.1768 63.0522 38.3887H62.4199C62.4199 38.2861 62.3892 38.187 62.3276 38.0913C62.2684 37.9933 62.1807 37.9124 62.0645 37.8486C61.9505 37.7848 61.8104 37.7529 61.644 37.7529C61.4686 37.7529 61.3262 37.7803 61.2168 37.835C61.1097 37.8874 61.0311 37.9546 60.981 38.0366C60.9331 38.1187 60.9092 38.2052 60.9092 38.2964C60.9092 38.3647 60.9206 38.4263 60.9434 38.481C60.9684 38.5334 61.0117 38.5824 61.0732 38.6279C61.1348 38.6712 61.2214 38.7122 61.333 38.751C61.4447 38.7897 61.5871 38.8285 61.7603 38.8672C62.0633 38.9355 62.3128 39.0176 62.5088 39.1133C62.7048 39.209 62.8506 39.3263 62.9463 39.4653C63.042 39.6043 63.0898 39.7729 63.0898 39.9712C63.0898 40.133 63.0557 40.2811 62.9873 40.4155C62.9212 40.55 62.8244 40.6662 62.6968 40.7642C62.5715 40.8599 62.4211 40.9351 62.2456 40.9897C62.0724 41.0422 61.8776 41.0684 61.6611 41.0684C61.3353 41.0684 61.0596 41.0103 60.834 40.894C60.6084 40.7778 60.4375 40.6274 60.3213 40.4429C60.2051 40.2583 60.147 40.0635 60.147 39.8584H60.7827C60.7918 40.0316 60.842 40.1694 60.9331 40.272C61.0243 40.3722 61.1359 40.444 61.2681 40.4873C61.4002 40.5283 61.5312 40.5488 61.6611 40.5488C61.8343 40.5488 61.979 40.526 62.0952 40.4805C62.2137 40.4349 62.3037 40.3722 62.3652 40.2925C62.4268 40.2127 62.4575 40.1216 62.4575 40.019ZM65.5938 37.3018V37.7871H63.5942V37.3018H65.5938ZM64.271 36.4028H64.9033V40.084C64.9033 40.2093 64.9227 40.3039 64.9614 40.3677C65.0002 40.4315 65.0503 40.4736 65.1118 40.4941C65.1733 40.5146 65.2394 40.5249 65.3101 40.5249C65.3625 40.5249 65.4172 40.5203 65.4741 40.5112C65.5334 40.4998 65.5778 40.4907 65.6074 40.4839L65.6108 41C65.5607 41.016 65.4946 41.0308 65.4126 41.0444C65.3328 41.0604 65.236 41.0684 65.1221 41.0684C64.9671 41.0684 64.8247 41.0376 64.6948 40.9761C64.5649 40.9146 64.4613 40.812 64.3838 40.6685C64.3086 40.5226 64.271 40.3267 64.271 40.0806V36.4028ZM66.2246 39.1919V39.1133C66.2246 38.8467 66.2633 38.5994 66.3408 38.3716C66.4183 38.1414 66.5299 37.9421 66.6758 37.7734C66.8216 37.6025 66.9982 37.4704 67.2056 37.377C67.4129 37.2812 67.6453 37.2334 67.9028 37.2334C68.1626 37.2334 68.3962 37.2812 68.6035 37.377C68.8132 37.4704 68.9909 37.6025 69.1367 37.7734C69.2848 37.9421 69.3976 38.1414 69.4751 38.3716C69.5526 38.5994 69.5913 38.8467 69.5913 39.1133V39.1919C69.5913 39.4585 69.5526 39.7057 69.4751 39.9336C69.3976 40.1615 69.2848 40.3608 69.1367 40.5317C68.9909 40.7004 68.8143 40.8325 68.6069 40.9282C68.4019 41.0216 68.1694 41.0684 67.9097 41.0684C67.6499 41.0684 67.4163 41.0216 67.209 40.9282C67.0016 40.8325 66.8239 40.7004 66.6758 40.5317C66.5299 40.3608 66.4183 40.1615 66.3408 39.9336C66.2633 39.7057 66.2246 39.4585 66.2246 39.1919ZM66.8569 39.1133V39.1919C66.8569 39.3765 66.8786 39.5508 66.9219 39.7148C66.9652 39.8766 67.0301 40.0202 67.1167 40.1455C67.2056 40.2708 67.3161 40.37 67.4482 40.4429C67.5804 40.5135 67.7342 40.5488 67.9097 40.5488C68.0828 40.5488 68.2344 40.5135 68.3643 40.4429C68.4964 40.37 68.6058 40.2708 68.6924 40.1455C68.779 40.0202 68.8439 39.8766 68.8872 39.7148C68.9328 39.5508 68.9556 39.3765 68.9556 39.1919V39.1133C68.9556 38.931 68.9328 38.759 68.8872 38.5972C68.8439 38.4331 68.7778 38.2884 68.689 38.1631C68.6024 38.0355 68.493 37.9352 68.3608 37.8623C68.231 37.7894 68.0783 37.7529 67.9028 37.7529C67.7297 37.7529 67.577 37.7894 67.4448 37.8623C67.3149 37.9352 67.2056 38.0355 67.1167 38.1631C67.0301 38.2884 66.9652 38.4331 66.9219 38.5972C66.8786 38.759 66.8569 38.931 66.8569 39.1133ZM71.1382 38.0366V41H70.5024V37.3018H71.104L71.1382 38.0366ZM71.0083 39.0107L70.7144 39.0005C70.7166 38.7476 70.7497 38.514 70.8135 38.2998C70.8773 38.0833 70.9718 37.8953 71.0972 37.7358C71.2225 37.5763 71.3786 37.4533 71.5654 37.3667C71.7523 37.2778 71.9688 37.2334 72.2148 37.2334C72.388 37.2334 72.5475 37.2585 72.6934 37.3086C72.8392 37.3564 72.9657 37.4328 73.0728 37.5376C73.1799 37.6424 73.263 37.7769 73.3223 37.9409C73.3815 38.105 73.4111 38.3032 73.4111 38.5356V41H72.7788V38.5664C72.7788 38.3727 72.7458 38.2178 72.6797 38.1016C72.6159 37.9854 72.5247 37.901 72.4062 37.8486C72.2878 37.7939 72.1488 37.7666 71.9893 37.7666C71.8024 37.7666 71.6463 37.7996 71.521 37.8657C71.3957 37.9318 71.2954 38.0229 71.2202 38.1392C71.145 38.2554 71.0903 38.3887 71.0562 38.5391C71.0243 38.6872 71.0083 38.8444 71.0083 39.0107ZM73.4043 38.6621L72.9805 38.792C72.9827 38.5892 73.0158 38.3944 73.0796 38.2075C73.1457 38.0207 73.2402 37.8543 73.3633 37.7085C73.4886 37.5627 73.6424 37.4476 73.8247 37.3633C74.007 37.2767 74.2155 37.2334 74.4502 37.2334C74.6484 37.2334 74.8239 37.2596 74.9766 37.312C75.1315 37.3644 75.2614 37.4453 75.3662 37.5547C75.4733 37.6618 75.5542 37.7996 75.6089 37.9683C75.6636 38.1369 75.6909 38.3374 75.6909 38.5698V41H75.0552V38.563C75.0552 38.3556 75.0221 38.195 74.9561 38.0811C74.8923 37.9648 74.8011 37.884 74.6826 37.8384C74.5664 37.7905 74.4274 37.7666 74.2656 37.7666C74.1266 37.7666 74.0036 37.7905 73.8965 37.8384C73.7894 37.8862 73.6994 37.9523 73.6265 38.0366C73.5535 38.1187 73.4977 38.2132 73.459 38.3203C73.4225 38.4274 73.4043 38.5413 73.4043 38.6621ZM78.3076 41.0684C78.0501 41.0684 77.8166 41.0251 77.6069 40.9385C77.3996 40.8496 77.2207 40.7254 77.0703 40.5659C76.9222 40.4064 76.8083 40.2173 76.7285 39.9985C76.6488 39.7798 76.6089 39.5405 76.6089 39.2808V39.1372C76.6089 38.8364 76.6533 38.5687 76.7422 38.334C76.8311 38.097 76.9518 37.8965 77.1045 37.7324C77.2572 37.5684 77.4303 37.4442 77.624 37.3599C77.8177 37.2756 78.0182 37.2334 78.2256 37.2334C78.4899 37.2334 78.7178 37.279 78.9092 37.3701C79.1029 37.4613 79.2612 37.5889 79.3843 37.7529C79.5073 37.9147 79.5985 38.1061 79.6577 38.3271C79.717 38.5459 79.7466 38.7852 79.7466 39.0449V39.3286H76.9849V38.8125H79.1143V38.7646C79.1051 38.6006 79.071 38.4411 79.0117 38.2861C78.9548 38.1312 78.8636 38.0036 78.7383 37.9033C78.613 37.8031 78.4421 37.7529 78.2256 37.7529C78.082 37.7529 77.9499 37.7837 77.8291 37.8452C77.7083 37.9045 77.6047 37.9933 77.5181 38.1118C77.4315 38.2303 77.3643 38.375 77.3164 38.5459C77.2686 38.7168 77.2446 38.9139 77.2446 39.1372V39.2808C77.2446 39.4562 77.2686 39.6214 77.3164 39.7764C77.3665 39.929 77.4383 40.0635 77.5317 40.1797C77.6274 40.2959 77.7425 40.387 77.877 40.4531C78.0137 40.5192 78.1686 40.5522 78.3418 40.5522C78.5651 40.5522 78.7542 40.5067 78.9092 40.4155C79.0641 40.3244 79.1997 40.2025 79.3159 40.0498L79.6987 40.354C79.619 40.4748 79.5176 40.5898 79.3945 40.6992C79.2715 40.8086 79.12 40.8975 78.9399 40.9658C78.7622 41.0342 78.5514 41.0684 78.3076 41.0684ZM81.2422 37.8828V41H80.6099V37.3018H81.2251L81.2422 37.8828ZM82.3975 37.2812L82.394 37.8691C82.3416 37.8577 82.2915 37.8509 82.2437 37.8486C82.1981 37.8441 82.1457 37.8418 82.0864 37.8418C81.9406 37.8418 81.8118 37.8646 81.7002 37.9102C81.5885 37.9557 81.494 38.0195 81.4165 38.1016C81.339 38.1836 81.2775 38.2816 81.2319 38.3955C81.1886 38.5072 81.1602 38.6302 81.1465 38.7646L80.9688 38.8672C80.9688 38.6439 80.9904 38.4342 81.0337 38.2383C81.0793 38.0423 81.1488 37.8691 81.2422 37.7188C81.3356 37.5661 81.4541 37.4476 81.5977 37.3633C81.7435 37.2767 81.9167 37.2334 82.1172 37.2334C82.1628 37.2334 82.2152 37.2391 82.2744 37.2505C82.3337 37.2596 82.3747 37.2699 82.3975 37.2812ZM86.9062 36.4644L85.2588 41H84.5854L86.4824 36.0234H86.9165L86.9062 36.4644ZM88.2871 41L86.6362 36.4644L86.626 36.0234H87.0601L88.9639 41H88.2871ZM88.2017 39.1577V39.6978H85.4058V39.1577H88.2017Z" fill="black" fill-opacity="0.54"/>
<path d="M37.4199 59.4644L35.7725 64H35.0991L36.9961 59.0234H37.4302L37.4199 59.4644ZM38.8008 64L37.1499 59.4644L37.1396 59.0234H37.5737L39.4775 64H38.8008ZM38.7153 62.1577V62.6978H35.9194V62.1577H38.7153ZM42.3267 63.019C42.3267 62.9279 42.3062 62.8436 42.2651 62.7661C42.2264 62.6864 42.1455 62.6146 42.0225 62.5508C41.9017 62.4847 41.7194 62.4277 41.4756 62.3799C41.2705 62.3366 41.0848 62.2853 40.9185 62.2261C40.7544 62.1668 40.6143 62.0951 40.498 62.0107C40.3841 61.9264 40.2964 61.8273 40.2349 61.7134C40.1733 61.5994 40.1426 61.4661 40.1426 61.3135C40.1426 61.1676 40.1745 61.0298 40.2383 60.8999C40.3044 60.77 40.3966 60.6549 40.5151 60.5547C40.6359 60.4544 40.7806 60.3758 40.9492 60.3188C41.1178 60.2619 41.3058 60.2334 41.5132 60.2334C41.8094 60.2334 42.0623 60.2858 42.272 60.3906C42.4816 60.4954 42.6423 60.6356 42.7539 60.811C42.8656 60.9842 42.9214 61.1768 42.9214 61.3887H42.2891C42.2891 61.2861 42.2583 61.187 42.1968 61.0913C42.1375 60.9933 42.0498 60.9124 41.9336 60.8486C41.8197 60.7848 41.6795 60.7529 41.5132 60.7529C41.3377 60.7529 41.1953 60.7803 41.0859 60.835C40.9788 60.8874 40.9002 60.9546 40.8501 61.0366C40.8022 61.1187 40.7783 61.2052 40.7783 61.2964C40.7783 61.3647 40.7897 61.4263 40.8125 61.481C40.8376 61.5334 40.8809 61.5824 40.9424 61.6279C41.0039 61.6712 41.0905 61.7122 41.2021 61.751C41.3138 61.7897 41.4562 61.8285 41.6294 61.8672C41.9325 61.9355 42.182 62.0176 42.3779 62.1133C42.5739 62.209 42.7197 62.3263 42.8154 62.4653C42.9111 62.6043 42.959 62.7729 42.959 62.9712C42.959 63.133 42.9248 63.2811 42.8564 63.4155C42.7904 63.55 42.6935 63.6662 42.5659 63.7642C42.4406 63.8599 42.2902 63.9351 42.1147 63.9897C41.9416 64.0422 41.7467 64.0684 41.5303 64.0684C41.2044 64.0684 40.9287 64.0103 40.7031 63.894C40.4775 63.7778 40.3066 63.6274 40.1904 63.4429C40.0742 63.2583 40.0161 63.0635 40.0161 62.8584H40.6519C40.661 63.0316 40.7111 63.1694 40.8022 63.272C40.8934 63.3722 41.005 63.444 41.1372 63.4873C41.2694 63.5283 41.4004 63.5488 41.5303 63.5488C41.7035 63.5488 41.8481 63.526 41.9644 63.4805C42.0828 63.4349 42.1729 63.3722 42.2344 63.2925C42.2959 63.2127 42.3267 63.1216 42.3267 63.019ZM46.0679 63.019C46.0679 62.9279 46.0474 62.8436 46.0063 62.7661C45.9676 62.6864 45.8867 62.6146 45.7637 62.5508C45.6429 62.4847 45.4606 62.4277 45.2168 62.3799C45.0117 62.3366 44.826 62.2853 44.6597 62.2261C44.4956 62.1668 44.3555 62.0951 44.2393 62.0107C44.1253 61.9264 44.0376 61.8273 43.9761 61.7134C43.9146 61.5994 43.8838 61.4661 43.8838 61.3135C43.8838 61.1676 43.9157 61.0298 43.9795 60.8999C44.0456 60.77 44.1379 60.6549 44.2563 60.5547C44.3771 60.4544 44.5218 60.3758 44.6904 60.3188C44.859 60.2619 45.047 60.2334 45.2544 60.2334C45.5506 60.2334 45.8035 60.2858 46.0132 60.3906C46.2228 60.4954 46.3835 60.6356 46.4951 60.811C46.6068 60.9842 46.6626 61.1768 46.6626 61.3887H46.0303C46.0303 61.2861 45.9995 61.187 45.938 61.0913C45.8787 60.9933 45.791 60.9124 45.6748 60.8486C45.5609 60.7848 45.4207 60.7529 45.2544 60.7529C45.0789 60.7529 44.9365 60.7803 44.8271 60.835C44.7201 60.8874 44.6414 60.9546 44.5913 61.0366C44.5435 61.1187 44.5195 61.2052 44.5195 61.2964C44.5195 61.3647 44.5309 61.4263 44.5537 61.481C44.5788 61.5334 44.6221 61.5824 44.6836 61.6279C44.7451 61.6712 44.8317 61.7122 44.9434 61.751C45.055 61.7897 45.1974 61.8285 45.3706 61.8672C45.6737 61.9355 45.9232 62.0176 46.1191 62.1133C46.3151 62.209 46.4609 62.3263 46.5566 62.4653C46.6523 62.6043 46.7002 62.7729 46.7002 62.9712C46.7002 63.133 46.666 63.2811 46.5977 63.4155C46.5316 63.55 46.4347 63.6662 46.3071 63.7642C46.1818 63.8599 46.0314 63.9351 45.856 63.9897C45.6828 64.0422 45.488 64.0684 45.2715 64.0684C44.9456 64.0684 44.6699 64.0103 44.4443 63.894C44.2188 63.7778 44.0479 63.6274 43.9316 63.4429C43.8154 63.2583 43.7573 63.0635 43.7573 62.8584H44.3931C44.4022 63.0316 44.4523 63.1694 44.5435 63.272C44.6346 63.3722 44.7463 63.444 44.8784 63.4873C45.0106 63.5283 45.1416 63.5488 45.2715 63.5488C45.4447 63.5488 45.5894 63.526 45.7056 63.4805C45.8241 63.4349 45.9141 63.3722 45.9756 63.2925C46.0371 63.2127 46.0679 63.1216 46.0679 63.019ZM49.1904 64.0684C48.9329 64.0684 48.6994 64.0251 48.4897 63.9385C48.2824 63.8496 48.1035 63.7254 47.9531 63.5659C47.805 63.4064 47.6911 63.2173 47.6113 62.9985C47.5316 62.7798 47.4917 62.5405 47.4917 62.2808V62.1372C47.4917 61.8364 47.5361 61.5687 47.625 61.334C47.7139 61.097 47.8346 60.8965 47.9873 60.7324C48.14 60.5684 48.3132 60.4442 48.5068 60.3599C48.7005 60.2756 48.901 60.2334 49.1084 60.2334C49.3727 60.2334 49.6006 60.279 49.792 60.3701C49.9857 60.4613 50.144 60.5889 50.2671 60.7529C50.3901 60.9147 50.4813 61.1061 50.5405 61.3271C50.5998 61.5459 50.6294 61.7852 50.6294 62.0449V62.3286H47.8677V61.8125H49.9971V61.7646C49.988 61.6006 49.9538 61.4411 49.8945 61.2861C49.8376 61.1312 49.7464 61.0036 49.6211 60.9033C49.4958 60.8031 49.3249 60.7529 49.1084 60.7529C48.9648 60.7529 48.8327 60.7837 48.7119 60.8452C48.5911 60.9045 48.4875 60.9933 48.4009 61.1118C48.3143 61.2303 48.2471 61.375 48.1992 61.5459C48.1514 61.7168 48.1274 61.9139 48.1274 62.1372V62.2808C48.1274 62.4562 48.1514 62.6214 48.1992 62.7764C48.2493 62.929 48.3211 63.0635 48.4146 63.1797C48.5103 63.2959 48.6253 63.387 48.7598 63.4531C48.8965 63.5192 49.0514 63.5522 49.2246 63.5522C49.4479 63.5522 49.637 63.5067 49.792 63.4155C49.9469 63.3244 50.0825 63.2025 50.1987 63.0498L50.5815 63.354C50.5018 63.4748 50.4004 63.5898 50.2773 63.6992C50.1543 63.8086 50.0028 63.8975 49.8228 63.9658C49.645 64.0342 49.4342 64.0684 49.1904 64.0684ZM53.041 60.3018V60.7871H51.0415V60.3018H53.041ZM51.7183 59.4028H52.3506V63.084C52.3506 63.2093 52.37 63.3039 52.4087 63.3677C52.4474 63.4315 52.4976 63.4736 52.5591 63.4941C52.6206 63.5146 52.6867 63.5249 52.7573 63.5249C52.8097 63.5249 52.8644 63.5203 52.9214 63.5112C52.9806 63.4998 53.0251 63.4907 53.0547 63.4839L53.0581 64C53.008 64.016 52.9419 64.0308 52.8599 64.0444C52.7801 64.0604 52.6833 64.0684 52.5693 64.0684C52.4144 64.0684 52.272 64.0376 52.1421 63.9761C52.0122 63.9146 51.9085 63.812 51.8311 63.6685C51.7559 63.5226 51.7183 63.3267 51.7183 63.0806V59.4028ZM56.061 63.019C56.061 62.9279 56.0405 62.8436 55.9995 62.7661C55.9608 62.6864 55.8799 62.6146 55.7568 62.5508C55.6361 62.4847 55.4538 62.4277 55.21 62.3799C55.0049 62.3366 54.8192 62.2853 54.6528 62.2261C54.4888 62.1668 54.3486 62.0951 54.2324 62.0107C54.1185 61.9264 54.0308 61.8273 53.9692 61.7134C53.9077 61.5994 53.877 61.4661 53.877 61.3135C53.877 61.1676 53.9089 61.0298 53.9727 60.8999C54.0387 60.77 54.131 60.6549 54.2495 60.5547C54.3703 60.4544 54.515 60.3758 54.6836 60.3188C54.8522 60.2619 55.0402 60.2334 55.2476 60.2334C55.5438 60.2334 55.7967 60.2858 56.0063 60.3906C56.216 60.4954 56.3766 60.6356 56.4883 60.811C56.5999 60.9842 56.6558 61.1768 56.6558 61.3887H56.0234C56.0234 61.2861 55.9927 61.187 55.9312 61.0913C55.8719 60.9933 55.7842 60.9124 55.668 60.8486C55.554 60.7848 55.4139 60.7529 55.2476 60.7529C55.0721 60.7529 54.9297 60.7803 54.8203 60.835C54.7132 60.8874 54.6346 60.9546 54.5845 61.0366C54.5366 61.1187 54.5127 61.2052 54.5127 61.2964C54.5127 61.3647 54.5241 61.4263 54.5469 61.481C54.5719 61.5334 54.6152 61.5824 54.6768 61.6279C54.7383 61.6712 54.8249 61.7122 54.9365 61.751C55.0482 61.7897 55.1906 61.8285 55.3638 61.8672C55.6668 61.9355 55.9163 62.0176 56.1123 62.1133C56.3083 62.209 56.4541 62.3263 56.5498 62.4653C56.6455 62.6043 56.6934 62.7729 56.6934 62.9712C56.6934 63.133 56.6592 63.2811 56.5908 63.4155C56.5247 63.55 56.4279 63.6662 56.3003 63.7642C56.175 63.8599 56.0246 63.9351 55.8491 63.9897C55.6759 64.0422 55.4811 64.0684 55.2646 64.0684C54.9388 64.0684 54.6631 64.0103 54.4375 63.894C54.2119 63.7778 54.041 63.6274 53.9248 63.4429C53.8086 63.2583 53.7505 63.0635 53.7505 62.8584H54.3862C54.3953 63.0316 54.4455 63.1694 54.5366 63.272C54.6278 63.3722 54.7394 63.444 54.8716 63.4873C55.0037 63.5283 55.1348 63.5488 55.2646 63.5488C55.4378 63.5488 55.5825 63.526 55.6987 63.4805C55.8172 63.4349 55.9072 63.3722 55.9688 63.2925C56.0303 63.2127 56.061 63.1216 56.061 63.019Z" fill="black" fill-opacity="0.76"/>
<path d="M36.9243 77H35.8853L35.8921 76.4634H36.9243C37.2798 76.4634 37.576 76.3893 37.813 76.2412C38.05 76.0908 38.2277 75.8812 38.3462 75.6123C38.467 75.3411 38.5273 75.0244 38.5273 74.6621V74.3579C38.5273 74.0731 38.4932 73.8201 38.4248 73.5991C38.3564 73.3758 38.2562 73.1878 38.124 73.0352C37.9919 72.8802 37.8301 72.7629 37.6387 72.6831C37.4495 72.6034 37.2319 72.5635 36.9858 72.5635H35.8647V72.0234H36.9858C37.3117 72.0234 37.609 72.0781 37.8779 72.1875C38.1468 72.2946 38.3781 72.4507 38.5718 72.6558C38.7677 72.8586 38.9181 73.1047 39.0229 73.394C39.1278 73.6812 39.1802 74.0047 39.1802 74.3647V74.6621C39.1802 75.0221 39.1278 75.3468 39.0229 75.6362C38.9181 75.9233 38.7666 76.1683 38.5684 76.3711C38.3724 76.5739 38.1354 76.73 37.8574 76.8394C37.5817 76.9465 37.2707 77 36.9243 77ZM36.2373 72.0234V77H35.5776V72.0234H36.2373ZM41.7354 77.0684C41.4779 77.0684 41.2443 77.0251 41.0347 76.9385C40.8273 76.8496 40.6484 76.7254 40.498 76.5659C40.3499 76.4064 40.236 76.2173 40.1562 75.9985C40.0765 75.7798 40.0366 75.5405 40.0366 75.2808V75.1372C40.0366 74.8364 40.0811 74.5687 40.1699 74.334C40.2588 74.097 40.3796 73.8965 40.5322 73.7324C40.6849 73.5684 40.8581 73.4442 41.0518 73.3599C41.2454 73.2756 41.446 73.2334 41.6533 73.2334C41.9176 73.2334 42.1455 73.279 42.3369 73.3701C42.5306 73.4613 42.689 73.5889 42.812 73.7529C42.9351 73.9147 43.0262 74.1061 43.0854 74.3271C43.1447 74.5459 43.1743 74.7852 43.1743 75.0449V75.3286H40.4126V74.8125H42.542V74.7646C42.5329 74.6006 42.4987 74.4411 42.4395 74.2861C42.3825 74.1312 42.2913 74.0036 42.166 73.9033C42.0407 73.8031 41.8698 73.7529 41.6533 73.7529C41.5098 73.7529 41.3776 73.7837 41.2568 73.8452C41.1361 73.9045 41.0324 73.9933 40.9458 74.1118C40.8592 74.2303 40.792 74.375 40.7441 74.5459C40.6963 74.7168 40.6724 74.9139 40.6724 75.1372V75.2808C40.6724 75.4562 40.6963 75.6214 40.7441 75.7764C40.7943 75.929 40.866 76.0635 40.9595 76.1797C41.0552 76.2959 41.1702 76.387 41.3047 76.4531C41.4414 76.5192 41.5964 76.5522 41.7695 76.5522C41.9928 76.5522 42.182 76.5067 42.3369 76.4155C42.4919 76.3244 42.6274 76.2025 42.7437 76.0498L43.1265 76.354C43.0467 76.4748 42.9453 76.5898 42.8223 76.6992C42.6992 76.8086 42.5477 76.8975 42.3677 76.9658C42.1899 77.0342 41.9792 77.0684 41.7354 77.0684ZM45.1143 76.4292L46.126 73.3018H46.772L45.4424 77H45.0186L45.1143 76.4292ZM44.27 73.3018L45.3125 76.4463L45.3843 77H44.9604L43.6206 73.3018H44.27ZM48.1924 73.3018V77H47.5566V73.3018H48.1924ZM47.5088 72.3208C47.5088 72.2183 47.5396 72.1317 47.6011 72.061C47.6649 71.9904 47.7583 71.9551 47.8813 71.9551C48.0021 71.9551 48.0944 71.9904 48.1582 72.061C48.2243 72.1317 48.2573 72.2183 48.2573 72.3208C48.2573 72.4188 48.2243 72.5031 48.1582 72.5737C48.0944 72.6421 48.0021 72.6763 47.8813 72.6763C47.7583 72.6763 47.6649 72.6421 47.6011 72.5737C47.5396 72.5031 47.5088 72.4188 47.5088 72.3208ZM50.8125 76.5488C50.9629 76.5488 51.1019 76.5181 51.2295 76.4565C51.3571 76.395 51.4619 76.3107 51.5439 76.2036C51.626 76.0942 51.6727 75.9701 51.6841 75.8311H52.2856C52.2743 76.0498 52.2002 76.2537 52.0635 76.4429C51.929 76.6297 51.7524 76.7812 51.5337 76.8975C51.3149 77.0114 51.0745 77.0684 50.8125 77.0684C50.5345 77.0684 50.2918 77.0194 50.0845 76.9214C49.8794 76.8234 49.7085 76.689 49.5718 76.5181C49.4373 76.3472 49.3359 76.1512 49.2676 75.9302C49.2015 75.7069 49.1685 75.471 49.1685 75.2227V75.0791C49.1685 74.8307 49.2015 74.596 49.2676 74.375C49.3359 74.1517 49.4373 73.9546 49.5718 73.7837C49.7085 73.6128 49.8794 73.4784 50.0845 73.3804C50.2918 73.2824 50.5345 73.2334 50.8125 73.2334C51.1019 73.2334 51.3548 73.2926 51.5713 73.4111C51.7878 73.5273 51.9575 73.6868 52.0806 73.8896C52.2059 74.0902 52.2743 74.318 52.2856 74.5732H51.6841C51.6727 74.4206 51.6294 74.2827 51.5542 74.1597C51.4813 74.0366 51.381 73.9386 51.2534 73.8657C51.1281 73.7905 50.9811 73.7529 50.8125 73.7529C50.6188 73.7529 50.4559 73.7917 50.3237 73.8691C50.1938 73.9443 50.0902 74.0469 50.0127 74.1768C49.9375 74.3044 49.8828 74.4468 49.8486 74.604C49.8167 74.759 49.8008 74.9173 49.8008 75.0791V75.2227C49.8008 75.3844 49.8167 75.5439 49.8486 75.7012C49.8805 75.8584 49.9341 76.0008 50.0093 76.1284C50.0868 76.256 50.1904 76.3586 50.3203 76.436C50.4525 76.5112 50.6165 76.5488 50.8125 76.5488ZM54.6562 77.0684C54.3988 77.0684 54.1652 77.0251 53.9556 76.9385C53.7482 76.8496 53.5693 76.7254 53.4189 76.5659C53.2708 76.4064 53.1569 76.2173 53.0771 75.9985C52.9974 75.7798 52.9575 75.5405 52.9575 75.2808V75.1372C52.9575 74.8364 53.002 74.5687 53.0908 74.334C53.1797 74.097 53.3005 73.8965 53.4531 73.7324C53.6058 73.5684 53.779 73.4442 53.9727 73.3599C54.1663 73.2756 54.3669 73.2334 54.5742 73.2334C54.8385 73.2334 55.0664 73.279 55.2578 73.3701C55.4515 73.4613 55.6099 73.5889 55.7329 73.7529C55.856 73.9147 55.9471 74.1061 56.0063 74.3271C56.0656 74.5459 56.0952 74.7852 56.0952 75.0449V75.3286H53.3335V74.8125H55.4629V74.7646C55.4538 74.6006 55.4196 74.4411 55.3604 74.2861C55.3034 74.1312 55.2122 74.0036 55.0869 73.9033C54.9616 73.8031 54.7907 73.7529 54.5742 73.7529C54.4307 73.7529 54.2985 73.7837 54.1777 73.8452C54.057 73.9045 53.9533 73.9933 53.8667 74.1118C53.7801 74.2303 53.7129 74.375 53.665 74.5459C53.6172 74.7168 53.5933 74.9139 53.5933 75.1372V75.2808C53.5933 75.4562 53.6172 75.6214 53.665 75.7764C53.7152 75.929 53.7869 76.0635 53.8804 76.1797C53.9761 76.2959 54.0911 76.387 54.2256 76.4531C54.3623 76.5192 54.5173 76.5522 54.6904 76.5522C54.9137 76.5522 55.1029 76.5067 55.2578 76.4155C55.4128 76.3244 55.5483 76.2025 55.6646 76.0498L56.0474 76.354C55.9676 76.4748 55.8662 76.5898 55.7432 76.6992C55.6201 76.8086 55.4686 76.8975 55.2886 76.9658C55.1108 77.0342 54.9001 77.0684 54.6562 77.0684ZM59.1118 76.019C59.1118 75.9279 59.0913 75.8436 59.0503 75.7661C59.0116 75.6864 58.9307 75.6146 58.8076 75.5508C58.6868 75.4847 58.5046 75.4277 58.2607 75.3799C58.0557 75.3366 57.87 75.2853 57.7036 75.2261C57.5396 75.1668 57.3994 75.0951 57.2832 75.0107C57.1693 74.9264 57.0815 74.8273 57.02 74.7134C56.9585 74.5994 56.9277 74.4661 56.9277 74.3135C56.9277 74.1676 56.9596 74.0298 57.0234 73.8999C57.0895 73.77 57.1818 73.6549 57.3003 73.5547C57.4211 73.4544 57.5658 73.3758 57.7344 73.3188C57.903 73.2619 58.091 73.2334 58.2983 73.2334C58.5946 73.2334 58.8475 73.2858 59.0571 73.3906C59.2668 73.4954 59.4274 73.6356 59.5391 73.811C59.6507 73.9842 59.7065 74.1768 59.7065 74.3887H59.0742C59.0742 74.2861 59.0435 74.187 58.9819 74.0913C58.9227 73.9933 58.835 73.9124 58.7188 73.8486C58.6048 73.7848 58.4647 73.7529 58.2983 73.7529C58.1229 73.7529 57.9805 73.7803 57.8711 73.835C57.764 73.8874 57.6854 73.9546 57.6353 74.0366C57.5874 74.1187 57.5635 74.2052 57.5635 74.2964C57.5635 74.3647 57.5749 74.4263 57.5977 74.481C57.6227 74.5334 57.666 74.5824 57.7275 74.6279C57.7891 74.6712 57.8757 74.7122 57.9873 74.751C58.099 74.7897 58.2414 74.8285 58.4146 74.8672C58.7176 74.9355 58.9671 75.0176 59.1631 75.1133C59.359 75.209 59.5049 75.3263 59.6006 75.4653C59.6963 75.6043 59.7441 75.7729 59.7441 75.9712C59.7441 76.133 59.71 76.2811 59.6416 76.4155C59.5755 76.55 59.4787 76.6662 59.3511 76.7642C59.2257 76.8599 59.0754 76.9351 58.8999 76.9897C58.7267 77.0422 58.5319 77.0684 58.3154 77.0684C57.9896 77.0684 57.7139 77.0103 57.4883 76.894C57.2627 76.7778 57.0918 76.6274 56.9756 76.4429C56.8594 76.2583 56.8013 76.0635 56.8013 75.8584H57.437C57.4461 76.0316 57.4963 76.1694 57.5874 76.272C57.6785 76.3722 57.7902 76.444 57.9224 76.4873C58.0545 76.5283 58.1855 76.5488 58.3154 76.5488C58.4886 76.5488 58.6333 76.526 58.7495 76.4805C58.868 76.4349 58.958 76.3722 59.0195 76.2925C59.0811 76.2127 59.1118 76.1216 59.1118 76.019Z" fill="black" fill-opacity="0.76"/>
<path d="M38.7393 89.4634V90H36.104V89.4634H38.7393ZM36.2373 85.0234V90H35.5776V85.0234H36.2373ZM38.3906 87.1631V87.6997H36.104V87.1631H38.3906ZM38.7051 85.0234V85.5635H36.104V85.0234H38.7051ZM40.2178 87.0913V90H39.5854V86.3018H40.1836L40.2178 87.0913ZM40.0674 88.0107L39.8042 88.0005C39.8065 87.7476 39.8441 87.514 39.917 87.2998C39.9899 87.0833 40.0924 86.8953 40.2246 86.7358C40.3568 86.5763 40.514 86.4533 40.6963 86.3667C40.8809 86.2778 41.0848 86.2334 41.3081 86.2334C41.4904 86.2334 41.6545 86.2585 41.8003 86.3086C41.9461 86.3564 42.0703 86.4339 42.1729 86.541C42.2777 86.6481 42.3574 86.7871 42.4121 86.958C42.4668 87.1266 42.4941 87.3328 42.4941 87.5767V90H41.8584V87.5698C41.8584 87.3761 41.8299 87.2212 41.7729 87.105C41.716 86.9865 41.6328 86.901 41.5234 86.8486C41.4141 86.7939 41.2796 86.7666 41.1201 86.7666C40.9629 86.7666 40.8193 86.7996 40.6895 86.8657C40.5618 86.9318 40.4513 87.0229 40.3579 87.1392C40.2668 87.2554 40.195 87.3887 40.1426 87.5391C40.0924 87.6872 40.0674 87.8444 40.0674 88.0107ZM45.1279 86.3018V86.7871H43.1284V86.3018H45.1279ZM43.8052 85.4028H44.4375V89.084C44.4375 89.2093 44.4569 89.3039 44.4956 89.3677C44.5343 89.4315 44.5845 89.4736 44.646 89.4941C44.7075 89.5146 44.7736 89.5249 44.8442 89.5249C44.8966 89.5249 44.9513 89.5203 45.0083 89.5112C45.0675 89.4998 45.112 89.4907 45.1416 89.4839L45.145 90C45.0949 90.016 45.0288 90.0308 44.9468 90.0444C44.867 90.0604 44.7702 90.0684 44.6562 90.0684C44.5013 90.0684 44.3589 90.0376 44.229 89.9761C44.0991 89.9146 43.9954 89.812 43.918 89.6685C43.8428 89.5226 43.8052 89.3267 43.8052 89.0806V85.4028ZM46.6816 86.3018V90H46.0459V86.3018H46.6816ZM45.998 85.3208C45.998 85.2183 46.0288 85.1317 46.0903 85.061C46.1541 84.9904 46.2476 84.9551 46.3706 84.9551C46.4914 84.9551 46.5837 84.9904 46.6475 85.061C46.7135 85.1317 46.7466 85.2183 46.7466 85.3208C46.7466 85.4188 46.7135 85.5031 46.6475 85.5737C46.5837 85.6421 46.4914 85.6763 46.3706 85.6763C46.2476 85.6763 46.1541 85.6421 46.0903 85.5737C46.0288 85.5031 45.998 85.4188 45.998 85.3208ZM49.3701 86.3018V86.7871H47.3706V86.3018H49.3701ZM48.0474 85.4028H48.6797V89.084C48.6797 89.2093 48.6991 89.3039 48.7378 89.3677C48.7765 89.4315 48.8267 89.4736 48.8882 89.4941C48.9497 89.5146 49.0158 89.5249 49.0864 89.5249C49.1388 89.5249 49.1935 89.5203 49.2505 89.5112C49.3097 89.4998 49.3542 89.4907 49.3838 89.4839L49.3872 90C49.3371 90.016 49.271 90.0308 49.189 90.0444C49.1092 90.0604 49.0124 90.0684 48.8984 90.0684C48.7435 90.0684 48.6011 90.0376 48.4712 89.9761C48.3413 89.9146 48.2376 89.812 48.1602 89.6685C48.085 89.5226 48.0474 89.3267 48.0474 89.0806V85.4028ZM51.2759 89.6172L52.3047 86.3018H52.9814L51.498 90.5708C51.4639 90.6619 51.4183 90.7599 51.3613 90.8647C51.3066 90.9718 51.236 91.0732 51.1494 91.1689C51.0628 91.2646 50.958 91.3421 50.835 91.4014C50.7142 91.4629 50.5695 91.4937 50.4009 91.4937C50.3507 91.4937 50.2869 91.4868 50.2095 91.4731C50.132 91.4595 50.0773 91.4481 50.0454 91.439L50.042 90.9263C50.0602 90.9285 50.0887 90.9308 50.1274 90.9331C50.1685 90.9377 50.1969 90.9399 50.2129 90.9399C50.3564 90.9399 50.4784 90.9206 50.5786 90.8818C50.6789 90.8454 50.7632 90.7827 50.8315 90.6938C50.9022 90.6073 50.9626 90.4876 51.0127 90.335L51.2759 89.6172ZM50.5205 86.3018L51.481 89.1729L51.645 89.8394L51.1904 90.0718L49.8301 86.3018H50.5205ZM57.2407 89.2446L58.707 85.0234H59.4214L57.5791 90H57.0698L57.2407 89.2446ZM55.8701 85.0234L57.3228 89.2446L57.5039 90H56.9946L55.1558 85.0234H55.8701ZM60.8076 86.3018V90H60.1719V86.3018H60.8076ZM60.124 85.3208C60.124 85.2183 60.1548 85.1317 60.2163 85.061C60.2801 84.9904 60.3735 84.9551 60.4966 84.9551C60.6174 84.9551 60.7096 84.9904 60.7734 85.061C60.8395 85.1317 60.8726 85.2183 60.8726 85.3208C60.8726 85.4188 60.8395 85.5031 60.7734 85.5737C60.7096 85.6421 60.6174 85.6763 60.4966 85.6763C60.3735 85.6763 60.2801 85.6421 60.2163 85.5737C60.1548 85.5031 60.124 85.4188 60.124 85.3208ZM63.4824 90.0684C63.2249 90.0684 62.9914 90.0251 62.7817 89.9385C62.5744 89.8496 62.3955 89.7254 62.2451 89.5659C62.097 89.4064 61.9831 89.2173 61.9033 88.9985C61.8236 88.7798 61.7837 88.5405 61.7837 88.2808V88.1372C61.7837 87.8364 61.8281 87.5687 61.917 87.334C62.0059 87.097 62.1266 86.8965 62.2793 86.7324C62.432 86.5684 62.6051 86.4442 62.7988 86.3599C62.9925 86.2756 63.193 86.2334 63.4004 86.2334C63.6647 86.2334 63.8926 86.279 64.084 86.3701C64.2777 86.4613 64.436 86.5889 64.5591 86.7529C64.6821 86.9147 64.7733 87.1061 64.8325 87.3271C64.8918 87.5459 64.9214 87.7852 64.9214 88.0449V88.3286H62.1597V87.8125H64.2891V87.7646C64.2799 87.6006 64.2458 87.4411 64.1865 87.2861C64.1296 87.1312 64.0384 87.0036 63.9131 86.9033C63.7878 86.8031 63.6169 86.7529 63.4004 86.7529C63.2568 86.7529 63.1247 86.7837 63.0039 86.8452C62.8831 86.9045 62.7795 86.9933 62.6929 87.1118C62.6063 87.2303 62.5391 87.375 62.4912 87.5459C62.4434 87.7168 62.4194 87.9139 62.4194 88.1372V88.2808C62.4194 88.4562 62.4434 88.6214 62.4912 88.7764C62.5413 88.929 62.6131 89.0635 62.7065 89.1797C62.8022 89.2959 62.9173 89.387 63.0518 89.4531C63.1885 89.5192 63.3434 89.5522 63.5166 89.5522C63.7399 89.5522 63.929 89.5067 64.084 89.4155C64.2389 89.3244 64.3745 89.2025 64.4907 89.0498L64.8735 89.354C64.7938 89.4748 64.6924 89.5898 64.5693 89.6992C64.4463 89.8086 64.2948 89.8975 64.1147 89.9658C63.937 90.0342 63.7262 90.0684 63.4824 90.0684ZM66.7212 89.3438L67.6714 86.3018H68.0884L68.0063 86.9067L67.0391 90H66.6323L66.7212 89.3438ZM66.082 86.3018L66.8921 89.3779L66.9502 90H66.5229L65.4497 86.3018H66.082ZM68.9976 89.354L69.77 86.3018H70.3989L69.3257 90H68.9019L68.9976 89.354ZM68.1807 86.3018L69.1104 89.2925L69.2163 90H68.813L67.8184 86.8999L67.7363 86.3018H68.1807ZM73.3267 89.019C73.3267 88.9279 73.3062 88.8436 73.2651 88.7661C73.2264 88.6864 73.1455 88.6146 73.0225 88.5508C72.9017 88.4847 72.7194 88.4277 72.4756 88.3799C72.2705 88.3366 72.0848 88.2853 71.9185 88.2261C71.7544 88.1668 71.6143 88.0951 71.498 88.0107C71.3841 87.9264 71.2964 87.8273 71.2349 87.7134C71.1733 87.5994 71.1426 87.4661 71.1426 87.3135C71.1426 87.1676 71.1745 87.0298 71.2383 86.8999C71.3044 86.77 71.3966 86.6549 71.5151 86.5547C71.6359 86.4544 71.7806 86.3758 71.9492 86.3188C72.1178 86.2619 72.3058 86.2334 72.5132 86.2334C72.8094 86.2334 73.0623 86.2858 73.272 86.3906C73.4816 86.4954 73.6423 86.6356 73.7539 86.811C73.8656 86.9842 73.9214 87.1768 73.9214 87.3887H73.2891C73.2891 87.2861 73.2583 87.187 73.1968 87.0913C73.1375 86.9933 73.0498 86.9124 72.9336 86.8486C72.8197 86.7848 72.6795 86.7529 72.5132 86.7529C72.3377 86.7529 72.1953 86.7803 72.0859 86.835C71.9788 86.8874 71.9002 86.9546 71.8501 87.0366C71.8022 87.1187 71.7783 87.2052 71.7783 87.2964C71.7783 87.3647 71.7897 87.4263 71.8125 87.481C71.8376 87.5334 71.8809 87.5824 71.9424 87.6279C72.0039 87.6712 72.0905 87.7122 72.2021 87.751C72.3138 87.7897 72.4562 87.8285 72.6294 87.8672C72.9325 87.9355 73.182 88.0176 73.3779 88.1133C73.5739 88.209 73.7197 88.3263 73.8154 88.4653C73.9111 88.6043 73.959 88.7729 73.959 88.9712C73.959 89.133 73.9248 89.2811 73.8564 89.4155C73.7904 89.55 73.6935 89.6662 73.5659 89.7642C73.4406 89.8599 73.2902 89.9351 73.1147 89.9897C72.9416 90.0422 72.7467 90.0684 72.5303 90.0684C72.2044 90.0684 71.9287 90.0103 71.7031 89.894C71.4775 89.7778 71.3066 89.6274 71.1904 89.4429C71.0742 89.2583 71.0161 89.0635 71.0161 88.8584H71.6519C71.661 89.0316 71.7111 89.1694 71.8022 89.272C71.8934 89.3722 72.005 89.444 72.1372 89.4873C72.2694 89.5283 72.4004 89.5488 72.5303 89.5488C72.7035 89.5488 72.8481 89.526 72.9644 89.4805C73.0828 89.4349 73.1729 89.3722 73.2344 89.2925C73.2959 89.2127 73.3267 89.1216 73.3267 89.019Z" fill="black" fill-opacity="0.76"/>
<path d="M36.9243 102H35.8853L35.8921 101.463H36.9243C37.2798 101.463 37.576 101.389 37.813 101.241C38.05 101.091 38.2277 100.881 38.3462 100.612C38.467 100.341 38.5273 100.024 38.5273 99.6621V99.3579C38.5273 99.0731 38.4932 98.8201 38.4248 98.5991C38.3564 98.3758 38.2562 98.1878 38.124 98.0352C37.9919 97.8802 37.8301 97.7629 37.6387 97.6831C37.4495 97.6034 37.2319 97.5635 36.9858 97.5635H35.8647V97.0234H36.9858C37.3117 97.0234 37.609 97.0781 37.8779 97.1875C38.1468 97.2946 38.3781 97.4507 38.5718 97.6558C38.7677 97.8586 38.9181 98.1047 39.0229 98.394C39.1278 98.6812 39.1802 99.0047 39.1802 99.3647V99.6621C39.1802 100.022 39.1278 100.347 39.0229 100.636C38.9181 100.923 38.7666 101.168 38.5684 101.371C38.3724 101.574 38.1354 101.73 37.8574 101.839C37.5817 101.946 37.2707 102 36.9243 102ZM36.2373 97.0234V102H35.5776V97.0234H36.2373ZM42.3813 101.368V99.4639C42.3813 99.318 42.3517 99.1916 42.2925 99.0845C42.2355 98.9751 42.1489 98.8908 42.0327 98.8315C41.9165 98.7723 41.7729 98.7427 41.6021 98.7427C41.4425 98.7427 41.3024 98.77 41.1816 98.8247C41.0632 98.8794 40.9697 98.9512 40.9014 99.04C40.8353 99.1289 40.8022 99.2246 40.8022 99.3271H40.1699C40.1699 99.195 40.2041 99.064 40.2725 98.9341C40.3408 98.8042 40.4388 98.6868 40.5664 98.582C40.6963 98.4749 40.8512 98.3906 41.0312 98.3291C41.2135 98.2653 41.4163 98.2334 41.6396 98.2334C41.9085 98.2334 42.1455 98.279 42.3506 98.3701C42.5579 98.4613 42.7197 98.5991 42.8359 98.7837C42.9544 98.966 43.0137 99.195 43.0137 99.4707V101.193C43.0137 101.316 43.0239 101.447 43.0444 101.586C43.0672 101.725 43.1003 101.845 43.1436 101.945V102H42.4839C42.452 101.927 42.4269 101.83 42.4087 101.709C42.3905 101.586 42.3813 101.472 42.3813 101.368ZM42.4907 99.7578L42.4976 100.202H41.8584C41.6784 100.202 41.5177 100.217 41.3765 100.247C41.2352 100.274 41.1167 100.316 41.021 100.373C40.9253 100.43 40.8524 100.502 40.8022 100.588C40.7521 100.673 40.7271 100.772 40.7271 100.886C40.7271 101.002 40.7533 101.108 40.8057 101.204C40.8581 101.299 40.9367 101.376 41.0415 101.433C41.1486 101.487 41.2796 101.515 41.4346 101.515C41.6283 101.515 41.7992 101.474 41.9473 101.392C42.0954 101.31 42.2127 101.209 42.2993 101.091C42.3882 100.972 42.436 100.857 42.4429 100.746L42.7129 101.05C42.6969 101.146 42.6536 101.251 42.583 101.368C42.5124 101.484 42.4178 101.596 42.2993 101.703C42.1831 101.807 42.0441 101.895 41.8823 101.966C41.7228 102.034 41.5428 102.068 41.3423 102.068C41.0916 102.068 40.8717 102.019 40.6826 101.921C40.4958 101.823 40.3499 101.692 40.2451 101.528C40.1426 101.362 40.0913 101.176 40.0913 100.971C40.0913 100.773 40.13 100.599 40.2075 100.448C40.285 100.296 40.3966 100.169 40.5425 100.069C40.6883 99.9663 40.8638 99.8888 41.0688 99.8364C41.2739 99.784 41.5029 99.7578 41.7559 99.7578H42.4907ZM46.2866 101.019C46.2866 100.928 46.2661 100.844 46.2251 100.766C46.1864 100.686 46.1055 100.615 45.9824 100.551C45.8617 100.485 45.6794 100.428 45.4355 100.38C45.2305 100.337 45.0448 100.285 44.8784 100.226C44.7144 100.167 44.5742 100.095 44.458 100.011C44.3441 99.9264 44.2563 99.8273 44.1948 99.7134C44.1333 99.5994 44.1025 99.4661 44.1025 99.3135C44.1025 99.1676 44.1344 99.0298 44.1982 98.8999C44.2643 98.77 44.3566 98.6549 44.4751 98.5547C44.5959 98.4544 44.7406 98.3758 44.9092 98.3188C45.0778 98.2619 45.2658 98.2334 45.4731 98.2334C45.7694 98.2334 46.0223 98.2858 46.2319 98.3906C46.4416 98.4954 46.6022 98.6356 46.7139 98.811C46.8255 98.9842 46.8813 99.1768 46.8813 99.3887H46.249C46.249 99.2861 46.2183 99.187 46.1567 99.0913C46.0975 98.9933 46.0098 98.9124 45.8936 98.8486C45.7796 98.7848 45.6395 98.7529 45.4731 98.7529C45.2977 98.7529 45.1553 98.7803 45.0459 98.835C44.9388 98.8874 44.8602 98.9546 44.8101 99.0366C44.7622 99.1187 44.7383 99.2052 44.7383 99.2964C44.7383 99.3647 44.7497 99.4263 44.7725 99.481C44.7975 99.5334 44.8408 99.5824 44.9023 99.6279C44.9639 99.6712 45.0505 99.7122 45.1621 99.751C45.2738 99.7897 45.4162 99.8285 45.5894 99.8672C45.8924 99.9355 46.1419 100.018 46.3379 100.113C46.5339 100.209 46.6797 100.326 46.7754 100.465C46.8711 100.604 46.9189 100.773 46.9189 100.971C46.9189 101.133 46.8848 101.281 46.8164 101.416C46.7503 101.55 46.6535 101.666 46.5259 101.764C46.4006 101.86 46.2502 101.935 46.0747 101.99C45.9015 102.042 45.7067 102.068 45.4902 102.068C45.1644 102.068 44.8887 102.01 44.6631 101.894C44.4375 101.778 44.2666 101.627 44.1504 101.443C44.0342 101.258 43.9761 101.063 43.9761 100.858H44.6118C44.6209 101.032 44.6711 101.169 44.7622 101.272C44.8534 101.372 44.965 101.444 45.0972 101.487C45.2293 101.528 45.3604 101.549 45.4902 101.549C45.6634 101.549 45.8081 101.526 45.9243 101.48C46.0428 101.435 46.1328 101.372 46.1943 101.292C46.2559 101.213 46.2866 101.122 46.2866 101.019ZM48.5068 96.75V102H47.8745V96.75H48.5068ZM48.3564 100.011L48.0933 100C48.0955 99.7476 48.1331 99.514 48.2061 99.2998C48.279 99.0833 48.3815 98.8953 48.5137 98.7358C48.6458 98.5763 48.8031 98.4533 48.9854 98.3667C49.1699 98.2778 49.3739 98.2334 49.5972 98.2334C49.7795 98.2334 49.9435 98.2585 50.0894 98.3086C50.2352 98.3564 50.3594 98.4339 50.4619 98.541C50.5667 98.6481 50.6465 98.7871 50.7012 98.958C50.7559 99.1266 50.7832 99.3328 50.7832 99.5767V102H50.1475V99.5698C50.1475 99.3761 50.119 99.2212 50.062 99.105C50.005 98.9865 49.9219 98.901 49.8125 98.8486C49.7031 98.7939 49.5687 98.7666 49.4092 98.7666C49.252 98.7666 49.1084 98.7996 48.9785 98.8657C48.8509 98.9318 48.7404 99.0229 48.647 99.1392C48.5558 99.2554 48.484 99.3887 48.4316 99.5391C48.3815 99.6872 48.3564 99.8444 48.3564 100.011ZM51.8516 96.75H52.4873V101.282L52.4326 102H51.8516V96.75ZM54.9858 100.12V100.192C54.9858 100.461 54.9539 100.71 54.8901 100.94C54.8263 101.168 54.7329 101.367 54.6099 101.535C54.4868 101.704 54.3364 101.835 54.1587 101.928C53.981 102.022 53.777 102.068 53.5469 102.068C53.3122 102.068 53.106 102.028 52.9282 101.949C52.7528 101.867 52.6047 101.749 52.4839 101.597C52.3631 101.444 52.2663 101.259 52.1934 101.043C52.1227 100.826 52.0737 100.583 52.0464 100.312V99.9971C52.0737 99.7236 52.1227 99.4787 52.1934 99.2622C52.2663 99.0457 52.3631 98.8612 52.4839 98.7085C52.6047 98.5535 52.7528 98.4362 52.9282 98.3564C53.1037 98.2744 53.3076 98.2334 53.54 98.2334C53.7725 98.2334 53.9787 98.279 54.1587 98.3701C54.3387 98.459 54.4891 98.5866 54.6099 98.7529C54.7329 98.9193 54.8263 99.1187 54.8901 99.3511C54.9539 99.5812 54.9858 99.8376 54.9858 100.12ZM54.3501 100.192V100.12C54.3501 99.9355 54.333 99.7624 54.2988 99.6006C54.2646 99.4365 54.21 99.293 54.1348 99.1699C54.0596 99.0446 53.9604 98.9466 53.8374 98.876C53.7144 98.8031 53.5628 98.7666 53.3828 98.7666C53.2233 98.7666 53.0843 98.7939 52.9658 98.8486C52.8496 98.9033 52.7505 98.9774 52.6685 99.0708C52.5864 99.1619 52.5192 99.2668 52.4668 99.3853C52.4167 99.5015 52.3791 99.6222 52.354 99.7476V100.571C52.3905 100.731 52.4497 100.885 52.5317 101.033C52.616 101.179 52.7277 101.298 52.8667 101.392C53.008 101.485 53.1823 101.532 53.3896 101.532C53.5605 101.532 53.7064 101.498 53.8271 101.429C53.9502 101.359 54.0493 101.262 54.1245 101.139C54.202 101.016 54.259 100.873 54.2954 100.711C54.3319 100.55 54.3501 100.376 54.3501 100.192ZM55.7432 100.192V100.113C55.7432 99.8467 55.7819 99.5994 55.8594 99.3716C55.9368 99.1414 56.0485 98.9421 56.1943 98.7734C56.3402 98.6025 56.5168 98.4704 56.7241 98.377C56.9315 98.2812 57.1639 98.2334 57.4214 98.2334C57.6812 98.2334 57.9147 98.2812 58.1221 98.377C58.3317 98.4704 58.5094 98.6025 58.6553 98.7734C58.8034 98.9421 58.9162 99.1414 58.9937 99.3716C59.0711 99.5994 59.1099 99.8467 59.1099 100.113V100.192C59.1099 100.458 59.0711 100.706 58.9937 100.934C58.9162 101.161 58.8034 101.361 58.6553 101.532C58.5094 101.7 58.3328 101.833 58.1255 101.928C57.9204 102.022 57.688 102.068 57.4282 102.068C57.1685 102.068 56.9349 102.022 56.7275 101.928C56.5202 101.833 56.3424 101.7 56.1943 101.532C56.0485 101.361 55.9368 101.161 55.8594 100.934C55.7819 100.706 55.7432 100.458 55.7432 100.192ZM56.3755 100.113V100.192C56.3755 100.376 56.3971 100.551 56.4404 100.715C56.4837 100.877 56.5487 101.02 56.6353 101.146C56.7241 101.271 56.8346 101.37 56.9668 101.443C57.099 101.514 57.2528 101.549 57.4282 101.549C57.6014 101.549 57.7529 101.514 57.8828 101.443C58.015 101.37 58.1243 101.271 58.2109 101.146C58.2975 101.02 58.3625 100.877 58.4058 100.715C58.4513 100.551 58.4741 100.376 58.4741 100.192V100.113C58.4741 99.931 58.4513 99.759 58.4058 99.5972C58.3625 99.4331 58.2964 99.2884 58.2075 99.1631C58.1209 99.0355 58.0116 98.9352 57.8794 98.8623C57.7495 98.7894 57.5968 98.7529 57.4214 98.7529C57.2482 98.7529 57.0955 98.7894 56.9634 98.8623C56.8335 98.9352 56.7241 99.0355 56.6353 99.1631C56.5487 99.2884 56.4837 99.4331 56.4404 99.5972C56.3971 99.759 56.3755 99.931 56.3755 100.113ZM62.2085 101.368V99.4639C62.2085 99.318 62.1789 99.1916 62.1196 99.0845C62.0627 98.9751 61.9761 98.8908 61.8599 98.8315C61.7437 98.7723 61.6001 98.7427 61.4292 98.7427C61.2697 98.7427 61.1296 98.77 61.0088 98.8247C60.8903 98.8794 60.7969 98.9512 60.7285 99.04C60.6624 99.1289 60.6294 99.2246 60.6294 99.3271H59.9971C59.9971 99.195 60.0312 99.064 60.0996 98.9341C60.168 98.8042 60.266 98.6868 60.3936 98.582C60.5234 98.4749 60.6784 98.3906 60.8584 98.3291C61.0407 98.2653 61.2435 98.2334 61.4668 98.2334C61.7357 98.2334 61.9727 98.279 62.1777 98.3701C62.3851 98.4613 62.5469 98.5991 62.6631 98.7837C62.7816 98.966 62.8408 99.195 62.8408 99.4707V101.193C62.8408 101.316 62.8511 101.447 62.8716 101.586C62.8944 101.725 62.9274 101.845 62.9707 101.945V102H62.311C62.2791 101.927 62.2541 101.83 62.2358 101.709C62.2176 101.586 62.2085 101.472 62.2085 101.368ZM62.3179 99.7578L62.3247 100.202H61.6855C61.5055 100.202 61.3449 100.217 61.2036 100.247C61.0623 100.274 60.9438 100.316 60.8481 100.373C60.7524 100.43 60.6795 100.502 60.6294 100.588C60.5793 100.673 60.5542 100.772 60.5542 100.886C60.5542 101.002 60.5804 101.108 60.6328 101.204C60.6852 101.299 60.7638 101.376 60.8687 101.433C60.9757 101.487 61.1068 101.515 61.2617 101.515C61.4554 101.515 61.6263 101.474 61.7744 101.392C61.9225 101.31 62.0399 101.209 62.1265 101.091C62.2153 100.972 62.2632 100.857 62.27 100.746L62.54 101.05C62.5241 101.146 62.4808 101.251 62.4102 101.368C62.3395 101.484 62.245 101.596 62.1265 101.703C62.0103 101.807 61.8713 101.895 61.7095 101.966C61.55 102.034 61.37 102.068 61.1694 102.068C60.9188 102.068 60.6989 102.019 60.5098 101.921C60.3229 101.823 60.1771 101.692 60.0723 101.528C59.9697 101.362 59.9185 101.176 59.9185 100.971C59.9185 100.773 59.9572 100.599 60.0347 100.448C60.1121 100.296 60.2238 100.169 60.3696 100.069C60.5155 99.9663 60.6909 99.8888 60.896 99.8364C61.1011 99.784 61.3301 99.7578 61.583 99.7578H62.3179ZM64.5928 98.8828V102H63.9604V98.3018H64.5757L64.5928 98.8828ZM65.748 98.2812L65.7446 98.8691C65.6922 98.8577 65.6421 98.8509 65.5942 98.8486C65.5487 98.8441 65.4963 98.8418 65.437 98.8418C65.2912 98.8418 65.1624 98.8646 65.0508 98.9102C64.9391 98.9557 64.8446 99.0195 64.7671 99.1016C64.6896 99.1836 64.6281 99.2816 64.5825 99.3955C64.5392 99.5072 64.5107 99.6302 64.4971 99.7646L64.3193 99.8672C64.3193 99.6439 64.341 99.4342 64.3843 99.2383C64.4299 99.0423 64.4993 98.8691 64.5928 98.7188C64.6862 98.5661 64.8047 98.4476 64.9482 98.3633C65.0941 98.2767 65.2673 98.2334 65.4678 98.2334C65.5133 98.2334 65.5658 98.2391 65.625 98.2505C65.6842 98.2596 65.7253 98.2699 65.748 98.2812ZM68.7202 101.282V96.75H69.356V102H68.7749L68.7202 101.282ZM66.2319 100.192V100.12C66.2319 99.8376 66.2661 99.5812 66.3345 99.3511C66.4051 99.1187 66.5042 98.9193 66.6318 98.7529C66.7617 98.5866 66.9155 98.459 67.0933 98.3701C67.2733 98.279 67.4738 98.2334 67.6948 98.2334C67.9272 98.2334 68.13 98.2744 68.3032 98.3564C68.4787 98.4362 68.6268 98.5535 68.7476 98.7085C68.8706 98.8612 68.9674 99.0457 69.0381 99.2622C69.1087 99.4787 69.1577 99.7236 69.1851 99.9971V100.312C69.16 100.583 69.111 100.826 69.0381 101.043C68.9674 101.259 68.8706 101.444 68.7476 101.597C68.6268 101.749 68.4787 101.867 68.3032 101.949C68.1278 102.028 67.9227 102.068 67.688 102.068C67.4715 102.068 67.2733 102.022 67.0933 101.928C66.9155 101.835 66.7617 101.704 66.6318 101.535C66.5042 101.367 66.4051 101.168 66.3345 100.94C66.2661 100.71 66.2319 100.461 66.2319 100.192ZM66.8677 100.12V100.192C66.8677 100.376 66.8859 100.55 66.9224 100.711C66.9611 100.873 67.0203 101.016 67.1001 101.139C67.1799 101.262 67.2812 101.359 67.4043 101.429C67.5273 101.498 67.6743 101.532 67.8452 101.532C68.0549 101.532 68.2269 101.487 68.3613 101.398C68.498 101.31 68.6074 101.192 68.6895 101.046C68.7715 100.901 68.8353 100.742 68.8809 100.571V99.7476C68.8535 99.6222 68.8136 99.5015 68.7612 99.3853C68.7111 99.2668 68.645 99.1619 68.563 99.0708C68.4832 98.9774 68.3841 98.9033 68.2656 98.8486C68.1494 98.7939 68.0116 98.7666 67.8521 98.7666C67.6789 98.7666 67.5296 98.8031 67.4043 98.876C67.2812 98.9466 67.1799 99.0446 67.1001 99.1699C67.0203 99.293 66.9611 99.4365 66.9224 99.6006C66.8859 99.7624 66.8677 99.9355 66.8677 100.12ZM72.6187 101.019C72.6187 100.928 72.5981 100.844 72.5571 100.766C72.5184 100.686 72.4375 100.615 72.3145 100.551C72.1937 100.485 72.0114 100.428 71.7676 100.38C71.5625 100.337 71.3768 100.285 71.2104 100.226C71.0464 100.167 70.9062 100.095 70.79 100.011C70.6761 99.9264 70.5884 99.8273 70.5269 99.7134C70.4653 99.5994 70.4346 99.4661 70.4346 99.3135C70.4346 99.1676 70.4665 99.0298 70.5303 98.8999C70.5964 98.77 70.6886 98.6549 70.8071 98.5547C70.9279 98.4544 71.0726 98.3758 71.2412 98.3188C71.4098 98.2619 71.5978 98.2334 71.8052 98.2334C72.1014 98.2334 72.3543 98.2858 72.564 98.3906C72.7736 98.4954 72.9342 98.6356 73.0459 98.811C73.1576 98.9842 73.2134 99.1768 73.2134 99.3887H72.5811C72.5811 99.2861 72.5503 99.187 72.4888 99.0913C72.4295 98.9933 72.3418 98.9124 72.2256 98.8486C72.1117 98.7848 71.9715 98.7529 71.8052 98.7529C71.6297 98.7529 71.4873 98.7803 71.3779 98.835C71.2708 98.8874 71.1922 98.9546 71.1421 99.0366C71.0942 99.1187 71.0703 99.2052 71.0703 99.2964C71.0703 99.3647 71.0817 99.4263 71.1045 99.481C71.1296 99.5334 71.1729 99.5824 71.2344 99.6279C71.2959 99.6712 71.3825 99.7122 71.4941 99.751C71.6058 99.7897 71.7482 99.8285 71.9214 99.8672C72.2244 99.9355 72.474 100.018 72.6699 100.113C72.8659 100.209 73.0117 100.326 73.1074 100.465C73.2031 100.604 73.251 100.773 73.251 100.971C73.251 101.133 73.2168 101.281 73.1484 101.416C73.0824 101.55 72.9855 101.666 72.8579 101.764C72.7326 101.86 72.5822 101.935 72.4067 101.99C72.2336 102.042 72.0387 102.068 71.8223 102.068C71.4964 102.068 71.2207 102.01 70.9951 101.894C70.7695 101.778 70.5986 101.627 70.4824 101.443C70.3662 101.258 70.3081 101.063 70.3081 100.858H70.9438C70.953 101.032 71.0031 101.169 71.0942 101.272C71.1854 101.372 71.297 101.444 71.4292 101.487C71.5614 101.528 71.6924 101.549 71.8223 101.549C71.9954 101.549 72.1401 101.526 72.2563 101.48C72.3748 101.435 72.4648 101.372 72.5264 101.292C72.5879 101.213 72.6187 101.122 72.6187 101.019Z" fill="black" fill-opacity="0.76"/>
<path d="M35.5776 109.023H37.2251C37.5988 109.023 37.9144 109.08 38.1719 109.194C38.4316 109.308 38.6287 109.477 38.7632 109.7C38.8999 109.921 38.9683 110.194 38.9683 110.517C38.9683 110.745 38.9215 110.953 38.8281 111.143C38.737 111.329 38.6048 111.489 38.4316 111.621C38.2607 111.751 38.0557 111.848 37.8164 111.912L37.6318 111.983H36.0835L36.0767 111.447H37.2456C37.4826 111.447 37.6797 111.406 37.8369 111.324C37.9941 111.239 38.1126 111.127 38.1924 110.985C38.2721 110.844 38.312 110.688 38.312 110.517C38.312 110.326 38.2744 110.158 38.1992 110.015C38.124 109.871 38.0055 109.761 37.8438 109.683C37.6842 109.603 37.478 109.563 37.2251 109.563H36.2373V114H35.5776V109.023ZM38.4863 114L37.2764 111.744L37.9634 111.741L39.1904 113.959V114H38.4863ZM42.1831 113.146V110.302H42.8188V114H42.2139L42.1831 113.146ZM42.3027 112.366L42.5659 112.359C42.5659 112.605 42.5397 112.833 42.4873 113.043C42.4372 113.25 42.3551 113.43 42.2412 113.583C42.1273 113.736 41.978 113.855 41.7935 113.942C41.6089 114.026 41.3844 114.068 41.1201 114.068C40.9401 114.068 40.7749 114.042 40.6245 113.99C40.4764 113.937 40.3488 113.856 40.2417 113.747C40.1346 113.638 40.0514 113.495 39.9922 113.32C39.9352 113.144 39.9067 112.934 39.9067 112.688V110.302H40.5391V112.694C40.5391 112.861 40.5573 112.999 40.5938 113.108C40.6325 113.215 40.6838 113.3 40.7476 113.364C40.8136 113.426 40.8866 113.469 40.9663 113.494C41.0483 113.519 41.1326 113.532 41.2192 113.532C41.4881 113.532 41.7012 113.48 41.8584 113.378C42.0156 113.273 42.1284 113.133 42.1968 112.958C42.2674 112.78 42.3027 112.583 42.3027 112.366ZM44.5947 108.75V114H43.959V108.75H44.5947ZM47.2695 114.068C47.012 114.068 46.7785 114.025 46.5688 113.938C46.3615 113.85 46.1826 113.725 46.0322 113.566C45.8841 113.406 45.7702 113.217 45.6904 112.999C45.6107 112.78 45.5708 112.541 45.5708 112.281V112.137C45.5708 111.836 45.6152 111.569 45.7041 111.334C45.793 111.097 45.9137 110.896 46.0664 110.732C46.2191 110.568 46.3923 110.444 46.5859 110.36C46.7796 110.276 46.9801 110.233 47.1875 110.233C47.4518 110.233 47.6797 110.279 47.8711 110.37C48.0648 110.461 48.2231 110.589 48.3462 110.753C48.4692 110.915 48.5604 111.106 48.6196 111.327C48.6789 111.546 48.7085 111.785 48.7085 112.045V112.329H45.9468V111.812H48.0762V111.765C48.0671 111.601 48.0329 111.441 47.9736 111.286C47.9167 111.131 47.8255 111.004 47.7002 110.903C47.5749 110.803 47.404 110.753 47.1875 110.753C47.0439 110.753 46.9118 110.784 46.791 110.845C46.6702 110.904 46.5666 110.993 46.48 111.112C46.3934 111.23 46.3262 111.375 46.2783 111.546C46.2305 111.717 46.2065 111.914 46.2065 112.137V112.281C46.2065 112.456 46.2305 112.621 46.2783 112.776C46.3285 112.929 46.4002 113.063 46.4937 113.18C46.5894 113.296 46.7044 113.387 46.8389 113.453C46.9756 113.519 47.1305 113.552 47.3037 113.552C47.527 113.552 47.7161 113.507 47.8711 113.416C48.026 113.324 48.1616 113.202 48.2778 113.05L48.6606 113.354C48.5809 113.475 48.4795 113.59 48.3564 113.699C48.2334 113.809 48.0819 113.897 47.9019 113.966C47.7241 114.034 47.5133 114.068 47.2695 114.068ZM52.9131 113.549C53.0635 113.549 53.2025 113.518 53.3301 113.457C53.4577 113.395 53.5625 113.311 53.6445 113.204C53.7266 113.094 53.7733 112.97 53.7847 112.831H54.3862C54.3748 113.05 54.3008 113.254 54.1641 113.443C54.0296 113.63 53.853 113.781 53.6343 113.897C53.4155 114.011 53.1751 114.068 52.9131 114.068C52.6351 114.068 52.3924 114.019 52.1851 113.921C51.98 113.823 51.8091 113.689 51.6724 113.518C51.5379 113.347 51.4365 113.151 51.3682 112.93C51.3021 112.707 51.269 112.471 51.269 112.223V112.079C51.269 111.831 51.3021 111.596 51.3682 111.375C51.4365 111.152 51.5379 110.955 51.6724 110.784C51.8091 110.613 51.98 110.478 52.1851 110.38C52.3924 110.282 52.6351 110.233 52.9131 110.233C53.2025 110.233 53.4554 110.293 53.6719 110.411C53.8883 110.527 54.0581 110.687 54.1812 110.89C54.3065 111.09 54.3748 111.318 54.3862 111.573H53.7847C53.7733 111.421 53.73 111.283 53.6548 111.16C53.5819 111.037 53.4816 110.939 53.354 110.866C53.2287 110.791 53.0817 110.753 52.9131 110.753C52.7194 110.753 52.5565 110.792 52.4243 110.869C52.2944 110.944 52.1908 111.047 52.1133 111.177C52.0381 111.304 51.9834 111.447 51.9492 111.604C51.9173 111.759 51.9014 111.917 51.9014 112.079V112.223C51.9014 112.384 51.9173 112.544 51.9492 112.701C51.9811 112.858 52.0347 113.001 52.1099 113.128C52.1873 113.256 52.291 113.359 52.4209 113.436C52.5531 113.511 52.7171 113.549 52.9131 113.549ZM55.8545 108.75V114H55.2222V108.75H55.8545ZM55.7041 112.011L55.4409 112C55.4432 111.748 55.4808 111.514 55.5537 111.3C55.6266 111.083 55.7292 110.895 55.8613 110.736C55.9935 110.576 56.1507 110.453 56.333 110.367C56.5176 110.278 56.7215 110.233 56.9448 110.233C57.1271 110.233 57.2912 110.258 57.437 110.309C57.5828 110.356 57.707 110.434 57.8096 110.541C57.9144 110.648 57.9941 110.787 58.0488 110.958C58.1035 111.127 58.1309 111.333 58.1309 111.577V114H57.4951V111.57C57.4951 111.376 57.4666 111.221 57.4097 111.105C57.3527 110.986 57.2695 110.901 57.1602 110.849C57.0508 110.794 56.9163 110.767 56.7568 110.767C56.5996 110.767 56.4561 110.8 56.3262 110.866C56.1986 110.932 56.0881 111.023 55.9946 111.139C55.9035 111.255 55.8317 111.389 55.7793 111.539C55.7292 111.687 55.7041 111.844 55.7041 112.011ZM61.3833 113.368V111.464C61.3833 111.318 61.3537 111.192 61.2944 111.084C61.2375 110.975 61.1509 110.891 61.0347 110.832C60.9185 110.772 60.7749 110.743 60.604 110.743C60.4445 110.743 60.3044 110.77 60.1836 110.825C60.0651 110.879 59.9717 110.951 59.9033 111.04C59.8372 111.129 59.8042 111.225 59.8042 111.327H59.1719C59.1719 111.195 59.2061 111.064 59.2744 110.934C59.3428 110.804 59.4408 110.687 59.5684 110.582C59.6982 110.475 59.8532 110.391 60.0332 110.329C60.2155 110.265 60.4183 110.233 60.6416 110.233C60.9105 110.233 61.1475 110.279 61.3525 110.37C61.5599 110.461 61.7217 110.599 61.8379 110.784C61.9564 110.966 62.0156 111.195 62.0156 111.471V113.193C62.0156 113.316 62.0259 113.447 62.0464 113.586C62.0692 113.725 62.1022 113.845 62.1455 113.945V114H61.4858C61.4539 113.927 61.4289 113.83 61.4106 113.709C61.3924 113.586 61.3833 113.472 61.3833 113.368ZM61.4927 111.758L61.4995 112.202H60.8604C60.6803 112.202 60.5197 112.217 60.3784 112.247C60.2371 112.274 60.1187 112.316 60.0229 112.373C59.9272 112.43 59.8543 112.502 59.8042 112.588C59.7541 112.673 59.729 112.772 59.729 112.886C59.729 113.002 59.7552 113.108 59.8076 113.204C59.86 113.299 59.9386 113.376 60.0435 113.433C60.1506 113.487 60.2816 113.515 60.4365 113.515C60.6302 113.515 60.8011 113.474 60.9492 113.392C61.0973 113.31 61.2147 113.209 61.3013 113.091C61.3901 112.972 61.438 112.857 61.4448 112.746L61.7148 113.05C61.6989 113.146 61.6556 113.251 61.585 113.368C61.5143 113.484 61.4198 113.596 61.3013 113.703C61.1851 113.807 61.0461 113.895 60.8843 113.966C60.7248 114.034 60.5448 114.068 60.3442 114.068C60.0936 114.068 59.8737 114.019 59.6846 113.921C59.4977 113.823 59.3519 113.692 59.2471 113.528C59.1445 113.362 59.0933 113.176 59.0933 112.971C59.0933 112.773 59.132 112.599 59.2095 112.448C59.2869 112.296 59.3986 112.169 59.5444 112.069C59.6903 111.966 59.8657 111.889 60.0708 111.836C60.2759 111.784 60.5049 111.758 60.7578 111.758H61.4927ZM63.8223 110.302V114H63.1865V110.302H63.8223ZM63.1387 109.321C63.1387 109.218 63.1694 109.132 63.231 109.061C63.2948 108.99 63.3882 108.955 63.5112 108.955C63.632 108.955 63.7243 108.99 63.7881 109.061C63.8542 109.132 63.8872 109.218 63.8872 109.321C63.8872 109.419 63.8542 109.503 63.7881 109.574C63.7243 109.642 63.632 109.676 63.5112 109.676C63.3882 109.676 63.2948 109.642 63.231 109.574C63.1694 109.503 63.1387 109.419 63.1387 109.321ZM65.5947 111.091V114H64.9624V110.302H65.5605L65.5947 111.091ZM65.4443 112.011L65.1812 112C65.1834 111.748 65.221 111.514 65.2939 111.3C65.3669 111.083 65.4694 110.895 65.6016 110.736C65.7337 110.576 65.891 110.453 66.0732 110.367C66.2578 110.278 66.4618 110.233 66.6851 110.233C66.8674 110.233 67.0314 110.258 67.1772 110.309C67.3231 110.356 67.4473 110.434 67.5498 110.541C67.6546 110.648 67.7344 110.787 67.7891 110.958C67.8438 111.127 67.8711 111.333 67.8711 111.577V114H67.2354V111.57C67.2354 111.376 67.2069 111.221 67.1499 111.105C67.0929 110.986 67.0098 110.901 66.9004 110.849C66.791 110.794 66.6566 110.767 66.4971 110.767C66.3398 110.767 66.1963 110.8 66.0664 110.866C65.9388 110.932 65.8283 111.023 65.7349 111.139C65.6437 111.255 65.5719 111.389 65.5195 111.539C65.4694 111.687 65.4443 111.844 65.4443 112.011ZM71.1099 113.019C71.1099 112.928 71.0894 112.844 71.0483 112.766C71.0096 112.686 70.9287 112.615 70.8057 112.551C70.6849 112.485 70.5026 112.428 70.2588 112.38C70.0537 112.337 69.868 112.285 69.7017 112.226C69.5376 112.167 69.3975 112.095 69.2812 112.011C69.1673 111.926 69.0796 111.827 69.0181 111.713C68.9565 111.599 68.9258 111.466 68.9258 111.313C68.9258 111.168 68.9577 111.03 69.0215 110.9C69.0876 110.77 69.1799 110.655 69.2983 110.555C69.4191 110.454 69.5638 110.376 69.7324 110.319C69.901 110.262 70.089 110.233 70.2964 110.233C70.5926 110.233 70.8455 110.286 71.0552 110.391C71.2648 110.495 71.4255 110.636 71.5371 110.811C71.6488 110.984 71.7046 111.177 71.7046 111.389H71.0723C71.0723 111.286 71.0415 111.187 70.98 111.091C70.9207 110.993 70.833 110.912 70.7168 110.849C70.6029 110.785 70.4627 110.753 70.2964 110.753C70.1209 110.753 69.9785 110.78 69.8691 110.835C69.762 110.887 69.6834 110.955 69.6333 111.037C69.5854 111.119 69.5615 111.205 69.5615 111.296C69.5615 111.365 69.5729 111.426 69.5957 111.481C69.6208 111.533 69.6641 111.582 69.7256 111.628C69.7871 111.671 69.8737 111.712 69.9854 111.751C70.097 111.79 70.2394 111.828 70.4126 111.867C70.7157 111.936 70.9652 112.018 71.1611 112.113C71.3571 112.209 71.5029 112.326 71.5986 112.465C71.6943 112.604 71.7422 112.773 71.7422 112.971C71.7422 113.133 71.708 113.281 71.6396 113.416C71.5736 113.55 71.4767 113.666 71.3491 113.764C71.2238 113.86 71.0734 113.935 70.8979 113.99C70.7248 114.042 70.5299 114.068 70.3135 114.068C69.9876 114.068 69.7119 114.01 69.4863 113.894C69.2607 113.778 69.0898 113.627 68.9736 113.443C68.8574 113.258 68.7993 113.063 68.7993 112.858H69.4351C69.4442 113.032 69.4943 113.169 69.5854 113.272C69.6766 113.372 69.7882 113.444 69.9204 113.487C70.0526 113.528 70.1836 113.549 70.3135 113.549C70.4867 113.549 70.6313 113.526 70.7476 113.48C70.866 113.435 70.9561 113.372 71.0176 113.292C71.0791 113.213 71.1099 113.122 71.1099 113.019Z" fill="black" fill-opacity="0.76"/>
<rect x="13.1875" y="59.1875" width="5.625" height="5.625" rx="0.5625" stroke="black" stroke-opacity="0.16" stroke-width="0.375"/>
<rect x="13.1875" y="72.1875" width="5.625" height="5.625" rx="0.5625" stroke="black" stroke-opacity="0.16" stroke-width="0.375"/>
<rect x="13.1875" y="84.1875" width="5.625" height="5.625" rx="0.5625" stroke="black" stroke-opacity="0.16" stroke-width="0.375"/>
<rect x="13.1875" y="96.1875" width="5.625" height="5.625" rx="0.5625" stroke="black" stroke-opacity="0.16" stroke-width="0.375"/>
<rect x="13.1875" y="109.188" width="5.625" height="5.625" rx="0.5625" stroke="black" stroke-opacity="0.16" stroke-width="0.375"/>
<path d="M16.1914 61.8125H17.5039V62.1875H16.1914V63.5H15.8164V62.1875H14.5039V61.8125H15.8164V60.5H16.1914V61.8125Z" fill="black" fill-opacity="0.87"/>
<path d="M16.1914 74.8125H17.5039V75.1875H16.1914V76.5H15.8164V75.1875H14.5039V74.8125H15.8164V73.5H16.1914V74.8125Z" fill="black" fill-opacity="0.87"/>
<path d="M16.1914 86.8125H17.5039V87.1875H16.1914V88.5H15.8164V87.1875H14.5039V86.8125H15.8164V85.5H16.1914V86.8125Z" fill="black" fill-opacity="0.87"/>
<path d="M16.1914 98.8125H17.5039V99.1875H16.1914V100.5H15.8164V99.1875H14.5039V98.8125H15.8164V97.5H16.1914V98.8125Z" fill="black" fill-opacity="0.87"/>
<path d="M16.1914 111.812H17.5039V112.188H16.1914V113.5H15.8164V112.188H14.5039V111.812H15.8164V110.5H16.1914V111.812Z" fill="black" fill-opacity="0.87"/>
<path d="M16 65V72" stroke="black" stroke-opacity="0.16" stroke-width="0.5" stroke-dasharray="1 1"/>
<path d="M16 55L16 59" stroke="black" stroke-opacity="0.16" stroke-width="0.5" stroke-dasharray="1 1"/>
<path d="M19 62L23 62" stroke="black" stroke-opacity="0.16" stroke-width="0.5" stroke-dasharray="1 1"/>
<path d="M19 75L23 75" stroke="black" stroke-opacity="0.16" stroke-width="0.5" stroke-dasharray="1 1"/>
<path d="M19 87L23 87" stroke="black" stroke-opacity="0.16" stroke-width="0.5" stroke-dasharray="1 1"/>
<path d="M19 99L23 99" stroke="black" stroke-opacity="0.16" stroke-width="0.5" stroke-dasharray="1 1"/>
<path d="M19 112L23 112" stroke="black" stroke-opacity="0.16" stroke-width="0.5" stroke-dasharray="1 1"/>
<path d="M16 78V84" stroke="black" stroke-opacity="0.16" stroke-width="0.5" stroke-dasharray="1 1"/>
<path d="M16 90V96" stroke="black" stroke-opacity="0.16" stroke-width="0.5" stroke-dasharray="1 1"/>
<path d="M16 102V109" stroke="black" stroke-opacity="0.16" stroke-width="0.5" stroke-dasharray="1 1"/>
</g>
<defs>
<clipPath id="clip0_18293_14076">
<rect width="200" height="160" fill="white"/>
</clipPath>
</defs>
</svg>
