<svg width="200" height="160" viewBox="0 0 200 160" fill="none" xmlns="http://www.w3.org/2000/svg">
<g clip-path="url(#clip0_18289_13959)">
<rect width="200" height="79" rx="4" fill="white"/>
<rect x="0.5" y="0.5" width="199" height="78" rx="3.5" stroke="black" stroke-opacity="0.12"/>
<path d="M8.76562 7.81641L6.88281 13H6.11328L8.28125 7.3125H8.77734L8.76562 7.81641ZM10.3438 13L8.45703 7.81641L8.44531 7.3125H8.94141L11.1172 13H10.3438ZM10.2461 10.8945V11.5117H7.05078V10.8945H10.2461ZM14.3141 11.8789C14.3141 11.7747 14.2906 11.6784 14.2437 11.5898C14.1995 11.4987 14.107 11.4167 13.9664 11.3438C13.8284 11.2682 13.62 11.2031 13.3414 11.1484C13.107 11.099 12.8948 11.0404 12.7047 10.9727C12.5172 10.9049 12.357 10.8229 12.2242 10.7266C12.094 10.6302 11.9937 10.5169 11.9234 10.3867C11.8531 10.2565 11.818 10.1042 11.818 9.92969C11.818 9.76302 11.8544 9.60547 11.9273 9.45703C12.0029 9.30859 12.1083 9.17708 12.2437 9.0625C12.3818 8.94792 12.5471 8.85807 12.7398 8.79297C12.9325 8.72786 13.1474 8.69531 13.3844 8.69531C13.7229 8.69531 14.012 8.75521 14.2516 8.875C14.4911 8.99479 14.6747 9.15495 14.8023 9.35547C14.9299 9.55339 14.9937 9.77344 14.9937 10.0156H14.2711C14.2711 9.89844 14.2359 9.78516 14.1656 9.67578C14.0979 9.5638 13.9977 9.47135 13.8648 9.39844C13.7346 9.32552 13.5745 9.28906 13.3844 9.28906C13.1838 9.28906 13.0211 9.32031 12.8961 9.38281C12.7737 9.44271 12.6838 9.51953 12.6266 9.61328C12.5719 9.70703 12.5445 9.80599 12.5445 9.91016C12.5445 9.98828 12.5575 10.0586 12.5836 10.1211C12.6122 10.181 12.6617 10.237 12.732 10.2891C12.8023 10.3385 12.9013 10.3854 13.0289 10.4297C13.1565 10.474 13.3193 10.5182 13.5172 10.5625C13.8635 10.6406 14.1487 10.7344 14.3727 10.8438C14.5966 10.9531 14.7633 11.0872 14.8727 11.2461C14.982 11.4049 15.0367 11.5977 15.0367 11.8242C15.0367 12.0091 14.9977 12.1784 14.9195 12.332C14.844 12.4857 14.7333 12.6185 14.5875 12.7305C14.4443 12.8398 14.2724 12.9258 14.0719 12.9883C13.874 13.0482 13.6513 13.0781 13.4039 13.0781C13.0315 13.0781 12.7164 13.0117 12.4586 12.8789C12.2008 12.7461 12.0055 12.5742 11.8727 12.3633C11.7398 12.1523 11.6734 11.9297 11.6734 11.6953H12.4C12.4104 11.8932 12.4677 12.0508 12.5719 12.168C12.676 12.2826 12.8036 12.3646 12.9547 12.4141C13.1057 12.4609 13.2555 12.4844 13.4039 12.4844C13.6018 12.4844 13.7672 12.4583 13.9 12.4062C14.0354 12.3542 14.1383 12.2826 14.2086 12.1914C14.2789 12.1003 14.3141 11.9961 14.3141 11.8789ZM18.5305 11.8789C18.5305 11.7747 18.507 11.6784 18.4601 11.5898C18.4159 11.4987 18.3234 11.4167 18.1828 11.3438C18.0448 11.2682 17.8364 11.2031 17.5578 11.1484C17.3234 11.099 17.1112 11.0404 16.9211 10.9727C16.7336 10.9049 16.5734 10.8229 16.4406 10.7266C16.3104 10.6302 16.2101 10.5169 16.1398 10.3867C16.0695 10.2565 16.0344 10.1042 16.0344 9.92969C16.0344 9.76302 16.0708 9.60547 16.1437 9.45703C16.2193 9.30859 16.3247 9.17708 16.4601 9.0625C16.5982 8.94792 16.7635 8.85807 16.9562 8.79297C17.1489 8.72786 17.3638 8.69531 17.6008 8.69531C17.9393 8.69531 18.2284 8.75521 18.468 8.875C18.7075 8.99479 18.8911 9.15495 19.0187 9.35547C19.1463 9.55339 19.2101 9.77344 19.2101 10.0156H18.4875C18.4875 9.89844 18.4523 9.78516 18.382 9.67578C18.3143 9.5638 18.2141 9.47135 18.0812 9.39844C17.951 9.32552 17.7909 9.28906 17.6008 9.28906C17.4002 9.28906 17.2375 9.32031 17.1125 9.38281C16.9901 9.44271 16.9002 9.51953 16.843 9.61328C16.7883 9.70703 16.7609 9.80599 16.7609 9.91016C16.7609 9.98828 16.7739 10.0586 16.8 10.1211C16.8286 10.181 16.8781 10.237 16.9484 10.2891C17.0187 10.3385 17.1177 10.3854 17.2453 10.4297C17.3729 10.474 17.5357 10.5182 17.7336 10.5625C18.0799 10.6406 18.3651 10.7344 18.5891 10.8438C18.813 10.9531 18.9797 11.0872 19.0891 11.2461C19.1984 11.4049 19.2531 11.5977 19.2531 11.8242C19.2531 12.0091 19.2141 12.1784 19.1359 12.332C19.0604 12.4857 18.9497 12.6185 18.8039 12.7305C18.6607 12.8398 18.4888 12.9258 18.2883 12.9883C18.0904 13.0482 17.8677 13.0781 17.6203 13.0781C17.2479 13.0781 16.9328 13.0117 16.675 12.8789C16.4172 12.7461 16.2219 12.5742 16.0891 12.3633C15.9562 12.1523 15.8898 11.9297 15.8898 11.6953H16.6164C16.6268 11.8932 16.6841 12.0508 16.7883 12.168C16.8924 12.2826 17.02 12.3646 17.1711 12.4141C17.3221 12.4609 17.4719 12.4844 17.6203 12.4844C17.8182 12.4844 17.9836 12.4583 18.1164 12.4062C18.2518 12.3542 18.3547 12.2826 18.425 12.1914C18.4953 12.1003 18.5305 11.9961 18.5305 11.8789ZM22.0398 13.0781C21.7456 13.0781 21.4786 13.0286 21.239 12.9297C21.0021 12.8281 20.7976 12.6862 20.6258 12.5039C20.4565 12.3216 20.3263 12.1055 20.2351 11.8555C20.144 11.6055 20.0984 11.332 20.0984 11.0352V10.8711C20.0984 10.5273 20.1492 10.2214 20.2508 9.95312C20.3523 9.68229 20.4903 9.45312 20.6648 9.26562C20.8393 9.07812 21.0372 8.9362 21.2586 8.83984C21.4799 8.74349 21.7091 8.69531 21.9461 8.69531C22.2482 8.69531 22.5086 8.7474 22.7273 8.85156C22.9487 8.95573 23.1297 9.10156 23.2703 9.28906C23.4109 9.47396 23.5151 9.69271 23.5828 9.94531C23.6505 10.1953 23.6844 10.4688 23.6844 10.7656V11.0898H20.5281V10.5H22.9617V10.4453C22.9513 10.2578 22.9122 10.0755 22.8445 9.89844C22.7794 9.72135 22.6752 9.57552 22.532 9.46094C22.3888 9.34635 22.1935 9.28906 21.9461 9.28906C21.782 9.28906 21.631 9.32422 21.493 9.39453C21.3549 9.46224 21.2364 9.5638 21.1375 9.69922C21.0385 9.83464 20.9617 10 20.907 10.1953C20.8523 10.3906 20.825 10.6159 20.825 10.8711V11.0352C20.825 11.2357 20.8523 11.4245 20.907 11.6016C20.9643 11.776 21.0463 11.9297 21.1531 12.0625C21.2625 12.1953 21.394 12.2995 21.5476 12.375C21.7039 12.4505 21.881 12.4883 22.0789 12.4883C22.3341 12.4883 22.5502 12.4362 22.7273 12.332C22.9044 12.2279 23.0594 12.0885 23.1922 11.9141L23.6297 12.2617C23.5385 12.3997 23.4226 12.5312 23.282 12.6562C23.1414 12.7812 22.9682 12.8828 22.7625 12.9609C22.5594 13.0391 22.3185 13.0781 22.0398 13.0781ZM26.3812 8.77344V9.32812H24.0961V8.77344H26.3812ZM24.8695 7.74609H25.5922V11.9531C25.5922 12.0964 25.6143 12.2044 25.6586 12.2773C25.7028 12.3503 25.7601 12.3984 25.8304 12.4219C25.9008 12.4453 25.9763 12.457 26.057 12.457C26.1169 12.457 26.1794 12.4518 26.2445 12.4414C26.3122 12.4284 26.363 12.418 26.3969 12.4102L26.4008 13C26.3435 13.0182 26.2679 13.0352 26.1742 13.0508C26.083 13.069 25.9724 13.0781 25.8422 13.0781C25.6651 13.0781 25.5023 13.043 25.3539 12.9727C25.2054 12.9023 25.087 12.7852 24.9984 12.6211C24.9125 12.4544 24.8695 12.2305 24.8695 11.9492V7.74609ZM31.8726 12.2773V10.1016C31.8726 9.9349 31.8388 9.79036 31.7711 9.66797C31.706 9.54297 31.607 9.44661 31.4742 9.37891C31.3414 9.3112 31.1773 9.27734 30.982 9.27734C30.7997 9.27734 30.6395 9.30859 30.5015 9.37109C30.3661 9.43359 30.2593 9.51562 30.1812 9.61719C30.1057 9.71875 30.0679 9.82812 30.0679 9.94531H29.3453C29.3453 9.79427 29.3843 9.64453 29.4625 9.49609C29.5406 9.34766 29.6526 9.21354 29.7984 9.09375C29.9468 8.97135 30.1239 8.875 30.3297 8.80469C30.538 8.73177 30.7698 8.69531 31.025 8.69531C31.3323 8.69531 31.6031 8.7474 31.8375 8.85156C32.0744 8.95573 32.2593 9.11328 32.3922 9.32422C32.5276 9.53255 32.5953 9.79427 32.5953 10.1094V12.0781C32.5953 12.2188 32.607 12.3685 32.6304 12.5273C32.6565 12.6862 32.6942 12.8229 32.7437 12.9375V13H31.9898C31.9533 12.9167 31.9247 12.806 31.9039 12.668C31.883 12.5273 31.8726 12.3971 31.8726 12.2773ZM31.9976 10.4375L32.0054 10.9453H31.275C31.0692 10.9453 30.8856 10.9622 30.7242 10.9961C30.5627 11.0273 30.4273 11.0755 30.3179 11.1406C30.2086 11.2057 30.1252 11.2878 30.0679 11.3867C30.0106 11.4831 29.982 11.5964 29.982 11.7266C29.982 11.8594 30.0119 11.9805 30.0718 12.0898C30.1317 12.1992 30.2216 12.2865 30.3414 12.3516C30.4638 12.4141 30.6135 12.4453 30.7906 12.4453C31.0119 12.4453 31.2073 12.3984 31.3765 12.3047C31.5458 12.2109 31.6799 12.0964 31.7789 11.9609C31.8804 11.8255 31.9351 11.694 31.9429 11.5664L32.2515 11.9141C32.2333 12.0234 32.1838 12.1445 32.1031 12.2773C32.0224 12.4102 31.9143 12.5378 31.7789 12.6602C31.6461 12.7799 31.4872 12.8802 31.3023 12.9609C31.12 13.0391 30.9143 13.0781 30.6851 13.0781C30.3987 13.0781 30.1474 13.0221 29.9312 12.9102C29.7177 12.7982 29.551 12.6484 29.4312 12.4609C29.314 12.2708 29.2554 12.0586 29.2554 11.8242C29.2554 11.5977 29.2997 11.3984 29.3882 11.2266C29.4768 11.0521 29.6044 10.9076 29.7711 10.793C29.9377 10.6758 30.1382 10.5872 30.3726 10.5273C30.607 10.4674 30.8687 10.4375 31.1578 10.4375H31.9976ZM36.4796 12.1797V7H37.2062V13H36.5421L36.4796 12.1797ZM33.6359 10.9336V10.8516C33.6359 10.5286 33.675 10.2357 33.7531 9.97266C33.8338 9.70703 33.9471 9.47917 34.0929 9.28906C34.2414 9.09896 34.4171 8.95312 34.6203 8.85156C34.826 8.7474 35.0552 8.69531 35.3078 8.69531C35.5734 8.69531 35.8052 8.74219 36.0031 8.83594C36.2036 8.92708 36.3729 9.0612 36.5109 9.23828C36.6515 9.41276 36.7622 9.6237 36.8429 9.87109C36.9237 10.1185 36.9796 10.3984 37.0109 10.7109V11.0703C36.9822 11.3802 36.9263 11.6589 36.8429 11.9062C36.7622 12.1536 36.6515 12.3646 36.5109 12.5391C36.3729 12.7135 36.2036 12.8477 36.0031 12.9414C35.8026 13.0326 35.5682 13.0781 35.3 13.0781C35.0526 13.0781 34.826 13.0247 34.6203 12.918C34.4171 12.8112 34.2414 12.6615 34.0929 12.4688C33.9471 12.276 33.8338 12.0495 33.7531 11.7891C33.675 11.526 33.6359 11.2409 33.6359 10.9336ZM34.3625 10.8516V10.9336C34.3625 11.1445 34.3833 11.3424 34.425 11.5273C34.4692 11.7122 34.5369 11.875 34.6281 12.0156C34.7192 12.1562 34.8351 12.2669 34.9757 12.3477C35.1164 12.4258 35.2843 12.4648 35.4796 12.4648C35.7192 12.4648 35.9158 12.4141 36.0695 12.3125C36.2257 12.2109 36.3507 12.0768 36.4445 11.9102C36.5382 11.7435 36.6112 11.5625 36.6632 11.3672V10.4258C36.632 10.2826 36.5864 10.1445 36.5265 10.0117C36.4692 9.8763 36.3937 9.75651 36.3 9.65234C36.2088 9.54557 36.0955 9.46094 35.9601 9.39844C35.8273 9.33594 35.6697 9.30469 35.4875 9.30469C35.2895 9.30469 35.119 9.34635 34.9757 9.42969C34.8351 9.51042 34.7192 9.6224 34.6281 9.76562C34.5369 9.90625 34.4692 10.0703 34.425 10.2578C34.3833 10.4427 34.3625 10.6406 34.3625 10.8516ZM39.1335 9.61328V13H38.407V8.77344H39.0945L39.1335 9.61328ZM38.9851 10.7266L38.6492 10.7148C38.6518 10.4258 38.6895 10.1589 38.7625 9.91406C38.8354 9.66667 38.9434 9.45182 39.0867 9.26953C39.2299 9.08724 39.4083 8.94661 39.6218 8.84766C39.8354 8.74609 40.0828 8.69531 40.364 8.69531C40.5619 8.69531 40.7442 8.72396 40.9109 8.78125C41.0776 8.83594 41.2221 8.92318 41.3445 9.04297C41.4669 9.16276 41.5619 9.31641 41.6296 9.50391C41.6973 9.69141 41.7312 9.91797 41.7312 10.1836V13H41.0085V10.2188C41.0085 9.9974 40.9708 9.82031 40.8953 9.6875C40.8223 9.55469 40.7182 9.45833 40.5828 9.39844C40.4473 9.33594 40.2885 9.30469 40.1062 9.30469C39.8927 9.30469 39.7143 9.34245 39.571 9.41797C39.4278 9.49349 39.3132 9.59766 39.2273 9.73047C39.1414 9.86328 39.0789 10.0156 39.0398 10.1875C39.0033 10.3568 38.9851 10.5365 38.9851 10.7266ZM41.7234 10.3281L41.239 10.4766C41.2416 10.2448 41.2794 10.0221 41.3523 9.80859C41.4278 9.59505 41.5359 9.40495 41.6765 9.23828C41.8197 9.07161 41.9955 8.9401 42.2039 8.84375C42.4122 8.74479 42.6505 8.69531 42.9187 8.69531C43.1453 8.69531 43.3458 8.72526 43.5203 8.78516C43.6973 8.84505 43.8458 8.9375 43.9656 9.0625C44.088 9.1849 44.1804 9.34245 44.2429 9.53516C44.3054 9.72786 44.3367 9.95703 44.3367 10.2227V13H43.6101V10.2148C43.6101 9.97786 43.5723 9.79427 43.4968 9.66406C43.4239 9.53125 43.3197 9.4388 43.1843 9.38672C43.0515 9.33203 42.8927 9.30469 42.7078 9.30469C42.5489 9.30469 42.4083 9.33203 42.2859 9.38672C42.1635 9.44141 42.0606 9.51693 41.9773 9.61328C41.894 9.70703 41.8302 9.8151 41.7859 9.9375C41.7442 10.0599 41.7234 10.1901 41.7234 10.3281ZM46.2992 8.77344V13H45.5726V8.77344H46.2992ZM45.5179 7.65234C45.5179 7.53516 45.5531 7.4362 45.6234 7.35547C45.6963 7.27474 45.8031 7.23438 45.9437 7.23438C46.0817 7.23438 46.1872 7.27474 46.2601 7.35547C46.3356 7.4362 46.3734 7.53516 46.3734 7.65234C46.3734 7.76432 46.3356 7.86068 46.2601 7.94141C46.1872 8.01953 46.0817 8.05859 45.9437 8.05859C45.8031 8.05859 45.6963 8.01953 45.6234 7.94141C45.5531 7.86068 45.5179 7.76432 45.5179 7.65234ZM48.2656 9.67578V13H47.5429V8.77344H48.2265L48.2656 9.67578ZM48.0937 10.7266L47.7929 10.7148C47.7955 10.4258 47.8385 10.1589 47.9218 9.91406C48.0051 9.66667 48.1223 9.45182 48.2734 9.26953C48.4244 9.08724 48.6041 8.94661 48.8124 8.84766C49.0234 8.74609 49.2564 8.69531 49.5117 8.69531C49.72 8.69531 49.9075 8.72396 50.0742 8.78125C50.2408 8.83594 50.3828 8.92448 50.4999 9.04688C50.6197 9.16927 50.7109 9.32812 50.7734 9.52344C50.8359 9.71615 50.8671 9.95182 50.8671 10.2305V13H50.1406V10.2227C50.1406 10.0013 50.108 9.82422 50.0429 9.69141C49.9778 9.55599 49.8828 9.45833 49.7578 9.39844C49.6328 9.33594 49.4791 9.30469 49.2968 9.30469C49.1171 9.30469 48.9531 9.34245 48.8046 9.41797C48.6588 9.49349 48.5325 9.59766 48.4257 9.73047C48.3216 9.86328 48.2395 10.0156 48.1796 10.1875C48.1223 10.3568 48.0937 10.5365 48.0937 10.7266ZM55.8859 8.77344V9.32812H53.6007V8.77344H55.8859ZM54.3741 7.74609H55.0968V11.9531C55.0968 12.0964 55.1189 12.2044 55.1632 12.2773C55.2075 12.3503 55.2648 12.3984 55.3351 12.4219C55.4054 12.4453 55.4809 12.457 55.5616 12.457C55.6215 12.457 55.684 12.4518 55.7491 12.4414C55.8169 12.4284 55.8676 12.418 55.9015 12.4102L55.9054 13C55.8481 13.0182 55.7726 13.0352 55.6788 13.0508C55.5877 13.069 55.477 13.0781 55.3468 13.0781C55.1697 13.0781 55.007 13.043 54.8585 12.9727C54.7101 12.9023 54.5916 12.7852 54.5031 12.6211C54.4171 12.4544 54.3741 12.2305 54.3741 11.9492V7.74609ZM59.3093 12.2773V10.1016C59.3093 9.9349 59.2754 9.79036 59.2077 9.66797C59.1426 9.54297 59.0437 9.44661 58.9109 9.37891C58.778 9.3112 58.614 9.27734 58.4187 9.27734C58.2364 9.27734 58.0762 9.30859 57.9382 9.37109C57.8028 9.43359 57.696 9.51562 57.6179 9.61719C57.5424 9.71875 57.5046 9.82812 57.5046 9.94531H56.782C56.782 9.79427 56.821 9.64453 56.8991 9.49609C56.9773 9.34766 57.0892 9.21354 57.2351 9.09375C57.3835 8.97135 57.5606 8.875 57.7663 8.80469C57.9747 8.73177 58.2064 8.69531 58.4616 8.69531C58.7689 8.69531 59.0398 8.7474 59.2741 8.85156C59.5111 8.95573 59.696 9.11328 59.8288 9.32422C59.9642 9.53255 60.032 9.79427 60.032 10.1094V12.0781C60.032 12.2188 60.0437 12.3685 60.0671 12.5273C60.0931 12.6862 60.1309 12.8229 60.1804 12.9375V13H59.4265C59.39 12.9167 59.3614 12.806 59.3405 12.668C59.3197 12.5273 59.3093 12.3971 59.3093 12.2773ZM59.4343 10.4375L59.4421 10.9453H58.7116C58.5059 10.9453 58.3223 10.9622 58.1609 10.9961C57.9994 11.0273 57.864 11.0755 57.7546 11.1406C57.6452 11.2057 57.5619 11.2878 57.5046 11.3867C57.4473 11.4831 57.4187 11.5964 57.4187 11.7266C57.4187 11.8594 57.4486 11.9805 57.5085 12.0898C57.5684 12.1992 57.6583 12.2865 57.778 12.3516C57.9004 12.4141 58.0502 12.4453 58.2273 12.4453C58.4486 12.4453 58.6439 12.3984 58.8132 12.3047C58.9825 12.2109 59.1166 12.0964 59.2155 11.9609C59.3171 11.8255 59.3718 11.694 59.3796 11.5664L59.6882 11.9141C59.67 12.0234 59.6205 12.1445 59.5398 12.2773C59.459 12.4102 59.351 12.5378 59.2155 12.6602C59.0827 12.7799 58.9239 12.8802 58.739 12.9609C58.5567 13.0391 58.351 13.0781 58.1218 13.0781C57.8353 13.0781 57.584 13.0221 57.3679 12.9102C57.1543 12.7982 56.9877 12.6484 56.8679 12.4609C56.7507 12.2708 56.6921 12.0586 56.6921 11.8242C56.6921 11.5977 56.7364 11.3984 56.8249 11.2266C56.9135 11.0521 57.0411 10.9076 57.2077 10.793C57.3744 10.6758 57.5749 10.5872 57.8093 10.5273C58.0437 10.4674 58.3054 10.4375 58.5945 10.4375H59.4343ZM61.2484 7H61.9749V12.1797L61.9124 13H61.2484V7ZM64.8304 10.8516V10.9336C64.8304 11.2409 64.7939 11.526 64.721 11.7891C64.6481 12.0495 64.5413 12.276 64.4007 12.4688C64.2601 12.6615 64.0882 12.8112 63.8851 12.918C63.6819 13.0247 63.4489 13.0781 63.1859 13.0781C62.9176 13.0781 62.6819 13.0326 62.4788 12.9414C62.2783 12.8477 62.109 12.7135 61.971 12.5391C61.833 12.3646 61.7223 12.1536 61.639 11.9062C61.5582 11.6589 61.5023 11.3802 61.471 11.0703V10.7109C61.5023 10.3984 61.5582 10.1185 61.639 9.87109C61.7223 9.6237 61.833 9.41276 61.971 9.23828C62.109 9.0612 62.2783 8.92708 62.4788 8.83594C62.6793 8.74219 62.9124 8.69531 63.178 8.69531C63.4437 8.69531 63.6793 8.7474 63.8851 8.85156C64.0908 8.95312 64.2627 9.09896 64.4007 9.28906C64.5413 9.47917 64.6481 9.70703 64.721 9.97266C64.7939 10.2357 64.8304 10.5286 64.8304 10.8516ZM64.1038 10.9336V10.8516C64.1038 10.6406 64.0843 10.4427 64.0452 10.2578C64.0062 10.0703 63.9437 9.90625 63.8577 9.76562C63.7718 9.6224 63.6585 9.51042 63.5179 9.42969C63.3773 9.34635 63.2041 9.30469 62.9984 9.30469C62.8161 9.30469 62.6572 9.33594 62.5218 9.39844C62.389 9.46094 62.2757 9.54557 62.1819 9.65234C62.0882 9.75651 62.0114 9.8763 61.9515 10.0117C61.8942 10.1445 61.8512 10.2826 61.8226 10.4258V11.3672C61.8642 11.5495 61.9319 11.7253 62.0257 11.8945C62.122 12.0612 62.2497 12.1979 62.4085 12.3047C62.57 12.4115 62.7692 12.4648 63.0062 12.4648C63.2015 12.4648 63.3681 12.4258 63.5062 12.3477C63.6468 12.2669 63.7601 12.1562 63.846 12.0156C63.9345 11.875 63.9997 11.7122 64.0413 11.5273C64.083 11.3424 64.1038 11.1445 64.1038 10.9336ZM66.6132 7V13H65.8866V7H66.6132ZM69.6108 13.0781C69.3166 13.0781 69.0496 13.0286 68.8101 12.9297C68.5731 12.8281 68.3687 12.6862 68.1968 12.5039C68.0275 12.3216 67.8973 12.1055 67.8062 11.8555C67.715 11.6055 67.6694 11.332 67.6694 11.0352V10.8711C67.6694 10.5273 67.7202 10.2214 67.8218 9.95312C67.9233 9.68229 68.0614 9.45312 68.2358 9.26562C68.4103 9.07812 68.6082 8.9362 68.8296 8.83984C69.0509 8.74349 69.2801 8.69531 69.5171 8.69531C69.8192 8.69531 70.0796 8.7474 70.2983 8.85156C70.5197 8.95573 70.7007 9.10156 70.8413 9.28906C70.9819 9.47396 71.0861 9.69271 71.1538 9.94531C71.2215 10.1953 71.2554 10.4688 71.2554 10.7656V11.0898H68.0991V10.5H70.5327V10.4453C70.5223 10.2578 70.4832 10.0755 70.4155 9.89844C70.3504 9.72135 70.2463 9.57552 70.103 9.46094C69.9598 9.34635 69.7645 9.28906 69.5171 9.28906C69.353 9.28906 69.202 9.32422 69.064 9.39453C68.9259 9.46224 68.8075 9.5638 68.7085 9.69922C68.6095 9.83464 68.5327 10 68.478 10.1953C68.4233 10.3906 68.396 10.6159 68.396 10.8711V11.0352C68.396 11.2357 68.4233 11.4245 68.478 11.6016C68.5353 11.776 68.6174 11.9297 68.7241 12.0625C68.8335 12.1953 68.965 12.2995 69.1187 12.375C69.2749 12.4505 69.452 12.4883 69.6499 12.4883C69.9051 12.4883 70.1213 12.4362 70.2983 12.332C70.4754 12.2279 70.6304 12.0885 70.7632 11.9141L71.2007 12.2617C71.1095 12.3997 70.9937 12.5312 70.853 12.6562C70.7124 12.7812 70.5392 12.8828 70.3335 12.9609C70.1304 13.0391 69.8895 13.0781 69.6108 13.0781Z" fill="black"/>
<path d="M9.81738 25.7344V30H9.08203L7.16895 26.9443V30H6.43359V25.7344H7.16895L9.08789 28.7959V25.7344H9.81738ZM12.4937 29.3643V27.8525C12.4937 27.7393 12.4732 27.6416 12.4322 27.5596C12.3912 27.4775 12.3287 27.4141 12.2447 27.3691C12.1627 27.3242 12.0592 27.3018 11.9342 27.3018C11.8189 27.3018 11.7193 27.3213 11.6353 27.3604C11.5514 27.3994 11.4859 27.4521 11.4391 27.5186C11.3922 27.585 11.3687 27.6602 11.3687 27.7441H10.6656C10.6656 27.6191 10.6959 27.498 10.7564 27.3809C10.817 27.2637 10.9049 27.1592 11.0201 27.0674C11.1353 26.9756 11.273 26.9033 11.4332 26.8506C11.5934 26.7979 11.773 26.7715 11.9723 26.7715C12.2105 26.7715 12.4215 26.8115 12.6051 26.8916C12.7906 26.9717 12.9361 27.0928 13.0416 27.2549C13.149 27.415 13.2027 27.6162 13.2027 27.8584V29.2676C13.2027 29.4121 13.2125 29.542 13.232 29.6572C13.2535 29.7705 13.2838 29.8691 13.3228 29.9531V30H12.5992C12.566 29.9238 12.5396 29.8271 12.5201 29.71C12.5025 29.5908 12.4937 29.4756 12.4937 29.3643ZM12.5963 28.0723L12.6021 28.5088H12.0953C11.9644 28.5088 11.8492 28.5215 11.7496 28.5469C11.65 28.5703 11.567 28.6055 11.5006 28.6523C11.4342 28.6992 11.3844 28.7559 11.3512 28.8223C11.318 28.8887 11.3014 28.9639 11.3014 29.0479C11.3014 29.1318 11.3209 29.209 11.36 29.2793C11.399 29.3477 11.4557 29.4014 11.5299 29.4404C11.606 29.4795 11.6978 29.499 11.8053 29.499C11.9498 29.499 12.0758 29.4697 12.1832 29.4111C12.2926 29.3506 12.3785 29.2773 12.441 29.1914C12.5035 29.1035 12.5367 29.0205 12.5406 28.9424L12.7691 29.2559C12.7457 29.3359 12.7057 29.4219 12.649 29.5137C12.5924 29.6055 12.5182 29.6934 12.4264 29.7773C12.3365 29.8594 12.2281 29.9268 12.1012 29.9795C11.9762 30.0322 11.8316 30.0586 11.6676 30.0586C11.4605 30.0586 11.276 30.0176 11.1139 29.9355C10.9518 29.8516 10.8248 29.7393 10.733 29.5986C10.6412 29.4561 10.5953 29.2949 10.5953 29.1152C10.5953 28.9473 10.6266 28.7988 10.6891 28.6699C10.7535 28.5391 10.8473 28.4297 10.9703 28.3418C11.0953 28.2539 11.2477 28.1875 11.4273 28.1426C11.607 28.0957 11.8121 28.0723 12.0426 28.0723H12.5963ZM14.7307 27.4746V30H14.0246V26.8301H14.6896L14.7307 27.4746ZM14.6164 28.2979L14.3762 28.2949C14.3762 28.0762 14.4035 27.874 14.4582 27.6885C14.5129 27.5029 14.593 27.3418 14.6984 27.2051C14.8039 27.0664 14.9348 26.96 15.091 26.8857C15.2492 26.8096 15.4318 26.7715 15.6389 26.7715C15.7834 26.7715 15.9152 26.793 16.0344 26.8359C16.1555 26.877 16.2599 26.9424 16.3478 27.0322C16.4377 27.1221 16.506 27.2373 16.5529 27.3779C16.6017 27.5186 16.6262 27.6885 16.6262 27.8877V30H15.9201V27.9492C15.9201 27.7949 15.8967 27.6738 15.8498 27.5859C15.8049 27.498 15.7394 27.4355 15.6535 27.3984C15.5695 27.3594 15.4689 27.3398 15.3517 27.3398C15.2189 27.3398 15.1057 27.3652 15.0119 27.416C14.9201 27.4668 14.8449 27.5361 14.7863 27.624C14.7277 27.7119 14.6848 27.8135 14.6574 27.9287C14.6301 28.0439 14.6164 28.167 14.6164 28.2979ZM16.5822 28.1104L16.2512 28.1836C16.2512 27.9922 16.2775 27.8115 16.3303 27.6416C16.3849 27.4697 16.4641 27.3193 16.5676 27.1904C16.673 27.0596 16.8029 26.957 16.9572 26.8828C17.1115 26.8086 17.2883 26.7715 17.4875 26.7715C17.6496 26.7715 17.7941 26.7939 17.9211 26.8389C18.05 26.8818 18.1594 26.9502 18.2492 27.0439C18.3391 27.1377 18.4074 27.2598 18.4543 27.4102C18.5012 27.5586 18.5246 27.7383 18.5246 27.9492V30H17.8156V27.9463C17.8156 27.7861 17.7922 27.6621 17.7453 27.5742C17.7004 27.4863 17.6359 27.4258 17.5519 27.3926C17.468 27.3574 17.3674 27.3398 17.2502 27.3398C17.1408 27.3398 17.0441 27.3604 16.9601 27.4014C16.8781 27.4404 16.8088 27.4961 16.7521 27.5684C16.6955 27.6387 16.6525 27.7197 16.6232 27.8115C16.5959 27.9033 16.5822 28.0029 16.5822 28.1104ZM20.7322 30.0586C20.4978 30.0586 20.2859 30.0205 20.0965 29.9443C19.909 29.8662 19.7488 29.7578 19.616 29.6191C19.4851 29.4805 19.3846 29.3174 19.3142 29.1299C19.2439 28.9424 19.2088 28.7402 19.2088 28.5234V28.4062C19.2088 28.1582 19.2449 27.9336 19.3172 27.7324C19.3894 27.5312 19.49 27.3594 19.6189 27.2168C19.7478 27.0723 19.9002 26.9619 20.076 26.8857C20.2517 26.8096 20.4422 26.7715 20.6472 26.7715C20.8738 26.7715 21.0721 26.8096 21.242 26.8857C21.4119 26.9619 21.5525 27.0693 21.6638 27.208C21.7771 27.3447 21.8611 27.5078 21.9158 27.6973C21.9724 27.8867 22.0008 28.0957 22.0008 28.3242V28.626H19.5515V28.1191H21.3035V28.0635C21.2996 27.9365 21.2742 27.8174 21.2273 27.7061C21.1824 27.5947 21.1131 27.5049 21.0193 27.4365C20.9256 27.3682 20.8006 27.334 20.6443 27.334C20.5271 27.334 20.4226 27.3594 20.3308 27.4102C20.241 27.459 20.1658 27.5303 20.1053 27.624C20.0447 27.7178 19.9978 27.8311 19.9646 27.9639C19.9334 28.0947 19.9178 28.2422 19.9178 28.4062V28.5234C19.9178 28.6621 19.9363 28.791 19.9734 28.9102C20.0125 29.0273 20.0691 29.1299 20.1433 29.2178C20.2176 29.3057 20.3074 29.375 20.4129 29.4258C20.5183 29.4746 20.6385 29.499 20.7732 29.499C20.9431 29.499 21.0945 29.4648 21.2273 29.3965C21.3601 29.3281 21.4754 29.2314 21.573 29.1064L21.9451 29.4668C21.8767 29.5664 21.7879 29.6621 21.6785 29.7539C21.5691 29.8438 21.4353 29.917 21.2771 29.9736C21.1209 30.0303 20.9392 30.0586 20.7322 30.0586Z" fill="black"/>
<path d="M89.1885 25.7344V30H88.459V25.7344H89.1885ZM90.5273 25.7344V26.3203H87.1318V25.7344H90.5273ZM91.8004 29.6543L92.6617 26.8301H93.4176L92.1461 30.4834C92.1168 30.5615 92.0787 30.6465 92.0318 30.7383C91.985 30.8301 91.9234 30.917 91.8473 30.999C91.773 31.083 91.6803 31.1504 91.5689 31.2012C91.4576 31.2539 91.3228 31.2803 91.1646 31.2803C91.1021 31.2803 91.0416 31.2744 90.983 31.2627C90.9264 31.2529 90.8727 31.2422 90.8219 31.2305L90.8189 30.6914C90.8385 30.6934 90.8619 30.6953 90.8893 30.6973C90.9185 30.6992 90.942 30.7002 90.9596 30.7002C91.0768 30.7002 91.1744 30.6855 91.2525 30.6562C91.3307 30.6289 91.3941 30.584 91.443 30.5215C91.4937 30.459 91.5367 30.375 91.5719 30.2695L91.8004 29.6543ZM91.3141 26.8301L92.067 29.2031L92.193 29.9473L91.7037 30.0732L90.5523 26.8301H91.3141ZM94.6144 27.4395V31.2188H93.9084V26.8301H94.5588L94.6144 27.4395ZM96.6799 28.3857V28.4473C96.6799 28.6777 96.6525 28.8916 96.5978 29.0889C96.5451 29.2842 96.466 29.4551 96.3605 29.6016C96.257 29.7461 96.1291 29.8584 95.9767 29.9385C95.8244 30.0186 95.6486 30.0586 95.4494 30.0586C95.2521 30.0586 95.0793 30.0225 94.9308 29.9502C94.7844 29.876 94.6603 29.7715 94.5588 29.6367C94.4572 29.502 94.3752 29.3438 94.3127 29.1621C94.2521 28.9785 94.2092 28.7773 94.1838 28.5586V28.3213C94.2092 28.0889 94.2521 27.8779 94.3127 27.6885C94.3752 27.499 94.4572 27.3359 94.5588 27.1992C94.6603 27.0625 94.7844 26.957 94.9308 26.8828C95.0773 26.8086 95.2482 26.7715 95.4435 26.7715C95.6428 26.7715 95.8195 26.8105 95.9738 26.8887C96.1281 26.9648 96.258 27.0742 96.3635 27.2168C96.4689 27.3574 96.548 27.5273 96.6008 27.7266C96.6535 27.9238 96.6799 28.1436 96.6799 28.3857ZM95.9738 28.4473V28.3857C95.9738 28.2393 95.9601 28.1035 95.9328 27.9785C95.9055 27.8516 95.8625 27.7402 95.8039 27.6445C95.7453 27.5488 95.6701 27.4746 95.5783 27.4219C95.4885 27.3672 95.3801 27.3398 95.2531 27.3398C95.1281 27.3398 95.0207 27.3613 94.9308 27.4043C94.841 27.4453 94.7658 27.5029 94.7053 27.5771C94.6447 27.6514 94.5978 27.7383 94.5646 27.8379C94.5314 27.9355 94.508 28.042 94.4943 28.1572V28.7256C94.5178 28.8662 94.5578 28.9951 94.6144 29.1123C94.6711 29.2295 94.7512 29.3232 94.8547 29.3936C94.9601 29.4619 95.0949 29.4961 95.259 29.4961C95.3859 29.4961 95.4943 29.4688 95.5842 29.4141C95.674 29.3594 95.7473 29.2842 95.8039 29.1885C95.8625 29.0908 95.9055 28.9785 95.9328 28.8516C95.9601 28.7246 95.9738 28.5898 95.9738 28.4473ZM98.7615 30.0586C98.5271 30.0586 98.3152 30.0205 98.1258 29.9443C97.9383 29.8662 97.7781 29.7578 97.6453 29.6191C97.5144 29.4805 97.4138 29.3174 97.3435 29.1299C97.2732 28.9424 97.2381 28.7402 97.2381 28.5234V28.4062C97.2381 28.1582 97.2742 27.9336 97.3465 27.7324C97.4187 27.5312 97.5193 27.3594 97.6482 27.2168C97.7771 27.0723 97.9295 26.9619 98.1053 26.8857C98.281 26.8096 98.4715 26.7715 98.6765 26.7715C98.9031 26.7715 99.1013 26.8096 99.2713 26.8857C99.4412 26.9619 99.5818 27.0693 99.6931 27.208C99.8064 27.3447 99.8904 27.5078 99.9451 27.6973C100.002 27.8867 100.03 28.0957 100.03 28.3242V28.626H97.5808V28.1191H99.3328V28.0635C99.3289 27.9365 99.3035 27.8174 99.2566 27.7061C99.2117 27.5947 99.1424 27.5049 99.0486 27.4365C98.9549 27.3682 98.8299 27.334 98.6736 27.334C98.5564 27.334 98.4519 27.3594 98.3601 27.4102C98.2703 27.459 98.1951 27.5303 98.1346 27.624C98.074 27.7178 98.0271 27.8311 97.9939 27.9639C97.9627 28.0947 97.9471 28.2422 97.9471 28.4062V28.5234C97.9471 28.6621 97.9656 28.791 98.0027 28.9102C98.0418 29.0273 98.0984 29.1299 98.1726 29.2178C98.2469 29.3057 98.3367 29.375 98.4422 29.4258C98.5476 29.4746 98.6678 29.499 98.8025 29.499C98.9724 29.499 99.1238 29.4648 99.2566 29.3965C99.3894 29.3281 99.5047 29.2314 99.6023 29.1064L99.9744 29.4668C99.906 29.5664 99.8172 29.6621 99.7078 29.7539C99.5984 29.8438 99.4646 29.917 99.3064 29.9736C99.1502 30.0303 98.9685 30.0586 98.7615 30.0586Z" fill="black"/>
<path d="M0.5 39.5H199.5" stroke="black" stroke-opacity="0.05" stroke-width="0.8"/>
<path d="M0.5 60H199.5" stroke="black" stroke-opacity="0.05" stroke-width="0.8"/>
<path d="M192.5 10.5H189.5V13.5H188.5V10.5H185.5V9.5H188.5V6.5H189.5V9.5H192.5V10.5Z" fill="black" fill-opacity="0.54"/>
<path d="M180 53.5C180 54.05 180.45 54.5 181 54.5H185C185.55 54.5 186 54.05 186 53.5V47.5H180V53.5ZM186.5 46H184.75L184.25 45.5H181.75L181.25 46H179.5V47H186.5V46Z" fill="black" fill-opacity="0.54"/>
<path d="M180 72.5C180 73.05 180.45 73.5 181 73.5H185C185.55 73.5 186 73.05 186 72.5V66.5H180V72.5ZM186.5 65H184.75L184.25 64.5H181.75L181.25 65H179.5V66H186.5V65Z" fill="black" fill-opacity="0.54"/>
<path d="M160.5 52.6248V54.4998H162.375L167.905 48.9698L166.03 47.0948L160.5 52.6248ZM169.355 47.5198C169.55 47.3248 169.55 47.0098 169.355 46.8148L168.185 45.6448C167.99 45.4498 167.675 45.4498 167.48 45.6448L166.565 46.5598L168.44 48.4348L169.355 47.5198Z" fill="black" fill-opacity="0.54"/>
<path d="M160.5 71.6248V73.4998H162.375L167.905 67.9698L166.03 66.0948L160.5 71.6248ZM169.355 66.5198C169.55 66.3248 169.55 66.0098 169.355 65.8148L168.185 64.6448C167.99 64.4498 167.675 64.4498 167.48 64.6448L166.565 65.5598L168.44 67.4348L169.355 66.5198Z" fill="black" fill-opacity="0.54"/>
<path d="M7.06055 46.7344V51H6.49512V46.7344H7.06055ZM8.84766 48.6533V49.1162H6.9375V48.6533H8.84766ZM9.1377 46.7344V47.1973H6.9375V46.7344H9.1377ZM10.4019 46.5V51H9.85703V46.5H10.4019ZM11.2121 49.4502V49.3828C11.2121 49.1543 11.2453 48.9424 11.3117 48.7471C11.3781 48.5498 11.4738 48.3789 11.5988 48.2344C11.7238 48.0879 11.8752 47.9746 12.0529 47.8945C12.2307 47.8125 12.4299 47.7715 12.6506 47.7715C12.8732 47.7715 13.0734 47.8125 13.2512 47.8945C13.4308 47.9746 13.5832 48.0879 13.7082 48.2344C13.8351 48.3789 13.9318 48.5498 13.9982 48.7471C14.0646 48.9424 14.0978 49.1543 14.0978 49.3828V49.4502C14.0978 49.6787 14.0646 49.8906 13.9982 50.0859C13.9318 50.2812 13.8351 50.4521 13.7082 50.5986C13.5832 50.7432 13.4318 50.8564 13.2541 50.9385C13.0783 51.0186 12.8791 51.0586 12.6564 51.0586C12.4338 51.0586 12.2336 51.0186 12.0558 50.9385C11.8781 50.8564 11.7258 50.7432 11.5988 50.5986C11.4738 50.4521 11.3781 50.2812 11.3117 50.0859C11.2453 49.8906 11.2121 49.6787 11.2121 49.4502ZM11.7541 49.3828V49.4502C11.7541 49.6084 11.7726 49.7578 11.8098 49.8984C11.8469 50.0371 11.9025 50.1602 11.9767 50.2676C12.0529 50.375 12.1476 50.46 12.2609 50.5225C12.3742 50.583 12.506 50.6133 12.6564 50.6133C12.8049 50.6133 12.9348 50.583 13.0461 50.5225C13.1594 50.46 13.2531 50.375 13.3273 50.2676C13.4016 50.1602 13.4572 50.0371 13.4943 49.8984C13.5334 49.7578 13.5529 49.6084 13.5529 49.4502V49.3828C13.5529 49.2266 13.5334 49.0791 13.4943 48.9404C13.4572 48.7998 13.4006 48.6758 13.3244 48.5684C13.2502 48.459 13.1564 48.373 13.0432 48.3105C12.9318 48.248 12.801 48.2168 12.6506 48.2168C12.5021 48.2168 12.3713 48.248 12.258 48.3105C12.1467 48.373 12.0529 48.459 11.9767 48.5684C11.9025 48.6758 11.8469 48.7998 11.8098 48.9404C11.7726 49.0791 11.7541 49.2266 11.7541 49.3828ZM14.7176 49.4502V49.3828C14.7176 49.1543 14.7508 48.9424 14.8172 48.7471C14.8836 48.5498 14.9793 48.3789 15.1043 48.2344C15.2293 48.0879 15.3806 47.9746 15.5584 47.8945C15.7361 47.8125 15.9353 47.7715 16.156 47.7715C16.3787 47.7715 16.5789 47.8125 16.7566 47.8945C16.9363 47.9746 17.0887 48.0879 17.2137 48.2344C17.3406 48.3789 17.4373 48.5498 17.5037 48.7471C17.5701 48.9424 17.6033 49.1543 17.6033 49.3828V49.4502C17.6033 49.6787 17.5701 49.8906 17.5037 50.0859C17.4373 50.2812 17.3406 50.4521 17.2137 50.5986C17.0887 50.7432 16.9373 50.8564 16.7596 50.9385C16.5838 51.0186 16.3846 51.0586 16.1619 51.0586C15.9392 51.0586 15.739 51.0186 15.5613 50.9385C15.3836 50.8564 15.2312 50.7432 15.1043 50.5986C14.9793 50.4521 14.8836 50.2812 14.8172 50.0859C14.7508 49.8906 14.7176 49.6787 14.7176 49.4502ZM15.2596 49.3828V49.4502C15.2596 49.6084 15.2781 49.7578 15.3152 49.8984C15.3523 50.0371 15.408 50.1602 15.4822 50.2676C15.5584 50.375 15.6531 50.46 15.7664 50.5225C15.8797 50.583 16.0115 50.6133 16.1619 50.6133C16.3103 50.6133 16.4402 50.583 16.5515 50.5225C16.6648 50.46 16.7586 50.375 16.8328 50.2676C16.907 50.1602 16.9627 50.0371 16.9998 49.8984C17.0388 49.7578 17.0584 49.6084 17.0584 49.4502V49.3828C17.0584 49.2266 17.0388 49.0791 16.9998 48.9404C16.9627 48.7998 16.906 48.6758 16.8299 48.5684C16.7556 48.459 16.6619 48.373 16.5486 48.3105C16.4373 48.248 16.3064 48.2168 16.156 48.2168C16.0076 48.2168 15.8767 48.248 15.7635 48.3105C15.6521 48.373 15.5584 48.459 15.4822 48.5684C15.408 48.6758 15.3523 48.7998 15.3152 48.9404C15.2781 49.0791 15.2596 49.2266 15.2596 49.3828ZM18.9086 48.3281V51H18.3666V47.8301H18.8939L18.9086 48.3281ZM19.8988 47.8125L19.8959 48.3164C19.851 48.3066 19.808 48.3008 19.767 48.2988C19.7279 48.2949 19.683 48.293 19.6322 48.293C19.5072 48.293 19.3969 48.3125 19.3011 48.3516C19.2054 48.3906 19.1244 48.4453 19.058 48.5156C18.9916 48.5859 18.9388 48.6699 18.8998 48.7676C18.8627 48.8633 18.8383 48.9688 18.8265 49.084L18.6742 49.1719C18.6742 48.9805 18.6927 48.8008 18.7299 48.6328C18.7689 48.4648 18.8285 48.3164 18.9086 48.1875C18.9886 48.0566 19.0902 47.9551 19.2133 47.8828C19.3383 47.8086 19.4867 47.7715 19.6586 47.7715C19.6976 47.7715 19.7426 47.7764 19.7933 47.7861C19.8441 47.7939 19.8793 47.8027 19.8988 47.8125ZM23.7779 46.7109V51H23.2359V47.3877L22.1431 47.7861V47.2969L23.6929 46.7109H23.7779Z" fill="black"/>
<path d="M7.06055 66.7344V71H6.49512V66.7344H7.06055ZM8.84766 68.6533V69.1162H6.9375V68.6533H8.84766ZM9.1377 66.7344V67.1973H6.9375V66.7344H9.1377ZM10.4019 66.5V71H9.85703V66.5H10.4019ZM11.2121 69.4502V69.3828C11.2121 69.1543 11.2453 68.9424 11.3117 68.7471C11.3781 68.5498 11.4738 68.3789 11.5988 68.2344C11.7238 68.0879 11.8752 67.9746 12.0529 67.8945C12.2307 67.8125 12.4299 67.7715 12.6506 67.7715C12.8732 67.7715 13.0734 67.8125 13.2512 67.8945C13.4308 67.9746 13.5832 68.0879 13.7082 68.2344C13.8351 68.3789 13.9318 68.5498 13.9982 68.7471C14.0646 68.9424 14.0978 69.1543 14.0978 69.3828V69.4502C14.0978 69.6787 14.0646 69.8906 13.9982 70.0859C13.9318 70.2812 13.8351 70.4521 13.7082 70.5986C13.5832 70.7432 13.4318 70.8564 13.2541 70.9385C13.0783 71.0186 12.8791 71.0586 12.6564 71.0586C12.4338 71.0586 12.2336 71.0186 12.0558 70.9385C11.8781 70.8564 11.7258 70.7432 11.5988 70.5986C11.4738 70.4521 11.3781 70.2812 11.3117 70.0859C11.2453 69.8906 11.2121 69.6787 11.2121 69.4502ZM11.7541 69.3828V69.4502C11.7541 69.6084 11.7726 69.7578 11.8098 69.8984C11.8469 70.0371 11.9025 70.1602 11.9767 70.2676C12.0529 70.375 12.1476 70.46 12.2609 70.5225C12.3742 70.583 12.506 70.6133 12.6564 70.6133C12.8049 70.6133 12.9348 70.583 13.0461 70.5225C13.1594 70.46 13.2531 70.375 13.3273 70.2676C13.4016 70.1602 13.4572 70.0371 13.4943 69.8984C13.5334 69.7578 13.5529 69.6084 13.5529 69.4502V69.3828C13.5529 69.2266 13.5334 69.0791 13.4943 68.9404C13.4572 68.7998 13.4006 68.6758 13.3244 68.5684C13.2502 68.459 13.1564 68.373 13.0432 68.3105C12.9318 68.248 12.801 68.2168 12.6506 68.2168C12.5021 68.2168 12.3713 68.248 12.258 68.3105C12.1467 68.373 12.0529 68.459 11.9767 68.5684C11.9025 68.6758 11.8469 68.7998 11.8098 68.9404C11.7726 69.0791 11.7541 69.2266 11.7541 69.3828ZM14.7176 69.4502V69.3828C14.7176 69.1543 14.7508 68.9424 14.8172 68.7471C14.8836 68.5498 14.9793 68.3789 15.1043 68.2344C15.2293 68.0879 15.3806 67.9746 15.5584 67.8945C15.7361 67.8125 15.9353 67.7715 16.156 67.7715C16.3787 67.7715 16.5789 67.8125 16.7566 67.8945C16.9363 67.9746 17.0887 68.0879 17.2137 68.2344C17.3406 68.3789 17.4373 68.5498 17.5037 68.7471C17.5701 68.9424 17.6033 69.1543 17.6033 69.3828V69.4502C17.6033 69.6787 17.5701 69.8906 17.5037 70.0859C17.4373 70.2812 17.3406 70.4521 17.2137 70.5986C17.0887 70.7432 16.9373 70.8564 16.7596 70.9385C16.5838 71.0186 16.3846 71.0586 16.1619 71.0586C15.9392 71.0586 15.739 71.0186 15.5613 70.9385C15.3836 70.8564 15.2312 70.7432 15.1043 70.5986C14.9793 70.4521 14.8836 70.2812 14.8172 70.0859C14.7508 69.8906 14.7176 69.6787 14.7176 69.4502ZM15.2596 69.3828V69.4502C15.2596 69.6084 15.2781 69.7578 15.3152 69.8984C15.3523 70.0371 15.408 70.1602 15.4822 70.2676C15.5584 70.375 15.6531 70.46 15.7664 70.5225C15.8797 70.583 16.0115 70.6133 16.1619 70.6133C16.3103 70.6133 16.4402 70.583 16.5515 70.5225C16.6648 70.46 16.7586 70.375 16.8328 70.2676C16.907 70.1602 16.9627 70.0371 16.9998 69.8984C17.0388 69.7578 17.0584 69.6084 17.0584 69.4502V69.3828C17.0584 69.2266 17.0388 69.0791 16.9998 68.9404C16.9627 68.7998 16.906 68.6758 16.8299 68.5684C16.7556 68.459 16.6619 68.373 16.5486 68.3105C16.4373 68.248 16.3064 68.2168 16.156 68.2168C16.0076 68.2168 15.8767 68.248 15.7635 68.3105C15.6521 68.373 15.5584 68.459 15.4822 68.5684C15.408 68.6758 15.3523 68.7998 15.3152 68.9404C15.2781 69.0791 15.2596 69.2266 15.2596 69.3828ZM18.9086 68.3281V71H18.3666V67.8301H18.8939L18.9086 68.3281ZM19.8988 67.8125L19.8959 68.3164C19.851 68.3066 19.808 68.3008 19.767 68.2988C19.7279 68.2949 19.683 68.293 19.6322 68.293C19.5072 68.293 19.3969 68.3125 19.3011 68.3516C19.2054 68.3906 19.1244 68.4453 19.058 68.5156C18.9916 68.5859 18.9388 68.6699 18.8998 68.7676C18.8627 68.8633 18.8383 68.9688 18.8265 69.084L18.6742 69.1719C18.6742 68.9805 18.6927 68.8008 18.7299 68.6328C18.7689 68.4648 18.8285 68.3164 18.9086 68.1875C18.9886 68.0566 19.0902 67.9551 19.2133 67.8828C19.3383 67.8086 19.4867 67.7715 19.6586 67.7715C19.6976 67.7715 19.7426 67.7764 19.7933 67.7861C19.8441 67.7939 19.8793 67.8027 19.8988 67.8125ZM24.7916 70.5547V71H21.9996V70.6104L23.397 69.0547C23.5689 68.8633 23.7017 68.7012 23.7955 68.5684C23.8912 68.4336 23.9576 68.3135 23.9947 68.208C24.0338 68.1006 24.0533 67.9912 24.0533 67.8799C24.0533 67.7393 24.024 67.6123 23.9654 67.499C23.9088 67.3838 23.8248 67.292 23.7134 67.2236C23.6021 67.1553 23.4673 67.1211 23.3091 67.1211C23.1197 67.1211 22.9615 67.1582 22.8345 67.2324C22.7095 67.3047 22.6158 67.4062 22.5533 67.5371C22.4908 67.668 22.4595 67.8184 22.4595 67.9883H21.9175C21.9175 67.748 21.9703 67.5283 22.0757 67.3291C22.1812 67.1299 22.3375 66.9717 22.5445 66.8545C22.7515 66.7354 23.0064 66.6758 23.3091 66.6758C23.5787 66.6758 23.8091 66.7236 24.0006 66.8193C24.192 66.9131 24.3384 67.0459 24.44 67.2178C24.5435 67.3877 24.5953 67.5869 24.5953 67.8154C24.5953 67.9404 24.5738 68.0674 24.5308 68.1963C24.4898 68.3232 24.4322 68.4502 24.358 68.5771C24.2857 68.7041 24.2007 68.8291 24.1031 68.9521C24.0074 69.0752 23.9048 69.1963 23.7955 69.3154L22.6529 70.5547H24.7916Z" fill="black"/>
<path d="M89.0742 47.1123L87.6621 51H87.085L88.7109 46.7344H89.083L89.0742 47.1123ZM90.2578 51L88.8428 47.1123L88.834 46.7344H89.2061L90.8379 51H90.2578ZM90.1846 49.4209V49.8838H87.7881V49.4209H90.1846ZM93.2564 50.1592C93.2564 50.0811 93.2389 50.0088 93.2037 49.9424C93.1705 49.874 93.1012 49.8125 92.9957 49.7578C92.8922 49.7012 92.7359 49.6523 92.5269 49.6113C92.3512 49.5742 92.192 49.5303 92.0494 49.4795C91.9088 49.4287 91.7887 49.3672 91.6891 49.2949C91.5914 49.2227 91.5162 49.1377 91.4635 49.04C91.4107 48.9424 91.3844 48.8281 91.3844 48.6973C91.3844 48.5723 91.4117 48.4541 91.4664 48.3428C91.523 48.2314 91.6021 48.1328 91.7037 48.0469C91.8072 47.9609 91.9312 47.8936 92.0758 47.8447C92.2203 47.7959 92.3814 47.7715 92.5592 47.7715C92.8131 47.7715 93.0299 47.8164 93.2096 47.9062C93.3893 47.9961 93.5269 48.1162 93.6227 48.2666C93.7184 48.415 93.7662 48.5801 93.7662 48.7617H93.2242C93.2242 48.6738 93.1978 48.5889 93.1451 48.5068C93.0943 48.4229 93.0191 48.3535 92.9195 48.2988C92.8219 48.2441 92.7018 48.2168 92.5592 48.2168C92.4088 48.2168 92.2867 48.2402 92.193 48.2871C92.1012 48.332 92.0338 48.3896 91.9908 48.46C91.9498 48.5303 91.9293 48.6045 91.9293 48.6826C91.9293 48.7412 91.9391 48.7939 91.9586 48.8408C91.9801 48.8857 92.0172 48.9277 92.0699 48.9668C92.1227 49.0039 92.1969 49.0391 92.2926 49.0723C92.3883 49.1055 92.5103 49.1387 92.6588 49.1719C92.9185 49.2305 93.1324 49.3008 93.3004 49.3828C93.4684 49.4648 93.5934 49.5654 93.6754 49.6846C93.7574 49.8037 93.7984 49.9482 93.7984 50.1182C93.7984 50.2568 93.7691 50.3838 93.7105 50.499C93.6539 50.6143 93.5709 50.7139 93.4615 50.7979C93.3541 50.8799 93.2252 50.9443 93.0748 50.9912C92.9264 51.0361 92.7594 51.0586 92.5738 51.0586C92.2945 51.0586 92.0582 51.0088 91.8648 50.9092C91.6715 50.8096 91.525 50.6807 91.4254 50.5225C91.3258 50.3643 91.276 50.1973 91.276 50.0215H91.8209C91.8287 50.1699 91.8717 50.2881 91.9498 50.376C92.0279 50.4619 92.1236 50.5234 92.2369 50.5605C92.3502 50.5957 92.4625 50.6133 92.5738 50.6133C92.7223 50.6133 92.8463 50.5938 92.9459 50.5547C93.0475 50.5156 93.1246 50.4619 93.1773 50.3936C93.2301 50.3252 93.2564 50.2471 93.2564 50.1592ZM96.4396 50.1592C96.4396 50.0811 96.4221 50.0088 96.3869 49.9424C96.3537 49.874 96.2844 49.8125 96.1789 49.7578C96.0754 49.7012 95.9191 49.6523 95.7101 49.6113C95.5344 49.5742 95.3752 49.5303 95.2326 49.4795C95.092 49.4287 94.9719 49.3672 94.8723 49.2949C94.7746 49.2227 94.6994 49.1377 94.6467 49.04C94.5939 48.9424 94.5676 48.8281 94.5676 48.6973C94.5676 48.5723 94.5949 48.4541 94.6496 48.3428C94.7062 48.2314 94.7853 48.1328 94.8869 48.0469C94.9904 47.9609 95.1144 47.8936 95.259 47.8447C95.4035 47.7959 95.5646 47.7715 95.7424 47.7715C95.9963 47.7715 96.2131 47.8164 96.3928 47.9062C96.5724 47.9961 96.7101 48.1162 96.8058 48.2666C96.9016 48.415 96.9494 48.5801 96.9494 48.7617H96.4074C96.4074 48.6738 96.381 48.5889 96.3283 48.5068C96.2775 48.4229 96.2023 48.3535 96.1027 48.2988C96.0051 48.2441 95.8849 48.2168 95.7424 48.2168C95.592 48.2168 95.4699 48.2402 95.3762 48.2871C95.2844 48.332 95.217 48.3896 95.174 48.46C95.133 48.5303 95.1125 48.6045 95.1125 48.6826C95.1125 48.7412 95.1223 48.7939 95.1418 48.8408C95.1633 48.8857 95.2004 48.9277 95.2531 48.9668C95.3058 49.0039 95.3801 49.0391 95.4758 49.0723C95.5715 49.1055 95.6935 49.1387 95.842 49.1719C96.1017 49.2305 96.3156 49.3008 96.4836 49.3828C96.6516 49.4648 96.7766 49.5654 96.8586 49.6846C96.9406 49.8037 96.9816 49.9482 96.9816 50.1182C96.9816 50.2568 96.9523 50.3838 96.8937 50.499C96.8371 50.6143 96.7541 50.7139 96.6447 50.7979C96.5373 50.8799 96.4084 50.9443 96.258 50.9912C96.1096 51.0361 95.9426 51.0586 95.757 51.0586C95.4777 51.0586 95.2414 51.0088 95.048 50.9092C94.8547 50.8096 94.7082 50.6807 94.6086 50.5225C94.509 50.3643 94.4592 50.1973 94.4592 50.0215H95.0041C95.0119 50.1699 95.0549 50.2881 95.133 50.376C95.2111 50.4619 95.3068 50.5234 95.4201 50.5605C95.5334 50.5957 95.6457 50.6133 95.757 50.6133C95.9055 50.6133 96.0295 50.5938 96.1291 50.5547C96.2307 50.5156 96.3078 50.4619 96.3605 50.3936C96.4133 50.3252 96.4396 50.2471 96.4396 50.1592ZM99.0926 51.0586C98.8719 51.0586 98.6717 51.0215 98.492 50.9473C98.3142 50.8711 98.1609 50.7646 98.032 50.6279C97.9051 50.4912 97.8074 50.3291 97.739 50.1416C97.6707 49.9541 97.6365 49.749 97.6365 49.5264V49.4033C97.6365 49.1455 97.6746 48.916 97.7508 48.7148C97.8269 48.5117 97.9305 48.3398 98.0613 48.1992C98.1922 48.0586 98.3406 47.9521 98.5066 47.8799C98.6726 47.8076 98.8445 47.7715 99.0222 47.7715C99.2488 47.7715 99.4441 47.8105 99.6082 47.8887C99.7742 47.9668 99.9099 48.0762 100.015 48.2168C100.121 48.3555 100.199 48.5195 100.25 48.709C100.301 48.8965 100.326 49.1016 100.326 49.3242V49.5674H97.9588V49.125H99.784V49.084C99.7762 48.9434 99.7469 48.8066 99.6961 48.6738C99.6472 48.541 99.5691 48.4316 99.4617 48.3457C99.3543 48.2598 99.2078 48.2168 99.0222 48.2168C98.8992 48.2168 98.7859 48.2432 98.6824 48.2959C98.5789 48.3467 98.49 48.4229 98.4158 48.5244C98.3416 48.626 98.284 48.75 98.243 48.8965C98.2019 49.043 98.1814 49.2119 98.1814 49.4033V49.5264C98.1814 49.6768 98.2019 49.8184 98.243 49.9512C98.2859 50.082 98.3474 50.1973 98.4275 50.2969C98.5096 50.3965 98.6082 50.4746 98.7234 50.5312C98.8406 50.5879 98.9734 50.6162 99.1219 50.6162C99.3133 50.6162 99.4754 50.5771 99.6082 50.499C99.741 50.4209 99.8572 50.3164 99.9568 50.1855L100.285 50.4463C100.217 50.5498 100.13 50.6484 100.024 50.7422C99.9187 50.8359 99.7888 50.9121 99.6346 50.9707C99.4822 51.0293 99.3015 51.0586 99.0926 51.0586ZM102.37 47.8301V48.2461H100.656V47.8301H102.37ZM101.236 47.0596H101.778V50.2148C101.778 50.3223 101.794 50.4033 101.828 50.458C101.861 50.5127 101.904 50.5488 101.956 50.5664C102.009 50.584 102.066 50.5928 102.126 50.5928C102.171 50.5928 102.218 50.5889 102.267 50.5811C102.318 50.5713 102.356 50.5635 102.381 50.5576L102.384 51C102.341 51.0137 102.285 51.0264 102.214 51.0381C102.146 51.0518 102.063 51.0586 101.965 51.0586C101.832 51.0586 101.71 51.0322 101.599 50.9795C101.488 50.9268 101.399 50.8389 101.332 50.7158C101.268 50.5908 101.236 50.4229 101.236 50.2119V47.0596Z" fill="black"/>
<path d="M89.0742 67.1123L87.6621 71H87.085L88.7109 66.7344H89.083L89.0742 67.1123ZM90.2578 71L88.8428 67.1123L88.834 66.7344H89.2061L90.8379 71H90.2578ZM90.1846 69.4209V69.8838H87.7881V69.4209H90.1846ZM93.2564 70.1592C93.2564 70.0811 93.2389 70.0088 93.2037 69.9424C93.1705 69.874 93.1012 69.8125 92.9957 69.7578C92.8922 69.7012 92.7359 69.6523 92.5269 69.6113C92.3512 69.5742 92.192 69.5303 92.0494 69.4795C91.9088 69.4287 91.7887 69.3672 91.6891 69.2949C91.5914 69.2227 91.5162 69.1377 91.4635 69.04C91.4107 68.9424 91.3844 68.8281 91.3844 68.6973C91.3844 68.5723 91.4117 68.4541 91.4664 68.3428C91.523 68.2314 91.6021 68.1328 91.7037 68.0469C91.8072 67.9609 91.9312 67.8936 92.0758 67.8447C92.2203 67.7959 92.3814 67.7715 92.5592 67.7715C92.8131 67.7715 93.0299 67.8164 93.2096 67.9062C93.3893 67.9961 93.5269 68.1162 93.6227 68.2666C93.7184 68.415 93.7662 68.5801 93.7662 68.7617H93.2242C93.2242 68.6738 93.1978 68.5889 93.1451 68.5068C93.0943 68.4229 93.0191 68.3535 92.9195 68.2988C92.8219 68.2441 92.7018 68.2168 92.5592 68.2168C92.4088 68.2168 92.2867 68.2402 92.193 68.2871C92.1012 68.332 92.0338 68.3896 91.9908 68.46C91.9498 68.5303 91.9293 68.6045 91.9293 68.6826C91.9293 68.7412 91.9391 68.7939 91.9586 68.8408C91.9801 68.8857 92.0172 68.9277 92.0699 68.9668C92.1227 69.0039 92.1969 69.0391 92.2926 69.0723C92.3883 69.1055 92.5103 69.1387 92.6588 69.1719C92.9185 69.2305 93.1324 69.3008 93.3004 69.3828C93.4684 69.4648 93.5934 69.5654 93.6754 69.6846C93.7574 69.8037 93.7984 69.9482 93.7984 70.1182C93.7984 70.2568 93.7691 70.3838 93.7105 70.499C93.6539 70.6143 93.5709 70.7139 93.4615 70.7979C93.3541 70.8799 93.2252 70.9443 93.0748 70.9912C92.9264 71.0361 92.7594 71.0586 92.5738 71.0586C92.2945 71.0586 92.0582 71.0088 91.8648 70.9092C91.6715 70.8096 91.525 70.6807 91.4254 70.5225C91.3258 70.3643 91.276 70.1973 91.276 70.0215H91.8209C91.8287 70.1699 91.8717 70.2881 91.9498 70.376C92.0279 70.4619 92.1236 70.5234 92.2369 70.5605C92.3502 70.5957 92.4625 70.6133 92.5738 70.6133C92.7223 70.6133 92.8463 70.5938 92.9459 70.5547C93.0475 70.5156 93.1246 70.4619 93.1773 70.3936C93.2301 70.3252 93.2564 70.2471 93.2564 70.1592ZM96.4396 70.1592C96.4396 70.0811 96.4221 70.0088 96.3869 69.9424C96.3537 69.874 96.2844 69.8125 96.1789 69.7578C96.0754 69.7012 95.9191 69.6523 95.7101 69.6113C95.5344 69.5742 95.3752 69.5303 95.2326 69.4795C95.092 69.4287 94.9719 69.3672 94.8723 69.2949C94.7746 69.2227 94.6994 69.1377 94.6467 69.04C94.5939 68.9424 94.5676 68.8281 94.5676 68.6973C94.5676 68.5723 94.5949 68.4541 94.6496 68.3428C94.7062 68.2314 94.7853 68.1328 94.8869 68.0469C94.9904 67.9609 95.1144 67.8936 95.259 67.8447C95.4035 67.7959 95.5646 67.7715 95.7424 67.7715C95.9963 67.7715 96.2131 67.8164 96.3928 67.9062C96.5724 67.9961 96.7101 68.1162 96.8058 68.2666C96.9016 68.415 96.9494 68.5801 96.9494 68.7617H96.4074C96.4074 68.6738 96.381 68.5889 96.3283 68.5068C96.2775 68.4229 96.2023 68.3535 96.1027 68.2988C96.0051 68.2441 95.8849 68.2168 95.7424 68.2168C95.592 68.2168 95.4699 68.2402 95.3762 68.2871C95.2844 68.332 95.217 68.3896 95.174 68.46C95.133 68.5303 95.1125 68.6045 95.1125 68.6826C95.1125 68.7412 95.1223 68.7939 95.1418 68.8408C95.1633 68.8857 95.2004 68.9277 95.2531 68.9668C95.3058 69.0039 95.3801 69.0391 95.4758 69.0723C95.5715 69.1055 95.6935 69.1387 95.842 69.1719C96.1017 69.2305 96.3156 69.3008 96.4836 69.3828C96.6516 69.4648 96.7766 69.5654 96.8586 69.6846C96.9406 69.8037 96.9816 69.9482 96.9816 70.1182C96.9816 70.2568 96.9523 70.3838 96.8937 70.499C96.8371 70.6143 96.7541 70.7139 96.6447 70.7979C96.5373 70.8799 96.4084 70.9443 96.258 70.9912C96.1096 71.0361 95.9426 71.0586 95.757 71.0586C95.4777 71.0586 95.2414 71.0088 95.048 70.9092C94.8547 70.8096 94.7082 70.6807 94.6086 70.5225C94.509 70.3643 94.4592 70.1973 94.4592 70.0215H95.0041C95.0119 70.1699 95.0549 70.2881 95.133 70.376C95.2111 70.4619 95.3068 70.5234 95.4201 70.5605C95.5334 70.5957 95.6457 70.6133 95.757 70.6133C95.9055 70.6133 96.0295 70.5938 96.1291 70.5547C96.2307 70.5156 96.3078 70.4619 96.3605 70.3936C96.4133 70.3252 96.4396 70.2471 96.4396 70.1592ZM99.0926 71.0586C98.8719 71.0586 98.6717 71.0215 98.492 70.9473C98.3142 70.8711 98.1609 70.7646 98.032 70.6279C97.9051 70.4912 97.8074 70.3291 97.739 70.1416C97.6707 69.9541 97.6365 69.749 97.6365 69.5264V69.4033C97.6365 69.1455 97.6746 68.916 97.7508 68.7148C97.8269 68.5117 97.9305 68.3398 98.0613 68.1992C98.1922 68.0586 98.3406 67.9521 98.5066 67.8799C98.6726 67.8076 98.8445 67.7715 99.0222 67.7715C99.2488 67.7715 99.4441 67.8105 99.6082 67.8887C99.7742 67.9668 99.9099 68.0762 100.015 68.2168C100.121 68.3555 100.199 68.5195 100.25 68.709C100.301 68.8965 100.326 69.1016 100.326 69.3242V69.5674H97.9588V69.125H99.784V69.084C99.7762 68.9434 99.7469 68.8066 99.6961 68.6738C99.6472 68.541 99.5691 68.4316 99.4617 68.3457C99.3543 68.2598 99.2078 68.2168 99.0222 68.2168C98.8992 68.2168 98.7859 68.2432 98.6824 68.2959C98.5789 68.3467 98.49 68.4229 98.4158 68.5244C98.3416 68.626 98.284 68.75 98.243 68.8965C98.2019 69.043 98.1814 69.2119 98.1814 69.4033V69.5264C98.1814 69.6768 98.2019 69.8184 98.243 69.9512C98.2859 70.082 98.3474 70.1973 98.4275 70.2969C98.5096 70.3965 98.6082 70.4746 98.7234 70.5312C98.8406 70.5879 98.9734 70.6162 99.1219 70.6162C99.3133 70.6162 99.4754 70.5771 99.6082 70.499C99.741 70.4209 99.8572 70.3164 99.9568 70.1855L100.285 70.4463C100.217 70.5498 100.13 70.6484 100.024 70.7422C99.9187 70.8359 99.7888 70.9121 99.6346 70.9707C99.4822 71.0293 99.3015 71.0586 99.0926 71.0586ZM102.37 67.8301V68.2461H100.656V67.8301H102.37ZM101.236 67.0596H101.778V70.2148C101.778 70.3223 101.794 70.4033 101.828 70.458C101.861 70.5127 101.904 70.5488 101.956 70.5664C102.009 70.584 102.066 70.5928 102.126 70.5928C102.171 70.5928 102.218 70.5889 102.267 70.5811C102.318 70.5713 102.356 70.5635 102.381 70.5576L102.384 71C102.341 71.0137 102.285 71.0264 102.214 71.0381C102.146 71.0518 102.063 71.0586 101.965 71.0586C101.832 71.0586 101.71 71.0322 101.599 70.9795C101.488 70.9268 101.399 70.8389 101.332 70.7158C101.268 70.5908 101.236 70.4229 101.236 70.2119V67.0596Z" fill="black"/>
<rect y="81" width="200" height="79" rx="4" fill="white"/>
<rect x="0.5" y="81.5" width="199" height="78" rx="3.5" stroke="black" stroke-opacity="0.12"/>
<path d="M8.19922 94H7.01172L7.01953 93.3867H8.19922C8.60547 93.3867 8.94401 93.3021 9.21484 93.1328C9.48568 92.9609 9.6888 92.7214 9.82422 92.4141C9.96224 92.1042 10.0312 91.7422 10.0312 91.3281V90.9805C10.0312 90.6549 9.99219 90.3659 9.91406 90.1133C9.83594 89.8581 9.72135 89.6432 9.57031 89.4688C9.41927 89.2917 9.23438 89.1576 9.01562 89.0664C8.79948 88.9753 8.55078 88.9297 8.26953 88.9297H6.98828V88.3125H8.26953C8.64193 88.3125 8.98177 88.375 9.28906 88.5C9.59635 88.6224 9.86068 88.8008 10.082 89.0352C10.306 89.2669 10.4779 89.5482 10.5977 89.8789C10.7174 90.207 10.7773 90.5768 10.7773 90.9883V91.3281C10.7773 91.7396 10.7174 92.1107 10.5977 92.4414C10.4779 92.7695 10.3047 93.0495 10.0781 93.2812C9.85417 93.513 9.58333 93.6914 9.26562 93.8164C8.95052 93.9388 8.59505 94 8.19922 94ZM7.41406 88.3125V94H6.66016V88.3125H7.41406ZM13.6383 94.0781C13.344 94.0781 13.0771 94.0286 12.8375 93.9297C12.6005 93.8281 12.3961 93.6862 12.2242 93.5039C12.0549 93.3216 11.9247 93.1055 11.8336 92.8555C11.7424 92.6055 11.6969 92.332 11.6969 92.0352V91.8711C11.6969 91.5273 11.7477 91.2214 11.8492 90.9531C11.9508 90.6823 12.0888 90.4531 12.2633 90.2656C12.4378 90.0781 12.6357 89.9362 12.857 89.8398C13.0784 89.7435 13.3075 89.6953 13.5445 89.6953C13.8466 89.6953 14.107 89.7474 14.3258 89.8516C14.5471 89.9557 14.7281 90.1016 14.8687 90.2891C15.0094 90.474 15.1135 90.6927 15.1812 90.9453C15.249 91.1953 15.2828 91.4688 15.2828 91.7656V92.0898H12.1266V91.5H14.5602V91.4453C14.5497 91.2578 14.5107 91.0755 14.443 90.8984C14.3779 90.7214 14.2737 90.5755 14.1305 90.4609C13.9872 90.3464 13.7919 90.2891 13.5445 90.2891C13.3805 90.2891 13.2294 90.3242 13.0914 90.3945C12.9534 90.4622 12.8349 90.5638 12.7359 90.6992C12.637 90.8346 12.5602 91 12.5055 91.1953C12.4508 91.3906 12.4234 91.6159 12.4234 91.8711V92.0352C12.4234 92.2357 12.4508 92.4245 12.5055 92.6016C12.5628 92.776 12.6448 92.9297 12.7516 93.0625C12.8609 93.1953 12.9924 93.2995 13.1461 93.375C13.3023 93.4505 13.4794 93.4883 13.6773 93.4883C13.9325 93.4883 14.1487 93.4362 14.3258 93.332C14.5029 93.2279 14.6578 93.0885 14.7906 92.9141L15.2281 93.2617C15.137 93.3997 15.0211 93.5312 14.8805 93.6562C14.7398 93.7812 14.5667 93.8828 14.3609 93.9609C14.1578 94.0391 13.9169 94.0781 13.6383 94.0781ZM17.4406 93.3477L18.5969 89.7734H19.3351L17.8156 94H17.3312L17.4406 93.3477ZM16.4758 89.7734L17.6672 93.3672L17.7492 94H17.2648L15.7336 89.7734H16.4758ZM20.8992 89.7734V94H20.1726V89.7734H20.8992ZM20.118 88.6523C20.118 88.5352 20.1531 88.4362 20.2234 88.3555C20.2963 88.2747 20.4031 88.2344 20.5437 88.2344C20.6818 88.2344 20.7872 88.2747 20.8601 88.3555C20.9357 88.4362 20.9734 88.5352 20.9734 88.6523C20.9734 88.7643 20.9357 88.8607 20.8601 88.9414C20.7872 89.0195 20.6818 89.0586 20.5437 89.0586C20.4031 89.0586 20.2963 89.0195 20.2234 88.9414C20.1531 88.8607 20.118 88.7643 20.118 88.6523ZM23.8344 93.4844C24.0062 93.4844 24.1651 93.4492 24.3109 93.3789C24.4567 93.3086 24.5765 93.2122 24.6703 93.0898C24.764 92.9648 24.8174 92.8229 24.8304 92.6641H25.5179C25.5049 92.9141 25.4203 93.1471 25.264 93.3633C25.1104 93.5768 24.9086 93.75 24.6586 93.8828C24.4086 94.013 24.1338 94.0781 23.8344 94.0781C23.5166 94.0781 23.2393 94.0221 23.0023 93.9102C22.7679 93.7982 22.5726 93.6445 22.4164 93.4492C22.2627 93.2539 22.1469 93.0299 22.0687 92.7773C21.9932 92.5221 21.9554 92.2526 21.9554 91.9688V91.8047C21.9554 91.5208 21.9932 91.2526 22.0687 91C22.1469 90.7448 22.2627 90.5195 22.4164 90.3242C22.5726 90.1289 22.7679 89.9753 23.0023 89.8633C23.2393 89.7513 23.5166 89.6953 23.8344 89.6953C24.1651 89.6953 24.4541 89.763 24.7015 89.8984C24.9489 90.0312 25.1429 90.2135 25.2836 90.4453C25.4268 90.6745 25.5049 90.9349 25.5179 91.2266H24.8304C24.8174 91.0521 24.7679 90.8945 24.682 90.7539C24.5987 90.6133 24.4841 90.5013 24.3383 90.418C24.195 90.332 24.0271 90.2891 23.8344 90.2891C23.613 90.2891 23.4268 90.3333 23.2758 90.4219C23.1273 90.5078 23.0088 90.625 22.9203 90.7734C22.8344 90.9193 22.7719 91.082 22.7328 91.2617C22.6963 91.4388 22.6781 91.6198 22.6781 91.8047V91.9688C22.6781 92.1536 22.6963 92.3359 22.7328 92.5156C22.7692 92.6953 22.8304 92.8581 22.9164 93.0039C23.0049 93.1497 23.1234 93.2669 23.2719 93.3555C23.4229 93.4414 23.6104 93.4844 23.8344 93.4844ZM28.1679 94.0781C27.8737 94.0781 27.6067 94.0286 27.3672 93.9297C27.1302 93.8281 26.9258 93.6862 26.7539 93.5039C26.5846 93.3216 26.4544 93.1055 26.3633 92.8555C26.2721 92.6055 26.2265 92.332 26.2265 92.0352V91.8711C26.2265 91.5273 26.2773 91.2214 26.3789 90.9531C26.4804 90.6823 26.6185 90.4531 26.7929 90.2656C26.9674 90.0781 27.1653 89.9362 27.3867 89.8398C27.608 89.7435 27.8372 89.6953 28.0742 89.6953C28.3763 89.6953 28.6367 89.7474 28.8554 89.8516C29.0768 89.9557 29.2578 90.1016 29.3984 90.2891C29.539 90.474 29.6432 90.6927 29.7109 90.9453C29.7786 91.1953 29.8125 91.4688 29.8125 91.7656V92.0898H26.6562V91.5H29.0898V91.4453C29.0794 91.2578 29.0403 91.0755 28.9726 90.8984C28.9075 90.7214 28.8034 90.5755 28.6601 90.4609C28.5169 90.3464 28.3216 90.2891 28.0742 90.2891C27.9101 90.2891 27.7591 90.3242 27.6211 90.3945C27.483 90.4622 27.3646 90.5638 27.2656 90.6992C27.1666 90.8346 27.0898 91 27.0351 91.1953C26.9804 91.3906 26.9531 91.6159 26.9531 91.8711V92.0352C26.9531 92.2357 26.9804 92.4245 27.0351 92.6016C27.0924 92.776 27.1744 92.9297 27.2812 93.0625C27.3906 93.1953 27.5221 93.2995 27.6758 93.375C27.832 93.4505 28.0091 93.4883 28.207 93.4883C28.4622 93.4883 28.6784 93.4362 28.8554 93.332C29.0325 93.2279 29.1875 93.0885 29.3203 92.9141L29.7578 93.2617C29.6666 93.3997 29.5508 93.5312 29.4101 93.6562C29.2695 93.7812 29.0963 93.8828 28.8906 93.9609C28.6875 94.0391 28.4466 94.0781 28.1679 94.0781ZM35.3 93.2773V91.1016C35.3 90.9349 35.2661 90.7904 35.1984 90.668C35.1333 90.543 35.0343 90.4466 34.9015 90.3789C34.7687 90.3112 34.6046 90.2773 34.4093 90.2773C34.227 90.2773 34.0669 90.3086 33.9289 90.3711C33.7934 90.4336 33.6867 90.5156 33.6086 90.6172C33.533 90.7188 33.4953 90.8281 33.4953 90.9453H32.7726C32.7726 90.7943 32.8117 90.6445 32.8898 90.4961C32.9679 90.3477 33.0799 90.2135 33.2257 90.0938C33.3742 89.9714 33.5513 89.875 33.757 89.8047C33.9653 89.7318 34.1971 89.6953 34.4523 89.6953C34.7596 89.6953 35.0304 89.7474 35.2648 89.8516C35.5018 89.9557 35.6867 90.1133 35.8195 90.3242C35.9549 90.5326 36.0226 90.7943 36.0226 91.1094V93.0781C36.0226 93.2188 36.0343 93.3685 36.0578 93.5273C36.0838 93.6862 36.1216 93.8229 36.1711 93.9375V94H35.4171C35.3807 93.9167 35.352 93.806 35.3312 93.668C35.3104 93.5273 35.3 93.3971 35.3 93.2773ZM35.425 91.4375L35.4328 91.9453H34.7023C34.4966 91.9453 34.313 91.9622 34.1515 91.9961C33.9901 92.0273 33.8546 92.0755 33.7453 92.1406C33.6359 92.2057 33.5526 92.2878 33.4953 92.3867C33.438 92.4831 33.4093 92.5964 33.4093 92.7266C33.4093 92.8594 33.4393 92.9805 33.4992 93.0898C33.5591 93.1992 33.6489 93.2865 33.7687 93.3516C33.8911 93.4141 34.0408 93.4453 34.2179 93.4453C34.4393 93.4453 34.6346 93.3984 34.8039 93.3047C34.9731 93.2109 35.1072 93.0964 35.2062 92.9609C35.3078 92.8255 35.3625 92.694 35.3703 92.5664L35.6789 92.9141C35.6606 93.0234 35.6112 93.1445 35.5304 93.2773C35.4497 93.4102 35.3416 93.5378 35.2062 93.6602C35.0734 93.7799 34.9145 93.8802 34.7296 93.9609C34.5474 94.0391 34.3416 94.0781 34.1125 94.0781C33.826 94.0781 33.5747 94.0221 33.3586 93.9102C33.145 93.7982 32.9783 93.6484 32.8586 93.4609C32.7414 93.2708 32.6828 93.0586 32.6828 92.8242C32.6828 92.5977 32.727 92.3984 32.8156 92.2266C32.9041 92.0521 33.0317 91.9076 33.1984 91.793C33.3651 91.6758 33.5656 91.5872 33.8 91.5273C34.0343 91.4674 34.2961 91.4375 34.5851 91.4375H35.425ZM39.907 93.1797V88H40.6335V94H39.9695L39.907 93.1797ZM37.0632 91.9336V91.8516C37.0632 91.5286 37.1023 91.2357 37.1804 90.9727C37.2612 90.707 37.3744 90.4792 37.5203 90.2891C37.6687 90.099 37.8445 89.9531 38.0476 89.8516C38.2533 89.7474 38.4825 89.6953 38.7351 89.6953C39.0007 89.6953 39.2325 89.7422 39.4304 89.8359C39.6309 89.9271 39.8002 90.0612 39.9382 90.2383C40.0789 90.4128 40.1895 90.6237 40.2703 90.8711C40.351 91.1185 40.407 91.3984 40.4382 91.7109V92.0703C40.4096 92.3802 40.3536 92.6589 40.2703 92.9062C40.1895 93.1536 40.0789 93.3646 39.9382 93.5391C39.8002 93.7135 39.6309 93.8477 39.4304 93.9414C39.2299 94.0326 38.9955 94.0781 38.7273 94.0781C38.4799 94.0781 38.2533 94.0247 38.0476 93.918C37.8445 93.8112 37.6687 93.6615 37.5203 93.4688C37.3744 93.276 37.2612 93.0495 37.1804 92.7891C37.1023 92.526 37.0632 92.2409 37.0632 91.9336ZM37.7898 91.8516V91.9336C37.7898 92.1445 37.8106 92.3424 37.8523 92.5273C37.8966 92.7122 37.9643 92.875 38.0554 93.0156C38.1466 93.1562 38.2625 93.2669 38.4031 93.3477C38.5437 93.4258 38.7117 93.4648 38.907 93.4648C39.1466 93.4648 39.3432 93.4141 39.4968 93.3125C39.6531 93.2109 39.7781 93.0768 39.8718 92.9102C39.9656 92.7435 40.0385 92.5625 40.0906 92.3672V91.4258C40.0593 91.2826 40.0138 91.1445 39.9539 91.0117C39.8966 90.8763 39.821 90.7565 39.7273 90.6523C39.6362 90.5456 39.5229 90.4609 39.3875 90.3984C39.2546 90.3359 39.0971 90.3047 38.9148 90.3047C38.7169 90.3047 38.5463 90.3464 38.4031 90.4297C38.2625 90.5104 38.1466 90.6224 38.0554 90.7656C37.9643 90.9062 37.8966 91.0703 37.8523 91.2578C37.8106 91.4427 37.7898 91.6406 37.7898 91.8516ZM42.5609 90.6133V94H41.8343V89.7734H42.5218L42.5609 90.6133ZM42.4124 91.7266L42.0765 91.7148C42.0791 91.4258 42.1169 91.1589 42.1898 90.9141C42.2627 90.6667 42.3708 90.4518 42.514 90.2695C42.6572 90.0872 42.8356 89.9466 43.0492 89.8477C43.2627 89.7461 43.5101 89.6953 43.7914 89.6953C43.9893 89.6953 44.1716 89.724 44.3382 89.7812C44.5049 89.8359 44.6494 89.9232 44.7718 90.043C44.8942 90.1628 44.9893 90.3164 45.057 90.5039C45.1247 90.6914 45.1585 90.918 45.1585 91.1836V94H44.4359V91.2188C44.4359 90.9974 44.3981 90.8203 44.3226 90.6875C44.2497 90.5547 44.1455 90.4583 44.0101 90.3984C43.8747 90.3359 43.7158 90.3047 43.5335 90.3047C43.32 90.3047 43.1416 90.3424 42.9984 90.418C42.8552 90.4935 42.7406 90.5977 42.6546 90.7305C42.5687 90.8633 42.5062 91.0156 42.4671 91.1875C42.4307 91.3568 42.4124 91.5365 42.4124 91.7266ZM45.1507 91.3281L44.6664 91.4766C44.669 91.2448 44.7067 91.0221 44.7796 90.8086C44.8552 90.5951 44.9632 90.4049 45.1039 90.2383C45.2471 90.0716 45.4229 89.9401 45.6312 89.8438C45.8395 89.7448 46.0778 89.6953 46.346 89.6953C46.5726 89.6953 46.7731 89.7253 46.9476 89.7852C47.1247 89.8451 47.2731 89.9375 47.3929 90.0625C47.5153 90.1849 47.6078 90.3424 47.6703 90.5352C47.7328 90.7279 47.764 90.957 47.764 91.2227V94H47.0374V91.2148C47.0374 90.9779 46.9997 90.7943 46.9242 90.6641C46.8512 90.5312 46.7471 90.4388 46.6117 90.3867C46.4789 90.332 46.32 90.3047 46.1351 90.3047C45.9762 90.3047 45.8356 90.332 45.7132 90.3867C45.5908 90.4414 45.488 90.5169 45.4046 90.6133C45.3213 90.707 45.2575 90.8151 45.2132 90.9375C45.1716 91.0599 45.1507 91.1901 45.1507 91.3281ZM49.7265 89.7734V94H48.9999V89.7734H49.7265ZM48.9453 88.6523C48.9453 88.5352 48.9804 88.4362 49.0507 88.3555C49.1236 88.2747 49.2304 88.2344 49.371 88.2344C49.5091 88.2344 49.6145 88.2747 49.6874 88.3555C49.763 88.4362 49.8007 88.5352 49.8007 88.6523C49.8007 88.7643 49.763 88.8607 49.6874 88.9414C49.6145 89.0195 49.5091 89.0586 49.371 89.0586C49.2304 89.0586 49.1236 89.0195 49.0507 88.9414C48.9804 88.8607 48.9453 88.7643 48.9453 88.6523ZM51.6929 90.6758V94H50.9702V89.7734H51.6538L51.6929 90.6758ZM51.521 91.7266L51.2202 91.7148C51.2228 91.4258 51.2658 91.1589 51.3492 90.9141C51.4325 90.6667 51.5497 90.4518 51.7007 90.2695C51.8518 90.0872 52.0314 89.9466 52.2398 89.8477C52.4507 89.7461 52.6838 89.6953 52.939 89.6953C53.1473 89.6953 53.3348 89.724 53.5015 89.7812C53.6682 89.8359 53.8101 89.9245 53.9273 90.0469C54.0471 90.1693 54.1382 90.3281 54.2007 90.5234C54.2632 90.7161 54.2945 90.9518 54.2945 91.2305V94H53.5679V91.2227C53.5679 91.0013 53.5353 90.8242 53.4702 90.6914C53.4051 90.556 53.3101 90.4583 53.1851 90.3984C53.0601 90.3359 52.9064 90.3047 52.7242 90.3047C52.5445 90.3047 52.3804 90.3424 52.232 90.418C52.0861 90.4935 51.9598 90.5977 51.8531 90.7305C51.7489 90.8633 51.6669 91.0156 51.607 91.1875C51.5497 91.3568 51.521 91.5365 51.521 91.7266ZM59.3132 89.7734V90.3281H57.028V89.7734H59.3132ZM57.8015 88.7461H58.5241V92.9531C58.5241 93.0964 58.5463 93.2044 58.5905 93.2773C58.6348 93.3503 58.6921 93.3984 58.7624 93.4219C58.8327 93.4453 58.9083 93.457 58.989 93.457C59.0489 93.457 59.1114 93.4518 59.1765 93.4414C59.2442 93.4284 59.295 93.418 59.3288 93.4102L59.3327 94C59.2754 94.0182 59.1999 94.0352 59.1062 94.0508C59.015 94.069 58.9043 94.0781 58.7741 94.0781C58.5971 94.0781 58.4343 94.043 58.2859 93.9727C58.1374 93.9023 58.0189 93.7852 57.9304 93.6211C57.8445 93.4544 57.8015 93.2305 57.8015 92.9492V88.7461ZM62.7366 93.2773V91.1016C62.7366 90.9349 62.7028 90.7904 62.6351 90.668C62.57 90.543 62.471 90.4466 62.3382 90.3789C62.2054 90.3112 62.0413 90.2773 61.846 90.2773C61.6637 90.2773 61.5036 90.3086 61.3655 90.3711C61.2301 90.4336 61.1234 90.5156 61.0452 90.6172C60.9697 90.7188 60.9319 90.8281 60.9319 90.9453H60.2093C60.2093 90.7943 60.2484 90.6445 60.3265 90.4961C60.4046 90.3477 60.5166 90.2135 60.6624 90.0938C60.8109 89.9714 60.9879 89.875 61.1937 89.8047C61.402 89.7318 61.6338 89.6953 61.889 89.6953C62.1963 89.6953 62.4671 89.7474 62.7015 89.8516C62.9385 89.9557 63.1234 90.1133 63.2562 90.3242C63.3916 90.5326 63.4593 90.7943 63.4593 91.1094V93.0781C63.4593 93.2188 63.471 93.3685 63.4944 93.5273C63.5205 93.6862 63.5582 93.8229 63.6077 93.9375V94H62.8538C62.8174 93.9167 62.7887 93.806 62.7679 93.668C62.747 93.5273 62.7366 93.3971 62.7366 93.2773ZM62.8616 91.4375L62.8694 91.9453H62.139C61.9332 91.9453 61.7497 91.9622 61.5882 91.9961C61.4267 92.0273 61.2913 92.0755 61.1819 92.1406C61.0726 92.2057 60.9892 92.2878 60.9319 92.3867C60.8747 92.4831 60.846 92.5964 60.846 92.7266C60.846 92.8594 60.876 92.9805 60.9359 93.0898C60.9957 93.1992 61.0856 93.2865 61.2054 93.3516C61.3278 93.4141 61.4775 93.4453 61.6546 93.4453C61.876 93.4453 62.0713 93.3984 62.2405 93.3047C62.4098 93.2109 62.5439 93.0964 62.6429 92.9609C62.7444 92.8255 62.7991 92.694 62.8069 92.5664L63.1155 92.9141C63.0973 93.0234 63.0478 93.1445 62.9671 93.2773C62.8864 93.4102 62.7783 93.5378 62.6429 93.6602C62.5101 93.7799 62.3512 93.8802 62.1663 93.9609C61.984 94.0391 61.7783 94.0781 61.5491 94.0781C61.2627 94.0781 61.0114 94.0221 60.7952 93.9102C60.5817 93.7982 60.415 93.6484 60.2952 93.4609C60.178 93.2708 60.1194 93.0586 60.1194 92.8242C60.1194 92.5977 60.1637 92.3984 60.2523 92.2266C60.3408 92.0521 60.4684 91.9076 60.6351 91.793C60.8017 91.6758 61.0023 91.5872 61.2366 91.5273C61.471 91.4674 61.7327 91.4375 62.0218 91.4375H62.8616ZM64.6757 88H65.4023V93.1797L65.3398 94H64.6757V88ZM68.2577 91.8516V91.9336C68.2577 92.2409 68.2213 92.526 68.1483 92.7891C68.0754 93.0495 67.9687 93.276 67.828 93.4688C67.6874 93.6615 67.5155 93.8112 67.3124 93.918C67.1093 94.0247 66.8762 94.0781 66.6132 94.0781C66.345 94.0781 66.1093 94.0326 65.9062 93.9414C65.7056 93.8477 65.5364 93.7135 65.3983 93.5391C65.2603 93.3646 65.1497 93.1536 65.0663 92.9062C64.9856 92.6589 64.9296 92.3802 64.8983 92.0703V91.7109C64.9296 91.3984 64.9856 91.1185 65.0663 90.8711C65.1497 90.6237 65.2603 90.4128 65.3983 90.2383C65.5364 90.0612 65.7056 89.9271 65.9062 89.8359C66.1067 89.7422 66.3398 89.6953 66.6054 89.6953C66.871 89.6953 67.1067 89.7474 67.3124 89.8516C67.5181 89.9531 67.69 90.099 67.828 90.2891C67.9687 90.4792 68.0754 90.707 68.1483 90.9727C68.2213 91.2357 68.2577 91.5286 68.2577 91.8516ZM67.5312 91.9336V91.8516C67.5312 91.6406 67.5116 91.4427 67.4726 91.2578C67.4335 91.0703 67.371 90.9062 67.2851 90.7656C67.1991 90.6224 67.0858 90.5104 66.9452 90.4297C66.8046 90.3464 66.6314 90.3047 66.4257 90.3047C66.2434 90.3047 66.0845 90.3359 65.9491 90.3984C65.8163 90.4609 65.703 90.5456 65.6093 90.6523C65.5155 90.7565 65.4387 90.8763 65.3788 91.0117C65.3215 91.1445 65.2786 91.2826 65.2499 91.4258V92.3672C65.2916 92.5495 65.3593 92.7253 65.453 92.8945C65.5494 93.0612 65.677 93.1979 65.8358 93.3047C65.9973 93.4115 66.1965 93.4648 66.4335 93.4648C66.6288 93.4648 66.7955 93.4258 66.9335 93.3477C67.0741 93.2669 67.1874 93.1562 67.2733 93.0156C67.3619 92.875 67.427 92.7122 67.4687 92.5273C67.5103 92.3424 67.5312 92.1445 67.5312 91.9336ZM70.0405 88V94H69.314V88H70.0405ZM73.0382 94.0781C72.7439 94.0781 72.477 94.0286 72.2374 93.9297C72.0004 93.8281 71.796 93.6862 71.6241 93.5039C71.4548 93.3216 71.3246 93.1055 71.2335 92.8555C71.1423 92.6055 71.0968 92.332 71.0968 92.0352V91.8711C71.0968 91.5273 71.1476 91.2214 71.2491 90.9531C71.3507 90.6823 71.4887 90.4531 71.6632 90.2656C71.8377 90.0781 72.0356 89.9362 72.2569 89.8398C72.4783 89.7435 72.7074 89.6953 72.9444 89.6953C73.2465 89.6953 73.5069 89.7474 73.7257 89.8516C73.947 89.9557 74.128 90.1016 74.2686 90.2891C74.4093 90.474 74.5134 90.6927 74.5811 90.9453C74.6489 91.1953 74.6827 91.4688 74.6827 91.7656V92.0898H71.5265V91.5H73.9601V91.4453C73.9496 91.2578 73.9106 91.0755 73.8429 90.8984C73.7778 90.7214 73.6736 90.5755 73.5304 90.4609C73.3871 90.3464 73.1918 90.2891 72.9444 90.2891C72.7804 90.2891 72.6293 90.3242 72.4913 90.3945C72.3533 90.4622 72.2348 90.5638 72.1358 90.6992C72.0369 90.8346 71.9601 91 71.9054 91.1953C71.8507 91.3906 71.8233 91.6159 71.8233 91.8711V92.0352C71.8233 92.2357 71.8507 92.4245 71.9054 92.6016C71.9627 92.776 72.0447 92.9297 72.1515 93.0625C72.2608 93.1953 72.3923 93.2995 72.546 93.375C72.7022 93.4505 72.8793 93.4883 73.0772 93.4883C73.3324 93.4883 73.5486 93.4362 73.7257 93.332C73.9028 93.2279 74.0577 93.0885 74.1905 92.9141L74.628 93.2617C74.5369 93.3997 74.421 93.5312 74.2804 93.6562C74.1397 93.7812 73.9666 93.8828 73.7608 93.9609C73.5577 94.0391 73.3168 94.0781 73.0382 94.0781Z" fill="black"/>
<path d="M9.81738 106.734V111H9.08203L7.16895 107.944V111H6.43359V106.734H7.16895L9.08789 109.796V106.734H9.81738ZM12.4937 110.364V108.853C12.4937 108.739 12.4732 108.642 12.4322 108.56C12.3912 108.478 12.3287 108.414 12.2447 108.369C12.1627 108.324 12.0592 108.302 11.9342 108.302C11.8189 108.302 11.7193 108.321 11.6353 108.36C11.5514 108.399 11.4859 108.452 11.4391 108.519C11.3922 108.585 11.3687 108.66 11.3687 108.744H10.6656C10.6656 108.619 10.6959 108.498 10.7564 108.381C10.817 108.264 10.9049 108.159 11.0201 108.067C11.1353 107.976 11.273 107.903 11.4332 107.851C11.5934 107.798 11.773 107.771 11.9723 107.771C12.2105 107.771 12.4215 107.812 12.6051 107.892C12.7906 107.972 12.9361 108.093 13.0416 108.255C13.149 108.415 13.2027 108.616 13.2027 108.858V110.268C13.2027 110.412 13.2125 110.542 13.232 110.657C13.2535 110.771 13.2838 110.869 13.3228 110.953V111H12.5992C12.566 110.924 12.5396 110.827 12.5201 110.71C12.5025 110.591 12.4937 110.476 12.4937 110.364ZM12.5963 109.072L12.6021 109.509H12.0953C11.9644 109.509 11.8492 109.521 11.7496 109.547C11.65 109.57 11.567 109.605 11.5006 109.652C11.4342 109.699 11.3844 109.756 11.3512 109.822C11.318 109.889 11.3014 109.964 11.3014 110.048C11.3014 110.132 11.3209 110.209 11.36 110.279C11.399 110.348 11.4557 110.401 11.5299 110.44C11.606 110.479 11.6978 110.499 11.8053 110.499C11.9498 110.499 12.0758 110.47 12.1832 110.411C12.2926 110.351 12.3785 110.277 12.441 110.191C12.5035 110.104 12.5367 110.021 12.5406 109.942L12.7691 110.256C12.7457 110.336 12.7057 110.422 12.649 110.514C12.5924 110.605 12.5182 110.693 12.4264 110.777C12.3365 110.859 12.2281 110.927 12.1012 110.979C11.9762 111.032 11.8316 111.059 11.6676 111.059C11.4605 111.059 11.276 111.018 11.1139 110.936C10.9518 110.852 10.8248 110.739 10.733 110.599C10.6412 110.456 10.5953 110.295 10.5953 110.115C10.5953 109.947 10.6266 109.799 10.6891 109.67C10.7535 109.539 10.8473 109.43 10.9703 109.342C11.0953 109.254 11.2477 109.188 11.4273 109.143C11.607 109.096 11.8121 109.072 12.0426 109.072H12.5963ZM14.7307 108.475V111H14.0246V107.83H14.6896L14.7307 108.475ZM14.6164 109.298L14.3762 109.295C14.3762 109.076 14.4035 108.874 14.4582 108.688C14.5129 108.503 14.593 108.342 14.6984 108.205C14.8039 108.066 14.9348 107.96 15.091 107.886C15.2492 107.81 15.4318 107.771 15.6389 107.771C15.7834 107.771 15.9152 107.793 16.0344 107.836C16.1555 107.877 16.2599 107.942 16.3478 108.032C16.4377 108.122 16.506 108.237 16.5529 108.378C16.6017 108.519 16.6262 108.688 16.6262 108.888V111H15.9201V108.949C15.9201 108.795 15.8967 108.674 15.8498 108.586C15.8049 108.498 15.7394 108.436 15.6535 108.398C15.5695 108.359 15.4689 108.34 15.3517 108.34C15.2189 108.34 15.1057 108.365 15.0119 108.416C14.9201 108.467 14.8449 108.536 14.7863 108.624C14.7277 108.712 14.6848 108.813 14.6574 108.929C14.6301 109.044 14.6164 109.167 14.6164 109.298ZM16.5822 109.11L16.2512 109.184C16.2512 108.992 16.2775 108.812 16.3303 108.642C16.3849 108.47 16.4641 108.319 16.5676 108.19C16.673 108.06 16.8029 107.957 16.9572 107.883C17.1115 107.809 17.2883 107.771 17.4875 107.771C17.6496 107.771 17.7941 107.794 17.9211 107.839C18.05 107.882 18.1594 107.95 18.2492 108.044C18.3391 108.138 18.4074 108.26 18.4543 108.41C18.5012 108.559 18.5246 108.738 18.5246 108.949V111H17.8156V108.946C17.8156 108.786 17.7922 108.662 17.7453 108.574C17.7004 108.486 17.6359 108.426 17.5519 108.393C17.468 108.357 17.3674 108.34 17.2502 108.34C17.1408 108.34 17.0441 108.36 16.9601 108.401C16.8781 108.44 16.8088 108.496 16.7521 108.568C16.6955 108.639 16.6525 108.72 16.6232 108.812C16.5959 108.903 16.5822 109.003 16.5822 109.11ZM20.7322 111.059C20.4978 111.059 20.2859 111.021 20.0965 110.944C19.909 110.866 19.7488 110.758 19.616 110.619C19.4851 110.48 19.3846 110.317 19.3142 110.13C19.2439 109.942 19.2088 109.74 19.2088 109.523V109.406C19.2088 109.158 19.2449 108.934 19.3172 108.732C19.3894 108.531 19.49 108.359 19.6189 108.217C19.7478 108.072 19.9002 107.962 20.076 107.886C20.2517 107.81 20.4422 107.771 20.6472 107.771C20.8738 107.771 21.0721 107.81 21.242 107.886C21.4119 107.962 21.5525 108.069 21.6638 108.208C21.7771 108.345 21.8611 108.508 21.9158 108.697C21.9724 108.887 22.0008 109.096 22.0008 109.324V109.626H19.5515V109.119H21.3035V109.063C21.2996 108.937 21.2742 108.817 21.2273 108.706C21.1824 108.595 21.1131 108.505 21.0193 108.437C20.9256 108.368 20.8006 108.334 20.6443 108.334C20.5271 108.334 20.4226 108.359 20.3308 108.41C20.241 108.459 20.1658 108.53 20.1053 108.624C20.0447 108.718 19.9978 108.831 19.9646 108.964C19.9334 109.095 19.9178 109.242 19.9178 109.406V109.523C19.9178 109.662 19.9363 109.791 19.9734 109.91C20.0125 110.027 20.0691 110.13 20.1433 110.218C20.2176 110.306 20.3074 110.375 20.4129 110.426C20.5183 110.475 20.6385 110.499 20.7732 110.499C20.9431 110.499 21.0945 110.465 21.2273 110.396C21.3601 110.328 21.4754 110.231 21.573 110.106L21.9451 110.467C21.8767 110.566 21.7879 110.662 21.6785 110.754C21.5691 110.844 21.4353 110.917 21.2771 110.974C21.1209 111.03 20.9392 111.059 20.7322 111.059Z" fill="black"/>
<path d="M89.1885 106.734V111H88.459V106.734H89.1885ZM90.5273 106.734V107.32H87.1318V106.734H90.5273ZM91.8004 110.654L92.6617 107.83H93.4176L92.1461 111.483C92.1168 111.562 92.0787 111.646 92.0318 111.738C91.985 111.83 91.9234 111.917 91.8473 111.999C91.773 112.083 91.6803 112.15 91.5689 112.201C91.4576 112.254 91.3228 112.28 91.1646 112.28C91.1021 112.28 91.0416 112.274 90.983 112.263C90.9264 112.253 90.8727 112.242 90.8219 112.23L90.8189 111.691C90.8385 111.693 90.8619 111.695 90.8893 111.697C90.9185 111.699 90.942 111.7 90.9596 111.7C91.0768 111.7 91.1744 111.686 91.2525 111.656C91.3307 111.629 91.3941 111.584 91.443 111.521C91.4937 111.459 91.5367 111.375 91.5719 111.27L91.8004 110.654ZM91.3141 107.83L92.067 110.203L92.193 110.947L91.7037 111.073L90.5523 107.83H91.3141ZM94.6144 108.439V112.219H93.9084V107.83H94.5588L94.6144 108.439ZM96.6799 109.386V109.447C96.6799 109.678 96.6525 109.892 96.5978 110.089C96.5451 110.284 96.466 110.455 96.3605 110.602C96.257 110.746 96.1291 110.858 95.9767 110.938C95.8244 111.019 95.6486 111.059 95.4494 111.059C95.2521 111.059 95.0793 111.022 94.9308 110.95C94.7844 110.876 94.6603 110.771 94.5588 110.637C94.4572 110.502 94.3752 110.344 94.3127 110.162C94.2521 109.979 94.2092 109.777 94.1838 109.559V109.321C94.2092 109.089 94.2521 108.878 94.3127 108.688C94.3752 108.499 94.4572 108.336 94.5588 108.199C94.6603 108.062 94.7844 107.957 94.9308 107.883C95.0773 107.809 95.2482 107.771 95.4435 107.771C95.6428 107.771 95.8195 107.811 95.9738 107.889C96.1281 107.965 96.258 108.074 96.3635 108.217C96.4689 108.357 96.548 108.527 96.6008 108.727C96.6535 108.924 96.6799 109.144 96.6799 109.386ZM95.9738 109.447V109.386C95.9738 109.239 95.9601 109.104 95.9328 108.979C95.9055 108.852 95.8625 108.74 95.8039 108.645C95.7453 108.549 95.6701 108.475 95.5783 108.422C95.4885 108.367 95.3801 108.34 95.2531 108.34C95.1281 108.34 95.0207 108.361 94.9308 108.404C94.841 108.445 94.7658 108.503 94.7053 108.577C94.6447 108.651 94.5978 108.738 94.5646 108.838C94.5314 108.936 94.508 109.042 94.4943 109.157V109.726C94.5178 109.866 94.5578 109.995 94.6144 110.112C94.6711 110.229 94.7512 110.323 94.8547 110.394C94.9601 110.462 95.0949 110.496 95.259 110.496C95.3859 110.496 95.4943 110.469 95.5842 110.414C95.674 110.359 95.7473 110.284 95.8039 110.188C95.8625 110.091 95.9055 109.979 95.9328 109.852C95.9601 109.725 95.9738 109.59 95.9738 109.447ZM98.7615 111.059C98.5271 111.059 98.3152 111.021 98.1258 110.944C97.9383 110.866 97.7781 110.758 97.6453 110.619C97.5144 110.48 97.4138 110.317 97.3435 110.13C97.2732 109.942 97.2381 109.74 97.2381 109.523V109.406C97.2381 109.158 97.2742 108.934 97.3465 108.732C97.4187 108.531 97.5193 108.359 97.6482 108.217C97.7771 108.072 97.9295 107.962 98.1053 107.886C98.281 107.81 98.4715 107.771 98.6765 107.771C98.9031 107.771 99.1013 107.81 99.2713 107.886C99.4412 107.962 99.5818 108.069 99.6931 108.208C99.8064 108.345 99.8904 108.508 99.9451 108.697C100.002 108.887 100.03 109.096 100.03 109.324V109.626H97.5808V109.119H99.3328V109.063C99.3289 108.937 99.3035 108.817 99.2566 108.706C99.2117 108.595 99.1424 108.505 99.0486 108.437C98.9549 108.368 98.8299 108.334 98.6736 108.334C98.5564 108.334 98.4519 108.359 98.3601 108.41C98.2703 108.459 98.1951 108.53 98.1346 108.624C98.074 108.718 98.0271 108.831 97.9939 108.964C97.9627 109.095 97.9471 109.242 97.9471 109.406V109.523C97.9471 109.662 97.9656 109.791 98.0027 109.91C98.0418 110.027 98.0984 110.13 98.1726 110.218C98.2469 110.306 98.3367 110.375 98.4422 110.426C98.5476 110.475 98.6678 110.499 98.8025 110.499C98.9724 110.499 99.1238 110.465 99.2566 110.396C99.3894 110.328 99.5047 110.231 99.6023 110.106L99.9744 110.467C99.906 110.566 99.8172 110.662 99.7078 110.754C99.5984 110.844 99.4646 110.917 99.3064 110.974C99.1502 111.03 98.9685 111.059 98.7615 111.059Z" fill="black"/>
<path d="M0.5 120.5H199.5" stroke="black" stroke-opacity="0.05" stroke-width="0.8"/>
<path d="M0.5 141H199.5" stroke="black" stroke-opacity="0.05" stroke-width="0.8"/>
<path d="M192.5 91.5H189.5V94.5H188.5V91.5H185.5V90.5H188.5V87.5H189.5V90.5H192.5V91.5Z" fill="black" fill-opacity="0.54"/>
<path d="M180 134.5C180 135.05 180.45 135.5 181 135.5H185C185.55 135.5 186 135.05 186 134.5V128.5H180V134.5ZM186.5 127H184.75L184.25 126.5H181.75L181.25 127H179.5V128H186.5V127Z" fill="black" fill-opacity="0.54"/>
<path d="M180 153.5C180 154.05 180.45 154.5 181 154.5H185C185.55 154.5 186 154.05 186 153.5V147.5H180V153.5ZM186.5 146H184.75L184.25 145.5H181.75L181.25 146H179.5V147H186.5V146Z" fill="black" fill-opacity="0.54"/>
<path d="M160.5 133.625V135.5H162.375L167.905 129.97L166.03 128.095L160.5 133.625ZM169.355 128.52C169.55 128.325 169.55 128.01 169.355 127.815L168.185 126.645C167.99 126.45 167.675 126.45 167.48 126.645L166.565 127.56L168.44 129.435L169.355 128.52Z" fill="black" fill-opacity="0.54"/>
<path d="M160.5 152.625V154.5H162.375L167.905 148.97L166.03 147.095L160.5 152.625ZM169.355 147.52C169.55 147.325 169.55 147.01 169.355 146.815L168.185 145.645C167.99 145.45 167.675 145.45 167.48 145.645L166.565 146.56L168.44 148.435L169.355 147.52Z" fill="black" fill-opacity="0.54"/>
<path d="M7.61719 130.711L8.46387 127.734H8.87402L8.63672 128.892L7.72559 132H7.31836L7.61719 130.711ZM6.74121 127.734L7.41504 130.652L7.61719 132H7.21289L6.17871 127.734H6.74121ZM9.96973 130.649L10.6289 127.734H11.1943L10.1631 132H9.75879L9.96973 130.649ZM8.93555 127.734L9.75879 130.711L10.0576 132H9.65039L8.77148 128.892L8.53125 127.734H8.93555ZM12.0836 127.734H12.6314L14.0289 131.212L15.4234 127.734H15.9742L14.2398 132H13.8121L12.0836 127.734ZM11.9049 127.734H12.3883L12.4674 130.336V132H11.9049V127.734ZM15.6666 127.734H16.15V132H15.5875V130.336L15.6666 127.734ZM19.9689 130.564V131.01H16.8869V130.69L18.7971 127.734H19.2394L18.7648 128.59L17.5021 130.564H19.9689ZM19.3742 127.734V132H18.8322V127.734H19.3742ZM21.3357 129.601H21.7224C21.9119 129.601 22.0681 129.569 22.1912 129.507C22.3162 129.442 22.409 129.355 22.4695 129.246C22.532 129.135 22.5633 129.01 22.5633 128.871C22.5633 128.707 22.5359 128.569 22.4812 128.458C22.4265 128.347 22.3445 128.263 22.2351 128.206C22.1258 128.149 21.9871 128.121 21.8191 128.121C21.6668 128.121 21.532 128.151 21.4148 128.212C21.2996 128.271 21.2088 128.354 21.1424 128.464C21.0779 128.573 21.0457 128.702 21.0457 128.851H20.5037C20.5037 128.634 20.5584 128.437 20.6678 128.259C20.7771 128.081 20.9305 127.939 21.1277 127.834C21.3269 127.729 21.5574 127.676 21.8191 127.676C22.0769 127.676 22.3025 127.722 22.4959 127.813C22.6892 127.903 22.8396 128.038 22.9471 128.218C23.0545 128.396 23.1082 128.617 23.1082 128.883C23.1082 128.99 23.0828 129.105 23.032 129.229C22.9832 129.35 22.906 129.463 22.8006 129.568C22.6971 129.674 22.5623 129.761 22.3963 129.829C22.2303 129.896 22.031 129.929 21.7986 129.929H21.3357V129.601ZM21.3357 130.046V129.721H21.7986C22.0701 129.721 22.2947 129.753 22.4724 129.817C22.6502 129.882 22.7898 129.968 22.8914 130.075C22.9949 130.183 23.0672 130.301 23.1082 130.43C23.1512 130.557 23.1726 130.684 23.1726 130.811C23.1726 131.01 23.1385 131.187 23.0701 131.341C23.0037 131.495 22.909 131.626 22.7859 131.733C22.6648 131.841 22.5222 131.922 22.3582 131.977C22.1941 132.031 22.0154 132.059 21.8221 132.059C21.6365 132.059 21.4617 132.032 21.2976 131.979C21.1355 131.927 20.992 131.851 20.867 131.751C20.742 131.649 20.6443 131.525 20.574 131.379C20.5037 131.23 20.4685 131.062 20.4685 130.872H21.0105C21.0105 131.021 21.0428 131.15 21.1072 131.262C21.1736 131.373 21.2674 131.46 21.3885 131.522C21.5115 131.583 21.656 131.613 21.8221 131.613C21.9881 131.613 22.1306 131.585 22.2498 131.528C22.3709 131.47 22.4637 131.382 22.5281 131.265C22.5945 131.147 22.6277 131 22.6277 130.822C22.6277 130.645 22.5906 130.499 22.5164 130.386C22.4422 130.271 22.3367 130.186 22.2 130.131C22.0652 130.074 21.906 130.046 21.7224 130.046H21.3357ZM26.7982 131.555V132H24.0062V131.61L25.4037 130.055C25.5756 129.863 25.7084 129.701 25.8021 129.568C25.8978 129.434 25.9642 129.313 26.0013 129.208C26.0404 129.101 26.0599 128.991 26.0599 128.88C26.0599 128.739 26.0306 128.612 25.972 128.499C25.9154 128.384 25.8314 128.292 25.7201 128.224C25.6088 128.155 25.474 128.121 25.3158 128.121C25.1263 128.121 24.9681 128.158 24.8412 128.232C24.7162 128.305 24.6224 128.406 24.5599 128.537C24.4974 128.668 24.4662 128.818 24.4662 128.988H23.9242C23.9242 128.748 23.9769 128.528 24.0824 128.329C24.1879 128.13 24.3441 127.972 24.5511 127.854C24.7582 127.735 25.0131 127.676 25.3158 127.676C25.5853 127.676 25.8158 127.724 26.0072 127.819C26.1986 127.913 26.3451 128.046 26.4467 128.218C26.5502 128.388 26.6019 128.587 26.6019 128.815C26.6019 128.94 26.5804 129.067 26.5375 129.196C26.4965 129.323 26.4388 129.45 26.3646 129.577C26.2924 129.704 26.2074 129.829 26.1097 129.952C26.014 130.075 25.9115 130.196 25.8021 130.315L24.6595 131.555H26.7982Z" fill="black"/>
<path d="M7.06055 147.734V152H6.49512V147.734H7.06055ZM9.63574 147.734L7.86328 149.724L6.86719 150.758L6.77344 150.154L7.52344 149.328L8.95605 147.734H9.63574ZM9.09082 152L7.51172 149.92L7.84863 149.472L9.76465 152H9.09082ZM12.9332 151.54V152H10.8004V151.54H12.9332ZM10.9117 147.734V152H10.3463V147.734H10.9117ZM14.2092 149.97L13.7756 149.858L13.9894 147.734H16.1779V148.235H14.4494L14.3205 149.396C14.3986 149.351 14.4973 149.309 14.6164 149.27C14.7375 149.23 14.8762 149.211 15.0324 149.211C15.2297 149.211 15.4064 149.245 15.5627 149.313C15.7189 149.38 15.8517 149.476 15.9611 149.601C16.0724 149.726 16.1574 149.876 16.216 150.052C16.2746 150.228 16.3039 150.424 16.3039 150.641C16.3039 150.846 16.2756 151.034 16.2189 151.206C16.1642 151.378 16.0812 151.528 15.9699 151.657C15.8586 151.784 15.718 151.883 15.548 151.953C15.3801 152.023 15.1818 152.059 14.9533 152.059C14.7814 152.059 14.6183 152.035 14.4641 151.988C14.3117 151.939 14.175 151.866 14.0539 151.769C13.9348 151.669 13.8371 151.546 13.7609 151.399C13.6867 151.251 13.6398 151.077 13.6203 150.878H14.1359C14.1594 151.038 14.2062 151.173 14.2766 151.282C14.3469 151.392 14.4387 151.475 14.5519 151.531C14.6672 151.586 14.801 151.613 14.9533 151.613C15.0822 151.613 15.1965 151.591 15.2961 151.546C15.3957 151.501 15.4797 151.437 15.548 151.353C15.6164 151.269 15.6682 151.167 15.7033 151.048C15.7404 150.929 15.759 150.795 15.759 150.646C15.759 150.512 15.7404 150.387 15.7033 150.271C15.6662 150.156 15.6105 150.056 15.5363 149.97C15.4641 149.884 15.3752 149.817 15.2697 149.771C15.1642 149.722 15.0432 149.697 14.9064 149.697C14.7248 149.697 14.5871 149.722 14.4933 149.771C14.4016 149.819 14.3068 149.886 14.2092 149.97ZM17.7732 149.601H18.1599C18.3494 149.601 18.5056 149.569 18.6287 149.507C18.7537 149.442 18.8465 149.355 18.907 149.246C18.9695 149.135 19.0008 149.01 19.0008 148.871C19.0008 148.707 18.9734 148.569 18.9187 148.458C18.864 148.347 18.782 148.263 18.6726 148.206C18.5633 148.149 18.4246 148.121 18.2566 148.121C18.1043 148.121 17.9695 148.151 17.8523 148.212C17.7371 148.271 17.6463 148.354 17.5799 148.464C17.5154 148.573 17.4832 148.702 17.4832 148.851H16.9412C16.9412 148.634 16.9959 148.437 17.1053 148.259C17.2146 148.081 17.368 147.939 17.5652 147.834C17.7644 147.729 17.9949 147.676 18.2566 147.676C18.5144 147.676 18.74 147.722 18.9334 147.813C19.1267 147.903 19.2771 148.038 19.3846 148.218C19.492 148.396 19.5457 148.617 19.5457 148.883C19.5457 148.99 19.5203 149.105 19.4695 149.229C19.4207 149.35 19.3435 149.463 19.2381 149.568C19.1346 149.674 18.9998 149.761 18.8338 149.829C18.6678 149.896 18.4685 149.929 18.2361 149.929H17.7732V149.601ZM17.7732 150.046V149.721H18.2361C18.5076 149.721 18.7322 149.753 18.9099 149.817C19.0877 149.882 19.2273 149.968 19.3289 150.075C19.4324 150.183 19.5047 150.301 19.5457 150.43C19.5887 150.557 19.6101 150.684 19.6101 150.811C19.6101 151.01 19.576 151.187 19.5076 151.341C19.4412 151.495 19.3465 151.626 19.2234 151.733C19.1023 151.841 18.9597 151.922 18.7957 151.977C18.6316 152.031 18.4529 152.059 18.2596 152.059C18.074 152.059 17.8992 152.032 17.7351 151.979C17.573 151.927 17.4295 151.851 17.3045 151.751C17.1795 151.649 17.0818 151.525 17.0115 151.379C16.9412 151.23 16.906 151.062 16.906 150.872H17.448C17.448 151.021 17.4803 151.15 17.5447 151.262C17.6111 151.373 17.7049 151.46 17.826 151.522C17.949 151.583 18.0935 151.613 18.2596 151.613C18.4256 151.613 18.5681 151.585 18.6873 151.528C18.8084 151.47 18.9012 151.382 18.9656 151.265C19.032 151.147 19.0652 151 19.0652 150.822C19.0652 150.645 19.0281 150.499 18.9539 150.386C18.8797 150.271 18.7742 150.186 18.6375 150.131C18.5027 150.074 18.3435 150.046 18.1599 150.046H17.7732ZM23.2357 151.555V152H20.4437V151.61L21.8412 150.055C22.0131 149.863 22.1459 149.701 22.2396 149.568C22.3353 149.434 22.4017 149.313 22.4388 149.208C22.4779 149.101 22.4974 148.991 22.4974 148.88C22.4974 148.739 22.4681 148.612 22.4095 148.499C22.3529 148.384 22.2689 148.292 22.1576 148.224C22.0463 148.155 21.9115 148.121 21.7533 148.121C21.5638 148.121 21.4056 148.158 21.2787 148.232C21.1537 148.305 21.0599 148.406 20.9974 148.537C20.9349 148.668 20.9037 148.818 20.9037 148.988H20.3617C20.3617 148.748 20.4144 148.528 20.5199 148.329C20.6254 148.13 20.7816 147.972 20.9886 147.854C21.1957 147.735 21.4506 147.676 21.7533 147.676C22.0228 147.676 22.2533 147.724 22.4447 147.819C22.6361 147.913 22.7826 148.046 22.8842 148.218C22.9877 148.388 23.0394 148.587 23.0394 148.815C23.0394 148.94 23.0179 149.067 22.975 149.196C22.934 149.323 22.8763 149.45 22.8021 149.577C22.7299 149.704 22.6449 149.829 22.5472 149.952C22.4515 150.075 22.349 150.196 22.2396 150.315L21.097 151.555H23.2357ZM25.6806 147.711V152H25.1386V148.388L24.0459 148.786V148.297L25.5957 147.711H25.6806Z" fill="black"/>
<path d="M88.6494 132H87.7588L87.7646 131.54H88.6494C88.9541 131.54 89.208 131.477 89.4111 131.35C89.6143 131.221 89.7666 131.041 89.8682 130.811C89.9717 130.578 90.0234 130.307 90.0234 129.996V129.735C90.0234 129.491 89.9941 129.274 89.9355 129.085C89.877 128.894 89.791 128.732 89.6777 128.602C89.5645 128.469 89.4258 128.368 89.2617 128.3C89.0996 128.231 88.9131 128.197 88.7021 128.197H87.7412V127.734H88.7021C88.9814 127.734 89.2363 127.781 89.4668 127.875C89.6973 127.967 89.8955 128.101 90.0615 128.276C90.2295 128.45 90.3584 128.661 90.4482 128.909C90.5381 129.155 90.583 129.433 90.583 129.741V129.996C90.583 130.305 90.5381 130.583 90.4482 130.831C90.3584 131.077 90.2285 131.287 90.0586 131.461C89.8906 131.635 89.6875 131.769 89.4492 131.862C89.2129 131.954 88.9463 132 88.6494 132ZM88.0605 127.734V132H87.4951V127.734H88.0605ZM92.7496 132.059C92.5289 132.059 92.3287 132.021 92.149 131.947C91.9713 131.871 91.818 131.765 91.6891 131.628C91.5621 131.491 91.4644 131.329 91.3961 131.142C91.3277 130.954 91.2935 130.749 91.2935 130.526V130.403C91.2935 130.146 91.3316 129.916 91.4078 129.715C91.484 129.512 91.5875 129.34 91.7184 129.199C91.8492 129.059 91.9977 128.952 92.1637 128.88C92.3297 128.808 92.5016 128.771 92.6793 128.771C92.9059 128.771 93.1012 128.811 93.2652 128.889C93.4312 128.967 93.567 129.076 93.6725 129.217C93.7779 129.355 93.856 129.52 93.9068 129.709C93.9576 129.896 93.983 130.102 93.983 130.324V130.567H91.6158V130.125H93.441V130.084C93.4332 129.943 93.4039 129.807 93.3531 129.674C93.3043 129.541 93.2262 129.432 93.1187 129.346C93.0113 129.26 92.8648 129.217 92.6793 129.217C92.5562 129.217 92.443 129.243 92.3394 129.296C92.2359 129.347 92.1471 129.423 92.0728 129.524C91.9986 129.626 91.941 129.75 91.9 129.896C91.859 130.043 91.8385 130.212 91.8385 130.403V130.526C91.8385 130.677 91.859 130.818 91.9 130.951C91.943 131.082 92.0045 131.197 92.0846 131.297C92.1666 131.396 92.2652 131.475 92.3805 131.531C92.4977 131.588 92.6305 131.616 92.7789 131.616C92.9703 131.616 93.1324 131.577 93.2652 131.499C93.398 131.421 93.5143 131.316 93.6139 131.186L93.942 131.446C93.8736 131.55 93.7867 131.648 93.6812 131.742C93.5758 131.836 93.4459 131.912 93.2916 131.971C93.1393 132.029 92.9586 132.059 92.7496 132.059ZM95.6223 131.511L96.4894 128.83H97.0432L95.9035 132H95.5402L95.6223 131.511ZM94.8986 128.83L95.7922 131.525L95.8537 132H95.4904L94.342 128.83H94.8986ZM98.2371 128.83V132H97.6922V128.83H98.2371ZM97.6512 127.989C97.6512 127.901 97.6775 127.827 97.7303 127.767C97.7849 127.706 97.865 127.676 97.9705 127.676C98.074 127.676 98.1531 127.706 98.2078 127.767C98.2644 127.827 98.2928 127.901 98.2928 127.989C98.2928 128.073 98.2644 128.146 98.2078 128.206C98.1531 128.265 98.074 128.294 97.9705 128.294C97.865 128.294 97.7849 128.265 97.7303 128.206C97.6775 128.146 97.6512 128.073 97.6512 127.989ZM100.459 131.613C100.588 131.613 100.707 131.587 100.817 131.534C100.926 131.481 101.016 131.409 101.086 131.317C101.157 131.224 101.197 131.117 101.206 130.998H101.722C101.712 131.186 101.649 131.36 101.532 131.522C101.416 131.683 101.265 131.812 101.078 131.912C100.89 132.01 100.684 132.059 100.459 132.059C100.221 132.059 100.013 132.017 99.8353 131.933C99.6595 131.849 99.5131 131.733 99.3959 131.587C99.2806 131.44 99.1937 131.272 99.1351 131.083C99.0785 130.892 99.0502 130.689 99.0502 130.477V130.354C99.0502 130.141 99.0785 129.939 99.1351 129.75C99.1937 129.559 99.2806 129.39 99.3959 129.243C99.5131 129.097 99.6595 128.981 99.8353 128.897C100.013 128.813 100.221 128.771 100.459 128.771C100.707 128.771 100.924 128.822 101.11 128.924C101.295 129.023 101.441 129.16 101.546 129.334C101.654 129.506 101.712 129.701 101.722 129.92H101.206C101.197 129.789 101.16 129.671 101.095 129.565C101.033 129.46 100.947 129.376 100.837 129.313C100.73 129.249 100.604 129.217 100.459 129.217C100.293 129.217 100.154 129.25 100.04 129.316C99.9291 129.381 99.8402 129.469 99.7738 129.58C99.7094 129.689 99.6625 129.812 99.6332 129.946C99.6058 130.079 99.5922 130.215 99.5922 130.354V130.477C99.5922 130.615 99.6058 130.752 99.6332 130.887C99.6605 131.021 99.7064 131.144 99.7709 131.253C99.8373 131.362 99.9261 131.45 100.037 131.517C100.151 131.581 100.291 131.613 100.459 131.613ZM103.73 132.059C103.51 132.059 103.31 132.021 103.13 131.947C102.952 131.871 102.799 131.765 102.67 131.628C102.543 131.491 102.445 131.329 102.377 131.142C102.309 130.954 102.274 130.749 102.274 130.526V130.403C102.274 130.146 102.312 129.916 102.389 129.715C102.465 129.512 102.568 129.34 102.699 129.199C102.83 129.059 102.978 128.952 103.145 128.88C103.311 128.808 103.482 128.771 103.66 128.771C103.887 128.771 104.082 128.811 104.246 128.889C104.412 128.967 104.548 129.076 104.653 129.217C104.759 129.355 104.837 129.52 104.888 129.709C104.938 129.896 104.964 130.102 104.964 130.324V130.567H102.597V130.125H104.422V130.084C104.414 129.943 104.385 129.807 104.334 129.674C104.285 129.541 104.207 129.432 104.1 129.346C103.992 129.26 103.846 129.217 103.66 129.217C103.537 129.217 103.424 129.243 103.32 129.296C103.217 129.347 103.128 129.423 103.054 129.524C102.979 129.626 102.922 129.75 102.881 129.896C102.84 130.043 102.819 130.212 102.819 130.403V130.526C102.819 130.677 102.84 130.818 102.881 130.951C102.924 131.082 102.985 131.197 103.065 131.297C103.147 131.396 103.246 131.475 103.361 131.531C103.478 131.588 103.611 131.616 103.76 131.616C103.951 131.616 104.113 131.577 104.246 131.499C104.379 131.421 104.495 131.316 104.595 131.186L104.923 131.446C104.854 131.55 104.768 131.648 104.662 131.742C104.557 131.836 104.427 131.912 104.272 131.971C104.12 132.029 103.939 132.059 103.73 132.059Z" fill="black"/>
<path d="M88.6494 152H87.7588L87.7646 151.54H88.6494C88.9541 151.54 89.208 151.477 89.4111 151.35C89.6143 151.221 89.7666 151.041 89.8682 150.811C89.9717 150.578 90.0234 150.307 90.0234 149.996V149.735C90.0234 149.491 89.9941 149.274 89.9355 149.085C89.877 148.894 89.791 148.732 89.6777 148.602C89.5645 148.469 89.4258 148.368 89.2617 148.3C89.0996 148.231 88.9131 148.197 88.7021 148.197H87.7412V147.734H88.7021C88.9814 147.734 89.2363 147.781 89.4668 147.875C89.6973 147.967 89.8955 148.101 90.0615 148.276C90.2295 148.45 90.3584 148.661 90.4482 148.909C90.5381 149.155 90.583 149.433 90.583 149.741V149.996C90.583 150.305 90.5381 150.583 90.4482 150.831C90.3584 151.077 90.2285 151.287 90.0586 151.461C89.8906 151.635 89.6875 151.769 89.4492 151.862C89.2129 151.954 88.9463 152 88.6494 152ZM88.0605 147.734V152H87.4951V147.734H88.0605ZM92.7496 152.059C92.5289 152.059 92.3287 152.021 92.149 151.947C91.9713 151.871 91.818 151.765 91.6891 151.628C91.5621 151.491 91.4644 151.329 91.3961 151.142C91.3277 150.954 91.2935 150.749 91.2935 150.526V150.403C91.2935 150.146 91.3316 149.916 91.4078 149.715C91.484 149.512 91.5875 149.34 91.7184 149.199C91.8492 149.059 91.9977 148.952 92.1637 148.88C92.3297 148.808 92.5016 148.771 92.6793 148.771C92.9059 148.771 93.1012 148.811 93.2652 148.889C93.4312 148.967 93.567 149.076 93.6725 149.217C93.7779 149.355 93.856 149.52 93.9068 149.709C93.9576 149.896 93.983 150.102 93.983 150.324V150.567H91.6158V150.125H93.441V150.084C93.4332 149.943 93.4039 149.807 93.3531 149.674C93.3043 149.541 93.2262 149.432 93.1187 149.346C93.0113 149.26 92.8648 149.217 92.6793 149.217C92.5562 149.217 92.443 149.243 92.3394 149.296C92.2359 149.347 92.1471 149.423 92.0728 149.524C91.9986 149.626 91.941 149.75 91.9 149.896C91.859 150.043 91.8385 150.212 91.8385 150.403V150.526C91.8385 150.677 91.859 150.818 91.9 150.951C91.943 151.082 92.0045 151.197 92.0846 151.297C92.1666 151.396 92.2652 151.475 92.3805 151.531C92.4977 151.588 92.6305 151.616 92.7789 151.616C92.9703 151.616 93.1324 151.577 93.2652 151.499C93.398 151.421 93.5143 151.316 93.6139 151.186L93.942 151.446C93.8736 151.55 93.7867 151.648 93.6812 151.742C93.5758 151.836 93.4459 151.912 93.2916 151.971C93.1393 152.029 92.9586 152.059 92.7496 152.059ZM95.6223 151.511L96.4894 148.83H97.0432L95.9035 152H95.5402L95.6223 151.511ZM94.8986 148.83L95.7922 151.525L95.8537 152H95.4904L94.342 148.83H94.8986ZM98.2371 148.83V152H97.6922V148.83H98.2371ZM97.6512 147.989C97.6512 147.901 97.6775 147.827 97.7303 147.767C97.7849 147.706 97.865 147.676 97.9705 147.676C98.074 147.676 98.1531 147.706 98.2078 147.767C98.2644 147.827 98.2928 147.901 98.2928 147.989C98.2928 148.073 98.2644 148.146 98.2078 148.206C98.1531 148.265 98.074 148.294 97.9705 148.294C97.865 148.294 97.7849 148.265 97.7303 148.206C97.6775 148.146 97.6512 148.073 97.6512 147.989ZM100.459 151.613C100.588 151.613 100.707 151.587 100.817 151.534C100.926 151.481 101.016 151.409 101.086 151.317C101.157 151.224 101.197 151.117 101.206 150.998H101.722C101.712 151.186 101.649 151.36 101.532 151.522C101.416 151.683 101.265 151.812 101.078 151.912C100.89 152.01 100.684 152.059 100.459 152.059C100.221 152.059 100.013 152.017 99.8353 151.933C99.6595 151.849 99.5131 151.733 99.3959 151.587C99.2806 151.44 99.1937 151.272 99.1351 151.083C99.0785 150.892 99.0502 150.689 99.0502 150.477V150.354C99.0502 150.141 99.0785 149.939 99.1351 149.75C99.1937 149.559 99.2806 149.39 99.3959 149.243C99.5131 149.097 99.6595 148.981 99.8353 148.897C100.013 148.813 100.221 148.771 100.459 148.771C100.707 148.771 100.924 148.822 101.11 148.924C101.295 149.023 101.441 149.16 101.546 149.334C101.654 149.506 101.712 149.701 101.722 149.92H101.206C101.197 149.789 101.16 149.671 101.095 149.565C101.033 149.46 100.947 149.376 100.837 149.313C100.73 149.249 100.604 149.217 100.459 149.217C100.293 149.217 100.154 149.25 100.04 149.316C99.9291 149.381 99.8402 149.469 99.7738 149.58C99.7094 149.689 99.6625 149.812 99.6332 149.946C99.6058 150.079 99.5922 150.215 99.5922 150.354V150.477C99.5922 150.615 99.6058 150.752 99.6332 150.887C99.6605 151.021 99.7064 151.144 99.7709 151.253C99.8373 151.362 99.9261 151.45 100.037 151.517C100.151 151.581 100.291 151.613 100.459 151.613ZM103.73 152.059C103.51 152.059 103.31 152.021 103.13 151.947C102.952 151.871 102.799 151.765 102.67 151.628C102.543 151.491 102.445 151.329 102.377 151.142C102.309 150.954 102.274 150.749 102.274 150.526V150.403C102.274 150.146 102.312 149.916 102.389 149.715C102.465 149.512 102.568 149.34 102.699 149.199C102.83 149.059 102.978 148.952 103.145 148.88C103.311 148.808 103.482 148.771 103.66 148.771C103.887 148.771 104.082 148.811 104.246 148.889C104.412 148.967 104.548 149.076 104.653 149.217C104.759 149.355 104.837 149.52 104.888 149.709C104.938 149.896 104.964 150.102 104.964 150.324V150.567H102.597V150.125H104.422V150.084C104.414 149.943 104.385 149.807 104.334 149.674C104.285 149.541 104.207 149.432 104.1 149.346C103.992 149.26 103.846 149.217 103.66 149.217C103.537 149.217 103.424 149.243 103.32 149.296C103.217 149.347 103.128 149.423 103.054 149.524C102.979 149.626 102.922 149.75 102.881 149.896C102.84 150.043 102.819 150.212 102.819 150.403V150.526C102.819 150.677 102.84 150.818 102.881 150.951C102.924 151.082 102.985 151.197 103.065 151.297C103.147 151.396 103.246 151.475 103.361 151.531C103.478 151.588 103.611 151.616 103.76 151.616C103.951 151.616 104.113 151.577 104.246 151.499C104.379 151.421 104.495 151.316 104.595 151.186L104.923 151.446C104.854 151.55 104.768 151.648 104.662 151.742C104.557 151.836 104.427 151.912 104.272 151.971C104.12 152.029 103.939 152.059 103.73 152.059Z" fill="black"/>
</g>
<defs>
<clipPath id="clip0_18289_13959">
<rect width="200" height="160" fill="white"/>
</clipPath>
</defs>
</svg>
