<svg width="200" height="160" viewBox="0 0 200 160" fill="none" xmlns="http://www.w3.org/2000/svg">
<g clip-path="url(#clip0_18289_14134)">
<g clip-path="url(#clip1_18289_14134)">
<rect width="200" height="79" rx="4" fill="white"/>
<g filter="url(#filter0_dd_18289_14134)">
<g clip-path="url(#clip2_18289_14134)">
<mask id="path-4-inside-1_18289_14134" fill="white">
<path d="M6 6H194V29H6V6Z"/>
</mask>
<path d="M6 6H194V29H6V6Z" fill="white"/>
<path d="M194 29V28.5H6V29V29.5H194V29Z" fill="black" fill-opacity="0.16" mask="url(#path-4-inside-1_18289_14134)"/>
<path d="M16.4165 14.5234V19.5H15.7671V14.5234H16.4165ZM18.0161 14.5234V15.0635H14.1709V14.5234H18.0161ZM22.1299 16.6631V17.1997H19.4365V16.6631H22.1299ZM19.5391 14.5234V19.5H18.8794V14.5234H19.5391ZM22.7041 14.5234V19.5H22.0479V14.5234H22.7041ZM24.709 14.5234V19.5H24.0493V14.5234H24.709ZM29.8618 14.5234V19.5H29.1987L26.6934 15.6616V19.5H26.0337V14.5234H26.6934L29.209 18.3721V14.5234H29.8618ZM34.8335 17.022V18.8438C34.772 18.9349 34.674 19.0374 34.5396 19.1514C34.4051 19.263 34.2194 19.361 33.9824 19.4453C33.7477 19.5273 33.4447 19.5684 33.0732 19.5684C32.7702 19.5684 32.491 19.516 32.2358 19.4111C31.9829 19.304 31.763 19.1491 31.5762 18.9463C31.3916 18.7412 31.248 18.4928 31.1455 18.2012C31.0452 17.9072 30.9951 17.5745 30.9951 17.2031V16.8169C30.9951 16.4455 31.0384 16.1139 31.125 15.8223C31.2139 15.5306 31.3438 15.2834 31.5146 15.0806C31.6855 14.8755 31.8952 14.7205 32.1436 14.6157C32.3919 14.5086 32.6768 14.4551 32.998 14.4551C33.3786 14.4551 33.6965 14.5212 33.9517 14.6533C34.2091 14.7832 34.4097 14.9632 34.5532 15.1934C34.6991 15.4235 34.7925 15.6855 34.8335 15.9795H34.1738C34.1442 15.7995 34.085 15.6354 33.9961 15.4873C33.9095 15.3392 33.7853 15.2207 33.6235 15.1318C33.4618 15.0407 33.2533 14.9951 32.998 14.9951C32.7679 14.9951 32.5685 15.0373 32.3999 15.1216C32.2313 15.2059 32.0923 15.3267 31.9829 15.4839C31.8735 15.6411 31.7915 15.8314 31.7368 16.0547C31.6844 16.278 31.6582 16.5298 31.6582 16.8101V17.2031C31.6582 17.4902 31.6912 17.7466 31.7573 17.9722C31.8257 18.1978 31.9225 18.3903 32.0479 18.5498C32.1732 18.707 32.3224 18.8267 32.4956 18.9087C32.6711 18.9907 32.8647 19.0317 33.0767 19.0317C33.3114 19.0317 33.5016 19.0124 33.6475 18.9736C33.7933 18.9326 33.9072 18.8848 33.9893 18.8301C34.0713 18.7731 34.134 18.7196 34.1772 18.6694V17.5552H33.0254V17.022H34.8335ZM38.7046 18.2422C38.7046 18.126 38.6864 18.0234 38.6499 17.9346C38.6157 17.8434 38.5542 17.7614 38.4653 17.6885C38.3787 17.6156 38.258 17.5461 38.103 17.48C37.9504 17.4139 37.7567 17.3467 37.522 17.2783C37.2759 17.2054 37.0537 17.1245 36.8555 17.0356C36.6572 16.9445 36.4875 16.8408 36.3462 16.7246C36.2049 16.6084 36.0967 16.4751 36.0215 16.3247C35.9463 16.1743 35.9087 16.0023 35.9087 15.8086C35.9087 15.6149 35.9486 15.436 36.0283 15.272C36.1081 15.1079 36.222 14.9655 36.3701 14.8447C36.5205 14.7217 36.6994 14.626 36.9067 14.5576C37.1141 14.4893 37.3454 14.4551 37.6006 14.4551C37.9743 14.4551 38.291 14.5269 38.5508 14.6704C38.8128 14.8117 39.0122 14.9974 39.1489 15.2275C39.2856 15.4554 39.354 15.6992 39.354 15.959H38.6978C38.6978 15.7721 38.6579 15.6069 38.5781 15.4634C38.4984 15.3175 38.3776 15.2036 38.2158 15.1216C38.054 15.0373 37.849 14.9951 37.6006 14.9951C37.3659 14.9951 37.1722 15.0304 37.0195 15.1011C36.8669 15.1717 36.7529 15.2674 36.6777 15.3882C36.6048 15.509 36.5684 15.6468 36.5684 15.8018C36.5684 15.9066 36.59 16.0023 36.6333 16.0889C36.6789 16.1732 36.7484 16.2518 36.8418 16.3247C36.9375 16.3976 37.0583 16.4648 37.2041 16.5264C37.3522 16.5879 37.5288 16.6471 37.7339 16.7041C38.0164 16.7839 38.2603 16.8727 38.4653 16.9707C38.6704 17.0687 38.839 17.1792 38.9712 17.3022C39.1056 17.423 39.2048 17.5609 39.2686 17.7158C39.3346 17.8685 39.3677 18.0417 39.3677 18.2354C39.3677 18.4382 39.3267 18.6216 39.2446 18.7856C39.1626 18.9497 39.0452 19.0898 38.8926 19.2061C38.7399 19.3223 38.5565 19.4123 38.3423 19.4761C38.1304 19.5376 37.8934 19.5684 37.6313 19.5684C37.4012 19.5684 37.1745 19.5365 36.9512 19.4727C36.7301 19.4089 36.5285 19.3132 36.3462 19.1855C36.1662 19.0579 36.0215 18.9007 35.9121 18.7139C35.805 18.5247 35.7515 18.306 35.7515 18.0576H36.4077C36.4077 18.2285 36.4408 18.3755 36.5068 18.4985C36.5729 18.6193 36.6629 18.7196 36.7769 18.7993C36.8931 18.8791 37.0241 18.9383 37.1699 18.9771C37.318 19.0135 37.4718 19.0317 37.6313 19.0317C37.8615 19.0317 38.0563 18.9998 38.2158 18.936C38.3753 18.8722 38.4961 18.7811 38.5781 18.6626C38.6624 18.5441 38.7046 18.404 38.7046 18.2422ZM42.1074 17.1724H40.8462L40.8394 16.6426H41.9844C42.1735 16.6426 42.3387 16.6107 42.48 16.5469C42.6213 16.4831 42.7306 16.3919 42.8081 16.2734C42.8879 16.1527 42.9277 16.0091 42.9277 15.8428C42.9277 15.6605 42.8924 15.5124 42.8218 15.3984C42.7534 15.2822 42.6475 15.1979 42.5039 15.1455C42.3626 15.0908 42.1826 15.0635 41.9639 15.0635H40.9932V19.5H40.3335V14.5234H41.9639C42.2191 14.5234 42.4469 14.5496 42.6475 14.6021C42.848 14.6522 43.0177 14.7319 43.1567 14.8413C43.298 14.9484 43.4051 15.0851 43.478 15.2515C43.5509 15.4178 43.5874 15.6172 43.5874 15.8496C43.5874 16.0547 43.535 16.2404 43.4302 16.4067C43.3254 16.5708 43.1795 16.7052 42.9927 16.8101C42.8081 16.9149 42.5916 16.9821 42.3433 17.0117L42.1074 17.1724ZM42.0767 19.5H40.5864L40.959 18.9634H42.0767C42.2863 18.9634 42.464 18.9269 42.6099 18.854C42.758 18.7811 42.8708 18.6785 42.9482 18.5464C43.0257 18.4119 43.0645 18.2536 43.0645 18.0713C43.0645 17.8867 43.0314 17.7272 42.9653 17.5928C42.8993 17.4583 42.7956 17.3547 42.6543 17.2817C42.513 17.2088 42.3307 17.1724 42.1074 17.1724H41.1675L41.1743 16.6426H42.4595L42.5996 16.834C42.8389 16.8545 43.0417 16.9229 43.208 17.0391C43.3743 17.153 43.5008 17.2988 43.5874 17.4766C43.6763 17.6543 43.7207 17.8503 43.7207 18.0645C43.7207 18.3743 43.6523 18.6364 43.5156 18.8506C43.3812 19.0625 43.1909 19.2243 42.9448 19.3359C42.6987 19.4453 42.4093 19.5 42.0767 19.5ZM48.6514 16.8545V17.1689C48.6514 17.5426 48.6047 17.8776 48.5112 18.1738C48.4178 18.4701 48.2834 18.7218 48.1079 18.9292C47.9325 19.1366 47.7217 19.2949 47.4756 19.4043C47.2318 19.5137 46.9583 19.5684 46.6553 19.5684C46.3613 19.5684 46.0913 19.5137 45.8452 19.4043C45.6014 19.2949 45.3895 19.1366 45.2095 18.9292C45.0317 18.7218 44.8939 18.4701 44.7959 18.1738C44.6979 17.8776 44.6489 17.5426 44.6489 17.1689V16.8545C44.6489 16.4808 44.6968 16.147 44.7925 15.853C44.8905 15.5568 45.0283 15.305 45.2061 15.0977C45.3838 14.888 45.5946 14.7285 45.8384 14.6191C46.0845 14.5098 46.3545 14.4551 46.6484 14.4551C46.9515 14.4551 47.2249 14.5098 47.4688 14.6191C47.7148 14.7285 47.9256 14.888 48.1011 15.0977C48.2788 15.305 48.4144 15.5568 48.5078 15.853C48.6035 16.147 48.6514 16.4808 48.6514 16.8545ZM47.9985 17.1689V16.8477C47.9985 16.5514 47.9678 16.2894 47.9062 16.0615C47.847 15.8337 47.7593 15.6423 47.6431 15.4873C47.5269 15.3324 47.3844 15.215 47.2158 15.1353C47.0495 15.0555 46.8604 15.0156 46.6484 15.0156C46.4434 15.0156 46.2576 15.0555 46.0913 15.1353C45.9272 15.215 45.786 15.3324 45.6675 15.4873C45.5513 15.6423 45.4613 15.8337 45.3975 16.0615C45.3337 16.2894 45.3018 16.5514 45.3018 16.8477V17.1689C45.3018 17.4674 45.3337 17.7318 45.3975 17.9619C45.4613 18.1898 45.5524 18.3823 45.6709 18.5396C45.7917 18.6945 45.9341 18.8118 46.0981 18.8916C46.2645 18.9714 46.4502 19.0112 46.6553 19.0112C46.8695 19.0112 47.0597 18.9714 47.2261 18.8916C47.3924 18.8118 47.5326 18.6945 47.6465 18.5396C47.7627 18.3823 47.8504 18.1898 47.9097 17.9619C47.9689 17.7318 47.9985 17.4674 47.9985 17.1689ZM51.5312 14.9644L49.8838 19.5H49.2104L51.1074 14.5234H51.5415L51.5312 14.9644ZM52.9121 19.5L51.2612 14.9644L51.251 14.5234H51.6851L53.5889 19.5H52.9121ZM52.8267 17.6577V18.1978H50.0308V17.6577H52.8267ZM54.3804 14.5234H56.0278C56.4015 14.5234 56.7171 14.5804 56.9746 14.6943C57.2344 14.8083 57.4315 14.9769 57.5659 15.2002C57.7026 15.4212 57.771 15.6935 57.771 16.0171C57.771 16.245 57.7243 16.4535 57.6309 16.6426C57.5397 16.8294 57.4076 16.9889 57.2344 17.1211C57.0635 17.251 56.8584 17.3478 56.6191 17.4116L56.4346 17.4834H54.8862L54.8794 16.9468H56.0483C56.2853 16.9468 56.4824 16.9058 56.6396 16.8237C56.7969 16.7394 56.9154 16.6266 56.9951 16.4854C57.0749 16.3441 57.1147 16.188 57.1147 16.0171C57.1147 15.8257 57.0771 15.6582 57.002 15.5146C56.9268 15.3711 56.8083 15.2606 56.6465 15.1831C56.487 15.1034 56.2808 15.0635 56.0278 15.0635H55.04V19.5H54.3804V14.5234ZM57.2891 19.5L56.0791 17.2441L56.7661 17.2407L57.9932 19.459V19.5H57.2891ZM60.1655 19.5H59.1265L59.1333 18.9634H60.1655C60.521 18.9634 60.8172 18.8893 61.0542 18.7412C61.2912 18.5908 61.4689 18.3812 61.5874 18.1123C61.7082 17.8411 61.7686 17.5244 61.7686 17.1621V16.8579C61.7686 16.5731 61.7344 16.3201 61.666 16.0991C61.5977 15.8758 61.4974 15.6878 61.3652 15.5352C61.2331 15.3802 61.0713 15.2629 60.8799 15.1831C60.6908 15.1034 60.4731 15.0635 60.2271 15.0635H59.106V14.5234H60.2271C60.5529 14.5234 60.8503 14.5781 61.1191 14.6875C61.388 14.7946 61.6193 14.9507 61.813 15.1558C62.009 15.3586 62.1593 15.6047 62.2642 15.894C62.369 16.1812 62.4214 16.5047 62.4214 16.8647V17.1621C62.4214 17.5221 62.369 17.8468 62.2642 18.1362C62.1593 18.4233 62.0078 18.6683 61.8096 18.8711C61.6136 19.0739 61.3766 19.23 61.0986 19.3394C60.8229 19.4465 60.5119 19.5 60.1655 19.5ZM59.4785 14.5234V19.5H58.8188V14.5234H59.4785Z" fill="black" fill-opacity="0.76"/>
<path d="M177.705 15.7949L180 18.0849L182.295 15.7949L183 16.4999L180 19.4999L177 16.4999L177.705 15.7949Z" fill="black" fill-opacity="0.54"/>
<rect width="188" height="23" transform="translate(6 29)" fill="white"/>
<path d="M17.23 41.2422C17.23 41.126 17.2118 41.0234 17.1753 40.9346C17.1411 40.8434 17.0796 40.7614 16.9907 40.6885C16.9041 40.6156 16.7834 40.5461 16.6284 40.48C16.4757 40.4139 16.2821 40.3467 16.0474 40.2783C15.8013 40.2054 15.5791 40.1245 15.3809 40.0356C15.1826 39.9445 15.0129 39.8408 14.8716 39.7246C14.7303 39.6084 14.6221 39.4751 14.5469 39.3247C14.4717 39.1743 14.4341 39.0023 14.4341 38.8086C14.4341 38.6149 14.474 38.436 14.5537 38.272C14.6335 38.1079 14.7474 37.9655 14.8955 37.8447C15.0459 37.7217 15.2248 37.626 15.4321 37.5576C15.6395 37.4893 15.8708 37.4551 16.126 37.4551C16.4997 37.4551 16.8164 37.5269 17.0762 37.6704C17.3382 37.8117 17.5376 37.9974 17.6743 38.2275C17.811 38.4554 17.8794 38.6992 17.8794 38.959H17.2231C17.2231 38.7721 17.1833 38.6069 17.1035 38.4634C17.0238 38.3175 16.903 38.2036 16.7412 38.1216C16.5794 38.0373 16.3743 37.9951 16.126 37.9951C15.8913 37.9951 15.6976 38.0304 15.5449 38.1011C15.3923 38.1717 15.2783 38.2674 15.2031 38.3882C15.1302 38.509 15.0938 38.6468 15.0938 38.8018C15.0938 38.9066 15.1154 39.0023 15.1587 39.0889C15.2043 39.1732 15.2738 39.2518 15.3672 39.3247C15.4629 39.3976 15.5837 39.4648 15.7295 39.5264C15.8776 39.5879 16.0542 39.6471 16.2593 39.7041C16.5418 39.7839 16.7856 39.8727 16.9907 39.9707C17.1958 40.0687 17.3644 40.1792 17.4966 40.3022C17.631 40.423 17.7301 40.5609 17.7939 40.7158C17.86 40.8685 17.8931 41.0417 17.8931 41.2354C17.8931 41.4382 17.8521 41.6216 17.77 41.7856C17.688 41.9497 17.5706 42.0898 17.418 42.2061C17.2653 42.3223 17.0819 42.4123 16.8677 42.4761C16.6558 42.5376 16.4188 42.5684 16.1567 42.5684C15.9266 42.5684 15.6999 42.5365 15.4766 42.4727C15.2555 42.4089 15.0539 42.3132 14.8716 42.1855C14.6916 42.0579 14.5469 41.9007 14.4375 41.7139C14.3304 41.5247 14.2769 41.306 14.2769 41.0576H14.9331C14.9331 41.2285 14.9661 41.3755 15.0322 41.4985C15.0983 41.6193 15.1883 41.7196 15.3022 41.7993C15.4185 41.8791 15.5495 41.9383 15.6953 41.9771C15.8434 42.0135 15.9972 42.0317 16.1567 42.0317C16.3869 42.0317 16.5817 41.9998 16.7412 41.936C16.9007 41.8722 17.0215 41.7811 17.1035 41.6626C17.1878 41.5441 17.23 41.404 17.23 41.2422ZM20.6978 37.5234V42.5H20.0483V37.5234H20.6978ZM22.2974 37.5234V38.0635H18.4521V37.5234H22.2974ZM26.8965 39.8545V40.1689C26.8965 40.5426 26.8498 40.8776 26.7563 41.1738C26.6629 41.4701 26.5285 41.7218 26.353 41.9292C26.1776 42.1366 25.9668 42.2949 25.7207 42.4043C25.4769 42.5137 25.2035 42.5684 24.9004 42.5684C24.6064 42.5684 24.3364 42.5137 24.0903 42.4043C23.8465 42.2949 23.6346 42.1366 23.4546 41.9292C23.2769 41.7218 23.139 41.4701 23.041 41.1738C22.943 40.8776 22.894 40.5426 22.894 40.1689V39.8545C22.894 39.4808 22.9419 39.147 23.0376 38.853C23.1356 38.5568 23.2734 38.305 23.4512 38.0977C23.6289 37.888 23.8397 37.7285 24.0835 37.6191C24.3296 37.5098 24.5996 37.4551 24.8936 37.4551C25.1966 37.4551 25.4701 37.5098 25.7139 37.6191C25.96 37.7285 26.1707 37.888 26.3462 38.0977C26.5239 38.305 26.6595 38.5568 26.7529 38.853C26.8486 39.147 26.8965 39.4808 26.8965 39.8545ZM26.2437 40.1689V39.8477C26.2437 39.5514 26.2129 39.2894 26.1514 39.0615C26.0921 38.8337 26.0044 38.6423 25.8882 38.4873C25.772 38.3324 25.6296 38.215 25.4609 38.1353C25.2946 38.0555 25.1055 38.0156 24.8936 38.0156C24.6885 38.0156 24.5028 38.0555 24.3364 38.1353C24.1724 38.215 24.0311 38.3324 23.9126 38.4873C23.7964 38.6423 23.7064 38.8337 23.6426 39.0615C23.5788 39.2894 23.5469 39.5514 23.5469 39.8477V40.1689C23.5469 40.4674 23.5788 40.7318 23.6426 40.9619C23.7064 41.1898 23.7975 41.3823 23.916 41.5396C24.0368 41.6945 24.1792 41.8118 24.3433 41.8916C24.5096 41.9714 24.6953 42.0112 24.9004 42.0112C25.1146 42.0112 25.3049 41.9714 25.4712 41.8916C25.6375 41.8118 25.7777 41.6945 25.8916 41.5396C26.0078 41.3823 26.0955 41.1898 26.1548 40.9619C26.214 40.7318 26.2437 40.4674 26.2437 40.1689ZM28.0093 37.5234H29.6567C30.0304 37.5234 30.346 37.5804 30.6035 37.6943C30.8633 37.8083 31.0604 37.9769 31.1948 38.2002C31.3315 38.4212 31.3999 38.6935 31.3999 39.0171C31.3999 39.245 31.3532 39.4535 31.2598 39.6426C31.1686 39.8294 31.0365 39.9889 30.8633 40.1211C30.6924 40.251 30.4873 40.3478 30.248 40.4116L30.0635 40.4834H28.5151L28.5083 39.9468H29.6772C29.9142 39.9468 30.1113 39.9058 30.2686 39.8237C30.4258 39.7394 30.5443 39.6266 30.624 39.4854C30.7038 39.3441 30.7437 39.188 30.7437 39.0171C30.7437 38.8257 30.7061 38.6582 30.6309 38.5146C30.5557 38.3711 30.4372 38.2606 30.2754 38.1831C30.1159 38.1034 29.9097 38.0635 29.6567 38.0635H28.6689V42.5H28.0093V37.5234ZM30.918 42.5L29.708 40.2441L30.395 40.2407L31.6221 42.459V42.5H30.918ZM34.29 37.9644L32.6426 42.5H31.9692L33.8662 37.5234H34.3003L34.29 37.9644ZM35.6709 42.5L34.02 37.9644L34.0098 37.5234H34.4438L36.3477 42.5H35.6709ZM35.5854 40.6577V41.1978H32.7896V40.6577H35.5854ZM40.7759 40.022V41.8438C40.7144 41.9349 40.6164 42.0374 40.4819 42.1514C40.3475 42.263 40.1618 42.361 39.9248 42.4453C39.6901 42.5273 39.387 42.5684 39.0156 42.5684C38.7126 42.5684 38.4334 42.516 38.1782 42.4111C37.9253 42.304 37.7054 42.1491 37.5186 41.9463C37.334 41.7412 37.1904 41.4928 37.0879 41.2012C36.9876 40.9072 36.9375 40.5745 36.9375 40.2031V39.8169C36.9375 39.4455 36.9808 39.1139 37.0674 38.8223C37.1562 38.5306 37.2861 38.2834 37.457 38.0806C37.6279 37.8755 37.8376 37.7205 38.0859 37.6157C38.3343 37.5086 38.6191 37.4551 38.9404 37.4551C39.321 37.4551 39.6388 37.5212 39.894 37.6533C40.1515 37.7832 40.3521 37.9632 40.4956 38.1934C40.6414 38.4235 40.7349 38.6855 40.7759 38.9795H40.1162C40.0866 38.7995 40.0273 38.6354 39.9385 38.4873C39.8519 38.3392 39.7277 38.2207 39.5659 38.1318C39.4041 38.0407 39.1956 37.9951 38.9404 37.9951C38.7103 37.9951 38.5109 38.0373 38.3423 38.1216C38.1737 38.2059 38.0347 38.3267 37.9253 38.4839C37.8159 38.6411 37.7339 38.8314 37.6792 39.0547C37.6268 39.278 37.6006 39.5298 37.6006 39.8101V40.2031C37.6006 40.4902 37.6336 40.7466 37.6997 40.9722C37.7681 41.1978 37.8649 41.3903 37.9902 41.5498C38.1156 41.707 38.2648 41.8267 38.438 41.9087C38.6134 41.9907 38.8071 42.0317 39.019 42.0317C39.2537 42.0317 39.444 42.0124 39.5898 41.9736C39.7357 41.9326 39.8496 41.8848 39.9316 41.8301C40.0137 41.7731 40.0763 41.7196 40.1196 41.6694V40.5552H38.9678V40.022H40.7759ZM45.1562 41.9634V42.5H42.521V41.9634H45.1562ZM42.6543 37.5234V42.5H41.9946V37.5234H42.6543ZM44.8076 39.6631V40.1997H42.521V39.6631H44.8076ZM45.1221 37.5234V38.0635H42.521V37.5234H45.1221Z" fill="black" fill-opacity="0.76"/>
<path d="M177.705 38.7949L180 41.0849L182.295 38.7949L183 39.4999L180 42.4999L177 39.4999L177.705 38.7949Z" fill="black" fill-opacity="0.54"/>
</g>
</g>
<rect x="163" y="57" width="32" height="18" rx="2" fill="#305680"/>
<path d="M174.182 66.7183C174.182 66.6157 174.166 66.5246 174.134 66.4448C174.104 66.3651 174.051 66.2922 173.973 66.2261C173.896 66.16 173.786 66.0962 173.645 66.0347C173.506 65.9709 173.328 65.9059 173.112 65.8398C172.875 65.7669 172.656 65.686 172.456 65.5972C172.257 65.506 172.084 65.4012 171.936 65.2827C171.788 65.1619 171.673 65.0241 171.591 64.8691C171.509 64.7119 171.468 64.5308 171.468 64.3257C171.468 64.1229 171.51 63.9383 171.594 63.772C171.681 63.6056 171.803 63.4621 171.96 63.3413C172.119 63.2183 172.307 63.1237 172.524 63.0576C172.74 62.9893 172.98 62.9551 173.242 62.9551C173.611 62.9551 173.929 63.0234 174.195 63.1602C174.464 63.2969 174.67 63.4803 174.814 63.7104C174.96 63.9406 175.033 64.1947 175.033 64.4727H174.182C174.182 64.3086 174.146 64.1639 174.076 64.0386C174.007 63.911 173.903 63.8107 173.761 63.7378C173.622 63.6649 173.446 63.6284 173.231 63.6284C173.029 63.6284 172.86 63.6592 172.726 63.7207C172.591 63.7822 172.491 63.8654 172.425 63.9702C172.359 64.075 172.326 64.1935 172.326 64.3257C172.326 64.4191 172.347 64.5046 172.391 64.582C172.434 64.6572 172.5 64.7279 172.589 64.7939C172.678 64.8577 172.789 64.9181 172.924 64.9751C173.058 65.0321 173.217 65.0868 173.399 65.1392C173.675 65.2212 173.915 65.3123 174.12 65.4126C174.325 65.5106 174.496 65.6222 174.633 65.7476C174.77 65.8729 174.872 66.0153 174.94 66.1748C175.009 66.332 175.043 66.5109 175.043 66.7114C175.043 66.9211 175.001 67.1102 174.917 67.2788C174.832 67.4451 174.711 67.5876 174.554 67.7061C174.399 67.8223 174.212 67.9123 173.994 67.9761C173.777 68.0376 173.536 68.0684 173.269 68.0684C173.03 68.0684 172.794 68.0365 172.562 67.9727C172.331 67.9089 172.122 67.812 171.933 67.6821C171.743 67.55 171.593 67.3859 171.481 67.1899C171.37 66.9917 171.314 66.7604 171.314 66.4961H172.172C172.172 66.6579 172.199 66.7957 172.254 66.9097C172.311 67.0236 172.389 67.117 172.49 67.1899C172.59 67.2606 172.706 67.313 172.838 67.3472C172.973 67.3813 173.116 67.3984 173.269 67.3984C173.47 67.3984 173.637 67.37 173.771 67.313C173.908 67.256 174.011 67.1763 174.079 67.0737C174.147 66.9712 174.182 66.8527 174.182 66.7183ZM178.055 67.2583V65.4946C178.055 65.3625 178.031 65.2485 177.983 65.1528C177.935 65.0571 177.862 64.9831 177.764 64.9307C177.668 64.8783 177.548 64.8521 177.402 64.8521C177.267 64.8521 177.151 64.8748 177.053 64.9204C176.955 64.966 176.879 65.0275 176.824 65.105C176.77 65.1825 176.742 65.2702 176.742 65.3682H175.922C175.922 65.2223 175.957 65.0811 176.028 64.9443C176.098 64.8076 176.201 64.6857 176.335 64.5786C176.47 64.4715 176.631 64.3872 176.817 64.3257C177.004 64.2642 177.214 64.2334 177.446 64.2334C177.724 64.2334 177.97 64.2801 178.185 64.3735C178.401 64.467 178.571 64.6082 178.694 64.7974C178.819 64.9842 178.882 65.2189 178.882 65.5015V67.1455C178.882 67.3141 178.893 67.4657 178.916 67.6001C178.941 67.7323 178.976 67.8473 179.022 67.9453V68H178.178C178.139 67.9111 178.108 67.7983 178.085 67.6616C178.065 67.5226 178.055 67.3882 178.055 67.2583ZM178.174 65.751L178.181 66.2603H177.59C177.437 66.2603 177.303 66.2751 177.187 66.3047C177.07 66.332 176.973 66.373 176.896 66.4277C176.819 66.4824 176.76 66.5485 176.722 66.626C176.683 66.7035 176.664 66.7912 176.664 66.8892C176.664 66.9871 176.686 67.0771 176.732 67.1592C176.778 67.2389 176.844 67.3016 176.93 67.3472C177.019 67.3927 177.126 67.4155 177.251 67.4155C177.42 67.4155 177.567 67.3813 177.692 67.313C177.82 67.2424 177.92 67.1569 177.993 67.0566C178.066 66.9541 178.105 66.8573 178.109 66.7661L178.376 67.1318C178.349 67.2253 178.302 67.3255 178.236 67.4326C178.17 67.5397 178.083 67.6423 177.976 67.7402C177.871 67.8359 177.745 67.9146 177.597 67.9761C177.451 68.0376 177.282 68.0684 177.091 68.0684C176.849 68.0684 176.634 68.0205 176.445 67.9248C176.256 67.8268 176.108 67.6958 176 67.5317C175.893 67.3654 175.84 67.1774 175.84 66.9678C175.84 66.7718 175.876 66.5986 175.949 66.4482C176.024 66.2956 176.134 66.168 176.277 66.0654C176.423 65.9629 176.601 65.8854 176.811 65.833C177.02 65.7783 177.259 65.751 177.528 65.751H178.174ZM181.142 67.3472L182.047 64.3018H182.902L181.617 68H181.083L181.142 67.3472ZM180.448 64.3018L181.371 67.3608L181.415 68H180.882L179.59 64.3018H180.448ZM185.244 68.0684C184.97 68.0684 184.723 68.0239 184.502 67.9351C184.283 67.8439 184.096 67.7174 183.941 67.5557C183.789 67.3939 183.671 67.2036 183.589 66.9849C183.507 66.7661 183.466 66.5303 183.466 66.2773V66.1406C183.466 65.8512 183.508 65.5892 183.593 65.3545C183.677 65.1198 183.794 64.9193 183.945 64.7529C184.095 64.5843 184.273 64.4556 184.478 64.3667C184.683 64.2778 184.905 64.2334 185.145 64.2334C185.409 64.2334 185.64 64.2778 185.838 64.3667C186.037 64.4556 186.201 64.5809 186.331 64.7427C186.463 64.9022 186.561 65.0924 186.625 65.3135C186.691 65.5345 186.724 65.7783 186.724 66.0449V66.397H183.866V65.8057H185.91V65.7407C185.906 65.5926 185.876 65.4536 185.821 65.3237C185.769 65.1938 185.688 65.089 185.579 65.0093C185.469 64.9295 185.323 64.8896 185.141 64.8896C185.004 64.8896 184.882 64.9193 184.775 64.9785C184.671 65.0355 184.583 65.1187 184.512 65.228C184.442 65.3374 184.387 65.4696 184.348 65.6245C184.312 65.7772 184.293 65.9492 184.293 66.1406V66.2773C184.293 66.4391 184.315 66.5895 184.358 66.7285C184.404 66.8652 184.47 66.9849 184.557 67.0874C184.643 67.1899 184.748 67.2708 184.871 67.3301C184.994 67.387 185.134 67.4155 185.292 67.4155C185.49 67.4155 185.666 67.3757 185.821 67.2959C185.976 67.2161 186.111 67.1034 186.225 66.9575L186.659 67.3779C186.579 67.4941 186.475 67.6058 186.348 67.7129C186.22 67.8177 186.064 67.9032 185.879 67.9692C185.697 68.0353 185.485 68.0684 185.244 68.0684Z" fill="white"/>
</g>
<rect x="0.5" y="0.5" width="199" height="78" rx="3.5" stroke="black" stroke-opacity="0.12"/>
<g clip-path="url(#clip3_18289_14134)">
<rect y="81" width="200" height="79" rx="4" fill="white"/>
<g filter="url(#filter1_dd_18289_14134)">
<rect width="188" height="22" transform="translate(6 86)" fill="white"/>
<path d="M15.2852 94.0234V99H14.6255V94.0234H15.2852ZM20.438 94.0234V99H19.7749L17.2695 95.1616V99H16.6099V94.0234H17.2695L19.7852 97.8721V94.0234H20.438ZM22.3916 94.0234V99H21.7319V94.0234H22.3916ZM24.4766 96.2622V96.8022H22.248V96.2622H24.4766ZM24.8149 94.0234V94.5635H22.248V94.0234H24.8149ZM29.5576 96.3545V96.6689C29.5576 97.0426 29.5109 97.3776 29.4175 97.6738C29.3241 97.9701 29.1896 98.2218 29.0142 98.4292C28.8387 98.6366 28.6279 98.7949 28.3818 98.9043C28.138 99.0137 27.8646 99.0684 27.5615 99.0684C27.2676 99.0684 26.9976 99.0137 26.7515 98.9043C26.5076 98.7949 26.2957 98.6366 26.1157 98.4292C25.938 98.2218 25.8001 97.9701 25.7021 97.6738C25.6042 97.3776 25.5552 97.0426 25.5552 96.6689V96.3545C25.5552 95.9808 25.603 95.647 25.6987 95.353C25.7967 95.0568 25.9346 94.805 26.1123 94.5977C26.29 94.388 26.5008 94.2285 26.7446 94.1191C26.9907 94.0098 27.2607 93.9551 27.5547 93.9551C27.8577 93.9551 28.1312 94.0098 28.375 94.1191C28.6211 94.2285 28.8319 94.388 29.0073 94.5977C29.1851 94.805 29.3206 95.0568 29.4141 95.353C29.5098 95.647 29.5576 95.9808 29.5576 96.3545ZM28.9048 96.6689V96.3477C28.9048 96.0514 28.874 95.7894 28.8125 95.5615C28.7533 95.3337 28.6655 95.1423 28.5493 94.9873C28.4331 94.8324 28.2907 94.715 28.1221 94.6353C27.9557 94.5555 27.7666 94.5156 27.5547 94.5156C27.3496 94.5156 27.1639 94.5555 26.9976 94.6353C26.8335 94.715 26.6922 94.8324 26.5737 94.9873C26.4575 95.1423 26.3675 95.3337 26.3037 95.5615C26.2399 95.7894 26.208 96.0514 26.208 96.3477V96.6689C26.208 96.9674 26.2399 97.2318 26.3037 97.4619C26.3675 97.6898 26.4587 97.8823 26.5771 98.0396C26.6979 98.1945 26.8403 98.3118 27.0044 98.3916C27.1707 98.4714 27.3564 98.5112 27.5615 98.5112C27.7757 98.5112 27.966 98.4714 28.1323 98.3916C28.2987 98.3118 28.4388 98.1945 28.5527 98.0396C28.6689 97.8823 28.7567 97.6898 28.8159 97.4619C28.8752 97.2318 28.9048 96.9674 28.9048 96.6689Z" fill="black" fill-opacity="0.76"/>
<path d="M79.9619 98.5488C80.1123 98.5488 80.2513 98.5181 80.3789 98.4565C80.5065 98.395 80.6113 98.3107 80.6934 98.2036C80.7754 98.0942 80.8221 97.9701 80.8335 97.8311H81.4351C81.4237 98.0498 81.3496 98.2537 81.2129 98.4429C81.0785 98.6297 80.9019 98.7812 80.6831 98.8975C80.4644 99.0114 80.224 99.0684 79.9619 99.0684C79.6839 99.0684 79.4412 99.0194 79.2339 98.9214C79.0288 98.8234 78.8579 98.689 78.7212 98.5181C78.5868 98.3472 78.4854 98.1512 78.417 97.9302C78.3509 97.7069 78.3179 97.471 78.3179 97.2227V97.0791C78.3179 96.8307 78.3509 96.596 78.417 96.375C78.4854 96.1517 78.5868 95.9546 78.7212 95.7837C78.8579 95.6128 79.0288 95.4784 79.2339 95.3804C79.4412 95.2824 79.6839 95.2334 79.9619 95.2334C80.2513 95.2334 80.5042 95.2926 80.7207 95.4111C80.9372 95.5273 81.1069 95.6868 81.23 95.8896C81.3553 96.0902 81.4237 96.318 81.4351 96.5732H80.8335C80.8221 96.4206 80.7788 96.2827 80.7036 96.1597C80.6307 96.0366 80.5304 95.9386 80.4028 95.8657C80.2775 95.7905 80.1305 95.7529 79.9619 95.7529C79.7682 95.7529 79.6053 95.7917 79.4731 95.8691C79.3433 95.9443 79.2396 96.0469 79.1621 96.1768C79.0869 96.3044 79.0322 96.4468 78.998 96.604C78.9661 96.759 78.9502 96.9173 78.9502 97.0791V97.2227C78.9502 97.3844 78.9661 97.5439 78.998 97.7012C79.0299 97.8584 79.0835 98.0008 79.1587 98.1284C79.2362 98.256 79.3398 98.3586 79.4697 98.436C79.6019 98.5112 79.766 98.5488 79.9619 98.5488ZM82.1035 97.1919V97.1133C82.1035 96.8467 82.1423 96.5994 82.2197 96.3716C82.2972 96.1414 82.4089 95.9421 82.5547 95.7734C82.7005 95.6025 82.8771 95.4704 83.0845 95.377C83.2918 95.2812 83.5243 95.2334 83.7817 95.2334C84.0415 95.2334 84.2751 95.2812 84.4824 95.377C84.6921 95.4704 84.8698 95.6025 85.0156 95.7734C85.1637 95.9421 85.2765 96.1414 85.354 96.3716C85.4315 96.5994 85.4702 96.8467 85.4702 97.1133V97.1919C85.4702 97.4585 85.4315 97.7057 85.354 97.9336C85.2765 98.1615 85.1637 98.3608 85.0156 98.5317C84.8698 98.7004 84.6932 98.8325 84.4858 98.9282C84.2808 99.0216 84.0483 99.0684 83.7886 99.0684C83.5288 99.0684 83.2952 99.0216 83.0879 98.9282C82.8805 98.8325 82.7028 98.7004 82.5547 98.5317C82.4089 98.3608 82.2972 98.1615 82.2197 97.9336C82.1423 97.7057 82.1035 97.4585 82.1035 97.1919ZM82.7358 97.1133V97.1919C82.7358 97.3765 82.7575 97.5508 82.8008 97.7148C82.8441 97.8766 82.909 98.0202 82.9956 98.1455C83.0845 98.2708 83.195 98.37 83.3271 98.4429C83.4593 98.5135 83.6131 98.5488 83.7886 98.5488C83.9618 98.5488 84.1133 98.5135 84.2432 98.4429C84.3753 98.37 84.4847 98.2708 84.5713 98.1455C84.6579 98.0202 84.7228 97.8766 84.7661 97.7148C84.8117 97.5508 84.8345 97.3765 84.8345 97.1919V97.1133C84.8345 96.931 84.8117 96.759 84.7661 96.5972C84.7228 96.4331 84.6567 96.2884 84.5679 96.1631C84.4813 96.0355 84.3719 95.9352 84.2397 95.8623C84.1099 95.7894 83.9572 95.7529 83.7817 95.7529C83.6086 95.7529 83.4559 95.7894 83.3237 95.8623C83.1938 95.9352 83.0845 96.0355 82.9956 96.1631C82.909 96.2884 82.8441 96.4331 82.8008 96.5972C82.7575 96.759 82.7358 96.931 82.7358 97.1133ZM87.0205 96.0913V99H86.3882V95.3018H86.9863L87.0205 96.0913ZM86.8701 97.0107L86.6069 97.0005C86.6092 96.7476 86.6468 96.514 86.7197 96.2998C86.7926 96.0833 86.8952 95.8953 87.0273 95.7358C87.1595 95.5763 87.3167 95.4533 87.499 95.3667C87.6836 95.2778 87.8875 95.2334 88.1108 95.2334C88.2931 95.2334 88.4572 95.2585 88.603 95.3086C88.7489 95.3564 88.873 95.4339 88.9756 95.541C89.0804 95.6481 89.1602 95.7871 89.2148 95.958C89.2695 96.1266 89.2969 96.3328 89.2969 96.5767V99H88.6611V96.5698C88.6611 96.3761 88.6326 96.2212 88.5757 96.105C88.5187 95.9865 88.4355 95.901 88.3262 95.8486C88.2168 95.7939 88.0824 95.7666 87.9229 95.7666C87.7656 95.7666 87.6221 95.7996 87.4922 95.8657C87.3646 95.9318 87.2541 96.0229 87.1606 96.1392C87.0695 96.2554 86.9977 96.3887 86.9453 96.5391C86.8952 96.6872 86.8701 96.8444 86.8701 97.0107ZM91.0146 96.0913V99H90.3823V95.3018H90.9805L91.0146 96.0913ZM90.8643 97.0107L90.6011 97.0005C90.6034 96.7476 90.641 96.514 90.7139 96.2998C90.7868 96.0833 90.8893 95.8953 91.0215 95.7358C91.1536 95.5763 91.3109 95.4533 91.4932 95.3667C91.6777 95.2778 91.8817 95.2334 92.105 95.2334C92.2873 95.2334 92.4513 95.2585 92.5972 95.3086C92.743 95.3564 92.8672 95.4339 92.9697 95.541C93.0745 95.6481 93.1543 95.7871 93.209 95.958C93.2637 96.1266 93.291 96.3328 93.291 96.5767V99H92.6553V96.5698C92.6553 96.3761 92.6268 96.2212 92.5698 96.105C92.5129 95.9865 92.4297 95.901 92.3203 95.8486C92.2109 95.7939 92.0765 95.7666 91.917 95.7666C91.7598 95.7666 91.6162 95.7996 91.4863 95.8657C91.3587 95.9318 91.2482 96.0229 91.1548 96.1392C91.0636 96.2554 90.9919 96.3887 90.9395 96.5391C90.8893 96.6872 90.8643 96.8444 90.8643 97.0107ZM95.9111 99.0684C95.6536 99.0684 95.4201 99.0251 95.2104 98.9385C95.0031 98.8496 94.8242 98.7254 94.6738 98.5659C94.5257 98.4064 94.4118 98.2173 94.332 97.9985C94.2523 97.7798 94.2124 97.5405 94.2124 97.2808V97.1372C94.2124 96.8364 94.2568 96.5687 94.3457 96.334C94.4346 96.097 94.5553 95.8965 94.708 95.7324C94.8607 95.5684 95.0339 95.4442 95.2275 95.3599C95.4212 95.2756 95.6217 95.2334 95.8291 95.2334C96.0934 95.2334 96.3213 95.279 96.5127 95.3701C96.7064 95.4613 96.8647 95.5889 96.9878 95.7529C97.1108 95.9147 97.202 96.1061 97.2612 96.3271C97.3205 96.5459 97.3501 96.7852 97.3501 97.0449V97.3286H94.5884V96.8125H96.7178V96.7646C96.7087 96.6006 96.6745 96.4411 96.6152 96.2861C96.5583 96.1312 96.4671 96.0036 96.3418 95.9033C96.2165 95.8031 96.0456 95.7529 95.8291 95.7529C95.6855 95.7529 95.5534 95.7837 95.4326 95.8452C95.3118 95.9045 95.2082 95.9933 95.1216 96.1118C95.035 96.2303 94.9678 96.375 94.9199 96.5459C94.8721 96.7168 94.8481 96.9139 94.8481 97.1372V97.2808C94.8481 97.4562 94.8721 97.6214 94.9199 97.7764C94.9701 97.929 95.0418 98.0635 95.1353 98.1797C95.231 98.2959 95.346 98.387 95.4805 98.4531C95.6172 98.5192 95.7721 98.5522 95.9453 98.5522C96.1686 98.5522 96.3577 98.5067 96.5127 98.4155C96.6676 98.3244 96.8032 98.2025 96.9194 98.0498L97.3022 98.354C97.2225 98.4748 97.1211 98.5898 96.998 98.6992C96.875 98.8086 96.7235 98.8975 96.5435 98.9658C96.3657 99.0342 96.1549 99.0684 95.9111 99.0684ZM99.6934 98.5488C99.8438 98.5488 99.9827 98.5181 100.11 98.4565C100.238 98.395 100.343 98.3107 100.425 98.2036C100.507 98.0942 100.554 97.9701 100.565 97.8311H101.167C101.155 98.0498 101.081 98.2537 100.944 98.4429C100.81 98.6297 100.633 98.7812 100.415 98.8975C100.196 99.0114 99.9554 99.0684 99.6934 99.0684C99.4154 99.0684 99.1727 99.0194 98.9653 98.9214C98.7603 98.8234 98.5894 98.689 98.4526 98.5181C98.3182 98.3472 98.2168 98.1512 98.1484 97.9302C98.0824 97.7069 98.0493 97.471 98.0493 97.2227V97.0791C98.0493 96.8307 98.0824 96.596 98.1484 96.375C98.2168 96.1517 98.3182 95.9546 98.4526 95.7837C98.5894 95.6128 98.7603 95.4784 98.9653 95.3804C99.1727 95.2824 99.4154 95.2334 99.6934 95.2334C99.9827 95.2334 100.236 95.2926 100.452 95.4111C100.669 95.5273 100.838 95.6868 100.961 95.8896C101.087 96.0902 101.155 96.318 101.167 96.5732H100.565C100.554 96.4206 100.51 96.2827 100.435 96.1597C100.362 96.0366 100.262 95.9386 100.134 95.8657C100.009 95.7905 99.862 95.7529 99.6934 95.7529C99.4997 95.7529 99.3368 95.7917 99.2046 95.8691C99.0747 95.9443 98.971 96.0469 98.8936 96.1768C98.8184 96.3044 98.7637 96.4468 98.7295 96.604C98.6976 96.759 98.6816 96.9173 98.6816 97.0791V97.2227C98.6816 97.3844 98.6976 97.5439 98.7295 97.7012C98.7614 97.8584 98.8149 98.0008 98.8901 98.1284C98.9676 98.256 99.0713 98.3586 99.2012 98.436C99.3333 98.5112 99.4974 98.5488 99.6934 98.5488ZM103.551 95.3018V95.7871H101.551V95.3018H103.551ZM102.228 94.4028H102.86V98.084C102.86 98.2093 102.88 98.3039 102.918 98.3677C102.957 98.4315 103.007 98.4736 103.069 98.4941C103.13 98.5146 103.196 98.5249 103.267 98.5249C103.319 98.5249 103.374 98.5203 103.431 98.5112C103.49 98.4998 103.535 98.4907 103.564 98.4839L103.568 99C103.518 99.016 103.452 99.0308 103.37 99.0444C103.29 99.0604 103.193 99.0684 103.079 99.0684C102.924 99.0684 102.782 99.0376 102.652 98.9761C102.522 98.9146 102.418 98.812 102.341 98.6685C102.266 98.5226 102.228 98.3267 102.228 98.0806V94.4028ZM105.104 95.3018V99H104.469V95.3018H105.104ZM104.421 94.3208C104.421 94.2183 104.452 94.1317 104.513 94.061C104.577 93.9904 104.67 93.9551 104.793 93.9551C104.914 93.9551 105.007 93.9904 105.07 94.061C105.136 94.1317 105.169 94.2183 105.169 94.3208C105.169 94.4188 105.136 94.5031 105.07 94.5737C105.007 94.6421 104.914 94.6763 104.793 94.6763C104.67 94.6763 104.577 94.6421 104.513 94.5737C104.452 94.5031 104.421 94.4188 104.421 94.3208ZM106.077 97.1919V97.1133C106.077 96.8467 106.116 96.5994 106.193 96.3716C106.271 96.1414 106.382 95.9421 106.528 95.7734C106.674 95.6025 106.851 95.4704 107.058 95.377C107.265 95.2812 107.498 95.2334 107.755 95.2334C108.015 95.2334 108.249 95.2812 108.456 95.377C108.666 95.4704 108.843 95.6025 108.989 95.7734C109.137 95.9421 109.25 96.1414 109.328 96.3716C109.405 96.5994 109.444 96.8467 109.444 97.1133V97.1919C109.444 97.4585 109.405 97.7057 109.328 97.9336C109.25 98.1615 109.137 98.3608 108.989 98.5317C108.843 98.7004 108.667 98.8325 108.459 98.9282C108.254 99.0216 108.022 99.0684 107.762 99.0684C107.502 99.0684 107.269 99.0216 107.062 98.9282C106.854 98.8325 106.676 98.7004 106.528 98.5317C106.382 98.3608 106.271 98.1615 106.193 97.9336C106.116 97.7057 106.077 97.4585 106.077 97.1919ZM106.709 97.1133V97.1919C106.709 97.3765 106.731 97.5508 106.774 97.7148C106.818 97.8766 106.883 98.0202 106.969 98.1455C107.058 98.2708 107.169 98.37 107.301 98.4429C107.433 98.5135 107.587 98.5488 107.762 98.5488C107.935 98.5488 108.087 98.5135 108.217 98.4429C108.349 98.37 108.458 98.2708 108.545 98.1455C108.632 98.0202 108.696 97.8766 108.74 97.7148C108.785 97.5508 108.808 97.3765 108.808 97.1919V97.1133C108.808 96.931 108.785 96.759 108.74 96.5972C108.696 96.4331 108.63 96.2884 108.542 96.1631C108.455 96.0355 108.346 95.9352 108.213 95.8623C108.083 95.7894 107.931 95.7529 107.755 95.7529C107.582 95.7529 107.43 95.7894 107.297 95.8623C107.167 95.9352 107.058 96.0355 106.969 96.1631C106.883 96.2884 106.818 96.4331 106.774 96.5972C106.731 96.759 106.709 96.931 106.709 97.1133ZM110.994 96.0913V99H110.362V95.3018H110.96L110.994 96.0913ZM110.844 97.0107L110.581 97.0005C110.583 96.7476 110.62 96.514 110.693 96.2998C110.766 96.0833 110.869 95.8953 111.001 95.7358C111.133 95.5763 111.29 95.4533 111.473 95.3667C111.657 95.2778 111.861 95.2334 112.084 95.2334C112.267 95.2334 112.431 95.2585 112.577 95.3086C112.722 95.3564 112.847 95.4339 112.949 95.541C113.054 95.6481 113.134 95.7871 113.188 95.958C113.243 96.1266 113.271 96.3328 113.271 96.5767V99H112.635V96.5698C112.635 96.3761 112.606 96.2212 112.549 96.105C112.492 95.9865 112.409 95.901 112.3 95.8486C112.19 95.7939 112.056 95.7666 111.896 95.7666C111.739 95.7666 111.596 95.7996 111.466 95.8657C111.338 95.9318 111.228 96.0229 111.134 96.1392C111.043 96.2554 110.971 96.3887 110.919 96.5391C110.869 96.6872 110.844 96.8444 110.844 97.0107ZM118.965 97.7422C118.965 97.626 118.947 97.5234 118.911 97.4346C118.876 97.3434 118.815 97.2614 118.726 97.1885C118.639 97.1156 118.519 97.0461 118.364 96.98C118.211 96.9139 118.017 96.8467 117.783 96.7783C117.537 96.7054 117.314 96.6245 117.116 96.5356C116.918 96.4445 116.748 96.3408 116.607 96.2246C116.466 96.1084 116.357 95.9751 116.282 95.8247C116.207 95.6743 116.169 95.5023 116.169 95.3086C116.169 95.1149 116.209 94.936 116.289 94.772C116.369 94.6079 116.483 94.4655 116.631 94.3447C116.781 94.2217 116.96 94.126 117.167 94.0576C117.375 93.9893 117.606 93.9551 117.861 93.9551C118.235 93.9551 118.552 94.0269 118.812 94.1704C119.074 94.3117 119.273 94.4974 119.41 94.7275C119.546 94.9554 119.615 95.1992 119.615 95.459H118.958C118.958 95.2721 118.919 95.1069 118.839 94.9634C118.759 94.8175 118.638 94.7036 118.477 94.6216C118.315 94.5373 118.11 94.4951 117.861 94.4951C117.627 94.4951 117.433 94.5304 117.28 94.6011C117.128 94.6717 117.014 94.7674 116.938 94.8882C116.866 95.009 116.829 95.1468 116.829 95.3018C116.829 95.4066 116.851 95.5023 116.894 95.5889C116.94 95.6732 117.009 95.7518 117.103 95.8247C117.198 95.8976 117.319 95.9648 117.465 96.0264C117.613 96.0879 117.79 96.1471 117.995 96.2041C118.277 96.2839 118.521 96.3727 118.726 96.4707C118.931 96.5687 119.1 96.6792 119.232 96.8022C119.366 96.923 119.465 97.0609 119.529 97.2158C119.595 97.3685 119.628 97.5417 119.628 97.7354C119.628 97.9382 119.587 98.1216 119.505 98.2856C119.423 98.4497 119.306 98.5898 119.153 98.7061C119.001 98.8223 118.817 98.9123 118.603 98.9761C118.391 99.0376 118.154 99.0684 117.892 99.0684C117.662 99.0684 117.435 99.0365 117.212 98.9727C116.991 98.9089 116.789 98.8132 116.607 98.6855C116.427 98.5579 116.282 98.4007 116.173 98.2139C116.066 98.0247 116.012 97.806 116.012 97.5576H116.668C116.668 97.7285 116.701 97.8755 116.768 97.9985C116.834 98.1193 116.924 98.2196 117.038 98.2993C117.154 98.3791 117.285 98.4383 117.431 98.4771C117.579 98.5135 117.733 98.5317 117.892 98.5317C118.122 98.5317 118.317 98.4998 118.477 98.436C118.636 98.3722 118.757 98.2811 118.839 98.1626C118.923 98.0441 118.965 97.904 118.965 97.7422ZM123.441 94.0234H124.098V97.3901C124.098 97.7638 124.014 98.0749 123.848 98.3232C123.682 98.5716 123.461 98.7585 123.185 98.8838C122.912 99.0068 122.614 99.0684 122.293 99.0684C121.956 99.0684 121.65 99.0068 121.377 98.8838C121.106 98.7585 120.89 98.5716 120.731 98.3232C120.574 98.0749 120.495 97.7638 120.495 97.3901V94.0234H121.148V97.3901C121.148 97.6499 121.196 97.8641 121.292 98.0327C121.387 98.2013 121.521 98.3267 121.691 98.4087C121.865 98.4907 122.065 98.5317 122.293 98.5317C122.523 98.5317 122.724 98.4907 122.895 98.4087C123.068 98.3267 123.202 98.2013 123.298 98.0327C123.394 97.8641 123.441 97.6499 123.441 97.3901V94.0234ZM128.263 97.4175H128.919C128.885 97.7319 128.795 98.0133 128.649 98.2617C128.503 98.5101 128.297 98.7072 128.03 98.853C127.764 98.9966 127.431 99.0684 127.032 99.0684C126.741 99.0684 126.475 99.0137 126.236 98.9043C125.999 98.7949 125.795 98.64 125.624 98.4395C125.453 98.2367 125.321 97.994 125.228 97.7114C125.136 97.4266 125.091 97.1099 125.091 96.7612V96.2656C125.091 95.917 125.136 95.6014 125.228 95.3188C125.321 95.034 125.454 94.7902 125.627 94.5874C125.803 94.3846 126.014 94.2285 126.26 94.1191C126.506 94.0098 126.783 93.9551 127.09 93.9551C127.466 93.9551 127.784 94.0257 128.044 94.167C128.304 94.3083 128.505 94.5042 128.649 94.7549C128.795 95.0033 128.885 95.2915 128.919 95.6196H128.263C128.231 95.3872 128.172 95.1878 128.085 95.0215C127.998 94.8529 127.875 94.723 127.716 94.6318C127.556 94.5407 127.348 94.4951 127.09 94.4951C126.869 94.4951 126.674 94.5373 126.506 94.6216C126.34 94.7059 126.199 94.8255 126.085 94.9805C125.974 95.1354 125.889 95.3211 125.833 95.5376C125.776 95.7541 125.747 95.9945 125.747 96.2588V96.7612C125.747 97.005 125.772 97.234 125.822 97.4482C125.875 97.6624 125.953 97.8504 126.058 98.0122C126.163 98.174 126.296 98.3016 126.458 98.395C126.62 98.4862 126.811 98.5317 127.032 98.5317C127.312 98.5317 127.536 98.4873 127.702 98.3984C127.868 98.3096 127.994 98.182 128.078 98.0156C128.165 97.8493 128.226 97.6499 128.263 97.4175ZM132.947 97.4175H133.604C133.569 97.7319 133.479 98.0133 133.333 98.2617C133.188 98.5101 132.981 98.7072 132.715 98.853C132.448 98.9966 132.116 99.0684 131.717 99.0684C131.425 99.0684 131.16 99.0137 130.92 98.9043C130.683 98.7949 130.479 98.64 130.309 98.4395C130.138 98.2367 130.006 97.994 129.912 97.7114C129.821 97.4266 129.775 97.1099 129.775 96.7612V96.2656C129.775 95.917 129.821 95.6014 129.912 95.3188C130.006 95.034 130.139 94.7902 130.312 94.5874C130.487 94.3846 130.698 94.2285 130.944 94.1191C131.19 94.0098 131.467 93.9551 131.775 93.9551C132.151 93.9551 132.469 94.0257 132.729 94.167C132.988 94.3083 133.19 94.5042 133.333 94.7549C133.479 95.0033 133.569 95.2915 133.604 95.6196H132.947C132.915 95.3872 132.856 95.1878 132.77 95.0215C132.683 94.8529 132.56 94.723 132.4 94.6318C132.241 94.5407 132.032 94.4951 131.775 94.4951C131.554 94.4951 131.359 94.5373 131.19 94.6216C131.024 94.7059 130.884 94.8255 130.77 94.9805C130.658 95.1354 130.574 95.3211 130.517 95.5376C130.46 95.7541 130.432 95.9945 130.432 96.2588V96.7612C130.432 97.005 130.457 97.234 130.507 97.4482C130.559 97.6624 130.638 97.8504 130.743 98.0122C130.847 98.174 130.981 98.3016 131.143 98.395C131.304 98.4862 131.496 98.5317 131.717 98.5317C131.997 98.5317 132.22 98.4873 132.387 98.3984C132.553 98.3096 132.678 98.182 132.763 98.0156C132.849 97.8493 132.911 97.6499 132.947 97.4175ZM137.789 98.4634V99H135.154V98.4634H137.789ZM135.287 94.0234V99H134.627V94.0234H135.287ZM137.44 96.1631V96.6997H135.154V96.1631H137.44ZM137.755 94.0234V94.5635H135.154V94.0234H137.755ZM141.383 97.7422C141.383 97.626 141.365 97.5234 141.329 97.4346C141.294 97.3434 141.233 97.2614 141.144 97.1885C141.057 97.1156 140.937 97.0461 140.782 96.98C140.629 96.9139 140.435 96.8467 140.201 96.7783C139.955 96.7054 139.732 96.6245 139.534 96.5356C139.336 96.4445 139.166 96.3408 139.025 96.2246C138.884 96.1084 138.775 95.9751 138.7 95.8247C138.625 95.6743 138.587 95.5023 138.587 95.3086C138.587 95.1149 138.627 94.936 138.707 94.772C138.787 94.6079 138.901 94.4655 139.049 94.3447C139.199 94.2217 139.378 94.126 139.585 94.0576C139.793 93.9893 140.024 93.9551 140.279 93.9551C140.653 93.9551 140.97 94.0269 141.229 94.1704C141.492 94.3117 141.691 94.4974 141.828 94.7275C141.964 94.9554 142.033 95.1992 142.033 95.459H141.376C141.376 95.2721 141.337 95.1069 141.257 94.9634C141.177 94.8175 141.056 94.7036 140.895 94.6216C140.733 94.5373 140.528 94.4951 140.279 94.4951C140.045 94.4951 139.851 94.5304 139.698 94.6011C139.546 94.6717 139.432 94.7674 139.356 94.8882C139.284 95.009 139.247 95.1468 139.247 95.3018C139.247 95.4066 139.269 95.5023 139.312 95.5889C139.358 95.6732 139.427 95.7518 139.521 95.8247C139.616 95.8976 139.737 95.9648 139.883 96.0264C140.031 96.0879 140.208 96.1471 140.413 96.2041C140.695 96.2839 140.939 96.3727 141.144 96.4707C141.349 96.5687 141.518 96.6792 141.65 96.8022C141.784 96.923 141.883 97.0609 141.947 97.2158C142.013 97.3685 142.046 97.5417 142.046 97.7354C142.046 97.9382 142.005 98.1216 141.923 98.2856C141.841 98.4497 141.724 98.5898 141.571 98.7061C141.419 98.8223 141.235 98.9123 141.021 98.9761C140.809 99.0376 140.572 99.0684 140.31 99.0684C140.08 99.0684 139.853 99.0365 139.63 98.9727C139.409 98.9089 139.207 98.8132 139.025 98.6855C138.845 98.5579 138.7 98.4007 138.591 98.2139C138.484 98.0247 138.43 97.806 138.43 97.5576H139.086C139.086 97.7285 139.119 97.8755 139.186 97.9985C139.252 98.1193 139.342 98.2196 139.456 98.2993C139.572 98.3791 139.703 98.4383 139.849 98.4771C139.997 98.5135 140.151 98.5317 140.31 98.5317C140.54 98.5317 140.735 98.4998 140.895 98.436C141.054 98.3722 141.175 98.2811 141.257 98.1626C141.341 98.0441 141.383 97.904 141.383 97.7422ZM145.665 97.7422C145.665 97.626 145.646 97.5234 145.61 97.4346C145.576 97.3434 145.514 97.2614 145.425 97.1885C145.339 97.1156 145.218 97.0461 145.063 96.98C144.91 96.9139 144.717 96.8467 144.482 96.7783C144.236 96.7054 144.014 96.6245 143.815 96.5356C143.617 96.4445 143.447 96.3408 143.306 96.2246C143.165 96.1084 143.057 95.9751 142.981 95.8247C142.906 95.6743 142.869 95.5023 142.869 95.3086C142.869 95.1149 142.909 94.936 142.988 94.772C143.068 94.6079 143.182 94.4655 143.33 94.3447C143.48 94.2217 143.659 94.126 143.867 94.0576C144.074 93.9893 144.305 93.9551 144.561 93.9551C144.934 93.9551 145.251 94.0269 145.511 94.1704C145.773 94.3117 145.972 94.4974 146.109 94.7275C146.246 94.9554 146.314 95.1992 146.314 95.459H145.658C145.658 95.2721 145.618 95.1069 145.538 94.9634C145.458 94.8175 145.338 94.7036 145.176 94.6216C145.014 94.5373 144.809 94.4951 144.561 94.4951C144.326 94.4951 144.132 94.5304 143.979 94.6011C143.827 94.6717 143.713 94.7674 143.638 94.8882C143.565 95.009 143.528 95.1468 143.528 95.3018C143.528 95.4066 143.55 95.5023 143.593 95.5889C143.639 95.6732 143.708 95.7518 143.802 95.8247C143.897 95.8976 144.018 95.9648 144.164 96.0264C144.312 96.0879 144.489 96.1471 144.694 96.2041C144.976 96.2839 145.22 96.3727 145.425 96.4707C145.63 96.5687 145.799 96.6792 145.931 96.8022C146.066 96.923 146.165 97.0609 146.229 97.2158C146.295 97.3685 146.328 97.5417 146.328 97.7354C146.328 97.9382 146.287 98.1216 146.205 98.2856C146.123 98.4497 146.005 98.5898 145.853 98.7061C145.7 98.8223 145.516 98.9123 145.302 98.9761C145.09 99.0376 144.853 99.0684 144.591 99.0684C144.361 99.0684 144.134 99.0365 143.911 98.9727C143.69 98.9089 143.488 98.8132 143.306 98.6855C143.126 98.5579 142.981 98.4007 142.872 98.2139C142.765 98.0247 142.711 97.806 142.711 97.5576H143.368C143.368 97.7285 143.401 97.8755 143.467 97.9985C143.533 98.1193 143.623 98.2196 143.737 98.2993C143.853 98.3791 143.984 98.4383 144.13 98.4771C144.278 98.5135 144.432 98.5317 144.591 98.5317C144.821 98.5317 145.016 98.4998 145.176 98.436C145.335 98.3722 145.456 98.2811 145.538 98.1626C145.622 98.0441 145.665 97.904 145.665 97.7422Z" fill="black" fill-opacity="0.76"/>
</g>
<g filter="url(#filter2_dd_18289_14134)">
<rect width="188" height="22" transform="translate(6 110)" fill="white"/>
<path d="M15.9243 123H14.8853L14.8921 122.463H15.9243C16.2798 122.463 16.576 122.389 16.813 122.241C17.05 122.091 17.2277 121.881 17.3462 121.612C17.467 121.341 17.5273 121.024 17.5273 120.662V120.358C17.5273 120.073 17.4932 119.82 17.4248 119.599C17.3564 119.376 17.2562 119.188 17.124 119.035C16.9919 118.88 16.8301 118.763 16.6387 118.683C16.4495 118.603 16.2319 118.563 15.9858 118.563H14.8647V118.023H15.9858C16.3117 118.023 16.609 118.078 16.8779 118.188C17.1468 118.295 17.3781 118.451 17.5718 118.656C17.7677 118.859 17.9181 119.105 18.0229 119.394C18.1278 119.681 18.1802 120.005 18.1802 120.365V120.662C18.1802 121.022 18.1278 121.347 18.0229 121.636C17.9181 121.923 17.7666 122.168 17.5684 122.371C17.3724 122.574 17.1354 122.73 16.8574 122.839C16.5817 122.946 16.2707 123 15.9243 123ZM15.2373 118.023V123H14.5776V118.023H15.2373ZM22.458 122.463V123H19.8228V122.463H22.458ZM19.9561 118.023V123H19.2964V118.023H19.9561ZM22.1094 120.163V120.7H19.8228V120.163H22.1094ZM22.4238 118.023V118.563H19.8228V118.023H22.4238ZM25.1738 120.672H23.9126L23.9058 120.143H25.0508C25.2399 120.143 25.4051 120.111 25.5464 120.047C25.6877 119.983 25.797 119.892 25.8745 119.773C25.9543 119.653 25.9941 119.509 25.9941 119.343C25.9941 119.16 25.9588 119.012 25.8882 118.898C25.8198 118.782 25.7139 118.698 25.5703 118.646C25.429 118.591 25.249 118.563 25.0303 118.563H24.0596V123H23.3999V118.023H25.0303C25.2855 118.023 25.5133 118.05 25.7139 118.102C25.9144 118.152 26.0841 118.232 26.2231 118.341C26.3644 118.448 26.4715 118.585 26.5444 118.751C26.6174 118.918 26.6538 119.117 26.6538 119.35C26.6538 119.555 26.6014 119.74 26.4966 119.907C26.3918 120.071 26.2459 120.205 26.0591 120.31C25.8745 120.415 25.658 120.482 25.4097 120.512L25.1738 120.672ZM25.1431 123H23.6528L24.0254 122.463H25.1431C25.3527 122.463 25.5304 122.427 25.6763 122.354C25.8244 122.281 25.9372 122.179 26.0146 122.046C26.0921 121.912 26.1309 121.754 26.1309 121.571C26.1309 121.387 26.0978 121.227 26.0317 121.093C25.9657 120.958 25.862 120.855 25.7207 120.782C25.5794 120.709 25.3971 120.672 25.1738 120.672H24.2339L24.2407 120.143H25.5259L25.666 120.334C25.9053 120.354 26.1081 120.423 26.2744 120.539C26.4408 120.653 26.5672 120.799 26.6538 120.977C26.7427 121.154 26.7871 121.35 26.7871 121.564C26.7871 121.874 26.7188 122.136 26.582 122.351C26.4476 122.562 26.2573 122.724 26.0112 122.836C25.7651 122.945 25.4757 123 25.1431 123ZM30.7334 118.023H31.3896V121.39C31.3896 121.764 31.3065 122.075 31.1401 122.323C30.9738 122.572 30.7528 122.758 30.4771 122.884C30.2036 123.007 29.9062 123.068 29.585 123.068C29.2477 123.068 28.9424 123.007 28.6689 122.884C28.3978 122.758 28.1825 122.572 28.0229 122.323C27.8657 122.075 27.7871 121.764 27.7871 121.39V118.023H28.4399V121.39C28.4399 121.65 28.4878 121.864 28.5835 122.033C28.6792 122.201 28.8125 122.327 28.9834 122.409C29.1566 122.491 29.3571 122.532 29.585 122.532C29.8151 122.532 30.0156 122.491 30.1865 122.409C30.3597 122.327 30.4941 122.201 30.5898 122.033C30.6855 121.864 30.7334 121.65 30.7334 121.39V118.023ZM36.228 120.522V122.344C36.1665 122.435 36.0685 122.537 35.9341 122.651C35.7996 122.763 35.6139 122.861 35.377 122.945C35.1423 123.027 34.8392 123.068 34.4678 123.068C34.1647 123.068 33.8856 123.016 33.6304 122.911C33.3774 122.804 33.1576 122.649 32.9707 122.446C32.7861 122.241 32.6426 121.993 32.54 121.701C32.4398 121.407 32.3896 121.075 32.3896 120.703V120.317C32.3896 119.945 32.4329 119.614 32.5195 119.322C32.6084 119.031 32.7383 118.783 32.9092 118.581C33.0801 118.375 33.2897 118.221 33.5381 118.116C33.7865 118.009 34.0713 117.955 34.3926 117.955C34.7731 117.955 35.091 118.021 35.3462 118.153C35.6037 118.283 35.8042 118.463 35.9478 118.693C36.0936 118.924 36.187 119.186 36.228 119.479H35.5684C35.5387 119.299 35.4795 119.135 35.3906 118.987C35.304 118.839 35.1799 118.721 35.0181 118.632C34.8563 118.541 34.6478 118.495 34.3926 118.495C34.1624 118.495 33.9631 118.537 33.7944 118.622C33.6258 118.706 33.4868 118.827 33.3774 118.984C33.2681 119.141 33.186 119.331 33.1313 119.555C33.0789 119.778 33.0527 120.03 33.0527 120.31V120.703C33.0527 120.99 33.0858 121.247 33.1519 121.472C33.2202 121.698 33.3171 121.89 33.4424 122.05C33.5677 122.207 33.717 122.327 33.8901 122.409C34.0656 122.491 34.2593 122.532 34.4712 122.532C34.7059 122.532 34.8962 122.512 35.042 122.474C35.1878 122.433 35.3018 122.385 35.3838 122.33C35.4658 122.273 35.5285 122.22 35.5718 122.169V121.055H34.4199V120.522H36.228Z" fill="black" fill-opacity="0.76"/>
<path d="M78.5776 118.023H80.2251C80.5988 118.023 80.9144 118.08 81.1719 118.194C81.4316 118.308 81.6287 118.477 81.7632 118.7C81.8999 118.921 81.9683 119.194 81.9683 119.517C81.9683 119.745 81.9215 119.953 81.8281 120.143C81.737 120.329 81.6048 120.489 81.4316 120.621C81.2607 120.751 81.0557 120.848 80.8164 120.912L80.6318 120.983H79.0835L79.0767 120.447H80.2456C80.4826 120.447 80.6797 120.406 80.8369 120.324C80.9941 120.239 81.1126 120.127 81.1924 119.985C81.2721 119.844 81.312 119.688 81.312 119.517C81.312 119.326 81.2744 119.158 81.1992 119.015C81.124 118.871 81.0055 118.761 80.8438 118.683C80.6842 118.603 80.478 118.563 80.2251 118.563H79.2373V123H78.5776V118.023ZM81.4863 123L80.2764 120.744L80.9634 120.741L82.1904 122.959V123H81.4863ZM84.4551 123.068C84.1976 123.068 83.964 123.025 83.7544 122.938C83.547 122.85 83.3682 122.725 83.2178 122.566C83.0697 122.406 82.9557 122.217 82.876 121.999C82.7962 121.78 82.7563 121.541 82.7563 121.281V121.137C82.7563 120.836 82.8008 120.569 82.8896 120.334C82.9785 120.097 83.0993 119.896 83.252 119.732C83.4046 119.568 83.5778 119.444 83.7715 119.36C83.9652 119.276 84.1657 119.233 84.373 119.233C84.6374 119.233 84.8652 119.279 85.0566 119.37C85.2503 119.461 85.4087 119.589 85.5317 119.753C85.6548 119.915 85.7459 120.106 85.8052 120.327C85.8644 120.546 85.894 120.785 85.894 121.045V121.329H83.1323V120.812H85.2617V120.765C85.2526 120.601 85.2184 120.441 85.1592 120.286C85.1022 120.131 85.0111 120.004 84.8857 119.903C84.7604 119.803 84.5895 119.753 84.373 119.753C84.2295 119.753 84.0973 119.784 83.9766 119.845C83.8558 119.904 83.7521 119.993 83.6655 120.112C83.5789 120.23 83.5117 120.375 83.4639 120.546C83.416 120.717 83.3921 120.914 83.3921 121.137V121.281C83.3921 121.456 83.416 121.621 83.4639 121.776C83.514 121.929 83.5858 122.063 83.6792 122.18C83.7749 122.296 83.89 122.387 84.0244 122.453C84.1611 122.519 84.3161 122.552 84.4893 122.552C84.7126 122.552 84.9017 122.507 85.0566 122.416C85.2116 122.324 85.3472 122.202 85.4634 122.05L85.8462 122.354C85.7664 122.475 85.665 122.59 85.542 122.699C85.4189 122.809 85.2674 122.897 85.0874 122.966C84.9097 123.034 84.6989 123.068 84.4551 123.068ZM88.2373 122.549C88.3877 122.549 88.5267 122.518 88.6543 122.457C88.7819 122.395 88.8867 122.311 88.9688 122.204C89.0508 122.094 89.0975 121.97 89.1089 121.831H89.7104C89.6991 122.05 89.625 122.254 89.4883 122.443C89.3538 122.63 89.1772 122.781 88.9585 122.897C88.7397 123.011 88.4993 123.068 88.2373 123.068C87.9593 123.068 87.7166 123.019 87.5093 122.921C87.3042 122.823 87.1333 122.689 86.9966 122.518C86.8621 122.347 86.7607 122.151 86.6924 121.93C86.6263 121.707 86.5933 121.471 86.5933 121.223V121.079C86.5933 120.831 86.6263 120.596 86.6924 120.375C86.7607 120.152 86.8621 119.955 86.9966 119.784C87.1333 119.613 87.3042 119.478 87.5093 119.38C87.7166 119.282 87.9593 119.233 88.2373 119.233C88.5267 119.233 88.7796 119.293 88.9961 119.411C89.2126 119.527 89.3823 119.687 89.5054 119.89C89.6307 120.09 89.6991 120.318 89.7104 120.573H89.1089C89.0975 120.421 89.0542 120.283 88.979 120.16C88.9061 120.037 88.8058 119.939 88.6782 119.866C88.5529 119.791 88.4059 119.753 88.2373 119.753C88.0436 119.753 87.8807 119.792 87.7485 119.869C87.6187 119.944 87.515 120.047 87.4375 120.177C87.3623 120.304 87.3076 120.447 87.2734 120.604C87.2415 120.759 87.2256 120.917 87.2256 121.079V121.223C87.2256 121.384 87.2415 121.544 87.2734 121.701C87.3053 121.858 87.3589 122.001 87.4341 122.128C87.5116 122.256 87.6152 122.359 87.7451 122.436C87.8773 122.511 88.0413 122.549 88.2373 122.549ZM92.0811 123.068C91.8236 123.068 91.59 123.025 91.3804 122.938C91.173 122.85 90.9941 122.725 90.8438 122.566C90.6956 122.406 90.5817 122.217 90.502 121.999C90.4222 121.78 90.3823 121.541 90.3823 121.281V121.137C90.3823 120.836 90.4268 120.569 90.5156 120.334C90.6045 120.097 90.7253 119.896 90.8779 119.732C91.0306 119.568 91.2038 119.444 91.3975 119.36C91.5911 119.276 91.7917 119.233 91.999 119.233C92.2633 119.233 92.4912 119.279 92.6826 119.37C92.8763 119.461 93.0347 119.589 93.1577 119.753C93.2808 119.915 93.3719 120.106 93.4312 120.327C93.4904 120.546 93.52 120.785 93.52 121.045V121.329H90.7583V120.812H92.8877V120.765C92.8786 120.601 92.8444 120.441 92.7852 120.286C92.7282 120.131 92.637 120.004 92.5117 119.903C92.3864 119.803 92.2155 119.753 91.999 119.753C91.8555 119.753 91.7233 119.784 91.6025 119.845C91.4818 119.904 91.3781 119.993 91.2915 120.112C91.2049 120.23 91.1377 120.375 91.0898 120.546C91.042 120.717 91.0181 120.914 91.0181 121.137V121.281C91.0181 121.456 91.042 121.621 91.0898 121.776C91.14 121.929 91.2118 122.063 91.3052 122.18C91.4009 122.296 91.516 122.387 91.6504 122.453C91.7871 122.519 91.9421 122.552 92.1152 122.552C92.3385 122.552 92.5277 122.507 92.6826 122.416C92.8376 122.324 92.9731 122.202 93.0894 122.05L93.4722 122.354C93.3924 122.475 93.291 122.59 93.168 122.699C93.0449 122.809 92.8934 122.897 92.7134 122.966C92.5356 123.034 92.3249 123.068 92.0811 123.068ZM95.0703 119.302V123H94.4346V119.302H95.0703ZM94.3867 118.321C94.3867 118.218 94.4175 118.132 94.479 118.061C94.5428 117.99 94.6362 117.955 94.7593 117.955C94.88 117.955 94.9723 117.99 95.0361 118.061C95.1022 118.132 95.1353 118.218 95.1353 118.321C95.1353 118.419 95.1022 118.503 95.0361 118.574C94.9723 118.642 94.88 118.676 94.7593 118.676C94.6362 118.676 94.5428 118.642 94.479 118.574C94.4175 118.503 94.3867 118.419 94.3867 118.321ZM97.335 122.429L98.3467 119.302H98.9927L97.6631 123H97.2393L97.335 122.429ZM96.4907 119.302L97.5332 122.446L97.605 123H97.1812L95.8413 119.302H96.4907ZM101.213 123.068C100.955 123.068 100.722 123.025 100.512 122.938C100.305 122.85 100.126 122.725 99.9756 122.566C99.8275 122.406 99.7135 122.217 99.6338 121.999C99.554 121.78 99.5142 121.541 99.5142 121.281V121.137C99.5142 120.836 99.5586 120.569 99.6475 120.334C99.7363 120.097 99.8571 119.896 100.01 119.732C100.162 119.568 100.336 119.444 100.529 119.36C100.723 119.276 100.924 119.233 101.131 119.233C101.395 119.233 101.623 119.279 101.814 119.37C102.008 119.461 102.167 119.589 102.29 119.753C102.413 119.915 102.504 120.106 102.563 120.327C102.622 120.546 102.652 120.785 102.652 121.045V121.329H99.8901V120.812H102.02V120.765C102.01 120.601 101.976 120.441 101.917 120.286C101.86 120.131 101.769 120.004 101.644 119.903C101.518 119.803 101.347 119.753 101.131 119.753C100.987 119.753 100.855 119.784 100.734 119.845C100.614 119.904 100.51 119.993 100.423 120.112C100.337 120.23 100.27 120.375 100.222 120.546C100.174 120.717 100.15 120.914 100.15 121.137V121.281C100.15 121.456 100.174 121.621 100.222 121.776C100.272 121.929 100.344 122.063 100.437 122.18C100.533 122.296 100.648 122.387 100.782 122.453C100.919 122.519 101.074 122.552 101.247 122.552C101.47 122.552 101.66 122.507 101.814 122.416C101.969 122.324 102.105 122.202 102.221 122.05L102.604 122.354C102.524 122.475 102.423 122.59 102.3 122.699C102.177 122.809 102.025 122.897 101.845 122.966C101.667 123.034 101.457 123.068 101.213 123.068ZM105.846 122.282V117.75H106.482V123H105.901L105.846 122.282ZM103.358 121.192V121.12C103.358 120.838 103.392 120.581 103.46 120.351C103.531 120.119 103.63 119.919 103.758 119.753C103.888 119.587 104.042 119.459 104.219 119.37C104.399 119.279 104.6 119.233 104.821 119.233C105.053 119.233 105.256 119.274 105.429 119.356C105.605 119.436 105.753 119.554 105.874 119.708C105.997 119.861 106.093 120.046 106.164 120.262C106.235 120.479 106.284 120.724 106.311 120.997V121.312C106.286 121.583 106.237 121.826 106.164 122.043C106.093 122.259 105.997 122.444 105.874 122.597C105.753 122.749 105.605 122.867 105.429 122.949C105.254 123.028 105.049 123.068 104.814 123.068C104.597 123.068 104.399 123.022 104.219 122.928C104.042 122.835 103.888 122.704 103.758 122.535C103.63 122.367 103.531 122.168 103.46 121.94C103.392 121.71 103.358 121.461 103.358 121.192ZM103.994 121.12V121.192C103.994 121.376 104.012 121.55 104.048 121.711C104.087 121.873 104.146 122.016 104.226 122.139C104.306 122.262 104.407 122.359 104.53 122.429C104.653 122.498 104.8 122.532 104.971 122.532C105.181 122.532 105.353 122.487 105.487 122.398C105.624 122.31 105.733 122.192 105.815 122.046C105.897 121.901 105.961 121.742 106.007 121.571V120.748C105.979 120.622 105.94 120.501 105.887 120.385C105.837 120.267 105.771 120.162 105.689 120.071C105.609 119.977 105.51 119.903 105.392 119.849C105.275 119.794 105.138 119.767 104.978 119.767C104.805 119.767 104.656 119.803 104.53 119.876C104.407 119.947 104.306 120.045 104.226 120.17C104.146 120.293 104.087 120.437 104.048 120.601C104.012 120.762 103.994 120.936 103.994 121.12ZM111.784 122.282V117.75H112.419V123H111.838L111.784 122.282ZM109.295 121.192V121.12C109.295 120.838 109.33 120.581 109.398 120.351C109.469 120.119 109.568 119.919 109.695 119.753C109.825 119.587 109.979 119.459 110.157 119.37C110.337 119.279 110.537 119.233 110.758 119.233C110.991 119.233 111.194 119.274 111.367 119.356C111.542 119.436 111.69 119.554 111.811 119.708C111.934 119.861 112.031 120.046 112.102 120.262C112.172 120.479 112.221 120.724 112.249 120.997V121.312C112.223 121.583 112.174 121.826 112.102 122.043C112.031 122.259 111.934 122.444 111.811 122.597C111.69 122.749 111.542 122.867 111.367 122.949C111.191 123.028 110.986 123.068 110.751 123.068C110.535 123.068 110.337 123.022 110.157 122.928C109.979 122.835 109.825 122.704 109.695 122.535C109.568 122.367 109.469 122.168 109.398 121.94C109.33 121.71 109.295 121.461 109.295 121.192ZM109.931 121.12V121.192C109.931 121.376 109.949 121.55 109.986 121.711C110.025 121.873 110.084 122.016 110.164 122.139C110.243 122.262 110.345 122.359 110.468 122.429C110.591 122.498 110.738 122.532 110.909 122.532C111.118 122.532 111.29 122.487 111.425 122.398C111.562 122.31 111.671 122.192 111.753 122.046C111.835 121.901 111.899 121.742 111.944 121.571V120.748C111.917 120.622 111.877 120.501 111.825 120.385C111.775 120.267 111.708 120.162 111.626 120.071C111.547 119.977 111.448 119.903 111.329 119.849C111.213 119.794 111.075 119.767 110.916 119.767C110.742 119.767 110.593 119.803 110.468 119.876C110.345 119.947 110.243 120.045 110.164 120.17C110.084 120.293 110.025 120.437 109.986 120.601C109.949 120.762 109.931 120.936 109.931 121.12ZM115.709 122.368V120.464C115.709 120.318 115.68 120.192 115.621 120.084C115.564 119.975 115.477 119.891 115.361 119.832C115.245 119.772 115.101 119.743 114.93 119.743C114.771 119.743 114.631 119.77 114.51 119.825C114.391 119.879 114.298 119.951 114.229 120.04C114.163 120.129 114.13 120.225 114.13 120.327H113.498C113.498 120.195 113.532 120.064 113.601 119.934C113.669 119.804 113.767 119.687 113.895 119.582C114.024 119.475 114.179 119.391 114.359 119.329C114.542 119.265 114.744 119.233 114.968 119.233C115.237 119.233 115.474 119.279 115.679 119.37C115.886 119.461 116.048 119.599 116.164 119.784C116.283 119.966 116.342 120.195 116.342 120.471V122.193C116.342 122.316 116.352 122.447 116.373 122.586C116.395 122.725 116.428 122.845 116.472 122.945V123H115.812C115.78 122.927 115.755 122.83 115.737 122.709C115.719 122.586 115.709 122.472 115.709 122.368ZM115.819 120.758L115.826 121.202H115.187C115.007 121.202 114.846 121.217 114.705 121.247C114.563 121.274 114.445 121.316 114.349 121.373C114.253 121.43 114.181 121.502 114.13 121.588C114.08 121.673 114.055 121.772 114.055 121.886C114.055 122.002 114.081 122.108 114.134 122.204C114.186 122.299 114.265 122.376 114.37 122.433C114.477 122.487 114.608 122.515 114.763 122.515C114.956 122.515 115.127 122.474 115.275 122.392C115.424 122.31 115.541 122.209 115.627 122.091C115.716 121.972 115.764 121.857 115.771 121.746L116.041 122.05C116.025 122.146 115.982 122.251 115.911 122.368C115.84 122.484 115.746 122.596 115.627 122.703C115.511 122.807 115.372 122.895 115.21 122.966C115.051 123.034 114.871 123.068 114.67 123.068C114.42 123.068 114.2 123.019 114.011 122.921C113.824 122.823 113.678 122.692 113.573 122.528C113.471 122.362 113.419 122.176 113.419 121.971C113.419 121.773 113.458 121.599 113.536 121.448C113.613 121.296 113.725 121.169 113.871 121.069C114.016 120.966 114.192 120.889 114.397 120.836C114.602 120.784 114.831 120.758 115.084 120.758H115.819ZM119.01 119.302V119.787H117.01V119.302H119.01ZM117.687 118.403H118.319V122.084C118.319 122.209 118.339 122.304 118.377 122.368C118.416 122.431 118.466 122.474 118.528 122.494C118.589 122.515 118.655 122.525 118.726 122.525C118.778 122.525 118.833 122.52 118.89 122.511C118.949 122.5 118.994 122.491 119.023 122.484L119.027 123C118.977 123.016 118.911 123.031 118.829 123.044C118.749 123.06 118.652 123.068 118.538 123.068C118.383 123.068 118.241 123.038 118.111 122.976C117.981 122.915 117.877 122.812 117.8 122.668C117.725 122.523 117.687 122.327 117.687 122.081V118.403ZM122.057 122.368V120.464C122.057 120.318 122.028 120.192 121.968 120.084C121.911 119.975 121.825 119.891 121.708 119.832C121.592 119.772 121.449 119.743 121.278 119.743C121.118 119.743 120.978 119.77 120.857 119.825C120.739 119.879 120.646 119.951 120.577 120.04C120.511 120.129 120.478 120.225 120.478 120.327H119.846C119.846 120.195 119.88 120.064 119.948 119.934C120.017 119.804 120.115 119.687 120.242 119.582C120.372 119.475 120.527 119.391 120.707 119.329C120.889 119.265 121.092 119.233 121.315 119.233C121.584 119.233 121.821 119.279 122.026 119.37C122.234 119.461 122.396 119.599 122.512 119.784C122.63 119.966 122.689 120.195 122.689 120.471V122.193C122.689 122.316 122.7 122.447 122.72 122.586C122.743 122.725 122.776 122.845 122.819 122.945V123H122.16C122.128 122.927 122.103 122.83 122.084 122.709C122.066 122.586 122.057 122.472 122.057 122.368ZM122.167 120.758L122.173 121.202H121.534C121.354 121.202 121.194 121.217 121.052 121.247C120.911 121.274 120.792 121.316 120.697 121.373C120.601 121.43 120.528 121.502 120.478 121.588C120.428 121.673 120.403 121.772 120.403 121.886C120.403 122.002 120.429 122.108 120.481 122.204C120.534 122.299 120.612 122.376 120.717 122.433C120.824 122.487 120.955 122.515 121.11 122.515C121.304 122.515 121.475 122.474 121.623 122.392C121.771 122.31 121.889 122.209 121.975 122.091C122.064 121.972 122.112 121.857 122.119 121.746L122.389 122.05C122.373 122.146 122.329 122.251 122.259 122.368C122.188 122.484 122.094 122.596 121.975 122.703C121.859 122.807 121.72 122.895 121.558 122.966C121.399 123.034 121.219 123.068 121.018 123.068C120.767 123.068 120.548 123.019 120.358 122.921C120.172 122.823 120.026 122.692 119.921 122.528C119.818 122.362 119.767 122.176 119.767 121.971C119.767 121.773 119.806 121.599 119.883 121.448C119.961 121.296 120.072 121.169 120.218 121.069C120.364 120.966 120.54 120.889 120.745 120.836C120.95 120.784 121.179 120.758 121.432 120.758H122.167ZM123.782 122.665C123.782 122.558 123.815 122.468 123.881 122.395C123.949 122.32 124.047 122.282 124.175 122.282C124.302 122.282 124.399 122.32 124.465 122.395C124.534 122.468 124.568 122.558 124.568 122.665C124.568 122.77 124.534 122.859 124.465 122.932C124.399 123.005 124.302 123.041 124.175 123.041C124.047 123.041 123.949 123.005 123.881 122.932C123.815 122.859 123.782 122.77 123.782 122.665ZM123.785 119.647C123.785 119.54 123.818 119.45 123.884 119.377C123.953 119.302 124.051 119.264 124.178 119.264C124.306 119.264 124.403 119.302 124.469 119.377C124.537 119.45 124.571 119.54 124.571 119.647C124.571 119.752 124.537 119.841 124.469 119.914C124.403 119.986 124.306 120.023 124.178 120.023C124.051 120.023 123.953 119.986 123.884 119.914C123.818 119.841 123.785 119.752 123.785 119.647ZM129.169 117.542L129.302 117.931C129.031 118.015 128.844 118.167 128.742 118.386C128.639 118.602 128.588 118.851 128.588 119.131V119.838C128.588 120.066 128.541 120.274 128.448 120.46C128.357 120.645 128.211 120.792 128.01 120.901C127.812 121.011 127.551 121.065 127.228 121.065V120.648C127.485 120.648 127.67 120.576 127.781 120.43C127.895 120.284 127.952 120.087 127.952 119.838V119.131C127.952 118.892 127.989 118.668 128.062 118.461C128.137 118.251 128.262 118.068 128.438 117.911C128.615 117.751 128.859 117.628 129.169 117.542ZM129.302 123.858L129.169 124.251C128.859 124.162 128.615 124.039 128.438 123.882C128.262 123.725 128.137 123.541 128.062 123.332C127.989 123.124 127.952 122.901 127.952 122.662V121.958C127.952 121.791 127.927 121.648 127.877 121.527C127.827 121.406 127.748 121.313 127.641 121.247C127.536 121.178 127.398 121.144 127.228 121.144V120.727C127.551 120.727 127.812 120.782 128.01 120.891C128.211 121 128.357 121.149 128.448 121.335C128.541 121.52 128.588 121.727 128.588 121.958V122.662C128.588 122.848 128.61 123.022 128.653 123.181C128.698 123.341 128.772 123.479 128.875 123.595C128.98 123.713 129.122 123.801 129.302 123.858ZM129.574 117.931L129.708 117.542C130.02 117.628 130.264 117.751 130.439 117.911C130.617 118.068 130.742 118.251 130.815 118.461C130.888 118.668 130.924 118.892 130.924 119.131V119.838C130.924 120.002 130.949 120.146 131 120.269C131.05 120.39 131.127 120.483 131.232 120.549C131.339 120.615 131.478 120.648 131.649 120.648V121.035C131.328 121.035 131.067 120.983 130.866 120.881C130.666 120.776 130.519 120.634 130.425 120.454C130.334 120.271 130.289 120.066 130.289 119.838V119.131C130.289 118.944 130.267 118.771 130.224 118.611C130.18 118.45 130.106 118.311 130.001 118.194C129.899 118.076 129.757 117.988 129.574 117.931ZM129.708 124.251L129.574 123.858C129.754 123.801 129.896 123.713 129.998 123.595C130.103 123.479 130.177 123.341 130.22 123.181C130.266 123.022 130.289 122.848 130.289 122.662V121.958C130.289 121.727 130.334 121.522 130.425 121.342C130.519 121.162 130.666 121.021 130.866 120.918C131.067 120.814 131.328 120.761 131.649 120.761V121.144C131.394 121.144 131.209 121.218 131.095 121.366C130.981 121.512 130.924 121.709 130.924 121.958V122.662C130.924 122.901 130.888 123.124 130.815 123.332C130.742 123.541 130.617 123.725 130.439 123.882C130.264 124.039 130.02 124.162 129.708 124.251Z" fill="black" fill-opacity="0.76"/>
</g>
<g filter="url(#filter3_dd_18289_14134)">
<rect width="188" height="22" transform="translate(6 134)" fill="white"/>
<path d="M17.7393 146.463V147H15.104V146.463H17.7393ZM15.2373 142.023V147H14.5776V142.023H15.2373ZM17.3906 144.163V144.7H15.104V144.163H17.3906ZM17.7051 142.023V142.563H15.104V142.023H17.7051ZM18.6812 142.023H20.3286C20.7023 142.023 21.0179 142.08 21.2754 142.194C21.5352 142.308 21.7323 142.477 21.8667 142.7C22.0034 142.921 22.0718 143.194 22.0718 143.517C22.0718 143.745 22.0251 143.953 21.9316 144.143C21.8405 144.329 21.7083 144.489 21.5352 144.621C21.3643 144.751 21.1592 144.848 20.9199 144.912L20.7354 144.983H19.187L19.1802 144.447H20.3491C20.5861 144.447 20.7832 144.406 20.9404 144.324C21.0977 144.239 21.2161 144.127 21.2959 143.985C21.3757 143.844 21.4155 143.688 21.4155 143.517C21.4155 143.326 21.3779 143.158 21.3027 143.015C21.2275 142.871 21.109 142.761 20.9473 142.683C20.7878 142.603 20.5815 142.563 20.3286 142.563H19.3408V147H18.6812V142.023ZM21.5898 147L20.3799 144.744L21.0669 144.741L22.2939 146.959V147H21.5898ZM23.1196 142.023H24.7671C25.1408 142.023 25.4564 142.08 25.7139 142.194C25.9736 142.308 26.1707 142.477 26.3052 142.7C26.4419 142.921 26.5103 143.194 26.5103 143.517C26.5103 143.745 26.4635 143.953 26.3701 144.143C26.279 144.329 26.1468 144.489 25.9736 144.621C25.8027 144.751 25.5977 144.848 25.3584 144.912L25.1738 144.983H23.6255L23.6187 144.447H24.7876C25.0246 144.447 25.2217 144.406 25.3789 144.324C25.5361 144.239 25.6546 144.127 25.7344 143.985C25.8141 143.844 25.854 143.688 25.854 143.517C25.854 143.326 25.8164 143.158 25.7412 143.015C25.666 142.871 25.5475 142.761 25.3857 142.683C25.2262 142.603 25.02 142.563 24.7671 142.563H23.7793V147H23.1196V142.023ZM26.0283 147L24.8184 144.744L25.5054 144.741L26.7324 146.959V147H26.0283ZM31.3896 144.354V144.669C31.3896 145.043 31.3429 145.378 31.2495 145.674C31.1561 145.97 31.0216 146.222 30.8462 146.429C30.6707 146.637 30.46 146.795 30.2139 146.904C29.9701 147.014 29.6966 147.068 29.3936 147.068C29.0996 147.068 28.8296 147.014 28.5835 146.904C28.3397 146.795 28.1278 146.637 27.9478 146.429C27.77 146.222 27.6322 145.97 27.5342 145.674C27.4362 145.378 27.3872 145.043 27.3872 144.669V144.354C27.3872 143.981 27.4351 143.647 27.5308 143.353C27.6287 143.057 27.7666 142.805 27.9443 142.598C28.1221 142.388 28.3328 142.229 28.5767 142.119C28.8228 142.01 29.0928 141.955 29.3867 141.955C29.6898 141.955 29.9632 142.01 30.207 142.119C30.4531 142.229 30.6639 142.388 30.8394 142.598C31.0171 142.805 31.1527 143.057 31.2461 143.353C31.3418 143.647 31.3896 143.981 31.3896 144.354ZM30.7368 144.669V144.348C30.7368 144.051 30.7061 143.789 30.6445 143.562C30.5853 143.334 30.4976 143.142 30.3813 142.987C30.2651 142.832 30.1227 142.715 29.9541 142.635C29.7878 142.556 29.5986 142.516 29.3867 142.516C29.1816 142.516 28.9959 142.556 28.8296 142.635C28.6655 142.715 28.5243 142.832 28.4058 142.987C28.2896 143.142 28.1995 143.334 28.1357 143.562C28.0719 143.789 28.04 144.051 28.04 144.348V144.669C28.04 144.967 28.0719 145.232 28.1357 145.462C28.1995 145.69 28.2907 145.882 28.4092 146.04C28.5299 146.194 28.6724 146.312 28.8364 146.392C29.0028 146.471 29.1885 146.511 29.3936 146.511C29.6077 146.511 29.798 146.471 29.9644 146.392C30.1307 146.312 30.2708 146.194 30.3848 146.04C30.501 145.882 30.5887 145.69 30.6479 145.462C30.7072 145.232 30.7368 144.967 30.7368 144.669ZM32.5024 142.023H34.1499C34.5236 142.023 34.8392 142.08 35.0967 142.194C35.3564 142.308 35.5535 142.477 35.688 142.7C35.8247 142.921 35.8931 143.194 35.8931 143.517C35.8931 143.745 35.8464 143.953 35.7529 144.143C35.6618 144.329 35.5296 144.489 35.3564 144.621C35.1855 144.751 34.9805 144.848 34.7412 144.912L34.5566 144.983H33.0083L33.0015 144.447H34.1704C34.4074 144.447 34.6045 144.406 34.7617 144.324C34.9189 144.239 35.0374 144.127 35.1172 143.985C35.1969 143.844 35.2368 143.688 35.2368 143.517C35.2368 143.326 35.1992 143.158 35.124 143.015C35.0488 142.871 34.9303 142.761 34.7686 142.683C34.609 142.603 34.4028 142.563 34.1499 142.563H33.1621V147H32.5024V142.023ZM35.4111 147L34.2012 144.744L34.8882 144.741L36.1152 146.959V147H35.4111Z" fill="black" fill-opacity="0.76"/>
<path d="M80.4131 145.048H79.0835V144.512H80.4131C80.6706 144.512 80.8791 144.471 81.0386 144.389C81.1981 144.307 81.3143 144.193 81.3872 144.047C81.4624 143.901 81.5 143.735 81.5 143.548C81.5 143.377 81.4624 143.216 81.3872 143.066C81.3143 142.916 81.1981 142.795 81.0386 142.704C80.8791 142.61 80.6706 142.563 80.4131 142.563H79.2373V147H78.5776V142.023H80.4131C80.7891 142.023 81.1069 142.088 81.3667 142.218C81.6265 142.348 81.8236 142.528 81.958 142.758C82.0924 142.986 82.1597 143.247 82.1597 143.541C82.1597 143.86 82.0924 144.132 81.958 144.358C81.8236 144.583 81.6265 144.756 81.3667 144.874C81.1069 144.99 80.7891 145.048 80.4131 145.048ZM85.1626 146.368V144.464C85.1626 144.318 85.133 144.192 85.0737 144.084C85.0168 143.975 84.9302 143.891 84.814 143.832C84.6978 143.772 84.5542 143.743 84.3833 143.743C84.2238 143.743 84.0837 143.77 83.9629 143.825C83.8444 143.879 83.751 143.951 83.6826 144.04C83.6165 144.129 83.5835 144.225 83.5835 144.327H82.9512C82.9512 144.195 82.9854 144.064 83.0537 143.934C83.1221 143.804 83.2201 143.687 83.3477 143.582C83.4775 143.475 83.6325 143.391 83.8125 143.329C83.9948 143.265 84.1976 143.233 84.4209 143.233C84.6898 143.233 84.9268 143.279 85.1318 143.37C85.3392 143.461 85.501 143.599 85.6172 143.784C85.7357 143.966 85.7949 144.195 85.7949 144.471V146.193C85.7949 146.316 85.8052 146.447 85.8257 146.586C85.8485 146.725 85.8815 146.845 85.9248 146.945V147H85.2651C85.2332 146.927 85.2082 146.83 85.1899 146.709C85.1717 146.586 85.1626 146.472 85.1626 146.368ZM85.272 144.758L85.2788 145.202H84.6396C84.4596 145.202 84.299 145.217 84.1577 145.247C84.0164 145.274 83.8979 145.316 83.8022 145.373C83.7065 145.43 83.6336 145.502 83.5835 145.588C83.5334 145.673 83.5083 145.772 83.5083 145.886C83.5083 146.002 83.5345 146.108 83.5869 146.204C83.6393 146.299 83.7179 146.376 83.8228 146.433C83.9299 146.487 84.0609 146.515 84.2158 146.515C84.4095 146.515 84.5804 146.474 84.7285 146.392C84.8766 146.31 84.994 146.209 85.0806 146.091C85.1694 145.972 85.2173 145.857 85.2241 145.746L85.4941 146.05C85.4782 146.146 85.4349 146.251 85.3643 146.368C85.2936 146.484 85.1991 146.596 85.0806 146.703C84.9644 146.807 84.8254 146.895 84.6636 146.966C84.5041 147.034 84.3241 147.068 84.1235 147.068C83.8729 147.068 83.653 147.019 83.4639 146.921C83.277 146.823 83.1312 146.692 83.0264 146.528C82.9238 146.362 82.8726 146.176 82.8726 145.971C82.8726 145.773 82.9113 145.599 82.9888 145.448C83.0662 145.296 83.1779 145.169 83.3237 145.069C83.4696 144.966 83.645 144.889 83.8501 144.836C84.0552 144.784 84.2842 144.758 84.5371 144.758H85.272ZM87.5469 143.883V147H86.9146V143.302H87.5298L87.5469 143.883ZM88.7021 143.281L88.6987 143.869C88.6463 143.858 88.5962 143.851 88.5483 143.849C88.5028 143.844 88.4504 143.842 88.3911 143.842C88.2453 143.842 88.1165 143.865 88.0049 143.91C87.8932 143.956 87.7987 144.02 87.7212 144.102C87.6437 144.184 87.5822 144.282 87.5366 144.396C87.4933 144.507 87.4648 144.63 87.4512 144.765L87.2734 144.867C87.2734 144.644 87.2951 144.434 87.3384 144.238C87.384 144.042 87.4535 143.869 87.5469 143.719C87.6403 143.566 87.7588 143.448 87.9023 143.363C88.0482 143.277 88.2214 143.233 88.4219 143.233C88.4674 143.233 88.5199 143.239 88.5791 143.25C88.6383 143.26 88.6794 143.27 88.7021 143.281ZM91.5649 146.019C91.5649 145.928 91.5444 145.844 91.5034 145.766C91.4647 145.686 91.3838 145.615 91.2607 145.551C91.14 145.485 90.9577 145.428 90.7139 145.38C90.5088 145.337 90.3231 145.285 90.1567 145.226C89.9927 145.167 89.8525 145.095 89.7363 145.011C89.6224 144.926 89.5347 144.827 89.4731 144.713C89.4116 144.599 89.3809 144.466 89.3809 144.313C89.3809 144.168 89.4128 144.03 89.4766 143.9C89.5426 143.77 89.6349 143.655 89.7534 143.555C89.8742 143.454 90.0189 143.376 90.1875 143.319C90.3561 143.262 90.5441 143.233 90.7515 143.233C91.0477 143.233 91.3006 143.286 91.5103 143.391C91.7199 143.495 91.8805 143.636 91.9922 143.811C92.1038 143.984 92.1597 144.177 92.1597 144.389H91.5273C91.5273 144.286 91.4966 144.187 91.4351 144.091C91.3758 143.993 91.2881 143.912 91.1719 143.849C91.0579 143.785 90.9178 143.753 90.7515 143.753C90.576 143.753 90.4336 143.78 90.3242 143.835C90.2171 143.887 90.1385 143.955 90.0884 144.037C90.0405 144.119 90.0166 144.205 90.0166 144.296C90.0166 144.365 90.028 144.426 90.0508 144.481C90.0758 144.533 90.1191 144.582 90.1807 144.628C90.2422 144.671 90.3288 144.712 90.4404 144.751C90.5521 144.79 90.6945 144.828 90.8677 144.867C91.1707 144.936 91.4202 145.018 91.6162 145.113C91.8122 145.209 91.958 145.326 92.0537 145.465C92.1494 145.604 92.1973 145.773 92.1973 145.971C92.1973 146.133 92.1631 146.281 92.0947 146.416C92.0286 146.55 91.9318 146.666 91.8042 146.764C91.6789 146.86 91.5285 146.935 91.353 146.99C91.1799 147.042 90.985 147.068 90.7686 147.068C90.4427 147.068 90.167 147.01 89.9414 146.894C89.7158 146.778 89.5449 146.627 89.4287 146.443C89.3125 146.258 89.2544 146.063 89.2544 145.858H89.8901C89.8993 146.032 89.9494 146.169 90.0405 146.272C90.1317 146.372 90.2433 146.444 90.3755 146.487C90.5076 146.528 90.6387 146.549 90.7686 146.549C90.9417 146.549 91.0864 146.526 91.2026 146.48C91.3211 146.435 91.4111 146.372 91.4727 146.292C91.5342 146.213 91.5649 146.122 91.5649 146.019ZM94.6875 147.068C94.43 147.068 94.1965 147.025 93.9868 146.938C93.7795 146.85 93.6006 146.725 93.4502 146.566C93.3021 146.406 93.1882 146.217 93.1084 145.999C93.0286 145.78 92.9888 145.541 92.9888 145.281V145.137C92.9888 144.836 93.0332 144.569 93.1221 144.334C93.2109 144.097 93.3317 143.896 93.4844 143.732C93.637 143.568 93.8102 143.444 94.0039 143.36C94.1976 143.276 94.3981 143.233 94.6055 143.233C94.8698 143.233 95.0977 143.279 95.2891 143.37C95.4827 143.461 95.6411 143.589 95.7642 143.753C95.8872 143.915 95.9784 144.106 96.0376 144.327C96.0968 144.546 96.1265 144.785 96.1265 145.045V145.329H93.3647V144.812H95.4941V144.765C95.485 144.601 95.4508 144.441 95.3916 144.286C95.3346 144.131 95.2435 144.004 95.1182 143.903C94.9928 143.803 94.8219 143.753 94.6055 143.753C94.4619 143.753 94.3298 143.784 94.209 143.845C94.0882 143.904 93.9845 143.993 93.8979 144.112C93.8114 144.23 93.7441 144.375 93.6963 144.546C93.6484 144.717 93.6245 144.914 93.6245 145.137V145.281C93.6245 145.456 93.6484 145.621 93.6963 145.776C93.7464 145.929 93.8182 146.063 93.9116 146.18C94.0073 146.296 94.1224 146.387 94.2568 146.453C94.3936 146.519 94.5485 146.552 94.7217 146.552C94.945 146.552 95.1341 146.507 95.2891 146.416C95.444 146.324 95.5796 146.202 95.6958 146.05L96.0786 146.354C95.9989 146.475 95.8975 146.59 95.7744 146.699C95.6514 146.809 95.4998 146.897 95.3198 146.966C95.1421 147.034 94.9313 147.068 94.6875 147.068ZM100.386 147.068C100.128 147.068 99.8947 147.025 99.6851 146.938C99.4777 146.85 99.2988 146.725 99.1484 146.566C99.0003 146.406 98.8864 146.217 98.8066 145.999C98.7269 145.78 98.687 145.541 98.687 145.281V145.137C98.687 144.836 98.7314 144.569 98.8203 144.334C98.9092 144.097 99.0299 143.896 99.1826 143.732C99.3353 143.568 99.5085 143.444 99.7021 143.36C99.8958 143.276 100.096 143.233 100.304 143.233C100.568 143.233 100.796 143.279 100.987 143.37C101.181 143.461 101.339 143.589 101.462 143.753C101.585 143.915 101.677 144.106 101.736 144.327C101.795 144.546 101.825 144.785 101.825 145.045V145.329H99.063V144.812H101.192V144.765C101.183 144.601 101.149 144.441 101.09 144.286C101.033 144.131 100.942 144.004 100.816 143.903C100.691 143.803 100.52 143.753 100.304 143.753C100.16 143.753 100.028 143.784 99.9072 143.845C99.7865 143.904 99.6828 143.993 99.5962 144.112C99.5096 144.23 99.4424 144.375 99.3945 144.546C99.3467 144.717 99.3228 144.914 99.3228 145.137V145.281C99.3228 145.456 99.3467 145.621 99.3945 145.776C99.4447 145.929 99.5164 146.063 99.6099 146.18C99.7056 146.296 99.8206 146.387 99.9551 146.453C100.092 146.519 100.247 146.552 100.42 146.552C100.643 146.552 100.832 146.507 100.987 146.416C101.142 146.324 101.278 146.202 101.394 146.05L101.777 146.354C101.697 146.475 101.596 146.59 101.473 146.699C101.35 146.809 101.198 146.897 101.018 146.966C100.84 147.034 100.63 147.068 100.386 147.068ZM103.32 143.883V147H102.688V143.302H103.303L103.32 143.883ZM104.476 143.281L104.472 143.869C104.42 143.858 104.37 143.851 104.322 143.849C104.276 143.844 104.224 143.842 104.165 143.842C104.019 143.842 103.89 143.865 103.778 143.91C103.667 143.956 103.572 144.02 103.495 144.102C103.417 144.184 103.356 144.282 103.31 144.396C103.267 144.507 103.238 144.63 103.225 144.765L103.047 144.867C103.047 144.644 103.069 144.434 103.112 144.238C103.157 144.042 103.227 143.869 103.32 143.719C103.414 143.566 103.532 143.448 103.676 143.363C103.822 143.277 103.995 143.233 104.195 143.233C104.241 143.233 104.293 143.239 104.353 143.25C104.412 143.26 104.453 143.27 104.476 143.281ZM105.817 143.883V147H105.185V143.302H105.8L105.817 143.883ZM106.973 143.281L106.969 143.869C106.917 143.858 106.867 143.851 106.819 143.849C106.773 143.844 106.721 143.842 106.662 143.842C106.516 143.842 106.387 143.865 106.275 143.91C106.164 143.956 106.069 144.02 105.992 144.102C105.914 144.184 105.853 144.282 105.807 144.396C105.764 144.507 105.735 144.63 105.722 144.765L105.544 144.867C105.544 144.644 105.566 144.434 105.609 144.238C105.654 144.042 105.724 143.869 105.817 143.719C105.911 143.566 106.029 143.448 106.173 143.363C106.319 143.277 106.492 143.233 106.692 143.233C106.738 143.233 106.79 143.239 106.85 143.25C106.909 143.26 106.95 143.27 106.973 143.281ZM107.446 145.192V145.113C107.446 144.847 107.485 144.599 107.562 144.372C107.64 144.141 107.752 143.942 107.897 143.773C108.043 143.603 108.22 143.47 108.427 143.377C108.635 143.281 108.867 143.233 109.125 143.233C109.384 143.233 109.618 143.281 109.825 143.377C110.035 143.47 110.213 143.603 110.358 143.773C110.507 143.942 110.619 144.141 110.697 144.372C110.774 144.599 110.813 144.847 110.813 145.113V145.192C110.813 145.458 110.774 145.706 110.697 145.934C110.619 146.161 110.507 146.361 110.358 146.532C110.213 146.7 110.036 146.833 109.829 146.928C109.624 147.022 109.391 147.068 109.131 147.068C108.872 147.068 108.638 147.022 108.431 146.928C108.223 146.833 108.046 146.7 107.897 146.532C107.752 146.361 107.64 146.161 107.562 145.934C107.485 145.706 107.446 145.458 107.446 145.192ZM108.079 145.113V145.192C108.079 145.376 108.1 145.551 108.144 145.715C108.187 145.877 108.252 146.02 108.338 146.146C108.427 146.271 108.538 146.37 108.67 146.443C108.802 146.514 108.956 146.549 109.131 146.549C109.305 146.549 109.456 146.514 109.586 146.443C109.718 146.37 109.827 146.271 109.914 146.146C110.001 146.02 110.066 145.877 110.109 145.715C110.154 145.551 110.177 145.376 110.177 145.192V145.113C110.177 144.931 110.154 144.759 110.109 144.597C110.066 144.433 110 144.288 109.911 144.163C109.824 144.035 109.715 143.935 109.583 143.862C109.453 143.789 109.3 143.753 109.125 143.753C108.951 143.753 108.799 143.789 108.667 143.862C108.537 143.935 108.427 144.035 108.338 144.163C108.252 144.288 108.187 144.433 108.144 144.597C108.1 144.759 108.079 144.931 108.079 145.113ZM112.363 143.883V147H111.731V143.302H112.346L112.363 143.883ZM113.519 143.281L113.515 143.869C113.463 143.858 113.413 143.851 113.365 143.849C113.319 143.844 113.267 143.842 113.208 143.842C113.062 143.842 112.933 143.865 112.821 143.91C112.71 143.956 112.615 144.02 112.538 144.102C112.46 144.184 112.399 144.282 112.353 144.396C112.31 144.507 112.281 144.63 112.268 144.765L112.09 144.867C112.09 144.644 112.111 144.434 112.155 144.238C112.2 144.042 112.27 143.869 112.363 143.719C112.457 143.566 112.575 143.448 112.719 143.363C112.865 143.277 113.038 143.233 113.238 143.233C113.284 143.233 113.336 143.239 113.396 143.25C113.455 143.26 113.496 143.27 113.519 143.281ZM114.201 146.665C114.201 146.558 114.234 146.468 114.3 146.395C114.368 146.32 114.466 146.282 114.594 146.282C114.721 146.282 114.818 146.32 114.884 146.395C114.953 146.468 114.987 146.558 114.987 146.665C114.987 146.77 114.953 146.859 114.884 146.932C114.818 147.005 114.721 147.041 114.594 147.041C114.466 147.041 114.368 147.005 114.3 146.932C114.234 146.859 114.201 146.77 114.201 146.665ZM114.204 143.647C114.204 143.54 114.237 143.45 114.303 143.377C114.372 143.302 114.47 143.264 114.597 143.264C114.725 143.264 114.822 143.302 114.888 143.377C114.956 143.45 114.99 143.54 114.99 143.647C114.99 143.752 114.956 143.841 114.888 143.914C114.822 143.986 114.725 144.023 114.597 144.023C114.47 144.023 114.372 143.986 114.303 143.914C114.237 143.841 114.204 143.752 114.204 143.647ZM117.759 143.333V142.919C117.759 142.78 117.782 142.635 117.828 142.485C117.875 142.332 117.944 142.186 118.033 142.047C118.122 141.906 118.229 141.784 118.354 141.682L118.713 141.931C118.608 142.082 118.527 142.236 118.47 142.396C118.413 142.553 118.385 142.724 118.385 142.909V143.333H117.759ZM120.711 146.549C120.861 146.549 121 146.518 121.128 146.457C121.256 146.395 121.36 146.311 121.442 146.204C121.524 146.094 121.571 145.97 121.583 145.831H122.184C122.173 146.05 122.099 146.254 121.962 146.443C121.827 146.63 121.651 146.781 121.432 146.897C121.213 147.011 120.973 147.068 120.711 147.068C120.433 147.068 120.19 147.019 119.983 146.921C119.778 146.823 119.607 146.689 119.47 146.518C119.336 146.347 119.234 146.151 119.166 145.93C119.1 145.707 119.067 145.471 119.067 145.223V145.079C119.067 144.831 119.1 144.596 119.166 144.375C119.234 144.152 119.336 143.955 119.47 143.784C119.607 143.613 119.778 143.478 119.983 143.38C120.19 143.282 120.433 143.233 120.711 143.233C121 143.233 121.253 143.293 121.47 143.411C121.686 143.527 121.856 143.687 121.979 143.89C122.104 144.09 122.173 144.318 122.184 144.573H121.583C121.571 144.421 121.528 144.283 121.453 144.16C121.38 144.037 121.279 143.939 121.152 143.866C121.027 143.791 120.88 143.753 120.711 143.753C120.517 143.753 120.354 143.792 120.222 143.869C120.092 143.944 119.989 144.047 119.911 144.177C119.836 144.304 119.781 144.447 119.747 144.604C119.715 144.759 119.699 144.917 119.699 145.079V145.223C119.699 145.384 119.715 145.544 119.747 145.701C119.779 145.858 119.833 146.001 119.908 146.128C119.985 146.256 120.089 146.359 120.219 146.436C120.351 146.511 120.515 146.549 120.711 146.549ZM122.853 145.192V145.113C122.853 144.847 122.891 144.599 122.969 144.372C123.046 144.141 123.158 143.942 123.304 143.773C123.45 143.603 123.626 143.47 123.833 143.377C124.041 143.281 124.273 143.233 124.531 143.233C124.791 143.233 125.024 143.281 125.231 143.377C125.441 143.47 125.619 143.603 125.765 143.773C125.913 143.942 126.026 144.141 126.103 144.372C126.181 144.599 126.219 144.847 126.219 145.113V145.192C126.219 145.458 126.181 145.706 126.103 145.934C126.026 146.161 125.913 146.361 125.765 146.532C125.619 146.7 125.442 146.833 125.235 146.928C125.03 147.022 124.797 147.068 124.538 147.068C124.278 147.068 124.044 147.022 123.837 146.928C123.63 146.833 123.452 146.7 123.304 146.532C123.158 146.361 123.046 146.161 122.969 145.934C122.891 145.706 122.853 145.458 122.853 145.192ZM123.485 145.113V145.192C123.485 145.376 123.507 145.551 123.55 145.715C123.593 145.877 123.658 146.02 123.745 146.146C123.833 146.271 123.944 146.37 124.076 146.443C124.208 146.514 124.362 146.549 124.538 146.549C124.711 146.549 124.862 146.514 124.992 146.443C125.124 146.37 125.234 146.271 125.32 146.146C125.407 146.02 125.472 145.877 125.515 145.715C125.561 145.551 125.583 145.376 125.583 145.192V145.113C125.583 144.931 125.561 144.759 125.515 144.597C125.472 144.433 125.406 144.288 125.317 144.163C125.23 144.035 125.121 143.935 124.989 143.862C124.859 143.789 124.706 143.753 124.531 143.753C124.358 143.753 124.205 143.789 124.073 143.862C123.943 143.935 123.833 144.035 123.745 144.163C123.658 144.288 123.593 144.433 123.55 144.597C123.507 144.759 123.485 144.931 123.485 145.113ZM127.77 144.091V147H127.137V143.302H127.735L127.77 144.091ZM127.619 145.011L127.356 145C127.358 144.748 127.396 144.514 127.469 144.3C127.542 144.083 127.644 143.895 127.776 143.736C127.909 143.576 128.066 143.453 128.248 143.367C128.433 143.278 128.637 143.233 128.86 143.233C129.042 143.233 129.206 143.258 129.352 143.309C129.498 143.356 129.622 143.434 129.725 143.541C129.829 143.648 129.909 143.787 129.964 143.958C130.019 144.127 130.046 144.333 130.046 144.577V147H129.41V144.57C129.41 144.376 129.382 144.221 129.325 144.105C129.268 143.986 129.185 143.901 129.075 143.849C128.966 143.794 128.831 143.767 128.672 143.767C128.515 143.767 128.371 143.8 128.241 143.866C128.114 143.932 128.003 144.023 127.91 144.139C127.819 144.255 127.747 144.389 127.694 144.539C127.644 144.687 127.619 144.844 127.619 145.011ZM131.976 147H131.343V142.98C131.343 142.7 131.398 142.463 131.507 142.27C131.617 142.076 131.773 141.929 131.976 141.829C132.178 141.728 132.419 141.678 132.697 141.678C132.861 141.678 133.021 141.699 133.179 141.74C133.336 141.778 133.498 141.827 133.664 141.887L133.558 142.42C133.453 142.379 133.331 142.34 133.192 142.304C133.056 142.265 132.905 142.246 132.741 142.246C132.47 142.246 132.274 142.307 132.153 142.43C132.035 142.551 131.976 142.734 131.976 142.98V147ZM132.731 143.302V143.787H130.759V143.302H132.731ZM133.975 143.302V147H133.343V143.302H133.975ZM137.535 143.302H138.109V146.921C138.109 147.247 138.043 147.525 137.911 147.755C137.779 147.986 137.594 148.16 137.357 148.278C137.123 148.399 136.852 148.459 136.544 148.459C136.416 148.459 136.266 148.439 136.093 148.398C135.922 148.359 135.753 148.292 135.587 148.196C135.423 148.103 135.285 147.976 135.173 147.817L135.505 147.441C135.66 147.628 135.822 147.758 135.99 147.831C136.161 147.903 136.33 147.94 136.496 147.94C136.697 147.94 136.87 147.902 137.016 147.827C137.161 147.752 137.274 147.64 137.354 147.492C137.436 147.346 137.477 147.166 137.477 146.952V144.115L137.535 143.302ZM134.989 145.192V145.12C134.989 144.838 135.022 144.581 135.088 144.351C135.156 144.119 135.253 143.919 135.378 143.753C135.506 143.587 135.66 143.459 135.84 143.37C136.02 143.279 136.223 143.233 136.448 143.233C136.681 143.233 136.883 143.274 137.057 143.356C137.232 143.436 137.38 143.554 137.501 143.708C137.624 143.861 137.721 144.046 137.792 144.262C137.862 144.479 137.911 144.724 137.938 144.997V145.312C137.913 145.583 137.864 145.826 137.792 146.043C137.721 146.259 137.624 146.444 137.501 146.597C137.38 146.749 137.232 146.867 137.057 146.949C136.881 147.028 136.676 147.068 136.441 147.068C136.22 147.068 136.02 147.022 135.84 146.928C135.662 146.835 135.509 146.704 135.382 146.535C135.254 146.367 135.156 146.168 135.088 145.94C135.022 145.71 134.989 145.461 134.989 145.192ZM135.621 145.12V145.192C135.621 145.376 135.639 145.55 135.676 145.711C135.715 145.873 135.773 146.016 135.85 146.139C135.93 146.262 136.031 146.359 136.154 146.429C136.277 146.498 136.424 146.532 136.595 146.532C136.805 146.532 136.978 146.487 137.115 146.398C137.251 146.31 137.36 146.192 137.439 146.046C137.521 145.901 137.585 145.742 137.631 145.571V144.748C137.606 144.622 137.567 144.501 137.515 144.385C137.465 144.267 137.398 144.162 137.316 144.071C137.237 143.977 137.138 143.903 137.019 143.849C136.901 143.794 136.762 143.767 136.602 143.767C136.429 143.767 136.28 143.803 136.154 143.876C136.031 143.947 135.93 144.045 135.85 144.17C135.773 144.293 135.715 144.437 135.676 144.601C135.639 144.762 135.621 144.936 135.621 145.12ZM139.834 141.75V142.188C139.834 142.324 139.81 142.469 139.762 142.622C139.717 142.772 139.649 142.918 139.561 143.059C139.472 143.198 139.365 143.32 139.239 143.425L138.877 143.175C138.984 143.025 139.065 142.871 139.12 142.714C139.177 142.554 139.205 142.382 139.205 142.198V141.75H139.834Z" fill="black" fill-opacity="0.76"/>
</g>
</g>
<rect x="0.5" y="81.5" width="199" height="78" rx="3.5" stroke="black" stroke-opacity="0.12"/>
</g>
<defs>
<filter id="filter0_dd_18289_14134" x="-2" y="0" width="204" height="62" filterUnits="userSpaceOnUse" color-interpolation-filters="sRGB">
<feFlood flood-opacity="0" result="BackgroundImageFix"/>
<feColorMatrix in="SourceAlpha" type="matrix" values="0 0 0 0 0 0 0 0 0 0 0 0 0 0 0 0 0 0 127 0" result="hardAlpha"/>
<feMorphology radius="2" operator="dilate" in="SourceAlpha" result="effect1_dropShadow_18289_14134"/>
<feOffset dy="2"/>
<feGaussianBlur stdDeviation="3"/>
<feColorMatrix type="matrix" values="0 0 0 0 0 0 0 0 0 0 0 0 0 0 0 0 0 0 0.15 0"/>
<feBlend mode="normal" in2="BackgroundImageFix" result="effect1_dropShadow_18289_14134"/>
<feColorMatrix in="SourceAlpha" type="matrix" values="0 0 0 0 0 0 0 0 0 0 0 0 0 0 0 0 0 0 127 0" result="hardAlpha"/>
<feOffset dy="1"/>
<feGaussianBlur stdDeviation="1"/>
<feColorMatrix type="matrix" values="0 0 0 0 0 0 0 0 0 0 0 0 0 0 0 0 0 0 0.3 0"/>
<feBlend mode="normal" in2="effect1_dropShadow_18289_14134" result="effect2_dropShadow_18289_14134"/>
<feBlend mode="normal" in="SourceGraphic" in2="effect2_dropShadow_18289_14134" result="shape"/>
</filter>
<filter id="filter1_dd_18289_14134" x="-2" y="80" width="204" height="38" filterUnits="userSpaceOnUse" color-interpolation-filters="sRGB">
<feFlood flood-opacity="0" result="BackgroundImageFix"/>
<feColorMatrix in="SourceAlpha" type="matrix" values="0 0 0 0 0 0 0 0 0 0 0 0 0 0 0 0 0 0 127 0" result="hardAlpha"/>
<feMorphology radius="2" operator="dilate" in="SourceAlpha" result="effect1_dropShadow_18289_14134"/>
<feOffset dy="2"/>
<feGaussianBlur stdDeviation="3"/>
<feColorMatrix type="matrix" values="0 0 0 0 0 0 0 0 0 0 0 0 0 0 0 0 0 0 0.15 0"/>
<feBlend mode="normal" in2="BackgroundImageFix" result="effect1_dropShadow_18289_14134"/>
<feColorMatrix in="SourceAlpha" type="matrix" values="0 0 0 0 0 0 0 0 0 0 0 0 0 0 0 0 0 0 127 0" result="hardAlpha"/>
<feOffset dy="1"/>
<feGaussianBlur stdDeviation="1"/>
<feColorMatrix type="matrix" values="0 0 0 0 0 0 0 0 0 0 0 0 0 0 0 0 0 0 0.3 0"/>
<feBlend mode="normal" in2="effect1_dropShadow_18289_14134" result="effect2_dropShadow_18289_14134"/>
<feBlend mode="normal" in="SourceGraphic" in2="effect2_dropShadow_18289_14134" result="shape"/>
</filter>
<filter id="filter2_dd_18289_14134" x="-2" y="104" width="204" height="38" filterUnits="userSpaceOnUse" color-interpolation-filters="sRGB">
<feFlood flood-opacity="0" result="BackgroundImageFix"/>
<feColorMatrix in="SourceAlpha" type="matrix" values="0 0 0 0 0 0 0 0 0 0 0 0 0 0 0 0 0 0 127 0" result="hardAlpha"/>
<feMorphology radius="2" operator="dilate" in="SourceAlpha" result="effect1_dropShadow_18289_14134"/>
<feOffset dy="2"/>
<feGaussianBlur stdDeviation="3"/>
<feColorMatrix type="matrix" values="0 0 0 0 0 0 0 0 0 0 0 0 0 0 0 0 0 0 0.15 0"/>
<feBlend mode="normal" in2="BackgroundImageFix" result="effect1_dropShadow_18289_14134"/>
<feColorMatrix in="SourceAlpha" type="matrix" values="0 0 0 0 0 0 0 0 0 0 0 0 0 0 0 0 0 0 127 0" result="hardAlpha"/>
<feOffset dy="1"/>
<feGaussianBlur stdDeviation="1"/>
<feColorMatrix type="matrix" values="0 0 0 0 0 0 0 0 0 0 0 0 0 0 0 0 0 0 0.3 0"/>
<feBlend mode="normal" in2="effect1_dropShadow_18289_14134" result="effect2_dropShadow_18289_14134"/>
<feBlend mode="normal" in="SourceGraphic" in2="effect2_dropShadow_18289_14134" result="shape"/>
</filter>
<filter id="filter3_dd_18289_14134" x="-2" y="128" width="204" height="38" filterUnits="userSpaceOnUse" color-interpolation-filters="sRGB">
<feFlood flood-opacity="0" result="BackgroundImageFix"/>
<feColorMatrix in="SourceAlpha" type="matrix" values="0 0 0 0 0 0 0 0 0 0 0 0 0 0 0 0 0 0 127 0" result="hardAlpha"/>
<feMorphology radius="2" operator="dilate" in="SourceAlpha" result="effect1_dropShadow_18289_14134"/>
<feOffset dy="2"/>
<feGaussianBlur stdDeviation="3"/>
<feColorMatrix type="matrix" values="0 0 0 0 0 0 0 0 0 0 0 0 0 0 0 0 0 0 0.15 0"/>
<feBlend mode="normal" in2="BackgroundImageFix" result="effect1_dropShadow_18289_14134"/>
<feColorMatrix in="SourceAlpha" type="matrix" values="0 0 0 0 0 0 0 0 0 0 0 0 0 0 0 0 0 0 127 0" result="hardAlpha"/>
<feOffset dy="1"/>
<feGaussianBlur stdDeviation="1"/>
<feColorMatrix type="matrix" values="0 0 0 0 0 0 0 0 0 0 0 0 0 0 0 0 0 0 0.3 0"/>
<feBlend mode="normal" in2="effect1_dropShadow_18289_14134" result="effect2_dropShadow_18289_14134"/>
<feBlend mode="normal" in="SourceGraphic" in2="effect2_dropShadow_18289_14134" result="shape"/>
</filter>
<clipPath id="clip0_18289_14134">
<rect width="200" height="160" fill="white"/>
</clipPath>
<clipPath id="clip1_18289_14134">
<rect width="200" height="79" rx="4" fill="white"/>
</clipPath>
<clipPath id="clip2_18289_14134">
<rect x="6" y="6" width="188" height="46" rx="2" fill="white"/>
</clipPath>
<clipPath id="clip3_18289_14134">
<rect y="81" width="200" height="79" rx="4" fill="white"/>
</clipPath>
</defs>
</svg>
