<svg width="200" height="160" viewBox="0 0 200 160" fill="none" xmlns="http://www.w3.org/2000/svg">
    <rect width="200" height="160" rx="4" fill="#DEDEDE"/>
    <path d="M45.6001 79.6L37.2001 74.8V84.4L45.6001 79.6Z" fill="#666666"/>
    <rect x="47.1992" y="8.29999" width="8.4" height="130.4" fill="#C8DFF7"/>
    <rect x="47.2992" y="8.39999" width="8.2" height="130.2" stroke="black" stroke-opacity="0.87" stroke-width="0.2"/>
    <rect x="47.2" y="104.9" width="8.4" height="34" fill="#EBEBEB"/>
    <rect x="47.3" y="105" width="8.2" height="33.8" stroke="black" stroke-opacity="0.87" stroke-width="0.2"/>
    <rect x="47.2007" y="8.29987" width="8.4" height="34" fill="#EBEBEB"/>
    <rect x="47.3007" y="8.39987" width="8.2" height="33.8" stroke="black" stroke-opacity="0.87" stroke-width="0.2"/>
    <rect x="47.2" y="120.7" width="8.4" height="18" fill="#666666"/>
    <rect x="47.3" y="120.8" width="8.2" height="17.8" stroke="black" stroke-opacity="0.87" stroke-width="0.2"/>
    <rect x="47.1992" y="8.29999" width="8.4" height="18" fill="#666666"/>
    <rect x="47.2992" y="8.39999" width="8.2" height="17.8" stroke="black" stroke-opacity="0.87" stroke-width="0.2"/>
    <rect x="47.9883" y="50.494" width="4.8" height="4.8" transform="rotate(-45 47.9883 50.494)" fill="#DEDEDE"/>
    <rect x="48.2711" y="50.494" width="4.4" height="4.4" transform="rotate(-45 48.2711 50.494)" stroke="black" stroke-opacity="0.87" stroke-width="0.4"/>
    <path d="M46.1163 143.045C46.1163 142.786 46.1801 142.549 46.3077 142.334C46.4353 142.119 46.6049 141.947 46.8163 141.82C47.0278 141.688 47.2593 141.623 47.5108 141.623C47.7624 141.623 47.9921 141.688 48.1999 141.82C48.4077 141.947 48.5736 142.119 48.6976 142.334C48.8215 142.549 48.8835 142.786 48.8835 143.045C48.8835 143.303 48.8215 143.54 48.6976 143.755C48.5736 143.967 48.4077 144.136 48.1999 144.264C47.9921 144.388 47.7624 144.45 47.5108 144.45C47.2593 144.45 47.0278 144.388 46.8163 144.264C46.6049 144.136 46.4353 143.967 46.3077 143.755C46.1801 143.54 46.1163 143.303 46.1163 143.045ZM46.7944 143.045C46.7944 143.245 46.8637 143.413 47.0022 143.548C47.1444 143.683 47.314 143.75 47.5108 143.75C47.7077 143.75 47.8718 143.683 48.003 143.548C48.1379 143.413 48.2054 143.245 48.2054 143.045C48.2054 142.84 48.1379 142.669 48.003 142.53C47.8718 142.392 47.7077 142.323 47.5108 142.323C47.314 142.323 47.1444 142.392 47.0022 142.53C46.8637 142.669 46.7944 142.84 46.7944 143.045ZM55.5656 147.168H56.6156C56.5609 147.671 56.4169 148.121 56.1835 148.519C55.9502 148.916 55.6203 149.232 55.1937 149.465C54.7671 149.695 54.2348 149.809 53.5968 149.809C53.1302 149.809 52.7054 149.722 52.3226 149.547C51.9434 149.372 51.6171 149.124 51.3437 148.803C51.0703 148.479 50.8588 148.09 50.7093 147.638C50.5635 147.183 50.4906 146.676 50.4906 146.118V145.325C50.4906 144.767 50.5635 144.262 50.7093 143.81C50.8588 143.354 51.0721 142.964 51.3492 142.64C51.6299 142.315 51.9671 142.066 52.3609 141.891C52.7546 141.716 53.1976 141.628 53.6898 141.628C54.2914 141.628 54.7999 141.741 55.2156 141.967C55.6312 142.193 55.9539 142.507 56.1835 142.908C56.4169 143.305 56.5609 143.766 56.6156 144.291H55.5656C55.5145 143.92 55.4197 143.601 55.2812 143.334C55.1427 143.065 54.9458 142.857 54.6906 142.711C54.4354 142.565 54.1018 142.492 53.6898 142.492C53.3361 142.492 53.0244 142.56 52.7546 142.695C52.4885 142.829 52.2643 143.021 52.082 143.269C51.9033 143.517 51.7684 143.814 51.6773 144.16C51.5861 144.507 51.5406 144.891 51.5406 145.314V146.118C51.5406 146.508 51.5807 146.874 51.6609 147.217C51.7447 147.56 51.8705 147.861 52.0382 148.12C52.2059 148.378 52.4192 148.583 52.6781 148.732C52.9369 148.878 53.2432 148.951 53.5968 148.951C54.0453 148.951 54.4026 148.88 54.6687 148.738C54.9348 148.595 55.1354 148.391 55.2703 148.125C55.4088 147.859 55.5072 147.54 55.5656 147.168Z" fill="black" fill-opacity="0.87"/>
    <path d="M63.4988 81.5094V82.4H57.9148V81.6207L60.7097 78.5094C61.0535 78.1266 61.3191 77.8023 61.5066 77.5367C61.698 77.2672 61.8308 77.0269 61.905 76.816C61.9832 76.6012 62.0222 76.3824 62.0222 76.1598C62.0222 75.8785 61.9636 75.6246 61.8464 75.398C61.7332 75.1676 61.5652 74.984 61.3425 74.8473C61.1199 74.7105 60.8503 74.6422 60.5339 74.6422C60.155 74.6422 59.8386 74.7164 59.5847 74.8648C59.3347 75.0094 59.1472 75.2125 59.0222 75.4742C58.8972 75.7359 58.8347 76.0367 58.8347 76.3766H57.7507C57.7507 75.8961 57.8562 75.4566 58.0671 75.0582C58.2781 74.6598 58.5906 74.3434 59.0046 74.109C59.4187 73.8707 59.9285 73.7516 60.5339 73.7516C61.073 73.7516 61.5339 73.8473 61.9167 74.0387C62.2996 74.2262 62.5925 74.4918 62.7957 74.8355C63.0027 75.1754 63.1062 75.5738 63.1062 76.0309C63.1062 76.2809 63.0632 76.5348 62.9773 76.7926C62.8953 77.0465 62.78 77.3004 62.6316 77.5543C62.4871 77.8082 62.3171 78.0582 62.1218 78.3043C61.9304 78.5504 61.7253 78.7926 61.5066 79.0309L59.2214 81.5094H63.4988ZM69.0644 73.857H69.1582V74.7769H69.0644C68.4902 74.7769 68.0098 74.8707 67.623 75.0582C67.2363 75.2418 66.9297 75.4898 66.7031 75.8023C66.4766 76.1109 66.3125 76.4586 66.2109 76.8453C66.1133 77.232 66.0644 77.6246 66.0644 78.023V79.2769C66.0644 79.6559 66.1094 79.9918 66.1992 80.2848C66.2891 80.5738 66.4121 80.818 66.5684 81.0172C66.7246 81.2164 66.9004 81.3668 67.0957 81.4684C67.2949 81.5699 67.5019 81.6207 67.7168 81.6207C67.9668 81.6207 68.1894 81.5738 68.3848 81.4801C68.5801 81.3824 68.7441 81.2477 68.8769 81.0758C69.0137 80.9 69.1172 80.693 69.1875 80.4547C69.2578 80.2164 69.293 79.9547 69.293 79.6695C69.293 79.4156 69.2617 79.1715 69.1992 78.9371C69.1367 78.6988 69.041 78.4879 68.9121 78.3043C68.7832 78.1168 68.6211 77.9703 68.4258 77.8648C68.2344 77.7555 68.0059 77.7008 67.7402 77.7008C67.4394 77.7008 67.1582 77.775 66.8965 77.9234C66.6387 78.068 66.4258 78.2594 66.2578 78.4977C66.0937 78.732 66 78.9879 65.9766 79.2652L65.4023 79.2594C65.457 78.8219 65.5586 78.4488 65.707 78.1402C65.8594 77.8277 66.0469 77.5738 66.2695 77.3785C66.4961 77.1793 66.748 77.0348 67.0254 76.9449C67.3066 76.8512 67.6035 76.8043 67.916 76.8043C68.3418 76.8043 68.709 76.8844 69.0176 77.0445C69.3262 77.2047 69.5801 77.4195 69.7793 77.6891C69.9785 77.9547 70.125 78.2555 70.2187 78.5914C70.3164 78.9234 70.3652 79.2652 70.3652 79.6168C70.3652 80.0191 70.3086 80.3961 70.1953 80.7477C70.082 81.0992 69.9121 81.4078 69.6855 81.6734C69.4629 81.9391 69.1875 82.1461 68.8594 82.2945C68.5312 82.443 68.1504 82.5172 67.7168 82.5172C67.2559 82.5172 66.8535 82.4234 66.5098 82.2359C66.166 82.0445 65.8809 81.7906 65.6543 81.4742C65.4277 81.1578 65.2578 80.8062 65.1445 80.4195C65.0312 80.0328 64.9746 79.6402 64.9746 79.2418V78.732C64.9746 78.1305 65.0352 77.5406 65.1562 76.9625C65.2773 76.3844 65.4863 75.8609 65.7832 75.3922C66.084 74.9234 66.5 74.5504 67.0312 74.273C67.5625 73.9957 68.2402 73.857 69.0644 73.857Z" fill="#002878"/>
    <rect x="103.875" y="19.9375" width="80.25" height="40.125" rx="1.605" fill="#DEDEDE"/>
    <rect x="104.076" y="20.1381" width="79.8487" height="39.7238" rx="1.40438" stroke="black" stroke-opacity="0.87" stroke-width="0.40125"/>
    <path d="M125.065 29.8973V30.6639H121.217V29.8973H125.065ZM121.364 26.8406V33.95H120.421V26.8406H121.364ZM125.885 26.8406V33.95H124.948V26.8406H125.885ZM129.849 34.0477C129.481 34.0477 129.147 33.9858 128.848 33.8621C128.551 33.7352 128.296 33.5578 128.081 33.3299C127.869 33.102 127.707 32.8318 127.593 32.5193C127.479 32.2068 127.422 31.8651 127.422 31.494V31.2889C127.422 30.8592 127.485 30.4767 127.612 30.1414C127.739 29.8029 127.912 29.5164 128.13 29.282C128.348 29.0477 128.595 28.8703 128.872 28.7498C129.149 28.6294 129.435 28.5692 129.731 28.5692C130.109 28.5692 130.435 28.6343 130.708 28.7645C130.985 28.8947 131.211 29.077 131.387 29.3113C131.562 29.5425 131.693 29.8159 131.777 30.1317C131.862 30.4442 131.904 30.7859 131.904 31.157V31.5623H127.959V30.825H131.001V30.7567C130.988 30.5223 130.939 30.2944 130.854 30.0731C130.773 29.8517 130.643 29.6694 130.464 29.5262C130.285 29.383 130.041 29.3113 129.731 29.3113C129.526 29.3113 129.338 29.3553 129.165 29.4432C128.992 29.5278 128.844 29.6548 128.721 29.824C128.597 29.9933 128.501 30.2 128.433 30.4442C128.364 30.6883 128.33 30.9699 128.33 31.2889V31.494C128.33 31.7446 128.364 31.9806 128.433 32.202C128.504 32.4201 128.607 32.6121 128.74 32.7781C128.877 32.9442 129.041 33.0744 129.233 33.1688C129.429 33.2632 129.65 33.3104 129.897 33.3104C130.216 33.3104 130.487 33.2453 130.708 33.1151C130.929 32.9848 131.123 32.8107 131.289 32.5926L131.836 33.0272C131.722 33.1997 131.577 33.3641 131.401 33.5203C131.226 33.6766 131.009 33.8035 130.752 33.9012C130.498 33.9988 130.197 34.0477 129.849 34.0477ZM136.307 33.0467V30.327C136.307 30.1186 136.265 29.938 136.18 29.785C136.099 29.6287 135.975 29.5083 135.809 29.4236C135.643 29.339 135.438 29.2967 135.194 29.2967C134.966 29.2967 134.766 29.3358 134.593 29.4139C134.424 29.492 134.291 29.5945 134.193 29.7215C134.099 29.8484 134.051 29.9852 134.051 30.1317H133.148C133.148 29.9429 133.197 29.7557 133.295 29.5701C133.392 29.3846 133.532 29.2169 133.714 29.0672C133.9 28.9142 134.121 28.7938 134.379 28.7059C134.639 28.6147 134.929 28.5692 135.248 28.5692C135.632 28.5692 135.97 28.6343 136.263 28.7645C136.56 28.8947 136.791 29.0916 136.957 29.3553C137.126 29.6157 137.211 29.9429 137.211 30.3367V32.7977C137.211 32.9734 137.225 33.1606 137.255 33.3592C137.287 33.5578 137.334 33.7287 137.396 33.8719V33.95H136.454C136.408 33.8458 136.372 33.7075 136.346 33.535C136.32 33.3592 136.307 33.1964 136.307 33.0467ZM136.464 30.7469L136.473 31.3817H135.56C135.303 31.3817 135.074 31.4028 134.872 31.4451C134.67 31.4842 134.501 31.5444 134.364 31.6258C134.227 31.7072 134.123 31.8097 134.051 31.9334C133.98 32.0539 133.944 32.1955 133.944 32.3582C133.944 32.5242 133.981 32.6756 134.056 32.8123C134.131 32.949 134.243 33.0581 134.393 33.1395C134.546 33.2176 134.733 33.2567 134.955 33.2567C135.231 33.2567 135.476 33.1981 135.687 33.0809C135.899 32.9637 136.066 32.8205 136.19 32.6512C136.317 32.4819 136.385 32.3175 136.395 32.158L136.781 32.5926C136.758 32.7293 136.696 32.8807 136.595 33.0467C136.494 33.2127 136.359 33.3722 136.19 33.5252C136.024 33.6749 135.825 33.8003 135.594 33.9012C135.367 33.9988 135.109 34.0477 134.823 34.0477C134.465 34.0477 134.151 33.9777 133.881 33.8377C133.614 33.6977 133.405 33.5106 133.256 33.2762C133.109 33.0386 133.036 32.7733 133.036 32.4803C133.036 32.1971 133.091 31.9481 133.202 31.7332C133.312 31.5151 133.472 31.3345 133.68 31.1912C133.889 31.0447 134.139 30.9341 134.432 30.8592C134.725 30.7843 135.052 30.7469 135.414 30.7469H136.464ZM141.076 28.6668V29.3602H138.22V28.6668H141.076ZM139.187 27.3826H140.09V32.6414C140.09 32.8205 140.118 32.9555 140.173 33.0467C140.228 33.1378 140.3 33.1981 140.388 33.2274C140.476 33.2567 140.57 33.2713 140.671 33.2713C140.746 33.2713 140.824 33.2648 140.906 33.2518C140.99 33.2355 141.054 33.2225 141.096 33.2127L141.101 33.95C141.029 33.9728 140.935 33.994 140.818 34.0135C140.704 34.0363 140.565 34.0477 140.403 34.0477C140.181 34.0477 139.978 34.0037 139.792 33.9158C139.607 33.8279 139.459 33.6815 139.348 33.4764C139.241 33.268 139.187 32.9881 139.187 32.6365V27.3826ZM145.986 29.6824V35.9813H145.078V28.6668H145.908L145.986 29.6824ZM149.546 31.2645V31.367C149.546 31.7511 149.5 32.1076 149.409 32.4363C149.318 32.7619 149.184 33.0451 149.008 33.2859C148.836 33.5268 148.623 33.714 148.369 33.8475C148.115 33.9809 147.824 34.0477 147.495 34.0477C147.16 34.0477 146.863 33.9923 146.606 33.8817C146.349 33.771 146.131 33.6098 145.952 33.3983C145.773 33.1867 145.63 32.9328 145.522 32.6365C145.418 32.3403 145.346 32.0067 145.307 31.6356V31.0887C145.346 30.6981 145.42 30.3481 145.527 30.0389C145.634 29.7296 145.776 29.466 145.952 29.2479C146.131 29.0265 146.347 28.8589 146.601 28.7449C146.855 28.6277 147.148 28.5692 147.48 28.5692C147.812 28.5692 148.107 28.6343 148.364 28.7645C148.621 28.8914 148.838 29.0737 149.013 29.3113C149.189 29.549 149.321 29.8338 149.409 30.1658C149.5 30.4946 149.546 30.8608 149.546 31.2645ZM148.637 31.367V31.2645C148.637 31.0008 148.61 30.7534 148.554 30.5223C148.499 30.2879 148.413 30.0828 148.296 29.907C148.182 29.728 148.035 29.588 147.856 29.4871C147.677 29.383 147.464 29.3309 147.216 29.3309C146.989 29.3309 146.79 29.3699 146.621 29.4481C146.455 29.5262 146.313 29.632 146.196 29.7654C146.079 29.8957 145.983 30.0454 145.908 30.2147C145.836 30.3807 145.783 30.5532 145.747 30.7322V31.9969C145.812 32.2248 145.903 32.4396 146.02 32.6414C146.137 32.84 146.294 33.0011 146.489 33.1248C146.684 33.2453 146.93 33.3055 147.226 33.3055C147.47 33.3055 147.68 33.255 147.856 33.1541C148.035 33.0499 148.182 32.9083 148.296 32.7293C148.413 32.5503 148.499 32.3452 148.554 32.1141C148.61 31.8797 148.637 31.6307 148.637 31.367ZM154.163 32.7293V28.6668H155.072V33.95H154.207L154.163 32.7293ZM154.334 31.616L154.71 31.6063C154.71 31.9578 154.673 32.2833 154.598 32.5828C154.526 32.879 154.409 33.1362 154.246 33.3543C154.084 33.5724 153.87 33.7433 153.607 33.867C153.343 33.9874 153.022 34.0477 152.645 34.0477C152.388 34.0477 152.152 34.0102 151.937 33.9354C151.725 33.8605 151.543 33.7449 151.39 33.5887C151.237 33.4324 151.118 33.229 151.034 32.9783C150.952 32.7277 150.911 32.4266 150.911 32.075V28.6668H151.815V32.0848C151.815 32.3224 151.841 32.5193 151.893 32.6756C151.948 32.8286 152.022 32.9507 152.113 33.0418C152.207 33.1297 152.311 33.1915 152.425 33.2274C152.542 33.2632 152.663 33.2811 152.786 33.2811C153.171 33.2811 153.475 33.2078 153.7 33.0613C153.924 32.9116 154.085 32.7114 154.183 32.4608C154.284 32.2068 154.334 31.9253 154.334 31.616ZM157.58 29.7166V33.95H156.672V28.6668H157.531L157.58 29.7166ZM157.395 31.1082L156.975 31.0936C156.978 30.7322 157.025 30.3986 157.116 30.0926C157.207 29.7833 157.343 29.5148 157.522 29.2869C157.701 29.0591 157.924 28.8833 158.19 28.7596C158.457 28.6326 158.767 28.5692 159.118 28.5692C159.366 28.5692 159.593 28.605 159.802 28.6766C160.01 28.7449 160.191 28.854 160.344 29.0037C160.497 29.1535 160.616 29.3455 160.7 29.5799C160.785 29.8143 160.827 30.0975 160.827 30.4295V33.95H159.924V30.4734C159.924 30.1968 159.877 29.9754 159.782 29.8094C159.691 29.6434 159.561 29.5229 159.392 29.4481C159.222 29.3699 159.024 29.3309 158.796 29.3309C158.529 29.3309 158.306 29.3781 158.127 29.4725C157.948 29.5669 157.805 29.6971 157.697 29.8631C157.59 30.0291 157.512 30.2195 157.463 30.4344C157.417 30.646 157.395 30.8706 157.395 31.1082ZM160.817 30.6102L160.212 30.7957C160.215 30.506 160.262 30.2277 160.354 29.9608C160.448 29.6938 160.583 29.4562 160.759 29.2479C160.938 29.0395 161.158 28.8751 161.418 28.7547C161.678 28.631 161.976 28.5692 162.312 28.5692C162.595 28.5692 162.845 28.6066 163.064 28.6815C163.285 28.7563 163.47 28.8719 163.62 29.0281C163.773 29.1811 163.889 29.3781 163.967 29.619C164.045 29.8598 164.084 30.1463 164.084 30.4783V33.95H163.176V30.4686C163.176 30.1723 163.129 29.9429 163.034 29.7801C162.943 29.6141 162.813 29.4985 162.644 29.4334C162.478 29.3651 162.279 29.3309 162.048 29.3309C161.849 29.3309 161.674 29.3651 161.521 29.4334C161.368 29.5018 161.239 29.5962 161.135 29.7166C161.031 29.8338 160.951 29.9689 160.896 30.1219C160.843 30.2749 160.817 30.4376 160.817 30.6102ZM166.588 29.6824V35.9813H165.679V28.6668H166.51L166.588 29.6824ZM170.147 31.2645V31.367C170.147 31.7511 170.102 32.1076 170.01 32.4363C169.919 32.7619 169.786 33.0451 169.61 33.2859C169.438 33.5268 169.224 33.714 168.97 33.8475C168.717 33.9809 168.425 34.0477 168.096 34.0477C167.761 34.0477 167.465 33.9923 167.208 33.8817C166.951 33.771 166.732 33.6098 166.553 33.3983C166.374 33.1867 166.231 32.9328 166.124 32.6365C166.02 32.3403 165.948 32.0067 165.909 31.6356V31.0887C165.948 30.6981 166.021 30.3481 166.129 30.0389C166.236 29.7296 166.378 29.466 166.553 29.2479C166.732 29.0265 166.949 28.8589 167.203 28.7449C167.457 28.6277 167.75 28.5692 168.082 28.5692C168.414 28.5692 168.708 28.6343 168.966 28.7645C169.223 28.8914 169.439 29.0737 169.615 29.3113C169.791 29.549 169.923 29.8338 170.01 30.1658C170.102 30.4946 170.147 30.8608 170.147 31.2645ZM169.239 31.367V31.2645C169.239 31.0008 169.211 30.7534 169.156 30.5223C169.101 30.2879 169.014 30.0828 168.897 29.907C168.783 29.728 168.637 29.588 168.458 29.4871C168.279 29.383 168.065 29.3309 167.818 29.3309C167.59 29.3309 167.392 29.3699 167.222 29.4481C167.056 29.5262 166.915 29.632 166.798 29.7654C166.68 29.8957 166.584 30.0454 166.51 30.2147C166.438 30.3807 166.384 30.5532 166.348 30.7322V31.9969C166.413 32.2248 166.505 32.4396 166.622 32.6414C166.739 32.84 166.895 33.0011 167.091 33.1248C167.286 33.2453 167.532 33.3055 167.828 33.3055C168.072 33.3055 168.282 33.255 168.458 33.1541C168.637 33.0499 168.783 32.9083 168.897 32.7293C169.014 32.5503 169.101 32.3452 169.156 32.1141C169.211 31.8797 169.239 31.6307 169.239 31.367Z" fill="black" fill-opacity="0.87"/>
    <g filter="url(#filter0_d_3_27451)">
        <rect x="110.295" y="40" width="31.2975" height="14.445" rx="1.969" fill="#999999"/>
        <path d="M126.012 46.6525V46.9202C126.012 47.2883 125.964 47.6184 125.869 47.9107C125.773 48.2029 125.635 48.4517 125.457 48.6569C125.281 48.8622 125.069 49.0195 124.821 49.1288C124.573 49.2359 124.299 49.2894 123.998 49.2894C123.699 49.2894 123.426 49.2359 123.178 49.1288C122.933 49.0195 122.72 48.8622 122.539 48.6569C122.358 48.4517 122.218 48.2029 122.117 47.9107C122.019 47.6184 121.97 47.2883 121.97 46.9202V46.6525C121.97 46.2844 122.019 45.9553 122.117 45.6653C122.215 45.373 122.354 45.1243 122.532 44.919C122.713 44.7116 122.926 44.5543 123.171 44.4472C123.419 44.3379 123.692 44.2832 123.991 44.2832C124.292 44.2832 124.567 44.3379 124.814 44.4472C125.062 44.5543 125.275 44.7116 125.454 44.919C125.632 45.1243 125.769 45.373 125.865 45.6653C125.963 45.9553 126.012 46.2844 126.012 46.6525ZM125.172 46.9202V46.6458C125.172 46.3736 125.146 46.1338 125.092 45.9263C125.041 45.7166 124.964 45.5415 124.861 45.4009C124.761 45.2581 124.637 45.1511 124.49 45.0797C124.343 45.006 124.176 44.9692 123.991 44.9692C123.806 44.9692 123.641 45.006 123.496 45.0797C123.351 45.1511 123.227 45.2581 123.124 45.4009C123.024 45.5415 122.947 45.7166 122.894 45.9263C122.84 46.1338 122.813 46.3736 122.813 46.6458V46.9202C122.813 47.1923 122.84 47.4333 122.894 47.643C122.947 47.8527 123.025 48.0301 123.128 48.1751C123.233 48.3178 123.358 48.426 123.503 48.4997C123.648 48.571 123.813 48.6067 123.998 48.6067C124.185 48.6067 124.351 48.571 124.497 48.4997C124.642 48.426 124.764 48.3178 124.865 48.1751C124.965 48.0301 125.041 47.8527 125.092 47.643C125.146 47.4333 125.172 47.1923 125.172 46.9202ZM127.655 46.3747V49.2225H126.849V45.6017H127.608L127.655 46.3747ZM127.511 47.2782L127.25 47.2749C127.252 47.0183 127.288 46.783 127.357 46.5688C127.429 46.3546 127.527 46.1706 127.652 46.0167C127.779 45.8627 127.931 45.7445 128.107 45.6619C128.283 45.5772 128.479 45.5348 128.696 45.5348C128.87 45.5348 129.027 45.5593 129.168 45.6084C129.31 45.6552 129.432 45.7322 129.532 45.8393C129.635 45.9464 129.713 46.0858 129.767 46.2576C129.82 46.4271 129.847 46.6357 129.847 46.8834V49.2225H129.037V46.88C129.037 46.706 129.011 46.5688 128.96 46.4684C128.911 46.3658 128.839 46.2933 128.743 46.2509C128.649 46.2063 128.532 46.184 128.391 46.184C128.253 46.184 128.129 46.213 128.02 46.271C127.911 46.329 127.818 46.4082 127.742 46.5086C127.668 46.609 127.612 46.725 127.571 46.8566C127.531 46.9882 127.511 47.1288 127.511 47.2782Z" fill="black" fill-opacity="0.87"/>
    </g>
    <g filter="url(#filter1_d_3_27451)">
        <path d="M148.376 40.2002H175.736C176.712 40.2002 177.504 40.9922 177.504 41.9688V52.4756C177.504 53.4522 176.712 54.2441 175.736 54.2441H148.376C147.4 54.244 146.608 53.4521 146.608 52.4756V41.9688C146.608 40.9923 147.4 40.2003 148.376 40.2002Z" stroke="black" stroke-opacity="0.38" stroke-width="0.40125" shape-rendering="crispEdges"/>
        <path d="M161.568 46.6525V46.9202C161.568 47.2883 161.52 47.6184 161.424 47.9107C161.328 48.2029 161.191 48.4517 161.012 48.6569C160.836 48.8622 160.624 49.0195 160.377 49.1288C160.129 49.2359 159.855 49.2894 159.553 49.2894C159.255 49.2894 158.981 49.2359 158.734 49.1288C158.488 49.0195 158.275 48.8622 158.094 48.6569C157.914 48.4517 157.773 48.2029 157.673 47.9107C157.575 47.6184 157.526 47.2883 157.526 46.9202V46.6525C157.526 46.2844 157.575 45.9553 157.673 45.6653C157.771 45.373 157.909 45.1243 158.088 44.919C158.268 44.7116 158.482 44.5543 158.727 44.4472C158.975 44.3379 159.248 44.2832 159.547 44.2832C159.848 44.2832 160.122 44.3379 160.37 44.4472C160.618 44.5543 160.831 44.7116 161.009 44.919C161.188 45.1243 161.325 45.373 161.421 45.6653C161.519 45.9553 161.568 46.2844 161.568 46.6525ZM160.728 46.9202V46.6458C160.728 46.3736 160.701 46.1338 160.648 45.9263C160.596 45.7166 160.519 45.5415 160.417 45.4009C160.316 45.2581 160.193 45.1511 160.045 45.0797C159.898 45.006 159.732 44.9692 159.547 44.9692C159.362 44.9692 159.197 45.006 159.052 45.0797C158.907 45.1511 158.783 45.2581 158.68 45.4009C158.58 45.5415 158.503 45.7166 158.449 45.9263C158.396 46.1338 158.369 46.3736 158.369 46.6458V46.9202C158.369 47.1923 158.396 47.4333 158.449 47.643C158.503 47.8527 158.581 48.0301 158.683 48.1751C158.788 48.3178 158.913 48.426 159.058 48.4997C159.203 48.571 159.368 48.6067 159.553 48.6067C159.741 48.6067 159.907 48.571 160.052 48.4997C160.197 48.426 160.32 48.3178 160.42 48.1751C160.521 48.0301 160.596 47.8527 160.648 47.643C160.701 47.4333 160.728 47.1923 160.728 46.9202ZM163.502 49.2225H162.695V45.2537C162.695 44.9837 162.746 44.7573 162.846 44.5744C162.949 44.3892 163.095 44.2498 163.284 44.1561C163.474 44.0601 163.698 44.0122 163.957 44.0122C164.037 44.0122 164.116 44.0178 164.194 44.0289C164.273 44.0378 164.348 44.0523 164.422 44.0724L164.402 44.6948C164.357 44.6837 164.308 44.6759 164.255 44.6714C164.203 44.667 164.148 44.6647 164.087 44.6647C163.965 44.6647 163.859 44.6881 163.769 44.735C163.682 44.7796 163.616 44.8454 163.569 44.9324C163.524 45.0194 163.502 45.1265 163.502 45.2537V49.2225ZM164.248 45.6017V46.1907H162.14V45.6017H164.248ZM166.008 49.2225H165.201V45.2537C165.201 44.9837 165.252 44.7573 165.352 44.5744C165.455 44.3892 165.601 44.2498 165.79 44.1561C165.98 44.0601 166.204 44.0122 166.463 44.0122C166.543 44.0122 166.622 44.0178 166.701 44.0289C166.779 44.0378 166.854 44.0523 166.928 44.0724L166.908 44.6948C166.863 44.6837 166.814 44.6759 166.761 44.6714C166.709 44.667 166.654 44.6647 166.593 44.6647C166.471 44.6647 166.365 44.6881 166.276 44.735C166.189 44.7796 166.122 44.8454 166.075 44.9324C166.03 45.0194 166.008 45.1265 166.008 45.2537V49.2225ZM166.754 45.6017V46.1907H164.646V45.6017H166.754Z" fill="black" fill-opacity="0.76"/>
    </g>
    <path d="M132 100.582L135.48 107.542H128.52L132 100.582Z" fill="#1A1A1A"/>
    <path d="M132 116.062V92.0625" stroke="#1A1A1A" stroke-width="0.72"/>
    <path d="M159.48 80.0625L152.52 83.5425V76.5825L159.48 80.0625Z" fill="#1A1A1A"/>
    <path d="M144 80.0625H168" stroke="#1A1A1A" stroke-width="0.72"/>
    <path d="M108 107.543L104.52 100.583H111.48L108 107.543Z" fill="#1A1A1A"/>
    <path d="M108 92.0625V116.062" stroke="#1A1A1A" stroke-width="0.72"/>
    <path d="M156 130.543L152.52 123.583H159.48L156 130.543Z" fill="#1A1A1A"/>
    <path d="M156 115.062V139.062" stroke="#1A1A1A" stroke-width="0.72"/>
    <g clip-path="url(#clip0_3_27451)">
        <path d="M180 92.0625V83.7825C180 81.728 178.334 80.0625 176.28 80.0625H168" stroke="#1A1A1A" stroke-width="0.72"/>
    </g>
    <g clip-path="url(#clip1_3_27451)">
        <path d="M108 116.062V124.342C108 126.397 109.666 128.062 111.72 128.062H120" stroke="#1A1A1A" stroke-width="0.72"/>
    </g>
    <g clip-path="url(#clip2_3_27451)">
        <path d="M168 104.062H176.28C178.334 104.062 180 102.397 180 100.342V92.0625" stroke="#1A1A1A" stroke-width="0.72"/>
    </g>
    <g clip-path="url(#clip3_3_27451)">
        <path d="M120 128.062H128.28C130.334 128.062 132 126.397 132 124.342V116.063" stroke="#1A1A1A" stroke-width="0.72"/>
    </g>
    <g clip-path="url(#clip4_3_27451)">
        <path d="M168 104.062H159.72C157.666 104.062 156 105.728 156 107.783V116.062" stroke="#1A1A1A" stroke-width="0.72"/>
    </g>
    <g clip-path="url(#clip5_3_27451)">
        <path d="M144 80.0625H135.72C133.666 80.0625 132 81.728 132 83.7825V92.0625" stroke="#1A1A1A" stroke-width="0.72"/>
    </g>
    <defs>
        <filter id="filter0_d_3_27451" x="102.419" y="36.062" width="47.0496" height="30.197" filterUnits="userSpaceOnUse" color-interpolation-filters="sRGB">
            <feFlood flood-opacity="0" result="BackgroundImageFix"/>
            <feColorMatrix in="SourceAlpha" type="matrix" values="0 0 0 0 0 0 0 0 0 0 0 0 0 0 0 0 0 0 127 0" result="hardAlpha"/>
            <feOffset dy="3.938"/>
            <feGaussianBlur stdDeviation="3.938"/>
            <feComposite in2="hardAlpha" operator="out"/>
            <feColorMatrix type="matrix" values="0 0 0 0 0 0 0 0 0 0 0 0 0 0 0 0 0 0 0.04 0"/>
            <feBlend mode="normal" in2="BackgroundImageFix" result="effect1_dropShadow_3_27451"/>
            <feBlend mode="normal" in="SourceGraphic" in2="effect1_dropShadow_3_27451" result="shape"/>
        </filter>
        <filter id="filter1_d_3_27451" x="138.531" y="36.062" width="47.0496" height="30.197" filterUnits="userSpaceOnUse" color-interpolation-filters="sRGB">
            <feFlood flood-opacity="0" result="BackgroundImageFix"/>
            <feColorMatrix in="SourceAlpha" type="matrix" values="0 0 0 0 0 0 0 0 0 0 0 0 0 0 0 0 0 0 127 0" result="hardAlpha"/>
            <feOffset dy="3.938"/>
            <feGaussianBlur stdDeviation="3.938"/>
            <feComposite in2="hardAlpha" operator="out"/>
            <feColorMatrix type="matrix" values="0 0 0 0 0 0 0 0 0 0 0 0 0 0 0 0 0 0 0.04 0"/>
            <feBlend mode="normal" in2="BackgroundImageFix" result="effect1_dropShadow_3_27451"/>
            <feBlend mode="normal" in="SourceGraphic" in2="effect1_dropShadow_3_27451" result="shape"/>
        </filter>
        <clipPath id="clip0_3_27451">
            <rect width="24" height="24" fill="white" transform="translate(168 68.0625)"/>
        </clipPath>
        <clipPath id="clip1_3_27451">
            <rect width="24" height="24" fill="white" transform="matrix(-1 0 0 -1 120 140.062)"/>
        </clipPath>
        <clipPath id="clip2_3_27451">
            <rect width="24" height="24" fill="white" transform="matrix(0 1 -1 0 192 92.0625)"/>
        </clipPath>
        <clipPath id="clip3_3_27451">
            <rect width="24" height="24" fill="white" transform="matrix(0 1 -1 0 144 116.062)"/>
        </clipPath>
        <clipPath id="clip4_3_27451">
            <rect width="24" height="24" fill="white" transform="matrix(0 -1 1 0 144 116.062)"/>
        </clipPath>
        <clipPath id="clip5_3_27451">
            <rect width="24" height="24" fill="white" transform="matrix(0 -1 1 0 120 92.0625)"/>
        </clipPath>
    </defs>
</svg>
