<svg width="200" height="160" viewBox="0 0 200 160" fill="none" xmlns="http://www.w3.org/2000/svg">
<g clip-path="url(#clip0_18332_14138)">
<rect width="200" height="78" rx="4" fill="white"/>
<rect x="0.5" y="0.5" width="199" height="77" rx="3.5" stroke="black" stroke-opacity="0.12"/>
<rect y="82" width="200" height="78" rx="4" fill="white"/>
<rect x="0.5" y="82.5" width="199" height="77" rx="3.5" stroke="black" stroke-opacity="0.12"/>
<rect x="50" y="15" width="100" height="48" fill="#B71C1C"/>
<rect x="50" y="97" width="100" height="48" fill="#B71C1C"/>
<path d="M15.2949 51.752V54.875C15.1895 55.0312 15.0215 55.207 14.791 55.4023C14.5605 55.5938 14.2422 55.7617 13.8359 55.9062C13.4336 56.0469 12.9141 56.1172 12.2773 56.1172C11.7578 56.1172 11.2793 56.0273 10.8418 55.8477C10.4082 55.6641 10.0312 55.3984 9.71094 55.0508C9.39453 54.6992 9.14844 54.2734 8.97266 53.7734C8.80078 53.2695 8.71484 52.6992 8.71484 52.0625V51.4004C8.71484 50.7637 8.78906 50.1953 8.9375 49.6953C9.08984 49.1953 9.3125 48.7715 9.60547 48.4238C9.89844 48.0723 10.2578 47.8066 10.6836 47.627C11.1094 47.4434 11.5977 47.3516 12.1484 47.3516C12.8008 47.3516 13.3457 47.4648 13.7832 47.6914C14.2246 47.9141 14.5684 48.2227 14.8145 48.6172C15.0645 49.0117 15.2246 49.4609 15.2949 49.9648H14.1641C14.1133 49.6562 14.0117 49.375 13.8594 49.1211C13.7109 48.8672 13.498 48.6641 13.2207 48.5117C12.9434 48.3555 12.5859 48.2773 12.1484 48.2773C11.7539 48.2773 11.4121 48.3496 11.123 48.4941C10.834 48.6387 10.5957 48.8457 10.4082 49.1152C10.2207 49.3848 10.0801 49.7109 9.98633 50.0938C9.89648 50.4766 9.85156 50.9082 9.85156 51.3887V52.0625C9.85156 52.5547 9.9082 52.9941 10.0215 53.3809C10.1387 53.7676 10.3047 54.0977 10.5195 54.3711C10.7344 54.6406 10.9902 54.8457 11.2871 54.9863C11.5879 55.127 11.9199 55.1973 12.2832 55.1973C12.6855 55.1973 13.0117 55.1641 13.2617 55.0977C13.5117 55.0273 13.707 54.9453 13.8477 54.8516C13.9883 54.7539 14.0957 54.6621 14.1699 54.5762V52.666H12.1953V51.752H15.2949ZM20.4414 52.6543H18.1621V51.7344H20.4414C20.8828 51.7344 21.2402 51.6641 21.5137 51.5234C21.7871 51.3828 21.9863 51.1875 22.1113 50.9375C22.2402 50.6875 22.3047 50.4023 22.3047 50.082C22.3047 49.7891 22.2402 49.5137 22.1113 49.2559C21.9863 48.998 21.7871 48.791 21.5137 48.6348C21.2402 48.4746 20.8828 48.3945 20.4414 48.3945H18.4258V56H17.2949V47.4688H20.4414C21.0859 47.4688 21.6309 47.5801 22.0762 47.8027C22.5215 48.0254 22.8594 48.334 23.0898 48.7285C23.3203 49.1191 23.4355 49.5664 23.4355 50.0703C23.4355 50.6172 23.3203 51.084 23.0898 51.4707C22.8594 51.8574 22.5215 52.1523 22.0762 52.3555C21.6309 52.5547 21.0859 52.6543 20.4414 52.6543ZM26.2031 47.4688V56H25.0723V47.4688H26.2031ZM34.9531 51.4648V52.0039C34.9531 52.6445 34.873 53.2188 34.7129 53.7266C34.5527 54.2344 34.3223 54.666 34.0215 55.0215C33.7207 55.377 33.3594 55.6484 32.9375 55.8359C32.5195 56.0234 32.0508 56.1172 31.5312 56.1172C31.0273 56.1172 30.5645 56.0234 30.1426 55.8359C29.7246 55.6484 29.3613 55.377 29.0527 55.0215C28.748 54.666 28.5117 54.2344 28.3438 53.7266C28.1758 53.2188 28.0918 52.6445 28.0918 52.0039V51.4648C28.0918 50.8242 28.1738 50.252 28.3379 49.748C28.5059 49.2402 28.7422 48.8086 29.0469 48.4531C29.3516 48.0938 29.7129 47.8203 30.1309 47.6328C30.5527 47.4453 31.0156 47.3516 31.5195 47.3516C32.0391 47.3516 32.5078 47.4453 32.9258 47.6328C33.3477 47.8203 33.709 48.0938 34.0098 48.4531C34.3145 48.8086 34.5469 49.2402 34.707 49.748C34.8711 50.252 34.9531 50.8242 34.9531 51.4648ZM33.834 52.0039V51.4531C33.834 50.9453 33.7812 50.4961 33.6758 50.1055C33.5742 49.7148 33.4238 49.3867 33.2246 49.1211C33.0254 48.8555 32.7812 48.6543 32.4922 48.5176C32.207 48.3809 31.8828 48.3125 31.5195 48.3125C31.168 48.3125 30.8496 48.3809 30.5645 48.5176C30.2832 48.6543 30.041 48.8555 29.8379 49.1211C29.6387 49.3867 29.4844 49.7148 29.375 50.1055C29.2656 50.4961 29.2109 50.9453 29.2109 51.4531V52.0039C29.2109 52.5156 29.2656 52.9688 29.375 53.3633C29.4844 53.7539 29.6406 54.084 29.8438 54.3535C30.0508 54.6191 30.2949 54.8203 30.5762 54.957C30.8613 55.0938 31.1797 55.1621 31.5312 55.1621C31.8984 55.1621 32.2246 55.0938 32.5098 54.957C32.7949 54.8203 33.0352 54.6191 33.2305 54.3535C33.4297 54.084 33.5801 53.7539 33.6816 53.3633C33.7832 52.9688 33.834 52.5156 33.834 52.0039ZM41.1738 51.2012H41.9473C42.3262 51.2012 42.6387 51.1387 42.8848 51.0137C43.1348 50.8848 43.3203 50.7109 43.4414 50.4922C43.5664 50.2695 43.6289 50.0195 43.6289 49.7422C43.6289 49.4141 43.5742 49.1387 43.4648 48.916C43.3555 48.6934 43.1914 48.5254 42.9727 48.4121C42.7539 48.2988 42.4766 48.2422 42.1406 48.2422C41.8359 48.2422 41.5664 48.3027 41.332 48.4238C41.1016 48.541 40.9199 48.709 40.7871 48.9277C40.6582 49.1465 40.5938 49.4043 40.5938 49.7012H39.5098C39.5098 49.2676 39.6191 48.873 39.8379 48.5176C40.0566 48.1621 40.3633 47.8789 40.7578 47.668C41.1562 47.457 41.6172 47.3516 42.1406 47.3516C42.6562 47.3516 43.1074 47.4434 43.4941 47.627C43.8809 47.8066 44.1816 48.0762 44.3965 48.4355C44.6113 48.791 44.7188 49.2344 44.7188 49.7656C44.7188 49.9805 44.668 50.2109 44.5664 50.457C44.4688 50.6992 44.3145 50.9258 44.1035 51.1367C43.8965 51.3477 43.627 51.5215 43.2949 51.6582C42.9629 51.791 42.5645 51.8574 42.0996 51.8574H41.1738V51.2012ZM41.1738 52.0918V51.4414H42.0996C42.6426 51.4414 43.0918 51.5059 43.4473 51.6348C43.8027 51.7637 44.082 51.9355 44.2852 52.1504C44.4922 52.3652 44.6367 52.6016 44.7188 52.8594C44.8047 53.1133 44.8477 53.3672 44.8477 53.6211C44.8477 54.0195 44.7793 54.373 44.6426 54.6816C44.5098 54.9902 44.3203 55.252 44.0742 55.4668C43.832 55.6816 43.5469 55.8438 43.2188 55.9531C42.8906 56.0625 42.5332 56.1172 42.1465 56.1172C41.7754 56.1172 41.4258 56.0645 41.0977 55.959C40.7734 55.8535 40.4863 55.7012 40.2363 55.502C39.9863 55.2988 39.791 55.0508 39.6504 54.7578C39.5098 54.4609 39.4395 54.123 39.4395 53.7441H40.5234C40.5234 54.041 40.5879 54.3008 40.7168 54.5234C40.8496 54.7461 41.0371 54.9199 41.2793 55.0449C41.5254 55.166 41.8145 55.2266 42.1465 55.2266C42.4785 55.2266 42.7637 55.1699 43.002 55.0566C43.2441 54.9395 43.4297 54.7637 43.5586 54.5293C43.6914 54.2949 43.7578 54 43.7578 53.6445C43.7578 53.2891 43.6836 52.998 43.5352 52.7715C43.3867 52.541 43.1758 52.3711 42.9023 52.2617C42.6328 52.1484 42.3145 52.0918 41.9473 52.0918H41.1738Z" fill="black" fill-opacity="0.76"/>
<path d="M15.2949 133.752V136.875C15.1895 137.031 15.0215 137.207 14.791 137.402C14.5605 137.594 14.2422 137.762 13.8359 137.906C13.4336 138.047 12.9141 138.117 12.2773 138.117C11.7578 138.117 11.2793 138.027 10.8418 137.848C10.4082 137.664 10.0312 137.398 9.71094 137.051C9.39453 136.699 9.14844 136.273 8.97266 135.773C8.80078 135.27 8.71484 134.699 8.71484 134.062V133.4C8.71484 132.764 8.78906 132.195 8.9375 131.695C9.08984 131.195 9.3125 130.771 9.60547 130.424C9.89844 130.072 10.2578 129.807 10.6836 129.627C11.1094 129.443 11.5977 129.352 12.1484 129.352C12.8008 129.352 13.3457 129.465 13.7832 129.691C14.2246 129.914 14.5684 130.223 14.8145 130.617C15.0645 131.012 15.2246 131.461 15.2949 131.965H14.1641C14.1133 131.656 14.0117 131.375 13.8594 131.121C13.7109 130.867 13.498 130.664 13.2207 130.512C12.9434 130.355 12.5859 130.277 12.1484 130.277C11.7539 130.277 11.4121 130.35 11.123 130.494C10.834 130.639 10.5957 130.846 10.4082 131.115C10.2207 131.385 10.0801 131.711 9.98633 132.094C9.89648 132.477 9.85156 132.908 9.85156 133.389V134.062C9.85156 134.555 9.9082 134.994 10.0215 135.381C10.1387 135.768 10.3047 136.098 10.5195 136.371C10.7344 136.641 10.9902 136.846 11.2871 136.986C11.5879 137.127 11.9199 137.197 12.2832 137.197C12.6855 137.197 13.0117 137.164 13.2617 137.098C13.5117 137.027 13.707 136.945 13.8477 136.852C13.9883 136.754 14.0957 136.662 14.1699 136.576V134.666H12.1953V133.752H15.2949ZM20.4414 134.654H18.1621V133.734H20.4414C20.8828 133.734 21.2402 133.664 21.5137 133.523C21.7871 133.383 21.9863 133.188 22.1113 132.938C22.2402 132.688 22.3047 132.402 22.3047 132.082C22.3047 131.789 22.2402 131.514 22.1113 131.256C21.9863 130.998 21.7871 130.791 21.5137 130.635C21.2402 130.475 20.8828 130.395 20.4414 130.395H18.4258V138H17.2949V129.469H20.4414C21.0859 129.469 21.6309 129.58 22.0762 129.803C22.5215 130.025 22.8594 130.334 23.0898 130.729C23.3203 131.119 23.4355 131.566 23.4355 132.07C23.4355 132.617 23.3203 133.084 23.0898 133.471C22.8594 133.857 22.5215 134.152 22.0762 134.355C21.6309 134.555 21.0859 134.654 20.4414 134.654ZM26.2031 129.469V138H25.0723V129.469H26.2031ZM34.9531 133.465V134.004C34.9531 134.645 34.873 135.219 34.7129 135.727C34.5527 136.234 34.3223 136.666 34.0215 137.021C33.7207 137.377 33.3594 137.648 32.9375 137.836C32.5195 138.023 32.0508 138.117 31.5312 138.117C31.0273 138.117 30.5645 138.023 30.1426 137.836C29.7246 137.648 29.3613 137.377 29.0527 137.021C28.748 136.666 28.5117 136.234 28.3438 135.727C28.1758 135.219 28.0918 134.645 28.0918 134.004V133.465C28.0918 132.824 28.1738 132.252 28.3379 131.748C28.5059 131.24 28.7422 130.809 29.0469 130.453C29.3516 130.094 29.7129 129.82 30.1309 129.633C30.5527 129.445 31.0156 129.352 31.5195 129.352C32.0391 129.352 32.5078 129.445 32.9258 129.633C33.3477 129.82 33.709 130.094 34.0098 130.453C34.3145 130.809 34.5469 131.24 34.707 131.748C34.8711 132.252 34.9531 132.824 34.9531 133.465ZM33.834 134.004V133.453C33.834 132.945 33.7812 132.496 33.6758 132.105C33.5742 131.715 33.4238 131.387 33.2246 131.121C33.0254 130.855 32.7812 130.654 32.4922 130.518C32.207 130.381 31.8828 130.312 31.5195 130.312C31.168 130.312 30.8496 130.381 30.5645 130.518C30.2832 130.654 30.041 130.855 29.8379 131.121C29.6387 131.387 29.4844 131.715 29.375 132.105C29.2656 132.496 29.2109 132.945 29.2109 133.453V134.004C29.2109 134.516 29.2656 134.969 29.375 135.363C29.4844 135.754 29.6406 136.084 29.8438 136.354C30.0508 136.619 30.2949 136.82 30.5762 136.957C30.8613 137.094 31.1797 137.162 31.5312 137.162C31.8984 137.162 32.2246 137.094 32.5098 136.957C32.7949 136.82 33.0352 136.619 33.2305 136.354C33.4297 136.084 33.5801 135.754 33.6816 135.363C33.7832 134.969 33.834 134.516 33.834 134.004ZM41.1738 133.201H41.9473C42.3262 133.201 42.6387 133.139 42.8848 133.014C43.1348 132.885 43.3203 132.711 43.4414 132.492C43.5664 132.27 43.6289 132.02 43.6289 131.742C43.6289 131.414 43.5742 131.139 43.4648 130.916C43.3555 130.693 43.1914 130.525 42.9727 130.412C42.7539 130.299 42.4766 130.242 42.1406 130.242C41.8359 130.242 41.5664 130.303 41.332 130.424C41.1016 130.541 40.9199 130.709 40.7871 130.928C40.6582 131.146 40.5938 131.404 40.5938 131.701H39.5098C39.5098 131.268 39.6191 130.873 39.8379 130.518C40.0566 130.162 40.3633 129.879 40.7578 129.668C41.1562 129.457 41.6172 129.352 42.1406 129.352C42.6562 129.352 43.1074 129.443 43.4941 129.627C43.8809 129.807 44.1816 130.076 44.3965 130.436C44.6113 130.791 44.7188 131.234 44.7188 131.766C44.7188 131.98 44.668 132.211 44.5664 132.457C44.4688 132.699 44.3145 132.926 44.1035 133.137C43.8965 133.348 43.627 133.521 43.2949 133.658C42.9629 133.791 42.5645 133.857 42.0996 133.857H41.1738V133.201ZM41.1738 134.092V133.441H42.0996C42.6426 133.441 43.0918 133.506 43.4473 133.635C43.8027 133.764 44.082 133.936 44.2852 134.15C44.4922 134.365 44.6367 134.602 44.7188 134.859C44.8047 135.113 44.8477 135.367 44.8477 135.621C44.8477 136.02 44.7793 136.373 44.6426 136.682C44.5098 136.99 44.3203 137.252 44.0742 137.467C43.832 137.682 43.5469 137.844 43.2188 137.953C42.8906 138.062 42.5332 138.117 42.1465 138.117C41.7754 138.117 41.4258 138.064 41.0977 137.959C40.7734 137.854 40.4863 137.701 40.2363 137.502C39.9863 137.299 39.791 137.051 39.6504 136.758C39.5098 136.461 39.4395 136.123 39.4395 135.744H40.5234C40.5234 136.041 40.5879 136.301 40.7168 136.523C40.8496 136.746 41.0371 136.92 41.2793 137.045C41.5254 137.166 41.8145 137.227 42.1465 137.227C42.4785 137.227 42.7637 137.17 43.002 137.057C43.2441 136.939 43.4297 136.764 43.5586 136.529C43.6914 136.295 43.7578 136 43.7578 135.645C43.7578 135.289 43.6836 134.998 43.5352 134.771C43.3867 134.541 43.1758 134.371 42.9023 134.262C42.6328 134.148 42.3145 134.092 41.9473 134.092H41.1738Z" fill="black" fill-opacity="0.76"/>
<path d="M60.0967 51.001H60.7412C61.057 51.001 61.3174 50.9489 61.5225 50.8447C61.7308 50.7373 61.8854 50.5924 61.9863 50.4102C62.0905 50.2246 62.1426 50.0163 62.1426 49.7852C62.1426 49.5117 62.097 49.2822 62.0059 49.0967C61.9147 48.9111 61.778 48.7712 61.5957 48.6768C61.4134 48.5824 61.1823 48.5352 60.9023 48.5352C60.6484 48.5352 60.4238 48.5856 60.2285 48.6865C60.0365 48.7842 59.8851 48.9242 59.7744 49.1064C59.667 49.2887 59.6133 49.5036 59.6133 49.751H58.71C58.71 49.3896 58.8011 49.0609 58.9834 48.7646C59.1657 48.4684 59.4212 48.2324 59.75 48.0566C60.082 47.8809 60.4661 47.793 60.9023 47.793C61.332 47.793 61.708 47.8695 62.0303 48.0225C62.3525 48.1722 62.6032 48.3968 62.7822 48.6963C62.9613 48.9925 63.0508 49.362 63.0508 49.8047C63.0508 49.9837 63.0085 50.1758 62.9238 50.3809C62.8424 50.5827 62.7139 50.7715 62.5381 50.9473C62.3656 51.123 62.141 51.2679 61.8643 51.3818C61.5876 51.4925 61.2555 51.5479 60.8682 51.5479H60.0967V51.001ZM60.0967 51.7432V51.2012H60.8682C61.3206 51.2012 61.695 51.2549 61.9912 51.3623C62.2874 51.4697 62.5202 51.613 62.6895 51.792C62.862 51.971 62.9824 52.168 63.0508 52.3828C63.1224 52.5944 63.1582 52.806 63.1582 53.0176C63.1582 53.3496 63.1012 53.6442 62.9873 53.9014C62.8766 54.1585 62.7188 54.3766 62.5137 54.5557C62.3118 54.7347 62.0742 54.8698 61.8008 54.9609C61.5273 55.0521 61.2295 55.0977 60.9072 55.0977C60.598 55.0977 60.3066 55.0537 60.0332 54.9658C59.763 54.8779 59.5238 54.751 59.3154 54.585C59.1071 54.4157 58.9443 54.209 58.8271 53.9648C58.71 53.7174 58.6514 53.4359 58.6514 53.1201H59.5547C59.5547 53.3675 59.6084 53.584 59.7158 53.7695C59.8265 53.9551 59.9827 54.0999 60.1846 54.2041C60.3896 54.305 60.6305 54.3555 60.9072 54.3555C61.1839 54.3555 61.4215 54.3083 61.6201 54.2139C61.8219 54.1162 61.9766 53.9697 62.084 53.7744C62.1947 53.5791 62.25 53.3333 62.25 53.0371C62.25 52.7409 62.1882 52.4984 62.0645 52.3096C61.9408 52.1175 61.765 51.9759 61.5371 51.8848C61.3125 51.7904 61.0472 51.7432 60.7412 51.7432H60.0967Z" fill="white"/>
<path d="M60.0967 133.001H60.7412C61.057 133.001 61.3174 132.949 61.5225 132.845C61.7308 132.737 61.8854 132.592 61.9863 132.41C62.0905 132.225 62.1426 132.016 62.1426 131.785C62.1426 131.512 62.097 131.282 62.0059 131.097C61.9147 130.911 61.778 130.771 61.5957 130.677C61.4134 130.582 61.1823 130.535 60.9023 130.535C60.6484 130.535 60.4238 130.586 60.2285 130.687C60.0365 130.784 59.8851 130.924 59.7744 131.106C59.667 131.289 59.6133 131.504 59.6133 131.751H58.71C58.71 131.39 58.8011 131.061 58.9834 130.765C59.1657 130.468 59.4212 130.232 59.75 130.057C60.082 129.881 60.4661 129.793 60.9023 129.793C61.332 129.793 61.708 129.869 62.0303 130.022C62.3525 130.172 62.6032 130.397 62.7822 130.696C62.9613 130.993 63.0508 131.362 63.0508 131.805C63.0508 131.984 63.0085 132.176 62.9238 132.381C62.8424 132.583 62.7139 132.771 62.5381 132.947C62.3656 133.123 62.141 133.268 61.8643 133.382C61.5876 133.493 61.2555 133.548 60.8682 133.548H60.0967V133.001ZM60.0967 133.743V133.201H60.8682C61.3206 133.201 61.695 133.255 61.9912 133.362C62.2874 133.47 62.5202 133.613 62.6895 133.792C62.862 133.971 62.9824 134.168 63.0508 134.383C63.1224 134.594 63.1582 134.806 63.1582 135.018C63.1582 135.35 63.1012 135.644 62.9873 135.901C62.8766 136.159 62.7188 136.377 62.5137 136.556C62.3118 136.735 62.0742 136.87 61.8008 136.961C61.5273 137.052 61.2295 137.098 60.9072 137.098C60.598 137.098 60.3066 137.054 60.0332 136.966C59.763 136.878 59.5238 136.751 59.3154 136.585C59.1071 136.416 58.9443 136.209 58.8271 135.965C58.71 135.717 58.6514 135.436 58.6514 135.12H59.5547C59.5547 135.368 59.6084 135.584 59.7158 135.77C59.8265 135.955 59.9827 136.1 60.1846 136.204C60.3896 136.305 60.6305 136.355 60.9072 136.355C61.1839 136.355 61.4215 136.308 61.6201 136.214C61.8219 136.116 61.9766 135.97 62.084 135.774C62.1947 135.579 62.25 135.333 62.25 135.037C62.25 134.741 62.1882 134.498 62.0645 134.31C61.9408 134.118 61.765 133.976 61.5371 133.885C61.3125 133.79 61.0472 133.743 60.7412 133.743H60.0967Z" fill="white"/>
<path d="M61.7471 23.8516V31H60.8438V24.9795L59.0225 25.6436V24.8281L61.6055 23.8516H61.7471Z" fill="white"/>
<path d="M61.7471 105.852V113H60.8438V106.979L59.0225 107.644V106.828L61.6055 105.852H61.7471Z" fill="white"/>
<path d="M140.437 30.2578V31H135.783V30.3506L138.112 27.7578C138.399 27.4388 138.62 27.1686 138.776 26.9473C138.936 26.7227 139.047 26.5225 139.108 26.3467C139.174 26.1676 139.206 25.9854 139.206 25.7998C139.206 25.5654 139.157 25.3538 139.06 25.165C138.965 24.973 138.825 24.82 138.64 24.7061C138.454 24.5921 138.229 24.5352 137.966 24.5352C137.65 24.5352 137.386 24.597 137.175 24.7207C136.966 24.8411 136.81 25.0104 136.706 25.2285C136.602 25.4466 136.55 25.6973 136.55 25.9805H135.646C135.646 25.5801 135.734 25.2139 135.91 24.8818C136.086 24.5498 136.346 24.2861 136.691 24.0908C137.036 23.8923 137.461 23.793 137.966 23.793C138.415 23.793 138.799 23.8727 139.118 24.0322C139.437 24.1885 139.681 24.4098 139.851 24.6963C140.023 24.9795 140.109 25.3115 140.109 25.6924C140.109 25.9007 140.074 26.1123 140.002 26.3271C139.934 26.5387 139.838 26.7503 139.714 26.9619C139.593 27.1735 139.452 27.3818 139.289 27.5869C139.13 27.792 138.959 27.9938 138.776 28.1924L136.872 30.2578H140.437Z" fill="white"/>
<path d="M140.437 112.258V113H135.783V112.351L138.112 109.758C138.399 109.439 138.62 109.169 138.776 108.947C138.936 108.723 139.047 108.522 139.108 108.347C139.174 108.168 139.206 107.985 139.206 107.8C139.206 107.565 139.157 107.354 139.06 107.165C138.965 106.973 138.825 106.82 138.64 106.706C138.454 106.592 138.229 106.535 137.966 106.535C137.65 106.535 137.386 106.597 137.175 106.721C136.966 106.841 136.81 107.01 136.706 107.229C136.602 107.447 136.55 107.697 136.55 107.98H135.646C135.646 107.58 135.734 107.214 135.91 106.882C136.086 106.55 136.346 106.286 136.691 106.091C137.036 105.892 137.461 105.793 137.966 105.793C138.415 105.793 138.799 105.873 139.118 106.032C139.437 106.188 139.681 106.41 139.851 106.696C140.023 106.979 140.109 107.312 140.109 107.692C140.109 107.901 140.074 108.112 140.002 108.327C139.934 108.539 139.838 108.75 139.714 108.962C139.593 109.174 139.452 109.382 139.289 109.587C139.13 109.792 138.959 109.994 138.776 110.192L136.872 112.258H140.437Z" fill="white"/>
<path d="M15.2949 27.752V30.875C15.1895 31.0312 15.0215 31.207 14.791 31.4023C14.5605 31.5938 14.2422 31.7617 13.8359 31.9062C13.4336 32.0469 12.9141 32.1172 12.2773 32.1172C11.7578 32.1172 11.2793 32.0273 10.8418 31.8477C10.4082 31.6641 10.0312 31.3984 9.71094 31.0508C9.39453 30.6992 9.14844 30.2734 8.97266 29.7734C8.80078 29.2695 8.71484 28.6992 8.71484 28.0625V27.4004C8.71484 26.7637 8.78906 26.1953 8.9375 25.6953C9.08984 25.1953 9.3125 24.7715 9.60547 24.4238C9.89844 24.0723 10.2578 23.8066 10.6836 23.627C11.1094 23.4434 11.5977 23.3516 12.1484 23.3516C12.8008 23.3516 13.3457 23.4648 13.7832 23.6914C14.2246 23.9141 14.5684 24.2227 14.8145 24.6172C15.0645 25.0117 15.2246 25.4609 15.2949 25.9648H14.1641C14.1133 25.6562 14.0117 25.375 13.8594 25.1211C13.7109 24.8672 13.498 24.6641 13.2207 24.5117C12.9434 24.3555 12.5859 24.2773 12.1484 24.2773C11.7539 24.2773 11.4121 24.3496 11.123 24.4941C10.834 24.6387 10.5957 24.8457 10.4082 25.1152C10.2207 25.3848 10.0801 25.7109 9.98633 26.0938C9.89648 26.4766 9.85156 26.9082 9.85156 27.3887V28.0625C9.85156 28.5547 9.9082 28.9941 10.0215 29.3809C10.1387 29.7676 10.3047 30.0977 10.5195 30.3711C10.7344 30.6406 10.9902 30.8457 11.2871 30.9863C11.5879 31.127 11.9199 31.1973 12.2832 31.1973C12.6855 31.1973 13.0117 31.1641 13.2617 31.0977C13.5117 31.0273 13.707 30.9453 13.8477 30.8516C13.9883 30.7539 14.0957 30.6621 14.1699 30.5762V28.666H12.1953V27.752H15.2949ZM20.4414 28.6543H18.1621V27.7344H20.4414C20.8828 27.7344 21.2402 27.6641 21.5137 27.5234C21.7871 27.3828 21.9863 27.1875 22.1113 26.9375C22.2402 26.6875 22.3047 26.4023 22.3047 26.082C22.3047 25.7891 22.2402 25.5137 22.1113 25.2559C21.9863 24.998 21.7871 24.791 21.5137 24.6348C21.2402 24.4746 20.8828 24.3945 20.4414 24.3945H18.4258V32H17.2949V23.4688H20.4414C21.0859 23.4688 21.6309 23.5801 22.0762 23.8027C22.5215 24.0254 22.8594 24.334 23.0898 24.7285C23.3203 25.1191 23.4355 25.5664 23.4355 26.0703C23.4355 26.6172 23.3203 27.084 23.0898 27.4707C22.8594 27.8574 22.5215 28.1523 22.0762 28.3555C21.6309 28.5547 21.0859 28.6543 20.4414 28.6543ZM26.2031 23.4688V32H25.0723V23.4688H26.2031ZM34.9531 27.4648V28.0039C34.9531 28.6445 34.873 29.2188 34.7129 29.7266C34.5527 30.2344 34.3223 30.666 34.0215 31.0215C33.7207 31.377 33.3594 31.6484 32.9375 31.8359C32.5195 32.0234 32.0508 32.1172 31.5312 32.1172C31.0273 32.1172 30.5645 32.0234 30.1426 31.8359C29.7246 31.6484 29.3613 31.377 29.0527 31.0215C28.748 30.666 28.5117 30.2344 28.3438 29.7266C28.1758 29.2188 28.0918 28.6445 28.0918 28.0039V27.4648C28.0918 26.8242 28.1738 26.252 28.3379 25.748C28.5059 25.2402 28.7422 24.8086 29.0469 24.4531C29.3516 24.0938 29.7129 23.8203 30.1309 23.6328C30.5527 23.4453 31.0156 23.3516 31.5195 23.3516C32.0391 23.3516 32.5078 23.4453 32.9258 23.6328C33.3477 23.8203 33.709 24.0938 34.0098 24.4531C34.3145 24.8086 34.5469 25.2402 34.707 25.748C34.8711 26.252 34.9531 26.8242 34.9531 27.4648ZM33.834 28.0039V27.4531C33.834 26.9453 33.7812 26.4961 33.6758 26.1055C33.5742 25.7148 33.4238 25.3867 33.2246 25.1211C33.0254 24.8555 32.7812 24.6543 32.4922 24.5176C32.207 24.3809 31.8828 24.3125 31.5195 24.3125C31.168 24.3125 30.8496 24.3809 30.5645 24.5176C30.2832 24.6543 30.041 24.8555 29.8379 25.1211C29.6387 25.3867 29.4844 25.7148 29.375 26.1055C29.2656 26.4961 29.2109 26.9453 29.2109 27.4531V28.0039C29.2109 28.5156 29.2656 28.9688 29.375 29.3633C29.4844 29.7539 29.6406 30.084 29.8438 30.3535C30.0508 30.6191 30.2949 30.8203 30.5762 30.957C30.8613 31.0938 31.1797 31.1621 31.5312 31.1621C31.8984 31.1621 32.2246 31.0938 32.5098 30.957C32.7949 30.8203 33.0352 30.6191 33.2305 30.3535C33.4297 30.084 33.5801 29.7539 33.6816 29.3633C33.7832 28.9688 33.834 28.5156 33.834 28.0039ZM43.1543 23.4219V32H42.0703V24.7754L39.8848 25.5723V24.5938L42.9844 23.4219H43.1543Z" fill="black" fill-opacity="0.76"/>
<path d="M15.2949 109.752V112.875C15.1895 113.031 15.0215 113.207 14.791 113.402C14.5605 113.594 14.2422 113.762 13.8359 113.906C13.4336 114.047 12.9141 114.117 12.2773 114.117C11.7578 114.117 11.2793 114.027 10.8418 113.848C10.4082 113.664 10.0312 113.398 9.71094 113.051C9.39453 112.699 9.14844 112.273 8.97266 111.773C8.80078 111.27 8.71484 110.699 8.71484 110.062V109.4C8.71484 108.764 8.78906 108.195 8.9375 107.695C9.08984 107.195 9.3125 106.771 9.60547 106.424C9.89844 106.072 10.2578 105.807 10.6836 105.627C11.1094 105.443 11.5977 105.352 12.1484 105.352C12.8008 105.352 13.3457 105.465 13.7832 105.691C14.2246 105.914 14.5684 106.223 14.8145 106.617C15.0645 107.012 15.2246 107.461 15.2949 107.965H14.1641C14.1133 107.656 14.0117 107.375 13.8594 107.121C13.7109 106.867 13.498 106.664 13.2207 106.512C12.9434 106.355 12.5859 106.277 12.1484 106.277C11.7539 106.277 11.4121 106.35 11.123 106.494C10.834 106.639 10.5957 106.846 10.4082 107.115C10.2207 107.385 10.0801 107.711 9.98633 108.094C9.89648 108.477 9.85156 108.908 9.85156 109.389V110.062C9.85156 110.555 9.9082 110.994 10.0215 111.381C10.1387 111.768 10.3047 112.098 10.5195 112.371C10.7344 112.641 10.9902 112.846 11.2871 112.986C11.5879 113.127 11.9199 113.197 12.2832 113.197C12.6855 113.197 13.0117 113.164 13.2617 113.098C13.5117 113.027 13.707 112.945 13.8477 112.852C13.9883 112.754 14.0957 112.662 14.1699 112.576V110.666H12.1953V109.752H15.2949ZM20.4414 110.654H18.1621V109.734H20.4414C20.8828 109.734 21.2402 109.664 21.5137 109.523C21.7871 109.383 21.9863 109.188 22.1113 108.938C22.2402 108.688 22.3047 108.402 22.3047 108.082C22.3047 107.789 22.2402 107.514 22.1113 107.256C21.9863 106.998 21.7871 106.791 21.5137 106.635C21.2402 106.475 20.8828 106.395 20.4414 106.395H18.4258V114H17.2949V105.469H20.4414C21.0859 105.469 21.6309 105.58 22.0762 105.803C22.5215 106.025 22.8594 106.334 23.0898 106.729C23.3203 107.119 23.4355 107.566 23.4355 108.07C23.4355 108.617 23.3203 109.084 23.0898 109.471C22.8594 109.857 22.5215 110.152 22.0762 110.355C21.6309 110.555 21.0859 110.654 20.4414 110.654ZM26.2031 105.469V114H25.0723V105.469H26.2031ZM34.9531 109.465V110.004C34.9531 110.645 34.873 111.219 34.7129 111.727C34.5527 112.234 34.3223 112.666 34.0215 113.021C33.7207 113.377 33.3594 113.648 32.9375 113.836C32.5195 114.023 32.0508 114.117 31.5312 114.117C31.0273 114.117 30.5645 114.023 30.1426 113.836C29.7246 113.648 29.3613 113.377 29.0527 113.021C28.748 112.666 28.5117 112.234 28.3438 111.727C28.1758 111.219 28.0918 110.645 28.0918 110.004V109.465C28.0918 108.824 28.1738 108.252 28.3379 107.748C28.5059 107.24 28.7422 106.809 29.0469 106.453C29.3516 106.094 29.7129 105.82 30.1309 105.633C30.5527 105.445 31.0156 105.352 31.5195 105.352C32.0391 105.352 32.5078 105.445 32.9258 105.633C33.3477 105.82 33.709 106.094 34.0098 106.453C34.3145 106.809 34.5469 107.24 34.707 107.748C34.8711 108.252 34.9531 108.824 34.9531 109.465ZM33.834 110.004V109.453C33.834 108.945 33.7812 108.496 33.6758 108.105C33.5742 107.715 33.4238 107.387 33.2246 107.121C33.0254 106.855 32.7812 106.654 32.4922 106.518C32.207 106.381 31.8828 106.312 31.5195 106.312C31.168 106.312 30.8496 106.381 30.5645 106.518C30.2832 106.654 30.041 106.855 29.8379 107.121C29.6387 107.387 29.4844 107.715 29.375 108.105C29.2656 108.496 29.2109 108.945 29.2109 109.453V110.004C29.2109 110.516 29.2656 110.969 29.375 111.363C29.4844 111.754 29.6406 112.084 29.8438 112.354C30.0508 112.619 30.2949 112.82 30.5762 112.957C30.8613 113.094 31.1797 113.162 31.5312 113.162C31.8984 113.162 32.2246 113.094 32.5098 112.957C32.7949 112.82 33.0352 112.619 33.2305 112.354C33.4297 112.084 33.5801 111.754 33.6816 111.363C33.7832 110.969 33.834 110.516 33.834 110.004ZM43.1543 105.422V114H42.0703V106.775L39.8848 107.572V106.594L42.9844 105.422H43.1543Z" fill="black" fill-opacity="0.76"/>
<path d="M162.295 27.752V30.875C162.189 31.0312 162.021 31.207 161.791 31.4023C161.561 31.5938 161.242 31.7617 160.836 31.9062C160.434 32.0469 159.914 32.1172 159.277 32.1172C158.758 32.1172 158.279 32.0273 157.842 31.8477C157.408 31.6641 157.031 31.3984 156.711 31.0508C156.395 30.6992 156.148 30.2734 155.973 29.7734C155.801 29.2695 155.715 28.6992 155.715 28.0625V27.4004C155.715 26.7637 155.789 26.1953 155.938 25.6953C156.09 25.1953 156.312 24.7715 156.605 24.4238C156.898 24.0723 157.258 23.8066 157.684 23.627C158.109 23.4434 158.598 23.3516 159.148 23.3516C159.801 23.3516 160.346 23.4648 160.783 23.6914C161.225 23.9141 161.568 24.2227 161.814 24.6172C162.064 25.0117 162.225 25.4609 162.295 25.9648H161.164C161.113 25.6562 161.012 25.375 160.859 25.1211C160.711 24.8672 160.498 24.6641 160.221 24.5117C159.943 24.3555 159.586 24.2773 159.148 24.2773C158.754 24.2773 158.412 24.3496 158.123 24.4941C157.834 24.6387 157.596 24.8457 157.408 25.1152C157.221 25.3848 157.08 25.7109 156.986 26.0938C156.896 26.4766 156.852 26.9082 156.852 27.3887V28.0625C156.852 28.5547 156.908 28.9941 157.021 29.3809C157.139 29.7676 157.305 30.0977 157.52 30.3711C157.734 30.6406 157.99 30.8457 158.287 30.9863C158.588 31.127 158.92 31.1973 159.283 31.1973C159.686 31.1973 160.012 31.1641 160.262 31.0977C160.512 31.0273 160.707 30.9453 160.848 30.8516C160.988 30.7539 161.096 30.6621 161.17 30.5762V28.666H159.195V27.752H162.295ZM167.441 28.6543H165.162V27.7344H167.441C167.883 27.7344 168.24 27.6641 168.514 27.5234C168.787 27.3828 168.986 27.1875 169.111 26.9375C169.24 26.6875 169.305 26.4023 169.305 26.082C169.305 25.7891 169.24 25.5137 169.111 25.2559C168.986 24.998 168.787 24.791 168.514 24.6348C168.24 24.4746 167.883 24.3945 167.441 24.3945H165.426V32H164.295V23.4688H167.441C168.086 23.4688 168.631 23.5801 169.076 23.8027C169.521 24.0254 169.859 24.334 170.09 24.7285C170.32 25.1191 170.436 25.5664 170.436 26.0703C170.436 26.6172 170.32 27.084 170.09 27.4707C169.859 27.8574 169.521 28.1523 169.076 28.3555C168.631 28.5547 168.086 28.6543 167.441 28.6543ZM173.203 23.4688V32H172.072V23.4688H173.203ZM181.953 27.4648V28.0039C181.953 28.6445 181.873 29.2188 181.713 29.7266C181.553 30.2344 181.322 30.666 181.021 31.0215C180.721 31.377 180.359 31.6484 179.938 31.8359C179.52 32.0234 179.051 32.1172 178.531 32.1172C178.027 32.1172 177.564 32.0234 177.143 31.8359C176.725 31.6484 176.361 31.377 176.053 31.0215C175.748 30.666 175.512 30.2344 175.344 29.7266C175.176 29.2188 175.092 28.6445 175.092 28.0039V27.4648C175.092 26.8242 175.174 26.252 175.338 25.748C175.506 25.2402 175.742 24.8086 176.047 24.4531C176.352 24.0938 176.713 23.8203 177.131 23.6328C177.553 23.4453 178.016 23.3516 178.52 23.3516C179.039 23.3516 179.508 23.4453 179.926 23.6328C180.348 23.8203 180.709 24.0938 181.01 24.4531C181.314 24.8086 181.547 25.2402 181.707 25.748C181.871 26.252 181.953 26.8242 181.953 27.4648ZM180.834 28.0039V27.4531C180.834 26.9453 180.781 26.4961 180.676 26.1055C180.574 25.7148 180.424 25.3867 180.225 25.1211C180.025 24.8555 179.781 24.6543 179.492 24.5176C179.207 24.3809 178.883 24.3125 178.52 24.3125C178.168 24.3125 177.85 24.3809 177.564 24.5176C177.283 24.6543 177.041 24.8555 176.838 25.1211C176.639 25.3867 176.484 25.7148 176.375 26.1055C176.266 26.4961 176.211 26.9453 176.211 27.4531V28.0039C176.211 28.5156 176.266 28.9688 176.375 29.3633C176.484 29.7539 176.641 30.084 176.844 30.3535C177.051 30.6191 177.295 30.8203 177.576 30.957C177.861 31.0938 178.18 31.1621 178.531 31.1621C178.898 31.1621 179.225 31.0938 179.51 30.957C179.795 30.8203 180.035 30.6191 180.23 30.3535C180.43 30.084 180.58 29.7539 180.682 29.3633C180.783 28.9688 180.834 28.5156 180.834 28.0039ZM192.182 31.1094V32H186.598V31.2207L189.393 28.1094C189.736 27.7266 190.002 27.4023 190.189 27.1367C190.381 26.8672 190.514 26.627 190.588 26.416C190.666 26.2012 190.705 25.9824 190.705 25.7598C190.705 25.4785 190.646 25.2246 190.529 24.998C190.416 24.7676 190.248 24.584 190.025 24.4473C189.803 24.3105 189.533 24.2422 189.217 24.2422C188.838 24.2422 188.521 24.3164 188.268 24.4648C188.018 24.6094 187.83 24.8125 187.705 25.0742C187.58 25.3359 187.518 25.6367 187.518 25.9766H186.434C186.434 25.4961 186.539 25.0566 186.75 24.6582C186.961 24.2598 187.273 23.9434 187.688 23.709C188.102 23.4707 188.611 23.3516 189.217 23.3516C189.756 23.3516 190.217 23.4473 190.6 23.6387C190.982 23.8262 191.275 24.0918 191.479 24.4355C191.686 24.7754 191.789 25.1738 191.789 25.6309C191.789 25.8809 191.746 26.1348 191.66 26.3926C191.578 26.6465 191.463 26.9004 191.314 27.1543C191.17 27.4082 191 27.6582 190.805 27.9043C190.613 28.1504 190.408 28.3926 190.189 28.6309L187.904 31.1094H192.182Z" fill="black" fill-opacity="0.76"/>
<path d="M162.295 109.752V112.875C162.189 113.031 162.021 113.207 161.791 113.402C161.561 113.594 161.242 113.762 160.836 113.906C160.434 114.047 159.914 114.117 159.277 114.117C158.758 114.117 158.279 114.027 157.842 113.848C157.408 113.664 157.031 113.398 156.711 113.051C156.395 112.699 156.148 112.273 155.973 111.773C155.801 111.27 155.715 110.699 155.715 110.062V109.4C155.715 108.764 155.789 108.195 155.938 107.695C156.09 107.195 156.312 106.771 156.605 106.424C156.898 106.072 157.258 105.807 157.684 105.627C158.109 105.443 158.598 105.352 159.148 105.352C159.801 105.352 160.346 105.465 160.783 105.691C161.225 105.914 161.568 106.223 161.814 106.617C162.064 107.012 162.225 107.461 162.295 107.965H161.164C161.113 107.656 161.012 107.375 160.859 107.121C160.711 106.867 160.498 106.664 160.221 106.512C159.943 106.355 159.586 106.277 159.148 106.277C158.754 106.277 158.412 106.35 158.123 106.494C157.834 106.639 157.596 106.846 157.408 107.115C157.221 107.385 157.08 107.711 156.986 108.094C156.896 108.477 156.852 108.908 156.852 109.389V110.062C156.852 110.555 156.908 110.994 157.021 111.381C157.139 111.768 157.305 112.098 157.52 112.371C157.734 112.641 157.99 112.846 158.287 112.986C158.588 113.127 158.92 113.197 159.283 113.197C159.686 113.197 160.012 113.164 160.262 113.098C160.512 113.027 160.707 112.945 160.848 112.852C160.988 112.754 161.096 112.662 161.17 112.576V110.666H159.195V109.752H162.295ZM167.441 110.654H165.162V109.734H167.441C167.883 109.734 168.24 109.664 168.514 109.523C168.787 109.383 168.986 109.188 169.111 108.938C169.24 108.688 169.305 108.402 169.305 108.082C169.305 107.789 169.24 107.514 169.111 107.256C168.986 106.998 168.787 106.791 168.514 106.635C168.24 106.475 167.883 106.395 167.441 106.395H165.426V114H164.295V105.469H167.441C168.086 105.469 168.631 105.58 169.076 105.803C169.521 106.025 169.859 106.334 170.09 106.729C170.32 107.119 170.436 107.566 170.436 108.07C170.436 108.617 170.32 109.084 170.09 109.471C169.859 109.857 169.521 110.152 169.076 110.355C168.631 110.555 168.086 110.654 167.441 110.654ZM173.203 105.469V114H172.072V105.469H173.203ZM181.953 109.465V110.004C181.953 110.645 181.873 111.219 181.713 111.727C181.553 112.234 181.322 112.666 181.021 113.021C180.721 113.377 180.359 113.648 179.938 113.836C179.52 114.023 179.051 114.117 178.531 114.117C178.027 114.117 177.564 114.023 177.143 113.836C176.725 113.648 176.361 113.377 176.053 113.021C175.748 112.666 175.512 112.234 175.344 111.727C175.176 111.219 175.092 110.645 175.092 110.004V109.465C175.092 108.824 175.174 108.252 175.338 107.748C175.506 107.24 175.742 106.809 176.047 106.453C176.352 106.094 176.713 105.82 177.131 105.633C177.553 105.445 178.016 105.352 178.52 105.352C179.039 105.352 179.508 105.445 179.926 105.633C180.348 105.82 180.709 106.094 181.01 106.453C181.314 106.809 181.547 107.24 181.707 107.748C181.871 108.252 181.953 108.824 181.953 109.465ZM180.834 110.004V109.453C180.834 108.945 180.781 108.496 180.676 108.105C180.574 107.715 180.424 107.387 180.225 107.121C180.025 106.855 179.781 106.654 179.492 106.518C179.207 106.381 178.883 106.312 178.52 106.312C178.168 106.312 177.85 106.381 177.564 106.518C177.283 106.654 177.041 106.855 176.838 107.121C176.639 107.387 176.484 107.715 176.375 108.105C176.266 108.496 176.211 108.945 176.211 109.453V110.004C176.211 110.516 176.266 110.969 176.375 111.363C176.484 111.754 176.641 112.084 176.844 112.354C177.051 112.619 177.295 112.82 177.576 112.957C177.861 113.094 178.18 113.162 178.531 113.162C178.898 113.162 179.225 113.094 179.51 112.957C179.795 112.82 180.035 112.619 180.23 112.354C180.43 112.084 180.58 111.754 180.682 111.363C180.783 110.969 180.834 110.516 180.834 110.004ZM192.182 113.109V114H186.598V113.221L189.393 110.109C189.736 109.727 190.002 109.402 190.189 109.137C190.381 108.867 190.514 108.627 190.588 108.416C190.666 108.201 190.705 107.982 190.705 107.76C190.705 107.479 190.646 107.225 190.529 106.998C190.416 106.768 190.248 106.584 190.025 106.447C189.803 106.311 189.533 106.242 189.217 106.242C188.838 106.242 188.521 106.316 188.268 106.465C188.018 106.609 187.83 106.812 187.705 107.074C187.58 107.336 187.518 107.637 187.518 107.977H186.434C186.434 107.496 186.539 107.057 186.75 106.658C186.961 106.26 187.273 105.943 187.688 105.709C188.102 105.471 188.611 105.352 189.217 105.352C189.756 105.352 190.217 105.447 190.6 105.639C190.982 105.826 191.275 106.092 191.479 106.436C191.686 106.775 191.789 107.174 191.789 107.631C191.789 107.881 191.746 108.135 191.66 108.393C191.578 108.646 191.463 108.9 191.314 109.154C191.17 109.408 191 109.658 190.805 109.904C190.613 110.15 190.408 110.393 190.189 110.631L187.904 113.109H192.182Z" fill="black" fill-opacity="0.76"/>
<rect x="74" y="105" width="21" height="10" rx="5" fill="#A01919"/>
<rect x="74" y="129" width="21" height="10" rx="5" fill="#A01919"/>
<rect x="110" y="105" width="21" height="10" rx="5" fill="#A01919"/>
<circle cx="81" cy="28" r="7" fill="#134803"/>
<circle cx="76" cy="110" r="7" fill="#D07070"/>
<circle cx="117" cy="28" r="7" fill="#CABA03"/>
<circle cx="112" cy="110" r="7" fill="#D07070"/>
<circle cx="81" cy="52" r="7" fill="#9F034E"/>
<circle cx="76" cy="134" r="7" fill="#D07070"/>
</g>
<defs>
<clipPath id="clip0_18332_14138">
<rect width="200" height="160" fill="white"/>
</clipPath>
</defs>
</svg>
