<svg width="200" height="160" viewBox="0 0 200 160" fill="none" xmlns="http://www.w3.org/2000/svg">
    <rect width="200" height="160" rx="4" fill="#DEDEDE"/>
    <path d="M20 18.3998C20 18.3998 20 3.99992 36.8 3.99984C51.74 3.99977 60.14 3.99987 75.2 3.99984C92 3.9998 92 18.3998 92 18.3998V61.5998C92 61.5998 92 75.9998 75.2 75.9998C61.34 75.9998 52.46 75.9998 36.8 75.9998C20 75.9998 20 61.5998 20 61.5998V18.3998Z" fill="#EBEBEB"/>
    <path d="M36.7998 4.11993C51.7398 4.11987 60.1402 4.11997 75.2002 4.11993C83.5578 4.11997 87.7176 7.6978 89.7959 11.2606C90.8373 13.0459 91.3594 14.8319 91.6201 16.1727C91.7504 16.8427 91.8151 17.4008 91.8477 17.7908C91.8639 17.9858 91.8719 18.1392 91.876 18.243C91.878 18.2948 91.8794 18.3347 91.8799 18.3611V61.6385C91.8794 61.6649 91.878 61.7049 91.876 61.7567C91.8719 61.8605 91.8639 62.0138 91.8477 62.2088C91.8151 62.5988 91.7504 63.1569 91.6201 63.827C91.3594 65.1677 90.8373 66.9538 89.7959 68.7391C87.7176 72.3018 83.5578 75.8796 75.2002 75.8797H36.7998C28.4422 75.8796 24.2824 72.3018 22.2041 68.7391C21.1627 66.9538 20.6406 65.1677 20.3799 63.827C20.2496 63.1569 20.1849 62.5988 20.1523 62.2088C20.1361 62.0138 20.1281 61.8605 20.124 61.7567C20.122 61.7049 20.1206 61.6649 20.1201 61.6385V18.3611C20.1206 18.3347 20.122 18.2948 20.124 18.243C20.1281 18.1392 20.1361 17.9858 20.1523 17.7908C20.1849 17.4008 20.2496 16.8427 20.3799 16.1727C20.6406 14.8319 21.1627 13.0459 22.2041 11.2606C24.2824 7.69782 28.4422 4.12003 36.7998 4.11993Z" stroke="black" stroke-opacity="0.87" stroke-width="0.24"/>
    <mask id="mask0_3_27507" style="mask-type:alpha" maskUnits="userSpaceOnUse" x="20" y="4" width="72" height="72">
        <path d="M20.24 18.544C20.24 18.544 20.24 4.24009 36.928 4.24001C51.7684 4.23995 60.1124 4.24005 75.072 4.24001C91.76 4.23998 91.76 18.544 91.76 18.544V61.456C91.76 61.456 91.76 75.76 75.072 75.76C61.3044 75.76 52.4836 75.76 36.928 75.76C20.24 75.76 20.24 61.456 20.24 61.456V18.544Z" fill="#EBEBEB"/>
        <path d="M36.9285 4.36011C51.7686 4.36004 60.1126 4.36014 75.072 4.36011C83.3737 4.3601 87.5058 7.9141 89.5701 11.4529C90.6044 13.2261 91.1226 15.0001 91.3816 16.3318C91.511 16.9974 91.5759 17.5518 91.6082 17.9392C91.6243 18.1329 91.6325 18.2853 91.6365 18.3884C91.6385 18.4398 91.6389 18.4794 91.6394 18.5056C91.6396 18.5186 91.6403 18.5285 91.6404 18.5349V61.4656C91.6403 61.4721 91.6396 61.4819 91.6394 61.4949C91.6389 61.5212 91.6385 61.5606 91.6365 61.6121C91.6325 61.7151 91.6243 61.8668 91.6082 62.0603C91.5759 62.4476 91.511 63.0022 91.3816 63.6677C91.1226 64.9995 90.6045 66.7743 89.5701 68.5476C87.5057 72.0863 83.3736 75.6404 75.072 75.6404H36.9285C28.6267 75.6404 24.4937 72.0864 22.4294 68.5476C21.395 66.7743 20.8778 64.9995 20.6189 63.6677C20.4895 63.0022 20.4246 62.4477 20.3923 62.0603C20.3762 61.8668 20.368 61.7151 20.364 61.6121C20.362 61.5606 20.3606 61.5212 20.3601 61.4949V18.5056C20.3606 18.4794 20.362 18.4398 20.364 18.3884C20.368 18.2853 20.3762 18.1329 20.3923 17.9392C20.4246 17.5518 20.4895 16.9973 20.6189 16.3318C20.8778 15.0002 21.3952 13.226 22.4294 11.4529C24.4937 7.91411 28.6267 4.36015 36.9285 4.36011Z" stroke="black" stroke-opacity="0.87" stroke-width="0.24"/>
    </mask>
    <g mask="url(#mask0_3_27507)">
        <rect x="20" y="25.72" width="72" height="50.28" fill="#C8DFF7"/>
    </g>
    <line x1="40.1599" y1="4.29998" x2="43.9999" y2="4.29998" stroke="black" stroke-opacity="0.38" stroke-width="0.36"/>
    <line x1="41.6001" y1="5.72558" x2="44.0001" y2="5.72558" stroke="black" stroke-opacity="0.12" stroke-width="0.36"/>
    <line x1="41.6001" y1="7.15118" x2="44.0001" y2="7.15118" stroke="black" stroke-opacity="0.12" stroke-width="0.36"/>
    <line x1="41.6001" y1="8.57677" x2="44.0001" y2="8.57677" stroke="black" stroke-opacity="0.12" stroke-width="0.36"/>
    <line x1="41.6001" y1="10.0024" x2="44.0001" y2="10.0024" stroke="black" stroke-opacity="0.12" stroke-width="0.36"/>
    <line x1="40.1599" y1="11.428" x2="43.9999" y2="11.428" stroke="black" stroke-opacity="0.38" stroke-width="0.36"/>
    <line x1="41.6001" y1="12.8536" x2="44.0001" y2="12.8536" stroke="black" stroke-opacity="0.12" stroke-width="0.36"/>
    <line x1="41.6001" y1="14.2792" x2="44.0001" y2="14.2792" stroke="black" stroke-opacity="0.12" stroke-width="0.36"/>
    <line x1="41.6001" y1="15.7048" x2="44.0001" y2="15.7048" stroke="black" stroke-opacity="0.12" stroke-width="0.36"/>
    <line x1="41.6001" y1="17.1304" x2="44.0001" y2="17.1304" stroke="black" stroke-opacity="0.12" stroke-width="0.36"/>
    <line x1="40.1599" y1="18.556" x2="43.9999" y2="18.556" stroke="black" stroke-opacity="0.38" stroke-width="0.36"/>
    <line x1="41.6001" y1="19.9816" x2="44.0001" y2="19.9816" stroke="black" stroke-opacity="0.12" stroke-width="0.36"/>
    <line x1="41.6001" y1="21.4072" x2="44.0001" y2="21.4072" stroke="black" stroke-opacity="0.12" stroke-width="0.36"/>
    <line x1="41.6001" y1="22.8328" x2="44.0001" y2="22.8328" stroke="black" stroke-opacity="0.12" stroke-width="0.36"/>
    <line x1="41.6001" y1="24.2584" x2="44.0001" y2="24.2584" stroke="black" stroke-opacity="0.12" stroke-width="0.36"/>
    <line x1="40.1599" y1="25.684" x2="43.9999" y2="25.684" stroke="black" stroke-opacity="0.38" stroke-width="0.36"/>
    <line x1="41.6001" y1="27.1096" x2="44.0001" y2="27.1096" stroke="black" stroke-opacity="0.12" stroke-width="0.36"/>
    <line x1="41.6001" y1="28.5352" x2="44.0001" y2="28.5352" stroke="black" stroke-opacity="0.12" stroke-width="0.36"/>
    <line x1="41.6001" y1="29.9608" x2="44.0001" y2="29.9608" stroke="black" stroke-opacity="0.12" stroke-width="0.36"/>
    <line x1="41.6001" y1="31.3864" x2="44.0001" y2="31.3864" stroke="black" stroke-opacity="0.12" stroke-width="0.36"/>
    <line x1="40.1599" y1="32.812" x2="43.9999" y2="32.812" stroke="black" stroke-opacity="0.38" stroke-width="0.36"/>
    <line x1="41.6001" y1="34.2376" x2="44.0001" y2="34.2376" stroke="black" stroke-opacity="0.12" stroke-width="0.36"/>
    <line x1="41.6001" y1="35.6632" x2="44.0001" y2="35.6632" stroke="black" stroke-opacity="0.12" stroke-width="0.36"/>
    <line x1="41.6001" y1="37.0888" x2="44.0001" y2="37.0888" stroke="black" stroke-opacity="0.12" stroke-width="0.36"/>
    <line x1="41.6001" y1="38.5144" x2="44.0001" y2="38.5144" stroke="black" stroke-opacity="0.12" stroke-width="0.36"/>
    <line x1="40.1599" y1="39.94" x2="43.9999" y2="39.94" stroke="black" stroke-opacity="0.38" stroke-width="0.36"/>
    <line x1="41.6001" y1="41.3656" x2="44.0001" y2="41.3656" stroke="black" stroke-opacity="0.12" stroke-width="0.36"/>
    <line x1="41.6001" y1="42.7912" x2="44.0001" y2="42.7912" stroke="black" stroke-opacity="0.12" stroke-width="0.36"/>
    <line x1="41.6001" y1="44.2168" x2="44.0001" y2="44.2168" stroke="black" stroke-opacity="0.12" stroke-width="0.36"/>
    <line x1="41.6001" y1="45.6424" x2="44.0001" y2="45.6424" stroke="black" stroke-opacity="0.12" stroke-width="0.36"/>
    <line x1="40.1599" y1="47.068" x2="43.9999" y2="47.068" stroke="black" stroke-opacity="0.38" stroke-width="0.36"/>
    <line x1="41.6001" y1="48.4936" x2="44.0001" y2="48.4936" stroke="black" stroke-opacity="0.12" stroke-width="0.36"/>
    <line x1="41.6001" y1="49.9192" x2="44.0001" y2="49.9192" stroke="black" stroke-opacity="0.12" stroke-width="0.36"/>
    <line x1="41.6001" y1="51.3448" x2="44.0001" y2="51.3448" stroke="black" stroke-opacity="0.12" stroke-width="0.36"/>
    <line x1="41.6001" y1="52.7704" x2="44.0001" y2="52.7704" stroke="black" stroke-opacity="0.12" stroke-width="0.36"/>
    <line x1="40.1599" y1="54.196" x2="43.9999" y2="54.196" stroke="black" stroke-opacity="0.38" stroke-width="0.36"/>
    <line x1="41.6001" y1="55.6216" x2="44.0001" y2="55.6216" stroke="black" stroke-opacity="0.12" stroke-width="0.36"/>
    <line x1="41.6001" y1="57.0472" x2="44.0001" y2="57.0472" stroke="black" stroke-opacity="0.12" stroke-width="0.36"/>
    <line x1="41.6001" y1="58.4728" x2="44.0001" y2="58.4728" stroke="black" stroke-opacity="0.12" stroke-width="0.36"/>
    <line x1="41.6001" y1="59.8984" x2="44.0001" y2="59.8984" stroke="black" stroke-opacity="0.12" stroke-width="0.36"/>
    <line x1="40.1599" y1="61.324" x2="43.9999" y2="61.324" stroke="black" stroke-opacity="0.38" stroke-width="0.36"/>
    <line x1="41.6001" y1="62.7496" x2="44.0001" y2="62.7496" stroke="black" stroke-opacity="0.12" stroke-width="0.36"/>
    <line x1="41.6001" y1="64.1752" x2="44.0001" y2="64.1752" stroke="black" stroke-opacity="0.12" stroke-width="0.36"/>
    <line x1="41.6001" y1="65.6008" x2="44.0001" y2="65.6008" stroke="black" stroke-opacity="0.12" stroke-width="0.36"/>
    <line x1="41.6001" y1="67.0264" x2="44.0001" y2="67.0264" stroke="black" stroke-opacity="0.12" stroke-width="0.36"/>
    <line x1="40.1599" y1="68.452" x2="43.9999" y2="68.452" stroke="black" stroke-opacity="0.38" stroke-width="0.36"/>
    <line x1="41.6001" y1="69.8776" x2="44.0001" y2="69.8776" stroke="black" stroke-opacity="0.12" stroke-width="0.36"/>
    <line x1="41.6001" y1="71.3032" x2="44.0001" y2="71.3032" stroke="black" stroke-opacity="0.12" stroke-width="0.36"/>
    <line x1="41.6001" y1="72.7288" x2="44.0001" y2="72.7288" stroke="black" stroke-opacity="0.12" stroke-width="0.36"/>
    <line x1="41.6001" y1="74.1544" x2="44.0001" y2="74.1544" stroke="black" stroke-opacity="0.12" stroke-width="0.36"/>
    <line x1="40.1599" y1="75.58" x2="43.9999" y2="75.58" stroke="black" stroke-opacity="0.38" stroke-width="0.36"/>
    <path d="M35.3096 3.94547V6H34.9707V4.34766L34.4686 4.51781V4.23797L35.2688 3.94547H35.3096ZM37.3857 4.80469V5.13937C37.3857 5.29969 37.3697 5.43656 37.3379 5.55C37.3069 5.6625 37.2619 5.75391 37.2029 5.82422C37.1438 5.89453 37.073 5.94609 36.9905 5.97891C36.9089 6.01172 36.8175 6.02813 36.7163 6.02813C36.6357 6.02813 36.5607 6.01781 36.4913 5.99719C36.4229 5.97656 36.361 5.94422 36.3057 5.90016C36.2504 5.85609 36.203 5.79937 36.1636 5.73C36.1252 5.65969 36.0952 5.57578 36.0736 5.47828C36.053 5.38078 36.0427 5.26781 36.0427 5.13937V4.80469C36.0427 4.64344 36.0586 4.5075 36.0905 4.39687C36.1224 4.28531 36.1679 4.19484 36.2269 4.12547C36.286 4.05516 36.3563 4.00406 36.4379 3.97219C36.5204 3.94031 36.6122 3.92437 36.7135 3.92437C36.795 3.92437 36.87 3.93469 36.9385 3.95531C37.0079 3.975 37.0697 4.00641 37.1241 4.04953C37.1794 4.09266 37.2263 4.14891 37.2647 4.21828C37.3041 4.28672 37.3341 4.36969 37.3547 4.46719C37.3754 4.56375 37.3857 4.67625 37.3857 4.80469ZM37.0468 5.18719V4.75406C37.0468 4.6725 37.0421 4.60078 37.0327 4.53891C37.0233 4.47609 37.0093 4.42312 36.9905 4.38C36.9727 4.33594 36.9502 4.30031 36.923 4.27312C36.8958 4.245 36.8649 4.22484 36.8302 4.21266C36.7955 4.19953 36.7566 4.19297 36.7135 4.19297C36.661 4.19297 36.6141 4.20328 36.5729 4.22391C36.5316 4.24359 36.4969 4.27547 36.4688 4.31953C36.4407 4.36359 36.4191 4.42172 36.4041 4.49391C36.39 4.56516 36.383 4.65187 36.383 4.75406V5.18719C36.383 5.26969 36.3877 5.34234 36.3971 5.40516C36.4064 5.46797 36.4205 5.52187 36.4393 5.56687C36.458 5.61094 36.4805 5.6475 36.5068 5.67656C36.5339 5.70469 36.5649 5.72531 36.5996 5.73844C36.6352 5.75156 36.6741 5.75812 36.7163 5.75812C36.7697 5.75812 36.8171 5.74781 36.8583 5.72719C36.8996 5.70656 36.9343 5.67375 36.9624 5.62875C36.9905 5.58281 37.0116 5.52328 37.0257 5.45016C37.0397 5.37703 37.0468 5.28937 37.0468 5.18719ZM39.0525 4.80469V5.13937C39.0525 5.29969 39.0366 5.43656 39.0047 5.55C38.9738 5.6625 38.9288 5.75391 38.8697 5.82422C38.8107 5.89453 38.7399 5.94609 38.6574 5.97891C38.5758 6.01172 38.4844 6.02813 38.3832 6.02813C38.3025 6.02813 38.2275 6.01781 38.1582 5.99719C38.0897 5.97656 38.0279 5.94422 37.9725 5.90016C37.9172 5.85609 37.8699 5.79937 37.8305 5.73C37.7921 5.65969 37.7621 5.57578 37.7405 5.47828C37.7199 5.38078 37.7096 5.26781 37.7096 5.13937V4.80469C37.7096 4.64344 37.7255 4.5075 37.7574 4.39687C37.7893 4.28531 37.8347 4.19484 37.8938 4.12547C37.9529 4.05516 38.0232 4.00406 38.1047 3.97219C38.1872 3.94031 38.2791 3.92437 38.3804 3.92437C38.4619 3.92437 38.5369 3.93469 38.6054 3.95531C38.6747 3.975 38.7366 4.00641 38.791 4.04953C38.8463 4.09266 38.8932 4.14891 38.9316 4.21828C38.971 4.28672 39.001 4.36969 39.0216 4.46719C39.0422 4.56375 39.0525 4.67625 39.0525 4.80469ZM38.7136 5.18719V4.75406C38.7136 4.6725 38.7089 4.60078 38.6996 4.53891C38.6902 4.47609 38.6761 4.42312 38.6574 4.38C38.6396 4.33594 38.6171 4.30031 38.5899 4.27312C38.5627 4.245 38.5318 4.22484 38.4971 4.21266C38.4624 4.19953 38.4235 4.19297 38.3804 4.19297C38.3279 4.19297 38.281 4.20328 38.2397 4.22391C38.1985 4.24359 38.1638 4.27547 38.1357 4.31953C38.1075 4.36359 38.086 4.42172 38.071 4.49391C38.0569 4.56516 38.0499 4.65187 38.0499 4.75406V5.18719C38.0499 5.26969 38.0546 5.34234 38.0639 5.40516C38.0733 5.46797 38.0874 5.52187 38.1061 5.56687C38.1249 5.61094 38.1474 5.6475 38.1736 5.67656C38.2008 5.70469 38.2318 5.72531 38.2664 5.73844C38.3021 5.75156 38.341 5.75812 38.3832 5.75812C38.4366 5.75812 38.4839 5.74781 38.5252 5.72719C38.5664 5.70656 38.6011 5.67375 38.6293 5.62875C38.6574 5.58281 38.6785 5.52328 38.6925 5.45016C38.7066 5.37703 38.7136 5.28937 38.7136 5.18719Z" fill="black" fill-opacity="0.38"/>
    <path d="M36.3238 12.6328H36.352C36.4813 12.6328 36.5892 12.616 36.6754 12.5822C36.7626 12.5475 36.832 12.4997 36.8835 12.4388C36.9351 12.3778 36.9721 12.3061 36.9946 12.2236C37.0171 12.1411 37.0284 12.0516 37.0284 11.955V11.6021C37.0284 11.5186 37.0195 11.4455 37.0017 11.3827C36.9848 11.3189 36.9604 11.266 36.9285 11.2238C36.8976 11.1806 36.8615 11.1483 36.8202 11.1267C36.7799 11.1052 36.7363 11.0944 36.6895 11.0944C36.6379 11.0944 36.5915 11.1061 36.5502 11.1296C36.5099 11.1521 36.4757 11.1835 36.4476 11.2238C36.4204 11.2631 36.3993 11.3096 36.3843 11.363C36.3702 11.4155 36.3632 11.4717 36.3632 11.5317C36.3632 11.588 36.3698 11.6424 36.3829 11.6949C36.397 11.7464 36.4176 11.7924 36.4448 11.8327C36.472 11.873 36.5062 11.9049 36.5474 11.9283C36.5887 11.9517 36.637 11.9635 36.6923 11.9635C36.7448 11.9635 36.7931 11.9536 36.8371 11.9339C36.8812 11.9133 36.9196 11.8856 36.9524 11.851C36.9852 11.8163 37.011 11.7774 37.0298 11.7342C37.0485 11.6911 37.0588 11.6471 37.0607 11.6021L37.1901 11.6414C37.1901 11.7127 37.1751 11.783 37.1451 11.8524C37.116 11.9208 37.0752 11.9836 37.0227 12.0408C36.9712 12.0971 36.9107 12.1421 36.8413 12.1758C36.7729 12.2096 36.6984 12.2264 36.6177 12.2264C36.5202 12.2264 36.434 12.2081 36.359 12.1716C36.2849 12.1341 36.2231 12.0835 36.1734 12.0197C36.1246 11.956 36.0881 11.8828 36.0637 11.8003C36.0393 11.7178 36.0271 11.6311 36.0271 11.5402C36.0271 11.4417 36.0421 11.3494 36.0721 11.2631C36.1021 11.1769 36.1457 11.101 36.2029 11.0353C36.2601 10.9688 36.3295 10.9172 36.411 10.8806C36.4935 10.8431 36.5868 10.8244 36.6909 10.8244C36.8015 10.8244 36.8985 10.846 36.982 10.8891C37.0654 10.9322 37.1357 10.9917 37.1929 11.0677C37.2501 11.1436 37.2932 11.2317 37.3223 11.3321C37.3513 11.4324 37.3659 11.5402 37.3659 11.6555V11.775C37.3659 11.896 37.3551 12.0127 37.3335 12.1252C37.312 12.2367 37.2768 12.3403 37.2281 12.436C37.1802 12.5306 37.117 12.6141 37.0382 12.6863C36.9604 12.7575 36.8648 12.8133 36.7513 12.8536C36.6388 12.893 36.5067 12.9127 36.3548 12.9127H36.3238V12.6328ZM39.0524 11.7047V12.0394C39.0524 12.1997 39.0365 12.3366 39.0046 12.45C38.9737 12.5625 38.9287 12.6539 38.8696 12.7242C38.8106 12.7946 38.7398 12.8461 38.6573 12.8789C38.5757 12.9117 38.4843 12.9281 38.3831 12.9281C38.3024 12.9281 38.2274 12.9178 38.1581 12.8972C38.0896 12.8766 38.0277 12.8442 37.9724 12.8002C37.9171 12.7561 37.8698 12.6994 37.8304 12.63C37.792 12.5597 37.762 12.4758 37.7404 12.3783C37.7198 12.2808 37.7095 12.1678 37.7095 12.0394V11.7047C37.7095 11.5435 37.7254 11.4075 37.7573 11.2969C37.7892 11.1853 37.8346 11.0949 37.8937 11.0255C37.9527 10.9552 38.0231 10.9041 38.1046 10.8722C38.1871 10.8403 38.279 10.8244 38.3802 10.8244C38.4618 10.8244 38.5368 10.8347 38.6052 10.8553C38.6746 10.875 38.7365 10.9064 38.7909 10.9496C38.8462 10.9927 38.8931 11.0489 38.9315 11.1183C38.9709 11.1867 39.0009 11.2697 39.0215 11.3672C39.0421 11.4638 39.0524 11.5763 39.0524 11.7047ZM38.7135 12.0872V11.6541C38.7135 11.5725 38.7088 11.5008 38.6995 11.4389C38.6901 11.3761 38.676 11.3231 38.6573 11.28C38.6395 11.236 38.617 11.2003 38.5898 11.1731C38.5626 11.145 38.5317 11.1249 38.497 11.1127C38.4623 11.0996 38.4234 11.093 38.3802 11.093C38.3277 11.093 38.2809 11.1033 38.2396 11.1239C38.1984 11.1436 38.1637 11.1755 38.1356 11.2196C38.1074 11.2636 38.0859 11.3217 38.0709 11.3939C38.0568 11.4652 38.0498 11.5519 38.0498 11.6541V12.0872C38.0498 12.1697 38.0545 12.2424 38.0638 12.3052C38.0732 12.368 38.0873 12.4219 38.106 12.4669C38.1248 12.511 38.1473 12.5475 38.1735 12.5766C38.2007 12.6047 38.2317 12.6253 38.2663 12.6385C38.302 12.6516 38.3409 12.6581 38.3831 12.6581C38.4365 12.6581 38.4838 12.6478 38.5251 12.6272C38.5663 12.6066 38.601 12.5738 38.6292 12.5288C38.6573 12.4828 38.6784 12.4233 38.6924 12.3502C38.7065 12.2771 38.7135 12.1894 38.7135 12.0872Z" fill="black" fill-opacity="0.38"/>
    <path d="M37.3898 19.2417C37.3898 19.3692 37.3602 19.4766 37.3012 19.5637C37.2421 19.6509 37.1615 19.717 37.0593 19.762C36.9581 19.8061 36.8437 19.8281 36.7162 19.8281C36.5887 19.8281 36.4738 19.8061 36.3717 19.762C36.2695 19.717 36.1888 19.6509 36.1298 19.5637C36.0707 19.4766 36.0412 19.3692 36.0412 19.2417C36.0412 19.1573 36.0576 19.0809 36.0904 19.0125C36.1232 18.9431 36.1696 18.8836 36.2296 18.8339C36.2906 18.7833 36.3618 18.7444 36.4434 18.7172C36.5259 18.69 36.6159 18.6764 36.7134 18.6764C36.8427 18.6764 36.9585 18.7003 37.0607 18.7481C37.1629 18.7959 37.2431 18.862 37.3012 18.9464C37.3602 19.0308 37.3898 19.1292 37.3898 19.2417ZM37.0495 19.2248C37.0495 19.1564 37.0354 19.0964 37.0073 19.0448C36.9792 18.9933 36.9398 18.9534 36.8892 18.9253C36.8385 18.8972 36.7799 18.8831 36.7134 18.8831C36.6459 18.8831 36.5873 18.8972 36.5376 18.9253C36.4879 18.9534 36.449 18.9933 36.4209 19.0448C36.3937 19.0964 36.3801 19.1564 36.3801 19.2248C36.3801 19.2942 36.3937 19.3542 36.4209 19.4048C36.4481 19.4545 36.487 19.4925 36.5376 19.5187C36.5882 19.545 36.6477 19.5581 36.7162 19.5581C36.7846 19.5581 36.8437 19.545 36.8934 19.5187C36.9431 19.4925 36.9815 19.4545 37.0087 19.4048C37.0359 19.3542 37.0495 19.2942 37.0495 19.2248ZM37.3434 18.2911C37.3434 18.3933 37.3162 18.4842 37.2618 18.5639C37.2084 18.6436 37.1343 18.7064 37.0396 18.7523C36.9449 18.7973 36.8371 18.8198 36.7162 18.8198C36.5943 18.8198 36.4856 18.7973 36.3899 18.7523C36.2952 18.7064 36.2207 18.6436 36.1663 18.5639C36.1129 18.4842 36.0862 18.3933 36.0862 18.2911C36.0862 18.1692 36.1129 18.0666 36.1663 17.9831C36.2207 17.8987 36.2952 17.8345 36.3899 17.7905C36.4846 17.7464 36.5929 17.7244 36.7148 17.7244C36.8367 17.7244 36.9449 17.7464 37.0396 17.7905C37.1343 17.8345 37.2084 17.8987 37.2618 17.9831C37.3162 18.0666 37.3434 18.1692 37.3434 18.2911ZM37.0045 18.3023C37.0045 18.2414 36.9923 18.188 36.9679 18.142C36.9445 18.0951 36.9112 18.0586 36.8681 18.0323C36.8249 18.0061 36.7738 17.993 36.7148 17.993C36.6557 17.993 36.6046 18.0056 36.5615 18.0309C36.5184 18.0562 36.4851 18.0919 36.4617 18.1378C36.4382 18.1837 36.4265 18.2386 36.4265 18.3023C36.4265 18.3651 36.4382 18.42 36.4617 18.4669C36.4851 18.5128 36.5184 18.5489 36.5615 18.5751C36.6056 18.6014 36.6571 18.6145 36.7162 18.6145C36.7752 18.6145 36.8263 18.6014 36.8695 18.5751C36.9126 18.5489 36.9459 18.5128 36.9693 18.4669C36.9927 18.42 37.0045 18.3651 37.0045 18.3023ZM39.0524 18.6047V18.9394C39.0524 19.0997 39.0365 19.2366 39.0046 19.35C38.9737 19.4625 38.9287 19.5539 38.8696 19.6242C38.8106 19.6945 38.7398 19.7461 38.6573 19.7789C38.5757 19.8117 38.4843 19.8281 38.3831 19.8281C38.3024 19.8281 38.2274 19.8178 38.1581 19.7972C38.0896 19.7766 38.0277 19.7442 37.9724 19.7001C37.9171 19.6561 37.8698 19.5994 37.8304 19.53C37.792 19.4597 37.762 19.3758 37.7404 19.2783C37.7198 19.1808 37.7095 19.0678 37.7095 18.9394V18.6047C37.7095 18.4434 37.7254 18.3075 37.7573 18.1969C37.7892 18.0853 37.8346 17.9948 37.8937 17.9255C37.9527 17.8551 38.0231 17.8041 38.1046 17.7722C38.1871 17.7403 38.279 17.7244 38.3802 17.7244C38.4618 17.7244 38.5368 17.7347 38.6052 17.7553C38.6746 17.775 38.7365 17.8064 38.7909 17.8495C38.8462 17.8926 38.8931 17.9489 38.9315 18.0183C38.9709 18.0867 39.0009 18.1697 39.0215 18.2672C39.0421 18.3637 39.0524 18.4762 39.0524 18.6047ZM38.7135 18.9872V18.5541C38.7135 18.4725 38.7088 18.4008 38.6995 18.3389C38.6901 18.2761 38.676 18.2231 38.6573 18.18C38.6395 18.1359 38.617 18.1003 38.5898 18.0731C38.5626 18.045 38.5317 18.0248 38.497 18.0126C38.4623 17.9995 38.4234 17.993 38.3802 17.993C38.3277 17.993 38.2809 18.0033 38.2396 18.0239C38.1984 18.0436 38.1637 18.0755 38.1356 18.1195C38.1074 18.1636 38.0859 18.2217 38.0709 18.2939C38.0568 18.3651 38.0498 18.4519 38.0498 18.5541V18.9872C38.0498 19.0697 38.0545 19.1423 38.0638 19.2051C38.0732 19.268 38.0873 19.3219 38.106 19.3669C38.1248 19.4109 38.1473 19.4475 38.1735 19.4766C38.2007 19.5047 38.2317 19.5253 38.2663 19.5384C38.302 19.5516 38.3409 19.5581 38.3831 19.5581C38.4365 19.5581 38.4838 19.5478 38.5251 19.5272C38.5663 19.5066 38.601 19.4737 38.6292 19.4287C38.6573 19.3828 38.6784 19.3233 38.6924 19.2501C38.7065 19.177 38.7135 19.0894 38.7135 18.9872Z" fill="black" fill-opacity="0.38"/>
    <path d="M37.4109 24.6525V24.8381L36.5924 26.7H36.2352L37.0523 24.9225H35.992V24.6525H37.4109ZM39.0524 25.5047V25.8394C39.0524 25.9997 39.0365 26.1366 39.0046 26.25C38.9737 26.3625 38.9287 26.4539 38.8696 26.5242C38.8106 26.5945 38.7398 26.6461 38.6573 26.6789C38.5757 26.7117 38.4843 26.7281 38.3831 26.7281C38.3024 26.7281 38.2274 26.7178 38.1581 26.6972C38.0896 26.6766 38.0277 26.6442 37.9724 26.6002C37.9171 26.5561 37.8698 26.4994 37.8304 26.43C37.792 26.3597 37.762 26.2758 37.7404 26.1783C37.7198 26.0808 37.7095 25.9678 37.7095 25.8394V25.5047C37.7095 25.3434 37.7254 25.2075 37.7573 25.0969C37.7892 24.9853 37.8346 24.8949 37.8937 24.8255C37.9527 24.7552 38.0231 24.7041 38.1046 24.6722C38.1871 24.6403 38.279 24.6244 38.3802 24.6244C38.4618 24.6244 38.5368 24.6347 38.6052 24.6553C38.6746 24.675 38.7365 24.7064 38.7909 24.7495C38.8462 24.7927 38.8931 24.8489 38.9315 24.9183C38.9709 24.9867 39.0009 25.0697 39.0215 25.1672C39.0421 25.2638 39.0524 25.3763 39.0524 25.5047ZM38.7135 25.8872V25.4541C38.7135 25.3725 38.7088 25.3008 38.6995 25.2389C38.6901 25.1761 38.676 25.1231 38.6573 25.08C38.6395 25.0359 38.617 25.0003 38.5898 24.9731C38.5626 24.945 38.5317 24.9249 38.497 24.9127C38.4623 24.8995 38.4234 24.893 38.3802 24.893C38.3277 24.893 38.2809 24.9033 38.2396 24.9239C38.1984 24.9436 38.1637 24.9755 38.1356 25.0195C38.1074 25.0636 38.0859 25.1217 38.0709 25.1939C38.0568 25.2652 38.0498 25.3519 38.0498 25.4541V25.8872C38.0498 25.9697 38.0545 26.0424 38.0638 26.1052C38.0732 26.168 38.0873 26.2219 38.106 26.2669C38.1248 26.3109 38.1473 26.3475 38.1735 26.3766C38.2007 26.4047 38.2317 26.4253 38.2663 26.4384C38.302 26.4516 38.3409 26.4581 38.3831 26.4581C38.4365 26.4581 38.4838 26.4478 38.5251 26.4272C38.5663 26.4066 38.601 26.3738 38.6292 26.3288C38.6573 26.2828 38.6784 26.2233 38.6924 26.1502C38.7065 26.077 38.7135 25.9894 38.7135 25.8872Z" fill="black" fill-opacity="0.38"/>
    <path d="M37.0748 31.5398H37.117V31.8169H37.0931C36.9721 31.8169 36.8676 31.8356 36.7795 31.8731C36.6923 31.9106 36.6206 31.9622 36.5643 32.0278C36.5081 32.0934 36.4659 32.1703 36.4377 32.2584C36.4106 32.3456 36.397 32.4384 36.397 32.5369V32.8589C36.397 32.9404 36.4059 33.0126 36.4237 33.0754C36.4415 33.1373 36.4663 33.1894 36.4982 33.2315C36.531 33.2728 36.5685 33.3042 36.6107 33.3258C36.6529 33.3473 36.6984 33.3581 36.7471 33.3581C36.7977 33.3581 36.8437 33.3478 36.8849 33.3272C36.9262 33.3056 36.9613 33.2761 36.9904 33.2386C37.0195 33.2011 37.0415 33.1565 37.0565 33.105C37.0715 33.0534 37.079 32.9972 37.079 32.9362C37.079 32.8781 37.0715 32.8237 37.0565 32.7731C37.0424 32.7215 37.0213 32.6765 36.9932 32.6381C36.9651 32.5987 36.9299 32.5683 36.8877 32.5467C36.8465 32.5242 36.7987 32.5129 36.7443 32.5129C36.6768 32.5129 36.6154 32.5289 36.5601 32.5608C36.5057 32.5926 36.4617 32.6344 36.4279 32.6859C36.3951 32.7365 36.3773 32.7904 36.3745 32.8476L36.2451 32.8054C36.2526 32.7183 36.2718 32.64 36.3027 32.5706C36.3346 32.5012 36.3763 32.4422 36.4279 32.3934C36.4795 32.3447 36.539 32.3076 36.6065 32.2823C36.6749 32.2561 36.7499 32.2429 36.8315 32.2429C36.9309 32.2429 37.0171 32.2617 37.0902 32.2992C37.1634 32.3367 37.2238 32.3878 37.2717 32.4525C37.3204 32.5162 37.3565 32.5894 37.3799 32.6719C37.4043 32.7534 37.4165 32.8387 37.4165 32.9278C37.4165 33.0262 37.4015 33.1181 37.3715 33.2034C37.3415 33.2878 37.2974 33.3619 37.2393 33.4256C37.1821 33.4894 37.1123 33.539 37.0298 33.5747C36.9482 33.6103 36.8554 33.6281 36.7513 33.6281C36.6417 33.6281 36.5437 33.607 36.4574 33.5648C36.3721 33.5226 36.2995 33.4645 36.2395 33.3904C36.1804 33.3164 36.1354 33.2311 36.1045 33.1345C36.0735 33.0379 36.0581 32.9358 36.0581 32.8279V32.6873C36.0581 32.5317 36.0777 32.385 36.1171 32.2472C36.1565 32.1084 36.217 31.9861 36.2985 31.8801C36.381 31.7742 36.4865 31.6912 36.6149 31.6312C36.7434 31.5703 36.8967 31.5398 37.0748 31.5398ZM39.0524 32.4047V32.7394C39.0524 32.8997 39.0365 33.0365 39.0046 33.15C38.9737 33.2625 38.9287 33.3539 38.8696 33.4242C38.8106 33.4945 38.7398 33.5461 38.6573 33.5789C38.5757 33.6117 38.4843 33.6281 38.3831 33.6281C38.3024 33.6281 38.2274 33.6178 38.1581 33.5972C38.0896 33.5765 38.0277 33.5442 37.9724 33.5001C37.9171 33.4561 37.8698 33.3994 37.8304 33.33C37.792 33.2597 37.762 33.1758 37.7404 33.0783C37.7198 32.9808 37.7095 32.8678 37.7095 32.7394V32.4047C37.7095 32.2434 37.7254 32.1075 37.7573 31.9969C37.7892 31.8853 37.8346 31.7948 37.8937 31.7254C37.9527 31.6551 38.0231 31.604 38.1046 31.5722C38.1871 31.5403 38.279 31.5244 38.3802 31.5244C38.4618 31.5244 38.5368 31.5347 38.6052 31.5553C38.6746 31.575 38.7365 31.6064 38.7909 31.6495C38.8462 31.6926 38.8931 31.7489 38.9315 31.8183C38.9709 31.8867 39.0009 31.9697 39.0215 32.0672C39.0421 32.1637 39.0524 32.2762 39.0524 32.4047ZM38.7135 32.7872V32.354C38.7135 32.2725 38.7088 32.2008 38.6995 32.1389C38.6901 32.0761 38.676 32.0231 38.6573 31.98C38.6395 31.9359 38.617 31.9003 38.5898 31.8731C38.5626 31.845 38.5317 31.8248 38.497 31.8126C38.4623 31.7995 38.4234 31.7929 38.3802 31.7929C38.3277 31.7929 38.2809 31.8033 38.2396 31.8239C38.1984 31.8436 38.1637 31.8754 38.1356 31.9195C38.1074 31.9636 38.0859 32.0217 38.0709 32.0939C38.0568 32.1651 38.0498 32.2519 38.0498 32.354V32.7872C38.0498 32.8697 38.0545 32.9423 38.0638 33.0051C38.0732 33.0679 38.0873 33.1219 38.106 33.1669C38.1248 33.2109 38.1473 33.2475 38.1735 33.2765C38.2007 33.3047 38.2317 33.3253 38.2663 33.3384C38.302 33.3515 38.3409 33.3581 38.3831 33.3581C38.4365 33.3581 38.4838 33.3478 38.5251 33.3272C38.5663 33.3065 38.601 33.2737 38.6292 33.2287C38.6573 33.1828 38.6784 33.1233 38.6924 33.0501C38.7065 32.977 38.7135 32.8894 38.7135 32.7872Z" fill="black" fill-opacity="0.38"/>
    <path d="M36.4068 39.548L36.1368 39.4819L36.2479 38.4525H37.3518V38.7394H36.5292L36.4729 39.2414C36.5048 39.2227 36.5488 39.2044 36.6051 39.1866C36.6613 39.1678 36.7256 39.1584 36.7977 39.1584C36.8943 39.1584 36.9806 39.1744 37.0565 39.2062C37.1334 39.2372 37.1985 39.2827 37.252 39.3427C37.3054 39.4017 37.3462 39.4739 37.3743 39.5592C37.4024 39.6436 37.4165 39.7387 37.4165 39.8447C37.4165 39.9394 37.4024 40.028 37.3743 40.1105C37.3471 40.193 37.3059 40.2656 37.2506 40.3284C37.1952 40.3912 37.1254 40.4405 37.041 40.4761C36.9576 40.5108 36.8587 40.5281 36.7443 40.5281C36.659 40.5281 36.577 40.5159 36.4982 40.4916C36.4204 40.4662 36.3506 40.4292 36.2887 40.3805C36.2268 40.3308 36.1771 40.2698 36.1396 40.1977C36.1021 40.1245 36.0806 40.0406 36.0749 39.9459H36.4068C36.4152 40.0125 36.4335 40.0692 36.4617 40.1161C36.4907 40.162 36.5292 40.1972 36.577 40.2216C36.6248 40.2459 36.6801 40.2581 36.7429 40.2581C36.8001 40.2581 36.8493 40.2483 36.8906 40.2286C36.9318 40.208 36.966 40.1789 36.9932 40.1414C37.0213 40.103 37.042 40.058 37.0551 40.0064C37.0692 39.9548 37.0762 39.8977 37.0762 39.8348C37.0762 39.7748 37.0682 39.72 37.0523 39.6703C37.0373 39.6206 37.0143 39.5775 36.9834 39.5409C36.9534 39.5044 36.9154 39.4762 36.8695 39.4566C36.8235 39.4359 36.7706 39.4256 36.7106 39.4256C36.6299 39.4256 36.5681 39.4373 36.5249 39.4608C36.4827 39.4842 36.4434 39.5133 36.4068 39.548ZM39.0524 39.3047V39.6394C39.0524 39.7997 39.0365 39.9366 39.0046 40.05C38.9737 40.1625 38.9287 40.2539 38.8696 40.3242C38.8106 40.3945 38.7398 40.4461 38.6573 40.4789C38.5757 40.5117 38.4843 40.5281 38.3831 40.5281C38.3024 40.5281 38.2274 40.5178 38.1581 40.4972C38.0896 40.4766 38.0277 40.4442 37.9724 40.4002C37.9171 40.3561 37.8698 40.2994 37.8304 40.23C37.792 40.1597 37.762 40.0758 37.7404 39.9783C37.7198 39.8808 37.7095 39.7678 37.7095 39.6394V39.3047C37.7095 39.1434 37.7254 39.0075 37.7573 38.8969C37.7892 38.7853 37.8346 38.6948 37.8937 38.6255C37.9527 38.5552 38.0231 38.5041 38.1046 38.4722C38.1871 38.4403 38.279 38.4244 38.3802 38.4244C38.4618 38.4244 38.5368 38.4347 38.6052 38.4553C38.6746 38.475 38.7365 38.5064 38.7909 38.5495C38.8462 38.5927 38.8931 38.6489 38.9315 38.7183C38.9709 38.7867 39.0009 38.8697 39.0215 38.9672C39.0421 39.0637 39.0524 39.1762 39.0524 39.3047ZM38.7135 39.6872V39.2541C38.7135 39.1725 38.7088 39.1008 38.6995 39.0389C38.6901 38.9761 38.676 38.9231 38.6573 38.88C38.6395 38.8359 38.617 38.8003 38.5898 38.7731C38.5626 38.745 38.5317 38.7248 38.497 38.7127C38.4623 38.6995 38.4234 38.693 38.3802 38.693C38.3277 38.693 38.2809 38.7033 38.2396 38.7239C38.1984 38.7436 38.1637 38.7755 38.1356 38.8195C38.1074 38.8636 38.0859 38.9217 38.0709 38.9939C38.0568 39.0652 38.0498 39.1519 38.0498 39.2541V39.6872C38.0498 39.7697 38.0545 39.8423 38.0638 39.9052C38.0732 39.968 38.0873 40.0219 38.106 40.0669C38.1248 40.1109 38.1473 40.1475 38.1735 40.1766C38.2007 40.2047 38.2317 40.2253 38.2663 40.2384C38.302 40.2516 38.3409 40.2581 38.3831 40.2581C38.4365 40.2581 38.4838 40.2478 38.5251 40.2272C38.5663 40.2066 38.601 40.1737 38.6292 40.1287C38.6573 40.0828 38.6784 40.0233 38.6924 39.9502C38.7065 39.877 38.7135 39.7894 38.7135 39.6872Z" fill="black" fill-opacity="0.38"/>
    <path d="M37.4615 46.6702V46.9402H35.9849L35.9737 46.7363L36.8568 45.3525H37.1282L36.8343 45.856L36.3267 46.6702H37.4615ZM37.2056 45.3525V47.4H36.8667V45.3525H37.2056ZM39.0524 46.2047V46.5394C39.0524 46.6997 39.0365 46.8366 39.0046 46.95C38.9737 47.0625 38.9287 47.1539 38.8696 47.2242C38.8106 47.2946 38.7398 47.3461 38.6573 47.3789C38.5757 47.4117 38.4843 47.4281 38.3831 47.4281C38.3024 47.4281 38.2274 47.4178 38.1581 47.3972C38.0896 47.3766 38.0277 47.3442 37.9724 47.3002C37.9171 47.2561 37.8698 47.1994 37.8304 47.13C37.792 47.0597 37.762 46.9758 37.7404 46.8783C37.7198 46.7808 37.7095 46.6678 37.7095 46.5394V46.2047C37.7095 46.0435 37.7254 45.9075 37.7573 45.7969C37.7892 45.6853 37.8346 45.5949 37.8937 45.5255C37.9527 45.4552 38.0231 45.4041 38.1046 45.3722C38.1871 45.3403 38.279 45.3244 38.3802 45.3244C38.4618 45.3244 38.5368 45.3347 38.6052 45.3553C38.6746 45.375 38.7365 45.4064 38.7909 45.4496C38.8462 45.4927 38.8931 45.5489 38.9315 45.6183C38.9709 45.6867 39.0009 45.7697 39.0215 45.8672C39.0421 45.9638 39.0524 46.0763 39.0524 46.2047ZM38.7135 46.5872V46.1541C38.7135 46.0725 38.7088 46.0008 38.6995 45.9389C38.6901 45.8761 38.676 45.8231 38.6573 45.78C38.6395 45.736 38.617 45.7003 38.5898 45.6731C38.5626 45.645 38.5317 45.6249 38.497 45.6127C38.4623 45.5996 38.4234 45.593 38.3802 45.593C38.3277 45.593 38.2809 45.6033 38.2396 45.6239C38.1984 45.6436 38.1637 45.6755 38.1356 45.7196C38.1074 45.7636 38.0859 45.8217 38.0709 45.8939C38.0568 45.9652 38.0498 46.0519 38.0498 46.1541V46.5872C38.0498 46.6697 38.0545 46.7424 38.0638 46.8052C38.0732 46.868 38.0873 46.9219 38.106 46.9669C38.1248 47.011 38.1473 47.0475 38.1735 47.0766C38.2007 47.1047 38.2317 47.1253 38.2663 47.1385C38.302 47.1516 38.3409 47.1581 38.3831 47.1581C38.4365 47.1581 38.4838 47.1478 38.5251 47.1272C38.5663 47.1066 38.601 47.0738 38.6292 47.0288C38.6573 46.9828 38.6784 46.9233 38.6924 46.8502C38.7065 46.7771 38.7135 46.6894 38.7135 46.5872Z" fill="black" fill-opacity="0.38"/>
    <path d="M36.449 53.123H36.6515C36.7302 53.123 36.7954 53.1094 36.847 53.0822C36.8995 53.055 36.9384 53.0175 36.9637 52.9697C36.989 52.9219 37.0017 52.867 37.0017 52.8051C37.0017 52.7405 36.9899 52.6851 36.9665 52.6392C36.944 52.5923 36.9093 52.5562 36.8624 52.5309C36.8165 52.5056 36.7579 52.493 36.6867 52.493C36.6267 52.493 36.5723 52.5051 36.5235 52.5295C36.4757 52.553 36.4377 52.5867 36.4096 52.6308C36.3815 52.6739 36.3674 52.7255 36.3674 52.7855H36.0271C36.0271 52.6767 36.0557 52.5801 36.1129 52.4958C36.1701 52.4114 36.2479 52.3453 36.3463 52.2975C36.4457 52.2487 36.5573 52.2244 36.681 52.2244C36.8132 52.2244 36.9285 52.2464 37.027 52.2905C37.1263 52.3336 37.2037 52.3983 37.259 52.4845C37.3143 52.5708 37.342 52.6776 37.342 52.8051C37.342 52.8633 37.3284 52.9223 37.3012 52.9823C37.274 53.0423 37.2337 53.0972 37.1802 53.1469C37.1268 53.1956 37.0602 53.2355 36.9806 53.2664C36.9009 53.2964 36.8085 53.3114 36.7035 53.3114H36.449V53.123ZM36.449 53.3873V53.2017H36.7035C36.8235 53.2017 36.9257 53.2158 37.0101 53.2439C37.0954 53.272 37.1648 53.3109 37.2182 53.3606C37.2717 53.4094 37.3106 53.4651 37.3349 53.528C37.3602 53.5908 37.3729 53.6573 37.3729 53.7276C37.3729 53.8233 37.3556 53.9086 37.3209 53.9836C37.2871 54.0576 37.2388 54.1205 37.176 54.172C37.1132 54.2236 37.0396 54.2625 36.9552 54.2887C36.8718 54.315 36.7809 54.3281 36.6824 54.3281C36.5943 54.3281 36.5099 54.3159 36.4293 54.2916C36.3487 54.2672 36.2765 54.2311 36.2127 54.1833C36.149 54.1345 36.0984 54.0741 36.0609 54.0019C36.0243 53.9287 36.006 53.8444 36.006 53.7487H36.3449C36.3449 53.8097 36.359 53.8636 36.3871 53.9105C36.4162 53.9564 36.4565 53.9925 36.5081 54.0187C36.5606 54.045 36.6206 54.0581 36.6881 54.0581C36.7593 54.0581 36.8207 54.0455 36.8723 54.0201C36.9238 53.9948 36.9632 53.9573 36.9904 53.9076C37.0185 53.858 37.0326 53.798 37.0326 53.7276C37.0326 53.648 37.0171 53.5833 36.9862 53.5336C36.9552 53.4839 36.9112 53.4473 36.854 53.4239C36.7968 53.3995 36.7293 53.3873 36.6515 53.3873H36.449ZM39.0524 53.1047V53.4394C39.0524 53.5997 39.0365 53.7366 39.0046 53.85C38.9737 53.9625 38.9287 54.0539 38.8696 54.1242C38.8106 54.1945 38.7398 54.2461 38.6573 54.2789C38.5757 54.3117 38.4843 54.3281 38.3831 54.3281C38.3024 54.3281 38.2274 54.3178 38.1581 54.2972C38.0896 54.2766 38.0277 54.2442 37.9724 54.2001C37.9171 54.1561 37.8698 54.0994 37.8304 54.03C37.792 53.9597 37.762 53.8758 37.7404 53.7783C37.7198 53.6808 37.7095 53.5678 37.7095 53.4394V53.1047C37.7095 52.9434 37.7254 52.8075 37.7573 52.6969C37.7892 52.5853 37.8346 52.4948 37.8937 52.4255C37.9527 52.3551 38.0231 52.3041 38.1046 52.2722C38.1871 52.2403 38.279 52.2244 38.3802 52.2244C38.4618 52.2244 38.5368 52.2347 38.6052 52.2553C38.6746 52.275 38.7365 52.3064 38.7909 52.3495C38.8462 52.3926 38.8931 52.4489 38.9315 52.5183C38.9709 52.5867 39.0009 52.6697 39.0215 52.7672C39.0421 52.8637 39.0524 52.9762 39.0524 53.1047ZM38.7135 53.4872V53.0541C38.7135 52.9725 38.7088 52.9008 38.6995 52.8389C38.6901 52.7761 38.676 52.7231 38.6573 52.68C38.6395 52.6359 38.617 52.6003 38.5898 52.5731C38.5626 52.545 38.5317 52.5248 38.497 52.5126C38.4623 52.4995 38.4234 52.493 38.3802 52.493C38.3277 52.493 38.2809 52.5033 38.2396 52.5239C38.1984 52.5436 38.1637 52.5755 38.1356 52.6195C38.1074 52.6636 38.0859 52.7217 38.0709 52.7939C38.0568 52.8651 38.0498 52.9519 38.0498 53.0541V53.4872C38.0498 53.5697 38.0545 53.6423 38.0638 53.7051C38.0732 53.768 38.0873 53.8219 38.106 53.8669C38.1248 53.9109 38.1473 53.9475 38.1735 53.9766C38.2007 54.0047 38.2317 54.0253 38.2663 54.0384C38.302 54.0516 38.3409 54.0581 38.3831 54.0581C38.4365 54.0581 38.4838 54.0478 38.5251 54.0272C38.5663 54.0066 38.601 53.9737 38.6292 53.9287C38.6573 53.8828 38.6784 53.8233 38.6924 53.7501C38.7065 53.677 38.7135 53.5894 38.7135 53.4872Z" fill="black" fill-opacity="0.38"/>
    <path d="M37.4235 60.93V61.2H36.051V60.968L36.7176 60.2409C36.7907 60.1584 36.8484 60.0872 36.8906 60.0272C36.9327 59.9672 36.9623 59.9133 36.9792 59.8655C36.997 59.8167 37.0059 59.7694 37.0059 59.7234C37.0059 59.6588 36.9937 59.602 36.9693 59.5533C36.9459 59.5036 36.9112 59.4647 36.8652 59.4366C36.8193 59.4075 36.7635 59.393 36.6979 59.393C36.622 59.393 36.5582 59.4094 36.5067 59.4422C36.4551 59.475 36.4162 59.5205 36.3899 59.5786C36.3637 59.6358 36.3506 59.7014 36.3506 59.7755H36.0117C36.0117 59.6564 36.0388 59.5477 36.0932 59.4492C36.1476 59.3499 36.2263 59.2711 36.3295 59.213C36.4326 59.1539 36.5568 59.1244 36.7021 59.1244C36.839 59.1244 36.9552 59.1474 37.0509 59.1933C37.1465 59.2392 37.2192 59.3044 37.2688 59.3888C37.3195 59.4731 37.3448 59.573 37.3448 59.6883C37.3448 59.752 37.3345 59.8153 37.3138 59.8781C37.2932 59.9409 37.2637 60.0038 37.2252 60.0666C37.1877 60.1284 37.1432 60.1908 37.0917 60.2536C37.0401 60.3155 36.9834 60.3783 36.9215 60.442L36.4785 60.93H37.4235ZM39.0524 60.0047V60.3394C39.0524 60.4997 39.0365 60.6366 39.0046 60.75C38.9737 60.8625 38.9287 60.9539 38.8696 61.0242C38.8106 61.0945 38.7398 61.1461 38.6573 61.1789C38.5757 61.2117 38.4843 61.2281 38.3831 61.2281C38.3024 61.2281 38.2274 61.2178 38.1581 61.1972C38.0896 61.1766 38.0277 61.1442 37.9724 61.1002C37.9171 61.0561 37.8698 60.9994 37.8304 60.93C37.792 60.8597 37.762 60.7758 37.7404 60.6783C37.7198 60.5808 37.7095 60.4678 37.7095 60.3394V60.0047C37.7095 59.8434 37.7254 59.7075 37.7573 59.5969C37.7892 59.4853 37.8346 59.3949 37.8937 59.3255C37.9527 59.2552 38.0231 59.2041 38.1046 59.1722C38.1871 59.1403 38.279 59.1244 38.3802 59.1244C38.4618 59.1244 38.5368 59.1347 38.6052 59.1553C38.6746 59.175 38.7365 59.2064 38.7909 59.2495C38.8462 59.2927 38.8931 59.3489 38.9315 59.4183C38.9709 59.4867 39.0009 59.5697 39.0215 59.6672C39.0421 59.7638 39.0524 59.8763 39.0524 60.0047ZM38.7135 60.3872V59.9541C38.7135 59.8725 38.7088 59.8008 38.6995 59.7389C38.6901 59.6761 38.676 59.6231 38.6573 59.58C38.6395 59.5359 38.617 59.5003 38.5898 59.4731C38.5626 59.445 38.5317 59.4249 38.497 59.4127C38.4623 59.3995 38.4234 59.393 38.3802 59.393C38.3277 59.393 38.2809 59.4033 38.2396 59.4239C38.1984 59.4436 38.1637 59.4755 38.1356 59.5195C38.1074 59.5636 38.0859 59.6217 38.0709 59.6939C38.0568 59.7652 38.0498 59.8519 38.0498 59.9541V60.3872C38.0498 60.4697 38.0545 60.5424 38.0638 60.6052C38.0732 60.668 38.0873 60.7219 38.106 60.7669C38.1248 60.8109 38.1473 60.8475 38.1735 60.8766C38.2007 60.9047 38.2317 60.9253 38.2663 60.9384C38.302 60.9516 38.3409 60.9581 38.3831 60.9581C38.4365 60.9581 38.4838 60.9478 38.5251 60.9272C38.5663 60.9066 38.601 60.8738 38.6292 60.8288C38.6573 60.7828 38.6784 60.7233 38.6924 60.6502C38.7065 60.577 38.7135 60.4894 38.7135 60.3872Z" fill="black" fill-opacity="0.38"/>
    <path d="M36.9763 66.0455V68.1H36.6374V66.4477L36.1354 66.6178V66.338L36.9356 66.0455H36.9763ZM39.0524 66.9047V67.2394C39.0524 67.3997 39.0365 67.5366 39.0046 67.65C38.9737 67.7625 38.9287 67.8539 38.8696 67.9242C38.8106 67.9945 38.7398 68.0461 38.6573 68.0789C38.5757 68.1117 38.4843 68.1281 38.3831 68.1281C38.3024 68.1281 38.2274 68.1178 38.1581 68.0972C38.0896 68.0766 38.0277 68.0442 37.9724 68.0002C37.9171 67.9561 37.8698 67.8994 37.8304 67.83C37.792 67.7597 37.762 67.6758 37.7404 67.5783C37.7198 67.4808 37.7095 67.3678 37.7095 67.2394V66.9047C37.7095 66.7434 37.7254 66.6075 37.7573 66.4969C37.7892 66.3853 37.8346 66.2948 37.8937 66.2255C37.9527 66.1552 38.0231 66.1041 38.1046 66.0722C38.1871 66.0403 38.279 66.0244 38.3802 66.0244C38.4618 66.0244 38.5368 66.0347 38.6052 66.0553C38.6746 66.075 38.7365 66.1064 38.7909 66.1495C38.8462 66.1927 38.8931 66.2489 38.9315 66.3183C38.9709 66.3867 39.0009 66.4697 39.0215 66.5672C39.0421 66.6638 39.0524 66.7763 39.0524 66.9047ZM38.7135 67.2872V66.8541C38.7135 66.7725 38.7088 66.7008 38.6995 66.6389C38.6901 66.5761 38.676 66.5231 38.6573 66.48C38.6395 66.4359 38.617 66.4003 38.5898 66.3731C38.5626 66.345 38.5317 66.3248 38.497 66.3127C38.4623 66.2995 38.4234 66.293 38.3802 66.293C38.3277 66.293 38.2809 66.3033 38.2396 66.3239C38.1984 66.3436 38.1637 66.3755 38.1356 66.4195C38.1074 66.4636 38.0859 66.5217 38.0709 66.5939C38.0568 66.6652 38.0498 66.7519 38.0498 66.8541V67.2872C38.0498 67.3697 38.0545 67.4423 38.0638 67.5052C38.0732 67.568 38.0873 67.6219 38.106 67.6669C38.1248 67.7109 38.1473 67.7475 38.1735 67.7766C38.2007 67.8047 38.2317 67.8253 38.2663 67.8384C38.302 67.8516 38.3409 67.8581 38.3831 67.8581C38.4365 67.8581 38.4838 67.8478 38.5251 67.8272C38.5663 67.8066 38.601 67.7738 38.6292 67.7288C38.6573 67.6828 38.6784 67.6233 38.6924 67.5502C38.7065 67.477 38.7135 67.3894 38.7135 67.2872Z" fill="black" fill-opacity="0.38"/>
    <path d="M39.0524 73.8047V74.1394C39.0524 74.2997 39.0365 74.4366 39.0046 74.55C38.9737 74.6625 38.9287 74.7539 38.8696 74.8242C38.8106 74.8945 38.7398 74.9461 38.6573 74.9789C38.5757 75.0117 38.4843 75.0281 38.3831 75.0281C38.3024 75.0281 38.2274 75.0178 38.1581 74.9972C38.0896 74.9766 38.0277 74.9442 37.9724 74.9002C37.9171 74.8561 37.8698 74.7994 37.8304 74.73C37.792 74.6597 37.762 74.5758 37.7404 74.4783C37.7198 74.3808 37.7095 74.2678 37.7095 74.1394V73.8047C37.7095 73.6434 37.7254 73.5075 37.7573 73.3969C37.7892 73.2853 37.8346 73.1948 37.8937 73.1255C37.9527 73.0552 38.0231 73.0041 38.1046 72.9722C38.1871 72.9403 38.279 72.9244 38.3802 72.9244C38.4618 72.9244 38.5368 72.9347 38.6052 72.9553C38.6746 72.975 38.7365 73.0064 38.7909 73.0495C38.8462 73.0927 38.8931 73.1489 38.9315 73.2183C38.9709 73.2867 39.0009 73.3697 39.0215 73.4672C39.0421 73.5637 39.0524 73.6762 39.0524 73.8047ZM38.7135 74.1872V73.7541C38.7135 73.6725 38.7088 73.6008 38.6995 73.5389C38.6901 73.4761 38.676 73.4231 38.6573 73.38C38.6395 73.3359 38.617 73.3003 38.5898 73.2731C38.5626 73.245 38.5317 73.2248 38.497 73.2127C38.4623 73.1995 38.4234 73.193 38.3802 73.193C38.3277 73.193 38.2809 73.2033 38.2396 73.2239C38.1984 73.2436 38.1637 73.2755 38.1356 73.3195C38.1074 73.3636 38.0859 73.4217 38.0709 73.4939C38.0568 73.5652 38.0498 73.6519 38.0498 73.7541V74.1872C38.0498 74.2697 38.0545 74.3423 38.0638 74.4052C38.0732 74.468 38.0873 74.5219 38.106 74.5669C38.1248 74.6109 38.1473 74.6475 38.1735 74.6766C38.2007 74.7047 38.2317 74.7253 38.2663 74.7384C38.302 74.7516 38.3409 74.7581 38.3831 74.7581C38.4365 74.7581 38.4838 74.7478 38.5251 74.7272C38.5663 74.7066 38.601 74.6737 38.6292 74.6287C38.6573 74.5828 38.6784 74.5233 38.6924 74.4502C38.7065 74.377 38.7135 74.2894 38.7135 74.1872Z" fill="black" fill-opacity="0.38"/>
    <path d="M148 44V27.04" stroke="black" stroke-opacity="0.87" stroke-width="0.64"/>
    <path d="M148.32 44L116 25.44V62.56L148.32 44Z" fill="white"/>
    <path d="M116.32 25.9926V62.0073L147.677 44.0004L116.32 25.9926Z" stroke="black" stroke-opacity="0.87" stroke-width="0.64"/>
    <path d="M147.68 44L180 25.44V62.56L147.68 44Z" fill="white"/>
    <path d="M179.68 25.9926V62.0073L148.323 44.0004L179.68 25.9926Z" stroke="black" stroke-opacity="0.87" stroke-width="0.64"/>
    <rect x="132.96" y="27.04" width="14.72" height="30.08" transform="rotate(-90 132.96 27.04)" stroke="black" stroke-opacity="0.87" stroke-width="0.64"/>
    <path d="M32.6096 139.62H58.589L67.8001 151.5H23.3401L32.6096 139.62Z" fill="white"/>
    <path d="M58.5002 139.8L67.4329 151.32H23.7092L32.6975 139.8H58.5002Z" stroke="black" stroke-opacity="0.87" stroke-width="0.36"/>
    <rect x="16.2786" y="151.203" width="58.6472" height="4.79665" rx="0.836856" fill="white"/>
    <rect x="16.4586" y="151.383" width="58.2872" height="4.43665" rx="0.656856" stroke="black" stroke-opacity="0.87" stroke-width="0.36"/>
    <rect x="43.5" y="84" width="40.5" height="24.0599" fill="white"/>
    <rect x="43.68" y="84.18" width="40.14" height="23.6999" stroke="black" stroke-opacity="0.87" stroke-width="0.36"/>
    <circle cx="45.57" cy="117.57" r="33.57" fill="white"/>
    <circle cx="45.57" cy="117.57" r="33.39" stroke="black" stroke-opacity="0.87" stroke-width="0.36"/>
    <ellipse cx="45.6036" cy="117.627" rx="21.6322" ry="21.5849" fill="white"/>
    <path d="M45.6033 96.2227C57.4512 96.2227 67.0554 105.806 67.0554 117.627C67.0554 129.448 57.4512 139.031 45.6033 139.031C33.7555 139.031 24.1521 129.448 24.1521 117.627C24.1521 105.806 33.7555 96.2229 45.6033 96.2227Z" stroke="black" stroke-opacity="0.12" stroke-width="0.360465"/>
    <g clip-path="url(#clip0_3_27507)">
        <path d="M44.9022 104.152C43.269 99.9577 41.2799 98.1134 40.1544 96.6478L33.9515 96.8109L29.571 102.074C29.9304 101.684 31.8349 102.054 36.5775 106.657C41.32 111.26 43.016 115.454 43.2712 116.975L46.6028 114.748C46.6028 111.478 46.5354 108.347 44.9022 104.152Z" fill="white" stroke="#727171" stroke-width="0.36"/>
        <path d="M57.7572 110.728C60.7173 107.337 61.4298 104.72 62.207 103.043L59.1879 97.622L52.4942 96.1792C53.0065 96.3169 53.5608 98.1762 51.6799 104.512C49.799 110.847 46.8685 114.294 45.6384 115.225L49.1557 117.145C52.0537 115.63 54.7971 114.119 57.7572 110.728Z" fill="white" stroke="#727171" stroke-width="0.36"/>
        <path d="M59.8157 124.651C64.2936 125.109 66.8418 124.179 68.6593 123.845L71.341 118.249L68.6526 111.951C68.8361 112.449 67.6385 113.975 61.3802 116.099C55.1219 118.223 50.6159 117.821 49.1451 117.355L48.3801 121.049C51.2911 122.539 55.3378 124.193 59.8157 124.651Z" fill="white" stroke="#727171" stroke-width="0.36"/>
        <path d="M34.031 124.568C30.8806 127.783 28.9682 130.39 28.0958 132.019L30.7978 137.605L37.3975 139.43C36.894 139.263 36.4475 137.375 38.69 131.158C40.9324 124.942 44.0565 121.67 45.3382 120.811L42.6272 118.774C39.6467 120.121 37.1814 121.353 34.031 124.568Z" fill="white" stroke="#727171" stroke-width="0.36"/>
        <path d="M46.2343 130.811C47.7163 135.061 49.4439 137.218 50.5163 138.723L56.7211 138.782L61.2871 133.679C60.9139 134.056 58.2518 133.641 53.677 128.871C49.1022 124.102 47.8192 121.507 47.6186 119.977L45.0146 120.749C44.8976 124.018 44.7523 126.561 46.2343 130.811Z" fill="white" stroke="#727171" stroke-width="0.36"/>
        <path d="M33.6574 111.793C29.2596 110.834 26.6229 111.471 24.7794 111.598L21.4842 116.856L23.4458 123.416C23.3196 122.901 24.6815 121.519 31.1393 120.114C37.597 118.709 42.8487 118.376 44.2575 119.006L43.8757 116.225C41.1512 114.416 38.0552 112.753 33.6574 111.793Z" fill="white" stroke="#727171" stroke-width="0.36"/>
        <circle cx="45.6103" cy="117.681" r="4.47701" fill="#CCCCCC" stroke="black" stroke-opacity="0.87" stroke-width="0.36"/>
        <circle cx="45.6106" cy="117.681" r="2.23851" fill="#727171"/>
    </g>
    <mask id="path-94-inside-1_3_27507" fill="white">
        <path d="M67.2358 117.627C67.2358 129.548 57.5507 139.212 45.6036 139.212C33.6565 139.212 23.9714 129.548 23.9714 117.627C23.9714 105.706 33.6565 96.0421 45.6036 96.0421C57.5507 96.0421 67.2358 105.706 67.2358 117.627ZM27.3412 117.627C27.3412 127.691 35.5175 135.85 45.6036 135.85C55.6897 135.85 63.8661 127.691 63.8661 117.627C63.8661 107.563 55.6897 99.4044 45.6036 99.4044C35.5175 99.4044 27.3412 107.563 27.3412 117.627Z"/>
    </mask>
    <path d="M67.2358 117.627C67.2358 129.548 57.5507 139.212 45.6036 139.212C33.6565 139.212 23.9714 129.548 23.9714 117.627C23.9714 105.706 33.6565 96.0421 45.6036 96.0421C57.5507 96.0421 67.2358 105.706 67.2358 117.627ZM27.3412 117.627C27.3412 127.691 35.5175 135.85 45.6036 135.85C55.6897 135.85 63.8661 127.691 63.8661 117.627C63.8661 107.563 55.6897 99.4044 45.6036 99.4044C35.5175 99.4044 27.3412 107.563 27.3412 117.627Z" fill="#DEDEDE" stroke="black" stroke-opacity="0.87" stroke-width="0.720001" mask="url(#path-94-inside-1_3_27507)"/>
    <rect x="122" y="152.52" width="36" height="3.48" rx="0.839573" fill="white"/>
    <rect x="122.12" y="152.64" width="35.76" height="3.24" rx="0.719573" stroke="black" stroke-opacity="0.87" stroke-width="0.24"/>
    <path d="M128.36 149.04H151.64L155.48 152.76H124.52L128.36 149.04Z" fill="white"/>
    <path d="M151.591 149.16L155.183 152.64H124.817L128.409 149.16H151.591Z" stroke="black" stroke-opacity="0.87" stroke-width="0.24"/>
    <rect x="92" y="84" width="96" height="65.28" rx="3.84" fill="white"/>
    <rect x="92.12" y="84.12" width="95.76" height="65.04" rx="3.72" stroke="black" stroke-opacity="0.87" stroke-width="0.24"/>
    <rect x="101.6" y="92.64" width="21.6" height="15.36" rx="0.96" fill="white"/>
    <rect x="101.72" y="92.76" width="21.36" height="15.12" rx="0.84" stroke="black" stroke-opacity="0.87" stroke-width="0.24"/>
    <path d="M112.197 101.37V101.82H109.909V101.433L111.02 100.222C111.142 100.084 111.238 99.9653 111.309 99.8653C111.379 99.7653 111.428 99.6755 111.456 99.5958C111.486 99.5145 111.501 99.4356 111.501 99.3591C111.501 99.2513 111.481 99.1567 111.44 99.0755C111.401 98.9927 111.343 98.9278 111.266 98.8809C111.19 98.8325 111.097 98.8083 110.988 98.8083C110.861 98.8083 110.755 98.8356 110.669 98.8903C110.583 98.945 110.518 99.0208 110.474 99.1177C110.431 99.213 110.409 99.3224 110.409 99.4458H109.844C109.844 99.2474 109.889 99.0661 109.98 98.902C110.07 98.7364 110.202 98.6052 110.373 98.5083C110.545 98.4099 110.752 98.3606 110.995 98.3606C111.223 98.3606 111.416 98.3989 111.576 98.4755C111.735 98.552 111.856 98.6606 111.939 98.8013C112.023 98.9419 112.066 99.1083 112.066 99.3005C112.066 99.4067 112.048 99.5122 112.014 99.6169C111.98 99.7216 111.931 99.8263 111.866 99.9309C111.804 100.034 111.73 100.138 111.644 100.243C111.558 100.346 111.463 100.45 111.36 100.557L110.622 101.37H112.197ZM114.945 98.4075V98.7169L113.581 101.82H112.985L114.347 98.8575H112.58V98.4075H114.945Z" fill="#002878"/>
    <g filter="url(#filter0_d_3_27507)">
        <g clip-path="url(#clip1_3_27507)">
            <path d="M113.12 110.618C113.12 109.967 113.647 109.44 114.298 109.44H122.617C123.267 109.44 123.795 109.967 123.795 110.618V118.822C123.795 119.473 123.267 120 122.617 120H114.298C113.647 120 113.12 119.473 113.12 118.822V110.618Z" fill="white"/>
            <g filter="url(#filter1_d_3_27507)">
                <path d="M123.795 110.618C123.795 109.967 123.267 109.44 122.617 109.44H114.298C113.647 109.44 113.12 109.967 113.12 110.618V118.822C113.12 119.473 113.647 120 114.298 120H122.617C123.267 120 123.795 119.473 123.795 118.822V110.618Z" fill="white"/>
                <path d="M122.617 109.56H114.298C113.714 109.56 113.24 110.034 113.24 110.618V118.822C113.24 119.406 113.714 119.88 114.298 119.88H122.617C123.201 119.88 123.675 119.406 123.675 118.822V110.618C123.675 110.034 123.201 109.56 122.617 109.56Z" stroke="black" stroke-opacity="0.87" stroke-width="0.24"/>
                <path d="M120.389 113.84C120.497 113.84 120.55 113.97 120.474 114.045L118.542 115.957C118.495 116.003 118.42 116.003 118.373 115.957L116.441 114.045C116.365 113.97 116.418 113.84 116.525 113.84H120.389Z" fill="black" fill-opacity="0.87"/>
            </g>
        </g>
        <path d="M114.298 109.56H122.617C123.201 109.56 123.675 110.034 123.675 110.618V118.822C123.675 119.406 123.201 119.88 122.617 119.88H114.298C113.714 119.88 113.24 119.406 113.24 118.822V110.618C113.24 110.034 113.714 109.56 114.298 109.56Z" stroke="black" stroke-opacity="0.38" stroke-width="0.24"/>
    </g>
    <g filter="url(#filter2_d_3_27507)">
        <path d="M111.68 118.823C111.68 119.473 111.152 120 110.502 120H102.297C101.647 120 101.12 119.473 101.12 118.823V110.618C101.12 109.967 101.647 109.44 102.297 109.44H110.502C111.152 109.44 111.68 109.967 111.68 110.618V118.823Z" fill="white"/>
        <path d="M110.502 119.88H102.298C101.714 119.88 101.239 119.407 101.239 118.823V110.617C101.239 110.033 101.714 109.56 102.298 109.56H110.502C111.086 109.56 111.559 110.033 111.56 110.617V118.823C111.56 119.407 111.086 119.88 110.502 119.88Z" stroke="black" stroke-opacity="0.87" stroke-width="0.24"/>
        <path d="M108.31 115.6C108.417 115.6 108.471 115.471 108.395 115.395L106.485 113.485C106.438 113.438 106.362 113.438 106.315 113.485L104.405 115.395C104.329 115.471 104.383 115.6 104.489 115.6H108.31Z" fill="black" fill-opacity="0.87"/>
    </g>
    <ellipse cx="157.04" cy="118.08" rx="21.6" ry="21.6" fill="white"/>
    <path d="M157.04 96.6597C168.869 96.6597 178.46 106.25 178.46 118.08C178.46 129.91 168.87 139.501 157.04 139.501C145.21 139.5 135.62 129.909 135.62 118.08C135.62 106.25 145.21 96.6599 157.04 96.6597Z" stroke="black" stroke-opacity="0.12" stroke-width="0.359817"/>
    <g clip-path="url(#clip2_3_27507)">
        <path d="M156.334 104.576C154.703 100.389 152.718 98.5477 151.594 97.0847L145.402 97.2475L141.03 102.501C141.389 102.112 143.29 102.481 148.024 107.076C152.758 111.67 154.451 115.857 154.706 117.376L158.031 115.153C158.031 111.888 157.964 108.763 156.334 104.576Z" stroke="#727171" stroke-width="0.391739"/>
        <path d="M169.165 111.139C172.12 107.754 172.831 105.142 173.607 103.468L170.594 98.0569L163.912 96.6167C164.423 96.7542 164.977 98.6101 163.099 104.934C161.222 111.258 158.296 114.699 157.068 115.628L160.579 117.545C163.472 116.032 166.211 114.524 169.165 111.139Z" stroke="#727171" stroke-width="0.391739"/>
        <path d="M171.22 125.037C175.69 125.495 178.233 124.566 180.048 124.233L182.725 118.647L180.041 112.361C180.224 112.858 179.029 114.381 172.782 116.501C166.535 118.621 162.037 118.22 160.569 117.755L159.805 121.442C162.711 122.93 166.75 124.58 171.22 125.037Z" stroke="#727171" stroke-width="0.391739"/>
        <path d="M145.482 124.954C142.337 128.163 140.428 130.766 139.558 132.392L142.255 137.968L148.843 139.79C148.34 139.623 147.894 137.739 150.133 131.533C152.371 125.327 155.49 122.061 156.769 121.204L154.063 119.171C151.088 120.515 148.627 121.745 145.482 124.954Z" stroke="#727171" stroke-width="0.391739"/>
        <path d="M157.663 131.186C159.142 135.429 160.867 137.581 161.937 139.084L168.131 139.142L172.689 134.049C172.316 134.425 169.659 134.01 165.092 129.25C160.526 124.489 159.245 121.899 159.045 120.372L156.445 121.142C156.329 124.405 156.184 126.943 157.663 131.186Z" stroke="#727171" stroke-width="0.391739"/>
        <path d="M145.109 112.202C140.719 111.245 138.087 111.88 136.247 112.007L132.958 117.255L134.916 123.804C134.79 123.29 136.149 121.911 142.595 120.508C149.042 119.106 154.284 118.774 155.69 119.402L155.309 116.626C152.589 114.82 149.499 113.16 145.109 112.202Z" stroke="#727171" stroke-width="0.391739"/>
        <circle cx="157.04" cy="118.08" r="4.46897" fill="white" stroke="black" stroke-opacity="0.87" stroke-width="0.24"/>
        <circle cx="157.04" cy="118.08" r="2.23448" fill="#727171"/>
    </g>
    <mask id="path-123-inside-2_3_27507" fill="white">
        <path d="M178.64 118.08C178.64 130.009 168.969 139.68 157.04 139.68C145.111 139.68 135.44 130.009 135.44 118.08C135.44 106.151 145.111 96.48 157.04 96.48C168.969 96.48 178.64 106.151 178.64 118.08ZM138.805 118.08C138.805 128.151 146.969 136.315 157.04 136.315C167.111 136.315 175.275 128.151 175.275 118.08C175.275 108.009 167.111 99.8447 157.04 99.8447C146.969 99.8447 138.805 108.009 138.805 118.08Z"/>
    </mask>
    <path d="M178.64 118.08C178.64 130.009 168.969 139.68 157.04 139.68C145.111 139.68 135.44 130.009 135.44 118.08C135.44 106.151 145.111 96.48 157.04 96.48C168.969 96.48 178.64 106.151 178.64 118.08ZM138.805 118.08C138.805 128.151 146.969 136.315 157.04 136.315C167.111 136.315 175.275 128.151 175.275 118.08C175.275 108.009 167.111 99.8447 157.04 99.8447C146.969 99.8447 138.805 108.009 138.805 118.08Z" fill="#DEDEDE" stroke="black" stroke-opacity="0.87" stroke-width="0.48" mask="url(#path-123-inside-2_3_27507)"/>
    <defs>
        <filter id="filter0_d_3_27507" x="108.409" y="107.085" width="20.0963" height="19.9817" filterUnits="userSpaceOnUse" color-interpolation-filters="sRGB">
            <feFlood flood-opacity="0" result="BackgroundImageFix"/>
            <feColorMatrix in="SourceAlpha" type="matrix" values="0 0 0 0 0 0 0 0 0 0 0 0 0 0 0 0 0 0 127 0" result="hardAlpha"/>
            <feOffset dy="2.35544"/>
            <feGaussianBlur stdDeviation="2.35544"/>
            <feComposite in2="hardAlpha" operator="out"/>
            <feColorMatrix type="matrix" values="0 0 0 0 0 0 0 0 0 0 0 0 0 0 0 0 0 0 0.04 0"/>
            <feBlend mode="normal" in2="BackgroundImageFix" result="effect1_dropShadow_3_27507"/>
            <feBlend mode="normal" in="SourceGraphic" in2="effect1_dropShadow_3_27507" result="shape"/>
        </filter>
        <filter id="filter1_d_3_27507" x="109.932" y="107.846" width="17.0513" height="16.9368" filterUnits="userSpaceOnUse" color-interpolation-filters="sRGB">
            <feFlood flood-opacity="0" result="BackgroundImageFix"/>
            <feColorMatrix in="SourceAlpha" type="matrix" values="0 0 0 0 0 0 0 0 0 0 0 0 0 0 0 0 0 0 127 0" result="hardAlpha"/>
            <feOffset dy="1.59419"/>
            <feGaussianBlur stdDeviation="1.59419"/>
            <feComposite in2="hardAlpha" operator="out"/>
            <feColorMatrix type="matrix" values="0 0 0 0 0 0 0 0 0 0 0 0 0 0 0 0 0 0 0.04 0"/>
            <feBlend mode="normal" in2="BackgroundImageFix" result="effect1_dropShadow_3_27507"/>
            <feBlend mode="normal" in="SourceGraphic" in2="effect1_dropShadow_3_27507" result="shape"/>
        </filter>
        <filter id="filter2_d_3_27507" x="97.9312" y="107.846" width="16.9368" height="16.937" filterUnits="userSpaceOnUse" color-interpolation-filters="sRGB">
            <feFlood flood-opacity="0" result="BackgroundImageFix"/>
            <feColorMatrix in="SourceAlpha" type="matrix" values="0 0 0 0 0 0 0 0 0 0 0 0 0 0 0 0 0 0 127 0" result="hardAlpha"/>
            <feOffset dy="1.59419"/>
            <feGaussianBlur stdDeviation="1.59419"/>
            <feComposite in2="hardAlpha" operator="out"/>
            <feColorMatrix type="matrix" values="0 0 0 0 0 0 0 0 0 0 0 0 0 0 0 0 0 0 0.04 0"/>
            <feBlend mode="normal" in2="BackgroundImageFix" result="effect1_dropShadow_3_27507"/>
            <feBlend mode="normal" in="SourceGraphic" in2="effect1_dropShadow_3_27507" result="shape"/>
        </filter>
        <clipPath id="clip0_3_27507">
            <rect x="23.9714" y="96.0421" width="43.2644" height="43.1699" rx="21.5849" fill="white"/>
        </clipPath>
        <clipPath id="clip1_3_27507">
            <path d="M113.12 110.618C113.12 109.967 113.647 109.44 114.298 109.44H122.617C123.267 109.44 123.795 109.967 123.795 110.618V118.822C123.795 119.473 123.267 120 122.617 120H114.298C113.647 120 113.12 119.473 113.12 118.822V110.618Z" fill="white"/>
        </clipPath>
        <clipPath id="clip2_3_27507">
            <rect x="135.44" y="96.48" width="43.2" height="43.2" rx="21.6" fill="white"/>
        </clipPath>
    </defs>
</svg>
