<svg width="200" height="160" viewBox="0 0 200 160" fill="none" xmlns="http://www.w3.org/2000/svg">
<g clip-path="url(#clip0_18128_21901)">
<rect y="84" width="200" height="76" rx="4" fill="white"/>
<rect x="0.5" y="84.5" width="199" height="75" rx="3.5" stroke="black" stroke-opacity="0.12"/>
<path d="M10.5273 101.961L12.0234 97.3125H13.1055L11.0664 103H10.3359L10.5273 101.961ZM9.14453 97.3125L10.6289 101.961L10.832 103H10.0977L8.06641 97.3125H9.14453ZM18.4727 100V100.312C18.4727 100.742 18.4167 101.128 18.3047 101.469C18.1927 101.81 18.0326 102.1 17.8242 102.34C17.6185 102.579 17.3711 102.763 17.082 102.891C16.793 103.016 16.4727 103.078 16.1211 103.078C15.7721 103.078 15.4531 103.016 15.1641 102.891C14.8776 102.763 14.6289 102.579 14.418 102.34C14.207 102.1 14.043 101.81 13.9258 101.469C13.8112 101.128 13.7539 100.742 13.7539 100.312V100C13.7539 99.5703 13.8112 99.1862 13.9258 98.8477C14.0404 98.5065 14.2018 98.2161 14.4102 97.9766C14.6211 97.7344 14.8698 97.5508 15.1562 97.4258C15.4453 97.2982 15.7643 97.2344 16.1133 97.2344C16.4648 97.2344 16.7852 97.2982 17.0742 97.4258C17.3633 97.5508 17.612 97.7344 17.8203 97.9766C18.0286 98.2161 18.1888 98.5065 18.3008 98.8477C18.4154 99.1862 18.4727 99.5703 18.4727 100ZM17.4922 100.312V99.9922C17.4922 99.6745 17.4609 99.3945 17.3984 99.1523C17.3385 98.9076 17.2487 98.7031 17.1289 98.5391C17.0117 98.3724 16.8672 98.2474 16.6953 98.1641C16.5234 98.0781 16.3294 98.0352 16.1133 98.0352C15.8971 98.0352 15.7044 98.0781 15.5352 98.1641C15.3659 98.2474 15.2214 98.3724 15.1016 98.5391C14.9844 98.7031 14.8945 98.9076 14.832 99.1523C14.7695 99.3945 14.7383 99.6745 14.7383 99.9922V100.312C14.7383 100.63 14.7695 100.911 14.832 101.156C14.8945 101.401 14.9857 101.608 15.1055 101.777C15.2279 101.944 15.3737 102.07 15.543 102.156C15.7122 102.24 15.9049 102.281 16.1211 102.281C16.3398 102.281 16.5339 102.24 16.7031 102.156C16.8724 102.07 17.0156 101.944 17.1328 101.777C17.25 101.608 17.3385 101.401 17.3984 101.156C17.4609 100.911 17.4922 100.63 17.4922 100.312ZM23.0625 101.148H24.0391C24.0078 101.521 23.9036 101.853 23.7266 102.145C23.5495 102.434 23.3008 102.661 22.9805 102.828C22.6602 102.995 22.2708 103.078 21.8125 103.078C21.4609 103.078 21.1445 103.016 20.8633 102.891C20.582 102.763 20.3411 102.583 20.1406 102.352C19.9401 102.117 19.7865 101.835 19.6797 101.504C19.5755 101.173 19.5234 100.803 19.5234 100.395V99.9219C19.5234 99.513 19.5768 99.1432 19.6836 98.8125C19.793 98.4818 19.9492 98.1992 20.1523 97.9648C20.3555 97.7279 20.599 97.5469 20.8828 97.4219C21.1693 97.2969 21.4909 97.2344 21.8477 97.2344C22.3008 97.2344 22.6836 97.3177 22.9961 97.4844C23.3086 97.651 23.5508 97.8815 23.7227 98.1758C23.8971 98.4701 24.0039 98.8073 24.043 99.1875H23.0664C23.0404 98.9427 22.9831 98.7331 22.8945 98.5586C22.8086 98.3841 22.681 98.2513 22.5117 98.1602C22.3424 98.0664 22.1211 98.0195 21.8477 98.0195C21.6237 98.0195 21.4284 98.0612 21.2617 98.1445C21.0951 98.2279 20.9557 98.3503 20.8438 98.5117C20.7318 98.6732 20.6471 98.8724 20.5898 99.1094C20.5352 99.3438 20.5078 99.612 20.5078 99.9141V100.395C20.5078 100.681 20.5326 100.941 20.582 101.176C20.6341 101.408 20.7122 101.607 20.8164 101.773C20.9232 101.94 21.0586 102.069 21.2227 102.16C21.3867 102.251 21.5833 102.297 21.8125 102.297C22.0911 102.297 22.3164 102.253 22.4883 102.164C22.6628 102.076 22.7943 101.947 22.8828 101.777C22.974 101.605 23.0339 101.396 23.0625 101.148ZM27.457 101.855C27.457 101.762 27.4336 101.677 27.3867 101.602C27.3398 101.523 27.25 101.453 27.1172 101.391C26.987 101.328 26.7943 101.271 26.5391 101.219C26.3151 101.169 26.1094 101.111 25.9219 101.043C25.737 100.973 25.5781 100.888 25.4453 100.789C25.3125 100.69 25.2096 100.573 25.1367 100.438C25.0638 100.302 25.0273 100.146 25.0273 99.9688C25.0273 99.7969 25.0651 99.6341 25.1406 99.4805C25.2161 99.3268 25.3242 99.1914 25.4648 99.0742C25.6055 98.957 25.776 98.8646 25.9766 98.7969C26.1797 98.7292 26.4062 98.6953 26.6562 98.6953C27.0104 98.6953 27.3138 98.7552 27.5664 98.875C27.8216 98.9922 28.0169 99.1523 28.1523 99.3555C28.2878 99.556 28.3555 99.7826 28.3555 100.035H27.4141C27.4141 99.9232 27.3854 99.819 27.3281 99.7227C27.2734 99.6237 27.1901 99.5443 27.0781 99.4844C26.9661 99.4219 26.8255 99.3906 26.6562 99.3906C26.4948 99.3906 26.3607 99.4167 26.2539 99.4688C26.1497 99.5182 26.0716 99.5833 26.0195 99.6641C25.9701 99.7448 25.9453 99.8333 25.9453 99.9297C25.9453 100 25.9583 100.064 25.9844 100.121C26.013 100.176 26.0599 100.227 26.125 100.273C26.1901 100.318 26.2786 100.359 26.3906 100.398C26.5052 100.438 26.6484 100.475 26.8203 100.512C27.1432 100.579 27.4206 100.667 27.6523 100.773C27.8867 100.878 28.0664 101.013 28.1914 101.18C28.3164 101.344 28.3789 101.552 28.3789 101.805C28.3789 101.992 28.3385 102.164 28.2578 102.32C28.1797 102.474 28.0651 102.608 27.9141 102.723C27.763 102.835 27.582 102.922 27.3711 102.984C27.1628 103.047 26.9284 103.078 26.668 103.078C26.2852 103.078 25.9609 103.01 25.6953 102.875C25.4297 102.737 25.2279 102.561 25.0898 102.348C24.9544 102.132 24.8867 101.908 24.8867 101.676H25.7969C25.8073 101.85 25.8555 101.99 25.9414 102.094C26.0299 102.195 26.1393 102.27 26.2695 102.316C26.4023 102.361 26.5391 102.383 26.6797 102.383C26.849 102.383 26.9909 102.361 27.1055 102.316C27.2201 102.27 27.3073 102.207 27.3672 102.129C27.4271 102.048 27.457 101.957 27.457 101.855Z" fill="black" fill-opacity="0.87"/>
<path d="M13.769 132.873V145H11.7686V135.247L8.80518 136.251V134.599L13.5283 132.873H13.769ZM21.5884 132.873V145H19.5879V135.247L16.6245 136.251V134.599L21.3477 132.873H21.5884ZM32.5952 137.944V139.92C32.5952 140.866 32.5011 141.674 32.313 142.344C32.1304 143.008 31.8647 143.547 31.5161 143.962C31.1675 144.377 30.7497 144.682 30.2627 144.875C29.7812 145.069 29.2417 145.166 28.644 145.166C28.1681 145.166 27.7254 145.105 27.3159 144.983C26.9119 144.862 26.5467 144.671 26.2202 144.411C25.8937 144.151 25.6143 143.816 25.3818 143.406C25.1549 142.991 24.9779 142.496 24.8506 141.92C24.7288 141.345 24.668 140.678 24.668 139.92V137.944C24.668 136.993 24.762 136.19 24.9502 135.537C25.1383 134.879 25.4067 134.345 25.7554 133.935C26.104 133.52 26.519 133.218 27.0005 133.03C27.4875 132.842 28.0298 132.748 28.6274 132.748C29.1089 132.748 29.5516 132.809 29.9556 132.931C30.3651 133.047 30.7303 133.232 31.0513 133.487C31.3778 133.741 31.6545 134.073 31.8813 134.483C32.1138 134.887 32.2909 135.377 32.4126 135.952C32.5343 136.522 32.5952 137.186 32.5952 137.944ZM30.5947 140.202V137.646C30.5947 137.164 30.5671 136.741 30.5117 136.375C30.4564 136.005 30.3734 135.692 30.2627 135.438C30.1576 135.177 30.0247 134.967 29.8643 134.807C29.7038 134.641 29.5212 134.522 29.3164 134.45C29.1117 134.372 28.882 134.333 28.6274 134.333C28.3175 134.333 28.0409 134.394 27.7974 134.516C27.5539 134.632 27.3491 134.82 27.1831 135.081C27.0171 135.341 26.8898 135.684 26.8013 136.11C26.7183 136.53 26.6768 137.042 26.6768 137.646V140.202C26.6768 140.689 26.7044 141.118 26.7598 141.489C26.8151 141.86 26.8981 142.178 27.0088 142.443C27.1195 142.703 27.2523 142.919 27.4072 143.091C27.5677 143.257 27.7503 143.379 27.9551 143.456C28.1654 143.534 28.395 143.572 28.644 143.572C28.9595 143.572 29.2389 143.511 29.4824 143.39C29.7259 143.268 29.9307 143.074 30.0967 142.809C30.2627 142.537 30.3872 142.186 30.4702 141.754C30.5532 141.323 30.5947 140.805 30.5947 140.202ZM42.5894 137.944V139.92C42.5894 140.866 42.4953 141.674 42.3071 142.344C42.1245 143.008 41.8589 143.547 41.5103 143.962C41.1616 144.377 40.7438 144.682 40.2568 144.875C39.7754 145.069 39.2358 145.166 38.6382 145.166C38.1623 145.166 37.7196 145.105 37.3101 144.983C36.9061 144.862 36.5409 144.671 36.2144 144.411C35.8879 144.151 35.6084 143.816 35.376 143.406C35.1491 142.991 34.972 142.496 34.8447 141.92C34.723 141.345 34.6621 140.678 34.6621 139.92V137.944C34.6621 136.993 34.7562 136.19 34.9443 135.537C35.1325 134.879 35.4009 134.345 35.7495 133.935C36.0981 133.52 36.5132 133.218 36.9946 133.03C37.4816 132.842 38.0239 132.748 38.6216 132.748C39.103 132.748 39.5457 132.809 39.9497 132.931C40.3592 133.047 40.7244 133.232 41.0454 133.487C41.3719 133.741 41.6486 134.073 41.8755 134.483C42.1079 134.887 42.285 135.377 42.4067 135.952C42.5285 136.522 42.5894 137.186 42.5894 137.944ZM40.5889 140.202V137.646C40.5889 137.164 40.5612 136.741 40.5059 136.375C40.4505 136.005 40.3675 135.692 40.2568 135.438C40.1517 135.177 40.0189 134.967 39.8584 134.807C39.6979 134.641 39.5153 134.522 39.3105 134.45C39.1058 134.372 38.8761 134.333 38.6216 134.333C38.3117 134.333 38.035 134.394 37.7915 134.516C37.548 134.632 37.3433 134.82 37.1772 135.081C37.0112 135.341 36.884 135.684 36.7954 136.11C36.7124 136.53 36.6709 137.042 36.6709 137.646V140.202C36.6709 140.689 36.6986 141.118 36.7539 141.489C36.8092 141.86 36.8923 142.178 37.0029 142.443C37.1136 142.703 37.2464 142.919 37.4014 143.091C37.5618 143.257 37.7445 143.379 37.9492 143.456C38.1595 143.534 38.3892 143.572 38.6382 143.572C38.9536 143.572 39.2331 143.511 39.4766 143.39C39.7201 143.268 39.9248 143.074 40.0908 142.809C40.2568 142.537 40.3813 142.186 40.4644 141.754C40.5474 141.323 40.5889 140.805 40.5889 140.202Z" fill="#DE2B49"/>
<path d="M51.0381 137.745V148.453H49.0376V136.019H50.8804L51.0381 137.745ZM56.8901 140.426V140.601C56.8901 141.254 56.8127 141.86 56.6577 142.418C56.5083 142.972 56.2842 143.456 55.9854 143.871C55.6921 144.281 55.3296 144.599 54.8979 144.826C54.4663 145.053 53.9683 145.166 53.4038 145.166C52.8449 145.166 52.3551 145.064 51.9346 144.859C51.5195 144.649 51.1681 144.353 50.8804 143.971C50.5926 143.589 50.3602 143.141 50.1831 142.626C50.0116 142.106 49.8898 141.536 49.8179 140.916V140.244C49.8898 139.585 50.0116 138.987 50.1831 138.451C50.3602 137.914 50.5926 137.452 50.8804 137.064C51.1681 136.677 51.5195 136.378 51.9346 136.168C52.3496 135.958 52.8338 135.853 53.3872 135.853C53.9517 135.853 54.4525 135.963 54.8896 136.185C55.3268 136.4 55.6948 136.71 55.9937 137.114C56.2925 137.513 56.5166 137.994 56.666 138.559C56.8154 139.118 56.8901 139.74 56.8901 140.426ZM54.8896 140.601V140.426C54.8896 140.011 54.8509 139.627 54.7734 139.272C54.696 138.913 54.5742 138.597 54.4082 138.326C54.2422 138.055 54.0291 137.845 53.769 137.695C53.5145 137.54 53.2074 137.463 52.8477 137.463C52.4935 137.463 52.1891 137.524 51.9346 137.646C51.68 137.762 51.467 137.925 51.2954 138.135C51.1239 138.346 50.991 138.592 50.897 138.874C50.8029 139.151 50.7365 139.452 50.6978 139.779V141.389C50.7642 141.788 50.8776 142.153 51.0381 142.485C51.1986 142.817 51.4255 143.083 51.7188 143.282C52.0176 143.475 52.3994 143.572 52.8643 143.572C53.224 143.572 53.5311 143.495 53.7856 143.34C54.0402 143.185 54.2477 142.972 54.4082 142.701C54.5742 142.424 54.696 142.106 54.7734 141.746C54.8509 141.386 54.8896 141.005 54.8896 140.601ZM60.6006 137.745V148.453H58.6001V136.019H60.4429L60.6006 137.745ZM66.4526 140.426V140.601C66.4526 141.254 66.3752 141.86 66.2202 142.418C66.0708 142.972 65.8467 143.456 65.5479 143.871C65.2546 144.281 64.8921 144.599 64.4604 144.826C64.0288 145.053 63.5308 145.166 62.9663 145.166C62.4074 145.166 61.9176 145.064 61.4971 144.859C61.082 144.649 60.7306 144.353 60.4429 143.971C60.1551 143.589 59.9227 143.141 59.7456 142.626C59.5741 142.106 59.4523 141.536 59.3804 140.916V140.244C59.4523 139.585 59.5741 138.987 59.7456 138.451C59.9227 137.914 60.1551 137.452 60.4429 137.064C60.7306 136.677 61.082 136.378 61.4971 136.168C61.9121 135.958 62.3963 135.853 62.9497 135.853C63.5142 135.853 64.015 135.963 64.4521 136.185C64.8893 136.4 65.2573 136.71 65.5562 137.114C65.855 137.513 66.0791 137.994 66.2285 138.559C66.3779 139.118 66.4526 139.74 66.4526 140.426ZM64.4521 140.601V140.426C64.4521 140.011 64.4134 139.627 64.3359 139.272C64.2585 138.913 64.1367 138.597 63.9707 138.326C63.8047 138.055 63.5916 137.845 63.3315 137.695C63.077 137.54 62.7699 137.463 62.4102 137.463C62.056 137.463 61.7516 137.524 61.4971 137.646C61.2425 137.762 61.0295 137.925 60.8579 138.135C60.6864 138.346 60.5535 138.592 60.4595 138.874C60.3654 139.151 60.299 139.452 60.2603 139.779V141.389C60.3267 141.788 60.4401 142.153 60.6006 142.485C60.7611 142.817 60.988 143.083 61.2812 143.282C61.5801 143.475 61.9619 143.572 62.4268 143.572C62.7865 143.572 63.0936 143.495 63.3481 143.34C63.6027 143.185 63.8102 142.972 63.9707 142.701C64.1367 142.424 64.2585 142.106 64.3359 141.746C64.4134 141.386 64.4521 141.005 64.4521 140.601ZM68.1626 132.25H70.1631V143.083L69.9722 145H68.1626V132.25ZM76.0234 140.426V140.601C76.0234 141.265 75.9487 141.876 75.7993 142.435C75.6554 142.988 75.4341 143.47 75.1353 143.879C74.842 144.289 74.4767 144.607 74.0396 144.834C73.6079 145.055 73.1071 145.166 72.5371 145.166C71.9782 145.166 71.4912 145.061 71.0762 144.851C70.6611 144.64 70.3125 144.341 70.0303 143.954C69.7536 143.567 69.5295 143.105 69.3579 142.568C69.1864 142.031 69.0646 141.439 68.9927 140.792V140.235C69.0646 139.582 69.1864 138.99 69.3579 138.459C69.5295 137.922 69.7536 137.46 70.0303 137.073C70.3125 136.68 70.6584 136.378 71.0679 136.168C71.4829 135.958 71.9671 135.853 72.5205 135.853C73.096 135.853 73.6024 135.963 74.0396 136.185C74.4823 136.406 74.8503 136.721 75.1436 137.131C75.4368 137.535 75.6554 138.016 75.7993 138.575C75.9487 139.134 76.0234 139.751 76.0234 140.426ZM74.0229 140.601V140.426C74.0229 140.022 73.9897 139.643 73.9233 139.289C73.8569 138.929 73.7463 138.614 73.5913 138.343C73.4419 138.072 73.2371 137.859 72.9771 137.704C72.7225 137.543 72.4043 137.463 72.0225 137.463C71.6683 137.463 71.3639 137.524 71.1094 137.646C70.8548 137.767 70.6418 137.933 70.4702 138.144C70.2987 138.354 70.1631 138.597 70.0635 138.874C69.9694 139.151 69.9058 139.45 69.8726 139.771V141.273C69.9224 141.688 70.0275 142.07 70.188 142.418C70.354 142.762 70.5864 143.038 70.8853 143.249C71.1841 143.453 71.5687 143.556 72.0391 143.556C72.4098 143.556 72.7225 143.481 72.9771 143.332C73.2316 143.182 73.4336 142.975 73.583 142.709C73.738 142.438 73.8486 142.122 73.915 141.763C73.987 141.403 74.0229 141.016 74.0229 140.601Z" fill="#DE2B49"/>
<path d="M94 144L102.083 138.909C103.626 137.937 104.808 136.487 105.45 134.78L107.872 128.337C109.746 123.354 116.794 123.354 118.667 128.337V128.337C120.321 132.736 126.262 133.414 128.865 129.501L131.829 125.046C133.633 122.333 137.452 121.914 139.802 124.171V124.171C142.423 126.688 146.75 125.829 148.21 122.5L149.852 118.758C152.601 112.491 161.409 112.265 164.476 118.382L167.306 124.029C169.449 128.303 174.478 130.262 178.947 128.564V128.564C181.308 127.667 183.931 127.766 186.217 128.839L192 131.554" stroke="black" stroke-opacity="0.76" stroke-width="1.3" stroke-linecap="round"/>
<rect width="200" height="76" rx="4" fill="white"/>
<rect x="0.5" y="0.5" width="199" height="75" rx="3.5" stroke="black" stroke-opacity="0.12"/>
<path d="M8.57812 13.3125H10.5898C11.0221 13.3125 11.3906 13.3776 11.6953 13.5078C12 13.638 12.2331 13.8307 12.3945 14.0859C12.5586 14.3385 12.6406 14.651 12.6406 15.0234C12.6406 15.3073 12.5885 15.5573 12.4844 15.7734C12.3802 15.9896 12.2331 16.1719 12.043 16.3203C11.8529 16.4661 11.6263 16.5794 11.3633 16.6602L11.0664 16.8047H9.25781L9.25 16.0273H10.6055C10.8398 16.0273 11.0352 15.9857 11.1914 15.9023C11.3477 15.819 11.4648 15.7057 11.543 15.5625C11.6237 15.4167 11.6641 15.2526 11.6641 15.0703C11.6641 14.8724 11.625 14.7005 11.5469 14.5547C11.4714 14.4062 11.3542 14.293 11.1953 14.2148C11.0365 14.1341 10.8346 14.0938 10.5898 14.0938H9.55859V19H8.57812V13.3125ZM11.8242 19L10.4883 16.4453L11.5156 16.4414L12.8711 18.9492V19H11.8242ZM16.1562 18.1523V16.1367C16.1562 15.9857 16.1289 15.8555 16.0742 15.7461C16.0195 15.6367 15.9362 15.5521 15.8242 15.4922C15.7148 15.4323 15.5768 15.4023 15.4102 15.4023C15.2565 15.4023 15.1237 15.4284 15.0117 15.4805C14.8997 15.5326 14.8125 15.6029 14.75 15.6914C14.6875 15.7799 14.6562 15.8802 14.6562 15.9922H13.7188C13.7188 15.8255 13.7591 15.6641 13.8398 15.5078C13.9206 15.3516 14.0378 15.2122 14.1914 15.0898C14.3451 14.9674 14.5286 14.8711 14.7422 14.8008C14.9557 14.7305 15.1953 14.6953 15.4609 14.6953C15.7786 14.6953 16.0599 14.7487 16.3047 14.8555C16.5521 14.9622 16.7461 15.1237 16.8867 15.3398C17.0299 15.5534 17.1016 15.8216 17.1016 16.1445V18.0234C17.1016 18.2161 17.1146 18.3893 17.1406 18.543C17.1693 18.694 17.2096 18.8255 17.2617 18.9375V19H16.2969C16.2526 18.8984 16.2174 18.7695 16.1914 18.6133C16.168 18.4544 16.1562 18.3008 16.1562 18.1523ZM16.293 16.4297L16.3008 17.0117H15.625C15.4505 17.0117 15.2969 17.0286 15.1641 17.0625C15.0312 17.0938 14.9206 17.1406 14.832 17.2031C14.7435 17.2656 14.6771 17.3411 14.6328 17.4297C14.5885 17.5182 14.5664 17.6185 14.5664 17.7305C14.5664 17.8424 14.5924 17.9453 14.6445 18.0391C14.6966 18.1302 14.7721 18.2018 14.8711 18.2539C14.9727 18.306 15.0951 18.332 15.2383 18.332C15.431 18.332 15.599 18.293 15.7422 18.2148C15.888 18.1341 16.0026 18.0365 16.0859 17.9219C16.1693 17.8047 16.2135 17.694 16.2188 17.5898L16.5234 18.0078C16.4922 18.1146 16.4388 18.2292 16.3633 18.3516C16.2878 18.474 16.1888 18.5911 16.0664 18.7031C15.9466 18.8125 15.8021 18.9023 15.6328 18.9727C15.4661 19.043 15.2734 19.0781 15.0547 19.0781C14.7786 19.0781 14.5326 19.0234 14.3164 18.9141C14.1003 18.8021 13.931 18.6523 13.8086 18.4648C13.6862 18.2747 13.625 18.0599 13.625 17.8203C13.625 17.5964 13.6667 17.3984 13.75 17.2266C13.8359 17.0521 13.9609 16.9062 14.125 16.7891C14.2917 16.6719 14.4948 16.5833 14.7344 16.5234C14.974 16.4609 15.2474 16.4297 15.5547 16.4297H16.293ZM20.9141 18.125V13H21.8594V19H21.0039L20.9141 18.125ZM18.1641 16.9336V16.8516C18.1641 16.5312 18.2018 16.2396 18.2773 15.9766C18.3529 15.7109 18.4622 15.4831 18.6055 15.293C18.7487 15.1003 18.9232 14.9531 19.1289 14.8516C19.3346 14.7474 19.5664 14.6953 19.8242 14.6953C20.0794 14.6953 20.3034 14.7448 20.4961 14.8438C20.6888 14.9427 20.8529 15.0846 20.9883 15.2695C21.1237 15.4518 21.2318 15.6706 21.3125 15.9258C21.3932 16.1784 21.4505 16.4596 21.4844 16.7695V17.0312C21.4505 17.3333 21.3932 17.6094 21.3125 17.8594C21.2318 18.1094 21.1237 18.3255 20.9883 18.5078C20.8529 18.6901 20.6875 18.8307 20.4922 18.9297C20.2995 19.0286 20.0742 19.0781 19.8164 19.0781C19.5612 19.0781 19.3307 19.0247 19.125 18.918C18.9219 18.8112 18.7487 18.6615 18.6055 18.4688C18.4622 18.276 18.3529 18.0495 18.2773 17.7891C18.2018 17.526 18.1641 17.2409 18.1641 16.9336ZM19.1055 16.8516V16.9336C19.1055 17.1263 19.1224 17.306 19.1562 17.4727C19.1927 17.6393 19.2487 17.7865 19.3242 17.9141C19.3997 18.0391 19.4974 18.138 19.6172 18.2109C19.7396 18.2812 19.8854 18.3164 20.0547 18.3164C20.2682 18.3164 20.444 18.2695 20.582 18.1758C20.7201 18.082 20.8281 17.9557 20.9062 17.7969C20.987 17.6354 21.0417 17.4557 21.0703 17.2578V16.5508C21.0547 16.3971 21.0221 16.2539 20.9727 16.1211C20.9258 15.9883 20.862 15.8724 20.7812 15.7734C20.7005 15.6719 20.6003 15.5938 20.4805 15.5391C20.3633 15.4818 20.224 15.4531 20.0625 15.4531C19.8906 15.4531 19.7448 15.4896 19.625 15.5625C19.5052 15.6354 19.4062 15.7357 19.3281 15.8633C19.2526 15.9909 19.1966 16.1393 19.1602 16.3086C19.1237 16.4779 19.1055 16.6589 19.1055 16.8516ZM22.9141 16.9336V16.8438C22.9141 16.5391 22.9583 16.2565 23.0469 15.9961C23.1354 15.7331 23.263 15.5052 23.4297 15.3125C23.599 15.1172 23.8047 14.9661 24.0469 14.8594C24.2917 14.75 24.5677 14.6953 24.875 14.6953C25.1849 14.6953 25.4609 14.75 25.7031 14.8594C25.9479 14.9661 26.1549 15.1172 26.3242 15.3125C26.4935 15.5052 26.6224 15.7331 26.7109 15.9961C26.7995 16.2565 26.8438 16.5391 26.8438 16.8438V16.9336C26.8438 17.2383 26.7995 17.5208 26.7109 17.7812C26.6224 18.0417 26.4935 18.2695 26.3242 18.4648C26.1549 18.6576 25.9492 18.8086 25.707 18.918C25.4648 19.0247 25.1901 19.0781 24.8828 19.0781C24.5729 19.0781 24.2956 19.0247 24.0508 18.918C23.8086 18.8086 23.6029 18.6576 23.4336 18.4648C23.2643 18.2695 23.1354 18.0417 23.0469 17.7812C22.9583 17.5208 22.9141 17.2383 22.9141 16.9336ZM23.8555 16.8438V16.9336C23.8555 17.1237 23.875 17.3034 23.9141 17.4727C23.9531 17.6419 24.0143 17.7904 24.0977 17.918C24.181 18.0456 24.2878 18.1458 24.418 18.2188C24.5482 18.2917 24.7031 18.3281 24.8828 18.3281C25.0573 18.3281 25.2083 18.2917 25.3359 18.2188C25.4661 18.1458 25.5729 18.0456 25.6562 17.918C25.7396 17.7904 25.8008 17.6419 25.8398 17.4727C25.8815 17.3034 25.9023 17.1237 25.9023 16.9336V16.8438C25.9023 16.6562 25.8815 16.4792 25.8398 16.3125C25.8008 16.1432 25.7383 15.9935 25.6523 15.8633C25.569 15.7331 25.4622 15.6315 25.332 15.5586C25.2044 15.4831 25.0521 15.4453 24.875 15.4453C24.6979 15.4453 24.5443 15.4831 24.4141 15.5586C24.2865 15.6315 24.181 15.7331 24.0977 15.8633C24.0143 15.9935 23.9531 16.1432 23.9141 16.3125C23.875 16.4792 23.8555 16.6562 23.8555 16.8438ZM28.8164 15.6758V19H27.875V14.7734H28.7617L28.8164 15.6758ZM28.6484 16.7305L28.3438 16.7266C28.3464 16.4271 28.388 16.1523 28.4688 15.9023C28.5521 15.6523 28.6667 15.4375 28.8125 15.2578C28.9609 15.0781 29.138 14.9401 29.3438 14.8438C29.5495 14.7448 29.7786 14.6953 30.0312 14.6953C30.2344 14.6953 30.418 14.724 30.582 14.7812C30.7487 14.8359 30.8906 14.9258 31.0078 15.0508C31.1276 15.1758 31.2188 15.3385 31.2812 15.5391C31.3438 15.737 31.375 15.9805 31.375 16.2695V19H30.4297V16.2656C30.4297 16.0625 30.3997 15.9023 30.3398 15.7852C30.2826 15.6654 30.1979 15.5807 30.0859 15.5312C29.9766 15.4792 29.8398 15.4531 29.6758 15.4531C29.5143 15.4531 29.3698 15.487 29.2422 15.5547C29.1146 15.6224 29.0065 15.7148 28.918 15.832C28.832 15.9492 28.7656 16.0846 28.7188 16.2383C28.6719 16.3919 28.6484 16.556 28.6484 16.7305ZM35.8359 13V19H34.8906V13H35.8359ZM38.9805 19.0781C38.668 19.0781 38.3854 19.0273 38.1328 18.9258C37.8828 18.8216 37.6693 18.6771 37.4922 18.4922C37.3177 18.3073 37.1836 18.0898 37.0898 17.8398C36.9961 17.5898 36.9492 17.3203 36.9492 17.0312V16.875C36.9492 16.5443 36.9974 16.2448 37.0938 15.9766C37.1901 15.7083 37.3242 15.4792 37.4961 15.2891C37.668 15.0964 37.8711 14.9492 38.1055 14.8477C38.3398 14.7461 38.5938 14.6953 38.8672 14.6953C39.1693 14.6953 39.4336 14.7461 39.6602 14.8477C39.8867 14.9492 40.0742 15.0924 40.2227 15.2773C40.3737 15.4596 40.4857 15.6771 40.5586 15.9297C40.6341 16.1823 40.6719 16.4609 40.6719 16.7656V17.168H37.4062V16.4922H39.7422V16.418C39.737 16.2487 39.7031 16.0898 39.6406 15.9414C39.5807 15.793 39.4883 15.6732 39.3633 15.582C39.2383 15.4909 39.0716 15.4453 38.8633 15.4453C38.707 15.4453 38.5677 15.4792 38.4453 15.5469C38.3255 15.612 38.2253 15.707 38.1445 15.832C38.0638 15.957 38.0013 16.1081 37.957 16.2852C37.9154 16.4596 37.8945 16.6562 37.8945 16.875V17.0312C37.8945 17.2161 37.9193 17.388 37.9688 17.5469C38.0208 17.7031 38.0964 17.8398 38.1953 17.957C38.2943 18.0742 38.4141 18.1667 38.5547 18.2344C38.6953 18.2995 38.8555 18.332 39.0352 18.332C39.2617 18.332 39.4635 18.2865 39.6406 18.1953C39.8177 18.1042 39.9714 17.9753 40.1016 17.8086L40.5977 18.2891C40.5065 18.4219 40.388 18.5495 40.2422 18.6719C40.0964 18.7917 39.918 18.8893 39.707 18.9648C39.4987 19.0404 39.2565 19.0781 38.9805 19.0781ZM42.9766 18.2539L44.0117 14.7734H44.9883L43.5195 19H42.9102L42.9766 18.2539ZM42.1836 14.7734L43.2383 18.2695L43.2891 19H42.6797L41.2031 14.7734H42.1836ZM47.6289 19.0781C47.3164 19.0781 47.0339 19.0273 46.7812 18.9258C46.5312 18.8216 46.3177 18.6771 46.1406 18.4922C45.9661 18.3073 45.832 18.0898 45.7383 17.8398C45.6445 17.5898 45.5977 17.3203 45.5977 17.0312V16.875C45.5977 16.5443 45.6458 16.2448 45.7422 15.9766C45.8385 15.7083 45.9727 15.4792 46.1445 15.2891C46.3164 15.0964 46.5195 14.9492 46.7539 14.8477C46.9883 14.7461 47.2422 14.6953 47.5156 14.6953C47.8177 14.6953 48.082 14.7461 48.3086 14.8477C48.5352 14.9492 48.7227 15.0924 48.8711 15.2773C49.0221 15.4596 49.1341 15.6771 49.207 15.9297C49.2826 16.1823 49.3203 16.4609 49.3203 16.7656V17.168H46.0547V16.4922H48.3906V16.418C48.3854 16.2487 48.3516 16.0898 48.2891 15.9414C48.2292 15.793 48.1367 15.6732 48.0117 15.582C47.8867 15.4909 47.7201 15.4453 47.5117 15.4453C47.3555 15.4453 47.2161 15.4792 47.0938 15.5469C46.974 15.612 46.8737 15.707 46.793 15.832C46.7122 15.957 46.6497 16.1081 46.6055 16.2852C46.5638 16.4596 46.543 16.6562 46.543 16.875V17.0312C46.543 17.2161 46.5677 17.388 46.6172 17.5469C46.6693 17.7031 46.7448 17.8398 46.8438 17.957C46.9427 18.0742 47.0625 18.1667 47.2031 18.2344C47.3438 18.2995 47.5039 18.332 47.6836 18.332C47.9102 18.332 48.112 18.2865 48.2891 18.1953C48.4661 18.1042 48.6198 17.9753 48.75 17.8086L49.2461 18.2891C49.1549 18.4219 49.0365 18.5495 48.8906 18.6719C48.7448 18.7917 48.5664 18.8893 48.3555 18.9648C48.1471 19.0404 47.9049 19.0781 47.6289 19.0781ZM51.3125 13V19H50.3672V13H51.3125Z" fill="black" fill-opacity="0.87"/>
<mask id="mask0_18128_21901" style="mask-type:luminance" maskUnits="userSpaceOnUse" x="8" y="51" width="184" height="13">
<path d="M8 51.5H192V63.5H8V51.5Z" fill="white"/>
</mask>
<g mask="url(#mask0_18128_21901)">
<path d="M7.5 57.7002H191" stroke="black" stroke-opacity="0.1" stroke-width="0.3"/>
<path d="M8.7002 60.7999H18.5002L31.5002 62.9999L42.7002 54.9999L64.3002 60.7999L89.1002 54.8999L96.3002 55.0999C101.1 57.2999 110.8 62.9999 111.3 62.9999H125.8L138.2 59.9999H148.6L157.8 55.9999L170.2 55.0999L189.8 59.8999" stroke="black" stroke-opacity="0.9" stroke-width="1.3"/>
<path fill-rule="evenodd" clip-rule="evenodd" d="M8.5 51.5H8V53.5H8.5V52H10V51.5H8.5ZM8.5 63V61.4H8V63.5H10V63H8.5ZM191.5 51.5H192V53.5H191.5V52H190V51.5H191.5ZM191.5 63V61.4H192V63.5H190V63H191.5Z" fill="black" fill-opacity="0.4"/>
</g>
<path fill-rule="evenodd" clip-rule="evenodd" d="M160.5 47.1C160.527 47.1413 160.565 47.1751 160.608 47.1985C160.652 47.2219 160.7 47.2342 160.75 47.2342C160.8 47.2342 160.848 47.2219 160.892 47.1985C160.935 47.1751 160.973 47.1413 161 47.1L163.4 44.7L162.9 44.2L161.6 45.5C161.558 45.5375 161.507 45.5627 161.452 45.5725C161.397 45.5824 161.34 45.5765 161.288 45.5557C161.236 45.5349 161.19 45.4999 161.157 45.4547C161.124 45.4095 161.104 45.3559 161.1 45.3V42H160.4V45.3C160.396 45.3559 160.376 45.4095 160.343 45.4547C160.31 45.4999 160.264 45.5349 160.212 45.5557C160.16 45.5765 160.103 45.5824 160.048 45.5725C159.993 45.5627 159.942 45.5375 159.9 45.5L158.5 44.2L158 44.7L160.5 47.1Z" fill="black" fill-opacity="0.9"/>
<path d="M61.4043 30.8789V48H58.5801V34.2305L54.3965 35.6484V33.3164L61.0645 30.8789H61.4043ZM68.5527 40.0664L66.3027 39.5156L67.2285 30.9375H76.4277V33.3281H69.5723L69.1035 37.5117C69.3691 37.3555 69.7363 37.2031 70.2051 37.0547C70.6738 36.8984 71.209 36.8203 71.8105 36.8203C72.6152 36.8203 73.334 36.9531 73.9668 37.2188C74.6074 37.4766 75.1504 37.8555 75.5957 38.3555C76.041 38.8477 76.3809 39.4492 76.6152 40.1602C76.8496 40.8633 76.9668 41.6562 76.9668 42.5391C76.9668 43.3281 76.8496 44.0664 76.6152 44.7539C76.3887 45.4414 76.0449 46.0469 75.584 46.5703C75.123 47.0938 74.541 47.5039 73.8379 47.8008C73.1426 48.0898 72.3184 48.2344 71.3652 48.2344C70.6543 48.2344 69.9707 48.1328 69.3145 47.9297C68.666 47.7188 68.084 47.4102 67.5684 47.0039C67.0527 46.5898 66.6387 46.082 66.3262 45.4805C66.0137 44.8711 65.834 44.1719 65.7871 43.3828H68.5527C68.623 43.9375 68.7754 44.4102 69.0098 44.8008C69.252 45.1836 69.5723 45.4766 69.9707 45.6797C70.3691 45.8828 70.8301 45.9844 71.3535 45.9844C71.8301 45.9844 72.2402 45.9023 72.584 45.7383C72.9277 45.5664 73.2129 45.3242 73.4395 45.0117C73.6738 44.6914 73.8457 44.3164 73.9551 43.8867C74.0723 43.457 74.1309 42.9805 74.1309 42.457C74.1309 41.957 74.0645 41.5 73.9316 41.0859C73.8066 40.6719 73.6152 40.3125 73.3574 40.0078C73.1074 39.7031 72.791 39.4688 72.4082 39.3047C72.0254 39.1328 71.584 39.0469 71.084 39.0469C70.4121 39.0469 69.8965 39.1445 69.5371 39.3398C69.1855 39.5352 68.8574 39.7773 68.5527 40.0664ZM90.584 38.0391V40.8281C90.584 42.1641 90.4512 43.3047 90.1855 44.25C89.9277 45.1875 89.5527 45.9492 89.0605 46.5352C88.5684 47.1211 87.9785 47.5508 87.291 47.8242C86.6113 48.0977 85.8496 48.2344 85.0059 48.2344C84.334 48.2344 83.709 48.1484 83.1309 47.9766C82.5605 47.8047 82.0449 47.5352 81.584 47.168C81.123 46.8008 80.7285 46.3281 80.4004 45.75C80.0801 45.1641 79.8301 44.4648 79.6504 43.6523C79.4785 42.8398 79.3926 41.8984 79.3926 40.8281V38.0391C79.3926 36.6953 79.5254 35.5625 79.791 34.6406C80.0566 33.7109 80.4355 32.957 80.9277 32.3789C81.4199 31.793 82.0059 31.3672 82.6855 31.1016C83.373 30.8359 84.1387 30.7031 84.9824 30.7031C85.6621 30.7031 86.2871 30.7891 86.8574 30.9609C87.4355 31.125 87.9512 31.3867 88.4043 31.7461C88.8652 32.1055 89.2559 32.5742 89.5762 33.1523C89.9043 33.7227 90.1543 34.4141 90.3262 35.2266C90.498 36.0312 90.584 36.9688 90.584 38.0391ZM87.7598 41.2266V37.6172C87.7598 36.9375 87.7207 36.3398 87.6426 35.8242C87.5645 35.3008 87.4473 34.8594 87.291 34.5C87.1426 34.1328 86.9551 33.8359 86.7285 33.6094C86.502 33.375 86.2441 33.207 85.9551 33.1055C85.666 32.9961 85.3418 32.9414 84.9824 32.9414C84.5449 32.9414 84.1543 33.0273 83.8105 33.1992C83.4668 33.3633 83.1777 33.6289 82.9434 33.9961C82.709 34.3633 82.5293 34.8477 82.4043 35.4492C82.2871 36.043 82.2285 36.7656 82.2285 37.6172V41.2266C82.2285 41.9141 82.2676 42.5195 82.3457 43.043C82.4238 43.5664 82.541 44.0156 82.6973 44.3906C82.8535 44.7578 83.041 45.0625 83.2598 45.3047C83.4863 45.5391 83.7441 45.7109 84.0332 45.8203C84.3301 45.9297 84.6543 45.9844 85.0059 45.9844C85.4512 45.9844 85.8457 45.8984 86.1895 45.7266C86.5332 45.5547 86.8223 45.2812 87.0566 44.9062C87.291 44.5234 87.4668 44.0273 87.584 43.418C87.7012 42.8086 87.7598 42.0781 87.7598 41.2266ZM100.254 42.0254V50.8438H98.9824V40.6035H100.145L100.254 42.0254ZM105.237 44.2402V44.3838C105.237 44.9215 105.174 45.4206 105.046 45.8809C104.918 46.3366 104.731 46.7331 104.485 47.0703C104.244 47.4076 103.945 47.6696 103.59 47.8564C103.234 48.0433 102.826 48.1367 102.366 48.1367C101.897 48.1367 101.482 48.0592 101.122 47.9043C100.762 47.7493 100.457 47.5238 100.206 47.2275C99.9554 46.9313 99.7549 46.5758 99.6045 46.1611C99.4587 45.7464 99.3584 45.2793 99.3037 44.7598V43.9941C99.3584 43.4473 99.4609 42.9574 99.6113 42.5244C99.7617 42.0915 99.96 41.7223 100.206 41.417C100.457 41.1071 100.76 40.8724 101.115 40.7129C101.471 40.5488 101.881 40.4668 102.346 40.4668C102.811 40.4668 103.223 40.5579 103.583 40.7402C103.943 40.918 104.246 41.1732 104.492 41.5059C104.738 41.8385 104.923 42.2373 105.046 42.7021C105.174 43.1624 105.237 43.6751 105.237 44.2402ZM103.966 44.3838V44.2402C103.966 43.8711 103.927 43.5247 103.85 43.2012C103.772 42.873 103.651 42.5859 103.487 42.3398C103.328 42.0892 103.123 41.8932 102.872 41.752C102.621 41.6061 102.323 41.5332 101.977 41.5332C101.658 41.5332 101.38 41.5879 101.143 41.6973C100.91 41.8066 100.712 41.9548 100.548 42.1416C100.384 42.3239 100.249 42.5335 100.145 42.7705C100.044 43.0029 99.9691 43.2445 99.9189 43.4951V45.2656C100.01 45.5846 100.138 45.8854 100.302 46.168C100.466 46.446 100.685 46.6715 100.958 46.8447C101.231 47.0133 101.576 47.0977 101.99 47.0977C102.332 47.0977 102.626 47.027 102.872 46.8857C103.123 46.7399 103.328 46.5417 103.487 46.291C103.651 46.0404 103.772 45.7533 103.85 45.4297C103.927 45.1016 103.966 44.7529 103.966 44.3838ZM113.051 44.835H114.363C114.295 45.4639 114.115 46.0267 113.823 46.5234C113.532 47.0202 113.119 47.4144 112.586 47.7061C112.053 47.9932 111.387 48.1367 110.59 48.1367C110.007 48.1367 109.476 48.0273 108.997 47.8086C108.523 47.5898 108.115 47.2799 107.773 46.8789C107.432 46.4733 107.167 45.988 106.98 45.4229C106.798 44.8532 106.707 44.2197 106.707 43.5225V42.5312C106.707 41.834 106.798 41.2028 106.98 40.6377C107.167 40.068 107.434 39.5804 107.78 39.1748C108.131 38.7692 108.553 38.457 109.045 38.2383C109.537 38.0195 110.091 37.9102 110.706 37.9102C111.458 37.9102 112.094 38.0514 112.613 38.334C113.133 38.6165 113.536 39.0085 113.823 39.5098C114.115 40.0065 114.295 40.583 114.363 41.2393H113.051C112.987 40.7744 112.868 40.3757 112.695 40.043C112.522 39.7057 112.276 39.446 111.957 39.2637C111.638 39.0814 111.221 38.9902 110.706 38.9902C110.264 38.9902 109.874 39.0745 109.537 39.2432C109.204 39.4118 108.924 39.651 108.696 39.9609C108.473 40.2708 108.304 40.6423 108.19 41.0752C108.076 41.5081 108.02 41.9889 108.02 42.5176V43.5225C108.02 44.0101 108.07 44.4681 108.17 44.8965C108.275 45.3249 108.432 45.7008 108.642 46.0244C108.851 46.348 109.118 46.6032 109.441 46.79C109.765 46.9723 110.148 47.0635 110.59 47.0635C111.15 47.0635 111.597 46.9746 111.93 46.7969C112.262 46.6191 112.513 46.3639 112.682 46.0312C112.855 45.6986 112.978 45.2998 113.051 44.835ZM117.344 40.6035V48H116.072V40.6035H117.344ZM115.977 38.6416C115.977 38.4365 116.038 38.2633 116.161 38.1221C116.289 37.9808 116.476 37.9102 116.722 37.9102C116.963 37.9102 117.148 37.9808 117.275 38.1221C117.408 38.2633 117.474 38.4365 117.474 38.6416C117.474 38.8376 117.408 39.0062 117.275 39.1475C117.148 39.2842 116.963 39.3525 116.722 39.3525C116.476 39.3525 116.289 39.2842 116.161 39.1475C116.038 39.0062 115.977 38.8376 115.977 38.6416ZM123.776 38.0469L119.627 48.8545H118.54L122.696 38.0469H123.776ZM131.385 46.9268V48H126.408V46.9268H131.385ZM126.668 38.0469V48H125.349V38.0469H126.668Z" fill="#FF7B00"/>
<path d="M169.704 43.7105V44.8575H166.544V43.7105H169.704ZM174.376 39.2716V48H172.936V40.9802L170.803 41.7031V40.5142L174.203 39.2716H174.376ZM177.668 46.8649H177.787C178.337 46.8649 178.795 46.7932 179.161 46.6498C179.532 46.5025 179.826 46.2993 180.045 46.0404C180.265 45.7816 180.422 45.4769 180.517 45.1264C180.613 44.7759 180.661 44.3955 180.661 43.9853V42.4858C180.661 42.1313 180.623 41.8206 180.547 41.5538C180.476 41.2829 180.372 41.0579 180.237 40.8787C180.105 40.6955 179.952 40.5581 179.777 40.4665C179.605 40.3748 179.42 40.329 179.221 40.329C179.002 40.329 178.805 40.3788 178.63 40.4784C178.458 40.574 178.313 40.7074 178.193 40.8787C178.078 41.046 177.988 41.2431 177.925 41.4701C177.865 41.6932 177.835 41.9321 177.835 42.187C177.835 42.426 177.863 42.657 177.919 42.8801C177.978 43.0991 178.066 43.2943 178.182 43.4655C178.297 43.6368 178.442 43.7722 178.618 43.8718C178.793 43.9714 178.998 44.0211 179.233 44.0211C179.456 44.0211 179.661 43.9793 179.848 43.8957C180.036 43.8081 180.199 43.6906 180.338 43.5432C180.478 43.3958 180.587 43.2305 180.667 43.0473C180.746 42.8641 180.79 42.6769 180.798 42.4858L181.348 42.653C181.348 42.9557 181.284 43.2544 181.157 43.5492C181.033 43.8399 180.86 44.1068 180.637 44.3497C180.418 44.5887 180.161 44.7799 179.866 44.9233C179.576 45.0666 179.259 45.1383 178.916 45.1383C178.502 45.1383 178.136 45.0607 177.817 44.9053C177.502 44.746 177.24 44.5309 177.028 44.2601C176.821 43.9893 176.666 43.6786 176.562 43.3281C176.459 42.9776 176.407 42.6092 176.407 42.2229C176.407 41.8047 176.471 41.4124 176.598 41.046C176.726 40.6795 176.911 40.3569 177.154 40.0781C177.397 39.7953 177.692 39.5763 178.038 39.421C178.389 39.2616 178.785 39.182 179.227 39.182C179.697 39.182 180.109 39.2736 180.464 39.4568C180.818 39.64 181.117 39.8929 181.36 40.2155C181.603 40.5381 181.786 40.9125 181.909 41.3387C182.033 41.7649 182.095 42.2229 182.095 42.7128V43.2206C182.095 43.7344 182.049 44.2302 181.957 44.7082C181.866 45.1821 181.716 45.6222 181.509 46.0285C181.306 46.4308 181.037 46.7852 180.703 47.0919C180.372 47.3946 179.966 47.6316 179.484 47.8028C179.006 47.9701 178.444 48.0538 177.799 48.0538H177.668V46.8649ZM183.523 41.4343V40.9743C183.523 40.6437 183.594 40.343 183.738 40.0722C183.881 39.8013 184.09 39.5843 184.365 39.421C184.64 39.2577 184.97 39.176 185.357 39.176C185.755 39.176 186.089 39.2577 186.36 39.421C186.635 39.5843 186.844 39.8013 186.988 40.0722C187.131 40.343 187.203 40.6437 187.203 40.9743V41.4343C187.203 41.7569 187.131 42.0536 186.988 42.3244C186.848 42.5953 186.641 42.8123 186.366 42.9756C186.095 43.1389 185.763 43.2206 185.369 43.2206C184.978 43.2206 184.644 43.1389 184.365 42.9756C184.09 42.8123 183.881 42.5953 183.738 42.3244C183.594 42.0536 183.523 41.7569 183.523 41.4343ZM184.52 40.9743V41.4343C184.52 41.5936 184.55 41.7449 184.61 41.8883C184.674 42.0317 184.769 42.1472 184.897 42.2348C185.024 42.3225 185.181 42.3663 185.369 42.3663C185.56 42.3663 185.715 42.3225 185.835 42.2348C185.958 42.1472 186.05 42.0317 186.109 41.8883C186.169 41.7449 186.199 41.5936 186.199 41.4343V40.9743C186.199 40.811 186.167 40.6576 186.103 40.5142C186.044 40.3669 185.952 40.2494 185.829 40.1618C185.705 40.0741 185.548 40.0303 185.357 40.0303C185.173 40.0303 185.018 40.0741 184.891 40.1618C184.767 40.2494 184.674 40.3669 184.61 40.5142C184.55 40.6576 184.52 40.811 184.52 40.9743ZM187.716 46.3332V45.8672C187.716 45.5406 187.788 45.2419 187.932 44.971C188.079 44.7002 188.29 44.4831 188.565 44.3199C188.84 44.1566 189.17 44.0749 189.557 44.0749C189.955 44.0749 190.289 44.1566 190.56 44.3199C190.835 44.4831 191.042 44.7002 191.182 44.971C191.325 45.2419 191.397 45.5406 191.397 45.8672V46.3332C191.397 46.6598 191.325 46.9585 191.182 47.2293C191.042 47.5002 190.837 47.7172 190.566 47.8805C190.295 48.0438 189.963 48.1255 189.568 48.1255C189.178 48.1255 188.844 48.0438 188.565 47.8805C188.29 47.7172 188.079 47.5002 187.932 47.2293C187.788 46.9585 187.716 46.6598 187.716 46.3332ZM188.72 45.8672V46.3332C188.72 46.4925 188.752 46.6438 188.816 46.7872C188.883 46.9306 188.981 47.0481 189.108 47.1397C189.236 47.2273 189.389 47.2711 189.568 47.2711C189.772 47.2711 189.935 47.2273 190.058 47.1397C190.182 47.0481 190.269 46.9326 190.321 46.7932C190.377 46.6498 190.405 46.4965 190.405 46.3332V45.8672C190.405 45.7039 190.373 45.5506 190.309 45.4072C190.25 45.2638 190.156 45.1483 190.028 45.0607C189.905 44.973 189.748 44.9292 189.557 44.9292C189.369 44.9292 189.214 44.973 189.091 45.0607C188.967 45.1483 188.873 45.2638 188.81 45.4072C188.75 45.5506 188.72 45.7039 188.72 45.8672ZM189.915 40.5441L185.667 47.3428L184.932 46.9187L189.18 40.1199L189.915 40.5441Z" fill="#1A1A1A"/>
</g>
<defs>
<clipPath id="clip0_18128_21901">
<rect width="200" height="160" fill="white"/>
</clipPath>
</defs>
</svg>
