<svg width="200" height="160" viewBox="0 0 200 160" fill="none" xmlns="http://www.w3.org/2000/svg">
<rect width="200" height="101" rx="4" fill="white"/>
<rect x="0.5" y="0.5" width="199" height="100" rx="3.5" stroke="black" stroke-opacity="0.12"/>
<path d="M11.5 14.5V18.5L19 17.5V15.5L11.5 14.5ZM13 15.455L14.5 15.655V17.345L13 17.545V15.455ZM16 15.855L17.5 16.055V16.945L16 17.145V15.855ZM10.5 17V17.5H11V18H10.5V22.5H9.5V14C9.5 13.725 9.725 13.5 10 13.5C10.275 13.5 10.5 13.725 10.5 14V15H11V15.5H10.5V17Z" fill="#234DC7"/>
<path d="M26.5049 19.4033L27.9209 13.8906H28.6631L28.5801 15.3115L27.0664 21H26.2949L26.5049 19.4033ZM25.4453 13.8906L26.5928 19.3594L26.6953 21H25.875L24.2295 13.8906H25.4453ZM30.2695 19.3447L31.4023 13.8906H32.623L30.9775 21H30.1572L30.2695 19.3447ZM28.9512 13.8906L30.3525 19.418L30.5576 21H29.7861L28.2969 15.3115L28.2188 13.8906H28.9512ZM34.9238 15.7168V21H33.7422V15.7168H34.9238ZM33.6641 14.3301C33.6641 14.151 33.7227 14.0029 33.8398 13.8857C33.9603 13.7653 34.1263 13.7051 34.3379 13.7051C34.5462 13.7051 34.7106 13.7653 34.8311 13.8857C34.9515 14.0029 35.0117 14.151 35.0117 14.3301C35.0117 14.5059 34.9515 14.6523 34.8311 14.7695C34.7106 14.8867 34.5462 14.9453 34.3379 14.9453C34.1263 14.9453 33.9603 14.8867 33.8398 14.7695C33.7227 14.6523 33.6641 14.5059 33.6641 14.3301ZM37.6299 16.8447V21H36.4531V15.7168H37.5615L37.6299 16.8447ZM37.4199 18.1631L37.0391 18.1582C37.0423 17.7839 37.0944 17.4404 37.1953 17.1279C37.2995 16.8154 37.4427 16.5469 37.625 16.3223C37.8105 16.0977 38.0319 15.9251 38.2891 15.8047C38.5462 15.681 38.8327 15.6191 39.1484 15.6191C39.4023 15.6191 39.6318 15.6549 39.8369 15.7266C40.0452 15.7949 40.2227 15.9072 40.3691 16.0635C40.5189 16.2197 40.6328 16.4232 40.7109 16.6738C40.7891 16.9212 40.8281 17.2256 40.8281 17.5869V21H39.6465V17.582C39.6465 17.3281 39.609 17.1279 39.5342 16.9814C39.4626 16.8317 39.3568 16.7259 39.2168 16.6641C39.0801 16.599 38.9092 16.5664 38.7041 16.5664C38.5023 16.5664 38.3216 16.6087 38.1621 16.6934C38.0026 16.778 37.8675 16.8936 37.7568 17.04C37.6494 17.1865 37.5664 17.3558 37.5078 17.5479C37.4492 17.7399 37.4199 17.945 37.4199 18.1631ZM45.502 19.9062V13.5H46.6836V21H45.6143L45.502 19.9062ZM42.0645 18.417V18.3145C42.0645 17.9141 42.1117 17.5495 42.2061 17.2207C42.3005 16.8887 42.4372 16.6038 42.6162 16.3662C42.7952 16.1253 43.0133 15.9414 43.2705 15.8145C43.5277 15.6842 43.8174 15.6191 44.1396 15.6191C44.4587 15.6191 44.7386 15.681 44.9795 15.8047C45.2204 15.9284 45.4255 16.1058 45.5947 16.3369C45.764 16.5648 45.8991 16.8382 46 17.1572C46.1009 17.473 46.1725 17.8245 46.2148 18.2119V18.5391C46.1725 18.9167 46.1009 19.2617 46 19.5742C45.8991 19.8867 45.764 20.1569 45.5947 20.3848C45.4255 20.6126 45.2188 20.7884 44.9746 20.9121C44.7337 21.0358 44.4521 21.0977 44.1299 21.0977C43.8109 21.0977 43.5228 21.0309 43.2656 20.8975C43.0117 20.764 42.7952 20.5768 42.6162 20.3359C42.4372 20.0951 42.3005 19.8118 42.2061 19.4863C42.1117 19.1576 42.0645 18.8011 42.0645 18.417ZM43.2412 18.3145V18.417C43.2412 18.6579 43.2624 18.8825 43.3047 19.0908C43.3503 19.2992 43.4202 19.4831 43.5146 19.6426C43.609 19.7988 43.7311 19.9225 43.8809 20.0137C44.0339 20.1016 44.2161 20.1455 44.4277 20.1455C44.6947 20.1455 44.9144 20.0869 45.0869 19.9697C45.2594 19.8525 45.3945 19.6947 45.4922 19.4961C45.5931 19.2943 45.6615 19.0697 45.6973 18.8223V17.9385C45.6777 17.7464 45.637 17.5674 45.5752 17.4014C45.5166 17.2354 45.4368 17.0905 45.3359 16.9668C45.235 16.8398 45.1097 16.7422 44.96 16.6738C44.8135 16.6022 44.6393 16.5664 44.4375 16.5664C44.2227 16.5664 44.0404 16.612 43.8906 16.7031C43.7409 16.7943 43.6172 16.9196 43.5195 17.0791C43.4251 17.2386 43.3551 17.4242 43.3096 17.6357C43.264 17.8473 43.2412 18.0736 43.2412 18.3145ZM54.7617 19.1689C54.7617 19.0225 54.7389 18.8923 54.6934 18.7783C54.651 18.6644 54.5745 18.5602 54.4639 18.4658C54.3532 18.3714 54.1969 18.2803 53.9951 18.1924C53.7965 18.1012 53.5426 18.0085 53.2334 17.9141C52.8949 17.8099 52.5824 17.6943 52.2959 17.5674C52.0127 17.4372 51.7653 17.2874 51.5537 17.1182C51.3421 16.9456 51.1777 16.7487 51.0605 16.5273C50.9434 16.3027 50.8848 16.0439 50.8848 15.751C50.8848 15.4613 50.945 15.1976 51.0654 14.96C51.1891 14.7223 51.3633 14.5173 51.5879 14.3447C51.8158 14.1689 52.0843 14.0339 52.3936 13.9395C52.7028 13.8418 53.0446 13.793 53.4189 13.793C53.9463 13.793 54.4004 13.8906 54.7812 14.0859C55.1654 14.2812 55.46 14.5433 55.665 14.8721C55.8734 15.2008 55.9775 15.5638 55.9775 15.9609H54.7617C54.7617 15.7266 54.7113 15.5199 54.6104 15.3408C54.5127 15.1585 54.363 15.0153 54.1611 14.9111C53.9626 14.807 53.7103 14.7549 53.4043 14.7549C53.1146 14.7549 52.8737 14.7988 52.6816 14.8867C52.4896 14.9746 52.3464 15.0934 52.252 15.2432C52.1576 15.3929 52.1104 15.5622 52.1104 15.751C52.1104 15.8844 52.1413 16.0065 52.2031 16.1172C52.265 16.2246 52.3594 16.3255 52.4863 16.4199C52.6133 16.5111 52.7728 16.5973 52.9648 16.6787C53.1569 16.7601 53.3831 16.8382 53.6436 16.9131C54.0374 17.0303 54.3809 17.1605 54.6738 17.3037C54.9668 17.4437 55.2109 17.6032 55.4062 17.7822C55.6016 17.9613 55.748 18.1647 55.8457 18.3926C55.9434 18.6172 55.9922 18.8727 55.9922 19.1592C55.9922 19.4587 55.932 19.7288 55.8115 19.9697C55.6911 20.2074 55.5186 20.4108 55.2939 20.5801C55.0726 20.7461 54.8057 20.8747 54.4932 20.9658C54.1839 21.0537 53.8389 21.0977 53.458 21.0977C53.1162 21.0977 52.7793 21.0521 52.4473 20.9609C52.1185 20.8698 51.819 20.7314 51.5488 20.5459C51.2786 20.3571 51.0638 20.1227 50.9043 19.8428C50.7448 19.5596 50.665 19.2292 50.665 18.8516H51.8906C51.8906 19.0827 51.9297 19.2796 52.0078 19.4424C52.0892 19.6051 52.2015 19.7386 52.3447 19.8428C52.488 19.9437 52.654 20.0186 52.8428 20.0674C53.0348 20.1162 53.2399 20.1406 53.458 20.1406C53.7445 20.1406 53.9837 20.0999 54.1758 20.0186C54.3711 19.9372 54.5176 19.8232 54.6152 19.6768C54.7129 19.5303 54.7617 19.361 54.7617 19.1689ZM58.3906 16.7324V23.0312H57.2139V15.7168H58.2979L58.3906 16.7324ZM61.833 18.3096V18.4121C61.833 18.7962 61.7874 19.1527 61.6963 19.4814C61.6084 19.807 61.4766 20.0918 61.3008 20.3359C61.1283 20.5768 60.915 20.764 60.6611 20.8975C60.4072 21.0309 60.1143 21.0977 59.7822 21.0977C59.4535 21.0977 59.1654 21.0374 58.918 20.917C58.6738 20.7933 58.4671 20.6191 58.2979 20.3945C58.1286 20.1699 57.9919 19.9062 57.8877 19.6035C57.7868 19.2975 57.7152 18.9622 57.6729 18.5977V18.2021C57.7152 17.8148 57.7868 17.4632 57.8877 17.1475C57.9919 16.8317 58.1286 16.5599 58.2979 16.332C58.4671 16.1042 58.6738 15.9284 58.918 15.8047C59.1621 15.681 59.4469 15.6191 59.7725 15.6191C60.1045 15.6191 60.3991 15.6842 60.6562 15.8145C60.9134 15.9414 61.1299 16.1237 61.3057 16.3613C61.4814 16.5957 61.6133 16.8789 61.7012 17.2109C61.7891 17.5397 61.833 17.9059 61.833 18.3096ZM60.6562 18.4121V18.3096C60.6562 18.0654 60.6335 17.8392 60.5879 17.6309C60.5423 17.4193 60.4707 17.2337 60.373 17.0742C60.2754 16.9147 60.1501 16.791 59.9971 16.7031C59.8473 16.612 59.6667 16.5664 59.4551 16.5664C59.2467 16.5664 59.0677 16.6022 58.918 16.6738C58.7682 16.7422 58.6429 16.8382 58.542 16.9619C58.4411 17.0856 58.363 17.2305 58.3076 17.3965C58.2523 17.5592 58.2132 17.7367 58.1904 17.9287V18.876C58.2295 19.1104 58.2962 19.3252 58.3906 19.5205C58.485 19.7158 58.6185 19.8721 58.791 19.9893C58.9668 20.1032 59.1914 20.1602 59.4648 20.1602C59.6764 20.1602 59.8571 20.1146 60.0068 20.0234C60.1566 19.9323 60.2786 19.807 60.373 19.6475C60.4707 19.4847 60.5423 19.2975 60.5879 19.0859C60.6335 18.8743 60.6562 18.6497 60.6562 18.4121ZM65.4131 21.0977C65.0225 21.0977 64.6693 21.0342 64.3535 20.9072C64.041 20.777 63.7741 20.5964 63.5527 20.3652C63.3346 20.1341 63.167 19.8623 63.0498 19.5498C62.9326 19.2373 62.874 18.9004 62.874 18.5391V18.3438C62.874 17.9303 62.9342 17.556 63.0547 17.2207C63.1751 16.8854 63.3428 16.599 63.5576 16.3613C63.7725 16.1204 64.0264 15.9365 64.3193 15.8096C64.6123 15.6826 64.9297 15.6191 65.2715 15.6191C65.6491 15.6191 65.9795 15.6826 66.2627 15.8096C66.5459 15.9365 66.7803 16.1156 66.9658 16.3467C67.1546 16.5745 67.2946 16.8464 67.3857 17.1621C67.4801 17.4779 67.5273 17.8262 67.5273 18.207V18.71H63.4453V17.8652H66.3652V17.7725C66.3587 17.5609 66.3164 17.3623 66.2383 17.1768C66.1634 16.9912 66.0479 16.8415 65.8916 16.7275C65.7354 16.6136 65.527 16.5566 65.2666 16.5566C65.0713 16.5566 64.8971 16.599 64.7441 16.6836C64.5944 16.765 64.4691 16.8838 64.3682 17.04C64.2673 17.1963 64.1891 17.3851 64.1338 17.6064C64.0817 17.8245 64.0557 18.0703 64.0557 18.3438V18.5391C64.0557 18.7702 64.0866 18.985 64.1484 19.1836C64.2135 19.3789 64.3079 19.5498 64.4316 19.6963C64.5553 19.8428 64.7051 19.9583 64.8809 20.043C65.0566 20.1243 65.2568 20.165 65.4814 20.165C65.7646 20.165 66.0169 20.1081 66.2383 19.9941C66.4596 19.8802 66.6517 19.7191 66.8145 19.5107L67.4346 20.1113C67.3206 20.2773 67.1725 20.4368 66.9902 20.5898C66.8079 20.7396 66.585 20.8617 66.3213 20.9561C66.0609 21.0505 65.7581 21.0977 65.4131 21.0977ZM71.0244 21.0977C70.6338 21.0977 70.2806 21.0342 69.9648 20.9072C69.6523 20.777 69.3854 20.5964 69.1641 20.3652C68.946 20.1341 68.7783 19.8623 68.6611 19.5498C68.5439 19.2373 68.4854 18.9004 68.4854 18.5391V18.3438C68.4854 17.9303 68.5456 17.556 68.666 17.2207C68.7865 16.8854 68.9541 16.599 69.1689 16.3613C69.3838 16.1204 69.6377 15.9365 69.9307 15.8096C70.2236 15.6826 70.541 15.6191 70.8828 15.6191C71.2604 15.6191 71.5908 15.6826 71.874 15.8096C72.1572 15.9365 72.3916 16.1156 72.5771 16.3467C72.766 16.5745 72.9059 16.8464 72.9971 17.1621C73.0915 17.4779 73.1387 17.8262 73.1387 18.207V18.71H69.0566V17.8652H71.9766V17.7725C71.9701 17.5609 71.9277 17.3623 71.8496 17.1768C71.7747 16.9912 71.6592 16.8415 71.5029 16.7275C71.3467 16.6136 71.1383 16.5566 70.8779 16.5566C70.6826 16.5566 70.5085 16.599 70.3555 16.6836C70.2057 16.765 70.0804 16.8838 69.9795 17.04C69.8786 17.1963 69.8005 17.3851 69.7451 17.6064C69.693 17.8245 69.667 18.0703 69.667 18.3438V18.5391C69.667 18.7702 69.6979 18.985 69.7598 19.1836C69.8249 19.3789 69.9193 19.5498 70.043 19.6963C70.1667 19.8428 70.3164 19.9583 70.4922 20.043C70.668 20.1243 70.8682 20.165 71.0928 20.165C71.376 20.165 71.6283 20.1081 71.8496 19.9941C72.071 19.8802 72.263 19.7191 72.4258 19.5107L73.0459 20.1113C72.932 20.2773 72.7839 20.4368 72.6016 20.5898C72.4193 20.7396 72.1963 20.8617 71.9326 20.9561C71.6722 21.0505 71.3695 21.0977 71.0244 21.0977ZM77.5293 19.9062V13.5H78.7109V21H77.6416L77.5293 19.9062ZM74.0918 18.417V18.3145C74.0918 17.9141 74.139 17.5495 74.2334 17.2207C74.3278 16.8887 74.4645 16.6038 74.6436 16.3662C74.8226 16.1253 75.0407 15.9414 75.2979 15.8145C75.555 15.6842 75.8447 15.6191 76.167 15.6191C76.486 15.6191 76.766 15.681 77.0068 15.8047C77.2477 15.9284 77.4528 16.1058 77.6221 16.3369C77.7913 16.5648 77.9264 16.8382 78.0273 17.1572C78.1283 17.473 78.1999 17.8245 78.2422 18.2119V18.5391C78.1999 18.9167 78.1283 19.2617 78.0273 19.5742C77.9264 19.8867 77.7913 20.1569 77.6221 20.3848C77.4528 20.6126 77.2461 20.7884 77.002 20.9121C76.7611 21.0358 76.4795 21.0977 76.1572 21.0977C75.8382 21.0977 75.5501 21.0309 75.293 20.8975C75.0391 20.764 74.8226 20.5768 74.6436 20.3359C74.4645 20.0951 74.3278 19.8118 74.2334 19.4863C74.139 19.1576 74.0918 18.8011 74.0918 18.417ZM75.2686 18.3145V18.417C75.2686 18.6579 75.2897 18.8825 75.332 19.0908C75.3776 19.2992 75.4476 19.4831 75.542 19.6426C75.6364 19.7988 75.7585 19.9225 75.9082 20.0137C76.0612 20.1016 76.2435 20.1455 76.4551 20.1455C76.722 20.1455 76.9417 20.0869 77.1143 19.9697C77.2868 19.8525 77.4219 19.6947 77.5195 19.4961C77.6204 19.2943 77.6888 19.0697 77.7246 18.8223V17.9385C77.7051 17.7464 77.6644 17.5674 77.6025 17.4014C77.5439 17.2354 77.4642 17.0905 77.3633 16.9668C77.2624 16.8398 77.137 16.7422 76.9873 16.6738C76.8408 16.6022 76.6667 16.5664 76.4648 16.5664C76.25 16.5664 76.0677 16.612 75.918 16.7031C75.7682 16.7943 75.6445 16.9196 75.5469 17.0791C75.4525 17.2386 75.3825 17.4242 75.3369 17.6357C75.2913 17.8473 75.2686 18.0736 75.2686 18.3145Z" fill="black" fill-opacity="0.87"/>
<path d="M14.7871 71.7324V86H12.4336V74.5254L8.94727 75.707V73.7637L14.5039 71.7324H14.7871ZM20.7441 79.3887L18.8691 78.9297L19.6406 71.7812H27.3066V73.7734H21.5938L21.2031 77.2598C21.4245 77.1296 21.7305 77.0026 22.1211 76.8789C22.5117 76.7487 22.9577 76.6836 23.459 76.6836C24.1296 76.6836 24.7285 76.7943 25.2559 77.0156C25.7897 77.2305 26.2422 77.5462 26.6133 77.9629C26.9844 78.373 27.2676 78.8743 27.4629 79.4668C27.6582 80.0527 27.7559 80.7135 27.7559 81.4492C27.7559 82.1068 27.6582 82.722 27.4629 83.2949C27.2741 83.8678 26.9876 84.3724 26.6035 84.8086C26.2194 85.2448 25.7344 85.5866 25.1484 85.834C24.569 86.0749 23.8822 86.1953 23.0879 86.1953C22.4954 86.1953 21.9258 86.1107 21.3789 85.9414C20.8385 85.7656 20.3535 85.5085 19.9238 85.1699C19.4941 84.8249 19.1491 84.4017 18.8887 83.9004C18.6283 83.3926 18.4785 82.8099 18.4395 82.1523H20.7441C20.8027 82.6146 20.9297 83.0085 21.125 83.334C21.3268 83.653 21.5938 83.8971 21.9258 84.0664C22.2578 84.2357 22.6419 84.3203 23.0781 84.3203C23.4753 84.3203 23.8171 84.252 24.1035 84.1152C24.39 83.972 24.6276 83.7702 24.8164 83.5098C25.0117 83.2428 25.1549 82.9303 25.2461 82.5723C25.3438 82.2142 25.3926 81.8171 25.3926 81.3809C25.3926 80.9642 25.3372 80.5833 25.2266 80.2383C25.1224 79.8932 24.9629 79.5938 24.748 79.3398C24.5397 79.0859 24.276 78.8906 23.957 78.7539C23.638 78.6107 23.2702 78.5391 22.8535 78.5391C22.2936 78.5391 21.8639 78.6204 21.5645 78.7832C21.2715 78.946 20.998 79.1478 20.7441 79.3887ZM29.875 84.8281C29.875 84.4635 29.9987 84.1576 30.2461 83.9102C30.4935 83.6562 30.8288 83.5293 31.252 83.5293C31.6816 83.5293 32.0169 83.6562 32.2578 83.9102C32.5052 84.1576 32.6289 84.4635 32.6289 84.8281C32.6289 85.1927 32.5052 85.4987 32.2578 85.7461C32.0169 85.9935 31.6816 86.1172 31.252 86.1172C30.8288 86.1172 30.4935 85.9935 30.2461 85.7461C29.9987 85.4987 29.875 85.1927 29.875 84.8281ZM40.9199 71.7324V86H38.5664V74.5254L35.0801 75.707V73.7637L40.6367 71.7324H40.9199Z" fill="#234DC7"/>
<path d="M51.0298 78.8447V86H49.0293V77.0186H50.9136L51.0298 78.8447ZM50.7061 81.1772L50.0254 81.1689C50.0254 80.5492 50.1029 79.9764 50.2578 79.4507C50.4128 78.925 50.6396 78.4684 50.9385 78.0811C51.2373 77.6882 51.6081 77.3866 52.0508 77.1763C52.499 76.9604 53.0164 76.8525 53.603 76.8525C54.0125 76.8525 54.3861 76.9134 54.7236 77.0352C55.0667 77.1514 55.3628 77.3368 55.6118 77.5913C55.8664 77.8459 56.0601 78.1724 56.1929 78.5708C56.3312 78.9692 56.4004 79.4507 56.4004 80.0151V86H54.3999V80.1895C54.3999 79.7523 54.3335 79.4092 54.2007 79.1602C54.0734 78.9111 53.888 78.734 53.6445 78.6289C53.4066 78.5182 53.1216 78.4629 52.7896 78.4629C52.4132 78.4629 52.0923 78.5348 51.8267 78.6787C51.5666 78.8226 51.3535 79.019 51.1875 79.2681C51.0215 79.5171 50.8997 79.8049 50.8223 80.1313C50.7448 80.4578 50.7061 80.8065 50.7061 81.1772ZM56.2759 80.646L55.3379 80.8535C55.3379 80.3112 55.4126 79.7993 55.562 79.3179C55.717 78.8309 55.9411 78.4048 56.2344 78.0396C56.5332 77.6688 56.9012 77.3783 57.3384 77.168C57.7756 76.9577 58.2764 76.8525 58.8408 76.8525C59.3001 76.8525 59.7096 76.9162 60.0693 77.0435C60.4346 77.1652 60.7445 77.3589 60.999 77.6245C61.2536 77.8901 61.4473 78.236 61.5801 78.6621C61.7129 79.0827 61.7793 79.5918 61.7793 80.1895V86H59.7705V80.1812C59.7705 79.7274 59.7041 79.376 59.5713 79.127C59.444 78.8779 59.2614 78.7064 59.0234 78.6123C58.7855 78.5127 58.5005 78.4629 58.1685 78.4629C57.8586 78.4629 57.5846 78.521 57.3467 78.6372C57.1143 78.7479 56.9178 78.9056 56.7573 79.1104C56.5968 79.3096 56.4751 79.5392 56.3921 79.7993C56.3146 80.0594 56.2759 80.3416 56.2759 80.646ZM69.0923 73.9141L64.3857 87.0376H62.8169L67.5317 73.9141H69.0923ZM75.5171 83.5679C75.5171 83.3687 75.4673 83.1888 75.3677 83.0283C75.2681 82.8623 75.0771 82.7129 74.7949 82.5801C74.5182 82.4473 74.1087 82.3255 73.5664 82.2148C73.0905 82.1097 72.6533 81.9852 72.2549 81.8413C71.862 81.6919 71.5244 81.512 71.2422 81.3018C70.96 81.0915 70.7414 80.8424 70.5864 80.5547C70.4315 80.2669 70.354 79.9349 70.354 79.5586C70.354 79.1934 70.4342 78.8475 70.5947 78.521C70.7552 78.1945 70.9849 77.9067 71.2837 77.6577C71.5825 77.4087 71.945 77.2122 72.3711 77.0684C72.8027 76.9245 73.2842 76.8525 73.8154 76.8525C74.568 76.8525 75.2127 76.9798 75.7495 77.2344C76.2918 77.4834 76.7069 77.8237 76.9946 78.2554C77.2824 78.6815 77.4263 79.1629 77.4263 79.6997H75.4258C75.4258 79.4618 75.3649 79.2404 75.2432 79.0356C75.127 78.8254 74.9499 78.6566 74.7119 78.5293C74.474 78.3965 74.1751 78.3301 73.8154 78.3301C73.4723 78.3301 73.1873 78.3854 72.9604 78.4961C72.7391 78.6012 72.5731 78.7396 72.4624 78.9111C72.3573 79.0827 72.3047 79.2708 72.3047 79.4756C72.3047 79.625 72.3324 79.7606 72.3877 79.8823C72.4486 79.9985 72.5482 80.1064 72.6865 80.2061C72.8249 80.3001 73.013 80.3887 73.251 80.4717C73.4945 80.5547 73.7988 80.6349 74.1641 80.7124C74.8503 80.8563 75.4396 81.0417 75.9321 81.2686C76.4302 81.4899 76.812 81.7777 77.0776 82.1318C77.3433 82.4805 77.4761 82.9232 77.4761 83.46C77.4761 83.8584 77.3903 84.2236 77.2188 84.5557C77.0527 84.8822 76.8092 85.1672 76.4883 85.4106C76.1673 85.6486 75.7827 85.834 75.3345 85.9668C74.8918 86.0996 74.3937 86.166 73.8403 86.166C73.0269 86.166 72.3379 86.0221 71.7734 85.7344C71.209 85.4411 70.7801 85.0675 70.4868 84.6138C70.1991 84.1545 70.0552 83.6785 70.0552 83.186H71.9893C72.0114 83.5568 72.1138 83.8529 72.2964 84.0742C72.4845 84.29 72.717 84.4478 72.9937 84.5474C73.2759 84.6414 73.5664 84.6885 73.8652 84.6885C74.2249 84.6885 74.5265 84.6414 74.77 84.5474C75.0135 84.4478 75.1989 84.3149 75.3262 84.1489C75.4535 83.9774 75.5171 83.7837 75.5171 83.5679Z" fill="#234DC7"/>
<path d="M96 85L104.142 78.8707C105.511 77.8399 106.524 76.4068 107.038 74.7719L109.58 66.6918C111.21 61.5105 118.543 61.5105 120.173 66.6918V66.6918C121.635 71.3408 127.95 71.9843 130.32 67.7258L133.163 62.6183C134.762 59.7452 138.728 59.3297 140.888 61.809V61.809C143.258 64.5297 147.678 63.7143 148.921 60.3268L152.258 51.235C154.583 44.9007 162.889 43.4506 167.223 48.6221V48.6221C169.754 51.6428 173.989 52.6054 177.577 50.976L178.302 50.6467C181.15 49.3538 184.442 49.4937 187.17 51.0236L192 53.7329" stroke="black" stroke-opacity="0.76" stroke-width="1.3" stroke-linecap="round"/>
<rect y="109" width="200" height="50" rx="4" fill="white"/>
<rect x="0.5" y="109.5" width="199" height="49" rx="3.5" stroke="black" stroke-opacity="0.12"/>
<path d="M17 131.2H20V141H17V131.2ZM22.6 127H25.4V141H22.6V127ZM28.2 135H31V141H28.2V135Z" fill="#81C430"/>
<path d="M44.3623 125.891V133H43.1367L39.9482 127.907V133H38.7227V125.891H39.9482L43.1465 130.993V125.891H44.3623ZM45.7305 130.417V130.305C45.7305 129.924 45.7858 129.571 45.8965 129.245C46.0072 128.916 46.1667 128.632 46.375 128.391C46.5866 128.146 46.8438 127.958 47.1465 127.824C47.4525 127.688 47.7975 127.619 48.1816 127.619C48.569 127.619 48.9141 127.688 49.2168 127.824C49.5228 127.958 49.7816 128.146 49.9932 128.391C50.2048 128.632 50.3659 128.916 50.4766 129.245C50.5872 129.571 50.6426 129.924 50.6426 130.305V130.417C50.6426 130.798 50.5872 131.151 50.4766 131.477C50.3659 131.802 50.2048 132.087 49.9932 132.331C49.7816 132.572 49.5244 132.761 49.2217 132.897C48.9189 133.031 48.5755 133.098 48.1914 133.098C47.804 133.098 47.4574 133.031 47.1514 132.897C46.8486 132.761 46.5915 132.572 46.3799 132.331C46.1683 132.087 46.0072 131.802 45.8965 131.477C45.7858 131.151 45.7305 130.798 45.7305 130.417ZM46.9072 130.305V130.417C46.9072 130.655 46.9316 130.879 46.9805 131.091C47.0293 131.302 47.1058 131.488 47.21 131.647C47.3141 131.807 47.4476 131.932 47.6104 132.023C47.7731 132.115 47.9668 132.16 48.1914 132.16C48.4095 132.16 48.5983 132.115 48.7578 132.023C48.9206 131.932 49.054 131.807 49.1582 131.647C49.2624 131.488 49.3389 131.302 49.3877 131.091C49.4398 130.879 49.4658 130.655 49.4658 130.417V130.305C49.4658 130.07 49.4398 129.849 49.3877 129.641C49.3389 129.429 49.2607 129.242 49.1533 129.079C49.0492 128.916 48.9157 128.789 48.7529 128.698C48.5934 128.604 48.403 128.557 48.1816 128.557C47.9603 128.557 47.7682 128.604 47.6055 128.698C47.446 128.789 47.3141 128.916 47.21 129.079C47.1058 129.242 47.0293 129.429 46.9805 129.641C46.9316 129.849 46.9072 130.07 46.9072 130.305ZM53.1387 127.717V133H51.957V127.717H53.1387ZM51.8789 126.33C51.8789 126.151 51.9375 126.003 52.0547 125.886C52.1751 125.765 52.3411 125.705 52.5527 125.705C52.7611 125.705 52.9255 125.765 53.0459 125.886C53.1663 126.003 53.2266 126.151 53.2266 126.33C53.2266 126.506 53.1663 126.652 53.0459 126.77C52.9255 126.887 52.7611 126.945 52.5527 126.945C52.3411 126.945 52.1751 126.887 52.0547 126.77C51.9375 126.652 51.8789 126.506 51.8789 126.33ZM57.6416 131.569C57.6416 131.452 57.6123 131.346 57.5537 131.252C57.4951 131.154 57.3828 131.066 57.2168 130.988C57.054 130.91 56.8132 130.839 56.4941 130.773C56.2142 130.712 55.957 130.638 55.7227 130.554C55.4915 130.466 55.293 130.36 55.127 130.236C54.9609 130.113 54.8324 129.966 54.7412 129.797C54.6501 129.628 54.6045 129.432 54.6045 129.211C54.6045 128.996 54.6517 128.793 54.7461 128.601C54.8405 128.409 54.9756 128.239 55.1514 128.093C55.3271 127.946 55.5404 127.831 55.791 127.746C56.0449 127.661 56.3281 127.619 56.6406 127.619C57.0833 127.619 57.4626 127.694 57.7783 127.844C58.0973 127.99 58.3415 128.19 58.5107 128.444C58.68 128.695 58.7646 128.978 58.7646 129.294H57.5879C57.5879 129.154 57.5521 129.024 57.4805 128.903C57.4121 128.78 57.3079 128.68 57.168 128.605C57.028 128.527 56.8522 128.488 56.6406 128.488C56.4388 128.488 56.2712 128.521 56.1377 128.586C56.0075 128.648 55.9098 128.729 55.8447 128.83C55.7829 128.931 55.752 129.042 55.752 129.162C55.752 129.25 55.7682 129.33 55.8008 129.401C55.8366 129.47 55.8952 129.533 55.9766 129.592C56.0579 129.647 56.1686 129.699 56.3086 129.748C56.4518 129.797 56.6309 129.844 56.8457 129.89C57.2493 129.974 57.596 130.083 57.8857 130.217C58.1787 130.347 58.4033 130.516 58.5596 130.725C58.7158 130.93 58.7939 131.19 58.7939 131.506C58.7939 131.74 58.7435 131.955 58.6426 132.15C58.5449 132.342 58.4017 132.51 58.2129 132.653C58.0241 132.793 57.7979 132.902 57.5342 132.98C57.2738 133.059 56.9808 133.098 56.6553 133.098C56.1768 133.098 55.7715 133.013 55.4395 132.844C55.1074 132.671 54.8551 132.451 54.6826 132.185C54.5133 131.914 54.4287 131.634 54.4287 131.345H55.5664C55.5794 131.563 55.6396 131.737 55.7471 131.867C55.8577 131.994 55.9945 132.087 56.1572 132.146C56.3232 132.201 56.4941 132.229 56.6699 132.229C56.8815 132.229 57.0589 132.201 57.2021 132.146C57.3454 132.087 57.4544 132.009 57.5293 131.911C57.6042 131.81 57.6416 131.696 57.6416 131.569ZM62.4033 133.098C62.0127 133.098 61.6595 133.034 61.3438 132.907C61.0312 132.777 60.7643 132.596 60.543 132.365C60.3249 132.134 60.1572 131.862 60.04 131.55C59.9229 131.237 59.8643 130.9 59.8643 130.539V130.344C59.8643 129.93 59.9245 129.556 60.0449 129.221C60.1654 128.885 60.333 128.599 60.5479 128.361C60.7627 128.12 61.0166 127.937 61.3096 127.81C61.6025 127.683 61.9199 127.619 62.2617 127.619C62.6393 127.619 62.9697 127.683 63.2529 127.81C63.5361 127.937 63.7705 128.116 63.9561 128.347C64.1449 128.575 64.2848 128.846 64.376 129.162C64.4704 129.478 64.5176 129.826 64.5176 130.207V130.71H60.4355V129.865H63.3555V129.772C63.349 129.561 63.3066 129.362 63.2285 129.177C63.1536 128.991 63.0381 128.841 62.8818 128.728C62.7256 128.614 62.5173 128.557 62.2568 128.557C62.0615 128.557 61.8874 128.599 61.7344 128.684C61.5846 128.765 61.4593 128.884 61.3584 129.04C61.2575 129.196 61.1794 129.385 61.124 129.606C61.0719 129.825 61.0459 130.07 61.0459 130.344V130.539C61.0459 130.77 61.0768 130.985 61.1387 131.184C61.2038 131.379 61.2982 131.55 61.4219 131.696C61.5456 131.843 61.6953 131.958 61.8711 132.043C62.0469 132.124 62.2471 132.165 62.4717 132.165C62.7549 132.165 63.0072 132.108 63.2285 131.994C63.4499 131.88 63.6419 131.719 63.8047 131.511L64.4248 132.111C64.3109 132.277 64.1628 132.437 63.9805 132.59C63.7982 132.74 63.5752 132.862 63.3115 132.956C63.0511 133.05 62.7484 133.098 62.4033 133.098ZM69.6855 125.5V133H68.5039V125.5H69.6855ZM73.5537 133.098C73.1631 133.098 72.8099 133.034 72.4941 132.907C72.1816 132.777 71.9147 132.596 71.6934 132.365C71.4753 132.134 71.3076 131.862 71.1904 131.55C71.0732 131.237 71.0146 130.9 71.0146 130.539V130.344C71.0146 129.93 71.0749 129.556 71.1953 129.221C71.3158 128.885 71.4834 128.599 71.6982 128.361C71.9131 128.12 72.167 127.937 72.46 127.81C72.7529 127.683 73.0703 127.619 73.4121 127.619C73.7897 127.619 74.1201 127.683 74.4033 127.81C74.6865 127.937 74.9209 128.116 75.1064 128.347C75.2952 128.575 75.4352 128.846 75.5264 129.162C75.6208 129.478 75.668 129.826 75.668 130.207V130.71H71.5859V129.865H74.5059V129.772C74.4993 129.561 74.457 129.362 74.3789 129.177C74.304 128.991 74.1885 128.841 74.0322 128.728C73.876 128.614 73.6676 128.557 73.4072 128.557C73.2119 128.557 73.0378 128.599 72.8848 128.684C72.735 128.765 72.6097 128.884 72.5088 129.04C72.4079 129.196 72.3298 129.385 72.2744 129.606C72.2223 129.825 72.1963 130.07 72.1963 130.344V130.539C72.1963 130.77 72.2272 130.985 72.2891 131.184C72.3542 131.379 72.4486 131.55 72.5723 131.696C72.696 131.843 72.8457 131.958 73.0215 132.043C73.1973 132.124 73.3975 132.165 73.6221 132.165C73.9053 132.165 74.1576 132.108 74.3789 131.994C74.6003 131.88 74.7923 131.719 74.9551 131.511L75.5752 132.111C75.4613 132.277 75.3132 132.437 75.1309 132.59C74.9486 132.74 74.7256 132.862 74.4619 132.956C74.2015 133.05 73.8988 133.098 73.5537 133.098ZM78.4863 132.067L79.7803 127.717H81.001L79.165 133H78.4033L78.4863 132.067ZM77.4951 127.717L78.8135 132.087L78.877 133H78.1152L76.2695 127.717H77.4951ZM84.2393 133.098C83.8486 133.098 83.4954 133.034 83.1797 132.907C82.8672 132.777 82.6003 132.596 82.3789 132.365C82.1608 132.134 81.9932 131.862 81.876 131.55C81.7588 131.237 81.7002 130.9 81.7002 130.539V130.344C81.7002 129.93 81.7604 129.556 81.8809 129.221C82.0013 128.885 82.1689 128.599 82.3838 128.361C82.5986 128.12 82.8525 127.937 83.1455 127.81C83.4385 127.683 83.7559 127.619 84.0977 127.619C84.4753 127.619 84.8057 127.683 85.0889 127.81C85.3721 127.937 85.6064 128.116 85.792 128.347C85.9808 128.575 86.1208 128.846 86.2119 129.162C86.3063 129.478 86.3535 129.826 86.3535 130.207V130.71H82.2715V129.865H85.1914V129.772C85.1849 129.561 85.1426 129.362 85.0645 129.177C84.9896 128.991 84.874 128.841 84.7178 128.728C84.5615 128.614 84.3532 128.557 84.0928 128.557C83.8975 128.557 83.7233 128.599 83.5703 128.684C83.4206 128.765 83.2952 128.884 83.1943 129.04C83.0934 129.196 83.0153 129.385 82.96 129.606C82.9079 129.825 82.8818 130.07 82.8818 130.344V130.539C82.8818 130.77 82.9128 130.985 82.9746 131.184C83.0397 131.379 83.1341 131.55 83.2578 131.696C83.3815 131.843 83.5312 131.958 83.707 132.043C83.8828 132.124 84.083 132.165 84.3076 132.165C84.5908 132.165 84.8431 132.108 85.0645 131.994C85.2858 131.88 85.4779 131.719 85.6406 131.511L86.2607 132.111C86.1468 132.277 85.9987 132.437 85.8164 132.59C85.6341 132.74 85.4111 132.862 85.1475 132.956C84.887 133.05 84.5843 133.098 84.2393 133.098ZM88.7812 125.5V133H87.5996V125.5H88.7812Z" fill="black" fill-opacity="0.87"/>
<path d="M41.623 142.32V143H39.1245V142.32H41.623ZM39.3638 138.023V143H38.5059V138.023H39.3638ZM44.5391 142.258V140.495C44.5391 140.362 44.5151 140.249 44.4673 140.153C44.4194 140.057 44.3465 139.983 44.2485 139.931C44.1528 139.878 44.0321 139.852 43.8862 139.852C43.7518 139.852 43.6356 139.875 43.5376 139.92C43.4396 139.966 43.3633 140.028 43.3086 140.105C43.2539 140.182 43.2266 140.27 43.2266 140.368H42.4062C42.4062 140.222 42.4416 140.081 42.5122 139.944C42.5828 139.808 42.6854 139.686 42.8198 139.579C42.9543 139.472 43.1149 139.387 43.3018 139.326C43.4886 139.264 43.6982 139.233 43.9307 139.233C44.2087 139.233 44.4548 139.28 44.6689 139.374C44.8854 139.467 45.0552 139.608 45.1782 139.797C45.3035 139.984 45.3662 140.219 45.3662 140.501V142.146C45.3662 142.314 45.3776 142.466 45.4004 142.6C45.4255 142.732 45.4608 142.847 45.5063 142.945V143H44.6621C44.6234 142.911 44.5926 142.798 44.5698 142.662C44.5493 142.523 44.5391 142.388 44.5391 142.258ZM44.6587 140.751L44.6655 141.26H44.0742C43.9215 141.26 43.7871 141.275 43.6709 141.305C43.5547 141.332 43.4578 141.373 43.3804 141.428C43.3029 141.482 43.2448 141.549 43.2061 141.626C43.1673 141.703 43.1479 141.791 43.1479 141.889C43.1479 141.987 43.1707 142.077 43.2163 142.159C43.2619 142.239 43.328 142.302 43.4146 142.347C43.5034 142.393 43.6105 142.416 43.7358 142.416C43.9045 142.416 44.0514 142.381 44.1768 142.313C44.3044 142.242 44.4046 142.157 44.4775 142.057C44.5505 141.954 44.5892 141.857 44.5938 141.766L44.8604 142.132C44.833 142.225 44.7863 142.326 44.7202 142.433C44.6541 142.54 44.5675 142.642 44.4604 142.74C44.3556 142.836 44.2292 142.915 44.0811 142.976C43.9352 143.038 43.7666 143.068 43.5752 143.068C43.3337 143.068 43.1183 143.021 42.9292 142.925C42.7401 142.827 42.592 142.696 42.4849 142.532C42.3778 142.365 42.3242 142.177 42.3242 141.968C42.3242 141.772 42.3607 141.599 42.4336 141.448C42.5088 141.296 42.6182 141.168 42.7617 141.065C42.9076 140.963 43.0853 140.885 43.2949 140.833C43.5046 140.778 43.7438 140.751 44.0127 140.751H44.6587ZM48.5522 141.999C48.5522 141.917 48.5317 141.842 48.4907 141.776C48.4497 141.708 48.3711 141.646 48.2549 141.592C48.141 141.537 47.9723 141.487 47.749 141.441C47.5531 141.398 47.373 141.347 47.209 141.288C47.0472 141.226 46.9082 141.152 46.792 141.065C46.6758 140.979 46.5858 140.876 46.522 140.758C46.4582 140.639 46.4263 140.503 46.4263 140.348C46.4263 140.197 46.4593 140.055 46.5254 139.92C46.5915 139.786 46.686 139.667 46.8091 139.565C46.9321 139.462 47.0814 139.382 47.2568 139.322C47.4346 139.263 47.6328 139.233 47.8516 139.233C48.1615 139.233 48.4269 139.286 48.6479 139.391C48.8713 139.493 49.0422 139.633 49.1606 139.811C49.2791 139.986 49.3384 140.185 49.3384 140.406H48.5146C48.5146 140.308 48.4896 140.217 48.4395 140.132C48.3916 140.046 48.3187 139.976 48.2207 139.924C48.1227 139.869 47.9997 139.842 47.8516 139.842C47.7103 139.842 47.5929 139.865 47.4995 139.91C47.4084 139.953 47.34 140.01 47.2944 140.081C47.2511 140.152 47.2295 140.229 47.2295 140.313C47.2295 140.375 47.2409 140.431 47.2637 140.481C47.2887 140.529 47.3298 140.573 47.3867 140.614C47.4437 140.653 47.5212 140.689 47.6191 140.724C47.7194 140.758 47.8447 140.791 47.9951 140.823C48.2777 140.882 48.5203 140.958 48.7231 141.052C48.9282 141.143 49.0854 141.261 49.1948 141.407C49.3042 141.551 49.3589 141.733 49.3589 141.954C49.3589 142.118 49.3236 142.269 49.2529 142.405C49.1846 142.54 49.0843 142.657 48.9521 142.757C48.82 142.855 48.6616 142.932 48.4771 142.986C48.2948 143.041 48.0897 143.068 47.8618 143.068C47.5269 143.068 47.2432 143.009 47.0107 142.891C46.7783 142.77 46.6017 142.616 46.481 142.429C46.3625 142.24 46.3032 142.044 46.3032 141.841H47.0996C47.1087 141.994 47.1509 142.116 47.2261 142.207C47.3035 142.296 47.3993 142.361 47.5132 142.402C47.6294 142.441 47.749 142.46 47.8721 142.46C48.0202 142.46 48.1444 142.441 48.2446 142.402C48.3449 142.361 48.4212 142.306 48.4736 142.238C48.526 142.167 48.5522 142.087 48.5522 141.999ZM52.0254 139.302V139.903H49.9404V139.302H52.0254ZM50.542 138.396H51.3657V141.978C51.3657 142.092 51.3817 142.18 51.4136 142.241C51.4478 142.3 51.4945 142.34 51.5537 142.361C51.613 142.381 51.6825 142.392 51.7622 142.392C51.8192 142.392 51.8739 142.388 51.9263 142.381C51.9787 142.375 52.0208 142.368 52.0527 142.361L52.0562 142.99C51.9878 143.01 51.908 143.028 51.8169 143.044C51.728 143.06 51.6255 143.068 51.5093 143.068C51.3201 143.068 51.1527 143.035 51.0068 142.969C50.861 142.901 50.7471 142.79 50.665 142.638C50.583 142.485 50.542 142.282 50.542 142.029V138.396ZM57.1294 142.128V139.302H57.9565V143H57.1772L57.1294 142.128ZM57.2456 141.359L57.5225 141.353C57.5225 141.601 57.4951 141.83 57.4404 142.04C57.3857 142.247 57.3014 142.428 57.1875 142.583C57.0736 142.736 56.9277 142.855 56.75 142.942C56.5723 143.026 56.3592 143.068 56.1108 143.068C55.9308 143.068 55.7656 143.042 55.6152 142.99C55.4648 142.937 55.335 142.856 55.2256 142.747C55.1185 142.638 55.0353 142.495 54.9761 142.32C54.9168 142.144 54.8872 141.935 54.8872 141.691V139.302H55.7109V141.698C55.7109 141.832 55.7269 141.945 55.7588 142.036C55.7907 142.125 55.834 142.197 55.8887 142.251C55.9434 142.306 56.0072 142.345 56.0801 142.368C56.153 142.39 56.2305 142.402 56.3125 142.402C56.5472 142.402 56.7318 142.356 56.8662 142.265C57.0029 142.172 57.0998 142.046 57.1567 141.889C57.216 141.732 57.2456 141.555 57.2456 141.359ZM59.8779 140.013V144.422H59.0542V139.302H59.813L59.8779 140.013ZM62.2876 141.117V141.188C62.2876 141.457 62.2557 141.707 62.1919 141.937C62.1304 142.165 62.0381 142.364 61.915 142.535C61.7943 142.704 61.645 142.835 61.4673 142.928C61.2896 143.022 61.0845 143.068 60.8521 143.068C60.6219 143.068 60.4202 143.026 60.2471 142.942C60.0762 142.855 59.9315 142.733 59.813 142.576C59.6945 142.419 59.5988 142.234 59.5259 142.022C59.4552 141.808 59.4051 141.574 59.3755 141.318V141.042C59.4051 140.77 59.4552 140.524 59.5259 140.303C59.5988 140.082 59.6945 139.892 59.813 139.732C59.9315 139.573 60.0762 139.45 60.2471 139.363C60.418 139.277 60.6174 139.233 60.8452 139.233C61.0776 139.233 61.2839 139.279 61.4639 139.37C61.6439 139.459 61.7954 139.587 61.9185 139.753C62.0415 139.917 62.1338 140.115 62.1953 140.348C62.2568 140.578 62.2876 140.834 62.2876 141.117ZM61.4639 141.188V141.117C61.4639 140.946 61.4479 140.787 61.416 140.642C61.3841 140.493 61.334 140.364 61.2656 140.252C61.1973 140.14 61.1095 140.054 61.0024 139.992C60.8976 139.928 60.7712 139.896 60.623 139.896C60.4772 139.896 60.3519 139.922 60.2471 139.972C60.1423 140.02 60.0545 140.087 59.9839 140.173C59.9132 140.26 59.8586 140.361 59.8198 140.478C59.7811 140.591 59.7537 140.716 59.7378 140.85V141.513C59.7651 141.677 59.8118 141.828 59.8779 141.964C59.944 142.101 60.0374 142.21 60.1582 142.292C60.2812 142.372 60.4385 142.412 60.6299 142.412C60.778 142.412 60.9045 142.38 61.0093 142.316C61.1141 142.253 61.1995 142.165 61.2656 142.053C61.334 141.939 61.3841 141.808 61.416 141.66C61.4479 141.512 61.4639 141.355 61.4639 141.188ZM65.4941 142.234V137.75H66.3213V143H65.5728L65.4941 142.234ZM63.0879 141.192V141.12C63.0879 140.84 63.1209 140.585 63.187 140.354C63.2531 140.122 63.3488 139.923 63.4741 139.756C63.5994 139.588 63.7521 139.459 63.9321 139.37C64.1121 139.279 64.3149 139.233 64.5405 139.233C64.7638 139.233 64.9598 139.277 65.1284 139.363C65.297 139.45 65.4406 139.574 65.5591 139.736C65.6776 139.895 65.7721 140.087 65.8428 140.31C65.9134 140.531 65.9635 140.777 65.9932 141.048V141.277C65.9635 141.542 65.9134 141.783 65.8428 142.002C65.7721 142.221 65.6776 142.41 65.5591 142.569C65.4406 142.729 65.2959 142.852 65.125 142.938C64.9564 143.025 64.7593 143.068 64.5337 143.068C64.3104 143.068 64.1087 143.022 63.9287 142.928C63.751 142.835 63.5994 142.704 63.4741 142.535C63.3488 142.367 63.2531 142.168 63.187 141.94C63.1209 141.71 63.0879 141.461 63.0879 141.192ZM63.9116 141.12V141.192C63.9116 141.361 63.9264 141.518 63.9561 141.664C63.988 141.809 64.0369 141.938 64.103 142.05C64.1691 142.159 64.2546 142.246 64.3594 142.31C64.4665 142.371 64.5941 142.402 64.7422 142.402C64.929 142.402 65.0828 142.361 65.2036 142.279C65.3244 142.197 65.4189 142.086 65.4873 141.947C65.5579 141.806 65.6058 141.649 65.6309 141.476V140.857C65.6172 140.722 65.5887 140.597 65.5454 140.481C65.5044 140.365 65.4486 140.263 65.3779 140.177C65.3073 140.088 65.2196 140.02 65.1147 139.972C65.0122 139.922 64.8903 139.896 64.749 139.896C64.5986 139.896 64.471 139.928 64.3662 139.992C64.2614 140.056 64.1748 140.144 64.1064 140.255C64.0404 140.367 63.9914 140.497 63.9595 140.645C63.9276 140.793 63.9116 140.951 63.9116 141.12ZM69.5176 142.258V140.495C69.5176 140.362 69.4937 140.249 69.4458 140.153C69.3979 140.057 69.325 139.983 69.2271 139.931C69.1313 139.878 69.0106 139.852 68.8647 139.852C68.7303 139.852 68.6141 139.875 68.5161 139.92C68.4181 139.966 68.3418 140.028 68.2871 140.105C68.2324 140.182 68.2051 140.27 68.2051 140.368H67.3848C67.3848 140.222 67.4201 140.081 67.4907 139.944C67.5614 139.808 67.6639 139.686 67.7983 139.579C67.9328 139.472 68.0934 139.387 68.2803 139.326C68.4671 139.264 68.6768 139.233 68.9092 139.233C69.1872 139.233 69.4333 139.28 69.6475 139.374C69.8639 139.467 70.0337 139.608 70.1567 139.797C70.2821 139.984 70.3447 140.219 70.3447 140.501V142.146C70.3447 142.314 70.3561 142.466 70.3789 142.6C70.404 142.732 70.4393 142.847 70.4849 142.945V143H69.6406C69.6019 142.911 69.5711 142.798 69.5483 142.662C69.5278 142.523 69.5176 142.388 69.5176 142.258ZM69.6372 140.751L69.644 141.26H69.0527C68.9001 141.26 68.7656 141.275 68.6494 141.305C68.5332 141.332 68.4364 141.373 68.3589 141.428C68.2814 141.482 68.2233 141.549 68.1846 141.626C68.1458 141.703 68.1265 141.791 68.1265 141.889C68.1265 141.987 68.1493 142.077 68.1948 142.159C68.2404 142.239 68.3065 142.302 68.3931 142.347C68.4819 142.393 68.589 142.416 68.7144 142.416C68.883 142.416 69.0299 142.381 69.1553 142.313C69.2829 142.242 69.3831 142.157 69.4561 142.057C69.529 141.954 69.5677 141.857 69.5723 141.766L69.8389 142.132C69.8115 142.225 69.7648 142.326 69.6987 142.433C69.6326 142.54 69.5461 142.642 69.439 142.74C69.3341 142.836 69.2077 142.915 69.0596 142.976C68.9137 143.038 68.7451 143.068 68.5537 143.068C68.3122 143.068 68.0968 143.021 67.9077 142.925C67.7186 142.827 67.5705 142.696 67.4634 142.532C67.3563 142.365 67.3027 142.177 67.3027 141.968C67.3027 141.772 67.3392 141.599 67.4121 141.448C67.4873 141.296 67.5967 141.168 67.7402 141.065C67.8861 140.963 68.0638 140.885 68.2734 140.833C68.4831 140.778 68.7223 140.751 68.9912 140.751H69.6372ZM73.1514 139.302V139.903H71.0664V139.302H73.1514ZM71.668 138.396H72.4917V141.978C72.4917 142.092 72.5076 142.18 72.5396 142.241C72.5737 142.3 72.6204 142.34 72.6797 142.361C72.7389 142.381 72.8084 142.392 72.8882 142.392C72.9451 142.392 72.9998 142.388 73.0522 142.381C73.1047 142.375 73.1468 142.368 73.1787 142.361L73.1821 142.99C73.1138 143.01 73.034 143.028 72.9429 143.044C72.854 143.06 72.7515 143.068 72.6353 143.068C72.4461 143.068 72.2786 143.035 72.1328 142.969C71.987 142.901 71.873 142.79 71.791 142.638C71.709 142.485 71.668 142.282 71.668 142.029V138.396ZM75.6675 143.068C75.394 143.068 75.1468 143.024 74.9258 142.935C74.707 142.844 74.5202 142.717 74.3652 142.556C74.2126 142.394 74.0952 142.204 74.0132 141.985C73.9312 141.766 73.8901 141.53 73.8901 141.277V141.141C73.8901 140.851 73.9323 140.589 74.0166 140.354C74.1009 140.12 74.2183 139.919 74.3687 139.753C74.519 139.584 74.6968 139.456 74.9019 139.367C75.1069 139.278 75.3291 139.233 75.5684 139.233C75.8327 139.233 76.064 139.278 76.2622 139.367C76.4604 139.456 76.6245 139.581 76.7544 139.743C76.8866 139.902 76.9845 140.092 77.0483 140.313C77.1144 140.535 77.1475 140.778 77.1475 141.045V141.397H74.29V140.806H76.334V140.741C76.3294 140.593 76.2998 140.454 76.2451 140.324C76.1927 140.194 76.1118 140.089 76.0024 140.009C75.8931 139.93 75.7472 139.89 75.5649 139.89C75.4282 139.89 75.3063 139.919 75.1992 139.979C75.0944 140.035 75.0067 140.119 74.936 140.228C74.8654 140.337 74.8107 140.47 74.772 140.625C74.7355 140.777 74.7173 140.949 74.7173 141.141V141.277C74.7173 141.439 74.7389 141.59 74.7822 141.729C74.8278 141.865 74.8939 141.985 74.9805 142.087C75.0671 142.19 75.1719 142.271 75.2949 142.33C75.418 142.387 75.5581 142.416 75.7153 142.416C75.9136 142.416 76.0902 142.376 76.2451 142.296C76.4001 142.216 76.5345 142.103 76.6484 141.958L77.0825 142.378C77.0028 142.494 76.8991 142.606 76.7715 142.713C76.6439 142.818 76.4878 142.903 76.3032 142.969C76.1209 143.035 75.909 143.068 75.6675 143.068ZM82.2344 138.006V143H81.4106V138.984L80.1904 139.397V138.717L82.1353 138.006H82.2344ZM86.5176 142.234V137.75H87.3447V143H86.5962L86.5176 142.234ZM84.1113 141.192V141.12C84.1113 140.84 84.1444 140.585 84.2104 140.354C84.2765 140.122 84.3722 139.923 84.4976 139.756C84.6229 139.588 84.7756 139.459 84.9556 139.37C85.1356 139.279 85.3384 139.233 85.564 139.233C85.7873 139.233 85.9832 139.277 86.1519 139.363C86.3205 139.45 86.464 139.574 86.5825 139.736C86.701 139.895 86.7956 140.087 86.8662 140.31C86.9368 140.531 86.987 140.777 87.0166 141.048V141.277C86.987 141.542 86.9368 141.783 86.8662 142.002C86.7956 142.221 86.701 142.41 86.5825 142.569C86.464 142.729 86.3193 142.852 86.1484 142.938C85.9798 143.025 85.7827 143.068 85.5571 143.068C85.3338 143.068 85.1322 143.022 84.9521 142.928C84.7744 142.835 84.6229 142.704 84.4976 142.535C84.3722 142.367 84.2765 142.168 84.2104 141.94C84.1444 141.71 84.1113 141.461 84.1113 141.192ZM84.9351 141.12V141.192C84.9351 141.361 84.9499 141.518 84.9795 141.664C85.0114 141.809 85.0604 141.938 85.1265 142.05C85.1925 142.159 85.278 142.246 85.3828 142.31C85.4899 142.371 85.6175 142.402 85.7656 142.402C85.9525 142.402 86.1063 142.361 86.2271 142.279C86.3478 142.197 86.4424 142.086 86.5107 141.947C86.5814 141.806 86.6292 141.649 86.6543 141.476V140.857C86.6406 140.722 86.6121 140.597 86.5688 140.481C86.5278 140.365 86.472 140.263 86.4014 140.177C86.3307 140.088 86.243 140.02 86.1382 139.972C86.0356 139.922 85.9137 139.896 85.7725 139.896C85.6221 139.896 85.4945 139.928 85.3896 139.992C85.2848 140.056 85.1982 140.144 85.1299 140.255C85.0638 140.367 85.0148 140.497 84.9829 140.645C84.951 140.793 84.9351 140.951 84.9351 141.12ZM92.5342 142.258V140.495C92.5342 140.362 92.5103 140.249 92.4624 140.153C92.4146 140.057 92.3416 139.983 92.2437 139.931C92.1479 139.878 92.0272 139.852 91.8813 139.852C91.7469 139.852 91.6307 139.875 91.5327 139.92C91.4347 139.966 91.3584 140.028 91.3037 140.105C91.249 140.182 91.2217 140.27 91.2217 140.368H90.4014C90.4014 140.222 90.4367 140.081 90.5073 139.944C90.578 139.808 90.6805 139.686 90.8149 139.579C90.9494 139.472 91.11 139.387 91.2969 139.326C91.4837 139.264 91.6934 139.233 91.9258 139.233C92.2038 139.233 92.4499 139.28 92.6641 139.374C92.8805 139.467 93.0503 139.608 93.1733 139.797C93.2987 139.984 93.3613 140.219 93.3613 140.501V142.146C93.3613 142.314 93.3727 142.466 93.3955 142.6C93.4206 142.732 93.4559 142.847 93.5015 142.945V143H92.6572C92.6185 142.911 92.5877 142.798 92.5649 142.662C92.5444 142.523 92.5342 142.388 92.5342 142.258ZM92.6538 140.751L92.6606 141.26H92.0693C91.9167 141.26 91.7822 141.275 91.666 141.305C91.5498 141.332 91.453 141.373 91.3755 141.428C91.298 141.482 91.2399 141.549 91.2012 141.626C91.1624 141.703 91.1431 141.791 91.1431 141.889C91.1431 141.987 91.1659 142.077 91.2114 142.159C91.257 142.239 91.3231 142.302 91.4097 142.347C91.4985 142.393 91.6056 142.416 91.731 142.416C91.8996 142.416 92.0465 142.381 92.1719 142.313C92.2995 142.242 92.3997 142.157 92.4727 142.057C92.5456 141.954 92.5843 141.857 92.5889 141.766L92.8555 142.132C92.8281 142.225 92.7814 142.326 92.7153 142.433C92.6493 142.54 92.5627 142.642 92.4556 142.74C92.3507 142.836 92.2243 142.915 92.0762 142.976C91.9303 143.038 91.7617 143.068 91.5703 143.068C91.3288 143.068 91.1134 143.021 90.9243 142.925C90.7352 142.827 90.5871 142.696 90.48 142.532C90.3729 142.365 90.3193 142.177 90.3193 141.968C90.3193 141.772 90.3558 141.599 90.4287 141.448C90.5039 141.296 90.6133 141.168 90.7568 141.065C90.9027 140.963 91.0804 140.885 91.29 140.833C91.4997 140.778 91.7389 140.751 92.0078 140.751H92.6538ZM96.8413 139.302H97.5898V142.897C97.5898 143.23 97.5192 143.513 97.3779 143.745C97.2367 143.978 97.0396 144.154 96.7866 144.275C96.5337 144.398 96.2409 144.459 95.9082 144.459C95.7669 144.459 95.6097 144.439 95.4365 144.398C95.2656 144.357 95.0993 144.291 94.9375 144.2C94.778 144.111 94.6447 143.993 94.5376 143.848L94.9238 143.362C95.056 143.52 95.2018 143.635 95.3613 143.708C95.5208 143.78 95.6883 143.817 95.8638 143.817C96.0529 143.817 96.2135 143.782 96.3457 143.711C96.4801 143.643 96.5838 143.541 96.6567 143.407C96.7297 143.272 96.7661 143.108 96.7661 142.915V140.139L96.8413 139.302ZM94.3291 141.192V141.12C94.3291 140.84 94.3633 140.585 94.4316 140.354C94.5 140.122 94.598 139.923 94.7256 139.756C94.8532 139.588 95.0081 139.459 95.1904 139.37C95.3727 139.279 95.5789 139.233 95.8091 139.233C96.0483 139.233 96.2523 139.277 96.4209 139.363C96.5918 139.45 96.7342 139.574 96.8481 139.736C96.9621 139.895 97.0509 140.087 97.1147 140.31C97.1808 140.531 97.2298 140.777 97.2617 141.048V141.277C97.2321 141.542 97.182 141.783 97.1113 142.002C97.0407 142.221 96.9473 142.41 96.8311 142.569C96.7148 142.729 96.5713 142.852 96.4004 142.938C96.2318 143.025 96.0324 143.068 95.8022 143.068C95.5767 143.068 95.3727 143.022 95.1904 142.928C95.0104 142.835 94.8555 142.704 94.7256 142.535C94.598 142.367 94.5 142.168 94.4316 141.94C94.3633 141.71 94.3291 141.461 94.3291 141.192ZM95.1528 141.12V141.192C95.1528 141.361 95.1688 141.518 95.2007 141.664C95.2349 141.809 95.2861 141.938 95.3545 142.05C95.4251 142.159 95.514 142.246 95.6211 142.31C95.7305 142.371 95.8592 142.402 96.0073 142.402C96.201 142.402 96.3594 142.361 96.4824 142.279C96.6077 142.197 96.7035 142.086 96.7695 141.947C96.8379 141.806 96.8857 141.649 96.9131 141.476V140.857C96.8994 140.722 96.8709 140.597 96.8276 140.481C96.7866 140.365 96.7308 140.263 96.6602 140.177C96.5895 140.088 96.5007 140.02 96.3936 139.972C96.2865 139.922 96.16 139.896 96.0142 139.896C95.866 139.896 95.7373 139.928 95.6279 139.992C95.5186 140.056 95.4285 140.144 95.3579 140.255C95.2896 140.367 95.2383 140.497 95.2041 140.645C95.1699 140.793 95.1528 140.951 95.1528 141.12ZM98.5371 141.192V141.113C98.5371 140.847 98.5758 140.599 98.6533 140.372C98.7308 140.141 98.8424 139.942 98.9883 139.773C99.1364 139.603 99.3164 139.47 99.5283 139.377C99.7425 139.281 99.984 139.233 100.253 139.233C100.524 139.233 100.766 139.281 100.978 139.377C101.192 139.47 101.373 139.603 101.521 139.773C101.669 139.942 101.782 140.141 101.859 140.372C101.937 140.599 101.976 140.847 101.976 141.113V141.192C101.976 141.458 101.937 141.706 101.859 141.934C101.782 142.161 101.669 142.361 101.521 142.532C101.373 142.7 101.193 142.833 100.981 142.928C100.769 143.022 100.529 143.068 100.26 143.068C99.9886 143.068 99.7459 143.022 99.5317 142.928C99.3198 142.833 99.1398 142.7 98.9917 142.532C98.8436 142.361 98.7308 142.161 98.6533 141.934C98.5758 141.706 98.5371 141.458 98.5371 141.192ZM99.3608 141.113V141.192C99.3608 141.358 99.3779 141.515 99.4121 141.664C99.4463 141.812 99.4998 141.942 99.5728 142.053C99.6457 142.165 99.7391 142.253 99.853 142.316C99.967 142.38 100.103 142.412 100.26 142.412C100.412 142.412 100.545 142.38 100.656 142.316C100.77 142.253 100.864 142.165 100.937 142.053C101.009 141.942 101.063 141.812 101.097 141.664C101.134 141.515 101.152 141.358 101.152 141.192V141.113C101.152 140.949 101.134 140.794 101.097 140.648C101.063 140.5 101.008 140.369 100.933 140.255C100.86 140.141 100.767 140.053 100.653 139.989C100.541 139.923 100.408 139.89 100.253 139.89C100.098 139.89 99.9635 139.923 99.8496 139.989C99.738 140.053 99.6457 140.141 99.5728 140.255C99.4998 140.369 99.4463 140.5 99.4121 140.648C99.3779 140.794 99.3608 140.949 99.3608 141.113Z" fill="black" fill-opacity="0.38"/>
<path d="M131.605 132.191H133.293C133.949 132.191 134.492 132.078 134.922 131.852C135.359 131.625 135.684 131.312 135.895 130.914C136.105 130.516 136.211 130.059 136.211 129.543C136.211 129.004 136.113 128.543 135.918 128.16C135.73 127.77 135.441 127.469 135.051 127.258C134.668 127.047 134.18 126.941 133.586 126.941C133.086 126.941 132.633 127.043 132.227 127.246C131.828 127.441 131.512 127.723 131.277 128.09C131.043 128.449 130.926 128.879 130.926 129.379H128.09C128.09 128.473 128.328 127.668 128.805 126.965C129.281 126.262 129.93 125.711 130.75 125.312C131.578 124.906 132.508 124.703 133.539 124.703C134.641 124.703 135.602 124.887 136.422 125.254C137.25 125.613 137.895 126.152 138.355 126.871C138.816 127.59 139.047 128.48 139.047 129.543C139.047 130.027 138.934 130.52 138.707 131.02C138.48 131.52 138.145 131.977 137.699 132.391C137.254 132.797 136.699 133.129 136.035 133.387C135.371 133.637 134.602 133.762 133.727 133.762H131.605V132.191ZM131.605 134.395V132.848H133.727C134.727 132.848 135.578 132.965 136.281 133.199C136.992 133.434 137.57 133.758 138.016 134.172C138.461 134.578 138.785 135.043 138.988 135.566C139.199 136.09 139.305 136.645 139.305 137.23C139.305 138.027 139.16 138.738 138.871 139.363C138.59 139.98 138.188 140.504 137.664 140.934C137.141 141.363 136.527 141.688 135.824 141.906C135.129 142.125 134.371 142.234 133.551 142.234C132.816 142.234 132.113 142.133 131.441 141.93C130.77 141.727 130.168 141.426 129.637 141.027C129.105 140.621 128.684 140.117 128.371 139.516C128.066 138.906 127.914 138.203 127.914 137.406H130.738C130.738 137.914 130.855 138.363 131.09 138.754C131.332 139.137 131.668 139.438 132.098 139.656C132.535 139.875 133.035 139.984 133.598 139.984C134.191 139.984 134.703 139.879 135.133 139.668C135.562 139.457 135.891 139.145 136.117 138.73C136.352 138.316 136.469 137.816 136.469 137.23C136.469 136.566 136.34 136.027 136.082 135.613C135.824 135.199 135.457 134.895 134.98 134.699C134.504 134.496 133.941 134.395 133.293 134.395H131.605ZM152.865 132.039V134.828C152.865 136.164 152.732 137.305 152.467 138.25C152.209 139.188 151.834 139.949 151.342 140.535C150.85 141.121 150.26 141.551 149.572 141.824C148.892 142.098 148.131 142.234 147.287 142.234C146.615 142.234 145.99 142.148 145.412 141.977C144.842 141.805 144.326 141.535 143.865 141.168C143.404 140.801 143.01 140.328 142.682 139.75C142.361 139.164 142.111 138.465 141.932 137.652C141.76 136.84 141.674 135.898 141.674 134.828V132.039C141.674 130.695 141.807 129.562 142.072 128.641C142.338 127.711 142.717 126.957 143.209 126.379C143.701 125.793 144.287 125.367 144.967 125.102C145.654 124.836 146.42 124.703 147.264 124.703C147.943 124.703 148.568 124.789 149.139 124.961C149.717 125.125 150.232 125.387 150.685 125.746C151.146 126.105 151.537 126.574 151.857 127.152C152.185 127.723 152.435 128.414 152.607 129.227C152.779 130.031 152.865 130.969 152.865 132.039ZM150.041 135.227V131.617C150.041 130.938 150.002 130.34 149.924 129.824C149.846 129.301 149.728 128.859 149.572 128.5C149.424 128.133 149.236 127.836 149.01 127.609C148.783 127.375 148.525 127.207 148.236 127.105C147.947 126.996 147.623 126.941 147.264 126.941C146.826 126.941 146.435 127.027 146.092 127.199C145.748 127.363 145.459 127.629 145.225 127.996C144.99 128.363 144.81 128.848 144.685 129.449C144.568 130.043 144.51 130.766 144.51 131.617V135.227C144.51 135.914 144.549 136.52 144.627 137.043C144.705 137.566 144.822 138.016 144.978 138.391C145.135 138.758 145.322 139.062 145.541 139.305C145.767 139.539 146.025 139.711 146.314 139.82C146.611 139.93 146.935 139.984 147.287 139.984C147.732 139.984 148.127 139.898 148.471 139.727C148.814 139.555 149.103 139.281 149.338 138.906C149.572 138.523 149.748 138.027 149.865 137.418C149.982 136.809 150.041 136.078 150.041 135.227ZM168.654 139.375V124H171.49V142H168.924L168.654 139.375ZM160.404 135.801V135.555C160.404 134.594 160.517 133.719 160.744 132.93C160.97 132.133 161.299 131.449 161.728 130.879C162.158 130.301 162.681 129.859 163.299 129.555C163.916 129.242 164.611 129.086 165.385 129.086C166.15 129.086 166.822 129.234 167.4 129.531C167.978 129.828 168.47 130.254 168.877 130.809C169.283 131.355 169.607 132.012 169.849 132.777C170.092 133.535 170.263 134.379 170.365 135.309V136.094C170.263 137 170.092 137.828 169.849 138.578C169.607 139.328 169.283 139.977 168.877 140.523C168.47 141.07 167.974 141.492 167.388 141.789C166.81 142.086 166.135 142.234 165.361 142.234C164.595 142.234 163.904 142.074 163.287 141.754C162.678 141.434 162.158 140.984 161.728 140.406C161.299 139.828 160.97 139.148 160.744 138.367C160.517 137.578 160.404 136.723 160.404 135.801ZM163.228 135.555V135.801C163.228 136.379 163.279 136.918 163.381 137.418C163.49 137.918 163.658 138.359 163.885 138.742C164.111 139.117 164.404 139.414 164.763 139.633C165.131 139.844 165.568 139.949 166.076 139.949C166.717 139.949 167.244 139.809 167.658 139.527C168.072 139.246 168.396 138.867 168.631 138.391C168.873 137.906 169.037 137.367 169.123 136.773V134.652C169.076 134.191 168.978 133.762 168.83 133.363C168.689 132.965 168.498 132.617 168.256 132.32C168.013 132.016 167.713 131.781 167.353 131.617C167.002 131.445 166.584 131.359 166.099 131.359C165.584 131.359 165.146 131.469 164.787 131.688C164.428 131.906 164.131 132.207 163.896 132.59C163.67 132.973 163.502 133.418 163.392 133.926C163.283 134.434 163.228 134.977 163.228 135.555ZM180.703 134.289H176.355L176.332 132.145H180.129C180.769 132.145 181.312 132.051 181.757 131.863C182.211 131.668 182.554 131.391 182.789 131.031C183.023 130.664 183.14 130.223 183.14 129.707C183.14 129.137 183.031 128.672 182.812 128.312C182.593 127.953 182.257 127.691 181.804 127.527C181.359 127.363 180.789 127.281 180.093 127.281H177.246V142H174.304V124.938H180.093C181.031 124.938 181.867 125.027 182.601 125.207C183.343 125.387 183.972 125.668 184.488 126.051C185.011 126.426 185.406 126.902 185.672 127.48C185.945 128.059 186.082 128.746 186.082 129.543C186.082 130.246 185.914 130.891 185.578 131.477C185.242 132.055 184.746 132.527 184.09 132.895C183.433 133.262 182.617 133.48 181.64 133.551L180.703 134.289ZM180.574 142H175.429L176.754 139.668H180.574C181.238 139.668 181.793 139.559 182.238 139.34C182.683 139.113 183.015 138.805 183.234 138.414C183.461 138.016 183.574 137.551 183.574 137.02C183.574 136.465 183.476 135.984 183.281 135.578C183.086 135.164 182.777 134.848 182.355 134.629C181.933 134.402 181.382 134.289 180.703 134.289H177.398L177.422 132.145H181.722L182.39 132.953C183.328 132.984 184.097 133.191 184.699 133.574C185.308 133.957 185.761 134.453 186.058 135.062C186.355 135.672 186.504 136.328 186.504 137.031C186.504 138.117 186.265 139.027 185.789 139.762C185.32 140.496 184.644 141.055 183.761 141.438C182.879 141.812 181.816 142 180.574 142Z" fill="#81C430"/>
</svg>
