<svg width="200" height="160" fill="none" xmlns="http://www.w3.org/2000/svg"><path d="m126.042 35.6668-22.917-13.25c-1.917-1.125-4.3333-1.125-6.25 0l-22.9167 13.25c-1.9166 1.125-3.125 3.1667-3.125 5.4167v26.4583c0 2.25 1.2084 4.2917 3.125 5.4167l22.9167 13.25c1.9167 1.125 4.333 1.125 6.25 0l22.917-13.25c1.916-1.125 3.125-3.1667 3.125-5.4167V41.0835c0-2.25-1.209-4.2917-3.125-5.4167ZM79.1667 66.3335v-19.25l16.6666 9.6667v19.2083l-16.6666-9.625ZM100 49.5418l-16.6667-9.6666L100 30.2502l16.667 9.625L100 49.5418Zm4.167 26.4167V56.7502l16.666-9.6667v19.25l-16.666 9.625Zm-25.0003-63.625H64.5833c-3.4583 0-6.25 2.7917-6.25 6.25v14.5833h8.3334v-12.5h12.5v-8.3333Zm41.6663 0h14.584c3.458 0 6.25 2.7917 6.25 6.25v14.5833h-8.334v-12.5h-12.5v-8.3333ZM79.1667 95.6668H64.5833c-3.4583 0-6.25-2.7916-6.25-6.25V74.8335h8.3334v12.5h12.5v8.3333Zm41.6663 0h14.584c3.458 0 6.25-2.7916 6.25-6.25V74.8335h-8.334v12.5h-12.5v8.3333Z" fill="#00695C" fill-opacity=".5"/><path d="M62.5828 121.625h4.0235c.8645 0 1.6015.13 2.2109.391.6094.26 1.0755.645 1.3984 1.156.3282.505.4922 1.13.4922 1.875 0 .568-.1042 1.068-.3125 1.5-.2083.432-.5026.797-.8828 1.094-.3802.291-.8333.518-1.3594.679l-.5937.289h-3.6172l-.0156-1.554h2.7109c.4688 0 .8594-.084 1.1719-.25.3125-.167.5469-.394.7031-.68.1615-.292.2422-.62.2422-.984 0-.396-.0781-.74-.2344-1.032-.151-.297-.3854-.523-.7031-.679-.3177-.162-.7214-.242-1.2109-.242h-2.0625V133h-1.961v-11.375ZM69.075 133l-2.6719-5.109 2.0547-.008 2.711 5.015V133H69.075Zm7.325.156c-.625 0-1.1901-.101-1.6953-.304-.5-.209-.9271-.498-1.2813-.868-.3489-.369-.6171-.804-.8046-1.304s-.2813-1.039-.2813-1.618v-.312c0-.661.0964-1.26.2891-1.797.1927-.536.4609-.995.8047-1.375.3437-.385.75-.68 1.2187-.883.4688-.203.9766-.304 1.5234-.304.6042 0 1.1329.101 1.586.304.4531.203.8281.49 1.125.86.3021.364.526.799.6719 1.304.151.506.2265 1.063.2265 1.672v.805h-6.5312v-1.352h4.6718v-.148c-.0104-.339-.0781-.656-.2031-.953-.1198-.297-.3047-.537-.5547-.719-.25-.182-.5833-.273-1-.273-.3125 0-.5911.067-.8359.203-.2396.13-.4401.32-.6016.57-.1614.25-.2864.552-.375.906-.0833.349-.125.742-.125 1.18v.312c0 .37.0495.714.1485 1.032.1041.312.2552.586.4531.82.1979.234.4375.419.7187.555.2813.13.6016.195.961.195.4531 0 .8567-.091 1.2109-.273.3542-.183.6615-.44.9219-.774l.9922.961c-.1823.266-.4193.521-.711.766-.2916.239-.6484.435-1.0703.586-.4166.151-.901.226-1.4531.226Zm9.7937-2.445c0-.188-.0468-.357-.1406-.508-.0937-.156-.2734-.297-.539-.422-.2605-.125-.6459-.239-1.1563-.343-.4479-.099-.8594-.217-1.2344-.352-.3698-.141-.6875-.31-.9531-.508-.2656-.198-.4713-.432-.6172-.703-.1458-.271-.2187-.583-.2187-.937 0-.344.0755-.67.2265-.977.1511-.307.3672-.578.6485-.813.2812-.234.6224-.419 1.0234-.554.4063-.136.8594-.203 1.3594-.203.7083 0 1.3151.119 1.8203.359.5104.234.901.555 1.1719.961.2708.401.4062.854.4062 1.359h-1.8828c0-.224-.0573-.432-.1719-.625-.1093-.198-.276-.356-.5-.476-.2239-.125-.5052-.188-.8437-.188-.3229 0-.5912.052-.8047.157-.2083.098-.3646.229-.4688.39-.0989.162-.1484.339-.1484.531 0 .141.0261.269.0781.383.0573.11.1511.211.2813.305.1302.088.3073.172.5312.25.2292.078.5157.154.8594.226.6458.136 1.2005.31 1.6641.524.4687.208.8281.479 1.0781.812.25.329.375.745.375 1.25 0 .375-.0807.719-.2422 1.032-.1562.307-.3854.575-.6875.804-.3021.224-.6641.399-1.0859.524-.4167.125-.8854.187-1.4063.187-.7656 0-1.414-.135-1.9453-.406-.5312-.276-.9349-.628-1.2109-1.055-.2709-.432-.4063-.88-.4063-1.343h1.8203c.0209.349.1172.627.2891.836.1771.203.3958.351.6562.445.2657.088.5391.133.8204.133.3385 0 .6224-.045.8515-.133.2292-.094.4037-.219.5235-.375.1198-.162.1796-.344.1796-.547Zm3.3329-1.844v-.179c0-.61.0885-1.175.2656-1.696.1771-.526.4323-.982.7656-1.367.3386-.391.75-.693 1.2344-.906.4896-.219 1.0417-.328 1.6562-.328.6198 0 1.1719.109 1.6563.328.4896.213.9036.515 1.2422.906.3385.385.5963.841.7734 1.367.1771.521.2656 1.086.2656 1.696v.179c0 .61-.0885 1.175-.2656 1.695-.1771.521-.4349.977-.7734 1.368-.3386.385-.75.687-1.2344.906-.4844.213-1.0339.32-1.6484.32-.6198 0-1.1745-.107-1.6641-.32-.4844-.219-.8958-.521-1.2344-.906-.3385-.391-.5963-.847-.7734-1.368-.1771-.52-.2656-1.085-.2656-1.695Zm1.8828-.179v.179c0 .38.039.74.1172 1.078.0781.339.2005.636.3672.891.1666.255.3802.456.6406.602.2604.145.5703.218.9297.218.3489 0 .651-.073.9062-.218.2604-.146.474-.347.6406-.602.1667-.255.2891-.552.3672-.891.0834-.338.125-.698.125-1.078v-.179c0-.376-.0416-.73-.125-1.063-.0781-.339-.2031-.638-.375-.898-.1666-.261-.3802-.464-.6406-.61-.2552-.151-.5599-.226-.9141-.226-.3541 0-.6614.075-.9218.226-.2552.146-.4662.349-.6328.61-.1667.26-.2891.559-.3672.898-.0782.333-.1172.687-.1172 1.063Zm12.8406 2.32v-6.461h1.891V133h-1.782l-.109-1.992Zm.266-1.758.632-.016c0 .568-.062 1.092-.187 1.571-.125.474-.318.888-.578 1.242-.261.349-.594.622-1 .82-.406.193-.893.289-1.461.289-.412 0-.789-.06-1.133-.179-.344-.12-.641-.305-.8906-.555-.2448-.25-.4349-.576-.5703-.977-.1354-.401-.2031-.88-.2031-1.437v-5.461h1.883v5.476c0 .308.036.566.109.774.073.203.172.367.297.492s.271.214.438.266c.166.052.343.078.531.078.536 0 .958-.104 1.265-.313.313-.213.534-.5.664-.859.136-.359.204-.763.204-1.211Zm5.645-3.094V133h-1.883v-8.453h1.797l.086 1.609Zm2.586-1.664-.016 1.75c-.114-.021-.239-.036-.375-.047-.13-.01-.26-.015-.39-.015-.323 0-.607.047-.852.14-.245.089-.45.219-.617.391-.162.167-.287.37-.375.609-.089.24-.141.508-.156.805l-.43.031c0-.531.052-1.023.156-1.476.104-.453.261-.852.469-1.196.213-.343.479-.612.797-.804.323-.193.695-.289 1.117-.289.115 0 .237.01.367.031.136.021.237.044.305.07Zm4.676 7.164c.308 0 .584-.06.829-.179.25-.125.45-.297.601-.516.156-.219.242-.471.258-.758h1.773c-.01.547-.171 1.044-.484 1.492-.312.448-.727.805-1.242 1.071-.516.26-1.086.39-1.711.39-.646 0-1.208-.109-1.688-.328-.479-.224-.877-.531-1.195-.922-.318-.39-.557-.841-.719-1.351-.156-.511-.234-1.058-.234-1.641v-.273c0-.584.078-1.131.234-1.641.162-.516.401-.969.719-1.359.318-.391.716-.696 1.195-.914.48-.224 1.039-.336 1.68-.336.677 0 1.271.135 1.781.406.511.265.912.638 1.203 1.117.297.474.451 1.026.461 1.656h-1.773c-.016-.312-.094-.593-.234-.843-.136-.256-.329-.459-.579-.61-.244-.151-.539-.226-.882-.226-.381 0-.696.078-.946.234-.25.151-.445.359-.586.625-.14.26-.242.555-.304.883-.058.323-.086.659-.086 1.008v.273c0 .349.028.688.086 1.016.057.328.156.622.297.882.145.256.343.461.593.618.25.151.568.226.953.226Zm8.833 1.5c-.625 0-1.19-.101-1.695-.304-.5-.209-.927-.498-1.281-.868-.349-.369-.617-.804-.805-1.304-.187-.5-.281-1.039-.281-1.618v-.312c0-.661.096-1.26.289-1.797.193-.536.461-.995.805-1.375.343-.385.75-.68 1.218-.883.469-.203.977-.304 1.524-.304.604 0 1.133.101 1.586.304.453.203.828.49 1.125.86.302.364.526.799.672 1.304.151.506.226 1.063.226 1.672v.805h-6.531v-1.352h4.672v-.148c-.011-.339-.078-.656-.203-.953-.12-.297-.305-.537-.555-.719-.25-.182-.583-.273-1-.273-.313 0-.591.067-.836.203-.24.13-.44.32-.602.57-.161.25-.286.552-.375.906-.083.349-.125.742-.125 1.18v.312c0 .37.05.714.149 1.032.104.312.255.586.453.82.198.234.437.419.719.555.281.13.601.195.961.195.453 0 .856-.091 1.211-.273.354-.183.661-.44.921-.774l.993.961c-.183.266-.42.521-.711.766-.292.239-.649.435-1.071.586-.416.151-.901.226-1.453.226Zm9.794-2.445c0-.188-.047-.357-.141-.508-.093-.156-.273-.297-.539-.422-.26-.125-.646-.239-1.156-.343-.448-.099-.859-.217-1.234-.352-.37-.141-.688-.31-.953-.508-.266-.198-.472-.432-.618-.703-.145-.271-.218-.583-.218-.937 0-.344.075-.67.226-.977.151-.307.367-.578.649-.813.281-.234.622-.419 1.023-.554.406-.136.859-.203 1.359-.203.709 0 1.316.119 1.821.359.51.234.901.555 1.172.961.27.401.406.854.406 1.359h-1.883c0-.224-.057-.432-.172-.625-.109-.198-.276-.356-.5-.476-.224-.125-.505-.188-.844-.188-.322 0-.591.052-.804.157-.209.098-.365.229-.469.39-.099.162-.148.339-.148.531 0 .141.026.269.078.383.057.11.151.211.281.305.13.088.307.172.531.25.229.078.516.154.86.226.645.136 1.2.31 1.664.524.468.208.828.479 1.078.812.25.329.375.745.375 1.25 0 .375-.081.719-.242 1.032-.157.307-.386.575-.688.804-.302.224-.664.399-1.086.524-.417.125-.885.187-1.406.187-.766 0-1.414-.135-1.945-.406-.532-.276-.935-.628-1.211-1.055-.271-.432-.407-.88-.407-1.343h1.821c.021.349.117.627.289.836.177.203.396.351.656.445.266.088.539.133.82.133.339 0 .623-.045.852-.133.229-.094.404-.219.523-.375.12-.162.18-.344.18-.547ZM61.1242 149.844c0-.199-.0312-.375-.0937-.528-.0586-.156-.1641-.296-.3164-.421-.1485-.125-.3555-.245-.6211-.358-.2618-.113-.5938-.228-.9961-.346-.4219-.125-.8028-.263-1.1426-.416-.3398-.156-.6309-.334-.8731-.533-.2421-.199-.4277-.428-.5566-.685-.1289-.258-.1934-.553-.1934-.885 0-.332.0684-.639.2051-.92s.3321-.525.586-.732c.2578-.211.5644-.375.9199-.493.3555-.117.7519-.175 1.1894-.175.6407 0 1.1836.123 1.6289.369.4493.242.7911.56 1.0254.955.2344.39.3516.808.3516 1.254h-1.125c0-.321-.0684-.604-.2051-.85-.1367-.25-.3437-.445-.6211-.586-.2773-.144-.6289-.217-1.0547-.217-.4023 0-.7343.061-.9961.182-.2617.121-.457.285-.5859.492-.125.207-.1875.444-.1875.709 0 .18.0371.344.1113.492.0782.145.1973.28.3575.405.164.125.3711.24.6211.345.2539.106.5566.207.9082.305.4843.137.9023.289 1.2539.457.3515.168.6406.357.8671.568.2305.207.4004.444.5098.709.1133.262.1699.559.1699.891 0 .348-.0703.662-.2109.943-.1406.282-.3418.522-.6035.721-.2617.199-.5762.354-.9434.463-.3633.105-.7695.158-1.2187.158-.3946 0-.7832-.055-1.166-.164-.3789-.109-.7247-.273-1.0372-.492-.3085-.219-.5566-.488-.7441-.809-.1836-.324-.2754-.699-.2754-1.125h1.125c0 .293.0567.545.1699.756.1133.207.2676.379.4629.516.1992.137.4239.238.6739.305.2539.062.5175.093.791.093.3945 0 .7285-.054 1.0019-.164.2735-.109.4805-.265.6211-.469.1446-.203.2168-.443.2168-.72Zm7.9285-.557h1.125c-.0586.539-.2129 1.022-.4629 1.447-.25.426-.6035.764-1.0605 1.014-.457.246-1.0273.369-1.7109.369-.5 0-.9551-.094-1.3653-.281-.4062-.188-.7558-.453-1.0488-.797-.293-.348-.5195-.764-.6797-1.248-.1562-.488-.2344-1.031-.2344-1.629v-.85c0-.597.0782-1.138.2344-1.623.1602-.488.3887-.906.6856-1.253.3007-.348.6621-.616 1.0839-.803.4219-.188.8965-.281 1.4239-.281.6445 0 1.1894.121 1.6347.363.4453.242.7911.578 1.0371 1.008.25.425.4043.92.4629 1.482h-1.125c-.0547-.398-.1562-.74-.3047-1.025-.1484-.289-.3593-.512-.6328-.668-.2734-.157-.6308-.235-1.0722-.235-.3789 0-.7129.073-1.002.217-.2851.145-.5254.35-.7207.615-.1914.266-.3359.584-.4336.955-.0976.372-.1465.784-.1465 1.237v.861c0 .418.043.811.1289 1.178.0899.367.2247.689.4043.967.1797.277.4082.496.6856.656.2773.156.6055.234.9844.234.4804 0 .8632-.076 1.1484-.228.2852-.153.5-.371.6445-.657.1485-.285.2539-.626.3164-1.025Zm6.0243-5.062L72.2527 152h-1.1543l3.252-8.531h.7441l-.0175.756ZM77.4441 152l-2.83-7.775-.0176-.756h.7441L78.6043 152h-1.1602Zm-.1464-3.158v.926h-4.793v-.926h4.793ZM82.2555 152h-1.7813l.0117-.92h1.7696c.6093 0 1.1172-.127 1.5234-.381.4063-.258.7109-.617.9141-1.078.207-.465.3105-1.008.3105-1.629v-.521c0-.489-.0586-.922-.1758-1.301-.1172-.383-.289-.705-.5156-.967-.2266-.265-.5039-.467-.832-.603-.3242-.137-.6973-.205-1.1192-.205h-1.9218v-.926h1.9218c.5586 0 1.0684.093 1.5293.281.461.184.8575.451 1.1895.803.3359.347.5937.769.7734 1.265.1797.493.2696 1.047.2696 1.664v.51c0 .617-.0899 1.174-.2696 1.67-.1797.492-.4394.912-.7793 1.26-.3359.348-.7422.615-1.2187.803-.4727.183-1.0059.275-1.5996.275Zm-1.1778-8.531V152h-1.1308v-8.531h1.1308Zm9.9735.756L88.227 152h-1.1543l3.2519-8.531h.7441l-.0175.756ZM93.4184 152l-2.8301-7.775-.0176-.756h.7441L94.5785 152h-1.1601Zm-.1465-3.158v.926h-4.793v-.926h4.793Zm9.3531 1.476c0-.156-.035-.3-.105-.433-.067-.137-.206-.26-.416-.369-.208-.114-.52-.211-.938-.293-.352-.075-.67-.162-.955-.264-.2813-.102-.5215-.225-.7208-.369-.1953-.145-.3457-.315-.4511-.51-.1055-.195-.1582-.424-.1582-.685 0-.25.0546-.487.164-.709.1133-.223.2715-.42.4746-.592.2071-.172.4551-.307.7445-.405.289-.097.611-.146.966-.146.508 0 .942.09 1.301.269.36.18.635.42.826.721.192.297.288.627.288.99h-1.084c0-.175-.053-.345-.159-.509-.101-.168-.252-.307-.451-.416-.195-.11-.435-.164-.721-.164-.3 0-.544.046-.732.14-.184.09-.318.205-.404.346-.082.141-.1233.289-.1233.445 0 .117.0195.223.0583.317.043.089.117.173.223.252.105.074.254.144.445.211.192.066.436.132.733.199.519.117.947.258 1.283.422.336.164.586.365.75.603.164.238.246.527.246.867 0 .278-.059.532-.176.762-.113.231-.279.43-.498.598-.215.164-.473.293-.773.386-.297.09-.631.135-1.002.135-.559 0-1.031-.099-1.4182-.299-.3867-.199-.6797-.457-.8789-.773-.1992-.316-.2988-.65-.2988-1.002h1.0898c.0156.297.1016.533.2581.709.156.172.347.295.574.369.226.07.451.106.674.106.297 0 .545-.039.744-.118.203-.078.357-.185.463-.322.105-.137.158-.293.158-.469Zm4.489 1.026 1.764-5.684h1.16l-2.543 7.319c-.059.156-.137.324-.234.503-.094.184-.215.358-.364.522-.148.164-.328.297-.539.398-.207.106-.455.159-.744.159-.086 0-.195-.012-.328-.036-.133-.023-.227-.043-.281-.058l-.006-.879c.031.004.08.008.146.012.071.007.119.011.147.011.246 0 .455-.033.627-.099.172-.063.316-.17.433-.323.121-.148.225-.353.311-.615l.451-1.23Zm-1.295-5.684 1.647 4.922.281 1.143-.779.398-2.332-6.463h1.183Zm6.476 1.26V152h-1.09v-6.34h1.031l.059 1.26Zm-.223 1.67-.504-.018c.004-.433.061-.834.17-1.201.109-.371.271-.693.486-.967.215-.273.483-.484.803-.633.32-.152.691-.228 1.113-.228.297 0 .571.043.821.129.25.082.466.213.65.392.184.18.326.411.428.692.101.281.152.621.152 1.019V152h-1.084v-4.172c0-.332-.057-.598-.17-.797-.109-.199-.266-.343-.469-.433-.203-.094-.441-.141-.714-.141-.321 0-.588.057-.803.17-.215.113-.387.269-.516.469-.129.199-.223.427-.281.685-.055.254-.082.524-.082.809Zm4.107-.598-.726.223c.004-.348.06-.682.17-1.002.113-.32.275-.606.486-.856.215-.25.478-.447.791-.591.312-.149.67-.223 1.072-.223.34 0 .641.045.903.135.265.09.488.228.668.416.183.183.322.42.416.709.093.289.14.633.14 1.031V152h-1.09v-4.178c0-.355-.056-.631-.17-.826-.109-.199-.265-.338-.468-.416-.2-.082-.438-.123-.715-.123-.238 0-.449.041-.633.123-.184.082-.338.195-.463.34-.125.141-.221.303-.287.486-.062.184-.094.379-.094.586Zm5.755-4.992h1.09v7.77l-.094 1.23h-.996v-9Zm5.373 5.777v.123c0 .461-.055.889-.164 1.284-.109.39-.27.73-.48 1.019-.211.289-.469.514-.774.674-.305.16-.654.24-1.049.24-.402 0-.756-.068-1.06-.205-.301-.141-.555-.342-.762-.603-.207-.262-.373-.579-.498-.95-.121-.371-.205-.789-.252-1.254v-.539c.047-.468.131-.888.252-1.259.125-.371.291-.688.498-.95.207-.265.461-.466.762-.603.3-.141.65-.211 1.049-.211.398 0 .751.078 1.06.234.309.153.566.371.774.657.21.285.371.627.48 1.025.109.395.164.834.164 1.318Zm-1.09.123v-.123c0-.316-.029-.613-.088-.89-.058-.282-.152-.528-.281-.739-.129-.214-.299-.382-.51-.503-.211-.125-.47-.188-.779-.188-.273 0-.512.047-.715.141-.199.093-.369.22-.51.381-.14.156-.255.335-.345.539-.086.199-.151.406-.194.621v1.412c.063.273.164.537.305.791.145.25.336.455.574.615.242.16.541.24.897.24.293 0 .543-.058.75-.176.211-.121.381-.287.509-.498.133-.211.231-.455.293-.732.063-.277.094-.574.094-.891Zm2.374 0v-.134c0-.457.066-.881.199-1.272.133-.394.324-.736.574-1.025.25-.293.553-.52.909-.68.355-.164.754-.246 1.195-.246.445 0 .846.082 1.201.246.36.16.664.387.914.68.254.289.447.631.58 1.025.133.391.2.815.2 1.272v.134c0 .457-.067.881-.2 1.272-.133.39-.326.732-.58 1.025-.25.289-.553.516-.908.68-.352.16-.75.24-1.195.24-.446 0-.846-.08-1.201-.24-.356-.164-.661-.391-.915-.68-.25-.293-.441-.635-.574-1.025-.133-.391-.199-.815-.199-1.272Zm1.084-.134v.134c0 .317.037.616.111.897.075.277.186.523.334.738.153.215.342.385.569.51.226.121.49.182.791.182.297 0 .556-.061.779-.182.227-.125.414-.295.562-.51.149-.215.26-.461.334-.738.079-.281.118-.58.118-.897v-.134c0-.313-.039-.608-.118-.885-.074-.281-.187-.529-.339-.744-.149-.219-.336-.391-.563-.516-.223-.125-.484-.187-.785-.187-.297 0-.559.062-.785.187-.223.125-.41.297-.563.516-.148.215-.259.463-.334.744-.074.277-.111.572-.111.885ZM137.1 143v9h-1.09v-9h1.09Zm5.631 7.318c0-.156-.035-.3-.105-.433-.067-.137-.205-.26-.416-.369-.207-.114-.52-.211-.938-.293-.351-.075-.67-.162-.955-.264-.281-.102-.521-.225-.721-.369-.195-.145-.345-.315-.451-.51-.105-.195-.158-.424-.158-.685 0-.25.055-.487.164-.709.113-.223.272-.42.475-.592.207-.172.455-.307.744-.405.289-.097.611-.146.967-.146.508 0 .941.09 1.3.269.36.18.635.42.827.721.191.297.287.627.287.99h-1.084c0-.175-.053-.345-.158-.509-.102-.168-.252-.307-.452-.416-.195-.11-.435-.164-.72-.164-.301 0-.545.046-.733.14-.183.09-.318.205-.404.346-.082.141-.123.289-.123.445 0 .117.019.223.059.317.043.089.117.173.222.252.106.074.254.144.446.211.191.066.435.132.732.199.519.117.947.258 1.283.422.336.164.586.365.75.603.164.238.246.527.246.867 0 .278-.058.532-.176.762-.113.231-.279.43-.498.598-.214.164-.472.293-.773.386-.297.09-.631.135-1.002.135-.559 0-1.031-.099-1.418-.299-.387-.199-.68-.457-.879-.773-.199-.316-.299-.65-.299-1.002h1.09c.016.297.102.533.258.709.156.172.348.295.574.369.227.07.451.106.674.106.297 0 .545-.039.744-.118.203-.078.358-.185.463-.322.106-.137.158-.293.158-.469Z" fill="#00695C" fill-opacity=".8"/></svg>