<svg width="22" height="19" viewBox="0 0 22 19" fill="none" xmlns="http://www.w3.org/2000/svg">
<path d="M21.201 15.6335L13.0026 1.39569C12.7977 1.04687 12.5052 0.757642 12.1541 0.556681C11.803 0.35572 11.4055 0.25 11.001 0.25C10.5965 0.25 10.199 0.35572 9.84787 0.556681C9.49679 0.757642 9.20431 1.04687 8.99944 1.39569L0.801006 15.6335C0.603883 15.9709 0.5 16.3546 0.5 16.7454C0.5 17.1361 0.603883 17.5199 0.801006 17.8572C1.00325 18.2082 1.29523 18.499 1.64697 18.6998C1.99871 18.9006 2.39755 19.0043 2.80257 19.0001H19.1994C19.6041 19.0039 20.0026 18.9001 20.354 18.6993C20.7054 18.4985 20.997 18.2079 21.1991 17.8572C21.3965 17.52 21.5007 17.1364 21.5011 16.7456C21.5014 16.3549 21.3978 15.9711 21.201 15.6335ZM19.9007 17.1063C19.8292 17.2282 19.7266 17.3289 19.6034 17.3981C19.4802 17.4673 19.3407 17.5025 19.1994 17.5001H2.80257C2.66127 17.5025 2.52185 17.4673 2.39863 17.3981C2.2754 17.3289 2.17279 17.2282 2.10132 17.1063C2.03658 16.9967 2.00243 16.8717 2.00243 16.7444C2.00243 16.6171 2.03658 16.4922 2.10132 16.3826L10.2998 2.14475C10.3727 2.02341 10.4757 1.92301 10.599 1.8533C10.7222 1.7836 10.8613 1.74696 11.0029 1.74696C11.1444 1.74696 11.2836 1.7836 11.4068 1.8533C11.53 1.92301 11.6331 2.02341 11.706 2.14475L19.9044 16.3826C19.9686 16.4925 20.0021 16.6176 20.0015 16.7449C20.0008 16.8722 19.966 16.997 19.9007 17.1063ZM10.251 11.5001V7.75006C10.251 7.55115 10.33 7.36038 10.4707 7.21973C10.6113 7.07908 10.8021 7.00006 11.001 7.00006C11.1999 7.00006 11.3907 7.07908 11.5313 7.21973C11.672 7.36038 11.751 7.55115 11.751 7.75006V11.5001C11.751 11.699 11.672 11.8897 11.5313 12.0304C11.3907 12.171 11.1999 12.2501 11.001 12.2501C10.8021 12.2501 10.6113 12.171 10.4707 12.0304C10.33 11.8897 10.251 11.699 10.251 11.5001ZM12.126 14.8751C12.126 15.0976 12.06 15.3151 11.9364 15.5001C11.8128 15.6851 11.6371 15.8293 11.4315 15.9144C11.226 15.9996 10.9998 16.0219 10.7815 15.9784C10.5633 15.935 10.3628 15.8279 10.2055 15.6706C10.0482 15.5132 9.94103 15.3128 9.89762 15.0945C9.85421 14.8763 9.87649 14.6501 9.96164 14.4445C10.0468 14.239 10.191 14.0633 10.376 13.9397C10.561 13.816 10.7785 13.7501 11.001 13.7501C11.2994 13.7501 11.5855 13.8686 11.7965 14.0796C12.0075 14.2905 12.126 14.5767 12.126 14.8751Z" fill="#2A7DEC"/>
</svg>
