<svg width="18" height="16" viewBox="0 0 18 16" fill="none" xmlns="http://www.w3.org/2000/svg">
<path d="M1.12722 15.5001C0.971224 15.5001 0.833224 15.4631 0.713225 15.3891C0.593224 15.3151 0.499891 15.2174 0.433225 15.0961C0.361225 14.9768 0.321225 14.8478 0.313225 14.7091C0.306558 14.5698 0.345891 14.4294 0.431225 14.2881L8.30122 0.712105C8.38656 0.570772 8.48922 0.468105 8.60922 0.404105C8.72922 0.340105 8.85989 0.308105 9.00122 0.308105C9.14256 0.308105 9.27289 0.340105 9.39222 0.404105C9.51222 0.468105 9.61489 0.570772 9.70022 0.712105L17.5712 14.2881C17.6566 14.4294 17.6956 14.5694 17.6882 14.7081C17.6816 14.8481 17.6416 14.9774 17.5682 15.0961C17.5016 15.2174 17.4082 15.3151 17.2882 15.3891C17.1682 15.4631 17.0306 15.5001 16.8752 15.5001H1.12722ZM1.45122 14.5001H16.5512L9.00122 1.50011L1.45122 14.5001ZM9.00122 13.1151C9.17589 13.1151 9.32189 13.0561 9.43922 12.9381C9.55722 12.8208 9.61622 12.6748 9.61622 12.5001C9.61622 12.3254 9.55722 12.1794 9.43922 12.0621C9.32189 11.9441 9.17589 11.8851 9.00122 11.8851C8.82656 11.8851 8.68056 11.9441 8.56322 12.0621C8.44522 12.1794 8.38622 12.3254 8.38622 12.5001C8.38622 12.6748 8.44522 12.8208 8.56322 12.9381C8.68056 13.0561 8.82656 13.1151 9.00122 13.1151ZM9.00122 10.8851C9.14322 10.8851 9.26223 10.8371 9.35822 10.7411C9.45356 10.6451 9.50122 10.5264 9.50122 10.3851V6.38511C9.50122 6.24311 9.45322 6.12411 9.35722 6.02811C9.26122 5.93277 9.14222 5.88511 9.00022 5.88511C8.85822 5.88511 8.73956 5.93277 8.64422 6.02811C8.54889 6.12411 8.50122 6.24311 8.50122 6.38511V10.3851C8.50122 10.5264 8.54922 10.6451 8.64522 10.7411C8.74122 10.8371 8.86022 10.8851 9.00222 10.8851" fill="white"/>
</svg>
