<svg width="20" height="20" viewBox="0 0 20 20" fill="none" xmlns="http://www.w3.org/2000/svg">
<path d="M19.26 4.46886C19.2145 4.35642 19.1424 4.25669 19.0499 4.17822C18.9574 4.09975 18.8473 4.04489 18.7289 4.01834C18.6106 3.99179 18.4875 3.99435 18.3704 4.02579C18.2532 4.05723 18.1454 4.11662 18.0563 4.19886L14.2782 7.68543L12.6628 7.33855L12.316 5.72324L15.8025 1.94511C15.8848 1.85595 15.9442 1.74817 15.9756 1.63101C16.007 1.51386 16.0096 1.39083 15.9831 1.27247C15.9565 1.15411 15.9016 1.04395 15.8232 0.951451C15.7447 0.858949 15.645 0.786859 15.5325 0.741364C14.5078 0.326833 13.3969 0.170317 12.2975 0.285569C11.1981 0.40082 10.1439 0.784312 9.22736 1.40235C8.31086 2.02039 7.56017 2.85405 7.04125 3.8301C6.52233 4.80614 6.25106 5.8947 6.25128 7.00011C6.25007 7.93356 6.44156 8.85721 6.81378 9.71324L1.16909 14.5939C1.15503 14.6051 1.14191 14.6182 1.12878 14.6304C0.566107 15.1931 0.25 15.9562 0.25 16.752C0.25 17.146 0.327606 17.5362 0.478387 17.9002C0.629169 18.2642 0.850172 18.5949 1.12878 18.8736C1.40739 19.1522 1.73814 19.3732 2.10216 19.5239C2.46618 19.6747 2.85633 19.7523 3.25034 19.7523C4.04608 19.7523 4.80923 19.4362 5.37191 18.8736C5.38409 18.8614 5.39722 18.8473 5.40847 18.8342L10.2882 13.1876C11.3161 13.6388 12.4403 13.8266 13.559 13.7338C14.6777 13.641 15.7557 13.2707 16.6952 12.6564C17.6348 12.0421 18.4063 11.2031 18.9399 10.2155C19.4735 9.22782 19.7524 8.12269 19.7513 7.00011C19.7527 6.13254 19.5859 5.27291 19.26 4.46886ZM13.0013 12.2501C12.1135 12.2489 11.2405 12.0231 10.4635 11.5939C10.3129 11.5107 10.1384 11.4818 9.96906 11.512C9.79974 11.5422 9.64596 11.6297 9.53347 11.7598L4.29284 17.8292C4.00925 18.0986 3.63162 18.2466 3.24048 18.2416C2.84934 18.2366 2.47563 18.079 2.19903 17.8024C1.92242 17.5258 1.76482 17.1521 1.75981 16.7609C1.7548 16.3698 1.90279 15.9921 2.17222 15.7086L8.2369 10.4689C8.36723 10.3563 8.45485 10.2024 8.48507 10.0328C8.51529 9.86332 8.48625 9.68857 8.40284 9.53793C7.92475 8.67321 7.70038 7.69114 7.75553 6.7046C7.81068 5.71805 8.14312 4.7671 8.71461 3.96107C9.28612 3.15503 10.0735 2.52664 10.9862 2.14813C11.8989 1.76962 12.8999 1.65635 13.8741 1.82136L10.9491 4.99105C10.8677 5.07934 10.8087 5.18588 10.7771 5.30171C10.7454 5.41753 10.742 5.53927 10.7672 5.65668L11.2978 8.12511C11.3282 8.26629 11.3987 8.39571 11.5008 8.49782C11.6029 8.59993 11.7323 8.67039 11.8735 8.70074L14.3438 9.23136C14.4612 9.25655 14.5829 9.25317 14.6988 9.22152C14.8146 9.18987 14.9211 9.13087 15.0094 9.04949L18.1791 6.12449C18.3055 6.87731 18.2663 7.64862 18.0644 8.38478C17.8624 9.12094 17.5026 9.80427 17.0098 10.3873C16.517 10.9702 15.9032 11.4389 15.2109 11.7606C14.5187 12.0823 13.7646 12.2493 13.0013 12.2501Z" fill="#2A7DEC"/>
</svg>
