<svg width="12" height="22" viewBox="0 0 12 22" fill="none" xmlns="http://www.w3.org/2000/svg">
<path d="M0 14.6667H2.4C2.4 15.9867 4.044 17.1111 6 17.1111C7.956 17.1111 9.6 15.9867 9.6 14.6667C9.6 13.3222 8.352 12.8333 5.712 12.1856C3.168 11.5378 0 10.7311 0 7.33333C0 5.14556 1.764 3.28778 4.2 2.66444V0H7.8V2.66444C10.236 3.28778 12 5.14556 12 7.33333H9.6C9.6 6.01333 7.956 4.88889 6 4.88889C4.044 4.88889 2.4 6.01333 2.4 7.33333C2.4 8.67778 3.648 9.16667 6.288 9.81444C8.832 10.4622 12 11.2689 12 14.6667C12 16.8544 10.236 18.7122 7.8 19.3356V22H4.2V19.3356C1.764 18.7122 0 16.8544 0 14.6667Z" fill="#2A7DEC"/>
</svg>
