<svg width="50" height="50" viewBox="0 0 50 50" fill="none" xmlns="http://www.w3.org/2000/svg">
<rect x="0.5" y="0.5" width="49" height="49" rx="5.5" fill="#E5F0FF"/>
<rect x="0.5" y="0.5" width="49" height="49" rx="5.5" stroke="#2A7DEC"/>
<path d="M19 28.6667H21.4C21.4 29.9867 23.044 31.1111 25 31.1111C26.956 31.1111 28.6 29.9867 28.6 28.6667C28.6 27.3222 27.352 26.8333 24.712 26.1856C22.168 25.5378 19 24.7311 19 21.3333C19 19.1456 20.764 17.2878 23.2 16.6644V14H26.8V16.6644C29.236 17.2878 31 19.1456 31 21.3333H28.6C28.6 20.0133 26.956 18.8889 25 18.8889C23.044 18.8889 21.4 20.0133 21.4 21.3333C21.4 22.6778 22.648 23.1667 25.288 23.8144C27.832 24.4622 31 25.2689 31 28.6667C31 30.8544 29.236 32.7122 26.8 33.3356V36H23.2V33.3356C20.764 32.7122 19 30.8544 19 28.6667Z" fill="#2A7DEC"/>
</svg>