<svg width="22" height="20" viewBox="0 0 22 20" fill="none" xmlns="http://www.w3.org/2000/svg">
<path d="M11.0016 5.49998C10.1116 5.49998 9.2416 5.7639 8.50158 6.25837C7.76156 6.75284 7.18478 7.45564 6.84419 8.27791C6.50359 9.10017 6.41448 10.005 6.58811 10.8779C6.76174 11.7508 7.19033 12.5526 7.81966 13.182C8.449 13.8113 9.25082 14.2399 10.1237 14.4135C10.9967 14.5872 11.9015 14.498 12.7237 14.1574C13.546 13.8168 14.2488 13.2401 14.7433 12.5C15.2377 11.76 15.5016 10.89 15.5016 9.99998C15.5004 8.80689 15.0259 7.66302 14.1823 6.81937C13.3386 5.97573 12.1947 5.50122 11.0016 5.49998ZM11.0016 13C10.4083 13 9.82828 12.824 9.33493 12.4944C8.84159 12.1647 8.45707 11.6962 8.23 11.148C8.00294 10.5999 7.94353 9.99666 8.05929 9.41471C8.17504 8.83277 8.46076 8.29822 8.88032 7.87866C9.29988 7.45911 9.83443 7.17338 10.4164 7.05763C10.9983 6.94187 11.6015 7.00128 12.1497 7.22834C12.6979 7.45541 13.1664 7.83993 13.4961 8.33327C13.8257 8.82662 14.0016 9.40664 14.0016 9.99998C14.0016 10.7956 13.6856 11.5587 13.123 12.1213C12.5604 12.6839 11.7973 13 11.0016 13ZM21.3085 8.05092C21.2876 7.94531 21.2442 7.84543 21.1813 7.75807C21.1184 7.67072 21.0374 7.59793 20.9438 7.54467L18.1473 5.95092L18.136 2.79904C18.1357 2.6905 18.1118 2.58331 18.066 2.4849C18.0202 2.38649 17.9535 2.29919 17.8707 2.22904C16.8563 1.37095 15.6881 0.713357 14.4282 0.291232C14.329 0.257651 14.2238 0.245223 14.1195 0.25475C14.0152 0.264276 13.9141 0.295546 13.8226 0.346545L11.0016 1.92342L8.17789 0.343732C8.08635 0.292446 7.98506 0.260941 7.88058 0.251251C7.7761 0.241562 7.67074 0.253905 7.57133 0.287482C6.31241 0.712692 5.14554 1.37279 4.13258 2.23279C4.04986 2.30284 3.98331 2.38999 3.93751 2.48823C3.89171 2.58647 3.86774 2.69347 3.86727 2.80186L3.85321 5.95655L1.05664 7.5503C0.963082 7.60356 0.882085 7.67634 0.819157 7.7637C0.756229 7.85105 0.712846 7.95093 0.691956 8.05655C0.436015 9.34269 0.436015 10.6667 0.691956 11.9528C0.712846 12.0584 0.756229 12.1583 0.819157 12.2456C0.882085 12.333 0.963082 12.4058 1.05664 12.459L3.85321 14.0528L3.86446 17.2047C3.8648 17.3132 3.88869 17.4204 3.9345 17.5188C3.98031 17.6172 4.04693 17.7045 4.12977 17.7747C5.14421 18.6328 6.31241 19.2904 7.57227 19.7125C7.67148 19.7461 7.77663 19.7585 7.88094 19.749C7.98525 19.7394 8.0864 19.7082 8.17789 19.6572L11.0016 18.0765L13.8254 19.6562C13.9371 19.7185 14.0631 19.7508 14.191 19.75C14.2729 19.75 14.3543 19.7367 14.432 19.7106C15.6907 19.286 16.8576 18.6265 17.8707 17.7672C17.9534 17.6971 18.02 17.61 18.0658 17.5117C18.1116 17.4135 18.1355 17.3065 18.136 17.1981L18.1501 14.0434L20.9466 12.4497C21.0402 12.3964 21.1212 12.3236 21.1841 12.2363C21.2471 12.1489 21.2904 12.049 21.3113 11.9434C21.5658 10.6583 21.5649 9.33566 21.3085 8.05092ZM19.9023 11.3237L17.2238 12.8472C17.1065 12.9139 17.0093 13.0111 16.9426 13.1284C16.8882 13.2222 16.831 13.3215 16.7729 13.4153C16.6985 13.5335 16.6589 13.6703 16.6585 13.81L16.6445 16.8334C15.9245 17.3988 15.1225 17.8509 14.266 18.174L11.5641 16.6684C11.452 16.6064 11.3258 16.5741 11.1976 16.5747H11.1798C11.0663 16.5747 10.952 16.5747 10.8385 16.5747C10.7044 16.5713 10.5717 16.6037 10.4541 16.6684L7.75039 18.1778C6.89212 17.8571 6.08785 17.4072 5.36539 16.8437L5.35508 13.825C5.35462 13.685 5.315 13.548 5.24071 13.4294C5.18258 13.3356 5.12539 13.2419 5.07196 13.1425C5.0057 13.0233 4.90854 12.9242 4.79071 12.8556L2.10946 11.3284C1.97071 10.4507 1.97071 9.55672 2.10946 8.67905L4.78321 7.1528C4.90056 7.08607 4.99773 6.9889 5.06446 6.87155C5.11883 6.7778 5.17602 6.67842 5.23414 6.58467C5.30855 6.46645 5.34818 6.32967 5.34852 6.18998L5.36258 3.16654C6.08251 2.60118 6.88457 2.14909 7.74102 1.82592L10.4391 3.33154C10.5566 3.39664 10.6893 3.42901 10.8235 3.42529C10.937 3.42529 11.0513 3.42529 11.1648 3.42529C11.2989 3.42865 11.4316 3.39629 11.5491 3.33154L14.2529 1.82217C15.1112 2.14286 15.9154 2.59274 16.6379 3.15623L16.6482 6.17498C16.6487 6.31495 16.6883 6.45199 16.7626 6.57061C16.8207 6.66436 16.8779 6.75811 16.9313 6.85748C16.9976 6.97665 17.0947 7.07575 17.2126 7.14436L19.8938 8.67155C20.0344 9.5499 20.036 10.4449 19.8985 11.3237H19.9023Z" fill="#2A7DEC"/>
</svg>
