<svg width="16" height="17" viewBox="0 0 16 17" fill="none" xmlns="http://www.w3.org/2000/svg">
<path d="M1.615 16.5C1.155 16.5 0.771 16.346 0.463 16.038C0.154333 15.7293 0 15.345 0 14.885V2.115C0 1.655 0.154333 1.271 0.463 0.963C0.771 0.654333 1.155 0.5 1.615 0.5H14.385C14.845 0.5 15.229 0.654333 15.537 0.963C15.8457 1.271 16 1.655 16 2.115V14.885C16 15.345 15.846 15.729 15.538 16.037C15.2293 16.3457 14.845 16.5 14.385 16.5H1.615ZM1.615 15.5H7.5V1.5H1.615C1.46167 1.5 1.32067 1.564 1.192 1.692C1.064 1.82067 1 1.96167 1 2.115V14.885C1 15.0383 1.064 15.1793 1.192 15.308C1.32067 15.436 1.46167 15.5 1.615 15.5ZM8.5 15.5H14.385C14.5383 15.5 14.6793 15.436 14.808 15.308C14.936 15.1793 15 15.0383 15 14.885V8.5H8.5V15.5ZM8.5 7.5H15V2.115C15 1.96167 14.936 1.82067 14.808 1.692C14.6793 1.564 14.5383 1.5 14.385 1.5H8.5V7.5Z" fill="white"/>
</svg>
