<svg width="18" height="17" viewBox="0 0 18 17" fill="none" xmlns="http://www.w3.org/2000/svg">
<path d="M0.5 16.5C0.358 16.5 0.239333 16.452 0.144 16.356C0.0480001 16.26 0 16.1413 0 16C0 15.8587 0.0480001 15.74 0.144 15.644C0.239333 15.548 0.358 15.5 0.5 15.5H17.5C17.642 15.5 17.7607 15.548 17.856 15.644C17.9513 15.74 17.9993 15.8587 18 16C18 16.1413 17.952 16.26 17.856 16.356C17.7607 16.4513 17.642 16.499 17.5 16.499L0.5 16.5ZM2.002 13.73C1.72533 13.73 1.489 13.6333 1.293 13.44C1.09767 13.244 1 13.0073 1 12.73V9.5C1 9.222 1.097 8.986 1.291 8.792C1.485 8.59733 1.72067 8.5 1.998 8.5C2.27467 8.5 2.511 8.59733 2.707 8.792C2.90233 8.986 3 9.222 3 9.5V12.73C3 13.008 2.903 13.2447 2.709 13.44C2.515 13.6333 2.27933 13.73 2.002 13.73ZM6.656 13.73C6.37867 13.73 6.14233 13.6333 5.947 13.44C5.75167 13.2447 5.654 13.008 5.654 12.73V4.5C5.654 4.222 5.75067 3.986 5.944 3.792C6.13933 3.59733 6.37567 3.5 6.653 3.5C6.92967 3.5 7.166 3.59733 7.362 3.792C7.55733 3.986 7.655 4.222 7.655 4.5V12.73C7.655 13.008 7.558 13.2447 7.364 13.44C7.17 13.6333 6.93333 13.73 6.656 13.73ZM11.33 13.73C11.0527 13.73 10.8163 13.6333 10.621 13.44C10.4257 13.2447 10.328 13.008 10.328 12.73V7.5C10.328 7.222 10.4247 6.986 10.618 6.792C10.8127 6.59733 11.0487 6.5 11.326 6.5C11.6027 6.5 11.839 6.59733 12.035 6.792C12.2303 6.986 12.328 7.222 12.328 7.5V12.73C12.328 13.008 12.231 13.2447 12.037 13.44C11.843 13.6333 11.6073 13.73 11.33 13.73ZM16.003 13.73C15.7263 13.73 15.49 13.6333 15.294 13.44C15.0987 13.2447 15.001 13.008 15.001 12.73V1.5C15.001 1.222 15.098 0.986 15.292 0.792C15.486 0.597333 15.7217 0.5 15.999 0.5C16.2757 0.5 16.512 0.597333 16.708 0.792C16.9027 0.986 17 1.222 17 1.5V12.73C17 13.008 16.903 13.2447 16.709 13.44C16.515 13.6333 16.2803 13.73 16.003 13.73Z" fill="white"/>
</svg>
