<svg width="22" height="22" viewBox="0 0 22 22" fill="none" xmlns="http://www.w3.org/2000/svg">
<path d="M11 4.4C10.7083 4.4 10.4285 4.51589 10.2222 4.72218C10.0159 4.92847 9.9 5.20826 9.9 5.5V16.5C9.9 16.7917 10.0159 17.0715 10.2222 17.2778C10.4285 17.4841 10.7083 17.6 11 17.6C11.2917 17.6 11.5715 17.4841 11.7778 17.2778C11.9841 17.0715 12.1 16.7917 12.1 16.5V5.5C12.1 5.20826 11.9841 4.92847 11.7778 4.72218C11.5715 4.51589 11.2917 4.4 11 4.4ZM5.5 11C5.20826 11 4.92847 11.1159 4.72218 11.3222C4.51589 11.5285 4.4 11.8083 4.4 12.1V16.5C4.4 16.7917 4.51589 17.0715 4.72218 17.2778C4.92847 17.4841 5.20826 17.6 5.5 17.6C5.79174 17.6 6.07153 17.4841 6.27782 17.2778C6.48411 17.0715 6.6 16.7917 6.6 16.5V12.1C6.6 11.8083 6.48411 11.5285 6.27782 11.3222C6.07153 11.1159 5.79174 11 5.5 11ZM16.5 8.8C16.2083 8.8 15.9285 8.91589 15.7222 9.12218C15.5159 9.32847 15.4 9.60826 15.4 9.9V16.5C15.4 16.7917 15.5159 17.0715 15.7222 17.2778C15.9285 17.4841 16.2083 17.6 16.5 17.6C16.7917 17.6 17.0715 17.4841 17.2778 17.2778C17.4841 17.0715 17.6 16.7917 17.6 16.5V9.9C17.6 9.60826 17.4841 9.32847 17.2778 9.12218C17.0715 8.91589 16.7917 8.8 16.5 8.8ZM18.7 0H3.3C2.42479 0 1.58542 0.347678 0.966548 0.966548C0.347678 1.58542 0 2.42479 0 3.3V18.7C0 19.5752 0.347678 20.4146 0.966548 21.0335C1.58542 21.6523 2.42479 22 3.3 22H18.7C19.5752 22 20.4146 21.6523 21.0335 21.0335C21.6523 20.4146 22 19.5752 22 18.7V3.3C22 2.42479 21.6523 1.58542 21.0335 0.966548C20.4146 0.347678 19.5752 0 18.7 0ZM19.8 18.7C19.8 18.9917 19.6841 19.2715 19.4778 19.4778C19.2715 19.6841 18.9917 19.8 18.7 19.8H3.3C3.00826 19.8 2.72847 19.6841 2.52218 19.4778C2.31589 19.2715 2.2 18.9917 2.2 18.7V3.3C2.2 3.00826 2.31589 2.72847 2.52218 2.52218C2.72847 2.31589 3.00826 2.2 3.3 2.2H18.7C18.9917 2.2 19.2715 2.31589 19.4778 2.52218C19.6841 2.72847 19.8 3.00826 19.8 3.3V18.7Z" fill="#2A7DEC"/>
</svg>
