<svg width="50" height="50" viewBox="0 0 50 50" fill="none" xmlns="http://www.w3.org/2000/svg">
<rect x="0.5" y="0.5" width="49" height="49" rx="5.5" fill="#E5F0FF"/>
<rect x="0.5" y="0.5" width="49" height="49" rx="5.5" stroke="#2A7DEC"/>
<path d="M25 18.4C24.7083 18.4 24.4285 18.5159 24.2222 18.7222C24.0159 18.9285 23.9 19.2083 23.9 19.5V30.5C23.9 30.7917 24.0159 31.0715 24.2222 31.2778C24.4285 31.4841 24.7083 31.6 25 31.6C25.2917 31.6 25.5715 31.4841 25.7778 31.2778C25.9841 31.0715 26.1 30.7917 26.1 30.5V19.5C26.1 19.2083 25.9841 18.9285 25.7778 18.7222C25.5715 18.5159 25.2917 18.4 25 18.4ZM19.5 25C19.2083 25 18.9285 25.1159 18.7222 25.3222C18.5159 25.5285 18.4 25.8083 18.4 26.1V30.5C18.4 30.7917 18.5159 31.0715 18.7222 31.2778C18.9285 31.4841 19.2083 31.6 19.5 31.6C19.7917 31.6 20.0715 31.4841 20.2778 31.2778C20.4841 31.0715 20.6 30.7917 20.6 30.5V26.1C20.6 25.8083 20.4841 25.5285 20.2778 25.3222C20.0715 25.1159 19.7917 25 19.5 25ZM30.5 22.8C30.2083 22.8 29.9285 22.9159 29.7222 23.1222C29.5159 23.3285 29.4 23.6083 29.4 23.9V30.5C29.4 30.7917 29.5159 31.0715 29.7222 31.2778C29.9285 31.4841 30.2083 31.6 30.5 31.6C30.7917 31.6 31.0715 31.4841 31.2778 31.2778C31.4841 31.0715 31.6 30.7917 31.6 30.5V23.9C31.6 23.6083 31.4841 23.3285 31.2778 23.1222C31.0715 22.9159 30.7917 22.8 30.5 22.8ZM32.7 14H17.3C16.4248 14 15.5854 14.3477 14.9665 14.9665C14.3477 15.5854 14 16.4248 14 17.3V32.7C14 33.5752 14.3477 34.4146 14.9665 35.0335C15.5854 35.6523 16.4248 36 17.3 36H32.7C33.5752 36 34.4146 35.6523 35.0335 35.0335C35.6523 34.4146 36 33.5752 36 32.7V17.3C36 16.4248 35.6523 15.5854 35.0335 14.9665C34.4146 14.3477 33.5752 14 32.7 14ZM33.8 32.7C33.8 32.9917 33.6841 33.2715 33.4778 33.4778C33.2715 33.6841 32.9917 33.8 32.7 33.8H17.3C17.0083 33.8 16.7285 33.6841 16.5222 33.4778C16.3159 33.2715 16.2 32.9917 16.2 32.7V17.3C16.2 17.0083 16.3159 16.7285 16.5222 16.5222C16.7285 16.3159 17.0083 16.2 17.3 16.2H32.7C32.9917 16.2 33.2715 16.3159 33.4778 16.5222C33.6841 16.7285 33.8 17.0083 33.8 17.3V32.7Z" fill="#2A7DEC"/>
</svg>