<svg width="18" height="24" viewBox="0 0 18 24" fill="none" xmlns="http://www.w3.org/2000/svg">
<path d="M5.30719 4.78698C5.25034 4.64995 5.2354 4.49914 5.26427 4.35362C5.29314 4.20811 5.36452 4.07442 5.46937 3.96948L8.46937 0.969477C8.53903 0.899744 8.62175 0.844425 8.7128 0.806682C8.80384 0.768939 8.90144 0.749512 9 0.749512C9.09856 0.749512 9.19616 0.768939 9.2872 0.806682C9.37825 0.844425 9.46097 0.899744 9.53063 0.969477L12.5306 3.96948C12.6356 4.07437 12.7072 4.20806 12.7361 4.35362C12.7651 4.49919 12.7503 4.65008 12.6935 4.78719C12.6367 4.92431 12.5404 5.04149 12.417 5.12389C12.2935 5.2063 12.1484 5.25022 12 5.2501H9.75V9.0001C9.75 9.19901 9.67098 9.38978 9.53033 9.53043C9.38968 9.67108 9.19891 9.7501 9 9.7501C8.80109 9.7501 8.61032 9.67108 8.46967 9.53043C8.32902 9.38978 8.25 9.19901 8.25 9.0001V5.2501H6C5.85167 5.25007 5.70667 5.20606 5.58335 5.12362C5.46003 5.04118 5.36393 4.92403 5.30719 4.78698ZM17.25 11.2501H0.75C0.551088 11.2501 0.360322 11.3291 0.21967 11.4698C0.0790178 11.6104 0 11.8012 0 12.0001C0 12.199 0.0790178 12.3898 0.21967 12.5304C0.360322 12.6711 0.551088 12.7501 0.75 12.7501H17.25C17.4489 12.7501 17.6397 12.6711 17.7803 12.5304C17.921 12.3898 18 12.199 18 12.0001C18 11.8012 17.921 11.6104 17.7803 11.4698C17.6397 11.3291 17.4489 11.2501 17.25 11.2501ZM12 18.7501H9.75V15.0001C9.75 14.8012 9.67098 14.6104 9.53033 14.4698C9.38968 14.3291 9.19891 14.2501 9 14.2501C8.80109 14.2501 8.61032 14.3291 8.46967 14.4698C8.32902 14.6104 8.25 14.8012 8.25 15.0001V18.7501H6C5.85158 18.75 5.70646 18.7939 5.58301 18.8763C5.45957 18.9587 5.36335 19.0759 5.30653 19.213C5.24972 19.3501 5.23487 19.501 5.26385 19.6466C5.29284 19.7921 5.36437 19.9258 5.46937 20.0307L8.46937 23.0307C8.53903 23.1005 8.62175 23.1558 8.7128 23.1935C8.80384 23.2313 8.90144 23.2507 9 23.2507C9.09856 23.2507 9.19616 23.2313 9.2872 23.1935C9.37825 23.1558 9.46097 23.1005 9.53063 23.0307L12.5306 20.0307C12.6356 19.9258 12.7072 19.7921 12.7361 19.6466C12.7651 19.501 12.7503 19.3501 12.6935 19.213C12.6367 19.0759 12.5404 18.9587 12.417 18.8763C12.2935 18.7939 12.1484 18.75 12 18.7501Z" fill="#2A7DEC"/>
</svg>
