<svg width="20" height="20" viewBox="0 0 20 20" fill="none" xmlns="http://www.w3.org/2000/svg">
<path d="M12.5 18.925L8.25 14.675L9.65 13.275L12.5 16.125L18.15 10.475L19.55 11.875L12.5 18.925ZM18 9H16V4H14V7H4V4H2V18H8V20H2C1.45 20 0.979333 19.8043 0.588 19.413C0.196667 19.0217 0.000666667 18.5507 0 18V4C0 3.45 0.196 2.97933 0.588 2.588C0.98 2.19667 1.45067 2.00067 2 2H6.175C6.35833 1.41667 6.71667 0.937667 7.25 0.563C7.78333 0.188333 8.36667 0.000666667 9 0C9.66667 0 10.2627 0.187667 10.788 0.563C11.3133 0.938333 11.6673 1.41733 11.85 2H16C16.55 2 17.021 2.196 17.413 2.588C17.805 2.98 18.0007 3.45067 18 4V9ZM9 4C9.28333 4 9.521 3.904 9.713 3.712C9.905 3.52 10.0007 3.28267 10 3C10 2.71667 9.904 2.47933 9.712 2.288C9.52 2.09667 9.28267 2.00067 9 2C8.71667 2 8.47933 2.096 8.288 2.288C8.09667 2.48 8.00067 2.71733 8 3C8 3.28333 8.096 3.521 8.288 3.713C8.48 3.905 8.71733 4.00067 9 4Z" fill="#2A7DEC"/>
</svg>
