<svg width="50" height="50" viewBox="0 0 50 50" fill="none" xmlns="http://www.w3.org/2000/svg">
<rect x="0.5" y="0.5" width="49" height="49" rx="5.5" fill="#E5F0FF"/>
<rect x="0.5" y="0.5" width="49" height="49" rx="5.5" stroke="#2A7DEC"/>
<path d="M28.5 32.925L24.25 28.675L25.65 27.275L28.5 30.125L34.15 24.475L35.55 25.875L28.5 32.925ZM34 23H32V18H30V21H20V18H18V32H24V34H18C17.45 34 16.9793 33.8043 16.588 33.413C16.1967 33.0217 16.0007 32.5507 16 32V18C16 17.45 16.196 16.9793 16.588 16.588C16.98 16.1967 17.4507 16.0007 18 16H22.175C22.3583 15.4167 22.7167 14.9377 23.25 14.563C23.7833 14.1883 24.3667 14.0007 25 14C25.6667 14 26.2627 14.1877 26.788 14.563C27.3133 14.9383 27.6673 15.4173 27.85 16H32C32.55 16 33.021 16.196 33.413 16.588C33.805 16.98 34.0007 17.4507 34 18V23ZM25 18C25.2833 18 25.521 17.904 25.713 17.712C25.905 17.52 26.0007 17.2827 26 17C26 16.7167 25.904 16.4793 25.712 16.288C25.52 16.0967 25.2827 16.0007 25 16C24.7167 16 24.4793 16.096 24.288 16.288C24.0967 16.48 24.0007 16.7173 24 17C24 17.2833 24.096 17.521 24.288 17.713C24.48 17.905 24.7173 18.0007 25 18Z" fill="#2A7DEC"/>
</svg>