<svg width="18" height="20" viewBox="0 0 18 20" fill="none" xmlns="http://www.w3.org/2000/svg">
<path d="M8.298 0.194935C8.69262 0.0472867 9.12379 0.0280382 9.53 0.139935L9.702 0.194935L16.702 2.81993C17.0569 2.95303 17.3667 3.18424 17.5953 3.48664C17.8239 3.78903 17.9618 4.15016 17.993 4.52793L18 4.69293V10.0559C18 11.6764 17.5624 13.2667 16.7336 14.6591C15.9048 16.0515 14.7154 17.1944 13.291 17.9669L13.025 18.1059L9.671 19.7829C9.48632 19.8751 9.28461 19.9282 9.07847 19.9389C8.87233 19.9496 8.66621 19.9176 8.473 19.8449L8.329 19.7829L4.975 18.1059C3.52561 17.3812 2.29878 16.2786 1.424 14.9145C0.549233 13.5505 0.0589805 11.9755 0.00500011 10.3559L0 10.0559V4.69293C5.81505e-06 4.31406 0.107627 3.94299 0.310334 3.62291C0.513041 3.30282 0.802495 3.0469 1.145 2.88493L1.298 2.81993L8.298 0.194935ZM9 2.06793L2 4.69293V10.0559C2.00003 11.3109 2.33745 12.5429 2.97696 13.6227C3.61646 14.7026 4.53451 15.5906 5.635 16.1939L5.87 16.3169L9 17.8819L12.13 16.3169C13.2527 15.7557 14.2039 14.9029 14.8839 13.8478C15.5638 12.7927 15.9476 11.5742 15.995 10.3199L16 10.0559V4.69293L9 2.06793ZM12.433 6.62893C12.613 6.44959 12.8544 6.34546 13.1084 6.33771C13.3623 6.32995 13.6097 6.41915 13.8003 6.58718C13.9908 6.75522 14.1103 6.98949 14.1344 7.24241C14.1585 7.49533 14.0854 7.74794 13.93 7.94894L13.847 8.04293L8.613 13.2779C8.42235 13.4686 8.16832 13.5825 7.89917 13.5982C7.63002 13.6139 7.36449 13.5301 7.153 13.3629L7.057 13.2779L4.653 10.8739C4.47175 10.6944 4.36597 10.4524 4.35732 10.1974C4.34867 9.94241 4.4378 9.69377 4.60647 9.50235C4.77513 9.31094 5.01058 9.19123 5.26462 9.16773C5.51866 9.14423 5.77208 9.21871 5.973 9.37593L6.067 9.45893L7.835 11.2269L12.433 6.62893Z" fill="#2A7DEC"/>
</svg>
