<svg width="17" height="17" viewBox="0 0 17 17" fill="none" xmlns="http://www.w3.org/2000/svg">
<path d="M0.980469 16.5V15.5H2.69247V9H0.981469V8H2.69247V1.5H0.981469V0.5H17.0005V1.5H15.3085V8H17.0005V9H15.3085V15.5H17.0005V16.5H0.980469ZM3.69247 15.5H14.3085V9H13.3085V8H14.3085V1.5H3.69247V8H4.69247V9H3.69247V15.5ZM8.99847 11.865C9.6918 11.865 10.2821 11.6257 10.7695 11.147C11.2568 10.667 11.5005 10.087 11.5005 9.407C11.5005 8.865 11.3441 8.39967 11.0315 8.011C10.7188 7.62233 10.0418 6.82367 9.00047 5.615C7.96847 6.81767 7.2938 7.61633 6.97647 8.011C6.65914 8.405 6.50047 8.87167 6.50047 9.411C6.50047 10.0897 6.74347 10.6683 7.22947 11.147C7.7148 11.6257 8.30447 11.865 8.99847 11.865Z" fill="white"/>
</svg>
