<svg width="20" height="18" viewBox="0 0 20 18" fill="none" xmlns="http://www.w3.org/2000/svg">
<path d="M19.75 16.5C19.75 16.6989 19.671 16.8897 19.5303 17.0303C19.3897 17.171 19.1989 17.25 19 17.25H1C0.801088 17.25 0.610322 17.171 0.46967 17.0303C0.329018 16.8897 0.25 16.6989 0.25 16.5V1.5C0.25 1.30109 0.329018 1.11032 0.46967 0.96967C0.610322 0.829018 0.801088 0.75 1 0.75C1.19891 0.75 1.38968 0.829018 1.53033 0.96967C1.67098 1.11032 1.75 1.30109 1.75 1.5V11.6897L6.46937 6.96937C6.53903 6.89964 6.62175 6.84432 6.71279 6.80658C6.80384 6.76884 6.90144 6.74941 7 6.74941C7.09856 6.74941 7.19616 6.76884 7.28721 6.80658C7.37825 6.84432 7.46097 6.89964 7.53063 6.96937L10 9.43969L14.9397 4.5H13C12.8011 4.5 12.6103 4.42098 12.4697 4.28033C12.329 4.13968 12.25 3.94891 12.25 3.75C12.25 3.55109 12.329 3.36032 12.4697 3.21967C12.6103 3.07902 12.8011 3 13 3H16.75C16.9489 3 17.1397 3.07902 17.2803 3.21967C17.421 3.36032 17.5 3.55109 17.5 3.75V7.5C17.5 7.69891 17.421 7.88968 17.2803 8.03033C17.1397 8.17098 16.9489 8.25 16.75 8.25C16.5511 8.25 16.3603 8.17098 16.2197 8.03033C16.079 7.88968 16 7.69891 16 7.5V5.56031L10.5306 11.0306C10.461 11.1004 10.3783 11.1557 10.2872 11.1934C10.1962 11.2312 10.0986 11.2506 10 11.2506C9.90144 11.2506 9.80384 11.2312 9.7128 11.1934C9.62175 11.1557 9.53903 11.1004 9.46937 11.0306L7 8.56031L1.75 13.8103V15.75H19C19.1989 15.75 19.3897 15.829 19.5303 15.9697C19.671 16.1103 19.75 16.3011 19.75 16.5Z" fill="#2A7DEC"/>
</svg>
