<svg width="778" height="320" viewBox="0 0 778 320" fill="none" xmlns="http://www.w3.org/2000/svg">
<path fill-rule="evenodd" clip-rule="evenodd" d="M73.5119 21.538C96.2108 7.91599 122.763 0.000671235 151.125 0.000671235C152.286 -0.0136741 153.437 0.202039 154.513 0.636108C155.589 1.07018 156.568 1.71356 157.394 2.52893C158.219 3.3443 158.875 4.31545 159.322 5.38605C159.769 6.45665 160 7.60545 160 8.76575C160 9.92605 159.769 11.0748 159.322 12.1454C158.875 13.216 158.219 14.1871 157.394 15.0025C156.568 15.8179 155.589 16.4613 154.513 16.8953C153.437 17.3294 152.286 17.5455 151.125 17.5311C126.626 17.5311 103.757 24.1421 84.0403 35.6257C85.9845 40.1595 87.1216 45.0229 87.1232 50.0223V50.0263C87.1238 70.1816 70.5964 86.709 50.4411 86.7084H50.4287C45.3825 86.7007 40.4761 85.5356 35.9098 83.551C24.2509 103.377 17.5315 126.423 17.5315 151.125C17.5459 152.286 17.3298 153.437 16.8957 154.513C16.4617 155.589 15.8183 156.568 15.0029 157.394C14.1875 158.219 13.2164 158.875 12.1458 159.322C11.0752 159.769 9.92642 160 8.76611 160C7.6058 160 6.45703 159.769 5.38642 159.322C4.31581 158.875 3.34467 158.219 2.5293 157.394C1.71393 156.568 1.07056 155.589 0.636494 154.513C0.202431 153.437 -0.0136871 152.286 0.000671258 151.125C0.000671258 122.536 8.0412 95.7834 21.866 72.9641C16.6894 66.5203 13.7726 58.4516 13.7627 50.0369V50.0263C13.762 29.872 30.2869 13.345 50.4412 13.3442H50.4447C58.9069 13.3464 67.0396 16.2757 73.5119 21.538ZM65.2756 37.952C61.6305 33.3872 56.3523 30.8771 50.4394 30.8751C39.7619 30.8765 31.2942 39.3438 31.2917 50.0208C31.3002 55.8159 33.9219 61.2807 38.436 64.9138L38.4484 64.9229C41.8471 67.6687 46.0783 69.1695 50.4482 69.1775C61.1243 69.174 69.5908 60.7064 69.5923 50.0298C69.5909 45.7196 68.1297 41.5463 65.4582 38.1665C65.3962 38.096 65.3354 38.0244 65.2756 37.952Z" fill="#BCAD36"/>
<path fill-rule="evenodd" clip-rule="evenodd" d="M125.209 96.7433L99.1402 122.812C99.1402 122.812 86.1666 109.851 78.9636 102.641C77.3596 101.009 75.2138 100.327 72.9515 100.317C70.5932 100.306 68.4843 101.271 66.9923 102.829C65.5003 104.387 64.626 106.54 64.7347 108.9C64.8309 110.945 65.6479 112.921 67.0719 114.418C70.6572 118.03 76.0783 123.45 80.4055 127.77L87.295 134.657L62.5008 159.451C58.5257 163.427 58.5257 169.873 62.5008 173.849L80.6571 192.005C80.6571 192.005 67.6961 204.978 60.4884 212.183C58.856 213.787 58.1744 215.933 58.1642 218.195C58.1417 222.912 62.0257 226.629 66.7476 226.412H66.7457C68.7904 226.316 70.7661 225.499 72.2634 224.075C76.1428 220.224 82.1068 214.257 86.5544 209.801C88.2636 208.09 90.3373 206.015 92.5021 203.85L112.41 223.758L111.734 224.435C109.241 226.927 106.806 229.362 105.17 231L105.173 231.001C101.005 235.172 95.8871 240.292 92.2415 243.936C90.609 245.54 89.9274 247.686 89.9172 249.948C89.8947 254.665 93.7788 258.382 98.5006 258.165H98.4987C100.543 258.069 102.519 257.252 104.016 255.828C108.704 251.176 116.434 243.432 120.856 238.998L120.859 239L124.255 235.603L142.887 254.236C146.863 258.212 153.309 258.212 157.285 254.236L182.077 229.444C182.077 229.444 195.05 242.406 202.255 249.614C203.859 251.246 206.005 251.928 208.267 251.938C212.983 251.961 216.701 248.077 216.484 243.355H216.482C216.385 241.31 215.568 239.334 214.144 237.837C209.147 232.802 200.584 224.257 196.387 220.071C195.654 219.335 194.825 218.504 193.922 217.599L219.991 191.53C223.316 194.852 234.124 205.653 240.169 211.7C241.773 213.332 243.919 214.014 246.181 214.024C250.897 214.047 254.615 210.163 254.398 205.441L254.396 205.443C254.299 203.398 253.482 201.421 252.058 199.924C246.328 194.152 235.203 183.056 231.829 179.693L256.63 154.891C260.606 150.914 260.605 144.468 256.63 140.493L238 121.864C238 121.864 250.961 108.891 258.171 101.688C259.803 100.084 260.485 97.9381 260.495 95.6759C260.517 90.9592 256.633 87.2418 251.911 87.459C249.867 87.5552 247.891 88.3722 246.394 89.7962C241.429 94.7251 233.047 103.123 228.802 107.38C228.026 108.153 227.125 109.051 226.156 110.019L206.247 90.111C206.247 90.111 219.208 77.1378 226.418 69.9348C228.05 68.3309 228.732 66.1851 228.742 63.9229C228.764 59.2062 224.88 55.4887 220.158 55.706C218.114 55.8022 216.138 56.6192 214.641 58.0432C210.175 62.4765 202.945 69.7163 198.448 74.2245C197.186 75.4805 195.811 76.8534 194.399 78.2632L176.242 60.1065C172.267 56.1314 165.821 56.1314 161.845 60.1065L137.054 84.8978C137.054 84.8978 124.081 71.9368 116.878 64.7274C115.274 63.0948 113.128 62.4133 110.866 62.4031C106.149 62.3805 102.432 66.2645 102.649 70.9864C102.745 73.0311 103.562 75.0069 104.986 76.5042C108.76 80.3064 114.568 86.1114 118.993 90.5283L118.991 90.5299C118.991 90.5299 121.632 93.1683 125.209 96.7433ZM174.19 98.8249C171.86 98.791 169.573 99.7445 167.893 101.451C167.098 102.259 166.464 103.211 166.031 104.248L157.914 123.702C156.286 127.46 157.547 131.702 160.9 133.749C164.253 135.796 168.723 135.052 171.487 131.988L175.608 148.106L130.947 161.743C126.521 163.096 123.845 167.725 124.971 172.081L135.253 211.85C136.346 216.244 140.869 218.717 145.322 217.355C149.775 215.992 152.449 211.317 151.276 206.948L143.031 175.065L187.672 161.434C192.092 160.085 194.768 155.469 193.656 151.117L187.532 127.169C191.359 128.27 195.568 126.399 197.482 122.746C199.396 119.093 198.452 114.732 195.251 112.435L178.753 100.335C177.443 99.375 175.853 98.8486 174.19 98.8249Z" fill="#BCAD36"/>
<path fill-rule="evenodd" clip-rule="evenodd" d="M168.873 319.999C197.236 319.999 223.788 312.083 246.487 298.461C252.96 303.724 261.092 306.653 269.555 306.655H269.559C289.713 306.655 306.238 290.127 306.238 269.973V269.962C306.228 261.547 303.311 253.478 298.134 247.034C311.959 224.215 320 197.462 320 168.872C320.014 167.712 319.798 166.56 319.364 165.484C318.93 164.408 318.286 163.429 317.471 162.604C316.656 161.778 315.684 161.123 314.614 160.675C313.543 160.228 312.394 159.998 311.234 159.998C310.074 159.998 308.925 160.228 307.854 160.675C306.784 161.123 305.813 161.778 304.997 162.604C304.182 163.429 303.539 164.408 303.104 165.484C302.67 166.56 302.454 167.712 302.469 168.872C302.469 193.575 295.749 216.621 284.09 236.447C279.524 234.463 274.617 233.298 269.571 233.29H269.559C249.403 233.289 232.876 249.817 232.876 269.972C232.878 274.972 234.015 279.835 235.959 284.369C216.242 295.853 193.373 302.464 168.873 302.464C167.713 302.45 166.562 302.666 165.486 303.1C164.41 303.534 163.431 304.178 162.606 304.993C161.78 305.808 161.125 306.779 160.678 307.85C160.23 308.921 160 310.069 160 311.229C160 312.39 160.23 313.538 160.678 314.609C161.125 315.679 161.78 316.65 162.606 317.466C163.431 318.281 164.41 318.925 165.486 319.359C166.562 319.793 167.713 320.009 168.873 319.995V319.999ZM269.56 289.124C263.647 289.124 258.369 286.612 254.723 282.047C254.664 281.975 254.603 281.903 254.541 281.833C251.869 278.453 250.408 274.28 250.407 269.969C250.409 259.292 258.875 250.825 269.551 250.821C273.921 250.829 278.152 252.33 281.551 255.076L281.563 255.085C286.077 258.718 288.699 264.183 288.708 269.978C288.705 280.655 280.238 289.123 269.56 289.124Z" fill="#BCAD36"/>
<path d="M390.67 140.604C394.479 139.086 397.442 136.809 399.561 133.774V110.836H376.882V117.537H391.357V131.583C389.839 133.216 387.921 134.375 385.601 135.063C383.282 135.75 380.576 136.094 377.483 136.094C372.013 136.094 367.675 134.032 364.468 129.908C361.261 125.756 359.657 120.172 359.657 113.156V108.044C359.686 100.685 361.117 95.0723 363.952 91.2064C366.816 87.3118 371.011 85.3646 376.538 85.3646C384.842 85.3646 389.768 89.5025 391.314 97.7784H399.561C398.674 91.6502 396.24 86.9253 392.259 83.6035C388.279 80.253 383.024 78.5778 376.495 78.5778C368.534 78.5778 362.349 81.1693 357.939 86.3525C353.557 91.5356 351.367 98.8379 351.367 108.259V113.714C351.424 119.528 352.526 124.639 354.674 129.049C356.851 133.459 359.915 136.867 363.866 139.272C367.818 141.649 372.343 142.837 377.44 142.837C382.48 142.837 386.89 142.093 390.67 140.604Z" fill="#BCAD36"/>
<path fill-rule="evenodd" clip-rule="evenodd" d="M410 118.31C410 113.757 410.887 109.662 412.663 106.025C414.467 102.388 416.958 99.5819 420.137 97.606C423.344 95.6301 426.995 94.6422 431.09 94.6422C437.419 94.6422 442.53 96.8329 446.425 101.214C450.348 105.596 452.31 111.423 452.31 118.697V119.255C452.31 123.78 451.436 127.846 449.689 131.454C447.971 135.034 445.494 137.826 442.258 139.83C439.051 141.835 435.357 142.837 431.176 142.837C424.876 142.837 419.764 140.646 415.841 136.265C411.947 131.884 410 126.085 410 118.868V118.31ZM417.989 119.255C417.989 124.41 419.177 128.547 421.554 131.669C423.96 134.79 427.167 136.351 431.176 136.351C435.214 136.351 438.421 134.776 440.798 131.626C443.175 128.447 444.363 124.009 444.363 118.31C444.363 113.213 443.146 109.089 440.712 105.939C438.306 102.761 435.099 101.171 431.09 101.171C427.167 101.171 424.003 102.732 421.597 105.853C419.192 108.975 417.989 113.442 417.989 119.255Z" fill="#BCAD36"/>
<path d="M462.962 141.977H470.908V75.9996H462.962V141.977Z" fill="#BCAD36"/>
<path fill-rule="evenodd" clip-rule="evenodd" d="M481.647 118.353C481.647 111.222 483.337 105.495 486.716 101.171C490.095 96.8181 494.519 94.6418 499.988 94.6418C505.429 94.6418 509.739 96.5031 512.918 100.226V75.9996H520.864V141.977H513.562L513.175 136.995C509.997 140.889 505.572 142.836 499.903 142.836C494.519 142.836 490.123 140.632 486.716 136.222C483.337 131.812 481.647 126.056 481.647 118.954V118.353ZM489.594 119.255C489.594 124.524 490.682 128.647 492.858 131.625C495.034 134.604 498.041 136.093 501.878 136.093C506.918 136.093 510.598 133.83 512.918 129.306V107.958C510.541 103.576 506.89 101.386 501.964 101.386C498.07 101.386 495.034 102.889 492.858 105.896C490.682 108.903 489.594 113.356 489.594 119.255Z" fill="#BCAD36"/>
<path fill-rule="evenodd" clip-rule="evenodd" d="M372.599 253.798V221.584H389.115C399.957 221.584 408.435 219.009 414.547 213.86C420.701 208.669 423.778 201.594 423.778 192.635C423.778 186.732 422.376 181.478 419.571 176.873C416.766 172.226 412.747 168.646 407.514 166.135C402.323 163.623 396.294 162.367 389.428 162.367H353.76V253.798H372.599ZM389.428 206.324H372.599V177.626H389.868C394.515 177.71 398.157 179.133 400.795 181.896C403.432 184.66 404.751 188.281 404.751 192.76C404.751 197.114 403.432 200.463 400.795 202.808C398.199 205.152 394.41 206.324 389.428 206.324Z" fill="#BCAD36"/>
<path fill-rule="evenodd" clip-rule="evenodd" d="M474.078 253.799C473.241 252.166 472.634 250.136 472.257 247.707C467.861 252.606 462.147 255.055 455.113 255.055C448.457 255.055 442.931 253.129 438.535 249.277C434.181 245.426 432.004 240.57 432.004 234.709C432.004 227.508 434.663 221.982 439.979 218.13C445.338 214.279 453.062 212.332 463.151 212.29H471.503V208.397C471.503 205.257 470.687 202.745 469.054 200.862C467.463 198.978 464.931 198.036 461.456 198.036C458.4 198.036 455.993 198.768 454.234 200.234C452.518 201.699 451.66 203.708 451.66 206.262H433.512C433.512 202.327 434.726 198.685 437.154 195.335C439.582 191.986 443.015 189.37 447.452 187.486C451.89 185.56 456.872 184.597 462.398 184.597C470.771 184.597 477.406 186.711 482.304 190.94C487.244 195.126 489.714 201.029 489.714 208.648V238.1C489.756 244.547 490.656 249.424 492.414 252.731V253.799H474.078ZM459.07 241.177C461.749 241.177 464.219 240.591 466.479 239.418C468.74 238.204 470.415 236.593 471.503 234.583V222.903H464.721C455.637 222.903 450.801 226.043 450.215 232.322L450.152 233.39C450.152 235.651 450.948 237.514 452.539 238.979C454.13 240.444 456.307 241.177 459.07 241.177Z" fill="#BCAD36"/>
<path d="M535.43 202.369C537.313 202.369 539.49 202.536 541.96 202.871L542.212 185.414C540.453 184.869 538.569 184.597 536.56 184.597C530.113 184.597 525.068 187.716 521.426 193.954L520.924 185.853H503.78V253.799H521.928V209.339C524.063 204.692 528.564 202.369 535.43 202.369Z" fill="#BCAD36"/>
<path d="M575.745 169.148V185.852H587.362V199.165H575.745V233.075C575.745 235.586 576.226 237.387 577.189 238.475C578.152 239.564 579.994 240.108 582.715 240.108C584.725 240.108 586.504 239.961 588.053 239.668V253.421C584.494 254.509 580.831 255.053 577.063 255.053C564.337 255.053 557.848 248.627 557.597 235.775V199.165H547.675V185.852H557.597V169.148H575.745Z" fill="#BCAD36"/>
<path d="M614.741 193.703L614.176 185.853H597.096V253.799H615.244V205.885C617.798 201.531 621.628 199.354 626.736 199.354C630.629 199.354 633.413 200.234 635.087 201.992C636.762 203.708 637.599 206.492 637.599 210.344V253.799H655.747V209.904C655.664 201.489 653.864 195.168 650.347 190.94C646.83 186.711 641.472 184.597 634.271 184.597C626.108 184.597 619.598 187.632 614.741 193.703Z" fill="#BCAD36"/>
<path fill-rule="evenodd" clip-rule="evenodd" d="M700.835 255.055C690.871 255.055 682.75 251.999 676.47 245.886C670.232 239.774 667.113 231.632 667.113 221.459V219.7C667.113 212.877 668.432 206.785 671.069 201.427C673.707 196.026 677.433 191.882 682.247 188.993C687.103 186.062 692.629 184.597 698.825 184.597C708.119 184.597 715.424 187.528 720.741 193.389C726.1 199.25 728.779 207.56 728.779 218.319V225.729H685.513C686.099 230.166 687.857 233.725 690.787 236.404C693.76 239.083 697.507 240.423 702.028 240.423C709.019 240.423 714.483 237.89 718.418 232.825L727.335 242.809C724.614 246.661 720.93 249.675 716.283 251.852C711.636 253.987 706.487 255.055 700.835 255.055ZM698.763 199.292C695.162 199.292 692.232 200.506 689.971 202.934C687.752 205.362 686.329 208.837 685.701 213.358H710.945V211.914C710.861 207.895 709.773 204.797 707.68 202.62C705.586 200.401 702.614 199.292 698.763 199.292Z" fill="#BCAD36"/>
<path d="M770.79 202.369C772.674 202.369 774.851 202.536 777.321 202.871L777.572 185.414C775.814 184.869 773.93 184.597 771.92 184.597C765.473 184.597 760.429 187.716 756.786 193.954L756.284 185.853H739.141V253.799H757.289V209.339C759.424 204.692 763.924 202.369 770.79 202.369Z" fill="#BCAD36"/>
</svg>
