<?xml version="1.0" encoding="UTF-8" standalone="no"?>
<!-- Created with Inkscape (http://www.inkscape.org/) -->

<svg
   xmlns:dc="http://purl.org/dc/elements/1.1/"
   xmlns:cc="http://creativecommons.org/ns#"
   xmlns:rdf="http://www.w3.org/1999/02/22-rdf-syntax-ns#"
   xmlns:svg="http://www.w3.org/2000/svg"
   xmlns="http://www.w3.org/2000/svg"
   xmlns:sodipodi="http://sodipodi.sourceforge.net/DTD/sodipodi-0.dtd"
   xmlns:inkscape="http://www.inkscape.org/namespaces/inkscape"
   width="777.5719"
   height="320.00027"
   viewBox="0 0 777.5719 320.00028"
   id="svg2"
   version="1.1"
   inkscape:version="0.92.4 (33fec40, 2019-01-16)"
   sodipodi:docname="gold-partner.svg"
   inkscape:export-filename="/data/git/azure/logos/tb-logo-115.png"
   inkscape:export-xdpi="34.5"
   inkscape:export-ydpi="34.5">
  <defs
     id="defs4">
    <marker
       inkscape:stockid="SemiCircleOut"
       orient="auto"
       refY="0"
       refX="0"
       id="SemiCircleOut"
       style="overflow:visible"
       inkscape:isstock="true">
      <path
         id="path4593"
         d="m -2.5,-0.80913858 c 0,2.75999998 -2.24,4.99999998 -5,4.99999998 v -10 c 2.76,0 5,2.24 5,5.00000002 z"
         style="fill:#000000;fill-opacity:1;fill-rule:evenodd;stroke:#000000;stroke-width:1.00000003pt;stroke-opacity:1"
         transform="matrix(0.6,0,0,0.6,4.2752958,0.4580676)"
         inkscape:connector-curvature="0" />
    </marker>
  </defs>
  <sodipodi:namedview
     id="base"
     pagecolor="#ffffff"
     bordercolor="#666666"
     borderopacity="1.0"
     inkscape:pageopacity="0.0"
     inkscape:pageshadow="2"
     inkscape:zoom="0.70710678"
     inkscape:cx="231.67918"
     inkscape:cy="65.906344"
     inkscape:document-units="px"
     inkscape:current-layer="layer1"
     showgrid="false"
     inkscape:window-width="1920"
     inkscape:window-height="984"
     inkscape:window-x="1920"
     inkscape:window-y="27"
     inkscape:window-maximized="1"
     units="px"
     fit-margin-top="0"
     fit-margin-left="0"
     fit-margin-right="0"
     fit-margin-bottom="0" />
  <metadata
     id="metadata7">
    <rdf:RDF>
      <cc:Work
         rdf:about="">
        <dc:format>image/svg+xml</dc:format>
        <dc:type
           rdf:resource="http://purl.org/dc/dcmitype/StillImage" />
        <dc:title />
      </cc:Work>
    </rdf:RDF>
  </metadata>
  <g
     inkscape:groupmode="layer"
     id="layer2"
     inkscape:label="background"
     style="display:inline"
     sodipodi:insensitive="true"
     transform="translate(1.5959837e-4,1.4e-4)">
    <rect
       style="opacity:1;fill:#ffffff;fill-opacity:1;fill-rule:nonzero;stroke:none;stroke-width:11.94591618;stroke-linecap:round;stroke-linejoin:round;stroke-miterlimit:4;stroke-dasharray:none;stroke-dashoffset:0;stroke-opacity:1;paint-order:markers fill stroke"
       id="rect9466"
       width="320"
       height="320"
       x="0"
       y="1.4210855e-14" />
  </g>
  <g
     inkscape:label="Layer 1"
     inkscape:groupmode="layer"
     id="layer1"
     transform="translate(1.5959837e-4,-732.36202)"
     style="display:inline">
    <g
       style="stroke-width:28;stroke-miterlimit:4;stroke-dasharray:none"
       transform="matrix(1.047054,1.0605782,-1.0483717,1.0619129,931.69468,-208.54591)"
       id="g5175-6-32">
      <g
         transform="translate(2.6389597,2.1465741)"
         id="g5200-2-06" />
    </g>
    <g
       id="g4532">
      <g
         transform="translate(-1.5980164e-4,1e-4)"
         id="g4241"
         style="fill:#bcad36;fill-opacity:1;stroke-width:28;stroke-miterlimit:4;stroke-dasharray:none">
        <path
           inkscape:connector-curvature="0"
           id="path4278"
           d="m 151.12529,732.36296 c -28.36254,0 -54.914536,7.91534 -77.613396,21.53731 -6.472325,-5.26231 -14.605019,-8.19152 -23.067211,-8.19371 a 8.766105,8.766105 0 0 0 -0.0035,0 c -20.154302,7.3e-4 -36.679138,16.52775 -36.678497,36.68204 a 8.766105,8.766105 0 0 0 0,0.0106 c 0.0099,8.41474 2.926707,16.48342 8.103307,22.92716 C 8.0411968,828.14569 6.7140654e-4,854.89792 6.7140654e-4,883.48758 a 8.766105,8.766105 0 1 0 17.53086759346,0 c 0,-24.70242 6.719319,-47.74837 18.378249,-67.57423 4.566328,1.98455 9.472713,3.1496 14.518941,3.1573 a 8.766105,8.766105 0 0 0 0.01241,0 c 20.155249,6.2e-4 36.682682,-16.5268 36.682041,-36.68205 a 8.766105,8.766105 0 0 0 0,-0.004 c -0.0016,-4.99939 -1.138716,-9.86276 -3.082837,-14.39662 19.716617,-11.48355 42.585377,-18.09452 67.084947,-18.09452 a 8.766105,8.766105 0 1 0 0,-17.53087 z M 50.439365,763.23742 c 5.912903,0.002 11.191111,2.51211 14.836266,7.07688 a 8.766105,8.766105 0 0 0 0.182595,0.21451 c 2.67149,3.37983 4.132649,7.55309 4.134086,11.86334 -0.0015,10.67657 -8.467998,19.14414 -19.144083,19.14762 -4.369979,-0.008 -8.601092,-1.50877 -11.999843,-4.25463 a 8.766105,8.766105 0 0 0 -0.01241,-0.009 c -4.514026,-3.63313 -7.135794,-9.09792 -7.144241,-14.893 0.0025,-10.67699 8.470125,-19.1445 19.147628,-19.14585 z"
           style="color:#000000;font-style:normal;font-variant:normal;font-weight:normal;font-stretch:normal;font-size:medium;line-height:normal;font-family:sans-serif;text-indent:0;text-align:start;text-decoration:none;text-decoration-line:none;text-decoration-style:solid;text-decoration-color:#000000;letter-spacing:normal;word-spacing:normal;text-transform:none;writing-mode:lr-tb;direction:ltr;baseline-shift:baseline;text-anchor:start;white-space:normal;clip-rule:nonzero;display:inline;overflow:visible;visibility:visible;opacity:1;isolation:auto;mix-blend-mode:normal;color-interpolation:sRGB;color-interpolation-filters:linearRGB;solid-color:#000000;solid-opacity:1;fill:#bcad36;fill-opacity:1;fill-rule:nonzero;stroke:none;stroke-width:19.31400108;stroke-linecap:round;stroke-linejoin:round;stroke-miterlimit:4;stroke-dasharray:none;stroke-dashoffset:0;stroke-opacity:1;color-rendering:auto;image-rendering:auto;shape-rendering:auto;text-rendering:auto;enable-background:accumulate" />
        <path
           style="color:#000000;font-style:normal;font-variant:normal;font-weight:normal;font-stretch:normal;font-size:medium;line-height:normal;font-family:sans-serif;text-indent:0;text-align:start;text-decoration:none;text-decoration-line:none;text-decoration-style:solid;text-decoration-color:#000000;letter-spacing:normal;word-spacing:normal;text-transform:none;writing-mode:lr-tb;direction:ltr;baseline-shift:baseline;text-anchor:start;white-space:normal;clip-rule:nonzero;display:inline;overflow:visible;visibility:visible;opacity:1;isolation:auto;mix-blend-mode:normal;color-interpolation:sRGB;color-interpolation-filters:linearRGB;solid-color:#000000;solid-opacity:1;fill:#bcad36;fill-opacity:1;fill-rule:evenodd;stroke:none;stroke-width:16.52799988;stroke-linecap:square;stroke-linejoin:bevel;stroke-miterlimit:4;stroke-dasharray:none;stroke-dashoffset:0;stroke-opacity:1;color-rendering:auto;image-rendering:auto;shape-rendering:auto;text-rendering:auto;enable-background:accumulate"
           d="m 66.992473,835.19124 c -1.491971,1.55829 -2.366259,3.71032 -2.257629,6.07126 0.0962,2.04471 0.913222,4.02044 2.337233,5.51771 6.805111,6.85593 20.223306,20.22331 20.223306,20.22331 l 11.844444,-11.82963 c 0,0 -12.973099,-12.9611 -20.1761,-20.17054 -1.603978,-1.63251 -3.749758,-2.31407 -6.012007,-2.32428 -2.358326,-0.0112 -4.467277,0.95389 -5.959247,2.51217 z m 32.147354,19.98265 -36.639471,36.63947 c -3.975058,3.97599 -3.975058,10.42137 0,14.39735 l 18.156361,18.15636 31.753033,31.75303 30.47751,30.47754 c 3.97584,3.9759 10.42193,3.9763 14.39828,0 l 24.79132,-24.7913 37.91408,-37.91407 36.63946,-36.63947 c 3.97542,-3.97635 3.97501,-10.42243 -6.7e-4,-14.39827 L 238.00012,854.22604 206.24708,822.473 176.24257,792.46849 c -3.97598,-3.97506 -10.42136,-3.97506 -14.39735,0 L 137.0539,817.25982 Z M 137.0539,817.25982 c 0,0 -12.9731,-12.9611 -20.1761,-20.17054 -1.60398,-1.63251 -3.74976,-2.31406 -6.01201,-2.32428 -4.71664,-0.0226 -8.43413,3.86155 -8.21687,8.58342 0.0962,2.04471 0.91322,4.02045 2.33723,5.51773 6.80511,6.85591 20.22331,20.22329 20.22331,20.22329 z m 69.19318,5.21318 c 0,0 12.9611,-12.9731 20.17055,-20.1761 1.63251,-1.60398 2.31406,-3.74975 2.32427,-6.01201 0.0225,-4.71664 -3.86155,-8.43413 -8.58343,-8.21687 -2.04471,0.0962 -4.02044,0.91322 -5.51771,2.33724 -6.85593,6.80511 -20.2233,20.22329 -20.22331,20.2233 z m 31.75304,31.75304 c 0,0 12.9611,-12.9731 20.17055,-20.17611 1.6325,-1.60397 2.31405,-3.74976 2.32427,-6.012 0.0225,-4.71665 -3.86155,-8.43413 -8.58343,-8.21688 -2.04471,0.0962 -4.02044,0.91323 -5.51772,2.33723 -6.85591,6.80512 -20.22331,20.22331 -20.22331,20.22332 z m -18.00918,69.6671 c 0,0 12.97314,12.96105 20.17795,20.1687 1.604,1.63243 3.74977,2.31404 6.012,2.32427 4.71665,0.0225 8.43416,-3.86154 8.21687,-8.58343 l -0.002,0.002 c -0.0962,-2.04471 -0.91415,-4.02137 -2.33816,-5.51864 -6.8051,-6.85592 -20.22238,-20.22239 -20.22238,-20.22239 l -11.84444,11.82963 z m -37.91408,37.9141 c 0,0 12.97315,12.961 20.17796,20.1687 1.604,1.6324 3.74977,2.314 6.012,2.3242 4.71665,0.023 8.43416,-3.8615 8.21687,-8.5834 h -0.002 c -0.0962,-2.0447 -0.91323,-4.0205 -2.33724,-5.5177 -6.8051,-6.8559 -20.2233,-20.22337 -20.2233,-20.22337 l -11.84445,11.82967 z m -69.66711,-5.68714 c 0,0 -12.961034,12.97314 -20.16869,20.17794 -1.632438,1.604 -2.314039,3.7498 -2.324275,6.012 -0.02251,4.7166 3.861538,8.4342 8.583427,8.2169 h -0.0019 c 2.044708,-0.096 4.020448,-0.9132 5.517718,-2.3373 6.8561,-6.8048 20.22331,-20.2232 20.22331,-20.2232 z M 80.656717,924.36707 c 0,0 -12.961038,12.97314 -20.168692,20.17795 -1.632438,1.604 -2.31404,3.74977 -2.324276,6.01198 -0.02251,4.71669 3.861538,8.43424 8.583428,8.21691 h -0.0019 c 2.044706,-0.0962 4.020446,-0.91322 5.517721,-2.33722 6.856119,-6.80471 20.22333,-20.22315 20.22333,-20.22315 z m 87.236613,-90.5541 c 1.6794,-1.70641 3.96686,-2.65994 6.29711,-2.62602 1.66278,0.0237 3.25297,0.55012 4.56246,1.50971 l 16.49854,12.09991 c 3.20092,2.297 4.14451,6.65887 2.23079,10.31159 -1.91366,3.65275 -6.12342,5.52427 -9.9506,4.4227 l 6.12402,23.94807 c 1.11276,4.35172 -1.56404,8.96773 -5.98332,10.31714 l -44.64159,13.63093 8.24556,31.88262 c 1.17277,4.36963 -1.50168,9.04451 -5.95461,10.40691 -4.4529,1.36248 -8.97557,-1.11059 -10.06816,-5.50473 l -10.28197,-39.76906 c -1.12649,-4.35562 1.54934,-8.98467 5.97592,-10.33751 l 44.66103,-13.63739 -4.12186,-16.11811 c -2.76336,3.06426 -7.23348,3.80835 -10.5865,1.76148 -3.35307,-2.04692 -4.61435,-6.28964 -2.9861,-10.04686 l 8.1169,-19.45411 c 0.43322,-1.0376 1.06733,-1.98884 1.86238,-2.79727 z"
           id="path4486-0-9-6-9-7-6-5"
           inkscape:connector-curvature="0" />
        <path
           inkscape:connector-curvature="0"
           id="path4278-5"
           d="m 168.87284,1052.3622 c 28.36287,0 54.91517,-7.9155 77.61429,-21.5377 6.4724,5.2624 14.60518,8.1917 23.06747,8.1939 a 8.7662044,8.7662044 0 0 0 0.004,0 c 20.15453,-7e-4 36.67956,-16.528 36.67891,-36.6825 a 8.7662044,8.7662044 0 0 0 0,-0.011 c -0.01,-8.41486 -2.92674,-16.48363 -8.1034,-22.92745 13.82492,-22.81957 21.86554,-49.5721 21.86554,-78.16209 a 8.7662044,8.7662044 0 1 0 -17.53107,0 c 0,24.70271 -6.7194,47.74892 -18.37846,67.57501 -4.56638,-1.98458 -9.47282,-3.14964 -14.5191,-3.15734 a 8.7662044,8.7662044 0 0 0 -0.0124,0 c -20.15548,-6.2e-4 -36.6831,16.52699 -36.68245,36.68247 0.002,4.9994 1.13873,9.8628 3.08286,14.3968 -19.71684,11.4836 -42.58586,18.0947 -67.08571,18.0947 a 8.7662044,8.7662044 0 1 0 0,17.5311 z m 100.68708,-30.8749 c -5.91297,0 -11.19124,-2.5122 -14.83643,-7.0769 a 8.7662044,8.7662044 0 0 0 -0.18261,-0.2146 c -2.67151,-3.3799 -4.13269,-7.5531 -4.13413,-11.8634 0.002,-10.67675 8.4681,-19.14441 19.1443,-19.14789 4.37003,0.008 8.60119,1.50878 11.99998,4.25468 a 8.7662044,8.7662044 0 0 0 0.0124,0.009 c 4.51407,3.63316 7.13588,9.09802 7.14432,14.89321 -0.003,10.6771 -8.47022,19.1447 -19.14785,19.1461 z"
           style="color:#000000;font-style:normal;font-variant:normal;font-weight:normal;font-stretch:normal;font-size:medium;line-height:normal;font-family:sans-serif;text-indent:0;text-align:start;text-decoration:none;text-decoration-line:none;text-decoration-style:solid;text-decoration-color:#000000;letter-spacing:normal;word-spacing:normal;text-transform:none;writing-mode:lr-tb;direction:ltr;baseline-shift:baseline;text-anchor:start;white-space:normal;clip-rule:nonzero;display:inline;overflow:visible;visibility:visible;opacity:1;isolation:auto;mix-blend-mode:normal;color-interpolation:sRGB;color-interpolation-filters:linearRGB;solid-color:#000000;solid-opacity:1;fill:#bcad36;fill-opacity:1;fill-rule:nonzero;stroke:none;stroke-width:19.31400108;stroke-linecap:round;stroke-linejoin:round;stroke-miterlimit:4;stroke-dasharray:none;stroke-dashoffset:0;stroke-opacity:1;color-rendering:auto;image-rendering:auto;shape-rendering:auto;text-rendering:auto;enable-background:accumulate" />
      </g>
      <g
         id="text3212"
         style="font-style:normal;font-variant:normal;font-weight:normal;font-stretch:normal;font-size:87.97041321px;line-height:1.25;font-family:Roboto;-inkscape-font-specification:Roboto;letter-spacing:0px;word-spacing:0px;fill:#bcad36;fill-opacity:1;stroke:none;stroke-width:2.19926023"
         aria-label="Gold">
        <path
           id="path4491"
           style="fill:#bcad36;fill-opacity:1;stroke-width:2.19926023"
           d="m 399.56131,866.13569 q -3.17862,4.55316 -8.89154,6.82974 -5.66997,2.23362 -13.22992,2.23362 -7.64587,0 -13.57356,-3.56521 -5.9277,-3.60816 -9.19222,-10.22312 -3.22158,-6.61496 -3.30749,-15.33469 v -5.45519 q 0,-14.13197 6.57201,-21.9067 6.61497,-7.77473 18.55626,-7.77473 9.79358,0 15.76423,5.02566 5.97065,4.9827 7.30223,14.17492 h -8.24722 q -2.31954,-12.4138 -14.77628,-12.4138 -8.29018,0 -12.58561,5.84179 -4.25248,5.79883 -4.29543,16.83809 v 5.11156 q 0,10.5238 4.81088,16.75218 4.81088,6.18542 13.01515,6.18542 4.63907,0 8.11836,-1.03091 3.4793,-1.0309 5.75588,-3.4793 v -14.04605 h -14.4756 v -6.70087 h 22.67987 z" />
        <path
           id="path4493"
           style="fill:#bcad36;fill-opacity:1;stroke-width:2.19926023"
           d="m 409.99921,850.67214 q 0,-6.82973 2.66316,-12.28493 2.70613,-5.45519 7.47405,-8.41904 4.81089,-2.96385 10.95335,-2.96385 9.4929,0 15.33469,6.57201 5.88474,6.57201 5.88474,17.4824 v 0.55841 q 0,6.78678 -2.62022,12.19902 -2.57725,5.36929 -7.43109,8.37609 -4.81088,3.0068 -11.08221,3.0068 -9.44995,0 -15.33469,-6.57201 -5.84178,-6.572 -5.84178,-17.39649 z m 7.9895,0.945 q 0,7.73177 3.56521,12.41379 3.60816,4.68202 9.62176,4.68202 6.05656,0 9.62176,-4.72497 3.56521,-4.76793 3.56521,-13.31584 0,-7.64586 -3.65112,-12.37083 -3.60816,-4.76793 -9.62176,-4.76793 -5.88474,0 -9.4929,4.68202 -3.60816,4.68202 -3.60816,13.40174 z" />
        <path
           id="path4495"
           style="fill:#bcad36;fill-opacity:1;stroke-width:2.19926023"
           d="m 470.90841,874.33997 h -7.94654 v -65.97781 h 7.94654 z" />
        <path
           id="path4497"
           style="fill:#bcad36;fill-opacity:1;stroke-width:2.19926023"
           d="m 481.64699,850.7151 q 0,-10.69562 5.06861,-17.18172 5.0686,-6.52906 13.27288,-6.52906 8.16131,0 12.92924,5.58406 v -24.22622 h 7.94655 v 65.97781 h -7.30223 l -0.38659,-4.9827 q -4.76793,5.84178 -13.27288,5.84178 -8.07541,0 -13.18697,-6.61496 -5.06861,-6.61496 -5.06861,-17.26763 z m 7.94654,0.90204 q 0,7.90359 3.26453,12.37084 3.26453,4.46725 9.02041,4.46725 7.55995,0 11.03925,-6.78678 v -21.34829 q -3.56521,-6.57201 -10.95335,-6.57201 -5.84178,0 -9.10631,4.5102 -3.26453,4.5102 -3.26453,13.35879 z" />
      </g>
      <g
         id="text3212-3"
         style="font-style:normal;font-variant:normal;font-weight:bold;font-stretch:normal;font-size:128.60667419px;line-height:1.25;font-family:Roboto;-inkscape-font-specification:'Roboto, Bold';font-variant-ligatures:normal;font-variant-caps:normal;font-variant-numeric:normal;font-feature-settings:normal;text-align:start;letter-spacing:0px;word-spacing:0px;writing-mode:lr-tb;text-anchor:start;display:inline;fill:#bcad36;fill-opacity:1;stroke:none;stroke-width:3.21515799"
         aria-label="Partner">
        <path
           id="path4500"
           style="font-style:normal;font-variant:normal;font-weight:bold;font-stretch:normal;font-size:128.60667419px;font-family:Roboto;-inkscape-font-specification:'Roboto, Bold';font-variant-ligatures:normal;font-variant-caps:normal;font-variant-numeric:normal;font-feature-settings:normal;text-align:start;writing-mode:lr-tb;text-anchor:start;fill:#bcad36;fill-opacity:1;stroke-width:3.21515799"
           d="m 372.59884,953.94594 v 32.21446 h -18.83886 v -91.43131 h 35.66825 q 10.29858,0 18.08532,3.76778 7.84952,3.76777 12.05687,10.73815 4.20735,6.90759 4.20735,15.76185 0,13.4384 -9.23105,21.22513 -9.16825,7.72394 -25.43247,7.72394 z m 0,-15.25949 h 16.82939 q 7.47275,0 11.36612,-3.51659 3.95616,-3.51659 3.95616,-10.04739 0,-6.7192 -3.95616,-10.86375 -3.95616,-4.14455 -10.92654,-4.27014 h -17.26897 z" />
        <path
           id="path4502"
           style="font-style:normal;font-variant:normal;font-weight:bold;font-stretch:normal;font-size:128.60667419px;font-family:Roboto;-inkscape-font-specification:'Roboto, Bold';font-variant-ligatures:normal;font-variant-caps:normal;font-variant-numeric:normal;font-feature-settings:normal;text-align:start;writing-mode:lr-tb;text-anchor:start;fill:#bcad36;fill-opacity:1;stroke-width:3.21515799"
           d="m 474.07755,986.1604 q -1.25593,-2.44905 -1.82109,-6.09123 -6.59361,7.34715 -17.14337,7.34715 -9.9846,0 -16.57821,-5.77725 -6.5308,-5.77725 -6.5308,-14.56872 0,-10.80095 7.97512,-16.57821 8.03791,-5.77725 23.1718,-5.84005 h 8.3519 v -3.89336 q 0,-4.70972 -2.44905,-7.53555 -2.38626,-2.82583 -7.59834,-2.82583 -4.58413,0 -7.22157,2.19787 -2.57464,2.19787 -2.57464,6.02844 h -18.14811 q 0,-5.90285 3.64218,-10.92655 3.64218,-5.0237 10.29858,-7.84953 6.6564,-2.88862 14.9455,-2.88862 12.55925,0 19.9064,6.34242 7.40996,6.27962 7.40996,17.70853 v 29.45143 q 0.0628,9.67062 2.70024,14.63152 v 1.06754 z m -15.0083,-12.62204 q 4.01896,0 7.40995,-1.7583 3.391,-1.82109 5.0237,-4.83531 v -11.68009 h -6.78199 q -13.62678,0 -14.50593,9.41943 l -0.0628,1.06754 q 0,3.39099 2.38625,5.58886 2.38626,2.19787 6.53081,2.19787 z" />
        <path
           id="path4504"
           style="font-style:normal;font-variant:normal;font-weight:bold;font-stretch:normal;font-size:128.60667419px;font-family:Roboto;-inkscape-font-specification:'Roboto, Bold';font-variant-ligatures:normal;font-variant-caps:normal;font-variant-numeric:normal;font-feature-settings:normal;text-align:start;writing-mode:lr-tb;text-anchor:start;fill:#bcad36;fill-opacity:1;stroke-width:3.21515799"
           d="m 541.96027,935.23266 q -3.70498,-0.50237 -6.53081,-0.50237 -10.29858,0 -13.50119,6.97038 v 44.45973 h -18.1481 v -67.94552 h 17.14337 l 0.50237,8.10072 q 5.46327,-9.35664 15.13389,-9.35664 3.01421,0 5.65166,0.81635 z" />
        <path
           id="path4506"
           style="font-style:normal;font-variant:normal;font-weight:bold;font-stretch:normal;font-size:128.60667419px;font-family:Roboto;-inkscape-font-specification:'Roboto, Bold';font-variant-ligatures:normal;font-variant-caps:normal;font-variant-numeric:normal;font-feature-settings:normal;text-align:start;writing-mode:lr-tb;text-anchor:start;fill:#bcad36;fill-opacity:1;stroke-width:3.21515799"
           d="m 575.74464,901.51109 v 16.70379 h 11.61731 v 13.3128 h -11.61731 v 33.90997 q 0,3.76777 1.44432,5.40047 1.44431,1.6327 5.52607,1.6327 3.01421,0 5.33767,-0.43957 v 13.75237 q -5.33767,1.6327 -10.98934,1.6327 -19.09005,0 -19.46683,-19.27844 v -36.6102 h -9.9218 v -13.3128 h 9.9218 v -16.70379 z" />
        <path
           id="path4508"
           style="font-style:normal;font-variant:normal;font-weight:bold;font-stretch:normal;font-size:128.60667419px;font-family:Roboto;-inkscape-font-specification:'Roboto, Bold';font-variant-ligatures:normal;font-variant-caps:normal;font-variant-numeric:normal;font-feature-settings:normal;text-align:start;writing-mode:lr-tb;text-anchor:start;fill:#bcad36;fill-opacity:1;stroke-width:3.21515799"
           d="m 614.17593,918.21488 0.56517,7.84953 q 7.28436,-9.10545 19.52963,-9.10545 10.80095,0 16.07583,6.34242 5.27488,6.34242 5.40048,18.96446 v 43.89456 h -18.14811 v -43.45499 q 0,-5.77725 -2.51185,-8.3519 -2.51185,-2.63744 -8.3519,-2.63744 -7.66114,0 -11.49171,6.53081 v 47.91352 h -18.14811 v -67.94552 z" />
        <path
           id="path4510"
           style="font-style:normal;font-variant:normal;font-weight:bold;font-stretch:normal;font-size:128.60667419px;font-family:Roboto;-inkscape-font-specification:'Roboto, Bold';font-variant-ligatures:normal;font-variant-caps:normal;font-variant-numeric:normal;font-feature-settings:normal;text-align:start;writing-mode:lr-tb;text-anchor:start;fill:#bcad36;fill-opacity:1;stroke-width:3.21515799"
           d="m 700.83473,987.41632 q -14.9455,0 -24.36494,-9.16824 -9.35663,-9.16825 -9.35663,-24.42774 v -1.75829 q 0,-10.23579 3.95616,-18.2737 3.95616,-8.10072 11.17773,-12.43366 7.28436,-4.39573 16.5782,-4.39573 13.94076,0 21.91588,8.79147 8.03792,8.79147 8.03792,24.9301 v 7.40996 h -43.2666 q 0.87915,6.6564 5.27488,10.67536 4.45854,4.01895 11.24053,4.01895 10.48697,0 16.38981,-7.59834 l 8.91707,9.9846 q -4.08176,5.77725 -11.05214,9.04266 -6.97038,3.2026 -15.44787,3.2026 z m -2.07228,-55.76305 q -5.40047,0 -8.79147,3.64219 -3.3282,3.64218 -4.27014,10.42417 h 25.24408 v -1.44431 q -0.12559,-6.02844 -3.2654,-9.29385 -3.13981,-3.3282 -8.91707,-3.3282 z" />
        <path
           id="path4512"
           style="font-style:normal;font-variant:normal;font-weight:bold;font-stretch:normal;font-size:128.60667419px;font-family:Roboto;-inkscape-font-specification:'Roboto, Bold';font-variant-ligatures:normal;font-variant-caps:normal;font-variant-numeric:normal;font-feature-settings:normal;text-align:start;writing-mode:lr-tb;text-anchor:start;fill:#bcad36;fill-opacity:1;stroke-width:3.21515799"
           d="m 777.32053,935.23266 q -3.70498,-0.50237 -6.53081,-0.50237 -10.29858,0 -13.50119,6.97038 v 44.45973 h -18.1481 v -67.94552 h 17.14337 l 0.50237,8.10072 q 5.46327,-9.35664 15.13389,-9.35664 3.01421,0 5.65166,0.81635 z" />
      </g>
    </g>
  </g>
</svg>
