<svg xmlns="http://www.w3.org/2000/svg" viewBox="0 0 1599.6 800"><defs><style>.cls-1{fill:none}.cls-2{fill:#8290a0}</style></defs><g id="Слой_2" data-name="Слой 2"><g id="Слой_1-2" data-name="Слой 1"><path class="cls-1" d="M844 230a10 10 0 001 0 10 10 0 01-1 0zM848 237a3 3 0 01-3-1 3 3 0 003 1zM844 236h0zM871 213a23 23 0 012-3l-2 3zM820 298a1 1 0 012-1 1 1 0 00-2 1zM815 295h1a2 2 0 00-1 0zM817 295l1-1-1 1zM806 596h3-3zM935 461zM682 457l1-1-1 1zM695 473v-1 1zM914 266a3 3 0 00-1 1 3 3 0 011-1zM677 458zM712 391a3 3 0 001 0 3 3 0 01-1 0zM717 494a14 14 0 000 2 14 14 0 010-2zM428 737c2 1 3 3 1 3 2 0 1-2-1-3zM430 734a1 1 0 01-2-1 1 1 0 002 1zM428 744c0 1 2 3 0 3 2 0 0-2 0-3zM427 727v-4 4zM436 602a6 6 0 000 1c0-1 2-2 0-1zM137 212a1 1 0 01-1 1 1 1 0 001-1zM222 159c-17 8 5-10-17-1-1 2-13 3-11 4 6 3 10-6 14 0 0 2-4 0-5 1s2 2 0 3c-6 4 0 6 3 3 0-1 4-4 5-3 2 1-4 5-3 5 0 0 11-3 7-5-1-4 7 1 9-5 3-3-1-3-2-2zM318 266c4-2-6-29-11-18 0 4 11 14 11 18zM248 191c-2 3-15-9-13-2 7 4-2 3-3 7 0 2-4 1-4 2 9 9 50-24 20-7zM716 240c2-1 0 1-1 2a5 5 0 011-2zM200 279a10 10 0 01-3 0 10 10 0 003 0zM166 241zM718 244zM718 243a3 3 0 010-1 3 3 0 000 1zM358 299c2 0-5 20 3 16 6-3 0-12 4-16 4-2 6-9 11-3 2 4-1 6-2 9 3 1 7-5 7 5 5-3 0-16 10-10 5-13-31-11-33-1z"/><path class="cls-1" d="M338 287c6 2 11 2 16-3 3-2 0 3 2 3 3 3 6 3 11 1 14 7-4-16-12-13-2 5-16 8-17 12zM355 433l-2 1 2-1zM404 482a39 39 0 00-3 3 40 40 0 013-3zM422 770l4 1-4-1zM387 310l-7 4c-7-4-2 8 5 3 9-3 10-9 15-10 10 1 8-7 15-9 10 0-2-2-6 4-3 0-16 1-16 4 1 3 4 0 4 3l-1 1c-2-1-5 3-9 0zM1024 401v-1 1zM1212 469l-3 2 3-2zM1217 469h-5 5zM964 377l-2-4 2 4zM961 368c-2 3 1 3 1 5 0-2-3-2-1-5zM1201 463a2 2 0 000-1 2 2 0 010 1zM959 376c2 0 2 1 3 2-1-1-1-2-3-2zM782 302l3 1-3-1zM762 262v0zM490 678v0zM985 441zM862 218zM906 361l-2-1 2 1zM912 342l-1 2 1-2zM714 314c1 2 5 1 7 1-2 0-6 1-7-1h-1 1zM711 315a2 2 0 002-1 2 2 0 01-2 1zM982 411s-3-2-3-4c0 2 3 4 3 4zM824 650l-2 1 2-1zM999 402l1-1-1 1zM979 430h2-2zM936 461v-1 1zM938 460c-3 1-1 1 1-1a5 5 0 00-1 1zM911 365c-1-1-5-2-4-4-1 2 3 3 4 4zM1255 509a7 7 0 000 1 7 7 0 010-1zM1256 506l-1 3 1-3zM886 134l1-2-1 2zM1262 499c-2 0-3 1-3 2 0-1 1-2 3-2zM1255 511l-5 2 5-2zM1256 505c1-1 3 0 3-3 0 3-2 2-3 3zM1233 512c2 1 3 3 5 2-3 2-9-7-5-2zM1252 498a11 11 0 001 2 11 11 0 01-1-2zM1257 499a8 8 0 00-2 1l2-1zM1254 500zM1080 298c0-8 11-9 18-7 17-3-31-6-18 7zM1017 295c-1-4-1-4-3-1-4-5-6 7-3 8 0-6 4-10 2 0 0 8 12-5 4-7zM1023 291c1-1-7-3-6-2l6 2zM1315 316h0zM1315 318h0zM1233 234c-5 8-18 24-26 26 9 2 30-15 26-26zM1165 408v-1 1zM1197 491a5 5 0 01-1 1 5 5 0 001-1zM1182 450a3 3 0 01-1-1 3 3 0 001 1zM1182 447v-1 1zM884 552c-2-5-6-14-7-20-5 6 11 34 7 20zM814 597a6 6 0 01-2 0 6 6 0 002 0zM889 521c-4 10 2 6 7 8-1-3 1-4 2-7 1 1 20 8 17 11 3-3-16-10-17-11 8-7-8-9-9-1zM906 584c-7-5-2-19-7-23-3 2 2 10 0 14 1 8 5 5 7 9zM895 561h3a21 21 0 00-3 0zM939 441zM990 319c-1-3-5-8-6-1 0 1-2-3-1-5 2-3-4-3-5-4-2 0-2-3-2-4 0-2-8-5-1-4 4 1-2-6 6-5 6 2 5-4 4-8-8-4-18 3-25 8-11 11 17 23 6 35-3 11 28 21 23 2 1-4-4-3-4-4 2-2 2-3 0-3-8-7 16-2 5-7zM966 288h-1 1z"/><path class="cls-2" d="M792 317c2 0 2-8 1-8-3 0-6 7-1 8zM422 434c11 2 36-3 10-7-5 0-14-5-7 4-2 1-16 3-3 3zM589 541c-4 2-17-15-23-10-6 1-10-4-15 1 5-6-13-17-16-9 0 3-2-1-3 2-1 4-4 2-2 1 10-8-6-11-8-5-2-1-1-3 1-3 9-5-1-12-2-19-8-12-27-4-32-15-2-4-8-6-13-5l2-4c0-3-13-2-6-5 1-3-11 0-13 2-2 1-6-4-8-3-3 1-6 1-6-1 0-4-5-3-7-6-1 4-5 4-7 7 1 4 2 11-4 5-1-2 3-5 2-6 0-1-1-4 1-4 8-7-11 2-12 3-7-1-4 3-8 8-3 4-10 8-7 11 2 4-1 9 1 13 2 5-6 7-7 10-1 1 0 4-4 4-2 1-2 6-4 8a6 6 0 001 9c8 2-10 5-2 13l-1 2c11 8 17 28 23 40 7 7 26 11 26 22 1 23-7 46-8 69 0 7-7 16-8 22 2 10-1 18-3 27 0 3 0 3 2 3 3-2 0-9 4-10l1 2c2 1-1 3 0 6-2 3-2 8-2 10v3c-1 2-3 0-2 4-7 1 4-7-3-7-1 2 5 3-1 5-1 1-3 1-2 4-2-1-4 5-2 3 0-1 2-2 2 0 7 1 2 1 2 5 0 2 7-1 4 2-2-2-13 0-7 4 2 1 3-4 4-1 0 2-8 5-3 6 0 0-1 2 1 2l1-2c2-6 2 2 1 5l-2 1-1 1c0 5-1 2 4 3 5-1-2 2-1 3 2-2 4 3 4 0l3 1c1 3-8 0-5 4 2 2 8-4 10 0-1 2-8 0-8 3-3 5 8-4 9-1 1 4-6-1-5 4-1 2-9-4-5 2 3 0 6 3 7 2 2 0-4-4 1-3 6 2 1-7 7-7 5 0-4 3-1 5h4c1 1-2 1-2 2 1 5-1 3-2-1-3 0 2 8-3 2-1-1-2 1-1 2s-2 0-2 2c1 2 4-1 5 5 1 1 0-4 2-4 1 0 0 3 3 4s0 0 1-1c1 0 7 4 4 0 0-1 6 1 7-1-6-2-1 1 2 0 13-2-3-2-9-10-3 0 4-4-1-5-6 0-3-3 1-2-2-3-6-11 0-13 4 0 2-7 6-8 6-4 5-5 6-9-2-2-10-1-7-8 3-6 8-2 8-7 3-1 0-7 3-8 2 0 2-1 1-1-4-4 8 2 5-4-6 1-7-2-7-8 10 3 14 4 13-8-1-3 20-1 21-7 1-3 8-7 2-9-4-1 3-6-3-6-3 0-5-4-1-4l10 3c12 0 13-9 19-19 0-5 7-8 2 0-5 9 15-16 12-19-3-9 5-15 13-17 5-2 6-6 13-4 5 1 3-3 6-4 4-2 4-9 7-13 0-7 4-6 4-13l1-18c2-3 4 5 7-7 8-4 17-24 5-28zM422 770l4 1-4-1zm5-43v-4 4zm1 6a1 1 0 002 1 1 1 0 01-2-1zm0 14c2 0 0-2 0-3 0 1 2 3 0 3zm1-7c2 0 1-2-1-3 2 1 3 3 1 3zm7-138a6 6 0 000 1c0-1 2-2 0-1zm54 76v0z"/><path class="cls-2" d="M404 482c1-6-10-12-15-6-12 5-15-13-12-22 5-12-15-10-22-8-5 3 4-16 4-18 1-10 9-11-8-9-9 0-4 16-13 12-15 5-15 1-23-10-4-9 0-25 0-34 3-3 9-3 10-7l3-1 2-2c3 2 2-2 5 1s3-3 6 1c2 2 6 2 6 0 0-1 2 3 4 3 3 0-7-8 2-7 3 1 4-4 5 0 17-2 3 7 17 2 6 3 3 10 6 14s5 12 9 10c6-13-15-32 5-40 0-4 5-2 6-4 0-1 2-3 5-3 4 0-3-6 1-5 1 2 7-2 4-3-2 0-2-1-1-1 1-1 0-3-2-3-2-1 2-4-3-6 1-3 4-1 3-8 3-2-1 3 1 5a6 6 0 011 5c0 6 5-8 3-7v-2c2 4 7-5 5-6-1-2 9-1 9-3 1-2-6 1-6 0l9-4c2 3 7-2 3-3-2-6 6-8 9-13 5 1 14-3 18-8 5 0-4 4 5 4 3 0-17 3-10 9 4 3 8-5 10-5 8 0 11-5 17-7 3-3-4-1-1-5-4-2-5 6-8 6-5 2-15-4-13-10 4-5-8 2-2-3 18-14-20-5-25 6 22-33 38-11 55-25 2-2 16-3 12-7-5-2 1-1 1-4-3-11-8 2-7-7-3-3-15 8-12 2 12-5 16-5 0-9-1 1-2-1-3-2 1-3-13-8-7-7 9 0-2-9-3-13-8-12-7-19-13-2-1 0-1 3-1 1-5-3-3 9-12-1-5 0-4-5-5-10 0-3 3-5-1-4-8 0-10-8-17-10-5 3-13-3-18-1-5 5 5 5-1 11 3 6 4 6 0 12-5 7 18 15 0 26-4 4-10 0-5 7 0 4 4 10 1 13 0 1 3 5-1 2-1-1-3 2-3 3-4 0-8-8-11-11 1-16 0-13-14-15-10-4-21-16-32-10a11 11 0 00-9-13c-4-10 6-20 10-26-1-3 9 0 7-4-6-4-23-9-3-4 11 4 2-6 13-2l6-7c5-3-18-3-10-7 5 3 10 6 15-1 2-2-7-3 1-4 3 2 3 3 8 2 3 0-8-6-2-4 2 1 4 5 7 2 4-2 10-5 4-9-5-9-1-3 3-7 1-1-3-2-1-3 3-3-5-1-5-4-6-2-17-5-10 4l-1 2c-4-1-2 6-5 7-1 1 0-3-2-3v4c3 2 1 3-2 5 0 1-5-5-5-7 2-3 3-5-1-8-7-8-7 14-10 0-3-1 5-3 2-4s-5-2-8 0c-2-6 7-3 0-8-7-4 0-8-9-11-4-1 0-1 2-4 4-3-3-3 1-4 7 3 9-3 13-9 3-4-27-5-20 1-7-2 1 11 0 15s-4 1-2 5c-2 0-6-1-4 5 1 1 2 1 1 2-6 9 16 4 8 14 0 2 0 1 2-1 3-3 2 4-1 5-2 2-3 2-5 2-3-1 4 8-2 6-7-4 5-6-7-9h3c4-3 4-1 8-3 2-5-6-2-6-4l3-1c2-3-6 1-7-2-4-5-6 5-10 4-2 2 10 3 7 5-5 3-3-2-4 5-8 1-27 3-30-7-2-3-20 3-12 5l10-3c0 4-15 1-7 10 3 3-6 5-4 2 4-3-7-8-10-7-3 3-32 3-16-3 2 1 1-1-1-3-8-4-13-1-21-5-11-3-13-6-23 0-2-13-1-4-8 0-2-1-10-16-9-9 2 3-2 1-2 3 1 2-3 4-3 3 0-5-8 5-9 2-3-1-6 5-9 6-2-5 14-8 16-11-2-3-14 3-15 4 0 2-3 0-4 1-2 2 1-3-3-1-2 4-10-2-4 7-12-3-24-9-37-11-11 3-25-6-36-2-5-2-5-7-12-4-6-5-3 1-8 0 5-10-9 2-13 0-5 0-4 1-3 4-7 0-15 1-17 10-25 7-6 3 0 16h7c2 1 0 3 1 4l5 1c-26 8-7-6-20 0-4 3-21 6-6 9-3 7 11 6 16 6 2-4 12-6 7 0 4 4-2 9-5 7-2 3-4 4-8 2-3 0-2 3-2 4 0 2-4 0-4 4-1 3-5 0-3 4 3 3 2 1 4 2 2 2-2 4 0 5 5 4 8 8 13 2 4 3-2 15 6 9 2-5 9 5 9 2 2-7 2 1 7-2 3-2 2 0 0 2-2 3 0 7-1 7-3 3-11 7-13 11-1 1-6-2-7 1-10 11 5-2 10 0 8-4 14-10 22-15 3-1 3-2 5-4 4-2 0-4-2-4 6-5 10-11 16-15 1-1 0 1 3 1 5 3-4 0-5 3-1 1-4 7-1 7 1 0 0 2-2 2-1 6 13-7 17-4 1-3-5-4 0-7 0-2 4 0 5 1 1 2 2 0 4 1 1 1-1 1-2 2s-1 2 0 1c3-3 4 2 6-1 2 0 2 3 6 3 8 0 9-2 14 2 3-1 9-4 5 1l12 8c4 1-1-5 6 0 4 4-2-10 2-3 3 14-3 1-6 6l8 10-1-5c-1-4 2-3 1 0 5 1 2-12 6-3 0 3-2 4-4 5v4c1 1 1-3 2-1 0 2 2-2 3-1 1 4 7 3 2 1-2 0-1-2 0-2 3 1 5 5 1 6-2 1-6-5-3 2-1 2 0 7 1 3 2-1 4 3 4-2l2 1c2 0 4-3 3 2 5 1-1-1 3 3 2 1-2 1-1 2l1 4c1 1 3 0 4-1 3-1-1 7 3 4 9 4 0 6 3 7 2 6 6 3 9 7 2 3 6-1 6 3 6 0 14 10 9 16-3 0 3-6-5-6 9-2-2-5-5-6 0-2-3-6-5-6-21-7-3 4 4 9 1 2 8 14 6 15-3 12-3 29 1 41 7 5 5 12 12 18 10 12 15 1 23 27 2 3 15 12 4 11 1 5 16 6 12 13-1 2 11 8 10 10 2 2 2-3 1-5-2-3-5 1-5-5-4-10-11-19-17-26-1-6-3-9 4-5 6 1 1-1 4 6 3 4-1 8 3 7 4 1 8 8 12 10 2 9 21 17 19 29-2 1-2 5 2 7 15 9 32 16 49 16 7 6 17 13 26 12 0-3 4 6 8 8 4 3-2 6 3 8 3 0 2-1 4 1 4 0 2 6 6 5 5-1 10 9 13 4-2-3 2-7 6-6 3 2 1 12 7 5zm-8-172l1-3c-2 1-3 1-4-1 0-3 13-4 16-4 5-4 5-4 12-4-7 0-7 0-12 4 2 4-9 5-12 5 1 5-19 16-21 8 1-6 4 0 6-2 3-4 10-2 14-3zm-22-19c5-2 22 3 17 9-6-2-5-3-7 3-2 9-3 8-5 1-2-1-5 3-5 1 1-3 4-5 2-9-5-6-7 1-11 3-4 4 2 13-4 16-8 4-1-16-3-16-3-4 16-7 16-8zm-27-9c6-4 13-11 18-3 0 4 4 0 5 4 2 5 4 9-3 5-5 2-8 2-11-1-2 0 1-5-2-3-8 9-25 2-7-2zM224 161c-2 6-10 1-9 5 4 2-7 5-7 5-1 0 5-4 3-5-4-2-4 6-9 4-4 0-1-2 1-4 2-1-1-2 0-3s5 1 5-1c-4-6-8 3-14 0 2 0 19-8 22-6 1 2-4 3-2 4 4 4 13-6 10 1zm25 32c-6 5-14 9-21 5 3 0 5-4 8-5 2 0 2-3-1-4-2-7 11 5 13 2 12-8 16-4 1 2zm58 55c5-11 15 16 11 18 0-4-11-14-11-18zm48 185l-2 1 2-1z"/><path class="cls-2" d="M417 425c-4-6-40-22-45-9 17-6 2-3 19 0 12 4 12 13 26 9zM399 433c1 2 8 4 9 2s-10-3-9-2zM450 434c2 3 7 1 7 0 1-2-9-3-7 0zM484 779c1 1 8-2 7-3-1-3-9 2-7 3zM483 774c-2-1-7 4-5 5s7-5 5-5zM341 517c-2 3 2 6 3 5 1-2-1-8-3-5zM652 130c-5 3-12-3-18-1-5 0 6-3 2-7 3-5 11 10 16 6 7-6-6-13-10-17 1-3 12 5 11-4 1-4-21 4-13-3 5 0 1-2 2-3 5 3 28 4 12-5-2-2 17 1 11-4-2 1-10-3-8-5 5-1 14-3 5-10-5 0-10-2-11-5 4-1 13-2 18-1 4-7-9-2-10-6 0-3 5 0 6-2-2-7-15 3-12-1 2-2 3-7 2-9 11-4 6-11 16-10 4-7-9-1-11-2 0-5 32-5 9-7-9 0 27-5 28-11-2-2-24-8-24 0-1 4-12-1-13-1-8 6-26 19-9 2 7-16-19 4-23 1 29-15-20-2-24-4 11-9 83 0 31-18-15-2-44-6-55 1 2 3-4 4-4 2-8-5-22 1-33 0-3 1 4 3 4 4s-10 0-8 3c4 1 21 13 6 6-48-21 5 12-31-5-3 0 0 3 0 6s-5 5-4 3c4-12-8-9-16-7-13-1 1 8-8 4-13-3-8 1-9 8-8-5-45 12-18 11 8 15-44 10-31 21 6 0 11 7 19 3 4-1 7 1 7 3-3 2-20 0-23 3 0 3 14 0 8 6-1 1 16 7 13 3-2-2 3-1 4 0 2 1 9-3 11-2 14 2 19 6 28 14 7 6 4 12 10 17 2 2-4 4-3 6 0 8 4 6 9 3 3 7 1 4 10 9 3 2 1 4-2 2-16-6-11 3 0 4 7 0 3 7 4 11-2 2-10-2-10 4-1 3-7 8 1 10-9 8 6 7 4 18 4 3 1 3 4 7 4 2 3 7 6 10 4 4 8 9 14 10 5 0 8 5 13 5 4-1 4-8 6-11 4-3-5-9 2-9 3 0 3-5 5-6 2-2-3-5 2-6 4-1-7-6-1-5 6 3 0-4 7-4 5 1 4-9 6-4-2 6 4 1 9 1 7-2 12-11 16-14-1-3 0-4 4-2l11-3c8 1 28-9 30-13z"/><path class="cls-2" d="M510 137c15 4 2-12-4-7-4 3 1 5 4 7zM581 792c1 0 6 7 8 4s-9-5-8-4zM348 64c-3-2-8 2-4 3 3 2 8-1 4-3zM259 61c5-3-16-1-14 2-2 7 16 3 12 0-2 0-1-1 2-2zM244 57c4 0 18 3 18-1-1-6-19-2-18 1zM194 116c6 2 4 10 9 5 11 0 6-6 13-9 2-8 29-7 13-15-6-4-9 0-12-2-8-1-14-4-23-1-3 0 0 3 2 5 1 5-16 17-2 17zM232 77c-8 2 10 3 0 3-4 0-6 4-3 3h5c-15 1-2 7 4 4 2-2 4-4 3-1-2 3 22-2 2 4-13 6 14 4 16-1l16-1c6-3 3-14-3-7-5 0-6-9-9-9-12 4 1 5-4 8-2 0 4 2 3 3-7 4-12-8-20-7-6-1-4-4-10 1zM283 68c2-2-6-8-6-5-1 3 5 7 6 5zM218 83c3 1 7-3 7-4 0-2-9 4-7 4zM202 78c1 0 0 3 1 2 3-1 5 1 7-3 4 8 3 2 7 1 4 2 1-6 5-7 2 0 1 3 2 4 2 4 5-2 7-2 1-3-1-5 3-6-8-7-4 3-12-1-4-1-11 8-15 8-3 0-7 3-5 4zM243 62c0-2-7-2-6-1 1 2 5 4 6 1zM320 42c2 7 13 3 17 5 1 2-9 2-8 4 6 3 10 9 17 7h6c3 1 3-6 5-5s1-2 4-4l8-2c1-4-12 0-9-5 2-2-4-3-2-4 2-2-4-4-3-1-1 2-11-7-18-10-5-5-11-2-8-1s3 2 1 2c-3 0-8 0-3 2 7 3-16 1-3 7 8 4-12 0-4 5zM317 61c9 2 13-8 4-6-10-7-13 0-4 6zM333 62c0-1-15 1-13 3 4 3 14-1 13-3zM303 40c2 1 5 4 6 2 1-3-8-4-6-2z"/><path class="cls-2" d="M309 73c-1 4-17-8-7 4 5 5-13-8-7 1 4 9-17-18-10-1 6 12 21-1 17 11 15 7 16-14 7-15zM282 51c2-1 7 1 6 3s-8 0-7 1c0 1 1 3 6 2 8-5 14 8 20 3 2-3-3-3-2-5s-3-3-5-3c-6-6-7 0-8-4-1-5-23-1-10 3zM388 100c1 3 4 11 10 8 23 0-2-11-10-8zM393 194c2 0 4-5 1-5-4 1-3 6-1 5zM501 262c1-7-10 6-9 8 0 2 0 5-2 5-2-1-4 1-3 2 2 1-4 4-1 6 5 2 21-6 16 3 11-6 3 5 12 0 2-7-6-2-2-6 2-3-7 0-2-6 0-4-6 4-9-4 1-1-3-2-4 0l4-8zM156 245c-3 2 5 11 7 10-1-2-2-13-7-10zM413 152c4-2 0-9-5-8-9 3-2 13 5 8zM462 270c1 2 12 6 12 4 1-2-12-5-12-4zM344 22c9-3-4 3 4 2 3 1-7 2 3 6 2 6 15-3 12 3 7 3 26 1 32-5 10 9-31 3-9 13 1 5-17-9-22-5-10 4 15 16 17 18-20-8-34 10-12 3 4-3 1 1-1 3-3 2 5 3 5 6s-6 1-6-1c1-6-18-4-8 1 9 3-14 3-10 7 3 3 13 0 15 2 6 4 17-6 23 1 5 4 25-8 9-6 2-3-21-1-9-4 4 1 17 1 13-5 3-1 17-1 17-10-3-5-26-2-2-5 7 0 4-3 5-4 5-1 10 2 13-4l29-14c0-2-12 0-14 0-2-1 8-3 11-3-1 3 27-9 15-8-4 0-8-1-7-3-5-2-7-3-15 0-6 2-1-2 1-3-3 1-29-5-31 0 0 3-9-2-14 0-3 3-15-1-15 1 2 3-8-1-5 3 1 2-8 0-8 2 1 6-14-4-13 0 3 2-6 1-4 3 1 6-6-2-10 1-2 2-2 4-3 3-1-4-19 5-6 2z"/><path class="cls-2" d="M427 123c8-1 1-8-3-3-1 2-5-3-5-4-6-2-7-8-15-7-5-2-5 9-8 2-15 5-2 0-10-10-4-5-26 4-17 10-5 6 0 3 3 8 0 2-7-1-8-3 0-6-4-7 1-12 13-7-4-7-13 0-8 12-6 18 6 17 7 4-9 0-8 3 2 5 32 11 37 7 0-2 16 4 9-2-1 0-1-3 1-2l14 10c1 2-6 3-4 4s5-2 7-2c4 5 15 7 11 17 3 2 11-4 14 2-6 11-7-4-18-1-6 3-2 6-1 8 0 6-24-2-19 9 2 2 13 1 14 0 1-2 4-1 7-1 4 4 7 5 8 11 6 0 18 10 24 8 2-2-9-11-12-12-1-4 17 9 19 2 3-3-2-2-2-5-1-10-17-5-11-18 5 0 8 4 13 9 5 4 3-2 9-4 0-5 13-7 1-9-3 0-4-2-4-3-3-5-11-5-16-7-8-2-7-7 1-7 0-2-11-1-3-4 1-8-10 1-5-6 1-4-11 0-10-5 1-2-10 5-7 0zM390 179c0-2-6-3-6-5-1-4-13-4-14-9-6-5-6 13-10 15 1 2 3 0 5 0 2 5 7 3 10-1 2-4 13 5 15 0zM287 87c1-1-3-5-4-2s2 4 4 2zM293 132c15 2-3-6-9-9-1-5-6-12-3-17 10-9-20-10-3 0-2 0-8-4-11-2-3 4 8 13 0 13-1-2-6-14-11-11 3 4 6 4-2 5-2 1-2 0-1-2 0-4-12-5-10 1-2 1-8 0-4-1s2-3 1-5c-4-4-31 12-19 14 2 5 8-1 13 1 2 1-12 2-12 4 0 3 8 4 13 3 14-1 22 5 4 3-5 0-14 2-13 3-1 5 17 5 16 7 0 3 3 4 10 4 9 1 21-8 23-6 3 6 32 4 17-1-5 3-3-2 1-4zM306 120c4 3 3-3 8-3 6 2 7-18 3-11 1 2 0 4-1 2 0-3-4-1-5-3 0-4 11-1 2-9 2-2-8 1-5 2s0 3-3 1-10 1-8 3c3 2 9-1 5 4-3 5-5-1-8-1-7 4 10 10 12 15zM331 92c9-7-14-12-13-4 2 2 10 4 13 4zM376 190c3 2 8-3 7-5 0-2-11 3-7 5zM338 88c2 3 9 5 12 3 2-1 3-2 4-1-1 5 23 2 24 0 30 5 11-15-9-8-5 2-30 1-19-5-1-3-32-11-32-5 8 7 23 0 20 16zM69 216c-3-2-7 8-11 7-1 7 8 3 10 0-4-7 4-1 1-7zM43 419c1 2 2 2 2 1 1-1-3-2-2-1zM51 422v2c2-1 1-3 0-2zM54 425c-2 1-1 7 1 6 3-1 4-5-1-6zM36 416c1 2 2 1 2 0h-2zM6 205c-6-3-3 5 3 3 4-3-2-3-3-3zM19 240c-2-1-8 3-6 3 1-1 9-2 6-3zM2 249c3-1 4-2 3-4-1-1-4 5-3 4zM766 327c-1-3-5 0-4 1 2 1 4 1 4-1zM860 351c12-2 1-2-4-3-7 0 0 3 4 3zM899 351c4-7 3-2-4-2-9 3 4 6 4 2zM683 175c8-5 9-6 2-12 0-4-5-2-8-4-1 3 0 2-3 3h-4c-1 1-6-3-6 1 1 3-4-5-4 1v2c-9 3 1-5-11-7-2 0-1 2 1 3 1 2-4-3-5 1-8 8 12-1 7 6 2 2-9 0-8 3 6 0 4-2 8 1 6 4-3 3-2 5 20 3 12 6 33-3zM709 260c7-2 18-5 13-15 1-3 7-4 1-8-2 0-10 0-11 2 3 3 3 2-1 4-4 1-6-3-4 3-2 2 0 2 2 3 2 4-10 9 0 11zm9-18a3 3 0 000 1 3 3 0 010-1zm0 2zm-2-4c2-1 0 1-1 2a5 5 0 011-2zM745 206l1-5c-2 0-2 5-1 5z"/><path class="cls-2" d="M721 222c-1 4 7 1 2 6 3 4 2 2-2 5 0 2 3 0 4-1 1 0-1 3 1 3 3-1 2-4 3-4 1 2 0 6-1 8 0 3 10-4 7 1-2 2 3 2 2 4 0 4-1 6-5 4-1-1-2 3-2 4l2 2c1 1-10 4-2 5 2-1 4 2 7 1 2-1 2 0 0 1-4 0-10 4-10 8 1 0 5-4 6-1 2-4 6-2 9-4 2 2 19-2 13-3-4-2 4-5 4-7-4-8-6 3-8-8 0-1-2-5-4-5-3-3-3-11-10-9-1-1 6-8 5-11 0-2-12 2-9-2 2-1 4-4 4-6-2 1-3 4-7 2-3 0-3 5-5 7 0 4-2-2-4 0zM719 220c2 0 4-3 3-4s-4 4-3 4zM807 232c-2 2-2-1-3 0-2 0-5 3-1 5 1 1 0 2-1 2 0 6 6-4 5-7zM834 220c-3 0-4 5-3 6 0 0 5-6 3-6zM851 212c1-1-4 0-3 1a2 2 0 003-1zM847 218c2 0 4-2 5-3 1-3-8 2-5 3zM801 55c7 7-1-4-3-4-2 1 1 4 3 4zM805 47c-1 3-6 6 2 9 5 4 7-2 11-5 3 0-3 7 4 3 7 0-8 5-11 6-3 4 24-1 9 2-3 0-4 1-4 2s-4-1-4 1c0 4 13 3 7 6 0 0 6 4 6 1-1-5 8-8 7-12 0-2 3 0 2-2-3-4 13-7 8-4s7 5 1 9c-3 5 8-2 7 3 2 2 8-4 9-5 0-3-8 1-6-2 3-3-7-1-5-3 2 0-1-2-2-2l-1-3c-2-1-3-3-5-2s-3-3-6-2c-2-2-2-5-6-2 3-7-3-2-6-6-4 3 2 6 2 11-3 1-6-11-8-8-2 1-2 6-3 4l-4-3c0 1 9-3 1-2-3 1-7 0-10 2-3 1 0 7 5 4z"/><path class="cls-2" d="M832 39c-3 6 15 1 16 2s-10 2-10 3c5 3 10 1 16 4 7-2 13-4 17-9-1-3-7-1-9-2-4-3-7 1-9 1 0-1 0-4-2-3-3 1-1 4-1 4l-4-2c0-1-3 2-3 0-2-2-7-5-5-1-2 1-4-3-3 2-3-4-8-2-3 1zM1591 182c-14 1 6 6 9 3 0-1-8-4-9-3zM1371 309c-5 6-2 3-2 9l2-1 2-1c0-1-3-2-2-3 2-3 13 5 13 0 0-2 3-3 6-3s4-1 3-2 5-5 4-6c-12 8-21-12-21-3 1 3 0 11-5 10zM1324 360c-4 2-1 7 1 2 3-1-2 11 2 10l5-7c2-3-5-8-8-5zM1338 363c0-2 2-3 4-2 4 0 3-9-2-4-7 0-7 10-2 6z"/><path class="cls-2" d="M1348 349c-5-2-15 3-19 6-4 7 10-2 16-1 4 0 1 2 2 4 0 4 9-2 7-3-2-4 5 3 7-1 3-2 2 2 5-3 1 2 3 1 5 0 3-7-1-15 6-19 1-3-1-18-8-10-3 4 1 7-3 12 0 3-9 12-10 6-2-2-5 13-8 9zM1236 432c8-9-10-8-8 0 2 4 8 1 8 0zM1282 416c1-1 7-13 6-14-5-5-12 13-6 14zM1272 473c-9 9-4 8 3 0 4-5 0-8-3 0zM1280 457c1 2 2 6 5 5s-5-6-5-5zM1278 444c-2 5 3 5 2 9 1 4 14 0 14 7-2 6 5 2 3 6 4 11 2 5 6 2 3-5-8-9-9-13-3-4-8 2-9-6-1-1 2-4 3-6 2-6 0-11-7-9-3 2 2 13-3 10z"/><path class="cls-2" d="M1288 464c-4 2 0 9 2 5 0-2 2 2 1 3-4 14 14-4-3-8z"/><path class="cls-2" d="M1303 475c1 2-2 1-2 3-3 2-3 4-7 1-7 3-12 11 1 4 1 5 11 18 8 5 10 0 2-20 0-13z"/><path class="cls-2" d="M1299 473c-1-1-4 1-3 2 0 2 4 0 3-2zM1420 541c0 4-14 2-15 3 8 13 25-11 15-3z"/><path class="cls-2" d="M1423 536c3 7 6 3 2 0-2-2-4-3-2 0zM1401 549c8 0-20-16-25-17-16-6-18-8-30 2-6-6-4-22-19-10 0 3 5 0 5 4 0 2 13 0 7 2-8 1-7-1-4 5 0 3 3 2 3 0l21 8c1 3 6 9 2 10-10 4 2 4 6 3 15 15 14-9 27 1 2 6 25 15 19 7-2 0-17-14-12-15zM1106 474c-2 4-3 13 1 17 10 2 5-16-1-17zM967 573c-1-3-3 3-3 4-1 3-6 2-5 6-6 9-22 4-16 22 1 3 2 5-1 9-7 10 2 28 14 19a206 206 0 0013-44c6 4-1-15-2-16zM986 461c1 2 4 0 4-1s-6-1-4 1zM1055 760c-4 0-4 7 3 5 7 1 1-5-3-5zM1461 557c-1 2 3 6 3 6 1 0-2-7-3-6zM1464 566c0 1 3 3 4 2 2-1-4-3-4-2zM1456 562c1 2 4 3 5 2s-5-4-5-2zM1434 544c0 1 4 7 5 6 3-1-5-7-5-6zM1442 549l4 4c1-1-4-4-4-4zM1457 557l-6-3c0 1 5 4 6 3zM1324 573l5-2c0-1-7 0-5 2zM1396 717c-3 1-7-2-8-2 1 3 4 21 11 14 2-1-1-3 3-1 2-6 5-16-6-11z"/><path class="cls-2" d="M1428 649c0-3-3-4-1-10 0-3 0-3-1-1-4 1-3-8-7-7-1 0 0-3-2-2-3-1 0-10-6-6-2-6-5-14-14-16-4-4-3-25-12-22-2-4-3-14-6-18-9 4 1 41-15 30-2-3-6-1-9-5-4-1-4-3-7-5s4-3 1-6c0-2 4-2 4-5 3-2-3-3-3-1-2-4-1 0-5-1-25-10 0 1-18 0-1 1-9 10-6 13 3 5-5-4-5 0 0 5-6-13-11-2h-4c-1 3-5 3-3 8-9-1 0 3-4 5-3 0-1-7-6-1 0 6-1 6-6 12l-17 5c-3-4-15 12-13 5-3 0-2 6-2 8-5 4 2 10 1 14l-2-3c2 6 0 2-2 1 4 10 13 24 11 35 1 5-7 3-1 7 11 11 17-6 31-2 9 0 7-5 14-7 3-2 13-1 16-4 4-2 26 1 23 6 9 6 1 16 13 4 6-13 4 5-1 6 5 6 4-6 7-2 2 3-1 4-1 5 10-2 4 14 14 14a20 20 0 019 3c3 4 8-8 8-2-2 1 0 3 1 1s0-2 1-1l4 4c2-4 12-8 16-7 1-17 18-32 16-50z"/><path class="cls-2" d="M1351 690c1 1 5 0 6-1 0-2-7 0-6 1zM1491 751c1 0 3 0 2-2s-3 1-2 2zM1536 700c-2 1-8 0-7-3 0-3-4-5-2-1-6 0-3-12-11-12-2 6 11 9 6 18-3 6-5 5 3 10 2 3-6 9 3 8 3-3 5-9 6-12 4 0 10-13 2-8zM1520 716c-8 3-6-5-10 4-4 11-23 13-23 24 9 7 18 3 21-8-1-4 9-2 6-6 2-4 8-9 6-14zM1542 597c1 0 4-1 4-3s-6 2-4 3zM1536 602c1 2 5 2 5-1s-7 0-5 1zM1357 88c5 5 9 2 15 3 4-3 11 2 7-6 0-2 3-1 2 0-1 5 9 6 9 1 6-5-17-10-17-4 0 3-5-4-8-5-3 0-12 9-8 11zM1102 108c2 1 3 1 3-1s-5 0-3 1zM1008 31c2-1-16-5-11-2-14 5 10 6 11 2zM993 100c3 0-1 1-1 3s-4 0-4 2c0 1-1 2-3 2-3 0 1 1 1 3 1 1-2 0-2 3 0 2-5 0-6 2 0 3 3 3 5 3s-1 2 0 3c2 2 3 1 2-1s6 1 4 3c-2 1 3 3 5 3 28 3-9-7 8-21 11-15 20-19 44-26 28-10 0-9-10-3-10 2-22 1-30 9 0 1-2 2-4 1-1-1-2 1-1 3 2 2-3 2-2 3 1 3-12 6-6 8zM1385 105c4-4-14-8-13-2 1 2 10 3 13 2zM1188 61c5 0 24-2 27-7-1-2-10-7-12-2-1 1-2 0 0-3 3-6-6-2-7-1-1 5-4 3-5 6 0 3-5 5-3 7zM1063 106l7-1c1-4-11-3-7 1zM1167 42c-8 6 11 9 18 10 8-2-1-2 5-8 2-3-7-5-7-3s-2 0-3-2c-1-1-13 1-13 3zM989 37c0-2-7 0-5 1 1 0 5 1 5-1zM958 34c10-2 9-4 0-2-9 0-8 5 0 2zM1151 29c1 1 6 2 6 0 1-2-8-2-6 0z"/><path class="cls-2" d="M971 33c1 1-11 2-11 4 4 3 9 0 11-1l6-3c9-1-10-6-6 0zM1374 96c0-2-7 1-4 2 2 1 4 0 4-2zM965 140c4 4 7-1 8-1 3-3-13-5-8 1zM1005 28c3-2 9-1 9-3-5-2-22 3-9 3zM1038 32c9-2 1-6-2-2-9 0-4 4 2 2zM1029 33c-2-6-13-3-13 1 3 3 12 0 13-1zM1006 35c-14 4-2 7 4 3 11-2-2-4-4-3zM1161 38c5 2-8 1-5 3l4 3c7-1 9-7 18-7 2-1-2-3 1-4 5-1-6-2-5-6 1-1-16 4-12 5 4 3-8 3-1 6zM1379 263c2 5-5 37 1 27 3-1 3 2 4 3 3-3-4-5-4-9 1-18 8-4 8-9-3-7-3-26-8-31-2 5-5 12-1 19z"/><path class="cls-2" d="M789 496c5 5 8 2 6 12 2 2-4 3-1 4 1 2-2 3 1 5-13 8 13 20 11 29 11 21 0 30-3 51 11 13 11 54 21 53-5 3 9 17 5 21-2 1 2 8 4 9 4 4 9 0 14-2 5-1 11 2 14-1 12-3 30-23 32-35-2-11 4-5 11-12 3-7-4-17-2-22 6-8 23-13 26-23-3-5 3-25-6-17 9-3-1-7 0-15-9-27 34-40 48-71 3-4 9-21 3-19-1 2-7 3-10 3-14 2-17 7-25-1 4-4 4-7-2-4 9-2-9-12-11-15-5-8-13-19-13-29-6-7-10-19-15-28 0-2-7-12-5-14 4 4 6 22 10 6 2 8 10 17 15 25 3 4 5 4 5 10 1 7 10 13 13 20 7 12-1 30 20 20 18-9 33-6 26-26-4 5 10 17 14 6 7-1 5-3 10-6 0-2 0-6 2-6 11-6 8-15-4-18-2-1-2-6-4-4 2-1 0-7 0-7-8 15-26 8-17 16-1 0-5-6-5-9 3-6-3-7-3-1-1-1-4-4-3-5 2-3-6-7-6-10-2-4-2-10-6-10 11 7-4-14 3-3 0 4 5 3 9 3 4 7 12 17 22 18 5-3 10-3 11 4 13 4 26 3 39 2 4-2 5 4 6 6a34 34 0 019 6c10 0 2 2-1 3 19 26 11-26 19 25 5 10 13 57 25 34 6-8 3-20 7-28 15-9 28-31 39-29l3-2c5-9 4 9 8 5-3 5 13 13 7 22-1 2 0 2 1 2 6 4 8-9 11-3 2 8 6 19 6 27-4 11 1 17 10 22-8-6-1 11 2 14 2 5 20 14 10 2-1-5 0-12-6-16-5-4-9-5-10-13-3-2-4-4-2-9 4-8-1-15 9-8 8 2 4 9 9 8-1 5 3 0 4 3 3-3 4-2 8-2-3 0-10 1-6 4 0 0-2 7 1 5 3-3 6-3 6-7 5-1 12-2 13-9 5-19-27-25-11-40l7-4c1-3 2 3 5 0 3 0-1 4 2 6 1 1 1 0 1-2-1-2 16-7 15-9 7 1 16-2 20-8 3-2 9-7 7-11 1-1 5-2 5-5 6-4 2-8 6-11h-1c0 1-2-2-3-1-5 0 2-3 3-4l-7-5c-1-2 7 2 7 1-2-4-6-8-7-13-9-4 0-10 5-12 13-2-4-10-8-3-2 1-3-1-3-3 0-3-11-1-4-7 5 1 6-4 10-6 6-7 12-2 5 3 0 3-3 7 2 4 6-6 22-7 13 2-1 2 1 2 1 3 1 4 3-1 6 0 0 1 5 5 2 5-2 0-2 2 0 5 0 3-3 5-1 8 2 2 10-6 13-5 1 1 2-1 1-2 2-8-14-19-8-21 5-3 9-5 9-11 4-4 10-10 15-5 16-8 32-28 34-46-1-3 3-6 3-9v-5c-1-2-8-9-12-7 1 1-6 7-5 4v-3c2-7-6 8-4-3-19 1 15-16 18-23 5-8 17-10 25-7 6 1 13-4 18-3 1 1 2 2 4 1 1-1 6 3 2 3-6 3 9 0 11 0 1-2 9-1 3-3-5-4 11-11 12-15 2 1 9-3 10 0 1 0 2-2 3-1s-6 6 0 6c-4 7 10-6 12-4 2 0 1-2 1-5-1-4 12-2 7-1-7 1 2 9-12 14-5 5-16 17-23 17-1 0 1 3-2 6-8 10-1 27 1 38 7-2 7-15 14-14-1-6 4-9 9-9 2-5-3-10 6-10 2-2-1-3-2-3-4-2 7-10-2-8-5-3 6-10 7-14 8-1 3 3 10-4 2 11 8-8 19 4 6-6 12-10 21-13 6-1 9-7 11-5 14 6 9-7 3-12-3 2-2-5-4-3-1 1-3 0-4-1 5-6 11 8 19-5 3-3-6-4 4-6 0 2-1 8 6 5 7-1 10 9 16 9 3 1 8 0 4-2h2v-2c2-1-3-7 1-5h4c-2-2 3 1 3 0 6-6 2-3-3-9l-7-1s-6-4-7-1l2 2c-1 2 0 4-4 1 1-9-10-11-17-15-14-10-32-10-48-12-1 3-4 2 1 6 4 5-6 6-8 2-2 0-7-6-2-4 10-1-4-7-7 1-7 2-25-8-26 3l-1-4c1-2-7-1-6-2 4-15-25-9-33-9-3 0-1-1-2-2s-5-3-5-2c-1 1-4-3-7-2-6-2 6-1 3-3-7-3-14-6-17 2-3 2-5 0-5-1 4-3 4-2-2-4 1-2 14 1 3-2-3 0-21-6-20-1 2 3-10 0-8 4 1 2 3 0 4 0 1 1-3 2-2 3 5 5-2 2-6 2-6 1 5 2-1 3-7-6-16 2-22-4-9-2-2 21-22-4h2c2 3 6-1 3-2-2 0-2-2-1-2l-1-3v-2c-3-1-7-4-9-2h-2c1-1-9-3-9-4-4 5-5-1-4 7-1 2-1 1-3 1h-5c-6 1-6-3-8-1s-10-1-5-3c-3-2-23-5-24 2-2-12-1 0-12-7-14 3 5 3-8 5-3 3-12 2-14 5-2 1-1-2 1-4l32-16c3-2 3-3 0-5h3c1-1 0-3-2-2v-3h-3c0-5-1-3-5-4-9-4-15 1-23 1 8-7-3-4-9-6 22-7-21-8-15 5-1 2-10 0-10 2l3 2c-1 1-6-2-7 0-2 2-4 1-6 1l1-2c-2-2-4 2-7 0-2 3-11 1-4 4-6 1-16 2-21 6-1 2-7-2-6 1 3 1-4 1-2 2 6 3-9 1 0 3 4 1 1 2-2 2 0 1 3 0 4 2 1 1-1 5-2 3-4-2-6 1-13 1-9 0-15-1-13 8 1 3 12 3 9 8-5 1-16-6-21-7-7 2-1 2-1 3-1 1 0 1 2 2s-1 2-3 0c-12-1 1 7 5 8 3 3-12-3-13-2-3-3 4-10-2-13-3 0 1 4-2 7-9 4-7 5-2 12-3 6-5 16 6 11 6 0 14 4 8 10 0 2 5 3 5 3-1 2-7 0-7-3 4-6-5-10-10-6 1 12-4 11-10 18-1 2-11 0-13-1a2 2 0 01-2-1c2-3 2 2 5 0 1 0 2 2 4 0l2-1c0-1 3-2 3-4 7-6 2-3 5-8-8-10 2-19-6-24 0-4 9-14-2-13-3 1-10-3-11 2 1 6-17 15-8 15l-1 6c-6 5 6 3 6 9 4 1 2 4 0 6-5-5-12-8-19-10-3-3-13-3-16-3-2-3-15-8-8-1 2 2 7 1 7 4-1 2 5 5 0 6-5-1 0 4-5 2-1-6-4-5-10-1-2-1-10 0-11 3-1 0-10 0-5-2 1 1 2 0 1-1 2-5-1-3-5-1-1 2-1 4-3 1-3-1-12 4-14 6-9 1-3 9-14 7-7-4-4-8 4-7 0-8-21-8-14-5 3 2 2 5 0 8-2 2 7 1 2 9-3 1-4-3-8-2-6 3-16 5-9 13-4 4-21-10-16 1 1 3 7 0 5 4-5 4-7-2-11-3-4 1-4-6-4-8 3-6-8-7-10-11-6-5 21 8 27 6 17-1 16-13 2-17-2 0-15-9-17-8-3-1-11 1-12-2 3 0 5 0 1-2s-3 3-6 1c-1 0-2 2-1-1-2-2-4 3-5 0 0-1-6-3-1-2 3 0 9-2 4-4-1-2-5 0-6-2-2-3-4 5-4 2-1-2 3-3-1-5-3 0-4 2-3 3-7 11 3-10-10 5-3-1 8-7 3-8l-2 2c-6-2-3 4-5 2-1-2-5 3-4 3a2 2 0 01-1 3c0-1-3-4 0-5 3 0 2-5 0-2-12 3 5 5-8 5l3 2c-1 0-4 0-5-2 0-1-3 1-1 1 3 1 0 7 0 2h-3v-3c-1-1-2 0-3 1-4 0 1 3-2 3-2-1-1 4-3 1-1-2-5 2-5 4 0 1 4-2 3 1v1c-3-2-2 4-5-1-3 2-2 2-1-2-4 2-7 8-13 10l5-2c4-3 4 0 7-2h3c1 1-2 1-1 2s-1 2-1 1c-1-3-5 2-6 4-2 2-2 5-5 7-2 4 0 5-4 4-1 6 0 8-7 9 6 7 0 0-5 8-2 0-2 2-3 3 1 0-6-4-3 1 1 2-11 2-4 5h-4c-1 0-1 2-2 1-1 0-3 2-2 3h-2c-2-1-2 4 0 4-2 2 1 2-1 4v2c0 2-2 3 2 3l3-1c2-1 2 1 1 1s-3 1-2 2c-2 3-3-4-4 1-2 8 7-3 4 5-5 2 4 6 8 6 5-1 7-7 11-7 2-11 10 19 12 21 0 2-1 5 3 3 3-1 2-7 7-4 3 2 2-5 4-2 1 1 5-8 1-4v-3c2-3-1-7 3-9 16-12-2-8-1-18 1-11 12-15 19-21-3-8 7-14 15-9 2 0 3 5 1 5-3-1-4 7-7 6-4 1-4 6-8 6-5 5 1 12-2 19 12 7 30 2 38-8 4-3-13 10-7 8 5 5 11 2 1 5-3 1-2 3-3 4 0-3-19-3-20 2 1 2 1 5 4 4 1 0 2 1 1 2h4c-8-3-2 8-9 7-5-9-11-3-10 5 2 2-2 5 0 6s-2 2-1 3c0 4-4-3-5 0 0 2-1 3-3 3-4-7-14 1-20 3-1-1-1-2-3-2 0-3 3-3-3-1-2-1-8 7-8 1 1-2 0-2-1-1-4 1-4-3-6-5 1-2 5 3 6 0s-2-2-4-3c0-2 3-3 4-4-4-4-1-5-1-9-3-2-4 4-6 3v2c-2-1-4-2-5 2-2 6 8 15 3 19-11-2-4 1-9 6 8-5-7-8-6-1h-2c-4 0-5 11-12 10-4 1-1 9-7 7-4 3-5 6-9 2 0-2-4 0-2 1 6 11-13-1-13 6-1 5 7 5 10 6 2 1 1 5 5 6 2 1 0 2 1 4-1 7 0 16-11 12-6 2-27-5-24 4 1 1-1 6 2 4 1-1 4 2 8 1-4 1-7-2-8-1-3 3 0 10-4 15-2 3 5 6 2 11 0 2 9 1 6-1 9 5 4 8 12 5 12-3 15-2 22-12-3-9 6-13 12-16 5-2-1-9 6-10 6 1 12 5 16-3-1 3 2 0 5-2l6 3c3 14 27 14 25 28-2 5 2 4 2 0 2-3 4-3 1-6-1-6 8 2 7-2-4-7-16-7-19-16-3-5-10-9-4-14 0-1 4 0 5 3 4-1 4 6 7 8l15 9c3 2-3 10 4 13 6 11 4 2 10 7-15-3 7 17 1 5 1-1 3 1 3-1 2-1-6-2 0-2 7 0 3-5-2-4 1-4 2-3-2-8-1-4 4 1 6 0-1-2 1-6 3-3 3-3 7 0 9 1a19 19 0 0110-3c0-1-4-5-6-5 4 0-2-3 0-5 4-3 5-6-1-7 11 3 1 4 10-6 2-4 6-10 11-9 0 6 5 2 8 4 0 2-6 3-6 4 2 1 6 1 5 5 2-1 22-5 9-5-12-4 12-11 16-10l-6 3c-1 1 2 2 2 3-3 1-2 5-5 5-5 4 26 12 19 21-6 10-33-10-45 1-2 2-9 0-10 1 0 5-8 3-11 4-5 4 1 3 1 5 1 2-2 4 0 6 2 3-2 2 2 5 3 3 7 1 8 5 5 4 5-3 9-2 6 3 10 5 15 0 6 3 8-5 6 5 4-1 4-7 3-3-1 1 0 2-3 3v6c0 2-6 7-2 8l5 4-4-3c-3-8-9 12-4 16 0 2-3-10-3-7-3-1-8 0-11-2-6-2-9 4-14 2-10-3-19-4-28-9-9 0-9 5-9 11-9 5-21-12-30-10-5 1-7-5-9-5-4 1-5-3 0-5 5-3-4-7 1-10 2-4-3 1-3-2-2-3-10 0-9 4 1-9-22 0-31-2-8 2-12 10-21 7-2 0-5 1-7-1-7-8-7 13-16 11-9 5-2 17-11 22-14 8-19 17-26 33v6l2 10c3 9-11 27 6 24-19-1 3 14 7 22 8 13 23 24 39 17 10 1 16 2 25-4 9-5 19-2 23 7m-16-234v-1 1zm21 39l2 1-2-1zm32-7h1a2 2 0 00-1 0zm3 0v-1 1zm53-82a23 23 0 012-3l-2 3zm-26 23a3 3 0 003 1l-3-1zm0-6a10 10 0 01-1 0 10 10 0 001 0zm68 37a3 3 0 011-1 3 3 0 00-1 1zM676 458zm7-2a3 3 0 01-1 1l1-1zm12 17v-1 1zm18-82a3 3 0 01-1 0 4 4 0 001 0zm4 105a14 14 0 010-2 14 14 0 000 2zm91 100h-2 2zm128-135zM812 597a6 6 0 002 0 6 6 0 01-2 0zm70-43c-2-1-8-17-5-22 0 5 12 29 5 22zm22 27c-8 4-2-22-9-20 4-2 8 4 7 11-2 4 7 16 2 9zm-6-59c-1 3-3 4-2 7-9 1-11-6-4-13 6 0 11 0 6 6m40-80zm28-154h-1 1zm27 33c-3 2-7-1-9 1-1 2-1 4 1 4s2 1 0 3c0 1 5 0 4 4-1 8 3 10-10 11-18-9-13-6-10-23-6-5-8-12-11-19-4-10 31-25 28-7 0 3-11 0-10 3 4 6-6 0-3 4 4 0 2 6 5 7 1 1 7 1 5 4-1 2 1 6 1 5 1-7 5-2 6 1 2 0 4 2 3 2zm98-32c5 1 19-2 7 2-7-2-18 0-18 7-6-5 4-12 11-9zm-68 2l-6-2c-1-1 7 1 6 2zm-5 12c-9 6-2-7-6-8l-1 7c-3-1-1-13 3-8 1 1 1-2 2-2 1 2 6 7 2 11zm147 104v0zm16 42a3 3 0 001 1 3 3 0 01-1-1zm1-3v0zm15 45a11 11 0 01-1 1 10 10 0 001-1zm31-241c-9 4-13 13-21 10 8-2 21-18 26-26 1 1-1 13-5 16zm88 66h-1 1zm-1 2h0zM1544 125c5 0 10 1 15-1 6-6-21-4-15 1z"/><path class="cls-2" d="M1245 94c-8 3 4 4 5 1 0-2-5-2-5-1zM1397 88c3 2 20 6 21 1-1-3-8-1-12-3-3 2-10-5-9 2zM1489 622c1-1-13-11-13-9s11 10 13 9zM401 401c-3-3 0 7 2 6a41 41 0 01-2-6zM474 472c1 1 6-1 3-3-3-1-3 1-3 3zM1253 557c13 2 0-4-7-4-3-1 13-5-1-3-11 2-22-8-29-4-4 3-2 4 1 4 1 2 8 4 11 3 5-1 18 7 25 4z"/><path class="cls-2" d="M1216 538c-2-5 4-5 2-8-3-5-8-6-2 0-4 0-7-5-10-7-4-1 2-4-3-7-2-3-7-7-11-7-5-3-9-14-17-14-15-7 2 10 6 13 3 6 33 54 35 30zM1176 512c0 1 2 5 3 3 2-1-2-4-3-3zM1183 523c0 1 1 4 2 3s-1-5-2-3zM1226 531c0-1-4 0-3 2 1 1 3 0 3-2zM1314 533c2 2 10 1 12 3 4-4-13-7-12-3zM1276 521c-9 23 1 3 1 24 6-3 0-8 2-13 3-3 3 4 5 6 0 4 9 0 5-3 0-4-5-7-3-8 12-4 4-9-2-3-1 3-6 0-6-4 4-9 20 1 23-8-11 6-21-6-25 9zM1315 512c-4-9-5 9-1 8 2 0-1-3 2-3 4 0 1-5-1-5zM1228 515c2 6 4 7 6 11 0 8 6 4 8 8 9-3 11 5 18 1 4-7 4-19 13-21 1-2-5-4-5-7-3-3-1-4-1-7 5-3 2-3 8-5 0-5-6-1-7-4-1-5-7-4-8 1-5 10-10 0-12 11-2 4-11 0-10 8-3 1-12-5-10 4zm27-5a4 4 0 010-1v1zm0-1l1-3-1 3zm4-8c0-1 1-2 3-2-2 0-3 1-3 2zm0 1c0 3-2 2-3 3 1-1 3 0 3-3zm-2-3a8 8 0 00-2 1l2-1zm-3 1zm-1 0a11 11 0 01-1-2 11 11 0 001 2zm-2 12l4-1-4 1zm-18 0c2 1 3 3 5 2-3 2-9-7-5-2zM1305 533c1 3 4 4 6 2 1-2-6-4-6-2zM1267 556h-4c-5 0-1 6 4 4 10-1 6-6 0-4zM1277 564c1 1 5 3 5 1-2-4-15-4-5-1zM1294 565c4 0 13-8 17-9-2-2-17 4-13 5-1-1-7 2-4 4zM1293 557c11-1-17-2-16 1 2 3 13 0 16-1zM816 335c-17 0-6 3 0 8 2 0 2-2 1-4 0-3 6-5-1-4zM787 321c1 1 1 12 4 10 6-3 5-15-4-10z"/></g></g></svg>