<?xml version="1.0" encoding="utf-8"?>
<!-- Generator: Adobe Illustrator 28.3.0, SVG Export Plug-In . SVG Version: 6.00 Build 0)  -->
<svg version="1.1" id="图层_1" xmlns="http://www.w3.org/2000/svg" xmlns:xlink="http://www.w3.org/1999/xlink" x="0px" y="0px"
	 viewBox="0 0 2050.93 469.45" style="enable-background:new 0 0 2050.93 469.45;" xml:space="preserve">
<style type="text/css">
	.st0{fill-rule:evenodd;clip-rule:evenodd;fill:#0079C3;}
	.st1{fill-rule:evenodd;clip-rule:evenodd;fill:#727171;}
	.st2{fill:#727171;}
</style>
<path class="st0" d="M811.83,348.81c2.74,0,4.4-1.17,4.95-3.51l60.71-178.43c0.13-0.17,0.19-0.53,0.19-1.08
	c0-1.62-0.88-2.43-2.67-2.43h-28.5c-2.75,0-4.25,1.23-4.96,3.5l-30.35,99.29l-128.01-99.29c-3.81-2.94-7.66-3.5-10.53-3.5h-31.81
	c-2.47,0-4.15,1.16-4.95,3.5L575.18,345.3c-0.14,0.19-0.19,0.54-0.19,1.09c0,1.64,0.96,2.43,2.9,2.43h28.48
	c2.48,0,4.14-1.15,4.96-3.51l31.92-93.08l123.16,92.56c4.66,3.49,9.22,4.03,12.37,4.03H811.83z"/>
<path class="st0" d="M565.29,348.81c2.87,0,4.29-1.34,4.29-4.03c0-0.74-24.5-60.77-73.5-180.05c-0.59-0.91-1.36-1.36-2.3-1.36
	h-18.93c-1.07,0-2.08,0.45-3.04,1.36l-180.17,178.4c-1.3,1.46-1.97,2.63-1.97,3.54c0,1.42,0.94,2.14,2.85,2.14h137.02
	c2.27,0,3.65-1.17,4.11-3.51c4.99-16.93,7.49-25.59,7.49-25.95c0-1.62-0.79-2.44-2.32-2.44h-94.57l88.15-88.4l50.84,118.95
	c0.35,0.91,1.07,1.34,2.14,1.34H565.29z"/>
<path class="st0" d="M269.17,348.81c2.47,0,3.41-1.68,4.96-3.51l21.3-24.86c0.15-0.19,0.19-0.55,0.19-1.09
	c0-1.62-0.88-2.44-2.67-2.44h-84.04c-10.32,0-15.49-4.6-15.49-13.77c0-5.78,2.29-15.33,6.82-28.67l36.55-107.61
	c0.15-0.17,0.22-0.53,0.22-1.08c0-1.62-0.89-2.43-2.7-2.43h-78.65c-2.49,0-4.14,1.16-4.96,3.5l-32,94.37
	c-4.98,14.42-7.44,27.65-7.44,39.74c0,15.68,3.97,27.59,11.78,35.96c7.35,7.85,17.06,11.87,29.31,11.87H269.17z"/>
<path class="st1" d="M1790.31,348.81c2.43,0,4.09-1.17,4.93-3.51l8.48-24.86c0.11-0.19,0.17-0.55,0.17-1.09
	c0-1.62-0.86-2.44-2.67-2.44h-94.15c-9.36,0-14.06-5.21-14.06-15.67c0-7.04,2.64-18.39,7.87-34.06l10.11-29.46
	c4.67-14.07,9.23-23.97,13.63-29.75c6.05-8.48,13.95-12.7,23.73-12.7h94.15c2.46,0,4.13-1.1,4.98-3.25l8.48-25.16
	c0.14-0.17,0.18-0.53,0.18-1.08c0-1.62-0.91-2.43-2.69-2.43h-139.99c-20.23,0-39.48,9.38-57.83,28.1
	c-16.5,16.96-29.37,38.49-38.56,64.63c-5.26,15.68-7.84,30.09-7.84,43.25c0,15.87,3.81,28.31,11.54,37.32
	c7.14,8.11,17.07,12.15,29.71,12.15H1790.31z"/>
<path class="st1" d="M1591.94,263.94c2.61,0,4.16-1.18,4.74-3.51c5.87-16.78,8.85-25.43,8.85-25.96c0-1.8-0.86-2.72-2.64-2.72
	h-99.54c-2.32,0-3.92,1.17-4.72,3.51c-5.81,17.15-8.7,25.87-8.7,26.23c0,1.62,0.83,2.44,2.51,2.44H1591.94z"/>
<path class="st1" d="M1562.82,348.81c2.61,0,4.32-1.17,5.16-3.51l8.48-24.86c0-0.55,0.03-0.92,0.17-1.09c0-1.62-0.93-2.44-2.85-2.44
	h-93.98c-9.49,0-14.24-5.21-14.24-15.67c0-7.21,2.72-18.57,8.05-34.06l9.89-29.46c4.72-14.07,9.25-23.97,13.63-29.75
	c6.21-8.48,14.21-12.7,23.97-12.7h93.96c2.58,0,4.24-1.1,4.96-3.25l8.45-25.16c0.11-0.17,0.19-0.53,0.19-1.08
	c0-1.62-0.88-2.43-2.69-2.43h-139.75c-20.4,0-39.73,9.38-58.04,28.1c-16.64,16.96-29.44,38.49-38.39,64.63
	c-5.38,15.5-8.08,29.93-8.08,43.25c0,15.87,3.87,28.31,11.55,37.32c7.21,8.11,17.12,12.15,29.81,12.15H1562.82z"/>
<path class="st1" d="M1345.71,195.27h59.7c2.43,0,4.09-1.1,4.93-3.25c5.77-16.95,8.67-25.69,8.67-26.24c0-1.61-0.88-2.42-2.69-2.42
	H1217.1c-2.51,0-4.18,1.16-4.97,3.52c-5.79,17.11-8.66,25.77-8.66,25.94c0,1.63,0.94,2.45,2.86,2.45h57.61
	c-34.12,100.56-51.19,150.95-51.19,151.12c0,1.64,0.86,2.42,2.46,2.42H1290c2.32,0,3.87-1.17,4.7-3.49L1345.71,195.27z"/>
<path class="st1" d="M1129.19,348.81c2.32,0,3.95-1.17,4.73-3.51c40.61-118.94,60.92-178.78,60.92-179.51c0-1.62-0.8-2.43-2.48-2.43
	h-74.75c-2.32,0-3.92,1.16-4.75,3.5c-40.59,118.96-60.87,178.8-60.87,179.52c0,1.64,0.88,2.43,2.66,2.43H1129.19z"/>
<path class="st1" d="M964.79,348.81c18.99,0,35.81-2.77,50.39-8.38c22.02-8.28,33.02-21.52,33.02-39.73
	c0-13.17-6.35-27.48-19.01-42.98l-50.98-62.45h92.28c2.5,0,4.13-1.1,4.99-3.25l8.42-25.16c0.18-0.17,0.21-0.53,0.21-1.08
	c0-1.62-0.9-2.43-2.64-2.43H955.29c-7.83,0-15.68,1.08-23.52,3.24c-6.19,1.81-11.94,4.14-17.25,7.03
	c-5.31,2.89-10.3,6.31-14.96,10.27c-11.86,10.26-17.78,22.26-17.78,35.96c0,12.06,4.96,23.87,14.88,35.4l51.59,61.64h-91.64
	c-2.48,0-4.13,1.18-4.96,3.53l-8.47,24.86c0,0.54-0.06,0.92-0.21,1.09c0,1.64,0.96,2.43,2.9,2.43H964.79z"/>
<path class="st2" d="M1880.13,141.28c0-6.15,1.18-11.94,3.54-17.38c2.35-5.43,5.56-10.14,9.62-14.14c4.06-3.99,8.8-7.17,14.24-9.53
	c5.43-2.36,11.22-3.53,17.38-3.53c6.15,0,11.95,1.18,17.38,3.53c5.43,2.36,10.18,5.53,14.24,9.53c4.06,3.99,7.27,8.71,9.62,14.14
	c2.36,5.44,3.53,11.23,3.53,17.38c0,6.16-1.18,11.92-3.53,17.28c-2.35,5.37-5.56,10.05-9.62,14.04c-4.06,4-8.81,7.14-14.24,9.43
	c-5.43,2.29-11.23,3.44-17.38,3.44c-6.16,0-11.95-1.15-17.38-3.44c-5.43-2.29-10.18-5.43-14.24-9.43
	c-4.06-3.99-7.27-8.67-9.62-14.04C1881.31,153.2,1880.13,147.44,1880.13,141.28z M1887.2,141.28c0,5.11,0.98,9.95,2.95,14.53
	c1.96,4.58,4.65,8.61,8.05,12.08c3.4,3.47,7.4,6.19,11.98,8.15c4.58,1.96,9.49,2.95,14.73,2.95c5.24,0,10.15-0.98,14.73-2.95
	c4.58-1.96,8.57-4.68,11.98-8.15c3.4-3.47,6.09-7.49,8.05-12.08c1.97-4.58,2.95-9.43,2.95-14.53c0-5.23-0.98-10.14-2.95-14.73
	c-1.96-4.58-4.65-8.57-8.05-11.98c-3.4-3.4-7.4-6.09-11.98-8.05c-4.58-1.96-9.49-2.94-14.73-2.94c-5.24,0-10.15,0.98-14.73,2.94
	c-4.58,1.96-8.58,4.65-11.98,8.05c-3.4,3.41-6.09,7.4-8.05,11.98C1888.18,131.14,1887.2,136.05,1887.2,141.28z M1907.43,115.95
	h17.67c2.36,0,4.65,0.27,6.87,0.79c2.22,0.52,4.22,1.37,5.99,2.55c1.77,1.18,3.17,2.68,4.22,4.52c1.05,1.83,1.57,4.12,1.57,6.87
	c0,3.67-1.05,6.65-3.14,8.94c-2.1,2.29-4.91,3.83-8.45,4.61l13.55,21.99h-11l-11.78-21.01h-6.48v21.01h-9.03V115.95z
	 M1923.73,137.94c2.62,0,5.11-0.49,7.46-1.47c2.35-0.98,3.53-2.98,3.53-5.99c0-2.75-1.08-4.58-3.24-5.5
	c-2.16-0.91-4.42-1.37-6.77-1.37h-8.25v14.34H1923.73z"/>
</svg>
