<svg width="778" height="320" viewBox="0 0 778 320" fill="none" xmlns="http://www.w3.org/2000/svg">
<path d="M151.125 0.0010364C122.763 0.0010364 96.2108 7.91636 73.5119 21.5383C67.0396 16.276 58.9069 13.3468 50.4447 13.3446C50.4435 13.3446 50.4423 13.3446 50.4412 13.3446C30.2869 13.3453 13.762 29.8724 13.7627 50.0267C13.7627 50.0302 13.7627 50.0337 13.7627 50.0372C13.7726 58.452 16.6894 66.5207 21.866 72.9644C8.0412 95.7837 0.000671258 122.536 0.000671258 151.126C-0.0136871 152.286 0.202431 153.437 0.636494 154.513C1.07056 155.589 1.71393 156.569 2.5293 157.394C3.34467 158.22 4.31582 158.875 5.38642 159.323C6.45703 159.77 7.6058 160 8.76611 160C9.92642 160 11.0752 159.77 12.1458 159.323C13.2164 158.875 14.1875 158.22 15.0029 157.394C15.8183 156.569 16.4617 155.589 16.8957 154.513C17.3298 153.437 17.5459 152.286 17.5315 151.126C17.5315 126.423 24.2509 103.377 35.9098 83.5514C40.4761 85.5359 45.3825 86.701 50.4287 86.7087C50.4329 86.7087 50.437 86.7087 50.4411 86.7087C70.5964 86.7094 87.1238 70.1819 87.1232 50.0267C87.1232 50.0253 87.1232 50.024 87.1232 50.0226C87.1216 45.0233 85.9845 40.1599 84.0403 35.626C103.757 24.1425 126.626 17.5315 151.125 17.5315C152.286 17.5458 153.437 17.3298 154.513 16.8957C155.589 16.4616 156.568 15.8182 157.394 15.0029C158.219 14.1875 158.875 13.2164 159.322 12.1458C159.769 11.0751 160 9.92641 160 8.76611C160 7.60581 159.769 6.45701 159.322 5.38641C158.875 4.31581 158.219 3.34467 157.394 2.5293C156.568 1.71393 155.589 1.07054 154.513 0.636473C153.437 0.202404 152.286 -0.0136752 151.125 0.000670194V0.0010364ZM50.4394 30.8755C56.3523 30.8775 61.6305 33.3876 65.2756 37.9523C65.3353 38.0248 65.3962 38.0963 65.4582 38.1669C68.1297 41.5467 69.5909 45.72 69.5923 50.0302C69.5908 60.7068 61.1243 69.1744 50.4482 69.1779C46.0783 69.1699 41.8471 67.6691 38.4484 64.9232C38.4443 64.9202 38.4401 64.9172 38.436 64.9142C33.9219 61.2811 31.3002 55.8163 31.2917 50.0212C31.2942 39.3442 39.7619 30.8767 50.4394 30.8754V30.8755Z" fill="#95955C"/>
<path fill-rule="evenodd" clip-rule="evenodd" d="M66.9929 102.83C65.5009 104.388 64.6266 106.54 64.7353 108.901C64.8315 110.946 65.6485 112.921 67.0725 114.419C70.5503 117.922 75.7554 123.127 80.0139 127.379L87.2952 134.657L62.5008 159.452C58.5257 163.428 58.5257 169.873 62.5008 173.849L80.6571 192.005C80.6571 192.005 67.6961 204.979 60.4884 212.183C58.856 213.787 58.1744 215.933 58.1642 218.195C58.1416 222.912 62.0257 226.63 66.7476 226.412H66.7457C68.7904 226.316 70.7661 225.499 72.2634 224.075C76.1374 220.23 82.0904 214.273 86.536 209.819C88.2487 208.105 90.3295 206.023 92.502 203.85L112.41 223.758C112.41 223.758 112.075 224.094 111.482 224.687C109.077 227.09 106.751 229.417 105.17 231L105.173 231.001C101.005 235.172 95.8872 240.292 92.2415 243.936C90.609 245.54 89.9274 247.686 89.9172 249.948C89.8947 254.665 93.7787 258.383 98.5006 258.165H98.4987C100.543 258.069 102.519 257.252 104.016 255.828C108.704 251.176 116.435 243.432 120.857 238.999L120.859 239C121.963 237.896 123.108 236.75 124.255 235.603L142.888 254.236C146.864 258.212 153.31 258.212 157.286 254.236L182.077 229.445C182.077 229.445 195.05 242.407 202.255 249.614C203.859 251.247 206.005 251.928 208.267 251.938C212.984 251.961 216.701 248.077 216.484 243.355H216.482C216.386 241.31 215.569 239.335 214.145 237.837C209.121 232.776 200.494 224.166 196.321 220.005C195.604 219.286 194.798 218.477 193.922 217.6L219.991 191.531C219.991 191.531 232.964 204.493 240.169 211.7C241.773 213.333 243.919 214.014 246.181 214.024C250.898 214.047 254.615 210.163 254.398 205.441L254.396 205.443C254.3 203.398 253.482 201.422 252.058 199.924C248.374 196.213 242.753 190.594 238.372 186.22C236.329 184.172 234.055 181.897 231.839 179.683L256.631 154.891C260.606 150.915 260.606 144.469 256.63 140.493L238.001 121.864C238.001 121.864 250.962 108.891 258.171 101.688C259.804 100.084 260.485 97.9385 260.495 95.6762C260.518 90.9596 256.634 87.2421 251.912 87.4594C249.867 87.5556 247.891 88.3726 246.394 89.7966C241.452 94.7017 233.127 103.043 228.864 107.318C228.074 108.105 227.151 109.026 226.156 110.019L206.247 90.1114C206.247 90.1114 219.209 77.1382 226.418 69.9352C228.051 68.3312 228.732 66.1855 228.742 63.9232C228.765 59.2066 224.881 55.4891 220.159 55.7063C218.114 55.8025 216.138 56.6196 214.641 58.0436C210.205 62.4464 203.044 69.6173 198.541 74.1315C197.254 75.4127 195.845 76.8187 194.399 78.2634L176.243 60.1068C172.267 56.1318 165.822 56.1318 161.846 60.1068L137.054 84.8982C137.054 84.8982 124.081 71.9371 116.878 64.7276C115.274 63.0951 113.128 62.4136 110.866 62.4033C106.15 62.3807 102.432 66.2649 102.649 70.9868C102.746 73.0315 103.563 75.0072 104.987 76.5045C108.761 80.3065 114.568 86.111 118.993 90.5278L118.991 90.5299C118.991 90.5299 121.632 93.1683 125.209 96.7433L99.1402 122.812C99.1402 122.812 86.1671 109.851 78.9641 102.642C77.3602 101.009 75.2144 100.328 72.9521 100.317C70.5938 100.306 68.4848 101.271 66.9929 102.83ZM182.077 229.445V229.444L182.081 229.44L182.077 229.445ZM167.894 101.451C169.573 99.7449 171.861 98.7914 174.191 98.8253C175.854 98.849 177.444 99.3754 178.753 100.335L195.252 112.435C198.453 114.732 199.396 119.094 197.483 122.746C195.569 126.399 191.359 128.271 187.532 127.169L193.656 151.117C194.769 155.469 192.092 160.085 187.673 161.434L143.031 175.065L151.277 206.948C152.449 211.318 149.775 215.992 145.322 217.355C140.869 218.717 136.347 216.244 135.254 211.85L124.972 172.081C123.845 167.725 126.521 163.096 130.948 161.744L175.609 148.106L171.487 131.988C168.724 135.052 164.254 135.796 160.901 133.75C157.547 131.703 156.286 127.46 157.914 123.703L166.031 104.249C166.465 103.211 167.099 102.26 167.894 101.451Z" fill="#95955C"/>
<path d="M168.873 319.999C197.236 319.999 223.788 312.084 246.487 298.462C252.96 303.724 261.092 306.653 269.555 306.656C269.556 306.656 269.557 306.656 269.559 306.656C289.713 306.655 306.238 290.128 306.238 269.973C306.238 269.969 306.238 269.966 306.238 269.962C306.228 261.547 303.311 253.478 298.134 247.035C311.959 224.215 320 197.463 320 168.873C320.014 167.712 319.798 166.561 319.364 165.485C318.93 164.409 318.286 163.43 317.471 162.604C316.656 161.778 315.684 161.123 314.614 160.676C313.543 160.228 312.394 159.998 311.234 159.998C310.074 159.998 308.925 160.228 307.854 160.676C306.784 161.123 305.813 161.778 304.997 162.604C304.182 163.43 303.539 164.409 303.104 165.485C302.67 166.561 302.454 167.712 302.469 168.873C302.469 193.575 295.749 216.621 284.09 236.448C279.524 234.463 274.617 233.298 269.571 233.29C269.567 233.29 269.563 233.29 269.559 233.29C249.403 233.29 232.876 249.817 232.876 269.973C232.878 274.972 234.015 279.836 235.959 284.37C216.242 295.853 193.373 302.464 168.873 302.464C167.713 302.45 166.562 302.666 165.486 303.1C164.41 303.535 163.431 304.178 162.606 304.993C161.78 305.809 161.125 306.78 160.678 307.85C160.23 308.921 160 310.07 160 311.23C160 312.39 160.23 313.539 160.678 314.609C161.125 315.68 161.78 316.651 162.606 317.466C163.431 318.282 164.41 318.925 165.486 319.359C166.562 319.793 167.713 320.01 168.873 319.995V319.999ZM269.56 289.125C263.647 289.125 258.369 286.612 254.723 282.048C254.664 281.975 254.603 281.904 254.541 281.833C251.869 278.453 250.408 274.28 250.407 269.97C250.409 259.293 258.875 250.825 269.551 250.822C273.921 250.83 278.152 252.331 281.551 255.076C281.555 255.079 281.559 255.082 281.563 255.085C286.077 258.719 288.699 264.183 288.708 269.979C288.705 280.656 280.238 289.123 269.56 289.125Z" fill="#95955C"/>
<path d="M361.633 117.493V141.977H353.386V79.4355H376.452C383.296 79.4355 388.651 81.1823 392.517 84.676C396.412 88.1696 398.359 92.7943 398.359 98.5502C398.359 104.621 396.455 109.303 392.646 112.596C388.866 115.861 383.439 117.493 376.366 117.493H361.633ZM361.633 110.749H376.452C380.862 110.749 384.241 109.718 386.589 107.656C388.938 105.566 390.112 102.559 390.112 98.6361C390.112 94.9134 388.938 91.9352 386.589 89.7016C384.241 87.468 381.02 86.3082 376.925 86.2223H361.633V110.749Z" fill="#95955C"/>
<path d="M416.271 141.978H408.324V76H416.271V141.978Z" fill="#95955C"/>
<path d="M457.635 141.978C457.177 141.062 456.805 139.43 456.519 137.081C452.825 140.919 448.415 142.837 443.289 142.837C438.707 142.837 434.941 141.549 431.992 138.971C429.071 136.365 427.61 133.072 427.61 129.092C427.61 124.252 429.443 120.501 433.108 117.838C436.803 115.146 441.986 113.8 448.658 113.8H456.39V110.149C456.39 107.371 455.559 105.166 453.898 103.534C452.237 101.873 449.789 101.043 446.553 101.043C443.718 101.043 441.341 101.759 439.423 103.19C437.504 104.622 436.545 106.355 436.545 108.388H428.555C428.555 106.068 429.371 103.835 431.004 101.687C432.665 99.5107 434.898 97.7925 437.705 96.5325C440.54 95.2725 443.647 94.6426 447.026 94.6426C452.381 94.6426 456.576 95.9885 459.611 98.6803C462.647 101.343 464.222 105.023 464.336 109.72V131.111C464.336 135.378 464.88 138.771 465.969 141.291V141.978H457.635ZM444.448 135.922C446.94 135.922 449.302 135.277 451.536 133.989C453.77 132.7 455.387 131.025 456.39 128.963V119.427H450.161C440.425 119.427 435.557 122.276 435.557 127.975C435.557 130.466 436.387 132.414 438.048 133.817C439.709 135.22 441.843 135.922 444.448 135.922Z" fill="#95955C"/>
<path d="M487.66 84.248V95.5021H496.337V101.645H487.66V130.467C487.66 132.328 488.047 133.731 488.82 134.676C489.593 135.593 490.911 136.051 492.772 136.051C493.688 136.051 494.948 135.879 496.552 135.535V141.979C494.462 142.551 492.428 142.838 490.453 142.838C486.902 142.838 484.224 141.764 482.42 139.616C480.616 137.468 479.714 134.419 479.714 130.467V101.645H471.252V95.5021H479.714V84.248H487.66Z" fill="#95955C"/>
<path d="M514.207 141.979H506.261V95.5021H514.207V141.979ZM505.616 83.1743C505.616 81.8856 506.003 80.7974 506.776 79.9097C507.578 79.022 508.752 78.5781 510.298 78.5781C511.845 78.5781 513.019 79.022 513.82 79.9097C514.622 80.7974 515.023 81.8856 515.023 83.1743C515.023 84.4629 514.622 85.5367 513.82 86.3958C513.019 87.2549 511.845 87.6844 510.298 87.6844C508.752 87.6844 507.578 87.2549 506.776 86.3958C506.003 85.5367 505.616 84.4629 505.616 83.1743Z" fill="#95955C"/>
<path d="M534.395 95.5016L534.653 101.343C538.204 96.8762 542.843 94.6426 548.57 94.6426C558.392 94.6426 563.346 100.184 563.432 111.266V141.978H555.485V111.223C555.457 107.872 554.684 105.395 553.166 103.792C551.677 102.188 549.343 101.386 546.164 101.386C543.587 101.386 541.325 102.074 539.378 103.448C537.43 104.823 535.913 106.627 534.824 108.86V141.978H526.878V95.5016H534.395Z" fill="#95955C"/>
<path d="M604.196 137.382C601.104 141.019 596.565 142.838 590.58 142.838C585.626 142.838 581.846 141.406 579.24 138.542C576.663 135.65 575.36 131.383 575.331 125.742V95.502H583.278V125.527C583.278 132.572 586.141 136.094 591.868 136.094C597.939 136.094 601.977 133.832 603.982 129.307V95.502H611.928V141.979H604.368L604.196 137.382Z" fill="#95955C"/>
<path d="M631.429 95.5016L631.644 100.656C635.052 96.6471 639.648 94.6426 645.432 94.6426C651.933 94.6426 656.357 97.1339 658.705 102.117C660.251 99.883 662.256 98.0789 664.719 96.7043C667.21 95.3298 670.145 94.6426 673.524 94.6426C683.719 94.6426 688.902 100.041 689.074 110.836V141.978H681.127V111.309C681.127 107.987 680.368 105.51 678.851 103.878C677.333 102.217 674.784 101.386 671.205 101.386C668.255 101.386 665.807 102.274 663.86 104.05C661.912 105.796 660.781 108.159 660.466 111.137V141.978H652.477V111.524C652.477 104.765 649.169 101.386 642.554 101.386C637.342 101.386 633.777 103.606 631.859 108.044V141.978H623.912V95.5016H631.429Z" fill="#95955C"/>
<path d="M372.599 221.584V253.799H353.76V162.367H389.428C396.294 162.367 402.322 163.623 407.513 166.135C412.746 168.647 416.765 172.226 419.57 176.873C422.375 181.478 423.778 186.732 423.778 192.635C423.778 201.594 420.701 208.669 414.547 213.86C408.434 219.009 399.957 221.584 389.114 221.584H372.599ZM372.599 206.325H389.428C394.41 206.325 398.199 205.152 400.794 202.808C403.432 200.464 404.75 197.114 404.75 192.761C404.75 188.281 403.432 184.66 400.794 181.897C398.157 179.134 394.515 177.71 389.868 177.627H372.599V206.325Z" fill="#95955C"/>
<path d="M474.077 253.799C473.24 252.166 472.633 250.136 472.256 247.708C467.861 252.606 462.146 255.055 455.113 255.055C448.457 255.055 442.93 253.129 438.535 249.278C434.181 245.426 432.004 240.57 432.004 234.709C432.004 227.508 434.662 221.982 439.979 218.131C445.338 214.279 453.062 212.333 463.151 212.291H471.503V208.397C471.503 205.258 470.686 202.746 469.054 200.862C467.463 198.978 464.93 198.036 461.455 198.036C458.399 198.036 455.992 198.769 454.234 200.234C452.517 201.699 451.659 203.709 451.659 206.262H433.511C433.511 202.327 434.725 198.685 437.153 195.336C439.581 191.987 443.014 189.37 447.452 187.486C451.889 185.561 456.871 184.598 462.397 184.598C470.77 184.598 477.406 186.712 482.304 190.94C487.244 195.126 489.714 201.029 489.714 208.649V238.1C489.755 244.547 490.656 249.424 492.414 252.732V253.799H474.077ZM459.069 241.177C461.748 241.177 464.218 240.591 466.479 239.419C468.74 238.205 470.414 236.593 471.503 234.583V222.903H464.721C455.636 222.903 450.801 226.043 450.215 232.323L450.152 233.39C450.152 235.651 450.947 237.514 452.538 238.979C454.129 240.444 456.306 241.177 459.069 241.177Z" fill="#95955C"/>
<path d="M541.96 202.871C539.49 202.536 537.313 202.369 535.43 202.369C528.564 202.369 524.063 204.692 521.928 209.339V253.799H503.78V185.854H520.924L521.426 193.954C525.068 187.717 530.113 184.598 536.56 184.598C538.569 184.598 540.453 184.87 542.212 185.414L541.96 202.871Z" fill="#95955C"/>
<path d="M575.745 169.148V185.852H587.362V199.165H575.745V233.075C575.745 235.587 576.226 237.387 577.189 238.475C578.152 239.564 579.994 240.108 582.715 240.108C584.725 240.108 586.504 239.962 588.053 239.669V253.421C584.494 254.509 580.831 255.054 577.063 255.054C564.337 255.054 557.848 248.628 557.597 235.775V199.165H547.675V185.852H557.597V169.148H575.745Z" fill="#95955C"/>
<path d="M614.175 185.854L614.74 193.703C619.597 187.633 626.107 184.598 634.27 184.598C641.471 184.598 646.829 186.712 650.346 190.94C653.863 195.168 655.663 201.49 655.746 209.905V253.799H637.598V210.344C637.598 206.493 636.761 203.709 635.086 201.992C633.412 200.234 630.628 199.355 626.735 199.355C621.627 199.355 617.797 201.532 615.243 205.886V253.799H597.095V185.854H614.175Z" fill="#95955C"/>
<path d="M700.835 255.055C690.871 255.055 682.75 251.999 676.47 245.887C670.232 239.775 667.113 231.632 667.113 221.459V219.701C667.113 212.877 668.432 206.786 671.069 201.427C673.707 196.027 677.433 191.882 682.247 188.993C687.103 186.063 692.629 184.598 698.825 184.598C708.119 184.598 715.425 187.528 720.741 193.389C726.1 199.25 728.779 207.56 728.779 218.319V225.729H685.513C686.099 230.167 687.857 233.725 690.787 236.405C693.76 239.084 697.507 240.423 702.028 240.423C709.019 240.423 714.483 237.891 718.418 232.825L727.335 242.81C724.614 246.661 720.93 249.675 716.283 251.852C711.636 253.987 706.486 255.055 700.835 255.055ZM698.763 199.292C695.162 199.292 692.232 200.506 689.971 202.934C687.752 205.362 686.329 208.837 685.701 213.358H710.945V211.914C710.861 207.895 709.773 204.797 707.68 202.62C705.586 200.401 702.614 199.292 698.763 199.292Z" fill="#95955C"/>
<path d="M777.321 202.871C774.851 202.536 772.674 202.369 770.79 202.369C763.924 202.369 759.424 204.692 757.289 209.339V253.799H739.141V185.854H756.284L756.786 193.954C760.429 187.717 765.473 184.598 771.92 184.598C773.93 184.598 775.814 184.87 777.572 185.414L777.321 202.871Z" fill="#95955C"/>
</svg>
