<svg width="101" height="89" viewBox="0 0 101 89" fill="none" xmlns="http://www.w3.org/2000/svg">
<path fill-rule="evenodd" clip-rule="evenodd" d="M49.3104 1.35117C59.4137 4.05838 67.858 10.5378 73.0879 19.5963C75.7557 24.2171 77.4294 29.29 78.0565 34.4987C76.2541 33.4903 74.2994 32.7216 72.2355 32.2358C72.4574 31.5589 72.8549 30.9434 73.395 30.4614L74.0436 29.8831C73.249 26.87 72.0539 23.9241 70.4384 21.1259C64.3731 10.6205 53.7884 4.31588 42.5437 3.24625L38.1429 8.76639C37.9635 8.99146 37.7242 9.16129 37.4528 9.25646L27.5531 12.7271L25.3079 18.1693L27.59 21.3659C28.8414 19.3461 31.0741 18.0629 33.5124 18.0629H34.3822C35.2269 18.0629 35.912 18.7481 35.912 19.5928C35.912 20.4375 35.2269 21.1227 34.3822 21.1227H33.5124C31.87 21.1227 30.3939 22.1612 29.8391 23.707L29.8015 23.812C30.5323 23.73 31.271 23.7033 31.9393 23.6796C32.3648 23.6646 32.7671 23.6504 33.085 23.6238C33.6447 23.5762 36.4818 23.4347 37.3365 25.2425C37.4879 25.5629 37.6325 26.0759 37.4728 26.7152L37.5023 26.7349C37.9763 27.0509 38.7465 27.5642 39.3067 27.833C39.4725 27.4285 39.7557 27.1768 39.8514 27.1001C40.2134 26.81 40.7008 26.6082 41.4822 26.4251C41.7738 26.3565 42.0795 26.3754 42.3612 26.4794C42.6973 26.6035 43.207 26.7415 43.7469 26.8876L43.7481 26.8879C45.3532 27.3227 47.1723 27.8153 48.1373 28.8379C49.2111 29.9761 49.8419 31.6087 50.3984 33.0492C50.6088 33.5936 50.8078 34.1085 51.0067 34.5336C51.1161 34.7672 51.224 35.0077 51.3334 35.2514L51.3339 35.2527L51.3398 35.2658C51.6281 35.9088 51.9215 36.5631 52.2674 37.1311C51.4792 37.8124 50.7386 38.5474 50.0513 39.3302C49.4092 38.4399 48.9622 37.4428 48.5477 36.5181L48.5245 36.4664C48.4279 36.2511 48.3322 36.0379 48.2354 35.8312C47.9917 35.3102 47.7744 34.7484 47.5444 34.153L47.5438 34.1513C47.0888 32.9738 46.5732 31.6395 45.9118 30.9383C45.5392 30.5436 43.853 30.087 42.947 29.8418L42.9278 29.8365C42.671 29.7669 42.4206 29.699 42.1819 29.6308C42.0736 29.8356 41.9279 30.0055 41.7725 30.1322C41.7566 30.1468 41.7414 30.1625 41.7259 30.1784L41.7076 30.1972L41.7051 30.1997C41.4277 30.4822 40.7838 31.1379 39.6294 31.063C38.3561 30.9819 37.0006 30.0784 35.8049 29.2813C35.3821 28.9994 34.9825 28.7329 34.6955 28.5793C34.272 28.3527 33.9793 27.9404 33.9057 27.4656C33.8638 27.1957 33.8952 26.9237 33.9917 26.6758C33.7755 26.659 33.5463 26.6558 33.3399 26.6731C32.9488 26.7058 32.511 26.7214 32.0475 26.7378C30.8911 26.7788 29.3072 26.835 28.6249 27.219C28.29 27.4273 27.5188 28.5218 27.1042 29.1103L27.1036 29.1112C26.7564 29.6043 26.4281 30.07 26.1297 30.414C25.9579 30.6119 25.7861 30.8053 25.6157 30.9971L25.5934 31.0222C24.7801 31.9371 24.0777 32.7277 23.6127 33.7116C22.6521 35.745 22.8341 38.0916 24.0873 39.8354C25.2853 41.5025 27.2042 42.3134 29.3536 42.0615C29.6875 42.0223 30.064 41.9293 30.4625 41.8309L30.4701 41.829C31.7767 41.5058 33.751 41.0176 35.4441 42.6024C36.645 43.7269 36.6371 44.9347 36.6319 45.7342C36.6299 46.0305 36.6282 46.2867 36.6821 46.5084C36.7263 46.6901 37.0132 47.0059 37.2664 47.2845L37.2683 47.2867C37.6591 47.717 38.1019 48.2047 38.3803 48.8718C39.2958 51.0658 38.8016 52.5728 38.278 54.1686C38.2404 54.2828 38.2022 54.3997 38.1635 54.5194C37.8357 55.5336 38.5094 57.0177 39.161 58.4529C39.4565 59.1037 39.7624 59.7774 39.9826 60.4314C40.8762 63.0833 41.4675 63.8497 41.6308 64.0248C41.7738 64.0333 42.1937 63.9709 42.9128 63.5144C43.6865 63.0228 44.4402 62.3024 44.8443 61.8064C45.0217 61.5885 45.0732 61.3616 45.1639 60.9095C45.1974 60.7419 45.234 60.5593 45.2838 60.3662C45.6631 61.7142 46.1643 63.0111 46.7747 64.2443C45.5971 65.5078 43.5879 67.0847 41.6525 67.0848C41.1993 67.085 40.7507 66.9985 40.3173 66.8014C39.4897 66.4251 38.4584 65.4902 37.0828 61.4083C36.912 60.901 36.6514 60.3271 36.3753 59.7191L36.3747 59.7178C35.524 57.8441 34.5598 55.7201 35.2515 53.5789C35.2915 53.4547 35.3312 53.3335 35.3703 53.2147C35.8256 51.827 36.0334 51.1937 35.5561 50.0502C35.481 49.8701 35.2371 49.6018 35.0014 49.3424C34.5271 48.8204 33.9366 48.1705 33.7082 47.2304C33.5656 46.6427 33.5688 46.128 33.5717 45.7143C33.5758 45.0642 33.557 45.0279 33.3523 44.8362C32.9316 44.4424 32.516 44.4748 31.2043 44.7993C30.7286 44.9172 30.237 45.0388 29.7098 45.1006C26.4735 45.4813 23.4413 44.1805 21.6021 41.6215C19.7 38.9749 19.41 35.4433 20.8455 32.4048C21.4984 31.0235 22.4173 29.9894 23.3061 28.9895C23.4759 28.7986 23.6473 28.6058 23.8185 28.4084C24.0153 28.1818 24.3 27.7776 24.6016 27.3496C25.2897 26.3731 25.8661 25.5862 26.4579 25.0462L22.3256 19.2579C22.0195 18.8288 21.9557 18.2728 22.1566 17.7855L24.9859 10.9268C25.152 10.5238 25.4825 10.2107 25.8939 10.0666L36.0249 6.51497L38.7569 3.08789C32.7533 3.14741 26.6859 4.70297 21.1261 7.91295C19.6108 8.78766 18.185 9.7583 16.8477 10.8096C18.0824 11.579 19.0696 12.7207 19.6348 14.0921C20.5929 16.4171 20.1033 19.1073 18.3877 20.9461L16.7088 22.7451L12.5436 30.0165C12.4342 30.2074 12.2849 30.3725 12.1059 30.5006L9.41888 32.422L11.2948 35.1736C11.5887 35.6047 11.6428 36.1557 11.438 36.6355C11.2333 37.1151 10.7983 37.4579 10.2838 37.544C10.2711 37.5462 8.98711 37.7611 7.69638 37.9519C6.33543 38.153 5.51121 38.2639 4.95444 38.264C4.34855 38.264 4.05999 38.1325 3.74144 37.8424C3.63067 37.7414 3.53612 37.6248 3.45977 37.4977C3.39811 37.4337 3.29789 37.3362 3.14397 37.1929C3.06533 38.5803 3.06655 39.9751 3.14933 41.3703L7.05026 40.1031C7.52732 39.9483 8.04982 40.0369 8.449 40.3404L15.1119 45.4063L18.5652 46.081C19.9041 46.3428 21.0677 47.168 21.7578 48.3447C22.448 49.5216 22.6 50.9398 22.1748 52.236C22.0617 52.5809 22.0611 52.9458 22.1732 53.2909L22.658 54.7826C23.4686 57.2786 22.0977 59.969 19.6017 60.7799L18.9412 60.9944L17.5705 68.1495C27.2254 75.3966 40.1482 77.4813 52.0854 72.8932C52.8738 72.5895 53.7591 72.9835 54.0623 73.7722C54.3656 74.5609 53.972 75.446 53.1833 75.7491C48.6987 77.4727 43.9543 78.3365 39.2013 78.3365C34.8298 78.3365 30.4517 77.6063 26.2578 76.143C17.4103 73.0557 9.95423 66.8804 5.26305 58.7549C0.0332961 49.6966 -1.35596 39.1436 1.3511 29.0405C4.05816 18.9373 10.5378 10.4929 19.5961 5.26311C28.6546 0.0333643 39.2074 -1.35604 49.3104 1.35117ZM13.5429 48.0574L7.23417 43.2606L3.46818 44.4842C4.11232 48.8533 5.57379 53.1742 7.91288 57.2252C9.83014 60.5461 12.1922 63.4562 14.8824 65.9185L16.1061 59.5308C16.2109 58.9834 16.6054 58.536 17.1358 58.3637L18.6562 57.8697C19.5474 57.58 20.0373 56.619 19.7477 55.7276L19.263 54.2362C18.9489 53.2697 18.9504 52.2481 19.2671 51.2822C19.4211 50.8123 19.3684 50.3189 19.1183 49.8925C18.8681 49.4659 18.4633 49.1789 17.9779 49.084L14.1755 48.341C13.9457 48.2962 13.7294 48.1992 13.5429 48.0574ZM14.3509 20.7868L16.1506 18.8585C17.0518 17.8926 17.3092 16.4792 16.8058 15.2579C16.3584 14.1721 15.4426 13.3396 14.3266 12.9882C8.49842 18.5184 4.79272 25.7633 3.55019 33.4537C4.30357 34.1129 4.80894 34.5642 5.17262 34.902C5.26978 34.9922 5.36372 35.0796 5.45353 35.1658C5.9208 35.1148 6.62354 35.0187 7.4066 34.9021L6.0481 32.9094C5.57961 32.2222 5.74577 31.2869 6.42234 30.8031L10.0548 28.2057L14.1417 21.0703C14.2003 20.9681 14.2706 20.873 14.3509 20.7868Z" fill="#AFAFAF"/>
<path d="M63.6237 31.8917C60.2997 32.3956 57.2135 33.6235 54.5308 35.4097C54.4922 35.3548 54.4567 35.2968 54.4249 35.2358L50.4657 27.652C50.3516 27.4334 50.2919 27.1904 50.2919 26.9439V25.8717L48.1557 23.8326L45.9029 23.0408C45.1057 22.7607 44.6867 21.8875 44.9668 21.0902C45.2468 20.2932 46.1198 19.8735 46.9174 20.1542L49.481 21.055C49.6859 21.1271 49.8731 21.2418 50.0303 21.3918L52.8781 24.1105C53.1806 24.3989 53.3516 24.799 53.3516 25.217V26.5684L56.5142 32.6262C58.3502 31.9344 60.0745 30.9085 61.5654 29.6265L61.3319 29.276C60.8776 28.5948 60.8354 27.723 61.2217 27.0011C61.608 26.2794 62.3565 25.8308 63.1755 25.8308H65.4827C66.6074 25.8308 67.6713 26.3212 68.4021 27.1766L70.2869 29.3834C70.5865 29.7339 70.8184 30.1315 70.9759 30.5651L71.5271 32.0811C70.4182 31.8576 69.2798 31.7153 68.1185 31.6607L68.1004 31.6108C68.0682 31.5225 68.0213 31.442 67.9605 31.3709L66.0757 29.1641C65.9273 28.9903 65.7111 28.8907 65.4827 28.8907H64.7521L64.8335 29.0129C65.2382 29.6199 65.158 30.4276 64.6424 30.9434C64.3147 31.271 63.9747 31.5874 63.6237 31.8917Z" fill="#AFAFAF"/>
<path d="M59.6189 62.7539C60.0976 61.9524 60.528 60.8958 60.9222 59.5674L62.7218 53.5023C62.8018 53.2326 62.8061 52.9461 62.7339 52.6744L61.9978 49.8999C61.837 49.294 61.3229 48.8475 60.7006 48.7732C60.0776 48.7003 59.4734 49.0119 59.1743 49.5628C59.0066 49.8719 58.8556 50.1993 58.7096 50.5159C58.4641 51.0485 58.2101 51.5993 57.9459 51.9033C57.7974 52.074 57.4162 52.2581 57.0477 52.4359C56.6614 52.6223 56.2124 52.839 55.7911 53.1475C55.7571 53.5046 55.7397 53.8665 55.7397 54.2325C55.7397 56.1327 56.2087 57.9233 57.0374 59.4948C57.0791 59.3943 57.1202 59.2978 57.1587 59.2073L57.1743 59.1713C57.6403 58.0775 57.5161 57.2374 57.4254 56.6236L57.4252 56.6223C57.3669 56.2293 57.3461 56.0603 57.4191 55.8282C57.479 55.6374 57.8375 55.4523 58.3776 55.1916L58.3832 55.1889C58.6211 55.074 58.8828 54.9476 59.1468 54.7949L57.989 58.697C57.802 59.3275 57.6231 59.8293 57.4597 60.2277C58.0525 61.1729 58.7814 62.0241 59.6189 62.7539Z" fill="#AFAFAF"/>
<path d="M64.226 65.1783C69.7186 59.8856 73.2493 53.0708 74.6055 45.8423C75.6071 46.7461 76.446 47.8268 77.073 49.035C75.4747 55.1762 72.4203 60.8143 68.2021 65.4719C67.8195 65.511 67.4312 65.5311 67.0383 65.5311C66.0674 65.5311 65.1251 65.4086 64.226 65.1783Z" fill="#AFAFAF"/>
<path d="M41.2117 18.149L41.315 18.1851C42.1123 18.4646 42.532 19.3376 42.2523 20.1351C42.0313 20.7647 41.4401 21.159 40.8086 21.159C40.6404 21.159 40.4697 21.1311 40.3021 21.0724L40.199 21.0363C39.4017 20.7566 38.982 19.8837 39.2617 19.0863C39.5414 18.289 40.415 17.8699 41.2117 18.149Z" fill="#AFAFAF"/>
<path fill-rule="evenodd" clip-rule="evenodd" d="M67.038 73.8167C77.854 73.8167 86.6222 65.0486 86.6222 54.2325C86.6222 43.4164 77.854 34.6483 67.038 34.6483C56.2219 34.6483 47.4537 43.4164 47.4537 54.2325C47.4537 65.0486 56.2219 73.8167 67.038 73.8167ZM67.0379 68.5441C74.9419 68.5441 81.3494 62.1366 81.3494 54.2325C81.3494 46.3285 74.9419 39.921 67.0379 39.921C59.1339 39.921 52.7264 46.3285 52.7264 54.2325C52.7264 62.1366 59.1339 68.5441 67.0379 68.5441Z" fill="#AFAFAF"/>
<path d="M83.061 70.2555C84.8819 68.4346 87.8342 68.4345 89.6552 70.2555L99.5076 80.1079C101.329 81.9288 101.329 84.8811 99.5076 86.702C97.6867 88.5229 94.7344 88.5229 92.9135 86.702L83.061 76.8496C81.2401 75.0287 81.2401 72.0764 83.061 70.2555Z" fill="#AFAFAF"/>
<path d="M80.6661 65.8758L88.083 73.2926L86.098 75.2776L78.6811 67.8608L80.6661 65.8758Z" fill="#AFAFAF"/>
</svg>
