<svg width="778" height="320" viewBox="0 0 778 320" fill="none" xmlns="http://www.w3.org/2000/svg">
<g clip-path="url(#clip0)">
<path fill-rule="evenodd" clip-rule="evenodd" d="M73.5119 21.538C96.2108 7.91599 122.763 0.000671236 151.125 0.000671236C152.286 -0.0136741 153.437 0.202039 154.513 0.636108C155.589 1.07018 156.568 1.71356 157.394 2.52893C158.219 3.3443 158.875 4.31545 159.322 5.38605C159.769 6.45665 160 7.60545 160 8.76575C160 9.92605 159.769 11.0748 159.322 12.1454C158.875 13.216 158.219 14.1871 157.394 15.0025C156.568 15.8179 155.589 16.4613 154.513 16.8953C153.437 17.3294 152.286 17.5455 151.125 17.5311C126.626 17.5311 103.757 24.1421 84.0403 35.6257C85.9845 40.1595 87.1216 45.0229 87.1232 50.0223V50.0263C87.1238 70.1816 70.5964 86.709 50.4411 86.7084H50.4287C45.3825 86.7007 40.4761 85.5356 35.9098 83.551C24.2509 103.377 17.5315 126.423 17.5315 151.125C17.5459 152.286 17.3298 153.437 16.8957 154.513C16.4617 155.589 15.8183 156.568 15.0029 157.394C14.1875 158.219 13.2164 158.875 12.1458 159.322C11.0752 159.769 9.92642 160 8.76611 160C7.6058 160 6.45703 159.769 5.38642 159.322C4.31581 158.875 3.34467 158.219 2.5293 157.394C1.71393 156.568 1.07056 155.589 0.636494 154.513C0.202431 153.437 -0.0136871 152.286 0.000671256 151.125C0.000671256 122.536 8.0412 95.7834 21.866 72.9641C16.6894 66.5203 13.7726 58.4516 13.7627 50.0369V50.0263C13.762 29.872 30.2869 13.345 50.4412 13.3442H50.4447C58.9069 13.3464 67.0396 16.2757 73.5119 21.538ZM65.2756 37.952C61.6305 33.3872 56.3523 30.8771 50.4394 30.8751C39.7619 30.8765 31.2942 39.3438 31.2917 50.0208C31.3002 55.8159 33.9219 61.2807 38.436 64.9138L38.4484 64.9229C41.8471 67.6687 46.0783 69.1695 50.4482 69.1775C61.1243 69.174 69.5908 60.7064 69.5923 50.0298C69.5909 45.7196 68.1297 41.5463 65.4582 38.1665C65.3962 38.096 65.3354 38.0244 65.2756 37.952Z" fill="#656565"/>
<path d="M64.7353 108.9C64.6266 106.54 65.5009 104.387 66.9929 102.829C68.4848 101.271 70.5938 100.306 72.9521 100.317C75.2144 100.327 77.3602 101.009 78.9641 102.641C86.1671 109.851 99.1402 122.812 99.1402 122.812L87.2958 134.642C87.2958 134.642 73.8776 121.274 67.0725 114.418C65.6485 112.921 64.8315 110.945 64.7353 108.9Z" fill="#656565"/>
<path fill-rule="evenodd" clip-rule="evenodd" d="M137.054 84.8978L99.1402 122.812L62.5008 159.451C58.5257 163.427 58.5257 169.873 62.5008 173.849L80.6571 192.005C80.6571 192.005 67.6961 204.978 60.4884 212.183C58.856 213.787 58.1744 215.933 58.1642 218.195C58.1417 222.912 62.0257 226.629 66.7476 226.412H66.7457C68.7904 226.316 70.7661 225.499 72.2634 224.075C79.1195 217.27 92.4867 203.852 92.4867 203.852L80.6571 192.005L112.41 223.758C112.41 223.758 99.4491 236.731 92.2415 243.936C90.609 245.54 89.9274 247.686 89.9172 249.948C89.8947 254.665 93.7787 258.382 98.5006 258.165H98.4987C100.543 258.069 102.519 257.252 104.016 255.828C110.873 249.023 124.24 235.604 124.24 235.604L112.41 223.758L142.888 254.236C146.864 258.212 153.31 258.212 157.286 254.236L182.077 229.444C182.077 229.444 195.05 242.406 202.255 249.614C203.859 251.246 206.005 251.928 208.267 251.938C212.984 251.961 216.701 248.077 216.484 243.355H216.482C216.386 241.31 215.569 239.334 214.145 237.837C207.34 230.981 193.922 217.614 193.922 217.614L182.986 228.536L219.991 191.53L256.631 154.891C260.606 150.914 260.606 144.468 256.63 140.493L238.001 121.864C238.001 121.864 250.962 108.891 258.171 101.688C259.804 100.084 260.485 97.9381 260.495 95.6759C260.518 90.9592 256.634 87.2418 251.912 87.459C249.867 87.5552 247.891 88.3722 246.394 89.7962C239.538 96.6013 226.171 110.02 226.171 110.02L238.001 121.864L206.247 90.111C206.247 90.111 219.209 77.1378 226.418 69.9348C228.051 68.3309 228.732 66.1851 228.742 63.9229C228.765 59.2062 224.881 55.4887 220.159 55.706C218.114 55.8022 216.138 56.6192 214.641 58.0432C207.785 64.8484 194.418 78.2665 194.418 78.2665L206.247 90.111L176.243 60.1065C172.267 56.1314 165.822 56.1314 161.846 60.1065L137.054 84.8978ZM174.191 98.8249C171.861 98.791 169.573 99.7445 167.894 101.451C167.099 102.259 166.465 103.211 166.031 104.248L157.914 123.702C156.286 127.46 157.547 131.702 160.901 133.749C164.254 135.796 168.724 135.052 171.487 131.988L175.609 148.106L130.948 161.743C126.521 163.096 123.845 167.725 124.972 172.081L135.254 211.85C136.347 216.244 140.869 218.717 145.322 217.355C149.775 215.992 152.449 211.317 151.277 206.948L143.031 175.065L187.673 161.434C192.092 160.085 194.769 155.469 193.656 151.117L187.532 127.169C191.359 128.27 195.569 126.399 197.483 122.746C199.396 119.093 198.453 114.732 195.252 112.435L178.753 100.335C177.444 99.375 175.854 98.8486 174.191 98.8249Z" fill="#656565"/>
<path d="M137.054 84.8978L125.21 96.7274C125.21 96.7274 111.792 83.36 104.987 76.5041C103.563 75.0068 102.746 73.0311 102.649 70.9864C102.432 66.2645 106.15 62.3804 110.866 62.403C113.128 62.4132 115.274 63.0947 116.878 64.7273C124.081 71.9367 137.054 84.8978 137.054 84.8978Z" fill="#656565"/>
<path d="M240.169 211.7C232.964 204.492 219.991 191.53 219.991 191.53L231.836 179.702C231.836 179.702 245.253 193.068 252.058 199.924C253.482 201.421 254.3 203.398 254.396 205.443L254.398 205.441C254.615 210.163 250.898 214.047 246.181 214.024C243.919 214.014 241.773 213.332 240.169 211.7Z" fill="#656565"/>
<path fill-rule="evenodd" clip-rule="evenodd" d="M168.873 319.999C197.236 319.999 223.788 312.083 246.487 298.461C252.96 303.724 261.092 306.653 269.555 306.655H269.559C289.713 306.655 306.238 290.127 306.238 269.973V269.962C306.228 261.547 303.311 253.478 298.134 247.034C311.959 224.215 320 197.462 320 168.872C320.014 167.712 319.798 166.56 319.364 165.484C318.93 164.408 318.286 163.429 317.471 162.604C316.656 161.778 315.684 161.123 314.614 160.675C313.543 160.228 312.394 159.998 311.234 159.998C310.074 159.998 308.925 160.228 307.854 160.675C306.784 161.123 305.813 161.778 304.997 162.604C304.182 163.429 303.539 164.408 303.104 165.484C302.67 166.56 302.454 167.712 302.469 168.872C302.469 193.575 295.749 216.621 284.09 236.447C279.524 234.463 274.617 233.298 269.571 233.29H269.559C249.403 233.289 232.876 249.817 232.876 269.972C232.878 274.972 234.015 279.835 235.959 284.369C216.242 295.853 193.373 302.464 168.873 302.464C167.713 302.45 166.562 302.666 165.486 303.1C164.41 303.534 163.431 304.178 162.606 304.993C161.78 305.808 161.125 306.779 160.678 307.85C160.23 308.921 160 310.069 160 311.229C160 312.39 160.23 313.538 160.678 314.609C161.125 315.679 161.78 316.65 162.606 317.466C163.431 318.281 164.41 318.925 165.486 319.359C166.562 319.793 167.713 320.009 168.873 319.995L168.873 319.999ZM269.56 289.124C263.647 289.124 258.369 286.612 254.723 282.047C254.664 281.975 254.603 281.903 254.541 281.833C251.869 278.453 250.408 274.28 250.407 269.969C250.409 259.292 258.875 250.825 269.551 250.821C273.921 250.829 278.152 252.33 281.551 255.076L281.563 255.085C286.077 258.718 288.699 264.183 288.708 269.978C288.705 280.655 280.238 289.123 269.56 289.124Z" fill="#656565"/>
<path d="M356.349 106.627C359.585 109.576 364.74 112.068 371.813 114.101C377.454 115.733 381.349 117.394 383.496 119.084C385.644 120.745 386.718 123.107 386.718 126.171C386.718 129.235 385.558 131.655 383.239 133.43C380.919 135.206 377.583 136.094 373.23 136.094C368.563 136.094 364.826 135.005 362.019 132.829C359.242 130.624 357.853 127.632 357.853 123.852H349.562C349.562 127.488 350.565 130.739 352.569 133.602C354.602 136.466 357.48 138.728 361.203 140.389C364.926 142.021 368.935 142.837 373.23 142.837C379.845 142.837 385.129 141.32 389.08 138.284C393.032 135.22 395.008 131.154 395.008 126.085C395.008 122.907 394.292 120.143 392.86 117.795C391.457 115.447 389.281 113.399 386.331 111.653C383.41 109.877 379.344 108.259 374.132 106.799C368.949 105.338 365.269 103.735 363.093 101.988C360.945 100.212 359.872 98.0504 359.872 95.5018C359.872 92.3232 361.003 89.8461 363.265 88.0707C365.556 86.2666 368.734 85.3646 372.801 85.3646C377.182 85.3646 380.576 86.4527 382.981 88.6291C385.386 90.7768 386.589 93.7406 386.589 97.5206H394.879C394.879 94.0556 393.949 90.8627 392.087 87.9418C390.255 85.0209 387.649 82.73 384.27 81.0692C380.919 79.4083 377.096 78.5778 372.801 78.5778C366.501 78.5778 361.375 80.1957 357.423 83.4316C353.5 86.6389 351.538 90.7052 351.538 95.6306C351.538 99.9833 353.142 103.649 356.349 106.627Z" fill="#656565"/>
<path d="M413.006 141.978H405.059V95.5018H413.006V141.978Z" fill="#656565"/>
<path d="M404.415 83.1739C404.415 81.8853 404.802 80.7971 405.575 79.9094C406.377 79.0216 407.551 78.5778 409.097 78.5778C410.643 78.5778 411.817 79.0216 412.619 79.9094C413.421 80.7971 413.822 81.8853 413.822 83.1739C413.822 84.4625 413.421 85.5364 412.619 86.3954C411.817 87.2545 410.643 87.6841 409.097 87.6841C407.551 87.6841 406.377 87.2545 405.575 86.3954C404.802 85.5364 404.415 84.4625 404.415 83.1739Z" fill="#656565"/>
<path d="M426.365 141.977H434.312V75.9996H426.365V141.977Z" fill="#656565"/>
<path d="M462.318 131.197L473.829 95.5016H481.948L465.281 141.978H459.225L442.387 95.5016H450.505L462.318 131.197Z" fill="#656565"/>
<path fill-rule="evenodd" clip-rule="evenodd" d="M493.503 136.651C497.455 140.775 502.581 142.837 508.881 142.837C516.67 142.837 522.511 139.844 526.406 133.859L521.552 130.08C520.092 131.97 518.388 133.487 516.44 134.633C514.493 135.778 512.116 136.351 509.31 136.351C505.358 136.351 502.094 134.948 499.516 132.141C496.968 129.306 495.636 125.598 495.522 121.016H527.007V117.709C527.007 110.292 525.332 104.593 521.982 100.613C518.631 96.6324 513.935 94.6422 507.893 94.6422C504.199 94.6422 500.762 95.6731 497.584 97.7349C494.434 99.7681 491.971 102.603 490.195 106.24C488.449 109.848 487.575 113.957 487.575 118.568V120.028C487.575 126.958 489.551 132.499 493.503 136.651ZM499.817 104.693C501.994 102.345 504.685 101.171 507.893 101.171C511.214 101.171 513.849 102.288 515.796 104.522C517.743 106.727 518.832 109.848 519.061 113.886V114.487H495.779C496.295 110.278 497.641 107.013 499.817 104.693Z" fill="#656565"/>
<path d="M558.621 102.632C557.419 102.431 556.116 102.331 554.713 102.331C549.501 102.331 545.964 104.55 544.103 108.989V141.978H536.156V95.5013H543.888L544.017 100.871C546.623 96.7184 550.317 94.6422 555.099 94.6422C556.645 94.6422 557.82 94.8426 558.621 95.2435V102.632Z" fill="#656565"/>
<path fill-rule="evenodd" clip-rule="evenodd" d="M372.599 253.798V221.584H389.114C399.957 221.584 408.434 219.009 414.547 213.86C420.701 208.669 423.778 201.594 423.778 192.635C423.778 186.732 422.375 181.478 419.57 176.873C416.765 172.226 412.746 168.646 407.513 166.135C402.322 163.623 396.294 162.367 389.428 162.367H353.76V253.798H372.599ZM389.428 206.324H372.599V177.626H389.868C394.514 177.71 398.157 179.133 400.794 181.896C403.432 184.66 404.75 188.281 404.75 192.76C404.75 197.114 403.432 200.463 400.794 202.808C398.199 205.152 394.41 206.324 389.428 206.324Z" fill="#656565"/>
<path fill-rule="evenodd" clip-rule="evenodd" d="M474.077 253.799C473.24 252.166 472.633 250.136 472.256 247.707C467.861 252.606 462.146 255.055 455.113 255.055C448.457 255.055 442.93 253.129 438.535 249.277C434.181 245.426 432.004 240.57 432.004 234.709C432.004 227.508 434.662 221.982 439.979 218.13C445.338 214.279 453.062 212.332 463.151 212.29H471.503V208.397C471.503 205.257 470.686 202.745 469.054 200.862C467.463 198.978 464.93 198.036 461.455 198.036C458.399 198.036 455.992 198.768 454.234 200.234C452.517 201.699 451.659 203.708 451.659 206.262H433.511C433.511 202.327 434.725 198.685 437.153 195.335C439.581 191.986 443.014 189.37 447.452 187.486C451.889 185.56 456.871 184.597 462.397 184.597C470.77 184.597 477.406 186.711 482.304 190.94C487.244 195.126 489.714 201.029 489.714 208.648V238.1C489.755 244.547 490.656 249.424 492.414 252.731V253.799H474.077ZM459.069 241.177C461.748 241.177 464.218 240.591 466.479 239.418C468.74 238.204 470.414 236.593 471.503 234.583V222.903H464.721C455.636 222.903 450.801 226.043 450.215 232.322L450.152 233.39C450.152 235.651 450.947 237.514 452.538 238.979C454.129 240.444 456.306 241.177 459.069 241.177Z" fill="#656565"/>
<path d="M535.43 202.369C537.313 202.369 539.49 202.536 541.96 202.871L542.212 185.414C540.453 184.869 538.569 184.597 536.56 184.597C530.113 184.597 525.068 187.716 521.426 193.954L520.924 185.853H503.78V253.799H521.928V209.339C524.063 204.692 528.564 202.369 535.43 202.369Z" fill="#656565"/>
<path d="M575.745 169.148V185.852H587.362V199.165H575.745V233.075C575.745 235.586 576.226 237.387 577.189 238.475C578.152 239.564 579.994 240.108 582.715 240.108C584.725 240.108 586.504 239.961 588.053 239.668V253.421C584.494 254.509 580.831 255.053 577.063 255.053C564.337 255.053 557.848 248.627 557.597 235.775V199.165H547.675V185.852H557.597V169.148H575.745Z" fill="#656565"/>
<path d="M614.741 193.703L614.176 185.853H597.096V253.799H615.244V205.885C617.798 201.531 621.628 199.354 626.736 199.354C630.629 199.354 633.413 200.234 635.087 201.992C636.762 203.708 637.599 206.492 637.599 210.344V253.799H655.747V209.904C655.664 201.489 653.864 195.168 650.347 190.94C646.83 186.711 641.472 184.597 634.271 184.597C626.108 184.597 619.598 187.632 614.741 193.703Z" fill="#656565"/>
<path fill-rule="evenodd" clip-rule="evenodd" d="M700.835 255.055C690.871 255.055 682.75 251.999 676.47 245.886C670.232 239.774 667.113 231.632 667.113 221.459V219.7C667.113 212.877 668.432 206.785 671.069 201.427C673.707 196.026 677.433 191.882 682.247 188.993C687.103 186.062 692.629 184.597 698.825 184.597C708.119 184.597 715.424 187.528 720.741 193.389C726.1 199.25 728.779 207.56 728.779 218.319V225.729H685.513C686.099 230.166 687.857 233.725 690.787 236.404C693.76 239.083 697.507 240.423 702.028 240.423C709.019 240.423 714.483 237.89 718.418 232.825L727.335 242.809C724.614 246.661 720.93 249.675 716.283 251.852C711.636 253.987 706.487 255.055 700.835 255.055ZM698.763 199.292C695.162 199.292 692.232 200.506 689.971 202.934C687.752 205.362 686.329 208.837 685.701 213.358H710.945V211.914C710.861 207.895 709.773 204.797 707.68 202.62C705.586 200.401 702.614 199.292 698.763 199.292Z" fill="#656565"/>
<path d="M770.79 202.369C772.674 202.369 774.851 202.536 777.321 202.871L777.572 185.414C775.814 184.869 773.93 184.597 771.92 184.597C765.473 184.597 760.429 187.716 756.786 193.954L756.284 185.853H739.141V253.799H757.289V209.339C759.424 204.692 763.924 202.369 770.79 202.369Z" fill="#656565"/>
</g>
<defs>
<clipPath id="clip0">
<rect width="777.572" height="320" fill="white"/>
</clipPath>
</defs>
</svg>
