<?xml version="1.0" encoding="utf-8"?>
<!-- Generator: Adobe Illustrator 19.0.0, SVG Export Plug-In . SVG Version: 6.00 Build 0)  -->
<svg version="1.1" id="Layer_1" xmlns="http://www.w3.org/2000/svg" xmlns:xlink="http://www.w3.org/1999/xlink" x="0px" y="0px"
	 viewBox="-348 284.3 145 28" style="enable-background:new -348 284.3 145 28;" xml:space="preserve">
<style type="text/css">
	.st0{fill:#0054A6;}
</style>
<title>teltonika_logo</title>
<desc>Created using Figma</desc>
<path class="st0" d="M-298.1,300.4l-0.6,2h6.7l-1,3.1h-10.9l4.2-12.7h10.6l-1,3.1h-6.5l-0.6,1.7h5.5l-0.9,2.9L-298.1,300.4z
	 M-313.2,308.1l-4.1-4.1l-3.4,3.3l-9-9l9-9.1l3.4,3.3l4-4.1l-4.2-4l-4,4.1l-4.1-3.9l-3.7,3.8l-4.2-4l-4,4.1l-9.6,9.9l9.8,9.8
	l4.1,4.1l3.8-3.8l4.1,3.9l4.1-4l4,4L-313.2,308.1z M-336.6,307.3l-9-9l9-9.1l3.4,3.3l-6,6.1l5.7,5.7L-336.6,307.3z M-337.8,298.5
	l8.9-9.1l3.3,3.2l-5.7,5.8l5.8,5.8l-3.3,3.3L-337.8,298.5z M-282.7,292.8h-4.2l-4.2,12.7h10.1l1.1-3.4h-6L-282.7,292.8z
	 M-301.3,292.8h-12.5l-1.1,3.4h4.2l-3.1,9.4h4.2l3.1-9.4h4.1L-301.3,292.8z M-239.9,292.8l-1.9,6c-0.2,0.6-0.3,1.1-0.4,1.5v0.2
	l-0.2-1c0-0.1,0-0.3-0.1-0.4c0-0.1-0.1-0.3-0.1-0.4l-1.8-5.9h-3.9l-4.2,12.8h3.9l1.9-6c0.1-0.6,0.3-1.1,0.4-1.5v-0.2
	c0.1,0.2,0.1,0.5,0.1,0.7c0.1,0.7,0.2,1.1,0.2,1.1l1.8,5.9h3.9l4.2-12.7H-239.9z M-203.3,305.4l-0.7-12.7h-4.2l-8.6,12.1l0.2,0.6
	h3.4l1.1-1.7h4.8v1.6H-203.3z M-210.4,301.1l3-4.4l0.1,4.4H-210.4z M-213,292.8h-5l-5.8,4.2l1.4-4.2h-4.1l-4.2,12.7h4.1l1.4-4.1
	l1.7-1.1l1.9,5.1h4.4l0.4-0.6l-2.8-7.4L-213,292.8z M-253,293.9c-0.9-0.9-2.2-1.4-4-1.4c-2.1,0-3.9,0.6-5.5,1.9
	c-1.7,1.2-2.8,2.9-3.4,4.9c-0.1,0.6-0.3,1.1-0.4,1.5c-0.2,1.6,0.1,2.9,0.9,3.8c0.9,0.9,2.2,1.4,4,1.4c2.1,0,3.9-0.6,5.5-1.8
	c1.6-1.2,2.7-2.9,3.4-4.9c0.1-0.3,0.1-0.6,0.2-0.7c0.1-0.2,0.1-0.4,0.1-0.8C-251.8,296.1-252.1,294.8-253,293.9z M-256.2,297.9
	c-0.1,0.4-0.2,0.8-0.4,1.3c-0.4,1.1-0.8,1.9-1.3,2.4c-0.6,0.7-1.5,1.1-2.4,1.1c-0.8,0-1.3-0.2-1.6-0.6c-0.3-0.4-0.4-0.9-0.2-1.6
	c0.1-0.2,0.1-0.4,0.1-0.6c0.1-0.2,0.1-0.4,0.2-0.6c0.4-1.1,0.8-1.9,1.3-2.4c0.6-0.7,1.4-1.1,2.4-1.1c0.8,0,1.3,0.2,1.6,0.6
	C-256.1,296.6-256.1,297.1-256.2,297.9z M-233.3,292.8l-4.2,12.7h4.2l4.2-12.7H-233.3z M-264.7,292.8h-12.4l-1.1,3.4h4.2l-3.2,9.4
	h4.2l3.1-9.4h4.1L-264.7,292.8z"/>
</svg>
