<?xml version="1.0" encoding="utf-8"?>
<!-- Generator: Adobe Illustrator 19.0.0, SVG Export Plug-In . SVG Version: 6.00 Build 0)  -->
<svg version="1.1" id="Layer_1" xmlns="http://www.w3.org/2000/svg" xmlns:xlink="http://www.w3.org/1999/xlink" x="0px" y="0px"
	 viewBox="-348 284.3 145 28" style="enable-background:new -348 284.3 145 28;" xml:space="preserve">
<style type="text/css">
	.st0{fill:#0054A6;}
</style>
<title>teltonika_logo</title>
<desc>Created using Figma</desc>
<g id="Canvas" transform="translate(-1462 576)">
	<g id="teltonika_logo">
		<g id="XMLID_2">
			<g transform="translate(1462.8 -576)">
				<path id="path0_fill" class="st0" d="M1163.9-275.6l-0.6,2h6.7l-1,3.1h-10.9l4.2-12.7h10.6l-1,3.1h-6.5l-0.6,1.7h5.5l-0.9,2.9
					L1163.9-275.6z M1144.7-271.9l4.1,4.1l-4.1,4.1l-4.1-4.1l-9.8-9.8l5.7-5.8l-3.3-3.2l-8.9,9.1l9,9l3.4-3.4l4.1,4.1l-4.1,4.1
					l-4.1-3.9l-3.8,3.8l-4.1-4.1l-9.8-9.8l9.6-9.9l4-4.1l4.2,4l3.7-3.8l4.1,3.9l4-4.1l4.2,4l-4,4.1l-3.4-3.3l-9,9.1l9,9
					L1144.7-271.9z M1128.7-283.6l-3.4-3.3l-9,9.1l9,9l3.1-3.1l-5.7-5.7L1128.7-283.6z M1179.3-283.2h-4.2l-4.2,12.7h10.1l1.1-3.4
					h-6L1179.3-283.2z M1160.7-283.2h-12.5l-1.1,3.4h4.2l-3.1,9.4h4.2l3.1-9.4h4.1L1160.7-283.2z M1222.1-283.2l-1.9,6
					c-0.2,0.6-0.3,1.1-0.4,1.5v0.2l-0.2-1c0-0.1,0-0.3-0.1-0.4c0-0.1-0.1-0.3-0.1-0.4l-1.8-5.9h-3.9l-4.2,12.8h3.9l1.9-6
					c0.1-0.6,0.3-1.1,0.4-1.5v-0.2c0.1,0.2,0.1,0.5,0.1,0.7c0.1,0.7,0.2,1.1,0.2,1.1l1.8,5.9h3.9l4.2-12.7H1222.1z M1254.7-270.5
					v-1.7h-4.8l-1.1,1.7h-3.4l-0.2-0.6l8.6-12.1h4.2l0.7,12.7L1254.7-270.5L1254.7-270.5z M1254.8-274.9l-0.1-4.4l-3,4.4H1254.8z
					 M1249-283.2h-5l-5.8,4.2l1.4-4.2h-4.1l-4.2,12.7h4.1l1.4-4.1l1.7-1.1l1.9,5.1h4.4l0.4-0.6l-2.8-7.4L1249-283.2z M1209.8-277.6
					c-0.1,0.1-0.1,0.4-0.2,0.7c-0.7,2.1-1.9,3.7-3.4,4.9s-3.4,1.8-5.5,1.8c-1.8,0-3.2-0.4-4-1.4c-0.9-0.9-1.1-2.2-0.9-3.8
					c0.1-0.4,0.2-0.9,0.4-1.5c0.6-2,1.8-3.6,3.4-4.9c1.6-1.2,3.4-1.9,5.5-1.9c1.8,0,3.2,0.4,4,1.4c0.9,0.9,1.1,2.2,0.9,3.8
					C1209.9-278,1209.9-277.8,1209.8-277.6z M1205.8-278.1c0.1-0.7,0.1-1.2-0.2-1.6c-0.3-0.4-0.8-0.6-1.6-0.6c-1,0-1.8,0.4-2.4,1.1
					c-0.5,0.6-0.9,1.4-1.3,2.4c-0.1,0.2-0.1,0.4-0.2,0.6s-0.1,0.4-0.1,0.6c-0.1,0.7-0.1,1.2,0.2,1.6c0.3,0.4,0.8,0.6,1.6,0.6
					c0.9,0,1.8-0.4,2.4-1.1c0.5-0.6,0.9-1.4,1.3-2.4C1205.6-277.4,1205.7-277.8,1205.8-278.1z M1228.7-283.2l-4.2,12.7h4.2l4.2-12.7
					H1228.7z M1197.3-283.2h-12.4l-1.1,3.4h4.2l-3.2,9.4h4.2l3.1-9.4h4.1L1197.3-283.2z"/>
			</g>
		</g>
	</g>
</g>
</svg>
