
<svg width="145" height="28" viewBox="0 0 145 28" version="1.1" xmlns="http://www.w3.org/2000/svg" xmlns:xlink="http://www.w3.org/1999/xlink">
<title>teltonika_logo</title>
<desc>Created using Figma</desc>
<g id="Canvas" transform="translate(-1462 576)">
<g id="teltonika_logo">
<g id="XMLID 2">
<use xlink:href="#path0_fill" transform="translate(1462.8 -576)" fill="#FFFFFF"/>
</g>
</g>
</g>
<defs>
<path id="path0_fill" d="M 49.0955 16.1429L 48.4495 18.1429L 55.1966 18.1429L 54.1917 21.2143L 43.2816 21.2143L 47.4447 8.5L 58.0677 8.5L 57.0628 11.5714L 50.6029 11.5714L 50.0286 13.2857L 55.4837 13.2857L 54.5506 16.2143L 49.0955 16.1429ZM 29.8593 19.7857L 33.9506 23.8571L 29.8593 27.9286L 25.768 23.8571L 15.9345 14.0714L 21.6049 8.28571L 18.3032 5.07143L 9.4028 14.2143L 18.4467 23.2143L 21.8202 19.8571L 25.9115 23.9286L 21.8202 28L 17.7289 24.0714L 13.9248 27.8571L 9.83346 23.7857L 0 14L 9.61813 4.14286L 13.6376 0L 17.8007 4L 21.5331 0.214286L 25.6244 4.14286L 29.6439 0.0714286L 33.807 4.07143L 29.7875 8.21429L 26.414 4.92857L 17.4418 14.0714L 26.4857 23.0714L 29.8593 19.7857ZM 13.853 8.14286L 10.4795 4.85714L 1.50732 14L 10.5512 23L 13.6376 19.9286L 7.89548 14.2143L 13.853 8.14286ZM 64.5276 8.5L 60.3645 8.5L 56.2015 21.2143L 66.322 21.2143L 67.3987 17.8571L 61.4412 17.8571L 64.5276 8.5ZM 45.9373 8.5L 33.4481 8.5L 32.3715 11.8571L 36.6063 11.8571L 33.5199 21.2143L 37.683 21.2143L 40.7694 11.8571L 44.8607 11.8571L 45.9373 8.5ZM 107.307 8.5L 105.369 14.5C 105.153 15.0714 105.082 15.5714 105.01 16L 105.01 16.2143L 104.795 15.2143C 104.795 15.0714 104.795 14.9286 104.723 14.7857C 104.723 14.6429 104.651 14.5 104.651 14.3571L 102.857 8.42857L 98.9088 8.42857L 94.674 21.2143L 98.6217 21.2143L 100.56 15.2143C 100.703 14.6429 100.847 14.1429 100.919 13.7143L 100.919 13.5C 100.99 13.7143 100.99 14 101.062 14.2143C 101.206 14.9286 101.277 15.2857 101.277 15.3571L 103.072 21.2143L 107.02 21.2143L 111.183 8.5L 107.307 8.5ZM 139.894 21.2143L 139.894 19.5L 135.084 19.5L 134.008 21.2143L 130.634 21.2143L 130.419 20.5714L 139.032 8.42857L 143.195 8.42857L 143.913 21.1429L 139.894 21.1429L 139.894 21.2143ZM 139.965 16.8571L 139.822 12.4286L 136.807 16.8571L 139.965 16.8571ZM 134.223 8.5L 129.271 8.5L 123.457 12.7143L 124.82 8.5L 120.729 8.5L 116.566 21.2143L 120.657 21.2143L 122.021 17.1429L 123.744 16.0714L 125.61 21.1429L 129.988 21.1429L 130.419 20.5L 127.62 13.0714L 134.223 8.5ZM 95.0329 14.1429C 94.9611 14.2857 94.8893 14.5714 94.8175 14.8571C 94.0998 16.9286 92.9513 18.5714 91.3722 19.7857C 89.7931 21 87.9269 21.5714 85.8454 21.5714C 84.051 21.5714 82.6872 21.1429 81.8259 20.2143C 80.9646 19.2857 80.6775 18 80.8928 16.4286C 80.9646 16 81.1081 15.5 81.2517 14.9286C 81.8977 12.9286 83.0461 11.2857 84.697 10.0714C 86.2761 8.85714 88.1423 8.21429 90.2238 8.21429C 92.0182 8.21429 93.382 8.64286 94.2433 9.57143C 95.1047 10.5 95.3918 11.7857 95.1764 13.3571C 95.1047 13.7143 95.1046 13.9286 95.0329 14.1429ZM 91.0134 13.5714C 91.0851 12.8571 91.0851 12.3571 90.798 12C 90.5109 11.5714 90.0085 11.3571 89.2189 11.3571C 88.2141 11.3571 87.4245 11.7143 86.7785 12.4286C 86.2761 13 85.8454 13.7857 85.4865 14.8571C 85.4147 15.0714 85.343 15.2857 85.2712 15.5C 85.1994 15.7143 85.1994 15.9286 85.1276 16.1429C 84.9841 16.8571 85.0559 17.3571 85.343 17.7143C 85.6301 18.1429 86.1325 18.3571 86.9221 18.3571C 87.8552 18.3571 88.7165 18 89.3625 17.2857C 89.8649 16.7143 90.2956 15.9286 90.6545 14.8571C 90.798 14.3571 90.9416 13.9286 91.0134 13.5714ZM 113.91 8.5L 109.675 21.2143L 113.91 21.2143L 118.073 8.5L 113.91 8.5ZM 82.4719 8.5L 70.0544 8.5L 68.9778 11.8571L 73.2126 11.8571L 70.0544 21.2143L 74.2175 21.2143L 77.3039 11.8571L 81.3952 11.8571L 82.4719 8.5Z"/>
</defs>
</svg>