<?xml version="1.0" encoding="UTF-8" standalone="no"?>
<!-- Created with Inkscape (http://www.inkscape.org/) -->

<svg
   xmlns:dc="http://purl.org/dc/elements/1.1/"
   xmlns:cc="http://creativecommons.org/ns#"
   xmlns:rdf="http://www.w3.org/1999/02/22-rdf-syntax-ns#"
   xmlns:svg="http://www.w3.org/2000/svg"
   xmlns="http://www.w3.org/2000/svg"
   xmlns:sodipodi="http://sodipodi.sourceforge.net/DTD/sodipodi-0.dtd"
   xmlns:inkscape="http://www.inkscape.org/namespaces/inkscape"
   width="566"
   height="105"
   viewBox="0 0 149.75441 27.781372"
   version="1.1"
   id="svg8"
   inkscape:version="0.92.3 (2405546, 2018-03-11)"
   sodipodi:docname="logo.svg">
  <defs
     id="defs2">
    <clipPath
       id="clipPath26"
       clipPathUnits="userSpaceOnUse">
      <path
         inkscape:connector-curvature="0"
         id="path24"
         d="M 0,178 H 595.28 V 0 H 0 Z" />
    </clipPath>
  </defs>
  <sodipodi:namedview
     id="base"
     pagecolor="#ffffff"
     bordercolor="#666666"
     borderopacity="1.0"
     inkscape:pageopacity="0.0"
     inkscape:pageshadow="2"
     inkscape:zoom="0.7"
     inkscape:cx="240.54659"
     inkscape:cy="480.37389"
     inkscape:document-units="mm"
     inkscape:current-layer="layer1"
     showgrid="false"
     units="px"
     inkscape:window-width="3840"
     inkscape:window-height="2098"
     inkscape:window-x="-8"
     inkscape:window-y="-8"
     inkscape:window-maximized="1" />
  <metadata
     id="metadata5">
    <rdf:RDF>
      <cc:Work
         rdf:about="">
        <dc:format>image/svg+xml</dc:format>
        <dc:type
           rdf:resource="http://purl.org/dc/dcmitype/StillImage" />
        <dc:title></dc:title>
      </cc:Work>
    </rdf:RDF>
  </metadata>
  <g
     inkscape:label="Layer 1"
     inkscape:groupmode="layer"
     id="layer1"
     transform="translate(0,-269.21748)">
    <g
       transform="matrix(0.30324705,0,0,-0.30324705,-15.529752,311.57202)"
       inkscape:label="TOE LOGO OK1"
       id="g18">
      <g
         id="g20">
        <g
           clip-path="url(#clipPath26)"
           id="g22">
          <g
             transform="translate(126.1953,114.123)"
             id="g28">
            <path
               inkscape:connector-curvature="0"
               id="path30"
               style="fill:#4ebcd3;fill-opacity:1;fill-rule:nonzero;stroke:none"
               d="m 0,0 c 0,-5.523 -4.477,-10 -10,-10 -5.523,0 -10,4.477 -10,10 0,5.523 4.477,10 10,10 C -4.477,10 0,5.523 0,0" />
          </g>
          <g
             transform="translate(85.4495,114.123)"
             id="g32">
            <path
               inkscape:connector-curvature="0"
               id="path34"
               style="fill:#4ebcd3;fill-opacity:1;fill-rule:nonzero;stroke:none"
               d="m 0,0 c 0,-5.523 -4.477,-10 -10,-10 -5.523,0 -10,4.477 -10,10 0,5.523 4.477,10 10,10 C -4.477,10 0,5.523 0,0" />
          </g>
          <g
             transform="translate(85.4495,71.8333)"
             id="g36">
            <path
               inkscape:connector-curvature="0"
               id="path38"
               style="fill:#4ebcd3;fill-opacity:1;fill-rule:nonzero;stroke:none"
               d="m 0,0 c 0,-5.523 -4.477,-10 -10,-10 -5.523,0 -10,4.477 -10,10 0,5.523 4.477,10 10,10 C -4.477,10 0,5.523 0,0" />
          </g>
          <g
             transform="translate(105.2024,106.6397)"
             id="g40">
            <path
               inkscape:connector-curvature="0"
               id="path42"
               style="fill:#cbcbcb;fill-opacity:1;fill-rule:nonzero;stroke:none"
               d="m 0,0 -8.455,-8.475 c -1.59,-1.59 -2.388,-3.696 -2.386,-5.777 -0.002,-2.08 0.796,-4.187 2.386,-5.776 l 32.857,-32.857 c 1.589,-1.59 3.696,-2.388 5.777,-2.386 2.08,-0.002 4.187,0.796 5.776,2.386 l 12.392,12.463 -6.489,0.01 -9.438,-8.937 c -0.616,-0.615 -1.415,-0.919 -2.241,-0.922 -0.826,0.003 -1.626,0.307 -2.241,0.922 l -32.857,32.856 c -0.615,0.616 -0.919,1.415 -0.922,2.241 0.003,0.826 0.307,1.626 0.922,2.241 l 8.507,8.499 z" />
          </g>
          <g
             transform="translate(123.75,125.0833)"
             id="g44">
            <path
               inkscape:connector-curvature="0"
               id="path46"
               style="fill:#cbcbcb;fill-opacity:1;fill-rule:nonzero;stroke:none"
               d="m 0,0 7.214,7.297 c 1.589,1.59 3.696,2.388 5.776,2.386 2.08,0.002 4.187,-0.796 5.777,-2.386 l 16.2,-16.13 h -7.08 L 15.231,3.761 C 14.616,4.376 13.816,4.68 12.99,4.683 12.164,4.68 11.365,4.376 10.749,3.761 L 3.458,-3.5 Z" />
          </g>
          <g
             transform="translate(86.5168,121.3914)"
             id="g48">
            <path
               inkscape:connector-curvature="0"
               id="path50"
               style="fill:#686e71;fill-opacity:1;fill-rule:nonzero;stroke:none"
               d="m 0,0 7.372,7.372 c 0.606,0.605 1.393,0.905 2.206,0.907 0.814,-0.002 1.601,-0.302 2.207,-0.907 l 7.085,-6.966 3.58,3.504 -7.06,7.067 c -1.599,1.6 -3.719,2.403 -5.812,2.401 C 7.486,13.38 5.366,12.577 3.767,10.977 L -3.605,3.605 Z" />
          </g>
          <g
             transform="translate(67.8187,82.6944)"
             id="g52">
            <path
               inkscape:connector-curvature="0"
               id="path54"
               style="fill:#686e71;fill-opacity:1;fill-rule:nonzero;stroke:none"
               d="m 0,0 -7.642,7.666 c -0.604,0.606 -0.904,1.392 -0.906,2.206 0.002,0.814 0.302,1.6 0.906,2.206 l 8.118,8.118 -3.643,3.567 -8.08,-8.08 c -1.599,-1.599 -2.402,-3.718 -2.4,-5.811 -0.002,-2.093 0.801,-4.212 2.4,-5.811 L -3.47,-3.688 C -0.57,-0.485 0,0 0,0" />
          </g>
          <g
             transform="translate(123.8399,103.2338)"
             id="g56">
            <path
               inkscape:connector-curvature="0"
               id="path58"
               style="fill:#686e71;fill-opacity:1;fill-rule:nonzero;stroke:none"
               d="m 0,0 8.121,-8.13 c 0.605,-0.606 0.905,-1.392 0.907,-2.206 -0.002,-0.814 -0.302,-1.6 -0.907,-2.206 l -33.86,-33.86 c -0.605,-0.605 -1.392,-0.904 -2.206,-0.907 -0.813,0.003 -1.6,0.302 -2.206,0.907 l -3.605,-3.605 c 1.599,-1.6 3.719,-2.403 5.811,-2.4 2.093,-0.003 4.213,0.8 5.812,2.4 l 33.859,33.86 c 1.6,1.599 2.403,3.718 2.4,5.811 0.003,2.093 -0.8,4.212 -2.4,5.811 L 3.478,3.732 Z m -30.151,-46.402 -1.803,-1.802 -1.802,-1.803 -0.055,0.055 -7.345,7.304 c 1.609,1.614 2.035,2.038 3.611,3.693 z" />
          </g>
          <g
             transform="translate(150.3145,106.3236)"
             id="g60">
            <path
               inkscape:connector-curvature="0"
               id="path62"
               style="fill:#686e71;fill-opacity:1;fill-rule:nonzero;stroke:none"
               d="M 0,0 H -13.213 V 6.941 H 20.885 V 0 H 7.672 V -36.167 H 0 Z" />
          </g>
          <g
             transform="translate(181.8535,95.3031)"
             id="g64">
            <path
               inkscape:connector-curvature="0"
               id="path66"
               style="fill:#686e71;fill-opacity:1;fill-rule:nonzero;stroke:none"
               d="m 0,0 h 0.122 c 0.568,1.218 1.573,2.323 3.014,3.318 1.44,0.994 3.298,1.492 5.572,1.492 1.948,0 3.601,-0.325 4.962,-0.974 1.359,-0.65 2.466,-1.503 3.318,-2.557 0.852,-1.056 1.461,-2.274 1.827,-3.654 0.365,-1.38 0.548,-2.821 0.548,-4.323 v -18.449 h -7.307 v 14.796 c 0,0.811 -0.041,1.714 -0.121,2.709 -0.082,0.995 -0.295,1.928 -0.64,2.801 -0.345,0.873 -0.883,1.603 -1.613,2.192 -0.731,0.588 -1.726,0.883 -2.984,0.883 -1.218,0 -2.243,-0.203 -3.075,-0.609 C 2.791,-2.781 2.101,-3.329 1.553,-4.019 1.005,-4.709 0.609,-5.501 0.366,-6.394 0.122,-7.287 0,-8.22 0,-9.194 V -25.147 H -7.306 V 20.885 H 0 Z" />
          </g>
          <path
             inkscape:connector-curvature="0"
             id="path68"
             style="fill:#686e71;fill-opacity:1;fill-rule:nonzero;stroke:none"
             d="m 207.183,99.383 h 7.307 V 70.156 h -7.307 z m -1.036,9.924 c 0,1.177 0.436,2.202 1.31,3.075 0.872,0.873 1.979,1.309 3.318,1.309 1.34,0 2.466,-0.416 3.379,-1.248 0.914,-0.832 1.37,-1.878 1.37,-3.136 0,-1.258 -0.456,-2.304 -1.37,-3.135 -0.913,-0.833 -2.039,-1.249 -3.379,-1.249 -1.339,0 -2.446,0.436 -3.318,1.309 -0.874,0.873 -1.31,1.898 -1.31,3.075" />
          <g
             transform="translate(220.4565,99.3827)"
             id="g70">
            <path
               inkscape:connector-curvature="0"
               id="path72"
               style="fill:#686e71;fill-opacity:1;fill-rule:nonzero;stroke:none"
               d="m 0,0 h 6.941 v -4.688 h 0.122 c 0.689,1.461 1.745,2.729 3.166,3.805 1.42,1.075 3.349,1.613 5.785,1.613 1.948,0 3.601,-0.325 4.962,-0.974 1.359,-0.65 2.466,-1.502 3.318,-2.557 0.852,-1.056 1.461,-2.274 1.827,-3.653 0.365,-1.381 0.548,-2.822 0.548,-4.323 v -18.45 h -7.307 v 14.796 c 0,0.812 -0.041,1.715 -0.121,2.71 -0.082,0.994 -0.295,1.928 -0.64,2.801 -0.345,0.872 -0.883,1.603 -1.613,2.191 -0.731,0.589 -1.726,0.884 -2.984,0.884 -1.218,0 -2.243,-0.204 -3.075,-0.609 C 10.097,-6.86 9.407,-7.409 8.859,-8.098 8.311,-8.789 7.915,-9.581 7.672,-10.473 7.428,-11.366 7.306,-12.3 7.306,-13.274 V -29.227 H 0 Z" />
          </g>
          <g
             transform="translate(267.4614,93.5374)"
             id="g74">
            <path
               inkscape:connector-curvature="0"
               id="path76"
               style="fill:#686e71;fill-opacity:1;fill-rule:nonzero;stroke:none"
               d="m 0,0 c -1.3,0 -2.477,-0.213 -3.532,-0.64 -1.055,-0.426 -1.958,-1.015 -2.709,-1.765 -0.752,-0.752 -1.34,-1.665 -1.766,-2.741 -0.426,-1.075 -0.639,-2.263 -0.639,-3.561 0,-1.178 0.213,-2.274 0.639,-3.288 0.426,-1.015 1.025,-1.909 1.797,-2.679 0.77,-0.772 1.683,-1.381 2.739,-1.827 1.055,-0.447 2.192,-0.67 3.41,-0.67 1.34,0 2.547,0.223 3.623,0.67 1.075,0.446 1.988,1.044 2.74,1.796 0.751,0.751 1.329,1.654 1.735,2.71 0.405,1.055 0.609,2.192 0.609,3.41 0,2.557 -0.771,4.627 -2.313,6.21 C 4.789,-0.792 2.679,0 0,0 m 15.587,5.845 v -26.608 c 0,-2.638 -0.325,-5.024 -0.974,-7.154 -0.65,-2.132 -1.654,-3.938 -3.014,-5.419 -1.36,-1.482 -3.075,-2.628 -5.145,-3.441 -2.07,-0.811 -4.526,-1.218 -7.367,-1.218 -2.72,0 -5.297,0.346 -7.733,1.036 -2.436,0.69 -4.688,1.948 -6.759,3.774 l 4.384,5.968 c 1.461,-1.34 2.984,-2.375 4.567,-3.106 1.583,-0.73 3.41,-1.095 5.48,-1.095 1.745,0 3.216,0.243 4.414,0.73 1.197,0.487 2.151,1.157 2.862,2.009 0.71,0.853 1.218,1.878 1.522,3.075 0.304,1.198 0.457,2.527 0.457,3.988 v 2.132 H 8.159 c -1.056,-1.422 -2.456,-2.487 -4.201,-3.197 -1.746,-0.71 -3.532,-1.066 -5.358,-1.066 -2.192,0 -4.182,0.396 -5.968,1.187 -1.786,0.792 -3.318,1.858 -4.596,3.197 -1.279,1.34 -2.264,2.923 -2.953,4.75 -0.691,1.826 -1.036,3.775 -1.036,5.845 0,2.151 0.325,4.16 0.974,6.028 0.649,1.866 1.604,3.49 2.862,4.871 1.258,1.379 2.771,2.466 4.536,3.257 1.766,0.792 3.785,1.188 6.059,1.188 2.07,0 3.998,-0.407 5.784,-1.218 C 6.048,4.545 7.468,3.247 8.524,1.461 h 0.122 v 4.384 z" />
          </g>
          <g
             transform="translate(305.6982,91.2845)"
             id="g78">
            <path
               inkscape:connector-curvature="0"
               id="path80"
               style="fill:#686e71;fill-opacity:1;fill-rule:nonzero;stroke:none"
               d="m 0,0 c -1.422,1.988 -3.328,2.983 -5.725,2.983 -0.972,0 -1.927,-0.243 -2.86,-0.73 -0.934,-0.487 -1.401,-1.279 -1.401,-2.375 0,-0.893 0.387,-1.543 1.158,-1.948 0.77,-0.407 1.745,-0.752 2.922,-1.035 1.176,-0.285 2.445,-0.579 3.804,-0.883 1.36,-0.305 2.629,-0.772 3.807,-1.401 1.176,-0.63 2.15,-1.491 2.922,-2.588 0.771,-1.096 1.158,-2.598 1.158,-4.505 0,-1.746 -0.377,-3.218 -1.127,-4.414 -0.752,-1.198 -1.726,-2.162 -2.924,-2.893 -1.197,-0.731 -2.546,-1.258 -4.048,-1.583 -1.502,-0.324 -3.004,-0.487 -4.506,-0.487 -2.273,0 -4.363,0.325 -6.271,0.974 -1.909,0.649 -3.614,1.827 -5.115,3.531 l 4.873,4.567 c 0.931,-1.056 1.937,-1.918 3.013,-2.588 1.074,-0.669 2.383,-1.004 3.927,-1.004 0.526,0 1.075,0.061 1.643,0.183 0.568,0.121 1.096,0.324 1.584,0.609 0.486,0.283 0.883,0.639 1.187,1.065 0.305,0.426 0.458,0.923 0.458,1.492 0,1.014 -0.387,1.765 -1.159,2.253 -0.771,0.486 -1.746,0.882 -2.922,1.187 -1.177,0.304 -2.446,0.588 -3.806,0.852 -1.359,0.264 -2.627,0.69 -3.804,1.279 -1.178,0.588 -2.153,1.41 -2.922,2.466 -0.772,1.055 -1.158,2.516 -1.158,4.384 0,1.623 0.335,3.034 1.005,4.232 0.67,1.196 1.553,2.181 2.649,2.953 1.096,0.77 2.353,1.34 3.775,1.705 1.42,0.365 2.862,0.548 4.322,0.548 1.949,0 3.875,-0.335 5.785,-1.005 1.906,-0.67 3.449,-1.817 4.627,-3.44 z" />
          </g>
          <g
             transform="translate(329.3818,92.015)"
             id="g82">
            <path
               inkscape:connector-curvature="0"
               id="path84"
               style="fill:#4ebcd3;fill-opacity:1;fill-rule:nonzero;stroke:none"
               d="m 0,0 c 0,-2.313 0.355,-4.445 1.066,-6.393 0.709,-1.949 1.714,-3.633 3.014,-5.054 1.299,-1.421 2.852,-2.537 4.658,-3.349 1.806,-0.812 3.825,-1.218 6.058,-1.218 2.232,0 4.263,0.406 6.089,1.218 1.827,0.812 3.389,1.928 4.688,3.349 1.299,1.421 2.304,3.105 3.015,5.054 0.709,1.948 1.065,4.08 1.065,6.393 0,2.151 -0.356,4.161 -1.065,6.028 -0.711,1.867 -1.716,3.501 -3.015,4.902 -1.299,1.4 -2.861,2.496 -4.688,3.287 -1.826,0.792 -3.857,1.188 -6.089,1.188 -2.233,0 -4.252,-0.396 -6.058,-1.188 C 6.932,13.426 5.379,12.33 4.08,10.93 2.78,9.529 1.775,7.895 1.066,6.028 0.355,4.161 0,2.151 0,0 m -8.037,-0.487 c 0,3.449 0.568,6.586 1.705,9.407 1.136,2.821 2.71,5.226 4.719,7.215 2.009,1.989 4.404,3.522 7.184,4.597 2.781,1.076 5.835,1.614 9.164,1.614 3.369,0.04 6.454,-0.456 9.255,-1.492 2.801,-1.035 5.216,-2.547 7.246,-4.536 2.03,-1.989 3.613,-4.384 4.749,-7.185 1.136,-2.8 1.705,-5.927 1.705,-9.377 0,-3.369 -0.569,-6.434 -1.705,-9.194 -1.136,-2.761 -2.719,-5.135 -4.749,-7.124 -2.03,-1.989 -4.445,-3.542 -7.246,-4.658 -2.801,-1.115 -5.886,-1.694 -9.255,-1.735 -3.329,0 -6.383,0.538 -9.164,1.614 -2.78,1.075 -5.175,2.597 -7.184,4.566 -2.009,1.969 -3.583,4.333 -4.719,7.094 -1.137,2.76 -1.705,5.824 -1.705,9.194" />
          </g>
          <g
             transform="translate(371.2734,99.3827)"
             id="g86">
            <path
               inkscape:connector-curvature="0"
               id="path88"
               style="fill:#4ebcd3;fill-opacity:1;fill-rule:nonzero;stroke:none"
               d="m 0,0 h 6.941 v -4.688 h 0.121 c 0.691,1.461 1.746,2.729 3.167,3.805 1.42,1.075 3.349,1.613 5.785,1.613 1.948,0 3.601,-0.325 4.962,-0.974 1.359,-0.65 2.465,-1.502 3.318,-2.557 0.852,-1.056 1.462,-2.274 1.827,-3.653 0.365,-1.381 0.548,-2.822 0.548,-4.323 v -18.45 h -7.307 v 14.796 c 0,0.812 -0.041,1.715 -0.122,2.71 -0.081,0.994 -0.295,1.928 -0.638,2.801 -0.346,0.872 -0.883,1.603 -1.615,2.191 -0.73,0.589 -1.725,0.884 -2.983,0.884 -1.218,0 -2.243,-0.204 -3.074,-0.609 C 10.097,-6.86 9.407,-7.409 8.859,-8.098 8.312,-8.789 7.915,-9.581 7.672,-10.473 7.428,-11.366 7.307,-12.3 7.307,-13.274 V -29.227 H 0 Z" />
          </g>
          <g
             transform="translate(407.8662,113.265)"
             id="g90">
            <path
               inkscape:connector-curvature="0"
               id="path92"
               style="fill:#686e71;fill-opacity:1;fill-rule:nonzero;stroke:none"
               d="M 0,0 H 28.557 V -6.941 H 7.672 V -17.536 H 27.46 v -6.941 H 7.672 v -11.69 h 21.98 v -6.942 H 0 Z" />
          </g>
          <g
             transform="translate(447.8076,84.7694)"
             id="g94">
            <path
               inkscape:connector-curvature="0"
               id="path96"
               style="fill:#686e71;fill-opacity:1;fill-rule:nonzero;stroke:none"
               d="m 0,0 c 0,-1.137 0.192,-2.233 0.579,-3.288 0.385,-1.056 0.953,-1.989 1.704,-2.801 0.751,-0.812 1.655,-1.461 2.71,-1.948 1.055,-0.487 2.253,-0.731 3.593,-0.731 1.339,0 2.536,0.244 3.592,0.731 1.055,0.487 1.958,1.136 2.71,1.948 0.751,0.812 1.318,1.745 1.705,2.801 0.385,1.055 0.578,2.151 0.578,3.288 0,1.136 -0.193,2.232 -0.578,3.288 C 16.206,4.343 15.639,5.276 14.888,6.089 14.136,6.9 13.233,7.55 12.178,8.037 11.122,8.524 9.925,8.768 8.586,8.768 7.246,8.768 6.048,8.524 4.993,8.037 3.938,7.55 3.034,6.9 2.283,6.089 1.532,5.276 0.964,4.343 0.579,3.288 0.192,2.232 0,1.136 0,0 m 17.293,-10.229 h -0.122 c -1.056,-1.787 -2.477,-3.085 -4.263,-3.897 -1.786,-0.812 -3.714,-1.218 -5.784,-1.218 -2.273,0 -4.292,0.396 -6.059,1.187 -1.765,0.792 -3.278,1.877 -4.536,3.258 -1.258,1.379 -2.213,3.003 -2.861,4.871 -0.649,1.866 -0.975,3.876 -0.975,6.028 0,2.151 0.345,4.16 1.036,6.028 0.69,1.867 1.654,3.491 2.892,4.871 1.237,1.379 2.73,2.466 4.476,3.257 1.744,0.792 3.653,1.188 5.723,1.188 1.379,0 2.597,-0.143 3.654,-0.427 1.054,-0.284 1.988,-0.649 2.8,-1.095 0.812,-0.447 1.501,-0.924 2.07,-1.431 0.568,-0.508 1.035,-1.005 1.401,-1.492 h 0.183 v 20.519 h 7.306 v -46.031 h -6.941 z" />
          </g>
          <g
             transform="translate(492.3779,93.5374)"
             id="g98">
            <path
               inkscape:connector-curvature="0"
               id="path100"
               style="fill:#686e71;fill-opacity:1;fill-rule:nonzero;stroke:none"
               d="m 0,0 c -1.3,0 -2.477,-0.213 -3.531,-0.64 -1.057,-0.426 -1.959,-1.015 -2.71,-1.765 -0.751,-0.752 -1.34,-1.665 -1.766,-2.741 -0.426,-1.075 -0.639,-2.263 -0.639,-3.561 0,-1.178 0.213,-2.274 0.639,-3.288 0.426,-1.015 1.025,-1.909 1.796,-2.679 0.771,-0.772 1.685,-1.381 2.74,-1.827 1.055,-0.447 2.193,-0.67 3.41,-0.67 1.339,0 2.547,0.223 3.623,0.67 1.075,0.446 1.989,1.044 2.74,1.796 0.751,0.751 1.329,1.654 1.735,2.71 0.405,1.055 0.609,2.192 0.609,3.41 0,2.557 -0.771,4.627 -2.314,6.21 C 4.789,-0.792 2.679,0 0,0 m 15.588,5.845 v -26.608 c 0,-2.638 -0.326,-5.024 -0.975,-7.154 -0.649,-2.132 -1.654,-3.938 -3.013,-5.419 -1.361,-1.482 -3.076,-2.628 -5.146,-3.441 -2.07,-0.811 -4.526,-1.218 -7.367,-1.218 -2.721,0 -5.298,0.346 -7.733,1.036 -2.436,0.69 -4.689,1.948 -6.758,3.774 l 4.383,5.968 c 1.461,-1.34 2.984,-2.375 4.567,-3.106 1.583,-0.73 3.41,-1.095 5.479,-1.095 1.746,0 3.217,0.243 4.415,0.73 1.197,0.487 2.151,1.157 2.862,2.009 0.71,0.853 1.218,1.878 1.522,3.075 0.305,1.198 0.457,2.527 0.457,3.988 v 2.132 H 8.159 c -1.056,-1.422 -2.457,-2.487 -4.201,-3.197 -1.746,-0.71 -3.532,-1.066 -5.358,-1.066 -2.193,0 -4.182,0.396 -5.967,1.187 -1.787,0.792 -3.319,1.858 -4.598,3.197 -1.278,1.34 -2.263,2.923 -2.953,4.75 -0.69,1.826 -1.035,3.775 -1.035,5.845 0,2.151 0.325,4.16 0.974,6.028 0.649,1.866 1.604,3.49 2.862,4.871 1.258,1.379 2.77,2.466 4.536,3.257 1.767,0.792 3.785,1.188 6.059,1.188 2.07,0 3.998,-0.407 5.784,-1.218 C 6.048,4.545 7.469,3.247 8.524,1.461 h 0.122 v 4.384 z" />
          </g>
          <g
             transform="translate(534.6328,87.6917)"
             id="g102">
            <path
               inkscape:connector-curvature="0"
               id="path104"
               style="fill:#686e71;fill-opacity:1;fill-rule:nonzero;stroke:none"
               d="m 0,0 c -0.041,2.151 -0.71,3.846 -2.009,5.084 -1.3,1.238 -3.105,1.857 -5.419,1.857 -2.192,0 -3.927,-0.629 -5.206,-1.887 C -13.913,3.795 -14.694,2.11 -14.979,0 Z m -14.979,-5.48 c 0.245,-2.192 1.097,-3.896 2.558,-5.114 1.461,-1.218 3.228,-1.827 5.297,-1.827 1.827,0 3.358,0.375 4.598,1.127 1.237,0.75 2.323,1.694 3.257,2.831 l 5.237,-3.958 c -1.705,-2.111 -3.614,-3.613 -5.724,-4.506 -2.111,-0.892 -4.323,-1.339 -6.637,-1.339 -2.192,0 -4.262,0.365 -6.211,1.096 -1.948,0.731 -3.633,1.765 -5.053,3.105 -1.422,1.339 -2.548,2.953 -3.379,4.84 -0.833,1.888 -1.249,3.989 -1.249,6.303 0,2.313 0.416,4.414 1.249,6.301 0.831,1.888 1.957,3.501 3.379,4.841 1.42,1.34 3.105,2.375 5.053,3.106 1.949,0.73 4.019,1.095 6.211,1.095 2.03,0 3.886,-0.356 5.572,-1.065 C 0.862,10.645 2.304,9.621 3.501,8.281 4.698,6.941 5.633,5.287 6.303,3.319 6.972,1.349 7.307,-0.913 7.307,-3.47 v -2.01 z" />
          </g>
        </g>
      </g>
    </g>
  </g>
</svg>
