<svg width="246" height="308" viewBox="0 0 246 308" fill="none" xmlns="http://www.w3.org/2000/svg">
    <path fill-rule="evenodd" clip-rule="evenodd" d="M42.4334 214H0V212.5H42.4334V214Z" fill="#91A3BE"/>
    <path d="M42 214C42 199.555 44.8452 185.251 50.3732 171.905C55.9013 158.559 64.0038 146.433 74.2183 136.218C84.4327 126.004 96.559 117.901 109.905 112.373C123.251 106.845 137.555 104 152 104V105.499C137.751 105.499 123.642 108.305 110.478 113.758C97.3144 119.211 85.3533 127.203 75.2781 137.278C65.2028 147.353 57.2107 159.314 51.758 172.478C46.3053 185.642 43.4988 199.751 43.4988 214H42Z" fill="#91A3BE"/>
    <path fill-rule="evenodd" clip-rule="evenodd" d="M151.5 105.5L151.5 23.5L153 23.5L153 105.5L151.5 105.5Z" fill="#91A3BE"/>
    <path d="M164 12C164 18.6274 158.627 24 152 24C145.373 24 140 18.6274 140 12C140 5.37258 145.373 0 152 0C158.627 0 164 5.37258 164 12Z" fill="#F4F8FE"/>
    <path fill-rule="evenodd" clip-rule="evenodd" d="M152 22.5C157.799 22.5 162.5 17.799 162.5 12C162.5 6.20101 157.799 1.5 152 1.5C146.201 1.5 141.5 6.20101 141.5 12C141.5 17.799 146.201 22.5 152 22.5ZM152 24C158.627 24 164 18.6274 164 12C164 5.37258 158.627 0 152 0C145.373 0 140 5.37258 140 12C140 18.6274 145.373 24 152 24Z" fill="#91A3BE"/>
    <rect x="58.75" y="120.75" width="186.5" height="186.5" rx="93.25" stroke="#91A3BE" stroke-width="1.5"/>
    <g clip-path="url(#clip0_13788_1284)">
        <path d="M160.269 258.124H186.786C187.879 258.124 188.738 257.16 188.582 256.077C187.59 249.165 181.644 243.853 174.454 243.853C170.908 243.853 167.666 245.149 165.171 247.291C163.017 242.139 157.931 238.52 152 238.52C146.069 238.52 140.983 242.139 138.829 247.291C136.334 245.149 133.092 243.853 129.546 243.853C122.356 243.853 116.41 249.165 115.417 256.077C115.262 257.16 116.12 258.124 117.214 258.124H143.76" stroke="#305680" stroke-width="4" stroke-miterlimit="10" stroke-linecap="round" stroke-linejoin="round"/>
        <circle cx="152" cy="258" r="2" fill="#305680"/>
        <path d="M152.096 207.678V237.86" stroke="#305680" stroke-width="4" stroke-miterlimit="10" stroke-linecap="round" stroke-linejoin="round"/>
        <path d="M148.153 219.612C150.856 222.315 152.15 225.954 152.094 229.763C148.285 229.818 144.646 228.524 141.943 225.821C139.241 223.119 137.946 219.479 138.002 215.67C141.811 215.615 145.45 216.909 148.153 219.612Z" stroke="#305680" stroke-width="4" stroke-miterlimit="10" stroke-linecap="round" stroke-linejoin="round"/>
        <path d="M156.039 211.46C153.336 214.163 152.042 217.802 152.098 221.611C155.907 221.667 159.546 220.373 162.249 217.67C164.951 214.968 166.246 211.328 166.19 207.519C162.381 207.463 158.741 208.758 156.039 211.46Z" stroke="#305680" stroke-width="4" stroke-miterlimit="10" stroke-linecap="round" stroke-linejoin="round"/>
        <path d="M126.77 224.223V244.153" stroke="#305680" stroke-width="4" stroke-miterlimit="10" stroke-linecap="round" stroke-linejoin="round"/>
        <path d="M123.129 226.284C125.625 228.78 126.82 232.14 126.768 235.657C123.251 235.708 119.891 234.514 117.395 232.018C114.9 229.523 113.705 226.162 113.756 222.645C117.273 222.593 120.634 223.789 123.129 226.284Z" stroke="#305680" stroke-width="4" stroke-miterlimit="10" stroke-linecap="round" stroke-linejoin="round"/>
        <path d="M177.64 224.799V243.834" stroke="#305680" stroke-width="4" stroke-miterlimit="10" stroke-linecap="round" stroke-linejoin="round"/>
        <path d="M181.166 226.796C178.749 229.213 177.592 232.467 177.642 235.873C181.048 235.923 184.302 234.766 186.719 232.349C189.136 229.932 190.294 226.677 190.244 223.271C186.838 223.221 183.583 224.379 181.166 226.796Z" stroke="#305680" stroke-width="4" stroke-miterlimit="10" stroke-linecap="round" stroke-linejoin="round"/>
        <path d="M194.399 177.078H109.601C108.606 177.078 107.8 176.272 107.8 175.277V171.676C107.8 170.682 108.606 169.876 109.601 169.876H194.399C195.394 169.876 196.2 170.682 196.2 171.676V175.277C196.2 176.272 195.394 177.078 194.399 177.078Z" stroke="#305680" stroke-width="4" stroke-miterlimit="10" stroke-linecap="round" stroke-linejoin="round"/>
        <path d="M157.86 192.032C157.86 195.031 155.429 197.462 152.43 197.462C149.431 197.462 147 195.031 147 192.032C147 189.033 152.43 183.089 152.43 183.089C152.43 183.089 157.86 189.033 157.86 192.032Z" stroke="#305680" stroke-width="4" stroke-miterlimit="10" stroke-linecap="round" stroke-linejoin="round"/>
        <path d="M185.864 197.512C185.864 200.511 183.433 202.942 180.434 202.942C177.435 202.942 175.004 200.511 175.004 197.512C175.004 194.513 180.434 188.569 180.434 188.569C180.434 188.569 185.864 194.513 185.864 197.512Z" stroke="#305680" stroke-width="4" stroke-miterlimit="10" stroke-linecap="round" stroke-linejoin="round"/>
        <path d="M130.856 197.512C130.856 200.511 128.425 202.942 125.426 202.942C122.427 202.942 119.996 200.511 119.996 197.512C119.996 194.513 125.426 188.569 125.426 188.569C125.426 188.569 130.856 194.513 130.856 197.512Z" stroke="#305680" stroke-width="4" stroke-miterlimit="10" stroke-linecap="round" stroke-linejoin="round"/>
    </g>
    <defs>
        <clipPath id="clip0_13788_1284">
            <rect width="92" height="92" fill="white" transform="translate(106 168)"/>
        </clipPath>
    </defs>
</svg>
