<svg width="273" height="232" viewBox="0 0 273 232" fill="none" xmlns="http://www.w3.org/2000/svg">
    <g clip-path="url(#clip0_13971_2745)">
        <path fill-rule="evenodd" clip-rule="evenodd" d="M83.5113 38.3627V0.779785L84.8398 0.779785V38.3627H83.5113Z" fill="#91A3BE"/>
        <path d="M83.5117 37.9788C96.3059 37.9788 108.975 40.4988 120.795 45.3949C132.615 50.291 143.355 57.4674 152.402 66.5142C161.449 75.561 168.625 86.3012 173.522 98.1215C178.418 109.942 180.938 122.611 180.938 135.405H179.61C179.61 122.785 177.125 110.289 172.295 98.6295C167.466 86.9703 160.387 76.3765 151.464 67.4529C142.54 58.5293 131.946 51.4508 120.287 46.6214C108.628 41.792 96.1316 39.3063 83.5117 39.3063V37.9788Z" fill="#91A3BE"/>
        <path fill-rule="evenodd" clip-rule="evenodd" d="M179.608 134.962L252.234 134.962L252.234 136.291L179.608 136.291L179.608 134.962Z" fill="#91A3BE"/>
        <path d="M262.421 146.033C256.551 146.033 251.792 141.274 251.792 135.405C251.792 129.535 256.551 124.776 262.421 124.776C268.29 124.776 273.049 129.535 273.049 135.405C273.049 141.274 268.29 146.033 262.421 146.033Z" fill="#F4F8FE"/>
        <path fill-rule="evenodd" clip-rule="evenodd" d="M253.121 135.405C253.121 140.541 257.284 144.704 262.421 144.704C267.557 144.704 271.72 140.541 271.72 135.405C271.72 130.269 267.557 126.105 262.421 126.105C257.284 126.105 253.121 130.269 253.121 135.405ZM251.792 135.405C251.792 141.274 256.551 146.033 262.421 146.033C268.29 146.033 273.049 141.274 273.049 135.405C273.049 129.535 268.29 124.776 262.421 124.776C256.551 124.776 251.792 129.535 251.792 135.405Z" fill="#91A3BE"/>
        <rect x="166.101" y="52.8142" width="164.698" height="164.698" rx="82.3489" transform="rotate(90 166.101 52.8142)" stroke="#91A3BE" stroke-width="1.32854"/>
        <g clip-path="url(#clip1_13971_2745)">
            <path d="M91.0331 174.011H114.379C115.342 174.011 116.098 173.163 115.961 172.209C115.087 166.123 109.852 161.446 103.522 161.446C100.4 161.446 97.5454 162.588 95.3483 164.474C93.4523 159.938 88.9742 156.751 83.7523 156.751C78.5304 156.751 74.0524 159.938 72.1564 164.474C69.9593 162.588 67.1048 161.446 63.9832 161.446C57.653 161.446 52.418 166.123 51.5439 172.209C51.407 173.163 52.1627 174.011 53.1259 174.011H76.4976" stroke="#305680" stroke-width="3.52174" stroke-miterlimit="10" stroke-linecap="round" stroke-linejoin="round"/>
            <circle cx="83.7523" cy="173.902" r="1.76087" fill="#305680"/>
            <path d="M83.8372 129.597V156.17" stroke="#305680" stroke-width="3.52174" stroke-miterlimit="10" stroke-linecap="round" stroke-linejoin="round"/>
            <path d="M80.3654 140.103C82.7452 142.483 83.8844 145.687 83.8356 149.041C80.4821 149.09 77.2778 147.951 74.8982 145.571C72.5191 143.192 71.3792 139.987 71.428 136.633C74.7815 136.585 77.9862 137.724 80.3654 140.103Z" stroke="#305680" stroke-width="3.52174" stroke-miterlimit="10" stroke-linecap="round" stroke-linejoin="round"/>
            <path d="M87.3088 132.927C84.9291 135.306 83.7898 138.511 83.8387 141.864C87.1922 141.913 90.3965 140.774 92.7761 138.394C95.1552 136.015 96.2951 132.81 96.2462 129.457C92.8928 129.408 89.6879 130.548 87.3088 132.927Z" stroke="#305680" stroke-width="3.52174" stroke-miterlimit="10" stroke-linecap="round" stroke-linejoin="round"/>
            <path d="M61.5391 144.164V161.711" stroke="#305680" stroke-width="3.52174" stroke-miterlimit="10" stroke-linecap="round" stroke-linejoin="round"/>
            <path d="M58.3332 145.979C60.5305 148.176 61.5826 151.134 61.5374 154.231C58.4409 154.276 55.4822 153.224 53.2849 151.027C51.0881 148.83 50.0356 145.871 50.0807 142.774C53.1773 142.729 56.1364 143.782 58.3332 145.979Z" stroke="#305680" stroke-width="3.52174" stroke-miterlimit="10" stroke-linecap="round" stroke-linejoin="round"/>
            <path d="M106.327 144.671V161.43" stroke="#305680" stroke-width="3.52174" stroke-miterlimit="10" stroke-linecap="round" stroke-linejoin="round"/>
            <path d="M109.431 146.429C107.303 148.557 106.285 151.422 106.328 154.421C109.327 154.465 112.193 153.446 114.321 151.318C116.448 149.19 117.468 146.324 117.424 143.326C114.425 143.282 111.559 144.301 109.431 146.429Z" stroke="#305680" stroke-width="3.52174" stroke-miterlimit="10" stroke-linecap="round" stroke-linejoin="round"/>
            <path d="M121.082 102.655H46.4225C45.5471 102.655 44.8374 101.946 44.8374 101.07V97.9001C44.8374 97.0246 45.5471 96.3149 46.4225 96.3149H121.082C121.957 96.3149 122.667 97.0246 122.667 97.9001V101.07C122.667 101.946 121.957 102.655 121.082 102.655Z" stroke="#305680" stroke-width="3.52174" stroke-miterlimit="10" stroke-linecap="round" stroke-linejoin="round"/>
            <path d="M88.9121 115.821C88.9121 118.462 86.7716 120.603 84.131 120.603C81.4906 120.603 79.3501 118.462 79.3501 115.821C79.3501 113.181 84.131 107.948 84.131 107.948C84.131 107.948 88.9121 113.181 88.9121 115.821Z" stroke="#305680" stroke-width="3.52174" stroke-miterlimit="10" stroke-linecap="round" stroke-linejoin="round"/>
            <path d="M113.568 120.646C113.568 123.287 111.427 125.427 108.787 125.427C106.146 125.427 104.006 123.287 104.006 120.646C104.006 118.006 108.787 112.772 108.787 112.772C108.787 112.772 113.568 118.006 113.568 120.646Z" stroke="#305680" stroke-width="3.52174" stroke-miterlimit="10" stroke-linecap="round" stroke-linejoin="round"/>
            <path d="M65.1369 120.646C65.1369 123.287 62.9964 125.427 60.3558 125.427C57.7154 125.427 55.575 123.287 55.575 120.646C55.575 118.006 60.3558 112.772 60.3558 112.772C60.3558 112.772 65.1369 118.006 65.1369 120.646Z" stroke="#305680" stroke-width="3.52174" stroke-miterlimit="10" stroke-linecap="round" stroke-linejoin="round"/>
        </g>
    </g>
    <defs>
        <clipPath id="clip0_13971_2745">
            <rect width="232" height="273" fill="white" transform="matrix(0 1 -1 0 273 0)"/>
        </clipPath>
        <clipPath id="clip1_13971_2745">
            <rect width="81" height="81" fill="white" transform="translate(43.2524 94.6631)"/>
        </clipPath>
    </defs>
</svg>
