<svg width="246" height="308" viewBox="0 0 246 308" fill="none" xmlns="http://www.w3.org/2000/svg">
    <path fill-rule="evenodd" clip-rule="evenodd" d="M42.4334 214H0V212.5H42.4334V214Z" fill="#91A3BE"/>
    <path d="M42 214C42 199.555 44.8452 185.251 50.3732 171.905C55.9013 158.559 64.0038 146.433 74.2183 136.218C84.4327 126.004 96.559 117.901 109.905 112.373C123.251 106.845 137.555 104 152 104V105.499C137.751 105.499 123.642 108.305 110.478 113.758C97.3144 119.211 85.3533 127.203 75.2781 137.278C65.2028 147.353 57.2107 159.314 51.758 172.478C46.3053 185.642 43.4988 199.751 43.4988 214H42Z" fill="#91A3BE"/>
    <path fill-rule="evenodd" clip-rule="evenodd" d="M151.5 105.5L151.5 23.5L153 23.5L153 105.5L151.5 105.5Z" fill="#91A3BE"/>
    <path d="M164 12C164 18.6274 158.627 24 152 24C145.373 24 140 18.6274 140 12C140 5.37258 145.373 0 152 0C158.627 0 164 5.37258 164 12Z" fill="#F4F8FE"/>
    <path fill-rule="evenodd" clip-rule="evenodd" d="M152 22.5C157.799 22.5 162.5 17.799 162.5 12C162.5 6.20101 157.799 1.5 152 1.5C146.201 1.5 141.5 6.20101 141.5 12C141.5 17.799 146.201 22.5 152 22.5ZM152 24C158.627 24 164 18.6274 164 12C164 5.37258 158.627 0 152 0C145.373 0 140 5.37258 140 12C140 18.6274 145.373 24 152 24Z" fill="#91A3BE"/>
    <rect x="58.75" y="120.75" width="186.5" height="186.5" rx="93.25" stroke="#91A3BE" stroke-width="1.5"/>
    <g clip-path="url(#clip0_13788_343)">
        <mask id="mask0_13788_343" style="mask-type:luminance" maskUnits="userSpaceOnUse" x="106" y="168" width="93" height="92">
            <path d="M106 168H198V260H106V168Z" fill="white"/>
        </mask>
        <g mask="url(#mask0_13788_343)">
            <path d="M108 214.5C109.104 214.5 110 215.396 110 216.5C110 217.604 109.104 218.5 108 218.5C106.896 218.5 106 217.604 106 216.5C106 215.396 106.896 214.5 108 214.5Z" fill="#305680"/>
            <path d="M108 221.7C109.104 221.7 110 222.596 110 223.7C110 224.804 109.104 225.7 108 225.7C106.896 225.7 106 224.804 106 223.7C106 222.596 106.896 221.7 108 221.7Z" fill="#305680"/>
            <path d="M134.031 216.516H155.593" stroke="#305680" stroke-width="4" stroke-miterlimit="10" stroke-linecap="round" stroke-linejoin="round"/>
            <path d="M152 216.516V251.016C152 254.985 148.781 258.203 144.812 258.203C140.843 258.203 137.625 254.985 137.625 251.016V216.516" stroke="#305680" stroke-width="4" stroke-miterlimit="10" stroke-linecap="round" stroke-linejoin="round"/>
            <path d="M137.625 227.297H152" stroke="#305680" stroke-width="4" stroke-miterlimit="10" stroke-linecap="round" stroke-linejoin="round"/>
            <path d="M144.812 209.328H148.406C154.285 209.328 159.505 206.505 162.781 202.141C165.038 199.138 166.375 195.406 166.375 191.359H162.781C152.857 191.359 144.812 199.404 144.812 209.328Z" stroke="#305680" stroke-width="4" stroke-miterlimit="10" stroke-linecap="round" stroke-linejoin="round"/>
            <path d="M154.593 202.141H176.862L182.705 191.359" stroke="#305680" stroke-width="4" stroke-miterlimit="10" stroke-linecap="round" stroke-linejoin="round"/>
            <path d="M144.812 209.328H141.218C131.294 209.328 123.25 201.284 123.25 191.359H126.843C136.768 191.359 144.812 199.404 144.812 209.328Z" stroke="#305680" stroke-width="4" stroke-miterlimit="10" stroke-linecap="round" stroke-linejoin="round"/>
            <path d="M152 181.578C152 187.533 144.812 192.359 144.812 192.359C144.812 192.359 137.625 187.533 137.625 181.578C137.625 175.623 144.812 170.797 144.812 170.797C144.812 170.797 152 175.623 152 181.578Z" stroke="#305680" stroke-width="4" stroke-miterlimit="10" stroke-linecap="round" stroke-linejoin="round"/>
            <path d="M179.203 183.022L182.702 176.988L178.537 169.797H170.204L166.039 177.013L170.204 184.172H178.537L178.538 184.168" stroke="#305680" stroke-width="4" stroke-miterlimit="10" stroke-linecap="round" stroke-linejoin="round"/>
            <path d="M191.038 191.359L195.203 184.224L191.038 176.984H182.705L178.538 184.168L182.705 191.359H191.038Z" stroke="#305680" stroke-width="4" stroke-miterlimit="10" stroke-linecap="round" stroke-linejoin="round"/>
            <path d="M137.625 238.078H130.437L123.25 230.891" stroke="#305680" stroke-width="4" stroke-miterlimit="10" stroke-linecap="round" stroke-linejoin="round"/>
            <path d="M114.984 216.516H126.843" stroke="#305680" stroke-width="4" stroke-miterlimit="10" stroke-linecap="round" stroke-linejoin="round"/>
            <path d="M114.984 223.703H126.843" stroke="#305680" stroke-width="4" stroke-miterlimit="10" stroke-linecap="round" stroke-linejoin="round"/>
            <path d="M166.081 176.984H158.187" stroke="#305680" stroke-width="4" stroke-miterlimit="10" stroke-linecap="round" stroke-linejoin="round"/>
            <path d="M192.038 191.359L195.831 194.953" stroke="#305680" stroke-width="4" stroke-miterlimit="10" stroke-linecap="round" stroke-linejoin="round"/>
            <path d="M144.812 239.336V180.578" stroke="#305680" stroke-width="4" stroke-miterlimit="10" stroke-linecap="round" stroke-linejoin="round"/>
            <path d="M142.7 248C142.7 249.105 143.596 250 144.7 250C145.805 250 146.7 249.105 146.7 248C146.7 246.895 145.805 246 144.7 246C143.596 246 142.7 246.895 142.7 248Z" fill="#305680"/>
        </g>
    </g>
    <defs>
        <clipPath id="clip0_13788_343">
            <rect width="92" height="92" fill="white" transform="translate(106 168)"/>
        </clipPath>
    </defs>
</svg>
