<svg width="200" height="160" viewBox="0 0 200 160" fill="none" xmlns="http://www.w3.org/2000/svg">
<g clip-path="url(#clip0_4624_38022)">
<path d="M2.84766 1.28125V7H2.125V2.18359L0.667969 2.71484V2.0625L2.73438 1.28125H2.84766ZM8.67517 3.70312V4.57031C8.67517 5.03646 8.63351 5.42969 8.55017 5.75C8.46684 6.07031 8.34705 6.32812 8.1908 6.52344C8.03455 6.71875 7.84575 6.86068 7.62439 6.94922C7.40564 7.03516 7.15825 7.07812 6.8822 7.07812C6.66345 7.07812 6.46163 7.05078 6.27673 6.99609C6.09184 6.94141 5.92517 6.85417 5.77673 6.73438C5.6309 6.61198 5.5059 6.45312 5.40173 6.25781C5.29757 6.0625 5.21814 5.82552 5.16345 5.54688C5.10877 5.26823 5.08142 4.94271 5.08142 4.57031V3.70312C5.08142 3.23698 5.12309 2.84635 5.20642 2.53125C5.29236 2.21615 5.41345 1.96354 5.5697 1.77344C5.72595 1.58073 5.91345 1.44271 6.1322 1.35938C6.35356 1.27604 6.60095 1.23438 6.87439 1.23438C7.09575 1.23438 7.29887 1.26172 7.48377 1.31641C7.67127 1.36849 7.83793 1.45312 7.98377 1.57031C8.1296 1.6849 8.2533 1.83854 8.35486 2.03125C8.45903 2.22135 8.53845 2.45443 8.59314 2.73047C8.64783 3.00651 8.67517 3.33073 8.67517 3.70312ZM7.94861 4.6875V3.58203C7.94861 3.32682 7.93298 3.10286 7.90173 2.91016C7.87309 2.71484 7.83012 2.54818 7.77283 2.41016C7.71554 2.27214 7.64262 2.16016 7.55408 2.07422C7.46814 1.98828 7.36788 1.92578 7.2533 1.88672C7.14132 1.84505 7.01502 1.82422 6.87439 1.82422C6.70252 1.82422 6.55017 1.85677 6.41736 1.92188C6.28455 1.98438 6.17257 2.08464 6.08142 2.22266C5.99288 2.36068 5.92517 2.54167 5.8783 2.76562C5.83142 2.98958 5.80798 3.26172 5.80798 3.58203V4.6875C5.80798 4.94271 5.82231 5.16797 5.85095 5.36328C5.8822 5.55859 5.92778 5.72786 5.98767 5.87109C6.04757 6.01172 6.12048 6.1276 6.20642 6.21875C6.29236 6.3099 6.39132 6.3776 6.5033 6.42188C6.61788 6.46354 6.74418 6.48438 6.8822 6.48438C7.05929 6.48438 7.21423 6.45052 7.34705 6.38281C7.47986 6.3151 7.59054 6.20964 7.67908 6.06641C7.77022 5.92057 7.83793 5.73438 7.8822 5.50781C7.92647 5.27865 7.94861 5.00521 7.94861 4.6875ZM13.3074 3.70312V4.57031C13.3074 5.03646 13.2657 5.42969 13.1824 5.75C13.099 6.07031 12.9793 6.32812 12.823 6.52344C12.6668 6.71875 12.4779 6.86068 12.2566 6.94922C12.0378 7.03516 11.7904 7.07812 11.5144 7.07812C11.2957 7.07812 11.0938 7.05078 10.9089 6.99609C10.724 6.94141 10.5574 6.85417 10.4089 6.73438C10.2631 6.61198 10.1381 6.45312 10.0339 6.25781C9.92977 6.0625 9.85034 5.82552 9.79566 5.54688C9.74097 5.26823 9.71363 4.94271 9.71363 4.57031V3.70312C9.71363 3.23698 9.75529 2.84635 9.83863 2.53125C9.92456 2.21615 10.0457 1.96354 10.2019 1.77344C10.3582 1.58073 10.5457 1.44271 10.7644 1.35938C10.9858 1.27604 11.2332 1.23438 11.5066 1.23438C11.7279 1.23438 11.9311 1.26172 12.116 1.31641C12.3035 1.36849 12.4701 1.45312 12.616 1.57031C12.7618 1.6849 12.8855 1.83854 12.9871 2.03125C13.0912 2.22135 13.1707 2.45443 13.2253 2.73047C13.28 3.00651 13.3074 3.33073 13.3074 3.70312ZM12.5808 4.6875V3.58203C12.5808 3.32682 12.5652 3.10286 12.5339 2.91016C12.5053 2.71484 12.4623 2.54818 12.405 2.41016C12.3477 2.27214 12.2748 2.16016 12.1863 2.07422C12.1003 1.98828 12.0001 1.92578 11.8855 1.88672C11.7735 1.84505 11.6472 1.82422 11.5066 1.82422C11.3347 1.82422 11.1824 1.85677 11.0496 1.92188C10.9168 1.98438 10.8048 2.08464 10.7136 2.22266C10.6251 2.36068 10.5574 2.54167 10.5105 2.76562C10.4636 2.98958 10.4402 3.26172 10.4402 3.58203V4.6875C10.4402 4.94271 10.4545 5.16797 10.4832 5.36328C10.5144 5.55859 10.56 5.72786 10.6199 5.87109C10.6798 6.01172 10.7527 6.1276 10.8386 6.21875C10.9246 6.3099 11.0235 6.3776 11.1355 6.42188C11.2501 6.46354 11.3764 6.48438 11.5144 6.48438C11.6915 6.48438 11.8464 6.45052 11.9793 6.38281C12.1121 6.3151 12.2227 6.20964 12.3113 6.06641C12.4024 5.92057 12.4701 5.73438 12.5144 5.50781C12.5587 5.27865 12.5808 5.00521 12.5808 4.6875Z" fill="black" fill-opacity="0.76"/>
<path d="M8.05859 33.6677C8.05859 34.0141 7.97786 34.3083 7.81641 34.5505C7.65755 34.7901 7.44141 34.9724 7.16797 35.0974C6.89714 35.2224 6.59115 35.2849 6.25 35.2849C5.90885 35.2849 5.60156 35.2224 5.32812 35.0974C5.05469 34.9724 4.83854 34.7901 4.67969 34.5505C4.52083 34.3083 4.44141 34.0141 4.44141 33.6677C4.44141 33.4412 4.48438 33.2341 4.57031 33.0466C4.65885 32.8565 4.78255 32.6912 4.94141 32.5505C5.10286 32.4099 5.29297 32.3018 5.51172 32.2263C5.73307 32.1482 5.97656 32.1091 6.24219 32.1091C6.59115 32.1091 6.90234 32.1768 7.17578 32.3123C7.44922 32.4451 7.66406 32.6287 7.82031 32.863C7.97917 33.0974 8.05859 33.3656 8.05859 33.6677ZM7.33203 33.6521C7.33203 33.4412 7.28646 33.255 7.19531 33.0935C7.10417 32.9294 6.97656 32.8018 6.8125 32.7107C6.64844 32.6195 6.45833 32.574 6.24219 32.574C6.02083 32.574 5.82943 32.6195 5.66797 32.7107C5.50911 32.8018 5.38542 32.9294 5.29688 33.0935C5.20833 33.255 5.16406 33.4412 5.16406 33.6521C5.16406 33.8708 5.20703 34.0583 5.29297 34.2146C5.38151 34.3682 5.50651 34.4867 5.66797 34.5701C5.83203 34.6508 6.02604 34.6912 6.25 34.6912C6.47396 34.6912 6.66667 34.6508 6.82812 34.5701C6.98958 34.4867 7.11328 34.3682 7.19922 34.2146C7.28776 34.0583 7.33203 33.8708 7.33203 33.6521ZM7.92578 30.9998C7.92578 31.2758 7.85286 31.5245 7.70703 31.7458C7.5612 31.9672 7.36198 32.1417 7.10938 32.2693C6.85677 32.3969 6.57031 32.4607 6.25 32.4607C5.92448 32.4607 5.63411 32.3969 5.37891 32.2693C5.1263 32.1417 4.92839 31.9672 4.78516 31.7458C4.64193 31.5245 4.57031 31.2758 4.57031 30.9998C4.57031 30.669 4.64193 30.3878 4.78516 30.156C4.93099 29.9242 5.13021 29.7472 5.38281 29.6248C5.63542 29.5024 5.92318 29.4412 6.24609 29.4412C6.57161 29.4412 6.86068 29.5024 7.11328 29.6248C7.36589 29.7472 7.5638 29.9242 7.70703 30.156C7.85286 30.3878 7.92578 30.669 7.92578 30.9998ZM7.20312 31.0115C7.20312 30.8214 7.16276 30.6534 7.08203 30.5076C7.0013 30.3617 6.88932 30.2472 6.74609 30.1638C6.60286 30.0779 6.4362 30.0349 6.24609 30.0349C6.05599 30.0349 5.88932 30.0753 5.74609 30.156C5.60547 30.2341 5.49479 30.3461 5.41406 30.4919C5.33594 30.6378 5.29688 30.811 5.29688 31.0115C5.29688 31.2068 5.33594 31.3774 5.41406 31.5232C5.49479 31.669 5.60677 31.7823 5.75 31.863C5.89323 31.9438 6.0599 31.9841 6.25 31.9841C6.4401 31.9841 6.60547 31.9438 6.74609 31.863C6.88932 31.7823 7.0013 31.669 7.08203 31.5232C7.16276 31.3774 7.20312 31.2068 7.20312 31.0115ZM12.6752 31.9099V32.7771C12.6752 33.2432 12.6335 33.6365 12.5502 33.9568C12.4668 34.2771 12.347 34.5349 12.1908 34.7302C12.0345 34.9255 11.8457 35.0675 11.6244 35.156C11.4056 35.2419 11.1582 35.2849 10.8822 35.2849C10.6635 35.2849 10.4616 35.2576 10.2767 35.2029C10.0918 35.1482 9.92517 35.061 9.77673 34.9412C9.6309 34.8188 9.5059 34.6599 9.40173 34.4646C9.29757 34.2693 9.21814 34.0323 9.16345 33.7537C9.10877 33.475 9.08142 33.1495 9.08142 32.7771V31.9099C9.08142 31.4438 9.12309 31.0531 9.20642 30.738C9.29236 30.4229 9.41345 30.1703 9.5697 29.9802C9.72595 29.7875 9.91345 29.6495 10.1322 29.5662C10.3536 29.4828 10.601 29.4412 10.8744 29.4412C11.0957 29.4412 11.2989 29.4685 11.4838 29.5232C11.6713 29.5753 11.8379 29.6599 11.9838 29.7771C12.1296 29.8917 12.2533 30.0453 12.3549 30.238C12.459 30.4281 12.5385 30.6612 12.5931 30.9373C12.6478 31.2133 12.6752 31.5375 12.6752 31.9099ZM11.9486 32.8943V31.7888C11.9486 31.5336 11.933 31.3097 11.9017 31.1169C11.8731 30.9216 11.8301 30.755 11.7728 30.6169C11.7155 30.4789 11.6426 30.3669 11.5541 30.281C11.4681 30.1951 11.3679 30.1326 11.2533 30.0935C11.1413 30.0518 11.015 30.031 10.8744 30.031C10.7025 30.031 10.5502 30.0636 10.4174 30.1287C10.2845 30.1912 10.1726 30.2914 10.0814 30.4294C9.99288 30.5675 9.92517 30.7485 9.8783 30.9724C9.83142 31.1964 9.80798 31.4685 9.80798 31.7888V32.8943C9.80798 33.1495 9.82231 33.3748 9.85095 33.5701C9.8822 33.7654 9.92778 33.9347 9.98767 34.0779C10.0476 34.2185 10.1205 34.3344 10.2064 34.4255C10.2924 34.5167 10.3913 34.5844 10.5033 34.6287C10.6179 34.6703 10.7442 34.6912 10.8822 34.6912C11.0593 34.6912 11.2142 34.6573 11.347 34.5896C11.4799 34.5219 11.5905 34.4164 11.6791 34.2732C11.7702 34.1274 11.8379 33.9412 11.8822 33.7146C11.9265 33.4854 11.9486 33.212 11.9486 32.8943Z" fill="black" fill-opacity="0.76"/>
<path d="M7.24609 57.7183H7.30859V58.3315H7.24609C6.86328 58.3315 6.54297 58.394 6.28516 58.519C6.02734 58.6414 5.82292 58.8068 5.67188 59.0151C5.52083 59.2209 5.41146 59.4526 5.34375 59.7104C5.27865 59.9683 5.24609 60.23 5.24609 60.4956V61.3315C5.24609 61.5841 5.27604 61.8081 5.33594 62.0034C5.39583 62.1961 5.47786 62.3589 5.58203 62.4917C5.6862 62.6245 5.80339 62.7248 5.93359 62.7925C6.06641 62.8602 6.20443 62.894 6.34766 62.894C6.51432 62.894 6.66276 62.8628 6.79297 62.8003C6.92318 62.7352 7.03255 62.6453 7.12109 62.5308C7.21224 62.4136 7.28125 62.2756 7.32812 62.1167C7.375 61.9578 7.39844 61.7834 7.39844 61.5933C7.39844 61.424 7.3776 61.2612 7.33594 61.105C7.29427 60.9461 7.23047 60.8055 7.14453 60.6831C7.05859 60.5581 6.95052 60.4604 6.82031 60.3901C6.69271 60.3172 6.54036 60.2808 6.36328 60.2808C6.16276 60.2808 5.97526 60.3302 5.80078 60.4292C5.62891 60.5256 5.48698 60.6532 5.375 60.812C5.26562 60.9683 5.20312 61.1388 5.1875 61.3237L4.80469 61.3198C4.84115 61.0282 4.90885 60.7795 5.00781 60.5737C5.10938 60.3654 5.23438 60.1961 5.38281 60.0659C5.53385 59.9331 5.70182 59.8368 5.88672 59.7769C6.07422 59.7144 6.27214 59.6831 6.48047 59.6831C6.76432 59.6831 7.00911 59.7365 7.21484 59.8433C7.42057 59.95 7.58984 60.0933 7.72266 60.2729C7.85547 60.45 7.95312 60.6506 8.01562 60.8745C8.08073 61.0959 8.11328 61.3237 8.11328 61.5581C8.11328 61.8263 8.07552 62.0776 8 62.312C7.92448 62.5464 7.8112 62.7521 7.66016 62.9292C7.51172 63.1063 7.32812 63.2443 7.10938 63.3433C6.89062 63.4422 6.63672 63.4917 6.34766 63.4917C6.04036 63.4917 5.77214 63.4292 5.54297 63.3042C5.3138 63.1766 5.1237 63.0073 4.97266 62.7964C4.82161 62.5854 4.70833 62.3511 4.63281 62.0933C4.55729 61.8354 4.51953 61.5737 4.51953 61.3081V60.9683C4.51953 60.5672 4.5599 60.174 4.64062 59.7886C4.72135 59.4032 4.86068 59.0542 5.05859 58.7417C5.25911 58.4292 5.53646 58.1805 5.89062 57.9956C6.24479 57.8107 6.69661 57.7183 7.24609 57.7183ZM12.6752 60.1167V60.9839C12.6752 61.45 12.6335 61.8433 12.5502 62.1636C12.4668 62.4839 12.347 62.7417 12.1908 62.937C12.0345 63.1323 11.8457 63.2743 11.6244 63.3628C11.4056 63.4487 11.1582 63.4917 10.8822 63.4917C10.6635 63.4917 10.4616 63.4644 10.2767 63.4097C10.0918 63.355 9.92517 63.2677 9.77673 63.1479C9.6309 63.0256 9.5059 62.8667 9.40173 62.6714C9.29757 62.4761 9.21814 62.2391 9.16345 61.9604C9.10877 61.6818 9.08142 61.3563 9.08142 60.9839V60.1167C9.08142 59.6506 9.12309 59.2599 9.20642 58.9448C9.29236 58.6297 9.41345 58.3771 9.5697 58.187C9.72595 57.9943 9.91345 57.8563 10.1322 57.7729C10.3536 57.6896 10.601 57.6479 10.8744 57.6479C11.0957 57.6479 11.2989 57.6753 11.4838 57.73C11.6713 57.7821 11.8379 57.8667 11.9838 57.9839C12.1296 58.0985 12.2533 58.2521 12.3549 58.4448C12.459 58.6349 12.5385 58.868 12.5931 59.144C12.6478 59.4201 12.6752 59.7443 12.6752 60.1167ZM11.9486 61.1011V59.9956C11.9486 59.7404 11.933 59.5164 11.9017 59.3237C11.8731 59.1284 11.8301 58.9618 11.7728 58.8237C11.7155 58.6857 11.6426 58.5737 11.5541 58.4878C11.4681 58.4019 11.3679 58.3394 11.2533 58.3003C11.1413 58.2586 11.015 58.2378 10.8744 58.2378C10.7025 58.2378 10.5502 58.2703 10.4174 58.3354C10.2845 58.3979 10.1726 58.4982 10.0814 58.6362C9.99288 58.7743 9.92517 58.9552 9.8783 59.1792C9.83142 59.4032 9.80798 59.6753 9.80798 59.9956V61.1011C9.80798 61.3563 9.82231 61.5815 9.85095 61.7769C9.8822 61.9722 9.92778 62.1414 9.98767 62.2847C10.0476 62.4253 10.1205 62.5412 10.2064 62.6323C10.2924 62.7235 10.3913 62.7912 10.5033 62.8354C10.6179 62.8771 10.7442 62.8979 10.8822 62.8979C11.0593 62.8979 11.2142 62.8641 11.347 62.7964C11.4799 62.7287 11.5905 62.6232 11.6791 62.48C11.7702 62.3341 11.8379 62.1479 11.8822 61.9214C11.9265 61.6922 11.9486 61.4188 11.9486 61.1011Z" fill="black" fill-opacity="0.76"/>
<path d="M8.31641 89.7063V90.3H4.20703V89.8743L6.75391 85.9329H7.34375L6.71094 87.0735L5.02734 89.7063H8.31641ZM7.52344 85.9329V91.6204H6.80078V85.9329H7.52344ZM12.6752 88.3235V89.1907C12.6752 89.6568 12.6335 90.05 12.5502 90.3704C12.4668 90.6907 12.347 90.9485 12.1908 91.1438C12.0345 91.3391 11.8457 91.481 11.6244 91.5696C11.4056 91.6555 11.1582 91.6985 10.8822 91.6985C10.6635 91.6985 10.4616 91.6711 10.2767 91.6165C10.0918 91.5618 9.92517 91.4745 9.77673 91.3547C9.6309 91.2323 9.5059 91.0735 9.40173 90.8782C9.29757 90.6829 9.21814 90.4459 9.16345 90.1672C9.10877 89.8886 9.08142 89.5631 9.08142 89.1907V88.3235C9.08142 87.8573 9.12309 87.4667 9.20642 87.1516C9.29236 86.8365 9.41345 86.5839 9.5697 86.3938C9.72595 86.2011 9.91345 86.0631 10.1322 85.9797C10.3536 85.8964 10.601 85.8547 10.8744 85.8547C11.0957 85.8547 11.2989 85.8821 11.4838 85.9368C11.6713 85.9889 11.8379 86.0735 11.9838 86.1907C12.1296 86.3053 12.2533 86.4589 12.3549 86.6516C12.459 86.8417 12.5385 87.0748 12.5931 87.3508C12.6478 87.6269 12.6752 87.9511 12.6752 88.3235ZM11.9486 89.3079V88.2024C11.9486 87.9472 11.933 87.7232 11.9017 87.5305C11.8731 87.3352 11.8301 87.1685 11.7728 87.0305C11.7155 86.8925 11.6426 86.7805 11.5541 86.6946C11.4681 86.6086 11.3679 86.5461 11.2533 86.5071C11.1413 86.4654 11.015 86.4446 10.8744 86.4446C10.7025 86.4446 10.5502 86.4771 10.4174 86.5422C10.2845 86.6047 10.1726 86.705 10.0814 86.843C9.99288 86.981 9.92517 87.162 9.8783 87.386C9.83142 87.6099 9.80798 87.8821 9.80798 88.2024V89.3079C9.80798 89.5631 9.82231 89.7883 9.85095 89.9836C9.8822 90.179 9.92778 90.3482 9.98767 90.4915C10.0476 90.6321 10.1205 90.748 10.2064 90.8391C10.2924 90.9303 10.3913 90.998 10.5033 91.0422C10.6179 91.0839 10.7442 91.1047 10.8822 91.1047C11.0593 91.1047 11.2142 91.0709 11.347 91.0032C11.4799 90.9355 11.5905 90.83 11.6791 90.6868C11.7702 90.5409 11.8379 90.3547 11.8822 90.1282C11.9265 89.899 11.9486 89.6256 11.9486 89.3079Z" fill="black" fill-opacity="0.76"/>
<path d="M8.19922 119.233V119.827H4.47656V119.308L6.33984 117.233C6.56901 116.978 6.74609 116.762 6.87109 116.585C6.9987 116.405 7.08724 116.245 7.13672 116.104C7.1888 115.961 7.21484 115.815 7.21484 115.667C7.21484 115.479 7.17578 115.31 7.09766 115.159C7.02214 115.006 6.91016 114.883 6.76172 114.792C6.61328 114.701 6.43359 114.655 6.22266 114.655C5.97005 114.655 5.75911 114.705 5.58984 114.804C5.42318 114.9 5.29818 115.035 5.21484 115.21C5.13151 115.384 5.08984 115.585 5.08984 115.812H4.36719C4.36719 115.491 4.4375 115.198 4.57812 114.933C4.71875 114.667 4.92708 114.456 5.20312 114.3C5.47917 114.141 5.81901 114.062 6.22266 114.062C6.58203 114.062 6.88932 114.125 7.14453 114.253C7.39974 114.378 7.59505 114.555 7.73047 114.784C7.86849 115.011 7.9375 115.276 7.9375 115.581C7.9375 115.748 7.90885 115.917 7.85156 116.089C7.79688 116.258 7.72005 116.427 7.62109 116.597C7.52474 116.766 7.41146 116.933 7.28125 117.097C7.15365 117.261 7.01693 117.422 6.87109 117.581L5.34766 119.233H8.19922ZM12.6752 116.53V117.397C12.6752 117.864 12.6335 118.257 12.5502 118.577C12.4668 118.897 12.347 119.155 12.1908 119.351C12.0345 119.546 11.8457 119.688 11.6244 119.776C11.4056 119.862 11.1582 119.905 10.8822 119.905C10.6635 119.905 10.4616 119.878 10.2767 119.823C10.0918 119.769 9.92517 119.681 9.77673 119.562C9.6309 119.439 9.5059 119.28 9.40173 119.085C9.29757 118.89 9.21814 118.653 9.16345 118.374C9.10877 118.095 9.08142 117.77 9.08142 117.397V116.53C9.08142 116.064 9.12309 115.674 9.20642 115.358C9.29236 115.043 9.41345 114.791 9.5697 114.601C9.72595 114.408 9.91345 114.27 10.1322 114.187C10.3536 114.103 10.601 114.062 10.8744 114.062C11.0957 114.062 11.2989 114.089 11.4838 114.144C11.6713 114.196 11.8379 114.28 11.9838 114.397C12.1296 114.512 12.2533 114.666 12.3549 114.858C12.459 115.049 12.5385 115.282 12.5931 115.558C12.6478 115.834 12.6752 116.158 12.6752 116.53ZM11.9486 117.515V116.409C11.9486 116.154 11.933 115.93 11.9017 115.737C11.8731 115.542 11.8301 115.375 11.7728 115.237C11.7155 115.099 11.6426 114.987 11.5541 114.901C11.4681 114.815 11.3679 114.753 11.2533 114.714C11.1413 114.672 11.015 114.651 10.8744 114.651C10.7025 114.651 10.5502 114.684 10.4174 114.749C10.2845 114.812 10.1726 114.912 10.0814 115.05C9.99288 115.188 9.92517 115.369 9.8783 115.593C9.83142 115.817 9.80798 116.089 9.80798 116.409V117.515C9.80798 117.77 9.82231 117.995 9.85095 118.19C9.8822 118.386 9.92778 118.555 9.98767 118.698C10.0476 118.839 10.1205 118.955 10.2064 119.046C10.2924 119.137 10.3913 119.205 10.5033 119.249C10.6179 119.291 10.7442 119.312 10.8822 119.312C11.0593 119.312 11.2142 119.278 11.347 119.21C11.4799 119.142 11.5905 119.037 11.6791 118.894C11.7702 118.748 11.8379 118.562 11.8822 118.335C11.9265 118.106 11.9486 117.832 11.9486 117.515Z" fill="black" fill-opacity="0.76"/>
<path d="M13.043 144.737V145.604C13.043 146.07 13.0013 146.464 12.918 146.784C12.8346 147.104 12.7148 147.362 12.5586 147.557C12.4023 147.753 12.2135 147.895 11.9922 147.983C11.7734 148.069 11.526 148.112 11.25 148.112C11.0312 148.112 10.8294 148.085 10.6445 148.03C10.4596 147.975 10.293 147.888 10.1445 147.768C9.9987 147.646 9.8737 147.487 9.76953 147.292C9.66536 147.096 9.58594 146.859 9.53125 146.581C9.47656 146.302 9.44922 145.977 9.44922 145.604V144.737C9.44922 144.271 9.49089 143.88 9.57422 143.565C9.66016 143.25 9.78125 142.997 9.9375 142.807C10.0938 142.615 10.2812 142.477 10.5 142.393C10.7214 142.31 10.9688 142.268 11.2422 142.268C11.4635 142.268 11.6667 142.296 11.8516 142.35C12.0391 142.402 12.2057 142.487 12.3516 142.604C12.4974 142.719 12.6211 142.872 12.7227 143.065C12.8268 143.255 12.9062 143.488 12.9609 143.764C13.0156 144.04 13.043 144.365 13.043 144.737ZM12.3164 145.721V144.616C12.3164 144.361 12.3008 144.137 12.2695 143.944C12.2409 143.749 12.1979 143.582 12.1406 143.444C12.0833 143.306 12.0104 143.194 11.9219 143.108C11.8359 143.022 11.7357 142.96 11.6211 142.921C11.5091 142.879 11.3828 142.858 11.2422 142.858C11.0703 142.858 10.918 142.891 10.7852 142.956C10.6523 143.018 10.5404 143.119 10.4492 143.257C10.3607 143.395 10.293 143.576 10.2461 143.8C10.1992 144.024 10.1758 144.296 10.1758 144.616V145.721C10.1758 145.977 10.1901 146.202 10.2188 146.397C10.25 146.593 10.2956 146.762 10.3555 146.905C10.4154 147.046 10.4883 147.162 10.5742 147.253C10.6602 147.344 10.7591 147.412 10.8711 147.456C10.9857 147.497 11.112 147.518 11.25 147.518C11.4271 147.518 11.582 147.484 11.7148 147.417C11.8477 147.349 11.9583 147.244 12.0469 147.1C12.138 146.955 12.2057 146.768 12.25 146.542C12.2943 146.313 12.3164 146.039 12.3164 145.721Z" fill="black" fill-opacity="0.76"/>
<path d="M19 4.16113L194 4.16116" stroke="black" stroke-opacity="0.12"/>
<path d="M19 33.1611L194 33.1612" stroke="black" stroke-opacity="0.12"/>
<path d="M19 61.1611L194 61.1612" stroke="black" stroke-opacity="0.12"/>
<path d="M19 89.1611L194 89.1612" stroke="black" stroke-opacity="0.12"/>
<path d="M19 118.161L194 118.161" stroke="black" stroke-opacity="0.12"/>
<path d="M28 27C28 25.8954 28.8954 25 30 25H56C57.1046 25 58 25.8954 58 27V146H28V27Z" fill="#08872B"/>
<path d="M70 69C70 67.8954 70.8954 67 72 67H98C99.1046 67 100 67.8954 100 69V146H70V69Z" fill="#4B93FF"/>
<path d="M112 92C112 90.8954 112.895 90 114 90H140C141.105 90 142 90.8954 142 92V146H112V92Z" fill="#FF4D5A"/>
<path d="M154 79C154 77.8954 154.895 77 156 77H182C183.105 77 184 77.8954 184 79V146H154V79Z" fill="#FFC107"/>
<line x1="17.2" y1="145.961" x2="196.8" y2="145.961" stroke="black" stroke-opacity="0.7" stroke-width="0.4" stroke-linecap="square"/>
<path d="M43.1328 14.1758L41.5117 19H40.375L42.5 13.3125H43.2266L43.1328 14.1758ZM44.4883 19L42.8594 14.1758L42.7617 13.3125H43.4922L45.6289 19H44.4883ZM44.4141 16.8867V17.7344H41.3633V16.8867H44.4141Z" fill="black" fill-opacity="0.76"/>
<path d="M85.1836 58.4648H83.7305L83.7227 57.707H84.9688C85.1823 57.707 85.3607 57.6771 85.5039 57.6172C85.6471 57.5573 85.7552 57.4701 85.8281 57.3555C85.9036 57.2409 85.9414 57.1016 85.9414 56.9375C85.9414 56.7552 85.9062 56.6068 85.8359 56.4922C85.7682 56.3776 85.6615 56.2943 85.5156 56.2422C85.3698 56.1875 85.1849 56.1602 84.9609 56.1602H84.0781V61H83.0039V55.3125H84.9609C85.2839 55.3125 85.5716 55.3438 85.8242 55.4062C86.0794 55.4661 86.2956 55.5599 86.4727 55.6875C86.6497 55.8151 86.7839 55.9753 86.875 56.168C86.9688 56.3607 87.0156 56.5898 87.0156 56.8555C87.0156 57.0898 86.9609 57.306 86.8516 57.5039C86.7448 57.6992 86.5794 57.8581 86.3555 57.9805C86.1341 58.1029 85.8529 58.1732 85.5117 58.1914L85.1836 58.4648ZM85.1367 61H83.4141L83.8633 60.1562H85.1367C85.3503 60.1562 85.526 60.1211 85.6641 60.0508C85.8047 59.9805 85.9089 59.8841 85.9766 59.7617C86.0469 59.6367 86.082 59.4935 86.082 59.332C86.082 59.1549 86.0508 59.0013 85.9883 58.8711C85.9284 58.7409 85.832 58.6406 85.6992 58.5703C85.569 58.5 85.3971 58.4648 85.1836 58.4648H84.0664L84.0742 57.707H85.4961L85.7422 58C86.0703 58.0026 86.3372 58.0677 86.543 58.1953C86.7513 58.3229 86.9049 58.487 87.0039 58.6875C87.1029 58.888 87.1523 59.1042 87.1523 59.3359C87.1523 59.7005 87.0729 60.0065 86.9141 60.2539C86.7578 60.5013 86.5286 60.6875 86.2266 60.8125C85.9271 60.9375 85.5638 61 85.1367 61Z" fill="black" fill-opacity="0.76"/>
<path d="M168.637 72H167.41L167.418 71.1562H168.637C168.967 71.1562 169.245 71.0833 169.469 70.9375C169.693 70.7891 169.862 70.5768 169.977 70.3008C170.091 70.0221 170.148 69.6888 170.148 69.3008V69.0078C170.148 68.7083 170.116 68.444 170.051 68.2148C169.986 67.9857 169.889 67.793 169.762 67.6367C169.637 67.4805 169.482 67.362 169.297 67.2812C169.112 67.2005 168.9 67.1602 168.66 67.1602H167.387V66.3125H168.66C169.04 66.3125 169.387 66.3763 169.699 66.5039C170.014 66.6315 170.286 66.8151 170.516 67.0547C170.747 67.2917 170.924 67.5755 171.047 67.9062C171.172 68.237 171.234 68.6068 171.234 69.0156V69.3008C171.234 69.707 171.172 70.0768 171.047 70.4102C170.924 70.7409 170.747 71.0247 170.516 71.2617C170.286 71.4987 170.013 71.681 169.695 71.8086C169.378 71.9362 169.025 72 168.637 72ZM168.012 66.3125V72H166.938V66.3125H168.012Z" fill="black" fill-opacity="0.76"/>
<path d="M128.254 82.1289H129.328C129.299 82.5091 129.194 82.8464 129.012 83.1406C128.829 83.4323 128.576 83.6615 128.25 83.8281C127.924 83.9948 127.53 84.0781 127.066 84.0781C126.71 84.0781 126.388 84.0156 126.102 83.8906C125.818 83.763 125.574 83.582 125.371 83.3477C125.171 83.1107 125.017 82.8268 124.91 82.4961C124.803 82.1628 124.75 81.7891 124.75 81.375V80.9414C124.75 80.5273 124.805 80.1536 124.914 79.8203C125.023 79.487 125.18 79.2031 125.383 78.9688C125.589 78.7318 125.835 78.5495 126.121 78.4219C126.41 78.2943 126.733 78.2305 127.09 78.2305C127.553 78.2305 127.945 78.3164 128.266 78.4883C128.586 78.6576 128.835 78.8906 129.012 79.1875C129.189 79.4844 129.296 79.8255 129.332 80.2109H128.258C128.237 79.9714 128.185 79.7682 128.102 79.6016C128.021 79.4349 127.898 79.3086 127.734 79.2227C127.573 79.1341 127.358 79.0898 127.09 79.0898C126.882 79.0898 126.698 79.1289 126.539 79.207C126.383 79.2852 126.253 79.4023 126.148 79.5586C126.044 79.7122 125.966 79.9049 125.914 80.1367C125.862 80.3659 125.836 80.6315 125.836 80.9336V81.375C125.836 81.6641 125.859 81.9232 125.906 82.1523C125.953 82.3815 126.026 82.5755 126.125 82.7344C126.224 82.8932 126.352 83.0143 126.508 83.0977C126.664 83.181 126.85 83.2227 127.066 83.2227C127.329 83.2227 127.543 83.181 127.707 83.0977C127.874 83.0143 128 82.8919 128.086 82.7305C128.174 82.569 128.23 82.3685 128.254 82.1289Z" fill="black" fill-opacity="0.76"/>
</g>
<defs>
<clipPath id="clip0_4624_38022">
<rect width="200" height="160" fill="white"/>
</clipPath>
</defs>
</svg>
