<svg width="200" height="160" viewBox="0 0 200 160" fill="none" xmlns="http://www.w3.org/2000/svg">
<g clip-path="url(#clip0_4184_94527)">
<path d="M2.84766 1.28125V7H2.125V2.18359L0.667969 2.71484V2.0625L2.73438 1.28125H2.84766ZM8.67517 3.70312V4.57031C8.67517 5.03646 8.63351 5.42969 8.55017 5.75C8.46684 6.07031 8.34705 6.32812 8.1908 6.52344C8.03455 6.71875 7.84575 6.86068 7.62439 6.94922C7.40564 7.03516 7.15825 7.07812 6.8822 7.07812C6.66345 7.07812 6.46163 7.05078 6.27673 6.99609C6.09184 6.94141 5.92517 6.85417 5.77673 6.73438C5.6309 6.61198 5.5059 6.45312 5.40173 6.25781C5.29757 6.0625 5.21814 5.82552 5.16345 5.54688C5.10877 5.26823 5.08142 4.94271 5.08142 4.57031V3.70312C5.08142 3.23698 5.12309 2.84635 5.20642 2.53125C5.29236 2.21615 5.41345 1.96354 5.5697 1.77344C5.72595 1.58073 5.91345 1.44271 6.1322 1.35938C6.35356 1.27604 6.60095 1.23438 6.87439 1.23438C7.09575 1.23438 7.29887 1.26172 7.48377 1.31641C7.67127 1.36849 7.83793 1.45312 7.98377 1.57031C8.1296 1.6849 8.2533 1.83854 8.35486 2.03125C8.45903 2.22135 8.53845 2.45443 8.59314 2.73047C8.64783 3.00651 8.67517 3.33073 8.67517 3.70312ZM7.94861 4.6875V3.58203C7.94861 3.32682 7.93298 3.10286 7.90173 2.91016C7.87309 2.71484 7.83012 2.54818 7.77283 2.41016C7.71554 2.27214 7.64262 2.16016 7.55408 2.07422C7.46814 1.98828 7.36788 1.92578 7.2533 1.88672C7.14132 1.84505 7.01502 1.82422 6.87439 1.82422C6.70252 1.82422 6.55017 1.85677 6.41736 1.92188C6.28455 1.98438 6.17257 2.08464 6.08142 2.22266C5.99288 2.36068 5.92517 2.54167 5.8783 2.76562C5.83142 2.98958 5.80798 3.26172 5.80798 3.58203V4.6875C5.80798 4.94271 5.82231 5.16797 5.85095 5.36328C5.8822 5.55859 5.92778 5.72786 5.98767 5.87109C6.04757 6.01172 6.12048 6.1276 6.20642 6.21875C6.29236 6.3099 6.39132 6.3776 6.5033 6.42188C6.61788 6.46354 6.74418 6.48438 6.8822 6.48438C7.05929 6.48438 7.21423 6.45052 7.34705 6.38281C7.47986 6.3151 7.59054 6.20964 7.67908 6.06641C7.77022 5.92057 7.83793 5.73438 7.8822 5.50781C7.92647 5.27865 7.94861 5.00521 7.94861 4.6875ZM13.3074 3.70312V4.57031C13.3074 5.03646 13.2657 5.42969 13.1824 5.75C13.099 6.07031 12.9793 6.32812 12.823 6.52344C12.6668 6.71875 12.4779 6.86068 12.2566 6.94922C12.0378 7.03516 11.7904 7.07812 11.5144 7.07812C11.2957 7.07812 11.0938 7.05078 10.9089 6.99609C10.724 6.94141 10.5574 6.85417 10.4089 6.73438C10.2631 6.61198 10.1381 6.45312 10.0339 6.25781C9.92977 6.0625 9.85034 5.82552 9.79566 5.54688C9.74097 5.26823 9.71363 4.94271 9.71363 4.57031V3.70312C9.71363 3.23698 9.75529 2.84635 9.83863 2.53125C9.92456 2.21615 10.0457 1.96354 10.2019 1.77344C10.3582 1.58073 10.5457 1.44271 10.7644 1.35938C10.9858 1.27604 11.2332 1.23438 11.5066 1.23438C11.7279 1.23438 11.9311 1.26172 12.116 1.31641C12.3035 1.36849 12.4701 1.45312 12.616 1.57031C12.7618 1.6849 12.8855 1.83854 12.9871 2.03125C13.0912 2.22135 13.1707 2.45443 13.2253 2.73047C13.28 3.00651 13.3074 3.33073 13.3074 3.70312ZM12.5808 4.6875V3.58203C12.5808 3.32682 12.5652 3.10286 12.5339 2.91016C12.5053 2.71484 12.4623 2.54818 12.405 2.41016C12.3477 2.27214 12.2748 2.16016 12.1863 2.07422C12.1003 1.98828 12.0001 1.92578 11.8855 1.88672C11.7735 1.84505 11.6472 1.82422 11.5066 1.82422C11.3347 1.82422 11.1824 1.85677 11.0496 1.92188C10.9168 1.98438 10.8048 2.08464 10.7136 2.22266C10.6251 2.36068 10.5574 2.54167 10.5105 2.76562C10.4636 2.98958 10.4402 3.26172 10.4402 3.58203V4.6875C10.4402 4.94271 10.4545 5.16797 10.4832 5.36328C10.5144 5.55859 10.56 5.72786 10.6199 5.87109C10.6798 6.01172 10.7527 6.1276 10.8386 6.21875C10.9246 6.3099 11.0235 6.3776 11.1355 6.42188C11.2501 6.46354 11.3764 6.48438 11.5144 6.48438C11.6915 6.48438 11.8464 6.45052 11.9793 6.38281C12.1121 6.3151 12.2227 6.20964 12.3113 6.06641C12.4024 5.92057 12.4701 5.73438 12.5144 5.50781C12.5587 5.27865 12.5808 5.00521 12.5808 4.6875ZM14.3068 2.70703V2.40625C14.3068 2.1901 14.3536 1.99349 14.4474 1.81641C14.5411 1.63932 14.6753 1.4974 14.8497 1.39062C15.0242 1.28385 15.2312 1.23047 15.4708 1.23047C15.7156 1.23047 15.924 1.28385 16.0958 1.39062C16.2703 1.4974 16.4044 1.63932 16.4982 1.81641C16.5919 1.99349 16.6388 2.1901 16.6388 2.40625V2.70703C16.6388 2.91797 16.5919 3.11198 16.4982 3.28906C16.407 3.46615 16.2742 3.60807 16.0997 3.71484C15.9279 3.82161 15.7208 3.875 15.4786 3.875C15.2365 3.875 15.0268 3.82161 14.8497 3.71484C14.6753 3.60807 14.5411 3.46615 14.4474 3.28906C14.3536 3.11198 14.3068 2.91797 14.3068 2.70703ZM14.8497 2.40625V2.70703C14.8497 2.82682 14.8719 2.9401 14.9161 3.04688C14.963 3.15365 15.0333 3.24089 15.1271 3.30859C15.2208 3.3737 15.338 3.40625 15.4786 3.40625C15.6193 3.40625 15.7352 3.3737 15.8263 3.30859C15.9174 3.24089 15.9852 3.15365 16.0294 3.04688C16.0737 2.9401 16.0958 2.82682 16.0958 2.70703V2.40625C16.0958 2.28385 16.0724 2.16927 16.0255 2.0625C15.9812 1.95312 15.9122 1.86589 15.8185 1.80078C15.7273 1.73307 15.6115 1.69922 15.4708 1.69922C15.3328 1.69922 15.2169 1.73307 15.1232 1.80078C15.032 1.86589 14.963 1.95312 14.9161 2.0625C14.8719 2.16927 14.8497 2.28385 14.8497 2.40625ZM17.0763 5.91016V5.60547C17.0763 5.39193 17.1232 5.19661 17.2169 5.01953C17.3107 4.84245 17.4448 4.70052 17.6193 4.59375C17.7937 4.48698 18.0008 4.43359 18.2404 4.43359C18.4852 4.43359 18.6935 4.48698 18.8654 4.59375C19.0398 4.70052 19.174 4.84245 19.2677 5.01953C19.3615 5.19661 19.4083 5.39193 19.4083 5.60547V5.91016C19.4083 6.1237 19.3615 6.31901 19.2677 6.49609C19.1766 6.67318 19.0437 6.8151 18.8693 6.92188C18.6974 7.02865 18.4904 7.08203 18.2482 7.08203C18.006 7.08203 17.7977 7.02865 17.6232 6.92188C17.4487 6.8151 17.3133 6.67318 17.2169 6.49609C17.1232 6.31901 17.0763 6.1237 17.0763 5.91016ZM17.6193 5.60547V5.91016C17.6193 6.02995 17.6414 6.14453 17.6857 6.25391C17.7325 6.36068 17.8029 6.44792 17.8966 6.51562C17.9904 6.58073 18.1075 6.61328 18.2482 6.61328C18.3888 6.61328 18.5047 6.58073 18.5958 6.51562C18.6896 6.44792 18.7586 6.36068 18.8029 6.25391C18.8471 6.14714 18.8693 6.03255 18.8693 5.91016V5.60547C18.8693 5.48307 18.8458 5.36849 18.799 5.26172C18.7547 5.15495 18.6857 5.06901 18.5919 5.00391C18.5008 4.9362 18.3836 4.90234 18.2404 4.90234C18.1023 4.90234 17.9865 4.9362 17.8927 5.00391C17.8016 5.06901 17.7325 5.15495 17.6857 5.26172C17.6414 5.36849 17.6193 5.48307 17.6193 5.60547ZM18.42 2.12109L15.6427 6.56641L15.2365 6.30859L18.0138 1.86328L18.42 2.12109Z" fill="black" fill-opacity="0.54"/>
<path d="M8.05859 33.6677C8.05859 34.0141 7.97786 34.3083 7.81641 34.5505C7.65755 34.7901 7.44141 34.9724 7.16797 35.0974C6.89714 35.2224 6.59115 35.2849 6.25 35.2849C5.90885 35.2849 5.60156 35.2224 5.32812 35.0974C5.05469 34.9724 4.83854 34.7901 4.67969 34.5505C4.52083 34.3083 4.44141 34.0141 4.44141 33.6677C4.44141 33.4412 4.48438 33.2341 4.57031 33.0466C4.65885 32.8565 4.78255 32.6912 4.94141 32.5505C5.10286 32.4099 5.29297 32.3018 5.51172 32.2263C5.73307 32.1482 5.97656 32.1091 6.24219 32.1091C6.59115 32.1091 6.90234 32.1768 7.17578 32.3123C7.44922 32.4451 7.66406 32.6287 7.82031 32.863C7.97917 33.0974 8.05859 33.3656 8.05859 33.6677ZM7.33203 33.6521C7.33203 33.4412 7.28646 33.255 7.19531 33.0935C7.10417 32.9294 6.97656 32.8018 6.8125 32.7107C6.64844 32.6195 6.45833 32.574 6.24219 32.574C6.02083 32.574 5.82943 32.6195 5.66797 32.7107C5.50911 32.8018 5.38542 32.9294 5.29688 33.0935C5.20833 33.255 5.16406 33.4412 5.16406 33.6521C5.16406 33.8708 5.20703 34.0583 5.29297 34.2146C5.38151 34.3682 5.50651 34.4867 5.66797 34.5701C5.83203 34.6508 6.02604 34.6912 6.25 34.6912C6.47396 34.6912 6.66667 34.6508 6.82812 34.5701C6.98958 34.4867 7.11328 34.3682 7.19922 34.2146C7.28776 34.0583 7.33203 33.8708 7.33203 33.6521ZM7.92578 30.9998C7.92578 31.2758 7.85286 31.5245 7.70703 31.7458C7.5612 31.9672 7.36198 32.1417 7.10938 32.2693C6.85677 32.3969 6.57031 32.4607 6.25 32.4607C5.92448 32.4607 5.63411 32.3969 5.37891 32.2693C5.1263 32.1417 4.92839 31.9672 4.78516 31.7458C4.64193 31.5245 4.57031 31.2758 4.57031 30.9998C4.57031 30.669 4.64193 30.3878 4.78516 30.156C4.93099 29.9242 5.13021 29.7472 5.38281 29.6248C5.63542 29.5024 5.92318 29.4412 6.24609 29.4412C6.57161 29.4412 6.86068 29.5024 7.11328 29.6248C7.36589 29.7472 7.5638 29.9242 7.70703 30.156C7.85286 30.3878 7.92578 30.669 7.92578 30.9998ZM7.20312 31.0115C7.20312 30.8214 7.16276 30.6534 7.08203 30.5076C7.0013 30.3617 6.88932 30.2472 6.74609 30.1638C6.60286 30.0779 6.4362 30.0349 6.24609 30.0349C6.05599 30.0349 5.88932 30.0753 5.74609 30.156C5.60547 30.2341 5.49479 30.3461 5.41406 30.4919C5.33594 30.6378 5.29688 30.811 5.29688 31.0115C5.29688 31.2068 5.33594 31.3774 5.41406 31.5232C5.49479 31.669 5.60677 31.7823 5.75 31.863C5.89323 31.9438 6.0599 31.9841 6.25 31.9841C6.4401 31.9841 6.60547 31.9438 6.74609 31.863C6.88932 31.7823 7.0013 31.669 7.08203 31.5232C7.16276 31.3774 7.20312 31.2068 7.20312 31.0115ZM12.6752 31.9099V32.7771C12.6752 33.2432 12.6335 33.6365 12.5502 33.9568C12.4668 34.2771 12.347 34.5349 12.1908 34.7302C12.0345 34.9255 11.8457 35.0675 11.6244 35.156C11.4056 35.2419 11.1582 35.2849 10.8822 35.2849C10.6635 35.2849 10.4616 35.2576 10.2767 35.2029C10.0918 35.1482 9.92517 35.061 9.77673 34.9412C9.6309 34.8188 9.5059 34.6599 9.40173 34.4646C9.29757 34.2693 9.21814 34.0323 9.16345 33.7537C9.10877 33.475 9.08142 33.1495 9.08142 32.7771V31.9099C9.08142 31.4438 9.12309 31.0531 9.20642 30.738C9.29236 30.4229 9.41345 30.1703 9.5697 29.9802C9.72595 29.7875 9.91345 29.6495 10.1322 29.5662C10.3536 29.4828 10.601 29.4412 10.8744 29.4412C11.0957 29.4412 11.2989 29.4685 11.4838 29.5232C11.6713 29.5753 11.8379 29.6599 11.9838 29.7771C12.1296 29.8917 12.2533 30.0453 12.3549 30.238C12.459 30.4281 12.5385 30.6612 12.5931 30.9373C12.6478 31.2133 12.6752 31.5375 12.6752 31.9099ZM11.9486 32.8943V31.7888C11.9486 31.5336 11.933 31.3097 11.9017 31.1169C11.8731 30.9216 11.8301 30.755 11.7728 30.6169C11.7155 30.4789 11.6426 30.3669 11.5541 30.281C11.4681 30.1951 11.3679 30.1326 11.2533 30.0935C11.1413 30.0518 11.015 30.031 10.8744 30.031C10.7025 30.031 10.5502 30.0636 10.4174 30.1287C10.2845 30.1912 10.1726 30.2914 10.0814 30.4294C9.99288 30.5675 9.92517 30.7485 9.8783 30.9724C9.83142 31.1964 9.80798 31.4685 9.80798 31.7888V32.8943C9.80798 33.1495 9.82231 33.3748 9.85095 33.5701C9.8822 33.7654 9.92778 33.9347 9.98767 34.0779C10.0476 34.2185 10.1205 34.3344 10.2064 34.4255C10.2924 34.5167 10.3913 34.5844 10.5033 34.6287C10.6179 34.6703 10.7442 34.6912 10.8822 34.6912C11.0593 34.6912 11.2142 34.6573 11.347 34.5896C11.4799 34.5219 11.5905 34.4164 11.6791 34.2732C11.7702 34.1274 11.8379 33.9412 11.8822 33.7146C11.9265 33.4854 11.9486 33.212 11.9486 32.8943ZM13.6746 30.9138V30.613C13.6746 30.3969 13.7214 30.2003 13.8152 30.0232C13.9089 29.8461 14.0431 29.7042 14.2175 29.5974C14.392 29.4906 14.599 29.4373 14.8386 29.4373C15.0834 29.4373 15.2918 29.4906 15.4636 29.5974C15.6381 29.7042 15.7722 29.8461 15.866 30.0232C15.9597 30.2003 16.0066 30.3969 16.0066 30.613V30.9138C16.0066 31.1248 15.9597 31.3188 15.866 31.4958C15.7748 31.6729 15.642 31.8149 15.4675 31.9216C15.2957 32.0284 15.0886 32.0818 14.8464 32.0818C14.6043 32.0818 14.3946 32.0284 14.2175 31.9216C14.0431 31.8149 13.9089 31.6729 13.8152 31.4958C13.7214 31.3188 13.6746 31.1248 13.6746 30.9138ZM14.2175 30.613V30.9138C14.2175 31.0336 14.2397 31.1469 14.2839 31.2537C14.3308 31.3604 14.4011 31.4477 14.4949 31.5154C14.5886 31.5805 14.7058 31.613 14.8464 31.613C14.9871 31.613 15.1029 31.5805 15.1941 31.5154C15.2852 31.4477 15.3529 31.3604 15.3972 31.2537C15.4415 31.1469 15.4636 31.0336 15.4636 30.9138V30.613C15.4636 30.4906 15.4402 30.3761 15.3933 30.2693C15.349 30.1599 15.28 30.0727 15.1863 30.0076C15.0951 29.9399 14.9793 29.906 14.8386 29.906C14.7006 29.906 14.5847 29.9399 14.491 30.0076C14.3998 30.0727 14.3308 30.1599 14.2839 30.2693C14.2397 30.3761 14.2175 30.4906 14.2175 30.613ZM16.4441 34.1169V33.8123C16.4441 33.5987 16.491 33.4034 16.5847 33.2263C16.6785 33.0492 16.8126 32.9073 16.9871 32.8005C17.1615 32.6938 17.3686 32.6404 17.6082 32.6404C17.8529 32.6404 18.0613 32.6938 18.2332 32.8005C18.4076 32.9073 18.5418 33.0492 18.6355 33.2263C18.7293 33.4034 18.7761 33.5987 18.7761 33.8123V34.1169C18.7761 34.3305 18.7293 34.5258 18.6355 34.7029C18.5444 34.88 18.4115 35.0219 18.2371 35.1287C18.0652 35.2354 17.8582 35.2888 17.616 35.2888C17.3738 35.2888 17.1654 35.2354 16.991 35.1287C16.8165 35.0219 16.6811 34.88 16.5847 34.7029C16.491 34.5258 16.4441 34.3305 16.4441 34.1169ZM16.9871 33.8123V34.1169C16.9871 34.2367 17.0092 34.3513 17.0535 34.4607C17.1003 34.5675 17.1707 34.6547 17.2644 34.7224C17.3582 34.7875 17.4753 34.8201 17.616 34.8201C17.7566 34.8201 17.8725 34.7875 17.9636 34.7224C18.0574 34.6547 18.1264 34.5675 18.1707 34.4607C18.2149 34.3539 18.2371 34.2393 18.2371 34.1169V33.8123C18.2371 33.6899 18.2136 33.5753 18.1668 33.4685C18.1225 33.3617 18.0535 33.2758 17.9597 33.2107C17.8686 33.143 17.7514 33.1091 17.6082 33.1091C17.4701 33.1091 17.3543 33.143 17.2605 33.2107C17.1694 33.2758 17.1003 33.3617 17.0535 33.4685C17.0092 33.5753 16.9871 33.6899 16.9871 33.8123ZM17.7878 30.3279L15.0105 34.7732L14.6043 34.5154L17.3816 30.0701L17.7878 30.3279Z" fill="black" fill-opacity="0.54"/>
<path d="M7.24609 57.7183H7.30859V58.3315H7.24609C6.86328 58.3315 6.54297 58.394 6.28516 58.519C6.02734 58.6414 5.82292 58.8068 5.67188 59.0151C5.52083 59.2209 5.41146 59.4526 5.34375 59.7104C5.27865 59.9683 5.24609 60.23 5.24609 60.4956V61.3315C5.24609 61.5841 5.27604 61.8081 5.33594 62.0034C5.39583 62.1961 5.47786 62.3589 5.58203 62.4917C5.6862 62.6245 5.80339 62.7248 5.93359 62.7925C6.06641 62.8602 6.20443 62.894 6.34766 62.894C6.51432 62.894 6.66276 62.8628 6.79297 62.8003C6.92318 62.7352 7.03255 62.6453 7.12109 62.5308C7.21224 62.4136 7.28125 62.2756 7.32812 62.1167C7.375 61.9578 7.39844 61.7834 7.39844 61.5933C7.39844 61.424 7.3776 61.2612 7.33594 61.105C7.29427 60.9461 7.23047 60.8055 7.14453 60.6831C7.05859 60.5581 6.95052 60.4604 6.82031 60.3901C6.69271 60.3172 6.54036 60.2808 6.36328 60.2808C6.16276 60.2808 5.97526 60.3302 5.80078 60.4292C5.62891 60.5256 5.48698 60.6532 5.375 60.812C5.26562 60.9683 5.20312 61.1388 5.1875 61.3237L4.80469 61.3198C4.84115 61.0282 4.90885 60.7795 5.00781 60.5737C5.10938 60.3654 5.23438 60.1961 5.38281 60.0659C5.53385 59.9331 5.70182 59.8368 5.88672 59.7769C6.07422 59.7144 6.27214 59.6831 6.48047 59.6831C6.76432 59.6831 7.00911 59.7365 7.21484 59.8433C7.42057 59.95 7.58984 60.0933 7.72266 60.2729C7.85547 60.45 7.95312 60.6506 8.01562 60.8745C8.08073 61.0959 8.11328 61.3237 8.11328 61.5581C8.11328 61.8263 8.07552 62.0776 8 62.312C7.92448 62.5464 7.8112 62.7521 7.66016 62.9292C7.51172 63.1063 7.32812 63.2443 7.10938 63.3433C6.89062 63.4422 6.63672 63.4917 6.34766 63.4917C6.04036 63.4917 5.77214 63.4292 5.54297 63.3042C5.3138 63.1766 5.1237 63.0073 4.97266 62.7964C4.82161 62.5854 4.70833 62.3511 4.63281 62.0933C4.55729 61.8354 4.51953 61.5737 4.51953 61.3081V60.9683C4.51953 60.5672 4.5599 60.174 4.64062 59.7886C4.72135 59.4032 4.86068 59.0542 5.05859 58.7417C5.25911 58.4292 5.53646 58.1805 5.89062 57.9956C6.24479 57.8107 6.69661 57.7183 7.24609 57.7183ZM12.6752 60.1167V60.9839C12.6752 61.45 12.6335 61.8433 12.5502 62.1636C12.4668 62.4839 12.347 62.7417 12.1908 62.937C12.0345 63.1323 11.8457 63.2743 11.6244 63.3628C11.4056 63.4487 11.1582 63.4917 10.8822 63.4917C10.6635 63.4917 10.4616 63.4644 10.2767 63.4097C10.0918 63.355 9.92517 63.2677 9.77673 63.1479C9.6309 63.0256 9.5059 62.8667 9.40173 62.6714C9.29757 62.4761 9.21814 62.2391 9.16345 61.9604C9.10877 61.6818 9.08142 61.3563 9.08142 60.9839V60.1167C9.08142 59.6506 9.12309 59.2599 9.20642 58.9448C9.29236 58.6297 9.41345 58.3771 9.5697 58.187C9.72595 57.9943 9.91345 57.8563 10.1322 57.7729C10.3536 57.6896 10.601 57.6479 10.8744 57.6479C11.0957 57.6479 11.2989 57.6753 11.4838 57.73C11.6713 57.7821 11.8379 57.8667 11.9838 57.9839C12.1296 58.0985 12.2533 58.2521 12.3549 58.4448C12.459 58.6349 12.5385 58.868 12.5931 59.144C12.6478 59.4201 12.6752 59.7443 12.6752 60.1167ZM11.9486 61.1011V59.9956C11.9486 59.7404 11.933 59.5164 11.9017 59.3237C11.8731 59.1284 11.8301 58.9618 11.7728 58.8237C11.7155 58.6857 11.6426 58.5737 11.5541 58.4878C11.4681 58.4019 11.3679 58.3394 11.2533 58.3003C11.1413 58.2586 11.015 58.2378 10.8744 58.2378C10.7025 58.2378 10.5502 58.2703 10.4174 58.3354C10.2845 58.3979 10.1726 58.4982 10.0814 58.6362C9.99288 58.7743 9.92517 58.9552 9.8783 59.1792C9.83142 59.4032 9.80798 59.6753 9.80798 59.9956V61.1011C9.80798 61.3563 9.82231 61.5815 9.85095 61.7769C9.8822 61.9722 9.92778 62.1414 9.98767 62.2847C10.0476 62.4253 10.1205 62.5412 10.2064 62.6323C10.2924 62.7235 10.3913 62.7912 10.5033 62.8354C10.6179 62.8771 10.7442 62.8979 10.8822 62.8979C11.0593 62.8979 11.2142 62.8641 11.347 62.7964C11.4799 62.7287 11.5905 62.6232 11.6791 62.48C11.7702 62.3341 11.8379 62.1479 11.8822 61.9214C11.9265 61.6922 11.9486 61.4188 11.9486 61.1011ZM13.6746 59.1206V58.8198C13.6746 58.6037 13.7214 58.4071 13.8152 58.23C13.9089 58.0529 14.0431 57.911 14.2175 57.8042C14.392 57.6974 14.599 57.644 14.8386 57.644C15.0834 57.644 15.2918 57.6974 15.4636 57.8042C15.6381 57.911 15.7722 58.0529 15.866 58.23C15.9597 58.4071 16.0066 58.6037 16.0066 58.8198V59.1206C16.0066 59.3315 15.9597 59.5256 15.866 59.7026C15.7748 59.8797 15.642 60.0216 15.4675 60.1284C15.2957 60.2352 15.0886 60.2886 14.8464 60.2886C14.6043 60.2886 14.3946 60.2352 14.2175 60.1284C14.0431 60.0216 13.9089 59.8797 13.8152 59.7026C13.7214 59.5256 13.6746 59.3315 13.6746 59.1206ZM14.2175 58.8198V59.1206C14.2175 59.2404 14.2397 59.3537 14.2839 59.4604C14.3308 59.5672 14.4011 59.6545 14.4949 59.7222C14.5886 59.7873 14.7058 59.8198 14.8464 59.8198C14.9871 59.8198 15.1029 59.7873 15.1941 59.7222C15.2852 59.6545 15.3529 59.5672 15.3972 59.4604C15.4415 59.3537 15.4636 59.2404 15.4636 59.1206V58.8198C15.4636 58.6974 15.4402 58.5828 15.3933 58.4761C15.349 58.3667 15.28 58.2795 15.1863 58.2144C15.0951 58.1466 14.9793 58.1128 14.8386 58.1128C14.7006 58.1128 14.5847 58.1466 14.491 58.2144C14.3998 58.2795 14.3308 58.3667 14.2839 58.4761C14.2397 58.5828 14.2175 58.6974 14.2175 58.8198ZM16.4441 62.3237V62.019C16.4441 61.8055 16.491 61.6102 16.5847 61.4331C16.6785 61.256 16.8126 61.1141 16.9871 61.0073C17.1615 60.9006 17.3686 60.8472 17.6082 60.8472C17.8529 60.8472 18.0613 60.9006 18.2332 61.0073C18.4076 61.1141 18.5418 61.256 18.6355 61.4331C18.7293 61.6102 18.7761 61.8055 18.7761 62.019V62.3237C18.7761 62.5373 18.7293 62.7326 18.6355 62.9097C18.5444 63.0868 18.4115 63.2287 18.2371 63.3354C18.0652 63.4422 17.8582 63.4956 17.616 63.4956C17.3738 63.4956 17.1654 63.4422 16.991 63.3354C16.8165 63.2287 16.6811 63.0868 16.5847 62.9097C16.491 62.7326 16.4441 62.5373 16.4441 62.3237ZM16.9871 62.019V62.3237C16.9871 62.4435 17.0092 62.5581 17.0535 62.6675C17.1003 62.7743 17.1707 62.8615 17.2644 62.9292C17.3582 62.9943 17.4753 63.0269 17.616 63.0269C17.7566 63.0269 17.8725 62.9943 17.9636 62.9292C18.0574 62.8615 18.1264 62.7743 18.1707 62.6675C18.2149 62.5607 18.2371 62.4461 18.2371 62.3237V62.019C18.2371 61.8966 18.2136 61.7821 18.1668 61.6753C18.1225 61.5685 18.0535 61.4826 17.9597 61.4175C17.8686 61.3498 17.7514 61.3159 17.6082 61.3159C17.4701 61.3159 17.3543 61.3498 17.2605 61.4175C17.1694 61.4826 17.1003 61.5685 17.0535 61.6753C17.0092 61.7821 16.9871 61.8966 16.9871 62.019ZM17.7878 58.5347L15.0105 62.98L14.6043 62.7222L17.3816 58.2769L17.7878 58.5347Z" fill="black" fill-opacity="0.54"/>
<path d="M8.31641 89.7063V90.3H4.20703V89.8743L6.75391 85.9329H7.34375L6.71094 87.0735L5.02734 89.7063H8.31641ZM7.52344 85.9329V91.6204H6.80078V85.9329H7.52344ZM12.6752 88.3235V89.1907C12.6752 89.6568 12.6335 90.05 12.5502 90.3704C12.4668 90.6907 12.347 90.9485 12.1908 91.1438C12.0345 91.3391 11.8457 91.481 11.6244 91.5696C11.4056 91.6555 11.1582 91.6985 10.8822 91.6985C10.6635 91.6985 10.4616 91.6711 10.2767 91.6165C10.0918 91.5618 9.92517 91.4745 9.77673 91.3547C9.6309 91.2323 9.5059 91.0735 9.40173 90.8782C9.29757 90.6829 9.21814 90.4459 9.16345 90.1672C9.10877 89.8886 9.08142 89.5631 9.08142 89.1907V88.3235C9.08142 87.8573 9.12309 87.4667 9.20642 87.1516C9.29236 86.8365 9.41345 86.5839 9.5697 86.3938C9.72595 86.2011 9.91345 86.0631 10.1322 85.9797C10.3536 85.8964 10.601 85.8547 10.8744 85.8547C11.0957 85.8547 11.2989 85.8821 11.4838 85.9368C11.6713 85.9889 11.8379 86.0735 11.9838 86.1907C12.1296 86.3053 12.2533 86.4589 12.3549 86.6516C12.459 86.8417 12.5385 87.0748 12.5931 87.3508C12.6478 87.6269 12.6752 87.9511 12.6752 88.3235ZM11.9486 89.3079V88.2024C11.9486 87.9472 11.933 87.7232 11.9017 87.5305C11.8731 87.3352 11.8301 87.1685 11.7728 87.0305C11.7155 86.8925 11.6426 86.7805 11.5541 86.6946C11.4681 86.6086 11.3679 86.5461 11.2533 86.5071C11.1413 86.4654 11.015 86.4446 10.8744 86.4446C10.7025 86.4446 10.5502 86.4771 10.4174 86.5422C10.2845 86.6047 10.1726 86.705 10.0814 86.843C9.99288 86.981 9.92517 87.162 9.8783 87.386C9.83142 87.6099 9.80798 87.8821 9.80798 88.2024V89.3079C9.80798 89.5631 9.82231 89.7883 9.85095 89.9836C9.8822 90.179 9.92778 90.3482 9.98767 90.4915C10.0476 90.6321 10.1205 90.748 10.2064 90.8391C10.2924 90.9303 10.3913 90.998 10.5033 91.0422C10.6179 91.0839 10.7442 91.1047 10.8822 91.1047C11.0593 91.1047 11.2142 91.0709 11.347 91.0032C11.4799 90.9355 11.5905 90.83 11.6791 90.6868C11.7702 90.5409 11.8379 90.3547 11.8822 90.1282C11.9265 89.899 11.9486 89.6256 11.9486 89.3079ZM13.6746 87.3274V87.0266C13.6746 86.8105 13.7214 86.6139 13.8152 86.4368C13.9089 86.2597 14.0431 86.1178 14.2175 86.011C14.392 85.9042 14.599 85.8508 14.8386 85.8508C15.0834 85.8508 15.2918 85.9042 15.4636 86.011C15.6381 86.1178 15.7722 86.2597 15.866 86.4368C15.9597 86.6139 16.0066 86.8105 16.0066 87.0266V87.3274C16.0066 87.5383 15.9597 87.7323 15.866 87.9094C15.7748 88.0865 15.642 88.2284 15.4675 88.3352C15.2957 88.442 15.0886 88.4954 14.8464 88.4954C14.6043 88.4954 14.3946 88.442 14.2175 88.3352C14.0431 88.2284 13.9089 88.0865 13.8152 87.9094C13.7214 87.7323 13.6746 87.5383 13.6746 87.3274ZM14.2175 87.0266V87.3274C14.2175 87.4472 14.2397 87.5605 14.2839 87.6672C14.3308 87.774 14.4011 87.8612 14.4949 87.929C14.5886 87.9941 14.7058 88.0266 14.8464 88.0266C14.9871 88.0266 15.1029 87.9941 15.1941 87.929C15.2852 87.8612 15.3529 87.774 15.3972 87.6672C15.4415 87.5605 15.4636 87.4472 15.4636 87.3274V87.0266C15.4636 86.9042 15.4402 86.7896 15.3933 86.6829C15.349 86.5735 15.28 86.4862 15.1863 86.4211C15.0951 86.3534 14.9793 86.3196 14.8386 86.3196C14.7006 86.3196 14.5847 86.3534 14.491 86.4211C14.3998 86.4862 14.3308 86.5735 14.2839 86.6829C14.2397 86.7896 14.2175 86.9042 14.2175 87.0266ZM16.4441 90.5305V90.2258C16.4441 90.0123 16.491 89.817 16.5847 89.6399C16.6785 89.4628 16.8126 89.3209 16.9871 89.2141C17.1615 89.1073 17.3686 89.054 17.6082 89.054C17.8529 89.054 18.0613 89.1073 18.2332 89.2141C18.4076 89.3209 18.5418 89.4628 18.6355 89.6399C18.7293 89.817 18.7761 90.0123 18.7761 90.2258V90.5305C18.7761 90.7441 18.7293 90.9394 18.6355 91.1165C18.5444 91.2935 18.4115 91.4355 18.2371 91.5422C18.0652 91.649 17.8582 91.7024 17.616 91.7024C17.3738 91.7024 17.1654 91.649 16.991 91.5422C16.8165 91.4355 16.6811 91.2935 16.5847 91.1165C16.491 90.9394 16.4441 90.7441 16.4441 90.5305ZM16.9871 90.2258V90.5305C16.9871 90.6503 17.0092 90.7649 17.0535 90.8743C17.1003 90.981 17.1707 91.0683 17.2644 91.136C17.3582 91.2011 17.4753 91.2336 17.616 91.2336C17.7566 91.2336 17.8725 91.2011 17.9636 91.136C18.0574 91.0683 18.1264 90.981 18.1707 90.8743C18.2149 90.7675 18.2371 90.6529 18.2371 90.5305V90.2258C18.2371 90.1034 18.2136 89.9889 18.1668 89.8821C18.1225 89.7753 18.0535 89.6894 17.9597 89.6243C17.8686 89.5566 17.7514 89.5227 17.6082 89.5227C17.4701 89.5227 17.3543 89.5566 17.2605 89.6243C17.1694 89.6894 17.1003 89.7753 17.0535 89.8821C17.0092 89.9889 16.9871 90.1034 16.9871 90.2258ZM17.7878 86.7415L15.0105 91.1868L14.6043 90.929L17.3816 86.4836L17.7878 86.7415Z" fill="black" fill-opacity="0.54"/>
<path d="M8.19922 119.233V119.827H4.47656V119.308L6.33984 117.233C6.56901 116.978 6.74609 116.762 6.87109 116.585C6.9987 116.405 7.08724 116.245 7.13672 116.104C7.1888 115.961 7.21484 115.815 7.21484 115.667C7.21484 115.479 7.17578 115.31 7.09766 115.159C7.02214 115.006 6.91016 114.883 6.76172 114.792C6.61328 114.701 6.43359 114.655 6.22266 114.655C5.97005 114.655 5.75911 114.705 5.58984 114.804C5.42318 114.9 5.29818 115.035 5.21484 115.21C5.13151 115.384 5.08984 115.585 5.08984 115.812H4.36719C4.36719 115.491 4.4375 115.198 4.57812 114.933C4.71875 114.667 4.92708 114.456 5.20312 114.3C5.47917 114.141 5.81901 114.062 6.22266 114.062C6.58203 114.062 6.88932 114.125 7.14453 114.253C7.39974 114.378 7.59505 114.555 7.73047 114.784C7.86849 115.011 7.9375 115.276 7.9375 115.581C7.9375 115.748 7.90885 115.917 7.85156 116.089C7.79688 116.258 7.72005 116.427 7.62109 116.597C7.52474 116.766 7.41146 116.933 7.28125 117.097C7.15365 117.261 7.01693 117.422 6.87109 117.581L5.34766 119.233H8.19922ZM12.6752 116.53V117.397C12.6752 117.864 12.6335 118.257 12.5502 118.577C12.4668 118.897 12.347 119.155 12.1908 119.351C12.0345 119.546 11.8457 119.688 11.6244 119.776C11.4056 119.862 11.1582 119.905 10.8822 119.905C10.6635 119.905 10.4616 119.878 10.2767 119.823C10.0918 119.769 9.92517 119.681 9.77673 119.562C9.6309 119.439 9.5059 119.28 9.40173 119.085C9.29757 118.89 9.21814 118.653 9.16345 118.374C9.10877 118.095 9.08142 117.77 9.08142 117.397V116.53C9.08142 116.064 9.12309 115.674 9.20642 115.358C9.29236 115.043 9.41345 114.791 9.5697 114.601C9.72595 114.408 9.91345 114.27 10.1322 114.187C10.3536 114.103 10.601 114.062 10.8744 114.062C11.0957 114.062 11.2989 114.089 11.4838 114.144C11.6713 114.196 11.8379 114.28 11.9838 114.397C12.1296 114.512 12.2533 114.666 12.3549 114.858C12.459 115.049 12.5385 115.282 12.5931 115.558C12.6478 115.834 12.6752 116.158 12.6752 116.53ZM11.9486 117.515V116.409C11.9486 116.154 11.933 115.93 11.9017 115.737C11.8731 115.542 11.8301 115.375 11.7728 115.237C11.7155 115.099 11.6426 114.987 11.5541 114.901C11.4681 114.815 11.3679 114.753 11.2533 114.714C11.1413 114.672 11.015 114.651 10.8744 114.651C10.7025 114.651 10.5502 114.684 10.4174 114.749C10.2845 114.812 10.1726 114.912 10.0814 115.05C9.99288 115.188 9.92517 115.369 9.8783 115.593C9.83142 115.817 9.80798 116.089 9.80798 116.409V117.515C9.80798 117.77 9.82231 117.995 9.85095 118.19C9.8822 118.386 9.92778 118.555 9.98767 118.698C10.0476 118.839 10.1205 118.955 10.2064 119.046C10.2924 119.137 10.3913 119.205 10.5033 119.249C10.6179 119.291 10.7442 119.312 10.8822 119.312C11.0593 119.312 11.2142 119.278 11.347 119.21C11.4799 119.142 11.5905 119.037 11.6791 118.894C11.7702 118.748 11.8379 118.562 11.8822 118.335C11.9265 118.106 11.9486 117.832 11.9486 117.515ZM13.6746 115.534V115.233C13.6746 115.017 13.7214 114.821 13.8152 114.644C13.9089 114.466 14.0431 114.325 14.2175 114.218C14.392 114.111 14.599 114.058 14.8386 114.058C15.0834 114.058 15.2918 114.111 15.4636 114.218C15.6381 114.325 15.7722 114.466 15.866 114.644C15.9597 114.821 16.0066 115.017 16.0066 115.233V115.534C16.0066 115.745 15.9597 115.939 15.866 116.116C15.7748 116.293 15.642 116.435 15.4675 116.542C15.2957 116.649 15.0886 116.702 14.8464 116.702C14.6043 116.702 14.3946 116.649 14.2175 116.542C14.0431 116.435 13.9089 116.293 13.8152 116.116C13.7214 115.939 13.6746 115.745 13.6746 115.534ZM14.2175 115.233V115.534C14.2175 115.654 14.2397 115.767 14.2839 115.874C14.3308 115.981 14.4011 116.068 14.4949 116.136C14.5886 116.201 14.7058 116.233 14.8464 116.233C14.9871 116.233 15.1029 116.201 15.1941 116.136C15.2852 116.068 15.3529 115.981 15.3972 115.874C15.4415 115.767 15.4636 115.654 15.4636 115.534V115.233C15.4636 115.111 15.4402 114.996 15.3933 114.89C15.349 114.78 15.28 114.693 15.1863 114.628C15.0951 114.56 14.9793 114.526 14.8386 114.526C14.7006 114.526 14.5847 114.56 14.491 114.628C14.3998 114.693 14.3308 114.78 14.2839 114.89C14.2397 114.996 14.2175 115.111 14.2175 115.233ZM16.4441 118.737V118.433C16.4441 118.219 16.491 118.024 16.5847 117.847C16.6785 117.67 16.8126 117.528 16.9871 117.421C17.1615 117.314 17.3686 117.261 17.6082 117.261C17.8529 117.261 18.0613 117.314 18.2332 117.421C18.4076 117.528 18.5418 117.67 18.6355 117.847C18.7293 118.024 18.7761 118.219 18.7761 118.433V118.737C18.7761 118.951 18.7293 119.146 18.6355 119.323C18.5444 119.5 18.4115 119.642 18.2371 119.749C18.0652 119.856 17.8582 119.909 17.616 119.909C17.3738 119.909 17.1654 119.856 16.991 119.749C16.8165 119.642 16.6811 119.5 16.5847 119.323C16.491 119.146 16.4441 118.951 16.4441 118.737ZM16.9871 118.433V118.737C16.9871 118.857 17.0092 118.972 17.0535 119.081C17.1003 119.188 17.1707 119.275 17.2644 119.343C17.3582 119.408 17.4753 119.44 17.616 119.44C17.7566 119.44 17.8725 119.408 17.9636 119.343C18.0574 119.275 18.1264 119.188 18.1707 119.081C18.2149 118.974 18.2371 118.86 18.2371 118.737V118.433C18.2371 118.31 18.2136 118.196 18.1668 118.089C18.1225 117.982 18.0535 117.896 17.9597 117.831C17.8686 117.763 17.7514 117.729 17.6082 117.729C17.4701 117.729 17.3543 117.763 17.2605 117.831C17.1694 117.896 17.1003 117.982 17.0535 118.089C17.0092 118.196 16.9871 118.31 16.9871 118.433ZM17.7878 114.948L15.0105 119.394L14.6043 119.136L17.3816 114.69L17.7878 114.948Z" fill="black" fill-opacity="0.54"/>
<path d="M13.043 144.737V145.604C13.043 146.07 13.0013 146.464 12.918 146.784C12.8346 147.104 12.7148 147.362 12.5586 147.557C12.4023 147.753 12.2135 147.895 11.9922 147.983C11.7734 148.069 11.526 148.112 11.25 148.112C11.0312 148.112 10.8294 148.085 10.6445 148.03C10.4596 147.975 10.293 147.888 10.1445 147.768C9.9987 147.646 9.8737 147.487 9.76953 147.292C9.66536 147.096 9.58594 146.859 9.53125 146.581C9.47656 146.302 9.44922 145.977 9.44922 145.604V144.737C9.44922 144.271 9.49089 143.88 9.57422 143.565C9.66016 143.25 9.78125 142.997 9.9375 142.807C10.0938 142.615 10.2812 142.477 10.5 142.393C10.7214 142.31 10.9688 142.268 11.2422 142.268C11.4635 142.268 11.6667 142.296 11.8516 142.35C12.0391 142.402 12.2057 142.487 12.3516 142.604C12.4974 142.719 12.6211 142.872 12.7227 143.065C12.8268 143.255 12.9062 143.488 12.9609 143.764C13.0156 144.04 13.043 144.365 13.043 144.737ZM12.3164 145.721V144.616C12.3164 144.361 12.3008 144.137 12.2695 143.944C12.2409 143.749 12.1979 143.582 12.1406 143.444C12.0833 143.306 12.0104 143.194 11.9219 143.108C11.8359 143.022 11.7357 142.96 11.6211 142.921C11.5091 142.879 11.3828 142.858 11.2422 142.858C11.0703 142.858 10.918 142.891 10.7852 142.956C10.6523 143.018 10.5404 143.119 10.4492 143.257C10.3607 143.395 10.293 143.576 10.2461 143.8C10.1992 144.024 10.1758 144.296 10.1758 144.616V145.721C10.1758 145.977 10.1901 146.202 10.2188 146.397C10.25 146.593 10.2956 146.762 10.3555 146.905C10.4154 147.046 10.4883 147.162 10.5742 147.253C10.6602 147.344 10.7591 147.412 10.8711 147.456C10.9857 147.497 11.112 147.518 11.25 147.518C11.4271 147.518 11.582 147.484 11.7148 147.417C11.8477 147.349 11.9583 147.244 12.0469 147.1C12.138 146.955 12.2057 146.768 12.25 146.542C12.2943 146.313 12.3164 146.039 12.3164 145.721ZM14.0424 143.741V143.44C14.0424 143.224 14.0892 143.027 14.183 142.85C14.2767 142.673 14.4108 142.531 14.5853 142.425C14.7598 142.318 14.9668 142.264 15.2064 142.264C15.4512 142.264 15.6595 142.318 15.8314 142.425C16.0059 142.531 16.14 142.673 16.2338 142.85C16.3275 143.027 16.3744 143.224 16.3744 143.44V143.741C16.3744 143.952 16.3275 144.146 16.2338 144.323C16.1426 144.5 16.0098 144.642 15.8353 144.749C15.6635 144.856 15.4564 144.909 15.2142 144.909C14.972 144.909 14.7624 144.856 14.5853 144.749C14.4108 144.642 14.2767 144.5 14.183 144.323C14.0892 144.146 14.0424 143.952 14.0424 143.741ZM14.5853 143.44V143.741C14.5853 143.861 14.6075 143.974 14.6517 144.081C14.6986 144.188 14.7689 144.275 14.8627 144.343C14.9564 144.408 15.0736 144.44 15.2142 144.44C15.3549 144.44 15.4707 144.408 15.5619 144.343C15.653 144.275 15.7207 144.188 15.765 144.081C15.8093 143.974 15.8314 143.861 15.8314 143.741V143.44C15.8314 143.318 15.808 143.203 15.7611 143.096C15.7168 142.987 15.6478 142.9 15.5541 142.835C15.4629 142.767 15.347 142.733 15.2064 142.733C15.0684 142.733 14.9525 142.767 14.8588 142.835C14.7676 142.9 14.6986 142.987 14.6517 143.096C14.6075 143.203 14.5853 143.318 14.5853 143.44ZM16.8119 146.944V146.639C16.8119 146.426 16.8588 146.231 16.9525 146.053C17.0463 145.876 17.1804 145.734 17.3549 145.628C17.5293 145.521 17.7364 145.468 17.976 145.468C18.2207 145.468 18.4291 145.521 18.601 145.628C18.7754 145.734 18.9095 145.876 19.0033 146.053C19.097 146.231 19.1439 146.426 19.1439 146.639V146.944C19.1439 147.158 19.097 147.353 19.0033 147.53C18.9122 147.707 18.7793 147.849 18.6049 147.956C18.433 148.063 18.226 148.116 17.9838 148.116C17.7416 148.116 17.5332 148.063 17.3588 147.956C17.1843 147.849 17.0489 147.707 16.9525 147.53C16.8588 147.353 16.8119 147.158 16.8119 146.944ZM17.3549 146.639V146.944C17.3549 147.064 17.377 147.178 17.4213 147.288C17.4681 147.395 17.5385 147.482 17.6322 147.55C17.726 147.615 17.8431 147.647 17.9838 147.647C18.1244 147.647 18.2403 147.615 18.3314 147.55C18.4252 147.482 18.4942 147.395 18.5385 147.288C18.5827 147.181 18.6049 147.066 18.6049 146.944V146.639C18.6049 146.517 18.5814 146.402 18.5345 146.296C18.4903 146.189 18.4213 146.103 18.3275 146.038C18.2364 145.97 18.1192 145.936 17.976 145.936C17.8379 145.936 17.722 145.97 17.6283 146.038C17.5372 146.103 17.4681 146.189 17.4213 146.296C17.377 146.402 17.3549 146.517 17.3549 146.639ZM18.1556 143.155L15.3783 147.6L14.972 147.343L17.7494 142.897L18.1556 143.155Z" fill="black" fill-opacity="0.54"/>
<path d="M25 4.16113L200 4.16116" stroke="black" stroke-opacity="0.12"/>
<path d="M25 33.1611L200 33.1612" stroke="black" stroke-opacity="0.12"/>
<path d="M25 61.1611L200 61.1612" stroke="black" stroke-opacity="0.12"/>
<path d="M25 89.1611L200 89.1612" stroke="black" stroke-opacity="0.12"/>
<path d="M25 118.161L200 118.161" stroke="black" stroke-opacity="0.12"/>
<line x1="23.2" y1="145.961" x2="202.8" y2="145.961" stroke="black" stroke-opacity="0.7" stroke-width="0.4" stroke-linecap="square"/>
<line x1="40.45" y1="148.072" x2="40.45" y2="147.25" stroke="black" stroke-opacity="0.5" stroke-width="0.5" stroke-linecap="square"/>
<path d="M32.5091 152.025V152.893C32.5091 153.359 32.4674 153.752 32.3841 154.072C32.3007 154.393 32.1809 154.65 32.0247 154.846C31.8684 155.041 31.6796 155.183 31.4583 155.271C31.2395 155.357 30.9921 155.4 30.7161 155.4C30.4973 155.4 30.2955 155.373 30.1106 155.318C29.9257 155.264 29.7591 155.176 29.6106 155.057C29.4648 154.934 29.3398 154.775 29.2356 154.58C29.1315 154.385 29.052 154.148 28.9973 153.869C28.9427 153.59 28.9153 153.265 28.9153 152.893V152.025C28.9153 151.559 28.957 151.169 29.0403 150.854C29.1262 150.538 29.2473 150.286 29.4036 150.096C29.5598 149.903 29.7473 149.765 29.9661 149.682C30.1874 149.598 30.4348 149.557 30.7083 149.557C30.9296 149.557 31.1328 149.584 31.3177 149.639C31.5052 149.691 31.6718 149.775 31.8177 149.893C31.9635 150.007 32.0872 150.161 32.1887 150.354C32.2929 150.544 32.3723 150.777 32.427 151.053C32.4817 151.329 32.5091 151.653 32.5091 152.025ZM31.7825 153.01V151.904C31.7825 151.649 31.7669 151.425 31.7356 151.232C31.707 151.037 31.664 150.87 31.6067 150.732C31.5494 150.594 31.4765 150.482 31.388 150.396C31.302 150.311 31.2018 150.248 31.0872 150.209C30.9752 150.167 30.8489 150.146 30.7083 150.146C30.5364 150.146 30.3841 150.179 30.2512 150.244C30.1184 150.307 30.0065 150.407 29.9153 150.545C29.8268 150.683 29.7591 150.864 29.7122 151.088C29.6653 151.312 29.6419 151.584 29.6419 151.904V153.01C29.6419 153.265 29.6562 153.49 29.6848 153.686C29.7161 153.881 29.7617 154.05 29.8216 154.193C29.8815 154.334 29.9544 154.45 30.0403 154.541C30.1262 154.632 30.2252 154.7 30.3372 154.744C30.4518 154.786 30.5781 154.807 30.7161 154.807C30.8932 154.807 31.0481 154.773 31.1809 154.705C31.3137 154.637 31.4244 154.532 31.513 154.389C31.6041 154.243 31.6718 154.057 31.7161 153.83C31.7604 153.601 31.7825 153.327 31.7825 153.01ZM35.8964 149.604V155.322H35.1737V150.506L33.7167 151.037V150.385L35.7831 149.604H35.8964ZM41.1124 149.635V155.322H40.3585V149.635H41.1124ZM43.4952 152.193V152.811H40.9483V152.193H43.4952ZM43.8819 149.635V150.252H40.9483V149.635H43.8819ZM46.4216 155.4C46.1273 155.4 45.8604 155.351 45.6208 155.252C45.3838 155.15 45.1794 155.008 45.0075 154.826C44.8383 154.644 44.7081 154.428 44.6169 154.178C44.5258 153.928 44.4802 153.654 44.4802 153.357V153.193C44.4802 152.85 44.531 152.544 44.6325 152.275C44.7341 152.005 44.8721 151.775 45.0466 151.588C45.2211 151.4 45.419 151.258 45.6403 151.162C45.8617 151.066 46.0909 151.018 46.3278 151.018C46.6299 151.018 46.8903 151.07 47.1091 151.174C47.3305 151.278 47.5114 151.424 47.6521 151.611C47.7927 151.796 47.8969 152.015 47.9646 152.268C48.0323 152.518 48.0661 152.791 48.0661 153.088V153.412H44.9099V152.822H47.3435V152.768C47.3331 152.58 47.294 152.398 47.2263 152.221C47.1612 152.044 47.057 151.898 46.9138 151.783C46.7706 151.669 46.5752 151.611 46.3278 151.611C46.1638 151.611 46.0127 151.646 45.8747 151.717C45.7367 151.785 45.6182 151.886 45.5193 152.021C45.4203 152.157 45.3435 152.322 45.2888 152.518C45.2341 152.713 45.2068 152.938 45.2068 153.193V153.357C45.2068 153.558 45.2341 153.747 45.2888 153.924C45.3461 154.098 45.4281 154.252 45.5349 154.385C45.6443 154.518 45.7758 154.622 45.9294 154.697C46.0857 154.773 46.2627 154.811 46.4607 154.811C46.7159 154.811 46.932 154.758 47.1091 154.654C47.2862 154.55 47.4411 154.411 47.5739 154.236L48.0114 154.584C47.9203 154.722 47.8044 154.854 47.6638 154.979C47.5232 155.104 47.35 155.205 47.1443 155.283C46.9411 155.361 46.7002 155.4 46.4216 155.4ZM48.9886 149.322H49.7152V154.502L49.6527 155.322H48.9886V149.322ZM52.5706 153.174V153.256C52.5706 153.563 52.5342 153.848 52.4613 154.111C52.3883 154.372 52.2816 154.598 52.1409 154.791C52.0003 154.984 51.8284 155.133 51.6253 155.24C51.4222 155.347 51.1891 155.4 50.9261 155.4C50.6579 155.4 50.4222 155.355 50.2191 155.264C50.0185 155.17 49.8493 155.036 49.7113 154.861C49.5732 154.687 49.4626 154.476 49.3792 154.229C49.2985 153.981 49.2425 153.702 49.2113 153.393V153.033C49.2425 152.721 49.2985 152.441 49.3792 152.193C49.4626 151.946 49.5732 151.735 49.7113 151.561C49.8493 151.383 50.0185 151.249 50.2191 151.158C50.4196 151.064 50.6527 151.018 50.9183 151.018C51.1839 151.018 51.4196 151.07 51.6253 151.174C51.831 151.275 52.0029 151.421 52.1409 151.611C52.2816 151.801 52.3883 152.029 52.4613 152.295C52.5342 152.558 52.5706 152.851 52.5706 153.174ZM51.8441 153.256V153.174C51.8441 152.963 51.8245 152.765 51.7855 152.58C51.7464 152.393 51.6839 152.229 51.598 152.088C51.512 151.945 51.3988 151.833 51.2581 151.752C51.1175 151.669 50.9443 151.627 50.7386 151.627C50.5563 151.627 50.3975 151.658 50.262 151.721C50.1292 151.783 50.0159 151.868 49.9222 151.975C49.8284 152.079 49.7516 152.199 49.6917 152.334C49.6344 152.467 49.5915 152.605 49.5628 152.748V153.689C49.6045 153.872 49.6722 154.048 49.7659 154.217C49.8623 154.383 49.9899 154.52 50.1488 154.627C50.3102 154.734 50.5094 154.787 50.7464 154.787C50.9417 154.787 51.1084 154.748 51.2464 154.67C51.387 154.589 51.5003 154.479 51.5863 154.338C51.6748 154.197 51.7399 154.035 51.7816 153.85C51.8232 153.665 51.8441 153.467 51.8441 153.256Z" fill="black" fill-opacity="0.54"/>
<g clip-path="url(#clip1_4184_94527)">
<line x1="75.8499" y1="147.072" x2="75.8499" y2="146.25" stroke="black" stroke-opacity="0.5" stroke-width="0.5" stroke-linecap="square"/>
<path d="M67.909 152.025V152.892C67.909 153.358 67.8673 153.752 67.784 154.072C67.7006 154.392 67.5808 154.65 67.4246 154.845C67.2683 155.041 67.0795 155.183 66.8582 155.271C66.6394 155.357 66.392 155.4 66.116 155.4C65.8972 155.4 65.6954 155.373 65.5105 155.318C65.3256 155.263 65.159 155.176 65.0105 155.056C64.8647 154.934 64.7397 154.775 64.6355 154.58C64.5314 154.385 64.4519 154.148 64.3972 153.869C64.3426 153.59 64.3152 153.265 64.3152 152.892V152.025C64.3152 151.559 64.3569 151.168 64.4402 150.853C64.5261 150.538 64.6472 150.286 64.8035 150.095C64.9597 149.903 65.1472 149.765 65.366 149.681C65.5873 149.598 65.8347 149.556 66.1082 149.556C66.3295 149.556 66.5327 149.584 66.7176 149.638C66.9051 149.691 67.0717 149.775 67.2176 149.892C67.3634 150.007 67.4871 150.161 67.5886 150.353C67.6928 150.543 67.7722 150.776 67.8269 151.052C67.8816 151.329 67.909 151.653 67.909 152.025ZM67.1824 153.01V151.904C67.1824 151.649 67.1668 151.425 67.1355 151.232C67.1069 151.037 67.0639 150.87 67.0066 150.732C66.9493 150.594 66.8764 150.482 66.7879 150.396C66.7019 150.31 66.6017 150.248 66.4871 150.209C66.3751 150.167 66.2488 150.146 66.1082 150.146C65.9363 150.146 65.784 150.179 65.6511 150.244C65.5183 150.306 65.4064 150.407 65.3152 150.545C65.2267 150.683 65.159 150.864 65.1121 151.088C65.0652 151.312 65.0418 151.584 65.0418 151.904V153.01C65.0418 153.265 65.0561 153.49 65.0847 153.685C65.116 153.881 65.1616 154.05 65.2215 154.193C65.2814 154.334 65.3543 154.45 65.4402 154.541C65.5261 154.632 65.6251 154.7 65.7371 154.744C65.8517 154.786 65.978 154.806 66.116 154.806C66.2931 154.806 66.448 154.773 66.5808 154.705C66.7136 154.637 66.8243 154.532 66.9129 154.388C67.004 154.243 67.0717 154.056 67.116 153.83C67.1603 153.601 67.1824 153.327 67.1824 153.01ZM72.6478 154.728V155.322H68.9252V154.802L70.7885 152.728C71.0176 152.473 71.1947 152.257 71.3197 152.08C71.4473 151.9 71.5359 151.74 71.5853 151.599C71.6374 151.456 71.6635 151.31 71.6635 151.162C71.6635 150.974 71.6244 150.805 71.5463 150.654C71.4708 150.5 71.3588 150.378 71.2103 150.287C71.0619 150.196 70.8822 150.15 70.6713 150.15C70.4187 150.15 70.2077 150.2 70.0385 150.299C69.8718 150.395 69.7468 150.53 69.6635 150.705C69.5801 150.879 69.5385 151.08 69.5385 151.306H68.8158C68.8158 150.986 68.8861 150.693 69.0267 150.427C69.1674 150.162 69.3757 149.951 69.6517 149.795C69.9278 149.636 70.2676 149.556 70.6713 149.556C71.0307 149.556 71.3379 149.62 71.5932 149.748C71.8484 149.873 72.0437 150.05 72.1791 150.279C72.3171 150.506 72.3861 150.771 72.3861 151.076C72.3861 151.243 72.3575 151.412 72.3002 151.584C72.2455 151.753 72.1687 151.922 72.0697 152.092C71.9734 152.261 71.8601 152.427 71.7299 152.592C71.6023 152.756 71.4655 152.917 71.3197 153.076L69.7963 154.728H72.6478ZM76.5123 149.635V155.322H75.7584V149.635H76.5123ZM78.8951 152.193V152.81H76.3482V152.193H78.8951ZM79.2818 149.635V150.252H76.3482V149.635H79.2818ZM81.8215 155.4C81.5272 155.4 81.2603 155.351 81.0207 155.252C80.7837 155.15 80.5793 155.008 80.4074 154.826C80.2382 154.644 80.108 154.427 80.0168 154.177C79.9257 153.927 79.8801 153.654 79.8801 153.357V153.193C79.8801 152.849 79.9309 152.543 80.0324 152.275C80.134 152.004 80.272 151.775 80.4465 151.588C80.621 151.4 80.8189 151.258 81.0402 151.162C81.2616 151.066 81.4908 151.017 81.7277 151.017C82.0298 151.017 82.2902 151.069 82.509 151.174C82.7304 151.278 82.9113 151.424 83.052 151.611C83.1926 151.796 83.2968 152.015 83.3645 152.267C83.4322 152.517 83.466 152.791 83.466 153.088V153.412H80.3098V152.822H82.7434V152.767C82.733 152.58 82.6939 152.398 82.6262 152.22C82.5611 152.043 82.4569 151.898 82.3137 151.783C82.1705 151.668 81.9751 151.611 81.7277 151.611C81.5637 151.611 81.4126 151.646 81.2746 151.717C81.1366 151.784 81.0181 151.886 80.9192 152.021C80.8202 152.157 80.7434 152.322 80.6887 152.517C80.634 152.713 80.6067 152.938 80.6067 153.193V153.357C80.6067 153.558 80.634 153.747 80.6887 153.924C80.746 154.098 80.828 154.252 80.9348 154.385C81.0442 154.517 81.1757 154.622 81.3293 154.697C81.4856 154.773 81.6626 154.81 81.8606 154.81C82.1158 154.81 82.3319 154.758 82.509 154.654C82.6861 154.55 82.841 154.411 82.9738 154.236L83.4113 154.584C83.3202 154.722 83.2043 154.853 83.0637 154.978C82.9231 155.103 82.7499 155.205 82.5442 155.283C82.341 155.361 82.1001 155.4 81.8215 155.4ZM84.3885 149.322H85.1151V154.502L85.0526 155.322H84.3885V149.322ZM87.9705 153.174V153.256C87.9705 153.563 87.9341 153.848 87.8612 154.111C87.7882 154.372 87.6815 154.598 87.5408 154.791C87.4002 154.983 87.2283 155.133 87.0252 155.24C86.8221 155.347 86.589 155.4 86.326 155.4C86.0578 155.4 85.8221 155.355 85.619 155.263C85.4185 155.17 85.2492 155.036 85.1112 154.861C84.9731 154.687 84.8625 154.476 84.7791 154.228C84.6984 153.981 84.6424 153.702 84.6112 153.392V153.033C84.6424 152.72 84.6984 152.441 84.7791 152.193C84.8625 151.946 84.9731 151.735 85.1112 151.56C85.2492 151.383 85.4185 151.249 85.619 151.158C85.8195 151.064 86.0526 151.017 86.3182 151.017C86.5838 151.017 86.8195 151.069 87.0252 151.174C87.231 151.275 87.4028 151.421 87.5408 151.611C87.6815 151.801 87.7882 152.029 87.8612 152.295C87.9341 152.558 87.9705 152.851 87.9705 153.174ZM87.244 153.256V153.174C87.244 152.963 87.2244 152.765 87.1854 152.58C87.1463 152.392 87.0838 152.228 86.9979 152.088C86.9119 151.944 86.7987 151.832 86.658 151.752C86.5174 151.668 86.3442 151.627 86.1385 151.627C85.9562 151.627 85.7974 151.658 85.6619 151.72C85.5291 151.783 85.4158 151.868 85.3221 151.974C85.2283 152.079 85.1515 152.198 85.0916 152.334C85.0343 152.467 84.9914 152.605 84.9627 152.748V153.689C85.0044 153.872 85.0721 154.047 85.1658 154.217C85.2622 154.383 85.3898 154.52 85.5487 154.627C85.7101 154.733 85.9093 154.787 86.1463 154.787C86.3416 154.787 86.5083 154.748 86.6463 154.67C86.7869 154.589 86.9002 154.478 86.9862 154.338C87.0747 154.197 87.1398 154.034 87.1815 153.849C87.2231 153.664 87.244 153.467 87.244 153.256Z" fill="black" fill-opacity="0.54"/>
</g>
<g clip-path="url(#clip2_4184_94527)">
<line x1="111.25" y1="147.072" x2="111.25" y2="146.25" stroke="black" stroke-opacity="0.5" stroke-width="0.5" stroke-linecap="square"/>
<path d="M103.309 152.025V152.892C103.309 153.358 103.267 153.752 103.184 154.072C103.101 154.392 102.981 154.65 102.825 154.845C102.668 155.041 102.48 155.183 102.258 155.271C102.04 155.357 101.792 155.4 101.516 155.4C101.297 155.4 101.096 155.373 100.911 155.318C100.726 155.263 100.559 155.176 100.411 155.056C100.265 154.934 100.14 154.775 100.036 154.58C99.9315 154.385 99.8521 154.148 99.7974 153.869C99.7427 153.59 99.7154 153.265 99.7154 152.892V152.025C99.7154 151.559 99.757 151.168 99.8404 150.853C99.9263 150.538 100.047 150.286 100.204 150.095C100.36 149.903 100.547 149.765 100.766 149.681C100.987 149.598 101.235 149.556 101.508 149.556C101.73 149.556 101.933 149.584 102.118 149.638C102.305 149.691 102.472 149.775 102.618 149.892C102.764 150.007 102.887 150.161 102.989 150.353C103.093 150.543 103.172 150.776 103.227 151.052C103.282 151.329 103.309 151.653 103.309 152.025ZM102.583 153.01V151.904C102.583 151.649 102.567 151.425 102.536 151.232C102.507 151.037 102.464 150.87 102.407 150.732C102.349 150.594 102.277 150.482 102.188 150.396C102.102 150.31 102.002 150.248 101.887 150.209C101.775 150.167 101.649 150.146 101.508 150.146C101.336 150.146 101.184 150.179 101.051 150.244C100.918 150.306 100.807 150.407 100.715 150.545C100.627 150.683 100.559 150.864 100.512 151.088C100.465 151.312 100.442 151.584 100.442 151.904V153.01C100.442 153.265 100.456 153.49 100.485 153.685C100.516 153.881 100.562 154.05 100.622 154.193C100.682 154.334 100.754 154.45 100.84 154.541C100.926 154.632 101.025 154.7 101.137 154.744C101.252 154.786 101.378 154.806 101.516 154.806C101.693 154.806 101.848 154.773 101.981 154.705C102.114 154.637 102.224 154.532 102.313 154.388C102.404 154.243 102.472 154.056 102.516 153.83C102.56 153.601 102.583 153.327 102.583 153.01ZM105.376 152.123H105.892C106.144 152.123 106.353 152.081 106.517 151.998C106.683 151.912 106.807 151.796 106.888 151.65C106.971 151.502 107.013 151.335 107.013 151.15C107.013 150.931 106.976 150.748 106.903 150.599C106.831 150.451 106.721 150.339 106.575 150.263C106.429 150.188 106.245 150.15 106.021 150.15C105.818 150.15 105.638 150.191 105.482 150.271C105.328 150.349 105.207 150.461 105.118 150.607C105.032 150.753 104.989 150.925 104.989 151.123H104.267C104.267 150.834 104.34 150.571 104.485 150.334C104.631 150.097 104.836 149.908 105.099 149.767C105.364 149.627 105.672 149.556 106.021 149.556C106.364 149.556 106.665 149.618 106.923 149.74C107.181 149.86 107.381 150.039 107.525 150.279C107.668 150.516 107.739 150.812 107.739 151.166C107.739 151.309 107.706 151.463 107.638 151.627C107.573 151.788 107.47 151.939 107.329 152.08C107.191 152.22 107.012 152.336 106.79 152.427C106.569 152.516 106.303 152.56 105.993 152.56H105.376V152.123ZM105.376 152.717V152.283H105.993C106.355 152.283 106.655 152.326 106.892 152.412C107.129 152.498 107.315 152.612 107.45 152.756C107.588 152.899 107.685 153.056 107.739 153.228C107.797 153.398 107.825 153.567 107.825 153.736C107.825 154.002 107.78 154.237 107.689 154.443C107.6 154.649 107.474 154.823 107.31 154.967C107.148 155.11 106.958 155.218 106.739 155.291C106.521 155.364 106.282 155.4 106.025 155.4C105.777 155.4 105.544 155.365 105.325 155.295C105.109 155.224 104.918 155.123 104.751 154.99C104.584 154.855 104.454 154.689 104.36 154.494C104.267 154.296 104.22 154.071 104.22 153.818H104.943C104.943 154.016 104.985 154.189 105.071 154.338C105.16 154.486 105.285 154.602 105.446 154.685C105.61 154.766 105.803 154.806 106.025 154.806C106.246 154.806 106.436 154.769 106.595 154.693C106.756 154.615 106.88 154.498 106.966 154.342C107.054 154.185 107.099 153.989 107.099 153.752C107.099 153.515 107.049 153.321 106.95 153.17C106.851 153.016 106.711 152.903 106.528 152.83C106.349 152.754 106.137 152.717 105.892 152.717H105.376ZM111.912 149.635V155.322H111.159V149.635H111.912ZM114.295 152.193V152.81H111.748V152.193H114.295ZM114.682 149.635V150.252H111.748V149.635H114.682ZM117.222 155.4C116.927 155.4 116.66 155.351 116.421 155.252C116.184 155.15 115.979 155.008 115.808 154.826C115.638 154.644 115.508 154.427 115.417 154.177C115.326 153.927 115.28 153.654 115.28 153.357V153.193C115.28 152.849 115.331 152.543 115.433 152.275C115.534 152.004 115.672 151.775 115.847 151.588C116.021 151.4 116.219 151.258 116.44 151.162C116.662 151.066 116.891 151.017 117.128 151.017C117.43 151.017 117.69 151.069 117.909 151.174C118.13 151.278 118.311 151.424 118.452 151.611C118.593 151.796 118.697 152.015 118.765 152.267C118.832 152.517 118.866 152.791 118.866 153.088V153.412H115.71V152.822H118.144V152.767C118.133 152.58 118.094 152.398 118.026 152.22C117.961 152.043 117.857 151.898 117.714 151.783C117.571 151.668 117.375 151.611 117.128 151.611C116.964 151.611 116.813 151.646 116.675 151.717C116.537 151.784 116.418 151.886 116.319 152.021C116.22 152.157 116.144 152.322 116.089 152.517C116.034 152.713 116.007 152.938 116.007 153.193V153.357C116.007 153.558 116.034 153.747 116.089 153.924C116.146 154.098 116.228 154.252 116.335 154.385C116.444 154.517 116.576 154.622 116.729 154.697C116.886 154.773 117.063 154.81 117.261 154.81C117.516 154.81 117.732 154.758 117.909 154.654C118.086 154.55 118.241 154.411 118.374 154.236L118.811 154.584C118.72 154.722 118.604 154.853 118.464 154.978C118.323 155.103 118.15 155.205 117.944 155.283C117.741 155.361 117.5 155.4 117.222 155.4ZM119.789 149.322H120.515V154.502L120.453 155.322H119.789V149.322ZM123.371 153.174V153.256C123.371 153.563 123.334 153.848 123.261 154.111C123.188 154.372 123.082 154.598 122.941 154.791C122.8 154.983 122.628 155.133 122.425 155.24C122.222 155.347 121.989 155.4 121.726 155.4C121.458 155.4 121.222 155.355 121.019 155.263C120.819 155.17 120.649 155.036 120.511 154.861C120.373 154.687 120.263 154.476 120.179 154.228C120.099 153.981 120.043 153.702 120.011 153.392V153.033C120.043 152.72 120.099 152.441 120.179 152.193C120.263 151.946 120.373 151.735 120.511 151.56C120.649 151.383 120.819 151.249 121.019 151.158C121.22 151.064 121.453 151.017 121.718 151.017C121.984 151.017 122.22 151.069 122.425 151.174C122.631 151.275 122.803 151.421 122.941 151.611C123.082 151.801 123.188 152.029 123.261 152.295C123.334 152.558 123.371 152.851 123.371 153.174ZM122.644 153.256V153.174C122.644 152.963 122.625 152.765 122.586 152.58C122.546 152.392 122.484 152.228 122.398 152.088C122.312 151.944 122.199 151.832 122.058 151.752C121.918 151.668 121.744 151.627 121.539 151.627C121.356 151.627 121.198 151.658 121.062 151.72C120.929 151.783 120.816 151.868 120.722 151.974C120.628 152.079 120.552 152.198 120.492 152.334C120.434 152.467 120.392 152.605 120.363 152.748V153.689C120.405 153.872 120.472 154.047 120.566 154.217C120.662 154.383 120.79 154.52 120.949 154.627C121.11 154.733 121.309 154.787 121.546 154.787C121.742 154.787 121.908 154.748 122.046 154.67C122.187 154.589 122.3 154.478 122.386 154.338C122.475 154.197 122.54 154.034 122.582 153.849C122.623 153.664 122.644 153.467 122.644 153.256Z" fill="black" fill-opacity="0.54"/>
</g>
<g clip-path="url(#clip3_4184_94527)">
<line x1="146.65" y1="147.072" x2="146.65" y2="146.25" stroke="black" stroke-opacity="0.5" stroke-width="0.5" stroke-linecap="square"/>
<path d="M138.709 152.025V152.892C138.709 153.358 138.667 153.752 138.584 154.072C138.501 154.392 138.381 154.65 138.225 154.845C138.068 155.041 137.88 155.183 137.658 155.271C137.439 155.357 137.192 155.4 136.916 155.4C136.697 155.4 136.495 155.373 136.311 155.318C136.126 155.263 135.959 155.176 135.811 155.056C135.665 154.934 135.54 154.775 135.436 154.58C135.331 154.385 135.252 154.148 135.197 153.869C135.143 153.59 135.115 153.265 135.115 152.892V152.025C135.115 151.559 135.157 151.168 135.24 150.853C135.326 150.538 135.447 150.286 135.604 150.095C135.76 149.903 135.947 149.765 136.166 149.681C136.387 149.598 136.635 149.556 136.908 149.556C137.13 149.556 137.333 149.584 137.518 149.638C137.705 149.691 137.872 149.775 138.018 149.892C138.163 150.007 138.287 150.161 138.389 150.353C138.493 150.543 138.572 150.776 138.627 151.052C138.682 151.329 138.709 151.653 138.709 152.025ZM137.982 153.01V151.904C137.982 151.649 137.967 151.425 137.936 151.232C137.907 151.037 137.864 150.87 137.807 150.732C137.749 150.594 137.676 150.482 137.588 150.396C137.502 150.31 137.402 150.248 137.287 150.209C137.175 150.167 137.049 150.146 136.908 150.146C136.736 150.146 136.584 150.179 136.451 150.244C136.318 150.306 136.206 150.407 136.115 150.545C136.027 150.683 135.959 150.864 135.912 151.088C135.865 151.312 135.842 151.584 135.842 151.904V153.01C135.842 153.265 135.856 153.49 135.885 153.685C135.916 153.881 135.962 154.05 136.022 154.193C136.081 154.334 136.154 154.45 136.24 154.541C136.326 154.632 136.425 154.7 136.537 154.744C136.652 154.786 136.778 154.806 136.916 154.806C137.093 154.806 137.248 154.773 137.381 154.705C137.514 154.637 137.624 154.532 137.713 154.388C137.804 154.243 137.872 154.056 137.916 153.83C137.96 153.601 137.982 153.327 137.982 153.01ZM143.565 153.408V154.002H139.456V153.576L142.003 149.635H142.592L141.96 150.775L140.276 153.408H143.565ZM142.772 149.635V155.322H142.049V149.635H142.772ZM147.312 149.635V155.322H146.558V149.635H147.312ZM149.695 152.193V152.81H147.148V152.193H149.695ZM150.082 149.635V150.252H147.148V149.635H150.082ZM152.622 155.4C152.327 155.4 152.06 155.351 151.821 155.252C151.584 155.15 151.379 155.008 151.207 154.826C151.038 154.644 150.908 154.427 150.817 154.177C150.726 153.927 150.68 153.654 150.68 153.357V153.193C150.68 152.849 150.731 152.543 150.832 152.275C150.934 152.004 151.072 151.775 151.247 151.588C151.421 151.4 151.619 151.258 151.84 151.162C152.062 151.066 152.291 151.017 152.528 151.017C152.83 151.017 153.09 151.069 153.309 151.174C153.53 151.278 153.711 151.424 153.852 151.611C153.993 151.796 154.097 152.015 154.165 152.267C154.232 152.517 154.266 152.791 154.266 153.088V153.412H151.11V152.822H153.543V152.767C153.533 152.58 153.494 152.398 153.426 152.22C153.361 152.043 153.257 151.898 153.114 151.783C152.971 151.668 152.775 151.611 152.528 151.611C152.364 151.611 152.213 151.646 152.075 151.717C151.937 151.784 151.818 151.886 151.719 152.021C151.62 152.157 151.543 152.322 151.489 152.517C151.434 152.713 151.407 152.938 151.407 153.193V153.357C151.407 153.558 151.434 153.747 151.489 153.924C151.546 154.098 151.628 154.252 151.735 154.385C151.844 154.517 151.976 154.622 152.129 154.697C152.286 154.773 152.463 154.81 152.661 154.81C152.916 154.81 153.132 154.758 153.309 154.654C153.486 154.55 153.641 154.411 153.774 154.236L154.211 154.584C154.12 154.722 154.004 154.853 153.864 154.978C153.723 155.103 153.55 155.205 153.344 155.283C153.141 155.361 152.9 155.4 152.622 155.4ZM155.189 149.322H155.915V154.502L155.853 155.322H155.189V149.322ZM158.771 153.174V153.256C158.771 153.563 158.734 153.848 158.661 154.111C158.588 154.372 158.482 154.598 158.341 154.791C158.2 154.983 158.028 155.133 157.825 155.24C157.622 155.347 157.389 155.4 157.126 155.4C156.858 155.4 156.622 155.355 156.419 155.263C156.218 155.17 156.049 155.036 155.911 154.861C155.773 154.687 155.663 154.476 155.579 154.228C155.498 153.981 155.442 153.702 155.411 153.392V153.033C155.442 152.72 155.498 152.441 155.579 152.193C155.663 151.946 155.773 151.735 155.911 151.56C156.049 151.383 156.218 151.249 156.419 151.158C156.62 151.064 156.853 151.017 157.118 151.017C157.384 151.017 157.62 151.069 157.825 151.174C158.031 151.275 158.203 151.421 158.341 151.611C158.482 151.801 158.588 152.029 158.661 152.295C158.734 152.558 158.771 152.851 158.771 153.174ZM158.044 153.256V153.174C158.044 152.963 158.024 152.765 157.985 152.58C157.946 152.392 157.884 152.228 157.798 152.088C157.712 151.944 157.599 151.832 157.458 151.752C157.317 151.668 157.144 151.627 156.939 151.627C156.756 151.627 156.597 151.658 156.462 151.72C156.329 151.783 156.216 151.868 156.122 151.974C156.028 152.079 155.952 152.198 155.892 152.334C155.834 152.467 155.791 152.605 155.763 152.748V153.689C155.804 153.872 155.872 154.047 155.966 154.217C156.062 154.383 156.19 154.52 156.349 154.627C156.51 154.733 156.709 154.787 156.946 154.787C157.142 154.787 157.308 154.748 157.446 154.67C157.587 154.589 157.7 154.478 157.786 154.338C157.875 154.197 157.94 154.034 157.982 153.849C158.023 153.664 158.044 153.467 158.044 153.256Z" fill="black" fill-opacity="0.54"/>
</g>
<g clip-path="url(#clip4_4184_94527)">
<line x1="182.05" y1="147.072" x2="182.05" y2="146.25" stroke="black" stroke-opacity="0.5" stroke-width="0.5" stroke-linecap="square"/>
<path d="M174.109 152.025V152.892C174.109 153.358 174.067 153.752 173.984 154.072C173.901 154.392 173.781 154.65 173.625 154.845C173.469 155.041 173.28 155.183 173.058 155.271C172.84 155.357 172.592 155.4 172.316 155.4C172.097 155.4 171.896 155.373 171.711 155.318C171.526 155.263 171.359 155.176 171.211 155.056C171.065 154.934 170.94 154.775 170.836 154.58C170.732 154.385 170.652 154.148 170.597 153.869C170.543 153.59 170.515 153.265 170.515 152.892V152.025C170.515 151.559 170.557 151.168 170.64 150.853C170.726 150.538 170.847 150.286 171.004 150.095C171.16 149.903 171.347 149.765 171.566 149.681C171.788 149.598 172.035 149.556 172.308 149.556C172.53 149.556 172.733 149.584 172.918 149.638C173.105 149.691 173.272 149.775 173.418 149.892C173.564 150.007 173.687 150.161 173.789 150.353C173.893 150.543 173.972 150.776 174.027 151.052C174.082 151.329 174.109 151.653 174.109 152.025ZM173.383 153.01V151.904C173.383 151.649 173.367 151.425 173.336 151.232C173.307 151.037 173.264 150.87 173.207 150.732C173.15 150.594 173.077 150.482 172.988 150.396C172.902 150.31 172.802 150.248 172.687 150.209C172.575 150.167 172.449 150.146 172.308 150.146C172.136 150.146 171.984 150.179 171.851 150.244C171.719 150.306 171.607 150.407 171.515 150.545C171.427 150.683 171.359 150.864 171.312 151.088C171.265 151.312 171.242 151.584 171.242 151.904V153.01C171.242 153.265 171.256 153.49 171.285 153.685C171.316 153.881 171.362 154.05 171.422 154.193C171.482 154.334 171.554 154.45 171.64 154.541C171.726 154.632 171.825 154.7 171.937 154.744C172.052 154.786 172.178 154.806 172.316 154.806C172.493 154.806 172.648 154.773 172.781 154.705C172.914 154.637 173.025 154.532 173.113 154.388C173.204 154.243 173.272 154.056 173.316 153.83C173.36 153.601 173.383 153.327 173.383 153.01ZM176.036 152.615L175.457 152.467L175.743 149.635H178.661V150.302H176.356L176.184 151.849C176.288 151.789 176.42 151.733 176.579 151.681C176.74 151.629 176.925 151.603 177.133 151.603C177.396 151.603 177.632 151.649 177.84 151.74C178.049 151.829 178.226 151.956 178.371 152.123C178.52 152.289 178.633 152.49 178.711 152.724C178.789 152.959 178.829 153.22 178.829 153.51C178.829 153.783 178.791 154.034 178.715 154.263C178.642 154.493 178.532 154.693 178.383 154.865C178.235 155.034 178.047 155.166 177.821 155.26C177.597 155.353 177.332 155.4 177.028 155.4C176.799 155.4 176.581 155.369 176.375 155.306C176.172 155.241 175.99 155.144 175.829 155.013C175.67 154.881 175.539 154.717 175.438 154.521C175.339 154.323 175.276 154.092 175.25 153.826H175.938C175.969 154.039 176.032 154.219 176.125 154.365C176.219 154.511 176.342 154.622 176.493 154.697C176.646 154.77 176.825 154.806 177.028 154.806C177.2 154.806 177.352 154.776 177.485 154.717C177.618 154.657 177.73 154.571 177.821 154.459C177.912 154.347 177.981 154.211 178.028 154.052C178.077 153.894 178.102 153.715 178.102 153.517C178.102 153.338 178.077 153.171 178.028 153.017C177.978 152.864 177.904 152.73 177.805 152.615C177.709 152.5 177.59 152.412 177.45 152.349C177.309 152.284 177.148 152.252 176.965 152.252C176.723 152.252 176.539 152.284 176.414 152.349C176.292 152.414 176.166 152.503 176.036 152.615ZM182.713 149.635V155.322H181.959V149.635H182.713ZM185.095 152.193V152.81H182.548V152.193H185.095ZM185.482 149.635V150.252H182.548V149.635H185.482ZM188.022 155.4C187.727 155.4 187.46 155.351 187.221 155.252C186.984 155.15 186.78 155.008 186.608 154.826C186.438 154.644 186.308 154.427 186.217 154.177C186.126 153.927 186.08 153.654 186.08 153.357V153.193C186.08 152.849 186.131 152.543 186.233 152.275C186.334 152.004 186.472 151.775 186.647 151.588C186.821 151.4 187.019 151.258 187.24 151.162C187.462 151.066 187.691 151.017 187.928 151.017C188.23 151.017 188.49 151.069 188.709 151.174C188.931 151.278 189.112 151.424 189.252 151.611C189.393 151.796 189.497 152.015 189.565 152.267C189.632 152.517 189.666 152.791 189.666 153.088V153.412H186.51V152.822H188.944V152.767C188.933 152.58 188.894 152.398 188.826 152.22C188.761 152.043 188.657 151.898 188.514 151.783C188.371 151.668 188.175 151.611 187.928 151.611C187.764 151.611 187.613 151.646 187.475 151.717C187.337 151.784 187.218 151.886 187.119 152.021C187.02 152.157 186.944 152.322 186.889 152.517C186.834 152.713 186.807 152.938 186.807 153.193V153.357C186.807 153.558 186.834 153.747 186.889 153.924C186.946 154.098 187.028 154.252 187.135 154.385C187.244 154.517 187.376 154.622 187.53 154.697C187.686 154.773 187.863 154.81 188.061 154.81C188.316 154.81 188.532 154.758 188.709 154.654C188.886 154.55 189.041 154.411 189.174 154.236L189.612 154.584C189.52 154.722 189.405 154.853 189.264 154.978C189.123 155.103 188.95 155.205 188.744 155.283C188.541 155.361 188.3 155.4 188.022 155.4ZM190.589 149.322H191.315V154.502L191.253 155.322H190.589V149.322ZM194.171 153.174V153.256C194.171 153.563 194.134 153.848 194.061 154.111C193.988 154.372 193.882 154.598 193.741 154.791C193.6 154.983 193.429 155.133 193.225 155.24C193.022 155.347 192.789 155.4 192.526 155.4C192.258 155.4 192.022 155.355 191.819 155.263C191.619 155.17 191.449 155.036 191.311 154.861C191.173 154.687 191.063 154.476 190.979 154.228C190.899 153.981 190.843 153.702 190.811 153.392V153.033C190.843 152.72 190.899 152.441 190.979 152.193C191.063 151.946 191.173 151.735 191.311 151.56C191.449 151.383 191.619 151.249 191.819 151.158C192.02 151.064 192.253 151.017 192.518 151.017C192.784 151.017 193.02 151.069 193.225 151.174C193.431 151.275 193.603 151.421 193.741 151.611C193.882 151.801 193.988 152.029 194.061 152.295C194.134 152.558 194.171 152.851 194.171 153.174ZM193.444 153.256V153.174C193.444 152.963 193.425 152.765 193.386 152.58C193.347 152.392 193.284 152.228 193.198 152.088C193.112 151.944 192.999 151.832 192.858 151.752C192.718 151.668 192.544 151.627 192.339 151.627C192.156 151.627 191.998 151.658 191.862 151.72C191.729 151.783 191.616 151.868 191.522 151.974C191.429 152.079 191.352 152.198 191.292 152.334C191.235 152.467 191.192 152.605 191.163 152.748V153.689C191.205 153.872 191.272 154.047 191.366 154.217C191.462 154.383 191.59 154.52 191.749 154.627C191.91 154.733 192.11 154.787 192.347 154.787C192.542 154.787 192.708 154.748 192.847 154.67C192.987 154.589 193.1 154.478 193.186 154.338C193.275 154.197 193.34 154.034 193.382 153.849C193.423 153.664 193.444 153.467 193.444 153.256Z" fill="black" fill-opacity="0.54"/>
</g>
<path d="M27 107.445L40 88.0962L75.9407 44.9895C76.2611 44.6052 76.8161 44.5168 77.24 44.7826L110.556 65.6716C110.834 65.846 111.18 65.8728 111.482 65.7433L147 50.499L184.032 39.8183C184.327 39.7331 184.567 39.5168 184.682 39.2318L198.5 5" stroke="#FFC107" stroke-width="2" stroke-linecap="round"/>
<path d="M28 129.161L40 112.14L76 79.1614L111 89.2678L147 79.1614L178 120.651L199 89.2678" stroke="#4CAF50" stroke-width="2" stroke-linecap="round"/>
<path d="M27 118L40 71.7792L76 64.5635L110.5 17.6611L146.5 42.9162L182 71.7792L198.5 108" stroke="#2196F3" stroke-width="2" stroke-linecap="round"/>
</g>
<defs>
<clipPath id="clip0_4184_94527">
<rect width="200" height="160" fill="white"/>
</clipPath>
<clipPath id="clip1_4184_94527">
<rect width="35.4" height="10.322" fill="white" transform="translate(58.3999 146)"/>
</clipPath>
<clipPath id="clip2_4184_94527">
<rect width="35.4" height="10.322" fill="white" transform="translate(93.8 146)"/>
</clipPath>
<clipPath id="clip3_4184_94527">
<rect width="35.4" height="10.322" fill="white" transform="translate(129.2 146)"/>
</clipPath>
<clipPath id="clip4_4184_94527">
<rect width="35.4" height="10.322" fill="white" transform="translate(164.6 146)"/>
</clipPath>
</defs>
</svg>
