<svg width="200" height="160" viewBox="0 0 200 160" fill="none" xmlns="http://www.w3.org/2000/svg">
<rect width="200" height="160" rx="4" fill="white"/>
<path d="M30.9844 140.051L99.4921 20.5733L168 140.051H30.9844Z" stroke="black" stroke-opacity="0.38" stroke-width="0.570313"/>
<path d="M48.6356 129.637L99.492 40.2641L150.348 129.637H48.6356Z" fill="black" fill-opacity="0.04" stroke="#E0E0E0" stroke-width="0.570313"/>
<path d="M99.492 57.1875L135.902 121.172H63.0825L99.492 57.1875Z" fill="white"/>
<path d="M63.5729 120.887L99.492 57.7641L135.411 120.887H63.5729Z" stroke="black" stroke-opacity="0.12" stroke-width="0.570313"/>
<path d="M79.4438 111.637L99.4922 76.4052L119.541 111.637H79.4438Z" fill="black" fill-opacity="0.04" stroke="#E0E0E0" stroke-width="0.570313"/>
<path d="M99.4919 93.2812L105.093 103.125H93.8905L99.4919 93.2812Z" fill="white"/>
<path d="M94.3808 102.84L99.4919 93.8578L104.603 102.84H94.3808Z" stroke="black" stroke-opacity="0.12" stroke-width="0.570313"/>
<path d="M31.0625 139.766L99.4945 99.9585" stroke="#9E9E9E" stroke-width="0.613091"/>
<path d="M167.922 139.766L99.4919 99.9554" stroke="#9E9E9E" stroke-width="0.613091"/>
<path d="M99.4922 21.1401L99.4922 99.8433" stroke="#9E9E9E" stroke-width="0.613091"/>
<path d="M99.4272 55.3828L114.71 108.693" stroke="#00695C" stroke-width="0.613091"/>
<path d="M114.711 108.693L51.6627 127.261" stroke="#00695C" stroke-width="0.613091"/>
<path d="M99.4272 55.3828L51.6624 127.261" stroke="#00695C" stroke-width="0.613091"/>
<ellipse cx="51.6628" cy="127.261" rx="2.17432" ry="2.18445" fill="#00695C"/>
<ellipse cx="99.4922" cy="55.1742" rx="2.17432" ry="2.18445" fill="#00695C"/>
<ellipse cx="114.711" cy="108.693" rx="2.17432" ry="2.18445" fill="#00695C"/>
<path d="M28.1328 149.176L26.5117 154H25.375L27.5 148.312H28.2266L28.1328 149.176ZM29.4883 154L27.8594 149.176L27.7617 148.312H28.4922L30.6289 154H29.4883ZM29.4141 151.887V152.734H26.3633V151.887H29.4141Z" fill="black" fill-opacity="0.76"/>
<path d="M172.254 152.129H173.328C173.299 152.509 173.194 152.846 173.012 153.141C172.829 153.432 172.576 153.661 172.25 153.828C171.924 153.995 171.53 154.078 171.066 154.078C170.71 154.078 170.388 154.016 170.102 153.891C169.818 153.763 169.574 153.582 169.371 153.348C169.171 153.111 169.017 152.827 168.91 152.496C168.803 152.163 168.75 151.789 168.75 151.375V150.941C168.75 150.527 168.805 150.154 168.914 149.82C169.023 149.487 169.18 149.203 169.383 148.969C169.589 148.732 169.835 148.549 170.121 148.422C170.41 148.294 170.733 148.23 171.09 148.23C171.553 148.23 171.945 148.316 172.266 148.488C172.586 148.658 172.835 148.891 173.012 149.188C173.189 149.484 173.296 149.826 173.332 150.211H172.258C172.237 149.971 172.185 149.768 172.102 149.602C172.021 149.435 171.898 149.309 171.734 149.223C171.573 149.134 171.358 149.09 171.09 149.09C170.882 149.09 170.698 149.129 170.539 149.207C170.383 149.285 170.253 149.402 170.148 149.559C170.044 149.712 169.966 149.905 169.914 150.137C169.862 150.366 169.836 150.632 169.836 150.934V151.375C169.836 151.664 169.859 151.923 169.906 152.152C169.953 152.382 170.026 152.576 170.125 152.734C170.224 152.893 170.352 153.014 170.508 153.098C170.664 153.181 170.85 153.223 171.066 153.223C171.329 153.223 171.543 153.181 171.707 153.098C171.874 153.014 172 152.892 172.086 152.73C172.174 152.569 172.23 152.368 172.254 152.129Z" fill="black" fill-opacity="0.76"/>
<path d="M100.184 8.46484H98.7305L98.7227 7.70703H99.9688C100.182 7.70703 100.361 7.67708 100.504 7.61719C100.647 7.55729 100.755 7.47005 100.828 7.35547C100.904 7.24089 100.941 7.10156 100.941 6.9375C100.941 6.75521 100.906 6.60677 100.836 6.49219C100.768 6.3776 100.661 6.29427 100.516 6.24219C100.37 6.1875 100.185 6.16016 99.9609 6.16016H99.0781V11H98.0039V5.3125H99.9609C100.284 5.3125 100.572 5.34375 100.824 5.40625C101.079 5.46615 101.296 5.5599 101.473 5.6875C101.65 5.8151 101.784 5.97526 101.875 6.16797C101.969 6.36068 102.016 6.58984 102.016 6.85547C102.016 7.08984 101.961 7.30599 101.852 7.50391C101.745 7.69922 101.579 7.85807 101.355 7.98047C101.134 8.10286 100.853 8.17318 100.512 8.19141L100.184 8.46484ZM100.137 11H98.4141L98.8633 10.1562H100.137C100.35 10.1562 100.526 10.1211 100.664 10.0508C100.805 9.98047 100.909 9.88411 100.977 9.76172C101.047 9.63672 101.082 9.49349 101.082 9.33203C101.082 9.15495 101.051 9.0013 100.988 8.87109C100.928 8.74089 100.832 8.64062 100.699 8.57031C100.569 8.5 100.397 8.46484 100.184 8.46484H99.0664L99.0742 7.70703H100.496L100.742 8C101.07 8.0026 101.337 8.06771 101.543 8.19531C101.751 8.32292 101.905 8.48698 102.004 8.6875C102.103 8.88802 102.152 9.10417 102.152 9.33594C102.152 9.70052 102.073 10.0065 101.914 10.2539C101.758 10.5013 101.529 10.6875 101.227 10.8125C100.927 10.9375 100.564 11 100.137 11Z" fill="black" fill-opacity="0.76"/>
</svg>
