<svg width="200" height="160" viewBox="0 0 200 160" fill="none" xmlns="http://www.w3.org/2000/svg">
<g clip-path="url(#clip0_4437_96858)">
<path d="M2.76562 1.81641L0.882812 7H0.113281L2.28125 1.3125H2.77734L2.76562 1.81641ZM4.34375 7L2.45703 1.81641L2.44531 1.3125H2.94141L5.11719 7H4.34375ZM4.24609 4.89453V5.51172H1.05078V4.89453H4.24609Z" fill="black" fill-opacity="0.54"/>
<path d="M3.6875 32.5464H2.24609L2.23828 31.9409H3.54688C3.76302 31.9409 3.95182 31.9045 4.11328 31.8315C4.27474 31.7586 4.39974 31.6545 4.48828 31.519C4.57943 31.381 4.625 31.217 4.625 31.0269C4.625 30.8185 4.58464 30.6493 4.50391 30.519C4.42578 30.3862 4.30469 30.2899 4.14062 30.23C3.97917 30.1675 3.77344 30.1362 3.52344 30.1362H2.41406V35.2065H1.66016V29.519H3.52344C3.8151 29.519 4.07552 29.549 4.30469 29.6089C4.53385 29.6662 4.72786 29.7573 4.88672 29.8823C5.04818 30.0047 5.17057 30.161 5.25391 30.3511C5.33724 30.5412 5.37891 30.769 5.37891 31.0347C5.37891 31.269 5.31901 31.4813 5.19922 31.6714C5.07943 31.8589 4.91276 32.0125 4.69922 32.1323C4.48828 32.2521 4.24089 32.3289 3.95703 32.3628L3.6875 32.5464ZM3.65234 35.2065H1.94922L2.375 34.5933H3.65234C3.89193 34.5933 4.09505 34.5516 4.26172 34.4683C4.43099 34.3849 4.5599 34.2677 4.64844 34.1167C4.73698 33.9631 4.78125 33.7821 4.78125 33.5737C4.78125 33.3628 4.74349 33.1805 4.66797 33.0269C4.59245 32.8732 4.47396 32.7547 4.3125 32.6714C4.15104 32.5881 3.94271 32.5464 3.6875 32.5464H2.61328L2.62109 31.9409H4.08984L4.25 32.1597C4.52344 32.1831 4.75521 32.2612 4.94531 32.394C5.13542 32.5243 5.27995 32.6909 5.37891 32.894C5.48047 33.0972 5.53125 33.3211 5.53125 33.5659C5.53125 33.9201 5.45312 34.2196 5.29688 34.4644C5.14323 34.7065 4.92578 34.8914 4.64453 35.019C4.36328 35.144 4.03255 35.2065 3.65234 35.2065Z" fill="black" fill-opacity="0.54"/>
<path d="M4.09375 61.605H4.84375C4.80469 61.9644 4.70182 62.286 4.53516 62.5698C4.36849 62.8537 4.13281 63.0789 3.82812 63.2456C3.52344 63.4097 3.14323 63.4917 2.6875 63.4917C2.35417 63.4917 2.05078 63.4292 1.77734 63.3042C1.50651 63.1792 1.27344 63.0021 1.07812 62.7729C0.882812 62.5412 0.731771 62.2638 0.625 61.9409C0.520833 61.6154 0.46875 61.2534 0.46875 60.855V60.2886C0.46875 59.8901 0.520833 59.5295 0.625 59.2065C0.731771 58.881 0.884115 58.6024 1.08203 58.3706C1.28255 58.1388 1.52344 57.9604 1.80469 57.8354C2.08594 57.7104 2.40234 57.6479 2.75391 57.6479C3.18359 57.6479 3.54688 57.7287 3.84375 57.8901C4.14062 58.0516 4.37109 58.2756 4.53516 58.562C4.70182 58.8459 4.80469 59.1753 4.84375 59.5503H4.09375C4.05729 59.2847 3.98958 59.0568 3.89062 58.8667C3.79167 58.674 3.65104 58.5256 3.46875 58.4214C3.28646 58.3172 3.04818 58.2651 2.75391 58.2651C2.5013 58.2651 2.27865 58.3133 2.08594 58.4097C1.89583 58.506 1.73568 58.6427 1.60547 58.8198C1.47786 58.9969 1.38151 59.2091 1.31641 59.4565C1.2513 59.7039 1.21875 59.9787 1.21875 60.2808V60.855C1.21875 61.1336 1.2474 61.3953 1.30469 61.6401C1.36458 61.8849 1.45443 62.0998 1.57422 62.2847C1.69401 62.4696 1.84635 62.6154 2.03125 62.7222C2.21615 62.8263 2.4349 62.8784 2.6875 62.8784C3.00781 62.8784 3.26302 62.8276 3.45312 62.7261C3.64323 62.6245 3.78646 62.4787 3.88281 62.2886C3.98177 62.0985 4.05208 61.8706 4.09375 61.605Z" fill="black" fill-opacity="0.54"/>
<path d="M2.19922 91.6201H1.01172L1.01953 91.0068H2.19922C2.60547 91.0068 2.94401 90.9222 3.21484 90.7529C3.48568 90.5811 3.6888 90.3415 3.82422 90.0342C3.96224 89.7243 4.03125 89.3623 4.03125 88.9482V88.6006C4.03125 88.2751 3.99219 87.986 3.91406 87.7334C3.83594 87.4782 3.72135 87.2633 3.57031 87.0889C3.41927 86.9118 3.23438 86.7777 3.01562 86.6865C2.79948 86.5954 2.55078 86.5498 2.26953 86.5498H0.988281V85.9326H2.26953C2.64193 85.9326 2.98177 85.9951 3.28906 86.1201C3.59635 86.2425 3.86068 86.4209 4.08203 86.6553C4.30599 86.887 4.47786 87.1683 4.59766 87.499C4.71745 87.8271 4.77734 88.1969 4.77734 88.6084V88.9482C4.77734 89.3597 4.71745 89.7308 4.59766 90.0615C4.47786 90.3896 4.30469 90.6696 4.07812 90.9014C3.85417 91.1331 3.58333 91.3115 3.26562 91.4365C2.95052 91.5589 2.59505 91.6201 2.19922 91.6201ZM1.41406 85.9326V91.6201H0.660156V85.9326H1.41406Z" fill="black" fill-opacity="0.54"/>
<path d="M5.27344 119.214V119.827H2.26172V119.214H5.27344ZM2.41406 114.14V119.827H1.66016V114.14H2.41406ZM4.875 116.585V117.198H2.26172V116.585H4.875ZM5.23438 114.14V114.757H2.26172V114.14H5.23438Z" fill="black" fill-opacity="0.54"/>
<path d="M11 4.16113L186 4.16116" stroke="black" stroke-opacity="0.12"/>
<path d="M11 33.1611L186 33.1612" stroke="black" stroke-opacity="0.12"/>
<path d="M11 61.1611L186 61.1612" stroke="black" stroke-opacity="0.12"/>
<path d="M11 89.1611L186 89.1612" stroke="black" stroke-opacity="0.12"/>
<path d="M11 118.161L186 118.161" stroke="black" stroke-opacity="0.12"/>
<line x1="9.2" y1="145.961" x2="188.8" y2="145.961" stroke="black" stroke-opacity="0.7" stroke-width="0.4" stroke-linecap="square"/>
<line x1="26.4502" y1="148.072" x2="26.4502" y2="147.25" stroke="black" stroke-opacity="0.5" stroke-width="0.5" stroke-linecap="square"/>
<path d="M18.5091 152.025V152.893C18.5091 153.359 18.4674 153.752 18.3841 154.072C18.3007 154.393 18.1809 154.65 18.0247 154.846C17.8684 155.041 17.6796 155.183 17.4583 155.271C17.2395 155.357 16.9921 155.4 16.7161 155.4C16.4973 155.4 16.2955 155.373 16.1106 155.318C15.9257 155.264 15.7591 155.176 15.6106 155.057C15.4648 154.934 15.3398 154.775 15.2356 154.58C15.1315 154.385 15.052 154.148 14.9973 153.869C14.9427 153.59 14.9153 153.265 14.9153 152.893V152.025C14.9153 151.559 14.957 151.169 15.0403 150.854C15.1262 150.538 15.2473 150.286 15.4036 150.096C15.5598 149.903 15.7473 149.765 15.9661 149.682C16.1874 149.598 16.4348 149.557 16.7083 149.557C16.9296 149.557 17.1328 149.584 17.3177 149.639C17.5052 149.691 17.6718 149.775 17.8177 149.893C17.9635 150.007 18.0872 150.161 18.1887 150.354C18.2929 150.544 18.3723 150.777 18.427 151.053C18.4817 151.329 18.5091 151.653 18.5091 152.025ZM17.7825 153.01V151.904C17.7825 151.649 17.7669 151.425 17.7356 151.232C17.707 151.037 17.664 150.87 17.6067 150.732C17.5494 150.594 17.4765 150.482 17.388 150.396C17.302 150.311 17.2018 150.248 17.0872 150.209C16.9752 150.167 16.8489 150.146 16.7083 150.146C16.5364 150.146 16.3841 150.179 16.2512 150.244C16.1184 150.307 16.0065 150.407 15.9153 150.545C15.8268 150.683 15.7591 150.864 15.7122 151.088C15.6653 151.312 15.6419 151.584 15.6419 151.904V153.01C15.6419 153.265 15.6562 153.49 15.6848 153.686C15.7161 153.881 15.7617 154.05 15.8216 154.193C15.8815 154.334 15.9544 154.45 16.0403 154.541C16.1262 154.632 16.2252 154.7 16.3372 154.744C16.4518 154.786 16.5781 154.807 16.7161 154.807C16.8932 154.807 17.0481 154.773 17.1809 154.705C17.3137 154.637 17.4244 154.532 17.513 154.389C17.6041 154.243 17.6718 154.057 17.7161 153.83C17.7604 153.601 17.7825 153.327 17.7825 153.01ZM21.8964 149.604V155.322H21.1737V150.506L19.7167 151.037V150.385L21.7831 149.604H21.8964ZM27.1124 149.635V155.322H26.3585V149.635H27.1124ZM29.4952 152.193V152.811H26.9483V152.193H29.4952ZM29.8819 149.635V150.252H26.9483V149.635H29.8819ZM32.4216 155.4C32.1273 155.4 31.8604 155.351 31.6208 155.252C31.3838 155.15 31.1794 155.008 31.0075 154.826C30.8383 154.644 30.7081 154.428 30.6169 154.178C30.5258 153.928 30.4802 153.654 30.4802 153.357V153.193C30.4802 152.85 30.531 152.544 30.6325 152.275C30.7341 152.005 30.8721 151.775 31.0466 151.588C31.2211 151.4 31.419 151.258 31.6403 151.162C31.8617 151.066 32.0909 151.018 32.3278 151.018C32.6299 151.018 32.8903 151.07 33.1091 151.174C33.3305 151.278 33.5114 151.424 33.6521 151.611C33.7927 151.796 33.8969 152.015 33.9646 152.268C34.0323 152.518 34.0661 152.791 34.0661 153.088V153.412H30.9099V152.822H33.3435V152.768C33.3331 152.58 33.294 152.398 33.2263 152.221C33.1612 152.044 33.057 151.898 32.9138 151.783C32.7706 151.669 32.5752 151.611 32.3278 151.611C32.1638 151.611 32.0127 151.646 31.8747 151.717C31.7367 151.785 31.6182 151.886 31.5193 152.021C31.4203 152.157 31.3435 152.322 31.2888 152.518C31.2341 152.713 31.2068 152.938 31.2068 153.193V153.357C31.2068 153.558 31.2341 153.747 31.2888 153.924C31.3461 154.098 31.4281 154.252 31.5349 154.385C31.6443 154.518 31.7758 154.622 31.9294 154.697C32.0857 154.773 32.2627 154.811 32.4607 154.811C32.7159 154.811 32.932 154.758 33.1091 154.654C33.2862 154.55 33.4411 154.411 33.5739 154.236L34.0114 154.584C33.9203 154.722 33.8044 154.854 33.6638 154.979C33.5232 155.104 33.35 155.205 33.1443 155.283C32.9411 155.361 32.7002 155.4 32.4216 155.4ZM34.9886 149.322H35.7152V154.502L35.6527 155.322H34.9886V149.322ZM38.5706 153.174V153.256C38.5706 153.563 38.5342 153.848 38.4613 154.111C38.3883 154.372 38.2816 154.598 38.1409 154.791C38.0003 154.984 37.8284 155.133 37.6253 155.24C37.4222 155.347 37.1891 155.4 36.9261 155.4C36.6579 155.4 36.4222 155.355 36.2191 155.264C36.0185 155.17 35.8493 155.036 35.7113 154.861C35.5732 154.687 35.4626 154.476 35.3792 154.229C35.2985 153.981 35.2425 153.702 35.2113 153.393V153.033C35.2425 152.721 35.2985 152.441 35.3792 152.193C35.4626 151.946 35.5732 151.735 35.7113 151.561C35.8493 151.383 36.0185 151.249 36.2191 151.158C36.4196 151.064 36.6527 151.018 36.9183 151.018C37.1839 151.018 37.4196 151.07 37.6253 151.174C37.831 151.275 38.0029 151.421 38.1409 151.611C38.2816 151.801 38.3883 152.029 38.4613 152.295C38.5342 152.558 38.5706 152.851 38.5706 153.174ZM37.8441 153.256V153.174C37.8441 152.963 37.8245 152.765 37.7855 152.58C37.7464 152.393 37.6839 152.229 37.598 152.088C37.512 151.945 37.3988 151.833 37.2581 151.752C37.1175 151.669 36.9443 151.627 36.7386 151.627C36.5563 151.627 36.3975 151.658 36.262 151.721C36.1292 151.783 36.0159 151.868 35.9222 151.975C35.8284 152.079 35.7516 152.199 35.6917 152.334C35.6344 152.467 35.5915 152.605 35.5628 152.748V153.689C35.6045 153.872 35.6722 154.048 35.7659 154.217C35.8623 154.383 35.9899 154.52 36.1488 154.627C36.3102 154.734 36.5094 154.787 36.7464 154.787C36.9417 154.787 37.1084 154.748 37.2464 154.67C37.387 154.589 37.5003 154.479 37.5863 154.338C37.6748 154.197 37.7399 154.035 37.7816 153.85C37.8232 153.665 37.8441 153.467 37.8441 153.256Z" fill="black" fill-opacity="0.54"/>
<g clip-path="url(#clip1_4437_96858)">
<line x1="61.8501" y1="147.072" x2="61.8501" y2="146.25" stroke="black" stroke-opacity="0.5" stroke-width="0.5" stroke-linecap="square"/>
<path d="M53.909 152.025V152.893C53.909 153.359 53.8673 153.752 53.784 154.072C53.7006 154.393 53.5808 154.65 53.4246 154.846C53.2683 155.041 53.0795 155.183 52.8582 155.271C52.6394 155.357 52.392 155.4 52.116 155.4C51.8972 155.4 51.6954 155.373 51.5105 155.318C51.3256 155.264 51.159 155.176 51.0105 155.057C50.8647 154.934 50.7397 154.775 50.6355 154.58C50.5314 154.385 50.4519 154.148 50.3972 153.869C50.3426 153.59 50.3152 153.265 50.3152 152.893V152.025C50.3152 151.559 50.3569 151.169 50.4402 150.854C50.5261 150.538 50.6472 150.286 50.8035 150.096C50.9597 149.903 51.1472 149.765 51.366 149.682C51.5873 149.598 51.8347 149.557 52.1082 149.557C52.3295 149.557 52.5327 149.584 52.7176 149.639C52.9051 149.691 53.0717 149.775 53.2176 149.893C53.3634 150.007 53.4871 150.161 53.5886 150.354C53.6928 150.544 53.7722 150.777 53.8269 151.053C53.8816 151.329 53.909 151.653 53.909 152.025ZM53.1824 153.01V151.904C53.1824 151.649 53.1668 151.425 53.1355 151.232C53.1069 151.037 53.0639 150.87 53.0066 150.732C52.9493 150.594 52.8764 150.482 52.7879 150.396C52.7019 150.311 52.6017 150.248 52.4871 150.209C52.3751 150.167 52.2488 150.146 52.1082 150.146C51.9363 150.146 51.784 150.179 51.6511 150.244C51.5183 150.307 51.4064 150.407 51.3152 150.545C51.2267 150.683 51.159 150.864 51.1121 151.088C51.0652 151.312 51.0418 151.584 51.0418 151.904V153.01C51.0418 153.265 51.0561 153.49 51.0847 153.686C51.116 153.881 51.1616 154.05 51.2215 154.193C51.2814 154.334 51.3543 154.45 51.4402 154.541C51.5261 154.632 51.6251 154.7 51.7371 154.744C51.8517 154.786 51.978 154.807 52.116 154.807C52.2931 154.807 52.448 154.773 52.5808 154.705C52.7136 154.637 52.8243 154.532 52.9129 154.389C53.004 154.243 53.0717 154.057 53.116 153.83C53.1603 153.601 53.1824 153.327 53.1824 153.01ZM58.6478 154.729V155.322H54.9252V154.803L56.7885 152.729C57.0176 152.473 57.1947 152.257 57.3197 152.08C57.4473 151.9 57.5359 151.74 57.5853 151.6C57.6374 151.456 57.6635 151.311 57.6635 151.162C57.6635 150.975 57.6244 150.805 57.5463 150.654C57.4708 150.501 57.3588 150.378 57.2103 150.287C57.0619 150.196 56.8822 150.15 56.6713 150.15C56.4187 150.15 56.2077 150.2 56.0385 150.299C55.8718 150.395 55.7468 150.531 55.6635 150.705C55.5801 150.88 55.5385 151.08 55.5385 151.307H54.8158C54.8158 150.986 54.8861 150.693 55.0267 150.428C55.1674 150.162 55.3757 149.951 55.6517 149.795C55.9278 149.636 56.2676 149.557 56.6713 149.557C57.0307 149.557 57.3379 149.62 57.5932 149.748C57.8484 149.873 58.0437 150.05 58.1791 150.279C58.3171 150.506 58.3861 150.771 58.3861 151.076C58.3861 151.243 58.3575 151.412 58.3002 151.584C58.2455 151.753 58.1687 151.923 58.0697 152.092C57.9734 152.261 57.8601 152.428 57.7299 152.592C57.6023 152.756 57.4655 152.917 57.3197 153.076L55.7963 154.729H58.6478ZM62.5123 149.635V155.322H61.7584V149.635H62.5123ZM64.8951 152.193V152.811H62.3482V152.193H64.8951ZM65.2818 149.635V150.252H62.3482V149.635H65.2818ZM67.8215 155.4C67.5272 155.4 67.2603 155.351 67.0207 155.252C66.7837 155.15 66.5793 155.008 66.4074 154.826C66.2382 154.644 66.108 154.428 66.0168 154.178C65.9257 153.928 65.8801 153.654 65.8801 153.357V153.193C65.8801 152.85 65.9309 152.544 66.0324 152.275C66.134 152.005 66.272 151.775 66.4465 151.588C66.621 151.4 66.8189 151.258 67.0402 151.162C67.2616 151.066 67.4908 151.018 67.7277 151.018C68.0298 151.018 68.2902 151.07 68.509 151.174C68.7304 151.278 68.9113 151.424 69.052 151.611C69.1926 151.796 69.2968 152.015 69.3645 152.268C69.4322 152.518 69.466 152.791 69.466 153.088V153.412H66.3098V152.822H68.7434V152.768C68.733 152.58 68.6939 152.398 68.6262 152.221C68.5611 152.044 68.4569 151.898 68.3137 151.783C68.1705 151.669 67.9751 151.611 67.7277 151.611C67.5637 151.611 67.4126 151.646 67.2746 151.717C67.1366 151.785 67.0181 151.886 66.9192 152.021C66.8202 152.157 66.7434 152.322 66.6887 152.518C66.634 152.713 66.6067 152.938 66.6067 153.193V153.357C66.6067 153.558 66.634 153.747 66.6887 153.924C66.746 154.098 66.828 154.252 66.9348 154.385C67.0442 154.518 67.1757 154.622 67.3293 154.697C67.4856 154.773 67.6626 154.811 67.8606 154.811C68.1158 154.811 68.3319 154.758 68.509 154.654C68.6861 154.55 68.841 154.411 68.9738 154.236L69.4113 154.584C69.3202 154.722 69.2043 154.854 69.0637 154.979C68.9231 155.104 68.7499 155.205 68.5442 155.283C68.341 155.361 68.1001 155.4 67.8215 155.4ZM70.3885 149.322H71.1151V154.502L71.0526 155.322H70.3885V149.322ZM73.9705 153.174V153.256C73.9705 153.563 73.9341 153.848 73.8612 154.111C73.7882 154.372 73.6815 154.598 73.5408 154.791C73.4002 154.984 73.2283 155.133 73.0252 155.24C72.8221 155.347 72.589 155.4 72.326 155.4C72.0578 155.4 71.8221 155.355 71.619 155.264C71.4185 155.17 71.2492 155.036 71.1112 154.861C70.9731 154.687 70.8625 154.476 70.7791 154.229C70.6984 153.981 70.6424 153.702 70.6112 153.393V153.033C70.6424 152.721 70.6984 152.441 70.7791 152.193C70.8625 151.946 70.9731 151.735 71.1112 151.561C71.2492 151.383 71.4185 151.249 71.619 151.158C71.8195 151.064 72.0526 151.018 72.3182 151.018C72.5838 151.018 72.8195 151.07 73.0252 151.174C73.231 151.275 73.4028 151.421 73.5408 151.611C73.6815 151.801 73.7882 152.029 73.8612 152.295C73.9341 152.558 73.9705 152.851 73.9705 153.174ZM73.244 153.256V153.174C73.244 152.963 73.2244 152.765 73.1854 152.58C73.1463 152.393 73.0838 152.229 72.9979 152.088C72.9119 151.945 72.7987 151.833 72.658 151.752C72.5174 151.669 72.3442 151.627 72.1385 151.627C71.9562 151.627 71.7974 151.658 71.6619 151.721C71.5291 151.783 71.4158 151.868 71.3221 151.975C71.2283 152.079 71.1515 152.199 71.0916 152.334C71.0343 152.467 70.9914 152.605 70.9627 152.748V153.689C71.0044 153.872 71.0721 154.048 71.1658 154.217C71.2622 154.383 71.3898 154.52 71.5487 154.627C71.7101 154.734 71.9093 154.787 72.1463 154.787C72.3416 154.787 72.5083 154.748 72.6463 154.67C72.7869 154.589 72.9002 154.479 72.9862 154.338C73.0747 154.197 73.1398 154.035 73.1815 153.85C73.2231 153.665 73.244 153.467 73.244 153.256Z" fill="black" fill-opacity="0.54"/>
</g>
<g clip-path="url(#clip2_4437_96858)">
<line x1="97.25" y1="147.072" x2="97.25" y2="146.25" stroke="black" stroke-opacity="0.5" stroke-width="0.5" stroke-linecap="square"/>
<path d="M89.3089 152.025V152.893C89.3089 153.359 89.2672 153.752 89.1839 154.072C89.1005 154.393 88.9807 154.65 88.8245 154.846C88.6682 155.041 88.4794 155.183 88.2581 155.271C88.0393 155.357 87.7919 155.4 87.5159 155.4C87.2971 155.4 87.0953 155.373 86.9104 155.318C86.7255 155.264 86.5589 155.176 86.4104 155.057C86.2646 154.934 86.1396 154.775 86.0354 154.58C85.9313 154.385 85.8518 154.148 85.7971 153.869C85.7425 153.59 85.7151 153.265 85.7151 152.893V152.025C85.7151 151.559 85.7568 151.169 85.8401 150.854C85.9261 150.538 86.0471 150.286 86.2034 150.096C86.3596 149.903 86.5471 149.765 86.7659 149.682C86.9872 149.598 87.2346 149.557 87.5081 149.557C87.7294 149.557 87.9326 149.584 88.1175 149.639C88.305 149.691 88.4716 149.775 88.6175 149.893C88.7633 150.007 88.887 150.161 88.9886 150.354C89.0927 150.544 89.1721 150.777 89.2268 151.053C89.2815 151.329 89.3089 151.653 89.3089 152.025ZM88.5823 153.01V151.904C88.5823 151.649 88.5667 151.425 88.5354 151.232C88.5068 151.037 88.4638 150.87 88.4065 150.732C88.3492 150.594 88.2763 150.482 88.1878 150.396C88.1018 150.311 88.0016 150.248 87.887 150.209C87.775 150.167 87.6487 150.146 87.5081 150.146C87.3362 150.146 87.1839 150.179 87.0511 150.244C86.9182 150.307 86.8063 150.407 86.7151 150.545C86.6266 150.683 86.5589 150.864 86.512 151.088C86.4651 151.312 86.4417 151.584 86.4417 151.904V153.01C86.4417 153.265 86.456 153.49 86.4846 153.686C86.5159 153.881 86.5615 154.05 86.6214 154.193C86.6813 154.334 86.7542 154.45 86.8401 154.541C86.9261 154.632 87.025 154.7 87.137 154.744C87.2516 154.786 87.3779 154.807 87.5159 154.807C87.693 154.807 87.8479 154.773 87.9807 154.705C88.1136 154.637 88.2242 154.532 88.3128 154.389C88.4039 154.243 88.4716 154.057 88.5159 153.83C88.5602 153.601 88.5823 153.327 88.5823 153.01ZM91.3759 152.123H91.8915C92.1441 152.123 92.3524 152.081 92.5165 151.998C92.6832 151.912 92.8069 151.796 92.8876 151.65C92.9709 151.502 93.0126 151.335 93.0126 151.15C93.0126 150.932 92.9761 150.748 92.9032 150.6C92.8303 150.451 92.7209 150.339 92.5751 150.264C92.4293 150.188 92.2444 150.15 92.0204 150.15C91.8173 150.15 91.6376 150.191 91.4813 150.271C91.3277 150.35 91.2066 150.462 91.1181 150.607C91.0321 150.753 90.9891 150.925 90.9891 151.123H90.2665C90.2665 150.834 90.3394 150.571 90.4852 150.334C90.6311 150.097 90.8355 149.908 91.0985 149.768C91.3641 149.627 91.6714 149.557 92.0204 149.557C92.3641 149.557 92.6649 149.618 92.9227 149.74C93.1806 149.86 93.3811 150.04 93.5243 150.279C93.6675 150.516 93.7391 150.812 93.7391 151.166C93.7391 151.309 93.7053 151.463 93.6376 151.627C93.5725 151.788 93.4696 151.939 93.329 152.08C93.191 152.221 93.0113 152.337 92.7899 152.428C92.5686 152.516 92.3029 152.561 91.9931 152.561H91.3759V152.123ZM91.3759 152.717V152.283H91.9931C92.355 152.283 92.6545 152.326 92.8915 152.412C93.1285 152.498 93.3147 152.613 93.4501 152.756C93.5881 152.899 93.6845 153.057 93.7391 153.229C93.7964 153.398 93.8251 153.567 93.8251 153.736C93.8251 154.002 93.7795 154.238 93.6884 154.443C93.5998 154.649 93.4735 154.824 93.3095 154.967C93.148 155.11 92.9579 155.218 92.7391 155.291C92.5204 155.364 92.2821 155.4 92.0243 155.4C91.7769 155.4 91.5438 155.365 91.3251 155.295C91.1089 155.225 90.9175 155.123 90.7509 154.99C90.5842 154.855 90.454 154.689 90.3602 154.494C90.2665 154.296 90.2196 154.071 90.2196 153.818H90.9423C90.9423 154.016 90.9852 154.189 91.0712 154.338C91.1597 154.486 91.2847 154.602 91.4462 154.686C91.6102 154.766 91.8029 154.807 92.0243 154.807C92.2457 154.807 92.4358 154.769 92.5946 154.693C92.7561 154.615 92.8798 154.498 92.9657 154.342C93.0543 154.186 93.0985 153.989 93.0985 153.752C93.0985 153.515 93.049 153.321 92.9501 153.17C92.8511 153.016 92.7105 152.903 92.5282 152.83C92.3485 152.755 92.1363 152.717 91.8915 152.717H91.3759ZM97.9122 149.635V155.322H97.1583V149.635H97.9122ZM100.295 152.193V152.811H97.7481V152.193H100.295ZM100.682 149.635V150.252H97.7481V149.635H100.682ZM103.221 155.4C102.927 155.4 102.66 155.351 102.421 155.252C102.184 155.15 101.979 155.008 101.807 154.826C101.638 154.644 101.508 154.428 101.417 154.178C101.326 153.928 101.28 153.654 101.28 153.357V153.193C101.28 152.85 101.331 152.544 101.432 152.275C101.534 152.005 101.672 151.775 101.846 151.588C102.021 151.4 102.219 151.258 102.44 151.162C102.662 151.066 102.891 151.018 103.128 151.018C103.43 151.018 103.69 151.07 103.909 151.174C104.13 151.278 104.311 151.424 104.452 151.611C104.592 151.796 104.697 152.015 104.764 152.268C104.832 152.518 104.866 152.791 104.866 153.088V153.412H101.71V152.822H104.143V152.768C104.133 152.58 104.094 152.398 104.026 152.221C103.961 152.044 103.857 151.898 103.714 151.783C103.57 151.669 103.375 151.611 103.128 151.611C102.964 151.611 102.813 151.646 102.675 151.717C102.537 151.785 102.418 151.886 102.319 152.021C102.22 152.157 102.143 152.322 102.089 152.518C102.034 152.713 102.007 152.938 102.007 153.193V153.357C102.007 153.558 102.034 153.747 102.089 153.924C102.146 154.098 102.228 154.252 102.335 154.385C102.444 154.518 102.576 154.622 102.729 154.697C102.885 154.773 103.063 154.811 103.26 154.811C103.516 154.811 103.732 154.758 103.909 154.654C104.086 154.55 104.241 154.411 104.374 154.236L104.811 154.584C104.72 154.722 104.604 154.854 104.464 154.979C104.323 155.104 104.15 155.205 103.944 155.283C103.741 155.361 103.5 155.4 103.221 155.4ZM105.788 149.322H106.515V154.502L106.452 155.322H105.788V149.322ZM109.37 153.174V153.256C109.37 153.563 109.334 153.848 109.261 154.111C109.188 154.372 109.081 154.598 108.941 154.791C108.8 154.984 108.628 155.133 108.425 155.24C108.222 155.347 107.989 155.4 107.726 155.4C107.458 155.4 107.222 155.355 107.019 155.264C106.818 155.17 106.649 155.036 106.511 154.861C106.373 154.687 106.262 154.476 106.179 154.229C106.098 153.981 106.042 153.702 106.011 153.393V153.033C106.042 152.721 106.098 152.441 106.179 152.193C106.262 151.946 106.373 151.735 106.511 151.561C106.649 151.383 106.818 151.249 107.019 151.158C107.219 151.064 107.452 151.018 107.718 151.018C107.984 151.018 108.219 151.07 108.425 151.174C108.631 151.275 108.803 151.421 108.941 151.611C109.081 151.801 109.188 152.029 109.261 152.295C109.334 152.558 109.37 152.851 109.37 153.174ZM108.644 153.256V153.174C108.644 152.963 108.624 152.765 108.585 152.58C108.546 152.393 108.484 152.229 108.398 152.088C108.312 151.945 108.199 151.833 108.058 151.752C107.917 151.669 107.744 151.627 107.538 151.627C107.356 151.627 107.197 151.658 107.062 151.721C106.929 151.783 106.816 151.868 106.722 151.975C106.628 152.079 106.551 152.199 106.492 152.334C106.434 152.467 106.391 152.605 106.363 152.748V153.689C106.404 153.872 106.472 154.048 106.566 154.217C106.662 154.383 106.79 154.52 106.949 154.627C107.11 154.734 107.309 154.787 107.546 154.787C107.742 154.787 107.908 154.748 108.046 154.67C108.187 154.589 108.3 154.479 108.386 154.338C108.475 154.197 108.54 154.035 108.581 153.85C108.623 153.665 108.644 153.467 108.644 153.256Z" fill="black" fill-opacity="0.54"/>
</g>
<g clip-path="url(#clip3_4437_96858)">
<line x1="132.65" y1="147.072" x2="132.65" y2="146.25" stroke="black" stroke-opacity="0.5" stroke-width="0.5" stroke-linecap="square"/>
<path d="M124.709 152.025V152.893C124.709 153.359 124.668 153.752 124.584 154.072C124.501 154.393 124.381 154.65 124.225 154.846C124.069 155.041 123.88 155.183 123.658 155.271C123.44 155.357 123.192 155.4 122.916 155.4C122.698 155.4 122.496 155.373 122.311 155.318C122.126 155.264 121.959 155.176 121.811 155.057C121.665 154.934 121.54 154.775 121.436 154.58C121.332 154.385 121.252 154.148 121.198 153.869C121.143 153.59 121.116 153.265 121.116 152.893V152.025C121.116 151.559 121.157 151.169 121.241 150.854C121.326 150.538 121.448 150.286 121.604 150.096C121.76 149.903 121.948 149.765 122.166 149.682C122.388 149.598 122.635 149.557 122.908 149.557C123.13 149.557 123.333 149.584 123.518 149.639C123.705 149.691 123.872 149.775 124.018 149.893C124.164 150.007 124.287 150.161 124.389 150.354C124.493 150.544 124.573 150.777 124.627 151.053C124.682 151.329 124.709 151.653 124.709 152.025ZM123.983 153.01V151.904C123.983 151.649 123.967 151.425 123.936 151.232C123.907 151.037 123.864 150.87 123.807 150.732C123.75 150.594 123.677 150.482 123.588 150.396C123.502 150.311 123.402 150.248 123.287 150.209C123.175 150.167 123.049 150.146 122.908 150.146C122.737 150.146 122.584 150.179 122.451 150.244C122.319 150.307 122.207 150.407 122.116 150.545C122.027 150.683 121.959 150.864 121.912 151.088C121.866 151.312 121.842 151.584 121.842 151.904V153.01C121.842 153.265 121.856 153.49 121.885 153.686C121.916 153.881 121.962 154.05 122.022 154.193C122.082 154.334 122.155 154.45 122.241 154.541C122.326 154.632 122.425 154.7 122.537 154.744C122.652 154.786 122.778 154.807 122.916 154.807C123.093 154.807 123.248 154.773 123.381 154.705C123.514 154.637 123.625 154.532 123.713 154.389C123.804 154.243 123.872 154.057 123.916 153.83C123.961 153.601 123.983 153.327 123.983 153.01ZM129.565 153.408V154.002H125.456V153.576L128.003 149.635H128.593L127.96 150.775L126.276 153.408H129.565ZM128.772 149.635V155.322H128.05V149.635H128.772ZM133.313 149.635V155.322H132.559V149.635H133.313ZM135.695 152.193V152.811H133.149V152.193H135.695ZM136.082 149.635V150.252H133.149V149.635H136.082ZM138.622 155.4C138.328 155.4 138.061 155.351 137.821 155.252C137.584 155.15 137.38 155.008 137.208 154.826C137.038 154.644 136.908 154.428 136.817 154.178C136.726 153.928 136.68 153.654 136.68 153.357V153.193C136.68 152.85 136.731 152.544 136.833 152.275C136.934 152.005 137.072 151.775 137.247 151.588C137.421 151.4 137.619 151.258 137.841 151.162C138.062 151.066 138.291 151.018 138.528 151.018C138.83 151.018 139.091 151.07 139.309 151.174C139.531 151.278 139.712 151.424 139.852 151.611C139.993 151.796 140.097 152.015 140.165 152.268C140.232 152.518 140.266 152.791 140.266 153.088V153.412H137.11V152.822H139.544V152.768C139.533 152.58 139.494 152.398 139.426 152.221C139.361 152.044 139.257 151.898 139.114 151.783C138.971 151.669 138.775 151.611 138.528 151.611C138.364 151.611 138.213 151.646 138.075 151.717C137.937 151.785 137.818 151.886 137.719 152.021C137.62 152.157 137.544 152.322 137.489 152.518C137.434 152.713 137.407 152.938 137.407 153.193V153.357C137.407 153.558 137.434 153.747 137.489 153.924C137.546 154.098 137.628 154.252 137.735 154.385C137.844 154.518 137.976 154.622 138.13 154.697C138.286 154.773 138.463 154.811 138.661 154.811C138.916 154.811 139.132 154.758 139.309 154.654C139.486 154.55 139.641 154.411 139.774 154.236L140.212 154.584C140.12 154.722 140.005 154.854 139.864 154.979C139.723 155.104 139.55 155.205 139.344 155.283C139.141 155.361 138.9 155.4 138.622 155.4ZM141.189 149.322H141.915V154.502L141.853 155.322H141.189V149.322ZM144.771 153.174V153.256C144.771 153.563 144.734 153.848 144.661 154.111C144.589 154.372 144.482 154.598 144.341 154.791C144.201 154.984 144.029 155.133 143.826 155.24C143.622 155.347 143.389 155.4 143.126 155.4C142.858 155.4 142.622 155.355 142.419 155.264C142.219 155.17 142.049 155.036 141.911 154.861C141.773 154.687 141.663 154.476 141.579 154.229C141.499 153.981 141.443 153.702 141.411 153.393V153.033C141.443 152.721 141.499 152.441 141.579 152.193C141.663 151.946 141.773 151.735 141.911 151.561C142.049 151.383 142.219 151.249 142.419 151.158C142.62 151.064 142.853 151.018 143.118 151.018C143.384 151.018 143.62 151.07 143.826 151.174C144.031 151.275 144.203 151.421 144.341 151.611C144.482 151.801 144.589 152.029 144.661 152.295C144.734 152.558 144.771 152.851 144.771 153.174ZM144.044 153.256V153.174C144.044 152.963 144.025 152.765 143.986 152.58C143.947 152.393 143.884 152.229 143.798 152.088C143.712 151.945 143.599 151.833 143.458 151.752C143.318 151.669 143.145 151.627 142.939 151.627C142.757 151.627 142.598 151.658 142.462 151.721C142.329 151.783 142.216 151.868 142.122 151.975C142.029 152.079 141.952 152.199 141.892 152.334C141.835 152.467 141.792 152.605 141.763 152.748V153.689C141.805 153.872 141.872 154.048 141.966 154.217C142.062 154.383 142.19 154.52 142.349 154.627C142.51 154.734 142.71 154.787 142.947 154.787C143.142 154.787 143.309 154.748 143.447 154.67C143.587 154.589 143.701 154.479 143.786 154.338C143.875 154.197 143.94 154.035 143.982 153.85C144.023 153.665 144.044 153.467 144.044 153.256Z" fill="black" fill-opacity="0.54"/>
</g>
<g clip-path="url(#clip4_4437_96858)">
<line x1="168.05" y1="147.072" x2="168.05" y2="146.25" stroke="black" stroke-opacity="0.5" stroke-width="0.5" stroke-linecap="square"/>
<path d="M160.109 152.025V152.893C160.109 153.359 160.067 153.752 159.984 154.072C159.901 154.393 159.781 154.65 159.625 154.846C159.469 155.041 159.28 155.183 159.058 155.271C158.84 155.357 158.592 155.4 158.316 155.4C158.097 155.4 157.896 155.373 157.711 155.318C157.526 155.264 157.359 155.176 157.211 155.057C157.065 154.934 156.94 154.775 156.836 154.58C156.732 154.385 156.652 154.148 156.597 153.869C156.543 153.59 156.515 153.265 156.515 152.893V152.025C156.515 151.559 156.557 151.169 156.64 150.854C156.726 150.538 156.847 150.286 157.004 150.096C157.16 149.903 157.347 149.765 157.566 149.682C157.788 149.598 158.035 149.557 158.308 149.557C158.53 149.557 158.733 149.584 158.918 149.639C159.105 149.691 159.272 149.775 159.418 149.893C159.564 150.007 159.687 150.161 159.789 150.354C159.893 150.544 159.972 150.777 160.027 151.053C160.082 151.329 160.109 151.653 160.109 152.025ZM159.383 153.01V151.904C159.383 151.649 159.367 151.425 159.336 151.232C159.307 151.037 159.264 150.87 159.207 150.732C159.15 150.594 159.077 150.482 158.988 150.396C158.902 150.311 158.802 150.248 158.687 150.209C158.575 150.167 158.449 150.146 158.308 150.146C158.136 150.146 157.984 150.179 157.851 150.244C157.719 150.307 157.607 150.407 157.515 150.545C157.427 150.683 157.359 150.864 157.312 151.088C157.265 151.312 157.242 151.584 157.242 151.904V153.01C157.242 153.265 157.256 153.49 157.285 153.686C157.316 153.881 157.362 154.05 157.422 154.193C157.482 154.334 157.554 154.45 157.64 154.541C157.726 154.632 157.825 154.7 157.937 154.744C158.052 154.786 158.178 154.807 158.316 154.807C158.493 154.807 158.648 154.773 158.781 154.705C158.914 154.637 159.025 154.532 159.113 154.389C159.204 154.243 159.272 154.057 159.316 153.83C159.36 153.601 159.383 153.327 159.383 153.01ZM162.036 152.615L161.457 152.467L161.743 149.635H164.661V150.303H162.356L162.184 151.85C162.288 151.79 162.42 151.734 162.579 151.682C162.74 151.63 162.925 151.604 163.133 151.604C163.396 151.604 163.632 151.649 163.84 151.74C164.049 151.829 164.226 151.956 164.371 152.123C164.52 152.29 164.633 152.49 164.711 152.725C164.789 152.959 164.829 153.221 164.829 153.51C164.829 153.783 164.791 154.035 164.715 154.264C164.642 154.493 164.532 154.693 164.383 154.865C164.235 155.035 164.047 155.166 163.821 155.26C163.597 155.354 163.332 155.4 163.028 155.4C162.799 155.4 162.581 155.369 162.375 155.307C162.172 155.242 161.99 155.144 161.829 155.014C161.67 154.881 161.539 154.717 161.438 154.521C161.339 154.324 161.276 154.092 161.25 153.826H161.938C161.969 154.04 162.032 154.219 162.125 154.365C162.219 154.511 162.342 154.622 162.493 154.697C162.646 154.77 162.825 154.807 163.028 154.807C163.2 154.807 163.352 154.777 163.485 154.717C163.618 154.657 163.73 154.571 163.821 154.459C163.912 154.347 163.981 154.212 164.028 154.053C164.077 153.894 164.102 153.715 164.102 153.518C164.102 153.338 164.077 153.171 164.028 153.018C163.978 152.864 163.904 152.73 163.805 152.615C163.709 152.501 163.59 152.412 163.45 152.35C163.309 152.285 163.148 152.252 162.965 152.252C162.723 152.252 162.539 152.285 162.414 152.35C162.292 152.415 162.166 152.503 162.036 152.615ZM168.713 149.635V155.322H167.959V149.635H168.713ZM171.095 152.193V152.811H168.548V152.193H171.095ZM171.482 149.635V150.252H168.548V149.635H171.482ZM174.022 155.4C173.727 155.4 173.46 155.351 173.221 155.252C172.984 155.15 172.78 155.008 172.608 154.826C172.438 154.644 172.308 154.428 172.217 154.178C172.126 153.928 172.08 153.654 172.08 153.357V153.193C172.08 152.85 172.131 152.544 172.233 152.275C172.334 152.005 172.472 151.775 172.647 151.588C172.821 151.4 173.019 151.258 173.24 151.162C173.462 151.066 173.691 151.018 173.928 151.018C174.23 151.018 174.49 151.07 174.709 151.174C174.931 151.278 175.112 151.424 175.252 151.611C175.393 151.796 175.497 152.015 175.565 152.268C175.632 152.518 175.666 152.791 175.666 153.088V153.412H172.51V152.822H174.944V152.768C174.933 152.58 174.894 152.398 174.826 152.221C174.761 152.044 174.657 151.898 174.514 151.783C174.371 151.669 174.175 151.611 173.928 151.611C173.764 151.611 173.613 151.646 173.475 151.717C173.337 151.785 173.218 151.886 173.119 152.021C173.02 152.157 172.944 152.322 172.889 152.518C172.834 152.713 172.807 152.938 172.807 153.193V153.357C172.807 153.558 172.834 153.747 172.889 153.924C172.946 154.098 173.028 154.252 173.135 154.385C173.244 154.518 173.376 154.622 173.53 154.697C173.686 154.773 173.863 154.811 174.061 154.811C174.316 154.811 174.532 154.758 174.709 154.654C174.886 154.55 175.041 154.411 175.174 154.236L175.612 154.584C175.52 154.722 175.405 154.854 175.264 154.979C175.123 155.104 174.95 155.205 174.744 155.283C174.541 155.361 174.3 155.4 174.022 155.4ZM176.589 149.322H177.315V154.502L177.253 155.322H176.589V149.322ZM180.171 153.174V153.256C180.171 153.563 180.134 153.848 180.061 154.111C179.988 154.372 179.882 154.598 179.741 154.791C179.6 154.984 179.429 155.133 179.225 155.24C179.022 155.347 178.789 155.4 178.526 155.4C178.258 155.4 178.022 155.355 177.819 155.264C177.619 155.17 177.449 155.036 177.311 154.861C177.173 154.687 177.063 154.476 176.979 154.229C176.899 153.981 176.843 153.702 176.811 153.393V153.033C176.843 152.721 176.899 152.441 176.979 152.193C177.063 151.946 177.173 151.735 177.311 151.561C177.449 151.383 177.619 151.249 177.819 151.158C178.02 151.064 178.253 151.018 178.518 151.018C178.784 151.018 179.02 151.07 179.225 151.174C179.431 151.275 179.603 151.421 179.741 151.611C179.882 151.801 179.988 152.029 180.061 152.295C180.134 152.558 180.171 152.851 180.171 153.174ZM179.444 153.256V153.174C179.444 152.963 179.425 152.765 179.386 152.58C179.347 152.393 179.284 152.229 179.198 152.088C179.112 151.945 178.999 151.833 178.858 151.752C178.718 151.669 178.544 151.627 178.339 151.627C178.156 151.627 177.998 151.658 177.862 151.721C177.729 151.783 177.616 151.868 177.522 151.975C177.429 152.079 177.352 152.199 177.292 152.334C177.235 152.467 177.192 152.605 177.163 152.748V153.689C177.205 153.872 177.272 154.048 177.366 154.217C177.462 154.383 177.59 154.52 177.749 154.627C177.91 154.734 178.11 154.787 178.347 154.787C178.542 154.787 178.708 154.748 178.847 154.67C178.987 154.589 179.1 154.479 179.186 154.338C179.275 154.197 179.34 154.035 179.382 153.85C179.423 153.665 179.444 153.467 179.444 153.256Z" fill="black" fill-opacity="0.54"/>
</g>
<path d="M14.5 17.5H27H60.5C61.0523 17.5 61.5 17.9477 61.5 18.5V26C61.5 26.5523 61.9477 27 62.5 27H96C96.5523 27 97 26.5523 97 26V12.5C97 11.9477 97.4477 11.5 98 11.5H132C132.552 11.5 133 11.9477 133 12.5V32.5C133 33.0523 133.448 33.5 134 33.5H167.5C168.052 33.5 168.5 33.0523 168.5 32.5V24C168.5 23.4477 168.948 23 169.5 23H186" stroke="#FFC107" stroke-width="2" stroke-linecap="round"/>
<path d="M11 117H27V127.5H62V79.1611H97V101H132V89.2675H168.5V121.5H186" stroke="#4CAF50" stroke-width="2" stroke-linecap="round"/>
<path d="M12 60.5H28V69.5H62.5V47L97 47.0002V57.0002L133 57V69.5H168H185.5" stroke="#2196F3" stroke-width="2" stroke-linecap="round"/>
</g>
<defs>
<clipPath id="clip0_4437_96858">
<rect width="200" height="160" fill="white"/>
</clipPath>
<clipPath id="clip1_4437_96858">
<rect width="35.4" height="10.322" fill="white" transform="translate(44.3999 146)"/>
</clipPath>
<clipPath id="clip2_4437_96858">
<rect width="35.4" height="10.322" fill="white" transform="translate(79.7998 146)"/>
</clipPath>
<clipPath id="clip3_4437_96858">
<rect width="35.4" height="10.322" fill="white" transform="translate(115.2 146)"/>
</clipPath>
<clipPath id="clip4_4437_96858">
<rect width="35.4" height="10.322" fill="white" transform="translate(150.6 146)"/>
</clipPath>
</defs>
</svg>
