<svg width="382" height="354" viewBox="0 0 382 354" fill="none" xmlns="http://www.w3.org/2000/svg">
<g clip-path="url(#clip0_7377_1599)">
<g filter="url(#filter0_d_7377_1599)">
<path d="M37.7471 296.16H22.0582V339.706H15.6553V296.16H0V290.859H37.7471V296.16Z" fill="#305680"/>
<path d="M50.2926 307.804C53.0415 304.426 56.6173 302.738 61.02 302.738C68.6856 302.738 72.552 307.066 72.619 315.721V339.708H66.4172V315.688C66.3949 313.071 65.7915 311.136 64.607 309.884C63.4449 308.631 61.6234 308.005 59.1427 308.005C57.1313 308.005 55.3658 308.542 53.8461 309.615C52.3263 310.689 51.1419 312.098 50.2926 313.842V339.708H44.0908V288.178H50.2926V307.804Z" fill="#305680"/>
<path d="M88.6353 339.709H82.4335V303.41H88.6353V339.709ZM81.9307 293.781C81.9307 292.775 82.2324 291.925 82.8358 291.231C83.4616 290.538 84.3779 290.191 85.5847 290.191C86.7915 290.191 87.7078 290.538 88.3336 291.231C88.9593 291.925 89.2722 292.775 89.2722 293.781C89.2722 294.788 88.9593 295.626 88.3336 296.297C87.7078 296.968 86.7915 297.304 85.5847 297.304C84.3779 297.304 83.4616 296.968 82.8358 296.297C82.2324 295.626 81.9307 294.788 81.9307 293.781Z" fill="#305680"/>
<path d="M104.396 303.409L104.597 307.972C107.368 304.483 110.989 302.738 115.458 302.738C123.124 302.738 126.99 307.066 127.057 315.722V339.709H120.856V315.688C120.833 313.071 120.23 311.137 119.045 309.884C117.883 308.632 116.062 308.005 113.581 308.005C111.57 308.005 109.804 308.542 108.285 309.616C106.765 310.689 105.58 312.098 104.731 313.843V339.709H98.5293V303.409H104.396Z" fill="#305680"/>
<path d="M135.001 321.257C135.001 315.599 136.308 311.103 138.923 307.771C141.538 304.416 145.002 302.738 149.315 302.738C153.74 302.738 157.193 304.304 159.674 307.435L159.976 303.409H165.641V338.837C165.641 343.533 164.244 347.235 161.451 349.941C158.68 352.648 154.947 354.001 150.254 354.001C147.639 354.001 145.08 353.442 142.577 352.323C140.074 351.205 138.163 349.673 136.845 347.727L140.063 344.003C142.722 347.291 145.974 348.935 149.818 348.935C152.835 348.935 155.182 348.085 156.858 346.385C158.557 344.685 159.406 342.292 159.406 339.206V336.086C156.925 338.948 153.539 340.38 149.248 340.38C145.002 340.38 141.56 338.669 138.923 335.247C136.308 331.825 135.001 327.162 135.001 321.257ZM141.236 321.962C141.236 326.055 142.074 329.275 143.751 331.624C145.427 333.95 147.773 335.113 150.79 335.113C154.701 335.113 157.573 333.335 159.406 329.779V313.205C157.506 309.739 154.657 308.005 150.857 308.005C147.84 308.005 145.483 309.18 143.784 311.528C142.086 313.876 141.236 317.354 141.236 321.962Z" fill="#305680"/>
<path d="M196.075 330.08C196.075 328.403 195.438 327.106 194.165 326.189C192.913 325.249 190.712 324.444 187.561 323.773C184.432 323.102 181.94 322.297 180.085 321.358C178.252 320.418 176.889 319.3 175.995 318.003C175.123 316.706 174.688 315.162 174.688 313.373C174.688 310.399 175.939 307.882 178.442 305.825C180.968 303.767 184.186 302.738 188.097 302.738C192.209 302.738 195.539 303.801 198.087 305.925C200.657 308.05 201.942 310.768 201.942 314.078H195.707C195.707 312.378 194.98 310.913 193.528 309.683C192.097 308.453 190.287 307.838 188.097 307.838C185.84 307.838 184.074 308.33 182.8 309.314C181.526 310.298 180.889 311.584 180.889 313.172C180.889 314.67 181.482 315.8 182.666 316.56C183.851 317.321 185.985 318.048 189.069 318.741C192.176 319.434 194.69 320.262 196.612 321.224C198.534 322.185 199.953 323.348 200.869 324.713C201.808 326.055 202.277 327.698 202.277 329.644C202.277 332.887 200.981 335.493 198.388 337.461C195.796 339.407 192.433 340.38 188.298 340.38C185.393 340.38 182.823 339.865 180.588 338.837C178.353 337.808 176.598 336.376 175.325 334.542C174.073 332.686 173.447 330.684 173.447 328.537H179.649C179.761 330.617 180.588 332.272 182.13 333.502C183.694 334.71 185.75 335.314 188.298 335.314C190.645 335.314 192.522 334.844 193.93 333.905C195.36 332.943 196.075 331.668 196.075 330.08Z" fill="#305680"/>
<path d="M211.328 339.706V290.859H227.285C232.582 290.859 236.56 291.955 239.219 294.147C241.901 296.339 243.242 299.582 243.242 303.876C243.242 306.158 242.594 308.182 241.298 309.949C240.002 311.693 238.236 313.046 236.001 314.008C238.638 314.746 240.717 316.155 242.236 318.235C243.779 320.293 244.55 322.753 244.55 325.616C244.55 329.999 243.13 333.444 240.292 335.949C237.454 338.454 233.442 339.706 228.257 339.706H211.328ZM217.765 316.86V334.439H228.391C231.386 334.439 233.744 333.667 235.465 332.124C237.208 330.559 238.08 328.412 238.08 325.683C238.08 319.801 234.884 316.86 228.492 316.86H217.765ZM217.765 311.693H227.486C230.302 311.693 232.548 310.989 234.224 309.58C235.923 308.17 236.772 306.258 236.772 303.843C236.772 301.159 235.99 299.213 234.426 298.005C232.861 296.775 230.481 296.16 227.285 296.16H217.765V311.693Z" fill="#305680"/>
<path d="M251.488 321.224C251.488 317.667 252.181 314.469 253.567 311.629C254.975 308.788 256.919 306.596 259.4 305.053C261.903 303.51 264.752 302.738 267.948 302.738C272.887 302.738 276.876 304.449 279.916 307.871C282.978 311.293 284.509 315.845 284.509 321.526V321.962C284.509 325.495 283.827 328.671 282.464 331.489C281.123 334.285 279.19 336.466 276.664 338.031C274.161 339.597 271.278 340.38 268.015 340.38C263.098 340.38 259.109 338.669 256.047 335.247C253.008 331.825 251.488 327.296 251.488 321.66V321.224ZM257.724 321.962C257.724 325.988 258.651 329.219 260.506 331.657C262.383 334.095 264.886 335.314 268.015 335.314C271.166 335.314 273.669 334.084 275.524 331.624C277.379 329.141 278.307 325.674 278.307 321.224C278.307 317.242 277.357 314.022 275.457 311.562C273.58 309.079 271.077 307.838 267.948 307.838C264.886 307.838 262.417 309.057 260.54 311.494C258.662 313.932 257.724 317.421 257.724 321.962Z" fill="#305680"/>
<path d="M314.685 339.709C314.327 338.993 314.037 337.718 313.813 335.884C310.93 338.881 307.488 340.38 303.488 340.38C299.912 340.38 296.973 339.373 294.671 337.361C292.392 335.325 291.252 332.753 291.252 329.644C291.252 325.864 292.682 322.935 295.543 320.855C298.426 318.752 302.471 317.701 307.678 317.701H313.712V314.849C313.712 312.68 313.064 310.958 311.768 309.683C310.472 308.386 308.561 307.737 306.036 307.737C303.823 307.737 301.968 308.296 300.471 309.414C298.973 310.533 298.225 311.886 298.225 313.474H291.989C291.989 311.662 292.626 309.918 293.9 308.24C295.197 306.54 296.94 305.199 299.13 304.214C301.342 303.23 303.767 302.738 306.404 302.738C310.584 302.738 313.858 303.789 316.227 305.892C318.596 307.972 319.825 310.846 319.914 314.514V331.221C319.914 334.554 320.339 337.204 321.188 339.172V339.709H314.685ZM304.393 334.979C306.337 334.979 308.181 334.475 309.924 333.469C311.668 332.462 312.93 331.154 313.712 329.544V322.096H308.852C301.253 322.096 297.454 324.321 297.454 328.772C297.454 330.718 298.102 332.239 299.398 333.335C300.694 334.431 302.359 334.979 304.393 334.979Z" fill="#305680"/>
<path d="M347.226 308.978C346.287 308.822 345.27 308.743 344.175 308.743C340.108 308.743 337.348 310.477 335.895 313.944V339.709H329.693V303.409H335.728L335.828 307.603C337.862 304.36 340.745 302.738 344.477 302.738C345.684 302.738 346.6 302.895 347.226 303.208V308.978Z" fill="#305680"/>
<path d="M351.392 321.257C351.392 315.688 352.71 311.214 355.347 307.837C357.984 304.438 361.437 302.738 365.706 302.738C369.952 302.738 373.316 304.192 375.796 307.099V288.178H381.998V339.709H376.299L375.998 335.817C373.517 338.859 370.064 340.379 365.639 340.379C361.437 340.379 358.007 338.657 355.347 335.213C352.71 331.769 351.392 327.273 351.392 321.726V321.257ZM357.593 321.961C357.593 326.077 358.443 329.297 360.141 331.623C361.84 333.949 364.186 335.112 367.181 335.112C371.114 335.112 373.986 333.345 375.796 329.812V313.138C373.941 309.716 371.092 308.005 367.248 308.005C364.209 308.005 361.84 309.179 360.141 311.528C358.443 313.876 357.593 317.354 357.593 321.961Z" fill="#305680"/>
</g>
<g filter="url(#filter1_d_7377_1599)">
<path fill-rule="evenodd" clip-rule="evenodd" d="M184.261 0C161.469 0 140.203 6.32174 121.985 17.2047C116.769 12.9636 110.268 10.6429 103.447 10.6429C87.2361 10.6429 73.9945 23.8466 73.9945 40.011C73.9945 46.7329 76.3218 53.2147 80.495 58.3361C69.4202 76.6611 63 98.027 63 120.913C63 121.874 63.1605 122.754 63.4815 123.634C63.8025 124.514 64.3643 125.315 65.0063 125.955C65.6483 126.595 66.4508 127.155 67.3336 127.475C68.2164 127.795 69.0992 128.035 70.0622 128.035C71.0252 128.035 71.908 127.875 72.7908 127.475C73.6735 127.155 74.3958 126.595 75.1181 125.955C75.7601 125.315 76.3218 124.514 76.6429 123.634C76.9639 122.754 77.2046 121.874 77.1244 120.913C77.1244 101.148 82.5013 82.7428 91.8908 66.8184C95.5824 68.4188 99.5147 69.2991 103.527 69.3791C119.738 69.3791 132.98 56.1755 132.98 40.011C132.98 36.0099 132.097 32.0888 130.492 28.4878C146.302 19.2853 164.679 14.0039 184.341 14.0039C185.304 14.0039 186.187 13.8438 187.07 13.5237C187.953 13.2036 188.755 12.6435 189.397 12.0033C190.039 11.3631 190.601 10.5629 190.922 9.68267C191.243 8.80242 191.484 7.92218 191.484 6.96192C191.484 6.00165 191.323 5.12141 190.922 4.24117C190.601 3.36093 190.039 2.64073 189.397 1.92053C188.755 1.28035 187.953 0.720198 187.07 0.40011C186.107 0.160044 185.224 0 184.261 0ZM103.447 24.7268C108.182 24.7268 112.435 26.7274 115.324 30.4084L115.485 30.5684C117.652 33.2892 118.775 36.6501 118.775 40.091C118.775 48.6534 111.954 55.3752 103.447 55.3752C99.916 55.3752 96.5454 54.1749 93.8168 51.9343C90.2055 49.0535 88.1189 44.6523 88.1189 40.011C88.1189 31.4487 94.9403 24.7268 103.447 24.7268ZM254 97.5468L270.131 81.4623C271.415 80.182 271.976 78.4215 271.976 76.661C271.976 72.9 268.847 69.9392 265.075 70.0992C263.47 70.1792 261.865 70.8194 260.661 71.9397L244.53 88.0242L228.56 72.0998L228.563 72.0967C230.256 70.4085 239.237 61.4537 244.45 56.1754C245.734 54.895 246.296 53.1345 246.296 51.3741C246.296 47.613 243.166 44.6522 239.394 44.8122C237.789 44.8923 236.184 45.5324 234.98 46.6528L219.01 62.5771L204.404 48.0131C201.194 44.8122 196.058 44.8122 192.848 48.0131L172.945 67.9386L156.895 51.9342C155.611 50.6539 153.845 50.0937 152.08 50.0937C148.308 50.0937 145.339 53.2146 145.499 56.9756C145.579 58.6561 146.221 60.1765 147.345 61.3768L163.476 77.4613L142.61 98.267L142.61 98.2669C141.566 97.2261 132.017 87.7039 126.479 82.2626C125.195 80.9822 123.43 80.4221 121.664 80.4221C119.738 80.4221 118.053 81.2223 116.849 82.4226C115.645 83.6229 114.923 85.3834 115.003 87.304C115.084 88.9044 115.726 90.5048 116.849 91.7052C121.023 95.9321 128.377 103.224 131.546 106.366L131.546 106.367C132.276 107.091 132.784 107.595 132.98 107.79L113.077 127.635C109.867 130.836 109.867 135.957 113.077 139.158L127.763 153.642L111.633 169.727C110.349 171.007 109.787 172.768 109.787 174.528C109.787 178.289 112.917 181.25 116.689 181.09C118.294 181.01 119.899 180.37 121.102 179.249C126.383 174.064 136.45 164.026 137.306 163.172L137.312 163.167L137.313 163.165L153.284 179.089L137.153 195.174C135.869 196.454 135.307 198.215 135.307 199.975C135.307 203.736 138.437 206.697 142.209 206.537C143.814 206.457 145.419 205.817 146.623 204.696C151.919 199.495 161.951 189.412 162.753 188.532L177.68 203.416C180.89 206.617 186.026 206.617 189.236 203.416L209.139 183.57L225.35 199.735C226.634 201.015 228.4 201.575 230.165 201.575C233.937 201.575 236.906 198.455 236.746 194.694C236.665 193.093 236.023 191.493 234.9 190.292C229.443 184.771 218.689 174.128 218.689 174.128L239.635 153.242C240.036 153.642 250.148 163.725 255.846 169.327C257.13 170.607 258.895 171.167 260.661 171.167C264.433 171.167 267.402 168.046 267.242 164.285C267.161 162.685 266.519 161.084 265.396 159.884C260.581 155.012 251.585 146.098 249.583 144.114L249.576 144.107C249.346 143.879 249.21 143.744 249.185 143.72L269.087 123.874C272.297 120.673 272.297 115.552 269.087 112.351L254 97.5468ZM221.498 98.267C219.973 101.228 216.602 102.668 213.553 101.788L218.448 120.993C219.331 124.434 217.164 128.195 213.633 129.236L177.76 140.119L184.421 165.646C185.384 169.167 183.218 172.848 179.606 173.968C175.995 175.088 172.384 173.088 171.501 169.567L163.315 137.718C162.432 134.197 164.599 130.516 168.13 129.476L204.003 118.593L200.713 105.709C198.465 108.19 194.934 108.75 192.206 107.149C189.477 105.549 188.514 102.108 189.798 99.1472L196.299 83.5429C196.62 82.7427 197.181 81.9425 197.823 81.3023C199.188 79.9419 201.034 79.1417 202.879 79.2217C204.244 79.2217 205.528 79.6218 206.571 80.4221L219.813 90.1047C222.3 91.7852 223.023 95.3062 221.498 98.267ZM260.821 238.866C242.604 249.749 221.337 256.071 198.546 256.071C197.583 256.071 196.7 255.911 195.817 255.671C194.934 255.35 194.132 254.79 193.49 254.15C192.848 253.43 192.286 252.71 191.965 251.83C191.564 250.949 191.403 250.069 191.403 249.109C191.403 248.148 191.644 247.268 191.965 246.388C192.286 245.508 192.848 244.708 193.49 244.067C194.132 243.427 194.934 242.867 195.817 242.547C196.7 242.227 197.583 242.067 198.546 242.067C218.208 242.067 236.585 236.785 252.395 227.583C250.79 223.982 249.907 220.061 249.907 216.06C249.907 199.895 263.149 186.692 279.36 186.692C283.372 186.772 287.305 187.652 290.996 189.252C300.386 173.328 305.763 154.923 305.763 135.157C305.763 134.197 305.923 133.317 306.244 132.437C306.565 131.556 307.127 130.756 307.769 130.116C308.491 129.476 309.213 128.916 310.096 128.596C310.979 128.195 311.862 128.035 312.825 128.035C313.788 128.035 314.671 128.275 315.553 128.596C316.436 128.916 317.239 129.476 317.881 130.116C318.523 130.756 319.084 131.556 319.405 132.437C319.726 133.317 319.887 134.197 319.887 135.157C319.887 158.044 313.387 179.49 302.312 197.735C306.485 202.856 308.812 209.338 308.812 216.06C308.812 232.224 295.571 245.428 279.36 245.428C272.538 245.428 266.038 243.107 260.821 238.866ZM267.482 225.662C270.371 229.343 274.625 231.344 279.36 231.344C287.866 231.344 294.688 224.622 294.688 216.06C294.688 211.418 292.601 207.017 288.99 204.136C286.261 201.896 282.891 200.695 279.36 200.695C270.853 200.695 264.032 207.417 264.032 215.98C264.032 219.421 265.155 222.781 267.322 225.502L267.482 225.662Z" fill="#305680"/>
</g>
</g>
<defs>
<filter id="filter0_d_7377_1599" x="-4" y="284.178" width="397.998" height="81.8223" filterUnits="userSpaceOnUse" color-interpolation-filters="sRGB">
<feFlood flood-opacity="0" result="BackgroundImageFix"/>
<feColorMatrix in="SourceAlpha" type="matrix" values="0 0 0 0 0 0 0 0 0 0 0 0 0 0 0 0 0 0 127 0" result="hardAlpha"/>
<feOffset dx="4" dy="4"/>
<feGaussianBlur stdDeviation="4"/>
<feComposite in2="hardAlpha" operator="out"/>
<feColorMatrix type="matrix" values="0 0 0 0 0 0 0 0 0 0 0 0 0 0 0 0 0 0 0.25 0"/>
<feBlend mode="normal" in2="BackgroundImageFix" result="effect1_dropShadow_7377_1599"/>
<feBlend mode="normal" in="SourceGraphic" in2="effect1_dropShadow_7377_1599" result="shape"/>
</filter>
<filter id="filter1_d_7377_1599" x="59" y="-4" width="272.887" height="272.07" filterUnits="userSpaceOnUse" color-interpolation-filters="sRGB">
<feFlood flood-opacity="0" result="BackgroundImageFix"/>
<feColorMatrix in="SourceAlpha" type="matrix" values="0 0 0 0 0 0 0 0 0 0 0 0 0 0 0 0 0 0 127 0" result="hardAlpha"/>
<feOffset dx="4" dy="4"/>
<feGaussianBlur stdDeviation="4"/>
<feComposite in2="hardAlpha" operator="out"/>
<feColorMatrix type="matrix" values="0 0 0 0 0 0 0 0 0 0 0 0 0 0 0 0 0 0 0.25 0"/>
<feBlend mode="normal" in2="BackgroundImageFix" result="effect1_dropShadow_7377_1599"/>
<feBlend mode="normal" in="SourceGraphic" in2="effect1_dropShadow_7377_1599" result="shape"/>
</filter>
<clipPath id="clip0_7377_1599">
<rect width="382" height="354" fill="white"/>
</clipPath>
</defs>
</svg>
