<svg width="261" height="308" viewBox="0 0 246 308" fill="none" xmlns="http://www.w3.org/2000/svg">
<path fill-rule="evenodd" clip-rule="evenodd" d="M42.4334 214H0V212.5H42.4334V214Z" fill="#91A3BE"/>
<path d="M42 214C42 199.555 44.8452 185.251 50.3732 171.905C55.9013 158.559 64.0038 146.433 74.2183 136.218C84.4327 126.004 96.559 117.901 109.905 112.373C123.251 106.845 137.555 104 152 104V105.499C137.751 105.499 123.642 108.305 110.478 113.758C97.3144 119.211 85.3533 127.203 75.2781 137.278C65.2028 147.353 57.2107 159.314 51.758 172.478C46.3053 185.642 43.4988 199.751 43.4988 214H42Z" fill="#91A3BE"/>
<path fill-rule="evenodd" clip-rule="evenodd" d="M151.5 105.5L151.5 23.5L153 23.5L153 105.5L151.5 105.5Z" fill="#91A3BE"/>
<path d="M164 12C164 18.6274 158.627 24 152 24C145.373 24 140 18.6274 140 12C140 5.37258 145.373 0 152 0C158.627 0 164 5.37258 164 12Z" fill="#F4F8FE"/>
<path fill-rule="evenodd" clip-rule="evenodd" d="M152 22.5C157.799 22.5 162.5 17.799 162.5 12C162.5 6.20101 157.799 1.5 152 1.5C146.201 1.5 141.5 6.20101 141.5 12C141.5 17.799 146.201 22.5 152 22.5ZM152 24C158.627 24 164 18.6274 164 12C164 5.37258 158.627 0 152 0C145.373 0 140 5.37258 140 12C140 18.6274 145.373 24 152 24Z" fill="#91A3BE"/>
<rect x="58.75" y="120.75" width="186.5" height="186.5" rx="93.25" stroke="#91A3BE" stroke-width="1.5"/>
<path d="M163 212H168" stroke="#305680" stroke-width="4" stroke-linecap="round"/>
<path d="M181 220H187" stroke="#305680" stroke-width="4" stroke-linecap="round"/>
<path d="M181 232H187" stroke="#305680" stroke-width="4" stroke-linecap="round"/>
<path d="M117 220H123" stroke="#305680" stroke-width="4" stroke-linecap="round"/>
<path d="M117 232H123" stroke="#305680" stroke-width="4" stroke-linecap="round"/>
<path d="M150 212H155" stroke="#305680" stroke-width="4" stroke-linecap="round"/>
<path d="M137 212H142" stroke="#305680" stroke-width="4" stroke-linecap="round"/>
<path d="M111 208V257C111 257.552 111.448 258 112 258H136M175 206H192C192.552 206 193 206.448 193 207V257C193 257.552 192.552 258 192 258H168M136 258V230.053C136 229.501 136.448 229.053 137 229.053H151.75M136 258H152M168 258V230.053C168 229.501 167.552 229.053 167 229.053H151.75M168 258H152M151.75 229.053L152 258" stroke="#305680" stroke-width="4" stroke-linecap="round"/>
<path d="M175 185H179.5M175 185H129M175 185V206M175 256.5V206M124.5 185H129M129 185V206M129 256.5V206M129 206H108M175 206H196" stroke="#305680" stroke-width="4" stroke-linecap="round"/>
<rect x="131" y="169" width="42" height="32" fill="white"/>
<circle cx="169" cy="192" r="2" fill="#305680"/>
<path d="M139.4 179.982V189.974C139.4 190.245 139.508 190.506 139.71 190.687C143.483 194.084 152.716 198.394 162.236 190.699C162.466 190.513 162.6 190.228 162.6 189.933V179.722M169 176.944V185M169 176.944L151.314 171.104C151.11 171.036 150.89 171.036 150.686 171.104L135.491 176.122C134.618 176.41 134.564 177.623 135.406 177.989L150.602 184.584C150.856 184.694 151.144 184.694 151.398 184.584L169 176.944Z" stroke="#305680" stroke-width="4" stroke-linecap="round"/>
</svg>
