<svg width="261" height="308" viewBox="0 0 246 308" fill="none" xmlns="http://www.w3.org/2000/svg">
<path fill-rule="evenodd" clip-rule="evenodd" d="M42.4334 214H0V212.5H42.4334V214Z" fill="#91A3BE"/>
<path d="M42 214C42 199.555 44.8452 185.251 50.3732 171.905C55.9013 158.559 64.0038 146.433 74.2183 136.218C84.4327 126.004 96.559 117.901 109.905 112.373C123.251 106.845 137.555 104 152 104V105.499C137.751 105.499 123.642 108.305 110.478 113.758C97.3144 119.211 85.3533 127.203 75.2781 137.278C65.2028 147.353 57.2107 159.314 51.758 172.478C46.3053 185.642 43.4988 199.751 43.4988 214H42Z" fill="#91A3BE"/>
<path fill-rule="evenodd" clip-rule="evenodd" d="M151.5 105.5L151.5 23.5L153 23.5L153 105.5L151.5 105.5Z" fill="#91A3BE"/>
<path d="M164 12C164 18.6274 158.627 24 152 24C145.373 24 140 18.6274 140 12C140 5.37258 145.373 0 152 0C158.627 0 164 5.37258 164 12Z" fill="#F4F8FE"/>
<path fill-rule="evenodd" clip-rule="evenodd" d="M152 22.5C157.799 22.5 162.5 17.799 162.5 12C162.5 6.20101 157.799 1.5 152 1.5C146.201 1.5 141.5 6.20101 141.5 12C141.5 17.799 146.201 22.5 152 22.5ZM152 24C158.627 24 164 18.6274 164 12C164 5.37258 158.627 0 152 0C145.373 0 140 5.37258 140 12C140 18.6274 145.373 24 152 24Z" fill="#91A3BE"/>
<rect x="58.75" y="120.75" width="186.5" height="186.5" rx="93.25" stroke="#91A3BE" stroke-width="1.5"/>
<path d="M186.723 239.448C186.723 239.395 186.764 239.367 186.796 239.367C186.827 239.367 186.868 239.395 186.868 239.448C186.868 239.501 186.827 239.529 186.796 239.529C186.764 239.529 186.723 239.501 186.723 239.448Z" fill="#305680" stroke="#305680" stroke-width="4"/>
<rect x="113" y="247.358" width="78.999" height="10.6419" rx="2.74833" stroke="#305680" stroke-width="4"/>
<rect x="165.645" y="204.102" width="26.3555" height="10.6419" rx="2.74833" stroke="#305680" stroke-width="4"/>
<path d="M184.795 231.772C184.795 232.876 185.69 233.772 186.795 233.772C187.899 233.772 188.795 232.876 188.795 231.772L184.795 231.772ZM184.795 214.26L184.795 231.772L188.795 231.772L188.795 214.26L184.795 214.26Z" fill="#305680"/>
<rect x="131.372" y="229.934" width="20.0918" height="17.1095" stroke="#305680" stroke-width="4"/>
<path d="M126.48 229.853L156.354 229.853" stroke="#305680" stroke-width="4" stroke-linecap="round"/>
<path d="M141.682 231.02V246.817" stroke="#305680" stroke-width="4" stroke-linecap="round"/>
<path d="M165.027 246.63V183.957C165.027 183.338 164.524 182.835 163.904 182.835H118.929C118.309 182.835 117.807 183.338 117.807 183.957V248.083" stroke="#305680" stroke-width="4"/>
<rect x="129.298" y="171" width="24.0118" height="23.9256" rx="2.74833" fill="white" stroke="#305680" stroke-width="4"/>
<path d="M141.408 178.757V187.194M137.081 182.707H145.555" stroke="#305680" stroke-width="4" stroke-linecap="round"/>
</svg>
