<svg width="273" height="232" viewBox="0 0 273 232" fill="none" xmlns="http://www.w3.org/2000/svg">
<g clip-path="url(#clip0_13194_6730)">
<path fill-rule="evenodd" clip-rule="evenodd" d="M83.4622 38.4677V0.884766L84.7907 0.884766V38.4677H83.4622Z" fill="#91A3BE"/>
<path d="M83.4622 38.0838C96.2563 38.0838 108.925 40.6038 120.745 45.4999C132.566 50.396 143.306 57.5723 152.353 66.6192C161.4 75.666 168.576 86.4062 173.472 98.2265C178.368 110.047 180.888 122.716 180.888 135.51H179.561C179.561 122.89 177.075 110.394 172.246 98.7345C167.416 87.0753 160.338 76.4814 151.414 67.5579C142.49 58.6343 131.897 51.5557 120.237 46.7263C108.578 41.8969 96.082 39.4113 83.4622 39.4113V38.0838Z" fill="#91A3BE"/>
<path fill-rule="evenodd" clip-rule="evenodd" d="M179.56 135.067L252.186 135.067L252.186 136.395L179.56 136.396L179.56 135.067Z" fill="#91A3BE"/>
<path d="M262.372 146.138C256.502 146.138 251.743 141.379 251.743 135.51C251.743 129.64 256.502 124.881 262.372 124.881C268.242 124.881 273 129.64 273 135.51C273 141.379 268.242 146.138 262.372 146.138Z" fill="#F4F8FE"/>
<path fill-rule="evenodd" clip-rule="evenodd" d="M253.072 135.51C253.072 140.646 257.236 144.809 262.372 144.809C267.508 144.809 271.671 140.646 271.671 135.51C271.671 130.374 267.508 126.21 262.372 126.21C257.236 126.21 253.072 130.374 253.072 135.51ZM251.743 135.51C251.743 141.379 256.502 146.138 262.372 146.138C268.242 146.138 273 141.379 273 135.51C273 129.64 268.242 124.881 262.372 124.881C256.502 124.881 251.743 129.64 251.743 135.51Z" fill="#91A3BE"/>
<rect x="166.053" y="52.9192" width="165.178" height="165.178" rx="82.5889" transform="rotate(90 166.053 52.9192)" stroke="#91A3BE" stroke-width="1.32854"/>
<g clip-path="url(#clip1_13194_6730)">
<path d="M114.216 158.046C114.216 157.999 114.252 157.974 114.281 157.974C114.309 157.974 114.345 157.999 114.345 158.046C114.345 158.093 114.309 158.117 114.281 158.117C114.252 158.117 114.216 158.093 114.216 158.046Z" fill="#305680" stroke="#305680" stroke-width="3.54261"/>
<rect x="48.9235" y="165.051" width="69.9656" height="9.425" rx="2.43406" stroke="#305680" stroke-width="3.54261"/>
<rect x="95.5482" y="126.742" width="23.3418" height="9.425" rx="2.43406" stroke="#305680" stroke-width="3.54261"/>
<path d="M112.509 151.247C112.509 152.226 113.302 153.019 114.28 153.019C115.258 153.019 116.051 152.226 116.051 151.247L112.509 151.247ZM112.509 135.738L112.509 151.247L116.051 151.247L116.051 135.738L112.509 135.738Z" fill="#305680"/>
<rect x="65.1947" y="149.619" width="17.7943" height="15.1531" stroke="#305680" stroke-width="3.54261"/>
<path d="M60.8625 149.548L87.3203 149.548" stroke="#305680" stroke-width="3.54261" stroke-linecap="round"/>
<path d="M74.3254 150.582V164.573" stroke="#305680" stroke-width="3.54261" stroke-linecap="round"/>
<path d="M95.0009 164.407V108.901C95.0009 108.352 94.5558 107.907 94.0068 107.907H54.1746C53.6256 107.907 53.1805 108.352 53.1805 108.901V165.693" stroke="#305680" stroke-width="3.54261"/>
<rect x="63.3577" y="97.425" width="21.2661" height="21.1898" rx="2.43406" fill="white" stroke="#305680" stroke-width="3.54261"/>
<path d="M74.083 104.295V111.768M70.2509 107.793H77.7554" stroke="#305680" stroke-width="3.54261" stroke-linecap="round"/>
</g>
</g>
<defs>
<clipPath id="clip0_13194_6730">
<rect width="232" height="273" fill="white" transform="matrix(0 1 -1 0 273 0)"/>
</clipPath>
<clipPath id="clip1_13194_6730">
<rect width="81.48" height="81.48" fill="white" transform="translate(42.7239 94.7681)"/>
</clipPath>
</defs>
</svg>
