<svg width="273" height="232" viewBox="0 0 273 232" fill="none" xmlns="http://www.w3.org/2000/svg">
<g clip-path="url(#clip0_13194_6699)">
<path fill-rule="evenodd" clip-rule="evenodd" d="M83.5113 38.3627V0.779785L84.8398 0.779785V38.3627H83.5113Z" fill="#91A3BE"/>
<path d="M83.5117 37.9788C96.3059 37.9788 108.975 40.4988 120.795 45.3949C132.615 50.291 143.355 57.4674 152.402 66.5142C161.449 75.561 168.625 86.3012 173.522 98.1215C178.418 109.942 180.938 122.611 180.938 135.405H179.61C179.61 122.785 177.125 110.289 172.295 98.6295C167.466 86.9703 160.387 76.3765 151.464 67.4529C142.54 58.5293 131.946 51.4508 120.287 46.6214C108.628 41.792 96.1316 39.3063 83.5117 39.3063V37.9788Z" fill="#91A3BE"/>
<path fill-rule="evenodd" clip-rule="evenodd" d="M179.608 134.962L252.234 134.962L252.234 136.291L179.608 136.291L179.608 134.962Z" fill="#91A3BE"/>
<path d="M262.421 146.033C256.551 146.033 251.792 141.275 251.792 135.405C251.792 129.535 256.551 124.777 262.421 124.777C268.29 124.777 273.049 129.535 273.049 135.405C273.049 141.275 268.29 146.033 262.421 146.033Z" fill="#F4F8FE"/>
<path fill-rule="evenodd" clip-rule="evenodd" d="M253.121 135.405C253.121 140.541 257.284 144.705 262.421 144.705C267.557 144.705 271.72 140.541 271.72 135.405C271.72 130.269 267.557 126.105 262.421 126.105C257.284 126.105 253.121 130.269 253.121 135.405ZM251.792 135.405C251.792 141.275 256.551 146.033 262.421 146.033C268.29 146.033 273.049 141.275 273.049 135.405C273.049 129.535 268.29 124.777 262.421 124.777C256.551 124.777 251.792 129.535 251.792 135.405Z" fill="#91A3BE"/>
<rect x="166.101" y="52.8142" width="165.178" height="165.178" rx="82.5889" transform="rotate(90 166.101 52.8142)" stroke="#91A3BE" stroke-width="1.32854"/>
<g clip-path="url(#clip1_13194_6699)">
<path d="M68.4564 172.6H48.0864M68.4564 172.6H75.5416M68.4564 172.6V163.744M68.4564 117.797L110.237 99.4129C110.555 99.2729 110.903 99.5375 110.853 99.8816L100.34 172.6M68.4564 117.797L45.3143 115.122C44.9738 115.083 44.7196 115.429 44.8588 115.742L48.0864 123.004M68.4564 117.797V123.004M100.34 172.6H118.939M100.34 172.6H93.2546M122.481 172.6H118.939M118.939 172.6V165.515M48.0864 123.004V172.6M48.0864 123.004H68.4564M48.0864 172.6H44.5438M93.2546 172.6V154.887M93.2546 172.6H84.3981M93.2546 154.887H84.3981M93.2546 154.887H95.0259M84.3981 154.887V172.6M84.3981 154.887H75.5416M84.3981 172.6H75.5416M75.5416 154.887V172.6M75.5416 154.887H73.7703M108.128 123.05H118.939M118.939 123.05V118.133C118.939 117.888 118.74 117.69 118.496 117.69H108.754M118.939 123.05V153.116M68.4564 123.004V128.868V131.86M68.4564 163.744H54.2859M68.4564 163.744V162.08V155.88V153.116M68.4564 153.116V151.009V145.252V142.488M68.4564 153.116H54.2859M68.4564 142.488V139.939V134.182V131.86M68.4564 142.488H54.2859M68.4564 131.86H54.2859M103.44 163.744H112.739M103.882 153.116H113.625M105.211 142.488H113.625M106.539 131.86H113.625" stroke="#305680" stroke-width="3.54261" stroke-linecap="round"/>
<path d="M76.3825 121.759H80.3679C80.6125 121.759 80.8108 121.957 80.8108 122.202V124.416M95.8669 136.815H81.2536C81.009 136.815 80.8108 136.617 80.8108 136.372V133.272M80.8108 124.416H95.424C95.6686 124.416 95.8669 124.614 95.8669 124.859V130.579C95.8669 130.603 95.865 130.627 95.8607 130.651C95.6996 131.547 94.9579 133.272 93.2099 133.272C91.4386 133.272 84.2058 133.272 80.8108 133.272M80.8108 124.416V133.272" stroke="#305680" stroke-width="2.65696" stroke-linecap="round"/>
<circle cx="84.7962" cy="141.686" r="2.21413" stroke="#305680" stroke-width="1.7713"/>
<circle cx="91.8814" cy="141.686" r="2.21413" stroke="#305680" stroke-width="1.7713"/>
<circle cx="118.939" cy="159.316" r="1.7713" fill="#305680"/>
</g>
</g>
<defs>
<clipPath id="clip0_13194_6699">
<rect width="232" height="273" fill="white" transform="matrix(0 1 -1 0 273 0)"/>
</clipPath>
<clipPath id="clip1_13194_6699">
<rect width="81.48" height="81.48" fill="white" transform="translate(42.7725 94.6631)"/>
</clipPath>
</defs>
</svg>
