<svg width="273" height="232" viewBox="0 0 273 232" fill="none" xmlns="http://www.w3.org/2000/svg">
<g clip-path="url(#clip0_13194_6718)">
<path fill-rule="evenodd" clip-rule="evenodd" d="M189.538 38.4677V0.884766L188.209 0.884766V38.4677H189.538Z" fill="#3E9AF8"/>
<path d="M189.538 38.0838C176.744 38.0838 164.075 40.6038 152.255 45.4999C140.434 50.396 129.694 57.5723 120.647 66.6192C111.6 75.666 104.424 86.4062 99.528 98.2265C94.6319 110.047 92.1119 122.716 92.1119 135.51H93.4394C93.4394 122.89 95.9251 110.394 100.754 98.7345C105.584 87.0753 112.662 76.4814 121.586 67.5579C130.51 58.6343 141.103 51.5557 152.763 46.7263C164.422 41.8969 176.918 39.4113 189.538 39.4113V38.0838Z" fill="#3E9AF8"/>
<path fill-rule="evenodd" clip-rule="evenodd" d="M93.4404 135.067L20.8138 135.067L20.8138 136.395L93.4404 136.396L93.4404 135.067Z" fill="#3E9AF8"/>
<path d="M10.6284 146.138C16.4982 146.138 21.2566 141.379 21.2566 135.51C21.2566 129.64 16.4982 124.881 10.6284 124.881C4.75851 124.881 6.10352e-05 129.64 6.10352e-05 135.51C6.10352e-05 141.379 4.75851 146.138 10.6284 146.138Z" fill="#F4F8FE"/>
<path fill-rule="evenodd" clip-rule="evenodd" d="M19.9281 135.51C19.9281 140.646 15.7645 144.809 10.6284 144.809C5.49224 144.809 1.3286 140.646 1.3286 135.51C1.3286 130.374 5.49224 126.21 10.6284 126.21C15.7645 126.21 19.9281 130.374 19.9281 135.51ZM21.2566 135.51C21.2566 141.379 16.4982 146.138 10.6284 146.138C4.75851 146.138 6.10352e-05 141.379 6.10352e-05 135.51C6.10352e-05 129.64 4.75851 124.881 10.6284 124.881C16.4982 124.881 21.2566 129.64 21.2566 135.51Z" fill="#3E9AF8"/>
<rect x="0.664268" y="0.664268" width="165.178" height="165.178" rx="82.5889" transform="matrix(0 1 1 0 106.283 52.2549)" stroke="#3E9AF8" stroke-width="1.32854"/>
<g clip-path="url(#clip1_13194_6718)">
<path d="M217.122 157.456V142.046C217.122 141.211 216.441 140.534 215.6 140.534H202.97C202.129 140.534 201.448 141.211 201.448 142.046V157.456L204.491 157.468V143.558H214.078V157.468L217.122 157.456Z" fill="#3E9AF8"/>
<path fill-rule="evenodd" clip-rule="evenodd" d="M188.361 157.456V137.51C188.361 134.851 187.51 132.329 185.899 130.214C184.419 128.272 182.346 126.798 180.031 126.032L170.043 116.591L201.138 112.833C201.685 113.439 202.297 113.976 202.97 114.441V119.366H201.448C200.871 119.366 200.345 119.689 200.087 120.201L197.043 126.249C196.75 126.832 196.865 127.535 197.328 127.995L203.415 134.043C204.009 134.633 204.973 134.633 205.567 134.043C206.162 133.452 206.162 132.495 205.567 131.904L200.256 126.627L202.388 122.389H215.725L217.857 126.627L212.546 131.904C211.952 132.495 211.952 133.452 212.546 134.043C212.843 134.338 213.232 134.485 213.622 134.485C214.011 134.485 214.401 134.338 214.698 134.043L220.785 127.995C221.248 127.534 221.363 126.831 221.07 126.249L218.026 120.201C217.769 119.689 217.242 119.366 216.665 119.366H215.143V114.442C217.979 112.474 219.709 109.224 219.709 105.758C219.709 99.9215 214.93 95.1736 209.056 95.1736C205.102 95.1736 201.523 97.3289 199.677 100.74L162.595 101.524C162.461 101.527 162.333 101.549 162.21 101.583C161.312 101.345 160.386 101.222 159.448 101.222C153.575 101.222 148.796 105.97 148.796 111.806C148.796 117.444 153.257 122.066 158.856 122.372L165.775 131.244C164.62 133.128 164.014 135.271 164.014 137.51V157.456L167.057 157.468V145.498C169.289 148.014 172.554 149.606 176.187 149.606C179.821 149.606 183.085 148.014 185.318 145.498V157.468L188.361 157.456ZM206.013 119.366H212.1L212.1 115.901C211.117 116.191 210.092 116.342 209.057 116.342C208.022 116.342 206.996 116.191 206.013 115.901V119.366ZM209.057 98.1978C205.989 98.1978 203.237 100.012 202.043 102.82C201.648 103.749 201.448 104.737 201.448 105.758C201.448 107.421 201.981 108.998 202.989 110.319C203.606 111.129 204.368 111.798 205.253 112.307C206.404 112.968 207.719 113.318 209.057 113.318C210.394 113.318 211.71 112.968 212.86 112.307C215.207 110.958 216.665 108.448 216.665 105.758C216.665 101.589 213.252 98.1978 209.057 98.1978ZM178.798 128.815L178.795 128.814C177.957 128.564 177.079 128.438 176.187 128.438C173.28 128.438 170.612 129.767 168.869 132.085C167.684 133.661 167.057 135.536 167.057 137.51C167.057 142.512 171.153 146.582 176.187 146.582C181.222 146.582 185.318 142.512 185.318 137.51C185.318 133.525 182.637 129.949 178.798 128.815ZM198.405 105.758C198.405 105.09 198.469 104.432 198.591 103.787L167.114 104.453C168.987 106.383 170.1 108.996 170.1 111.806C170.1 112.398 170.049 112.981 169.953 113.556L199.298 110.009C198.71 108.682 198.405 107.245 198.405 105.758ZM151.839 111.806C151.839 115.872 155.087 119.197 159.14 119.358C159.403 119.283 159.679 119.28 159.939 119.346C162.512 119.177 164.846 117.72 166.103 115.475C166.236 115.236 166.357 114.988 166.461 114.744C166.856 113.815 167.057 112.826 167.057 111.806C167.057 108.561 164.981 105.683 161.891 104.643C161.105 104.379 160.283 104.246 159.448 104.246C155.253 104.246 151.839 107.637 151.839 111.806ZM167.675 118.526C166.302 120.18 164.455 121.382 162.396 121.974L167.73 128.815C169.705 126.926 172.286 125.736 175.022 125.471L167.675 118.526Z" fill="#3E9AF8"/>
<path fill-rule="evenodd" clip-rule="evenodd" d="M220.091 159.323H158.981C155.465 159.323 152.615 162.155 152.615 165.648C152.615 169.141 155.465 171.973 158.981 171.973H220.091C223.607 171.973 226.457 169.141 226.457 165.648C226.457 162.155 223.607 159.323 220.091 159.323ZM158.981 155.528C153.356 155.528 148.796 160.059 148.796 165.648C148.796 171.237 153.356 175.768 158.981 175.768H220.091C225.716 175.768 230.276 171.237 230.276 165.648C230.276 160.059 225.716 155.528 220.091 155.528H158.981Z" fill="#3E9AF8"/>
<path d="M165.983 165.648C165.983 166.696 165.128 167.545 164.074 167.545C163.019 167.545 162.164 166.696 162.164 165.648C162.164 164.6 163.019 163.75 164.074 163.75C165.128 163.75 165.983 164.6 165.983 165.648Z" fill="#3E9AF8"/>
<path d="M176.168 165.648C176.168 166.696 175.313 167.545 174.259 167.545C173.204 167.545 172.349 166.696 172.349 165.648C172.349 164.6 173.204 163.75 174.259 163.75C175.313 163.75 176.168 164.6 176.168 165.648Z" fill="#3E9AF8"/>
<path d="M186.353 165.648C186.353 166.696 185.498 167.545 184.444 167.545C183.389 167.545 182.534 166.696 182.534 165.648C182.534 164.6 183.389 163.75 184.444 163.75C185.498 163.75 186.353 164.6 186.353 165.648Z" fill="#3E9AF8"/>
<path d="M196.538 165.648C196.538 166.696 195.683 167.545 194.629 167.545C193.574 167.545 192.719 166.696 192.719 165.648C192.719 164.6 193.574 163.75 194.629 163.75C195.683 163.75 196.538 164.6 196.538 165.648Z" fill="#3E9AF8"/>
<path d="M206.723 165.648C206.723 166.696 205.868 167.545 204.814 167.545C203.759 167.545 202.904 166.696 202.904 165.648C202.904 164.6 203.759 163.75 204.814 163.75C205.868 163.75 206.723 164.6 206.723 165.648Z" fill="#3E9AF8"/>
<path d="M216.908 165.648C216.908 166.696 216.053 167.545 214.999 167.545C213.944 167.545 213.089 166.696 213.089 165.648C213.089 164.6 213.944 163.75 214.999 163.75C216.053 163.75 216.908 164.6 216.908 165.648Z" fill="#3E9AF8"/>
</g>
</g>
<defs>
<clipPath id="clip0_13194_6718">
<rect width="232" height="273" fill="white" transform="matrix(0 1 1 0 0 0)"/>
</clipPath>
<clipPath id="clip1_13194_6718">
<rect width="81.48" height="81.48" fill="white" transform="translate(148.796 94.7681)"/>
</clipPath>
</defs>
</svg>
