<svg width="402" height="59" viewBox="0 0 402 59" fill="none" xmlns="http://www.w3.org/2000/svg">
    <path fill-rule="evenodd" clip-rule="evenodd" d="M66.8824 29.2344H1V32.3716H61L1 51.499V54.3324V57.4697H66.8824V29.2344ZM63.7451 54.3324H3.43509L63.7451 34.999V54.3324Z" fill="white"/>
    <path d="M1 54.3324V57.4697H66.8824V29.2344H1V32.3716H61M1 54.3324V51.499L61 32.3716M1 54.3324H3.43509M61 32.3716H63.7451V34.999M3.43509 54.3324H63.7451V34.999M3.43509 54.3324L63.7451 34.999" stroke="white" stroke-width="1.56863"/>
    <path fill-rule="evenodd" clip-rule="evenodd" d="M242.57 29.2344H176.688V32.3716H236.688L176.688 51.499V54.3324V57.4697H242.57V29.2344ZM239.433 54.3324H179.123L239.433 34.999V54.3324Z" fill="white"/>
    <path d="M176.688 54.3324V57.4697H242.57V29.2344H176.688V32.3716H236.688M176.688 54.3324V51.499L236.688 32.3716M176.688 54.3324H179.123M236.688 32.3716H239.433V34.999M179.123 54.3324H239.433V34.999M179.123 54.3324L239.433 34.999" stroke="white" stroke-width="1.56863"/>
    <path fill-rule="evenodd" clip-rule="evenodd" d="M335.118 57.4688H401V54.3315H341L401 35.2041V32.3707V29.2335H335.118V57.4688ZM338.255 32.3707H398.565L338.255 51.7041V32.3707Z" fill="white"/>
    <path d="M401 32.3707V29.2335H335.118V57.4688H401V54.3315H341M401 32.3707V35.2041L341 54.3315M401 32.3707H398.565M341 54.3315H338.255V51.7041M398.565 32.3707H338.255V51.7041M398.565 32.3707L338.255 51.7041" stroke="white" stroke-width="1.56863"/>
    <path d="M77.8633 57.4697V29.2344H81.0005V55.1167L121.785 29.2344H124.922V54.3324L164.138 29.2344H168.844L124.922 57.4697H121.785V32.3716L82.5692 57.4697H81.0005H77.8633Z" fill="white"/>
    <path d="M81.0005 57.4697H77.8633V29.2344H81.0005V55.1167M81.0005 57.4697V55.1167M81.0005 57.4697H82.5692L121.785 32.3716V57.4697H124.922L168.844 29.2344H164.138L124.922 54.3324V29.2344H121.785L81.0005 55.1167" stroke="white" stroke-width="1.56863"/>
    <path d="M253.551 57.4706V1H256.688V29.2353H324.139V32.3725H259.424L324.139 55V57.4706L321.502 57.5L256.688 35V57.4706H253.551Z" fill="white"/>
    <path d="M256.688 29.2353V1H253.551V57.4706H256.688V35M256.688 29.2353H324.139V32.3725H259.424M256.688 29.2353V32.3725M256.688 32.3725H259.424M256.688 32.3725V35M259.424 32.3725L324.139 55V57.4706L321.502 57.5L256.688 35" stroke="white" stroke-width="1.56863"/>
</svg>
