<svg width="600" height="102" viewBox="0 0 600 102" fill="none" xmlns="http://www.w3.org/2000/svg">
    <g clip-path="url(#clip0_13536_70902)">
        <path d="M113.169 86.9309V81.76H130.72V86.9309H113.169ZM113.169 57.2979V52.127H130.72V57.2979H113.169ZM113.169 70.8217V65.7504H129.725V70.8217H113.169ZM109.539 52.127H115.306V86.9309H109.539V52.127Z" fill="white"/>
        <path d="M165.836 52.1272H171.604V88.6712L146.197 63.5629V86.9312H140.43V50.3867L165.836 75.4955V52.1272Z" fill="white"/>
        <path d="M185.438 86.9309V81.76H202.99V86.9309H185.438ZM185.438 57.2979V52.127H202.99V57.2979H185.438ZM185.438 70.8217V65.7504H201.995V70.8217H185.438ZM181.809 52.127H187.576V86.9309H181.809V52.127Z" fill="white"/>
        <path d="M219.859 70.3243H226.223L238.007 86.9309H230.947L219.859 70.3243ZM212.699 52.127H218.566V86.9309H212.699V52.127ZM216.18 57.1982V52.127H223.439C225.958 52.127 228.146 52.5742 230.002 53.4693C231.891 54.3643 233.35 55.6238 234.377 57.2483C235.405 58.839 235.919 60.7283 235.919 62.916C235.919 65.1038 235.405 67.0099 234.377 68.6339C233.35 70.2584 231.891 71.5179 230.002 72.4129C228.146 73.3075 225.958 73.7552 223.439 73.7552H216.18V68.9324H223.19C224.516 68.9324 225.676 68.7003 226.671 68.2362C227.698 67.7721 228.494 67.1091 229.057 66.2473C229.621 65.3522 229.902 64.2916 229.902 63.0653C229.902 61.8058 229.621 60.7451 229.057 59.8833C228.494 59.0215 227.698 58.3585 226.671 57.8944C225.676 57.4303 224.516 57.1982 223.19 57.1982H216.18Z" fill="white"/>
        <path d="M261.312 73.706V68.7344H278.067C278.133 71.2866 277.802 73.706 277.073 75.9934C276.343 78.2471 275.249 80.2529 273.791 82.0093C272.333 83.7661 270.509 85.1585 268.322 86.186C266.167 87.1802 263.715 87.6775 260.963 87.6775C258.345 87.6775 255.925 87.2466 253.704 86.3848C251.483 85.4898 249.544 84.2303 247.887 82.6063C246.263 80.9818 245.003 79.0594 244.108 76.8384C243.213 74.6179 242.766 72.1817 242.766 69.5298C242.766 66.8779 243.213 64.4585 244.108 62.2708C245.036 60.0498 246.313 58.1436 247.937 56.5529C249.594 54.9284 251.533 53.6858 253.754 52.824C256.008 51.9622 258.444 51.5312 261.063 51.5312C263.35 51.5312 265.421 51.8461 267.278 52.4759C269.134 53.0724 270.791 53.9506 272.25 55.1109C273.741 56.238 275.001 57.6136 276.028 59.2375L271.255 62.4195C270.294 60.7623 268.952 59.4364 267.228 58.4422C265.537 57.4479 263.482 56.9506 261.063 56.9506C258.809 56.9506 256.77 57.4807 254.947 58.5418C253.124 59.5693 251.665 61.0276 250.572 62.9169C249.478 64.7734 248.931 66.9775 248.931 69.5298C248.931 72.0488 249.461 74.2698 250.522 76.1922C251.616 78.0815 253.074 79.5567 254.898 80.6174C256.72 81.678 258.776 82.2081 261.063 82.2081C262.621 82.2081 264.013 81.9929 265.239 81.562C266.466 81.1311 267.526 80.5177 268.421 79.7223C269.316 78.927 270.062 78.0151 270.659 76.9876C271.255 75.9602 271.703 74.8663 272.001 73.706H261.312Z" fill="white"/>
        <path d="M286.574 52.127H292.491V86.9309H286.574V52.127Z" fill="white"/>
        <path d="M306.38 86.9309V81.76H323.931V86.9309H306.38ZM306.38 57.2979V52.127H323.931V57.2979H306.38ZM306.38 70.8217V65.7504H322.936V70.8217H306.38ZM302.75 52.127H308.517V86.9309H302.75V52.127Z" fill="white"/>
        <path d="M338.115 68.982V66.098H343.734C344.827 66.098 345.789 65.916 346.617 65.5511C347.446 65.1866 348.093 64.6729 348.557 64.0099C349.02 63.3137 349.253 62.4851 349.253 61.5241C349.253 60.0653 348.739 58.9387 347.711 58.1428C346.684 57.3475 345.358 56.9498 343.734 56.9498H339.508V82.1081H344.38C345.706 82.1081 346.883 81.8924 347.91 81.4615C348.938 81.0306 349.75 80.3845 350.346 79.5227C350.943 78.6608 351.241 77.5833 351.241 76.2906C351.241 75.3628 351.059 74.5506 350.694 73.8544C350.363 73.1255 349.882 72.5284 349.253 72.0648C348.656 71.5675 347.943 71.2194 347.115 71.0205C346.286 70.7884 345.374 70.6724 344.38 70.6724H338.115V67.4408H344.728C346.419 67.4408 348.01 67.6228 349.501 67.9878C350.993 68.3522 352.319 68.9156 353.479 69.6782C354.672 70.4403 355.6 71.4182 356.263 72.6117C356.926 73.8048 357.258 75.2299 357.258 76.8876C357.258 79.1746 356.711 81.0638 355.617 82.5554C354.556 84.047 353.081 85.1577 351.192 85.8866C349.335 86.5828 347.181 86.9309 344.728 86.9309H333.641V52.127H344.132C346.319 52.127 348.242 52.4418 349.899 53.0716C351.59 53.7013 352.899 54.6628 353.827 55.9555C354.788 57.2483 355.269 58.8886 355.269 60.8775C355.269 62.6012 354.788 64.0764 353.827 65.3027C352.899 66.4962 351.59 67.4076 349.899 68.0374C348.242 68.6671 346.319 68.982 344.132 68.982H338.115Z" fill="white"/>
        <path d="M369.567 86.9309V81.76H387.118V86.9309H369.567ZM369.567 57.2979V52.127H387.118V57.2979H369.567ZM369.567 70.8217V65.7504H386.124V70.8217H369.567ZM365.938 52.127H371.705V86.9309H365.938V52.127Z" fill="white"/>
        <path d="M403.988 70.3243H410.352L422.136 86.9309H415.076L403.988 70.3243ZM396.828 52.127H402.695V86.9309H396.828V52.127ZM400.309 57.1982V52.127H407.568C410.087 52.127 412.274 52.5742 414.131 53.4693C416.02 54.3643 417.479 55.6238 418.506 57.2483C419.534 58.839 420.048 60.7283 420.048 62.916C420.048 65.1038 419.534 67.0099 418.506 68.6339C417.479 70.2584 416.02 71.5179 414.131 72.4129C412.274 73.3075 410.087 73.7552 407.568 73.7552H400.309V68.9324H407.319C408.645 68.9324 409.805 68.7003 410.8 68.2362C411.827 67.7721 412.623 67.1091 413.186 66.2473C413.75 65.3522 414.031 64.2916 414.031 63.0653C414.031 61.8058 413.75 60.7451 413.186 59.8833C412.623 59.0215 411.827 58.3585 410.8 57.8944C409.805 57.4303 408.645 57.1982 407.319 57.1982H400.309Z" fill="white"/>
        <path d="M433.062 77.9814L434.156 73.0093H450.315L451.458 77.9814H433.062ZM442.161 61.9713L436.691 74.7493L436.592 76.042L431.769 86.9308H425.156L442.161 50.1875L459.165 86.9308H452.552L447.829 76.3406L447.68 74.8986L442.161 61.9713Z" fill="white"/>
        <path d="M458.723 57.5463V52.127H482.986V57.5463H473.788V86.9309H467.871V57.5463H458.723Z" fill="white"/>
        <path d="M489.496 52.127H495.363V75.2468C495.363 77.4013 495.927 79.1413 497.053 80.4673C498.213 81.76 499.919 82.4066 502.175 82.4066C504.397 82.4066 506.088 81.76 507.248 80.4673C508.408 79.1413 508.989 77.4013 508.989 75.2468V52.127H514.855V75.4952C514.855 77.4177 514.537 79.1413 513.908 80.6661C513.313 82.1577 512.45 83.4341 511.324 84.4947C510.199 85.5554 508.855 86.3676 507.298 86.9309C505.736 87.4942 504.03 87.7764 502.175 87.7764C500.321 87.7764 498.61 87.4942 497.053 86.9309C495.496 86.3676 494.137 85.5554 492.977 84.4947C491.849 83.4341 490.988 82.1577 490.391 80.6661C489.795 79.1413 489.496 77.4177 489.496 75.4952V52.127Z" fill="white"/>
        <path d="M550.263 52.1272H556.03V88.6712L530.626 63.5629V86.9312H524.859V50.3867L550.263 75.4955V52.1272Z" fill="white"/>
        <path d="M582.792 73.706V68.7344H599.547C599.616 71.2866 599.284 73.706 598.555 75.9934C597.826 78.2471 596.73 80.2529 595.273 82.0093C593.815 83.7661 591.99 85.1585 589.803 86.186C587.646 87.1802 585.196 87.6775 582.444 87.6775C579.826 87.6775 577.406 87.2466 575.185 86.3848C572.963 85.4898 571.025 84.2303 569.368 82.6063C567.742 80.9818 566.482 79.0594 565.59 76.8384C564.692 74.6179 564.246 72.1817 564.246 69.5298C564.246 66.8779 564.692 64.4585 565.59 62.2708C566.517 60.0498 567.792 58.1436 569.418 56.5529C571.074 54.9284 573.013 53.6858 575.235 52.824C577.491 51.9622 579.925 51.5312 582.544 51.5312C584.83 51.5312 586.902 51.8461 588.757 52.4759C590.616 53.0724 592.273 53.9506 593.73 55.1109C595.223 56.238 596.482 57.6136 597.509 59.2375L592.739 62.4195C591.777 60.7623 590.433 59.4364 588.707 58.4422C587.016 57.4479 584.963 56.9506 582.544 56.9506C580.292 56.9506 578.249 57.4807 576.43 58.5418C574.605 59.5693 573.147 61.0276 572.051 62.9169C570.96 64.7734 570.415 66.9775 570.415 69.5298C570.415 72.0488 570.94 74.2698 572.001 76.1922C573.097 78.0815 574.555 79.5567 576.38 80.6174C578.2 81.678 580.258 82.2081 582.544 82.2081C584.101 82.2081 585.494 81.9929 586.719 81.562C587.949 81.1311 589.01 80.5177 589.902 79.7223C590.8 78.927 591.544 78.0151 592.139 76.9876C592.739 75.9602 593.185 74.8663 593.482 73.706H582.792Z" fill="white"/>
        <path d="M112.31 28.5388V26.2442H116.781C117.651 26.2442 118.416 26.0991 119.075 25.8089C119.735 25.5188 120.249 25.11 120.619 24.5825C120.988 24.0286 121.172 23.3692 121.172 22.6043C121.172 21.4438 120.764 20.5471 119.946 19.9141C119.129 19.281 118.073 18.9646 116.781 18.9646H113.418V38.9834H117.295C118.35 38.9834 119.287 38.812 120.104 38.4691C120.922 38.1262 121.568 37.6119 122.043 36.9261C122.518 36.2404 122.755 35.3832 122.755 34.3546C122.755 33.616 122.61 32.9699 122.32 32.416C122.056 31.8357 121.674 31.361 121.172 30.9917C120.698 30.5961 120.131 30.3192 119.471 30.1609C118.812 29.9763 118.087 29.8839 117.295 29.8839H112.31V27.3124H117.572C118.917 27.3124 120.183 27.4574 121.37 27.7475C122.557 28.0377 123.612 28.486 124.535 29.0927C125.485 29.6993 126.223 30.4774 126.751 31.4269C127.279 32.3764 127.542 33.5106 127.542 34.8293C127.542 36.6492 127.107 38.1526 126.237 39.3395C125.393 40.5264 124.219 41.4099 122.716 41.9902C121.238 42.5441 119.524 42.821 117.572 42.821H108.75V15.127H117.097C118.838 15.127 120.368 15.3775 121.687 15.8786C123.032 16.3798 124.074 17.1446 124.812 18.1733C125.577 19.2019 125.96 20.5075 125.96 22.09C125.96 23.4615 125.577 24.6353 124.812 25.6111C124.074 26.5606 123.032 27.286 121.687 27.7871C120.368 28.2882 118.838 28.5388 117.097 28.5388H112.31Z" fill="white"/>
        <path d="M134.109 40.8026C134.109 40.0377 134.373 39.3915 134.901 38.864C135.454 38.3101 136.114 38.0332 136.879 38.0332C137.696 38.0332 138.369 38.3101 138.896 38.864C139.424 39.3915 139.688 40.0377 139.688 40.8026C139.688 41.5411 139.424 42.1873 138.896 42.7412C138.369 43.2951 137.696 43.572 136.879 43.572C136.114 43.572 135.454 43.2951 134.901 42.7412C134.373 42.1873 134.109 41.5411 134.109 40.8026Z" fill="white"/>
        <path d="M150.947 42.821V38.7065H164.912V42.821H150.947ZM150.947 19.2415V15.127H164.912V19.2415H150.947ZM150.947 30.0026V25.9672H164.121V30.0026H150.947ZM148.059 15.127H152.648V42.821H148.059V15.127Z" fill="white"/>
        <path d="M172.875 40.8026C172.875 40.0377 173.139 39.3915 173.666 38.864C174.22 38.3101 174.88 38.0332 175.644 38.0332C176.462 38.0332 177.135 38.3101 177.662 38.864C178.19 39.3915 178.454 40.0377 178.454 40.8026C178.454 41.5411 178.19 42.1873 177.662 42.7412C177.135 43.2951 176.462 43.572 175.644 43.572C174.88 43.572 174.22 43.2951 173.666 42.7412C173.139 42.1873 172.875 41.5411 172.875 40.8026Z" fill="white"/>
        <path d="M186.824 15.127H191.532V42.821H186.824V15.127Z" fill="white"/>
        <path d="M199.934 40.8026C199.934 40.0377 200.197 39.3915 200.725 38.864C201.279 38.3101 201.938 38.0332 202.703 38.0332C203.521 38.0332 204.193 38.3101 204.721 38.864C205.248 39.3915 205.512 40.0377 205.512 40.8026C205.512 41.5411 205.248 42.1873 204.721 42.7412C204.193 43.2951 203.521 43.572 202.703 43.572C201.938 43.572 201.279 43.2951 200.725 42.7412C200.197 42.1873 199.934 41.5411 199.934 40.8026Z" fill="white"/>
        <path fill-rule="evenodd" clip-rule="evenodd" d="M19.3388 0.175781C18.7911 0.175781 18.3471 0.619797 18.3471 1.16752V4.14272H3.96694C1.77606 4.14272 0 5.91877 0 8.10967V79.4239C0 81.6146 1.77606 83.3908 3.96695 83.3908H23.3058V24.2699C23.3058 20.9836 25.9699 18.3195 29.2562 18.3195H54.8638V8.10967C54.8638 5.91877 53.0876 4.14272 50.8969 4.14272H36.6942V1.16752C36.6942 0.619797 36.2502 0.175781 35.7025 0.175781H19.3388Z" fill="white"/>
        <path d="M77.3587 22.4316H34.3957C31.1094 22.4316 28.4453 25.0957 28.4453 28.3821V95.7293C28.4453 99.0156 31.1094 101.68 34.3957 101.68H77.3587C80.645 101.68 83.3091 99.0156 83.3091 95.7293V28.3821C83.3091 25.0957 80.645 22.4316 77.3587 22.4316Z" fill="white"/>
    </g>
    <defs>
        <clipPath id="clip0_13536_70902">
            <rect width="600" height="101.653" fill="white" transform="translate(0 0.173828)"/>
        </clipPath>
    </defs>
</svg>
