<svg width="400" height="140" viewBox="0 0 400 140" fill="none" xmlns="http://www.w3.org/2000/svg">
    <g clip-path="url(#clip0_15991_34194)">
        <path d="M85.1635 138.201V86.2617H122.114C133.465 86.2617 144.605 95.4693 146.552 106.564C149.948 125.824 137.254 137.281 118.93 138.216C107.85 138.79 96.273 137.764 85.1484 138.201H85.1635ZM93.556 130.609H121.33C137.541 130.609 143.805 107.952 131.518 98.0353C129.481 96.39 124.288 93.8391 121.722 93.8391H93.556V130.594V130.609Z" fill="white"/>
        <path d="M387.822 94.2461C399.474 95.8159 403.127 112.857 393.497 119.106C391.58 120.344 390.01 120.691 388.018 121.612L400.003 138.201H390.221L378.84 121.823H356.471V138.201H348.078V94.2461H387.837H387.822ZM356.455 114.231H384.622C384.923 114.231 387.067 113.371 387.505 113.114C391.248 110.971 391.233 105.084 387.61 102.85C386.855 102.382 383.399 101.431 382.629 101.431H357.059L356.455 102.035V114.216V114.231Z" fill="white"/>
        <path d="M284.275 131.669C281.151 128.74 278.162 123.518 277.754 119.216C274.675 86.5518 327.505 84.6952 334.6 109.51C342.615 137.54 301.679 147.956 284.275 131.669ZM290.268 105.978C286.66 109.646 285.422 114.869 286.72 119.835C291.143 136.59 324.592 135.322 326.479 118.431C328.622 99.2914 301.045 95.0046 290.253 105.978H290.268Z" fill="white"/>
        <path d="M209.83 138.203H200.245L195.384 128.679H165.739L160.683 138.203H151.098L175.007 94.3242C175.007 94.3242 183.792 94.4601 185.86 94.4601L209.83 138.203ZM191.052 121.026L180.471 101.464L169.89 121.026H191.067H191.052Z" fill="white"/>
        <path d="M269.358 104.629L261.585 107.045C254.536 100.977 245.736 98.8936 236.589 100.826C227.441 102.758 220.302 110.652 223.396 120.448C227.185 132.448 245.917 133.731 255.532 128.962C257.977 127.754 259.623 125.701 261.977 124.629L268.77 128.207C269.041 128.584 267.351 130.063 266.974 130.411C257.675 138.999 243.743 141.112 231.728 137.686C208.226 130.984 207.864 101.912 230.928 94.3653C244.377 89.9729 260.408 93.3842 269.374 104.629H269.358Z" fill="white"/>
        <path d="M67.6377 0H0V67.6377H67.6377V0Z" fill="white"/>
        <path d="M67.6377 70.6562H0V138.294H67.6377V70.6562Z" fill="white"/>
        <path d="M138.052 0H70.4141V67.6377H138.052V0Z" fill="white"/>
    </g>
    <defs>
        <clipPath id="clip0_15991_34194">
            <rect width="400" height="139.411" fill="white"/>
        </clipPath>
    </defs>
</svg>
