<svg width="400" height="93" viewBox="0 0 400 93" fill="none" xmlns="http://www.w3.org/2000/svg">
    <rect y="0.5" width="17.3333" height="92" rx="8.66667" fill="white"/>
    <rect x="25.332" y="0.5" width="17.3333" height="92" rx="8.66667" fill="white"/>
    <rect x="264" y="25.8359" width="17.3333" height="66.6667" rx="8.66667" fill="white"/>
    <rect x="232" y="17.8359" width="17.3333" height="81.3333" rx="8.66667" transform="rotate(-90 232 17.8359)" fill="white"/>
    <rect x="318.668" y="17.8359" width="17.3333" height="81.3333" rx="8.66667" transform="rotate(-90 318.668 17.8359)" fill="white"/>
    <rect x="318.668" y="55.168" width="17.3333" height="81.3333" rx="8.66667" transform="rotate(-90 318.668 55.168)" fill="white"/>
    <rect x="318.668" y="92.5" width="17.3333" height="81.3333" rx="8.66667" transform="rotate(-90 318.668 92.5)" fill="white"/>
    <path d="M124.667 46.5C124.667 30.6678 111.832 17.8333 96 17.8333C80.1678 17.8333 67.3333 30.6678 67.3333 46.5C67.3333 62.3322 80.1678 75.1667 96 75.1667V92.5C70.5949 92.5 50 71.9051 50 46.5C50 21.0949 70.5949 0.5 96 0.5C121.405 0.5 142 21.0949 142 46.5C142 71.9051 121.405 92.5 96 92.5V75.1667C111.832 75.1667 124.667 62.3322 124.667 46.5Z" fill="white"/>
    <path d="M223.999 46.5C223.999 30.6678 211.164 17.8333 195.332 17.8333C179.5 17.8333 166.665 30.6678 166.665 46.5C166.665 62.3322 179.5 75.1667 195.332 75.1667V92.5C169.927 92.5 149.332 71.9051 149.332 46.5C149.332 21.0949 169.927 0.5 195.332 0.5C220.737 0.5 241.332 21.0949 241.332 46.5C241.332 71.9051 220.737 92.5 195.332 92.5V75.1667C211.164 75.1667 223.999 62.3322 223.999 46.5Z" fill="white"/>
</svg>
