<svg width="500" height="126" viewBox="0 0 500 126" fill="none" xmlns="http://www.w3.org/2000/svg">
    <path fill-rule="evenodd" clip-rule="evenodd" d="M12.4031 121.594C4.26099 119.226 -0.301487 111.039 2.21583 103.315C4.14777 97.3755 9.70032 93.4476 15.8575 93.0077L16.9319 88.7024C17.7654 85.3827 18.6302 82.0702 19.6082 78.7866C20.579 75.5125 21.6365 72.2577 22.8385 69.0414C23.4239 67.4332 24.0117 65.8202 24.6717 64.2313C25.3197 62.6375 25.9219 61.0342 26.6133 59.4524C29.2872 53.1063 32.2261 46.8274 35.4661 40.6496C37.0921 37.5582 38.853 34.5053 40.638 31.4645C41.8424 29.5149 43.0806 27.575 44.3694 25.6496C42.965 19.575 40.7897 15.6351 40.1273 12.1712C37.4823 -1.72063 54.8024 2.14715 54.8024 2.14715C64.4356 5.68081 64.8813 14.8467 56.6813 19.3419C52.7837 21.4789 49.9918 24.0702 48.1249 26.2169C48.0598 28.6736 47.9274 31.1063 47.7467 33.5318C47.4118 36.9957 47.0553 40.4548 46.5663 43.8707C45.5714 50.7121 44.2706 57.4597 42.7097 64.1279C42.3339 65.801 41.8858 67.4524 41.4715 69.1111C41.0764 70.777 40.597 72.4212 40.1321 74.0702C39.2095 77.3611 38.1496 80.6183 37.0005 83.8467C36.8391 84.2986 36.6657 84.7433 36.5043 85.1928C38.5639 84.2553 40.6356 83.3298 42.7097 82.4092C46.9686 80.5149 51.23 78.6231 55.395 76.5967C59.5624 74.5678 63.6335 72.3947 67.6034 70.0798C71.5829 67.7697 75.4468 65.2938 79.1782 62.6255C82.9144 59.9524 86.5085 57.0823 90.0376 54.1183C93.0318 51.6448 95.9924 49.1279 99.0059 46.7C99.1119 46.1135 99.2541 45.527 99.4468 44.9404C101.959 37.2145 110.602 32.8683 118.742 35.2313C126.877 37.5943 131.442 45.7818 128.929 53.5125C127.161 58.9428 122.363 62.6928 116.839 63.6303C115.618 66.6904 114.346 69.7457 112.997 72.7746C111.024 77.2337 108.887 81.6448 106.58 86.0077C105.421 88.1904 104.226 90.3635 102.952 92.5077C101.673 94.652 100.379 96.7962 98.9144 98.8875C98.6422 99.277 98.0857 99.3803 97.681 99.1207C97.4185 98.9597 97.2812 98.6856 97.2836 98.414C97.3149 95.9044 97.5221 93.4428 97.7365 90.9957C97.9605 88.5438 98.2616 86.1111 98.6012 83.6928C99.2902 78.8587 100.148 74.0726 101.169 69.3371C101.848 66.1111 102.612 62.9116 103.421 59.7289C102.985 59.3202 102.566 58.8972 102.183 58.4524C99.8033 59.4717 97.4064 60.4717 95.0312 61.4957C90.7193 63.3106 86.4748 65.2265 82.3652 67.3347C78.2532 69.45 74.2712 71.7505 70.4073 74.2265C66.541 76.6928 62.7663 79.301 59.0878 82.0582C55.4143 84.8154 51.8322 87.7048 48.2429 90.5943C44.6585 93.4789 41.074 96.3659 37.3932 99.1087C35.5311 100.549 33.6305 101.924 31.713 103.279C32.585 105.989 32.6428 108.967 31.7009 111.878C29.186 119.609 20.5452 123.957 12.4031 121.594ZM97.2373 101.8C104.269 104.158 108.104 111.06 105.794 117.192C103.488 123.327 95.9148 126.384 88.8784 124.017C81.842 121.656 78.0166 114.764 80.3171 108.625C82.6273 102.488 90.2009 99.4349 97.2373 101.8Z" fill="white"/>
    <path fill-rule="evenodd" clip-rule="evenodd" d="M238.856 105.33H226.417V67.9509C226.417 58.3945 220.929 54.2816 213.978 54.2816C207.027 54.2816 201.173 58.5154 201.173 67.9509V105.33H188.734V43.9993H200.929V50.1687C205.198 45.5719 211.173 43.2735 217.393 43.2735C223.734 43.2735 228.978 45.33 232.637 48.838C237.393 53.4348 238.856 59.2412 238.856 66.1364V105.33ZM305.747 78.2332H265.625C265.625 88.7574 271.234 95.4106 281.356 95.4106C288.308 95.4106 291.966 93.4751 296.356 89.1203L304.283 96.4993C297.942 102.79 291.966 106.056 281.112 106.056C265.625 106.056 253.308 97.9509 253.308 74.6041C253.308 54.7654 263.673 43.2735 279.527 43.2735C296.112 43.2735 305.747 55.3703 305.747 72.7896V78.2332ZM293.429 69.6445C293.308 65.8945 292.942 64.08 291.722 61.2977C289.771 56.7009 285.381 53.5558 279.527 53.5558C273.673 53.5558 269.161 56.7009 267.21 61.2977C265.99 64.08 265.747 65.8945 265.625 69.6445H293.429ZM346.539 105.33H339.1C327.515 105.33 322.149 97.1042 322.149 88.2735V54.5235H315.076V45.088H322.149V26.459H334.588V45.088H346.539V54.5235H334.588V87.6687C334.588 92.1445 336.783 94.8058 341.417 94.8058H346.539V105.33ZM386.722 105.33H379.283C367.698 105.33 362.332 97.1042 362.332 88.2735V54.5235H355.259V45.088H362.332V26.459H374.771V45.088H386.722V54.5235H374.771V87.6687C374.771 92.1445 376.966 94.8058 381.6 94.8058H386.722V105.33ZM444.466 49.08L435.076 58.3945C432.271 55.6122 430.076 54.2816 425.808 54.2816C419.1 54.2816 413.49 59.6041 413.49 68.0719V105.33H401.051V43.9993H413.247V50.6525C416.417 46.2977 422.759 43.2735 429.71 43.2735C435.686 43.2735 440.198 44.8461 444.466 49.08ZM497.332 105.33H485.137V99.7654C480.625 104.241 476.356 106.056 468.673 106.056C460.99 106.056 455.868 104.241 452.088 100.491C448.917 97.2251 447.21 92.5074 447.21 87.3058C447.21 77.0235 454.405 69.6445 468.551 69.6445H484.893V65.2896C484.893 57.5477 480.99 53.7977 471.356 53.7977C464.527 53.7977 461.234 55.3703 457.82 59.7251L449.649 52.1041C455.503 45.33 461.6 43.2735 471.844 43.2735C488.795 43.2735 497.332 50.4106 497.332 64.3219V105.33ZM484.893 83.1929V78.2332H470.381C463.064 78.2332 459.283 81.4993 459.283 87.0638C459.283 92.6283 462.82 95.7735 470.625 95.7735C475.381 95.7735 478.917 95.4106 482.21 92.2654C484.039 90.4509 484.893 87.5477 484.893 83.1929Z" fill="white"/>
</svg>
