<svg width="410" height="208" fill="none" xmlns="http://www.w3.org/2000/svg"><g clip-path="url(#a)"><path d="M410-28.219H0V236.22h410V-28.219Z" fill="#fff"/><mask id="b" style="mask-type:luminance" maskUnits="userSpaceOnUse" x="29" y="30" width="352" height="148"><path d="M380.888 30.006H29.113v147.988h351.775V30.006Z" fill="#fff"/></mask><g mask="url(#b)"><path d="M380.885 92.51H29.115v8.094h351.77V92.51ZM225.273 31.225l-6.058 32.002h-.14l-5.72-32.002h-13.199L194.303 62.8h-.136l-5.92-31.575h-14.7l13.202 51.124h14.627l5.111-31.146h.137l5.24 31.146h14.564l13.615-51.124h-14.77ZM250.589 31.225l-17.901 51.124h15.046l2.176-7.306h15.449l2.047 7.306h15.517l-17.698-51.124h-14.636Zm2.589 32.867 4.696-15.754h.131l4.36 15.754h-9.187ZM324.3 58.649c4.974-1.932 7.288-7.52 7.288-12.82 0-9.66-7.353-14.604-15.857-14.604h-28.52v51.124h14.969V64.521h7.964c5.927 0 6.332 5.082 6.737 9.948.209 2.651.483 5.3 1.23 7.878h14.974c-1.356-2.364-1.432-8.448-1.633-10.957-.548-6.368-3.066-11.096-7.152-12.741Zm-14.289-5.087h-7.831V43.401h7.016c5.711 0 7.414 1.858 7.414 5.084 0 4.581-3.814 5.077-6.599 5.077ZM356.992 69.242l22.804-26.56V31.225h-41.039v13.104h21.301l-22.591 25.704v12.316h43.421V69.242h-23.896ZM59.267 51.202c-6.876-2.008-13.816-2.794-14.089-6.444 0-2.863 3.335-3.44 5.379-3.44 1.496 0 3.2.356 4.422 1.292 1.228.859 2.045 2.148 1.772 4.08h14.156c-.408-12.46-9.734-16.684-20.282-16.684-10.005 0-19.603 5.084-19.603 16.897 0 10.311 8.781 12.528 16.473 14.821 8.371 2.507 10.479 3.223 10.479 5.867 0 3.796-3.741 4.655-6.194 4.655-2.791 0-6.058-.643-7.146-3.722-.34-.933-.544-2.074-.544-3.365H29.115c.136 16.325 15.858 18.402 21.37 18.402 10.824 0 22.46-4.294 22.46-17.612.002-9.376-6.803-12.744-13.678-14.747ZM155.059 48.981h-14.023V31.225h-14.975v51.124h14.975V62.086h14.023v20.263h14.975V31.225h-14.975V48.98ZM99.42 70.821c-7.008 0-9.258-7.163-9.258-14.032 0-6.877 2.25-14.033 9.258-14.033 6.196 0 7.557 5.656 7.827 7.515h14.565c-1.293-12.815-8.642-20.193-21.983-20.261-14.971 0-24.64 10.667-24.64 26.779 0 15.105 8.917 26.776 24.64 26.776 14.226 0 22.186-10.954 22.186-21.265h-14.698c-.887 4.8-2.858 8.521-7.897 8.521Z" fill="#9E9E9E"/><path d="M29.113 112.752h62.013v65.236H29.113v-65.236Z" fill="#0050AA"/><path d="M60.117 114.477c-16.21 0-29.361 13.835-29.361 30.899 0 17.052 13.152 30.882 29.361 30.882 16.21 0 29.364-13.83 29.364-30.882-.002-17.062-13.154-30.899-29.364-30.899Z" fill="#E60A14"/><path d="M60.117 116.434c-15.19 0-27.502 12.959-27.502 28.943 0 15.967 12.32 28.927 27.502 28.927 15.183 0 27.503-12.96 27.503-28.927 0-15.984-12.32-28.943-27.503-28.943Z" fill="#FFF000"/><path d="M72.203 139.998v1.963h1.449v6.817h-1.449v1.975H84.43v-5.374l-5.016 2.931v-6.349h1.449v-1.963h-8.66Z" fill="#0050AA"/><path d="M66.23 147.399h-.41v-4.059h.345c1.804-.005 1.804 4.064.065 4.059Zm1.157-7.401h-8.246v1.963h1.444v6.817H59.14v1.975h8.246c6.097 0 6.158-10.755 0-10.755Z" fill="#0050AA"/><path d="m58.409 146.181-4.856-5.103-5.598 5.894v1.979l1.41-1.488 3.908 4.121-1.444 1.511.939.993 7.813-8.229v-1.975l-2.172 2.297ZM52.841 133.885c1.702 0 3.078 1.443 3.078 3.233 0 1.789-1.376 3.237-3.078 3.237-1.701 0-3.077-1.448-3.077-3.237 0-1.797 1.376-3.233 3.077-3.233Z" fill="#E60A14"/><path d="M35.742 139.998h8.649v1.963h-1.444v6.349l5.009-2.931v5.374H35.742v-1.975h1.449v-6.817h-1.449v-1.963Z" fill="#0050AA"/><path d="M163.566 112.752h-62.013v65.236h62.013v-65.236Z" fill="#fff"/><path d="M161.009 175.296h-56.898v-59.852h56.898v59.852Zm-59.456-62.544v65.236h62.013v-65.236" fill="#E3000F"/><path d="M132.418 138.348h-11.34v11.929h11.34v-11.929ZM134.123 138.344v11.937h11.345l-11.345-11.937ZM132.418 124.627h-11.34v11.929h11.34v-11.929ZM134.123 124.627v11.937l11.345-11.937h-11.345ZM115.756 157.334h-2.092l-2.703 3.969v-3.969h-1.846v8.654h1.846v-3.895l2.703 3.895h2.139l-3.175-4.427 3.128-4.227ZM126.415 164.008c-.213.285-.587.655-1.176.655-.67 0-1.07-.458-1.07-1.21v-3.228h-1.61v3.56c0 1.36.74 2.324 2.102 2.324.905 0 1.469-.494 1.751-.817v.693h1.586v-5.76h-1.586l.003 3.783ZM141.017 164.144a1.509 1.509 0 0 1-1.165.543c-.846 0-1.446-.643-1.446-1.583s.6-1.583 1.446-1.583c.564 0 .941.285 1.165.544v2.079Zm0-3.314c-.33-.334-.894-.728-1.681-.728-1.528 0-2.586 1.336-2.586 3.028 0 1.669 1.047 2.979 2.586 2.979.834 0 1.387-.408 1.681-.717v.594h1.586v-5.761h-1.586v.605Z" fill="#E3000F"/><path d="M119.839 164.144c-.224.259-.6.543-1.164.543-.847 0-1.447-.643-1.447-1.583s.6-1.583 1.447-1.583c.564 0 .94.285 1.164.544v2.079Zm0-3.314c-.33-.334-.894-.728-1.681-.728-1.527 0-2.586 1.336-2.586 3.028 0 1.669 1.047 2.979 2.586 2.979.835 0 1.388-.408 1.681-.717v.594h1.586v-5.761h-1.586v.605ZM154.415 164.07a1.501 1.501 0 0 1-1.223.618c-.846 0-1.446-.644-1.446-1.584 0-.94.6-1.583 1.446-1.583.612 0 1.011.335 1.223.617v1.932Zm0-6.736v3.549a2.336 2.336 0 0 0-1.739-.779c-1.539 0-2.586 1.336-2.586 3.029 0 1.695 1.069 2.979 2.586 2.979.882 0 1.457-.458 1.739-.779v.655h1.586v-8.654h-1.586ZM147.105 160.102a2.26 2.26 0 0 0-1.74.816v-.693h-1.597v5.761h1.597v-3.784c.201-.297.575-.655 1.176-.655.67 0 1.058.458 1.058 1.211v3.228h1.611v-3.561c-.003-1.357-.742-2.323-2.105-2.323ZM132.218 158.605c.542 0 .857.247.857.247l.26-1.286s-.436-.359-1.469-.359c-1.34 0-2.175.817-2.175 2.336v.681h-.81v1.384h.81v4.377h1.634v-4.377h1.856v-1.384h-1.856v-.532c0-.729.318-1.087.893-1.087ZM134.105 165.988h1.634v-8.654h-1.634v8.654Z" fill="#E3000F"/><path d="M308.448 112.756h-62.014v65.235h62.014v-65.235Z" fill="#003D4A"/><path d="M285.188 135.93c-3.246 0-5.885 2.785-5.885 6.207v2.877c0 .387.298.7.664.7.369 0 .668-.313.668-.7v-2.877c0-2.649 2.042-4.804 4.556-4.804h13.804v11.258c0 2.649-2.043 4.804-4.556 4.804h-4.581c-.368 0-.667.313-.667.7 0 .387.299.717.667.717h4.581c3.246 0 5.885-2.801 5.885-6.224v-12.66l-15.136.002Z" fill="#A5C814"/><path d="M285.438 147.664h-4.148c-1.095 0-1.987.924-1.987 2.08v2.964c0 1.154.892 2.11 1.987 2.11h4.148c1.094 0 1.987-.954 1.987-2.11v-2.964c0-1.154-.893-2.08-1.987-2.08Zm.655 5.044c0 .38-.293.691-.655.691h-4.148c-.362 0-.655-.309-.655-.691v-2.964c0-.38.293-.691.655-.691h4.148c.362 0 .655.311.655.691v2.964Zm-7.79-4.343c0 .386-.286.702-.652.702l-2.308.002c-.361 0-.652.309-.652.691v4.358c0 .387-.299.7-.667.7-.367 0-.665-.311-.665-.7v-4.358c0-1.153.89-2.093 1.984-2.093h2.295c.367-.003.665.311.665.698Zm-8.445-.701h-4.068c-1.094 0-1.985.94-1.985 2.094v2.967c0 1.153.891 2.093 1.985 2.093h4.061c.366 0 .665-.313.665-.7 0-.387-.299-.7-.665-.7h-4.061c-.359 0-.653-.309-.653-.691v-.864h4.724c1.094 0 1.986-.94 1.986-2.101-.002-1.158-.895-2.098-1.989-2.098Zm0 2.792h-4.723v-.698c0-.38.293-.691.652-.691h4.069c.361 0 .655.309.655.698.002.382-.291.691-.653.691Zm-7.263 3.657c0 .387-.299.703-.668.703l-6.708.002a.666.666 0 0 1-.623-.463.723.723 0 0 1 .199-.778l5.281-4.51h-4.857c-.366 0-.664-.313-.664-.7 0-.387.298-.703.664-.703h6.694c.279 0 .529.186.623.463a.727.727 0 0 1-.199.779l-5.381 4.51 4.969-.003c.371 0 .67.313.67.7Zm13.712-18.181h-4.069c-1.094 0-1.984.939-1.984 2.093v2.967c0 1.154.89 2.094 1.984 2.094h4.061c.367 0 .665-.314.665-.701 0-.387-.298-.7-.665-.7h-4.061c-.359 0-.653-.308-.653-.69v-.864h4.724c1.094 0 1.987-.94 1.987-2.101-.003-1.158-.895-2.098-1.989-2.098Zm0 2.793h-4.724v-.698c0-.379.294-.69.655-.69h4.066c.362 0 .655.308.655.698.003.379-.291.69-.652.69Zm-7.065-2.093c0 .387-.286.7-.653.7l-2.307.002c-.361 0-.655.309-.655.691v4.358c0 .387-.296.7-.665.7-.368 0-.664-.311-.664-.7v-4.356c0-1.153.89-2.093 1.984-2.093h2.293c.371-.002.667.311.667.698Zm-14.023 9.065c.369 0 .668-.314.668-.701v-1.908h4.711c1.094 0 1.987-.94 1.987-2.093v-2.97c0-1.154-.893-2.093-1.987-2.093h-4.059c-1.094 0-1.984.939-1.984 2.093v6.969c0 .389.298.703.664.703Zm.668-7.672c0-.38.291-.691.652-.691h4.059c.361 0 .655.309.655.691v2.97c0 .379-.294.69-.655.69h-4.711v-3.66Z" fill="#fff"/><path d="M236.009 112.756h-62.013v65.235h62.013v-65.235Z" fill="#003769"/><path d="M232.286 143.76h-54.048v1.243h54.048v-1.243ZM204.704 142.196l.787-4.785h.02l.806 4.785h2.236l2.092-7.856h-2.268l-.932 4.918h-.023l-.877-4.918h-2.029l-.898 4.851h-.02l-.912-4.851h-2.258l2.028 7.856h2.248ZM213.387 136.971h.02l.67 2.419h-1.412l.722-2.419Zm-1.557 5.227.334-1.123h2.374l.315 1.123h2.383l-2.719-7.854h-2.247l-2.75 7.854h2.31ZM220.196 136.214h1.078c.878 0 1.14.285 1.14.781 0 .705-.587.781-1.013.781h-1.203l-.002-1.562Zm0 3.245h1.223c.909 0 .972.781 1.036 1.528.031.406.074.814.189 1.211h2.299c-.21-.363-.219-1.298-.25-1.683-.084-.98-.472-1.704-1.099-1.958.765-.297 1.119-1.156 1.119-1.97 0-1.484-1.13-2.243-2.437-2.243h-4.381v7.854h2.299l.002-2.739ZM228.614 140.181l3.504-4.08v-1.761h-6.304v2.015h3.271l-3.47 3.95v1.891h6.672v-2.015h-3.673ZM181.72 140.646c-.429 0-.932-.1-1.099-.572a1.518 1.518 0 0 1-.083-.517h-2.302c.02 2.508 2.437 2.826 3.285 2.826 1.663 0 3.451-.659 3.451-2.705 0-1.441-1.045-1.959-2.103-2.267-1.059-.309-2.124-.43-2.164-.99 0-.439.512-.527.825-.527.231 0 .492.055.68.197.187.133.313.33.273.627h2.175c-.064-1.916-1.496-2.564-3.116-2.564-1.539 0-3.012.781-3.012 2.597 0 1.583 1.349 1.925 2.531 2.279 1.286.384 1.611.496 1.611.902 0 .581-.575.714-.952.714ZM195.432 139.084h2.155v3.114h2.301v-7.854h-2.301v2.727h-2.155v-2.727h-2.299v7.854h2.299v-3.114ZM189.104 142.383c2.187 0 3.41-1.682 3.41-3.266h-2.259c-.135.736-.438 1.311-1.214 1.311-1.076 0-1.421-1.102-1.421-2.158 0-1.056.345-2.157 1.421-2.157.953 0 1.162.868 1.203 1.155h2.238c-.198-1.97-1.327-3.102-3.378-3.114-2.299 0-3.786 1.641-3.786 4.116 0 2.322 1.372 4.113 3.786 4.113ZM181.733 148.734c.826 0 1.471.221 1.932.662.46.442.692 1.052.692 1.828 0 1.761-.882 2.642-2.644 2.642h-1.568v2.566h-1.907v-7.698h3.495Zm-.277 3.58c.663 0 .995-.321.995-.959 0-.345-.091-.601-.271-.765-.181-.166-.422-.249-.722-.249h-1.311v1.973h1.309ZM188.31 150.73c.151 0 .287.015.411.043v1.671a2.794 2.794 0 0 0-.666-.107c-.377 0-.688.124-.939.366-.25.242-.374.553-.374.928v2.803H185v-5.594h1.69v.98h.02c.115-.344.314-.612.594-.802.282-.192.615-.288 1.006-.288ZM191.767 150.678c.798 0 1.466.278 2.003.835.537.558.806 1.268.806 2.129 0 .855-.262 1.562-.786 2.12-.523.558-1.197.836-2.023.836-.806 0-1.474-.278-2.004-.831-.53-.553-.794-1.26-.794-2.125 0-.854.264-1.564.789-2.124.526-.56 1.196-.84 2.009-.84Zm-1.056 2.964c0 .475.09.853.27 1.133.181.28.443.42.783.42.354 0 .623-.147.799-.442.178-.294.266-.664.266-1.111 0-.481-.094-.861-.282-1.141a.902.902 0 0 0-.794-.42.876.876 0 0 0-.763.415c-.185.275-.279.658-.279 1.146ZM200.611 148.737v7.697h-1.66v-.645h-.021c-.347.538-.837.809-1.466.809-.718 0-1.293-.275-1.726-.826-.434-.551-.65-1.303-.65-2.26 0-.826.205-1.504.616-2.039.41-.531.952-.797 1.629-.797.65 0 1.155.254 1.516.764h.02v-2.706l1.742.003Zm-3.781 4.84c0 .503.097.899.291 1.186.194.287.453.432.774.432.69 0 1.035-.522 1.035-1.564 0-.46-.088-.833-.262-1.12-.173-.287-.435-.432-.785-.432a.883.883 0 0 0-.773.415c-.188.278-.28.639-.28 1.083ZM203.341 150.836v3.288c0 .641.287.959.862.959a.845.845 0 0 0 .682-.33c.18-.219.27-.515.27-.89v-3.029h1.742v5.595h-1.692v-.765h-.02a1.821 1.821 0 0 1-.718.679 1.899 1.899 0 0 1-.911.247c-.664 0-1.156-.185-1.476-.555-.32-.371-.48-.962-.48-1.774v-3.427l1.741.002ZM209.627 148.734v3.969l1.588-1.866h2.019l-1.947 2.113 2.193 3.482h-2.1l-1.302-2.253-.451.463v1.79h-1.742v-7.698h1.742ZM216.21 149.146v1.693h1.076v1.187h-1.076v2.554c0 .194.052.33.153.41.102.079.26.119.472.119.151 0 .3-.007.451-.021v1.348a18.72 18.72 0 0 1-1.024.054c-.492 0-.864-.064-1.117-.194a1.063 1.063 0 0 1-.528-.631c-.099-.293-.149-.653-.149-1.083v-2.554h-.882v-1.187h.882v-1.692l1.742-.003ZM219.808 148.734v1.401h-1.742v-1.401h1.742Zm0 2.103v5.595h-1.742v-5.595h1.742ZM223.417 150.678c.799 0 1.467.278 2.004.835.537.558.805 1.268.805 2.129 0 .855-.262 1.562-.785 2.12-.524.558-1.198.836-2.024.836-.806 0-1.473-.278-2.004-.831-.53-.553-.794-1.26-.794-2.125 0-.854.264-1.564.79-2.124s1.193-.84 2.008-.84Zm-1.056 2.964c0 .475.09.853.271 1.133.18.28.442.42.783.42.354 0 .622-.147.799-.442.178-.294.266-.664.266-1.111 0-.481-.095-.861-.282-1.141a.904.904 0 0 0-.795-.42.873.873 0 0 0-.762.415c-.185.275-.28.658-.28 1.146ZM230.381 150.678c1.271 0 1.907.707 1.907 2.124v3.634h-1.742v-3.311c0-.624-.291-.938-.871-.938-.307 0-.541.114-.701.345-.161.23-.242.529-.242.894v3.008h-1.742v-5.595h1.69v.765h.021c.171-.288.413-.516.726-.679.316-.164.634-.247.954-.247Z" fill="#fff"/><path d="M380.889 112.756h-62.014v65.235h62.014v-65.235Z" fill="#0A1E2D"/><path d="M327.381 139.325c0 .104.027.14.158.14.494.054 1.297.118 2.329.118 1.657 0 2.362-.505 2.362-1.692v-.19c0-.681-.14-1.362-1.157-1.742l-1.441-.534c-.395-.149-.565-.323-.565-.582v-.118c0-.314.23-.466.699-.466h2.028c.131 0 .155-.049.155-.151v-.9c0-.078-.024-.119-.153-.152a10.201 10.201 0 0 0-1.771-.152c-1.744 0-2.52.515-2.52 1.669v.225c0 .902.38 1.498 1.125 1.766l1.386.523c.473.17.642.325.642.593v.107c0 .377-.249.441-.812.441h-2.307c-.119 0-.158.033-.158.14v.957ZM338.085 133.26c0-.124-.046-.179-.162-.2-.646-.137-1.495-.152-1.83-.152-2.321 0-2.823.594-2.823 3.337 0 2.744.502 3.338 2.823 3.338.34 0 1.194-.017 1.83-.164.119-.024.162-.074.162-.188v-.946c0-.06-.017-.141-.155-.141h-1.837c-1.067 0-1.227-.427-1.227-1.896 0-1.493.153-1.897 1.227-1.897h1.837c.107 0 .155-.047.155-.151v-.94ZM343.356 139.523h1.341c.095 0 .134-.045.134-.152v-3.66c0-2.438-.604-2.806-2.678-2.806-.253 0-.74.008-1.192.06l-.038.005v-2.388c0-.102-.044-.152-.134-.152h-1.329c-.09 0-.134.05-.134.152v8.789c0 .128.046.152.121.152h1.352c.097 0 .133-.045.133-.152v-5.025h1.051c1.077 0 1.252.124 1.252 1.814v3.209c0 .13.046.154.121.154ZM350.583 135.63l.584 2.796c.221 1.026.323 1.156 1.621 1.156 1.038 0 1.322-.135 1.506-1.153l.968-5.343c.005-.05 0-.086-.012-.1-.012-.014-.041-.021-.085-.021h-1.431c-.046 0-.065 0-.087.135l-.777 4.833c-.046.201-.092.256-.225.256-.141 0-.17-.052-.216-.254l-1.046-4.631c-.022-.121-.08-.138-.133-.138h-1.318c-.072 0-.116.022-.145.138l-1.046 4.631c-.034.202-.063.254-.216.254-.126 0-.167-.05-.213-.254l-.776-4.835c-.025-.135-.054-.135-.088-.135h-1.431c-.049 0-.08.007-.095.024-.014.016-.014.049-.007.097l.958 5.343c.199 1.039.485 1.153 1.519 1.153 1.291 0 1.402-.144 1.608-1.156l.583-2.796ZM358.486 139.581c.568 0 1.652-.033 2.548-.247.189-.066.223-.159.223-.33v-4.099c0-1.234-.449-2.001-2.691-2.001-.822 0-1.434.052-2.03.178-.1.021-.129.033-.129.152v.971c0 .128.022.14.121.14h2.038c.747 0 1.094.271 1.094.854v.466h-1.465c-1.458 0-2.251.303-2.273 1.906.022 1.811.837 2.01 2.564 2.01Zm-.157-2.855h1.331v1.381l-.026.007c-.34.098-.934.119-1.136.119-.752 0-.992-.185-.992-.76 0-.536.231-.747.823-.747ZM366.21 133.032c-.4-.097-1.191-.128-1.487-.128-1.762 0-2.004.786-2.004 1.633v4.833c0 .107.039.152.133.152h1.339c.095 0 .134-.045.134-.152v-4.382c0-.553.242-.641.822-.641h1.06c.139 0 .156-.08.156-.14v-.971c.002-.135-.039-.17-.153-.204ZM367.031 139.369c0 .107.049.152.168.152h5.022c.109 0 .155-.048.155-.152v-1.149c0-.059-.015-.14-.155-.14h-2.878l2.814-3.969c.044-.069.073-.121.073-.201v-.805c0-.059-.017-.14-.155-.14h-4.753c-.128 0-.155.057-.155.14v1.125c0 .083.027.14.155.14h2.686l-.044.059-2.86 3.969a.33.33 0 0 0-.073.202v.769Z" fill="#00C3CC"/><path d="M335.591 142.836c.206 0 .281.078.281.294v14.057c0 .275-.114.372-.337.413-1.589.275-2.654.353-4.001.353-3.775 0-4.595-1.12-4.595-5.523 0-4.365.82-5.545 4.28-5.545.973 0 1.776.04 2.392.119v-3.874c0-.216.092-.294.279-.294h1.701Zm-4.018 6.114c-2.093 0-2.372.648-2.372 3.48 0 2.672.203 3.461 2.316 3.461.58 0 1.439-.06 2.094-.157v-6.781l-2.038-.003ZM340.773 144.272c0 .885-.466 1.358-1.344 1.358-.879 0-1.347-.473-1.347-1.358 0-.864.468-1.336 1.347-1.336.878 0 1.344.469 1.344 1.336Zm-.488 2.713c.187 0 .281.097.281.294v10.283c0 .197-.097.294-.281.294h-1.72c-.187 0-.279-.097-.279-.294v-10.283c0-.197.094-.294.279-.294h1.72ZM351.254 147.238c.223.019.354.157.354.394v9.594c-.019 3.42-.655 4.659-4.447 4.659-.934 0-2.057-.059-3.064-.216-.167-.04-.262-.137-.262-.315v-1.161c0-.216.095-.294.279-.294h2.916c1.868 0 2.317-.473 2.317-2.025v-.097c-.803.137-1.514.178-2.392.178-3.457 0-4.299-1.18-4.299-5.623 0-4.325.861-5.445 4.617-5.445 1.628-.003 3.028.154 3.981.351Zm-4.056 1.711c-2.055 0-2.261.767-2.261 3.461 0 2.81.281 3.461 2.375 3.461.616 0 1.383-.019 2.038-.119v-6.803h-2.152ZM356.506 144.272c0 .885-.465 1.358-1.344 1.358-.878 0-1.344-.473-1.344-1.358 0-.864.466-1.336 1.344-1.336.879 0 1.344.469 1.344 1.336Zm-.485 2.713c.189 0 .282.097.282.294v10.283c0 .197-.095.294-.282.294h-1.717c-.187 0-.282-.097-.282-.294v-10.283c0-.197.095-.294.282-.294h1.717ZM361.271 143.974c.204-.059.318.06.318.276v2.753h1.851c.187 0 .296.097.296.294v1.239c0 .216-.111.314-.296.314h-1.851v5.995c0 .864.243 1.042 1.16 1.042h.822c.223 0 .318.079.318.276v1.298c0 .216-.092.316-.281.354a8.12 8.12 0 0 1-1.325.137c-1.458 0-2.972-.04-2.972-2.399v-6.703h-1.065c-.189 0-.301-.098-.301-.314v-1.239c0-.197.112-.294.301-.294h1.065v-2.26c0-.197.095-.275.262-.315l1.698-.454ZM372.133 147.101c.187.04.279.138.279.313v1.161c0 .197-.095.294-.301.294h-3.438c-.786 0-1.235.257-1.235.864v.235c0 .473.245.845 1.027 1.161l2.447.945c1.645.648 1.907 1.652 1.907 2.87v.256c0 2.24-1.419 2.753-3.867 2.753-1.625 0-3.027-.119-3.644-.178-.223-.019-.279-.118-.279-.294v-1.22c0-.216.076-.314.301-.314h3.625c1.251 0 1.644-.156 1.644-.845v-.197c0-.472-.223-.785-1.065-1.12l-2.464-.982c-1.458-.551-1.868-1.731-1.868-2.892v-.394c0-2.143 1.678-2.634 4.017-2.634.801.002 1.829.043 2.914.218Z" fill="#fff"/></g></g><defs><clipPath id="a"><path fill="#fff" transform="translate(0 .893)" d="M0 0h410v206.213H0z"/></clipPath></defs></svg>