<svg width="126" height="56" fill="none" xmlns="http://www.w3.org/2000/svg"><path d="m31.629 13.62 1.48-.582c4.316-1.603 5.64-3.654 5.64-5.918 0-2.623-1.167-5.145-5.483-5.145h-5.348v15.883h3.71V13.62Zm0-8.798h.874c1.233 0 2.59.437 2.59 2.298 0 1.356-.325 2.23-1.984 3.037l-1.48.594v-5.93ZM.819 6.514c0-2.297 1.85-4.752 5.314-4.887 2.422-.1 3.7.359 4.821.92v3.138c-1.065-.628-2.388-1.29-3.969-1.233-1.58.067-2.198 1.009-2.198 1.77 0 2.86 6.784 1.088 6.784 6.973 0 2.713-1.962 4.831-5.315 4.965-1.895.079-4.103-.358-5.258-1.098V13.8c1.917 1.009 3.554 1.401 4.642 1.345 1.345-.044 1.85-.728 1.85-1.558 0-3.093-6.672-1.289-6.672-7.05m54.636 6.77c.37-.112.717-.235 1.054-.348l2.03 3.475c.57.897 1.087 1.446 2.062 1.446h2.882l-3.723-6.378c2.13-1.266 2.826-2.667 2.826-4.36 0-2.623-1.166-5.145-5.483-5.145h-5.348v15.86h3.711v-4.572l-.011.022Zm0-8.452h.874c1.222 0 2.59.438 2.59 2.287 0 1.704-.493 2.578-3.464 3.564V4.833v.022Zm-29.98 38.48c0-2.622-1.167-5.144-5.483-5.144h-5.348v15.883h3.71v-4.573l1.055-.348 2.03 3.475c.582.897 1.098 1.446 2.062 1.446h2.881l-3.722-6.378c2.13-1.267 2.826-2.668 2.826-4.36m-7.12 3.564v-5.85h.875c1.222 0 2.59.436 2.59 2.286 0 1.692-.494 2.567-3.465 3.564Zm-4.832-35.23V1.965h3.7v9.707c0 2.084.583 3.127 2.197 3.127 1.615 0 2.209-1.043 2.209-3.127V1.963h3.711v9.707c0 4.707-2.31 6.49-5.909 6.49-3.599 0-5.897-1.794-5.897-6.49m49.725 26.52H57.92v15.894h3.712v-4.237l1.49-.583c4.318-1.602 5.64-3.643 5.64-5.918 0-2.623-1.166-5.145-5.482-5.145m-.157 8.183-1.491.594v-5.93h.874c1.233 0 2.59.437 2.59 2.298 0 1.356-.325 2.23-1.984 3.038M51.63 38.202h3.71v9.696c0 4.708-2.309 6.49-5.908 6.49s-5.897-1.794-5.897-6.49v-9.696h3.7v9.696c0 2.085.583 3.138 2.197 3.138 1.615 0 2.198-1.042 2.198-3.138v-9.696ZM49.59 17.87h-9.038V1.964h9.037v2.88h-5.326v3.43H48.1v2.646h-3.834v4.057h5.325v2.892ZM33.466 28.047c0 3.183 1.94 4.977 4.44 4.977a6.32 6.32 0 0 0 3.644-1.144v3.475c-1.2.729-2.377.93-3.644.93-5 0-8.308-3.62-8.308-8.238 0-4.618 3.308-8.25 8.308-8.25 1.267 0 2.445.19 3.644.92v3.485c-1.29-.874-2.567-1.143-3.644-1.143-2.5 0-4.44 1.793-4.44 4.988Zm-23.365-.482c1.334-.863 1.57-2.433 1.57-3.128 0-3.037-2.58-4.349-5.214-4.349H.818v15.883h6.503c3.566 0 5.315-2.152 5.315-4.606 0-1.805-.83-3.184-2.545-3.811m-5.573-4.921h1.525c1.559 0 2.007.852 2.007 1.961 0 .93-.235 2.096-1.715 2.096H4.518v-4.057ZM6.604 33.27H4.518v-4.248h1.974c1.29 0 2.32.291 2.32 2.006 0 1.715-.952 2.242-2.208 2.242Zm44.208-5.84 5.808 8.52h-3.218c-.964 0-1.401-.483-2.063-1.447l-4.126-6.053v7.5h-3.711V20.065h3.711v7.05l4.53-7.05h3.98l-4.922 7.364h.011Zm-29.958 8.833c4.496 0 7.4-3.688 7.4-8.227 0-4.54-2.893-8.239-7.4-8.239-4.507 0-7.4 3.688-7.4 8.239 0 4.55 2.893 8.227 7.4 8.227Zm0-13.26c2.287 0 3.745 2.253 3.745 5.044 0 2.79-1.458 5.044-3.745 5.044s-3.745-2.253-3.745-5.044c0-2.791 1.458-5.044 3.745-5.044ZM34.163 37.9c-4.508 0-7.4 3.687-7.4 8.238 0 4.55 2.892 8.227 7.4 8.227 4.507 0 7.4-3.687 7.4-8.227 0-4.54-2.893-8.238-7.4-8.238Zm0 13.293c-2.288 0-3.745-2.264-3.745-5.044s1.457-5.044 3.745-5.044c2.287 0 3.744 2.253 3.744 5.044 0 2.791-1.457 5.044-3.744 5.044ZM12.22 46.127v7.218c-.46.28-.953.505-1.48.673-.079.034-.157.056-.236.078-.022 0-.044 0-.067.012a6.07 6.07 0 0 1-.897.179c-.033 0-.078 0-.112.011l-.325.034c-.078 0-.157 0-.235.011h-.561c-5 0-8.308-3.62-8.308-8.239 0-4.618 3.308-8.25 8.308-8.25 1.278 0 2.444.191 3.655.931v3.475c-1.3-.874-2.567-1.143-3.655-1.143-2.5 0-4.44 1.793-4.44 4.988 0 3.183 1.951 4.987 4.44 4.987.067 0 .146 0 .437-.022v-4.965h3.465l.01.022ZM99.539 55.17v.785L96.725 56l-.057-4.024 2.826-.045v.796l-1.85.022v.785l1.738-.022v.795l-1.715.023v.863l1.872-.022Zm4.025-2.264c-.796 0-.83-.022-.908-.358-.068-.303 0-.393.515-.505a6.353 6.353 0 0 1 1.211-.134l-.056-.774c-.404-.022-.952.045-1.345.135-1.043.235-1.458.616-1.267 1.446.168.74.336 1.009 1.457.997.819 0 .864.056.931.359.068.303-.022.426-.527.538-.404.09-.919.123-1.301.09v.74c.449.078 1.021.033 1.458-.068 1.256-.28 1.469-.75 1.29-1.558-.169-.75-.292-.93-1.469-.93m5.931-3.038-.348-.75-3.117 1.412.337.75 1.121-.504 1.323 2.915.874-.393-1.322-2.914 1.121-.505.011-.01Zm2.948.628.617.897.796-.55-.617-.896-.796.538v.011Zm6.806-5.963-2.522-2.018-.539.661-.515 1.278.74.325.437-.963 1.805 1.445-.717.897.616.505 1.951-2.433-.628-.504-.639.807h.011Zm3.509-3.99c-.504 1.008-.986 1.288-1.637.963l-.257-.123c-.359-.18-.449-.493-.437-.953-.393.292-.685.27-.954.135l-.235-.123c-.549-.27-.684-.852-.235-1.76.459-.92 1.009-1.166 1.558-.886l.235.112c.269.135.46.348.46.841.359-.291.673-.415 1.032-.235l.257.123c.651.325.707.919.213 1.894m-2.354-1.816-.168-.09c-.213-.1-.392 0-.572.36-.179.358-.146.549.067.66l.169.09c.213.101.369-.01.672-.291.045-.404.045-.616-.168-.729Zm1.648.695-.135-.067c-.235-.112-.403.023-.762.381-.067.482-.078.706.157.83l.135.067c.246.123.437.011.65-.426.213-.437.202-.661-.056-.785m2.702-4.158a3.958 3.958 0 0 1-.382.964l-.706-.27c.124-.212.236-.515.303-.818.179-.74.112-.997-.392-1.12l-.314-.079c.022.236-.022.572-.09.818-.213.841-.605 1.166-1.323.987l-.325-.079c-.605-.157-1.054-.571-.763-1.76.292-1.154.83-1.356 1.492-1.188l1.57.393c1.053.258 1.221.919.907 2.152m-2.253-1.513-.46-.112c-.28-.068-.414.067-.515.46-.101.403-.045.582.235.65l.28.066c.224.056.337-.056.404-.347.056-.224.078-.47.056-.717Zm3.173-4.73c-.045 1.232-.639 1.625-1.357 1.602l-1.603-.056c-.718-.022-1.267-.448-1.222-1.692.045-1.233.617-1.626 1.334-1.603l1.626.056c.717.022 1.267.448 1.222 1.692Zm-.83-.034c.011-.505-.135-.706-.549-.718l-1.379-.044c-.404-.012-.583.168-.594.683-.012.516.134.707.549.718l1.379.045c.415.01.583-.18.594-.684Zm-44.332 15.48.819.885-3.106 2.88-1.379-1.479c-.807-.874-.729-1.446-.134-1.995l.448-.426c.606-.56 1.234-.55 2.03.314l.515.56.797-.74h.01Zm-1.502 1.39-.515-.561c-.203-.213-.37-.213-.55-.056l-.37.347c-.168.157-.18.325.023.538l.515.56.897-.829Zm-1.58-2.949-1.391.875c-.617.392-1.457.28-2.153-.852-.706-1.121-.448-1.917.168-2.31l1.391-.874c.616-.392 1.446-.28 2.153.852.706 1.121.448 1.917-.168 2.31Zm-.707-1.76c-.247-.38-.504-.46-.763-.302l-1.143.717c-.258.157-.303.426-.056.818.247.382.504.46.762.303l1.144-.717c.258-.157.303-.426.056-.819ZM76.05 38.1l-3.97 1.502-.716-1.894c-.415-1.11-.124-1.614.628-1.906l.538-.201c.46-.168.75-.135 1.132.112l.964-1.357.471 1.256-.796 1.098.246.662 1.066-.404.426 1.132h.011Zm-2.377-.392-.28-.729c-.112-.28-.258-.347-.494-.257l-.437.168c-.224.078-.291.235-.179.515l.28.729 1.11-.426Zm-2.455-4.282 3.15-.572-.213-1.188-3.15.572-.224-1.21-1.032.19.661 3.61 1.032-.191-.224-1.21Zm2.746-5.481c.012-1.446-.66-1.85-1.322-1.86l-2.983-.023v1.21l2.837.023c.28 0 .426.19.426.639 0 .46-.157.639-.437.639l-2.848-.023v1.21l2.97.023c.663 0 1.347-.392 1.358-1.827M71.05 24.57l1.704.336c.84.169 1.413-.269 1.648-1.49a6.955 6.955 0 0 0 .112-1.727l-1.951-.38-.213 1.075 1.132.224c-.01.202-.033.404-.078.628-.09.437-.291.527-.594.46l-1.335-.258c-.347-.067-.425-.28-.358-.65.067-.348.224-.897.403-1.446l-.964-.303a8.937 8.937 0 0 0-.448 1.547c-.225 1.166.078 1.827.964 2.007m4.653-5.493c.538-1.334.067-1.962-.55-2.208l-2.769-1.121-.46 1.12 2.636 1.077c.269.112.324.336.156.751-.168.426-.381.538-.639.426l-2.635-1.076-.448 1.12 2.77 1.122c.616.246 1.39.134 1.939-1.2m2.825-5.28-.807-.526-1.009 1.558-.594-.381.93-1.435-.807-.527-.93 1.435-.538-.347 1.008-1.57-.807-.526-1.67 2.578 3.565 2.309 1.67-2.578-.01.01Zm.135-2.756c.606-.482.684-.471.885-.292.18.168.191.292-.123.628-.302.325-.74.661-1.065.852l.527.75c.448-.201.92-.571 1.256-.93.975-1.053.852-1.603.18-2.23-.584-.538-.853-.673-1.806.056-.583.448-.65.448-.852.257-.168-.156-.157-.257.112-.549.258-.28.594-.583.987-.863l-.606-.75a6.012 6.012 0 0 0-1.11.94c-.762.819-.908 1.447-.224 2.074.572.527.964.74 1.85.045m5.202-3.62-1.48 1.132-.426-.56 1.357-1.043-.583-.762-1.357 1.042-.392-.515 1.48-1.133-.583-.762-2.433 1.86 2.579 3.364 2.433-1.861-.583-.762h-.012Zm3.162-.729-1.615-3.923 2.041-.84c.875-.36 1.256-.102 1.48.448l.146.347c.1.236.078.538-.168.796.415-.034.74.123.897.493l.145.348c.236.571.124 1.076-.796 1.457l-2.107.874h-.023Zm1.323-2.387-.863.358.314.763.83-.337c.212-.09.235-.213.179-.358l-.123-.292c-.068-.157-.18-.202-.348-.123M86.88 3.15l.314.773.717-.291c.135-.056.224-.146.157-.303l-.157-.381c-.045-.123-.146-.157-.302-.1l-.729.302Zm4.305 1.972-.84-4.147L92.33.572c1.155-.236 1.614.134 1.771.93l.112.56c.101.482.011.774-.291 1.099l1.188 1.177-1.311.269-.965-.964-.683.134.224 1.11-1.178.236h-.01Zm.538-3.44.236 1.165.762-.157c.291-.056.381-.202.336-.437l-.09-.46c-.044-.235-.179-.325-.482-.257l-.762.157V1.68Zm7.164 2.6v-.964l-1.872.033v-.706l1.704-.022v-.964l-1.726.022v-.65l1.85-.022V.045L95.76.09l.067 4.237 3.072-.045h-.012Zm2.972.392 1.289-2.612.124 2.904 1.345.28 1.996-3.9-1.122-.236-1.244 2.5-.202-2.814-1.2-.258-1.323 2.488-.123-2.79L100.279 0l.247 4.383 1.334.28v.011Zm7.175 2.477.404-.874-1.693-.773.303-.65 1.558.717.404-.874-1.559-.718.269-.583 1.693.774.404-.875-2.792-1.289-1.771 3.856 2.791 1.29h-.011Zm5.18.594c-.28.404-.549.538-.998.538l-.044 1.67-1.099-.773.044-1.356-.571-.404-.65.93-.987-.694 2.455-3.464 1.649 1.166c.964.684 1.009 1.278.538 1.939l-.325.47-.012-.022Zm-.796-1.625-.639-.448-.683.975.638.448c.247.18.415.146.55-.056l.269-.38c.134-.191.112-.348-.135-.528m2.355 4.787 3.195-1.088-.863-.874-1.962.74.762-1.95-.863-.875-1.133 3.183-.863.852.853.863.862-.851h.012Zm1.121 16.353h-2.04v1.603h2.04v-1.603Zm-38.457 1.614h2.04v-1.602h-2.04v1.602Zm30.811 11.904 1.446 1.446 1.132-1.132-1.446-1.446-1.132 1.144v-.012Zm-24.308-24.3 1.132-1.133-1.446-1.434-1.133 1.132 1.436 1.434h.01Zm-1.435 24.603 1.132 1.143 1.435-1.446-1.132-1.132-1.447 1.446.012-.01Zm26.886-24.615 1.446-1.435-1.132-1.143-1.447 1.435 1.133 1.143ZM96.871 43.581c-8.208-.427-14.756-7.22-14.756-15.525 0-4.159 1.615-8.07 4.553-11.007 2.746-2.746 6.345-4.316 10.203-4.517v-3.71h1.603v3.71a15.42 15.42 0 0 1 10.203 4.517 15.413 15.413 0 0 1 4.551 11.007c0 8.306-6.558 15.098-14.765 15.524v3.7h-1.604v-3.7h.012Zm11.256-16.32h3.465a14.278 14.278 0 0 0-.225-1.85l-3.24 1.85Zm-9.642-8.351h6.144l2.276-1.3a13.889 13.889 0 0 0-8.42-3.464v4.764Zm0 3.52 3.341-1.918h-3.34v1.917Zm0 13.159h10.92a13.745 13.745 0 0 0 2.187-6.726h-6.268l-6.839 3.912v2.814Zm0 6.377a13.964 13.964 0 0 0 9.721-4.763h-9.72v4.763Zm-1.603-8.272-3.297 1.895h3.297v-1.895Zm-9.71-14.796h9.71v-4.764c-3.42.202-6.615 1.603-9.06 4.047-.235.235-.437.47-.65.717Zm-3.397 8.351h6.279l6.828-3.912v-2.836H85.95a13.856 13.856 0 0 0-2.175 6.737m3.476 1.603h-3.476c.033.627.112 1.244.236 1.86l3.24-1.86Zm9.63 13.103V37.18h-6.099l-2.287 1.3a13.914 13.914 0 0 0 8.387 3.464Z" fill="#fff"/></svg>