<svg width="300" height="300" viewBox="0 0 300 300" fill="none" xmlns="http://www.w3.org/2000/svg">
    <g clip-path="url(#clip0_15182_50969)">
        <path d="M102.871 184.284H60.0137V141.427H102.795V184.284H102.871ZM60.0137 42.8633V115.728H72.8633V113.612C72.8633 79.2956 92.1377 57.9049 128.57 57.9049H130.686V212.175C130.686 233.566 122.145 242.183 100.679 242.183H94.2541V257.149H205.667V242.183H199.243C177.852 242.183 169.235 233.642 169.235 212.175V57.8292H171.352C207.784 57.8292 227.058 79.22 227.058 113.536V115.652H239.908V42.8633H60.0137ZM197.126 184.284H239.983V141.427H197.202V184.284H197.126Z" fill="white"/>
    </g>
    <defs>
        <clipPath id="clip0_15182_50969">
            <rect width="300" height="300" fill="white"/>
        </clipPath>
    </defs>
</svg>
