<svg width="298" height="56" fill="none" xmlns="http://www.w3.org/2000/svg"><g clip-path="url(#a)"><path fill-rule="evenodd" clip-rule="evenodd" d="M26.442 0a26.39 26.39 0 0 0-13.58 3.75A6.387 6.387 0 0 0 8.82 2.32c-3.535 0-6.423 2.879-6.423 6.403a6.33 6.33 0 0 0 1.418 3.995A26.27 26.27 0 0 0 0 26.36c0 .21.035.401.105.593.07.192.193.367.333.506.14.14.314.262.507.332s.385.122.595.122a1.4 1.4 0 0 0 .595-.122c.193-.07.35-.192.508-.332.14-.14.262-.314.332-.506s.123-.383.105-.593c0-4.309 1.173-8.321 3.22-11.793.805.349 1.663.54 2.538.558 3.535 0 6.422-2.878 6.422-6.402 0-.873-.192-1.727-.543-2.512A23.262 23.262 0 0 1 26.46 3.053c.21 0 .402-.035.595-.105.192-.07.367-.192.508-.331.14-.14.262-.314.332-.506a1.71 1.71 0 0 0 .122-.593c0-.21-.034-.401-.122-.593-.07-.192-.192-.35-.332-.506a1.422 1.422 0 0 0-.508-.332A2.472 2.472 0 0 0 26.442 0ZM8.82 5.39c1.032 0 1.96.437 2.59 1.24l.035.034c.473.593.717 1.326.717 2.076a3.315 3.315 0 0 1-3.342 3.332c-.77 0-1.505-.261-2.1-.75a3.323 3.323 0 0 1-1.242-2.6A3.315 3.315 0 0 1 8.82 5.392Zm32.831 15.876 3.517-3.506c.28-.28.403-.663.403-1.047 0-.82-.682-1.465-1.505-1.43-.35.017-.7.157-.963.4l-3.517 3.507-3.483-3.471c.368-.367 2.328-2.32 3.465-3.472.28-.28.403-.663.403-1.047 0-.82-.682-1.465-1.505-1.43-.35.017-.7.157-.962.401l-3.483 3.472-3.185-3.175a1.778 1.778 0 0 0-2.52 0l-4.34 4.344-3.5-3.49c-.28-.279-.665-.4-1.05-.4-.822 0-1.47.68-1.435 1.5.018.366.157.697.402.959l3.518 3.506-4.55 4.536c-.227-.226-2.31-2.302-3.518-3.489-.28-.279-.665-.401-1.05-.401-.42 0-.787.174-1.05.436-.262.262-.42.646-.402 1.064.018.35.158.698.402.96.91.921 2.514 2.51 3.205 3.196l.313.31-4.34 4.327c-.7.698-.7 1.814 0 2.512l3.203 3.158-3.518 3.506c-.28.28-.402.663-.402 1.047 0 .82.682 1.465 1.505 1.43.35-.017.7-.157.962-.4 1.151-1.13 3.345-3.318 3.533-3.505l.001-.002h.001l3.483 3.471-3.518 3.507c-.28.279-.402.663-.402 1.047 0 .82.682 1.465 1.504 1.43.35-.017.7-.157.963-.401a281.52 281.52 0 0 0 3.517-3.524l3.256 3.245c.7.697 1.82.697 2.52 0l4.34-4.327 3.535 3.524c.28.28.664.402 1.05.402.822 0 1.47-.68 1.434-1.5a1.528 1.528 0 0 0-.402-.96c-1.19-1.204-3.535-3.524-3.535-3.524l4.568-4.554v.001c.1.1 2.296 2.288 3.535 3.506.28.28.664.401 1.05.401.822 0 1.47-.68 1.434-1.5a1.527 1.527 0 0 0-.402-.96 594.446 594.446 0 0 0-3.45-3.439l-.085-.085 4.34-4.326c.7-.698.7-1.814 0-2.512l-3.29-3.228Zm-7.088.157a1.498 1.498 0 0 1-1.732.768l1.067 4.187c.193.75-.28 1.57-1.05 1.797l-7.822 2.372 1.453 5.565c.21.768-.263 1.57-1.05 1.815-.788.244-1.575-.192-1.768-.96l-1.785-6.943c-.193-.768.28-1.57 1.05-1.797l7.823-2.372-.718-2.81c-.49.542-1.26.664-1.855.315-.595-.35-.805-1.1-.525-1.745l1.418-3.402c.07-.174.192-.349.332-.488.297-.297.7-.471 1.102-.454.298 0 .578.087.805.262l2.888 2.11c.543.367.7 1.135.367 1.78Zm8.575 30.652a26.39 26.39 0 0 1-13.58 3.75c-.21 0-.403-.035-.596-.087a1.421 1.421 0 0 1-.507-.331c-.14-.157-.262-.314-.332-.506a1.387 1.387 0 0 1-.123-.594c0-.209.052-.4.122-.593.07-.191.193-.366.333-.505.14-.14.315-.262.508-.332.192-.07.384-.105.595-.105 4.287 0 8.294-1.151 11.742-3.157a6.175 6.175 0 0 1-.542-2.513c0-3.523 2.887-6.402 6.422-6.402.875.017 1.733.21 2.538.558a23.093 23.093 0 0 0 3.22-11.793c0-.21.034-.401.104-.593.07-.192.193-.366.333-.506.157-.14.315-.262.508-.331a1.4 1.4 0 0 1 .594-.122c.21 0 .403.052.596.122.192.07.367.192.507.331.14.14.263.314.333.506s.105.384.105.593c0 4.99-1.418 9.665-3.833 13.643a6.33 6.33 0 0 1 1.417 3.995c0 3.523-2.887 6.402-6.422 6.402a6.387 6.387 0 0 1-4.042-1.43Zm1.452-2.879c.63.803 1.557 1.239 2.59 1.239a3.315 3.315 0 0 0 3.343-3.333 3.323 3.323 0 0 0-1.243-2.599 3.292 3.292 0 0 0-2.1-.75 3.315 3.315 0 0 0-3.343 3.332c0 .75.245 1.483.718 2.076l.035.035Z" fill="#fff"/></g><path d="M88.96 12.921h-9.497v26.342h-3.876V12.921h-9.478V9.715h22.852v3.206ZM96.547 19.964c1.665-2.043 3.829-3.065 6.494-3.065 4.641 0 6.982 2.618 7.022 7.854v14.51h-3.754v-14.53c-.014-1.583-.379-2.753-1.096-3.51-.704-.759-1.806-1.137-3.308-1.137-1.218 0-2.286.324-3.206.974a6.615 6.615 0 0 0-2.152 2.557v15.647h-3.754V8.092h3.754v11.872ZM119.766 39.263h-3.755V17.305h3.755v21.958Zm-4.059-27.783c0-.609.183-1.123.548-1.542.379-.42.934-.63 1.664-.63.731 0 1.285.21 1.664.63.379.42.568.933.568 1.542s-.189 1.116-.568 1.522c-.379.406-.933.609-1.664.609-.73 0-1.285-.203-1.664-.609-.365-.406-.548-.913-.548-1.522ZM129.305 17.306l.122 2.76c1.678-2.11 3.87-3.166 6.575-3.166 4.641 0 6.982 2.618 7.022 7.854v14.51h-3.754v-14.53c-.014-1.583-.379-2.753-1.096-3.511-.704-.758-1.806-1.136-3.308-1.136-1.218 0-2.287.324-3.207.974a6.613 6.613 0 0 0-2.151 2.557v15.646h-3.754V17.306h3.551ZM147.836 28.103c0-3.423.791-6.143 2.374-8.159 1.583-2.029 3.68-3.044 6.292-3.044 2.678 0 4.769.947 6.27 2.842l.183-2.436h3.43v21.43c0 2.842-.846 5.081-2.537 6.718-1.678 1.637-3.937 2.456-6.778 2.456-1.583 0-3.132-.338-4.648-1.015-1.515-.676-2.672-1.603-3.47-2.78l1.948-2.253c1.61 1.989 3.579 2.983 5.906 2.983 1.826 0 3.247-.514 4.262-1.542 1.028-1.028 1.542-2.476 1.542-4.343v-1.887c-1.502 1.731-3.551 2.597-6.149 2.597-2.571 0-4.654-1.035-6.251-3.105-1.583-2.07-2.374-4.89-2.374-8.462Zm3.775.426c0 2.476.507 4.424 1.522 5.845 1.014 1.407 2.435 2.11 4.261 2.11 2.368 0 4.107-1.075 5.216-3.227V23.232c-1.15-2.097-2.875-3.145-5.175-3.145-1.826 0-3.254.71-4.282 2.13-1.028 1.421-1.542 3.525-1.542 6.312ZM184.812 33.44c0-1.015-.386-1.8-1.157-2.354-.758-.568-2.09-1.055-3.998-1.461-1.894-.406-3.403-.893-4.525-1.461-1.11-.569-1.935-1.245-2.476-2.03-.528-.785-.792-1.718-.792-2.8 0-1.8.758-3.322 2.273-4.567 1.529-1.244 3.477-1.867 5.845-1.867 2.489 0 4.505.643 6.047 1.928 1.556 1.286 2.334 2.93 2.334 4.932h-3.774c0-1.028-.44-1.915-1.32-2.659-.865-.744-1.961-1.116-3.287-1.116-1.367 0-2.435.298-3.207.893-.771.595-1.156 1.373-1.156 2.334 0 .906.358 1.59 1.075 2.05.717.46 2.009.9 3.876 1.319 1.881.42 3.403.92 4.567 1.501 1.163.582 2.022 1.286 2.577 2.111.568.812.852 1.806.852 2.983 0 1.962-.784 3.538-2.354 4.729-1.569 1.177-3.605 1.765-6.108 1.765-1.759 0-3.315-.31-4.668-.933-1.353-.623-2.415-1.488-3.186-2.598-.758-1.123-1.137-2.334-1.137-3.632h3.755c.067 1.258.568 2.259 1.501 3.003.948.73 2.192 1.096 3.735 1.096 1.42 0 2.557-.284 3.409-.852.866-.582 1.299-1.353 1.299-2.314ZM194.043 39.263V9.715h9.66c3.206 0 5.615.663 7.225 1.989 1.623 1.325 2.435 3.287 2.435 5.885 0 1.38-.392 2.604-1.177 3.673-.785 1.055-1.854 1.874-3.207 2.456 1.597.446 2.855 1.299 3.775 2.557.934 1.245 1.4 2.733 1.4 4.465 0 2.651-.859 4.735-2.577 6.25-1.718 1.515-4.147 2.273-7.286 2.273h-10.248Zm3.896-13.82v10.634h6.434c1.813 0 3.24-.467 4.282-1.4 1.055-.947 1.583-2.246 1.583-3.897 0-3.558-1.935-5.337-5.804-5.337h-6.495Zm0-3.126h5.886c1.704 0 3.064-.426 4.079-1.278 1.028-.852 1.542-2.01 1.542-3.47 0-1.624-.473-2.8-1.42-3.531-.947-.745-2.388-1.117-4.323-1.117h-5.764v9.396ZM218.355 28.082c0-2.15.42-4.085 1.259-5.804.852-1.718 2.029-3.044 3.531-3.977 1.515-.934 3.24-1.4 5.175-1.4 2.99 0 5.405 1.034 7.245 3.104 1.853 2.07 2.78 4.824 2.78 8.26v.264c0 2.138-.412 4.059-1.238 5.763-.812 1.692-1.982 3.01-3.511 3.958-1.515.947-3.26 1.42-5.236 1.42-2.976 0-5.391-1.035-7.245-3.105-1.84-2.07-2.76-4.81-2.76-8.219v-.264Zm3.775.447c0 2.435.562 4.39 1.685 5.865 1.136 1.475 2.651 2.212 4.545 2.212 1.908 0 3.423-.744 4.546-2.232 1.123-1.502 1.685-3.6 1.685-6.292 0-2.408-.575-4.356-1.725-5.844-1.137-1.502-2.652-2.253-4.546-2.253-1.854 0-3.349.737-4.485 2.212-1.137 1.475-1.705 3.585-1.705 6.332ZM256.611 39.264c-.216-.432-.392-1.204-.527-2.313-1.746 1.813-3.829 2.72-6.251 2.72-2.165 0-3.944-.61-5.337-1.827-1.38-1.231-2.07-2.787-2.07-4.668 0-2.286.866-4.059 2.597-5.317 1.746-1.272 4.195-1.907 7.347-1.907h3.653v-1.725c0-1.313-.393-2.355-1.177-3.126-.785-.784-1.942-1.177-3.471-1.177-1.339 0-2.462.338-3.368 1.015-.907.676-1.36 1.495-1.36 2.456h-3.775c0-1.096.386-2.152 1.157-3.166.785-1.029 1.84-1.84 3.166-2.436 1.339-.595 2.807-.893 4.404-.893 2.53 0 4.512.636 5.946 1.908 1.434 1.258 2.178 2.997 2.232 5.216V34.13c0 2.016.257 3.62.771 4.81v.325h-3.937Zm-6.23-2.861a6.602 6.602 0 0 0 3.349-.913c1.055-.609 1.819-1.4 2.293-2.375V28.61h-2.943c-4.6 0-6.9 1.346-6.9 4.039 0 1.177.393 2.097 1.177 2.76.785.663 1.793.994 3.024.994ZM276.317 20.675a11.252 11.252 0 0 0-1.847-.142c-2.462 0-4.133 1.049-5.012 3.146v15.585h-3.755V17.306h3.653l.061 2.537c1.231-1.962 2.976-2.943 5.236-2.943.73 0 1.285.095 1.664.285v3.49ZM278.828 28.102c0-3.369.798-6.075 2.395-8.118 1.596-2.056 3.687-3.085 6.271-3.085 2.57 0 4.606.88 6.108 2.639V8.092h3.755v31.172h-3.45l-.183-2.355c-1.502 1.84-3.592 2.76-6.271 2.76-2.543 0-4.62-1.041-6.23-3.125-1.597-2.083-2.395-4.803-2.395-8.158v-.284Zm3.755.426c0 2.49.514 4.438 1.542 5.845s2.449 2.11 4.262 2.11c2.381 0 4.119-1.069 5.215-3.206V23.19c-1.123-2.07-2.848-3.105-5.175-3.105-1.84 0-3.274.71-4.302 2.13-1.028 1.421-1.542 3.525-1.542 6.312Z" fill="#fff"/><defs><clipPath id="a"><path fill="#fff" d="M0 0h56v56H0z"/></clipPath></defs></svg>