<svg width="400" height="64" viewBox="0 0 400 64" fill="none" xmlns="http://www.w3.org/2000/svg">
    <path d="M174.158 63.2113V0.0195312H226.728V13.7682H193.835V23.4229H223.936C223.969 23.4229 224.377 23.8314 224.377 23.8608V36.1488C224.377 36.1812 223.969 36.5868 223.936 36.5868H193.835V48.5809H227.61V63.2084H174.158V63.2113Z" fill="#FEFEFE"/>
    <path d="M0 63.2113L21.4284 30.3002L1.76341 0.0195312H23.3475L34.507 19.032L45.2285 0.0195312H66.6657L47.2858 30.5912L68.723 63.2113H46.4012L45.4989 62.841L34.3894 44.2223L22.6422 62.8645L21.734 63.2113H0Z" fill="#FEFEFE"/>
    <path d="M400 63.2094H379.442C379.06 63.18 378.822 63.0713 378.725 62.8773L375.774 53.396L355.213 53.3049C354.04 56.4644 352.95 59.6914 351.939 62.9831L351.248 63.2094H331.277L355.198 0L376.368 0.302719L400 63.2094ZM372.1 38.9273L365.637 17.2785L358.593 38.9273H372.103H372.1Z" fill="#FEFEFE"/>
    <path d="M123.935 63.2113V15.8197H103.965V0.0195312H163.142C163.174 0.0195312 163.583 0.428054 163.583 0.457445V15.3759C163.583 15.4082 163.174 15.8138 163.142 15.8138H143.612V63.2054H123.935V63.2113Z" fill="#FEFEFE"/>
    <path d="M240.235 63.2084L240.382 0.0195312H259.471C259.504 0.0195312 259.912 0.428054 259.912 0.457444V47.4112H290.16V63.2084H240.232H240.235Z" fill="#FEFEFE"/>
    <path d="M301.91 63.2113L302.057 0.0195312H321.587V63.2113H301.91Z" fill="#FEFEFE"/>
    <path d="M72.6869 33.0742H97.6509C97.6833 33.0742 98.0918 33.4827 98.0918 33.5121V46.676C98.0918 46.7083 97.6833 47.1139 97.6509 47.1139H72.6869C72.6546 47.1139 72.2461 46.7054 72.2461 46.676V33.5121C72.2461 33.4328 72.59 33.2212 72.6869 33.0742Z" fill="#FEFEFE"/>
</svg>
