<svg xmlns="http://www.w3.org/2000/svg" width="200" height="160" fill="none"><rect width="200" height="160" fill="#fff" rx="4"/><rect width="199" height="159" x=".5" y=".5" stroke="#000" stroke-opacity=".1" rx="3.5"/><g clip-path="url(#a)"><path fill="url(#b)" d="m43.9 70.6 22.8-33.5 15 19.5 5 1.3L107.6 16l4.4 16.8 2.1 42.7h11.3l8.8-26.3c3.5 7.5 7.7 21.1 11.6 35.8h22.8l1.5-7.7 2.7 7.7h10.8l5.4-23.8V85h-5.4l-4.3 19-6.5-19h-4.2l-10.1 52c-2.4-10.2-7.3-32-12.7-52H36v-4l7.9-10.4Z"/><path stroke="url(#c)" stroke-width=".9" d="m36 81 8-10.4 23-33.5 15.2 19.5 5 1.3 21-41.9 4.3 21.1 2 38.4h11l8.7-26.9 11.9 38 12.4 50.4 11.6-59.5 9.7 27.2 2.5-11.5 6.7-31.8"/></g><path fill="#000" fill-opacity=".5" d="M18.3 17v.7h-4v-.4l2.5-4h.5l-.6 1.2L15 17h3.3Zm-.8-3.7V19h-.7v-5.7h.7Zm5.2 2.4v.9c0 .4 0 .8-.2 1.1 0 .4-.2.6-.3.8-.2.2-.4.4-.6.4a2 2 0 0 1-.7.2l-.6-.1c-.2 0-.4-.1-.5-.3-.2 0-.3-.2-.4-.4l-.3-.8v-3l.5-.7c.1-.2.3-.4.5-.4l.8-.2.6.1a1.4 1.4 0 0 1 .8.7l.3.7v1Zm-.8 1v-1.8l-.1-.5a1 1 0 0 0-.3-.3c0-.1-.1-.2-.3-.2a1 1 0 0 0-.3 0 1 1 0 0 0-.5 0l-.3.3-.2.6-.1.8v1.8l.2.5.2.3.3.2h.8c.2 0 .3-.2.4-.3l.2-.6v-.8Zm1.8-2.5c0-.1 0-.3.2-.5l.3-.3.5-.2c.2 0 .4 0 .5.2a1 1 0 0 1 0 1.7 1 1 0 0 1-.5.2 1 1 0 0 1-.5-.2 1 1 0 0 1-.3-.3 1 1 0 0 1-.2-.6Zm.5 0c0 .2 0 .3.2.4l.3.2.4-.2.1-.4-.1-.3-.4-.2c-.1 0-.2 0-.3.2l-.2.3Zm6.2 3h.8c0 .4-.2.7-.3 1-.2.2-.4.5-.7.6-.3.2-.7.3-1.2.3-.3 0-.6 0-.9-.2a2 2 0 0 1-.7-.5l-.4-.9-.2-1v-.6c0-.4 0-.8.2-1.1 0-.3.2-.6.4-.8.2-.3.5-.5.8-.6l.9-.2c.4 0 .8.1 1 .3.4.1.6.4.8.6l.3 1h-.8a2 2 0 0 0-.2-.6 1 1 0 0 0-.4-.5l-.7-.1-.7.1c-.2 0-.3.2-.4.4a2 2 0 0 0-.3.6l-.1.9v1.3l.3.7.5.4.6.2c.4 0 .6 0 .8-.2.2 0 .3-.2.4-.4l.2-.7ZM15.5 33h.5l.7-.2.3-.3.2-.5-.1-.6-.4-.3-.5-.1h-.6a.9.9 0 0 0-.5 1h-.7c0-.3 0-.6.2-.8.2-.3.4-.5.7-.6a2 2 0 0 1 .9-.2c.3 0 .6 0 .9.2.2 0 .4.3.6.5l.2.9-.1.4c0 .2-.2.4-.3.5-.2.1-.3.3-.6.3l-.8.2h-.6v-.5Zm0 .5v-.4h.6l1 .1.5.4.3.4V35.3l-.4.5-.6.3-.7.1h-.7l-.6-.4a1.4 1.4 0 0 1-.5-1.2h.7l.1.6.4.3.6.1h.5l.4-.4.1-.6-.1-.6a.9.9 0 0 0-.4-.3l-.7-.2h-.5Zm7.2-.7v1c0 .4 0 .8-.2 1 0 .4-.2.7-.3.9l-.6.4a2 2 0 0 1-.7.1h-.6l-.5-.3-.4-.5-.3-.7v-3l.5-.8.5-.4.8-.1h.6a1.4 1.4 0 0 1 .8.8l.3.7v1Zm-.8 1v-1.7l-.1-.5a1 1 0 0 0-.3-.4l-.3-.2a1 1 0 0 0-.3 0 1 1 0 0 0-.5 0l-.3.4-.2.5-.1.8v1.8l.2.5.2.4.3.2h.8l.4-.4.2-.5v-.9Zm1.8-2.4c0-.2 0-.4.2-.5 0-.2.2-.3.3-.4l.5-.1.5.1a1 1 0 0 1 0 1.8 1 1 0 0 1-.5 0 1 1 0 0 1-.5 0 1 1 0 0 1-.3-.4 1 1 0 0 1-.2-.5Zm.5 0c0 .1 0 .3.2.3l.3.2c.2 0 .3 0 .4-.2l.1-.3-.1-.4-.4-.1-.3.1-.2.4Zm6.2 3h.8l-.3.9-.7.7-1.2.2c-.3 0-.6 0-.9-.2a2 2 0 0 1-.7-.5l-.4-.8-.2-1.1V33c0-.4 0-.7.2-1 0-.4.2-.7.4-.9l.8-.5c.2-.2.5-.2.9-.2s.8 0 1 .2c.4.2.6.4.8.7.1.3.3.6.3 1h-.8a2 2 0 0 0-.2-.7 1 1 0 0 0-.4-.4c-.2-.2-.4-.2-.7-.2l-.7.1-.4.4a2 2 0 0 0-.3.7l-.1.8v1.4l.3.6.5.5.6.1.8-.1.4-.5.2-.7ZM18.2 52.7v.6h-3.7v-.5l1.8-2.1.6-.7.2-.4.1-.5-.1-.5-.3-.3a1 1 0 0 0-.6-.2c-.2 0-.4 0-.6.2a1 1 0 0 0-.4.4l-.1.6h-.7c0-.4 0-.6.2-1 .1-.2.3-.4.6-.5a2 2 0 0 1 1-.3c.4 0 .7 0 1 .2l.5.5c.2.3.2.5.2.8v.5l-.3.6a7.8 7.8 0 0 1-.8 1l-1.5 1.6h2.9Zm4.5-2.7v.9c0 .4 0 .8-.2 1.1 0 .4-.2.6-.3.8l-.6.4a2 2 0 0 1-.7.2l-.6-.1c-.2 0-.4-.2-.5-.3l-.4-.5-.3-.7v-3c.2-.3.3-.6.5-.7l.5-.5h1.4a1.4 1.4 0 0 1 .8.7l.3.7v1Zm-.8 1v-1.8l-.1-.5a1 1 0 0 0-.3-.3c0-.1-.1-.2-.3-.2a1 1 0 0 0-.3 0 1 1 0 0 0-.5 0l-.3.3-.2.6-.1.8v1.7l.2.6.2.3.3.2h.8l.4-.3.2-.6V51Zm1.8-2.5c0-.2 0-.3.2-.5l.3-.3.5-.2c.2 0 .4 0 .5.2a1 1 0 0 1 0 1.7 1 1 0 0 1-.5.1 1 1 0 0 1-.5-.1 1 1 0 0 1-.3-.4 1 1 0 0 1-.2-.5Zm.5 0c0 .2 0 .3.2.4l.3.1.4-.1.1-.4-.1-.3-.4-.2a.5.5 0 0 0-.5.5Zm6.2 3h.8l-.3 1c-.2.2-.4.5-.7.6-.3.2-.7.3-1.2.3l-.9-.2a2 2 0 0 1-.7-.6l-.4-.8-.2-1v-.6c0-.4 0-.8.2-1.1 0-.3.2-.6.4-.9l.8-.5.9-.2c.4 0 .8.1 1 .3.4.1.6.3.8.6.1.3.3.6.3 1h-.8a2 2 0 0 0-.2-.7 1 1 0 0 0-.4-.4l-.7-.2c-.3 0-.5 0-.7.2-.2 0-.3.2-.4.4a2 2 0 0 0-.3.6l-.1.9v1.3l.3.7.5.4.6.2.8-.2.4-.4.2-.7ZM16.8 64.7v5.7h-.7v-4.8l-1.4.5v-.6l2-.8h.1Zm5.9 2.4v.9c0 .5 0 .9-.2 1.2 0 .3-.2.6-.3.8l-.6.4a2 2 0 0 1-.7.1h-.6l-.5-.3-.4-.5-.3-.7v-3l.5-.8.5-.4.8-.1h.6a1.4 1.4 0 0 1 .8.8l.3.7v1Zm-.8 1v-1.8l-.1-.5a1 1 0 0 0-.3-.3l-.3-.2a1 1 0 0 0-.3 0 1 1 0 0 0-.5 0l-.3.4-.2.5-.1.8v1.8l.2.5.2.3.3.3h.8l.4-.4.2-.6v-.8Zm1.8-2.4c0-.2 0-.4.2-.5 0-.2.2-.3.3-.4l.5-.1.5.1a1 1 0 0 1 0 1.7 1 1 0 0 1-.5.2 1 1 0 0 1-.5-.2 1 1 0 0 1-.3-.3 1 1 0 0 1-.2-.5Zm.5 0c0 .1 0 .2.2.3l.3.2c.2 0 .3 0 .4-.2l.1-.3-.1-.4-.4-.1-.3.1-.2.4Zm6.2 3h.8l-.3.9-.7.7-1.2.2c-.3 0-.6 0-.9-.2a2 2 0 0 1-.7-.5L27 69l-.2-1.1v-.6c0-.4 0-.8.2-1 0-.4.2-.7.4-1l.8-.4c.2-.2.5-.2.9-.2s.8 0 1 .2c.4.2.6.4.8.7.1.3.3.6.3 1h-.8a2 2 0 0 0-.2-.7 1 1 0 0 0-.4-.5l-.7-.1-.7.1-.4.4a2 2 0 0 0-.3.7l-.1.8v1.4l.3.6.5.4.6.2c.4 0 .6 0 .8-.2.2 0 .3-.2.4-.4l.2-.7ZM23 84.3v2l-.4.8-.6.4a2 2 0 0 1-.8.1h-.6l-.5-.3-.3-.5-.3-.7v-3l.4-.8.6-.4h1.4a1.4 1.4 0 0 1 .8.7l.3.7v1Zm-.7 1v-1.8L22 83a1 1 0 0 0-.2-.4l-.3-.1a1 1 0 0 0-.4-.1 1 1 0 0 0-.4 0l-.4.4-.2.5V86l.2.5c0 .2 0 .3.2.4l.3.2h.8c.1-.1.3-.2.3-.4l.3-.5v-.8Zm1.8-2.5c0-.2 0-.3.2-.5l.3-.4.5-.1.5.1a1 1 0 0 1 0 1.8 1 1 0 0 1-.5.1 1 1 0 0 1-.5-.1 1 1 0 0 1-.3-.4 1 1 0 0 1-.2-.5Zm.5 0c0 .2 0 .3.2.4l.3.1.4-.1.1-.4-.1-.3-.4-.2a.5.5 0 0 0-.5.5Zm6.2 3h.8l-.3 1-.7.6c-.3.2-.7.2-1.2.2l-.9-.1a2 2 0 0 1-.7-.6l-.4-.8c-.2-.3-.2-.7-.2-1v-.7c0-.4 0-.7.2-1 0-.4.2-.6.4-.9l.7-.5 1-.2c.4 0 .8 0 1 .2.4.2.6.4.8.7l.3 1h-.8a2 2 0 0 0-.2-.7 1 1 0 0 0-.4-.4l-.7-.2c-.3 0-.5 0-.7.2-.2 0-.3.2-.5.4a2 2 0 0 0-.3.6v2.2l.3.6.5.5.6.1.8-.1.4-.5.2-.6ZM14 102v.6h-1.9v-.6h2Zm3.2-3v5.7h-.7V100l-1.5.5v-.6l2-.8h.2Zm5.8 2.4v.9l-.1 1.2-.4.7c-.2.2-.3.4-.6.5a2 2 0 0 1-.7 0h-.6c-.2 0-.4-.1-.5-.3-.2 0-.3-.2-.4-.4l-.2-.7-.1-1v-.9l.1-1.2.4-.7.5-.4.8-.2.6.1a1.4 1.4 0 0 1 .9.7l.2.7v1Zm-.7 1v-1.8l-.2-.5a1 1 0 0 0-.2-.3l-.3-.2a1 1 0 0 0-.4 0 1 1 0 0 0-.5 0l-.3.3-.2.6v2.6l.1.5.2.3.3.2.4.1.5-.1.3-.3.2-.6v-.8ZM24 100l.1-.5.4-.4.5-.2c.2 0 .3 0 .5.2a1 1 0 0 1 0 1.7 1 1 0 0 1-.5.2 1 1 0 0 1-.5-.2 1 1 0 0 1-.4-.3 1 1 0 0 1-.1-.5Zm.5 0 .1.3.4.2c.1 0 .2 0 .3-.2l.2-.3c0-.2 0-.3-.2-.4l-.3-.2c-.2 0-.3 0-.4.2l-.1.4Zm6.2 3h.7l-.3.9c-.2.3-.4.5-.7.6-.3.2-.7.3-1.1.3-.4 0-.7 0-1-.2a2 2 0 0 1-.6-.5c-.2-.3-.4-.5-.5-.9l-.2-1v-.6l.2-1 .5-1 .7-.5 1-.2c.4 0 .7.1 1 .3l.7.7c.2.2.3.6.3 1h-.7a2 2 0 0 0-.2-.7 1 1 0 0 0-.5-.5l-.7-.1-.6.1-.5.4a2 2 0 0 0-.3.7l-.1.8V102.9l.3.7.5.4.7.2c.3 0 .5 0 .7-.2.2 0 .4-.2.5-.4l.2-.7ZM14 119.1v.6h-1.9v-.6h2Zm4.5 2.2v.6h-3.7v-.6l1.9-2 .5-.7.3-.5v-.9l-.4-.4a1 1 0 0 0-.5-.1l-.7.1a1 1 0 0 0-.4.4v.6h-.8c0-.3 0-.6.2-.8.1-.3.4-.5.6-.7a2 2 0 0 1 1-.2c.4 0 .7 0 1 .2l.6.5.2.8-.1.5c0 .2-.2.4-.3.5a7.8 7.8 0 0 1-.8 1l-1.4 1.7h2.8Zm4.5-2.7v.8l-.1 1.2-.4.8-.6.4a2 2 0 0 1-.7.1h-.6l-.5-.3-.4-.5-.2-.7-.1-1v-.8l.1-1.2.4-.8.5-.4.8-.1h.6a1.4 1.4 0 0 1 .9.8l.2.7v1Zm-.7 1V117.7l-.2-.5a1 1 0 0 0-.2-.4l-.3-.2a1 1 0 0 0-.4 0 1 1 0 0 0-.5 0l-.3.4-.2.5v2.6l.1.5.2.4.3.2h.9l.3-.4.2-.5v-.9ZM24 117l.1-.5.4-.4a1 1 0 0 1 1 0 1 1 0 0 1 0 1.8 1 1 0 0 1-.5.1 1 1 0 0 1-.5-.1 1 1 0 0 1-.4-.4 1 1 0 0 1-.1-.5Zm.5 0 .1.4.4.1.3-.1.2-.4c0-.1 0-.3-.2-.4l-.3-.1-.4.1-.1.4Zm6.2 3h.7l-.3 1-.7.6c-.3.2-.7.2-1.1.2-.4 0-.7 0-1-.2a2 2 0 0 1-.6-.5l-.5-.8-.2-1.1v-.6l.2-1c.1-.4.3-.7.5-.9l.7-.5 1-.2c.4 0 .7 0 1 .2l.7.7c.2.3.3.6.3 1h-.7a2 2 0 0 0-.2-.7 1 1 0 0 0-.5-.4l-.7-.2c-.2 0-.4 0-.6.2-.2 0-.4.2-.5.4a2 2 0 0 0-.3.6l-.1.8v1.4l.3.6.5.5.7.1.7-.1.5-.5.2-.7ZM14 136.3v.6h-1.9v-.6h2Zm1.9-.5h.5l.6-.1.4-.4v-1c0-.2-.2-.3-.3-.4H16l-.4.4-.1.5h-.8c0-.3.1-.6.3-.8l.6-.6a2 2 0 0 1 .9-.2l.9.2c.3.1.5.3.6.6l.2.8v.5l-.4.5-.5.3-.8.1h-.6v-.4Zm0 .6v-.4h1.5l.5.4c.2.2.3.3.3.5l.1.5-.1.7-.4.5-.6.4h-1.4l-.6-.3a1.4 1.4 0 0 1-.5-1.2h.7c0 .2 0 .4.2.5 0 .2.2.3.3.4h1.2c.1-.1.3-.2.3-.4l.2-.6c0-.2 0-.4-.2-.6a.9.9 0 0 0-.4-.3l-.6-.1h-.5Zm7-.7v2.1l-.4.7c-.2.2-.3.4-.6.4a2 2 0 0 1-.7.2l-.6-.1c-.2 0-.4-.1-.5-.3-.2 0-.3-.2-.4-.4l-.2-.8-.1-1v-.8l.1-1.2.4-.7c.1-.2.3-.4.5-.4l.8-.2.6.1a1.4 1.4 0 0 1 .9.7l.2.7v1Zm-.6 1v-1.8l-.2-.5a1 1 0 0 0-.2-.3l-.3-.2a1 1 0 0 0-.4 0 1 1 0 0 0-.5 0l-.3.3-.2.6v2.6l.1.5.2.3.3.2h.9l.3-.3.2-.6v-.8Zm1.8-2.5.1-.5.4-.3.5-.2c.2 0 .3 0 .5.2a1 1 0 0 1 0 1.7 1 1 0 0 1-.5.2 1 1 0 0 1-.5-.2 1 1 0 0 1-.4-.3 1 1 0 0 1-.1-.6Zm.5 0 .1.4.4.2.3-.2.2-.4a.5.5 0 0 0-.5-.5c-.2 0-.3 0-.4.2l-.1.3Zm6.2 3h.7c0 .4-.1.7-.3 1-.2.2-.4.5-.7.6-.3.2-.7.3-1.1.3-.4 0-.7 0-1-.2a2 2 0 0 1-.6-.5l-.5-.9-.2-1v-.6l.2-1.1.5-.8c.2-.3.4-.5.7-.6l1-.2c.4 0 .7.1 1 .3.3.1.5.4.7.6.2.3.3.7.3 1h-.7a2 2 0 0 0-.2-.6 1 1 0 0 0-.5-.5l-.7-.1-.6.1c-.2 0-.4.2-.5.4a2 2 0 0 0-.3.6l-.1.9v1.3l.3.7.5.4.7.2c.3 0 .5 0 .7-.2.2 0 .4-.2.5-.4l.2-.7ZM40.8 141.3v5.7h-.7v-4.8l-1.5.5v-.6l2.1-.8h.1Zm4.5 0v5.7h-.7v-4.8l-1.5.5v-.6l2.1-.8h.1Zm8.7 0v5.7h-.8l-2.8-4.4v4.4h-.8v-5.7h.8l2.8 4.4v-4.4h.8Zm1 3.6c0-.4 0-.6.2-.9 0-.3.2-.5.3-.7l.6-.4c.3-.2.5-.2.8-.2.3 0 .6 0 .8.2.3 0 .5.2.6.4l.4.7.2.8v.1c0 .3 0 .6-.2.9l-.4.7a1.8 1.8 0 0 1-1.4.6 1.8 1.8 0 0 1-1.8-1.3v-.9Zm.7 0 .1.6.2.5.4.4h1.1l.3-.4.3-.5v-1.2c0-.2-.2-.4-.3-.5a1 1 0 0 0-.9-.5 1 1 0 0 0-.5.1l-.4.4-.2.5v.5Zm5.3 1.4 1.2-3.5h.7l-1.5 4.2h-.5l.1-.7Zm-1-3.5 1.2 3.6.1.6h-.5l-1.5-4.2h.7ZM69 141.3v5.7h-.7v-4.8l-1.4.5v-.6l2-.8h.2Zm6 5.1v.6h-3.8v-.5l1.9-2 .5-.7.3-.5v-1l-.4-.3a1 1 0 0 0-.6-.2c-.2 0-.4 0-.6.2a1 1 0 0 0-.4.4l-.1.6h-.7c0-.3 0-.6.2-.9.1-.3.3-.5.6-.6a2 2 0 0 1 1-.3l1 .2c.2.2.4.3.5.6.2.2.3.4.3.8l-.1.5-.3.5a7.8 7.8 0 0 1-.8 1l-1.4 1.6h2.8Zm7.2-5v5.6h-.7l-2.9-4.4v4.4H78v-5.7h.7l2.9 4.4v-4.4h.7Zm1 3.5.2-.9c0-.3.2-.5.4-.7l.6-.4c.2-.2.5-.2.8-.2.3 0 .6 0 .8.2.2 0 .4.2.6.4l.4.7.1.8v.1l-.1.9-.4.7a1.8 1.8 0 0 1-1.4.6 1.8 1.8 0 0 1-1.8-1.3l-.1-.9Zm.8 0v.6l.3.5c0 .2.2.3.4.4h1l.4-.4.2-.5v-1.2l-.2-.5a1 1 0 0 0-.9-.5 1 1 0 0 0-.5.1l-.4.4-.2.5-.1.5Zm5.2 1.4 1.2-3.5h.7l-1.5 4.2h-.5l.1-.7Zm-1-3.5 1.3 3.6v.6h-.4l-1.6-4.2h.8ZM97.3 141.3v5.7h-.7v-4.8l-1.5.5v-.6l2.1-.8h.1Zm3.2 2.5h.5l.6-.1.4-.4.1-.5v-.5l-.4-.4h-1.1a.9.9 0 0 0-.5.9h-.7c0-.3 0-.6.2-.8l.6-.6a2 2 0 0 1 1-.2l.8.2c.3.1.5.3.6.6.2.2.3.5.3.8l-.1.5-.4.5-.5.3-.8.1h-.6v-.4Zm0 .6v-.4h1.6l.5.4.3.5v1.2l-.5.5-.5.4h-1.5l-.5-.3a1.4 1.4 0 0 1-.6-1.2h.8v.5l.5.4h1.1l.4-.4.1-.6-.1-.6a.9.9 0 0 0-.5-.3l-.6-.1h-.5Zm10-3v5.6h-.8l-2.8-4.4v4.4h-.8v-5.7h.8l2.8 4.4v-4.4h.8Zm1 3.5c0-.4 0-.6.2-.9 0-.3.2-.5.3-.7l.6-.4c.3-.2.5-.2.8-.2.3 0 .6 0 .8.2.3 0 .5.2.6.4l.4.7.2.8v.1c0 .3 0 .6-.2.9l-.4.7a1.8 1.8 0 0 1-1.4.6 1.8 1.8 0 0 1-1.8-1.3v-.9Zm.7 0 .1.6.2.5.4.4h1.1l.3-.4.3-.5v-1.2c0-.2-.2-.4-.3-.5a1 1 0 0 0-.9-.5 1 1 0 0 0-.5.1l-.4.4-.2.5v.5Zm5.3 1.4 1.2-3.5h.7l-1.5 4.2h-.5l.1-.7Zm-1-3.5 1.2 3.6.1.6h-.5l-1.5-4.2h.7ZM125.6 141.3v5.7h-.8v-4.8l-1.4.5v-.6l2-.8h.2Zm6 3.8v.6h-4.2v-.4l2.6-4h.6l-.7 1.2-1.7 2.6h3.3Zm-.9-3.8v5.7h-.7v-5.7h.7Zm8 0v5.7h-.7l-2.9-4.4v4.4h-.7v-5.7h.7l2.9 4.4v-4.4h.7Zm1 3.6.2-.9c0-.3.2-.5.4-.7l.6-.4c.2-.2.5-.2.8-.2.3 0 .6 0 .8.2.2 0 .4.2.6.4l.4.7.1.8v.1l-.1.9-.4.7a1.8 1.8 0 0 1-1.4.6 1.8 1.8 0 0 1-1.8-1.3l-.1-.9Zm.8 0v.6l.3.5c0 .2.2.3.4.4h1l.4-.4.2-.5v-1.2l-.2-.5a1 1 0 0 0-.9-.5 1 1 0 0 0-.5.1l-.4.4-.2.5-.1.5Zm5.2 1.4 1.2-3.5h.7l-1.5 4.2h-.5l.1-.7Zm-1-3.5 1.3 3.6v.6h-.4l-1.6-4.2h.8ZM153.8 141.3v5.7h-.7v-4.8l-1.5.5v-.6l2.1-.8h.1Zm3 3-.5-.2.3-2.8h2.9v.7h-2.3l-.2 1.5.4-.1.5-.1.8.1.5.4.3.6a2.5 2.5 0 0 1 0 1.5c0 .3-.2.5-.3.6-.1.2-.3.3-.6.4a2 2 0 0 1-.8.2l-.6-.1-.6-.3-.3-.5a2 2 0 0 1-.2-.7h.7l.1.5.4.4h1l.3-.3.2-.4a1.8 1.8 0 0 0 0-1c0-.2 0-.3-.2-.4a1 1 0 0 0-.3-.3h-1.1l-.3.3Zm10.2-3v5.7h-.8l-2.8-4.4v4.4h-.8v-5.7h.8l2.8 4.4v-4.4h.8Zm1 3.6c0-.4 0-.6.2-.9 0-.3.2-.5.3-.7l.6-.4c.3-.2.5-.2.8-.2.3 0 .6 0 .8.2.3 0 .5.2.6.4l.4.7.2.8v.1c0 .3 0 .6-.2.9l-.4.7a1.8 1.8 0 0 1-1.4.6 1.8 1.8 0 0 1-1.8-1.3v-.9Zm.7 0 .1.6.2.5.4.4h1.1l.3-.4.3-.5v-1.2c0-.2-.2-.4-.3-.5a1 1 0 0 0-.9-.5 1 1 0 0 0-.5.1l-.4.4-.2.5v.5Zm5.3 1.4 1.2-3.5h.7l-1.5 4.2h-.5l.1-.7Zm-1-3.5 1.2 3.6.1.6h-.5l-1.5-4.2h.7Z"/><path stroke="#000" stroke-opacity=".5" stroke-width=".4" d="M36 16h152M36 33.3h152M36 50.6h152M36 67.9h152M36 85.1h152M36 102.4h152M36 119.7h152M36 137h152"/><defs><linearGradient id="b" x1="108.4" x2="108.6" y1="137.5" y2="-4.1" gradientUnits="userSpaceOnUse"><stop offset=".1" stop-color="#4063CC"/><stop offset=".1" stop-color="#6085F0"/><stop offset=".4" stop-color="#6085F0"/><stop offset=".4" stop-color="#89A4F7"/><stop offset=".5" stop-color="#89A4F7"/><stop offset=".5" stop-color="#FFB641"/><stop offset=".6" stop-color="#FFB641"/><stop offset=".6" stop-color="#FB872E"/><stop offset=".7" stop-color="#FB872E"/><stop offset=".7" stop-color="#F55438"/></linearGradient><linearGradient id="c" x1="108.4" x2="107.9" y1="137" y2="-4.1" gradientUnits="userSpaceOnUse"><stop offset=".1" stop-color="#224AC2"/><stop offset=".1" stop-color="#2B54CE"/><stop offset=".4" stop-color="#2B54CE"/><stop offset=".4" stop-color="#6083EC"/><stop offset=".5" stop-color="#6083EC"/><stop offset=".5" stop-color="#F89E0D"/><stop offset=".6" stop-color="#F89E0D"/><stop offset=".6" stop-color="#F77410"/><stop offset=".7" stop-color="#F77410"/><stop offset=".7" stop-color="#F04022"/></linearGradient><clipPath id="a"><path fill="#fff" d="M36 16h152v121H36z"/></clipPath></defs></svg>