<svg width="262" height="308" viewBox="0 0 246 308" fill="none" xmlns="http://www.w3.org/2000/svg">
<path fill-rule="evenodd" clip-rule="evenodd" d="M42.4334 94H0V95.5H42.4334V94Z" fill="#3E9AF8"/>
<path d="M42 94C42 108.445 44.8452 122.749 50.3732 136.095C55.9013 149.441 64.0038 161.567 74.2183 171.782C84.4327 181.996 96.559 190.099 109.905 195.627C123.251 201.155 137.555 204 152 204V202.501C137.751 202.501 123.642 199.695 110.478 194.242C97.3144 188.789 85.3533 180.797 75.2781 170.722C65.2028 160.647 57.2107 148.686 51.758 135.522C46.3053 122.358 43.4988 108.249 43.4988 94H42Z" fill="#3E9AF8"/>
<path fill-rule="evenodd" clip-rule="evenodd" d="M151.5 202.5L151.5 284.5L153 284.5L153 202.5L151.5 202.5Z" fill="#3E9AF8"/>
<path d="M164 296C164 289.373 158.627 284 152 284C145.373 284 140 289.373 140 296C140 302.627 145.373 308 152 308C158.627 308 164 302.627 164 296Z" fill="#F4F8FE"/>
<path fill-rule="evenodd" clip-rule="evenodd" d="M152 285.5C157.799 285.5 162.5 290.201 162.5 296C162.5 301.799 157.799 306.5 152 306.5C146.201 306.5 141.5 301.799 141.5 296C141.5 290.201 146.201 285.5 152 285.5ZM152 284C158.627 284 164 289.373 164 296C164 302.627 158.627 308 152 308C145.373 308 140 302.627 140 296C140 289.373 145.373 284 152 284Z" fill="#3E9AF8"/>
<rect x="0.75" y="-0.75" width="186.5" height="186.5" rx="93.25" transform="matrix(1 0 0 -1 58 186.5)" stroke="#3E9AF8" stroke-width="1.5"/>
<path d="M163 92H168" stroke="#3E9AF8" stroke-width="4" stroke-linecap="round"/>
<path d="M181 100H187" stroke="#3E9AF8" stroke-width="4" stroke-linecap="round"/>
<path d="M181 112H187" stroke="#3E9AF8" stroke-width="4" stroke-linecap="round"/>
<path d="M117 100H123" stroke="#3E9AF8" stroke-width="4" stroke-linecap="round"/>
<path d="M117 112H123" stroke="#3E9AF8" stroke-width="4" stroke-linecap="round"/>
<path d="M150 92H155" stroke="#3E9AF8" stroke-width="4" stroke-linecap="round"/>
<path d="M137 92H142" stroke="#3E9AF8" stroke-width="4" stroke-linecap="round"/>
<path d="M111 88V137C111 137.552 111.448 138 112 138H136M175 86H192C192.552 86 193 86.4477 193 87V137C193 137.552 192.552 138 192 138H168M136 138V110.053C136 109.501 136.448 109.053 137 109.053H151.75M136 138H152M168 138V110.053C168 109.501 167.552 109.053 167 109.053H151.75M168 138H152M151.75 109.053L152 138" stroke="#3E9AF8" stroke-width="4" stroke-linecap="round"/>
<path d="M175 65H179.5M175 65H129M175 65V86M175 136.5V86M124.5 65H129M129 65V86M129 136.5V86M129 86H108M175 86H196" stroke="#3E9AF8" stroke-width="4" stroke-linecap="round"/>
<rect x="131" y="49" width="42" height="32" fill="#F3F3F3"/>
<circle cx="169" cy="72" r="2" fill="#3E9AF8"/>
<path d="M139.4 59.9824V69.974C139.4 70.2455 139.508 70.5056 139.71 70.6873C143.483 74.0843 152.716 78.3935 162.236 70.6989C162.466 70.5132 162.6 70.2283 162.6 69.9329V59.722M169 56.9443V65M169 56.9443L151.314 51.1036C151.11 51.0363 150.89 51.0363 150.686 51.1036L135.491 56.1217C134.618 56.4098 134.564 57.6229 135.406 57.9886L150.602 64.5838C150.856 64.694 151.144 64.694 151.398 64.5838L169 56.9443Z" stroke="#3E9AF8" stroke-width="4" stroke-linecap="round"/>
</svg>
