<svg width="273" height="232" viewBox="0 0 273 232" fill="none" xmlns="http://www.w3.org/2000/svg">
<g clip-path="url(#clip0_13194_6280)">
<path fill-rule="evenodd" clip-rule="evenodd" d="M189.538 38.4677V0.884766L188.209 0.884766V38.4677H189.538Z" fill="#3E9AF8"/>
<path d="M189.538 38.0838C176.744 38.0838 164.075 40.6038 152.255 45.4999C140.434 50.396 129.694 57.5723 120.647 66.6192C111.6 75.666 104.424 86.4062 99.528 98.2265C94.6318 110.047 92.1119 122.716 92.1119 135.51H93.4394C93.4394 122.89 95.925 110.394 100.754 98.7345C105.584 87.0753 112.662 76.4814 121.586 67.5579C130.51 58.6343 141.103 51.5557 152.763 46.7263C164.422 41.8969 176.918 39.4113 189.538 39.4113V38.0838Z" fill="#3E9AF8"/>
<path fill-rule="evenodd" clip-rule="evenodd" d="M93.4404 135.067L20.8138 135.067L20.8138 136.395L93.4404 136.396L93.4404 135.067Z" fill="#3E9AF8"/>
<path d="M10.6283 146.138C16.4981 146.138 21.2566 141.379 21.2566 135.51C21.2566 129.64 16.4981 124.881 10.6283 124.881C4.75845 124.881 0 129.64 0 135.51C0 141.379 4.75845 146.138 10.6283 146.138Z" fill="#F4F8FE"/>
<path fill-rule="evenodd" clip-rule="evenodd" d="M19.928 135.51C19.928 140.646 15.7644 144.809 10.6283 144.809C5.49218 144.809 1.32854 140.646 1.32854 135.51C1.32854 130.374 5.49218 126.21 10.6283 126.21C15.7644 126.21 19.928 130.374 19.928 135.51ZM21.2566 135.51C21.2566 141.379 16.4981 146.138 10.6283 146.138C4.75845 146.138 0 141.379 0 135.51C0 129.64 4.75845 124.881 10.6283 124.881C16.4981 124.881 21.2566 129.64 21.2566 135.51Z" fill="#3E9AF8"/>
<rect x="0.664268" y="0.664268" width="165.178" height="165.178" rx="82.5889" transform="matrix(0 1 1 0 106.283 52.2549)" stroke="#3E9AF8" stroke-width="1.32854"/>
<g clip-path="url(#clip1_13194_6280)">
<path d="M199.278 133.737H203.707" stroke="#3E9AF8" stroke-width="3.54261" stroke-linecap="round"/>
<path d="M215.22 140.822H220.534" stroke="#3E9AF8" stroke-width="3.54261" stroke-linecap="round"/>
<path d="M215.22 151.45H220.534" stroke="#3E9AF8" stroke-width="3.54261" stroke-linecap="round"/>
<path d="M158.538 140.822H163.852" stroke="#3E9AF8" stroke-width="3.54261" stroke-linecap="round"/>
<path d="M158.538 151.45H163.852" stroke="#3E9AF8" stroke-width="3.54261" stroke-linecap="round"/>
<path d="M187.765 133.737H192.193" stroke="#3E9AF8" stroke-width="3.54261" stroke-linecap="round"/>
<path d="M176.251 133.737H180.68" stroke="#3E9AF8" stroke-width="3.54261" stroke-linecap="round"/>
<path d="M153.224 130.194V173.591C153.224 174.08 153.621 174.477 154.11 174.477H175.366M209.906 128.423H224.962C225.451 128.423 225.848 128.819 225.848 129.309V173.591C225.848 174.08 225.451 174.477 224.962 174.477H203.707M175.366 174.477V149.726C175.366 149.236 175.762 148.84 176.251 148.84H189.315M175.366 174.477H189.536M203.707 174.477V149.726C203.707 149.236 203.31 148.84 202.821 148.84H189.315M203.707 174.477H189.536M189.315 148.84L189.536 174.477" stroke="#3E9AF8" stroke-width="3.54261" stroke-linecap="round"/>
<path d="M209.906 109.824H213.892M209.906 109.824H169.166M209.906 109.824V128.423M209.906 173.148V128.423M165.181 109.824H169.166M169.166 109.824V128.423M169.166 173.148V128.423M169.166 128.423H150.567M209.906 128.423H228.505" stroke="#3E9AF8" stroke-width="3.54261" stroke-linecap="round"/>
<rect x="170.937" y="95.6538" width="37.1974" height="28.3409" fill="#F3F3F3"/>
<circle cx="204.592" cy="116.024" r="1.7713" fill="#3E9AF8"/>
<path d="M178.377 105.38V114.229C178.377 114.47 178.472 114.7 178.651 114.861C181.993 117.869 190.17 121.686 198.601 114.871C198.805 114.707 198.924 114.454 198.924 114.193V105.149M204.592 102.689V109.824M204.592 102.689L188.928 97.5165C188.748 97.457 188.553 97.457 188.373 97.5165L174.915 101.961C174.142 102.216 174.093 103.29 174.84 103.614L188.298 109.455C188.523 109.553 188.778 109.553 189.003 109.455L204.592 102.689Z" stroke="#3E9AF8" stroke-width="3.54261" stroke-linecap="round"/>
</g>
</g>
<defs>
<clipPath id="clip0_13194_6280">
<rect width="232" height="273" fill="white" transform="matrix(0 1 1 0 0 0)"/>
</clipPath>
<clipPath id="clip1_13194_6280">
<rect width="81.48" height="81.48" fill="white" transform="translate(148.796 94.7681)"/>
</clipPath>
</defs>
</svg>
