<svg width="273" height="232" viewBox="0 0 273 232" fill="none" xmlns="http://www.w3.org/2000/svg">
<g clip-path="url(#clip0_13194_6251)">
<path fill-rule="evenodd" clip-rule="evenodd" d="M189.538 38.4677V0.884766L188.209 0.884766V38.4677H189.538Z" fill="#3E9AF8"/>
<path d="M189.538 38.0838C176.744 38.0838 164.075 40.6038 152.255 45.4999C140.434 50.396 129.694 57.5723 120.647 66.6192C111.6 75.666 104.424 86.4062 99.528 98.2265C94.6318 110.047 92.1119 122.716 92.1119 135.51H93.4394C93.4394 122.89 95.925 110.394 100.754 98.7345C105.584 87.0753 112.662 76.4814 121.586 67.5579C130.51 58.6343 141.103 51.5557 152.763 46.7263C164.422 41.8969 176.918 39.4113 189.538 39.4113V38.0838Z" fill="#3E9AF8"/>
<path fill-rule="evenodd" clip-rule="evenodd" d="M93.4404 135.067L20.8138 135.067L20.8138 136.395L93.4404 136.396L93.4404 135.067Z" fill="#3E9AF8"/>
<path d="M10.6283 146.138C16.4981 146.138 21.2566 141.379 21.2566 135.51C21.2566 129.64 16.4981 124.881 10.6283 124.881C4.75845 124.881 0 129.64 0 135.51C0 141.379 4.75845 146.138 10.6283 146.138Z" fill="#F4F8FE"/>
<path fill-rule="evenodd" clip-rule="evenodd" d="M19.928 135.51C19.928 140.646 15.7644 144.809 10.6283 144.809C5.49218 144.809 1.32854 140.646 1.32854 135.51C1.32854 130.374 5.49218 126.21 10.6283 126.21C15.7644 126.21 19.928 130.374 19.928 135.51ZM21.2566 135.51C21.2566 141.379 16.4981 146.138 10.6283 146.138C4.75845 146.138 0 141.379 0 135.51C0 129.64 4.75845 124.881 10.6283 124.881C16.4981 124.881 21.2566 129.64 21.2566 135.51Z" fill="#3E9AF8"/>
<rect x="0.664268" y="0.664268" width="165.178" height="165.178" rx="82.5889" transform="matrix(0 1 1 0 106.283 52.2549)" stroke="#3E9AF8" stroke-width="1.32854"/>
<g clip-path="url(#clip1_13194_6251)">
<path d="M199.699 127.888C195.985 128.821 192.66 130.904 190.201 133.84C187.742 136.776 186.275 140.415 186.008 144.235C185.742 148.056 186.691 151.862 188.719 155.111C190.747 158.36 193.75 160.884 197.299 162.323C200.848 163.762 204.761 164.042 208.479 163.122C212.197 162.203 215.529 160.131 217.998 157.204C220.467 154.277 221.948 150.643 222.228 146.824C222.332 145.403 222.268 143.984 222.042 142.593" stroke="#3E9AF8" stroke-width="3.54261" stroke-linecap="round"/>
<path d="M209.111 128.088C211.628 128.817 213.943 130.078 215.907 131.769" stroke="#3E9AF8" stroke-width="3.54261" stroke-linecap="round"/>
<path d="M154.11 174.477H165.624M224.962 174.477H174.48M165.624 174.477H174.48M165.624 174.477V139.051V104.953C165.624 104.709 165.822 104.51 166.066 104.51L174.037 104.51C174.282 104.51 174.48 104.709 174.48 104.953V136.394M174.48 174.477V150.564M159.645 122.113L221.42 122.223M197.507 113.367H200.164M211.677 113.367H209.021M200.164 113.367V127.648M200.164 113.367H209.021M209.021 113.367V127.648" stroke="#3E9AF8" stroke-width="3.54261" stroke-linecap="round"/>
<path d="M176.251 143.479C176.251 144.457 175.458 145.25 174.48 145.25C173.502 145.25 172.709 144.457 172.709 143.479C172.709 142.501 173.502 141.708 174.48 141.708C175.458 141.708 176.251 142.501 176.251 143.479Z" fill="#3E9AF8"/>
<path d="M221.42 136.394C221.42 137.372 220.626 138.165 219.648 138.165C218.67 138.165 217.877 137.372 217.877 136.394C217.877 135.416 218.67 134.623 219.648 134.623C220.626 134.623 221.42 135.416 221.42 136.394Z" fill="#3E9AF8"/>
<path d="M208.219 102.518C206.124 102.518 204.399 104.243 204.399 106.337C204.399 108.431 206.124 110.156 208.219 110.156C210.313 110.156 212.038 108.431 212.038 106.337C212.038 104.243 210.313 102.518 208.219 102.518ZM208.219 105.064C208.937 105.064 209.492 105.619 209.492 106.337C209.492 107.055 208.937 107.61 208.219 107.61C207.5 107.61 206.945 107.055 206.945 106.337C206.945 105.619 207.5 105.064 208.219 105.064Z" fill="#3E9AF8"/>
<path d="M200.828 95.6538C198.734 95.6538 197.009 97.3787 197.009 99.473C197.009 101.567 198.734 103.292 200.828 103.292C202.923 103.292 204.648 101.567 204.648 99.473C204.648 97.3787 202.923 95.6538 200.828 95.6538ZM200.828 98.1999C201.547 98.1999 202.102 98.755 202.102 99.473C202.102 100.191 201.547 100.746 200.828 100.746C200.11 100.746 199.555 100.191 199.555 99.473C199.555 98.755 200.11 98.1999 200.828 98.1999Z" fill="#3E9AF8"/>
<path d="M186.436 148.35C189.831 145.25 197.684 140.822 203.707 146.136C209.729 151.45 218.32 146.874 221.862 143.921" stroke="#3E9AF8" stroke-width="3.54261" stroke-linecap="round"/>
</g>
</g>
<defs>
<clipPath id="clip0_13194_6251">
<rect width="232" height="273" fill="white" transform="matrix(0 1 1 0 0 0)"/>
</clipPath>
<clipPath id="clip1_13194_6251">
<rect width="81.48" height="81.48" fill="white" transform="translate(148.796 94.7681)"/>
</clipPath>
</defs>
</svg>
