<svg width="262" height="308" viewBox="0 0 246 308" fill="none" xmlns="http://www.w3.org/2000/svg">
<path fill-rule="evenodd" clip-rule="evenodd" d="M42.4334 94H0V95.5H42.4334V94Z" fill="#3E9AF8"/>
<path d="M42 94C42 108.445 44.8452 122.749 50.3732 136.095C55.9013 149.441 64.0038 161.567 74.2183 171.782C84.4327 181.996 96.559 190.099 109.905 195.627C123.251 201.155 137.555 204 152 204V202.501C137.751 202.501 123.642 199.695 110.478 194.242C97.3144 188.789 85.3533 180.797 75.2781 170.722C65.2028 160.647 57.2107 148.686 51.758 135.522C46.3053 122.358 43.4988 108.249 43.4988 94H42Z" fill="#3E9AF8"/>
<path fill-rule="evenodd" clip-rule="evenodd" d="M151.5 202.5L151.5 284.5L153 284.5L153 202.5L151.5 202.5Z" fill="#3E9AF8"/>
<path d="M164 296C164 289.373 158.627 284 152 284C145.373 284 140 289.373 140 296C140 302.627 145.373 308 152 308C158.627 308 164 302.627 164 296Z" fill="#F4F8FE"/>
<path fill-rule="evenodd" clip-rule="evenodd" d="M152 285.5C157.799 285.5 162.5 290.201 162.5 296C162.5 301.799 157.799 306.5 152 306.5C146.201 306.5 141.5 301.799 141.5 296C141.5 290.201 146.201 285.5 152 285.5ZM152 284C158.627 284 164 289.373 164 296C164 302.627 158.627 308 152 308C145.373 308 140 302.627 140 296C140 289.373 145.373 284 152 284Z" fill="#3E9AF8"/>
<rect x="0.75" y="-0.75" width="186.5" height="186.5" rx="93.25" transform="matrix(1 0 0 -1 58 186.5)" stroke="#3E9AF8" stroke-width="1.5"/>
<path d="M163.475 85.3961C159.281 86.4491 155.527 88.8014 152.751 92.1166C149.974 95.4317 148.317 99.5399 148.017 103.854C147.716 108.167 148.787 112.466 151.077 116.134C153.367 119.802 156.758 122.652 160.765 124.277C164.773 125.902 169.191 126.218 173.389 125.179C177.587 124.141 181.349 121.802 184.137 118.497C186.925 115.192 188.596 111.089 188.912 106.777C189.03 105.172 188.958 103.57 188.703 102" stroke="#3E9AF8" stroke-width="4" stroke-linecap="round"/>
<path d="M174.102 85.6221C176.944 86.445 179.558 87.8684 181.776 89.7783" stroke="#3E9AF8" stroke-width="4" stroke-linecap="round"/>
<path d="M112 138H125M192 138H135M125 138H135M125 138V98V59.5C125 59.2239 125.224 59 125.5 59L134.5 59C134.776 59 135 59.2239 135 59.5V95M135 138V111M118.25 78.875L188 79M161 69H164M177 69H174M164 69V85.125M164 69H174M174 69V85.125" stroke="#3E9AF8" stroke-width="4" stroke-linecap="round"/>
<path d="M137 103C137 104.105 136.104 105 135 105C133.896 105 133 104.105 133 103C133 101.896 133.896 101 135 101C136.104 101 137 101.896 137 103Z" fill="#3E9AF8"/>
<path d="M188 95.0002C188 96.1048 187.104 97 186 97C184.896 97 184 96.1048 184 95.0002C184 93.8957 184.896 93 186 93C187.104 93 188 93.8957 188 95.0002Z" fill="#3E9AF8"/>
<path d="M173.095 56.75C170.73 56.75 168.782 58.6976 168.782 61.0623C168.782 63.4267 170.73 65.3741 173.095 65.3741C175.459 65.3741 177.407 63.4267 177.407 61.0623C177.407 58.6976 175.459 56.75 173.095 56.75ZM173.095 59.6248C173.906 59.6248 174.532 60.2516 174.532 61.0623C174.532 61.8731 173.906 62.4995 173.095 62.4995C172.283 62.4995 171.657 61.8731 171.657 61.0623C171.657 60.2516 172.283 59.6248 173.095 59.6248Z" fill="#3E9AF8"/>
<path d="M164.75 49C162.385 49 160.438 50.9476 160.438 53.3123C160.438 55.6767 162.385 57.6243 164.75 57.6243C167.115 57.6243 169.063 55.6767 169.063 53.3123C169.063 50.9476 167.115 49 164.75 49ZM164.75 51.8748C165.561 51.8748 166.188 52.5016 166.188 53.3123C166.188 54.1231 165.561 54.7495 164.75 54.7495C163.939 54.7495 163.312 54.1231 163.312 53.3123C163.312 52.5016 163.939 51.8748 164.75 51.8748Z" fill="#3E9AF8"/>
<path d="M148.5 108.5C152.333 105 161.2 99.9998 168 106C174.8 112 184.5 106.833 188.5 103.5" stroke="#3E9AF8" stroke-width="4" stroke-linecap="round"/>
</svg>
