<svg width="273" height="232" viewBox="0 0 273 232" fill="none" xmlns="http://www.w3.org/2000/svg">
<g clip-path="url(#clip0_13194_6291)">
<path fill-rule="evenodd" clip-rule="evenodd" d="M83.4622 38.4677V0.884766L84.7908 0.884766V38.4677H83.4622Z" fill="#91A3BE"/>
<path d="M83.4622 38.0838C96.2563 38.0838 108.925 40.6038 120.745 45.4999C132.566 50.396 143.306 57.5723 152.353 66.6192C161.4 75.666 168.576 86.4062 173.472 98.2265C178.368 110.047 180.888 122.716 180.888 135.51H179.561C179.561 122.89 177.075 110.394 172.246 98.7345C167.416 87.0753 160.338 76.4814 151.414 67.5579C142.49 58.6343 131.897 51.5557 120.237 46.7263C108.578 41.8969 96.082 39.4113 83.4622 39.4113V38.0838Z" fill="#91A3BE"/>
<path fill-rule="evenodd" clip-rule="evenodd" d="M179.56 135.067L252.186 135.067L252.186 136.395L179.56 136.396L179.56 135.067Z" fill="#91A3BE"/>
<path d="M262.372 146.138C256.502 146.138 251.743 141.379 251.743 135.51C251.743 129.64 256.502 124.881 262.372 124.881C268.242 124.881 273 129.64 273 135.51C273 141.379 268.242 146.138 262.372 146.138Z" fill="#F4F8FE"/>
<path fill-rule="evenodd" clip-rule="evenodd" d="M253.072 135.51C253.072 140.646 257.236 144.809 262.372 144.809C267.508 144.809 271.671 140.646 271.671 135.51C271.671 130.374 267.508 126.21 262.372 126.21C257.236 126.21 253.072 130.374 253.072 135.51ZM251.743 135.51C251.743 141.379 256.502 146.138 262.372 146.138C268.242 146.138 273 141.379 273 135.51C273 129.64 268.242 124.881 262.372 124.881C256.502 124.881 251.743 129.64 251.743 135.51Z" fill="#91A3BE"/>
<rect x="166.053" y="52.9192" width="165.178" height="165.178" rx="82.5889" transform="rotate(90 166.053 52.9192)" stroke="#91A3BE" stroke-width="1.32854"/>
<g clip-path="url(#clip1_13194_6291)">
<path d="M114.462 151.45V174.034C114.462 174.279 114.263 174.477 114.019 174.477H51.1375C50.893 174.477 50.6947 174.279 50.6947 174.034V113.634C50.6947 113.47 50.7856 113.319 50.9308 113.242L82.3715 96.6486C82.5008 96.5804 82.6555 96.5804 82.7849 96.6486L114.226 113.242C114.371 113.319 114.462 113.47 114.462 113.634V137.28M56.0086 117.795L82.3715 103.735C82.5008 103.666 82.6558 103.666 82.7856 103.734L109.591 117.795" stroke="#305680" stroke-width="3.54261" stroke-linecap="round"/>
<rect x="66.6365" y="130.194" width="31.8835" height="22.1413" rx="3.54261" stroke="#305680" stroke-width="3.54261"/>
<path d="M77.2643 130.194V143.594C77.2643 143.936 77.635 144.149 77.9302 143.976L82.3551 141.395C82.4929 141.315 82.6634 141.315 82.8013 141.395L87.2262 143.976C87.5214 144.149 87.8921 143.936 87.8921 143.594V130.194" stroke="#305680" stroke-width="3.54261" stroke-linecap="round"/>
<path d="M77.2643 152.335V165.735C77.2643 166.077 77.635 166.29 77.9302 166.117L82.3551 163.536C82.4929 163.456 82.6634 163.456 82.8013 163.536L87.2262 166.117C87.5214 166.29 87.8921 166.077 87.8921 165.735V152.335" stroke="#305680" stroke-width="3.54261" stroke-linecap="round"/>
<rect x="66.6365" y="152.335" width="31.8835" height="22.1413" rx="3.54261" stroke="#305680" stroke-width="3.54261"/>
<circle cx="114.462" cy="144.365" r="1.7713" fill="#305680"/>
</g>
</g>
<defs>
<clipPath id="clip0_13194_6291">
<rect width="232" height="273" fill="white" transform="matrix(0 1 -1 0 273 0)"/>
</clipPath>
<clipPath id="clip1_13194_6291">
<rect width="81.48" height="81.48" fill="white" transform="translate(42.7239 94.7681)"/>
</clipPath>
</defs>
</svg>
