<svg width="261" height="308" viewBox="0 0 246 308" fill="none" xmlns="http://www.w3.org/2000/svg">
<path fill-rule="evenodd" clip-rule="evenodd" d="M42.4334 214H0V212.5H42.4334V214Z" fill="#91A3BE"/>
<path d="M42 214C42 199.555 44.8452 185.251 50.3732 171.905C55.9013 158.559 64.0038 146.433 74.2183 136.218C84.4327 126.004 96.559 117.901 109.905 112.373C123.251 106.845 137.555 104 152 104V105.499C137.751 105.499 123.642 108.305 110.478 113.758C97.3144 119.211 85.3533 127.203 75.2781 137.278C65.2028 147.353 57.2107 159.314 51.758 172.478C46.3053 185.642 43.4988 199.751 43.4988 214H42Z" fill="#91A3BE"/>
<path fill-rule="evenodd" clip-rule="evenodd" d="M151.5 105.5L151.5 23.5L153 23.5L153 105.5L151.5 105.5Z" fill="#91A3BE"/>
<path d="M164 12C164 18.6274 158.627 24 152 24C145.373 24 140 18.6274 140 12C140 5.37258 145.373 0 152 0C158.627 0 164 5.37258 164 12Z" fill="#F4F8FE"/>
<path fill-rule="evenodd" clip-rule="evenodd" d="M152 22.5C157.799 22.5 162.5 17.799 162.5 12C162.5 6.20101 157.799 1.5 152 1.5C146.201 1.5 141.5 6.20101 141.5 12C141.5 17.799 146.201 22.5 152 22.5ZM152 24C158.627 24 164 18.6274 164 12C164 5.37258 158.627 0 152 0C145.373 0 140 5.37258 140 12C140 18.6274 145.373 24 152 24Z" fill="#91A3BE"/>
<rect x="58.75" y="120.75" width="186.5" height="186.5" rx="93.25" stroke="#91A3BE" stroke-width="1.5"/>
<path d="M187 232V257.5C187 257.776 186.776 258 186.5 258H115.5C115.224 258 115 257.776 115 257.5V189.301C115 189.116 115.103 188.946 115.267 188.859L150.767 170.123C150.913 170.046 151.087 170.046 151.233 170.123L186.733 188.859C186.897 188.946 187 189.116 187 189.301V216M121 194L150.767 178.124C150.913 178.047 151.088 178.046 151.234 178.123L181.5 194" stroke="#305680" stroke-width="4" stroke-linecap="round"/>
<rect x="133" y="208" width="36" height="25" rx="4" stroke="#305680" stroke-width="4"/>
<path d="M145 208V223.129C145 223.515 145.419 223.756 145.752 223.561L150.748 220.647C150.904 220.556 151.096 220.556 151.252 220.647L156.248 223.561C156.581 223.756 157 223.515 157 223.129V208" stroke="#305680" stroke-width="4" stroke-linecap="round"/>
<path d="M145 233V248.129C145 248.515 145.419 248.756 145.752 248.561L150.748 245.647C150.904 245.556 151.096 245.556 151.252 245.647L156.248 248.561C156.581 248.756 157 248.515 157 248.129V233" stroke="#305680" stroke-width="4" stroke-linecap="round"/>
<rect x="133" y="233" width="36" height="25" rx="4" stroke="#305680" stroke-width="4"/>
<circle cx="187" cy="224" r="2" fill="#305680"/>
</svg>
