<svg xmlns="http://www.w3.org/2000/svg" width="78" height="82">
  <path d="M48.206 46.72h-16.98c-.433 0-.722-.29-.722-.723v-6.72c0-.433.29-.722.723-.722h16.979c.433 0 .722.29.722.723v6.72a.724.724 0 0 1-.722.722zM47.483 40H31.95v5.275h15.534V40z"/>
  <path style="text-indent:0;text-transform:none;block-progression:tb;marker:none" d="M29.542 4.777C17.823 4.08 7.118 12.453 5.194 24.28c-.267 1.738 2.33 2.158 2.624.424C9.64 13.501 20.213 5.9 31.418 7.72c1.749.283 2.173-2.34.424-2.623-.789-.129-1.518-.274-2.3-.32zm-.447 5.44c-8.938-.532-17.015 5.816-18.482 14.841-.268 1.739 2.33 2.159 2.623.425 1.336-8.215 9.03-13.774 17.244-12.438 1.75.283 2.174-2.341.425-2.624a18.03 18.03 0 0 0-1.81-.204zm-1.52 5.369c-5.73.23-10.761 4.457-11.715 10.321-.268 1.739 2.33 2.159 2.624.424.86-5.29 5.852-8.816 11.142-7.956 1.75.283 2.174-2.34.424-2.624a12.277 12.277 0 0 0-2.475-.165zm.13 5.479c-3.122.126-5.908 2.428-6.427 5.62-.267 1.738 2.33 2.158 2.624.424.364-2.236 2.464-3.696 4.7-3.332 1.748.283 2.173-2.341.424-2.624a6.409 6.409 0 0 0-1.32-.088z" overflow="visible" color="#000" fill="#fff"/>
  <g fill="none" stroke="#fff" stroke-width="2.9">
    <path d="M64.945 49.38l.8 1.006-12.96-16.287-12.961-7.449-12.96 7.449-12.96 16.287 1.064-1.341" stroke-linejoin="round"/>
    <path d="M18.836 52.869h41.976V77.3H18.836zM31.449 39.428H48.2v6.555H31.449z"/>
    <path d="M60.812 43.964v9.07H18.836v-9.07M39.824 59.225v17.743"/>
  </g>
  <path d="M31.283 59.357h17.082v17.876H31.284z" fill="none" stroke="#fff" stroke-width="2.9" stroke-linejoin="round"/>
  <g fill="none" stroke="#fff" stroke-width="2.9">
    <path d="M54.515 34v-6.026c0-5.295 4.5-9.588 10.05-9.588 5.55 0 10.05 4.293 10.05 9.588v4.254m-20.1 3.816v-3.21h20.1v38.73h-13.89"/>
    <path d="M74.615 58.717H61.122m-.649-14.48h14.142" stroke-linejoin="round"/>
  </g>
  <path d="M31.283 59.357l8.607 17.942 8.475-17.942v17.876L39.824 59.39l-8.54 17.843z" fill="none" stroke="#fff" stroke-width="2.9" stroke-linejoin="round"/>
</svg>
