<svg xmlns="http://www.w3.org/2000/svg" width="78" height="82">
  <path stroke-miterlimit="10" d="M3 43.302s-.595 13.806.884 16.764c1.48 2.959 10.354 7.645 11.094 9.86.74 2.22 1.725 7.397 3.698 7.89 1.972.494 37.646.748 41.2-.37 2.332-.731 2.592-8.65 4.407-10.724 1.74-1.987 7.89-1.655 7.89-5.771v-6.308l-40.4-.011c-3.367 0-5.208-11.331-5.208-11.331H3z" fill="none" stroke="#fff" stroke-width="3" stroke-linecap="round" stroke-linejoin="round"/>
  <path stroke-miterlimit="10" d="M18.275 43.302V37.97H42.59s-.093 5.987.924 6.542c.73.396 8.92.427 13.497.413 1.81-.007 3.053-.021 3.053-.021l.045 9.737" fill="none" stroke="#fff" stroke-width="3" stroke-linecap="round" stroke-linejoin="round"/>
  <path stroke-miterlimit="10" fill="none" stroke="#fff" stroke-width="3" stroke-linecap="round" stroke-linejoin="round" d="M56.516 44.926V26.784h-8.135v18.142M53.444 21.679s-1.775-4.446 2.536-7.315c4.31-2.868 8.242-1.635 8.242-1.635s-1.015-6.354 8.34-6.063"/>
  <path style="text-indent:0;text-transform:none;block-progression:tb;marker:none" d="M31.086 5.338C19.367 4.64 8.662 13.014 6.738 24.842c-.268 1.738 2.33 2.158 2.624.424 1.822-11.204 12.395-18.807 23.6-16.985 1.748.283 2.173-2.34.424-2.624-.789-.128-1.518-.273-2.3-.32zm-.447 5.44c-8.938-.532-17.015 5.816-18.483 14.841-.267 1.739 2.33 2.159 2.624.425 1.336-8.215 9.03-13.774 17.244-12.438 1.75.283 2.174-2.341.425-2.624a18.019 18.019 0 0 0-1.81-.204zm-1.52 5.369c-5.73.23-10.761 4.457-11.715 10.321-.268 1.738 2.33 2.159 2.624.424.86-5.29 5.852-8.816 11.142-7.956 1.75.283 2.174-2.34.424-2.624a12.278 12.278 0 0 0-2.475-.166zm.13 5.479c-3.122.126-5.908 2.428-6.427 5.62-.268 1.738 2.33 2.158 2.624.424.364-2.236 2.464-3.696 4.699-3.332 1.75.283 2.174-2.341.424-2.624a6.408 6.408 0 0 0-1.32-.089z" overflow="visible" color="#000" fill="#fff"/>
</svg>
