<?xml version="1.0" encoding="utf-8"?>
<!-- Generator: Adobe Illustrator 19.0.0, SVG Export Plug-In . SVG Version: 6.00 Build 0)  -->
<svg version="1.1" id="Layer_1" xmlns="http://www.w3.org/2000/svg" xmlns:xlink="http://www.w3.org/1999/xlink" x="0px" y="0px"
	 viewBox="-879 424.6 159 232.4" style="enable-background:new -879 424.6 159 232.4;" xml:space="preserve">
<style type="text/css">
	.st0{fill:#FFFFFF;}
</style>
<path class="st0" d="M-723.1,536.8c-1.9-0.9-4.1-0.5-5.7,0.9l-25.6,22.6v-18.7c0-2.1-1.2-4-3.1-4.8c-1.9-0.9-4.1-0.5-5.7,0.9
	l-25.6,22.6v-18.7c0-2.1-1.2-4-3.1-4.8c-1.9-0.9-4.1-0.5-5.7,0.9l-0.3,0.2l-3.7-37.4c-0.4-4.1-3.8-7.2-7.9-7.2h-14.3
	c-4.1,0-7.5,3.1-7.9,7.2l-4.8,48.4l-4.8-48.4c-0.4-4.1-3.8-7.2-7.9-7.2h-14.3c-4.1,0-7.5,3.1-7.9,7.2l-7.5,74.7c0,0,0,0.1,0,0.1
	c0,0,0,0.1,0,0.1v58.3c0,2.9,2.4,5.3,5.3,5.3h148.4c2.9,0,5.3-2.4,5.3-5.3v-92.2C-720,539.5-721.2,537.6-723.1,536.8z M-820.7,602
	h-31.8c-2.9,0-5.3,2.4-5.3,5.3v13.3h-15.9v-42.4h148.4v42.4h-90.1v-13.3C-815.4,604.4-817.8,602-820.7,602z M-844.8,519.9h-23.3
	l0.8-8h21.7L-844.8,519.9z M-868.6,525.2h24.4l4.8,47.7h-33.9L-868.6,525.2z M-725.3,541.6v31.2h-35.4L-725.3,541.6z M-759.7,541.6
	V565l-9,7.9h-26.4L-759.7,541.6z M-794.2,565l-9,7.9h-26.4l35.4-31.2V565z M-833.3,569.1l4.4-43.9h24.4l1.7,17L-833.3,569.1z
	 M-805.1,519.9h-23.3l0.8-8h21.7L-805.1,519.9z M-823.8,498.7h14.3c1.4,0,2.5,1,2.6,2.4l0.6,5.6H-827l0.6-5.6
	C-826.4,499.7-825.2,498.6-823.8,498.7z M-863.6,498.7h14.3c1.4,0,2.5,1,2.6,2.4l0.6,5.6h-20.6l0.6-5.6
	C-866.1,499.7-865,498.7-863.6,498.7z M-873.7,625.9h15.9v8h-15.9V625.9z M-852.5,607.3h13.3v13.3c-1.5,0-2.7,1.2-2.7,2.6
	c0,1.5,1.2,2.7,2.7,2.7v8h-13.3V607.3z M-833.9,633.8v-8c1.5,0,2.7-1.2,2.7-2.7c0-1.5-1.2-2.6-2.7-2.6v-13.3h13.3v26.5H-833.9z
	 M-815.4,633.8v-8h90.1v8H-815.4z"/>
<path class="st0" d="M-789.5,505c3.4,1.7,7.5,1.5,10.7-0.6c0.4,0.3,0.8,0.5,1.2,0.7c2.4,1.2,5.1,1.7,7.8,1.4
	c3.2,5.3,9.3,8.3,15.5,7.6c1.8,2.9,4.3,5.3,7.4,6.9c7.6,3.9,16.8,2.2,22.4-4.2c5.6-6.4,6.2-15.8,1.4-22.8c-4.8-7-13.8-9.8-21.8-6.9
	c-1.2-1.2-2.5-2.1-4-2.9c-4.2-2.2-9.2-2.4-13.6-0.5c-2.7-2.6-6.4-3.8-10.1-3.5c-3.7,0.3-7.1,2.2-9.4,5.1c-5.2-1.3-10.6,1.5-12.5,6.6
	C-796.5,496.9-794.3,502.5-789.5,505L-789.5,505z M-789.4,493.2c0.6-1.3,1.8-2.2,3.1-2.6c1.3-0.4,2.8-0.3,4,0.3
	c1.3,0.7,2.9,0.2,3.6-1.1c1-1.9,2.6-3.3,4.6-3.9c2-0.6,4.2-0.5,6.1,0.5c1.1,0.5,2,1.3,2.7,2.2c0.8,1.1,2.3,1.4,3.5,0.7
	c3.2-1.9,7.1-2.1,10.4-0.4c1.4,0.7,2.6,1.7,3.5,3c0.8,1,2.2,1.4,3.3,0.8c5.6-2.8,12.4-1.4,16.3,3.5c3.9,4.9,3.9,11.8-0.1,16.7
	c-4,4.8-10.8,6.3-16.3,3.4c-2.6-1.3-4.7-3.5-5.9-6.2c-0.4-0.9-1.4-1.6-2.4-1.6c-0.2,0-0.4,0-0.7,0.1c-5.1,1.3-10.3-1.3-12.4-6.1
	c-0.5-1.2-1.9-1.9-3.2-1.5c-2,0.6-4.2,0.4-6-0.5c-0.7-0.4-1.3-0.8-1.9-1.3c-1.1-1-2.7-0.9-3.7,0.1c-1.8,1.9-4.8,2.2-6.9,0.7
	C-789.9,498.4-790.6,495.5-789.4,493.2L-789.4,493.2z"/>
</svg>
