<svg xmlns="http://www.w3.org/2000/svg" width="78" height="82">
  <path d="M41.3 22.034L14.035 49.712l5.505-5.29v33.226l44.042-.01V44.422l5.297 5.29-16.968-17.025-2.677-2.61v-.078zM49.234 30l2.677 2.688 4.362 4.253V22.546h-7.04z" fill="none" stroke="#fff" stroke-width="2.9" stroke-linejoin="round"/>
  <path d="M32.962 77.236V55.15h16.984v22.086" fill="none" stroke="#fff" stroke-width="2.9" stroke-linejoin="round"/>
  <path style="text-indent:0;text-transform:none;block-progression:tb;marker:none" d="M31.157 4.008C19.438 3.311 8.733 11.685 6.81 23.513c-.267 1.738 2.33 2.158 2.624.424 1.822-11.205 12.395-18.807 23.6-16.985 1.749.283 2.173-2.341.424-2.624-.789-.128-1.518-.273-2.3-.32zm-.447 5.44c-8.937-.531-17.015 5.817-18.482 14.842-.268 1.738 2.33 2.158 2.623.424 1.336-8.215 9.03-13.773 17.244-12.437 1.75.283 2.174-2.341.425-2.624a18.019 18.019 0 0 0-1.81-.204zm-1.52 5.37c-5.73.23-10.761 4.457-11.715 10.32-.268 1.74 2.33 2.16 2.624.425.86-5.29 5.852-8.816 11.142-7.956 1.75.283 2.174-2.341.425-2.624a12.278 12.278 0 0 0-2.476-.166zm.13 5.478c-3.122.127-5.908 2.429-6.427 5.62-.267 1.738 2.33 2.159 2.624.424.364-2.235 2.464-3.695 4.7-3.332 1.749.283 2.173-2.34.424-2.623a6.408 6.408 0 0 0-1.32-.089z" overflow="visible" color="#000" fill="#fff"/>
</svg>
