<svg xmlns:osb="http://www.openswatchbook.org/uri/2009/osb" xmlns="http://www.w3.org/2000/svg" id="svg2" width="78" height="82">
  <defs id="defs14">
    <linearGradient id="linearGradient5582" osb:paint="solid">
      <stop offset="0" id="stop5584"/>
    </linearGradient>
    <linearGradient id="linearGradient4136" osb:paint="solid">
      <stop offset="0" id="stop4138"/>
    </linearGradient>
  </defs>
  <style id="style4">
  </style>
  <path d="M28.461 76.744c-.169-.316-.307-1.153-.307-1.862 0-1.166-.086-1.32-.91-1.632-.762-.287-.895-.48-.815-1.176.075-.66.265-.853.91-.927.683-.079.815-.235.815-.963 0-.64-.14-.87-.533-.87-.733 0-1.245-.576-1.245-1.4 0-.534.207-.73.92-.874l.92-.184-.107-3.143c-.149-4.327-.751-5.498-5.248-10.202-5.463-5.714-7.561-8.772-9.077-13.227-1.046-3.077-1.368-5.202-1.362-8.99.02-12.377 8.53-22.876 20.997-25.904 2.69-.654 8.713-.654 11.404 0C57.26 8.41 65.8 18.946 65.82 31.294c.006 3.788-.316 5.913-1.363 8.99-1.511 4.443-3.612 7.51-9.033 13.186-4.46 4.669-5.09 5.898-5.277 10.287l-.135 3.186h.768c.856 0 1.489.86 1.196 1.624-.102.264-.568.557-1.037.65-.7.141-.851.322-.851 1.023 0 .709.123.853.73.853 1.05 0 1.56 1.048.878 1.803-.283.312-.76.568-1.061.568-.463 0-.547.241-.547 1.57 0 .865-.16 1.732-.356 1.927-.263.263-3.04.356-10.66.356-9.884 0-10.317-.023-10.611-.573zM48.309 74.5v-1.037H29.933v2.075h18.376V74.5zm0-4.298v-.889H29.933v1.779h18.376v-.89zm0-4.446v-1.185H29.933v2.371h18.376v-1.186zm-13.353-3.482c-.008-.286-.852-4.587-1.875-9.56l-1.86-9.04-3.386-.147c-4.038-.177-5.101-.64-6.127-2.664-.852-1.68-.84-2.554.054-4.237.654-1.23.678-1.395.25-1.749-.68-.562-1.551-2.613-1.551-3.651 0-1.238.98-3.269 1.854-3.842.677-.443.709-.568.429-1.673-.739-2.908 1.718-6.193 4.63-6.193.898 0 1.054-.11 1.221-.872.222-1.011 2.157-2.878 3.273-3.158.42-.105 1.457-.125 2.304-.044 1.311.127 1.664.045 2.369-.548 1.808-1.52 4.521-1.524 6.346-.009.71.59 1.082.672 2.606.573 2.325-.151 3.837.662 4.877 2.623.658 1.241.845 1.385 1.974 1.512 2.603.294 4.395 2.59 4.215 5.4-.092 1.45-.034 1.604.905 2.395 2.774 2.335 2.267 6.847-.945 8.402-1.067.516-1.839.62-4.577.62h-3.294l-.348 1.705c-.191.938-1.4 6.773-2.688 12.968-1.287 6.194-2.34 11.363-2.341 11.485 0 .122.994.222 2.21.222h2.209l.186-1.111c.605-3.61 1.785-5.504 6.542-10.495 4.007-4.205 5.96-6.882 7.208-9.877 1.475-3.544 1.905-5.8 1.89-9.935-.01-3.125-.134-4.113-.795-6.312-1.006-3.351-2.217-5.758-4.227-8.407-8.88-11.699-26.247-12.8-36.718-2.33-3.058 3.059-4.898 6.217-6.255 10.737-.66 2.2-.785 3.187-.796 6.312-.014 4.135.416 6.39 1.891 9.935 1.256 3.018 3.143 5.59 7.427 10.124 4.215 4.462 5.412 6.274 6.109 9.24l.497 2.12h2.161c1.867 0 2.16-.071 2.146-.52zm5.943.372c0-.08 1.2-5.943 2.668-13.027 1.467-7.084 2.667-12.953 2.667-13.043 0-.09-.533-.163-1.185-.163-1.094 0-1.186.063-1.192.815-.01 1.178-.94 3.04-2.066 4.136-1.528 1.486-2.822 1.962-5.726 2.107-1.761.087-2.571.238-2.49.463.066.183.964 4.502 1.995 9.596l1.876 9.262h1.727c.95 0 1.726-.066 1.726-.146zM39.12 40.712c1.097-.567 2.25-2.097 2.511-3.335l.205-.963h-3.248c-3.417 0-4.08-.24-3.86-1.394.08-.421.472-.564 1.876-.68l1.776-.149.148-2.425c.112-1.835.3-2.629.768-3.26 1.41-1.9 3.978-2.793 4.884-1.7.547.658.017 1.395-1.18 1.64-.524.107-1.279.5-1.675.873-.639.6-.722.93-.722 2.868v2.19l7.387-.093c7.338-.092 7.391-.098 8.146-.807.997-.938 1.255-2.356.644-3.539-.688-1.33-1.28-1.527-4.577-1.527-2.298 0-3.067-.104-3.428-.466-1.102-1.102-.247-1.609 2.713-1.609 2.402 0 2.475-.02 2.769-.792.431-1.135.074-2.337-.954-3.2-1.09-.918-2.042-.947-3.532-.11-.943.53-1.218.575-1.597.26-.61-.506-.577-.883.145-1.651.738-.786.455-1.805-.769-2.767-1.62-1.274-3.894-.419-4.53 1.704-.475 1.585-2.008 3.356-2.801 3.237-.326-.05-.737-.318-.912-.599-.259-.412-.136-.699.636-1.496.526-.542.957-1.18.957-1.417.001-.237.282-.89.625-1.454l.624-1.023-.658-.533c-1.416-1.147-4.669-.224-3.92 1.113.386.691-.037 1.615-.741 1.615-.271 0-.875-.367-1.343-.815-1.222-1.17-3.232-1.163-4.246.016-.819.952-.913 1.748-.271 2.28.245.204.445.678.445 1.055 0 .943-1.041 1.244-1.831.529-.397-.36-1.057-.546-1.931-.546-1.69 0-2.762 1.074-2.755 2.758.008 1.868.078 1.896 4.377 1.787 3.615-.092 3.922-.146 4.631-.813.418-.393.844-1.163.947-1.712.236-1.26 1.065-1.772 1.752-1.084 1.126 1.125-.423 4.161-2.637 5.166-.993.451-1.954.555-5.166.56-3.953.007-4.857.195-5.603 1.167-.451.588-.486 2.534-.06 3.33.453.847 2.061 1.438 3.909 1.438 2.07 0 2.796.64 1.826 1.61-.322.321-1.026.465-2.278.465-1.453 0-1.948.128-2.498.644-.893.84-.942 2.657-.093 3.506.558.558.988.592 7.424.592 5.491 0 7-.087 7.691-.444z" id="path4134" fill="none" stroke-width="2.3" stroke-linejoin="round"/>
  <path d="M28.468 76.78c-.1-.26-.181-1.12-.181-1.911 0-1.335-.057-1.445-.786-1.532-1.669-.2-1.669-2.063 0-2.263.65-.077.786-.244.786-.963 0-.718-.123-.87-.705-.87-1.614 0-1.818-1.75-.258-2.21l.963-.283v-2.1c0-2.425-.633-5.138-1.551-6.652-.352-.58-1.99-2.455-3.642-4.167-5.81-6.023-8.567-10.325-9.974-15.561-.911-3.39-.911-9.947 0-13.338 2.65-9.859 10.67-17.494 20.561-19.575 2.638-.555 8.21-.555 10.848 0 9.787 2.06 17.395 9.158 20.413 19.047.716 2.344.795 3.06.795 7.197 0 4.138-.08 4.853-.795 7.197-1.647 5.398-3.772 8.7-9.384 14.583-1.876 1.966-3.767 4.239-4.2 5.05-.895 1.672-1.434 4.191-1.434 6.698 0 1.622.038 1.709.785 1.798 1.669.2 1.669 2.063 0 2.262-.645.077-.785.246-.785.944s.14.866.785.943c1.66.199 1.671 2.063.014 2.261-.727.088-.777.2-.86 1.927l-.087 1.834-10.564.078c-9.439.07-10.582.028-10.744-.395zm19.974-2.203V73.39H30.065v2.371H48.442v-1.185zm0-4.446v-.89H30.065v1.779H48.442v-.89zm0-4.446v-1.186H30.065v2.371H48.442v-1.185zM35.014 62.35c-.085-.366-.988-4.768-2.007-9.78l-1.853-9.115-3.286-.012c-3.626-.014-4.626-.336-5.835-1.88-.983-1.256-1.127-3.682-.302-5.08l.63-1.068-.787-1.031c-1.472-1.93-1.252-5.119.465-6.764.795-.762.841-.93.694-2.549-.136-1.5-.052-1.91.62-3.057.816-1.393 2.665-2.563 4.064-2.572.555-.003.905-.337 1.516-1.445 1.074-1.948 2.854-2.85 5.155-2.612.88.09 1.678.04 1.773-.114.095-.153.72-.558 1.389-.9 1.632-.832 4.135-.681 5.564.336.81.577 1.379.716 2.967.726 1.703.01 2.116.127 3.096.875.622.474 1.344 1.36 1.604 1.97.421.986.612 1.123 1.735 1.25 2.7.304 4.76 3.055 4.377 5.843-.177 1.286-.133 1.45.432 1.63.809.257 1.993 2.075 2.24 3.44.383 2.125-.893 4.476-3.023 5.568-.367.189-2.123.332-4.056.332-2.987 0-3.428.064-3.568.52-.164.533-5.19 24.768-5.301 25.563-.05.362.354.445 2.153.445h2.214l.224-1.334c.585-3.494 1.717-5.286 6.542-10.357 1.93-2.028 4.149-4.642 4.93-5.81 7.567-11.314 4.582-26.7-6.604-34.033-4.458-2.922-8.359-4.118-13.523-4.146-4.28-.023-6.848.566-10.818 2.482-11.249 5.426-16.555 18.236-12.437 30.023 1.434 4.104 3.44 6.99 8.586 12.357 1.798 1.874 3.57 3.895 3.936 4.49.837 1.357 1.841 4.24 1.841 5.288 0 .436.09.882.198.99.109.11 1.19.198 2.403.198 2.136 0 2.201-.021 2.052-.667zm5.841.149c.088-.286 1.296-6.054 2.685-12.82a2845.08 2845.08 0 0 1 2.648-12.819c.101-.424-.08-.519-1.001-.519-1.063 0-1.137.061-1.331 1.098-.307 1.637-1.158 3.113-2.485 4.312-1.435 1.296-2.764 1.7-5.6 1.702-1.182.001-2.15.126-2.15.279 0 .152.868 4.5 1.927 9.664 1.06 5.163 1.927 9.44 1.927 9.504 0 .065.725.117 1.61.117 1.275 0 1.644-.108 1.77-.518zm-1.633-21.86c1.32-.777 2.08-1.832 2.3-3.193l.18-1.105H38.44c-2.615 0-3.34-.093-3.652-.469-.705-.85.03-1.447 1.904-1.546l1.673-.089v-1.921c0-1.057.18-2.353.4-2.88.805-1.924 3.635-3.62 5.101-3.058.694.266.444 1.782-.314 1.9-2.288.36-3.112 1.472-3.112 4.196v1.793h7.128c7.554 0 8.458-.145 9.165-1.466.604-1.13.364-2.671-.561-3.596-.847-.847-.936-.866-3.965-.866-2.466 0-3.178-.096-3.488-.47-.283-.34-.304-.605-.08-.963.242-.384.864-.513 2.79-.581 2.694-.095 2.93-.237 2.937-1.776.006-1.313-.72-2.335-1.95-2.74-.873-.288-1.208-.244-2.353.31-.735.356-1.533.571-1.775.479-.569-.219-.565-1.491.007-1.966.94-.78.097-2.442-1.508-2.972-1.543-.51-3.08.337-3.7 2.038-.726 1.99-1.945 3.359-2.893 3.249-1.12-.13-1.148-.962-.074-2.185.502-.572.913-1.242.913-1.488 0-.247.216-.868.481-1.38.463-.895.456-.952-.18-1.468-.88-.712-2.41-.68-3.366.073-.641.504-.716.7-.438 1.146.396.634.152 1.445-.511 1.7-.3.114-.847-.184-1.5-.817-.839-.813-1.248-.991-2.213-.966-1.287.034-2.247.696-2.69 1.855-.217.567-.137.857.394 1.422.523.556.598.818.348 1.215-.455.722-1.242.79-1.93.167-.878-.794-2.703-.709-3.638.17-.893.839-1.251 2.367-.767 3.271.333.623.49.643 4.317.55 4.44-.108 5.028-.36 5.43-2.33.39-1.902 2.113-2.01 2.113-.132 0 1.41-.65 2.598-1.976 3.61-1.057.807-1.217.835-5.706.99-2.54.087-4.857.27-5.148.406-.673.314-1.397 1.7-1.397 2.675 0 .414.389 1.187.864 1.72.806.902 1.022.978 3.184 1.116 1.928.123 2.336.238 2.42.68.19.999-.504 1.394-2.447 1.394-1.433 0-1.975.132-2.48.601-.888.828-1.134 2.004-.614 2.931.799 1.424 1.389 1.527 8.261 1.44 5.754-.073 6.47-.139 7.38-.674z" id="path4144" fill="none" stroke-width="2.3" stroke-linejoin="round"/>
  <path d="M38.537 4.176c.046-.005.09-.007.128-.007 15.005 0 27.213 12.204 27.213 27.206a27.18 27.18 0 0 1-4.689 15.277 28.309 28.309 0 0 1-2.492 3.132c-.984 1.32-2.197 2.506-3.37 3.655-3.004 2.942-5.656 5.483-5.574 10.651v2.803h.744a1.3 1.3 0 0 1 1.297 1.298c0 .715-.582 1.297-1.297 1.297h-.744v1.552h.744a1.3 1.3 0 0 1 1.297 1.297 1.3 1.3 0 0 1-1.297 1.298h-.744v2.741a1.3 1.3 0 0 1-1.298 1.298H28.818a1.299 1.299 0 0 1-1.298-1.298v-2.741h-.744a1.299 1.299 0 0 1-1.297-1.298c0-.715.582-1.297 1.297-1.297h.744v-1.552h-.744a1.299 1.299 0 0 1-1.297-1.297c0-.716.582-1.298 1.297-1.298h.744V64.05l.001-.004c.065-5.141-2.518-7.674-5.508-10.605-1.172-1.149-2.385-2.337-3.407-3.705a26.802 26.802 0 0 1-2.455-3.084 27.122 27.122 0 0 1-4.692-15.276c0-14.936 12.144-27.13 27.078-27.2zm-9.052 71.533h18.303v-2.074H29.485v2.074zm0-4.67h18.303v-1.551H29.485v1.551zm0-4.145h18.303v-2.116H29.485v2.116zm-1.311-33.02h8.974v-2.876a2.775 2.775 0 0 0-2.774-2.77 1.194 1.194 0 0 1 0-2.386 5.163 5.163 0 0 1 5.158 5.156v2.877h2.687c.658 0 1.193.535 1.193 1.192 0 .658-.535 1.193-1.193 1.193h-6.05c.012 2.605 2.133 4.745 4.742 4.745l4.73.008h6.53a2.333 2.333 0 0 0 2.33-2.33v-.093a2.333 2.333 0 0 0-2.33-2.33h-2.498a1.194 1.194 0 0 1-1.192-1.193c0-.657.535-1.192 1.192-1.192h2.672a2.774 2.774 0 0 0 2.77-2.77v-.107c0-1.34-.956-2.486-2.277-2.725a2.664 2.664 0 0 0-.493-.046h-6.522a5.164 5.164 0 0 1-5.158-5.158 1.194 1.194 0 0 1 2.385 0 2.777 2.777 0 0 0 2.774 2.773h6.521c.063 0 .126.001.19.004a2.794 2.794 0 0 0-.317-3.54l-.074-.073a2.793 2.793 0 0 0-2.878-.657 2.784 2.784 0 0 0-1.041.658c-.225.225-.525.35-.843.35a1.194 1.194 0 0 1-.843-2.036c.234-.235.494-.448.774-.636a2.753 2.753 0 0 0-2.243-2.595l-.093-.02a2.78 2.78 0 0 0-2.343.619c-.224.194-.415.421-.567.675a1.193 1.193 0 1 1-2.046-1.226c.112-.186.24-.37.38-.547a2.816 2.816 0 0 0-2.253-1.163h-.103c-.861 0-1.672.404-2.192 1.075a5.053 5.053 0 0 1 1.095 2.277c.17.725.61 1.341 1.242 1.736a1.194 1.194 0 0 1-.633 2.204 1.19 1.19 0 0 1-.63-.182 5.191 5.191 0 0 1-2.31-3.258 2.797 2.797 0 0 0-.993-1.645 2.797 2.797 0 0 0-1.74-.615c-.174 0-.35.017-.517.05l-.105.02a2.785 2.785 0 0 0-2.237 2.596c.279.186.538.399.773.634.226.225.35.525.35.844 0 .318-.124.618-.35.842-.224.226-.523.35-.842.35-.319 0-.618-.124-.844-.349a2.765 2.765 0 0 0-1.954-.812c-.734 0-1.45.296-1.966.812l-.074.073c-.943.943-1.063 2.452-.316 3.535h4.43a1.194 1.194 0 0 1 0 2.385h-4.677c-.06 0-.463.02-.463.02a2.746 2.746 0 0 0-2.474 2.75v.107a2.775 2.775 0 0 0 2.773 2.77h2.28m15.24 9.627c-3.985 0-7.228-3.26-7.24-7.241h-2.097l5.495 26.553H40.2l3.956-19.312H40.91zm-22.615 1.69c.68.996 1.448 1.958 2.282 2.858.034.037.063.073.09.11.904 1.214 2 2.29 3.161 3.428 2.908 2.85 5.912 5.795 6.255 11.226h4.334l-5.495-26.448h-5.539a5.268 5.268 0 0 1-5.264-5.26v-.107c0-2.106 1.205-3.95 3.063-4.79a5.28 5.28 0 0 1 1.166-5.66l.075-.075a5.305 5.305 0 0 1 4.212-1.516 5.283 5.283 0 0 1 4.139-4.083l.1-.02a5.268 5.268 0 0 1 3.03.313 5.23 5.23 0 0 1 4.133-2.002h.103c1.62 0 3.165.77 4.158 2.044a5.25 5.25 0 0 1 3.148-.355l.1.02a5.278 5.278 0 0 1 4.143 4.083 5.291 5.291 0 0 1 4.21 1.517l.074.074c1.56 1.56 1.957 3.959 1.05 5.93a5.245 5.245 0 0 1 2.574 4.52v.106a5.264 5.264 0 0 1-1.99 4.118 4.823 4.823 0 0 1 1.377 3.368v.093a4.826 4.826 0 0 1-4.82 4.82h-5.36l-3.954 19.31h4.396c.345-5.433 3.353-8.377 6.264-11.229 1.162-1.137 2.26-2.211 3.167-3.429.025-.034.054-.07.086-.104a25.589 25.589 0 0 0 2.28-2.86 24.578 24.578 0 0 0 4.238-13.816c0-13.53-11-24.563-24.528-24.611a1.257 1.257 0 0 1-.125.007c-13.55.019-24.574 11.056-24.574 24.604 0 4.945 1.466 9.723 4.24 13.816z" id="path6-3" fill="#fff" stroke-width=".2"/>
</svg>
