<svg xmlns="http://www.w3.org/2000/svg" height="82mm" width="56.102mm" version="1.1" viewBox="0 0 56.101608 82">
 <g transform="translate(-28.498 -77.87)">
  <g fill="#fff" transform="matrix(.60531 0 0 .60531 -29.478 24.661)">
   <g transform="matrix(.26458 0 0 .26458 74.386 87.904)">
    <g fill="#fff">
     <path fill="#fff" d="m363.43 36.98c-114.58-89.119-282.58-7.049-282.58 138.33 0 70.491 41.941 133.82 106.85 161.33 3.806 1.616 8.212-0.16 9.829-3.978 1.617-3.812-0.165-8.214-3.978-9.829-59.352-25.157-97.703-83.062-97.703-147.52 0-133.04 153.7-207.91 258.38-126.5 3.27 2.543 7.979 1.956 10.521-1.315 2.543-3.269 1.954-7.979-1.314-10.521z"/>
    </g>
   </g>
   <g transform="matrix(.26458 0 0 .26458 74.386 87.904)">
    <g fill="#fff">
     <path fill="#fff" d="m383.71 55.451c-2.836-3.02-7.58-3.169-10.599-0.334-3.019 2.834-3.168 7.58-0.334 10.599 27.97 29.79 43.372 68.713 43.372 109.6 0 64.458-38.351 122.36-97.703 147.52-7.497 3.176-5.178 14.403 2.929 14.403 0.977 0 1.969-0.191 2.923-0.597 64.908-27.514 106.85-90.839 106.85-161.33 0-44.713-16.847-87.28-47.436-119.86z"/>
    </g>
   </g>
   <g transform="matrix(.26458 0 0 .26458 74.386 87.904)">
    <g fill="#fff">
     <path fill="#fff" d="m256 48.861c-69.726 0-126.45 56.725-126.45 126.45 0 49.538 28.635 93.251 71.603 113.97 3.743 1.803 8.217 0.223 10.01-3.498 1.799-3.729 0.232-8.212-3.497-10.01-38.344-18.486-63.119-57.92-63.119-100.46 0-61.457 50-111.45 111.46-111.45 61.456 0 111.45 49.999 111.45 111.45 0 42.542-24.775 81.974-63.119 100.46-3.73 1.799-5.297 6.279-3.498 10.01 1.798 3.733 6.282 5.296 10.009 3.498 42.879-20.67 71.603-64.332 71.603-113.97 0-69.725-56.725-126.45-126.45-126.45z"/>
    </g>
   </g>
   <g transform="matrix(.26458 0 0 .26458 74.386 87.904)">
    <g fill="#fff">
     <path fill="#fff" d="m256 98.252c-42.492 0-77.062 34.569-77.062 77.06 0 26.412 13.31 50.692 35.607 64.95 1.251 0.801 2.649 1.183 4.033 1.183 2.472 0 4.893-1.223 6.323-3.459 2.231-3.489 1.212-8.126-2.277-10.356-17.964-11.488-28.689-31.046-28.689-52.316 0-34.223 27.843-62.065 62.065-62.065s62.065 27.843 62.065 62.065c0 21.268-10.726 40.825-28.691 52.315-6.311 4.036-3.396 13.815 4.047 13.815 6.331 0 39.641-23.917 39.641-66.131-0.001-42.492-34.571-77.061-77.062-77.061z"/>
    </g>
   </g>
   <g transform="matrix(.26458 0 0 .26458 74.386 87.904)">
    <g fill="#fff">
     <path fill="#fff" d="m363.48 455.66h-8.823v-7.831c0-10.749-8.746-19.495-19.495-19.495h-3.912c-3.037-10.407-62.532-214.26-65.756-225.31 10.35-3.864 17.741-13.848 17.741-25.529 0-15.02-12.221-27.24-27.241-27.24s-27.241 12.22-27.241 27.24c0 11.681 7.391 21.664 17.741 25.528l-65.75 225.31h-3.912c-10.749 0-19.495 8.746-19.495 19.495v7.831h-8.821c-10.974 0-19.901 8.927-19.901 19.899v16.537c0 10.973 8.928 19.9 19.901 19.9h164.49c4.142 0 7.498-3.356 7.498-7.498 0-4.141-3.356-7.498-7.498-7.498h-164.49c-2.704 0-4.905-2.199-4.905-4.904v-16.535c0-2.703 2.2-4.903 4.905-4.903h214.97c2.703 0 4.903 2.199 4.903 4.903v16.52c0 2.704-2.199 4.904-4.903 4.904h-22.146c-4.142 0-7.498 3.357-7.498 7.498 0 4.142 3.356 7.498 7.498 7.498h22.146c10.973 0 19.899-8.928 19.899-19.9v-16.537c0.001-10.973-8.926-19.9-19.899-19.9zm-60.908-72.066-33.83-24.609 21.981-15.991zm-22.036-75.505-13.158-11.518 7.803-6.83zm-36.77-130.58c0-6.751 5.493-12.244 12.245-12.244s12.245 5.493 12.245 12.244c0 6.752-5.492 12.245-12.245 12.245-6.751 0-12.245-5.493-12.245-12.245zm12.245 46.505 14.552 49.862-14.553 12.74-14.552-12.739zm-19.186 65.738 7.802 6.829-13.156 11.518zm19.185 16.795 26.938 23.582-26.937 19.595-26.938-19.596zm-34.728 36.458 21.982 15.991-33.832 24.609zm-17.281 112.67h-31.659v-7.831c0-2.48 2.018-4.499 4.499-4.499h22.661c2.48 0 4.499 2.018 4.499 4.499zm89.02-7.831v7.831h-74.026v-7.831c0-10.749-8.745-19.495-19.495-19.495h-3.127l6.188-21.196 53.449-38.881 53.448 38.881 6.186 21.197h-3.128c-10.749 0-19.495 8.745-19.495 19.494zm46.655 7.831h-31.659v-7.831c0-2.48 2.017-4.499 4.499-4.499h22.661c2.481 0 4.499 2.018 4.499 4.499z"/>
    </g>
   </g>
  </g>
 </g>
</svg>
