<svg xmlns="http://www.w3.org/2000/svg" width="200" height="160" fill="none"><rect width="200" height="56" y="52" fill="#fff" rx="4"/><rect width="199" height="55" x=".5" y="52.5" stroke="#000" stroke-opacity=".12" rx="3.5"/><g filter="url(#a)"><rect width="186" height="42" x="7" y="59" fill="#fff" fill-opacity=".76" rx="4"/><path fill="#3FA71A" d="M23 70c-5.52 0-10 4.48-10 10s4.48 10 10 10 10-4.48 10-10-4.48-10-10-10Zm-8 10c0-.61.08-1.21.21-1.78L19.99 83v1c0 1.1.9 2 2 2v1.93C18.06 87.43 15 84.07 15 80Zm13.89 5.4c-.26-.81-1-1.4-1.9-1.4h-1v-3c0-.55-.45-1-1-1h-6v-2h2c.55 0 1-.45 1-1v-2h2c1.1 0 2-.9 2-2v-.41C28.92 73.77 31 76.65 31 80c0 2.08-.81 3.98-2.11 5.4Z"/><path fill="#000" fill-opacity=".87" d="M46.907 67.047V77h-1.716l-4.464-7.13V77h-1.715v-9.953h1.715l4.478 7.143v-7.143h1.702Zm3.894 2.556V77h-1.654v-7.397H50.8Zm-1.764-1.94c0-.251.082-.459.246-.623.169-.169.401-.253.697-.253.292 0 .522.084.69.253a.831.831 0 0 1 .254.622.823.823 0 0 1-.253.615c-.169.164-.399.246-.69.246-.297 0-.53-.082-.698-.246a.834.834 0 0 1-.246-.615Zm7.21 1.94v1.204h-4.17v-1.204h4.17Zm-2.968-1.811h1.648v7.164c0 .228.032.403.096.526a.511.511 0 0 0 .28.24c.118.04.257.061.417.061.114 0 .223-.007.328-.02a3.29 3.29 0 0 0 .253-.041l.007 1.258a4.205 4.205 0 0 1-.479.109 3.514 3.514 0 0 1-.615.048c-.378 0-.713-.066-1.005-.198a1.48 1.48 0 0 1-.684-.664c-.164-.305-.246-.71-.246-1.216v-7.267Zm6.143 3.22V77h-1.648v-7.397h1.573l.075 1.409Zm2.263-1.456-.014 1.53a4.293 4.293 0 0 0-.67-.055c-.283.001-.53.042-.745.124a1.404 1.404 0 0 0-.54.342c-.142.146-.25.324-.328.533-.078.21-.123.445-.137.704l-.376.028c0-.465.046-.896.137-1.292a3.53 3.53 0 0 1 .41-1.046c.187-.301.42-.536.697-.704.283-.169.608-.253.978-.253.1 0 .207.009.321.027.118.018.207.039.267.062Zm.79 3.828v-.157c0-.534.077-1.028.232-1.484.155-.46.378-.859.67-1.196a3.024 3.024 0 0 1 1.08-.793 3.516 3.516 0 0 1 1.45-.287c.542 0 1.025.096 1.449.287.428.187.79.451 1.086.793.297.337.522.736.677 1.196.155.456.233.95.233 1.484v.157c0 .533-.078 1.028-.233 1.483a3.55 3.55 0 0 1-.677 1.197 3.136 3.136 0 0 1-1.08.792 3.54 3.54 0 0 1-1.442.28 3.607 3.607 0 0 1-1.456-.28 3.135 3.135 0 0 1-1.08-.792 3.551 3.551 0 0 1-.677-1.197 4.582 4.582 0 0 1-.232-1.483Zm1.647-.157v.157c0 .332.034.647.103.943a2.4 2.4 0 0 0 .32.78c.147.223.334.398.561.526.228.127.5.191.814.191.305 0 .57-.064.793-.191.228-.128.415-.303.56-.527.146-.223.253-.483.322-.779.073-.296.11-.61.11-.943v-.157c0-.329-.037-.639-.11-.93a2.387 2.387 0 0 0-.328-.786 1.57 1.57 0 0 0-.56-.533 1.544 1.544 0 0 0-.8-.199c-.31 0-.58.066-.807.199a1.587 1.587 0 0 0-.554.533c-.146.228-.253.49-.321.786a4.062 4.062 0 0 0-.103.93Zm11.598-3.624h1.497v7.192c0 .665-.141 1.23-.424 1.695a2.724 2.724 0 0 1-1.183 1.06c-.505.246-1.091.369-1.757.369-.282 0-.596-.041-.943-.123a3.865 3.865 0 0 1-.998-.397 2.474 2.474 0 0 1-.8-.704l.773-.97c.264.314.556.544.875.69.319.146.654.219 1.005.219.378 0 .7-.07.963-.212.27-.137.477-.34.623-.608.145-.27.218-.597.218-.985v-5.55l.15-1.675Zm-5.025 3.78v-.143c0-.56.069-1.07.205-1.531.137-.465.333-.864.588-1.196.255-.338.565-.595.93-.773a2.729 2.729 0 0 1 1.237-.273c.479 0 .887.086 1.224.26.342.173.626.421.854.745.228.319.406.702.534 1.148.132.442.23.934.294 1.477v.458a7.4 7.4 0 0 1-.301 1.449 4 4 0 0 1-.56 1.135c-.233.319-.52.565-.862.738-.337.173-.736.26-1.196.26-.452 0-.86-.094-1.224-.28a2.782 2.782 0 0 1-.93-.787 3.723 3.723 0 0 1-.588-1.19 5.238 5.238 0 0 1-.205-1.496Zm1.648-.143v.144c0 .337.032.651.096.943.068.292.17.55.307.773.141.218.32.392.533.52.219.122.477.184.773.184.387 0 .704-.082.95-.246.25-.164.442-.386.574-.664.137-.282.233-.597.287-.943v-1.237a3.023 3.023 0 0 0-.17-.752 2.011 2.011 0 0 0-.336-.609 1.399 1.399 0 0 0-.533-.41c-.214-.1-.467-.15-.759-.15-.296 0-.553.064-.772.191a1.569 1.569 0 0 0-.54.527c-.137.223-.24.483-.308.779a4.222 4.222 0 0 0-.102.95Zm10.093 3.897a3.944 3.944 0 0 1-1.483-.267 3.275 3.275 0 0 1-1.121-.759 3.364 3.364 0 0 1-.704-1.141 3.999 3.999 0 0 1-.246-1.415v-.274c0-.579.084-1.103.253-1.572.168-.47.403-.87.704-1.203.3-.337.656-.595 1.066-.773.41-.177.855-.266 1.333-.266.529 0 .992.089 1.388.266.396.178.725.429.984.752.265.32.46.7.588 1.142.132.442.199.93.199 1.463v.704h-5.715V72.61h4.087v-.13a2.312 2.312 0 0 0-.177-.834 1.417 1.417 0 0 0-.486-.628c-.218-.16-.51-.24-.875-.24-.273 0-.517.06-.731.178-.21.114-.385.28-.526.5a2.63 2.63 0 0 0-.329.792c-.072.305-.109.65-.109 1.032v.274c0 .323.043.624.13.902.091.274.223.513.397.718.173.205.382.367.628.485.246.114.527.171.841.171.397 0 .75-.08 1.06-.24.31-.159.579-.384.806-.676l.869.84c-.16.233-.367.457-.623.67-.255.21-.567.381-.936.514a3.727 3.727 0 0 1-1.272.198Zm6.13-5.954V77h-1.648v-7.397h1.552l.095 1.58Zm-.294 1.845-.534-.007a4.812 4.812 0 0 1 .219-1.442c.146-.437.346-.813.602-1.128.26-.314.57-.556.93-.724.36-.174.76-.26 1.202-.26.356 0 .677.05.964.15.292.096.54.253.745.472.21.219.37.503.479.854.11.347.164.773.164 1.279V77h-1.654v-4.785c0-.356-.053-.636-.158-.841a.88.88 0 0 0-.444-.444c-.191-.092-.43-.137-.718-.137-.282 0-.535.06-.758.178-.224.118-.413.28-.568.485-.15.205-.266.442-.349.711a2.938 2.938 0 0 0-.123.861Zm-44.913 18.44V82.5h1.655V93h-1.497l-.158-1.531Zm-4.812-2.084v-.144c0-.56.066-1.07.198-1.531.132-.465.324-.864.574-1.196.251-.338.556-.595.916-.773.36-.182.766-.273 1.217-.273.447 0 .839.086 1.176.26.337.173.624.421.861.745.237.319.426.702.568 1.148.14.442.241.934.3 1.477v.458a7.392 7.392 0 0 1-.3 1.449c-.142.437-.33.816-.568 1.135a2.453 2.453 0 0 1-.868.738c-.337.173-.731.26-1.183.26-.446 0-.85-.094-1.21-.28a2.674 2.674 0 0 1-.909-.787 3.703 3.703 0 0 1-.574-1.19 5.409 5.409 0 0 1-.198-1.496Zm1.647-.144v.144c0 .337.03.651.09.943.063.292.161.55.293.773.132.218.303.392.513.52.214.122.47.184.765.184.374 0 .682-.082.923-.246.242-.164.431-.386.568-.664a3.08 3.08 0 0 0 .287-.943v-1.237a3.018 3.018 0 0 0-.171-.752 2.013 2.013 0 0 0-.335-.609 1.412 1.412 0 0 0-.526-.41 1.65 1.65 0 0 0-.732-.15c-.3 0-.556.064-.766.191-.21.128-.382.303-.519.527a2.59 2.59 0 0 0-.294.779 4.508 4.508 0 0 0-.096.95Zm8.556-3.636V93h-1.654v-7.397h1.654Zm-1.764-1.942c0-.25.082-.458.246-.622.169-.169.401-.253.698-.253.291 0 .522.084.69.253a.831.831 0 0 1 .253.622.823.823 0 0 1-.253.615c-.168.164-.399.246-.69.246-.297 0-.529-.082-.698-.246a.835.835 0 0 1-.246-.615Zm3.504 5.722v-.157c0-.534.078-1.028.233-1.484.155-.46.378-.859.67-1.196a3.023 3.023 0 0 1 1.08-.793 3.515 3.515 0 0 1 1.449-.287c.542 0 1.025.096 1.45.287.428.187.79.451 1.086.793.296.337.522.736.677 1.196.155.456.232.95.232 1.484v.157c0 .533-.077 1.028-.232 1.483-.155.456-.38.855-.677 1.197a3.135 3.135 0 0 1-1.08.792 3.54 3.54 0 0 1-1.443.28 3.607 3.607 0 0 1-1.456-.28 3.136 3.136 0 0 1-1.08-.792 3.55 3.55 0 0 1-.676-1.197 4.579 4.579 0 0 1-.233-1.483Zm1.648-.157v.157c0 .332.034.647.102.943a2.4 2.4 0 0 0 .322.78c.145.223.332.398.56.526.228.127.5.191.813.191.306 0 .57-.064.793-.191.228-.128.415-.303.561-.527a2.4 2.4 0 0 0 .321-.779c.073-.296.11-.61.11-.943v-.157c0-.329-.037-.639-.11-.93a2.39 2.39 0 0 0-.328-.786 1.57 1.57 0 0 0-.56-.533 1.543 1.543 0 0 0-.8-.199c-.31 0-.579.066-.807.199a1.588 1.588 0 0 0-.553.533c-.146.228-.253.49-.322.786a4.067 4.067 0 0 0-.102.93Zm7.968-3.624 1.408 2.455 1.435-2.455h1.812l-2.242 3.63L64.849 93h-1.81l-1.505-2.557L60.03 93h-1.818l2.324-3.767-2.235-3.63h1.804Zm7.796 0V93h-1.654v-7.397h1.654Zm-1.763-1.94c0-.251.082-.459.246-.623.168-.169.4-.253.697-.253.292 0 .522.084.69.253a.831.831 0 0 1 .253.622.823.823 0 0 1-.253.615c-.168.164-.398.246-.69.246-.296 0-.529-.082-.697-.246a.834.834 0 0 1-.246-.615Zm8.33 7.806V82.5h1.654V93h-1.497l-.157-1.531Zm-4.813-2.085v-.144c0-.56.066-1.07.198-1.531.133-.465.324-.864.575-1.196.25-.338.556-.595.916-.773.36-.182.765-.273 1.216-.273.447 0 .84.086 1.176.26.338.173.625.421.862.745.237.319.426.702.567 1.148.141.442.242.934.3 1.477v.458a7.392 7.392 0 0 1-.3 1.449c-.141.437-.33.816-.567 1.135a2.451 2.451 0 0 1-.868.738c-.338.173-.732.26-1.183.26-.447 0-.85-.094-1.21-.28a2.674 2.674 0 0 1-.91-.787 3.703 3.703 0 0 1-.573-1.19 5.405 5.405 0 0 1-.199-1.496Zm1.648-.144v.144c0 .337.03.651.089.943.063.292.161.55.293.773.133.218.304.392.513.52.214.122.47.184.766.184.373 0 .681-.082.923-.246a1.68 1.68 0 0 0 .567-.664 3.08 3.08 0 0 0 .287-.943v-1.237a3.023 3.023 0 0 0-.17-.752 2.011 2.011 0 0 0-.336-.609 1.41 1.41 0 0 0-.526-.41 1.65 1.65 0 0 0-.731-.15c-.301 0-.556.064-.766.191-.21.128-.383.303-.52.527a2.59 2.59 0 0 0-.294.779 4.508 4.508 0 0 0-.095.95Zm10.052 3.897a3.944 3.944 0 0 1-1.483-.267 3.273 3.273 0 0 1-1.121-.759 3.361 3.361 0 0 1-.704-1.141 3.997 3.997 0 0 1-.246-1.415v-.274c0-.579.084-1.103.253-1.572.168-.47.403-.87.704-1.203.3-.337.656-.595 1.066-.773.41-.177.855-.266 1.333-.266.529 0 .991.089 1.388.266.396.178.724.429.984.752.265.32.46.7.588 1.142.132.442.198.93.198 1.463v.704h-5.714V88.61h4.087v-.13a2.314 2.314 0 0 0-.177-.834 1.417 1.417 0 0 0-.486-.628c-.218-.16-.51-.24-.875-.24-.273 0-.517.06-.731.178-.21.114-.385.28-.526.5-.142.218-.251.482-.329.792-.072.305-.109.65-.109 1.032v.274c0 .323.043.624.13.902.091.274.223.513.396.718.174.205.383.367.63.485.245.114.526.171.84.171.397 0 .75-.08 1.06-.24.31-.159.579-.384.806-.676l.868.84c-.159.233-.366.457-.622.67-.255.21-.567.381-.936.514a3.727 3.727 0 0 1-1.272.198Z"/><path fill="#3FA71A" d="M111.125 72.446V86h-2.236V75.1l-3.312 1.122v-1.846l5.279-1.93h.269Zm13.599 5.668v2.208c0 1.058-.106 1.96-.316 2.71-.204.741-.501 1.344-.891 1.808a3.489 3.489 0 0 1-1.4 1.02c-.538.217-1.142.326-1.809.326a5.192 5.192 0 0 1-1.485-.205 3.618 3.618 0 0 1-1.224-.64 3.816 3.816 0 0 1-.937-1.122c-.254-.464-.452-1.018-.594-1.66-.136-.644-.204-1.39-.204-2.237v-2.208c0-1.064.105-1.96.315-2.69.21-.736.51-1.333.9-1.79.39-.465.854-.802 1.392-1.012a5.006 5.006 0 0 1 1.818-.315c.538 0 1.033.068 1.484.204.458.13.866.337 1.225.621.365.285.674.656.928 1.114.259.451.457.999.593 1.642.137.637.205 1.379.205 2.226Zm-2.236 2.524V77.78c0-.538-.031-1.011-.093-1.42a4.244 4.244 0 0 0-.278-1.047 2.088 2.088 0 0 0-.446-.706 1.563 1.563 0 0 0-.612-.398 2.165 2.165 0 0 0-.77-.13c-.346 0-.656.068-.928.204-.272.13-.501.34-.686.63-.186.291-.328.675-.427 1.151-.093.47-.139 1.042-.139 1.716v2.858c0 .544.031 1.023.093 1.438.061.414.154.77.278 1.067.124.29.272.531.445.723.18.186.384.322.613.408.235.087.491.13.77.13.352 0 .664-.068.937-.204.272-.136.501-.352.686-.65.186-.302.325-.695.418-1.177.092-.483.139-1.061.139-1.735Zm15.73-4.676h2.245V86h-2.069l-.176-2.32v-7.718Zm.325 5.371.881-.018c0 .705-.068 1.354-.204 1.948a4.786 4.786 0 0 1-.612 1.55 2.94 2.94 0 0 1-1.039 1.02c-.421.241-.919.362-1.494.362-.458 0-.869-.065-1.234-.195a2.45 2.45 0 0 1-.946-.63c-.266-.285-.486-.657-.659-1.114l-.288-2.533h1.271c0 .557.047 1.011.14 1.364.092.352.222.625.389.816.167.186.362.316.585.39.229.074.476.111.742.111.489 0 .891-.074 1.206-.222.322-.155.572-.368.751-.64.186-.279.316-.603.39-.975.08-.377.121-.788.121-1.233Zm-6.55-5.371h2.226v13.897h-2.226V75.962Zm17.615 0h2.032v9.76c0 .903-.191 1.67-.575 2.3a3.692 3.692 0 0 1-1.605 1.438c-.686.334-1.481.501-2.384.501-.384 0-.81-.055-1.28-.167a5.245 5.245 0 0 1-1.355-.538 3.349 3.349 0 0 1-1.085-.955l1.048-1.318c.359.427.754.74 1.187.937.433.198.888.297 1.364.297.514 0 .95-.096 1.308-.287.365-.186.647-.461.845-.826.197-.365.296-.81.296-1.336v-7.533l.204-2.273Zm-6.818 5.13v-.195c0-.76.092-1.453.278-2.078.186-.63.451-1.172.798-1.623a3.476 3.476 0 0 1 1.262-1.049c.494-.247 1.054-.37 1.679-.37.649 0 1.203.117 1.66.352.464.235.851.572 1.16 1.011.309.433.551.953.724 1.559.179.6.312 1.268.399 2.004v.621a10.06 10.06 0 0 1-.409 1.967 5.418 5.418 0 0 1-.76 1.54 3.25 3.25 0 0 1-1.169 1.002c-.458.235-.999.353-1.624.353a3.583 3.583 0 0 1-1.66-.38 3.771 3.771 0 0 1-1.262-1.068 5.05 5.05 0 0 1-.798-1.614 7.092 7.092 0 0 1-.278-2.032Zm2.235-.195v.195c0 .458.044.885.13 1.28.093.396.232.746.418 1.049.192.297.433.532.723.705.297.167.647.25 1.049.25.526 0 .955-.11 1.289-.334.341-.222.6-.522.78-.9.185-.383.315-.81.389-1.28v-1.679a4.073 4.073 0 0 0-.232-1.02 2.716 2.716 0 0 0-.454-.826 1.899 1.899 0 0 0-.724-.557c-.291-.136-.634-.204-1.03-.204-.402 0-.751.087-1.048.26a2.13 2.13 0 0 0-.733.714 3.526 3.526 0 0 0-.417 1.058 5.71 5.71 0 0 0-.14 1.29Zm14.907-8.405-5.26 14.668h-1.754l5.27-14.668h1.744Zm3.885 5.51V86h-2.236V75.962h2.106l.13 2.04Zm-.362 2.608-.76-.01c0-.692.086-1.332.259-1.92a4.629 4.629 0 0 1 .761-1.53 3.35 3.35 0 0 1 1.243-1.012c.501-.241 1.08-.362 1.735-.362.458 0 .875.068 1.253.205.383.13.714.337.992.621.285.285.501.65.65 1.095.154.445.232.983.232 1.614V86h-2.236v-6.494c0-.489-.074-.872-.223-1.15a1.232 1.232 0 0 0-.621-.594c-.266-.124-.585-.186-.956-.186-.42 0-.779.08-1.076.241-.291.161-.529.38-.714.66a2.95 2.95 0 0 0-.409.964c-.086.365-.13.754-.13 1.169Zm6.226-.594-1.049.232c0-.606.084-1.178.251-1.716.173-.544.423-1.02.751-1.429.334-.414.745-.74 1.234-.974.489-.235 1.048-.353 1.679-.353a4.1 4.1 0 0 1 1.373.214c.409.136.755.352 1.039.65.285.296.501.683.65 1.159.148.47.222 1.039.222 1.707V86h-2.245v-6.503c0-.508-.074-.9-.222-1.179a1.158 1.158 0 0 0-.613-.575 2.465 2.465 0 0 0-.955-.167c-.347 0-.653.065-.919.195-.259.124-.479.3-.658.529a2.35 2.35 0 0 0-.409.77c-.086.29-.129.606-.129.946Zm9.906-4.518h.807c.266 0 .485-.037.659-.111a.885.885 0 0 0 .389-.325.834.834 0 0 0 .139-.482.787.787 0 0 0-.259-.585c-.167-.173-.449-.26-.845-.26a1.44 1.44 0 0 0-.77.195.586.586 0 0 0-.306.529h-1.688c0-.44.123-.813.371-1.123.247-.309.578-.544.992-.705.415-.16.866-.24 1.355-.24.563 0 1.058.08 1.484.24.427.155.758.387.993.696.241.31.362.693.362 1.15 0 .353-.112.665-.334.938-.217.272-.52.485-.909.64-.384.148-.835.222-1.355.222h-1.085v-.779Zm0 1.16v-.761h1.085c.575 0 1.067.068 1.475.204.408.13.718.331.928.603.216.272.325.625.325 1.058 0 .457-.13.847-.39 1.169-.26.321-.615.566-1.067.733-.445.167-.946.25-1.503.25-.464 0-.915-.074-1.354-.223a2.512 2.512 0 0 1-1.076-.723c-.279-.328-.418-.758-.418-1.29h1.698c0 .241.111.449.334.622.222.173.522.26.9.26.402 0 .699-.087.89-.26a.865.865 0 0 0 .297-.668c0-.235-.055-.424-.167-.566a.863.863 0 0 0-.454-.306 2.142 2.142 0 0 0-.696-.102h-.807Z"/></g><defs><filter id="a" width="198" height="54" x="1" y="53" color-interpolation-filters="sRGB" filterUnits="userSpaceOnUse"><feFlood flood-opacity="0" result="BackgroundImageFix"/><feGaussianBlur in="BackgroundImageFix" stdDeviation="3"/><feComposite in2="SourceAlpha" operator="in" result="effect1_backgroundBlur_1062_2562"/><feBlend in="SourceGraphic" in2="effect1_backgroundBlur_1062_2562" result="shape"/></filter></defs></svg>