<svg xmlns="http://www.w3.org/2000/svg" width="200" height="160" fill="none"><rect width="200" height="56" y="52" fill="#fff" rx="4"/><rect width="199" height="55" x=".5" y="52.5" stroke="#000" stroke-opacity=".12" rx="3.5"/><g filter="url(#a)"><rect width="184" height="40" x="8" y="60" fill="#fff" fill-opacity=".76" rx="4"/><path fill="#FFA600" d="M24 70c-5.52 0-10 4.48-10 10s4.48 10 10 10 10-4.48 10-10-4.48-10-10-10Zm-8 10c0-.61.08-1.21.21-1.78L20.99 83v1c0 1.1.9 2 2 2v1.93C19.06 87.43 16 84.07 16 80Zm13.89 5.4c-.26-.81-1-1.4-1.9-1.4h-1v-3c0-.55-.45-1-1-1h-6v-2h2c.55 0 1-.45 1-1v-2h2c1.1 0 2-.9 2-2v-.41C29.92 73.77 32 76.65 32 80c0 2.08-.81 3.98-2.11 5.4Z"/><path fill="#000" fill-opacity=".87" d="M48.948 79.75v.547c0 .752-.098 1.426-.294 2.023a4.366 4.366 0 0 1-.84 1.525c-.36.419-.794.74-1.3.964a4.194 4.194 0 0 1-1.681.328c-.61 0-1.169-.11-1.675-.328a3.762 3.762 0 0 1-1.306-.964 4.477 4.477 0 0 1-.86-1.525c-.201-.597-.302-1.271-.302-2.023v-.547c0-.752.1-1.424.301-2.017.2-.597.483-1.105.848-1.524.369-.424.804-.745 1.306-.964a4.102 4.102 0 0 1 1.674-.335 4.12 4.12 0 0 1 1.682.335c.506.219.941.54 1.306.964.364.42.645.927.84 1.524.201.593.301 1.265.301 2.017Zm-1.716.547v-.56c0-.557-.054-1.047-.164-1.47-.104-.429-.262-.786-.471-1.074a1.972 1.972 0 0 0-.76-.656c-.3-.15-.64-.226-1.018-.226s-.715.076-1.011.226a2.04 2.04 0 0 0-.76.656 3.19 3.19 0 0 0-.47 1.074c-.11.423-.165.913-.165 1.47v.56c0 .556.055 1.048.164 1.476.11.429.269.791.479 1.087.214.292.47.513.765.663a2.26 2.26 0 0 0 1.012.22c.383 0 .722-.074 1.019-.22.296-.15.546-.371.752-.663.205-.296.36-.658.464-1.087.11-.428.164-.92.164-1.476Zm9.24 3.39V85h-5.51v-1.313h5.51Zm-.15-5.058L51.521 85h-1.066v-1.06l4.771-6.337h1.094v1.026Zm-.637-1.026v1.313h-5.147v-1.313h5.148Zm1.932 3.78v-.156c0-.534.078-1.028.233-1.484.155-.46.378-.859.67-1.196a3.025 3.025 0 0 1 1.08-.793 3.516 3.516 0 0 1 1.449-.287c.542 0 1.025.096 1.449.287.428.187.79.451 1.087.793.296.337.522.736.677 1.196.155.456.232.95.232 1.484v.157c0 .533-.077 1.028-.232 1.483a3.55 3.55 0 0 1-.677 1.197 3.137 3.137 0 0 1-1.08.792 3.54 3.54 0 0 1-1.443.28 3.607 3.607 0 0 1-1.456-.28 3.136 3.136 0 0 1-1.08-.792 3.55 3.55 0 0 1-.676-1.197 4.582 4.582 0 0 1-.233-1.483Zm1.648-.156v.157c0 .332.034.647.102.943.069.296.176.556.322.78.145.223.332.398.56.526.228.127.499.191.813.191.306 0 .57-.064.794-.191.227-.128.414-.303.56-.527a2.4 2.4 0 0 0 .321-.779c.073-.296.11-.61.11-.943v-.157c0-.329-.037-.639-.11-.93a2.39 2.39 0 0 0-.328-.786 1.57 1.57 0 0 0-.56-.533 1.543 1.543 0 0 0-.8-.199c-.31 0-.579.066-.807.199a1.587 1.587 0 0 0-.553.533c-.146.228-.254.49-.322.786a4.062 4.062 0 0 0-.102.93Zm8.494-2.044V85H66.11v-7.397h1.552l.096 1.58Zm-.294 1.845-.533-.007a4.812 4.812 0 0 1 .218-1.442 3.55 3.55 0 0 1 .602-1.128c.26-.314.57-.556.93-.724a2.74 2.74 0 0 1 1.203-.26c.355 0 .676.05.964.15.291.096.54.253.745.472.21.219.369.503.478.854.11.347.164.773.164 1.279V85h-1.654v-4.785c0-.356-.052-.636-.157-.841a.88.88 0 0 0-.444-.444c-.192-.092-.431-.137-.718-.137-.283 0-.536.06-.76.178-.222.118-.412.28-.567.485-.15.205-.266.442-.348.711a2.938 2.938 0 0 0-.123.861Zm9.964 4.109a3.944 3.944 0 0 1-1.484-.267 3.275 3.275 0 0 1-1.12-.759 3.364 3.364 0 0 1-.705-1.141 3.999 3.999 0 0 1-.246-1.415v-.274c0-.579.084-1.103.253-1.572.169-.47.403-.87.704-1.203.3-.337.656-.595 1.066-.773.41-.177.855-.266 1.334-.266.528 0 .99.089 1.387.266.397.178.725.429.985.752.264.32.46.7.587 1.142.133.442.199.93.199 1.463v.704h-5.715V80.61h4.088v-.13a2.312 2.312 0 0 0-.178-.834 1.417 1.417 0 0 0-.485-.628c-.22-.16-.51-.24-.875-.24-.274 0-.518.06-.732.178-.21.114-.385.28-.526.5-.141.218-.25.482-.328.792-.073.305-.11.65-.11 1.032v.274c0 .323.044.624.13.902.091.274.224.513.397.718.173.205.382.367.629.485.246.114.526.171.84.171.397 0 .75-.08 1.06-.24.31-.159.579-.384.807-.676l.868.84c-.16.233-.367.457-.622.67-.255.21-.568.381-.937.514a3.727 3.727 0 0 1-1.271.198Z"/><path fill="#FFA600" d="M95.5 72.732V87h-2.353V75.525l-3.487 1.182v-1.943l5.557-2.032h.283Zm11.467 0V87h-2.353V75.525l-3.487 1.182v-1.943l5.557-2.032h.283Zm14.309 5.967v2.324c0 1.114-.111 2.064-.332 2.852-.215.781-.527 1.416-.937 1.904a3.685 3.685 0 0 1-1.475 1.075c-.566.227-1.201.341-1.904.341-.56 0-1.081-.071-1.563-.214a3.82 3.82 0 0 1-1.289-.674 4.022 4.022 0 0 1-.986-1.182c-.267-.488-.475-1.071-.625-1.748-.143-.677-.215-1.462-.215-2.354V78.7c0-1.12.111-2.064.332-2.832.221-.775.537-1.403.947-1.885a3.61 3.61 0 0 1 1.465-1.064c.573-.221 1.211-.332 1.914-.332.567 0 1.087.072 1.563.215.481.136.911.355 1.289.654.384.3.709.69.976 1.172.274.475.482 1.051.625 1.729.144.67.215 1.451.215 2.343Zm-2.353 2.657v-3.008c0-.567-.033-1.065-.098-1.495a4.431 4.431 0 0 0-.293-1.103 2.201 2.201 0 0 0-.469-.742 1.649 1.649 0 0 0-.644-.42 2.276 2.276 0 0 0-.811-.137c-.364 0-.69.072-.976.215a1.752 1.752 0 0 0-.723.664c-.195.306-.345.71-.449 1.211-.098.495-.147 1.097-.147 1.807v3.008c0 .572.033 1.077.098 1.513.065.436.163.81.293 1.123.13.306.286.56.469.762.188.195.403.338.644.43.248.09.518.136.811.136.371 0 .7-.071.986-.214.287-.144.527-.372.723-.684.195-.32.342-.733.439-1.24.098-.508.147-1.117.147-1.826Zm16.547-4.922h2.364V87h-2.178l-.186-2.441v-8.125Zm.342 5.654.928-.02c0 .743-.072 1.426-.215 2.051a5.033 5.033 0 0 1-.645 1.631c-.286.462-.651.82-1.093 1.074-.443.254-.967.381-1.573.381-.481 0-.914-.068-1.298-.205a2.572 2.572 0 0 1-.996-.664c-.28-.3-.512-.69-.694-1.172l-.303-2.666h1.338c0 .586.049 1.064.147 1.436.097.37.234.657.41.859.176.195.381.332.615.41.241.078.502.117.781.117.515 0 .938-.078 1.27-.234.339-.163.602-.387.791-.674a2.83 2.83 0 0 0 .41-1.025c.085-.397.127-.83.127-1.3Zm-6.894-5.654h2.343v14.629h-2.343v-14.63Zm18.537 0h2.139v10.273c0 .95-.202 1.758-.606 2.422a3.89 3.89 0 0 1-1.689 1.514c-.723.351-1.559.527-2.51.527-.404 0-.853-.059-1.348-.176a5.512 5.512 0 0 1-1.425-.566 3.534 3.534 0 0 1-1.143-1.006l1.104-1.387c.377.45.794.778 1.25.987a3.41 3.41 0 0 0 1.435.312c.54 0 .999-.1 1.377-.303a2.05 2.05 0 0 0 .889-.869c.208-.384.312-.853.312-1.406v-7.93l.215-2.392Zm-7.178 5.4v-.205c0-.8.098-1.53.293-2.188.196-.664.476-1.233.84-1.709.365-.481.807-.85 1.328-1.103.521-.26 1.11-.39 1.768-.39.683 0 1.266.123 1.748.37.488.248.895.603 1.221 1.065.325.456.579 1.002.761 1.64.189.632.329 1.335.42 2.11v.654a10.581 10.581 0 0 1-.429 2.07 5.717 5.717 0 0 1-.801 1.621 3.412 3.412 0 0 1-1.231 1.055c-.481.248-1.051.371-1.709.371a3.778 3.778 0 0 1-1.748-.4 3.98 3.98 0 0 1-1.328-1.123 5.346 5.346 0 0 1-.84-1.7 7.493 7.493 0 0 1-.293-2.138Zm2.354-.205v.205c0 .482.045.931.137 1.348.097.416.244.784.439 1.103.202.313.456.56.762.742.312.176.68.264 1.103.264.554 0 1.006-.117 1.358-.352.358-.234.631-.55.82-.947a4.8 4.8 0 0 0 .41-1.348v-1.767a4.3 4.3 0 0 0-.244-1.074 2.887 2.887 0 0 0-.478-.87 2 2 0 0 0-.762-.585c-.306-.144-.668-.215-1.084-.215-.423 0-.791.091-1.104.273a2.246 2.246 0 0 0-.771.752 3.71 3.71 0 0 0-.44 1.114 6.064 6.064 0 0 0-.146 1.357Zm15.686-8.848-5.537 15.44h-1.846l5.547-15.44h1.836Zm4.084 5.801V87h-2.353V76.434h2.216l.137 2.148Zm-.381 2.744-.8-.01c0-.729.091-1.403.273-2.021a4.841 4.841 0 0 1 .801-1.611 3.52 3.52 0 0 1 1.308-1.065c.528-.254 1.136-.38 1.827-.38.481 0 .921.07 1.318.214a2.61 2.61 0 0 1 1.045.654c.299.3.527.684.683 1.153.163.468.245 1.035.245 1.699V87h-2.354v-6.836c0-.514-.078-.918-.234-1.21a1.3 1.3 0 0 0-.655-.626c-.28-.13-.615-.195-1.006-.195-.442 0-.82.084-1.132.254-.306.169-.557.4-.752.693a3.088 3.088 0 0 0-.43 1.016 5.326 5.326 0 0 0-.137 1.23Zm6.553-.625-1.103.244c0-.638.087-1.24.263-1.806a4.6 4.6 0 0 1 .791-1.504 3.72 3.72 0 0 1 1.299-1.026c.514-.247 1.104-.37 1.768-.37.54 0 1.022.074 1.445.224.43.143.794.371 1.094.684.299.312.527.719.683 1.22.157.495.235 1.094.235 1.797V87h-2.364v-6.846c0-.534-.078-.947-.234-1.24a1.217 1.217 0 0 0-.645-.605c-.279-.118-.615-.176-1.005-.176-.365 0-.687.068-.967.205-.274.13-.505.316-.694.556a2.482 2.482 0 0 0-.429.811 3.48 3.48 0 0 0-.137.996Zm10.422-4.756h.85c.28 0 .511-.039.693-.117a.93.93 0 0 0 .41-.342.877.877 0 0 0 .147-.508.827.827 0 0 0-.274-.615c-.175-.182-.472-.273-.888-.273-.319 0-.589.068-.811.205a.616.616 0 0 0-.322.557h-1.777c0-.463.13-.857.39-1.182a2.435 2.435 0 0 1 1.045-.742c.436-.17.912-.254 1.426-.254.592 0 1.113.084 1.562.254.45.163.798.407 1.045.732.254.326.381.73.381 1.211 0 .371-.117.7-.351.986-.228.287-.547.511-.957.674-.404.156-.879.235-1.426.235h-1.143v-.82Zm0 1.221v-.8h1.143c.605 0 1.123.07 1.553.214.429.137.755.348.976.635.228.286.342.657.342 1.113 0 .482-.137.892-.41 1.23-.274.34-.648.596-1.123.772a4.48 4.48 0 0 1-1.582.264c-.489 0-.964-.078-1.426-.235a2.652 2.652 0 0 1-1.133-.761c-.293-.345-.439-.798-.439-1.358h1.787c0 .254.117.472.351.654.235.183.551.274.948.274.423 0 .735-.091.937-.274a.912.912 0 0 0 .313-.703c0-.247-.059-.446-.176-.595a.911.911 0 0 0-.479-.323 2.251 2.251 0 0 0-.732-.107h-.85Z"/></g><defs><filter id="a" width="196" height="52" x="2" y="54" color-interpolation-filters="sRGB" filterUnits="userSpaceOnUse"><feFlood flood-opacity="0" result="BackgroundImageFix"/><feGaussianBlur in="BackgroundImageFix" stdDeviation="3"/><feComposite in2="SourceAlpha" operator="in" result="effect1_backgroundBlur_1057_238"/><feBlend in="SourceGraphic" in2="effect1_backgroundBlur_1057_238" result="shape"/></filter></defs></svg>