<svg xmlns="http://www.w3.org/2000/svg" width="200" height="160" fill="none"><rect width="200" height="56" y="52" fill="#fff" rx="4"/><rect width="199" height="55" x=".5" y="52.5" stroke="#000" stroke-opacity=".12" rx="3.5"/><g filter="url(#a)"><rect width="186" height="42" x="7" y="59" fill="#fff" fill-opacity=".76" rx="4"/><path fill="#D81838" d="M19 75c-1.1 0-2 .9-2 2v6a2 2 0 0 0 2 2h3v-2h-3v-6h3v-2h-3Zm6 0c-1.1 0-2 .9-2 2v6a2 2 0 0 0 2 2h2c1.11 0 2-.89 2-2v-6a2 2 0 0 0-2-2h-2Zm0 2h2v6h-2v-6Z"/><path fill="#000" fill-opacity=".87" d="M44.398 72.991h1.587a3.662 3.662 0 0 1-.508 1.619c-.287.47-.691.84-1.212 1.11-.52.272-1.153.407-1.898.407a3.76 3.76 0 0 1-1.542-.305 3.382 3.382 0 0 1-1.175-.876 3.962 3.962 0 0 1-.749-1.377 5.984 5.984 0 0 1-.254-1.803v-.768c0-.664.087-1.265.26-1.803.178-.537.432-.996.762-1.377.33-.385.726-.68 1.187-.882a3.882 3.882 0 0 1 1.568-.305c.737 0 1.359.135 1.867.406.507.27.9.645 1.18 1.124a3.98 3.98 0 0 1 .52 1.644h-1.586a2.934 2.934 0 0 0-.28-1.022 1.44 1.44 0 0 0-.622-.648c-.275-.152-.634-.228-1.079-.228-.364 0-.681.067-.952.203-.27.135-.497.334-.679.597-.182.262-.32.586-.413.97-.089.382-.133.817-.133 1.308v.781c0 .466.04.889.12 1.27.085.376.212.7.382.97.173.272.393.481.66.63.266.147.586.221.958.221.453 0 .819-.072 1.098-.215.284-.144.498-.354.641-.629.149-.28.246-.62.292-1.022Zm7.004 1.632v-3.276c0-.245-.044-.457-.133-.635a.933.933 0 0 0-.406-.412c-.178-.097-.402-.146-.673-.146-.25 0-.466.042-.648.127a1.047 1.047 0 0 0-.425.343.827.827 0 0 0-.152.488H47.44c0-.27.066-.533.197-.787s.322-.48.572-.679a2.85 2.85 0 0 1 .895-.47 3.722 3.722 0 0 1 1.168-.171c.516 0 .973.087 1.37.26.403.174.718.436.946.787.233.347.35.783.35 1.308v3.053c0 .313.02.595.063.844.046.246.112.46.197.641V76H51.63a2.705 2.705 0 0 1-.172-.628 5.13 5.13 0 0 1-.057-.75Zm.222-2.8.013.946H50.54c-.284 0-.533.027-.749.083-.216.05-.396.126-.54.228a.992.992 0 0 0-.431.857c0 .182.042.35.127.502a.89.89 0 0 0 .368.349c.165.084.364.127.597.127.313 0 .586-.064.819-.19.237-.132.423-.29.558-.477.136-.19.207-.37.216-.54l.495.68c-.05.173-.138.36-.26.558a2.71 2.71 0 0 1-.483.572 2.402 2.402 0 0 1-1.644.61 2.62 2.62 0 0 1-1.2-.268 2.134 2.134 0 0 1-.825-.73 1.893 1.893 0 0 1-.298-1.047c0-.364.068-.686.203-.965.14-.283.343-.52.61-.71.27-.191.6-.335.99-.432.39-.102.834-.153 1.333-.153h1.2Zm4.7-1.383V76h-1.53v-6.868h1.46l.07 1.307Zm2.101-1.353-.012 1.422a3.962 3.962 0 0 0-.622-.05c-.263 0-.493.038-.692.114a1.304 1.304 0 0 0-.502.317c-.131.136-.233.3-.305.495a2.213 2.213 0 0 0-.127.654l-.349.025c0-.431.043-.831.127-1.2.085-.367.212-.691.381-.97.174-.28.39-.498.648-.654.262-.157.565-.235.907-.235.093 0 .193.008.299.025.11.017.192.036.247.057Zm1.215-2.837h1.53v8.284L61.024 76H59.64v-9.75Zm6.011 6.252v.134c0 .508-.057.975-.171 1.403-.11.423-.28.79-.508 1.104a2.352 2.352 0 0 1-.838.73c-.33.17-.713.254-1.149.254-.427 0-.8-.08-1.117-.241a2.221 2.221 0 0 1-.8-.686 3.802 3.802 0 0 1-.514-1.06 6.998 6.998 0 0 1-.28-1.358v-.426c.056-.499.149-.952.28-1.358.131-.41.303-.764.514-1.06.216-.3.48-.531.794-.692.317-.16.688-.241 1.11-.241.44 0 .828.085 1.162.254.339.17.62.41.844.723.225.31.392.677.502 1.105.114.427.171.9.171 1.415Zm-1.53.134v-.134c0-.308-.025-.598-.076-.87a2.283 2.283 0 0 0-.254-.723 1.272 1.272 0 0 0-.47-.489c-.194-.122-.437-.184-.73-.184-.27 0-.503.047-.697.14-.195.093-.358.22-.49.38-.13.162-.234.348-.31.56-.072.211-.12.44-.146.685v1.149c.038.317.118.61.241.876.127.262.305.474.533.635.229.156.523.234.883.234.283 0 .522-.057.717-.17.194-.115.349-.274.463-.477.119-.207.203-.449.254-.724.055-.275.083-.57.083-.888Zm2.783.006v-.146c0-.495.072-.954.216-1.377.144-.428.351-.798.622-1.111.275-.318.61-.563 1.003-.736a3.265 3.265 0 0 1 1.346-.267c.503 0 .952.089 1.346.267.397.173.734.418 1.009.736.275.313.484.683.628 1.11.144.424.216.883.216 1.378v.146c0 .495-.072.954-.216 1.377a3.296 3.296 0 0 1-.628 1.111c-.275.314-.61.559-1.003.737-.394.173-.84.26-1.34.26a3.35 3.35 0 0 1-1.352-.26 2.912 2.912 0 0 1-1.002-.737 3.297 3.297 0 0 1-.629-1.11 4.252 4.252 0 0 1-.216-1.378Zm1.53-.146v.146c0 .309.032.601.095.876.064.275.163.516.299.724.135.207.309.37.52.489.212.118.463.177.755.177.284 0 .53-.059.737-.177.211-.119.385-.282.52-.49.136-.207.235-.448.299-.723.067-.275.101-.567.101-.876v-.146a3.55 3.55 0 0 0-.101-.863 2.217 2.217 0 0 0-.305-.73 1.456 1.456 0 0 0-.52-.495 1.433 1.433 0 0 0-.743-.184c-.288 0-.538.061-.75.184a1.474 1.474 0 0 0-.513.495 2.304 2.304 0 0 0-.299.73c-.063.27-.095.558-.095.863Zm7.905-1.898V76h-1.53v-6.868h1.442l.088 1.466Zm-.273 1.714-.495-.006c.005-.487.072-.933.203-1.34.136-.406.322-.755.559-1.047.241-.292.529-.516.863-.673.335-.16.707-.241 1.118-.241.33 0 .628.046.895.14.27.088.501.234.691.438.195.203.343.467.445.793.101.322.152.717.152 1.187V76h-1.536v-4.443c0-.33-.049-.59-.146-.781a.816.816 0 0 0-.413-.413 1.546 1.546 0 0 0-.666-.127 1.48 1.48 0 0 0-.705.165c-.207.11-.383.26-.527.451-.14.19-.247.41-.323.66-.076.25-.115.516-.115.8Zm-35.75 14.216V92h-1.529v-6.868h1.441l.089 1.396Zm-.247 1.784-.52-.006c0-.474.06-.912.178-1.314s.292-.751.52-1.048c.229-.3.512-.53.85-.692a2.705 2.705 0 0 1 1.188-.247c.313 0 .599.046.857.14.262.088.488.23.679.425.195.195.343.444.444.749.106.305.159.673.159 1.104V92h-1.53v-4.443c0-.335-.05-.597-.152-.788a.844.844 0 0 0-.426-.406 1.54 1.54 0 0 0-.653-.127c-.288 0-.534.055-.737.165-.199.11-.361.26-.489.451-.127.19-.22.41-.279.66a3.46 3.46 0 0 0-.089.8Zm4.26-.406-.718.158c0-.414.058-.806.172-1.174.118-.372.29-.698.514-.977.228-.284.51-.506.844-.667a2.62 2.62 0 0 1 1.149-.241c.351 0 .664.049.94.146.279.093.516.241.71.444.195.203.343.468.445.794.101.321.152.71.152 1.168V92h-1.536v-4.45c0-.347-.05-.615-.152-.806a.79.79 0 0 0-.42-.393 1.689 1.689 0 0 0-.653-.115c-.237 0-.447.045-.629.134a1.247 1.247 0 0 0-.45.361 1.614 1.614 0 0 0-.28.527c-.059.2-.088.415-.088.648Zm5.74.736v-.146c0-.495.072-.954.216-1.377.144-.428.351-.798.622-1.111.275-.318.61-.563 1.003-.736a3.265 3.265 0 0 1 1.346-.267c.503 0 .952.089 1.346.267.397.173.734.418 1.009.736.275.313.484.683.628 1.11.144.424.216.883.216 1.378v.146c0 .495-.072.954-.216 1.377a3.296 3.296 0 0 1-.628 1.111 2.91 2.91 0 0 1-1.003.737c-.394.173-.84.26-1.34.26a3.35 3.35 0 0 1-1.352-.26 2.91 2.91 0 0 1-1.002-.737 3.294 3.294 0 0 1-.629-1.11 4.252 4.252 0 0 1-.216-1.378Zm1.53-.146v.146c0 .309.032.601.095.876.064.275.163.516.299.724.135.207.309.37.52.489.212.118.464.177.756.177.283 0 .529-.059.736-.177.212-.119.385-.282.52-.49.136-.207.235-.448.299-.723.067-.275.101-.567.101-.876v-.146a3.55 3.55 0 0 0-.101-.863 2.215 2.215 0 0 0-.305-.73 1.456 1.456 0 0 0-.52-.495 1.432 1.432 0 0 0-.743-.184c-.288 0-.538.061-.75.184a1.474 1.474 0 0 0-.513.495 2.304 2.304 0 0 0-.299.73c-.063.27-.095.558-.095.863Zm7.905-1.898V92h-1.53v-6.868h1.442l.088 1.466Zm-.273 1.714-.495-.006a4.47 4.47 0 0 1 .204-1.34 3.3 3.3 0 0 1 .558-1.047c.241-.292.529-.516.863-.673.335-.16.707-.241 1.117-.241.33 0 .629.046.895.14.271.088.502.234.692.438.195.203.343.467.445.793.101.322.152.717.152 1.187V92h-1.536v-4.443c0-.33-.049-.59-.146-.781a.817.817 0 0 0-.413-.413 1.547 1.547 0 0 0-.666-.127c-.263 0-.497.055-.705.165-.207.11-.383.26-.527.451-.14.19-.247.41-.323.66-.076.25-.115.516-.115.8Zm5.95.33v-.146c0-.495.073-.954.216-1.377.144-.428.352-.798.622-1.111.276-.318.61-.563 1.003-.736a3.265 3.265 0 0 1 1.346-.267c.504 0 .952.089 1.346.267.398.173.734.418 1.01.736.274.313.484.683.628 1.11.143.424.215.883.215 1.378v.146c0 .495-.072.954-.215 1.377a3.296 3.296 0 0 1-.629 1.111 2.91 2.91 0 0 1-1.003.737c-.393.173-.84.26-1.34.26a3.35 3.35 0 0 1-1.351-.26 2.912 2.912 0 0 1-1.003-.737 3.294 3.294 0 0 1-.629-1.11 4.252 4.252 0 0 1-.215-1.378Zm1.53-.146v.146c0 .309.032.601.096.876.063.275.163.516.298.724.135.207.309.37.52.489.212.118.464.177.756.177.283 0 .529-.059.736-.177.212-.119.385-.282.52-.49.136-.207.236-.448.299-.723.068-.275.102-.567.102-.876v-.146a3.55 3.55 0 0 0-.102-.863 2.215 2.215 0 0 0-.305-.73 1.456 1.456 0 0 0-.52-.495 1.432 1.432 0 0 0-.743-.184c-.288 0-.537.061-.749.184a1.474 1.474 0 0 0-.514.495 2.304 2.304 0 0 0-.298.73c-.064.27-.096.558-.096.863Zm7.417-3.364 1.308 2.279 1.333-2.28h1.682l-2.082 3.371L78.533 92h-1.682l-1.396-2.374L74.058 92H72.37l2.158-3.498-2.076-3.37h1.676Zm7.258 0V92H79.85v-6.868h1.536Zm-1.638-1.803c0-.233.076-.425.229-.578.156-.156.372-.234.647-.234.27 0 .485.078.641.234a.772.772 0 0 1 .235.578.764.764 0 0 1-.235.571c-.156.153-.37.229-.641.229-.275 0-.49-.076-.647-.229a.775.775 0 0 1-.229-.57Zm7.753 7.25V82.25h1.536V92h-1.39l-.146-1.422Zm-4.469-1.937v-.133c0-.52.062-.995.184-1.422.123-.432.3-.802.534-1.11.232-.314.516-.553.85-.718.334-.17.711-.254 1.13-.254.415 0 .779.08 1.092.241.313.16.58.392.8.692.22.296.395.652.526 1.066.132.41.225.868.28 1.371v.426c-.055.49-.148.94-.28 1.346a3.613 3.613 0 0 1-.526 1.053c-.22.296-.49.525-.807.686-.313.16-.679.241-1.098.241-.414 0-.789-.087-1.123-.26a2.484 2.484 0 0 1-.844-.73 3.437 3.437 0 0 1-.534-1.105 5.02 5.02 0 0 1-.184-1.39Zm1.53-.133v.133c0 .313.028.605.082.876.06.27.15.51.273.717.123.204.282.364.477.483.198.114.435.171.71.171.347 0 .633-.076.857-.228.225-.153.4-.358.527-.616.132-.262.22-.554.267-.876V88.02a2.805 2.805 0 0 0-.159-.698 1.871 1.871 0 0 0-.31-.565 1.31 1.31 0 0 0-.49-.381 1.532 1.532 0 0 0-.679-.14c-.28 0-.516.06-.71.178a1.443 1.443 0 0 0-.483.489 2.406 2.406 0 0 0-.273.723 4.18 4.18 0 0 0-.089.883Zm9.353 3.618c-.508 0-.967-.083-1.378-.248a3.042 3.042 0 0 1-1.04-.704 3.123 3.123 0 0 1-.655-1.06 3.71 3.71 0 0 1-.228-1.314v-.254c0-.538.078-1.024.235-1.46.156-.436.374-.808.653-1.117.28-.313.61-.552.99-.718a3.08 3.08 0 0 1 1.239-.247c.49 0 .92.082 1.288.247.368.166.673.398.914.699.245.296.427.65.546 1.06.123.41.184.863.184 1.358v.654h-5.307v-1.098h3.796v-.12a2.146 2.146 0 0 0-.165-.775 1.316 1.316 0 0 0-.45-.584c-.204-.148-.474-.222-.813-.222-.254 0-.48.055-.68.165-.194.106-.357.26-.488.463a2.438 2.438 0 0 0-.305.736 4.138 4.138 0 0 0-.101.959v.254c0 .3.04.58.12.838.085.254.208.476.369.666.16.19.355.34.584.45.228.107.488.16.78.16.369 0 .697-.075.984-.223.288-.148.538-.357.75-.628l.806.78c-.149.217-.341.424-.578.623a2.892 2.892 0 0 1-.87.476 3.46 3.46 0 0 1-1.18.184Z"/><path fill="#D81838" d="M111.365 73.124h.264v1.732h-.15c-.755 0-1.409.117-1.959.351a3.62 3.62 0 0 0-1.345.967c-.352.41-.615.89-.791 1.441a5.812 5.812 0 0 0-.255 1.74v2.013c0 .51.056.961.167 1.354.111.386.266.712.466.975.205.258.439.454.703.59.264.134.548.201.852.201a1.9 1.9 0 0 0 .862-.193c.258-.135.477-.32.659-.554.182-.234.319-.513.413-.835.094-.322.141-.674.141-1.054 0-.364-.047-.704-.141-1.02a2.548 2.548 0 0 0-.396-.844 1.807 1.807 0 0 0-.659-.571 1.841 1.841 0 0 0-.896-.21c-.422 0-.806.099-1.152.298-.339.2-.615.46-.826.782a2.019 2.019 0 0 0-.334 1.01l-.808-.263a4.55 4.55 0 0 1 .36-1.468c.199-.433.46-.802.782-1.107a3.304 3.304 0 0 1 1.116-.694 3.901 3.901 0 0 1 1.407-.246c.621 0 1.16.117 1.617.351.457.234.835.554 1.134.958.304.399.53.856.676 1.371.153.51.229 1.043.229 1.6a5.17 5.17 0 0 1-.281 1.722c-.188.528-.463.99-.826 1.39a3.713 3.713 0 0 1-1.31.93c-.51.224-1.09.335-1.74.335-.686 0-1.298-.132-1.837-.396a4.037 4.037 0 0 1-1.362-1.09 4.948 4.948 0 0 1-.844-1.6 6.223 6.223 0 0 1-.29-1.915v-.88c0-.972.123-1.889.369-2.75a6.722 6.722 0 0 1 1.134-2.294 5.3 5.3 0 0 1 1.977-1.556c.803-.38 1.761-.571 2.874-.571Zm12.273 5.405v2.092c0 1.002-.1 1.858-.299 2.567-.193.703-.474 1.274-.843 1.713-.37.44-.812.762-1.328.967a4.555 4.555 0 0 1-1.714.308 4.92 4.92 0 0 1-1.406-.194 3.444 3.444 0 0 1-1.16-.606 3.622 3.622 0 0 1-.888-1.064c-.24-.439-.427-.963-.562-1.573-.129-.61-.193-1.315-.193-2.118V78.53c0-1.007.099-1.857.298-2.548.2-.698.484-1.263.853-1.697.369-.44.808-.759 1.318-.958.516-.199 1.09-.299 1.723-.299.51 0 .978.065 1.406.194.434.123.82.319 1.16.589.346.27.639.62.879 1.054.246.428.434.947.563 1.556.129.603.193 1.307.193 2.11Zm-2.118 2.39v-2.706c0-.51-.029-.958-.088-1.345a3.966 3.966 0 0 0-.264-.993 1.974 1.974 0 0 0-.422-.668 1.477 1.477 0 0 0-.58-.378 2.045 2.045 0 0 0-.729-.123 1.94 1.94 0 0 0-.879.193 1.574 1.574 0 0 0-.65.598c-.176.275-.311.639-.405 1.09-.088.445-.132.987-.132 1.626v2.707c0 .516.03.97.088 1.362.059.393.147.73.264 1.011.117.275.258.504.422.685.17.176.363.305.58.387.223.082.466.123.729.123.334 0 .63-.064.888-.193a1.63 1.63 0 0 0 .651-.615c.175-.287.307-.66.395-1.117a8.827 8.827 0 0 0 .132-1.643Zm10.931-2.495V86h-2.118v-9.51h1.995l.123 1.934Zm-.342 2.47-.721-.01c0-.656.082-1.262.246-1.819.164-.556.404-1.04.721-1.45a3.168 3.168 0 0 1 1.177-.958c.475-.228 1.023-.343 1.644-.343.434 0 .829.065 1.186.194.364.123.677.32.941.589a2.6 2.6 0 0 1 .615 1.037c.147.422.22.931.22 1.53V86h-2.118v-6.152c0-.463-.071-.826-.211-1.09a1.17 1.17 0 0 0-.589-.563 2.133 2.133 0 0 0-.905-.175c-.399 0-.739.076-1.02.228-.275.152-.501.36-.677.624a2.81 2.81 0 0 0-.386.914 4.788 4.788 0 0 0-.123 1.108Zm5.897-.563-.993.22c0-.574.079-1.116.237-1.626.164-.516.402-.967.712-1.354.317-.392.706-.7 1.169-.923.463-.222.993-.334 1.591-.334.486 0 .92.068 1.301.203.386.129.714.334.984.615.27.281.475.647.615 1.099.141.445.211.984.211 1.617V86h-2.127v-6.161c0-.48-.07-.853-.211-1.116a1.09 1.09 0 0 0-.58-.545 2.337 2.337 0 0 0-.905-.159 1.96 1.96 0 0 0-.87.185 1.728 1.728 0 0 0-.624.501c-.17.211-.299.454-.387.73a3.13 3.13 0 0 0-.123.896Zm14.198-3.84h1.925v9.245c0 .856-.182 1.582-.545 2.18a3.51 3.51 0 0 1-1.521 1.362c-.65.317-1.403.475-2.259.475-.363 0-.767-.053-1.213-.158a4.975 4.975 0 0 1-1.283-.51 3.179 3.179 0 0 1-1.028-.905l.993-1.248c.34.404.715.7 1.125.887.41.188.841.282 1.292.282.486 0 .899-.091 1.239-.273.346-.176.613-.436.8-.782.188-.346.281-.768.281-1.266v-7.136l.194-2.154Zm-6.46 4.86v-.185c0-.72.088-1.377.263-1.969.176-.597.428-1.11.756-1.538a3.296 3.296 0 0 1 1.196-.993c.468-.234.999-.352 1.59-.352.616 0 1.14.112 1.574.334.439.223.805.542 1.098.958.293.41.522.903.686 1.477.17.568.296 1.201.378 1.898v.59a9.47 9.47 0 0 1-.387 1.863 5.147 5.147 0 0 1-.721 1.459c-.298.41-.668.726-1.107.949-.434.222-.946.334-1.538.334-.58 0-1.105-.12-1.573-.36a3.581 3.581 0 0 1-1.196-1.011 4.795 4.795 0 0 1-.756-1.53 6.761 6.761 0 0 1-.263-1.924Zm2.118-.185v.185c0 .433.041.838.123 1.213.088.375.22.706.395.993.182.28.411.504.686.668.281.158.612.237.993.237.498 0 .905-.106 1.222-.317a2.05 2.05 0 0 0 .738-.852c.176-.363.299-.768.369-1.213v-1.59a3.891 3.891 0 0 0-.219-.968 2.591 2.591 0 0 0-.431-.782 1.797 1.797 0 0 0-.686-.527 2.278 2.278 0 0 0-.975-.194c-.381 0-.712.083-.993.247-.282.164-.513.39-.695.676a3.343 3.343 0 0 0-.395 1.002c-.088.381-.132.788-.132 1.222Zm14.127-7.963L157.006 87.1h-1.661l4.992-13.896h1.652Zm3.686 5.22V86h-2.118v-9.51h1.995l.123 1.934Zm-.343 2.47-.72-.008c0-.657.082-1.263.246-1.82.164-.556.404-1.04.721-1.45a3.16 3.16 0 0 1 1.177-.958c.475-.228 1.023-.343 1.644-.343.433 0 .829.065 1.186.194.364.123.677.32.941.589.269.27.474.615.615 1.037.146.422.22.931.22 1.53V86h-2.118v-6.152c0-.463-.071-.826-.211-1.09a1.17 1.17 0 0 0-.589-.563 2.134 2.134 0 0 0-.906-.175c-.398 0-.738.076-1.019.228-.275.152-.501.36-.677.624a2.79 2.79 0 0 0-.387.914 4.788 4.788 0 0 0-.123 1.108Zm5.898-.562-.993.22c0-.574.079-1.116.237-1.626.164-.516.401-.967.712-1.354.316-.392.706-.7 1.169-.923.463-.222.993-.334 1.591-.334.486 0 .92.068 1.3.203.387.129.715.334.985.615.269.281.474.647.615 1.099.141.445.211.984.211 1.617V86h-2.127v-6.161c0-.48-.07-.853-.211-1.116a1.094 1.094 0 0 0-.58-.545 2.34 2.34 0 0 0-.905-.159 1.96 1.96 0 0 0-.87.185 1.728 1.728 0 0 0-.624.501c-.17.211-.299.454-.387.73a3.13 3.13 0 0 0-.123.896Zm9.39-4.28h.765c.252 0 .46-.035.624-.106a.843.843 0 0 0 .369-.307.79.79 0 0 0 .132-.457.744.744 0 0 0-.247-.554c-.158-.164-.424-.246-.799-.246-.287 0-.531.061-.73.184a.556.556 0 0 0-.29.501h-1.599c0-.416.117-.77.351-1.063.234-.293.548-.516.941-.668.392-.152.82-.229 1.283-.229.533 0 1.002.077 1.406.229.404.146.718.366.94.66.229.292.343.655.343 1.089 0 .334-.105.63-.316.888-.205.258-.492.46-.862.606-.363.14-.791.211-1.283.211h-1.028v-.738Zm0 1.098v-.72h1.028c.545 0 1.011.064 1.398.193.386.123.679.314.879.571.205.258.307.592.307 1.002 0 .434-.123.803-.369 1.108-.246.304-.583.536-1.011.694a4.029 4.029 0 0 1-1.423.237c-.44 0-.868-.07-1.284-.21a2.38 2.38 0 0 1-1.019-.686c-.264-.31-.396-.718-.396-1.222h1.609c0 .229.105.425.316.59.211.163.495.245.853.245.38 0 .662-.082.843-.246a.819.819 0 0 0 .282-.633c0-.222-.053-.401-.159-.536a.818.818 0 0 0-.43-.29 2.03 2.03 0 0 0-.659-.097h-.765Z"/></g><defs><filter id="a" width="198" height="54" x="1" y="53" color-interpolation-filters="sRGB" filterUnits="userSpaceOnUse"><feFlood flood-opacity="0" result="BackgroundImageFix"/><feGaussianBlur in="BackgroundImageFix" stdDeviation="3"/><feComposite in2="SourceAlpha" operator="in" result="effect1_backgroundBlur_1073_3960"/><feBlend in="SourceGraphic" in2="effect1_backgroundBlur_1073_3960" result="shape"/></filter></defs></svg>