<svg xmlns="http://www.w3.org/2000/svg" width="200" height="160" fill="none"><rect width="200" height="56" y="52" fill="#fff" rx="4"/><rect width="199" height="55" x=".5" y="52.5" stroke="#000" stroke-opacity=".12" rx="3.5"/><g filter="url(#a)"><rect width="186" height="42" x="7" y="59" fill="#fff" fill-opacity=".76" rx="4"/><path fill="#3FA71A" d="M23 70c-5.52 0-10 4.48-10 10s4.48 10 10 10 10-4.48 10-10-4.48-10-10-10Zm-8 10c0-.61.08-1.21.21-1.78L19.99 83v1c0 1.1.9 2 2 2v1.93C18.06 87.43 15 84.07 15 80Zm13.89 5.4c-.26-.81-1-1.4-1.9-1.4h-1v-3c0-.55-.45-1-1-1h-6v-2h2c.55 0 1-.45 1-1v-2h2c1.1 0 2-.9 2-2v-.41C28.92 73.77 31 76.65 31 80c0 2.08-.81 3.98-2.11 5.4Z"/><path fill="#000" fill-opacity=".87" d="M44.248 74.436c0-.205-.032-.387-.096-.546a1.068 1.068 0 0 0-.32-.438 2.655 2.655 0 0 0-.657-.383 8.708 8.708 0 0 0-1.067-.39 11.796 11.796 0 0 1-1.312-.485 4.996 4.996 0 0 1-1.04-.629 2.69 2.69 0 0 1-.69-.827 2.316 2.316 0 0 1-.246-1.087c0-.405.085-.774.253-1.107.173-.333.417-.62.732-.861a3.5 3.5 0 0 1 1.128-.568 4.751 4.751 0 0 1 1.435-.205c.738 0 1.374.137 1.907.41.538.274.95.64 1.238 1.1.291.461.437.97.437 1.525h-1.702c0-.328-.07-.617-.212-.868a1.436 1.436 0 0 0-.629-.601c-.278-.146-.631-.22-1.06-.22-.405 0-.742.062-1.011.185a1.35 1.35 0 0 0-.602.5c-.132.21-.198.446-.198.71 0 .187.043.358.13.513.087.15.219.292.397.424.177.128.4.248.67.362.268.114.585.224.95.328a9.416 9.416 0 0 1 1.442.547c.41.196.752.42 1.025.67.274.25.479.536.616.855.136.314.205.672.205 1.073 0 .42-.085.797-.253 1.135a2.45 2.45 0 0 1-.725.854c-.31.232-.683.412-1.12.54a5.294 5.294 0 0 1-1.45.185c-.479 0-.95-.064-1.415-.192a4.175 4.175 0 0 1-1.258-.58 3.003 3.003 0 0 1-.902-.985c-.224-.397-.335-.86-.335-1.388h1.715c0 .324.055.6.165.827.114.228.27.415.471.56.2.142.433.247.698.315.268.069.556.103.86.103.402 0 .737-.057 1.006-.171.273-.114.478-.273.615-.479.137-.205.205-.442.205-.71Zm7.776.82v-5.653h1.655V77H52.12l-.096-1.743Zm.233-1.537.553-.014c0 .497-.054.955-.163 1.374-.11.415-.279.777-.506 1.087-.228.305-.52.545-.875.718-.356.168-.782.253-1.279.253-.36 0-.69-.053-.99-.157a2.03 2.03 0 0 1-.78-.486 2.208 2.208 0 0 1-.5-.854c-.118-.351-.177-.77-.177-1.258v-4.779h1.648v4.793c0 .268.031.494.095.676.064.178.15.322.26.43.11.11.237.188.383.233.146.046.3.069.465.069.469 0 .838-.091 1.107-.274.274-.187.467-.437.581-.752.119-.314.178-.667.178-1.06ZM57.38 66.5V77h-1.654V66.5h1.654ZM61.664 77h-1.647v-8.107c0-.552.102-1.014.307-1.388a2.03 2.03 0 0 1 .896-.855c.387-.196.845-.294 1.374-.294.164 0 .326.012.485.035.16.018.315.047.465.088l-.041 1.272a1.885 1.885 0 0 0-.3-.048 3.967 3.967 0 0 0-.343-.014c-.25 0-.467.048-.65.144a.948.948 0 0 0-.41.403 1.427 1.427 0 0 0-.136.657V77Zm1.524-7.397v1.204h-4.306v-1.204h4.306Zm5.897 5.654v-5.654h1.654V77h-1.558l-.096-1.743Zm.232-1.538.554-.014c0 .497-.055.955-.164 1.374-.11.415-.278.777-.506 1.087-.228.305-.52.545-.875.718-.355.168-.781.253-1.278.253-.36 0-.69-.053-.991-.157-.301-.105-.56-.267-.78-.486a2.21 2.21 0 0 1-.499-.854c-.118-.351-.177-.77-.177-1.258v-4.779h1.647v4.793c0 .268.032.494.096.676.064.178.15.322.26.43.109.11.237.188.382.233.146.046.301.069.465.069.47 0 .839-.091 1.108-.274.273-.187.467-.437.58-.752.12-.314.178-.667.178-1.06Zm5.015-2.707V77h-1.647v-7.397h1.572l.075 1.409Zm2.263-1.456-.014 1.53a4.29 4.29 0 0 0-.67-.055c-.282.001-.53.042-.745.124a1.403 1.403 0 0 0-.54.342c-.141.146-.25.324-.328.533-.078.21-.123.445-.137.704l-.376.028c0-.465.046-.896.137-1.292.091-.397.228-.745.41-1.046.187-.301.42-.536.697-.704a1.87 1.87 0 0 1 .978-.253c.1 0 .207.009.321.027.119.018.207.039.267.062ZM43.359 91.469V82.5h1.655V93h-1.497l-.158-1.531Zm-4.812-2.085v-.144c0-.56.066-1.07.198-1.531.132-.465.324-.864.574-1.196.251-.338.556-.595.916-.773.36-.182.766-.273 1.217-.273.447 0 .839.086 1.176.26.337.173.624.421.861.745.237.319.426.702.568 1.148.14.442.241.934.3 1.477v.458a7.392 7.392 0 0 1-.3 1.449c-.142.437-.33.816-.568 1.135a2.453 2.453 0 0 1-.868.738c-.337.173-.731.26-1.183.26-.446 0-.85-.094-1.21-.28a2.674 2.674 0 0 1-.909-.787 3.703 3.703 0 0 1-.574-1.19 5.409 5.409 0 0 1-.198-1.496Zm1.647-.144v.144c0 .337.03.651.09.943.063.292.161.55.293.773.132.218.303.392.513.52.214.122.47.184.765.184.374 0 .682-.082.923-.246.242-.164.431-.386.568-.664a3.08 3.08 0 0 0 .287-.943v-1.237a3.018 3.018 0 0 0-.171-.752 2.013 2.013 0 0 0-.335-.609 1.412 1.412 0 0 0-.526-.41 1.65 1.65 0 0 0-.732-.15c-.3 0-.556.064-.766.191-.21.128-.382.303-.519.527a2.59 2.59 0 0 0-.294.779 4.508 4.508 0 0 0-.096.95Zm8.556-3.636V93h-1.654v-7.397h1.654Zm-1.764-1.942c0-.25.082-.458.246-.622.169-.169.401-.253.698-.253.291 0 .522.084.69.253a.831.831 0 0 1 .253.622.823.823 0 0 1-.253.615c-.168.164-.399.246-.69.246-.297 0-.529-.082-.698-.246a.835.835 0 0 1-.246-.615Zm3.504 5.722v-.157c0-.534.078-1.028.233-1.484.155-.46.378-.859.67-1.196a3.023 3.023 0 0 1 1.08-.793 3.515 3.515 0 0 1 1.449-.287c.542 0 1.025.096 1.45.287.428.187.79.451 1.086.793.296.337.522.736.677 1.196.155.456.232.95.232 1.484v.157c0 .533-.077 1.028-.232 1.483-.155.456-.38.855-.677 1.197a3.135 3.135 0 0 1-1.08.792 3.54 3.54 0 0 1-1.443.28 3.607 3.607 0 0 1-1.456-.28 3.136 3.136 0 0 1-1.08-.792 3.55 3.55 0 0 1-.676-1.197 4.579 4.579 0 0 1-.233-1.483Zm1.648-.157v.157c0 .332.034.647.102.943a2.4 2.4 0 0 0 .322.78c.145.223.332.398.56.526.228.127.5.191.813.191.306 0 .57-.064.793-.191.228-.128.415-.303.561-.527a2.4 2.4 0 0 0 .321-.779c.073-.296.11-.61.11-.943v-.157c0-.329-.037-.639-.11-.93a2.39 2.39 0 0 0-.328-.786 1.57 1.57 0 0 0-.56-.533 1.543 1.543 0 0 0-.8-.199c-.31 0-.579.066-.807.199a1.588 1.588 0 0 0-.553.533c-.146.228-.253.49-.322.786a4.067 4.067 0 0 0-.102.93Zm7.968-3.624 1.408 2.455 1.435-2.455h1.812l-2.242 3.63L64.849 93h-1.81l-1.505-2.557L60.03 93h-1.818l2.324-3.767-2.235-3.63h1.804Zm7.796 0V93h-1.654v-7.397h1.654Zm-1.763-1.94c0-.251.082-.459.246-.623.168-.169.4-.253.697-.253.292 0 .522.084.69.253a.831.831 0 0 1 .253.622.823.823 0 0 1-.253.615c-.168.164-.398.246-.69.246-.296 0-.529-.082-.697-.246a.834.834 0 0 1-.246-.615Zm8.33 7.806V82.5h1.654V93h-1.497l-.157-1.531Zm-4.813-2.085v-.144c0-.56.066-1.07.198-1.531.133-.465.324-.864.575-1.196.25-.338.556-.595.916-.773.36-.182.765-.273 1.216-.273.447 0 .84.086 1.176.26.338.173.625.421.862.745.237.319.426.702.567 1.148.141.442.242.934.3 1.477v.458a7.392 7.392 0 0 1-.3 1.449c-.141.437-.33.816-.567 1.135a2.451 2.451 0 0 1-.868.738c-.338.173-.732.26-1.183.26-.447 0-.85-.094-1.21-.28a2.674 2.674 0 0 1-.91-.787 3.703 3.703 0 0 1-.573-1.19 5.405 5.405 0 0 1-.199-1.496Zm1.648-.144v.144c0 .337.03.651.089.943.063.292.161.55.293.773.133.218.304.392.513.52.214.122.47.184.766.184.373 0 .681-.082.923-.246a1.68 1.68 0 0 0 .567-.664 3.08 3.08 0 0 0 .287-.943v-1.237a3.023 3.023 0 0 0-.17-.752 2.011 2.011 0 0 0-.336-.609 1.41 1.41 0 0 0-.526-.41 1.65 1.65 0 0 0-.731-.15c-.301 0-.556.064-.766.191-.21.128-.383.303-.52.527a2.59 2.59 0 0 0-.294.779 4.508 4.508 0 0 0-.095.95Zm10.052 3.897a3.944 3.944 0 0 1-1.483-.267 3.273 3.273 0 0 1-1.121-.759 3.361 3.361 0 0 1-.704-1.141 3.997 3.997 0 0 1-.246-1.415v-.274c0-.579.084-1.103.253-1.572.168-.47.403-.87.704-1.203.3-.337.656-.595 1.066-.773.41-.177.855-.266 1.333-.266.529 0 .991.089 1.388.266.396.178.724.429.984.752.265.32.46.7.588 1.142.132.442.198.93.198 1.463v.704h-5.714V88.61h4.087v-.13a2.314 2.314 0 0 0-.177-.834 1.417 1.417 0 0 0-.486-.628c-.218-.16-.51-.24-.875-.24-.273 0-.517.06-.731.178-.21.114-.385.28-.526.5-.142.218-.251.482-.329.792-.072.305-.109.65-.109 1.032v.274c0 .323.043.624.13.902.091.274.223.513.396.718.174.205.383.367.63.485.245.114.526.171.84.171.397 0 .75-.08 1.06-.24.31-.159.579-.384.806-.676l.868.84c-.159.233-.366.457-.622.67-.255.21-.567.381-.936.514a3.727 3.727 0 0 1-1.272.198Z"/><path fill="#3FA71A" d="m103.545 80.389-1.875-.46.771-7.148h7.666v1.992h-5.712l-.391 3.487c.221-.13.527-.257.918-.381a4.22 4.22 0 0 1 1.338-.195c.67 0 1.269.11 1.797.332.533.215.986.53 1.357.947.371.41.654.911.85 1.504.195.586.293 1.246.293 1.982a5.69 5.69 0 0 1-.293 1.846 4.306 4.306 0 0 1-.86 1.514 3.95 3.95 0 0 1-1.455 1.025c-.579.24-1.266.361-2.06.361a5.744 5.744 0 0 1-1.709-.254 4.642 4.642 0 0 1-1.455-.771 3.938 3.938 0 0 1-1.036-1.27c-.26-.507-.41-1.09-.449-1.748h2.305c.059.463.185.856.381 1.182.202.319.469.563.801.732.332.17.716.254 1.152.254.397 0 .739-.068 1.025-.205.287-.143.524-.345.713-.605a2.7 2.7 0 0 0 .43-.938 4.51 4.51 0 0 0 .146-1.191c0-.417-.055-.798-.166-1.143a2.478 2.478 0 0 0-.478-.898 2.053 2.053 0 0 0-.791-.586 2.672 2.672 0 0 0-1.104-.215c-.56 0-.989.081-1.289.244a4.043 4.043 0 0 0-.82.606Zm18.264-1.69v2.324c0 1.114-.111 2.064-.332 2.852-.215.781-.527 1.416-.938 1.904-.41.489-.901.847-1.474 1.075-.567.227-1.201.341-1.904.341-.56 0-1.081-.071-1.563-.214a3.82 3.82 0 0 1-1.289-.674 4.022 4.022 0 0 1-.986-1.182c-.267-.488-.476-1.071-.625-1.748-.144-.677-.215-1.462-.215-2.354V78.7c0-1.12.11-2.064.332-2.832.221-.775.537-1.403.947-1.885a3.61 3.61 0 0 1 1.465-1.064c.573-.221 1.211-.332 1.914-.332.566 0 1.087.072 1.563.215.481.136.911.355 1.289.654.384.3.709.69.976 1.172.274.475.482 1.051.625 1.729.143.67.215 1.451.215 2.343Zm-2.354 2.657v-3.008c0-.567-.032-1.065-.097-1.495a4.431 4.431 0 0 0-.293-1.103 2.201 2.201 0 0 0-.469-.742 1.656 1.656 0 0 0-.644-.42 2.28 2.28 0 0 0-.811-.137c-.365 0-.69.072-.977.215a1.755 1.755 0 0 0-.722.664c-.196.306-.345.71-.449 1.211-.098.495-.147 1.097-.147 1.807v3.008c0 .572.033 1.077.098 1.513.065.436.163.81.293 1.123.13.306.286.56.468.762.189.195.404.338.645.43.247.09.518.136.811.136.371 0 .699-.071.986-.214.286-.144.527-.372.723-.684.195-.32.341-.733.439-1.24.098-.508.146-1.117.146-1.826Zm16.548-4.922h2.363V87h-2.177l-.186-2.441v-8.125Zm.342 5.654.928-.02c0 .743-.072 1.426-.215 2.051a5.033 5.033 0 0 1-.645 1.631c-.286.462-.651.82-1.093 1.074-.443.254-.967.381-1.573.381a3.86 3.86 0 0 1-1.299-.205 2.58 2.58 0 0 1-.996-.664c-.28-.3-.511-.69-.693-1.172l-.303-2.666h1.338c0 .586.049 1.064.147 1.436.097.37.234.657.41.859.176.195.381.332.615.41.241.078.501.117.781.117.515 0 .938-.078 1.27-.234a1.92 1.92 0 0 0 .791-.674 2.83 2.83 0 0 0 .41-1.025c.085-.397.127-.83.127-1.3Zm-6.895-5.654h2.344v14.629h-2.344v-14.63Zm18.538 0h2.139v10.273c0 .95-.202 1.758-.606 2.422a3.896 3.896 0 0 1-1.689 1.514c-.723.351-1.56.527-2.51.527-.404 0-.853-.059-1.348-.176a5.533 5.533 0 0 1-1.426-.566 3.541 3.541 0 0 1-1.142-1.006l1.103-1.387c.378.45.795.778 1.25.987.456.208.935.312 1.436.312.54 0 .999-.1 1.377-.303a2.05 2.05 0 0 0 .889-.869c.208-.384.312-.853.312-1.406v-7.93l.215-2.392Zm-7.178 5.4v-.205c0-.8.098-1.53.293-2.188.195-.664.475-1.233.84-1.709.365-.481.807-.85 1.328-1.103.521-.26 1.11-.39 1.768-.39.683 0 1.266.123 1.748.37.488.248.895.603 1.22 1.065.326.456.58 1.002.762 1.64.189.632.329 1.335.42 2.11v.654a10.58 10.58 0 0 1-.43 2.07 5.69 5.69 0 0 1-.8 1.621 3.42 3.42 0 0 1-1.231 1.055c-.482.248-1.051.371-1.709.371a3.778 3.778 0 0 1-1.748-.4 3.98 3.98 0 0 1-1.328-1.123 5.305 5.305 0 0 1-.84-1.7 7.493 7.493 0 0 1-.293-2.138Zm2.354-.205v.205c0 .482.045.931.136 1.348.098.416.245.784.44 1.103.202.313.456.56.762.742.312.176.68.264 1.103.264.553 0 1.006-.117 1.358-.352.358-.234.631-.55.82-.947a4.8 4.8 0 0 0 .41-1.348v-1.767a4.3 4.3 0 0 0-.244-1.074 2.867 2.867 0 0 0-.479-.87 1.996 1.996 0 0 0-.761-.585c-.306-.144-.668-.215-1.084-.215-.424 0-.791.091-1.104.273-.312.182-.57.433-.771.752a3.71 3.71 0 0 0-.44 1.114 6.064 6.064 0 0 0-.146 1.357Zm15.686-8.848-5.538 15.44h-1.845l5.547-15.44h1.836Zm4.084 5.801V87h-2.354V76.434h2.217l.137 2.148Zm-.381 2.744-.801-.01a7.1 7.1 0 0 1 .274-2.021 4.841 4.841 0 0 1 .801-1.611 3.512 3.512 0 0 1 1.308-1.065c.527-.254 1.136-.38 1.826-.38.482 0 .922.07 1.319.214.403.137.752.355 1.045.654.299.3.527.684.683 1.153.163.468.244 1.035.244 1.699V87h-2.353v-6.836c0-.514-.078-.918-.235-1.21a1.294 1.294 0 0 0-.654-.626c-.28-.13-.615-.195-1.006-.195-.442 0-.82.084-1.133.254-.306.169-.556.4-.751.693a3.088 3.088 0 0 0-.43 1.016 5.326 5.326 0 0 0-.137 1.23Zm6.553-.625-1.104.244c0-.638.088-1.24.264-1.806a4.6 4.6 0 0 1 .791-1.504 3.72 3.72 0 0 1 1.299-1.026c.514-.247 1.103-.37 1.767-.37a4.32 4.32 0 0 1 1.446.224c.429.143.794.371 1.093.684.3.312.528.719.684 1.22.156.495.234 1.094.234 1.797V87h-2.363v-6.846c0-.534-.078-.947-.234-1.24a1.217 1.217 0 0 0-.645-.605c-.28-.118-.615-.176-1.006-.176-.364 0-.686.068-.966.205-.274.13-.505.316-.694.556a2.463 2.463 0 0 0-.429.811 3.446 3.446 0 0 0-.137.996Zm10.422-4.756h.85c.28 0 .511-.039.693-.117a.936.936 0 0 0 .41-.342.877.877 0 0 0 .147-.508.827.827 0 0 0-.274-.615c-.175-.182-.472-.273-.888-.273-.319 0-.59.068-.811.205a.616.616 0 0 0-.322.557h-1.778c0-.463.131-.857.391-1.182a2.435 2.435 0 0 1 1.045-.742c.436-.17.911-.254 1.426-.254.592 0 1.113.084 1.562.254.45.163.798.407 1.045.732.254.326.381.73.381 1.211 0 .371-.117.7-.351.986-.228.287-.547.511-.958.674-.403.156-.878.235-1.425.235h-1.143v-.82Zm0 1.221v-.8h1.143c.605 0 1.123.07 1.552.214.43.137.756.348.977.635.228.286.342.657.342 1.113 0 .482-.137.892-.41 1.23-.274.34-.648.596-1.123.772a4.484 4.484 0 0 1-1.582.264c-.489 0-.964-.078-1.426-.235a2.646 2.646 0 0 1-1.133-.761c-.293-.345-.439-.798-.439-1.358h1.787c0 .254.117.472.351.654.235.183.55.274.947.274.424 0 .736-.091.938-.274a.911.911 0 0 0 .312-.703c0-.247-.058-.446-.175-.595a.915.915 0 0 0-.479-.323 2.251 2.251 0 0 0-.732-.107h-.85Z"/></g><defs><filter id="a" width="198" height="54" x="1" y="53" color-interpolation-filters="sRGB" filterUnits="userSpaceOnUse"><feFlood flood-opacity="0" result="BackgroundImageFix"/><feGaussianBlur in="BackgroundImageFix" stdDeviation="3"/><feComposite in2="SourceAlpha" operator="in" result="effect1_backgroundBlur_1071_3704"/><feBlend in="SourceGraphic" in2="effect1_backgroundBlur_1071_3704" result="shape"/></filter></defs></svg>