<svg width="200" height="160" viewBox="0 0 200 160" fill="none" xmlns="http://www.w3.org/2000/svg">
<rect width="200" height="160" rx="4" fill="white"/>
<rect x="0.5" y="0.5" width="199" height="159" rx="3.5" stroke="black" stroke-opacity="0.12"/>
<path d="M24.2667 20.5C24.2667 20.058 24.0912 19.6341 23.7786 19.3215C23.466 19.0089 23.0421 18.8333 22.6001 18.8333C22.2467 18.8333 21.9201 18.94 21.6667 19.1267V19C21.6667 18.558 21.4912 18.1341 21.1786 17.8215C20.866 17.5089 20.4421 17.3333 20.0001 17.3333C19.5581 17.3333 19.1341 17.5089 18.8216 17.8215C18.509 18.1341 18.3334 18.558 18.3334 19V19.1267C18.0801 18.94 17.7534 18.8333 17.4001 18.8333C16.9581 18.8333 16.5341 19.0089 16.2216 19.3215C15.909 19.6341 15.7334 20.058 15.7334 20.5C15.7334 21.16 16.1267 21.7333 16.6867 22C16.1267 22.2667 15.7334 22.8333 15.7334 23.5C15.7334 23.942 15.909 24.366 16.2216 24.6785C16.5341 24.9911 16.9581 25.1667 17.4001 25.1667C17.7534 25.1667 18.0801 25.0533 18.3334 24.8733V25C18.3334 25.442 18.509 25.866 18.8216 26.1785C19.1341 26.4911 19.5581 26.6667 20.0001 26.6667C20.4421 26.6667 20.866 26.4911 21.1786 26.1785C21.4912 25.866 21.6667 25.442 21.6667 25V24.8733C21.9201 25.0533 22.2467 25.1667 22.6001 25.1667C23.0421 25.1667 23.466 24.9911 23.7786 24.6785C24.0912 24.366 24.2667 23.942 24.2667 23.5C24.2667 22.8333 23.8734 22.2667 23.3134 22C23.8734 21.7333 24.2667 21.16 24.2667 20.5ZM20.0001 23.6667C19.5581 23.6667 19.1341 23.4911 18.8216 23.1785C18.509 22.866 18.3334 22.442 18.3334 22C18.3334 21.558 18.509 21.1341 18.8216 20.8215C19.1341 20.5089 19.5581 20.3333 20.0001 20.3333C20.4421 20.3333 20.866 20.5089 21.1786 20.8215C21.4912 21.1341 21.6667 21.558 21.6667 22C21.6667 22.442 21.4912 22.866 21.1786 23.1785C20.866 23.4911 20.4421 23.6667 20.0001 23.6667ZM19.3334 16C19.3334 15.6333 19.6334 15.3333 20.0001 15.3333C20.3667 15.3333 20.6667 15.6333 20.6667 16C20.6667 16.3667 20.3667 16.6667 20.0001 16.6667C19.6334 16.6667 19.3334 16.3667 19.3334 16ZM16.6667 17.3333C16.6667 16.9667 16.9667 16.6667 17.3334 16.6667C17.7001 16.6667 18.0001 16.9667 18.0001 17.3333C18.0001 17.7 17.7001 18 17.3334 18C16.9667 18 16.6667 17.7 16.6667 17.3333ZM15.3334 16C14.9667 16 14.6667 15.7 14.6667 15.3333C14.6667 14.9667 14.9667 14.6667 15.3334 14.6667C15.7001 14.6667 16.0001 14.9667 16.0001 15.3333C16.0001 15.7 15.7001 16 15.3334 16ZM17.3334 14C17.3334 13.6333 17.6334 13.3333 18.0001 13.3333C18.3667 13.3333 18.6667 13.6333 18.6667 14C18.6667 14.3667 18.3667 14.6667 18.0001 14.6667C17.6334 14.6667 17.3334 14.3667 17.3334 14ZM21.3334 14C21.3334 13.6333 21.6334 13.3333 22.0001 13.3333C22.3667 13.3333 22.6667 13.6333 22.6667 14C22.6667 14.3667 22.3667 14.6667 22.0001 14.6667C21.6334 14.6667 21.3334 14.3667 21.3334 14ZM25.3334 15.3333C25.3334 15.7 25.0334 16 24.6667 16C24.3001 16 24.0001 15.7 24.0001 15.3333C24.0001 14.9667 24.3001 14.6667 24.6667 14.6667C25.0334 14.6667 25.3334 14.9667 25.3334 15.3333ZM22.6667 16.6667C23.0334 16.6667 23.3334 16.9667 23.3334 17.3333C23.3334 17.7 23.0334 18 22.6667 18C22.3001 18 22.0001 17.7 22.0001 17.3333C22.0001 16.9667 22.3001 16.6667 22.6667 16.6667Z" fill="black" fill-opacity="0.87"/>
<path d="M34.8438 15.0469V25H33.1279V15.0469H34.8438ZM41.2256 16.373L38.252 25H36.4541L40.2002 15.0469H41.3486L41.2256 16.373ZM43.7139 25L40.7334 16.373L40.6035 15.0469H41.7588L45.5186 25H43.7139ZM43.5703 21.3086V22.6689H38.1562V21.3086H43.5703ZM48.7148 15.0469V25H46.999V15.0469H48.7148Z" fill="black" fill-opacity="0.87"/>
<path d="M96.3809 72.0996L93.0059 71.2734L94.3945 58.4062H108.193V61.9922H97.9102L97.207 68.2676C97.6055 68.0332 98.1562 67.8047 98.8594 67.582C99.5625 67.3477 100.365 67.2305 101.268 67.2305C102.475 67.2305 103.553 67.4297 104.502 67.8281C105.463 68.2148 106.277 68.7832 106.945 69.5332C107.613 70.2715 108.123 71.1738 108.475 72.2402C108.826 73.2949 109.002 74.4844 109.002 75.8086C109.002 76.9922 108.826 78.0996 108.475 79.1309C108.135 80.1621 107.619 81.0703 106.928 81.8555C106.236 82.6406 105.363 83.2559 104.309 83.7012C103.266 84.1348 102.029 84.3516 100.6 84.3516C99.5332 84.3516 98.5078 84.1992 97.5234 83.8945C96.5508 83.5781 95.6777 83.1152 94.9043 82.5059C94.1309 81.8848 93.5098 81.123 93.041 80.2207C92.5723 79.3066 92.3027 78.2578 92.2324 77.0742H96.3809C96.4863 77.9062 96.7148 78.6152 97.0664 79.2012C97.4297 79.7754 97.9102 80.2148 98.5078 80.5195C99.1055 80.8242 99.7969 80.9766 100.582 80.9766C101.297 80.9766 101.912 80.8535 102.428 80.6074C102.943 80.3496 103.371 79.9863 103.711 79.5176C104.062 79.0371 104.32 78.4746 104.484 77.8301C104.66 77.1855 104.748 76.4707 104.748 75.6855C104.748 74.9355 104.648 74.25 104.449 73.6289C104.262 73.0078 103.975 72.4688 103.588 72.0117C103.213 71.5547 102.738 71.2031 102.164 70.957C101.59 70.6992 100.928 70.5703 100.178 70.5703C99.1699 70.5703 98.3965 70.7168 97.8574 71.0098C97.3301 71.3027 96.8379 71.666 96.3809 72.0996Z" fill="#7CC322"/>
<path d="M147.444 71.7778L154.555 71.7778L154.555 80.6667L151.004 83.3333L147.444 80.6667L147.444 71.7778Z" fill="url(#paint0_linear_1128_3493)" fill-opacity="0.3"/>
<path fill-rule="evenodd" clip-rule="evenodd" d="M150.674 83.896C150.854 84.0762 151.146 84.0762 151.326 83.896L154.555 80.6667L153.903 80.0142L152.484 81.4331C152.107 81.8106 151.461 81.5432 151.461 81.0093L151.461 77.1111L150.539 77.1111L150.539 81.0093C150.539 81.5432 149.893 81.8106 149.516 81.4331L148.097 80.0142L147.444 80.6667L150.674 83.896Z" fill="black" fill-opacity="0.87"/>
<path d="M162.568 79.793V80.918H159.469V79.793H162.568ZM167.828 75.4395V84H166.416V77.1152L164.324 77.8242V76.6582L167.658 75.4395H167.828ZM175.309 75.416H175.484V76.5703H175.385C174.881 76.5703 174.445 76.6484 174.078 76.8047C173.715 76.9609 173.416 77.1758 173.182 77.4492C172.947 77.7227 172.771 78.043 172.654 78.4102C172.541 78.7734 172.484 79.1602 172.484 79.5703V80.9121C172.484 81.252 172.521 81.5527 172.596 81.8145C172.67 82.0723 172.773 82.2891 172.906 82.4648C173.043 82.6367 173.199 82.7676 173.375 82.8574C173.551 82.9473 173.74 82.9922 173.943 82.9922C174.154 82.9922 174.346 82.9492 174.518 82.8633C174.689 82.7734 174.836 82.6504 174.957 82.4941C175.078 82.3379 175.17 82.1523 175.232 81.9375C175.295 81.7227 175.326 81.4883 175.326 81.2344C175.326 80.9922 175.295 80.7656 175.232 80.5547C175.174 80.3398 175.086 80.1523 174.969 79.9922C174.852 79.8281 174.705 79.7012 174.529 79.6113C174.357 79.5176 174.158 79.4707 173.932 79.4707C173.65 79.4707 173.395 79.5371 173.164 79.6699C172.938 79.8027 172.754 79.9766 172.613 80.1914C172.477 80.4023 172.402 80.627 172.391 80.8652L171.852 80.6895C171.883 80.3262 171.963 80 172.092 79.7109C172.225 79.4219 172.398 79.1758 172.613 78.9727C172.828 78.7695 173.076 78.6152 173.357 78.5098C173.643 78.4004 173.955 78.3457 174.295 78.3457C174.709 78.3457 175.068 78.4238 175.373 78.5801C175.678 78.7363 175.93 78.9492 176.129 79.2188C176.332 79.4844 176.482 79.7891 176.58 80.1328C176.682 80.4727 176.732 80.8281 176.732 81.1992C176.732 81.6094 176.67 81.9922 176.545 82.3477C176.42 82.6992 176.236 83.0078 175.994 83.2734C175.756 83.5391 175.465 83.7461 175.121 83.8945C174.781 84.043 174.395 84.1172 173.961 84.1172C173.504 84.1172 173.096 84.0293 172.736 83.8535C172.381 83.6777 172.078 83.4355 171.828 83.127C171.582 82.8184 171.395 82.4629 171.266 82.0605C171.137 81.6582 171.072 81.2324 171.072 80.7832V80.1973C171.072 79.5488 171.154 78.9375 171.318 78.3633C171.482 77.7852 171.734 77.2754 172.074 76.834C172.418 76.3926 172.857 76.0469 173.393 75.7969C173.928 75.543 174.566 75.416 175.309 75.416Z" fill="black" fill-opacity="0.87"/>
<path d="M178.586 77.5605V77.1094C178.586 76.7852 178.656 76.4902 178.797 76.2246C178.938 75.959 179.143 75.7461 179.412 75.5859C179.682 75.4258 180.006 75.3457 180.385 75.3457C180.775 75.3457 181.104 75.4258 181.369 75.5859C181.639 75.7461 181.844 75.959 181.984 76.2246C182.125 76.4902 182.195 76.7852 182.195 77.1094V77.5605C182.195 77.877 182.125 78.168 181.984 78.4336C181.848 78.6992 181.645 78.9121 181.375 79.0723C181.109 79.2324 180.783 79.3125 180.396 79.3125C180.014 79.3125 179.686 79.2324 179.412 79.0723C179.143 78.9121 178.938 78.6992 178.797 78.4336C178.656 78.168 178.586 77.877 178.586 77.5605ZM179.564 77.1094V77.5605C179.564 77.7168 179.594 77.8652 179.652 78.0059C179.715 78.1465 179.809 78.2598 179.934 78.3457C180.059 78.4316 180.213 78.4746 180.396 78.4746C180.584 78.4746 180.736 78.4316 180.854 78.3457C180.975 78.2598 181.064 78.1465 181.123 78.0059C181.182 77.8652 181.211 77.7168 181.211 77.5605V77.1094C181.211 76.9492 181.18 76.7988 181.117 76.6582C181.059 76.5137 180.969 76.3984 180.848 76.3125C180.727 76.2266 180.572 76.1836 180.385 76.1836C180.205 76.1836 180.053 76.2266 179.928 76.3125C179.807 76.3984 179.715 76.5137 179.652 76.6582C179.594 76.7988 179.564 76.9492 179.564 77.1094ZM182.699 82.3652V81.9082C182.699 81.5879 182.77 81.2949 182.91 81.0293C183.055 80.7637 183.262 80.5508 183.531 80.3906C183.801 80.2305 184.125 80.1504 184.504 80.1504C184.895 80.1504 185.223 80.2305 185.488 80.3906C185.758 80.5508 185.961 80.7637 186.098 81.0293C186.238 81.2949 186.309 81.5879 186.309 81.9082V82.3652C186.309 82.6855 186.238 82.9785 186.098 83.2441C185.961 83.5098 185.76 83.7227 185.494 83.8828C185.229 84.043 184.904 84.123 184.521 84.123C184.135 84.123 183.805 84.043 183.531 83.8828C183.262 83.7227 183.055 83.5098 182.91 83.2441C182.77 82.9785 182.699 82.6855 182.699 82.3652ZM183.684 81.9082V82.3652C183.684 82.5215 183.715 82.6699 183.777 82.8105C183.844 82.9512 183.939 83.0664 184.064 83.1562C184.189 83.2422 184.34 83.2852 184.516 83.2852C184.715 83.2852 184.875 83.2422 184.996 83.1562C185.117 83.0664 185.203 82.9531 185.254 82.8164C185.309 82.6758 185.336 82.5254 185.336 82.3652V81.9082C185.336 81.748 185.305 81.5977 185.242 81.457C185.184 81.3164 185.092 81.2031 184.967 81.1172C184.846 81.0312 184.691 80.9883 184.504 80.9883C184.32 80.9883 184.168 81.0312 184.047 81.1172C183.926 81.2031 183.834 81.3164 183.771 81.457C183.713 81.5977 183.684 81.748 183.684 81.9082ZM184.855 76.6875L180.689 83.3555L179.969 82.9395L184.135 76.2715L184.855 76.6875Z" fill="black" fill-opacity="0.87"/>
<g clip-path="url(#clip0_1128_3493)">
<path fill-rule="evenodd" clip-rule="evenodd" d="M188.004 124.999L12 125.001L12 124.001L188.004 123.999L188.004 124.999Z" fill="black" fill-opacity="0.12"/>
<path d="M12 133.775C13.0166 133.775 18.5098 133.775 21.2632 133.775L34.6433 143L44.9357 112.25L66.5497 134.8L90.2222 112.25L97.4269 113.275L111.836 143H126.246L138.596 116.35H147.86L157.123 102L169.474 106.1L188 116.35" stroke="black" stroke-opacity="0.87" stroke-width="1.5"/>
</g>
<defs>
<linearGradient id="paint0_linear_1128_3493" x1="150.683" y1="84.0298" x2="150.683" y2="71.7778" gradientUnits="userSpaceOnUse">
<stop offset="0" style="stop-color:#fff;stop-opacity:1" />
<stop offset="1" style="stop-color:#fff;stop-opacity:0" />
</linearGradient>
<clipPath id="clip0_1128_3493">
<rect width="176" height="60" fill="white" transform="translate(12 90)"/>
</clipPath>
</defs>
</svg>
