<svg xmlns="http://www.w3.org/2000/svg" width="200" height="160" fill="none"><rect width="200" height="160" fill="#fff" rx="4"/><rect width="199" height="159" x=".5" y=".5" stroke="#000" stroke-opacity=".12" rx="3.5"/><path fill="#80C42C" d="M42.898 38.314a3.27 3.27 0 0 0-3.27-3.27c-.693 0-1.334.21-1.83.576v-.248a3.27 3.27 0 1 0-6.54 0v.248a3.082 3.082 0 0 0-1.831-.575 3.27 3.27 0 0 0-3.27 3.27c0 1.294.772 2.419 1.87 2.942a3.258 3.258 0 0 0-.912 5.255 3.27 3.27 0 0 0 2.312.957c.693 0 1.334-.222 1.831-.575v.248a3.27 3.27 0 0 0 6.54 0v-.248a3.175 3.175 0 0 0 1.83.575 3.27 3.27 0 0 0 3.27-3.27c0-1.307-.772-2.419-1.87-2.942a3.273 3.273 0 0 0 1.87-2.943Zm-8.37 6.213a3.27 3.27 0 1 1 0-6.54 3.27 3.27 0 0 1 0 6.54Zm-1.308-15.04c0-.72.588-1.309 1.308-1.309.719 0 1.308.589 1.308 1.308 0 .72-.589 1.308-1.308 1.308-.72 0-1.308-.589-1.308-1.308Zm-5.232 2.615c0-.72.589-1.308 1.308-1.308.72 0 1.308.588 1.308 1.308 0 .72-.588 1.308-1.308 1.308-.72 0-1.308-.589-1.308-1.308Zm-2.615-2.616c-.72 0-1.308-.588-1.308-1.308 0-.72.588-1.308 1.308-1.308.719 0 1.307.589 1.307 1.308 0 .72-.588 1.308-1.307 1.308Zm3.923-3.924c0-.719.589-1.307 1.308-1.307.72 0 1.308.588 1.308 1.307 0 .72-.589 1.308-1.308 1.308-.72 0-1.308-.588-1.308-1.308Zm7.847 0c0-.719.589-1.307 1.308-1.307.72 0 1.308.588 1.308 1.307 0 .72-.588 1.308-1.308 1.308-.72 0-1.308-.588-1.308-1.308Zm7.848 2.616c0 .72-.589 1.308-1.308 1.308-.72 0-1.308-.588-1.308-1.308 0-.72.588-1.308 1.308-1.308.72 0 1.308.589 1.308 1.308Zm-5.232 2.616c.72 0 1.308.588 1.308 1.308 0 .72-.589 1.308-1.308 1.308-.72 0-1.308-.589-1.308-1.308 0-.72.589-1.308 1.308-1.308Z"/><path fill="#000" fill-opacity=".87" d="M59.14 25.591v9.242h-1.593v-9.242h1.594Zm5.945 1.232-2.762 8.01h-1.67l3.48-9.242h1.066l-.114 1.232Zm2.31 8.01-2.768-8.01-.12-1.232h1.073l3.49 9.242h-1.675Zm-.133-3.427v1.263h-5.028v-1.263h5.028Zm4.795-5.815v9.242h-1.594v-9.242h1.594Z"/><path fill="#000" fill-opacity=".38" d="M61.374 50.918v.915h-3.361v-.915h3.36Zm-3.04-5.78v6.695H57.18V45.14h1.155Zm6.822 5.698v-2.373c0-.178-.032-.331-.096-.46a.677.677 0 0 0-.294-.299 1.006 1.006 0 0 0-.488-.105c-.18 0-.337.03-.469.092a.758.758 0 0 0-.308.248.599.599 0 0 0-.11.354h-1.104c0-.196.048-.386.143-.57.095-.184.233-.348.414-.492.18-.144.397-.258.648-.34.251-.083.533-.125.846-.125.374 0 .705.063.993.189.291.126.52.316.685.57.169.251.253.567.253.947v2.212c0 .227.015.43.046.611.034.178.081.333.143.465v.073h-1.136a1.965 1.965 0 0 1-.124-.455 3.729 3.729 0 0 1-.041-.542Zm.161-2.028.01.685h-.796c-.205 0-.386.02-.542.06a1.115 1.115 0 0 0-.391.165.718.718 0 0 0-.313.621c0 .132.03.253.092.363.061.108.15.192.267.253.12.061.263.092.432.092.227 0 .425-.046.593-.138a1.22 1.22 0 0 0 .405-.345.75.75 0 0 0 .156-.39l.359.491c-.037.126-.1.261-.189.405a1.959 1.959 0 0 1-.35.414 1.735 1.735 0 0 1-1.19.441c-.325 0-.615-.064-.87-.193a1.546 1.546 0 0 1-.597-.529 1.371 1.371 0 0 1-.216-.758c0-.264.049-.497.147-.7a1.37 1.37 0 0 1 .442-.514c.196-.138.435-.242.717-.313.282-.073.604-.11.965-.11h.87Zm5.098 1.678c0-.11-.028-.21-.083-.299-.055-.092-.16-.174-.317-.248a3.078 3.078 0 0 0-.68-.202 5.864 5.864 0 0 1-.727-.207 2.305 2.305 0 0 1-.56-.3 1.259 1.259 0 0 1-.364-.413 1.146 1.146 0 0 1-.129-.552c0-.202.044-.394.133-.575.09-.18.216-.34.382-.478.166-.138.366-.246.602-.326.24-.08.506-.12.8-.12.417 0 .774.07 1.072.212.3.138.53.326.69.565.159.236.239.503.239.8h-1.109a.707.707 0 0 0-.1-.367.705.705 0 0 0-.295-.28 1.01 1.01 0 0 0-.497-.111c-.19 0-.347.03-.473.092a.648.648 0 0 0-.276.23.587.587 0 0 0-.041.538.53.53 0 0 0 .165.179c.077.052.181.101.313.147.135.046.303.09.506.133.38.08.706.183.979.308.276.123.487.282.634.479.148.193.221.438.221.735 0 .221-.047.423-.142.607-.092.181-.227.339-.405.474a2.03 2.03 0 0 1-.64.308c-.244.074-.52.11-.827.11-.45 0-.832-.08-1.145-.239a1.826 1.826 0 0 1-.712-.62 1.47 1.47 0 0 1-.24-.791h1.072a.83.83 0 0 0 .17.492c.104.12.233.206.386.262.157.052.318.078.483.078.2 0 .366-.026.501-.078a.721.721 0 0 0 .308-.221.527.527 0 0 0 .106-.322Zm4.532-3.628v.81h-2.805v-.81h2.805Zm-1.995-1.218h1.108v4.819c0 .153.021.27.064.354.046.08.109.133.189.16.08.028.173.042.28.042a2.209 2.209 0 0 0 .39-.041l.005.846c-.091.027-.199.052-.321.073-.12.021-.258.032-.414.032-.255 0-.48-.044-.676-.133a.995.995 0 0 1-.46-.446c-.11-.205-.165-.478-.165-.818V45.64Zm8.58 5.02v-3.802h1.114v4.975h-1.049l-.064-1.172Zm.157-1.034.373-.009c0 .334-.037.642-.11.924a2.143 2.143 0 0 1-.34.731c-.154.206-.35.367-.59.483a1.99 1.99 0 0 1-.86.17c-.241 0-.464-.035-.666-.105a1.367 1.367 0 0 1-.524-.327 1.486 1.486 0 0 1-.336-.575 2.655 2.655 0 0 1-.12-.846v-3.214h1.109v3.224c0 .18.021.332.064.455a.77.77 0 0 0 .175.29c.073.073.16.125.257.156.099.03.203.046.313.046.316 0 .564-.062.745-.184.184-.126.314-.294.39-.506.08-.212.12-.45.12-.713Zm3.401-1.811v5.931h-1.108v-6.888h1.02l.088.957Zm3.242 1.485v.096c0 .362-.043.698-.129 1.007a2.46 2.46 0 0 1-.372.805 1.715 1.715 0 0 1-.603.529c-.239.125-.515.188-.827.188-.31 0-.581-.056-.814-.17a1.667 1.667 0 0 1-.584-.492 2.669 2.669 0 0 1-.386-.745 4.78 4.78 0 0 1-.203-.947V49.2c.04-.365.108-.696.203-.993a2.69 2.69 0 0 1 .386-.768c.16-.215.354-.38.584-.497.23-.116.498-.175.804-.175.313 0 .59.062.833.184.242.12.446.291.611.515.166.22.29.488.373.8.082.31.124.655.124 1.035Zm-1.108.096V49.3c0-.23-.022-.443-.065-.64-.043-.198-.11-.373-.202-.523a.99.99 0 0 0-.354-.35.964.964 0 0 0-.51-.129c-.197 0-.365.034-.506.102a.97.97 0 0 0-.354.27 1.282 1.282 0 0 0-.22.41c-.053.153-.09.32-.111.501v.892c.037.22.1.423.188.607.09.184.215.331.377.442.166.107.377.16.635.16.199 0 .37-.043.51-.128.141-.086.256-.204.345-.354.092-.154.16-.33.202-.53.043-.198.065-.41.065-.634Zm5.281 1.407v-6.032h1.113v7.062h-1.007l-.106-1.03Zm-3.237-1.402v-.097c0-.377.045-.72.134-1.03.088-.312.217-.58.386-.804.168-.227.374-.4.616-.52.242-.122.515-.184.818-.184.3 0 .564.059.791.175.227.116.42.284.58.501a2.6 2.6 0 0 1 .381.773c.095.297.163.628.203.993v.308c-.04.355-.108.68-.203.975a2.62 2.62 0 0 1-.381.763c-.16.215-.354.38-.584.497a1.719 1.719 0 0 1-.796.174c-.3 0-.572-.063-.814-.188a1.799 1.799 0 0 1-.611-.529 2.489 2.489 0 0 1-.386-.8 3.636 3.636 0 0 1-.134-1.007Zm1.108-.097v.097c0 .227.02.438.06.634.043.197.109.37.198.52.089.147.204.264.345.35.144.082.316.124.515.124.251 0 .458-.056.62-.166.163-.11.29-.259.382-.446.095-.19.16-.401.193-.634v-.833a2.03 2.03 0 0 0-.115-.505 1.35 1.35 0 0 0-.225-.41.948.948 0 0 0-.354-.275 1.11 1.11 0 0 0-.492-.102.973.973 0 0 0-.515.13 1.043 1.043 0 0 0-.35.353c-.088.15-.154.325-.197.524-.043.2-.065.413-.065.64Zm7.402 1.532v-2.373c0-.178-.033-.331-.097-.46a.677.677 0 0 0-.294-.299 1.007 1.007 0 0 0-.488-.105c-.18 0-.337.03-.469.092a.759.759 0 0 0-.308.248.6.6 0 0 0-.11.354h-1.103c0-.196.047-.386.142-.57.095-.184.233-.348.414-.492.18-.144.397-.258.648-.34.252-.083.534-.125.846-.125.374 0 .705.063.993.189.291.126.52.316.685.57.169.251.253.567.253.947v2.212c0 .227.016.43.046.611.034.178.081.333.143.465v.073h-1.136a1.96 1.96 0 0 1-.124-.455 3.715 3.715 0 0 1-.041-.542Zm.16-2.028.01.685h-.796c-.205 0-.386.02-.542.06a1.116 1.116 0 0 0-.391.165.72.72 0 0 0-.313.621c0 .132.03.253.092.363.061.108.15.192.267.253.12.061.263.092.432.092.227 0 .425-.046.593-.138.172-.095.307-.21.405-.345a.75.75 0 0 0 .156-.39l.359.491c-.037.126-.1.261-.189.405a1.961 1.961 0 0 1-.35.414 1.736 1.736 0 0 1-1.19.441c-.325 0-.615-.064-.869-.193a1.546 1.546 0 0 1-.598-.529 1.372 1.372 0 0 1-.216-.758c0-.264.05-.497.147-.7.101-.204.249-.376.442-.514.196-.138.435-.242.717-.313.282-.073.604-.11.966-.11h.869Zm4.588-1.95v.81h-2.805v-.81h2.805Zm-1.996-1.218h1.108v4.819c0 .153.022.27.065.354.046.08.109.133.188.16a.86.86 0 0 0 .281.042 2.21 2.21 0 0 0 .391-.041l.004.846a2.82 2.82 0 0 1-.322.073 2.362 2.362 0 0 1-.414.032c-.254 0-.479-.044-.675-.133a.99.99 0 0 1-.46-.446c-.111-.205-.166-.478-.166-.818V45.64Zm5.24 6.285c-.367 0-.7-.06-.997-.179a2.193 2.193 0 0 1-.754-.51 2.249 2.249 0 0 1-.474-.768 2.697 2.697 0 0 1-.166-.952v-.184c0-.39.057-.742.171-1.057.113-.316.271-.586.473-.81.203-.227.442-.4.717-.52.276-.119.575-.179.897-.179.356 0 .667.06.933.18.267.12.488.288.663.505.177.215.309.471.395.768.089.298.133.626.133.984v.474h-3.844v-.796h2.75v-.087a1.544 1.544 0 0 0-.12-.56.95.95 0 0 0-.326-.424c-.147-.107-.343-.16-.589-.16a.998.998 0 0 0-.491.119.975.975 0 0 0-.355.335 1.764 1.764 0 0 0-.22.534 2.999 2.999 0 0 0-.074.694v.184c0 .218.029.42.088.607.061.184.15.345.266.483.117.138.258.246.423.326.166.077.354.115.566.115.266 0 .504-.054.712-.16.209-.108.39-.26.543-.456l.584.566a2.287 2.287 0 0 1-.418.45 2.103 2.103 0 0 1-.63.345 2.513 2.513 0 0 1-.856.133Zm8.554-6.81v6.718h-1.108v-5.402l-1.641.556v-.915l2.616-.956h.133Zm5.622 5.688v-6.032h1.113v7.062h-1.007l-.106-1.03Zm-3.237-1.402v-.097c0-.377.044-.72.133-1.03a2.42 2.42 0 0 1 .387-.804c.168-.227.374-.4.616-.52.242-.122.515-.184.818-.184.301 0 .564.059.791.175.227.116.42.284.579.501.16.215.287.472.382.773.095.297.162.628.202.993v.308c-.04.355-.107.68-.202.975a2.603 2.603 0 0 1-.382.763c-.159.215-.354.38-.584.497a1.716 1.716 0 0 1-.795.174c-.3 0-.572-.063-.814-.188a1.794 1.794 0 0 1-.611-.529 2.484 2.484 0 0 1-.387-.8 3.632 3.632 0 0 1-.133-1.007Zm1.108-.097v.097c0 .227.02.438.06.634.043.197.109.37.198.52.089.147.203.264.344.35.145.082.316.124.515.124.252 0 .459-.056.621-.166.163-.11.29-.259.382-.446a2.08 2.08 0 0 0 .193-.634v-.833a2.025 2.025 0 0 0-.115-.505 1.35 1.35 0 0 0-.225-.41.948.948 0 0 0-.354-.275 1.11 1.11 0 0 0-.492-.102.971.971 0 0 0-.515.13 1.046 1.046 0 0 0-.35.353c-.089.15-.155.325-.197.524-.043.2-.065.413-.065.64Zm9.943 1.532v-2.373c0-.178-.033-.331-.097-.46a.678.678 0 0 0-.294-.299 1.01 1.01 0 0 0-.488-.105c-.181 0-.337.03-.469.092a.76.76 0 0 0-.308.248.603.603 0 0 0-.11.354h-1.104c0-.196.048-.386.143-.57.095-.184.233-.348.414-.492a2.07 2.07 0 0 1 .648-.34c.251-.083.533-.125.846-.125.374 0 .705.063.993.189.291.126.52.316.685.57.169.251.253.567.253.947v2.212c0 .227.016.43.046.611.034.178.081.333.143.465v.073h-1.136a1.986 1.986 0 0 1-.124-.455 3.659 3.659 0 0 1-.041-.542Zm.16-2.028.01.685h-.796c-.205 0-.386.02-.542.06a1.11 1.11 0 0 0-.391.165.722.722 0 0 0-.235.267.782.782 0 0 0-.078.354c0 .132.031.253.092.363a.64.64 0 0 0 .267.253.934.934 0 0 0 .432.092 1.217 1.217 0 0 0 .998-.483.75.75 0 0 0 .156-.39l.359.491c-.037.126-.1.261-.189.405a1.962 1.962 0 0 1-.349.414 1.73 1.73 0 0 1-1.191.441c-.325 0-.615-.064-.869-.193a1.542 1.542 0 0 1-.598-.529 1.372 1.372 0 0 1-.216-.758c0-.264.049-.497.147-.7.101-.204.248-.376.442-.514.196-.138.435-.242.717-.313.282-.073.604-.11.965-.11h.869Zm5.494-1.95h1.006v4.837c0 .448-.095.828-.285 1.14-.19.313-.455.55-.795.713a2.771 2.771 0 0 1-2.488-.101 1.68 1.68 0 0 1-.538-.473l.52-.653c.178.211.374.366.589.464.214.098.439.147.675.147.255 0 .471-.047.649-.142a.961.961 0 0 0 .418-.41c.098-.18.147-.401.147-.662v-3.733l.102-1.127Zm-3.38 2.543v-.097c0-.377.046-.72.138-1.03a2.45 2.45 0 0 1 .395-.804c.172-.227.38-.4.626-.52.245-.122.522-.184.832-.184.322 0 .596.059.823.175.23.116.421.284.575.501.153.215.273.472.358.773.089.297.155.628.198.993v.308c-.04.355-.107.68-.202.975a2.697 2.697 0 0 1-.377.763c-.157.215-.35.38-.58.497a1.737 1.737 0 0 1-.804.174c-.304 0-.578-.063-.823-.188a1.88 1.88 0 0 1-.626-.529 2.517 2.517 0 0 1-.395-.8 3.52 3.52 0 0 1-.138-1.007Zm1.108-.097v.097c0 .227.022.438.064.634.046.197.115.37.207.52.095.147.215.264.359.35.147.082.32.124.52.124.26 0 .473-.056.639-.166.168-.11.297-.259.386-.446.092-.19.156-.401.193-.634v-.833a2.025 2.025 0 0 0-.115-.505 1.35 1.35 0 0 0-.225-.41.942.942 0 0 0-.359-.275 1.193 1.193 0 0 0-.51-.102c-.199 0-.373.043-.52.13a1.055 1.055 0 0 0-.363.353 1.75 1.75 0 0 0-.207.524c-.046.2-.069.413-.069.64Zm4.413.097v-.106c0-.358.052-.691.156-.998.104-.31.254-.577.451-.804a2.03 2.03 0 0 1 .726-.534c.288-.128.613-.193.975-.193.365 0 .69.065.975.194.288.125.531.303.731.533.199.227.351.495.455.804.104.307.156.64.156.998v.106c0 .359-.052.691-.156.998a2.387 2.387 0 0 1-.455.804 2.12 2.12 0 0 1-.727.534 2.381 2.381 0 0 1-.97.188c-.365 0-.691-.063-.979-.188a2.11 2.11 0 0 1-.727-.534 2.387 2.387 0 0 1-.455-.804 3.086 3.086 0 0 1-.156-.998Zm1.108-.106v.106c0 .224.023.435.069.634.046.2.118.375.216.525.098.15.224.268.377.354.153.085.336.128.547.128.205 0 .383-.043.533-.128.154-.086.279-.204.377-.354.098-.15.171-.325.217-.525.049-.199.073-.41.073-.634v-.106c0-.22-.024-.429-.073-.625-.046-.2-.12-.376-.221-.529a1.057 1.057 0 0 0-.915-.492c-.209 0-.389.045-.543.133-.15.086-.274.206-.372.36-.098.152-.17.329-.216.528a2.733 2.733 0 0 0-.069.625Z"/><path fill="#80C42C" d="m94.44 98.644-4.876-1.194 2.006-18.585h19.932v5.18H96.648l-1.015 9.064c.575-.339 1.37-.669 2.386-.99 1.016-.34 2.176-.508 3.479-.508 1.743 0 3.301.287 4.672.863a9.307 9.307 0 0 1 3.529 2.463c.965 1.066 1.701 2.37 2.209 3.91.508 1.523.762 3.242.762 5.154 0 1.71-.254 3.31-.762 4.799a11.187 11.187 0 0 1-2.234 3.936c-.999 1.134-2.26 2.022-3.783 2.666-1.507.626-3.293.939-5.358.939-1.54 0-3.021-.22-4.443-.66a12.113 12.113 0 0 1-3.783-2.006 10.217 10.217 0 0 1-2.692-3.301c-.677-1.32-1.066-2.835-1.168-4.545h5.992c.153 1.202.483 2.226.99 3.073a5.244 5.244 0 0 0 2.083 1.904c.863.44 1.862.66 2.996.66 1.032 0 1.921-.178 2.666-.533a5.039 5.039 0 0 0 1.853-1.574c.508-.694.88-1.507 1.117-2.438.254-.931.381-1.963.381-3.097 0-1.084-.144-2.074-.431-2.971a6.467 6.467 0 0 0-1.244-2.336 5.331 5.331 0 0 0-2.057-1.523c-.83-.373-1.786-.56-2.87-.56-1.455 0-2.572.213-3.35.636a10.51 10.51 0 0 0-2.134 1.574Z"/></svg>