<svg width="200" height="160" viewBox="0 0 200 160" fill="none" xmlns="http://www.w3.org/2000/svg">
<rect width="200" height="160" rx="4" fill="white"/>
<rect x="0.5" y="0.5" width="199" height="159" rx="3.5" stroke="black" stroke-opacity="0.12"/>
<path d="M19.9999 13.3333C16.3199 13.3333 13.3333 16.32 13.3333 20C13.3333 23.68 16.3199 26.6666 19.9999 26.6666C23.6799 26.6666 26.6666 23.68 26.6666 20C26.6666 16.32 23.6799 13.3333 19.9999 13.3333ZM14.6666 20C14.6666 19.5933 14.7199 19.1933 14.8066 18.8133L17.9933 22V22.6666C17.9933 23.4 18.5933 24 19.3266 24V25.2866C16.7066 24.9533 14.6666 22.7133 14.6666 20ZM23.9266 23.6C23.7533 23.06 23.2599 22.6666 22.6599 22.6666H21.9933V20.6666C21.9933 20.3 21.6933 20 21.3266 20H17.3266V18.6666H18.6599C19.0266 18.6666 19.3266 18.3666 19.3266 18V16.6666H20.6599C21.3933 16.6666 21.9933 16.0666 21.9933 15.3333V15.06C23.9466 15.8466 25.3333 17.7666 25.3333 20C25.3333 21.3866 24.7933 22.6533 23.9266 23.6Z" fill="black" fill-opacity="0.87"/>
<path d="M40.9072 15.0469V25H39.1914L34.7275 17.8701V25H33.0117V15.0469H34.7275L39.2051 22.1904V15.0469H40.9072ZM44.8008 17.6035V25H43.1465V17.6035H44.8008ZM43.0371 15.6621C43.0371 15.4115 43.1191 15.2041 43.2832 15.04C43.4518 14.8714 43.6842 14.7871 43.9805 14.7871C44.2721 14.7871 44.5023 14.8714 44.6709 15.04C44.8395 15.2041 44.9238 15.4115 44.9238 15.6621C44.9238 15.9082 44.8395 16.1133 44.6709 16.2773C44.5023 16.4414 44.2721 16.5234 43.9805 16.5234C43.6842 16.5234 43.4518 16.4414 43.2832 16.2773C43.1191 16.1133 43.0371 15.9082 43.0371 15.6621ZM50.2461 17.6035V18.8066H46.0762V17.6035H50.2461ZM47.2793 15.792H48.9268V22.9561C48.9268 23.1839 48.9587 23.3594 49.0225 23.4824C49.0908 23.6009 49.1842 23.6807 49.3027 23.7217C49.4212 23.7627 49.5602 23.7832 49.7197 23.7832C49.8337 23.7832 49.943 23.7764 50.0479 23.7627C50.1527 23.749 50.237 23.7354 50.3008 23.7217L50.3076 24.9795C50.1709 25.0205 50.0114 25.057 49.8291 25.0889C49.6514 25.1208 49.4463 25.1367 49.2139 25.1367C48.8356 25.1367 48.5007 25.0706 48.209 24.9385C47.9173 24.8018 47.6895 24.5807 47.5254 24.2754C47.3613 23.9701 47.2793 23.5645 47.2793 23.0586V15.792ZM53.4219 19.0117V25H51.7744V17.6035H53.3467L53.4219 19.0117ZM55.6846 17.5557L55.6709 19.0869C55.5706 19.0687 55.4613 19.055 55.3428 19.0459C55.2288 19.0368 55.1149 19.0322 55.001 19.0322C54.7184 19.0322 54.4701 19.0732 54.2559 19.1553C54.0417 19.2327 53.8617 19.3467 53.7158 19.4971C53.5745 19.6429 53.4652 19.8206 53.3877 20.0303C53.3102 20.2399 53.2646 20.4746 53.251 20.7344L52.875 20.7617C52.875 20.2969 52.9206 19.8662 53.0117 19.4697C53.1029 19.0732 53.2396 18.7246 53.4219 18.4238C53.6087 18.123 53.8411 17.8883 54.1191 17.7197C54.4017 17.5511 54.7275 17.4668 55.0967 17.4668C55.1969 17.4668 55.304 17.4759 55.418 17.4941C55.5365 17.5124 55.6253 17.5329 55.6846 17.5557ZM56.4746 21.3838V21.2266C56.4746 20.6934 56.5521 20.1989 56.707 19.7432C56.862 19.2829 57.0853 18.8841 57.377 18.5469C57.6732 18.2051 58.0332 17.9408 58.457 17.7539C58.8854 17.5625 59.3685 17.4668 59.9062 17.4668C60.4486 17.4668 60.9316 17.5625 61.3555 17.7539C61.7839 17.9408 62.1462 18.2051 62.4424 18.5469C62.7386 18.8841 62.9642 19.2829 63.1191 19.7432C63.2741 20.1989 63.3516 20.6934 63.3516 21.2266V21.3838C63.3516 21.917 63.2741 22.4115 63.1191 22.8672C62.9642 23.3229 62.7386 23.7217 62.4424 24.0635C62.1462 24.4007 61.7861 24.665 61.3623 24.8564C60.9385 25.0433 60.4577 25.1367 59.9199 25.1367C59.3776 25.1367 58.8923 25.0433 58.4639 24.8564C58.04 24.665 57.68 24.4007 57.3838 24.0635C57.0876 23.7217 56.862 23.3229 56.707 22.8672C56.5521 22.4115 56.4746 21.917 56.4746 21.3838ZM58.1221 21.2266V21.3838C58.1221 21.7165 58.1562 22.0309 58.2246 22.3271C58.293 22.6234 58.4001 22.8831 58.5459 23.1064C58.6917 23.3298 58.8786 23.5052 59.1064 23.6328C59.3343 23.7604 59.6055 23.8242 59.9199 23.8242C60.2253 23.8242 60.4896 23.7604 60.7129 23.6328C60.9408 23.5052 61.1276 23.3298 61.2734 23.1064C61.4193 22.8831 61.5264 22.6234 61.5947 22.3271C61.6676 22.0309 61.7041 21.7165 61.7041 21.3838V21.2266C61.7041 20.8984 61.6676 20.5885 61.5947 20.2969C61.5264 20.0007 61.417 19.7386 61.2666 19.5107C61.1208 19.2829 60.9339 19.1051 60.7061 18.9775C60.4827 18.8454 60.2161 18.7793 59.9062 18.7793C59.5964 18.7793 59.3275 18.8454 59.0996 18.9775C58.8763 19.1051 58.6917 19.2829 58.5459 19.5107C58.4001 19.7386 58.293 20.0007 58.2246 20.2969C58.1562 20.5885 58.1221 20.8984 58.1221 21.2266ZM69.7197 17.6035H71.2168V24.7949C71.2168 25.4603 71.0755 26.0254 70.793 26.4902C70.5104 26.9551 70.1162 27.3083 69.6104 27.5498C69.1045 27.7959 68.5189 27.9189 67.8535 27.9189C67.571 27.9189 67.2565 27.8779 66.9102 27.7959C66.5684 27.7139 66.2357 27.5817 65.9121 27.3994C65.5931 27.2217 65.3265 26.987 65.1123 26.6953L65.8848 25.7246C66.1491 26.0391 66.4408 26.2692 66.7598 26.415C67.0788 26.5609 67.4137 26.6338 67.7646 26.6338C68.1429 26.6338 68.4642 26.5632 68.7285 26.4219C68.9974 26.2852 69.2048 26.0824 69.3506 25.8135C69.4964 25.5446 69.5693 25.2165 69.5693 24.8291V19.2783L69.7197 17.6035ZM64.6953 21.3838V21.2402C64.6953 20.6797 64.7637 20.1693 64.9004 19.709C65.0371 19.2441 65.2331 18.8454 65.4883 18.5127C65.7435 18.1755 66.0534 17.918 66.418 17.7402C66.7826 17.5579 67.195 17.4668 67.6553 17.4668C68.1338 17.4668 68.5417 17.5534 68.8789 17.7266C69.2207 17.8997 69.5055 18.1481 69.7334 18.4717C69.9613 18.7907 70.139 19.1735 70.2666 19.6201C70.3988 20.0622 70.4967 20.5544 70.5605 21.0967V21.5547C70.5013 22.0833 70.401 22.5664 70.2598 23.0039C70.1185 23.4414 69.9316 23.8197 69.6992 24.1387C69.4668 24.4577 69.1797 24.7038 68.8379 24.877C68.5007 25.0501 68.1019 25.1367 67.6416 25.1367C67.1904 25.1367 66.7826 25.0433 66.418 24.8564C66.0579 24.6696 65.748 24.4076 65.4883 24.0703C65.2331 23.7331 65.0371 23.3366 64.9004 22.8809C64.7637 22.4206 64.6953 21.9215 64.6953 21.3838ZM66.3428 21.2402V21.3838C66.3428 21.721 66.3747 22.0355 66.4385 22.3271C66.5068 22.6188 66.6094 22.8763 66.7461 23.0996C66.8874 23.3184 67.0651 23.4915 67.2793 23.6191C67.498 23.7422 67.7555 23.8037 68.0518 23.8037C68.4391 23.8037 68.7559 23.7217 69.002 23.5576C69.2526 23.3936 69.444 23.1725 69.5762 22.8945C69.7129 22.612 69.8086 22.2975 69.8633 21.9512V20.7139C69.8359 20.445 69.779 20.1943 69.6924 19.9619C69.6104 19.7295 69.4987 19.5267 69.3574 19.3535C69.2161 19.1758 69.0384 19.0391 68.8242 18.9434C68.61 18.8431 68.3571 18.793 68.0654 18.793C67.7692 18.793 67.5117 18.8568 67.293 18.9844C67.0742 19.112 66.8942 19.2874 66.7529 19.5107C66.6162 19.734 66.5137 19.9938 66.4453 20.29C66.377 20.5863 66.3428 20.903 66.3428 21.2402ZM76.4365 25.1367C75.8896 25.1367 75.3952 25.0479 74.9531 24.8701C74.5156 24.6878 74.1419 24.4349 73.832 24.1113C73.5267 23.7878 73.292 23.4072 73.1279 22.9697C72.9639 22.5322 72.8818 22.0605 72.8818 21.5547V21.2812C72.8818 20.7025 72.9661 20.1784 73.1348 19.709C73.3034 19.2396 73.5381 18.8385 73.8389 18.5059C74.1396 18.1686 74.4951 17.9111 74.9053 17.7334C75.3154 17.5557 75.7598 17.4668 76.2383 17.4668C76.7669 17.4668 77.2295 17.5557 77.626 17.7334C78.0225 17.9111 78.3506 18.1618 78.6104 18.4854C78.8747 18.8044 79.0706 19.1849 79.1982 19.627C79.3304 20.069 79.3965 20.5566 79.3965 21.0898V21.7939H73.6816V20.6113H77.7695V20.4814C77.7604 20.1852 77.7012 19.9072 77.5918 19.6475C77.487 19.3877 77.3252 19.1781 77.1064 19.0186C76.8877 18.859 76.596 18.7793 76.2314 18.7793C75.958 18.7793 75.7142 18.8385 75.5 18.957C75.2904 19.071 75.1149 19.2373 74.9736 19.4561C74.8324 19.6748 74.723 19.9391 74.6455 20.249C74.5726 20.5544 74.5361 20.8984 74.5361 21.2812V21.5547C74.5361 21.8783 74.5794 22.179 74.666 22.457C74.7572 22.7305 74.8893 22.9697 75.0625 23.1748C75.2357 23.3799 75.4453 23.5417 75.6914 23.6602C75.9375 23.7741 76.2178 23.8311 76.5322 23.8311C76.9287 23.8311 77.2819 23.7513 77.5918 23.5918C77.9017 23.4323 78.1706 23.2067 78.3984 22.915L79.2666 23.7559C79.1071 23.9883 78.8997 24.2116 78.6445 24.4258C78.3893 24.6354 78.0771 24.8063 77.708 24.9385C77.3434 25.0706 76.9196 25.1367 76.4365 25.1367ZM82.5654 19.1826V25H80.918V17.6035H82.4697L82.5654 19.1826ZM82.2715 21.0283L81.7383 21.0215C81.7428 20.4974 81.8158 20.0166 81.957 19.5791C82.1029 19.1416 82.3034 18.7656 82.5586 18.4512C82.8184 18.1367 83.1283 17.8952 83.4883 17.7266C83.8483 17.5534 84.2493 17.4668 84.6914 17.4668C85.0469 17.4668 85.3682 17.5169 85.6553 17.6172C85.9469 17.7129 86.1953 17.8701 86.4004 18.0889C86.61 18.3076 86.7695 18.5924 86.8789 18.9434C86.9883 19.2897 87.043 19.7158 87.043 20.2217V25H85.3887V20.2148C85.3887 19.8594 85.3363 19.5791 85.2314 19.374C85.1312 19.1644 84.9831 19.0163 84.7871 18.9297C84.5957 18.8385 84.3564 18.793 84.0693 18.793C83.7868 18.793 83.5339 18.8522 83.3105 18.9707C83.0872 19.0892 82.8981 19.251 82.7432 19.4561C82.5928 19.6611 82.4766 19.8981 82.3945 20.167C82.3125 20.4359 82.2715 20.723 82.2715 21.0283ZM97.2227 23.4688V14.5H98.877V25H97.3799L97.2227 23.4688ZM92.4102 21.3838V21.2402C92.4102 20.6797 92.4762 20.1693 92.6084 19.709C92.7406 19.2441 92.932 18.8454 93.1826 18.5127C93.4333 18.1755 93.7386 17.918 94.0986 17.7402C94.4587 17.5579 94.8643 17.4668 95.3154 17.4668C95.762 17.4668 96.154 17.5534 96.4912 17.7266C96.8285 17.8997 97.1156 18.1481 97.3525 18.4717C97.5895 18.7907 97.7786 19.1735 97.9199 19.6201C98.0612 20.0622 98.1615 20.5544 98.2207 21.0967V21.5547C98.1615 22.0833 98.0612 22.5664 97.9199 23.0039C97.7786 23.4414 97.5895 23.8197 97.3525 24.1387C97.1156 24.4577 96.8262 24.7038 96.4844 24.877C96.1471 25.0501 95.7529 25.1367 95.3018 25.1367C94.8551 25.1367 94.4518 25.0433 94.0918 24.8564C93.7363 24.6696 93.4333 24.4076 93.1826 24.0703C92.932 23.7331 92.7406 23.3366 92.6084 22.8809C92.4762 22.4206 92.4102 21.9215 92.4102 21.3838ZM94.0576 21.2402V21.3838C94.0576 21.721 94.0872 22.0355 94.1465 22.3271C94.2103 22.6188 94.3083 22.8763 94.4404 23.0996C94.5726 23.3184 94.7435 23.4915 94.9531 23.6191C95.1673 23.7422 95.4225 23.8037 95.7188 23.8037C96.0924 23.8037 96.4001 23.7217 96.6416 23.5576C96.8831 23.3936 97.0723 23.1725 97.209 22.8945C97.3503 22.612 97.446 22.2975 97.4961 21.9512V20.7139C97.4688 20.445 97.4118 20.1943 97.3252 19.9619C97.2432 19.7295 97.1315 19.5267 96.9902 19.3535C96.849 19.1758 96.6735 19.0391 96.4639 18.9434C96.2588 18.8431 96.015 18.793 95.7324 18.793C95.4316 18.793 95.1764 18.8568 94.9668 18.9844C94.7572 19.112 94.584 19.2874 94.4473 19.5107C94.3151 19.734 94.2171 19.9938 94.1533 20.29C94.0895 20.5863 94.0576 20.903 94.0576 21.2402ZM102.613 17.6035V25H100.959V17.6035H102.613ZM100.85 15.6621C100.85 15.4115 100.932 15.2041 101.096 15.04C101.264 14.8714 101.497 14.7871 101.793 14.7871C102.085 14.7871 102.315 14.8714 102.483 15.04C102.652 15.2041 102.736 15.4115 102.736 15.6621C102.736 15.9082 102.652 16.1133 102.483 16.2773C102.315 16.4414 102.085 16.5234 101.793 16.5234C101.497 16.5234 101.264 16.4414 101.096 16.2773C100.932 16.1133 100.85 15.9082 100.85 15.6621ZM104.354 21.3838V21.2266C104.354 20.6934 104.431 20.1989 104.586 19.7432C104.741 19.2829 104.964 18.8841 105.256 18.5469C105.552 18.2051 105.912 17.9408 106.336 17.7539C106.764 17.5625 107.247 17.4668 107.785 17.4668C108.327 17.4668 108.811 17.5625 109.234 17.7539C109.663 17.9408 110.025 18.2051 110.321 18.5469C110.618 18.8841 110.843 19.2829 110.998 19.7432C111.153 20.1989 111.23 20.6934 111.23 21.2266V21.3838C111.23 21.917 111.153 22.4115 110.998 22.8672C110.843 23.3229 110.618 23.7217 110.321 24.0635C110.025 24.4007 109.665 24.665 109.241 24.8564C108.817 25.0433 108.337 25.1367 107.799 25.1367C107.257 25.1367 106.771 25.0433 106.343 24.8564C105.919 24.665 105.559 24.4007 105.263 24.0635C104.966 23.7217 104.741 23.3229 104.586 22.8672C104.431 22.4115 104.354 21.917 104.354 21.3838ZM106.001 21.2266V21.3838C106.001 21.7165 106.035 22.0309 106.104 22.3271C106.172 22.6234 106.279 22.8831 106.425 23.1064C106.571 23.3298 106.757 23.5052 106.985 23.6328C107.213 23.7604 107.484 23.8242 107.799 23.8242C108.104 23.8242 108.368 23.7604 108.592 23.6328C108.82 23.5052 109.007 23.3298 109.152 23.1064C109.298 22.8831 109.405 22.6234 109.474 22.3271C109.547 22.0309 109.583 21.7165 109.583 21.3838V21.2266C109.583 20.8984 109.547 20.5885 109.474 20.2969C109.405 20.0007 109.296 19.7386 109.146 19.5107C109 19.2829 108.813 19.1051 108.585 18.9775C108.362 18.8454 108.095 18.7793 107.785 18.7793C107.475 18.7793 107.206 18.8454 106.979 18.9775C106.755 19.1051 106.571 19.2829 106.425 19.5107C106.279 19.7386 106.172 20.0007 106.104 20.2969C106.035 20.5885 106.001 20.8984 106.001 21.2266ZM113.969 17.6035L115.377 20.0576L116.812 17.6035H118.624L116.382 21.2334L118.713 25H116.901L115.397 22.4434L113.894 25H112.075L114.399 21.2334L112.164 17.6035H113.969ZM121.766 17.6035V25H120.111V17.6035H121.766ZM120.002 15.6621C120.002 15.4115 120.084 15.2041 120.248 15.04C120.417 14.8714 120.649 14.7871 120.945 14.7871C121.237 14.7871 121.467 14.8714 121.636 15.04C121.804 15.2041 121.889 15.4115 121.889 15.6621C121.889 15.9082 121.804 16.1133 121.636 16.2773C121.467 16.4414 121.237 16.5234 120.945 16.5234C120.649 16.5234 120.417 16.4414 120.248 16.2773C120.084 16.1133 120.002 15.9082 120.002 15.6621ZM128.332 23.4688V14.5H129.986V25H128.489L128.332 23.4688ZM123.52 21.3838V21.2402C123.52 20.6797 123.586 20.1693 123.718 19.709C123.85 19.2441 124.041 18.8454 124.292 18.5127C124.543 18.1755 124.848 17.918 125.208 17.7402C125.568 17.5579 125.974 17.4668 126.425 17.4668C126.871 17.4668 127.263 17.5534 127.601 17.7266C127.938 17.8997 128.225 18.1481 128.462 18.4717C128.699 18.7907 128.888 19.1735 129.029 19.6201C129.171 20.0622 129.271 20.5544 129.33 21.0967V21.5547C129.271 22.0833 129.171 22.5664 129.029 23.0039C128.888 23.4414 128.699 23.8197 128.462 24.1387C128.225 24.4577 127.936 24.7038 127.594 24.877C127.257 25.0501 126.862 25.1367 126.411 25.1367C125.965 25.1367 125.561 25.0433 125.201 24.8564C124.846 24.6696 124.543 24.4076 124.292 24.0703C124.041 23.7331 123.85 23.3366 123.718 22.8809C123.586 22.4206 123.52 21.9215 123.52 21.3838ZM125.167 21.2402V21.3838C125.167 21.721 125.197 22.0355 125.256 22.3271C125.32 22.6188 125.418 22.8763 125.55 23.0996C125.682 23.3184 125.853 23.4915 126.062 23.6191C126.277 23.7422 126.532 23.8037 126.828 23.8037C127.202 23.8037 127.509 23.7217 127.751 23.5576C127.993 23.3936 128.182 23.1725 128.318 22.8945C128.46 22.612 128.555 22.2975 128.605 21.9512V20.7139C128.578 20.445 128.521 20.1943 128.435 19.9619C128.353 19.7295 128.241 19.5267 128.1 19.3535C127.958 19.1758 127.783 19.0391 127.573 18.9434C127.368 18.8431 127.124 18.793 126.842 18.793C126.541 18.793 126.286 18.8568 126.076 18.9844C125.867 19.112 125.693 19.2874 125.557 19.5107C125.424 19.734 125.326 19.9938 125.263 20.29C125.199 20.5863 125.167 20.903 125.167 21.2402ZM135.22 25.1367C134.673 25.1367 134.178 25.0479 133.736 24.8701C133.299 24.6878 132.925 24.4349 132.615 24.1113C132.31 23.7878 132.075 23.4072 131.911 22.9697C131.747 22.5322 131.665 22.0605 131.665 21.5547V21.2812C131.665 20.7025 131.749 20.1784 131.918 19.709C132.087 19.2396 132.321 18.8385 132.622 18.5059C132.923 18.1686 133.278 17.9111 133.688 17.7334C134.099 17.5557 134.543 17.4668 135.021 17.4668C135.55 17.4668 136.013 17.5557 136.409 17.7334C136.806 17.9111 137.134 18.1618 137.394 18.4854C137.658 18.8044 137.854 19.1849 137.981 19.627C138.114 20.069 138.18 20.5566 138.18 21.0898V21.7939H132.465V20.6113H136.553V20.4814C136.544 20.1852 136.484 19.9072 136.375 19.6475C136.27 19.3877 136.108 19.1781 135.89 19.0186C135.671 18.859 135.379 18.7793 135.015 18.7793C134.741 18.7793 134.497 18.8385 134.283 18.957C134.074 19.071 133.898 19.2373 133.757 19.4561C133.616 19.6748 133.506 19.9391 133.429 20.249C133.356 20.5544 133.319 20.8984 133.319 21.2812V21.5547C133.319 21.8783 133.363 22.179 133.449 22.457C133.54 22.7305 133.673 22.9697 133.846 23.1748C134.019 23.3799 134.229 23.5417 134.475 23.6602C134.721 23.7741 135.001 23.8311 135.315 23.8311C135.712 23.8311 136.065 23.7513 136.375 23.5918C136.685 23.4323 136.954 23.2067 137.182 22.915L138.05 23.7559C137.89 23.9883 137.683 24.2116 137.428 24.4258C137.173 24.6354 136.86 24.8063 136.491 24.9385C136.127 25.0706 135.703 25.1367 135.22 25.1367Z" fill="black" fill-opacity="0.87"/>
<path d="M71.2168 58.3184V84H66.9805V63.3457L60.7051 65.4727V61.9746L70.707 58.3184H71.2168ZM94.6154 69.0586V73.2422C94.6154 75.2461 94.4162 76.957 94.0177 78.375C93.631 79.7812 93.0685 80.9238 92.3302 81.8027C91.592 82.6816 90.7072 83.3262 89.6759 83.7363C88.6564 84.1465 87.5138 84.3516 86.2482 84.3516C85.2404 84.3516 84.3029 84.2227 83.4357 83.9648C82.5802 83.707 81.8068 83.3027 81.1154 82.752C80.424 82.2012 79.8322 81.4922 79.34 80.625C78.8595 79.7461 78.4845 78.6973 78.215 77.4785C77.9572 76.2598 77.8283 74.8477 77.8283 73.2422V69.0586C77.8283 67.043 78.0275 65.3438 78.4259 63.9609C78.8244 62.5664 79.3927 61.4355 80.131 60.5684C80.8693 59.6895 81.7482 59.0508 82.7677 58.6523C83.799 58.2539 84.9474 58.0547 86.213 58.0547C87.2326 58.0547 88.1701 58.1836 89.0255 58.4414C89.8927 58.6875 90.6662 59.0801 91.3459 59.6191C92.0373 60.1582 92.6232 60.8613 93.1037 61.7285C93.5959 62.584 93.9709 63.6211 94.2287 64.8398C94.4865 66.0469 94.6154 67.4531 94.6154 69.0586ZM90.3791 73.8398V68.4258C90.3791 67.4062 90.3205 66.5098 90.2033 65.7363C90.0861 64.9512 89.9103 64.2891 89.6759 63.75C89.4533 63.1992 89.172 62.7539 88.8322 62.4141C88.4923 62.0625 88.1056 61.8105 87.672 61.6582C87.2384 61.4941 86.7521 61.4121 86.213 61.4121C85.5568 61.4121 84.9709 61.541 84.4552 61.7988C83.9396 62.0449 83.506 62.4434 83.1545 62.9941C82.8029 63.5449 82.5334 64.2715 82.3459 65.1738C82.1701 66.0645 82.0822 67.1484 82.0822 68.4258V73.8398C82.0822 74.8711 82.1408 75.7793 82.258 76.5645C82.3752 77.3496 82.5509 78.0234 82.7853 78.5859C83.0197 79.1367 83.3009 79.5938 83.6291 79.957C83.9689 80.3086 84.3556 80.5664 84.7892 80.7305C85.2345 80.8945 85.7209 80.9766 86.2482 80.9766C86.9162 80.9766 87.508 80.8477 88.0236 80.5898C88.5392 80.332 88.9728 79.9219 89.3244 79.3594C89.6759 78.7852 89.9396 78.041 90.1154 77.127C90.2912 76.2129 90.3791 75.1172 90.3791 73.8398Z" fill="#3FA71A"/>
<path d="M104.612 76.6035H105.877V84H104.735L104.612 82.291V76.6035ZM104.838 80.5615L105.31 80.5479C105.31 81.0674 105.262 81.5459 105.166 81.9834C105.075 82.4209 104.931 82.8014 104.735 83.125C104.539 83.4486 104.289 83.6992 103.983 83.877C103.678 84.0547 103.311 84.1436 102.883 84.1436C102.536 84.1436 102.227 84.098 101.953 84.0068C101.684 83.9202 101.452 83.7812 101.256 83.5898C101.064 83.3939 100.905 83.141 100.777 82.8311L100.524 80.8555H101.317C101.317 81.3249 101.356 81.7077 101.434 82.0039C101.511 82.3001 101.618 82.528 101.755 82.6875C101.896 82.847 102.058 82.9564 102.24 83.0156C102.423 83.0749 102.618 83.1045 102.828 83.1045C103.234 83.1045 103.566 83.043 103.826 82.9199C104.09 82.7923 104.296 82.6146 104.441 82.3867C104.587 82.1589 104.69 81.89 104.749 81.5801C104.808 81.2702 104.838 80.9307 104.838 80.5615ZM100.06 76.6035H101.317V86.8438H100.06V76.6035ZM112.899 76.6035H114.048V83.8428C114.048 84.4945 113.915 85.0505 113.651 85.5107C113.387 85.971 113.018 86.3197 112.544 86.5566C112.074 86.7982 111.532 86.9189 110.917 86.9189C110.662 86.9189 110.361 86.8779 110.014 86.7959C109.673 86.7184 109.335 86.584 109.003 86.3926C108.675 86.2057 108.399 85.9528 108.176 85.6338L108.839 84.8818C109.149 85.2555 109.472 85.5153 109.809 85.6611C110.151 85.807 110.488 85.8799 110.821 85.8799C111.222 85.8799 111.568 85.8047 111.86 85.6543C112.152 85.5039 112.377 85.2806 112.537 84.9844C112.701 84.6927 112.783 84.3327 112.783 83.9043V78.2305L112.899 76.6035ZM107.806 80.3838V80.2402C107.806 79.6751 107.873 79.1624 108.005 78.7021C108.141 78.2373 108.335 77.8385 108.586 77.5059C108.841 77.1732 109.149 76.918 109.509 76.7402C109.869 76.5579 110.274 76.4668 110.725 76.4668C111.19 76.4668 111.596 76.5488 111.942 76.7129C112.293 76.8724 112.589 77.1071 112.831 77.417C113.077 77.7223 113.271 78.0915 113.412 78.5244C113.553 78.9574 113.651 79.4473 113.706 79.9941V80.623C113.656 81.1654 113.558 81.653 113.412 82.0859C113.271 82.5189 113.077 82.888 112.831 83.1934C112.589 83.4987 112.293 83.7334 111.942 83.8975C111.591 84.057 111.181 84.1367 110.712 84.1367C110.27 84.1367 109.869 84.0433 109.509 83.8564C109.153 83.6696 108.848 83.4076 108.593 83.0703C108.337 82.7331 108.141 82.3366 108.005 81.8809C107.873 81.4206 107.806 80.9215 107.806 80.3838ZM109.071 80.2402V80.3838C109.071 80.7529 109.108 81.0993 109.18 81.4229C109.258 81.7464 109.374 82.0312 109.529 82.2773C109.689 82.5234 109.891 82.7171 110.137 82.8584C110.384 82.9951 110.678 83.0635 111.019 83.0635C111.439 83.0635 111.785 82.9746 112.058 82.7969C112.332 82.6191 112.548 82.3844 112.708 82.0928C112.872 81.8011 112.999 81.4844 113.091 81.1426V79.4951C113.04 79.2445 112.963 79.0029 112.858 78.7705C112.758 78.5335 112.626 78.3239 112.462 78.1416C112.302 77.9548 112.104 77.8066 111.867 77.6973C111.63 77.5879 111.352 77.5332 111.033 77.5332C110.687 77.5332 110.388 77.6061 110.137 77.752C109.891 77.8932 109.689 78.0892 109.529 78.3398C109.374 78.5859 109.258 78.873 109.18 79.2012C109.108 79.5247 109.071 79.8711 109.071 80.2402ZM120.571 74.0469L116.421 84.8545H115.335L119.491 74.0469H120.571ZM123.41 78.0732V84H122.138V76.6035H123.341L123.41 78.0732ZM123.15 80.0215L122.562 80.001C122.566 79.4951 122.633 79.028 122.76 78.5996C122.888 78.1667 123.077 77.7907 123.328 77.4717C123.578 77.1527 123.89 76.9066 124.264 76.7334C124.638 76.5557 125.071 76.4668 125.563 76.4668C125.909 76.4668 126.228 76.5169 126.52 76.6172C126.812 76.7129 127.065 76.8656 127.279 77.0752C127.493 77.2848 127.659 77.5537 127.778 77.8818C127.896 78.21 127.955 78.6064 127.955 79.0713V84H126.691V79.1328C126.691 78.7454 126.625 78.4355 126.493 78.2031C126.365 77.9707 126.183 77.8021 125.946 77.6973C125.709 77.5879 125.431 77.5332 125.112 77.5332C124.738 77.5332 124.426 77.5993 124.175 77.7314C123.925 77.8636 123.724 78.0459 123.574 78.2783C123.423 78.5107 123.314 78.7773 123.246 79.0781C123.182 79.3743 123.15 79.6888 123.15 80.0215ZM127.942 79.3242L127.094 79.584C127.099 79.1784 127.165 78.7887 127.292 78.415C127.425 78.0413 127.614 77.7087 127.86 77.417C128.11 77.1253 128.418 76.8952 128.783 76.7266C129.147 76.5534 129.564 76.4668 130.034 76.4668C130.43 76.4668 130.781 76.5192 131.086 76.624C131.396 76.7288 131.656 76.8906 131.866 77.1094C132.08 77.3236 132.242 77.5993 132.351 77.9365C132.46 78.2738 132.515 78.6748 132.515 79.1396V84H131.244V79.126C131.244 78.7113 131.177 78.39 131.045 78.1621C130.918 77.9297 130.735 77.7679 130.498 77.6768C130.266 77.5811 129.988 77.5332 129.664 77.5332C129.386 77.5332 129.14 77.5811 128.926 77.6768C128.712 77.7725 128.532 77.9046 128.386 78.0732C128.24 78.2373 128.129 78.4264 128.051 78.6406C127.978 78.8548 127.942 79.0827 127.942 79.3242ZM135.484 76.3027H136.058C136.281 76.3027 136.466 76.2708 136.612 76.207C136.757 76.1432 136.867 76.0566 136.94 75.9473C137.017 75.8333 137.056 75.7035 137.056 75.5576C137.056 75.3571 136.983 75.1885 136.837 75.0518C136.691 74.915 136.461 74.8467 136.147 74.8467C135.887 74.8467 135.67 74.9036 135.497 75.0176C135.329 75.1315 135.244 75.2865 135.244 75.4824H134.171C134.171 75.1725 134.258 74.9059 134.431 74.6826C134.604 74.4548 134.839 74.2793 135.135 74.1562C135.431 74.0332 135.762 73.9717 136.126 73.9717C136.523 73.9717 136.871 74.0309 137.172 74.1494C137.473 74.2633 137.708 74.4342 137.876 74.6621C138.045 74.89 138.129 75.1702 138.129 75.5029C138.129 75.7445 138.054 75.9678 137.904 76.1729C137.758 76.3734 137.543 76.5352 137.261 76.6582C136.983 76.7767 136.643 76.8359 136.242 76.8359H135.484V76.3027ZM135.484 77.0889V76.5557H136.242C136.698 76.5557 137.072 76.6104 137.363 76.7197C137.655 76.8291 137.872 76.9863 138.013 77.1914C138.154 77.3965 138.225 77.6449 138.225 77.9365C138.225 78.2692 138.134 78.554 137.951 78.791C137.769 79.028 137.518 79.208 137.199 79.3311C136.885 79.4541 136.529 79.5156 136.133 79.5156C135.791 79.5156 135.463 79.4609 135.149 79.3516C134.839 79.2376 134.586 79.0622 134.39 78.8252C134.194 78.5882 134.096 78.2852 134.096 77.916H135.169C135.169 78.1211 135.26 78.2943 135.443 78.4355C135.625 78.5723 135.866 78.6406 136.167 78.6406C136.486 78.6406 136.728 78.57 136.892 78.4287C137.06 78.2874 137.145 78.1051 137.145 77.8818C137.145 77.6904 137.099 77.5378 137.008 77.4238C136.921 77.3053 136.796 77.221 136.632 77.1709C136.473 77.1162 136.281 77.0889 136.058 77.0889H135.484Z" fill="#3FA71A"/>
<path d="M147.444 71.7778L154.555 71.7778L154.555 80.6667L151.004 83.3333L147.444 80.6667L147.444 71.7778Z" fill="url(#paint0_linear_1130_2673)" fill-opacity="0.3"/>
<path fill-rule="evenodd" clip-rule="evenodd" d="M150.674 83.896C150.854 84.0761 151.146 84.0761 151.326 83.896L154.555 80.6666L153.903 80.0142L152.484 81.433C152.107 81.8105 151.461 81.5432 151.461 81.0093L151.461 77.1111L150.539 77.1111L150.539 81.0093C150.539 81.5432 149.893 81.8105 149.516 81.433L148.097 80.0142L147.444 80.6666L150.674 83.896Z" fill="black" fill-opacity="0.87"/>
<path d="M162.568 79.793V80.918H159.469V79.793H162.568ZM167.828 75.4395V84H166.416V77.1152L164.324 77.8242V76.6582L167.658 75.4395H167.828ZM175.309 75.416H175.484V76.5703H175.385C174.881 76.5703 174.445 76.6484 174.078 76.8047C173.715 76.9609 173.416 77.1758 173.182 77.4492C172.947 77.7227 172.771 78.043 172.654 78.4102C172.541 78.7734 172.484 79.1602 172.484 79.5703V80.9121C172.484 81.252 172.521 81.5527 172.596 81.8145C172.67 82.0723 172.773 82.2891 172.906 82.4648C173.043 82.6367 173.199 82.7676 173.375 82.8574C173.551 82.9473 173.74 82.9922 173.943 82.9922C174.154 82.9922 174.346 82.9492 174.518 82.8633C174.689 82.7734 174.836 82.6504 174.957 82.4941C175.078 82.3379 175.17 82.1523 175.232 81.9375C175.295 81.7227 175.326 81.4883 175.326 81.2344C175.326 80.9922 175.295 80.7656 175.232 80.5547C175.174 80.3398 175.086 80.1523 174.969 79.9922C174.852 79.8281 174.705 79.7012 174.529 79.6113C174.357 79.5176 174.158 79.4707 173.932 79.4707C173.65 79.4707 173.395 79.5371 173.164 79.6699C172.938 79.8027 172.754 79.9766 172.613 80.1914C172.477 80.4023 172.402 80.627 172.391 80.8652L171.852 80.6895C171.883 80.3262 171.963 80 172.092 79.7109C172.225 79.4219 172.398 79.1758 172.613 78.9727C172.828 78.7695 173.076 78.6152 173.357 78.5098C173.643 78.4004 173.955 78.3457 174.295 78.3457C174.709 78.3457 175.068 78.4238 175.373 78.5801C175.678 78.7363 175.93 78.9492 176.129 79.2188C176.332 79.4844 176.482 79.7891 176.58 80.1328C176.682 80.4727 176.732 80.8281 176.732 81.1992C176.732 81.6094 176.67 81.9922 176.545 82.3477C176.42 82.6992 176.236 83.0078 175.994 83.2734C175.756 83.5391 175.465 83.7461 175.121 83.8945C174.781 84.043 174.395 84.1172 173.961 84.1172C173.504 84.1172 173.096 84.0293 172.736 83.8535C172.381 83.6777 172.078 83.4355 171.828 83.127C171.582 82.8184 171.395 82.4629 171.266 82.0605C171.137 81.6582 171.072 81.2324 171.072 80.7832V80.1973C171.072 79.5488 171.154 78.9375 171.318 78.3633C171.482 77.7852 171.734 77.2754 172.074 76.834C172.418 76.3926 172.857 76.0469 173.393 75.7969C173.928 75.543 174.566 75.416 175.309 75.416Z" fill="black" fill-opacity="0.87"/>
<path d="M178.586 77.5605V77.1094C178.586 76.7852 178.656 76.4902 178.797 76.2246C178.938 75.959 179.143 75.7461 179.412 75.5859C179.682 75.4258 180.006 75.3457 180.385 75.3457C180.775 75.3457 181.104 75.4258 181.369 75.5859C181.639 75.7461 181.844 75.959 181.984 76.2246C182.125 76.4902 182.195 76.7852 182.195 77.1094V77.5605C182.195 77.877 182.125 78.168 181.984 78.4336C181.848 78.6992 181.645 78.9121 181.375 79.0723C181.109 79.2324 180.783 79.3125 180.396 79.3125C180.014 79.3125 179.686 79.2324 179.412 79.0723C179.143 78.9121 178.938 78.6992 178.797 78.4336C178.656 78.168 178.586 77.877 178.586 77.5605ZM179.564 77.1094V77.5605C179.564 77.7168 179.594 77.8652 179.652 78.0059C179.715 78.1465 179.809 78.2598 179.934 78.3457C180.059 78.4316 180.213 78.4746 180.396 78.4746C180.584 78.4746 180.736 78.4316 180.854 78.3457C180.975 78.2598 181.064 78.1465 181.123 78.0059C181.182 77.8652 181.211 77.7168 181.211 77.5605V77.1094C181.211 76.9492 181.18 76.7988 181.117 76.6582C181.059 76.5137 180.969 76.3984 180.848 76.3125C180.727 76.2266 180.572 76.1836 180.385 76.1836C180.205 76.1836 180.053 76.2266 179.928 76.3125C179.807 76.3984 179.715 76.5137 179.652 76.6582C179.594 76.7988 179.564 76.9492 179.564 77.1094ZM182.699 82.3652V81.9082C182.699 81.5879 182.77 81.2949 182.91 81.0293C183.055 80.7637 183.262 80.5508 183.531 80.3906C183.801 80.2305 184.125 80.1504 184.504 80.1504C184.895 80.1504 185.223 80.2305 185.488 80.3906C185.758 80.5508 185.961 80.7637 186.098 81.0293C186.238 81.2949 186.309 81.5879 186.309 81.9082V82.3652C186.309 82.6855 186.238 82.9785 186.098 83.2441C185.961 83.5098 185.76 83.7227 185.494 83.8828C185.229 84.043 184.904 84.123 184.521 84.123C184.135 84.123 183.805 84.043 183.531 83.8828C183.262 83.7227 183.055 83.5098 182.91 83.2441C182.77 82.9785 182.699 82.6855 182.699 82.3652ZM183.684 81.9082V82.3652C183.684 82.5215 183.715 82.6699 183.777 82.8105C183.844 82.9512 183.939 83.0664 184.064 83.1562C184.189 83.2422 184.34 83.2852 184.516 83.2852C184.715 83.2852 184.875 83.2422 184.996 83.1562C185.117 83.0664 185.203 82.9531 185.254 82.8164C185.309 82.6758 185.336 82.5254 185.336 82.3652V81.9082C185.336 81.748 185.305 81.5977 185.242 81.457C185.184 81.3164 185.092 81.2031 184.967 81.1172C184.846 81.0312 184.691 80.9883 184.504 80.9883C184.32 80.9883 184.168 81.0312 184.047 81.1172C183.926 81.2031 183.834 81.3164 183.771 81.457C183.713 81.5977 183.684 81.748 183.684 81.9082ZM184.855 76.6875L180.689 83.3555L179.969 82.9395L184.135 76.2715L184.855 76.6875Z" fill="black" fill-opacity="0.87"/>
<g clip-path="url(#clip0_1130_2673)">
<path fill-rule="evenodd" clip-rule="evenodd" d="M188.004 124.999L12 125.001L12 124.001L188.004 123.999L188.004 124.999Z" fill="black" fill-opacity="0.12"/>
<path d="M12 133.775C13.0166 133.775 18.5098 133.775 21.2632 133.775L34.6433 143L44.9357 112.25L66.5497 134.8L90.2222 112.25L97.4269 113.275L111.836 143H126.246L138.596 116.35H147.86L157.123 102L169.474 106.1L188 116.35" stroke="black" stroke-opacity="0.87" stroke-width="1.5"/>
</g>
<defs>
<linearGradient id="paint0_linear_1130_2673" x1="150.683" y1="84.0298" x2="150.683" y2="71.7778" gradientUnits="userSpaceOnUse">
<stop offset="0" style="stop-color:#fff;stop-opacity:1" />
<stop offset="1" style="stop-color:#fff;stop-opacity:0" />
</linearGradient>
<clipPath id="clip0_1130_2673">
<rect width="176" height="60" fill="white" transform="translate(12 90)"/>
</clipPath>
</defs>
</svg>
