<svg xmlns="http://www.w3.org/2000/svg" width="200" height="160" fill="none"><rect width="200" height="160" fill="#fff" rx="4"/><rect width="199" height="159" x=".5" y=".5" stroke="#000" stroke-opacity=".12" rx="3.5"/><path fill="#3FA71A" d="M34.528 24.255c-7.22 0-13.079 5.859-13.079 13.078 0 7.22 5.86 13.079 13.079 13.079 7.22 0 13.078-5.86 13.078-13.079 0-7.22-5.859-13.078-13.078-13.078ZM24.065 37.333c0-.797.104-1.582.274-2.328l6.252 6.252v1.308a2.623 2.623 0 0 0 2.616 2.616v2.524c-5.14-.654-9.142-5.049-9.142-10.372Zm18.166 7.063c-.34-1.06-1.308-1.831-2.485-1.831h-1.308V38.64c0-.72-.588-1.308-1.308-1.308h-7.847v-2.615H31.9c.72 0 1.308-.589 1.308-1.308v-2.616h2.615a2.623 2.623 0 0 0 2.616-2.616v-.536c3.832 1.543 6.553 5.31 6.553 9.691 0 2.72-1.06 5.206-2.76 7.063Z"/><path fill="#000" fill-opacity=".87" d="M64.771 25.591v9.242h-1.593l-4.145-6.62v6.62H57.44v-9.242h1.593l4.157 6.633v-6.633h1.581Zm3.633 2.374v6.868h-1.536v-6.868h1.536Zm-1.637-1.802c0-.233.076-.426.228-.578.157-.157.373-.235.648-.235.27 0 .484.078.64.235a.772.772 0 0 1 .236.578.764.764 0 0 1-.235.57c-.157.153-.37.23-.641.23-.275 0-.491-.077-.648-.23a.775.775 0 0 1-.228-.57Zm6.712 1.802v1.117h-3.873v-1.117h3.873Zm-2.755-1.682h1.53v6.652c0 .212.029.375.088.49.064.11.15.183.26.221.11.038.24.057.388.057a3.003 3.003 0 0 0 .54-.057l.006 1.168a3.89 3.89 0 0 1-.445.102c-.165.03-.355.044-.571.044-.351 0-.662-.061-.933-.184a1.373 1.373 0 0 1-.635-.616c-.152-.283-.228-.66-.228-1.13v-6.747Zm5.721 2.99v5.56h-1.53v-6.868h1.46l.07 1.308Zm2.101-1.352-.012 1.422a3.962 3.962 0 0 0-.622-.05 1.93 1.93 0 0 0-.692.113 1.305 1.305 0 0 0-.502.318c-.13.135-.233.3-.304.495a2.214 2.214 0 0 0-.127.653l-.35.026c0-.432.043-.832.127-1.2.085-.368.212-.692.381-.971.174-.28.39-.497.648-.654.262-.157.565-.235.907-.235.094 0 .193.009.299.026.11.017.192.036.247.057Zm.752 3.555v-.146c0-.496.072-.955.216-1.378.144-.427.35-.798.622-1.11.275-.318.61-.564 1.003-.737a3.263 3.263 0 0 1 1.345-.267c.504 0 .953.09 1.346.267.398.173.734.419 1.01.736.274.313.484.684.628 1.111.144.423.216.882.216 1.377v.146c0 .496-.072.955-.216 1.378a3.296 3.296 0 0 1-.629 1.11c-.275.314-.609.56-1.003.737-.393.174-.84.26-1.339.26a3.35 3.35 0 0 1-1.352-.26 2.913 2.913 0 0 1-1.003-.736 3.294 3.294 0 0 1-.628-1.111 4.253 4.253 0 0 1-.216-1.378Zm1.53-.146v.146c0 .308.031.6.095.875.063.276.163.517.298.724.136.207.31.37.52.489.212.118.464.178.756.178.284 0 .529-.06.736-.178.212-.119.385-.282.52-.489.136-.207.236-.449.3-.724.067-.275.1-.567.1-.875v-.146c0-.305-.033-.593-.1-.864a2.217 2.217 0 0 0-.305-.73 1.458 1.458 0 0 0-.52-.495 1.433 1.433 0 0 0-.744-.184c-.287 0-.537.061-.749.184a1.473 1.473 0 0 0-.514.495 2.301 2.301 0 0 0-.298.73c-.064.271-.095.559-.095.863Zm10.787-3.365h1.39v6.678c0 .618-.131 1.142-.394 1.574-.262.432-.628.76-1.098.984-.47.229-1.013.343-1.631.343-.263 0-.555-.038-.876-.114a3.59 3.59 0 0 1-.927-.369 2.298 2.298 0 0 1-.743-.653l.718-.902c.245.292.516.506.812.641.296.136.608.203.933.203.352 0 .65-.065.895-.196a1.33 1.33 0 0 0 .578-.565c.135-.25.203-.555.203-.914V29.52l.14-1.555Zm-4.666 3.51v-.133c0-.52.064-.994.19-1.422.128-.431.31-.802.547-1.11.236-.314.524-.553.863-.718.338-.17.721-.254 1.149-.254.444 0 .823.08 1.136.241.317.161.582.392.793.692.212.297.377.652.496 1.067.122.41.213.867.272 1.37v.426c-.054.491-.148.94-.279 1.346a3.715 3.715 0 0 1-.52 1.054 2.221 2.221 0 0 1-.8.685c-.313.16-.684.241-1.11.241-.42 0-.799-.086-1.137-.26a2.588 2.588 0 0 1-.864-.73 3.46 3.46 0 0 1-.545-1.104 4.865 4.865 0 0 1-.19-1.39Zm1.53-.133v.134c0 .313.03.605.089.875.063.271.159.51.285.718.132.203.297.364.496.482.203.114.442.171.717.171.36 0 .654-.076.882-.228.233-.152.41-.358.533-.616.127-.262.216-.554.267-.876v-1.149a2.8 2.8 0 0 0-.159-.698 1.868 1.868 0 0 0-.31-.565 1.298 1.298 0 0 0-.496-.38 1.648 1.648 0 0 0-.704-.14c-.275 0-.514.059-.718.177-.203.119-.37.282-.501.49a2.417 2.417 0 0 0-.286.723c-.063.275-.095.569-.095.882Zm9.39 3.618c-.507 0-.966-.082-1.377-.247a3.041 3.041 0 0 1-1.04-.705 3.122 3.122 0 0 1-.655-1.06 3.71 3.71 0 0 1-.228-1.314v-.254c0-.537.078-1.024.235-1.46.156-.436.374-.808.653-1.117.28-.313.61-.552.99-.717a3.08 3.08 0 0 1 1.239-.248c.49 0 .92.083 1.288.248.368.165.673.398.914.698.246.296.428.65.546 1.06.123.41.184.863.184 1.358v.654h-5.306v-1.098h3.795v-.12a2.148 2.148 0 0 0-.165-.775 1.316 1.316 0 0 0-.45-.584c-.203-.148-.474-.222-.813-.222-.254 0-.48.055-.679.165-.195.106-.358.26-.489.463a2.44 2.44 0 0 0-.304.737 4.138 4.138 0 0 0-.102.958v.254c0 .3.04.58.12.838.085.254.208.476.369.666.16.191.355.341.584.451.228.106.489.159.78.159.369 0 .697-.074.984-.222.288-.148.538-.358.75-.629l.806.781a3.17 3.17 0 0 1-.578.622 2.893 2.893 0 0 1-.87.476 3.457 3.457 0 0 1-1.18.184Zm5.71-5.529v5.402h-1.53v-6.868h1.441l.089 1.466Zm-.273 1.714-.495-.006c.004-.487.071-.933.203-1.34.135-.406.321-.755.558-1.047.241-.292.529-.516.864-.672a2.54 2.54 0 0 1 1.117-.242c.33 0 .628.047.895.14.271.089.501.235.692.438.194.203.342.468.444.793.102.322.152.718.152 1.187v4.437H106.2V30.39c0-.33-.048-.59-.146-.78a.815.815 0 0 0-.412-.413 1.548 1.548 0 0 0-.667-.127c-.262 0-.497.055-.704.165-.208.11-.383.26-.527.45-.14.19-.248.41-.324.66-.076.25-.114.517-.114.8Zm13.919 2.266v-8.328h1.536v9.75h-1.39l-.146-1.422Zm-4.469-1.936v-.133c0-.52.061-.994.184-1.422.123-.431.3-.802.533-1.11a2.34 2.34 0 0 1 .851-.718c.334-.17.711-.254 1.13-.254.414 0 .778.08 1.091.241.314.161.58.392.8.692.22.297.396.652.527 1.067.131.41.224.867.279 1.37v.426c-.055.491-.148.94-.279 1.346a3.613 3.613 0 0 1-.527 1.054 2.28 2.28 0 0 1-.806.685c-.313.16-.679.241-1.098.241-.415 0-.789-.086-1.124-.26a2.487 2.487 0 0 1-.844-.73 3.438 3.438 0 0 1-.533-1.104 5.01 5.01 0 0 1-.184-1.39Zm1.53-.133v.134c0 .313.027.605.082.875.059.271.15.51.273.718.123.203.282.364.476.482.199.114.436.171.711.171.347 0 .633-.076.857-.228.224-.152.4-.358.527-.616a2.88 2.88 0 0 0 .267-.876v-1.149a2.85 2.85 0 0 0-.159-.698 1.868 1.868 0 0 0-.311-.565 1.306 1.306 0 0 0-.489-.38 1.53 1.53 0 0 0-.679-.14c-.279 0-.516.059-.711.177a1.44 1.44 0 0 0-.483.49 2.419 2.419 0 0 0-.272.723c-.06.275-.089.569-.089.882Zm7.962-3.377v6.868h-1.536v-6.868h1.536Zm-1.638-1.802c0-.233.077-.426.229-.578.156-.157.372-.235.647-.235.271 0 .485.078.641.235a.77.77 0 0 1 .235.578.763.763 0 0 1-.235.57c-.156.153-.37.23-.641.23-.275 0-.491-.077-.647-.23a.777.777 0 0 1-.229-.57Zm3.272 5.313v-.146c0-.496.072-.955.216-1.378.144-.427.351-.798.622-1.11a2.803 2.803 0 0 1 1.003-.737 3.259 3.259 0 0 1 1.345-.267c.504 0 .953.09 1.346.267a2.79 2.79 0 0 1 1.009.736c.275.313.485.684.629 1.111.144.423.216.882.216 1.377v.146c0 .496-.072.955-.216 1.378a3.299 3.299 0 0 1-.629 1.11 2.908 2.908 0 0 1-1.003.737c-.393.174-.84.26-1.339.26a3.35 3.35 0 0 1-1.352-.26 2.908 2.908 0 0 1-1.003-.736 3.297 3.297 0 0 1-.628-1.111 4.25 4.25 0 0 1-.216-1.378Zm1.53-.146v.146c0 .308.031.6.095.875.063.276.163.517.298.724.136.207.309.37.521.489.211.118.463.178.755.178.284 0 .529-.06.736-.178.212-.119.385-.282.521-.489.135-.207.235-.449.298-.724.068-.275.102-.567.102-.875v-.146c0-.305-.034-.593-.102-.864a2.22 2.22 0 0 0-.304-.73 1.46 1.46 0 0 0-.521-.495 1.432 1.432 0 0 0-.743-.184 1.47 1.47 0 0 0-.749.184 1.481 1.481 0 0 0-.514.495 2.3 2.3 0 0 0-.298.73c-.064.271-.095.559-.095.863Zm7.416-3.365 1.308 2.279 1.333-2.279h1.682l-2.082 3.37 2.164 3.498h-1.682l-1.396-2.374-1.397 2.374h-1.688l2.158-3.497-2.076-3.37h1.676Zm7.258 0v6.868h-1.536v-6.868h1.536Zm-1.638-1.802a.78.78 0 0 1 .229-.578c.156-.157.372-.235.647-.235.271 0 .485.078.641.235a.77.77 0 0 1 .235.578.763.763 0 0 1-.235.57c-.156.153-.37.23-.641.23-.275 0-.491-.077-.647-.23a.773.773 0 0 1-.229-.57Zm7.753 7.248v-8.328h1.536v9.75h-1.39l-.146-1.422Zm-4.469-1.936v-.133c0-.52.062-.994.185-1.422.122-.431.3-.802.533-1.11.232-.314.516-.553.85-.718.335-.17.711-.254 1.13-.254.415 0 .779.08 1.092.241.313.161.58.392.8.692.22.297.395.652.527 1.067.131.41.224.867.279 1.37v.426c-.055.491-.148.94-.279 1.346a3.637 3.637 0 0 1-.527 1.054 2.28 2.28 0 0 1-.806.685c-.314.16-.68.241-1.099.241-.414 0-.789-.086-1.123-.26a2.478 2.478 0 0 1-.844-.73 3.417 3.417 0 0 1-.533-1.104 5.009 5.009 0 0 1-.185-1.39Zm1.53-.133v.134c0 .313.028.605.083.875.059.271.15.51.273.718.122.203.281.364.476.482.199.114.436.171.711.171.347 0 .632-.076.857-.228.224-.152.4-.358.526-.616.132-.262.221-.554.267-.876v-1.149a2.761 2.761 0 0 0-.159-.698 1.846 1.846 0 0 0-.311-.565 1.31 1.31 0 0 0-.488-.38 1.535 1.535 0 0 0-.68-.14c-.279 0-.516.059-.711.177a1.447 1.447 0 0 0-.482.49 2.393 2.393 0 0 0-.273.723c-.059.275-.089.569-.089.882Zm9.353 3.618c-.508 0-.967-.082-1.378-.247a3.047 3.047 0 0 1-1.041-.705 3.143 3.143 0 0 1-.654-1.06 3.72 3.72 0 0 1-.228-1.314v-.254c0-.537.078-1.024.235-1.46.156-.436.374-.808.654-1.117.279-.313.609-.552.99-.717a3.08 3.08 0 0 1 1.238-.248c.491 0 .92.083 1.288.248.368.165.673.398.914.698.246.296.428.65.546 1.06.123.41.184.863.184 1.358v.654h-5.306v-1.098h3.796v-.12a2.171 2.171 0 0 0-.165-.775 1.322 1.322 0 0 0-.451-.584c-.203-.148-.474-.222-.813-.222-.254 0-.48.055-.679.165-.195.106-.357.26-.489.463a2.445 2.445 0 0 0-.304.737 4.12 4.12 0 0 0-.102.958v.254c0 .3.04.58.121.838.084.254.207.476.368.666.161.191.355.341.584.451.228.106.489.159.781.159.368 0 .696-.074.984-.222.287-.148.537-.358.749-.629l.806.781a3.142 3.142 0 0 1-.578.622 2.893 2.893 0 0 1-.87.476 3.453 3.453 0 0 1-1.18.184Z"/><path fill="#000" fill-opacity=".38" d="M61.374 50.918v.915h-3.361v-.915h3.36Zm-3.04-5.78v6.695H57.18V45.14h1.155Zm6.822 5.698v-2.373c0-.178-.032-.331-.096-.46a.676.676 0 0 0-.294-.299 1.006 1.006 0 0 0-.488-.105c-.18 0-.337.03-.469.092a.758.758 0 0 0-.308.248.599.599 0 0 0-.11.354h-1.104c0-.196.048-.386.143-.57.095-.184.233-.348.414-.492.18-.144.397-.258.648-.34.251-.083.533-.125.846-.125.374 0 .705.063.993.189.291.126.52.316.685.57.169.251.253.567.253.947v2.212c0 .227.015.43.046.611.034.178.081.333.143.465v.073h-1.136a1.967 1.967 0 0 1-.124-.455 3.73 3.73 0 0 1-.041-.542Zm.161-2.028.01.685h-.796c-.205 0-.386.02-.542.06a1.113 1.113 0 0 0-.391.165.718.718 0 0 0-.313.621c0 .132.03.253.092.363.061.108.15.192.267.253.12.062.263.092.432.092.227 0 .425-.046.593-.138a1.22 1.22 0 0 0 .405-.345.75.75 0 0 0 .156-.39l.359.492c-.037.125-.1.26-.189.404a1.959 1.959 0 0 1-.35.414 1.735 1.735 0 0 1-1.19.441c-.325 0-.615-.064-.87-.193a1.544 1.544 0 0 1-.597-.529 1.371 1.371 0 0 1-.216-.758c0-.264.049-.497.147-.7a1.37 1.37 0 0 1 .442-.514c.196-.138.435-.242.717-.313.282-.073.604-.11.965-.11h.87Zm5.098 1.678c0-.11-.028-.21-.083-.299-.055-.092-.16-.174-.317-.248a3.073 3.073 0 0 0-.68-.202 5.864 5.864 0 0 1-.727-.207 2.305 2.305 0 0 1-.56-.3 1.258 1.258 0 0 1-.364-.413 1.146 1.146 0 0 1-.129-.552c0-.202.044-.394.133-.574.09-.181.216-.34.382-.479a1.86 1.86 0 0 1 .602-.326c.24-.08.506-.12.8-.12.417 0 .774.07 1.072.212.3.138.53.326.69.566.159.236.239.502.239.8h-1.109a.707.707 0 0 0-.1-.368.705.705 0 0 0-.295-.28 1.008 1.008 0 0 0-.497-.111c-.19 0-.347.03-.473.092a.648.648 0 0 0-.276.23.586.586 0 0 0-.041.538.531.531 0 0 0 .165.179c.077.052.181.101.313.147.135.046.303.09.506.133.38.08.706.183.979.308.276.123.487.282.634.479.148.193.221.438.221.735 0 .221-.047.423-.142.607-.092.181-.227.339-.405.474-.178.132-.39.234-.64.308a2.88 2.88 0 0 1-.827.11c-.45 0-.832-.08-1.145-.239a1.825 1.825 0 0 1-.712-.62 1.47 1.47 0 0 1-.24-.791h1.072a.83.83 0 0 0 .17.492c.104.12.233.207.386.262.157.052.318.078.483.078.2 0 .366-.026.501-.078a.72.72 0 0 0 .308-.221.526.526 0 0 0 .106-.322Zm4.532-3.628v.81h-2.805v-.81h2.805Zm-1.995-1.218h1.108v4.819c0 .153.021.27.064.354.046.08.109.133.189.16a.86.86 0 0 0 .28.042 2.267 2.267 0 0 0 .39-.041l.005.846c-.091.027-.199.052-.321.073a2.36 2.36 0 0 1-.414.032c-.255 0-.48-.044-.676-.133a.995.995 0 0 1-.46-.446c-.11-.205-.165-.478-.165-.818V45.64Zm8.58 5.02v-3.802h1.114v4.975h-1.049l-.064-1.172Zm.157-1.034.373-.009c0 .334-.037.642-.11.924a2.142 2.142 0 0 1-.34.731c-.154.206-.35.367-.59.483-.239.114-.525.17-.86.17-.241 0-.464-.035-.666-.105a1.366 1.366 0 0 1-.524-.327 1.485 1.485 0 0 1-.336-.575 2.657 2.657 0 0 1-.12-.846v-3.214h1.109v3.224c0 .18.021.332.064.455a.77.77 0 0 0 .175.29.62.62 0 0 0 .257.156c.099.03.203.046.313.046.316 0 .564-.062.745-.184.184-.126.314-.294.39-.506.08-.212.12-.449.12-.713Zm3.401-1.811v5.931h-1.108v-6.888h1.02l.088.957Zm3.242 1.485v.096c0 .362-.043.698-.129 1.007a2.46 2.46 0 0 1-.372.805 1.714 1.714 0 0 1-.603.529c-.239.125-.515.188-.827.188-.31 0-.581-.056-.814-.17a1.668 1.668 0 0 1-.584-.492 2.67 2.67 0 0 1-.386-.745 4.782 4.782 0 0 1-.203-.947V49.2c.04-.365.108-.696.203-.993.098-.298.227-.554.386-.768.16-.215.354-.38.584-.497.23-.116.498-.175.804-.175.313 0 .59.062.833.184.242.12.446.291.611.515.166.221.29.488.373.8.082.31.124.655.124 1.035Zm-1.108.096V49.3c0-.23-.022-.443-.065-.64-.043-.198-.11-.373-.202-.523a.99.99 0 0 0-.354-.35.963.963 0 0 0-.51-.129c-.197 0-.365.034-.506.102a.969.969 0 0 0-.354.27 1.281 1.281 0 0 0-.22.41c-.053.153-.09.32-.111.501v.892c.037.221.1.423.188.607.09.184.215.331.377.442.166.107.377.16.635.16.199 0 .37-.042.51-.128.141-.086.256-.204.345-.354.092-.154.16-.33.202-.529.043-.2.065-.41.065-.635Zm5.281 1.407v-6.032h1.113v7.062h-1.007l-.106-1.03Zm-3.237-1.402v-.097c0-.377.045-.72.134-1.03.088-.312.217-.58.386-.804.168-.227.374-.4.616-.52.242-.122.515-.184.818-.184.3 0 .564.059.791.175.227.117.42.284.58.501a2.6 2.6 0 0 1 .381.773c.095.297.163.628.203.993v.308c-.04.356-.108.68-.203.975a2.62 2.62 0 0 1-.381.763 1.65 1.65 0 0 1-.584.497 1.719 1.719 0 0 1-.796.174c-.3 0-.572-.063-.814-.188a1.798 1.798 0 0 1-.611-.529 2.49 2.49 0 0 1-.386-.8 3.636 3.636 0 0 1-.134-1.007Zm1.108-.097v.097c0 .227.02.438.06.635.043.196.109.369.198.52.089.146.204.263.345.349.144.082.316.124.515.124.251 0 .458-.055.62-.166.163-.11.29-.259.382-.446.095-.19.16-.401.193-.634v-.833a2.03 2.03 0 0 0-.115-.505 1.35 1.35 0 0 0-.225-.41.948.948 0 0 0-.354-.275 1.109 1.109 0 0 0-.492-.102.972.972 0 0 0-.515.13 1.043 1.043 0 0 0-.35.353c-.088.15-.154.325-.197.524-.043.2-.065.413-.065.64Zm7.402 1.532v-2.373c0-.178-.033-.331-.097-.46a.676.676 0 0 0-.294-.299 1.007 1.007 0 0 0-.488-.105c-.18 0-.337.03-.469.092a.759.759 0 0 0-.308.248.6.6 0 0 0-.11.354h-1.103c0-.196.047-.386.142-.57.095-.184.233-.348.414-.492.18-.144.397-.258.648-.34a2.7 2.7 0 0 1 .846-.125c.374 0 .705.063.993.189.291.126.52.316.685.57.169.251.253.567.253.947v2.212c0 .227.016.43.046.611.034.178.081.333.143.465v.073h-1.136a1.962 1.962 0 0 1-.124-.455 3.717 3.717 0 0 1-.041-.542Zm.16-2.028.01.685h-.796c-.205 0-.386.02-.542.06a1.114 1.114 0 0 0-.391.165.72.72 0 0 0-.313.621c0 .132.03.253.092.363.061.108.15.192.267.253.12.062.263.092.432.092.227 0 .425-.046.593-.138.172-.095.307-.21.405-.345a.75.75 0 0 0 .156-.39l.359.492c-.037.125-.1.26-.189.404a1.96 1.96 0 0 1-.35.414 1.736 1.736 0 0 1-1.19.441c-.325 0-.615-.064-.869-.193a1.545 1.545 0 0 1-.598-.529 1.372 1.372 0 0 1-.216-.758c0-.264.05-.497.147-.7.101-.204.249-.376.442-.514.196-.138.435-.242.717-.313.282-.073.604-.11.966-.11h.869Zm4.588-1.95v.81h-2.805v-.81h2.805Zm-1.996-1.218h1.108v4.819c0 .153.022.27.065.354.046.08.109.133.188.16.08.028.173.042.281.042a2.268 2.268 0 0 0 .391-.041l.004.846a2.8 2.8 0 0 1-.322.073 2.352 2.352 0 0 1-.414.032c-.254 0-.479-.044-.675-.133a.99.99 0 0 1-.46-.446c-.111-.205-.166-.478-.166-.818V45.64Zm5.24 6.285c-.367 0-.7-.06-.997-.179a2.19 2.19 0 0 1-.754-.51 2.248 2.248 0 0 1-.474-.768 2.697 2.697 0 0 1-.166-.952v-.184c0-.39.057-.742.171-1.057.113-.316.271-.586.473-.81.203-.227.442-.4.717-.52.276-.119.575-.179.897-.179.356 0 .667.06.933.18.267.12.488.288.663.506.177.214.309.47.395.767.089.298.133.626.133.984v.474h-3.844v-.795h2.75v-.088a1.544 1.544 0 0 0-.12-.56.95.95 0 0 0-.326-.424c-.147-.107-.343-.16-.589-.16a.998.998 0 0 0-.491.119.975.975 0 0 0-.355.335 1.764 1.764 0 0 0-.22.534 2.999 2.999 0 0 0-.074.694v.184c0 .218.029.42.088.607.061.184.15.345.266.483.117.138.258.246.423.326.166.077.354.115.566.115.266 0 .504-.053.712-.16.209-.108.39-.26.543-.456l.584.566a2.281 2.281 0 0 1-.418.45 2.104 2.104 0 0 1-.63.345 2.513 2.513 0 0 1-.856.133Zm8.554-6.81v6.718h-1.108v-5.402l-1.641.556v-.915l2.616-.956h.133Zm5.622 5.688v-6.032h1.113v7.062h-1.007l-.106-1.03Zm-3.237-1.402v-.097c0-.377.044-.72.133-1.03a2.42 2.42 0 0 1 .387-.804c.168-.227.374-.4.616-.52.242-.122.515-.184.818-.184.301 0 .564.059.791.175.227.117.42.284.579.501.16.215.287.472.382.773.095.297.162.628.202.993v.308c-.04.356-.107.68-.202.975a2.603 2.603 0 0 1-.382.763c-.159.215-.354.38-.584.497a1.716 1.716 0 0 1-.795.174c-.3 0-.572-.063-.814-.188a1.793 1.793 0 0 1-.611-.529 2.484 2.484 0 0 1-.387-.8 3.633 3.633 0 0 1-.133-1.007Zm1.108-.097v.097c0 .227.02.438.06.635.043.196.109.369.198.52.089.146.203.263.344.349.145.082.316.124.515.124.252 0 .459-.055.621-.166.163-.11.29-.259.382-.446.095-.19.159-.401.193-.634v-.833a2.025 2.025 0 0 0-.115-.505 1.35 1.35 0 0 0-.225-.41.948.948 0 0 0-.354-.275 1.11 1.11 0 0 0-.492-.102.97.97 0 0 0-.515.13 1.046 1.046 0 0 0-.35.353c-.089.15-.155.325-.197.524-.043.2-.065.413-.065.64Zm9.943 1.532v-2.373c0-.178-.033-.331-.097-.46a.678.678 0 0 0-.294-.299 1.01 1.01 0 0 0-.488-.105c-.181 0-.337.03-.469.092a.76.76 0 0 0-.308.248.603.603 0 0 0-.11.354h-1.104c0-.196.048-.386.143-.57.095-.184.233-.348.414-.492a2.07 2.07 0 0 1 .648-.34c.251-.083.533-.125.846-.125.374 0 .705.063.993.189.291.126.52.316.685.57.169.251.253.567.253.947v2.212c0 .227.016.43.046.611.034.178.081.333.143.465v.073h-1.136a1.987 1.987 0 0 1-.124-.455 3.66 3.66 0 0 1-.041-.542Zm.16-2.028.01.685h-.796c-.205 0-.386.02-.542.06a1.108 1.108 0 0 0-.391.165.722.722 0 0 0-.235.267.782.782 0 0 0-.078.354.74.74 0 0 0 .092.363.64.64 0 0 0 .267.253.934.934 0 0 0 .432.092 1.218 1.218 0 0 0 .998-.483.75.75 0 0 0 .156-.39l.359.492c-.037.125-.1.26-.189.404a1.961 1.961 0 0 1-.349.414 1.73 1.73 0 0 1-1.191.441c-.325 0-.615-.064-.869-.193a1.541 1.541 0 0 1-.598-.529 1.372 1.372 0 0 1-.216-.758c0-.264.049-.497.147-.7.101-.204.248-.376.442-.514.196-.138.435-.242.717-.313.282-.073.604-.11.965-.11h.869Zm5.494-1.95h1.006v4.837c0 .448-.095.828-.285 1.14-.19.313-.455.551-.795.713a2.771 2.771 0 0 1-2.488-.101 1.68 1.68 0 0 1-.538-.473l.52-.653c.178.211.374.366.589.464.214.098.439.147.675.147.255 0 .471-.047.649-.142a.961.961 0 0 0 .418-.41c.098-.18.147-.401.147-.662v-3.733l.102-1.127Zm-3.38 2.543v-.097c0-.377.046-.72.138-1.03a2.45 2.45 0 0 1 .395-.804c.172-.227.38-.4.626-.52.245-.122.522-.184.832-.184.322 0 .596.059.823.175.23.117.421.284.575.501.153.215.273.472.358.773.089.297.155.628.198.993v.308c-.04.356-.107.68-.202.975a2.697 2.697 0 0 1-.377.763c-.157.215-.35.38-.58.497a1.737 1.737 0 0 1-.804.174c-.304 0-.578-.063-.823-.188a1.88 1.88 0 0 1-.626-.529 2.518 2.518 0 0 1-.395-.8 3.522 3.522 0 0 1-.138-1.007Zm1.108-.097v.097c0 .227.022.438.064.635.046.196.115.369.207.52.095.146.215.263.359.349.147.082.32.124.52.124.26 0 .473-.055.639-.166.168-.11.297-.259.386-.446.092-.19.156-.401.193-.634v-.833a2.025 2.025 0 0 0-.115-.505 1.35 1.35 0 0 0-.225-.41.942.942 0 0 0-.359-.275 1.191 1.191 0 0 0-.51-.102c-.199 0-.373.043-.52.13a1.055 1.055 0 0 0-.363.353 1.75 1.75 0 0 0-.207.524c-.046.2-.069.413-.069.64Zm4.413.097v-.106c0-.358.052-.69.156-.998.104-.31.254-.577.451-.804a2.03 2.03 0 0 1 .726-.534c.288-.128.613-.193.975-.193.365 0 .69.065.975.194.288.125.531.303.731.533.199.227.351.495.455.804.104.307.156.64.156.998v.106c0 .359-.052.691-.156.998a2.388 2.388 0 0 1-.455.804c-.2.227-.442.405-.727.534a2.38 2.38 0 0 1-.97.188c-.365 0-.691-.063-.979-.188a2.11 2.11 0 0 1-.727-.534 2.388 2.388 0 0 1-.455-.804 3.087 3.087 0 0 1-.156-.998Zm1.108-.106v.106c0 .224.023.435.069.635.046.199.118.373.216.524.098.15.224.268.377.354.153.086.336.128.547.128.205 0 .383-.042.533-.128.154-.086.279-.204.377-.354.098-.15.171-.325.217-.524.049-.2.073-.411.073-.635v-.106c0-.22-.024-.429-.073-.625a1.61 1.61 0 0 0-.221-.529 1.056 1.056 0 0 0-.915-.492c-.209 0-.389.045-.543.134-.15.085-.274.205-.372.358a1.67 1.67 0 0 0-.216.529 2.732 2.732 0 0 0-.069.625Z"/><path fill="#3FA71A" d="M52.23 87.859v19.974h-3.294V91.769l-4.881 1.654v-2.72l7.779-2.844h.396Zm18.13 8.353v3.254c0 1.559-.156 2.89-.466 3.992-.3 1.094-.738 1.983-1.312 2.666a5.148 5.148 0 0 1-2.064 1.504c-.793.319-1.682.479-2.666.479-.784 0-1.513-.1-2.188-.301a5.34 5.34 0 0 1-1.805-.943c-.538-.429-.998-.98-1.38-1.655-.374-.683-.666-1.499-.876-2.447-.2-.948-.3-2.046-.3-3.295v-3.254c0-1.567.155-2.889.465-3.965.31-1.084.752-1.964 1.326-2.638a5.051 5.051 0 0 1 2.05-1.49c.803-.31 1.696-.465 2.68-.465.793 0 1.522.1 2.188.3a5.12 5.12 0 0 1 1.804.917c.538.419.994.966 1.367 1.64.383.666.675 1.472.875 2.42.201.939.301 2.033.301 3.281Zm-3.296 3.719v-4.21c0-.794-.045-1.491-.136-2.093-.091-.61-.228-1.125-.41-1.545-.174-.428-.392-.774-.657-1.039a2.312 2.312 0 0 0-.902-.588 3.187 3.187 0 0 0-1.135-.191c-.51 0-.966.1-1.367.3-.401.192-.738.502-1.012.93-.273.429-.483.994-.629 1.696-.136.692-.205 1.536-.205 2.53v4.21c0 .802.046 1.508.137 2.119.091.611.228 1.135.41 1.572.182.429.401.784.656 1.067.265.273.566.474.903.601a3.25 3.25 0 0 0 1.135.192c.519 0 .98-.1 1.38-.301.401-.2.739-.52 1.012-.957.273-.447.479-1.025.615-1.736.137-.711.205-1.563.205-2.557Zm23.16-6.89h3.31v14.792h-3.05l-.26-3.418V93.04Zm.479 7.915 1.299-.027c0 1.039-.1 1.996-.3 2.871-.192.875-.493 1.636-.903 2.283a4.305 4.305 0 0 1-1.532 1.504c-.62.356-1.353.533-2.2.533-.675 0-1.281-.095-1.819-.287a3.607 3.607 0 0 1-1.395-.929c-.391-.42-.715-.966-.97-1.641l-.424-3.732h1.873c0 .82.068 1.49.205 2.009.137.52.328.921.574 1.204.246.273.533.464.862.574.337.109.701.164 1.093.164.72 0 1.313-.11 1.778-.328a2.686 2.686 0 0 0 1.107-.944c.274-.41.465-.888.574-1.435a8.728 8.728 0 0 0 .178-1.819Zm-9.652-7.916h3.281v20.481h-3.281v-20.48Zm25.812 0h2.994v14.383c0 1.331-.282 2.461-.847 3.391a5.446 5.446 0 0 1-2.366 2.119c-1.011.492-2.182.738-3.513.738a8.263 8.263 0 0 1-1.887-.246 7.708 7.708 0 0 1-1.996-.793 4.945 4.945 0 0 1-1.6-1.408l1.545-1.941c.529.628 1.112 1.089 1.75 1.38a4.775 4.775 0 0 0 2.01.438c.757 0 1.399-.141 1.928-.424a2.86 2.86 0 0 0 1.244-1.217c.292-.537.437-1.194.437-1.968V96.39l.301-3.35Zm-10.049 7.561v-.287c0-1.121.137-2.142.41-3.063.274-.93.666-1.727 1.176-2.392a5.128 5.128 0 0 1 1.86-1.545c.729-.365 1.554-.547 2.474-.547.957 0 1.773.173 2.448.52a4.63 4.63 0 0 1 1.709 1.49c.455.638.811 1.403 1.066 2.297.264.884.46 1.868.588 2.953v.916a14.797 14.797 0 0 1-.602 2.898c-.282.875-.656 1.632-1.121 2.27a4.784 4.784 0 0 1-1.722 1.476c-.675.347-1.472.52-2.393.52-.902 0-1.718-.187-2.447-.561a5.564 5.564 0 0 1-1.86-1.572c-.51-.674-.902-1.467-1.175-2.379-.274-.92-.41-1.919-.41-2.994Zm3.295-.287v.287c0 .674.064 1.303.192 1.887.136.583.342 1.098.615 1.545.282.437.638.783 1.066 1.039.438.246.953.369 1.545.369.775 0 1.408-.164 1.901-.492a3.193 3.193 0 0 0 1.148-1.327 6.68 6.68 0 0 0 .574-1.886v-2.475a6.018 6.018 0 0 0-.341-1.504 4.057 4.057 0 0 0-.67-1.217 2.797 2.797 0 0 0-1.067-.82c-.428-.2-.934-.3-1.517-.3-.593 0-1.108.127-1.545.382a3.128 3.128 0 0 0-1.08 1.053 5.198 5.198 0 0 0-.616 1.558 8.478 8.478 0 0 0-.205 1.901Zm21.821-12.387-7.752 21.615h-2.584l7.765-21.615h2.571Zm5.578 8.121v11.785h-3.295V93.04h3.103l.192 3.008Zm-.533 3.842-1.122-.014c0-1.02.128-1.964.383-2.83.255-.866.629-1.618 1.121-2.256a4.935 4.935 0 0 1 1.832-1.49c.739-.355 1.591-.533 2.557-.533.674 0 1.29.1 1.846.3a3.666 3.666 0 0 1 1.463.917c.419.419.738.957.957 1.613.228.656.341 1.45.341 2.379v9.857h-3.294v-9.57c0-.72-.11-1.285-.329-1.695a1.817 1.817 0 0 0-.916-.875c-.392-.183-.861-.274-1.408-.274-.62 0-1.148.119-1.586.356-.428.237-.779.56-1.052.97-.274.41-.474.885-.602 1.422a7.423 7.423 0 0 0-.191 1.723Zm9.173-.875-1.545.342c0-.893.123-1.736.37-2.53a6.444 6.444 0 0 1 1.107-2.105 5.195 5.195 0 0 1 1.818-1.435c.72-.347 1.545-.52 2.475-.52.756 0 1.431.105 2.023.314.602.2 1.112.52 1.532.957.419.438.738 1.008.957 1.71.218.692.328 1.53.328 2.515v9.57h-3.309v-9.584c0-.747-.109-1.326-.328-1.736-.21-.41-.51-.693-.902-.848-.392-.164-.862-.246-1.408-.246-.511 0-.962.096-1.354.287a2.69 2.69 0 0 0-.971.78 3.463 3.463 0 0 0-.601 1.135 4.852 4.852 0 0 0-.192 1.394Zm14.452-6.658h1.189c.392 0 .715-.055.971-.164.255-.119.446-.278.574-.479.137-.2.205-.437.205-.71 0-.329-.128-.616-.383-.862-.246-.255-.661-.383-1.244-.383-.447 0-.825.096-1.135.287-.301.183-.451.442-.451.78h-2.488c0-.648.182-1.199.547-1.655.364-.456.852-.802 1.463-1.039a5.468 5.468 0 0 1 1.996-.355c.829 0 1.558.118 2.187.355.629.228 1.117.57 1.463 1.026.356.455.533 1.02.533 1.695 0 .52-.164.98-.492 1.38-.319.402-.766.716-1.34.944-.565.219-1.23.328-1.996.328H150.6v-1.148Zm0 1.709v-1.121h1.599c.848 0 1.572.1 2.174.3.602.192 1.057.488 1.367.89.319.4.479.92.479 1.558 0 .674-.192 1.248-.575 1.722-.382.474-.906.834-1.572 1.08-.656.247-1.394.37-2.215.37-.683 0-1.349-.11-1.996-.328a3.713 3.713 0 0 1-1.586-1.067c-.41-.483-.615-1.116-.615-1.9h2.502c0 .355.164.66.492.916.328.255.77.382 1.326.382.593 0 1.03-.127 1.313-.382.292-.265.437-.593.437-.985 0-.346-.082-.624-.246-.834a1.274 1.274 0 0 0-.67-.45 3.15 3.15 0 0 0-1.025-.151H150.6Z"/></svg>