<svg xmlns="http://www.w3.org/2000/svg" width="200" height="160" fill="none"><rect width="200" height="160" fill="#fff" rx="4"/><rect width="199" height="159" x=".5" y=".5" stroke="#000" stroke-opacity=".12" rx="3.5"/><path fill="#FFA600" d="M34.528 24.255c-7.22 0-13.079 5.859-13.079 13.078 0 7.22 5.86 13.079 13.079 13.079 7.22 0 13.078-5.86 13.078-13.079 0-7.22-5.859-13.078-13.078-13.078ZM24.065 37.333c0-.797.104-1.582.274-2.328l6.252 6.252v1.308a2.623 2.623 0 0 0 2.616 2.616v2.524c-5.14-.654-9.142-5.049-9.142-10.372Zm18.166 7.063c-.34-1.06-1.308-1.831-2.485-1.831h-1.308V38.64c0-.72-.588-1.308-1.308-1.308h-7.847v-2.615H31.9c.72 0 1.308-.589 1.308-1.308v-2.616h2.615a2.623 2.623 0 0 0 2.616-2.616v-.536c3.832 1.543 6.553 5.31 6.553 9.691 0 2.72-1.06 5.206-2.76 7.063Z"/><path fill="#000" fill-opacity=".87" d="M64.81 29.958v.508c0 .698-.092 1.325-.274 1.879a4.055 4.055 0 0 1-.78 1.416c-.335.389-.737.687-1.207.895-.47.203-.99.304-1.561.304a3.878 3.878 0 0 1-1.555-.304 3.494 3.494 0 0 1-1.213-.895 4.157 4.157 0 0 1-.8-1.416c-.186-.554-.279-1.18-.279-1.879v-.508c0-.698.093-1.322.28-1.872a4.135 4.135 0 0 1 .787-1.416 3.39 3.39 0 0 1 1.212-.895 3.81 3.81 0 0 1 1.555-.31c.571 0 1.092.103 1.562.31.47.203.873.502 1.212.895.339.39.599.861.78 1.416.187.55.28 1.174.28 1.872Zm-1.594.508v-.52c0-.517-.051-.972-.153-1.365a2.804 2.804 0 0 0-.438-.997 1.831 1.831 0 0 0-.704-.61c-.28-.139-.595-.209-.946-.209s-.664.07-.94.21c-.274.135-.51.338-.704.61-.19.266-.336.598-.438.996a5.486 5.486 0 0 0-.152 1.365v.52c0 .516.05.973.152 1.371s.25.734.444 1.01c.2.27.436.476.711.615a2.1 2.1 0 0 0 .94.203c.355 0 .67-.067.946-.203.275-.14.507-.345.698-.616.19-.275.334-.611.431-1.009a5.57 5.57 0 0 0 .153-1.37Zm8.597 3.149v1.218h-5.116v-1.218h5.116Zm-.14-4.698-4.456 5.916h-.99v-.984l4.43-5.884h1.016v.952Zm-.59-.952v1.219h-4.78v-1.219h4.78Zm1.811 3.51v-.146c0-.495.072-.954.216-1.377.144-.427.352-.798.622-1.11.275-.318.61-.564 1.003-.737a3.265 3.265 0 0 1 1.346-.267c.504 0 .952.09 1.346.267.397.173.734.419 1.009.736.275.313.485.684.628 1.111.144.423.216.882.216 1.377v.146c0 .495-.072.955-.216 1.378a3.296 3.296 0 0 1-.628 1.11 2.91 2.91 0 0 1-1.003.737c-.393.173-.84.26-1.34.26a3.35 3.35 0 0 1-1.351-.26 2.91 2.91 0 0 1-1.003-.736 3.294 3.294 0 0 1-.629-1.111 4.252 4.252 0 0 1-.216-1.378Zm1.53-.146v.146c0 .31.032.601.095.876.064.275.163.517.299.724.135.207.309.37.52.489.212.118.464.178.756.178.283 0 .529-.06.736-.178.212-.119.385-.282.52-.489.136-.207.235-.449.299-.724.068-.275.102-.567.102-.876v-.146a3.55 3.55 0 0 0-.102-.863 2.218 2.218 0 0 0-.305-.73 1.457 1.457 0 0 0-.52-.495 1.432 1.432 0 0 0-.743-.184c-.288 0-.537.061-.749.184a1.475 1.475 0 0 0-.514.495 2.305 2.305 0 0 0-.299.73 3.78 3.78 0 0 0-.095.863Zm7.906-1.898v5.402H80.8v-6.868h1.44l.09 1.466Zm-.273 1.714-.496-.006c.005-.487.072-.933.204-1.34.135-.406.321-.755.558-1.047.242-.292.53-.516.864-.673.334-.16.706-.24 1.117-.24.33 0 .628.046.895.139.27.089.501.235.692.438.194.203.342.467.444.793.102.322.152.718.152 1.187v4.437h-1.536V30.39c0-.33-.048-.59-.146-.78a.817.817 0 0 0-.412-.413 1.548 1.548 0 0 0-.667-.127 1.48 1.48 0 0 0-.704.165c-.208.11-.384.26-.527.45-.14.19-.248.41-.324.66-.076.25-.114.517-.114.8Zm9.27 3.815c-.508 0-.967-.082-1.378-.247a3.042 3.042 0 0 1-1.04-.705 3.123 3.123 0 0 1-.655-1.06 3.714 3.714 0 0 1-.228-1.314v-.254c0-.537.078-1.024.235-1.46.156-.436.374-.808.654-1.117.279-.313.609-.552.99-.717.38-.165.793-.248 1.238-.248.49 0 .92.083 1.288.248.368.165.673.398.914.698.246.296.428.65.546 1.06.123.41.184.863.184 1.358v.654H88.77v-1.098h3.795v-.12a2.148 2.148 0 0 0-.165-.775 1.315 1.315 0 0 0-.45-.584c-.203-.148-.474-.222-.813-.222-.254 0-.48.055-.679.165-.195.106-.358.26-.489.463a2.438 2.438 0 0 0-.304.737 4.138 4.138 0 0 0-.102.958v.254c0 .3.04.58.12.838.085.254.208.476.369.666.16.19.355.341.584.451.228.106.489.159.78.159.369 0 .697-.074.984-.222.288-.148.538-.358.75-.629l.806.781c-.148.216-.341.423-.578.622a2.891 2.891 0 0 1-.87.476 3.46 3.46 0 0 1-1.18.184Z"/><path fill="#000" fill-opacity=".38" d="M61.374 50.918v.915h-3.361v-.915h3.36Zm-3.04-5.78v6.695H57.18V45.14h1.155Zm6.822 5.698v-2.373c0-.178-.032-.331-.096-.46a.677.677 0 0 0-.294-.299 1.006 1.006 0 0 0-.488-.105c-.18 0-.337.03-.469.092a.758.758 0 0 0-.308.248.599.599 0 0 0-.11.354h-1.104c0-.196.048-.386.143-.57.095-.184.233-.348.414-.492.18-.144.397-.258.648-.34.251-.083.533-.125.846-.125.374 0 .705.063.993.189.291.126.52.316.685.57.169.251.253.567.253.947v2.212c0 .227.015.43.046.611.034.178.081.333.143.465v.073h-1.136a1.965 1.965 0 0 1-.124-.455 3.729 3.729 0 0 1-.041-.542Zm.161-2.028.01.685h-.796c-.205 0-.386.02-.542.06a1.115 1.115 0 0 0-.391.165.718.718 0 0 0-.313.621c0 .132.03.253.092.363.061.108.15.192.267.253.12.061.263.092.432.092.227 0 .425-.046.593-.138a1.22 1.22 0 0 0 .405-.345.75.75 0 0 0 .156-.39l.359.491c-.037.126-.1.261-.189.405a1.959 1.959 0 0 1-.35.414 1.735 1.735 0 0 1-1.19.441c-.325 0-.615-.064-.87-.193a1.546 1.546 0 0 1-.597-.529 1.371 1.371 0 0 1-.216-.758c0-.264.049-.497.147-.7a1.37 1.37 0 0 1 .442-.514c.196-.138.435-.242.717-.313.282-.073.604-.11.965-.11h.87Zm5.098 1.678c0-.11-.028-.21-.083-.299-.055-.092-.16-.174-.317-.248a3.078 3.078 0 0 0-.68-.202 5.864 5.864 0 0 1-.727-.207 2.305 2.305 0 0 1-.56-.3 1.259 1.259 0 0 1-.364-.413 1.146 1.146 0 0 1-.129-.552c0-.202.044-.394.133-.575.09-.18.216-.34.382-.478.166-.138.366-.246.602-.326.24-.08.506-.12.8-.12.417 0 .774.07 1.072.212.3.138.53.326.69.565.159.236.239.503.239.8h-1.109a.707.707 0 0 0-.1-.367.705.705 0 0 0-.295-.28 1.01 1.01 0 0 0-.497-.111c-.19 0-.347.03-.473.092a.648.648 0 0 0-.276.23.587.587 0 0 0-.041.538.53.53 0 0 0 .165.179c.077.052.181.101.313.147.135.046.303.09.506.133.38.08.706.183.979.308.276.123.487.282.634.479.148.193.221.438.221.735 0 .221-.047.423-.142.607-.092.181-.227.339-.405.474a2.03 2.03 0 0 1-.64.308c-.244.074-.52.11-.827.11-.45 0-.832-.08-1.145-.239a1.826 1.826 0 0 1-.712-.62 1.47 1.47 0 0 1-.24-.791h1.072a.83.83 0 0 0 .17.492c.104.12.233.206.386.262.157.052.318.078.483.078.2 0 .366-.026.501-.078a.721.721 0 0 0 .308-.221.527.527 0 0 0 .106-.322Zm4.532-3.628v.81h-2.805v-.81h2.805Zm-1.995-1.218h1.108v4.819c0 .153.021.27.064.354.046.08.109.133.189.16.08.028.173.042.28.042a2.209 2.209 0 0 0 .39-.041l.005.846c-.091.027-.199.052-.321.073-.12.021-.258.032-.414.032-.255 0-.48-.044-.676-.133a.995.995 0 0 1-.46-.446c-.11-.205-.165-.478-.165-.818V45.64Zm8.58 5.02v-3.802h1.114v4.975h-1.049l-.064-1.172Zm.157-1.034.373-.009c0 .334-.037.642-.11.924a2.143 2.143 0 0 1-.34.731c-.154.206-.35.367-.59.483a1.99 1.99 0 0 1-.86.17c-.241 0-.464-.035-.666-.105a1.367 1.367 0 0 1-.524-.327 1.486 1.486 0 0 1-.336-.575 2.655 2.655 0 0 1-.12-.846v-3.214h1.109v3.224c0 .18.021.332.064.455a.77.77 0 0 0 .175.29c.073.073.16.125.257.156.099.03.203.046.313.046.316 0 .564-.062.745-.184.184-.126.314-.294.39-.506.08-.212.12-.45.12-.713Zm3.401-1.811v5.931h-1.108v-6.888h1.02l.088.957Zm3.242 1.485v.096c0 .362-.043.698-.129 1.007a2.46 2.46 0 0 1-.372.805 1.715 1.715 0 0 1-.603.529c-.239.125-.515.188-.827.188-.31 0-.581-.056-.814-.17a1.667 1.667 0 0 1-.584-.492 2.669 2.669 0 0 1-.386-.745 4.78 4.78 0 0 1-.203-.947V49.2c.04-.365.108-.696.203-.993a2.69 2.69 0 0 1 .386-.768c.16-.215.354-.38.584-.497.23-.116.498-.175.804-.175.313 0 .59.062.833.184.242.12.446.291.611.515.166.22.29.488.373.8.082.31.124.655.124 1.035Zm-1.108.096V49.3c0-.23-.022-.443-.065-.64-.043-.198-.11-.373-.202-.523a.99.99 0 0 0-.354-.35.964.964 0 0 0-.51-.129c-.197 0-.365.034-.506.102a.97.97 0 0 0-.354.27 1.282 1.282 0 0 0-.22.41c-.053.153-.09.32-.111.501v.892c.037.22.1.423.188.607.09.184.215.331.377.442.166.107.377.16.635.16.199 0 .37-.043.51-.128.141-.086.256-.204.345-.354.092-.154.16-.33.202-.53.043-.198.065-.41.065-.634Zm5.281 1.407v-6.032h1.113v7.062h-1.007l-.106-1.03Zm-3.237-1.402v-.097c0-.377.045-.72.134-1.03.088-.312.217-.58.386-.804.168-.227.374-.4.616-.52.242-.122.515-.184.818-.184.3 0 .564.059.791.175.227.116.42.284.58.501a2.6 2.6 0 0 1 .381.773c.095.297.163.628.203.993v.308c-.04.355-.108.68-.203.975a2.62 2.62 0 0 1-.381.763c-.16.215-.354.38-.584.497a1.719 1.719 0 0 1-.796.174c-.3 0-.572-.063-.814-.188a1.799 1.799 0 0 1-.611-.529 2.489 2.489 0 0 1-.386-.8 3.636 3.636 0 0 1-.134-1.007Zm1.108-.097v.097c0 .227.02.438.06.634.043.197.109.37.198.52.089.147.204.264.345.35.144.082.316.124.515.124.251 0 .458-.056.62-.166.163-.11.29-.259.382-.446.095-.19.16-.401.193-.634v-.833a2.03 2.03 0 0 0-.115-.505 1.35 1.35 0 0 0-.225-.41.948.948 0 0 0-.354-.275 1.11 1.11 0 0 0-.492-.102.973.973 0 0 0-.515.13 1.043 1.043 0 0 0-.35.353c-.088.15-.154.325-.197.524-.043.2-.065.413-.065.64Zm7.402 1.532v-2.373c0-.178-.033-.331-.097-.46a.677.677 0 0 0-.294-.299 1.007 1.007 0 0 0-.488-.105c-.18 0-.337.03-.469.092a.759.759 0 0 0-.308.248.6.6 0 0 0-.11.354h-1.103c0-.196.047-.386.142-.57.095-.184.233-.348.414-.492.18-.144.397-.258.648-.34.252-.083.534-.125.846-.125.374 0 .705.063.993.189.291.126.52.316.685.57.169.251.253.567.253.947v2.212c0 .227.016.43.046.611.034.178.081.333.143.465v.073h-1.136a1.96 1.96 0 0 1-.124-.455 3.715 3.715 0 0 1-.041-.542Zm.16-2.028.01.685h-.796c-.205 0-.386.02-.542.06a1.116 1.116 0 0 0-.391.165.72.72 0 0 0-.313.621c0 .132.03.253.092.363.061.108.15.192.267.253.12.061.263.092.432.092.227 0 .425-.046.593-.138.172-.095.307-.21.405-.345a.75.75 0 0 0 .156-.39l.359.491c-.037.126-.1.261-.189.405a1.961 1.961 0 0 1-.35.414 1.736 1.736 0 0 1-1.19.441c-.325 0-.615-.064-.869-.193a1.546 1.546 0 0 1-.598-.529 1.372 1.372 0 0 1-.216-.758c0-.264.05-.497.147-.7.101-.204.249-.376.442-.514.196-.138.435-.242.717-.313.282-.073.604-.11.966-.11h.869Zm4.588-1.95v.81h-2.805v-.81h2.805Zm-1.996-1.218h1.108v4.819c0 .153.022.27.065.354.046.08.109.133.188.16a.86.86 0 0 0 .281.042 2.21 2.21 0 0 0 .391-.041l.004.846a2.82 2.82 0 0 1-.322.073 2.362 2.362 0 0 1-.414.032c-.254 0-.479-.044-.675-.133a.99.99 0 0 1-.46-.446c-.111-.205-.166-.478-.166-.818V45.64Zm5.24 6.285c-.367 0-.7-.06-.997-.179a2.193 2.193 0 0 1-.754-.51 2.249 2.249 0 0 1-.474-.768 2.697 2.697 0 0 1-.166-.952v-.184c0-.39.057-.742.171-1.057.113-.316.271-.586.473-.81.203-.227.442-.4.717-.52.276-.119.575-.179.897-.179.356 0 .667.06.933.18.267.12.488.288.663.505.177.215.309.471.395.768.089.298.133.626.133.984v.474h-3.844v-.796h2.75v-.087a1.544 1.544 0 0 0-.12-.56.95.95 0 0 0-.326-.424c-.147-.107-.343-.16-.589-.16a.998.998 0 0 0-.491.119.975.975 0 0 0-.355.335 1.764 1.764 0 0 0-.22.534 2.999 2.999 0 0 0-.074.694v.184c0 .218.029.42.088.607.061.184.15.345.266.483.117.138.258.246.423.326.166.077.354.115.566.115.266 0 .504-.054.712-.16.209-.108.39-.26.543-.456l.584.566a2.287 2.287 0 0 1-.418.45 2.103 2.103 0 0 1-.63.345 2.513 2.513 0 0 1-.856.133Zm8.554-6.81v6.718h-1.108v-5.402l-1.641.556v-.915l2.616-.956h.133Zm5.622 5.688v-6.032h1.113v7.062h-1.007l-.106-1.03Zm-3.237-1.402v-.097c0-.377.044-.72.133-1.03a2.42 2.42 0 0 1 .387-.804c.168-.227.374-.4.616-.52.242-.122.515-.184.818-.184.301 0 .564.059.791.175.227.116.42.284.579.501.16.215.287.472.382.773.095.297.162.628.202.993v.308c-.04.355-.107.68-.202.975a2.603 2.603 0 0 1-.382.763c-.159.215-.354.38-.584.497a1.716 1.716 0 0 1-.795.174c-.3 0-.572-.063-.814-.188a1.794 1.794 0 0 1-.611-.529 2.484 2.484 0 0 1-.387-.8 3.632 3.632 0 0 1-.133-1.007Zm1.108-.097v.097c0 .227.02.438.06.634.043.197.109.37.198.52.089.147.203.264.344.35.145.082.316.124.515.124.252 0 .459-.056.621-.166.163-.11.29-.259.382-.446a2.08 2.08 0 0 0 .193-.634v-.833a2.025 2.025 0 0 0-.115-.505 1.35 1.35 0 0 0-.225-.41.948.948 0 0 0-.354-.275 1.11 1.11 0 0 0-.492-.102.971.971 0 0 0-.515.13 1.046 1.046 0 0 0-.35.353c-.089.15-.155.325-.197.524-.043.2-.065.413-.065.64Zm9.943 1.532v-2.373c0-.178-.033-.331-.097-.46a.678.678 0 0 0-.294-.299 1.01 1.01 0 0 0-.488-.105c-.181 0-.337.03-.469.092a.76.76 0 0 0-.308.248.603.603 0 0 0-.11.354h-1.104c0-.196.048-.386.143-.57.095-.184.233-.348.414-.492a2.07 2.07 0 0 1 .648-.34c.251-.083.533-.125.846-.125.374 0 .705.063.993.189.291.126.52.316.685.57.169.251.253.567.253.947v2.212c0 .227.016.43.046.611.034.178.081.333.143.465v.073h-1.136a1.986 1.986 0 0 1-.124-.455 3.659 3.659 0 0 1-.041-.542Zm.16-2.028.01.685h-.796c-.205 0-.386.02-.542.06a1.11 1.11 0 0 0-.391.165.722.722 0 0 0-.235.267.782.782 0 0 0-.078.354c0 .132.031.253.092.363a.64.64 0 0 0 .267.253.934.934 0 0 0 .432.092 1.217 1.217 0 0 0 .998-.483.75.75 0 0 0 .156-.39l.359.491c-.037.126-.1.261-.189.405a1.962 1.962 0 0 1-.349.414 1.73 1.73 0 0 1-1.191.441c-.325 0-.615-.064-.869-.193a1.542 1.542 0 0 1-.598-.529 1.372 1.372 0 0 1-.216-.758c0-.264.049-.497.147-.7.101-.204.248-.376.442-.514.196-.138.435-.242.717-.313.282-.073.604-.11.965-.11h.869Zm5.494-1.95h1.006v4.837c0 .448-.095.828-.285 1.14-.19.313-.455.55-.795.713a2.771 2.771 0 0 1-2.488-.101 1.68 1.68 0 0 1-.538-.473l.52-.653c.178.211.374.366.589.464.214.098.439.147.675.147.255 0 .471-.047.649-.142a.961.961 0 0 0 .418-.41c.098-.18.147-.401.147-.662v-3.733l.102-1.127Zm-3.38 2.543v-.097c0-.377.046-.72.138-1.03a2.45 2.45 0 0 1 .395-.804c.172-.227.38-.4.626-.52.245-.122.522-.184.832-.184.322 0 .596.059.823.175.23.116.421.284.575.501.153.215.273.472.358.773.089.297.155.628.198.993v.308c-.04.355-.107.68-.202.975a2.697 2.697 0 0 1-.377.763c-.157.215-.35.38-.58.497a1.737 1.737 0 0 1-.804.174c-.304 0-.578-.063-.823-.188a1.88 1.88 0 0 1-.626-.529 2.517 2.517 0 0 1-.395-.8 3.52 3.52 0 0 1-.138-1.007Zm1.108-.097v.097c0 .227.022.438.064.634.046.197.115.37.207.52.095.147.215.264.359.35.147.082.32.124.52.124.26 0 .473-.056.639-.166.168-.11.297-.259.386-.446.092-.19.156-.401.193-.634v-.833a2.025 2.025 0 0 0-.115-.505 1.35 1.35 0 0 0-.225-.41.942.942 0 0 0-.359-.275 1.193 1.193 0 0 0-.51-.102c-.199 0-.373.043-.52.13a1.055 1.055 0 0 0-.363.353 1.75 1.75 0 0 0-.207.524c-.046.2-.069.413-.069.64Zm4.413.097v-.106c0-.358.052-.691.156-.998.104-.31.254-.577.451-.804a2.03 2.03 0 0 1 .726-.534c.288-.128.613-.193.975-.193.365 0 .69.065.975.194.288.125.531.303.731.533.199.227.351.495.455.804.104.307.156.64.156.998v.106c0 .359-.052.691-.156.998a2.387 2.387 0 0 1-.455.804 2.12 2.12 0 0 1-.727.534 2.381 2.381 0 0 1-.97.188c-.365 0-.691-.063-.979-.188a2.11 2.11 0 0 1-.727-.534 2.387 2.387 0 0 1-.455-.804 3.086 3.086 0 0 1-.156-.998Zm1.108-.106v.106c0 .224.023.435.069.634.046.2.118.375.216.525.098.15.224.268.377.354.153.085.336.128.547.128.205 0 .383-.043.533-.128.154-.086.279-.204.377-.354.098-.15.171-.325.217-.525.049-.199.073-.41.073-.634v-.106c0-.22-.024-.429-.073-.625-.046-.2-.12-.376-.221-.529a1.057 1.057 0 0 0-.915-.492c-.209 0-.389.045-.543.133-.15.086-.274.206-.372.36-.098.152-.17.329-.216.528a2.733 2.733 0 0 0-.069.625Z"/><path fill="#FFA600" d="M45.79 87.859v19.974h-3.294V91.769l-4.88 1.654v-2.72l7.779-2.844h.396Zm12.88 0v19.974h-3.295V91.769l-4.88 1.654v-2.72l7.778-2.844h.397Zm18.129 8.353v3.254c0 1.559-.155 2.889-.465 3.992-.3 1.094-.738 1.983-1.313 2.666a5.147 5.147 0 0 1-2.064 1.504c-.793.319-1.682.479-2.666.479a7.663 7.663 0 0 1-2.188-.301 5.358 5.358 0 0 1-1.804-.943c-.538-.429-.998-.98-1.381-1.655-.374-.683-.666-1.499-.875-2.447-.2-.948-.3-2.046-.3-3.295v-3.254c0-1.568.154-2.89.464-3.965.31-1.084.752-1.964 1.326-2.638a5.051 5.051 0 0 1 2.05-1.49c.803-.31 1.696-.465 2.68-.465.794 0 1.523.1 2.188.3a5.123 5.123 0 0 1 1.805.916c.537.42.993.967 1.367 1.641.383.665.674 1.472.875 2.42.2.939.3 2.032.3 3.281Zm-3.295 3.719V95.72c0-.793-.046-1.49-.137-2.092-.091-.61-.228-1.125-.41-1.545-.173-.428-.392-.774-.656-1.039a2.309 2.309 0 0 0-.903-.588 3.187 3.187 0 0 0-1.134-.191c-.51 0-.967.1-1.368.3-.4.192-.738.502-1.011.93-.274.429-.483.994-.63 1.696-.136.692-.204 1.535-.204 2.529v4.211c0 .802.045 1.508.136 2.119.092.611.228 1.135.41 1.572.183.429.402.784.657 1.067.264.273.565.474.902.601a3.25 3.25 0 0 0 1.135.192c.52 0 .98-.101 1.38-.301.402-.201.74-.52 1.012-.957.274-.447.479-1.025.616-1.736.136-.711.205-1.564.205-2.557Zm23.16-6.89h3.309v14.792h-3.05l-.259-3.418V93.04Zm.478 7.915 1.3-.027c0 1.039-.1 1.996-.301 2.871-.192.875-.493 1.636-.903 2.283a4.313 4.313 0 0 1-1.531 1.504c-.62.356-1.354.533-2.201.533-.675 0-1.28-.095-1.819-.287a3.607 3.607 0 0 1-1.394-.929c-.392-.42-.716-.967-.97-1.641l-.425-3.732h1.873c0 .82.069 1.49.206 2.009.136.52.328.921.574 1.203.246.274.533.465.861.575.337.109.702.164 1.094.164.72 0 1.312-.11 1.777-.328a2.685 2.685 0 0 0 1.108-.944c.273-.41.464-.888.574-1.435a8.728 8.728 0 0 0 .177-1.819ZM87.49 93.04h3.281v20.481h-3.28v-20.48Zm25.813 0h2.994v14.383c0 1.331-.283 2.461-.848 3.391a5.45 5.45 0 0 1-2.365 2.119c-1.012.492-2.183.738-3.514.738a8.248 8.248 0 0 1-1.886-.246 7.727 7.727 0 0 1-1.997-.793 4.94 4.94 0 0 1-1.599-1.408l1.545-1.941c.528.628 1.112 1.089 1.75 1.38a4.775 4.775 0 0 0 2.01.438c.756 0 1.399-.141 1.927-.424a2.855 2.855 0 0 0 1.244-1.217c.292-.537.438-1.194.438-1.968V96.39l.301-3.35Zm-10.049 7.561v-.287c0-1.121.137-2.142.41-3.063.273-.93.665-1.727 1.176-2.392a5.126 5.126 0 0 1 1.859-1.545c.729-.365 1.554-.547 2.475-.547.957 0 1.773.173 2.447.52a4.622 4.622 0 0 1 1.709 1.49c.456.638.811 1.403 1.066 2.296.265.885.461 1.869.588 2.954v.916a14.798 14.798 0 0 1-.601 2.898c-.283.875-.657 1.632-1.121 2.27a4.779 4.779 0 0 1-1.723 1.476c-.674.347-1.472.52-2.393.52-.902 0-1.718-.187-2.447-.561a5.56 5.56 0 0 1-1.859-1.572c-.511-.675-.903-1.468-1.176-2.379a10.494 10.494 0 0 1-.41-2.994Zm3.295-.287v.287c0 .674.064 1.303.191 1.887.137.583.342 1.098.615 1.545.283.437.638.783 1.067 1.039.437.246.952.369 1.545.369.774 0 1.408-.164 1.9-.492a3.202 3.202 0 0 0 1.149-1.327 6.746 6.746 0 0 0 .574-1.886v-2.475a6.065 6.065 0 0 0-.342-1.504 4.014 4.014 0 0 0-.67-1.217 2.802 2.802 0 0 0-1.066-.82c-.429-.2-.935-.3-1.518-.3-.592 0-1.107.127-1.545.382a3.146 3.146 0 0 0-1.08 1.053 5.223 5.223 0 0 0-.615 1.558 8.42 8.42 0 0 0-.205 1.901Zm21.82-12.387-7.752 21.615h-2.584l7.766-21.615h2.57Zm5.578 8.121v11.785h-3.295V93.04h3.104l.191 3.008Zm-.533 3.842-1.121-.014c0-1.02.127-1.964.383-2.83.255-.866.629-1.618 1.121-2.256a4.928 4.928 0 0 1 1.832-1.49c.738-.355 1.59-.533 2.556-.533.675 0 1.29.1 1.846.3a3.658 3.658 0 0 1 1.463.917c.419.419.738.957.957 1.613.228.656.342 1.45.342 2.379v9.857h-3.295v-9.57c0-.72-.109-1.285-.328-1.695a1.82 1.82 0 0 0-.916-.875c-.392-.183-.861-.274-1.408-.274-.62 0-1.149.119-1.586.356-.429.237-.78.56-1.053.97-.273.41-.474.884-.602 1.422a7.479 7.479 0 0 0-.191 1.723Zm9.174-.875-1.545.342c0-.894.123-1.737.369-2.53a6.443 6.443 0 0 1 1.107-2.105 5.207 5.207 0 0 1 1.819-1.436c.72-.346 1.545-.52 2.474-.52.757 0 1.431.106 2.024.315.601.2 1.112.52 1.531.957.419.438.738 1.008.957 1.71.219.692.328 1.53.328 2.515v9.57h-3.308v-9.584c0-.747-.11-1.326-.328-1.736-.21-.41-.511-.693-.903-.848-.392-.164-.861-.246-1.408-.246-.51 0-.962.096-1.354.287a2.687 2.687 0 0 0-.97.78 3.465 3.465 0 0 0-.602 1.134 4.888 4.888 0 0 0-.191 1.395Zm14.451-6.658h1.189c.392 0 .716-.055.971-.164.255-.119.447-.278.574-.479.137-.2.205-.437.205-.71a1.16 1.16 0 0 0-.382-.862c-.246-.255-.661-.383-1.245-.383-.446 0-.824.096-1.134.287-.301.182-.451.442-.451.78h-2.489c0-.648.183-1.2.547-1.655.365-.456.852-.802 1.463-1.039a5.474 5.474 0 0 1 1.996-.355c.83 0 1.559.118 2.188.355.629.228 1.116.57 1.463 1.025.355.456.533 1.021.533 1.696 0 .52-.164.98-.492 1.38-.319.402-.766.716-1.34.944-.565.219-1.231.328-1.996.328h-1.6v-1.148Zm0 1.709v-1.121h1.6c.847 0 1.572.1 2.173.3.602.192 1.058.488 1.368.89.319.4.478.92.478 1.558 0 .674-.191 1.248-.574 1.722-.383.474-.907.834-1.572 1.08-.657.246-1.395.37-2.215.37-.684 0-1.349-.11-1.996-.329a3.706 3.706 0 0 1-1.586-1.066c-.41-.483-.615-1.117-.615-1.9h2.501c0 .355.165.66.493.916.328.255.77.382 1.326.382.592 0 1.03-.127 1.312-.382.292-.265.438-.593.438-.985 0-.346-.082-.624-.246-.834a1.28 1.28 0 0 0-.67-.45c-.292-.101-.634-.151-1.026-.151h-1.189Z"/></svg>