<svg width="200" height="160" viewBox="0 0 200 160" fill="none" xmlns="http://www.w3.org/2000/svg">
<rect width="200" height="160" rx="4" fill="white"/>
<rect x="0.5" y="0.5" width="199" height="159" rx="3.5" stroke="black" stroke-opacity="0.12"/>
<path d="M19.9999 13.3333C16.3199 13.3333 13.3333 16.32 13.3333 20C13.3333 23.68 16.3199 26.6667 19.9999 26.6667C23.6799 26.6667 26.6666 23.68 26.6666 20C26.6666 16.32 23.6799 13.3333 19.9999 13.3333ZM14.6666 20C14.6666 19.5933 14.7199 19.1933 14.8066 18.8133L17.9933 22V22.6667C17.9933 23.4 18.5933 24 19.3266 24V25.2867C16.7066 24.9533 14.6666 22.7133 14.6666 20ZM23.9266 23.6C23.7533 23.06 23.2599 22.6667 22.6599 22.6667H21.9933V20.6667C21.9933 20.3 21.6933 20 21.3266 20H17.3266V18.6667H18.6599C19.0266 18.6667 19.3266 18.3667 19.3266 18V16.6667H20.6599C21.3933 16.6667 21.9933 16.0667 21.9933 15.3333V15.06C23.9466 15.8467 25.3333 17.7667 25.3333 20C25.3333 21.3867 24.7933 22.6533 23.9266 23.6Z" fill="black" fill-opacity="0.87"/>
<path d="M40.9482 19.75V20.2969C40.9482 21.0488 40.8503 21.7233 40.6543 22.3203C40.4583 22.9173 40.1781 23.4255 39.8135 23.8447C39.4535 24.264 39.0205 24.5853 38.5146 24.8086C38.0088 25.0273 37.4482 25.1367 36.833 25.1367C36.2223 25.1367 35.6641 25.0273 35.1582 24.8086C34.6569 24.5853 34.2217 24.264 33.8525 23.8447C33.4834 23.4255 33.1963 22.9173 32.9912 22.3203C32.7907 21.7233 32.6904 21.0488 32.6904 20.2969V19.75C32.6904 18.998 32.7907 18.3258 32.9912 17.7334C33.1917 17.1364 33.4743 16.6283 33.8389 16.209C34.208 15.7852 34.6432 15.4639 35.1445 15.2451C35.6504 15.0218 36.2087 14.9102 36.8193 14.9102C37.4346 14.9102 37.9951 15.0218 38.501 15.2451C39.0068 15.4639 39.4421 15.7852 39.8066 16.209C40.1712 16.6283 40.4515 17.1364 40.6475 17.7334C40.848 18.3258 40.9482 18.998 40.9482 19.75ZM39.2324 20.2969V19.7363C39.2324 19.1803 39.1777 18.6904 39.0684 18.2666C38.9635 17.8382 38.8063 17.4805 38.5967 17.1934C38.3916 16.9017 38.1387 16.6829 37.8379 16.5371C37.5371 16.3867 37.1976 16.3115 36.8193 16.3115C36.4411 16.3115 36.1038 16.3867 35.8076 16.5371C35.5114 16.6829 35.2585 16.9017 35.0488 17.1934C34.8438 17.4805 34.6865 17.8382 34.5771 18.2666C34.4678 18.6904 34.4131 19.1803 34.4131 19.7363V20.2969C34.4131 20.8529 34.4678 21.3451 34.5771 21.7734C34.6865 22.2018 34.846 22.5641 35.0557 22.8604C35.2699 23.152 35.5251 23.373 35.8213 23.5234C36.1175 23.6693 36.4548 23.7422 36.833 23.7422C37.2158 23.7422 37.5553 23.6693 37.8516 23.5234C38.1478 23.373 38.3984 23.152 38.6035 22.8604C38.8086 22.5641 38.9635 22.2018 39.0684 21.7734C39.1777 21.3451 39.2324 20.8529 39.2324 20.2969ZM48.4717 23.6875V25H42.9619V23.6875H48.4717ZM48.3213 18.6289L43.5225 25H42.4561V23.9404L47.2275 17.6035H48.3213V18.6289ZM47.6855 17.6035V18.916H42.5381V17.6035H47.6855ZM49.6172 21.3838V21.2266C49.6172 20.6934 49.6947 20.1989 49.8496 19.7432C50.0046 19.2829 50.2279 18.8841 50.5195 18.5469C50.8158 18.2051 51.1758 17.9408 51.5996 17.7539C52.028 17.5625 52.5111 17.4668 53.0488 17.4668C53.5911 17.4668 54.0742 17.5625 54.498 17.7539C54.9264 17.9408 55.2887 18.2051 55.585 18.5469C55.8812 18.8841 56.1068 19.2829 56.2617 19.7432C56.4167 20.1989 56.4941 20.6934 56.4941 21.2266V21.3838C56.4941 21.917 56.4167 22.4115 56.2617 22.8672C56.1068 23.3229 55.8812 23.7217 55.585 24.0635C55.2887 24.4007 54.9287 24.665 54.5049 24.8564C54.0811 25.0433 53.6003 25.1367 53.0625 25.1367C52.5202 25.1367 52.0348 25.0433 51.6064 24.8564C51.1826 24.665 50.8226 24.4007 50.5264 24.0635C50.2301 23.7217 50.0046 23.3229 49.8496 22.8672C49.6947 22.4115 49.6172 21.917 49.6172 21.3838ZM51.2646 21.2266V21.3838C51.2646 21.7165 51.2988 22.0309 51.3672 22.3271C51.4355 22.6234 51.5426 22.8831 51.6885 23.1064C51.8343 23.3298 52.0212 23.5052 52.249 23.6328C52.4769 23.7604 52.748 23.8242 53.0625 23.8242C53.3678 23.8242 53.6322 23.7604 53.8555 23.6328C54.0833 23.5052 54.2702 23.3298 54.416 23.1064C54.5618 22.8831 54.6689 22.6234 54.7373 22.3271C54.8102 22.0309 54.8467 21.7165 54.8467 21.3838V21.2266C54.8467 20.8984 54.8102 20.5885 54.7373 20.2969C54.6689 20.0007 54.5596 19.7386 54.4092 19.5107C54.2633 19.2829 54.0765 19.1051 53.8486 18.9775C53.6253 18.8454 53.3587 18.7793 53.0488 18.7793C52.7389 18.7793 52.4701 18.8454 52.2422 18.9775C52.0189 19.1051 51.8343 19.2829 51.6885 19.5107C51.5426 19.7386 51.4355 20.0007 51.3672 20.2969C51.2988 20.5885 51.2646 20.8984 51.2646 21.2266ZM59.7588 19.1826V25H58.1113V17.6035H59.6631L59.7588 19.1826ZM59.4648 21.0283L58.9316 21.0215C58.9362 20.4974 59.0091 20.0166 59.1504 19.5791C59.2962 19.1416 59.4967 18.7656 59.752 18.4512C60.0117 18.1367 60.3216 17.8952 60.6816 17.7266C61.0417 17.5534 61.4427 17.4668 61.8848 17.4668C62.2402 17.4668 62.5615 17.5169 62.8486 17.6172C63.1403 17.7129 63.3887 17.8701 63.5938 18.0889C63.8034 18.3076 63.9629 18.5924 64.0723 18.9434C64.1816 19.2897 64.2363 19.7158 64.2363 20.2217V25H62.582V20.2148C62.582 19.8594 62.5296 19.5791 62.4248 19.374C62.3245 19.1644 62.1764 19.0163 61.9805 18.9297C61.7891 18.8385 61.5498 18.793 61.2627 18.793C60.9801 18.793 60.7272 18.8522 60.5039 18.9707C60.2806 19.0892 60.0915 19.251 59.9365 19.4561C59.7861 19.6611 59.6699 19.8981 59.5879 20.167C59.5059 20.4359 59.4648 20.723 59.4648 21.0283ZM69.4287 25.1367C68.8818 25.1367 68.3874 25.0479 67.9453 24.8701C67.5078 24.6878 67.1341 24.4349 66.8242 24.1113C66.5189 23.7878 66.2842 23.4072 66.1201 22.9697C65.9561 22.5322 65.874 22.0605 65.874 21.5547V21.2812C65.874 20.7025 65.9583 20.1784 66.127 19.709C66.2956 19.2396 66.5303 18.8385 66.8311 18.5059C67.1318 18.1686 67.4873 17.9111 67.8975 17.7334C68.3076 17.5557 68.752 17.4668 69.2305 17.4668C69.7591 17.4668 70.2217 17.5557 70.6182 17.7334C71.0146 17.9111 71.3428 18.1618 71.6025 18.4854C71.8669 18.8044 72.0628 19.1849 72.1904 19.627C72.3226 20.069 72.3887 20.5566 72.3887 21.0898V21.7939H66.6738V20.6113H70.7617V20.4814C70.7526 20.1852 70.6934 19.9072 70.584 19.6475C70.4792 19.3877 70.3174 19.1781 70.0986 19.0186C69.8799 18.859 69.5882 18.7793 69.2236 18.7793C68.9502 18.7793 68.7064 18.8385 68.4922 18.957C68.2826 19.071 68.1071 19.2373 67.9658 19.4561C67.8245 19.6748 67.7152 19.9391 67.6377 20.249C67.5648 20.5544 67.5283 20.8984 67.5283 21.2812V21.5547C67.5283 21.8783 67.5716 22.179 67.6582 22.457C67.7493 22.7305 67.8815 22.9697 68.0547 23.1748C68.2279 23.3799 68.4375 23.5417 68.6836 23.6602C68.9297 23.7741 69.21 23.8311 69.5244 23.8311C69.9209 23.8311 70.2741 23.7513 70.584 23.5918C70.8939 23.4323 71.1628 23.2067 71.3906 22.915L72.2588 23.7559C72.0993 23.9883 71.8919 24.2116 71.6367 24.4258C71.3815 24.6354 71.0693 24.8063 70.7002 24.9385C70.3356 25.0706 69.9118 25.1367 69.4287 25.1367Z" fill="black" fill-opacity="0.87"/>
<path d="M54.2168 58.3184V84H49.9805V63.3457L43.7051 65.4727V61.9746L53.707 58.3184H54.2168ZM70.8654 58.3184V84H66.6291V63.3457L60.3537 65.4727V61.9746L70.3556 58.3184H70.8654ZM94.264 69.0586V73.2422C94.264 75.2461 94.0648 76.957 93.6663 78.375C93.2796 79.7812 92.7171 80.9238 91.9788 81.8027C91.2405 82.6816 90.3558 83.3262 89.3245 83.7363C88.305 84.1465 87.1624 84.3516 85.8968 84.3516C84.889 84.3516 83.9515 84.2227 83.0843 83.9648C82.2288 83.707 81.4554 83.3027 80.764 82.752C80.0726 82.2012 79.4808 81.4922 78.9886 80.625C78.5081 79.7461 78.1331 78.6973 77.8636 77.4785C77.6058 76.2598 77.4769 74.8477 77.4769 73.2422V69.0586C77.4769 67.043 77.6761 65.3438 78.0745 63.9609C78.473 62.5664 79.0413 61.4355 79.7796 60.5684C80.5179 59.6895 81.3968 59.0508 82.4163 58.6523C83.4476 58.2539 84.596 58.0547 85.8616 58.0547C86.8812 58.0547 87.8187 58.1836 88.6741 58.4414C89.5413 58.6875 90.3148 59.0801 90.9945 59.6191C91.6859 60.1582 92.2718 60.8613 92.7523 61.7285C93.2445 62.584 93.6195 63.6211 93.8773 64.8398C94.1351 66.0469 94.264 67.4531 94.264 69.0586ZM90.0277 73.8398V68.4258C90.0277 67.4062 89.9691 66.5098 89.8519 65.7363C89.7347 64.9512 89.5589 64.2891 89.3245 63.75C89.1019 63.1992 88.8206 62.7539 88.4808 62.4141C88.1409 62.0625 87.7542 61.8105 87.3206 61.6582C86.887 61.4941 86.4007 61.4121 85.8616 61.4121C85.2054 61.4121 84.6195 61.541 84.1038 61.7988C83.5882 62.0449 83.1546 62.4434 82.803 62.9941C82.4515 63.5449 82.182 64.2715 81.9945 65.1738C81.8187 66.0645 81.7308 67.1484 81.7308 68.4258V73.8398C81.7308 74.8711 81.7894 75.7793 81.9066 76.5645C82.0238 77.3496 82.1995 78.0234 82.4339 78.5859C82.6683 79.1367 82.9495 79.5938 83.2777 79.957C83.6175 80.3086 84.0042 80.5664 84.4378 80.7305C84.8831 80.8945 85.3695 80.9766 85.8968 80.9766C86.5648 80.9766 87.1566 80.8477 87.6722 80.5898C88.1878 80.332 88.6214 79.9219 88.973 79.3594C89.3245 78.7852 89.5882 78.041 89.764 77.127C89.9398 76.2129 90.0277 75.1172 90.0277 73.8398Z" fill="#FFA600"/>
<path d="M104.612 76.6035H105.877V84H104.735L104.612 82.291V76.6035ZM104.838 80.5615L105.31 80.5479C105.31 81.0674 105.262 81.5459 105.166 81.9834C105.075 82.4209 104.931 82.8014 104.735 83.125C104.539 83.4486 104.289 83.6992 103.983 83.877C103.678 84.0547 103.311 84.1436 102.883 84.1436C102.536 84.1436 102.227 84.098 101.953 84.0068C101.684 83.9202 101.452 83.7812 101.256 83.5898C101.064 83.3939 100.905 83.141 100.777 82.8311L100.524 80.8555H101.317C101.317 81.3249 101.356 81.7077 101.434 82.0039C101.511 82.3001 101.618 82.528 101.755 82.6875C101.896 82.847 102.058 82.9564 102.24 83.0156C102.423 83.0749 102.618 83.1045 102.828 83.1045C103.234 83.1045 103.566 83.043 103.826 82.9199C104.09 82.7923 104.296 82.6146 104.441 82.3867C104.587 82.1589 104.69 81.89 104.749 81.5801C104.808 81.2702 104.838 80.9307 104.838 80.5615ZM100.06 76.6035H101.317V86.8438H100.06V76.6035ZM112.899 76.6035H114.048V83.8428C114.048 84.4945 113.915 85.0505 113.651 85.5107C113.387 85.971 113.018 86.3197 112.544 86.5566C112.074 86.7982 111.532 86.9189 110.917 86.9189C110.662 86.9189 110.361 86.8779 110.014 86.7959C109.673 86.7184 109.335 86.584 109.003 86.3926C108.675 86.2057 108.399 85.9528 108.176 85.6338L108.839 84.8818C109.149 85.2555 109.472 85.5153 109.809 85.6611C110.151 85.807 110.488 85.8799 110.821 85.8799C111.222 85.8799 111.568 85.8047 111.86 85.6543C112.152 85.5039 112.377 85.2806 112.537 84.9844C112.701 84.6927 112.783 84.3327 112.783 83.9043V78.2305L112.899 76.6035ZM107.806 80.3838V80.2402C107.806 79.6751 107.873 79.1624 108.005 78.7021C108.141 78.2373 108.335 77.8385 108.586 77.5059C108.841 77.1732 109.149 76.918 109.509 76.7402C109.869 76.5579 110.274 76.4668 110.725 76.4668C111.19 76.4668 111.596 76.5488 111.942 76.7129C112.293 76.8724 112.589 77.1071 112.831 77.417C113.077 77.7223 113.271 78.0915 113.412 78.5244C113.553 78.9574 113.651 79.4473 113.706 79.9941V80.623C113.656 81.1654 113.558 81.653 113.412 82.0859C113.271 82.5189 113.077 82.888 112.831 83.1934C112.589 83.4987 112.293 83.7334 111.942 83.8975C111.591 84.057 111.181 84.1367 110.712 84.1367C110.27 84.1367 109.869 84.0433 109.509 83.8564C109.153 83.6696 108.848 83.4076 108.593 83.0703C108.337 82.7331 108.141 82.3366 108.005 81.8809C107.873 81.4206 107.806 80.9215 107.806 80.3838ZM109.071 80.2402V80.3838C109.071 80.7529 109.108 81.0993 109.18 81.4229C109.258 81.7464 109.374 82.0312 109.529 82.2773C109.689 82.5234 109.891 82.7171 110.137 82.8584C110.384 82.9951 110.678 83.0635 111.019 83.0635C111.439 83.0635 111.785 82.9746 112.058 82.7969C112.332 82.6191 112.548 82.3844 112.708 82.0928C112.872 81.8011 112.999 81.4844 113.091 81.1426V79.4951C113.04 79.2445 112.963 79.0029 112.858 78.7705C112.758 78.5335 112.626 78.3239 112.462 78.1416C112.302 77.9548 112.104 77.8066 111.867 77.6973C111.63 77.5879 111.352 77.5332 111.033 77.5332C110.687 77.5332 110.388 77.6061 110.137 77.752C109.891 77.8932 109.689 78.0892 109.529 78.3398C109.374 78.5859 109.258 78.873 109.18 79.2012C109.108 79.5247 109.071 79.8711 109.071 80.2402ZM120.571 74.0469L116.421 84.8545H115.335L119.491 74.0469H120.571ZM123.41 78.0732V84H122.138V76.6035H123.341L123.41 78.0732ZM123.15 80.0215L122.562 80.001C122.566 79.4951 122.633 79.028 122.76 78.5996C122.888 78.1667 123.077 77.7907 123.328 77.4717C123.578 77.1527 123.89 76.9066 124.264 76.7334C124.638 76.5557 125.071 76.4668 125.563 76.4668C125.909 76.4668 126.228 76.5169 126.52 76.6172C126.812 76.7129 127.065 76.8656 127.279 77.0752C127.493 77.2848 127.659 77.5537 127.778 77.8818C127.896 78.21 127.955 78.6064 127.955 79.0713V84H126.691V79.1328C126.691 78.7454 126.625 78.4355 126.493 78.2031C126.365 77.9707 126.183 77.8021 125.946 77.6973C125.709 77.5879 125.431 77.5332 125.112 77.5332C124.738 77.5332 124.426 77.5993 124.175 77.7314C123.925 77.8636 123.724 78.0459 123.574 78.2783C123.423 78.5107 123.314 78.7773 123.246 79.0781C123.182 79.3743 123.15 79.6888 123.15 80.0215ZM127.942 79.3242L127.094 79.584C127.099 79.1784 127.165 78.7887 127.292 78.415C127.425 78.0413 127.614 77.7087 127.86 77.417C128.11 77.1253 128.418 76.8952 128.783 76.7266C129.147 76.5534 129.564 76.4668 130.034 76.4668C130.43 76.4668 130.781 76.5192 131.086 76.624C131.396 76.7288 131.656 76.8906 131.866 77.1094C132.08 77.3236 132.242 77.5993 132.351 77.9365C132.46 78.2738 132.515 78.6748 132.515 79.1396V84H131.244V79.126C131.244 78.7113 131.177 78.39 131.045 78.1621C130.918 77.9297 130.735 77.7679 130.498 77.6768C130.266 77.5811 129.988 77.5332 129.664 77.5332C129.386 77.5332 129.14 77.5811 128.926 77.6768C128.712 77.7725 128.532 77.9046 128.386 78.0732C128.24 78.2373 128.129 78.4264 128.051 78.6406C127.978 78.8548 127.942 79.0827 127.942 79.3242ZM135.484 76.3027H136.058C136.281 76.3027 136.466 76.2708 136.612 76.207C136.757 76.1432 136.867 76.0566 136.94 75.9473C137.017 75.8333 137.056 75.7035 137.056 75.5576C137.056 75.3571 136.983 75.1885 136.837 75.0518C136.691 74.915 136.461 74.8467 136.147 74.8467C135.887 74.8467 135.67 74.9036 135.497 75.0176C135.329 75.1315 135.244 75.2865 135.244 75.4824H134.171C134.171 75.1725 134.258 74.9059 134.431 74.6826C134.604 74.4548 134.839 74.2793 135.135 74.1562C135.431 74.0332 135.762 73.9717 136.126 73.9717C136.523 73.9717 136.871 74.0309 137.172 74.1494C137.473 74.2633 137.708 74.4342 137.876 74.6621C138.045 74.89 138.129 75.1702 138.129 75.5029C138.129 75.7445 138.054 75.9678 137.904 76.1729C137.758 76.3734 137.543 76.5352 137.261 76.6582C136.983 76.7767 136.643 76.8359 136.242 76.8359H135.484V76.3027ZM135.484 77.0889V76.5557H136.242C136.698 76.5557 137.072 76.6104 137.363 76.7197C137.655 76.8291 137.872 76.9863 138.013 77.1914C138.154 77.3965 138.225 77.6449 138.225 77.9365C138.225 78.2692 138.134 78.554 137.951 78.791C137.769 79.028 137.518 79.208 137.199 79.3311C136.885 79.4541 136.529 79.5156 136.133 79.5156C135.791 79.5156 135.463 79.4609 135.149 79.3516C134.839 79.2376 134.586 79.0622 134.39 78.8252C134.194 78.5882 134.096 78.2852 134.096 77.916H135.169C135.169 78.1211 135.26 78.2943 135.443 78.4355C135.625 78.5723 135.866 78.6406 136.167 78.6406C136.486 78.6406 136.728 78.57 136.892 78.4287C137.06 78.2874 137.145 78.1051 137.145 77.8818C137.145 77.6904 137.099 77.5378 137.008 77.4238C136.921 77.3053 136.796 77.221 136.632 77.1709C136.473 77.1162 136.281 77.0889 136.058 77.0889H135.484Z" fill="#FFA600"/>
<path d="M147.444 71.7778L154.555 71.7778L154.555 80.6667L151.004 83.3333L147.444 80.6667L147.444 71.7778Z" fill="url(#paint0_linear_1129_2991)" fill-opacity="0.3"/>
<path fill-rule="evenodd" clip-rule="evenodd" d="M150.674 83.896C150.854 84.0762 151.146 84.0762 151.326 83.896L154.555 80.6667L153.903 80.0142L152.484 81.4331C152.107 81.8106 151.461 81.5432 151.461 81.0093L151.461 77.1111L150.539 77.1111L150.539 81.0093C150.539 81.5432 149.893 81.8106 149.516 81.4331L148.097 80.0142L147.444 80.6667L150.674 83.896Z" fill="black" fill-opacity="0.87"/>
<path d="M162.568 79.793V80.918H159.469V79.793H162.568ZM167.828 75.4395V84H166.416V77.1152L164.324 77.8242V76.6582L167.658 75.4395H167.828ZM175.309 75.416H175.484V76.5703H175.385C174.881 76.5703 174.445 76.6484 174.078 76.8047C173.715 76.9609 173.416 77.1758 173.182 77.4492C172.947 77.7227 172.771 78.043 172.654 78.4102C172.541 78.7734 172.484 79.1602 172.484 79.5703V80.9121C172.484 81.252 172.521 81.5527 172.596 81.8145C172.67 82.0723 172.773 82.2891 172.906 82.4648C173.043 82.6367 173.199 82.7676 173.375 82.8574C173.551 82.9473 173.74 82.9922 173.943 82.9922C174.154 82.9922 174.346 82.9492 174.518 82.8633C174.689 82.7734 174.836 82.6504 174.957 82.4941C175.078 82.3379 175.17 82.1523 175.232 81.9375C175.295 81.7227 175.326 81.4883 175.326 81.2344C175.326 80.9922 175.295 80.7656 175.232 80.5547C175.174 80.3398 175.086 80.1523 174.969 79.9922C174.852 79.8281 174.705 79.7012 174.529 79.6113C174.357 79.5176 174.158 79.4707 173.932 79.4707C173.65 79.4707 173.395 79.5371 173.164 79.6699C172.938 79.8027 172.754 79.9766 172.613 80.1914C172.477 80.4023 172.402 80.627 172.391 80.8652L171.852 80.6895C171.883 80.3262 171.963 80 172.092 79.7109C172.225 79.4219 172.398 79.1758 172.613 78.9727C172.828 78.7695 173.076 78.6152 173.357 78.5098C173.643 78.4004 173.955 78.3457 174.295 78.3457C174.709 78.3457 175.068 78.4238 175.373 78.5801C175.678 78.7363 175.93 78.9492 176.129 79.2188C176.332 79.4844 176.482 79.7891 176.58 80.1328C176.682 80.4727 176.732 80.8281 176.732 81.1992C176.732 81.6094 176.67 81.9922 176.545 82.3477C176.42 82.6992 176.236 83.0078 175.994 83.2734C175.756 83.5391 175.465 83.7461 175.121 83.8945C174.781 84.043 174.395 84.1172 173.961 84.1172C173.504 84.1172 173.096 84.0293 172.736 83.8535C172.381 83.6777 172.078 83.4355 171.828 83.127C171.582 82.8184 171.395 82.4629 171.266 82.0605C171.137 81.6582 171.072 81.2324 171.072 80.7832V80.1973C171.072 79.5488 171.154 78.9375 171.318 78.3633C171.482 77.7852 171.734 77.2754 172.074 76.834C172.418 76.3926 172.857 76.0469 173.393 75.7969C173.928 75.543 174.566 75.416 175.309 75.416Z" fill="black" fill-opacity="0.87"/>
<path d="M178.586 77.5605V77.1094C178.586 76.7852 178.656 76.4902 178.797 76.2246C178.938 75.959 179.143 75.7461 179.412 75.5859C179.682 75.4258 180.006 75.3457 180.385 75.3457C180.775 75.3457 181.104 75.4258 181.369 75.5859C181.639 75.7461 181.844 75.959 181.984 76.2246C182.125 76.4902 182.195 76.7852 182.195 77.1094V77.5605C182.195 77.877 182.125 78.168 181.984 78.4336C181.848 78.6992 181.645 78.9121 181.375 79.0723C181.109 79.2324 180.783 79.3125 180.396 79.3125C180.014 79.3125 179.686 79.2324 179.412 79.0723C179.143 78.9121 178.938 78.6992 178.797 78.4336C178.656 78.168 178.586 77.877 178.586 77.5605ZM179.564 77.1094V77.5605C179.564 77.7168 179.594 77.8652 179.652 78.0059C179.715 78.1465 179.809 78.2598 179.934 78.3457C180.059 78.4316 180.213 78.4746 180.396 78.4746C180.584 78.4746 180.736 78.4316 180.854 78.3457C180.975 78.2598 181.064 78.1465 181.123 78.0059C181.182 77.8652 181.211 77.7168 181.211 77.5605V77.1094C181.211 76.9492 181.18 76.7988 181.117 76.6582C181.059 76.5137 180.969 76.3984 180.848 76.3125C180.727 76.2266 180.572 76.1836 180.385 76.1836C180.205 76.1836 180.053 76.2266 179.928 76.3125C179.807 76.3984 179.715 76.5137 179.652 76.6582C179.594 76.7988 179.564 76.9492 179.564 77.1094ZM182.699 82.3652V81.9082C182.699 81.5879 182.77 81.2949 182.91 81.0293C183.055 80.7637 183.262 80.5508 183.531 80.3906C183.801 80.2305 184.125 80.1504 184.504 80.1504C184.895 80.1504 185.223 80.2305 185.488 80.3906C185.758 80.5508 185.961 80.7637 186.098 81.0293C186.238 81.2949 186.309 81.5879 186.309 81.9082V82.3652C186.309 82.6855 186.238 82.9785 186.098 83.2441C185.961 83.5098 185.76 83.7227 185.494 83.8828C185.229 84.043 184.904 84.123 184.521 84.123C184.135 84.123 183.805 84.043 183.531 83.8828C183.262 83.7227 183.055 83.5098 182.91 83.2441C182.77 82.9785 182.699 82.6855 182.699 82.3652ZM183.684 81.9082V82.3652C183.684 82.5215 183.715 82.6699 183.777 82.8105C183.844 82.9512 183.939 83.0664 184.064 83.1562C184.189 83.2422 184.34 83.2852 184.516 83.2852C184.715 83.2852 184.875 83.2422 184.996 83.1562C185.117 83.0664 185.203 82.9531 185.254 82.8164C185.309 82.6758 185.336 82.5254 185.336 82.3652V81.9082C185.336 81.748 185.305 81.5977 185.242 81.457C185.184 81.3164 185.092 81.2031 184.967 81.1172C184.846 81.0312 184.691 80.9883 184.504 80.9883C184.32 80.9883 184.168 81.0312 184.047 81.1172C183.926 81.2031 183.834 81.3164 183.771 81.457C183.713 81.5977 183.684 81.748 183.684 81.9082ZM184.855 76.6875L180.689 83.3555L179.969 82.9395L184.135 76.2715L184.855 76.6875Z" fill="black" fill-opacity="0.87"/>
<g clip-path="url(#clip0_1129_2991)">
<path fill-rule="evenodd" clip-rule="evenodd" d="M188.004 124.999L12 125.001L12 124.001L188.004 123.999L188.004 124.999Z" fill="black" fill-opacity="0.12"/>
<path d="M12 133.775C13.0166 133.775 18.5098 133.775 21.2632 133.775L34.6433 143L44.9357 112.25L66.5497 134.8L90.2222 112.25L97.4269 113.275L111.836 143H126.246L138.596 116.35H147.86L157.123 102L169.474 106.1L188 116.35" stroke="black" stroke-opacity="0.87" stroke-width="1.5"/>
</g>
<defs>
<linearGradient id="paint0_linear_1129_2991" x1="150.683" y1="84.0298" x2="150.683" y2="71.7778" gradientUnits="userSpaceOnUse">
<stop offset="0" style="stop-color:#fff;stop-opacity:1" />
<stop offset="1" style="stop-color:#fff;stop-opacity:0" />
</linearGradient>
<clipPath id="clip0_1129_2991">
<rect width="176" height="60" fill="white" transform="translate(12 90)"/>
</clipPath>
</defs>
</svg>
