<svg xmlns="http://www.w3.org/2000/svg" width="200" height="160" fill="none"><rect width="200" height="108" y="26" fill="#fff" rx="4"/><rect width="199" height="107" x=".5" y="26.5" stroke="#000" stroke-opacity=".12" rx="3.5"/><g filter="url(#a)"><rect width="182" height="90" x="9" y="35" fill="#fff" fill-opacity=".76" rx="3.008"/></g><path fill="#000" fill-opacity=".87" d="M16.666 43.083A1.17 1.17 0 0 0 15.5 44.25v3.5a1.167 1.167 0 0 0 1.166 1.167h1.75V47.75h-1.75v-3.5h1.75v-1.167h-1.75Zm3.5 0A1.17 1.17 0 0 0 19 44.25v3.5a1.167 1.167 0 0 0 1.166 1.167h1.167c.648 0 1.167-.52 1.167-1.167v-3.5a1.167 1.167 0 0 0-1.167-1.167h-1.167Zm0 1.167h1.167v3.5h-1.167v-3.5ZM38.906 47.76h1.709a3.943 3.943 0 0 1-.547 1.743c-.31.506-.745.905-1.306 1.196-.56.292-1.242.438-2.044.438-.615 0-1.169-.11-1.66-.328a3.641 3.641 0 0 1-1.266-.944c-.35-.41-.62-.904-.806-1.483a6.445 6.445 0 0 1-.274-1.942v-.827c0-.715.094-1.362.28-1.941a4.29 4.29 0 0 1 .821-1.483 3.546 3.546 0 0 1 1.278-.95 4.18 4.18 0 0 1 1.689-.329c.793 0 1.463.146 2.01.438.546.291.97.695 1.271 1.21.305.515.492 1.105.56 1.77h-1.708a3.16 3.16 0 0 0-.301-1.1 1.55 1.55 0 0 0-.67-.698c-.296-.164-.684-.246-1.162-.246-.392 0-.734.073-1.026.219-.291.146-.535.36-.731.642a3.1 3.1 0 0 0-.444 1.046 6.23 6.23 0 0 0-.144 1.409v.84c0 .502.043.958.13 1.368.091.405.228.754.41 1.045.187.292.424.518.711.677.287.16.631.24 1.032.24.488 0 .882-.078 1.183-.233a1.55 1.55 0 0 0 .69-.677c.16-.3.265-.667.315-1.1Zm7.523 1.757v-3.528c0-.264-.048-.492-.143-.683a1.005 1.005 0 0 0-.438-.445c-.191-.104-.433-.157-.724-.157-.27 0-.502.046-.698.137a1.127 1.127 0 0 0-.458.369.89.89 0 0 0-.164.526h-1.64c0-.291.07-.574.212-.847.14-.274.346-.518.615-.732.269-.214.59-.383.964-.506a4.008 4.008 0 0 1 1.257-.184c.556 0 1.049.093 1.477.28.433.187.772.47 1.019.848.25.373.376.843.376 1.408v3.288c0 .337.022.64.068.91.05.264.12.494.212.69V51h-1.689a2.917 2.917 0 0 1-.184-.677 5.528 5.528 0 0 1-.062-.806Zm.24-3.015.013 1.018H45.5c-.305 0-.574.03-.806.09a1.657 1.657 0 0 0-.581.245c-.155.11-.271.242-.349.397a1.16 1.16 0 0 0-.116.526c0 .196.046.376.137.54.09.16.223.285.396.376.178.091.392.137.643.137.337 0 .63-.068.882-.205.255-.141.455-.312.601-.513.146-.205.224-.398.233-.58l.533.73a2.502 2.502 0 0 1-.28.602c-.133.214-.306.42-.52.615a2.584 2.584 0 0 1-1.77.656c-.484 0-.914-.095-1.292-.286a2.297 2.297 0 0 1-.89-.787 2.039 2.039 0 0 1-.32-1.128c0-.391.072-.738.218-1.038.15-.306.37-.561.656-.766.292-.205.648-.36 1.067-.465.42-.11.898-.164 1.435-.164h1.293Zm5.041-1.49V51h-1.647v-7.397h1.572l.075 1.409Zm2.263-1.456-.014 1.53a4.289 4.289 0 0 0-.67-.055c-.282.001-.53.042-.745.124a1.403 1.403 0 0 0-.54.342c-.14.146-.25.324-.328.533-.077.21-.123.445-.136.704l-.376.028c0-.465.045-.896.136-1.292a3.53 3.53 0 0 1 .41-1.046c.187-.301.42-.536.698-.704.282-.169.608-.253.977-.253.1 0 .208.009.322.027.118.018.207.039.266.062Zm1.29-3.056h1.647v8.92L56.752 51h-1.49V40.5Zm6.473 6.733v.144c0 .547-.062 1.05-.185 1.51a3.48 3.48 0 0 1-.547 1.19c-.241.337-.542.6-.902.786-.355.183-.768.274-1.237.274-.46 0-.862-.087-1.203-.26a2.392 2.392 0 0 1-.862-.738 4.095 4.095 0 0 1-.553-1.142 7.537 7.537 0 0 1-.301-1.463v-.458c.059-.538.16-1.025.3-1.463.142-.442.326-.822.554-1.141.233-.324.518-.572.855-.745.342-.174.74-.26 1.196-.26.474 0 .891.09 1.251.273.365.182.668.442.91.78.24.332.42.729.54 1.189.122.46.184.968.184 1.524Zm-1.648.144v-.144c0-.332-.027-.644-.082-.936a2.458 2.458 0 0 0-.273-.78 1.37 1.37 0 0 0-.506-.526c-.21-.132-.472-.198-.786-.198-.292 0-.542.05-.752.15-.21.1-.385.237-.526.41a2.031 2.031 0 0 0-.335.602c-.078.228-.13.474-.158.738v1.238c.041.342.128.656.26.943.137.283.328.51.574.684.247.168.563.252.95.252.306 0 .563-.061.773-.184a1.35 1.35 0 0 0 .5-.513 2.46 2.46 0 0 0 .273-.779c.059-.296.088-.615.088-.957Zm2.978.007v-.157c0-.534.077-1.028.232-1.484.155-.46.379-.859.67-1.196a3.024 3.024 0 0 1 1.08-.793 3.516 3.516 0 0 1 1.45-.287c.542 0 1.025.096 1.449.287.428.187.79.451 1.087.793.296.337.521.736.676 1.196.155.456.233.95.233 1.484v.157c0 .533-.078 1.027-.233 1.483a3.55 3.55 0 0 1-.676 1.197 3.136 3.136 0 0 1-1.08.792 3.54 3.54 0 0 1-1.443.28 3.607 3.607 0 0 1-1.456-.28 3.135 3.135 0 0 1-1.08-.793 3.551 3.551 0 0 1-.677-1.196 4.582 4.582 0 0 1-.232-1.483Zm1.647-.157v.157c0 .333.035.647.103.943a2.4 2.4 0 0 0 .321.78c.146.223.333.398.56.526.229.127.5.191.814.191.306 0 .57-.064.793-.191.228-.128.415-.303.56-.527.147-.223.254-.483.322-.779.073-.296.11-.61.11-.943v-.157c0-.329-.037-.638-.11-.93a2.387 2.387 0 0 0-.328-.786 1.57 1.57 0 0 0-.56-.534 1.543 1.543 0 0 0-.8-.198c-.31 0-.58.066-.807.198a1.587 1.587 0 0 0-.554.534c-.146.228-.253.49-.321.786a4.067 4.067 0 0 0-.103.93Zm8.495-2.044V51H71.56v-7.397h1.552l.096 1.58Zm-.294 1.845-.534-.006a4.808 4.808 0 0 1 .22-1.443c.145-.437.346-.813.6-1.128.26-.314.57-.556.93-.724.36-.174.761-.26 1.204-.26.355 0 .676.05.963.15.292.096.54.253.746.472.21.219.369.503.478.854.11.347.164.773.164 1.279V51h-1.654v-4.785c0-.356-.053-.636-.157-.841a.88.88 0 0 0-.445-.444c-.191-.091-.43-.137-.718-.137-.282 0-.535.06-.758.178-.224.118-.413.28-.568.485-.15.205-.266.442-.348.711a2.938 2.938 0 0 0-.123.861ZM85 45.108V51h-1.648v-7.397h1.552L85 45.107Zm-.267 1.92-.56-.006c0-.51.063-.983.19-1.416a3.4 3.4 0 0 1 .561-1.128c.246-.323.552-.571.916-.745.37-.177.796-.266 1.279-.266.337 0 .644.05.922.15.283.096.527.249.732.458.21.21.37.479.478.807.114.328.171.724.171 1.19V51h-1.647v-4.785c0-.36-.055-.643-.164-.848a.91.91 0 0 0-.458-.437 1.658 1.658 0 0 0-.704-.137c-.31 0-.575.06-.793.178-.215.118-.39.28-.527.485a2.173 2.173 0 0 0-.3.711 3.723 3.723 0 0 0-.096.861Zm4.587-.437-.773.17c0-.446.062-.867.185-1.264.127-.401.312-.752.554-1.053.246-.305.549-.544.909-.717a2.82 2.82 0 0 1 1.237-.26c.378 0 .716.052 1.012.157.3.1.556.26.765.478.21.22.37.504.479.855.11.346.164.766.164 1.258V51h-1.654v-4.792c0-.374-.055-.663-.164-.868a.85.85 0 0 0-.451-.424 1.82 1.82 0 0 0-.705-.123c-.255 0-.48.048-.676.144a1.343 1.343 0 0 0-.486.39 1.735 1.735 0 0 0-.3.567 2.432 2.432 0 0 0-.096.697Zm6.163.793v-.157c0-.534.077-1.028.232-1.484.155-.46.379-.859.67-1.196a3.025 3.025 0 0 1 1.08-.793 3.516 3.516 0 0 1 1.45-.287c.542 0 1.025.096 1.449.287.428.187.79.451 1.087.793.296.337.521.736.676 1.196.155.456.233.95.233 1.484v.157c0 .533-.078 1.027-.233 1.483-.155.456-.38.855-.676 1.197a3.15 3.15 0 0 1-1.08.792c-.424.187-.905.28-1.443.28a3.607 3.607 0 0 1-1.456-.28 3.136 3.136 0 0 1-1.08-.793 3.55 3.55 0 0 1-.677-1.196 4.582 4.582 0 0 1-.232-1.483Zm1.647-.157v.157c0 .333.034.647.103.943.068.296.175.556.321.78.146.223.333.398.56.526.229.127.5.191.814.191.305 0 .57-.064.793-.191a1.59 1.59 0 0 0 .561-.527c.146-.223.253-.483.321-.779a3.93 3.93 0 0 0 .109-.943v-.157c0-.329-.036-.638-.109-.93a2.39 2.39 0 0 0-.328-.786 1.57 1.57 0 0 0-.56-.534 1.543 1.543 0 0 0-.8-.198c-.31 0-.58.066-.807.198a1.587 1.587 0 0 0-.554.534c-.146.228-.253.49-.321.786a4.062 4.062 0 0 0-.103.93Zm8.494-2.044V51h-1.647v-7.397h1.552l.095 1.58Zm-.293 1.845-.534-.006a4.834 4.834 0 0 1 .219-1.443 3.54 3.54 0 0 1 .602-1.128c.259-.314.569-.556.929-.724.36-.174.761-.26 1.203-.26.356 0 .677.05.964.15.292.096.54.253.745.472.21.219.37.503.479.854.109.347.164.773.164 1.279V51h-1.654v-4.785c0-.356-.053-.636-.157-.841a.883.883 0 0 0-.445-.444c-.191-.091-.43-.137-.718-.137-.282 0-.535.06-.758.178-.224.118-.413.28-.568.485-.15.205-.266.442-.348.711a2.938 2.938 0 0 0-.123.861Zm6.388.356v-.157c0-.534.078-1.028.233-1.484.155-.46.378-.859.67-1.196a3.02 3.02 0 0 1 1.08-.793 3.513 3.513 0 0 1 1.449-.287c.542 0 1.025.096 1.449.287.428.187.791.451 1.087.793.296.337.522.736.677 1.196.155.456.232.95.232 1.484v.157c0 .533-.077 1.027-.232 1.483a3.555 3.555 0 0 1-.677 1.197 3.132 3.132 0 0 1-1.08.792c-.424.187-.905.28-1.442.28a3.611 3.611 0 0 1-1.457-.28 3.15 3.15 0 0 1-1.08-.793 3.553 3.553 0 0 1-.676-1.196 4.579 4.579 0 0 1-.233-1.483Zm1.648-.157v.157c0 .333.034.647.102.943.069.296.176.556.322.78.145.223.332.398.56.526.228.127.499.191.814.191.305 0 .569-.064.792-.191a1.59 1.59 0 0 0 .561-.527c.146-.223.253-.483.321-.779.073-.296.11-.61.11-.943v-.157c0-.329-.037-.638-.11-.93a2.368 2.368 0 0 0-.328-.786 1.568 1.568 0 0 0-.56-.534 1.545 1.545 0 0 0-.8-.198c-.31 0-.579.066-.807.198a1.581 1.581 0 0 0-.553.534c-.146.228-.253.49-.322.786a4.084 4.084 0 0 0-.102.93Zm7.967-3.623 1.409 2.454 1.435-2.455h1.812l-2.242 3.63L126.08 51h-1.812l-1.504-2.557L121.26 51h-1.818l2.324-3.767-2.235-3.63h1.804Zm7.797 0V51h-1.654v-7.397h1.654Zm-1.763-1.942c0-.25.082-.458.246-.622.168-.169.401-.253.697-.253.292 0 .522.084.69.253a.83.83 0 0 1 .253.622.822.822 0 0 1-.253.615c-.168.164-.398.246-.69.246-.296 0-.529-.082-.697-.246a.835.835 0 0 1-.246-.615Zm8.33 7.807V40.5h1.654V51h-1.497l-.157-1.531Zm-4.813-2.085v-.144c0-.56.066-1.07.198-1.531.133-.465.324-.864.575-1.196.25-.337.556-.595.916-.773.36-.182.765-.273 1.217-.273.446 0 .838.086 1.175.26.338.173.625.421.862.745.237.319.426.701.567 1.148.141.442.242.934.301 1.477v.458a7.399 7.399 0 0 1-.301 1.449c-.141.437-.33.816-.567 1.135a2.453 2.453 0 0 1-.869.738c-.337.173-.731.26-1.182.26-.447 0-.85-.094-1.21-.28a2.662 2.662 0 0 1-.909-.787 3.712 3.712 0 0 1-.575-1.19 5.413 5.413 0 0 1-.198-1.496Zm1.648-.144v.144c0 .337.029.651.089.943.063.292.161.55.294.773.132.218.303.392.512.52.214.122.47.184.766.184.374 0 .681-.082.923-.246.241-.164.43-.386.567-.663.141-.283.237-.598.287-.944v-1.237a2.988 2.988 0 0 0-.171-.752 1.996 1.996 0 0 0-.335-.609 1.405 1.405 0 0 0-.526-.41 1.65 1.65 0 0 0-.732-.15c-.3 0-.555.064-.765.191-.21.128-.383.303-.52.527a2.6 2.6 0 0 0-.294.779 4.563 4.563 0 0 0-.095.95Zm10.052 3.897a3.945 3.945 0 0 1-1.483-.267 3.28 3.28 0 0 1-1.121-.759 3.367 3.367 0 0 1-.704-1.141 3.999 3.999 0 0 1-.246-1.415v-.274c0-.578.084-1.103.253-1.572.168-.47.403-.87.704-1.203a3.026 3.026 0 0 1 1.066-.773c.41-.177.855-.266 1.333-.266.529 0 .991.089 1.388.266.396.178.724.429.984.752.265.32.461.7.588 1.142.132.442.198.93.198 1.463v.704h-5.714V46.61h4.087v-.13a2.318 2.318 0 0 0-.177-.834 1.418 1.418 0 0 0-.486-.628c-.218-.16-.51-.24-.875-.24-.273 0-.517.06-.731.178-.21.114-.385.28-.526.5a2.622 2.622 0 0 0-.329.792c-.073.305-.109.65-.109 1.032v.274c0 .323.043.624.13.902.091.273.223.513.396.718.174.205.383.367.629.485.246.114.527.171.841.171.397 0 .75-.08 1.06-.24.31-.159.578-.384.806-.676l.869.84c-.16.233-.367.457-.623.67-.255.21-.567.381-.936.514a3.732 3.732 0 0 1-1.272.198Z"/><path fill="#DE2343" d="M21.82 96.832h.352v2.309h-.2c-1.007 0-1.878.156-2.613.468-.726.313-1.324.743-1.793 1.289a5.478 5.478 0 0 0-1.054 1.922c-.227.727-.34 1.5-.34 2.321v2.683c0 .68.074 1.281.223 1.805.148.516.355.949.62 1.301.274.343.587.605.938.785.352.18.73.269 1.137.269.422 0 .805-.086 1.148-.257.344-.18.637-.426.88-.739.241-.312.425-.683.55-1.113.125-.43.188-.898.188-1.406 0-.485-.063-.938-.188-1.36a3.412 3.412 0 0 0-.527-1.125 2.415 2.415 0 0 0-.88-.761 2.451 2.451 0 0 0-1.195-.282c-.562 0-1.074.133-1.535.399-.453.265-.82.613-1.101 1.043a2.684 2.684 0 0 0-.446 1.347l-1.078-.351a6.048 6.048 0 0 1 .48-1.957 4.726 4.726 0 0 1 1.044-1.477c.43-.406.925-.715 1.488-.925a5.189 5.189 0 0 1 1.875-.329c.828 0 1.547.157 2.156.469.61.313 1.113.738 1.512 1.278.406.531.707 1.14.902 1.828.203.679.305 1.39.305 2.132 0 .821-.125 1.586-.375 2.297a5.402 5.402 0 0 1-1.102 1.852 4.949 4.949 0 0 1-1.746 1.242c-.68.297-1.453.445-2.32.445-.914 0-1.73-.175-2.45-.527a5.388 5.388 0 0 1-1.816-1.453 6.623 6.623 0 0 1-1.125-2.133 8.324 8.324 0 0 1-.386-2.555v-1.171c0-1.297.164-2.52.492-3.668.328-1.157.832-2.176 1.512-3.059.687-.883 1.566-1.574 2.636-2.074 1.07-.508 2.348-.762 3.832-.762Zm16.23 7.207v2.789c0 1.336-.132 2.477-.398 3.422-.258.938-.633 1.699-1.125 2.285a4.41 4.41 0 0 1-1.77 1.289c-.679.274-1.44.41-2.284.41a6.584 6.584 0 0 1-1.875-.257 4.586 4.586 0 0 1-1.547-.809 4.833 4.833 0 0 1-1.184-1.418c-.32-.586-.57-1.285-.75-2.098-.172-.812-.258-1.754-.258-2.824v-2.789c0-1.344.133-2.477.399-3.398.265-.93.644-1.684 1.137-2.262a4.33 4.33 0 0 1 1.757-1.277c.688-.266 1.453-.399 2.297-.399.68 0 1.305.086 1.875.258a4.39 4.39 0 0 1 1.547.785c.461.36.852.828 1.172 1.406.328.57.578 1.262.75 2.075.172.804.258 1.742.258 2.812Zm-2.823 3.188v-3.61c0-.679-.04-1.277-.118-1.793-.078-.523-.195-.965-.351-1.324a2.64 2.64 0 0 0-.563-.89 1.98 1.98 0 0 0-.773-.504 2.731 2.731 0 0 0-.973-.165c-.437 0-.828.086-1.172.258-.343.164-.633.43-.867.797-.234.367-.414.852-.539 1.453-.117.594-.176 1.317-.176 2.168v3.61c0 .687.04 1.293.117 1.816.079.523.196.973.352 1.348.156.367.344.671.563.914a2.1 2.1 0 0 0 .773.515c.297.11.621.164.973.164.445 0 .84-.086 1.183-.257.344-.172.633-.446.867-.821.235-.383.41-.879.528-1.488.117-.609.176-1.34.176-2.191ZM47.285 103.898V114H44.46v-12.68h2.66l.164 2.578Zm-.457 3.293-.961-.011c0-.875.11-1.684.328-2.426a5.83 5.83 0 0 1 .961-1.934 4.23 4.23 0 0 1 1.57-1.277c.633-.305 1.364-.457 2.192-.457.578 0 1.105.086 1.582.258a3.14 3.14 0 0 1 1.254.785c.359.359.633.82.82 1.383.195.562.293 1.242.293 2.039V114h-2.824v-8.203c0-.617-.094-1.102-.282-1.453a1.555 1.555 0 0 0-.785-.75c-.336-.156-.738-.235-1.207-.235-.531 0-.984.102-1.36.305a2.562 2.562 0 0 0-.901.832 3.732 3.732 0 0 0-.516 1.219c-.11.461-.164.953-.164 1.476Zm7.863-.75-1.324.293c0-.765.105-1.488.316-2.168a5.521 5.521 0 0 1 .95-1.804 4.45 4.45 0 0 1 1.558-1.231c.617-.297 1.324-.445 2.121-.445.649 0 1.227.09 1.735.269a3.18 3.18 0 0 1 1.312.821c.36.375.633.863.82 1.465.188.593.282 1.312.282 2.156V114h-2.836v-8.215c0-.64-.094-1.137-.282-1.488a1.458 1.458 0 0 0-.773-.727c-.336-.14-.738-.211-1.207-.211-.438 0-.824.082-1.16.246a2.311 2.311 0 0 0-.832.668 2.989 2.989 0 0 0-.516.973 4.17 4.17 0 0 0-.164 1.195Zm18.797-5.121h2.566v12.328c0 1.141-.242 2.11-.726 2.907a4.668 4.668 0 0 1-2.028 1.816c-.867.422-1.87.633-3.011.633-.485 0-1.024-.07-1.617-.211a6.624 6.624 0 0 1-1.711-.68 4.234 4.234 0 0 1-1.371-1.207l1.324-1.664c.453.539.953.934 1.5 1.184.547.25 1.12.375 1.722.375.649 0 1.2-.121 1.653-.363a2.463 2.463 0 0 0 1.066-1.043c.25-.461.375-1.024.375-1.688v-9.516l.258-2.871Zm-8.613 6.481v-.246c0-.961.117-1.836.351-2.625.235-.797.57-1.481 1.008-2.051a4.39 4.39 0 0 1 1.594-1.324c.625-.313 1.332-.469 2.121-.469.82 0 1.52.148 2.098.445a3.963 3.963 0 0 1 1.465 1.278c.39.546.695 1.203.913 1.968.227.758.395 1.602.504 2.532v.785a12.674 12.674 0 0 1-.515 2.484c-.242.75-.563 1.399-.961 1.945-.399.547-.89.969-1.477 1.266-.578.297-1.261.445-2.05.445-.774 0-1.473-.16-2.098-.48a4.773 4.773 0 0 1-1.594-1.348 6.384 6.384 0 0 1-1.008-2.039 8.973 8.973 0 0 1-.351-2.566Zm2.824-.246v.246c0 .578.055 1.117.164 1.617.117.5.293.941.527 1.324.243.375.547.672.914.891.375.211.817.316 1.325.316.664 0 1.207-.14 1.629-.422.43-.281.757-.66.984-1.136a5.759 5.759 0 0 0 .492-1.618v-2.121a5.182 5.182 0 0 0-.293-1.289 3.457 3.457 0 0 0-.574-1.043 2.402 2.402 0 0 0-.914-.703c-.367-.172-.8-.258-1.3-.258-.509 0-.95.11-1.325.329a2.68 2.68 0 0 0-.926.902 4.46 4.46 0 0 0-.527 1.336 7.233 7.233 0 0 0-.176 1.629Zm18.703-10.618-6.644 18.528h-2.215l6.656-18.528h2.203Zm4.781 6.961V114H88.36v-12.68h2.66l.164 2.578Zm-.457 3.293-.96-.011c0-.875.109-1.684.328-2.426.218-.742.539-1.387.96-1.934a4.23 4.23 0 0 1 1.57-1.277c.634-.305 1.364-.457 2.192-.457.578 0 1.106.086 1.582.258.485.164.903.426 1.254.785.36.359.633.82.82 1.383.196.562.293 1.242.293 2.039V114h-2.824v-8.203c0-.617-.094-1.102-.281-1.453a1.555 1.555 0 0 0-.785-.75c-.336-.156-.739-.235-1.207-.235-.532 0-.985.102-1.36.305a2.564 2.564 0 0 0-.902.832 3.732 3.732 0 0 0-.516 1.219c-.109.461-.164.953-.164 1.476Zm7.864-.75-1.325.293c0-.765.106-1.488.317-2.168a5.52 5.52 0 0 1 .949-1.804 4.449 4.449 0 0 1 1.559-1.231c.617-.297 1.324-.445 2.121-.445.648 0 1.226.09 1.734.269.516.172.953.446 1.313.821.359.375.632.863.82 1.465.187.593.281 1.312.281 2.156V114h-2.836v-8.215c0-.64-.094-1.137-.281-1.488a1.461 1.461 0 0 0-.773-.727c-.336-.14-.739-.211-1.208-.211-.437 0-.824.082-1.16.246a2.311 2.311 0 0 0-.832.668 2.985 2.985 0 0 0-.515.973 4.17 4.17 0 0 0-.164 1.195Zm12.386-5.707h1.02c.336 0 .613-.046.832-.14.219-.102.383-.239.492-.41.117-.172.176-.375.176-.61a.998.998 0 0 0-.328-.738c-.211-.219-.567-.328-1.067-.328-.382 0-.707.082-.972.246-.258.156-.387.379-.387.668h-2.133c0-.555.156-1.028.469-1.418.312-.39.73-.688 1.254-.89a4.69 4.69 0 0 1 1.711-.305c.711 0 1.336.101 1.875.304.539.196.957.489 1.254.88.304.39.457.874.457 1.452 0 .446-.141.84-.422 1.184-.274.344-.656.613-1.149.809-.484.187-1.054.281-1.711.281h-1.371v-.985Zm0 1.465v-.961h1.371c.727 0 1.348.086 1.864.258.515.164.906.418 1.172.762.273.344.41.789.41 1.336 0 .578-.164 1.07-.492 1.476-.329.407-.778.715-1.348.926-.563.211-1.195.316-1.899.316a5.29 5.29 0 0 1-1.71-.281c-.547-.195-1-.5-1.36-.914-.351-.414-.527-.957-.527-1.629h2.144c0 .305.141.567.422.785.281.219.66.329 1.137.329.508 0 .883-.11 1.125-.329a1.09 1.09 0 0 0 .375-.843c0-.297-.07-.535-.211-.715a1.091 1.091 0 0 0-.574-.387 2.705 2.705 0 0 0-.879-.129h-1.02Z"/><path stroke="#000" stroke-linecap="round" stroke-opacity=".87" stroke-width="2" d="m117.76 117.148 6.756-8.908a6.281 6.281 0 0 0 1.179-2.689l3.04-16.924c.632-3.514 5.671-3.514 6.303 0l.185 1.03c.616 3.43 5.577 3.299 6.012-.158v0c.411-3.273 5.008-3.642 5.937-.477l2.122 7.232c1.403 4.781 8.34 4.248 8.995-.691l1.035-7.8c.915-6.899 10.706-7.404 12.327-.637l1.002 4.185c.752 3.14 4.51 4.435 7.036 2.426v0a4.412 4.412 0 0 1 5.838.305l4.078 4.007"/><defs><filter id="a" width="191.023" height="99.023" x="4.489" y="30.489" color-interpolation-filters="sRGB" filterUnits="userSpaceOnUse"><feFlood flood-opacity="0" result="BackgroundImageFix"/><feGaussianBlur in="BackgroundImageFix" stdDeviation="2.256"/><feComposite in2="SourceAlpha" operator="in" result="effect1_backgroundBlur_1073_200"/><feBlend in="SourceGraphic" in2="effect1_backgroundBlur_1073_200" result="shape"/></filter></defs></svg>