<svg xmlns="http://www.w3.org/2000/svg" width="200" height="160" fill="none"><rect width="200" height="108" y="26" fill="#fff" rx="4"/><rect width="199" height="107" x=".5" y="26.5" stroke="#000" stroke-opacity=".12" rx="3.5"/><g filter="url(#a)"><rect width="182" height="90" x="9" y="35" fill="#fff" fill-opacity=".76" rx="3.008"/></g><path fill="#000" fill-opacity=".87" d="M19 40.167A5.836 5.836 0 0 0 13.167 46 5.835 5.835 0 0 0 19 51.833 5.835 5.835 0 0 0 24.833 46 5.835 5.835 0 0 0 19 40.167ZM14.333 46c0-.356.047-.706.123-1.038l2.788 2.788v.583a1.17 1.17 0 0 0 1.167 1.167v1.126A4.673 4.673 0 0 1 14.333 46Zm8.103 3.15a1.162 1.162 0 0 0-1.108-.817h-.584v-1.75a.585.585 0 0 0-.583-.583h-3.5v-1.167h1.167c.32 0 .583-.262.583-.583v-1.167h1.167a1.17 1.17 0 0 0 1.166-1.166v-.24A4.668 4.668 0 0 1 23.667 46a4.662 4.662 0 0 1-1.231 3.15ZM40.963 45.75v.547c0 .752-.098 1.426-.294 2.023a4.364 4.364 0 0 1-.84 1.525c-.36.419-.793.74-1.3.964a4.194 4.194 0 0 1-1.68.328c-.611 0-1.17-.11-1.676-.328a3.76 3.76 0 0 1-1.305-.964 4.475 4.475 0 0 1-.862-1.525c-.2-.597-.3-1.271-.3-2.023v-.547c0-.752.1-1.424.3-2.017.2-.597.483-1.105.848-1.524.37-.424.804-.745 1.306-.964a4.102 4.102 0 0 1 1.675-.335c.615 0 1.175.112 1.681.335.506.219.941.54 1.306.964.364.42.645.927.84 1.524.201.593.301 1.265.301 2.017Zm-1.715.547v-.56a5.91 5.91 0 0 0-.164-1.47c-.105-.429-.263-.787-.472-1.074a1.972 1.972 0 0 0-.759-.656c-.3-.15-.64-.225-1.019-.225-.378 0-.715.075-1.011.225-.297.146-.55.365-.759.656a3.187 3.187 0 0 0-.472 1.074 5.91 5.91 0 0 0-.164 1.47v.56c0 .556.055 1.048.164 1.476.11.429.27.791.479 1.087.214.292.47.513.765.663a2.26 2.26 0 0 0 1.012.22c.383 0 .723-.074 1.019-.22.296-.15.547-.371.752-.663.205-.296.36-.658.465-1.087.109-.428.164-.92.164-1.476Zm9.239 3.39V51h-5.51v-1.313h5.51Zm-.15-5.058L43.536 51h-1.066v-1.06l4.772-6.337h1.093v1.026Zm-.636-1.026v1.313h-5.148v-1.313h5.148Zm1.931 3.78v-.156c0-.534.078-1.028.233-1.484.155-.46.378-.859.67-1.196a3.024 3.024 0 0 1 1.08-.793 3.516 3.516 0 0 1 1.449-.287c.542 0 1.025.096 1.45.287.428.187.79.451 1.086.793.296.337.522.736.677 1.196.155.456.232.95.232 1.484v.157c0 .533-.077 1.027-.232 1.483-.155.456-.38.855-.677 1.197a3.136 3.136 0 0 1-1.08.792 3.54 3.54 0 0 1-1.442.28 3.607 3.607 0 0 1-1.456-.28 3.136 3.136 0 0 1-1.08-.793 3.551 3.551 0 0 1-.677-1.196 4.582 4.582 0 0 1-.233-1.483Zm1.648-.156v.157c0 .333.034.647.102.943a2.4 2.4 0 0 0 .322.78c.145.223.332.398.56.526.228.127.5.191.814.191.305 0 .57-.064.793-.191.227-.128.414-.303.56-.527.146-.223.253-.483.321-.779.073-.296.11-.61.11-.943v-.157c0-.329-.037-.638-.11-.93a2.387 2.387 0 0 0-.328-.786 1.57 1.57 0 0 0-.56-.534 1.543 1.543 0 0 0-.8-.198c-.31 0-.579.066-.807.198a1.587 1.587 0 0 0-.553.534c-.146.228-.253.49-.322.786a4.067 4.067 0 0 0-.102.93Zm8.494-2.044V51h-1.648v-7.397h1.552l.096 1.58Zm-.294 1.845-.533-.006a4.812 4.812 0 0 1 .218-1.443c.146-.437.347-.813.602-1.128.26-.314.57-.556.93-.724.36-.174.76-.26 1.203-.26.355 0 .677.05.964.15.291.096.54.253.745.472.21.219.369.503.478.854.11.347.164.773.164 1.279V51h-1.654v-4.785c0-.356-.052-.636-.157-.841a.88.88 0 0 0-.444-.444c-.192-.091-.431-.137-.718-.137-.283 0-.536.06-.759.178-.223.118-.412.28-.567.485-.15.205-.267.442-.349.711a2.938 2.938 0 0 0-.123.861Zm9.964 4.109a3.944 3.944 0 0 1-1.484-.267 3.274 3.274 0 0 1-1.12-.759 3.361 3.361 0 0 1-.705-1.141 3.997 3.997 0 0 1-.246-1.415v-.274c0-.578.085-1.103.253-1.572.169-.47.403-.87.704-1.203.301-.337.656-.595 1.067-.773.41-.177.854-.266 1.333-.266.528 0 .99.089 1.387.266.397.178.725.429.985.752.264.32.46.7.588 1.142.132.442.198.93.198 1.463v.704h-5.715V46.61h4.088v-.13a2.314 2.314 0 0 0-.178-.834 1.417 1.417 0 0 0-.485-.628c-.219-.16-.51-.24-.875-.24-.274 0-.517.06-.732.178-.21.114-.385.28-.526.5-.141.218-.25.482-.328.792-.073.305-.11.65-.11 1.032v.274c0 .323.044.624.13.902.091.273.224.513.397.718.173.205.383.367.629.485.246.114.526.171.84.171.397 0 .75-.08 1.06-.24.31-.159.579-.384.807-.676l.868.84c-.16.233-.367.457-.622.67-.255.21-.567.381-.937.514a3.727 3.727 0 0 1-1.271.198Z"/><path fill="#F89E0D" d="M21 96.879V114h-2.824v-13.77l-4.184 1.418v-2.332l6.668-2.437H21Zm13.64 0V114h-2.824v-13.77l-4.183 1.418v-2.332L34.3 96.88h.34Zm17.051 7.16v2.789c0 1.336-.132 2.477-.398 3.422-.258.938-.633 1.699-1.125 2.285a4.41 4.41 0 0 1-1.77 1.289c-.68.274-1.441.41-2.285.41a6.584 6.584 0 0 1-1.875-.257 4.587 4.587 0 0 1-1.547-.809 4.835 4.835 0 0 1-1.183-1.418c-.32-.586-.57-1.285-.75-2.098-.172-.812-.258-1.754-.258-2.824v-2.789c0-1.344.133-2.477.398-3.398.266-.93.645-1.684 1.137-2.262a4.33 4.33 0 0 1 1.758-1.277c.688-.266 1.453-.399 2.297-.399.68 0 1.304.086 1.875.258a4.39 4.39 0 0 1 1.547.785c.46.36.851.828 1.172 1.406.328.57.578 1.262.75 2.075.172.804.257 1.742.257 2.812Zm-2.824 3.188v-3.61c0-.679-.039-1.277-.117-1.793-.078-.523-.195-.965-.352-1.324a2.64 2.64 0 0 0-.562-.89 1.978 1.978 0 0 0-.773-.504 2.731 2.731 0 0 0-.973-.165c-.438 0-.828.086-1.172.258-.344.164-.633.43-.867.797-.235.367-.414.852-.54 1.453-.117.594-.175 1.317-.175 2.168v3.61c0 .687.039 1.293.117 1.816.078.523.195.973.352 1.348.156.367.343.671.562.914.227.234.485.406.774.515.297.11.62.164.972.164.446 0 .84-.086 1.184-.257.344-.172.633-.446.867-.821.234-.383.41-.879.527-1.488.118-.609.176-1.34.176-2.191ZM65.594 101.32h2.835V114h-2.613l-.222-2.93v-9.75Zm.41 6.785 1.113-.023c0 .891-.086 1.711-.258 2.461-.164.75-.422 1.402-.773 1.957a3.7 3.7 0 0 1-1.313 1.289c-.531.305-1.16.457-1.886.457a4.629 4.629 0 0 1-1.56-.246 3.1 3.1 0 0 1-1.194-.797c-.336-.359-.614-.828-.833-1.406l-.363-3.199h1.606c0 .703.058 1.277.175 1.722.118.446.282.789.493 1.032.21.234.457.398.738.492.289.094.602.14.938.14.617 0 1.124-.093 1.523-.281.406-.195.723-.465.95-.808.234-.352.398-.762.491-1.231.102-.476.153-.996.153-1.559Zm-8.274-6.785h2.813v17.555H57.73V101.32Zm22.125 0h2.567v12.328c0 1.141-.243 2.11-.727 2.907a4.668 4.668 0 0 1-2.027 1.816c-.868.422-1.871.633-3.012.633-.484 0-1.023-.07-1.617-.211a6.624 6.624 0 0 1-1.711-.68 4.234 4.234 0 0 1-1.371-1.207l1.324-1.664c.453.539.953.934 1.5 1.184.547.25 1.121.375 1.723.375.648 0 1.199-.121 1.652-.363.46-.235.816-.583 1.066-1.043.25-.461.375-1.024.375-1.688v-9.516l.258-2.871Zm-8.613 6.481v-.246c0-.961.117-1.836.352-2.625.234-.797.57-1.481 1.007-2.051a4.39 4.39 0 0 1 1.594-1.324c.625-.313 1.332-.469 2.121-.469.82 0 1.52.148 2.098.445a3.963 3.963 0 0 1 1.465 1.278c.39.546.695 1.203.914 1.968.226.758.394 1.602.504 2.532v.785a12.674 12.674 0 0 1-.516 2.484c-.242.75-.563 1.399-.96 1.945-.4.547-.892.969-1.477 1.266-.579.297-1.262.445-2.051.445-.774 0-1.473-.16-2.098-.48a4.773 4.773 0 0 1-1.594-1.348 6.384 6.384 0 0 1-1.007-2.039 8.973 8.973 0 0 1-.352-2.566Zm2.824-.246v.246c0 .578.055 1.117.164 1.617.117.5.293.941.528 1.324.242.375.546.672.914.891.375.211.816.316 1.324.316.664 0 1.207-.14 1.629-.422.43-.281.758-.66.984-1.136a5.759 5.759 0 0 0 .492-1.618v-2.121a5.182 5.182 0 0 0-.293-1.289 3.455 3.455 0 0 0-.574-1.043 2.403 2.403 0 0 0-.914-.703c-.367-.172-.8-.258-1.3-.258-.508 0-.95.11-1.325.329a2.68 2.68 0 0 0-.926.902c-.234.383-.41.828-.527 1.336a7.239 7.239 0 0 0-.176 1.629ZM92.77 96.937l-6.644 18.528H83.91l6.656-18.528h2.203Zm4.781 6.961V114h-2.824v-12.68h2.66l.165 2.578Zm-.456 3.293-.961-.011c0-.875.109-1.684.328-2.426.218-.742.539-1.387.96-1.934a4.23 4.23 0 0 1 1.57-1.277c.634-.305 1.364-.457 2.192-.457a4.63 4.63 0 0 1 1.582.258 3.13 3.13 0 0 1 1.254.785c.36.359.633.82.821 1.383.195.562.293 1.242.293 2.039V114h-2.825v-8.203c0-.617-.093-1.102-.281-1.453a1.555 1.555 0 0 0-.785-.75c-.336-.156-.738-.235-1.207-.235-.531 0-.984.102-1.36.305a2.563 2.563 0 0 0-.902.832 3.73 3.73 0 0 0-.515 1.219c-.11.461-.164.953-.164 1.476Zm7.863-.75-1.324.293c0-.765.105-1.488.316-2.168a5.526 5.526 0 0 1 .949-1.804 4.455 4.455 0 0 1 1.559-1.231c.617-.297 1.324-.445 2.121-.445.648 0 1.226.09 1.734.269.516.172.953.446 1.313.821.359.375.633.863.82 1.465.188.593.281 1.312.281 2.156V114h-2.836v-8.215c0-.64-.093-1.137-.281-1.488-.18-.352-.437-.594-.773-.727-.336-.14-.739-.211-1.207-.211-.438 0-.825.082-1.16.246a2.31 2.31 0 0 0-.833.668 2.993 2.993 0 0 0-.515.973 4.15 4.15 0 0 0-.164 1.195Zm12.387-5.707h1.019c.336 0 .613-.046.832-.14.219-.102.383-.239.492-.41.117-.172.176-.375.176-.61a.994.994 0 0 0-.328-.738c-.211-.219-.566-.328-1.066-.328-.383 0-.708.082-.973.246-.258.156-.387.379-.387.668h-2.133c0-.555.157-1.028.469-1.418.313-.39.731-.688 1.254-.89a4.69 4.69 0 0 1 1.711-.305c.711 0 1.336.101 1.875.304.539.196.957.489 1.254.88.305.39.457.874.457 1.452 0 .446-.141.84-.422 1.184-.273.344-.656.613-1.148.809-.485.187-1.055.281-1.711.281h-1.371v-.985Zm0 1.465v-.961h1.371c.726 0 1.347.086 1.863.258.516.164.906.418 1.172.762.273.344.41.789.41 1.336 0 .578-.164 1.07-.492 1.476-.328.407-.778.715-1.348.926-.562.211-1.195.316-1.898.316a5.29 5.29 0 0 1-1.711-.281c-.547-.195-1-.5-1.36-.914-.351-.414-.527-.957-.527-1.629h2.145c0 .305.14.567.421.785.282.219.661.329 1.137.329.508 0 .883-.11 1.125-.329a1.09 1.09 0 0 0 .375-.843c0-.297-.07-.535-.211-.715a1.091 1.091 0 0 0-.574-.387 2.705 2.705 0 0 0-.879-.129h-1.019Z"/><path stroke="#000" stroke-linecap="round" stroke-opacity=".87" stroke-width="2" d="m124.76 117.148 6.202-9.061a5.683 5.683 0 0 0 .923-2.307l2.781-17.151c.523-3.228 5.165-3.228 5.688 0l.161.99c.51 3.148 5.074 3.04 5.433-.129v0c.342-3.014 4.601-3.326 5.378-.393l1.895 7.156c1.168 4.408 7.562 3.96 8.105-.567l.947-7.914c.76-6.343 9.804-6.767 11.154-.523l.966 4.471c.613 2.836 4.05 3.966 6.226 2.048v0a3.8 3.8 0 0 1 5.311.28l3.675 4"/><defs><filter id="a" width="191.023" height="99.023" x="4.489" y="30.489" color-interpolation-filters="sRGB" filterUnits="userSpaceOnUse"><feFlood flood-opacity="0" result="BackgroundImageFix"/><feGaussianBlur in="BackgroundImageFix" stdDeviation="2.256"/><feComposite in2="SourceAlpha" operator="in" result="effect1_backgroundBlur_1057_3958"/><feBlend in="SourceGraphic" in2="effect1_backgroundBlur_1057_3958" result="shape"/></filter></defs></svg>