<svg xmlns="http://www.w3.org/2000/svg" width="200" height="160" fill="none"><rect width="200" height="108" y="26" fill="#fff" rx="4"/><rect width="199" height="107" x=".5" y="26.5" stroke="#000" stroke-opacity=".12" rx="3.5"/><g filter="url(#a)"><rect width="182" height="90" x="9" y="35" fill="#fff" fill-opacity=".76" rx="3.008"/></g><path fill="#000" fill-opacity=".87" d="M22.733 46.438a1.458 1.458 0 0 0-1.458-1.459c-.309 0-.595.093-.816.257v-.111a1.458 1.458 0 1 0-2.917 0v.11a1.375 1.375 0 0 0-.817-.256 1.458 1.458 0 0 0-1.458 1.459c0 .577.344 1.079.834 1.312a1.453 1.453 0 0 0-.407 2.344c.273.273.644.427 1.031.427.31 0 .595-.1.817-.257v.111a1.458 1.458 0 0 0 2.916 0v-.11c.222.157.508.256.817.256a1.458 1.458 0 0 0 1.459-1.459c0-.583-.345-1.079-.835-1.312a1.46 1.46 0 0 0 .834-1.313ZM19 49.208a1.458 1.458 0 1 1 0-2.916 1.458 1.458 0 0 1 0 2.916Zm-.583-6.708c0-.32.262-.583.583-.583.321 0 .584.262.584.583 0 .32-.263.583-.584.583a.585.585 0 0 1-.583-.583Zm-2.334 1.167c0-.321.263-.584.584-.584.32 0 .583.263.583.584 0 .32-.262.583-.583.583a.585.585 0 0 1-.584-.583ZM14.918 42.5a.585.585 0 0 1-.583-.583c0-.321.262-.584.583-.584.32 0 .583.263.583.584 0 .32-.262.583-.583.583Zm1.75-1.75c0-.32.262-.583.583-.583.321 0 .584.262.584.583 0 .32-.263.583-.584.583a.585.585 0 0 1-.583-.583Zm3.5 0c0-.32.262-.583.583-.583.321 0 .584.262.584.583 0 .32-.263.583-.584.583a.585.585 0 0 1-.583-.583Zm3.5 1.167c0 .32-.263.583-.584.583a.585.585 0 0 1-.583-.583c0-.321.263-.584.584-.584.32 0 .583.263.583.584Zm-2.334 1.166c.321 0 .584.263.584.584 0 .32-.263.583-.584.583a.585.585 0 0 1-.583-.583c0-.321.263-.584.584-.584ZM34.859 41.047V51h-1.716v-9.953h1.716Zm6.382 1.326L38.267 51H36.47l3.746-9.953h1.149l-.123 1.326ZM43.729 51l-2.98-8.627-.13-1.326h1.155L45.534 51h-1.805Zm-.144-3.691v1.36h-5.414v-1.36h5.414Zm5.145-6.262V51h-1.716v-9.953h1.716Z"/><path fill="#7CC322" d="m16.254 106.066-2.25-.55.926-8.579h9.199v2.391h-6.856l-.468 4.184c.265-.157.633-.309 1.101-.457.469-.157 1.004-.235 1.606-.235.804 0 1.523.133 2.156.399.64.258 1.184.636 1.629 1.136.445.493.785 1.094 1.02 1.805.234.703.351 1.496.351 2.379 0 .789-.117 1.527-.352 2.215a5.159 5.159 0 0 1-1.03 1.816 4.74 4.74 0 0 1-1.747 1.231c-.695.289-1.52.433-2.473.433a6.9 6.9 0 0 1-2.05-.304 5.597 5.597 0 0 1-1.746-.926 4.717 4.717 0 0 1-1.243-1.524c-.312-.609-.492-1.308-.539-2.097h2.766c.07.555.223 1.027.457 1.418.242.383.562.676.96.879.4.203.86.304 1.384.304.476 0 .886-.082 1.23-.246.344-.172.63-.414.856-.726.234-.321.406-.696.515-1.125.117-.43.176-.907.176-1.43 0-.5-.066-.957-.2-1.371a2.974 2.974 0 0 0-.573-1.078 2.453 2.453 0 0 0-.95-.703c-.382-.172-.824-.258-1.324-.258-.672 0-1.187.098-1.547.293-.351.195-.68.437-.984.726Z"/><path stroke="#000" stroke-linecap="round" stroke-opacity=".87" stroke-width="2" d="m30.752 117.148 14.323-8.541a9.024 9.024 0 0 0 3.764-4.419l6.189-15.584c2.501-6.298 11.414-6.297 13.915 0l.694 1.748c2.424 6.103 11.215 5.632 12.973-.695v0c1.581-5.69 9.138-6.85 12.353-1.895l8.37 12.901c4.199 6.471 14.055 5.031 16.227-2.37l6.678-22.766c2.279-7.768 12.843-8.837 16.631-1.683l9.155 17.288a9.022 9.022 0 0 0 11.027 4.268l7.968-2.866a9.02 9.02 0 0 1 6.717.244l11.861 5.27"/><defs><filter id="a" width="191.023" height="99.023" x="4.489" y="30.489" color-interpolation-filters="sRGB" filterUnits="userSpaceOnUse"><feFlood flood-opacity="0" result="BackgroundImageFix"/><feGaussianBlur in="BackgroundImageFix" stdDeviation="2.256"/><feComposite in2="SourceAlpha" operator="in" result="effect1_backgroundBlur_1049_3372"/><feBlend in="SourceGraphic" in2="effect1_backgroundBlur_1049_3372" result="shape"/></filter></defs></svg>