<svg xmlns="http://www.w3.org/2000/svg" width="200" height="160" fill="none"><rect width="200" height="108" y="26" fill="#fff" rx="4"/><rect width="199" height="107" x=".5" y="26.5" stroke="#000" stroke-opacity=".12" rx="3.5"/><g filter="url(#a)"><rect width="182" height="90" x="9" y="35" fill="#fff" fill-opacity=".76" rx="3.008"/></g><path fill="#000" fill-opacity=".87" d="M19 40.167A5.835 5.835 0 0 0 13.167 46 5.835 5.835 0 0 0 19 51.833 5.835 5.835 0 0 0 24.833 46 5.835 5.835 0 0 0 19 40.167ZM14.333 46c0-.356.047-.706.123-1.038l2.788 2.788v.583a1.17 1.17 0 0 0 1.167 1.167v1.126A4.673 4.673 0 0 1 14.333 46Zm8.103 3.15a1.162 1.162 0 0 0-1.108-.817h-.584v-1.75a.585.585 0 0 0-.583-.583h-3.5v-1.167h1.167c.32 0 .583-.262.583-.583v-1.167h1.167a1.17 1.17 0 0 0 1.166-1.166v-.24A4.668 4.668 0 0 1 23.667 46a4.662 4.662 0 0 1-1.231 3.15ZM40.922 41.047V51h-1.715l-4.464-7.13V51h-1.716v-9.953h1.716l4.477 7.143v-7.143h1.702Zm3.894 2.556V51h-1.654v-7.397h1.654Zm-1.764-1.94c0-.252.082-.459.246-.623.169-.169.401-.253.698-.253.291 0 .521.084.69.253a.831.831 0 0 1 .253.622.823.823 0 0 1-.253.615c-.169.164-.399.246-.69.246-.297 0-.529-.082-.698-.246a.835.835 0 0 1-.246-.615Zm7.21 1.94v1.204h-4.17v-1.204h4.17Zm-2.968-1.811h1.648v7.164c0 .228.032.403.096.526a.512.512 0 0 0 .28.24c.118.04.257.061.417.061.114 0 .223-.007.328-.02a3.29 3.29 0 0 0 .253-.041l.007 1.258a4.212 4.212 0 0 1-.479.109 3.514 3.514 0 0 1-.615.048c-.378 0-.713-.066-1.005-.199a1.48 1.48 0 0 1-.683-.663c-.164-.305-.247-.71-.247-1.216v-7.267Zm6.143 3.22V51H51.79v-7.397h1.572l.075 1.409Zm2.263-1.456-.014 1.53a4.291 4.291 0 0 0-.67-.055c-.282.001-.53.042-.745.124a1.403 1.403 0 0 0-.54.342c-.141.146-.25.324-.328.533-.078.21-.123.445-.137.704l-.376.028c0-.465.046-.896.137-1.292.091-.397.228-.745.41-1.046.187-.301.42-.536.697-.704a1.87 1.87 0 0 1 .978-.253c.1 0 .207.009.321.027.119.018.208.039.267.062Zm.79 3.828v-.157c0-.534.077-1.028.232-1.484.155-.46.378-.859.67-1.196a3.023 3.023 0 0 1 1.08-.793 3.516 3.516 0 0 1 1.45-.287c.542 0 1.025.096 1.449.287.428.187.79.451 1.087.793.296.337.521.736.676 1.196.155.456.233.95.233 1.484v.157c0 .533-.078 1.027-.233 1.483-.155.456-.38.855-.676 1.197a3.135 3.135 0 0 1-1.08.792 3.54 3.54 0 0 1-1.443.28 3.607 3.607 0 0 1-1.456-.28 3.136 3.136 0 0 1-1.08-.793 3.55 3.55 0 0 1-.677-1.196 4.579 4.579 0 0 1-.232-1.483Zm1.647-.157v.157c0 .333.034.647.103.943a2.4 2.4 0 0 0 .321.78c.146.223.333.398.56.526.228.127.5.191.814.191.305 0 .57-.064.793-.191.228-.128.415-.303.56-.527a2.4 2.4 0 0 0 .322-.779c.073-.296.11-.61.11-.943v-.157c0-.329-.037-.638-.11-.93a2.39 2.39 0 0 0-.328-.786 1.568 1.568 0 0 0-.56-.534 1.543 1.543 0 0 0-.8-.198c-.31 0-.58.066-.807.198a1.588 1.588 0 0 0-.554.534c-.146.228-.253.49-.321.786a4.067 4.067 0 0 0-.103.93Zm11.598-3.623h1.497v7.19c0 .666-.141 1.231-.424 1.696a2.724 2.724 0 0 1-1.183 1.06c-.505.246-1.091.369-1.756.369-.283 0-.597-.041-.944-.123a3.865 3.865 0 0 1-.998-.397 2.474 2.474 0 0 1-.8-.704l.773-.97c.264.314.556.544.875.69.319.146.654.219 1.005.219.378 0 .7-.07.964-.212.269-.137.476-.34.622-.608.146-.27.219-.597.219-.985v-5.55l.15-1.676Zm-5.025 3.78v-.144c0-.56.069-1.07.206-1.531.136-.465.332-.864.587-1.196.256-.337.566-.595.93-.773a2.729 2.729 0 0 1 1.237-.273c.479 0 .887.086 1.224.26.342.173.627.421.855.745.227.319.405.701.533 1.148.132.442.23.934.294 1.477v.458a7.4 7.4 0 0 1-.301 1.449 4 4 0 0 1-.56 1.135c-.233.319-.52.565-.862.738-.337.173-.736.26-1.196.26-.451 0-.86-.094-1.224-.28a2.784 2.784 0 0 1-.93-.787 3.723 3.723 0 0 1-.588-1.19 5.238 5.238 0 0 1-.205-1.496Zm1.648-.144v.144c0 .337.032.651.096.943.068.292.17.55.307.773.142.218.32.392.533.52.22.122.477.184.773.184.387 0 .704-.082.95-.246.25-.164.442-.386.574-.663.137-.283.233-.598.287-.944v-1.237a3.018 3.018 0 0 0-.17-.752 2.013 2.013 0 0 0-.335-.609 1.4 1.4 0 0 0-.534-.41c-.214-.1-.467-.15-.758-.15-.297 0-.554.064-.773.191a1.568 1.568 0 0 0-.54.527c-.137.223-.24.483-.308.779a4.222 4.222 0 0 0-.102.95Zm10.094 3.897a3.943 3.943 0 0 1-1.484-.267 3.275 3.275 0 0 1-1.12-.759 3.361 3.361 0 0 1-.705-1.141 3.997 3.997 0 0 1-.246-1.415v-.274c0-.578.084-1.103.253-1.572.168-.47.403-.87.704-1.203.3-.337.656-.595 1.066-.773.41-.177.855-.266 1.333-.266.53 0 .992.089 1.388.266.397.178.725.429.984.752.265.32.46.7.588 1.142.133.442.199.93.199 1.463v.704h-5.715V46.61h4.088v-.13a2.312 2.312 0 0 0-.178-.834 1.417 1.417 0 0 0-.485-.628c-.22-.16-.51-.24-.875-.24-.274 0-.518.06-.732.178-.21.114-.385.28-.526.5-.142.218-.25.482-.328.792-.073.305-.11.65-.11 1.032v.274c0 .323.044.624.13.902.091.273.224.513.397.718.173.205.382.367.629.485.246.114.526.171.84.171.397 0 .75-.08 1.06-.24.31-.159.579-.384.807-.676l.868.84c-.16.233-.367.457-.622.67-.255.21-.568.381-.937.514a3.726 3.726 0 0 1-1.271.198Zm6.129-5.954V51h-1.648v-7.397h1.552l.096 1.58Zm-.294 1.845-.534-.006a4.812 4.812 0 0 1 .22-1.443c.145-.437.346-.813.6-1.128.26-.314.57-.556.93-.724a2.74 2.74 0 0 1 1.204-.26c.355 0 .676.05.963.15.292.096.54.253.745.472.21.219.37.503.479.854.11.347.164.773.164 1.279V51h-1.654v-4.785c0-.356-.053-.636-.157-.841a.88.88 0 0 0-.445-.444c-.191-.091-.43-.137-.718-.137-.282 0-.535.06-.758.178-.224.118-.413.28-.568.485-.15.205-.266.442-.348.711a2.935 2.935 0 0 0-.123.861Zm14.95 2.44V40.5h1.655V51h-1.497l-.157-1.531Zm-4.812-2.084v-.144c0-.56.066-1.07.199-1.531.132-.465.323-.864.574-1.196.25-.337.556-.595.916-.773.36-.182.765-.273 1.217-.273.446 0 .838.086 1.175.26.338.173.625.421.862.745.237.319.426.701.567 1.148.141.442.242.934.3 1.477v.458a7.4 7.4 0 0 1-.3 1.449c-.141.437-.33.816-.567 1.135a2.453 2.453 0 0 1-.868.738c-.338.173-.732.26-1.183.26-.447 0-.85-.094-1.21-.28a2.674 2.674 0 0 1-.91-.787 3.701 3.701 0 0 1-.573-1.19 5.409 5.409 0 0 1-.199-1.496Zm1.648-.144v.144c0 .337.03.651.089.943.063.292.161.55.294.773.132.218.303.392.512.52.215.122.47.184.766.184.374 0 .681-.082.923-.246.241-.164.43-.386.567-.663a3.08 3.08 0 0 0 .287-.944v-1.237a3.018 3.018 0 0 0-.17-.752 2.013 2.013 0 0 0-.336-.609 1.412 1.412 0 0 0-.526-.41 1.65 1.65 0 0 0-.731-.15c-.301 0-.556.064-.766.191-.21.128-.383.303-.52.527a2.59 2.59 0 0 0-.294.779 4.508 4.508 0 0 0-.095.95Zm8.555-3.637V51h-1.654v-7.397h1.654Zm-1.763-1.94c0-.252.082-.459.246-.623.168-.169.401-.253.697-.253.292 0 .522.084.691.253a.833.833 0 0 1 .252.622.824.824 0 0 1-.252.615c-.169.164-.399.246-.691.246-.296 0-.529-.082-.697-.246a.835.835 0 0 1-.246-.615Zm3.504 5.72v-.156c0-.534.077-1.028.232-1.484.155-.46.378-.859.67-1.196a3.02 3.02 0 0 1 1.08-.793 3.516 3.516 0 0 1 1.449-.287c.543 0 1.026.096 1.45.287.428.187.79.451 1.086.793.297.337.522.736.677 1.196.155.456.233.95.233 1.484v.157c0 .533-.078 1.027-.233 1.483-.155.456-.38.855-.677 1.197a3.132 3.132 0 0 1-1.08.792c-.423.187-.904.28-1.442.28a3.607 3.607 0 0 1-1.456-.28 3.132 3.132 0 0 1-1.08-.793 3.555 3.555 0 0 1-.677-1.196 4.579 4.579 0 0 1-.232-1.483Zm1.647-.156v.157c0 .333.034.647.103.943.068.296.175.556.321.78.146.223.333.398.56.526.228.127.5.191.814.191.305 0 .57-.064.793-.191.228-.128.415-.303.56-.527.146-.223.253-.483.322-.779a3.93 3.93 0 0 0 .109-.943v-.157c0-.329-.036-.638-.109-.93a2.41 2.41 0 0 0-.328-.786 1.57 1.57 0 0 0-.561-.534 1.543 1.543 0 0 0-.8-.198c-.31 0-.578.066-.806.198a1.584 1.584 0 0 0-.554.534c-.146.228-.253.49-.321.786a4.028 4.028 0 0 0-.103.93Zm7.968-3.623 1.408 2.454 1.436-2.455h1.811l-2.242 3.63L118.728 51h-1.811l-1.504-2.557L113.909 51h-1.819l2.325-3.767-2.236-3.63h1.805Zm7.797 0V51h-1.655v-7.397h1.655Zm-1.764-1.942c0-.25.082-.458.246-.622.169-.169.401-.253.697-.253.292 0 .522.084.691.253a.834.834 0 0 1 .253.622.825.825 0 0 1-.253.615c-.169.164-.399.246-.691.246-.296 0-.528-.082-.697-.246a.835.835 0 0 1-.246-.615Zm8.33 7.807V40.5h1.654V51h-1.497l-.157-1.531Zm-4.812-2.085v-.144c0-.56.066-1.07.198-1.531.132-.465.323-.864.574-1.196.251-.337.556-.595.916-.773.36-.182.766-.273 1.217-.273.447 0 .838.086 1.176.26.337.173.624.421.861.745.237.319.426.701.567 1.148.142.442.242.934.301 1.477v.458a7.327 7.327 0 0 1-.301 1.449c-.141.437-.33.816-.567 1.135a2.45 2.45 0 0 1-.868.738c-.337.173-.732.26-1.183.26-.446 0-.85-.094-1.21-.28a2.68 2.68 0 0 1-.909-.787 3.69 3.69 0 0 1-.574-1.19 5.413 5.413 0 0 1-.198-1.496Zm1.647-.144v.144c0 .337.03.651.089.943.064.292.162.55.294.773.132.218.303.392.513.52.214.122.469.184.765.184.374 0 .682-.082.923-.246a1.67 1.67 0 0 0 .567-.663c.142-.283.237-.598.288-.944v-1.237a3.077 3.077 0 0 0-.171-.752 2.018 2.018 0 0 0-.335-.609 1.416 1.416 0 0 0-.527-.41c-.205-.1-.449-.15-.731-.15-.301 0-.556.064-.766.191a1.55 1.55 0 0 0-.519.527 2.6 2.6 0 0 0-.294.779 4.495 4.495 0 0 0-.096.95Zm10.053 3.897a3.95 3.95 0 0 1-1.484-.267 3.28 3.28 0 0 1-1.121-.759 3.367 3.367 0 0 1-.704-1.141 3.999 3.999 0 0 1-.246-1.415v-.274c0-.578.084-1.103.253-1.572.169-.47.403-.87.704-1.203a3.021 3.021 0 0 1 1.067-.773c.41-.177.854-.266 1.333-.266.528 0 .991.089 1.387.266.397.178.725.429.985.752.264.32.46.7.588 1.142.132.442.198.93.198 1.463v.704h-5.715V46.61h4.088v-.13a2.297 2.297 0 0 0-.178-.834 1.416 1.416 0 0 0-.485-.628c-.219-.16-.511-.24-.875-.24-.274 0-.517.06-.732.178a1.45 1.45 0 0 0-.526.5 2.621 2.621 0 0 0-.328.792 4.45 4.45 0 0 0-.11 1.032v.274c0 .323.044.624.13.902.092.273.224.513.397.718.173.205.383.367.629.485.246.114.526.171.841.171.396 0 .749-.08 1.059-.24.31-.159.579-.384.807-.676l.868.84c-.16.233-.367.457-.622.67-.255.21-.568.381-.937.514a3.722 3.722 0 0 1-1.271.198Z"/><path fill="#3B911C" d="M21 96.879V114h-2.824v-13.77l-4.184 1.418v-2.332l6.668-2.437H21Zm17.05 7.16v2.789c0 1.336-.132 2.477-.398 3.422-.258.938-.633 1.699-1.125 2.285a4.41 4.41 0 0 1-1.77 1.289c-.679.274-1.44.41-2.284.41a6.584 6.584 0 0 1-1.875-.257 4.586 4.586 0 0 1-1.547-.809 4.833 4.833 0 0 1-1.184-1.418c-.32-.586-.57-1.285-.75-2.098-.172-.812-.258-1.754-.258-2.824v-2.789c0-1.344.133-2.477.399-3.398.265-.93.644-1.684 1.137-2.262a4.33 4.33 0 0 1 1.757-1.277c.688-.266 1.453-.399 2.297-.399.68 0 1.305.086 1.875.258a4.39 4.39 0 0 1 1.547.785c.461.36.852.828 1.172 1.406.328.57.578 1.262.75 2.075.172.804.258 1.742.258 2.812Zm-2.823 3.188v-3.61c0-.679-.04-1.277-.118-1.793-.078-.523-.195-.965-.351-1.324a2.64 2.64 0 0 0-.563-.89 1.98 1.98 0 0 0-.773-.504 2.731 2.731 0 0 0-.973-.165c-.437 0-.828.086-1.172.258-.343.164-.633.43-.867.797-.234.367-.414.852-.539 1.453-.117.594-.176 1.317-.176 2.168v3.61c0 .687.04 1.293.117 1.816.079.523.196.973.352 1.348.156.367.344.671.563.914a2.1 2.1 0 0 0 .773.515c.297.11.621.164.973.164.445 0 .84-.086 1.183-.257.344-.172.633-.446.867-.821.235-.383.41-.879.528-1.488.117-.609.176-1.34.176-2.191ZM52.593 101.32h2.836V114h-2.613l-.223-2.93v-9.75Zm.41 6.785 1.114-.023c0 .891-.086 1.711-.258 2.461-.164.75-.422 1.402-.773 1.957a3.7 3.7 0 0 1-1.313 1.289c-.531.305-1.16.457-1.887.457a4.629 4.629 0 0 1-1.558-.246 3.1 3.1 0 0 1-1.195-.797c-.336-.359-.614-.828-.833-1.406l-.363-3.199h1.606c0 .703.058 1.277.175 1.722.118.446.282.789.493 1.032.21.234.457.398.738.492.289.094.602.14.938.14.617 0 1.124-.093 1.523-.281.406-.195.723-.465.95-.808.233-.352.398-.762.491-1.231.102-.476.153-.996.153-1.559Zm-8.273-6.785h2.813v17.555H44.73V101.32Zm22.125 0h2.567v12.328c0 1.141-.243 2.11-.727 2.907a4.668 4.668 0 0 1-2.027 1.816c-.868.422-1.871.633-3.012.633-.484 0-1.023-.07-1.617-.211a6.624 6.624 0 0 1-1.711-.68 4.234 4.234 0 0 1-1.371-1.207l1.324-1.664c.453.539.953.934 1.5 1.184.547.25 1.121.375 1.723.375.648 0 1.199-.121 1.652-.363.46-.235.816-.583 1.066-1.043.25-.461.375-1.024.375-1.688v-9.516l.258-2.871Zm-8.613 6.481v-.246c0-.961.117-1.836.352-2.625.234-.797.57-1.481 1.007-2.051a4.39 4.39 0 0 1 1.594-1.324c.625-.313 1.332-.469 2.121-.469.82 0 1.52.148 2.098.445a3.963 3.963 0 0 1 1.465 1.278c.39.546.695 1.203.914 1.968.226.758.394 1.602.504 2.532v.785a12.674 12.674 0 0 1-.516 2.484c-.242.75-.563 1.399-.96 1.945-.4.547-.892.969-1.477 1.266-.579.297-1.262.445-2.051.445-.774 0-1.473-.16-2.098-.48a4.773 4.773 0 0 1-1.594-1.348 6.384 6.384 0 0 1-1.008-2.039 8.973 8.973 0 0 1-.351-2.566Zm2.824-.246v.246c0 .578.055 1.117.164 1.617.117.5.293.941.528 1.324.242.375.546.672.914.891.375.211.816.316 1.324.316.664 0 1.207-.14 1.629-.422.43-.281.758-.66.984-1.136a5.759 5.759 0 0 0 .492-1.618v-2.121a5.182 5.182 0 0 0-.293-1.289 3.455 3.455 0 0 0-.574-1.043 2.403 2.403 0 0 0-.914-.703c-.367-.172-.8-.258-1.3-.258-.508 0-.95.11-1.325.329a2.68 2.68 0 0 0-.926.902c-.234.383-.41.828-.527 1.336a7.239 7.239 0 0 0-.176 1.629ZM79.77 96.937l-6.644 18.528H70.91l6.656-18.528h2.203Zm4.781 6.961V114h-2.824v-12.68h2.66l.165 2.578Zm-.456 3.293-.961-.011c0-.875.109-1.684.328-2.426.218-.742.539-1.387.96-1.934a4.23 4.23 0 0 1 1.57-1.277c.634-.305 1.364-.457 2.192-.457.578 0 1.106.086 1.582.258.485.164.903.426 1.254.785.36.359.633.82.82 1.383.196.562.294 1.242.294 2.039V114h-2.825v-8.203c0-.617-.093-1.102-.28-1.453a1.555 1.555 0 0 0-.786-.75c-.336-.156-.738-.235-1.207-.235-.531 0-.984.102-1.36.305a2.563 2.563 0 0 0-.902.832 3.73 3.73 0 0 0-.515 1.219c-.11.461-.164.953-.164 1.476Zm7.863-.75-1.324.293c0-.765.105-1.488.316-2.168a5.52 5.52 0 0 1 .95-1.804 4.45 4.45 0 0 1 1.558-1.231c.617-.297 1.324-.445 2.12-.445.65 0 1.227.09 1.735.269.516.172.953.446 1.313.821.36.375.633.863.82 1.465.188.593.281 1.312.281 2.156V114H96.89v-8.215c0-.64-.093-1.137-.28-1.488a1.458 1.458 0 0 0-.774-.727c-.336-.14-.739-.211-1.207-.211-.438 0-.825.082-1.16.246a2.31 2.31 0 0 0-.832.668 2.987 2.987 0 0 0-.516.973c-.11.367-.164.766-.164 1.195Zm12.387-5.707h1.019c.336 0 .613-.046.832-.14.219-.102.383-.239.492-.41.117-.172.176-.375.176-.61a.994.994 0 0 0-.328-.738c-.211-.219-.566-.328-1.066-.328-.383 0-.708.082-.973.246-.258.156-.387.379-.387.668h-2.133c0-.555.157-1.028.469-1.418.313-.39.731-.688 1.254-.89a4.69 4.69 0 0 1 1.711-.305c.711 0 1.336.101 1.875.304.539.196.957.489 1.254.88.305.39.457.874.457 1.452 0 .446-.141.84-.422 1.184-.273.344-.656.613-1.148.809-.485.187-1.055.281-1.711.281h-1.371v-.985Zm0 1.465v-.961h1.371c.726 0 1.347.086 1.863.258.516.164.906.418 1.172.762.273.344.41.789.41 1.336 0 .578-.164 1.07-.492 1.476-.328.407-.778.715-1.348.926-.562.211-1.195.316-1.898.316a5.29 5.29 0 0 1-1.711-.281c-.547-.195-1-.5-1.36-.914-.351-.414-.527-.957-.527-1.629h2.145c0 .305.14.567.421.785.282.219.661.329 1.137.329.508 0 .883-.11 1.125-.329a1.09 1.09 0 0 0 .375-.843c0-.297-.07-.535-.211-.715a1.091 1.091 0 0 0-.574-.387 2.705 2.705 0 0 0-.879-.129h-1.019Z"/><path stroke="#000" stroke-linecap="round" stroke-opacity=".87" stroke-width="2" d="m111.76 117.148 7.217-8.783a6.782 6.782 0 0 0 1.42-3.016l3.255-16.723c.73-3.751 6.098-3.751 6.828 0l.208 1.066c.713 3.663 6.003 3.512 6.506-.185v0c.475-3.485 5.346-3.906 6.412-.554l2.322 7.302c1.617 5.088 9.003 4.477 9.762-.807l1.107-7.694c1.057-7.357 11.458-7.936 13.325-.741l1.022 3.938c.883 3.402 4.92 4.839 7.753 2.76v0a4.972 4.972 0 0 1 6.281.324l4.427 4.014"/><defs><filter id="a" width="191.023" height="99.023" x="4.489" y="30.489" color-interpolation-filters="sRGB" filterUnits="userSpaceOnUse"><feFlood flood-opacity="0" result="BackgroundImageFix"/><feGaussianBlur in="BackgroundImageFix" stdDeviation="2.256"/><feComposite in2="SourceAlpha" operator="in" result="effect1_backgroundBlur_1062_2797"/><feBlend in="SourceGraphic" in2="effect1_backgroundBlur_1062_2797" result="shape"/></filter></defs></svg>