<svg width="200" height="160" viewBox="0 0 200 160" fill="none" xmlns="http://www.w3.org/2000/svg">
<rect width="200" height="160" rx="4" fill="white"/>
<rect x="0.5" y="0.5" width="199" height="159" rx="3.5" stroke="black" stroke-opacity="0.12"/>
<path d="M19.9999 13.3333C16.3199 13.3333 13.3333 16.32 13.3333 20C13.3333 23.68 16.3199 26.6667 19.9999 26.6667C23.6799 26.6667 26.6666 23.68 26.6666 20C26.6666 16.32 23.6799 13.3333 19.9999 13.3333ZM14.6666 20C14.6666 19.5933 14.7199 19.1933 14.8066 18.8133L17.9933 22V22.6667C17.9933 23.4 18.5933 24 19.3266 24V25.2867C16.7066 24.9533 14.6666 22.7133 14.6666 20ZM23.9266 23.6C23.7533 23.06 23.2599 22.6667 22.6599 22.6667H21.9933V20.6667C21.9933 20.3 21.6933 20 21.3266 20H17.3266V18.6667H18.6599C19.0266 18.6667 19.3266 18.3667 19.3266 18V16.6667H20.6599C21.3933 16.6667 21.9933 16.0667 21.9933 15.3333V15.06C23.9466 15.8467 25.3333 17.7667 25.3333 20C25.3333 21.3867 24.7933 22.6533 23.9266 23.6Z" fill="black" fill-opacity="0.87"/>
<path d="M38.248 22.4365C38.248 22.2314 38.2161 22.0492 38.1523 21.8896C38.0931 21.7301 37.986 21.5843 37.8311 21.4521C37.6761 21.32 37.4574 21.1924 37.1748 21.0693C36.8968 20.9417 36.5413 20.8118 36.1084 20.6797C35.6344 20.5339 35.1969 20.3721 34.7959 20.1943C34.3994 20.012 34.0531 19.8024 33.7568 19.5654C33.4606 19.3239 33.2305 19.0482 33.0664 18.7383C32.9023 18.4238 32.8203 18.0615 32.8203 17.6514C32.8203 17.2458 32.9046 16.8766 33.0732 16.5439C33.2464 16.2113 33.4902 15.9242 33.8047 15.6826C34.1237 15.4365 34.4997 15.2474 34.9326 15.1152C35.3656 14.9785 35.8441 14.9102 36.3682 14.9102C37.1064 14.9102 37.7422 15.0469 38.2754 15.3203C38.8132 15.5938 39.2256 15.9606 39.5127 16.4209C39.8044 16.8812 39.9502 17.3893 39.9502 17.9453H38.248C38.248 17.6172 38.1774 17.3278 38.0361 17.0771C37.8994 16.8219 37.6898 16.6214 37.4072 16.4756C37.1292 16.3298 36.776 16.2568 36.3477 16.2568C35.9421 16.2568 35.6048 16.3184 35.3359 16.4414C35.0671 16.5645 34.8665 16.7308 34.7344 16.9404C34.6022 17.1501 34.5361 17.387 34.5361 17.6514C34.5361 17.8382 34.5794 18.0091 34.666 18.1641C34.7526 18.3145 34.8848 18.4557 35.0625 18.5879C35.2402 18.7155 35.4635 18.8363 35.7324 18.9502C36.0013 19.0641 36.318 19.1735 36.6826 19.2783C37.234 19.4424 37.7148 19.6247 38.125 19.8252C38.5352 20.0212 38.877 20.2445 39.1504 20.4951C39.4238 20.7458 39.6289 21.0306 39.7656 21.3496C39.9023 21.6641 39.9707 22.0218 39.9707 22.4229C39.9707 22.8421 39.8864 23.2204 39.7178 23.5576C39.5492 23.8903 39.3076 24.1751 38.9932 24.4121C38.6833 24.6445 38.3096 24.8245 37.8721 24.9521C37.4391 25.0752 36.9561 25.1367 36.4229 25.1367C35.9443 25.1367 35.4727 25.0729 35.0078 24.9453C34.5475 24.8177 34.1283 24.624 33.75 24.3643C33.3717 24.0999 33.071 23.7718 32.8477 23.3799C32.6243 22.9834 32.5127 22.5208 32.5127 21.9922H34.2285C34.2285 22.3158 34.2832 22.5915 34.3926 22.8193C34.5065 23.0472 34.6637 23.234 34.8643 23.3799C35.0648 23.5212 35.2972 23.626 35.5615 23.6943C35.8304 23.7627 36.1175 23.7969 36.4229 23.7969C36.8239 23.7969 37.1589 23.7399 37.4277 23.626C37.7012 23.512 37.9062 23.3525 38.043 23.1475C38.1797 22.9424 38.248 22.7054 38.248 22.4365ZM46.0244 23.2568V17.6035H47.6787V25H46.1201L46.0244 23.2568ZM46.2568 21.7188L46.8105 21.7051C46.8105 22.2018 46.7559 22.6598 46.6465 23.0791C46.5371 23.4938 46.3685 23.8561 46.1406 24.166C45.9128 24.4714 45.6211 24.7106 45.2656 24.8838C44.9102 25.0524 44.484 25.1367 43.9873 25.1367C43.6273 25.1367 43.2969 25.0843 42.9961 24.9795C42.6953 24.8747 42.4355 24.7129 42.2168 24.4941C42.0026 24.2754 41.8363 23.9906 41.7178 23.6396C41.5993 23.2887 41.54 22.8695 41.54 22.3818V17.6035H43.1875V22.3955C43.1875 22.6644 43.2194 22.89 43.2832 23.0723C43.347 23.25 43.4336 23.3936 43.543 23.5029C43.6523 23.6123 43.7799 23.6898 43.9258 23.7354C44.0716 23.7809 44.2266 23.8037 44.3906 23.8037C44.86 23.8037 45.2292 23.7126 45.498 23.5303C45.7715 23.3434 45.9652 23.0928 46.0791 22.7783C46.1976 22.4639 46.2568 22.1107 46.2568 21.7188ZM51.3809 14.5V25H49.7266V14.5H51.3809ZM55.6641 25H54.0166V16.8926C54.0166 16.3411 54.1191 15.8786 54.3242 15.5049C54.5339 15.1266 54.8324 14.8418 55.2197 14.6504C55.6071 14.4544 56.0651 14.3564 56.5938 14.3564C56.7578 14.3564 56.9196 14.3678 57.0791 14.3906C57.2386 14.4089 57.3936 14.4385 57.5439 14.4795L57.5029 15.751C57.4118 15.7282 57.3115 15.7122 57.2021 15.7031C57.0973 15.694 56.9834 15.6895 56.8604 15.6895C56.6097 15.6895 56.3932 15.7373 56.2109 15.833C56.0332 15.9242 55.8965 16.0586 55.8008 16.2363C55.7096 16.4141 55.6641 16.6328 55.6641 16.8926V25ZM57.1885 17.6035V18.8066H52.8818V17.6035H57.1885ZM63.085 23.2568V17.6035H64.7393V25H63.1807L63.085 23.2568ZM63.3174 21.7188L63.8711 21.7051C63.8711 22.2018 63.8164 22.6598 63.707 23.0791C63.5977 23.4938 63.429 23.8561 63.2012 24.166C62.9733 24.4714 62.6816 24.7106 62.3262 24.8838C61.9707 25.0524 61.5446 25.1367 61.0479 25.1367C60.6878 25.1367 60.3574 25.0843 60.0566 24.9795C59.7559 24.8747 59.4961 24.7129 59.2773 24.4941C59.0632 24.2754 58.8968 23.9906 58.7783 23.6396C58.6598 23.2887 58.6006 22.8695 58.6006 22.3818V17.6035H60.248V22.3955C60.248 22.6644 60.2799 22.89 60.3438 23.0723C60.4076 23.25 60.4941 23.3936 60.6035 23.5029C60.7129 23.6123 60.8405 23.6898 60.9863 23.7354C61.1322 23.7809 61.2871 23.8037 61.4512 23.8037C61.9206 23.8037 62.2897 23.7126 62.5586 23.5303C62.832 23.3434 63.0257 23.0928 63.1396 22.7783C63.2581 22.4639 63.3174 22.1107 63.3174 21.7188ZM68.332 19.0117V25H66.6846V17.6035H68.2568L68.332 19.0117ZM70.5947 17.5557L70.5811 19.0869C70.4808 19.0687 70.3714 19.055 70.2529 19.0459C70.139 19.0368 70.0251 19.0322 69.9111 19.0322C69.6286 19.0322 69.3802 19.0732 69.166 19.1553C68.9518 19.2327 68.7718 19.3467 68.626 19.4971C68.4847 19.6429 68.3753 19.8206 68.2979 20.0303C68.2204 20.2399 68.1748 20.4746 68.1611 20.7344L67.7852 20.7617C67.7852 20.2969 67.8307 19.8662 67.9219 19.4697C68.013 19.0732 68.1497 18.7246 68.332 18.4238C68.5189 18.123 68.7513 17.8883 69.0293 17.7197C69.3118 17.5511 69.6377 17.4668 70.0068 17.4668C70.1071 17.4668 70.2142 17.4759 70.3281 17.4941C70.4466 17.5124 70.5355 17.5329 70.5947 17.5557ZM80.125 23.4688V14.5H81.7793V25H80.2822L80.125 23.4688ZM75.3125 21.3838V21.2402C75.3125 20.6797 75.3786 20.1693 75.5107 19.709C75.6429 19.2441 75.8343 18.8454 76.085 18.5127C76.3356 18.1755 76.641 17.918 77.001 17.7402C77.361 17.5579 77.7666 17.4668 78.2178 17.4668C78.6644 17.4668 79.0563 17.5534 79.3936 17.7266C79.7308 17.8997 80.0179 18.1481 80.2549 18.4717C80.4919 18.7907 80.681 19.1735 80.8223 19.6201C80.9635 20.0622 81.0638 20.5544 81.123 21.0967V21.5547C81.0638 22.0833 80.9635 22.5664 80.8223 23.0039C80.681 23.4414 80.4919 23.8197 80.2549 24.1387C80.0179 24.4577 79.7285 24.7038 79.3867 24.877C79.0495 25.0501 78.6553 25.1367 78.2041 25.1367C77.7575 25.1367 77.3542 25.0433 76.9941 24.8564C76.6387 24.6696 76.3356 24.4076 76.085 24.0703C75.8343 23.7331 75.6429 23.3366 75.5107 22.8809C75.3786 22.4206 75.3125 21.9215 75.3125 21.3838ZM76.96 21.2402V21.3838C76.96 21.721 76.9896 22.0355 77.0488 22.3271C77.1126 22.6188 77.2106 22.8763 77.3428 23.0996C77.4749 23.3184 77.6458 23.4915 77.8555 23.6191C78.0697 23.7422 78.3249 23.8037 78.6211 23.8037C78.9948 23.8037 79.3024 23.7217 79.5439 23.5576C79.7855 23.3936 79.9746 23.1725 80.1113 22.8945C80.2526 22.612 80.3483 22.2975 80.3984 21.9512V20.7139C80.3711 20.445 80.3141 20.1943 80.2275 19.9619C80.1455 19.7295 80.0339 19.5267 79.8926 19.3535C79.7513 19.1758 79.5758 19.0391 79.3662 18.9434C79.1611 18.8431 78.9173 18.793 78.6348 18.793C78.334 18.793 78.0788 18.8568 77.8691 18.9844C77.6595 19.112 77.4863 19.2874 77.3496 19.5107C77.2174 19.734 77.1195 19.9938 77.0557 20.29C76.9919 20.5863 76.96 20.903 76.96 21.2402ZM85.5156 17.6035V25H83.8613V17.6035H85.5156ZM83.752 15.6621C83.752 15.4115 83.834 15.2041 83.998 15.04C84.1667 14.8714 84.3991 14.7871 84.6953 14.7871C84.987 14.7871 85.2171 14.8714 85.3857 15.04C85.5544 15.2041 85.6387 15.4115 85.6387 15.6621C85.6387 15.9082 85.5544 16.1133 85.3857 16.2773C85.2171 16.4414 84.987 16.5234 84.6953 16.5234C84.3991 16.5234 84.1667 16.4414 83.998 16.2773C83.834 16.1133 83.752 15.9082 83.752 15.6621ZM87.2559 21.3838V21.2266C87.2559 20.6934 87.3333 20.1989 87.4883 19.7432C87.6432 19.2829 87.8665 18.8841 88.1582 18.5469C88.4544 18.2051 88.8145 17.9408 89.2383 17.7539C89.6667 17.5625 90.1497 17.4668 90.6875 17.4668C91.2298 17.4668 91.7129 17.5625 92.1367 17.7539C92.5651 17.9408 92.9274 18.2051 93.2236 18.5469C93.5199 18.8841 93.7454 19.2829 93.9004 19.7432C94.0553 20.1989 94.1328 20.6934 94.1328 21.2266V21.3838C94.1328 21.917 94.0553 22.4115 93.9004 22.8672C93.7454 23.3229 93.5199 23.7217 93.2236 24.0635C92.9274 24.4007 92.5674 24.665 92.1436 24.8564C91.7197 25.0433 91.2389 25.1367 90.7012 25.1367C90.1589 25.1367 89.6735 25.0433 89.2451 24.8564C88.8213 24.665 88.4613 24.4007 88.165 24.0635C87.8688 23.7217 87.6432 23.3229 87.4883 22.8672C87.3333 22.4115 87.2559 21.917 87.2559 21.3838ZM88.9033 21.2266V21.3838C88.9033 21.7165 88.9375 22.0309 89.0059 22.3271C89.0742 22.6234 89.1813 22.8831 89.3271 23.1064C89.473 23.3298 89.6598 23.5052 89.8877 23.6328C90.1156 23.7604 90.3867 23.8242 90.7012 23.8242C91.0065 23.8242 91.2708 23.7604 91.4941 23.6328C91.722 23.5052 91.9089 23.3298 92.0547 23.1064C92.2005 22.8831 92.3076 22.6234 92.376 22.3271C92.4489 22.0309 92.4854 21.7165 92.4854 21.3838V21.2266C92.4854 20.8984 92.4489 20.5885 92.376 20.2969C92.3076 20.0007 92.1982 19.7386 92.0479 19.5107C91.902 19.2829 91.7152 19.1051 91.4873 18.9775C91.264 18.8454 90.9974 18.7793 90.6875 18.7793C90.3776 18.7793 90.1087 18.8454 89.8809 18.9775C89.6576 19.1051 89.473 19.2829 89.3271 19.5107C89.1813 19.7386 89.0742 20.0007 89.0059 20.2969C88.9375 20.5885 88.9033 20.8984 88.9033 21.2266ZM96.8711 17.6035L98.2793 20.0576L99.7148 17.6035H101.526L99.2842 21.2334L101.615 25H99.8037L98.2998 22.4434L96.7959 25H94.9775L97.3018 21.2334L95.0664 17.6035H96.8711ZM104.668 17.6035V25H103.014V17.6035H104.668ZM102.904 15.6621C102.904 15.4115 102.986 15.2041 103.15 15.04C103.319 14.8714 103.551 14.7871 103.848 14.7871C104.139 14.7871 104.369 14.8714 104.538 15.04C104.707 15.2041 104.791 15.4115 104.791 15.6621C104.791 15.9082 104.707 16.1133 104.538 16.2773C104.369 16.4414 104.139 16.5234 103.848 16.5234C103.551 16.5234 103.319 16.4414 103.15 16.2773C102.986 16.1133 102.904 15.9082 102.904 15.6621ZM111.234 23.4688V14.5H112.889V25H111.392L111.234 23.4688ZM106.422 21.3838V21.2402C106.422 20.6797 106.488 20.1693 106.62 19.709C106.752 19.2441 106.944 18.8454 107.194 18.5127C107.445 18.1755 107.75 17.918 108.11 17.7402C108.47 17.5579 108.876 17.4668 109.327 17.4668C109.774 17.4668 110.166 17.5534 110.503 17.7266C110.84 17.8997 111.127 18.1481 111.364 18.4717C111.601 18.7907 111.79 19.1735 111.932 19.6201C112.073 20.0622 112.173 20.5544 112.232 21.0967V21.5547C112.173 22.0833 112.073 22.5664 111.932 23.0039C111.79 23.4414 111.601 23.8197 111.364 24.1387C111.127 24.4577 110.838 24.7038 110.496 24.877C110.159 25.0501 109.765 25.1367 109.313 25.1367C108.867 25.1367 108.464 25.0433 108.104 24.8564C107.748 24.6696 107.445 24.4076 107.194 24.0703C106.944 23.7331 106.752 23.3366 106.62 22.8809C106.488 22.4206 106.422 21.9215 106.422 21.3838ZM108.069 21.2402V21.3838C108.069 21.721 108.099 22.0355 108.158 22.3271C108.222 22.6188 108.32 22.8763 108.452 23.0996C108.584 23.3184 108.755 23.4915 108.965 23.6191C109.179 23.7422 109.434 23.8037 109.73 23.8037C110.104 23.8037 110.412 23.7217 110.653 23.5576C110.895 23.3936 111.084 23.1725 111.221 22.8945C111.362 22.612 111.458 22.2975 111.508 21.9512V20.7139C111.48 20.445 111.424 20.1943 111.337 19.9619C111.255 19.7295 111.143 19.5267 111.002 19.3535C110.861 19.1758 110.685 19.0391 110.476 18.9434C110.271 18.8431 110.027 18.793 109.744 18.793C109.443 18.793 109.188 18.8568 108.979 18.9844C108.769 19.112 108.596 19.2874 108.459 19.5107C108.327 19.734 108.229 19.9938 108.165 20.29C108.101 20.5863 108.069 20.903 108.069 21.2402ZM118.122 25.1367C117.575 25.1367 117.081 25.0479 116.639 24.8701C116.201 24.6878 115.827 24.4349 115.518 24.1113C115.212 23.7878 114.978 23.4072 114.813 22.9697C114.649 22.5322 114.567 22.0605 114.567 21.5547V21.2812C114.567 20.7025 114.652 20.1784 114.82 19.709C114.989 19.2396 115.224 18.8385 115.524 18.5059C115.825 18.1686 116.181 17.9111 116.591 17.7334C117.001 17.5557 117.445 17.4668 117.924 17.4668C118.452 17.4668 118.915 17.5557 119.312 17.7334C119.708 17.9111 120.036 18.1618 120.296 18.4854C120.56 18.8044 120.756 19.1849 120.884 19.627C121.016 20.069 121.082 20.5566 121.082 21.0898V21.7939H115.367V20.6113H119.455V20.4814C119.446 20.1852 119.387 19.9072 119.277 19.6475C119.173 19.3877 119.011 19.1781 118.792 19.0186C118.573 18.859 118.282 18.7793 117.917 18.7793C117.644 18.7793 117.4 18.8385 117.186 18.957C116.976 19.071 116.8 19.2373 116.659 19.4561C116.518 19.6748 116.409 19.9391 116.331 20.249C116.258 20.5544 116.222 20.8984 116.222 21.2812V21.5547C116.222 21.8783 116.265 22.179 116.352 22.457C116.443 22.7305 116.575 22.9697 116.748 23.1748C116.921 23.3799 117.131 23.5417 117.377 23.6602C117.623 23.7741 117.903 23.8311 118.218 23.8311C118.614 23.8311 118.967 23.7513 119.277 23.5918C119.587 23.4323 119.856 23.2067 120.084 22.915L120.952 23.7559C120.793 23.9883 120.585 24.2116 120.33 24.4258C120.075 24.6354 119.763 24.8063 119.394 24.9385C119.029 25.0706 118.605 25.1367 118.122 25.1367Z" fill="black" fill-opacity="0.87"/>
<path d="M61.3809 72.0996L58.0059 71.2734L59.3945 58.4062H73.1934V61.9922H62.9102L62.207 68.2676C62.6055 68.0332 63.1562 67.8047 63.8594 67.582C64.5625 67.3477 65.3652 67.2305 66.2676 67.2305C67.4746 67.2305 68.5527 67.4297 69.502 67.8281C70.4629 68.2148 71.2773 68.7832 71.9453 69.5332C72.6133 70.2715 73.123 71.1738 73.4746 72.2402C73.8262 73.2949 74.002 74.4844 74.002 75.8086C74.002 76.9922 73.8262 78.0996 73.4746 79.1309C73.1348 80.1621 72.6191 81.0703 71.9277 81.8555C71.2363 82.6406 70.3633 83.2559 69.3086 83.7012C68.2656 84.1348 67.0293 84.3516 65.5996 84.3516C64.5332 84.3516 63.5078 84.1992 62.5234 83.8945C61.5508 83.5781 60.6777 83.1152 59.9043 82.5059C59.1309 81.8848 58.5098 81.123 58.041 80.2207C57.5723 79.3066 57.3027 78.2578 57.2324 77.0742H61.3809C61.4863 77.9062 61.7148 78.6152 62.0664 79.2012C62.4297 79.7754 62.9102 80.2148 63.5078 80.5195C64.1055 80.8242 64.7969 80.9766 65.582 80.9766C66.2969 80.9766 66.9121 80.8535 67.4277 80.6074C67.9434 80.3496 68.3711 79.9863 68.7109 79.5176C69.0625 79.0371 69.3203 78.4746 69.4844 77.8301C69.6602 77.1855 69.748 76.4707 69.748 75.6855C69.748 74.9355 69.6484 74.25 69.4492 73.6289C69.2617 73.0078 68.9746 72.4688 68.5879 72.0117C68.2129 71.5547 67.7383 71.2031 67.1641 70.957C66.5898 70.6992 65.9277 70.5703 65.1777 70.5703C64.1699 70.5703 63.3965 70.7168 62.8574 71.0098C62.3301 71.3027 61.8379 71.666 61.3809 72.0996ZM94.5177 69.0586V73.2422C94.5177 75.2461 94.3185 76.957 93.9201 78.375C93.5334 79.7812 92.9709 80.9238 92.2326 81.8027C91.4943 82.6816 90.6095 83.3262 89.5783 83.7363C88.5588 84.1465 87.4162 84.3516 86.1505 84.3516C85.1427 84.3516 84.2052 84.2227 83.338 83.9648C82.4826 83.707 81.7091 83.3027 81.0177 82.752C80.3263 82.2012 79.7345 81.4922 79.2423 80.625C78.7619 79.7461 78.3869 78.6973 78.1173 77.4785C77.8595 76.2598 77.7306 74.8477 77.7306 73.2422V69.0586C77.7306 67.043 77.9298 65.3438 78.3283 63.9609C78.7267 62.5664 79.2951 61.4355 80.0334 60.5684C80.7716 59.6895 81.6505 59.0508 82.6701 58.6523C83.7013 58.2539 84.8498 58.0547 86.1154 58.0547C87.1349 58.0547 88.0724 58.1836 88.9279 58.4414C89.7951 58.6875 90.5685 59.0801 91.2482 59.6191C91.9396 60.1582 92.5255 60.8613 93.006 61.7285C93.4982 62.584 93.8732 63.6211 94.131 64.8398C94.3888 66.0469 94.5177 67.4531 94.5177 69.0586ZM90.2814 73.8398V68.4258C90.2814 67.4062 90.2228 66.5098 90.1056 65.7363C89.9884 64.9512 89.8127 64.2891 89.5783 63.75C89.3556 63.1992 89.0744 62.7539 88.7345 62.4141C88.3947 62.0625 88.008 61.8105 87.5744 61.6582C87.1408 61.4941 86.6545 61.4121 86.1154 61.4121C85.4591 61.4121 84.8732 61.541 84.3576 61.7988C83.842 62.0449 83.4084 62.4434 83.0568 62.9941C82.7052 63.5449 82.4357 64.2715 82.2482 65.1738C82.0724 66.0645 81.9845 67.1484 81.9845 68.4258V73.8398C81.9845 74.8711 82.0431 75.7793 82.1603 76.5645C82.2775 77.3496 82.4533 78.0234 82.6877 78.5859C82.922 79.1367 83.2033 79.5938 83.5314 79.957C83.8713 80.3086 84.258 80.5664 84.6916 80.7305C85.1369 80.8945 85.6232 80.9766 86.1505 80.9766C86.8185 80.9766 87.4103 80.8477 87.9259 80.5898C88.4416 80.332 88.8752 79.9219 89.2267 79.3594C89.5783 78.7852 89.842 78.041 90.0177 77.127C90.1935 76.2129 90.2814 75.1172 90.2814 73.8398Z" fill="#3FA71A"/>
<path d="M104.612 76.6035H105.877V84H104.735L104.612 82.291V76.6035ZM104.838 80.5615L105.31 80.5479C105.31 81.0674 105.262 81.5459 105.166 81.9834C105.075 82.4209 104.931 82.8014 104.735 83.125C104.539 83.4486 104.289 83.6992 103.983 83.877C103.678 84.0547 103.311 84.1436 102.883 84.1436C102.536 84.1436 102.227 84.098 101.953 84.0068C101.684 83.9202 101.452 83.7812 101.256 83.5898C101.064 83.3939 100.905 83.141 100.777 82.8311L100.524 80.8555H101.317C101.317 81.3249 101.356 81.7077 101.434 82.0039C101.511 82.3001 101.618 82.528 101.755 82.6875C101.896 82.847 102.058 82.9564 102.24 83.0156C102.423 83.0749 102.618 83.1045 102.828 83.1045C103.234 83.1045 103.566 83.043 103.826 82.9199C104.09 82.7923 104.296 82.6146 104.441 82.3867C104.587 82.1589 104.69 81.89 104.749 81.5801C104.808 81.2702 104.838 80.9307 104.838 80.5615ZM100.06 76.6035H101.317V86.8438H100.06V76.6035ZM112.899 76.6035H114.048V83.8428C114.048 84.4945 113.915 85.0505 113.651 85.5107C113.387 85.971 113.018 86.3197 112.544 86.5566C112.074 86.7982 111.532 86.9189 110.917 86.9189C110.662 86.9189 110.361 86.8779 110.014 86.7959C109.673 86.7184 109.335 86.584 109.003 86.3926C108.675 86.2057 108.399 85.9528 108.176 85.6338L108.839 84.8818C109.149 85.2555 109.472 85.5153 109.809 85.6611C110.151 85.807 110.488 85.8799 110.821 85.8799C111.222 85.8799 111.568 85.8047 111.86 85.6543C112.152 85.5039 112.377 85.2806 112.537 84.9844C112.701 84.6927 112.783 84.3327 112.783 83.9043V78.2305L112.899 76.6035ZM107.806 80.3838V80.2402C107.806 79.6751 107.873 79.1624 108.005 78.7021C108.141 78.2373 108.335 77.8385 108.586 77.5059C108.841 77.1732 109.149 76.918 109.509 76.7402C109.869 76.5579 110.274 76.4668 110.725 76.4668C111.19 76.4668 111.596 76.5488 111.942 76.7129C112.293 76.8724 112.589 77.1071 112.831 77.417C113.077 77.7223 113.271 78.0915 113.412 78.5244C113.553 78.9574 113.651 79.4473 113.706 79.9941V80.623C113.656 81.1654 113.558 81.653 113.412 82.0859C113.271 82.5189 113.077 82.888 112.831 83.1934C112.589 83.4987 112.293 83.7334 111.942 83.8975C111.591 84.057 111.181 84.1367 110.712 84.1367C110.27 84.1367 109.869 84.0433 109.509 83.8564C109.153 83.6696 108.848 83.4076 108.593 83.0703C108.337 82.7331 108.141 82.3366 108.005 81.8809C107.873 81.4206 107.806 80.9215 107.806 80.3838ZM109.071 80.2402V80.3838C109.071 80.7529 109.108 81.0993 109.18 81.4229C109.258 81.7464 109.374 82.0312 109.529 82.2773C109.689 82.5234 109.891 82.7171 110.137 82.8584C110.384 82.9951 110.678 83.0635 111.019 83.0635C111.439 83.0635 111.785 82.9746 112.058 82.7969C112.332 82.6191 112.548 82.3844 112.708 82.0928C112.872 81.8011 112.999 81.4844 113.091 81.1426V79.4951C113.04 79.2445 112.963 79.0029 112.858 78.7705C112.758 78.5335 112.626 78.3239 112.462 78.1416C112.302 77.9548 112.104 77.8066 111.867 77.6973C111.63 77.5879 111.352 77.5332 111.033 77.5332C110.687 77.5332 110.388 77.6061 110.137 77.752C109.891 77.8932 109.689 78.0892 109.529 78.3398C109.374 78.5859 109.258 78.873 109.18 79.2012C109.108 79.5247 109.071 79.8711 109.071 80.2402ZM120.571 74.0469L116.421 84.8545H115.335L119.491 74.0469H120.571ZM123.41 78.0732V84H122.138V76.6035H123.341L123.41 78.0732ZM123.15 80.0215L122.562 80.001C122.566 79.4951 122.633 79.028 122.76 78.5996C122.888 78.1667 123.077 77.7907 123.328 77.4717C123.578 77.1527 123.89 76.9066 124.264 76.7334C124.638 76.5557 125.071 76.4668 125.563 76.4668C125.909 76.4668 126.228 76.5169 126.52 76.6172C126.812 76.7129 127.065 76.8656 127.279 77.0752C127.493 77.2848 127.659 77.5537 127.778 77.8818C127.896 78.21 127.955 78.6064 127.955 79.0713V84H126.691V79.1328C126.691 78.7454 126.625 78.4355 126.493 78.2031C126.365 77.9707 126.183 77.8021 125.946 77.6973C125.709 77.5879 125.431 77.5332 125.112 77.5332C124.738 77.5332 124.426 77.5993 124.175 77.7314C123.925 77.8636 123.724 78.0459 123.574 78.2783C123.423 78.5107 123.314 78.7773 123.246 79.0781C123.182 79.3743 123.15 79.6888 123.15 80.0215ZM127.942 79.3242L127.094 79.584C127.099 79.1784 127.165 78.7887 127.292 78.415C127.425 78.0413 127.614 77.7087 127.86 77.417C128.11 77.1253 128.418 76.8952 128.783 76.7266C129.147 76.5534 129.564 76.4668 130.034 76.4668C130.43 76.4668 130.781 76.5192 131.086 76.624C131.396 76.7288 131.656 76.8906 131.866 77.1094C132.08 77.3236 132.242 77.5993 132.351 77.9365C132.46 78.2738 132.515 78.6748 132.515 79.1396V84H131.244V79.126C131.244 78.7113 131.177 78.39 131.045 78.1621C130.918 77.9297 130.735 77.7679 130.498 77.6768C130.266 77.5811 129.988 77.5332 129.664 77.5332C129.386 77.5332 129.14 77.5811 128.926 77.6768C128.712 77.7725 128.532 77.9046 128.386 78.0732C128.24 78.2373 128.129 78.4264 128.051 78.6406C127.978 78.8548 127.942 79.0827 127.942 79.3242ZM135.484 76.3027H136.058C136.281 76.3027 136.466 76.2708 136.612 76.207C136.757 76.1432 136.867 76.0566 136.94 75.9473C137.017 75.8333 137.056 75.7035 137.056 75.5576C137.056 75.3571 136.983 75.1885 136.837 75.0518C136.691 74.915 136.461 74.8467 136.147 74.8467C135.887 74.8467 135.67 74.9036 135.497 75.0176C135.329 75.1315 135.244 75.2865 135.244 75.4824H134.171C134.171 75.1725 134.258 74.9059 134.431 74.6826C134.604 74.4548 134.839 74.2793 135.135 74.1562C135.431 74.0332 135.762 73.9717 136.126 73.9717C136.523 73.9717 136.871 74.0309 137.172 74.1494C137.473 74.2633 137.708 74.4342 137.876 74.6621C138.045 74.89 138.129 75.1702 138.129 75.5029C138.129 75.7445 138.054 75.9678 137.904 76.1729C137.758 76.3734 137.543 76.5352 137.261 76.6582C136.983 76.7767 136.643 76.8359 136.242 76.8359H135.484V76.3027ZM135.484 77.0889V76.5557H136.242C136.698 76.5557 137.072 76.6104 137.363 76.7197C137.655 76.8291 137.872 76.9863 138.013 77.1914C138.154 77.3965 138.225 77.6449 138.225 77.9365C138.225 78.2692 138.134 78.554 137.951 78.791C137.769 79.028 137.518 79.208 137.199 79.3311C136.885 79.4541 136.529 79.5156 136.133 79.5156C135.791 79.5156 135.463 79.4609 135.149 79.3516C134.839 79.2376 134.586 79.0622 134.39 78.8252C134.194 78.5882 134.096 78.2852 134.096 77.916H135.169C135.169 78.1211 135.26 78.2943 135.443 78.4355C135.625 78.5723 135.866 78.6406 136.167 78.6406C136.486 78.6406 136.728 78.57 136.892 78.4287C137.06 78.2874 137.145 78.1051 137.145 77.8818C137.145 77.6904 137.099 77.5378 137.008 77.4238C136.921 77.3053 136.796 77.221 136.632 77.1709C136.473 77.1162 136.281 77.0889 136.058 77.0889H135.484Z" fill="#3FA71A"/>
<path d="M147.444 71.7778L154.555 71.7778L154.555 80.6667L151.004 83.3333L147.444 80.6667L147.444 71.7778Z" fill="url(#paint0_linear_1131_2779)" fill-opacity="0.3"/>
<path fill-rule="evenodd" clip-rule="evenodd" d="M150.674 83.896C150.854 84.0762 151.146 84.0762 151.326 83.896L154.555 80.6667L153.903 80.0142L152.484 81.4331C152.107 81.8106 151.461 81.5432 151.461 81.0093L151.461 77.1111L150.539 77.1111L150.539 81.0093C150.539 81.5432 149.893 81.8106 149.516 81.4331L148.097 80.0142L147.444 80.6667L150.674 83.896Z" fill="black" fill-opacity="0.87"/>
<path d="M162.568 79.793V80.918H159.469V79.793H162.568ZM167.828 75.4395V84H166.416V77.1152L164.324 77.8242V76.6582L167.658 75.4395H167.828ZM175.309 75.416H175.484V76.5703H175.385C174.881 76.5703 174.445 76.6484 174.078 76.8047C173.715 76.9609 173.416 77.1758 173.182 77.4492C172.947 77.7227 172.771 78.043 172.654 78.4102C172.541 78.7734 172.484 79.1602 172.484 79.5703V80.9121C172.484 81.252 172.521 81.5527 172.596 81.8145C172.67 82.0723 172.773 82.2891 172.906 82.4648C173.043 82.6367 173.199 82.7676 173.375 82.8574C173.551 82.9473 173.74 82.9922 173.943 82.9922C174.154 82.9922 174.346 82.9492 174.518 82.8633C174.689 82.7734 174.836 82.6504 174.957 82.4941C175.078 82.3379 175.17 82.1523 175.232 81.9375C175.295 81.7227 175.326 81.4883 175.326 81.2344C175.326 80.9922 175.295 80.7656 175.232 80.5547C175.174 80.3398 175.086 80.1523 174.969 79.9922C174.852 79.8281 174.705 79.7012 174.529 79.6113C174.357 79.5176 174.158 79.4707 173.932 79.4707C173.65 79.4707 173.395 79.5371 173.164 79.6699C172.938 79.8027 172.754 79.9766 172.613 80.1914C172.477 80.4023 172.402 80.627 172.391 80.8652L171.852 80.6895C171.883 80.3262 171.963 80 172.092 79.7109C172.225 79.4219 172.398 79.1758 172.613 78.9727C172.828 78.7695 173.076 78.6152 173.357 78.5098C173.643 78.4004 173.955 78.3457 174.295 78.3457C174.709 78.3457 175.068 78.4238 175.373 78.5801C175.678 78.7363 175.93 78.9492 176.129 79.2188C176.332 79.4844 176.482 79.7891 176.58 80.1328C176.682 80.4727 176.732 80.8281 176.732 81.1992C176.732 81.6094 176.67 81.9922 176.545 82.3477C176.42 82.6992 176.236 83.0078 175.994 83.2734C175.756 83.5391 175.465 83.7461 175.121 83.8945C174.781 84.043 174.395 84.1172 173.961 84.1172C173.504 84.1172 173.096 84.0293 172.736 83.8535C172.381 83.6777 172.078 83.4355 171.828 83.127C171.582 82.8184 171.395 82.4629 171.266 82.0605C171.137 81.6582 171.072 81.2324 171.072 80.7832V80.1973C171.072 79.5488 171.154 78.9375 171.318 78.3633C171.482 77.7852 171.734 77.2754 172.074 76.834C172.418 76.3926 172.857 76.0469 173.393 75.7969C173.928 75.543 174.566 75.416 175.309 75.416Z" fill="black" fill-opacity="0.87"/>
<path d="M178.586 77.5605V77.1094C178.586 76.7852 178.656 76.4902 178.797 76.2246C178.938 75.959 179.143 75.7461 179.412 75.5859C179.682 75.4258 180.006 75.3457 180.385 75.3457C180.775 75.3457 181.104 75.4258 181.369 75.5859C181.639 75.7461 181.844 75.959 181.984 76.2246C182.125 76.4902 182.195 76.7852 182.195 77.1094V77.5605C182.195 77.877 182.125 78.168 181.984 78.4336C181.848 78.6992 181.645 78.9121 181.375 79.0723C181.109 79.2324 180.783 79.3125 180.396 79.3125C180.014 79.3125 179.686 79.2324 179.412 79.0723C179.143 78.9121 178.938 78.6992 178.797 78.4336C178.656 78.168 178.586 77.877 178.586 77.5605ZM179.564 77.1094V77.5605C179.564 77.7168 179.594 77.8652 179.652 78.0059C179.715 78.1465 179.809 78.2598 179.934 78.3457C180.059 78.4316 180.213 78.4746 180.396 78.4746C180.584 78.4746 180.736 78.4316 180.854 78.3457C180.975 78.2598 181.064 78.1465 181.123 78.0059C181.182 77.8652 181.211 77.7168 181.211 77.5605V77.1094C181.211 76.9492 181.18 76.7988 181.117 76.6582C181.059 76.5137 180.969 76.3984 180.848 76.3125C180.727 76.2266 180.572 76.1836 180.385 76.1836C180.205 76.1836 180.053 76.2266 179.928 76.3125C179.807 76.3984 179.715 76.5137 179.652 76.6582C179.594 76.7988 179.564 76.9492 179.564 77.1094ZM182.699 82.3652V81.9082C182.699 81.5879 182.77 81.2949 182.91 81.0293C183.055 80.7637 183.262 80.5508 183.531 80.3906C183.801 80.2305 184.125 80.1504 184.504 80.1504C184.895 80.1504 185.223 80.2305 185.488 80.3906C185.758 80.5508 185.961 80.7637 186.098 81.0293C186.238 81.2949 186.309 81.5879 186.309 81.9082V82.3652C186.309 82.6855 186.238 82.9785 186.098 83.2441C185.961 83.5098 185.76 83.7227 185.494 83.8828C185.229 84.043 184.904 84.123 184.521 84.123C184.135 84.123 183.805 84.043 183.531 83.8828C183.262 83.7227 183.055 83.5098 182.91 83.2441C182.77 82.9785 182.699 82.6855 182.699 82.3652ZM183.684 81.9082V82.3652C183.684 82.5215 183.715 82.6699 183.777 82.8105C183.844 82.9512 183.939 83.0664 184.064 83.1562C184.189 83.2422 184.34 83.2852 184.516 83.2852C184.715 83.2852 184.875 83.2422 184.996 83.1562C185.117 83.0664 185.203 82.9531 185.254 82.8164C185.309 82.6758 185.336 82.5254 185.336 82.3652V81.9082C185.336 81.748 185.305 81.5977 185.242 81.457C185.184 81.3164 185.092 81.2031 184.967 81.1172C184.846 81.0312 184.691 80.9883 184.504 80.9883C184.32 80.9883 184.168 81.0312 184.047 81.1172C183.926 81.2031 183.834 81.3164 183.771 81.457C183.713 81.5977 183.684 81.748 183.684 81.9082ZM184.855 76.6875L180.689 83.3555L179.969 82.9395L184.135 76.2715L184.855 76.6875Z" fill="black" fill-opacity="0.87"/>
<g clip-path="url(#clip0_1131_2779)">
<path fill-rule="evenodd" clip-rule="evenodd" d="M188.004 124.999L12 125.001L12 124.001L188.004 123.999L188.004 124.999Z" fill="black" fill-opacity="0.12"/>
<path d="M12 133.775C13.0166 133.775 18.5098 133.775 21.2632 133.775L34.6433 143L44.9357 112.25L66.5497 134.8L90.2222 112.25L97.4269 113.275L111.836 143H126.246L138.596 116.35H147.86L157.123 102L169.474 106.1L188 116.35" stroke="black" stroke-opacity="0.87" stroke-width="1.5"/>
</g>
<defs>
<linearGradient id="paint0_linear_1131_2779" x1="150.683" y1="84.0298" x2="150.683" y2="71.7778" gradientUnits="userSpaceOnUse">
<stop offset="0" style="stop-color:#fff;stop-opacity:1" />
<stop offset="1" style="stop-color:#fff;stop-opacity:0" />
</linearGradient>
<clipPath id="clip0_1131_2779">
<rect width="176" height="60" fill="white" transform="translate(12 90)"/>
</clipPath>
</defs>
</svg>
