<svg xmlns="http://www.w3.org/2000/svg" width="200" height="160" fill="none"><rect width="200" height="160" fill="#fff" rx="4"/><rect width="199" height="159" x=".5" y=".5" stroke="#000" stroke-opacity=".12" rx="3.5"/><path fill="#3FA71A" d="M34.528 24.255c-7.22 0-13.079 5.859-13.079 13.078 0 7.22 5.86 13.079 13.079 13.079 7.22 0 13.079-5.86 13.079-13.079 0-7.22-5.86-13.078-13.08-13.078ZM24.065 37.333c0-.797.105-1.582.275-2.328l6.251 6.252v1.308a2.623 2.623 0 0 0 2.616 2.616v2.524c-5.14-.654-9.142-5.049-9.142-10.372Zm18.166 7.063c-.34-1.06-1.308-1.831-2.485-1.831h-1.308V38.64c0-.72-.588-1.308-1.307-1.308h-7.848v-2.615H31.9c.72 0 1.308-.589 1.308-1.308v-2.616h2.616a2.623 2.623 0 0 0 2.615-2.616v-.536c3.832 1.543 6.553 5.31 6.553 9.691 0 2.72-1.06 5.206-2.76 7.063Z"/><path fill="#000" fill-opacity=".87" d="M62.302 32.453c0-.19-.03-.36-.09-.508a.992.992 0 0 0-.297-.406 2.465 2.465 0 0 0-.61-.356 8.087 8.087 0 0 0-.99-.361c-.44-.136-.846-.286-1.219-.451a4.637 4.637 0 0 1-.965-.584 2.5 2.5 0 0 1-.64-.768 2.151 2.151 0 0 1-.23-1.01c0-.376.079-.719.236-1.028.16-.309.387-.575.679-.8a3.247 3.247 0 0 1 1.047-.526 4.41 4.41 0 0 1 1.333-.19c.686 0 1.276.126 1.771.38.5.254.883.595 1.15 1.022.27.427.405.9.405 1.415h-1.58c0-.304-.066-.573-.197-.806a1.334 1.334 0 0 0-.584-.558c-.258-.136-.586-.203-.984-.203-.377 0-.69.057-.94.171-.249.114-.435.269-.558.463a1.211 1.211 0 0 0-.184.66c0 .174.04.333.12.477.081.14.204.27.369.393.165.119.372.23.622.337.25.105.544.207.882.304.512.153.959.322 1.34.508.38.182.698.39.952.622.254.233.444.497.57.794.128.292.191.624.191.996 0 .39-.078.74-.235 1.054-.156.309-.38.573-.672.793a3.22 3.22 0 0 1-1.041.502 4.92 4.92 0 0 1-1.346.171c-.444 0-.882-.059-1.314-.178a3.876 3.876 0 0 1-1.168-.539 2.79 2.79 0 0 1-.838-.914c-.207-.368-.31-.798-.31-1.289h1.592c0 .3.051.557.153.768.105.212.252.386.438.52.186.132.402.23.647.293.25.063.516.095.8.095.372 0 .683-.053.933-.159a1.23 1.23 0 0 0 .571-.444c.127-.19.19-.41.19-.66Zm7.238.762v-5.25h1.537v6.868h-1.448l-.089-1.618Zm.216-1.429.514-.012c0 .461-.05.886-.152 1.276a2.959 2.959 0 0 1-.47 1.009 2.197 2.197 0 0 1-.812.666c-.33.157-.726.235-1.187.235-.334 0-.641-.048-.92-.146a1.888 1.888 0 0 1-.724-.45 2.05 2.05 0 0 1-.463-.794c-.11-.326-.166-.715-.166-1.168v-4.437h1.53v4.45c0 .25.03.459.09.628.058.165.139.299.24.4.102.102.22.174.356.216.135.042.28.063.431.063.436 0 .78-.084 1.029-.253.254-.174.433-.407.54-.699.11-.292.164-.62.164-.984Zm4.776-6.703v9.75h-1.536v-9.75h1.536Zm3.995 9.75h-1.53v-7.528c0-.512.096-.942.286-1.289.195-.35.472-.615.832-.793.36-.182.785-.273 1.276-.273.152 0 .302.01.45.032.148.017.292.044.432.082l-.038 1.18a1.768 1.768 0 0 0-.28-.043 3.666 3.666 0 0 0-.317-.013 1.28 1.28 0 0 0-.603.133.88.88 0 0 0-.38.375 1.326 1.326 0 0 0-.128.609v7.528Zm1.416-6.868v1.117h-4v-1.117h4Zm5.493 5.25v-5.25h1.536v6.868h-1.447l-.089-1.618Zm.216-1.429.514-.012c0 .461-.05.886-.152 1.276a2.959 2.959 0 0 1-.47 1.009 2.196 2.196 0 0 1-.813.666c-.33.157-.725.235-1.187.235-.334 0-.64-.048-.92-.146a1.888 1.888 0 0 1-.724-.45 2.05 2.05 0 0 1-.463-.794c-.11-.326-.165-.715-.165-1.168v-4.437h1.53v4.45c0 .25.03.459.089.628.059.165.14.299.24.4.102.102.22.174.356.216.136.042.28.063.432.063.436 0 .779-.084 1.028-.253.254-.174.434-.407.54-.699.11-.292.165-.62.165-.984Zm4.674-2.513v5.56h-1.53v-6.868h1.46l.07 1.308Zm2.101-1.352-.012 1.422a3.962 3.962 0 0 0-.622-.05c-.263-.001-.494.037-.692.113a1.304 1.304 0 0 0-.502.317c-.131.136-.233.3-.305.496a2.216 2.216 0 0 0-.126.653l-.35.026c0-.432.043-.832.127-1.2.085-.368.212-.692.381-.971.174-.28.39-.497.648-.654.262-.157.565-.235.907-.235.093 0 .193.009.299.026.11.017.192.036.247.057Zm8.885 5.49v-8.328h1.537v9.75h-1.391l-.146-1.422Zm-4.468-1.936v-.133c0-.52.061-.994.184-1.422.123-.431.3-.802.533-1.11.233-.314.516-.553.85-.718.335-.17.712-.254 1.13-.254.415 0 .779.08 1.092.241.313.161.58.392.8.692.22.296.396.652.527 1.067.131.41.224.867.279 1.37v.426c-.055.491-.148.94-.279 1.346a3.611 3.611 0 0 1-.527 1.053 2.28 2.28 0 0 1-.806.686c-.313.16-.68.241-1.098.241-.415 0-.79-.087-1.124-.26a2.484 2.484 0 0 1-.844-.73 3.439 3.439 0 0 1-.533-1.105 5.02 5.02 0 0 1-.184-1.39Zm1.53-.133v.133c0 .314.027.605.082.876.06.271.15.51.273.718.123.203.281.364.476.482.199.114.436.171.711.171.347 0 .633-.076.857-.228.224-.152.4-.358.527-.616a2.85 2.85 0 0 0 .266-.876v-1.149a2.806 2.806 0 0 0-.158-.698 1.87 1.87 0 0 0-.311-.565 1.315 1.315 0 0 0-.489-.38 1.534 1.534 0 0 0-.68-.14c-.279 0-.516.059-.71.177a1.441 1.441 0 0 0-.483.49 2.403 2.403 0 0 0-.273.723c-.059.275-.088.569-.088.882Zm7.962-3.377v6.868H104.8v-6.868h1.536Zm-1.638-1.803a.78.78 0 0 1 .229-.577c.156-.157.372-.235.647-.235.271 0 .485.078.641.235a.77.77 0 0 1 .235.577.763.763 0 0 1-.235.572c-.156.152-.37.228-.641.228-.275 0-.491-.076-.647-.228a.773.773 0 0 1-.229-.572Zm3.272 5.313v-.146c0-.495.072-.954.216-1.377.143-.427.351-.798.622-1.11a2.803 2.803 0 0 1 1.003-.737 3.26 3.26 0 0 1 1.345-.267c.504 0 .952.09 1.346.267a2.79 2.79 0 0 1 1.009.736c.275.313.485.684.629 1.111.144.423.215.882.215 1.377v.146c0 .495-.071.955-.215 1.378a3.3 3.3 0 0 1-.629 1.11 2.907 2.907 0 0 1-1.003.737c-.393.173-.84.26-1.339.26a3.35 3.35 0 0 1-1.352-.26 2.907 2.907 0 0 1-1.003-.736 3.281 3.281 0 0 1-.628-1.111 4.25 4.25 0 0 1-.216-1.378Zm1.53-.146v.146c0 .31.031.601.095.876.063.275.163.517.298.724.135.207.309.37.521.489.211.118.463.178.755.178.283 0 .529-.06.736-.178.212-.119.385-.282.521-.489.135-.207.235-.449.298-.724a3.64 3.64 0 0 0 .102-.876v-.146c0-.304-.034-.592-.102-.863a2.201 2.201 0 0 0-.305-.73 1.45 1.45 0 0 0-1.263-.68c-.288 0-.537.062-.749.185a1.474 1.474 0 0 0-.514.495 2.302 2.302 0 0 0-.298.73c-.064.271-.095.559-.095.863Zm7.416-3.364 1.308 2.279 1.333-2.279h1.682l-2.082 3.37 2.164 3.498h-1.682l-1.396-2.374-1.397 2.374h-1.688l2.158-3.497-2.076-3.37h1.676Zm7.258 0v6.868h-1.536v-6.868h1.536Zm-1.638-1.803a.78.78 0 0 1 .229-.577c.156-.157.372-.235.647-.235.271 0 .485.078.641.235a.77.77 0 0 1 .235.577.763.763 0 0 1-.235.572c-.156.152-.37.228-.641.228-.275 0-.491-.076-.647-.228a.773.773 0 0 1-.229-.572Zm7.753 7.25v-8.329h1.536v9.75h-1.39l-.146-1.422Zm-4.469-1.937v-.133c0-.52.062-.994.184-1.422.123-.431.301-.802.534-1.11.232-.314.516-.553.85-.718.334-.17.711-.254 1.13-.254.415 0 .779.08 1.092.241.313.161.58.392.8.692.22.296.395.652.527 1.067.131.41.224.867.279 1.37v.426c-.055.491-.148.94-.279 1.346a3.636 3.636 0 0 1-.527 1.053 2.28 2.28 0 0 1-.806.686c-.314.16-.68.241-1.099.241-.414 0-.789-.087-1.123-.26a2.476 2.476 0 0 1-.844-.73 3.438 3.438 0 0 1-.534-1.105 5.047 5.047 0 0 1-.184-1.39Zm1.53-.133v.133c0 .314.028.605.083.876.059.271.15.51.273.718.122.203.281.364.476.482.199.114.436.171.711.171.347 0 .632-.076.857-.228a1.56 1.56 0 0 0 .526-.616c.132-.262.22-.554.267-.876v-1.149a2.762 2.762 0 0 0-.159-.698 1.87 1.87 0 0 0-.311-.565 1.307 1.307 0 0 0-.489-.38 1.528 1.528 0 0 0-.679-.14c-.279 0-.516.059-.711.177a1.447 1.447 0 0 0-.482.49 2.392 2.392 0 0 0-.273.723 4.2 4.2 0 0 0-.089.882Zm9.353 3.618c-.508 0-.967-.082-1.378-.247a3.046 3.046 0 0 1-1.041-.705 3.142 3.142 0 0 1-.654-1.06 3.72 3.72 0 0 1-.228-1.314v-.254c0-.537.078-1.024.235-1.46.156-.436.374-.808.654-1.117.279-.313.609-.552.99-.717a3.077 3.077 0 0 1 1.238-.248c.49 0 .92.083 1.288.248.368.165.673.398.914.698.246.296.428.65.546 1.06.123.41.184.863.184 1.358v.654h-5.306v-1.098h3.795v-.12a2.129 2.129 0 0 0-.165-.775 1.313 1.313 0 0 0-.45-.584c-.203-.148-.474-.222-.813-.222-.254 0-.48.055-.679.165a1.34 1.34 0 0 0-.489.463 2.42 2.42 0 0 0-.304.737 4.12 4.12 0 0 0-.102.958v.254c0 .3.04.58.121.838.084.254.207.476.368.666.161.19.355.341.584.451.228.106.489.159.781.159.368 0 .696-.074.983-.222.288-.148.538-.358.749-.629l.807.781a3.17 3.17 0 0 1-.578.622 2.89 2.89 0 0 1-.87.476 3.456 3.456 0 0 1-1.18.184Z"/><path fill="#000" fill-opacity=".38" d="M61.374 50.918v.915h-3.361v-.915h3.36Zm-3.04-5.78v6.695H57.18V45.14h1.155Zm6.822 5.698v-2.373c0-.178-.032-.331-.096-.46a.677.677 0 0 0-.294-.299 1.006 1.006 0 0 0-.488-.105c-.18 0-.337.03-.469.092a.758.758 0 0 0-.308.248.599.599 0 0 0-.11.354h-1.104c0-.196.048-.386.143-.57.095-.184.233-.348.414-.492.18-.144.397-.258.648-.34.251-.083.533-.125.846-.125.374 0 .705.063.993.189.291.126.52.316.685.57.169.251.253.567.253.947v2.212c0 .227.015.43.046.611.034.178.081.333.143.465v.073h-1.136a1.965 1.965 0 0 1-.124-.455 3.729 3.729 0 0 1-.041-.542Zm.161-2.028.01.685h-.796c-.205 0-.386.02-.542.06a1.115 1.115 0 0 0-.391.165.718.718 0 0 0-.313.621c0 .132.03.253.092.363.061.108.15.192.267.253.12.061.263.092.432.092.227 0 .425-.046.593-.138a1.22 1.22 0 0 0 .405-.345.75.75 0 0 0 .156-.39l.359.491c-.037.126-.1.261-.189.405a1.959 1.959 0 0 1-.35.414 1.735 1.735 0 0 1-1.19.441c-.325 0-.615-.064-.87-.193a1.546 1.546 0 0 1-.597-.529 1.371 1.371 0 0 1-.216-.758c0-.264.049-.497.147-.7a1.37 1.37 0 0 1 .442-.514c.196-.138.435-.242.717-.313.282-.073.604-.11.965-.11h.87Zm5.098 1.678c0-.11-.028-.21-.083-.299-.055-.092-.16-.174-.317-.248a3.078 3.078 0 0 0-.68-.202 5.864 5.864 0 0 1-.727-.207 2.305 2.305 0 0 1-.56-.3 1.259 1.259 0 0 1-.364-.413 1.146 1.146 0 0 1-.129-.552c0-.202.044-.394.133-.575.09-.18.216-.34.382-.478.166-.138.366-.246.602-.326.24-.08.506-.12.8-.12.417 0 .774.07 1.072.212.3.138.53.326.69.565.159.236.239.503.239.8h-1.109a.707.707 0 0 0-.1-.367.705.705 0 0 0-.295-.28 1.01 1.01 0 0 0-.497-.111c-.19 0-.347.03-.473.092a.648.648 0 0 0-.276.23.587.587 0 0 0-.041.538.53.53 0 0 0 .165.179c.077.052.181.101.313.147.135.046.303.09.506.133.38.08.706.183.979.308.276.123.487.282.634.479.148.193.221.438.221.735 0 .221-.047.423-.142.607-.092.181-.227.339-.405.474a2.03 2.03 0 0 1-.64.308c-.244.074-.52.11-.827.11-.45 0-.832-.08-1.145-.239a1.826 1.826 0 0 1-.712-.62 1.47 1.47 0 0 1-.24-.791h1.072a.83.83 0 0 0 .17.492c.104.12.233.206.386.262.157.052.318.078.483.078.2 0 .366-.026.501-.078a.721.721 0 0 0 .308-.221.527.527 0 0 0 .106-.322Zm4.532-3.628v.81h-2.805v-.81h2.805Zm-1.995-1.218h1.108v4.819c0 .153.021.27.064.354.046.08.109.133.189.16.08.028.173.042.28.042a2.209 2.209 0 0 0 .39-.041l.005.846c-.091.027-.199.052-.321.073-.12.021-.258.032-.414.032-.255 0-.48-.044-.676-.133a.995.995 0 0 1-.46-.446c-.11-.205-.165-.478-.165-.818V45.64Zm8.58 5.02v-3.802h1.114v4.975h-1.049l-.064-1.172Zm.157-1.034.373-.009c0 .334-.037.642-.11.924a2.143 2.143 0 0 1-.34.731c-.154.206-.35.367-.59.483a1.99 1.99 0 0 1-.86.17c-.241 0-.464-.035-.666-.105a1.367 1.367 0 0 1-.524-.327 1.486 1.486 0 0 1-.336-.575 2.655 2.655 0 0 1-.12-.846v-3.214h1.109v3.224c0 .18.021.332.064.455a.77.77 0 0 0 .175.29c.073.073.16.125.257.156.099.03.203.046.313.046.316 0 .564-.062.745-.184.184-.126.314-.294.39-.506.08-.212.12-.45.12-.713Zm3.401-1.811v5.931h-1.108v-6.888h1.02l.088.957Zm3.242 1.485v.096c0 .362-.043.698-.129 1.007a2.46 2.46 0 0 1-.372.805 1.715 1.715 0 0 1-.603.529c-.239.125-.515.188-.827.188-.31 0-.581-.056-.814-.17a1.667 1.667 0 0 1-.584-.492 2.669 2.669 0 0 1-.386-.745 4.78 4.78 0 0 1-.203-.947V49.2c.04-.365.108-.696.203-.993a2.69 2.69 0 0 1 .386-.768c.16-.215.354-.38.584-.497.23-.116.498-.175.804-.175.313 0 .59.062.833.184.242.12.446.291.611.515.166.22.29.488.373.8.082.31.124.655.124 1.035Zm-1.108.096V49.3c0-.23-.022-.443-.065-.64-.043-.198-.11-.373-.202-.523a.99.99 0 0 0-.354-.35.964.964 0 0 0-.51-.129c-.197 0-.365.034-.506.102a.97.97 0 0 0-.354.27 1.282 1.282 0 0 0-.22.41c-.053.153-.09.32-.111.501v.892c.037.22.1.423.188.607.09.184.215.331.377.442.166.107.377.16.635.16.199 0 .37-.043.51-.128.141-.086.256-.204.345-.354.092-.154.16-.33.202-.53.043-.198.065-.41.065-.634Zm5.281 1.407v-6.032h1.113v7.062h-1.007l-.106-1.03Zm-3.237-1.402v-.097c0-.377.045-.72.134-1.03.088-.312.217-.58.386-.804.168-.227.374-.4.616-.52.242-.122.515-.184.818-.184.3 0 .564.059.791.175.227.116.42.284.58.501a2.6 2.6 0 0 1 .381.773c.095.297.163.628.203.993v.308c-.04.355-.108.68-.203.975a2.62 2.62 0 0 1-.381.763c-.16.215-.354.38-.584.497a1.719 1.719 0 0 1-.796.174c-.3 0-.572-.063-.814-.188a1.799 1.799 0 0 1-.611-.529 2.489 2.489 0 0 1-.386-.8 3.636 3.636 0 0 1-.134-1.007Zm1.108-.097v.097c0 .227.02.438.06.634.043.197.109.37.198.52.089.147.204.264.345.35.144.082.316.124.515.124.251 0 .458-.056.62-.166.163-.11.29-.259.382-.446.095-.19.16-.401.193-.634v-.833a2.03 2.03 0 0 0-.115-.505 1.35 1.35 0 0 0-.225-.41.948.948 0 0 0-.354-.275 1.11 1.11 0 0 0-.492-.102.973.973 0 0 0-.515.13 1.043 1.043 0 0 0-.35.353c-.088.15-.154.325-.197.524-.043.2-.065.413-.065.64Zm7.402 1.532v-2.373c0-.178-.033-.331-.097-.46a.677.677 0 0 0-.294-.299 1.007 1.007 0 0 0-.488-.105c-.18 0-.337.03-.469.092a.759.759 0 0 0-.308.248.6.6 0 0 0-.11.354h-1.103c0-.196.047-.386.142-.57.095-.184.233-.348.414-.492.18-.144.397-.258.648-.34.252-.083.534-.125.846-.125.374 0 .705.063.993.189.291.126.52.316.685.57.169.251.253.567.253.947v2.212c0 .227.016.43.046.611.034.178.081.333.143.465v.073h-1.136a1.96 1.96 0 0 1-.124-.455 3.715 3.715 0 0 1-.041-.542Zm.16-2.028.01.685h-.796c-.205 0-.386.02-.542.06a1.116 1.116 0 0 0-.391.165.72.72 0 0 0-.313.621c0 .132.03.253.092.363.061.108.15.192.267.253.12.061.263.092.432.092.227 0 .425-.046.593-.138.172-.095.307-.21.405-.345a.75.75 0 0 0 .156-.39l.359.491c-.037.126-.1.261-.189.405a1.961 1.961 0 0 1-.35.414 1.736 1.736 0 0 1-1.19.441c-.325 0-.615-.064-.869-.193a1.546 1.546 0 0 1-.598-.529 1.372 1.372 0 0 1-.216-.758c0-.264.05-.497.147-.7.101-.204.249-.376.442-.514.196-.138.435-.242.717-.313.282-.073.604-.11.966-.11h.869Zm4.588-1.95v.81h-2.805v-.81h2.805Zm-1.996-1.218h1.108v4.819c0 .153.022.27.065.354.046.08.109.133.188.16a.86.86 0 0 0 .281.042 2.21 2.21 0 0 0 .391-.041l.004.846a2.82 2.82 0 0 1-.322.073 2.362 2.362 0 0 1-.414.032c-.254 0-.479-.044-.675-.133a.99.99 0 0 1-.46-.446c-.111-.205-.166-.478-.166-.818V45.64Zm5.24 6.285c-.367 0-.7-.06-.997-.179a2.193 2.193 0 0 1-.754-.51 2.249 2.249 0 0 1-.474-.768 2.697 2.697 0 0 1-.166-.952v-.184c0-.39.057-.742.171-1.057.113-.316.271-.586.473-.81.203-.227.442-.4.717-.52.276-.119.575-.179.897-.179.356 0 .667.06.933.18.267.12.488.288.663.505.177.215.309.471.395.768.089.298.133.626.133.984v.474h-3.844v-.796h2.75v-.087a1.544 1.544 0 0 0-.12-.56.95.95 0 0 0-.326-.424c-.147-.107-.343-.16-.589-.16a.998.998 0 0 0-.491.119.975.975 0 0 0-.355.335 1.764 1.764 0 0 0-.22.534 2.999 2.999 0 0 0-.074.694v.184c0 .218.029.42.088.607.061.184.15.345.266.483.117.138.258.246.423.326.166.077.354.115.566.115.266 0 .504-.054.712-.16.209-.108.39-.26.543-.456l.584.566a2.287 2.287 0 0 1-.418.45 2.103 2.103 0 0 1-.63.345 2.513 2.513 0 0 1-.856.133Zm8.554-6.81v6.718h-1.108v-5.402l-1.641.556v-.915l2.616-.956h.133Zm5.622 5.688v-6.032h1.113v7.062h-1.007l-.106-1.03Zm-3.237-1.402v-.097c0-.377.044-.72.133-1.03a2.42 2.42 0 0 1 .387-.804c.168-.227.374-.4.616-.52.242-.122.515-.184.818-.184.301 0 .564.059.791.175.227.116.42.284.579.501.16.215.287.472.382.773.095.297.162.628.202.993v.308c-.04.355-.107.68-.202.975a2.603 2.603 0 0 1-.382.763c-.159.215-.354.38-.584.497a1.716 1.716 0 0 1-.795.174c-.3 0-.572-.063-.814-.188a1.794 1.794 0 0 1-.611-.529 2.484 2.484 0 0 1-.387-.8 3.632 3.632 0 0 1-.133-1.007Zm1.108-.097v.097c0 .227.02.438.06.634.043.197.109.37.198.52.089.147.203.264.344.35.145.082.316.124.515.124.252 0 .459-.056.621-.166.163-.11.29-.259.382-.446a2.08 2.08 0 0 0 .193-.634v-.833a2.025 2.025 0 0 0-.115-.505 1.35 1.35 0 0 0-.225-.41.948.948 0 0 0-.354-.275 1.11 1.11 0 0 0-.492-.102.971.971 0 0 0-.515.13 1.046 1.046 0 0 0-.35.353c-.089.15-.155.325-.197.524-.043.2-.065.413-.065.64Zm9.943 1.532v-2.373c0-.178-.033-.331-.097-.46a.678.678 0 0 0-.294-.299 1.01 1.01 0 0 0-.488-.105c-.181 0-.337.03-.469.092a.76.76 0 0 0-.308.248.603.603 0 0 0-.11.354h-1.104c0-.196.048-.386.143-.57.095-.184.233-.348.414-.492a2.07 2.07 0 0 1 .648-.34c.251-.083.533-.125.846-.125.374 0 .705.063.993.189.291.126.52.316.685.57.169.251.253.567.253.947v2.212c0 .227.016.43.046.611.034.178.081.333.143.465v.073h-1.136a1.986 1.986 0 0 1-.124-.455 3.659 3.659 0 0 1-.041-.542Zm.16-2.028.01.685h-.796c-.205 0-.386.02-.542.06a1.11 1.11 0 0 0-.391.165.722.722 0 0 0-.235.267.782.782 0 0 0-.078.354c0 .132.031.253.092.363a.64.64 0 0 0 .267.253.934.934 0 0 0 .432.092 1.217 1.217 0 0 0 .998-.483.75.75 0 0 0 .156-.39l.359.491c-.037.126-.1.261-.189.405a1.962 1.962 0 0 1-.349.414 1.73 1.73 0 0 1-1.191.441c-.325 0-.615-.064-.869-.193a1.542 1.542 0 0 1-.598-.529 1.372 1.372 0 0 1-.216-.758c0-.264.049-.497.147-.7.101-.204.248-.376.442-.514.196-.138.435-.242.717-.313.282-.073.604-.11.965-.11h.869Zm5.494-1.95h1.006v4.837c0 .448-.095.828-.285 1.14-.19.313-.455.55-.795.713a2.771 2.771 0 0 1-2.488-.101 1.68 1.68 0 0 1-.538-.473l.52-.653c.178.211.374.366.589.464.214.098.439.147.675.147.255 0 .471-.047.649-.142a.961.961 0 0 0 .418-.41c.098-.18.147-.401.147-.662v-3.733l.102-1.127Zm-3.38 2.543v-.097c0-.377.046-.72.138-1.03a2.45 2.45 0 0 1 .395-.804c.172-.227.38-.4.626-.52.245-.122.522-.184.832-.184.322 0 .596.059.823.175.23.116.421.284.575.501.153.215.273.472.358.773.089.297.155.628.198.993v.308c-.04.355-.107.68-.202.975a2.697 2.697 0 0 1-.377.763c-.157.215-.35.38-.58.497a1.737 1.737 0 0 1-.804.174c-.304 0-.578-.063-.823-.188a1.88 1.88 0 0 1-.626-.529 2.517 2.517 0 0 1-.395-.8 3.52 3.52 0 0 1-.138-1.007Zm1.108-.097v.097c0 .227.022.438.064.634.046.197.115.37.207.52.095.147.215.264.359.35.147.082.32.124.52.124.26 0 .473-.056.639-.166.168-.11.297-.259.386-.446.092-.19.156-.401.193-.634v-.833a2.025 2.025 0 0 0-.115-.505 1.35 1.35 0 0 0-.225-.41.942.942 0 0 0-.359-.275 1.193 1.193 0 0 0-.51-.102c-.199 0-.373.043-.52.13a1.055 1.055 0 0 0-.363.353 1.75 1.75 0 0 0-.207.524c-.046.2-.069.413-.069.64Zm4.413.097v-.106c0-.358.052-.691.156-.998.104-.31.254-.577.451-.804a2.03 2.03 0 0 1 .726-.534c.288-.128.613-.193.975-.193.365 0 .69.065.975.194.288.125.531.303.731.533.199.227.351.495.455.804.104.307.156.64.156.998v.106c0 .359-.052.691-.156.998a2.387 2.387 0 0 1-.455.804 2.12 2.12 0 0 1-.727.534 2.381 2.381 0 0 1-.97.188c-.365 0-.691-.063-.979-.188a2.11 2.11 0 0 1-.727-.534 2.387 2.387 0 0 1-.455-.804 3.086 3.086 0 0 1-.156-.998Zm1.108-.106v.106c0 .224.023.435.069.634.046.2.118.375.216.525.098.15.224.268.377.354.153.085.336.128.547.128.205 0 .383-.043.533-.128.154-.086.279-.204.377-.354.098-.15.171-.325.217-.525.049-.199.073-.41.073-.634v-.106c0-.22-.024-.429-.073-.625-.046-.2-.12-.376-.221-.529a1.057 1.057 0 0 0-.915-.492c-.209 0-.389.045-.543.133-.15.086-.274.206-.372.36-.098.152-.17.329-.216.528a2.733 2.733 0 0 0-.069.625Z"/><path fill="#3FA71A" d="m46.174 98.578-2.625-.643 1.08-10.008H55.36v2.79h-7.998l-.547 4.88c.31-.182.739-.36 1.285-.533.547-.182 1.172-.274 1.873-.274.94 0 1.778.155 2.516.465.748.301 1.381.743 1.9 1.326.52.575.917 1.276 1.19 2.106.273.82.41 1.745.41 2.775 0 .921-.137 1.782-.41 2.584a6.013 6.013 0 0 1-1.203 2.119c-.538.611-1.217 1.09-2.037 1.436-.811.337-1.773.506-2.885.506-.83 0-1.627-.119-2.393-.356a6.518 6.518 0 0 1-2.037-1.08 5.503 5.503 0 0 1-1.449-1.777c-.364-.711-.574-1.527-.629-2.447h3.227c.082.647.26 1.198.533 1.654.282.447.656.788 1.121 1.025.465.237 1.003.356 1.613.356.556 0 1.035-.096 1.436-.287.4-.201.734-.483.998-.848a3.77 3.77 0 0 0 .602-1.313 6.329 6.329 0 0 0 .205-1.667c0-.584-.078-1.117-.233-1.6a3.475 3.475 0 0 0-.67-1.258 2.866 2.866 0 0 0-1.107-.82c-.447-.2-.962-.301-1.545-.301-.784 0-1.386.114-1.805.342-.41.228-.793.51-1.148.847Zm25.703-2.366v3.254c0 1.559-.155 2.889-.465 3.992-.3 1.094-.738 1.983-1.313 2.666a5.147 5.147 0 0 1-2.064 1.504c-.793.319-1.682.479-2.666.479a7.662 7.662 0 0 1-2.187-.301 5.358 5.358 0 0 1-1.805-.943c-.538-.429-.998-.98-1.381-1.655-.374-.683-.665-1.499-.875-2.447-.2-.948-.3-2.046-.3-3.295v-3.254c0-1.568.154-2.89.464-3.965.31-1.084.752-1.964 1.326-2.638a5.051 5.051 0 0 1 2.051-1.49c.802-.31 1.695-.465 2.68-.465.793 0 1.522.1 2.187.3a5.122 5.122 0 0 1 1.805.916c.538.42.993.967 1.367 1.641.383.665.675 1.472.875 2.42.2.939.3 2.032.3 3.281Zm-3.295 3.719V95.72c0-.793-.046-1.49-.137-2.092-.09-.61-.228-1.125-.41-1.545-.173-.428-.392-.774-.656-1.039a2.309 2.309 0 0 0-.903-.588 3.187 3.187 0 0 0-1.134-.191c-.51 0-.966.1-1.367.3-.401.192-.739.502-1.012.93-.274.429-.483.994-.63 1.696-.136.692-.204 1.535-.204 2.529v4.211c0 .802.045 1.508.137 2.119.09.611.227 1.135.41 1.572.182.429.4.784.656 1.067.264.273.565.474.902.601a3.25 3.25 0 0 0 1.135.192c.52 0 .98-.101 1.38-.301.402-.201.74-.52 1.013-.957.273-.447.478-1.025.615-1.736.137-.711.205-1.564.205-2.557Zm23.16-6.89h3.309v14.792H92l-.259-3.418V93.04Zm.479 7.915 1.298-.027c0 1.039-.1 1.996-.3 2.871-.192.875-.492 1.636-.903 2.283a4.313 4.313 0 0 1-1.53 1.504c-.62.356-1.354.533-2.202.533-.675 0-1.28-.095-1.819-.287a3.607 3.607 0 0 1-1.394-.929c-.392-.42-.715-.967-.97-1.641l-.424-3.732h1.873c0 .82.068 1.49.205 2.009.136.52.328.921.574 1.203.246.274.533.465.861.575.337.109.702.164 1.094.164.72 0 1.312-.11 1.777-.328a2.686 2.686 0 0 0 1.108-.944c.273-.41.465-.888.574-1.435a8.728 8.728 0 0 0 .178-1.819Zm-9.653-7.916h3.282v20.481h-3.282v-20.48Zm25.813 0h2.994v14.383c0 1.331-.283 2.461-.848 3.391a5.45 5.45 0 0 1-2.365 2.119c-1.012.492-2.183.738-3.514.738a8.248 8.248 0 0 1-1.886-.246 7.707 7.707 0 0 1-1.996-.793 4.949 4.949 0 0 1-1.6-1.408l1.545-1.941c.529.628 1.112 1.089 1.75 1.38a4.775 4.775 0 0 0 2.01.438c.756 0 1.399-.141 1.927-.424a2.863 2.863 0 0 0 1.245-1.217c.291-.537.437-1.194.437-1.968V96.39l.301-3.35Zm-10.049 7.561v-.287c0-1.121.137-2.142.41-3.063.273-.93.665-1.727 1.176-2.392a5.127 5.127 0 0 1 1.859-1.545c.729-.365 1.554-.547 2.475-.547.957 0 1.773.173 2.447.52a4.622 4.622 0 0 1 1.709 1.49c.456.638.811 1.403 1.067 2.296.264.885.46 1.869.587 2.954v.916a14.798 14.798 0 0 1-.601 2.898c-.283.875-.656 1.632-1.121 2.27a4.779 4.779 0 0 1-1.723 1.476c-.674.347-1.472.52-2.392.52-.903 0-1.719-.187-2.448-.561a5.562 5.562 0 0 1-1.86-1.572c-.51-.675-.901-1.468-1.175-2.379a10.48 10.48 0 0 1-.41-2.994Zm3.295-.287v.287c0 .674.064 1.303.191 1.887.137.583.342 1.098.616 1.545.282.437.638.783 1.066 1.039.437.246.952.369 1.545.369.775 0 1.408-.164 1.9-.492a3.195 3.195 0 0 0 1.149-1.327 6.713 6.713 0 0 0 .574-1.886v-2.475a6.065 6.065 0 0 0-.342-1.504 4.014 4.014 0 0 0-.67-1.217 2.795 2.795 0 0 0-1.066-.82c-.429-.2-.934-.3-1.518-.3-.592 0-1.107.127-1.545.382a3.146 3.146 0 0 0-1.08 1.053 5.223 5.223 0 0 0-.615 1.558 8.42 8.42 0 0 0-.205 1.901Zm21.82-12.387-7.752 21.615h-2.584l7.766-21.615h2.57Zm5.578 8.121v11.785h-3.295V93.04h3.104l.191 3.008Zm-.533 3.842-1.121-.014c0-1.02.128-1.964.383-2.83.255-.866.629-1.618 1.121-2.256a4.928 4.928 0 0 1 1.832-1.49c.738-.355 1.59-.533 2.557-.533.674 0 1.289.1 1.845.3a3.658 3.658 0 0 1 1.463.917c.419.419.738.957.957 1.613.228.656.342 1.45.342 2.379v9.857h-3.295v-9.57c0-.72-.109-1.285-.328-1.695a1.82 1.82 0 0 0-.916-.875c-.392-.183-.861-.274-1.408-.274-.62 0-1.149.119-1.586.356-.429.237-.779.56-1.053.97-.273.41-.474.884-.601 1.422a7.424 7.424 0 0 0-.192 1.723Zm9.174-.875-1.545.342c0-.894.123-1.737.369-2.53a6.445 6.445 0 0 1 1.108-2.105 5.194 5.194 0 0 1 1.818-1.436c.72-.346 1.545-.52 2.475-.52.756 0 1.431.106 2.023.315.602.2 1.112.52 1.531.957.42.438.739 1.008.957 1.71.219.692.328 1.53.328 2.515v9.57h-3.308v-9.584c0-.747-.11-1.326-.328-1.736-.21-.41-.511-.693-.903-.848-.392-.164-.861-.246-1.408-.246-.51 0-.961.096-1.353.287a2.681 2.681 0 0 0-.971.78 3.484 3.484 0 0 0-.602 1.134 4.888 4.888 0 0 0-.191 1.395Zm14.451-6.658h1.19c.391 0 .715-.055.97-.164.255-.119.447-.278.574-.479.137-.2.206-.437.206-.71 0-.329-.128-.616-.383-.862-.246-.255-.661-.383-1.244-.383-.447 0-.825.096-1.135.287-.301.182-.451.442-.451.78h-2.489c0-.648.183-1.2.547-1.655.365-.456.852-.802 1.463-1.039a5.474 5.474 0 0 1 1.996-.355c.83 0 1.559.118 2.188.355.629.228 1.116.57 1.463 1.025.355.456.533 1.021.533 1.696 0 .52-.164.98-.492 1.38-.319.402-.766.716-1.34.944-.565.219-1.231.328-1.996.328h-1.6v-1.148Zm0 1.709v-1.121h1.6c.847 0 1.572.1 2.174.3.601.192 1.057.488 1.367.89.319.4.478.92.478 1.558 0 .674-.191 1.248-.574 1.722-.383.474-.907.834-1.572 1.08-.656.246-1.395.37-2.215.37-.684 0-1.349-.11-1.996-.329a3.706 3.706 0 0 1-1.586-1.066c-.41-.483-.615-1.117-.615-1.9h2.502c0 .355.164.66.492.916.328.255.77.382 1.326.382.592 0 1.03-.127 1.312-.382.292-.265.438-.593.438-.985 0-.346-.082-.624-.246-.834a1.275 1.275 0 0 0-.67-.45c-.292-.101-.634-.151-1.025-.151h-1.19Z"/></svg>