<svg width="24" height="24" viewBox="0 0 24 24" fill="none" xmlns="http://www.w3.org/2000/svg">
    <path fill="#fff" fill-rule="evenodd" clip-rule="evenodd" d="M17.3333 0L19.3333 1.99659L16.6587 4.66667L19.321 7.33342L22 4.65891L24 6.6555L21.3174 9.33342L23.9795 12L21.3378 14.6463L24 17.304L22 19.3006L19.3411 16.6462L16.679 19.313L19.3334 21.9627L17.3334 23.9592L14.6825 21.313L12 24L9.3175 21.313L6.66664 23.9592L4.66664 21.9627L7.32093 19.313L4.65874 16.6461L2 19.3003L0 17.3037L2.66216 14.6461L0.0205379 12L2.68254 9.33342L1.42663e-05 6.65549L2.00002 4.6589L4.67912 7.33342L7.3412 4.6668L4.66664 1.99682L6.66664 0.000222277L9.33778 2.6668L12 0L14.6621 2.66667L17.3333 0ZM12 3.99328L14 5.98987L6.00002 13.9762L4.00002 11.9796L12 3.99328ZM13.677 8.32958L15.677 10.3262L9.0103 16.9814L7.0103 14.9849L13.677 8.32958ZM16.6666 15.3072L14.6666 13.3106L9.99995 17.9693L12 19.9659L16.6666 15.3072Z"/>
</svg>
