<svg width="273" height="232" viewBox="0 0 273 232" fill="none" xmlns="http://www.w3.org/2000/svg">
    <g clip-path="url(#clip0_13971_2617)">
        <path fill-rule="evenodd" clip-rule="evenodd" d="M83.5113 38.3627V0.779785L84.8398 0.779785V38.3627H83.5113Z" fill="#91A3BE"/>
        <path d="M83.5117 37.9788C96.3059 37.9788 108.975 40.4988 120.795 45.3949C132.615 50.291 143.355 57.4674 152.402 66.5142C161.449 75.561 168.625 86.3012 173.522 98.1215C178.418 109.942 180.938 122.611 180.938 135.405H179.61C179.61 122.785 177.125 110.289 172.295 98.6295C167.466 86.9703 160.387 76.3765 151.464 67.4529C142.54 58.5293 131.946 51.4508 120.287 46.6214C108.628 41.792 96.1316 39.3063 83.5117 39.3063V37.9788Z" fill="#91A3BE"/>
        <path fill-rule="evenodd" clip-rule="evenodd" d="M179.608 134.962L252.234 134.962L252.234 136.291L179.608 136.291L179.608 134.962Z" fill="#91A3BE"/>
        <path d="M262.421 146.033C256.551 146.033 251.792 141.274 251.792 135.405C251.792 129.535 256.551 124.776 262.421 124.776C268.29 124.776 273.049 129.535 273.049 135.405C273.049 141.274 268.29 146.033 262.421 146.033Z" fill="#F4F8FE"/>
        <path fill-rule="evenodd" clip-rule="evenodd" d="M253.121 135.405C253.121 140.541 257.284 144.704 262.421 144.704C267.557 144.704 271.72 140.541 271.72 135.405C271.72 130.269 267.557 126.105 262.421 126.105C257.284 126.105 253.121 130.269 253.121 135.405ZM251.792 135.405C251.792 141.274 256.551 146.033 262.421 146.033C268.29 146.033 273.049 141.274 273.049 135.405C273.049 129.535 268.29 124.776 262.421 124.776C256.551 124.776 251.792 129.535 251.792 135.405Z" fill="#91A3BE"/>
        <rect x="166.101" y="52.8142" width="164.698" height="164.698" rx="82.3489" transform="rotate(90 166.101 52.8142)" stroke="#91A3BE" stroke-width="1.32854"/>
        <g clip-path="url(#clip1_13971_2617)">
            <path d="M72.5399 173.201H114.382V118.362C97.4655 101.445 70.0391 101.445 53.123 118.362V166.319" stroke="#305680" stroke-width="3.52174" stroke-miterlimit="10" stroke-linecap="round" stroke-linejoin="round"/>
            <path d="M53.8916 119.222H76.6534" stroke="#305680" stroke-width="3.52174" stroke-miterlimit="10" stroke-linecap="round" stroke-linejoin="round"/>
            <path d="M90.8918 119.222H113.654" stroke="#305680" stroke-width="3.52174" stroke-miterlimit="10" stroke-linecap="round" stroke-linejoin="round"/>
            <path d="M108.677 173.201H102.348V139.197H108.677V173.201Z" stroke="#305680" stroke-width="3.52174" stroke-miterlimit="10" stroke-linecap="round" stroke-linejoin="round"/>
            <path d="M110.166 151.011H122.492V173.022" stroke="#305680" stroke-width="3.52174" stroke-miterlimit="10" stroke-linecap="round" stroke-linejoin="round"/>
            <path d="M62.6224 163.283C59.5315 163.283 56.7749 164.7 54.956 166.916C54.0297 166.464 52.9351 166.2 51.8353 166.2C47.9688 166.2 44.8345 169.334 44.8345 173.201H72.5401C72.5401 167.723 68.0998 163.283 62.6224 163.283Z" stroke="#305680" stroke-width="3.52174" stroke-miterlimit="10" stroke-linecap="round" stroke-linejoin="round"/>
            <path d="M83.7524 146.789V159.24" stroke="#305680" stroke-width="3.52174" stroke-miterlimit="10" stroke-linecap="round" stroke-linejoin="round"/>
            <path d="M93.8775 152.339H90.728C86.8837 152.339 83.7671 155.456 83.7671 159.3V162.45H86.9166C90.7611 162.45 93.8775 159.333 93.8775 155.489V152.339Z" stroke="#305680" stroke-width="3.52174" stroke-miterlimit="10" stroke-linecap="round" stroke-linejoin="round"/>
            <path d="M73.6274 152.339H76.7769C80.6213 152.339 83.7379 155.456 83.7379 159.3V162.45H80.5884C76.7439 162.45 73.6274 159.333 73.6274 155.489V152.339Z" stroke="#305680" stroke-width="3.52174" stroke-miterlimit="10" stroke-linecap="round" stroke-linejoin="round"/>
            <path d="M93.8775 142.754H90.728C86.8837 142.754 83.7671 145.871 83.7671 149.715V152.865H86.9166C90.7611 152.865 93.8775 149.748 93.8775 145.904V142.754Z" stroke="#305680" stroke-width="3.52174" stroke-miterlimit="10" stroke-linecap="round" stroke-linejoin="round"/>
            <path d="M73.6274 142.754H76.7769C80.6213 142.754 83.7379 145.871 83.7379 149.715V152.865H80.5884C76.7439 152.865 73.6274 149.748 73.6274 145.904V142.754Z" stroke="#305680" stroke-width="3.52174" stroke-miterlimit="10" stroke-linecap="round" stroke-linejoin="round"/>
            <path d="M83.7671 132.472V128.12" stroke="#305680" stroke-width="3.52174" stroke-miterlimit="10" stroke-linecap="round" stroke-linejoin="round"/>
            <path d="M73.6274 142.926V134.137" stroke="#305680" stroke-width="3.52174" stroke-miterlimit="10" stroke-linecap="round" stroke-linejoin="round"/>
            <path d="M93.8774 142.926V134.137" stroke="#305680" stroke-width="3.52174" stroke-miterlimit="10" stroke-linecap="round" stroke-linejoin="round"/>
            <path d="M83.7526 132.491L82.4381 133.805C79.2156 137.028 79.2156 142.252 82.4381 145.475L83.7526 146.789L85.0671 145.475C88.2895 142.252 88.2895 137.028 85.0671 133.805L83.7526 132.491Z" stroke="#305680" stroke-width="3.52174" stroke-miterlimit="10" stroke-linecap="round" stroke-linejoin="round"/>
            <circle cx="83.7523" cy="119.315" r="1.76087" fill="#305680"/>
        </g>
    </g>
    <defs>
        <clipPath id="clip0_13971_2617">
            <rect width="232" height="273" fill="white" transform="matrix(0 1 -1 0 273 0)"/>
        </clipPath>
        <clipPath id="clip1_13971_2617">
            <rect width="81" height="81" fill="white" transform="translate(43.2524 94.6631)"/>
        </clipPath>
    </defs>
</svg>
