<svg width="246" height="308" viewBox="0 0 246 308" fill="none" xmlns="http://www.w3.org/2000/svg">
    <path fill-rule="evenodd" clip-rule="evenodd" d="M42.4334 214H0V212.5H42.4334V214Z" fill="#91A3BE"/>
    <path d="M42 214C42 199.555 44.8452 185.251 50.3732 171.905C55.9013 158.559 64.0038 146.433 74.2183 136.218C84.4327 126.004 96.559 117.901 109.905 112.373C123.251 106.845 137.555 104 152 104V105.499C137.751 105.499 123.642 108.305 110.478 113.758C97.3144 119.211 85.3533 127.203 75.2781 137.278C65.2028 147.353 57.2107 159.314 51.758 172.478C46.3053 185.642 43.4988 199.751 43.4988 214H42Z" fill="#91A3BE"/>
    <path fill-rule="evenodd" clip-rule="evenodd" d="M151.5 105.5L151.5 23.5L153 23.5L153 105.5L151.5 105.5Z" fill="#91A3BE"/>
    <path d="M164 12C164 18.6274 158.627 24 152 24C145.373 24 140 18.6274 140 12C140 5.37258 145.373 0 152 0C158.627 0 164 5.37258 164 12Z" fill="#F4F8FE"/>
    <path fill-rule="evenodd" clip-rule="evenodd" d="M152 22.5C157.799 22.5 162.5 17.799 162.5 12C162.5 6.20101 157.799 1.5 152 1.5C146.201 1.5 141.5 6.20101 141.5 12C141.5 17.799 146.201 22.5 152 22.5ZM152 24C158.627 24 164 18.6274 164 12C164 5.37258 158.627 0 152 0C145.373 0 140 5.37258 140 12C140 18.6274 145.373 24 152 24Z" fill="#91A3BE"/>
    <rect x="58.75" y="120.75" width="186.5" height="186.5" rx="93.25" stroke="#91A3BE" stroke-width="1.5"/>
    <g clip-path="url(#clip0_13906_685)">
        <path d="M139.265 257.203H186.789V194.917C167.576 175.703 136.425 175.703 117.211 194.917V249.387" stroke="#305680" stroke-width="4" stroke-miterlimit="10" stroke-linecap="round" stroke-linejoin="round"/>
        <path d="M118.084 195.894H143.937" stroke="#305680" stroke-width="4" stroke-miterlimit="10" stroke-linecap="round" stroke-linejoin="round"/>
        <path d="M160.109 195.894H185.962" stroke="#305680" stroke-width="4" stroke-miterlimit="10" stroke-linecap="round" stroke-linejoin="round"/>
        <path d="M180.309 257.203H173.121V218.582H180.309V257.203Z" stroke="#305680" stroke-width="4" stroke-miterlimit="10" stroke-linecap="round" stroke-linejoin="round"/>
        <path d="M182 232H196V257" stroke="#305680" stroke-width="4" stroke-miterlimit="10" stroke-linecap="round" stroke-linejoin="round"/>
        <path d="M128.001 245.939C124.49 245.939 121.359 247.548 119.293 250.065C118.241 249.552 116.998 249.252 115.749 249.252C111.357 249.252 107.797 252.812 107.797 257.203H139.265C139.265 250.982 134.222 245.939 128.001 245.939Z" stroke="#305680" stroke-width="4" stroke-miterlimit="10" stroke-linecap="round" stroke-linejoin="round"/>
        <path d="M152 227.205V241.347" stroke="#305680" stroke-width="4" stroke-miterlimit="10" stroke-linecap="round" stroke-linejoin="round"/>
        <path d="M163.5 233.509H159.923C155.556 233.509 152.017 237.048 152.017 241.415V244.992H155.594C159.96 244.992 163.5 241.452 163.5 237.086V233.509Z" stroke="#305680" stroke-width="4" stroke-miterlimit="10" stroke-linecap="round" stroke-linejoin="round"/>
        <path d="M140.5 233.509H144.077C148.444 233.509 151.983 237.048 151.983 241.415V244.992H148.406C144.04 244.992 140.5 241.452 140.5 237.086V233.509Z" stroke="#305680" stroke-width="4" stroke-miterlimit="10" stroke-linecap="round" stroke-linejoin="round"/>
        <path d="M163.5 222.622H159.923C155.556 222.622 152.017 226.162 152.017 230.528V234.105H155.594C159.96 234.105 163.5 230.566 163.5 226.199V222.622Z" stroke="#305680" stroke-width="4" stroke-miterlimit="10" stroke-linecap="round" stroke-linejoin="round"/>
        <path d="M140.5 222.622H144.077C148.444 222.622 151.983 226.162 151.983 230.528V234.105H148.406C144.04 234.105 140.5 230.566 140.5 226.199V222.622Z" stroke="#305680" stroke-width="4" stroke-miterlimit="10" stroke-linecap="round" stroke-linejoin="round"/>
        <path d="M152.017 210.943V206" stroke="#305680" stroke-width="4" stroke-miterlimit="10" stroke-linecap="round" stroke-linejoin="round"/>
        <path d="M140.5 222.817V212.835" stroke="#305680" stroke-width="4" stroke-miterlimit="10" stroke-linecap="round" stroke-linejoin="round"/>
        <path d="M163.5 222.817V212.835" stroke="#305680" stroke-width="4" stroke-miterlimit="10" stroke-linecap="round" stroke-linejoin="round"/>
        <path d="M152 210.965L150.507 212.458C146.847 216.118 146.847 222.052 150.507 225.712L152 227.205L153.493 225.712C157.153 222.052 157.153 216.118 153.493 212.458L152 210.965Z" stroke="#305680" stroke-width="4" stroke-miterlimit="10" stroke-linecap="round" stroke-linejoin="round"/>
        <circle cx="152" cy="196" r="2" fill="#305680"/>
    </g>
    <defs>
        <clipPath id="clip0_13906_685">
            <rect width="92" height="92" fill="white" transform="translate(106 168)"/>
        </clipPath>
    </defs>
</svg>
