<svg width="262" height="308" viewBox="0 0 246 308" fill="none" xmlns="http://www.w3.org/2000/svg">
    <path fill-rule="evenodd" clip-rule="evenodd" d="M42.4334 94H0V95.5H42.4334V94Z" fill="#3E9AF8"/>
    <path d="M42 94C42 108.445 44.8452 122.749 50.3732 136.095C55.9013 149.441 64.0038 161.567 74.2183 171.782C84.4327 181.996 96.559 190.099 109.905 195.627C123.251 201.155 137.555 204 152 204V202.501C137.751 202.501 123.642 199.695 110.478 194.242C97.3144 188.789 85.3533 180.797 75.2781 170.722C65.2028 160.647 57.2107 148.686 51.758 135.522C46.3053 122.358 43.4988 108.249 43.4988 94H42Z" fill="#3E9AF8"/>
    <path fill-rule="evenodd" clip-rule="evenodd" d="M151.5 202.5L151.5 284.5L153 284.5L153 202.5L151.5 202.5Z" fill="#3E9AF8"/>
    <path d="M164 296C164 289.373 158.627 284 152 284C145.373 284 140 289.373 140 296C140 302.627 145.373 308 152 308C158.627 308 164 302.627 164 296Z" fill="#F4F8FE"/>
    <path fill-rule="evenodd" clip-rule="evenodd" d="M152 285.5C157.799 285.5 162.5 290.201 162.5 296C162.5 301.799 157.799 306.5 152 306.5C146.201 306.5 141.5 301.799 141.5 296C141.5 290.201 146.201 285.5 152 285.5ZM152 284C158.627 284 164 289.373 164 296C164 302.627 158.627 308 152 308C145.373 308 140 302.627 140 296C140 289.373 145.373 284 152 284Z" fill="#3E9AF8"/>
    <rect x="0.75" y="-0.75" width="186.5" height="186.5" rx="93.25" transform="matrix(1 0 0 -1 58 186.5)" stroke="#3E9AF8" stroke-width="1.5"/>
    <path d="M197.475 94.3091L182.442 79.2385C182.104 78.9002 181.646 78.7107 181.169 78.7107H171.934C169.86 78.7107 168.172 80.398 168.172 82.4722V103.125H162.253V85.1563C162.253 83.1748 160.641 81.5625 158.66 81.5625H151.472V63.5938C151.472 61.6123 149.86 60 147.878 60H129.91C127.928 60 126.316 61.6123 126.316 63.5938V71.5H119.106C118.113 71.5 117.309 72.3044 117.309 73.2969C117.309 74.2894 118.113 75.0938 119.106 75.0938H126.316V81.5625H107.797C106.804 81.5625 106 82.3669 106 83.3594C106 84.3519 106.804 85.1563 107.797 85.1563H115.512V103.125H107.797C106.804 103.125 106 103.929 106 104.922V114.984C106 115.977 106.804 116.781 107.797 116.781H115.396C115.354 117.135 115.329 117.494 115.329 117.859C115.329 119.88 116 121.747 117.131 123.25H107.797C106.804 123.25 106 124.054 106 125.047C106 126.039 106.804 126.844 107.797 126.844H138.688C143.642 126.844 147.673 122.813 147.673 117.859C147.673 117.494 147.648 117.135 147.605 116.781H173.629C173.587 117.135 173.562 117.494 173.562 117.859C173.562 119.88 174.234 121.747 175.364 123.25H158.379C157.386 123.25 156.582 124.054 156.582 125.047C156.582 126.039 157.386 126.844 158.379 126.844H182.547C187.501 126.844 191.531 122.813 191.531 117.859C191.531 117.494 191.507 117.135 191.465 116.781H194.238C196.312 116.781 198 115.094 198 113.019V95.5781C198 95.1022 197.811 94.646 197.475 94.3091ZM194.406 100.25H185.088L188.402 96.9367L191.715 93.6233L194.406 96.3214V100.25ZM178.953 98.4531V93.1938L185.127 87.0191L189.177 91.0789L180.121 100.134C179.44 99.8787 178.953 99.2224 178.953 98.4531ZM182.589 84.4747L178.953 88.1106V82.3044H180.424L182.589 84.4747ZM158.662 103.125H158.66H140.691V85.1563H144.285V90.5469C144.285 91.5394 145.089 92.3438 146.082 92.3438H153.269C154.262 92.3438 155.066 91.5394 155.066 90.5469V85.1563H158.66L158.662 103.125ZM147.878 85.1563H151.472V88.75H147.878V85.1563ZM140.668 63.5938V67.1875H137.075V63.5938H140.668ZM129.91 63.5938H133.481V68.9844C133.481 69.9769 134.285 70.7812 135.278 70.7812H142.465C143.457 70.7812 144.262 69.9769 144.262 68.9844V63.5938H147.878L147.881 81.5625H147.878H129.91V63.5938ZM129.91 85.1563V88.75H126.316V85.1563H129.91ZM119.106 85.1563H122.722V90.5469C122.722 91.5394 123.527 92.3438 124.519 92.3438H131.707C132.699 92.3438 133.503 91.5394 133.503 90.5469V85.1563H137.075L137.077 103.125H137.075H119.106V85.1563ZM118.923 117.859C118.923 114.887 121.341 112.469 124.313 112.469C127.286 112.469 129.704 114.887 129.704 117.859C129.704 120.832 127.286 123.25 124.313 123.25C121.341 123.25 118.923 120.832 118.923 117.859ZM131.501 123.244C131.502 123.246 131.504 123.248 131.506 123.25H131.496C131.497 123.248 131.499 123.246 131.501 123.244ZM138.688 123.25C135.716 123.25 133.298 120.832 133.298 117.859C133.298 114.887 135.716 112.469 138.688 112.469C141.661 112.469 144.079 114.887 144.079 117.859C144.079 120.832 141.661 123.25 138.688 123.25ZM146.359 113.188C144.78 110.603 141.932 108.875 138.688 108.875C135.752 108.875 133.141 110.291 131.501 112.475C129.86 110.291 127.249 108.875 124.313 108.875C121.069 108.875 118.222 110.603 116.642 113.188H109.594V106.719H168.172V113.188H146.359ZM182.547 123.25C179.574 123.25 177.156 120.832 177.156 117.859C177.156 114.887 179.574 112.469 182.547 112.469C185.519 112.469 187.938 114.887 187.938 117.859C187.938 120.832 185.519 123.25 182.547 123.25ZM194.238 113.188H190.218C188.638 110.603 185.791 108.875 182.547 108.875C179.303 108.875 176.455 110.603 174.876 113.188H171.766V82.4722C171.766 82.3795 171.841 82.3037 171.934 82.3037H175.359V98.4531C175.359 101.426 177.777 103.844 180.75 103.844H194.406V113.019C194.406 113.112 194.33 113.188 194.238 113.188Z" fill="#2A7DEC"/>
    <path d="M151.191 123.25C150.719 123.25 150.255 123.442 149.921 123.776C149.587 124.111 149.395 124.574 149.395 125.047C149.395 125.519 149.587 125.983 149.921 126.317C150.255 126.651 150.719 126.844 151.191 126.844C151.664 126.844 152.128 126.651 152.462 126.317C152.796 125.983 152.988 125.519 152.988 125.047C152.988 124.574 152.796 124.111 152.462 123.776C152.128 123.442 151.664 123.25 151.191 123.25Z" fill="#2A7DEC"/>
    <path d="M111.797 75.0938C112.27 75.0938 112.733 74.9014 113.067 74.5673C113.401 74.2332 113.594 73.7693 113.594 73.2969C113.594 72.8245 113.402 72.3605 113.067 72.0264C112.733 71.6923 112.27 71.5 111.797 71.5C111.323 71.5 110.859 71.6923 110.525 72.0264C110.191 72.3605 110 72.8245 110 73.2969C110 73.7693 110.191 74.2332 110.525 74.5673C110.859 74.9014 111.323 75.0938 111.797 75.0938Z" fill="#2A7DEC"/>
</svg>
