<svg width="262" height="308" viewBox="0 0 246 308" fill="none" xmlns="http://www.w3.org/2000/svg">
    <path fill-rule="evenodd" clip-rule="evenodd" d="M42.4334 94H0V95.5H42.4334V94Z" fill="#3E9AF8"/>
    <path d="M42 94C42 108.445 44.8452 122.749 50.3732 136.095C55.9013 149.441 64.0038 161.567 74.2183 171.782C84.4327 181.996 96.559 190.099 109.905 195.627C123.251 201.155 137.555 204 152 204V202.501C137.751 202.501 123.642 199.695 110.478 194.242C97.3144 188.789 85.3533 180.797 75.2781 170.722C65.2028 160.647 57.2107 148.686 51.758 135.522C46.3053 122.358 43.4988 108.249 43.4988 94H42Z" fill="#3E9AF8"/>
    <path fill-rule="evenodd" clip-rule="evenodd" d="M151.5 202.5L151.5 284.5L153 284.5L153 202.5L151.5 202.5Z" fill="#3E9AF8"/>
    <path d="M164 296C164 289.373 158.627 284 152 284C145.373 284 140 289.373 140 296C140 302.627 145.373 308 152 308C158.627 308 164 302.627 164 296Z" fill="#F4F8FE"/>
    <path fill-rule="evenodd" clip-rule="evenodd" d="M152 285.5C157.799 285.5 162.5 290.201 162.5 296C162.5 301.799 157.799 306.5 152 306.5C146.201 306.5 141.5 301.799 141.5 296C141.5 290.201 146.201 285.5 152 285.5ZM152 284C158.627 284 164 289.373 164 296C164 302.627 158.627 308 152 308C145.373 308 140 302.627 140 296C140 289.373 145.373 284 152 284Z" fill="#3E9AF8"/>
    <rect x="0.75" y="-0.75" width="186.5" height="186.5" rx="93.25" transform="matrix(1 0 0 -1 58 186.5)" stroke="#3E9AF8" stroke-width="1.5"/>
    <g clip-path="url(#clip0_13906_301)">
        <path d="M145.243 122.422C144.876 122.847 144.548 123.304 144.261 123.791C143.419 125.214 142.935 126.874 142.935 128.647C142.935 133.923 147.212 138.2 152.488 138.2C157.765 138.2 162.041 133.923 162.041 128.647C162.041 126.874 161.558 125.214 160.716 123.791C160.429 123.304 160.101 122.847 159.734 122.422" stroke="#2A7DEC" stroke-width="4" stroke-miterlimit="10" stroke-linecap="round" stroke-linejoin="round"/>
        <path d="M138.466 109.429C136.722 111.314 134.226 112.493 131.455 112.493C130.864 112.493 130.286 112.44 129.725 112.337C125.275 111.522 121.902 107.625 121.902 102.941C121.902 98.2225 125.322 94.3034 129.818 93.5272C130.35 93.4352 130.896 93.3877 131.455 93.3877C134.226 93.3877 136.722 94.5673 138.466 96.4523" stroke="#2A7DEC" stroke-width="4" stroke-miterlimit="10" stroke-linecap="round" stroke-linejoin="round"/>
        <path d="M152.489 109.429C150.745 111.314 148.249 112.493 145.477 112.493C144.887 112.493 144.309 112.44 143.747 112.337C141.677 111.958 139.839 110.912 138.466 109.429C136.888 107.725 135.924 105.444 135.924 102.941C135.924 100.436 136.888 98.1564 138.466 96.4523C139.859 94.9461 141.732 93.8907 143.841 93.5272C144.373 93.4352 144.919 93.3877 145.477 93.3877C146.036 93.3877 146.582 93.4352 147.114 93.5272C149.223 93.8907 151.096 94.9461 152.489 96.4523" stroke="#2A7DEC" stroke-width="4" stroke-miterlimit="10" stroke-linecap="round" stroke-linejoin="round"/>
        <path d="M159.5 112.494C164.776 112.494 169.053 108.217 169.053 102.94C169.053 97.6643 164.776 93.3872 159.5 93.3872C154.224 93.3872 149.947 97.6643 149.947 102.94C149.947 108.217 154.224 112.494 159.5 112.494Z" stroke="#2A7DEC" stroke-width="4" stroke-miterlimit="10" stroke-linecap="round" stroke-linejoin="round"/>
        <path d="M179.555 95.6456C177.89 94.2369 175.737 93.3877 173.386 93.3877C170.651 93.3877 168.185 94.5381 166.444 96.3803" stroke="#2A7DEC" stroke-width="4" stroke-miterlimit="10" stroke-linecap="round" stroke-linejoin="round"/>
        <path d="M166.444 109.501C168.185 111.343 170.651 112.494 173.386 112.494C175.798 112.494 178 111.6 179.682 110.127" stroke="#2A7DEC" stroke-width="4" stroke-miterlimit="10" stroke-linecap="round" stroke-linejoin="round"/>
        <path d="M129.724 112.337C129.203 113.517 128.913 114.822 128.913 116.197C128.913 121.473 133.189 125.749 138.466 125.749C140.645 125.749 142.653 125.019 144.261 123.791" stroke="#2A7DEC" stroke-width="4" stroke-miterlimit="10" stroke-linecap="round" stroke-linejoin="round"/>
        <path d="M161.23 112.337C161.752 113.517 162.041 114.822 162.041 116.197C162.041 118.576 161.172 120.751 159.734 122.422C159.658 122.511 159.58 122.599 159.5 122.685C157.756 124.57 155.26 125.749 152.489 125.749C149.717 125.749 147.221 124.57 145.477 122.685C145.398 122.599 145.319 122.511 145.243 122.422C143.805 120.751 142.935 118.576 142.935 116.197C142.935 114.822 143.225 113.517 143.747 112.337" stroke="#2A7DEC" stroke-width="4" stroke-miterlimit="10" stroke-linecap="round" stroke-linejoin="round"/>
        <path d="M175.253 112.337C175.774 113.517 176.064 114.822 176.064 116.197C176.064 121.473 171.788 125.749 166.511 125.749C164.332 125.749 162.324 125.019 160.716 123.791" stroke="#2A7DEC" stroke-width="4" stroke-miterlimit="10" stroke-linecap="round" stroke-linejoin="round"/>
        <path d="M142.404 51.8272C141.835 49.3549 138.432 49.0629 137.449 51.4019L135.582 55.8494C135.113 56.9669 133.937 57.6149 132.742 57.4147L125.441 56.1921C123.306 55.8341 121.687 58.0807 122.702 59.9934L126.172 66.5317C126.74 67.6022 126.497 68.9228 125.586 69.7215L121.958 72.9002C120.05 74.5721 121.404 77.7083 123.929 77.4658L129.479 76.9331C130.811 76.8053 132.023 77.7037 132.289 79.0144L132.836 81.7119C133.228 83.6423 135.534 84.4616 137.056 83.2112L146.743 75.2524C147.093 74.9649 147.362 74.5913 147.524 74.1682L152.008 62.4605C152.713 60.6212 151.206 58.6933 149.251 58.9328L146.519 59.2673C145.191 59.4299 143.955 58.5635 143.655 57.2602L142.404 51.8272Z" stroke="#2A7DEC" stroke-width="4" stroke-miterlimit="10" stroke-linecap="round" stroke-linejoin="round"/>
        <path d="M152.517 95.8747V85.0826C152.517 77.3067 147.06 70.5983 139.447 69.0161" stroke="#2A7DEC" stroke-width="4" stroke-miterlimit="10" stroke-linecap="round" stroke-linejoin="round"/>
        <path d="M152.489 95.8747V85.0826C152.489 77.3067 157.946 70.5983 165.559 69.0161" stroke="#2A7DEC" stroke-width="4" stroke-miterlimit="10" stroke-linecap="round" stroke-linejoin="round"/>
        <path d="M178.547 64.2689L168.747 61.7784C163.329 60.4013 158.451 65.4065 159.968 70.7876C161.485 76.1687 168.258 77.8899 172.16 73.8859L179.217 66.644C179.982 65.8586 179.61 64.5389 178.547 64.2689Z" stroke="#2A7DEC" stroke-width="4" stroke-miterlimit="10" stroke-linecap="round" stroke-linejoin="round"/>
        <circle cx="183" cy="103" r="2" fill="#2A7DEC"/>
    </g>
    <defs>
        <clipPath id="clip0_13906_301">
            <rect width="92" height="92" fill="white" transform="translate(106 48)"/>
        </clipPath>
    </defs>
</svg>
