<svg width="273" height="232" viewBox="0 0 273 232" fill="none" xmlns="http://www.w3.org/2000/svg">
    <g clip-path="url(#clip0_13971_2636)">
        <path fill-rule="evenodd" clip-rule="evenodd" d="M189.538 38.4677V0.884766L188.209 0.884766V38.4677H189.538Z" fill="#3E9AF8"/>
        <path d="M189.538 38.0838C176.744 38.0838 164.075 40.6038 152.255 45.4999C140.434 50.396 129.694 57.5723 120.647 66.6192C111.6 75.666 104.424 86.4062 99.528 98.2265C94.6318 110.047 92.1119 122.716 92.1119 135.51H93.4394C93.4394 122.89 95.925 110.394 100.754 98.7345C105.584 87.0753 112.662 76.4814 121.586 67.5579C130.51 58.6343 141.103 51.5557 152.763 46.7263C164.422 41.8969 176.918 39.4113 189.538 39.4113V38.0838Z" fill="#3E9AF8"/>
        <path fill-rule="evenodd" clip-rule="evenodd" d="M93.4404 135.067L20.8137 135.067L20.8137 136.395L93.4404 136.396L93.4404 135.067Z" fill="#3E9AF8"/>
        <path d="M10.6283 146.138C16.4981 146.138 21.2566 141.379 21.2566 135.51C21.2566 129.64 16.4981 124.881 10.6283 124.881C4.75845 124.881 0 129.64 0 135.51C0 141.379 4.75845 146.138 10.6283 146.138Z" fill="#F4F8FE"/>
        <path fill-rule="evenodd" clip-rule="evenodd" d="M19.928 135.51C19.928 140.646 15.7644 144.809 10.6283 144.809C5.49218 144.809 1.32854 140.646 1.32854 135.51C1.32854 130.374 5.49218 126.21 10.6283 126.21C15.7644 126.21 19.928 130.374 19.928 135.51ZM21.2566 135.51C21.2566 141.379 16.4981 146.138 10.6283 146.138C4.75845 146.138 0 141.379 0 135.51C0 129.64 4.75845 124.881 10.6283 124.881C16.4981 124.881 21.2566 129.64 21.2566 135.51Z" fill="#3E9AF8"/>
        <rect x="0.664268" y="0.664268" width="164.698" height="164.698" rx="82.3489" transform="matrix(0 1 1 0 106.283 52.2549)" stroke="#3E9AF8" stroke-width="1.32854"/>
        <g clip-path="url(#clip1_13971_2636)">
            <path d="M183.347 160.292C183.024 160.666 182.735 161.069 182.482 161.497C181.741 162.75 181.315 164.211 181.315 165.772C181.315 170.418 185.081 174.183 189.726 174.183C194.372 174.183 198.137 170.418 198.137 165.772C198.137 164.211 197.711 162.75 196.97 161.497C196.717 161.069 196.429 160.666 196.106 160.292" stroke="#2A7DEC" stroke-width="3.52174" stroke-miterlimit="10" stroke-linecap="round" stroke-linejoin="round"/>
            <path d="M177.38 148.852C175.845 150.512 173.648 151.55 171.207 151.55C170.687 151.55 170.178 151.503 169.684 151.413C165.766 150.696 162.797 147.264 162.797 143.14C162.797 138.986 165.808 135.535 169.766 134.852C170.235 134.771 170.716 134.729 171.207 134.729C173.648 134.729 175.845 135.768 177.38 137.427" stroke="#2A7DEC" stroke-width="3.52174" stroke-miterlimit="10" stroke-linecap="round" stroke-linejoin="round"/>
            <path d="M189.726 148.852C188.191 150.512 185.994 151.55 183.554 151.55C183.034 151.55 182.524 151.503 182.03 151.413C180.207 151.079 178.589 150.158 177.381 148.852C175.991 147.352 175.143 145.344 175.143 143.14C175.143 140.934 175.991 138.928 177.381 137.427C178.607 136.101 180.256 135.172 182.113 134.852C182.581 134.771 183.062 134.729 183.554 134.729C184.045 134.729 184.526 134.771 184.994 134.852C186.851 135.172 188.5 136.101 189.726 137.427" stroke="#2A7DEC" stroke-width="3.52174" stroke-miterlimit="10" stroke-linecap="round" stroke-linejoin="round"/>
            <path d="M195.9 151.551C200.545 151.551 204.311 147.785 204.311 143.14C204.311 138.494 200.545 134.729 195.9 134.729C191.254 134.729 187.489 138.494 187.489 143.14C187.489 147.785 191.254 151.551 195.9 151.551Z" stroke="#2A7DEC" stroke-width="3.52174" stroke-miterlimit="10" stroke-linecap="round" stroke-linejoin="round"/>
            <path d="M213.556 136.717C212.091 135.477 210.195 134.729 208.125 134.729C205.717 134.729 203.546 135.742 202.013 137.364" stroke="#2A7DEC" stroke-width="3.52174" stroke-miterlimit="10" stroke-linecap="round" stroke-linejoin="round"/>
            <path d="M202.013 148.916C203.546 150.537 205.717 151.55 208.125 151.55C210.248 151.55 212.188 150.764 213.668 149.467" stroke="#2A7DEC" stroke-width="3.52174" stroke-miterlimit="10" stroke-linecap="round" stroke-linejoin="round"/>
            <path d="M169.684 151.413C169.225 152.452 168.97 153.601 168.97 154.811C168.97 159.456 172.735 163.221 177.38 163.221C179.299 163.221 181.067 162.579 182.482 161.497" stroke="#2A7DEC" stroke-width="3.52174" stroke-miterlimit="10" stroke-linecap="round" stroke-linejoin="round"/>
            <path d="M197.423 151.413C197.882 152.452 198.137 153.601 198.137 154.811C198.137 156.905 197.371 158.82 196.106 160.292C196.038 160.371 195.969 160.448 195.899 160.523C194.364 162.183 192.167 163.221 189.726 163.221C187.286 163.221 185.089 162.183 183.553 160.523C183.483 160.448 183.414 160.371 183.347 160.292C182.081 158.82 181.315 156.905 181.315 154.811C181.315 153.601 181.571 152.452 182.03 151.413" stroke="#2A7DEC" stroke-width="3.52174" stroke-miterlimit="10" stroke-linecap="round" stroke-linejoin="round"/>
            <path d="M209.769 151.413C210.228 152.452 210.483 153.601 210.483 154.811C210.483 159.456 206.718 163.221 202.072 163.221C200.153 163.221 198.385 162.579 196.97 161.497" stroke="#2A7DEC" stroke-width="3.52174" stroke-miterlimit="10" stroke-linecap="round" stroke-linejoin="round"/>
            <path d="M180.848 98.1376C180.347 95.9609 177.35 95.7038 176.485 97.7632L174.841 101.679C174.428 102.663 173.393 103.233 172.34 103.057L165.913 101.981C164.033 101.665 162.607 103.643 163.501 105.327L166.556 111.084C167.057 112.026 166.843 113.189 166.04 113.892L162.846 116.691C161.166 118.163 162.358 120.924 164.582 120.711L169.468 120.242C170.64 120.129 171.708 120.92 171.942 122.074L172.424 124.449C172.769 126.149 174.799 126.87 176.139 125.769L184.667 118.762C184.976 118.509 185.213 118.18 185.355 117.807L189.303 107.499C189.924 105.88 188.597 104.183 186.876 104.394L184.47 104.688C183.301 104.831 182.213 104.068 181.949 102.921L180.848 98.1376Z" stroke="#2A7DEC" stroke-width="3.52174" stroke-miterlimit="10" stroke-linecap="round" stroke-linejoin="round"/>
            <path d="M189.752 136.919V127.417C189.752 120.571 184.947 114.664 178.244 113.271" stroke="#2A7DEC" stroke-width="3.52174" stroke-miterlimit="10" stroke-linecap="round" stroke-linejoin="round"/>
            <path d="M189.726 136.919V127.417C189.726 120.571 194.531 114.664 201.234 113.271" stroke="#2A7DEC" stroke-width="3.52174" stroke-miterlimit="10" stroke-linecap="round" stroke-linejoin="round"/>
            <path d="M212.669 109.092L204.041 106.899C199.27 105.687 194.976 110.094 196.312 114.831C197.647 119.569 203.61 121.084 207.046 117.559L213.259 111.183C213.933 110.492 213.605 109.33 212.669 109.092Z" stroke="#2A7DEC" stroke-width="3.52174" stroke-miterlimit="10" stroke-linecap="round" stroke-linejoin="round"/>
            <circle cx="216.59" cy="143.192" r="1.76087" fill="#2A7DEC"/>
        </g>
    </g>
    <defs>
        <clipPath id="clip0_13971_2636">
            <rect width="232" height="273" fill="white" transform="matrix(0 1 1 0 0 0)"/>
        </clipPath>
        <clipPath id="clip1_13971_2636">
            <rect width="81" height="81" fill="white" transform="translate(148.796 94.7681)"/>
        </clipPath>
    </defs>
</svg>
