<svg width="273" height="232" viewBox="0 0 273 232" fill="none" xmlns="http://www.w3.org/2000/svg">
    <g clip-path="url(#clip0_13971_2692)">
        <path fill-rule="evenodd" clip-rule="evenodd" d="M83.4622 38.4677V0.884766L84.7908 0.884766V38.4677H83.4622Z" fill="#91A3BE"/>
        <path d="M83.4622 38.0838C96.2563 38.0838 108.925 40.6038 120.745 45.4999C132.566 50.396 143.306 57.5723 152.353 66.6192C161.4 75.666 168.576 86.4062 173.472 98.2265C178.368 110.047 180.888 122.716 180.888 135.51H179.561C179.561 122.89 177.075 110.394 172.246 98.7345C167.416 87.0753 160.338 76.4814 151.414 67.5579C142.49 58.6343 131.897 51.5557 120.237 46.7263C108.578 41.8969 96.082 39.4113 83.4622 39.4113V38.0838Z" fill="#91A3BE"/>
        <path fill-rule="evenodd" clip-rule="evenodd" d="M179.56 135.067L252.186 135.067L252.186 136.395L179.56 136.396L179.56 135.067Z" fill="#91A3BE"/>
        <path d="M262.372 146.138C256.502 146.138 251.743 141.379 251.743 135.51C251.743 129.64 256.502 124.881 262.372 124.881C268.242 124.881 273 129.64 273 135.51C273 141.379 268.242 146.138 262.372 146.138Z" fill="#F4F8FE"/>
        <path fill-rule="evenodd" clip-rule="evenodd" d="M253.072 135.51C253.072 140.646 257.236 144.809 262.372 144.809C267.508 144.809 271.671 140.646 271.671 135.51C271.671 130.374 267.508 126.21 262.372 126.21C257.236 126.21 253.072 130.374 253.072 135.51ZM251.743 135.51C251.743 141.379 256.502 146.138 262.372 146.138C268.242 146.138 273 141.379 273 135.51C273 129.64 268.242 124.881 262.372 124.881C256.502 124.881 251.743 129.64 251.743 135.51Z" fill="#91A3BE"/>
        <rect x="166.053" y="52.9192" width="164.698" height="164.698" rx="82.3489" transform="rotate(90 166.053 52.9192)" stroke="#91A3BE" stroke-width="1.32854"/>
        <g clip-path="url(#clip1_13971_2692)">
            <mask id="mask0_13971_2692" style="mask-type:luminance" maskUnits="userSpaceOnUse" x="43" y="94" width="82" height="82">
                <path d="M43.2039 94.7681H124.204V175.768H43.2039V94.7681Z" fill="white"/>
            </mask>
            <g mask="url(#mask0_13971_2692)">
                <path d="M99.6577 149.506V153.224C99.6577 156.718 96.8245 159.552 93.3296 159.552C89.8347 159.552 87.0015 156.718 87.0015 153.224V142.071" stroke="#305680" stroke-width="3.52174" stroke-miterlimit="10" stroke-linecap="round" stroke-linejoin="round"/>
                <path d="M90.0585 99.8306H86.7627V101.017C86.7627 103.857 89.0646 106.159 91.9043 106.159H95.2001V104.972C95.2001 102.133 92.8981 99.8306 90.0585 99.8306Z" stroke="#305680" stroke-width="3.52174" stroke-miterlimit="10" stroke-linecap="round" stroke-linejoin="round"/>
                <path d="M119.326 99.8306H122.622V101.017C122.622 103.857 120.32 106.159 117.48 106.159H114.184V104.972C114.184 102.133 116.486 99.8306 119.326 99.8306Z" stroke="#305680" stroke-width="3.52174" stroke-miterlimit="10" stroke-linecap="round" stroke-linejoin="round"/>
                <path d="M95.2 106.124C95.2 106.793 95.2817 107.459 95.4437 108.107L97.9036 117.966C98.6814 121.082 101.48 123.268 104.692 123.268C107.904 123.268 110.703 121.082 111.481 117.966L113.941 108.107C114.103 107.459 114.184 106.793 114.184 106.124C114.184 101.6 110.517 97.9325 105.993 97.9325H103.392C98.8674 97.9325 95.2 101.6 95.2 106.124Z" stroke="#305680" stroke-width="3.52174" stroke-miterlimit="10" stroke-linecap="round" stroke-linejoin="round"/>
                <path d="M109.15 159.552V169.44C109.15 171.187 107.733 172.604 105.986 172.604C104.238 172.604 102.822 171.187 102.822 169.44V159.552" stroke="#305680" stroke-width="3.52174" stroke-miterlimit="10" stroke-linecap="round" stroke-linejoin="round"/>
                <path d="M96.4937 159.552V169.44C96.4937 171.187 95.0771 172.604 93.3296 172.604C91.5821 172.604 90.1655 171.187 90.1655 169.44V159.552" stroke="#305680" stroke-width="3.52174" stroke-miterlimit="10" stroke-linecap="round" stroke-linejoin="round"/>
                <path d="M56.4929 159.552V169.44C56.4929 171.187 55.0764 172.604 53.3289 172.604C51.5813 172.604 50.1648 171.187 50.1648 169.44V159.552" stroke="#305680" stroke-width="3.52174" stroke-miterlimit="10" stroke-linecap="round" stroke-linejoin="round"/>
                <path d="M72.3132 146.368V153.223C72.3132 156.718 69.48 159.551 65.9851 159.551C62.4902 159.551 59.657 156.718 59.657 153.223" stroke="#305680" stroke-width="3.52174" stroke-miterlimit="10" stroke-linecap="round" stroke-linejoin="round"/>
                <path d="M69.1492 159.552V169.44C69.1492 171.187 67.7326 172.604 65.9851 172.604C64.2376 172.604 62.821 171.187 62.821 169.44V159.552" stroke="#305680" stroke-width="3.52174" stroke-miterlimit="10" stroke-linecap="round" stroke-linejoin="round"/>
                <path d="M74.95 112.807L89.0402 112.804C91.9063 112.803 94.4486 110.964 95.3457 108.242" stroke="#305680" stroke-width="3.52174" stroke-miterlimit="10" stroke-linecap="round" stroke-linejoin="round"/>
                <path d="M87.0013 146.368H66.5124C62.7263 146.368 59.657 149.437 59.657 153.223C59.657 156.718 56.8239 159.551 53.3289 159.551C49.834 159.551 47.0007 156.718 47.0007 153.223V150.331C47.0007 146.453 46.5649 142.588 45.7016 138.808C45.0931 136.144 44.7859 133.419 44.7859 130.687C44.7859 121.469 51.762 113.881 60.723 112.913" stroke="#305680" stroke-width="3.52174" stroke-miterlimit="10" stroke-linecap="round" stroke-linejoin="round"/>
                <path d="M113.556 109.673C116.113 116.025 117.428 122.809 117.428 129.656V132.81C117.428 136.075 116.544 139.28 114.871 142.084V142.084C113.198 144.888 112.314 148.092 112.314 151.357V153.224C112.314 156.718 109.481 159.552 105.986 159.552C102.491 159.552 99.6577 156.718 99.6577 153.224V152.196" stroke="#305680" stroke-width="3.52174" stroke-miterlimit="10" stroke-linecap="round" stroke-linejoin="round"/>
            </g>
            <circle cx="67.8561" cy="112.817" r="1.76087" fill="#305680"/>
        </g>
    </g>
    <defs>
        <clipPath id="clip0_13971_2692">
            <rect width="232" height="273" fill="white" transform="matrix(0 1 -1 0 273 0)"/>
        </clipPath>
        <clipPath id="clip1_13971_2692">
            <rect width="81" height="81" fill="white" transform="translate(43.2039 94.7681)"/>
        </clipPath>
    </defs>
</svg>
