<svg width="200" height="160" fill="none" xmlns="http://www.w3.org/2000/svg"><g clip-path="url(#a)" fill-rule="evenodd" clip-rule="evenodd" fill="#00695C" fill-opacity=".5"><path d="m147.163 48.754-14.718-15.3855c-1.213-1.2615-2.693-2.1961-4.34-2.7397-5.075-6.5475-11.199-10.6776-20.134-10.6776-8.6906 0-16.4303 3.624-21.5303 10.3279H72.4474c-5.5631.0006-10.157 4.367-10.157 9.9307v39.7905h5.028V40.2098c0-2.7955 2.3335-4.9022 5.129-4.9022h10.7257c-1.9112 3.352-3.0056 7.8419-3.0056 12.3587v3.8424h-8.362c-.6508 0-1.238.2626-1.4883.8631-.2502.6006-.1156 1.2285.342 1.6911l22.4173 22.6246c.3234.3268.7648.495 1.2246.495.4597 0 .9011-.1922 1.2245-.519l22.2884-22.5308c.479-.4843.621-1.0826.358-1.7123-.263-.6284-.877-.9117-1.559-.9117H108.1v-3.8424c0-4.9732 2.486-9.5654 5.895-12.3587h9.123c1.981.5587 3.418 2.0737 3.418 4.2022v10.8118c0 2.9016 2.386 5.6564 5.287 5.6564h8.899c2.502 0 4.389 1.8262 4.389 4.3268l-.139-.2089v69.9551c0 2.795-2.032 5.257-4.827 5.257H72.4474c-2.7955 0-5.129-2.462-5.129-5.257v-2.565h-5.028v2.565c0 5.563 4.5939 10.285 10.157 10.285h67.6976c5.563 0 9.855-4.722 9.855-10.285V56.088c0-2.7486-.932-5.353-2.837-7.334Z"/><path d="M127.654 88.1496c0-1.724-1.398-3.1218-3.122-3.1218H53.1217c-1.724 0-3.1218 1.3978-3.1218 3.1218v31.7444c0 1.724 1.3978 3.122 3.1218 3.122h71.4103c1.724 0 3.122-1.398 3.122-3.122V88.1496ZM76.1363 111.755c-.4129.914-1.0274 1.702-1.8436 2.366-.8157.663-1.8274 1.179-3.0347 1.549-1.2067.37-2.605.555-4.1927.555-1.2838 0-2.5285-.158-3.7358-.473-1.2072-.315-2.2731-.81-3.1977-1.485-.9252-.674-1.6592-1.552-2.2023-2.596-.5441-1.044-.805-2.062-.7832-3.738h4.9598c0 1.117.1413 1.465.424 2.009.2827.544.6581.994 1.1263 1.331.4676.338 1.0162.592 1.6474.755.6308.164 1.2833.247 1.9576.247.4564 0 .9464-.037 1.4681-.113.5224-.076 1.0118-.222 1.4688-.44.4564-.218.8368-.517 1.1419-.897.3044-.38.4564-.865.4564-1.452 0-.631-.2011-1.142-.6034-1.533-.4028-.392-.9301-.718-1.5826-.979-.6526-.261-1.3922-.49-2.219-.686-.8263-.195-1.6643-.413-2.5123-.652-.8704-.218-1.7185-.484-2.5447-.8-.8268-.315-1.5665-.723-2.219-1.223-.6525-.5-1.1805-1.126-1.5827-1.876-.4028-.75-.6034-1.6582-.6034-2.7241 0-1.1961.2554-2.2352.7665-3.1162.5106-.881 1.1794-1.6151 2.0067-2.2022.8263-.5872 1.762-1.0224 2.8062-1.3051 1.0436-.2826 2.0877-.424 3.1318-.424 1.2179 0 2.3866.1363 3.5073.4078 1.1201.2721 2.1151.7129 2.9855 1.3213.8703.6089 1.5609 1.4849 2.072 2.4312.5106.9464.7665 2.4235.7665 3.5408h-4.9592c-.0436-.5586-.1911-1.3709-.4402-1.8273-.2503-.457-.5827-.8649-.9956-1.1257-.4128-.2609-.8866-.4704-1.419-.5794-.5335-.1084-1.115-.1754-1.7458-.1754-.4134 0-.8262.038-1.2396.1246-.4134.0871-.7889.2363-1.1263.4536-.3374.2179-.6151.4877-.8318.8145-.2179.3263-.3263.7386-.3263 1.2392 0 .4564.0866.8262.2615 1.1089.1737.2827.5162.5435 1.0279.7825.5106.24 1.2179.479 2.1207.718.9022.24 2.0826.544 3.5402.913.4346.088 1.038.245 1.8106.474.7721.228 1.5386.592 2.3 1.093.7615.5 1.4196 1.17 1.9743 2.007.5542.838.8318 1.909.8318 3.214.0012 1.064-.2061 2.054-.6189 2.967Zm14.486 3.999h-5.7749L77.31 92.8491h5.2531l5.1877 16.2009h.0653l5.2531-16.2009h5.2855l-7.7324 22.9049Zm30.3277 0h-3.247l-.521-2.668c-.914 1.175-1.926 1.983-3.035 2.451-1.11.467-2.23.695-3.361.695-1.784 0-3.388-.314-4.813-.933-1.425-.62-2.626-1.475-3.605-2.563-.979-1.087-1.73-2.367-2.251-3.835-.5226-1.468-.783-3.051-.783-4.748 0-1.74.2609-3.355.783-4.8453.522-1.4899 1.272-2.7899 2.251-3.8994.979-1.1095 2.18-1.9794 3.605-2.6101 1.425-.6307 3.029-.9458 4.813-.9458 1.196 0 2.354.1793 3.475.538 1.12.3592 2.131.8866 3.034 1.5821.903.6967 1.648 1.5738 2.236 2.5967.587 1.0229.945 2.4251 1.076 3.5428h-4.894c-.305-1.1177-.892-2.3032-1.762-2.9557-.87-.6525-1.925-.9882-3.164-.9882-1.154 0-2.132.219-2.937.6642-.805.4464-1.458 1.0419-1.958 1.7922s-.865 1.6035-1.093 2.5605c-.229.957-.343 1.946-.343 2.968 0 .979.114 1.931.343 2.855.228.925.593 1.757 1.093 2.496.5.739 1.152 1.332 1.958 1.778.804.446 1.783.669 2.937.669 1.696 0 3.006-.206 3.931-1.065.924-.859 1.462-2.395 1.615-3.512h-5.439v-3.911h10.056v12.291Z"/></g><defs><clipPath id="a"><path fill="#fff" transform="translate(50 19.665)" d="M0 0h100v120.67H0z"/></clipPath></defs></svg>