<svg width="96" height="93" viewBox="0 0 96 93" fill="none" xmlns="http://www.w3.org/2000/svg">
    <rect x="0.75" y="1.49805" width="94.5" height="90.5" rx="23.25" stroke="#3E9AF8" stroke-width="1.5"/>
    <g clip-path="url(#clip0_16280_81911)">
        <mask id="mask0_16280_81911" style="mask-type:luminance" maskUnits="userSpaceOnUse" x="16" y="14" width="64" height="65">
            <path d="M16 14.7481H80V78.748H16V14.7481Z" fill="white"/>
        </mask>
        <g mask="url(#mask0_16280_81911)">
            <path d="M48.0002 50.2324C52.0705 50.2324 55.395 46.9079 55.395 42.8378C55.395 38.7639 52.0705 35.443 48.0002 35.443C43.9265 35.443 40.6055 38.7639 40.6055 42.8378C40.6055 46.9079 43.9265 50.2324 48.0002 50.2324Z" stroke="#2A7DEC" stroke-width="2.5" stroke-miterlimit="10" stroke-linecap="round" stroke-linejoin="round"/>
            <path d="M53.769 62.2871H55.4095C57.2754 62.2871 58.8031 60.7595 58.8031 58.8935V54.6997C58.8031 51.237 57.1554 48.1451 54.6054 46.1629M41.3948 46.1629C38.845 48.1451 37.1973 51.237 37.1973 54.6997V58.8935C37.1973 60.7595 38.7214 62.2871 40.5874 62.2871H42.2423" stroke="#2A7DEC" stroke-width="2.5" stroke-miterlimit="10" stroke-linecap="round" stroke-linejoin="round"/>
            <path d="M55.2966 44.0389C55.8312 44.1844 56.3949 44.2607 56.9733 44.2607C60.5779 44.2607 63.4988 41.3364 63.4988 37.7354C63.4988 34.1307 60.5779 31.21 56.9733 31.21C53.9871 31.21 51.4738 33.2141 50.6953 35.9495" stroke="#2A7DEC" stroke-width="2.5" stroke-miterlimit="10" stroke-linecap="round" stroke-linejoin="round"/>
            <path d="M58.8027 54.6991V54.8955H63.513C65.1606 54.8955 66.5065 53.546 66.5065 51.902V48.1991C66.5065 45.1474 65.0515 42.4158 62.8 40.6699" stroke="#2A7DEC" stroke-width="2.5" stroke-miterlimit="10" stroke-linecap="round" stroke-linejoin="round"/>
            <path d="M45.2999 35.9494C44.525 33.2141 42.008 31.2099 39.0216 31.2099C35.4207 31.2099 32.5 34.1307 32.5 37.7354C32.5 41.3362 35.4207 44.2607 39.0216 44.2607C39.6036 44.2607 40.1674 44.1842 40.7021 44.0387" stroke="#2A7DEC" stroke-width="2.5" stroke-miterlimit="10" stroke-linecap="round" stroke-linejoin="round"/>
            <path d="M33.1949 40.6699C30.9434 42.4158 29.4922 45.1474 29.4922 48.1991V51.9019C29.4922 53.546 30.8381 54.8955 32.4821 54.8955H37.1961V54.6991C37.1961 51.2364 38.8437 48.1445 41.3934 46.1623" stroke="#2A7DEC" stroke-width="2.5" stroke-miterlimit="10" stroke-linecap="round" stroke-linejoin="round"/>
            <path d="M48 62.2871H48.0036" stroke="#2A7DEC" stroke-width="2.5" stroke-miterlimit="10" stroke-linecap="round" stroke-linejoin="round"/>
            <path d="M53.5105 22.1815C56.344 22.8144 58.9993 23.9275 61.3818 25.426L63.5023 23.3092C64.7608 22.0505 66.8195 22.0505 68.0781 23.3092L71.4244 26.6518C72.6829 27.9139 72.6829 29.9727 71.4244 31.2312L69.3075 33.3482C70.7951 35.7124 71.8971 38.3385 72.5339 41.1465H75.509C77.2914 41.1465 78.75 42.6015 78.75 44.3838V49.1123C78.75 50.891 77.2914 52.3495 75.509 52.3495H72.523C71.8864 55.1394 70.7841 57.7509 69.3075 60.1007L71.4244 62.2177C72.6829 63.4762 72.6829 65.5348 71.4244 66.797L68.0781 70.1398C66.8195 71.3982 64.7608 71.3982 63.5023 70.1398L61.3818 68.0228C59.0246 69.5069 56.4023 70.6089 53.6015 71.2454V74.2572C53.6015 76.0395 52.143 77.498 50.3643 77.498H45.6358C43.8534 77.498 42.3985 76.0395 42.3985 74.2572V71.2418C39.6015 70.6053 36.9861 69.5032 34.6329 68.0228L32.5159 70.1398C31.2573 71.3982 29.1949 71.3982 27.9365 70.1398L24.5938 66.797C23.3351 65.5348 23.3351 63.4762 24.5938 62.2177L26.7106 60.1007C25.2303 57.7509 24.1319 55.1394 23.4953 52.3495H20.4873C18.7049 52.3495 17.25 50.891 17.25 49.1123V44.3838C17.25 42.6015 18.7049 41.1465 20.4873 41.1465H23.4844C24.11 38.3713 25.1976 35.7705 26.6598 33.4282L24.5283 31.2967C23.2698 30.0382 23.2698 27.9758 24.5283 26.7173L27.8748 23.3745C29.1331 22.1124 31.1919 22.1124 32.454 23.3745L34.5564 25.4769C36.9025 23.9857 39.5178 22.8763 42.3076 22.2288V19.2353C42.3076 17.453 43.7625 15.998 45.5448 15.998H50.2735C52.0556 15.998 53.5105 17.453 53.5105 19.2353V22.1815Z" stroke="#2A7DEC" stroke-width="2.5" stroke-miterlimit="10" stroke-linecap="round" stroke-linejoin="round"/>
        </g>
    </g>
    <defs>
        <clipPath id="clip0_16280_81911">
            <rect width="64" height="64" fill="white" transform="translate(16 14.748)"/>
        </clipPath>
    </defs>
</svg>
