<svg width="48" height="49" viewBox="0 0 48 49" fill="none" xmlns="http://www.w3.org/2000/svg">
    <rect x="0.5" y="1.24756" width="47" height="47" rx="7.5"/>
    <rect x="0.5" y="1.24756" width="47" height="47" rx="7.5" stroke="#2A7DEC"/>
    <path d="M25.5 21.7476V20.2476H24C23.8011 20.2476 23.6103 20.3266 23.4697 20.4672C23.329 20.6079 23.25 20.7986 23.25 20.9976V28.4976C23.25 28.6965 23.329 28.8872 23.4697 29.0279C23.6103 29.1685 23.8011 29.2476 24 29.2476H25.5V27.7476C25.5 27.3497 25.658 26.9682 25.9393 26.6869C26.2206 26.4056 26.6022 26.2476 27 26.2476H31.5C31.8978 26.2476 32.2794 26.4056 32.5607 26.6869C32.842 26.9682 33 27.3497 33 27.7476V32.2476C33 32.6454 32.842 33.0269 32.5607 33.3082C32.2794 33.5895 31.8978 33.7476 31.5 33.7476H27C26.6022 33.7476 26.2206 33.5895 25.9393 33.3082C25.658 33.0269 25.5 32.6454 25.5 32.2476V30.7476H24C23.4033 30.7476 22.831 30.5105 22.409 30.0885C21.9871 29.6666 21.75 29.0943 21.75 28.4976V25.4976H18.75V26.2476C18.75 26.6454 18.592 27.0269 18.3107 27.3082C18.0294 27.5895 17.6478 27.7476 17.25 27.7476H14.25C13.8522 27.7476 13.4706 27.5895 13.1893 27.3082C12.908 27.0269 12.75 26.6454 12.75 26.2476V23.2476C12.75 22.8497 12.908 22.4682 13.1893 22.1869C13.4706 21.9056 13.8522 21.7476 14.25 21.7476H17.25C17.6478 21.7476 18.0294 21.9056 18.3107 22.1869C18.592 22.4682 18.75 22.8497 18.75 23.2476V23.9976H21.75V20.9976C21.75 20.4008 21.9871 19.8285 22.409 19.4066C22.831 18.9846 23.4033 18.7476 24 18.7476H25.5V17.2476C25.5 16.8497 25.658 16.4682 25.9393 16.1869C26.2206 15.9056 26.6022 15.7476 27 15.7476H31.5C31.8978 15.7476 32.2794 15.9056 32.5607 16.1869C32.842 16.4682 33 16.8497 33 17.2476V21.7476C33 22.1454 32.842 22.5269 32.5607 22.8082C32.2794 23.0895 31.8978 23.2476 31.5 23.2476H27C26.6022 23.2476 26.2206 23.0895 25.9393 22.8082C25.658 22.5269 25.5 22.1454 25.5 21.7476Z" fill="#2A7DEC"/>
</svg>
