<svg width="48" height="49" viewBox="0 0 48 49" fill="none" xmlns="http://www.w3.org/2000/svg">
    <rect x="0.5" y="1.24756" width="47" height="47" rx="7.5"/>
    <rect x="0.5" y="1.24756" width="47" height="47" rx="7.5" stroke="#2A7DEC"/>
    <path d="M33.75 32.2476C33.75 32.4465 33.671 32.6372 33.5303 32.7779C33.3897 32.9185 33.1989 32.9976 33 32.9976H15C14.8011 32.9976 14.6103 32.9185 14.4697 32.7779C14.329 32.6372 14.25 32.4465 14.25 32.2476C14.25 32.0486 14.329 31.8579 14.4697 31.7172C14.6103 31.5766 14.8011 31.4976 15 31.4976H15.75V25.4976C15.75 25.2986 15.829 25.1079 15.9697 24.9672C16.1103 24.8266 16.3011 24.7476 16.5 24.7476H18.75C18.9489 24.7476 19.1397 24.8266 19.2803 24.9672C19.421 25.1079 19.5 25.2986 19.5 25.4976V31.4976H21V20.9976C21 20.7986 21.079 20.6079 21.2197 20.4672C21.3603 20.3266 21.5511 20.2476 21.75 20.2476H24.75C24.9489 20.2476 25.1397 20.3266 25.2803 20.4672C25.421 20.6079 25.5 20.7986 25.5 20.9976V31.4976H27V16.4976C27 16.2986 27.079 16.1079 27.2197 15.9672C27.3603 15.8266 27.5511 15.7476 27.75 15.7476H31.5C31.6989 15.7476 31.8897 15.8266 32.0303 15.9672C32.171 16.1079 32.25 16.2986 32.25 16.4976V31.4976H33C33.1989 31.4976 33.3897 31.5766 33.5303 31.7172C33.671 31.8579 33.75 32.0486 33.75 32.2476Z" fill="#2A7DEC"/>
</svg>
