<svg width="24" height="25" viewBox="0 0 24 25" fill="none" xmlns="http://www.w3.org/2000/svg">
    <path d="M12 5.74805C11.0717 5.74805 10.1815 6.1168 9.52513 6.77317C8.86875 7.42955 8.5 8.31979 8.5 9.24805C8.5 10.1763 8.86875 11.0665 9.52513 11.7229C10.1815 12.3793 11.0717 12.748 12 12.748C12.9283 12.748 13.8185 12.3793 14.4749 11.7229C15.1313 11.0665 15.5 10.1763 15.5 9.24805C15.5 8.31979 15.1313 7.42955 14.4749 6.77317C13.8185 6.1168 12.9283 5.74805 12 5.74805ZM12 7.74805C12.3978 7.74805 12.7794 7.90608 13.0607 8.18739C13.342 8.46869 13.5 8.85022 13.5 9.24805C13.5 9.64587 13.342 10.0274 13.0607 10.3087C12.7794 10.59 12.3978 10.748 12 10.748C11.6022 10.748 11.2206 10.59 10.9393 10.3087C10.658 10.0274 10.5 9.64587 10.5 9.24805C10.5 8.85022 10.658 8.46869 10.9393 8.18739C11.2206 7.90608 11.6022 7.74805 12 7.74805ZM5.5 8.74805C4.83696 8.74805 4.20107 9.01144 3.73223 9.48028C3.26339 9.94912 3 10.585 3 11.248C3 12.188 3.53 12.998 4.29 13.428C4.65 13.628 5.06 13.748 5.5 13.748C5.94 13.748 6.35 13.628 6.71 13.428C7.08 13.218 7.39 12.918 7.62 12.558C6.89148 11.6086 6.49767 10.4448 6.5 9.24805V8.96805C6.2 8.82805 5.86 8.74805 5.5 8.74805ZM18.5 8.74805C18.14 8.74805 17.8 8.82805 17.5 8.96805V9.24805C17.5 10.448 17.11 11.608 16.38 12.558C16.5 12.748 16.63 12.898 16.78 13.048C17.241 13.4953 17.8576 13.7463 18.5 13.748C18.94 13.748 19.35 13.628 19.71 13.428C20.47 12.998 21 12.188 21 11.248C21 10.585 20.7366 9.94912 20.2678 9.48028C19.7989 9.01144 19.163 8.74805 18.5 8.74805ZM12 14.748C9.66 14.748 5 15.918 5 18.248V19.748H19V18.248C19 15.918 14.34 14.748 12 14.748ZM4.71 15.298C2.78 15.528 0 16.508 0 18.248V19.748H3V17.818C3 16.808 3.69 15.968 4.71 15.298ZM19.29 15.298C20.31 15.968 21 16.808 21 17.818V19.748H24V18.248C24 16.508 21.22 15.528 19.29 15.298ZM12 16.748C13.53 16.748 15.24 17.248 16.23 17.748H7.77C8.76 17.248 10.47 16.748 12 16.748Z" fill="#2A7DEC"/>
</svg>
