<svg width="24" height="25" viewBox="0 0 24 25" fill="none" xmlns="http://www.w3.org/2000/svg">
    <path d="M12 16.748C11.2044 16.748 10.4413 16.432 9.87868 15.8694C9.31608 15.3068 9.00001 14.5437 9.00001 13.748C9.00001 12.628 9.61001 11.648 10.5 11.138L20.21 5.51805L14.68 15.098C14.18 16.078 13.17 16.748 12 16.748ZM12 3.74805C13.81 3.74805 15.5 4.24805 16.97 5.06805L14.87 6.27805C14 5.93805 13 5.74805 12 5.74805C9.87827 5.74805 7.84344 6.5909 6.34315 8.09119C4.84286 9.59148 4.00001 11.6263 4.00001 13.748C4.00001 15.958 4.89001 17.958 6.34001 19.398H6.35001C6.74001 19.788 6.74001 20.418 6.35001 20.808C5.96001 21.198 5.32 21.198 4.93001 20.818C4.00002 19.8907 3.26244 18.7887 2.75962 17.5754C2.2568 16.3621 1.99865 15.0614 2.00001 13.748C2.00001 11.0959 3.05357 8.55234 4.92894 6.67698C6.8043 4.80162 9.34784 3.74805 12 3.74805ZM22 13.748C22 16.508 20.88 19.008 19.07 20.818C18.68 21.198 18.05 21.198 17.66 20.808C17.5673 20.7155 17.4938 20.6056 17.4436 20.4847C17.3934 20.3637 17.3676 20.234 17.3676 20.103C17.3676 19.9721 17.3934 19.8424 17.4436 19.7214C17.4938 19.6004 17.5673 19.4906 17.66 19.398C18.4037 18.6574 18.9934 17.7768 19.395 16.807C19.7966 15.8373 20.0023 14.7977 20 13.748C20 12.748 19.81 11.748 19.46 10.848L20.67 8.74805C21.5 10.248 22 11.928 22 13.748Z" fill="#2A7DEC"/>
</svg>
