<svg width="48" height="49" viewBox="0 0 48 49" fill="none" xmlns="http://www.w3.org/2000/svg">
    <rect x="0.5" y="1.24756" width="47" height="47" rx="7.5"/>
    <rect x="0.5" y="1.24756" width="47" height="47" rx="7.5" stroke="#2A7DEC"/>
    <g clip-path="url(#clip0_15702_91356)">
        <path fill-rule="evenodd" clip-rule="evenodd" d="M30.1939 22.9373C30.3638 23.0291 30.5054 23.1655 30.6034 23.3319C30.7013 23.4983 30.752 23.6882 30.7499 23.8813L30.7179 25.9813C30.7137 26.1738 30.6571 26.3616 30.5542 26.5244C30.4513 26.6872 30.306 26.8189 30.1339 26.9053L28.4459 27.7453L28.5719 29.2293C28.587 29.4193 28.5506 29.6099 28.4665 29.781C28.3823 29.952 28.2537 30.0972 28.0939 30.2013L26.4499 31.2613C26.2729 31.3752 26.0657 31.4332 25.8553 31.4278C25.6449 31.4225 25.441 31.354 25.2699 31.2313L24.1779 30.4513L23.0819 31.2813C22.7419 31.5393 22.2779 31.5653 21.9099 31.3453L20.2339 30.3453C20.0696 30.2459 19.9353 30.1037 19.8455 29.9339C19.7556 29.7641 19.7136 29.5731 19.7239 29.3813L19.8199 27.8113L17.8419 26.8453C17.6661 26.7579 17.518 26.6233 17.4142 26.4566C17.3104 26.2899 17.2549 26.0977 17.2539 25.9013V23.7373C17.2553 23.5413 17.3109 23.3494 17.4147 23.1832C17.5185 23.0169 17.6664 22.8826 17.8419 22.7953L19.6999 21.8873L19.5479 20.2073C19.5317 20.0136 19.569 19.8192 19.6557 19.6454C19.7425 19.4715 19.8754 19.3248 20.0399 19.2213L21.7499 18.1593C21.9314 18.0467 22.143 17.9921 22.3563 18.0028C22.5697 18.0135 22.7746 18.089 22.9439 18.2193L24.1939 19.1793L25.2719 18.4073C25.4432 18.2849 25.6472 18.2168 25.8576 18.2118C26.068 18.2068 26.2751 18.2652 26.4519 18.3793L28.0959 19.4393C28.2553 19.5432 28.3838 19.6881 28.4679 19.8588C28.552 20.0294 28.5887 20.2196 28.5739 20.4093L28.4379 22.0033L30.1939 22.9373ZM29.2459 24.1333L27.4699 23.1893C27.2891 23.0919 27.1404 22.944 27.0421 22.7636C26.9437 22.5832 26.8999 22.3781 26.9159 22.1733L27.0539 20.5533L25.8939 19.8053L24.7939 20.5933C24.611 20.7244 24.3907 20.7932 24.1656 20.7896C23.9406 20.786 23.7226 20.7102 23.5439 20.5733L22.2759 19.5973L21.0639 20.3493L21.2199 22.0613C21.2396 22.2734 21.1943 22.4865 21.0899 22.6723C20.9856 22.858 20.8273 23.0077 20.6359 23.1013L18.7539 24.0193V25.6193L20.7479 26.5953C20.9331 26.6875 21.0873 26.8319 21.1914 27.0107C21.2955 27.1894 21.3451 27.3947 21.3339 27.6013L21.2379 29.1973L22.4179 29.9013L23.5379 29.0533C23.7165 28.9184 23.9335 28.8441 24.1573 28.8412C24.3811 28.8384 24.5999 28.9071 24.7819 29.0373L25.8939 29.8353L27.0539 29.0873L26.9259 27.5673C26.908 27.3572 26.9538 27.1466 27.0572 26.9629C27.1607 26.7792 27.317 26.6309 27.5059 26.5373L29.2219 25.6833L29.2459 24.1333Z" fill="#2A7DEC"/>
        <path d="M29.2459 24.1333L27.4699 23.1893C27.2891 23.0919 27.1404 22.944 27.0421 22.7636C26.9437 22.5832 26.8999 22.3781 26.9159 22.1733L27.0539 20.5533L25.8939 19.8053L24.7939 20.5933C24.611 20.7244 24.3907 20.7932 24.1656 20.7896C23.9406 20.786 23.7226 20.7102 23.5439 20.5733L22.2759 19.5973L21.0639 20.3493L21.2199 22.0613C21.2396 22.2734 21.1943 22.4865 21.0899 22.6723C20.9856 22.858 20.8273 23.0077 20.6359 23.1013L18.7539 24.0193V25.6193L20.7479 26.5953C20.9331 26.6875 21.0873 26.8319 21.1914 27.0107C21.2955 27.1894 21.3451 27.3947 21.3339 27.6013L21.2379 29.1973L22.4179 29.9013L23.5379 29.0533C23.7165 28.9184 23.9335 28.8441 24.1573 28.8412C24.3811 28.8384 24.5999 28.9071 24.7819 29.0373L25.8939 29.8353L27.0539 29.0873L26.9259 27.5673C26.908 27.3572 26.9538 27.1466 27.0572 26.9629C27.1607 26.7792 27.317 26.6309 27.5059 26.5373L29.2219 25.6833L29.2459 24.1333Z" fill="#2A7DEC"/>
        <path d="M33.0368 27.696C32.775 27.6138 32.4972 27.7586 32.3985 28.0146C31.7519 29.6898 30.6173 31.1372 29.1363 32.1659C27.5194 33.289 25.5788 33.851 23.6119 33.7656C21.6451 33.6803 19.7605 32.9524 18.2469 31.6934C16.8659 30.5448 15.8632 29.0119 15.3623 27.2949C15.2832 27.0239 15.4614 26.7504 15.7384 26.6957L16.0332 26.6375C16.4218 26.5607 16.5712 26.0842 16.2959 25.7994L14.2353 23.6676C13.9822 23.4057 13.543 23.4937 13.4102 23.8329L12.33 26.5934C12.1862 26.9608 12.5047 27.3422 12.8919 27.2662L13.3135 27.1835C13.5797 27.1313 13.8378 27.3013 13.9089 27.5631C14.4688 29.6248 15.6458 31.4708 17.2874 32.85C19.0537 34.3341 21.2596 35.1951 23.5642 35.3C25.8688 35.4049 28.1438 34.7479 30.0377 33.4306C31.7937 32.2091 33.1313 30.4829 33.8774 28.4867C33.9744 28.227 33.8268 27.9441 33.5623 27.861L33.0368 27.696ZM34.7158 22.3718C34.4492 22.425 34.1901 22.255 34.1187 21.9926C33.5584 19.9317 32.3814 18.0864 30.7401 16.7077C28.9736 15.2238 26.7677 14.3631 24.4631 14.2584C22.1585 14.1537 19.8836 14.8109 17.9899 16.1284C16.2326 17.351 14.8943 19.0791 14.1489 21.0775C14.0527 21.3353 14.1975 21.6164 14.4592 21.7016L14.9359 21.8567C15.1988 21.9422 15.4798 21.7976 15.5795 21.5398C16.2261 19.8666 17.3598 18.4209 18.8392 17.393C20.456 16.2698 22.3965 15.7076 24.3634 15.7928C26.3302 15.8779 28.2149 16.6055 29.7286 17.8643C31.1099 19.0128 32.1128 20.5458 32.6139 22.2628C32.6929 22.5337 32.5151 22.8071 32.2384 22.862L31.9427 22.9208C31.5542 22.9979 31.4054 23.4746 31.681 23.7591L33.7434 25.8877C33.996 26.1484 34.4335 26.0615 34.5673 25.7241L35.6592 22.9703C35.8052 22.6019 35.4851 22.2181 35.0964 22.2957L34.7158 22.3718Z" fill="#2A7DEC"/>
        <path fill-rule="evenodd" clip-rule="evenodd" d="M21.75 24.7476C21.75 24.1508 21.9871 23.5785 22.409 23.1566C22.831 22.7346 23.4033 22.4976 24 22.4976C24.5967 22.4976 25.169 22.7346 25.591 23.1566C26.0129 23.5785 26.25 24.1508 26.25 24.7476C26.25 25.3443 26.0129 25.9166 25.591 26.3385C25.169 26.7605 24.5967 26.9976 24 26.9976C23.4033 26.9976 22.831 26.7605 22.409 26.3385C21.9871 25.9166 21.75 25.3443 21.75 24.7476Z" fill="white"/>
    </g>
    <defs>
        <clipPath id="clip0_15702_91356">
            <rect width="24" height="24" transform="translate(12 12.7476)"/>
        </clipPath>
    </defs>
</svg>
