<svg width="49" height="49" viewBox="0 0 49 49" fill="none" xmlns="http://www.w3.org/2000/svg">
    <rect x="1.16602" y="1.24756" width="47" height="47" rx="7.5" />
    <rect x="1.16602" y="1.24756" width="47" height="47" rx="7.5" stroke="#2A7DEC"/>
    <path d="M32.166 16.4976H17.166C16.7682 16.4976 16.3867 16.6556 16.1054 16.9369C15.8241 17.2182 15.666 17.5997 15.666 17.9976V22.4976C15.666 22.8954 15.8241 23.2769 16.1054 23.5582C16.3867 23.8395 16.7682 23.9976 17.166 23.9976H32.166C32.5638 23.9976 32.9454 23.8395 33.2267 23.5582C33.508 23.2769 33.666 22.8954 33.666 22.4976V17.9976C33.666 17.5997 33.508 17.2182 33.2267 16.9369C32.9454 16.6556 32.5638 16.4976 32.166 16.4976ZM29.541 21.3726C29.3185 21.3726 29.101 21.3066 28.916 21.183C28.731 21.0593 28.5868 20.8836 28.5017 20.6781C28.4165 20.4725 28.3942 20.2463 28.4376 20.0281C28.481 19.8099 28.5882 19.6094 28.7455 19.4521C28.9029 19.2947 29.1033 19.1876 29.3215 19.1442C29.5398 19.1008 29.766 19.123 29.9715 19.2082C30.1771 19.2933 30.3528 19.4375 30.4764 19.6225C30.6 19.8075 30.666 20.0251 30.666 20.2476C30.666 20.5459 30.5475 20.8321 30.3365 21.0431C30.1255 21.254 29.8394 21.3726 29.541 21.3726Z" fill="#2A7DEC"/>
    <path d="M32.166 25.4976H17.166C16.7682 25.4976 16.3867 25.6556 16.1054 25.9369C15.8241 26.2182 15.666 26.5997 15.666 26.9976V31.4976C15.666 31.8954 15.8241 32.2769 16.1054 32.5582C16.3867 32.8395 16.7682 32.9976 17.166 32.9976H32.166C32.5638 32.9976 32.9454 32.8395 33.2267 32.5582C33.508 32.2769 33.666 31.8954 33.666 31.4976V26.9976C33.666 26.5997 33.508 26.2182 33.2267 25.9369C32.9454 25.6556 32.5638 25.4976 32.166 25.4976ZM29.541 30.3726C29.3185 30.3726 29.101 30.3066 28.916 30.183C28.731 30.0593 28.5868 29.8836 28.5017 29.6781C28.4165 29.4725 28.3942 29.2463 28.4376 29.0281C28.481 28.8099 28.5882 28.6094 28.7455 28.4521C28.9029 28.2947 29.1033 28.1876 29.3215 28.1442C29.5398 28.1008 29.766 28.123 29.9715 28.2082C30.1771 28.2933 30.3528 28.4375 30.4764 28.6225C30.6 28.8075 30.666 29.0251 30.666 29.2476C30.666 29.5459 30.5475 29.8321 30.3365 30.0431C30.1255 30.254 29.8394 30.3726 29.541 30.3726Z" fill="#2A7DEC"/>
</svg>
