<svg width="49" height="49" viewBox="0 0 49 49" fill="none" xmlns="http://www.w3.org/2000/svg">
    <rect x="1.16602" y="1.24756" width="47" height="47" rx="7.5"/>
    <rect x="1.16602" y="1.24756" width="47" height="47" rx="7.5" stroke="#2A7DEC"/>
    <path d="M25.1001 17.523C25.1183 17.5678 25.145 17.6085 25.1788 17.643L26.7351 19.1993C26.8053 19.2694 26.9004 19.3089 26.9997 19.3091C27.0989 19.3092 27.1942 19.2701 27.2647 19.2001C27.3351 19.1302 27.3749 19.0352 27.3755 18.9359C27.376 18.8367 27.3372 18.7412 27.2676 18.6705L26.3488 17.7518H32.0638C32.2746 17.7519 32.4768 17.8357 32.6258 17.9848C32.7749 18.1338 32.8587 18.336 32.8588 18.5468V22.3268C32.8603 22.4252 32.9005 22.5191 32.9707 22.5882C33.0408 22.6573 33.1354 22.696 33.2338 22.696C33.3323 22.696 33.4268 22.6573 33.4969 22.5882C33.5671 22.5191 33.6073 22.4252 33.6088 22.3268V18.5468C33.6081 18.1372 33.4451 17.7447 33.1555 17.4551C32.8659 17.1655 32.4734 17.0025 32.0638 17.0018H26.3488L27.2676 16.0868C27.3359 16.0157 27.3736 15.9207 27.3726 15.8221C27.3716 15.7235 27.332 15.6292 27.2623 15.5595C27.1926 15.4898 27.0983 15.4502 26.9998 15.4492C26.9012 15.4483 26.8061 15.486 26.7351 15.5543L25.1976 17.0955C25.1384 17.1475 25.0972 17.2168 25.0797 17.2935C25.0622 17.3703 25.0693 17.4506 25.1001 17.523Z" fill="#2A7DEC"/>
    <path d="M19.8352 21.291C19.6812 21.3801 19.5879 21.5438 19.5879 21.7217V25.9612C19.5879 26.346 20.0044 26.5866 20.3378 26.3943L24.0729 24.2394C24.13 24.2062 24.1774 24.1586 24.2103 24.1014C24.2433 24.0441 24.2605 23.9792 24.2604 23.9131V19.6122C24.2604 19.2247 23.8381 18.9805 23.5027 19.1745C22.429 19.7953 20.5657 20.8686 19.8352 21.291Z" fill="#2A7DEC"/>
    <path d="M18.9664 20.6434C19.1203 20.7323 19.3072 20.732 19.461 20.6432C20.1959 20.2187 22.0602 19.1392 23.1322 18.5192C23.4657 18.3263 23.4647 17.8443 23.1312 17.6514L19.4012 15.4946C19.3437 15.4632 19.2792 15.4468 19.2137 15.4468C19.1482 15.4468 19.0837 15.4632 19.0262 15.4946L15.3009 17.6487C14.9663 17.8422 14.9656 18.3276 15.3002 18.5211C16.3727 19.1412 18.2366 20.2221 18.9664 20.6434Z" fill="#2A7DEC"/>
    <path d="M18.8385 21.7221C18.8385 21.544 18.7448 21.38 18.5906 21.2908C17.8546 20.8653 15.9936 19.7922 14.9204 19.1718C14.5858 18.9783 14.166 19.2213 14.166 19.6079V23.9131C14.1659 23.9792 14.1831 24.0441 14.2161 24.1014C14.249 24.1586 14.2964 24.2063 14.3535 24.2394L18.0887 26.3943C18.422 26.5866 18.8385 26.346 18.8385 25.9612V21.7221Z" fill="#2A7DEC"/>
    <path d="M34.4166 26.3154L30.7441 28.436C30.5894 28.5253 30.4941 28.6904 30.4941 28.869V33.1072C30.4941 33.492 30.9107 33.7326 31.244 33.5403L34.9791 31.3854C35.0363 31.3522 35.0837 31.3046 35.1166 31.2474C35.1495 31.1901 35.1668 31.1252 35.1666 31.0591V26.7474C35.1666 26.3625 34.7496 26.1223 34.4166 26.3154Z" fill="#2A7DEC"/>
    <path d="M34.0365 25.6652C34.3701 25.4723 34.369 24.9903 34.0355 24.7974L30.3055 22.6406C30.248 22.6092 30.1835 22.5928 30.118 22.5928C30.0525 22.5928 29.988 22.6092 29.9305 22.6406L26.1954 24.8004C25.8635 24.9923 25.8636 25.4713 26.1955 25.6631L29.8684 27.7875C30.0228 27.8768 30.212 27.8777 30.3665 27.7885C31.1023 27.3635 32.9652 26.2848 34.0365 25.6652Z" fill="#2A7DEC"/>
    <path d="M25.8247 26.3178C25.4901 26.1243 25.0703 26.3673 25.0703 26.7539V31.0591C25.0702 31.1252 25.0875 31.1901 25.1204 31.2474C25.1533 31.3046 25.2007 31.3522 25.2578 31.3854L28.993 33.5403C29.3263 33.7326 29.7428 33.492 29.7428 33.1072V28.8681C29.7428 28.69 29.6491 28.526 29.4949 28.4368C28.7589 28.0113 26.8979 26.9382 25.8247 26.3178Z" fill="#2A7DEC"/>
    <path d="M24.2314 31.9757C24.2132 31.931 24.1865 31.8902 24.1527 31.8557L22.5964 30.2995C22.5617 30.2645 22.5204 30.2367 22.475 30.2177C22.4295 30.1987 22.3808 30.1888 22.3315 30.1886C22.2822 30.1885 22.2334 30.198 22.1878 30.2167C22.1422 30.2354 22.1007 30.2629 22.0658 30.2976C22.0308 30.3323 22.003 30.3736 21.984 30.419C21.965 30.4645 21.9551 30.5132 21.9549 30.5625C21.9548 30.6118 21.9643 30.6606 21.983 30.7062C22.0017 30.7518 22.0292 30.7933 22.0639 30.8282L22.9827 31.747H17.2677C17.0568 31.7469 16.8547 31.6631 16.7056 31.514C16.5566 31.3649 16.4728 31.1628 16.4727 30.952V27.172C16.4711 27.0735 16.4309 26.9796 16.3608 26.9105C16.2906 26.8415 16.1961 26.8027 16.0976 26.8027C15.9992 26.8027 15.9047 26.8415 15.8345 26.9105C15.7644 26.9796 15.7242 27.0735 15.7227 27.172V30.952C15.7233 31.3615 15.8863 31.7541 16.1759 32.0437C16.4655 32.3333 16.8581 32.4963 17.2677 32.497H22.9827L22.0639 33.412C22.0125 33.465 21.9777 33.5319 21.9639 33.6044C21.9501 33.677 21.9578 33.752 21.9861 33.8202C22.0144 33.8884 22.0621 33.9468 22.1233 33.9882C22.1844 34.0296 22.2563 34.0522 22.3302 34.0532C22.4297 34.0528 22.5251 34.0138 22.5964 33.9445L24.1339 32.4032C24.193 32.3513 24.2343 32.282 24.2518 32.2052C24.2693 32.1285 24.2622 32.0482 24.2314 31.9757Z" fill="#2A7DEC"/>
</svg>
