<svg width="48" height="49" viewBox="0 0 48 49" fill="none" xmlns="http://www.w3.org/2000/svg">
    <rect x="0.5" y="1.24756" width="47" height="47" rx="7.5"/>
    <rect x="0.5" y="1.24756" width="47" height="47" rx="7.5" stroke="#2A7DEC"/>
    <path d="M33 17.2477V21.7477C33 21.9466 32.921 22.1374 32.7803 22.278C32.6397 22.4187 32.4489 22.4977 32.25 22.4977H27.75C27.6016 22.4978 27.4565 22.4539 27.333 22.3715C27.2096 22.2891 27.1133 22.1719 27.0565 22.0348C26.9997 21.8977 26.9849 21.7468 27.0139 21.6012C27.0428 21.4556 27.1144 21.322 27.2194 21.2171L28.9359 19.4977C27.5551 18.1746 25.7183 17.4332 23.8059 17.4267H23.7638C21.8041 17.4229 19.9218 18.1908 18.5241 19.5642C18.3808 19.698 18.191 19.7703 17.9951 19.7658C17.7992 19.7613 17.6128 19.6803 17.4759 19.5402C17.3389 19.4001 17.2623 19.2119 17.2623 19.016C17.2623 18.82 17.339 18.6319 17.4759 18.4917C19.1479 16.8582 21.3897 15.9393 23.7271 15.9293C26.0646 15.9193 28.3142 16.8191 30 18.4383L31.7213 16.7171C31.8262 16.6127 31.9598 16.5417 32.105 16.5131C32.2503 16.4845 32.4007 16.4995 32.5375 16.5562C32.6742 16.613 32.7911 16.7089 32.8734 16.832C32.9557 16.955 32.9997 17.0996 33 17.2477ZM29.4759 29.9311C28.0867 31.288 26.2253 32.0531 24.2834 32.0656C22.3415 32.078 20.4705 31.3367 19.0641 29.9977L20.7806 28.2811C20.8866 28.1764 20.959 28.0425 20.9885 27.8964C21.0181 27.7504 21.0035 27.5988 20.9465 27.4611C20.8896 27.3234 20.7929 27.2058 20.6689 27.1233C20.5448 27.0407 20.399 26.997 20.25 26.9977H15.75C15.5511 26.9977 15.3603 27.0767 15.2197 27.2174C15.079 27.358 15 27.5488 15 27.7477V32.2477C14.9999 32.3961 15.0438 32.5412 15.1262 32.6647C15.2086 32.7881 15.3258 32.8843 15.4629 32.9412C15.6 32.998 15.7509 33.0128 15.8965 32.9838C16.042 32.9548 16.1757 32.8833 16.2806 32.7783L18 31.0571C19.6614 32.6605 21.8785 33.5594 24.1875 33.5658H24.2372C26.5885 33.5719 28.8476 32.6513 30.525 31.0036C30.662 30.8635 30.7387 30.6753 30.7387 30.4794C30.7387 30.2835 30.662 30.0953 30.5251 29.9552C30.3881 29.815 30.2018 29.7341 30.0059 29.7296C29.81 29.7251 29.6201 29.7974 29.4769 29.9311H29.4759Z" fill="#2A7DEC"/>
</svg>
