<svg width="24" height="25" viewBox="0 0 24 25" fill="none" xmlns="http://www.w3.org/2000/svg">
    <path d="M10 4.74805C8.93913 4.74805 7.92172 5.16947 7.17157 5.91962C6.42143 6.66976 6 7.68718 6 8.74805C6 9.80891 6.42143 10.8263 7.17157 11.5765C7.92172 12.3266 8.93913 12.748 10 12.748C11.0609 12.748 12.0783 12.3266 12.8284 11.5765C13.5786 10.8263 14 9.80891 14 8.74805C14 7.68718 13.5786 6.66976 12.8284 5.91962C12.0783 5.16947 11.0609 4.74805 10 4.74805ZM10 6.74805C10.5304 6.74805 11.0391 6.95876 11.4142 7.33383C11.7893 7.70891 12 8.21761 12 8.74805C12 9.27848 11.7893 9.78719 11.4142 10.1623C11.0391 10.5373 10.5304 10.748 10 10.748C9.46957 10.748 8.96086 10.5373 8.58579 10.1623C8.21071 9.78719 8 9.27848 8 8.74805C8 8.21761 8.21071 7.70891 8.58579 7.33383C8.96086 6.95876 9.46957 6.74805 10 6.74805ZM10 13.748C7.33 13.748 2 15.078 2 17.748V20.748H11.5C11.2483 20.1421 11.0899 19.5015 11.03 18.848H3.9V17.748C3.9 17.108 7.03 15.648 10 15.648C10.5 15.648 11 15.698 11.5 15.778C11.7566 15.1466 12.1109 14.5594 12.55 14.038C11.61 13.848 10.71 13.748 10 13.748Z" fill="#2A7DEC"/>
    <path d="M16.9883 20.6223L13.8633 22.4848L14.7133 18.9723L11.9883 16.6223L15.5758 16.3098L16.9883 13.0098L18.3758 16.3098L21.9883 16.6223L19.2383 18.9723L20.0508 22.4848L16.9883 20.6223Z" fill="#2A7DEC"/>
</svg>
