<svg width="272" height="151" viewBox="0 0 272 151" fill="none" xmlns="http://www.w3.org/2000/svg">
<mask id="mask0_1_351" style="mask-type:alpha" maskUnits="userSpaceOnUse" x="0" y="0" width="264" height="135">
<rect width="263.528" height="135" fill="#D9D9D9"/>
</mask>
<g mask="url(#mask0_1_351)">
<mask id="path-2-inside-1_1_351" fill="white">
<path d="M8.03731 134.185C3.6177 134.286 -0.0716648 130.781 0.0945942 126.363C1.23465 96.0707 12.6422 67.0148 32.51 44.2121C54.1227 19.4069 84.1489 3.83523 116.568 0.619563C148.987 -2.59611 181.402 6.78197 207.313 26.8733C231.144 45.3525 247.853 71.6381 254.711 101.156C255.706 105.441 252.78 109.569 248.447 110.334L245.172 110.912C240.803 111.683 236.669 108.741 235.616 104.431C229.608 79.8384 215.536 57.9662 195.608 42.5134C173.574 25.4284 146.009 17.4536 118.441 20.1881C90.8733 22.9226 65.3399 36.1642 46.9612 57.2578C30.3251 76.3513 20.6647 100.601 19.4469 125.933C19.2348 130.343 15.7669 134.007 11.3523 134.108L8.03731 134.185Z"/>
</mask>
<path d="M8.03731 134.185C3.6177 134.286 -0.0716648 130.781 0.0945942 126.363C1.23465 96.0707 12.6422 67.0148 32.51 44.2121C54.1227 19.4069 84.1489 3.83523 116.568 0.619563C148.987 -2.59611 181.402 6.78197 207.313 26.8733C231.144 45.3525 247.853 71.6381 254.711 101.156C255.706 105.441 252.78 109.569 248.447 110.334L245.172 110.912C240.803 111.683 236.669 108.741 235.616 104.431C229.608 79.8384 215.536 57.9662 195.608 42.5134C173.574 25.4284 146.009 17.4536 118.441 20.1881C90.8733 22.9226 65.3399 36.1642 46.9612 57.2578C30.3251 76.3513 20.6647 100.601 19.4469 125.933C19.2348 130.343 15.7669 134.007 11.3523 134.108L8.03731 134.185Z" stroke="#7F2FDB" stroke-width="60" stroke-linecap="round" stroke-linejoin="round" mask="url(#path-2-inside-1_1_351)"/>
</g>
<g filter="url(#filter0_d_1_351)">
<ellipse cx="247.294" cy="117.975" rx="16.7063" ry="16.6938" fill="#7F2FDB"/>
<path d="M261.5 117.975C261.5 125.812 255.141 132.169 247.294 132.169C239.446 132.169 233.087 125.812 233.087 117.975C233.087 110.138 239.446 103.781 247.294 103.781C255.141 103.781 261.5 110.138 261.5 117.975Z" stroke="white" stroke-width="5"/>
</g>
<defs>
<filter id="filter0_d_1_351" x="222.587" y="101.281" width="49.4127" height="49.3877" filterUnits="userSpaceOnUse" color-interpolation-filters="sRGB">
<feFlood flood-opacity="0" result="BackgroundImageFix"/>
<feColorMatrix in="SourceAlpha" type="matrix" values="0 0 0 0 0 0 0 0 0 0 0 0 0 0 0 0 0 0 127 0" result="hardAlpha"/>
<feOffset dy="8"/>
<feGaussianBlur stdDeviation="4"/>
<feComposite in2="hardAlpha" operator="out"/>
<feColorMatrix type="matrix" values="0 0 0 0 0.0509804 0 0 0 0 0.0392157 0 0 0 0 0.172549 0 0 0 0.08 0"/>
<feBlend mode="normal" in2="BackgroundImageFix" result="effect1_dropShadow_1_351"/>
<feBlend mode="normal" in="SourceGraphic" in2="effect1_dropShadow_1_351" result="shape"/>
</filter>
</defs>
</svg>
