<svg xmlns="http://www.w3.org/2000/svg" width="484" height="492" fill="none" viewBox="0 0 484 492">
  <path stroke="url(#a)" stroke-linecap="round" stroke-linejoin="round" stroke-miterlimit="10" stroke-opacity=".5" stroke-width="20.87" d="M285.148 471.318h138.345c5.708 0 10.186-5.029 9.375-10.679-5.18-36.065-36.202-63.78-73.715-63.78-18.498 0-35.413 6.766-48.434 17.939-11.235-26.878-37.772-45.764-68.717-45.764-30.944 0-57.48 18.886-68.716 45.764-13.02-11.173-29.935-17.939-48.434-17.939-37.512 0-68.535 27.715-73.714 63.78-.812 5.649 3.667 10.679 9.375 10.679h138.499m43.484-263.198v157.473M110.36 294.441v103.983M375.774 297.45v99.309m-123.342 73.912c0 5.763-4.672 10.435-10.435 10.435-5.763 0-10.435-4.672-10.435-10.435 0-5.763 4.672-10.435 10.435-10.435 5.763 0 10.435 4.672 10.435 10.435Zm-30.507-200.287c14.102 14.102 20.853 33.089 20.564 52.962-19.873.289-38.862-6.462-52.963-20.564-14.098-14.098-20.853-33.09-20.564-52.962 19.873-.29 38.863 6.465 52.963 20.564Zm41.144-42.529c-14.102 14.102-20.853 33.09-20.564 52.962 19.873.289 38.861-6.462 52.962-20.564 14.099-14.098 20.854-33.09 20.564-52.962-19.872-.29-38.864 6.465-52.962 20.564ZM91.364 305.196c13.021 13.021 19.256 30.554 18.988 48.904-18.35.267-35.883-5.967-48.904-18.988-13.018-13.018-19.255-30.554-18.987-48.904 18.35-.267 35.885 5.97 48.903 18.988Zm302.808 2.67c-12.611 12.611-18.649 29.591-18.39 47.362 17.772.259 34.752-5.779 47.363-18.389 12.607-12.608 18.648-29.591 18.389-47.362-17.771-.26-34.754 5.78-47.362 18.389Zm69.041-259.4H20.786a9.393 9.393 0 0 1-9.393-9.392V20.287a9.393 9.393 0 0 1 9.393-9.393h442.427a9.393 9.393 0 0 1 9.393 9.393v18.787a9.393 9.393 0 0 1-9.393 9.393Zm-190.638 78.022c0 15.647-12.685 28.332-28.333 28.332-15.646 0-28.331-12.685-28.331-28.332s28.331-46.66 28.331-46.66 28.333 31.013 28.333 46.66Zm146.107 28.591c0 15.647-12.684 28.332-28.332 28.332-15.647 0-28.332-12.685-28.332-28.332s28.332-46.659 28.332-46.659 28.332 31.012 28.332 46.659Zm-286.999 0c0 15.647-12.684 28.332-28.332 28.332-15.647 0-28.331-12.685-28.331-28.332s28.331-46.659 28.331-46.659 28.332 31.012 28.332 46.659Z" class="Vector"/>
  <defs>
    <linearGradient id="a" x1="-13.475" x2="590.669" y1="291.426" y2="429.906" class="a" gradientUnits="userSpaceOnUse">
      <stop offset=".085" stop-color="#3E9AF8"/>
      <stop offset="1" stop-color="#3E9AF8" stop-opacity="0"/>
    </linearGradient>
  </defs>
</svg>
