<svg width="486" height="486" viewBox="0 0 486 486" fill="none" xmlns="http://www.w3.org/2000/svg">
    <path d="M427.891 338.087V472.794C427.891 474.252 426.708 475.435 425.249 475.435H50.1843C48.7255 475.435 47.543 474.252 47.543 472.794V112.528C47.543 111.548 48.0851 110.649 48.9514 110.192L236.484 11.2161C237.255 10.8089 238.178 10.8089 238.95 11.2161L426.482 110.192C427.349 110.649 427.891 111.548 427.891 112.528V253.565M79.2386 137.348L236.484 53.4838C237.255 53.0725 238.18 53.0693 238.954 53.4753L398.836 137.348" stroke="url(#paint0_linear_17138_17447)" stroke-opacity="0.5" stroke-width="21.1304" stroke-linecap="round"/>
    <path d="M206 211V269.989C206 272.027 208.211 273.297 209.972 272.27L236.365 256.875C237.187 256.395 238.204 256.395 239.027 256.875L265.419 272.27C267.18 273.297 269.391 272.027 269.391 269.989V211" stroke="url(#paint1_linear_17138_17447)" stroke-opacity="0.5" stroke-width="21.1304" stroke-linecap="square"/>
    <path d="M206.021 343.153V402.293C206.021 404.332 208.233 405.602 209.994 404.575L236.386 389.179C237.209 388.699 238.226 388.699 239.048 389.179L265.441 404.575C267.201 405.602 269.413 404.332 269.413 402.293V343.153" stroke="url(#paint2_linear_17138_17447)" stroke-opacity="0.5" stroke-width="21.1304" stroke-linecap="square"/>
    <path d="M311.608 179.6C329.113 179.6 343.304 193.79 343.305 211.295V301.1L343.294 301.918C343.096 309.715 340.082 316.812 335.231 322.23C340.251 327.838 343.305 335.242 343.305 343.359V433.164L343.294 433.982C342.86 451.109 328.84 464.859 311.608 464.859H163.695C146.19 464.859 132 450.669 132 433.164V343.359C132 335.241 135.053 327.837 140.072 322.229C135.053 316.622 132 309.218 132 301.1V211.295C132 193.79 146.191 179.6 163.695 179.6H311.608ZM163.695 332.795C157.861 332.795 153.131 337.525 153.131 343.359V433.164C153.131 438.999 157.86 443.729 163.695 443.729H311.608C317.443 443.729 322.174 438.999 322.174 433.164V343.359C322.173 337.525 317.443 332.795 311.608 332.795H163.695ZM163.695 200.73C157.861 200.731 153.131 205.46 153.131 211.295V301.1C153.131 306.926 157.846 311.65 163.669 311.664H311.634C317.457 311.65 322.174 306.926 322.174 301.1V211.295C322.173 205.46 317.443 200.73 311.608 200.73H163.695Z" fill="url(#paint3_linear_17138_17447)" fill-opacity="0.5"/>
    <circle cx="427.891" cy="295.826" r="10.5652" fill="#D4E9FD"/>
    <defs>
        <linearGradient id="paint0_linear_17138_17447" x1="112.474" y1="55.8918" x2="665.632" y2="380.228" gradientUnits="userSpaceOnUse">
            <stop offset="0.0845342" stop-color="#3E9AF8"/>
            <stop offset="1" stop-color="#3E9AF8" stop-opacity="0"/>
        </linearGradient>
        <linearGradient id="paint1_linear_17138_17447" x1="216.822" y1="198.307" x2="312.943" y2="249.969" gradientUnits="userSpaceOnUse">
            <stop offset="0.0845342" stop-color="#3E9AF8"/>
            <stop offset="1" stop-color="#3E9AF8" stop-opacity="0"/>
        </linearGradient>
        <linearGradient id="paint2_linear_17138_17447" x1="216.843" y1="330.611" x2="312.964" y2="382.274" gradientUnits="userSpaceOnUse">
            <stop offset="0.0845342" stop-color="#3E9AF8"/>
            <stop offset="1" stop-color="#3E9AF8" stop-opacity="0"/>
        </linearGradient>
        <linearGradient id="paint3_linear_17138_17447" x1="168.073" y1="207.413" x2="490.247" y2="378.437" gradientUnits="userSpaceOnUse">
            <stop offset="0.0845342" stop-color="#3E9AF8"/>
            <stop offset="1" stop-color="#3E9AF8" stop-opacity="0"/>
        </linearGradient>
    </defs>
</svg>
