<svg width="486" height="486" viewBox="0 0 486 486" fill="none" xmlns="http://www.w3.org/2000/svg">
    <path d="M436.992 377.431C436.992 383.03 432.433 387.569 426.81 387.569C421.187 387.569 416.629 383.03 416.629 377.431C416.629 371.832 421.187 367.294 426.81 367.294C432.433 367.294 436.992 371.832 436.992 377.431Z" fill="url(#paint0_linear_16274_23992)" fill-opacity="0.5"/>
    <path d="M47.5632 461.319C47.7648 463.312 49.4475 464.867 51.4942 464.868H439.781L440.184 464.847C442.045 464.658 443.524 463.18 443.712 461.319L443.733 460.916V433.734C443.732 431.688 442.177 430.006 440.184 429.803L439.781 429.783V408.652C453.633 408.653 464.863 419.882 464.863 433.734V460.916C464.863 474.769 453.634 485.997 439.781 485.998H51.4942C37.6417 485.997 26.4121 474.769 26.4121 460.916V433.734C26.4129 419.882 37.6421 408.653 51.4942 408.652V429.783C49.3121 429.784 47.5433 431.552 47.5425 433.734V460.916L47.5632 461.319ZM439.781 408.652V429.783H51.4942V408.652H439.781Z" fill="url(#paint1_linear_16274_23992)" fill-opacity="0.5"/>
    <path d="M439.787 180.148V201.278H322.377V180.148H439.787Z" fill="url(#paint2_linear_16274_23992)" fill-opacity="0.5"/>
    <path d="M416.242 336.881V257.494V244.373H437.372V257.494V336.881C437.371 342.715 432.641 347.446 426.807 347.446C420.973 347.446 416.243 342.715 416.242 336.881Z" fill="url(#paint3_linear_16274_23992)" fill-opacity="0.5"/>
    <path d="M250.732 337.308V408.652H123.465V337.308H250.732ZM144.595 408.652H177.926H199.056H230V337.308H199.056H177.926H144.595V408.652Z" fill="url(#paint4_linear_16274_23992)" fill-opacity="0.5"/>
    <path d="M266.002 316.178L267.08 316.234C272.408 316.775 276.567 321.272 276.567 326.743C276.567 332.213 272.408 336.711 267.08 337.251L266.002 337.308H108.189C102.354 337.308 97.6241 332.578 97.6241 326.743C97.6241 320.908 102.354 316.178 108.189 316.178H266.002Z" fill="url(#paint5_linear_16274_23992)" fill-opacity="0.5"/>
    <path d="M112.507 67.8025V88.9329H98.8313H72.9341V408.652H52.5L51.8037 84.2952C51.8049 75.1871 59.1882 67.8037 68.2964 67.8025H112.507ZM322.377 408.652H301.247V88.9329H260.482V67.8025H305.885L306.731 67.8231C315.446 68.2641 322.376 75.4705 322.377 84.2952V257.494V408.652Z" fill="url(#paint6_linear_16274_23992)" fill-opacity="0.5"/>
    <path d="M133.658 128.124C133.848 129.984 135.326 131.463 137.187 131.652L137.589 131.673H235.4L235.803 131.652C237.663 131.463 239.142 129.984 239.331 128.124L239.352 127.721V30.3643C239.351 28.318 237.796 26.6355 235.803 26.4333L235.4 26.4127V5.28223C249.252 5.28293 260.481 16.5122 260.482 30.3643V127.721C260.481 141.573 249.252 152.802 235.4 152.803H137.589C123.737 152.802 112.509 141.573 112.507 127.721V30.3643C112.508 16.5122 123.737 5.28303 137.589 5.28223V26.4127C135.407 26.4135 133.639 28.1822 133.638 30.3643V127.721L133.658 128.124ZM235.4 5.28223V26.4127H137.589V5.28223H235.4Z" fill="url(#paint7_linear_16274_23992)" fill-opacity="0.5"/>
    <path d="M177.926 408.652H199.056V337.308H177.926V408.652Z" fill="url(#paint8_linear_16274_23992)" fill-opacity="0.5"/>
    <path d="M439.787 236.363L322.377 236.343V257.494C324.624 257.494 327.086 257.494 329.595 257.494H416.242V244.373H437.372V257.494H439.787C453.639 257.493 464.869 246.264 464.869 232.412V205.23C464.868 191.378 453.639 180.149 439.787 180.148V201.278L440.189 201.299C442.182 201.501 443.737 203.184 443.738 205.23V232.412L443.718 232.814C443.529 234.675 442.05 236.154 440.189 236.343L439.787 236.363Z" fill="url(#paint9_linear_16274_23992)" fill-opacity="0.5"/>
    <path d="M176.054 102.676V89.5366H163.761C157.926 89.5366 153.195 84.8064 153.195 78.9713C153.195 73.1363 157.926 68.4061 163.761 68.4061H176.054V58.1092C176.054 52.2742 180.784 47.5439 186.619 47.5439C192.453 47.5448 197.184 52.2747 197.184 58.1092V68.4061H208.523C214.358 68.4067 219.089 73.1367 219.089 78.9713C219.089 84.806 214.358 89.536 208.523 89.5366H197.184V102.676C197.184 108.511 192.453 113.24 186.619 113.241C180.784 113.241 176.054 108.511 176.054 102.676Z" fill="url(#paint10_linear_16274_23992)" fill-opacity="0.5"/>
    <defs>
        <linearGradient id="paint0_linear_16274_23992" x1="-23.4969" y1="200.458" x2="536.946" y2="280.468" gradientUnits="userSpaceOnUse">
            <stop stop-color="#3E9AF8"/>
            <stop offset="1" stop-color="#3E9AF8" stop-opacity="0"/>
        </linearGradient>
        <linearGradient id="paint1_linear_16274_23992" x1="-23.4969" y1="200.458" x2="536.946" y2="280.468" gradientUnits="userSpaceOnUse">
            <stop stop-color="#3E9AF8"/>
            <stop offset="1" stop-color="#3E9AF8" stop-opacity="0"/>
        </linearGradient>
        <linearGradient id="paint2_linear_16274_23992" x1="-23.4969" y1="200.458" x2="536.946" y2="280.468" gradientUnits="userSpaceOnUse">
            <stop stop-color="#3E9AF8"/>
            <stop offset="1" stop-color="#3E9AF8" stop-opacity="0"/>
        </linearGradient>
        <linearGradient id="paint3_linear_16274_23992" x1="-23.4969" y1="200.458" x2="536.946" y2="280.468" gradientUnits="userSpaceOnUse">
            <stop stop-color="#3E9AF8"/>
            <stop offset="1" stop-color="#3E9AF8" stop-opacity="0"/>
        </linearGradient>
        <linearGradient id="paint4_linear_16274_23992" x1="-23.4969" y1="200.458" x2="536.946" y2="280.468" gradientUnits="userSpaceOnUse">
            <stop stop-color="#3E9AF8"/>
            <stop offset="1" stop-color="#3E9AF8" stop-opacity="0"/>
        </linearGradient>
        <linearGradient id="paint5_linear_16274_23992" x1="-23.4969" y1="200.458" x2="536.946" y2="280.468" gradientUnits="userSpaceOnUse">
            <stop stop-color="#3E9AF8"/>
            <stop offset="1" stop-color="#3E9AF8" stop-opacity="0"/>
        </linearGradient>
        <linearGradient id="paint6_linear_16274_23992" x1="-23.4969" y1="200.458" x2="536.946" y2="280.468" gradientUnits="userSpaceOnUse">
            <stop stop-color="#3E9AF8"/>
            <stop offset="1" stop-color="#3E9AF8" stop-opacity="0"/>
        </linearGradient>
        <linearGradient id="paint7_linear_16274_23992" x1="-23.4969" y1="200.458" x2="536.946" y2="280.468" gradientUnits="userSpaceOnUse">
            <stop stop-color="#3E9AF8"/>
            <stop offset="1" stop-color="#3E9AF8" stop-opacity="0"/>
        </linearGradient>
        <linearGradient id="paint8_linear_16274_23992" x1="-23.4969" y1="200.458" x2="536.946" y2="280.468" gradientUnits="userSpaceOnUse">
            <stop stop-color="#3E9AF8"/>
            <stop offset="1" stop-color="#3E9AF8" stop-opacity="0"/>
        </linearGradient>
        <linearGradient id="paint9_linear_16274_23992" x1="-23.4969" y1="200.458" x2="536.946" y2="280.468" gradientUnits="userSpaceOnUse">
            <stop stop-color="#3E9AF8"/>
            <stop offset="1" stop-color="#3E9AF8" stop-opacity="0"/>
        </linearGradient>
        <linearGradient id="paint10_linear_16274_23992" x1="145.695" y1="74.2178" x2="246.621" y2="99.0261" gradientUnits="userSpaceOnUse">
            <stop stop-color="#3E9AF8"/>
            <stop offset="1" stop-color="#3E9AF8" stop-opacity="0"/>
        </linearGradient>
    </defs>
</svg>
