<svg xmlns="http://www.w3.org/2000/svg" width="474" height="474" fill="none" viewBox="0 0 474 474">
  <g class="Vector">
    <path fill="url(#a)" fill-opacity=".5" d="M446.118 275.194c0 6.328-5.13 11.458-11.458 11.458-6.329 0-11.459-5.13-11.459-11.458s5.13-11.458 11.459-11.458c6.328 0 11.458 5.13 11.458 11.458Z"/>
    <path fill="url(#b)" fill-opacity=".5" fill-rule="evenodd" d="M450.89 450.887V411.26c0-10.283-8.337-18.619-18.62-18.619-10.283 0-18.62 8.336-18.62 18.619v39.627h37.24Zm22.916-39.627c0-17.907-11.332-33.168-27.217-39.002a41.463 41.463 0 0 0-14.319-2.534c-2.948 0-5.824.307-8.597.891-18.815 3.96-32.939 20.653-32.939 40.645v62.543h83.072V411.26Z" clip-rule="evenodd"/>
    <path fill="url(#c)" fill-opacity=".5" fill-rule="evenodd" d="m312.289 243.028-6.8-72.348-22.427 6.284 5.236 55.709h-47.437l4.599-45.172-23.711 6.644-4.972 48.825-.012.124-18.876 207.793h-38.233V346.345c0-6.329-5.13-11.459-11.459-11.459h-18.142v-41.788c0-6.328-5.13-11.458-11.458-11.458H77.061v-46.953l-17.259 4.836a44.315 44.315 0 0 1-5.657 1.196v40.921H40.299a11.458 11.458 0 0 0-10.09 6.03L1.563 340.916a11.46 11.46 0 0 0-1.368 5.429v116c0 6.328 5.13 11.458 11.458 11.458h450.762-71.681v-22.916h-58.349l-20.096-207.859Zm-21.809 12.561h-34.397l38.028 37.56-3.631-37.56Zm-9.827 56.478-43.261-42.729-3.881 42.729h47.142Zm-51.033 42.827-8.72 95.993h78.572l-69.852-95.993Zm13.853-19.911 63.061 86.661-8.379-86.661h-54.682ZM136.739 450.887v-93.084H77.061v93.084h59.678Zm-82.595 0V346.345c0-6.329 5.13-11.459 11.459-11.459h41.536v-30.329H47.146l-24.034 44.674v101.656h31.033Z" clip-rule="evenodd"/>
    <path fill="url(#d)" fill-opacity=".5" fill-rule="evenodd" d="M405.246.638a11.459 11.459 0 0 1 9.622 1.562c28.767 19.694 76.541 81.124 51.375 174.089a11.46 11.46 0 0 1-7.99 8.045l-11.664 3.244v46.094c0 6.328-5.13 11.458-11.458 11.458s-11.458-5.13-11.458-11.458v-39.721l-18.415 5.121c-6.086 1.692-12.395-1.861-14.102-7.944l-11.564-41.212-23.733-84.58-10.058-35.848c-1.704-6.072 1.819-12.38 7.883-14.113L405.246.638Zm-34.3 33.638 39.186 139.654 35.576-9.894c17.317-73.559-17.426-121.924-39.609-139.808l-35.153 10.048Z" clip-rule="evenodd"/>
    <path fill="url(#e)" fill-opacity=".5" d="m42.283 177.001 319.813-89.439-6.237-22.226L36.1 154.935C12.742 161.48-.888 185.722 5.657 209.08c6.018 21.475 26.993 34.727 48.488 31.639a44.315 44.315 0 0 0 5.657-1.196l17.259-4.836 144.688-40.542 23.711-6.644 37.602-10.537 22.427-6.284 74.103-20.764-6.224-22.183-319.749 89.724c-11.171 3.13-22.765-3.389-25.895-14.56-3.13-11.171 3.388-22.765 14.56-25.896Z"/>
    <path fill="url(#f)" fill-opacity=".5" d="M446.589 314.492c0-6.328-5.13-11.458-11.458-11.458s-11.458 5.13-11.458 11.458v56.123a41.684 41.684 0 0 1 8.597-.891c5.032 0 9.855.895 14.319 2.534v-57.766Z"/>
  </g>
  <defs>
    <linearGradient id="a" x1="-53.715" x2="549.229" y1="192.486" y2="286.86" class="a" gradientUnits="userSpaceOnUse">
      <stop stop-color="#3E9AF8"/>
      <stop offset="1" stop-color="#3E9AF8" stop-opacity="0"/>
    </linearGradient>
    <linearGradient id="b" x1="-53.715" x2="549.229" y1="192.486" y2="286.86" class="b" gradientUnits="userSpaceOnUse">
      <stop stop-color="#3E9AF8"/>
      <stop offset="1" stop-color="#3E9AF8" stop-opacity="0"/>
    </linearGradient>
    <linearGradient id="c" x1="-53.715" x2="549.229" y1="192.486" y2="286.86" class="c" gradientUnits="userSpaceOnUse">
      <stop stop-color="#3E9AF8"/>
      <stop offset="1" stop-color="#3E9AF8" stop-opacity="0"/>
    </linearGradient>
    <linearGradient id="d" x1="-53.715" x2="549.229" y1="192.486" y2="286.86" class="d" gradientUnits="userSpaceOnUse">
      <stop stop-color="#3E9AF8"/>
      <stop offset="1" stop-color="#3E9AF8" stop-opacity="0"/>
    </linearGradient>
    <linearGradient id="e" x1="-53.715" x2="549.229" y1="192.486" y2="286.86" class="e" gradientUnits="userSpaceOnUse">
      <stop stop-color="#3E9AF8"/>
      <stop offset="1" stop-color="#3E9AF8" stop-opacity="0"/>
    </linearGradient>
    <linearGradient id="f" x1="-53.715" x2="549.229" y1="192.486" y2="286.86" class="f" gradientUnits="userSpaceOnUse">
      <stop stop-color="#3E9AF8"/>
      <stop offset="1" stop-color="#3E9AF8" stop-opacity="0"/>
    </linearGradient>
  </defs>
</svg>
