<svg xmlns="http://www.w3.org/2000/svg" width="488" height="488" fill="none" viewBox="0 0 488 488">
  <g class="energy" clip-path="url(#a)">
    <g class="energy industry">
      <path fill="url(#b)" fill-opacity=".5" fill-rule="evenodd" d="M173.708 4.14c5.96-2.034 12.44 1.147 14.475 7.106 7.8 22.844 3.443 40.135-.164 53.068-3.785 13.576-4.903 18.333-1.076 24.202 3.44 5.274 1.953 12.339-3.322 15.779-5.274 3.44-12.339 1.952-15.779-3.322-9.737-14.931-5.552-29.588-2.429-40.525.221-.772.436-1.526.641-2.26 3.282-11.77 6.05-23.46.549-39.573-2.035-5.959 1.146-12.44 7.105-14.474Z" class="Vector 35 (Stroke)" clip-rule="evenodd"/>
      <path fill="url(#c)" fill-opacity=".5" fill-rule="evenodd" d="M216.879 4.14c5.959-2.034 12.44 1.147 14.474 7.106 7.802 22.847 3.446 39.9-.179 52.648-3.777 13.284-4.878 17.818-1.06 23.672 3.439 5.275 1.952 12.34-3.322 15.779-5.275 3.44-12.339 1.953-15.779-3.322-9.75-14.949-5.545-29.392-2.413-40.152.221-.756.435-1.494.64-2.213 3.264-11.48 6.034-22.933.533-39.043-2.035-5.959 1.147-12.44 7.106-14.474Z" class="Vector 36 (Stroke)" clip-rule="evenodd"/>
      <path fill="url(#d)" fill-opacity=".5" fill-rule="evenodd" d="M320.454 82.39c0-6.296 5.105-11.401 11.402-11.401h82.664c6.297 0 11.402 5.105 11.402 11.402v134.922c0 6.297-5.105 11.402-11.402 11.402-6.297 0-11.402-5.105-11.402-11.402V93.793h-59.86v182.43h101.667c6.297 0 11.402 5.105 11.402 11.402v162.952h17.103c6.297 0 11.402 5.105 11.402 11.402 0 6.297-5.105 11.402-11.402 11.402H9.277c-6.297 0-11.402-5.105-11.402-11.402 0-6.297 5.105-11.402 11.402-11.402h13.618c15.285-28.888 36.479-75.819 53.717-129.243 18.51-57.365 32.165-121.322 29.593-178.092a11.403 11.403 0 0 1 11.39-11.918H269.62c6.153 0 11.196 4.881 11.396 11.031 1.03 31.643 5.811 81.404 16.657 133.868h22.781V82.391Zm-17.707 216.637c13.695 57.323 34.585 113.862 64.875 151.55h65.901V347.485h-82.664c-6.297 0-11.402-5.105-11.402-11.402 0-6.297 5.105-11.402 11.402-11.402h82.664v-25.654H302.747Zm36.551 151.55c-30.104-44.227-49.643-104.1-61.994-160.514-11.263-51.445-16.79-101.183-18.607-135.935H129.306c.518 57.425-13.334 119.487-30.992 174.209-15.691 48.628-34.59 92.077-49.765 122.24h290.749Z" class="Vector 40 (Stroke)" clip-rule="evenodd"/>
      <path fill="url(#e)" fill-opacity=".5" fill-rule="evenodd" d="M202.955 180.707a11.4 11.4 0 0 1 8.228 10.951v62.71h42.757a11.403 11.403 0 0 1 9.517 17.681l-75.538 114.494A11.401 11.401 0 0 1 167 380.264v-54.827l-44.377-.759a11.401 11.401 0 0 1-9.44-17.497l76.963-121.62a11.402 11.402 0 0 1 12.809-4.854Zm-59.649 121.518 35.291.603c6.22.106 11.207 5.179 11.207 11.4v28.05l42.954-65.106h-32.977c-6.297 0-11.402-5.105-11.402-11.402v-34.772l-45.073 71.227Z" class="Vector 41 (Stroke)" clip-rule="evenodd"/>
      <path fill="#E6F2FE" d="M425.925 252.467c0 6.297-5.105 11.402-11.402 11.402-6.297 0-11.402-5.105-11.402-11.402 0-6.297 5.105-11.402 11.402-11.402 6.297 0 11.402 5.105 11.402 11.402Z" class="Ellipse 890"/>
    </g>
  </g>
  <defs>
    <linearGradient id="b" x1="158.283" x2="198.304" y1="45.191" y2="47.069" class="b" gradientUnits="userSpaceOnUse">
      <stop stop-color="#3E9AF8"/>
      <stop offset="1" stop-color="#3E9AF8" stop-opacity="0"/>
    </linearGradient>
    <linearGradient id="c" x1="201.453" x2="241.473" y1="44.806" y2="46.701" class="c" gradientUnits="userSpaceOnUse">
      <stop stop-color="#3E9AF8"/>
      <stop offset="1" stop-color="#3E9AF8" stop-opacity="0"/>
    </linearGradient>
    <linearGradient id="d" x1="-57.555" x2="555.57" y1="234.364" y2="350.499" class="d" gradientUnits="userSpaceOnUse">
      <stop stop-color="#3E9AF8"/>
      <stop offset="1" stop-color="#3E9AF8" stop-opacity="0"/>
    </linearGradient>
    <linearGradient id="e" x1="93.895" x2="292.081" y1="266.091" y2="288.676" class="e" gradientUnits="userSpaceOnUse">
      <stop stop-color="#3E9AF8"/>
      <stop offset="1" stop-color="#3E9AF8" stop-opacity="0"/>
    </linearGradient>
    <clipPath id="a" class="a">
      <path fill="#fff" d="M.521.27h486.957v486.957H.521z"/>
    </clipPath>
  </defs>
</svg>
