<svg xmlns="http://www.w3.org/2000/svg" width="486" height="482" fill="none" viewBox="0 0 486 482">
  <g class="Vector">
    <path fill="url(#a)" fill-opacity=".5" d="M407.54 360.635v-80.418c0-4.98-4.064-9.018-9.077-9.018h-75.336c-5.013 0-9.077 4.038-9.077 9.018v80.418h18.154v-71.399h57.182v71.399h18.154Z"/>
    <path fill="url(#b)" fill-opacity=".5" fill-rule="evenodd" d="M235.991 360.635V253.161c0-15.856-5.078-30.903-14.687-43.513-8.828-11.586-21.192-20.375-34.998-24.945l-59.573-56.313 185.466-22.416a62.953 62.953 0 0 0 10.927 9.593v29.372h-9.077a9.081 9.081 0 0 0-8.118 4.985l-18.153 36.074a8.976 8.976 0 0 0 1.7 10.41l36.306 36.074c3.544 3.521 9.292 3.521 12.837 0a8.98 8.98 0 0 0 0-12.756l-31.681-31.477 12.72-25.275h79.547l12.719 25.275-31.681 31.477a8.981 8.981 0 0 0 0 12.756 9.082 9.082 0 0 0 6.418 2.641 9.085 9.085 0 0 0 6.419-2.641l36.306-36.074a8.977 8.977 0 0 0 1.7-10.41l-18.154-36.074a9.081 9.081 0 0 0-8.118-4.985h-9.077v-29.368c16.915-11.735 27.23-31.121 27.23-51.8 0-34.81-28.503-63.13-63.537-63.13-23.586 0-44.936 12.856-55.946 33.2L82.304 38.522a9.126 9.126 0 0 0-2.292.352 64.082 64.082 0 0 0-16.476-2.158C28.502 36.716 0 65.036 0 99.846c0 33.632 26.607 61.201 60.005 63.027l41.267 52.917c-6.885 11.237-10.505 24.021-10.505 37.371l.358 107.474h17.794v-59.827c13.316 15.008 32.788 24.502 54.46 24.502 21.672 0 41.144-9.495 54.46-24.502v59.827h18.152Zm105.29-215.696h36.306l.001-20.668a64.07 64.07 0 0 1-18.154 2.63 64.057 64.057 0 0 1-18.153-2.63v20.668Zm18.152-126.26c-18.294 0-34.714 10.825-41.832 27.573-2.355 5.538-3.549 11.433-3.55 17.52 0 9.92 3.179 19.329 9.192 27.206a45.168 45.168 0 0 0 13.505 11.857c6.86 3.945 14.705 6.03 22.685 6.03 7.98 0 15.824-2.084 22.683-6.029 14.003-8.046 22.7-23.014 22.7-39.064 0-24.863-20.359-45.092-45.383-45.092ZM178.954 201.302l-.018-.006a54.423 54.423 0 0 0-15.557-2.244c-17.343 0-33.253 7.93-43.649 21.757-7.073 9.396-10.811 20.582-10.811 32.354 0 29.837 24.43 54.111 54.46 54.111 30.029 0 54.46-24.273 54.46-54.111 0-23.769-15.99-45.094-38.885-51.861Zm116.944-137.53c0-3.982.381-7.905 1.11-11.752L109.26 55.992c11.171 11.51 17.813 27.095 17.813 43.854 0 3.53-.305 7.014-.879 10.44L301.227 89.13c-3.505-7.915-5.329-16.49-5.329-25.358ZM18.153 99.847c0 24.252 19.37 44.084 43.546 45.046a9.158 9.158 0 0 1 4.767-.07c15.347-1.009 29.264-9.698 36.762-23.09a46.315 46.315 0 0 0 2.138-4.361c2.358-5.543 3.552-11.437 3.552-17.525 0-19.352-12.382-36.522-30.814-42.725a45.779 45.779 0 0 0-14.569-2.367c-25.023 0-45.382 20.228-45.382 45.092Zm94.453 40.084A63.968 63.968 0 0 1 81.117 160.5l31.819 40.801c11.776-11.266 27.171-18.363 43.493-19.945l-43.823-41.425Z" clip-rule="evenodd"/>
    <path fill="url(#c)" fill-opacity=".5" fill-rule="evenodd" d="M425.25 383.271H60.75c-20.97 0-37.969 16.89-37.969 37.726 0 20.835 17 37.725 37.969 37.725h364.5c20.97 0 37.969-16.89 37.969-37.725 0-20.836-16.999-37.726-37.969-37.726Zm-364.5-22.636C27.199 360.635 0 387.66 0 420.997c0 33.336 27.199 60.361 60.75 60.361h364.5c33.551 0 60.75-27.025 60.75-60.361 0-33.337-27.199-60.362-60.75-60.362H60.75Z" clip-rule="evenodd"/>
    <path fill="url(#d)" fill-opacity=".5" d="M102.516 420.998c0 6.25-5.1 11.317-11.391 11.317-6.29 0-11.39-5.067-11.39-11.317 0-6.251 5.1-11.318 11.39-11.318 6.29 0 11.391 5.067 11.391 11.318Z"/>
    <path fill="url(#e)" fill-opacity=".5" d="M163.266 420.998c0 6.25-5.1 11.317-11.391 11.317s-11.391-5.067-11.391-11.317c0-6.251 5.1-11.318 11.391-11.318s11.391 5.067 11.391 11.318Z"/>
    <path fill="url(#f)" fill-opacity=".5" d="M224.016 420.998c0 6.25-5.1 11.317-11.391 11.317s-11.391-5.067-11.391-11.317c0-6.251 5.1-11.318 11.391-11.318s11.391 5.067 11.391 11.318Z"/>
    <path fill="url(#g)" fill-opacity=".5" d="M284.766 420.998c0 6.25-5.1 11.317-11.391 11.317s-11.391-5.067-11.391-11.317c0-6.251 5.1-11.318 11.391-11.318s11.391 5.067 11.391 11.318Z"/>
    <path fill="url(#h)" fill-opacity=".5" d="M345.516 420.998c0 6.25-5.1 11.317-11.391 11.317s-11.391-5.067-11.391-11.317c0-6.251 5.1-11.318 11.391-11.318s11.391 5.067 11.391 11.318Z"/>
    <path fill="url(#i)" fill-opacity=".5" d="M406.266 420.998c0 6.25-5.1 11.317-11.391 11.317s-11.391-5.067-11.391-11.317c0-6.251 5.1-11.318 11.391-11.318s11.391 5.067 11.391 11.318Z"/>
  </g>
  <defs>
    <linearGradient id="a" x1="-55.321" x2="563.069" y1="195.818" y2="293.673" class="a" gradientUnits="userSpaceOnUse">
      <stop stop-color="#3E9AF8"/>
      <stop offset="1" stop-color="#3E9AF8" stop-opacity="0"/>
    </linearGradient>
    <linearGradient id="b" x1="-55.321" x2="563.069" y1="195.818" y2="293.673" class="b" gradientUnits="userSpaceOnUse">
      <stop stop-color="#3E9AF8"/>
      <stop offset="1" stop-color="#3E9AF8" stop-opacity="0"/>
    </linearGradient>
    <linearGradient id="c" x1="-55.321" x2="563.069" y1="195.818" y2="293.673" class="c" gradientUnits="userSpaceOnUse">
      <stop stop-color="#3E9AF8"/>
      <stop offset="1" stop-color="#3E9AF8" stop-opacity="0"/>
    </linearGradient>
    <linearGradient id="d" x1="-55.321" x2="563.069" y1="195.818" y2="293.673" class="d" gradientUnits="userSpaceOnUse">
      <stop stop-color="#3E9AF8"/>
      <stop offset="1" stop-color="#3E9AF8" stop-opacity="0"/>
    </linearGradient>
    <linearGradient id="e" x1="-55.321" x2="563.069" y1="195.818" y2="293.673" class="e" gradientUnits="userSpaceOnUse">
      <stop stop-color="#3E9AF8"/>
      <stop offset="1" stop-color="#3E9AF8" stop-opacity="0"/>
    </linearGradient>
    <linearGradient id="f" x1="-55.321" x2="563.069" y1="195.818" y2="293.673" class="f" gradientUnits="userSpaceOnUse">
      <stop stop-color="#3E9AF8"/>
      <stop offset="1" stop-color="#3E9AF8" stop-opacity="0"/>
    </linearGradient>
    <linearGradient id="g" x1="-55.321" x2="563.069" y1="195.818" y2="293.673" class="g" gradientUnits="userSpaceOnUse">
      <stop stop-color="#3E9AF8"/>
      <stop offset="1" stop-color="#3E9AF8" stop-opacity="0"/>
    </linearGradient>
    <linearGradient id="h" x1="-55.321" x2="563.069" y1="195.818" y2="293.673" class="h" gradientUnits="userSpaceOnUse">
      <stop stop-color="#3E9AF8"/>
      <stop offset="1" stop-color="#3E9AF8" stop-opacity="0"/>
    </linearGradient>
    <linearGradient id="i" x1="-55.321" x2="563.069" y1="195.818" y2="293.673" class="i" gradientUnits="userSpaceOnUse">
      <stop stop-color="#3E9AF8"/>
      <stop offset="1" stop-color="#3E9AF8" stop-opacity="0"/>
    </linearGradient>
  </defs>
</svg>
