<svg width="49" height="49" viewBox="0 0 49 49" fill="none" xmlns="http://www.w3.org/2000/svg">
    <rect x="0.833984" y="1.24756" width="47" height="47" rx="7.5"/>
    <rect x="0.833984" y="1.24756" width="47" height="47" rx="7.5" stroke="#2A7DEC"/>
    <path d="M23.583 27.9295V34.0551C23.5834 34.1082 23.5724 34.1607 23.551 34.2093C23.5295 34.2578 23.4979 34.3013 23.4584 34.3367C23.4189 34.3722 23.3723 34.3988 23.3217 34.4149C23.2711 34.431 23.2176 34.4362 23.1649 34.4301C21.4319 34.2172 19.7875 33.5442 18.4026 32.4808C17.0177 31.4174 15.9429 30.0025 15.2899 28.3832C15.2704 28.334 15.2615 28.2812 15.2639 28.2283C15.2662 28.1754 15.2797 28.1236 15.3036 28.0763C15.3274 28.029 15.361 27.9873 15.4021 27.9539C15.4432 27.9205 15.4909 27.8962 15.5421 27.8826L21.4568 26.2945C21.5325 26.2746 21.6125 26.2789 21.6856 26.3068C21.7588 26.3347 21.8213 26.3848 21.8646 26.4501C22.2227 26.9682 22.7337 27.3615 23.3261 27.5751C23.4007 27.5998 23.4656 27.6473 23.5116 27.7109C23.5577 27.7745 23.5827 27.8509 23.583 27.9295ZM24.3386 14.9976C24.2397 14.9968 24.1415 15.0157 24.0499 15.053C23.9583 15.0904 23.8749 15.1455 23.8047 15.2153C23.7344 15.285 23.6787 15.3679 23.6406 15.4593C23.6026 15.5506 23.583 15.6486 23.583 15.7476V20.9976C23.5815 21.1948 23.6584 21.3846 23.7967 21.5253C23.9351 21.6659 24.1236 21.7458 24.3208 21.7476C25.0291 21.7445 25.7157 21.9922 26.2589 22.4467C26.8022 22.9013 27.1671 23.5334 27.289 24.2312C27.4109 24.9289 27.282 25.6473 26.9251 26.2591C26.5682 26.871 26.0063 27.3368 25.3389 27.5741C25.2644 27.5991 25.1997 27.6468 25.1537 27.7106C25.1078 27.7743 25.0831 27.8509 25.083 27.9295V34.0551C25.0827 34.1081 25.0936 34.1606 25.115 34.209C25.1364 34.2575 25.1679 34.3009 25.2073 34.3364C25.2467 34.3718 25.2932 34.3985 25.3437 34.4146C25.3942 34.4308 25.4475 34.436 25.5002 34.4301C27.971 34.1379 30.2365 32.9121 31.833 31.0039C33.4295 29.0957 34.2361 26.6494 34.0877 24.1658C33.9392 21.6823 32.8469 19.3494 31.0345 17.645C29.2221 15.9405 26.8266 14.9934 24.3386 14.9976ZM21.3386 24.5123C21.3735 24.0693 21.5064 23.6395 21.7277 23.2541V23.2476C21.802 23.1192 21.8366 22.9717 21.8271 22.8237C21.8176 22.6757 21.7644 22.5338 21.6743 22.416C21.6112 22.335 21.5328 22.2671 21.4436 22.2163L16.9127 19.597C16.8273 19.5477 16.7331 19.5158 16.6354 19.503C16.5377 19.4902 16.4384 19.4968 16.3432 19.5224C16.2481 19.548 16.1589 19.5921 16.0808 19.6522C16.0027 19.7123 15.9372 19.7872 15.888 19.8726C14.7969 21.7624 14.3704 23.9633 14.6768 26.1238C14.684 26.1766 14.7024 26.2272 14.7307 26.2722C14.7589 26.3173 14.7965 26.3559 14.8409 26.3853C14.8852 26.4147 14.9353 26.4344 14.9878 26.443C15.0404 26.4516 15.0941 26.4489 15.1455 26.4351L21.0724 24.8413C21.1458 24.821 21.2112 24.7785 21.2596 24.7196C21.3079 24.6607 21.3368 24.5883 21.3424 24.5123H21.3386Z" fill="#2A7DEC"/>
</svg>
