<svg width="360" height="66" viewBox="0 0 360 66" fill="none" xmlns="http://www.w3.org/2000/svg">
<g clip-path="url(#clip0_1_44)">
<path d="M149.052 33.3143C149.836 32.5286 150.072 32.3715 151.327 31.5857C152.111 31.1143 160.427 27.0286 160.427 27.0286C160.427 27.0286 164.585 26.2429 164.349 33.4714C164.114 40.7786 152.19 39.8357 152.19 39.8357C152.19 39.8357 144.345 37.7929 149.052 33.3143Z" fill="white"/>
<path d="M99.0804 26.557H89.1174C89.039 26.4784 88.9605 26.3998 88.8821 26.3998C86.9209 22.8641 83.3907 22.157 79.7036 23.1784C76.0165 24.1998 74.2122 26.9498 73.5847 30.5641C73.1924 33.0784 73.3493 35.5141 74.4476 37.7927C76.0166 41.2498 79.3114 43.057 83.1554 42.8213C86.1364 42.5856 88.4114 41.2498 89.5881 38.4213C89.745 38.107 89.745 37.7927 89.9019 37.3213H80.3312V30.7998H98.9235C99.0019 30.8784 99.0804 30.8784 99.0804 30.957C100.963 42.4284 92.1769 50.0498 84.0183 50.6784C75.8597 51.307 68.4855 46.8284 65.8967 39.2856C62.0527 27.8141 68.407 17.3641 78.6053 15.3213C85.5088 13.907 91.6278 15.6356 96.3347 21.2927C97.5899 22.707 98.4528 24.5141 99.0804 26.557Z" fill="#00529F"/>
<path d="M34.282 50.3643H25.182C24.5544 48.4786 23.9268 46.5928 23.2992 44.6286H10.9043C10.2767 46.5143 9.64916 48.4 9.02157 50.3643H0C4.00087 38.6571 8.00174 26.95 12.0026 15.3214H22.3578C26.2802 26.95 30.2811 38.5786 34.282 50.3643ZM17.2587 26.0071H17.0233C15.7681 29.9357 14.4345 33.8643 13.1793 37.8714H21.1811C19.769 33.8643 18.5138 29.9357 17.2587 26.0071Z" fill="#00529F"/>
<path d="M35.9294 39.8358H44.7941C44.8725 40.0715 44.951 40.3072 45.0294 40.5429C45.7354 43.5286 48.4027 44.7858 51.1484 43.5286C52.4036 42.9786 53.0312 42.0358 53.1096 40.7C53.188 39.3643 52.6389 38.3429 51.4622 37.5572C50.0501 36.6143 48.4027 36.2215 46.8337 35.6715C44.6372 34.8858 42.3622 34.2572 40.2441 33.2358C36.9492 31.6643 35.694 28.6786 35.8509 25.1429C36.0863 20.2715 38.832 16.8929 43.7742 15.4786C47.7751 14.3 51.8544 14.4572 55.7768 16.1072C59.5424 17.7572 61.8174 21.45 61.4251 25.4572H52.482C52.0898 24.6715 51.6975 23.8072 51.2268 23.1C50.0501 21.3715 47.0691 21.1358 45.5785 22.6286C44.3234 23.8858 44.4803 26.4 45.8923 27.5786C46.7553 28.2858 47.7751 28.7572 48.7949 29.15C50.7561 29.8572 52.7958 30.25 54.757 30.9572C55.7769 31.2715 56.7182 31.7429 57.6596 32.2143C60.9544 33.9429 62.2096 36.9286 61.9743 40.4643C61.7389 44.8643 59.307 47.85 55.4631 49.5C50.7561 51.5429 45.8923 51.3858 41.1854 49.1072C37.6553 47.3786 35.9294 44.3143 35.7725 40.3858C35.8509 40.2286 35.8509 40.0715 35.9294 39.8358Z" fill="#00529F"/>
<path d="M149.052 33.3143C148.895 33.7072 148.738 34.1 148.581 34.4143C147.797 36.6143 148.66 38.3429 150.856 38.8929C153.053 39.4429 155.25 39.3643 157.289 38.4215C159.956 37.1643 161.682 34.9643 162.859 32.2929C163.016 31.9 163.408 31.5857 163.722 31.1929C163.8 31.1929 163.879 31.2715 164.036 31.2715C163.644 30.3286 163.251 29.4643 162.859 28.3643C162.075 29.0715 161.368 29.7 160.662 30.4072C160.741 30.4072 160.819 30.4857 160.898 30.4857C160.819 30.9572 160.898 31.4286 160.741 31.8215C159.329 35.1215 157.054 37.4 153.288 37.7929C152.739 37.8715 152.112 37.7929 151.562 37.7143C149.366 37.3215 148.503 35.2 149.915 33.2357C149.915 33.3143 149.993 33.3143 149.993 33.3929C150.229 35.9857 151.876 37.0857 154.387 36.1429C155.72 35.6715 156.818 34.7286 157.838 33.7072C158.074 33.4715 158.466 33.2357 158.858 32.9215C158.701 32.2143 158.544 31.4286 158.309 30.4072C157.525 30.9572 156.818 31.35 156.112 31.9C156.662 32.5286 156.269 33 155.956 33.55C155.328 34.4143 154.543 34.9643 153.445 35.1215C151.876 35.3572 150.935 34.5715 150.935 33C150.856 29.8572 153.131 26.7929 156.269 25.85C159.25 24.9857 162.31 26.0072 164.271 28.4429C166.075 30.8 166.311 34.2572 164.82 36.85C163.251 39.5215 160.349 40.9357 157.289 40.4643C156.818 40.3857 156.269 40.4643 155.72 40.6215C153.759 41.0143 151.798 40.9357 149.993 39.8357C147.483 38.3429 147.169 35.6715 149.131 33.6286C148.817 33.4715 148.895 33.4715 149.052 33.3143Z" fill="#5C92CD"/>
<path d="M196.906 48.0858H194.003V34.7286H178.627V48.0858H175.646V18.9358H178.549V32.0572H193.925V18.9358H196.906V48.0858Z" fill="#4D4D4F"/>
<path d="M170.704 26.5572H167.174C167.095 26.4787 166.938 26.3215 166.86 26.243C164.35 22.2358 160.662 20.9787 156.191 21.293C150.543 21.7644 146.071 26.4001 145.993 32.9215C145.914 36.0644 146.542 39.0501 148.503 41.5644C152.268 46.3572 159.878 47.3001 164.585 43.4501C165.448 42.743 166.075 41.8787 166.703 41.0144C167.017 40.543 167.331 40.3072 167.88 40.3858C168.743 40.3858 169.606 40.3858 170.625 40.3858C170.39 40.8572 170.312 41.1715 170.155 41.4858C168.586 44.3144 166.311 46.3572 163.33 47.3787C159.015 48.9501 154.622 48.9501 150.464 46.7501C144.973 43.843 142.384 38.5001 142.855 32.3715C143.247 26.4787 146.149 22.0787 151.562 19.8001C157.132 17.5215 162.545 18.1501 167.331 22.0001C168.821 23.1001 169.841 24.6715 170.704 26.5572Z" fill="#4D4D4F"/>
<path d="M140.187 45.65V48.0072H125.518V18.8572H140.187V21.2143H128.577V32.1357H138.932V34.5715H128.577V45.65H140.187Z" fill="#4D4D4F"/>
<path d="M114.378 48.0858H111.397V21.2929H103.866V18.8572H121.83V21.2929H114.378V48.0858Z" fill="#4D4D4F"/>
<path d="M159.25 36.6143C162.702 36.6143 165.605 34.1786 165.605 31.2714C165.605 28.3643 162.702 25.9286 159.25 25.9286C155.799 25.9286 152.896 28.3643 152.896 31.2714C152.896 34.1786 155.72 36.6143 159.25 36.6143Z" fill="#5E9CD4"/>
<path d="M159.878 34.8072C162.31 34.8072 164.35 32.9215 164.35 30.6429C164.35 28.3644 162.388 26.4786 159.878 26.4786C157.446 26.4786 155.406 28.3644 155.406 30.6429C155.406 32.9215 157.446 34.8072 159.878 34.8072Z" fill="#4AA7DD"/>
<path d="M261.312 9.7428H258.801V15.7928H259.821V13.7499H261.312C261.939 13.7499 262.489 13.5928 262.802 13.1214C263.273 12.8071 263.43 12.2571 263.43 11.6285C263.43 10.9999 263.273 10.6071 262.802 10.2928C262.489 9.89994 261.939 9.7428 261.312 9.7428ZM261.312 12.8857H259.821V10.6857H261.312C261.626 10.6857 261.939 10.8428 262.175 10.9999C262.332 11.3142 262.489 11.4714 262.489 11.7071C262.489 12.1785 262.332 12.3357 262.175 12.5714C261.939 12.7285 261.626 12.8857 261.312 12.8857Z" fill="#4C4D4F"/>
<path d="M268.451 15.8714H269.47L267.117 9.82141H265.94L263.587 15.8714H264.607L265.234 14.2214H267.902L268.451 15.8714ZM265.47 13.3571L266.489 10.8428L267.352 13.3571H265.47Z" fill="#4C4D4F"/>
<path d="M274.177 15.8714H275.354L273.55 13.5142C274.02 13.5142 274.413 13.1999 274.727 12.8857C274.883 12.5714 275.04 12.1785 275.04 11.7071C275.04 11.0785 274.883 10.6857 274.57 10.3714C274.099 9.89994 273.707 9.7428 273.079 9.7428H270.647V15.7928H271.51V13.4357H272.53L274.177 15.8714ZM271.51 10.6857H273.001C273.471 10.6857 273.707 10.8428 273.864 10.9999C274.02 11.1571 274.177 11.4714 274.177 11.7071C274.177 12.0214 274.02 12.3357 273.864 12.4142C273.707 12.5714 273.393 12.7285 273.001 12.7285H271.51V10.6857Z" fill="#4C4D4F"/>
<path d="M281.316 9.7428H276.688V10.6857H278.492V15.8714H279.512V10.6857H281.316V9.7428Z" fill="#4C4D4F"/>
<path d="M288.22 9.58569C287.592 9.58569 287.043 9.74284 286.572 10.0571C286.102 10.3714 285.866 10.6857 285.552 11.2357C285.239 11.7071 285.082 12.1 285.082 12.7286C285.082 13.3571 285.239 13.9071 285.552 14.3786C285.866 14.85 286.18 15.2428 286.572 15.4C287.043 15.7143 287.592 15.8714 288.22 15.8714C288.847 15.8714 289.396 15.7143 289.867 15.4C290.338 15.2428 290.573 14.7714 290.887 14.3786C291.201 13.9071 291.358 13.3571 291.358 12.7286C291.358 12.1 291.201 11.7071 290.887 11.2357C290.573 10.6071 290.259 10.3714 289.867 10.0571C289.475 9.74284 288.847 9.58569 288.22 9.58569ZM288.22 10.6857C288.69 10.6857 288.926 10.6857 289.24 11C289.71 11.1571 289.867 11.4714 289.946 11.7071C290.259 12.0214 290.259 12.3357 290.259 12.7286C290.259 13.2 290.259 13.5928 289.946 13.9071C289.789 14.2214 289.632 14.5357 289.24 14.6143C288.926 14.7714 288.612 14.9286 288.22 14.9286C287.749 14.9286 287.514 14.7714 287.2 14.6143C286.729 14.4571 286.572 14.1428 286.494 13.9071C286.18 13.5928 286.18 13.2 286.18 12.7286C286.18 12.2571 286.18 12.0214 286.494 11.7071C286.651 11.3928 286.808 11.0786 287.2 11C287.514 10.6857 287.827 10.6857 288.22 10.6857Z" fill="#4C4D4F"/>
<path d="M296.692 10.6857V9.7428H292.691V15.8714H293.711V13.1999H296.535V12.2571H293.711V10.6857H296.692Z" fill="#4C4D4F"/>
<path d="M305.008 9.7428H300.379V10.6857H302.183V15.8714H303.203V10.6857H305.008V9.7428Z" fill="#4C4D4F"/>
<path d="M310.342 9.7428V12.2571H307.204V9.7428H306.184V15.8714H307.204V13.1999H310.342V15.8714H311.205V9.7428H310.342Z" fill="#4C4D4F"/>
<path d="M316.853 10.6857V9.7428H312.931V15.8714H316.853V14.7714H313.872V13.1999H316.696V12.2571H313.872V10.6857H316.853Z" fill="#4C4D4F"/>
<path d="M269.941 36.85H272.452L266.96 22.9429H264.136L258.801 36.85H261.155L262.489 33H268.529L269.941 36.85ZM263.43 30.9572L265.627 25.1429L267.666 30.9572H263.43Z" fill="#4C4D4F"/>
<path d="M282.179 21.45V27.8142C281.708 27.1071 281.316 26.6357 280.532 26.1642C279.904 25.85 279.198 25.5357 278.335 25.5357C277.315 25.5357 276.531 25.85 275.825 26.2428C275.119 26.8714 274.491 27.4214 274.02 28.2857C273.55 29.15 273.314 30.0928 273.314 31.2714C273.314 32.2928 273.628 33.3142 274.02 34.2571C274.334 34.9642 274.883 35.75 275.825 36.2214C276.531 36.6928 277.315 36.9285 278.335 36.9285C279.198 36.9285 279.983 36.7714 280.532 36.3C281.238 35.9857 281.708 35.4357 282.179 34.8071V36.7714H284.376V21.45H282.179ZM278.806 34.9642C277.943 34.9642 277.158 34.4928 276.452 33.9428C275.825 33.3142 275.589 32.45 275.589 31.4285C275.589 30.4071 275.903 29.4642 276.452 28.7571C277.158 28.1285 277.943 27.8928 278.806 27.8928C279.826 27.8928 280.61 28.2071 281.159 28.7571C281.865 29.4642 282.179 30.4071 282.179 31.4285C282.179 32.45 281.865 33.3928 281.159 33.9428C280.532 34.4928 279.826 34.9642 278.806 34.9642Z" fill="#4C4D4F"/>
<path d="M294.339 25.9286L291.515 34.4929L288.533 25.9286H286.18L290.024 36.85H292.848L296.692 25.9286H294.339Z" fill="#4C4D4F"/>
<path d="M306.341 25.9285V27.8928C305.871 27.1857 305.478 26.7143 304.851 26.2428C304.145 25.9285 303.36 25.6143 302.497 25.6143C301.634 25.6143 300.693 25.9285 299.987 26.3214C299.281 26.95 298.653 27.5 298.183 28.3643C297.712 29.2285 297.555 30.1714 297.477 31.35C297.633 32.3714 297.79 33.3928 298.183 34.3357C298.653 35.0428 299.202 35.8285 299.987 36.3C300.693 36.7714 301.634 37.0071 302.497 37.0071C303.36 37.0071 304.145 36.85 304.851 36.3785C305.478 36.0643 305.871 35.5143 306.341 34.8857V36.85H308.538V25.9285H306.341ZM303.046 34.9643C302.027 34.9643 301.242 34.4928 300.693 33.9428C300.065 33.3143 299.83 32.45 299.83 31.4285C299.83 30.4071 300.144 29.4643 300.693 28.7571C301.321 28.1285 302.027 27.8928 303.046 27.8928C303.909 27.8928 304.851 28.2071 305.4 28.7571C306.027 29.4643 306.263 30.4071 306.263 31.4285C306.263 32.45 305.949 33.3928 305.4 33.9428C304.851 34.4928 303.909 34.9643 303.046 34.9643Z" fill="#4C4D4F"/>
<path d="M317.089 25.6143C316.226 25.6143 315.441 25.9285 314.892 26.2428C314.265 26.5571 313.872 27.1071 313.402 27.7357V25.9285H311.205V36.9285H313.402V31.1143C313.402 30.0928 313.715 29.3071 314.108 28.7571C314.735 28.1285 315.284 27.8928 316.304 27.8928C317.167 27.8928 317.795 28.05 318.109 28.5214C318.579 28.9928 318.736 29.5428 318.736 30.4857V37.0071H320.933V30.0143C320.933 28.6785 320.619 27.6571 319.913 26.8714C319.364 26.0857 318.265 25.6143 317.089 25.6143Z" fill="#4C4D4F"/>
<path d="M328.778 37.0072C329.64 37.0072 330.425 36.85 331.131 36.5357C331.837 36.2214 332.465 35.6714 333.092 35.0429C333.72 34.4143 333.955 33.7072 334.112 32.8429H331.759C331.602 33.4714 331.131 34.0214 330.739 34.3357C330.111 34.8072 329.562 34.9643 328.778 34.9643C327.758 34.9643 326.973 34.65 326.267 33.9429C325.64 33.3143 325.404 32.45 325.404 31.4286C325.404 30.4072 325.718 29.4643 326.267 28.7572C326.895 28.1286 327.758 27.7357 328.778 27.7357C329.484 27.7357 330.111 28.05 330.739 28.3643C331.209 28.8357 331.602 29.2286 331.759 30.0143H334.112C333.955 29.15 333.641 28.3643 333.092 27.6572C332.621 27.0286 331.915 26.6357 331.131 26.3214C330.425 25.85 329.64 25.6929 328.778 25.6929C327.758 25.6929 326.738 26.0072 325.796 26.4C325.09 27.0286 324.306 27.5786 323.835 28.4429C323.365 29.3072 323.129 30.25 323.129 31.4286C323.129 32.45 323.443 33.4714 323.835 34.2572C324.306 35.1214 325.012 35.9072 325.796 36.3C326.738 36.7714 327.758 37.0072 328.778 37.0072Z" fill="#4C4D4F"/>
<path d="M341.565 25.6143C340.388 25.6143 339.525 25.9285 338.584 26.3214C337.721 26.95 337.093 27.5 336.622 28.3643C335.995 29.2285 335.916 30.1714 335.916 31.35C335.916 32.3714 336.073 33.3928 336.622 34.3357C337.093 35.0428 337.642 35.8285 338.584 36.3C339.447 36.7714 340.388 37.0071 341.565 37.0071C342.741 37.0071 343.761 36.6928 344.703 36.1428C345.722 35.5143 346.35 34.65 346.742 33.4714H344.546C344.232 34.1 343.84 34.3357 343.369 34.65C342.741 34.9643 342.349 35.1214 341.565 35.1214C340.702 35.1214 339.917 34.8071 339.211 34.2571C338.584 33.7857 338.348 33.0785 338.191 32.0571H347.056C347.056 30.8785 346.899 29.8571 346.428 28.8357C345.958 27.9714 345.409 27.1857 344.467 26.6357C343.604 25.9285 342.741 25.6143 341.565 25.6143ZM341.565 27.5785C342.271 27.7357 343.055 27.8928 343.526 28.2857C344.153 28.7571 344.389 29.3071 344.703 30.25H338.348C338.505 29.3857 338.976 28.7571 339.368 28.2857C339.917 27.8143 340.623 27.6571 341.565 27.5785Z" fill="#4C4D4F"/>
<path d="M357.803 21.45V27.8142C357.333 27.1071 356.784 26.6357 356.156 26.1642C355.528 25.85 354.822 25.5357 353.959 25.5357C352.94 25.5357 352.155 25.85 351.292 26.2428C350.586 26.8714 349.959 27.4214 349.645 28.2857C349.174 29.15 348.939 30.0928 348.939 31.2714C348.939 32.2928 349.253 33.3142 349.566 34.2571C350.037 34.9642 350.586 35.75 351.371 36.2214C352.234 36.6928 353.018 36.9285 354.038 36.9285C354.901 36.9285 355.685 36.7714 356.234 36.3C356.862 35.9857 357.411 35.4357 357.882 34.8071V36.7714H360.078V21.45H357.803ZM354.43 34.9642C353.567 34.9642 352.626 34.4928 352.077 33.9428C351.449 33.3142 351.214 32.45 351.214 31.4285C351.214 30.4071 351.528 29.4642 352.077 28.7571C352.704 28.1285 353.567 27.8928 354.43 27.8928C355.45 27.8928 356.234 28.2071 356.784 28.7571C357.411 29.4642 357.803 30.4071 357.803 31.4285C357.803 32.45 357.333 33.3928 356.784 33.9428C356.156 34.4928 355.45 34.9642 354.43 34.9642Z" fill="#4C4D4F"/>
<path d="M265.627 47.2214V49.0285H270.804C270.647 50.2071 270.098 51.0714 269.314 51.7C268.451 52.4071 267.509 52.7214 266.333 52.7214C265.313 52.7214 264.371 52.4071 263.665 52.0142C262.959 51.5428 262.332 50.9928 262.018 50.2071C261.547 49.4999 261.39 48.5571 261.39 47.6928C261.39 46.1999 261.861 44.8642 262.724 43.9999C263.587 43.1357 264.764 42.6642 266.254 42.5071C267.117 42.6642 268.058 42.8214 268.764 43.2142C269.47 43.6857 270.098 44.2357 270.412 45.1785H272.922C272.452 43.6857 271.589 42.6642 270.412 41.7999C269.235 40.9357 267.902 40.4642 266.254 40.4642C264.92 40.4642 263.587 40.7785 262.567 41.3285C261.547 42.0357 260.606 42.8214 260.057 43.9999C259.429 45.0214 259.194 46.1999 259.194 47.6928C259.194 49.0285 259.508 50.2071 260.057 51.3857C260.684 52.4071 261.547 53.3499 262.567 53.8999C263.587 54.5285 264.764 54.7642 266.097 54.7642C267.274 54.7642 268.294 54.4499 269.235 53.8999C270.098 53.4285 270.726 52.7214 271.039 51.8571V54.5285H273.001V47.2999H265.627V47.2214Z" fill="#4C4D4F"/>
<path d="M281.708 43.3715C280.846 43.3715 280.061 43.5286 279.512 44C278.884 44.4715 278.492 45.0215 278.178 45.8072V43.7643H275.982V54.6072H278.178V49.7357C278.178 48.4 278.492 47.3786 279.198 46.75C279.826 46.1215 280.689 45.8857 281.708 45.8857C282.022 45.8857 282.179 45.8857 282.414 45.8857V43.5286C282.336 43.3715 282.022 43.3715 281.708 43.3715Z" fill="#4C4D4F"/>
<path d="M289.318 43.3715C288.298 43.3715 287.357 43.6857 286.494 44.0786C285.631 44.55 285.003 45.2572 284.454 46.1215C283.983 46.8286 283.748 47.9286 283.748 48.95C283.748 50.1286 284.062 50.9929 284.454 51.9357C284.925 52.8 285.631 53.5857 286.494 53.9786C287.2 54.45 288.298 54.6857 289.318 54.6857C290.338 54.6857 291.358 54.3715 292.142 53.9786C293.005 53.5072 293.79 52.8 294.182 51.9357C294.652 51.0715 294.888 50.1286 294.888 48.95C294.888 47.9286 294.574 46.9072 294.182 46.1215C293.711 45.2572 293.005 44.4715 292.142 44.0786C291.358 43.6857 290.338 43.3715 289.318 43.3715ZM289.318 45.65C290.338 45.65 291.122 45.9643 291.671 46.5143C292.377 47.1429 292.691 48.0072 292.691 49.0286C292.691 50.2072 292.377 51.0715 291.671 51.7C291.044 52.3286 290.338 52.5643 289.318 52.5643C288.298 52.5643 287.514 52.25 286.964 51.7C286.337 51.0715 285.945 50.2072 285.945 49.0286C285.945 48.0072 286.415 47.0643 286.964 46.5143C287.514 45.9643 288.377 45.65 289.318 45.65Z" fill="#4C4D4F"/>
<path d="M304.537 43.6857V49.3429C304.537 50.3643 304.38 51.3072 303.831 51.7C303.36 52.3286 302.654 52.5643 301.791 52.5643C300.928 52.5643 300.301 52.4072 299.987 51.9357C299.516 51.4643 299.359 50.9143 299.359 49.9715V43.6072H297.163V50.4429C297.163 51.7786 297.477 52.8 298.183 53.5857C298.81 54.2929 299.83 54.7643 301.007 54.7643C301.713 54.7643 302.497 54.6072 303.046 54.1358C303.674 53.8215 304.223 53.2715 304.537 52.6429V54.45H306.733V43.6857H304.537Z" fill="#4C4D4F"/>
<path d="M315.52 43.3715C314.814 43.3715 313.872 43.6857 313.323 44C312.696 44.4715 312.146 44.8643 311.833 45.4929V43.6857H309.479V59.5572H311.833V52.7215C312.146 53.35 312.696 53.9 313.323 54.2143C313.951 54.6857 314.657 54.8429 315.52 54.8429C316.54 54.8429 317.481 54.5286 318.187 54.1357C318.893 53.6643 319.521 52.9572 319.991 52.0929C320.462 51.3857 320.619 50.2857 320.619 49.1072C320.619 48.0857 320.462 47.0643 319.991 46.2786C319.521 45.4143 318.971 44.6286 318.187 44.2357C317.402 43.6857 316.54 43.3715 315.52 43.3715ZM315.049 52.5643C314.029 52.5643 313.245 52.25 312.696 51.7C312.068 51.0715 311.833 50.2072 311.676 49.0286C311.833 48.0072 312.146 47.2215 312.696 46.5143C313.323 45.8857 314.029 45.65 315.049 45.65C316.069 45.65 316.853 45.9643 317.402 46.5143C318.03 47.2215 318.265 48.0072 318.265 49.0286C318.265 50.2072 317.952 51.0715 317.402 51.7C316.853 52.3286 316.069 52.5643 315.049 52.5643Z" fill="#4C4D4F"/>
<path d="M230.011 0H229.148V65.8429H230.011V0Z" fill="#888C8E"/>
</g>
<defs>
<clipPath id="clip0_1_44">
<rect width="360" height="66" fill="white"/>
</clipPath>
</defs>
</svg>
