<svg width="170" height="76" viewBox="0 0 170 76" fill="none" xmlns="http://www.w3.org/2000/svg">
<g clip-path="url(#clip0_6_1501)">
<path d="M134.748 74.2353V75.2911L130.947 75.3514L130.87 69.9368L134.688 69.8765V70.9474L132.189 70.9775V72.0333L134.537 72.0032V73.074L132.219 73.1041V74.2655L134.748 74.2353ZM140.187 71.1887C139.111 71.1887 139.065 71.1585 138.959 70.7061C138.868 70.2989 138.959 70.1781 139.656 70.0273C140.11 69.9218 140.701 69.8614 141.292 69.8463L141.216 68.8056C140.671 68.7755 139.929 68.866 139.399 68.9867C137.99 69.3034 137.429 69.8162 137.687 70.9323C137.914 71.9277 138.141 72.2897 139.656 72.2746C140.762 72.2746 140.822 72.35 140.913 72.7572C141.005 73.1645 140.883 73.3304 140.201 73.4812C139.656 73.6018 138.959 73.6471 138.444 73.6018V74.5973C139.05 74.7029 139.823 74.6425 140.414 74.5068C142.11 74.1297 142.398 73.4963 142.156 72.4104C141.928 71.3998 141.762 71.1585 140.171 71.1585M148.184 67.0712L147.714 66.0607L143.503 67.9611L143.958 68.9715L145.472 68.2929L147.26 72.2142L148.441 71.6864L146.654 67.765L148.169 67.0863L148.184 67.0712ZM152.167 67.9158L153.001 69.1224L154.076 68.3834L153.243 67.1767L152.167 67.9007V67.9158ZM161.362 59.892L157.954 57.1772L157.227 58.067L156.53 59.7864L157.53 60.2238L158.121 58.9268L160.559 60.8724L159.59 62.0789L160.423 62.7577L163.059 59.4848L162.21 58.8061L161.347 59.892H161.362ZM166.103 54.5227C165.421 55.8801 164.77 56.2572 163.891 55.8197L163.543 55.6538C163.059 55.4125 162.937 54.9902 162.953 54.3719C162.422 54.764 162.028 54.7338 161.665 54.5529L161.347 54.387C160.605 54.0249 160.423 53.2407 161.029 52.0191C161.65 50.7822 162.392 50.4504 163.134 50.8275L163.452 50.9784C163.816 51.1593 164.073 51.4459 164.073 52.1095C164.558 51.7174 164.982 51.5515 165.467 51.7928L165.815 51.9587C166.694 52.396 166.77 53.1954 166.103 54.5076M162.922 52.0642L162.695 51.9436C162.407 51.8079 162.165 51.9436 161.922 52.4263C161.68 52.9089 161.725 53.1653 162.013 53.3161L162.241 53.4367C162.529 53.5725 162.74 53.4217 163.15 53.0446C163.21 52.5017 163.21 52.2151 162.922 52.0642ZM165.149 52.9994L164.967 52.9089C164.649 52.7581 164.422 52.939 163.937 53.4217C163.846 54.0702 163.831 54.3719 164.149 54.5378L164.331 54.6283C164.664 54.7942 164.922 54.6434 165.21 54.0552C165.498 53.4669 165.482 53.1653 165.133 52.9994M168.784 47.4038C168.678 47.8412 168.481 48.3238 168.269 48.7009L167.315 48.3389C167.481 48.0524 167.633 47.6452 167.724 47.2379C167.966 46.2425 167.875 45.8956 167.194 45.7297L166.77 45.6241C166.799 45.9409 166.74 46.3933 166.649 46.7251C166.361 47.8563 165.831 48.2937 164.861 48.0524L164.422 47.9468C163.604 47.7357 162.998 47.1776 163.392 45.5788C163.785 44.0254 164.512 43.7539 165.406 43.9802L167.527 44.508C168.95 44.8549 169.178 45.7447 168.754 47.4038M165.709 45.3677L165.088 45.2169C164.709 45.1264 164.528 45.3074 164.392 45.8352C164.256 46.3782 164.331 46.6195 164.709 46.71L165.088 46.8005C165.391 46.8759 165.543 46.7251 165.634 46.333C165.709 46.0313 165.74 45.6995 165.709 45.3677ZM169.996 39.0029C169.935 40.662 169.133 41.1899 168.163 41.1597L165.997 41.0843C165.027 41.0542 164.285 40.481 164.346 38.8069C164.406 37.1478 165.179 36.6199 166.149 36.6501L168.345 36.7255C169.314 36.7557 170.056 37.3288 169.996 39.0029ZM168.875 38.9577C168.89 38.279 168.693 38.0075 168.133 37.9924L166.27 37.9321C165.725 37.917 165.482 38.1583 165.467 38.8521C165.452 39.5459 165.648 39.8023 166.209 39.8174L168.072 39.8777C168.633 39.8928 168.86 39.6364 168.875 38.9577ZM108.983 59.7864L110.089 60.9779L105.893 64.8541L104.03 62.8632C102.939 61.6868 103.045 60.9176 103.848 60.1786L104.455 59.6054C105.272 58.8513 106.121 58.8664 107.196 60.0277L107.893 60.7819L108.968 59.7864H108.983ZM106.953 61.6566L106.257 60.9025C105.984 60.616 105.756 60.6159 105.514 60.8271L105.015 61.2947C104.788 61.5058 104.772 61.732 105.045 62.0186L105.742 62.7727L106.953 61.6566ZM104.818 57.6899L102.939 58.8664C102.107 59.3943 100.97 59.2435 100.031 57.7202C99.077 56.2119 99.4257 55.1411 100.258 54.6132L102.137 53.4367C102.97 52.9089 104.09 53.0597 105.045 54.583C105.999 56.0913 105.651 57.1621 104.818 57.6899ZM103.864 55.322C103.53 54.8093 103.182 54.7037 102.833 54.9148L101.289 55.8801C100.94 56.0913 100.879 56.4532 101.212 56.9811C101.546 57.4939 101.894 57.5995 102.243 57.3884L103.788 56.4231C104.136 56.2119 104.197 55.85 103.864 55.322ZM103.016 51.2649L97.6528 53.2859L96.684 50.737C96.1237 49.2438 96.5175 48.5652 97.5323 48.173L98.2591 47.9016C98.8801 47.6753 99.2739 47.7206 99.7891 48.0524L101.092 46.2274L101.728 47.9166L100.652 49.3947L100.985 50.2845L102.424 49.7416L103 51.2649H103.016ZM99.8038 50.737L99.4257 49.7567C99.2739 49.3796 99.077 49.2891 98.7587 49.4098L98.168 49.636C97.8653 49.7416 97.7742 49.9527 97.926 50.3298L98.3042 51.3102L99.8038 50.737ZM96.4871 44.9756L100.743 44.2063L100.455 42.6077L96.1992 43.3768L95.8964 41.7479L94.5026 42.0043L95.396 46.8608L96.7898 46.6045L96.4871 44.9756ZM100.198 37.6003C100.213 35.6547 99.3042 35.1117 98.4109 35.0966L94.3812 35.0665V36.6954L98.214 36.7255C98.5922 36.7255 98.789 36.9819 98.789 37.5852C98.789 38.2036 98.5774 38.4449 98.1984 38.4449L94.3508 38.4147V40.0436L98.3649 40.0738C99.2591 40.0738 100.183 39.5459 100.198 37.6154M96.2599 33.0605L98.5618 33.513C99.698 33.7392 100.471 33.151 100.788 31.507C100.94 30.7379 100.985 29.9234 100.94 29.1843L98.3042 28.6715L98.0162 30.1195L99.5462 30.4211C99.5315 30.6926 99.5011 30.964 99.4404 31.2657C99.319 31.8539 99.0466 31.9746 98.6373 31.8841L96.8349 31.5372C96.3657 31.4467 96.2599 31.1602 96.3501 30.6625C96.4411 30.1949 96.6536 29.4559 96.8956 28.7168L95.5929 28.3096C95.3205 29.0033 95.1236 29.6972 94.9875 30.3909C94.6839 31.9595 95.0933 32.8494 96.2902 33.0907M102.576 25.7003C103.303 23.9055 102.667 23.0609 101.833 22.7291L98.0926 21.2208L97.4715 22.7291L101.031 24.177C101.395 24.3279 101.47 24.6294 101.243 25.1875C101.016 25.7606 100.728 25.9115 100.38 25.7606L96.8202 24.3127L96.2139 25.821L99.9556 27.3293C100.788 27.6611 101.833 27.5102 102.576 25.7154M106.393 18.6116L105.303 17.9027L103.939 19.9992L103.136 19.4864L104.394 17.5558L103.303 16.847L102.046 18.7775L101.319 18.31L102.682 16.1984L101.591 15.4896L99.3346 18.9585L104.151 22.0655L106.408 18.5965L106.393 18.6116ZM106.575 14.9014C107.393 14.2528 107.499 14.2679 107.771 14.5093C108.014 14.7354 108.029 14.9014 107.605 15.3538C107.196 15.7912 106.605 16.2437 106.166 16.5001L106.878 17.5106C107.483 17.2391 108.12 16.7414 108.574 16.2588C109.892 14.8411 109.725 14.102 108.816 13.2574C108.029 12.5334 107.665 12.3524 106.377 13.3328C105.59 13.9361 105.5 13.9361 105.226 13.6797C104.999 13.4686 105.015 13.3328 105.378 12.9406C105.727 12.5636 106.181 12.1564 106.711 11.7793L105.893 10.7688C105.409 11.0704 104.757 11.6285 104.394 12.0357C103.363 13.1367 103.167 13.9813 104.09 14.826C104.863 15.5348 105.393 15.8214 106.59 14.8862M113.618 10.0146L111.619 11.538L111.043 10.7839L112.876 9.38125L112.088 8.35562L110.255 9.75831L109.725 9.06447L111.725 7.54118L110.937 6.51557L107.65 9.01921L111.134 13.544L114.421 11.0403L113.634 10.0146H113.618ZM117.89 9.03433L115.708 3.75551L118.466 2.62433C119.647 2.1417 120.162 2.48859 120.465 3.22762L120.662 3.69518C120.798 4.0119 120.768 4.41913 120.435 4.76602C120.995 4.72077 121.434 4.93192 121.646 5.42965L121.843 5.8972C122.161 6.6664 122.01 7.34511 120.768 7.85791L117.92 9.03433H117.89ZM119.677 5.82179L118.511 6.30442L118.935 7.33002L120.056 6.87755C120.343 6.75689 120.374 6.59099 120.298 6.39492L120.132 6.00277C120.041 5.79162 119.889 5.73129 119.662 5.83687M117.648 4.23814L118.072 5.27882L119.041 4.88668C119.223 4.81127 119.343 4.69061 119.253 4.47946L119.041 3.96666C118.98 3.80075 118.844 3.75551 118.632 3.83092L117.648 4.23814ZM123.464 6.89264L122.328 1.31217L125.009 0.769199C126.569 0.45247 127.19 0.95019 127.402 2.02104L127.554 2.77515C127.69 3.4237 127.568 3.81583 127.16 4.25322L128.765 5.83687L126.993 6.19884L125.691 4.90177L124.767 5.08275L125.07 6.57591L123.479 6.89264H123.464ZM124.191 2.26236L124.509 3.83092L125.539 3.61977C125.933 3.54435 126.054 3.34828 125.993 3.03155L125.872 2.41317C125.812 2.09644 125.63 1.97578 125.221 2.06628L124.191 2.27743V2.26236ZM133.87 5.76146V4.46438L131.341 4.50962V3.55943L133.643 3.52927V2.23219L131.31 2.26236V1.38758L133.809 1.35741V0.0603294L129.644 0.120659L129.735 5.82179L133.885 5.76146H133.87ZM137.884 6.28934L139.625 2.77515L139.793 6.68148L141.61 7.05854L144.307 1.80988L142.791 1.49315L141.11 4.85652L140.838 1.07085L139.217 0.723953L137.429 4.07224L137.263 0.316729L135.748 0L136.081 5.8972L137.884 6.27426V6.28934ZM147.578 9.62255L148.124 8.44611L145.837 7.40543L146.245 6.53066L148.351 7.49593L148.896 6.3195L146.791 5.35423L147.154 4.56995L149.441 5.61063L149.987 4.43421L146.215 2.69974L143.822 7.88806L147.593 9.62255H147.578ZM154.576 10.4219C154.198 10.9649 153.833 11.1458 153.228 11.1458L153.167 13.3931L151.683 12.3524L151.743 10.5275L150.971 9.9845L150.093 11.2363L148.76 10.3013L152.077 5.6408L154.304 7.20936C155.606 8.12939 155.667 8.92879 155.03 9.81859L154.592 10.4521L154.576 10.4219ZM153.5 8.23496L152.637 7.63167L151.714 8.94382L152.577 9.54715C152.91 9.78845 153.137 9.7432 153.319 9.47176L153.683 8.95893C153.864 8.70252 153.833 8.49137 153.5 8.25004M156.682 14.6902L160.999 13.2272L159.832 12.0508L157.181 13.0463L158.212 10.4219L157.045 9.24549L155.515 13.5289L154.349 14.6752L155.501 15.8365L156.666 14.6902H156.682ZM158.196 36.6954H155.44V38.8521H158.196V36.6954ZM106.241 38.8672H108.999V36.7104H106.241V38.8672ZM147.866 54.8847L149.82 56.8303L151.349 55.307L149.396 53.3613L147.866 54.8997V54.8847ZM115.027 22.1861L116.557 20.6628L114.603 18.7323L113.073 20.2556L115.012 22.1861H115.027ZM113.088 55.2919L114.618 56.8303L116.557 54.8847L115.027 53.3613L113.073 55.307L113.088 55.2919ZM149.411 22.171L151.365 20.2405L149.835 18.7021L147.881 20.6326L149.411 22.171ZM131.144 58.6402C120.056 58.067 111.209 48.9272 111.209 37.7511C111.209 32.1556 113.391 26.8918 117.36 22.9403C121.07 19.2451 125.933 17.1335 131.144 16.8621V11.8698H133.309V16.8621C138.52 17.1185 143.382 19.2451 147.093 22.9403C151.062 26.8918 153.258 32.1556 153.243 37.7511C153.243 48.9272 144.382 58.067 133.295 58.6402V63.6173H131.128V58.6402H131.144ZM146.351 36.6803H151.032C150.986 35.8356 150.88 35.0061 150.728 34.1917L146.351 36.6803ZM133.325 25.4439H141.626L144.7 23.6944C141.519 20.9041 137.551 19.2752 133.325 19.0339V25.4439ZM133.325 30.1798L137.839 27.6007H133.325V30.1798ZM133.325 47.8865H148.078C149.79 45.247 150.85 42.1551 151.032 38.837H142.564L133.325 44.1008V47.8865ZM133.325 56.4683C138.551 56.1667 143.215 53.7535 146.458 50.0583H133.325V56.4683ZM131.158 45.3375L126.705 47.8865H131.158V45.3375ZM118.042 25.4288H131.158V19.0188C126.539 19.2904 122.222 21.1756 118.919 24.4635C118.602 24.7803 118.329 25.097 118.042 25.4288ZM113.452 36.6652H121.934L131.158 31.4015V27.5856H116.39C114.648 30.2854 113.634 33.3923 113.452 36.6501M118.147 38.8069H113.452C113.497 39.6515 113.603 40.4811 113.77 41.3106L118.147 38.8069ZM131.158 56.4381V50.0281H122.919L119.828 51.7777C122.888 54.4624 126.827 56.1818 131.158 56.4381Z" fill="#A79966"/>
<path d="M42.7301 18.4154L44.7295 17.6312C50.5612 15.4744 52.3486 12.7143 52.3486 9.66774C52.3486 6.13843 50.7733 2.7449 44.9416 2.7449H37.7164V24.1165H42.7301V18.4154ZM42.7301 6.57581H43.9116C45.5778 6.57581 47.4106 7.16403 47.4106 9.66774C47.4106 11.4927 46.9714 12.669 44.7295 13.755L42.7301 14.5544V6.57581ZM1.10575 8.85324C1.10575 5.76137 3.60502 2.45833 8.28549 2.27735C11.5573 2.1416 13.284 2.75998 14.7988 3.5141V7.73715C13.3598 6.89254 11.5724 6.00269 9.43665 6.0781C7.30093 6.16859 6.46783 7.43551 6.46783 8.46111C6.46783 12.3071 15.6318 9.92406 15.6318 17.8423C15.6318 21.4923 12.9811 24.3428 8.45211 24.5238C5.89224 24.6294 2.90825 24.0412 1.3481 23.0457V18.6568C3.93826 20.0142 6.14974 20.542 7.61902 20.4666C9.43665 20.4064 10.1183 19.4863 10.1183 18.3703C10.1183 14.2075 1.10575 16.6357 1.10575 8.88338M74.9178 17.9932C75.4176 17.8423 75.8872 17.6764 76.3416 17.5256L79.0833 22.2011C79.8558 23.4078 80.5526 24.1468 81.8704 24.1468H85.7632L80.7343 15.5649C83.6123 13.8606 84.5514 11.9753 84.5514 9.69788C84.5514 6.16859 82.9761 2.77506 77.1444 2.77506H69.9193V24.1165H74.933V17.963L74.9178 17.9932ZM74.9178 6.62106H76.0993C77.7504 6.62106 79.5983 7.20927 79.5983 9.69788C79.5983 11.9904 78.9318 13.1668 74.9178 14.4941V6.5909V6.62106ZM34.4143 58.3988C34.4143 54.8695 32.8391 51.4759 27.0074 51.4759H19.7822V72.8477H24.7959V66.6941C25.2957 66.5282 25.7653 66.3773 26.2197 66.2265L28.9613 70.9021C29.7491 72.1087 30.4458 72.8477 31.7485 72.8477H35.6413L30.6124 64.2658C33.4903 62.5615 34.4295 60.6762 34.4295 58.3988M24.8111 63.195V55.322H25.9925C27.6436 55.322 29.4915 55.9102 29.4915 58.3988C29.4915 60.6762 28.8251 61.8526 24.8111 63.195ZM18.2826 15.7911V2.72982H23.2812V15.7911C23.2812 18.5964 24.0688 19.9991 26.25 19.9991C28.4312 19.9991 29.234 18.5964 29.234 15.7911V2.72982H34.2477V15.7911C34.2477 22.1257 31.1274 24.5238 26.2652 24.5238C21.4029 24.5238 18.2977 22.1107 18.2977 15.7911M85.4754 51.4759H78.2502V72.8628H83.2639V67.1617L85.2785 66.3773C91.1105 64.2205 92.8972 61.4756 92.8972 58.4139C92.8972 54.8846 91.3221 51.4911 85.4905 51.4911M85.2785 62.5012L83.2639 63.3005V55.322H84.4453C86.1116 55.322 87.9446 55.9102 87.9446 58.4139C87.9446 60.2388 87.5049 61.4153 85.2633 62.5012M69.7527 51.4911H74.7664V64.5373C74.7664 70.8718 71.6461 73.27 66.7838 73.27C61.9216 73.27 58.8164 70.8568 58.8164 64.5373V51.4911H63.815V64.5373C63.815 67.3426 64.6026 68.7603 66.7838 68.7603C68.965 68.7603 69.7527 67.3577 69.7527 64.5373V51.4911ZM66.9959 24.1317H54.7873V2.72982H66.9959V6.60598H59.801V11.2212H64.9813V14.7806H59.801V20.2405H66.9959V24.1015V24.1317ZM45.2143 37.8264C45.2143 42.1098 47.8347 44.523 51.2125 44.523C52.6666 44.523 54.3934 44.1761 56.1353 42.9846V47.6601C54.5146 48.6405 52.9241 48.912 51.2125 48.912C44.4569 48.912 39.9885 44.0404 39.9885 37.8264C39.9885 31.6125 44.4569 26.7259 51.2125 26.7259C52.9241 26.7259 54.5146 26.9823 56.1353 27.9626V32.6532C54.3934 31.4768 52.6666 31.1148 51.2125 31.1148C47.8347 31.1148 45.2143 33.5279 45.2143 37.8264ZM13.6476 37.1779C15.4501 36.0166 15.7682 33.905 15.7682 32.9699C15.7682 28.8826 12.2843 27.1179 8.72473 27.1179H1.10575V48.4897H9.89105C14.7079 48.4897 17.0709 45.5939 17.0709 42.2908C17.0709 39.8625 15.95 38.0074 13.6324 37.1628M6.1043 30.5417H8.16431C10.2697 30.5417 10.8757 31.688 10.8757 33.1811C10.8757 34.4329 10.5576 36.0015 8.55814 36.0015H6.1043V30.5568V30.5417ZM8.9217 44.8548H6.1043V39.1386H8.77018C10.5122 39.1386 11.9056 39.5307 11.9056 41.8384C11.9056 44.1459 10.6181 44.8548 8.9217 44.8548ZM68.6469 36.9969L76.4932 48.4595H72.1459C70.8433 48.4595 70.2525 47.8109 69.3588 46.5139L63.7847 38.3694V48.4595H58.7709V27.0878H63.7847V36.5746L69.9041 27.0878H75.2814L68.6318 36.9969H68.6469ZM28.1737 48.8818C34.2477 48.8818 38.1708 43.9197 38.1708 37.8114C38.1708 31.703 34.2629 26.7259 28.1737 26.7259C22.0846 26.7259 18.1766 31.688 18.1766 37.8114C18.1766 43.9348 22.0846 48.8818 28.1737 48.8818ZM28.1737 31.0394C31.2637 31.0394 33.2328 34.0709 33.2328 37.8264C33.2328 41.582 31.2637 44.6135 28.1737 44.6135C25.0837 44.6135 23.1145 41.582 23.1145 37.8264C23.1145 34.0709 25.0837 31.0394 28.1737 31.0394ZM46.1534 51.0839C40.0642 51.0839 36.1562 56.046 36.1562 62.1693C36.1562 68.2928 40.0642 73.2398 46.1534 73.2398C52.2426 73.2398 56.1505 68.2777 56.1505 62.1693C56.1505 56.061 52.2426 51.0839 46.1534 51.0839ZM46.1534 68.9715C43.0633 68.9715 41.0942 65.9248 41.0942 62.1844C41.0942 58.444 43.0633 55.3974 46.1534 55.3974C49.2434 55.3974 51.2125 58.4289 51.2125 62.1844C51.2125 65.94 49.2434 68.9715 46.1534 68.9715ZM16.5104 62.1543V71.8673C15.8894 72.2444 15.2229 72.546 14.511 72.7723C14.405 72.8175 14.2989 72.8477 14.1929 72.8778C14.1626 72.8778 14.1323 72.8778 14.102 72.8929C13.7082 72.9985 13.2992 73.089 12.8903 73.1342C12.8448 73.1342 12.7842 73.1342 12.7387 73.1493C12.5873 73.1644 12.4509 73.1795 12.2995 73.1946C12.1934 73.1946 12.0874 73.1946 11.9814 73.2096C11.8299 73.2096 11.6785 73.2096 11.527 73.2096C11.4815 73.2096 11.4512 73.2096 11.4058 73.2096H11.3907C11.3907 73.2096 11.2694 73.2096 11.2241 73.2096C4.46841 73.2096 0 68.338 0 62.1241C0 55.9102 4.46841 51.0235 11.2241 51.0235C12.9508 51.0235 14.5262 51.2799 16.162 52.2753V56.9509C14.4049 55.7744 12.6933 55.4125 11.2241 55.4125C7.84623 55.4125 5.22577 57.8257 5.22577 62.1241C5.22577 66.4075 7.86137 68.8357 11.2241 68.8357C11.3149 68.8357 11.421 68.8357 11.8147 68.8056V62.1241H16.4953L16.5104 62.1543Z" fill="#AB2328"/>
</g>
<defs>
<clipPath id="clip0_6_1501">
<rect width="170" height="76" fill="white"/>
</clipPath>
</defs>
</svg>
