<svg width="49" height="49" viewBox="0 0 49 49" fill="none" xmlns="http://www.w3.org/2000/svg">
    <rect x="1.16602" y="1.24756" width="47" height="47" rx="7.5"/>
    <rect x="1.16602" y="1.24756" width="47" height="47" rx="7.5" stroke="#2A7DEC"/>
    <path d="M29.166 14.2476H20.166C19.5693 14.2476 18.997 14.4846 18.575 14.9066C18.1531 15.3285 17.916 15.9008 17.916 16.4976V32.9976C17.916 33.5943 18.1531 34.1666 18.575 34.5885C18.997 35.0105 19.5693 35.2476 20.166 35.2476H29.166C29.7628 35.2476 30.335 35.0105 30.757 34.5885C31.179 34.1666 31.416 33.5943 31.416 32.9976V16.4976C31.416 15.9008 31.179 15.3285 30.757 14.9066C30.335 14.4846 29.7628 14.2476 29.166 14.2476ZM20.166 15.7476H29.166C29.3649 15.7476 29.5557 15.8266 29.6963 15.9672C29.837 16.1079 29.916 16.2986 29.916 16.4976V17.2476H19.416V16.4976C19.416 16.2986 19.495 16.1079 19.6357 15.9672C19.7763 15.8266 19.9671 15.7476 20.166 15.7476ZM29.166 33.7476H20.166C19.9671 33.7476 19.7763 33.6685 19.6357 33.5279C19.495 33.3872 19.416 33.1965 19.416 32.9976V32.2476H29.916V32.9976C29.916 33.1965 29.837 33.3872 29.6963 33.5279C29.5557 33.6685 29.3649 33.7476 29.166 33.7476Z" fill="#2A7DEC"/>
</svg>
