<svg width="215" height="299" fill="none" xmlns="http://www.w3.org/2000/svg"><path d="M107.256 298.977c-20.455 0-38.637-3.504-54.546-10.511-15.814-7.008-28.314-16.761-37.5-29.261-9.185-12.5-14.062-26.942-14.63-43.324h53.409c.473 7.86 3.077 14.725 7.812 20.596 4.735 5.777 11.032 10.275 18.892 13.495 7.86 3.219 16.667 4.829 26.421 4.829 10.416 0 19.649-1.799 27.698-5.398 8.05-3.693 14.347-8.806 18.893-15.341 4.545-6.534 6.77-14.062 6.676-22.585.094-8.807-2.178-16.572-6.819-23.295-4.64-6.724-11.363-11.979-20.17-15.767-8.712-3.788-19.223-5.682-31.534-5.682h-25.71v-40.625h25.71c10.133 0 18.987-1.752 26.562-5.256 7.671-3.504 13.684-8.428 18.04-14.772 4.356-6.44 6.487-13.874 6.392-22.302.095-8.238-1.752-15.388-5.54-21.449-3.693-6.155-8.948-10.937-15.767-14.346-6.723-3.41-14.63-5.114-23.721-5.114-8.902 0-17.14 1.61-24.716 4.83-7.576 3.22-13.684 7.812-18.324 13.778-4.64 5.872-7.102 12.88-7.386 21.023H6.688c.378-16.288 5.066-30.587 14.062-42.898 9.09-12.405 21.212-22.064 36.364-28.977C72.265 3.617 89.264.114 108.108.114c19.413 0 36.269 3.645 50.568 10.937 14.394 7.197 25.521 16.903 33.381 29.12 7.86 12.215 11.79 25.71 11.79 40.482.094 16.383-4.735 30.114-14.489 41.194-9.659 11.079-22.349 18.323-38.068 21.733v2.272c20.454 2.841 36.127 10.417 47.017 22.728 10.985 12.215 16.43 27.414 16.335 45.596 0 16.288-4.64 30.871-13.92 43.75-9.186 12.784-21.875 22.822-38.069 30.114-16.098 7.291-34.564 10.937-55.397 10.937Z" fill="#333" fill-opacity=".05"/></svg>