<svg width="122" height="44" fill="none" xmlns="http://www.w3.org/2000/svg"><g clip-path="url(#a)" fill="#000"><path d="M20.865.116c-2.532.21-5.361.992-7.734 2.152C6.355 5.56 1.781 11.955.845 19.415c-.16 1.297-.127 4.125.053 5.54 1.16 8.767 7.787 16.185 16.382 18.348 2.106.528 3.021.633 5.585.633 2.563 0 3.478-.105 5.584-.633 8.595-2.163 15.222-9.58 16.382-18.349.18-1.414.213-4.242.053-5.54C43.704 9.972 36.62 2.343 27.311.486c-2.17-.443-4.18-.549-6.446-.37Zm4.191 8.905a13.431 13.431 0 0 1 9.712 7.186c.957 1.91 1.34 3.566 1.33 5.845 0 1.689-.085 2.28-.532 3.778-1.405 4.674-5.404 8.22-10.361 9.17-1.202.231-3.479.231-4.68 0-4.958-.95-8.957-4.496-10.361-9.17-.447-1.498-.532-2.09-.532-3.777-.01-1.763.138-2.723.638-4.221 1.042-3.102 3.436-5.877 6.425-7.481.957-.507 2.734-1.108 3.893-1.32 1.138-.2 3.308-.21 4.468-.01ZM53.926 3.145v3.133l6.84 6.785 6.83 6.774H73.817V13.56l-6.84-6.785L60.15 0h-6.223v3.145ZM85.115 6.785l-6.83 6.774V19.837h6.224l6.84-6.784 6.829-6.775V0h-6.223l-6.84 6.785ZM112.432 21.895v21.683h8.829V.212h-8.829v21.683ZM60.702 31l-6.776 6.722V44h6.223l6.84-6.785 6.83-6.774v-6.173h-6.33L60.702 31ZM78.286 27.36v3.081l6.84 6.785L91.954 44h6.223V37.722L91.39 30.99l-6.776-6.722h-6.33v3.092Z"/></g><defs><clipPath id="a"><path fill="#fff" transform="translate(.74)" d="M0 0h120.522v44H0z"/></clipPath></defs></svg>