<svg width="49" height="49" viewBox="0 0 49 49" fill="none" xmlns="http://www.w3.org/2000/svg">
    <rect x="0.833984" y="1.24756" width="47" height="47" rx="7.5"/>
    <rect x="0.833984" y="1.24756" width="47" height="47" rx="7.5" stroke="#2A7DEC"/>
    <path d="M34.0842 21.7474C34.0854 22.8699 33.8065 23.9751 33.2729 24.9627C32.7393 25.9504 31.9678 26.7893 31.0282 27.4037C30.0887 28.018 29.0107 28.3883 27.892 28.4811C26.7732 28.5738 25.649 28.3861 24.6211 27.9349L19.7405 33.5805C19.7292 33.5936 19.7161 33.6077 19.7039 33.6199C19.1413 34.1825 18.3781 34.4987 17.5824 34.4987C16.7866 34.4987 16.0235 34.1825 15.4608 33.6199C14.8981 33.0572 14.582 32.2941 14.582 31.4983C14.582 30.7026 14.8981 29.9394 15.4608 29.3767C15.4739 29.3646 15.4871 29.3514 15.5011 29.3402L21.1467 24.4605C20.6409 23.3034 20.4695 22.0278 20.6519 20.7782C20.8343 19.5287 21.3632 18.3553 22.1786 17.3911C22.9941 16.4269 24.0634 15.7105 25.2653 15.3232C26.4672 14.9359 27.7537 14.8932 28.9786 15.1999C29.1049 15.2315 29.2208 15.2955 29.3148 15.3855C29.4089 15.4755 29.4779 15.5884 29.5151 15.7132C29.5522 15.838 29.5563 15.9703 29.5268 16.0971C29.4974 16.2239 29.4354 16.3408 29.3471 16.4364L25.8342 20.2474L26.3649 22.7177L28.8342 23.2474L32.6452 19.7299C32.7408 19.6415 32.8577 19.5796 32.9846 19.5501C33.1114 19.5206 33.2436 19.5247 33.3684 19.5619C33.4932 19.599 33.6061 19.6681 33.6961 19.7621C33.7861 19.8562 33.8501 19.972 33.8817 20.0983C34.0163 20.6377 34.0843 21.1915 34.0842 21.7474Z" fill="#2A7DEC"/>
</svg>
