<svg width="48" height="49" viewBox="0 0 48 49" fill="none" xmlns="http://www.w3.org/2000/svg">
    <rect x="0.5" y="1.24756" width="47" height="47" rx="7.5" stroke="#2A7DEC"/>
    <path d="M21.6667 19.7476H16.3333C15.9797 19.7476 15.6406 19.9056 15.3905 20.1869C15.1405 20.4682 15 20.8497 15 21.2476V32.2476C15 32.6454 15.1405 33.0269 15.3905 33.3082C15.6406 33.5895 15.9797 33.7476 16.3333 33.7476H21.6667C22.0203 33.7476 22.3594 33.5895 22.6095 33.3082C22.8595 33.0269 23 32.6454 23 32.2476V21.2476C23 20.8497 22.8595 20.4682 22.6095 20.1869C22.3594 19.9056 22.0203 19.7476 21.6667 19.7476ZM16.3333 20.7476H21.6667C21.7845 20.7476 21.8976 20.8002 21.9809 20.894C22.0643 20.9878 22.1111 21.115 22.1111 21.2476V21.7476H15.8889V21.2476C15.8889 21.115 15.9357 20.9878 16.0191 20.894C16.1024 20.8002 16.2155 20.7476 16.3333 20.7476ZM21.6667 32.7476H16.3333C16.2155 32.7476 16.1024 32.6949 16.0191 32.6011C15.9357 32.5073 15.8889 32.3802 15.8889 32.2476V31.7476H22.1111V32.2476C22.1111 32.3802 22.0643 32.5073 21.9809 32.6011C21.8976 32.6949 21.7845 32.7476 21.6667 32.7476Z" fill="#2A7DEC"/>
    <path d="M31.6667 15.7476H26.3333C25.9797 15.7476 25.6406 15.9056 25.3905 16.1869C25.1405 16.4682 25 16.8497 25 17.2476V28.2476C25 28.6454 25.1405 29.0269 25.3905 29.3082C25.6406 29.5895 25.9797 29.7476 26.3333 29.7476H31.6667C32.0203 29.7476 32.3594 29.5895 32.6095 29.3082C32.8595 29.0269 33 28.6454 33 28.2476V17.2476C33 16.8497 32.8595 16.4682 32.6095 16.1869C32.3594 15.9056 32.0203 15.7476 31.6667 15.7476ZM26.3333 16.7476H31.6667C31.7845 16.7476 31.8976 16.8002 31.9809 16.894C32.0643 16.9878 32.1111 17.115 32.1111 17.2476V17.7476H25.8889V17.2476C25.8889 17.115 25.9357 16.9878 26.0191 16.894C26.1024 16.8002 26.2155 16.7476 26.3333 16.7476ZM31.6667 28.7476H26.3333C26.2155 28.7476 26.1024 28.6949 26.0191 28.6011C25.9357 28.5073 25.8889 28.3802 25.8889 28.2476V27.7476H32.1111V28.2476C32.1111 28.3802 32.0643 28.5073 31.9809 28.6011C31.8976 28.6949 31.7845 28.7476 31.6667 28.7476Z" fill="#2A7DEC"/>
</svg>
