<svg width="49" height="49" viewBox="0 0 49 49" fill="none" xmlns="http://www.w3.org/2000/svg">
    <rect x="1.16602" y="1.24756" width="47" height="47" rx="7.5"/>
    <rect x="1.16602" y="1.24756" width="47" height="47" rx="7.5" stroke="#2A7DEC"/>
    <path d="M32.916 16.4976H16.416C16.0182 16.4976 15.6367 16.6556 15.3554 16.9369C15.0741 17.2182 14.916 17.5997 14.916 17.9976V31.4976C14.916 31.8954 15.0741 32.2769 15.3554 32.5582C15.6367 32.8395 16.0182 32.9976 16.416 32.9976H32.916C33.3138 32.9976 33.6954 32.8395 33.9767 32.5582C34.258 32.2769 34.416 31.8954 34.416 31.4976V17.9976C34.416 17.5997 34.258 17.2182 33.9767 16.9369C33.6954 16.6556 33.3138 16.4976 32.916 16.4976ZM32.166 25.4976H30.351L27.5723 30.3726C27.5063 30.4869 27.4113 30.5817 27.2969 30.6476C27.1825 30.7134 27.0527 30.7479 26.9207 30.7476H26.8776C26.7384 30.7394 26.6042 30.6927 26.4901 30.6125C26.376 30.5324 26.2865 30.422 26.2316 30.2938L22.3223 21.1776L20.0723 25.1226C20.0059 25.2376 19.9101 25.3329 19.7948 25.3988C19.6795 25.4647 19.5488 25.4987 19.416 25.4976H17.166C16.9671 25.4976 16.7763 25.4185 16.6357 25.2779C16.495 25.1372 16.416 24.9465 16.416 24.7476C16.416 24.5486 16.495 24.3579 16.6357 24.2172C16.7763 24.0766 16.9671 23.9976 17.166 23.9976H18.981L21.7645 19.1226C21.8337 19.0014 21.9353 18.902 22.0579 18.8355C22.1805 18.7689 22.3193 18.7379 22.4586 18.7459C22.5978 18.7539 22.7321 18.8006 22.8464 18.8807C22.9606 18.9608 23.0502 19.0712 23.1051 19.1994L27.0098 28.3176L29.2598 24.3754C29.3258 24.2611 29.4208 24.1662 29.5352 24.1003C29.6496 24.0345 29.7793 24 29.9113 24.0004H32.1613C32.3602 24.0004 32.551 24.0794 32.6917 24.22C32.8323 24.3607 32.9113 24.5515 32.9113 24.7504C32.9113 24.9493 32.8323 25.14 32.6917 25.2807C32.551 25.4214 32.3602 25.5004 32.1613 25.5004L32.166 25.4976Z" fill="#2A7DEC"/>
</svg>
