<svg width="640" height="366" fill="none" xmlns="http://www.w3.org/2000/svg"><g filter="url(#a)"><path d="M608 16H32c-8.837 0-16 7.163-16 16v302c0 8.837 7.163 16 16 16h576c8.837 0 16-7.163 16-16V32c0-8.837-7.163-16-16-16Z" fill="#2C2C3A"/></g><path d="M44.874 55.259h-4.76v-2.742h4.76c.779 0 1.41-.127 1.892-.381.49-.263.85-.618 1.079-1.067.228-.457.343-.977.343-1.561 0-.567-.115-1.096-.343-1.587a2.76 2.76 0 0 0-1.08-1.194c-.482-.304-1.112-.456-1.89-.456h-3.619V62h-3.491V43.516h7.11c1.438 0 2.665.258 3.68.774 1.025.508 1.803 1.215 2.337 2.12.541.897.812 1.921.812 3.072 0 1.194-.27 2.222-.812 3.085-.534.864-1.312 1.528-2.336 1.993-1.016.466-2.243.699-3.682.699Zm12.873-6.995V62h-3.364V48.264h3.364Zm-3.593-3.593c0-.5.17-.914.508-1.244.347-.33.813-.495 1.397-.495.584 0 1.045.165 1.384.495.346.33.52.745.52 1.244 0 .49-.174.901-.52 1.231-.34.33-.8.495-1.384.495-.584 0-1.05-.165-1.397-.495a1.65 1.65 0 0 1-.508-1.231Zm12.962 17.583c-1.04 0-1.976-.17-2.805-.508a6.161 6.161 0 0 1-2.12-1.41 6.48 6.48 0 0 1-1.334-2.12 7.387 7.387 0 0 1-.457-2.614v-.508c0-1.058.153-2.019.457-2.882.305-.872.737-1.62 1.295-2.247a5.7 5.7 0 0 1 2.006-1.447c.779-.339 1.638-.508 2.577-.508.974 0 1.833.165 2.578.495a4.982 4.982 0 0 1 1.866 1.371c.5.592.876 1.303 1.13 2.133.254.82.38 1.73.38 2.73v1.409H61.924v-2.311h7.465v-.254a4.047 4.047 0 0 0-.305-1.46 2.333 2.333 0 0 0-.863-1.066c-.39-.271-.893-.407-1.511-.407-.5 0-.935.11-1.308.33a2.623 2.623 0 0 0-.914.915c-.237.389-.414.854-.533 1.396a8.451 8.451 0 0 0-.178 1.803v.508c0 .575.076 1.108.229 1.6.16.49.394.918.698 1.281.313.356.686.635 1.117.838.44.195.94.292 1.498.292.703 0 1.338-.135 1.905-.406a4.24 4.24 0 0 0 1.498-1.231l1.688 1.752c-.287.423-.677.829-1.168 1.218-.482.39-1.066.707-1.752.952-.685.237-1.477.356-2.374.356Zm19.932-2.64a2.8 2.8 0 0 0 1.27-.28c.372-.186.668-.449.888-.787.229-.339.351-.732.368-1.18h3.161a4.449 4.449 0 0 1-.787 2.5c-.508.736-1.185 1.32-2.031 1.752-.838.423-1.777.635-2.818.635-1.058 0-1.98-.178-2.768-.533a5.388 5.388 0 0 1-1.968-1.486 6.574 6.574 0 0 1-1.168-2.209 9.236 9.236 0 0 1-.38-2.691v-.406c0-.957.126-1.854.38-2.692a6.574 6.574 0 0 1 1.168-2.209 5.387 5.387 0 0 1 1.968-1.485c.787-.355 1.706-.533 2.755-.533 1.109 0 2.082.216 2.92.647a4.809 4.809 0 0 1 1.98 1.828c.483.788.732 1.714.75 2.78h-3.162a3.042 3.042 0 0 0-.33-1.32 2.425 2.425 0 0 0-.863-.94c-.373-.236-.825-.355-1.359-.355-.567 0-1.04.119-1.421.356a2.453 2.453 0 0 0-.876.977 4.82 4.82 0 0 0-.432 1.372c-.076.499-.114 1.024-.114 1.574v.406c0 .559.038 1.092.114 1.6.085.507.229.964.432 1.37.211.398.503.716.876.953.38.237.863.355 1.447.355ZM98.258 42.5V62h-3.364V42.5h3.364Zm-.533 12.137h-.99c0-.957.126-1.837.38-2.64a6.542 6.542 0 0 1 1.08-2.096 4.947 4.947 0 0 1 1.662-1.396 4.709 4.709 0 0 1 2.159-.495c.677 0 1.29.097 1.84.292a3.481 3.481 0 0 1 1.435.901c.398.415.702.956.914 1.625.22.66.33 1.464.33 2.412V62h-3.377v-8.785c0-.635-.093-1.134-.279-1.498a1.668 1.668 0 0 0-.8-.8c-.338-.16-.757-.241-1.257-.241-.541 0-1.007.106-1.396.317-.39.203-.711.487-.965.85a4.149 4.149 0 0 0-.559 1.258 6.325 6.325 0 0 0-.177 1.536Zm19.335 4.443v-6.335c0-.465-.081-.867-.242-1.206-.16-.339-.406-.6-.736-.787-.33-.186-.749-.28-1.257-.28-.448 0-.842.077-1.18.23a1.737 1.737 0 0 0-.762.647c-.178.27-.267.584-.267.94h-3.364c0-.568.135-1.105.406-1.613a4.318 4.318 0 0 1 1.155-1.371 5.693 5.693 0 0 1 1.816-.953c.711-.228 1.506-.342 2.387-.342 1.041 0 1.967.178 2.78.533.821.347 1.464.872 1.93 1.574.474.703.711 1.587.711 2.654v5.992c0 .685.042 1.273.126 1.764.094.483.229.902.407 1.257V62h-3.415c-.161-.347-.284-.787-.368-1.32a10.307 10.307 0 0 1-.127-1.6Zm.469-5.446.026 1.993h-2.12c-.525 0-.986.055-1.384.165-.398.102-.724.254-.978.457a1.852 1.852 0 0 0-.571.711c-.127.27-.19.58-.19.927 0 .338.076.643.228.914.161.27.389.486.686.647.304.153.66.229 1.066.229.592 0 1.109-.119 1.549-.356.44-.245.783-.541 1.028-.888.246-.347.377-.678.394-.99l.965 1.447a5.71 5.71 0 0 1-.534 1.104c-.237.39-.541.753-.914 1.092a4.653 4.653 0 0 1-1.345.838c-.525.22-1.135.33-1.829.33-.888 0-1.684-.178-2.386-.533a4.225 4.225 0 0 1-1.663-1.46c-.407-.618-.61-1.32-.61-2.108 0-.727.136-1.37.407-1.93a3.685 3.685 0 0 1 1.206-1.408c.533-.39 1.193-.682 1.98-.877.796-.203 1.705-.304 2.73-.304h2.259Zm9.281-2.565V62h-3.352V48.264h3.174l.178 2.805Zm4.176-2.894-.05 3.123a5.956 5.956 0 0 0-.635-.076 8.829 8.829 0 0 0-.648-.026c-.516 0-.969.072-1.358.216a2.545 2.545 0 0 0-.978.597 2.642 2.642 0 0 0-.584.965 4.152 4.152 0 0 0-.228 1.27l-.724-.09c0-.871.089-1.68.267-2.425.178-.744.436-1.396.774-1.955.339-.558.762-.99 1.27-1.294.516-.314 1.109-.47 1.777-.47.186 0 .385.017.597.05.22.026.393.064.52.115Zm8.976.089v2.412h-7.871v-2.412h7.871Zm-5.764-3.377h3.364v13.152c0 .406.056.72.166.94a.85.85 0 0 0 .495.444c.22.076.482.114.787.114.22 0 .423-.013.609-.038s.343-.05.47-.076l.013 2.514a6.31 6.31 0 0 1-.953.228 7.05 7.05 0 0 1-1.18.089c-.754 0-1.414-.127-1.981-.381a2.83 2.83 0 0 1-1.32-1.257c-.313-.584-.47-1.354-.47-2.31v-13.42Z" fill="#fff"/><g filter="url(#b)"><path d="M264.406 285.203c16.157-6.505 29.783-18.103 38.838-33.056a81.408 81.408 0 0 0 11.388-49.886L234.5 210l29.906 75.203Z" fill="#262A86"/></g><g filter="url(#c)"><path d="M247.607 147.266a68.496 68.496 0 0 1 24.34 9.876L234.5 214.5l13.107-67.234Z" fill="#080D3A"/></g><g filter="url(#d)"><path d="M276.798 147.172a76.462 76.462 0 0 1 24.039 24.415 75.328 75.328 0 0 1 10.827 32.324L235 211l41.798-63.828Z" fill="#131C6B"/></g><g filter="url(#e)"><path d="M268.695 291.523a87.832 87.832 0 0 1-63.437.757L236 210l32.695 81.523Z" fill="#291DB1"/></g><g filter="url(#f)"><path d="M131.857 243.105a109.275 109.275 0 0 1 3.825-76.441L236 210l-104.143 33.105Z" fill="#858FEC"/></g><g filter="url(#g)"><path d="M258.745 92.175a120.002 120.002 0 0 0-133.269 71.086L236 210l22.745-117.825Z" fill="#A6A5E9"/></g><g filter="url(#h)"><path d="M145.157 238.662a95.252 95.252 0 0 0 57.434 60.545L236 210l-90.843 28.662Z" fill="#4745CE"/></g><path d="M189.765 182.001a.815.815 0 0 0-.574.283.796.796 0 0 0-.186.606l2.521 23.547a.805.805 0 0 0 .542.68c.3.102.633.022.852-.205l4.206-4.371 4.129 7.064a.815.815 0 0 0 1.102.288l4.916-2.805a.797.797 0 0 0 .304-1.09l-4.118-7.064 5.917-1.415a.797.797 0 0 0 .291-1.428l-19.37-13.927a.813.813 0 0 0-.532-.163Zm1.051 2.517 16.482 11.849-5.283 1.265a.806.806 0 0 0-.549.464.79.79 0 0 0 .043.713l4.256 7.289-3.509 2.004-4.257-7.289a.814.814 0 0 0-1.292-.15l-3.749 3.895-2.142-20.04Z" fill="#34344D"/><path d="m190.816 184.518 16.482 11.849-5.283 1.265a.806.806 0 0 0-.549.464.79.79 0 0 0 .043.713l4.256 7.289-3.509 2.004-4.257-7.289a.814.814 0 0 0-1.292-.15l-3.749 3.895-2.142-20.04Z" fill="#fff"/><path d="M102 108h48.661L173 131" stroke="#9D9D9D" stroke-linecap="round"/><path d="M63.559 99.465v.539c0 .641-.08 1.215-.24 1.723-.16.507-.391.939-.692 1.294a3 3 0 0 1-1.084.815 3.407 3.407 0 0 1-1.406.281c-.504 0-.967-.094-1.389-.281a3.124 3.124 0 0 1-1.09-.815 3.793 3.793 0 0 1-.709-1.294c-.168-.508-.252-1.082-.252-1.723v-.54c0-.64.082-1.212.246-1.716.168-.508.405-.94.71-1.295.304-.36.665-.633 1.083-.82a3.381 3.381 0 0 1 1.389-.281c.52 0 .988.093 1.406.28a2.97 2.97 0 0 1 1.084.821c.305.356.537.787.697 1.295.165.504.247 1.076.247 1.717Zm-1.12.539v-.55c0-.509-.052-.958-.158-1.348a2.793 2.793 0 0 0-.45-.985 1.946 1.946 0 0 0-.733-.603 2.223 2.223 0 0 0-.973-.206c-.352 0-.67.069-.955.206a2.022 2.022 0 0 0-.727.603c-.199.266-.353.594-.462.985-.11.39-.165.84-.165 1.347v.551c0 .512.055.965.164 1.359.11.391.266.721.47.991.206.265.45.466.732.603.285.137.603.205.955.205.367 0 .693-.068.978-.205.285-.137.526-.338.72-.603.2-.27.35-.6.452-.991.102-.394.153-.847.153-1.359Zm3.733-1.125v7.559h-1.09V97.66h.996l.094 1.219Zm4.271 1.898v.123c0 .461-.054.889-.164 1.284-.11.39-.27.73-.48 1.019a2.185 2.185 0 0 1-.768.674c-.304.16-.654.24-1.049.24-.402 0-.757-.066-1.066-.199a2.104 2.104 0 0 1-.785-.58 2.968 2.968 0 0 1-.516-.914 5.3 5.3 0 0 1-.258-1.201v-.657a5.52 5.52 0 0 1 .264-1.26c.129-.37.299-.687.51-.949.215-.265.475-.466.78-.603.304-.14.655-.211 1.054-.211.398 0 .752.078 1.06.234.309.153.569.371.78.657.21.285.369.627.474 1.025.11.394.164.834.164 1.318Zm-1.09.123v-.123c0-.316-.033-.613-.1-.89a2.252 2.252 0 0 0-.31-.739 1.48 1.48 0 0 0-.527-.504 1.5 1.5 0 0 0-.768-.187 1.69 1.69 0 0 0-.714.14c-.2.094-.37.221-.51.382-.14.156-.256.335-.346.539-.086.199-.15.406-.193.621v1.517c.078.274.187.532.328.774.14.238.328.431.562.58.235.144.53.217.885.217.293 0 .545-.061.756-.182a1.53 1.53 0 0 0 .527-.51c.141-.215.245-.461.31-.738.067-.281.1-.58.1-.897Zm5.128-3.24v.832h-3.428v-.832h3.428Zm-2.268-1.54h1.084v6.31c0 .215.033.377.1.486a.477.477 0 0 0 .257.217c.106.035.219.053.34.053.09 0 .184-.008.281-.024.102-.019.178-.035.229-.047l.006.885c-.086.027-.2.053-.34.076a2.532 2.532 0 0 1-.498.041c-.266 0-.51-.053-.733-.158a1.176 1.176 0 0 1-.533-.527c-.129-.25-.193-.586-.193-1.008v-6.305Zm4.717 1.54V104h-1.09v-6.34h1.09Zm-1.172-1.681c0-.176.053-.325.158-.446.11-.12.27-.181.48-.181.207 0 .366.06.475.181.113.121.17.27.17.445a.613.613 0 0 1-.17.434c-.11.117-.267.176-.474.176-.212 0-.372-.059-.481-.176a.638.638 0 0 1-.158-.434Zm2.625 4.921v-.134c0-.457.066-.881.199-1.272a3.02 3.02 0 0 1 .574-1.025c.25-.293.553-.52.908-.68a2.819 2.819 0 0 1 1.196-.246c.445 0 .846.082 1.2.246.36.16.665.387.915.68.254.289.447.63.58 1.025.133.39.2.815.2 1.272v.134c0 .457-.067.881-.2 1.272-.133.39-.326.732-.58 1.025-.25.289-.553.516-.908.68-.352.16-.75.24-1.195.24-.446 0-.846-.08-1.202-.24a2.72 2.72 0 0 1-.914-.68 3.102 3.102 0 0 1-.574-1.025 3.931 3.931 0 0 1-.2-1.272Zm1.084-.134v.134c0 .317.037.616.111.897.074.277.186.523.334.738.152.215.342.385.569.51.226.121.49.182.79.182.297 0 .557-.061.78-.182.226-.125.414-.295.562-.51.149-.215.26-.461.334-.738.078-.281.117-.58.117-.897v-.134c0-.313-.039-.608-.117-.885a2.28 2.28 0 0 0-.34-.744 1.615 1.615 0 0 0-.562-.516 1.578 1.578 0 0 0-.785-.187c-.297 0-.559.062-.785.187-.223.125-.41.297-.563.516-.148.215-.26.463-.334.744a3.41 3.41 0 0 0-.111.885Zm7.13-1.752V104h-1.083v-6.34h1.025l.059 1.354Zm-.257 1.576-.451-.018c.004-.433.068-.834.193-1.2.125-.372.3-.694.527-.968a2.349 2.349 0 0 1 1.858-.861c.312 0 .594.043.844.129.25.082.462.215.638.398.18.184.317.422.41.715.094.29.141.643.141 1.06V104h-1.09v-4.166c0-.332-.049-.598-.146-.797a.9.9 0 0 0-.428-.44 1.535 1.535 0 0 0-.692-.14c-.269 0-.515.057-.738.17-.219.113-.408.27-.568.469-.156.199-.28.427-.37.685a2.505 2.505 0 0 0-.128.809Zm12.228-5.168V104h-1.084v-7.225l-2.185.797v-.978l3.1-1.172h.17ZM427.348 142.469h1.095l2.795 6.955 2.789-6.955h1.102L431.66 151h-.855l-3.457-8.531Zm-.358 0h.967l.158 5.203V151h-1.125v-8.531Zm7.524 0h.966V151h-1.125v-3.328l.159-5.203Zm5.42 8.648c-.442 0-.842-.074-1.202-.222a2.746 2.746 0 0 1-.92-.639 2.849 2.849 0 0 1-.585-.973 3.56 3.56 0 0 1-.206-1.23v-.246c0-.516.077-.975.229-1.377.152-.407.359-.75.621-1.032a2.66 2.66 0 0 1 .891-.638 2.55 2.55 0 0 1 1.031-.217c.453 0 .844.078 1.172.234.332.157.603.375.814.657.211.277.367.605.469.984.102.375.152.785.152 1.23v.487h-4.734v-.885h3.65v-.082a2.696 2.696 0 0 0-.175-.82 1.478 1.478 0 0 0-.469-.657c-.215-.171-.508-.257-.879-.257a1.47 1.47 0 0 0-1.213.615 2.308 2.308 0 0 0-.346.744 3.775 3.775 0 0 0-.123 1.014v.246c0 .301.041.584.123.849.086.262.209.493.37.692.164.199.361.355.591.468.235.114.5.17.797.17.383 0 .707-.078.973-.234.265-.156.498-.365.697-.627l.656.522c-.136.207-.31.404-.521.591-.211.188-.471.34-.779.457-.305.118-.666.176-1.084.176Zm4.81-5.197V151h-1.09v-6.34h1.032l.058 1.26Zm-.223 1.67-.503-.018c.003-.433.06-.834.17-1.201.109-.371.271-.693.486-.967.215-.273.482-.484.803-.633.32-.152.691-.228 1.113-.228.297 0 .57.043.82.129.25.082.467.213.651.392.183.18.326.411.427.692.102.281.153.621.153 1.019V151h-1.084v-4.172c0-.332-.057-.598-.17-.797a.975.975 0 0 0-.469-.433 1.686 1.686 0 0 0-.715-.141c-.32 0-.588.057-.803.17a1.353 1.353 0 0 0-.515.469 2.09 2.09 0 0 0-.281.685 3.818 3.818 0 0 0-.083.809Zm4.108-.598-.727.223c.004-.348.061-.682.17-1.002a2.74 2.74 0 0 1 .487-.856 2.28 2.28 0 0 1 .791-.591 2.46 2.46 0 0 1 1.072-.223c.34 0 .64.045.902.135.266.09.488.228.668.416.184.183.322.42.416.709.094.289.141.633.141 1.031V151h-1.09v-4.178c0-.355-.057-.631-.17-.826a.885.885 0 0 0-.469-.416 1.872 1.872 0 0 0-.715-.123c-.238 0-.449.041-.632.123a1.3 1.3 0 0 0-.463.34 1.485 1.485 0 0 0-.287.486 1.795 1.795 0 0 0-.094.586Zm5.273.908v-.134c0-.457.067-.881.2-1.272a3.01 3.01 0 0 1 .574-1.025c.25-.293.553-.52.908-.68a2.819 2.819 0 0 1 1.195-.246c.446 0 .846.082 1.201.246.36.16.665.387.915.68.253.289.447.631.58 1.025.132.391.199.815.199 1.272v.134c0 .457-.067.881-.199 1.272-.133.39-.327.732-.58 1.025-.25.289-.553.516-.909.68-.351.16-.75.24-1.195.24-.445 0-.846-.08-1.201-.24a2.714 2.714 0 0 1-.914-.68 3.087 3.087 0 0 1-.574-1.025 3.926 3.926 0 0 1-.2-1.272Zm1.084-.134v.134c0 .317.037.616.112.897.074.277.185.523.334.738.152.215.341.385.568.51.227.121.49.182.791.182.297 0 .557-.061.779-.182.227-.125.414-.295.563-.51.148-.215.26-.461.334-.738a3.34 3.34 0 0 0 .117-.897v-.134c0-.313-.039-.608-.117-.885a2.284 2.284 0 0 0-.34-.744 1.608 1.608 0 0 0-.563-.516 1.575 1.575 0 0 0-.785-.187c-.297 0-.558.062-.785.187-.223.125-.41.297-.562.516-.149.215-.26.463-.334.744a3.374 3.374 0 0 0-.112.885Zm7.131-2.11V151h-1.084v-6.34h1.055l.029.996Zm1.981-1.031-.006 1.008a1.53 1.53 0 0 0-.258-.035 2.678 2.678 0 0 0-.27-.012c-.25 0-.47.039-.662.117a1.382 1.382 0 0 0-.486.328 1.58 1.58 0 0 0-.316.504 2.424 2.424 0 0 0-.147.633l-.305.176c0-.383.038-.742.112-1.078.078-.336.197-.633.357-.891.16-.262.363-.465.61-.609a1.705 1.705 0 0 1 1.16-.194.8.8 0 0 1 .211.053Zm2.888 5.719 1.764-5.684h1.16l-2.543 7.319a3.993 3.993 0 0 1-.234.503 2.427 2.427 0 0 1-.363.522 1.73 1.73 0 0 1-.54.398 1.615 1.615 0 0 1-.744.159c-.086 0-.195-.012-.328-.036a3.317 3.317 0 0 1-.281-.058l-.006-.879c.031.004.08.008.147.012a1.755 1.755 0 0 0 .773-.088.954.954 0 0 0 .434-.323c.121-.148.224-.353.31-.615l.451-1.23Zm-1.295-5.684 1.647 4.922.281 1.143-.779.398-2.332-6.463h1.183Zm11.913 5.256v-3.264c0-.25-.051-.466-.153-.65a.995.995 0 0 0-.445-.434 1.62 1.62 0 0 0-.738-.152c-.274 0-.514.047-.721.141a1.25 1.25 0 0 0-.481.369.809.809 0 0 0-.17.492h-1.084c0-.227.059-.451.176-.674.117-.223.285-.424.504-.603.223-.184.488-.329.797-.434.313-.109.66-.164 1.043-.164.461 0 .867.078 1.219.234.355.157.633.393.832.709.203.313.305.705.305 1.178v2.953c0 .211.017.436.052.674.039.238.096.443.17.615V151h-1.131a2.091 2.091 0 0 1-.129-.498 4.042 4.042 0 0 1-.046-.586Zm.187-2.76.012.762h-1.096c-.309 0-.584.025-.826.076a1.898 1.898 0 0 0-.61.217 1.037 1.037 0 0 0-.375.369.99.99 0 0 0-.128.51c0 .199.044.381.134.545.09.164.225.295.405.392.183.094.408.141.673.141.332 0 .625-.07.879-.211s.455-.312.604-.516c.152-.203.234-.4.246-.591l.463.521a1.57 1.57 0 0 1-.223.545 2.618 2.618 0 0 1-1.201 1.025 2.313 2.313 0 0 1-.926.176 2.43 2.43 0 0 1-1.131-.252 1.933 1.933 0 0 1-.75-.674 1.788 1.788 0 0 1-.263-.955c0-.34.066-.638.199-.896.133-.262.324-.479.574-.651.25-.175.551-.308.903-.398.351-.09.744-.135 1.177-.135h1.26ZM481.57 142v9h-1.09v-9h1.09Zm5.479 7.916v-3.264c0-.25-.051-.466-.153-.65a.995.995 0 0 0-.445-.434 1.62 1.62 0 0 0-.738-.152c-.274 0-.514.047-.721.141a1.239 1.239 0 0 0-.48.369.803.803 0 0 0-.17.492h-1.084c0-.227.058-.451.176-.674.117-.223.285-.424.504-.603.222-.184.488-.329.796-.434a3.157 3.157 0 0 1 1.043-.164c.461 0 .868.078 1.219.234.356.157.633.393.832.709.203.313.305.705.305 1.178v2.953c0 .211.017.436.053.674.039.238.095.443.169.615V151h-1.13a2 2 0 0 1-.129-.498 3.914 3.914 0 0 1-.047-.586Zm.187-2.76.012.762h-1.096c-.308 0-.584.025-.826.076a1.883 1.883 0 0 0-.609.217 1.037 1.037 0 0 0-.375.369.981.981 0 0 0-.129.51c0 .199.045.381.135.545.09.164.224.295.404.392.184.094.408.141.674.141a1.817 1.817 0 0 0 1.482-.727c.153-.203.235-.4.246-.591l.463.521a1.565 1.565 0 0 1-.222.545 2.628 2.628 0 0 1-1.202 1.025 2.312 2.312 0 0 1-.925.176c-.43 0-.807-.084-1.131-.252a1.919 1.919 0 0 1-.75-.674 1.78 1.78 0 0 1-.264-.955c0-.34.066-.638.199-.896.133-.262.324-.479.574-.651.25-.175.551-.308.903-.398.351-.09.744-.135 1.178-.135h1.259Zm3.686-1.5V151h-1.084v-6.34h1.055l.029.996Zm1.98-1.031-.006 1.008a1.506 1.506 0 0 0-.257-.035 2.678 2.678 0 0 0-.27-.012c-.25 0-.471.039-.662.117a1.382 1.382 0 0 0-.486.328 1.583 1.583 0 0 0-.317.504 2.424 2.424 0 0 0-.146.633l-.305.176c0-.383.037-.742.111-1.078.079-.336.198-.633.358-.891a1.74 1.74 0 0 1 .609-.609 1.708 1.708 0 0 1 1.16-.194.79.79 0 0 1 .211.053Zm2.08 1.295V151h-1.089v-6.34h1.031l.058 1.26Zm-.222 1.67-.504-.018c.004-.433.06-.834.17-1.201.109-.371.271-.693.486-.967.215-.273.483-.484.803-.633.32-.152.691-.228 1.113-.228.297 0 .57.043.82.129.25.082.467.213.651.392.183.18.326.411.428.692.101.281.152.621.152 1.019V151h-1.084v-4.172c0-.332-.057-.598-.17-.797a.971.971 0 0 0-.469-.433 1.686 1.686 0 0 0-.715-.141c-.32 0-.587.057-.802.17a1.349 1.349 0 0 0-.516.469 2.09 2.09 0 0 0-.281.685 3.819 3.819 0 0 0-.082.809Zm4.107-.598-.726.223c.004-.348.06-.682.17-1.002.113-.32.275-.606.486-.856a2.29 2.29 0 0 1 .791-.591 2.46 2.46 0 0 1 1.072-.223c.34 0 .641.045.902.135.266.09.489.228.668.416.184.183.323.42.416.709.094.289.141.633.141 1.031V151h-1.09v-4.178c0-.355-.056-.631-.17-.826a.883.883 0 0 0-.468-.416 1.88 1.88 0 0 0-.715-.123c-.239 0-.449.041-.633.123a1.3 1.3 0 0 0-.463.34 1.485 1.485 0 0 0-.287.486 1.795 1.795 0 0 0-.094.586Z" fill="#8E9097"/><path d="M411 152a5 5 0 1 0-.001-10.001A5 5 0 0 0 411 152Z" fill="#A6A5E9"/><path d="M432.164 170.08v.92h-4.266v-.92h4.266Zm-4.043-7.611V171h-1.131v-8.531h1.131Zm4.887 5.431v-.134c0-.457.066-.881.199-1.272.133-.394.324-.736.574-1.025.25-.293.553-.52.908-.68a2.823 2.823 0 0 1 1.196-.246c.445 0 .845.082 1.201.246.359.16.664.387.914.68.254.289.447.631.58 1.025.133.391.199.815.199 1.272v.134c0 .457-.066.881-.199 1.272-.133.39-.326.732-.58 1.025-.25.289-.553.516-.908.68-.352.16-.75.24-1.196.24-.445 0-.845-.08-1.201-.24a2.724 2.724 0 0 1-.914-.68 3.105 3.105 0 0 1-.574-1.025 3.926 3.926 0 0 1-.199-1.272Zm1.084-.134v.134c0 .317.037.616.111.897.074.277.186.523.334.738.152.215.342.385.568.51.227.121.491.182.791.182.297 0 .557-.061.78-.182.226-.125.414-.295.562-.51.149-.215.26-.461.334-.738a3.34 3.34 0 0 0 .117-.897v-.134c0-.313-.039-.608-.117-.885a2.264 2.264 0 0 0-.34-.744 1.613 1.613 0 0 0-.562-.516 1.577 1.577 0 0 0-.785-.187c-.297 0-.559.062-.785.187a1.68 1.68 0 0 0-.563.516c-.148.215-.26.463-.334.744a3.417 3.417 0 0 0-.111.885Zm9.785 2.15v-3.264c0-.25-.051-.466-.152-.65a.997.997 0 0 0-.446-.434 1.62 1.62 0 0 0-.738-.152 1.73 1.73 0 0 0-.721.141 1.239 1.239 0 0 0-.48.369.809.809 0 0 0-.17.492h-1.084c0-.227.059-.451.176-.674.117-.223.285-.424.504-.603.222-.184.488-.329.796-.434a3.157 3.157 0 0 1 1.043-.164c.461 0 .868.078 1.219.234.356.157.633.393.832.709.203.313.305.705.305 1.178v2.953c0 .211.018.436.053.674.039.238.095.443.17.615V171h-1.131a2 2 0 0 1-.129-.498 4.051 4.051 0 0 1-.047-.586Zm.187-2.76.012.762h-1.096c-.308 0-.584.025-.826.076a1.883 1.883 0 0 0-.609.217 1.037 1.037 0 0 0-.375.369.981.981 0 0 0-.129.51c0 .199.045.381.135.545.09.164.224.295.404.392.184.094.408.141.674.141a1.817 1.817 0 0 0 1.482-.727c.153-.203.235-.4.246-.591l.463.521a1.565 1.565 0 0 1-.222.545 2.601 2.601 0 0 1-.487.574c-.199.18-.437.33-.715.451a2.312 2.312 0 0 1-.925.176c-.43 0-.807-.084-1.131-.252a1.933 1.933 0 0 1-.75-.674 1.78 1.78 0 0 1-.264-.955c0-.34.067-.638.199-.896.133-.262.325-.479.575-.651.25-.175.55-.308.902-.398.352-.09.744-.135 1.178-.135h1.259Zm6.598 2.614V162h1.09v9h-.996l-.094-1.23Zm-4.266-1.87v-.123c0-.484.059-.923.176-1.318.121-.398.291-.74.51-1.025.223-.286.486-.504.791-.657a2.253 2.253 0 0 1 1.031-.234c.399 0 .746.07 1.043.211.301.137.555.338.762.603.211.262.377.579.498.95s.205.791.252 1.259v.539a5.521 5.521 0 0 1-.252 1.254 2.963 2.963 0 0 1-.498.95 2.093 2.093 0 0 1-.762.603 2.522 2.522 0 0 1-1.054.205c-.372 0-.711-.08-1.02-.24a2.406 2.406 0 0 1-.791-.674 3.28 3.28 0 0 1-.51-1.019 4.503 4.503 0 0 1-.176-1.284Zm1.09-.123v.123c0 .317.032.614.094.891.066.277.168.521.305.732.136.211.31.377.521.498.211.118.463.176.756.176.359 0 .654-.076.885-.228.234-.153.422-.354.562-.604.141-.25.25-.521.329-.814v-1.412a3.12 3.12 0 0 0-.206-.621 1.91 1.91 0 0 0-.339-.539 1.455 1.455 0 0 0-.51-.381 1.649 1.649 0 0 0-.709-.141c-.297 0-.553.063-.768.188a1.491 1.491 0 0 0-.521.503 2.312 2.312 0 0 0-.305.739 4.07 4.07 0 0 0-.094.89Zm12.668 2.139v-3.264c0-.25-.05-.466-.152-.65a1 1 0 0 0-.445-.434 1.627 1.627 0 0 0-.739-.152c-.273 0-.513.047-.72.141a1.243 1.243 0 0 0-.481.369.809.809 0 0 0-.17.492h-1.084c0-.227.059-.451.176-.674.117-.223.285-.424.504-.603.223-.184.488-.329.797-.434.312-.109.66-.164 1.043-.164.461 0 .867.078 1.219.234.355.157.632.393.832.709.203.313.304.705.304 1.178v2.953c0 .211.018.436.053.674.039.238.096.443.17.615V171h-1.131a2 2 0 0 1-.129-.498 4.051 4.051 0 0 1-.047-.586Zm.188-2.76.012.762h-1.096c-.309 0-.584.025-.826.076a1.88 1.88 0 0 0-.61.217 1.037 1.037 0 0 0-.375.369.981.981 0 0 0-.129.51c0 .199.045.381.135.545a.98.98 0 0 0 .404.392c.184.094.409.141.674.141.332 0 .625-.07.879-.211s.455-.312.604-.516c.152-.203.234-.4.246-.591l.463.521a1.59 1.59 0 0 1-.223.545 2.633 2.633 0 0 1-1.201 1.025 2.317 2.317 0 0 1-.926.176c-.43 0-.807-.084-1.131-.252a1.933 1.933 0 0 1-.75-.674 1.78 1.78 0 0 1-.263-.955c0-.34.066-.638.199-.896.133-.262.324-.479.574-.651a2.75 2.75 0 0 1 .902-.398c.352-.09.744-.135 1.178-.135h1.26Zm3.779-5.156v9h-1.09v-9h1.09Zm5.479 7.916v-3.264c0-.25-.051-.466-.153-.65a.995.995 0 0 0-.445-.434 1.62 1.62 0 0 0-.738-.152c-.274 0-.514.047-.721.141a1.25 1.25 0 0 0-.481.369.808.808 0 0 0-.169.492h-1.084c0-.227.058-.451.175-.674a1.98 1.98 0 0 1 .504-.603c.223-.184.489-.329.797-.434.313-.109.66-.164 1.043-.164.461 0 .867.078 1.219.234.355.157.633.393.832.709.203.313.305.705.305 1.178v2.953c0 .211.017.436.052.674.039.238.096.443.17.615V171h-1.131a2.091 2.091 0 0 1-.129-.498 4.042 4.042 0 0 1-.046-.586Zm.187-2.76.012.762h-1.096c-.308 0-.584.025-.826.076a1.883 1.883 0 0 0-.609.217 1.037 1.037 0 0 0-.375.369.981.981 0 0 0-.129.51c0 .199.045.381.134.545.09.164.225.295.405.392.183.094.408.141.674.141a1.821 1.821 0 0 0 1.482-.727c.152-.203.234-.4.246-.591l.463.521a1.57 1.57 0 0 1-.223.545 2.618 2.618 0 0 1-1.201 1.025 2.313 2.313 0 0 1-.926.176c-.429 0-.806-.084-1.13-.252a1.919 1.919 0 0 1-.75-.674 1.78 1.78 0 0 1-.264-.955c0-.34.066-.638.199-.896.133-.262.324-.479.574-.651.25-.175.551-.308.903-.398.351-.09.744-.135 1.177-.135h1.26Zm3.686-1.5V171h-1.084v-6.34h1.054l.03.996Zm1.98-1.031-.006 1.008a1.53 1.53 0 0 0-.258-.035 2.671 2.671 0 0 0-.269-.012c-.25 0-.471.039-.662.117a1.377 1.377 0 0 0-.487.328 1.598 1.598 0 0 0-.316.504 2.424 2.424 0 0 0-.146.633l-.305.176c0-.383.037-.742.111-1.078.078-.336.197-.633.358-.891a1.74 1.74 0 0 1 .609-.609 1.708 1.708 0 0 1 1.16-.194.79.79 0 0 1 .211.053Zm2.08 1.295V171h-1.09v-6.34h1.032l.058 1.26Zm-.222 1.67-.504-.018c.004-.433.06-.834.17-1.201.109-.371.271-.693.486-.967.215-.273.482-.484.803-.633.32-.152.691-.228 1.113-.228.297 0 .57.043.82.129.25.082.467.213.651.392.183.18.326.411.427.692.102.281.153.621.153 1.019V171h-1.084v-4.172c0-.332-.057-.598-.17-.797a.975.975 0 0 0-.469-.433 1.686 1.686 0 0 0-.715-.141c-.32 0-.588.057-.803.17a1.353 1.353 0 0 0-.515.469 2.09 2.09 0 0 0-.281.685 3.819 3.819 0 0 0-.082.809Zm4.107-.598-.727.223c.004-.348.061-.682.17-1.002a2.74 2.74 0 0 1 .487-.856 2.28 2.28 0 0 1 .791-.591 2.46 2.46 0 0 1 1.072-.223c.34 0 .641.045.902.135.266.09.489.228.668.416.184.183.323.42.416.709.094.289.141.633.141 1.031V171h-1.09v-4.178c0-.355-.057-.631-.17-.826a.885.885 0 0 0-.469-.416 1.87 1.87 0 0 0-.714-.123c-.239 0-.45.041-.633.123a1.3 1.3 0 0 0-.463.34 1.485 1.485 0 0 0-.287.486 1.795 1.795 0 0 0-.094.586Z" fill="#8E9097"/><path d="M411 172a5 5 0 1 0-.001-10.001A5 5 0 0 0 411 172Z" fill="#858FEC"/><path d="M432.562 186.137v.92h-4.617v-.92h4.617Zm-4.441-3.668V191h-1.131v-8.531h1.131Zm5.426 0V191h-1.125v-8.531h1.125Zm5.724 7.066v-4.875h1.09V191h-1.037l-.053-1.465Zm.206-1.336.451-.011c0 .421-.045.812-.135 1.171a2.522 2.522 0 0 1-.422.926 1.987 1.987 0 0 1-.767.615c-.317.145-.702.217-1.155.217-.308 0-.592-.045-.849-.135a1.687 1.687 0 0 1-.657-.416 1.886 1.886 0 0 1-.427-.732 3.521 3.521 0 0 1-.147-1.084v-4.09h1.084v4.102c0 .285.031.521.094.709.066.183.154.33.264.439.113.106.238.18.375.223.14.043.285.064.433.064.461 0 .826-.088 1.096-.263.269-.18.463-.42.58-.721.121-.305.182-.643.182-1.014Zm3.615-2.279V191h-1.09v-6.34h1.031l.059 1.26Zm-.223 1.67-.504-.018c.004-.433.061-.834.17-1.201.11-.371.272-.693.486-.967.215-.273.483-.484.803-.633a2.574 2.574 0 0 1 1.114-.228c.296 0 .57.043.82.129.25.082.467.213.65.392.184.18.326.411.428.692.102.281.152.621.152 1.019V191h-1.084v-4.172c0-.332-.056-.598-.17-.797a.969.969 0 0 0-.468-.433 1.692 1.692 0 0 0-.715-.141c-.321 0-.588.057-.803.17a1.349 1.349 0 0 0-.516.469 2.134 2.134 0 0 0-.281.685 3.819 3.819 0 0 0-.082.809Zm4.108-.598-.727.223c.004-.348.061-.682.17-1.002.113-.32.275-.606.486-.856a2.3 2.3 0 0 1 .791-.591c.313-.149.67-.223 1.073-.223.339 0 .64.045.902.135.266.09.488.228.668.416.183.183.322.42.416.709.094.289.14.633.14 1.031V191h-1.089v-4.178c0-.355-.057-.631-.17-.826a.889.889 0 0 0-.469-.416 1.876 1.876 0 0 0-.715-.123 1.54 1.54 0 0 0-.633.123 1.308 1.308 0 0 0-.463.34c-.125.141-.22.303-.287.486a1.822 1.822 0 0 0-.093.586Zm6.738-2.332V191h-1.09v-6.34h1.09Zm-1.172-1.681c0-.176.053-.325.158-.446.11-.121.27-.181.481-.181.207 0 .365.06.474.181.114.121.17.27.17.446a.61.61 0 0 1-.17.433c-.109.117-.267.176-.474.176-.211 0-.371-.059-.481-.176a.64.64 0 0 1-.158-.433Zm6.908 6.791V182h1.09v9h-.996l-.094-1.23Zm-4.265-1.87v-.123c0-.484.058-.923.175-1.318.121-.398.291-.74.51-1.025.223-.286.486-.504.791-.657a2.253 2.253 0 0 1 1.031-.234c.399 0 .746.07 1.043.211.301.137.555.338.762.603.211.262.377.579.498.95s.205.791.252 1.259v.539a5.521 5.521 0 0 1-.252 1.254 2.963 2.963 0 0 1-.498.95 2.093 2.093 0 0 1-.762.603c-.3.137-.652.205-1.054.205-.371 0-.711-.08-1.02-.24a2.406 2.406 0 0 1-.791-.674 3.28 3.28 0 0 1-.51-1.019 4.504 4.504 0 0 1-.175-1.284Zm1.089-.123v.123c0 .317.032.614.094.891.067.277.168.521.305.732.137.211.31.377.521.498.211.118.463.176.756.176.36 0 .654-.076.885-.228.234-.153.422-.354.562-.604.141-.25.25-.521.329-.814v-1.412a3.12 3.12 0 0 0-.206-.621 1.887 1.887 0 0 0-.339-.539 1.455 1.455 0 0 0-.51-.381 1.649 1.649 0 0 0-.709-.141c-.297 0-.553.063-.768.188a1.5 1.5 0 0 0-.521.503 2.335 2.335 0 0 0-.305.739 4.07 4.07 0 0 0-.094.89Zm7.131-3.117V191h-1.09v-6.34h1.09Zm-1.172-1.681c0-.176.053-.325.159-.446.109-.121.269-.181.48-.181.207 0 .365.06.475.181a.63.63 0 0 1 .17.446.614.614 0 0 1-.17.433c-.11.117-.268.176-.475.176-.211 0-.371-.059-.48-.176a.636.636 0 0 1-.159-.433Zm5.567 1.681v.832h-3.428v-.832h3.428Zm-2.268-1.541h1.084v6.311c0 .215.033.377.1.486a.475.475 0 0 0 .258.217c.105.035.218.053.339.053.09 0 .184-.008.282-.024.101-.019.177-.035.228-.047l.006.885a2.514 2.514 0 0 1-.34.076 2.523 2.523 0 0 1-.498.041c-.265 0-.51-.053-.732-.158a1.17 1.17 0 0 1-.533-.527c-.129-.25-.194-.586-.194-1.008v-6.305Zm5.321 7.225 1.763-5.684h1.16l-2.543 7.319a3.857 3.857 0 0 1-.234.503 2.427 2.427 0 0 1-.363.522 1.726 1.726 0 0 1-.539.398 1.615 1.615 0 0 1-.744.159 3.408 3.408 0 0 1-.61-.094l-.006-.879c.032.004.08.008.147.012a1.755 1.755 0 0 0 .773-.088.948.948 0 0 0 .434-.323c.121-.148.224-.353.31-.615l.452-1.23Zm-1.295-5.684 1.646 4.922.281 1.143-.779.398-2.332-6.463h1.184Zm11.912 5.256v-3.264c0-.25-.051-.466-.153-.65a.995.995 0 0 0-.445-.434 1.62 1.62 0 0 0-.738-.152c-.274 0-.514.047-.721.141a1.239 1.239 0 0 0-.48.369.803.803 0 0 0-.17.492h-1.084c0-.227.058-.451.175-.674a1.98 1.98 0 0 1 .504-.603c.223-.184.489-.329.797-.434.313-.109.66-.164 1.043-.164.461 0 .867.078 1.219.234.355.157.633.393.832.709.203.313.305.705.305 1.178v2.953c0 .211.017.436.052.674.039.238.096.443.17.615V191h-1.131a2.049 2.049 0 0 1-.128-.498 3.914 3.914 0 0 1-.047-.586Zm.187-2.76.012.762h-1.096c-.308 0-.584.025-.826.076a1.883 1.883 0 0 0-.609.217 1.037 1.037 0 0 0-.375.369.981.981 0 0 0-.129.51c0 .199.045.381.135.545a.968.968 0 0 0 .404.392c.183.094.408.141.674.141.332 0 .625-.07.879-.211.253-.141.455-.312.603-.516.152-.203.234-.4.246-.591l.463.521a1.55 1.55 0 0 1-.223.545 2.603 2.603 0 0 1-1.201 1.025 2.313 2.313 0 0 1-.926.176c-.429 0-.806-.084-1.13-.252a1.919 1.919 0 0 1-.75-.674 1.78 1.78 0 0 1-.264-.955c0-.34.066-.638.199-.896.133-.262.324-.479.574-.651.25-.175.551-.308.903-.398.351-.09.744-.135 1.177-.135h1.26Zm3.78-5.156v9h-1.09v-9h1.09Zm5.478 7.916v-3.264c0-.25-.051-.466-.152-.65a.997.997 0 0 0-.446-.434 1.62 1.62 0 0 0-.738-.152 1.73 1.73 0 0 0-.721.141 1.239 1.239 0 0 0-.48.369.809.809 0 0 0-.17.492h-1.084c0-.227.059-.451.176-.674.117-.223.285-.424.504-.603.222-.184.488-.329.797-.434.312-.109.66-.164 1.043-.164.46 0 .867.078 1.218.234.356.157.633.393.832.709.203.313.305.705.305 1.178v2.953c0 .211.018.436.053.674.039.238.095.443.17.615V191h-1.131a2 2 0 0 1-.129-.498 4.051 4.051 0 0 1-.047-.586Zm.188-2.76.011.762h-1.095c-.309 0-.584.025-.827.076a1.883 1.883 0 0 0-.609.217 1.037 1.037 0 0 0-.375.369.981.981 0 0 0-.129.51c0 .199.045.381.135.545.09.164.224.295.404.392.184.094.408.141.674.141a1.817 1.817 0 0 0 1.482-.727c.153-.203.235-.4.246-.591l.463.521a1.565 1.565 0 0 1-.222.545 2.574 2.574 0 0 1-.487.574c-.199.18-.437.33-.714.451a2.317 2.317 0 0 1-.926.176c-.43 0-.807-.084-1.131-.252a1.933 1.933 0 0 1-.75-.674 1.78 1.78 0 0 1-.264-.955c0-.34.067-.638.199-.896.133-.262.325-.479.575-.651.25-.175.55-.308.902-.398.352-.09.744-.135 1.178-.135h1.26Zm3.685-1.5V191h-1.084v-6.34h1.055l.029.996Zm1.981-1.031-.006 1.008a1.53 1.53 0 0 0-.258-.035 2.678 2.678 0 0 0-.27-.012c-.25 0-.47.039-.662.117a1.382 1.382 0 0 0-.486.328 1.6 1.6 0 0 0-.317.504 2.424 2.424 0 0 0-.146.633l-.305.176c0-.383.037-.742.112-1.078.078-.336.197-.633.357-.891a1.74 1.74 0 0 1 .609-.609 1.708 1.708 0 0 1 1.161-.194.812.812 0 0 1 .211.053Zm2.08 1.295V191h-1.09v-6.34h1.031l.059 1.26Zm-.223 1.67-.504-.018c.004-.433.061-.834.17-1.201.109-.371.271-.693.486-.967.215-.273.483-.484.803-.633.32-.152.691-.228 1.113-.228.297 0 .571.043.821.129.25.082.466.213.65.392.184.18.326.411.428.692.101.281.152.621.152 1.019V191h-1.084v-4.172c0-.332-.057-.598-.17-.797a.967.967 0 0 0-.469-.433 1.685 1.685 0 0 0-.714-.141c-.321 0-.588.057-.803.17a1.349 1.349 0 0 0-.516.469 2.111 2.111 0 0 0-.281.685 3.819 3.819 0 0 0-.082.809Zm4.107-.598-.726.223c.004-.348.06-.682.17-1.002.113-.32.275-.606.486-.856a2.3 2.3 0 0 1 .791-.591c.313-.149.67-.223 1.072-.223.34 0 .641.045.903.135.265.09.488.228.668.416.183.183.322.42.416.709.093.289.14.633.14 1.031V191h-1.09v-4.178c0-.355-.056-.631-.169-.826a.889.889 0 0 0-.469-.416 1.876 1.876 0 0 0-.715-.123 1.54 1.54 0 0 0-.633.123 1.308 1.308 0 0 0-.463.34c-.125.141-.22.303-.287.486a1.822 1.822 0 0 0-.094.586Z" fill="#8E9097"/><path d="M411 192a5 5 0 1 0-.001-10.001A5 5 0 0 0 411 192Z" fill="#4745CE"/><path d="M430.143 202.469V211h-1.114v-8.531h1.114Zm2.742 0v.926h-6.592v-.926h6.592Zm3.146 8.648c-.441 0-.842-.074-1.201-.222a2.746 2.746 0 0 1-.92-.639 2.85 2.85 0 0 1-.586-.973 3.583 3.583 0 0 1-.205-1.23v-.246c0-.516.076-.975.229-1.377.152-.407.359-.75.621-1.032.261-.281.558-.494.89-.638a2.552 2.552 0 0 1 1.032-.217c.453 0 .843.078 1.171.234.333.157.604.375.815.657.211.277.367.605.469.984.101.375.152.785.152 1.23v.487h-4.734v-.885h3.65v-.082a2.698 2.698 0 0 0-.176-.82 1.476 1.476 0 0 0-.468-.657c-.215-.171-.508-.257-.879-.257a1.47 1.47 0 0 0-1.213.615 2.287 2.287 0 0 0-.346.744 3.775 3.775 0 0 0-.123 1.014v.246c0 .301.041.584.123.849.086.262.209.493.369.692.164.199.361.355.592.468.234.114.5.17.797.17.383 0 .707-.078.972-.234.266-.156.499-.365.698-.627l.656.522a3.053 3.053 0 0 1-.521.591c-.211.188-.471.34-.78.457-.304.118-.666.176-1.084.176Zm4.811-5.197V211h-1.09v-6.34h1.031l.059 1.26Zm-.223 1.67-.504-.018c.004-.433.061-.834.17-1.201.11-.371.272-.693.486-.967.215-.273.483-.484.803-.633a2.574 2.574 0 0 1 1.114-.228c.296 0 .57.043.82.129.25.082.467.213.65.392.184.18.326.411.428.692.102.281.152.621.152 1.019V211h-1.084v-4.172c0-.332-.056-.598-.17-.797a.969.969 0 0 0-.468-.433 1.692 1.692 0 0 0-.715-.141c-.321 0-.588.057-.803.17a1.349 1.349 0 0 0-.516.469 2.134 2.134 0 0 0-.281.685 3.819 3.819 0 0 0-.082.809Zm4.108-.598-.727.223c.004-.348.061-.682.17-1.002.113-.32.275-.606.486-.856a2.3 2.3 0 0 1 .791-.591c.313-.149.67-.223 1.073-.223.339 0 .64.045.902.135.266.09.488.228.668.416.183.183.322.42.416.709.094.289.14.633.14 1.031V211h-1.089v-4.178c0-.355-.057-.631-.17-.826a.889.889 0 0 0-.469-.416 1.876 1.876 0 0 0-.715-.123 1.54 1.54 0 0 0-.633.123 1.308 1.308 0 0 0-.463.34c-.125.141-.22.303-.287.486a1.822 1.822 0 0 0-.093.586Zm6.644-1.113v7.559h-1.09v-8.778h.996l.094 1.219Zm4.272 1.898v.123c0 .461-.055.889-.164 1.284-.11.39-.27.73-.481 1.019a2.184 2.184 0 0 1-.768.674c-.304.16-.654.24-1.048.24-.403 0-.758-.066-1.067-.199a2.11 2.11 0 0 1-.785-.58 2.969 2.969 0 0 1-.516-.914 5.307 5.307 0 0 1-.257-1.201v-.657c.047-.468.134-.888.263-1.259.129-.371.299-.688.51-.95.215-.265.475-.466.779-.603a2.49 2.49 0 0 1 1.055-.211c.398 0 .752.078 1.061.234.308.153.568.371.779.657.211.285.369.627.475 1.025.109.395.164.834.164 1.318Zm-1.09.123v-.123a3.78 3.78 0 0 0-.1-.89 2.252 2.252 0 0 0-.31-.739 1.486 1.486 0 0 0-.528-.503 1.498 1.498 0 0 0-.767-.188c-.274 0-.512.047-.715.141-.199.093-.369.22-.51.381a1.999 1.999 0 0 0-.346.539c-.086.199-.15.406-.193.621v1.517c.078.274.187.532.328.774.141.238.328.431.563.58.234.144.529.217.884.217.293 0 .545-.061.756-.182.215-.125.391-.295.528-.51.14-.215.244-.461.31-.738.067-.281.1-.58.1-.897Zm5.103 3.217c-.441 0-.842-.074-1.201-.222a2.746 2.746 0 0 1-.92-.639 2.85 2.85 0 0 1-.586-.973 3.56 3.56 0 0 1-.205-1.23v-.246c0-.516.076-.975.229-1.377.152-.407.359-.75.621-1.032.261-.281.558-.494.89-.638a2.552 2.552 0 0 1 1.032-.217c.453 0 .843.078 1.172.234.332.157.603.375.814.657.211.277.367.605.469.984.101.375.152.785.152 1.23v.487h-4.734v-.885h3.65v-.082a2.698 2.698 0 0 0-.176-.82 1.476 1.476 0 0 0-.468-.657c-.215-.171-.508-.257-.879-.257a1.47 1.47 0 0 0-1.213.615 2.287 2.287 0 0 0-.346.744 3.775 3.775 0 0 0-.123 1.014v.246c0 .301.041.584.123.849.086.262.209.493.369.692.164.199.362.355.592.468.234.114.5.17.797.17.383 0 .707-.078.973-.234.265-.156.498-.365.697-.627l.656.522a3.053 3.053 0 0 1-.521.591c-.211.188-.471.34-.78.457-.304.118-.666.176-1.084.176Zm4.817-5.461V211h-1.084v-6.34h1.054l.03.996Zm1.98-1.031-.006 1.008a1.53 1.53 0 0 0-.258-.035 2.671 2.671 0 0 0-.269-.012c-.25 0-.471.039-.662.117a1.377 1.377 0 0 0-.487.328 1.598 1.598 0 0 0-.316.504 2.424 2.424 0 0 0-.146.633l-.305.176c0-.383.037-.742.111-1.078.078-.336.197-.633.358-.891a1.74 1.74 0 0 1 .609-.609 1.708 1.708 0 0 1 1.16-.194.79.79 0 0 1 .211.053Zm4.506 5.291v-3.264c0-.25-.051-.466-.152-.65a.997.997 0 0 0-.446-.434 1.62 1.62 0 0 0-.738-.152 1.73 1.73 0 0 0-.721.141 1.239 1.239 0 0 0-.48.369.809.809 0 0 0-.17.492h-1.084c0-.227.059-.451.176-.674.117-.223.285-.424.504-.603.222-.184.488-.329.797-.434.312-.109.66-.164 1.043-.164.46 0 .867.078 1.218.234.356.157.633.393.832.709.203.313.305.705.305 1.178v2.953c0 .211.018.436.053.674.039.238.095.443.17.615V211h-1.131a2 2 0 0 1-.129-.498 4.051 4.051 0 0 1-.047-.586Zm.187-2.76.012.762h-1.096a4.04 4.04 0 0 0-.826.076 1.883 1.883 0 0 0-.609.217 1.037 1.037 0 0 0-.375.369.981.981 0 0 0-.129.51c0 .199.045.381.135.545.09.164.224.295.404.392.184.094.408.141.674.141a1.817 1.817 0 0 0 1.482-.727c.153-.203.235-.4.246-.591l.463.521a1.565 1.565 0 0 1-.222.545 2.601 2.601 0 0 1-.487.574c-.199.18-.437.33-.714.451a2.32 2.32 0 0 1-.926.176c-.43 0-.807-.084-1.131-.252a1.933 1.933 0 0 1-.75-.674 1.78 1.78 0 0 1-.264-.955c0-.34.067-.638.199-.896.133-.262.325-.479.575-.651.25-.175.55-.308.902-.398.352-.09.744-.135 1.178-.135h1.259Zm5.256-2.496v.832h-3.427v-.832h3.427Zm-2.267-1.541h1.084v6.311c0 .215.033.377.099.486a.482.482 0 0 0 .258.217c.106.035.219.053.34.053.09 0 .184-.008.281-.024.102-.019.178-.035.229-.047l.006.885a2.55 2.55 0 0 1-.34.076 2.536 2.536 0 0 1-.498.041c-.266 0-.51-.053-.733-.158a1.18 1.18 0 0 1-.533-.527c-.129-.25-.193-.586-.193-1.008v-6.305Zm7.418 6.416v-4.875h1.09V211h-1.038l-.052-1.465Zm.205-1.336.451-.011c0 .421-.045.812-.135 1.171a2.506 2.506 0 0 1-.422.926 1.987 1.987 0 0 1-.767.615c-.317.145-.701.217-1.155.217-.308 0-.591-.045-.849-.135a1.676 1.676 0 0 1-.656-.416 1.875 1.875 0 0 1-.428-.732 3.521 3.521 0 0 1-.147-1.084v-4.09h1.084v4.102c0 .285.032.521.094.709.067.183.154.33.264.439.113.106.238.18.375.223.14.043.285.064.433.064.461 0 .827-.088 1.096-.263a1.5 1.5 0 0 0 .58-.721c.121-.305.182-.643.182-1.014Zm3.621-2.543V211h-1.084v-6.34h1.055l.029.996Zm1.98-1.031-.005 1.008a1.53 1.53 0 0 0-.258-.035 2.678 2.678 0 0 0-.27-.012c-.25 0-.471.039-.662.117a1.382 1.382 0 0 0-.486.328 1.583 1.583 0 0 0-.317.504 2.424 2.424 0 0 0-.146.633l-.305.176c0-.383.037-.742.111-1.078.079-.336.198-.633.358-.891a1.74 1.74 0 0 1 .609-.609 1.708 1.708 0 0 1 1.16-.194.79.79 0 0 1 .211.053Zm3.516 6.492c-.441 0-.842-.074-1.201-.222a2.736 2.736 0 0 1-.92-.639 2.85 2.85 0 0 1-.586-.973 3.56 3.56 0 0 1-.205-1.23v-.246c0-.516.076-.975.228-1.377.153-.407.36-.75.621-1.032a2.66 2.66 0 0 1 .891-.638 2.55 2.55 0 0 1 1.031-.217c.454 0 .844.078 1.172.234.332.157.604.375.815.657.211.277.367.605.468.984.102.375.153.785.153 1.23v.487h-4.735v-.885h3.651v-.082a2.698 2.698 0 0 0-.176-.82 1.478 1.478 0 0 0-.469-.657c-.215-.171-.508-.257-.879-.257a1.466 1.466 0 0 0-1.213.615 2.307 2.307 0 0 0-.345.744 3.775 3.775 0 0 0-.123 1.014v.246c0 .301.041.584.123.849.086.262.209.493.369.692.164.199.361.355.592.468.234.114.5.17.797.17.382 0 .707-.078.972-.234.266-.156.498-.365.698-.627l.656.522a3.026 3.026 0 0 1-.522.591 2.47 2.47 0 0 1-.779.457c-.305.118-.666.176-1.084.176Zm10.447-1.201v-3.264c0-.25-.051-.466-.152-.65a1 1 0 0 0-.445-.434 1.627 1.627 0 0 0-.739-.152c-.273 0-.513.047-.72.141a1.235 1.235 0 0 0-.481.369.809.809 0 0 0-.17.492h-1.084c0-.227.059-.451.176-.674.117-.223.285-.424.504-.603.223-.184.488-.329.797-.434.312-.109.66-.164 1.043-.164.461 0 .867.078 1.219.234.355.157.632.393.832.709.203.313.304.705.304 1.178v2.953c0 .211.018.436.053.674.039.238.096.443.17.615V211h-1.131a2 2 0 0 1-.129-.498 4.051 4.051 0 0 1-.047-.586Zm.188-2.76.011.762h-1.095c-.309 0-.584.025-.826.076a1.88 1.88 0 0 0-.61.217 1.037 1.037 0 0 0-.375.369.981.981 0 0 0-.129.51c0 .199.045.381.135.545a.98.98 0 0 0 .404.392c.184.094.409.141.674.141.332 0 .625-.07.879-.211s.455-.312.604-.516c.152-.203.234-.4.246-.591l.463.521a1.59 1.59 0 0 1-.223.545 2.633 2.633 0 0 1-1.201 1.025 2.317 2.317 0 0 1-.926.176c-.43 0-.807-.084-1.131-.252a1.933 1.933 0 0 1-.75-.674 1.78 1.78 0 0 1-.264-.955c0-.34.067-.638.2-.896.133-.262.324-.479.574-.651a2.75 2.75 0 0 1 .902-.398c.352-.09.744-.135 1.178-.135h1.26Zm3.779-5.156v9h-1.09v-9h1.09Zm5.479 7.916v-3.264c0-.25-.051-.466-.153-.65a.995.995 0 0 0-.445-.434 1.62 1.62 0 0 0-.738-.152c-.274 0-.514.047-.721.141a1.25 1.25 0 0 0-.481.369.808.808 0 0 0-.169.492h-1.084c0-.227.058-.451.175-.674a1.98 1.98 0 0 1 .504-.603c.223-.184.489-.329.797-.434.313-.109.66-.164 1.043-.164.461 0 .867.078 1.219.234.355.157.633.393.832.709.203.313.305.705.305 1.178v2.953c0 .211.017.436.052.674.039.238.096.443.17.615V211h-1.131a2.091 2.091 0 0 1-.129-.498 4.042 4.042 0 0 1-.046-.586Zm.187-2.76.012.762h-1.096c-.309 0-.584.025-.826.076a1.883 1.883 0 0 0-.609.217c-.165.098-.29.221-.375.369a.981.981 0 0 0-.129.51c0 .199.045.381.134.545.09.164.225.295.405.392.183.094.408.141.674.141a1.821 1.821 0 0 0 1.482-.727c.152-.203.234-.4.246-.591l.463.521a1.57 1.57 0 0 1-.223.545 2.618 2.618 0 0 1-1.201 1.025 2.313 2.313 0 0 1-.926.176 2.43 2.43 0 0 1-1.131-.252 1.933 1.933 0 0 1-.75-.674 1.788 1.788 0 0 1-.263-.955c0-.34.066-.638.199-.896.133-.262.324-.479.574-.651.25-.175.551-.308.903-.398.351-.09.744-.135 1.177-.135h1.26Zm3.686-1.5V211h-1.084v-6.34h1.054l.03.996Zm1.98-1.031-.006 1.008a1.53 1.53 0 0 0-.258-.035 2.671 2.671 0 0 0-.269-.012c-.25 0-.471.039-.662.117a1.377 1.377 0 0 0-.487.328 1.598 1.598 0 0 0-.316.504 2.424 2.424 0 0 0-.146.633l-.305.176c0-.383.037-.742.111-1.078.078-.336.197-.633.358-.891a1.74 1.74 0 0 1 .609-.609 1.708 1.708 0 0 1 1.16-.194.79.79 0 0 1 .211.053Zm2.08 1.295V211h-1.09v-6.34h1.032l.058 1.26Zm-.222 1.67-.504-.018c.004-.433.06-.834.17-1.201.109-.371.271-.693.486-.967.215-.273.482-.484.803-.633.32-.152.691-.228 1.113-.228.297 0 .57.043.82.129.25.082.467.213.651.392.183.18.326.411.427.692.102.281.153.621.153 1.019V211h-1.084v-4.172c0-.332-.057-.598-.17-.797a.975.975 0 0 0-.469-.433 1.686 1.686 0 0 0-.715-.141c-.32 0-.588.057-.803.17a1.353 1.353 0 0 0-.515.469 2.09 2.09 0 0 0-.281.685 3.819 3.819 0 0 0-.082.809Zm4.107-.598-.727.223c.004-.348.061-.682.17-1.002a2.74 2.74 0 0 1 .487-.856 2.28 2.28 0 0 1 .791-.591 2.46 2.46 0 0 1 1.072-.223c.34 0 .641.045.902.135.266.09.489.228.668.416.184.183.322.42.416.709.094.289.141.633.141 1.031V211h-1.09v-4.178c0-.355-.057-.631-.17-.826a.885.885 0 0 0-.469-.416 1.872 1.872 0 0 0-.715-.123c-.238 0-.449.041-.632.123a1.3 1.3 0 0 0-.463.34 1.485 1.485 0 0 0-.287.486 1.795 1.795 0 0 0-.094.586Z" fill="#8E9097"/><path d="M411 212a5 5 0 1 0-.001-10.001A5 5 0 0 0 411 212Z" fill="#291DB1"/><path d="M432.141 230.287h1.125a3.59 3.59 0 0 1-.463 1.447c-.25.426-.604.764-1.061 1.014-.457.246-1.027.369-1.711.369-.5 0-.955-.094-1.365-.281a3.04 3.04 0 0 1-1.049-.797 3.731 3.731 0 0 1-.679-1.248 5.301 5.301 0 0 1-.235-1.629v-.85c0-.597.078-1.138.235-1.623a3.65 3.65 0 0 1 .685-1.253 3.05 3.05 0 0 1 1.084-.803 3.464 3.464 0 0 1 1.424-.281c.644 0 1.189.121 1.635.363a2.6 2.6 0 0 1 1.037 1.008c.25.425.404.92.463 1.482h-1.125a3.154 3.154 0 0 0-.305-1.025 1.577 1.577 0 0 0-.633-.668c-.273-.157-.631-.235-1.072-.235-.379 0-.713.073-1.002.217-.285.145-.525.35-.721.615a2.861 2.861 0 0 0-.433.955 4.852 4.852 0 0 0-.147 1.237v.861c0 .418.043.811.129 1.178.09.367.225.689.404.967.18.277.409.496.686.656.277.156.605.234.984.234.481 0 .864-.076 1.149-.228.285-.153.5-.371.644-.657.149-.285.254-.626.317-1.025Zm5.812-.633h-2.279v-.92h2.279c.442 0 .799-.07 1.072-.211a1.31 1.31 0 0 0 .598-.585c.129-.25.193-.536.193-.856a1.82 1.82 0 0 0-.193-.826 1.424 1.424 0 0 0-.598-.621c-.273-.16-.63-.24-1.072-.24h-2.015V233h-1.131v-8.531h3.146c.645 0 1.19.111 1.635.334a2.36 2.36 0 0 1 1.014.926c.23.39.345.837.345 1.341 0 .547-.115 1.014-.345 1.401a2.217 2.217 0 0 1-1.014.884c-.445.2-.99.299-1.635.299Zm9.305-5.185h1.125v5.771c0 .641-.143 1.174-.428 1.6a2.668 2.668 0 0 1-1.137.961 3.677 3.677 0 0 1-1.529.316 3.783 3.783 0 0 1-1.57-.316 2.573 2.573 0 0 1-1.108-.961c-.269-.426-.404-.959-.404-1.6v-5.771h1.119v5.771c0 .446.082.813.246 1.102.164.289.393.504.686.644.297.141.64.211 1.031.211.395 0 .738-.07 1.031-.211a1.53 1.53 0 0 0 .692-.644c.164-.289.246-.656.246-1.102v-5.771Zm9.451 7.447v-3.264c0-.25-.051-.466-.152-.65a.997.997 0 0 0-.446-.434 1.62 1.62 0 0 0-.738-.152 1.73 1.73 0 0 0-.721.141 1.239 1.239 0 0 0-.48.369.809.809 0 0 0-.17.492h-1.084c0-.227.059-.451.176-.674.117-.223.285-.424.504-.603.222-.184.488-.329.797-.434.312-.109.66-.164 1.043-.164.46 0 .867.078 1.218.234.356.157.633.393.832.709.203.313.305.705.305 1.178v2.953c0 .211.018.436.053.674.039.238.095.443.17.615V233h-1.131a2 2 0 0 1-.129-.498 4.051 4.051 0 0 1-.047-.586Zm.187-2.76.012.762h-1.096a4.04 4.04 0 0 0-.826.076 1.883 1.883 0 0 0-.609.217 1.037 1.037 0 0 0-.375.369.981.981 0 0 0-.129.51c0 .199.045.381.135.545.09.164.224.295.404.392.184.094.408.141.674.141a1.817 1.817 0 0 0 1.482-.727c.153-.203.235-.4.246-.591l.463.521a1.565 1.565 0 0 1-.222.545 2.601 2.601 0 0 1-.487.574c-.199.18-.437.33-.714.451a2.32 2.32 0 0 1-.926.176c-.43 0-.807-.084-1.131-.252a1.933 1.933 0 0 1-.75-.674 1.78 1.78 0 0 1-.264-.955c0-.34.067-.638.199-.896.133-.262.325-.479.575-.651.25-.175.55-.308.902-.398.352-.09.744-.135 1.178-.135h1.259Zm3.78-5.156v9h-1.09v-9h1.09Zm5.478 7.916v-3.264c0-.25-.05-.466-.152-.65a1 1 0 0 0-.445-.434 1.627 1.627 0 0 0-.739-.152c-.273 0-.513.047-.72.141a1.243 1.243 0 0 0-.481.369.809.809 0 0 0-.17.492h-1.084c0-.227.059-.451.176-.674.117-.223.285-.424.504-.603.223-.184.488-.329.797-.434.312-.109.66-.164 1.043-.164.461 0 .867.078 1.219.234.355.157.632.393.832.709.203.313.304.705.304 1.178v2.953c0 .211.018.436.053.674.039.238.096.443.17.615V233h-1.131a2 2 0 0 1-.129-.498 4.051 4.051 0 0 1-.047-.586Zm.188-2.76.012.762h-1.096c-.309 0-.584.025-.826.076a1.88 1.88 0 0 0-.61.217 1.037 1.037 0 0 0-.375.369.981.981 0 0 0-.129.51c0 .199.045.381.135.545a.98.98 0 0 0 .404.392c.184.094.409.141.674.141.332 0 .625-.07.879-.211s.455-.312.604-.516c.152-.203.234-.4.246-.591l.463.521a1.59 1.59 0 0 1-.223.545 2.633 2.633 0 0 1-1.201 1.025 2.317 2.317 0 0 1-.926.176c-.43 0-.807-.084-1.131-.252a1.933 1.933 0 0 1-.75-.674 1.78 1.78 0 0 1-.263-.955c0-.34.066-.638.199-.896.133-.262.324-.479.574-.651a2.75 2.75 0 0 1 .902-.398c.352-.09.744-.135 1.178-.135h1.26Zm3.685-1.5V233h-1.084v-6.34h1.055l.029.996Zm1.981-1.031-.006 1.008a1.53 1.53 0 0 0-.258-.035 2.671 2.671 0 0 0-.269-.012c-.25 0-.471.039-.663.117a1.382 1.382 0 0 0-.486.328 1.58 1.58 0 0 0-.316.504 2.465 2.465 0 0 0-.147.633l-.304.176c0-.383.037-.742.111-1.078.078-.336.197-.633.357-.891.161-.262.364-.465.61-.609a1.707 1.707 0 0 1 1.16-.194.8.8 0 0 1 .211.053Zm2.08 1.295V233h-1.09v-6.34h1.031l.059 1.26Zm-.223 1.67-.504-.018c.004-.433.061-.834.17-1.201.11-.371.272-.693.487-.967.214-.273.482-.484.802-.633a2.574 2.574 0 0 1 1.114-.228c.296 0 .57.043.82.129.25.082.467.213.65.392.184.18.326.411.428.692.102.281.152.621.152 1.019V233H476.9v-4.172c0-.332-.056-.598-.17-.797a.969.969 0 0 0-.468-.433 1.69 1.69 0 0 0-.715-.141c-.32 0-.588.057-.803.17a1.339 1.339 0 0 0-.515.469 2.113 2.113 0 0 0-.282.685 3.885 3.885 0 0 0-.082.809Zm4.108-.598-.727.223c.004-.348.061-.682.17-1.002.113-.32.275-.606.486-.856a2.3 2.3 0 0 1 .791-.591c.313-.149.67-.223 1.073-.223.339 0 .64.045.902.135.266.09.488.228.668.416.184.183.322.42.416.709.094.289.141.633.141 1.031V233h-1.09v-4.178c0-.355-.057-.631-.17-.826a.889.889 0 0 0-.469-.416 1.872 1.872 0 0 0-.715-.123 1.54 1.54 0 0 0-.633.123 1.304 1.304 0 0 0-.462.34 1.505 1.505 0 0 0-.288.486 1.822 1.822 0 0 0-.093.586Z" fill="#8E9097"/><path d="M411 234a5 5 0 1 0-.001-10.001A5 5 0 0 0 411 234Z" fill="#0F1486"/><path d="M430.143 246.469V255h-1.114v-8.531h1.114Zm2.742 0v.926h-6.592v-.926h6.592Zm1.74 3.187V255h-1.084v-6.34h1.055l.029.996Zm1.98-1.031-.005 1.008a1.53 1.53 0 0 0-.258-.035 2.678 2.678 0 0 0-.27-.012c-.25 0-.47.039-.662.117a1.382 1.382 0 0 0-.486.328 1.6 1.6 0 0 0-.317.504 2.424 2.424 0 0 0-.146.633l-.305.176c0-.383.037-.742.112-1.078.078-.336.197-.633.357-.891a1.74 1.74 0 0 1 .609-.609 1.708 1.708 0 0 1 1.161-.194.79.79 0 0 1 .21.053Zm4.506 5.291v-3.264c0-.25-.05-.466-.152-.65a1 1 0 0 0-.445-.434 1.627 1.627 0 0 0-.739-.152c-.273 0-.513.047-.72.141a1.243 1.243 0 0 0-.481.369.809.809 0 0 0-.17.492h-1.084c0-.227.059-.451.176-.674.117-.223.285-.424.504-.603.223-.184.488-.329.797-.434.312-.109.66-.164 1.043-.164.461 0 .867.078 1.219.234.355.157.632.393.832.709.203.313.304.705.304 1.178v2.953c0 .211.018.436.053.674.039.238.096.443.17.615V255h-1.131a2 2 0 0 1-.129-.498 4.051 4.051 0 0 1-.047-.586Zm.188-2.76.012.762h-1.096c-.309 0-.584.025-.826.076a1.88 1.88 0 0 0-.61.217 1.037 1.037 0 0 0-.375.369.981.981 0 0 0-.129.51c0 .199.045.381.135.545a.98.98 0 0 0 .404.392c.184.094.409.141.674.141.332 0 .625-.07.879-.211s.455-.312.604-.516c.152-.203.234-.4.246-.591l.463.521a1.59 1.59 0 0 1-.223.545 2.633 2.633 0 0 1-1.201 1.025 2.317 2.317 0 0 1-.926.176c-.43 0-.807-.084-1.131-.252a1.933 1.933 0 0 1-.75-.674 1.78 1.78 0 0 1-.263-.955c0-.34.066-.638.199-.896.133-.262.324-.479.574-.651a2.75 2.75 0 0 1 .902-.398c.352-.09.744-.135 1.178-.135h1.26Zm4.219 3.844h-1.084v-7.008c0-.457.082-.842.246-1.154.168-.317.408-.555.72-.715.313-.164.684-.246 1.114-.246a3.145 3.145 0 0 1 .75.094l-.059.884a1.889 1.889 0 0 0-.281-.041 4.44 4.44 0 0 0-.305-.011c-.23 0-.43.047-.598.14a.885.885 0 0 0-.375.399 1.485 1.485 0 0 0-.128.65V255Zm1.406-6.34v.832h-3.492v-.832h3.492Zm2.021 6.34h-1.084v-6.891c0-.48.092-.886.276-1.218.187-.332.455-.584.802-.756.348-.172.76-.258 1.237-.258a3.3 3.3 0 0 1 .832.105c.269.067.547.151.832.252l-.188.914a5.391 5.391 0 0 0-.621-.199 2.886 2.886 0 0 0-.773-.099c-.465 0-.801.105-1.008.316-.203.207-.305.522-.305.943V255Zm1.295-6.34v.832h-3.381v-.832h3.381Zm2.133 0V255h-1.084v-6.34h1.084Zm4.307 5.567c.258 0 .496-.053.715-.159.218-.105.398-.25.539-.433.14-.188.22-.401.24-.639h1.031a1.924 1.924 0 0 1-.381 1.049c-.23.32-.533.58-.908.779a2.627 2.627 0 0 1-1.236.293c-.477 0-.893-.084-1.248-.252a2.466 2.466 0 0 1-.879-.691 3.077 3.077 0 0 1-.522-1.008 4.264 4.264 0 0 1-.17-1.213v-.246c0-.426.057-.828.17-1.207.117-.383.291-.721.522-1.014.234-.293.527-.523.879-.691.355-.168.771-.252 1.248-.252.496 0 .929.102 1.3.305.372.199.663.472.874.82.214.344.332.734.351 1.172h-1.031a1.566 1.566 0 0 0-.223-.709 1.392 1.392 0 0 0-.515-.504 1.441 1.441 0 0 0-.756-.193c-.332 0-.612.066-.838.199a1.464 1.464 0 0 0-.533.527 2.473 2.473 0 0 0-.282.733 4.072 4.072 0 0 0-.082.814v.246c0 .277.028.551.082.82.055.27.147.514.276.733.133.219.31.394.533.527.226.129.508.194.844.194Zm10.459-.311v-3.264c0-.25-.051-.466-.153-.65a.995.995 0 0 0-.445-.434 1.62 1.62 0 0 0-.738-.152c-.274 0-.514.047-.721.141a1.239 1.239 0 0 0-.48.369.803.803 0 0 0-.17.492h-1.084c0-.227.058-.451.175-.674a1.98 1.98 0 0 1 .504-.603c.223-.184.489-.329.797-.434.313-.109.66-.164 1.043-.164.461 0 .867.078 1.219.234.355.157.633.393.832.709.203.313.305.705.305 1.178v2.953c0 .211.017.436.052.674.039.238.096.443.17.615V255h-1.131a2.049 2.049 0 0 1-.128-.498 3.914 3.914 0 0 1-.047-.586Zm.187-2.76.012.762h-1.096c-.308 0-.584.025-.826.076a1.883 1.883 0 0 0-.609.217 1.037 1.037 0 0 0-.375.369.981.981 0 0 0-.129.51c0 .199.045.381.135.545a.968.968 0 0 0 .404.392c.183.094.408.141.674.141.332 0 .625-.07.879-.211.253-.141.455-.312.603-.516.152-.203.234-.4.246-.591l.463.521a1.57 1.57 0 0 1-.223.545 2.603 2.603 0 0 1-1.201 1.025 2.313 2.313 0 0 1-.926.176c-.429 0-.806-.084-1.13-.252a1.919 1.919 0 0 1-.75-.674 1.78 1.78 0 0 1-.264-.955c0-.34.066-.638.199-.896.133-.262.324-.479.574-.651.25-.175.551-.308.903-.398.351-.09.744-.135 1.177-.135h1.26Zm3.779-5.156v9h-1.089v-9h1.089Zm5.479 7.916v-3.264c0-.25-.051-.466-.152-.65a.997.997 0 0 0-.446-.434 1.62 1.62 0 0 0-.738-.152 1.73 1.73 0 0 0-.721.141 1.239 1.239 0 0 0-.48.369.809.809 0 0 0-.17.492h-1.084c0-.227.059-.451.176-.674.117-.223.285-.424.504-.603.222-.184.488-.329.797-.434.312-.109.66-.164 1.042-.164.461 0 .868.078 1.219.234.356.157.633.393.832.709.203.313.305.705.305 1.178v2.953c0 .211.018.436.053.674.039.238.095.443.17.615V255h-1.131a2 2 0 0 1-.129-.498 4.051 4.051 0 0 1-.047-.586Zm.187-2.76.012.762h-1.095c-.309 0-.584.025-.827.076a1.883 1.883 0 0 0-.609.217 1.037 1.037 0 0 0-.375.369.981.981 0 0 0-.129.51c0 .199.045.381.135.545.09.164.224.295.404.392.184.094.408.141.674.141a1.817 1.817 0 0 0 1.482-.727c.153-.203.235-.4.246-.591l.463.521a1.565 1.565 0 0 1-.222.545 2.601 2.601 0 0 1-.487.574c-.199.18-.437.33-.714.451a2.32 2.32 0 0 1-.926.176c-.43 0-.807-.084-1.131-.252a1.933 1.933 0 0 1-.75-.674 1.78 1.78 0 0 1-.264-.955c0-.34.067-.638.199-.896.133-.262.325-.479.575-.651.25-.175.55-.308.902-.398.352-.09.744-.135 1.178-.135h1.259Zm3.686-1.5V255h-1.084v-6.34h1.055l.029.996Zm1.981-1.031-.006 1.008a1.53 1.53 0 0 0-.258-.035 2.678 2.678 0 0 0-.27-.012c-.25 0-.47.039-.662.117a1.382 1.382 0 0 0-.486.328 1.6 1.6 0 0 0-.317.504 2.424 2.424 0 0 0-.146.633l-.305.176c0-.383.037-.742.112-1.078.078-.336.197-.633.357-.891a1.74 1.74 0 0 1 .609-.609 1.708 1.708 0 0 1 1.161-.194.812.812 0 0 1 .211.053Zm2.08 1.295V255h-1.09v-6.34h1.031l.059 1.26Zm-.223 1.67-.504-.018c.004-.433.061-.834.17-1.201.109-.371.271-.693.486-.967.215-.273.483-.484.803-.633.32-.152.691-.228 1.113-.228.297 0 .571.043.821.129.25.082.466.213.65.392.184.18.326.411.428.692.101.281.152.621.152 1.019V255h-1.084v-4.172c0-.332-.057-.598-.17-.797a.967.967 0 0 0-.469-.433 1.685 1.685 0 0 0-.714-.141c-.321 0-.588.057-.803.17a1.349 1.349 0 0 0-.516.469 2.111 2.111 0 0 0-.281.685 3.819 3.819 0 0 0-.082.809Zm4.107-.598-.726.223c.004-.348.06-.682.17-1.002.113-.32.275-.606.486-.856a2.3 2.3 0 0 1 .791-.591c.313-.149.67-.223 1.072-.223.34 0 .641.045.903.135.265.09.488.228.668.416.183.183.322.42.416.709.093.289.14.633.14 1.031V255h-1.09v-4.178c0-.355-.056-.631-.17-.826a.883.883 0 0 0-.468-.416 1.876 1.876 0 0 0-.715-.123 1.54 1.54 0 0 0-.633.123 1.3 1.3 0 0 0-.463.34 1.485 1.485 0 0 0-.287.486 1.822 1.822 0 0 0-.094.586Z" fill="#8E9097"/><path d="M411 256a5 5 0 1 0-.001-10.001A5 5 0 0 0 411 256Z" fill="#15136B"/><path d="M433.559 272.465v.539c0 .641-.08 1.215-.241 1.723-.16.507-.39.939-.691 1.294a3 3 0 0 1-1.084.815 3.407 3.407 0 0 1-1.406.281 3.39 3.39 0 0 1-1.389-.281 3.127 3.127 0 0 1-1.09-.815 3.805 3.805 0 0 1-.709-1.294c-.168-.508-.252-1.082-.252-1.723v-.539c0-.641.082-1.213.246-1.717a3.81 3.81 0 0 1 .709-1.295 3.037 3.037 0 0 1 1.084-.82 3.374 3.374 0 0 1 1.389-.281c.52 0 .988.093 1.406.281a2.97 2.97 0 0 1 1.084.82c.305.356.537.787.697 1.295.165.504.247 1.076.247 1.717Zm-1.12.539v-.551a5.17 5.17 0 0 0-.158-1.348 2.794 2.794 0 0 0-.451-.984 1.932 1.932 0 0 0-.732-.603 2.224 2.224 0 0 0-.973-.206c-.352 0-.67.069-.955.206a2.012 2.012 0 0 0-.727.603 2.974 2.974 0 0 0-.463.984c-.109.391-.164.84-.164 1.348v.551c0 .512.055.965.164 1.359.11.391.266.721.469.991.207.265.451.466.733.603.285.137.603.205.955.205.367 0 .693-.068.978-.205.285-.137.526-.338.721-.603.199-.27.35-.6.451-.991.102-.394.152-.847.152-1.359Zm5.303-2.344v.832h-3.428v-.832h3.428Zm-2.267-1.541h1.084v6.311c0 .215.033.377.099.486a.482.482 0 0 0 .258.217c.105.035.219.053.34.053.09 0 .183-.008.281-.024.102-.019.178-.035.229-.047l.005.885a2.495 2.495 0 0 1-.339.076 2.536 2.536 0 0 1-.498.041c-.266 0-.51-.053-.733-.158a1.18 1.18 0 0 1-.533-.527c-.129-.25-.193-.586-.193-1.008v-6.305Zm4.623-1.119v9h-1.084v-9h1.084Zm-.258 5.59-.451-.018c.004-.433.068-.834.193-1.201.125-.371.301-.693.527-.967.227-.273.496-.484.809-.633a2.39 2.39 0 0 1 1.049-.228c.312 0 .594.043.844.129.25.082.462.215.638.398.18.184.317.422.41.715.094.289.141.643.141 1.061V277h-1.09v-4.166c0-.332-.049-.598-.146-.797a.905.905 0 0 0-.428-.439 1.533 1.533 0 0 0-.691-.141c-.27 0-.516.057-.739.17a1.758 1.758 0 0 0-.568.469 2.36 2.36 0 0 0-.369.685 2.507 2.507 0 0 0-.129.809Zm8.414 3.527c-.442 0-.842-.074-1.201-.222a2.736 2.736 0 0 1-.92-.639 2.85 2.85 0 0 1-.586-.973 3.56 3.56 0 0 1-.205-1.23v-.246c0-.516.076-.975.228-1.377.153-.407.36-.75.621-1.032a2.66 2.66 0 0 1 .891-.638 2.55 2.55 0 0 1 1.031-.217c.453 0 .844.078 1.172.234.332.157.604.375.815.657.211.277.367.605.468.984.102.375.153.785.153 1.23v.487h-4.735v-.885h3.651v-.082a2.728 2.728 0 0 0-.176-.82 1.478 1.478 0 0 0-.469-.657c-.215-.171-.508-.257-.879-.257a1.466 1.466 0 0 0-1.213.615 2.307 2.307 0 0 0-.345.744 3.775 3.775 0 0 0-.123 1.014v.246c0 .301.041.584.123.849.086.262.209.493.369.692.164.199.361.355.592.468.234.114.5.17.796.17.383 0 .708-.078.973-.234.266-.156.498-.365.697-.627l.657.522a3.026 3.026 0 0 1-.522.591c-.211.188-.471.34-.779.457-.305.118-.666.176-1.084.176Zm4.816-5.461V277h-1.084v-6.34h1.055l.029.996Zm1.981-1.031-.006 1.008a1.53 1.53 0 0 0-.258-.035 2.671 2.671 0 0 0-.269-.012c-.25 0-.471.039-.663.117a1.382 1.382 0 0 0-.486.328 1.58 1.58 0 0 0-.316.504 2.465 2.465 0 0 0-.147.633l-.304.176c0-.383.037-.742.111-1.078.078-.336.197-.633.357-.891.16-.262.364-.465.61-.609a1.707 1.707 0 0 1 1.16-.194.8.8 0 0 1 .211.053Z" fill="#8E9097"/><path d="M411 278a5 5 0 1 0-.001-10.001A5 5 0 0 0 411 278Z" fill="#080D3A"/><defs><filter id="a" x="6" y="6" width="628" height="354" filterUnits="userSpaceOnUse" color-interpolation-filters="sRGB"><feFlood flood-opacity="0" result="BackgroundImageFix"/><feColorMatrix in="SourceAlpha" values="0 0 0 0 0 0 0 0 0 0 0 0 0 0 0 0 0 0 127 0" result="hardAlpha"/><feOffset/><feGaussianBlur stdDeviation="5"/><feComposite in2="hardAlpha" operator="out"/><feColorMatrix values="0 0 0 0 0.07375 0 0 0 0 0.107519 0 0 0 0 0.3 0 0 0 0.05 0"/><feBlend in2="BackgroundImageFix" result="effect1_dropShadow_10548_679"/><feBlend in="SourceGraphic" in2="effect1_dropShadow_10548_679" result="shape"/></filter><filter id="b" x="214.5" y="186.261" width="120.5" height="122.942" filterUnits="userSpaceOnUse" color-interpolation-filters="sRGB"><feFlood flood-opacity="0" result="BackgroundImageFix"/><feColorMatrix in="SourceAlpha" values="0 0 0 0 0 0 0 0 0 0 0 0 0 0 0 0 0 0 127 0" result="hardAlpha"/><feOffset dy="4"/><feGaussianBlur stdDeviation="10"/><feComposite in2="hardAlpha" operator="out"/><feColorMatrix values="0 0 0 0 0.0901961 0 0 0 0 0.129412 0 0 0 0 0.352941 0 0 0 0.08 0"/><feBlend in2="BackgroundImageFix" result="effect1_dropShadow_10548_679"/><feBlend in="SourceGraphic" in2="effect1_dropShadow_10548_679" result="shape"/><feColorMatrix in="SourceAlpha" values="0 0 0 0 0 0 0 0 0 0 0 0 0 0 0 0 0 0 127 0" result="hardAlpha"/><feOffset dy="10"/><feGaussianBlur stdDeviation="10"/><feComposite in2="hardAlpha" operator="arithmetic" k2="-1" k3="1"/><feColorMatrix values="0 0 0 0 0.0901961 0 0 0 0 0.129412 0 0 0 0 0.352941 0 0 0 0.08 0"/><feBlend in2="shape" result="effect2_innerShadow_10548_679"/></filter><filter id="c" x="214.5" y="131.266" width="77.447" height="107.234" filterUnits="userSpaceOnUse" color-interpolation-filters="sRGB"><feFlood flood-opacity="0" result="BackgroundImageFix"/><feColorMatrix in="SourceAlpha" values="0 0 0 0 0 0 0 0 0 0 0 0 0 0 0 0 0 0 127 0" result="hardAlpha"/><feOffset dy="4"/><feGaussianBlur stdDeviation="10"/><feComposite in2="hardAlpha" operator="out"/><feColorMatrix values="0 0 0 0 0.0901961 0 0 0 0 0.129412 0 0 0 0 0.352941 0 0 0 0.08 0"/><feBlend in2="BackgroundImageFix" result="effect1_dropShadow_10548_679"/><feBlend in="SourceGraphic" in2="effect1_dropShadow_10548_679" result="shape"/><feColorMatrix in="SourceAlpha" values="0 0 0 0 0 0 0 0 0 0 0 0 0 0 0 0 0 0 127 0" result="hardAlpha"/><feOffset dy="10"/><feGaussianBlur stdDeviation="10"/><feComposite in2="hardAlpha" operator="arithmetic" k2="-1" k3="1"/><feColorMatrix values="0 0 0 0 0.0901961 0 0 0 0 0.129412 0 0 0 0 0.352941 0 0 0 0.08 0"/><feBlend in2="shape" result="effect2_innerShadow_10548_679"/></filter><filter id="d" x="215" y="131.172" width="116.664" height="103.828" filterUnits="userSpaceOnUse" color-interpolation-filters="sRGB"><feFlood flood-opacity="0" result="BackgroundImageFix"/><feColorMatrix in="SourceAlpha" values="0 0 0 0 0 0 0 0 0 0 0 0 0 0 0 0 0 0 127 0" result="hardAlpha"/><feOffset dy="4"/><feGaussianBlur stdDeviation="10"/><feComposite in2="hardAlpha" operator="out"/><feColorMatrix values="0 0 0 0 0.0901961 0 0 0 0 0.129412 0 0 0 0 0.352941 0 0 0 0.08 0"/><feBlend in2="BackgroundImageFix" result="effect1_dropShadow_10548_679"/><feBlend in="SourceGraphic" in2="effect1_dropShadow_10548_679" result="shape"/><feColorMatrix in="SourceAlpha" values="0 0 0 0 0 0 0 0 0 0 0 0 0 0 0 0 0 0 127 0" result="hardAlpha"/><feOffset dy="10"/><feGaussianBlur stdDeviation="10"/><feComposite in2="hardAlpha" operator="arithmetic" k2="-1" k3="1"/><feColorMatrix values="0 0 0 0 0.0901961 0 0 0 0 0.129412 0 0 0 0 0.352941 0 0 0 0.08 0"/><feBlend in2="shape" result="effect2_innerShadow_10548_679"/></filter><filter id="e" x="185.258" y="194" width="103.437" height="127.835" filterUnits="userSpaceOnUse" color-interpolation-filters="sRGB"><feFlood flood-opacity="0" result="BackgroundImageFix"/><feColorMatrix in="SourceAlpha" values="0 0 0 0 0 0 0 0 0 0 0 0 0 0 0 0 0 0 127 0" result="hardAlpha"/><feOffset dy="4"/><feGaussianBlur stdDeviation="10"/><feComposite in2="hardAlpha" operator="out"/><feColorMatrix values="0 0 0 0 0.0901961 0 0 0 0 0.129412 0 0 0 0 0.352941 0 0 0 0.08 0"/><feBlend in2="BackgroundImageFix" result="effect1_dropShadow_10548_679"/><feBlend in="SourceGraphic" in2="effect1_dropShadow_10548_679" result="shape"/><feColorMatrix in="SourceAlpha" values="0 0 0 0 0 0 0 0 0 0 0 0 0 0 0 0 0 0 127 0" result="hardAlpha"/><feOffset dy="10"/><feGaussianBlur stdDeviation="10"/><feComposite in2="hardAlpha" operator="arithmetic" k2="-1" k3="1"/><feColorMatrix values="0 0 0 0 0.0901961 0 0 0 0 0.129412 0 0 0 0 0.352941 0 0 0 0.08 0"/><feBlend in2="shape" result="effect2_innerShadow_10548_679"/></filter><filter id="f" x="106.722" y="150.664" width="149.278" height="116.441" filterUnits="userSpaceOnUse" color-interpolation-filters="sRGB"><feFlood flood-opacity="0" result="BackgroundImageFix"/><feColorMatrix in="SourceAlpha" values="0 0 0 0 0 0 0 0 0 0 0 0 0 0 0 0 0 0 127 0" result="hardAlpha"/><feOffset dy="4"/><feGaussianBlur stdDeviation="10"/><feComposite in2="hardAlpha" operator="out"/><feColorMatrix values="0 0 0 0 0.0901961 0 0 0 0 0.129412 0 0 0 0 0.352941 0 0 0 0.08 0"/><feBlend in2="BackgroundImageFix" result="effect1_dropShadow_10548_679"/><feBlend in="SourceGraphic" in2="effect1_dropShadow_10548_679" result="shape"/><feColorMatrix in="SourceAlpha" values="0 0 0 0 0 0 0 0 0 0 0 0 0 0 0 0 0 0 127 0" result="hardAlpha"/><feOffset dy="10"/><feGaussianBlur stdDeviation="10"/><feComposite in2="hardAlpha" operator="arithmetic" k2="-1" k3="1"/><feColorMatrix values="0 0 0 0 0.0901961 0 0 0 0 0.129412 0 0 0 0 0.352941 0 0 0 0.08 0"/><feBlend in2="shape" result="effect2_innerShadow_10548_679"/></filter><filter id="g" x="105.476" y="74" width="173.269" height="160" filterUnits="userSpaceOnUse" color-interpolation-filters="sRGB"><feFlood flood-opacity="0" result="BackgroundImageFix"/><feColorMatrix in="SourceAlpha" values="0 0 0 0 0 0 0 0 0 0 0 0 0 0 0 0 0 0 127 0" result="hardAlpha"/><feOffset dy="4"/><feGaussianBlur stdDeviation="10"/><feComposite in2="hardAlpha" operator="out"/><feColorMatrix values="0 0 0 0 0.0901961 0 0 0 0 0.129412 0 0 0 0 0.352941 0 0 0 0.08 0"/><feBlend in2="BackgroundImageFix" result="effect1_dropShadow_10548_679"/><feBlend in="SourceGraphic" in2="effect1_dropShadow_10548_679" result="shape"/><feColorMatrix in="SourceAlpha" values="0 0 0 0 0 0 0 0 0 0 0 0 0 0 0 0 0 0 127 0" result="hardAlpha"/><feOffset dy="10"/><feGaussianBlur stdDeviation="10"/><feComposite in2="hardAlpha" operator="arithmetic" k2="-1" k3="1"/><feColorMatrix values="0 0 0 0 0.0901961 0 0 0 0 0.129412 0 0 0 0 0.352941 0 0 0 0.08 0"/><feBlend in2="shape" result="effect2_innerShadow_10548_679"/></filter><filter id="h" x="125.157" y="194" width="130.843" height="129.207" filterUnits="userSpaceOnUse" color-interpolation-filters="sRGB"><feFlood flood-opacity="0" result="BackgroundImageFix"/><feColorMatrix in="SourceAlpha" values="0 0 0 0 0 0 0 0 0 0 0 0 0 0 0 0 0 0 127 0" result="hardAlpha"/><feOffset dy="4"/><feGaussianBlur stdDeviation="10"/><feComposite in2="hardAlpha" operator="out"/><feColorMatrix values="0 0 0 0 0.0901961 0 0 0 0 0.129412 0 0 0 0 0.352941 0 0 0 0.08 0"/><feBlend in2="BackgroundImageFix" result="effect1_dropShadow_10548_679"/><feBlend in="SourceGraphic" in2="effect1_dropShadow_10548_679" result="shape"/><feColorMatrix in="SourceAlpha" values="0 0 0 0 0 0 0 0 0 0 0 0 0 0 0 0 0 0 127 0" result="hardAlpha"/><feOffset dy="10"/><feGaussianBlur stdDeviation="10"/><feComposite in2="hardAlpha" operator="arithmetic" k2="-1" k3="1"/><feColorMatrix values="0 0 0 0 0.0901961 0 0 0 0 0.129412 0 0 0 0 0.352941 0 0 0 0.08 0"/><feBlend in2="shape" result="effect2_innerShadow_10548_679"/></filter></defs></svg>