<svg width="347" height="322" viewBox="0 0 347 322" fill="none" xmlns="http://www.w3.org/2000/svg">
    <g filter="url(#filter0_dd_10565_821)">
        <rect x="8" y="4" width="331" height="306" rx="12" fill="white"/>
        <rect x="8.5" y="4.5" width="330" height="305" rx="11.5" stroke="black" stroke-opacity="0.05"/>
        <path d="M37.5371 35.8438C37.5371 35.6445 37.5059 35.4688 37.4434 35.3164C37.3848 35.1602 37.2793 35.0195 37.127 34.8945C36.9785 34.7695 36.7715 34.6504 36.5059 34.5371C36.2441 34.4238 35.9121 34.3086 35.5098 34.1914C35.0879 34.0664 34.707 33.9277 34.3672 33.7754C34.0273 33.6191 33.7363 33.4414 33.4941 33.2422C33.252 33.043 33.0664 32.8145 32.9375 32.5566C32.8086 32.2988 32.7441 32.0039 32.7441 31.6719C32.7441 31.3398 32.8125 31.0332 32.9492 30.752C33.0859 30.4707 33.2812 30.2266 33.5352 30.0195C33.793 29.8086 34.0996 29.6445 34.4551 29.5273C34.8105 29.4102 35.207 29.3516 35.6445 29.3516C36.2852 29.3516 36.8281 29.4746 37.2734 29.7207C37.7227 29.9629 38.0645 30.2812 38.2988 30.6758C38.5332 31.0664 38.6504 31.4844 38.6504 31.9297H37.5254C37.5254 31.6094 37.457 31.3262 37.3203 31.0801C37.1836 30.8301 36.9766 30.6348 36.6992 30.4941C36.4219 30.3496 36.0703 30.2773 35.6445 30.2773C35.2422 30.2773 34.9102 30.3379 34.6484 30.459C34.3867 30.5801 34.1914 30.7441 34.0625 30.9512C33.9375 31.1582 33.875 31.3945 33.875 31.6602C33.875 31.8398 33.9121 32.0039 33.9863 32.1523C34.0645 32.2969 34.1836 32.4316 34.3438 32.5566C34.5078 32.6816 34.7148 32.7969 34.9648 32.9023C35.2188 33.0078 35.5215 33.1094 35.873 33.207C36.3574 33.3438 36.7754 33.4961 37.127 33.6641C37.4785 33.832 37.7676 34.0215 37.9941 34.2324C38.2246 34.4395 38.3945 34.6758 38.5039 34.9414C38.6172 35.2031 38.6738 35.5 38.6738 35.832C38.6738 36.1797 38.6035 36.4941 38.4629 36.7754C38.3223 37.0566 38.1211 37.2969 37.8594 37.4961C37.5977 37.6953 37.2832 37.8496 36.916 37.959C36.5527 38.0645 36.1465 38.1172 35.6973 38.1172C35.3027 38.1172 34.9141 38.0625 34.5312 37.9531C34.1523 37.8438 33.8066 37.6797 33.4941 37.4609C33.1855 37.2422 32.9375 36.9727 32.75 36.6523C32.5664 36.3281 32.4746 35.9531 32.4746 35.5273H33.5996C33.5996 35.8203 33.6562 36.0723 33.7695 36.2832C33.8828 36.4902 34.0371 36.6621 34.2324 36.7988C34.4316 36.9355 34.6562 37.0371 34.9062 37.1035C35.1602 37.166 35.4238 37.1973 35.6973 37.1973C36.0918 37.1973 36.4258 37.1426 36.6992 37.0332C36.9727 36.9238 37.1797 36.7676 37.3203 36.5645C37.4648 36.3613 37.5371 36.1211 37.5371 35.8438ZM42.8555 31.6602V32.4922H39.4277V31.6602H42.8555ZM40.5879 30.1191H41.6719V36.4297C41.6719 36.6445 41.7051 36.8066 41.7715 36.916C41.8379 37.0254 41.9238 37.0977 42.0293 37.1328C42.1348 37.168 42.248 37.1855 42.3691 37.1855C42.459 37.1855 42.5527 37.1777 42.6504 37.1621C42.752 37.1426 42.8281 37.127 42.8789 37.1152L42.8848 38C42.7988 38.0273 42.6855 38.0527 42.5449 38.0762C42.4082 38.1035 42.2422 38.1172 42.0469 38.1172C41.7812 38.1172 41.5371 38.0645 41.3145 37.959C41.0918 37.8535 40.9141 37.6777 40.7812 37.4316C40.6523 37.1816 40.5879 36.8457 40.5879 36.4238V30.1191ZM48.1152 36.916V33.6523C48.1152 33.4023 48.0645 33.1855 47.9629 33.002C47.8652 32.8145 47.7168 32.6699 47.5176 32.5684C47.3184 32.4668 47.0723 32.416 46.7793 32.416C46.5059 32.416 46.2656 32.4629 46.0586 32.5566C45.8555 32.6504 45.6953 32.7734 45.5781 32.9258C45.4648 33.0781 45.4082 33.2422 45.4082 33.418H44.3242C44.3242 33.1914 44.3828 32.9668 44.5 32.7441C44.6172 32.5215 44.7852 32.3203 45.0039 32.1406C45.2266 31.957 45.4922 31.8125 45.8008 31.707C46.1133 31.5977 46.4609 31.543 46.8438 31.543C47.3047 31.543 47.7109 31.6211 48.0625 31.7773C48.418 31.9336 48.6953 32.1699 48.8945 32.4863C49.0977 32.7988 49.1992 33.1914 49.1992 33.6641V36.6172C49.1992 36.8281 49.2168 37.0527 49.252 37.291C49.291 37.5293 49.3477 37.7344 49.4219 37.9062V38H48.291C48.2363 37.875 48.1934 37.709 48.1621 37.502C48.1309 37.291 48.1152 37.0957 48.1152 36.916ZM48.3027 34.1562L48.3145 34.918H47.2188C46.9102 34.918 46.6348 34.9434 46.3926 34.9941C46.1504 35.041 45.9473 35.1133 45.7832 35.2109C45.6191 35.3086 45.4941 35.4316 45.4082 35.5801C45.3223 35.7246 45.2793 35.8945 45.2793 36.0898C45.2793 36.2891 45.3242 36.4707 45.4141 36.6348C45.5039 36.7988 45.6387 36.9297 45.8184 37.0273C46.002 37.1211 46.2266 37.168 46.4922 37.168C46.8242 37.168 47.1172 37.0977 47.3711 36.957C47.625 36.8164 47.8262 36.6445 47.9746 36.4414C48.127 36.2383 48.209 36.041 48.2207 35.8496L48.6836 36.3711C48.6562 36.5352 48.582 36.7168 48.4609 36.916C48.3398 37.1152 48.1777 37.3066 47.9746 37.4902C47.7754 37.6699 47.5371 37.8203 47.2598 37.9414C46.9863 38.0586 46.6777 38.1172 46.334 38.1172C45.9043 38.1172 45.5273 38.0332 45.2031 37.8652C44.8828 37.6973 44.6328 37.4727 44.4531 37.1914C44.2773 36.9062 44.1895 36.5879 44.1895 36.2363C44.1895 35.8965 44.2559 35.5977 44.3887 35.3398C44.5215 35.0781 44.7129 34.8613 44.9629 34.6895C45.2129 34.5137 45.5137 34.3809 45.8652 34.291C46.2168 34.2012 46.6094 34.1562 47.043 34.1562H48.3027ZM53.8086 31.6602V32.4922H50.3809V31.6602H53.8086ZM51.541 30.1191H52.625V36.4297C52.625 36.6445 52.6582 36.8066 52.7246 36.916C52.791 37.0254 52.877 37.0977 52.9824 37.1328C53.0879 37.168 53.2012 37.1855 53.3223 37.1855C53.4121 37.1855 53.5059 37.1777 53.6035 37.1621C53.7051 37.1426 53.7812 37.127 53.832 37.1152L53.8379 38C53.752 38.0273 53.6387 38.0527 53.498 38.0762C53.3613 38.1035 53.1953 38.1172 53 38.1172C52.7344 38.1172 52.4902 38.0645 52.2676 37.959C52.0449 37.8535 51.8672 37.6777 51.7344 37.4316C51.6055 37.1816 51.541 36.8457 51.541 36.4238V30.1191ZM56.5078 31.6602V38H55.418V31.6602H56.5078ZM55.3359 29.9785C55.3359 29.8027 55.3887 29.6543 55.4941 29.5332C55.6035 29.4121 55.7637 29.3516 55.9746 29.3516C56.1816 29.3516 56.3398 29.4121 56.4492 29.5332C56.5625 29.6543 56.6191 29.8027 56.6191 29.9785C56.6191 30.1465 56.5625 30.291 56.4492 30.4121C56.3398 30.5293 56.1816 30.5879 55.9746 30.5879C55.7637 30.5879 55.6035 30.5293 55.4941 30.4121C55.3887 30.291 55.3359 30.1465 55.3359 29.9785ZM62.1895 36.3184C62.1895 36.1621 62.1543 36.0176 62.084 35.8848C62.0176 35.748 61.8789 35.625 61.668 35.5156C61.4609 35.4023 61.1484 35.3047 60.7305 35.2227C60.3789 35.1484 60.0605 35.0605 59.7754 34.959C59.4941 34.8574 59.2539 34.7344 59.0547 34.5898C58.8594 34.4453 58.709 34.2754 58.6035 34.0801C58.498 33.8848 58.4453 33.6562 58.4453 33.3945C58.4453 33.1445 58.5 32.9082 58.6094 32.6855C58.7227 32.4629 58.8809 32.2656 59.084 32.0938C59.291 31.9219 59.5391 31.7871 59.8281 31.6895C60.1172 31.5918 60.4395 31.543 60.7949 31.543C61.3027 31.543 61.7363 31.6328 62.0957 31.8125C62.4551 31.9922 62.7305 32.2324 62.9219 32.5332C63.1133 32.8301 63.209 33.1602 63.209 33.5234H62.125C62.125 33.3477 62.0723 33.1777 61.9668 33.0137C61.8652 32.8457 61.7148 32.707 61.5156 32.5977C61.3203 32.4883 61.0801 32.4336 60.7949 32.4336C60.4941 32.4336 60.25 32.4805 60.0625 32.5742C59.8789 32.6641 59.7441 32.7793 59.6582 32.9199C59.5762 33.0605 59.5352 33.209 59.5352 33.3652C59.5352 33.4824 59.5547 33.5879 59.5938 33.6816C59.6367 33.7715 59.7109 33.8555 59.8164 33.9336C59.9219 34.0078 60.0703 34.0781 60.2617 34.1445C60.4531 34.2109 60.6973 34.2773 60.9941 34.3438C61.5137 34.4609 61.9414 34.6016 62.2773 34.7656C62.6133 34.9297 62.8633 35.1309 63.0273 35.3691C63.1914 35.6074 63.2734 35.8965 63.2734 36.2363C63.2734 36.5137 63.2148 36.7676 63.0977 36.998C62.9844 37.2285 62.8184 37.4277 62.5996 37.5957C62.3848 37.7598 62.127 37.8887 61.8262 37.9824C61.5293 38.0723 61.1953 38.1172 60.8242 38.1172C60.2656 38.1172 59.793 38.0176 59.4062 37.8184C59.0195 37.6191 58.7266 37.3613 58.5273 37.0449C58.3281 36.7285 58.2285 36.3945 58.2285 36.043H59.3184C59.334 36.3398 59.4199 36.5762 59.5762 36.752C59.7324 36.9238 59.9238 37.0469 60.1504 37.1211C60.377 37.1914 60.6016 37.2266 60.8242 37.2266C61.1211 37.2266 61.3691 37.1875 61.5684 37.1094C61.7715 37.0312 61.9258 36.9238 62.0312 36.7871C62.1367 36.6504 62.1895 36.4941 62.1895 36.3184ZM67.6016 31.6602V32.4922H64.1738V31.6602H67.6016ZM65.334 30.1191H66.418V36.4297C66.418 36.6445 66.4512 36.8066 66.5176 36.916C66.584 37.0254 66.6699 37.0977 66.7754 37.1328C66.8809 37.168 66.9941 37.1855 67.1152 37.1855C67.2051 37.1855 67.2988 37.1777 67.3965 37.1621C67.498 37.1426 67.5742 37.127 67.625 37.1152L67.6309 38C67.5449 38.0273 67.4316 38.0527 67.291 38.0762C67.1543 38.1035 66.9883 38.1172 66.793 38.1172C66.5273 38.1172 66.2832 38.0645 66.0605 37.959C65.8379 37.8535 65.6602 37.6777 65.5273 37.4316C65.3984 37.1816 65.334 36.8457 65.334 36.4238V30.1191ZM70.3008 31.6602V38H69.2109V31.6602H70.3008ZM69.1289 29.9785C69.1289 29.8027 69.1816 29.6543 69.2871 29.5332C69.3965 29.4121 69.5566 29.3516 69.7676 29.3516C69.9746 29.3516 70.1328 29.4121 70.2422 29.5332C70.3555 29.6543 70.4121 29.8027 70.4121 29.9785C70.4121 30.1465 70.3555 30.291 70.2422 30.4121C70.1328 30.5293 69.9746 30.5879 69.7676 30.5879C69.5566 30.5879 69.3965 30.5293 69.2871 30.4121C69.1816 30.291 69.1289 30.1465 69.1289 29.9785ZM74.8281 37.2266C75.0859 37.2266 75.3242 37.1738 75.543 37.0684C75.7617 36.9629 75.9414 36.8184 76.082 36.6348C76.2227 36.4473 76.3027 36.2344 76.3223 35.9961H77.3535C77.334 36.3711 77.207 36.7207 76.9727 37.0449C76.7422 37.3652 76.4395 37.625 76.0645 37.8242C75.6895 38.0195 75.2773 38.1172 74.8281 38.1172C74.3516 38.1172 73.9355 38.0332 73.5801 37.8652C73.2285 37.6973 72.9355 37.4668 72.7012 37.1738C72.4707 36.8809 72.2969 36.5449 72.1797 36.166C72.0664 35.7832 72.0098 35.3789 72.0098 34.9531V34.707C72.0098 34.2812 72.0664 33.8789 72.1797 33.5C72.2969 33.1172 72.4707 32.7793 72.7012 32.4863C72.9355 32.1934 73.2285 31.9629 73.5801 31.7949C73.9355 31.627 74.3516 31.543 74.8281 31.543C75.3242 31.543 75.7578 31.6445 76.1289 31.8477C76.5 32.0469 76.791 32.3203 77.002 32.668C77.2168 33.0117 77.334 33.4023 77.3535 33.8398H76.3223C76.3027 33.5781 76.2285 33.3418 76.0996 33.1309C75.9746 32.9199 75.8027 32.752 75.584 32.627C75.3691 32.498 75.1172 32.4336 74.8281 32.4336C74.4961 32.4336 74.2168 32.5 73.9902 32.6328C73.7676 32.7617 73.5898 32.9375 73.457 33.1602C73.3281 33.3789 73.2344 33.623 73.1758 33.8926C73.1211 34.1582 73.0938 34.4297 73.0938 34.707V34.9531C73.0938 35.2305 73.1211 35.5039 73.1758 35.7734C73.2305 36.043 73.3223 36.2871 73.4512 36.5059C73.584 36.7246 73.7617 36.9004 73.9844 37.0332C74.2109 37.1621 74.4922 37.2266 74.8281 37.2266ZM82.5137 36.3184C82.5137 36.1621 82.4785 36.0176 82.4082 35.8848C82.3418 35.748 82.2031 35.625 81.9922 35.5156C81.7852 35.4023 81.4727 35.3047 81.0547 35.2227C80.7031 35.1484 80.3848 35.0605 80.0996 34.959C79.8184 34.8574 79.5781 34.7344 79.3789 34.5898C79.1836 34.4453 79.0332 34.2754 78.9277 34.0801C78.8223 33.8848 78.7695 33.6562 78.7695 33.3945C78.7695 33.1445 78.8242 32.9082 78.9336 32.6855C79.0469 32.4629 79.2051 32.2656 79.4082 32.0938C79.6152 31.9219 79.8633 31.7871 80.1523 31.6895C80.4414 31.5918 80.7637 31.543 81.1191 31.543C81.627 31.543 82.0605 31.6328 82.4199 31.8125C82.7793 31.9922 83.0547 32.2324 83.2461 32.5332C83.4375 32.8301 83.5332 33.1602 83.5332 33.5234H82.4492C82.4492 33.3477 82.3965 33.1777 82.291 33.0137C82.1895 32.8457 82.0391 32.707 81.8398 32.5977C81.6445 32.4883 81.4043 32.4336 81.1191 32.4336C80.8184 32.4336 80.5742 32.4805 80.3867 32.5742C80.2031 32.6641 80.0684 32.7793 79.9824 32.9199C79.9004 33.0605 79.8594 33.209 79.8594 33.3652C79.8594 33.4824 79.8789 33.5879 79.918 33.6816C79.9609 33.7715 80.0352 33.8555 80.1406 33.9336C80.2461 34.0078 80.3945 34.0781 80.5859 34.1445C80.7773 34.2109 81.0215 34.2773 81.3184 34.3438C81.8379 34.4609 82.2656 34.6016 82.6016 34.7656C82.9375 34.9297 83.1875 35.1309 83.3516 35.3691C83.5156 35.6074 83.5977 35.8965 83.5977 36.2363C83.5977 36.5137 83.5391 36.7676 83.4219 36.998C83.3086 37.2285 83.1426 37.4277 82.9238 37.5957C82.709 37.7598 82.4512 37.8887 82.1504 37.9824C81.8535 38.0723 81.5195 38.1172 81.1484 38.1172C80.5898 38.1172 80.1172 38.0176 79.7305 37.8184C79.3438 37.6191 79.0508 37.3613 78.8516 37.0449C78.6523 36.7285 78.5527 36.3945 78.5527 36.043H79.6426C79.6582 36.3398 79.7441 36.5762 79.9004 36.752C80.0566 36.9238 80.248 37.0469 80.4746 37.1211C80.7012 37.1914 80.9258 37.2266 81.1484 37.2266C81.4453 37.2266 81.6934 37.1875 81.8926 37.1094C82.0957 37.0312 82.25 36.9238 82.3555 36.7871C82.4609 36.6504 82.5137 36.4941 82.5137 36.3184Z" fill="black" fill-opacity="0.54"/>
        <path d="M37.6094 47.3516L34.3672 57H32.0938L36.3438 45.625H37.7969L37.6094 47.3516ZM40.3203 57L37.0625 47.3516L36.8672 45.625H38.3281L42.6016 57H40.3203ZM40.1719 52.7734V54.4688H34.0703V52.7734H40.1719ZM45.8047 45V57H43.7344V45H45.8047ZM52.4297 55.2031V51.3047C52.4297 51.0182 52.3802 50.7708 52.2812 50.5625C52.1823 50.3542 52.0312 50.1927 51.8281 50.0781C51.625 49.9635 51.3672 49.9062 51.0547 49.9062C50.7786 49.9062 50.5365 49.9531 50.3281 50.0469C50.125 50.1406 49.9688 50.2734 49.8594 50.4453C49.75 50.612 49.6953 50.8047 49.6953 51.0234H47.625C47.625 50.6745 47.7083 50.3438 47.875 50.0312C48.0417 49.7135 48.2786 49.4323 48.5859 49.1875C48.8984 48.9375 49.2708 48.7422 49.7031 48.6016C50.1406 48.4609 50.6302 48.3906 51.1719 48.3906C51.8125 48.3906 52.3828 48.5 52.8828 48.7188C53.388 48.9323 53.7839 49.2552 54.0703 49.6875C54.362 50.1198 54.5078 50.6641 54.5078 51.3203V55.0078C54.5078 55.4297 54.5339 55.7917 54.5859 56.0938C54.6432 56.3906 54.7266 56.6484 54.8359 56.8672V57H52.7344C52.6354 56.7865 52.5599 56.5156 52.5078 56.1875C52.4557 55.8542 52.4297 55.526 52.4297 55.2031ZM52.7188 51.8516L52.7344 53.0781H51.4297C51.1068 53.0781 50.8229 53.112 50.5781 53.1797C50.3333 53.2422 50.1328 53.3359 49.9766 53.4609C49.8203 53.5807 49.7031 53.7266 49.625 53.8984C49.5469 54.0651 49.5078 54.2552 49.5078 54.4688C49.5078 54.6771 49.5547 54.8646 49.6484 55.0312C49.7474 55.1979 49.888 55.3307 50.0703 55.4297C50.2578 55.5234 50.4766 55.5703 50.7266 55.5703C51.0911 55.5703 51.4089 55.4974 51.6797 55.3516C51.9505 55.2005 52.1615 55.0182 52.3125 54.8047C52.4635 54.5911 52.5443 54.388 52.5547 54.1953L53.1484 55.0859C53.0755 55.2995 52.9661 55.526 52.8203 55.7656C52.6745 56.0052 52.487 56.2292 52.2578 56.4375C52.0286 56.6458 51.7526 56.8177 51.4297 56.9531C51.1068 57.0885 50.7318 57.1562 50.3047 57.1562C49.7578 57.1562 49.2682 57.0469 48.8359 56.8281C48.4036 56.6094 48.0625 56.3099 47.8125 55.9297C47.5625 55.5495 47.4375 55.1172 47.4375 54.6328C47.4375 54.1849 47.5208 53.7891 47.6875 53.4453C47.8542 53.1016 48.1016 52.8125 48.4297 52.5781C48.7578 52.3385 49.1641 52.1589 49.6484 52.0391C50.138 51.9141 50.6979 51.8516 51.3281 51.8516H52.7188ZM58.4297 50.2734V57H56.3672V48.5469H58.3203L58.4297 50.2734ZM61 48.4922L60.9688 50.4141C60.8542 50.3932 60.724 50.3776 60.5781 50.3672C60.4375 50.3568 60.3047 50.3516 60.1797 50.3516C59.862 50.3516 59.5833 50.3958 59.3438 50.4844C59.1042 50.5677 58.9036 50.6901 58.7422 50.8516C58.5859 51.013 58.4661 51.2109 58.3828 51.4453C58.2995 51.6745 58.2526 51.9349 58.2422 52.2266L57.7969 52.1719C57.7969 51.6354 57.8516 51.138 57.9609 50.6797C58.0703 50.2214 58.2292 49.8203 58.4375 49.4766C58.6458 49.1328 58.9062 48.8672 59.2188 48.6797C59.5365 48.487 59.901 48.3906 60.3125 48.3906C60.4271 48.3906 60.5495 48.401 60.6797 48.4219C60.8151 48.4375 60.9219 48.4609 61 48.4922ZM64.1875 50.2812V57H62.125V48.5469H64.0703L64.1875 50.2812ZM63.8828 52.4688H63.25C63.25 51.8802 63.3203 51.3385 63.4609 50.8438C63.6068 50.349 63.8203 49.9193 64.1016 49.5547C64.3828 49.1849 64.7292 48.8984 65.1406 48.6953C65.5573 48.4922 66.0391 48.3906 66.5859 48.3906C66.9661 48.3906 67.3151 48.4479 67.6328 48.5625C67.9505 48.6719 68.224 48.8464 68.4531 49.0859C68.6875 49.3203 68.8672 49.6276 68.9922 50.0078C69.1172 50.3828 69.1797 50.8333 69.1797 51.3594V57H67.1172V51.5703C67.1172 51.1745 67.0599 50.8646 66.9453 50.6406C66.8359 50.4167 66.6771 50.2604 66.4688 50.1719C66.2604 50.0781 66.0104 50.0312 65.7188 50.0312C65.3958 50.0312 65.1172 50.0964 64.8828 50.2266C64.6536 50.3516 64.4635 50.526 64.3125 50.75C64.1667 50.974 64.0573 51.2318 63.9844 51.5234C63.9167 51.8151 63.8828 52.1302 63.8828 52.4688ZM69.0234 52.0859L68.1719 52.2422C68.1771 51.7109 68.25 51.2135 68.3906 50.75C68.5312 50.2812 68.737 49.8724 69.0078 49.5234C69.2839 49.1693 69.625 48.8932 70.0312 48.6953C70.4427 48.4922 70.9167 48.3906 71.4531 48.3906C71.8698 48.3906 72.2448 48.4505 72.5781 48.5703C72.9167 48.6849 73.2057 48.8698 73.4453 49.125C73.6849 49.375 73.8672 49.7005 73.9922 50.1016C74.1224 50.5026 74.1875 50.9922 74.1875 51.5703V57H72.1094V51.5625C72.1094 51.151 72.0521 50.8359 71.9375 50.6172C71.8281 50.3984 71.6693 50.2474 71.4609 50.1641C71.2526 50.0755 71.0078 50.0312 70.7266 50.0312C70.4401 50.0312 70.1901 50.0859 69.9766 50.1953C69.7682 50.2995 69.5911 50.4453 69.4453 50.6328C69.3047 50.8203 69.1979 51.0391 69.125 51.2891C69.0573 51.5339 69.0234 51.7995 69.0234 52.0859ZM80.6875 54.6875C80.6875 54.5104 80.6406 54.3516 80.5469 54.2109C80.4531 54.0703 80.276 53.9427 80.0156 53.8281C79.7604 53.7083 79.3854 53.5964 78.8906 53.4922C78.4531 53.3984 78.0495 53.2812 77.6797 53.1406C77.3099 53 76.9922 52.8307 76.7266 52.6328C76.4609 52.4297 76.2526 52.1927 76.1016 51.9219C75.9557 51.6458 75.8828 51.3281 75.8828 50.9688C75.8828 50.6198 75.9583 50.2917 76.1094 49.9844C76.2604 49.6719 76.4792 49.3984 76.7656 49.1641C77.0521 48.9245 77.401 48.737 77.8125 48.6016C78.224 48.4609 78.6875 48.3906 79.2031 48.3906C79.9219 48.3906 80.5391 48.5078 81.0547 48.7422C81.5755 48.9766 81.974 49.2995 82.25 49.7109C82.526 50.1172 82.6641 50.5755 82.6641 51.0859H80.6016C80.6016 50.862 80.5495 50.6589 80.4453 50.4766C80.3464 50.2943 80.1927 50.1484 79.9844 50.0391C79.776 49.9245 79.513 49.8672 79.1953 49.8672C78.9089 49.8672 78.6667 49.9141 78.4688 50.0078C78.276 50.1016 78.1302 50.224 78.0312 50.375C77.9323 50.526 77.8828 50.6927 77.8828 50.875C77.8828 51.0104 77.9089 51.1328 77.9609 51.2422C78.0182 51.3464 78.1094 51.4427 78.2344 51.5312C78.3594 51.6198 78.5286 51.7005 78.7422 51.7734C78.9609 51.8464 79.2292 51.9167 79.5469 51.9844C80.1771 52.1094 80.7266 52.276 81.1953 52.4844C81.6693 52.6875 82.0391 52.9583 82.3047 53.2969C82.5703 53.6354 82.7031 54.0677 82.7031 54.5938C82.7031 54.9688 82.6224 55.3125 82.4609 55.625C82.2995 55.9323 82.0651 56.2005 81.7578 56.4297C81.4505 56.6589 81.0833 56.8385 80.6562 56.9688C80.2292 57.0938 79.7474 57.1562 79.2109 57.1562C78.4349 57.1562 77.7786 57.0182 77.2422 56.7422C76.7057 56.4609 76.2995 56.1068 76.0234 55.6797C75.7474 55.2474 75.6094 54.7995 75.6094 54.3359H77.5859C77.6016 54.6641 77.6901 54.9271 77.8516 55.125C78.013 55.3229 78.2161 55.4661 78.4609 55.5547C78.7109 55.638 78.974 55.6797 79.25 55.6797C79.5625 55.6797 79.8255 55.638 80.0391 55.5547C80.2526 55.4661 80.4141 55.349 80.5234 55.2031C80.6328 55.0521 80.6875 54.8802 80.6875 54.6875ZM92.2578 48.5469V50.0312H87.4141V48.5469H92.2578ZM88.7109 46.4688H90.7812V54.5625C90.7812 54.8125 90.8151 55.0052 90.8828 55.1406C90.9505 55.276 91.0521 55.3672 91.1875 55.4141C91.3229 55.4609 91.4844 55.4844 91.6719 55.4844C91.8073 55.4844 91.9323 55.4766 92.0469 55.4609C92.1615 55.4453 92.2578 55.4297 92.3359 55.4141L92.3438 56.9609C92.1719 57.0182 91.9766 57.0651 91.7578 57.1016C91.5443 57.138 91.3021 57.1562 91.0312 57.1562C90.5677 57.1562 90.1615 57.0781 89.8125 56.9219C89.4635 56.7604 89.1927 56.5026 89 56.1484C88.8073 55.7891 88.7109 55.3151 88.7109 54.7266V46.4688ZM95.6953 50.2734V57H93.6328V48.5469H95.5859L95.6953 50.2734ZM98.2656 48.4922L98.2344 50.4141C98.1198 50.3932 97.9896 50.3776 97.8438 50.3672C97.7031 50.3568 97.5703 50.3516 97.4453 50.3516C97.1276 50.3516 96.849 50.3958 96.6094 50.4844C96.3698 50.5677 96.1693 50.6901 96.0078 50.8516C95.8516 51.013 95.7318 51.2109 95.6484 51.4453C95.5651 51.6745 95.5182 51.9349 95.5078 52.2266L95.0625 52.1719C95.0625 51.6354 95.1172 51.138 95.2266 50.6797C95.3359 50.2214 95.4948 49.8203 95.7031 49.4766C95.9115 49.1328 96.1719 48.8672 96.4844 48.6797C96.8021 48.487 97.1667 48.3906 97.5781 48.3906C97.6927 48.3906 97.8151 48.401 97.9453 48.4219C98.0807 48.4375 98.1875 48.4609 98.2656 48.4922ZM101.586 48.5469V57H99.5156V48.5469H101.586ZM99.375 46.3359C99.375 46.0286 99.4792 45.7734 99.6875 45.5703C99.901 45.3672 100.188 45.2656 100.547 45.2656C100.906 45.2656 101.19 45.3672 101.398 45.5703C101.612 45.7734 101.719 46.0286 101.719 46.3359C101.719 46.638 101.612 46.8906 101.398 47.0938C101.19 47.2969 100.906 47.3984 100.547 47.3984C100.188 47.3984 99.901 47.2969 99.6875 47.0938C99.4792 46.8906 99.375 46.638 99.375 46.3359ZM108.93 48.5469H110.805V56.7422C110.805 57.5078 110.638 58.1562 110.305 58.6875C109.977 59.224 109.516 59.6302 108.922 59.9062C108.328 60.1875 107.638 60.3281 106.852 60.3281C106.513 60.3281 106.146 60.2812 105.75 60.1875C105.359 60.0938 104.982 59.9453 104.617 59.7422C104.258 59.5443 103.958 59.2865 103.719 58.9688L104.648 57.75C104.93 58.0781 105.247 58.3255 105.602 58.4922C105.956 58.6641 106.339 58.75 106.75 58.75C107.167 58.75 107.521 58.6719 107.812 58.5156C108.109 58.3646 108.336 58.1406 108.492 57.8438C108.654 57.5521 108.734 57.1927 108.734 56.7656V50.4766L108.93 48.5469ZM103.219 52.875V52.7109C103.219 52.0651 103.297 51.4792 103.453 50.9531C103.609 50.4219 103.833 49.9661 104.125 49.5859C104.422 49.2057 104.779 48.9115 105.195 48.7031C105.617 48.4948 106.091 48.3906 106.617 48.3906C107.174 48.3906 107.643 48.4922 108.023 48.6953C108.409 48.8984 108.727 49.1875 108.977 49.5625C109.232 49.9375 109.43 50.3828 109.57 50.8984C109.716 51.4089 109.828 51.9714 109.906 52.5859V53.0312C109.833 53.6302 109.716 54.1797 109.555 54.6797C109.398 55.1797 109.19 55.6172 108.93 55.9922C108.669 56.362 108.346 56.6484 107.961 56.8516C107.576 57.0547 107.122 57.1562 106.602 57.1562C106.081 57.1562 105.612 57.0495 105.195 56.8359C104.779 56.6224 104.422 56.3229 104.125 55.9375C103.833 55.5521 103.609 55.099 103.453 54.5781C103.297 54.0573 103.219 53.4896 103.219 52.875ZM105.281 52.7109V52.875C105.281 53.2396 105.318 53.5807 105.391 53.8984C105.464 54.2161 105.576 54.4974 105.727 54.7422C105.878 54.9818 106.068 55.1693 106.297 55.3047C106.526 55.4401 106.799 55.5078 107.117 55.5078C107.544 55.5078 107.893 55.4193 108.164 55.2422C108.44 55.0599 108.648 54.8125 108.789 54.5C108.935 54.1823 109.029 53.8255 109.07 53.4297V52.2031C109.044 51.8906 108.987 51.6016 108.898 51.3359C108.815 51.0703 108.698 50.8411 108.547 50.6484C108.396 50.4557 108.203 50.3047 107.969 50.1953C107.734 50.0859 107.456 50.0312 107.133 50.0312C106.82 50.0312 106.547 50.1016 106.312 50.2422C106.078 50.3776 105.885 50.5677 105.734 50.8125C105.583 51.0573 105.469 51.3411 105.391 51.6641C105.318 51.987 105.281 52.3359 105.281 52.7109ZM118.039 48.5469H119.914V56.7422C119.914 57.5078 119.747 58.1562 119.414 58.6875C119.086 59.224 118.625 59.6302 118.031 59.9062C117.438 60.1875 116.747 60.3281 115.961 60.3281C115.622 60.3281 115.255 60.2812 114.859 60.1875C114.469 60.0938 114.091 59.9453 113.727 59.7422C113.367 59.5443 113.068 59.2865 112.828 58.9688L113.758 57.75C114.039 58.0781 114.357 58.3255 114.711 58.4922C115.065 58.6641 115.448 58.75 115.859 58.75C116.276 58.75 116.63 58.6719 116.922 58.5156C117.219 58.3646 117.445 58.1406 117.602 57.8438C117.763 57.5521 117.844 57.1927 117.844 56.7656V50.4766L118.039 48.5469ZM112.328 52.875V52.7109C112.328 52.0651 112.406 51.4792 112.562 50.9531C112.719 50.4219 112.943 49.9661 113.234 49.5859C113.531 49.2057 113.888 48.9115 114.305 48.7031C114.727 48.4948 115.201 48.3906 115.727 48.3906C116.284 48.3906 116.753 48.4922 117.133 48.6953C117.518 48.8984 117.836 49.1875 118.086 49.5625C118.341 49.9375 118.539 50.3828 118.68 50.8984C118.826 51.4089 118.938 51.9714 119.016 52.5859V53.0312C118.943 53.6302 118.826 54.1797 118.664 54.6797C118.508 55.1797 118.299 55.6172 118.039 55.9922C117.779 56.362 117.456 56.6484 117.07 56.8516C116.685 57.0547 116.232 57.1562 115.711 57.1562C115.19 57.1562 114.721 57.0495 114.305 56.8359C113.888 56.6224 113.531 56.3229 113.234 55.9375C112.943 55.5521 112.719 55.099 112.562 54.5781C112.406 54.0573 112.328 53.4896 112.328 52.875ZM114.391 52.7109V52.875C114.391 53.2396 114.427 53.5807 114.5 53.8984C114.573 54.2161 114.685 54.4974 114.836 54.7422C114.987 54.9818 115.177 55.1693 115.406 55.3047C115.635 55.4401 115.909 55.5078 116.227 55.5078C116.654 55.5078 117.003 55.4193 117.273 55.2422C117.549 55.0599 117.758 54.8125 117.898 54.5C118.044 54.1823 118.138 53.8255 118.18 53.4297V52.2031C118.154 51.8906 118.096 51.6016 118.008 51.3359C117.924 51.0703 117.807 50.8411 117.656 50.6484C117.505 50.4557 117.312 50.3047 117.078 50.1953C116.844 50.0859 116.565 50.0312 116.242 50.0312C115.93 50.0312 115.656 50.1016 115.422 50.2422C115.188 50.3776 114.995 50.5677 114.844 50.8125C114.693 51.0573 114.578 51.3411 114.5 51.6641C114.427 51.987 114.391 52.3359 114.391 52.7109ZM125.57 57.1562C124.93 57.1562 124.354 57.0521 123.844 56.8438C123.333 56.6354 122.898 56.3464 122.539 55.9766C122.185 55.6016 121.911 55.1667 121.719 54.6719C121.531 54.1719 121.438 53.6354 121.438 53.0625V52.75C121.438 52.099 121.531 51.5078 121.719 50.9766C121.906 50.4401 122.172 49.9792 122.516 49.5938C122.859 49.2083 123.271 48.9115 123.75 48.7031C124.229 48.4948 124.758 48.3906 125.336 48.3906C125.935 48.3906 126.464 48.4922 126.922 48.6953C127.38 48.8932 127.763 49.1745 128.07 49.5391C128.378 49.9036 128.609 50.3411 128.766 50.8516C128.922 51.3568 129 51.9167 129 52.5312V53.3984H122.375V51.9766H126.969V51.8203C126.958 51.4922 126.896 51.1927 126.781 50.9219C126.667 50.6458 126.49 50.4271 126.25 50.2656C126.01 50.099 125.701 50.0156 125.32 50.0156C125.013 50.0156 124.745 50.0833 124.516 50.2188C124.292 50.349 124.104 50.5365 123.953 50.7812C123.807 51.0208 123.698 51.3073 123.625 51.6406C123.552 51.974 123.516 52.3438 123.516 52.75V53.0625C123.516 53.4167 123.562 53.7448 123.656 54.0469C123.755 54.349 123.898 54.612 124.086 54.8359C124.279 55.0547 124.508 55.2266 124.773 55.3516C125.044 55.4714 125.352 55.5312 125.695 55.5312C126.128 55.5312 126.518 55.4479 126.867 55.2812C127.221 55.1094 127.529 54.8568 127.789 54.5234L128.828 55.6016C128.651 55.862 128.411 56.112 128.109 56.3516C127.812 56.5911 127.453 56.7865 127.031 56.9375C126.609 57.0833 126.122 57.1562 125.57 57.1562ZM132.445 50.2734V57H130.383V48.5469H132.336L132.445 50.2734ZM135.016 48.4922L134.984 50.4141C134.87 50.3932 134.74 50.3776 134.594 50.3672C134.453 50.3568 134.32 50.3516 134.195 50.3516C133.878 50.3516 133.599 50.3958 133.359 50.4844C133.12 50.5677 132.919 50.6901 132.758 50.8516C132.602 51.013 132.482 51.2109 132.398 51.4453C132.315 51.6745 132.268 51.9349 132.258 52.2266L131.812 52.1719C131.812 51.6354 131.867 51.138 131.977 50.6797C132.086 50.2214 132.245 49.8203 132.453 49.4766C132.661 49.1328 132.922 48.8672 133.234 48.6797C133.552 48.487 133.917 48.3906 134.328 48.3906C134.443 48.3906 134.565 48.401 134.695 48.4219C134.831 48.4375 134.938 48.4609 135.016 48.4922ZM139.789 57.1562C139.148 57.1562 138.573 57.0521 138.062 56.8438C137.552 56.6354 137.117 56.3464 136.758 55.9766C136.404 55.6016 136.13 55.1667 135.938 54.6719C135.75 54.1719 135.656 53.6354 135.656 53.0625V52.75C135.656 52.099 135.75 51.5078 135.938 50.9766C136.125 50.4401 136.391 49.9792 136.734 49.5938C137.078 49.2083 137.49 48.9115 137.969 48.7031C138.448 48.4948 138.977 48.3906 139.555 48.3906C140.154 48.3906 140.682 48.4922 141.141 48.6953C141.599 48.8932 141.982 49.1745 142.289 49.5391C142.596 49.9036 142.828 50.3411 142.984 50.8516C143.141 51.3568 143.219 51.9167 143.219 52.5312V53.3984H136.594V51.9766H141.188V51.8203C141.177 51.4922 141.115 51.1927 141 50.9219C140.885 50.6458 140.708 50.4271 140.469 50.2656C140.229 50.099 139.919 50.0156 139.539 50.0156C139.232 50.0156 138.964 50.0833 138.734 50.2188C138.51 50.349 138.323 50.5365 138.172 50.7812C138.026 51.0208 137.917 51.3073 137.844 51.6406C137.771 51.974 137.734 52.3438 137.734 52.75V53.0625C137.734 53.4167 137.781 53.7448 137.875 54.0469C137.974 54.349 138.117 54.612 138.305 54.8359C138.497 55.0547 138.727 55.2266 138.992 55.3516C139.263 55.4714 139.57 55.5312 139.914 55.5312C140.346 55.5312 140.737 55.4479 141.086 55.2812C141.44 55.1094 141.747 54.8568 142.008 54.5234L143.047 55.6016C142.87 55.862 142.63 56.112 142.328 56.3516C142.031 56.5911 141.672 56.7865 141.25 56.9375C140.828 57.0833 140.341 57.1562 139.789 57.1562ZM149.672 55.2031V45H151.75V57H149.875L149.672 55.2031ZM144.242 52.875V52.7109C144.242 52.0651 144.315 51.4792 144.461 50.9531C144.612 50.4219 144.831 49.9661 145.117 49.5859C145.404 49.2057 145.75 48.9115 146.156 48.7031C146.568 48.4948 147.034 48.3906 147.555 48.3906C148.06 48.3906 148.5 48.4922 148.875 48.6953C149.255 48.8984 149.578 49.1875 149.844 49.5625C150.115 49.9375 150.331 50.3828 150.492 50.8984C150.654 51.4089 150.771 51.9714 150.844 52.5859V53.0312C150.771 53.6302 150.654 54.1797 150.492 54.6797C150.331 55.1797 150.115 55.6172 149.844 55.9922C149.578 56.362 149.255 56.6484 148.875 56.8516C148.495 57.0547 148.049 57.1562 147.539 57.1562C147.023 57.1562 146.56 57.0495 146.148 56.8359C145.742 56.6224 145.396 56.3229 145.109 55.9375C144.828 55.5521 144.612 55.099 144.461 54.5781C144.315 54.0573 144.242 53.4896 144.242 52.875ZM146.312 52.7109V52.875C146.312 53.2396 146.344 53.5807 146.406 53.8984C146.469 54.2161 146.57 54.4974 146.711 54.7422C146.852 54.9818 147.031 55.1693 147.25 55.3047C147.474 55.4401 147.745 55.5078 148.062 55.5078C148.469 55.5078 148.802 55.4193 149.062 55.2422C149.328 55.0599 149.534 54.8125 149.68 54.5C149.826 54.1823 149.919 53.8255 149.961 53.4297V52.2031C149.94 51.8906 149.885 51.6016 149.797 51.3359C149.714 51.0703 149.594 50.8411 149.438 50.6484C149.286 50.4557 149.099 50.3047 148.875 50.1953C148.651 50.0859 148.385 50.0312 148.078 50.0312C147.76 50.0312 147.49 50.1016 147.266 50.2422C147.042 50.3776 146.859 50.5677 146.719 50.8125C146.578 51.0573 146.474 51.3411 146.406 51.6641C146.344 51.987 146.312 52.3359 146.312 52.7109Z" fill="black" fill-opacity="0.76"/>
        <path d="M256.447 29.4688V38H255.334V29.4688H256.447ZM259.189 29.4688V30.3945H252.598V29.4688H259.189ZM261.625 29V38H260.541V29H261.625ZM261.367 34.5898L260.916 34.5723C260.92 34.1387 260.984 33.7383 261.109 33.3711C261.234 33 261.41 32.6777 261.637 32.4043C261.863 32.1309 262.133 31.9199 262.445 31.7715C262.762 31.6191 263.111 31.543 263.494 31.543C263.807 31.543 264.088 31.5859 264.338 31.6719C264.588 31.7539 264.801 31.8867 264.977 32.0703C265.156 32.2539 265.293 32.4922 265.387 32.7852C265.48 33.0742 265.527 33.4277 265.527 33.8457V38H264.438V33.834C264.438 33.502 264.389 33.2363 264.291 33.0371C264.193 32.834 264.051 32.6875 263.863 32.5977C263.676 32.5039 263.445 32.457 263.172 32.457C262.902 32.457 262.656 32.5137 262.434 32.627C262.215 32.7402 262.025 32.8965 261.865 33.0957C261.709 33.2949 261.586 33.5234 261.496 33.7812C261.41 34.0352 261.367 34.3047 261.367 34.5898ZM268.578 31.6602V38H267.488V31.6602H268.578ZM267.406 29.9785C267.406 29.8027 267.459 29.6543 267.564 29.5332C267.674 29.4121 267.834 29.3516 268.045 29.3516C268.252 29.3516 268.41 29.4121 268.52 29.5332C268.633 29.6543 268.689 29.8027 268.689 29.9785C268.689 30.1465 268.633 30.291 268.52 30.4121C268.41 30.5293 268.252 30.5879 268.045 30.5879C267.834 30.5879 267.674 30.5293 267.564 30.4121C267.459 30.291 267.406 30.1465 267.406 29.9785ZM274.26 36.3184C274.26 36.1621 274.225 36.0176 274.154 35.8848C274.088 35.748 273.949 35.625 273.738 35.5156C273.531 35.4023 273.219 35.3047 272.801 35.2227C272.449 35.1484 272.131 35.0605 271.846 34.959C271.564 34.8574 271.324 34.7344 271.125 34.5898C270.93 34.4453 270.779 34.2754 270.674 34.0801C270.568 33.8848 270.516 33.6562 270.516 33.3945C270.516 33.1445 270.57 32.9082 270.68 32.6855C270.793 32.4629 270.951 32.2656 271.154 32.0938C271.361 31.9219 271.609 31.7871 271.898 31.6895C272.188 31.5918 272.51 31.543 272.865 31.543C273.373 31.543 273.807 31.6328 274.166 31.8125C274.525 31.9922 274.801 32.2324 274.992 32.5332C275.184 32.8301 275.279 33.1602 275.279 33.5234H274.195C274.195 33.3477 274.143 33.1777 274.037 33.0137C273.936 32.8457 273.785 32.707 273.586 32.5977C273.391 32.4883 273.15 32.4336 272.865 32.4336C272.564 32.4336 272.32 32.4805 272.133 32.5742C271.949 32.6641 271.814 32.7793 271.729 32.9199C271.646 33.0605 271.605 33.209 271.605 33.3652C271.605 33.4824 271.625 33.5879 271.664 33.6816C271.707 33.7715 271.781 33.8555 271.887 33.9336C271.992 34.0078 272.141 34.0781 272.332 34.1445C272.523 34.2109 272.768 34.2773 273.064 34.3438C273.584 34.4609 274.012 34.6016 274.348 34.7656C274.684 34.9297 274.934 35.1309 275.098 35.3691C275.262 35.6074 275.344 35.8965 275.344 36.2363C275.344 36.5137 275.285 36.7676 275.168 36.998C275.055 37.2285 274.889 37.4277 274.67 37.5957C274.455 37.7598 274.197 37.8887 273.896 37.9824C273.6 38.0723 273.266 38.1172 272.895 38.1172C272.336 38.1172 271.863 38.0176 271.477 37.8184C271.09 37.6191 270.797 37.3613 270.598 37.0449C270.398 36.7285 270.299 36.3945 270.299 36.043H271.389C271.404 36.3398 271.49 36.5762 271.646 36.752C271.803 36.9238 271.994 37.0469 272.221 37.1211C272.447 37.1914 272.672 37.2266 272.895 37.2266C273.191 37.2266 273.439 37.1875 273.639 37.1094C273.842 37.0312 273.996 36.9238 274.102 36.7871C274.207 36.6504 274.26 36.4941 274.26 36.3184ZM281.85 36.875L283.479 31.6602H284.193L284.053 32.6973L282.395 38H281.697L281.85 36.875ZM280.754 31.6602L282.143 36.9336L282.242 38H281.51L279.67 31.6602H280.754ZM285.752 36.8926L287.076 31.6602H288.154L286.314 38H285.588L285.752 36.8926ZM284.352 31.6602L285.945 36.7871L286.127 38H285.436L283.73 32.6855L283.59 31.6602H284.352ZM292.148 38.1172C291.707 38.1172 291.307 38.043 290.947 37.8945C290.592 37.7422 290.285 37.5293 290.027 37.2559C289.773 36.9824 289.578 36.6582 289.441 36.2832C289.305 35.9082 289.236 35.498 289.236 35.0527V34.8066C289.236 34.291 289.312 33.832 289.465 33.4297C289.617 33.0234 289.824 32.6797 290.086 32.3984C290.348 32.1172 290.645 31.9043 290.977 31.7598C291.309 31.6152 291.652 31.543 292.008 31.543C292.461 31.543 292.852 31.6211 293.18 31.7773C293.512 31.9336 293.783 32.1523 293.994 32.4336C294.205 32.7109 294.361 33.0391 294.463 33.418C294.564 33.793 294.615 34.2031 294.615 34.6484V35.1348H289.881V34.25H293.531V34.168C293.516 33.8867 293.457 33.6133 293.355 33.3477C293.258 33.082 293.102 32.8633 292.887 32.6914C292.672 32.5195 292.379 32.4336 292.008 32.4336C291.762 32.4336 291.535 32.4863 291.328 32.5918C291.121 32.6934 290.943 32.8457 290.795 33.0488C290.646 33.252 290.531 33.5 290.449 33.793C290.367 34.0859 290.326 34.4238 290.326 34.8066V35.0527C290.326 35.3535 290.367 35.6367 290.449 35.9023C290.535 36.1641 290.658 36.3945 290.818 36.5938C290.982 36.793 291.18 36.9492 291.41 37.0625C291.645 37.1758 291.91 37.2324 292.207 37.2324C292.59 37.2324 292.914 37.1543 293.18 36.998C293.445 36.8418 293.678 36.6328 293.877 36.3711L294.533 36.8926C294.396 37.0996 294.223 37.2969 294.012 37.4844C293.801 37.6719 293.541 37.8242 293.232 37.9414C292.928 38.0586 292.566 38.1172 292.148 38.1172ZM298.762 38.1172C298.32 38.1172 297.92 38.043 297.561 37.8945C297.205 37.7422 296.898 37.5293 296.641 37.2559C296.387 36.9824 296.191 36.6582 296.055 36.2832C295.918 35.9082 295.85 35.498 295.85 35.0527V34.8066C295.85 34.291 295.926 33.832 296.078 33.4297C296.23 33.0234 296.438 32.6797 296.699 32.3984C296.961 32.1172 297.258 31.9043 297.59 31.7598C297.922 31.6152 298.266 31.543 298.621 31.543C299.074 31.543 299.465 31.6211 299.793 31.7773C300.125 31.9336 300.396 32.1523 300.607 32.4336C300.818 32.7109 300.975 33.0391 301.076 33.418C301.178 33.793 301.229 34.2031 301.229 34.6484V35.1348H296.494V34.25H300.145V34.168C300.129 33.8867 300.07 33.6133 299.969 33.3477C299.871 33.082 299.715 32.8633 299.5 32.6914C299.285 32.5195 298.992 32.4336 298.621 32.4336C298.375 32.4336 298.148 32.4863 297.941 32.5918C297.734 32.6934 297.557 32.8457 297.408 33.0488C297.26 33.252 297.145 33.5 297.062 33.793C296.98 34.0859 296.939 34.4238 296.939 34.8066V35.0527C296.939 35.3535 296.98 35.6367 297.062 35.9023C297.148 36.1641 297.271 36.3945 297.432 36.5938C297.596 36.793 297.793 36.9492 298.023 37.0625C298.258 37.1758 298.523 37.2324 298.82 37.2324C299.203 37.2324 299.527 37.1543 299.793 36.998C300.059 36.8418 300.291 36.6328 300.49 36.3711L301.146 36.8926C301.01 37.0996 300.836 37.2969 300.625 37.4844C300.414 37.6719 300.154 37.8242 299.846 37.9414C299.541 38.0586 299.18 38.1172 298.762 38.1172ZM303.834 29V38H302.744V29H303.834ZM307.707 31.6602L304.941 34.6191L303.395 36.2246L303.307 35.0703L304.414 33.7461L306.383 31.6602H307.707ZM306.717 38L304.455 34.9766L305.018 34.0098L307.994 38H306.717Z" fill="black" fill-opacity="0.54"/>
        <path d="M289.102 55.375V57H281.398V55.6094L285.094 51.6172C285.479 51.1797 285.784 50.7995 286.008 50.4766C286.232 50.1536 286.391 49.862 286.484 49.6016C286.583 49.3359 286.633 49.0833 286.633 48.8438C286.633 48.4948 286.57 48.1901 286.445 47.9297C286.32 47.6641 286.138 47.4583 285.898 47.3125C285.664 47.1667 285.375 47.0938 285.031 47.0938C284.651 47.0938 284.326 47.1823 284.055 47.3594C283.789 47.5312 283.586 47.7708 283.445 48.0781C283.31 48.3854 283.242 48.737 283.242 49.1328H281.172C281.172 48.4609 281.328 47.849 281.641 47.2969C281.953 46.7396 282.401 46.2943 282.984 45.9609C283.568 45.6276 284.26 45.4609 285.062 45.4609C285.844 45.4609 286.505 45.5911 287.047 45.8516C287.589 46.1068 288 46.4714 288.281 46.9453C288.562 47.4193 288.703 47.9844 288.703 48.6406C288.703 49.0052 288.643 49.3646 288.523 49.7188C288.404 50.0729 288.234 50.4245 288.016 50.7734C287.802 51.1172 287.547 51.4661 287.25 51.8203C286.953 52.1745 286.622 52.5365 286.258 52.9062L284.039 55.375H289.102ZM292.094 55.3984H292.242C292.914 55.3984 293.482 55.3125 293.945 55.1406C294.414 54.9688 294.792 54.7266 295.078 54.4141C295.37 54.0964 295.581 53.7188 295.711 53.2812C295.846 52.8385 295.914 52.349 295.914 51.8125V49.75C295.914 49.3125 295.87 48.9297 295.781 48.6016C295.693 48.2682 295.568 47.9896 295.406 47.7656C295.25 47.5417 295.065 47.375 294.852 47.2656C294.638 47.151 294.409 47.0938 294.164 47.0938C293.893 47.0938 293.654 47.1562 293.445 47.2812C293.237 47.4062 293.06 47.5781 292.914 47.7969C292.773 48.0104 292.664 48.2578 292.586 48.5391C292.513 48.8203 292.477 49.1172 292.477 49.4297C292.477 49.7318 292.51 50.0208 292.578 50.2969C292.651 50.5729 292.758 50.8177 292.898 51.0312C293.044 51.2448 293.227 51.4141 293.445 51.5391C293.664 51.6589 293.919 51.7188 294.211 51.7188C294.487 51.7188 294.737 51.6667 294.961 51.5625C295.19 51.4531 295.388 51.3099 295.555 51.1328C295.721 50.9505 295.849 50.75 295.938 50.5312C296.031 50.3073 296.083 50.0807 296.094 49.8516L296.82 50.1641C296.82 50.5443 296.74 50.9193 296.578 51.2891C296.422 51.6589 296.201 51.9948 295.914 52.2969C295.633 52.5938 295.305 52.8333 294.93 53.0156C294.555 53.1927 294.151 53.2812 293.719 53.2812C293.182 53.2812 292.708 53.1823 292.297 52.9844C291.885 52.7865 291.539 52.513 291.258 52.1641C290.982 51.8099 290.773 51.4036 290.633 50.9453C290.492 50.4818 290.422 49.987 290.422 49.4609C290.422 48.9141 290.508 48.401 290.68 47.9219C290.852 47.4375 291.099 47.013 291.422 46.6484C291.75 46.2786 292.146 45.9896 292.609 45.7812C293.073 45.5677 293.594 45.4609 294.172 45.4609C294.771 45.4609 295.305 45.5781 295.773 45.8125C296.242 46.0469 296.641 46.3724 296.969 46.7891C297.297 47.2005 297.547 47.6875 297.719 48.25C297.896 48.8125 297.984 49.4271 297.984 50.0938V50.8203C297.984 51.5234 297.914 52.1901 297.773 52.8203C297.633 53.4505 297.417 54.026 297.125 54.5469C296.833 55.0677 296.461 55.5182 296.008 55.8984C295.56 56.2786 295.023 56.5729 294.398 56.7812C293.779 56.9844 293.07 57.0859 292.273 57.0859H292.094V55.3984ZM307.578 52.8516V54.4766H299.383L299.297 53.2266L304.117 45.625H305.766L303.984 48.6484L301.398 52.8516H307.578ZM306.227 45.625V57H304.156V45.625H306.227Z" fill="black" fill-opacity="0.76"/>
        <path d="M32 76H308" stroke="black" stroke-opacity="0.04"/>
        <circle cx="174" cy="200" r="88" fill="#FE7F2D" fill-opacity="0.24"/>
        <path d="M174 112C195.35 112 215.971 119.761 232.022 133.838C248.074 147.915 258.46 167.347 261.247 188.514C264.034 209.681 259.03 231.139 247.169 248.89C235.308 266.642 217.398 279.476 196.776 285.001C176.154 290.527 154.226 288.367 135.079 278.925C115.931 269.482 100.869 253.401 92.6986 233.676C84.5285 213.952 83.8076 191.93 90.6701 171.713C97.5327 151.497 111.511 134.465 130 123.79L174 200V112Z" fill="#FE7F2D" fill-opacity="0.4"/>
        <path d="M174 112C192.387 112 210.312 117.759 225.258 128.469C240.204 139.18 251.42 154.302 257.33 171.713C263.24 189.125 263.548 207.95 258.211 225.545C252.873 243.14 242.158 258.622 227.571 269.815C212.984 281.008 195.256 287.351 176.879 287.953C158.502 288.554 140.398 283.385 125.11 273.169C109.822 262.954 98.1171 248.207 91.6403 230.998C85.1635 213.79 84.2396 194.984 88.9985 177.224L174 200V112Z" fill="#FF9754" fill-opacity="0.6"/>
        <path d="M174 112C187.498 112 200.815 115.105 212.921 121.075C225.027 127.045 235.598 135.72 243.815 146.429C252.032 157.138 257.676 169.593 260.309 182.832C262.942 196.071 262.495 209.738 259.001 222.776C255.508 235.814 249.062 247.874 240.162 258.022C231.262 268.171 220.147 276.136 207.676 281.301C195.205 286.467 181.714 288.694 168.245 287.812C154.775 286.929 141.69 282.959 130 276.21L174 200V112Z" fill="#FF8638" fill-opacity="0.6"/>
        <path d="M174 112C191.405 112 208.419 117.161 222.89 126.831C237.362 136.5 248.641 150.244 255.301 166.324C261.962 182.404 263.705 200.098 260.309 217.168C256.914 234.238 248.532 249.918 236.225 262.225L174 200V112Z" fill="#FE7F2D"/>
        <rect x="252" y="92" width="56.4286" height="48" rx="6" fill="#1E1B39"/>
        <path d="M269.939 103.2V111H268.921V103.2H269.939ZM272.446 103.2V104.046H266.42V103.2H272.446ZM275.495 111.107C275.091 111.107 274.725 111.039 274.396 110.904C274.071 110.764 273.791 110.57 273.555 110.32C273.323 110.07 273.145 109.773 273.02 109.43C272.895 109.087 272.832 108.712 272.832 108.305V108.08C272.832 107.609 272.902 107.189 273.041 106.821C273.18 106.45 273.37 106.136 273.609 105.879C273.848 105.621 274.12 105.427 274.423 105.295C274.727 105.162 275.041 105.096 275.366 105.096C275.78 105.096 276.138 105.168 276.438 105.311C276.741 105.454 276.989 105.654 277.182 105.911C277.375 106.164 277.518 106.464 277.611 106.811C277.704 107.154 277.75 107.529 277.75 107.936V108.38H273.421V107.571H276.759V107.496C276.745 107.239 276.691 106.989 276.598 106.746C276.509 106.504 276.366 106.304 276.17 106.146C275.973 105.989 275.705 105.911 275.366 105.911C275.141 105.911 274.934 105.959 274.745 106.055C274.555 106.148 274.393 106.287 274.257 106.473C274.121 106.659 274.016 106.886 273.941 107.154C273.866 107.421 273.829 107.73 273.829 108.08V108.305C273.829 108.58 273.866 108.839 273.941 109.082C274.02 109.321 274.132 109.532 274.279 109.714C274.429 109.896 274.609 110.039 274.82 110.143C275.034 110.246 275.277 110.298 275.548 110.298C275.898 110.298 276.195 110.227 276.438 110.084C276.68 109.941 276.893 109.75 277.075 109.511L277.675 109.987C277.55 110.177 277.391 110.357 277.198 110.529C277.005 110.7 276.768 110.839 276.486 110.946C276.207 111.054 275.877 111.107 275.495 111.107ZM280.064 106.355V111H279.068V105.204H280.011L280.064 106.355ZM279.861 107.882L279.4 107.866C279.404 107.47 279.455 107.104 279.555 106.768C279.655 106.429 279.804 106.134 280 105.884C280.196 105.634 280.441 105.441 280.734 105.305C281.027 105.166 281.366 105.096 281.752 105.096C282.023 105.096 282.273 105.136 282.502 105.214C282.73 105.289 282.929 105.409 283.096 105.573C283.264 105.737 283.395 105.948 283.488 106.205C283.58 106.462 283.627 106.773 283.627 107.137V111H282.636V107.186C282.636 106.882 282.584 106.639 282.48 106.457C282.38 106.275 282.238 106.143 282.052 106.061C281.866 105.975 281.648 105.932 281.398 105.932C281.105 105.932 280.861 105.984 280.664 106.087C280.468 106.191 280.311 106.334 280.193 106.516C280.075 106.698 279.989 106.907 279.936 107.143C279.886 107.375 279.861 107.621 279.861 107.882ZM283.616 107.336L282.952 107.539C282.955 107.221 283.007 106.916 283.107 106.623C283.211 106.33 283.359 106.07 283.552 105.841C283.748 105.612 283.989 105.432 284.275 105.3C284.561 105.164 284.888 105.096 285.255 105.096C285.566 105.096 285.841 105.137 286.08 105.22C286.323 105.302 286.527 105.429 286.691 105.6C286.859 105.768 286.986 105.984 287.072 106.248C287.157 106.512 287.2 106.827 287.2 107.191V111H286.204V107.18C286.204 106.855 286.152 106.604 286.048 106.425C285.948 106.243 285.805 106.116 285.62 106.045C285.438 105.97 285.22 105.932 284.966 105.932C284.748 105.932 284.555 105.97 284.388 106.045C284.22 106.12 284.079 106.223 283.964 106.355C283.85 106.484 283.763 106.632 283.702 106.8C283.645 106.968 283.616 107.146 283.616 107.336ZM289.863 106.318V113.229H288.866V105.204H289.777L289.863 106.318ZM293.768 108.054V108.166C293.768 108.587 293.718 108.979 293.618 109.339C293.518 109.696 293.372 110.007 293.179 110.271C292.989 110.536 292.755 110.741 292.477 110.887C292.198 111.034 291.879 111.107 291.518 111.107C291.15 111.107 290.825 111.046 290.543 110.925C290.261 110.804 290.022 110.627 289.825 110.395C289.629 110.162 289.472 109.884 289.354 109.559C289.239 109.234 289.161 108.868 289.118 108.461V107.861C289.161 107.432 289.241 107.048 289.359 106.709C289.477 106.37 289.632 106.08 289.825 105.841C290.022 105.598 290.259 105.414 290.538 105.289C290.816 105.161 291.138 105.096 291.502 105.096C291.866 105.096 292.189 105.168 292.472 105.311C292.754 105.45 292.991 105.65 293.184 105.911C293.377 106.171 293.522 106.484 293.618 106.848C293.718 107.209 293.768 107.611 293.768 108.054ZM292.772 108.166V108.054C292.772 107.764 292.741 107.493 292.68 107.239C292.62 106.982 292.525 106.757 292.397 106.564C292.272 106.368 292.111 106.214 291.914 106.104C291.718 105.989 291.484 105.932 291.213 105.932C290.963 105.932 290.745 105.975 290.559 106.061C290.377 106.146 290.222 106.262 290.093 106.409C289.964 106.552 289.859 106.716 289.777 106.902C289.698 107.084 289.639 107.273 289.6 107.47V108.857C289.672 109.107 289.772 109.343 289.9 109.564C290.029 109.782 290.2 109.959 290.414 110.095C290.629 110.227 290.898 110.293 291.223 110.293C291.491 110.293 291.722 110.237 291.914 110.127C292.111 110.012 292.272 109.857 292.397 109.661C292.525 109.464 292.62 109.239 292.68 108.986C292.741 108.729 292.772 108.455 292.772 108.166Z" fill="white" fill-opacity="0.7"/>
        <path d="M279.856 124.872V126.029H273.527L273.479 125.155L277.264 119.225H278.427L277.168 121.383L274.992 124.872H279.856ZM278.759 119.225V128H277.306V119.225H278.759ZM286.666 125.607C286.666 126.154 286.54 126.614 286.287 126.987C286.033 127.361 285.688 127.644 285.25 127.837C284.816 128.026 284.326 128.121 283.779 128.121C283.233 128.121 282.741 128.026 282.303 127.837C281.865 127.644 281.519 127.361 281.266 126.987C281.013 126.614 280.887 126.154 280.887 125.607C280.887 125.246 280.957 124.918 281.097 124.625C281.238 124.328 281.437 124.073 281.694 123.86C281.955 123.643 282.261 123.476 282.61 123.359C282.964 123.243 283.349 123.185 283.767 123.185C284.322 123.185 284.818 123.287 285.256 123.492C285.694 123.697 286.037 123.98 286.287 124.342C286.54 124.703 286.666 125.125 286.666 125.607ZM285.208 125.535C285.208 125.242 285.147 124.985 285.027 124.764C284.906 124.543 284.738 124.372 284.521 124.251C284.304 124.131 284.053 124.071 283.767 124.071C283.478 124.071 283.227 124.131 283.014 124.251C282.801 124.372 282.634 124.543 282.514 124.764C282.397 124.985 282.339 125.242 282.339 125.535C282.339 125.832 282.397 126.09 282.514 126.306C282.63 126.519 282.797 126.682 283.014 126.795C283.231 126.907 283.486 126.963 283.779 126.963C284.073 126.963 284.326 126.907 284.539 126.795C284.752 126.682 284.916 126.519 285.033 126.306C285.149 126.09 285.208 125.832 285.208 125.535ZM286.467 121.533C286.467 121.971 286.351 122.361 286.118 122.702C285.889 123.044 285.571 123.313 285.166 123.51C284.76 123.703 284.298 123.799 283.779 123.799C283.257 123.799 282.791 123.703 282.381 123.51C281.975 123.313 281.656 123.044 281.423 122.702C281.194 122.361 281.079 121.971 281.079 121.533C281.079 121.011 281.194 120.571 281.423 120.213C281.656 119.852 281.975 119.577 282.381 119.388C282.787 119.199 283.251 119.104 283.773 119.104C284.296 119.104 284.76 119.199 285.166 119.388C285.571 119.577 285.889 119.852 286.118 120.213C286.351 120.571 286.467 121.011 286.467 121.533ZM285.015 121.581C285.015 121.32 284.963 121.091 284.858 120.894C284.758 120.694 284.615 120.537 284.43 120.424C284.245 120.312 284.026 120.256 283.773 120.256C283.52 120.256 283.301 120.31 283.116 120.418C282.932 120.527 282.789 120.679 282.689 120.876C282.588 121.073 282.538 121.308 282.538 121.581C282.538 121.851 282.588 122.086 282.689 122.287C282.789 122.483 282.932 122.638 283.116 122.751C283.305 122.863 283.526 122.919 283.779 122.919C284.033 122.919 284.251 122.863 284.436 122.751C284.621 122.638 284.764 122.483 284.864 122.287C284.965 122.086 285.015 121.851 285.015 121.581Z" fill="white"/>
        <rect x="32" y="105" width="62" height="48" rx="6" fill="#1E1B39"/>
        <path d="M46.4893 119.554V120.395H42.2678V119.554H46.4893ZM42.4286 116.2V124H41.3946V116.2H42.4286ZM47.3893 116.2V124H46.3607V116.2H47.3893ZM52.7946 122.661V118.204H53.7911V124H52.8429L52.7946 122.661ZM52.9821 121.439L53.3946 121.429C53.3946 121.814 53.3536 122.171 53.2714 122.5C53.1929 122.825 53.0643 123.107 52.8857 123.346C52.7071 123.586 52.4732 123.773 52.1839 123.909C51.8946 124.041 51.5429 124.107 51.1286 124.107C50.8464 124.107 50.5875 124.066 50.3518 123.984C50.1196 123.902 49.9196 123.775 49.7518 123.604C49.5839 123.432 49.4536 123.209 49.3607 122.934C49.2714 122.659 49.2268 122.329 49.2268 121.943V118.204H50.2179V121.954C50.2179 122.214 50.2464 122.43 50.3036 122.602C50.3643 122.77 50.4446 122.904 50.5446 123.004C50.6482 123.1 50.7625 123.168 50.8875 123.207C51.0161 123.246 51.1482 123.266 51.2839 123.266C51.7054 123.266 52.0393 123.186 52.2857 123.025C52.5321 122.861 52.7089 122.641 52.8161 122.366C52.9268 122.087 52.9821 121.779 52.9821 121.439ZM56.4589 119.355V124H55.4625V118.204H56.4054L56.4589 119.355ZM56.2554 120.882L55.7946 120.866C55.7982 120.47 55.85 120.104 55.95 119.768C56.05 119.429 56.1982 119.134 56.3946 118.884C56.5911 118.634 56.8357 118.441 57.1286 118.305C57.4214 118.166 57.7607 118.096 58.1464 118.096C58.4179 118.096 58.6679 118.136 58.8964 118.214C59.125 118.289 59.3232 118.409 59.4911 118.573C59.6589 118.737 59.7893 118.948 59.8821 119.205C59.975 119.462 60.0214 119.773 60.0214 120.137V124H59.0304V120.186C59.0304 119.882 58.9786 119.639 58.875 119.457C58.775 119.275 58.6321 119.143 58.4464 119.061C58.2607 118.975 58.0429 118.932 57.7929 118.932C57.5 118.932 57.2554 118.984 57.0589 119.087C56.8625 119.191 56.7054 119.334 56.5875 119.516C56.4696 119.698 56.3839 119.907 56.3304 120.143C56.2804 120.375 56.2554 120.621 56.2554 120.882ZM60.0107 120.336L59.3464 120.539C59.35 120.221 59.4018 119.916 59.5018 119.623C59.6054 119.33 59.7536 119.07 59.9464 118.841C60.1429 118.612 60.3839 118.432 60.6696 118.3C60.9554 118.164 61.2821 118.096 61.65 118.096C61.9607 118.096 62.2357 118.137 62.475 118.22C62.7179 118.302 62.9214 118.429 63.0857 118.6C63.2536 118.768 63.3804 118.984 63.4661 119.248C63.5518 119.512 63.5946 119.827 63.5946 120.191V124H62.5982V120.18C62.5982 119.855 62.5464 119.604 62.4429 119.425C62.3429 119.243 62.2 119.116 62.0143 119.045C61.8321 118.97 61.6143 118.932 61.3607 118.932C61.1429 118.932 60.95 118.97 60.7821 119.045C60.6143 119.12 60.4732 119.223 60.3589 119.355C60.2446 119.484 60.1571 119.632 60.0964 119.8C60.0393 119.968 60.0107 120.146 60.0107 120.336ZM66.3429 118.204V124H65.3464V118.204H66.3429ZM65.2714 116.666C65.2714 116.505 65.3196 116.37 65.4161 116.259C65.5161 116.148 65.6625 116.093 65.8554 116.093C66.0446 116.093 66.1893 116.148 66.2893 116.259C66.3929 116.37 66.4446 116.505 66.4446 116.666C66.4446 116.82 66.3929 116.952 66.2893 117.062C66.1893 117.17 66.0446 117.223 65.8554 117.223C65.6625 117.223 65.5161 117.17 65.4161 117.062C65.3196 116.952 65.2714 116.82 65.2714 116.666ZM71.7589 122.875V115.771H72.7554V124H71.8446L71.7589 122.875ZM67.8589 121.166V121.054C67.8589 120.611 67.9125 120.209 68.0196 119.848C68.1304 119.484 68.2857 119.171 68.4857 118.911C68.6893 118.65 68.9304 118.45 69.2089 118.311C69.4911 118.168 69.8054 118.096 70.1518 118.096C70.5161 118.096 70.8339 118.161 71.1054 118.289C71.3804 118.414 71.6125 118.598 71.8018 118.841C71.9946 119.08 72.1464 119.37 72.2571 119.709C72.3679 120.048 72.4446 120.432 72.4875 120.861V121.354C72.4482 121.779 72.3714 122.161 72.2571 122.5C72.1464 122.839 71.9946 123.129 71.8018 123.368C71.6125 123.607 71.3804 123.791 71.1054 123.92C70.8304 124.045 70.5089 124.107 70.1411 124.107C69.8018 124.107 69.4911 124.034 69.2089 123.887C68.9304 123.741 68.6893 123.536 68.4857 123.271C68.2857 123.007 68.1304 122.696 68.0196 122.339C67.9125 121.979 67.8589 121.587 67.8589 121.166ZM68.8554 121.054V121.166C68.8554 121.455 68.8839 121.727 68.9411 121.98C69.0018 122.234 69.0946 122.457 69.2196 122.65C69.3446 122.843 69.5036 122.995 69.6964 123.105C69.8893 123.212 70.1196 123.266 70.3875 123.266C70.7161 123.266 70.9857 123.196 71.1964 123.057C71.4107 122.918 71.5821 122.734 71.7107 122.505C71.8393 122.277 71.9393 122.029 72.0107 121.761V120.47C71.9679 120.273 71.9054 120.084 71.8232 119.902C71.7446 119.716 71.6411 119.552 71.5125 119.409C71.3875 119.262 71.2321 119.146 71.0464 119.061C70.8643 118.975 70.6482 118.932 70.3982 118.932C70.1268 118.932 69.8929 118.989 69.6964 119.104C69.5036 119.214 69.3446 119.368 69.2196 119.564C69.0946 119.757 69.0018 119.982 68.9411 120.239C68.8839 120.493 68.8554 120.764 68.8554 121.054ZM75.5464 118.204V124H74.55V118.204H75.5464ZM74.475 116.666C74.475 116.505 74.5232 116.37 74.6197 116.259C74.7197 116.148 74.8661 116.093 75.0589 116.093C75.2482 116.093 75.3929 116.148 75.4929 116.259C75.5964 116.37 75.6482 116.505 75.6482 116.666C75.6482 116.82 75.5964 116.952 75.4929 117.062C75.3929 117.17 75.2482 117.223 75.0589 117.223C74.8661 117.223 74.7197 117.17 74.6197 117.062C74.5232 116.952 74.475 116.82 74.475 116.666ZM79.7357 118.204V118.964H76.6018V118.204H79.7357ZM77.6625 116.795H78.6536V122.564C78.6536 122.761 78.6839 122.909 78.7447 123.009C78.8054 123.109 78.8839 123.175 78.9804 123.207C79.0768 123.239 79.1804 123.255 79.2911 123.255C79.3732 123.255 79.4589 123.248 79.5482 123.234C79.6411 123.216 79.7107 123.202 79.7572 123.191L79.7625 124C79.6839 124.025 79.5804 124.048 79.4518 124.07C79.3268 124.095 79.175 124.107 78.9964 124.107C78.7536 124.107 78.5304 124.059 78.3268 123.962C78.1232 123.866 77.9607 123.705 77.8393 123.48C77.7214 123.252 77.6625 122.945 77.6625 122.559V116.795ZM82.6982 123.4L84.3107 118.204H85.3714L83.0464 124.895C82.9929 125.038 82.9214 125.191 82.8322 125.355C82.7464 125.523 82.6357 125.682 82.5 125.832C82.3643 125.982 82.2 126.104 82.0072 126.196C81.8179 126.293 81.5911 126.341 81.3268 126.341C81.2482 126.341 81.1482 126.33 81.0268 126.309C80.9054 126.288 80.8197 126.27 80.7697 126.255L80.7643 125.452C80.7929 125.455 80.8375 125.459 80.8982 125.463C80.9625 125.47 81.0072 125.473 81.0322 125.473C81.2572 125.473 81.4482 125.443 81.6054 125.382C81.7625 125.325 81.8947 125.227 82.0018 125.088C82.1125 124.952 82.2072 124.764 82.2857 124.525L82.6982 123.4ZM81.5143 118.204L83.0197 122.704L83.2768 123.748L82.5643 124.113L80.4322 118.204H81.5143Z" fill="white" fill-opacity="0.7"/>
        <path d="M62.6412 137.872V139.029H56.3131L56.2649 138.155L60.0497 132.225H61.2129L59.9533 134.383L57.7776 137.872H62.6412ZM61.5443 132.225V141H60.0919V132.225H61.5443ZM69.4519 138.607C69.4519 139.154 69.3253 139.614 69.0722 139.987C68.8191 140.361 68.4735 140.644 68.0356 140.837C67.6017 141.026 67.1115 141.121 66.565 141.121C66.0186 141.121 65.5264 141.026 65.0885 140.837C64.6505 140.644 64.305 140.361 64.0519 139.987C63.7988 139.614 63.6722 139.154 63.6722 138.607C63.6722 138.246 63.7425 137.918 63.8831 137.625C64.0238 137.328 64.2226 137.073 64.4798 136.86C64.7409 136.643 65.0463 136.476 65.3958 136.359C65.7494 136.243 66.1351 136.185 66.553 136.185C67.1075 136.185 67.6037 136.287 68.0416 136.492C68.4796 136.697 68.8231 136.98 69.0722 137.342C69.3253 137.703 69.4519 138.125 69.4519 138.607ZM67.9934 138.535C67.9934 138.242 67.9331 137.985 67.8126 137.764C67.6921 137.543 67.5233 137.372 67.3063 137.251C67.0894 137.131 66.8383 137.071 66.553 137.071C66.2637 137.071 66.0126 137.131 65.7996 137.251C65.5867 137.372 65.42 137.543 65.2994 137.764C65.1829 137.985 65.1246 138.242 65.1246 138.535C65.1246 138.832 65.1829 139.09 65.2994 139.306C65.4159 139.519 65.5827 139.682 65.7996 139.795C66.0166 139.907 66.2717 139.963 66.565 139.963C66.8583 139.963 67.1115 139.907 67.3244 139.795C67.5374 139.682 67.7021 139.519 67.8186 139.306C67.9351 139.09 67.9934 138.832 67.9934 138.535ZM69.253 134.533C69.253 134.971 69.1365 135.361 68.9034 135.702C68.6744 136.044 68.357 136.313 67.9512 136.51C67.5454 136.703 67.0833 136.799 66.565 136.799C66.0427 136.799 65.5767 136.703 65.1668 136.51C64.761 136.313 64.4416 136.044 64.2086 135.702C63.9796 135.361 63.865 134.971 63.865 134.533C63.865 134.011 63.9796 133.571 64.2086 133.213C64.4416 132.852 64.761 132.577 65.1668 132.388C65.5726 132.199 66.0367 132.104 66.559 132.104C67.0813 132.104 67.5454 132.199 67.9512 132.388C68.357 132.577 68.6744 132.852 68.9034 133.213C69.1365 133.571 69.253 134.011 69.253 134.533ZM67.8005 134.581C67.8005 134.32 67.7483 134.091 67.6438 133.894C67.5434 133.694 67.4008 133.537 67.2159 133.424C67.0311 133.312 66.8121 133.256 66.559 133.256C66.3059 133.256 66.0869 133.31 65.9021 133.418C65.7173 133.527 65.5746 133.679 65.4742 133.876C65.3738 134.073 65.3235 134.308 65.3235 134.581C65.3235 134.851 65.3738 135.086 65.4742 135.287C65.5746 135.483 65.7173 135.638 65.9021 135.751C66.0909 135.863 66.3119 135.919 66.565 135.919C66.8182 135.919 67.0371 135.863 67.222 135.751C67.4068 135.638 67.5494 135.483 67.6499 135.287C67.7503 135.086 67.8005 134.851 67.8005 134.581Z" fill="white"/>
        <path d="M232 170L259.5 131.5" stroke="#1E1B39"/>
        <path d="M119 157L82.5 141.5" stroke="#1E1B39"/>
        <circle cx="232" cy="170" r="4" fill="#1E1B39"/>
        <circle cx="119" cy="157" r="4" fill="#1E1B39"/>
    </g>
    <defs>
        <filter id="filter0_dd_10565_821" x="0" y="0" width="347" height="322" filterUnits="userSpaceOnUse" color-interpolation-filters="sRGB">
            <feFlood flood-opacity="0" result="BackgroundImageFix"/>
            <feColorMatrix in="SourceAlpha" type="matrix" values="0 0 0 0 0 0 0 0 0 0 0 0 0 0 0 0 0 0 127 0" result="hardAlpha"/>
            <feOffset dy="4"/>
            <feGaussianBlur stdDeviation="4"/>
            <feComposite in2="hardAlpha" operator="out"/>
            <feColorMatrix type="matrix" values="0 0 0 0 0 0 0 0 0 0 0 0 0 0 0 0 0 0 0.06 0"/>
            <feBlend mode="normal" in2="BackgroundImageFix" result="effect1_dropShadow_10565_821"/>
            <feColorMatrix in="SourceAlpha" type="matrix" values="0 0 0 0 0 0 0 0 0 0 0 0 0 0 0 0 0 0 127 0" result="hardAlpha"/>
            <feOffset dy="1"/>
            <feGaussianBlur stdDeviation="2"/>
            <feComposite in2="hardAlpha" operator="out"/>
            <feColorMatrix type="matrix" values="0 0 0 0 0 0 0 0 0 0 0 0 0 0 0 0 0 0 0.06 0"/>
            <feBlend mode="normal" in2="effect1_dropShadow_10565_821" result="effect2_dropShadow_10565_821"/>
            <feBlend mode="normal" in="SourceGraphic" in2="effect2_dropShadow_10565_821" result="shape"/>
        </filter>
    </defs>
</svg>
