<svg width="24" height="25" viewBox="0 0 24 25" fill="none" xmlns="http://www.w3.org/2000/svg">
    <path d="M12 2.74805C10.6868 2.74805 9.38642 3.0067 8.17317 3.50925C6.95991 4.0118 5.85752 4.74839 4.92893 5.67698C3.05357 7.55234 2 10.0959 2 12.748C2 15.4002 3.05357 17.9438 4.92893 19.8191C5.85752 20.7477 6.95991 21.4843 8.17317 21.9868C9.38642 22.4894 10.6868 22.748 12 22.748C14.6522 22.748 17.1957 21.6945 19.0711 19.8191C20.9464 17.9438 22 15.4002 22 12.748C22 11.588 21.79 10.438 21.39 9.35805L19.79 10.958C19.93 11.548 20 12.148 20 12.748C20 14.8698 19.1571 16.9046 17.6569 18.4049C16.1566 19.9052 14.1217 20.748 12 20.748C9.87827 20.748 7.84344 19.9052 6.34315 18.4049C4.84285 16.9046 4 14.8698 4 12.748C4 10.6263 4.84285 8.59148 6.34315 7.09119C7.84344 5.5909 9.87827 4.74805 12 4.74805C12.6 4.74805 13.2 4.81805 13.79 4.95805L15.4 3.34805C14.31 2.95805 13.16 2.74805 12 2.74805ZM19 2.74805L15 6.74805V8.24805L12.45 10.798C12.3 10.748 12.15 10.748 12 10.748C11.4696 10.748 10.9609 10.9588 10.5858 11.3338C10.2107 11.7089 10 12.2176 10 12.748C10 13.2785 10.2107 13.7872 10.5858 14.1623C10.9609 14.5373 11.4696 14.748 12 14.748C12.5304 14.748 13.0391 14.5373 13.4142 14.1623C13.7893 13.7872 14 13.2785 14 12.748C14 12.598 14 12.448 13.95 12.298L16.5 9.74805H18L22 5.74805H19V2.74805ZM12 6.74805C10.4087 6.74805 8.88258 7.38019 7.75736 8.50541C6.63214 9.63062 6 11.1567 6 12.748C6 14.3393 6.63214 15.8655 7.75736 16.9907C8.88258 18.1159 10.4087 18.748 12 18.748C13.5913 18.748 15.1174 18.1159 16.2426 16.9907C17.3679 15.8655 18 14.3393 18 12.748H16C16 13.8089 15.5786 14.8263 14.8284 15.5765C14.0783 16.3266 13.0609 16.748 12 16.748C10.9391 16.748 9.92172 16.3266 9.17157 15.5765C8.42143 14.8263 8 13.8089 8 12.748C8 11.6872 8.42143 10.6698 9.17157 9.91962C9.92172 9.16947 10.9391 8.74805 12 8.74805V6.74805Z" fill="#2A7DEC"/>
</svg>
