<svg width="92" height="92" fill="none" xmlns="http://www.w3.org/2000/svg"><g filter="url(#b)" clip-path="url(#a)"><rect x="16" y="67" width="60" height="4" rx="2" fill="#305680"/><path d="M70 61H58V29h12v32ZM39 43a2 2 0 0 1 2-2h7a2 2 0 0 1 2 2v18H39V43ZM20 53a2 2 0 0 1 2-2h7a2 2 0 0 1 2 2v8H20v-8Z" fill="#2A7DEC"/><path d="M65 21.348a1.61 1.61 0 0 0-2 0l-8.33 6.522c-1.281 1.002-.602 3.13 1 3.13h16.66c1.602 0 2.281-2.128 1-3.13L65 21.348Z" fill="#2A7DEC"/></g><rect x=".75" y=".75" width="90.5" height="90.5" rx="23.25" stroke="#3E9AF8" stroke-width="1.5"/><defs><clipPath id="a"><rect width="92" height="92" rx="24" fill="#fff"/></clipPath><filter id="b" x="-4" y="6" width="100" height="100" filterUnits="userSpaceOnUse" color-interpolation-filters="sRGB"><feFlood flood-opacity="0" result="BackgroundImageFix"/><feColorMatrix in="SourceAlpha" values="0 0 0 0 0 0 0 0 0 0 0 0 0 0 0 0 0 0 127 0" result="hardAlpha"/><feOffset dy="10"/><feGaussianBlur stdDeviation="10"/><feColorMatrix values="0 0 0 0 0 0 0 0 0 0 0 0 0 0 0 0 0 0 0.1 0"/><feBlend in2="BackgroundImageFix" result="effect1_dropShadow_10346_26503"/><feBlend in="SourceGraphic" in2="effect1_dropShadow_10346_26503" result="shape"/></filter></defs></svg>