<svg width="98" height="92" viewBox="0 0 92 92" fill="none" xmlns="http://www.w3.org/2000/svg"><path d="M2.75 24C2.75 11.16 13.16.75 26 .75h44C82.84.75 93.25 11.16 93.25 24v44c0 12.84-10.41 23.25-23.25 23.25H26C13.16 91.25 2.75 80.84 2.75 68V24Z" stroke="#3E9AF8" stroke-width="1.5"/><g filter="url(#a)"><mask id="b" maskUnits="userSpaceOnUse" x="20" y="17.447" width="56" height="57" fill="#000"><path fill="#fff" d="M20 17.447h56v57H20z"/><path fill-rule="evenodd" clip-rule="evenodd" d="M49.932 26.094c.83.08 1.65-.299 2.067-1.02l.938-1.626a2 2 0 0 1 2.733-.733l8.66 5a2 2 0 0 1 .732 2.733l-.938 1.625c-.418.723-.334 1.624.152 2.303a19.97 19.97 0 0 1 1.933 3.342c.346.76 1.084 1.282 1.919 1.282H70a2 2 0 0 1 2 2v10a2 2 0 0 1-2 2h-1.87c-.835 0-1.573.522-1.92 1.282a19.97 19.97 0 0 1-1.933 3.344c-.486.68-.57 1.58-.152 2.303l.937 1.624a2 2 0 0 1-.732 2.732l-8.66 5a2 2 0 0 1-2.733-.732l-.936-1.623c-.417-.722-1.238-1.1-2.068-1.02a20.252 20.252 0 0 1-3.867 0c-.83-.08-1.65.298-2.067 1.02l-.937 1.623a2 2 0 0 1-2.732.732l-8.66-5a2 2 0 0 1-.733-2.732l.938-1.624c.418-.723.334-1.624-.152-2.303a19.972 19.972 0 0 1-1.934-3.344c-.346-.76-1.084-1.282-1.918-1.282H26a2 2 0 0 1-2-2V41a2 2 0 0 1 2-2h1.872c.835 0 1.573-.523 1.919-1.282a19.982 19.982 0 0 1 1.933-3.342c.486-.679.57-1.58.152-2.303l-.939-1.625a2 2 0 0 1 .732-2.732l8.66-5a2 2 0 0 1 2.733.732L44 25.073c.417.722 1.238 1.1 2.068 1.02a20.268 20.268 0 0 1 3.864 0Z"/></mask><path d="m44 25.073-3.464 2 3.464-2Zm2.068 1.02-.382-3.981.382 3.982Zm-14.344 8.283 3.253 2.328-3.253-2.328Zm.152-2.303-3.464 2 3.464-2Zm-2.085 5.645-3.64-1.659 3.64 1.659Zm-.002 16.564-3.64 1.658 3.64-1.658Zm2.086 5.647 3.464 2-3.464-2Zm-.152-2.303 3.253-2.328-3.253 2.328Zm-.785 3.927-3.465-2 3.465 2Zm15.128 4.356.382-3.981-.382 3.981ZM44 66.93l3.464 2-3.464-2Zm8.002 0-3.465 2 3.465-2Zm-2.068-1.02.382 3.982-.382-3.982Zm5.736 3.376 2 3.464-2-3.464Zm-2.731-.732-3.465 2 3.465-2Zm12.124-7-3.464 2 3.464-2Zm-.785-3.927 3.253 2.328-3.253-2.328Zm1.934-3.344-3.64-1.658 3.64 1.658Zm-.002-16.564 3.64-1.659-3.64 1.659Zm-2.085-5.645 3.464 2-3.464-2Zm.152 2.303-3.253 2.328 3.253-2.328Zm.054-6.66-2 3.464 2-3.465Zm.732 2.732-3.464-2 3.464 2Zm-13.063-5.375-3.464-2 3.464 2Zm-11.67-2.357-2-3.465 2 3.465Zm2.733.732 3.464-2-3.464 2Zm9.876 0 3.464 2-3.465-2Zm2.731-.733 2-3.464-2 3.464Zm-6.196-1.267-.938 1.625 6.928 4 .939-1.625-6.929-4ZM66.33 24.25l-8.66-5-4 6.929 8.66 5 4-6.929Zm1.258 9.822.938-1.625-6.928-4-.938 1.625 6.928 4Zm-6.565 2.63c.598.836 1.117 1.73 1.546 2.673l7.28-3.317a23.983 23.983 0 0 0-2.32-4.011l-6.506 4.655ZM70 35h-1.872v8H70v-8Zm6 16V41h-8v10h8Zm-7.87 6H70v-8h-1.87v8Zm-5.56-4.376c-.43.943-.948 1.838-1.547 2.675l6.507 4.655a23.98 23.98 0 0 0 2.321-4.014l-7.28-3.316Zm5.956 6.929-.937-1.624-6.929 4 .938 1.624 6.928-4ZM57.67 72.749l8.66-5-4-6.928-8.66 5 4 6.928Zm-9.134-3.82.937 1.624 6.929-4-.937-1.623-6.929 4Zm1.015-7.001c-.509.049-1.026.074-1.551.074v8c.78 0 1.552-.038 2.315-.111l-.764-7.963ZM48 62.002c-.525 0-1.042-.026-1.552-.074l-.764 7.963c.763.073 1.536.11 2.316.11v-8Zm-7.465 2.928-.937 1.623 6.928 4 .937-1.623-6.928-4Zm1.795.89-8.66-5-4 6.929 8.66 5 4-6.928Zm-7.928-2.267.937-1.624-6.928-4-.938 1.624 6.929 4Zm.574-8.255a15.988 15.988 0 0 1-1.547-2.674l-7.28 3.316a23.978 23.978 0 0 0 2.32 4.013l6.507-4.655ZM27.871 49H26v8h1.87v-8ZM28 51V41h-8v10h8Zm-2-8h1.872v-8H26v8Zm7.43-3.624c.43-.942.949-1.837 1.547-2.672l-6.506-4.655a23.99 23.99 0 0 0-2.32 4.01l7.28 3.317Zm-5.957-6.928.939 1.625 6.928-4-.938-1.625-6.929 4ZM38.33 19.25l-8.66 5 4 6.929 8.66-5-4-6.929Zm9.135 3.822-.939-1.625-6.928 4 .938 1.625 6.928-4Zm-1.016 7.003c.51-.05 1.027-.074 1.551-.074v-8c-.78 0-1.552.037-2.314.11l.763 7.964ZM48 30.002c.524 0 1.041.025 1.55.073l.764-7.963a24.236 24.236 0 0 0-2.314-.11v8Zm-7.464-2.929c1.277 2.212 3.683 3.216 5.913 3.003l-.763-7.964c.57-.055 1.335.193 1.779.961l-6.929 4Zm-6.134 1.375a2 2 0 0 1-.733 2.732l-4-6.928a6 6 0 0 0-2.196 8.196l6.929-4Zm.575 8.256c1.306-1.825 1.642-4.415.363-6.63l-6.928 4c-.444-.77-.275-1.558.059-2.025l6.506 4.655ZM27.872 43c2.558 0 4.63-1.585 5.559-3.624l-7.28-3.317c.237-.52.833-1.06 1.721-1.06v8ZM28 41a2 2 0 0 1-2 2v-8a6 6 0 0 0-6 6h8Zm-2 8a2 2 0 0 1 2 2h-8a6 6 0 0 0 6 6v-8Zm7.43 3.624C32.5 50.584 30.427 49 27.87 49v8c-.888 0-1.484-.54-1.721-1.06l7.28-3.316Zm1.91 9.305c1.278-2.216.942-4.806-.364-6.63l-6.506 4.654c-.334-.467-.503-1.255-.059-2.024l6.928 4Zm-1.67-1.108a2 2 0 0 1 .732 2.732l-6.929-4a6 6 0 0 0 2.197 8.196l4-6.928Zm5.928 5.732a2 2 0 0 1 2.732-.732l-4 6.928a6 6 0 0 0 8.196-2.196l-6.928-4Zm6.85-4.625c-2.23-.214-4.636.79-5.913 3.002l6.928 4c-.443.768-1.209 1.016-1.779.961l.764-7.963Zm9.017 3.002c-1.278-2.212-3.683-3.216-5.914-3.002l.764 7.963c-.57.055-1.335-.193-1.779-.961l6.929-4Zm-1.796.89a2 2 0 0 1 2.733.733l-6.929 4a6 6 0 0 0 8.197 2.196l-4-6.928Zm7.929-2.267a2 2 0 0 1 .732-2.732l4 6.928a6 6 0 0 0 2.196-8.196l-6.928 4Zm-.575-8.254c-1.305 1.825-1.642 4.415-.363 6.63l6.929-4c.444.77.275 1.558-.06 2.025l-6.505-4.655Zm7.106-6.3c-2.557 0-4.63 1.586-5.558 3.625l7.28 3.316c-.237.52-.833 1.06-1.722 1.06v-8ZM68 51a2 2 0 0 1 2-2v8a6 6 0 0 0 6-6h-8Zm2-8a2 2 0 0 1-2-2h8a6 6 0 0 0-6-6v8Zm-7.43-3.623c.928 2.039 3 3.624 5.558 3.624v-8c.888 0 1.484.54 1.721 1.06l-7.28 3.316Zm-1.91-9.303c-1.28 2.215-.943 4.805.363 6.63l6.506-4.655c.334.467.503 1.255.059 2.025l-6.928-4Zm1.67 1.107a2 2 0 0 1-.732-2.732l6.928 4a6 6 0 0 0-2.196-8.197l-4 6.929Zm-13.795-8.107c.443-.768 1.208-1.016 1.779-.961l-.764 7.963c2.23.214 4.636-.79 5.913-3.002l-6.928-4ZM42.33 26.18a2 2 0 0 1-2.732-.732l6.928-4a6 6 0 0 0-8.196-2.197l4 6.929Zm14.072-.732a2 2 0 0 1-2.733.732l4-6.929a6 6 0 0 0-8.196 2.197l6.929 4Z" fill="#305680" mask="url(#b)"/><path fill-rule="evenodd" clip-rule="evenodd" d="M48 60.002c7.732 0 14-6.268 14-14s-6.268-14-14-14-14 6.268-14 14 6.268 14 14 14Zm0-8a6 6 0 1 0 0-12 6 6 0 0 0 0 12Z" fill="#2A7DEC"/></g><defs><filter id="a" x="-2" y="6" width="100" height="100" filterUnits="userSpaceOnUse" color-interpolation-filters="sRGB"><feFlood flood-opacity="0" result="BackgroundImageFix"/><feColorMatrix in="SourceAlpha" values="0 0 0 0 0 0 0 0 0 0 0 0 0 0 0 0 0 0 127 0" result="hardAlpha"/><feOffset dy="10"/><feGaussianBlur stdDeviation="10"/><feColorMatrix values="0 0 0 0 0 0 0 0 0 0 0 0 0 0 0 0 0 0 0.1 0"/><feBlend in2="BackgroundImageFix" result="effect1_dropShadow_10346_26544"/><feBlend in="SourceGraphic" in2="effect1_dropShadow_10346_26544" result="shape"/></filter></defs></svg>