<svg width="261" height="322" fill="none" xmlns="http://www.w3.org/2000/svg"><path d="M64.25 214c0-51.501 41.749-93.25 93.25-93.25s93.25 41.749 93.25 93.25-41.749 93.25-93.25 93.25S64.25 265.501 64.25 214Z" stroke="#91A3BE" stroke-width="1.5"/><path fill-rule="evenodd" clip-rule="evenodd" d="M144.718 169.731a2.155 2.155 0 0 1 2.735 1.343c1.473 4.316.65 7.582-.031 10.026-.716 2.565-.927 3.463-.204 4.572a2.154 2.154 0 0 1-3.608 2.354c-1.84-2.821-1.049-5.59-.459-7.657l.121-.426c.62-2.224 1.143-4.433.103-7.477a2.155 2.155 0 0 1 1.343-2.735ZM152.874 169.731a2.155 2.155 0 0 1 2.735 1.343c1.474 4.316.651 7.538-.034 9.947-.714 2.509-.922 3.366-.2 4.472a2.154 2.154 0 1 1-3.609 2.353c-1.842-2.824-1.048-5.553-.456-7.586l.121-.418c.617-2.169 1.14-4.332.101-7.376a2.154 2.154 0 0 1 1.342-2.735Z" fill="#305680"/><path fill-rule="evenodd" clip-rule="evenodd" d="M172.444 184.515c0-1.189.965-2.154 2.155-2.154h15.617c1.19 0 2.154.965 2.154 2.154v25.491a2.154 2.154 0 1 1-4.308 0V186.67h-11.309v34.466h19.207c1.19 0 2.155.964 2.155 2.154v30.786h3.231a2.154 2.154 0 0 1 0 4.309h-87.692a2.154 2.154 0 0 1 0-4.309h2.573c2.888-5.457 6.892-14.324 10.149-24.417 3.497-10.838 6.077-22.921 5.591-33.647a2.153 2.153 0 0 1 2.152-2.252h28.721c1.163 0 2.116.923 2.153 2.084.195 5.979 1.098 15.38 3.147 25.292h4.304v-36.621Zm-3.345 40.929c2.587 10.83 6.534 21.512 12.257 28.632h12.45v-19.477h-15.617a2.154 2.154 0 1 1 0-4.308h15.617v-4.847h-24.707Zm6.906 28.632c-5.688-8.355-9.38-19.667-11.713-30.325-2.128-9.72-3.172-19.117-3.515-25.682h-24.446c.098 10.849-2.519 22.574-5.855 32.913-2.965 9.187-6.535 17.396-9.402 23.094h54.931Z" fill="#305680"/><path fill-rule="evenodd" clip-rule="evenodd" d="M150.247 203.089a2.154 2.154 0 0 1 1.555 2.069v11.848h8.078a2.154 2.154 0 0 1 1.798 3.34l-14.271 21.632a2.154 2.154 0 0 1-3.952-1.187v-10.358l-8.385-.143a2.157 2.157 0 0 1-1.859-1.131 2.157 2.157 0 0 1 .076-2.175l14.54-22.978a2.155 2.155 0 0 1 2.42-.917Zm-11.269 22.958 6.668.114a2.155 2.155 0 0 1 2.117 2.154v5.3l8.115-12.301h-6.23a2.154 2.154 0 0 1-2.154-2.154v-6.569l-8.516 13.456Z" fill="#305680"/><path d="M192.371 216.648a2.154 2.154 0 1 1-4.308 0 2.154 2.154 0 0 1 4.308 0Z" fill="#305680"/><path d="M0 212h43M150.75 24v80" stroke="#91A3BE" stroke-width="1.5"/><path d="M42 212.741a109.495 109.495 0 0 1 67.374-101.313A109.506 109.506 0 0 1 151.259 103l.003 1.586a107.929 107.929 0 0 0-76.236 31.776 107.9 107.9 0 0 0-31.44 76.376l-1.586.003Z" fill="#91A3BE"/><circle cx="151" cy="12" r="11.25" fill="#F4F8FE" stroke="#91A3BE" stroke-width="1.5"/></svg>