<svg width="344" height="290" fill="none" xmlns="http://www.w3.org/2000/svg"><rect x="184.75" y="40.156" width="158.5" height="158.5" rx="39.25" fill="#fff" stroke="#3E9AF8" stroke-width="1.5"/><path d="M244.697 176.422a2.42 2.42 0 0 1-2.42-2.42v-7.865a2.42 2.42 0 0 1 2.42-2.42h38.115a2.42 2.42 0 0 1 2.42 2.42v7.865a2.42 2.42 0 0 1-2.42 2.42h-38.115ZM248.928 163.717s-3.842-13.11-5.142-21.78c-1.264-8.425-1.513-13.261-1.513-21.78 0-8.519.249-13.356 1.513-21.78 1.3-8.67 5.142-21.78 5.142-21.78h29.645s3.54 13.11 4.84 21.78c1.264 8.424 1.757 13.261 1.815 21.78.059 8.513-.256 13.36-1.512 21.78-1.298 8.7-5.143 21.78-5.143 21.78h-29.645ZM244.697 76.597a2.42 2.42 0 0 1-2.42-2.42v-7.865a2.42 2.42 0 0 1 2.42-2.42h38.115a2.42 2.42 0 0 1 2.42 2.42v7.865a2.42 2.42 0 0 1-2.42 2.42h-38.115Z" fill="#1C943E"/><rect x="249.079" y="63.437" width="3.328" height="29.343" rx="1.664" transform="rotate(-90 249.079 63.437)" fill="#D9D9D9" stroke="#727171" stroke-width=".907"/><rect x="242.273" y="76.596" width="12.705" height="42.955" rx="2.42" transform="rotate(-90 242.273 76.596)" fill="url(#a)"/><rect x="242.727" y="76.142" width="11.797" height="42.047" rx="1.966" transform="rotate(-90 242.727 76.142)" stroke="#000" stroke-opacity=".12" stroke-width=".907"/><path d="M248.927 163.717s-3.841-13.11-5.141-21.78c-1.264-8.425-1.513-13.261-1.513-21.78 0-8.519.249-13.356 1.513-21.78 1.3-8.67 5.141-21.78 5.141-21.78h29.641s3.539 13.11 4.839 21.78c1.263 8.424 1.756 13.261 1.815 21.78.059 8.513-.257 13.36-1.513 21.78-1.297 8.7-5.141 21.78-5.141 21.78h-29.641Z" fill="url(#b)"/><path d="m249.196 77.302.072-.252h28.951l.065.243a344.597 344.597 0 0 1 1.775 7.048c1.046 4.36 2.252 9.788 2.899 14.103 1.261 8.409 1.751 13.224 1.81 21.716.059 8.491-.255 13.314-1.507 21.71-.645 4.326-1.926 9.752-3.048 14.106a285.125 285.125 0 0 1-1.986 7.287h-28.959a276.903 276.903 0 0 1-1.984-7.298c-1.123-4.358-2.403-9.785-3.05-14.095-1.259-8.398-1.507-13.212-1.507-21.713 0-8.502.248-13.315 1.507-21.713.647-4.31 1.927-9.737 3.05-14.096a282.124 282.124 0 0 1 1.912-7.046Z" stroke="#000" stroke-opacity=".12" stroke-width=".907"/><rect x="242.273" y="176.422" width="12.705" height="42.955" rx="2.42" transform="rotate(-90 242.273 176.422)" fill="url(#c)"/><rect x="242.727" y="175.968" width="11.797" height="42.047" rx="1.966" transform="rotate(-90 242.727 175.968)" stroke="#000" stroke-opacity=".12" stroke-width=".907"/><rect x="249.079" y="180.202" width="3.328" height="29.343" rx="1.664" transform="rotate(-90 249.079 180.202)" fill="#D9D9D9" stroke="#727171" stroke-width=".907"/><path d="M294 120.156c0 16.707-13.543 30.25-30.25 30.25s-30.25-13.543-30.25-30.25c0-16.706 13.543-30.25 30.25-30.25S294 103.45 294 120.156Zm-52.941 0c0 12.532 10.159 22.691 22.691 22.691 12.532 0 22.691-10.159 22.691-22.691 0-12.532-10.159-22.69-22.691-22.69-12.532 0-22.691 10.158-22.691 22.69Z" fill="url(#d)"/><path d="M261.973 112.594a.946.946 0 0 1-.946-.946V97.544c0-1.044.847-1.89 1.891-1.89h1.664a1.89 1.89 0 0 1 1.89 1.89v14.104a.945.945 0 0 1-.945.946h-3.554Z" fill="url(#e)"/><path d="M270.702 116.804a.946.946 0 0 1 .549-1.219l13.187-5.002a1.892 1.892 0 0 1 2.439 1.097l.67 1.768a1.89 1.89 0 0 1-1.097 2.438l-13.188 5.002a.946.946 0 0 1-1.219-.549l-1.341-3.535Z" fill="url(#f)"/><path d="M260.836 127.886a.946.946 0 0 1 .175 1.325l-8.58 11.195a1.889 1.889 0 0 1-2.65.35l-1.501-1.15a1.889 1.889 0 0 1-.35-2.65l8.579-11.195a.945.945 0 0 1 1.325-.175l3.002 2.3Z" fill="url(#g)"/><path d="M267.336 127.886a.945.945 0 0 0-.175 1.325l8.579 11.195a1.89 1.89 0 0 0 2.651.35l1.501-1.15a1.89 1.89 0 0 0 .35-2.65l-8.579-11.195a.946.946 0 0 0-1.326-.175l-3.001 2.3Z" fill="url(#h)"/><path d="M255.718 119.393a.945.945 0 0 1-1.18.627l-13.485-4.134a1.89 1.89 0 0 1-1.254-2.361l.554-1.808a1.892 1.892 0 0 1 2.362-1.254l13.485 4.134c.499.153.78.682.627 1.181l-1.109 3.615Z" fill="url(#i)"/><g filter="url(#j)"><circle cx="263.751" cy="120.157" r="9.075" fill="#D9D9D9"/></g><path d="M270.708 120.157a6.958 6.958 0 1 1-13.915-.001 6.958 6.958 0 0 1 13.915.001Z" fill="#000" fill-opacity=".05"/><g filter="url(#k)"><path d="M270.708 120.157a6.958 6.958 0 1 1-13.915-.001 6.958 6.958 0 0 1 13.915.001Z" fill="#1C943E"/></g><path d="M270.405 120.157a6.655 6.655 0 1 1-13.31 0 6.655 6.655 0 0 1 13.31 0Z" stroke="#fff" stroke-width=".605"/><path fill-rule="evenodd" clip-rule="evenodd" d="M262.926 117.317c0-.196-.185-.34-.368-.27a3.33 3.33 0 0 0 1.191 6.436 3.328 3.328 0 0 0 1.288-6.397c-.185-.078-.377.067-.377.267 0 .127.082.24.199.292a2.743 2.743 0 1 1-2.14-.034.322.322 0 0 0 .207-.294Z" fill="#fff"/><path d="M263.602 116.415a.192.192 0 0 1 .385 0v3.147a.193.193 0 1 1-.385 0v-3.147Z" fill="#fff"/><rect x="87.75" y="130.156" width="158.5" height="158.5" rx="39.25" fill="#fff" stroke="#3E9AF8" stroke-width="1.5"/><rect x="107.9" y="180.056" width="6.6" height="58.2" rx="3.3" fill="#D9D9D9" stroke="#727171" stroke-width="1.8"/><path d="M115.398 187.002s15.529-3.342 25.8-5.285c9.979-1.888 15.709-2.26 25.8-2.26 10.09 0 15.82.372 25.799 2.26 10.271 1.943 25.8 5.285 25.8 5.285v44.299s-15.529 2.89-25.8 4.833c-9.979 1.888-15.709 2.624-25.799 2.712-10.084.088-15.826-.384-25.8-2.26-10.306-1.939-25.8-5.285-25.8-5.285v-44.299Z" fill="#1C943E"/><path d="M115.398 187.002s15.529-3.342 25.8-5.285c9.979-1.888 15.709-2.26 25.8-2.26 10.09 0 15.82.372 25.799 2.26 10.271 1.943 25.8 5.285 25.8 5.285v44.299s-15.529 2.89-25.8 4.833c-9.979 1.888-15.709 2.624-25.799 2.712-10.084.088-15.826-.384-25.8-2.26-10.306-1.939-25.8-5.285-25.8-5.285v-44.299Z" fill="url(#l)"/><path d="m215.823 187.33 1.874.399v42.824l-1.852.345-6.462 1.206c-5.166.965-11.617 2.174-16.753 3.146-9.941 1.88-15.616 2.609-25.64 2.696-10.028.088-15.712-.379-25.626-2.245-5.143-.967-11.586-2.287-16.747-3.365a1823.46 1823.46 0 0 1-8.319-1.762v-42.845l1.874-.399c1.616-.344 3.877-.822 6.459-1.361 5.165-1.078 11.608-2.398 16.734-3.367 9.913-1.876 15.585-2.245 25.633-2.245 10.047 0 15.719.369 25.632 2.245 5.127.969 11.57 2.289 16.735 3.367 2.581.539 4.842 1.017 6.458 1.361Z" stroke="#000" stroke-opacity=".12" stroke-width="1.8"/><rect x="219.498" y="180.056" width="6.6" height="58.2" rx="3.3" fill="#D9D9D9" stroke="#727171" stroke-width="1.8"/><g filter="url(#m)"><g filter="url(#n)"><path d="M167 197.264s12.743 4.725 27.3 4.8c8.519.043 16.996-.632 23.184-1.292 5.01-.534 9.516 3.349 9.516 8.387 0 5.039-4.506 8.922-9.516 8.388-6.188-.661-14.665-1.336-23.184-1.292-14.557.074-27.3 4.8-27.3 4.8v-23.791Z" fill="url(#o)"/><path d="M167.3 220.63v-22.941l.179.062c.379.13.936.316 1.65.539a91.063 91.063 0 0 0 5.993 1.638c5.019 1.194 11.868 2.398 19.176 2.436 8.535.043 17.024-.633 23.218-1.294 4.84-.516 9.184 3.237 9.184 8.089 0 4.853-4.344 8.606-9.184 8.089-6.194-.66-14.683-1.337-23.218-1.293-7.308.037-14.157 1.242-19.176 2.436a90.436 90.436 0 0 0-5.993 1.638 62.85 62.85 0 0 0-1.829.601Z" stroke="#000" stroke-opacity=".12" stroke-width=".6"/></g><g filter="url(#p)"><circle cx="167.001" cy="209.157" r="16.2" fill="#D9D9D9"/></g><path d="M180.803 209.157c0 7.622-6.178 13.8-13.8 13.8-7.621 0-13.8-6.178-13.8-13.8 0-7.621 6.179-13.8 13.8-13.8 7.622 0 13.8 6.179 13.8 13.8Z" fill="#000" fill-opacity=".05"/></g><g filter="url(#q)"><path d="M180.799 209.157c0 7.622-6.178 13.8-13.8 13.8-7.621 0-13.8-6.178-13.8-13.8 0-7.621 6.179-13.8 13.8-13.8 7.622 0 13.8 6.179 13.8 13.8Z" fill="#1C943E"/></g><path d="M180.199 209.157c0 7.291-5.91 13.2-13.2 13.2-7.29 0-13.2-5.909-13.2-13.2 0-7.29 5.91-13.2 13.2-13.2 7.29 0 13.2 5.91 13.2 13.2Z" stroke="#fff" stroke-width="1.2"/><path fill-rule="evenodd" clip-rule="evenodd" d="M165.367 203.529c0-.389-.367-.673-.729-.534a6.6 6.6 0 1 0 4.916.078c-.366-.154-.746.133-.746.529a.64.64 0 0 0 .393.579 5.444 5.444 0 0 1-2.203 10.422 5.445 5.445 0 0 1-2.042-10.49.639.639 0 0 0 .411-.584Z" fill="#fff"/><path d="M166.707 201.738a.383.383 0 1 1 .765 0v6.241a.383.383 0 0 1-.765 0v-6.241Z" fill="#fff"/><rect x=".75" y="1.344" width="158.5" height="158.5" rx="39.25" fill="#fff" stroke="#3E9AF8" stroke-width="1.5"/><mask id="r" fill="#fff"><path d="M118.4 80.843c0 27.172-22.028 49.2-49.2 49.2-27.172 0-49.2-22.028-49.2-49.2 0-27.173 22.028-49.2 49.2-49.2 27.172 0 49.2 22.027 49.2 49.2Zm-92.498 0c0 23.912 19.385 43.298 43.298 43.298s43.298-19.386 43.298-43.298c0-23.913-19.385-43.299-43.298-43.299S25.902 56.93 25.902 80.843Z"/></mask><path d="M118.4 80.843c0 27.172-22.028 49.2-49.2 49.2-27.172 0-49.2-22.028-49.2-49.2 0-27.173 22.028-49.2 49.2-49.2 27.172 0 49.2 22.027 49.2 49.2Zm-92.498 0c0 23.912 19.385 43.298 43.298 43.298s43.298-19.386 43.298-43.298c0-23.913-19.385-43.299-43.298-43.299S25.902 56.93 25.902 80.843Z" fill="#1C943E" stroke="#727171" stroke-width="3.6" mask="url(#r)"/><circle cx="69.198" cy="80.843" r="43.296" fill="#fff"/><path d="m54.292 104.803 1.189-4.63h.623l-.07 1.193-1.27 4.779h-.649l.177-1.342Zm-.89-4.63.963 4.593.087 1.379h-.69l-1.382-5.972h1.021Zm4.052 4.581.951-4.581h1.026l-1.382 5.972h-.69l.095-1.391Zm-1.108-4.581 1.178 4.643.172 1.329h-.648l-1.251-4.779-.066-1.193h.615Zm6.25 5.081v-2.116a.907.907 0 0 0-.086-.41.605.605 0 0 0-.263-.267.897.897 0 0 0-.435-.094.98.98 0 0 0-.418.082.68.68 0 0 0-.275.222.531.531 0 0 0-.098.315h-.985c0-.175.043-.344.127-.508.085-.164.208-.311.37-.439.16-.129.354-.23.578-.304a2.43 2.43 0 0 1 .755-.11 2.2 2.2 0 0 1 .885.168c.26.112.464.281.612.508.15.225.225.506.225.845v1.973c0 .202.014.384.041.546.03.158.073.296.127.414v.066h-1.013a1.754 1.754 0 0 1-.11-.407 3.308 3.308 0 0 1-.037-.484Zm.143-1.808.008.611h-.71c-.182 0-.344.018-.483.053a.99.99 0 0 0-.349.148.636.636 0 0 0-.279.554c0 .117.028.225.082.324a.58.58 0 0 0 .238.225.832.832 0 0 0 .386.082 1.088 1.088 0 0 0 .89-.43.675.675 0 0 0 .14-.349l.32.439a1.511 1.511 0 0 1-.169.361 1.77 1.77 0 0 1-.312.369 1.548 1.548 0 0 1-1.062.394c-.29 0-.548-.058-.775-.173a1.38 1.38 0 0 1-.534-.471 1.226 1.226 0 0 1-.192-.677c0-.235.043-.443.131-.624.09-.183.221-.336.394-.459a1.91 1.91 0 0 1 .64-.279c.251-.065.538-.098.86-.098h.776Zm4.055-1.739v.722h-2.502v-.722h2.502Zm-1.78-1.087h.988v4.298a.7.7 0 0 0 .058.316.31.31 0 0 0 .168.144.783.783 0 0 0 .25.036 2.021 2.021 0 0 0 .349-.036l.004.754a2.412 2.412 0 0 1-.287.066c-.107.019-.23.029-.37.029-.226 0-.427-.04-.602-.119a.89.89 0 0 1-.41-.398c-.099-.183-.148-.427-.148-.73v-4.36Zm4.637 5.607a2.38 2.38 0 0 1-.89-.16 1.977 1.977 0 0 1-.673-.456 2.013 2.013 0 0 1-.422-.685 2.395 2.395 0 0 1-.148-.849v-.164c0-.347.05-.661.152-.943.101-.282.242-.522.422-.722.181-.202.394-.357.64-.463.246-.107.513-.16.8-.16.317 0 .595.053.833.16.238.106.434.257.59.451.159.191.277.419.353.685.08.265.12.558.12.877v.423h-3.43v-.71h2.453v-.078a1.391 1.391 0 0 0-.107-.5.845.845 0 0 0-.291-.377c-.131-.096-.306-.144-.525-.144a.865.865 0 0 0-.755.406c-.084.131-.15.29-.197.476a2.67 2.67 0 0 0-.065.619v.164c0 .194.026.375.078.542.055.164.134.307.238.43.104.123.23.221.377.292.148.068.316.102.505.102.237 0 .45-.048.635-.143a1.46 1.46 0 0 0 .484-.406l.521.504a1.88 1.88 0 0 1-.935.71 2.243 2.243 0 0 1-.763.119Zm3.678-3.675v3.593h-.989v-4.438h.943l.046.845Zm1.357-.874-.008.919a2.072 2.072 0 0 0-.402-.033c-.17 0-.319.024-.447.074a.84.84 0 0 0-.52.525 1.422 1.422 0 0 0-.083.422l-.226.017c0-.279.028-.538.082-.776.055-.238.137-.447.247-.627.112-.181.251-.321.418-.423a1.213 1.213 0 0 1 .94-.098ZM82.192 102.444c.565 0 .864-.299 1.082-.517.196-.196.293-.283.517-.283.224 0 .32.087.517.283.218.218.516.517 1.082.517.566 0 .865-.299 1.084-.517.197-.196.293-.283.518-.283.225 0 .322.087.518.283.218.218.518.517 1.084.517v-.8c-.225 0-.322-.087-.518-.283-.219-.218-.518-.517-1.084-.517-.566 0-.865.299-1.084.517-.196.196-.292.283-.518.283-.225 0-.32-.087-.517-.283-.218-.218-.517-.517-1.082-.517-.566 0-.864.299-1.082.517-.197.196-.293.283-.517.283-.224 0-.32-.087-.516-.283-.218-.218-.517-.517-1.082-.517v.8c.224 0 .32.087.516.283.218.218.517.517 1.082.517Zm0 2c.565 0 .864-.299 1.082-.517.196-.196.293-.283.517-.283.224 0 .32.087.517.283.218.218.516.517 1.082.517.566 0 .865-.299 1.084-.517.197-.196.293-.283.518-.283.225 0 .322.087.518.283.218.218.518.517 1.084.517v-.8c-.225 0-.322-.087-.518-.283-.219-.218-.518-.517-1.084-.517-.566 0-.865.299-1.084.517-.196.196-.292.283-.518.283-.225 0-.32-.087-.517-.283-.218-.218-.517-.517-1.082-.517-.566 0-.864.299-1.082.517-.197.196-.293.283-.517.283-.224 0-.32-.087-.516-.283-.218-.218-.517-.517-1.082-.517v.8c.224 0 .32.087.516.283.218.218.517.517 1.082.517Zm0 2c.565 0 .864-.299 1.082-.517.196-.196.293-.283.517-.283.224 0 .32.087.517.283.218.218.516.517 1.082.517.566 0 .865-.299 1.084-.517.197-.196.293-.283.518-.283.225 0 .322.087.518.283.218.218.518.517 1.084.517v-.8c-.225 0-.322-.087-.518-.283-.219-.218-.518-.517-1.084-.517-.566 0-.865.299-1.084.517-.196.196-.292.283-.518.283-.225 0-.32-.087-.517-.283-.218-.218-.517-.517-1.082-.517-.566 0-.864.299-1.082.517-.197.196-.293.283-.517.283-.224 0-.32-.087-.516-.283-.218-.218-.517-.517-1.082-.517v.8c.224 0 .32.087.516.283.218.218.517.517 1.082.517ZM48.338 83.272v1.37h-4.541v-1.37h4.54Zm-3.967-7.16v8.53h-1.758v-8.53h1.758Zm3.375 3.474v1.336h-3.95v-1.336h3.95Zm.586-3.475v1.377h-4.535v-1.377h4.535ZM93.734 76.111v8.532h-1.757V76.11h1.757Zm3.399 3.645v1.371h-3.88v-1.371h3.88Zm.41-3.645v1.377h-4.29v-1.377h4.29ZM65.364 55.094v8.549h-1.687v-6.604l-2.028.645v-1.33l3.533-1.26h.182Zm6.642.017-3.129 9.264h-1.254l3.13-9.264h1.253Zm6.725 7.213v1.319h-5.837v-1.125l2.76-2.96c.278-.308.496-.58.657-.814a3.19 3.19 0 0 0 .345-.639 1.552 1.552 0 0 0-.018-1.207.96.96 0 0 0-.38-.433 1.138 1.138 0 0 0-.61-.153c-.257 0-.48.063-.667.188a1.193 1.193 0 0 0-.422.522 1.93 1.93 0 0 0-.141.755h-1.693c0-.508.12-.972.363-1.394a2.664 2.664 0 0 1 1.025-1.014c.442-.254.965-.38 1.57-.38.598 0 1.102.097 1.512.292.414.192.727.469.938.832.215.36.322.79.322 1.29 0 .28-.045.556-.135.825-.09.266-.218.532-.386.797a6.424 6.424 0 0 1-.598.797c-.234.27-.494.55-.78.838l-1.482 1.664h3.657Z" fill="#000" fill-opacity=".54"/><path d="m47.62 49.452 1.853 2.746.213-.143-1.833-2.759-.233.156ZM49.766 48.112l1.665 2.856.223-.129-1.644-2.867-.244.14ZM51.996 46.915l1.47 2.955.231-.114-1.449-2.965-.252.124ZM54.298 45.867l1.271 3.041.237-.098-1.248-3.05-.26.107ZM56.664 44.972l1.067 3.115.244-.083-1.045-3.122-.266.09ZM59.083 44.233l.86 3.176.249-.066-.837-3.182-.272.072ZM61.545 43.655l.65 3.223.252-.05-.627-3.228-.275.055ZM64.04 43.238l.438 3.256.255-.033-.415-3.26a44.28 44.28 0 0 0-.279.037ZM66.556 42.986l.225 3.274.257-.016-.202-3.276-.28.017ZM107.831 81.393v.281l-3.251-.012v-.257l3.251-.012ZM107.755 79.149l-3.242.199-.016-.257 3.24-.223.018.28ZM107.478 76.355l.037.279-3.219.41-.033-.256 3.215-.433ZM107.056 73.865l.055.275-3.182.618-.029-.148-.021-.105 3.177-.64ZM106.472 71.407l.073.271-3.131.824-.066-.248 3.124-.847ZM105.729 68.993l.091.266-3.068 1.026a22.495 22.495 0 0 0-.082-.244l3.059-1.048ZM104.83 66.633l.108.259-2.991 1.225-.098-.237 2.981-1.247ZM103.78 64.337l.124.252-2.903 1.418-.064-.13c-.006-.01-.011-.022-.016-.033l-.034-.067 2.893-1.44ZM102.581 62.114l.14.243-2.803 1.608a47.465 47.465 0 0 0-.13-.223l2.793-1.628ZM101.24 59.974l.155.233-2.693 1.79a35.913 35.913 0 0 0-.143-.213l2.681-1.81ZM99.762 57.927l.17.223-2.572 1.964a27.565 27.565 0 0 0-.157-.204l2.56-1.983ZM98.153 55.979c.062.07.124.14.185.212l-2.442 2.13a38.05 38.05 0 0 0-.17-.194l2.427-2.148ZM96.418 54.139a47.998 47.998 0 0 1 .2.2l-2.302 2.285-.046-.046-.045-.046-.092-.091 2.285-2.302ZM94.568 52.416l.212.186-2.15 2.43a38.658 38.658 0 0 0-.194-.17l2.132-2.446ZM92.61 50.82c.075.056.15.113.223.17l-1.986 2.564a38.01 38.01 0 0 0-.204-.157l1.968-2.577ZM90.554 49.355l.233.156-1.814 2.687a32.89 32.89 0 0 0-.213-.143l1.794-2.7ZM88.405 48.027l.243.14-1.633 2.801a39.63 39.63 0 0 0-.223-.129l1.613-2.812ZM86.174 46.842c.084.04.167.082.251.124L84.98 49.87a35.119 35.119 0 0 0-.23-.114l1.424-2.914ZM83.87 45.805l.04.017.22.09-1.253 2.996a37.032 37.032 0 0 0-.237-.098l1.23-3.005ZM81.503 44.92l.266.091-1.053 3.076a36.764 36.764 0 0 0-.244-.083l1.031-3.083ZM79.084 44.193l.27.073-.85 3.143a34.902 34.902 0 0 0-.25-.066l.83-3.15ZM76.621 43.624l.276.056-.646 3.198a31.178 31.178 0 0 0-.252-.05l.622-3.204ZM74.126 43.218l.279.037-.436 3.24-.255-.034.412-3.243ZM71.89 42.994l-.224 3.266a31.874 31.874 0 0 0-.257-.016l.2-3.269.281.02ZM69.364 42.898l-.012 3.279h-.257l-.012-3.28.28.001ZM45.792 50.763l-.223.17 2.03 2.62.205-.156-2.012-2.634ZM43.832 52.363l-.212.186 2.197 2.482.194-.17-2.18-2.498ZM41.978 54.089l-.1.1-.1.1 2.352 2.335.092-.092.092-.091-2.336-2.352ZM40.239 55.93c-.063.07-.125.142-.186.212l2.498 2.18c.056-.066.113-.13.17-.195l-2.482-2.197ZM38.623 57.88l-.17.223 2.634 2.011.156-.204-2.62-2.03ZM37.14 59.93l-.156.232 2.76 1.835.144-.213-2.748-1.855ZM35.794 62.072l-.14.244 2.875 1.648.129-.222-2.864-1.67ZM34.592 64.3l-.125.252 2.979 1.455.113-.23-2.967-1.477ZM33.54 66.601l-.108.26 3.068 1.256.098-.237-3.059-1.279ZM32.64 68.967l-.09.267 3.144 1.051.083-.244-3.136-1.074ZM31.9 71.387c-.025.09-.05.181-.073.272l3.205.843.067-.248-3.2-.867ZM31.318 73.85l-.055.276 3.254.632.05-.252-3.249-.656ZM30.899 76.346l-.037.279 3.288.418.034-.255-3.285-.442ZM30.643 78.864l-.018.28 3.308.204.017-.257-3.307-.227ZM30.552 81.393v.281l3.314-.012v-.257l-3.314-.012Z" fill="#636363"/><path d="M107.83 81.253v.497l-6.565-.03c.001-.14 0-.28-.001-.42l6.566-.047ZM96.318 54.04a37.117 37.117 0 0 1 .397.398l-4.67 4.603a36.906 36.906 0 0 0-.331-.33l4.604-4.67ZM68.943 42.899h.56l-.048 6.592h-.465l-.047-6.592ZM37.087 81.3v.466l-6.535.047a37.374 37.374 0 0 1 0-.56l6.535.047ZM46.698 58.676l-.333.33-4.686-4.619a41.454 41.454 0 0 1 .398-.398l4.62 4.687Z" fill="#636363"/><path d="M107.894 81.731c.051-9.962-3.725-19.941-11.326-27.543-15.103-15.102-39.588-15.102-54.69 0a38.8 38.8 0 0 0-5.396 6.748 38.67 38.67 0 0 0-5.803 20.987l.453-.007c-.098-9.876 3.62-19.782 11.155-27.318 14.876-14.876 38.995-14.876 53.87 0 7.487 7.487 11.206 17.315 11.157 27.127l.58.007Z" fill="#636363"/><circle cx="69.199" cy="80.842" r="30" fill="#fff" fill-opacity=".01"/><circle cx="69.2" cy="80.841" r="6.9" fill="#727171"/><circle cx="69.2" cy="80.841" r="6.9" fill="url(#s)"/><circle cx="69.2" cy="80.841" r="6.9" stroke="#fff" stroke-width=".6"/><path d="M39.786 81.726a.6.6 0 0 1-.587-.6v-.853a.6.6 0 0 1 .591-.6l40.997-.621a.6.6 0 0 1 .61.6v2.377a.6.6 0 0 1-.614.6l-40.997-.903Z" fill="#F46005"/><path d="M118.398 108.444a2.4 2.4 0 0 0 2.4 2.4h9.6a2.4 2.4 0 0 0 2.4-2.4v-55.2a2.4 2.4 0 0 0-2.4-2.4h-9.6a2.4 2.4 0 0 0-2.4 2.4v55.2Z" fill="#647484"/><path d="M118.398 108.444a2.4 2.4 0 0 0 2.4 2.4h9.6a2.4 2.4 0 0 0 2.4-2.4v-55.2a2.4 2.4 0 0 0-2.4-2.4h-9.6a2.4 2.4 0 0 0-2.4 2.4v55.2Z" fill="url(#t)"/><path d="M119.298 108.444a1.5 1.5 0 0 0 1.5 1.5h9.6a1.5 1.5 0 0 0 1.5-1.5v-55.2a1.5 1.5 0 0 0-1.5-1.5h-9.6a1.5 1.5 0 0 0-1.5 1.5v55.2Z" stroke="#000" stroke-opacity=".12" stroke-width="1.8"/><path d="M137.6 140.844a2.4 2.4 0 0 0 2.4-2.4v-115.2a2.4 2.4 0 0 0-2.4-2.4h-2.4a2.4 2.4 0 0 0-2.4 2.4v115.2a2.4 2.4 0 0 0 2.4 2.4h2.4Z" fill="#93979B"/><path d="M137.6 140.844a2.4 2.4 0 0 0 2.4-2.4v-115.2a2.4 2.4 0 0 0-2.4-2.4h-2.4a2.4 2.4 0 0 0-2.4 2.4v115.2a2.4 2.4 0 0 0 2.4 2.4h2.4Z" fill="url(#u)"/><path d="M137.6 139.944a1.5 1.5 0 0 0 1.5-1.5v-115.2a1.5 1.5 0 0 0-1.5-1.5h-2.4a1.5 1.5 0 0 0-1.5 1.5v115.2a1.5 1.5 0 0 0 1.5 1.5h2.4Z" stroke="#000" stroke-opacity=".12" stroke-width="1.8"/><defs><linearGradient id="a" x1="245.577" y1="76.596" x2="244.661" y2="119.535" gradientUnits="userSpaceOnUse"><stop stop-color="#020202" stop-opacity=".35"/><stop offset=".183" stop-color="#020202" stop-opacity=".12"/><stop offset=".351" stop-color="#fff" stop-opacity=".08"/><stop offset=".498" stop-color="#fff" stop-opacity=".25"/><stop offset=".648" stop-color="#fff" stop-opacity=".08"/><stop offset=".823" stop-color="#020202" stop-opacity=".12"/><stop offset="1" stop-color="#020202" stop-opacity=".35"/></linearGradient><linearGradient id="b" x1="242.273" y1="141.066" x2="285.232" y2="141.199" gradientUnits="userSpaceOnUse"><stop stop-color="#020202" stop-opacity=".35"/><stop offset=".183" stop-color="#020202" stop-opacity=".12"/><stop offset=".351" stop-color="#fff" stop-opacity=".08"/><stop offset=".498" stop-color="#fff" stop-opacity=".25"/><stop offset=".648" stop-color="#fff" stop-opacity=".08"/><stop offset=".823" stop-color="#020202" stop-opacity=".12"/><stop offset="1" stop-color="#020202" stop-opacity=".35"/></linearGradient><linearGradient id="c" x1="245.577" y1="176.422" x2="244.661" y2="219.361" gradientUnits="userSpaceOnUse"><stop stop-color="#020202" stop-opacity=".35"/><stop offset=".183" stop-color="#020202" stop-opacity=".12"/><stop offset=".351" stop-color="#fff" stop-opacity=".08"/><stop offset=".498" stop-color="#fff" stop-opacity=".25"/><stop offset=".648" stop-color="#fff" stop-opacity=".08"/><stop offset=".823" stop-color="#020202" stop-opacity=".12"/><stop offset="1" stop-color="#020202" stop-opacity=".35"/></linearGradient><linearGradient id="e" x1="261.027" y1="103.183" x2="266.472" y2="103.183" gradientUnits="userSpaceOnUse"><stop stop-color="#727171"/><stop offset=".498" stop-color="#fff"/><stop offset="1" stop-color="#727171"/></linearGradient><linearGradient id="f" x1="279.167" y1="112.582" x2="281.178" y2="117.886" gradientUnits="userSpaceOnUse"><stop stop-color="#727171"/><stop offset=".498" stop-color="#fff"/><stop offset="1" stop-color="#727171"/></linearGradient><linearGradient id="g" x1="255.861" y1="135.931" x2="251.359" y2="132.48" gradientUnits="userSpaceOnUse"><stop stop-color="#727171"/><stop offset=".498" stop-color="#fff"/><stop offset="1" stop-color="#727171"/></linearGradient><linearGradient id="h" x1="272.311" y1="135.931" x2="276.812" y2="132.48" gradientUnits="userSpaceOnUse"><stop stop-color="#727171"/><stop offset=".498" stop-color="#fff"/><stop offset="1" stop-color="#727171"/></linearGradient><linearGradient id="i" x1="246.444" y1="117.539" x2="248.106" y2="112.116" gradientUnits="userSpaceOnUse"><stop stop-color="#727171"/><stop offset=".498" stop-color="#fff"/><stop offset="1" stop-color="#727171"/></linearGradient><linearGradient id="l" x1="142.23" y1="177.057" x2="141.978" y2="241.26" gradientUnits="userSpaceOnUse"><stop stop-color="#020202" stop-opacity=".35"/><stop offset=".183" stop-color="#020202" stop-opacity=".12"/><stop offset=".351" stop-color="#fff" stop-opacity=".08"/><stop offset=".498" stop-color="#fff" stop-opacity=".25"/><stop offset=".648" stop-color="#fff" stop-opacity=".08"/><stop offset=".823" stop-color="#020202" stop-opacity=".12"/><stop offset="1" stop-color="#020202" stop-opacity=".35"/></linearGradient><linearGradient id="t" x1="126.853" y1="53.131" x2="125.529" y2="107.955" gradientUnits="userSpaceOnUse"><stop stop-color="#020202" stop-opacity=".2"/><stop offset=".091" stop-color="#020202" stop-opacity=".18"/><stop offset=".1" stop-color="#020202" stop-opacity=".1"/><stop offset=".205" stop-color="#020202" stop-opacity=".08"/><stop offset=".216" stop-color="#020202" stop-opacity=".05"/><stop offset=".37" stop-color="#020202" stop-opacity=".02"/><stop offset=".378" stop-color="#fff" stop-opacity=".01"/><stop offset=".624" stop-color="#fff" stop-opacity=".01"/><stop offset=".631" stop-color="#020202" stop-opacity=".02"/><stop offset=".776" stop-color="#020202" stop-opacity=".05"/><stop offset=".79" stop-color="#020202" stop-opacity=".08"/><stop offset=".9" stop-color="#020202" stop-opacity=".1"/><stop offset=".908" stop-color="#020202" stop-opacity=".18"/><stop offset="1" stop-color="#020202" stop-opacity=".2"/></linearGradient><linearGradient id="u" x1="133.958" y1="12.237" x2="160.402" y2="144.161" gradientUnits="userSpaceOnUse"><stop stop-color="#020202" stop-opacity=".35"/><stop offset=".236" stop-color="#020202" stop-opacity=".12"/><stop offset=".399" stop-color="#fff" stop-opacity=".12"/><stop offset=".498" stop-color="#fff" stop-opacity=".3"/><stop offset=".597" stop-color="#fff" stop-opacity=".12"/><stop offset=".763" stop-color="#020202" stop-opacity=".12"/><stop offset="1" stop-color="#020202" stop-opacity=".35"/></linearGradient><filter id="j" x="253.73" y="110.137" width="20.039" height="20.041" filterUnits="userSpaceOnUse" color-interpolation-filters="sRGB"><feFlood flood-opacity="0" result="BackgroundImageFix"/><feBlend in="SourceGraphic" in2="BackgroundImageFix" result="shape"/><feColorMatrix in="SourceAlpha" values="0 0 0 0 0 0 0 0 0 0 0 0 0 0 0 0 0 0 127 0" result="hardAlpha"/><feOffset dx=".945" dy="-.945"/><feGaussianBlur stdDeviation=".945"/><feComposite in2="hardAlpha" operator="arithmetic" k2="-1" k3="1"/><feColorMatrix values="0 0 0 0 0 0 0 0 0 0 0 0 0 0 0 0 0 0 0.5 0"/><feBlend in2="shape" result="effect1_innerShadow_10287_77582"/><feColorMatrix in="SourceAlpha" values="0 0 0 0 0 0 0 0 0 0 0 0 0 0 0 0 0 0 127 0" result="hardAlpha"/><feOffset dx="-.945" dy=".945"/><feGaussianBlur stdDeviation=".945"/><feComposite in2="hardAlpha" operator="arithmetic" k2="-1" k3="1"/><feColorMatrix values="0 0 0 0 1 0 0 0 0 1 0 0 0 0 1 0 0 0 0.5 0"/><feBlend in2="effect1_innerShadow_10287_77582" result="effect2_innerShadow_10287_77582"/></filter><filter id="k" x="255.28" y="113.199" width="15.427" height="15.427" filterUnits="userSpaceOnUse" color-interpolation-filters="sRGB"><feFlood flood-opacity="0" result="BackgroundImageFix"/><feBlend in="SourceGraphic" in2="BackgroundImageFix" result="shape"/><feColorMatrix in="SourceAlpha" values="0 0 0 0 0 0 0 0 0 0 0 0 0 0 0 0 0 0 127 0" result="hardAlpha"/><feOffset dx="-1.512" dy="1.512"/><feGaussianBlur stdDeviation="1.21"/><feComposite in2="hardAlpha" operator="arithmetic" k2="-1" k3="1"/><feColorMatrix values="0 0 0 0 0 0 0 0 0 0 0 0 0 0 0 0 0 0 0.15 0"/><feBlend in2="shape" result="effect1_innerShadow_10287_77582"/></filter><filter id="m" x="146.001" y="188.157" width="85.799" height="42" filterUnits="userSpaceOnUse" color-interpolation-filters="sRGB"><feFlood flood-opacity="0" result="BackgroundImageFix"/><feColorMatrix in="SourceAlpha" values="0 0 0 0 0 0 0 0 0 0 0 0 0 0 0 0 0 0 127 0" result="hardAlpha"/><feOffset/><feGaussianBlur stdDeviation="2.4"/><feComposite in2="hardAlpha" operator="out"/><feColorMatrix values="0 0 0 0 0 0 0 0 0 0 0 0 0 0 0 0 0 0 0.25 0"/><feBlend in2="BackgroundImageFix" result="effect1_dropShadow_10287_77582"/><feBlend in="SourceGraphic" in2="effect1_dropShadow_10287_77582" result="shape"/></filter><filter id="n" x="164.6" y="194.864" width="64.8" height="28.591" filterUnits="userSpaceOnUse" color-interpolation-filters="sRGB"><feFlood flood-opacity="0" result="BackgroundImageFix"/><feColorMatrix in="SourceAlpha" values="0 0 0 0 0 0 0 0 0 0 0 0 0 0 0 0 0 0 127 0" result="hardAlpha"/><feOffset/><feGaussianBlur stdDeviation="1.2"/><feComposite in2="hardAlpha" operator="out"/><feColorMatrix values="0 0 0 0 0 0 0 0 0 0 0 0 0 0 0 0 0 0 0.25 0"/><feBlend in2="BackgroundImageFix" result="effect1_dropShadow_10287_77582"/><feBlend in="SourceGraphic" in2="effect1_dropShadow_10287_77582" result="shape"/></filter><filter id="p" x="148.926" y="191.082" width="36.148" height="36.15" filterUnits="userSpaceOnUse" color-interpolation-filters="sRGB"><feFlood flood-opacity="0" result="BackgroundImageFix"/><feBlend in="SourceGraphic" in2="BackgroundImageFix" result="shape"/><feColorMatrix in="SourceAlpha" values="0 0 0 0 0 0 0 0 0 0 0 0 0 0 0 0 0 0 127 0" result="hardAlpha"/><feOffset dx="1.875" dy="-1.875"/><feGaussianBlur stdDeviation="1.875"/><feComposite in2="hardAlpha" operator="arithmetic" k2="-1" k3="1"/><feColorMatrix values="0 0 0 0 0 0 0 0 0 0 0 0 0 0 0 0 0 0 0.5 0"/><feBlend in2="shape" result="effect1_innerShadow_10287_77582"/><feColorMatrix in="SourceAlpha" values="0 0 0 0 0 0 0 0 0 0 0 0 0 0 0 0 0 0 127 0" result="hardAlpha"/><feOffset dx="-1.875" dy="1.875"/><feGaussianBlur stdDeviation="1.875"/><feComposite in2="hardAlpha" operator="arithmetic" k2="-1" k3="1"/><feColorMatrix values="0 0 0 0 1 0 0 0 0 1 0 0 0 0 1 0 0 0 0.5 0"/><feBlend in2="effect1_innerShadow_10287_77582" result="effect2_innerShadow_10287_77582"/></filter><filter id="q" x="150.199" y="195.357" width="30.602" height="30.6" filterUnits="userSpaceOnUse" color-interpolation-filters="sRGB"><feFlood flood-opacity="0" result="BackgroundImageFix"/><feBlend in="SourceGraphic" in2="BackgroundImageFix" result="shape"/><feColorMatrix in="SourceAlpha" values="0 0 0 0 0 0 0 0 0 0 0 0 0 0 0 0 0 0 127 0" result="hardAlpha"/><feOffset dx="-3" dy="3"/><feGaussianBlur stdDeviation="2.4"/><feComposite in2="hardAlpha" operator="arithmetic" k2="-1" k3="1"/><feColorMatrix values="0 0 0 0 0 0 0 0 0 0 0 0 0 0 0 0 0 0 0.15 0"/><feBlend in2="shape" result="effect1_innerShadow_10287_77582"/></filter><radialGradient id="d" cx="0" cy="0" r="1" gradientUnits="userSpaceOnUse" gradientTransform="rotate(90 71.797 191.953) scale(30.25)"><stop stop-color="#727171"/><stop offset=".751" stop-color="#727171"/><stop offset=".873" stop-color="#fff"/><stop offset="1" stop-color="#727171"/></radialGradient><radialGradient id="o" cx="0" cy="0" r="1" gradientUnits="userSpaceOnUse" gradientTransform="matrix(0 6.50779 -53.6053 0 215.5 209.469)"><stop stop-color="#fff"/><stop offset="1" stop-color="#9B9B9B"/></radialGradient><radialGradient id="s" cx="0" cy="0" r="1" gradientUnits="userSpaceOnUse" gradientTransform="matrix(-7.2 0 0 -7.2 69.2 80.84)"><stop offset=".369" stop-color="#4A4848" stop-opacity=".12"/><stop offset=".702" stop-color="#4A4848" stop-opacity=".6"/><stop offset="1" stop-color="#4A4848" stop-opacity=".8"/></radialGradient></defs></svg>