<svg width="337" height="291" fill="none" xmlns="http://www.w3.org/2000/svg"><rect x="177" y="38.5" width="160" height="160" rx="40" fill="#E4EFFD"/><rect x=".75" y="1.25" width="158.5" height="158.5" rx="39.25" fill="#F4F8FE" stroke="#3E9AF8" stroke-width="1.5"/><path fill="#F4F8FE" d="M20 20.5h120v120H20z"/><path d="M80 80.5h31.8" stroke="#000" stroke-opacity=".87" stroke-width="1.2"/><path d="m80 81.1 34.799-60.6h-69.6L80 81.1Z" fill="#fff"/><path d="m46.236 21.1 33.763 58.795L113.763 21.1H46.236Z" stroke="#000" stroke-opacity=".87" stroke-width="1.2"/><path d="m80 79.9 34.799 60.6h-69.6L80 79.9Z" fill="#fff"/><path d="m46.236 139.9 33.763-58.795 33.764 58.795H46.236ZM112.12 52.41h27.701v56.603H112.12z" stroke="#000" stroke-opacity=".87" stroke-width="1.2"/><rect x="113.75" y="131.25" width="158.5" height="158.5" rx="39.25" fill="#F4F8FE" stroke="#3E9AF8" stroke-width="1.5"/><path fill="#F4F8FE" d="M133 150.688h120v120H133z"/><path d="M193 210.688v-31.801" stroke="#000" stroke-opacity=".87" stroke-width="1.2"/><path d="m193.602 210.688-60.6-34.8v69.6l60.6-34.8Z" fill="#fff"/><path d="m133.602 244.452 58.795-33.764-58.795-33.763v67.527Z" stroke="#000" stroke-opacity=".87" stroke-width="1.2"/><path d="m192.398 210.688 60.6-34.8v69.6l-60.6-34.8Z" fill="#fff"/><path d="m252.398 244.452-58.795-33.764 58.795-33.763v67.527ZM164.799 178.888v-27.6h56.4v27.6z" stroke="#000" stroke-opacity=".87" stroke-width="1.2"/></svg>