<svg width="337" height="291" fill="none" xmlns="http://www.w3.org/2000/svg"><rect x="83" y=".5" width="160" height="160" rx="40" fill="#E4EFFD"/><rect x="177.75" y="100.953" width="158.5" height="158.5" rx="39.25" fill="#F4F8FE" stroke="#3E9AF8" stroke-width="1.5"/><path fill="#F4F8FE" d="M227 120.5h60v120h-60z"/><path d="M232.515 173.662a1.204 1.204 0 0 0-.42-.845l-2.709-2.309a5.93 5.93 0 0 1-2.094-4.33c-.195-6.241-.589-22.273.09-33.228.233-3.771.729-9.108.945-11.37a1.194 1.194 0 0 1 1.193-1.08h54.96c.618 0 1.135.465 1.193 1.08.216 2.262.712 7.599.945 11.37.679 10.955.285 26.987.09 33.228a5.93 5.93 0 0 1-2.094 4.33l-2.709 2.309a1.204 1.204 0 0 0-.42.845l-2.571 44.102a11.216 11.216 0 0 1-4.059 8.001c-10.366 8.555-25.344 8.555-35.71 0a11.216 11.216 0 0 1-4.059-8.001l-2.571-44.102Z" fill="#fff"/><path d="M232.814 173.644a1.498 1.498 0 0 0-.525-1.055l-2.708-2.309a5.628 5.628 0 0 1-1.989-4.112c-.195-6.242-.589-22.26.089-33.199.233-3.766.728-9.098.944-11.36a.895.895 0 0 1 .895-.809h54.96c.465 0 .851.349.895.809.216 2.262.711 7.594.944 11.36.678 10.939.284 26.957.089 33.199a5.628 5.628 0 0 1-1.989 4.112l-2.708 2.309a1.498 1.498 0 0 0-.525 1.055l-2.571 44.103a10.925 10.925 0 0 1-3.951 7.787c-10.255 8.463-25.073 8.463-35.328 0a10.925 10.925 0 0 1-3.951-7.787l-2.571-44.103Z" stroke="#000" stroke-opacity=".87" stroke-width=".6"/><rect x=".75" y="131.25" width="158.5" height="158.5" rx="39.25" fill="#F4F8FE" stroke="#3E9AF8" stroke-width="1.5"/><path fill="#F4F8FE" d="M44 149.5h72v120H44z"/><path d="M60.508 263.02h38.98l6.43 2.88h-51.84l6.43-2.88Z" fill="#fff"/><path d="m54.64 265.78 5.893-2.64h38.93l5.894 2.64H54.64Z" stroke="#000" stroke-opacity=".87" stroke-width=".24"/><path d="M44 196.061c0-11.929 9.67-21.6 21.6-21.6h28.8c11.93 0 21.6 9.671 21.6 21.6v49.44c0 9.809-7.951 17.76-17.76 17.76H61.76c-9.809 0-17.76-7.951-17.76-17.76v-49.44Z" fill="#fff"/><path d="M44.12 196.061c0-11.863 9.617-21.48 21.48-21.48H94.4c11.862 0 21.479 9.617 21.479 21.48v49.44c0 9.742-7.898 17.64-17.64 17.64H61.76c-9.742 0-17.64-7.898-17.64-17.64v-49.44Z" stroke="#000" stroke-opacity=".87" stroke-width=".24"/><rect x="53.602" y="265.66" width="52.8" height="3.84" rx=".835" fill="#fff"/><rect x="53.722" y="265.78" width="52.56" height="3.6" rx=".715" stroke="#000" stroke-opacity=".87" stroke-width=".24"/><path d="M69.922 174.579c0 .066.054.12.12.12h19.92a.12.12 0 0 0 .12-.12v-9a.12.12 0 0 0-.12-.12h-19.92a.12.12 0 0 0-.12.12v9Z" fill="#fff"/><path d="M70.042 174.579h19.92v-9h-19.92v9Z" stroke="#000" stroke-opacity=".87" stroke-width=".24"/><path d="M69.922 157.419c0 .066.054.12.12.12h19.92a.12.12 0 0 0 .12-.12v-7.68a.24.24 0 0 0-.24-.24h-19.68a.24.24 0 0 0-.24.24v7.68Z" fill="#fff"/><path d="M70.042 157.419h19.92v-7.68a.12.12 0 0 0-.12-.12h-19.68a.12.12 0 0 0-.12.12v7.68Z" stroke="#000" stroke-opacity=".87" stroke-width=".24"/><g filter="url(#a)"><rect x="53" y="198.699" width="25.064" height="11.521" rx="1.178" fill="#999"/><path d="M62.249 202.57v2.389h-.412v-2.389h.412Zm.974 1.045v.327h-1.08v-.327h1.08Zm.136-1.045v.328h-1.215v-.328h1.215Zm.753.614v1.775h-.397v-1.775h.397Zm-.423-.466c0-.06.02-.11.059-.149a.224.224 0 0 1 .167-.061c.07 0 .125.02.166.061.04.039.06.089.06.149a.2.2 0 0 1-.06.148.229.229 0 0 1-.166.059.231.231 0 0 1-.167-.059.202.202 0 0 1-.06-.148Zm1.32-.279v2.52h-.397v-2.52h.397Zm1.287.745v.289h-1v-.289h1Zm-.712-.435h.396v1.719c0 .055.007.097.023.127a.124.124 0 0 0 .067.057c.028.01.062.015.1.015a.662.662 0 0 0 .079-.005c.025-.003.045-.007.06-.01l.002.302a.865.865 0 0 1-.262.038.574.574 0 0 1-.242-.048.357.357 0 0 1-.164-.159.618.618 0 0 1-.059-.292v-1.744Zm1.84 2.243a.96.96 0 0 1-.355-.064.8.8 0 0 1-.27-.182.81.81 0 0 1-.168-.274.959.959 0 0 1-.06-.34v-.066c0-.138.02-.264.061-.377a.856.856 0 0 1 .17-.289.729.729 0 0 1 .255-.185.79.79 0 0 1 .32-.064c.127 0 .238.021.333.064a.635.635 0 0 1 .236.18c.064.077.11.168.142.274.031.107.047.224.047.352v.169h-1.372v-.284h.982v-.031a.558.558 0 0 0-.043-.201.347.347 0 0 0-.117-.151.35.35 0 0 0-.21-.057.35.35 0 0 0-.301.162.634.634 0 0 0-.08.191 1.066 1.066 0 0 0-.025.247v.066c0 .078.01.15.03.217a.52.52 0 0 0 .096.172.446.446 0 0 0 .353.157.551.551 0 0 0 .448-.219l.208.201a.738.738 0 0 1-.374.284.887.887 0 0 1-.305.048Zm1.457-1.47v1.437h-.395v-1.775h.377l.018.338Zm.543-.35-.003.368a1.125 1.125 0 0 0-.16-.013.514.514 0 0 0-.18.029.343.343 0 0 0-.208.21.576.576 0 0 0-.033.169l-.09.007c0-.112.01-.215.033-.31a.846.846 0 0 1 .098-.251.502.502 0 0 1 .168-.169.444.444 0 0 1 .311-.054c.029.004.05.009.064.014Z" fill="#000" fill-opacity=".87"/></g><g filter="url(#b)"><path d="M53 214.264c0-.651.527-1.178 1.178-1.178h22.708c.65 0 1.178.527 1.178 1.178v9.166c0 .65-.528 1.177-1.178 1.177H54.178c-.65 0-1.178-.527-1.178-1.177v-9.166Z" fill="#fff"/><path d="M53.12 214.264c0-.585.474-1.058 1.058-1.058h22.708c.584 0 1.058.473 1.058 1.058v9.166c0 .584-.474 1.057-1.058 1.057H54.178a1.057 1.057 0 0 1-1.058-1.057v-9.166Z" stroke="#000" stroke-opacity=".38" stroke-width=".24"/><path d="M58.856 218.266h-.608l-.004-.3h.532c.09 0 .165-.013.228-.039a.323.323 0 0 0 .144-.117.336.336 0 0 0 .05-.185.376.376 0 0 0-.047-.196.263.263 0 0 0-.14-.109.7.7 0 0 0-.24-.035h-.399v2.061h-.412v-2.389h.81c.132 0 .25.013.352.038a.714.714 0 0 1 .264.118.494.494 0 0 1 .166.2.67.67 0 0 1 .057.289.533.533 0 0 1-.07.27.535.535 0 0 1-.209.199.825.825 0 0 1-.343.092l-.13.103Zm-.018 1.08h-.72l.185-.327h.535a.52.52 0 0 0 .233-.046.32.32 0 0 0 .14-.129.39.39 0 0 0 .047-.196.46.46 0 0 0-.04-.201.28.28 0 0 0-.13-.133.484.484 0 0 0-.232-.048h-.462l.003-.3h.602l.093.113a.646.646 0 0 1 .324.087.508.508 0 0 1 .19.208.627.627 0 0 1 .062.276c0 .152-.033.28-.1.382a.62.62 0 0 1-.284.235 1.147 1.147 0 0 1-.446.079Zm2.247-.356v-.847a.364.364 0 0 0-.034-.164.245.245 0 0 0-.105-.107.361.361 0 0 0-.174-.037.392.392 0 0 0-.167.033.264.264 0 0 0-.11.088.212.212 0 0 0-.04.126h-.393c0-.07.017-.137.05-.203a.547.547 0 0 1 .148-.176.755.755 0 0 1 .232-.121.978.978 0 0 1 .301-.044c.134 0 .252.022.355.067a.544.544 0 0 1 .334.541v.79c0 .08.006.153.017.218a.706.706 0 0 0 .05.165v.027h-.405a.709.709 0 0 1-.044-.163 1.307 1.307 0 0 1-.015-.193Zm.058-.724.003.245h-.284a.8.8 0 0 0-.193.021.4.4 0 0 0-.14.059.256.256 0 0 0-.111.222.232.232 0 0 0 .128.219.433.433 0 0 0 .51-.139.268.268 0 0 0 .056-.14l.128.176a.685.685 0 0 1-.192.292.608.608 0 0 1-.425.158.676.676 0 0 1-.31-.069.55.55 0 0 1-.214-.189.563.563 0 0 1-.025-.52.49.49 0 0 1 .158-.184.763.763 0 0 1 .256-.111c.1-.027.216-.04.345-.04h.31Zm1.519.798a.393.393 0 0 0 .174-.038.334.334 0 0 0 .126-.108.296.296 0 0 0 .054-.16h.372a.556.556 0 0 1-.101.314.697.697 0 0 1-.261.224.782.782 0 0 1-.36.083.845.845 0 0 1-.354-.069.702.702 0 0 1-.25-.194.855.855 0 0 1-.152-.284 1.17 1.17 0 0 1-.049-.344v-.058c0-.122.016-.237.05-.344a.845.845 0 0 1 .15-.286.686.686 0 0 1 .251-.192c.1-.047.218-.07.353-.07.142 0 .267.028.374.085a.63.63 0 0 1 .253.235.659.659 0 0 1 .096.347h-.372a.4.4 0 0 0-.05-.177.332.332 0 0 0-.306-.175.367.367 0 0 0-.198.049.33.33 0 0 0-.124.131.646.646 0 0 0-.064.186 1.201 1.201 0 0 0-.018.211v.058c0 .073.006.144.018.213a.598.598 0 0 0 .063.185c.03.054.072.097.124.13a.38.38 0 0 0 .2.048Zm1.47-2.238v2.52h-.398v-2.52h.397Zm1.102.745-.773.856-.423.433-.104-.335.32-.395.502-.559h.478Zm-.392 1.775-.576-.834.25-.277.783 1.111h-.457Zm1.166-.394.41-1.381h.252l-.069.413-.413 1.362h-.226l.046-.394Zm-.242-1.381.32 1.388.027.387h-.253l-.48-1.775h.386Zm1.288 1.371.31-1.371h.386l-.48 1.775h-.252l.036-.404Zm-.34-1.371.404 1.365.051.41h-.226l-.419-1.364-.069-.411h.258Zm2.346 1.419v-.847a.365.365 0 0 0-.034-.164.246.246 0 0 0-.105-.107.361.361 0 0 0-.174-.037.392.392 0 0 0-.167.033.264.264 0 0 0-.11.088.212.212 0 0 0-.04.126h-.393c0-.07.017-.137.05-.203a.548.548 0 0 1 .148-.176.755.755 0 0 1 .231-.121.978.978 0 0 1 .302-.044c.134 0 .252.022.355.067a.543.543 0 0 1 .244.203c.06.09.09.203.09.338v.79c0 .08.006.153.017.218a.702.702 0 0 0 .05.165v.027h-.404a.703.703 0 0 1-.045-.163 1.307 1.307 0 0 1-.015-.193Zm.058-.724.003.245h-.284a.8.8 0 0 0-.193.021.399.399 0 0 0-.14.059.256.256 0 0 0-.111.222.232.232 0 0 0 .128.219.433.433 0 0 0 .51-.139.268.268 0 0 0 .056-.14l.128.176a.685.685 0 0 1-.192.292.612.612 0 0 1-.425.158.676.676 0 0 1-.31-.069.55.55 0 0 1-.214-.189.563.563 0 0 1-.025-.52.49.49 0 0 1 .158-.184.763.763 0 0 1 .256-.111c.1-.027.216-.04.345-.04h.31Zm1.79.599a.2.2 0 0 0-.03-.107.256.256 0 0 0-.113-.088 1.065 1.065 0 0 0-.243-.072 2.21 2.21 0 0 1-.26-.074.824.824 0 0 1-.2-.107.404.404 0 0 1-.175-.344c0-.073.016-.141.047-.205a.514.514 0 0 1 .137-.171.679.679 0 0 1 .215-.117.912.912 0 0 1 .285-.042.89.89 0 0 1 .382.075c.108.049.19.117.246.202a.496.496 0 0 1 .086.285h-.396a.253.253 0 0 0-.036-.131.254.254 0 0 0-.105-.1.363.363 0 0 0-.177-.039.383.383 0 0 0-.169.033.226.226 0 0 0-.098.082.209.209 0 0 0-.015.192.193.193 0 0 0 .059.064.493.493 0 0 0 .112.052c.048.016.108.032.18.048.136.028.252.065.35.11.098.043.173.1.226.17a.423.423 0 0 1 .079.263.463.463 0 0 1-.196.385.72.72 0 0 1-.228.11c-.087.026-.186.04-.295.04a.89.89 0 0 1-.409-.086.657.657 0 0 1-.254-.221.526.526 0 0 1-.085-.282h.382a.296.296 0 0 0 .06.175.327.327 0 0 0 .139.094.558.558 0 0 0 .172.027c.071 0 .13-.009.179-.027a.258.258 0 0 0 .11-.079.188.188 0 0 0 .037-.115Zm1.164-2.039v2.52h-.394v-2.52h.394Zm-.07 1.567-.127-.002c.001-.123.018-.236.05-.34a.86.86 0 0 1 .142-.27.62.62 0 0 1 .504-.243c.087 0 .166.012.236.036a.456.456 0 0 1 .3.323c.027.084.041.187.041.308v1.141h-.397v-1.144a.458.458 0 0 0-.038-.203.218.218 0 0 0-.106-.109.404.404 0 0 0-.173-.034.39.39 0 0 0-.323.159.534.534 0 0 0-.082.171.782.782 0 0 0-.026.207Z" fill="#000" fill-opacity=".76"/></g><g filter="url(#c)"><path d="M53 228.648c0-.65.527-1.177 1.178-1.177h22.708c.65 0 1.178.527 1.178 1.177v9.166c0 .651-.528 1.178-1.178 1.178H54.178c-.65 0-1.178-.527-1.178-1.178v-9.166Z" fill="#fff"/><path d="M53.12 228.648c0-.584.474-1.057 1.058-1.057h22.708c.584 0 1.058.473 1.058 1.057v9.166c0 .585-.474 1.058-1.058 1.058H54.178a1.057 1.057 0 0 1-1.058-1.058v-9.166Z" stroke="#000" stroke-opacity=".38" stroke-width=".24"/><path d="M61.506 231.342h.845c.181 0 .336.027.464.082a.62.62 0 0 1 .294.243.706.706 0 0 1 .103.393c0 .12-.022.225-.065.315a.636.636 0 0 1-.186.23.903.903 0 0 1-.285.143l-.125.06h-.76l-.003-.326h.57c.098 0 .18-.018.246-.053a.35.35 0 0 0 .147-.142.422.422 0 0 0 .051-.207.457.457 0 0 0-.05-.217.318.318 0 0 0-.147-.142.558.558 0 0 0-.254-.051h-.433v2.06h-.412v-2.388Zm1.363 2.388-.56-1.072.43-.002.57 1.053v.021h-.44Zm1.178-1.775v1.775h-.397v-1.775h.397Zm-.423-.466c0-.06.02-.11.059-.149a.228.228 0 0 1 .167-.061c.07 0 .125.021.166.061.04.039.06.089.06.149 0 .059-.02.109-.06.148a.229.229 0 0 1-.166.059.231.231 0 0 1-.167-.059.2.2 0 0 1-.06-.148Zm1.289.845v1.396h-.396v-1.775h.373l.023.379Zm-.07.443-.129-.001a1.16 1.16 0 0 1 .053-.347.843.843 0 0 1 .144-.27.651.651 0 0 1 .512-.236.7.7 0 0 1 .231.036c.07.023.13.06.18.113.05.052.088.121.114.205.026.083.04.185.04.307v1.146h-.398v-1.148a.45.45 0 0 0-.037-.202.208.208 0 0 0-.107-.106.398.398 0 0 0-.172-.033.387.387 0 0 0-.319.159.559.559 0 0 0-.083.171.698.698 0 0 0-.03.206Zm2.584.473a.2.2 0 0 0-.03-.107.25.25 0 0 0-.112-.088 1.059 1.059 0 0 0-.243-.073 2.045 2.045 0 0 1-.26-.073.86.86 0 0 1-.2-.107.407.407 0 0 1-.176-.345.46.46 0 0 1 .049-.205.52.52 0 0 1 .136-.17.66.66 0 0 1 .215-.117.912.912 0 0 1 .285-.042.89.89 0 0 1 .382.075c.108.049.19.116.246.202a.496.496 0 0 1 .086.285h-.396a.25.25 0 0 0-.036-.131.248.248 0 0 0-.105-.1.363.363 0 0 0-.177-.039.383.383 0 0 0-.169.032.232.232 0 0 0-.098.082.21.21 0 0 0-.015.192.183.183 0 0 0 .059.064.495.495 0 0 0 .112.053c.048.016.108.032.18.047.136.029.252.065.35.11a.561.561 0 0 1 .226.171.42.42 0 0 1 .079.262.467.467 0 0 1-.196.386.72.72 0 0 1-.228.11 1.036 1.036 0 0 1-.295.039.89.89 0 0 1-.409-.085.65.65 0 0 1-.254-.222.52.52 0 0 1-.085-.282h.382a.297.297 0 0 0 .06.176.317.317 0 0 0 .139.093.53.53 0 0 0 .172.028.49.49 0 0 0 .179-.028.257.257 0 0 0 .11-.078.19.19 0 0 0 .037-.115Zm1.557.513a.94.94 0 0 1-.356-.064.771.771 0 0 1-.438-.456.957.957 0 0 1-.06-.339v-.066c0-.139.021-.265.062-.377a.856.856 0 0 1 .169-.289.732.732 0 0 1 .255-.186.807.807 0 0 1 .32-.063c.127 0 .238.021.333.063a.626.626 0 0 1 .237.181c.063.077.11.168.14.274.032.106.048.223.048.351v.169h-1.371v-.284h.98v-.031a.552.552 0 0 0-.042-.2.341.341 0 0 0-.116-.151.35.35 0 0 0-.21-.057.36.36 0 0 0-.176.042.349.349 0 0 0-.126.12.628.628 0 0 0-.079.19 1.075 1.075 0 0 0-.026.248v.066c0 .077.01.149.031.216a.51.51 0 0 0 .095.172c.042.05.092.088.151.117a.551.551 0 0 0 .456-.016.593.593 0 0 0 .194-.163l.208.202a.76.76 0 0 1-.374.284.912.912 0 0 1-.305.047Z" fill="#000" fill-opacity=".76"/></g><g filter="url(#d)"><path d="M81.883 199.877c0-.65.527-1.178 1.178-1.178h22.708c.65 0 1.177.528 1.177 1.178v9.166c0 .65-.527 1.178-1.177 1.178H83.06c-.65 0-1.177-.528-1.177-1.178v-9.166Z" fill="#fff"/><path d="M82.003 199.877c0-.584.473-1.058 1.058-1.058h22.708c.584 0 1.057.474 1.057 1.058v9.166c0 .584-.473 1.058-1.057 1.058H83.06a1.058 1.058 0 0 1-1.057-1.058v-9.166Z" stroke="#000" stroke-opacity=".38" stroke-width=".24"/><path d="m90.492 204.423.476-1.853h.25l-.029.478-.508 1.911h-.26l.071-.536Zm-.356-1.853.386 1.838.034.551h-.275l-.553-2.389h.408Zm1.621 1.833.38-1.833h.41l-.552 2.389h-.276l.038-.556Zm-.443-1.833.471 1.857.069.532h-.26l-.5-1.911-.026-.478h.246Zm2.485 2.033v-.847a.364.364 0 0 0-.034-.164.24.24 0 0 0-.105-.106.36.36 0 0 0-.174-.038.392.392 0 0 0-.168.033.272.272 0 0 0-.11.088.218.218 0 0 0-.039.127h-.394c0-.07.017-.138.051-.204a.545.545 0 0 1 .148-.175.736.736 0 0 1 .231-.122.979.979 0 0 1 .302-.044c.134 0 .252.022.355.067a.54.54 0 0 1 .244.204c.06.089.09.202.09.338v.789c0 .081.006.154.017.218a.715.715 0 0 0 .05.166v.026h-.405a.713.713 0 0 1-.044-.162 1.345 1.345 0 0 1-.015-.194Zm.058-.724.003.245h-.284a.8.8 0 0 0-.194.021.4.4 0 0 0-.139.059.263.263 0 0 0-.084.095.284.284 0 0 0 .005.256.228.228 0 0 0 .096.091.333.333 0 0 0 .154.032.433.433 0 0 0 .356-.172.268.268 0 0 0 .056-.139l.128.175a.616.616 0 0 1-.068.145.706.706 0 0 1-.124.147.63.63 0 0 1-.425.158.677.677 0 0 1-.31-.069.55.55 0 0 1-.214-.189.564.564 0 0 1-.025-.52.498.498 0 0 1 .158-.184.763.763 0 0 1 .256-.111c.1-.026.216-.04.345-.04h.31Zm1.79.599a.195.195 0 0 0-.03-.106.25.25 0 0 0-.114-.089 1.117 1.117 0 0 0-.242-.072 2.22 2.22 0 0 1-.26-.074.79.79 0 0 1-.2-.107.411.411 0 0 1-.176-.344c0-.072.017-.141.048-.205a.513.513 0 0 1 .136-.171.658.658 0 0 1 .215-.116.883.883 0 0 1 .286-.043.89.89 0 0 1 .382.075c.107.05.19.117.246.202.057.085.085.18.085.286h-.395a.25.25 0 0 0-.036-.131.255.255 0 0 0-.105-.101.363.363 0 0 0-.177-.039.382.382 0 0 0-.17.033.232.232 0 0 0-.098.082.209.209 0 0 0-.014.192.192.192 0 0 0 .059.064.497.497 0 0 0 .111.052c.048.017.109.033.18.048.136.028.253.065.35.11a.56.56 0 0 1 .227.17.423.423 0 0 1 .078.263.467.467 0 0 1-.195.386.718.718 0 0 1-.228.109 1 1 0 0 1-.295.04.89.89 0 0 1-.409-.086.64.64 0 0 1-.254-.221.525.525 0 0 1-.085-.282h.382a.294.294 0 0 0 .06.175.327.327 0 0 0 .138.094.559.559 0 0 0 .352 0 .258.258 0 0 0 .11-.079.188.188 0 0 0 .037-.115Zm1.587-1.294v.289h-1v-.289h1Zm-.712-.435h.395v1.719c0 .055.008.097.023.127a.124.124 0 0 0 .067.057c.029.01.062.015.1.015a.664.664 0 0 0 .08-.005c.025-.003.045-.007.06-.01l.002.302a.863.863 0 0 1-.263.038.574.574 0 0 1-.241-.048.357.357 0 0 1-.164-.159.618.618 0 0 1-.06-.292v-1.744Zm1.84 2.243a.96.96 0 0 1-.356-.064.8.8 0 0 1-.269-.182.81.81 0 0 1-.169-.274.96.96 0 0 1-.059-.34v-.066c0-.138.02-.264.06-.377a.856.856 0 0 1 .17-.289.729.729 0 0 1 .256-.185.79.79 0 0 1 .32-.064c.127 0 .237.021.333.064a.635.635 0 0 1 .236.18c.063.077.11.168.141.274.032.107.048.224.048.352v.169H97.7v-.284h.981v-.031a.56.56 0 0 0-.043-.201.347.347 0 0 0-.116-.151.35.35 0 0 0-.21-.057.351.351 0 0 0-.302.162.634.634 0 0 0-.079.191 1.066 1.066 0 0 0-.026.247v.066c0 .078.01.15.031.217a.522.522 0 0 0 .095.172.448.448 0 0 0 .353.157.551.551 0 0 0 .448-.219l.208.201a.738.738 0 0 1-.374.284.887.887 0 0 1-.305.048Z" fill="#000" fill-opacity=".76"/></g><g filter="url(#e)"><path d="M81.883 214.264c0-.651.527-1.178 1.178-1.178h22.708c.65 0 1.177.527 1.177 1.178v9.166c0 .65-.527 1.177-1.177 1.177H83.06c-.65 0-1.177-.527-1.177-1.177v-9.166Z" fill="#fff"/><path d="M82.003 214.264c0-.585.473-1.058 1.058-1.058h22.708c.584 0 1.057.473 1.057 1.058v9.166c0 .584-.473 1.057-1.057 1.057H83.06a1.057 1.057 0 0 1-1.057-1.057v-9.166Z" stroke="#000" stroke-opacity=".38" stroke-width=".24"/><path d="M86.005 216.957h.845c.181 0 .336.027.464.082a.632.632 0 0 1 .294.243.708.708 0 0 1 .103.394.718.718 0 0 1-.066.315.641.641 0 0 1-.185.229.903.903 0 0 1-.286.143l-.124.061h-.76l-.003-.327h.57a.52.52 0 0 0 .245-.052.353.353 0 0 0 .148-.143.419.419 0 0 0 .05-.207.45.45 0 0 0-.048-.216.316.316 0 0 0-.148-.143.558.558 0 0 0-.254-.051h-.433v2.061h-.412v-2.389Zm1.363 2.389-.561-1.073.431-.002.57 1.053v.022h-.44Zm1.537.033a.96.96 0 0 1-.356-.064.787.787 0 0 1-.438-.457.957.957 0 0 1-.06-.339v-.066c0-.139.021-.264.061-.377a.856.856 0 0 1 .17-.289.716.716 0 0 1 .255-.185.79.79 0 0 1 .32-.064c.127 0 .238.021.333.064a.625.625 0 0 1 .237.18c.063.077.11.168.14.274.032.106.048.223.048.351v.169h-1.371v-.284h.98v-.031a.552.552 0 0 0-.042-.2.34.34 0 0 0-.116-.151.35.35 0 0 0-.21-.057.361.361 0 0 0-.176.042.358.358 0 0 0-.126.12.639.639 0 0 0-.079.19 1.076 1.076 0 0 0-.026.248v.066c0 .077.01.15.031.216a.525.525 0 0 0 .095.173.448.448 0 0 0 .353.157.55.55 0 0 0 .254-.057.592.592 0 0 0 .194-.163l.208.202a.76.76 0 0 1-.374.284.887.887 0 0 1-.305.048Zm1.784-.315a.393.393 0 0 0 .174-.038.334.334 0 0 0 .127-.108.296.296 0 0 0 .054-.16h.372a.556.556 0 0 1-.102.314.697.697 0 0 1-.26.224.782.782 0 0 1-.36.083.846.846 0 0 1-.354-.069.702.702 0 0 1-.251-.194.855.855 0 0 1-.15-.284 1.166 1.166 0 0 1-.05-.344v-.058c0-.122.016-.237.05-.344a.845.845 0 0 1 .15-.286.686.686 0 0 1 .251-.192c.1-.047.218-.07.353-.07.142 0 .267.028.374.085a.63.63 0 0 1 .253.235.66.66 0 0 1 .096.347h-.372a.398.398 0 0 0-.05-.177.33.33 0 0 0-.306-.175.367.367 0 0 0-.199.049.33.33 0 0 0-.123.131.643.643 0 0 0-.064.186 1.191 1.191 0 0 0-.018.211v.058c0 .073.006.144.018.213a.598.598 0 0 0 .063.185c.03.054.072.097.124.13a.38.38 0 0 0 .2.048Zm1.495-1.493v1.775h-.397v-1.775h.397Zm-.424-.466c0-.061.02-.11.06-.15.04-.04.096-.06.167-.06.07 0 .125.02.166.06.04.04.06.089.06.15 0 .059-.02.108-.06.147a.225.225 0 0 1-.166.059.227.227 0 0 1-.168-.059.199.199 0 0 1-.059-.147Zm1.294.804v1.437h-.395v-1.775h.377l.018.338Zm.543-.35-.003.368a.491.491 0 0 0-.34.016.343.343 0 0 0-.208.21.573.573 0 0 0-.033.169l-.09.007c0-.112.011-.215.033-.311a.857.857 0 0 1 .098-.251.511.511 0 0 1 .168-.169.454.454 0 0 1 .312-.054c.028.005.05.01.063.015Zm.981 1.505a.392.392 0 0 0 .174-.038.335.335 0 0 0 .126-.108.296.296 0 0 0 .055-.16h.372a.556.556 0 0 1-.102.314.697.697 0 0 1-.26.224.782.782 0 0 1-.36.083.845.845 0 0 1-.354-.069.7.7 0 0 1-.251-.194.853.853 0 0 1-.151-.284 1.17 1.17 0 0 1-.05-.344v-.058c0-.122.017-.237.05-.344a.844.844 0 0 1 .15-.286.685.685 0 0 1 .252-.192c.1-.047.218-.07.352-.07.143 0 .267.028.374.085a.63.63 0 0 1 .253.235.659.659 0 0 1 .097.347h-.373a.4.4 0 0 0-.049-.177.332.332 0 0 0-.306-.175.367.367 0 0 0-.199.049.331.331 0 0 0-.123.131.65.65 0 0 0-.064.186 1.201 1.201 0 0 0-.018.211v.058c0 .073.006.144.018.213a.6.6 0 0 0 .062.185c.03.054.073.097.125.13a.38.38 0 0 0 .2.048Zm2.14-.137v-1.356h.396v1.775h-.374l-.023-.419Zm.055-.369.133-.003c0 .119-.013.229-.04.33a.776.776 0 0 1-.121.261.574.574 0 0 1-.21.172.717.717 0 0 1-.307.061.723.723 0 0 1-.238-.038.48.48 0 0 1-.306-.322.946.946 0 0 1-.043-.302v-1.146h.395v1.15c0 .064.008.118.023.162a.27.27 0 0 0 .063.103.216.216 0 0 0 .091.056.37.37 0 0 0 .112.017.467.467 0 0 0 .266-.066.364.364 0 0 0 .14-.18.724.724 0 0 0 .042-.255Zm1.21-1.732v2.52h-.397v-2.52h.397Zm1.475 2.164v-.847a.365.365 0 0 0-.035-.164.246.246 0 0 0-.105-.107.361.361 0 0 0-.174-.037.392.392 0 0 0-.167.033.264.264 0 0 0-.11.088.212.212 0 0 0-.04.126h-.393c0-.07.017-.137.05-.203a.548.548 0 0 1 .148-.176.755.755 0 0 1 .232-.121.978.978 0 0 1 .302-.044c.133 0 .251.022.354.067a.543.543 0 0 1 .245.203c.06.09.09.203.09.338v.79c0 .08.005.153.016.218a.702.702 0 0 0 .051.165v.027h-.405a.703.703 0 0 1-.044-.163 1.307 1.307 0 0 1-.015-.193Zm.057-.724.003.245h-.283a.8.8 0 0 0-.194.021.399.399 0 0 0-.14.059.256.256 0 0 0-.111.222c0 .047.01.09.033.129a.232.232 0 0 0 .095.09.433.433 0 0 0 .51-.139.268.268 0 0 0 .056-.14l.128.176a.685.685 0 0 1-.192.292.612.612 0 0 1-.425.158.676.676 0 0 1-.31-.069.55.55 0 0 1-.213-.189.563.563 0 0 1-.025-.52.49.49 0 0 1 .158-.184.763.763 0 0 1 .255-.111c.101-.027.216-.04.345-.04h.31Zm1.608-.695v.288h-1.001v-.288h1.001Zm-.712-.435h.395v1.719a.28.28 0 0 0 .023.126.122.122 0 0 0 .067.058c.029.01.062.015.1.015a.656.656 0 0 0 .079-.005l.061-.01.001.302a1.055 1.055 0 0 1-.262.038.573.573 0 0 1-.241-.048.355.355 0 0 1-.164-.159.61.61 0 0 1-.059-.292v-1.744Zm1.84 2.243a.96.96 0 0 1-.356-.064.783.783 0 0 1-.438-.457.944.944 0 0 1-.059-.339v-.066c0-.139.02-.264.06-.377a.868.868 0 0 1 .169-.289.728.728 0 0 1 .256-.185.792.792 0 0 1 .32-.064c.127 0 .238.021.333.064a.634.634 0 0 1 .237.18c.063.077.11.168.141.274.031.106.047.223.047.351v.169h-1.371v-.284h.981v-.031a.555.555 0 0 0-.043-.2.342.342 0 0 0-.116-.151.353.353 0 0 0-.21-.057.363.363 0 0 0-.176.042.36.36 0 0 0-.126.12.647.647 0 0 0-.079.19 1.104 1.104 0 0 0-.026.248v.066c0 .077.01.15.031.216a.538.538 0 0 0 .095.173.453.453 0 0 0 .151.116.55.55 0 0 0 .65-.179l.208.202a.754.754 0 0 1-.374.284.884.884 0 0 1-.305.048Z" fill="#000" fill-opacity=".76"/></g><g filter="url(#f)"><path d="M81.883 228.648c0-.65.527-1.177 1.178-1.177h22.708c.65 0 1.177.527 1.177 1.177v9.166c0 .651-.527 1.178-1.177 1.178H83.06c-.65 0-1.177-.527-1.177-1.178v-9.166Z" fill="#fff"/><path d="M82.003 228.648c0-.584.473-1.057 1.058-1.057h22.708c.584 0 1.057.473 1.057 1.057v9.166c0 .585-.473 1.058-1.057 1.058H83.06a1.057 1.057 0 0 1-1.057-1.058v-9.166Z" stroke="#000" stroke-opacity=".38" stroke-width=".24"/><path d="M90.775 232.953h.41a.944.944 0 0 1-.13.418.777.777 0 0 1-.314.287c-.135.07-.298.105-.49.105a.98.98 0 0 1-.4-.078.885.885 0 0 1-.303-.227 1.02 1.02 0 0 1-.193-.356 1.548 1.548 0 0 1-.066-.466v-.198c0-.172.022-.327.067-.466.046-.139.112-.258.197-.356a.84.84 0 0 1 .307-.228.995.995 0 0 1 .405-.079c.19 0 .351.035.483.105.13.07.233.167.305.29.073.124.118.266.134.425h-.41a.754.754 0 0 0-.072-.264.371.371 0 0 0-.16-.167.567.567 0 0 0-.28-.059.47.47 0 0 0-.422.206.749.749 0 0 0-.106.251 1.502 1.502 0 0 0-.035.338v.202c0 .12.01.23.032.328a.798.798 0 0 0 .098.251c.045.07.102.124.17.163a.505.505 0 0 0 .248.057.61.61 0 0 0 .284-.056.37.37 0 0 0 .166-.162.74.74 0 0 0 .075-.264Zm1.21-1.743v2.52h-.398v-2.52h.397Zm.397 1.653v-.038a1.1 1.1 0 0 1 .056-.356.841.841 0 0 1 .16-.287.73.73 0 0 1 .26-.191.843.843 0 0 1 .348-.068c.13 0 .246.022.348.068.103.045.19.109.26.191a.825.825 0 0 1 .163.287c.037.109.056.228.056.356v.038c0 .128-.019.246-.056.356a.853.853 0 0 1-.162.287.752.752 0 0 1-.26.19.847.847 0 0 1-.346.067.863.863 0 0 1-.35-.067.752.752 0 0 1-.258-.19.855.855 0 0 1-.163-.287 1.104 1.104 0 0 1-.056-.356Zm.396-.038v.038c0 .079.008.155.024.226a.58.58 0 0 0 .077.187.371.371 0 0 0 .33.172.373.373 0 0 0 .325-.172.58.58 0 0 0 .077-.187.946.946 0 0 0 .026-.226v-.038a.915.915 0 0 0-.026-.223.578.578 0 0 0-.079-.189.377.377 0 0 0-.326-.175.376.376 0 0 0-.194.047.382.382 0 0 0-.133.128.6.6 0 0 0-.077.189.973.973 0 0 0-.024.223Zm2.623.425a.2.2 0 0 0-.03-.107.25.25 0 0 0-.113-.088 1.059 1.059 0 0 0-.243-.073 2.045 2.045 0 0 1-.26-.073.859.859 0 0 1-.2-.107.407.407 0 0 1-.176-.345.46.46 0 0 1 .049-.205.52.52 0 0 1 .136-.17.66.66 0 0 1 .215-.117.912.912 0 0 1 .285-.042.89.89 0 0 1 .383.075c.107.049.189.116.246.202a.496.496 0 0 1 .085.285h-.395a.25.25 0 0 0-.036-.131.247.247 0 0 0-.105-.1.362.362 0 0 0-.178-.039.383.383 0 0 0-.169.032.232.232 0 0 0-.098.082.21.21 0 0 0-.015.192.183.183 0 0 0 .06.064.495.495 0 0 0 .11.053c.049.016.11.032.181.047.136.029.252.065.35.11a.561.561 0 0 1 .226.171.42.42 0 0 1 .079.262.467.467 0 0 1-.195.386.72.72 0 0 1-.228.11 1.036 1.036 0 0 1-.296.039.89.89 0 0 1-.408-.085.65.65 0 0 1-.255-.222.52.52 0 0 1-.085-.282h.382a.297.297 0 0 0 .061.176.317.317 0 0 0 .138.093.53.53 0 0 0 .172.028.49.49 0 0 0 .179-.028.257.257 0 0 0 .11-.078.19.19 0 0 0 .038-.115Zm1.556.513a.94.94 0 0 1-.356-.064.771.771 0 0 1-.438-.456.957.957 0 0 1-.059-.339v-.066c0-.139.02-.265.06-.377a.856.856 0 0 1 .17-.289.732.732 0 0 1 .256-.186.807.807 0 0 1 .32-.063c.127 0 .237.021.333.063a.627.627 0 0 1 .236.181c.063.077.11.168.141.274.032.106.048.223.048.351v.169h-1.372v-.284h.981v-.031a.552.552 0 0 0-.043-.2.341.341 0 0 0-.116-.151.35.35 0 0 0-.21-.057.36.36 0 0 0-.175.042.349.349 0 0 0-.127.12.628.628 0 0 0-.079.19 1.075 1.075 0 0 0-.026.248v.066c0 .077.01.149.031.216a.51.51 0 0 0 .096.172c.041.05.091.088.15.117a.551.551 0 0 0 .456-.016.593.593 0 0 0 .194-.163l.208.202a.76.76 0 0 1-.374.284.912.912 0 0 1-.305.047Zm2.143-.4v-2.153h.397v2.52h-.36l-.037-.367Zm-1.155-.5v-.035c0-.134.015-.257.047-.367a.855.855 0 0 1 .138-.287.61.61 0 0 1 .512-.251c.107 0 .201.02.282.062.08.041.15.101.207.179a.918.918 0 0 1 .136.275c.034.106.058.225.072.355v.11a1.78 1.78 0 0 1-.072.347.943.943 0 0 1-.136.273.598.598 0 0 1-.209.177.62.62 0 0 1-.284.062.619.619 0 0 1-.508-.256.893.893 0 0 1-.138-.285 1.3 1.3 0 0 1-.047-.359Zm.395-.035v.035c0 .081.007.156.021.226.015.07.039.132.07.185a.363.363 0 0 0 .124.125c.051.03.112.044.183.044.09 0 .164-.019.222-.059a.398.398 0 0 0 .136-.159.74.74 0 0 0 .07-.226v-.297a.732.732 0 0 0-.042-.181.498.498 0 0 0-.08-.146.344.344 0 0 0-.127-.098.397.397 0 0 0-.175-.036.343.343 0 0 0-.309.172.624.624 0 0 0-.07.187 1.081 1.081 0 0 0-.023.228Z" fill="#000" fill-opacity=".76"/></g><path d="M95.368 165.822H89.78v8.641h5.107a.48.48 0 0 1 .48.48v7.201s0 3.601 1.92 5.521c2.16 2.16 5.281 2.16 5.281 2.16h13.441v-8.641h-12.961a.48.48 0 0 1-.48-.48v-6.721s0-3.6-1.441-5.52c-1.98-2.641-5.76-2.641-5.76-2.641Z" fill="#fff"/><path d="M95.368 165.942H95.377l.03.001.121.004a9.464 9.464 0 0 1 1.945.321c1.18.326 2.591.976 3.559 2.267.702.935 1.059 2.291 1.238 3.427a15.284 15.284 0 0 1 .176 1.866l.002.116v.03l.001.007v6.723a.6.6 0 0 0 .6.6h12.841v8.401h-13.354l-.1-.004a6.252 6.252 0 0 1-.376-.029 8.935 8.935 0 0 1-1.292-.233c-1.037-.267-2.335-.799-3.395-1.859-.936-.936-1.41-2.289-1.648-3.42a11.645 11.645 0 0 1-.234-1.862 5.88 5.88 0 0 1-.003-.115V174.943a.6.6 0 0 0-.6-.6H89.9v-8.401h5.467Z" stroke="#000" stroke-opacity=".87" stroke-width=".24"/><path fill="#fff" d="M44 157.18h72v8.64H44z"/><path stroke="#000" stroke-opacity=".87" stroke-width=".24" d="M44.12 157.3h71.76v8.4H44.12z"/><defs><filter id="a" x="48.289" y="196.344" width="34.484" height="20.943" filterUnits="userSpaceOnUse" color-interpolation-filters="sRGB"><feFlood flood-opacity="0" result="BackgroundImageFix"/><feColorMatrix in="SourceAlpha" values="0 0 0 0 0 0 0 0 0 0 0 0 0 0 0 0 0 0 127 0" result="hardAlpha"/><feOffset dy="2.355"/><feGaussianBlur stdDeviation="2.355"/><feComposite in2="hardAlpha" operator="out"/><feColorMatrix values="0 0 0 0 0 0 0 0 0 0 0 0 0 0 0 0 0 0 0.04 0"/><feBlend in2="BackgroundImageFix" result="effect1_dropShadow_11143_177650"/><feBlend in="SourceGraphic" in2="effect1_dropShadow_11143_177650" result="shape"/></filter><filter id="b" x="48.289" y="210.731" width="34.484" height="20.943" filterUnits="userSpaceOnUse" color-interpolation-filters="sRGB"><feFlood flood-opacity="0" result="BackgroundImageFix"/><feColorMatrix in="SourceAlpha" values="0 0 0 0 0 0 0 0 0 0 0 0 0 0 0 0 0 0 127 0" result="hardAlpha"/><feOffset dy="2.355"/><feGaussianBlur stdDeviation="2.355"/><feComposite in2="hardAlpha" operator="out"/><feColorMatrix values="0 0 0 0 0 0 0 0 0 0 0 0 0 0 0 0 0 0 0.04 0"/><feBlend in2="BackgroundImageFix" result="effect1_dropShadow_11143_177650"/><feBlend in="SourceGraphic" in2="effect1_dropShadow_11143_177650" result="shape"/></filter><filter id="c" x="48.289" y="225.115" width="34.484" height="20.943" filterUnits="userSpaceOnUse" color-interpolation-filters="sRGB"><feFlood flood-opacity="0" result="BackgroundImageFix"/><feColorMatrix in="SourceAlpha" values="0 0 0 0 0 0 0 0 0 0 0 0 0 0 0 0 0 0 127 0" result="hardAlpha"/><feOffset dy="2.355"/><feGaussianBlur stdDeviation="2.355"/><feComposite in2="hardAlpha" operator="out"/><feColorMatrix values="0 0 0 0 0 0 0 0 0 0 0 0 0 0 0 0 0 0 0.04 0"/><feBlend in2="BackgroundImageFix" result="effect1_dropShadow_11143_177650"/><feBlend in="SourceGraphic" in2="effect1_dropShadow_11143_177650" result="shape"/></filter><filter id="d" x="77.172" y="196.344" width="34.484" height="20.943" filterUnits="userSpaceOnUse" color-interpolation-filters="sRGB"><feFlood flood-opacity="0" result="BackgroundImageFix"/><feColorMatrix in="SourceAlpha" values="0 0 0 0 0 0 0 0 0 0 0 0 0 0 0 0 0 0 127 0" result="hardAlpha"/><feOffset dy="2.355"/><feGaussianBlur stdDeviation="2.355"/><feComposite in2="hardAlpha" operator="out"/><feColorMatrix values="0 0 0 0 0 0 0 0 0 0 0 0 0 0 0 0 0 0 0.04 0"/><feBlend in2="BackgroundImageFix" result="effect1_dropShadow_11143_177650"/><feBlend in="SourceGraphic" in2="effect1_dropShadow_11143_177650" result="shape"/></filter><filter id="e" x="77.172" y="210.731" width="34.484" height="20.943" filterUnits="userSpaceOnUse" color-interpolation-filters="sRGB"><feFlood flood-opacity="0" result="BackgroundImageFix"/><feColorMatrix in="SourceAlpha" values="0 0 0 0 0 0 0 0 0 0 0 0 0 0 0 0 0 0 127 0" result="hardAlpha"/><feOffset dy="2.355"/><feGaussianBlur stdDeviation="2.355"/><feComposite in2="hardAlpha" operator="out"/><feColorMatrix values="0 0 0 0 0 0 0 0 0 0 0 0 0 0 0 0 0 0 0.04 0"/><feBlend in2="BackgroundImageFix" result="effect1_dropShadow_11143_177650"/><feBlend in="SourceGraphic" in2="effect1_dropShadow_11143_177650" result="shape"/></filter><filter id="f" x="77.172" y="225.115" width="34.484" height="20.943" filterUnits="userSpaceOnUse" color-interpolation-filters="sRGB"><feFlood flood-opacity="0" result="BackgroundImageFix"/><feColorMatrix in="SourceAlpha" values="0 0 0 0 0 0 0 0 0 0 0 0 0 0 0 0 0 0 127 0" result="hardAlpha"/><feOffset dy="2.355"/><feGaussianBlur stdDeviation="2.355"/><feComposite in2="hardAlpha" operator="out"/><feColorMatrix values="0 0 0 0 0 0 0 0 0 0 0 0 0 0 0 0 0 0 0.04 0"/><feBlend in2="BackgroundImageFix" result="effect1_dropShadow_11143_177650"/><feBlend in="SourceGraphic" in2="effect1_dropShadow_11143_177650" result="shape"/></filter></defs></svg>