<svg width="337" height="291" viewBox="0 0 337 291" fill="none" xmlns="http://www.w3.org/2000/svg">
<rect x="83" y="0.5" width="160" height="160" rx="40" fill="#E4EFFD"/>
<rect x="177.75" y="100.953" width="158.5" height="158.5" rx="39.25" fill="#F4F8FE" stroke="#3E9AF8" stroke-width="1.5"/>
<rect width="60" height="120" transform="translate(227 120.5)" fill="#F4F8FE"/>
<path d="M232.515 173.662C232.496 173.335 232.344 173.03 232.095 172.817L229.386 170.508C228.108 169.419 227.345 167.855 227.292 166.178C227.097 159.937 226.703 143.905 227.382 132.95C227.615 129.179 228.111 123.842 228.327 121.58C228.385 120.965 228.902 120.5 229.52 120.5H284.48C285.098 120.5 285.615 120.965 285.673 121.58C285.889 123.842 286.385 129.179 286.618 132.95C287.297 143.905 286.903 159.937 286.708 166.178C286.655 167.855 285.892 169.419 284.614 170.508L281.905 172.817C281.656 173.03 281.504 173.335 281.485 173.662L278.914 217.764C278.733 220.88 277.262 223.779 274.855 225.765C264.489 234.32 249.511 234.32 239.145 225.765C236.738 223.779 235.267 220.88 235.086 217.764L232.515 173.662Z" fill="white"/>
<path d="M232.814 173.644C232.791 173.236 232.601 172.855 232.289 172.589L229.581 170.28C228.366 169.245 227.642 167.76 227.592 166.168C227.397 159.926 227.003 143.908 227.681 132.969C227.914 129.203 228.409 123.871 228.625 121.609C228.669 121.149 229.055 120.8 229.52 120.8H284.48C284.945 120.8 285.331 121.149 285.375 121.609C285.591 123.871 286.086 129.203 286.319 132.969C286.997 143.908 286.603 159.926 286.408 166.168C286.358 167.76 285.634 169.245 284.419 170.28L281.711 172.589C281.399 172.855 281.209 173.236 281.186 173.644L278.615 217.747C278.438 220.779 277.006 223.6 274.664 225.534C264.409 233.997 249.591 233.997 239.336 225.534C236.994 223.6 235.562 220.779 235.385 217.747L232.814 173.644Z" stroke="black" stroke-opacity="0.87" stroke-width="0.6"/>
<rect x="0.75" y="131.25" width="158.5" height="158.5" rx="39.25" fill="#F4F8FE" stroke="#3E9AF8" stroke-width="1.5"/>
<rect width="72" height="120" transform="translate(44 149.5)" fill="#F4F8FE"/>
<path d="M60.5079 263.02H99.4884L105.918 265.9H54.0781L60.5079 263.02Z" fill="white"/>
<path d="M54.6396 265.78L60.5335 263.14H99.4627L105.357 265.78H54.6396Z" stroke="black" stroke-opacity="0.87" stroke-width="0.24"/>
<path d="M44 196.061C44 184.132 53.6705 174.461 65.5999 174.461C70.5922 174.461 75.6967 174.461 80 174.461C84.3117 174.461 89.4135 174.461 94.4002 174.461C106.33 174.461 116 184.132 116 196.061V245.501C116 255.31 108.049 263.261 98.24 263.261H61.76C51.9514 263.261 44 255.31 44 245.501L44 196.061Z" fill="white"/>
<path d="M44.12 196.061C44.12 184.198 53.7368 174.581 65.5999 174.581L80 174.581H80.0253H80.0506H80.0759H80.1012H80.1266H80.1519H80.1773H80.2027H80.2281H80.2536H80.279H80.3045H80.33H80.3555H80.381H80.4065H80.4321H80.4577H80.4832H80.5089H80.5345H80.5601H80.5858H80.6115H80.6372H80.6629H80.6886H80.7143H80.7401H80.7659H80.7917H80.8175H80.8433H80.8692H80.895H80.9209H80.9468H80.9727H80.9987H81.0246H81.0506H81.0765H81.1025H81.1285H81.1546H81.1806H81.2067H81.2328H81.2589H81.285H81.3111H81.3372H81.3634H81.3896H81.4157H81.442H81.4682H81.4944H81.5207H81.5469H81.5732H81.5995H81.6258H81.6522H81.6785H81.7049H81.7312H81.7576H81.784H81.8105H81.8369H81.8634H81.8898H81.9163H81.9428H81.9693H81.9958H82.0224H82.049H82.0755H82.1021H82.1287H82.1553H82.182H82.2086H82.2353H82.262H82.2886H82.3153H82.3421H82.3688H82.3956H82.4223H82.4491H82.4759H82.5027H82.5295H82.5564H82.5832H82.6101H82.6369H82.6638H82.6907H82.7177H82.7446H82.7715H82.7985H82.8255H82.8525H82.8795H82.9065H82.9335H82.9605H82.9876H83.0147H83.0417H83.0688H83.096H83.1231H83.1502H83.1774H83.2045H83.2317H83.2589H83.2861H83.3133H83.3405H83.3678H83.395H83.4223H83.4496H83.4769H83.5042H83.5315H83.5588H83.5862H83.6135H83.6409H83.6683H83.6957H83.7231H83.7505H83.7779H83.8053H83.8328H83.8603H83.8877H83.9152H83.9427H83.9703H83.9978H84.0253H84.0529H84.0804H84.108H84.1356H84.1632H84.1908H84.2184H84.2461H84.2737H84.3014H84.329H84.3567H84.3844H84.4121H84.4398H84.4675H84.4953H84.523H84.5508H84.5786H84.6063H84.6341H84.6619H84.6898H84.7176H84.7454H84.7733H84.8011H84.829H84.8569H84.8848H84.9127H84.9406H84.9685H84.9964H85.0244H85.0523H85.0803H85.1083H85.1362H85.1642H85.1922H85.2203H85.2483H85.2763H85.3044H85.3324H85.3605H85.3886H85.4167H85.4448H85.4729H85.501H85.5291H85.5572H85.5854H85.6135H85.6417H85.6699H85.6981H85.7263H85.7545H85.7827H85.8109H85.8391H85.8674H85.8956H85.9239H85.9521H85.9804H86.0087H86.037H86.0653H86.0936H86.1219H86.1503H86.1786H86.207H86.2353H86.2637H86.292H86.3204H86.3488H86.3772H86.4056H86.4341H86.4625H86.4909H86.5194H86.5478H86.5763H86.6047H86.6332H86.6617H86.6902H86.7187H86.7472H86.7757H86.8042H86.8328H86.8613H86.8899H86.9184H86.947H86.9755H87.0041H87.0327H87.0613H87.0899H87.1185H87.1471H87.1758H87.2044H87.233H87.2617H87.2903H87.319H87.3477H87.3763H87.405H87.4337H87.4624H87.4911H87.5198H87.5485H87.5773H87.606H87.6347H87.6635H87.6922H87.721H87.7497H87.7785H87.8073H87.8361H87.8649H87.8937H87.9225H87.9513H87.9801H88.0089H88.0378H88.0666H88.0954H88.1243H88.1531H88.182H88.2108H88.2397H88.2686H88.2975H88.3264H88.3553H88.3842H88.4131H88.442H88.4709H88.4998H88.5288H88.5577H88.5866H88.6156H88.6445H88.6735H88.7024H88.7314H88.7604H88.7893H88.8183H88.8473H88.8763H88.9053H88.9343H88.9633H88.9923H89.0213H89.0504H89.0794H89.1084H89.1375H89.1665H89.1955H89.2246H89.2536H89.2827H89.3118H89.3408H89.3699H89.399H89.4281H89.4571H89.4862H89.5153H89.5444H89.5735H89.6026H89.6317H89.6608H89.69H89.7191H89.7482H89.7773H89.8065H89.8356H89.8647H89.8939H89.923H89.9522H89.9813H90.0105H90.0397H90.0688H90.098H90.1272H90.1563H90.1855H90.2147H90.2439H90.2731H90.3022H90.3314H90.3606H90.3898H90.419H90.4482H90.4774H90.5067H90.5359H90.5651H90.5943H90.6235H90.6527H90.682H90.7112H90.7404H90.7697H90.7989H90.8281H90.8574H90.8866H90.9159H90.9451H90.9744H91.0036H91.0329H91.0621H91.0914H91.1206H91.1499H91.1792H91.2084H91.2377H91.267H91.2962H91.3255H91.3548H91.3841H91.4133H91.4426H91.4719H91.5012H91.5305H91.5597H91.589H91.6183H91.6476H91.6769H91.7062H91.7355H91.7648H91.794H91.8233H91.8526H91.8819H91.9112H91.9405H91.9698H91.9991H92.0284H92.0577H92.087H92.1163H92.1456H92.1749H92.2042H92.2335H92.2628H92.2921H92.3214H92.3507H92.38H92.4094H92.4387H92.468H92.4973H92.5266H92.5559H92.5852H92.6145H92.6438H92.6731H92.7024H92.7317H92.761H92.7903H92.8196H92.8489H92.8782H92.9075H92.9368H92.9661H92.9954H93.0247H93.054H93.0833H93.1126H93.1419H93.1712H93.2005H93.2298H93.2591H93.2884H93.3176H93.3469H93.3762H93.4055H93.4348H93.4641H93.4934H93.5226H93.5519H93.5812H93.6105H93.6397H93.669H93.6983H93.7276H93.7568H93.7861H93.8153H93.8446H93.8739H93.9031H93.9324H93.9616H93.9909H94.0201H94.0494H94.0786H94.1079H94.1371H94.1664H94.1956H94.2248H94.2541H94.2833H94.3125H94.3418H94.371H94.4002C106.263 174.581 115.88 184.198 115.88 196.061V245.501C115.88 255.243 107.982 263.141 98.24 263.141H61.76C52.0177 263.141 44.12 255.243 44.12 245.501V196.061Z" stroke="black" stroke-opacity="0.87" stroke-width="0.24"/>
<rect x="53.6016" y="265.66" width="52.8" height="3.84" rx="0.835455" fill="white"/>
<rect x="53.7216" y="265.78" width="52.56" height="3.6" rx="0.715455" stroke="black" stroke-opacity="0.87" stroke-width="0.24"/>
<path d="M69.9219 174.579C69.9219 174.645 69.9756 174.699 70.0419 174.699L89.9619 174.699C90.0281 174.699 90.0819 174.645 90.0819 174.579V165.579C90.0819 165.513 90.0281 165.459 89.9619 165.459H70.0419C69.9756 165.459 69.9219 165.513 69.9219 165.579V174.579Z" fill="white"/>
<path d="M70.0419 174.579V174.579L89.9619 174.579V165.579H70.0419L70.0419 174.579Z" stroke="black" stroke-opacity="0.87" stroke-width="0.24"/>
<path d="M69.9219 157.419C69.9219 157.485 69.9756 157.539 70.0419 157.539L89.9619 157.539C90.0281 157.539 90.0819 157.485 90.0819 157.419V149.739C90.0819 149.607 89.9744 149.499 89.8419 149.499H70.1619C70.0293 149.499 69.9219 149.607 69.9219 149.739V157.419Z" fill="white"/>
<path d="M70.0419 157.419L89.9619 157.419V149.739C89.9619 149.673 89.9081 149.619 89.8419 149.619H70.1619C70.0956 149.619 70.0419 149.673 70.0419 149.739V157.419L70.0419 157.419Z" stroke="black" stroke-opacity="0.87" stroke-width="0.24"/>
<g filter="url(#filter0_d_11143_177650)">
<rect x="53" y="198.699" width="25.0637" height="11.5214" rx="1.17772" fill="#999999"/>
<path d="M62.2486 202.57V204.959H61.8368V202.57H62.2486ZM63.2231 203.615V203.942H62.1436V203.615H63.2231ZM63.3593 202.57V202.898H62.1436V202.57H63.3593ZM64.1119 203.184V204.959H63.7149V203.184H64.1119ZM63.6886 202.718C63.6886 202.658 63.7083 202.608 63.7477 202.569C63.7882 202.528 63.844 202.508 63.915 202.508C63.985 202.508 64.0403 202.528 64.0807 202.569C64.1212 202.608 64.1415 202.658 64.1415 202.718C64.1415 202.777 64.1212 202.826 64.0807 202.866C64.0403 202.905 63.985 202.925 63.915 202.925C63.844 202.925 63.7882 202.905 63.7477 202.866C63.7083 202.826 63.6886 202.777 63.6886 202.718ZM65.0089 202.439V204.959H64.6119V202.439H65.0089ZM66.2964 203.184V203.473H65.2956V203.184H66.2964ZM65.5844 202.749H65.9798V204.468C65.9798 204.523 65.9874 204.565 66.0027 204.595C66.0191 204.623 66.0415 204.642 66.07 204.652C66.0984 204.662 66.1318 204.667 66.1701 204.667C66.1974 204.667 66.2237 204.665 66.2488 204.662C66.274 204.659 66.2942 204.655 66.3095 204.652L66.3112 204.954C66.2783 204.964 66.2401 204.973 66.1963 204.98C66.1537 204.988 66.1044 204.992 66.0487 204.992C65.9579 204.992 65.8775 204.976 65.8075 204.944C65.7375 204.911 65.6828 204.858 65.6434 204.785C65.604 204.712 65.5844 204.614 65.5844 204.493V202.749ZM67.4247 204.992C67.2935 204.992 67.1748 204.97 67.0687 204.928C66.9637 204.884 66.874 204.823 66.7996 204.746C66.7264 204.668 66.67 204.577 66.6307 204.472C66.5913 204.367 66.5716 204.254 66.5716 204.132V204.066C66.5716 203.928 66.5918 203.802 66.6323 203.689C66.6728 203.576 66.7291 203.48 66.8013 203.4C66.8735 203.319 66.9588 203.258 67.0572 203.215C67.1557 203.172 67.2623 203.151 67.3771 203.151C67.504 203.151 67.615 203.172 67.7102 203.215C67.8053 203.258 67.8841 203.318 67.9464 203.395C68.0099 203.472 68.0569 203.563 68.0875 203.669C68.1193 203.776 68.1351 203.893 68.1351 204.021V204.19H66.7635V203.906H67.7446V203.875C67.7425 203.803 67.7282 203.737 67.702 203.674C67.6768 203.612 67.638 203.562 67.5855 203.523C67.533 203.485 67.463 203.466 67.3755 203.466C67.3099 203.466 67.2514 203.48 67.2 203.509C67.1496 203.536 67.1075 203.576 67.0736 203.628C67.0397 203.681 67.0135 203.744 66.9949 203.819C66.9774 203.892 66.9686 203.975 66.9686 204.066V204.132C66.9686 204.21 66.979 204.282 66.9998 204.349C67.0217 204.414 67.0534 204.472 67.095 204.521C67.1365 204.57 67.1868 204.609 67.2459 204.637C67.305 204.665 67.3722 204.678 67.4477 204.678C67.5428 204.678 67.6276 204.659 67.702 204.621C67.7764 204.583 67.8409 204.529 67.8956 204.459L68.1039 204.66C68.0657 204.716 68.0159 204.77 67.9546 204.821C67.8934 204.871 67.8185 204.913 67.7299 204.944C67.6424 204.976 67.5407 204.992 67.4247 204.992ZM68.8812 203.522V204.959H68.4858V203.184H68.8631L68.8812 203.522ZM69.4242 203.172L69.4209 203.54C69.3969 203.535 69.3706 203.532 69.3422 203.53C69.3148 203.528 69.2875 203.527 69.2602 203.527C69.1923 203.527 69.1327 203.537 69.0813 203.556C69.0299 203.575 68.9867 203.602 68.9517 203.638C68.9178 203.673 68.8916 203.716 68.873 203.766C68.8544 203.817 68.8434 203.873 68.8402 203.935L68.7499 203.942C68.7499 203.83 68.7609 203.727 68.7827 203.632C68.8046 203.537 68.8374 203.453 68.8812 203.381C68.926 203.309 68.9818 203.252 69.0485 203.212C69.1163 203.171 69.1945 203.151 69.2831 203.151C69.3072 203.151 69.3329 203.153 69.3602 203.158C69.3887 203.162 69.41 203.167 69.4242 203.172Z" fill="black" fill-opacity="0.87"/>
</g>
<g filter="url(#filter1_d_11143_177650)">
<path d="M53 214.264C53 213.613 53.5273 213.086 54.1777 213.086H76.8859C77.5364 213.086 78.0637 213.613 78.0637 214.264V223.43C78.0637 224.08 77.5364 224.607 76.8859 224.607H54.1777C53.5273 224.607 53 224.08 53 223.43V214.264Z" fill="white"/>
<path d="M53.12 214.264C53.12 213.679 53.5936 213.206 54.1777 213.206H76.8859C77.4701 213.206 77.9437 213.679 77.9437 214.264V223.43C77.9437 224.014 77.4701 224.487 76.8859 224.487H54.1777C53.5936 224.487 53.12 224.014 53.12 223.43V214.264Z" stroke="black" stroke-opacity="0.38" stroke-width="0.24"/>
<path d="M58.8562 218.266H58.2475L58.2442 217.966H58.7758C58.8655 217.966 58.9415 217.953 59.0039 217.927C59.0673 217.899 59.1154 217.86 59.1482 217.81C59.181 217.759 59.1974 217.697 59.1974 217.625C59.1974 217.545 59.1821 217.48 59.1515 217.429C59.1209 217.379 59.0739 217.343 59.0104 217.32C58.9481 217.297 58.8682 217.285 58.7709 217.285H58.3722V219.346H57.9604V216.957H58.7709C58.9021 216.957 59.0192 216.97 59.122 216.995C59.2259 217.02 59.3139 217.059 59.3861 217.113C59.4594 217.165 59.5146 217.232 59.5518 217.313C59.5901 217.394 59.6092 217.49 59.6092 217.602C59.6092 217.7 59.5857 217.79 59.5387 217.872C59.4917 217.953 59.4222 218.02 59.3303 218.071C59.2385 218.122 59.1242 218.153 58.9874 218.163L58.8562 218.266ZM58.8382 219.346H58.1179L58.3033 219.019H58.8382C58.9311 219.019 59.0088 219.004 59.0711 218.973C59.1335 218.942 59.1799 218.898 59.2106 218.844C59.2423 218.788 59.2582 218.723 59.2582 218.648C59.2582 218.571 59.2445 218.504 59.2171 218.447C59.1898 218.389 59.1466 218.344 59.0875 218.314C59.0285 218.282 58.9514 218.266 58.8562 218.266H58.3935L58.3968 217.966H58.9989L59.0924 218.079C59.2237 218.084 59.3314 218.113 59.4157 218.166C59.501 218.22 59.5644 218.289 59.606 218.374C59.6475 218.46 59.6683 218.552 59.6683 218.65C59.6683 218.802 59.6349 218.93 59.5682 219.032C59.5026 219.135 59.408 219.213 59.2844 219.267C59.1608 219.319 59.0121 219.346 58.8382 219.346ZM61.0854 218.99V218.143C61.0854 218.08 61.0739 218.025 61.0509 217.979C61.028 217.933 60.993 217.898 60.9459 217.872C60.9 217.847 60.842 217.835 60.772 217.835C60.7075 217.835 60.6517 217.846 60.6047 217.868C60.5577 217.889 60.521 217.919 60.4948 217.956C60.4685 217.993 60.4554 218.035 60.4554 218.082H60.0616C60.0616 218.012 60.0786 217.945 60.1125 217.879C60.1464 217.813 60.1956 217.755 60.2602 217.703C60.3247 217.652 60.4018 217.612 60.4915 217.582C60.5812 217.553 60.6818 217.538 60.7934 217.538C60.9268 217.538 61.0449 217.56 61.1477 217.605C61.2516 217.65 61.3331 217.718 61.3922 217.808C61.4523 217.898 61.4824 218.011 61.4824 218.146V218.936C61.4824 219.016 61.4879 219.089 61.4988 219.154C61.5109 219.217 61.5278 219.272 61.5497 219.319V219.346H61.1444C61.1259 219.303 61.1111 219.249 61.1002 219.183C61.0903 219.117 61.0854 219.052 61.0854 218.99ZM61.1428 218.266L61.1461 218.511H60.8623C60.789 218.511 60.7244 218.518 60.6687 218.532C60.6129 218.545 60.5664 218.565 60.5292 218.591C60.492 218.617 60.4641 218.649 60.4455 218.686C60.4269 218.723 60.4177 218.765 60.4177 218.813C60.4177 218.86 60.4286 218.903 60.4505 218.942C60.4723 218.98 60.5041 219.01 60.5456 219.032C60.5883 219.054 60.6397 219.065 60.6998 219.065C60.7808 219.065 60.8513 219.049 60.9115 219.016C60.9727 218.982 61.0209 218.941 61.0559 218.893C61.0909 218.844 61.1094 218.797 61.1116 218.753L61.2396 218.929C61.2265 218.974 61.2041 219.022 61.1723 219.073C61.1406 219.125 61.0991 219.174 61.0477 219.221C60.9973 219.267 60.9366 219.305 60.8655 219.334C60.7955 219.364 60.7146 219.379 60.6227 219.379C60.5068 219.379 60.4034 219.356 60.3127 219.31C60.2219 219.263 60.1508 219.2 60.0994 219.121C60.048 219.041 60.0223 218.951 60.0223 218.85C60.0223 218.756 60.0398 218.673 60.0748 218.601C60.1109 218.528 60.1634 218.466 60.2323 218.417C60.3023 218.368 60.3876 218.331 60.4882 218.306C60.5888 218.279 60.7037 218.266 60.8327 218.266H61.1428ZM62.6616 219.064C62.7261 219.064 62.7841 219.051 62.8355 219.026C62.888 219 62.9301 218.963 62.9618 218.918C62.9947 218.872 63.0127 218.819 63.016 218.758H63.3884C63.3862 218.873 63.3523 218.978 63.2867 219.072C63.2211 219.166 63.1341 219.241 63.0258 219.296C62.9175 219.351 62.7978 219.379 62.6665 219.379C62.5309 219.379 62.4128 219.356 62.3122 219.31C62.2115 219.263 62.1279 219.198 62.0611 219.116C61.9944 219.034 61.9441 218.939 61.9102 218.832C61.8774 218.725 61.861 218.61 61.861 218.488V218.43C61.861 218.308 61.8774 218.193 61.9102 218.086C61.9441 217.977 61.9944 217.882 62.0611 217.8C62.1279 217.718 62.2115 217.654 62.3122 217.608C62.4128 217.561 62.5304 217.538 62.6649 217.538C62.8071 217.538 62.9318 217.566 63.039 217.623C63.1461 217.679 63.2304 217.757 63.2916 217.858C63.354 217.957 63.3862 218.073 63.3884 218.205H63.016C63.0127 218.14 62.9963 218.081 62.9668 218.028C62.9383 217.975 62.8979 217.932 62.8454 217.9C62.794 217.869 62.7322 217.853 62.66 217.853C62.5801 217.853 62.514 217.869 62.4615 217.902C62.409 217.934 62.3679 217.977 62.3384 218.033C62.3089 218.088 62.2875 218.15 62.2744 218.219C62.2624 218.286 62.2564 218.357 62.2564 218.43V218.488C62.2564 218.561 62.2624 218.632 62.2744 218.701C62.2865 218.77 62.3072 218.832 62.3368 218.886C62.3674 218.94 62.409 218.983 62.4615 219.016C62.514 219.048 62.5807 219.064 62.6616 219.064ZM64.1312 216.826V219.346H63.7342V216.826H64.1312ZM65.2337 217.571L64.461 218.427L64.0377 218.86L63.9343 218.525L64.2542 218.13L64.7563 217.571H65.2337ZM64.8416 219.346L64.2657 218.512L64.5151 218.235L65.2993 219.346H64.8416ZM66.0076 218.952L66.4178 217.571H66.6705L66.6015 217.984L66.1881 219.346H65.9617L66.0076 218.952ZM65.7665 217.571L66.0864 218.959L66.1126 219.346H65.86L65.3793 217.571H65.7665ZM67.0544 218.942L67.3644 217.571H67.75L67.2709 219.346H67.0183L67.0544 218.942ZM66.7131 217.571L67.1183 218.936L67.1692 219.346H66.9428L66.5244 217.982L66.4555 217.571H66.7131ZM69.0604 218.99V218.143C69.0604 218.08 69.0489 218.025 69.026 217.979C69.003 217.933 68.968 217.898 68.921 217.872C68.875 217.847 68.8171 217.835 68.7471 217.835C68.6825 217.835 68.6268 217.846 68.5797 217.868C68.5327 217.889 68.496 217.919 68.4698 217.956C68.4435 217.993 68.4304 218.035 68.4304 218.082H68.0367C68.0367 218.012 68.0536 217.945 68.0875 217.879C68.1214 217.813 68.1707 217.755 68.2352 217.703C68.2997 217.652 68.3768 217.612 68.4665 217.582C68.5562 217.553 68.6568 217.538 68.7684 217.538C68.9018 217.538 69.02 217.56 69.1228 217.605C69.2267 217.65 69.3082 217.718 69.3672 217.808C69.4274 217.898 69.4575 218.011 69.4575 218.146V218.936C69.4575 219.016 69.4629 219.089 69.4739 219.154C69.4859 219.217 69.5028 219.272 69.5247 219.319V219.346H69.1195C69.1009 219.303 69.0861 219.249 69.0752 219.183C69.0653 219.117 69.0604 219.052 69.0604 218.99ZM69.1178 218.266L69.1211 218.511H68.8373C68.764 218.511 68.6995 218.518 68.6437 218.532C68.5879 218.545 68.5414 218.565 68.5043 218.591C68.4671 218.617 68.4392 218.649 68.4206 218.686C68.402 218.723 68.3927 218.765 68.3927 218.813C68.3927 218.86 68.4036 218.903 68.4255 218.942C68.4474 218.98 68.4791 219.01 68.5207 219.032C68.5633 219.054 68.6147 219.065 68.6749 219.065C68.7558 219.065 68.8264 219.049 68.8865 219.016C68.9478 218.982 68.9959 218.941 69.0309 218.893C69.0659 218.844 69.0845 218.797 69.0867 218.753L69.2146 218.929C69.2015 218.974 69.1791 219.022 69.1474 219.073C69.1157 219.125 69.0741 219.174 69.0227 219.221C68.9724 219.267 68.9117 219.305 68.8406 219.334C68.7706 219.364 68.6896 219.379 68.5978 219.379C68.4818 219.379 68.3785 219.356 68.2877 219.31C68.1969 219.263 68.1258 219.2 68.0744 219.121C68.023 219.041 67.9973 218.951 67.9973 218.85C67.9973 218.756 68.0148 218.673 68.0498 218.601C68.0859 218.528 68.1384 218.466 68.2073 218.417C68.2773 218.368 68.3626 218.331 68.4632 218.306C68.5639 218.279 68.6787 218.266 68.8078 218.266H69.1178ZM70.9073 218.865C70.9073 218.826 70.8975 218.79 70.8778 218.758C70.8581 218.726 70.8204 218.696 70.7646 218.67C70.7099 218.644 70.629 218.619 70.5218 218.598C70.4277 218.577 70.3413 218.552 70.2626 218.524C70.1849 218.494 70.1182 218.459 70.0624 218.417C70.0066 218.376 69.9634 218.326 69.9328 218.269C69.9022 218.213 69.8869 218.147 69.8869 218.073C69.8869 218 69.9027 217.932 69.9345 217.868C69.9662 217.803 70.0116 217.746 70.0706 217.697C70.1297 217.648 70.2013 217.609 70.2856 217.58C70.3709 217.552 70.466 217.538 70.571 217.538C70.7198 217.538 70.8472 217.563 70.9533 217.613C71.0605 217.662 71.1425 217.73 71.1994 217.815C71.2563 217.899 71.2847 217.994 71.2847 218.1H70.8893C70.8893 218.053 70.8773 218.01 70.8532 217.969C70.8302 217.928 70.7952 217.894 70.7482 217.869C70.7012 217.843 70.6421 217.83 70.571 217.83C70.5032 217.83 70.4469 217.841 70.402 217.863C70.3583 217.883 70.3255 217.911 70.3036 217.945C70.2828 217.979 70.2724 218.016 70.2724 218.056C70.2724 218.086 70.2779 218.113 70.2888 218.137C70.3009 218.16 70.3206 218.181 70.3479 218.201C70.3752 218.219 70.4124 218.237 70.4595 218.253C70.5076 218.269 70.5677 218.285 70.6399 218.301C70.7756 218.329 70.892 218.366 70.9894 218.411C71.0878 218.454 71.1633 218.511 71.2158 218.581C71.2683 218.65 71.2945 218.738 71.2945 218.844C71.2945 218.922 71.2776 218.995 71.2437 219.06C71.2109 219.125 71.1627 219.181 71.0993 219.229C71.0359 219.276 70.9598 219.313 70.8713 219.339C70.7838 219.365 70.6853 219.379 70.5759 219.379C70.4152 219.379 70.279 219.35 70.1674 219.293C70.0559 219.235 69.9711 219.161 69.9131 219.072C69.8563 218.981 69.8278 218.887 69.8278 218.79H70.2101C70.2145 218.863 70.2347 218.921 70.2708 218.965C70.308 219.008 70.3539 219.039 70.4086 219.059C70.4644 219.077 70.5218 219.086 70.5809 219.086C70.652 219.086 70.7116 219.077 70.7597 219.059C70.8078 219.039 70.8445 219.013 70.8696 218.98C70.8948 218.946 70.9073 218.908 70.9073 218.865ZM72.0718 216.826V219.346H71.678V216.826H72.0718ZM72.0029 218.393L71.8749 218.391C71.876 218.268 71.8929 218.155 71.9258 218.051C71.9597 217.947 72.0067 217.857 72.0668 217.781C72.1281 217.703 72.2014 217.643 72.2867 217.602C72.372 217.559 72.4666 217.538 72.5705 217.538C72.658 217.538 72.7368 217.55 72.8068 217.574C72.8779 217.598 72.9391 217.637 72.9905 217.69C73.0419 217.743 73.0808 217.812 73.107 217.897C73.1343 217.981 73.148 218.084 73.148 218.205V219.346H72.751V218.202C72.751 218.117 72.7384 218.049 72.7133 217.999C72.6892 217.948 72.6536 217.912 72.6066 217.89C72.5596 217.868 72.5022 217.856 72.4343 217.856C72.3633 217.856 72.3004 217.87 72.2457 217.899C72.1921 217.927 72.1472 217.966 72.1111 218.015C72.0751 218.064 72.0477 218.121 72.0291 218.186C72.0116 218.25 72.0029 218.319 72.0029 218.393Z" fill="black" fill-opacity="0.76"/>
</g>
<g filter="url(#filter2_d_11143_177650)">
<path d="M53 228.648C53 227.998 53.5273 227.471 54.1777 227.471H76.8859C77.5364 227.471 78.0637 227.998 78.0637 228.648V237.814C78.0637 238.465 77.5364 238.992 76.8859 238.992H54.1777C53.5273 238.992 53 238.465 53 237.814V228.648Z" fill="white"/>
<path d="M53.12 228.648C53.12 228.064 53.5936 227.591 54.1777 227.591H76.8859C77.4701 227.591 77.9437 228.064 77.9437 228.648V237.814C77.9437 238.399 77.4701 238.872 76.8859 238.872H54.1777C53.5936 238.872 53.12 238.399 53.12 237.814V228.648Z" stroke="black" stroke-opacity="0.38" stroke-width="0.24"/>
<path d="M61.506 231.342H62.3509C62.5325 231.342 62.6872 231.369 62.8152 231.424C62.9432 231.478 63.0411 231.559 63.1089 231.667C63.1778 231.773 63.2122 231.904 63.2122 232.06C63.2122 232.18 63.1904 232.285 63.1466 232.375C63.1029 232.466 63.0411 232.543 62.9612 232.605C62.8814 232.666 62.7862 232.714 62.6758 232.748L62.5511 232.808H61.7915L61.7882 232.482H62.3575C62.4559 232.482 62.5379 232.464 62.6036 232.429C62.6692 232.394 62.7184 232.347 62.7512 232.287C62.7851 232.225 62.8021 232.157 62.8021 232.08C62.8021 231.997 62.7857 231.925 62.7529 231.863C62.7212 231.801 62.6719 231.754 62.6052 231.721C62.5385 231.687 62.4537 231.67 62.3509 231.67H61.9178V233.73H61.506V231.342ZM62.8694 233.73L62.3083 232.658L62.7397 232.656L63.309 233.709V233.73H62.8694ZM64.0469 231.955V233.73H63.6499V231.955H64.0469ZM63.6236 231.489C63.6236 231.429 63.6433 231.379 63.6827 231.34C63.7232 231.3 63.7789 231.279 63.85 231.279C63.92 231.279 63.9753 231.3 64.0157 231.34C64.0562 231.379 64.0764 231.429 64.0764 231.489C64.0764 231.548 64.0562 231.598 64.0157 231.637C63.9753 231.676 63.92 231.696 63.85 231.696C63.7789 231.696 63.7232 231.676 63.6827 231.637C63.6433 231.598 63.6236 231.548 63.6236 231.489ZM64.9127 232.334V233.73H64.5173V231.955H64.8898L64.9127 232.334ZM64.8422 232.777L64.7142 232.776C64.7153 232.65 64.7328 232.534 64.7667 232.429C64.8017 232.324 64.8498 232.234 64.9111 232.159C64.9734 232.083 65.0478 232.025 65.1342 231.985C65.2206 231.943 65.3169 231.923 65.423 231.923C65.5083 231.923 65.5854 231.935 65.6543 231.959C65.7243 231.982 65.7839 232.019 65.8331 232.072C65.8834 232.124 65.9217 232.193 65.948 232.277C65.9742 232.36 65.9873 232.462 65.9873 232.584V233.73H65.5903V232.582C65.5903 232.497 65.5777 232.429 65.5526 232.38C65.5285 232.33 65.493 232.294 65.4459 232.274C65.4 232.252 65.3426 232.241 65.2737 232.241C65.2059 232.241 65.1452 232.255 65.0916 232.283C65.038 232.312 64.9926 232.351 64.9554 232.4C64.9193 232.449 64.8914 232.506 64.8717 232.571C64.852 232.635 64.8422 232.704 64.8422 232.777ZM67.4274 233.25C67.4274 233.21 67.4175 233.175 67.3979 233.143C67.3782 233.11 67.3404 233.081 67.2847 233.055C67.23 233.028 67.149 233.004 67.0418 232.982C66.9478 232.962 66.8614 232.937 66.7826 232.909C66.705 232.879 66.6383 232.843 66.5825 232.802C66.5267 232.76 66.4835 232.711 66.4529 232.654C66.4222 232.597 66.4069 232.532 66.4069 232.457C66.4069 232.385 66.4228 232.317 66.4545 232.252C66.4862 232.188 66.5316 232.131 66.5907 232.082C66.6497 232.032 66.7214 231.994 66.8056 231.965C66.8909 231.937 66.9861 231.923 67.0911 231.923C67.2398 231.923 67.3672 231.948 67.4733 231.998C67.5805 232.047 67.6625 232.114 67.7194 232.2C67.7763 232.284 67.8047 232.379 67.8047 232.485H67.4093C67.4093 232.438 67.3973 232.394 67.3733 232.354C67.3503 232.312 67.3153 232.279 67.2683 232.254C67.2212 232.228 67.1622 232.215 67.0911 232.215C67.0233 232.215 66.9669 232.225 66.9221 232.247C66.8783 232.268 66.8455 232.295 66.8236 232.329C66.8029 232.363 66.7925 232.4 66.7925 232.441C66.7925 232.47 66.7979 232.497 66.8089 232.521C66.8209 232.544 66.8406 232.566 66.8679 232.585C66.8953 232.604 66.9325 232.621 66.9795 232.638C67.0276 232.654 67.0878 232.67 67.16 232.685C67.2956 232.714 67.4121 232.75 67.5094 232.795C67.6079 232.839 67.6833 232.896 67.7358 232.966C67.7883 233.035 67.8146 233.122 67.8146 233.228C67.8146 233.307 67.7976 233.379 67.7637 233.445C67.7309 233.51 67.6828 233.566 67.6193 233.614C67.5559 233.661 67.4799 233.698 67.3913 233.724C67.3038 233.75 67.2054 233.763 67.096 233.763C66.9352 233.763 66.799 233.735 66.6875 233.678C66.5759 233.62 66.4911 233.546 66.4332 233.456C66.3763 233.366 66.3479 233.272 66.3479 233.174H66.7301C66.7345 233.248 66.7547 233.306 66.7908 233.35C66.828 233.393 66.874 233.424 66.9286 233.443C66.9844 233.462 67.0418 233.471 67.1009 233.471C67.172 233.471 67.2316 233.462 67.2797 233.443C67.3279 233.424 67.3645 233.397 67.3897 233.365C67.4148 233.331 67.4274 233.292 67.4274 233.25ZM68.9839 233.763C68.8527 233.763 68.734 233.742 68.6279 233.699C68.5229 233.656 68.4332 233.595 68.3588 233.517C68.2856 233.44 68.2292 233.348 68.1899 233.243C68.1505 233.138 68.1308 233.025 68.1308 232.904V232.838C68.1308 232.699 68.151 232.573 68.1915 232.461C68.232 232.348 68.2883 232.252 68.3605 232.172C68.4327 232.091 68.518 232.029 68.6164 231.986C68.7149 231.944 68.8215 231.923 68.9363 231.923C69.0632 231.923 69.1742 231.944 69.2694 231.986C69.3646 232.029 69.4433 232.089 69.5056 232.167C69.5691 232.244 69.6161 232.335 69.6467 232.441C69.6785 232.547 69.6943 232.664 69.6943 232.792V232.961H68.3228V232.677H69.3038V232.646C69.3017 232.575 69.2874 232.508 69.2612 232.446C69.236 232.384 69.1972 232.333 69.1447 232.295C69.0922 232.257 69.0222 232.238 68.9347 232.238C68.8691 232.238 68.8106 232.252 68.7592 232.28C68.7088 232.308 68.6667 232.347 68.6328 232.4C68.5989 232.452 68.5727 232.516 68.5541 232.59C68.5366 232.664 68.5278 232.746 68.5278 232.838V232.904C68.5278 232.981 68.5382 233.053 68.559 233.12C68.5809 233.186 68.6126 233.243 68.6542 233.292C68.6957 233.342 68.746 233.38 68.8051 233.409C68.8642 233.436 68.9314 233.45 69.0069 233.45C69.1021 233.45 69.1868 233.431 69.2612 233.393C69.3356 233.354 69.4001 233.3 69.4548 233.23L69.6631 233.432C69.6249 233.488 69.5751 233.541 69.5138 233.593C69.4526 233.643 69.3777 233.684 69.2891 233.716C69.2016 233.747 69.0999 233.763 68.9839 233.763Z" fill="black" fill-opacity="0.76"/>
</g>
<g filter="url(#filter3_d_11143_177650)">
<path d="M81.8828 199.877C81.8828 199.227 82.4101 198.699 83.0605 198.699H105.769C106.419 198.699 106.946 199.227 106.946 199.877V209.043C106.946 209.693 106.419 210.221 105.769 210.221H83.0605C82.4101 210.221 81.8828 209.693 81.8828 209.043V199.877Z" fill="white"/>
<path d="M82.0028 199.877C82.0028 199.293 82.4764 198.819 83.0605 198.819H105.769C106.353 198.819 106.826 199.293 106.826 199.877V209.043C106.826 209.627 106.353 210.101 105.769 210.101H83.0605C82.4764 210.101 82.0028 209.627 82.0028 209.043V199.877Z" stroke="black" stroke-opacity="0.38" stroke-width="0.24"/>
<path d="M90.4922 204.423L90.9679 202.57H91.2173L91.1894 203.048L90.6808 204.959H90.4216L90.4922 204.423ZM90.1362 202.57L90.5217 204.408L90.5562 204.959H90.2805L89.7276 202.57H90.1362ZM91.7571 204.403L92.1377 202.57H92.5479L91.995 204.959H91.7194L91.7571 204.403ZM91.3141 202.57L91.785 204.427L91.8539 204.959H91.5947L91.0943 203.048L91.068 202.57H91.3141ZM93.7992 204.603V203.756C93.7992 203.693 93.7878 203.638 93.7648 203.592C93.7418 203.546 93.7068 203.511 93.6598 203.486C93.6139 203.461 93.5559 203.448 93.4859 203.448C93.4214 203.448 93.3656 203.459 93.3185 203.481C93.2715 203.503 93.2349 203.532 93.2086 203.569C93.1824 203.607 93.1692 203.649 93.1692 203.696H92.7755C92.7755 203.626 92.7925 203.558 92.8264 203.492C92.8603 203.427 92.9095 203.368 92.974 203.317C93.0385 203.265 93.1157 203.225 93.2053 203.195C93.295 203.166 93.3957 203.151 93.5072 203.151C93.6407 203.151 93.7588 203.173 93.8616 203.218C93.9655 203.263 94.047 203.331 94.106 203.422C94.1662 203.511 94.1963 203.624 94.1963 203.76V204.549C94.1963 204.63 94.2017 204.703 94.2127 204.767C94.2247 204.83 94.2417 204.886 94.2635 204.933V204.959H93.8583C93.8397 204.916 93.825 204.862 93.814 204.797C93.8042 204.73 93.7992 204.665 93.7992 204.603ZM93.8567 203.879L93.86 204.124H93.5761C93.5028 204.124 93.4383 204.131 93.3825 204.145C93.3267 204.158 93.2803 204.178 93.2431 204.204C93.2059 204.231 93.178 204.262 93.1594 204.299C93.1408 204.337 93.1315 204.379 93.1315 204.426C93.1315 204.473 93.1425 204.516 93.1643 204.555C93.1862 204.594 93.2179 204.624 93.2595 204.646C93.3021 204.668 93.3535 204.678 93.4137 204.678C93.4946 204.678 93.5652 204.662 93.6253 204.629C93.6866 204.595 93.7347 204.554 93.7697 204.506C93.8047 204.457 93.8233 204.41 93.8255 204.367L93.9535 204.542C93.9403 204.587 93.9179 204.635 93.8862 204.687C93.8545 204.738 93.8129 204.787 93.7615 204.834C93.7112 204.88 93.6505 204.918 93.5794 204.948C93.5094 204.977 93.4285 204.992 93.3366 204.992C93.2207 204.992 93.1173 204.969 93.0265 204.923C92.9357 204.876 92.8646 204.813 92.8132 204.734C92.7618 204.654 92.7361 204.564 92.7361 204.464C92.7361 204.369 92.7536 204.286 92.7886 204.214C92.8247 204.141 92.8772 204.08 92.9461 204.03C93.0161 203.981 93.1014 203.944 93.2021 203.919C93.3027 203.893 93.4175 203.879 93.5466 203.879H93.8567ZM95.6462 204.478C95.6462 204.439 95.6363 204.403 95.6166 204.372C95.597 204.339 95.5592 204.309 95.5034 204.283C95.4488 204.257 95.3678 204.233 95.2606 204.211C95.1666 204.19 95.0802 204.165 95.0014 204.137C94.9238 204.108 94.857 204.072 94.8013 204.03C94.7455 203.989 94.7023 203.94 94.6716 203.883C94.641 203.826 94.6257 203.76 94.6257 203.686C94.6257 203.614 94.6416 203.545 94.6733 203.481C94.705 203.416 94.7504 203.359 94.8095 203.31C94.8685 203.261 94.9402 203.222 95.0244 203.194C95.1097 203.165 95.2048 203.151 95.3098 203.151C95.4586 203.151 95.586 203.176 95.6921 203.226C95.7993 203.276 95.8813 203.343 95.9382 203.428C95.9951 203.513 96.0235 203.608 96.0235 203.714H95.6281C95.6281 203.667 95.6161 203.623 95.592 203.583C95.5691 203.541 95.5341 203.508 95.487 203.482C95.44 203.456 95.3809 203.443 95.3098 203.443C95.242 203.443 95.1857 203.454 95.1409 203.476C95.0971 203.497 95.0643 203.524 95.0424 203.558C95.0216 203.592 95.0113 203.629 95.0113 203.669C95.0113 203.699 95.0167 203.726 95.0277 203.75C95.0397 203.773 95.0594 203.794 95.0867 203.814C95.1141 203.832 95.1513 203.85 95.1983 203.866C95.2464 203.883 95.3066 203.899 95.3788 203.914C95.5144 203.942 95.6309 203.979 95.7282 204.024C95.8266 204.068 95.9021 204.124 95.9546 204.194C96.0071 204.263 96.0334 204.351 96.0334 204.457C96.0334 204.536 96.0164 204.608 95.9825 204.674C95.9497 204.738 95.9016 204.794 95.8381 204.843C95.7747 204.89 95.6987 204.926 95.6101 204.952C95.5226 204.979 95.4241 204.992 95.3148 204.992C95.154 204.992 95.0178 204.963 94.9063 204.906C94.7947 204.849 94.7099 204.775 94.652 204.685C94.5951 204.594 94.5666 204.5 94.5666 204.403H94.9489C94.9533 204.476 94.9735 204.535 95.0096 204.578C95.0468 204.621 95.0927 204.652 95.1474 204.672C95.2032 204.69 95.2606 204.7 95.3197 204.7C95.3908 204.7 95.4504 204.69 95.4985 204.672C95.5466 204.652 95.5833 204.626 95.6084 204.593C95.6336 204.559 95.6462 204.521 95.6462 204.478ZM97.2339 203.184V203.473H96.2331V203.184H97.2339ZM96.5218 202.749H96.9172V204.468C96.9172 204.523 96.9249 204.565 96.9402 204.595C96.9566 204.623 96.979 204.642 97.0075 204.652C97.0359 204.662 97.0693 204.667 97.1075 204.667C97.1349 204.667 97.1611 204.665 97.1863 204.662C97.2115 204.659 97.2317 204.655 97.247 204.652L97.2486 204.954C97.2158 204.964 97.1775 204.973 97.1338 204.98C97.0911 204.988 97.0419 204.992 96.9861 204.992C96.8954 204.992 96.815 204.976 96.745 204.944C96.675 204.911 96.6203 204.858 96.5809 204.785C96.5415 204.712 96.5218 204.614 96.5218 204.493V202.749ZM98.3622 204.992C98.231 204.992 98.1123 204.97 98.0062 204.928C97.9012 204.884 97.8115 204.823 97.7371 204.746C97.6638 204.668 97.6075 204.577 97.5681 204.472C97.5288 204.367 97.5091 204.254 97.5091 204.132V204.066C97.5091 203.928 97.5293 203.802 97.5698 203.689C97.6103 203.576 97.6666 203.48 97.7388 203.4C97.811 203.319 97.8963 203.258 97.9947 203.215C98.0931 203.172 98.1998 203.151 98.3146 203.151C98.4415 203.151 98.5525 203.172 98.6477 203.215C98.7428 203.258 98.8216 203.318 98.8839 203.395C98.9474 203.472 98.9944 203.563 99.025 203.669C99.0567 203.776 99.0726 203.893 99.0726 204.021V204.19H97.701V203.906H98.6821V203.875C98.6799 203.803 98.6657 203.737 98.6395 203.674C98.6143 203.612 98.5755 203.562 98.523 203.523C98.4705 203.485 98.4005 203.466 98.313 203.466C98.2474 203.466 98.1888 203.48 98.1374 203.509C98.0871 203.536 98.045 203.576 98.0111 203.628C97.9772 203.681 97.951 203.744 97.9324 203.819C97.9149 203.892 97.9061 203.975 97.9061 204.066V204.132C97.9061 204.21 97.9165 204.282 97.9373 204.349C97.9592 204.414 97.9909 204.472 98.0324 204.521C98.074 204.57 98.1243 204.609 98.1834 204.637C98.2424 204.665 98.3097 204.678 98.3852 204.678C98.4803 204.678 98.5651 204.659 98.6395 204.621C98.7138 204.583 98.7784 204.529 98.8331 204.459L99.0414 204.66C99.0031 204.716 98.9534 204.77 98.8921 204.821C98.8309 204.871 98.756 204.913 98.6674 204.944C98.5799 204.976 98.4781 204.992 98.3622 204.992Z" fill="black" fill-opacity="0.76"/>
</g>
<g filter="url(#filter4_d_11143_177650)">
<path d="M81.8828 214.264C81.8828 213.613 82.4101 213.086 83.0605 213.086H105.769C106.419 213.086 106.946 213.613 106.946 214.264V223.43C106.946 224.08 106.419 224.607 105.769 224.607H83.0605C82.4101 224.607 81.8828 224.08 81.8828 223.43V214.264Z" fill="white"/>
<path d="M82.0028 214.264C82.0028 213.679 82.4764 213.206 83.0605 213.206H105.769C106.353 213.206 106.826 213.679 106.826 214.264V223.43C106.826 224.014 106.353 224.487 105.769 224.487H83.0605C82.4764 224.487 82.0028 224.014 82.0028 223.43V214.264Z" stroke="black" stroke-opacity="0.38" stroke-width="0.24"/>
<path d="M86.0047 216.957H86.8496C87.0312 216.957 87.1859 216.984 87.3139 217.039C87.4419 217.094 87.5398 217.175 87.6076 217.282C87.6765 217.388 87.7109 217.519 87.7109 217.676C87.7109 217.795 87.6891 217.9 87.6453 217.991C87.6016 218.081 87.5398 218.158 87.4599 218.22C87.3801 218.281 87.2849 218.329 87.1744 218.363L87.0498 218.424H86.2901L86.2869 218.097H86.8562C86.9546 218.097 87.0366 218.08 87.1023 218.045C87.1679 218.01 87.2171 217.962 87.2499 217.902C87.2838 217.841 87.3008 217.772 87.3008 217.695C87.3008 217.612 87.2844 217.54 87.2516 217.479C87.2198 217.416 87.1706 217.369 87.1039 217.336C87.0372 217.302 86.9524 217.285 86.8496 217.285H86.4165V219.346H86.0047V216.957ZM87.368 219.346L86.8069 218.273L87.2384 218.271L87.8077 219.324V219.346H87.368ZM88.9049 219.379C88.7736 219.379 88.655 219.357 88.5489 219.315C88.4439 219.271 88.3542 219.21 88.2798 219.132C88.2065 219.055 88.1502 218.963 88.1108 218.858C88.0714 218.753 88.0518 218.64 88.0518 218.519V218.453C88.0518 218.314 88.072 218.189 88.1125 218.076C88.1529 217.963 88.2093 217.867 88.2814 217.787C88.3536 217.706 88.4389 217.644 88.5374 217.602C88.6358 217.559 88.7425 217.538 88.8573 217.538C88.9842 217.538 89.0952 217.559 89.1904 217.602C89.2855 217.644 89.3643 217.705 89.4266 217.782C89.49 217.859 89.5371 217.95 89.5677 218.056C89.5994 218.162 89.6153 218.279 89.6153 218.407V218.576H88.2437V218.292H89.2248V218.261C89.2226 218.19 89.2084 218.123 89.1821 218.061C89.157 217.999 89.1182 217.948 89.0657 217.91C89.0132 217.872 88.9432 217.853 88.8557 217.853C88.79 217.853 88.7315 217.867 88.6801 217.895C88.6298 217.923 88.5877 217.963 88.5538 218.015C88.5199 218.068 88.4936 218.131 88.475 218.205C88.4575 218.279 88.4488 218.361 88.4488 218.453V218.519C88.4488 218.596 88.4592 218.669 88.48 218.735C88.5018 218.801 88.5336 218.858 88.5751 218.908C88.6167 218.957 88.667 218.996 88.7261 219.024C88.7851 219.051 88.8524 219.065 88.9279 219.065C89.023 219.065 89.1078 219.046 89.1821 219.008C89.2565 218.969 89.3211 218.915 89.3757 218.845L89.5841 219.047C89.5458 219.103 89.4961 219.156 89.4348 219.208C89.3736 219.258 89.2986 219.299 89.21 219.331C89.1225 219.363 89.0208 219.379 88.9049 219.379ZM90.6895 219.064C90.754 219.064 90.812 219.051 90.8634 219.026C90.9159 219 90.958 218.963 90.9897 218.918C91.0225 218.872 91.0406 218.819 91.0438 218.758H91.4163C91.4141 218.873 91.3802 218.978 91.3145 219.072C91.2489 219.166 91.162 219.241 91.0537 219.296C90.9454 219.351 90.8256 219.379 90.6944 219.379C90.5588 219.379 90.4406 219.356 90.34 219.31C90.2394 219.263 90.1557 219.198 90.089 219.116C90.0223 219.034 89.972 218.939 89.9381 218.832C89.9052 218.725 89.8888 218.61 89.8888 218.488V218.43C89.8888 218.308 89.9052 218.193 89.9381 218.086C89.972 217.977 90.0223 217.882 90.089 217.8C90.1557 217.718 90.2394 217.654 90.34 217.608C90.4406 217.561 90.5582 217.538 90.6927 217.538C90.8349 217.538 90.9596 217.566 91.0668 217.623C91.174 217.679 91.2582 217.757 91.3195 217.858C91.3818 217.957 91.4141 218.073 91.4163 218.205H91.0438C91.0406 218.14 91.0242 218.081 90.9946 218.028C90.9662 217.975 90.9257 217.932 90.8732 217.9C90.8218 217.869 90.76 217.853 90.6878 217.853C90.608 217.853 90.5418 217.869 90.4893 217.902C90.4368 217.934 90.3958 217.977 90.3663 218.033C90.3367 218.088 90.3154 218.15 90.3023 218.219C90.2902 218.286 90.2842 218.357 90.2842 218.43V218.488C90.2842 218.561 90.2902 218.632 90.3023 218.701C90.3143 218.77 90.3351 218.832 90.3646 218.886C90.3952 218.94 90.4368 218.983 90.4893 219.016C90.5418 219.048 90.6085 219.064 90.6895 219.064ZM92.1837 217.571V219.346H91.7866V217.571H92.1837ZM91.7604 217.105C91.7604 217.044 91.7801 216.995 91.8194 216.955C91.8599 216.915 91.9157 216.895 91.9868 216.895C92.0568 216.895 92.112 216.915 92.1525 216.955C92.1929 216.995 92.2132 217.044 92.2132 217.105C92.2132 217.164 92.1929 217.213 92.1525 217.252C92.112 217.292 92.0568 217.311 91.9868 217.311C91.9157 217.311 91.8599 217.292 91.8194 217.252C91.7801 217.213 91.7604 217.164 91.7604 217.105ZM93.0544 217.909V219.346H92.659V217.571H93.0364L93.0544 217.909ZM93.5975 217.559L93.5942 217.927C93.5701 217.922 93.5439 217.919 93.5154 217.917C93.4881 217.915 93.4607 217.913 93.4334 217.913C93.3656 217.913 93.306 217.923 93.2546 217.943C93.2032 217.962 93.16 217.989 93.125 218.025C93.091 218.06 93.0648 218.103 93.0462 218.153C93.0276 218.203 93.0167 218.26 93.0134 218.322L92.9232 218.329C92.9232 218.217 92.9341 218.114 92.956 218.018C92.9778 217.923 93.0107 217.84 93.0544 217.767C93.0992 217.695 93.155 217.639 93.2217 217.598C93.2896 217.558 93.3678 217.538 93.4564 217.538C93.4804 217.538 93.5061 217.54 93.5335 217.544C93.5619 217.549 93.5832 217.554 93.5975 217.559ZM94.5781 219.064C94.6427 219.064 94.7006 219.051 94.752 219.026C94.8045 219 94.8466 218.963 94.8784 218.918C94.9112 218.872 94.9292 218.819 94.9325 218.758H95.3049C95.3027 218.873 95.2688 218.978 95.2032 219.072C95.1376 219.166 95.0506 219.241 94.9423 219.296C94.8341 219.351 94.7143 219.379 94.583 219.379C94.4474 219.379 94.3293 219.356 94.2287 219.31C94.128 219.263 94.0444 219.198 93.9777 219.116C93.9109 219.034 93.8606 218.939 93.8267 218.832C93.7939 218.725 93.7775 218.61 93.7775 218.488V218.43C93.7775 218.308 93.7939 218.193 93.8267 218.086C93.8606 217.977 93.9109 217.882 93.9777 217.8C94.0444 217.718 94.128 217.654 94.2287 217.608C94.3293 217.561 94.4469 217.538 94.5814 217.538C94.7236 217.538 94.8483 217.566 94.9555 217.623C95.0627 217.679 95.1469 217.757 95.2081 217.858C95.2705 217.957 95.3027 218.073 95.3049 218.205H94.9325C94.9292 218.14 94.9128 218.081 94.8833 218.028C94.8548 217.975 94.8144 217.932 94.7619 217.9C94.7105 217.869 94.6487 217.853 94.5765 217.853C94.4966 217.853 94.4305 217.869 94.378 217.902C94.3255 217.934 94.2845 217.977 94.2549 218.033C94.2254 218.088 94.2041 218.15 94.1909 218.219C94.1789 218.286 94.1729 218.357 94.1729 218.43V218.488C94.1729 218.561 94.1789 218.632 94.1909 218.701C94.203 218.77 94.2238 218.832 94.2533 218.886C94.2839 218.94 94.3255 218.983 94.378 219.016C94.4305 219.048 94.4972 219.064 94.5781 219.064ZM96.7171 218.927V217.571H97.1141V219.346H96.74L96.7171 218.927ZM96.7729 218.558L96.9058 218.555C96.9058 218.674 96.8926 218.784 96.8664 218.885C96.8401 218.984 96.7997 219.071 96.745 219.146C96.6903 219.219 96.6203 219.276 96.535 219.318C96.4497 219.358 96.3474 219.379 96.2282 219.379C96.1418 219.379 96.0625 219.366 95.9903 219.341C95.9181 219.316 95.8558 219.277 95.8033 219.224C95.7518 219.172 95.7119 219.103 95.6835 219.019C95.655 218.935 95.6408 218.834 95.6408 218.717V217.571H96.0362V218.721C96.0362 218.785 96.0439 218.839 96.0592 218.883C96.0745 218.926 96.0953 218.96 96.1215 218.986C96.1478 219.013 96.1784 219.031 96.2134 219.042C96.2484 219.053 96.2856 219.059 96.325 219.059C96.4376 219.059 96.5262 219.037 96.5908 218.993C96.6564 218.948 96.7029 218.888 96.7302 218.813C96.7586 218.737 96.7729 218.652 96.7729 218.558ZM97.9832 216.826V219.346H97.5862V216.826H97.9832ZM99.4577 218.99V218.143C99.4577 218.08 99.4462 218.025 99.4233 217.979C99.4003 217.933 99.3653 217.898 99.3183 217.872C99.2723 217.847 99.2144 217.835 99.1444 217.835C99.0798 217.835 99.0241 217.846 98.977 217.868C98.93 217.889 98.8933 217.919 98.8671 217.956C98.8408 217.993 98.8277 218.035 98.8277 218.082H98.434C98.434 218.012 98.4509 217.945 98.4848 217.879C98.5187 217.813 98.568 217.755 98.6325 217.703C98.697 217.652 98.7741 217.612 98.8638 217.582C98.9535 217.553 99.0541 217.538 99.1657 217.538C99.2991 217.538 99.4173 217.56 99.5201 217.605C99.624 217.65 99.7055 217.718 99.7645 217.808C99.8247 217.898 99.8548 218.011 99.8548 218.146V218.936C99.8548 219.016 99.8602 219.089 99.8712 219.154C99.8832 219.217 99.9001 219.272 99.922 219.319V219.346H99.5168C99.4982 219.303 99.4834 219.249 99.4725 219.183C99.4626 219.117 99.4577 219.052 99.4577 218.99ZM99.5151 218.266L99.5184 218.511H99.2346C99.1613 218.511 99.0968 218.518 99.041 218.532C98.9852 218.545 98.9387 218.565 98.9016 218.591C98.8644 218.617 98.8365 218.649 98.8179 218.686C98.7993 218.723 98.79 218.765 98.79 218.813C98.79 218.86 98.8009 218.903 98.8228 218.942C98.8447 218.98 98.8764 219.01 98.918 219.032C98.9606 219.054 99.012 219.065 99.0722 219.065C99.1531 219.065 99.2237 219.049 99.2838 219.016C99.3451 218.982 99.3932 218.941 99.4282 218.893C99.4632 218.844 99.4818 218.797 99.484 218.753L99.6119 218.929C99.5988 218.974 99.5764 219.022 99.5447 219.073C99.513 219.125 99.4714 219.174 99.42 219.221C99.3697 219.267 99.309 219.305 99.2379 219.334C99.1679 219.364 99.0869 219.379 98.9951 219.379C98.8791 219.379 98.7758 219.356 98.685 219.31C98.5942 219.263 98.5231 219.2 98.4717 219.121C98.4203 219.041 98.3946 218.951 98.3946 218.85C98.3946 218.756 98.4121 218.673 98.4471 218.601C98.4832 218.528 98.5357 218.466 98.6046 218.417C98.6746 218.368 98.7599 218.331 98.8605 218.306C98.9612 218.279 99.076 218.266 99.2051 218.266H99.5151ZM101.123 217.571V217.859H100.122V217.571H101.123ZM100.411 217.136H100.806V218.855C100.806 218.91 100.814 218.952 100.829 218.981C100.845 219.01 100.868 219.029 100.896 219.039C100.925 219.049 100.958 219.054 100.996 219.054C101.024 219.054 101.05 219.052 101.075 219.049C101.1 219.045 101.12 219.042 101.136 219.039L101.137 219.341C101.104 219.351 101.066 219.359 101.022 219.367C100.98 219.375 100.931 219.379 100.875 219.379C100.784 219.379 100.704 219.363 100.634 219.331C100.564 219.298 100.509 219.245 100.47 219.172C100.43 219.099 100.411 219.001 100.411 218.88V217.136ZM102.251 219.379C102.12 219.379 102.001 219.357 101.895 219.315C101.79 219.271 101.7 219.21 101.626 219.132C101.553 219.055 101.496 218.963 101.457 218.858C101.417 218.753 101.398 218.64 101.398 218.519V218.453C101.398 218.314 101.418 218.189 101.458 218.076C101.499 217.963 101.555 217.867 101.627 217.787C101.7 217.706 101.785 217.644 101.883 217.602C101.982 217.559 102.088 217.538 102.203 217.538C102.33 217.538 102.441 217.559 102.536 217.602C102.631 217.644 102.71 217.705 102.773 217.782C102.836 217.859 102.883 217.95 102.914 218.056C102.945 218.162 102.961 218.279 102.961 218.407V218.576H101.59V218.292H102.571V218.261C102.569 218.19 102.554 218.123 102.528 218.061C102.503 217.999 102.464 217.948 102.412 217.91C102.359 217.872 102.289 217.853 102.202 217.853C102.136 217.853 102.078 217.867 102.026 217.895C101.976 217.923 101.934 217.963 101.9 218.015C101.866 218.068 101.84 218.131 101.821 218.205C101.804 218.279 101.795 218.361 101.795 218.453V218.519C101.795 218.596 101.805 218.669 101.826 218.735C101.848 218.801 101.88 218.858 101.921 218.908C101.963 218.957 102.013 218.996 102.072 219.024C102.131 219.051 102.198 219.065 102.274 219.065C102.369 219.065 102.454 219.046 102.528 219.008C102.603 218.969 102.667 218.915 102.722 218.845L102.93 219.047C102.892 219.103 102.842 219.156 102.781 219.208C102.72 219.258 102.645 219.299 102.556 219.331C102.469 219.363 102.367 219.379 102.251 219.379Z" fill="black" fill-opacity="0.76"/>
</g>
<g filter="url(#filter5_d_11143_177650)">
<path d="M81.8828 228.648C81.8828 227.998 82.4101 227.471 83.0605 227.471H105.769C106.419 227.471 106.946 227.998 106.946 228.648V237.814C106.946 238.465 106.419 238.992 105.769 238.992H83.0605C82.4101 238.992 81.8828 238.465 81.8828 237.814V228.648Z" fill="white"/>
<path d="M82.0028 228.648C82.0028 228.064 82.4764 227.591 83.0605 227.591H105.769C106.353 227.591 106.826 228.064 106.826 228.648V237.814C106.826 238.399 106.353 238.872 105.769 238.872H83.0605C82.4764 238.872 82.0028 238.399 82.0028 237.814V228.648Z" stroke="black" stroke-opacity="0.38" stroke-width="0.24"/>
<path d="M90.7754 232.953H91.1855C91.1724 233.109 91.1287 233.249 91.0543 233.371C90.9799 233.493 90.8755 233.588 90.7409 233.658C90.6064 233.728 90.4429 233.763 90.2504 233.763C90.1027 233.763 89.9698 233.737 89.8517 233.685C89.7336 233.631 89.6324 233.555 89.5482 233.458C89.464 233.36 89.3994 233.241 89.3546 233.102C89.3109 232.963 89.289 232.808 89.289 232.636V232.438C89.289 232.266 89.3114 232.111 89.3562 231.972C89.4022 231.833 89.4678 231.714 89.5531 231.616C89.6384 231.516 89.7407 231.44 89.8599 231.388C89.9802 231.335 90.1153 231.309 90.2652 231.309C90.4555 231.309 90.6162 231.344 90.7475 231.414C90.8787 231.484 90.9805 231.581 91.0527 231.704C91.1259 231.828 91.1708 231.97 91.1872 232.129H90.777C90.7661 232.026 90.742 231.938 90.7048 231.865C90.6687 231.792 90.6152 231.736 90.5441 231.698C90.473 231.658 90.38 231.639 90.2652 231.639C90.1711 231.639 90.0891 231.656 90.0191 231.691C89.9491 231.726 89.8905 231.778 89.8435 231.845C89.7965 231.913 89.7609 231.997 89.7369 232.096C89.7139 232.195 89.7024 232.308 89.7024 232.434V232.636C89.7024 232.756 89.7128 232.866 89.7336 232.964C89.7555 233.062 89.7883 233.145 89.832 233.215C89.8769 233.285 89.9337 233.339 90.0027 233.378C90.0716 233.416 90.1541 233.435 90.2504 233.435C90.3674 233.435 90.462 233.417 90.5342 233.379C90.6075 233.342 90.6627 233.288 90.6999 233.217C90.7382 233.145 90.7634 233.057 90.7754 232.953ZM91.9841 231.21V233.73H91.5871V231.21H91.9841ZM92.3824 232.863V232.825C92.3824 232.697 92.401 232.578 92.4381 232.469C92.4753 232.358 92.5289 232.263 92.5989 232.182C92.67 232.1 92.7564 232.036 92.8581 231.991C92.961 231.945 93.0769 231.923 93.206 231.923C93.3361 231.923 93.452 231.945 93.5538 231.991C93.6566 232.036 93.7435 232.1 93.8146 232.182C93.8857 232.263 93.9399 232.358 93.977 232.469C94.0142 232.578 94.0328 232.697 94.0328 232.825V232.863C94.0328 232.991 94.0142 233.109 93.977 233.219C93.9399 233.328 93.8857 233.424 93.8146 233.506C93.7435 233.587 93.6571 233.65 93.5554 233.696C93.4537 233.741 93.3383 233.763 93.2092 233.763C93.0791 233.763 92.9626 233.741 92.8598 233.696C92.7581 233.65 92.6717 233.587 92.6006 233.506C92.5295 233.424 92.4753 233.328 92.4381 233.219C92.401 233.109 92.3824 232.991 92.3824 232.863ZM92.7777 232.825V232.863C92.7777 232.942 92.786 233.018 92.8024 233.089C92.8188 233.16 92.8445 233.222 92.8795 233.276C92.9145 233.33 92.9593 233.372 93.014 233.402C93.0687 233.433 93.1338 233.448 93.2092 233.448C93.2825 233.448 93.346 233.433 93.3995 233.402C93.4542 233.372 93.4991 233.33 93.5341 233.276C93.5691 233.222 93.5948 233.16 93.6112 233.089C93.6287 233.018 93.6374 232.942 93.6374 232.863V232.825C93.6374 232.746 93.6287 232.672 93.6112 232.602C93.5948 232.531 93.5685 232.468 93.5324 232.413C93.4974 232.358 93.4526 232.316 93.3979 232.285C93.3443 232.253 93.2803 232.238 93.206 232.238C93.1316 232.238 93.067 232.253 93.0124 232.285C92.9588 232.316 92.9145 232.358 92.8795 232.413C92.8445 232.468 92.8188 232.531 92.8024 232.602C92.786 232.672 92.7777 232.746 92.7777 232.825ZM95.4007 233.25C95.4007 233.21 95.3908 233.175 95.3712 233.143C95.3515 233.11 95.3137 233.081 95.258 233.055C95.2033 233.028 95.1223 233.004 95.0151 232.982C94.9211 232.962 94.8347 232.937 94.7559 232.909C94.6783 232.879 94.6115 232.843 94.5558 232.802C94.5 232.76 94.4568 232.711 94.4262 232.654C94.3955 232.597 94.3802 232.532 94.3802 232.457C94.3802 232.385 94.3961 232.317 94.4278 232.252C94.4595 232.188 94.5049 232.131 94.564 232.082C94.623 232.032 94.6947 231.994 94.7789 231.965C94.8642 231.937 94.9594 231.923 95.0644 231.923C95.2131 231.923 95.3405 231.948 95.4466 231.998C95.5538 232.047 95.6358 232.114 95.6927 232.2C95.7496 232.284 95.778 232.379 95.778 232.485H95.3826C95.3826 232.438 95.3706 232.394 95.3465 232.354C95.3236 232.312 95.2886 232.279 95.2415 232.254C95.1945 232.228 95.1355 232.215 95.0644 232.215C94.9965 232.215 94.9402 232.225 94.8954 232.247C94.8516 232.268 94.8188 232.295 94.7969 232.329C94.7762 232.363 94.7658 232.4 94.7658 232.441C94.7658 232.47 94.7712 232.497 94.7822 232.521C94.7942 232.544 94.8139 232.566 94.8412 232.585C94.8686 232.604 94.9058 232.621 94.9528 232.638C95.0009 232.654 95.0611 232.67 95.1333 232.685C95.2689 232.714 95.3854 232.75 95.4827 232.795C95.5812 232.839 95.6566 232.896 95.7091 232.966C95.7616 233.035 95.7879 233.122 95.7879 233.228C95.7879 233.307 95.7709 233.379 95.737 233.445C95.7042 233.51 95.6561 233.566 95.5926 233.614C95.5292 233.661 95.4532 233.698 95.3646 233.724C95.2771 233.75 95.1787 233.763 95.0693 233.763C94.9085 233.763 94.7723 233.735 94.6608 233.678C94.5492 233.62 94.4644 233.546 94.4065 233.456C94.3496 233.366 94.3212 233.272 94.3212 233.174H94.7034C94.7078 233.248 94.728 233.306 94.7641 233.35C94.8013 233.393 94.8473 233.424 94.9019 233.443C94.9577 233.462 95.0151 233.471 95.0742 233.471C95.1453 233.471 95.2049 233.462 95.253 233.443C95.3012 233.424 95.3378 233.397 95.363 233.365C95.3881 233.331 95.4007 233.292 95.4007 233.25ZM96.9572 233.763C96.826 233.763 96.7073 233.742 96.6012 233.699C96.4962 233.656 96.4065 233.595 96.3321 233.517C96.2589 233.44 96.2025 233.348 96.1632 233.243C96.1238 233.138 96.1041 233.025 96.1041 232.904V232.838C96.1041 232.699 96.1243 232.573 96.1648 232.461C96.2053 232.348 96.2616 232.252 96.3338 232.172C96.406 232.091 96.4913 232.029 96.5897 231.986C96.6882 231.944 96.7948 231.923 96.9096 231.923C97.0365 231.923 97.1475 231.944 97.2427 231.986C97.3378 232.029 97.4166 232.089 97.4789 232.167C97.5424 232.244 97.5894 232.335 97.62 232.441C97.6518 232.547 97.6676 232.664 97.6676 232.792V232.961H96.296V232.677H97.2771V232.646C97.275 232.575 97.2607 232.508 97.2345 232.446C97.2093 232.384 97.1705 232.333 97.118 232.295C97.0655 232.257 96.9955 232.238 96.908 232.238C96.8424 232.238 96.7839 232.252 96.7325 232.28C96.6821 232.308 96.64 232.347 96.6061 232.4C96.5722 232.452 96.546 232.516 96.5274 232.59C96.5099 232.664 96.5011 232.746 96.5011 232.838V232.904C96.5011 232.981 96.5115 233.053 96.5323 233.12C96.5542 233.186 96.5859 233.243 96.6275 233.292C96.669 233.342 96.7193 233.38 96.7784 233.409C96.8375 233.436 96.9047 233.45 96.9802 233.45C97.0753 233.45 97.1601 233.431 97.2345 233.393C97.3089 233.354 97.3734 233.3 97.4281 233.23L97.6364 233.432C97.5982 233.488 97.5484 233.541 97.4871 233.593C97.4259 233.643 97.351 233.684 97.2624 233.716C97.1749 233.747 97.0732 233.763 96.9572 233.763ZM99.0995 233.363V231.21H99.4965V233.73H99.1372L99.0995 233.363ZM97.9445 232.863V232.828C97.9445 232.694 97.9603 232.571 97.992 232.461C98.0238 232.349 98.0697 232.253 98.1298 232.174C98.19 232.093 98.2633 232.031 98.3497 231.988C98.4361 231.944 98.5334 231.923 98.6417 231.923C98.7489 231.923 98.843 231.943 98.9239 231.985C99.0048 232.026 99.0738 232.086 99.1306 232.164C99.1875 232.24 99.2329 232.332 99.2668 232.439C99.3007 232.545 99.3248 232.664 99.339 232.794V232.904C99.3248 233.03 99.3007 233.146 99.2668 233.251C99.2329 233.356 99.1875 233.447 99.1306 233.524C99.0738 233.6 99.0043 233.659 98.9223 233.701C98.8413 233.742 98.7467 233.763 98.6384 233.763C98.5313 233.763 98.4345 233.741 98.3481 233.696C98.2627 233.651 98.19 233.588 98.1298 233.507C98.0697 233.426 98.0238 233.331 97.992 233.222C97.9603 233.111 97.9445 232.992 97.9445 232.863ZM98.3398 232.828V232.863C98.3398 232.944 98.347 233.019 98.3612 233.089C98.3765 233.159 98.4 233.221 98.4317 233.274C98.4634 233.327 98.5045 233.368 98.5548 233.399C98.6062 233.429 98.6674 233.443 98.7385 233.443C98.8282 233.443 98.902 233.424 98.96 233.384C99.018 233.345 99.0634 233.292 99.0962 233.225C99.1301 233.157 99.1531 233.082 99.1651 232.999V232.702C99.1585 232.637 99.1448 232.577 99.1241 232.521C99.1044 232.466 99.0776 232.417 99.0437 232.375C99.0098 232.333 98.9677 232.3 98.9173 232.277C98.8681 232.253 98.8096 232.241 98.7418 232.241C98.6696 232.241 98.6084 232.256 98.5581 232.287C98.5077 232.317 98.4662 232.359 98.4334 232.413C98.4016 232.467 98.3781 232.529 98.3628 232.6C98.3475 232.671 98.3398 232.747 98.3398 232.828Z" fill="black" fill-opacity="0.76"/>
</g>
<path d="M95.3676 165.822H89.7812V174.463H94.8876C95.1527 174.463 95.3676 174.678 95.3676 174.943V182.144C95.3676 182.144 95.3676 185.745 97.2879 187.665C99.4483 189.825 102.569 189.825 102.569 189.825H116.01V181.184H103.049C102.783 181.184 102.569 180.969 102.569 180.704V173.983C102.569 173.983 102.569 170.383 101.128 168.463C99.1481 165.822 95.3676 165.822 95.3676 165.822Z" fill="white"/>
<path d="M95.3676 165.942L95.3676 165.942L95.3677 165.942L95.368 165.942L95.3697 165.942L95.3772 165.942L95.4078 165.943C95.4351 165.944 95.4756 165.945 95.5282 165.947C95.6333 165.952 95.7864 165.962 95.9765 165.983C96.3569 166.024 96.8847 166.105 97.4734 166.268C98.6527 166.594 100.064 167.244 101.032 168.535C101.734 169.47 102.091 170.826 102.27 171.962C102.359 172.527 102.404 173.033 102.426 173.398C102.437 173.58 102.443 173.727 102.446 173.828C102.447 173.879 102.448 173.918 102.448 173.944L102.448 173.974L102.449 173.981L102.449 173.983L102.449 173.983V173.983V180.704C102.449 181.036 102.717 181.304 103.049 181.304H115.89V189.705H102.569H102.569H102.568L102.567 189.705L102.561 189.705L102.536 189.705C102.513 189.704 102.48 189.703 102.436 189.701C102.348 189.697 102.22 189.689 102.06 189.672C101.738 189.639 101.287 189.572 100.768 189.439C99.7307 189.172 98.4327 188.64 97.3727 187.58C96.4371 186.644 95.9634 185.291 95.7251 184.16C95.6064 183.596 95.5469 183.091 95.5172 182.727C95.5024 182.545 95.495 182.399 95.4913 182.298C95.4895 182.248 95.4885 182.209 95.4881 182.183L95.4877 182.154L95.4876 182.146L95.4876 182.145L95.4876 182.144V182.144V174.943C95.4876 174.612 95.219 174.343 94.8876 174.343H89.9012V165.942L95.3676 165.942Z" stroke="black" stroke-opacity="0.87" stroke-width="0.24"/>
<rect x="44" y="157.18" width="72" height="8.64" fill="white"/>
<rect x="44.12" y="157.3" width="71.76" height="8.4" stroke="black" stroke-opacity="0.87" stroke-width="0.24"/>
<defs>
<filter id="filter0_d_11143_177650" x="48.2891" y="196.344" width="34.4842" height="20.9432" filterUnits="userSpaceOnUse" color-interpolation-filters="sRGB">
<feFlood flood-opacity="0" result="BackgroundImageFix"/>
<feColorMatrix in="SourceAlpha" type="matrix" values="0 0 0 0 0 0 0 0 0 0 0 0 0 0 0 0 0 0 127 0" result="hardAlpha"/>
<feOffset dy="2.35544"/>
<feGaussianBlur stdDeviation="2.35544"/>
<feComposite in2="hardAlpha" operator="out"/>
<feColorMatrix type="matrix" values="0 0 0 0 0 0 0 0 0 0 0 0 0 0 0 0 0 0 0.04 0"/>
<feBlend mode="normal" in2="BackgroundImageFix" result="effect1_dropShadow_11143_177650"/>
<feBlend mode="normal" in="SourceGraphic" in2="effect1_dropShadow_11143_177650" result="shape"/>
</filter>
<filter id="filter1_d_11143_177650" x="48.2891" y="210.731" width="34.4842" height="20.9432" filterUnits="userSpaceOnUse" color-interpolation-filters="sRGB">
<feFlood flood-opacity="0" result="BackgroundImageFix"/>
<feColorMatrix in="SourceAlpha" type="matrix" values="0 0 0 0 0 0 0 0 0 0 0 0 0 0 0 0 0 0 127 0" result="hardAlpha"/>
<feOffset dy="2.35544"/>
<feGaussianBlur stdDeviation="2.35544"/>
<feComposite in2="hardAlpha" operator="out"/>
<feColorMatrix type="matrix" values="0 0 0 0 0 0 0 0 0 0 0 0 0 0 0 0 0 0 0.04 0"/>
<feBlend mode="normal" in2="BackgroundImageFix" result="effect1_dropShadow_11143_177650"/>
<feBlend mode="normal" in="SourceGraphic" in2="effect1_dropShadow_11143_177650" result="shape"/>
</filter>
<filter id="filter2_d_11143_177650" x="48.2891" y="225.115" width="34.4842" height="20.9432" filterUnits="userSpaceOnUse" color-interpolation-filters="sRGB">
<feFlood flood-opacity="0" result="BackgroundImageFix"/>
<feColorMatrix in="SourceAlpha" type="matrix" values="0 0 0 0 0 0 0 0 0 0 0 0 0 0 0 0 0 0 127 0" result="hardAlpha"/>
<feOffset dy="2.35544"/>
<feGaussianBlur stdDeviation="2.35544"/>
<feComposite in2="hardAlpha" operator="out"/>
<feColorMatrix type="matrix" values="0 0 0 0 0 0 0 0 0 0 0 0 0 0 0 0 0 0 0.04 0"/>
<feBlend mode="normal" in2="BackgroundImageFix" result="effect1_dropShadow_11143_177650"/>
<feBlend mode="normal" in="SourceGraphic" in2="effect1_dropShadow_11143_177650" result="shape"/>
</filter>
<filter id="filter3_d_11143_177650" x="77.1719" y="196.344" width="34.4842" height="20.9432" filterUnits="userSpaceOnUse" color-interpolation-filters="sRGB">
<feFlood flood-opacity="0" result="BackgroundImageFix"/>
<feColorMatrix in="SourceAlpha" type="matrix" values="0 0 0 0 0 0 0 0 0 0 0 0 0 0 0 0 0 0 127 0" result="hardAlpha"/>
<feOffset dy="2.35544"/>
<feGaussianBlur stdDeviation="2.35544"/>
<feComposite in2="hardAlpha" operator="out"/>
<feColorMatrix type="matrix" values="0 0 0 0 0 0 0 0 0 0 0 0 0 0 0 0 0 0 0.04 0"/>
<feBlend mode="normal" in2="BackgroundImageFix" result="effect1_dropShadow_11143_177650"/>
<feBlend mode="normal" in="SourceGraphic" in2="effect1_dropShadow_11143_177650" result="shape"/>
</filter>
<filter id="filter4_d_11143_177650" x="77.1719" y="210.731" width="34.4842" height="20.9432" filterUnits="userSpaceOnUse" color-interpolation-filters="sRGB">
<feFlood flood-opacity="0" result="BackgroundImageFix"/>
<feColorMatrix in="SourceAlpha" type="matrix" values="0 0 0 0 0 0 0 0 0 0 0 0 0 0 0 0 0 0 127 0" result="hardAlpha"/>
<feOffset dy="2.35544"/>
<feGaussianBlur stdDeviation="2.35544"/>
<feComposite in2="hardAlpha" operator="out"/>
<feColorMatrix type="matrix" values="0 0 0 0 0 0 0 0 0 0 0 0 0 0 0 0 0 0 0.04 0"/>
<feBlend mode="normal" in2="BackgroundImageFix" result="effect1_dropShadow_11143_177650"/>
<feBlend mode="normal" in="SourceGraphic" in2="effect1_dropShadow_11143_177650" result="shape"/>
</filter>
<filter id="filter5_d_11143_177650" x="77.1719" y="225.115" width="34.4842" height="20.9432" filterUnits="userSpaceOnUse" color-interpolation-filters="sRGB">
<feFlood flood-opacity="0" result="BackgroundImageFix"/>
<feColorMatrix in="SourceAlpha" type="matrix" values="0 0 0 0 0 0 0 0 0 0 0 0 0 0 0 0 0 0 127 0" result="hardAlpha"/>
<feOffset dy="2.35544"/>
<feGaussianBlur stdDeviation="2.35544"/>
<feComposite in2="hardAlpha" operator="out"/>
<feColorMatrix type="matrix" values="0 0 0 0 0 0 0 0 0 0 0 0 0 0 0 0 0 0 0.04 0"/>
<feBlend mode="normal" in2="BackgroundImageFix" result="effect1_dropShadow_11143_177650"/>
<feBlend mode="normal" in="SourceGraphic" in2="effect1_dropShadow_11143_177650" result="shape"/>
</filter>
</defs>
</svg>
