<svg width="261" height="322" fill="none" xmlns="http://www.w3.org/2000/svg"><rect x="63.75" y="120.75" width="186.5" height="186.5" rx="93.25" stroke="#91A3BE" stroke-width="1.5"/><path fill-rule="evenodd" clip-rule="evenodd" d="M127.621 200.793c0-1.191.965-2.156 2.156-2.156h18.688a2.156 2.156 0 1 1 0 4.312h-1.852a13.21 13.21 0 0 0 .017 2.663c.193 1.708.753 3.119 1.735 3.987 3.438 3.038 4.888 6.485 5.187 8.153.023.126.034.253.034.381v19.316a2.156 2.156 0 0 1-2.156 2.156h-25.157a2.156 2.156 0 0 1 0-4.312h23V218.36c-.214-.85-1.198-3.262-3.763-5.529-2.108-1.863-2.912-4.495-3.165-6.732a17.275 17.275 0 0 1-.058-3.15h-12.51a2.156 2.156 0 0 1-2.156-2.156Z" fill="#305680"/><path fill-rule="evenodd" clip-rule="evenodd" d="M135.016 200.283a2.156 2.156 0 0 0-2.095-1.646h-3.684a2.156 2.156 0 0 0 0 4.312h1.852c.074.804.09 1.731-.016 2.663-.194 1.708-.753 3.119-1.736 3.987-3.438 3.038-4.887 6.485-5.187 8.153a2.212 2.212 0 0 0-.034.381v19.316a2.157 2.157 0 0 0 4.313 0V218.36c.215-.85 1.198-3.262 3.764-5.529 2.108-1.863 2.911-4.495 3.165-6.732.256-2.259-.006-4.439-.342-5.816ZM163.738 200.793c0-1.191.966-2.156 2.157-2.156h18.687a2.156 2.156 0 1 1 0 4.312h-1.851c-.075.804-.09 1.731.016 2.663.193 1.708.753 3.119 1.736 3.987 3.437 3.038 4.887 6.485 5.186 8.153.023.126.034.253.034.381v19.316a2.156 2.156 0 0 1-2.156 2.156h-25.156a2.157 2.157 0 1 1 0-4.312h23V218.36c-.215-.85-1.199-3.262-3.764-5.529-2.108-1.863-2.911-4.495-3.165-6.732a17.275 17.275 0 0 1-.058-3.15h-12.509a2.157 2.157 0 0 1-2.157-2.156Z" fill="#305680"/><path fill-rule="evenodd" clip-rule="evenodd" d="M171.133 200.283a2.155 2.155 0 0 0-2.095-1.646h-3.683a2.157 2.157 0 1 0 0 4.312h1.851c.074.804.09 1.731-.016 2.663-.194 1.708-.753 3.119-1.736 3.987-3.438 3.038-4.887 6.485-5.187 8.153a2.211 2.211 0 0 0-.033.381v19.316a2.156 2.156 0 1 0 4.312 0V218.36c.215-.85 1.198-3.262 3.764-5.529 2.108-1.863 2.911-4.495 3.165-6.732.256-2.259-.006-4.439-.342-5.816Z" fill="#305680"/><path fill-rule="evenodd" clip-rule="evenodd" d="M191.5 239.605h-69a7.188 7.188 0 1 0 0 14.375h69a7.188 7.188 0 1 0 0-14.375Zm-69-4.312c-6.351 0-11.5 5.149-11.5 11.5s5.149 11.5 11.5 11.5h69c6.351 0 11.5-5.149 11.5-11.5s-5.149-11.5-11.5-11.5h-69Z" fill="#305680"/><path d="M130.406 246.793a2.156 2.156 0 1 1-4.311 0 2.156 2.156 0 0 1 4.311 0ZM141.906 246.793a2.156 2.156 0 1 1-4.311 0 2.156 2.156 0 0 1 4.311 0ZM153.406 246.793a2.156 2.156 0 1 1-4.311 0 2.156 2.156 0 0 1 4.311 0ZM164.906 246.793a2.156 2.156 0 1 1-4.311 0 2.156 2.156 0 0 1 4.311 0ZM176.406 246.793a2.156 2.156 0 1 1-4.311 0 2.156 2.156 0 0 1 4.311 0ZM187.906 246.793a2.156 2.156 0 1 1-4.311 0 2.156 2.156 0 0 1 4.311 0Z" fill="#305680"/><path fill-rule="evenodd" clip-rule="evenodd" d="M111 177.973c0-1.191.965-2.157 2.156-2.157h54.985a2.157 2.157 0 0 1 0 4.313h-54.985a2.156 2.156 0 0 1-2.156-2.156Zm68.102 0c0-1.191.965-2.157 2.156-2.157h19.586a2.157 2.157 0 0 1 0 4.313h-19.586a2.156 2.156 0 0 1-2.156-2.156ZM174.789 181.836c1.191 0 2.156.965 2.156 2.156v5.75a2.156 2.156 0 1 1-4.312 0v-5.75c0-1.191.965-2.156 2.156-2.156Z" fill="#305680"/><path fill-rule="evenodd" clip-rule="evenodd" d="M174.969 181.926a3.953 3.953 0 1 0 0-7.906 3.953 3.953 0 0 0 0 7.906Zm0 4.312c4.565 0 8.265-3.7 8.265-8.265a8.265 8.265 0 1 0-16.531 0 8.265 8.265 0 0 0 8.266 8.265Z" fill="#305680"/><path d="M0 212h43M150.75 24v80" stroke="#91A3BE" stroke-width="1.5"/><path d="M42 212.725a109.504 109.504 0 0 1 67.388-101.303A109.495 109.495 0 0 1 151.275 103l.003 1.552a107.943 107.943 0 0 0-99.594 66.843 107.95 107.95 0 0 0-8.132 41.327l-1.552.003Z" fill="#91A3BE"/><circle cx="151" cy="12" r="11.25" fill="#F7F9FC" stroke="#91A3BE" stroke-width="1.5"/></svg>