<svg width="92" height="90" fill="none" xmlns="http://www.w3.org/2000/svg"><g filter="url(#b)" clip-path="url(#a)"><mask id="c" maskUnits="userSpaceOnUse" x="12.401" y="34.846" width="43.125" height="43.832" fill="#000"><path fill="#fff" d="M12.401 34.846h43.125v43.832H12.401z"/><path fill-rule="evenodd" clip-rule="evenodd" d="M39.681 46.712c.417.247.953.203 1.295-.14l.456-.456a1 1 0 0 1 1.415 0l1.456 1.457a1 1 0 0 1 0 1.414l-.455.456c-.342.342-.386.878-.14 1.295a11.52 11.52 0 0 1 1.215 2.891c.28 1.043.406 2.09.394 3.119-.005.484.3.927.768 1.052l.619.166a1 1 0 0 1 .707 1.225l-.533 1.99a1 1 0 0 1-1.225.707l-.624-.167c-.467-.126-.953.104-1.19.526a11.495 11.495 0 0 1-4.397 4.398c-.423.238-.654.724-.53 1.193l.167.62a1 1 0 0 1-.707 1.225l-1.99.533a1 1 0 0 1-1.224-.707l-.167-.623c-.126-.468-.569-.774-1.053-.768a11.496 11.496 0 0 1-6-1.611c-.417-.247-.953-.203-1.295.14l-.457.455a1 1 0 0 1-1.414 0l-1.456-1.456a1 1 0 0 1 0-1.415l.453-.452c.342-.343.386-.88.139-1.296a11.517 11.517 0 0 1-1.218-2.897 11.522 11.522 0 0 1-.394-3.112c.005-.484-.3-.926-.768-1.052l-.622-.166a1 1 0 0 1-.707-1.225l.534-1.99a1 1 0 0 1 1.224-.707l.623.167c.468.126.954-.105 1.191-.527a11.496 11.496 0 0 1 4.395-4.4c.423-.238.654-.724.528-1.192l-.166-.622a1 1 0 0 1 .707-1.225l1.99-.533a1 1 0 0 1 1.224.707l.166.62c.126.468.57.774 1.054.768a11.496 11.496 0 0 1 6.012 1.615Z"/></mask><path d="m32.615 44.33-3.863 1.035 3.863-1.036ZM22.58 51.5l-1.035 3.864L22.58 51.5Zm1.191-.527-3.487-1.958 3.487 1.958Zm-3.038 1.067 3.863 1.036-3.863-1.036Zm1.224-.707 1.035-3.864-1.035 3.864Zm-1.05 3.922L19.87 59.12l1.035-3.864Zm1.389 1.218-4-.044 4 .044Zm-.768-1.052 1.035-3.863-1.035 3.863Zm2.24 8.357 2.829 2.828-2.829-2.828Zm.14-1.296-3.441 2.04 3.44-2.04Zm-.592 3.163 2.828-2.829-2.828 2.829Zm0-1.415-2.829-2.828 2.829 2.828Zm2.87 2.871 2.829 2.829-2.829-2.829Zm-1.414 0-2.828 2.829 2.828-2.829Zm3.165-.595-2.04 3.44 2.04-3.44Zm-1.294.14-2.829-2.83 2.829 2.83Zm8.348 2.24-3.864 1.035 3.864-1.036Zm-1.053-.769-.049-4 .049 4Zm5.141.34 3.864-1.035-3.864 1.035Zm.363-1.813-1.956-3.489 1.956 3.49Zm-.53 1.193-3.863 1.035 3.864-1.035Zm6.117-6.117-1.035 3.863 1.035-3.864Zm-1.19.526-3.487-1.96 3.487 1.96Zm1.814-.36-1.035 3.864 1.035-3.863Zm1.051-3.921 1.035-3.864-1.035 3.864Zm.707 1.225-3.864-1.036 3.864 1.036Zm-3.702-8.453L47.15 48.7l-3.442 2.038Zm.594-3.165 2.829-2.828-2.829 2.828Zm0 1.414-2.828-2.828 2.828 2.828ZM32.45 43.71l-3.863 1.035 3.863-1.035Zm8.527 2.864-2.828-2.829 2.828 2.829Zm-1.295.139-2.041 3.44 2.041-3.44ZM46.085 57.8l-1.035 3.864 1.035-3.864ZM35.157 69.51l3.864-1.035-3.864 1.035Zm-6.63-24.749 3.864-1.035-3.863 1.035Zm12.905 1.357-2.828-2.829 2.828 2.829Zm1.415 0 2.828-2.829-2.828 2.829Zm-4.243-2.829-.456.456 5.657 5.657.456-.456-5.657-5.657Zm8.528 1.457-1.457-1.457-5.657 5.657 1.457 1.457 5.657-5.657Zm-.455 7.526.455-.455-5.657-5.657-.455.455 5.657 5.657Zm-6.41.505c.34.572.609 1.204.792 1.888l7.728-2.07c-.374-1.395-.93-2.7-1.636-3.894l-6.884 4.075Zm.792 1.888c.184.687.266 1.37.259 2.037l7.999.093a15.521 15.521 0 0 0-.53-4.2l-7.728 2.07Zm6.68-.562-.618-.165-2.07 7.727.618.166 2.07-7.728Zm3.003 8.114.533-1.99-7.728-2.07-.533 1.99 7.728 2.07Zm-6.748 3.368.624.167 2.07-7.727-.623-.167-2.07 7.727Zm-3.642-5.297a7.496 7.496 0 0 1-2.866 2.87l3.911 6.978a15.496 15.496 0 0 0 5.929-5.928l-6.974-3.92Zm2.59 7.136-.165-.62-7.728 2.07.166.62 7.728-2.07Zm-5.525 6.657 1.99-.534-2.07-7.727-1.99.533 2.07 7.728Zm-6.29-4.158.167.622 7.727-2.07-.167-.623-7.727 2.07Zm2.762-5.803a7.497 7.497 0 0 1-3.912-1.053l-4.08 6.882a15.497 15.497 0 0 0 8.089 2.17l-.097-8Zm-4.874 5.812.456-.456-5.657-5.657-.456.456 5.657 5.657Zm-8.528-1.457 1.457 1.457 5.657-5.657-1.457-1.457-5.657 5.657Zm.453-7.524-.453.453 5.657 5.657.453-.453-5.657-5.657Zm6.408-.507a7.52 7.52 0 0 1-.794-1.892l-7.727 2.07a15.522 15.522 0 0 0 1.64 3.902l6.881-4.08Zm-.794-1.892a7.518 7.518 0 0 1-.258-2.032l-8-.089a15.519 15.519 0 0 0 .53 4.192l7.728-2.07Zm-3.99-6.992-.622-.167-2.07 7.727.62.167 2.071-7.727Zm1.499 3.507.533-1.99-7.727-2.07-.533 1.99 7.727 2.07Zm-3.141.132.623.167 2.07-7.727-.622-.167-2.071 7.727Zm6.337-2.266a7.497 7.497 0 0 1 2.864-2.87l-3.915-6.977a15.496 15.496 0 0 0-5.924 5.93l6.975 3.917Zm5.299-8.586-.167-.621-7.727 2.07.166.622 7.728-2.07ZM30.27 47.4l1.99-.533-2.07-7.727-1.99.533 2.07 7.727Zm-1.684-2.654.166.62 7.727-2.071-.166-.62-7.728 2.07Zm5.134 4.352a7.497 7.497 0 0 1 3.92 1.054l4.083-6.88a15.497 15.497 0 0 0-8.105-2.173l.102 7.999Zm-4.968-3.733c.643 2.402 2.832 3.76 4.968 3.733l-.102-8a2.937 2.937 0 0 1 2.861 2.197l-7.727 2.07Zm1.372 4.698c1.862-1.046 3.077-3.316 2.434-5.716l-7.728 2.07a2.937 2.937 0 0 1 1.378-3.331l3.916 6.977Zm-8.579 5.303c2.397.642 4.668-.569 5.714-2.433l-6.975-3.916a2.938 2.938 0 0 1 3.332-1.378l-2.07 7.727Zm3.051-2.288a3 3 0 0 1-3.674 2.12l2.07-7.727a5 5 0 0 0-6.123 3.536l7.727 2.07Zm-2.654-1.685a3 3 0 0 1 2.121 3.674l-7.727-2.07a5 5 0 0 0 3.535 6.123l2.07-7.727Zm4.354 5.127c.023-2.134-1.335-4.318-3.733-4.96l-2.07 7.727a2.937 2.937 0 0 1-2.197-2.856l8 .089Zm.3 10.088c1.757-1.756 1.84-4.327.752-6.164l-6.881 4.08a2.937 2.937 0 0 1 .473-3.573l5.657 5.657Zm-.452-3.79a3 3 0 0 1 0 4.243l-5.657-5.657a5 5 0 0 0 0 7.071l5.657-5.657Zm-2.786 1.457a3 3 0 0 1 4.243 0l-5.657 5.657a5 5 0 0 0 7.07 0l-5.656-5.657Zm6.619-1.208c-1.838-1.09-4.409-1.002-6.163.752l5.657 5.657a2.937 2.937 0 0 1-3.574.473l4.08-6.882Zm8.877 4.785c-.643-2.4-2.83-3.758-4.965-3.732l.097 7.999a2.937 2.937 0 0 1-2.859-2.196l7.727-2.07Zm-3.639 1.642a3 3 0 0 1 2.122-3.674l2.07 7.727a5 5 0 0 0 3.536-6.123l-7.727 2.07Zm2.271-6.337c-1.864 1.045-3.08 3.316-2.437 5.717l7.728-2.07a2.937 2.937 0 0 1-1.38 3.332l-3.911-6.979Zm8.579-5.3c-2.396-.641-4.666.568-5.713 2.43l6.974 3.921a2.938 2.938 0 0 1-3.332 1.377l2.07-7.727Zm-3.05 2.29a3 3 0 0 1 3.673-2.122l-2.07 7.727a5 5 0 0 0 6.124-3.535l-7.728-2.07Zm2.654 1.684a3 3 0 0 1-2.122-3.675l7.728 2.071a5 5 0 0 0-3.536-6.124l-2.07 7.728Zm-4.65-15.216c-1.754 1.755-1.84 4.325-.752 6.162L47.15 48.7a2.937 2.937 0 0 1-.474 3.57l-5.657-5.656Zm.456 3.788a3 3 0 0 1 0-4.243l5.657 5.657a5 5 0 0 0 0-7.071l-5.657 5.657Zm-9.215-3.536a3 3 0 0 1-3.674-2.121l7.727-2.071a5 5 0 0 0-6.124-3.535l2.07 7.727Zm5.888-3.122a2.938 2.938 0 0 1 3.575-.472l-4.083 6.88c1.838 1.09 4.41 1.004 6.165-.75l-5.657-5.658Zm3.17 12.957c-.025 2.135 1.333 4.32 3.732 4.963l2.07-7.727a2.937 2.937 0 0 1 2.197 2.857l-8-.093Zm-5.971 9.651a3 3 0 0 1 3.674 2.121l-7.727 2.071a5 5 0 0 0 6.123 3.536l-2.07-7.728Zm-2.956-22.627a3 3 0 0 1-2.121 3.674l-2.07-7.727a5 5 0 0 0-3.536 6.123l7.727-2.07Zm11.87 5.22a3 3 0 0 1-4.243 0l5.657-5.657a5 5 0 0 0-7.07 0l5.656 5.657Z" fill="#305680" mask="url(#c)"/><path fill-rule="evenodd" clip-rule="evenodd" d="M26.815 58.483a7.242 7.242 0 1 0 13.99-3.748 7.242 7.242 0 0 0-13.99 3.748Zm4.051-1.085a3.05 3.05 0 1 0 5.893-1.58 3.05 3.05 0 0 0-5.893 1.58ZM57.897 18.024c-.217.807-.914 1.38-1.733 1.545-.535.108-1.065.25-1.586.424-.792.264-1.682.117-2.272-.473l-.08-.08a2 2 0 0 0-2.828 0l-3.757 3.758a2 2 0 0 0 0 2.828l.078.078c.59.59.737 1.481.472 2.272a13.295 13.295 0 0 0-.424 1.59c-.165.818-.738 1.515-1.545 1.731l-.11.03a2 2 0 0 0-1.414 2.45l1.375 5.133a2 2 0 0 0 2.45 1.414l.11-.03c.805-.216 1.65.1 2.202.725A13.484 13.484 0 0 0 50 42.583c.624.553.94 1.397.725 2.202l-.03.112a2 2 0 0 0 1.414 2.45l5.133 1.375a2 2 0 0 0 2.45-1.415l.029-.109c.216-.806.914-1.38 1.733-1.545a13.29 13.29 0 0 0 1.59-.425c.792-.265 1.682-.117 2.273.473l.077.077a2 2 0 0 0 2.828 0l3.758-3.757a2 2 0 0 0 0-2.829l-.079-.078c-.59-.59-.737-1.48-.473-2.272.175-.521.316-1.052.424-1.587.165-.819.738-1.517 1.545-1.733l.107-.028a2 2 0 0 0 1.414-2.45l-1.375-5.133a2 2 0 0 0-2.45-1.414l-.109.029c-.805.216-1.65-.1-2.202-.725a13.473 13.473 0 0 0-1.163-1.163c-.624-.553-.94-1.397-.725-2.202l.03-.11a2 2 0 0 0-1.415-2.45L60.375 16.5a2 2 0 0 0-2.45 1.415l-.028.11Zm-2.38 17.878A4.655 4.655 0 1 0 62.1 29.32a4.655 4.655 0 0 0-6.583 6.583Z" fill="#2A7DEC"/></g><path d="M.75 24C.75 11.16 11.16.75 24 .75h44C80.84.75 91.25 11.16 91.25 24v42c0 12.84-10.41 23.25-23.25 23.25H24C11.16 89.25.75 78.84.75 66V24Z" stroke="#3E9AF8" stroke-width="1.5"/><defs><clipPath id="a"><path d="M0 24C0 10.745 10.745 0 24 0h44c13.255 0 24 10.745 24 24v42c0 13.255-10.745 24-24 24H24C10.745 90 0 79.255 0 66V24Z" fill="#fff"/></clipPath><filter id="b" x="-4" y="5" width="100" height="100" filterUnits="userSpaceOnUse" color-interpolation-filters="sRGB"><feFlood flood-opacity="0" result="BackgroundImageFix"/><feColorMatrix in="SourceAlpha" values="0 0 0 0 0 0 0 0 0 0 0 0 0 0 0 0 0 0 127 0" result="hardAlpha"/><feOffset dy="10"/><feGaussianBlur stdDeviation="10"/><feColorMatrix values="0 0 0 0 0 0 0 0 0 0 0 0 0 0 0 0 0 0 0.1 0"/><feBlend in2="BackgroundImageFix" result="effect1_dropShadow_10346_26576"/><feBlend in="SourceGraphic" in2="effect1_dropShadow_10346_26576" result="shape"/></filter></defs></svg>