<svg width="285" height="210" fill="none" xmlns="http://www.w3.org/2000/svg"><path d="M107.75 114.773c0-45.425 36.825-82.25 82.25-82.25s82.25 36.825 82.25 82.25c0 45.426-36.825 82.25-82.25 82.25s-82.25-36.824-82.25-82.25Z" stroke="#3E9AF8" stroke-width="1.5"/><path fill-rule="evenodd" clip-rule="evenodd" d="M222.861 69.471a2.195 2.195 0 0 1 1.844.3c5.514 3.775 14.671 15.549 9.847 33.367a2.195 2.195 0 0 1-1.531 1.542l-2.236.621v8.835a2.196 2.196 0 1 1-4.392 0v-7.613l-3.529.982a2.197 2.197 0 0 1-2.703-1.523l-8.693-30.981a2.195 2.195 0 0 1 1.511-2.705l9.882-2.825Zm-6.574 6.448 7.511 26.767 6.818-1.897c3.32-14.099-3.34-23.368-7.591-26.796l-6.738 1.926ZM201.206 98.56a2.196 2.196 0 0 1 2.392 1.981l1.446 15.388 3.852 39.839h24.909a2.196 2.196 0 1 1 0 4.392h-86.382a2.196 2.196 0 0 1-2.196-2.196v-22.233c0-.363.09-.721.262-1.041l5.49-10.205a2.196 2.196 0 0 1 1.934-1.156h2.654v-9.837a2.196 2.196 0 1 1 4.392 0v9.837h7.961c1.213 0 2.196.983 2.196 2.196v8.01h3.478c1.213 0 2.196.983 2.196 2.196v20.037h7.328l3.618-39.827.002-.024 1.234-12.112a2.195 2.195 0 1 1 4.369.444l-.987 9.695h9.092l-1.221-12.992a2.197 2.197 0 0 1 1.981-2.392Zm-.342 19.776h-6.592l7.288 7.199-.696-7.199Zm-1.883 10.825-8.292-8.19-.744 8.19h9.036Zm-9.781 8.208-1.672 18.399h15.06L189.2 137.37Zm14.741 12.794-12.086-16.61h10.481l1.605 16.61Zm-32.544 5.605v-17.841h-11.438v17.841h11.438Zm-15.83 0v-20.037c0-1.213.983-2.196 2.196-2.196h7.961v-5.814h-11.499l-4.606 8.563v19.484h5.948Zm73.022-28.338c1.213 0 2.196.983 2.196 2.196v11.299a2.196 2.196 0 1 1-4.392 0v-11.299c0-1.213.983-2.196 2.196-2.196Z" fill="#3E9AF8"/><path d="M230.693 122.095a2.196 2.196 0 1 1-4.392 0 2.196 2.196 0 0 1 4.392 0Z" fill="#3E9AF8"/><path fill-rule="evenodd" clip-rule="evenodd" d="m214.403 86.15-61.111 17.124a4.026 4.026 0 1 0 2.172 7.754l61.112-17.124-2.173-7.754Zm-62.297 12.895a8.42 8.42 0 0 0 4.543 16.213l65.342-18.31-4.543-16.212-65.342 18.309ZM231.608 155.769v-7.595a3.57 3.57 0 0 0-7.138 0v7.595h7.138Zm4.392-7.595a7.96 7.96 0 0 0-7.961-7.961 7.96 7.96 0 0 0-7.961 7.961v11.987H236v-11.987Z" fill="#3E9AF8"/><path d="M187.551.773v16" stroke="#3E9AF8" stroke-width="1.5"/><path transform="matrix(1 0 0 -1 21.23 111.484)" stroke="#3E9AF8" stroke-width="1.5" d="M0-.75h70.773"/><path d="M188.232 15.767a96.72 96.72 0 0 0-37.147 7.318 96.86 96.86 0 0 0-31.51 21.022 97.064 97.064 0 0 0-21.061 31.516 97.198 97.198 0 0 0-7.396 37.196h1.348a95.846 95.846 0 0 1 7.292-36.679 95.712 95.712 0 0 1 20.768-31.077 95.52 95.52 0 0 1 31.072-20.73 95.374 95.374 0 0 1 36.63-7.216l.004-1.35Z" fill="#3E9AF8"/><path d="M10.616 122.255c5.448 0 9.866-4.425 9.866-9.885 0-5.461-4.418-9.886-9.866-9.886-5.448 0-9.866 4.425-9.866 9.886 0 5.46 4.418 9.885 9.866 9.885Z" fill="#F4F8FE" stroke="#3E9AF8" stroke-width="1.5"/></svg>