<svg width="262" height="322" fill="none" xmlns="http://www.w3.org/2000/svg"><path d="M60.25 107c0-51.5 41.749-93.25 93.25-93.25S246.75 55.5 246.75 107c0 51.501-41.749 93.25-93.25 93.25S60.25 158.501 60.25 107Z" stroke="#3E9AF8" stroke-width="1.5"/><path fill-rule="evenodd" clip-rule="evenodd" d="M186.361 61.698a2.195 2.195 0 0 1 1.844.3c5.514 3.774 14.671 15.548 9.847 33.366a2.194 2.194 0 0 1-1.531 1.542l-2.236.622v8.835a2.196 2.196 0 1 1-4.392 0v-7.614l-3.529.982a2.196 2.196 0 0 1-2.703-1.522l-8.693-30.981a2.195 2.195 0 0 1 1.511-2.705l9.882-2.825Zm-6.574 6.447 7.511 26.767 6.818-1.896c3.32-14.099-3.34-23.369-7.591-26.797l-6.738 1.926Zm-15.081 22.643a2.196 2.196 0 0 1 2.392 1.98l1.446 15.388 3.852 39.84h24.909a2.196 2.196 0 1 1 0 4.392h-86.382a2.196 2.196 0 0 1-2.196-2.196v-22.234c0-.363.09-.72.262-1.04l5.49-10.206a2.197 2.197 0 0 1 1.934-1.155h2.654v-9.837a2.197 2.197 0 1 1 4.392 0v9.837h7.961c1.213 0 2.196.983 2.196 2.196v8.009h3.478c1.213 0 2.196.983 2.196 2.196v20.038h7.328l3.618-39.827.002-.024 1.234-12.113a2.195 2.195 0 1 1 4.369.445l-.987 9.694h9.092l-1.221-12.991a2.197 2.197 0 0 1 1.981-2.392Zm-.342 19.776h-6.592l7.288 7.199-.696-7.199Zm-1.883 10.824-8.292-8.189-.744 8.189h9.036Zm-9.781 8.209-1.672 18.399h15.06L152.7 129.597Zm14.741 12.794-12.086-16.61h10.481l1.605 16.61Zm-32.544 5.605v-17.841h-11.438v17.841h11.438Zm-15.83 0v-20.038c0-1.213.983-2.196 2.196-2.196h7.961v-5.813h-11.499l-4.606 8.563v19.484h5.948Zm73.022-28.339c1.213 0 2.196.983 2.196 2.196v11.299a2.196 2.196 0 1 1-4.392 0v-11.299c0-1.213.983-2.196 2.196-2.196Z" fill="#3E9AF8"/><path d="M194.193 114.321a2.196 2.196 0 1 1-4.392 0 2.196 2.196 0 0 1 4.392 0Z" fill="#3E9AF8"/><path fill-rule="evenodd" clip-rule="evenodd" d="M177.903 78.377 116.792 95.5a4.026 4.026 0 1 0 2.172 7.754l61.112-17.124-2.173-7.754Zm-62.297 12.895a8.419 8.419 0 0 0 4.543 16.212l65.342-18.309-4.543-16.213-65.342 18.31ZM195.108 147.996v-7.595a3.57 3.57 0 0 0-7.138 0v7.595h7.138Zm4.392-7.595a7.962 7.962 0 1 0-15.922 0v11.987H199.5v-11.987Z" fill="#3E9AF8"/><path d="M.5 110h43M151.25 298v-80" stroke="#3E9AF8" stroke-width="1.5"/><mask id="a" fill="#fff"><path d="M42.5 109.5A109.5 109.5 0 0 0 152 219v-1.33A108.173 108.173 0 0 1 43.83 109.5H42.5Z"/></mask><path d="M42.5 109.5A109.5 109.5 0 0 0 152 219v-1.33A108.173 108.173 0 0 1 43.83 109.5H42.5Z" fill="#3E9AF8" stroke="#3E9AF8" stroke-width="2" mask="url(#a)"/><circle cx="12" cy="12" r="11.25" transform="matrix(1 0 0 -1 139.5 322)" fill="#F4F8FE" stroke="#3E9AF8" stroke-width="1.5"/></svg>