<svg width="334" height="290" fill="none" xmlns="http://www.w3.org/2000/svg"><rect x=".75" y="43.75" width="158.5" height="158.5" rx="39.25" fill="#fff" stroke="#3E9AF8" stroke-width="1.5"/><path d="M28.398 101.4h103.2v43.2h-103.2v-43.2Z" fill="#fff"/><path d="M28.398 101.4h103.2v43.2h-103.2v-43.2Z" fill="url(#a)"/><path d="M29.298 102.3h101.4v41.4h-101.4v-41.4Z" stroke="#000" stroke-opacity=".12" stroke-width="1.8"/><rect x="132.502" y="93.9" width="6.6" height="58.2" rx="3.3" fill="#D9D9D9" stroke="#727171" stroke-width="1.8"/><rect x="20.9" y="93.9" width="6.6" height="58.2" rx="3.3" fill="#D9D9D9" stroke="#727171" stroke-width="1.8"/><rect x="174.75" y=".75" width="158.5" height="158.5" rx="39.25" fill="#fff" stroke="#3E9AF8" stroke-width="1.5"/><rect x="204.75" y="30.75" width="98.5" height="98.5" rx="39.25" stroke="#3E9AF8" stroke-width="1.5"/><rect x="204.5" y="30.5" width="99" height="99" rx="23.5" fill="#fff"/><rect x="204.5" y="30.5" width="99" height="99" rx="23.5" fill="url(#b)"/><rect x="204.5" y="30.5" width="99" height="99" rx="23.5" fill="url(#c)"/><rect x="204.5" y="30.5" width="99" height="99" rx="23.5" stroke="#fff"/><path d="M260.666 82.309c0 2.04-.791 3.996-2.197 5.439a7.48 7.48 0 0 1-2.804 1.813m10-6.74c0-10.961-11.666-19.487-11.666-19.487s-11.667 8.526-11.667 19.487c0 3.23 1.229 6.329 3.417 8.613 2.188 2.284 5.156 3.566 8.25 3.566 3.094 0 6.061-1.283 8.249-3.567 2.188-2.284 3.417-5.382 3.417-8.612Z" stroke="#1C943E" stroke-width="3" stroke-linecap="round" stroke-linejoin="round"/><rect x="74.75" y="130.75" width="158.5" height="158.5" rx="39.25" fill="#fff" stroke="#3E9AF8" stroke-width="1.5"/><path d="M102.398 188.4h103.2v43.2h-103.2v-43.2Z" fill="#fff"/><path d="M102.398 188.4h103.2v43.2h-103.2v-43.2Z" fill="url(#d)"/><path d="M103.298 189.3h101.4v41.4h-101.4v-41.4Z" stroke="#000" stroke-opacity=".12" stroke-width="1.8"/><rect x="206.502" y="180.9" width="6.6" height="58.2" rx="3.3" fill="#D9D9D9" stroke="#727171" stroke-width="1.8"/><rect x="94.9" y="180.9" width="6.6" height="58.2" rx="3.3" fill="#D9D9D9" stroke="#727171" stroke-width="1.8"/><path d="M136.3 177.6c0 1.16.94 2.1 2.1 2.1h31.2a2.1 2.1 0 0 0 2.1-2.1v-22.2a5.1 5.1 0 0 0-5.1-5.1h-25.2a5.1 5.1 0 0 0-5.1 5.1v22.2Z" fill="#1C943E"/><path d="M136.3 177.6c0 1.16.94 2.1 2.1 2.1h31.2a2.1 2.1 0 0 0 2.1-2.1v-22.2a5.1 5.1 0 0 0-5.1-5.1h-25.2a5.1 5.1 0 0 0-5.1 5.1v22.2Z" fill="url(#e)"/><path d="M136.3 177.6c0 1.16.94 2.1 2.1 2.1h31.2a2.1 2.1 0 0 0 2.1-2.1v-22.2a5.1 5.1 0 0 0-5.1-5.1h-25.2a5.1 5.1 0 0 0-5.1 5.1v22.2Z" stroke="#fff" stroke-width=".6"/><path d="M160 231.6v-43.2h-12.6v43.2H160Z" fill="#1C943E"/><path d="M160 231.6v-43.2h-12.6v43.2H160Z" fill="url(#f)"/><path d="M160 231.6v-43.2h-12.6v43.2H160Z" fill="url(#g)"/><path d="M159.7 231.3v-42.6h-12v42.6h12Z" stroke="#000" stroke-opacity=".12" stroke-width=".6"/><path d="M169.6 188.4a2.4 2.4 0 0 0 2.4-2.4v-3.6a2.4 2.4 0 0 0-2.4-2.4h-31.2a2.4 2.4 0 0 0-2.4 2.4v3.6a2.4 2.4 0 0 0 2.4 2.4h31.2Z" fill="#647484"/><path d="M169.6 188.4a2.4 2.4 0 0 0 2.4-2.4v-3.6a2.4 2.4 0 0 0-2.4-2.4h-31.2a2.4 2.4 0 0 0-2.4 2.4v3.6a2.4 2.4 0 0 0 2.4 2.4h31.2Z" fill="url(#h)"/><path d="M169.6 187.5a1.5 1.5 0 0 0 1.5-1.5v-3.6a1.5 1.5 0 0 0-1.5-1.5h-31.2a1.5 1.5 0 0 0-1.5 1.5v3.6a1.5 1.5 0 0 0 1.5 1.5h31.2Z" stroke="#000" stroke-opacity=".12" stroke-width="1.8"/><defs><linearGradient id="a" x1="55.23" y1="101.4" x2="55.116" y2="144.604" gradientUnits="userSpaceOnUse"><stop stop-color="#727171"/><stop offset=".264" stop-color="#727171" stop-opacity=".35"/><stop offset=".418" stop-color="#727171" stop-opacity=".1"/><stop offset=".498" stop-color="#fff" stop-opacity="0"/><stop offset=".581" stop-color="#727171" stop-opacity=".1"/><stop offset=".719" stop-color="#727171" stop-opacity=".35"/><stop offset="1" stop-color="#727171"/></linearGradient><linearGradient id="b" x1="304" y1="80.119" x2="205.5" y2="79.881" gradientUnits="userSpaceOnUse"><stop stop-color="#020202" stop-opacity=".2"/><stop offset=".05" stop-color="#020202" stop-opacity=".12"/><stop offset=".15" stop-color="#fff" stop-opacity=".12"/><stop offset=".511" stop-color="#fff" stop-opacity=".2"/><stop offset=".85" stop-color="#fff" stop-opacity=".12"/><stop offset=".95" stop-color="#020202" stop-opacity=".12"/><stop offset=".993" stop-color="#020202" stop-opacity=".2"/></linearGradient><linearGradient id="c" x1="254" y1="30" x2="254" y2="130" gradientUnits="userSpaceOnUse"><stop offset=".01" stop-color="#020202" stop-opacity=".2"/><stop offset=".05" stop-color="#020202" stop-opacity=".12"/><stop offset=".153" stop-color="#fff" stop-opacity=".12"/><stop offset=".5" stop-color="#fff" stop-opacity=".2"/><stop offset=".85" stop-color="#fff" stop-opacity=".12"/><stop offset=".95" stop-opacity=".12"/><stop offset="1" stop-opacity=".2"/></linearGradient><linearGradient id="d" x1="129.23" y1="188.4" x2="129.116" y2="231.604" gradientUnits="userSpaceOnUse"><stop stop-color="#727171"/><stop offset=".264" stop-color="#727171" stop-opacity=".35"/><stop offset=".418" stop-color="#727171" stop-opacity=".1"/><stop offset=".498" stop-color="#fff" stop-opacity="0"/><stop offset=".581" stop-color="#727171" stop-opacity=".1"/><stop offset=".719" stop-color="#727171" stop-opacity=".35"/><stop offset="1" stop-color="#727171"/></linearGradient><linearGradient id="e" x1="174.582" y1="154.824" x2="133.423" y2="155.418" gradientUnits="userSpaceOnUse"><stop stop-color="#020202" stop-opacity=".35"/><stop offset=".141" stop-color="#020202" stop-opacity=".12"/><stop offset=".399" stop-color="#fff" stop-opacity=".12"/><stop offset=".498" stop-color="#fff" stop-opacity=".3"/><stop offset=".597" stop-color="#fff" stop-opacity=".12"/><stop offset=".859" stop-color="#020202" stop-opacity=".12"/><stop offset="1" stop-color="#020202" stop-opacity=".35"/></linearGradient><linearGradient id="f" x1="153.685" y1="188.4" x2="154.038" y2="230.949" gradientUnits="userSpaceOnUse"><stop stop-color="#020202" stop-opacity=".35"/><stop offset=".158" stop-color="#020202" stop-opacity=".15"/><stop offset=".282" stop-color="#fff" stop-opacity=".12"/><stop offset=".503" stop-color="#fff" stop-opacity=".2"/><stop offset=".721" stop-color="#fff" stop-opacity=".12"/><stop offset=".842" stop-color="#020202" stop-opacity=".15"/><stop offset=".993" stop-color="#020202" stop-opacity=".35"/></linearGradient><linearGradient id="g" x1="160" y1="210" x2="147.4" y2="210" gradientUnits="userSpaceOnUse"><stop offset=".01" stop-color="#020202" stop-opacity=".2"/><stop offset=".05" stop-color="#020202" stop-opacity=".12"/><stop offset=".153" stop-color="#fff" stop-opacity=".12"/><stop offset=".5" stop-color="#fff" stop-opacity=".2"/><stop offset=".85" stop-color="#fff" stop-opacity=".12"/><stop offset=".95" stop-opacity=".12"/><stop offset="1" stop-opacity=".2"/></linearGradient><linearGradient id="h" x1="137.372" y1="183.469" x2="170.266" y2="184.286" gradientUnits="userSpaceOnUse"><stop stop-color="#020202" stop-opacity=".2"/><stop offset=".091" stop-color="#020202" stop-opacity=".18"/><stop offset=".1" stop-color="#020202" stop-opacity=".1"/><stop offset=".205" stop-color="#020202" stop-opacity=".08"/><stop offset=".216" stop-color="#020202" stop-opacity=".05"/><stop offset=".37" stop-color="#020202" stop-opacity=".02"/><stop offset=".378" stop-color="#fff" stop-opacity=".01"/><stop offset=".624" stop-color="#fff" stop-opacity=".01"/><stop offset=".631" stop-color="#020202" stop-opacity=".02"/><stop offset=".776" stop-color="#020202" stop-opacity=".05"/><stop offset=".79" stop-color="#020202" stop-opacity=".08"/><stop offset=".9" stop-color="#020202" stop-opacity=".1"/><stop offset=".908" stop-color="#020202" stop-opacity=".18"/><stop offset="1" stop-color="#020202" stop-opacity=".2"/></linearGradient></defs></svg>