<svg width="337" height="291" viewBox="0 0 337 291" fill="none" xmlns="http://www.w3.org/2000/svg">
<rect x="80.5" y="1" width="159" height="159" rx="39.5" stroke="#3E9AF8"/>
<rect x="102.3" y="51.1672" width="119.4" height="59.4" rx="2.1" stroke="black" stroke-opacity="0.87" stroke-width="0.6"/>
<path d="M145.224 68.1832H142.033V66.8953H145.224C145.842 66.8953 146.342 66.7969 146.725 66.6C147.108 66.4031 147.387 66.1297 147.562 65.7797C147.742 65.4297 147.832 65.0305 147.832 64.582C147.832 64.1719 147.742 63.7863 147.562 63.4254C147.387 63.0645 147.108 62.7746 146.725 62.5559C146.342 62.3316 145.842 62.2195 145.224 62.2195H142.402V72.8672H140.819V60.9234H145.224C146.126 60.9234 146.889 61.0793 147.512 61.391C148.136 61.7027 148.609 62.1348 148.932 62.6871C149.254 63.234 149.416 63.8602 149.416 64.5656C149.416 65.3312 149.254 65.9848 148.932 66.5262C148.609 67.0676 148.136 67.4805 147.512 67.7648C146.889 68.0437 146.126 68.1832 145.224 68.1832ZM156.986 70.8164V63.9914H158.512V72.8672H157.06L156.986 70.8164ZM157.273 68.9461L157.905 68.9297C157.905 69.5203 157.842 70.0672 157.716 70.5703C157.596 71.068 157.399 71.5 157.125 71.8664C156.852 72.2328 156.494 72.5199 156.051 72.7277C155.608 72.9301 155.069 73.0313 154.435 73.0313C154.003 73.0313 153.606 72.9684 153.245 72.8426C152.89 72.7168 152.584 72.5227 152.327 72.2602C152.069 71.9977 151.87 71.6559 151.728 71.2348C151.591 70.8137 151.523 70.3078 151.523 69.7172V63.9914H153.04V69.7336C153.04 70.1328 153.084 70.4637 153.171 70.7262C153.264 70.9832 153.387 71.1883 153.541 71.3414C153.699 71.4891 153.874 71.593 154.066 71.6531C154.262 71.7133 154.465 71.7434 154.673 71.7434C155.318 71.7434 155.829 71.6203 156.207 71.3742C156.584 71.1227 156.855 70.7863 157.019 70.3652C157.188 69.9387 157.273 69.4656 157.273 68.9461ZM162.702 65.7551V72.8672H161.177V63.9914H162.62L162.702 65.7551ZM162.391 68.093L161.685 68.0684C161.691 67.4613 161.77 66.9008 161.923 66.3867C162.076 65.8672 162.303 65.416 162.604 65.0332C162.905 64.6504 163.279 64.3551 163.728 64.1473C164.176 63.934 164.696 63.8273 165.286 63.8273C165.702 63.8273 166.085 63.8875 166.435 64.0078C166.785 64.1227 167.088 64.3059 167.345 64.5574C167.602 64.809 167.802 65.1316 167.944 65.5254C168.086 65.9191 168.157 66.3949 168.157 66.9527V72.8672H166.64V67.0266C166.64 66.5617 166.561 66.1898 166.402 65.9109C166.249 65.632 166.03 65.4297 165.746 65.3039C165.461 65.1727 165.128 65.107 164.745 65.107C164.297 65.107 163.922 65.1863 163.621 65.3449C163.32 65.5035 163.08 65.7223 162.899 66.0012C162.719 66.2801 162.588 66.6 162.506 66.9609C162.429 67.3164 162.391 67.6937 162.391 68.093ZM168.141 67.2562L167.124 67.568C167.129 67.0812 167.209 66.6137 167.362 66.1652C167.52 65.7168 167.747 65.3176 168.043 64.9676C168.343 64.6176 168.713 64.3414 169.15 64.1391C169.588 63.9312 170.088 63.8273 170.651 63.8273C171.127 63.8273 171.548 63.8902 171.914 64.016C172.286 64.1418 172.598 64.3359 172.85 64.5984C173.107 64.8555 173.301 65.1863 173.432 65.591C173.563 65.9957 173.629 66.477 173.629 67.0348V72.8672H172.103V67.0184C172.103 66.5207 172.024 66.1352 171.865 65.8617C171.712 65.5828 171.493 65.3887 171.209 65.2793C170.93 65.1645 170.597 65.107 170.208 65.107C169.875 65.107 169.579 65.1645 169.322 65.2793C169.065 65.3941 168.849 65.5527 168.674 65.7551C168.499 65.952 168.365 66.1789 168.272 66.4359C168.185 66.693 168.141 66.9664 168.141 67.2562ZM177.811 65.6977V76.2797H176.286V63.9914H177.68L177.811 65.6977ZM183.792 68.3555V68.5277C183.792 69.173 183.715 69.7719 183.562 70.3242C183.409 70.8711 183.184 71.3469 182.889 71.7516C182.599 72.1562 182.241 72.4707 181.815 72.6949C181.388 72.9191 180.899 73.0313 180.346 73.0313C179.783 73.0313 179.285 72.9383 178.853 72.7523C178.421 72.5664 178.055 72.2957 177.754 71.9402C177.453 71.5848 177.213 71.1582 177.032 70.6605C176.857 70.1629 176.737 69.6023 176.671 68.9789V68.0602C176.737 67.4039 176.86 66.816 177.04 66.2965C177.221 65.777 177.459 65.334 177.754 64.9676C178.055 64.5957 178.418 64.3141 178.845 64.1227C179.272 63.9258 179.764 63.8273 180.322 63.8273C180.879 63.8273 181.374 63.9367 181.806 64.1555C182.238 64.3687 182.602 64.675 182.897 65.0742C183.193 65.4734 183.414 65.952 183.562 66.5098C183.715 67.0621 183.792 67.6773 183.792 68.3555ZM182.266 68.5277V68.3555C182.266 67.9125 182.219 67.4969 182.126 67.1086C182.033 66.7148 181.888 66.3703 181.692 66.075C181.5 65.7742 181.254 65.5391 180.953 65.3695C180.652 65.1945 180.294 65.107 179.879 65.107C179.496 65.107 179.162 65.1727 178.878 65.3039C178.599 65.4352 178.361 65.6129 178.164 65.8371C177.967 66.0559 177.806 66.3074 177.68 66.5918C177.56 66.8707 177.47 67.1605 177.409 67.4613V69.5859C177.519 69.9687 177.672 70.3297 177.869 70.6687C178.066 71.0023 178.328 71.273 178.656 71.4809C178.984 71.6832 179.397 71.7844 179.895 71.7844C180.305 71.7844 180.658 71.6996 180.953 71.5301C181.254 71.3551 181.5 71.1172 181.692 70.8164C181.888 70.5156 182.033 70.1711 182.126 69.7828C182.219 69.3891 182.266 68.9707 182.266 68.5277Z" fill="black" fill-opacity="0.87"/>
<g filter="url(#filter0_d_11143_177663)">
<rect x="111.602" y="80.8672" width="46.8" height="21.6" rx="2.9443" fill="#999999"/>
<path d="M135.102 90.843V91.2414C135.102 91.7893 135.031 92.2807 134.888 92.7156C134.745 93.1506 134.541 93.5208 134.275 93.8263C134.013 94.1317 133.698 94.3658 133.329 94.5285C132.961 94.6879 132.552 94.7676 132.104 94.7676C131.659 94.7676 131.252 94.6879 130.884 94.5285C130.518 94.3658 130.201 94.1317 129.932 93.8263C129.663 93.5208 129.454 93.1506 129.305 92.7156C129.159 92.2807 129.086 91.7893 129.086 91.2414V90.843C129.086 90.2951 129.159 89.8054 129.305 89.3737C129.451 88.9388 129.657 88.5686 129.922 88.2631C130.191 87.9543 130.508 87.7202 130.874 87.5608C131.242 87.3981 131.649 87.3168 132.094 87.3168C132.542 87.3168 132.951 87.3981 133.319 87.5608C133.688 87.7202 134.005 87.9543 134.27 88.2631C134.536 88.5686 134.74 88.9388 134.883 89.3737C135.029 89.8054 135.102 90.2951 135.102 90.843ZM133.852 91.2414V90.833C133.852 90.4279 133.812 90.071 133.732 89.7622C133.656 89.4501 133.542 89.1895 133.389 88.9803C133.239 88.7678 133.055 88.6084 132.836 88.5021C132.617 88.3926 132.369 88.3378 132.094 88.3378C131.818 88.3378 131.573 88.3926 131.357 88.5021C131.141 88.6084 130.957 88.7678 130.804 88.9803C130.655 89.1895 130.54 89.4501 130.46 89.7622C130.381 90.071 130.341 90.4279 130.341 90.833V91.2414C130.341 91.6465 130.381 92.0051 130.46 92.3172C130.54 92.6293 130.656 92.8933 130.809 93.1091C130.965 93.3216 131.151 93.4826 131.367 93.5922C131.583 93.6984 131.828 93.7516 132.104 93.7516C132.383 93.7516 132.63 93.6984 132.846 93.5922C133.062 93.4826 133.244 93.3216 133.394 93.1091C133.543 92.8933 133.656 92.6293 133.732 92.3172C133.812 92.0051 133.852 91.6465 133.852 91.2414ZM137.547 90.4296V94.668H136.347V89.2791H137.478L137.547 90.4296ZM137.333 91.7743L136.945 91.7693C136.948 91.3875 137.001 91.0372 137.104 90.7185C137.21 90.3997 137.357 90.1258 137.543 89.8967C137.732 89.6676 137.958 89.4916 138.22 89.3687C138.482 89.2426 138.774 89.1795 139.096 89.1795C139.355 89.1795 139.589 89.216 139.799 89.2891C140.011 89.3588 140.192 89.4733 140.342 89.6327C140.494 89.7921 140.61 89.9996 140.69 90.2553C140.77 90.5076 140.81 90.8181 140.81 91.1866V94.668H139.604V91.1816C139.604 90.9227 139.566 90.7185 139.49 90.569C139.417 90.4163 139.309 90.3084 139.166 90.2453C139.027 90.1789 138.852 90.1457 138.643 90.1457C138.437 90.1457 138.253 90.1889 138.09 90.2752C137.928 90.3615 137.79 90.4794 137.677 90.6288C137.567 90.7782 137.483 90.9509 137.423 91.1468C137.363 91.3427 137.333 91.5519 137.333 91.7743Z" fill="black" fill-opacity="0.87"/>
</g>
<g filter="url(#filter1_d_11143_177663)">
<path d="M165.902 83.8115C165.902 82.3511 167.085 81.1672 168.546 81.1672H209.457C210.918 81.1672 212.102 82.3511 212.102 83.8115V99.5229C212.102 100.983 210.918 102.167 209.457 102.167H168.546C167.085 102.167 165.902 100.983 165.902 99.5229V83.8115Z" stroke="black" stroke-opacity="0.38" stroke-width="0.6" shape-rendering="crispEdges"/>
<path d="M188.273 90.843V91.2414C188.273 91.7893 188.201 92.2807 188.059 92.7156C187.916 93.1506 187.712 93.5208 187.446 93.8263C187.184 94.1317 186.868 94.3658 186.5 94.5285C186.131 94.6879 185.723 94.7676 185.275 94.7676C184.83 94.7676 184.423 94.6879 184.054 94.5285C183.689 94.3658 183.372 94.1317 183.103 93.8263C182.834 93.5208 182.625 93.1506 182.476 92.7156C182.33 92.2807 182.256 91.7893 182.256 91.2414V90.843C182.256 90.2951 182.33 89.8054 182.476 89.3737C182.622 88.9388 182.828 88.5686 183.093 88.2631C183.362 87.9543 183.679 87.7202 184.044 87.5608C184.413 87.3981 184.82 87.3168 185.265 87.3168C185.713 87.3168 186.121 87.3981 186.49 87.5608C186.858 87.7202 187.176 87.9543 187.441 88.2631C187.707 88.5686 187.911 88.9388 188.054 89.3737C188.2 89.8054 188.273 90.2951 188.273 90.843ZM187.023 91.2414V90.833C187.023 90.4279 186.983 90.071 186.903 89.7622C186.827 89.4501 186.712 89.1895 186.56 88.9803C186.41 88.7678 186.226 88.6084 186.007 88.5021C185.788 88.3926 185.54 88.3378 185.265 88.3378C184.989 88.3378 184.743 88.3926 184.528 88.5021C184.312 88.6084 184.127 88.7678 183.975 88.9803C183.825 89.1895 183.711 89.4501 183.631 89.7622C183.551 90.071 183.512 90.4279 183.512 90.833V91.2414C183.512 91.6465 183.551 92.0051 183.631 92.3172C183.711 92.6293 183.827 92.8933 183.98 93.1091C184.136 93.3216 184.322 93.4826 184.538 93.5922C184.753 93.6984 184.999 93.7516 185.275 93.7516C185.554 93.7516 185.801 93.6984 186.017 93.5922C186.233 93.4826 186.415 93.3216 186.565 93.1091C186.714 92.8933 186.827 92.6293 186.903 92.3172C186.983 92.0051 187.023 91.6465 187.023 91.2414ZM191.152 94.668H189.951V88.7611C189.951 88.3594 190.026 88.0224 190.175 87.7501C190.328 87.4745 190.546 87.267 190.828 87.1275C191.11 86.9848 191.444 86.9134 191.829 86.9134C191.948 86.9134 192.066 86.9217 192.183 86.9383C192.299 86.9516 192.412 86.9731 192.521 87.003L192.491 87.9294C192.425 87.9128 192.352 87.9012 192.272 87.8945C192.196 87.8879 192.113 87.8846 192.023 87.8846C191.841 87.8846 191.683 87.9194 191.55 87.9892C191.421 88.0556 191.321 88.1535 191.251 88.283C191.185 88.4125 191.152 88.5719 191.152 88.7611V94.668ZM192.262 89.2791V90.1557H189.125V89.2791H192.262ZM194.882 94.668H193.682V88.7611C193.682 88.3594 193.756 88.0224 193.906 87.7501C194.058 87.4745 194.276 87.267 194.558 87.1275C194.84 86.9848 195.174 86.9134 195.559 86.9134C195.679 86.9134 195.797 86.9217 195.913 86.9383C196.029 86.9516 196.142 86.9731 196.252 87.003L196.222 87.9294C196.155 87.9128 196.082 87.9012 196.003 87.8945C195.926 87.8879 195.843 87.8846 195.753 87.8846C195.571 87.8846 195.413 87.9194 195.28 87.9892C195.151 88.0556 195.051 88.1535 194.982 88.283C194.915 88.4125 194.882 88.5719 194.882 88.7611V94.668ZM195.993 89.2791V90.1557H192.855V89.2791H195.993Z" fill="black" fill-opacity="0.76"/>
</g>
<rect x="177.75" y="71.25" width="158.5" height="158.5" rx="39.25" fill="#F4F8FE" stroke="#3E9AF8" stroke-width="1.5"/>
<rect width="120" height="90" transform="translate(197 105.5)" fill="#F4F8FE"/>
<rect x="234.5" y="191.15" width="45" height="4.35" rx="1.04947" fill="white"/>
<rect x="234.65" y="191.3" width="44.7" height="4.05" rx="0.899466" stroke="black" stroke-opacity="0.87" stroke-width="0.3"/>
<path d="M242.448 186.801H271.548L276.348 191.451H237.648L242.448 186.801Z" fill="white"/>
<path d="M238.019 191.301L242.509 186.951H271.488L275.978 191.301H238.019Z" stroke="black" stroke-opacity="0.87" stroke-width="0.3"/>
<rect x="197" y="105.5" width="120" height="81.6" rx="4.8" fill="white"/>
<rect x="197.15" y="105.65" width="119.7" height="81.3" rx="4.65" stroke="black" stroke-opacity="0.87" stroke-width="0.3"/>
<rect x="209" y="116.301" width="27" height="19.2" rx="1.2" fill="white"/>
<rect x="209.15" y="116.451" width="26.7" height="18.9" rx="1.05" stroke="black" stroke-opacity="0.87" stroke-width="0.3"/>
<path d="M222.246 127.338V127.9H219.387V127.417L220.775 125.902C220.928 125.73 221.048 125.582 221.136 125.457C221.224 125.332 221.285 125.22 221.32 125.12C221.357 125.019 221.376 124.92 221.376 124.824C221.376 124.689 221.35 124.571 221.3 124.47C221.251 124.366 221.179 124.285 221.083 124.227C220.987 124.166 220.871 124.136 220.734 124.136C220.576 124.136 220.443 124.17 220.336 124.238C220.228 124.307 220.147 124.401 220.093 124.522C220.038 124.642 220.011 124.778 220.011 124.933H219.305C219.305 124.685 219.361 124.458 219.475 124.253C219.588 124.046 219.752 123.882 219.967 123.761C220.182 123.638 220.44 123.576 220.743 123.576C221.028 123.576 221.27 123.624 221.47 123.72C221.669 123.815 221.82 123.951 221.924 124.127C222.029 124.303 222.082 124.511 222.082 124.751C222.082 124.884 222.06 125.016 222.017 125.146C221.975 125.277 221.913 125.408 221.833 125.539C221.755 125.668 221.662 125.798 221.555 125.929C221.447 126.058 221.329 126.188 221.2 126.321L220.277 127.338H222.246ZM225.681 123.635V124.021L223.976 127.9H223.232L224.934 124.197H222.725V123.635H225.681Z" fill="#002878"/>
<g filter="url(#filter2_d_11143_177663)">
<g clip-path="url(#clip0_11143_177663)">
<path d="M223.398 138.773C223.398 137.96 224.058 137.301 224.871 137.301H235.27C236.083 137.301 236.742 137.96 236.742 138.773V149.029C236.742 149.842 236.083 150.501 235.27 150.501H224.871C224.058 150.501 223.398 149.842 223.398 149.029V138.773Z" fill="white"/>
<g filter="url(#filter3_d_11143_177663)">
<path d="M236.742 138.773C236.742 137.96 236.083 137.301 235.27 137.301H224.871C224.058 137.301 223.399 137.96 223.399 138.773V149.029C223.399 149.842 224.058 150.501 224.871 150.501H235.27C236.083 150.501 236.742 149.842 236.742 149.029V138.773Z" fill="white"/>
<path d="M236.592 138.773C236.592 138.043 236 137.451 235.27 137.451H224.871C224.141 137.451 223.549 138.043 223.549 138.773V149.029C223.549 149.759 224.141 150.351 224.871 150.351H235.27C236 150.351 236.592 149.759 236.592 149.029V138.773Z" stroke="black" stroke-opacity="0.87" stroke-width="0.3"/>
<path d="M232.487 142.801C232.621 142.801 232.688 142.963 232.592 143.057L230.177 145.446C230.119 145.504 230.025 145.504 229.966 145.446L227.551 143.057C227.456 142.963 227.523 142.801 227.657 142.801H232.487Z" fill="black" fill-opacity="0.87"/>
</g>
</g>
<path d="M223.548 138.773C223.548 138.043 224.14 137.451 224.871 137.451H235.27C236 137.451 236.592 138.043 236.592 138.773V149.029C236.592 149.759 236 150.351 235.27 150.351H224.871C224.14 150.351 223.548 149.759 223.548 149.029V138.773Z" stroke="black" stroke-opacity="0.38" stroke-width="0.3"/>
</g>
<g filter="url(#filter4_d_11143_177663)">
<path d="M221.59 149.028C221.59 149.841 220.931 150.5 220.118 150.5H209.862C209.049 150.5 208.39 149.841 208.39 149.028V138.772C208.39 137.959 209.049 137.3 209.862 137.3H220.118C220.931 137.3 221.59 137.959 221.59 138.772V149.028Z" fill="white"/>
<path d="M221.44 149.028C221.44 149.758 220.848 150.35 220.118 150.35H209.862C209.132 150.35 208.54 149.758 208.54 149.028V138.772C208.54 138.042 209.132 137.45 209.862 137.45H220.118C220.848 137.45 221.44 138.042 221.44 138.772V149.028Z" stroke="black" stroke-opacity="0.87" stroke-width="0.3"/>
<path d="M217.376 145C217.51 145 217.577 144.839 217.482 144.744L215.094 142.356C215.036 142.297 214.941 142.297 214.882 142.356L212.494 144.744C212.4 144.839 212.467 145 212.6 145H217.376Z" fill="black" fill-opacity="0.87"/>
</g>
<ellipse cx="278.301" cy="148.1" rx="27" ry="27" fill="white"/>
<path d="M305.076 148.1C305.076 162.887 293.088 174.875 278.301 174.875C263.513 174.875 251.526 162.887 251.526 148.1C251.526 133.312 263.513 121.324 278.301 121.324C293.088 121.324 305.076 133.312 305.076 148.1Z" stroke="black" stroke-opacity="0.12" stroke-width="0.449771"/>
<g clip-path="url(#clip1_11143_177663)">
<path d="M277.419 131.218C275.381 125.985 272.899 123.683 271.495 121.855L263.755 122.058L258.289 128.625C258.738 128.138 261.114 128.601 267.031 134.344C272.949 140.087 275.065 145.32 275.384 147.218L279.541 144.44C279.541 140.359 279.456 136.452 277.419 131.218Z" stroke="#727171" stroke-width="0.489674"/>
<path d="M293.456 139.423C297.149 135.191 298.039 131.926 299.008 129.834L295.241 123.07L286.889 121.269C287.528 121.441 288.22 123.761 285.873 131.666C283.526 139.571 279.87 143.872 278.335 145.034L282.723 147.43C286.339 145.539 289.762 143.654 293.456 139.423Z" stroke="#727171" stroke-width="0.489674"/>
<path d="M296.023 156.795C301.61 157.366 304.789 156.206 307.057 155.789L310.403 148.807L307.049 140.949C307.278 141.571 305.784 143.475 297.975 146.125C290.166 148.775 284.543 148.274 282.708 147.692L281.754 152.301C285.386 154.161 290.435 156.224 296.023 156.795Z" stroke="#727171" stroke-width="0.489674"/>
<path d="M263.848 156.692C259.917 160.703 257.531 163.956 256.443 165.989L259.814 172.959L268.049 175.237C267.42 175.028 266.863 172.673 269.661 164.916C272.46 157.159 276.358 153.076 277.957 152.004L274.574 149.463C270.855 151.143 267.779 152.68 263.848 156.692Z" stroke="#727171" stroke-width="0.489674"/>
<path d="M279.076 164.482C280.925 169.785 283.081 172.476 284.419 174.354L292.161 174.427L297.858 168.06C297.393 168.53 294.071 168.012 288.363 162.061C282.654 156.11 281.054 152.873 280.803 150.964L277.554 151.927C277.408 156.005 277.227 159.178 279.076 164.482Z" stroke="#727171" stroke-width="0.489674"/>
<path d="M263.382 140.753C257.895 139.556 254.605 140.351 252.304 140.509L248.193 147.07L250.64 155.256C250.483 154.613 252.182 152.889 260.24 151.136C268.298 149.382 274.85 148.968 276.608 149.753L276.132 146.283C272.732 144.026 268.869 141.951 263.382 140.753Z" stroke="#727171" stroke-width="0.489674"/>
<circle cx="278.301" cy="148.1" r="5.58621" fill="white" stroke="black" stroke-opacity="0.87" stroke-width="0.3"/>
<circle cx="278.301" cy="148.1" r="2.7931" fill="#727171"/>
</g>
<mask id="path-38-inside-1_11143_177663" fill="white">
<path d="M305.301 148.1C305.301 163.011 293.212 175.1 278.301 175.1C263.389 175.1 251.301 163.011 251.301 148.1C251.301 133.188 263.389 121.1 278.301 121.1C293.212 121.1 305.301 133.188 305.301 148.1ZM255.507 148.1C255.507 160.688 265.712 170.894 278.301 170.894C290.89 170.894 301.095 160.688 301.095 148.1C301.095 135.511 290.89 125.305 278.301 125.305C265.712 125.305 255.507 135.511 255.507 148.1Z"/>
</mask>
<path d="M305.301 148.1C305.301 163.011 293.212 175.1 278.301 175.1C263.389 175.1 251.301 163.011 251.301 148.1C251.301 133.188 263.389 121.1 278.301 121.1C293.212 121.1 305.301 133.188 305.301 148.1ZM255.507 148.1C255.507 160.688 265.712 170.894 278.301 170.894C290.89 170.894 301.095 160.688 301.095 148.1C301.095 135.511 290.89 125.305 278.301 125.305C265.712 125.305 255.507 135.511 255.507 148.1Z" fill="#EEEEEE" stroke="black" stroke-opacity="0.87" stroke-width="0.6" mask="url(#path-38-inside-1_11143_177663)"/>
<rect x="0.75" y="131.25" width="158.5" height="158.5" rx="39.25" fill="#F4F8FE" stroke="#3E9AF8" stroke-width="1.5"/>
<rect width="120" height="120" transform="translate(20 150.5)" fill="#F4F8FE"/>
<path d="M54.3476 243.201H97.6466L112.999 263.001H38.8984L54.3476 243.201Z" fill="white"/>
<path d="M39.513 262.701L54.494 243.501H97.4995L112.386 262.701H39.513Z" stroke="black" stroke-opacity="0.87" stroke-width="0.600001"/>
<rect x="27.1328" y="262.506" width="97.7454" height="7.99442" rx="1.39476" fill="white"/>
<rect x="27.4328" y="262.806" width="97.1454" height="7.39442" rx="1.09476" stroke="black" stroke-opacity="0.87" stroke-width="0.600001"/>
<rect x="72.5" y="150.5" width="67.5001" height="40.0998" fill="white"/>
<rect x="72.8" y="150.8" width="66.9001" height="39.4998" stroke="black" stroke-opacity="0.87" stroke-width="0.600001"/>
<circle cx="75.9501" cy="206.45" r="55.9501" fill="white"/>
<circle cx="75.9501" cy="206.45" r="55.6501" stroke="black" stroke-opacity="0.87" stroke-width="0.600001"/>
<ellipse cx="76.0068" cy="206.545" rx="36.0536" ry="35.9749" fill="white"/>
<path d="M111.76 206.545C111.76 226.247 95.7533 242.22 76.0068 242.22C56.2602 242.22 40.2535 226.247 40.2535 206.545C40.2535 186.843 56.2602 170.871 76.0068 170.871C95.7533 170.871 111.76 186.843 111.76 206.545Z" stroke="black" stroke-opacity="0.12" stroke-width="0.600775"/>
<g clip-path="url(#clip2_11143_177663)">
<path d="M74.8345 184.087C72.1126 177.096 68.7974 174.022 66.9216 171.58L56.5833 171.851L49.2826 180.623C49.8816 179.973 53.0557 180.59 60.96 188.261C68.8642 195.933 71.691 202.923 72.1163 205.459L77.6689 201.747C77.6689 196.296 77.5565 191.078 74.8345 184.087Z" fill="white" stroke="#727171" stroke-width="0.600001"/>
<path d="M96.2583 195.045C101.192 189.394 102.379 185.032 103.675 182.237L98.6429 173.202L87.4866 170.798C88.3404 171.027 89.2644 174.126 86.1296 184.685C82.9947 195.244 78.1106 200.988 76.0604 202.541L81.9225 205.741C86.7525 203.215 91.3248 200.697 96.2583 195.045Z" fill="white" stroke="#727171" stroke-width="0.600001"/>
<path d="M99.6876 218.251C107.151 219.014 111.398 217.464 114.427 216.908L118.896 207.582L114.416 197.085C114.722 197.915 112.726 200.459 102.295 203.999C91.8646 207.538 84.3545 206.869 81.9033 206.092L80.6283 212.248C85.4799 214.732 92.2244 217.488 99.6876 218.251Z" fill="white" stroke="#727171" stroke-width="0.600001"/>
<path d="M56.7191 218.115C51.4685 223.473 48.2812 227.818 46.8272 230.533L51.3305 239.843L62.33 242.886C61.4908 242.607 60.7467 239.461 64.4841 229.099C68.2216 218.738 73.4282 213.285 75.5644 211.853L71.0461 208.459C66.0787 210.703 61.9698 212.756 56.7191 218.115Z" fill="white" stroke="#727171" stroke-width="0.600001"/>
<path d="M77.0572 228.52C79.5272 235.604 82.4066 239.198 84.1938 241.706L94.5352 241.804L102.145 233.3C101.523 233.928 97.0864 233.236 89.4617 225.287C81.837 217.338 79.6987 213.013 79.3644 210.463L75.0243 211.75C74.8293 217.198 74.5872 221.436 77.0572 228.52Z" fill="white" stroke="#727171" stroke-width="0.600001"/>
<path d="M56.0938 196.822C48.7642 195.223 44.3697 196.284 41.297 196.496L35.8051 205.259L39.0745 216.193C38.8641 215.334 41.134 213.031 51.8969 210.69C62.6598 208.348 71.4126 207.794 73.7606 208.842L73.1243 204.207C68.5834 201.192 63.4235 198.421 56.0938 196.822Z" fill="white" stroke="#727171" stroke-width="0.600001"/>
<circle cx="76.0164" cy="206.634" r="7.46168" fill="#EEEEEE" stroke="black" stroke-opacity="0.87" stroke-width="0.600001"/>
<circle cx="76.0199" cy="206.633" r="3.73084" fill="#727171"/>
</g>
<mask id="path-59-inside-2_11143_177663" fill="white">
<path d="M112.06 206.545C112.06 226.414 95.9186 242.52 76.0068 242.52C56.0949 242.52 39.9531 226.414 39.9531 206.545C39.9531 186.677 56.0949 170.57 76.0068 170.57C95.9186 170.57 112.06 186.677 112.06 206.545ZM45.5693 206.545C45.5693 223.319 59.1966 236.916 76.0068 236.916C92.8169 236.916 106.444 223.319 106.444 206.545C106.444 189.772 92.8169 176.174 76.0068 176.174C59.1966 176.174 45.5693 189.772 45.5693 206.545Z"/>
</mask>
<path d="M112.06 206.545C112.06 226.414 95.9186 242.52 76.0068 242.52C56.0949 242.52 39.9531 226.414 39.9531 206.545C39.9531 186.677 56.0949 170.57 76.0068 170.57C95.9186 170.57 112.06 186.677 112.06 206.545ZM45.5693 206.545C45.5693 223.319 59.1966 236.916 76.0068 236.916C92.8169 236.916 106.444 223.319 106.444 206.545C106.444 189.772 92.8169 176.174 76.0068 176.174C59.1966 176.174 45.5693 189.772 45.5693 206.545Z" fill="#EEEEEE" stroke="black" stroke-opacity="0.87" stroke-width="1.2" mask="url(#path-59-inside-2_11143_177663)"/>
<defs>
<filter id="filter0_d_11143_177663" x="99.8244" y="74.9786" width="70.3551" height="45.154" filterUnits="userSpaceOnUse" color-interpolation-filters="sRGB">
<feFlood flood-opacity="0" result="BackgroundImageFix"/>
<feColorMatrix in="SourceAlpha" type="matrix" values="0 0 0 0 0 0 0 0 0 0 0 0 0 0 0 0 0 0 127 0" result="hardAlpha"/>
<feOffset dy="5.88859"/>
<feGaussianBlur stdDeviation="5.88859"/>
<feComposite in2="hardAlpha" operator="out"/>
<feColorMatrix type="matrix" values="0 0 0 0 0 0 0 0 0 0 0 0 0 0 0 0 0 0 0.04 0"/>
<feBlend mode="normal" in2="BackgroundImageFix" result="effect1_dropShadow_11143_177663"/>
<feBlend mode="normal" in="SourceGraphic" in2="effect1_dropShadow_11143_177663" result="shape"/>
</filter>
<filter id="filter1_d_11143_177663" x="153.824" y="74.9786" width="70.3551" height="45.154" filterUnits="userSpaceOnUse" color-interpolation-filters="sRGB">
<feFlood flood-opacity="0" result="BackgroundImageFix"/>
<feColorMatrix in="SourceAlpha" type="matrix" values="0 0 0 0 0 0 0 0 0 0 0 0 0 0 0 0 0 0 127 0" result="hardAlpha"/>
<feOffset dy="5.88859"/>
<feGaussianBlur stdDeviation="5.88859"/>
<feComposite in2="hardAlpha" operator="out"/>
<feColorMatrix type="matrix" values="0 0 0 0 0 0 0 0 0 0 0 0 0 0 0 0 0 0 0.04 0"/>
<feBlend mode="normal" in2="BackgroundImageFix" result="effect1_dropShadow_11143_177663"/>
<feBlend mode="normal" in="SourceGraphic" in2="effect1_dropShadow_11143_177663" result="shape"/>
</filter>
<filter id="filter2_d_11143_177663" x="217.51" y="134.356" width="25.1209" height="24.9764" filterUnits="userSpaceOnUse" color-interpolation-filters="sRGB">
<feFlood flood-opacity="0" result="BackgroundImageFix"/>
<feColorMatrix in="SourceAlpha" type="matrix" values="0 0 0 0 0 0 0 0 0 0 0 0 0 0 0 0 0 0 127 0" result="hardAlpha"/>
<feOffset dy="2.94429"/>
<feGaussianBlur stdDeviation="2.94429"/>
<feComposite in2="hardAlpha" operator="out"/>
<feColorMatrix type="matrix" values="0 0 0 0 0 0 0 0 0 0 0 0 0 0 0 0 0 0 0.04 0"/>
<feBlend mode="normal" in2="BackgroundImageFix" result="effect1_dropShadow_11143_177663"/>
<feBlend mode="normal" in="SourceGraphic" in2="effect1_dropShadow_11143_177663" result="shape"/>
</filter>
<filter id="filter3_d_11143_177663" x="196.829" y="124.016" width="66.4835" height="66.339" filterUnits="userSpaceOnUse" color-interpolation-filters="sRGB">
<feFlood flood-opacity="0" result="BackgroundImageFix"/>
<feColorMatrix in="SourceAlpha" type="matrix" values="0 0 0 0 0 0 0 0 0 0 0 0 0 0 0 0 0 0 127 0" result="hardAlpha"/>
<feOffset dy="13.2849"/>
<feGaussianBlur stdDeviation="13.2849"/>
<feComposite in2="hardAlpha" operator="out"/>
<feColorMatrix type="matrix" values="0 0 0 0 0 0 0 0 0 0 0 0 0 0 0 0 0 0 0.04 0"/>
<feBlend mode="normal" in2="BackgroundImageFix" result="effect1_dropShadow_11143_177663"/>
<feBlend mode="normal" in="SourceGraphic" in2="effect1_dropShadow_11143_177663" result="shape"/>
</filter>
<filter id="filter4_d_11143_177663" x="181.821" y="124.014" width="66.339" height="66.341" filterUnits="userSpaceOnUse" color-interpolation-filters="sRGB">
<feFlood flood-opacity="0" result="BackgroundImageFix"/>
<feColorMatrix in="SourceAlpha" type="matrix" values="0 0 0 0 0 0 0 0 0 0 0 0 0 0 0 0 0 0 127 0" result="hardAlpha"/>
<feOffset dy="13.2849"/>
<feGaussianBlur stdDeviation="13.2849"/>
<feComposite in2="hardAlpha" operator="out"/>
<feColorMatrix type="matrix" values="0 0 0 0 0 0 0 0 0 0 0 0 0 0 0 0 0 0 0.04 0"/>
<feBlend mode="normal" in2="BackgroundImageFix" result="effect1_dropShadow_11143_177663"/>
<feBlend mode="normal" in="SourceGraphic" in2="effect1_dropShadow_11143_177663" result="shape"/>
</filter>
<clipPath id="clip0_11143_177663">
<path d="M223.398 138.773C223.398 137.96 224.058 137.301 224.871 137.301H235.27C236.083 137.301 236.742 137.96 236.742 138.773V149.029C236.742 149.842 236.083 150.501 235.27 150.501H224.871C224.058 150.501 223.398 149.842 223.398 149.029V138.773Z" fill="white"/>
</clipPath>
<clipPath id="clip1_11143_177663">
<rect x="251.301" y="121.1" width="54" height="54" rx="27" fill="white"/>
</clipPath>
<clipPath id="clip2_11143_177663">
<rect x="39.9531" y="170.57" width="72.1073" height="71.9498" rx="35.9749" fill="white"/>
</clipPath>
</defs>
</svg>
