<svg width="337" height="291" fill="none" xmlns="http://www.w3.org/2000/svg"><rect x="80.5" y="1" width="159" height="159" rx="39.5" stroke="#3E9AF8"/><rect x="102.3" y="51.167" width="119.4" height="59.4" rx="2.1" stroke="#000" stroke-opacity=".87" stroke-width=".6"/><path d="M145.224 68.183h-3.191v-1.288h3.191c.618 0 1.118-.098 1.501-.295.383-.197.662-.47.837-.82.18-.35.27-.75.27-1.198 0-.41-.09-.796-.27-1.157a2 2 0 0 0-.837-.87c-.383-.223-.883-.336-1.501-.336h-2.822v10.648h-1.583V60.923h4.405c.902 0 1.665.156 2.288.468.624.312 1.097.744 1.42 1.296.322.547.484 1.173.484 1.879 0 .765-.162 1.419-.484 1.96-.323.542-.796.955-1.42 1.239-.623.279-1.386.418-2.288.418Zm11.762 2.633v-6.825h1.526v8.876h-1.452l-.074-2.05Zm.287-1.87.632-.016c0 .59-.063 1.137-.189 1.64a3.51 3.51 0 0 1-.591 1.296 2.788 2.788 0 0 1-1.074.862c-.443.202-.982.303-1.616.303-.432 0-.829-.063-1.19-.188a2.377 2.377 0 0 1-.918-.583c-.258-.262-.457-.604-.599-1.025-.137-.421-.205-.927-.205-1.518v-5.726h1.517v5.743c0 .399.044.73.131.992.093.257.216.462.37.615.158.148.333.252.525.312.196.06.399.09.607.09.645 0 1.156-.123 1.534-.369.377-.251.648-.588.812-1.009.169-.426.254-.9.254-1.419Zm5.429-3.19v7.111h-1.525v-8.876h1.443l.082 1.764Zm-.311 2.337-.706-.025a6.087 6.087 0 0 1 .238-1.681c.153-.52.38-.971.681-1.354a3.024 3.024 0 0 1 1.124-.886c.448-.213.968-.32 1.558-.32.416 0 .799.06 1.149.18.35.116.653.299.91.55.257.252.457.575.599.968.142.394.213.87.213 1.428v5.914h-1.517v-5.84c0-.465-.079-.837-.238-1.116a1.36 1.36 0 0 0-.656-.607 2.371 2.371 0 0 0-1.001-.197c-.448 0-.823.08-1.124.238a1.901 1.901 0 0 0-.722.656c-.18.28-.311.599-.393.96a5.339 5.339 0 0 0-.115 1.132Zm5.75-.837-1.017.312c.005-.487.085-.954.238-1.403.158-.448.385-.847.681-1.197.3-.35.67-.627 1.107-.829.438-.208.938-.312 1.501-.312.476 0 .897.063 1.263.189.372.126.684.32.936.582.257.258.451.588.582.993.131.405.197.886.197 1.444v5.832h-1.526v-5.849c0-.497-.079-.883-.238-1.156a1.24 1.24 0 0 0-.656-.583c-.279-.114-.612-.172-1.001-.172-.333 0-.629.058-.886.172a1.83 1.83 0 0 0-.648.476 2.078 2.078 0 0 0-.402.68c-.087.258-.131.531-.131.821Zm9.67-1.558V76.28h-1.525V63.99h1.394l.131 1.707Zm5.981 2.658v.172a6.71 6.71 0 0 1-.23 1.796 4.421 4.421 0 0 1-.673 1.428c-.29.404-.648.719-1.074.943-.427.224-.916.336-1.469.336-.563 0-1.061-.093-1.493-.279a2.945 2.945 0 0 1-1.099-.812 4.154 4.154 0 0 1-.722-1.28 7.426 7.426 0 0 1-.361-1.681v-.919a7.763 7.763 0 0 1 .369-1.764c.181-.519.419-.962.714-1.328a2.928 2.928 0 0 1 1.091-.845c.427-.197.919-.296 1.477-.296.557 0 1.052.11 1.484.329.432.213.796.519 1.091.918.296.4.517.878.665 1.436.153.552.23 1.167.23 1.846Zm-1.526.172v-.172c0-.444-.047-.86-.14-1.247a3.169 3.169 0 0 0-.434-1.034 2.077 2.077 0 0 0-.739-.706c-.301-.174-.659-.262-1.074-.262-.383 0-.717.066-1.001.197a2.166 2.166 0 0 0-.714.533c-.197.219-.358.47-.484.755-.12.279-.21.569-.271.87v2.124c.11.383.263.744.46 1.083.197.333.459.604.787.812.328.202.741.303 1.239.303.41 0 .763-.084 1.058-.254.301-.175.547-.413.739-.714.196-.3.341-.645.434-1.033.093-.394.14-.812.14-1.255Z" fill="#000" fill-opacity=".87"/><g filter="url(#a)"><rect x="111.602" y="80.867" width="46.8" height="21.6" rx="2.944" fill="#999"/><path d="M135.102 90.843v.398c0 .548-.071 1.04-.214 1.475a3.18 3.18 0 0 1-.613 1.11c-.262.306-.577.54-.946.703-.368.159-.777.239-1.225.239-.445 0-.852-.08-1.22-.24a2.738 2.738 0 0 1-.952-.702 3.253 3.253 0 0 1-.627-1.11 4.62 4.62 0 0 1-.219-1.475v-.398c0-.548.073-1.038.219-1.47.146-.434.352-.804.617-1.11.269-.309.586-.543.952-.702a2.985 2.985 0 0 1 1.22-.244c.448 0 .857.081 1.225.244.369.16.686.393.951.702.266.306.47.676.613 1.11.146.432.219.922.219 1.47Zm-1.25.398v-.408c0-.405-.04-.762-.12-1.07a2.187 2.187 0 0 0-.343-.783 1.443 1.443 0 0 0-.553-.478 1.638 1.638 0 0 0-.742-.164c-.276 0-.521.055-.737.164-.216.106-.4.266-.553.478-.149.21-.264.47-.344.782a4.34 4.34 0 0 0-.119 1.071v.408c0 .406.04.764.119 1.076.08.312.196.576.349.792.156.213.342.374.558.483.216.106.461.16.737.16.279 0 .526-.054.742-.16.216-.11.398-.27.548-.483.149-.216.262-.48.338-.792.08-.312.12-.67.12-1.076Zm3.695-.811v4.238h-1.2v-5.389h1.131l.069 1.15Zm-.214 1.344-.388-.005c.003-.382.056-.732.159-1.05.106-.32.253-.593.439-.822.189-.23.415-.405.677-.528.262-.126.554-.19.876-.19.259 0 .493.037.703.11.212.07.393.184.543.344.152.16.268.367.348.622.08.253.12.563.12.932v3.481h-1.206v-3.486c0-.26-.038-.463-.114-.613a.64.64 0 0 0-.324-.324 1.214 1.214 0 0 0-.523-.1c-.206 0-.39.044-.553.13a1.25 1.25 0 0 0-.413.354c-.11.15-.194.322-.254.518s-.09.405-.09.627Z" fill="#000" fill-opacity=".87"/></g><g filter="url(#b)"><path d="M165.902 83.811a2.644 2.644 0 0 1 2.644-2.644h40.911a2.645 2.645 0 0 1 2.645 2.644v15.712a2.645 2.645 0 0 1-2.645 2.644h-40.911a2.644 2.644 0 0 1-2.644-2.644V83.81Z" stroke="#000" stroke-opacity=".38" stroke-width=".6" shape-rendering="crispEdges"/><path d="M188.273 90.843v.398c0 .548-.072 1.04-.214 1.475a3.18 3.18 0 0 1-.613 1.11c-.262.306-.578.54-.946.703-.369.159-.777.239-1.225.239-.445 0-.852-.08-1.221-.24a2.743 2.743 0 0 1-.951-.702 3.253 3.253 0 0 1-.627-1.11 4.618 4.618 0 0 1-.22-1.475v-.398c0-.548.074-1.038.22-1.47.146-.434.352-.804.617-1.11.269-.309.586-.543.951-.702a2.993 2.993 0 0 1 1.221-.244c.448 0 .856.081 1.225.244.368.16.686.393.951.702.266.306.47.676.613 1.11.146.432.219.922.219 1.47Zm-1.25.398v-.408c0-.405-.04-.762-.12-1.07a2.205 2.205 0 0 0-.343-.783 1.443 1.443 0 0 0-.553-.478 1.638 1.638 0 0 0-.742-.164c-.276 0-.522.055-.737.164a1.48 1.48 0 0 0-.553.478c-.15.21-.264.47-.344.782-.08.309-.119.666-.119 1.071v.408c0 .406.039.764.119 1.076.08.312.196.576.349.792.156.213.342.374.558.483.215.106.461.16.737.16.279 0 .526-.054.742-.16.216-.11.398-.27.548-.483.149-.216.262-.48.338-.792.08-.312.12-.67.12-1.076Zm4.129 3.427h-1.201v-5.907c0-.402.075-.739.224-1.01.153-.276.371-.484.653-.624.282-.142.616-.214 1.001-.214.119 0 .237.009.354.025.116.014.229.035.338.065l-.03.926a1.368 1.368 0 0 0-.219-.035 2.891 2.891 0 0 0-.249-.01c-.182 0-.34.035-.473.105a.694.694 0 0 0-.299.294c-.066.13-.099.289-.099.478v5.907Zm1.11-5.389v.877h-3.137v-.877h3.137Zm2.62 5.389h-1.2v-5.907c0-.402.074-.739.224-1.01.152-.276.37-.484.652-.624.282-.142.616-.214 1.001-.214.12 0 .238.009.354.025.116.014.229.035.339.065l-.03.926a1.406 1.406 0 0 0-.219-.035 2.932 2.932 0 0 0-.25-.01c-.182 0-.34.035-.473.105a.687.687 0 0 0-.298.294c-.067.13-.1.289-.1.478v5.907Zm1.111-5.389v.877h-3.138v-.877h3.138Z" fill="#000" fill-opacity=".76"/></g><rect x="177.75" y="71.25" width="158.5" height="158.5" rx="39.25" fill="#F4F8FE" stroke="#3E9AF8" stroke-width="1.5"/><path fill="#F4F8FE" d="M197 105.5h120v90H197z"/><rect x="234.5" y="191.15" width="45" height="4.35" rx="1.049" fill="#fff"/><rect x="234.65" y="191.3" width="44.7" height="4.05" rx=".899" stroke="#000" stroke-opacity=".87" stroke-width=".3"/><path d="M242.448 186.801h29.1l4.8 4.65h-38.7l4.8-4.65Z" fill="#fff"/><path d="m238.019 191.301 4.49-4.35h28.979l4.49 4.35h-37.959Z" stroke="#000" stroke-opacity=".87" stroke-width=".3"/><rect x="197" y="105.5" width="120" height="81.6" rx="4.8" fill="#fff"/><rect x="197.15" y="105.65" width="119.7" height="81.3" rx="4.65" stroke="#000" stroke-opacity=".87" stroke-width=".3"/><rect x="209" y="116.301" width="27" height="19.2" rx="1.2" fill="#fff"/><rect x="209.15" y="116.451" width="26.7" height="18.9" rx="1.05" stroke="#000" stroke-opacity=".87" stroke-width=".3"/><path d="M222.246 127.338v.562h-2.859v-.483l1.388-1.515c.153-.172.273-.32.361-.445.088-.125.149-.237.184-.337a.86.86 0 0 0 .056-.296.789.789 0 0 0-.076-.354.55.55 0 0 0-.217-.243.637.637 0 0 0-.349-.091.729.729 0 0 0-.398.102.636.636 0 0 0-.243.284.973.973 0 0 0-.082.411h-.706c0-.248.056-.475.17-.68.113-.207.277-.371.492-.492.215-.123.473-.185.776-.185.285 0 .527.048.727.144.199.095.35.231.454.407.105.176.158.384.158.624 0 .133-.022.265-.065.395a1.829 1.829 0 0 1-.184.393 3.407 3.407 0 0 1-.278.39 7.236 7.236 0 0 1-.355.392l-.923 1.017h1.969Zm3.435-3.703v.386l-1.705 3.879h-.744l1.702-3.703h-2.209v-.562h2.956Z" fill="#002878"/><g filter="url(#c)"><g clip-path="url(#d)"><path d="M223.398 138.773c0-.813.66-1.472 1.473-1.472h10.399c.813 0 1.472.659 1.472 1.472v10.256c0 .813-.659 1.472-1.472 1.472h-10.399a1.473 1.473 0 0 1-1.473-1.472v-10.256Z" fill="#fff"/><g filter="url(#e)"><path d="M236.742 138.773c0-.813-.659-1.472-1.472-1.472h-10.399c-.813 0-1.472.659-1.472 1.472v10.256c0 .813.659 1.472 1.472 1.472h10.399c.813 0 1.472-.659 1.472-1.472v-10.256Z" fill="#fff"/><path d="M236.592 138.773c0-.73-.592-1.322-1.322-1.322h-10.399c-.73 0-1.322.592-1.322 1.322v10.256c0 .73.592 1.322 1.322 1.322h10.399c.73 0 1.322-.592 1.322-1.322v-10.256Z" stroke="#000" stroke-opacity=".87" stroke-width=".3"/><path d="M232.487 142.801a.15.15 0 0 1 .105.256l-2.415 2.389a.15.15 0 0 1-.211 0l-2.415-2.389a.15.15 0 0 1 .106-.256h4.83Z" fill="#000" fill-opacity=".87"/></g></g><path d="M223.548 138.773c0-.73.592-1.322 1.323-1.322h10.399c.73 0 1.322.592 1.322 1.322v10.256c0 .73-.592 1.322-1.322 1.322h-10.399a1.322 1.322 0 0 1-1.323-1.322v-10.256Z" stroke="#000" stroke-opacity=".38" stroke-width=".3"/></g><g filter="url(#f)"><path d="M221.59 149.028c0 .813-.659 1.472-1.472 1.472h-10.256a1.472 1.472 0 0 1-1.472-1.472v-10.256c0-.813.659-1.472 1.472-1.472h10.256c.813 0 1.472.659 1.472 1.472v10.256Z" fill="#fff"/><path d="M221.44 149.028c0 .73-.592 1.322-1.322 1.322h-10.256c-.73 0-1.322-.592-1.322-1.322v-10.256c0-.73.592-1.322 1.322-1.322h10.256c.73 0 1.322.592 1.322 1.322v10.256Z" stroke="#000" stroke-opacity=".87" stroke-width=".3"/><path d="M217.376 145a.15.15 0 0 0 .106-.256l-2.388-2.388a.15.15 0 0 0-.212 0l-2.388 2.388a.15.15 0 0 0 .106.256h4.776Z" fill="#000" fill-opacity=".87"/></g><circle cx="278.301" cy="148.1" fill="#fff" r="27"/><path d="M305.076 148.1c0 14.787-11.988 26.775-26.775 26.775-14.788 0-26.775-11.988-26.775-26.775 0-14.788 11.987-26.776 26.775-26.776 14.787 0 26.775 11.988 26.775 26.776Z" stroke="#000" stroke-opacity=".12" stroke-width=".45"/><g clip-path="url(#g)"><path d="M277.419 131.218c-2.038-5.233-4.52-7.535-5.924-9.363l-7.74.203-5.466 6.567c.449-.487 2.825-.024 8.742 5.719 5.918 5.743 8.034 10.976 8.353 12.874l4.157-2.778c0-4.081-.085-7.988-2.122-13.222Z" stroke="#727171" stroke-width=".49"/><path d="M293.456 139.423c3.693-4.232 4.583-7.497 5.552-9.589l-3.767-6.764-8.352-1.801c.639.172 1.331 2.492-1.016 10.397s-6.003 12.206-7.538 13.368l4.388 2.396c3.616-1.891 7.039-3.776 10.733-8.007ZM296.023 156.795c5.587.571 8.766-.589 11.034-1.006l3.346-6.982-3.354-7.858c.229.622-1.265 2.526-9.074 5.176-7.809 2.65-13.432 2.149-15.267 1.567l-.954 4.609c3.632 1.86 8.681 3.923 14.269 4.494ZM263.848 156.692c-3.931 4.011-6.317 7.264-7.405 9.297l3.371 6.97 8.235 2.278c-.629-.209-1.186-2.564 1.612-10.321 2.799-7.757 6.697-11.84 8.296-12.912l-3.383-2.541c-3.719 1.68-6.795 3.217-10.726 7.229Z" stroke="#727171" stroke-width=".49"/><path d="M279.076 164.482c1.849 5.303 4.005 7.994 5.343 9.872l7.742.073 5.697-6.367c-.465.47-3.787-.048-9.495-5.999-5.709-5.951-7.309-9.188-7.56-11.097l-3.249.963c-.146 4.078-.327 7.251 1.522 12.555ZM263.382 140.753c-5.487-1.197-8.777-.402-11.078-.244l-4.111 6.561 2.447 8.186c-.157-.643 1.542-2.367 9.6-4.12 8.058-1.754 14.61-2.168 16.368-1.383l-.476-3.47c-3.4-2.257-7.263-4.332-12.75-5.53Z" stroke="#727171" stroke-width=".49"/><circle cx="278.301" cy="148.1" r="5.586" fill="#fff" stroke="#000" stroke-opacity=".87" stroke-width=".3"/><circle cx="278.301" cy="148.1" r="2.793" fill="#727171"/></g><mask id="h" fill="#fff"><path d="M305.301 148.1c0 14.911-12.089 27-27 27-14.912 0-27-12.089-27-27 0-14.912 12.088-27 27-27 14.911 0 27 12.088 27 27Zm-49.794 0c0 12.588 10.205 22.794 22.794 22.794s22.794-10.206 22.794-22.794c0-12.589-10.205-22.795-22.794-22.795s-22.794 10.206-22.794 22.795Z"/></mask><path d="M305.301 148.1c0 14.911-12.089 27-27 27-14.912 0-27-12.089-27-27 0-14.912 12.088-27 27-27 14.911 0 27 12.088 27 27Zm-49.794 0c0 12.588 10.205 22.794 22.794 22.794s22.794-10.206 22.794-22.794c0-12.589-10.205-22.795-22.794-22.795s-22.794 10.206-22.794 22.795Z" fill="#EEE" stroke="#000" stroke-opacity=".87" stroke-width=".6" mask="url(#h)"/><rect x=".75" y="131.25" width="158.5" height="158.5" rx="39.25" fill="#F4F8FE" stroke="#3E9AF8" stroke-width="1.5"/><path fill="#F4F8FE" d="M20 150.5h120v120H20z"/><path d="M54.348 243.201h43.299l15.352 19.8h-74.1l15.449-19.8Z" fill="#fff"/><path d="m39.513 262.701 14.981-19.2h43.005l14.887 19.2H39.513Z" stroke="#000" stroke-opacity=".87" stroke-width=".6"/><rect x="27.133" y="262.506" width="97.745" height="7.994" rx="1.395" fill="#fff"/><rect x="27.433" y="262.806" width="97.145" height="7.394" rx="1.095" stroke="#000" stroke-opacity=".87" stroke-width=".6"/><path fill="#fff" d="M72.5 150.5H140v40.1H72.5z"/><path stroke="#000" stroke-opacity=".87" stroke-width=".6" d="M72.8 150.8h66.9v39.5H72.8z"/><circle cx="75.95" cy="206.45" r="55.95" fill="#fff"/><circle cx="75.95" cy="206.45" r="55.65" stroke="#000" stroke-opacity=".87" stroke-width=".6"/><ellipse cx="76.007" cy="206.545" rx="36.054" ry="35.975" fill="#fff"/><path d="M111.76 206.545c0 19.702-16.007 35.675-35.753 35.675-19.747 0-35.754-15.973-35.754-35.675 0-19.702 16.007-35.674 35.754-35.674 19.746 0 35.753 15.972 35.753 35.674Z" stroke="#000" stroke-opacity=".12" stroke-width=".601"/><g clip-path="url(#i)"><path d="M74.835 184.087c-2.722-6.991-6.038-10.065-7.913-12.507l-10.339.271-7.3 8.772c.599-.65 3.773-.033 11.677 7.638 7.904 7.672 10.731 14.662 11.156 17.198l5.553-3.712c0-5.451-.112-10.669-2.834-17.66Z" fill="#fff" stroke="#727171" stroke-width=".6"/><path d="M96.258 195.045c4.934-5.651 6.121-10.013 7.417-12.808l-5.032-9.035-11.156-2.404c.853.229 1.777 3.328-1.357 13.887-3.135 10.559-8.02 16.303-10.07 17.856l5.862 3.2c4.83-2.526 9.403-5.044 14.336-10.696ZM99.688 218.251c7.463.763 11.71-.787 14.739-1.343l4.469-9.326-4.48-10.497c.306.83-1.69 3.374-12.121 6.914-10.43 3.539-17.94 2.87-20.392 2.093l-1.275 6.156c4.852 2.484 11.596 5.24 19.06 6.003ZM56.72 218.115c-5.252 5.358-8.439 9.703-9.893 12.418l4.504 9.31 10.999 3.043c-.84-.279-1.583-3.425 2.154-13.787 3.738-10.361 8.944-15.814 11.08-17.246l-4.518-3.394c-4.967 2.244-9.076 4.297-14.327 9.656Z" fill="#fff" stroke="#727171" stroke-width=".6"/><path d="M77.057 228.52c2.47 7.084 5.35 10.678 7.137 13.186l10.341.098 7.61-8.504c-.622.628-5.059-.064-12.683-8.013-7.625-7.949-9.763-12.274-10.098-14.824l-4.34 1.287c-.195 5.448-.437 9.686 2.033 16.77ZM56.094 196.822c-7.33-1.599-11.724-.538-14.797-.326l-5.492 8.763 3.27 10.934c-.21-.859 2.059-3.162 12.822-5.503 10.763-2.342 19.516-2.896 21.864-1.848l-.637-4.635c-4.54-3.015-9.7-5.786-17.03-7.385Z" fill="#fff" stroke="#727171" stroke-width=".6"/><circle cx="76.016" cy="206.634" r="7.462" fill="#EEE" stroke="#000" stroke-opacity=".87" stroke-width=".6"/><circle cx="76.02" cy="206.633" r="3.731" fill="#727171"/></g><mask id="j" fill="#fff"><path d="M112.06 206.545c0 19.869-16.141 35.975-36.053 35.975s-36.054-16.106-36.054-35.975c0-19.868 16.142-35.975 36.054-35.975 19.912 0 36.053 16.107 36.053 35.975Zm-66.49 0c0 16.774 13.627 30.371 30.437 30.371 16.81 0 30.437-13.597 30.437-30.371 0-16.773-13.627-30.371-30.437-30.371-16.81 0-30.438 13.598-30.438 30.371Z"/></mask><path d="M112.06 206.545c0 19.869-16.141 35.975-36.053 35.975s-36.054-16.106-36.054-35.975c0-19.868 16.142-35.975 36.054-35.975 19.912 0 36.053 16.107 36.053 35.975Zm-66.49 0c0 16.774 13.627 30.371 30.437 30.371 16.81 0 30.437-13.597 30.437-30.371 0-16.773-13.627-30.371-30.437-30.371-16.81 0-30.438 13.598-30.438 30.371Z" fill="#EEE" stroke="#000" stroke-opacity=".87" stroke-width="1.2" mask="url(#j)"/><defs><filter id="a" x="99.824" y="74.979" width="70.355" height="45.154" filterUnits="userSpaceOnUse" color-interpolation-filters="sRGB"><feFlood flood-opacity="0" result="BackgroundImageFix"/><feColorMatrix in="SourceAlpha" values="0 0 0 0 0 0 0 0 0 0 0 0 0 0 0 0 0 0 127 0" result="hardAlpha"/><feOffset dy="5.889"/><feGaussianBlur stdDeviation="5.889"/><feComposite in2="hardAlpha" operator="out"/><feColorMatrix values="0 0 0 0 0 0 0 0 0 0 0 0 0 0 0 0 0 0 0.04 0"/><feBlend in2="BackgroundImageFix" result="effect1_dropShadow_11143_177663"/><feBlend in="SourceGraphic" in2="effect1_dropShadow_11143_177663" result="shape"/></filter><filter id="b" x="153.824" y="74.979" width="70.355" height="45.154" filterUnits="userSpaceOnUse" color-interpolation-filters="sRGB"><feFlood flood-opacity="0" result="BackgroundImageFix"/><feColorMatrix in="SourceAlpha" values="0 0 0 0 0 0 0 0 0 0 0 0 0 0 0 0 0 0 127 0" result="hardAlpha"/><feOffset dy="5.889"/><feGaussianBlur stdDeviation="5.889"/><feComposite in2="hardAlpha" operator="out"/><feColorMatrix values="0 0 0 0 0 0 0 0 0 0 0 0 0 0 0 0 0 0 0.04 0"/><feBlend in2="BackgroundImageFix" result="effect1_dropShadow_11143_177663"/><feBlend in="SourceGraphic" in2="effect1_dropShadow_11143_177663" result="shape"/></filter><filter id="c" x="217.51" y="134.356" width="25.121" height="24.976" filterUnits="userSpaceOnUse" color-interpolation-filters="sRGB"><feFlood flood-opacity="0" result="BackgroundImageFix"/><feColorMatrix in="SourceAlpha" values="0 0 0 0 0 0 0 0 0 0 0 0 0 0 0 0 0 0 127 0" result="hardAlpha"/><feOffset dy="2.944"/><feGaussianBlur stdDeviation="2.944"/><feComposite in2="hardAlpha" operator="out"/><feColorMatrix values="0 0 0 0 0 0 0 0 0 0 0 0 0 0 0 0 0 0 0.04 0"/><feBlend in2="BackgroundImageFix" result="effect1_dropShadow_11143_177663"/><feBlend in="SourceGraphic" in2="effect1_dropShadow_11143_177663" result="shape"/></filter><filter id="e" x="196.829" y="124.016" width="66.484" height="66.339" filterUnits="userSpaceOnUse" color-interpolation-filters="sRGB"><feFlood flood-opacity="0" result="BackgroundImageFix"/><feColorMatrix in="SourceAlpha" values="0 0 0 0 0 0 0 0 0 0 0 0 0 0 0 0 0 0 127 0" result="hardAlpha"/><feOffset dy="13.285"/><feGaussianBlur stdDeviation="13.285"/><feComposite in2="hardAlpha" operator="out"/><feColorMatrix values="0 0 0 0 0 0 0 0 0 0 0 0 0 0 0 0 0 0 0.04 0"/><feBlend in2="BackgroundImageFix" result="effect1_dropShadow_11143_177663"/><feBlend in="SourceGraphic" in2="effect1_dropShadow_11143_177663" result="shape"/></filter><filter id="f" x="181.821" y="124.014" width="66.339" height="66.341" filterUnits="userSpaceOnUse" color-interpolation-filters="sRGB"><feFlood flood-opacity="0" result="BackgroundImageFix"/><feColorMatrix in="SourceAlpha" values="0 0 0 0 0 0 0 0 0 0 0 0 0 0 0 0 0 0 127 0" result="hardAlpha"/><feOffset dy="13.285"/><feGaussianBlur stdDeviation="13.285"/><feComposite in2="hardAlpha" operator="out"/><feColorMatrix values="0 0 0 0 0 0 0 0 0 0 0 0 0 0 0 0 0 0 0.04 0"/><feBlend in2="BackgroundImageFix" result="effect1_dropShadow_11143_177663"/><feBlend in="SourceGraphic" in2="effect1_dropShadow_11143_177663" result="shape"/></filter><clipPath id="d"><path d="M223.398 138.773c0-.813.66-1.472 1.473-1.472h10.399c.813 0 1.472.659 1.472 1.472v10.256c0 .813-.659 1.472-1.472 1.472h-10.399a1.473 1.473 0 0 1-1.473-1.472v-10.256Z" fill="#fff"/></clipPath><clipPath id="g"><rect x="251.301" y="121.1" width="54" height="54" rx="27" fill="#fff"/></clipPath><clipPath id="i"><rect x="39.953" y="170.57" width="72.107" height="71.95" rx="35.975" fill="#fff"/></clipPath></defs></svg>