<svg width="337" height="290" viewBox="0 0 337 290" fill="none" xmlns="http://www.w3.org/2000/svg"><rect x="60.75" y="0.75" width="158.5" height="158.5" rx="39.25" fill="white" stroke="#3E9AF8" stroke-width="1.5"/><rect x="117.5" y="120.982" width="45" height="4.35" rx="1.05" fill="white"/><rect x="117.5" y="120.982" width="45" height="4.35" rx="1.05" fill="url(#paint0_linear_10287_77152)"/><rect x="117.725" y="121.207" width="44.55" height="3.9" rx="0.825" stroke="black" stroke-opacity="0.12" stroke-width="0.45"/><path d="M125.452 117.084H154.552L159.352 120.984H120.652L125.452 117.084Z" fill="white"/><path d="M125.452 117.084H154.552L159.352 120.984H120.652L125.452 117.084Z" fill="url(#paint1_linear_10287_77152)"/><path d="M121.286 120.759L125.532 117.309H154.472L158.719 120.759H121.286Z" stroke="black" stroke-opacity="0.12" stroke-width="0.45"/><rect x="85.5508" y="35.334" width="114.45" height="81.75" rx="1.8" fill="#E5E5E5"/><rect x="85.5508" y="35.334" width="114.45" height="81.75" rx="1.8" fill="url(#paint2_linear_10287_77152)"/><rect x="85.7758" y="35.559" width="114" height="81.3" rx="1.575" stroke="black" stroke-opacity="0.12" stroke-width="0.45"/><path d="M85.5508 37.134C85.5508 36.1399 86.3567 35.334 87.3508 35.334H198.201C199.195 35.334 200.001 36.1399 200.001 37.134V115.284C200.001 116.278 199.195 117.084 198.201 117.084H87.3508C86.3567 117.084 85.5508 116.278 85.5508 115.284V37.134Z" fill="#4A4848" fill-opacity="0.5"/><rect x="80.225" y="43.059" width="1.65" height="14.55" rx="0.825" fill="#D9D9D9" stroke="#727171" stroke-width="0.45"/><path d="M82.1016 44.9336H85.5516V55.7336H82.1016V44.9336Z" fill="white"/><path d="M82.1016 44.9336H85.5516V55.7336H82.1016V44.9336Z" fill="url(#paint3_linear_10287_77152)"/><path d="M82.3266 45.1586H85.3266V55.5086H82.3266V45.1586Z" stroke="black" stroke-opacity="0.12" stroke-width="0.45"/><rect x="80.225" y="73.059" width="1.65" height="14.55" rx="0.825" fill="#D9D9D9" stroke="#727171" stroke-width="0.45"/><path d="M82.1016 74.9336H85.5516V85.7336H82.1016V74.9336Z" fill="white"/><path d="M82.1016 74.9336H85.5516V85.7336H82.1016V74.9336Z" fill="url(#paint4_linear_10287_77152)"/><path d="M82.3266 75.1586H85.3266V85.5086H82.3266V75.1586Z" stroke="black" stroke-opacity="0.12" stroke-width="0.45"/><rect x="85.5508" y="35.334" width="114.45" height="81.75" rx="1.8" fill="#E5E5E5"/><rect x="85.5508" y="35.334" width="114.45" height="81.75" rx="1.8" fill="url(#paint5_linear_10287_77152)"/><rect x="85.7758" y="35.559" width="114" height="81.3" rx="1.575" stroke="black" stroke-opacity="0.12" stroke-width="0.45"/><g filter="url(#filter0_d_10287_77152)"><path d="M85.5508 37.134C85.5508 36.1399 86.3567 35.334 87.3508 35.334H198.201C199.195 35.334 200.001 36.1399 200.001 37.134V115.284C200.001 116.278 199.195 117.084 198.201 117.084H173.946C173.866 117.084 173.795 117.08 173.716 117.069C171.737 116.794 143.365 112.698 125.751 101.784C103.033 87.7075 87.8265 63.0123 85.7855 59.5833C85.6247 59.3132 85.5508 59.0186 85.5508 58.7043V37.134Z" fill="#E5E5E5"/><path d="M85.5508 37.134C85.5508 36.1399 86.3567 35.334 87.3508 35.334H198.201C199.195 35.334 200.001 36.1399 200.001 37.134V115.284C200.001 116.278 199.195 117.084 198.201 117.084H173.946C173.866 117.084 173.795 117.08 173.716 117.069C171.737 116.794 143.365 112.698 125.751 101.784C103.033 87.7075 87.8265 63.0123 85.7855 59.5833C85.6247 59.3132 85.5508 59.0186 85.5508 58.7043V37.134Z" fill="url(#paint6_linear_10287_77152)"/><path d="M85.7758 37.134C85.7758 36.2641 86.4809 35.559 87.3508 35.559H198.201C199.071 35.559 199.776 36.2641 199.776 37.134V115.284C199.776 116.154 199.071 116.859 198.201 116.859H173.946C173.874 116.859 173.814 116.855 173.747 116.846C172.762 116.709 165.183 115.618 155.652 113.198C146.117 110.777 134.647 107.032 125.869 101.593C103.201 87.5468 88.0175 62.8933 85.9788 59.4682C85.8406 59.2359 85.7758 58.9817 85.7758 58.7043V37.134Z" stroke="black" stroke-opacity="0.12" stroke-width="0.45"/></g><g filter="url(#filter1_i_10287_77152)"><path d="M110.901 101.332C110.901 104.728 108.148 107.482 104.751 107.482C101.355 107.482 98.6016 104.728 98.6016 101.332C98.6016 97.9351 101.355 95.1816 104.751 95.1816C108.148 95.1816 110.901 97.9351 110.901 101.332Z" fill="#1C943E"/></g><path d="M110.767 101.332C110.767 104.654 108.074 107.348 104.751 107.348C101.429 107.348 98.7355 104.654 98.7355 101.332C98.7355 98.0091 101.429 95.3156 104.751 95.3156C108.074 95.3156 110.767 98.0091 110.767 101.332Z" stroke="white" stroke-width="0.267857"/><path fill-rule="evenodd" clip-rule="evenodd" d="M104.156 99.3256C104.156 99.1891 104.026 99.0899 103.9 99.141C103.043 99.4871 102.438 100.339 102.438 101.336C102.438 102.639 103.474 103.695 104.752 103.695C106.03 103.695 107.066 102.639 107.066 101.336C107.066 100.339 106.46 99.4864 105.603 99.1406C105.477 99.0895 105.347 99.1887 105.347 99.3252C105.347 99.4143 105.404 99.4924 105.486 99.5273C106.175 99.8211 106.665 100.516 106.665 101.336C106.665 102.424 105.801 103.294 104.752 103.294C103.703 103.294 102.839 102.424 102.839 101.336C102.839 100.517 103.328 99.8217 104.017 99.5277C104.099 99.4928 104.156 99.4147 104.156 99.3256Z" fill="white"/><path d="M104.621 98.8276C104.621 98.7545 104.68 98.6953 104.753 98.6953C104.826 98.6953 104.886 98.7545 104.886 98.8276V100.996C104.886 101.069 104.826 101.128 104.753 101.128C104.68 101.128 104.621 101.069 104.621 100.996V98.8276Z" fill="white"/><g filter="url(#filter2_ii_10287_77152)"><path d="M98.6016 47.634C98.6016 46.6399 99.4074 45.834 100.402 45.834H123.952C124.946 45.834 125.752 46.6399 125.752 47.634V56.034C125.752 57.0281 124.946 57.834 123.952 57.834H100.402C99.4074 57.834 98.6016 57.0281 98.6016 56.034V47.634Z" fill="white"/><path d="M98.7516 47.634C98.7516 46.7227 99.4903 45.984 100.402 45.984H123.952C124.863 45.984 125.602 46.7227 125.602 47.634V56.034C125.602 56.9453 124.863 57.684 123.952 57.684H100.402C99.4903 57.684 98.7516 56.9453 98.7516 56.034V47.634Z" stroke="white" stroke-width="0.3"/><path d="M111.898 53.6211V54.1836H109.039V53.7002L110.428 52.1855C110.58 52.0137 110.7 51.8652 110.788 51.7402C110.876 51.6152 110.937 51.5029 110.973 51.4033C111.01 51.3018 111.028 51.2031 111.028 51.1074C111.028 50.9727 111.003 50.8545 110.952 50.7529C110.903 50.6494 110.831 50.5684 110.735 50.5098C110.64 50.4492 110.523 50.4189 110.387 50.4189C110.228 50.4189 110.096 50.4531 109.988 50.5215C109.881 50.5898 109.8 50.6846 109.745 50.8057C109.69 50.9248 109.663 51.0615 109.663 51.2158H108.957C108.957 50.9678 109.014 50.7412 109.127 50.5361C109.24 50.3291 109.404 50.165 109.619 50.0439C109.834 49.9209 110.093 49.8594 110.395 49.8594C110.681 49.8594 110.923 49.9072 111.122 50.0029C111.321 50.0986 111.473 50.2344 111.576 50.4102C111.682 50.5859 111.734 50.7939 111.734 51.0342C111.734 51.167 111.713 51.2988 111.67 51.4297C111.627 51.5605 111.565 51.6914 111.485 51.8223C111.407 51.9512 111.314 52.0811 111.207 52.2119C111.099 52.3408 110.981 52.4717 110.852 52.6045L109.93 53.6211H111.898ZM115.333 49.918V50.3047L113.628 54.1836H112.884L114.586 50.4805H112.377V49.918H115.333Z" fill="black" fill-opacity="0.76"/></g><g filter="url(#filter3_i_10287_77152)"><path d="M111.392 65.633C111.392 69.0288 108.628 71.7817 105.219 71.7817C101.81 71.7817 99.0469 69.0288 99.0469 65.633C99.0469 62.2372 101.81 59.4844 105.219 59.4844C108.628 59.4844 111.392 62.2372 111.392 65.633Z" fill="black" fill-opacity="0.06"/></g><path d="M111.242 65.633C111.242 68.9454 108.546 71.6317 105.219 71.6317C101.893 71.6317 99.1969 68.9454 99.1969 65.633C99.1969 62.3206 101.893 59.6344 105.219 59.6344C108.546 59.6344 111.242 62.3206 111.242 65.633Z" stroke="white" stroke-width="0.3"/><path d="M107.7 66.6641C107.834 66.6641 107.901 66.5025 107.806 66.408L105.387 63.9889C105.329 63.9303 105.234 63.9303 105.175 63.9889L102.756 66.408C102.662 66.5025 102.728 66.6641 102.862 66.6641H107.7Z" fill="#647484"/><g filter="url(#filter4_i_10287_77152)"><path d="M125.197 65.633C125.197 69.0288 122.433 71.7817 119.024 71.7817C115.615 71.7817 112.852 69.0288 112.852 65.633C112.852 62.2372 115.615 59.4844 119.024 59.4844C122.433 59.4844 125.197 62.2372 125.197 65.633Z" fill="black" fill-opacity="0.06"/></g><path d="M125.047 65.633C125.047 68.9454 122.351 71.6317 119.024 71.6317C115.697 71.6317 113.002 68.9454 113.002 65.633C113.002 62.3206 115.697 59.6344 119.024 59.6344C122.351 59.6344 125.047 62.3206 125.047 65.633Z" stroke="white" stroke-width="0.3"/><path d="M121.505 64.4473C121.639 64.4473 121.706 64.6088 121.611 64.7033L119.192 67.1224C119.133 67.181 119.038 67.181 118.98 67.1224L116.561 64.7033C116.466 64.6088 116.533 64.4473 116.667 64.4473H121.505Z" fill="#647484"/><circle cx="159.5" cy="77.0625" r="27" fill="#B6B4B4"/><circle cx="159.5" cy="77.0625" r="27" fill="url(#paint7_radial_10287_77152)"/><circle cx="159.5" cy="77.0625" r="26.775" stroke="black" stroke-opacity="0.12" stroke-width="0.45"/><g filter="url(#filter5_i_10287_77152)"><path d="M156.865 90.9417C154.985 87.5837 157.564 82.677 158.751 80.04C159.522 79.9419 159.478 79.8962 161.201 79.6149C161.447 79.5747 164.086 81.239 166.179 81.181C168.272 81.1231 172.69 80.2346 174.396 83.0114C176.102 85.7882 175.65 90.3116 168.918 93.882C162.186 97.4524 158.54 93.9323 156.865 90.9417Z" fill="#1C943E"/><path d="M149.626 65.2207C153.419 65.8699 155.613 70.9603 156.918 73.541C156.509 74.2022 156.572 74.197 155.708 75.7134C155.585 75.93 152.631 76.9362 151.36 78.6001C150.089 80.264 148.003 84.2582 144.771 83.8391C141.539 83.42 138.305 80.2244 139.761 72.7447C141.217 65.265 146.247 64.6425 149.626 65.2207Z" fill="#1C943E"/><path d="M174.326 72.3458C172.053 75.4515 166.518 75.1453 163.626 75.162C163.217 74.5016 163.193 74.5603 162.222 73.1105C162.083 72.9033 162.499 69.8109 161.577 67.9314C160.654 66.0519 158.01 62.4029 159.826 59.697C161.643 56.9911 165.945 55.5223 171.99 60.1612C178.036 64.8001 176.35 69.5799 174.326 72.3458Z" fill="#1C943E"/></g><mask id="path-38-inside-1_10287_77152" fill="white"><path d="M186.5 77.3652C186.5 92.2769 174.412 104.365 159.5 104.365C144.588 104.365 132.5 92.2769 132.5 77.3652C132.5 62.4535 144.588 50.3652 159.5 50.3652C174.412 50.3652 186.5 62.4535 186.5 77.3652ZM136.706 77.3652C136.706 89.9541 146.911 100.159 159.5 100.159C172.089 100.159 182.294 89.9541 182.294 77.3652C182.294 64.7764 172.089 54.5711 159.5 54.5711C146.911 54.5711 136.706 64.7764 136.706 77.3652Z"/></mask><path d="M186.5 77.3652C186.5 92.2769 174.412 104.365 159.5 104.365C144.588 104.365 132.5 92.2769 132.5 77.3652C132.5 62.4535 144.588 50.3652 159.5 50.3652C174.412 50.3652 186.5 62.4535 186.5 77.3652ZM136.706 77.3652C136.706 89.9541 146.911 100.159 159.5 100.159C172.089 100.159 182.294 89.9541 182.294 77.3652C182.294 64.7764 172.089 54.5711 159.5 54.5711C146.911 54.5711 136.706 64.7764 136.706 77.3652Z" fill="white"/><path d="M186.5 77.3652C186.5 92.2769 174.412 104.365 159.5 104.365C144.588 104.365 132.5 92.2769 132.5 77.3652C132.5 62.4535 144.588 50.3652 159.5 50.3652C174.412 50.3652 186.5 62.4535 186.5 77.3652ZM136.706 77.3652C136.706 89.9541 146.911 100.159 159.5 100.159C172.089 100.159 182.294 89.9541 182.294 77.3652C182.294 64.7764 172.089 54.5711 159.5 54.5711C146.911 54.5711 136.706 64.7764 136.706 77.3652Z" fill="url(#paint8_linear_10287_77152)"/><path d="M186.5 77.3652C186.5 92.2769 174.412 104.365 159.5 104.365C144.588 104.365 132.5 92.2769 132.5 77.3652C132.5 62.4535 144.588 50.3652 159.5 50.3652C174.412 50.3652 186.5 62.4535 186.5 77.3652ZM136.706 77.3652C136.706 89.9541 146.911 100.159 159.5 100.159C172.089 100.159 182.294 89.9541 182.294 77.3652C182.294 64.7764 172.089 54.5711 159.5 54.5711C146.911 54.5711 136.706 64.7764 136.706 77.3652Z" stroke="black" stroke-opacity="0.12" stroke-width="1.2" mask="url(#path-38-inside-1_10287_77152)"/><line x1="159.741" y1="52.7773" x2="159.741" y2="73.5095" stroke="url(#paint9_linear_10287_77152)" stroke-width="0.482143"/><line x1="159.741" y1="81.2246" x2="159.741" y2="101.957" stroke="url(#paint10_linear_10287_77152)" stroke-width="0.482143"/><line x1="163.355" y1="77.1242" x2="184.088" y2="77.1242" stroke="url(#paint11_linear_10287_77152)" stroke-width="0.482143"/><line x1="134.91" y1="77.1242" x2="155.642" y2="77.1242" stroke="url(#paint12_linear_10287_77152)" stroke-width="0.482143"/><path d="M142.141 59.7676L156.654 74.4221" stroke="url(#paint13_linear_10287_77152)" stroke-width="0.482143"/><line x1="162.565" y1="80.0893" x2="177.511" y2="95.0357" stroke="url(#paint14_linear_10287_77152)" stroke-width="0.482143"/><line x1="141.97" y1="94.5522" x2="156.434" y2="80.0879" stroke="url(#paint15_linear_10287_77152)" stroke-width="0.482143"/><path d="M162.703 74.3027L177.338 60.0089" stroke="url(#paint16_linear_10287_77152)" stroke-width="0.482143"/><path d="M184.86 77.172C184.86 77.4643 184.622 77.7013 184.33 77.7013C184.038 77.7013 183.801 77.4643 183.801 77.172C183.801 76.8796 184.038 76.6426 184.33 76.6426C184.622 76.6426 184.86 76.8796 184.86 77.172Z" fill="url(#paint17_linear_10287_77152)"/><circle cx="183.545" cy="83.8048" r="0.529378" fill="url(#paint18_linear_10287_77152)"/><circle cx="181.068" cy="89.7891" r="0.529378" fill="url(#paint19_linear_10287_77152)"/><path d="M177.871 94.918C177.871 95.2104 177.634 95.4474 177.342 95.4474C177.049 95.4474 176.812 95.2104 176.812 94.918C176.812 94.6256 177.049 94.3886 177.342 94.3886C177.634 94.3886 177.871 94.6256 177.871 94.918Z" fill="url(#paint20_linear_10287_77152)"/><circle cx="171.951" cy="98.9181" r="0.529378" fill="url(#paint21_linear_10287_77152)"/><circle cx="165.947" cy="101.406" r="0.529378" fill="url(#paint22_linear_10287_77152)"/><path d="M160.223 102.197C160.223 102.49 159.986 102.727 159.693 102.727C159.401 102.727 159.164 102.49 159.164 102.197C159.164 101.905 159.401 101.668 159.693 101.668C159.986 101.668 160.223 101.905 160.223 102.197Z" fill="url(#paint23_linear_10287_77152)"/><circle cx="152.967" cy="101.383" r="0.529378" fill="url(#paint24_linear_10287_77152)"/><circle cx="146.979" cy="98.8751" r="0.529378" fill="url(#paint25_linear_10287_77152)"/><path d="M142.34 94.7227C142.34 95.0151 142.103 95.2521 141.811 95.2521C141.518 95.2521 141.281 95.0151 141.281 94.7227C141.281 94.4304 141.518 94.1934 141.811 94.1934C142.103 94.1934 142.34 94.4304 142.34 94.7227Z" fill="url(#paint26_linear_10287_77152)"/><circle cx="137.912" cy="89.7481" r="0.529378" fill="url(#paint27_linear_10287_77152)"/><circle cx="135.451" cy="83.7813" r="0.529378" fill="url(#paint28_linear_10287_77152)"/><circle cx="134.619" cy="77.172" r="0.529378" fill="url(#paint29_linear_10287_77152)"/><circle cx="135.506" cy="70.7559" r="0.529378" fill="url(#paint30_linear_10287_77152)"/><circle cx="138.002" cy="64.836" r="0.529378" fill="url(#paint31_linear_10287_77152)"/><circle cx="142.029" cy="59.6524" r="0.529378" fill="url(#paint32_linear_10287_77152)"/><circle cx="147.139" cy="55.7677" r="0.529378" fill="url(#paint33_linear_10287_77152)"/><circle cx="153.248" cy="53.2755" r="0.529378" fill="url(#paint34_linear_10287_77152)"/><circle cx="159.795" cy="52.4864" r="0.529378" fill="url(#paint35_linear_10287_77152)"/><circle cx="166.186" cy="53.3927" r="0.529378" fill="url(#paint36_linear_10287_77152)"/><circle cx="172.088" cy="55.8985" r="0.529378" fill="url(#paint37_linear_10287_77152)"/><circle cx="177.279" cy="59.9552" r="0.529378" fill="url(#paint38_linear_10287_77152)"/><circle cx="181.154" cy="65.0997" r="0.529378" fill="url(#paint39_linear_10287_77152)"/><circle cx="183.615" cy="71.2032" r="0.529378" fill="url(#paint40_linear_10287_77152)"/><g filter="url(#filter6_i_10287_77152)"><circle cx="159.433" cy="77.2983" r="7.47321" stroke="#AFAFAF" stroke-width="0.482143"/></g><g filter="url(#filter7_i_10287_77152)"><circle cx="159.434" cy="77.2988" r="13.2589" stroke="#AFAFAF" stroke-width="0.482143"/></g><g filter="url(#filter8_i_10287_77152)"><circle cx="159.434" cy="77.2994" r="19.0446" stroke="#AFAFAF" stroke-width="0.482143"/></g><circle cx="159.497" cy="77.3624" r="4.82143" fill="#E0E0E0"/><circle cx="163.233" cy="77.2439" r="0.482143" transform="rotate(90 163.233 77.2439)" fill="url(#paint41_linear_10287_77152)"/><circle cx="162.224" cy="79.9199" r="0.482143" transform="rotate(135 162.224 79.9199)" fill="url(#paint42_linear_10287_77152)"/><circle cx="159.602" cy="81.1" r="0.482143" transform="rotate(-179.779 159.602 81.1)" fill="url(#paint43_linear_10287_77152)"/><circle cx="156.928" cy="80.0818" r="0.482143" transform="rotate(-134.792 156.928 80.0818)" fill="url(#paint44_linear_10287_77152)"/><circle cx="155.759" cy="77.4532" r="0.482143" transform="rotate(-89.5577 155.759 77.4532)" fill="url(#paint45_linear_10287_77152)"/><circle cx="156.787" cy="74.7862" r="0.482143" transform="rotate(-44.5837 156.787 74.7862)" fill="url(#paint46_linear_10287_77152)"/><circle cx="162.082" cy="74.6623" r="0.482143" transform="rotate(45.6245 162.082 74.6623)" fill="url(#paint47_linear_10287_77152)"/><circle cx="159.377" cy="73.6267" r="0.482143" fill="url(#paint48_linear_10287_77152)"/><rect x="177.75" y="88.75" width="158.5" height="158.5" rx="39.25" fill="white" stroke="#3E9AF8" stroke-width="1.5"/><path d="M278.748 148.384H218.898V193.384H278.748V148.384Z" fill="#1C943E"/><path d="M278.748 148.384H283.917C284.707 148.384 285.348 149.025 285.348 149.815V191.952C285.348 192.743 284.707 193.384 283.917 193.384H278.748V148.384Z" fill="#1C943E"/><path d="M207.948 161.584C207.948 162.329 208.553 162.934 209.298 162.934C210.044 162.934 210.648 162.329 210.648 161.584C210.648 160.838 210.044 160.234 209.298 160.234C208.553 160.234 207.948 160.838 207.948 161.584Z" fill="#1C943E"/><path d="M196.998 170.884C196.998 168.184 199.248 166.909 202.248 167.284V174.484C199.398 174.934 196.998 173.584 196.998 170.884Z" fill="#1C943E"/><path d="M289.098 155.14C289.098 154.971 289.236 154.834 289.405 154.834H291.798V186.934L289.098 186.998C288.929 186.998 289.098 185.896 289.098 185.727C289.098 185.727 289.098 155.31 289.098 155.14Z" fill="#1C943E"/><path d="M202.248 155.884C202.248 151.741 205.456 148.384 209.598 148.384H218.898V193.384H209.598C205.456 193.384 202.248 190.026 202.248 185.884V155.884Z" fill="#1C943E"/><path d="M311.448 134.434H292.548C292.548 134.434 295.322 138.392 295.322 140.515C295.322 143.354 291.798 145.862 291.798 149.776C291.798 155.707 291.798 178.488 291.798 189.794C291.798 193.356 294.686 196.234 298.248 196.234H305.748C309.311 196.234 312.198 193.36 312.198 189.798C312.198 178.848 312.198 157.071 312.198 149.776C312.198 145.939 308.525 143.354 308.525 140.515C308.525 138.392 311.448 134.434 311.448 134.434Z" fill="#1C943E"/><path d="M312.648 134.434C312.98 134.434 313.248 134.165 313.248 133.834V126.034C313.248 125.702 312.98 125.434 312.648 125.434H291.348C291.017 125.434 290.748 125.702 290.748 126.034V133.834C290.748 134.165 291.017 134.434 291.348 134.434H312.648Z" fill="#1C943E"/><path d="M285.348 199.793C285.348 199.567 285.165 199.384 284.939 199.384H214.058C213.832 199.384 213.648 199.567 213.648 199.793V201.825C213.648 202.05 213.832 202.234 214.058 202.234H284.939C285.165 202.234 285.348 202.05 285.348 201.825V199.793Z" fill="#1C943E"/><path d="M312.198 155.161C312.198 154.98 312.345 154.834 312.526 154.834C313.836 154.834 314.898 155.896 314.898 157.206V184.561C314.898 185.871 313.836 186.934 312.526 186.934C312.345 186.934 312.198 186.787 312.198 186.606V155.161Z" fill="#1C943E"/><path d="M285.348 151.984C285.348 151.735 285.55 151.534 285.798 151.534H287.148V190.234H285.798C285.55 190.234 285.348 190.032 285.348 189.784V151.984Z" fill="#1C943E"/><path d="M226.848 209.027V207.955C226.848 207.363 226.369 206.884 225.777 206.884H224.706C224.114 206.884 223.634 207.363 223.634 207.955V209.027H226.848Z" fill="#1C943E"/><path d="M207.948 180.184C207.948 180.929 208.553 181.534 209.298 181.534C210.044 181.534 210.648 180.929 210.648 180.184C210.648 179.438 210.044 178.834 209.298 178.834C208.553 178.834 207.948 179.438 207.948 180.184Z" fill="#1C943E"/><path d="M269.898 148.384V143.584C269.898 141.264 268.018 139.384 265.698 139.384H231.348C229.029 139.384 227.148 141.264 227.148 143.584V148.384H269.898Z" fill="#1C943E"/><path d="M280.998 208.984V202.234H268.098V208.984H280.998Z" fill="#1C943E"/><path d="M309.498 208.984V194.734C307.923 196.055 306.423 196.144 305.748 196.144C304.248 196.144 301.998 196.144 301.998 196.144C301.998 196.144 299.373 196.144 298.098 196.144C296.934 196.144 295.473 195.615 294.498 194.734V208.984H309.498Z" fill="#1C943E"/><path d="M289.056 186.998H290.127C290.719 186.998 291.198 186.518 291.198 185.926V184.855C291.198 184.263 290.719 183.784 290.127 183.784H289.056V186.998Z" fill="#1C943E"/><path d="M231.798 208.984V202.234H218.898V208.984H231.798Z" fill="#1C943E"/><path d="M273.048 199.384L270.111 193.384H226.786L223.848 199.384H273.048Z" fill="#1C943E"/><path d="M289.056 158.048H290.127C290.719 158.048 291.198 157.568 291.198 156.976V155.905C291.198 155.313 290.719 154.834 290.127 154.834H289.056V158.048Z" fill="#1C943E"/><path d="M289.056 172.448H290.127C290.719 172.448 291.198 171.968 291.198 171.376V170.305C291.198 169.713 290.719 169.234 290.127 169.234H289.056V172.448Z" fill="#1C943E"/><path d="M312.498 209.393C312.498 209.167 312.315 208.984 312.089 208.984H214.058C213.832 208.984 213.648 209.167 213.648 209.393V212.924C213.648 213.15 213.832 213.334 214.058 213.334H312.089C312.315 213.334 312.498 213.15 312.498 212.924V209.393Z" fill="#1C943E"/><path d="M276.198 209.027V207.955C276.198 207.363 275.719 206.884 275.127 206.884H274.056C273.464 206.884 272.984 207.363 272.984 207.955V209.027H276.198Z" fill="#1C943E"/><path d="M289.098 151.984C289.098 151.735 288.897 151.534 288.648 151.534H287.298V190.234H288.648C288.897 190.234 289.098 190.032 289.098 189.784V151.984Z" fill="#1C943E"/><path d="M303.798 208.877V207.805C303.798 207.213 303.319 206.734 302.727 206.734H301.656C301.064 206.734 300.584 207.213 300.584 207.805V208.877H303.798Z" fill="#1C943E"/><path d="M291.801 155.141C291.801 154.971 291.663 154.834 291.494 154.834H289.101V186.934H291.494C291.663 186.934 291.801 186.797 291.801 186.627V155.141Z" fill="url(#paint49_linear_10287_77152)"/><path d="M292.551 134.434H311.451C311.451 134.434 308.528 138.392 308.528 140.515C308.528 143.354 312.201 145.862 312.201 149.776C312.201 155.707 312.201 178.488 312.201 189.794C312.201 193.356 309.313 196.234 305.751 196.234H298.251C294.689 196.234 291.801 193.36 291.801 189.798C291.801 178.848 291.801 157.071 291.801 149.776C291.801 145.939 295.324 143.354 295.324 140.515C295.324 138.392 292.551 134.434 292.551 134.434Z" fill="url(#paint50_linear_10287_77152)"/><path d="M293.173 134.964C293.099 134.849 293.033 134.746 292.974 134.659H311.014C310.954 134.745 310.884 134.846 310.808 134.959C310.532 135.366 310.163 135.932 309.795 136.565C309.426 137.197 309.056 137.901 308.776 138.584C308.499 139.262 308.303 139.94 308.303 140.515C308.303 141.273 308.548 141.998 308.9 142.709C309.195 143.304 309.572 143.905 309.955 144.514C310.028 144.629 310.101 144.745 310.173 144.861C311.092 146.333 311.976 147.89 311.976 149.776V149.811V149.846V149.882V149.918V149.954V149.991V150.028V150.066V150.104V150.142V150.181V150.22V150.26V150.299V150.34V150.38V150.421V150.463V150.504V150.546V150.589V150.631V150.674V150.718V150.762V150.806V150.85V150.895V150.941V150.986V151.032V151.078V151.125V151.172V151.219V151.267V151.315V151.363V151.412V151.461V151.51V151.56V151.61V151.66V151.711V151.762V151.813V151.865V151.917V151.969V152.022V152.075V152.128V152.182V152.235V152.29V152.344V152.399V152.454V152.51V152.565V152.621V152.678V152.735V152.792V152.849V152.906V152.964V153.023V153.081V153.14V153.199V153.258V153.318V153.378V153.438V153.499V153.56V153.621V153.682V153.744V153.806V153.868V153.931V153.994V154.057V154.12V154.184V154.248V154.312V154.376V154.441V154.506V154.571V154.637V154.703V154.769V154.835V154.902V154.969V155.036V155.103V155.171V155.239V155.307V155.375V155.444V155.513V155.582V155.651V155.721V155.791V155.861V155.931V156.002V156.073V156.144V156.215V156.287V156.358V156.43V156.503V156.575V156.648V156.721V156.794V156.868V156.941V157.015V157.089V157.163V157.238V157.313V157.388V157.463V157.538V157.614V157.69V157.766V157.842V157.918V157.995V158.072V158.149V158.226V158.304V158.381V158.459V158.537V158.615V158.694V158.773V158.851V158.93V159.01V159.089V159.169V159.248V159.328V159.409V159.489V159.569V159.65V159.731V159.812V159.893V159.975V160.056V160.138V160.22V160.302V160.384V160.467V160.549V160.632V160.715V160.798V160.882V160.965V161.049V161.132V161.216V161.3V161.384V161.469V161.553V161.638V161.723V161.808V161.893V161.978V162.063V162.149V162.235V162.321V162.406V162.493V162.579V162.665V162.752V162.838V162.925V163.012V163.099V163.186V163.273V163.361V163.448V163.536V163.624V163.712V163.8V163.888V163.976V164.064V164.153V164.241V164.33V164.419V164.508V164.597V164.686V164.775V164.864V164.954V165.043V165.133V165.223V165.312V165.402V165.492V165.582V165.673V165.763V165.853V165.944V166.034V166.125V166.216V166.307V166.397V166.488V166.579V166.671V166.762V166.853V166.944V167.036V167.127V167.219V167.31V167.402V167.494V167.586V167.678V167.77V167.862V167.954V168.046V168.138V168.23V168.323V168.415V168.507V168.6V168.692V168.785V168.878V168.97V169.063V169.156V169.248V169.341V169.434V169.527V169.62V169.713V169.806V169.899V169.992V170.085V170.178V170.272V170.365V170.458V170.551V170.645V170.738V170.831V170.925V171.018V171.111V171.205V171.298V171.392V171.485V171.578V171.672V171.765V171.859V171.952V172.046V172.139V172.233V172.326V172.42V172.513V172.607V172.7V172.794V172.887V172.98V173.074V173.167V173.261V173.354V173.448V173.541V173.634V173.728V173.821V173.914V174.008V174.101V174.194V174.287V174.38V174.474V174.567V174.66V174.753V174.846V174.939V175.032V175.125V175.218V175.31V175.403V175.496V175.589V175.681V175.774V175.867V175.959V176.052V176.144V176.236V176.329V176.421V176.513V176.605V176.697V176.789V176.881V176.973V177.065V177.157V177.249V177.34V177.432V177.523V177.615V177.706V177.797V177.889V177.98V178.071V178.162V178.253V178.344V178.434V178.525V178.615V178.706V178.796V178.887V178.977V179.067V179.157V179.247V179.337V179.426V179.516V179.606V179.695V179.784V179.874V179.963V180.052V180.141V180.23V180.318V180.407V180.495V180.584V180.672V180.76V180.848V180.936V181.024V181.111V181.199V181.286V181.374V181.461V181.548V181.635V181.721V181.808V181.895V181.981V182.067V182.153V182.239V182.325V182.411V182.496V182.582V182.667V182.752V182.837V182.922V183.007V183.091V183.176V183.26V183.344V183.428V183.512V183.595V183.679V183.762V183.845V183.928V184.011V184.093V184.176V184.258V184.34V184.422V184.504V184.586V184.667V184.748V184.829V184.91V184.991V185.072V185.152V185.232V185.312V185.392V185.472V185.551V185.63V185.709V185.788V185.867V185.945V186.024V186.102V186.18V186.257V186.335V186.412V186.489V186.566V186.643V186.719V186.795V186.872V186.947V187.023V187.098V187.174V187.249V187.323V187.398V187.472V187.546V187.62V187.694V187.767V187.841V187.914V187.986V188.059V188.131V188.203V188.275V188.347V188.418V188.489V188.56V188.631V188.701V188.771V188.841V188.911V188.98V189.049V189.118V189.187V189.255V189.324V189.392V189.459V189.527V189.594V189.661V189.727V189.794C311.976 193.231 309.189 196.009 305.751 196.009H298.251C294.812 196.009 292.026 193.235 292.026 189.798L292.026 149.776C292.026 147.925 292.874 146.368 293.756 144.886C293.821 144.776 293.887 144.666 293.952 144.557C294.324 143.936 294.691 143.323 294.977 142.716C295.314 141.999 295.549 141.271 295.549 140.515C295.549 139.942 295.364 139.266 295.1 138.587C294.835 137.905 294.484 137.202 294.134 136.569C293.785 135.936 293.435 135.371 293.173 134.964Z" stroke="black" stroke-opacity="0.12" stroke-width="0.45"/><path d="M289.102 151.985C289.102 151.737 288.9 151.535 288.652 151.535H287.302V190.235H288.652C288.9 190.235 289.102 190.034 289.102 189.785V151.985Z" fill="url(#paint51_linear_10287_77152)"/><path d="M288.877 151.985C288.877 151.861 288.776 151.76 288.652 151.76H287.527V190.01H288.652C288.776 190.01 288.877 189.909 288.877 189.785V151.985Z" stroke="black" stroke-opacity="0.12" stroke-width="0.45"/><path d="M285.352 151.985C285.352 151.737 285.553 151.535 285.802 151.535H287.152V190.235H285.802C285.553 190.235 285.352 190.034 285.352 189.785V151.985Z" fill="url(#paint52_linear_10287_77152)"/><path d="M285.577 151.985C285.577 151.861 285.677 151.76 285.802 151.76H286.927V190.01H285.802C285.677 190.01 285.577 189.909 285.577 189.785V151.985Z" stroke="black" stroke-opacity="0.12" stroke-width="0.45"/><path d="M278.75 148.383H283.918C284.709 148.383 285.35 149.024 285.35 149.815V191.951C285.35 192.742 284.709 193.383 283.918 193.383H278.75V148.383Z" fill="url(#paint53_linear_10287_77152)"/><path d="M278.975 148.608H283.918C284.585 148.608 285.125 149.148 285.125 149.815V191.951C285.125 192.618 284.585 193.158 283.918 193.158H278.975V148.608Z" stroke="black" stroke-opacity="0.12" stroke-width="0.45"/><rect x="290.75" y="134.434" width="9" height="22.5" rx="0.6" transform="rotate(-90 290.75 134.434)" fill="url(#paint54_linear_10287_77152)"/><rect x="290.975" y="134.209" width="8.55" height="22.05" rx="0.375" transform="rotate(-90 290.975 134.209)" stroke="black" stroke-opacity="0.12" stroke-width="0.45"/><path d="M227.148 148.383V143.583C227.148 141.263 229.029 139.383 231.348 139.383H265.698C268.018 139.383 269.898 141.263 269.898 143.583V148.383H227.148Z" fill="url(#paint55_linear_10287_77152)"/><path d="M227.373 148.158V143.583C227.373 141.387 229.153 139.608 231.348 139.608H265.698C267.894 139.608 269.673 141.387 269.673 143.583V148.158H227.373Z" stroke="black" stroke-opacity="0.12" stroke-width="0.45"/><path d="M294.5 208.982V194.732C296.075 196.054 297.575 196.142 298.25 196.142C299.75 196.142 302 196.142 302 196.142C302 196.142 304.625 196.142 305.9 196.142C307.064 196.142 308.525 195.614 309.5 194.732V208.982H294.5Z" fill="url(#paint56_linear_10287_77152)"/><path d="M302 196.367L302 196.142L302 196.367H302H302H302H302.001H302.001H302.001H302.002H302.002H302.003H302.004H302.004H302.005H302.006H302.007H302.008H302.009H302.01H302.011H302.012H302.013H302.014H302.016H302.017H302.018H302.02H302.021H302.023H302.025H302.026H302.028H302.03H302.032H302.034H302.036H302.038H302.04H302.042H302.044H302.046H302.048H302.051H302.053H302.056H302.058H302.061H302.063H302.066H302.069H302.071H302.074H302.077H302.08H302.083H302.086H302.089H302.092H302.095H302.098H302.102H302.105H302.108H302.112H302.115H302.119H302.122H302.126H302.13H302.133H302.137H302.141H302.145H302.149H302.153H302.156H302.161H302.165H302.169H302.173H302.177H302.181H302.186H302.19H302.194H302.199H302.203H302.208H302.212H302.217H302.222H302.226H302.231H302.236H302.241H302.246H302.251H302.256H302.261H302.266H302.271H302.276H302.281H302.286H302.292H302.297H302.302H302.308H302.313H302.319H302.324H302.33H302.335H302.341H302.347H302.352H302.358H302.364H302.37H302.375H302.381H302.387H302.393H302.399H302.405H302.412H302.418H302.424H302.43H302.436H302.443H302.449H302.455H302.462H302.468H302.475H302.481H302.488H302.494H302.501H302.508H302.514H302.521H302.528H302.534H302.541H302.548H302.555H302.562H302.569H302.576H302.583H302.59H302.597H302.604H302.611H302.619H302.626H302.633H302.64H302.648H302.655H302.662H302.67H302.677H302.685H302.692H302.7H302.707H302.715H302.723H302.73H302.738H302.746H302.753H302.761H302.769H302.777H302.785H302.793H302.801H302.809H302.817H302.825H302.833H302.841H302.849H302.857H302.865H302.873H302.881H302.89H302.898H302.906H302.914H302.923H302.931H302.939H302.948H302.956H302.965H302.973H302.982H302.99H302.999H303.007H303.016H303.025H303.033H303.042H303.051H303.059H303.068H303.077H303.085H303.094H303.103H303.112H303.121H303.13H303.139H303.148H303.156H303.165H303.174H303.183H303.192H303.202H303.211H303.22H303.229H303.238H303.247H303.256H303.265H303.275H303.284H303.293H303.302H303.312H303.321H303.33H303.34H303.349H303.358H303.368H303.377H303.386H303.396H303.405H303.415H303.424H303.434H303.443H303.453H303.462H303.472H303.481H303.491H303.501H303.51H303.52H303.529H303.539H303.549H303.558H303.568H303.578H303.588H303.597H303.607H303.617H303.627H303.636H303.646H303.656H303.666H303.676H303.685H303.695H303.705H303.715H303.725H303.735H303.745H303.754H303.764H303.774H303.784H303.794H303.804H303.814H303.824H303.834H303.844H303.854H303.864H303.874H303.884H303.894H303.904H303.914H303.924H303.934H303.944H303.954H303.964H303.974H303.984H303.995H304.005H304.015H304.025H304.035H304.045H304.055H304.065H304.075H304.085H304.096H304.106H304.116H304.126H304.136H304.146H304.156H304.167H304.177H304.187H304.197H304.207H304.217H304.227H304.238H304.248H304.258H304.268H304.278H304.288H304.299H304.309H304.319H304.329H304.339H304.349H304.359H304.37H304.38H304.39H304.4H304.41H304.42H304.43H304.441H304.451H304.461H304.471H304.481H304.491H304.501H304.512H304.522H304.532H304.542H304.552H304.562H304.572H304.582H304.592H304.602H304.612H304.622H304.633H304.643H304.653H304.663H304.673H304.683H304.693H304.703H304.713H304.723H304.733H304.743H304.753H304.763H304.773H304.783H304.793H304.802H304.812H304.822H304.832H304.842H304.852H304.862H304.872H304.882H304.891H304.901H304.911H304.921H304.931H304.94H304.95H304.96H304.97H304.98H304.989H304.999H305.009H305.018H305.028H305.038H305.047H305.057H305.067H305.076H305.086H305.095H305.105H305.115H305.124H305.134H305.143H305.153H305.162H305.172H305.181H305.19H305.2H305.209H305.219H305.228H305.237H305.247H305.256H305.265H305.275H305.284H305.293H305.302H305.312H305.321H305.33H305.339H305.348H305.357H305.366H305.375H305.384H305.394H305.403H305.412H305.421H305.429H305.438H305.447H305.456H305.465H305.474H305.483H305.492H305.5H305.509H305.518H305.527H305.535H305.544H305.553H305.561H305.57H305.578H305.587H305.595H305.604H305.612H305.621H305.629H305.638H305.646H305.654H305.663H305.671H305.679H305.688H305.696H305.704H305.712H305.72H305.728H305.737H305.745H305.753H305.761H305.769H305.777H305.785H305.792H305.8H305.808H305.816H305.824H305.832H305.839H305.847H305.855H305.862H305.87H305.877H305.885H305.893H305.9C306.977 196.367 308.284 195.939 309.275 195.206V208.757H294.725V195.195C296.218 196.287 297.6 196.367 298.25 196.367H298.259H298.268H298.276H298.285H298.294H298.303H298.312H298.321H298.33H298.339H298.348H298.357H298.366H298.375H298.384H298.393H298.402H298.411H298.42H298.429H298.438H298.447H298.456H298.466H298.475H298.484H298.493H298.502H298.512H298.521H298.53H298.539H298.549H298.558H298.567H298.576H298.586H298.595H298.605H298.614H298.623H298.633H298.642H298.651H298.661H298.67H298.68H298.689H298.699H298.708H298.718H298.727H298.737H298.746H298.756H298.765H298.775H298.784H298.794H298.803H298.813H298.823H298.832H298.842H298.851H298.861H298.871H298.88H298.89H298.9H298.909H298.919H298.929H298.938H298.948H298.958H298.967H298.977H298.987H298.997H299.006H299.016H299.026H299.036H299.045H299.055H299.065H299.075H299.084H299.094H299.104H299.114H299.124H299.133H299.143H299.153H299.163H299.173H299.183H299.192H299.202H299.212H299.222H299.232H299.242H299.251H299.261H299.271H299.281H299.291H299.301H299.311H299.321H299.33H299.34H299.35H299.36H299.37H299.38H299.39H299.4H299.409H299.419H299.429H299.439H299.449H299.459H299.469H299.479H299.489H299.498H299.508H299.518H299.528H299.538H299.548H299.558H299.568H299.577H299.587H299.597H299.607H299.617H299.627H299.637H299.647H299.656H299.666H299.676H299.686H299.696H299.706H299.716H299.725H299.735H299.745H299.755H299.765H299.775H299.784H299.794H299.804H299.814H299.824H299.833H299.843H299.853H299.863H299.873H299.882H299.892H299.902H299.912H299.921H299.931H299.941H299.951H299.96H299.97H299.98H299.989H299.999H300.009H300.019H300.028H300.038H300.048H300.057H300.067H300.076H300.086H300.096H300.105H300.115H300.125H300.134H300.144H300.153H300.163H300.172H300.182H300.191H300.201H300.21H300.22H300.229H300.239H300.248H300.258H300.267H300.277H300.286H300.295H300.305H300.314H300.324H300.333H300.342H300.352H300.361H300.37H300.38H300.389H300.398H300.407H300.417H300.426H300.435H300.444H300.454H300.463H300.472H300.481H300.49H300.499H300.508H300.518H300.527H300.536H300.545H300.554H300.563H300.572H300.581H300.59H300.599H300.608H300.617H300.626H300.634H300.643H300.652H300.661H300.67H300.679H300.688H300.696H300.705H300.714H300.723H300.731H300.74H300.749H300.757H300.766H300.775H300.783H300.792H300.8H300.809H300.817H300.826H300.834H300.843H300.851H300.86H300.868H300.876H300.885H300.893H300.902H300.91H300.918H300.926H300.935H300.943H300.951H300.959H300.967H300.976H300.984H300.992H301H301.008H301.016H301.024H301.032H301.04H301.048H301.056H301.064H301.071H301.079H301.087H301.095H301.103H301.11H301.118H301.126H301.134H301.141H301.149H301.156H301.164H301.172H301.179H301.187H301.194H301.202H301.209H301.216H301.224H301.231H301.238H301.246H301.253H301.26H301.267H301.275H301.282H301.289H301.296H301.303H301.31H301.317H301.324H301.331H301.338H301.345H301.352H301.359H301.366H301.372H301.379H301.386H301.393H301.399H301.406H301.413H301.419H301.426H301.432H301.439H301.445H301.452H301.458H301.465H301.471H301.477H301.484H301.49H301.496H301.502H301.508H301.515H301.521H301.527H301.533H301.539H301.545H301.551H301.557H301.563H301.568H301.574H301.58H301.586H301.591H301.597H301.603H301.608H301.614H301.619H301.625H301.63H301.636H301.641H301.647H301.652H301.657H301.663H301.668H301.673H301.678H301.683H301.688H301.693H301.698H301.703H301.708H301.713H301.718H301.723H301.728H301.733H301.737H301.742H301.747H301.751H301.756H301.76H301.765H301.769H301.774H301.778H301.782H301.787H301.791H301.795H301.799H301.804H301.808H301.812H301.816H301.82H301.824H301.828H301.832H301.835H301.839H301.843H301.847H301.85H301.854H301.858H301.861H301.865H301.868H301.871H301.875H301.878H301.881H301.885H301.888H301.891H301.894H301.897H301.9H301.903H301.906H301.909H301.912H301.915H301.918H301.92H301.923H301.926H301.928H301.931H301.934H301.936H301.938H301.941H301.943H301.945H301.948H301.95H301.952H301.954H301.956H301.958H301.96H301.962H301.964H301.966H301.968H301.969H301.971H301.973H301.974H301.976H301.977H301.979H301.98H301.982H301.983H301.984H301.985H301.987H301.988H301.989H301.99H301.991H301.992H301.993H301.994H301.994H301.995H301.996H301.996H301.997H301.997H301.998H301.998H301.999H301.999H301.999H302H302H302H302Z" stroke="black" stroke-opacity="0.12" stroke-width="0.45"/><rect x="-0.225" y="0.225" width="1.65" height="14.55" rx="0.825" transform="matrix(-1 0 0 1 316.55 160.834)" fill="#D9D9D9" stroke="#727171" stroke-width="0.45"/><path d="M312.199 155.161C312.199 154.981 312.346 154.834 312.526 154.834C313.837 154.834 314.899 155.896 314.899 157.207V184.561C314.899 185.872 313.837 186.934 312.526 186.934C312.346 186.934 312.199 186.787 312.199 186.607V155.161Z" fill="url(#paint57_linear_10287_77152)"/><path d="M312.424 155.161C312.424 155.105 312.47 155.059 312.526 155.059C313.713 155.059 314.674 156.021 314.674 157.207V184.561C314.674 185.747 313.713 186.709 312.526 186.709C312.47 186.709 312.424 186.663 312.424 186.607V155.161Z" stroke="black" stroke-opacity="0.12" stroke-width="0.45"/><rect x="294.725" y="125.209" width="1.65" height="14.55" rx="0.825" transform="rotate(-90 294.725 125.209)" fill="#D9D9D9" stroke="#727171" stroke-width="0.45"/><path d="M197 170.883C197 168.895 198.612 167.283 200.6 167.283H202.25V174.483H200.6C198.612 174.483 197 172.871 197 170.883Z" fill="url(#paint58_linear_10287_77152)"/><path d="M197.225 170.883C197.225 169.019 198.736 167.508 200.6 167.508H202.025V174.258H200.6C198.736 174.258 197.225 172.747 197.225 170.883Z" stroke="black" stroke-opacity="0.12" stroke-width="0.45"/><path d="M218.898 148.383H278.748V193.383H218.898V148.383Z" fill="url(#paint59_linear_10287_77152)"/><path d="M218.898 148.383H278.748V151.597H218.898V148.383Z" fill="url(#paint60_linear_10287_77152)"/><path d="M218.898 151.598H278.748V154.812H218.898V151.598Z" fill="url(#paint61_linear_10287_77152)"/><path d="M218.898 154.811H278.748V158.025H218.898V154.811Z" fill="url(#paint62_linear_10287_77152)"/><path d="M218.898 158.025H278.748V161.24H218.898V158.025Z" fill="url(#paint63_linear_10287_77152)"/><path d="M218.898 161.24H278.748V164.455H218.898V161.24Z" fill="url(#paint64_linear_10287_77152)"/><path d="M218.898 164.455H278.748V167.669H218.898V164.455Z" fill="url(#paint65_linear_10287_77152)"/><path d="M218.898 167.668H278.748V170.882H218.898V167.668Z" fill="url(#paint66_linear_10287_77152)"/><path d="M218.898 170.883H278.748V174.097H218.898V170.883Z" fill="url(#paint67_linear_10287_77152)"/><path d="M218.898 174.098H278.748V177.312H218.898V174.098Z" fill="url(#paint68_linear_10287_77152)"/><path d="M218.898 177.311H278.748V180.525H218.898V177.311Z" fill="url(#paint69_linear_10287_77152)"/><path d="M218.898 180.525H278.748V183.74H218.898V180.525Z" fill="url(#paint70_linear_10287_77152)"/><path d="M218.898 183.74H278.748V186.955H218.898V183.74Z" fill="url(#paint71_linear_10287_77152)"/><path d="M218.898 186.955H278.748V190.169H218.898V186.955Z" fill="url(#paint72_linear_10287_77152)"/><path d="M218.898 190.168H278.748V193.382H218.898V190.168Z" fill="url(#paint73_linear_10287_77152)"/><path d="M202.25 155.883C202.25 151.741 205.608 148.383 209.75 148.383H218.9V193.383H209.75C205.608 193.383 202.25 190.025 202.25 185.883V155.883Z" fill="url(#paint74_linear_10287_77152)"/><path d="M202.475 155.883C202.475 151.865 205.732 148.608 209.75 148.608H218.675V193.158H209.75C205.732 193.158 202.475 189.901 202.475 185.883V155.883Z" stroke="black" stroke-opacity="0.12" stroke-width="0.45"/><circle cx="209.299" cy="161.582" r="1.35" fill="url(#paint75_linear_10287_77152)" fill-opacity="0.8"/><circle cx="209.299" cy="161.582" r="1.125" stroke="black" stroke-opacity="0.12" stroke-width="0.45"/><circle cx="209.299" cy="180.182" r="1.35" fill="url(#paint76_linear_10287_77152)" fill-opacity="0.8"/><circle cx="209.299" cy="180.182" r="1.125" stroke="black" stroke-opacity="0.12" stroke-width="0.45"/><path d="M218.898 208.982V202.232H231.798V208.982H218.898Z" fill="url(#paint77_linear_10287_77152)"/><path d="M219.052 208.829V202.386H231.645V208.829H219.052Z" stroke="black" stroke-opacity="0.12" stroke-width="0.306818"/><rect x="268.102" y="208.982" width="6.75" height="12.9" transform="rotate(-90 268.102 208.982)" fill="url(#paint78_linear_10287_77152)"/><rect x="268.255" y="208.829" width="6.44318" height="12.5932" transform="rotate(-90 268.255 208.829)" stroke="black" stroke-opacity="0.12" stroke-width="0.306818"/><path d="M289.102 172.449H290.173C290.765 172.449 291.244 171.97 291.244 171.378V170.306C291.244 169.714 290.765 169.235 290.173 169.235H289.102V172.449Z" fill="url(#paint79_linear_10287_77152)"/><path d="M289.327 172.224H290.173C290.641 172.224 291.019 171.845 291.019 171.378V170.306C291.019 169.839 290.641 169.46 290.173 169.46H289.327V172.224Z" stroke="black" stroke-opacity="0.12" stroke-width="0.45"/><path d="M289.102 158.047H290.173C290.765 158.047 291.244 157.567 291.244 156.976V155.904C291.244 155.312 290.765 154.833 290.173 154.833H289.102V158.047Z" fill="url(#paint80_linear_10287_77152)"/><path d="M289.327 157.822H290.173C290.641 157.822 291.019 157.443 291.019 156.976V155.904C291.019 155.436 290.641 155.058 290.173 155.058H289.327V157.822Z" stroke="black" stroke-opacity="0.12" stroke-width="0.45"/><path d="M289.102 186.996H290.173C290.765 186.996 291.244 186.516 291.244 185.925V184.853C291.244 184.262 290.765 183.782 290.173 183.782H289.102V186.996Z" fill="url(#paint81_linear_10287_77152)"/><path d="M289.327 186.771H290.173C290.64 186.771 291.019 186.392 291.019 185.925V184.853C291.019 184.386 290.64 184.007 290.173 184.007H289.327V186.771Z" stroke="black" stroke-opacity="0.12" stroke-width="0.45"/><rect x="213.352" y="208.982" width="98.85" height="4.35" rx="0.409091" fill="url(#paint82_linear_10287_77152)"/><rect x="213.505" y="209.136" width="98.5432" height="4.04318" rx="0.255682" stroke="black" stroke-opacity="0.12" stroke-width="0.306818"/><rect x="213.648" y="199.383" width="71.7" height="2.85" rx="0.409091" fill="url(#paint83_linear_10287_77152)"/><rect x="213.802" y="199.536" width="71.3932" height="2.54318" rx="0.255682" stroke="black" stroke-opacity="0.12" stroke-width="0.306818"/><path d="M223.852 199.383L226.789 193.383H270.114L273.052 199.383H223.852Z" fill="url(#paint84_linear_10287_77152)"/><path d="M269.974 193.608L272.691 199.158H224.212L226.929 193.608H269.974Z" stroke="black" stroke-opacity="0.12" stroke-width="0.45"/><path d="M273.051 209.027V207.956C273.051 207.364 273.53 206.884 274.122 206.884H275.194C275.785 206.884 276.265 207.364 276.265 207.956V209.027H273.051Z" fill="url(#paint85_linear_10287_77152)"/><path d="M273.276 208.802V207.956C273.276 207.488 273.655 207.109 274.122 207.109H275.194C275.661 207.109 276.04 207.488 276.04 207.956V208.802H273.276Z" stroke="black" stroke-opacity="0.12" stroke-width="0.45"/><path d="M223.699 209.027V207.956C223.699 207.364 224.179 206.884 224.771 206.884H225.842C226.434 206.884 226.914 207.364 226.914 207.956V209.027H223.699Z" fill="url(#paint86_linear_10287_77152)"/><path d="M223.924 208.802V207.956C223.924 207.488 224.303 207.109 224.771 207.109H225.842C226.31 207.109 226.689 207.488 226.689 207.956V208.802H223.924Z" stroke="black" stroke-opacity="0.12" stroke-width="0.45"/><path d="M300.199 208.875V207.804C300.199 207.212 300.679 206.732 301.271 206.732H302.342C302.934 206.732 303.414 207.212 303.414 207.804V208.875H300.199Z" fill="url(#paint87_linear_10287_77152)"/><path d="M300.424 208.65V207.804C300.424 207.336 300.803 206.957 301.271 206.957H302.342C302.81 206.957 303.189 207.336 303.189 207.804V208.65H300.424Z" stroke="black" stroke-opacity="0.12" stroke-width="0.45"/><rect x="0.75" y="130.75" width="158.5" height="158.5" rx="39.25" fill="white" stroke="#3E9AF8" stroke-width="1.5"/><rect x="35.082" y="261.918" width="90.5" height="8.74833" rx="2.11167" fill="white"/><rect x="35.082" y="261.918" width="90.5" height="8.74833" rx="2.11167" fill="url(#paint88_linear_10287_77152)"/><rect x="35.5345" y="262.37" width="89.595" height="7.84333" rx="1.65917" stroke="black" stroke-opacity="0.12" stroke-width="0.905"/><path d="M51.0713 232.656H109.595L119.248 262.823H41.418L51.0713 232.656Z" fill="white"/><path d="M51.0713 232.656H109.595L119.248 262.823H41.418L51.0713 232.656Z" fill="url(#paint89_linear_10287_77152)"/><path d="M42.0379 262.37L51.4016 233.109H109.264L118.628 262.37H42.0379Z" stroke="black" stroke-opacity="0.12" stroke-width="0.905"/><rect x="80.332" y="169.307" width="56.11" height="21.72" fill="white"/><rect x="80.332" y="169.307" width="56.11" height="21.72" fill="url(#paint90_linear_10287_77152)"/><rect x="80.7845" y="169.759" width="55.205" height="20.815" stroke="black" stroke-opacity="0.12" stroke-width="0.905"/><rect x="136.894" y="165.535" width="3.31833" height="29.2617" rx="1.65917" fill="#D9D9D9" stroke="#727171" stroke-width="0.905"/><rect x="24.2227" y="229.643" width="56.11" height="21.72" fill="white"/><rect x="24.2227" y="229.643" width="56.11" height="21.72" fill="url(#paint91_linear_10287_77152)"/><rect x="24.6752" y="230.095" width="55.205" height="20.815" stroke="black" stroke-opacity="0.12" stroke-width="0.905"/><rect x="20.4525" y="225.87" width="3.31833" height="29.2617" rx="1.65917" fill="#D9D9D9" stroke="#727171" stroke-width="0.905"/><circle cx="80.3334" cy="206.111" r="53.6967" fill="white"/><circle cx="80.3334" cy="206.111" r="53.6967" fill="url(#paint92_linear_10287_77152)"/><circle cx="80.3334" cy="206.111" r="53.0933" stroke="black" stroke-opacity="0.12" stroke-width="1.20667"/><path d="M112.914 206.111C112.914 224.105 98.3273 238.691 80.3339 238.691C62.3405 238.691 47.7539 224.105 47.7539 206.111C47.7539 188.118 62.3405 173.531 80.3339 173.531C98.3273 173.531 112.914 188.118 112.914 206.111Z" fill="#1C943E"/><path d="M112.914 206.111C112.914 224.105 98.3273 238.691 80.3339 238.691C62.3405 238.691 47.7539 224.105 47.7539 206.111C47.7539 188.118 62.3405 173.531 80.3339 173.531C98.3273 173.531 112.914 188.118 112.914 206.111Z" fill="url(#paint93_radial_10287_77152)" fill-opacity="0.8"/><path d="M112.461 206.111C112.461 223.855 98.0774 238.239 80.3339 238.239C62.5904 238.239 48.2064 223.855 48.2064 206.111C48.2064 188.368 62.5904 173.984 80.3339 173.984C98.0774 173.984 112.461 188.368 112.461 206.111Z" stroke="black" stroke-opacity="0.12" stroke-width="0.905"/><circle cx="80.333" cy="206.112" r="16.29" fill="url(#paint94_radial_10287_77152)" fill-opacity="0.8"/><circle cx="80.333" cy="206.112" r="15.8375" stroke="black" stroke-opacity="0.12" stroke-width="0.905"/><rect x="79.1289" y="174.436" width="2.41333" height="15.385" rx="1.20667" fill="url(#paint95_linear_10287_77152)"/><rect x="79.5814" y="174.888" width="1.50833" height="14.48" rx="0.754167" stroke="black" stroke-opacity="0.12" stroke-width="0.905"/><rect x="56.8047" y="184.891" width="2.41333" height="15.385" rx="1.20667" transform="rotate(-45 56.8047 184.891)" fill="url(#paint96_linear_10287_77152)"/><rect x="57.4446" y="184.891" width="1.50833" height="14.48" rx="0.754167" transform="rotate(-45 57.4446 184.891)" stroke="black" stroke-opacity="0.12" stroke-width="0.905"/><rect width="2.41333" height="15.385" rx="1.20667" transform="matrix(0.707107 0.707107 0.707107 -0.707107 56.8047 227.248)" fill="url(#paint97_linear_10287_77152)"/><rect x="0.639932" width="1.50833" height="14.48" rx="0.754167" transform="matrix(0.707107 0.707107 0.707107 -0.707107 56.9921 226.796)" stroke="black" stroke-opacity="0.12" stroke-width="0.905"/><rect width="2.41333" height="15.385" rx="1.20667" transform="matrix(-0.707107 -0.707107 -0.707107 0.707107 103.781 184.891)" fill="url(#paint98_linear_10287_77152)"/><rect x="-0.639932" width="1.50833" height="14.48" rx="0.754167" transform="matrix(-0.707107 -0.707107 -0.707107 0.707107 102.689 184.438)" stroke="black" stroke-opacity="0.12" stroke-width="0.905"/><rect x="103.781" y="227.248" width="2.41333" height="15.385" rx="1.20667" transform="rotate(135 103.781 227.248)" fill="url(#paint99_linear_10287_77152)"/><rect x="103.141" y="227.248" width="1.50833" height="14.48" rx="0.754167" transform="rotate(135 103.141 227.248)" stroke="black" stroke-opacity="0.12" stroke-width="0.905"/><rect x="79.1289" y="222.4" width="2.41333" height="15.385" rx="1.20667" fill="url(#paint100_linear_10287_77152)"/><rect x="79.5814" y="222.853" width="1.50833" height="14.48" rx="0.754167" stroke="black" stroke-opacity="0.12" stroke-width="0.905"/><rect x="96.625" y="207.318" width="2.41333" height="15.385" rx="1.20667" transform="rotate(-90 96.625 207.318)" fill="url(#paint101_linear_10287_77152)"/><rect x="97.0775" y="206.866" width="1.50833" height="14.48" rx="0.754167" transform="rotate(-90 97.0775 206.866)" stroke="black" stroke-opacity="0.12" stroke-width="0.905"/><rect x="48.6602" y="207.318" width="2.41333" height="15.385" rx="1.20667" transform="rotate(-90 48.6602 207.318)" fill="url(#paint102_linear_10287_77152)"/><rect x="49.1127" y="206.866" width="1.50833" height="14.48" rx="0.754167" transform="rotate(-90 49.1127 206.866)" stroke="black" stroke-opacity="0.12" stroke-width="0.905"/><path d="M114.725 206.111C114.725 225.104 99.3284 240.501 80.3353 240.501C61.3422 240.501 45.9453 225.104 45.9453 206.111C45.9453 187.118 61.3422 171.721 80.3353 171.721C99.3284 171.721 114.725 187.118 114.725 206.111ZM47.7488 206.111C47.7488 224.108 62.3383 238.697 80.3353 238.697C98.3324 238.697 112.922 224.108 112.922 206.111C112.922 188.114 98.3324 173.524 80.3353 173.524C62.3383 173.524 47.7488 188.114 47.7488 206.111Z" fill="url(#paint103_linear_10287_77152)"/><path d="M114.725 206.113C114.725 225.106 99.3284 240.503 80.3353 240.503C61.3422 240.503 45.9453 225.106 45.9453 206.113C45.9453 187.12 61.3422 171.723 80.3353 171.723C99.3284 171.723 114.725 187.12 114.725 206.113ZM47.7488 206.113C47.7488 224.11 62.3383 238.699 80.3353 238.699C98.3324 238.699 112.922 224.11 112.922 206.113C112.922 188.116 98.3324 173.526 80.3353 173.526C62.3383 173.526 47.7488 188.116 47.7488 206.113Z" fill="url(#paint104_linear_10287_77152)"/><circle cx="80.3348" cy="162.069" r="3.62" fill="url(#paint105_linear_10287_77152)" fill-opacity="0.8"/><circle cx="80.3348" cy="162.069" r="3.1675" stroke="black" stroke-opacity="0.12" stroke-width="0.905"/><circle cx="80.3348" cy="250.157" r="3.62" fill="url(#paint106_linear_10287_77152)" fill-opacity="0.8"/><circle cx="80.3348" cy="250.157" r="3.1675" stroke="black" stroke-opacity="0.12" stroke-width="0.905"/><circle cx="124.378" cy="206.112" r="3.62" fill="url(#paint107_linear_10287_77152)" fill-opacity="0.8"/><circle cx="124.378" cy="206.112" r="3.1675" stroke="black" stroke-opacity="0.12" stroke-width="0.905"/><circle cx="112.011" cy="175.343" r="3.62" fill="url(#paint108_linear_10287_77152)" fill-opacity="0.8"/><circle cx="112.011" cy="175.343" r="3.1675" stroke="black" stroke-opacity="0.12" stroke-width="0.905"/><circle cx="111.409" cy="236.581" r="3.62" fill="url(#paint109_linear_10287_77152)" fill-opacity="0.8"/><circle cx="111.409" cy="236.581" r="3.1675" stroke="black" stroke-opacity="0.12" stroke-width="0.905"/><circle cx="49.5653" cy="175.343" r="3.62" fill="url(#paint110_linear_10287_77152)" fill-opacity="0.8"/><circle cx="49.5653" cy="175.343" r="3.1675" stroke="black" stroke-opacity="0.12" stroke-width="0.905"/><circle cx="49.5653" cy="236.581" r="3.62" fill="url(#paint111_linear_10287_77152)" fill-opacity="0.8"/><circle cx="49.5653" cy="236.581" r="3.1675" stroke="black" stroke-opacity="0.12" stroke-width="0.905"/><circle cx="36.2919" cy="206.112" r="3.62" fill="url(#paint112_linear_10287_77152)" fill-opacity="0.8"/><circle cx="36.2919" cy="206.112" r="3.1675" stroke="black" stroke-opacity="0.12" stroke-width="0.905"/><defs><filter id="filter0_d_10287_77152" x="84.9508" y="35.334" width="115.649" height="82.95" filterUnits="userSpaceOnUse" color-interpolation-filters="sRGB"><feFlood flood-opacity="0" result="BackgroundImageFix"/><feColorMatrix in="SourceAlpha" type="matrix" values="0 0 0 0 0 0 0 0 0 0 0 0 0 0 0 0 0 0 127 0" result="hardAlpha"/><feOffset dy="0.6"/><feGaussianBlur stdDeviation="0.3"/><feComposite in2="hardAlpha" operator="out"/><feColorMatrix type="matrix" values="0 0 0 0 0 0 0 0 0 0 0 0 0 0 0 0 0 0 0.25 0"/><feBlend mode="normal" in2="BackgroundImageFix" result="effect1_dropShadow_10287_77152"/><feBlend mode="normal" in="SourceGraphic" in2="effect1_dropShadow_10287_77152" result="shape"/></filter><filter id="filter1_i_10287_77152" x="97.9319" y="95.1816" width="12.9704" height="12.9704" filterUnits="userSpaceOnUse" color-interpolation-filters="sRGB"><feFlood flood-opacity="0" result="BackgroundImageFix"/><feBlend mode="normal" in="SourceGraphic" in2="BackgroundImageFix" result="shape"/><feColorMatrix in="SourceAlpha" type="matrix" values="0 0 0 0 0 0 0 0 0 0 0 0 0 0 0 0 0 0 127 0" result="hardAlpha"/><feOffset dx="-0.669643" dy="0.669643"/><feGaussianBlur stdDeviation="0.535714"/><feComposite in2="hardAlpha" operator="arithmetic" k2="-1" k3="1"/><feColorMatrix type="matrix" values="0 0 0 0 0 0 0 0 0 0 0 0 0 0 0 0 0 0 0.15 0"/><feBlend mode="normal" in2="shape" result="effect1_innerShadow_10287_77152"/></filter><filter id="filter2_ii_10287_77152" x="98.3016" y="45.534" width="27.7484" height="12.6" filterUnits="userSpaceOnUse" color-interpolation-filters="sRGB"><feFlood flood-opacity="0" result="BackgroundImageFix"/><feBlend mode="normal" in="SourceGraphic" in2="BackgroundImageFix" result="shape"/><feColorMatrix in="SourceAlpha" type="matrix" values="0 0 0 0 0 0 0 0 0 0 0 0 0 0 0 0 0 0 127 0" result="hardAlpha"/><feOffset dx="-0.3" dy="0.3"/><feGaussianBlur stdDeviation="0.45"/><feComposite in2="hardAlpha" operator="arithmetic" k2="-1" k3="1"/><feColorMatrix type="matrix" values="0 0 0 0 0.445833 0 0 0 0 0.445833 0 0 0 0 0.445833 0 0 0 0.5 0"/><feBlend mode="normal" in2="shape" result="effect1_innerShadow_10287_77152"/><feColorMatrix in="SourceAlpha" type="matrix" values="0 0 0 0 0 0 0 0 0 0 0 0 0 0 0 0 0 0 127 0" result="hardAlpha"/><feOffset dx="0.3" dy="-0.3"/><feGaussianBlur stdDeviation="0.3"/><feComposite in2="hardAlpha" operator="arithmetic" k2="-1" k3="1"/><feColorMatrix type="matrix" values="0 0 0 0 1 0 0 0 0 1 0 0 0 0 1 0 0 0 0.5 0"/><feBlend mode="normal" in2="effect1_innerShadow_10287_77152" result="effect2_innerShadow_10287_77152"/></filter><filter id="filter3_i_10287_77152" x="98.3772" y="59.4844" width="13.0134" height="12.9665" filterUnits="userSpaceOnUse" color-interpolation-filters="sRGB"><feFlood flood-opacity="0" result="BackgroundImageFix"/><feBlend mode="normal" in="SourceGraphic" in2="BackgroundImageFix" result="shape"/><feColorMatrix in="SourceAlpha" type="matrix" values="0 0 0 0 0 0 0 0 0 0 0 0 0 0 0 0 0 0 127 0" result="hardAlpha"/><feOffset dx="-0.669643" dy="0.669643"/><feGaussianBlur stdDeviation="0.535714"/><feComposite in2="hardAlpha" operator="arithmetic" k2="-1" k3="1"/><feColorMatrix type="matrix" values="0 0 0 0 0 0 0 0 0 0 0 0 0 0 0 0 0 0 0.15 0"/><feBlend mode="normal" in2="shape" result="effect1_innerShadow_10287_77152"/></filter><filter id="filter4_i_10287_77152" x="112.182" y="59.4844" width="13.0134" height="12.9665" filterUnits="userSpaceOnUse" color-interpolation-filters="sRGB"><feFlood flood-opacity="0" result="BackgroundImageFix"/><feBlend mode="normal" in="SourceGraphic" in2="BackgroundImageFix" result="shape"/><feColorMatrix in="SourceAlpha" type="matrix" values="0 0 0 0 0 0 0 0 0 0 0 0 0 0 0 0 0 0 127 0" result="hardAlpha"/><feOffset dx="-0.669643" dy="0.669643"/><feGaussianBlur stdDeviation="0.535714"/><feComposite in2="hardAlpha" operator="arithmetic" k2="-1" k3="1"/><feColorMatrix type="matrix" values="0 0 0 0 0 0 0 0 0 0 0 0 0 0 0 0 0 0 0.15 0"/><feBlend mode="normal" in2="shape" result="effect1_innerShadow_10287_77152"/></filter><filter id="filter5_i_10287_77152" x="139.402" y="57.1621" width="36.7852" height="40.1532" filterUnits="userSpaceOnUse" color-interpolation-filters="sRGB"><feFlood flood-opacity="0" result="BackgroundImageFix"/><feBlend mode="normal" in="SourceGraphic" in2="BackgroundImageFix" result="shape"/><feColorMatrix in="SourceAlpha" type="matrix" values="0 0 0 0 0 0 0 0 0 0 0 0 0 0 0 0 0 0 127 0" result="hardAlpha"/><feOffset dy="1.92857"/><feGaussianBlur stdDeviation="0.964286"/><feComposite in2="hardAlpha" operator="arithmetic" k2="-1" k3="1"/><feColorMatrix type="matrix" values="0 0 0 0 1 0 0 0 0 1 0 0 0 0 1 0 0 0 0.25 0"/><feBlend mode="normal" in2="shape" result="effect1_innerShadow_10287_77152"/></filter><filter id="filter6_i_10287_77152" x="151.719" y="69.584" width="15.9118" height="15.9099" filterUnits="userSpaceOnUse" color-interpolation-filters="sRGB"><feFlood flood-opacity="0" result="BackgroundImageFix"/><feBlend mode="normal" in="SourceGraphic" in2="BackgroundImageFix" result="shape"/><feColorMatrix in="SourceAlpha" type="matrix" values="0 0 0 0 0 0 0 0 0 0 0 0 0 0 0 0 0 0 127 0" result="hardAlpha"/><feOffset dx="0.482143" dy="0.482143"/><feGaussianBlur stdDeviation="0.241071"/><feComposite in2="hardAlpha" operator="arithmetic" k2="-1" k3="1"/><feColorMatrix type="matrix" values="0 0 0 0 0 0 0 0 0 0 0 0 0 0 0 0 0 0 0.25 0"/><feBlend mode="normal" in2="shape" result="effect1_innerShadow_10287_77152"/></filter><filter id="filter7_i_10287_77152" x="145.934" y="63.7988" width="27.4821" height="27.4821" filterUnits="userSpaceOnUse" color-interpolation-filters="sRGB"><feFlood flood-opacity="0" result="BackgroundImageFix"/><feBlend mode="normal" in="SourceGraphic" in2="BackgroundImageFix" result="shape"/><feColorMatrix in="SourceAlpha" type="matrix" values="0 0 0 0 0 0 0 0 0 0 0 0 0 0 0 0 0 0 127 0" result="hardAlpha"/><feOffset dx="0.482143" dy="0.482143"/><feGaussianBlur stdDeviation="0.241071"/><feComposite in2="hardAlpha" operator="arithmetic" k2="-1" k3="1"/><feColorMatrix type="matrix" values="0 0 0 0 0 0 0 0 0 0 0 0 0 0 0 0 0 0 0.25 0"/><feBlend mode="normal" in2="shape" result="effect1_innerShadow_10287_77152"/></filter><filter id="filter8_i_10287_77152" x="140.148" y="58.0137" width="39.0525" height="39.0544" filterUnits="userSpaceOnUse" color-interpolation-filters="sRGB"><feFlood flood-opacity="0" result="BackgroundImageFix"/><feBlend mode="normal" in="SourceGraphic" in2="BackgroundImageFix" result="shape"/><feColorMatrix in="SourceAlpha" type="matrix" values="0 0 0 0 0 0 0 0 0 0 0 0 0 0 0 0 0 0 127 0" result="hardAlpha"/><feOffset dx="0.482143" dy="0.482143"/><feGaussianBlur stdDeviation="0.241071"/><feComposite in2="hardAlpha" operator="arithmetic" k2="-1" k3="1"/><feColorMatrix type="matrix" values="0 0 0 0 0 0 0 0 0 0 0 0 0 0 0 0 0 0 0.25 0"/><feBlend mode="normal" in2="shape" result="effect1_innerShadow_10287_77152"/></filter><linearGradient id="paint0_linear_10287_77152" x1="118.523" y1="123.157" x2="120.106" y2="131.252" gradientUnits="userSpaceOnUse"><stop stop-color="#727171" stop-opacity="0.2"/><stop offset="1" stop-color="#727171"/></linearGradient><linearGradient id="paint1_linear_10287_77152" x1="159.352" y1="119.058" x2="121.016" y2="115.307" gradientUnits="userSpaceOnUse"><stop stop-color="#727171"/><stop offset="0.263882" stop-color="#727171" stop-opacity="0.35"/><stop offset="0.417594" stop-color="#727171" stop-opacity="0.1"/><stop offset="0.498292" stop-color="white" stop-opacity="0"/><stop offset="0.580942" stop-color="#727171" stop-opacity="0.1"/><stop offset="0.718554" stop-color="#727171" stop-opacity="0.35"/><stop offset="1" stop-color="#727171"/></linearGradient><linearGradient id="paint2_linear_10287_77152" x1="200.001" y1="73.7565" x2="85.5508" y2="73.9818" gradientUnits="userSpaceOnUse"><stop stop-color="#020202" stop-opacity="0.35"/><stop offset="0.0262904" stop-color="#020202" stop-opacity="0.12"/><stop offset="0.116174" stop-color="white" stop-opacity="0.12"/><stop offset="0.498292" stop-color="white" stop-opacity="0.3"/><stop offset="0.887623" stop-color="white" stop-opacity="0.12"/><stop offset="0.965907" stop-color="#020202" stop-opacity="0.12"/><stop offset="1" stop-color="#020202" stop-opacity="0.35"/></linearGradient><linearGradient id="paint3_linear_10287_77152" x1="82.9986" y1="44.9336" x2="82.7853" y2="55.7303" gradientUnits="userSpaceOnUse"><stop stop-color="#727171"/><stop offset="0.263882" stop-color="#727171" stop-opacity="0.35"/><stop offset="0.417594" stop-color="#727171" stop-opacity="0.1"/><stop offset="0.498292" stop-color="white" stop-opacity="0"/><stop offset="0.580942" stop-color="#727171" stop-opacity="0.1"/><stop offset="0.718554" stop-color="#727171" stop-opacity="0.35"/><stop offset="1" stop-color="#727171"/></linearGradient><linearGradient id="paint4_linear_10287_77152" x1="82.9986" y1="74.9336" x2="82.7853" y2="85.7303" gradientUnits="userSpaceOnUse"><stop stop-color="#727171"/><stop offset="0.263882" stop-color="#727171" stop-opacity="0.35"/><stop offset="0.417594" stop-color="#727171" stop-opacity="0.1"/><stop offset="0.498292" stop-color="white" stop-opacity="0"/><stop offset="0.580942" stop-color="#727171" stop-opacity="0.1"/><stop offset="0.718554" stop-color="#727171" stop-opacity="0.35"/><stop offset="1" stop-color="#727171"/></linearGradient><linearGradient id="paint5_linear_10287_77152" x1="200.001" y1="73.7565" x2="85.5508" y2="73.9818" gradientUnits="userSpaceOnUse"><stop stop-color="#020202" stop-opacity="0.35"/><stop offset="0.0262904" stop-color="#020202" stop-opacity="0.12"/><stop offset="0.116174" stop-color="white" stop-opacity="0.12"/><stop offset="0.498292" stop-color="white" stop-opacity="0.3"/><stop offset="0.887623" stop-color="white" stop-opacity="0.12"/><stop offset="0.965907" stop-color="#020202" stop-opacity="0.12"/><stop offset="1" stop-color="#020202" stop-opacity="0.35"/></linearGradient><linearGradient id="paint6_linear_10287_77152" x1="200.001" y1="73.7565" x2="85.5508" y2="73.9818" gradientUnits="userSpaceOnUse"><stop stop-color="#020202" stop-opacity="0.35"/><stop offset="0.0262904" stop-color="#020202" stop-opacity="0.12"/><stop offset="0.116174" stop-color="white" stop-opacity="0.12"/><stop offset="0.498292" stop-color="white" stop-opacity="0.3"/><stop offset="0.887623" stop-color="white" stop-opacity="0.12"/><stop offset="0.965907" stop-color="#020202" stop-opacity="0.12"/><stop offset="1" stop-color="#020202" stop-opacity="0.35"/></linearGradient><radialGradient id="paint7_radial_10287_77152" cx="0" cy="0" r="1" gradientUnits="userSpaceOnUse" gradientTransform="translate(159.5 77.1252) rotate(-179.73) scale(27.0003 27.063)"><stop stop-color="#020202" stop-opacity="0.35"/><stop offset="0.369062" stop-color="#020202" stop-opacity="0.12"/><stop offset="0.704993" stop-color="white" stop-opacity="0.12"/><stop offset="0.999658" stop-color="white" stop-opacity="0.15"/></radialGradient><linearGradient id="paint8_linear_10287_77152" x1="141.275" y1="57.1152" x2="179.075" y2="98.2902" gradientUnits="userSpaceOnUse"><stop stop-color="#727171" stop-opacity="0.4"/><stop offset="1" stop-color="#727171"/></linearGradient><linearGradient id="paint9_linear_10287_77152" x1="160.5" y1="62.1791" x2="159.5" y2="62.1791" gradientUnits="userSpaceOnUse"><stop stop-color="#D0D0D0"/><stop offset="1" stop-color="#6A6A6A"/></linearGradient><linearGradient id="paint10_linear_10287_77152" x1="160.5" y1="90.6264" x2="159.5" y2="90.6264" gradientUnits="userSpaceOnUse"><stop stop-color="#D0D0D0"/><stop offset="1" stop-color="#6A6A6A"/></linearGradient><linearGradient id="paint11_linear_10287_77152" x1="172.757" y1="76.3652" x2="172.757" y2="77.3652" gradientUnits="userSpaceOnUse"><stop stop-color="#D0D0D0"/><stop offset="1" stop-color="#6A6A6A"/></linearGradient><linearGradient id="paint12_linear_10287_77152" x1="144.312" y1="76.3652" x2="144.312" y2="77.3652" gradientUnits="userSpaceOnUse"><stop stop-color="#D0D0D0"/><stop offset="1" stop-color="#6A6A6A"/></linearGradient><linearGradient id="paint13_linear_10287_77152" x1="148.919" y1="66.3467" x2="148.578" y2="66.6876" gradientUnits="userSpaceOnUse"><stop stop-color="#D0D0D0"/><stop offset="1" stop-color="#6A6A6A"/></linearGradient><linearGradient id="paint14_linear_10287_77152" x1="169.88" y1="86.3307" x2="169.173" y2="87.0378" gradientUnits="userSpaceOnUse"><stop stop-color="#D0D0D0"/><stop offset="1" stop-color="#6A6A6A"/></linearGradient><linearGradient id="paint15_linear_10287_77152" x1="147.993" y1="87.4562" x2="148.7" y2="88.1633" gradientUnits="userSpaceOnUse"><stop stop-color="#D0D0D0"/><stop offset="1" stop-color="#6A6A6A"/></linearGradient><linearGradient id="paint16_linear_10287_77152" x1="169.141" y1="67.4821" x2="169.624" y2="67.9643" gradientUnits="userSpaceOnUse"><stop stop-color="#D0D0D0"/><stop offset="1" stop-color="#6A6A6A"/></linearGradient><linearGradient id="paint17_linear_10287_77152" x1="184.727" y1="76.7749" x2="183.933" y2="77.569" gradientUnits="userSpaceOnUse"><stop stop-color="white"/><stop offset="1" stop-color="#B6B6B6"/></linearGradient><linearGradient id="paint18_linear_10287_77152" x1="183.942" y1="83.4077" x2="183.148" y2="84.2018" gradientUnits="userSpaceOnUse"><stop stop-color="white"/><stop offset="1" stop-color="#B6B6B6"/></linearGradient><linearGradient id="paint19_linear_10287_77152" x1="181.465" y1="89.3921" x2="180.671" y2="90.1862" gradientUnits="userSpaceOnUse"><stop stop-color="white"/><stop offset="1" stop-color="#B6B6B6"/></linearGradient><linearGradient id="paint20_linear_10287_77152" x1="177.739" y1="94.521" x2="176.945" y2="95.3151" gradientUnits="userSpaceOnUse"><stop stop-color="white"/><stop offset="1" stop-color="#B6B6B6"/></linearGradient><linearGradient id="paint21_linear_10287_77152" x1="172.348" y1="98.521" x2="171.554" y2="99.3151" gradientUnits="userSpaceOnUse"><stop stop-color="white"/><stop offset="1" stop-color="#B6B6B6"/></linearGradient><linearGradient id="paint22_linear_10287_77152" x1="166.344" y1="101.009" x2="165.55" y2="101.803" gradientUnits="userSpaceOnUse"><stop stop-color="white"/><stop offset="1" stop-color="#B6B6B6"/></linearGradient><linearGradient id="paint23_linear_10287_77152" x1="160.09" y1="101.8" x2="159.296" y2="102.594" gradientUnits="userSpaceOnUse"><stop stop-color="white"/><stop offset="1" stop-color="#B6B6B6"/></linearGradient><linearGradient id="paint24_linear_10287_77152" x1="153.364" y1="100.986" x2="152.57" y2="101.78" gradientUnits="userSpaceOnUse"><stop stop-color="white"/><stop offset="1" stop-color="#B6B6B6"/></linearGradient><linearGradient id="paint25_linear_10287_77152" x1="147.376" y1="98.478" x2="146.582" y2="99.2721" gradientUnits="userSpaceOnUse"><stop stop-color="white"/><stop offset="1" stop-color="#B6B6B6"/></linearGradient><linearGradient id="paint26_linear_10287_77152" x1="142.208" y1="94.3257" x2="141.414" y2="95.1198" gradientUnits="userSpaceOnUse"><stop stop-color="white"/><stop offset="1" stop-color="#B6B6B6"/></linearGradient><linearGradient id="paint27_linear_10287_77152" x1="138.309" y1="89.3511" x2="137.515" y2="90.1452" gradientUnits="userSpaceOnUse"><stop stop-color="white"/><stop offset="1" stop-color="#B6B6B6"/></linearGradient><linearGradient id="paint28_linear_10287_77152" x1="135.848" y1="83.3843" x2="135.054" y2="84.1784" gradientUnits="userSpaceOnUse"><stop stop-color="white"/><stop offset="1" stop-color="#B6B6B6"/></linearGradient><linearGradient id="paint29_linear_10287_77152" x1="135.016" y1="76.7749" x2="134.222" y2="77.569" gradientUnits="userSpaceOnUse"><stop stop-color="white"/><stop offset="1" stop-color="#B6B6B6"/></linearGradient><linearGradient id="paint30_linear_10287_77152" x1="135.903" y1="70.3589" x2="135.109" y2="71.153" gradientUnits="userSpaceOnUse"><stop stop-color="white"/><stop offset="1" stop-color="#B6B6B6"/></linearGradient><linearGradient id="paint31_linear_10287_77152" x1="138.399" y1="64.439" x2="137.605" y2="65.2331" gradientUnits="userSpaceOnUse"><stop stop-color="white"/><stop offset="1" stop-color="#B6B6B6"/></linearGradient><linearGradient id="paint32_linear_10287_77152" x1="142.426" y1="59.2554" x2="141.632" y2="60.0495" gradientUnits="userSpaceOnUse"><stop stop-color="white"/><stop offset="1" stop-color="#B6B6B6"/></linearGradient><linearGradient id="paint33_linear_10287_77152" x1="147.536" y1="55.3706" x2="146.742" y2="56.1647" gradientUnits="userSpaceOnUse"><stop stop-color="white"/><stop offset="1" stop-color="#B6B6B6"/></linearGradient><linearGradient id="paint34_linear_10287_77152" x1="153.645" y1="52.8784" x2="152.851" y2="53.6725" gradientUnits="userSpaceOnUse"><stop stop-color="white"/><stop offset="1" stop-color="#B6B6B6"/></linearGradient><linearGradient id="paint35_linear_10287_77152" x1="160.192" y1="52.0894" x2="159.398" y2="52.8834" gradientUnits="userSpaceOnUse"><stop stop-color="white"/><stop offset="1" stop-color="#B6B6B6"/></linearGradient><linearGradient id="paint36_linear_10287_77152" x1="166.583" y1="52.9956" x2="165.789" y2="53.7897" gradientUnits="userSpaceOnUse"><stop stop-color="white"/><stop offset="1" stop-color="#B6B6B6"/></linearGradient><linearGradient id="paint37_linear_10287_77152" x1="172.485" y1="55.5015" x2="171.691" y2="56.2956" gradientUnits="userSpaceOnUse"><stop stop-color="white"/><stop offset="1" stop-color="#B6B6B6"/></linearGradient><linearGradient id="paint38_linear_10287_77152" x1="177.676" y1="59.5581" x2="176.882" y2="60.3522" gradientUnits="userSpaceOnUse"><stop stop-color="white"/><stop offset="1" stop-color="#B6B6B6"/></linearGradient><linearGradient id="paint39_linear_10287_77152" x1="181.551" y1="64.7027" x2="180.757" y2="65.4967" gradientUnits="userSpaceOnUse"><stop stop-color="white"/><stop offset="1" stop-color="#B6B6B6"/></linearGradient><linearGradient id="paint40_linear_10287_77152" x1="184.012" y1="70.8062" x2="183.218" y2="71.6002" gradientUnits="userSpaceOnUse"><stop stop-color="white"/><stop offset="1" stop-color="#B6B6B6"/></linearGradient><linearGradient id="paint41_linear_10287_77152" x1="162.871" y1="76.8823" x2="163.594" y2="77.6055" gradientUnits="userSpaceOnUse"><stop stop-color="#AAAAAA"/><stop offset="1" stop-color="#747373"/></linearGradient><linearGradient id="paint42_linear_10287_77152" x1="161.663" y1="79.9062" x2="162.686" y2="79.9062" gradientUnits="userSpaceOnUse"><stop stop-color="#AAAAAA"/><stop offset="1" stop-color="#747373"/></linearGradient><linearGradient id="paint43_linear_10287_77152" x1="159.227" y1="81.4633" x2="159.947" y2="80.7373" gradientUnits="userSpaceOnUse"><stop stop-color="#AAAAAA"/><stop offset="1" stop-color="#747373"/></linearGradient><linearGradient id="paint44_linear_10287_77152" x1="156.866" y1="80.5802" x2="156.862" y2="79.5575" gradientUnits="userSpaceOnUse"><stop stop-color="#AAAAAA"/><stop offset="1" stop-color="#747373"/></linearGradient><linearGradient id="paint45_linear_10287_77152" x1="156.094" y1="77.8131" x2="155.365" y2="77.0955" gradientUnits="userSpaceOnUse"><stop stop-color="#AAAAAA"/><stop offset="1" stop-color="#747373"/></linearGradient><linearGradient id="paint46_linear_10287_77152" x1="157.223" y1="74.7703" x2="156.2" y2="74.7777" gradientUnits="userSpaceOnUse"><stop stop-color="#AAAAAA"/><stop offset="1" stop-color="#747373"/></linearGradient><linearGradient id="paint47_linear_10287_77152" x1="161.988" y1="74.1395" x2="161.999" y2="75.1622" gradientUnits="userSpaceOnUse"><stop stop-color="#AAAAAA"/><stop offset="1" stop-color="#747373"/></linearGradient><linearGradient id="paint48_linear_10287_77152" x1="159.738" y1="73.2651" x2="159.015" y2="73.9883" gradientUnits="userSpaceOnUse"><stop stop-color="#AAAAAA"/><stop offset="1" stop-color="#747373"/></linearGradient><linearGradient id="paint49_linear_10287_77152" x1="291.099" y1="154.834" x2="293.494" y2="186.757" gradientUnits="userSpaceOnUse"><stop stop-color="#020202" stop-opacity="0.35"/><stop offset="0.183162" stop-color="#020202" stop-opacity="0.12"/><stop offset="0.350848" stop-color="white" stop-opacity="0.08"/><stop offset="0.498292" stop-color="white" stop-opacity="0.25"/><stop offset="0.648246" stop-color="white" stop-opacity="0.08"/><stop offset="0.823183" stop-color="#020202" stop-opacity="0.12"/><stop offset="1" stop-color="#020202" stop-opacity="0.35"/></linearGradient><linearGradient id="paint50_linear_10287_77152" x1="297.105" y1="139.958" x2="295.939" y2="201.329" gradientUnits="userSpaceOnUse"><stop stop-color="#020202" stop-opacity="0.35"/><stop offset="0.183162" stop-color="#020202" stop-opacity="0.12"/><stop offset="0.350848" stop-color="white" stop-opacity="0.08"/><stop offset="0.498292" stop-color="white" stop-opacity="0.25"/><stop offset="0.648246" stop-color="white" stop-opacity="0.08"/><stop offset="0.823183" stop-color="#020202" stop-opacity="0.12"/><stop offset="1" stop-color="#020202" stop-opacity="0.35"/></linearGradient><linearGradient id="paint51_linear_10287_77152" x1="288.634" y1="151.535" x2="293.79" y2="189.539" gradientUnits="userSpaceOnUse"><stop stop-color="#020202" stop-opacity="0.35"/><stop offset="0.183162" stop-color="#020202" stop-opacity="0.12"/><stop offset="0.350848" stop-color="white" stop-opacity="0.08"/><stop offset="0.498292" stop-color="white" stop-opacity="0.25"/><stop offset="0.648246" stop-color="white" stop-opacity="0.08"/><stop offset="0.823183" stop-color="#020202" stop-opacity="0.12"/><stop offset="1" stop-color="#020202" stop-opacity="0.35"/></linearGradient><linearGradient id="paint52_linear_10287_77152" x1="285.82" y1="151.535" x2="280.663" y2="189.539" gradientUnits="userSpaceOnUse"><stop stop-color="#020202" stop-opacity="0.35"/><stop offset="0.183162" stop-color="#020202" stop-opacity="0.12"/><stop offset="0.350848" stop-color="white" stop-opacity="0.08"/><stop offset="0.498292" stop-color="white" stop-opacity="0.25"/><stop offset="0.648246" stop-color="white" stop-opacity="0.08"/><stop offset="0.823183" stop-color="#020202" stop-opacity="0.12"/><stop offset="1" stop-color="#020202" stop-opacity="0.35"/></linearGradient><linearGradient id="paint53_linear_10287_77152" x1="280.466" y1="148.383" x2="278.533" y2="193.303" gradientUnits="userSpaceOnUse"><stop stop-color="#020202" stop-opacity="0.35"/><stop offset="0.183162" stop-color="#020202" stop-opacity="0.12"/><stop offset="0.350848" stop-color="white" stop-opacity="0.08"/><stop offset="0.498292" stop-color="white" stop-opacity="0.25"/><stop offset="0.648246" stop-color="white" stop-opacity="0.08"/><stop offset="0.823183" stop-color="#020202" stop-opacity="0.12"/><stop offset="1" stop-color="#020202" stop-opacity="0.35"/></linearGradient><linearGradient id="paint54_linear_10287_77152" x1="293.09" y1="134.434" x2="292.735" y2="156.93" gradientUnits="userSpaceOnUse"><stop stop-color="#020202" stop-opacity="0.35"/><stop offset="0.183162" stop-color="#020202" stop-opacity="0.12"/><stop offset="0.350848" stop-color="white" stop-opacity="0.08"/><stop offset="0.498292" stop-color="white" stop-opacity="0.25"/><stop offset="0.648246" stop-color="white" stop-opacity="0.08"/><stop offset="0.823183" stop-color="#020202" stop-opacity="0.12"/><stop offset="1" stop-color="#020202" stop-opacity="0.35"/></linearGradient><linearGradient id="paint55_linear_10287_77152" x1="227.148" y1="146.043" x2="269.864" y2="147.323" gradientUnits="userSpaceOnUse"><stop stop-color="#020202" stop-opacity="0.35"/><stop offset="0.183162" stop-color="#020202" stop-opacity="0.12"/><stop offset="0.350848" stop-color="white" stop-opacity="0.08"/><stop offset="0.498292" stop-color="white" stop-opacity="0.25"/><stop offset="0.648246" stop-color="white" stop-opacity="0.08"/><stop offset="0.823183" stop-color="#020202" stop-opacity="0.12"/><stop offset="1" stop-color="#020202" stop-opacity="0.35"/></linearGradient><linearGradient id="paint56_linear_10287_77152" x1="295.684" y1="207.045" x2="308.315" y2="207.192" gradientUnits="userSpaceOnUse"><stop stop-color="#020202" stop-opacity="0.35"/><stop offset="0.183162" stop-color="#020202" stop-opacity="0.12"/><stop offset="0.350848" stop-color="white" stop-opacity="0.08"/><stop offset="0.498292" stop-color="white" stop-opacity="0.25"/><stop offset="0.648246" stop-color="white" stop-opacity="0.08"/><stop offset="0.823183" stop-color="#020202" stop-opacity="0.12"/><stop offset="1" stop-color="#020202" stop-opacity="0.35"/></linearGradient><linearGradient id="paint57_linear_10287_77152" x1="312.901" y1="154.834" x2="310.506" y2="186.757" gradientUnits="userSpaceOnUse"><stop stop-color="#020202" stop-opacity="0.35"/><stop offset="0.183162" stop-color="#020202" stop-opacity="0.12"/><stop offset="0.350848" stop-color="white" stop-opacity="0.08"/><stop offset="0.498292" stop-color="white" stop-opacity="0.25"/><stop offset="0.648246" stop-color="white" stop-opacity="0.08"/><stop offset="0.823183" stop-color="#020202" stop-opacity="0.12"/><stop offset="1" stop-color="#020202" stop-opacity="0.35"/></linearGradient><linearGradient id="paint58_linear_10287_77152" x1="198.365" y1="167.283" x2="198.303" y2="174.483" gradientUnits="userSpaceOnUse"><stop stop-color="#020202" stop-opacity="0.35"/><stop offset="0.183162" stop-color="#020202" stop-opacity="0.12"/><stop offset="0.350848" stop-color="white" stop-opacity="0.08"/><stop offset="0.498292" stop-color="white" stop-opacity="0.25"/><stop offset="0.648246" stop-color="white" stop-opacity="0.08"/><stop offset="0.823183" stop-color="#020202" stop-opacity="0.12"/><stop offset="1" stop-color="#020202" stop-opacity="0.35"/></linearGradient><linearGradient id="paint59_linear_10287_77152" x1="234.459" y1="148.383" x2="234.246" y2="193.386" gradientUnits="userSpaceOnUse"><stop stop-color="#020202" stop-opacity="0.35"/><stop offset="0.183162" stop-color="#020202" stop-opacity="0.12"/><stop offset="0.350848" stop-color="white" stop-opacity="0.08"/><stop offset="0.498292" stop-color="white" stop-opacity="0.25"/><stop offset="0.648246" stop-color="white" stop-opacity="0.08"/><stop offset="0.823183" stop-color="#020202" stop-opacity="0.12"/><stop offset="1" stop-color="#020202" stop-opacity="0.35"/></linearGradient><linearGradient id="paint60_linear_10287_77152" x1="249.447" y1="151.597" x2="249.447" y2="148.383" gradientUnits="userSpaceOnUse"><stop stop-color="#D9D9D9" stop-opacity="0"/><stop offset="1" stop-color="#0C0C0C" stop-opacity="0.8"/></linearGradient><linearGradient id="paint61_linear_10287_77152" x1="249.447" y1="154.812" x2="249.447" y2="151.598" gradientUnits="userSpaceOnUse"><stop stop-color="#D9D9D9" stop-opacity="0"/><stop offset="1" stop-color="#0C0C0C" stop-opacity="0.8"/></linearGradient><linearGradient id="paint62_linear_10287_77152" x1="249.447" y1="158.025" x2="249.447" y2="154.811" gradientUnits="userSpaceOnUse"><stop stop-color="#D9D9D9" stop-opacity="0"/><stop offset="1" stop-color="#0C0C0C" stop-opacity="0.8"/></linearGradient><linearGradient id="paint63_linear_10287_77152" x1="249.447" y1="161.24" x2="249.447" y2="158.025" gradientUnits="userSpaceOnUse"><stop stop-color="#D9D9D9" stop-opacity="0"/><stop offset="1" stop-color="#0C0C0C" stop-opacity="0.8"/></linearGradient><linearGradient id="paint64_linear_10287_77152" x1="249.447" y1="164.455" x2="249.447" y2="161.24" gradientUnits="userSpaceOnUse"><stop stop-color="#D9D9D9" stop-opacity="0"/><stop offset="1" stop-color="#0C0C0C" stop-opacity="0.8"/></linearGradient><linearGradient id="paint65_linear_10287_77152" x1="249.447" y1="167.669" x2="249.447" y2="164.455" gradientUnits="userSpaceOnUse"><stop stop-color="#D9D9D9" stop-opacity="0"/><stop offset="1" stop-color="#0C0C0C" stop-opacity="0.8"/></linearGradient><linearGradient id="paint66_linear_10287_77152" x1="249.447" y1="170.882" x2="249.447" y2="167.668" gradientUnits="userSpaceOnUse"><stop stop-color="#D9D9D9" stop-opacity="0"/><stop offset="1" stop-color="#0C0C0C" stop-opacity="0.8"/></linearGradient><linearGradient id="paint67_linear_10287_77152" x1="249.447" y1="174.097" x2="249.447" y2="170.883" gradientUnits="userSpaceOnUse"><stop stop-color="#D9D9D9" stop-opacity="0"/><stop offset="1" stop-color="#0C0C0C" stop-opacity="0.8"/></linearGradient><linearGradient id="paint68_linear_10287_77152" x1="249.447" y1="177.312" x2="249.447" y2="174.098" gradientUnits="userSpaceOnUse"><stop stop-color="#D9D9D9" stop-opacity="0"/><stop offset="1" stop-color="#0C0C0C" stop-opacity="0.8"/></linearGradient><linearGradient id="paint69_linear_10287_77152" x1="249.447" y1="180.525" x2="249.447" y2="177.311" gradientUnits="userSpaceOnUse"><stop stop-color="#D9D9D9" stop-opacity="0"/><stop offset="1" stop-color="#0C0C0C" stop-opacity="0.8"/></linearGradient><linearGradient id="paint70_linear_10287_77152" x1="249.447" y1="183.74" x2="249.447" y2="180.525" gradientUnits="userSpaceOnUse"><stop stop-color="#D9D9D9" stop-opacity="0"/><stop offset="1" stop-color="#0C0C0C" stop-opacity="0.8"/></linearGradient><linearGradient id="paint71_linear_10287_77152" x1="249.447" y1="186.955" x2="249.447" y2="183.74" gradientUnits="userSpaceOnUse"><stop stop-color="#D9D9D9" stop-opacity="0"/><stop offset="1" stop-color="#0C0C0C" stop-opacity="0.8"/></linearGradient><linearGradient id="paint72_linear_10287_77152" x1="249.447" y1="190.169" x2="249.447" y2="186.955" gradientUnits="userSpaceOnUse"><stop stop-color="#D9D9D9" stop-opacity="0"/><stop offset="1" stop-color="#0C0C0C" stop-opacity="0.8"/></linearGradient><linearGradient id="paint73_linear_10287_77152" x1="249.447" y1="193.382" x2="249.447" y2="190.168" gradientUnits="userSpaceOnUse"><stop stop-color="#D9D9D9" stop-opacity="0"/><stop offset="1" stop-color="#0C0C0C" stop-opacity="0.8"/></linearGradient><linearGradient id="paint74_linear_10287_77152" x1="206.579" y1="148.383" x2="205.812" y2="193.373" gradientUnits="userSpaceOnUse"><stop stop-color="#020202" stop-opacity="0.35"/><stop offset="0.183162" stop-color="#020202" stop-opacity="0.12"/><stop offset="0.350848" stop-color="white" stop-opacity="0.08"/><stop offset="0.498292" stop-color="white" stop-opacity="0.25"/><stop offset="0.648246" stop-color="white" stop-opacity="0.08"/><stop offset="0.823183" stop-color="#020202" stop-opacity="0.12"/><stop offset="1" stop-color="#020202" stop-opacity="0.35"/></linearGradient><linearGradient id="paint75_linear_10287_77152" x1="208.337" y1="160.682" x2="210.037" y2="162.67" gradientUnits="userSpaceOnUse"><stop stop-color="white" stop-opacity="0.35"/><stop offset="1" stop-color="#020202" stop-opacity="0.15"/></linearGradient><linearGradient id="paint76_linear_10287_77152" x1="208.337" y1="179.282" x2="210.037" y2="181.27" gradientUnits="userSpaceOnUse"><stop stop-color="white" stop-opacity="0.35"/><stop offset="1" stop-color="#020202" stop-opacity="0.15"/></linearGradient><linearGradient id="paint77_linear_10287_77152" x1="218.898" y1="207.227" x2="231.948" y2="207.387" gradientUnits="userSpaceOnUse"><stop stop-color="white" stop-opacity="0.35"/><stop offset="0.183162" stop-color="white" stop-opacity="0.12"/><stop offset="0.350848" stop-color="#020202" stop-opacity="0.08"/><stop offset="0.498292" stop-color="#020202" stop-opacity="0.133333"/><stop offset="0.648246" stop-color="#020202" stop-opacity="0.08"/><stop offset="0.823183" stop-color="white" stop-opacity="0.12"/><stop offset="1" stop-color="white" stop-opacity="0.35"/></linearGradient><linearGradient id="paint78_linear_10287_77152" x1="269.857" y1="208.982" x2="269.701" y2="221.882" gradientUnits="userSpaceOnUse"><stop stop-color="white" stop-opacity="0.35"/><stop offset="0.183162" stop-color="white" stop-opacity="0.12"/><stop offset="0.350848" stop-color="#020202" stop-opacity="0.08"/><stop offset="0.498292" stop-color="#020202" stop-opacity="0.133333"/><stop offset="0.648246" stop-color="#020202" stop-opacity="0.08"/><stop offset="0.823183" stop-color="white" stop-opacity="0.12"/><stop offset="1" stop-color="white" stop-opacity="0.35"/></linearGradient><linearGradient id="paint79_linear_10287_77152" x1="289.659" y1="172.449" x2="289.628" y2="169.235" gradientUnits="userSpaceOnUse"><stop stop-color="#020202" stop-opacity="0.35"/><stop offset="0.183162" stop-color="#020202" stop-opacity="0.12"/><stop offset="0.350848" stop-color="white" stop-opacity="0.08"/><stop offset="0.498292" stop-color="white" stop-opacity="0.25"/><stop offset="0.648246" stop-color="white" stop-opacity="0.08"/><stop offset="0.823183" stop-color="#020202" stop-opacity="0.12"/><stop offset="1" stop-color="#020202" stop-opacity="0.35"/></linearGradient><linearGradient id="paint80_linear_10287_77152" x1="289.659" y1="158.047" x2="289.628" y2="154.833" gradientUnits="userSpaceOnUse"><stop stop-color="#020202" stop-opacity="0.35"/><stop offset="0.183162" stop-color="#020202" stop-opacity="0.12"/><stop offset="0.350848" stop-color="white" stop-opacity="0.08"/><stop offset="0.498292" stop-color="white" stop-opacity="0.25"/><stop offset="0.648246" stop-color="white" stop-opacity="0.08"/><stop offset="0.823183" stop-color="#020202" stop-opacity="0.12"/><stop offset="1" stop-color="#020202" stop-opacity="0.35"/></linearGradient><linearGradient id="paint81_linear_10287_77152" x1="289.659" y1="186.996" x2="289.628" y2="183.782" gradientUnits="userSpaceOnUse"><stop stop-color="#020202" stop-opacity="0.35"/><stop offset="0.183162" stop-color="#020202" stop-opacity="0.12"/><stop offset="0.350848" stop-color="white" stop-opacity="0.08"/><stop offset="0.498292" stop-color="white" stop-opacity="0.25"/><stop offset="0.648246" stop-color="white" stop-opacity="0.08"/><stop offset="0.823183" stop-color="#020202" stop-opacity="0.12"/><stop offset="1" stop-color="#020202" stop-opacity="0.35"/></linearGradient><linearGradient id="paint82_linear_10287_77152" x1="312.202" y1="211.232" x2="221.368" y2="238.217" gradientUnits="userSpaceOnUse"><stop stop-color="#020202" stop-opacity="0.35"/><stop offset="0.183162" stop-color="#020202" stop-opacity="0.12"/><stop offset="0.350848" stop-color="white" stop-opacity="0.08"/><stop offset="0.498292" stop-color="white" stop-opacity="0.25"/><stop offset="0.648246" stop-color="white" stop-opacity="0.08"/><stop offset="0.823183" stop-color="#020202" stop-opacity="0.12"/><stop offset="1" stop-color="#020202" stop-opacity="0.35"/></linearGradient><linearGradient id="paint83_linear_10287_77152" x1="285.348" y1="200.857" x2="220.647" y2="222.137" gradientUnits="userSpaceOnUse"><stop stop-color="#020202" stop-opacity="0.35"/><stop offset="0.183162" stop-color="#020202" stop-opacity="0.12"/><stop offset="0.350848" stop-color="white" stop-opacity="0.08"/><stop offset="0.498292" stop-color="white" stop-opacity="0.25"/><stop offset="0.648246" stop-color="white" stop-opacity="0.08"/><stop offset="0.823183" stop-color="#020202" stop-opacity="0.12"/><stop offset="1" stop-color="#020202" stop-opacity="0.35"/></linearGradient><linearGradient id="paint84_linear_10287_77152" x1="227.736" y1="198.567" x2="268.835" y2="202.28" gradientUnits="userSpaceOnUse"><stop stop-color="#020202" stop-opacity="0.35"/><stop offset="0.183162" stop-color="#020202" stop-opacity="0.12"/><stop offset="0.350848" stop-color="white" stop-opacity="0.08"/><stop offset="0.498292" stop-color="white" stop-opacity="0.25"/><stop offset="0.648246" stop-color="white" stop-opacity="0.08"/><stop offset="0.823183" stop-color="#020202" stop-opacity="0.12"/><stop offset="1" stop-color="#020202" stop-opacity="0.35"/></linearGradient><linearGradient id="paint85_linear_10287_77152" x1="273.051" y1="208.47" x2="276.265" y2="208.501" gradientUnits="userSpaceOnUse"><stop stop-color="#020202" stop-opacity="0.35"/><stop offset="0.183162" stop-color="#020202" stop-opacity="0.12"/><stop offset="0.350848" stop-color="white" stop-opacity="0.08"/><stop offset="0.498292" stop-color="white" stop-opacity="0.25"/><stop offset="0.648246" stop-color="white" stop-opacity="0.08"/><stop offset="0.823183" stop-color="#020202" stop-opacity="0.12"/><stop offset="1" stop-color="#020202" stop-opacity="0.35"/></linearGradient><linearGradient id="paint86_linear_10287_77152" x1="223.699" y1="208.47" x2="226.913" y2="208.501" gradientUnits="userSpaceOnUse"><stop stop-color="#020202" stop-opacity="0.35"/><stop offset="0.183162" stop-color="#020202" stop-opacity="0.12"/><stop offset="0.350848" stop-color="white" stop-opacity="0.08"/><stop offset="0.498292" stop-color="white" stop-opacity="0.25"/><stop offset="0.648246" stop-color="white" stop-opacity="0.08"/><stop offset="0.823183" stop-color="#020202" stop-opacity="0.12"/><stop offset="1" stop-color="#020202" stop-opacity="0.35"/></linearGradient><linearGradient id="paint87_linear_10287_77152" x1="300.199" y1="208.318" x2="303.413" y2="208.348" gradientUnits="userSpaceOnUse"><stop stop-color="#020202" stop-opacity="0.35"/><stop offset="0.183162" stop-color="#020202" stop-opacity="0.12"/><stop offset="0.350848" stop-color="white" stop-opacity="0.08"/><stop offset="0.498292" stop-color="white" stop-opacity="0.25"/><stop offset="0.648246" stop-color="white" stop-opacity="0.08"/><stop offset="0.823183" stop-color="#020202" stop-opacity="0.12"/><stop offset="1" stop-color="#020202" stop-opacity="0.35"/></linearGradient><linearGradient id="paint88_linear_10287_77152" x1="37.1388" y1="266.292" x2="40.324" y2="282.571" gradientUnits="userSpaceOnUse"><stop stop-color="#727171" stop-opacity="0.2"/><stop offset="1" stop-color="#727171"/></linearGradient><linearGradient id="paint89_linear_10287_77152" x1="119.248" y1="247.928" x2="41.4619" y2="245.949" gradientUnits="userSpaceOnUse"><stop stop-color="#727171"/><stop offset="0.263882" stop-color="#727171" stop-opacity="0.35"/><stop offset="0.417594" stop-color="#727171" stop-opacity="0.1"/><stop offset="0.498292" stop-color="white" stop-opacity="0"/><stop offset="0.580942" stop-color="#727171" stop-opacity="0.1"/><stop offset="0.718554" stop-color="#727171" stop-opacity="0.35"/><stop offset="1" stop-color="#727171"/></linearGradient><linearGradient id="paint90_linear_10287_77152" x1="94.9206" y1="169.307" x2="94.8676" y2="191.028" gradientUnits="userSpaceOnUse"><stop stop-color="#727171"/><stop offset="0.263882" stop-color="#727171" stop-opacity="0.35"/><stop offset="0.417594" stop-color="#727171" stop-opacity="0.1"/><stop offset="0.498292" stop-color="white" stop-opacity="0"/><stop offset="0.580942" stop-color="#727171" stop-opacity="0.1"/><stop offset="0.718554" stop-color="#727171" stop-opacity="0.35"/><stop offset="1" stop-color="#727171"/></linearGradient><linearGradient id="paint91_linear_10287_77152" x1="38.8113" y1="229.643" x2="38.7582" y2="251.364" gradientUnits="userSpaceOnUse"><stop stop-color="#727171"/><stop offset="0.263882" stop-color="#727171" stop-opacity="0.35"/><stop offset="0.417594" stop-color="#727171" stop-opacity="0.1"/><stop offset="0.498292" stop-color="white" stop-opacity="0"/><stop offset="0.580942" stop-color="#727171" stop-opacity="0.1"/><stop offset="0.718554" stop-color="#727171" stop-opacity="0.35"/><stop offset="1" stop-color="#727171"/></linearGradient><linearGradient id="paint92_linear_10287_77152" x1="44.0881" y1="165.838" x2="119.263" y2="247.726" gradientUnits="userSpaceOnUse"><stop stop-color="#727171" stop-opacity="0.4"/><stop offset="1" stop-color="#727171"/></linearGradient><radialGradient id="paint93_radial_10287_77152" cx="0" cy="0" r="1" gradientUnits="userSpaceOnUse" gradientTransform="translate(80.3338 206.111) rotate(55.8565) scale(31.7111)"><stop stop-color="#020202" stop-opacity="0"/><stop offset="0.733469" stop-color="white" stop-opacity="0.15"/><stop offset="1" stop-color="#020202" stop-opacity="0.2"/></radialGradient><radialGradient id="paint94_radial_10287_77152" cx="0" cy="0" r="1" gradientUnits="userSpaceOnUse" gradientTransform="translate(80.3329 206.112) rotate(44.2258) scale(15.7864)"><stop stop-color="white" stop-opacity="0.35"/><stop offset="1" stop-color="#020202" stop-opacity="0.15"/></radialGradient><linearGradient id="paint95_linear_10287_77152" x1="80.3531" y1="174.436" x2="84.116" y2="175.419" gradientUnits="userSpaceOnUse"><stop stop-color="white"/><stop offset="1" stop-color="#727171" stop-opacity="0.65"/></linearGradient><linearGradient id="paint96_linear_10287_77152" x1="58.0288" y1="184.891" x2="61.7918" y2="185.874" gradientUnits="userSpaceOnUse"><stop stop-color="white"/><stop offset="1" stop-color="#727171" stop-opacity="0.65"/></linearGradient><linearGradient id="paint97_linear_10287_77152" x1="1.22414" y1="3.4884e-05" x2="4.98707" y2="0.983218" gradientUnits="userSpaceOnUse"><stop stop-color="white"/><stop offset="1" stop-color="#727171" stop-opacity="0.65"/></linearGradient><linearGradient id="paint98_linear_10287_77152" x1="1.22414" y1="3.4884e-05" x2="4.98707" y2="0.983218" gradientUnits="userSpaceOnUse"><stop stop-color="white"/><stop offset="1" stop-color="#727171" stop-opacity="0.65"/></linearGradient><linearGradient id="paint99_linear_10287_77152" x1="105.005" y1="227.248" x2="108.768" y2="228.231" gradientUnits="userSpaceOnUse"><stop stop-color="white"/><stop offset="1" stop-color="#727171" stop-opacity="0.65"/></linearGradient><linearGradient id="paint100_linear_10287_77152" x1="80.3531" y1="222.4" x2="84.116" y2="223.384" gradientUnits="userSpaceOnUse"><stop stop-color="#727171" stop-opacity="0.65"/><stop offset="1" stop-color="white"/></linearGradient><linearGradient id="paint101_linear_10287_77152" x1="97.8491" y1="207.318" x2="101.612" y2="208.302" gradientUnits="userSpaceOnUse"><stop stop-color="#727171" stop-opacity="0.65"/><stop offset="1" stop-color="white"/></linearGradient><linearGradient id="paint102_linear_10287_77152" x1="49.8843" y1="207.318" x2="53.6472" y2="208.302" gradientUnits="userSpaceOnUse"><stop stop-color="white"/><stop offset="1" stop-color="#727171" stop-opacity="0.65"/></linearGradient><linearGradient id="paint103_linear_10287_77152" x1="45.9453" y1="206.111" x2="114.725" y2="206.111" gradientUnits="userSpaceOnUse"><stop stop-color="#F4F4F4"/><stop offset="1" stop-color="#EBE7E7"/></linearGradient><linearGradient id="paint104_linear_10287_77152" x1="45.9453" y1="206.113" x2="114.725" y2="206.113" gradientUnits="userSpaceOnUse"><stop stop-color="#F4F4F4"/><stop offset="1" stop-color="#EBE7E7"/></linearGradient><linearGradient id="paint105_linear_10287_77152" x1="77.7539" y1="159.656" x2="82.3124" y2="164.985" gradientUnits="userSpaceOnUse"><stop stop-color="white" stop-opacity="0.35"/><stop offset="1" stop-color="#020202" stop-opacity="0.15"/></linearGradient><linearGradient id="paint106_linear_10287_77152" x1="77.7539" y1="247.744" x2="82.3124" y2="253.073" gradientUnits="userSpaceOnUse"><stop stop-color="white" stop-opacity="0.35"/><stop offset="1" stop-color="#020202" stop-opacity="0.15"/></linearGradient><linearGradient id="paint107_linear_10287_77152" x1="121.797" y1="203.699" x2="126.355" y2="209.028" gradientUnits="userSpaceOnUse"><stop stop-color="white" stop-opacity="0.35"/><stop offset="1" stop-color="#020202" stop-opacity="0.15"/></linearGradient><linearGradient id="paint108_linear_10287_77152" x1="109.43" y1="172.929" x2="113.988" y2="178.259" gradientUnits="userSpaceOnUse"><stop stop-color="white" stop-opacity="0.35"/><stop offset="1" stop-color="#020202" stop-opacity="0.15"/></linearGradient><linearGradient id="paint109_linear_10287_77152" x1="108.828" y1="234.168" x2="113.387" y2="239.497" gradientUnits="userSpaceOnUse"><stop stop-color="white" stop-opacity="0.35"/><stop offset="1" stop-color="#020202" stop-opacity="0.15"/></linearGradient><linearGradient id="paint110_linear_10287_77152" x1="46.9844" y1="172.929" x2="51.5429" y2="178.259" gradientUnits="userSpaceOnUse"><stop stop-color="white" stop-opacity="0.35"/><stop offset="1" stop-color="#020202" stop-opacity="0.15"/></linearGradient><linearGradient id="paint111_linear_10287_77152" x1="46.9844" y1="234.168" x2="51.5429" y2="239.497" gradientUnits="userSpaceOnUse"><stop stop-color="white" stop-opacity="0.35"/><stop offset="1" stop-color="#020202" stop-opacity="0.15"/></linearGradient><linearGradient id="paint112_linear_10287_77152" x1="33.7109" y1="203.699" x2="38.2695" y2="209.028" gradientUnits="userSpaceOnUse"><stop stop-color="white" stop-opacity="0.35"/><stop offset="1" stop-color="#020202" stop-opacity="0.15"/></linearGradient></defs></svg>