<svg width="337" height="291" fill="none" xmlns="http://www.w3.org/2000/svg"><rect x="83" y=".316" width="160" height="160" rx="40" fill="#E4EFFD"/><rect x="177.75" y="100.613" width="158.5" height="158.5" rx="39.25" fill="#F4F8FE" stroke="#3E9AF8" stroke-width="1.5"/><path d="m252.199 178.513-6.3-3.6v7.2l6.3-3.6Z" fill="#666"/><path d="M245.838 125.689v.377c0 .448-.056.85-.168 1.206a2.601 2.601 0 0 1-.484.906 2.101 2.101 0 0 1-.759.57 2.37 2.37 0 0 1-.984.197c-.353 0-.677-.065-.972-.197a2.176 2.176 0 0 1-.763-.57 2.656 2.656 0 0 1-.497-.906 3.853 3.853 0 0 1-.176-1.206v-.377c0-.449.057-.849.172-1.202.118-.356.283-.658.497-.907.213-.251.466-.443.758-.574.296-.131.62-.197.972-.197.364 0 .692.066.985.197.295.131.548.323.759.574.213.249.376.551.488.907.114.353.172.753.172 1.202Zm-.784.377v-.386c0-.355-.036-.669-.11-.943a1.966 1.966 0 0 0-.316-.689 1.354 1.354 0 0 0-.513-.422 1.548 1.548 0 0 0-.681-.144 1.405 1.405 0 0 0-1.177.566 2.087 2.087 0 0 0-.324.689 3.534 3.534 0 0 0-.115.943v.386c0 .358.039.675.115.952.077.273.186.504.328.693.145.186.316.326.513.422.2.096.422.144.669.144.257 0 .485-.048.685-.144.199-.096.367-.236.504-.422.139-.189.245-.42.316-.693.071-.277.106-.594.106-.952Zm4.754 1.772v-3.413h.763v4.438h-.726l-.037-1.025Zm.143-.935.316-.008c0 .295-.031.568-.094.82-.06.249-.159.465-.296.648a1.39 1.39 0 0 1-.537.431 1.94 1.94 0 0 1-.808.151c-.216 0-.414-.031-.595-.094a1.192 1.192 0 0 1-.459-.291 1.314 1.314 0 0 1-.299-.513 2.448 2.448 0 0 1-.103-.759v-2.863h.759v2.871c0 .2.022.366.065.497a.822.822 0 0 0 .185.307.682.682 0 0 0 .262.156c.099.03.2.045.304.045.323 0 .578-.061.767-.184a1.05 1.05 0 0 0 .406-.505 1.9 1.9 0 0 0 .127-.709Zm3.818-2.478v.583h-2.399v-.583h2.399Zm-1.587-1.078h.759v4.417c0 .15.023.264.069.34a.332.332 0 0 0 .181.152.737.737 0 0 0 .238.037c.063 0 .128-.005.197-.016l.16-.033.004.619c-.06.019-.14.037-.238.054a1.83 1.83 0 0 1-.349.028c-.186 0-.357-.037-.513-.11a.828.828 0 0 1-.373-.37c-.09-.175-.135-.41-.135-.705v-4.413Zm5.459 4.655v-5.439h.762v6.3h-.697l-.065-.861Zm-2.986-1.308v-.087c0-.339.041-.646.123-.922.084-.279.203-.519.356-.718.156-.2.341-.353.554-.46a1.58 1.58 0 0 1 .722-.164c.279 0 .522.05.73.148.211.096.388.237.533.422.148.184.264.405.349.665.085.26.144.554.176.882v.377c-.03.325-.089.618-.176.878-.085.26-.201.481-.349.664a1.465 1.465 0 0 1-.533.423c-.21.095-.456.143-.738.143-.26 0-.498-.056-.714-.168a1.682 1.682 0 0 1-.554-.472 2.28 2.28 0 0 1-.356-.713 3.144 3.144 0 0 1-.123-.898Zm.762-.087v.087c0 .221.022.429.066.623.047.194.118.365.213.513.096.147.218.264.365.348.148.082.324.123.53.123.251 0 .458-.053.619-.16.164-.106.295-.247.394-.422.098-.175.175-.365.229-.57v-.989a2.185 2.185 0 0 0-.143-.434 1.346 1.346 0 0 0-.238-.378 1.026 1.026 0 0 0-.357-.266 1.149 1.149 0 0 0-.496-.099c-.208 0-.387.044-.538.131a1.061 1.061 0 0 0-.365.353c-.095.148-.166.32-.213.517a2.814 2.814 0 0 0-.066.623Zm4.151.087v-.095c0-.32.046-.616.139-.89.093-.276.227-.515.402-.718a1.79 1.79 0 0 1 .636-.475c.249-.115.528-.173.837-.173.311 0 .592.058.84.173.252.112.465.27.64.475.178.203.313.442.406.718.093.274.14.57.14.89v.095c0 .319-.047.616-.14.89a2.125 2.125 0 0 1-.406.717 1.86 1.86 0 0 1-.635.476 2.002 2.002 0 0 1-.837.168c-.312 0-.592-.056-.841-.168a1.898 1.898 0 0 1-.64-.476 2.169 2.169 0 0 1-.402-.717 2.754 2.754 0 0 1-.139-.89Zm.759-.095v.095c0 .221.025.43.077.627.052.194.13.366.234.517.107.15.239.269.398.357.159.084.343.127.554.127.208 0 .389-.043.545-.127.159-.088.29-.207.394-.357a1.66 1.66 0 0 0 .234-.517c.055-.197.082-.406.082-.627v-.095c0-.219-.027-.425-.082-.619a1.584 1.584 0 0 0-.238-.521 1.135 1.135 0 0 0-.394-.361 1.11 1.11 0 0 0-.549-.131c-.208 0-.391.044-.55.131a1.19 1.19 0 0 0-.394.361c-.104.15-.182.324-.234.521a2.38 2.38 0 0 0-.077.619Zm4.215.095v-.095c0-.32.047-.616.14-.89.093-.276.227-.515.402-.718a1.79 1.79 0 0 1 .636-.475c.248-.115.527-.173.836-.173.312 0 .592.058.841.173.252.112.465.27.64.475.178.203.313.442.406.718.093.274.139.57.139.89v.095c0 .319-.046.616-.139.89a2.125 2.125 0 0 1-.406.717 1.854 1.854 0 0 1-.636.476 1.999 1.999 0 0 1-.837.168c-.311 0-.592-.056-.84-.168a1.898 1.898 0 0 1-.64-.476 2.169 2.169 0 0 1-.402-.717 2.754 2.754 0 0 1-.14-.89Zm.759-.095v.095c0 .221.026.43.078.627.052.194.13.366.234.517.107.15.239.269.398.357.158.084.343.127.553.127.208 0 .39-.043.546-.127.159-.088.29-.207.394-.357.104-.151.182-.323.233-.517.055-.197.083-.406.083-.627v-.095c0-.219-.028-.425-.083-.619a1.583 1.583 0 0 0-.237-.521 1.144 1.144 0 0 0-.394-.361 1.11 1.11 0 0 0-.55-.131 1.12 1.12 0 0 0-.549.131 1.19 1.19 0 0 0-.394.361c-.104.15-.182.324-.234.521a2.38 2.38 0 0 0-.078.619Zm5.176-1.476v3.74h-.759v-4.438h.738l.021.698Zm1.386-.722-.004.705a1.088 1.088 0 0 0-.18-.024 1.761 1.761 0 0 0-.189-.009c-.175 0-.33.028-.464.082a.97.97 0 0 0-.34.23 1.116 1.116 0 0 0-.222.353 1.721 1.721 0 0 0-.102.443l-.213.123c0-.268.026-.52.078-.755.054-.235.138-.443.25-.623.112-.183.254-.326.426-.427a1.2 1.2 0 0 1 .96-.098Z" fill="#000" fill-opacity=".87"/><path fill="#C8DFF7" d="M253.398 134.264h6.298v95.853h-6.298z"/><path stroke="#000" stroke-opacity=".87" stroke-width=".15" d="M253.473 134.339h6.148v95.703h-6.148z"/><path fill="#EBEBEB" d="M253.398 205.271h6.298v24.992h-6.298z"/><path stroke="#000" stroke-opacity=".87" stroke-width=".15" d="M253.473 205.346h6.148v24.842h-6.148z"/><path fill="#EBEBEB" d="M253.398 134.264h6.298v24.992h-6.298z"/><path stroke="#000" stroke-opacity=".87" stroke-width=".15" d="M253.473 134.339h6.148v24.842h-6.148z"/><path fill="#666" d="M253.398 216.887h6.298v13.231h-6.298z"/><path stroke="#000" stroke-opacity=".87" stroke-width=".15" d="M253.473 216.962h6.148v13.081h-6.148z"/><path fill="#666" d="M253.398 134.264h6.298v13.231h-6.298z"/><path stroke="#000" stroke-opacity=".87" stroke-width=".15" d="M253.473 134.339h6.148v13.081h-6.148z"/><path fill="#DEDEDE" d="m253.992 165.279 2.545-2.495 2.545 2.495-2.545 2.495z"/><path transform="scale(1.00991 .98999) rotate(-45 327.49 -220.109)" stroke="#000" stroke-opacity=".87" stroke-width=".3" d="M.214 0h3.264v3.264H.214z"/><path d="M253.431 236.099c0-.139.034-.266.102-.381a.793.793 0 0 1 .273-.276.693.693 0 0 1 .372-.105.68.68 0 0 1 .369.105.773.773 0 0 1 .266 1.037.765.765 0 0 1-.266.273.712.712 0 0 1-.369.1.725.725 0 0 1-.372-.1.784.784 0 0 1-.273-.273.734.734 0 0 1-.102-.38Zm.363 0a.36.36 0 0 0 .111.269.384.384 0 0 0 .273.109.353.353 0 0 0 .263-.109.363.363 0 0 0 .109-.269.377.377 0 0 0-.109-.276.347.347 0 0 0-.263-.111.378.378 0 0 0-.384.387Zm4.751 2.209h.563a1.79 1.79 0 0 1-.232.723 1.349 1.349 0 0 1-.53.507c-.228.123-.514.185-.855.185a1.525 1.525 0 0 1-1.207-.539 1.858 1.858 0 0 1-.34-.624 2.674 2.674 0 0 1-.117-.815v-.425c0-.299.039-.569.117-.811.08-.244.194-.453.343-.627.15-.174.331-.308.542-.402.21-.093.448-.14.711-.14.323 0 .595.06.818.181.223.122.395.29.518.504.125.213.203.46.232.742h-.563a1.557 1.557 0 0 0-.152-.513.79.79 0 0 0-.316-.334c-.137-.078-.316-.117-.537-.117-.189 0-.356.036-.501.108a1.012 1.012 0 0 0-.36.308 1.433 1.433 0 0 0-.217.477 2.471 2.471 0 0 0-.073.618v.431c0 .209.022.405.065.589.044.184.112.345.202.483.09.139.204.248.342.329a.99.99 0 0 0 .493.117c.24 0 .431-.038.574-.115a.745.745 0 0 0 .322-.328c.074-.142.127-.313.158-.512Z" fill="#000" fill-opacity=".87"/><path d="M265.623 180.996v.668h-4.188v-.584l2.096-2.334c.258-.287.457-.53.597-.729.144-.203.244-.383.299-.541a1.42 1.42 0 0 0 .088-.492c0-.211-.044-.401-.132-.571a.984.984 0 0 0-.378-.413 1.132 1.132 0 0 0-.606-.154c-.284 0-.522.055-.712.167-.187.108-.328.26-.422.457-.094.196-.14.422-.14.676h-.813c0-.36.079-.689.237-.988.158-.299.392-.536.703-.712.31-.179.693-.268 1.147-.268.404 0 .75.072 1.037.215.287.141.507.34.659.598.155.255.233.553.233.896 0 .188-.032.378-.097.571a2.892 2.892 0 0 1-.259.572c-.108.19-.236.378-.382.562a8.895 8.895 0 0 1-.462.545l-1.713 1.859h3.208Zm4.174-5.739h.07v.69h-.07c-.431 0-.791.07-1.081.211-.29.137-.52.323-.69.558-.17.231-.293.492-.369.782a3.56 3.56 0 0 0-.11.883v.941c0 .284.034.536.101.756.067.216.16.4.277.549.117.149.249.262.395.338.15.077.305.115.466.115.188 0 .355-.036.501-.106.147-.073.27-.174.369-.303.103-.132.18-.287.233-.466.053-.179.079-.375.079-.589 0-.19-.023-.373-.07-.549a1.483 1.483 0 0 0-.215-.475 1.045 1.045 0 0 0-.365-.329 1.021 1.021 0 0 0-.514-.123c-.226 0-.437.055-.633.167a1.435 1.435 0 0 0-.479.43 1.155 1.155 0 0 0-.211.576l-.431-.004c.041-.329.117-.608.229-.84.114-.234.255-.425.422-.571.17-.149.359-.258.567-.325.21-.071.433-.106.667-.106.32 0 .595.06.827.18.231.121.422.282.571.484.149.199.259.425.33.677.073.249.109.505.109.769 0 .301-.042.584-.127.848a2.005 2.005 0 0 1-.382.694 1.724 1.724 0 0 1-.62.466 2.067 2.067 0 0 1-.857.167c-.346 0-.647-.07-.905-.211a1.947 1.947 0 0 1-.642-.571 2.612 2.612 0 0 1-.382-.791 3.13 3.13 0 0 1-.128-.884v-.382c0-.451.046-.893.137-1.327.09-.434.247-.826.47-1.178.225-.351.537-.631.936-.839.398-.208.907-.312 1.525-.312Z" fill="#002878"/><rect x=".75" y="131.432" width="158.5" height="158.5" rx="39.25" fill="#F4F8FE" stroke="#3E9AF8" stroke-width="1.5"/><path d="M69.291 194.607v.377c0 .448-.056.85-.168 1.206a2.596 2.596 0 0 1-.484.906c-.21.249-.464.439-.759.57-.292.132-.62.197-.984.197-.353 0-.677-.065-.972-.197a2.182 2.182 0 0 1-.763-.57 2.66 2.66 0 0 1-.496-.906 3.835 3.835 0 0 1-.177-1.206v-.377c0-.449.058-.849.172-1.202.118-.356.283-.658.497-.907a2.13 2.13 0 0 1 .758-.574 2.37 2.37 0 0 1 .972-.197c.364 0 .692.066.985.197.295.131.548.323.759.574.213.249.376.551.488.907.115.353.172.753.172 1.202Zm-.783.377v-.386c0-.355-.037-.669-.111-.943a1.96 1.96 0 0 0-.316-.689 1.355 1.355 0 0 0-.513-.422 1.552 1.552 0 0 0-.68-.144c-.247 0-.47.048-.67.144a1.406 1.406 0 0 0-.508.422 2.07 2.07 0 0 0-.324.689 3.514 3.514 0 0 0-.114.943v.386c0 .358.038.675.114.952.077.273.186.504.329.693.144.186.315.326.512.422.2.096.423.144.669.144.257 0 .485-.048.685-.144.2-.096.367-.236.504-.422.14-.189.245-.42.316-.693.071-.277.107-.594.107-.952Zm4.753 1.772v-3.413h.763v4.438h-.726l-.037-1.025Zm.143-.935.316-.009c0 .296-.031.569-.094.821-.06.249-.159.465-.296.648a1.4 1.4 0 0 1-.537.431 1.94 1.94 0 0 1-.808.151c-.216 0-.414-.031-.594-.094a1.192 1.192 0 0 1-.46-.291 1.33 1.33 0 0 1-.3-.513 2.471 2.471 0 0 1-.102-.759v-2.863h.759v2.871c0 .2.022.365.066.497a.82.82 0 0 0 .184.307c.08.074.167.126.263.156.098.03.2.045.303.045.323 0 .579-.061.767-.184.189-.126.324-.294.406-.505.085-.213.127-.45.127-.709Zm3.818-2.478v.583h-2.4v-.583h2.4Zm-1.587-1.078h.759v4.417c0 .15.023.264.07.34a.33.33 0 0 0 .18.152.737.737 0 0 0 .238.037c.063 0 .128-.005.197-.016a6.55 6.55 0 0 0 .16-.033l.004.619c-.06.019-.14.037-.238.054a1.828 1.828 0 0 1-.349.028c-.186 0-.357-.037-.512-.11a.824.824 0 0 1-.374-.37c-.09-.175-.135-.41-.135-.705v-4.413Zm5.459 4.655v-5.439h.763v6.3h-.698l-.065-.861Zm-2.986-1.308v-.087c0-.339.04-.646.123-.922.085-.279.204-.519.357-.718.156-.2.34-.353.553-.46a1.58 1.58 0 0 1 .722-.164c.28 0 .522.05.73.148.21.096.388.237.533.422.148.184.264.405.35.665.084.26.143.554.175.882v.377c-.03.325-.088.618-.176.878-.085.26-.2.481-.349.664a1.47 1.47 0 0 1-.533.423c-.21.095-.456.143-.738.143-.26 0-.498-.056-.714-.168a1.677 1.677 0 0 1-.553-.472 2.295 2.295 0 0 1-.357-.713 3.14 3.14 0 0 1-.123-.898Zm.763-.087v.087c0 .221.022.429.065.623.047.194.118.365.213.513.096.147.218.264.366.348.147.082.324.123.529.123.251 0 .458-.053.619-.16.164-.106.295-.247.394-.422.098-.175.175-.365.23-.57v-.989a2.18 2.18 0 0 0-.144-.434 1.341 1.341 0 0 0-.238-.378 1.021 1.021 0 0 0-.357-.266 1.15 1.15 0 0 0-.496-.099c-.208 0-.387.044-.537.131-.148.085-.27.203-.365.353-.096.148-.167.32-.214.517a2.833 2.833 0 0 0-.065.623Zm4.15.087v-.095c0-.32.046-.616.14-.89.092-.276.226-.515.401-.718.175-.205.387-.363.636-.475.249-.115.528-.173.837-.173.311 0 .592.058.84.173.252.112.465.27.64.475.178.203.314.442.406.718.093.274.14.57.14.89v.095c0 .319-.047.616-.14.89a2.129 2.129 0 0 1-.406.717 1.854 1.854 0 0 1-.635.476 1.998 1.998 0 0 1-.837.168c-.312 0-.592-.056-.84-.168a1.898 1.898 0 0 1-.64-.476 2.168 2.168 0 0 1-.403-.717 2.754 2.754 0 0 1-.14-.89Zm.759-.095v.095c0 .221.026.43.078.627.051.194.13.366.233.517.107.15.24.269.398.357.159.084.343.127.554.127.208 0 .39-.043.545-.127.159-.088.29-.207.394-.357.104-.151.182-.323.234-.517.055-.197.082-.406.082-.627v-.095c0-.219-.027-.425-.082-.619a1.592 1.592 0 0 0-.238-.521 1.137 1.137 0 0 0-.394-.361 1.11 1.11 0 0 0-.55-.131c-.207 0-.39.044-.549.131a1.187 1.187 0 0 0-.394.361c-.104.15-.181.324-.233.521a2.38 2.38 0 0 0-.078.619Zm4.216.095v-.095c0-.32.046-.616.139-.89.093-.276.227-.515.402-.718.175-.205.387-.363.636-.475.248-.115.527-.173.836-.173.312 0 .592.058.841.173.252.112.465.27.64.475.178.203.313.442.406.718.093.274.14.57.14.89v.095c0 .319-.047.616-.14.89a2.129 2.129 0 0 1-.406.717 1.855 1.855 0 0 1-.636.476 1.998 1.998 0 0 1-.836.168c-.312 0-.592-.056-.841-.168a1.896 1.896 0 0 1-.64-.476 2.169 2.169 0 0 1-.402-.717 2.756 2.756 0 0 1-.14-.89Zm.758-.095v.095c0 .221.026.43.078.627.052.194.13.366.234.517.107.15.24.269.398.357.158.084.343.127.554.127.207 0 .39-.043.545-.127.159-.088.29-.207.394-.357.104-.151.182-.323.234-.517.054-.197.082-.406.082-.627v-.095a2.27 2.27 0 0 0-.082-.619 1.59 1.59 0 0 0-.238-.521 1.136 1.136 0 0 0-.394-.361 1.11 1.11 0 0 0-.55-.131c-.207 0-.39.044-.55.131a1.187 1.187 0 0 0-.393.361c-.104.15-.182.324-.234.521-.052.194-.078.4-.078.619Zm5.176-1.476v3.74h-.759v-4.438h.738l.02.698Zm1.386-.722-.004.705a1.086 1.086 0 0 0-.18-.024 1.75 1.75 0 0 0-.189-.009c-.175 0-.33.028-.463.082a.97.97 0 0 0-.34.23 1.11 1.11 0 0 0-.222.353 1.687 1.687 0 0 0-.103.443l-.213.123c0-.268.026-.52.078-.755.054-.235.138-.443.25-.623.112-.183.254-.326.426-.427a1.198 1.198 0 0 1 .96-.098Z" fill="#000" fill-opacity=".87"/><path d="m75.35 207.682 3.6-6.3h-7.2l3.6 6.3Z" fill="#666"/><path fill="#C8DFF7" d="M128 208.281v6.3H32v-6.3z"/><path stroke="#000" stroke-opacity=".87" stroke-width=".15" d="M127.925 208.356v6.15h-95.85v-6.15z"/><path fill="#C8DFF7" d="M32.133 214.582v-6.3H128v6.3z"/><path stroke="#000" stroke-opacity=".87" stroke-width=".15" d="M32.208 214.507v-6.15h95.717v6.15z"/><path fill="#EBEBEB" d="M32 214.582v-6.3h22.51v6.3z"/><path stroke="#000" stroke-opacity=".87" stroke-width=".15" d="M32.075 214.507v-6.15h22.36v6.15z"/><path fill="#666" d="M32 214.582v-6.3h11.917v6.3z"/><path stroke="#000" stroke-opacity=".87" stroke-width=".15" d="M32.075 214.507v-6.15h11.767v6.15z"/><path fill="#DEDEDE" d="m100.066 208.881 2.247 2.546-2.247 2.546-2.247-2.546z"/><path transform="scale(.93592 1.06022) rotate(45 -184.346 227.788)" stroke="#000" stroke-opacity=".87" stroke-width=".3" d="M0 .225h3.096v3.096H0z"/><path fill="#EBEBEB" d="M105.488 214.582v-6.3h22.51v6.3z"/><path stroke="#000" stroke-opacity=".87" stroke-width=".15" d="M105.563 214.507v-6.15h22.36v6.15z"/><path fill="#666" d="M116.082 214.582v-6.3h11.917v6.3z"/><path stroke="#000" stroke-opacity=".87" stroke-width=".15" d="M116.157 214.507v-6.15h11.767v6.15z"/><path d="M74.673 223.514v.668h-4.188v-.585l2.097-2.333c.257-.287.457-.531.597-.73.144-.202.243-.382.299-.54.059-.161.088-.326.088-.493 0-.21-.044-.401-.132-.571a.99.99 0 0 0-.378-.413 1.142 1.142 0 0 0-.606-.154c-.285 0-.522.056-.712.167a1.032 1.032 0 0 0-.422.457c-.094.197-.14.422-.14.677h-.814c0-.36.08-.69.238-.989a1.75 1.75 0 0 1 .703-.712c.31-.178.693-.268 1.147-.268.404 0 .75.072 1.037.216.287.14.507.339.659.597.155.255.233.554.233.897 0 .187-.032.378-.097.571a2.866 2.866 0 0 1-.26.571 4.42 4.42 0 0 1-.381.563 8.97 8.97 0 0 1-.462.545l-1.714 1.859h3.208Zm4.175-5.74h.07v.69h-.07c-.431 0-.791.071-1.082.211-.29.138-.52.324-.69.558a2.3 2.3 0 0 0-.368.783c-.074.29-.11.584-.11.883v.94c0 .285.033.536.1.756.068.217.16.4.278.55.117.149.249.262.395.338.15.076.305.114.466.114.187 0 .354-.035.5-.105.147-.074.27-.175.37-.304.103-.131.18-.287.233-.465.053-.179.079-.375.079-.589a2.13 2.13 0 0 0-.07-.55 1.47 1.47 0 0 0-.216-.474 1.03 1.03 0 0 0-.879-.453c-.225 0-.436.056-.632.167a1.444 1.444 0 0 0-.48.431 1.161 1.161 0 0 0-.21.576l-.431-.005c.041-.328.117-.608.228-.839.115-.235.255-.425.422-.571a1.6 1.6 0 0 1 .567-.326c.211-.07.434-.105.668-.105.32 0 .595.06.826.18.232.12.422.281.572.483.15.2.259.425.33.677.073.249.11.506.11.769 0 .302-.043.585-.128.848a2.002 2.002 0 0 1-.383.695 1.733 1.733 0 0 1-.62.466 2.066 2.066 0 0 1-.856.167c-.346 0-.648-.071-.905-.211a1.938 1.938 0 0 1-.642-.572 2.602 2.602 0 0 1-.382-.791 3.122 3.122 0 0 1-.128-.883v-.382c0-.452.046-.894.136-1.327.091-.434.248-.827.47-1.178.226-.352.538-.632.937-.84.398-.208.906-.312 1.525-.312Z" fill="#002878"/><path d="M76.884 231.216c0-.139.034-.266.102-.381a.781.781 0 0 1 .273-.275.687.687 0 0 1 .372-.106c.135 0 .258.035.369.106a.765.765 0 0 1 .366.656.754.754 0 0 1-.366.653.702.702 0 0 1-.37.1.717.717 0 0 1-.371-.1.79.79 0 0 1-.273-.272.737.737 0 0 1-.102-.381Zm.363 0a.36.36 0 0 0 .111.269.38.38 0 0 0 .273.109.35.35 0 0 0 .263-.109.365.365 0 0 0 .109-.269.38.38 0 0 0-.109-.276.349.349 0 0 0-.263-.111.378.378 0 0 0-.384.387ZM82 233.425h.562a1.79 1.79 0 0 1-.232.723 1.353 1.353 0 0 1-.53.507c-.228.123-.513.185-.855.185-.25 0-.478-.047-.683-.141a1.516 1.516 0 0 1-.524-.398 1.868 1.868 0 0 1-.34-.624 2.666 2.666 0 0 1-.117-.815v-.424c0-.299.039-.57.117-.812.08-.244.194-.453.343-.627.15-.174.33-.308.542-.401a1.73 1.73 0 0 1 .712-.141c.322 0 .594.061.817.182a1.3 1.3 0 0 1 .518.504c.126.212.203.46.232.741h-.563a1.576 1.576 0 0 0-.152-.513.794.794 0 0 0-.316-.334c-.137-.078-.316-.117-.536-.117-.19 0-.357.036-.501.108a1.015 1.015 0 0 0-.36.308 1.435 1.435 0 0 0-.218.477 2.432 2.432 0 0 0-.073.619v.43c0 .209.022.406.065.589.045.184.112.345.202.484.09.138.204.248.343.328a.988.988 0 0 0 .492.117c.24 0 .431-.038.574-.114a.754.754 0 0 0 .322-.328c.075-.143.127-.314.159-.513Z" fill="#000" fill-opacity=".87"/></svg>