<svg width="337" height="291" viewBox="0 0 337 291" fill="none" xmlns="http://www.w3.org/2000/svg">
<rect x="83" y="0.316406" width="160" height="160" rx="40" fill="#E4EFFD"/>
<rect x="177.75" y="100.613" width="158.5" height="158.5" rx="39.25" fill="#F4F8FE" stroke="#3E9AF8" stroke-width="1.5"/>
<path d="M252.199 178.513L245.899 174.913V182.113L252.199 178.513Z" fill="#666666"/>
<path d="M245.838 125.689V126.066C245.838 126.514 245.782 126.916 245.67 127.272C245.558 127.627 245.396 127.929 245.186 128.178C244.975 128.427 244.722 128.617 244.427 128.748C244.134 128.88 243.806 128.945 243.443 128.945C243.09 128.945 242.766 128.88 242.471 128.748C242.178 128.617 241.924 128.427 241.708 128.178C241.494 127.929 241.329 127.627 241.211 127.272C241.094 126.916 241.035 126.514 241.035 126.066V125.689C241.035 125.24 241.092 124.84 241.207 124.487C241.325 124.131 241.49 123.829 241.704 123.58C241.917 123.329 242.17 123.137 242.462 123.006C242.758 122.875 243.082 122.809 243.434 122.809C243.798 122.809 244.126 122.875 244.419 123.006C244.714 123.137 244.967 123.329 245.178 123.58C245.391 123.829 245.554 124.131 245.666 124.487C245.78 124.84 245.838 125.24 245.838 125.689ZM245.054 126.066V125.68C245.054 125.325 245.018 125.011 244.944 124.737C244.873 124.464 244.767 124.234 244.628 124.048C244.488 123.862 244.318 123.721 244.115 123.626C243.916 123.53 243.689 123.482 243.434 123.482C243.188 123.482 242.965 123.53 242.766 123.626C242.569 123.721 242.399 123.862 242.257 124.048C242.118 124.234 242.01 124.464 241.933 124.737C241.857 125.011 241.818 125.325 241.818 125.68V126.066C241.818 126.424 241.857 126.741 241.933 127.018C242.01 127.291 242.119 127.522 242.261 127.711C242.406 127.897 242.577 128.037 242.774 128.133C242.974 128.229 243.196 128.277 243.443 128.277C243.7 128.277 243.928 128.229 244.128 128.133C244.327 128.037 244.495 127.897 244.632 127.711C244.771 127.522 244.877 127.291 244.948 127.018C245.019 126.741 245.054 126.424 245.054 126.066ZM249.808 127.838V124.425H250.571V128.863H249.845L249.808 127.838ZM249.951 126.903L250.267 126.895C250.267 127.19 250.236 127.463 250.173 127.715C250.113 127.964 250.014 128.18 249.877 128.363C249.741 128.546 249.562 128.69 249.34 128.794C249.119 128.895 248.849 128.945 248.532 128.945C248.316 128.945 248.118 128.914 247.937 128.851C247.76 128.788 247.606 128.691 247.478 128.56C247.349 128.429 247.25 128.258 247.179 128.047C247.11 127.837 247.076 127.584 247.076 127.288V124.425H247.835V127.296C247.835 127.496 247.857 127.662 247.9 127.793C247.947 127.921 248.008 128.024 248.085 128.1C248.164 128.174 248.252 128.226 248.347 128.256C248.446 128.286 248.547 128.301 248.651 128.301C248.974 128.301 249.229 128.24 249.418 128.117C249.607 127.991 249.742 127.823 249.824 127.612C249.909 127.399 249.951 127.162 249.951 126.903ZM253.769 124.425V125.008H251.37V124.425H253.769ZM252.182 123.347H252.941V127.764C252.941 127.914 252.964 128.028 253.01 128.104C253.057 128.181 253.117 128.232 253.191 128.256C253.265 128.281 253.344 128.293 253.429 128.293C253.492 128.293 253.557 128.288 253.626 128.277C253.697 128.263 253.75 128.252 253.786 128.244L253.79 128.863C253.73 128.882 253.65 128.9 253.552 128.917C253.456 128.936 253.34 128.945 253.203 128.945C253.017 128.945 252.846 128.908 252.69 128.835C252.535 128.761 252.41 128.638 252.317 128.465C252.227 128.29 252.182 128.055 252.182 127.76V123.347ZM257.641 128.002V122.563H258.403V128.863H257.706L257.641 128.002ZM254.655 126.694V126.607C254.655 126.268 254.696 125.961 254.778 125.685C254.862 125.406 254.981 125.166 255.134 124.967C255.29 124.767 255.475 124.614 255.688 124.507C255.904 124.398 256.145 124.343 256.41 124.343C256.689 124.343 256.932 124.393 257.14 124.491C257.351 124.587 257.528 124.728 257.673 124.913C257.821 125.097 257.937 125.318 258.022 125.578C258.107 125.838 258.166 126.132 258.198 126.46V126.837C258.168 127.162 258.109 127.455 258.022 127.715C257.937 127.975 257.821 128.196 257.673 128.379C257.528 128.562 257.351 128.703 257.14 128.802C256.93 128.897 256.684 128.945 256.402 128.945C256.142 128.945 255.904 128.889 255.688 128.777C255.475 128.665 255.29 128.508 255.134 128.305C254.981 128.103 254.862 127.865 254.778 127.592C254.696 127.316 254.655 127.016 254.655 126.694ZM255.417 126.607V126.694C255.417 126.915 255.439 127.123 255.483 127.317C255.53 127.511 255.601 127.682 255.696 127.83C255.792 127.977 255.914 128.094 256.061 128.178C256.209 128.26 256.385 128.301 256.591 128.301C256.842 128.301 257.049 128.248 257.21 128.141C257.374 128.035 257.505 127.894 257.604 127.719C257.702 127.544 257.779 127.354 257.833 127.149V126.16C257.8 126.01 257.753 125.865 257.69 125.726C257.63 125.583 257.55 125.458 257.452 125.348C257.356 125.236 257.237 125.147 257.095 125.082C256.956 125.016 256.79 124.983 256.599 124.983C256.391 124.983 256.212 125.027 256.061 125.114C255.914 125.199 255.792 125.317 255.696 125.467C255.601 125.615 255.53 125.787 255.483 125.984C255.439 126.178 255.417 126.386 255.417 126.607ZM259.568 126.694V126.599C259.568 126.279 259.614 125.983 259.707 125.709C259.8 125.433 259.934 125.194 260.109 124.991C260.284 124.786 260.496 124.628 260.745 124.516C260.994 124.401 261.273 124.343 261.582 124.343C261.893 124.343 262.174 124.401 262.422 124.516C262.674 124.628 262.887 124.786 263.062 124.991C263.24 125.194 263.375 125.433 263.468 125.709C263.561 125.983 263.608 126.279 263.608 126.599V126.694C263.608 127.013 263.561 127.31 263.468 127.584C263.375 127.857 263.24 128.096 263.062 128.301C262.887 128.504 262.675 128.662 262.427 128.777C262.18 128.889 261.902 128.945 261.59 128.945C261.278 128.945 260.998 128.889 260.749 128.777C260.5 128.662 260.287 128.504 260.109 128.301C259.934 128.096 259.8 127.857 259.707 127.584C259.614 127.31 259.568 127.013 259.568 126.694ZM260.327 126.599V126.694C260.327 126.915 260.352 127.124 260.404 127.321C260.456 127.515 260.534 127.687 260.638 127.838C260.745 127.988 260.877 128.107 261.036 128.195C261.195 128.279 261.379 128.322 261.59 128.322C261.798 128.322 261.979 128.279 262.135 128.195C262.294 128.107 262.425 127.988 262.529 127.838C262.633 127.687 262.711 127.515 262.763 127.321C262.818 127.124 262.845 126.915 262.845 126.694V126.599C262.845 126.38 262.818 126.174 262.763 125.98C262.711 125.783 262.632 125.609 262.525 125.459C262.421 125.306 262.29 125.186 262.131 125.098C261.975 125.011 261.792 124.967 261.582 124.967C261.374 124.967 261.191 125.011 261.032 125.098C260.876 125.186 260.745 125.306 260.638 125.459C260.534 125.609 260.456 125.783 260.404 125.98C260.352 126.174 260.327 126.38 260.327 126.599ZM264.542 126.694V126.599C264.542 126.279 264.589 125.983 264.682 125.709C264.775 125.433 264.909 125.194 265.084 124.991C265.259 124.786 265.471 124.628 265.72 124.516C265.968 124.401 266.247 124.343 266.556 124.343C266.868 124.343 267.148 124.401 267.397 124.516C267.649 124.628 267.862 124.786 268.037 124.991C268.215 125.194 268.35 125.433 268.443 125.709C268.536 125.983 268.582 126.279 268.582 126.599V126.694C268.582 127.013 268.536 127.31 268.443 127.584C268.35 127.857 268.215 128.096 268.037 128.301C267.862 128.504 267.65 128.662 267.401 128.777C267.155 128.889 266.876 128.945 266.564 128.945C266.253 128.945 265.972 128.889 265.724 128.777C265.475 128.662 265.262 128.504 265.084 128.301C264.909 128.096 264.775 127.857 264.682 127.584C264.589 127.31 264.542 127.013 264.542 126.694ZM265.301 126.599V126.694C265.301 126.915 265.327 127.124 265.379 127.321C265.431 127.515 265.509 127.687 265.613 127.838C265.72 127.988 265.852 128.107 266.011 128.195C266.169 128.279 266.354 128.322 266.564 128.322C266.772 128.322 266.954 128.279 267.11 128.195C267.269 128.107 267.4 127.988 267.504 127.838C267.608 127.687 267.686 127.515 267.737 127.321C267.792 127.124 267.82 126.915 267.82 126.694V126.599C267.82 126.38 267.792 126.174 267.737 125.98C267.686 125.783 267.606 125.609 267.5 125.459C267.396 125.306 267.264 125.186 267.106 125.098C266.95 125.011 266.767 124.967 266.556 124.967C266.348 124.967 266.165 125.011 266.007 125.098C265.851 125.186 265.72 125.306 265.613 125.459C265.509 125.609 265.431 125.783 265.379 125.98C265.327 126.174 265.301 126.38 265.301 126.599ZM270.477 125.123V128.863H269.718V124.425H270.456L270.477 125.123ZM271.863 124.401L271.859 125.106C271.796 125.093 271.736 125.084 271.679 125.082C271.624 125.076 271.561 125.073 271.49 125.073C271.315 125.073 271.16 125.101 271.026 125.155C270.892 125.21 270.779 125.287 270.686 125.385C270.593 125.484 270.519 125.601 270.464 125.738C270.413 125.872 270.378 126.02 270.362 126.181L270.149 126.304C270.149 126.036 270.175 125.784 270.227 125.549C270.281 125.314 270.365 125.106 270.477 124.926C270.589 124.743 270.731 124.6 270.903 124.499C271.078 124.395 271.286 124.343 271.527 124.343C271.581 124.343 271.644 124.35 271.715 124.364C271.787 124.375 271.836 124.387 271.863 124.401Z" fill="black" fill-opacity="0.87"/>
<rect x="253.398" y="134.264" width="6.29805" height="95.853" fill="#C8DFF7"/>
<rect x="253.473" y="134.339" width="6.14805" height="95.703" stroke="black" stroke-opacity="0.87" stroke-width="0.15"/>
<rect x="253.398" y="205.271" width="6.29805" height="24.9923" fill="#EBEBEB"/>
<rect x="253.473" y="205.346" width="6.14805" height="24.8423" stroke="black" stroke-opacity="0.87" stroke-width="0.15"/>
<rect x="253.398" y="134.264" width="6.29805" height="24.9923" fill="#EBEBEB"/>
<rect x="253.473" y="134.339" width="6.14805" height="24.8423" stroke="black" stroke-opacity="0.87" stroke-width="0.15"/>
<rect x="253.398" y="216.887" width="6.29805" height="13.2312" fill="#666666"/>
<rect x="253.473" y="216.962" width="6.14805" height="13.0812" stroke="black" stroke-opacity="0.87" stroke-width="0.15"/>
<rect x="253.398" y="134.264" width="6.29805" height="13.2312" fill="#666666"/>
<rect x="253.473" y="134.339" width="6.14805" height="13.0812" stroke="black" stroke-opacity="0.87" stroke-width="0.15"/>
<rect width="3.56401" height="3.56401" transform="matrix(0.714115 -0.700028 0.714115 0.700028 253.992 165.279)" fill="#DEDEDE"/>
<rect x="0.214234" width="3.26401" height="3.26401" transform="matrix(0.714115 -0.700028 0.714115 0.700028 254.053 165.429)" stroke="black" stroke-opacity="0.87" stroke-width="0.3"/>
<path d="M253.431 236.099C253.431 235.96 253.465 235.833 253.533 235.718C253.602 235.603 253.692 235.511 253.806 235.442C253.919 235.372 254.043 235.337 254.178 235.337C254.312 235.337 254.436 235.372 254.547 235.442C254.658 235.511 254.747 235.603 254.813 235.718C254.88 235.833 254.913 235.96 254.913 236.099C254.913 236.237 254.88 236.364 254.813 236.479C254.747 236.593 254.658 236.684 254.547 236.752C254.436 236.818 254.312 236.852 254.178 236.852C254.043 236.852 253.919 236.818 253.806 236.752C253.692 236.684 253.602 236.593 253.533 236.479C253.465 236.364 253.431 236.237 253.431 236.099ZM253.794 236.099C253.794 236.206 253.831 236.296 253.905 236.368C253.981 236.44 254.072 236.477 254.178 236.477C254.283 236.477 254.371 236.44 254.441 236.368C254.514 236.296 254.55 236.206 254.55 236.099C254.55 235.989 254.514 235.897 254.441 235.823C254.371 235.749 254.283 235.712 254.178 235.712C254.072 235.712 253.981 235.749 253.905 235.823C253.831 235.897 253.794 235.989 253.794 236.099ZM258.545 238.308H259.108C259.079 238.577 259.001 238.818 258.876 239.031C258.751 239.244 258.575 239.413 258.346 239.538C258.118 239.661 257.832 239.723 257.491 239.723C257.241 239.723 257.013 239.676 256.808 239.582C256.605 239.488 256.43 239.355 256.284 239.184C256.137 239.01 256.024 238.802 255.944 238.56C255.866 238.315 255.827 238.044 255.827 237.745V237.32C255.827 237.021 255.866 236.751 255.944 236.509C256.024 236.265 256.138 236.056 256.287 235.882C256.437 235.708 256.618 235.574 256.829 235.48C257.039 235.387 257.277 235.34 257.54 235.34C257.863 235.34 258.135 235.4 258.358 235.521C258.581 235.643 258.753 235.811 258.876 236.025C259.001 236.238 259.079 236.485 259.108 236.767H258.545C258.518 236.567 258.467 236.396 258.393 236.254C258.319 236.109 258.213 235.998 258.077 235.92C257.94 235.842 257.761 235.803 257.54 235.803C257.351 235.803 257.184 235.839 257.039 235.911C256.897 235.983 256.777 236.086 256.679 236.219C256.583 236.352 256.511 236.511 256.462 236.696C256.414 236.882 256.389 237.088 256.389 237.314V237.745C256.389 237.954 256.411 238.15 256.454 238.334C256.498 238.518 256.566 238.679 256.656 238.817C256.746 238.956 256.86 239.065 256.998 239.146C257.137 239.224 257.301 239.263 257.491 239.263C257.731 239.263 257.922 239.225 258.065 239.148C258.207 239.072 258.315 238.963 258.387 238.82C258.461 238.678 258.514 238.507 258.545 238.308Z" fill="black" fill-opacity="0.87"/>
<path d="M265.623 180.996V181.664H261.435V181.08L263.531 178.746C263.789 178.459 263.988 178.216 264.128 178.017C264.272 177.814 264.372 177.634 264.427 177.476C264.486 177.315 264.515 177.151 264.515 176.984C264.515 176.773 264.471 176.583 264.383 176.413C264.298 176.24 264.172 176.102 264.005 176C263.838 175.897 263.636 175.846 263.399 175.846C263.115 175.846 262.877 175.901 262.687 176.013C262.5 176.121 262.359 176.273 262.265 176.47C262.171 176.666 262.125 176.892 262.125 177.146H261.312C261.312 176.786 261.391 176.457 261.549 176.158C261.707 175.859 261.941 175.622 262.252 175.446C262.562 175.267 262.945 175.178 263.399 175.178C263.803 175.178 264.149 175.25 264.436 175.393C264.723 175.534 264.943 175.733 265.095 175.991C265.25 176.246 265.328 176.544 265.328 176.887C265.328 177.075 265.296 177.265 265.231 177.458C265.17 177.649 265.083 177.839 264.972 178.03C264.864 178.22 264.736 178.408 264.59 178.592C264.446 178.777 264.292 178.958 264.128 179.137L262.415 180.996H265.623ZM269.797 175.257H269.867V175.947H269.797C269.366 175.947 269.006 176.017 268.716 176.158C268.426 176.295 268.196 176.481 268.026 176.716C267.856 176.947 267.733 177.208 267.657 177.498C267.583 177.788 267.547 178.083 267.547 178.381V179.322C267.547 179.606 267.581 179.858 267.648 180.078C267.715 180.294 267.808 180.478 267.925 180.627C268.042 180.776 268.174 180.889 268.32 180.965C268.47 181.042 268.625 181.08 268.786 181.08C268.974 181.08 269.141 181.044 269.287 180.974C269.434 180.901 269.557 180.8 269.656 180.671C269.759 180.539 269.836 180.384 269.889 180.205C269.942 180.026 269.968 179.83 269.968 179.616C269.968 179.426 269.945 179.243 269.898 179.067C269.851 178.888 269.779 178.73 269.683 178.592C269.586 178.452 269.464 178.342 269.318 178.263C269.174 178.181 269.003 178.14 268.804 178.14C268.578 178.14 268.367 178.195 268.171 178.307C267.977 178.415 267.818 178.559 267.692 178.737C267.569 178.913 267.498 179.105 267.481 179.313L267.05 179.309C267.091 178.98 267.167 178.701 267.279 178.469C267.393 178.235 267.534 178.044 267.701 177.898C267.871 177.749 268.06 177.64 268.268 177.573C268.478 177.502 268.701 177.467 268.935 177.467C269.255 177.467 269.53 177.527 269.762 177.647C269.993 177.768 270.184 177.929 270.333 178.131C270.482 178.33 270.592 178.556 270.663 178.808C270.736 179.057 270.772 179.313 270.772 179.577C270.772 179.878 270.73 180.161 270.645 180.425C270.56 180.688 270.433 180.92 270.263 181.119C270.096 181.318 269.889 181.474 269.643 181.585C269.397 181.696 269.111 181.752 268.786 181.752C268.44 181.752 268.139 181.682 267.881 181.541C267.623 181.397 267.409 181.207 267.239 180.97C267.069 180.732 266.942 180.469 266.857 180.179C266.772 179.889 266.729 179.594 266.729 179.295V178.913C266.729 178.462 266.775 178.02 266.866 177.586C266.956 177.152 267.113 176.76 267.336 176.408C267.561 176.057 267.873 175.777 268.272 175.569C268.67 175.361 269.179 175.257 269.797 175.257Z" fill="#002878"/>
<rect x="0.75" y="131.432" width="158.5" height="158.5" rx="39.25" fill="#F4F8FE" stroke="#3E9AF8" stroke-width="1.5"/>
<path d="M69.291 194.607V194.984C69.291 195.432 69.235 195.834 69.1229 196.19C69.0107 196.545 68.8494 196.847 68.6389 197.096C68.4283 197.345 68.1754 197.535 67.8801 197.666C67.5875 197.798 67.2594 197.863 66.8957 197.863C66.543 197.863 66.2189 197.798 65.9236 197.666C65.6311 197.535 65.3768 197.345 65.1607 197.096C64.9475 196.847 64.782 196.545 64.6645 196.19C64.5469 195.834 64.4881 195.432 64.4881 194.984V194.607C64.4881 194.158 64.5455 193.758 64.6604 193.405C64.7779 193.049 64.9434 192.747 65.1566 192.498C65.3699 192.247 65.6229 192.055 65.9154 191.924C66.2107 191.793 66.5348 191.727 66.8875 191.727C67.2512 191.727 67.5793 191.793 67.8719 191.924C68.1672 192.055 68.4201 192.247 68.6307 192.498C68.8439 192.747 69.0066 193.049 69.1188 193.405C69.2336 193.758 69.291 194.158 69.291 194.607ZM68.5076 194.984V194.598C68.5076 194.243 68.4707 193.929 68.3969 193.655C68.3258 193.382 68.2205 193.152 68.0811 192.966C67.9416 192.78 67.7707 192.639 67.5684 192.544C67.3688 192.448 67.1418 192.4 66.8875 192.4C66.6414 192.4 66.4186 192.448 66.2189 192.544C66.0221 192.639 65.8525 192.78 65.7104 192.966C65.5709 193.152 65.4629 193.382 65.3863 193.655C65.3098 193.929 65.2715 194.243 65.2715 194.598V194.984C65.2715 195.342 65.3098 195.659 65.3863 195.936C65.4629 196.209 65.5723 196.44 65.7145 196.629C65.8594 196.815 66.0303 196.955 66.2271 197.051C66.4268 197.147 66.6496 197.195 66.8957 197.195C67.1527 197.195 67.3811 197.147 67.5807 197.051C67.7803 196.955 67.9484 196.815 68.0852 196.629C68.2246 196.44 68.3299 196.209 68.401 195.936C68.4721 195.659 68.5076 195.342 68.5076 194.984ZM73.2608 196.756V193.343H74.0237V197.781H73.2977L73.2608 196.756ZM73.4043 195.821L73.7202 195.812C73.7202 196.108 73.6887 196.381 73.6258 196.633C73.5657 196.882 73.4672 197.098 73.3305 197.281C73.1938 197.464 73.0147 197.608 72.7932 197.712C72.5717 197.813 72.3024 197.863 71.9852 197.863C71.7692 197.863 71.5709 197.832 71.3905 197.769C71.2127 197.706 71.0596 197.609 70.9311 197.478C70.8026 197.346 70.7028 197.176 70.6317 196.965C70.5633 196.754 70.5291 196.502 70.5291 196.206V193.343H71.2879V196.214C71.2879 196.414 71.3098 196.579 71.3536 196.711C71.4 196.839 71.4616 196.942 71.5381 197.018C71.6174 197.092 71.7049 197.144 71.8006 197.174C71.8991 197.204 72.0002 197.219 72.1041 197.219C72.4268 197.219 72.6825 197.158 72.8711 197.035C73.0598 196.909 73.1952 196.741 73.2772 196.53C73.3619 196.317 73.4043 196.08 73.4043 195.821ZM77.2223 193.343V193.926H74.8229V193.343H77.2223ZM75.635 192.265H76.3938V196.682C76.3938 196.832 76.4171 196.946 76.4635 197.022C76.51 197.099 76.5702 197.15 76.644 197.174C76.7178 197.199 76.7971 197.211 76.8819 197.211C76.9448 197.211 77.0104 197.206 77.0788 197.195C77.1499 197.181 77.2032 197.17 77.2387 197.162L77.2428 197.781C77.1827 197.8 77.1034 197.818 77.005 197.835C76.9092 197.854 76.793 197.863 76.6563 197.863C76.4704 197.863 76.2995 197.826 76.1436 197.753C75.9878 197.679 75.8634 197.556 75.7704 197.383C75.6801 197.208 75.635 196.973 75.635 196.678V192.265ZM81.0937 196.92V191.481H81.8565V197.781H81.1593L81.0937 196.92ZM78.1077 195.612V195.525C78.1077 195.186 78.1487 194.879 78.2308 194.603C78.3155 194.324 78.4345 194.084 78.5876 193.885C78.7435 193.685 78.928 193.532 79.1413 193.425C79.3573 193.316 79.598 193.261 79.8632 193.261C80.1421 193.261 80.3855 193.311 80.5933 193.409C80.8038 193.505 80.9815 193.646 81.1265 193.831C81.2741 194.015 81.3903 194.236 81.4751 194.496C81.5599 194.756 81.6187 195.05 81.6515 195.378V195.755C81.6214 196.08 81.5626 196.373 81.4751 196.633C81.3903 196.893 81.2741 197.114 81.1265 197.297C80.9815 197.48 80.8038 197.621 80.5933 197.72C80.3827 197.815 80.1366 197.863 79.855 197.863C79.5952 197.863 79.3573 197.807 79.1413 197.695C78.928 197.583 78.7435 197.426 78.5876 197.223C78.4345 197.021 78.3155 196.783 78.2308 196.51C78.1487 196.234 78.1077 195.934 78.1077 195.612ZM78.8706 195.525V195.612C78.8706 195.833 78.8925 196.041 78.9362 196.235C78.9827 196.429 79.0538 196.6 79.1495 196.748C79.2452 196.895 79.3669 197.012 79.5146 197.096C79.6622 197.178 79.8386 197.219 80.0437 197.219C80.2952 197.219 80.5017 197.166 80.663 197.059C80.8271 196.953 80.9583 196.812 81.0567 196.637C81.1552 196.462 81.2317 196.272 81.2864 196.067V195.078C81.2536 194.928 81.2058 194.783 81.1429 194.644C81.0827 194.501 81.0034 194.376 80.905 194.266C80.8093 194.154 80.6903 194.065 80.5482 194C80.4087 193.934 80.2433 193.901 80.0519 193.901C79.844 193.901 79.6649 193.945 79.5146 194.032C79.3669 194.117 79.2452 194.235 79.1495 194.385C79.0538 194.533 78.9827 194.705 78.9362 194.902C78.8925 195.096 78.8706 195.304 78.8706 195.525ZM83.0208 195.612V195.517C83.0208 195.197 83.0673 194.901 83.1603 194.627C83.2533 194.351 83.3872 194.112 83.5622 193.909C83.7372 193.704 83.9492 193.546 84.198 193.434C84.4468 193.319 84.7257 193.261 85.0347 193.261C85.3464 193.261 85.6267 193.319 85.8755 193.434C86.1271 193.546 86.3404 193.704 86.5154 193.909C86.6931 194.112 86.8285 194.351 86.9214 194.627C87.0144 194.901 87.0609 195.197 87.0609 195.517V195.612C87.0609 195.931 87.0144 196.228 86.9214 196.502C86.8285 196.775 86.6931 197.014 86.5154 197.219C86.3404 197.422 86.1285 197.58 85.8796 197.695C85.6335 197.807 85.3546 197.863 85.0429 197.863C84.7312 197.863 84.4509 197.807 84.2021 197.695C83.9533 197.58 83.74 197.422 83.5622 197.219C83.3872 197.014 83.2533 196.775 83.1603 196.502C83.0673 196.228 83.0208 195.931 83.0208 195.612ZM83.7796 195.517V195.612C83.7796 195.833 83.8056 196.042 83.8576 196.239C83.9095 196.433 83.9874 196.605 84.0913 196.756C84.198 196.906 84.3306 197.025 84.4892 197.113C84.6478 197.197 84.8324 197.24 85.0429 197.24C85.2507 197.24 85.4326 197.197 85.5884 197.113C85.747 197.025 85.8783 196.906 85.9822 196.756C86.0861 196.605 86.164 196.433 86.216 196.239C86.2706 196.042 86.298 195.833 86.298 195.612V195.517C86.298 195.298 86.2706 195.092 86.216 194.898C86.164 194.701 86.0847 194.527 85.9781 194.377C85.8742 194.224 85.7429 194.104 85.5843 194.016C85.4285 193.929 85.2453 193.885 85.0347 193.885C84.8269 193.885 84.6437 193.929 84.4851 194.016C84.3292 194.104 84.198 194.224 84.0913 194.377C83.9874 194.527 83.9095 194.701 83.8576 194.898C83.8056 195.092 83.7796 195.298 83.7796 195.517ZM87.9955 195.612V195.517C87.9955 195.197 88.042 194.901 88.1349 194.627C88.2279 194.351 88.3619 194.112 88.5369 193.909C88.7119 193.704 88.9238 193.546 89.1726 193.434C89.4215 193.319 89.7004 193.261 90.0094 193.261C90.3211 193.261 90.6013 193.319 90.8502 193.434C91.1017 193.546 91.315 193.704 91.49 193.909C91.6678 194.112 91.8031 194.351 91.8961 194.627C91.989 194.901 92.0355 195.197 92.0355 195.517V195.612C92.0355 195.931 91.989 196.228 91.8961 196.502C91.8031 196.775 91.6678 197.014 91.49 197.219C91.315 197.422 91.1031 197.58 90.8543 197.695C90.6082 197.807 90.3293 197.863 90.0176 197.863C89.7058 197.863 89.4256 197.807 89.1767 197.695C88.9279 197.58 88.7146 197.422 88.5369 197.219C88.3619 197.014 88.2279 196.775 88.1349 196.502C88.042 196.228 87.9955 195.931 87.9955 195.612ZM88.7543 195.517V195.612C88.7543 195.833 88.7803 196.042 88.8322 196.239C88.8842 196.433 88.9621 196.605 89.066 196.756C89.1726 196.906 89.3053 197.025 89.4638 197.113C89.6224 197.197 89.807 197.24 90.0176 197.24C90.2254 197.24 90.4072 197.197 90.5631 197.113C90.7217 197.025 90.8529 196.906 90.9568 196.756C91.0607 196.605 91.1386 196.433 91.1906 196.239C91.2453 196.042 91.2726 195.833 91.2726 195.612V195.517C91.2726 195.298 91.2453 195.092 91.1906 194.898C91.1386 194.701 91.0594 194.527 90.9527 194.377C90.8488 194.224 90.7176 194.104 90.559 194.016C90.4031 193.929 90.2199 193.885 90.0094 193.885C89.8015 193.885 89.6183 193.929 89.4597 194.016C89.3039 194.104 89.1726 194.224 89.066 194.377C88.9621 194.527 88.8842 194.701 88.8322 194.898C88.7803 195.092 88.7543 195.298 88.7543 195.517ZM93.9299 194.041V197.781H93.1711V193.343H93.9094L93.9299 194.041ZM95.3162 193.319L95.3121 194.024C95.2492 194.011 95.1891 194.002 95.1317 194C95.077 193.994 95.0141 193.991 94.943 193.991C94.768 193.991 94.6135 194.019 94.4795 194.073C94.3455 194.128 94.232 194.205 94.1391 194.303C94.0461 194.402 93.9723 194.519 93.9176 194.656C93.8656 194.79 93.8315 194.937 93.8151 195.099L93.6018 195.222C93.6018 194.954 93.6277 194.702 93.6797 194.467C93.7344 194.232 93.8178 194.024 93.9299 193.844C94.042 193.661 94.1842 193.518 94.3565 193.417C94.5315 193.313 94.7393 193.261 94.9799 193.261C95.0346 193.261 95.0975 193.268 95.1686 193.282C95.2397 193.293 95.2889 193.305 95.3162 193.319Z" fill="black" fill-opacity="0.87"/>
<path d="M75.35 207.682L78.95 201.382H71.75L75.35 207.682Z" fill="#666666"/>
<rect x="128" y="208.281" width="6.3" height="95.9998" transform="rotate(90 128 208.281)" fill="#C8DFF7"/>
<rect x="127.925" y="208.356" width="6.15" height="95.8498" transform="rotate(90 127.925 208.356)" stroke="black" stroke-opacity="0.87" stroke-width="0.15"/>
<rect x="32.1328" y="214.582" width="6.3" height="95.8674" transform="rotate(-90 32.1328 214.582)" fill="#C8DFF7"/>
<rect x="32.2078" y="214.507" width="6.15" height="95.7174" transform="rotate(-90 32.2078 214.507)" stroke="black" stroke-opacity="0.87" stroke-width="0.15"/>
<rect x="32" y="214.582" width="6.3" height="22.5103" transform="rotate(-90 32 214.582)" fill="#EBEBEB"/>
<rect x="32.075" y="214.507" width="6.15" height="22.3603" transform="rotate(-90 32.075 214.507)" stroke="black" stroke-opacity="0.87" stroke-width="0.15"/>
<rect x="32" y="214.582" width="6.3" height="11.9172" transform="rotate(-90 32 214.582)" fill="#666666"/>
<rect x="32.075" y="214.507" width="6.15" height="11.7672" transform="rotate(-90 32.075 214.507)" stroke="black" stroke-opacity="0.87" stroke-width="0.15"/>
<rect width="3.39553" height="3.39553" transform="matrix(0.661792 0.749688 -0.661792 0.749688 100.066 208.881)" fill="#DEDEDE"/>
<rect y="0.224906" width="3.09553" height="3.09553" transform="matrix(0.661792 0.749688 -0.661792 0.749688 100.215 208.937)" stroke="black" stroke-opacity="0.87" stroke-width="0.3"/>
<rect x="105.488" y="214.582" width="6.3" height="22.5103" transform="rotate(-90 105.488 214.582)" fill="#EBEBEB"/>
<rect x="105.563" y="214.507" width="6.15" height="22.3603" transform="rotate(-90 105.563 214.507)" stroke="black" stroke-opacity="0.87" stroke-width="0.15"/>
<rect x="116.082" y="214.582" width="6.3" height="11.9172" transform="rotate(-90 116.082 214.582)" fill="#666666"/>
<rect x="116.157" y="214.507" width="6.15" height="11.7672" transform="rotate(-90 116.157 214.507)" stroke="black" stroke-opacity="0.87" stroke-width="0.15"/>
<path d="M74.6733 223.514V224.182H70.4854V223.597L72.5815 221.264C72.8394 220.977 73.0386 220.733 73.1792 220.534C73.3228 220.332 73.4224 220.152 73.478 219.994C73.5366 219.833 73.5659 219.668 73.5659 219.501C73.5659 219.291 73.522 219.1 73.4341 218.93C73.3491 218.757 73.2231 218.62 73.0562 218.517C72.8892 218.415 72.687 218.363 72.4497 218.363C72.1655 218.363 71.9282 218.419 71.7378 218.53C71.5503 218.639 71.4097 218.791 71.3159 218.987C71.2222 219.184 71.1753 219.409 71.1753 219.664H70.3623C70.3623 219.304 70.4414 218.974 70.5996 218.675C70.7578 218.376 70.9922 218.139 71.3027 217.963C71.6133 217.785 71.9956 217.695 72.4497 217.695C72.854 217.695 73.1997 217.767 73.4868 217.911C73.7739 218.051 73.9937 218.25 74.146 218.508C74.3013 218.763 74.3789 219.062 74.3789 219.405C74.3789 219.592 74.3467 219.783 74.2822 219.976C74.2207 220.167 74.1343 220.357 74.0229 220.547C73.9146 220.738 73.7871 220.925 73.6406 221.11C73.4971 221.294 73.3433 221.476 73.1792 221.655L71.4653 223.514H74.6733ZM78.8476 217.774H78.9179V218.464H78.8476C78.4169 218.464 78.0566 218.535 77.7665 218.675C77.4765 218.813 77.2465 218.999 77.0766 219.233C76.9067 219.465 76.7836 219.726 76.7075 220.016C76.6342 220.306 76.5976 220.6 76.5976 220.899V221.839C76.5976 222.124 76.6313 222.375 76.6987 222.595C76.766 222.812 76.8583 222.995 76.9755 223.145C77.0927 223.294 77.2245 223.407 77.371 223.483C77.5204 223.559 77.6757 223.597 77.8369 223.597C78.0244 223.597 78.1913 223.562 78.3378 223.492C78.4843 223.418 78.6074 223.317 78.707 223.188C78.8095 223.057 78.8871 222.901 78.9399 222.723C78.9926 222.544 79.019 222.348 79.019 222.134C79.019 221.943 78.9955 221.76 78.9487 221.584C78.9018 221.406 78.83 221.248 78.7333 221.11C78.6367 220.969 78.5151 220.859 78.3686 220.78C78.225 220.698 78.0536 220.657 77.8544 220.657C77.6288 220.657 77.4179 220.713 77.2216 220.824C77.0283 220.933 76.8686 221.076 76.7426 221.255C76.6196 221.431 76.5493 221.623 76.5317 221.831L76.101 221.826C76.142 221.498 76.2182 221.218 76.3295 220.987C76.4438 220.752 76.5844 220.562 76.7514 220.416C76.9213 220.266 77.1103 220.158 77.3183 220.09C77.5292 220.02 77.7519 219.985 77.9863 219.985C78.3056 219.985 78.581 220.045 78.8124 220.165C79.0439 220.285 79.2343 220.446 79.3837 220.648C79.5331 220.848 79.643 221.073 79.7133 221.325C79.7866 221.574 79.8232 221.831 79.8232 222.094C79.8232 222.396 79.7807 222.679 79.6957 222.942C79.6108 223.206 79.4833 223.438 79.3134 223.637C79.1464 223.836 78.9399 223.991 78.6938 224.103C78.4477 224.214 78.162 224.27 77.8369 224.27C77.4911 224.27 77.1894 224.199 76.9316 224.059C76.6738 223.915 76.4599 223.725 76.29 223.487C76.1201 223.25 75.9926 222.986 75.9077 222.696C75.8227 222.406 75.7802 222.112 75.7802 221.813V221.431C75.7802 220.979 75.8256 220.537 75.9164 220.104C76.0073 219.67 76.164 219.277 76.3867 218.926C76.6122 218.574 76.9243 218.294 77.3227 218.086C77.7211 217.878 78.2294 217.774 78.8476 217.774Z" fill="#002878"/>
<path d="M76.8838 231.216C76.8838 231.077 76.918 230.95 76.9863 230.835C77.0547 230.72 77.1455 230.628 77.2588 230.56C77.3721 230.489 77.4961 230.454 77.6309 230.454C77.7656 230.454 77.8887 230.489 78 230.56C78.1113 230.628 78.2002 230.72 78.2666 230.835C78.333 230.95 78.3662 231.077 78.3662 231.216C78.3662 231.354 78.333 231.481 78.2666 231.597C78.2002 231.71 78.1113 231.801 78 231.869C77.8887 231.936 77.7656 231.969 77.6309 231.969C77.4961 231.969 77.3721 231.936 77.2588 231.869C77.1455 231.801 77.0547 231.71 76.9863 231.597C76.918 231.481 76.8838 231.354 76.8838 231.216ZM77.2471 231.216C77.2471 231.323 77.2842 231.413 77.3584 231.485C77.4346 231.558 77.5254 231.594 77.6309 231.594C77.7363 231.594 77.8242 231.558 77.8945 231.485C77.9668 231.413 78.0029 231.323 78.0029 231.216C78.0029 231.106 77.9668 231.015 77.8945 230.94C77.8242 230.866 77.7363 230.829 77.6309 230.829C77.5254 230.829 77.4346 230.866 77.3584 230.94C77.2842 231.015 77.2471 231.106 77.2471 231.216ZM81.9985 233.425H82.561C82.5317 233.694 82.4545 233.936 82.3295 234.148C82.2045 234.361 82.0278 234.53 81.7993 234.655C81.5707 234.778 81.2856 234.84 80.9438 234.84C80.6938 234.84 80.4662 234.793 80.2612 234.699C80.058 234.605 79.8832 234.473 79.7368 234.301C79.5903 234.127 79.477 233.919 79.3969 233.677C79.3188 233.433 79.2797 233.161 79.2797 232.862V232.438C79.2797 232.139 79.3188 231.868 79.3969 231.626C79.477 231.382 79.5912 231.173 79.7397 230.999C79.8901 230.825 80.0707 230.691 80.2817 230.598C80.4926 230.504 80.7299 230.457 80.9936 230.457C81.3159 230.457 81.5883 230.518 81.811 230.639C82.0336 230.76 82.2065 230.928 82.3295 231.143C82.4545 231.355 82.5317 231.603 82.561 231.884H81.9985C81.9711 231.685 81.9203 231.514 81.8461 231.371C81.7719 231.227 81.6664 231.115 81.5297 231.037C81.393 230.959 81.2143 230.92 80.9936 230.92C80.8041 230.92 80.6371 230.956 80.4926 231.028C80.35 231.101 80.2299 231.203 80.1323 231.336C80.0366 231.469 79.9643 231.628 79.9155 231.813C79.8666 231.999 79.8422 232.205 79.8422 232.432V232.862C79.8422 233.071 79.8637 233.268 79.9067 233.451C79.9516 233.635 80.019 233.796 80.1088 233.935C80.1987 234.073 80.3129 234.183 80.4516 234.263C80.5903 234.341 80.7543 234.38 80.9438 234.38C81.184 234.38 81.3754 234.342 81.518 234.266C81.6606 234.189 81.768 234.08 81.8403 233.938C81.9145 233.795 81.9672 233.624 81.9985 233.425Z" fill="black" fill-opacity="0.87"/>
</svg>
