<svg width="92" height="92" fill="none" xmlns="http://www.w3.org/2000/svg"><g filter="url(#b)" clip-path="url(#a)"><path d="M48 27v37c8.678-6.098 14-16.275 14-27.35v-5.475L48 27ZM30 31.175v5.474C30 47.725 35.322 57.902 44 64V27l-14 4.175Z" fill="#2A7DEC"/><path fill-rule="evenodd" clip-rule="evenodd" d="M44.212 75.54a3.702 3.702 0 0 0 3.576 0l1.78-.981C63.436 66.903 72 52.172 72 36.165v-9.937a3.727 3.727 0 0 0-2.678-3.581l-22.286-6.499a3.701 3.701 0 0 0-2.072 0l-22.286 6.499A3.727 3.727 0 0 0 20 26.227v9.938c0 16.007 8.564 30.738 22.432 38.394l1.78.98Zm.153-4.483 1.635.9 1.635-.9m-3.27 0-.002-.002C31.798 64.12 24 50.745 24 36.165v-9.737l22-6.416 22 6.416v9.737c0 14.58-7.798 27.954-20.363 34.89" fill="#305680"/></g><rect x=".75" y=".75" width="90.5" height="90.5" rx="23.25" stroke="#3E9AF8" stroke-width="1.5"/><defs><clipPath id="a"><rect width="92" height="92" rx="24" fill="#fff"/></clipPath><filter id="b" x="-4" y="6" width="100" height="100" filterUnits="userSpaceOnUse" color-interpolation-filters="sRGB"><feFlood flood-opacity="0" result="BackgroundImageFix"/><feColorMatrix in="SourceAlpha" values="0 0 0 0 0 0 0 0 0 0 0 0 0 0 0 0 0 0 127 0" result="hardAlpha"/><feOffset dy="10"/><feGaussianBlur stdDeviation="10"/><feColorMatrix values="0 0 0 0 0 0 0 0 0 0 0 0 0 0 0 0 0 0 0.1 0"/><feBlend in2="BackgroundImageFix" result="effect1_dropShadow_10346_26466"/><feBlend in="SourceGraphic" in2="effect1_dropShadow_10346_26466" result="shape"/></filter></defs></svg>