<svg width="337" height="291" fill="none" xmlns="http://www.w3.org/2000/svg"><rect x="96.5" y=".57" width="159" height="159" rx="39.5" stroke="#3E9AF8"/><path d="M140 34.47s0-14.4 16.8-14.4h38.4c16.8 0 16.8 14.4 16.8 14.4v91.2s0 14.4-16.8 14.4h-38.4c-16.8 0-16.8-14.4-16.8-14.4v-91.2Z" fill="#EBEBEB"/><path d="M140 34.47h.12v-.039l.004-.118c.004-.104.012-.257.028-.452.033-.39.098-.948.228-1.618.261-1.34.782-3.127 1.824-4.912 2.078-3.563 6.238-7.14 14.596-7.14h38.4c8.358 0 12.518 3.577 14.596 7.14 1.042 1.785 1.563 3.572 1.824 4.912.13.67.195 1.228.228 1.618.016.196.024.348.028.452l.004.118v91.278l-.004.118c-.004.104-.012.257-.028.452-.033.39-.098.948-.228 1.618-.261 1.341-.782 3.128-1.824 4.913-2.078 3.563-6.238 7.14-14.596 7.14H156.8c-8.358 0-12.518-3.577-14.596-7.14-1.042-1.785-1.563-3.572-1.824-4.913-.13-.67-.195-1.228-.228-1.618a10.518 10.518 0 0 1-.028-.452l-.004-.118V34.47H140Z" stroke="#000" stroke-opacity=".87" stroke-width=".24"/><mask id="a" style="mask-type:alpha" maskUnits="userSpaceOnUse" x="140" y="20" width="72" height="120"><path d="M140.242 34.653s0-14.342 16.688-14.342h38.144c16.688 0 16.688 14.342 16.688 14.342v90.835s0 14.343-16.688 14.343H156.93c-16.688 0-16.688-14.343-16.688-14.343V34.653Z" fill="#EEE"/><path d="M140.242 34.653h.12V34.644l.001-.03.003-.117c.004-.104.012-.256.028-.45.033-.389.097-.945.227-1.612.259-1.336.776-3.115 1.811-4.893 2.064-3.548 6.197-7.111 14.498-7.111h38.144c8.302 0 12.434 3.563 14.498 7.111 1.035 1.778 1.553 3.557 1.812 4.893.129.667.194 1.223.226 1.612.016.194.024.346.028.45l.004.117V125.527l-.004.118c-.004.103-.012.255-.028.449a15.11 15.11 0 0 1-.226 1.612c-.259 1.336-.777 3.115-1.812 4.893-2.064 3.548-6.196 7.112-14.498 7.112H156.93c-8.301 0-12.434-3.564-14.498-7.112-1.035-1.778-1.552-3.557-1.811-4.893a15.158 15.158 0 0 1-.227-1.612 10.439 10.439 0 0 1-.031-.567l-.001-.03V34.653h-.12Z" stroke="#000" stroke-opacity=".87" stroke-width=".24"/></mask><g mask="url(#a)"><path fill="#C8DFF7" d="M140.004 89.791h72v50.28h-72z"/></g><path stroke="#000" stroke-opacity=".38" stroke-width=".36" d="M159.438 20.49h3.839"/><path stroke="#000" stroke-opacity=".12" stroke-width=".36" d="M160.879 22.873h2.4M160.879 25.256h2.4M160.879 27.64h2.4M160.879 30.023h2.4"/><path stroke="#000" stroke-opacity=".38" stroke-width=".36" d="M159.438 32.406h3.839"/><path stroke="#000" stroke-opacity=".12" stroke-width=".36" d="M160.879 34.789h2.4M160.879 37.172h2.4M160.879 39.556h2.4M160.879 41.939h2.4"/><path stroke="#000" stroke-opacity=".38" stroke-width=".36" d="M159.438 44.322h3.839"/><path stroke="#000" stroke-opacity=".12" stroke-width=".36" d="M160.879 46.705h2.4M160.879 49.088h2.4M160.879 51.472h2.4M160.879 53.855h2.4"/><path stroke="#000" stroke-opacity=".38" stroke-width=".36" d="M159.438 56.238h3.839"/><path stroke="#000" stroke-opacity=".12" stroke-width=".36" d="M160.879 58.621h2.4M160.879 61.004h2.4M160.879 63.388h2.4M160.879 65.771h2.4"/><path stroke="#000" stroke-opacity=".38" stroke-width=".36" d="M159.438 68.154h3.839"/><path stroke="#000" stroke-opacity=".12" stroke-width=".36" d="M160.879 70.537h2.4M160.879 72.92h2.4M160.879 75.304h2.4M160.879 77.687h2.4"/><path stroke="#000" stroke-opacity=".38" stroke-width=".36" d="M159.438 80.07h3.839"/><path stroke="#000" stroke-opacity=".12" stroke-width=".36" d="M160.879 82.453h2.4M160.879 84.836h2.4M160.879 87.22h2.4M160.879 89.603h2.4"/><path stroke="#000" stroke-opacity=".38" stroke-width=".36" d="M159.438 91.986h3.839"/><path stroke="#000" stroke-opacity=".12" stroke-width=".36" d="M160.879 94.369h2.4M160.879 96.752h2.4M160.879 99.136h2.4M160.879 101.519h2.4"/><path stroke="#000" stroke-opacity=".38" stroke-width=".36" d="M159.438 103.902h3.839"/><path stroke="#000" stroke-opacity=".12" stroke-width=".36" d="M160.879 106.285h2.4M160.879 108.668h2.4M160.879 111.052h2.4M160.879 113.435h2.4"/><path stroke="#000" stroke-opacity=".38" stroke-width=".36" d="M159.438 115.818h3.839"/><path stroke="#000" stroke-opacity=".12" stroke-width=".36" d="M160.879 118.201h2.4M160.879 120.584h2.4M160.879 122.968h2.4M160.879 125.351h2.4"/><path stroke="#000" stroke-opacity=".38" stroke-width=".36" d="M159.438 127.734h3.839"/><path stroke="#000" stroke-opacity=".12" stroke-width=".36" d="M160.879 130.117h2.4M160.879 132.5h2.4M160.879 134.884h2.4M160.879 137.267h2.4"/><path stroke="#000" stroke-opacity=".38" stroke-width=".36" d="M159.438 139.65h3.839"/><path d="M154.586 20.256v2.055h-.339v-1.653l-.502.17v-.28l.8-.292h.041Zm2.076.86v.334c0 .16-.016.297-.048.41a.717.717 0 0 1-.135.275.533.533 0 0 1-.212.154.73.73 0 0 1-.274.05.78.78 0 0 1-.225-.031.542.542 0 0 1-.328-.267.985.985 0 0 1-.09-.252 1.624 1.624 0 0 1-.031-.34v-.334c0-.161.016-.297.048-.408a.72.72 0 0 1 .136-.271.524.524 0 0 1 .211-.153.766.766 0 0 1 .276-.048.78.78 0 0 1 .225.03.523.523 0 0 1 .326.264.874.874 0 0 1 .09.249c.021.096.031.209.031.337Zm-.339.382v-.433c0-.082-.005-.154-.014-.216a.613.613 0 0 0-.042-.159.309.309 0 0 0-.068-.106.238.238 0 0 0-.092-.06.332.332 0 0 0-.117-.02c-.053 0-.1.01-.141.03a.253.253 0 0 0-.104.096.524.524 0 0 0-.065.175 1.373 1.373 0 0 0-.021.26v.433c0 .082.005.155.014.218.01.063.024.116.043.161.018.045.041.081.067.11a.249.249 0 0 0 .093.062c.036.013.074.02.117.02.053 0 .1-.01.142-.031a.26.26 0 0 0 .104-.099.538.538 0 0 0 .063-.178 1.42 1.42 0 0 0 .021-.263Zm2.006-.383v.335c0 .16-.016.297-.048.41a.717.717 0 0 1-.135.275.533.533 0 0 1-.212.154.73.73 0 0 1-.274.05.78.78 0 0 1-.225-.031.542.542 0 0 1-.328-.267.914.914 0 0 1-.09-.252 1.624 1.624 0 0 1-.031-.34v-.334c0-.161.016-.297.048-.408a.72.72 0 0 1 .136-.271.524.524 0 0 1 .211-.153.762.762 0 0 1 .276-.048.78.78 0 0 1 .225.03.523.523 0 0 1 .326.264.874.874 0 0 1 .09.249c.021.096.031.209.031.337Zm-.339.383v-.433c0-.082-.005-.154-.014-.216a.655.655 0 0 0-.042-.159.324.324 0 0 0-.068-.106.234.234 0 0 0-.093-.06.322.322 0 0 0-.116-.02c-.053 0-.1.01-.141.03a.253.253 0 0 0-.104.096.524.524 0 0 0-.065.175 1.373 1.373 0 0 0-.021.26v.433c0 .082.005.155.014.218a.76.76 0 0 0 .042.161c.019.045.042.081.068.11a.249.249 0 0 0 .093.062c.035.013.074.02.117.02a.268.268 0 0 0 .246-.13.538.538 0 0 0 .063-.178 1.42 1.42 0 0 0 .021-.263ZM155.601 33.72h.028a.9.9 0 0 0 .324-.051.52.52 0 0 0 .208-.144.569.569 0 0 0 .111-.215 1.04 1.04 0 0 0 .033-.269v-.353a.802.802 0 0 0-.026-.219.453.453 0 0 0-.073-.159.308.308 0 0 0-.109-.097.272.272 0 0 0-.13-.032.28.28 0 0 0-.14.035.307.307 0 0 0-.102.094.47.47 0 0 0-.064.14.652.652 0 0 0-.001.331.465.465 0 0 0 .062.138.286.286 0 0 0 .247.13.35.35 0 0 0 .261-.112.423.423 0 0 0 .077-.116.364.364 0 0 0 .031-.133l.129.04a.527.527 0 0 1-.045.21.666.666 0 0 1-.122.19.598.598 0 0 1-.182.134.582.582 0 0 1-.482-.004.547.547 0 0 1-.186-.152.675.675 0 0 1-.109-.22.892.892 0 0 1 .008-.537.69.69 0 0 1 .131-.227.59.59 0 0 1 .208-.155.672.672 0 0 1 .28-.056c.111 0 .208.021.291.064a.607.607 0 0 1 .211.179.81.81 0 0 1 .129.264c.029.1.044.209.044.324v.12c0 .12-.011.237-.032.35a1.178 1.178 0 0 1-.106.31.819.819 0 0 1-.477.418c-.112.04-.244.059-.396.059h-.031v-.28Zm2.729-.929v.335c0 .16-.016.297-.048.41a.717.717 0 0 1-.135.274.527.527 0 0 1-.213.155.793.793 0 0 1-.499.018.549.549 0 0 1-.328-.267.985.985 0 0 1-.09-.251c-.02-.098-.03-.21-.03-.34v-.334c0-.161.015-.297.047-.408a.72.72 0 0 1 .137-.271.517.517 0 0 1 .211-.154.754.754 0 0 1 .275-.047c.082 0 .157.01.225.03a.52.52 0 0 1 .327.264.872.872 0 0 1 .09.248c.02.097.031.21.031.338Zm-.339.383v-.434c0-.081-.005-.153-.014-.215a.653.653 0 0 0-.043-.159.306.306 0 0 0-.067-.106.234.234 0 0 0-.093-.061.332.332 0 0 0-.117-.02.309.309 0 0 0-.14.031.248.248 0 0 0-.104.096.524.524 0 0 0-.065.174 1.375 1.375 0 0 0-.021.26v.433c0 .083.005.156.014.218a.657.657 0 0 0 .042.162.38.38 0 0 0 .068.11.255.255 0 0 0 .092.062.34.34 0 0 0 .117.02c.054 0 .101-.01.142-.031a.26.26 0 0 0 .104-.099.561.561 0 0 0 .064-.178 1.42 1.42 0 0 0 .021-.264ZM156.667 45.104c0 .127-.03.235-.089.322a.55.55 0 0 1-.242.198.848.848 0 0 1-.343.066.86.86 0 0 1-.344-.066.556.556 0 0 1-.242-.198.562.562 0 0 1-.089-.322.521.521 0 0 1 .189-.408.658.658 0 0 1 .213-.117.862.862 0 0 1 .27-.04.81.81 0 0 1 .348.071.585.585 0 0 1 .24.199.503.503 0 0 1 .089.295Zm-.34-.017a.36.36 0 0 0-.043-.18.292.292 0 0 0-.118-.12.354.354 0 0 0-.176-.042.348.348 0 0 0-.175.042.296.296 0 0 0-.117.12.382.382 0 0 0-.041.18c0 .07.014.13.041.18.027.05.066.088.117.114.05.026.11.04.178.04a.37.37 0 0 0 .177-.04.275.275 0 0 0 .116-.114.378.378 0 0 0 .041-.18Zm.293-.934a.475.475 0 0 1-.081.273.558.558 0 0 1-.222.188.748.748 0 0 1-.324.068.757.757 0 0 1-.326-.068.564.564 0 0 1-.224-.188.482.482 0 0 1-.08-.273c0-.122.027-.224.08-.308a.524.524 0 0 1 .224-.192.762.762 0 0 1 .325-.066c.122 0 .23.021.325.066a.519.519 0 0 1 .303.5Zm-.338.011a.342.342 0 0 0-.037-.16.261.261 0 0 0-.1-.11.287.287 0 0 0-.153-.039.296.296 0 0 0-.153.038.249.249 0 0 0-.1.107.351.351 0 0 0-.035.164c0 .063.011.118.035.165a.258.258 0 0 0 .1.108c.044.027.095.04.154.04s.11-.013.154-.04a.262.262 0 0 0 .099-.108.356.356 0 0 0 .036-.165Zm2.048.303v.334c0 .16-.016.298-.048.411a.717.717 0 0 1-.135.274.528.528 0 0 1-.213.155.793.793 0 0 1-.499.018.549.549 0 0 1-.328-.267.985.985 0 0 1-.09-.252c-.02-.097-.03-.21-.03-.339v-.334c0-.161.015-.297.047-.408a.72.72 0 0 1 .137-.271.517.517 0 0 1 .211-.154.754.754 0 0 1 .275-.047c.082 0 .157.01.225.03a.52.52 0 0 1 .327.263.872.872 0 0 1 .09.25c.02.096.031.208.031.337Zm-.339.382v-.433c0-.081-.005-.153-.014-.215a.652.652 0 0 0-.043-.159.306.306 0 0 0-.067-.107.235.235 0 0 0-.093-.06.33.33 0 0 0-.117-.02.309.309 0 0 0-.14.031.248.248 0 0 0-.104.096.525.525 0 0 0-.065.174 1.375 1.375 0 0 0-.021.26v.433c0 .083.005.156.014.218a.657.657 0 0 0 .042.162.38.38 0 0 0 .068.11.253.253 0 0 0 .092.062c.036.013.075.02.117.02.054 0 .101-.011.142-.032a.26.26 0 0 0 .104-.098.561.561 0 0 0 .064-.179 1.42 1.42 0 0 0 .021-.263ZM156.688 55.29v.186l-.818 1.862h-.358l.817-1.778h-1.06v-.27h1.419Zm1.642.853v.334c0 .16-.016.298-.048.41a.717.717 0 0 1-.135.275.528.528 0 0 1-.213.155.793.793 0 0 1-.499.018.547.547 0 0 1-.328-.267.985.985 0 0 1-.09-.252c-.02-.097-.03-.21-.03-.339v-.334c0-.162.015-.298.047-.408a.72.72 0 0 1 .137-.272.516.516 0 0 1 .211-.153.754.754 0 0 1 .275-.048c.082 0 .157.01.225.031a.52.52 0 0 1 .327.263.872.872 0 0 1 .09.25c.02.096.031.208.031.337Zm-.339.382v-.433c0-.082-.005-.153-.014-.215a.652.652 0 0 0-.043-.16.306.306 0 0 0-.067-.106.235.235 0 0 0-.093-.06.332.332 0 0 0-.117-.02.309.309 0 0 0-.14.03.248.248 0 0 0-.104.096.525.525 0 0 0-.065.175 1.374 1.374 0 0 0-.021.26v.433c0 .083.005.155.014.218a.657.657 0 0 0 .042.162.38.38 0 0 0 .068.11.253.253 0 0 0 .092.061c.036.014.075.02.117.02a.261.261 0 0 0 .246-.13.56.56 0 0 0 .064-.178c.014-.073.021-.16.021-.263ZM156.352 66.954h.042v.277h-.024a.794.794 0 0 0-.313.056.583.583 0 0 0-.342.385.936.936 0 0 0-.041.279v.322c0 .081.009.153.027.216a.474.474 0 0 0 .074.156.35.35 0 0 0 .113.095.293.293 0 0 0 .136.032c.051 0 .097-.01.138-.031a.334.334 0 0 0 .106-.089.398.398 0 0 0 .066-.133.603.603 0 0 0 0-.332.41.41 0 0 0-.064-.135.295.295 0 0 0-.249-.125.364.364 0 0 0-.184.048.397.397 0 0 0-.132.125.312.312 0 0 0-.053.161l-.13-.042a.738.738 0 0 1 .058-.235.528.528 0 0 1 .304-.288.621.621 0 0 1 .225-.04.518.518 0 0 1 .44.21.635.635 0 0 1 .108.22.903.903 0 0 1-.008.531.637.637 0 0 1-.342.371.69.69 0 0 1-.279.054.639.639 0 0 1-.511-.238.797.797 0 0 1-.135-.256.997.997 0 0 1-.047-.306V68.1c0-.156.02-.302.059-.44.04-.139.1-.261.182-.367a.848.848 0 0 1 .316-.25c.128-.06.282-.09.46-.09Zm1.978.864v.335c0 .16-.016.297-.048.41a.717.717 0 0 1-.135.275.528.528 0 0 1-.213.155.793.793 0 0 1-.499.018.549.549 0 0 1-.328-.267.985.985 0 0 1-.09-.252c-.02-.098-.03-.21-.03-.339v-.335c0-.16.015-.297.047-.407a.72.72 0 0 1 .137-.272.516.516 0 0 1 .211-.153.754.754 0 0 1 .275-.048c.082 0 .157.01.225.031a.52.52 0 0 1 .327.263.872.872 0 0 1 .09.249c.02.096.031.209.031.337Zm-.339.383v-.433c0-.082-.005-.153-.014-.215a.652.652 0 0 0-.043-.16.306.306 0 0 0-.067-.106.235.235 0 0 0-.093-.06.332.332 0 0 0-.117-.02.309.309 0 0 0-.14.03.247.247 0 0 0-.104.096.525.525 0 0 0-.065.175 1.373 1.373 0 0 0-.021.26v.433c0 .082.005.155.014.218a.657.657 0 0 0 .042.162c.019.044.041.08.068.11a.252.252 0 0 0 .092.061.34.34 0 0 0 .117.02c.054 0 .101-.01.142-.031a.262.262 0 0 0 .104-.099.56.56 0 0 0 .064-.178 1.42 1.42 0 0 0 .021-.263ZM155.684 79.74l-.27-.067.111-1.03h1.104v.288h-.823l-.056.502a.672.672 0 0 1 .325-.083c.096 0 .183.016.259.048.076.03.142.076.195.136a.585.585 0 0 1 .122.217c.029.084.043.18.043.285a.796.796 0 0 1-.043.266.57.57 0 0 1-.333.366.768.768 0 0 1-.297.052.832.832 0 0 1-.246-.037.68.68 0 0 1-.209-.111.558.558 0 0 1-.149-.183.626.626 0 0 1-.065-.252h.332a.429.429 0 0 0 .055.17.288.288 0 0 0 .115.106.362.362 0 0 0 .166.037c.057 0 .106-.01.148-.03a.278.278 0 0 0 .102-.087.388.388 0 0 0 .062-.135.653.653 0 0 0-.003-.336.357.357 0 0 0-.069-.13.292.292 0 0 0-.113-.084.384.384 0 0 0-.159-.031.396.396 0 0 0-.186.035.57.57 0 0 0-.118.087Zm2.646-.244v.335c0 .16-.016.297-.048.41a.717.717 0 0 1-.135.275.528.528 0 0 1-.213.154.793.793 0 0 1-.499.018.549.549 0 0 1-.328-.267.985.985 0 0 1-.09-.251c-.02-.098-.03-.21-.03-.34v-.334c0-.161.015-.297.047-.408a.72.72 0 0 1 .137-.271.517.517 0 0 1 .211-.153.754.754 0 0 1 .275-.048c.082 0 .157.01.225.03a.52.52 0 0 1 .327.264.872.872 0 0 1 .09.249c.02.096.031.209.031.337Zm-.339.383v-.434c0-.081-.005-.153-.014-.215a.652.652 0 0 0-.043-.159.306.306 0 0 0-.067-.106.235.235 0 0 0-.093-.06.33.33 0 0 0-.117-.02.309.309 0 0 0-.14.03.248.248 0 0 0-.104.096.525.525 0 0 0-.065.174 1.375 1.375 0 0 0-.021.26v.434c0 .082.005.155.014.218a.657.657 0 0 0 .042.161.38.38 0 0 0 .068.11.253.253 0 0 0 .092.062c.036.013.075.02.117.02.054 0 .101-.01.142-.031a.26.26 0 0 0 .104-.099.561.561 0 0 0 .064-.178 1.42 1.42 0 0 0 .021-.263ZM156.739 91.637v.27h-1.477l-.011-.204.883-1.383h.271l-.294.503-.507.814h1.135Zm-.256-1.317v2.047h-.339V90.32h.339Zm1.847.852v.335c0 .16-.016.297-.048.41a.717.717 0 0 1-.135.274.528.528 0 0 1-.213.155.793.793 0 0 1-.499.018.547.547 0 0 1-.328-.267.985.985 0 0 1-.09-.251c-.02-.098-.03-.211-.03-.34v-.334c0-.161.015-.297.047-.408a.72.72 0 0 1 .137-.271.516.516 0 0 1 .211-.154.754.754 0 0 1 .275-.047c.082 0 .157.01.225.03a.52.52 0 0 1 .327.263.872.872 0 0 1 .09.25c.02.096.031.208.031.337Zm-.339.382v-.433c0-.081-.005-.153-.014-.215a.652.652 0 0 0-.043-.159.306.306 0 0 0-.067-.107.235.235 0 0 0-.093-.06.332.332 0 0 0-.117-.02.309.309 0 0 0-.14.031.248.248 0 0 0-.104.096.525.525 0 0 0-.065.174 1.374 1.374 0 0 0-.021.26v.433c0 .083.005.156.014.218a.657.657 0 0 0 .042.162.38.38 0 0 0 .068.11.253.253 0 0 0 .092.062c.036.013.075.02.117.02.054 0 .101-.011.142-.032a.261.261 0 0 0 .104-.098.56.56 0 0 0 .064-.179c.014-.073.021-.16.021-.263ZM155.726 102.866h.203a.417.417 0 0 0 .195-.041.27.27 0 0 0 .117-.112.352.352 0 0 0 .038-.165.367.367 0 0 0-.035-.166.241.241 0 0 0-.104-.108.367.367 0 0 0-.176-.038.35.35 0 0 0-.163.037.272.272 0 0 0-.156.255h-.341c0-.108.029-.205.086-.289a.582.582 0 0 1 .233-.199.763.763 0 0 1 .335-.073.84.84 0 0 1 .346.066.511.511 0 0 1 .232.195.583.583 0 0 1 .083.32.43.43 0 0 1-.041.177.509.509 0 0 1-.121.165.627.627 0 0 1-.199.119.785.785 0 0 1-.277.045h-.255v-.188Zm0 .264v-.185h.255c.12 0 .222.014.306.042a.542.542 0 0 1 .208.117.424.424 0 0 1 .117.167.6.6 0 0 1-.014.456.523.523 0 0 1-.145.188.65.65 0 0 1-.221.117.908.908 0 0 1-.272.039.886.886 0 0 1-.254-.036.708.708 0 0 1-.216-.109.522.522 0 0 1-.207-.434h.339c0 .061.014.115.042.161.029.046.07.082.121.109a.403.403 0 0 0 .18.039.416.416 0 0 0 .184-.038.269.269 0 0 0 .119-.112.363.363 0 0 0 .042-.18.36.36 0 0 0-.047-.194.27.27 0 0 0-.132-.11.52.52 0 0 0-.202-.037h-.203Zm2.604-.282v.334c0 .161-.016.298-.048.411a.718.718 0 0 1-.135.274.524.524 0 0 1-.213.155.723.723 0 0 1-.274.049.78.78 0 0 1-.225-.031.538.538 0 0 1-.185-.097.585.585 0 0 1-.143-.17.976.976 0 0 1-.09-.252c-.02-.097-.03-.21-.03-.339v-.334c0-.162.015-.298.047-.408a.724.724 0 0 1 .137-.272.52.52 0 0 1 .211-.153.752.752 0 0 1 .275-.048c.082 0 .157.011.225.031.07.02.132.051.186.095a.558.558 0 0 1 .141.168.886.886 0 0 1 .09.249c.02.097.031.209.031.338Zm-.339.382v-.433a1.5 1.5 0 0 0-.014-.215.649.649 0 0 0-.043-.159.306.306 0 0 0-.067-.107.233.233 0 0 0-.093-.06.334.334 0 0 0-.117-.02.304.304 0 0 0-.14.031.245.245 0 0 0-.104.096.523.523 0 0 0-.065.174 1.372 1.372 0 0 0-.021.26v.433c0 .083.005.155.014.218a.657.657 0 0 0 .042.162c.019.044.041.08.068.11a.251.251 0 0 0 .092.061.32.32 0 0 0 .117.02c.054 0 .101-.01.142-.031a.256.256 0 0 0 .104-.098.565.565 0 0 0 .064-.179 1.42 1.42 0 0 0 .021-.263ZM156.701 115.449v.27h-1.373v-.232l.667-.727c.073-.083.13-.154.173-.214a.695.695 0 0 0 .088-.162.41.41 0 0 0-.01-.312.263.263 0 0 0-.104-.117.305.305 0 0 0-.167-.043.345.345 0 0 0-.191.049.305.305 0 0 0-.117.136.474.474 0 0 0-.039.197h-.339c0-.119.027-.228.081-.326a.598.598 0 0 1 .237-.236.737.737 0 0 1 .372-.089c.137 0 .253.023.349.069a.49.49 0 0 1 .218.196.566.566 0 0 1 .076.299c0 .064-.01.127-.031.19a.866.866 0 0 1-.089.188 1.54 1.54 0 0 1-.133.187 4.022 4.022 0 0 1-.17.189l-.443.488h.945Zm1.629-.926v.335c0 .16-.016.297-.048.411a.718.718 0 0 1-.135.274.533.533 0 0 1-.213.155.743.743 0 0 1-.274.049.78.78 0 0 1-.225-.031.556.556 0 0 1-.328-.267.99.99 0 0 1-.09-.252c-.02-.097-.03-.21-.03-.339v-.335c0-.161.015-.297.047-.407a.724.724 0 0 1 .137-.272.52.52 0 0 1 .211-.153.752.752 0 0 1 .275-.048.76.76 0 0 1 .225.031.527.527 0 0 1 .327.263.863.863 0 0 1 .09.249c.02.097.031.209.031.337Zm-.339.383v-.433a1.5 1.5 0 0 0-.014-.215.649.649 0 0 0-.043-.159.306.306 0 0 0-.067-.107.247.247 0 0 0-.093-.061.334.334 0 0 0-.117-.019.304.304 0 0 0-.14.031.242.242 0 0 0-.104.095.521.521 0 0 0-.065.175 1.372 1.372 0 0 0-.021.26v.433c0 .082.005.155.014.218a.657.657 0 0 0 .042.162c.019.044.041.08.068.109a.254.254 0 0 0 .092.062.342.342 0 0 0 .259-.011.263.263 0 0 0 .104-.098.565.565 0 0 0 .064-.179 1.42 1.42 0 0 0 .021-.263ZM156.253 125.34v2.055h-.338v-1.653l-.502.17v-.279l.8-.293h.04Zm2.077.859v.335c0 .16-.016.297-.048.411a.725.725 0 0 1-.135.274.522.522 0 0 1-.213.154.815.815 0 0 1-.499.019.556.556 0 0 1-.328-.267 1.004 1.004 0 0 1-.09-.252 1.708 1.708 0 0 1-.03-.339v-.335c0-.161.015-.297.047-.408a.72.72 0 0 1 .137-.271.52.52 0 0 1 .211-.153.752.752 0 0 1 .275-.048.76.76 0 0 1 .225.031.527.527 0 0 1 .327.263.863.863 0 0 1 .09.249c.02.096.031.209.031.337Zm-.339.383v-.433c0-.082-.005-.154-.014-.216a.653.653 0 0 0-.043-.158.297.297 0 0 0-.067-.107.235.235 0 0 0-.093-.061.334.334 0 0 0-.117-.019.316.316 0 0 0-.14.03.251.251 0 0 0-.104.096.523.523 0 0 0-.065.174 1.383 1.383 0 0 0-.021.261v.433c0 .082.005.155.014.218a.649.649 0 0 0 .042.161.381.381 0 0 0 .068.11.254.254 0 0 0 .092.062.342.342 0 0 0 .259-.011.265.265 0 0 0 .104-.099.558.558 0 0 0 .064-.178 1.42 1.42 0 0 0 .021-.263ZM158.33 137.875v.335c0 .16-.016.297-.048.41a.722.722 0 0 1-.135.275.531.531 0 0 1-.213.154.816.816 0 0 1-.499.019.572.572 0 0 1-.328-.268.982.982 0 0 1-.09-.251 1.708 1.708 0 0 1-.03-.339v-.335c0-.161.015-.297.047-.408a.72.72 0 0 1 .137-.271.502.502 0 0 1 .211-.153.752.752 0 0 1 .275-.048.76.76 0 0 1 .225.031.51.51 0 0 1 .186.094.55.55 0 0 1 .141.169.863.863 0 0 1 .09.249c.02.096.031.209.031.337Zm-.339.383v-.434a1.51 1.51 0 0 0-.014-.215.649.649 0 0 0-.043-.159.316.316 0 0 0-.067-.107.233.233 0 0 0-.093-.06.334.334 0 0 0-.257.011.251.251 0 0 0-.104.096.523.523 0 0 0-.065.174 1.372 1.372 0 0 0-.021.26v.434c0 .082.005.155.014.217a.657.657 0 0 0 .042.162.381.381 0 0 0 .068.11.254.254 0 0 0 .092.062.342.342 0 0 0 .117.019.32.32 0 0 0 .142-.03.265.265 0 0 0 .104-.099.556.556 0 0 0 .064-.179 1.41 1.41 0 0 0 .021-.262Z" fill="#000" fill-opacity=".38"/><rect x="177.75" y="131.682" width="158.5" height="158.5" rx="39.25" fill="#F4F8FE" stroke="#3E9AF8" stroke-width="1.5"/><path d="M217.759 247.297c-20.88 0-20.88-18.195-20.88-28.68v-14.16c0-10.485 0-29.16 20.88-29.16h78.42c20.76 0 20.7 18.727 20.7 29.16v14.16c0 10.433 0 28.68-20.7 28.68h-78.42Z" fill="#EBEBEB"/><path d="M217.759 247.177c-5.202 0-9.094-1.133-12.007-2.988-2.913-1.855-4.856-4.437-6.153-7.349-2.598-5.832-2.6-12.976-2.6-18.223v-14.16c0-5.247.002-12.511 2.6-18.464 1.298-2.973 3.241-5.614 6.154-7.514 2.913-1.899 6.804-3.062 12.006-3.062H296.179c5.172 0 9.036 1.166 11.926 3.069 2.891 1.903 4.816 4.55 6.099 7.526 2.555 5.929 2.555 13.149 2.555 18.365V218.617c0 5.221-.002 12.365-2.577 18.204-1.287 2.916-3.213 5.502-6.101 7.361-2.887 1.859-6.745 2.995-11.902 2.995h-78.42Z" stroke="#000" stroke-opacity=".87" stroke-width=".24"/><mask id="b" style="mask-type:alpha" maskUnits="userSpaceOnUse" x="197" y="175" width="120" height="73"><path d="M217.918 247.059c-20.797 0-20.797-18.074-20.797-28.489V204.504c0-10.415 0-28.965 20.797-28.965h78.106c20.677 0 20.617 18.602 20.617 28.965V218.57c0 10.363 0 28.489-20.617 28.489h-78.106Z" fill="#EEE"/><path d="M217.918 246.939c-5.182 0-9.058-1.126-11.959-2.968-2.901-1.843-4.837-4.407-6.129-7.3-2.587-5.793-2.589-12.889-2.589-18.101V204.504c0-5.212.002-12.427 2.59-18.34 1.292-2.953 3.228-5.577 6.129-7.464 2.901-1.886 6.777-3.041 11.958-3.041H296.024c5.151 0 9 1.158 11.879 3.048 2.878 1.891 4.796 4.52 6.073 7.476 2.545 5.889 2.545 13.061 2.545 18.242V218.57c0 5.186-.002 12.282-2.567 18.082-1.281 2.896-3.2 5.465-6.076 7.312-2.876 1.846-6.718 2.975-11.854 2.975h-78.106Z" stroke="#000" stroke-opacity=".87" stroke-width=".24"/></mask><g mask="url(#b)"><path fill="#C8DFF7" d="M197.121 196.779h119.52v50.28h-119.52z"/></g><path stroke="#000" stroke-opacity=".38" stroke-width=".36" d="M221.84 175.718h3.84"/><path stroke="#000" stroke-opacity=".12" stroke-width=".36" d="M223.281 177.142h2.4M223.281 178.564h2.4M223.281 179.988h2.4M223.281 181.412h2.4"/><path stroke="#000" stroke-opacity=".38" stroke-width=".36" d="M221.84 182.834h3.84"/><path stroke="#000" stroke-opacity=".12" stroke-width=".36" d="M223.281 184.258h2.4M223.281 185.681h2.4M223.281 187.103h2.4M223.281 188.527h2.4"/><path stroke="#000" stroke-opacity=".38" stroke-width=".36" d="M221.84 189.951h3.84"/><path stroke="#000" stroke-opacity=".12" stroke-width=".36" d="M223.281 191.373h2.4M223.281 192.797h2.4M223.281 194.22h2.4M223.281 195.642h2.4"/><path stroke="#000" stroke-opacity=".38" stroke-width=".36" d="M221.84 197.066h3.84"/><path stroke="#000" stroke-opacity=".12" stroke-width=".36" d="M223.281 198.49h2.4M223.281 199.914h2.4M223.281 201.336h2.4M223.281 202.759h2.4"/><path stroke="#000" stroke-opacity=".38" stroke-width=".36" d="M221.84 204.183h3.84"/><path stroke="#000" stroke-opacity=".12" stroke-width=".36" d="M223.281 205.605h2.4M223.281 207.029h2.4M223.281 208.453h2.4M223.281 209.875h2.4"/><path stroke="#000" stroke-opacity=".38" stroke-width=".36" d="M221.84 211.299h3.84"/><path stroke="#000" stroke-opacity=".12" stroke-width=".36" d="M223.281 212.722h2.4M223.281 214.144h2.4M223.281 215.568h2.4M223.281 216.992h2.4"/><path stroke="#000" stroke-opacity=".38" stroke-width=".36" d="M221.84 218.414h3.84"/><path stroke="#000" stroke-opacity=".12" stroke-width=".36" d="M223.281 219.838h2.4M223.281 221.261h2.4M223.281 222.683h2.4M223.281 224.107h2.4"/><path stroke="#000" stroke-opacity=".38" stroke-width=".36" d="M221.84 225.531h3.84"/><path stroke="#000" stroke-opacity=".12" stroke-width=".36" d="M223.281 226.953h2.4M223.281 228.377h2.4M223.281 229.8h2.4M223.281 231.222h2.4"/><path stroke="#000" stroke-opacity=".38" stroke-width=".36" d="M221.84 232.646h3.84"/><path stroke="#000" stroke-opacity=".12" stroke-width=".36" d="M223.281 234.07h2.4M223.281 235.492h2.4M223.281 236.916h2.4M223.281 238.34h2.4"/><path stroke="#000" stroke-opacity=".38" stroke-width=".36" d="M221.84 239.763h3.84"/><path stroke="#000" stroke-opacity=".12" stroke-width=".36" d="M223.281 241.185h2.4M223.281 242.609h2.4M223.281 244.033h2.4M223.281 245.455h2.4"/><path stroke="#000" stroke-opacity=".38" stroke-width=".36" d="M221.84 246.879h3.84"/><path d="M216.988 175.485v2.054h-.339v-1.652l-.502.17v-.28l.801-.292h.04Zm2.076.859v.334c0 .161-.016.298-.047.411a.71.71 0 0 1-.135.274.53.53 0 0 1-.213.155.723.723 0 0 1-.274.049.77.77 0 0 1-.225-.031.552.552 0 0 1-.328-.267.976.976 0 0 1-.09-.252 1.689 1.689 0 0 1-.031-.339v-.334c0-.161.016-.297.048-.408a.712.712 0 0 1 .137-.271.513.513 0 0 1 .211-.154.752.752 0 0 1 .275-.048c.082 0 .157.011.225.031a.52.52 0 0 1 .326.263c.04.069.07.152.09.249.021.097.031.209.031.338Zm-.339.382v-.433c0-.081-.004-.153-.014-.215a.61.61 0 0 0-.042-.159.321.321 0 0 0-.067-.107.233.233 0 0 0-.093-.06.334.334 0 0 0-.117-.02.304.304 0 0 0-.14.031.26.26 0 0 0-.105.096.524.524 0 0 0-.064.174 1.372 1.372 0 0 0-.021.26v.433c0 .083.004.155.014.218a.657.657 0 0 0 .042.162.403.403 0 0 0 .067.11.28.28 0 0 0 .093.062.342.342 0 0 0 .117.019.31.31 0 0 0 .142-.031.256.256 0 0 0 .104-.098.542.542 0 0 0 .063-.179 1.42 1.42 0 0 0 .021-.263Zm2.006-.382v.334c0 .161-.016.298-.048.411a.71.71 0 0 1-.135.274.521.521 0 0 1-.212.155.723.723 0 0 1-.274.049.77.77 0 0 1-.225-.031.543.543 0 0 1-.328-.267.976.976 0 0 1-.09-.252 1.689 1.689 0 0 1-.031-.339v-.334c0-.161.016-.297.048-.408a.711.711 0 0 1 .136-.271.526.526 0 0 1 .211-.154.762.762 0 0 1 .276-.048c.082 0 .157.011.225.031a.53.53 0 0 1 .326.263c.04.069.07.152.09.249.021.097.031.209.031.338Zm-.339.382v-.433c0-.081-.004-.153-.014-.215a.61.61 0 0 0-.042-.159.321.321 0 0 0-.067-.107.248.248 0 0 0-.093-.06.334.334 0 0 0-.117-.02.31.31 0 0 0-.141.031.257.257 0 0 0-.104.096.524.524 0 0 0-.064.174 1.372 1.372 0 0 0-.021.26v.433c0 .083.004.155.014.218a.657.657 0 0 0 .042.162.403.403 0 0 0 .067.11.271.271 0 0 0 .21.081.31.31 0 0 0 .142-.031.256.256 0 0 0 .104-.098.542.542 0 0 0 .063-.179 1.42 1.42 0 0 0 .021-.263ZM218.003 184.149h.028c.13 0 .238-.017.324-.051a.512.512 0 0 0 .319-.358 1 1 0 0 0 .034-.269v-.353a.795.795 0 0 0-.027-.219.45.45 0 0 0-.073-.159.309.309 0 0 0-.108-.097.271.271 0 0 0-.131-.033.289.289 0 0 0-.242.13.467.467 0 0 0-.063.139.68.68 0 0 0-.002.332.481.481 0 0 0 .062.138c.027.04.062.072.103.095a.348.348 0 0 0 .405-.077.41.41 0 0 0 .108-.249l.13.039a.523.523 0 0 1-.045.211.661.661 0 0 1-.304.324.594.594 0 0 1-.483-.004.56.56 0 0 1-.185-.152.678.678 0 0 1-.11-.22.923.923 0 0 1 .009-.537.694.694 0 0 1 .13-.228.598.598 0 0 1 .208-.154.664.664 0 0 1 .28-.057.607.607 0 0 1 .502.244.795.795 0 0 1 .13.264c.029.1.043.208.043.323v.12c0 .121-.01.238-.032.35a1.212 1.212 0 0 1-.105.311.837.837 0 0 1-.477.418 1.216 1.216 0 0 1-.397.059h-.031v-.28Zm2.729-.928v.334c0 .161-.016.298-.048.411a.71.71 0 0 1-.135.274.528.528 0 0 1-.212.155.728.728 0 0 1-.275.049.78.78 0 0 1-.225-.031.538.538 0 0 1-.327-.267.907.907 0 0 1-.09-.252 1.619 1.619 0 0 1-.031-.339v-.334c0-.162.016-.297.048-.408a.723.723 0 0 1 .136-.272.52.52 0 0 1 .211-.153.805.805 0 0 1 .501-.017.544.544 0 0 1 .326.263.886.886 0 0 1 .09.249c.021.097.031.209.031.338Zm-.339.382v-.433a1.51 1.51 0 0 0-.014-.215.651.651 0 0 0-.042-.159.323.323 0 0 0-.068-.107.233.233 0 0 0-.093-.06.324.324 0 0 0-.116-.02c-.053 0-.1.01-.141.031a.25.25 0 0 0-.104.096.523.523 0 0 0-.065.174 1.372 1.372 0 0 0-.021.26v.433c0 .083.005.155.014.218a.76.76 0 0 0 .042.162.404.404 0 0 0 .068.11.247.247 0 0 0 .093.061.31.31 0 0 0 .116.02c.054 0 .101-.01.143-.031a.262.262 0 0 0 .104-.098.542.542 0 0 0 .063-.179 1.42 1.42 0 0 0 .021-.263ZM219.069 190.733a.562.562 0 0 1-.088.322.557.557 0 0 1-.242.198.853.853 0 0 1-.343.066.863.863 0 0 1-.345-.066.557.557 0 0 1-.242-.198.562.562 0 0 1-.088-.322.516.516 0 0 1 .188-.408.642.642 0 0 1 .214-.117.859.859 0 0 1 .27-.041c.129 0 .245.024.347.072a.592.592 0 0 1 .241.198.504.504 0 0 1 .088.296Zm-.34-.017a.368.368 0 0 0-.042-.18.296.296 0 0 0-.118-.12.36.36 0 0 0-.176-.042.353.353 0 0 0-.176.042.294.294 0 0 0-.117.12.38.38 0 0 0-.04.18.38.38 0 0 0 .04.18c.028.05.066.088.117.114.051.026.11.039.179.039a.379.379 0 0 0 .177-.039.27.27 0 0 0 .115-.114.38.38 0 0 0 .041-.18Zm.294-.934a.47.47 0 0 1-.082.273.541.541 0 0 1-.222.188.744.744 0 0 1-.323.068.762.762 0 0 1-.327-.068.557.557 0 0 1-.223-.188.476.476 0 0 1-.08-.273c0-.122.026-.224.08-.308a.531.531 0 0 1 .223-.193.764.764 0 0 1 .325-.066c.122 0 .23.022.325.066a.517.517 0 0 1 .304.501Zm-.339.011a.329.329 0 0 0-.037-.16.264.264 0 0 0-.099-.11.296.296 0 0 0-.154-.039.3.3 0 0 0-.153.038.259.259 0 0 0-.1.107.364.364 0 0 0-.035.164c0 .063.012.118.035.165a.267.267 0 0 0 .1.108.3.3 0 0 0 .155.04.29.29 0 0 0 .153-.04.267.267 0 0 0 .1-.108.371.371 0 0 0 .035-.165Zm2.048.303v.334c0 .161-.016.298-.048.411a.71.71 0 0 1-.135.274.528.528 0 0 1-.212.155.728.728 0 0 1-.275.049.78.78 0 0 1-.225-.031.538.538 0 0 1-.327-.267.907.907 0 0 1-.09-.252 1.619 1.619 0 0 1-.031-.339v-.334c0-.162.016-.297.048-.408a.723.723 0 0 1 .136-.272.52.52 0 0 1 .211-.153.805.805 0 0 1 .501-.017.544.544 0 0 1 .326.263.886.886 0 0 1 .09.249c.021.097.031.209.031.338Zm-.339.382v-.433a1.51 1.51 0 0 0-.014-.215.651.651 0 0 0-.042-.159.323.323 0 0 0-.068-.107.233.233 0 0 0-.093-.06.324.324 0 0 0-.116-.02c-.053 0-.1.01-.141.031a.25.25 0 0 0-.104.096.523.523 0 0 0-.065.174 1.372 1.372 0 0 0-.021.26v.433c0 .083.005.155.014.218a.76.76 0 0 0 .042.162.404.404 0 0 0 .068.11.247.247 0 0 0 .093.061.31.31 0 0 0 .116.02c.054 0 .101-.01.143-.031a.262.262 0 0 0 .104-.098.542.542 0 0 0 .063-.179 1.42 1.42 0 0 0 .021-.263ZM219.09 196.12v.186l-.818 1.862h-.357l.817-1.778h-1.061v-.27h1.419Zm1.642.853v.334c0 .161-.016.298-.048.411a.718.718 0 0 1-.135.274.528.528 0 0 1-.212.155.728.728 0 0 1-.275.049.78.78 0 0 1-.225-.031.538.538 0 0 1-.327-.267.907.907 0 0 1-.09-.252 1.619 1.619 0 0 1-.031-.339v-.334c0-.162.016-.298.048-.408a.723.723 0 0 1 .136-.272.52.52 0 0 1 .211-.153.805.805 0 0 1 .501-.017.544.544 0 0 1 .326.263.886.886 0 0 1 .09.249c.021.097.031.209.031.338Zm-.339.382v-.433a1.5 1.5 0 0 0-.014-.215.651.651 0 0 0-.042-.159.323.323 0 0 0-.068-.107.233.233 0 0 0-.093-.06.324.324 0 0 0-.116-.02c-.053 0-.1.01-.141.031a.25.25 0 0 0-.104.096.523.523 0 0 0-.065.174 1.372 1.372 0 0 0-.021.26v.433c0 .083.005.155.014.218a.76.76 0 0 0 .042.162.42.42 0 0 0 .068.11.247.247 0 0 0 .093.061.31.31 0 0 0 .116.02c.054 0 .101-.01.143-.031a.262.262 0 0 0 .104-.098.542.542 0 0 0 .063-.179 1.42 1.42 0 0 0 .021-.263ZM218.754 202.983h.042v.277h-.023a.808.808 0 0 0-.314.056.58.58 0 0 0-.215.155.652.652 0 0 0-.127.23.941.941 0 0 0-.041.279v.322c0 .081.009.154.027.216a.487.487 0 0 0 .075.157.303.303 0 0 0 .249.126.297.297 0 0 0 .243-.119.4.4 0 0 0 .066-.134.606.606 0 0 0-.063-.467.29.29 0 0 0-.106-.091.288.288 0 0 0-.143-.034.358.358 0 0 0-.184.048.389.389 0 0 0-.133.125.331.331 0 0 0-.053.162l-.129-.043a.705.705 0 0 1 .057-.234.576.576 0 0 1 .125-.178.55.55 0 0 1 .179-.111.625.625 0 0 1 .225-.039c.099 0 .186.019.259.056a.527.527 0 0 1 .181.153.637.637 0 0 1 .108.22.866.866 0 0 1-.008.531.65.65 0 0 1-.132.223.603.603 0 0 1-.21.149.696.696 0 0 1-.278.053.637.637 0 0 1-.512-.238.798.798 0 0 1-.135-.255 1 1 0 0 1-.046-.307v-.141c0-.155.019-.302.059-.44a1.06 1.06 0 0 1 .181-.367.847.847 0 0 1 .316-.249c.129-.061.282-.091.46-.091Zm1.978.865v.334c0 .161-.016.298-.048.411a.718.718 0 0 1-.135.274.528.528 0 0 1-.212.155.728.728 0 0 1-.275.049.78.78 0 0 1-.225-.031.538.538 0 0 1-.327-.267.907.907 0 0 1-.09-.252 1.619 1.619 0 0 1-.031-.339v-.334c0-.162.016-.298.048-.408a.723.723 0 0 1 .136-.272.52.52 0 0 1 .211-.153.805.805 0 0 1 .501-.017.544.544 0 0 1 .326.263.886.886 0 0 1 .09.249c.021.097.031.209.031.338Zm-.339.382v-.433a1.5 1.5 0 0 0-.014-.215.651.651 0 0 0-.042-.159.323.323 0 0 0-.068-.107.233.233 0 0 0-.093-.06.324.324 0 0 0-.116-.02c-.053 0-.1.01-.141.031a.25.25 0 0 0-.104.096.523.523 0 0 0-.065.174 1.372 1.372 0 0 0-.021.26v.433c0 .083.005.155.014.218a.76.76 0 0 0 .042.162.42.42 0 0 0 .068.11.247.247 0 0 0 .093.061.31.31 0 0 0 .116.02c.054 0 .101-.01.143-.031a.262.262 0 0 0 .104-.098.542.542 0 0 0 .063-.179 1.42 1.42 0 0 0 .021-.263ZM218.086 210.968l-.27-.066.111-1.03h1.104v.287h-.822l-.057.502a.714.714 0 0 1 .325-.083.66.66 0 0 1 .259.048.511.511 0 0 1 .195.137.587.587 0 0 1 .123.216.91.91 0 0 1 0 .551.61.61 0 0 1-.124.218.566.566 0 0 1-.21.148.76.76 0 0 1-.296.052.8.8 0 0 1-.246-.037.66.66 0 0 1-.21-.111.563.563 0 0 1-.149-.182.646.646 0 0 1-.065-.252h.332a.448.448 0 0 0 .055.17.29.29 0 0 0 .115.105.356.356 0 0 0 .166.037c.058 0 .107-.01.148-.029a.29.29 0 0 0 .103-.088.4.4 0 0 0 .062-.135.646.646 0 0 0-.003-.336.356.356 0 0 0-.069-.129.295.295 0 0 0-.114-.085.396.396 0 0 0-.159-.03.392.392 0 0 0-.186.035.57.57 0 0 0-.118.087Zm2.646-.243v.334c0 .161-.016.297-.048.411a.718.718 0 0 1-.135.274.537.537 0 0 1-.212.155.728.728 0 0 1-.275.049.78.78 0 0 1-.225-.031.556.556 0 0 1-.327-.267.907.907 0 0 1-.09-.252 1.619 1.619 0 0 1-.031-.339v-.334c0-.162.016-.298.048-.408a.723.723 0 0 1 .136-.272.52.52 0 0 1 .211-.153.805.805 0 0 1 .501-.017.53.53 0 0 1 .326.263.886.886 0 0 1 .09.249c.021.097.031.209.031.338Zm-.339.382v-.433a1.5 1.5 0 0 0-.014-.215.651.651 0 0 0-.042-.159.323.323 0 0 0-.068-.107.233.233 0 0 0-.093-.06.304.304 0 0 0-.116-.02c-.053 0-.1.01-.141.031a.254.254 0 0 0-.104.095.538.538 0 0 0-.065.175 1.372 1.372 0 0 0-.021.26v.433c0 .083.005.155.014.218a.76.76 0 0 0 .042.162c.019.044.042.08.068.109a.238.238 0 0 0 .093.062c.035.013.074.02.116.02.054 0 .101-.01.143-.031a.27.27 0 0 0 .104-.098.542.542 0 0 0 .063-.179 1.42 1.42 0 0 0 .021-.263ZM219.141 218.065v.27h-1.477l-.011-.204.883-1.384h.272l-.294.504-.508.814h1.135Zm-.256-1.318v2.048h-.339v-2.048h.339Zm1.847.853v.334c0 .161-.016.297-.048.411a.718.718 0 0 1-.135.274.537.537 0 0 1-.212.155.728.728 0 0 1-.275.049.78.78 0 0 1-.225-.031.556.556 0 0 1-.327-.267.907.907 0 0 1-.09-.252 1.619 1.619 0 0 1-.031-.339v-.334c0-.162.016-.298.048-.408a.723.723 0 0 1 .136-.272.52.52 0 0 1 .211-.153.805.805 0 0 1 .501-.017.53.53 0 0 1 .326.263.886.886 0 0 1 .09.249c.021.097.031.209.031.338Zm-.339.382v-.433a1.5 1.5 0 0 0-.014-.215.651.651 0 0 0-.042-.159.323.323 0 0 0-.068-.107.233.233 0 0 0-.093-.06.304.304 0 0 0-.116-.02c-.053 0-.1.01-.141.031a.254.254 0 0 0-.104.095.538.538 0 0 0-.065.175 1.372 1.372 0 0 0-.021.26v.433c0 .083.005.155.014.218a.76.76 0 0 0 .042.162c.019.044.042.08.068.109a.238.238 0 0 0 .093.062c.035.013.074.02.116.02.054 0 .101-.01.143-.031a.27.27 0 0 0 .104-.098.542.542 0 0 0 .063-.179 1.42 1.42 0 0 0 .021-.263ZM218.128 224.495h.203a.415.415 0 0 0 .195-.041.265.265 0 0 0 .117-.112.352.352 0 0 0 .038-.165.367.367 0 0 0-.035-.166.236.236 0 0 0-.104-.108.367.367 0 0 0-.176-.038.365.365 0 0 0-.163.036.275.275 0 0 0-.156.256h-.34c0-.108.028-.205.085-.289a.585.585 0 0 1 .234-.199.758.758 0 0 1 .334-.073c.133 0 .248.022.346.066.1.043.177.108.232.194a.58.58 0 0 1 .083.321.428.428 0 0 1-.04.177.54.54 0 0 1-.321.284.785.785 0 0 1-.277.045h-.255v-.188Zm0 .264v-.185h.255c.12 0 .222.014.307.042a.557.557 0 0 1 .208.117.432.432 0 0 1 .116.167.596.596 0 0 1-.014.455.507.507 0 0 1-.145.189.662.662 0 0 1-.22.117.92.92 0 0 1-.526.002.68.68 0 0 1-.217-.108.543.543 0 0 1-.152-.181.567.567 0 0 1-.055-.253h.339c0 .061.014.114.043.161a.305.305 0 0 0 .121.109.397.397 0 0 0 .18.039.42.42 0 0 0 .184-.038.266.266 0 0 0 .118-.112.363.363 0 0 0 .042-.18.366.366 0 0 0-.046-.195.272.272 0 0 0-.133-.109.5.5 0 0 0-.202-.037h-.203Zm2.604-.282v.334c0 .161-.016.297-.048.411a.718.718 0 0 1-.135.274.537.537 0 0 1-.212.155.728.728 0 0 1-.275.049.78.78 0 0 1-.225-.031.556.556 0 0 1-.327-.267.907.907 0 0 1-.09-.252 1.619 1.619 0 0 1-.031-.339v-.334c0-.162.016-.298.048-.408a.723.723 0 0 1 .136-.272.52.52 0 0 1 .211-.153.805.805 0 0 1 .501-.017.53.53 0 0 1 .326.263.886.886 0 0 1 .09.249c.021.097.031.209.031.338Zm-.339.382v-.433a1.5 1.5 0 0 0-.014-.215.651.651 0 0 0-.042-.159.323.323 0 0 0-.068-.107.233.233 0 0 0-.093-.06.304.304 0 0 0-.116-.02c-.053 0-.1.01-.141.031a.248.248 0 0 0-.104.095.53.53 0 0 0-.065.175 1.372 1.372 0 0 0-.021.26v.433c0 .083.005.155.014.218a.76.76 0 0 0 .042.162c.019.044.042.08.068.109a.238.238 0 0 0 .093.062c.035.013.074.02.116.02.054 0 .101-.01.143-.031a.27.27 0 0 0 .104-.098.542.542 0 0 0 .063-.179 1.42 1.42 0 0 0 .021-.263ZM219.103 232.277v.27h-1.373v-.232l.667-.727a2.59 2.59 0 0 0 .173-.214.703.703 0 0 0 .089-.162.427.427 0 0 0 .026-.142.383.383 0 0 0-.036-.17.274.274 0 0 0-.104-.117.309.309 0 0 0-.168-.043.348.348 0 0 0-.191.049.317.317 0 0 0-.117.136.474.474 0 0 0-.039.197h-.339c0-.119.027-.227.082-.326a.595.595 0 0 1 .236-.236.738.738 0 0 1 .373-.089c.136 0 .253.023.348.069a.485.485 0 0 1 .218.196.566.566 0 0 1 .076.299c0 .064-.01.127-.031.19a.861.861 0 0 1-.088.188 1.551 1.551 0 0 1-.134.187 3.148 3.148 0 0 1-.17.189l-.443.488h.945Zm1.629-.925v.334c0 .161-.016.297-.048.411a.718.718 0 0 1-.135.274.537.537 0 0 1-.212.155.728.728 0 0 1-.275.049.78.78 0 0 1-.225-.031.556.556 0 0 1-.327-.267.907.907 0 0 1-.09-.252 1.619 1.619 0 0 1-.031-.339v-.334c0-.162.016-.298.048-.408a.723.723 0 0 1 .136-.272.52.52 0 0 1 .211-.153.805.805 0 0 1 .501-.017.53.53 0 0 1 .326.263.886.886 0 0 1 .09.249c.021.097.031.209.031.338Zm-.339.382v-.433a1.5 1.5 0 0 0-.014-.215.651.651 0 0 0-.042-.159.323.323 0 0 0-.068-.107.233.233 0 0 0-.093-.06.304.304 0 0 0-.116-.02c-.053 0-.1.01-.141.031a.248.248 0 0 0-.104.095.53.53 0 0 0-.065.175 1.372 1.372 0 0 0-.021.26v.433c0 .083.005.155.014.218a.76.76 0 0 0 .042.162c.019.044.042.08.068.109a.238.238 0 0 0 .093.062c.035.013.074.02.116.02.054 0 .101-.01.143-.031a.27.27 0 0 0 .104-.098.542.542 0 0 0 .063-.179 1.42 1.42 0 0 0 .021-.263ZM218.656 237.369v2.055h-.339v-1.653l-.502.171v-.28l.8-.293h.041Zm2.076.86v.334c0 .161-.016.297-.048.411a.718.718 0 0 1-.135.274.537.537 0 0 1-.212.155.728.728 0 0 1-.275.049.78.78 0 0 1-.225-.031.556.556 0 0 1-.327-.267.907.907 0 0 1-.09-.252 1.619 1.619 0 0 1-.031-.339v-.334c0-.162.016-.298.048-.408a.723.723 0 0 1 .136-.272.52.52 0 0 1 .211-.153.805.805 0 0 1 .501-.017.53.53 0 0 1 .326.263.886.886 0 0 1 .09.249c.021.097.031.209.031.338Zm-.339.382v-.433a1.5 1.5 0 0 0-.014-.215.651.651 0 0 0-.042-.159.323.323 0 0 0-.068-.107.247.247 0 0 0-.093-.061.325.325 0 0 0-.116-.019c-.053 0-.1.01-.141.031a.248.248 0 0 0-.104.095.53.53 0 0 0-.065.175 1.372 1.372 0 0 0-.021.26v.433c0 .083.005.155.014.218a.76.76 0 0 0 .042.162c.019.044.042.08.068.109a.238.238 0 0 0 .093.062c.035.013.074.02.116.02.054 0 .101-.01.143-.031a.27.27 0 0 0 .104-.098.542.542 0 0 0 .063-.179 1.42 1.42 0 0 0 .021-.263ZM220.732 245.104v.334c0 .161-.016.297-.048.411a.718.718 0 0 1-.135.274.537.537 0 0 1-.212.155.728.728 0 0 1-.275.049.78.78 0 0 1-.225-.031.556.556 0 0 1-.327-.267.907.907 0 0 1-.09-.252 1.619 1.619 0 0 1-.031-.339v-.334c0-.162.016-.298.048-.408a.723.723 0 0 1 .136-.272.52.52 0 0 1 .211-.153.805.805 0 0 1 .501-.017.53.53 0 0 1 .326.263.886.886 0 0 1 .09.249c.021.097.031.209.031.338Zm-.339.382v-.433a1.5 1.5 0 0 0-.014-.215.651.651 0 0 0-.042-.159.323.323 0 0 0-.068-.107.247.247 0 0 0-.093-.061.325.325 0 0 0-.116-.019c-.053 0-.1.01-.141.031a.248.248 0 0 0-.104.095.53.53 0 0 0-.065.175 1.372 1.372 0 0 0-.021.26v.433c0 .083.005.155.014.218a.76.76 0 0 0 .042.162c.019.044.042.08.068.109a.238.238 0 0 0 .093.062c.035.013.074.02.116.02.054 0 .101-.01.143-.031a.27.27 0 0 0 .104-.098.542.542 0 0 0 .063-.179 1.42 1.42 0 0 0 .021-.263Z" fill="#000" fill-opacity=".38"/><rect x=".75" y="59.682" width="158.5" height="158.5" rx="39.25" fill="#F4F8FE" stroke="#3E9AF8" stroke-width="1.5"/><path d="M20 103.299s0-24 28-24h64c28 0 28 24 28 24v72s0 24-28 24H48c-28 0-28-24-28-24v-72Z" fill="#EBEBEB"/><path d="M20 103.299h.2v-.065l.007-.197c.006-.173.02-.428.047-.753.054-.65.163-1.58.38-2.697.434-2.234 1.303-5.212 3.039-8.187C27.137 85.462 34.07 79.499 48 79.499h64c13.93 0 20.863 5.963 24.327 11.9 1.736 2.976 2.605 5.953 3.039 8.188a25.25 25.25 0 0 1 .38 2.697c.027.325.041.58.047.753l.004.123.002.074.001.049v72.031l-.001.05c-.001.044-.002.11-.006.197-.006.173-.02.428-.047.752a25.228 25.228 0 0 1-.38 2.698c-.434 2.234-1.303 5.212-3.039 8.187-3.464 5.938-10.397 11.901-24.327 11.901H48c-13.93 0-20.863-5.963-24.327-11.901-1.736-2.975-2.605-5.953-3.04-8.187a25.219 25.219 0 0 1-.379-2.698 16.997 16.997 0 0 1-.053-.949v-.05l-.001-.012v-72.003H20Z" stroke="#000" stroke-opacity=".87" stroke-width=".4"/><mask id="c" style="mask-type:alpha" maskUnits="userSpaceOnUse" x="20" y="79" width="120" height="120"><path d="M20.398 103.541s0-23.84 27.814-23.84h63.573c27.813 0 27.813 23.84 27.813 23.84v71.52s0 23.84-27.813 23.84H48.212c-27.814 0-27.814-23.84-27.814-23.84v-71.52Z" fill="#EEE"/><path d="M20.398 103.541h.2v-.015l.001-.049.006-.196c.007-.172.02-.425.047-.748.054-.645.162-1.569.377-2.679.432-2.22 1.295-5.177 3.019-8.132 3.44-5.898 10.328-11.82 24.164-11.82H111.785c13.836 0 20.724 5.922 24.164 11.82 1.724 2.956 2.587 5.913 3.019 8.132.215 1.11.323 2.034.377 2.679a17.436 17.436 0 0 1 .053.944v71.649l-.006.195c-.007.172-.02.425-.047.748-.054.646-.162 1.57-.377 2.679-.432 2.22-1.295 5.177-3.019 8.132-3.44 5.898-10.328 11.821-24.164 11.821H48.212c-13.836 0-20.724-5.923-24.164-11.821-1.724-2.955-2.587-5.912-3.019-8.132a25.042 25.042 0 0 1-.377-2.679 17.11 17.11 0 0 1-.053-.943v-71.585h-.2Z" stroke="#000" stroke-opacity=".87" stroke-width=".4"/></mask><g mask="url(#c)"><path fill="#C8DFF7" d="M20 115.502h120v83.8H20z"/></g><path stroke="#000" stroke-opacity=".38" stroke-width=".6" d="M53.598 79.8h6.4"/><path stroke="#000" stroke-opacity=".12" stroke-width=".6" d="M55.996 82.177h4M55.996 84.552h4M55.996 86.928h4M55.996 89.303h4"/><path stroke="#000" stroke-opacity=".38" stroke-width=".6" d="M53.598 91.68h6.4"/><path stroke="#000" stroke-opacity=".12" stroke-width=".6" d="M55.996 94.055h4M55.996 96.432h4M55.996 98.807h4M55.996 101.184h4"/><path stroke="#000" stroke-opacity=".38" stroke-width=".6" d="M53.598 103.559h6.4"/><path stroke="#000" stroke-opacity=".12" stroke-width=".6" d="M55.996 105.936h4M55.996 108.311h4M55.996 110.688h4M55.996 113.063h4"/><path stroke="#000" stroke-opacity=".38" stroke-width=".6" d="M53.598 115.44h6.4"/><path stroke="#000" stroke-opacity=".12" stroke-width=".6" d="M55.996 117.815h4M55.996 120.192h4M55.996 122.567h4M55.996 124.944h4"/><path stroke="#000" stroke-opacity=".38" stroke-width=".6" d="M53.598 127.319h6.4"/><path stroke="#000" stroke-opacity=".12" stroke-width=".6" d="M55.996 129.696h4M55.996 132.071h4M55.996 134.448h4M55.996 136.823h4"/><path stroke="#000" stroke-opacity=".38" stroke-width=".6" d="M53.598 139.2h6.4"/><path stroke="#000" stroke-opacity=".12" stroke-width=".6" d="M55.996 141.575h4M55.996 143.952h4M55.996 146.327h4M55.996 148.704h4"/><path stroke="#000" stroke-opacity=".38" stroke-width=".6" d="M53.598 151.079h6.4"/><path stroke="#000" stroke-opacity=".12" stroke-width=".6" d="M55.996 153.456h4M55.996 155.831h4M55.996 158.208h4M55.996 160.583h4"/><path stroke="#000" stroke-opacity=".38" stroke-width=".6" d="M53.598 162.96h6.4"/><path stroke="#000" stroke-opacity=".12" stroke-width=".6" d="M55.996 165.335h4M55.996 167.712h4M55.996 170.087h4M55.996 172.464h4"/><path stroke="#000" stroke-opacity=".38" stroke-width=".6" d="M53.598 174.839h6.4"/><path stroke="#000" stroke-opacity=".12" stroke-width=".6" d="M55.996 177.216h4M55.996 179.591h4M55.996 181.968h4M55.996 184.345h4"/><path stroke="#000" stroke-opacity=".38" stroke-width=".6" d="M53.598 186.72h6.4"/><path stroke="#000" stroke-opacity=".12" stroke-width=".6" d="M55.996 189.096h4M55.996 191.471h4M55.996 193.848h4M55.996 196.223h4"/><path stroke="#000" stroke-opacity=".38" stroke-width=".6" d="M53.598 198.6h6.4"/><path d="M45.516 79.875v3.424h-.565v-2.754l-.837.284v-.467l1.334-.487h.068Zm3.46 1.432v.558c0 .267-.027.495-.08.684-.052.187-.127.34-.225.457a.884.884 0 0 1-.354.258 1.215 1.215 0 0 1-.457.082 1.31 1.31 0 0 1-.375-.052.913.913 0 0 1-.546-.445 1.586 1.586 0 0 1-.15-.42 2.75 2.75 0 0 1-.052-.564v-.558c0-.27.027-.496.08-.68.053-.186.13-.337.227-.452a.867.867 0 0 1 .352-.256c.138-.053.29-.08.46-.08.135 0 .26.018.374.052a.879.879 0 0 1 .544.438c.066.114.116.253.15.415.035.161.052.349.052.563Zm-.565.637v-.722c0-.136-.008-.255-.023-.358a1.064 1.064 0 0 0-.07-.265.528.528 0 0 0-.113-.178.396.396 0 0 0-.155-.101.546.546 0 0 0-.194-.033.517.517 0 0 0-.235.052.42.42 0 0 0-.173.159.87.87 0 0 0-.108.29 2.283 2.283 0 0 0-.035.434v.722c0 .138.008.259.023.363.016.105.04.195.07.27a.653.653 0 0 0 .113.183.423.423 0 0 0 .155.103c.059.022.124.033.194.033a.522.522 0 0 0 .237-.052.434.434 0 0 0 .173-.164.895.895 0 0 0 .106-.298 2.36 2.36 0 0 0 .035-.438Zm3.343-.637v.558c0 .267-.027.495-.08.684-.051.187-.126.34-.225.457a.884.884 0 0 1-.354.258 1.215 1.215 0 0 1-.457.082 1.31 1.31 0 0 1-.375-.052.913.913 0 0 1-.546-.445 1.586 1.586 0 0 1-.15-.42 2.75 2.75 0 0 1-.051-.564v-.558c0-.27.026-.496.08-.68.052-.186.128-.337.227-.452a.866.866 0 0 1 .351-.256c.138-.053.29-.08.46-.08.136 0 .26.018.375.052a.88.88 0 0 1 .543.438c.066.114.116.253.15.415.035.161.052.349.052.563Zm-.565.637v-.722c0-.136-.008-.255-.023-.358a1.06 1.06 0 0 0-.07-.265.528.528 0 0 0-.113-.178.396.396 0 0 0-.155-.101.545.545 0 0 0-.194-.033.517.517 0 0 0-.235.052.422.422 0 0 0-.173.159.87.87 0 0 0-.108.29 2.274 2.274 0 0 0-.035.434v.722c0 .138.008.259.023.363.016.105.04.195.07.27a.649.649 0 0 0 .113.183.42.42 0 0 0 .155.103c.06.022.124.033.194.033a.522.522 0 0 0 .237-.052.433.433 0 0 0 .173-.164.893.893 0 0 0 .106-.298 2.36 2.36 0 0 0 .035-.438ZM47.205 94.353h.047c.215 0 .395-.028.539-.084a.86.86 0 0 0 .347-.239.924.924 0 0 0 .185-.359c.037-.137.056-.286.056-.447v-.589c0-.139-.015-.26-.045-.365a.757.757 0 0 0-.122-.265.518.518 0 0 0-.18-.162.454.454 0 0 0-.218-.053.462.462 0 0 0-.232.058.512.512 0 0 0-.171.157.772.772 0 0 0-.105.232 1.115 1.115 0 0 0-.002.553.77.77 0 0 0 .102.23.48.48 0 0 0 .413.218.586.586 0 0 0 .433-.188.67.67 0 0 0 .18-.415l.216.066a.878.878 0 0 1-.075.352 1.094 1.094 0 0 1-.203.314 1 1 0 0 1-.303.225.973.973 0 0 1-.804-.007.904.904 0 0 1-.31-.253 1.116 1.116 0 0 1-.182-.366 1.523 1.523 0 0 1 .014-.895c.05-.144.123-.27.218-.38a.98.98 0 0 1 .347-.258c.137-.062.293-.094.466-.094.185 0 .346.036.486.108.139.072.256.171.351.298.095.126.167.273.216.44.048.168.072.347.072.54v.199c0 .201-.018.396-.053.583a1.945 1.945 0 0 1-.176.518 1.386 1.386 0 0 1-.794.696 2.003 2.003 0 0 1-.662.099h-.051v-.466Zm4.547-1.546v.558c0 .267-.026.495-.08.684-.05.187-.126.34-.224.457a.885.885 0 0 1-.354.258 1.214 1.214 0 0 1-.457.082 1.31 1.31 0 0 1-.375-.052.914.914 0 0 1-.546-.445 1.593 1.593 0 0 1-.15-.42 2.75 2.75 0 0 1-.052-.564v-.558c0-.27.027-.496.08-.68.053-.186.129-.337.227-.452a.866.866 0 0 1 .352-.256c.137-.053.29-.08.459-.08.136 0 .261.018.375.052a.878.878 0 0 1 .544.438c.065.114.115.253.15.415.034.161.051.349.051.563Zm-.565.637v-.722c0-.136-.007-.255-.023-.358a1.064 1.064 0 0 0-.07-.265.525.525 0 0 0-.113-.178.395.395 0 0 0-.154-.101.546.546 0 0 0-.195-.033.516.516 0 0 0-.234.052.421.421 0 0 0-.174.159.87.87 0 0 0-.108.29 2.283 2.283 0 0 0-.035.434v.722c0 .138.008.259.024.363.015.105.039.195.07.27a.649.649 0 0 0 .113.183.422.422 0 0 0 .154.103c.06.022.124.033.195.033.089 0 .168-.017.236-.052a.434.434 0 0 0 .174-.164.895.895 0 0 0 .105-.298 2.35 2.35 0 0 0 .035-.438ZM48.981 105.368c0 .213-.049.392-.147.537a.928.928 0 0 1-.404.331c-.168.073-.359.11-.571.11-.213 0-.404-.037-.575-.11a.929.929 0 0 1-.403-.331.934.934 0 0 1-.147-.537.856.856 0 0 1 .314-.679c.101-.085.22-.15.356-.195a1.44 1.44 0 0 1 .45-.068c.215 0 .409.04.579.12.17.079.304.19.4.33a.838.838 0 0 1 .148.492Zm-.567-.028a.617.617 0 0 0-.07-.3.493.493 0 0 0-.197-.199.592.592 0 0 0-.293-.07.584.584 0 0 0-.293.07.497.497 0 0 0-.195.199.635.635 0 0 0-.068.3c0 .116.023.216.068.3.046.083.11.146.195.19a.635.635 0 0 0 .298.066.621.621 0 0 0 .295-.066.46.46 0 0 0 .192-.19.623.623 0 0 0 .068-.3Zm.49-1.556a.79.79 0 0 1-.136.455.925.925 0 0 1-.37.314 1.241 1.241 0 0 1-.54.112c-.202 0-.384-.037-.543-.112a.943.943 0 0 1-.373-.314.8.8 0 0 1-.133-.455c0-.203.044-.374.133-.513a.863.863 0 0 1 .373-.321c.158-.074.338-.111.541-.111s.384.037.542.111c.157.073.28.18.37.321a.92.92 0 0 1 .136.513Zm-.565.019a.559.559 0 0 0-.06-.267.429.429 0 0 0-.167-.183.48.48 0 0 0-.256-.066.497.497 0 0 0-.255.063.43.43 0 0 0-.167.179.592.592 0 0 0-.058.274c0 .104.02.196.058.274a.433.433 0 0 0 .167.18c.073.044.16.066.258.066a.48.48 0 0 0 .255-.066.434.434 0 0 0 .167-.18.607.607 0 0 0 .058-.274Zm3.413.504v.557c0 .268-.026.496-.08.685-.05.187-.126.34-.224.457a.889.889 0 0 1-.354.258 1.228 1.228 0 0 1-.457.082c-.135 0-.26-.017-.375-.052a.901.901 0 0 1-.31-.162.968.968 0 0 1-.236-.283 1.587 1.587 0 0 1-.15-.42 2.742 2.742 0 0 1-.052-.565v-.557c0-.269.027-.496.08-.68a1.19 1.19 0 0 1 .227-.452.858.858 0 0 1 .352-.256c.137-.053.29-.08.459-.08.136 0 .261.018.375.052a.878.878 0 0 1 .544.438c.065.114.115.253.15.415.034.161.051.349.051.563Zm-.565.637v-.722c0-.136-.007-.255-.023-.358a1.062 1.062 0 0 0-.07-.265.516.516 0 0 0-.113-.178.392.392 0 0 0-.154-.101.544.544 0 0 0-.195-.033.509.509 0 0 0-.234.052.418.418 0 0 0-.174.159.863.863 0 0 0-.108.291 2.273 2.273 0 0 0-.035.433v.722c0 .138.008.259.024.363.015.105.039.195.07.27a.663.663 0 0 0 .113.183.42.42 0 0 0 .154.103c.06.022.124.033.195.033.089 0 .168-.017.236-.052a.432.432 0 0 0 .174-.164.891.891 0 0 0 .105-.298c.024-.121.035-.268.035-.438ZM49.016 114.386v.31l-1.364 3.103h-.595l1.362-2.963h-1.767v-.45h2.364Zm2.736 1.421v.557c0 .268-.026.496-.08.685-.05.187-.126.34-.224.457a.889.889 0 0 1-.354.258 1.228 1.228 0 0 1-.457.082c-.135 0-.26-.017-.375-.052a.901.901 0 0 1-.31-.162.968.968 0 0 1-.236-.283 1.587 1.587 0 0 1-.15-.42 2.742 2.742 0 0 1-.052-.565v-.557c0-.269.027-.496.08-.68a1.19 1.19 0 0 1 .227-.452.858.858 0 0 1 .352-.256c.137-.053.29-.08.459-.08.136 0 .261.018.375.052a.878.878 0 0 1 .544.438c.065.114.115.253.15.415.034.161.051.349.051.563Zm-.565.637v-.722c0-.136-.007-.255-.023-.358a1.062 1.062 0 0 0-.07-.265.516.516 0 0 0-.113-.178.392.392 0 0 0-.154-.101.544.544 0 0 0-.195-.033.509.509 0 0 0-.234.052.418.418 0 0 0-.174.159.863.863 0 0 0-.108.291 2.273 2.273 0 0 0-.035.433v.722c0 .138.008.259.024.363.015.105.039.195.07.27a.663.663 0 0 0 .113.183.42.42 0 0 0 .154.103c.06.022.124.033.195.033.089 0 .168-.017.236-.052a.432.432 0 0 0 .174-.164.891.891 0 0 0 .105-.298c.024-.121.035-.268.035-.438ZM48.456 125.865h.07v.462h-.04a1.32 1.32 0 0 0-.522.094.953.953 0 0 0-.358.258 1.088 1.088 0 0 0-.212.384 1.55 1.55 0 0 0-.067.464v.537c0 .136.014.256.044.361.03.103.071.189.124.26a.57.57 0 0 0 .188.157c.07.036.146.054.227.054a.498.498 0 0 0 .406-.2.65.65 0 0 0 .11-.222 1.005 1.005 0 0 0 0-.553.68.68 0 0 0-.106-.225.497.497 0 0 0-.415-.209.606.606 0 0 0-.307.08.653.653 0 0 0-.22.208.54.54 0 0 0-.089.27l-.216-.07c.013-.146.045-.276.096-.392a.948.948 0 0 1 .21-.295.878.878 0 0 1 .297-.185c.114-.044.239-.066.375-.066.165 0 .31.031.431.094a.858.858 0 0 1 .302.255c.082.107.142.228.18.366a1.48 1.48 0 0 1-.013.886c-.05.141-.124.264-.22.37a1.002 1.002 0 0 1-.35.249c-.136.059-.29.089-.464.089-.183 0-.346-.035-.49-.106a1.076 1.076 0 0 1-.363-.29 1.33 1.33 0 0 1-.225-.427 1.663 1.663 0 0 1-.077-.511v-.234c0-.26.032-.504.098-.734.066-.231.167-.435.303-.612a1.42 1.42 0 0 1 .527-.414c.214-.102.47-.153.766-.153Zm3.296 1.442v.557c0 .268-.026.496-.08.685-.05.187-.126.34-.224.457a.889.889 0 0 1-.354.258 1.228 1.228 0 0 1-.457.082c-.135 0-.26-.017-.375-.052a.901.901 0 0 1-.31-.162.968.968 0 0 1-.236-.283 1.587 1.587 0 0 1-.15-.42 2.742 2.742 0 0 1-.052-.565v-.557c0-.269.027-.496.08-.68a1.19 1.19 0 0 1 .227-.452.858.858 0 0 1 .352-.256c.137-.053.29-.08.459-.08.136 0 .261.018.375.052a.878.878 0 0 1 .544.438c.065.114.115.253.15.415.034.161.051.349.051.563Zm-.565.637v-.722c0-.136-.007-.255-.023-.358a1.062 1.062 0 0 0-.07-.265.516.516 0 0 0-.113-.178.392.392 0 0 0-.154-.101.544.544 0 0 0-.195-.033.509.509 0 0 0-.234.052.418.418 0 0 0-.174.159.863.863 0 0 0-.108.291 2.273 2.273 0 0 0-.035.433v.722c0 .138.008.259.024.363.015.105.039.195.07.27a.663.663 0 0 0 .113.183.42.42 0 0 0 .154.103c.06.022.124.033.195.033.089 0 .168-.017.236-.052a.432.432 0 0 0 .174-.164.891.891 0 0 0 .105-.298c.024-.121.035-.268.035-.438ZM47.343 139.212l-.45-.11.185-1.716h1.84v.478h-1.371l-.094.837a1.08 1.08 0 0 1 .22-.091c.094-.031.201-.047.322-.047.16 0 .304.026.43.08a.853.853 0 0 1 .327.227.993.993 0 0 1 .203.361c.047.14.07.299.07.476 0 .157-.023.305-.07.443a1.037 1.037 0 0 1-.206.363.94.94 0 0 1-.349.246 1.28 1.28 0 0 1-.494.087 1.4 1.4 0 0 1-.41-.061 1.118 1.118 0 0 1-.35-.185.95.95 0 0 1-.248-.305 1.048 1.048 0 0 1-.108-.42h.553a.722.722 0 0 0 .091.284.484.484 0 0 0 .193.176c.08.04.171.061.276.061a.564.564 0 0 0 .246-.05.456.456 0 0 0 .171-.145.644.644 0 0 0 .103-.225 1.082 1.082 0 0 0-.004-.56.596.596 0 0 0-.115-.216.492.492 0 0 0-.19-.14.631.631 0 0 0-.265-.052.66.66 0 0 0-.31.059.958.958 0 0 0-.196.145Zm4.41-.405v.557c0 .268-.027.496-.08.685-.052.187-.127.34-.225.457a.889.889 0 0 1-.354.258 1.228 1.228 0 0 1-.457.082c-.135 0-.26-.017-.375-.052a.901.901 0 0 1-.31-.162.968.968 0 0 1-.236-.283 1.587 1.587 0 0 1-.15-.42 2.742 2.742 0 0 1-.052-.565v-.557c0-.269.027-.496.08-.68a1.19 1.19 0 0 1 .227-.452.858.858 0 0 1 .352-.256c.137-.053.29-.08.459-.08.136 0 .261.018.375.052a.878.878 0 0 1 .544.438c.065.114.115.253.15.415.034.161.051.349.051.563Zm-.566.637v-.722c0-.136-.007-.255-.023-.358a1.062 1.062 0 0 0-.07-.265.516.516 0 0 0-.113-.178.392.392 0 0 0-.154-.101.544.544 0 0 0-.195-.033.509.509 0 0 0-.234.052.418.418 0 0 0-.174.159.863.863 0 0 0-.108.291 2.273 2.273 0 0 0-.035.433v.722c0 .138.008.259.024.363.015.105.039.195.07.27a.663.663 0 0 0 .113.183.42.42 0 0 0 .154.103c.06.022.124.033.195.033.089 0 .168-.017.236-.052a.432.432 0 0 0 .174-.164.891.891 0 0 0 .105-.298c.024-.121.035-.268.035-.438ZM49.1 151.082v.45h-2.46l-.019-.339 1.472-2.307h.452l-.49.839-.846 1.357h1.892Zm-.426-2.196v3.413h-.565v-3.413h.565Zm3.078 1.421v.557c0 .268-.026.496-.08.685-.05.187-.126.34-.224.457a.889.889 0 0 1-.354.258 1.228 1.228 0 0 1-.457.082c-.135 0-.26-.017-.375-.052a.901.901 0 0 1-.31-.162.968.968 0 0 1-.236-.283 1.587 1.587 0 0 1-.15-.42 2.742 2.742 0 0 1-.052-.565v-.557c0-.269.027-.496.08-.68a1.19 1.19 0 0 1 .227-.452.858.858 0 0 1 .352-.256c.137-.053.29-.08.459-.08.136 0 .261.018.375.052a.878.878 0 0 1 .544.438c.065.114.115.253.15.415.034.161.051.349.051.563Zm-.565.637v-.722c0-.136-.007-.255-.023-.358a1.062 1.062 0 0 0-.07-.265.516.516 0 0 0-.113-.178.392.392 0 0 0-.154-.101.544.544 0 0 0-.195-.033.509.509 0 0 0-.234.052.418.418 0 0 0-.174.159.863.863 0 0 0-.108.291 2.273 2.273 0 0 0-.035.433v.722c0 .138.008.259.024.363.015.105.039.195.07.27a.663.663 0 0 0 .113.183.42.42 0 0 0 .154.103c.06.022.124.033.195.033.089 0 .168-.017.236-.052a.432.432 0 0 0 .174-.164.891.891 0 0 0 .105-.298c.024-.121.035-.268.035-.438ZM47.413 161.837h.338c.131 0 .24-.023.326-.068a.444.444 0 0 0 .194-.187.579.579 0 0 0 .063-.275c0-.107-.02-.2-.058-.276a.401.401 0 0 0-.174-.181.605.605 0 0 0-.293-.063c-.1 0-.19.02-.271.061a.457.457 0 0 0-.26.427h-.568c0-.182.048-.343.143-.483a.972.972 0 0 1 .39-.331c.165-.081.35-.122.557-.122.22 0 .413.037.577.111a.84.84 0 0 1 .386.323.971.971 0 0 1 .139.534.715.715 0 0 1-.068.296.858.858 0 0 1-.202.274c-.089.081-.2.148-.333.199-.133.05-.286.075-.462.075h-.424v-.314Zm0 .441v-.31h.425c.2 0 .37.024.51.071a.926.926 0 0 1 .347.194.73.73 0 0 1 .195.279 1.004 1.004 0 0 1-.023.759.864.864 0 0 1-.242.315c-.105.085-.227.15-.368.194a1.5 1.5 0 0 1-.455.066 1.47 1.47 0 0 1-.422-.061 1.154 1.154 0 0 1-.36-.181.895.895 0 0 1-.254-.302.934.934 0 0 1-.091-.422h.565c0 .102.023.191.07.27a.507.507 0 0 0 .202.18.659.659 0 0 0 .3.066.679.679 0 0 0 .307-.064.436.436 0 0 0 .197-.187.6.6 0 0 0 .07-.3.606.606 0 0 0-.077-.324.458.458 0 0 0-.22-.182.85.85 0 0 0-.338-.061h-.338Zm4.34-.471v.557c0 .268-.027.496-.08.685-.052.187-.127.34-.225.457a.889.889 0 0 1-.354.258 1.228 1.228 0 0 1-.457.082c-.135 0-.26-.017-.375-.052a.901.901 0 0 1-.31-.162.968.968 0 0 1-.236-.283 1.587 1.587 0 0 1-.15-.42 2.742 2.742 0 0 1-.052-.565v-.557c0-.269.027-.496.08-.68a1.19 1.19 0 0 1 .227-.452.858.858 0 0 1 .352-.256c.137-.053.29-.08.459-.08.136 0 .261.018.375.052a.878.878 0 0 1 .544.438c.065.114.115.253.15.415.034.161.051.349.051.563Zm-.566.637v-.722c0-.136-.007-.255-.023-.358a1.062 1.062 0 0 0-.07-.265.516.516 0 0 0-.113-.178.392.392 0 0 0-.154-.101.544.544 0 0 0-.195-.033.509.509 0 0 0-.234.052.418.418 0 0 0-.174.159.863.863 0 0 0-.108.291 2.273 2.273 0 0 0-.035.433v.722c0 .138.008.259.024.363.015.105.039.195.07.27a.663.663 0 0 0 .113.183.42.42 0 0 0 .154.103c.06.022.124.033.195.033.089 0 .168-.017.236-.052a.432.432 0 0 0 .174-.164.891.891 0 0 0 .105-.298c.024-.121.035-.268.035-.438ZM49.038 174.849v.45H46.75v-.387l1.11-1.212c.123-.137.219-.256.29-.356.07-.1.119-.19.147-.269a.695.695 0 0 0 .044-.237.63.63 0 0 0-.06-.284.444.444 0 0 0-.174-.194.506.506 0 0 0-.279-.073.518.518 0 0 0-.513.309.784.784 0 0 0-.066.329h-.565c0-.199.046-.38.136-.544a.993.993 0 0 1 .394-.394c.172-.098.379-.148.621-.148.228 0 .422.039.581.115.16.077.28.185.364.326a.952.952 0 0 1 .126.499c0 .107-.017.212-.051.317a1.521 1.521 0 0 1-.148.314 2.645 2.645 0 0 1-.223.311c-.086.104-.18.208-.283.315l-.739.813h1.575Zm2.714-1.542v.557c0 .268-.026.496-.08.685-.05.187-.126.34-.224.457a.889.889 0 0 1-.354.258 1.228 1.228 0 0 1-.457.082c-.135 0-.26-.017-.375-.052a.901.901 0 0 1-.31-.162.968.968 0 0 1-.236-.283 1.587 1.587 0 0 1-.15-.42 2.742 2.742 0 0 1-.052-.565v-.557c0-.269.027-.496.08-.68a1.19 1.19 0 0 1 .227-.452.858.858 0 0 1 .352-.256c.137-.053.29-.08.459-.08.136 0 .261.018.375.052a.878.878 0 0 1 .544.438c.065.114.115.253.15.415.034.161.051.349.051.563Zm-.565.637v-.722c0-.136-.007-.255-.023-.358a1.062 1.062 0 0 0-.07-.265.516.516 0 0 0-.113-.178.392.392 0 0 0-.154-.101.544.544 0 0 0-.195-.033.509.509 0 0 0-.234.052.418.418 0 0 0-.174.159.863.863 0 0 0-.108.291 2.273 2.273 0 0 0-.035.433v.722c0 .138.008.259.024.363.015.105.039.195.07.27a.663.663 0 0 0 .113.183.42.42 0 0 0 .154.103c.06.022.124.033.195.033.089 0 .168-.017.236-.052a.432.432 0 0 0 .174-.164.891.891 0 0 0 .105-.298c.024-.121.035-.268.035-.438ZM48.292 183.375v3.424h-.565v-2.754l-.836.284v-.467l1.333-.487h.068Zm3.46 1.432v.557c0 .268-.026.496-.08.685-.05.187-.126.34-.224.457a.889.889 0 0 1-.354.258 1.228 1.228 0 0 1-.457.082c-.135 0-.26-.017-.375-.052a.901.901 0 0 1-.31-.162.968.968 0 0 1-.236-.283 1.587 1.587 0 0 1-.15-.42 2.742 2.742 0 0 1-.052-.565v-.557c0-.269.027-.496.08-.68a1.19 1.19 0 0 1 .227-.452.858.858 0 0 1 .352-.256c.137-.053.29-.08.459-.08.136 0 .261.018.375.052a.878.878 0 0 1 .544.438c.065.114.115.253.15.415.034.161.051.349.051.563Zm-.565.637v-.722c0-.136-.007-.255-.023-.358a1.062 1.062 0 0 0-.07-.265.516.516 0 0 0-.113-.178.392.392 0 0 0-.154-.101.544.544 0 0 0-.195-.033.509.509 0 0 0-.234.052.418.418 0 0 0-.174.159.863.863 0 0 0-.108.291 2.273 2.273 0 0 0-.035.433v.722c0 .138.008.259.024.363.015.105.039.195.07.27a.663.663 0 0 0 .113.183.42.42 0 0 0 .154.103c.06.022.124.033.195.033.089 0 .168-.017.236-.052a.432.432 0 0 0 .174-.164.891.891 0 0 0 .105-.298c.024-.121.035-.268.035-.438ZM51.752 196.307v.557c0 .268-.026.496-.08.685-.05.187-.126.34-.224.457a.889.889 0 0 1-.354.258 1.228 1.228 0 0 1-.457.082c-.135 0-.26-.017-.375-.052a.901.901 0 0 1-.31-.162.968.968 0 0 1-.236-.283 1.587 1.587 0 0 1-.15-.42 2.742 2.742 0 0 1-.052-.565v-.557c0-.269.027-.496.08-.68a1.19 1.19 0 0 1 .227-.452.858.858 0 0 1 .352-.256c.137-.053.29-.08.459-.08.136 0 .261.018.375.052a.878.878 0 0 1 .544.438c.065.114.115.253.15.415.034.161.051.349.051.563Zm-.565.637v-.722c0-.136-.007-.255-.023-.358a1.062 1.062 0 0 0-.07-.265.516.516 0 0 0-.113-.178.392.392 0 0 0-.154-.101.544.544 0 0 0-.195-.033.509.509 0 0 0-.234.052.418.418 0 0 0-.174.159.863.863 0 0 0-.108.291 2.273 2.273 0 0 0-.035.433v.722c0 .138.008.259.024.363.015.105.039.195.07.27a.663.663 0 0 0 .113.183.42.42 0 0 0 .154.103c.06.022.124.033.195.033.089 0 .168-.017.236-.052a.432.432 0 0 0 .174-.164.891.891 0 0 0 .105-.298c.024-.121.035-.268.035-.438Z" fill="#000" fill-opacity=".38"/></svg>