<svg width="248" height="322" fill="none" xmlns="http://www.w3.org/2000/svg"><rect x="59.25" y="120.75" width="186.5" height="186.5" rx="93.25" stroke="#B2BFD1" stroke-width="1.5"/><path fill-rule="evenodd" clip-rule="evenodd" d="M162.273 224.58c0-1.189.964-2.152 2.152-2.152h11.568a2.152 2.152 0 0 1 0 4.304h-11.568a2.153 2.153 0 0 1-2.152-2.152Z" fill="#305680"/><path d="M194.914 225.297a13.987 13.987 0 0 0-13.988-13.988v4.323a9.655 9.655 0 0 1 6.834 2.831 9.676 9.676 0 0 1 2.095 3.135 9.682 9.682 0 0 1 .735 3.699h4.324Z" fill="#305680"/><path fill-rule="evenodd" clip-rule="evenodd" d="M183.436 213.461a2.152 2.152 0 0 0-2.152-2.152h-16.23a2.151 2.151 0 1 0 0 4.304h16.23a2.153 2.153 0 0 0 2.152-2.152Zm9.325 8.787a2.153 2.153 0 0 0-2.152 2.152v31.743c0 1.188.964 2.152 2.152 2.152h3.587a2.153 2.153 0 0 0 0-4.304h-1.435V224.4a2.152 2.152 0 0 0-2.152-2.152Zm-11.477 5.47a2.151 2.151 0 0 0-2.152 2.152v26.273a2.152 2.152 0 0 0 4.304 0V229.87a2.152 2.152 0 0 0-2.152-2.152Z" fill="#305680"/><path fill-rule="evenodd" clip-rule="evenodd" d="M179.166 230.229c0-.458-.089-.911-.262-1.334l-.013-.032a3.5 3.5 0 0 0-.733-1.098l-.035-.035a3.45 3.45 0 0 0-1.082-.72 3.413 3.413 0 0 0-1.318-.265v-4.318a7.64 7.64 0 0 1 4.304 1.329c.411.28.796.6 1.149.956l.034.036a7.818 7.818 0 0 1 1.637 2.495l.013.033c.379.937.574 1.94.574 2.953h-4.268ZM172.496 207.363c1.188 0 2.152.964 2.152 2.152v19.548a2.152 2.152 0 0 1-4.304 0v-19.548c0-1.188.963-2.152 2.152-2.152ZM126.945 224.58c0-1.189.964-2.152 2.152-2.152h11.209a2.152 2.152 0 0 1 0 4.304h-11.209a2.153 2.153 0 0 1-2.152-2.152ZM121.564 213.461c0-1.189.964-2.152 2.152-2.152h16.23a2.151 2.151 0 1 1 0 4.304h-16.23a2.153 2.153 0 0 1-2.152-2.152Zm-9.325 8.787c1.188 0 2.152.964 2.152 2.152v29.591h7.173V229.87a2.152 2.152 0 0 1 4.304 0v24.121h70.48a2.152 2.152 0 0 1 0 4.304h-87.696a2.153 2.153 0 0 1 0-4.304h1.435V224.4c0-1.188.963-2.152 2.152-2.152Z" fill="#305680"/><path d="M110.086 225.297a13.987 13.987 0 0 1 13.988-13.988v4.323a9.655 9.655 0 0 0-6.834 2.831 9.676 9.676 0 0 0-2.095 3.135 9.682 9.682 0 0 0-.735 3.699h-4.324Z" fill="#305680"/><path fill-rule="evenodd" clip-rule="evenodd" d="M125.834 230.229c0-.458.089-.911.262-1.334l.013-.032a3.5 3.5 0 0 1 .733-1.098l.035-.035a3.45 3.45 0 0 1 1.082-.72 3.413 3.413 0 0 1 1.318-.265v-4.318a7.64 7.64 0 0 0-4.304 1.329c-.411.28-.796.6-1.149.956l-.034.036a7.818 7.818 0 0 0-1.637 2.495l-.013.033a7.877 7.877 0 0 0-.574 2.953h4.268ZM133.402 171.855c0-1.188.964-2.152 2.152-2.152h34.433a2.152 2.152 0 0 1 0 4.304h-34.433a2.152 2.152 0 0 1-2.152-2.152Z" fill="#305680"/><path fill-rule="evenodd" clip-rule="evenodd" d="M149.183 170.779c1.188 0 2.152.964 2.152 2.152v21.79h12.553c1.189 0 2.153.963 2.153 2.152v30.756a2.152 2.152 0 0 1-2.153 2.152h-22.955a2.152 2.152 0 0 1-2.152-2.152v-30.756c0-1.189.964-2.152 2.152-2.152h6.098v-21.79c0-1.188.963-2.152 2.152-2.152Zm7.173 0c1.189 0 2.152.964 2.152 2.152v10.581a2.151 2.151 0 1 1-4.304 0v-10.581c0-1.188.964-2.152 2.152-2.152Zm-13.271 28.246v26.452h18.651v-26.452h-18.651Z" fill="#305680"/><path d="M158.328 190.148a2.152 2.152 0 1 1-4.304 0 2.152 2.152 0 0 1 4.304 0Z" fill="#305680"/><path fill-rule="evenodd" clip-rule="evenodd" d="M133.222 207.633c1.189 0 2.152.963 2.152 2.152v19.548a2.152 2.152 0 0 1-4.304 0v-19.548c0-1.189.964-2.152 2.152-2.152ZM159.568 214.847a7.172 7.172 0 0 1-9.562 8.354 7.171 7.171 0 0 1-4.553-7.419h.001l4.287.437a2.872 2.872 0 0 0 .788 2.279 2.871 2.871 0 0 0 2.25.869 2.873 2.873 0 0 0 2.116-1.158 2.862 2.862 0 0 0 .481-2.362v-.001l4.192-.999Z" fill="#305680"/><path fill-rule="evenodd" clip-rule="evenodd" d="M152.844 200.372a2.151 2.151 0 0 1 2.254 2.044c.213 4.331.936 5.832 1.565 6.807.14.217.31.449.5.706.723.985 1.723 2.344 2.348 4.679a2.15 2.15 0 1 1-4.157 1.113c-.4-1.493-.84-2.096-1.472-2.962-.246-.338-.522-.716-.836-1.203-1.164-1.805-2.01-4.114-2.246-8.929a2.15 2.15 0 0 1 2.044-2.255Z" fill="#305680"/><path fill-rule="evenodd" clip-rule="evenodd" d="M153.055 200.372a2.152 2.152 0 0 0-2.255 2.044c-.104 2.128-.412 3.544-.778 4.554-.358.989-.802 1.677-1.307 2.341a25.74 25.74 0 0 1-.481.607c-1.022 1.267-2.318 2.874-2.791 5.901a2.152 2.152 0 0 0 4.253.664c.287-1.839.886-2.593 1.829-3.78.191-.24.396-.498.615-.786.672-.883 1.377-1.955 1.929-3.482.546-1.507.91-3.364 1.03-5.808a2.152 2.152 0 0 0-2.044-2.255Z" fill="#305680"/><path d="M0 212h42.433M144.078 24v80" stroke="#B2BFD1" stroke-width="1.5"/><path d="M41.49 212.775c-.033-14.404 2.613-28.673 7.787-41.99 5.174-13.317 12.775-25.421 22.367-35.619 9.592-10.197 20.987-18.287 33.532-23.807 12.545-5.519 25.994-8.36 39.576-8.359v1.523c-13.393-.001-26.655 2.8-39.025 8.243-12.371 5.443-23.608 13.421-33.066 23.476-9.459 10.056-16.954 21.991-22.056 35.123-5.102 13.132-7.711 27.203-7.678 41.406l-1.436.004Z" fill="#B2BFD1"/><path d="M154.854 12c0 6.255-4.771 11.25-10.566 11.25-5.794 0-10.565-4.995-10.565-11.25S138.494.75 144.288.75c5.795 0 10.566 4.995 10.566 11.25Z" fill="#F4F8FE" stroke="#B2BFD1" stroke-width="1.5"/></svg>