<svg width="803" height="478" viewBox="0 0 803 478" fill="none" xmlns="http://www.w3.org/2000/svg">
<rect width="803" height="478" rx="12" fill="#E7E9EB"/>
<rect x="0.5" y="0.5" width="802" height="477" rx="11.5" stroke="black" stroke-opacity="0.05"/>
<g filter="url(#filter0_d_4048_207788)">
<rect x="136" y="40" width="532" height="398" rx="8" fill="white"/>
<path d="M170.227 75V75.625C170.227 76.4844 170.115 77.2552 169.891 77.9375C169.667 78.6198 169.346 79.2005 168.93 79.6797C168.518 80.1589 168.023 80.526 167.445 80.7812C166.867 81.0312 166.227 81.1562 165.523 81.1562C164.826 81.1562 164.188 81.0312 163.609 80.7812C163.036 80.526 162.539 80.1589 162.117 79.6797C161.695 79.2005 161.367 78.6198 161.133 77.9375C160.904 77.2552 160.789 76.4844 160.789 75.625V75C160.789 74.1406 160.904 73.3724 161.133 72.6953C161.362 72.013 161.685 71.4323 162.102 70.9531C162.523 70.4688 163.021 70.1016 163.594 69.8516C164.172 69.5964 164.81 69.4688 165.508 69.4688C166.211 69.4688 166.852 69.5964 167.43 69.8516C168.008 70.1016 168.505 70.4688 168.922 70.9531C169.339 71.4323 169.659 72.013 169.883 72.6953C170.112 73.3724 170.227 74.1406 170.227 75ZM168.266 75.625V74.9844C168.266 74.349 168.203 73.7891 168.078 73.3047C167.958 72.8151 167.779 72.4062 167.539 72.0781C167.305 71.7448 167.016 71.4948 166.672 71.3281C166.328 71.1562 165.94 71.0703 165.508 71.0703C165.076 71.0703 164.69 71.1562 164.352 71.3281C164.013 71.4948 163.724 71.7448 163.484 72.0781C163.25 72.4062 163.07 72.8151 162.945 73.3047C162.82 73.7891 162.758 74.349 162.758 74.9844V75.625C162.758 76.2604 162.82 76.8229 162.945 77.3125C163.07 77.8021 163.253 78.2161 163.492 78.5547C163.737 78.888 164.029 79.1406 164.367 79.3125C164.706 79.4792 165.091 79.5625 165.523 79.5625C165.961 79.5625 166.349 79.4792 166.688 79.3125C167.026 79.1406 167.312 78.888 167.547 78.5547C167.781 78.2161 167.958 77.8021 168.078 77.3125C168.203 76.8229 168.266 76.2604 168.266 75.625ZM174.117 74.3516V81H172.234V72.5469H174.008L174.117 74.3516ZM173.781 76.4609L173.172 76.4531C173.177 75.8542 173.26 75.3047 173.422 74.8047C173.589 74.3047 173.818 73.875 174.109 73.5156C174.406 73.1562 174.76 72.8802 175.172 72.6875C175.583 72.4896 176.042 72.3906 176.547 72.3906C176.953 72.3906 177.32 72.4479 177.648 72.5625C177.982 72.6719 178.266 72.8516 178.5 73.1016C178.74 73.3516 178.922 73.6771 179.047 74.0781C179.172 74.474 179.234 74.9609 179.234 75.5391V81H177.344V75.5312C177.344 75.125 177.284 74.8047 177.164 74.5703C177.049 74.3307 176.88 74.1615 176.656 74.0625C176.438 73.9583 176.164 73.9062 175.836 73.9062C175.513 73.9062 175.224 73.974 174.969 74.1094C174.714 74.2448 174.497 74.4297 174.32 74.6641C174.148 74.8984 174.016 75.1693 173.922 75.4766C173.828 75.7839 173.781 76.112 173.781 76.4609ZM189.094 79.6562C189.401 79.6562 189.677 79.5964 189.922 79.4766C190.172 79.3516 190.372 79.1797 190.523 78.9609C190.68 78.7422 190.766 78.4896 190.781 78.2031H192.555C192.544 78.75 192.383 79.2474 192.07 79.6953C191.758 80.1432 191.344 80.5 190.828 80.7656C190.312 81.026 189.742 81.1562 189.117 81.1562C188.471 81.1562 187.909 81.0469 187.43 80.8281C186.951 80.6042 186.552 80.2969 186.234 79.9062C185.917 79.5156 185.677 79.0651 185.516 78.5547C185.359 78.0443 185.281 77.4974 185.281 76.9141V76.6406C185.281 76.0573 185.359 75.5104 185.516 75C185.677 74.4844 185.917 74.0312 186.234 73.6406C186.552 73.25 186.951 72.9453 187.43 72.7266C187.909 72.5026 188.469 72.3906 189.109 72.3906C189.786 72.3906 190.38 72.526 190.891 72.7969C191.401 73.0625 191.802 73.4349 192.094 73.9141C192.391 74.388 192.544 74.9401 192.555 75.5703H190.781C190.766 75.2578 190.688 74.9766 190.547 74.7266C190.411 74.4714 190.219 74.2682 189.969 74.1172C189.724 73.9661 189.43 73.8906 189.086 73.8906C188.706 73.8906 188.391 73.9688 188.141 74.125C187.891 74.276 187.695 74.4844 187.555 74.75C187.414 75.0104 187.312 75.3047 187.25 75.6328C187.193 75.9557 187.164 76.2917 187.164 76.6406V76.9141C187.164 77.263 187.193 77.6016 187.25 77.9297C187.307 78.2578 187.406 78.5521 187.547 78.8125C187.693 79.0677 187.891 79.2734 188.141 79.4297C188.391 79.5807 188.708 79.6562 189.094 79.6562ZM196.266 69V81H194.375V69H196.266ZM200.594 72.5469V81H198.703V72.5469H200.594ZM198.578 70.3281C198.578 70.0417 198.672 69.8047 198.859 69.6172C199.052 69.4245 199.318 69.3281 199.656 69.3281C199.99 69.3281 200.253 69.4245 200.445 69.6172C200.638 69.8047 200.734 70.0417 200.734 70.3281C200.734 70.6094 200.638 70.8438 200.445 71.0312C200.253 71.2188 199.99 71.3125 199.656 71.3125C199.318 71.3125 199.052 71.2188 198.859 71.0312C198.672 70.8438 198.578 70.6094 198.578 70.3281ZM206.359 79.6562C206.667 79.6562 206.943 79.5964 207.188 79.4766C207.438 79.3516 207.638 79.1797 207.789 78.9609C207.945 78.7422 208.031 78.4896 208.047 78.2031H209.82C209.81 78.75 209.648 79.2474 209.336 79.6953C209.023 80.1432 208.609 80.5 208.094 80.7656C207.578 81.026 207.008 81.1562 206.383 81.1562C205.737 81.1562 205.174 81.0469 204.695 80.8281C204.216 80.6042 203.818 80.2969 203.5 79.9062C203.182 79.5156 202.943 79.0651 202.781 78.5547C202.625 78.0443 202.547 77.4974 202.547 76.9141V76.6406C202.547 76.0573 202.625 75.5104 202.781 75C202.943 74.4844 203.182 74.0312 203.5 73.6406C203.818 73.25 204.216 72.9453 204.695 72.7266C205.174 72.5026 205.734 72.3906 206.375 72.3906C207.052 72.3906 207.646 72.526 208.156 72.7969C208.667 73.0625 209.068 73.4349 209.359 73.9141C209.656 74.388 209.81 74.9401 209.82 75.5703H208.047C208.031 75.2578 207.953 74.9766 207.812 74.7266C207.677 74.4714 207.484 74.2682 207.234 74.1172C206.99 73.9661 206.695 73.8906 206.352 73.8906C205.971 73.8906 205.656 73.9688 205.406 74.125C205.156 74.276 204.961 74.4844 204.82 74.75C204.68 75.0104 204.578 75.3047 204.516 75.6328C204.458 75.9557 204.43 76.2917 204.43 76.6406V76.9141C204.43 77.263 204.458 77.6016 204.516 77.9297C204.573 78.2578 204.672 78.5521 204.812 78.8125C204.958 79.0677 205.156 79.2734 205.406 79.4297C205.656 79.5807 205.974 79.6562 206.359 79.6562ZM213.414 69V81H211.523V69H213.414ZM218.664 72.5469L214.984 76.625L212.969 78.6875L212.477 77.0938L214 75.2109L216.391 72.5469H218.664ZM216.797 81L214.055 77.0312L215.242 75.7109L218.977 81H216.797Z" fill="black" fill-opacity="0.87"/>
<rect x="160.5" y="112.5" width="483" height="55" rx="5.5" stroke="black" stroke-opacity="0.12"/>
<path d="M181.531 134.633L177.766 145H176.227L180.562 133.625H181.555L181.531 134.633ZM184.688 145L180.914 134.633L180.891 133.625H181.883L186.234 145H184.688ZM184.492 140.789V142.023H178.102V140.789H184.492ZM191.072 143.969C191.416 143.969 191.733 143.898 192.025 143.758C192.317 143.617 192.556 143.424 192.744 143.18C192.931 142.93 193.038 142.646 193.064 142.328H194.439C194.413 142.828 194.244 143.294 193.931 143.727C193.624 144.154 193.22 144.5 192.72 144.766C192.22 145.026 191.671 145.156 191.072 145.156C190.436 145.156 189.882 145.044 189.408 144.82C188.939 144.596 188.548 144.289 188.236 143.898C187.929 143.508 187.697 143.06 187.541 142.555C187.39 142.044 187.314 141.505 187.314 140.938V140.609C187.314 140.042 187.39 139.505 187.541 139C187.697 138.49 187.929 138.039 188.236 137.648C188.548 137.258 188.939 136.951 189.408 136.727C189.882 136.503 190.436 136.391 191.072 136.391C191.733 136.391 192.311 136.526 192.806 136.797C193.301 137.062 193.689 137.427 193.97 137.891C194.257 138.349 194.413 138.87 194.439 139.453H193.064C193.038 139.104 192.939 138.789 192.767 138.508C192.601 138.227 192.371 138.003 192.08 137.836C191.793 137.664 191.457 137.578 191.072 137.578C190.629 137.578 190.257 137.667 189.955 137.844C189.658 138.016 189.421 138.25 189.244 138.547C189.072 138.839 188.947 139.164 188.869 139.523C188.796 139.878 188.759 140.24 188.759 140.609V140.938C188.759 141.307 188.796 141.672 188.869 142.031C188.942 142.391 189.064 142.716 189.236 143.008C189.413 143.299 189.65 143.534 189.947 143.711C190.249 143.883 190.624 143.969 191.072 143.969ZM199.753 136.547V137.656H195.183V136.547H199.753ZM196.73 134.492H198.175V142.906C198.175 143.193 198.219 143.409 198.308 143.555C198.396 143.701 198.511 143.797 198.652 143.844C198.792 143.891 198.943 143.914 199.105 143.914C199.224 143.914 199.349 143.904 199.48 143.883C199.615 143.857 199.717 143.836 199.784 143.82L199.792 145C199.678 145.036 199.527 145.07 199.339 145.102C199.157 145.138 198.935 145.156 198.675 145.156C198.321 145.156 197.995 145.086 197.698 144.945C197.402 144.805 197.165 144.57 196.987 144.242C196.816 143.909 196.73 143.461 196.73 142.898V134.492ZM203.169 136.547V145H201.716V136.547H203.169ZM201.606 134.305C201.606 134.07 201.677 133.872 201.817 133.711C201.963 133.549 202.177 133.469 202.458 133.469C202.734 133.469 202.945 133.549 203.091 133.711C203.242 133.872 203.317 134.07 203.317 134.305C203.317 134.529 203.242 134.721 203.091 134.883C202.945 135.039 202.734 135.117 202.458 135.117C202.177 135.117 201.963 135.039 201.817 134.883C201.677 134.721 201.606 134.529 201.606 134.305ZM205.256 140.867V140.688C205.256 140.078 205.345 139.513 205.522 138.992C205.699 138.466 205.954 138.01 206.288 137.625C206.621 137.234 207.024 136.932 207.498 136.719C207.972 136.5 208.504 136.391 209.092 136.391C209.686 136.391 210.22 136.5 210.694 136.719C211.173 136.932 211.579 137.234 211.913 137.625C212.251 138.01 212.509 138.466 212.686 138.992C212.863 139.513 212.952 140.078 212.952 140.688V140.867C212.952 141.477 212.863 142.042 212.686 142.562C212.509 143.083 212.251 143.539 211.913 143.93C211.579 144.315 211.176 144.617 210.702 144.836C210.233 145.049 209.702 145.156 209.108 145.156C208.514 145.156 207.98 145.049 207.506 144.836C207.032 144.617 206.626 144.315 206.288 143.93C205.954 143.539 205.699 143.083 205.522 142.562C205.345 142.042 205.256 141.477 205.256 140.867ZM206.702 140.688V140.867C206.702 141.289 206.751 141.688 206.85 142.062C206.949 142.432 207.097 142.76 207.295 143.047C207.498 143.333 207.751 143.56 208.053 143.727C208.355 143.888 208.707 143.969 209.108 143.969C209.504 143.969 209.85 143.888 210.147 143.727C210.449 143.56 210.699 143.333 210.897 143.047C211.095 142.76 211.243 142.432 211.342 142.062C211.446 141.688 211.498 141.289 211.498 140.867V140.688C211.498 140.271 211.446 139.878 211.342 139.508C211.243 139.133 211.092 138.802 210.889 138.516C210.691 138.224 210.441 137.995 210.139 137.828C209.842 137.661 209.493 137.578 209.092 137.578C208.696 137.578 208.347 137.661 208.045 137.828C207.748 137.995 207.498 138.224 207.295 138.516C207.097 138.802 206.949 139.133 206.85 139.508C206.751 139.878 206.702 140.271 206.702 140.688ZM216.359 138.352V145H214.914V136.547H216.281L216.359 138.352ZM216.016 140.453L215.414 140.43C215.419 139.852 215.505 139.318 215.672 138.828C215.839 138.333 216.073 137.904 216.375 137.539C216.677 137.174 217.036 136.893 217.453 136.695C217.875 136.492 218.341 136.391 218.852 136.391C219.268 136.391 219.643 136.448 219.977 136.562C220.31 136.672 220.594 136.849 220.828 137.094C221.068 137.339 221.25 137.656 221.375 138.047C221.5 138.432 221.562 138.904 221.562 139.461V145H220.109V139.445C220.109 139.003 220.044 138.648 219.914 138.383C219.784 138.112 219.594 137.917 219.344 137.797C219.094 137.672 218.786 137.609 218.422 137.609C218.062 137.609 217.734 137.685 217.438 137.836C217.146 137.987 216.893 138.195 216.68 138.461C216.471 138.727 216.307 139.031 216.188 139.375C216.073 139.714 216.016 140.073 216.016 140.453Z" fill="black" fill-opacity="0.76"/>
<rect x="356" y="121" width="280" height="38" rx="4" fill="white"/>
<rect x="356.5" y="121.5" width="279" height="37" rx="3.5" stroke="black" stroke-opacity="0.12"/>
<path d="M372.84 135.929L369.545 145H368.198L371.992 135.047H372.86L372.84 135.929ZM375.602 145L372.3 135.929L372.279 135.047H373.147L376.955 145H375.602ZM375.431 141.315V142.396H369.839V141.315H375.431ZM382.959 143.564V134.5H384.23V145H383.068L382.959 143.564ZM377.982 141.384V141.24C377.982 140.675 378.051 140.162 378.187 139.702C378.329 139.237 378.527 138.839 378.782 138.506C379.042 138.173 379.349 137.918 379.705 137.74C380.065 137.558 380.466 137.467 380.908 137.467C381.373 137.467 381.778 137.549 382.125 137.713C382.476 137.872 382.772 138.107 383.013 138.417C383.26 138.722 383.453 139.091 383.595 139.524C383.736 139.957 383.834 140.447 383.888 140.994V141.623C383.838 142.165 383.74 142.653 383.595 143.086C383.453 143.519 383.26 143.888 383.013 144.193C382.772 144.499 382.476 144.733 382.125 144.897C381.774 145.057 381.364 145.137 380.894 145.137C380.461 145.137 380.065 145.043 379.705 144.856C379.349 144.67 379.042 144.408 378.782 144.07C378.527 143.733 378.329 143.337 378.187 142.881C378.051 142.421 377.982 141.922 377.982 141.384ZM379.254 141.24V141.384C379.254 141.753 379.29 142.099 379.363 142.423C379.441 142.746 379.559 143.031 379.719 143.277C379.878 143.523 380.081 143.717 380.327 143.858C380.573 143.995 380.867 144.063 381.209 144.063C381.628 144.063 381.972 143.975 382.241 143.797C382.514 143.619 382.733 143.384 382.897 143.093C383.061 142.801 383.189 142.484 383.28 142.143V140.495C383.225 140.244 383.146 140.003 383.041 139.771C382.941 139.534 382.808 139.324 382.644 139.142C382.485 138.955 382.287 138.807 382.05 138.697C381.817 138.588 381.541 138.533 381.222 138.533C380.876 138.533 380.578 138.606 380.327 138.752C380.081 138.893 379.878 139.089 379.719 139.34C379.559 139.586 379.441 139.873 379.363 140.201C379.29 140.525 379.254 140.871 379.254 141.24ZM391.061 143.564V134.5H392.333V145H391.171L391.061 143.564ZM386.085 141.384V141.24C386.085 140.675 386.153 140.162 386.29 139.702C386.431 139.237 386.629 138.839 386.884 138.506C387.144 138.173 387.452 137.918 387.807 137.74C388.167 137.558 388.568 137.467 389.01 137.467C389.475 137.467 389.881 137.549 390.227 137.713C390.578 137.872 390.874 138.107 391.116 138.417C391.362 138.722 391.556 139.091 391.697 139.524C391.838 139.957 391.936 140.447 391.991 140.994V141.623C391.941 142.165 391.843 142.653 391.697 143.086C391.556 143.519 391.362 143.888 391.116 144.193C390.874 144.499 390.578 144.733 390.227 144.897C389.876 145.057 389.466 145.137 388.997 145.137C388.564 145.137 388.167 145.043 387.807 144.856C387.452 144.67 387.144 144.408 386.884 144.07C386.629 143.733 386.431 143.337 386.29 142.881C386.153 142.421 386.085 141.922 386.085 141.384ZM387.356 141.24V141.384C387.356 141.753 387.393 142.099 387.465 142.423C387.543 142.746 387.661 143.031 387.821 143.277C387.98 143.523 388.183 143.717 388.429 143.858C388.675 143.995 388.969 144.063 389.311 144.063C389.73 144.063 390.074 143.975 390.343 143.797C390.617 143.619 390.836 143.384 391 143.093C391.164 142.801 391.291 142.484 391.382 142.143V140.495C391.328 140.244 391.248 140.003 391.143 139.771C391.043 139.534 390.911 139.324 390.747 139.142C390.587 138.955 390.389 138.807 390.152 138.697C389.92 138.588 389.644 138.533 389.325 138.533C388.978 138.533 388.68 138.606 388.429 138.752C388.183 138.893 387.98 139.089 387.821 139.34C387.661 139.586 387.543 139.873 387.465 140.201C387.393 140.525 387.356 140.871 387.356 141.24ZM401.271 137.604V138.574H397.272V137.604H401.271ZM398.625 135.806H399.89V143.168C399.89 143.419 399.929 143.608 400.006 143.735C400.084 143.863 400.184 143.947 400.307 143.988C400.43 144.029 400.562 144.05 400.703 144.05C400.808 144.05 400.918 144.041 401.031 144.022C401.15 144 401.239 143.981 401.298 143.968L401.305 145C401.205 145.032 401.072 145.062 400.908 145.089C400.749 145.121 400.555 145.137 400.327 145.137C400.017 145.137 399.733 145.075 399.473 144.952C399.213 144.829 399.006 144.624 398.851 144.337C398.7 144.045 398.625 143.653 398.625 143.161V135.806ZM404.328 137.604V145H403.057V137.604H404.328ZM402.961 135.642C402.961 135.437 403.022 135.263 403.146 135.122C403.273 134.981 403.46 134.91 403.706 134.91C403.948 134.91 404.132 134.981 404.26 135.122C404.392 135.263 404.458 135.437 404.458 135.642C404.458 135.838 404.392 136.006 404.26 136.147C404.132 136.284 403.948 136.353 403.706 136.353C403.46 136.353 403.273 136.284 403.146 136.147C403.022 136.006 402.961 135.838 402.961 135.642ZM407.816 139.073V145H406.545V137.604H407.748L407.816 139.073ZM407.556 141.021L406.969 141.001C406.973 140.495 407.039 140.028 407.167 139.6C407.294 139.167 407.484 138.791 407.734 138.472C407.985 138.153 408.297 137.907 408.671 137.733C409.044 137.556 409.477 137.467 409.97 137.467C410.316 137.467 410.635 137.517 410.927 137.617C411.218 137.713 411.471 137.866 411.685 138.075C411.9 138.285 412.066 138.554 412.184 138.882C412.303 139.21 412.362 139.606 412.362 140.071V145H411.097V140.133C411.097 139.745 411.031 139.436 410.899 139.203C410.772 138.971 410.589 138.802 410.352 138.697C410.115 138.588 409.837 138.533 409.518 138.533C409.145 138.533 408.832 138.599 408.582 138.731C408.331 138.864 408.131 139.046 407.98 139.278C407.83 139.511 407.721 139.777 407.652 140.078C407.588 140.374 407.556 140.689 407.556 141.021ZM412.348 140.324L411.501 140.584C411.505 140.178 411.571 139.789 411.699 139.415C411.831 139.041 412.02 138.709 412.266 138.417C412.517 138.125 412.825 137.895 413.189 137.727C413.554 137.553 413.971 137.467 414.44 137.467C414.837 137.467 415.188 137.519 415.493 137.624C415.803 137.729 416.063 137.891 416.272 138.109C416.486 138.324 416.648 138.599 416.758 138.937C416.867 139.274 416.922 139.675 416.922 140.14V145H415.65V140.126C415.65 139.711 415.584 139.39 415.452 139.162C415.324 138.93 415.142 138.768 414.905 138.677C414.673 138.581 414.395 138.533 414.071 138.533C413.793 138.533 413.547 138.581 413.333 138.677C413.119 138.772 412.939 138.905 412.793 139.073C412.647 139.237 412.535 139.426 412.458 139.641C412.385 139.855 412.348 140.083 412.348 140.324ZM422.105 145.137C421.59 145.137 421.123 145.05 420.704 144.877C420.289 144.699 419.931 144.451 419.63 144.132C419.334 143.813 419.106 143.435 418.947 142.997C418.787 142.56 418.708 142.081 418.708 141.562V141.274C418.708 140.673 418.796 140.137 418.974 139.668C419.152 139.194 419.393 138.793 419.699 138.465C420.004 138.137 420.351 137.888 420.738 137.72C421.125 137.551 421.526 137.467 421.941 137.467C422.47 137.467 422.925 137.558 423.308 137.74C423.696 137.923 424.012 138.178 424.258 138.506C424.504 138.829 424.687 139.212 424.805 139.654C424.924 140.092 424.983 140.57 424.983 141.09V141.657H419.46V140.625H423.718V140.529C423.7 140.201 423.632 139.882 423.513 139.572C423.399 139.262 423.217 139.007 422.966 138.807C422.716 138.606 422.374 138.506 421.941 138.506C421.654 138.506 421.39 138.567 421.148 138.69C420.907 138.809 420.699 138.987 420.526 139.224C420.353 139.461 420.218 139.75 420.123 140.092C420.027 140.434 419.979 140.828 419.979 141.274V141.562C419.979 141.912 420.027 142.243 420.123 142.553C420.223 142.858 420.366 143.127 420.553 143.359C420.745 143.592 420.975 143.774 421.244 143.906C421.517 144.038 421.827 144.104 422.173 144.104C422.62 144.104 422.998 144.013 423.308 143.831C423.618 143.649 423.889 143.405 424.122 143.1L424.887 143.708C424.728 143.95 424.525 144.18 424.279 144.398C424.033 144.617 423.73 144.795 423.37 144.932C423.014 145.068 422.593 145.137 422.105 145.137ZM429.291 140.249V141.288H425.955V140.249H429.291ZM435.035 143.038C435.035 142.856 434.994 142.687 434.912 142.532C434.835 142.373 434.673 142.229 434.427 142.102C434.185 141.969 433.821 141.855 433.333 141.76C432.923 141.673 432.552 141.571 432.219 141.452C431.891 141.334 431.611 141.19 431.378 141.021C431.15 140.853 430.975 140.655 430.852 140.427C430.729 140.199 430.667 139.932 430.667 139.627C430.667 139.335 430.731 139.06 430.859 138.8C430.991 138.54 431.175 138.31 431.412 138.109C431.654 137.909 431.943 137.752 432.28 137.638C432.618 137.524 432.994 137.467 433.408 137.467C434.001 137.467 434.507 137.572 434.926 137.781C435.345 137.991 435.667 138.271 435.89 138.622C436.113 138.968 436.225 139.354 436.225 139.777H434.96C434.96 139.572 434.899 139.374 434.776 139.183C434.657 138.987 434.482 138.825 434.249 138.697C434.021 138.57 433.741 138.506 433.408 138.506C433.057 138.506 432.773 138.561 432.554 138.67C432.34 138.775 432.182 138.909 432.082 139.073C431.987 139.237 431.939 139.41 431.939 139.593C431.939 139.729 431.961 139.853 432.007 139.962C432.057 140.067 432.144 140.165 432.267 140.256C432.39 140.342 432.563 140.424 432.786 140.502C433.01 140.579 433.294 140.657 433.641 140.734C434.247 140.871 434.746 141.035 435.138 141.227C435.53 141.418 435.821 141.653 436.013 141.931C436.204 142.209 436.3 142.546 436.3 142.942C436.3 143.266 436.232 143.562 436.095 143.831C435.963 144.1 435.769 144.332 435.514 144.528C435.263 144.72 434.962 144.87 434.612 144.979C434.265 145.084 433.876 145.137 433.443 145.137C432.791 145.137 432.239 145.021 431.788 144.788C431.337 144.556 430.995 144.255 430.763 143.886C430.53 143.517 430.414 143.127 430.414 142.717H431.686C431.704 143.063 431.804 143.339 431.987 143.544C432.169 143.744 432.392 143.888 432.656 143.975C432.921 144.057 433.183 144.098 433.443 144.098C433.789 144.098 434.078 144.052 434.311 143.961C434.548 143.87 434.728 143.744 434.851 143.585C434.974 143.425 435.035 143.243 435.035 143.038ZM441.23 145.137C440.715 145.137 440.248 145.05 439.829 144.877C439.414 144.699 439.057 144.451 438.756 144.132C438.46 143.813 438.232 143.435 438.072 142.997C437.913 142.56 437.833 142.081 437.833 141.562V141.274C437.833 140.673 437.922 140.137 438.1 139.668C438.277 139.194 438.519 138.793 438.824 138.465C439.13 138.137 439.476 137.888 439.863 137.72C440.251 137.551 440.652 137.467 441.066 137.467C441.595 137.467 442.051 137.558 442.434 137.74C442.821 137.923 443.138 138.178 443.384 138.506C443.63 138.829 443.812 139.212 443.931 139.654C444.049 140.092 444.108 140.57 444.108 141.09V141.657H438.585V140.625H442.844V140.529C442.826 140.201 442.757 139.882 442.639 139.572C442.525 139.262 442.342 139.007 442.092 138.807C441.841 138.606 441.499 138.506 441.066 138.506C440.779 138.506 440.515 138.567 440.273 138.69C440.032 138.809 439.825 138.987 439.651 139.224C439.478 139.461 439.344 139.75 439.248 140.092C439.152 140.434 439.104 140.828 439.104 141.274V141.562C439.104 141.912 439.152 142.243 439.248 142.553C439.348 142.858 439.492 143.127 439.679 143.359C439.87 143.592 440.1 143.774 440.369 143.906C440.643 144.038 440.952 144.104 441.299 144.104C441.745 144.104 442.124 144.013 442.434 143.831C442.743 143.649 443.015 143.405 443.247 143.1L444.013 143.708C443.853 143.95 443.65 144.18 443.404 144.398C443.158 144.617 442.855 144.795 442.495 144.932C442.14 145.068 441.718 145.137 441.23 145.137ZM447.05 138.766V145H445.785V137.604H447.015L447.05 138.766ZM449.36 137.562L449.353 138.738C449.248 138.715 449.148 138.702 449.053 138.697C448.961 138.688 448.857 138.684 448.738 138.684C448.446 138.684 448.189 138.729 447.966 138.82C447.742 138.911 447.553 139.039 447.398 139.203C447.243 139.367 447.12 139.563 447.029 139.791C446.943 140.014 446.886 140.26 446.858 140.529L446.503 140.734C446.503 140.288 446.546 139.868 446.633 139.477C446.724 139.085 446.863 138.738 447.05 138.438C447.236 138.132 447.473 137.895 447.761 137.727C448.052 137.553 448.399 137.467 448.8 137.467C448.891 137.467 448.996 137.478 449.114 137.501C449.233 137.519 449.315 137.54 449.36 137.562ZM452.103 137.604V145H450.832V137.604H452.103ZM450.736 135.642C450.736 135.437 450.797 135.263 450.921 135.122C451.048 134.981 451.235 134.91 451.481 134.91C451.723 134.91 451.907 134.981 452.035 135.122C452.167 135.263 452.233 135.437 452.233 135.642C452.233 135.838 452.167 136.006 452.035 136.147C451.907 136.284 451.723 136.353 451.481 136.353C451.235 136.353 451.048 136.284 450.921 136.147C450.797 136.006 450.736 135.838 450.736 135.642ZM457.403 145.137C456.888 145.137 456.421 145.05 456.001 144.877C455.587 144.699 455.229 144.451 454.928 144.132C454.632 143.813 454.404 143.435 454.245 142.997C454.085 142.56 454.005 142.081 454.005 141.562V141.274C454.005 140.673 454.094 140.137 454.272 139.668C454.45 139.194 454.691 138.793 454.996 138.465C455.302 138.137 455.648 137.888 456.036 137.72C456.423 137.551 456.824 137.467 457.239 137.467C457.767 137.467 458.223 137.558 458.606 137.74C458.993 137.923 459.31 138.178 459.556 138.506C459.802 138.829 459.984 139.212 460.103 139.654C460.221 140.092 460.281 140.57 460.281 141.09V141.657H454.757V140.625H459.016V140.529C458.998 140.201 458.929 139.882 458.811 139.572C458.697 139.262 458.515 139.007 458.264 138.807C458.013 138.606 457.672 138.506 457.239 138.506C456.952 138.506 456.687 138.567 456.446 138.69C456.204 138.809 455.997 138.987 455.824 139.224C455.65 139.461 455.516 139.75 455.42 140.092C455.325 140.434 455.277 140.828 455.277 141.274V141.562C455.277 141.912 455.325 142.243 455.42 142.553C455.521 142.858 455.664 143.127 455.851 143.359C456.042 143.592 456.273 143.774 456.541 143.906C456.815 144.038 457.125 144.104 457.471 144.104C457.918 144.104 458.296 144.013 458.606 143.831C458.916 143.649 459.187 143.405 459.419 143.1L460.185 143.708C460.025 143.95 459.823 144.18 459.577 144.398C459.33 144.617 459.027 144.795 458.667 144.932C458.312 145.068 457.89 145.137 457.403 145.137ZM466.264 143.038C466.264 142.856 466.223 142.687 466.141 142.532C466.063 142.373 465.902 142.229 465.655 142.102C465.414 141.969 465.049 141.855 464.562 141.76C464.152 141.673 463.78 141.571 463.447 141.452C463.119 141.334 462.839 141.19 462.607 141.021C462.379 140.853 462.203 140.655 462.08 140.427C461.957 140.199 461.896 139.932 461.896 139.627C461.896 139.335 461.96 139.06 462.087 138.8C462.219 138.54 462.404 138.31 462.641 138.109C462.882 137.909 463.172 137.752 463.509 137.638C463.846 137.524 464.222 137.467 464.637 137.467C465.229 137.467 465.735 137.572 466.154 137.781C466.574 137.991 466.895 138.271 467.118 138.622C467.342 138.968 467.453 139.354 467.453 139.777H466.189C466.189 139.572 466.127 139.374 466.004 139.183C465.886 138.987 465.71 138.825 465.478 138.697C465.25 138.57 464.97 138.506 464.637 138.506C464.286 138.506 464.001 138.561 463.782 138.67C463.568 138.775 463.411 138.909 463.311 139.073C463.215 139.237 463.167 139.41 463.167 139.593C463.167 139.729 463.19 139.853 463.236 139.962C463.286 140.067 463.372 140.165 463.495 140.256C463.618 140.342 463.792 140.424 464.015 140.502C464.238 140.579 464.523 140.657 464.869 140.734C465.475 140.871 465.974 141.035 466.366 141.227C466.758 141.418 467.05 141.653 467.241 141.931C467.433 142.209 467.529 142.546 467.529 142.942C467.529 143.266 467.46 143.562 467.323 143.831C467.191 144.1 466.998 144.332 466.742 144.528C466.492 144.72 466.191 144.87 465.84 144.979C465.494 145.084 465.104 145.137 464.671 145.137C464.019 145.137 463.468 145.021 463.017 144.788C462.566 144.556 462.224 144.255 461.991 143.886C461.759 143.517 461.643 143.127 461.643 142.717H462.914C462.932 143.063 463.033 143.339 463.215 143.544C463.397 143.744 463.621 143.888 463.885 143.975C464.149 144.057 464.411 144.098 464.671 144.098C465.017 144.098 465.307 144.052 465.539 143.961C465.776 143.87 465.956 143.744 466.079 143.585C466.202 143.425 466.264 143.243 466.264 143.038Z" fill="black" fill-opacity="0.87"/>
<path d="M615 138L620 143L625 138H615Z" fill="black" fill-opacity="0.54"/>
<rect x="160.5" y="180.5" width="483" height="55" rx="5.5" stroke="black" stroke-opacity="0.12"/>
<path d="M181.523 201.625V213H180.039V201.625H181.523ZM185.18 201.625V202.859H176.391V201.625H185.18ZM188.369 204.547V213H186.916V204.547H188.369ZM186.806 202.305C186.806 202.07 186.877 201.872 187.017 201.711C187.163 201.549 187.377 201.469 187.658 201.469C187.934 201.469 188.145 201.549 188.291 201.711C188.442 201.872 188.517 202.07 188.517 202.305C188.517 202.529 188.442 202.721 188.291 202.883C188.145 203.039 187.934 203.117 187.658 203.117C187.377 203.117 187.163 203.039 187.017 202.883C186.877 202.721 186.806 202.529 186.806 202.305ZM192.277 206.227V213H190.823V204.547H192.198L192.277 206.227ZM191.98 208.453L191.308 208.43C191.313 207.852 191.389 207.318 191.534 206.828C191.68 206.333 191.896 205.904 192.183 205.539C192.469 205.174 192.826 204.893 193.253 204.695C193.68 204.492 194.175 204.391 194.738 204.391C195.133 204.391 195.498 204.448 195.831 204.562C196.165 204.672 196.454 204.846 196.698 205.086C196.943 205.326 197.133 205.633 197.269 206.008C197.404 206.383 197.472 206.836 197.472 207.367V213H196.027V207.438C196.027 206.995 195.951 206.641 195.8 206.375C195.654 206.109 195.446 205.917 195.175 205.797C194.904 205.672 194.586 205.609 194.222 205.609C193.795 205.609 193.438 205.685 193.152 205.836C192.865 205.987 192.636 206.195 192.464 206.461C192.292 206.727 192.167 207.031 192.089 207.375C192.016 207.714 191.98 208.073 191.98 208.453ZM197.456 207.656L196.488 207.953C196.493 207.49 196.568 207.044 196.714 206.617C196.865 206.19 197.081 205.81 197.363 205.477C197.649 205.143 198.001 204.88 198.417 204.688C198.834 204.49 199.31 204.391 199.847 204.391C200.3 204.391 200.701 204.451 201.05 204.57C201.404 204.69 201.701 204.875 201.941 205.125C202.185 205.37 202.37 205.685 202.495 206.07C202.62 206.456 202.683 206.914 202.683 207.445V213H201.23V207.43C201.23 206.956 201.154 206.589 201.003 206.328C200.857 206.062 200.649 205.878 200.378 205.773C200.113 205.664 199.795 205.609 199.425 205.609C199.107 205.609 198.826 205.664 198.581 205.773C198.336 205.883 198.131 206.034 197.964 206.227C197.797 206.414 197.67 206.63 197.581 206.875C197.498 207.12 197.456 207.38 197.456 207.656ZM208.528 213.156C207.94 213.156 207.406 213.057 206.927 212.859C206.453 212.656 206.044 212.372 205.7 212.008C205.361 211.643 205.101 211.211 204.919 210.711C204.736 210.211 204.645 209.664 204.645 209.07V208.742C204.645 208.055 204.747 207.443 204.95 206.906C205.153 206.365 205.429 205.906 205.778 205.531C206.127 205.156 206.523 204.872 206.966 204.68C207.408 204.487 207.867 204.391 208.341 204.391C208.945 204.391 209.466 204.495 209.903 204.703C210.346 204.911 210.708 205.203 210.989 205.578C211.27 205.948 211.479 206.385 211.614 206.891C211.749 207.391 211.817 207.938 211.817 208.531V209.18H205.505V208H210.372V207.891C210.351 207.516 210.273 207.151 210.138 206.797C210.007 206.443 209.799 206.151 209.513 205.922C209.226 205.693 208.835 205.578 208.341 205.578C208.013 205.578 207.71 205.648 207.434 205.789C207.158 205.924 206.921 206.128 206.723 206.398C206.526 206.669 206.372 207 206.263 207.391C206.153 207.781 206.098 208.232 206.098 208.742V209.07C206.098 209.471 206.153 209.849 206.263 210.203C206.377 210.552 206.541 210.859 206.755 211.125C206.973 211.391 207.236 211.599 207.544 211.75C207.856 211.901 208.21 211.977 208.606 211.977C209.117 211.977 209.549 211.872 209.903 211.664C210.257 211.456 210.567 211.177 210.833 210.828L211.708 211.523C211.526 211.799 211.294 212.062 211.013 212.312C210.731 212.562 210.385 212.766 209.973 212.922C209.567 213.078 209.085 213.156 208.528 213.156ZM216.662 207.57V208.758H212.85V207.57H216.662ZM223.148 210.758C223.148 210.549 223.102 210.357 223.008 210.18C222.919 209.997 222.734 209.833 222.453 209.688C222.177 209.536 221.76 209.406 221.203 209.297C220.734 209.198 220.31 209.081 219.93 208.945C219.555 208.81 219.234 208.646 218.969 208.453C218.708 208.26 218.508 208.034 218.367 207.773C218.227 207.513 218.156 207.208 218.156 206.859C218.156 206.526 218.229 206.211 218.375 205.914C218.526 205.617 218.737 205.354 219.008 205.125C219.284 204.896 219.615 204.716 220 204.586C220.385 204.456 220.815 204.391 221.289 204.391C221.966 204.391 222.544 204.51 223.023 204.75C223.503 204.99 223.87 205.31 224.125 205.711C224.38 206.107 224.508 206.547 224.508 207.031H223.062C223.062 206.797 222.992 206.57 222.852 206.352C222.716 206.128 222.516 205.943 222.25 205.797C221.99 205.651 221.669 205.578 221.289 205.578C220.888 205.578 220.562 205.641 220.312 205.766C220.068 205.885 219.888 206.039 219.773 206.227C219.664 206.414 219.609 206.612 219.609 206.82C219.609 206.977 219.635 207.117 219.688 207.242C219.745 207.362 219.844 207.474 219.984 207.578C220.125 207.677 220.323 207.771 220.578 207.859C220.833 207.948 221.159 208.036 221.555 208.125C222.247 208.281 222.818 208.469 223.266 208.688C223.714 208.906 224.047 209.174 224.266 209.492C224.484 209.81 224.594 210.195 224.594 210.648C224.594 211.018 224.516 211.357 224.359 211.664C224.208 211.971 223.987 212.237 223.695 212.461C223.409 212.68 223.065 212.852 222.664 212.977C222.268 213.096 221.823 213.156 221.328 213.156C220.583 213.156 219.953 213.023 219.438 212.758C218.922 212.492 218.531 212.148 218.266 211.727C218 211.305 217.867 210.859 217.867 210.391H219.32C219.341 210.786 219.456 211.102 219.664 211.336C219.872 211.565 220.128 211.729 220.43 211.828C220.732 211.922 221.031 211.969 221.328 211.969C221.724 211.969 222.055 211.917 222.32 211.812C222.591 211.708 222.797 211.565 222.938 211.383C223.078 211.201 223.148 210.992 223.148 210.758ZM230.15 213.156C229.561 213.156 229.028 213.057 228.548 212.859C228.074 212.656 227.666 212.372 227.322 212.008C226.983 211.643 226.723 211.211 226.541 210.711C226.358 210.211 226.267 209.664 226.267 209.07V208.742C226.267 208.055 226.369 207.443 226.572 206.906C226.775 206.365 227.051 205.906 227.4 205.531C227.749 205.156 228.145 204.872 228.588 204.68C229.03 204.487 229.489 204.391 229.963 204.391C230.567 204.391 231.088 204.495 231.525 204.703C231.968 204.911 232.33 205.203 232.611 205.578C232.892 205.948 233.101 206.385 233.236 206.891C233.371 207.391 233.439 207.938 233.439 208.531V209.18H227.127V208H231.994V207.891C231.973 207.516 231.895 207.151 231.759 206.797C231.629 206.443 231.421 206.151 231.134 205.922C230.848 205.693 230.457 205.578 229.963 205.578C229.634 205.578 229.332 205.648 229.056 205.789C228.78 205.924 228.543 206.128 228.345 206.398C228.147 206.669 227.994 207 227.884 207.391C227.775 207.781 227.72 208.232 227.72 208.742V209.07C227.72 209.471 227.775 209.849 227.884 210.203C227.999 210.552 228.163 210.859 228.377 211.125C228.595 211.391 228.858 211.599 229.166 211.75C229.478 211.901 229.832 211.977 230.228 211.977C230.739 211.977 231.171 211.872 231.525 211.664C231.879 211.456 232.189 211.177 232.455 210.828L233.33 211.523C233.147 211.799 232.916 212.062 232.634 212.312C232.353 212.562 232.007 212.766 231.595 212.922C231.189 213.078 230.707 213.156 230.15 213.156ZM236.722 205.875V213H235.277V204.547H236.683L236.722 205.875ZM239.362 204.5L239.355 205.844C239.235 205.818 239.12 205.802 239.011 205.797C238.907 205.786 238.787 205.781 238.652 205.781C238.318 205.781 238.024 205.833 237.769 205.938C237.514 206.042 237.297 206.188 237.12 206.375C236.943 206.562 236.803 206.786 236.698 207.047C236.599 207.302 236.534 207.583 236.503 207.891L236.097 208.125C236.097 207.615 236.146 207.135 236.245 206.688C236.349 206.24 236.508 205.844 236.722 205.5C236.935 205.151 237.206 204.88 237.534 204.688C237.868 204.49 238.264 204.391 238.722 204.391C238.826 204.391 238.946 204.404 239.081 204.43C239.217 204.451 239.31 204.474 239.362 204.5ZM242.419 204.547V213H240.966V204.547H242.419ZM240.856 202.305C240.856 202.07 240.927 201.872 241.067 201.711C241.213 201.549 241.427 201.469 241.708 201.469C241.984 201.469 242.195 201.549 242.341 201.711C242.492 201.872 242.567 202.07 242.567 202.305C242.567 202.529 242.492 202.721 242.341 202.883C242.195 203.039 241.984 203.117 241.708 203.117C241.427 203.117 241.213 203.039 241.067 202.883C240.927 202.721 240.856 202.529 240.856 202.305ZM248.397 213.156C247.808 213.156 247.274 213.057 246.795 212.859C246.321 212.656 245.912 212.372 245.569 212.008C245.23 211.643 244.97 211.211 244.787 210.711C244.605 210.211 244.514 209.664 244.514 209.07V208.742C244.514 208.055 244.616 207.443 244.819 206.906C245.022 206.365 245.298 205.906 245.647 205.531C245.996 205.156 246.392 204.872 246.834 204.68C247.277 204.487 247.735 204.391 248.209 204.391C248.814 204.391 249.334 204.495 249.772 204.703C250.215 204.911 250.577 205.203 250.858 205.578C251.139 205.948 251.347 206.385 251.483 206.891C251.618 207.391 251.686 207.938 251.686 208.531V209.18H245.373V208H250.241V207.891C250.22 207.516 250.142 207.151 250.006 206.797C249.876 206.443 249.668 206.151 249.381 205.922C249.095 205.693 248.704 205.578 248.209 205.578C247.881 205.578 247.579 205.648 247.303 205.789C247.027 205.924 246.79 206.128 246.592 206.398C246.394 206.669 246.241 207 246.131 207.391C246.022 207.781 245.967 208.232 245.967 208.742V209.07C245.967 209.471 246.022 209.849 246.131 210.203C246.246 210.552 246.41 210.859 246.623 211.125C246.842 211.391 247.105 211.599 247.412 211.75C247.725 211.901 248.079 211.977 248.475 211.977C248.985 211.977 249.418 211.872 249.772 211.664C250.126 211.456 250.436 211.177 250.702 210.828L251.577 211.523C251.394 211.799 251.162 212.062 250.881 212.312C250.6 212.562 250.254 212.766 249.842 212.922C249.436 213.078 248.954 213.156 248.397 213.156ZM258.445 210.758C258.445 210.549 258.398 210.357 258.305 210.18C258.216 209.997 258.031 209.833 257.75 209.688C257.474 209.536 257.057 209.406 256.5 209.297C256.031 209.198 255.607 209.081 255.227 208.945C254.852 208.81 254.531 208.646 254.266 208.453C254.005 208.26 253.805 208.034 253.664 207.773C253.523 207.513 253.453 207.208 253.453 206.859C253.453 206.526 253.526 206.211 253.672 205.914C253.823 205.617 254.034 205.354 254.305 205.125C254.581 204.896 254.911 204.716 255.297 204.586C255.682 204.456 256.112 204.391 256.586 204.391C257.263 204.391 257.841 204.51 258.32 204.75C258.799 204.99 259.167 205.31 259.422 205.711C259.677 206.107 259.805 206.547 259.805 207.031H258.359C258.359 206.797 258.289 206.57 258.148 206.352C258.013 206.128 257.812 205.943 257.547 205.797C257.286 205.651 256.966 205.578 256.586 205.578C256.185 205.578 255.859 205.641 255.609 205.766C255.365 205.885 255.185 206.039 255.07 206.227C254.961 206.414 254.906 206.612 254.906 206.82C254.906 206.977 254.932 207.117 254.984 207.242C255.042 207.362 255.141 207.474 255.281 207.578C255.422 207.677 255.62 207.771 255.875 207.859C256.13 207.948 256.456 208.036 256.852 208.125C257.544 208.281 258.115 208.469 258.562 208.688C259.01 208.906 259.344 209.174 259.562 209.492C259.781 209.81 259.891 210.195 259.891 210.648C259.891 211.018 259.812 211.357 259.656 211.664C259.505 211.971 259.284 212.237 258.992 212.461C258.706 212.68 258.362 212.852 257.961 212.977C257.565 213.096 257.12 213.156 256.625 213.156C255.88 213.156 255.25 213.023 254.734 212.758C254.219 212.492 253.828 212.148 253.562 211.727C253.297 211.305 253.164 210.859 253.164 210.391H254.617C254.638 210.786 254.753 211.102 254.961 211.336C255.169 211.565 255.424 211.729 255.727 211.828C256.029 211.922 256.328 211.969 256.625 211.969C257.021 211.969 257.352 211.917 257.617 211.812C257.888 211.708 258.094 211.565 258.234 211.383C258.375 211.201 258.445 210.992 258.445 210.758ZM267.511 201V213H266.058V201H267.511ZM272.675 204.547L268.988 208.492L266.925 210.633L266.808 209.094L268.284 207.328L270.909 204.547H272.675ZM271.355 213L268.339 208.969L269.089 207.68L273.058 213H271.355ZM277.669 213.156C277.08 213.156 276.546 213.057 276.067 212.859C275.593 212.656 275.184 212.372 274.841 212.008C274.502 211.643 274.242 211.211 274.059 210.711C273.877 210.211 273.786 209.664 273.786 209.07V208.742C273.786 208.055 273.887 207.443 274.091 206.906C274.294 206.365 274.57 205.906 274.919 205.531C275.268 205.156 275.664 204.872 276.106 204.68C276.549 204.487 277.007 204.391 277.481 204.391C278.085 204.391 278.606 204.495 279.044 204.703C279.486 204.911 279.848 205.203 280.13 205.578C280.411 205.948 280.619 206.385 280.755 206.891C280.89 207.391 280.958 207.938 280.958 208.531V209.18H274.645V208H279.512V207.891C279.492 207.516 279.414 207.151 279.278 206.797C279.148 206.443 278.94 206.151 278.653 205.922C278.367 205.693 277.976 205.578 277.481 205.578C277.153 205.578 276.851 205.648 276.575 205.789C276.299 205.924 276.062 206.128 275.864 206.398C275.666 206.669 275.512 207 275.403 207.391C275.294 207.781 275.239 208.232 275.239 208.742V209.07C275.239 209.471 275.294 209.849 275.403 210.203C275.518 210.552 275.682 210.859 275.895 211.125C276.114 211.391 276.377 211.599 276.684 211.75C276.997 211.901 277.351 211.977 277.747 211.977C278.257 211.977 278.69 211.872 279.044 211.664C279.398 211.456 279.708 211.177 279.973 210.828L280.848 211.523C280.666 211.799 280.434 212.062 280.153 212.312C279.872 212.562 279.526 212.766 279.114 212.922C278.708 213.078 278.226 213.156 277.669 213.156ZM285.061 212.125L287.412 204.547H288.959L285.569 214.305C285.491 214.513 285.386 214.737 285.256 214.977C285.131 215.221 284.97 215.453 284.772 215.672C284.574 215.891 284.334 216.068 284.053 216.203C283.777 216.344 283.446 216.414 283.061 216.414C282.946 216.414 282.801 216.398 282.623 216.367C282.446 216.336 282.321 216.31 282.248 216.289L282.241 215.117C282.282 215.122 282.347 215.128 282.436 215.133C282.53 215.143 282.595 215.148 282.631 215.148C282.959 215.148 283.238 215.104 283.467 215.016C283.696 214.932 283.889 214.789 284.045 214.586C284.207 214.388 284.345 214.115 284.459 213.766L285.061 212.125ZM283.334 204.547L285.53 211.109L285.905 212.633L284.866 213.164L281.756 204.547H283.334ZM290.32 207.469L291.891 205.312L289.531 204.609L289.898 203.438L292.258 204.305L292.188 201.617H293.375L293.297 204.352L295.625 203.484L295.984 204.68L293.586 205.391L295.125 207.508L294.156 208.234L292.711 205.984L291.297 208.18L290.32 207.469Z" fill="black" fill-opacity="0.76"/>
<rect x="356" y="189" width="280" height="38" rx="4" fill="white"/>
<rect x="356.5" y="189.5" width="279" height="37" rx="3.5" stroke="black" stroke-opacity="0.12"/>
<path d="M373.271 211.038C373.271 210.856 373.229 210.687 373.147 210.532C373.07 210.373 372.908 210.229 372.662 210.102C372.421 209.969 372.056 209.855 371.568 209.76C371.158 209.673 370.787 209.571 370.454 209.452C370.126 209.334 369.846 209.19 369.613 209.021C369.385 208.853 369.21 208.655 369.087 208.427C368.964 208.199 368.902 207.932 368.902 207.627C368.902 207.335 368.966 207.06 369.094 206.8C369.226 206.54 369.41 206.31 369.647 206.109C369.889 205.909 370.178 205.752 370.516 205.638C370.853 205.524 371.229 205.467 371.644 205.467C372.236 205.467 372.742 205.572 373.161 205.781C373.58 205.991 373.902 206.271 374.125 206.622C374.348 206.968 374.46 207.354 374.46 207.777H373.195C373.195 207.572 373.134 207.374 373.011 207.183C372.892 206.987 372.717 206.825 372.484 206.697C372.257 206.57 371.976 206.506 371.644 206.506C371.293 206.506 371.008 206.561 370.789 206.67C370.575 206.775 370.418 206.909 370.317 207.073C370.222 207.237 370.174 207.41 370.174 207.593C370.174 207.729 370.197 207.853 370.242 207.962C370.292 208.067 370.379 208.165 370.502 208.256C370.625 208.342 370.798 208.424 371.021 208.502C371.245 208.579 371.53 208.657 371.876 208.734C372.482 208.871 372.981 209.035 373.373 209.227C373.765 209.418 374.057 209.653 374.248 209.931C374.439 210.209 374.535 210.546 374.535 210.942C374.535 211.266 374.467 211.562 374.33 211.831C374.198 212.1 374.004 212.332 373.749 212.528C373.498 212.72 373.198 212.87 372.847 212.979C372.5 213.084 372.111 213.137 371.678 213.137C371.026 213.137 370.475 213.021 370.023 212.788C369.572 212.556 369.23 212.255 368.998 211.886C368.766 211.517 368.649 211.127 368.649 210.717H369.921C369.939 211.063 370.039 211.339 370.222 211.544C370.404 211.744 370.627 211.888 370.892 211.975C371.156 212.057 371.418 212.098 371.678 212.098C372.024 212.098 372.313 212.052 372.546 211.961C372.783 211.87 372.963 211.744 373.086 211.585C373.209 211.425 373.271 211.243 373.271 211.038ZM379.493 205.604V206.574H375.494V205.604H379.493ZM376.847 203.806H378.112V211.168C378.112 211.419 378.151 211.608 378.228 211.735C378.306 211.863 378.406 211.947 378.529 211.988C378.652 212.029 378.784 212.05 378.926 212.05C379.03 212.05 379.14 212.041 379.254 212.022C379.372 212 379.461 211.981 379.52 211.968L379.527 213C379.427 213.032 379.295 213.062 379.131 213.089C378.971 213.121 378.777 213.137 378.55 213.137C378.24 213.137 377.955 213.075 377.695 212.952C377.435 212.829 377.228 212.624 377.073 212.337C376.923 212.045 376.847 211.653 376.847 211.161V203.806ZM385.538 211.735V207.928C385.538 207.636 385.478 207.383 385.36 207.169C385.246 206.95 385.073 206.782 384.84 206.663C384.608 206.545 384.321 206.485 383.979 206.485C383.66 206.485 383.38 206.54 383.138 206.649C382.901 206.759 382.714 206.902 382.578 207.08C382.446 207.258 382.379 207.449 382.379 207.654H381.115C381.115 207.39 381.183 207.128 381.32 206.868C381.457 206.608 381.653 206.374 381.908 206.164C382.168 205.95 382.477 205.781 382.837 205.658C383.202 205.531 383.608 205.467 384.054 205.467C384.592 205.467 385.066 205.558 385.476 205.74C385.891 205.923 386.214 206.198 386.447 206.567C386.684 206.932 386.802 207.39 386.802 207.941V211.387C386.802 211.633 386.823 211.895 386.864 212.173C386.909 212.451 386.976 212.69 387.062 212.891V213H385.743C385.679 212.854 385.629 212.66 385.592 212.419C385.556 212.173 385.538 211.945 385.538 211.735ZM385.756 208.516L385.77 209.404H384.492C384.132 209.404 383.81 209.434 383.528 209.493C383.245 209.548 383.008 209.632 382.817 209.746C382.626 209.86 382.48 210.004 382.379 210.177C382.279 210.345 382.229 210.544 382.229 210.771C382.229 211.004 382.282 211.216 382.386 211.407C382.491 211.599 382.648 211.751 382.858 211.865C383.072 211.975 383.334 212.029 383.644 212.029C384.032 212.029 384.373 211.947 384.67 211.783C384.966 211.619 385.2 211.419 385.374 211.182C385.551 210.945 385.647 210.715 385.661 210.491L386.201 211.1C386.169 211.291 386.082 211.503 385.941 211.735C385.8 211.968 385.611 212.191 385.374 212.405C385.141 212.615 384.863 212.79 384.54 212.932C384.221 213.068 383.861 213.137 383.46 213.137C382.958 213.137 382.518 213.039 382.14 212.843C381.767 212.647 381.475 212.385 381.265 212.057C381.06 211.724 380.958 211.353 380.958 210.942C380.958 210.546 381.035 210.197 381.19 209.896C381.345 209.591 381.568 209.338 381.86 209.138C382.152 208.933 382.503 208.778 382.913 208.673C383.323 208.568 383.781 208.516 384.287 208.516H385.756ZM392.088 205.604V206.574H388.089V205.604H392.088ZM389.443 203.806H390.707V211.168C390.707 211.419 390.746 211.608 390.824 211.735C390.901 211.863 391.001 211.947 391.124 211.988C391.247 212.029 391.38 212.05 391.521 212.05C391.626 212.05 391.735 212.041 391.849 212.022C391.968 212 392.056 211.981 392.116 211.968L392.122 213C392.022 213.032 391.89 213.062 391.726 213.089C391.566 213.121 391.373 213.137 391.145 213.137C390.835 213.137 390.55 213.075 390.29 212.952C390.031 212.829 389.823 212.624 389.668 212.337C389.518 212.045 389.443 211.653 389.443 211.161V203.806ZM396.841 213.137C396.326 213.137 395.859 213.05 395.44 212.877C395.025 212.699 394.667 212.451 394.366 212.132C394.07 211.813 393.842 211.435 393.683 210.997C393.523 210.56 393.444 210.081 393.444 209.562V209.274C393.444 208.673 393.532 208.137 393.71 207.668C393.888 207.194 394.129 206.793 394.435 206.465C394.74 206.137 395.086 205.888 395.474 205.72C395.861 205.551 396.262 205.467 396.677 205.467C397.206 205.467 397.661 205.558 398.044 205.74C398.432 205.923 398.748 206.178 398.994 206.506C399.24 206.829 399.423 207.212 399.541 207.654C399.66 208.092 399.719 208.57 399.719 209.09V209.657H394.196V208.625H398.454V208.529C398.436 208.201 398.368 207.882 398.249 207.572C398.135 207.262 397.953 207.007 397.702 206.807C397.452 206.606 397.11 206.506 396.677 206.506C396.39 206.506 396.126 206.567 395.884 206.69C395.642 206.809 395.435 206.987 395.262 207.224C395.089 207.461 394.954 207.75 394.859 208.092C394.763 208.434 394.715 208.828 394.715 209.274V209.562C394.715 209.912 394.763 210.243 394.859 210.553C394.959 210.858 395.102 211.127 395.289 211.359C395.481 211.592 395.711 211.774 395.98 211.906C396.253 212.038 396.563 212.104 396.909 212.104C397.356 212.104 397.734 212.013 398.044 211.831C398.354 211.649 398.625 211.405 398.858 211.1L399.623 211.708C399.464 211.95 399.261 212.18 399.015 212.398C398.769 212.617 398.466 212.795 398.106 212.932C397.75 213.068 397.329 213.137 396.841 213.137Z" fill="black" fill-opacity="0.87"/>
<path d="M627 202.41L625.59 201L620 206.59L614.41 201L613 202.41L618.59 208L613 213.59L614.41 215L620 209.41L625.59 215L627 213.59L621.41 208L627 202.41Z" fill="black" fill-opacity="0.38"/>
<rect x="160.5" y="248.5" width="483" height="103" rx="5.5" stroke="black" stroke-opacity="0.12"/>
<path d="M180.992 279.273L184.344 269.625H185.977L181.766 281H180.602L180.992 279.273ZM177.859 269.625L181.18 279.273L181.594 281H180.43L176.227 269.625H177.859ZM192.064 279.555V275.203C192.064 274.87 191.996 274.581 191.861 274.336C191.731 274.086 191.533 273.893 191.267 273.758C191.002 273.622 190.673 273.555 190.283 273.555C189.918 273.555 189.598 273.617 189.322 273.742C189.051 273.867 188.837 274.031 188.681 274.234C188.53 274.438 188.455 274.656 188.455 274.891H187.009C187.009 274.589 187.087 274.289 187.244 273.992C187.4 273.695 187.624 273.427 187.916 273.188C188.212 272.943 188.567 272.75 188.978 272.609C189.395 272.464 189.858 272.391 190.369 272.391C190.983 272.391 191.525 272.495 191.994 272.703C192.468 272.911 192.837 273.227 193.103 273.648C193.374 274.065 193.509 274.589 193.509 275.219V279.156C193.509 279.438 193.533 279.737 193.58 280.055C193.632 280.372 193.707 280.646 193.806 280.875V281H192.298C192.226 280.833 192.168 280.612 192.127 280.336C192.085 280.055 192.064 279.794 192.064 279.555ZM192.314 275.875L192.33 276.891H190.869C190.457 276.891 190.09 276.924 189.767 276.992C189.444 277.055 189.173 277.151 188.955 277.281C188.736 277.411 188.569 277.576 188.455 277.773C188.34 277.966 188.283 278.193 188.283 278.453C188.283 278.719 188.343 278.961 188.462 279.18C188.582 279.398 188.762 279.573 189.002 279.703C189.246 279.828 189.546 279.891 189.9 279.891C190.343 279.891 190.733 279.797 191.072 279.609C191.41 279.422 191.679 279.193 191.877 278.922C192.08 278.651 192.189 278.388 192.205 278.133L192.822 278.828C192.785 279.047 192.686 279.289 192.525 279.555C192.364 279.82 192.147 280.076 191.877 280.32C191.611 280.56 191.293 280.76 190.923 280.922C190.559 281.078 190.147 281.156 189.689 281.156C189.116 281.156 188.614 281.044 188.181 280.82C187.754 280.596 187.421 280.297 187.181 279.922C186.947 279.542 186.83 279.117 186.83 278.648C186.83 278.195 186.918 277.797 187.095 277.453C187.272 277.104 187.528 276.815 187.861 276.586C188.194 276.352 188.595 276.174 189.064 276.055C189.533 275.935 190.056 275.875 190.634 275.875H192.314ZM197.503 269V281H196.05V269H197.503ZM205.145 279.047V272.547H206.598V281H205.216L205.145 279.047ZM205.419 277.266L206.02 277.25C206.02 277.812 205.96 278.333 205.841 278.812C205.726 279.286 205.539 279.698 205.278 280.047C205.018 280.396 204.677 280.669 204.255 280.867C203.833 281.06 203.32 281.156 202.716 281.156C202.304 281.156 201.927 281.096 201.583 280.977C201.244 280.857 200.953 280.672 200.708 280.422C200.463 280.172 200.273 279.846 200.138 279.445C200.007 279.044 199.942 278.562 199.942 278V272.547H201.388V278.016C201.388 278.396 201.429 278.711 201.513 278.961C201.601 279.206 201.718 279.401 201.864 279.547C202.015 279.688 202.182 279.786 202.364 279.844C202.552 279.901 202.744 279.93 202.942 279.93C203.557 279.93 204.044 279.812 204.403 279.578C204.763 279.339 205.02 279.018 205.177 278.617C205.338 278.211 205.419 277.76 205.419 277.266ZM212.459 281.156C211.871 281.156 211.337 281.057 210.858 280.859C210.384 280.656 209.975 280.372 209.631 280.008C209.293 279.643 209.032 279.211 208.85 278.711C208.668 278.211 208.577 277.664 208.577 277.07V276.742C208.577 276.055 208.678 275.443 208.881 274.906C209.084 274.365 209.36 273.906 209.709 273.531C210.058 273.156 210.454 272.872 210.897 272.68C211.34 272.487 211.798 272.391 212.272 272.391C212.876 272.391 213.397 272.495 213.834 272.703C214.277 272.911 214.639 273.203 214.92 273.578C215.202 273.948 215.41 274.385 215.545 274.891C215.681 275.391 215.748 275.938 215.748 276.531V277.18H209.436V276H214.303V275.891C214.282 275.516 214.204 275.151 214.069 274.797C213.939 274.443 213.73 274.151 213.444 273.922C213.157 273.693 212.767 273.578 212.272 273.578C211.944 273.578 211.642 273.648 211.366 273.789C211.09 273.924 210.853 274.128 210.655 274.398C210.457 274.669 210.303 275 210.194 275.391C210.084 275.781 210.03 276.232 210.03 276.742V277.07C210.03 277.471 210.084 277.849 210.194 278.203C210.308 278.552 210.472 278.859 210.686 279.125C210.905 279.391 211.168 279.599 211.475 279.75C211.788 279.901 212.142 279.977 212.538 279.977C213.048 279.977 213.48 279.872 213.834 279.664C214.189 279.456 214.498 279.177 214.764 278.828L215.639 279.523C215.457 279.799 215.225 280.062 214.944 280.312C214.663 280.562 214.316 280.766 213.905 280.922C213.498 281.078 213.017 281.156 212.459 281.156Z" fill="black" fill-opacity="0.76"/>
<rect x="356" y="260" width="272" height="32" rx="16" fill="black" fill-opacity="0.06"/>
<rect x="358.5" y="262.5" width="133" height="27" rx="13.5" fill="#305680" fill-opacity="0.04"/>
<rect x="358.5" y="262.5" width="133" height="27" rx="13.5" stroke="#305680"/>
<path d="M402.64 277.76H404.349C404.294 278.411 404.112 278.993 403.802 279.503C403.492 280.009 403.057 280.408 402.496 280.699C401.936 280.991 401.254 281.137 400.452 281.137C399.837 281.137 399.283 281.027 398.791 280.809C398.299 280.585 397.877 280.271 397.526 279.865C397.175 279.455 396.907 278.961 396.72 278.382C396.537 277.803 396.446 277.156 396.446 276.44V275.613C396.446 274.898 396.54 274.251 396.727 273.672C396.918 273.093 397.191 272.599 397.547 272.188C397.902 271.774 398.328 271.457 398.825 271.238C399.326 271.02 399.889 270.91 400.514 270.91C401.307 270.91 401.977 271.056 402.523 271.348C403.07 271.639 403.494 272.043 403.795 272.558C404.1 273.073 404.287 273.663 404.355 274.328H402.646C402.601 273.9 402.501 273.533 402.346 273.228C402.195 272.922 401.972 272.69 401.676 272.53C401.38 272.366 400.992 272.284 400.514 272.284C400.122 272.284 399.78 272.357 399.488 272.503C399.197 272.649 398.953 272.863 398.757 273.146C398.561 273.428 398.413 273.777 398.312 274.191C398.217 274.602 398.169 275.071 398.169 275.6V276.44C398.169 276.942 398.212 277.397 398.299 277.808C398.39 278.213 398.527 278.562 398.709 278.854C398.896 279.145 399.133 279.371 399.42 279.53C399.707 279.69 400.051 279.77 400.452 279.77C400.94 279.77 401.334 279.692 401.635 279.537C401.94 279.382 402.17 279.157 402.325 278.86C402.485 278.56 402.59 278.193 402.64 277.76ZM405.679 277.384V277.227C405.679 276.693 405.756 276.199 405.911 275.743C406.066 275.283 406.289 274.884 406.581 274.547C406.877 274.205 407.237 273.941 407.661 273.754C408.09 273.562 408.573 273.467 409.11 273.467C409.653 273.467 410.136 273.562 410.56 273.754C410.988 273.941 411.35 274.205 411.646 274.547C411.943 274.884 412.168 275.283 412.323 275.743C412.478 276.199 412.556 276.693 412.556 277.227V277.384C412.556 277.917 412.478 278.411 412.323 278.867C412.168 279.323 411.943 279.722 411.646 280.063C411.35 280.401 410.99 280.665 410.566 280.856C410.143 281.043 409.662 281.137 409.124 281.137C408.582 281.137 408.096 281.043 407.668 280.856C407.244 280.665 406.884 280.401 406.588 280.063C406.292 279.722 406.066 279.323 405.911 278.867C405.756 278.411 405.679 277.917 405.679 277.384ZM407.326 277.227V277.384C407.326 277.716 407.36 278.031 407.429 278.327C407.497 278.623 407.604 278.883 407.75 279.106C407.896 279.33 408.083 279.505 408.311 279.633C408.538 279.76 408.81 279.824 409.124 279.824C409.429 279.824 409.694 279.76 409.917 279.633C410.145 279.505 410.332 279.33 410.478 279.106C410.623 278.883 410.73 278.623 410.799 278.327C410.872 278.031 410.908 277.716 410.908 277.384V277.227C410.908 276.898 410.872 276.589 410.799 276.297C410.73 276.001 410.621 275.739 410.471 275.511C410.325 275.283 410.138 275.105 409.91 274.978C409.687 274.845 409.42 274.779 409.11 274.779C408.8 274.779 408.532 274.845 408.304 274.978C408.08 275.105 407.896 275.283 407.75 275.511C407.604 275.739 407.497 276.001 407.429 276.297C407.36 276.589 407.326 276.898 407.326 277.227ZM415.82 275.183V281H414.173V273.604H415.725L415.82 275.183ZM415.526 277.028L414.993 277.021C414.998 276.497 415.071 276.017 415.212 275.579C415.358 275.142 415.558 274.766 415.813 274.451C416.073 274.137 416.383 273.895 416.743 273.727C417.103 273.553 417.504 273.467 417.946 273.467C418.302 273.467 418.623 273.517 418.91 273.617C419.202 273.713 419.45 273.87 419.655 274.089C419.865 274.308 420.024 274.592 420.134 274.943C420.243 275.29 420.298 275.716 420.298 276.222V281H418.644V276.215C418.644 275.859 418.591 275.579 418.486 275.374C418.386 275.164 418.238 275.016 418.042 274.93C417.851 274.839 417.611 274.793 417.324 274.793C417.042 274.793 416.789 274.852 416.565 274.971C416.342 275.089 416.153 275.251 415.998 275.456C415.848 275.661 415.731 275.898 415.649 276.167C415.567 276.436 415.526 276.723 415.526 277.028ZM426.379 278.997C426.379 278.833 426.338 278.685 426.256 278.553C426.174 278.416 426.017 278.293 425.784 278.184C425.556 278.074 425.219 277.974 424.772 277.883C424.381 277.796 424.021 277.694 423.692 277.575C423.369 277.452 423.091 277.304 422.858 277.131C422.626 276.958 422.446 276.753 422.318 276.516C422.191 276.279 422.127 276.005 422.127 275.695C422.127 275.395 422.193 275.11 422.325 274.841C422.457 274.572 422.646 274.335 422.893 274.13C423.139 273.925 423.437 273.763 423.788 273.645C424.144 273.526 424.54 273.467 424.978 273.467C425.597 273.467 426.128 273.572 426.57 273.781C427.017 273.986 427.359 274.267 427.596 274.622C427.833 274.973 427.951 275.369 427.951 275.812H426.304C426.304 275.616 426.254 275.433 426.153 275.265C426.058 275.091 425.912 274.952 425.716 274.848C425.52 274.738 425.274 274.684 424.978 274.684C424.695 274.684 424.46 274.729 424.273 274.82C424.091 274.907 423.954 275.021 423.863 275.162C423.777 275.303 423.733 275.458 423.733 275.627C423.733 275.75 423.756 275.862 423.802 275.962C423.852 276.058 423.934 276.146 424.048 276.229C424.162 276.306 424.317 276.379 424.513 276.447C424.713 276.516 424.964 276.582 425.265 276.646C425.83 276.764 426.315 276.917 426.721 277.104C427.131 277.286 427.445 277.523 427.664 277.814C427.883 278.102 427.992 278.466 427.992 278.908C427.992 279.236 427.922 279.537 427.78 279.811C427.644 280.079 427.443 280.314 427.179 280.515C426.914 280.711 426.598 280.863 426.229 280.973C425.864 281.082 425.454 281.137 424.998 281.137C424.328 281.137 423.761 281.018 423.296 280.781C422.831 280.54 422.478 280.232 422.236 279.858C421.999 279.48 421.881 279.088 421.881 278.683H423.474C423.492 278.988 423.576 279.232 423.727 279.414C423.882 279.592 424.073 279.722 424.301 279.804C424.533 279.881 424.772 279.92 425.019 279.92C425.315 279.92 425.563 279.881 425.764 279.804C425.964 279.722 426.117 279.612 426.222 279.476C426.326 279.334 426.379 279.175 426.379 278.997ZM433.075 273.604V274.807H428.905V273.604H433.075ZM430.108 271.792H431.756V278.956C431.756 279.184 431.788 279.359 431.852 279.482C431.92 279.601 432.013 279.681 432.132 279.722C432.25 279.763 432.389 279.783 432.549 279.783C432.663 279.783 432.772 279.776 432.877 279.763C432.982 279.749 433.066 279.735 433.13 279.722L433.137 280.979C433 281.021 432.84 281.057 432.658 281.089C432.48 281.121 432.275 281.137 432.043 281.137C431.665 281.137 431.33 281.071 431.038 280.938C430.746 280.802 430.519 280.581 430.354 280.275C430.19 279.97 430.108 279.564 430.108 279.059V271.792ZM438.767 279.517V275.989C438.767 275.725 438.719 275.497 438.623 275.306C438.527 275.114 438.382 274.966 438.186 274.861C437.994 274.757 437.753 274.704 437.461 274.704C437.192 274.704 436.96 274.75 436.764 274.841C436.568 274.932 436.415 275.055 436.306 275.21C436.196 275.365 436.142 275.54 436.142 275.736H434.501C434.501 275.445 434.572 275.162 434.713 274.889C434.854 274.615 435.059 274.371 435.328 274.157C435.597 273.943 435.918 273.774 436.292 273.651C436.666 273.528 437.085 273.467 437.55 273.467C438.106 273.467 438.598 273.56 439.026 273.747C439.459 273.934 439.799 274.216 440.045 274.595C440.296 274.968 440.421 275.438 440.421 276.003V279.291C440.421 279.628 440.444 279.931 440.489 280.2C440.539 280.465 440.61 280.695 440.701 280.891V281H439.013C438.935 280.822 438.874 280.597 438.828 280.323C438.787 280.045 438.767 279.776 438.767 279.517ZM439.006 276.502L439.02 277.521H437.837C437.532 277.521 437.263 277.55 437.03 277.609C436.798 277.664 436.604 277.746 436.449 277.855C436.294 277.965 436.178 278.097 436.101 278.252C436.023 278.407 435.984 278.582 435.984 278.778C435.984 278.974 436.03 279.154 436.121 279.318C436.212 279.478 436.344 279.603 436.518 279.694C436.695 279.785 436.91 279.831 437.16 279.831C437.497 279.831 437.791 279.763 438.042 279.626C438.297 279.485 438.498 279.314 438.644 279.113C438.789 278.908 438.867 278.715 438.876 278.532L439.409 279.264C439.354 279.451 439.261 279.651 439.129 279.865C438.997 280.079 438.824 280.285 438.609 280.48C438.4 280.672 438.147 280.829 437.851 280.952C437.559 281.075 437.222 281.137 436.839 281.137C436.356 281.137 435.925 281.041 435.547 280.85C435.169 280.654 434.872 280.392 434.658 280.063C434.444 279.731 434.337 279.355 434.337 278.936C434.337 278.544 434.41 278.197 434.556 277.896C434.706 277.591 434.925 277.336 435.212 277.131C435.504 276.926 435.859 276.771 436.278 276.666C436.698 276.557 437.176 276.502 437.714 276.502H439.006ZM444.027 275.183V281H442.38V273.604H443.932L444.027 275.183ZM443.733 277.028L443.2 277.021C443.205 276.497 443.278 276.017 443.419 275.579C443.565 275.142 443.765 274.766 444.021 274.451C444.28 274.137 444.59 273.895 444.95 273.727C445.31 273.553 445.711 273.467 446.153 273.467C446.509 273.467 446.83 273.517 447.117 273.617C447.409 273.713 447.657 273.87 447.862 274.089C448.072 274.308 448.231 274.592 448.341 274.943C448.45 275.29 448.505 275.716 448.505 276.222V281H446.851V276.215C446.851 275.859 446.798 275.579 446.693 275.374C446.593 275.164 446.445 275.016 446.249 274.93C446.058 274.839 445.818 274.793 445.531 274.793C445.249 274.793 444.996 274.852 444.772 274.971C444.549 275.089 444.36 275.251 444.205 275.456C444.055 275.661 443.938 275.898 443.856 276.167C443.774 276.436 443.733 276.723 443.733 277.028ZM453.827 273.604V274.807H449.657V273.604H453.827ZM450.86 271.792H452.508V278.956C452.508 279.184 452.54 279.359 452.604 279.482C452.672 279.601 452.765 279.681 452.884 279.722C453.002 279.763 453.141 279.783 453.301 279.783C453.415 279.783 453.524 279.776 453.629 279.763C453.734 279.749 453.818 279.735 453.882 279.722L453.889 280.979C453.752 281.021 453.592 281.057 453.41 281.089C453.232 281.121 453.027 281.137 452.795 281.137C452.417 281.137 452.082 281.071 451.79 280.938C451.498 280.802 451.271 280.581 451.106 280.275C450.942 279.97 450.86 279.564 450.86 279.059V271.792Z" fill="#305680"/>
<path d="M533.732 271.047V281H532.412V271.047H533.732ZM537.902 275.524V276.604H533.445V275.524H537.902ZM538.578 271.047V272.127H533.445V271.047H538.578ZM544.534 279.291V273.604H545.806V281H544.596L544.534 279.291ZM544.773 277.732L545.3 277.719C545.3 278.211 545.247 278.667 545.143 279.086C545.042 279.501 544.878 279.861 544.65 280.166C544.423 280.471 544.124 280.711 543.755 280.884C543.386 281.052 542.937 281.137 542.408 281.137C542.048 281.137 541.718 281.084 541.417 280.979C541.121 280.875 540.866 280.713 540.651 280.494C540.437 280.275 540.271 279.991 540.152 279.64C540.038 279.289 539.981 278.867 539.981 278.375V273.604H541.246V278.389C541.246 278.721 541.283 278.997 541.355 279.216C541.433 279.43 541.535 279.601 541.663 279.729C541.795 279.852 541.941 279.938 542.101 279.988C542.265 280.038 542.433 280.063 542.606 280.063C543.144 280.063 543.57 279.961 543.885 279.756C544.199 279.546 544.425 279.266 544.562 278.915C544.703 278.56 544.773 278.165 544.773 277.732ZM549.198 275.183V281H547.933V273.604H549.13L549.198 275.183ZM548.897 277.021L548.371 277.001C548.375 276.495 548.451 276.028 548.596 275.6C548.742 275.167 548.947 274.791 549.212 274.472C549.476 274.153 549.79 273.907 550.155 273.733C550.524 273.556 550.932 273.467 551.379 273.467C551.743 273.467 552.071 273.517 552.363 273.617C552.655 273.713 552.903 273.868 553.108 274.082C553.318 274.296 553.477 274.574 553.587 274.916C553.696 275.253 553.751 275.666 553.751 276.153V281H552.479V276.14C552.479 275.752 552.422 275.442 552.308 275.21C552.194 274.973 552.028 274.802 551.809 274.697C551.591 274.588 551.322 274.533 551.003 274.533C550.688 274.533 550.401 274.599 550.141 274.731C549.886 274.864 549.665 275.046 549.478 275.278C549.296 275.511 549.152 275.777 549.048 276.078C548.947 276.374 548.897 276.689 548.897 277.021ZM558.832 280.098C559.132 280.098 559.41 280.036 559.666 279.913C559.921 279.79 560.13 279.621 560.295 279.407C560.459 279.188 560.552 278.94 560.575 278.662H561.778C561.755 279.1 561.607 279.507 561.334 279.886C561.065 280.259 560.712 280.562 560.274 280.795C559.837 281.023 559.356 281.137 558.832 281.137C558.276 281.137 557.79 281.039 557.376 280.843C556.965 280.647 556.624 280.378 556.35 280.036C556.081 279.694 555.879 279.302 555.742 278.86C555.61 278.414 555.544 277.942 555.544 277.445V277.158C555.544 276.661 555.61 276.192 555.742 275.75C555.879 275.303 556.081 274.909 556.35 274.567C556.624 274.226 556.965 273.957 557.376 273.761C557.79 273.565 558.276 273.467 558.832 273.467C559.41 273.467 559.916 273.585 560.349 273.822C560.782 274.055 561.122 274.374 561.368 274.779C561.618 275.18 561.755 275.636 561.778 276.146H560.575C560.552 275.841 560.465 275.565 560.315 275.319C560.169 275.073 559.969 274.877 559.713 274.731C559.463 274.581 559.169 274.506 558.832 274.506C558.444 274.506 558.118 274.583 557.854 274.738C557.594 274.889 557.387 275.094 557.232 275.354C557.082 275.609 556.972 275.894 556.904 276.208C556.84 276.518 556.808 276.835 556.808 277.158V277.445C556.808 277.769 556.84 278.088 556.904 278.402C556.968 278.717 557.075 279.002 557.225 279.257C557.38 279.512 557.587 279.717 557.847 279.872C558.112 280.022 558.44 280.098 558.832 280.098ZM566.496 273.604V274.574H562.497V273.604H566.496ZM563.851 271.806H565.116V279.168C565.116 279.419 565.154 279.608 565.232 279.735C565.309 279.863 565.41 279.947 565.533 279.988C565.656 280.029 565.788 280.05 565.929 280.05C566.034 280.05 566.143 280.041 566.257 280.022C566.376 280 566.465 279.981 566.524 279.968L566.531 281C566.43 281.032 566.298 281.062 566.134 281.089C565.975 281.121 565.781 281.137 565.553 281.137C565.243 281.137 564.958 281.075 564.699 280.952C564.439 280.829 564.232 280.624 564.077 280.337C563.926 280.045 563.851 279.653 563.851 279.161V271.806ZM569.554 273.604V281H568.282V273.604H569.554ZM568.187 271.642C568.187 271.437 568.248 271.263 568.371 271.122C568.499 270.981 568.686 270.91 568.932 270.91C569.173 270.91 569.358 270.981 569.486 271.122C569.618 271.263 569.684 271.437 569.684 271.642C569.684 271.838 569.618 272.006 569.486 272.147C569.358 272.284 569.173 272.353 568.932 272.353C568.686 272.353 568.499 272.284 568.371 272.147C568.248 272.006 568.187 271.838 568.187 271.642ZM571.449 277.384V277.227C571.449 276.693 571.527 276.199 571.682 275.743C571.837 275.283 572.06 274.884 572.352 274.547C572.643 274.205 572.996 273.941 573.411 273.754C573.826 273.562 574.291 273.467 574.806 273.467C575.325 273.467 575.792 273.562 576.207 273.754C576.626 273.941 576.982 274.205 577.273 274.547C577.57 274.884 577.795 275.283 577.95 275.743C578.105 276.199 578.183 276.693 578.183 277.227V277.384C578.183 277.917 578.105 278.411 577.95 278.867C577.795 279.323 577.57 279.722 577.273 280.063C576.982 280.401 576.629 280.665 576.214 280.856C575.804 281.043 575.339 281.137 574.819 281.137C574.3 281.137 573.833 281.043 573.418 280.856C573.003 280.665 572.648 280.401 572.352 280.063C572.06 279.722 571.837 279.323 571.682 278.867C571.527 278.411 571.449 277.917 571.449 277.384ZM572.714 277.227V277.384C572.714 277.753 572.757 278.102 572.844 278.43C572.93 278.753 573.06 279.04 573.233 279.291C573.411 279.542 573.632 279.74 573.896 279.886C574.161 280.027 574.468 280.098 574.819 280.098C575.166 280.098 575.469 280.027 575.729 279.886C575.993 279.74 576.212 279.542 576.385 279.291C576.558 279.04 576.688 278.753 576.774 278.43C576.866 278.102 576.911 277.753 576.911 277.384V277.227C576.911 276.862 576.866 276.518 576.774 276.194C576.688 275.866 576.556 275.577 576.378 275.326C576.205 275.071 575.986 274.87 575.722 274.725C575.462 274.579 575.157 274.506 574.806 274.506C574.459 274.506 574.154 274.579 573.89 274.725C573.63 274.87 573.411 275.071 573.233 275.326C573.06 275.577 572.93 275.866 572.844 276.194C572.757 276.518 572.714 276.862 572.714 277.227ZM581.233 275.183V281H579.969V273.604H581.165L581.233 275.183ZM580.932 277.021L580.406 277.001C580.411 276.495 580.486 276.028 580.632 275.6C580.777 275.167 580.983 274.791 581.247 274.472C581.511 274.153 581.826 273.907 582.19 273.733C582.559 273.556 582.967 273.467 583.414 273.467C583.778 273.467 584.107 273.517 584.398 273.617C584.69 273.713 584.938 273.868 585.143 274.082C585.353 274.296 585.513 274.574 585.622 274.916C585.731 275.253 585.786 275.666 585.786 276.153V281H584.514V276.14C584.514 275.752 584.457 275.442 584.344 275.21C584.23 274.973 584.063 274.802 583.845 274.697C583.626 274.588 583.357 274.533 583.038 274.533C582.723 274.533 582.436 274.599 582.177 274.731C581.921 274.864 581.7 275.046 581.513 275.278C581.331 275.511 581.188 275.777 581.083 276.078C580.983 276.374 580.932 276.689 580.932 277.021Z" fill="black" fill-opacity="0.38"/>
<rect x="176" y="302" width="160" height="38" rx="4" fill="white"/>
<rect x="176.5" y="302.5" width="159" height="37" rx="3.5" stroke="black" stroke-opacity="0.12"/>
<path d="M206.5 313L207.66 317.35L206.7 317.61C206.25 316.74 205.79 315.87 205.26 315.43C204.73 315 204.11 315 203.5 315H201V325.5C201 326 201 326.5 201.33 326.75C201.67 327 202.33 327 203 327V328H197V327C197.67 327 198.33 327 198.67 326.75C199 326.5 199 326 199 325.5V315H196.5C195.89 315 195.27 315 194.74 315.43C194.21 315.87 193.75 316.74 193.3 317.61L192.34 317.35L193.5 313H206.5Z" fill="black" fill-opacity="0.38"/>
<path d="M226.46 323.484C226.46 323.252 226.424 323.047 226.351 322.869C226.282 322.687 226.159 322.523 225.981 322.377C225.808 322.231 225.567 322.092 225.257 321.96C224.951 321.828 224.564 321.693 224.095 321.557C223.603 321.411 223.158 321.249 222.762 321.071C222.365 320.889 222.026 320.682 221.743 320.449C221.461 320.217 221.244 319.95 221.094 319.649C220.943 319.349 220.868 319.005 220.868 318.617C220.868 318.23 220.948 317.872 221.107 317.544C221.267 317.216 221.495 316.931 221.791 316.689C222.092 316.443 222.45 316.252 222.864 316.115C223.279 315.979 223.742 315.91 224.252 315.91C224.999 315.91 225.633 316.054 226.152 316.341C226.676 316.623 227.075 316.995 227.349 317.455C227.622 317.911 227.759 318.398 227.759 318.918H226.446C226.446 318.544 226.367 318.214 226.207 317.927C226.048 317.635 225.806 317.407 225.482 317.243C225.159 317.075 224.749 316.99 224.252 316.99C223.783 316.99 223.395 317.061 223.09 317.202C222.785 317.343 222.557 317.535 222.406 317.776C222.26 318.018 222.188 318.294 222.188 318.604C222.188 318.813 222.231 319.005 222.317 319.178C222.409 319.346 222.548 319.504 222.734 319.649C222.926 319.795 223.167 319.93 223.459 320.053C223.755 320.176 224.108 320.294 224.519 320.408C225.084 320.568 225.571 320.745 225.981 320.941C226.392 321.137 226.729 321.358 226.993 321.604C227.262 321.846 227.46 322.122 227.588 322.432C227.72 322.737 227.786 323.083 227.786 323.471C227.786 323.876 227.704 324.243 227.54 324.571C227.376 324.899 227.141 325.18 226.836 325.412C226.531 325.645 226.164 325.825 225.735 325.952C225.312 326.075 224.838 326.137 224.313 326.137C223.853 326.137 223.4 326.073 222.953 325.945C222.511 325.818 222.108 325.626 221.743 325.371C221.383 325.116 221.094 324.801 220.875 324.428C220.661 324.049 220.554 323.612 220.554 323.115H221.866C221.866 323.457 221.932 323.751 222.064 323.997C222.197 324.239 222.377 324.439 222.604 324.599C222.837 324.758 223.099 324.877 223.391 324.954C223.687 325.027 223.994 325.063 224.313 325.063C224.774 325.063 225.163 325 225.482 324.872C225.801 324.744 226.043 324.562 226.207 324.325C226.376 324.088 226.46 323.808 226.46 323.484ZM232.573 318.604V319.574H228.574V318.604H232.573ZM229.928 316.806H231.192V324.168C231.192 324.419 231.231 324.608 231.308 324.735C231.386 324.863 231.486 324.947 231.609 324.988C231.732 325.029 231.864 325.05 232.006 325.05C232.11 325.05 232.22 325.041 232.334 325.022C232.452 325 232.541 324.981 232.6 324.968L232.607 326C232.507 326.032 232.375 326.062 232.211 326.089C232.051 326.121 231.858 326.137 231.63 326.137C231.32 326.137 231.035 326.075 230.775 325.952C230.515 325.829 230.308 325.624 230.153 325.337C230.003 325.045 229.928 324.653 229.928 324.161V316.806ZM235.521 319.766V326H234.256V318.604H235.487L235.521 319.766ZM237.832 318.562L237.825 319.738C237.72 319.715 237.62 319.702 237.524 319.697C237.433 319.688 237.328 319.684 237.21 319.684C236.918 319.684 236.66 319.729 236.437 319.82C236.214 319.911 236.025 320.039 235.87 320.203C235.715 320.367 235.592 320.563 235.501 320.791C235.414 321.014 235.357 321.26 235.33 321.529L234.974 321.734C234.974 321.288 235.018 320.868 235.104 320.477C235.195 320.085 235.334 319.738 235.521 319.438C235.708 319.132 235.945 318.895 236.232 318.727C236.524 318.553 236.87 318.467 237.271 318.467C237.362 318.467 237.467 318.478 237.586 318.501C237.704 318.519 237.786 318.54 237.832 318.562ZM240.575 318.604V326H239.303V318.604H240.575ZM239.207 316.642C239.207 316.437 239.269 316.263 239.392 316.122C239.52 315.981 239.706 315.91 239.953 315.91C240.194 315.91 240.379 315.981 240.506 316.122C240.638 316.263 240.704 316.437 240.704 316.642C240.704 316.838 240.638 317.006 240.506 317.147C240.379 317.284 240.194 317.353 239.953 317.353C239.706 317.353 239.52 317.284 239.392 317.147C239.269 317.006 239.207 316.838 239.207 316.642ZM244.07 320.183V326H242.805V318.604H244.001L244.07 320.183ZM243.769 322.021L243.242 322.001C243.247 321.495 243.322 321.028 243.468 320.6C243.614 320.167 243.819 319.791 244.083 319.472C244.348 319.153 244.662 318.907 245.027 318.733C245.396 318.556 245.804 318.467 246.25 318.467C246.615 318.467 246.943 318.517 247.235 318.617C247.526 318.713 247.775 318.868 247.98 319.082C248.189 319.296 248.349 319.574 248.458 319.916C248.568 320.253 248.622 320.666 248.622 321.153V326H247.351V321.14C247.351 320.752 247.294 320.442 247.18 320.21C247.066 319.973 246.9 319.802 246.681 319.697C246.462 319.588 246.193 319.533 245.874 319.533C245.56 319.533 245.273 319.599 245.013 319.731C244.758 319.864 244.537 320.046 244.35 320.278C244.168 320.511 244.024 320.777 243.919 321.078C243.819 321.374 243.769 321.689 243.769 322.021ZM255.535 318.604H256.684V325.843C256.684 326.494 256.551 327.05 256.287 327.511C256.023 327.971 255.654 328.32 255.18 328.557C254.71 328.798 254.168 328.919 253.553 328.919C253.298 328.919 252.997 328.878 252.65 328.796C252.309 328.718 251.971 328.584 251.639 328.393C251.311 328.206 251.035 327.953 250.812 327.634L251.475 326.882C251.785 327.256 252.108 327.515 252.445 327.661C252.787 327.807 253.124 327.88 253.457 327.88C253.858 327.88 254.204 327.805 254.496 327.654C254.788 327.504 255.013 327.281 255.173 326.984C255.337 326.693 255.419 326.333 255.419 325.904V320.23L255.535 318.604ZM250.442 322.384V322.24C250.442 321.675 250.508 321.162 250.641 320.702C250.777 320.237 250.971 319.839 251.222 319.506C251.477 319.173 251.785 318.918 252.145 318.74C252.505 318.558 252.91 318.467 253.361 318.467C253.826 318.467 254.232 318.549 254.578 318.713C254.929 318.872 255.225 319.107 255.467 319.417C255.713 319.722 255.907 320.091 256.048 320.524C256.189 320.957 256.287 321.447 256.342 321.994V322.623C256.292 323.165 256.194 323.653 256.048 324.086C255.907 324.519 255.713 324.888 255.467 325.193C255.225 325.499 254.929 325.733 254.578 325.897C254.227 326.057 253.817 326.137 253.348 326.137C252.906 326.137 252.505 326.043 252.145 325.856C251.789 325.67 251.484 325.408 251.229 325.07C250.973 324.733 250.777 324.337 250.641 323.881C250.508 323.421 250.442 322.922 250.442 322.384ZM251.707 322.24V322.384C251.707 322.753 251.743 323.099 251.816 323.423C251.894 323.746 252.01 324.031 252.165 324.277C252.325 324.523 252.527 324.717 252.773 324.858C253.02 324.995 253.313 325.063 253.655 325.063C254.075 325.063 254.421 324.975 254.694 324.797C254.968 324.619 255.184 324.384 255.344 324.093C255.508 323.801 255.635 323.484 255.727 323.143V321.495C255.676 321.244 255.599 321.003 255.494 320.771C255.394 320.534 255.262 320.324 255.098 320.142C254.938 319.955 254.74 319.807 254.503 319.697C254.266 319.588 253.988 319.533 253.669 319.533C253.323 319.533 253.024 319.606 252.773 319.752C252.527 319.893 252.325 320.089 252.165 320.34C252.01 320.586 251.894 320.873 251.816 321.201C251.743 321.525 251.707 321.871 251.707 322.24Z" fill="black" fill-opacity="0.87"/>
<path d="M315 319L320 324L325 319H315Z" fill="black" fill-opacity="0.12"/>
<rect x="344" y="302" width="284" height="38" rx="4" fill="white"/>
<rect x="344.5" y="302.5" width="283" height="37" rx="3.5" stroke="black" stroke-opacity="0.12"/>
<path d="M364.818 320.709V321.338C364.818 322.085 364.725 322.755 364.538 323.348C364.351 323.94 364.082 324.444 363.731 324.858C363.381 325.273 362.959 325.59 362.467 325.809C361.979 326.027 361.432 326.137 360.826 326.137C360.238 326.137 359.698 326.027 359.206 325.809C358.718 325.59 358.295 325.273 357.935 324.858C357.579 324.444 357.303 323.94 357.107 323.348C356.911 322.755 356.813 322.085 356.813 321.338V320.709C356.813 319.962 356.909 319.294 357.101 318.706C357.297 318.114 357.572 317.61 357.928 317.195C358.283 316.776 358.705 316.457 359.192 316.238C359.685 316.02 360.225 315.91 360.812 315.91C361.419 315.91 361.965 316.02 362.453 316.238C362.945 316.457 363.367 316.776 363.718 317.195C364.073 317.61 364.344 318.114 364.531 318.706C364.723 319.294 364.818 319.962 364.818 320.709ZM363.513 321.338V320.695C363.513 320.103 363.451 319.579 363.328 319.123C363.21 318.667 363.034 318.285 362.802 317.975C362.569 317.665 362.285 317.43 361.947 317.271C361.615 317.111 361.236 317.031 360.812 317.031C360.402 317.031 360.031 317.111 359.698 317.271C359.37 317.43 359.088 317.665 358.851 317.975C358.618 318.285 358.438 318.667 358.311 319.123C358.183 319.579 358.119 320.103 358.119 320.695V321.338C358.119 321.935 358.183 322.464 358.311 322.924C358.438 323.38 358.62 323.765 358.857 324.079C359.099 324.389 359.384 324.624 359.712 324.783C360.045 324.943 360.416 325.022 360.826 325.022C361.255 325.022 361.635 324.943 361.968 324.783C362.3 324.624 362.581 324.389 362.809 324.079C363.041 323.765 363.216 323.38 363.335 322.924C363.453 322.464 363.513 321.935 363.513 321.338ZM368.067 320.183V326H366.803V318.604H367.999L368.067 320.183ZM367.766 322.021L367.24 322.001C367.245 321.495 367.32 321.028 367.466 320.6C367.611 320.167 367.817 319.791 368.081 319.472C368.345 319.153 368.66 318.907 369.024 318.733C369.393 318.556 369.801 318.467 370.248 318.467C370.612 318.467 370.941 318.517 371.232 318.617C371.524 318.713 371.772 318.868 371.977 319.082C372.187 319.296 372.346 319.574 372.456 319.916C372.565 320.253 372.62 320.666 372.62 321.153V326H371.348V321.14C371.348 320.752 371.291 320.442 371.178 320.21C371.064 319.973 370.897 319.802 370.679 319.697C370.46 319.588 370.191 319.533 369.872 319.533C369.557 319.533 369.27 319.599 369.011 319.731C368.755 319.864 368.534 320.046 368.347 320.278C368.165 320.511 368.022 320.777 367.917 321.078C367.817 321.374 367.766 321.689 367.766 322.021Z" fill="black" fill-opacity="0.87"/>
<path d="M637.25 63.8075L636.193 62.75L632 66.9425L627.807 62.75L626.75 63.8075L630.943 68L626.75 72.1925L627.807 73.25L632 69.0575L636.193 73.25L637.25 72.1925L633.057 68L637.25 63.8075Z" fill="black" fill-opacity="0.38"/>
<path d="M488.391 396.76H490.1C490.045 397.411 489.863 397.993 489.553 398.503C489.243 399.009 488.808 399.408 488.247 399.699C487.687 399.991 487.005 400.137 486.203 400.137C485.588 400.137 485.034 400.027 484.542 399.809C484.05 399.585 483.628 399.271 483.277 398.865C482.926 398.455 482.658 397.961 482.471 397.382C482.288 396.803 482.197 396.156 482.197 395.44V394.613C482.197 393.898 482.291 393.251 482.478 392.672C482.669 392.093 482.942 391.599 483.298 391.188C483.653 390.774 484.079 390.457 484.576 390.238C485.077 390.02 485.64 389.91 486.265 389.91C487.058 389.91 487.728 390.056 488.274 390.348C488.821 390.639 489.245 391.043 489.546 391.558C489.851 392.073 490.038 392.663 490.106 393.328H488.397C488.352 392.9 488.252 392.533 488.097 392.228C487.946 391.922 487.723 391.69 487.427 391.53C487.131 391.366 486.743 391.284 486.265 391.284C485.873 391.284 485.531 391.357 485.239 391.503C484.948 391.649 484.704 391.863 484.508 392.146C484.312 392.428 484.164 392.777 484.063 393.191C483.968 393.602 483.92 394.071 483.92 394.6V395.44C483.92 395.942 483.963 396.397 484.05 396.808C484.141 397.213 484.278 397.562 484.46 397.854C484.647 398.145 484.884 398.371 485.171 398.53C485.458 398.69 485.802 398.77 486.203 398.77C486.691 398.77 487.085 398.692 487.386 398.537C487.691 398.382 487.921 398.157 488.076 397.86C488.236 397.56 488.34 397.193 488.391 396.76ZM495.914 398.517V394.989C495.914 394.725 495.866 394.497 495.771 394.306C495.675 394.114 495.529 393.966 495.333 393.861C495.142 393.757 494.9 393.704 494.608 393.704C494.34 393.704 494.107 393.75 493.911 393.841C493.715 393.932 493.562 394.055 493.453 394.21C493.344 394.365 493.289 394.54 493.289 394.736H491.648C491.648 394.445 491.719 394.162 491.86 393.889C492.002 393.615 492.207 393.371 492.476 393.157C492.744 392.943 493.066 392.774 493.439 392.651C493.813 392.528 494.232 392.467 494.697 392.467C495.253 392.467 495.745 392.56 496.174 392.747C496.607 392.934 496.946 393.216 497.192 393.595C497.443 393.968 497.568 394.438 497.568 395.003V398.291C497.568 398.628 497.591 398.931 497.637 399.2C497.687 399.465 497.757 399.695 497.849 399.891V400H496.16C496.083 399.822 496.021 399.597 495.976 399.323C495.935 399.045 495.914 398.776 495.914 398.517ZM496.153 395.502L496.167 396.521H494.984C494.679 396.521 494.41 396.55 494.178 396.609C493.945 396.664 493.752 396.746 493.597 396.855C493.442 396.965 493.326 397.097 493.248 397.252C493.171 397.407 493.132 397.582 493.132 397.778C493.132 397.974 493.177 398.154 493.269 398.318C493.36 398.478 493.492 398.603 493.665 398.694C493.843 398.785 494.057 398.831 494.308 398.831C494.645 398.831 494.939 398.763 495.189 398.626C495.445 398.485 495.645 398.314 495.791 398.113C495.937 397.908 496.014 397.715 496.023 397.532L496.557 398.264C496.502 398.451 496.409 398.651 496.276 398.865C496.144 399.079 495.971 399.285 495.757 399.48C495.547 399.672 495.294 399.829 494.998 399.952C494.706 400.075 494.369 400.137 493.986 400.137C493.503 400.137 493.073 400.041 492.694 399.85C492.316 399.654 492.02 399.392 491.806 399.063C491.591 398.731 491.484 398.355 491.484 397.936C491.484 397.544 491.557 397.197 491.703 396.896C491.854 396.591 492.072 396.336 492.359 396.131C492.651 395.926 493.007 395.771 493.426 395.666C493.845 395.557 494.324 395.502 494.861 395.502H496.153ZM501.175 394.183V400H499.527V392.604H501.079L501.175 394.183ZM500.881 396.028L500.348 396.021C500.352 395.497 500.425 395.017 500.566 394.579C500.712 394.142 500.913 393.766 501.168 393.451C501.428 393.137 501.738 392.895 502.098 392.727C502.458 392.553 502.859 392.467 503.301 392.467C503.656 392.467 503.978 392.517 504.265 392.617C504.556 392.713 504.805 392.87 505.01 393.089C505.219 393.308 505.379 393.592 505.488 393.943C505.598 394.29 505.652 394.716 505.652 395.222V400H503.998V395.215C503.998 394.859 503.946 394.579 503.841 394.374C503.741 394.164 503.592 394.016 503.396 393.93C503.205 393.839 502.966 393.793 502.679 393.793C502.396 393.793 502.143 393.852 501.92 393.971C501.697 394.089 501.507 394.251 501.353 394.456C501.202 394.661 501.086 394.898 501.004 395.167C500.922 395.436 500.881 395.723 500.881 396.028ZM510.605 398.824C510.874 398.824 511.116 398.772 511.33 398.667C511.549 398.558 511.724 398.407 511.856 398.216C511.993 398.024 512.068 397.803 512.082 397.553H513.634C513.625 398.031 513.483 398.466 513.21 398.858C512.937 399.25 512.574 399.562 512.123 399.795C511.672 400.023 511.173 400.137 510.626 400.137C510.061 400.137 509.569 400.041 509.149 399.85C508.73 399.654 508.382 399.385 508.104 399.043C507.826 398.701 507.616 398.307 507.475 397.86C507.338 397.414 507.27 396.935 507.27 396.425V396.186C507.27 395.675 507.338 395.197 507.475 394.75C507.616 394.299 507.826 393.902 508.104 393.561C508.382 393.219 508.73 392.952 509.149 392.761C509.569 392.565 510.059 392.467 510.619 392.467C511.212 392.467 511.731 392.585 512.178 392.822C512.624 393.055 512.975 393.381 513.23 393.8C513.49 394.215 513.625 394.698 513.634 395.249H512.082C512.068 394.976 512 394.729 511.877 394.511C511.758 394.287 511.59 394.11 511.371 393.978C511.157 393.845 510.899 393.779 510.599 393.779C510.266 393.779 509.99 393.848 509.771 393.984C509.553 394.117 509.382 394.299 509.259 394.531C509.136 394.759 509.047 395.017 508.992 395.304C508.942 395.586 508.917 395.88 508.917 396.186V396.425C508.917 396.73 508.942 397.026 508.992 397.313C509.042 397.601 509.129 397.858 509.252 398.086C509.38 398.309 509.553 398.489 509.771 398.626C509.99 398.758 510.268 398.824 510.605 398.824ZM518.409 400.137C517.862 400.137 517.368 400.048 516.926 399.87C516.488 399.688 516.115 399.435 515.805 399.111C515.499 398.788 515.265 398.407 515.101 397.97C514.937 397.532 514.854 397.061 514.854 396.555V396.281C514.854 395.702 514.939 395.178 515.107 394.709C515.276 394.24 515.511 393.839 515.812 393.506C516.112 393.169 516.468 392.911 516.878 392.733C517.288 392.556 517.732 392.467 518.211 392.467C518.74 392.467 519.202 392.556 519.599 392.733C519.995 392.911 520.323 393.162 520.583 393.485C520.847 393.804 521.043 394.185 521.171 394.627C521.303 395.069 521.369 395.557 521.369 396.09V396.794H515.654V395.611H519.742V395.481C519.733 395.185 519.674 394.907 519.564 394.647C519.46 394.388 519.298 394.178 519.079 394.019C518.86 393.859 518.569 393.779 518.204 393.779C517.931 393.779 517.687 393.839 517.473 393.957C517.263 394.071 517.088 394.237 516.946 394.456C516.805 394.675 516.696 394.939 516.618 395.249C516.545 395.554 516.509 395.898 516.509 396.281V396.555C516.509 396.878 516.552 397.179 516.639 397.457C516.73 397.73 516.862 397.97 517.035 398.175C517.208 398.38 517.418 398.542 517.664 398.66C517.91 398.774 518.19 398.831 518.505 398.831C518.901 398.831 519.255 398.751 519.564 398.592C519.874 398.432 520.143 398.207 520.371 397.915L521.239 398.756C521.08 398.988 520.872 399.212 520.617 399.426C520.362 399.635 520.05 399.806 519.681 399.938C519.316 400.071 518.892 400.137 518.409 400.137ZM524.668 389.5V400H523.014V389.5H524.668Z" fill="#305680"/>
<rect x="556" y="376" width="88" height="38" rx="4" fill="#305680"/>
<path d="M586.717 391.373L583.743 400H581.945L585.691 390.047H586.84L586.717 391.373ZM589.205 400L586.225 391.373L586.095 390.047H587.25L591.01 400H589.205ZM589.062 396.309V397.669H583.647V396.309H589.062ZM593.741 394.025V402.844H592.094V392.604H593.611L593.741 394.025ZM598.561 396.233V396.377C598.561 396.915 598.497 397.414 598.369 397.874C598.246 398.33 598.062 398.729 597.815 399.07C597.574 399.408 597.275 399.67 596.92 399.856C596.564 400.043 596.154 400.137 595.689 400.137C595.229 400.137 594.826 400.052 594.479 399.884C594.138 399.711 593.848 399.467 593.611 399.152C593.374 398.838 593.183 398.469 593.037 398.045C592.896 397.617 592.796 397.147 592.736 396.637V396.083C592.796 395.541 592.896 395.049 593.037 394.606C593.183 394.164 593.374 393.784 593.611 393.465C593.848 393.146 594.138 392.9 594.479 392.727C594.821 392.553 595.22 392.467 595.676 392.467C596.141 392.467 596.553 392.558 596.913 392.74C597.273 392.918 597.576 393.173 597.822 393.506C598.068 393.834 598.253 394.23 598.376 394.695C598.499 395.156 598.561 395.668 598.561 396.233ZM596.913 396.377V396.233C596.913 395.892 596.881 395.575 596.817 395.283C596.754 394.987 596.653 394.727 596.517 394.504C596.38 394.281 596.204 394.107 595.99 393.984C595.781 393.857 595.528 393.793 595.231 393.793C594.94 393.793 594.689 393.843 594.479 393.943C594.27 394.039 594.094 394.174 593.953 394.347C593.812 394.52 593.702 394.723 593.625 394.955C593.548 395.183 593.493 395.431 593.461 395.7V397.026C593.516 397.354 593.609 397.655 593.741 397.929C593.873 398.202 594.06 398.421 594.302 398.585C594.548 398.744 594.862 398.824 595.245 398.824C595.541 398.824 595.794 398.76 596.004 398.633C596.214 398.505 596.384 398.33 596.517 398.106C596.653 397.879 596.754 397.617 596.817 397.32C596.881 397.024 596.913 396.71 596.913 396.377ZM601.866 394.025V402.844H600.219V392.604H601.736L601.866 394.025ZM606.686 396.233V396.377C606.686 396.915 606.622 397.414 606.494 397.874C606.371 398.33 606.187 398.729 605.94 399.07C605.699 399.408 605.4 399.67 605.045 399.856C604.689 400.043 604.279 400.137 603.814 400.137C603.354 400.137 602.951 400.052 602.604 399.884C602.263 399.711 601.973 399.467 601.736 399.152C601.499 398.838 601.308 398.469 601.162 398.045C601.021 397.617 600.921 397.147 600.861 396.637V396.083C600.921 395.541 601.021 395.049 601.162 394.606C601.308 394.164 601.499 393.784 601.736 393.465C601.973 393.146 602.263 392.9 602.604 392.727C602.946 392.553 603.345 392.467 603.801 392.467C604.266 392.467 604.678 392.558 605.038 392.74C605.398 392.918 605.701 393.173 605.947 393.506C606.193 393.834 606.378 394.23 606.501 394.695C606.624 395.156 606.686 395.668 606.686 396.233ZM605.038 396.377V396.233C605.038 395.892 605.006 395.575 604.942 395.283C604.879 394.987 604.778 394.727 604.642 394.504C604.505 394.281 604.329 394.107 604.115 393.984C603.906 393.857 603.653 393.793 603.356 393.793C603.065 393.793 602.814 393.843 602.604 393.943C602.395 394.039 602.219 394.174 602.078 394.347C601.937 394.52 601.827 394.723 601.75 394.955C601.673 395.183 601.618 395.431 601.586 395.7V397.026C601.641 397.354 601.734 397.655 601.866 397.929C601.998 398.202 602.185 398.421 602.427 398.585C602.673 398.744 602.987 398.824 603.37 398.824C603.666 398.824 603.919 398.76 604.129 398.633C604.339 398.505 604.509 398.33 604.642 398.106C604.778 397.879 604.879 397.617 604.942 397.32C605.006 397.024 605.038 396.71 605.038 396.377ZM610.101 389.5V400H608.446V389.5H610.101ZM614.302 399.193L616.312 392.604H618.075L615.108 401.128C615.04 401.31 614.951 401.508 614.842 401.723C614.732 401.937 614.589 402.14 614.411 402.331C614.238 402.527 614.021 402.684 613.762 402.803C613.502 402.926 613.188 402.987 612.818 402.987C612.673 402.987 612.531 402.974 612.395 402.946C612.262 402.924 612.137 402.898 612.019 402.871L612.012 401.613C612.057 401.618 612.112 401.622 612.176 401.627C612.244 401.632 612.299 401.634 612.34 401.634C612.613 401.634 612.841 401.6 613.023 401.531C613.206 401.467 613.354 401.363 613.468 401.217C613.586 401.071 613.687 400.875 613.769 400.629L614.302 399.193ZM613.167 392.604L614.924 398.141L615.218 399.877L614.076 400.171L611.39 392.604H613.167Z" fill="white"/>
</g>
<defs>
<filter id="filter0_d_4048_207788" x="117.812" y="21.8124" width="568.375" height="434.375" filterUnits="userSpaceOnUse" color-interpolation-filters="sRGB">
<feFlood flood-opacity="0" result="BackgroundImageFix"/>
<feColorMatrix in="SourceAlpha" type="matrix" values="0 0 0 0 0 0 0 0 0 0 0 0 0 0 0 0 0 0 127 0" result="hardAlpha"/>
<feOffset/>
<feGaussianBlur stdDeviation="9.09381"/>
<feComposite in2="hardAlpha" operator="out"/>
<feColorMatrix type="matrix" values="0 0 0 0 0.808333 0 0 0 0 0.808333 0 0 0 0 0.808333 0 0 0 1 0"/>
<feBlend mode="normal" in2="BackgroundImageFix" result="effect1_dropShadow_4048_207788"/>
<feBlend mode="normal" in="SourceGraphic" in2="effect1_dropShadow_4048_207788" result="shape"/>
</filter>
</defs>
</svg>
