<svg width="802" height="147" viewBox="0 0 802 147" fill="none" xmlns="http://www.w3.org/2000/svg">
<rect width="802" height="147" rx="12" fill="#E7E9EB"/>
<rect x="0.5" y="0.5" width="801" height="146" rx="11.5" stroke="black" stroke-opacity="0.05"/>
<g filter="url(#filter0_d_4041_18738)">
<rect x="42" y="40" width="221.355" height="67.4178" rx="4.49452" fill="white"/>
<rect x="42.5618" y="40.5618" width="220.232" height="66.2942" rx="3.93271" stroke="#3F52DD" stroke-width="1.12363"/>
<path d="M119.182 82.6979V75.9561H123.677V82.6979H129.295V73.7089H132.666L121.43 63.5962L110.193 73.7089H113.564V82.6979H119.182Z" fill="#3F52DD"/>
<path d="M147.879 77.6803V79.2089H141.941V77.6803H147.879ZM142.487 68.0252V79.2089H140.559V68.0252H142.487ZM147.103 72.6953V74.2008H141.941V72.6953H147.103ZM147.84 68.0252V69.5614H141.941V68.0252H147.84ZM151.386 72.6723V79.2089H149.535V70.8979H151.278L151.386 72.6723ZM151.056 74.7462L150.456 74.7385C150.462 74.1496 150.543 73.6094 150.702 73.1178C150.866 72.6262 151.091 72.2037 151.378 71.8504C151.67 71.4971 152.018 71.2257 152.423 71.0362C152.827 70.8416 153.278 70.7443 153.775 70.7443C154.174 70.7443 154.535 70.8007 154.858 70.9133C155.185 71.0208 155.465 71.1975 155.695 71.4433C155.93 71.6891 156.11 72.0091 156.233 72.4034C156.356 72.7926 156.417 73.2714 156.417 73.8398V79.2089H154.558V73.8321C154.558 73.4327 154.499 73.1178 154.381 72.8873C154.269 72.6518 154.102 72.4854 153.882 72.3881C153.667 72.2857 153.398 72.2345 153.076 72.2345C152.758 72.2345 152.474 72.301 152.223 72.4342C151.972 72.5673 151.76 72.7491 151.586 72.9795C151.417 73.2099 151.286 73.4762 151.194 73.7783C151.102 74.0805 151.056 74.4031 151.056 74.7462ZM163.273 77.5421V73.5786C163.273 73.2816 163.219 73.0256 163.112 72.8105C163.004 72.5955 162.84 72.429 162.62 72.3113C162.405 72.1935 162.134 72.1346 161.806 72.1346C161.504 72.1346 161.242 72.1858 161.022 72.2882C160.802 72.3906 160.631 72.5289 160.508 72.703C160.385 72.8771 160.323 73.0742 160.323 73.2944H158.48C158.48 72.9667 158.559 72.6492 158.718 72.342C158.877 72.0347 159.107 71.7608 159.409 71.5201C159.711 71.2794 160.072 71.09 160.492 70.9517C160.912 70.8135 161.383 70.7443 161.906 70.7443C162.53 70.7443 163.083 70.8493 163.565 71.0592C164.051 71.2692 164.433 71.5867 164.709 72.0117C164.991 72.4316 165.132 72.959 165.132 73.594V77.2886C165.132 77.6675 165.157 78.0081 165.208 78.3102C165.265 78.6072 165.344 78.8658 165.447 79.086V79.2089H163.549C163.462 79.0092 163.393 78.7557 163.342 78.4484C163.296 78.1361 163.273 77.834 163.273 77.5421ZM163.542 74.1547L163.557 75.2992H162.228C161.885 75.2992 161.583 75.3325 161.322 75.3991C161.061 75.4605 160.843 75.5527 160.669 75.6756C160.495 75.7985 160.364 75.947 160.277 76.1211C160.19 76.2952 160.147 76.4923 160.147 76.7125C160.147 76.9327 160.198 77.135 160.3 77.3193C160.403 77.4985 160.551 77.6394 160.746 77.7418C160.945 77.8442 161.186 77.8954 161.468 77.8954C161.847 77.8954 162.177 77.8186 162.459 77.665C162.745 77.5062 162.971 77.3142 163.135 77.0889C163.298 76.8585 163.386 76.6408 163.396 76.436L163.995 77.2579C163.933 77.4678 163.828 77.6931 163.68 77.9338C163.531 78.1745 163.337 78.4049 163.096 78.6251C162.861 78.8402 162.576 79.0168 162.244 79.1551C161.916 79.2934 161.537 79.3625 161.107 79.3625C160.564 79.3625 160.08 79.2549 159.655 79.0399C159.23 78.8197 158.897 78.5252 158.657 78.1566C158.416 77.7827 158.296 77.3603 158.296 76.8892C158.296 76.4488 158.377 76.0596 158.541 75.7217C158.71 75.3786 158.956 75.0918 159.279 74.8614C159.606 74.6309 160.006 74.4568 160.477 74.3391C160.948 74.2162 161.486 74.1547 162.09 74.1547H163.542ZM167.356 67.4107H169.207V77.4345L169.03 79.2089H167.356V67.4107ZM174.63 74.9766V75.1379C174.63 75.7524 174.561 76.3182 174.422 76.8354C174.289 77.3475 174.085 77.793 173.808 78.1719C173.537 78.5509 173.199 78.8453 172.794 79.0552C172.395 79.2601 171.931 79.3625 171.404 79.3625C170.887 79.3625 170.436 79.2652 170.052 79.0706C169.668 78.876 169.345 78.5995 169.084 78.241C168.828 77.8826 168.621 77.455 168.462 76.9583C168.303 76.4616 168.191 75.9137 168.124 75.3146V74.7999C168.191 74.1957 168.303 73.6478 168.462 73.1562C168.621 72.6595 168.828 72.2319 169.084 71.8734C169.345 71.5099 169.665 71.2308 170.044 71.0362C170.428 70.8416 170.876 70.7443 171.388 70.7443C171.921 70.7443 172.39 70.8467 172.794 71.0516C173.204 71.2564 173.544 71.5483 173.816 71.9272C174.087 72.301 174.289 72.7465 174.422 73.2637C174.561 73.7809 174.63 74.3519 174.63 74.9766ZM172.779 75.1379V74.9766C172.779 74.6028 172.748 74.252 172.687 73.9243C172.625 73.5914 172.523 73.2996 172.379 73.0486C172.241 72.7977 172.052 72.6006 171.811 72.4572C171.575 72.3087 171.281 72.2345 170.928 72.2345C170.6 72.2345 170.318 72.2908 170.083 72.4034C169.847 72.5161 169.65 72.6697 169.491 72.8643C169.332 73.0589 169.207 73.2842 169.115 73.5402C169.028 73.7963 168.969 74.0728 168.938 74.3698V75.7601C168.984 76.1441 169.082 76.4974 169.23 76.82C169.384 77.1375 169.599 77.3936 169.875 77.5882C170.152 77.7776 170.508 77.8724 170.943 77.8724C171.286 77.8724 171.575 77.8032 171.811 77.665C172.046 77.5267 172.233 77.3347 172.372 77.0889C172.515 76.838 172.617 76.5461 172.679 76.2132C172.745 75.8804 172.779 75.5219 172.779 75.1379ZM178.459 67.4107V79.2089H176.601V67.4107H178.459ZM184.432 79.3625C183.818 79.3625 183.262 79.2626 182.765 79.0629C182.274 78.8581 181.854 78.5739 181.506 78.2103C181.162 77.8468 180.899 77.4192 180.714 76.9276C180.53 76.436 180.438 75.906 180.438 75.3376V75.0304C180.438 74.38 180.533 73.7911 180.722 73.2637C180.912 72.7363 181.175 72.2857 181.513 71.9118C181.851 71.5329 182.251 71.2436 182.711 71.0439C183.172 70.8442 183.672 70.7443 184.209 70.7443C184.803 70.7443 185.323 70.8442 185.769 71.0439C186.214 71.2436 186.583 71.5252 186.875 71.8888C187.172 72.2473 187.392 72.6748 187.535 73.1715C187.684 73.6683 187.758 74.2162 187.758 74.8153V75.6064H181.337V74.2776H185.93V74.1317C185.92 73.7988 185.853 73.4865 185.73 73.1946C185.612 72.9027 185.431 72.6672 185.185 72.4879C184.939 72.3087 184.611 72.2191 184.202 72.2191C183.894 72.2191 183.62 72.2857 183.38 72.4188C183.144 72.5468 182.947 72.7337 182.788 72.9795C182.63 73.2253 182.507 73.5223 182.42 73.8705C182.338 74.2136 182.297 74.6002 182.297 75.0304V75.3376C182.297 75.7012 182.345 76.0391 182.443 76.3515C182.545 76.6587 182.694 76.9276 182.888 77.158C183.083 77.3884 183.318 77.5702 183.595 77.7034C183.871 77.8314 184.186 77.8954 184.54 77.8954C184.985 77.8954 185.382 77.8058 185.73 77.6266C186.078 77.4473 186.38 77.1939 186.636 76.8661L187.612 77.8109C187.433 78.0721 187.2 78.323 186.913 78.5637C186.626 78.7992 186.275 78.9912 185.861 79.1397C185.451 79.2882 184.975 79.3625 184.432 79.3625ZM194.552 77.4883V67.4107H196.411V79.2089H194.729L194.552 77.4883ZM189.145 75.1456V74.9843C189.145 74.3544 189.219 73.7809 189.368 73.2637C189.516 72.7414 189.731 72.2933 190.013 71.9195C190.294 71.5406 190.638 71.2513 191.042 71.0516C191.447 70.8467 191.902 70.7443 192.409 70.7443C192.911 70.7443 193.352 70.8416 193.73 71.0362C194.109 71.2308 194.432 71.5099 194.698 71.8734C194.965 72.2319 195.177 72.662 195.336 73.1639C195.495 73.6606 195.607 74.2136 195.674 74.823V75.3376C195.607 75.9316 195.495 76.4744 195.336 76.966C195.177 77.4576 194.965 77.8826 194.698 78.241C194.432 78.5995 194.107 78.876 193.723 79.0706C193.344 79.2652 192.901 79.3625 192.394 79.3625C191.892 79.3625 191.439 79.2575 191.034 79.0476C190.635 78.8376 190.294 78.5432 190.013 78.1642C189.731 77.7853 189.516 77.3398 189.368 76.8277C189.219 76.3105 189.145 75.7498 189.145 75.1456ZM190.996 74.9843V75.1456C190.996 75.5245 191.029 75.8778 191.096 76.2056C191.168 76.5333 191.278 76.8226 191.426 77.0735C191.575 77.3193 191.767 77.5139 192.002 77.6573C192.243 77.7955 192.53 77.8647 192.863 77.8647C193.282 77.8647 193.628 77.7725 193.899 77.5882C194.171 77.4038 194.383 77.1555 194.537 76.8431C194.696 76.5256 194.803 76.1723 194.86 75.7831V74.3928C194.829 74.0907 194.765 73.8091 194.668 73.5479C194.575 73.2868 194.45 73.0589 194.291 72.8643C194.132 72.6646 193.935 72.511 193.7 72.4034C193.469 72.2908 193.195 72.2345 192.878 72.2345C192.54 72.2345 192.253 72.3061 192.018 72.4495C191.782 72.5929 191.587 72.79 191.434 73.041C191.285 73.2919 191.175 73.5838 191.104 73.9166C191.032 74.2495 190.996 74.6053 190.996 74.9843Z" fill="#3F52DD"/>
</g>
<g filter="url(#filter1_d_4041_18738)">
<rect x="290.322" y="40" width="221.355" height="67.4178" rx="4.49452" fill="#F6F7FD"/>
<rect x="290.884" y="40.5618" width="220.232" height="66.2942" rx="3.93271" stroke="#2D41D2" stroke-width="1.12363"/>
<path d="M362.005 82.6979V75.9561H366.499V82.6979H372.117V73.7089H375.488L364.252 63.5962L353.016 73.7089H356.387V82.6979H362.005Z" fill="#2D41D2"/>
<path d="M387.801 69.5154L384.46 79.2089H382.44L386.649 68.0252H387.94L387.801 69.5154ZM390.597 79.2089L387.248 69.5154L387.102 68.0252H388.4L392.625 79.2089H390.597ZM390.436 75.0611V76.5896H384.353V75.0611H390.436ZM397.369 77.8877C397.671 77.8877 397.942 77.8288 398.183 77.7111C398.429 77.5882 398.626 77.4192 398.774 77.2041C398.928 76.989 399.012 76.7407 399.028 76.459H400.771C400.761 76.9967 400.602 77.4857 400.295 77.9261C399.988 78.3665 399.581 78.7173 399.074 78.9784C398.567 79.2345 398.006 79.3625 397.392 79.3625C396.757 79.3625 396.204 79.2549 395.733 79.0399C395.262 78.8197 394.87 78.5176 394.557 78.1335C394.245 77.7495 394.009 77.3065 393.851 76.8047C393.697 76.3029 393.62 75.7652 393.62 75.1917V74.9228C393.62 74.3493 393.697 73.8116 393.851 73.3098C394.009 72.8029 394.245 72.3573 394.557 71.9733C394.87 71.5892 395.262 71.2897 395.733 71.0746C396.204 70.8544 396.754 70.7443 397.384 70.7443C398.05 70.7443 398.634 70.8775 399.135 71.1437C399.637 71.4049 400.031 71.771 400.318 72.2421C400.61 72.7081 400.761 73.2509 400.771 73.8705H399.028C399.012 73.5633 398.936 73.2868 398.797 73.041C398.664 72.79 398.475 72.5903 398.229 72.4418C397.988 72.2933 397.699 72.2191 397.361 72.2191C396.987 72.2191 396.677 72.2959 396.432 72.4495C396.186 72.598 395.994 72.8029 395.856 73.064C395.717 73.32 395.617 73.6094 395.556 73.932C395.5 74.2495 395.471 74.5797 395.471 74.9228V75.1917C395.471 75.5348 395.5 75.8676 395.556 76.1902C395.612 76.5128 395.71 76.8021 395.848 77.0582C395.991 77.3091 396.186 77.5113 396.432 77.665C396.677 77.8135 396.99 77.8877 397.369 77.8877ZM406.283 70.8979V72.2498H401.598V70.8979H406.283ZM402.95 68.8625H404.801V76.9122C404.801 77.1683 404.837 77.3654 404.908 77.5037C404.985 77.6368 405.09 77.7264 405.223 77.7725C405.356 77.8186 405.512 77.8416 405.692 77.8416C405.82 77.8416 405.943 77.834 406.06 77.8186C406.178 77.8032 406.273 77.7879 406.345 77.7725L406.352 79.1858C406.199 79.2319 406.019 79.2729 405.815 79.3087C405.615 79.3446 405.384 79.3625 405.123 79.3625C404.698 79.3625 404.322 79.2882 403.994 79.1397C403.666 78.9861 403.41 78.7378 403.226 78.3947C403.042 78.0516 402.95 77.5958 402.95 77.0274V68.8625ZM409.974 70.8979V79.2089H408.116V70.8979H409.974ZM407.993 68.7165C407.993 68.4349 408.085 68.2019 408.269 68.0175C408.459 67.8281 408.72 67.7333 409.053 67.7333C409.38 67.7333 409.639 67.8281 409.828 68.0175C410.018 68.2019 410.113 68.4349 410.113 68.7165C410.113 68.993 410.018 69.2235 409.828 69.4078C409.639 69.5922 409.38 69.6843 409.053 69.6843C408.72 69.6843 408.459 69.5922 408.269 69.4078C408.085 69.2235 407.993 68.993 407.993 68.7165ZM414.987 77.7418L417.022 70.8979H418.943L416.055 79.2089H414.856L414.987 77.7418ZM413.428 70.8979L415.501 77.7725L415.601 79.2089H414.403L411.5 70.8979H413.428ZM424.931 77.5421V73.5786C424.931 73.2816 424.877 73.0256 424.769 72.8105C424.662 72.5955 424.498 72.429 424.278 72.3113C424.063 72.1935 423.791 72.1346 423.463 72.1346C423.161 72.1346 422.9 72.1858 422.68 72.2882C422.46 72.3906 422.288 72.5289 422.165 72.703C422.042 72.8771 421.981 73.0742 421.981 73.2944H420.138C420.138 72.9667 420.217 72.6492 420.376 72.342C420.534 72.0347 420.765 71.7608 421.067 71.5201C421.369 71.2794 421.73 71.09 422.15 70.9517C422.57 70.8135 423.041 70.7443 423.563 70.7443C424.188 70.7443 424.741 70.8493 425.222 71.0592C425.709 71.2692 426.09 71.5867 426.367 72.0117C426.649 72.4316 426.789 72.959 426.789 73.594V77.2886C426.789 77.6675 426.815 78.0081 426.866 78.3102C426.923 78.6072 427.002 78.8658 427.104 79.086V79.2089H425.207C425.12 79.0092 425.051 78.7557 425 78.4484C424.954 78.1361 424.931 77.834 424.931 77.5421ZM425.199 74.1547L425.215 75.2992H423.886C423.543 75.2992 423.241 75.3325 422.98 75.3991C422.718 75.4605 422.501 75.5527 422.327 75.6756C422.153 75.7985 422.022 75.947 421.935 76.1211C421.848 76.2952 421.804 76.4923 421.804 76.7125C421.804 76.9327 421.856 77.135 421.958 77.3193C422.06 77.4985 422.209 77.6394 422.403 77.7418C422.603 77.8442 422.844 77.8954 423.126 77.8954C423.504 77.8954 423.835 77.8186 424.116 77.665C424.403 77.5062 424.628 77.3142 424.792 77.0889C424.956 76.8585 425.043 76.6408 425.053 76.436L425.653 77.2579C425.591 77.4678 425.486 77.6931 425.338 77.9338C425.189 78.1745 424.995 78.4049 424.754 78.6251C424.518 78.8402 424.234 79.0168 423.901 79.1551C423.574 79.2934 423.195 79.3625 422.764 79.3625C422.222 79.3625 421.738 79.2549 421.313 79.0399C420.888 78.8197 420.555 78.5252 420.314 78.1566C420.074 77.7827 419.953 77.3603 419.953 76.8892C419.953 76.4488 420.035 76.0596 420.199 75.7217C420.368 75.3786 420.614 75.0918 420.936 74.8614C421.264 74.6309 421.664 74.4568 422.135 74.3391C422.606 74.2162 423.143 74.1547 423.748 74.1547H425.199ZM432.816 70.8979V72.2498H428.13V70.8979H432.816ZM429.482 68.8625H431.333V76.9122C431.333 77.1683 431.369 77.3654 431.441 77.5037C431.518 77.6368 431.623 77.7264 431.756 77.7725C431.889 77.8186 432.045 77.8416 432.224 77.8416C432.352 77.8416 432.475 77.834 432.593 77.8186C432.711 77.8032 432.805 77.7879 432.877 77.7725L432.885 79.1858C432.731 79.2319 432.552 79.2729 432.347 79.3087C432.147 79.3446 431.917 79.3625 431.656 79.3625C431.231 79.3625 430.854 79.2882 430.527 79.1397C430.199 78.9861 429.943 78.7378 429.759 78.3947C429.574 78.0516 429.482 77.5958 429.482 77.0274V68.8625ZM438.189 79.3625C437.575 79.3625 437.019 79.2626 436.522 79.0629C436.031 78.8581 435.611 78.5739 435.263 78.2103C434.92 77.8468 434.656 77.4192 434.472 76.9276C434.287 76.436 434.195 75.906 434.195 75.3376V75.0304C434.195 74.38 434.29 73.7911 434.479 73.2637C434.669 72.7363 434.932 72.2857 435.27 71.9118C435.608 71.5329 436.008 71.2436 436.469 71.0439C436.929 70.8442 437.429 70.7443 437.966 70.7443C438.56 70.7443 439.08 70.8442 439.526 71.0439C439.971 71.2436 440.34 71.5252 440.632 71.8888C440.929 72.2473 441.149 72.6748 441.292 73.1715C441.441 73.6683 441.515 74.2162 441.515 74.8153V75.6064H435.094V74.2776H439.687V74.1317C439.677 73.7988 439.61 73.4865 439.487 73.1946C439.37 72.9027 439.188 72.6672 438.942 72.4879C438.696 72.3087 438.368 72.2191 437.959 72.2191C437.652 72.2191 437.378 72.2857 437.137 72.4188C436.901 72.5468 436.704 72.7337 436.545 72.9795C436.387 73.2253 436.264 73.5223 436.177 73.8705C436.095 74.2136 436.054 74.6002 436.054 75.0304V75.3376C436.054 75.7012 436.102 76.0391 436.2 76.3515C436.302 76.6587 436.451 76.9276 436.645 77.158C436.84 77.3884 437.075 77.5702 437.352 77.7034C437.628 77.8314 437.943 77.8954 438.297 77.8954C438.742 77.8954 439.139 77.8058 439.487 77.6266C439.835 77.4473 440.138 77.1939 440.394 76.8661L441.369 77.8109C441.19 78.0721 440.957 78.323 440.67 78.5637C440.383 78.7992 440.033 78.9912 439.618 79.1397C439.208 79.2882 438.732 79.3625 438.189 79.3625ZM448.31 77.4883V67.4107H450.168V79.2089H448.486L448.31 77.4883ZM442.902 75.1456V74.9843C442.902 74.3544 442.976 73.7809 443.125 73.2637C443.273 72.7414 443.488 72.2933 443.77 71.9195C444.052 71.5406 444.395 71.2513 444.799 71.0516C445.204 70.8467 445.66 70.7443 446.167 70.7443C446.668 70.7443 447.109 70.8416 447.488 71.0362C447.867 71.2308 448.189 71.5099 448.455 71.8734C448.722 72.2319 448.934 72.662 449.093 73.1639C449.252 73.6606 449.364 74.2136 449.431 74.823V75.3376C449.364 75.9316 449.252 76.4744 449.093 76.966C448.934 77.4576 448.722 77.8826 448.455 78.241C448.189 78.5995 447.864 78.876 447.48 79.0706C447.101 79.2652 446.658 79.3625 446.151 79.3625C445.649 79.3625 445.196 79.2575 444.792 79.0476C444.392 78.8376 444.052 78.5432 443.77 78.1642C443.488 77.7853 443.273 77.3398 443.125 76.8277C442.976 76.3105 442.902 75.7498 442.902 75.1456ZM444.753 74.9843V75.1456C444.753 75.5245 444.786 75.8778 444.853 76.2056C444.925 76.5333 445.035 76.8226 445.183 77.0735C445.332 77.3193 445.524 77.5139 445.759 77.6573C446 77.7955 446.287 77.8647 446.62 77.8647C447.04 77.8647 447.385 77.7725 447.657 77.5882C447.928 77.4038 448.141 77.1555 448.294 76.8431C448.453 76.5256 448.56 76.1723 448.617 75.7831V74.3928C448.586 74.0907 448.522 73.8091 448.425 73.5479C448.333 73.2868 448.207 73.0589 448.048 72.8643C447.89 72.6646 447.692 72.511 447.457 72.4034C447.227 72.2908 446.953 72.2345 446.635 72.2345C446.297 72.2345 446.01 72.3061 445.775 72.4495C445.539 72.5929 445.345 72.79 445.191 73.041C445.043 73.2919 444.932 73.5838 444.861 73.9166C444.789 74.2495 444.753 74.6053 444.753 74.9843Z" fill="#2D41D2"/>
</g>
<g filter="url(#filter2_d_4041_18738)">
<rect x="538.645" y="40" width="221.355" height="67.4178" rx="4.49452" fill="black" fill-opacity="0.06" shape-rendering="crispEdges"/>
<rect x="539.206" y="40.5618" width="220.232" height="66.2942" rx="3.93271" stroke="black" stroke-opacity="0.12" stroke-width="1.12363" shape-rendering="crispEdges"/>
<path d="M613.327 82.6979V75.9561H617.821V82.6979H623.44V73.7089H626.811L615.574 63.5962L604.338 73.7089H607.709V82.6979H613.327Z" fill="black" fill-opacity="0.38"/>
<path d="M637.946 79.2089H635.557L635.573 77.6803H637.946C638.638 77.6803 639.216 77.5293 639.682 77.2271C640.153 76.925 640.507 76.4923 640.742 75.929C640.983 75.3658 641.103 74.695 641.103 73.9166V73.3098C641.103 72.7056 641.034 72.1704 640.896 71.7045C640.763 71.2385 640.563 70.8467 640.297 70.5293C640.035 70.2118 639.713 69.9711 639.329 69.8072C638.95 69.6434 638.512 69.5614 638.015 69.5614H635.511V68.0252H638.015C638.758 68.0252 639.436 68.1507 640.051 68.4016C640.665 68.6474 641.195 69.0033 641.641 69.4693C642.091 69.9353 642.437 70.4934 642.678 71.1437C642.918 71.7941 643.039 72.5212 643.039 73.3252V73.9166C643.039 74.7206 642.918 75.4477 642.678 76.098C642.437 76.7484 642.091 77.3065 641.641 77.7725C641.19 78.2334 640.653 78.5893 640.028 78.8402C639.408 79.086 638.714 79.2089 637.946 79.2089ZM636.625 68.0252V79.2089H634.697V68.0252H636.625ZM647.053 70.8979V79.2089H645.194V70.8979H647.053ZM645.071 68.7165C645.071 68.4349 645.163 68.2019 645.347 68.0175C645.537 67.8281 645.798 67.7333 646.131 67.7333C646.459 67.7333 646.717 67.8281 646.907 68.0175C647.096 68.2019 647.191 68.4349 647.191 68.7165C647.191 68.993 647.096 69.2235 646.907 69.4078C646.717 69.5922 646.459 69.6843 646.131 69.6843C645.798 69.6843 645.537 69.5922 645.347 69.4078C645.163 69.2235 645.071 68.993 645.071 68.7165ZM654.024 76.9583C654.024 76.774 653.978 76.6075 653.886 76.459C653.793 76.3054 653.617 76.1672 653.356 76.0443C653.1 75.9214 652.721 75.8087 652.219 75.7063C651.778 75.609 651.374 75.4938 651.005 75.3606C650.642 75.2224 650.329 75.056 650.068 74.8614C649.807 74.6668 649.605 74.4364 649.461 74.1701C649.318 73.9038 649.246 73.5966 649.246 73.2484C649.246 72.9104 649.32 72.5903 649.469 72.2882C649.617 71.9861 649.83 71.7198 650.106 71.4894C650.383 71.259 650.718 71.0772 651.113 70.944C651.512 70.8109 651.958 70.7443 652.449 70.7443C653.146 70.7443 653.742 70.8621 654.239 71.0977C654.741 71.3281 655.125 71.643 655.391 72.0424C655.657 72.4367 655.79 72.8822 655.79 73.3789H653.939C653.939 73.1587 653.883 72.9539 653.77 72.7644C653.663 72.5699 653.499 72.4137 653.279 72.2959C653.059 72.173 652.782 72.1116 652.449 72.1116C652.132 72.1116 651.868 72.1628 651.658 72.2652C651.453 72.3625 651.3 72.4905 651.197 72.6492C651.1 72.808 651.051 72.9821 651.051 73.1715C651.051 73.3098 651.077 73.4353 651.128 73.5479C651.184 73.6554 651.277 73.7553 651.405 73.8475C651.533 73.9345 651.707 74.0165 651.927 74.0933C652.152 74.1701 652.434 74.2443 652.772 74.316C653.407 74.4492 653.952 74.6207 654.408 74.8307C654.869 75.0355 655.222 75.3018 655.468 75.6295C655.714 75.9521 655.837 76.3617 655.837 76.8585C655.837 77.2271 655.757 77.5651 655.598 77.8724C655.445 78.1745 655.22 78.4382 654.923 78.6635C654.625 78.8837 654.27 79.0552 653.855 79.1781C653.445 79.301 652.984 79.3625 652.472 79.3625C651.719 79.3625 651.082 79.2293 650.56 78.9631C650.037 78.6917 649.64 78.346 649.369 77.9261C649.103 77.5011 648.97 77.0607 648.97 76.605H650.759C650.78 76.9481 650.875 77.222 651.044 77.4269C651.218 77.6266 651.433 77.7725 651.689 77.8647C651.95 77.9517 652.219 77.9953 652.495 77.9953C652.828 77.9953 653.107 77.9517 653.333 77.8647C653.558 77.7725 653.729 77.6496 653.847 77.496C653.965 77.3372 654.024 77.158 654.024 76.9583ZM662.424 77.5421V73.5786C662.424 73.2816 662.37 73.0256 662.262 72.8105C662.155 72.5955 661.991 72.429 661.771 72.3113C661.556 72.1935 661.284 72.1346 660.957 72.1346C660.654 72.1346 660.393 72.1858 660.173 72.2882C659.953 72.3906 659.781 72.5289 659.658 72.703C659.536 72.8771 659.474 73.0742 659.474 73.2944H657.631C657.631 72.9667 657.71 72.6492 657.869 72.342C658.027 72.0347 658.258 71.7608 658.56 71.5201C658.862 71.2794 659.223 71.09 659.643 70.9517C660.063 70.8135 660.534 70.7443 661.056 70.7443C661.681 70.7443 662.234 70.8493 662.715 71.0592C663.202 71.2692 663.583 71.5867 663.86 72.0117C664.142 72.4316 664.282 72.959 664.282 73.594V77.2886C664.282 77.6675 664.308 78.0081 664.359 78.3102C664.416 78.6072 664.495 78.8658 664.597 79.086V79.2089H662.7C662.613 79.0092 662.544 78.7557 662.493 78.4484C662.447 78.1361 662.424 77.834 662.424 77.5421ZM662.692 74.1547L662.708 75.2992H661.379C661.036 75.2992 660.734 75.3325 660.473 75.3991C660.211 75.4605 659.994 75.5527 659.82 75.6756C659.646 75.7985 659.515 75.947 659.428 76.1211C659.341 76.2952 659.297 76.4923 659.297 76.7125C659.297 76.9327 659.349 77.135 659.451 77.3193C659.553 77.4985 659.702 77.6394 659.897 77.7418C660.096 77.8442 660.337 77.8954 660.619 77.8954C660.997 77.8954 661.328 77.8186 661.609 77.665C661.896 77.5062 662.121 77.3142 662.285 77.0889C662.449 76.8585 662.536 76.6408 662.547 76.436L663.146 77.2579C663.084 77.4678 662.979 77.6931 662.831 77.9338C662.682 78.1745 662.488 78.4049 662.247 78.6251C662.011 78.8402 661.727 79.0168 661.394 79.1551C661.067 79.2934 660.688 79.3625 660.258 79.3625C659.715 79.3625 659.231 79.2549 658.806 79.0399C658.381 78.8197 658.048 78.5252 657.807 78.1566C657.567 77.7827 657.446 77.3603 657.446 76.8892C657.446 76.4488 657.528 76.0596 657.692 75.7217C657.861 75.3786 658.107 75.0918 658.429 74.8614C658.757 74.6309 659.157 74.4568 659.628 74.3391C660.099 74.2162 660.636 74.1547 661.241 74.1547H662.692ZM666.507 67.4107H668.358V77.4345L668.181 79.2089H666.507V67.4107ZM673.781 74.9766V75.1379C673.781 75.7524 673.711 76.3182 673.573 76.8354C673.44 77.3475 673.235 77.793 672.959 78.1719C672.687 78.5509 672.349 78.8453 671.945 79.0552C671.545 79.2601 671.082 79.3625 670.555 79.3625C670.037 79.3625 669.587 79.2652 669.203 79.0706C668.819 78.876 668.496 78.5995 668.235 78.241C667.979 77.8826 667.771 77.455 667.613 76.9583C667.454 76.4616 667.341 75.9137 667.275 75.3146V74.7999C667.341 74.1957 667.454 73.6478 667.613 73.1562C667.771 72.6595 667.979 72.2319 668.235 71.8734C668.496 71.5099 668.816 71.2308 669.195 71.0362C669.579 70.8416 670.027 70.7443 670.539 70.7443C671.072 70.7443 671.54 70.8467 671.945 71.0516C672.355 71.2564 672.695 71.5483 672.966 71.9272C673.238 72.301 673.44 72.7465 673.573 73.2637C673.711 73.7809 673.781 74.3519 673.781 74.9766ZM671.929 75.1379V74.9766C671.929 74.6028 671.899 74.252 671.837 73.9243C671.776 73.5914 671.673 73.2996 671.53 73.0486C671.392 72.7977 671.202 72.6006 670.962 72.4572C670.726 72.3087 670.432 72.2345 670.078 72.2345C669.751 72.2345 669.469 72.2908 669.233 72.4034C668.998 72.5161 668.801 72.6697 668.642 72.8643C668.483 73.0589 668.358 73.2842 668.266 73.5402C668.179 73.7963 668.12 74.0728 668.089 74.3698V75.7601C668.135 76.1441 668.232 76.4974 668.381 76.82C668.534 77.1375 668.75 77.3936 669.026 77.5882C669.303 77.7776 669.658 77.8724 670.094 77.8724C670.437 77.8724 670.726 77.8032 670.962 77.665C671.197 77.5267 671.384 77.3347 671.522 77.0889C671.666 76.838 671.768 76.5461 671.83 76.2132C671.896 75.8804 671.929 75.5219 671.929 75.1379ZM677.61 67.4107V79.2089H675.751V67.4107H677.61ZM683.583 79.3625C682.968 79.3625 682.413 79.2626 681.916 79.0629C681.424 78.8581 681.004 78.5739 680.656 78.2103C680.313 77.8468 680.049 77.4192 679.865 76.9276C679.681 76.436 679.589 75.906 679.589 75.3376V75.0304C679.589 74.38 679.683 73.7911 679.873 73.2637C680.062 72.7363 680.326 72.2857 680.664 71.9118C681.002 71.5329 681.401 71.2436 681.862 71.0439C682.323 70.8442 682.822 70.7443 683.36 70.7443C683.954 70.7443 684.474 70.8442 684.919 71.0439C685.365 71.2436 685.733 71.5252 686.025 71.8888C686.322 72.2473 686.543 72.6748 686.686 73.1715C686.834 73.6683 686.909 74.2162 686.909 74.8153V75.6064H680.487V74.2776H685.081V74.1317C685.07 73.7988 685.004 73.4865 684.881 73.1946C684.763 72.9027 684.581 72.6672 684.336 72.4879C684.09 72.3087 683.762 72.2191 683.352 72.2191C683.045 72.2191 682.771 72.2857 682.53 72.4188C682.295 72.5468 682.098 72.7337 681.939 72.9795C681.78 73.2253 681.657 73.5223 681.57 73.8705C681.488 74.2136 681.447 74.6002 681.447 75.0304V75.3376C681.447 75.7012 681.496 76.0391 681.593 76.3515C681.696 76.6587 681.844 76.9276 682.039 77.158C682.233 77.3884 682.469 77.5702 682.746 77.7034C683.022 77.8314 683.337 77.8954 683.69 77.8954C684.136 77.8954 684.533 77.8058 684.881 77.6266C685.229 77.4473 685.531 77.1939 685.787 76.8661L686.763 77.8109C686.584 78.0721 686.351 78.323 686.064 78.5637C685.777 78.7992 685.426 78.9912 685.011 79.1397C684.602 79.2882 684.126 79.3625 683.583 79.3625ZM693.703 77.4883V67.4107H695.562V79.2089H693.88L693.703 77.4883ZM688.296 75.1456V74.9843C688.296 74.3544 688.37 73.7809 688.518 73.2637C688.667 72.7414 688.882 72.2933 689.164 71.9195C689.445 71.5406 689.788 71.2513 690.193 71.0516C690.597 70.8467 691.053 70.7443 691.56 70.7443C692.062 70.7443 692.502 70.8416 692.881 71.0362C693.26 71.2308 693.583 71.5099 693.849 71.8734C694.115 72.2319 694.328 72.662 694.487 73.1639C694.645 73.6606 694.758 74.2136 694.825 74.823V75.3376C694.758 75.9316 694.645 76.4744 694.487 76.966C694.328 77.4576 694.115 77.8826 693.849 78.241C693.583 78.5995 693.258 78.876 692.874 79.0706C692.495 79.2652 692.052 79.3625 691.545 79.3625C691.043 79.3625 690.59 79.2575 690.185 79.0476C689.786 78.8376 689.445 78.5432 689.164 78.1642C688.882 77.7853 688.667 77.3398 688.518 76.8277C688.37 76.3105 688.296 75.7498 688.296 75.1456ZM690.147 74.9843V75.1456C690.147 75.5245 690.18 75.8778 690.247 76.2056C690.318 76.5333 690.428 76.8226 690.577 77.0735C690.725 77.3193 690.917 77.5139 691.153 77.6573C691.394 77.7955 691.68 77.8647 692.013 77.8647C692.433 77.8647 692.779 77.7725 693.05 77.5882C693.322 77.4038 693.534 77.1555 693.688 76.8431C693.847 76.5256 693.954 76.1723 694.01 75.7831V74.3928C693.98 74.0907 693.916 73.8091 693.818 73.5479C693.726 73.2868 693.601 73.0589 693.442 72.8643C693.283 72.6646 693.086 72.511 692.851 72.4034C692.62 72.2908 692.346 72.2345 692.029 72.2345C691.691 72.2345 691.404 72.3061 691.168 72.4495C690.933 72.5929 690.738 72.79 690.585 73.041C690.436 73.2919 690.326 73.5838 690.254 73.9166C690.183 74.2495 690.147 74.6053 690.147 74.9843Z" fill="black" fill-opacity="0.54"/>
</g>
<defs>
<filter id="filter0_d_4041_18738" x="34" y="36" width="237.355" height="83.4178" filterUnits="userSpaceOnUse" color-interpolation-filters="sRGB">
<feFlood flood-opacity="0" result="BackgroundImageFix"/>
<feColorMatrix in="SourceAlpha" type="matrix" values="0 0 0 0 0 0 0 0 0 0 0 0 0 0 0 0 0 0 127 0" result="hardAlpha"/>
<feOffset dy="4"/>
<feGaussianBlur stdDeviation="4"/>
<feComposite in2="hardAlpha" operator="out"/>
<feColorMatrix type="matrix" values="0 0 0 0 0 0 0 0 0 0 0 0 0 0 0 0 0 0 0.08 0"/>
<feBlend mode="normal" in2="BackgroundImageFix" result="effect1_dropShadow_4041_18738"/>
<feBlend mode="normal" in="SourceGraphic" in2="effect1_dropShadow_4041_18738" result="shape"/>
</filter>
<filter id="filter1_d_4041_18738" x="282.322" y="36" width="237.355" height="83.4178" filterUnits="userSpaceOnUse" color-interpolation-filters="sRGB">
<feFlood flood-opacity="0" result="BackgroundImageFix"/>
<feColorMatrix in="SourceAlpha" type="matrix" values="0 0 0 0 0 0 0 0 0 0 0 0 0 0 0 0 0 0 127 0" result="hardAlpha"/>
<feOffset dy="4"/>
<feGaussianBlur stdDeviation="4"/>
<feComposite in2="hardAlpha" operator="out"/>
<feColorMatrix type="matrix" values="0 0 0 0 0 0 0 0 0 0 0 0 0 0 0 0 0 0 0.08 0"/>
<feBlend mode="normal" in2="BackgroundImageFix" result="effect1_dropShadow_4041_18738"/>
<feBlend mode="normal" in="SourceGraphic" in2="effect1_dropShadow_4041_18738" result="shape"/>
</filter>
<filter id="filter2_d_4041_18738" x="530.645" y="36" width="237.355" height="83.4178" filterUnits="userSpaceOnUse" color-interpolation-filters="sRGB">
<feFlood flood-opacity="0" result="BackgroundImageFix"/>
<feColorMatrix in="SourceAlpha" type="matrix" values="0 0 0 0 0 0 0 0 0 0 0 0 0 0 0 0 0 0 127 0" result="hardAlpha"/>
<feOffset dy="4"/>
<feGaussianBlur stdDeviation="4"/>
<feComposite in2="hardAlpha" operator="out"/>
<feColorMatrix type="matrix" values="0 0 0 0 0 0 0 0 0 0 0 0 0 0 0 0 0 0 0.08 0"/>
<feBlend mode="normal" in2="BackgroundImageFix" result="effect1_dropShadow_4041_18738"/>
<feBlend mode="normal" in="SourceGraphic" in2="effect1_dropShadow_4041_18738" result="shape"/>
</filter>
</defs>
</svg>
