<svg width="803" height="451" viewBox="0 0 803 451" fill="none" xmlns="http://www.w3.org/2000/svg">
<rect width="803" height="451" rx="10.5786" fill="#E7E9EB"/>
<rect x="0.440773" y="0.440773" width="802.118" height="450.118" rx="10.1378" stroke="black" stroke-opacity="0.05" stroke-width="0.881546"/>
<g clip-path="url(#clip0_4048_208667)">
<path d="M40 40H763V88H40V40Z" fill="#305680"/>
<path d="M63.875 65.2969H65.8281C65.7656 66.0417 65.5573 66.7057 65.2031 67.2891C64.849 67.8672 64.3516 68.3229 63.7109 68.6562C63.0703 68.9896 62.2917 69.1562 61.375 69.1562C60.6719 69.1562 60.0391 69.0312 59.4766 68.7812C58.9141 68.526 58.4323 68.1667 58.0312 67.7031C57.6302 67.2344 57.3229 66.6693 57.1094 66.0078C56.901 65.3464 56.7969 64.6068 56.7969 63.7891V62.8438C56.7969 62.026 56.9036 61.2865 57.1172 60.625C57.3359 59.9635 57.6484 59.3984 58.0547 58.9297C58.4609 58.4557 58.9479 58.0938 59.5156 57.8438C60.0885 57.5938 60.7318 57.4688 61.4453 57.4688C62.3516 57.4688 63.1172 57.6354 63.7422 57.9688C64.3672 58.3021 64.8516 58.763 65.1953 59.3516C65.5443 59.9401 65.7578 60.6146 65.8359 61.375H63.8828C63.8307 60.8854 63.7161 60.4661 63.5391 60.1172C63.3672 59.7682 63.112 59.5026 62.7734 59.3203C62.4349 59.1328 61.9922 59.0391 61.4453 59.0391C60.9974 59.0391 60.6068 59.1224 60.2734 59.2891C59.9401 59.4557 59.6615 59.7005 59.4375 60.0234C59.2135 60.3464 59.0443 60.7448 58.9297 61.2188C58.8203 61.6875 58.7656 62.224 58.7656 62.8281V63.7891C58.7656 64.362 58.8151 64.8828 58.9141 65.3516C59.0182 65.8151 59.1745 66.2135 59.3828 66.5469C59.5964 66.8802 59.8672 67.138 60.1953 67.3203C60.5234 67.5026 60.9167 67.5938 61.375 67.5938C61.9323 67.5938 62.3828 67.5052 62.7266 67.3281C63.0755 67.151 63.3385 66.8932 63.5156 66.5547C63.6979 66.2109 63.8177 65.7917 63.875 65.2969ZM67.3125 64.8672V64.6875C67.3125 64.0781 67.401 63.513 67.5781 62.9922C67.7552 62.4661 68.0104 62.0104 68.3438 61.625C68.6823 61.2344 69.0938 60.9323 69.5781 60.7188C70.0677 60.5 70.6198 60.3906 71.2344 60.3906C71.8542 60.3906 72.4062 60.5 72.8906 60.7188C73.3802 60.9323 73.7943 61.2344 74.1328 61.625C74.4714 62.0104 74.7292 62.4661 74.9062 62.9922C75.0833 63.513 75.1719 64.0781 75.1719 64.6875V64.8672C75.1719 65.4766 75.0833 66.0417 74.9062 66.5625C74.7292 67.0833 74.4714 67.5391 74.1328 67.9297C73.7943 68.3151 73.3828 68.6172 72.8984 68.8359C72.4141 69.0495 71.8646 69.1562 71.25 69.1562C70.6302 69.1562 70.0755 69.0495 69.5859 68.8359C69.1016 68.6172 68.6901 68.3151 68.3516 67.9297C68.013 67.5391 67.7552 67.0833 67.5781 66.5625C67.401 66.0417 67.3125 65.4766 67.3125 64.8672ZM69.1953 64.6875V64.8672C69.1953 65.2474 69.2344 65.6068 69.3125 65.9453C69.3906 66.2839 69.513 66.5807 69.6797 66.8359C69.8464 67.0911 70.0599 67.2917 70.3203 67.4375C70.5807 67.5833 70.8906 67.6562 71.25 67.6562C71.599 67.6562 71.901 67.5833 72.1562 67.4375C72.4167 67.2917 72.6302 67.0911 72.7969 66.8359C72.9635 66.5807 73.0859 66.2839 73.1641 65.9453C73.2474 65.6068 73.2891 65.2474 73.2891 64.8672V64.6875C73.2891 64.3125 73.2474 63.9583 73.1641 63.625C73.0859 63.2865 72.9609 62.987 72.7891 62.7266C72.6224 62.4661 72.4089 62.263 72.1484 62.1172C71.8932 61.9661 71.5885 61.8906 71.2344 61.8906C70.8802 61.8906 70.5729 61.9661 70.3125 62.1172C70.0573 62.263 69.8464 62.4661 69.6797 62.7266C69.513 62.987 69.3906 63.2865 69.3125 63.625C69.2344 63.9583 69.1953 64.3125 69.1953 64.6875ZM78.8828 62.2656V69H77V60.5469H78.7734L78.8828 62.2656ZM78.5781 64.4609L77.9375 64.4531C77.9375 63.8698 78.0104 63.3307 78.1562 62.8359C78.3021 62.3411 78.5156 61.9115 78.7969 61.5469C79.0781 61.1771 79.4271 60.8932 79.8438 60.6953C80.2656 60.4922 80.7526 60.3906 81.3047 60.3906C81.6901 60.3906 82.0417 60.4479 82.3594 60.5625C82.6823 60.6719 82.9609 60.8464 83.1953 61.0859C83.4349 61.3255 83.6172 61.6328 83.7422 62.0078C83.8724 62.3828 83.9375 62.8359 83.9375 63.3672V69H82.0547V63.5312C82.0547 63.1198 81.9922 62.7969 81.8672 62.5625C81.7474 62.3281 81.5729 62.1615 81.3438 62.0625C81.1198 61.9583 80.8516 61.9062 80.5391 61.9062C80.1849 61.9062 79.8828 61.974 79.6328 62.1094C79.388 62.2448 79.1875 62.4297 79.0312 62.6641C78.875 62.8984 78.7604 63.1693 78.6875 63.4766C78.6146 63.7839 78.5781 64.112 78.5781 64.4609ZM83.8203 63.9609L82.9375 64.1562C82.9375 63.6458 83.0078 63.1641 83.1484 62.7109C83.2943 62.2526 83.5052 61.8516 83.7812 61.5078C84.0625 61.1589 84.4089 60.8854 84.8203 60.6875C85.2318 60.4896 85.7031 60.3906 86.2344 60.3906C86.6667 60.3906 87.0521 60.4505 87.3906 60.5703C87.7344 60.6849 88.026 60.8672 88.2656 61.1172C88.5052 61.3672 88.6875 61.6927 88.8125 62.0938C88.9375 62.4896 89 62.9688 89 63.5312V69H87.1094V63.5234C87.1094 63.0964 87.0469 62.7656 86.9219 62.5312C86.8021 62.2969 86.6302 62.1354 86.4062 62.0469C86.1823 61.9531 85.9141 61.9062 85.6016 61.9062C85.3099 61.9062 85.0521 61.9609 84.8281 62.0703C84.6094 62.1745 84.4245 62.3229 84.2734 62.5156C84.1224 62.7031 84.0078 62.9193 83.9297 63.1641C83.8568 63.4089 83.8203 63.6745 83.8203 63.9609ZM93.0703 62.2656V69H91.1875V60.5469H92.9609L93.0703 62.2656ZM92.7656 64.4609L92.125 64.4531C92.125 63.8698 92.1979 63.3307 92.3438 62.8359C92.4896 62.3411 92.7031 61.9115 92.9844 61.5469C93.2656 61.1771 93.6146 60.8932 94.0312 60.6953C94.4531 60.4922 94.9401 60.3906 95.4922 60.3906C95.8776 60.3906 96.2292 60.4479 96.5469 60.5625C96.8698 60.6719 97.1484 60.8464 97.3828 61.0859C97.6224 61.3255 97.8047 61.6328 97.9297 62.0078C98.0599 62.3828 98.125 62.8359 98.125 63.3672V69H96.2422V63.5312C96.2422 63.1198 96.1797 62.7969 96.0547 62.5625C95.9349 62.3281 95.7604 62.1615 95.5312 62.0625C95.3073 61.9583 95.0391 61.9062 94.7266 61.9062C94.3724 61.9062 94.0703 61.974 93.8203 62.1094C93.5755 62.2448 93.375 62.4297 93.2188 62.6641C93.0625 62.8984 92.9479 63.1693 92.875 63.4766C92.8021 63.7839 92.7656 64.112 92.7656 64.4609ZM98.0078 63.9609L97.125 64.1562C97.125 63.6458 97.1953 63.1641 97.3359 62.7109C97.4818 62.2526 97.6927 61.8516 97.9688 61.5078C98.25 61.1589 98.5964 60.8854 99.0078 60.6875C99.4193 60.4896 99.8906 60.3906 100.422 60.3906C100.854 60.3906 101.24 60.4505 101.578 60.5703C101.922 60.6849 102.214 60.8672 102.453 61.1172C102.693 61.3672 102.875 61.6927 103 62.0938C103.125 62.4896 103.188 62.9688 103.188 63.5312V69H101.297V63.5234C101.297 63.0964 101.234 62.7656 101.109 62.5312C100.99 62.2969 100.818 62.1354 100.594 62.0469C100.37 61.9531 100.102 61.9062 99.7891 61.9062C99.4974 61.9062 99.2396 61.9609 99.0156 62.0703C98.7969 62.1745 98.612 62.3229 98.4609 62.5156C98.3099 62.7031 98.1953 62.9193 98.1172 63.1641C98.0443 63.4089 98.0078 63.6745 98.0078 63.9609ZM110.141 67.3047V63.2734C110.141 62.9714 110.086 62.7109 109.977 62.4922C109.867 62.2734 109.701 62.1042 109.477 61.9844C109.258 61.8646 108.982 61.8047 108.648 61.8047C108.341 61.8047 108.076 61.8568 107.852 61.9609C107.628 62.0651 107.453 62.2057 107.328 62.3828C107.203 62.5599 107.141 62.7604 107.141 62.9844H105.266C105.266 62.651 105.346 62.3281 105.508 62.0156C105.669 61.7031 105.904 61.4245 106.211 61.1797C106.518 60.9349 106.885 60.7422 107.312 60.6016C107.74 60.4609 108.219 60.3906 108.75 60.3906C109.385 60.3906 109.948 60.4974 110.438 60.7109C110.932 60.9245 111.32 61.2474 111.602 61.6797C111.888 62.1068 112.031 62.6432 112.031 63.2891V67.0469C112.031 67.4323 112.057 67.7786 112.109 68.0859C112.167 68.388 112.247 68.651 112.352 68.875V69H110.422C110.333 68.7969 110.263 68.5391 110.211 68.2266C110.164 67.9089 110.141 67.6016 110.141 67.3047ZM110.414 63.8594L110.43 65.0234H109.078C108.729 65.0234 108.422 65.0573 108.156 65.125C107.891 65.1875 107.669 65.2812 107.492 65.4062C107.315 65.5312 107.182 65.6823 107.094 65.8594C107.005 66.0365 106.961 66.237 106.961 66.4609C106.961 66.6849 107.013 66.8906 107.117 67.0781C107.221 67.2604 107.372 67.4036 107.57 67.5078C107.773 67.612 108.018 67.6641 108.305 67.6641C108.69 67.6641 109.026 67.5859 109.312 67.4297C109.604 67.2682 109.833 67.0729 110 66.8438C110.167 66.6094 110.255 66.388 110.266 66.1797L110.875 67.0156C110.812 67.2292 110.706 67.4583 110.555 67.7031C110.404 67.9479 110.206 68.1823 109.961 68.4062C109.721 68.625 109.432 68.8047 109.094 68.9453C108.76 69.0859 108.375 69.1562 107.938 69.1562C107.385 69.1562 106.893 69.0469 106.461 68.8281C106.029 68.6042 105.69 68.3047 105.445 67.9297C105.201 67.5495 105.078 67.1198 105.078 66.6406C105.078 66.1927 105.161 65.7969 105.328 65.4531C105.5 65.1042 105.75 64.8125 106.078 64.5781C106.411 64.3438 106.818 64.1667 107.297 64.0469C107.776 63.9219 108.323 63.8594 108.938 63.8594H110.414ZM116.117 62.3516V69H114.234V60.5469H116.008L116.117 62.3516ZM115.781 64.4609L115.172 64.4531C115.177 63.8542 115.26 63.3047 115.422 62.8047C115.589 62.3047 115.818 61.875 116.109 61.5156C116.406 61.1562 116.76 60.8802 117.172 60.6875C117.583 60.4896 118.042 60.3906 118.547 60.3906C118.953 60.3906 119.32 60.4479 119.648 60.5625C119.982 60.6719 120.266 60.8516 120.5 61.1016C120.74 61.3516 120.922 61.6771 121.047 62.0781C121.172 62.474 121.234 62.9609 121.234 63.5391V69H119.344V63.5312C119.344 63.125 119.284 62.8047 119.164 62.5703C119.049 62.3307 118.88 62.1615 118.656 62.0625C118.438 61.9583 118.164 61.9062 117.836 61.9062C117.513 61.9062 117.224 61.974 116.969 62.1094C116.714 62.2448 116.497 62.4297 116.32 62.6641C116.148 62.8984 116.016 63.1693 115.922 63.4766C115.828 63.7839 115.781 64.112 115.781 64.4609ZM128.562 67.25V57H130.453V69H128.742L128.562 67.25ZM123.062 64.8672V64.7031C123.062 64.0625 123.138 63.4792 123.289 62.9531C123.44 62.4219 123.659 61.9661 123.945 61.5859C124.232 61.2005 124.581 60.9062 124.992 60.7031C125.404 60.4948 125.867 60.3906 126.383 60.3906C126.893 60.3906 127.341 60.4896 127.727 60.6875C128.112 60.8854 128.44 61.1693 128.711 61.5391C128.982 61.9036 129.198 62.3411 129.359 62.8516C129.521 63.3568 129.635 63.9193 129.703 64.5391V65.0625C129.635 65.6667 129.521 66.2188 129.359 66.7188C129.198 67.2188 128.982 67.651 128.711 68.0156C128.44 68.3802 128.109 68.6615 127.719 68.8594C127.333 69.0573 126.883 69.1562 126.367 69.1562C125.857 69.1562 125.396 69.0495 124.984 68.8359C124.578 68.6224 124.232 68.3229 123.945 67.9375C123.659 67.5521 123.44 67.099 123.289 66.5781C123.138 66.0521 123.062 65.4818 123.062 64.8672ZM124.945 64.7031V64.8672C124.945 65.2526 124.979 65.612 125.047 65.9453C125.12 66.2786 125.232 66.5729 125.383 66.8281C125.534 67.0781 125.729 67.276 125.969 67.4219C126.214 67.5625 126.505 67.6328 126.844 67.6328C127.271 67.6328 127.622 67.5391 127.898 67.3516C128.174 67.1641 128.391 66.9115 128.547 66.5938C128.708 66.2708 128.818 65.9115 128.875 65.5156V64.1016C128.844 63.7943 128.779 63.5078 128.68 63.2422C128.586 62.9766 128.458 62.7448 128.297 62.5469C128.135 62.3438 127.935 62.1875 127.695 62.0781C127.461 61.9635 127.182 61.9062 126.859 61.9062C126.516 61.9062 126.224 61.9792 125.984 62.125C125.745 62.2708 125.547 62.4714 125.391 62.7266C125.24 62.9818 125.128 63.2786 125.055 63.6172C124.982 63.9557 124.945 64.3177 124.945 64.7031ZM136.914 57H138.797V67.1953L138.617 69H136.914V57ZM144.312 64.6953V64.8594C144.312 65.4844 144.242 66.0599 144.102 66.5859C143.966 67.1068 143.758 67.5599 143.477 67.9453C143.201 68.3307 142.857 68.6302 142.445 68.8438C142.039 69.0521 141.568 69.1562 141.031 69.1562C140.505 69.1562 140.047 69.0573 139.656 68.8594C139.266 68.6615 138.938 68.3802 138.672 68.0156C138.411 67.651 138.201 67.2161 138.039 66.7109C137.878 66.2057 137.763 65.6484 137.695 65.0391V64.5156C137.763 63.901 137.878 63.3438 138.039 62.8438C138.201 62.3385 138.411 61.9036 138.672 61.5391C138.938 61.1693 139.263 60.8854 139.648 60.6875C140.039 60.4896 140.495 60.3906 141.016 60.3906C141.557 60.3906 142.034 60.4948 142.445 60.7031C142.862 60.9115 143.208 61.2083 143.484 61.5938C143.76 61.974 143.966 62.4271 144.102 62.9531C144.242 63.4792 144.312 64.0599 144.312 64.6953ZM142.43 64.8594V64.6953C142.43 64.3151 142.398 63.9583 142.336 63.625C142.273 63.2865 142.169 62.9896 142.023 62.7344C141.883 62.4792 141.69 62.2786 141.445 62.1328C141.206 61.9818 140.906 61.9062 140.547 61.9062C140.214 61.9062 139.927 61.9635 139.688 62.0781C139.448 62.1927 139.247 62.349 139.086 62.5469C138.924 62.7448 138.797 62.974 138.703 63.2344C138.615 63.4948 138.555 63.776 138.523 64.0781V65.4922C138.57 65.8828 138.669 66.2422 138.82 66.5703C138.977 66.8932 139.195 67.1536 139.477 67.3516C139.758 67.5443 140.12 67.6406 140.562 67.6406C140.911 67.6406 141.206 67.5703 141.445 67.4297C141.685 67.2891 141.875 67.0938 142.016 66.8438C142.161 66.5885 142.266 66.2917 142.328 65.9531C142.396 65.6146 142.43 65.25 142.43 64.8594ZM151.242 67.0078V60.5469H153.133V69H151.352L151.242 67.0078ZM151.508 65.25L152.141 65.2344C152.141 65.8021 152.078 66.3255 151.953 66.8047C151.828 67.2786 151.635 67.6927 151.375 68.0469C151.115 68.3958 150.781 68.6693 150.375 68.8672C149.969 69.0599 149.482 69.1562 148.914 69.1562C148.503 69.1562 148.125 69.0964 147.781 68.9766C147.438 68.8568 147.141 68.6719 146.891 68.4219C146.646 68.1719 146.456 67.8464 146.32 67.4453C146.185 67.0443 146.117 66.5651 146.117 66.0078V60.5469H148V66.0234C148 66.3307 148.036 66.5885 148.109 66.7969C148.182 67 148.281 67.1641 148.406 67.2891C148.531 67.4141 148.677 67.5026 148.844 67.5547C149.01 67.6068 149.188 67.6328 149.375 67.6328C149.911 67.6328 150.333 67.5286 150.641 67.3203C150.953 67.1068 151.174 66.8203 151.305 66.4609C151.44 66.1016 151.508 65.6979 151.508 65.25ZM159.188 60.5469V61.9219H154.422V60.5469H159.188ZM155.797 58.4766H157.68V66.6641C157.68 66.9245 157.716 67.125 157.789 67.2656C157.867 67.401 157.974 67.4922 158.109 67.5391C158.245 67.5859 158.404 67.6094 158.586 67.6094C158.716 67.6094 158.841 67.6016 158.961 67.5859C159.081 67.5703 159.177 67.5547 159.25 67.5391L159.258 68.9766C159.102 69.0234 158.919 69.0651 158.711 69.1016C158.508 69.138 158.273 69.1562 158.008 69.1562C157.576 69.1562 157.193 69.0807 156.859 68.9297C156.526 68.7734 156.266 68.5208 156.078 68.1719C155.891 67.8229 155.797 67.3594 155.797 66.7812V58.4766ZM164.766 60.5469V61.9219H160V60.5469H164.766ZM161.375 58.4766H163.258V66.6641C163.258 66.9245 163.294 67.125 163.367 67.2656C163.445 67.401 163.552 67.4922 163.688 67.5391C163.823 67.5859 163.982 67.6094 164.164 67.6094C164.294 67.6094 164.419 67.6016 164.539 67.5859C164.659 67.5703 164.755 67.5547 164.828 67.5391L164.836 68.9766C164.68 69.0234 164.497 69.0651 164.289 69.1016C164.086 69.138 163.852 69.1562 163.586 69.1562C163.154 69.1562 162.771 69.0807 162.438 68.9297C162.104 68.7734 161.844 68.5208 161.656 68.1719C161.469 67.8229 161.375 67.3594 161.375 66.7812V58.4766ZM165.922 64.8672V64.6875C165.922 64.0781 166.01 63.513 166.188 62.9922C166.365 62.4661 166.62 62.0104 166.953 61.625C167.292 61.2344 167.703 60.9323 168.188 60.7188C168.677 60.5 169.229 60.3906 169.844 60.3906C170.464 60.3906 171.016 60.5 171.5 60.7188C171.99 60.9323 172.404 61.2344 172.742 61.625C173.081 62.0104 173.339 62.4661 173.516 62.9922C173.693 63.513 173.781 64.0781 173.781 64.6875V64.8672C173.781 65.4766 173.693 66.0417 173.516 66.5625C173.339 67.0833 173.081 67.5391 172.742 67.9297C172.404 68.3151 171.992 68.6172 171.508 68.8359C171.023 69.0495 170.474 69.1562 169.859 69.1562C169.24 69.1562 168.685 69.0495 168.195 68.8359C167.711 68.6172 167.299 68.3151 166.961 67.9297C166.622 67.5391 166.365 67.0833 166.188 66.5625C166.01 66.0417 165.922 65.4766 165.922 64.8672ZM167.805 64.6875V64.8672C167.805 65.2474 167.844 65.6068 167.922 65.9453C168 66.2839 168.122 66.5807 168.289 66.8359C168.456 67.0911 168.669 67.2917 168.93 67.4375C169.19 67.5833 169.5 67.6562 169.859 67.6562C170.208 67.6562 170.51 67.5833 170.766 67.4375C171.026 67.2917 171.24 67.0911 171.406 66.8359C171.573 66.5807 171.695 66.2839 171.773 65.9453C171.857 65.6068 171.898 65.2474 171.898 64.8672V64.6875C171.898 64.3125 171.857 63.9583 171.773 63.625C171.695 63.2865 171.57 62.987 171.398 62.7266C171.232 62.4661 171.018 62.263 170.758 62.1172C170.503 61.9661 170.198 61.8906 169.844 61.8906C169.49 61.8906 169.182 61.9661 168.922 62.1172C168.667 62.263 168.456 62.4661 168.289 62.7266C168.122 62.987 168 63.2865 167.922 63.625C167.844 63.9583 167.805 64.3125 167.805 64.6875ZM177.477 62.3516V69H175.594V60.5469H177.367L177.477 62.3516ZM177.141 64.4609L176.531 64.4531C176.536 63.8542 176.62 63.3047 176.781 62.8047C176.948 62.3047 177.177 61.875 177.469 61.5156C177.766 61.1562 178.12 60.8802 178.531 60.6875C178.943 60.4896 179.401 60.3906 179.906 60.3906C180.312 60.3906 180.68 60.4479 181.008 60.5625C181.341 60.6719 181.625 60.8516 181.859 61.1016C182.099 61.3516 182.281 61.6771 182.406 62.0781C182.531 62.474 182.594 62.9609 182.594 63.5391V69H180.703V63.5312C180.703 63.125 180.643 62.8047 180.523 62.5703C180.409 62.3307 180.24 62.1615 180.016 62.0625C179.797 61.9583 179.523 61.9062 179.195 61.9062C178.872 61.9062 178.583 61.974 178.328 62.1094C178.073 62.2448 177.857 62.4297 177.68 62.6641C177.508 62.8984 177.375 63.1693 177.281 63.4766C177.188 63.7839 177.141 64.112 177.141 64.4609ZM189.508 66.7109C189.508 66.5234 189.461 66.3542 189.367 66.2031C189.273 66.0469 189.094 65.9062 188.828 65.7812C188.568 65.6562 188.182 65.5417 187.672 65.4375C187.224 65.3385 186.812 65.2214 186.438 65.0859C186.068 64.9453 185.75 64.776 185.484 64.5781C185.219 64.3802 185.013 64.1458 184.867 63.875C184.721 63.6042 184.648 63.2917 184.648 62.9375C184.648 62.5938 184.724 62.2682 184.875 61.9609C185.026 61.6536 185.242 61.3828 185.523 61.1484C185.805 60.9141 186.146 60.7292 186.547 60.5938C186.953 60.4583 187.406 60.3906 187.906 60.3906C188.615 60.3906 189.221 60.5104 189.727 60.75C190.237 60.9844 190.628 61.3047 190.898 61.7109C191.169 62.112 191.305 62.5651 191.305 63.0703H189.422C189.422 62.8464 189.365 62.638 189.25 62.4453C189.141 62.2474 188.974 62.0885 188.75 61.9688C188.526 61.8438 188.245 61.7812 187.906 61.7812C187.583 61.7812 187.315 61.8333 187.102 61.9375C186.893 62.0365 186.737 62.1667 186.633 62.3281C186.534 62.4896 186.484 62.6667 186.484 62.8594C186.484 63 186.51 63.1276 186.562 63.2422C186.62 63.3516 186.714 63.4531 186.844 63.5469C186.974 63.6354 187.151 63.7188 187.375 63.7969C187.604 63.875 187.891 63.9505 188.234 64.0234C188.88 64.1589 189.435 64.3333 189.898 64.5469C190.367 64.7552 190.727 65.026 190.977 65.3594C191.227 65.6875 191.352 66.1042 191.352 66.6094C191.352 66.9844 191.271 67.3281 191.109 67.6406C190.953 67.9479 190.724 68.2161 190.422 68.4453C190.12 68.6693 189.758 68.8438 189.336 68.9688C188.919 69.0938 188.451 69.1562 187.93 69.1562C187.164 69.1562 186.516 69.0208 185.984 68.75C185.453 68.474 185.049 68.1224 184.773 67.6953C184.503 67.263 184.367 66.8151 184.367 66.3516H186.188C186.208 66.7005 186.305 66.9792 186.477 67.1875C186.654 67.3906 186.872 67.5391 187.133 67.6328C187.398 67.7214 187.672 67.7656 187.953 67.7656C188.292 67.7656 188.576 67.7214 188.805 67.6328C189.034 67.5391 189.208 67.4141 189.328 67.2578C189.448 67.0964 189.508 66.9141 189.508 66.7109Z" fill="white"/>
<path d="M40 88H763V405C763 408.314 760.314 411 757 411H46C42.6863 411 40 408.314 40 405V88Z" fill="#0B043A" fill-opacity="0.08"/>
<g filter="url(#filter0_d_4048_208667)">
<rect x="56" y="104" width="337.5" height="67.4178" rx="4.49452" fill="black" fill-opacity="0.03" shape-rendering="crispEdges"/>
<rect x="56.5618" y="104.562" width="336.376" height="66.2942" rx="3.93271" stroke="black" stroke-opacity="0.12" stroke-width="1.12363" shape-rendering="crispEdges"/>
<path d="M179.358 144.065L177.117 144.065L177.109 135.19L167.44 144.86L165.851 143.271L175.52 133.601L166.645 133.609L166.645 131.353H179.358V144.065Z" fill="black" fill-opacity="0.38"/>
<path d="M198.252 140.329C198.252 140.098 198.216 139.893 198.145 139.714C198.078 139.535 197.958 139.371 197.784 139.223C197.609 139.074 197.364 138.931 197.046 138.792C196.734 138.649 196.334 138.503 195.848 138.355C195.315 138.191 194.824 138.009 194.373 137.809C193.928 137.604 193.539 137.369 193.206 137.103C192.873 136.831 192.614 136.521 192.43 136.173C192.246 135.82 192.153 135.413 192.153 134.952C192.153 134.496 192.248 134.081 192.438 133.708C192.632 133.334 192.906 133.011 193.259 132.74C193.618 132.463 194.04 132.251 194.527 132.102C195.013 131.949 195.551 131.872 196.14 131.872C196.969 131.872 197.684 132.025 198.283 132.333C198.887 132.64 199.351 133.052 199.673 133.569C200.001 134.086 200.165 134.657 200.165 135.282H198.252C198.252 134.913 198.173 134.588 198.014 134.307C197.86 134.02 197.625 133.795 197.307 133.631C196.995 133.467 196.598 133.385 196.117 133.385C195.661 133.385 195.282 133.454 194.98 133.592C194.678 133.731 194.453 133.917 194.304 134.153C194.156 134.389 194.081 134.655 194.081 134.952C194.081 135.162 194.13 135.354 194.227 135.528C194.325 135.697 194.473 135.856 194.673 136.004C194.872 136.148 195.123 136.283 195.426 136.411C195.728 136.539 196.084 136.662 196.493 136.78C197.113 136.964 197.653 137.169 198.114 137.394C198.575 137.615 198.959 137.866 199.266 138.147C199.573 138.429 199.804 138.749 199.957 139.107C200.111 139.461 200.188 139.863 200.188 140.313C200.188 140.784 200.093 141.209 199.904 141.588C199.714 141.962 199.443 142.282 199.089 142.548C198.741 142.81 198.321 143.012 197.83 143.155C197.343 143.293 196.8 143.363 196.201 143.363C195.664 143.363 195.134 143.291 194.611 143.148C194.094 143.004 193.623 142.787 193.198 142.495C192.773 142.198 192.435 141.829 192.184 141.389C191.933 140.943 191.808 140.423 191.808 139.829H193.736C193.736 140.193 193.797 140.503 193.92 140.759C194.048 141.015 194.225 141.225 194.45 141.389C194.675 141.547 194.936 141.665 195.233 141.742C195.536 141.819 195.858 141.857 196.201 141.857C196.652 141.857 197.028 141.793 197.33 141.665C197.638 141.537 197.868 141.358 198.022 141.127C198.175 140.897 198.252 140.631 198.252 140.329ZM205.653 143.363C205.039 143.363 204.483 143.263 203.987 143.063C203.495 142.858 203.075 142.574 202.727 142.21C202.384 141.847 202.12 141.419 201.936 140.928C201.751 140.436 201.659 139.906 201.659 139.338V139.03C201.659 138.38 201.754 137.791 201.943 137.264C202.133 136.736 202.397 136.286 202.735 135.912C203.073 135.533 203.472 135.244 203.933 135.044C204.394 134.844 204.893 134.744 205.431 134.744C206.025 134.744 206.544 134.844 206.99 135.044C207.435 135.244 207.804 135.525 208.096 135.889C208.393 136.247 208.613 136.675 208.757 137.172C208.905 137.668 208.979 138.216 208.979 138.815V139.607H202.558V138.278H207.151V138.132C207.141 137.799 207.074 137.487 206.952 137.195C206.834 136.903 206.652 136.667 206.406 136.488C206.16 136.309 205.833 136.219 205.423 136.219C205.116 136.219 204.842 136.286 204.601 136.419C204.366 136.547 204.168 136.734 204.01 136.98C203.851 137.225 203.728 137.522 203.641 137.871C203.559 138.214 203.518 138.6 203.518 139.03V139.338C203.518 139.701 203.567 140.039 203.664 140.352C203.766 140.659 203.915 140.928 204.11 141.158C204.304 141.389 204.54 141.57 204.816 141.703C205.093 141.832 205.408 141.896 205.761 141.896C206.206 141.896 206.603 141.806 206.952 141.627C207.3 141.447 207.602 141.194 207.858 140.866L208.833 141.811C208.654 142.072 208.421 142.323 208.134 142.564C207.848 142.799 207.497 142.991 207.082 143.14C206.672 143.288 206.196 143.363 205.653 143.363ZM214.514 134.898V136.25H209.829V134.898H214.514ZM211.18 132.863H213.032V140.912C213.032 141.168 213.067 141.366 213.139 141.504C213.216 141.637 213.321 141.727 213.454 141.773C213.587 141.819 213.743 141.842 213.923 141.842C214.051 141.842 214.174 141.834 214.291 141.819C214.409 141.803 214.504 141.788 214.576 141.773L214.583 143.186C214.43 143.232 214.25 143.273 214.046 143.309C213.846 143.345 213.615 143.363 213.354 143.363C212.929 143.363 212.553 143.288 212.225 143.14C211.897 142.986 211.641 142.738 211.457 142.395C211.273 142.052 211.18 141.596 211.18 141.028V132.863ZM225.084 140.958C225.084 140.774 225.038 140.608 224.946 140.459C224.854 140.306 224.677 140.167 224.416 140.044C224.16 139.921 223.781 139.809 223.279 139.706C222.839 139.609 222.434 139.494 222.066 139.361C221.702 139.223 221.39 139.056 221.129 138.861C220.867 138.667 220.665 138.436 220.522 138.17C220.378 137.904 220.307 137.597 220.307 137.248C220.307 136.911 220.381 136.59 220.529 136.288C220.678 135.986 220.89 135.72 221.167 135.49C221.443 135.259 221.779 135.077 222.173 134.944C222.573 134.811 223.018 134.744 223.51 134.744C224.206 134.744 224.803 134.862 225.299 135.098C225.801 135.328 226.185 135.643 226.452 136.043C226.718 136.437 226.851 136.882 226.851 137.379H225C225 137.159 224.943 136.954 224.831 136.765C224.723 136.57 224.559 136.414 224.339 136.296C224.119 136.173 223.843 136.112 223.51 136.112C223.192 136.112 222.928 136.163 222.719 136.265C222.514 136.363 222.36 136.491 222.258 136.649C222.16 136.808 222.112 136.982 222.112 137.172C222.112 137.31 222.137 137.435 222.189 137.548C222.245 137.656 222.337 137.755 222.465 137.848C222.593 137.935 222.767 138.017 222.987 138.093C223.213 138.17 223.494 138.244 223.832 138.316C224.467 138.449 225.013 138.621 225.468 138.831C225.929 139.036 226.283 139.302 226.528 139.63C226.774 139.952 226.897 140.362 226.897 140.859C226.897 141.227 226.818 141.565 226.659 141.872C226.505 142.175 226.28 142.438 225.983 142.664C225.686 142.884 225.33 143.055 224.915 143.178C224.506 143.301 224.045 143.363 223.533 143.363C222.78 143.363 222.142 143.229 221.62 142.963C221.098 142.692 220.701 142.346 220.43 141.926C220.163 141.501 220.03 141.061 220.03 140.605H221.82C221.84 140.948 221.935 141.222 222.104 141.427C222.278 141.627 222.493 141.773 222.749 141.865C223.01 141.952 223.279 141.995 223.556 141.995C223.889 141.995 224.168 141.952 224.393 141.865C224.618 141.773 224.79 141.65 224.908 141.496C225.025 141.337 225.084 141.158 225.084 140.958ZM232.608 134.898V136.25H227.923V134.898H232.608ZM229.275 132.863H231.126V140.912C231.126 141.168 231.162 141.366 231.234 141.504C231.31 141.637 231.415 141.727 231.548 141.773C231.682 141.819 231.838 141.842 232.017 141.842C232.145 141.842 232.268 141.834 232.386 141.819C232.503 141.803 232.598 141.788 232.67 141.773L232.678 143.186C232.524 143.232 232.345 143.273 232.14 143.309C231.94 143.345 231.71 143.363 231.449 143.363C231.024 143.363 230.647 143.288 230.32 143.14C229.992 142.986 229.736 142.738 229.551 142.395C229.367 142.052 229.275 141.596 229.275 141.028V132.863ZM239.004 141.542V137.579C239.004 137.282 238.95 137.026 238.842 136.811C238.735 136.596 238.571 136.429 238.351 136.311C238.136 136.194 237.864 136.135 237.536 136.135C237.234 136.135 236.973 136.186 236.753 136.288C236.533 136.391 236.361 136.529 236.238 136.703C236.115 136.877 236.054 137.074 236.054 137.295H234.211C234.211 136.967 234.29 136.649 234.449 136.342C234.607 136.035 234.838 135.761 235.14 135.52C235.442 135.28 235.803 135.09 236.223 134.952C236.643 134.814 237.114 134.744 237.636 134.744C238.261 134.744 238.814 134.849 239.295 135.059C239.782 135.269 240.163 135.587 240.44 136.012C240.722 136.432 240.862 136.959 240.862 137.594V141.289C240.862 141.668 240.888 142.008 240.939 142.31C240.995 142.607 241.075 142.866 241.177 143.086V143.209H239.28C239.193 143.009 239.124 142.756 239.073 142.449C239.027 142.136 239.004 141.834 239.004 141.542ZM239.272 138.155L239.288 139.299H237.959C237.616 139.299 237.314 139.333 237.053 139.399C236.791 139.461 236.574 139.553 236.4 139.676C236.226 139.799 236.095 139.947 236.008 140.121C235.921 140.295 235.877 140.492 235.877 140.713C235.877 140.933 235.929 141.135 236.031 141.319C236.133 141.499 236.282 141.639 236.476 141.742C236.676 141.844 236.917 141.896 237.198 141.896C237.577 141.896 237.908 141.819 238.189 141.665C238.476 141.506 238.701 141.314 238.865 141.089C239.029 140.859 239.116 140.641 239.126 140.436L239.726 141.258C239.664 141.468 239.559 141.693 239.411 141.934C239.262 142.175 239.068 142.405 238.827 142.625C238.591 142.84 238.307 143.017 237.974 143.155C237.647 143.293 237.268 143.363 236.837 143.363C236.295 143.363 235.811 143.255 235.386 143.04C234.961 142.82 234.628 142.525 234.387 142.157C234.147 141.783 234.026 141.36 234.026 140.889C234.026 140.449 234.108 140.06 234.272 139.722C234.441 139.379 234.687 139.092 235.009 138.861C235.337 138.631 235.736 138.457 236.208 138.339C236.679 138.216 237.216 138.155 237.821 138.155H239.272ZM246.889 134.898V136.25H242.203V134.898H246.889ZM243.555 132.863H245.406V140.912C245.406 141.168 245.442 141.366 245.514 141.504C245.591 141.637 245.696 141.727 245.829 141.773C245.962 141.819 246.118 141.842 246.297 141.842C246.425 141.842 246.548 141.834 246.666 141.819C246.784 141.803 246.878 141.788 246.95 141.773L246.958 143.186C246.804 143.232 246.625 143.273 246.42 143.309C246.22 143.345 245.99 143.363 245.729 143.363C245.304 143.363 244.927 143.288 244.6 143.14C244.272 142.986 244.016 142.738 243.832 142.395C243.647 142.052 243.555 141.596 243.555 141.028V132.863ZM252.262 143.363C251.648 143.363 251.092 143.263 250.595 143.063C250.104 142.858 249.684 142.574 249.336 142.21C248.993 141.847 248.729 141.419 248.544 140.928C248.36 140.436 248.268 139.906 248.268 139.338V139.03C248.268 138.38 248.363 137.791 248.552 137.264C248.742 136.736 249.005 136.286 249.343 135.912C249.681 135.533 250.081 135.244 250.542 135.044C251.002 134.844 251.502 134.744 252.039 134.744C252.633 134.744 253.153 134.844 253.599 135.044C254.044 135.244 254.413 135.525 254.705 135.889C255.002 136.247 255.222 136.675 255.365 137.172C255.514 137.668 255.588 138.216 255.588 138.815V139.607H249.167V138.278H253.76V138.132C253.75 137.799 253.683 137.487 253.56 137.195C253.442 136.903 253.261 136.667 253.015 136.488C252.769 136.309 252.441 136.219 252.032 136.219C251.724 136.219 251.45 136.286 251.21 136.419C250.974 136.547 250.777 136.734 250.618 136.98C250.46 137.225 250.337 137.522 250.25 137.871C250.168 138.214 250.127 138.6 250.127 139.03V139.338C250.127 139.701 250.175 140.039 250.273 140.352C250.375 140.659 250.524 140.928 250.718 141.158C250.913 141.389 251.148 141.57 251.425 141.703C251.701 141.832 252.016 141.896 252.37 141.896C252.815 141.896 253.212 141.806 253.56 141.627C253.908 141.447 254.211 141.194 254.467 140.866L255.442 141.811C255.263 142.072 255.03 142.323 254.743 142.564C254.456 142.799 254.106 142.991 253.691 143.14C253.281 143.288 252.805 143.363 252.262 143.363ZM265.321 134.898V136.25H260.636V134.898H265.321ZM261.987 132.863H263.839V140.912C263.839 141.168 263.874 141.366 263.946 141.504C264.023 141.637 264.128 141.727 264.261 141.773C264.394 141.819 264.55 141.842 264.73 141.842C264.858 141.842 264.981 141.834 265.098 141.819C265.216 141.803 265.311 141.788 265.382 141.773L265.39 143.186C265.237 143.232 265.057 143.273 264.852 143.309C264.653 143.345 264.422 143.363 264.161 143.363C263.736 143.363 263.36 143.288 263.032 143.14C262.704 142.986 262.448 142.738 262.264 142.395C262.08 142.052 261.987 141.596 261.987 141.028V132.863ZM266.493 139.146V138.969C266.493 138.37 266.58 137.814 266.754 137.302C266.928 136.785 267.179 136.337 267.507 135.958C267.84 135.574 268.244 135.277 268.72 135.067C269.202 134.852 269.745 134.744 270.349 134.744C270.958 134.744 271.501 134.852 271.977 135.067C272.459 135.277 272.866 135.574 273.199 135.958C273.531 136.337 273.785 136.785 273.959 137.302C274.133 137.814 274.22 138.37 274.22 138.969V139.146C274.22 139.745 274.133 140.3 273.959 140.812C273.785 141.325 273.531 141.773 273.199 142.157C272.866 142.536 272.461 142.833 271.985 143.048C271.509 143.258 270.968 143.363 270.364 143.363C269.755 143.363 269.209 143.258 268.728 143.048C268.252 142.833 267.847 142.536 267.515 142.157C267.182 141.773 266.928 141.325 266.754 140.812C266.58 140.3 266.493 139.745 266.493 139.146ZM268.344 138.969V139.146C268.344 139.52 268.382 139.873 268.459 140.206C268.536 140.539 268.656 140.83 268.82 141.081C268.984 141.332 269.194 141.529 269.45 141.673C269.706 141.816 270.011 141.888 270.364 141.888C270.707 141.888 271.004 141.816 271.255 141.673C271.511 141.529 271.721 141.332 271.885 141.081C272.049 140.83 272.169 140.539 272.246 140.206C272.328 139.873 272.369 139.52 272.369 139.146V138.969C272.369 138.6 272.328 138.252 272.246 137.924C272.169 137.592 272.046 137.297 271.877 137.041C271.714 136.785 271.504 136.585 271.248 136.442C270.997 136.293 270.697 136.219 270.349 136.219C270.001 136.219 269.699 136.293 269.442 136.442C269.192 136.585 268.984 136.785 268.82 137.041C268.656 137.297 268.536 137.592 268.459 137.924C268.382 138.252 268.344 138.6 268.344 138.969ZM284.79 133.515L281.449 143.209H279.429L283.638 132.025H284.929L284.79 133.515ZM287.586 143.209L284.237 133.515L284.091 132.025H285.389L289.614 143.209H287.586ZM287.425 139.061V140.59H281.342V139.061H287.425Z" fill="black" fill-opacity="0.38"/>
</g>
<g filter="url(#filter1_d_4048_208667)">
<rect x="409.5" y="104" width="337.5" height="67.4178" rx="4.49452" fill="white"/>
<rect x="410.062" y="104.562" width="336.376" height="66.2942" rx="3.93271" stroke="#3F52DD" stroke-width="1.12363"/>
<path d="M532.858 144.065L530.617 144.065L530.609 135.19L520.94 144.86L519.351 143.271L529.02 133.601L520.145 133.609L520.145 131.353H532.858V144.065Z" fill="#3F52DD"/>
<path d="M551.998 140.329C551.998 140.098 551.962 139.893 551.89 139.714C551.824 139.535 551.703 139.371 551.529 139.223C551.355 139.074 551.109 138.931 550.792 138.792C550.48 138.649 550.08 138.503 549.594 138.355C549.061 138.191 548.57 138.009 548.119 137.809C547.673 137.604 547.284 137.369 546.951 137.103C546.619 136.831 546.36 136.521 546.176 136.173C545.991 135.82 545.899 135.413 545.899 134.952C545.899 134.496 545.994 134.081 546.183 133.708C546.378 133.334 546.652 133.011 547.005 132.74C547.364 132.463 547.786 132.251 548.273 132.102C548.759 131.949 549.297 131.872 549.886 131.872C550.715 131.872 551.43 132.025 552.029 132.333C552.633 132.64 553.096 133.052 553.419 133.569C553.747 134.086 553.911 134.657 553.911 135.282H551.998C551.998 134.913 551.919 134.588 551.76 134.307C551.606 134.02 551.371 133.795 551.053 133.631C550.741 133.467 550.344 133.385 549.863 133.385C549.407 133.385 549.028 133.454 548.726 133.592C548.424 133.731 548.198 133.917 548.05 134.153C547.901 134.389 547.827 134.655 547.827 134.952C547.827 135.162 547.876 135.354 547.973 135.528C548.07 135.697 548.219 135.856 548.419 136.004C548.618 136.148 548.869 136.283 549.171 136.411C549.473 136.539 549.829 136.662 550.239 136.78C550.859 136.964 551.399 137.169 551.86 137.394C552.321 137.615 552.705 137.866 553.012 138.147C553.319 138.429 553.55 138.749 553.703 139.107C553.857 139.461 553.934 139.863 553.934 140.313C553.934 140.784 553.839 141.209 553.649 141.588C553.46 141.962 553.189 142.282 552.835 142.548C552.487 142.81 552.067 143.012 551.575 143.155C551.089 143.293 550.546 143.363 549.947 143.363C549.409 143.363 548.879 143.291 548.357 143.148C547.84 143.004 547.369 142.787 546.944 142.495C546.519 142.198 546.181 141.829 545.93 141.389C545.679 140.943 545.554 140.423 545.554 139.829H547.481C547.481 140.193 547.543 140.503 547.666 140.759C547.794 141.015 547.971 141.225 548.196 141.389C548.421 141.547 548.682 141.665 548.979 141.742C549.281 141.819 549.604 141.857 549.947 141.857C550.398 141.857 550.774 141.793 551.076 141.665C551.383 141.537 551.614 141.358 551.768 141.127C551.921 140.897 551.998 140.631 551.998 140.329ZM559.399 143.363C558.785 143.363 558.229 143.263 557.732 143.063C557.241 142.858 556.821 142.574 556.473 142.21C556.13 141.847 555.866 141.419 555.682 140.928C555.497 140.436 555.405 139.906 555.405 139.338V139.03C555.405 138.38 555.5 137.791 555.689 137.264C555.879 136.736 556.142 136.286 556.48 135.912C556.818 135.533 557.218 135.244 557.679 135.044C558.14 134.844 558.639 134.744 559.176 134.744C559.77 134.744 560.29 134.844 560.736 135.044C561.181 135.244 561.55 135.525 561.842 135.889C562.139 136.247 562.359 136.675 562.502 137.172C562.651 137.668 562.725 138.216 562.725 138.815V139.607H556.304V138.278H560.897V138.132C560.887 137.799 560.82 137.487 560.697 137.195C560.58 136.903 560.398 136.667 560.152 136.488C559.906 136.309 559.578 136.219 559.169 136.219C558.862 136.219 558.588 136.286 558.347 136.419C558.111 136.547 557.914 136.734 557.755 136.98C557.597 137.225 557.474 137.522 557.387 137.871C557.305 138.214 557.264 138.6 557.264 139.03V139.338C557.264 139.701 557.313 140.039 557.41 140.352C557.512 140.659 557.661 140.928 557.855 141.158C558.05 141.389 558.285 141.57 558.562 141.703C558.838 141.832 559.153 141.896 559.507 141.896C559.952 141.896 560.349 141.806 560.697 141.627C561.046 141.447 561.348 141.194 561.604 140.866L562.579 141.811C562.4 142.072 562.167 142.323 561.88 142.564C561.593 142.799 561.243 142.991 560.828 143.14C560.418 143.288 559.942 143.363 559.399 143.363ZM568.26 134.898V136.25H563.574V134.898H568.26ZM564.926 132.863H566.777V140.912C566.777 141.168 566.813 141.366 566.885 141.504C566.962 141.637 567.067 141.727 567.2 141.773C567.333 141.819 567.489 141.842 567.668 141.842C567.796 141.842 567.919 141.834 568.037 141.819C568.155 141.803 568.25 141.788 568.321 141.773L568.329 143.186C568.175 143.232 567.996 143.273 567.791 143.309C567.592 143.345 567.361 143.363 567.1 143.363C566.675 143.363 566.299 143.288 565.971 143.14C565.643 142.986 565.387 142.738 565.203 142.395C565.018 142.052 564.926 141.596 564.926 141.028V132.863ZM578.83 140.958C578.83 140.774 578.784 140.608 578.692 140.459C578.6 140.306 578.423 140.167 578.162 140.044C577.906 139.921 577.527 139.809 577.025 139.706C576.585 139.609 576.18 139.494 575.811 139.361C575.448 139.223 575.136 139.056 574.874 138.861C574.613 138.667 574.411 138.436 574.268 138.17C574.124 137.904 574.052 137.597 574.052 137.248C574.052 136.911 574.127 136.59 574.275 136.288C574.424 135.986 574.636 135.72 574.913 135.49C575.189 135.259 575.525 135.077 575.919 134.944C576.318 134.811 576.764 134.744 577.255 134.744C577.952 134.744 578.548 134.862 579.045 135.098C579.547 135.328 579.931 135.643 580.197 136.043C580.464 136.437 580.597 136.882 580.597 137.379H578.746C578.746 137.159 578.689 136.954 578.577 136.765C578.469 136.57 578.305 136.414 578.085 136.296C577.865 136.173 577.588 136.112 577.255 136.112C576.938 136.112 576.674 136.163 576.464 136.265C576.26 136.363 576.106 136.491 576.003 136.649C575.906 136.808 575.858 136.982 575.858 137.172C575.858 137.31 575.883 137.435 575.934 137.548C575.991 137.656 576.083 137.755 576.211 137.848C576.339 137.935 576.513 138.017 576.733 138.093C576.958 138.17 577.24 138.244 577.578 138.316C578.213 138.449 578.758 138.621 579.214 138.831C579.675 139.036 580.028 139.302 580.274 139.63C580.52 139.952 580.643 140.362 580.643 140.859C580.643 141.227 580.563 141.565 580.405 141.872C580.251 142.175 580.026 142.438 579.729 142.664C579.432 142.884 579.076 143.055 578.661 143.178C578.251 143.301 577.791 143.363 577.279 143.363C576.526 143.363 575.888 143.229 575.366 142.963C574.844 142.692 574.447 142.346 574.175 141.926C573.909 141.501 573.776 141.061 573.776 140.605H575.566C575.586 140.948 575.681 141.222 575.85 141.427C576.024 141.627 576.239 141.773 576.495 141.865C576.756 141.952 577.025 141.995 577.302 141.995C577.634 141.995 577.914 141.952 578.139 141.865C578.364 141.773 578.536 141.65 578.653 141.496C578.771 141.337 578.83 141.158 578.83 140.958ZM586.354 134.898V136.25H581.669V134.898H586.354ZM583.021 132.863H584.872V140.912C584.872 141.168 584.908 141.366 584.979 141.504C585.056 141.637 585.161 141.727 585.294 141.773C585.427 141.819 585.584 141.842 585.763 141.842C585.891 141.842 586.014 141.834 586.132 141.819C586.249 141.803 586.344 141.788 586.416 141.773L586.423 143.186C586.27 143.232 586.091 143.273 585.886 143.309C585.686 143.345 585.456 143.363 585.194 143.363C584.769 143.363 584.393 143.288 584.065 143.14C583.738 142.986 583.482 142.738 583.297 142.395C583.113 142.052 583.021 141.596 583.021 141.028V132.863ZM592.749 141.542V137.579C592.749 137.282 592.696 137.026 592.588 136.811C592.48 136.596 592.317 136.429 592.096 136.311C591.881 136.194 591.61 136.135 591.282 136.135C590.98 136.135 590.719 136.186 590.499 136.288C590.279 136.391 590.107 136.529 589.984 136.703C589.861 136.877 589.8 137.074 589.8 137.295H587.956C587.956 136.967 588.036 136.649 588.194 136.342C588.353 136.035 588.584 135.761 588.886 135.52C589.188 135.28 589.549 135.09 589.969 134.952C590.389 134.814 590.86 134.744 591.382 134.744C592.007 134.744 592.56 134.849 593.041 135.059C593.528 135.269 593.909 135.587 594.186 136.012C594.467 136.432 594.608 136.959 594.608 137.594V141.289C594.608 141.668 594.634 142.008 594.685 142.31C594.741 142.607 594.821 142.866 594.923 143.086V143.209H593.026C592.939 143.009 592.87 142.756 592.818 142.449C592.772 142.136 592.749 141.834 592.749 141.542ZM593.018 138.155L593.034 139.299H591.705C591.362 139.299 591.059 139.333 590.798 139.399C590.537 139.461 590.32 139.553 590.145 139.676C589.971 139.799 589.841 139.947 589.754 140.121C589.667 140.295 589.623 140.492 589.623 140.713C589.623 140.933 589.674 141.135 589.777 141.319C589.879 141.499 590.028 141.639 590.222 141.742C590.422 141.844 590.663 141.896 590.944 141.896C591.323 141.896 591.653 141.819 591.935 141.665C592.222 141.506 592.447 141.314 592.611 141.089C592.775 140.859 592.862 140.641 592.872 140.436L593.471 141.258C593.41 141.468 593.305 141.693 593.156 141.934C593.008 142.175 592.813 142.405 592.573 142.625C592.337 142.84 592.053 143.017 591.72 143.155C591.392 143.293 591.013 143.363 590.583 143.363C590.04 143.363 589.557 143.255 589.132 143.04C588.707 142.82 588.374 142.525 588.133 142.157C587.892 141.783 587.772 141.36 587.772 140.889C587.772 140.449 587.854 140.06 588.018 139.722C588.187 139.379 588.433 139.092 588.755 138.861C589.083 138.631 589.482 138.457 589.953 138.339C590.425 138.216 590.962 138.155 591.566 138.155H593.018ZM600.634 134.898V136.25H595.949V134.898H600.634ZM597.301 132.863H599.152V140.912C599.152 141.168 599.188 141.366 599.26 141.504C599.336 141.637 599.441 141.727 599.574 141.773C599.708 141.819 599.864 141.842 600.043 141.842C600.171 141.842 600.294 141.834 600.412 141.819C600.529 141.803 600.624 141.788 600.696 141.773L600.704 143.186C600.55 143.232 600.371 143.273 600.166 143.309C599.966 143.345 599.736 143.363 599.475 143.363C599.05 143.363 598.673 143.288 598.346 143.14C598.018 142.986 597.762 142.738 597.577 142.395C597.393 142.052 597.301 141.596 597.301 141.028V132.863ZM606.008 143.363C605.393 143.363 604.838 143.263 604.341 143.063C603.85 142.858 603.43 142.574 603.081 142.21C602.738 141.847 602.475 141.419 602.29 140.928C602.106 140.436 602.014 139.906 602.014 139.338V139.03C602.014 138.38 602.109 137.791 602.298 137.264C602.487 136.736 602.751 136.286 603.089 135.912C603.427 135.533 603.827 135.244 604.287 135.044C604.748 134.844 605.248 134.744 605.785 134.744C606.379 134.744 606.899 134.844 607.344 135.044C607.79 135.244 608.159 135.525 608.451 135.889C608.748 136.247 608.968 136.675 609.111 137.172C609.26 137.668 609.334 138.216 609.334 138.815V139.607H602.912V138.278H607.506V138.132C607.495 137.799 607.429 137.487 607.306 137.195C607.188 136.903 607.006 136.667 606.761 136.488C606.515 136.309 606.187 136.219 605.777 136.219C605.47 136.219 605.196 136.286 604.956 136.419C604.72 136.547 604.523 136.734 604.364 136.98C604.205 137.225 604.083 137.522 603.995 137.871C603.914 138.214 603.873 138.6 603.873 139.03V139.338C603.873 139.701 603.921 140.039 604.019 140.352C604.121 140.659 604.269 140.928 604.464 141.158C604.659 141.389 604.894 141.57 605.171 141.703C605.447 141.832 605.762 141.896 606.115 141.896C606.561 141.896 606.958 141.806 607.306 141.627C607.654 141.447 607.956 141.194 608.212 140.866L609.188 141.811C609.009 142.072 608.776 142.323 608.489 142.564C608.202 142.799 607.851 142.991 607.437 143.14C607.027 143.288 606.551 143.363 606.008 143.363ZM619.067 134.898V136.25H614.381V134.898H619.067ZM615.733 132.863H617.584V140.912C617.584 141.168 617.62 141.366 617.692 141.504C617.769 141.637 617.874 141.727 618.007 141.773C618.14 141.819 618.296 141.842 618.475 141.842C618.603 141.842 618.726 141.834 618.844 141.819C618.962 141.803 619.057 141.788 619.128 141.773L619.136 143.186C618.982 143.232 618.803 143.273 618.598 143.309C618.399 143.345 618.168 143.363 617.907 143.363C617.482 143.363 617.106 143.288 616.778 143.14C616.45 142.986 616.194 142.738 616.01 142.395C615.825 142.052 615.733 141.596 615.733 141.028V132.863ZM620.239 139.146V138.969C620.239 138.37 620.326 137.814 620.5 137.302C620.674 136.785 620.925 136.337 621.253 135.958C621.586 135.574 621.99 135.277 622.466 135.067C622.948 134.852 623.49 134.744 624.095 134.744C624.704 134.744 625.247 134.852 625.723 135.067C626.204 135.277 626.611 135.574 626.944 135.958C627.277 136.337 627.531 136.785 627.705 137.302C627.879 137.814 627.966 138.37 627.966 138.969V139.146C627.966 139.745 627.879 140.3 627.705 140.812C627.531 141.325 627.277 141.773 626.944 142.157C626.611 142.536 626.207 142.833 625.731 143.048C625.254 143.258 624.714 143.363 624.11 143.363C623.501 143.363 622.955 143.258 622.474 143.048C621.998 142.833 621.593 142.536 621.26 142.157C620.927 141.773 620.674 141.325 620.5 140.812C620.326 140.3 620.239 139.745 620.239 139.146ZM622.09 138.969V139.146C622.09 139.52 622.128 139.873 622.205 140.206C622.282 140.539 622.402 140.83 622.566 141.081C622.73 141.332 622.94 141.529 623.196 141.673C623.452 141.816 623.757 141.888 624.11 141.888C624.453 141.888 624.75 141.816 625.001 141.673C625.257 141.529 625.467 141.332 625.631 141.081C625.795 140.83 625.915 140.539 625.992 140.206C626.074 139.873 626.115 139.52 626.115 139.146V138.969C626.115 138.6 626.074 138.252 625.992 137.924C625.915 137.592 625.792 137.297 625.623 137.041C625.459 136.785 625.249 136.585 624.993 136.442C624.742 136.293 624.443 136.219 624.095 136.219C623.746 136.219 623.444 136.293 623.188 136.442C622.937 136.585 622.73 136.785 622.566 137.041C622.402 137.297 622.282 137.592 622.205 137.924C622.128 138.252 622.09 138.6 622.09 138.969ZM638.375 138.155H635.525L635.51 136.749H637.998C638.418 136.749 638.774 136.688 639.066 136.565C639.363 136.437 639.588 136.255 639.742 136.02C639.896 135.779 639.973 135.49 639.973 135.152C639.973 134.778 639.901 134.473 639.757 134.237C639.614 134.002 639.394 133.83 639.097 133.723C638.805 133.615 638.431 133.562 637.975 133.562H636.109V143.209H634.181V132.025H637.975C638.59 132.025 639.138 132.084 639.619 132.202C640.106 132.32 640.518 132.504 640.856 132.755C641.199 133.001 641.458 133.313 641.632 133.692C641.811 134.071 641.9 134.522 641.9 135.044C641.9 135.505 641.79 135.927 641.57 136.311C641.35 136.69 641.025 137 640.595 137.241C640.165 137.481 639.629 137.625 638.989 137.671L638.375 138.155ZM638.29 143.209H634.918L635.786 141.68H638.29C638.726 141.68 639.089 141.609 639.381 141.465C639.673 141.317 639.891 141.115 640.034 140.859C640.182 140.597 640.257 140.293 640.257 139.945C640.257 139.581 640.193 139.266 640.065 139C639.937 138.728 639.734 138.521 639.458 138.378C639.181 138.229 638.82 138.155 638.375 138.155H636.209L636.224 136.749H639.043L639.481 137.279C640.095 137.3 640.6 137.435 640.994 137.686C641.394 137.937 641.691 138.262 641.885 138.662C642.08 139.061 642.177 139.491 642.177 139.952C642.177 140.664 642.021 141.261 641.708 141.742C641.401 142.223 640.958 142.589 640.38 142.84C639.801 143.086 639.105 143.209 638.29 143.209Z" fill="#3F52DD"/>
</g>
<g filter="url(#filter2_d_4048_208667)">
<rect x="56" y="187.418" width="691" height="207.582" rx="4.49452" fill="white"/>
<rect x="56.5618" y="187.98" width="689.876" height="206.459" rx="3.93271" stroke="black" stroke-opacity="0.38" stroke-width="1.12363"/>
<path d="M361.771 295.678C361.771 295.213 361.698 294.803 361.553 294.447C361.416 294.083 361.17 293.755 360.814 293.463C360.468 293.171 359.985 292.893 359.365 292.629C358.754 292.365 357.98 292.096 357.041 291.822C356.056 291.531 355.168 291.207 354.375 290.852C353.582 290.487 352.903 290.072 352.338 289.607C351.773 289.143 351.34 288.609 351.039 288.008C350.738 287.406 350.588 286.718 350.588 285.943C350.588 285.169 350.747 284.453 351.066 283.797C351.385 283.141 351.841 282.571 352.433 282.088C353.035 281.596 353.75 281.213 354.58 280.939C355.409 280.666 356.334 280.529 357.355 280.529C358.85 280.529 360.117 280.816 361.156 281.391C362.204 281.956 363.002 282.699 363.549 283.619C364.095 284.531 364.369 285.506 364.369 286.545H361.744C361.744 285.798 361.584 285.137 361.265 284.562C360.946 283.979 360.463 283.523 359.816 283.195C359.169 282.858 358.349 282.689 357.355 282.689C356.416 282.689 355.642 282.831 355.031 283.113C354.42 283.396 353.965 283.779 353.664 284.262C353.372 284.745 353.226 285.296 353.226 285.916C353.226 286.335 353.313 286.718 353.486 287.064C353.668 287.402 353.946 287.716 354.32 288.008C354.703 288.299 355.186 288.568 355.769 288.814C356.362 289.061 357.068 289.298 357.888 289.525C359.019 289.844 359.994 290.2 360.814 290.592C361.635 290.984 362.309 291.426 362.838 291.918C363.375 292.401 363.772 292.952 364.027 293.572C364.291 294.183 364.424 294.876 364.424 295.65C364.424 296.462 364.26 297.195 363.931 297.852C363.603 298.508 363.134 299.068 362.523 299.533C361.913 299.998 361.179 300.358 360.322 300.613C359.474 300.859 358.526 300.982 357.478 300.982C356.558 300.982 355.651 300.855 354.758 300.6C353.873 300.344 353.067 299.962 352.338 299.451C351.618 298.941 351.039 298.312 350.601 297.564C350.173 296.808 349.959 295.933 349.959 294.939H352.584C352.584 295.623 352.716 296.211 352.98 296.703C353.245 297.186 353.605 297.587 354.06 297.906C354.525 298.225 355.049 298.462 355.633 298.617C356.225 298.763 356.84 298.836 357.478 298.836C358.399 298.836 359.178 298.708 359.816 298.453C360.454 298.198 360.937 297.833 361.265 297.359C361.603 296.885 361.771 296.325 361.771 295.678ZM373.71 285.916V287.857H365.712V285.916H373.71ZM368.419 282.32H370.948V297.045C370.948 297.546 371.026 297.924 371.18 298.18C371.335 298.435 371.536 298.604 371.782 298.686C372.028 298.768 372.292 298.809 372.575 298.809C372.785 298.809 373.003 298.79 373.231 298.754C373.468 298.708 373.646 298.672 373.764 298.645L373.778 300.709C373.578 300.773 373.313 300.832 372.985 300.887C372.666 300.951 372.279 300.982 371.823 300.982C371.203 300.982 370.634 300.859 370.114 300.613C369.595 300.367 369.18 299.957 368.87 299.383C368.569 298.799 368.419 298.016 368.419 297.031V282.32ZM385.512 298.18V290.564C385.512 289.981 385.393 289.475 385.156 289.047C384.928 288.609 384.582 288.272 384.117 288.035C383.652 287.798 383.078 287.68 382.394 287.68C381.756 287.68 381.196 287.789 380.713 288.008C380.239 288.227 379.865 288.514 379.592 288.869C379.327 289.225 379.195 289.607 379.195 290.018H376.666C376.666 289.489 376.803 288.965 377.076 288.445C377.349 287.926 377.741 287.456 378.252 287.037C378.771 286.609 379.391 286.271 380.111 286.025C380.84 285.77 381.652 285.643 382.545 285.643C383.62 285.643 384.568 285.825 385.389 286.189C386.218 286.554 386.865 287.105 387.33 287.844C387.804 288.573 388.041 289.489 388.041 290.592V297.482C388.041 297.975 388.082 298.499 388.164 299.055C388.255 299.611 388.387 300.089 388.56 300.49V300.709H385.922C385.794 300.417 385.694 300.03 385.621 299.547C385.548 299.055 385.512 298.599 385.512 298.18ZM385.949 291.74L385.976 293.518H383.42C382.7 293.518 382.057 293.577 381.492 293.695C380.927 293.805 380.453 293.973 380.07 294.201C379.687 294.429 379.396 294.716 379.195 295.062C378.995 295.4 378.894 295.796 378.894 296.252C378.894 296.717 378.999 297.141 379.209 297.523C379.419 297.906 379.733 298.212 380.152 298.439C380.581 298.658 381.105 298.768 381.724 298.768C382.499 298.768 383.183 298.604 383.775 298.275C384.368 297.947 384.837 297.546 385.183 297.072C385.539 296.598 385.73 296.138 385.758 295.691L386.838 296.908C386.774 297.291 386.601 297.715 386.318 298.18C386.036 298.645 385.657 299.091 385.183 299.52C384.719 299.939 384.163 300.29 383.516 300.572C382.877 300.846 382.157 300.982 381.355 300.982C380.353 300.982 379.473 300.786 378.717 300.395C377.969 300.003 377.386 299.479 376.967 298.822C376.557 298.157 376.351 297.414 376.351 296.594C376.351 295.801 376.506 295.104 376.816 294.502C377.126 293.891 377.573 293.385 378.156 292.984C378.739 292.574 379.441 292.264 380.262 292.055C381.082 291.845 381.998 291.74 383.01 291.74H385.949ZM398.325 285.916V287.857H390.327V285.916H398.325ZM393.034 282.32H395.563V297.045C395.563 297.546 395.641 297.924 395.796 298.18C395.951 298.435 396.151 298.604 396.397 298.686C396.643 298.768 396.908 298.809 397.19 298.809C397.4 298.809 397.619 298.79 397.847 298.754C398.084 298.708 398.261 298.672 398.38 298.645L398.393 300.709C398.193 300.773 397.929 300.832 397.601 300.887C397.282 300.951 396.894 300.982 396.438 300.982C395.819 300.982 395.249 300.859 394.729 300.613C394.21 300.367 393.795 299.957 393.485 299.383C393.185 298.799 393.034 298.016 393.034 297.031V282.32ZM407.543 300.982C406.513 300.982 405.579 300.809 404.74 300.463C403.911 300.107 403.195 299.611 402.594 298.973C402.001 298.335 401.546 297.578 401.227 296.703C400.908 295.828 400.748 294.871 400.748 293.832V293.258C400.748 292.055 400.926 290.984 401.281 290.045C401.637 289.097 402.12 288.295 402.73 287.639C403.341 286.982 404.034 286.486 404.809 286.148C405.583 285.811 406.385 285.643 407.215 285.643C408.272 285.643 409.184 285.825 409.949 286.189C410.724 286.554 411.357 287.064 411.85 287.721C412.342 288.368 412.706 289.133 412.943 290.018C413.18 290.893 413.299 291.85 413.299 292.889V294.023H402.252V291.959H410.77V291.768C410.733 291.111 410.596 290.473 410.359 289.854C410.132 289.234 409.767 288.723 409.266 288.322C408.764 287.921 408.081 287.721 407.215 287.721C406.641 287.721 406.112 287.844 405.629 288.09C405.146 288.327 404.731 288.682 404.385 289.156C404.038 289.63 403.77 290.209 403.578 290.893C403.387 291.576 403.291 292.365 403.291 293.258V293.832C403.291 294.534 403.387 295.195 403.578 295.814C403.779 296.425 404.066 296.963 404.439 297.428C404.822 297.893 405.283 298.257 405.82 298.521C406.367 298.786 406.987 298.918 407.68 298.918C408.573 298.918 409.329 298.736 409.949 298.371C410.569 298.007 411.111 297.519 411.576 296.908L413.107 298.125C412.788 298.608 412.383 299.068 411.891 299.506C411.398 299.943 410.792 300.299 410.072 300.572C409.361 300.846 408.518 300.982 407.543 300.982ZM416.255 299.369C416.255 298.941 416.387 298.581 416.651 298.289C416.925 297.988 417.317 297.838 417.827 297.838C418.338 297.838 418.725 297.988 418.989 298.289C419.263 298.581 419.399 298.941 419.399 299.369C419.399 299.788 419.263 300.144 418.989 300.436C418.725 300.727 418.338 300.873 417.827 300.873C417.317 300.873 416.925 300.727 416.651 300.436C416.387 300.144 416.255 299.788 416.255 299.369ZM416.269 287.297C416.269 286.868 416.401 286.508 416.665 286.217C416.939 285.916 417.33 285.766 417.841 285.766C418.351 285.766 418.739 285.916 419.003 286.217C419.276 286.508 419.413 286.868 419.413 287.297C419.413 287.716 419.276 288.072 419.003 288.363C418.739 288.655 418.351 288.801 417.841 288.801C417.33 288.801 416.939 288.655 416.665 288.363C416.401 288.072 416.269 287.716 416.269 287.297ZM438.068 282.566L431.478 300.709H428.784L436.372 280.803H438.109L438.068 282.566ZM443.591 300.709L436.987 282.566L436.946 280.803H438.683L446.298 300.709H443.591ZM443.249 293.34V295.5H432.066V293.34H443.249ZM448.735 299.369C448.735 298.941 448.867 298.581 449.131 298.289C449.405 297.988 449.796 297.838 450.307 297.838C450.817 297.838 451.205 297.988 451.469 298.289C451.742 298.581 451.879 298.941 451.879 299.369C451.879 299.788 451.742 300.144 451.469 300.436C451.205 300.727 450.817 300.873 450.307 300.873C449.796 300.873 449.405 300.727 449.131 300.436C448.867 300.144 448.735 299.788 448.735 299.369Z" fill="black" fill-opacity="0.76"/>
<path d="M681 202C680.47 202 679.961 202.211 679.586 202.586C679.211 202.961 679 203.47 679 204V220C679 220.53 679.211 221.039 679.586 221.414C679.961 221.789 680.47 222 681 222H693C693.53 222 694.039 221.789 694.414 221.414C694.789 221.039 695 220.53 695 220V208L689 202M688 203.5L693.5 209H688M683.93 212.22H691V219.29L688.88 217.17L686.05 220L683.22 217.17L686.05 214.35" fill="black" fill-opacity="0.54"/>
<path d="M718 214H716V219H721V217H718V214ZM716 210H718V207H721V205H716V210ZM728 217H725V219H730V214H728V217ZM725 205V207H728V210H730V205H725Z" fill="black" fill-opacity="0.54"/>
</g>
</g>
<defs>
<filter id="filter0_d_4048_208667" x="48" y="100" width="353.5" height="83.418" filterUnits="userSpaceOnUse" color-interpolation-filters="sRGB">
<feFlood flood-opacity="0" result="BackgroundImageFix"/>
<feColorMatrix in="SourceAlpha" type="matrix" values="0 0 0 0 0 0 0 0 0 0 0 0 0 0 0 0 0 0 127 0" result="hardAlpha"/>
<feOffset dy="4"/>
<feGaussianBlur stdDeviation="4"/>
<feComposite in2="hardAlpha" operator="out"/>
<feColorMatrix type="matrix" values="0 0 0 0 0 0 0 0 0 0 0 0 0 0 0 0 0 0 0.08 0"/>
<feBlend mode="normal" in2="BackgroundImageFix" result="effect1_dropShadow_4048_208667"/>
<feBlend mode="normal" in="SourceGraphic" in2="effect1_dropShadow_4048_208667" result="shape"/>
</filter>
<filter id="filter1_d_4048_208667" x="401.5" y="100" width="353.5" height="83.418" filterUnits="userSpaceOnUse" color-interpolation-filters="sRGB">
<feFlood flood-opacity="0" result="BackgroundImageFix"/>
<feColorMatrix in="SourceAlpha" type="matrix" values="0 0 0 0 0 0 0 0 0 0 0 0 0 0 0 0 0 0 127 0" result="hardAlpha"/>
<feOffset dy="4"/>
<feGaussianBlur stdDeviation="4"/>
<feComposite in2="hardAlpha" operator="out"/>
<feColorMatrix type="matrix" values="0 0 0 0 0 0 0 0 0 0 0 0 0 0 0 0 0 0 0.08 0"/>
<feBlend mode="normal" in2="BackgroundImageFix" result="effect1_dropShadow_4048_208667"/>
<feBlend mode="normal" in="SourceGraphic" in2="effect1_dropShadow_4048_208667" result="shape"/>
</filter>
<filter id="filter2_d_4048_208667" x="47.011" y="182.923" width="708.978" height="225.56" filterUnits="userSpaceOnUse" color-interpolation-filters="sRGB">
<feFlood flood-opacity="0" result="BackgroundImageFix"/>
<feColorMatrix in="SourceAlpha" type="matrix" values="0 0 0 0 0 0 0 0 0 0 0 0 0 0 0 0 0 0 127 0" result="hardAlpha"/>
<feOffset dy="4.49452"/>
<feGaussianBlur stdDeviation="4.49452"/>
<feComposite in2="hardAlpha" operator="out"/>
<feColorMatrix type="matrix" values="0 0 0 0 0 0 0 0 0 0 0 0 0 0 0 0 0 0 0.08 0"/>
<feBlend mode="normal" in2="BackgroundImageFix" result="effect1_dropShadow_4048_208667"/>
<feBlend mode="normal" in="SourceGraphic" in2="effect1_dropShadow_4048_208667" result="shape"/>
</filter>
<clipPath id="clip0_4048_208667">
<rect x="40" y="40" width="723" height="371" rx="6" fill="white"/>
</clipPath>
</defs>
</svg>
