<svg width="802" height="451" viewBox="0 0 802 451" fill="none" xmlns="http://www.w3.org/2000/svg">
<rect x="80.75" y="48.75" width="146.5" height="54.5" rx="5.25" fill="#F1F8F3"/>
<rect x="80.75" y="48.75" width="146.5" height="54.5" rx="5.25" stroke="#115F29" stroke-width="1.5"/>
<circle cx="127.501" cy="72.5712" r="3.42857" fill="#115F29"/>
<path fill-rule="evenodd" clip-rule="evenodd" d="M124.625 77.5103C122.957 78.2182 121.786 79.8716 121.786 81.7985C121.786 82.3829 122.26 82.8567 122.844 82.8567H132.157C132.741 82.8567 133.215 82.3829 133.215 81.7985C133.215 79.8716 132.044 78.2182 130.376 77.5103C129.531 78.003 128.549 78.2852 127.5 78.2852C126.452 78.2852 125.47 78.003 124.625 77.5103Z" fill="#115F29"/>
<path d="M149.969 72.0078C149.422 72.0078 148.932 72.1068 148.5 72.3047C148.073 72.5026 147.711 72.7891 147.414 73.1641C147.117 73.5339 146.891 73.9844 146.734 74.5156C146.578 75.0417 146.5 75.6354 146.5 76.2969C146.5 77.1823 146.625 77.9453 146.875 78.5859C147.125 79.2214 147.505 79.7109 148.016 80.0547C148.526 80.3932 149.172 80.5625 149.953 80.5625C150.438 80.5625 150.909 80.5156 151.367 80.4219C151.826 80.3281 152.299 80.2005 152.789 80.0391V81.6328C152.326 81.8151 151.857 81.9479 151.383 82.0312C150.909 82.1146 150.362 82.1562 149.742 82.1562C148.576 82.1562 147.607 81.9141 146.836 81.4297C146.07 80.9453 145.497 80.263 145.117 79.3828C144.742 78.5026 144.555 77.4714 144.555 76.2891C144.555 75.4245 144.674 74.6328 144.914 73.9141C145.154 73.1953 145.503 72.5755 145.961 72.0547C146.419 71.5286 146.984 71.125 147.656 70.8438C148.333 70.5573 149.107 70.4141 149.977 70.4141C150.549 70.4141 151.112 70.4792 151.664 70.6094C152.221 70.7344 152.737 70.9141 153.211 71.1484L152.555 72.6953C152.159 72.5078 151.745 72.3464 151.312 72.2109C150.88 72.0755 150.432 72.0078 149.969 72.0078ZM156.898 82H155.055V69.8438H156.898V82ZM161.359 73.3516V82H159.523V73.3516H161.359ZM160.453 70.0391C160.734 70.0391 160.977 70.1146 161.18 70.2656C161.388 70.4167 161.492 70.6771 161.492 71.0469C161.492 71.4115 161.388 71.6719 161.18 71.8281C160.977 71.9792 160.734 72.0547 160.453 72.0547C160.161 72.0547 159.914 71.9792 159.711 71.8281C159.513 71.6719 159.414 71.4115 159.414 71.0469C159.414 70.6771 159.513 70.4167 159.711 70.2656C159.914 70.1146 160.161 70.0391 160.453 70.0391ZM167.438 73.1875C168.208 73.1875 168.87 73.3464 169.422 73.6641C169.974 73.9818 170.398 74.4323 170.695 75.0156C170.992 75.599 171.141 76.2969 171.141 77.1094V78.0938H165.367C165.388 78.9323 165.612 79.5781 166.039 80.0312C166.471 80.4844 167.076 80.7109 167.852 80.7109C168.404 80.7109 168.898 80.6589 169.336 80.5547C169.779 80.4453 170.234 80.2865 170.703 80.0781V81.5703C170.271 81.7734 169.831 81.9219 169.383 82.0156C168.935 82.1094 168.398 82.1562 167.773 82.1562C166.924 82.1562 166.177 81.9922 165.531 81.6641C164.891 81.3307 164.388 80.8359 164.023 80.1797C163.664 79.5234 163.484 78.7083 163.484 77.7344C163.484 76.7656 163.648 75.9427 163.977 75.2656C164.305 74.5885 164.766 74.0729 165.359 73.7188C165.953 73.3646 166.646 73.1875 167.438 73.1875ZM167.438 74.5703C166.859 74.5703 166.391 74.7578 166.031 75.1328C165.677 75.5078 165.469 76.0573 165.406 76.7812H169.344C169.339 76.349 169.266 75.9661 169.125 75.6328C168.99 75.2995 168.781 75.0391 168.5 74.8516C168.224 74.6641 167.87 74.5703 167.438 74.5703ZM177.719 73.1875C178.693 73.1875 179.451 73.4401 179.992 73.9453C180.539 74.4453 180.812 75.25 180.812 76.3594V82H178.977V76.7031C178.977 76.0312 178.839 75.5286 178.562 75.1953C178.286 74.8568 177.859 74.6875 177.281 74.6875C176.443 74.6875 175.859 74.9453 175.531 75.4609C175.208 75.9766 175.047 76.724 175.047 77.7031V82H173.211V73.3516H174.641L174.898 74.5234H175C175.188 74.2214 175.419 73.974 175.695 73.7812C175.977 73.5833 176.289 73.4349 176.633 73.3359C176.982 73.237 177.344 73.1875 177.719 73.1875ZM186.602 80.6719C186.841 80.6719 187.078 80.651 187.312 80.6094C187.547 80.5625 187.76 80.5078 187.953 80.4453V81.8359C187.75 81.9245 187.487 82 187.164 82.0625C186.841 82.125 186.505 82.1562 186.156 82.1562C185.667 82.1562 185.227 82.0755 184.836 81.9141C184.445 81.7474 184.135 81.4635 183.906 81.0625C183.677 80.6615 183.562 80.1068 183.562 79.3984V74.75H182.383V73.9297L183.648 73.2812L184.25 71.4297H185.406V73.3516H187.883V74.75H185.406V79.375C185.406 79.8125 185.516 80.138 185.734 80.3516C185.953 80.5651 186.242 80.6719 186.602 80.6719Z" fill="#115F29"/>
<rect x="80.75" y="347.75" width="146.5" height="54.5" rx="5.25" fill="#F1F8F3"/>
<rect x="80.75" y="347.75" width="146.5" height="54.5" rx="5.25" stroke="#115F29" stroke-width="1.5"/>
<circle cx="127.501" cy="371.571" r="3.42857" fill="#115F29"/>
<path fill-rule="evenodd" clip-rule="evenodd" d="M124.625 376.51C122.957 377.218 121.786 378.872 121.786 380.798C121.786 381.383 122.26 381.857 122.844 381.857H132.157C132.741 381.857 133.215 381.383 133.215 380.798C133.215 378.872 132.044 377.218 130.376 376.51C129.531 377.003 128.549 377.285 127.5 377.285C126.452 377.285 125.47 377.003 124.625 376.51Z" fill="#115F29"/>
<path d="M149.969 371.008C149.422 371.008 148.932 371.107 148.5 371.305C148.073 371.503 147.711 371.789 147.414 372.164C147.117 372.534 146.891 372.984 146.734 373.516C146.578 374.042 146.5 374.635 146.5 375.297C146.5 376.182 146.625 376.945 146.875 377.586C147.125 378.221 147.505 378.711 148.016 379.055C148.526 379.393 149.172 379.562 149.953 379.562C150.438 379.562 150.909 379.516 151.367 379.422C151.826 379.328 152.299 379.201 152.789 379.039V380.633C152.326 380.815 151.857 380.948 151.383 381.031C150.909 381.115 150.362 381.156 149.742 381.156C148.576 381.156 147.607 380.914 146.836 380.43C146.07 379.945 145.497 379.263 145.117 378.383C144.742 377.503 144.555 376.471 144.555 375.289C144.555 374.424 144.674 373.633 144.914 372.914C145.154 372.195 145.503 371.576 145.961 371.055C146.419 370.529 146.984 370.125 147.656 369.844C148.333 369.557 149.107 369.414 149.977 369.414C150.549 369.414 151.112 369.479 151.664 369.609C152.221 369.734 152.737 369.914 153.211 370.148L152.555 371.695C152.159 371.508 151.745 371.346 151.312 371.211C150.88 371.076 150.432 371.008 149.969 371.008ZM156.898 381H155.055V368.844H156.898V381ZM161.359 372.352V381H159.523V372.352H161.359ZM160.453 369.039C160.734 369.039 160.977 369.115 161.18 369.266C161.388 369.417 161.492 369.677 161.492 370.047C161.492 370.411 161.388 370.672 161.18 370.828C160.977 370.979 160.734 371.055 160.453 371.055C160.161 371.055 159.914 370.979 159.711 370.828C159.513 370.672 159.414 370.411 159.414 370.047C159.414 369.677 159.513 369.417 159.711 369.266C159.914 369.115 160.161 369.039 160.453 369.039ZM167.438 372.188C168.208 372.188 168.87 372.346 169.422 372.664C169.974 372.982 170.398 373.432 170.695 374.016C170.992 374.599 171.141 375.297 171.141 376.109V377.094H165.367C165.388 377.932 165.612 378.578 166.039 379.031C166.471 379.484 167.076 379.711 167.852 379.711C168.404 379.711 168.898 379.659 169.336 379.555C169.779 379.445 170.234 379.286 170.703 379.078V380.57C170.271 380.773 169.831 380.922 169.383 381.016C168.935 381.109 168.398 381.156 167.773 381.156C166.924 381.156 166.177 380.992 165.531 380.664C164.891 380.331 164.388 379.836 164.023 379.18C163.664 378.523 163.484 377.708 163.484 376.734C163.484 375.766 163.648 374.943 163.977 374.266C164.305 373.589 164.766 373.073 165.359 372.719C165.953 372.365 166.646 372.188 167.438 372.188ZM167.438 373.57C166.859 373.57 166.391 373.758 166.031 374.133C165.677 374.508 165.469 375.057 165.406 375.781H169.344C169.339 375.349 169.266 374.966 169.125 374.633C168.99 374.299 168.781 374.039 168.5 373.852C168.224 373.664 167.87 373.57 167.438 373.57ZM177.719 372.188C178.693 372.188 179.451 372.44 179.992 372.945C180.539 373.445 180.812 374.25 180.812 375.359V381H178.977V375.703C178.977 375.031 178.839 374.529 178.562 374.195C178.286 373.857 177.859 373.688 177.281 373.688C176.443 373.688 175.859 373.945 175.531 374.461C175.208 374.977 175.047 375.724 175.047 376.703V381H173.211V372.352H174.641L174.898 373.523H175C175.188 373.221 175.419 372.974 175.695 372.781C175.977 372.583 176.289 372.435 176.633 372.336C176.982 372.237 177.344 372.188 177.719 372.188ZM186.602 379.672C186.841 379.672 187.078 379.651 187.312 379.609C187.547 379.562 187.76 379.508 187.953 379.445V380.836C187.75 380.924 187.487 381 187.164 381.062C186.841 381.125 186.505 381.156 186.156 381.156C185.667 381.156 185.227 381.076 184.836 380.914C184.445 380.747 184.135 380.464 183.906 380.062C183.677 379.661 183.562 379.107 183.562 378.398V373.75H182.383V372.93L183.648 372.281L184.25 370.43H185.406V372.352H187.883V373.75H185.406V378.375C185.406 378.812 185.516 379.138 185.734 379.352C185.953 379.565 186.242 379.672 186.602 379.672Z" fill="#115F29"/>
<rect x="574.75" y="48.75" width="146.5" height="54.5" rx="5.25" fill="#F2F6FD"/>
<rect x="574.75" y="48.75" width="146.5" height="54.5" rx="5.25" stroke="#00338E" stroke-width="1.5"/>
<path fill-rule="evenodd" clip-rule="evenodd" d="M612 68.2708C611.448 68.2708 611 68.7185 611 69.2708V74.7119H627V69.2708C627 68.7185 626.552 68.2708 626 68.2708H612ZM611 75.9999H627V78.5764H611V75.9999ZM611 79.8645H627V82.7292C627 83.2814 626.552 83.7292 626 83.7292H612C611.448 83.7292 611 83.2814 611 82.7292V79.8645ZM615 71.4878C615 71.8435 614.702 72.1319 614.333 72.1319C613.965 72.1319 613.667 71.8435 613.667 71.4878C613.667 71.132 613.965 70.8437 614.333 70.8437C614.702 70.8437 615 71.132 615 71.4878ZM617 72.1319C617.368 72.1319 617.667 71.8435 617.667 71.4878C617.667 71.132 617.368 70.8437 617 70.8437C616.632 70.8437 616.333 71.132 616.333 71.4878C616.333 71.8435 616.632 72.1319 617 72.1319Z" fill="#00338E"/>
<path d="M643.297 78.8906C643.297 79.5677 643.13 80.151 642.797 80.6406C642.469 81.1302 641.995 81.5052 641.375 81.7656C640.76 82.026 640.026 82.1562 639.172 82.1562C638.755 82.1562 638.357 82.1328 637.977 82.0859C637.596 82.0391 637.237 81.9714 636.898 81.8828C636.565 81.7891 636.26 81.6771 635.984 81.5469V79.7812C636.448 79.9844 636.966 80.1693 637.539 80.3359C638.112 80.4974 638.695 80.5781 639.289 80.5781C639.773 80.5781 640.174 80.5156 640.492 80.3906C640.815 80.2604 641.055 80.0781 641.211 79.8438C641.367 79.6042 641.445 79.3255 641.445 79.0078C641.445 78.6693 641.354 78.3828 641.172 78.1484C640.99 77.9141 640.714 77.7005 640.344 77.5078C639.979 77.3099 639.521 77.099 638.969 76.875C638.594 76.724 638.234 76.5521 637.891 76.3594C637.552 76.1667 637.25 75.9401 636.984 75.6797C636.719 75.4193 636.508 75.112 636.352 74.7578C636.201 74.3984 636.125 73.9766 636.125 73.4922C636.125 72.8464 636.279 72.2943 636.586 71.8359C636.898 71.3776 637.336 71.026 637.898 70.7812C638.466 70.5365 639.128 70.4141 639.883 70.4141C640.482 70.4141 641.044 70.4766 641.57 70.6016C642.102 70.7266 642.622 70.9036 643.133 71.1328L642.539 72.6406C642.07 72.4479 641.615 72.2943 641.172 72.1797C640.734 72.0651 640.286 72.0078 639.828 72.0078C639.432 72.0078 639.096 72.0677 638.82 72.1875C638.544 72.3073 638.333 72.4766 638.188 72.6953C638.047 72.9089 637.977 73.1641 637.977 73.4609C637.977 73.7943 638.057 74.0755 638.219 74.3047C638.385 74.5286 638.641 74.7344 638.984 74.9219C639.333 75.1094 639.781 75.3177 640.328 75.5469C640.958 75.8073 641.492 76.0807 641.93 76.3672C642.372 76.6536 642.711 76.9974 642.945 77.3984C643.18 77.7943 643.297 78.2917 643.297 78.8906ZM648.758 73.1875C649.529 73.1875 650.19 73.3464 650.742 73.6641C651.294 73.9818 651.719 74.4323 652.016 75.0156C652.312 75.599 652.461 76.2969 652.461 77.1094V78.0938H646.688C646.708 78.9323 646.932 79.5781 647.359 80.0312C647.792 80.4844 648.396 80.7109 649.172 80.7109C649.724 80.7109 650.219 80.6589 650.656 80.5547C651.099 80.4453 651.555 80.2865 652.023 80.0781V81.5703C651.591 81.7734 651.151 81.9219 650.703 82.0156C650.255 82.1094 649.719 82.1562 649.094 82.1562C648.245 82.1562 647.497 81.9922 646.852 81.6641C646.211 81.3307 645.708 80.8359 645.344 80.1797C644.984 79.5234 644.805 78.7083 644.805 77.7344C644.805 76.7656 644.969 75.9427 645.297 75.2656C645.625 74.5885 646.086 74.0729 646.68 73.7188C647.273 73.3646 647.966 73.1875 648.758 73.1875ZM648.758 74.5703C648.18 74.5703 647.711 74.7578 647.352 75.1328C646.997 75.5078 646.789 76.0573 646.727 76.7812H650.664C650.659 76.349 650.586 75.9661 650.445 75.6328C650.31 75.2995 650.102 75.0391 649.82 74.8516C649.544 74.6641 649.19 74.5703 648.758 74.5703ZM658.914 73.1875C659.06 73.1875 659.219 73.1953 659.391 73.2109C659.562 73.2266 659.711 73.2474 659.836 73.2734L659.664 74.9922C659.555 74.9609 659.419 74.9375 659.258 74.9219C659.102 74.9062 658.961 74.8984 658.836 74.8984C658.508 74.8984 658.195 74.9531 657.898 75.0625C657.602 75.1667 657.339 75.3281 657.109 75.5469C656.88 75.7604 656.701 76.0286 656.57 76.3516C656.44 76.6745 656.375 77.0495 656.375 77.4766V82H654.531V73.3516H655.969L656.219 74.875H656.305C656.477 74.5677 656.69 74.2865 656.945 74.0312C657.201 73.776 657.492 73.5729 657.82 73.4219C658.154 73.2656 658.518 73.1875 658.914 73.1875ZM663.414 82L660.125 73.3516H662.07L663.852 78.4297C663.966 78.7526 664.07 79.1016 664.164 79.4766C664.258 79.8516 664.323 80.1667 664.359 80.4219H664.422C664.458 80.1562 664.529 79.8385 664.633 79.4688C664.737 79.0938 664.844 78.7474 664.953 78.4297L666.734 73.3516H668.672L665.383 82H663.414ZM673.43 73.1875C674.201 73.1875 674.862 73.3464 675.414 73.6641C675.966 73.9818 676.391 74.4323 676.688 75.0156C676.984 75.599 677.133 76.2969 677.133 77.1094V78.0938H671.359C671.38 78.9323 671.604 79.5781 672.031 80.0312C672.464 80.4844 673.068 80.7109 673.844 80.7109C674.396 80.7109 674.891 80.6589 675.328 80.5547C675.771 80.4453 676.227 80.2865 676.695 80.0781V81.5703C676.263 81.7734 675.823 81.9219 675.375 82.0156C674.927 82.1094 674.391 82.1562 673.766 82.1562C672.917 82.1562 672.169 81.9922 671.523 81.6641C670.883 81.3307 670.38 80.8359 670.016 80.1797C669.656 79.5234 669.477 78.7083 669.477 77.7344C669.477 76.7656 669.641 75.9427 669.969 75.2656C670.297 74.5885 670.758 74.0729 671.352 73.7188C671.945 73.3646 672.638 73.1875 673.43 73.1875ZM673.43 74.5703C672.852 74.5703 672.383 74.7578 672.023 75.1328C671.669 75.5078 671.461 76.0573 671.398 76.7812H675.336C675.331 76.349 675.258 75.9661 675.117 75.6328C674.982 75.2995 674.773 75.0391 674.492 74.8516C674.216 74.6641 673.862 74.5703 673.43 74.5703ZM683.586 73.1875C683.732 73.1875 683.891 73.1953 684.062 73.2109C684.234 73.2266 684.383 73.2474 684.508 73.2734L684.336 74.9922C684.227 74.9609 684.091 74.9375 683.93 74.9219C683.773 74.9062 683.633 74.8984 683.508 74.8984C683.18 74.8984 682.867 74.9531 682.57 75.0625C682.273 75.1667 682.01 75.3281 681.781 75.5469C681.552 75.7604 681.372 76.0286 681.242 76.3516C681.112 76.6745 681.047 77.0495 681.047 77.4766V82H679.203V73.3516H680.641L680.891 74.875H680.977C681.148 74.5677 681.362 74.2865 681.617 74.0312C681.872 73.776 682.164 73.5729 682.492 73.4219C682.826 73.2656 683.19 73.1875 683.586 73.1875Z" fill="#00338E"/>
<rect x="574.75" y="347.75" width="146.5" height="54.5" rx="5.25" fill="#F2F6FD"/>
<rect x="574.75" y="347.75" width="146.5" height="54.5" rx="5.25" stroke="#00338E" stroke-width="1.5"/>
<path fill-rule="evenodd" clip-rule="evenodd" d="M612 367.271C611.448 367.271 611 367.718 611 368.271V373.712H627V368.271C627 367.718 626.552 367.271 626 367.271H612ZM611 375H627V377.576H611V375ZM611 378.865H627V381.729C627 382.281 626.552 382.729 626 382.729H612C611.448 382.729 611 382.281 611 381.729V378.865ZM615 370.488C615 370.844 614.702 371.132 614.333 371.132C613.965 371.132 613.667 370.844 613.667 370.488C613.667 370.132 613.965 369.844 614.333 369.844C614.702 369.844 615 370.132 615 370.488ZM617 371.132C617.368 371.132 617.667 370.844 617.667 370.488C617.667 370.132 617.368 369.844 617 369.844C616.632 369.844 616.333 370.132 616.333 370.488C616.333 370.844 616.632 371.132 617 371.132Z" fill="#00338E"/>
<path d="M643.297 377.891C643.297 378.568 643.13 379.151 642.797 379.641C642.469 380.13 641.995 380.505 641.375 380.766C640.76 381.026 640.026 381.156 639.172 381.156C638.755 381.156 638.357 381.133 637.977 381.086C637.596 381.039 637.237 380.971 636.898 380.883C636.565 380.789 636.26 380.677 635.984 380.547V378.781C636.448 378.984 636.966 379.169 637.539 379.336C638.112 379.497 638.695 379.578 639.289 379.578C639.773 379.578 640.174 379.516 640.492 379.391C640.815 379.26 641.055 379.078 641.211 378.844C641.367 378.604 641.445 378.326 641.445 378.008C641.445 377.669 641.354 377.383 641.172 377.148C640.99 376.914 640.714 376.701 640.344 376.508C639.979 376.31 639.521 376.099 638.969 375.875C638.594 375.724 638.234 375.552 637.891 375.359C637.552 375.167 637.25 374.94 636.984 374.68C636.719 374.419 636.508 374.112 636.352 373.758C636.201 373.398 636.125 372.977 636.125 372.492C636.125 371.846 636.279 371.294 636.586 370.836C636.898 370.378 637.336 370.026 637.898 369.781C638.466 369.536 639.128 369.414 639.883 369.414C640.482 369.414 641.044 369.477 641.57 369.602C642.102 369.727 642.622 369.904 643.133 370.133L642.539 371.641C642.07 371.448 641.615 371.294 641.172 371.18C640.734 371.065 640.286 371.008 639.828 371.008C639.432 371.008 639.096 371.068 638.82 371.188C638.544 371.307 638.333 371.477 638.188 371.695C638.047 371.909 637.977 372.164 637.977 372.461C637.977 372.794 638.057 373.076 638.219 373.305C638.385 373.529 638.641 373.734 638.984 373.922C639.333 374.109 639.781 374.318 640.328 374.547C640.958 374.807 641.492 375.081 641.93 375.367C642.372 375.654 642.711 375.997 642.945 376.398C643.18 376.794 643.297 377.292 643.297 377.891ZM648.758 372.188C649.529 372.188 650.19 372.346 650.742 372.664C651.294 372.982 651.719 373.432 652.016 374.016C652.312 374.599 652.461 375.297 652.461 376.109V377.094H646.688C646.708 377.932 646.932 378.578 647.359 379.031C647.792 379.484 648.396 379.711 649.172 379.711C649.724 379.711 650.219 379.659 650.656 379.555C651.099 379.445 651.555 379.286 652.023 379.078V380.57C651.591 380.773 651.151 380.922 650.703 381.016C650.255 381.109 649.719 381.156 649.094 381.156C648.245 381.156 647.497 380.992 646.852 380.664C646.211 380.331 645.708 379.836 645.344 379.18C644.984 378.523 644.805 377.708 644.805 376.734C644.805 375.766 644.969 374.943 645.297 374.266C645.625 373.589 646.086 373.073 646.68 372.719C647.273 372.365 647.966 372.188 648.758 372.188ZM648.758 373.57C648.18 373.57 647.711 373.758 647.352 374.133C646.997 374.508 646.789 375.057 646.727 375.781H650.664C650.659 375.349 650.586 374.966 650.445 374.633C650.31 374.299 650.102 374.039 649.82 373.852C649.544 373.664 649.19 373.57 648.758 373.57ZM658.914 372.188C659.06 372.188 659.219 372.195 659.391 372.211C659.562 372.227 659.711 372.247 659.836 372.273L659.664 373.992C659.555 373.961 659.419 373.938 659.258 373.922C659.102 373.906 658.961 373.898 658.836 373.898C658.508 373.898 658.195 373.953 657.898 374.062C657.602 374.167 657.339 374.328 657.109 374.547C656.88 374.76 656.701 375.029 656.57 375.352C656.44 375.674 656.375 376.049 656.375 376.477V381H654.531V372.352H655.969L656.219 373.875H656.305C656.477 373.568 656.69 373.286 656.945 373.031C657.201 372.776 657.492 372.573 657.82 372.422C658.154 372.266 658.518 372.188 658.914 372.188ZM663.414 381L660.125 372.352H662.07L663.852 377.43C663.966 377.753 664.07 378.102 664.164 378.477C664.258 378.852 664.323 379.167 664.359 379.422H664.422C664.458 379.156 664.529 378.839 664.633 378.469C664.737 378.094 664.844 377.747 664.953 377.43L666.734 372.352H668.672L665.383 381H663.414ZM673.43 372.188C674.201 372.188 674.862 372.346 675.414 372.664C675.966 372.982 676.391 373.432 676.688 374.016C676.984 374.599 677.133 375.297 677.133 376.109V377.094H671.359C671.38 377.932 671.604 378.578 672.031 379.031C672.464 379.484 673.068 379.711 673.844 379.711C674.396 379.711 674.891 379.659 675.328 379.555C675.771 379.445 676.227 379.286 676.695 379.078V380.57C676.263 380.773 675.823 380.922 675.375 381.016C674.927 381.109 674.391 381.156 673.766 381.156C672.917 381.156 672.169 380.992 671.523 380.664C670.883 380.331 670.38 379.836 670.016 379.18C669.656 378.523 669.477 377.708 669.477 376.734C669.477 375.766 669.641 374.943 669.969 374.266C670.297 373.589 670.758 373.073 671.352 372.719C671.945 372.365 672.638 372.188 673.43 372.188ZM673.43 373.57C672.852 373.57 672.383 373.758 672.023 374.133C671.669 374.508 671.461 375.057 671.398 375.781H675.336C675.331 375.349 675.258 374.966 675.117 374.633C674.982 374.299 674.773 374.039 674.492 373.852C674.216 373.664 673.862 373.57 673.43 373.57ZM683.586 372.188C683.732 372.188 683.891 372.195 684.062 372.211C684.234 372.227 684.383 372.247 684.508 372.273L684.336 373.992C684.227 373.961 684.091 373.938 683.93 373.922C683.773 373.906 683.633 373.898 683.508 373.898C683.18 373.898 682.867 373.953 682.57 374.062C682.273 374.167 682.01 374.328 681.781 374.547C681.552 374.76 681.372 375.029 681.242 375.352C681.112 375.674 681.047 376.049 681.047 376.477V381H679.203V372.352H680.641L680.891 373.875H680.977C681.148 373.568 681.362 373.286 681.617 373.031C681.872 372.776 682.164 372.573 682.492 372.422C682.826 372.266 683.19 372.188 683.586 372.188Z" fill="#00338E"/>
<path d="M154 105L154 346" stroke="#115F29" stroke-width="1.5"/>
<path d="M648 105L648 346" stroke="#00338E" stroke-width="1.5"/>
<g clip-path="url(#clip0_4029_60901)">
<rect x="344.141" y="112" width="113.72" height="19" fill="white"/>
<path d="M356.602 117.006C357.422 117.006 358.099 117.108 358.632 117.313C359.17 117.514 359.571 117.822 359.835 118.236C360.099 118.651 360.231 119.18 360.231 119.822C360.231 120.351 360.136 120.793 359.944 121.148C359.753 121.499 359.502 121.784 359.192 122.003C358.882 122.222 358.552 122.39 358.201 122.509L360.942 127H359.589L357.142 122.83H355.063V127H353.901V117.006H356.602ZM356.533 118.011H355.063V121.846H356.649C357.465 121.846 358.064 121.679 358.447 121.347C358.835 121.014 359.028 120.524 359.028 119.877C359.028 119.198 358.823 118.717 358.413 118.435C358.007 118.152 357.381 118.011 356.533 118.011ZM365.256 119.371C365.894 119.371 366.441 119.512 366.896 119.795C367.352 120.077 367.701 120.474 367.942 120.984C368.184 121.49 368.305 122.083 368.305 122.762V123.466H363.13C363.144 124.345 363.362 125.015 363.786 125.476C364.21 125.936 364.807 126.166 365.577 126.166C366.051 126.166 366.47 126.123 366.835 126.036C367.2 125.95 367.578 125.822 367.97 125.653V126.651C367.591 126.82 367.215 126.943 366.842 127.021C366.473 127.098 366.035 127.137 365.529 127.137C364.809 127.137 364.18 126.991 363.643 126.699C363.109 126.403 362.695 125.97 362.398 125.4C362.102 124.831 361.954 124.133 361.954 123.309C361.954 122.502 362.089 121.805 362.357 121.217C362.631 120.624 363.014 120.169 363.506 119.85C364.003 119.531 364.586 119.371 365.256 119.371ZM365.242 120.301C364.636 120.301 364.153 120.499 363.793 120.896C363.433 121.292 363.219 121.846 363.15 122.557H367.115C367.111 122.11 367.04 121.718 366.903 121.381C366.771 121.039 366.568 120.775 366.295 120.588C366.021 120.396 365.671 120.301 365.242 120.301ZM375.257 130.35V127.137C375.257 126.959 375.261 126.754 375.271 126.521C375.28 126.289 375.296 126.089 375.318 125.92H375.243C375.034 126.266 374.735 126.556 374.348 126.788C373.96 127.021 373.461 127.137 372.851 127.137C371.935 127.137 371.199 126.813 370.643 126.166C370.087 125.519 369.809 124.553 369.809 123.268C369.809 122.424 369.936 121.714 370.191 121.135C370.447 120.556 370.807 120.118 371.271 119.822C371.741 119.521 372.288 119.371 372.912 119.371C373.509 119.371 373.997 119.49 374.375 119.727C374.753 119.959 375.049 120.244 375.264 120.581H375.318L375.489 119.508H376.392V130.35H375.257ZM373.062 126.193C373.591 126.193 374.015 126.095 374.334 125.899C374.653 125.699 374.885 125.398 375.031 124.997C375.182 124.596 375.261 124.097 375.271 123.5V123.261C375.271 122.295 375.106 121.563 374.778 121.066C374.45 120.565 373.878 120.314 373.062 120.314C372.361 120.314 371.839 120.583 371.497 121.121C371.155 121.654 370.984 122.379 370.984 123.295C370.984 124.211 371.155 124.924 371.497 125.435C371.839 125.94 372.361 126.193 373.062 126.193ZM384.991 119.508V127H384.062L383.897 125.947H383.836C383.681 126.207 383.48 126.426 383.234 126.604C382.988 126.781 382.71 126.913 382.4 127C382.095 127.091 381.769 127.137 381.423 127.137C380.83 127.137 380.334 127.041 379.933 126.85C379.532 126.658 379.229 126.362 379.023 125.961C378.823 125.56 378.723 125.045 378.723 124.416V119.508H379.871V124.334C379.871 124.958 380.012 125.425 380.295 125.735C380.577 126.041 381.008 126.193 381.587 126.193C382.143 126.193 382.585 126.089 382.913 125.879C383.246 125.669 383.485 125.362 383.631 124.956C383.777 124.546 383.85 124.045 383.85 123.452V119.508H384.991ZM390.275 119.371C390.913 119.371 391.46 119.512 391.916 119.795C392.372 120.077 392.72 120.474 392.962 120.984C393.203 121.49 393.324 122.083 393.324 122.762V123.466H388.149C388.163 124.345 388.382 125.015 388.806 125.476C389.229 125.936 389.826 126.166 390.597 126.166C391.071 126.166 391.49 126.123 391.854 126.036C392.219 125.95 392.597 125.822 392.989 125.653V126.651C392.611 126.82 392.235 126.943 391.861 127.021C391.492 127.098 391.055 127.137 390.549 127.137C389.829 127.137 389.2 126.991 388.662 126.699C388.129 126.403 387.714 125.97 387.418 125.4C387.122 124.831 386.974 124.133 386.974 123.309C386.974 122.502 387.108 121.805 387.377 121.217C387.65 120.624 388.033 120.169 388.525 119.85C389.022 119.531 389.605 119.371 390.275 119.371ZM390.262 120.301C389.656 120.301 389.173 120.499 388.812 120.896C388.452 121.292 388.238 121.846 388.17 122.557H392.135C392.13 122.11 392.06 121.718 391.923 121.381C391.791 121.039 391.588 120.775 391.314 120.588C391.041 120.396 390.69 120.301 390.262 120.301ZM400.099 124.949C400.099 125.428 399.978 125.831 399.736 126.159C399.499 126.483 399.158 126.727 398.711 126.891C398.269 127.055 397.74 127.137 397.125 127.137C396.601 127.137 396.147 127.096 395.765 127.014C395.382 126.932 395.047 126.815 394.76 126.665V125.619C395.065 125.77 395.43 125.906 395.854 126.029C396.277 126.152 396.71 126.214 397.152 126.214C397.799 126.214 398.269 126.109 398.561 125.899C398.852 125.69 398.998 125.405 398.998 125.045C398.998 124.84 398.939 124.66 398.82 124.505C398.706 124.345 398.513 124.193 398.239 124.047C397.966 123.896 397.588 123.732 397.104 123.555C396.626 123.372 396.211 123.192 395.86 123.015C395.514 122.832 395.245 122.611 395.054 122.352C394.867 122.092 394.773 121.755 394.773 121.34C394.773 120.706 395.029 120.221 395.539 119.884C396.054 119.542 396.729 119.371 397.562 119.371C398.014 119.371 398.435 119.417 398.827 119.508C399.224 119.594 399.593 119.713 399.935 119.863L399.552 120.772C399.242 120.64 398.911 120.529 398.561 120.438C398.21 120.346 397.852 120.301 397.487 120.301C396.963 120.301 396.56 120.387 396.277 120.561C395.999 120.734 395.86 120.971 395.86 121.271C395.86 121.504 395.924 121.695 396.052 121.846C396.184 121.996 396.394 122.137 396.681 122.27C396.968 122.402 397.346 122.557 397.815 122.734C398.285 122.908 398.69 123.088 399.032 123.274C399.374 123.457 399.636 123.68 399.818 123.944C400.005 124.204 400.099 124.539 400.099 124.949ZM404.344 126.207C404.531 126.207 404.722 126.191 404.918 126.159C405.114 126.127 405.273 126.089 405.396 126.043V126.925C405.264 126.984 405.08 127.034 404.843 127.075C404.61 127.116 404.382 127.137 404.159 127.137C403.763 127.137 403.403 127.068 403.079 126.932C402.756 126.79 402.496 126.553 402.3 126.221C402.108 125.888 402.013 125.428 402.013 124.84V120.396H400.946V119.843L402.02 119.398L402.471 117.771H403.154V119.508H405.349V120.396H403.154V124.806C403.154 125.275 403.261 125.626 403.476 125.858C403.694 126.091 403.984 126.207 404.344 126.207ZM410.722 127V117.006H411.884V127H410.722ZM422.596 119.371C423.421 119.371 424.043 119.588 424.462 120.021C424.881 120.449 425.091 121.139 425.091 122.092V127H423.97V122.146C423.97 121.54 423.838 121.087 423.573 120.786C423.313 120.481 422.926 120.328 422.411 120.328C421.687 120.328 421.16 120.538 420.832 120.957C420.504 121.376 420.34 121.994 420.34 122.81V127H419.212V122.146C419.212 121.741 419.153 121.404 419.034 121.135C418.92 120.866 418.747 120.665 418.515 120.533C418.287 120.396 417.997 120.328 417.646 120.328C417.15 120.328 416.751 120.431 416.45 120.636C416.149 120.841 415.931 121.146 415.794 121.552C415.662 121.953 415.596 122.447 415.596 123.035V127H414.461V119.508H415.377L415.548 120.567H415.609C415.76 120.308 415.949 120.089 416.177 119.911C416.405 119.733 416.66 119.599 416.942 119.508C417.225 119.417 417.526 119.371 417.845 119.371C418.414 119.371 418.891 119.478 419.273 119.692C419.661 119.902 419.941 120.223 420.114 120.656H420.176C420.422 120.223 420.759 119.902 421.188 119.692C421.616 119.478 422.085 119.371 422.596 119.371ZM430.225 119.385C431.118 119.385 431.781 119.585 432.214 119.986C432.647 120.387 432.863 121.028 432.863 121.907V127H432.036L431.817 125.893H431.763C431.553 126.166 431.334 126.396 431.106 126.583C430.879 126.765 430.614 126.904 430.313 127C430.017 127.091 429.653 127.137 429.22 127.137C428.764 127.137 428.358 127.057 428.003 126.897C427.652 126.738 427.374 126.496 427.169 126.173C426.968 125.849 426.868 125.439 426.868 124.942C426.868 124.195 427.164 123.621 427.757 123.22C428.349 122.819 429.252 122.6 430.464 122.563L431.756 122.509V122.051C431.756 121.404 431.617 120.95 431.339 120.69C431.061 120.431 430.669 120.301 430.163 120.301C429.771 120.301 429.397 120.358 429.042 120.472C428.687 120.586 428.349 120.72 428.03 120.875L427.682 120.014C428.019 119.84 428.406 119.692 428.844 119.569C429.281 119.446 429.742 119.385 430.225 119.385ZM431.742 123.309L430.601 123.356C429.666 123.393 429.008 123.546 428.625 123.814C428.242 124.083 428.051 124.464 428.051 124.956C428.051 125.384 428.181 125.701 428.44 125.906C428.7 126.111 429.044 126.214 429.473 126.214C430.138 126.214 430.683 126.029 431.106 125.66C431.53 125.291 431.742 124.737 431.742 123.999V123.309ZM437.293 130.363C436.309 130.363 435.55 130.179 435.017 129.81C434.483 129.445 434.217 128.932 434.217 128.271C434.217 127.802 434.365 127.401 434.661 127.068C434.962 126.736 435.377 126.515 435.905 126.405C435.709 126.314 435.541 126.177 435.399 125.995C435.263 125.813 435.194 125.603 435.194 125.366C435.194 125.093 435.27 124.854 435.42 124.648C435.575 124.439 435.81 124.238 436.124 124.047C435.732 123.887 435.413 123.618 435.167 123.24C434.925 122.857 434.805 122.413 434.805 121.907C434.805 121.369 434.916 120.911 435.14 120.533C435.363 120.15 435.687 119.859 436.11 119.658C436.534 119.458 437.047 119.357 437.648 119.357C437.781 119.357 437.913 119.364 438.045 119.378C438.182 119.387 438.312 119.403 438.435 119.426C438.558 119.444 438.665 119.467 438.756 119.494H441.326V120.226L439.945 120.396C440.082 120.574 440.196 120.788 440.287 121.039C440.378 121.29 440.424 121.568 440.424 121.873C440.424 122.62 440.171 123.215 439.665 123.657C439.159 124.095 438.464 124.313 437.58 124.313C437.37 124.313 437.156 124.295 436.938 124.259C436.714 124.382 436.543 124.519 436.425 124.669C436.311 124.819 436.254 124.993 436.254 125.188C436.254 125.334 436.297 125.451 436.384 125.537C436.475 125.624 436.605 125.688 436.773 125.729C436.942 125.765 437.145 125.783 437.382 125.783H438.701C439.517 125.783 440.141 125.954 440.574 126.296C441.012 126.638 441.23 127.137 441.23 127.793C441.23 128.622 440.893 129.258 440.219 129.7C439.544 130.142 438.569 130.363 437.293 130.363ZM437.327 129.475C437.947 129.475 438.46 129.411 438.865 129.283C439.275 129.16 439.581 128.98 439.781 128.743C439.986 128.511 440.089 128.233 440.089 127.909C440.089 127.608 440.021 127.381 439.884 127.226C439.747 127.075 439.547 126.975 439.282 126.925C439.018 126.87 438.694 126.843 438.312 126.843H437.013C436.675 126.843 436.382 126.895 436.131 127C435.88 127.105 435.687 127.26 435.55 127.465C435.418 127.67 435.352 127.925 435.352 128.23C435.352 128.636 435.522 128.944 435.864 129.153C436.206 129.368 436.694 129.475 437.327 129.475ZM437.621 123.486C438.163 123.486 438.571 123.35 438.845 123.076C439.118 122.803 439.255 122.404 439.255 121.88C439.255 121.319 439.116 120.9 438.838 120.622C438.56 120.34 438.15 120.198 437.607 120.198C437.088 120.198 436.687 120.344 436.404 120.636C436.126 120.923 435.987 121.344 435.987 121.9C435.987 122.411 436.129 122.803 436.411 123.076C436.694 123.35 437.097 123.486 437.621 123.486ZM445.688 119.371C446.326 119.371 446.872 119.512 447.328 119.795C447.784 120.077 448.132 120.474 448.374 120.984C448.616 121.49 448.736 122.083 448.736 122.762V123.466H443.562C443.575 124.345 443.794 125.015 444.218 125.476C444.642 125.936 445.239 126.166 446.009 126.166C446.483 126.166 446.902 126.123 447.267 126.036C447.631 125.95 448.009 125.822 448.401 125.653V126.651C448.023 126.82 447.647 126.943 447.273 127.021C446.904 127.098 446.467 127.137 445.961 127.137C445.241 127.137 444.612 126.991 444.074 126.699C443.541 126.403 443.126 125.97 442.83 125.4C442.534 124.831 442.386 124.133 442.386 123.309C442.386 122.502 442.52 121.805 442.789 121.217C443.062 120.624 443.445 120.169 443.938 119.85C444.434 119.531 445.018 119.371 445.688 119.371ZM445.674 120.301C445.068 120.301 444.585 120.499 444.225 120.896C443.865 121.292 443.65 121.846 443.582 122.557H447.547C447.542 122.11 447.472 121.718 447.335 121.381C447.203 121.039 447 120.775 446.727 120.588C446.453 120.396 446.102 120.301 445.674 120.301Z" fill="#267F41"/>
<path d="M646.075 138.104C647.01 137.449 647.01 136.064 646.075 135.409L642.364 132.812C641.274 132.049 639.776 132.828 639.776 134.159L639.776 139.354C639.776 140.685 641.274 141.465 642.364 140.702L646.075 138.104Z" fill="#267F41"/>
<path fill-rule="evenodd" clip-rule="evenodd" d="M154 136.257L639.776 136.257L639.776 137.257L154 137.257L154 136.257Z" fill="#267F41"/>
</g>
<g clip-path="url(#clip1_4029_60901)">
<rect width="125.796" height="19" transform="translate(338.102 234)" fill="white"/>
<path d="M308.51 239.006C309.33 239.006 310.007 239.108 310.54 239.313C311.078 239.514 311.479 239.822 311.743 240.236C312.007 240.651 312.14 241.18 312.14 241.822C312.14 242.351 312.044 242.793 311.853 243.148C311.661 243.499 311.41 243.784 311.101 244.003C310.791 244.222 310.46 244.39 310.109 244.509L312.851 249H311.497L309.05 244.83H306.972V249H305.81V239.006H308.51ZM308.441 240.011H306.972V243.846H308.558C309.373 243.846 309.973 243.679 310.355 243.347C310.743 243.014 310.937 242.524 310.937 241.877C310.937 241.198 310.731 240.717 310.321 240.435C309.916 240.152 309.289 240.011 308.441 240.011ZM317.164 241.371C317.802 241.371 318.349 241.512 318.805 241.795C319.26 242.077 319.609 242.474 319.851 242.984C320.092 243.49 320.213 244.083 320.213 244.762V245.466H315.038C315.052 246.345 315.271 247.015 315.694 247.476C316.118 247.936 316.715 248.166 317.485 248.166C317.959 248.166 318.379 248.123 318.743 248.036C319.108 247.95 319.486 247.822 319.878 247.653V248.651C319.5 248.82 319.124 248.943 318.75 249.021C318.381 249.098 317.943 249.137 317.438 249.137C316.717 249.137 316.089 248.991 315.551 248.699C315.018 248.403 314.603 247.97 314.307 247.4C314.01 246.831 313.862 246.133 313.862 245.309C313.862 244.502 313.997 243.805 314.266 243.217C314.539 242.624 314.922 242.169 315.414 241.85C315.911 241.531 316.494 241.371 317.164 241.371ZM317.15 242.301C316.544 242.301 316.061 242.499 315.701 242.896C315.341 243.292 315.127 243.846 315.059 244.557H319.023C319.019 244.11 318.948 243.718 318.812 243.381C318.679 243.039 318.477 242.775 318.203 242.588C317.93 242.396 317.579 242.301 317.15 242.301ZM327.165 252.35V249.137C327.165 248.959 327.17 248.754 327.179 248.521C327.188 248.289 327.204 248.089 327.227 247.92H327.151C326.942 248.266 326.643 248.556 326.256 248.788C325.868 249.021 325.369 249.137 324.759 249.137C323.843 249.137 323.107 248.813 322.551 248.166C321.995 247.519 321.717 246.553 321.717 245.268C321.717 244.424 321.844 243.714 322.1 243.135C322.355 242.556 322.715 242.118 323.18 241.822C323.649 241.521 324.196 241.371 324.82 241.371C325.417 241.371 325.905 241.49 326.283 241.727C326.661 241.959 326.958 242.244 327.172 242.581H327.227L327.397 241.508H328.3V252.35H327.165ZM324.971 248.193C325.499 248.193 325.923 248.095 326.242 247.899C326.561 247.699 326.794 247.398 326.939 246.997C327.09 246.596 327.17 246.097 327.179 245.5V245.261C327.179 244.295 327.015 243.563 326.687 243.066C326.358 242.565 325.786 242.314 324.971 242.314C324.269 242.314 323.747 242.583 323.405 243.121C323.063 243.654 322.893 244.379 322.893 245.295C322.893 246.211 323.063 246.924 323.405 247.435C323.747 247.94 324.269 248.193 324.971 248.193ZM336.899 241.508V249H335.97L335.806 247.947H335.744C335.589 248.207 335.389 248.426 335.143 248.604C334.896 248.781 334.618 248.913 334.309 249C334.003 249.091 333.677 249.137 333.331 249.137C332.739 249.137 332.242 249.041 331.841 248.85C331.44 248.658 331.137 248.362 330.932 247.961C330.731 247.56 330.631 247.045 330.631 246.416V241.508H331.779V246.334C331.779 246.958 331.921 247.425 332.203 247.735C332.486 248.041 332.916 248.193 333.495 248.193C334.051 248.193 334.493 248.089 334.821 247.879C335.154 247.669 335.393 247.362 335.539 246.956C335.685 246.546 335.758 246.045 335.758 245.452V241.508H336.899ZM342.184 241.371C342.822 241.371 343.368 241.512 343.824 241.795C344.28 242.077 344.629 242.474 344.87 242.984C345.112 243.49 345.232 244.083 345.232 244.762V245.466H340.058C340.071 246.345 340.29 247.015 340.714 247.476C341.138 247.936 341.735 248.166 342.505 248.166C342.979 248.166 343.398 248.123 343.763 248.036C344.127 247.95 344.506 247.822 344.897 247.653V248.651C344.519 248.82 344.143 248.943 343.77 249.021C343.4 249.098 342.963 249.137 342.457 249.137C341.737 249.137 341.108 248.991 340.57 248.699C340.037 248.403 339.622 247.97 339.326 247.4C339.03 246.831 338.882 246.133 338.882 245.309C338.882 244.502 339.016 243.805 339.285 243.217C339.559 242.624 339.941 242.169 340.434 241.85C340.93 241.531 341.514 241.371 342.184 241.371ZM342.17 242.301C341.564 242.301 341.081 242.499 340.721 242.896C340.361 243.292 340.146 243.846 340.078 244.557H344.043C344.038 244.11 343.968 243.718 343.831 243.381C343.699 243.039 343.496 242.775 343.223 242.588C342.949 242.396 342.598 242.301 342.17 242.301ZM352.007 246.949C352.007 247.428 351.886 247.831 351.645 248.159C351.408 248.483 351.066 248.727 350.619 248.891C350.177 249.055 349.648 249.137 349.033 249.137C348.509 249.137 348.056 249.096 347.673 249.014C347.29 248.932 346.955 248.815 346.668 248.665V247.619C346.973 247.77 347.338 247.906 347.762 248.029C348.186 248.152 348.618 248.214 349.061 248.214C349.708 248.214 350.177 248.109 350.469 247.899C350.76 247.69 350.906 247.405 350.906 247.045C350.906 246.84 350.847 246.66 350.729 246.505C350.615 246.345 350.421 246.193 350.147 246.047C349.874 245.896 349.496 245.732 349.013 245.555C348.534 245.372 348.119 245.192 347.769 245.015C347.422 244.832 347.153 244.611 346.962 244.352C346.775 244.092 346.682 243.755 346.682 243.34C346.682 242.706 346.937 242.221 347.447 241.884C347.962 241.542 348.637 241.371 349.471 241.371C349.922 241.371 350.343 241.417 350.735 241.508C351.132 241.594 351.501 241.713 351.843 241.863L351.46 242.772C351.15 242.64 350.82 242.529 350.469 242.438C350.118 242.346 349.76 242.301 349.396 242.301C348.871 242.301 348.468 242.387 348.186 242.561C347.908 242.734 347.769 242.971 347.769 243.271C347.769 243.504 347.832 243.695 347.96 243.846C348.092 243.996 348.302 244.137 348.589 244.27C348.876 244.402 349.254 244.557 349.724 244.734C350.193 244.908 350.599 245.088 350.94 245.274C351.282 245.457 351.544 245.68 351.727 245.944C351.913 246.204 352.007 246.539 352.007 246.949ZM356.252 248.207C356.439 248.207 356.63 248.191 356.826 248.159C357.022 248.127 357.182 248.089 357.305 248.043V248.925C357.173 248.984 356.988 249.034 356.751 249.075C356.519 249.116 356.291 249.137 356.067 249.137C355.671 249.137 355.311 249.068 354.987 248.932C354.664 248.79 354.404 248.553 354.208 248.221C354.017 247.888 353.921 247.428 353.921 246.84V242.396H352.854V241.843L353.928 241.398L354.379 239.771H355.062V241.508H357.257V242.396H355.062V246.806C355.062 247.275 355.17 247.626 355.384 247.858C355.603 248.091 355.892 248.207 356.252 248.207ZM362.63 249V239.006H363.792V249H362.63ZM374.504 241.371C375.329 241.371 375.951 241.588 376.37 242.021C376.789 242.449 376.999 243.139 376.999 244.092V249H375.878V244.146C375.878 243.54 375.746 243.087 375.481 242.786C375.222 242.481 374.834 242.328 374.319 242.328C373.595 242.328 373.068 242.538 372.74 242.957C372.412 243.376 372.248 243.994 372.248 244.81V249H371.12V244.146C371.12 243.741 371.061 243.404 370.942 243.135C370.828 242.866 370.655 242.665 370.423 242.533C370.195 242.396 369.906 242.328 369.555 242.328C369.058 242.328 368.659 242.431 368.358 242.636C368.058 242.841 367.839 243.146 367.702 243.552C367.57 243.953 367.504 244.447 367.504 245.035V249H366.369V241.508H367.285L367.456 242.567H367.518C367.668 242.308 367.857 242.089 368.085 241.911C368.313 241.733 368.568 241.599 368.851 241.508C369.133 241.417 369.434 241.371 369.753 241.371C370.323 241.371 370.799 241.478 371.182 241.692C371.569 241.902 371.849 242.223 372.022 242.656H372.084C372.33 242.223 372.667 241.902 373.096 241.692C373.524 241.478 373.993 241.371 374.504 241.371ZM382.133 241.385C383.026 241.385 383.689 241.585 384.122 241.986C384.555 242.387 384.771 243.028 384.771 243.907V249H383.944L383.726 247.893H383.671C383.461 248.166 383.243 248.396 383.015 248.583C382.787 248.765 382.522 248.904 382.222 249C381.925 249.091 381.561 249.137 381.128 249.137C380.672 249.137 380.267 249.057 379.911 248.897C379.56 248.738 379.282 248.496 379.077 248.173C378.877 247.849 378.776 247.439 378.776 246.942C378.776 246.195 379.073 245.621 379.665 245.22C380.257 244.819 381.16 244.6 382.372 244.563L383.664 244.509V244.051C383.664 243.404 383.525 242.95 383.247 242.69C382.969 242.431 382.577 242.301 382.071 242.301C381.679 242.301 381.306 242.358 380.95 242.472C380.595 242.586 380.257 242.72 379.938 242.875L379.59 242.014C379.927 241.84 380.314 241.692 380.752 241.569C381.189 241.446 381.65 241.385 382.133 241.385ZM383.65 245.309L382.509 245.356C381.575 245.393 380.916 245.546 380.533 245.814C380.15 246.083 379.959 246.464 379.959 246.956C379.959 247.384 380.089 247.701 380.349 247.906C380.608 248.111 380.952 248.214 381.381 248.214C382.046 248.214 382.591 248.029 383.015 247.66C383.438 247.291 383.65 246.737 383.65 245.999V245.309ZM389.201 252.363C388.217 252.363 387.458 252.179 386.925 251.81C386.392 251.445 386.125 250.932 386.125 250.271C386.125 249.802 386.273 249.401 386.569 249.068C386.87 248.736 387.285 248.515 387.813 248.405C387.618 248.314 387.449 248.177 387.308 247.995C387.171 247.813 387.103 247.603 387.103 247.366C387.103 247.093 387.178 246.854 387.328 246.648C387.483 246.439 387.718 246.238 388.032 246.047C387.64 245.887 387.321 245.618 387.075 245.24C386.834 244.857 386.713 244.413 386.713 243.907C386.713 243.369 386.825 242.911 387.048 242.533C387.271 242.15 387.595 241.859 388.019 241.658C388.442 241.458 388.955 241.357 389.557 241.357C389.689 241.357 389.821 241.364 389.953 241.378C390.09 241.387 390.22 241.403 390.343 241.426C390.466 241.444 390.573 241.467 390.664 241.494H393.234V242.226L391.854 242.396C391.99 242.574 392.104 242.788 392.195 243.039C392.286 243.29 392.332 243.568 392.332 243.873C392.332 244.62 392.079 245.215 391.573 245.657C391.067 246.095 390.372 246.313 389.488 246.313C389.279 246.313 389.064 246.295 388.846 246.259C388.622 246.382 388.451 246.519 388.333 246.669C388.219 246.819 388.162 246.993 388.162 247.188C388.162 247.334 388.205 247.451 388.292 247.537C388.383 247.624 388.513 247.688 388.682 247.729C388.85 247.765 389.053 247.783 389.29 247.783H390.609C391.425 247.783 392.049 247.954 392.482 248.296C392.92 248.638 393.139 249.137 393.139 249.793C393.139 250.622 392.801 251.258 392.127 251.7C391.452 252.142 390.477 252.363 389.201 252.363ZM389.235 251.475C389.855 251.475 390.368 251.411 390.773 251.283C391.184 251.16 391.489 250.98 391.689 250.743C391.895 250.511 391.997 250.233 391.997 249.909C391.997 249.608 391.929 249.381 391.792 249.226C391.655 249.075 391.455 248.975 391.19 248.925C390.926 248.87 390.603 248.843 390.22 248.843H388.921C388.584 248.843 388.29 248.895 388.039 249C387.788 249.105 387.595 249.26 387.458 249.465C387.326 249.67 387.26 249.925 387.26 250.23C387.26 250.636 387.431 250.944 387.772 251.153C388.114 251.368 388.602 251.475 389.235 251.475ZM389.529 245.486C390.072 245.486 390.479 245.35 390.753 245.076C391.026 244.803 391.163 244.404 391.163 243.88C391.163 243.319 391.024 242.9 390.746 242.622C390.468 242.34 390.058 242.198 389.516 242.198C388.996 242.198 388.595 242.344 388.312 242.636C388.035 242.923 387.896 243.344 387.896 243.9C387.896 244.411 388.037 244.803 388.319 245.076C388.602 245.35 389.005 245.486 389.529 245.486ZM397.596 241.371C398.234 241.371 398.781 241.512 399.236 241.795C399.692 242.077 400.041 242.474 400.282 242.984C400.524 243.49 400.645 244.083 400.645 244.762V245.466H395.47C395.483 246.345 395.702 247.015 396.126 247.476C396.55 247.936 397.147 248.166 397.917 248.166C398.391 248.166 398.81 248.123 399.175 248.036C399.539 247.95 399.918 247.822 400.31 247.653V248.651C399.931 248.82 399.555 248.943 399.182 249.021C398.812 249.098 398.375 249.137 397.869 249.137C397.149 249.137 396.52 248.991 395.982 248.699C395.449 248.403 395.035 247.97 394.738 247.4C394.442 246.831 394.294 246.133 394.294 245.309C394.294 244.502 394.428 243.805 394.697 243.217C394.971 242.624 395.354 242.169 395.846 241.85C396.342 241.531 396.926 241.371 397.596 241.371ZM397.582 242.301C396.976 242.301 396.493 242.499 396.133 242.896C395.773 243.292 395.559 243.846 395.49 244.557H399.455C399.451 244.11 399.38 243.718 399.243 243.381C399.111 243.039 398.908 242.775 398.635 242.588C398.361 242.396 398.01 242.301 397.582 242.301ZM409.47 243.6H412.286V244.529H409.47V247.428H408.533V244.529H405.717V243.6H408.533V240.688H409.47V243.6ZM423.593 249H418.028V239.006H423.593V240.031H419.19V243.265H423.34V244.276H419.19V247.975H423.593V249ZM428.877 249H427.708V240.031H424.563V239.006H432.008V240.031H428.877V249ZM436.15 241.385C437.044 241.385 437.707 241.585 438.14 241.986C438.573 242.387 438.789 243.028 438.789 243.907V249H437.962L437.743 247.893H437.688C437.479 248.166 437.26 248.396 437.032 248.583C436.804 248.765 436.54 248.904 436.239 249C435.943 249.091 435.578 249.137 435.146 249.137C434.69 249.137 434.284 249.057 433.929 248.897C433.578 248.738 433.3 248.496 433.095 248.173C432.894 247.849 432.794 247.439 432.794 246.942C432.794 246.195 433.09 245.621 433.683 245.22C434.275 244.819 435.177 244.6 436.39 244.563L437.682 244.509V244.051C437.682 243.404 437.543 242.95 437.265 242.69C436.987 242.431 436.595 242.301 436.089 242.301C435.697 242.301 435.323 242.358 434.968 242.472C434.612 242.586 434.275 242.72 433.956 242.875L433.607 242.014C433.945 241.84 434.332 241.692 434.77 241.569C435.207 241.446 435.667 241.385 436.15 241.385ZM437.668 245.309L436.526 245.356C435.592 245.393 434.934 245.546 434.551 245.814C434.168 246.083 433.977 246.464 433.977 246.956C433.977 247.384 434.106 247.701 434.366 247.906C434.626 248.111 434.97 248.214 435.398 248.214C436.064 248.214 436.608 248.029 437.032 247.66C437.456 247.291 437.668 246.737 437.668 245.999V245.309ZM443.219 252.363C442.234 252.363 441.476 252.179 440.942 251.81C440.409 251.445 440.143 250.932 440.143 250.271C440.143 249.802 440.291 249.401 440.587 249.068C440.888 248.736 441.302 248.515 441.831 248.405C441.635 248.314 441.466 248.177 441.325 247.995C441.188 247.813 441.12 247.603 441.12 247.366C441.12 247.093 441.195 246.854 441.346 246.648C441.501 246.439 441.735 246.238 442.05 246.047C441.658 245.887 441.339 245.618 441.093 245.24C440.851 244.857 440.73 244.413 440.73 243.907C440.73 243.369 440.842 242.911 441.065 242.533C441.289 242.15 441.612 241.859 442.036 241.658C442.46 241.458 442.973 241.357 443.574 241.357C443.706 241.357 443.839 241.364 443.971 241.378C444.107 241.387 444.237 241.403 444.36 241.426C444.483 241.444 444.59 241.467 444.682 241.494H447.252V242.226L445.871 242.396C446.008 242.574 446.122 242.788 446.213 243.039C446.304 243.29 446.35 243.568 446.35 243.873C446.35 244.62 446.097 245.215 445.591 245.657C445.085 246.095 444.39 246.313 443.506 246.313C443.296 246.313 443.082 246.295 442.863 246.259C442.64 246.382 442.469 246.519 442.351 246.669C442.237 246.819 442.18 246.993 442.18 247.188C442.18 247.334 442.223 247.451 442.31 247.537C442.401 247.624 442.531 247.688 442.699 247.729C442.868 247.765 443.071 247.783 443.308 247.783H444.627C445.443 247.783 446.067 247.954 446.5 248.296C446.938 248.638 447.156 249.137 447.156 249.793C447.156 250.622 446.819 251.258 446.145 251.7C445.47 252.142 444.495 252.363 443.219 252.363ZM443.253 251.475C443.873 251.475 444.385 251.411 444.791 251.283C445.201 251.16 445.507 250.98 445.707 250.743C445.912 250.511 446.015 250.233 446.015 249.909C446.015 249.608 445.946 249.381 445.81 249.226C445.673 249.075 445.472 248.975 445.208 248.925C444.944 248.87 444.62 248.843 444.237 248.843H442.938C442.601 248.843 442.307 248.895 442.057 249C441.806 249.105 441.612 249.26 441.476 249.465C441.343 249.67 441.277 249.925 441.277 250.23C441.277 250.636 441.448 250.944 441.79 251.153C442.132 251.368 442.619 251.475 443.253 251.475ZM443.547 245.486C444.089 245.486 444.497 245.35 444.771 245.076C445.044 244.803 445.181 244.404 445.181 243.88C445.181 243.319 445.042 242.9 444.764 242.622C444.486 242.34 444.076 242.198 443.533 242.198C443.014 242.198 442.613 242.344 442.33 242.636C442.052 242.923 441.913 243.344 441.913 243.9C441.913 244.411 442.054 244.803 442.337 245.076C442.619 245.35 443.023 245.486 443.547 245.486ZM453.5 238.363V241.542C453.5 241.724 453.495 241.909 453.486 242.096C453.477 242.278 453.461 242.447 453.438 242.602H453.514C453.669 242.337 453.865 242.116 454.102 241.938C454.343 241.756 454.617 241.619 454.922 241.528C455.227 241.433 455.551 241.385 455.893 241.385C456.494 241.385 456.995 241.48 457.396 241.672C457.802 241.863 458.105 242.16 458.306 242.561C458.511 242.962 458.613 243.481 458.613 244.119V249H457.492V244.194C457.492 243.57 457.349 243.103 457.062 242.793C456.779 242.483 456.344 242.328 455.756 242.328C455.2 242.328 454.756 242.435 454.423 242.649C454.095 242.859 453.858 243.169 453.712 243.579C453.571 243.989 453.5 244.491 453.5 245.083V249H452.365V238.363H453.5ZM463.836 241.371C464.474 241.371 465.021 241.512 465.477 241.795C465.932 242.077 466.281 242.474 466.522 242.984C466.764 243.49 466.885 244.083 466.885 244.762V245.466H461.71C461.724 246.345 461.942 247.015 462.366 247.476C462.79 247.936 463.387 248.166 464.157 248.166C464.631 248.166 465.05 248.123 465.415 248.036C465.78 247.95 466.158 247.822 466.55 247.653V248.651C466.172 248.82 465.796 248.943 465.422 249.021C465.053 249.098 464.615 249.137 464.109 249.137C463.389 249.137 462.76 248.991 462.223 248.699C461.689 248.403 461.275 247.97 460.979 247.4C460.682 246.831 460.534 246.133 460.534 245.309C460.534 244.502 460.669 243.805 460.938 243.217C461.211 242.624 461.594 242.169 462.086 241.85C462.583 241.531 463.166 241.371 463.836 241.371ZM463.822 242.301C463.216 242.301 462.733 242.499 462.373 242.896C462.013 243.292 461.799 243.846 461.73 244.557H465.695C465.691 244.11 465.62 243.718 465.483 243.381C465.351 243.039 465.148 242.775 464.875 242.588C464.602 242.396 464.251 242.301 463.822 242.301ZM471.615 241.385C472.508 241.385 473.172 241.585 473.604 241.986C474.037 242.387 474.254 243.028 474.254 243.907V249H473.427L473.208 247.893H473.153C472.944 248.166 472.725 248.396 472.497 248.583C472.269 248.765 472.005 248.904 471.704 249C471.408 249.091 471.043 249.137 470.61 249.137C470.155 249.137 469.749 249.057 469.394 248.897C469.043 248.738 468.765 248.496 468.56 248.173C468.359 247.849 468.259 247.439 468.259 246.942C468.259 246.195 468.555 245.621 469.147 245.22C469.74 244.819 470.642 244.6 471.854 244.563L473.146 244.509V244.051C473.146 243.404 473.007 242.95 472.729 242.69C472.451 242.431 472.06 242.301 471.554 242.301C471.162 242.301 470.788 242.358 470.433 242.472C470.077 242.586 469.74 242.72 469.421 242.875L469.072 242.014C469.41 241.84 469.797 241.692 470.234 241.569C470.672 241.446 471.132 241.385 471.615 241.385ZM473.133 245.309L471.991 245.356C471.057 245.393 470.398 245.546 470.016 245.814C469.633 246.083 469.441 246.464 469.441 246.956C469.441 247.384 469.571 247.701 469.831 247.906C470.091 248.111 470.435 248.214 470.863 248.214C471.529 248.214 472.073 248.029 472.497 247.66C472.921 247.291 473.133 246.737 473.133 245.999V245.309ZM479.258 249.137C478.31 249.137 477.558 248.813 477.002 248.166C476.451 247.519 476.175 246.557 476.175 245.281C476.175 243.992 476.457 243.019 477.022 242.362C477.588 241.701 478.34 241.371 479.278 241.371C479.675 241.371 480.021 241.424 480.317 241.528C480.614 241.633 480.869 241.774 481.083 241.952C481.297 242.125 481.477 242.324 481.623 242.547H481.705C481.687 242.406 481.669 242.212 481.65 241.966C481.632 241.72 481.623 241.519 481.623 241.364V238.363H482.758V249H481.842L481.671 247.934H481.623C481.482 248.157 481.302 248.36 481.083 248.542C480.869 248.724 480.611 248.87 480.311 248.979C480.014 249.084 479.663 249.137 479.258 249.137ZM479.436 248.193C480.238 248.193 480.805 247.965 481.138 247.51C481.47 247.054 481.637 246.377 481.637 245.479V245.274C481.637 244.322 481.477 243.59 481.158 243.08C480.844 242.57 480.27 242.314 479.436 242.314C478.738 242.314 478.216 242.583 477.87 243.121C477.524 243.654 477.351 244.383 477.351 245.309C477.351 246.229 477.521 246.94 477.863 247.441C478.21 247.943 478.734 248.193 479.436 248.193ZM488.049 241.371C488.687 241.371 489.234 241.512 489.689 241.795C490.145 242.077 490.494 242.474 490.735 242.984C490.977 243.49 491.098 244.083 491.098 244.762V245.466H485.923C485.937 246.345 486.155 247.015 486.579 247.476C487.003 247.936 487.6 248.166 488.37 248.166C488.844 248.166 489.263 248.123 489.628 248.036C489.993 247.95 490.371 247.822 490.763 247.653V248.651C490.384 248.82 490.008 248.943 489.635 249.021C489.266 249.098 488.828 249.137 488.322 249.137C487.602 249.137 486.973 248.991 486.436 248.699C485.902 248.403 485.488 247.97 485.191 247.4C484.895 246.831 484.747 246.133 484.747 245.309C484.747 244.502 484.882 243.805 485.15 243.217C485.424 242.624 485.807 242.169 486.299 241.85C486.796 241.531 487.379 241.371 488.049 241.371ZM488.035 242.301C487.429 242.301 486.946 242.499 486.586 242.896C486.226 243.292 486.012 243.846 485.943 244.557H489.908C489.904 244.11 489.833 243.718 489.696 243.381C489.564 243.039 489.361 242.775 489.088 242.588C488.814 242.396 488.464 242.301 488.035 242.301ZM496.43 241.371C496.58 241.371 496.737 241.38 496.901 241.398C497.065 241.412 497.211 241.433 497.339 241.46L497.195 242.513C497.072 242.481 496.936 242.456 496.785 242.438C496.635 242.419 496.493 242.41 496.361 242.41C496.061 242.41 495.776 242.472 495.507 242.595C495.243 242.713 495.01 242.886 494.81 243.114C494.609 243.338 494.452 243.609 494.338 243.928C494.224 244.242 494.167 244.593 494.167 244.98V249H493.025V241.508H493.969L494.092 242.889H494.14C494.295 242.611 494.481 242.358 494.7 242.13C494.919 241.897 495.172 241.713 495.459 241.576C495.751 241.439 496.074 241.371 496.43 241.371Z" fill="#267F41"/>
<path d="M646.075 260.104C647.01 259.449 647.01 258.064 646.075 257.409L642.364 254.812C641.274 254.049 639.776 254.828 639.776 256.159L639.776 261.354C639.776 262.685 641.274 263.465 642.364 262.702L646.075 260.104Z" fill="#267F41"/>
<path fill-rule="evenodd" clip-rule="evenodd" d="M154 258.257L639.776 258.257L639.776 259.257L154 259.257L154 258.257Z" fill="#267F41"/>
</g>
<g clip-path="url(#clip2_4029_60901)">
<rect width="206" height="19" transform="translate(298 173)" fill="white"/>
<path d="M313.609 188H307.061V187.05L309.733 184.336C310.23 183.835 310.647 183.388 310.984 182.996C311.326 182.604 311.586 182.219 311.764 181.841C311.941 181.458 312.03 181.039 312.03 180.583C312.03 180.018 311.862 179.587 311.524 179.291C311.192 178.99 310.752 178.84 310.205 178.84C309.727 178.84 309.303 178.922 308.934 179.086C308.564 179.25 308.186 179.482 307.799 179.783L307.19 179.018C307.455 178.794 307.742 178.596 308.052 178.423C308.366 178.25 308.701 178.113 309.057 178.013C309.417 177.912 309.799 177.862 310.205 177.862C310.82 177.862 311.351 177.969 311.798 178.184C312.244 178.398 312.589 178.703 312.83 179.1C313.076 179.496 313.199 179.968 313.199 180.515C313.199 181.043 313.094 181.535 312.885 181.991C312.675 182.442 312.381 182.891 312.003 183.338C311.625 183.78 311.183 184.249 310.677 184.746L308.503 186.913V186.961H313.609V188ZM321.676 182.989C321.676 183.8 321.614 184.525 321.491 185.163C321.368 185.801 321.174 186.341 320.91 186.783C320.646 187.225 320.304 187.562 319.885 187.795C319.465 188.023 318.962 188.137 318.374 188.137C317.631 188.137 317.016 187.934 316.528 187.528C316.045 187.123 315.683 186.537 315.441 185.771C315.204 185.001 315.086 184.074 315.086 182.989C315.086 181.923 315.193 181.007 315.407 180.241C315.626 179.471 315.977 178.881 316.46 178.471C316.943 178.056 317.581 177.849 318.374 177.849C319.126 177.849 319.746 178.054 320.233 178.464C320.721 178.869 321.083 179.457 321.32 180.228C321.557 180.993 321.676 181.914 321.676 182.989ZM316.228 182.989C316.228 183.919 316.298 184.694 316.439 185.313C316.581 185.933 316.809 186.398 317.123 186.708C317.442 187.013 317.859 187.166 318.374 187.166C318.889 187.166 319.304 187.013 319.618 186.708C319.937 186.403 320.167 185.94 320.309 185.32C320.454 184.701 320.527 183.924 320.527 182.989C320.527 182.073 320.457 181.308 320.315 180.692C320.174 180.073 319.946 179.608 319.632 179.298C319.317 178.983 318.898 178.826 318.374 178.826C317.85 178.826 317.431 178.983 317.116 179.298C316.802 179.608 316.574 180.073 316.433 180.692C316.296 181.308 316.228 182.073 316.228 182.989ZM329.688 182.989C329.688 183.8 329.626 184.525 329.503 185.163C329.38 185.801 329.186 186.341 328.922 186.783C328.658 187.225 328.316 187.562 327.896 187.795C327.477 188.023 326.974 188.137 326.386 188.137C325.643 188.137 325.028 187.934 324.54 187.528C324.057 187.123 323.695 186.537 323.453 185.771C323.216 185.001 323.098 184.074 323.098 182.989C323.098 181.923 323.205 181.007 323.419 180.241C323.638 179.471 323.989 178.881 324.472 178.471C324.955 178.056 325.593 177.849 326.386 177.849C327.138 177.849 327.757 178.054 328.245 178.464C328.733 178.869 329.095 179.457 329.332 180.228C329.569 180.993 329.688 181.914 329.688 182.989ZM324.239 182.989C324.239 183.919 324.31 184.694 324.451 185.313C324.592 185.933 324.82 186.398 325.135 186.708C325.454 187.013 325.871 187.166 326.386 187.166C326.901 187.166 327.315 187.013 327.63 186.708C327.949 186.403 328.179 185.94 328.32 185.32C328.466 184.701 328.539 183.924 328.539 182.989C328.539 182.073 328.468 181.308 328.327 180.692C328.186 180.073 327.958 179.608 327.644 179.298C327.329 178.983 326.91 178.826 326.386 178.826C325.862 178.826 325.442 178.983 325.128 179.298C324.813 179.608 324.586 180.073 324.444 180.692C324.308 181.308 324.239 182.073 324.239 182.989ZM344.077 182.989C344.077 183.759 343.979 184.461 343.783 185.095C343.587 185.724 343.296 186.266 342.908 186.722C342.525 187.173 342.049 187.521 341.479 187.768C340.91 188.014 340.249 188.137 339.497 188.137C338.722 188.137 338.046 188.014 337.467 187.768C336.893 187.521 336.414 187.171 336.031 186.715C335.653 186.259 335.368 185.715 335.177 185.081C334.99 184.448 334.896 183.746 334.896 182.976C334.896 181.955 335.065 181.059 335.402 180.289C335.74 179.519 336.25 178.92 336.934 178.491C337.622 178.063 338.483 177.849 339.518 177.849C340.507 177.849 341.338 178.061 342.013 178.484C342.692 178.908 343.204 179.505 343.551 180.275C343.902 181.041 344.077 181.946 344.077 182.989ZM336.12 182.989C336.12 183.837 336.241 184.571 336.482 185.19C336.724 185.81 337.093 186.289 337.59 186.626C338.091 186.963 338.727 187.132 339.497 187.132C340.272 187.132 340.905 186.963 341.397 186.626C341.894 186.289 342.261 185.81 342.498 185.19C342.735 184.571 342.854 183.837 342.854 182.989C342.854 181.7 342.582 180.692 342.04 179.968C341.502 179.239 340.661 178.874 339.518 178.874C338.743 178.874 338.105 179.04 337.604 179.373C337.102 179.706 336.729 180.18 336.482 180.795C336.241 181.406 336.12 182.137 336.12 182.989ZM353.511 188H352.137L348.534 183.14L347.468 184.097V188H346.306V178.006H347.468V182.989C347.728 182.693 347.994 182.399 348.268 182.107C348.541 181.811 348.812 181.513 349.081 181.212L352 178.006H353.36L349.382 182.34L353.511 188ZM358.515 188V178.006H359.677V188H358.515ZM370.389 180.371C371.214 180.371 371.836 180.588 372.255 181.021C372.674 181.449 372.884 182.139 372.884 183.092V188H371.763V183.146C371.763 182.54 371.631 182.087 371.366 181.786C371.106 181.481 370.719 181.328 370.204 181.328C369.479 181.328 368.953 181.538 368.625 181.957C368.297 182.376 368.133 182.994 368.133 183.81V188H367.005V183.146C367.005 182.741 366.946 182.404 366.827 182.135C366.713 181.866 366.54 181.665 366.308 181.533C366.08 181.396 365.79 181.328 365.439 181.328C364.943 181.328 364.544 181.431 364.243 181.636C363.942 181.841 363.724 182.146 363.587 182.552C363.455 182.953 363.389 183.447 363.389 184.035V188H362.254V180.508H363.17L363.341 181.567H363.402C363.553 181.308 363.742 181.089 363.97 180.911C364.198 180.733 364.453 180.599 364.735 180.508C365.018 180.417 365.319 180.371 365.638 180.371C366.207 180.371 366.684 180.478 367.066 180.692C367.454 180.902 367.734 181.223 367.907 181.656H367.969C368.215 181.223 368.552 180.902 368.98 180.692C369.409 180.478 369.878 180.371 370.389 180.371ZM378.018 180.385C378.911 180.385 379.574 180.585 380.007 180.986C380.44 181.387 380.656 182.028 380.656 182.907V188H379.829L379.61 186.893H379.556C379.346 187.166 379.127 187.396 378.899 187.583C378.672 187.765 378.407 187.904 378.106 188C377.81 188.091 377.446 188.137 377.013 188.137C376.557 188.137 376.151 188.057 375.796 187.897C375.445 187.738 375.167 187.496 374.962 187.173C374.761 186.849 374.661 186.439 374.661 185.942C374.661 185.195 374.957 184.621 375.55 184.22C376.142 183.819 377.045 183.6 378.257 183.563L379.549 183.509V183.051C379.549 182.404 379.41 181.95 379.132 181.69C378.854 181.431 378.462 181.301 377.956 181.301C377.564 181.301 377.19 181.358 376.835 181.472C376.479 181.586 376.142 181.72 375.823 181.875L375.475 181.014C375.812 180.84 376.199 180.692 376.637 180.569C377.074 180.446 377.535 180.385 378.018 180.385ZM379.535 184.309L378.394 184.356C377.459 184.393 376.801 184.546 376.418 184.814C376.035 185.083 375.844 185.464 375.844 185.956C375.844 186.384 375.974 186.701 376.233 186.906C376.493 187.111 376.837 187.214 377.266 187.214C377.931 187.214 378.476 187.029 378.899 186.66C379.323 186.291 379.535 185.737 379.535 184.999V184.309ZM385.086 191.363C384.102 191.363 383.343 191.179 382.81 190.81C382.276 190.445 382.01 189.932 382.01 189.271C382.01 188.802 382.158 188.401 382.454 188.068C382.755 187.736 383.17 187.515 383.698 187.405C383.502 187.314 383.334 187.177 383.192 186.995C383.056 186.813 382.987 186.603 382.987 186.366C382.987 186.093 383.062 185.854 383.213 185.648C383.368 185.439 383.603 185.238 383.917 185.047C383.525 184.887 383.206 184.618 382.96 184.24C382.718 183.857 382.598 183.413 382.598 182.907C382.598 182.369 382.709 181.911 382.933 181.533C383.156 181.15 383.479 180.859 383.903 180.658C384.327 180.458 384.84 180.357 385.441 180.357C385.574 180.357 385.706 180.364 385.838 180.378C385.975 180.387 386.104 180.403 386.228 180.426C386.351 180.444 386.458 180.467 386.549 180.494H389.119V181.226L387.738 181.396C387.875 181.574 387.989 181.788 388.08 182.039C388.171 182.29 388.217 182.568 388.217 182.873C388.217 183.62 387.964 184.215 387.458 184.657C386.952 185.095 386.257 185.313 385.373 185.313C385.163 185.313 384.949 185.295 384.73 185.259C384.507 185.382 384.336 185.519 384.218 185.669C384.104 185.819 384.047 185.993 384.047 186.188C384.047 186.334 384.09 186.451 384.177 186.537C384.268 186.624 384.398 186.688 384.566 186.729C384.735 186.765 384.938 186.783 385.175 186.783H386.494C387.31 186.783 387.934 186.954 388.367 187.296C388.805 187.638 389.023 188.137 389.023 188.793C389.023 189.622 388.686 190.258 388.012 190.7C387.337 191.142 386.362 191.363 385.086 191.363ZM385.12 190.475C385.74 190.475 386.253 190.411 386.658 190.283C387.068 190.16 387.374 189.98 387.574 189.743C387.779 189.511 387.882 189.233 387.882 188.909C387.882 188.608 387.813 188.381 387.677 188.226C387.54 188.075 387.34 187.975 387.075 187.925C386.811 187.87 386.487 187.843 386.104 187.843H384.806C384.468 187.843 384.174 187.895 383.924 188C383.673 188.105 383.479 188.26 383.343 188.465C383.211 188.67 383.145 188.925 383.145 189.23C383.145 189.636 383.315 189.944 383.657 190.153C383.999 190.368 384.487 190.475 385.12 190.475ZM385.414 184.486C385.956 184.486 386.364 184.35 386.638 184.076C386.911 183.803 387.048 183.404 387.048 182.88C387.048 182.319 386.909 181.9 386.631 181.622C386.353 181.34 385.943 181.198 385.4 181.198C384.881 181.198 384.48 181.344 384.197 181.636C383.919 181.923 383.78 182.344 383.78 182.9C383.78 183.411 383.922 183.803 384.204 184.076C384.487 184.35 384.89 184.486 385.414 184.486ZM393.48 180.371C394.118 180.371 394.665 180.512 395.121 180.795C395.577 181.077 395.925 181.474 396.167 181.984C396.409 182.49 396.529 183.083 396.529 183.762V184.466H391.354C391.368 185.345 391.587 186.015 392.011 186.476C392.435 186.936 393.032 187.166 393.802 187.166C394.276 187.166 394.695 187.123 395.06 187.036C395.424 186.95 395.802 186.822 396.194 186.653V187.651C395.816 187.82 395.44 187.943 395.066 188.021C394.697 188.098 394.26 188.137 393.754 188.137C393.034 188.137 392.405 187.991 391.867 187.699C391.334 187.403 390.919 186.97 390.623 186.4C390.327 185.831 390.179 185.133 390.179 184.309C390.179 183.502 390.313 182.805 390.582 182.217C390.855 181.624 391.238 181.169 391.73 180.85C392.227 180.531 392.811 180.371 393.48 180.371ZM393.467 181.301C392.861 181.301 392.378 181.499 392.018 181.896C391.658 182.292 391.443 182.846 391.375 183.557H395.34C395.335 183.11 395.265 182.718 395.128 182.381C394.996 182.039 394.793 181.775 394.52 181.588C394.246 181.396 393.895 181.301 393.467 181.301ZM405.156 177.849C405.648 177.849 406.072 177.935 406.428 178.108C406.788 178.277 407.063 178.521 407.255 178.84C407.451 179.159 407.549 179.544 407.549 179.995C407.549 180.588 407.355 181.089 406.968 181.499C406.585 181.909 406.097 182.283 405.505 182.62L408.28 185.313C408.531 185.022 408.736 184.685 408.896 184.302C409.055 183.914 409.189 183.495 409.299 183.044H410.447C410.301 183.646 410.112 184.199 409.88 184.705C409.652 185.211 409.365 185.655 409.019 186.038L411.021 188H409.483L408.246 186.79C407.954 187.059 407.64 187.296 407.303 187.501C406.97 187.701 406.599 187.859 406.188 187.973C405.783 188.082 405.318 188.137 404.794 188.137C404.156 188.137 403.602 188.032 403.133 187.822C402.663 187.613 402.299 187.305 402.039 186.899C401.784 186.494 401.656 185.997 401.656 185.409C401.656 184.926 401.745 184.511 401.923 184.165C402.101 183.819 402.354 183.511 402.682 183.242C403.01 182.973 403.402 182.711 403.857 182.456C403.643 182.219 403.44 181.98 403.249 181.738C403.058 181.492 402.903 181.23 402.784 180.952C402.666 180.67 402.606 180.36 402.606 180.022C402.606 179.567 402.709 179.177 402.914 178.854C403.124 178.53 403.418 178.282 403.796 178.108C404.179 177.935 404.632 177.849 405.156 177.849ZM404.541 183.174C404.186 183.379 403.88 183.582 403.625 183.782C403.374 183.983 403.181 184.208 403.044 184.459C402.912 184.71 402.846 185.013 402.846 185.368C402.846 185.901 403.026 186.33 403.386 186.653C403.746 186.972 404.227 187.132 404.828 187.132C405.448 187.132 405.974 187.029 406.407 186.824C406.845 186.619 407.216 186.371 407.521 186.079L404.541 183.174ZM405.115 178.785C404.701 178.785 404.363 178.895 404.104 179.113C403.848 179.327 403.721 179.628 403.721 180.016C403.721 180.362 403.814 180.681 404.001 180.973C404.188 181.264 404.454 181.588 404.801 181.943C405.37 181.629 405.783 181.326 406.038 181.034C406.298 180.738 406.428 180.392 406.428 179.995C406.428 179.635 406.307 179.343 406.065 179.12C405.828 178.897 405.512 178.785 405.115 178.785ZM421.665 188H416.101V178.006H421.665V179.031H417.263V182.265H421.412V183.276H417.263V186.975H421.665V188ZM426.949 188H425.78V179.031H422.636V178.006H430.08V179.031H426.949V188ZM434.223 180.385C435.116 180.385 435.779 180.585 436.212 180.986C436.645 181.387 436.861 182.028 436.861 182.907V188H436.034L435.815 186.893H435.761C435.551 187.166 435.332 187.396 435.104 187.583C434.877 187.765 434.612 187.904 434.312 188C434.015 188.091 433.651 188.137 433.218 188.137C432.762 188.137 432.356 188.057 432.001 187.897C431.65 187.738 431.372 187.496 431.167 187.173C430.966 186.849 430.866 186.439 430.866 185.942C430.866 185.195 431.162 184.621 431.755 184.22C432.347 183.819 433.25 183.6 434.462 183.563L435.754 183.509V183.051C435.754 182.404 435.615 181.95 435.337 181.69C435.059 181.431 434.667 181.301 434.161 181.301C433.769 181.301 433.396 181.358 433.04 181.472C432.685 181.586 432.347 181.72 432.028 181.875L431.68 181.014C432.017 180.84 432.404 180.692 432.842 180.569C433.279 180.446 433.74 180.385 434.223 180.385ZM435.74 184.309L434.599 184.356C433.664 184.393 433.006 184.546 432.623 184.814C432.24 185.083 432.049 185.464 432.049 185.956C432.049 186.384 432.179 186.701 432.438 186.906C432.698 187.111 433.042 187.214 433.471 187.214C434.136 187.214 434.681 187.029 435.104 186.66C435.528 186.291 435.74 185.737 435.74 184.999V184.309ZM441.291 191.363C440.307 191.363 439.548 191.179 439.015 190.81C438.481 190.445 438.215 189.932 438.215 189.271C438.215 188.802 438.363 188.401 438.659 188.068C438.96 187.736 439.375 187.515 439.903 187.405C439.707 187.314 439.539 187.177 439.397 186.995C439.261 186.813 439.192 186.603 439.192 186.366C439.192 186.093 439.268 185.854 439.418 185.648C439.573 185.439 439.808 185.238 440.122 185.047C439.73 184.887 439.411 184.618 439.165 184.24C438.924 183.857 438.803 183.413 438.803 182.907C438.803 182.369 438.914 181.911 439.138 181.533C439.361 181.15 439.685 180.859 440.108 180.658C440.532 180.458 441.045 180.357 441.646 180.357C441.779 180.357 441.911 180.364 442.043 180.378C442.18 180.387 442.31 180.403 442.433 180.426C442.556 180.444 442.663 180.467 442.754 180.494H445.324V181.226L443.943 181.396C444.08 181.574 444.194 181.788 444.285 182.039C444.376 182.29 444.422 182.568 444.422 182.873C444.422 183.62 444.169 184.215 443.663 184.657C443.157 185.095 442.462 185.313 441.578 185.313C441.368 185.313 441.154 185.295 440.936 185.259C440.712 185.382 440.541 185.519 440.423 185.669C440.309 185.819 440.252 185.993 440.252 186.188C440.252 186.334 440.295 186.451 440.382 186.537C440.473 186.624 440.603 186.688 440.771 186.729C440.94 186.765 441.143 186.783 441.38 186.783H442.699C443.515 186.783 444.139 186.954 444.572 187.296C445.01 187.638 445.229 188.137 445.229 188.793C445.229 189.622 444.891 190.258 444.217 190.7C443.542 191.142 442.567 191.363 441.291 191.363ZM441.325 190.475C441.945 190.475 442.458 190.411 442.863 190.283C443.273 190.16 443.579 189.98 443.779 189.743C443.984 189.511 444.087 189.233 444.087 188.909C444.087 188.608 444.019 188.381 443.882 188.226C443.745 188.075 443.545 187.975 443.28 187.925C443.016 187.87 442.692 187.843 442.31 187.843H441.011C440.674 187.843 440.38 187.895 440.129 188C439.878 188.105 439.685 188.26 439.548 188.465C439.416 188.67 439.35 188.925 439.35 189.23C439.35 189.636 439.521 189.944 439.862 190.153C440.204 190.368 440.692 190.475 441.325 190.475ZM441.619 184.486C442.161 184.486 442.569 184.35 442.843 184.076C443.116 183.803 443.253 183.404 443.253 182.88C443.253 182.319 443.114 181.9 442.836 181.622C442.558 181.34 442.148 181.198 441.605 181.198C441.086 181.198 440.685 181.344 440.402 181.636C440.124 181.923 439.985 182.344 439.985 182.9C439.985 183.411 440.127 183.803 440.409 184.076C440.692 184.35 441.095 184.486 441.619 184.486ZM451.572 177.363V180.542C451.572 180.724 451.568 180.909 451.559 181.096C451.549 181.278 451.534 181.447 451.511 181.602H451.586C451.741 181.337 451.937 181.116 452.174 180.938C452.415 180.756 452.689 180.619 452.994 180.528C453.299 180.433 453.623 180.385 453.965 180.385C454.566 180.385 455.068 180.48 455.469 180.672C455.874 180.863 456.177 181.16 456.378 181.561C456.583 181.962 456.686 182.481 456.686 183.119V188H455.564V183.194C455.564 182.57 455.421 182.103 455.134 181.793C454.851 181.483 454.416 181.328 453.828 181.328C453.272 181.328 452.828 181.435 452.495 181.649C452.167 181.859 451.93 182.169 451.784 182.579C451.643 182.989 451.572 183.491 451.572 184.083V188H450.438V177.363H451.572ZM461.908 180.371C462.546 180.371 463.093 180.512 463.549 180.795C464.005 181.077 464.353 181.474 464.595 181.984C464.836 182.49 464.957 183.083 464.957 183.762V184.466H459.782C459.796 185.345 460.015 186.015 460.438 186.476C460.862 186.936 461.459 187.166 462.229 187.166C462.703 187.166 463.123 187.123 463.487 187.036C463.852 186.95 464.23 186.822 464.622 186.653V187.651C464.244 187.82 463.868 187.943 463.494 188.021C463.125 188.098 462.688 188.137 462.182 188.137C461.462 188.137 460.833 187.991 460.295 187.699C459.762 187.403 459.347 186.97 459.051 186.4C458.755 185.831 458.606 185.133 458.606 184.309C458.606 183.502 458.741 182.805 459.01 182.217C459.283 181.624 459.666 181.169 460.158 180.85C460.655 180.531 461.238 180.371 461.908 180.371ZM461.895 181.301C461.288 181.301 460.805 181.499 460.445 181.896C460.085 182.292 459.871 182.846 459.803 183.557H463.768C463.763 183.11 463.692 182.718 463.556 182.381C463.424 182.039 463.221 181.775 462.947 181.588C462.674 181.396 462.323 181.301 461.895 181.301ZM469.688 180.385C470.581 180.385 471.244 180.585 471.677 180.986C472.11 181.387 472.326 182.028 472.326 182.907V188H471.499L471.28 186.893H471.226C471.016 187.166 470.797 187.396 470.569 187.583C470.341 187.765 470.077 187.904 469.776 188C469.48 188.091 469.116 188.137 468.683 188.137C468.227 188.137 467.821 188.057 467.466 187.897C467.115 187.738 466.837 187.496 466.632 187.173C466.431 186.849 466.331 186.439 466.331 185.942C466.331 185.195 466.627 184.621 467.22 184.22C467.812 183.819 468.715 183.6 469.927 183.563L471.219 183.509V183.051C471.219 182.404 471.08 181.95 470.802 181.69C470.524 181.431 470.132 181.301 469.626 181.301C469.234 181.301 468.86 181.358 468.505 181.472C468.149 181.586 467.812 181.72 467.493 181.875L467.145 181.014C467.482 180.84 467.869 180.692 468.307 180.569C468.744 180.446 469.204 180.385 469.688 180.385ZM471.205 184.309L470.063 184.356C469.129 184.393 468.471 184.546 468.088 184.814C467.705 185.083 467.514 185.464 467.514 185.956C467.514 186.384 467.644 186.701 467.903 186.906C468.163 187.111 468.507 187.214 468.936 187.214C469.601 187.214 470.146 187.029 470.569 186.66C470.993 186.291 471.205 185.737 471.205 184.999V184.309ZM477.33 188.137C476.382 188.137 475.63 187.813 475.074 187.166C474.523 186.519 474.247 185.557 474.247 184.281C474.247 182.992 474.53 182.019 475.095 181.362C475.66 180.701 476.412 180.371 477.351 180.371C477.747 180.371 478.093 180.424 478.39 180.528C478.686 180.633 478.941 180.774 479.155 180.952C479.369 181.125 479.549 181.324 479.695 181.547H479.777C479.759 181.406 479.741 181.212 479.723 180.966C479.704 180.72 479.695 180.519 479.695 180.364V177.363H480.83V188H479.914L479.743 186.934H479.695C479.554 187.157 479.374 187.36 479.155 187.542C478.941 187.724 478.684 187.87 478.383 187.979C478.087 188.084 477.736 188.137 477.33 188.137ZM477.508 187.193C478.31 187.193 478.877 186.965 479.21 186.51C479.543 186.054 479.709 185.377 479.709 184.479V184.274C479.709 183.322 479.549 182.59 479.23 182.08C478.916 181.57 478.342 181.314 477.508 181.314C476.811 181.314 476.289 181.583 475.942 182.121C475.596 182.654 475.423 183.383 475.423 184.309C475.423 185.229 475.594 185.94 475.936 186.441C476.282 186.943 476.806 187.193 477.508 187.193ZM486.121 180.371C486.759 180.371 487.306 180.512 487.762 180.795C488.217 181.077 488.566 181.474 488.808 181.984C489.049 182.49 489.17 183.083 489.17 183.762V184.466H483.995C484.009 185.345 484.228 186.015 484.651 186.476C485.075 186.936 485.672 187.166 486.442 187.166C486.916 187.166 487.336 187.123 487.7 187.036C488.065 186.95 488.443 186.822 488.835 186.653V187.651C488.457 187.82 488.081 187.943 487.707 188.021C487.338 188.098 486.9 188.137 486.395 188.137C485.674 188.137 485.046 187.991 484.508 187.699C483.975 187.403 483.56 186.97 483.264 186.4C482.967 185.831 482.819 185.133 482.819 184.309C482.819 183.502 482.954 182.805 483.223 182.217C483.496 181.624 483.879 181.169 484.371 180.85C484.868 180.531 485.451 180.371 486.121 180.371ZM486.107 181.301C485.501 181.301 485.018 181.499 484.658 181.896C484.298 182.292 484.084 182.846 484.016 183.557H487.98C487.976 183.11 487.905 182.718 487.769 182.381C487.636 182.039 487.434 181.775 487.16 181.588C486.887 181.396 486.536 181.301 486.107 181.301ZM494.502 180.371C494.652 180.371 494.81 180.38 494.974 180.398C495.138 180.412 495.284 180.433 495.411 180.46L495.268 181.513C495.145 181.481 495.008 181.456 494.857 181.438C494.707 181.419 494.566 181.41 494.434 181.41C494.133 181.41 493.848 181.472 493.579 181.595C493.315 181.713 493.082 181.886 492.882 182.114C492.681 182.338 492.524 182.609 492.41 182.928C492.296 183.242 492.239 183.593 492.239 183.98V188H491.098V180.508H492.041L492.164 181.889H492.212C492.367 181.611 492.554 181.358 492.772 181.13C492.991 180.897 493.244 180.713 493.531 180.576C493.823 180.439 494.146 180.371 494.502 180.371Z" fill="#00338E"/>
<path fill-rule="evenodd" clip-rule="evenodd" d="M162.224 197.257L648 197.257L648 198.257L162.224 198.257L162.224 197.257Z" fill="#00338E"/>
<path d="M155.925 196.409C154.99 197.064 154.99 198.449 155.925 199.104L159.636 201.702C160.726 202.465 162.224 201.685 162.224 200.354V195.159C162.224 193.828 160.726 193.049 159.636 193.812L155.925 196.409Z" fill="#00338E"/>
</g>
<g clip-path="url(#clip3_4029_60901)">
<rect width="130" height="19" transform="translate(336 295)" fill="white"/>
<path d="M351.337 302.337C351.337 302.784 351.25 303.171 351.077 303.499C350.904 303.827 350.662 304.096 350.353 304.306C350.043 304.511 349.678 304.654 349.259 304.736V304.791C350.052 304.891 350.646 305.146 351.043 305.557C351.444 305.967 351.645 306.505 351.645 307.17C351.645 307.749 351.508 308.261 351.234 308.708C350.965 309.155 350.551 309.506 349.99 309.761C349.434 310.011 348.721 310.137 347.851 310.137C347.322 310.137 346.832 310.093 346.381 310.007C345.934 309.925 345.506 309.786 345.096 309.59V308.523C345.51 308.729 345.962 308.89 346.449 309.009C346.937 309.123 347.409 309.18 347.864 309.18C348.776 309.18 349.434 309 349.84 308.64C350.245 308.275 350.448 307.778 350.448 307.149C350.448 306.716 350.334 306.368 350.106 306.104C349.883 305.835 349.56 305.639 349.136 305.516C348.716 305.388 348.211 305.324 347.618 305.324H346.62V304.354H347.625C348.167 304.354 348.628 304.274 349.006 304.114C349.384 303.955 349.671 303.731 349.867 303.444C350.068 303.153 350.168 302.809 350.168 302.412C350.168 301.906 349.999 301.517 349.662 301.243C349.325 300.965 348.867 300.826 348.288 300.826C347.933 300.826 347.609 300.863 347.317 300.936C347.026 301.008 346.752 301.109 346.497 301.236C346.242 301.364 345.987 301.512 345.731 301.681L345.157 300.901C345.522 300.619 345.966 300.375 346.49 300.17C347.014 299.965 347.609 299.862 348.274 299.862C349.295 299.862 350.061 300.095 350.571 300.56C351.082 301.024 351.337 301.617 351.337 302.337ZM359.772 304.989C359.772 305.8 359.711 306.525 359.588 307.163C359.465 307.801 359.271 308.341 359.007 308.783C358.743 309.225 358.401 309.562 357.981 309.795C357.562 310.023 357.059 310.137 356.471 310.137C355.728 310.137 355.113 309.934 354.625 309.528C354.142 309.123 353.78 308.537 353.538 307.771C353.301 307.001 353.183 306.074 353.183 304.989C353.183 303.923 353.29 303.007 353.504 302.241C353.723 301.471 354.074 300.881 354.557 300.471C355.04 300.056 355.678 299.849 356.471 299.849C357.223 299.849 357.842 300.054 358.33 300.464C358.818 300.869 359.18 301.457 359.417 302.228C359.654 302.993 359.772 303.914 359.772 304.989ZM354.324 304.989C354.324 305.919 354.395 306.694 354.536 307.313C354.677 307.933 354.905 308.398 355.22 308.708C355.539 309.013 355.956 309.166 356.471 309.166C356.986 309.166 357.4 309.013 357.715 308.708C358.034 308.403 358.264 307.94 358.405 307.32C358.551 306.701 358.624 305.924 358.624 304.989C358.624 304.073 358.553 303.308 358.412 302.692C358.271 302.073 358.043 301.608 357.729 301.298C357.414 300.983 356.995 300.826 356.471 300.826C355.947 300.826 355.527 300.983 355.213 301.298C354.898 301.608 354.671 302.073 354.529 302.692C354.393 303.308 354.324 304.073 354.324 304.989ZM368.229 307.683H366.731V310H365.624V307.683H360.791V306.726L365.549 299.951H366.731V306.657H368.229V307.683ZM365.624 306.657V303.39C365.624 303.139 365.626 302.913 365.631 302.713C365.635 302.508 365.642 302.319 365.651 302.146C365.66 301.968 365.667 301.799 365.672 301.64C365.681 301.48 365.688 301.323 365.692 301.168H365.638C365.551 301.35 365.451 301.544 365.337 301.749C365.228 301.95 365.116 302.13 365.002 302.289L361.919 306.657H365.624ZM381.319 310H379.979L374.531 301.605H374.477C374.49 301.829 374.506 302.084 374.524 302.371C374.543 302.654 374.556 302.957 374.565 303.28C374.579 303.599 374.586 303.925 374.586 304.258V310H373.506V300.006H374.839L380.267 308.373H380.314C380.305 308.214 380.294 307.988 380.28 307.696C380.267 307.4 380.253 307.083 380.239 306.746C380.23 306.404 380.226 306.088 380.226 305.796V300.006H381.319V310ZM390.336 306.24C390.336 306.855 390.256 307.405 390.097 307.888C389.937 308.371 389.707 308.779 389.406 309.111C389.105 309.444 388.741 309.699 388.312 309.877C387.889 310.05 387.408 310.137 386.87 310.137C386.369 310.137 385.909 310.05 385.489 309.877C385.075 309.699 384.715 309.444 384.409 309.111C384.108 308.779 383.874 308.371 383.705 307.888C383.541 307.405 383.459 306.855 383.459 306.24C383.459 305.42 383.598 304.723 383.876 304.148C384.154 303.57 384.55 303.13 385.065 302.829C385.585 302.524 386.202 302.371 386.918 302.371C387.602 302.371 388.199 302.524 388.709 302.829C389.224 303.134 389.623 303.576 389.905 304.155C390.192 304.729 390.336 305.424 390.336 306.24ZM384.635 306.24C384.635 306.842 384.715 307.364 384.874 307.806C385.034 308.248 385.28 308.59 385.612 308.831C385.945 309.073 386.373 309.193 386.897 309.193C387.417 309.193 387.843 309.073 388.176 308.831C388.513 308.59 388.761 308.248 388.921 307.806C389.08 307.364 389.16 306.842 389.16 306.24C389.16 305.643 389.08 305.128 388.921 304.695C388.761 304.258 388.515 303.921 388.183 303.684C387.85 303.447 387.419 303.328 386.891 303.328C386.111 303.328 385.539 303.586 385.175 304.101C384.815 304.616 384.635 305.329 384.635 306.24ZM394.718 309.207C394.905 309.207 395.096 309.191 395.292 309.159C395.488 309.127 395.647 309.089 395.771 309.043V309.925C395.638 309.984 395.454 310.034 395.217 310.075C394.984 310.116 394.757 310.137 394.533 310.137C394.137 310.137 393.777 310.068 393.453 309.932C393.13 309.79 392.87 309.553 392.674 309.221C392.482 308.888 392.387 308.428 392.387 307.84V303.396H391.32V302.843L392.394 302.398L392.845 300.771H393.528V302.508H395.723V303.396H393.528V307.806C393.528 308.275 393.635 308.626 393.85 308.858C394.068 309.091 394.358 309.207 394.718 309.207ZM405.491 310L402.135 301.154H402.08C402.098 301.341 402.114 301.569 402.128 301.838C402.142 302.107 402.153 302.401 402.162 302.72C402.171 303.034 402.176 303.355 402.176 303.684V310H401.096V300.006H402.818L405.983 308.318H406.031L409.244 300.006H410.953V310H409.805V303.602C409.805 303.305 409.809 303.009 409.818 302.713C409.827 302.412 409.839 302.13 409.853 301.865C409.866 301.596 409.88 301.364 409.894 301.168H409.839L406.441 310H405.491ZM419.977 306.24C419.977 306.855 419.897 307.405 419.737 307.888C419.578 308.371 419.348 308.779 419.047 309.111C418.746 309.444 418.382 309.699 417.953 309.877C417.529 310.05 417.049 310.137 416.511 310.137C416.009 310.137 415.549 310.05 415.13 309.877C414.715 309.699 414.355 309.444 414.05 309.111C413.749 308.779 413.514 308.371 413.346 307.888C413.182 307.405 413.1 306.855 413.1 306.24C413.1 305.42 413.239 304.723 413.517 304.148C413.795 303.57 414.191 303.13 414.706 302.829C415.226 302.524 415.843 302.371 416.559 302.371C417.242 302.371 417.839 302.524 418.35 302.829C418.865 303.134 419.263 303.576 419.546 304.155C419.833 304.729 419.977 305.424 419.977 306.24ZM414.275 306.24C414.275 306.842 414.355 307.364 414.515 307.806C414.674 308.248 414.92 308.59 415.253 308.831C415.586 309.073 416.014 309.193 416.538 309.193C417.058 309.193 417.484 309.073 417.816 308.831C418.154 308.59 418.402 308.248 418.562 307.806C418.721 307.364 418.801 306.842 418.801 306.24C418.801 305.643 418.721 305.128 418.562 304.695C418.402 304.258 418.156 303.921 417.823 303.684C417.491 303.447 417.06 303.328 416.531 303.328C415.752 303.328 415.18 303.586 414.815 304.101C414.455 304.616 414.275 305.329 414.275 306.24ZM424.604 310.137C423.657 310.137 422.905 309.813 422.349 309.166C421.797 308.519 421.521 307.557 421.521 306.281C421.521 304.992 421.804 304.019 422.369 303.362C422.934 302.701 423.686 302.371 424.625 302.371C425.021 302.371 425.368 302.424 425.664 302.528C425.96 302.633 426.215 302.774 426.43 302.952C426.644 303.125 426.824 303.324 426.97 303.547H427.052C427.034 303.406 427.015 303.212 426.997 302.966C426.979 302.72 426.97 302.519 426.97 302.364V299.363H428.104V310H427.188L427.018 308.934H426.97C426.828 309.157 426.648 309.36 426.43 309.542C426.215 309.724 425.958 309.87 425.657 309.979C425.361 310.084 425.01 310.137 424.604 310.137ZM424.782 309.193C425.584 309.193 426.152 308.965 426.484 308.51C426.817 308.054 426.983 307.377 426.983 306.479V306.274C426.983 305.322 426.824 304.59 426.505 304.08C426.19 303.57 425.616 303.314 424.782 303.314C424.085 303.314 423.563 303.583 423.217 304.121C422.87 304.654 422.697 305.383 422.697 306.309C422.697 307.229 422.868 307.94 423.21 308.441C423.556 308.943 424.08 309.193 424.782 309.193ZM431.646 302.508V310H430.511V302.508H431.646ZM431.092 299.705C431.279 299.705 431.438 299.767 431.57 299.89C431.707 300.008 431.775 300.195 431.775 300.45C431.775 300.701 431.707 300.888 431.57 301.011C431.438 301.134 431.279 301.195 431.092 301.195C430.896 301.195 430.732 301.134 430.6 301.011C430.472 300.888 430.408 300.701 430.408 300.45C430.408 300.195 430.472 300.008 430.6 299.89C430.732 299.767 430.896 299.705 431.092 299.705ZM437.388 303.396H435.521V310H434.387V303.396H433.061V302.85L434.387 302.474V301.975C434.387 301.346 434.48 300.835 434.667 300.443C434.854 300.047 435.125 299.755 435.48 299.568C435.836 299.382 436.269 299.288 436.779 299.288C437.066 299.288 437.328 299.313 437.565 299.363C437.807 299.413 438.019 299.47 438.201 299.534L437.907 300.43C437.752 300.38 437.577 300.334 437.381 300.293C437.189 300.247 436.993 300.225 436.793 300.225C436.36 300.225 436.039 300.366 435.829 300.648C435.624 300.926 435.521 301.364 435.521 301.961V302.508H437.388V303.396ZM439.896 302.508V310H438.762V302.508H439.896ZM439.343 299.705C439.53 299.705 439.689 299.767 439.821 299.89C439.958 300.008 440.026 300.195 440.026 300.45C440.026 300.701 439.958 300.888 439.821 301.011C439.689 301.134 439.53 301.195 439.343 301.195C439.147 301.195 438.983 301.134 438.851 301.011C438.723 300.888 438.659 300.701 438.659 300.45C438.659 300.195 438.723 300.008 438.851 299.89C438.983 299.767 439.147 299.705 439.343 299.705ZM445.181 302.371C445.819 302.371 446.366 302.512 446.821 302.795C447.277 303.077 447.626 303.474 447.867 303.984C448.109 304.49 448.229 305.083 448.229 305.762V306.466H443.055C443.068 307.345 443.287 308.015 443.711 308.476C444.135 308.936 444.732 309.166 445.502 309.166C445.976 309.166 446.395 309.123 446.76 309.036C447.124 308.95 447.503 308.822 447.895 308.653V309.651C447.516 309.82 447.14 309.943 446.767 310.021C446.397 310.098 445.96 310.137 445.454 310.137C444.734 310.137 444.105 309.991 443.567 309.699C443.034 309.403 442.619 308.97 442.323 308.4C442.027 307.831 441.879 307.133 441.879 306.309C441.879 305.502 442.013 304.805 442.282 304.217C442.556 303.624 442.938 303.169 443.431 302.85C443.927 302.531 444.511 302.371 445.181 302.371ZM445.167 303.301C444.561 303.301 444.078 303.499 443.718 303.896C443.358 304.292 443.144 304.846 443.075 305.557H447.04C447.035 305.11 446.965 304.718 446.828 304.381C446.696 304.039 446.493 303.775 446.22 303.588C445.946 303.396 445.595 303.301 445.167 303.301ZM452.823 310.137C451.875 310.137 451.123 309.813 450.567 309.166C450.016 308.519 449.74 307.557 449.74 306.281C449.74 304.992 450.023 304.019 450.588 303.362C451.153 302.701 451.905 302.371 452.844 302.371C453.24 302.371 453.587 302.424 453.883 302.528C454.179 302.633 454.434 302.774 454.648 302.952C454.863 303.125 455.043 303.324 455.188 303.547H455.271C455.252 303.406 455.234 303.212 455.216 302.966C455.198 302.72 455.188 302.519 455.188 302.364V299.363H456.323V310H455.407L455.236 308.934H455.188C455.047 309.157 454.867 309.36 454.648 309.542C454.434 309.724 454.177 309.87 453.876 309.979C453.58 310.084 453.229 310.137 452.823 310.137ZM453.001 309.193C453.803 309.193 454.37 308.965 454.703 308.51C455.036 308.054 455.202 307.377 455.202 306.479V306.274C455.202 305.322 455.043 304.59 454.724 304.08C454.409 303.57 453.835 303.314 453.001 303.314C452.304 303.314 451.782 303.583 451.436 304.121C451.089 304.654 450.916 305.383 450.916 306.309C450.916 307.229 451.087 307.94 451.429 308.441C451.775 308.943 452.299 309.193 453.001 309.193Z" fill="#00338E"/>
<path fill-rule="evenodd" clip-rule="evenodd" d="M162.224 319.257L648 319.257L648 320.257L162.224 320.257L162.224 319.257Z" fill="#00338E"/>
<path d="M155.925 318.409C154.99 319.064 154.99 320.449 155.925 321.104L159.636 323.702C160.726 324.465 162.224 323.685 162.224 322.354L162.224 317.159C162.224 315.828 160.726 315.049 159.636 315.812L155.925 318.409Z" fill="#00338E"/>
</g>
<defs>
<clipPath id="clip0_4029_60901">
<rect width="494" height="30.5134" fill="white" transform="translate(154 112)"/>
</clipPath>
<clipPath id="clip1_4029_60901">
<rect width="494" height="30.5134" fill="white" transform="translate(154 234)"/>
</clipPath>
<clipPath id="clip2_4029_60901">
<rect width="494" height="30.5134" fill="white" transform="translate(154 173)"/>
</clipPath>
<clipPath id="clip3_4029_60901">
<rect width="494" height="30.5134" fill="white" transform="translate(154 295)"/>
</clipPath>
</defs>
</svg>
