<svg width="200" height="160" viewBox="0 0 200 160" fill="none" xmlns="http://www.w3.org/2000/svg">
<g clip-path="url(#clip0_4685_48980)">
<rect width="200" height="160" rx="4" fill="white"/>
<g filter="url(#filter0_d_4685_48980)">
<rect width="200" height="160" rx="4" fill="white" shape-rendering="crispEdges"/>
<g filter="url(#filter1_b_4685_48980)">
<rect x="12" y="12" width="176" height="136" rx="4" fill="white" fill-opacity="0.76"/>
</g>
<path d="M16.4497 19.5532H14.0439V18.29H16.4497C16.8687 18.29 17.2072 18.2223 17.4653 18.0869C17.7235 17.9515 17.9118 17.7653 18.0303 17.5283C18.153 17.2871 18.2144 17.012 18.2144 16.7031C18.2144 16.4111 18.153 16.1382 18.0303 15.8843C17.9118 15.6261 17.7235 15.4188 17.4653 15.2622C17.2072 15.1056 16.8687 15.0273 16.4497 15.0273H14.5327V23H12.9395V13.7578H16.4497C17.1649 13.7578 17.7721 13.8848 18.2715 14.1387C18.7751 14.3883 19.158 14.7354 19.4204 15.1797C19.6828 15.6198 19.814 16.1234 19.814 16.6904C19.814 17.2871 19.6828 17.7992 19.4204 18.2266C19.158 18.654 18.7751 18.9819 18.2715 19.2104C17.7721 19.439 17.1649 19.5532 16.4497 19.5532ZM22.876 17.4395V23H21.3462V16.1318H22.8062L22.876 17.4395ZM24.9771 16.0874L24.9644 17.5093C24.8713 17.4924 24.7697 17.4797 24.6597 17.4712C24.5539 17.4627 24.4481 17.4585 24.3423 17.4585C24.0799 17.4585 23.8493 17.4966 23.6504 17.5728C23.4515 17.6447 23.2843 17.7505 23.1489 17.8901C23.0177 18.0256 22.9162 18.1906 22.8442 18.3853C22.7723 18.5799 22.73 18.7979 22.7173 19.0391L22.3682 19.0645C22.3682 18.6328 22.4105 18.2329 22.4951 17.8647C22.5798 17.4966 22.7067 17.1729 22.876 16.8936C23.0495 16.6143 23.2653 16.3963 23.5234 16.2397C23.7858 16.0832 24.0884 16.0049 24.4312 16.0049C24.5243 16.0049 24.6237 16.0133 24.7295 16.0303C24.8395 16.0472 24.922 16.0662 24.9771 16.0874ZM25.7285 19.6421V19.4961C25.7285 19.001 25.8005 18.5418 25.9443 18.1187C26.0882 17.6912 26.2956 17.321 26.5664 17.0078C26.8415 16.6904 27.1758 16.445 27.5693 16.2715C27.9671 16.0938 28.4157 16.0049 28.915 16.0049C29.4186 16.0049 29.8672 16.0938 30.2607 16.2715C30.6585 16.445 30.995 16.6904 31.27 17.0078C31.5451 17.321 31.7546 17.6912 31.8984 18.1187C32.0423 18.5418 32.1143 19.001 32.1143 19.4961V19.6421C32.1143 20.1372 32.0423 20.5964 31.8984 21.0195C31.7546 21.4427 31.5451 21.813 31.27 22.1304C30.995 22.4435 30.6606 22.689 30.2671 22.8667C29.8735 23.0402 29.4271 23.127 28.9277 23.127C28.4242 23.127 27.9735 23.0402 27.5757 22.8667C27.1821 22.689 26.8478 22.4435 26.5728 22.1304C26.2977 21.813 26.0882 21.4427 25.9443 21.0195C25.8005 20.5964 25.7285 20.1372 25.7285 19.6421ZM27.2583 19.4961V19.6421C27.2583 19.951 27.29 20.243 27.3535 20.5181C27.417 20.7931 27.5164 21.0343 27.6519 21.2417C27.7873 21.4491 27.9608 21.612 28.1724 21.7305C28.384 21.849 28.6357 21.9082 28.9277 21.9082C29.2113 21.9082 29.4567 21.849 29.6641 21.7305C29.8757 21.612 30.0492 21.4491 30.1846 21.2417C30.32 21.0343 30.4194 20.7931 30.4829 20.5181C30.5506 20.243 30.5845 19.951 30.5845 19.6421V19.4961C30.5845 19.1914 30.5506 18.9036 30.4829 18.6328C30.4194 18.3577 30.3179 18.1144 30.1782 17.9028C30.0428 17.6912 29.8693 17.5262 29.6577 17.4077C29.4504 17.285 29.2028 17.2236 28.915 17.2236C28.6273 17.2236 28.3776 17.285 28.166 17.4077C27.9587 17.5262 27.7873 17.6912 27.6519 17.9028C27.5164 18.1144 27.417 18.3577 27.3535 18.6328C27.29 18.9036 27.2583 19.1914 27.2583 19.4961ZM38.0454 16.1318H39.4355V22.8096C39.4355 23.4274 39.3044 23.9521 39.042 24.3838C38.7796 24.8154 38.4136 25.1434 37.9438 25.3677C37.4741 25.5962 36.9303 25.7104 36.3125 25.7104C36.0501 25.7104 35.7581 25.6724 35.4365 25.5962C35.1191 25.52 34.8102 25.3973 34.5098 25.228C34.2135 25.063 33.966 24.8451 33.7671 24.5742L34.4844 23.6729C34.7298 23.9648 35.0007 24.1785 35.2969 24.314C35.5931 24.4494 35.9041 24.5171 36.23 24.5171C36.5812 24.5171 36.8796 24.4515 37.125 24.3203C37.3747 24.1934 37.5672 24.005 37.7026 23.7554C37.8381 23.5057 37.9058 23.201 37.9058 22.8413V17.687L38.0454 16.1318ZM33.3799 19.6421V19.5088C33.3799 18.9883 33.4434 18.5143 33.5703 18.0869C33.6973 17.6553 33.8792 17.285 34.1162 16.9761C34.3532 16.6629 34.641 16.4238 34.9795 16.2588C35.318 16.0895 35.701 16.0049 36.1284 16.0049C36.5728 16.0049 36.9515 16.0853 37.2646 16.2461C37.582 16.4069 37.8465 16.6375 38.0581 16.938C38.2697 17.2342 38.4347 17.5897 38.5532 18.0044C38.6759 18.4149 38.7669 18.8719 38.8262 19.3755V19.8008C38.7712 20.2917 38.6781 20.7402 38.5469 21.1465C38.4157 21.5527 38.2422 21.904 38.0264 22.2002C37.8105 22.4964 37.5439 22.7249 37.2266 22.8857C36.9134 23.0465 36.5431 23.127 36.1157 23.127C35.6968 23.127 35.318 23.0402 34.9795 22.8667C34.6452 22.6932 34.3574 22.4499 34.1162 22.1367C33.8792 21.8236 33.6973 21.4554 33.5703 21.0322C33.4434 20.6048 33.3799 20.1414 33.3799 19.6421ZM34.9097 19.5088V19.6421C34.9097 19.9552 34.9393 20.2472 34.9985 20.5181C35.062 20.7889 35.1572 21.028 35.2842 21.2354C35.4154 21.4385 35.5804 21.5993 35.7793 21.7178C35.9824 21.832 36.2215 21.8892 36.4966 21.8892C36.8563 21.8892 37.1504 21.813 37.3789 21.6606C37.6117 21.5083 37.7894 21.3031 37.9121 21.0449C38.0391 20.7826 38.1279 20.4906 38.1787 20.1689V19.02C38.1533 18.7703 38.1004 18.5376 38.02 18.3218C37.9438 18.106 37.8402 17.9176 37.709 17.7568C37.5778 17.5918 37.4128 17.4648 37.2139 17.376C37.015 17.2829 36.7801 17.2363 36.5093 17.2363C36.2342 17.2363 35.9951 17.2956 35.792 17.4141C35.5889 17.5326 35.4217 17.6955 35.2905 17.9028C35.1636 18.1102 35.0684 18.3514 35.0049 18.6265C34.9414 18.9015 34.9097 19.1956 34.9097 19.5088ZM42.8086 17.4395V23H41.2788V16.1318H42.7388L42.8086 17.4395ZM44.9097 16.0874L44.897 17.5093C44.8039 17.4924 44.7023 17.4797 44.5923 17.4712C44.4865 17.4627 44.3807 17.4585 44.2749 17.4585C44.0125 17.4585 43.7819 17.4966 43.583 17.5728C43.3841 17.6447 43.217 17.7505 43.0815 17.8901C42.9504 18.0256 42.8488 18.1906 42.7769 18.3853C42.7049 18.5799 42.6626 18.7979 42.6499 19.0391L42.3008 19.0645C42.3008 18.6328 42.3431 18.2329 42.4277 17.8647C42.5124 17.4966 42.6393 17.1729 42.8086 16.8936C42.9821 16.6143 43.1979 16.3963 43.4561 16.2397C43.7184 16.0832 44.021 16.0049 44.3638 16.0049C44.4569 16.0049 44.5563 16.0133 44.6621 16.0303C44.7721 16.0472 44.8547 16.0662 44.9097 16.0874ZM49.019 23.127C48.5112 23.127 48.0521 23.0444 47.6416 22.8794C47.2354 22.7101 46.8883 22.4753 46.6006 22.1748C46.3171 21.8743 46.0991 21.521 45.9468 21.1147C45.7944 20.7085 45.7183 20.2705 45.7183 19.8008V19.5469C45.7183 19.0094 45.7965 18.5228 45.9531 18.0869C46.1097 17.651 46.3276 17.2786 46.6069 16.9697C46.8862 16.6566 47.2163 16.4175 47.5972 16.2524C47.978 16.0874 48.3906 16.0049 48.835 16.0049C49.3258 16.0049 49.7554 16.0874 50.1235 16.2524C50.4917 16.4175 50.7964 16.6502 51.0376 16.9507C51.283 17.2469 51.465 17.6003 51.5835 18.0107C51.7062 18.4212 51.7676 18.874 51.7676 19.3691V20.0229H46.4609V18.9248H50.2568V18.8042C50.2484 18.5291 50.1934 18.271 50.0918 18.0298C49.9945 17.7886 49.8442 17.5939 49.6411 17.4458C49.438 17.2977 49.1672 17.2236 48.8286 17.2236C48.5747 17.2236 48.3483 17.2786 48.1494 17.3887C47.9548 17.4945 47.7918 17.6489 47.6606 17.8521C47.5295 18.0552 47.4279 18.3006 47.356 18.5884C47.2882 18.8719 47.2544 19.1914 47.2544 19.5469V19.8008C47.2544 20.1012 47.2946 20.3805 47.375 20.6387C47.4596 20.8926 47.5824 21.1147 47.7432 21.3052C47.904 21.4956 48.0986 21.6458 48.3271 21.7559C48.5557 21.8617 48.8159 21.9146 49.1079 21.9146C49.4761 21.9146 49.804 21.8405 50.0918 21.6924C50.3796 21.5443 50.6292 21.3348 50.8408 21.064L51.647 21.8447C51.4989 22.0605 51.3063 22.2679 51.0693 22.4668C50.8324 22.6615 50.5425 22.8201 50.1997 22.9429C49.8612 23.0656 49.4676 23.127 49.019 23.127ZM57.064 21.1401C57.064 20.9878 57.0259 20.8503 56.9497 20.7275C56.8735 20.6006 56.7275 20.4863 56.5117 20.3848C56.3001 20.2832 55.987 20.1901 55.5723 20.1055C55.2083 20.0251 54.874 19.9299 54.5693 19.8198C54.2689 19.7056 54.0107 19.568 53.7949 19.4072C53.5791 19.2464 53.4119 19.056 53.2935 18.8359C53.175 18.6159 53.1157 18.362 53.1157 18.0742C53.1157 17.7949 53.1771 17.5304 53.2998 17.2808C53.4225 17.0311 53.5981 16.811 53.8267 16.6206C54.0552 16.4302 54.3324 16.2799 54.6582 16.1699C54.9883 16.0599 55.3564 16.0049 55.7627 16.0049C56.3382 16.0049 56.8312 16.1022 57.2417 16.2969C57.6564 16.4873 57.9738 16.7476 58.1938 17.0776C58.4139 17.4035 58.5239 17.7716 58.5239 18.1821H56.9941C56.9941 18.0002 56.9476 17.8309 56.8545 17.6743C56.7656 17.5135 56.6302 17.3844 56.4482 17.2871C56.2663 17.1855 56.0378 17.1348 55.7627 17.1348C55.5003 17.1348 55.2824 17.1771 55.1089 17.2617C54.9396 17.3421 54.8127 17.4479 54.728 17.5791C54.6476 17.7103 54.6074 17.8542 54.6074 18.0107C54.6074 18.125 54.6286 18.2287 54.6709 18.3218C54.7174 18.4106 54.7936 18.4932 54.8994 18.5693C55.0052 18.6413 55.1491 18.709 55.3311 18.7725C55.5173 18.8359 55.75 18.8973 56.0293 18.9565C56.554 19.0666 57.0047 19.2083 57.3813 19.3818C57.7622 19.5511 58.0542 19.7712 58.2573 20.042C58.4604 20.3086 58.562 20.6471 58.562 21.0576C58.562 21.3623 58.4964 21.6416 58.3652 21.8955C58.2383 22.1452 58.0521 22.3631 57.8066 22.5493C57.5612 22.7313 57.2671 22.873 56.9243 22.9746C56.5858 23.0762 56.2049 23.127 55.7817 23.127C55.1597 23.127 54.6328 23.0169 54.2012 22.7969C53.7695 22.5726 53.4416 22.2869 53.2173 21.9399C52.9972 21.5887 52.8872 21.2248 52.8872 20.8481H54.3662C54.3831 21.1317 54.4614 21.3581 54.6011 21.5273C54.745 21.6924 54.9227 21.813 55.1343 21.8892C55.3501 21.9611 55.5723 21.9971 55.8008 21.9971C56.0758 21.9971 56.3065 21.9611 56.4927 21.8892C56.6789 21.813 56.8206 21.7114 56.918 21.5845C57.0153 21.4533 57.064 21.3052 57.064 21.1401ZM64.0044 21.1401C64.0044 20.9878 63.9663 20.8503 63.8901 20.7275C63.814 20.6006 63.668 20.4863 63.4521 20.3848C63.2406 20.2832 62.9274 20.1901 62.5127 20.1055C62.1488 20.0251 61.8145 19.9299 61.5098 19.8198C61.2093 19.7056 60.9512 19.568 60.7354 19.4072C60.5195 19.2464 60.3524 19.056 60.2339 18.8359C60.1154 18.6159 60.0562 18.362 60.0562 18.0742C60.0562 17.7949 60.1175 17.5304 60.2402 17.2808C60.363 17.0311 60.5386 16.811 60.7671 16.6206C60.9956 16.4302 61.2728 16.2799 61.5986 16.1699C61.9287 16.0599 62.2969 16.0049 62.7031 16.0049C63.2786 16.0049 63.7716 16.1022 64.1821 16.2969C64.5968 16.4873 64.9142 16.7476 65.1343 17.0776C65.3543 17.4035 65.4644 17.7716 65.4644 18.1821H63.9346C63.9346 18.0002 63.888 17.8309 63.7949 17.6743C63.7061 17.5135 63.5706 17.3844 63.3887 17.2871C63.2067 17.1855 62.9782 17.1348 62.7031 17.1348C62.4408 17.1348 62.2228 17.1771 62.0493 17.2617C61.88 17.3421 61.7531 17.4479 61.6685 17.5791C61.5881 17.7103 61.5479 17.8542 61.5479 18.0107C61.5479 18.125 61.569 18.2287 61.6113 18.3218C61.6579 18.4106 61.734 18.4932 61.8398 18.5693C61.9456 18.6413 62.0895 18.709 62.2715 18.7725C62.4577 18.8359 62.6904 18.8973 62.9697 18.9565C63.4945 19.0666 63.9451 19.2083 64.3218 19.3818C64.7026 19.5511 64.9946 19.7712 65.1978 20.042C65.4009 20.3086 65.5024 20.6471 65.5024 21.0576C65.5024 21.3623 65.4368 21.6416 65.3057 21.8955C65.1787 22.1452 64.9925 22.3631 64.7471 22.5493C64.5016 22.7313 64.2075 22.873 63.8647 22.9746C63.5262 23.0762 63.1453 23.127 62.7222 23.127C62.1001 23.127 61.5732 23.0169 61.1416 22.7969C60.71 22.5726 60.382 22.2869 60.1577 21.9399C59.9377 21.5887 59.8276 21.2248 59.8276 20.8481H61.3066C61.3236 21.1317 61.4019 21.3581 61.5415 21.5273C61.6854 21.6924 61.8631 21.813 62.0747 21.8892C62.2905 21.9611 62.5127 21.9971 62.7412 21.9971C63.0163 21.9971 63.2469 21.9611 63.4331 21.8892C63.6193 21.813 63.7611 21.7114 63.8584 21.5845C63.9557 21.4533 64.0044 21.3052 64.0044 21.1401ZM70.5854 13.25H72.1152V21.5337L71.9692 23H70.5854V13.25ZM76.5967 19.5024V19.6357C76.5967 20.1436 76.5396 20.6112 76.4253 21.0386C76.3153 21.4618 76.146 21.8299 75.9175 22.1431C75.6932 22.4562 75.4139 22.6995 75.0796 22.873C74.7495 23.0423 74.3665 23.127 73.9307 23.127C73.5033 23.127 73.1309 23.0465 72.8135 22.8857C72.4961 22.7249 72.2295 22.4964 72.0137 22.2002C71.8021 21.904 71.6307 21.5506 71.4995 21.1401C71.3683 20.7297 71.2752 20.2769 71.2202 19.7817V19.3564C71.2752 18.8571 71.3683 18.4043 71.4995 17.998C71.6307 17.5876 71.8021 17.2342 72.0137 16.938C72.2295 16.6375 72.494 16.4069 72.8071 16.2461C73.1245 16.0853 73.4948 16.0049 73.918 16.0049C74.3581 16.0049 74.7453 16.0895 75.0796 16.2588C75.4181 16.4281 75.6995 16.6693 75.9238 16.9824C76.1481 17.2913 76.3153 17.6595 76.4253 18.0869C76.5396 18.5143 76.5967 18.9862 76.5967 19.5024ZM75.0669 19.6357V19.5024C75.0669 19.1935 75.0415 18.9036 74.9907 18.6328C74.9399 18.3577 74.8553 18.1165 74.7368 17.9092C74.6226 17.7018 74.466 17.5389 74.2671 17.4204C74.0724 17.2977 73.8291 17.2363 73.5371 17.2363C73.2663 17.2363 73.0335 17.2829 72.8389 17.376C72.6442 17.4691 72.4813 17.596 72.3501 17.7568C72.2189 17.9176 72.1152 18.1038 72.0391 18.3154C71.9671 18.527 71.9185 18.7555 71.8931 19.001V20.1499C71.9312 20.4673 72.0116 20.7593 72.1343 21.0259C72.2612 21.2882 72.439 21.4998 72.6675 21.6606C72.896 21.8172 73.1901 21.8955 73.5498 21.8955C73.8333 21.8955 74.0724 21.8384 74.2671 21.7241C74.4618 21.6099 74.6162 21.4512 74.7305 21.248C74.849 21.0407 74.9336 20.7995 74.9844 20.5244C75.0394 20.2493 75.0669 19.9531 75.0669 19.6357ZM82.0137 21.6226V18.3472C82.0137 18.1017 81.9692 17.8901 81.8804 17.7124C81.7915 17.5347 81.6561 17.3971 81.4741 17.2998C81.2964 17.2025 81.0721 17.1538 80.8013 17.1538C80.5516 17.1538 80.3358 17.1961 80.1538 17.2808C79.9718 17.3654 79.8301 17.4797 79.7285 17.6235C79.627 17.7674 79.5762 17.9303 79.5762 18.1123H78.0527C78.0527 17.8415 78.1183 17.5791 78.2495 17.3252C78.3807 17.0713 78.5711 16.8449 78.8208 16.646C79.0705 16.4471 79.3688 16.2905 79.7158 16.1763C80.0628 16.062 80.4521 16.0049 80.8838 16.0049C81.4001 16.0049 81.8571 16.0916 82.2549 16.2651C82.6569 16.4386 82.9722 16.701 83.2007 17.0522C83.4334 17.3993 83.5498 17.8351 83.5498 18.3599V21.4131C83.5498 21.7262 83.571 22.0076 83.6133 22.2573C83.6598 22.5028 83.7254 22.7165 83.8101 22.8984V23H82.2422C82.1702 22.835 82.1131 22.6255 82.0708 22.3716C82.0327 22.1134 82.0137 21.8638 82.0137 21.6226ZM82.2358 18.8232L82.2485 19.769H81.1504C80.8669 19.769 80.6172 19.7965 80.4014 19.8516C80.1855 19.9023 80.0057 19.9785 79.8618 20.0801C79.7179 20.1816 79.61 20.3044 79.5381 20.4482C79.4661 20.5921 79.4302 20.755 79.4302 20.937C79.4302 21.119 79.4725 21.2861 79.5571 21.4385C79.6418 21.5866 79.7645 21.703 79.9253 21.7876C80.0903 21.8722 80.2892 21.9146 80.522 21.9146C80.8351 21.9146 81.1081 21.8511 81.3408 21.7241C81.5778 21.5929 81.764 21.4342 81.8994 21.248C82.0348 21.0576 82.1068 20.8778 82.1152 20.7085L82.6104 21.3877C82.5596 21.5612 82.4728 21.7474 82.3501 21.9463C82.2274 22.1452 82.0666 22.3356 81.8677 22.5176C81.673 22.6953 81.4382 22.8413 81.1631 22.9556C80.8923 23.0698 80.5791 23.127 80.2236 23.127C79.7751 23.127 79.3752 23.0381 79.0239 22.8604C78.6727 22.6784 78.3976 22.4351 78.1987 22.1304C77.9998 21.8215 77.9004 21.4723 77.9004 21.083C77.9004 20.7191 77.9681 20.3975 78.1035 20.1182C78.2432 19.8346 78.4463 19.5977 78.7129 19.4072C78.9837 19.2168 79.3138 19.0729 79.7031 18.9756C80.0924 18.874 80.5368 18.8232 81.0361 18.8232H82.2358ZM86.9355 17.4395V23H85.4058V16.1318H86.8657L86.9355 17.4395ZM89.0366 16.0874L89.0239 17.5093C88.9308 17.4924 88.8293 17.4797 88.7192 17.4712C88.6134 17.4627 88.5076 17.4585 88.4019 17.4585C88.1395 17.4585 87.9089 17.4966 87.71 17.5728C87.5111 17.6447 87.3439 17.7505 87.2085 17.8901C87.0773 18.0256 86.9757 18.1906 86.9038 18.3853C86.8319 18.5799 86.7896 18.7979 86.7769 19.0391L86.4277 19.0645C86.4277 18.6328 86.4701 18.2329 86.5547 17.8647C86.6393 17.4966 86.7663 17.1729 86.9355 16.8936C87.109 16.6143 87.3249 16.3963 87.583 16.2397C87.8454 16.0832 88.1479 16.0049 88.4907 16.0049C88.5838 16.0049 88.6833 16.0133 88.7891 16.0303C88.8991 16.0472 88.9816 16.0662 89.0366 16.0874Z" fill="black" fill-opacity="0.87"/>
<path d="M16.6055 97.1914H18.293C18.9492 97.1914 19.4922 97.0781 19.9219 96.8516C20.3594 96.625 20.6836 96.3125 20.8945 95.9141C21.1055 95.5156 21.2109 95.0586 21.2109 94.543C21.2109 94.0039 21.1133 93.543 20.918 93.1602C20.7305 92.7695 20.4414 92.4688 20.0508 92.2578C19.668 92.0469 19.1797 91.9414 18.5859 91.9414C18.0859 91.9414 17.6328 92.043 17.2266 92.2461C16.8281 92.4414 16.5117 92.7227 16.2773 93.0898C16.043 93.4492 15.9258 93.8789 15.9258 94.3789H13.0898C13.0898 93.4727 13.3281 92.668 13.8047 91.9648C14.2812 91.2617 14.9297 90.7109 15.75 90.3125C16.5781 89.9062 17.5078 89.7031 18.5391 89.7031C19.6406 89.7031 20.6016 89.8867 21.4219 90.2539C22.25 90.6133 22.8945 91.1523 23.3555 91.8711C23.8164 92.5898 24.0469 93.4805 24.0469 94.543C24.0469 95.0273 23.9336 95.5195 23.707 96.0195C23.4805 96.5195 23.1445 96.9766 22.6992 97.3906C22.2539 97.7969 21.6992 98.1289 21.0352 98.3867C20.3711 98.6367 19.6016 98.7617 18.7266 98.7617H16.6055V97.1914ZM16.6055 99.3945V97.8477H18.7266C19.7266 97.8477 20.5781 97.9648 21.2812 98.1992C21.9922 98.4336 22.5703 98.7578 23.0156 99.1719C23.4609 99.5781 23.7852 100.043 23.9883 100.566C24.1992 101.09 24.3047 101.645 24.3047 102.23C24.3047 103.027 24.1602 103.738 23.8711 104.363C23.5898 104.98 23.1875 105.504 22.6641 105.934C22.1406 106.363 21.5273 106.688 20.8242 106.906C20.1289 107.125 19.3711 107.234 18.5508 107.234C17.8164 107.234 17.1133 107.133 16.4414 106.93C15.7695 106.727 15.168 106.426 14.6367 106.027C14.1055 105.621 13.6836 105.117 13.3711 104.516C13.0664 103.906 12.9141 103.203 12.9141 102.406H15.7383C15.7383 102.914 15.8555 103.363 16.0898 103.754C16.332 104.137 16.668 104.438 17.0977 104.656C17.5352 104.875 18.0352 104.984 18.5977 104.984C19.1914 104.984 19.7031 104.879 20.1328 104.668C20.5625 104.457 20.8906 104.145 21.1172 103.73C21.3516 103.316 21.4688 102.816 21.4688 102.23C21.4688 101.566 21.3398 101.027 21.082 100.613C20.8242 100.199 20.457 99.8945 19.9805 99.6992C19.5039 99.4961 18.9414 99.3945 18.293 99.3945H16.6055ZM35.4609 89.832H35.8125V92.1406H35.6133C34.6055 92.1406 33.7344 92.2969 33 92.6094C32.2734 92.9219 31.6758 93.3516 31.207 93.8984C30.7383 94.4453 30.3867 95.0859 30.1523 95.8203C29.9258 96.5469 29.8125 97.3203 29.8125 98.1406V100.824C29.8125 101.504 29.8867 102.105 30.0352 102.629C30.1836 103.145 30.3906 103.578 30.6562 103.93C30.9297 104.273 31.2422 104.535 31.5938 104.715C31.9453 104.895 32.3242 104.984 32.7305 104.984C33.1523 104.984 33.5352 104.898 33.8789 104.727C34.2227 104.547 34.5156 104.301 34.7578 103.988C35 103.676 35.1836 103.305 35.3086 102.875C35.4336 102.445 35.4961 101.977 35.4961 101.469C35.4961 100.984 35.4336 100.531 35.3086 100.109C35.1914 99.6797 35.0156 99.3047 34.7812 98.9844C34.5469 98.6562 34.2539 98.4023 33.9023 98.2227C33.5586 98.0352 33.1602 97.9414 32.707 97.9414C32.1445 97.9414 31.6328 98.0742 31.1719 98.3398C30.7188 98.6055 30.3516 98.9531 30.0703 99.3828C29.7969 99.8047 29.6484 100.254 29.625 100.73L28.5469 100.379C28.6094 99.6523 28.7695 99 29.0273 98.4219C29.293 97.8438 29.6406 97.3516 30.0703 96.9453C30.5 96.5391 30.9961 96.2305 31.5586 96.0195C32.1289 95.8008 32.7539 95.6914 33.4336 95.6914C34.2617 95.6914 34.9805 95.8477 35.5898 96.1602C36.1992 96.4727 36.7031 96.8984 37.1016 97.4375C37.5078 97.9688 37.8086 98.5781 38.0039 99.2656C38.207 99.9453 38.3086 100.656 38.3086 101.398C38.3086 102.219 38.1836 102.984 37.9336 103.695C37.6836 104.398 37.3164 105.016 36.832 105.547C36.3555 106.078 35.7734 106.492 35.0859 106.789C34.4062 107.086 33.6328 107.234 32.7656 107.234C31.8516 107.234 31.0352 107.059 30.3164 106.707C29.6055 106.355 29 105.871 28.5 105.254C28.0078 104.637 27.6328 103.926 27.375 103.121C27.1172 102.316 26.9883 101.465 26.9883 100.566V99.3945C26.9883 98.0977 27.1523 96.875 27.4805 95.7266C27.8086 94.5703 28.3125 93.5508 28.9922 92.668C29.6797 91.7852 30.5586 91.0938 31.6289 90.5938C32.6992 90.0859 33.9766 89.832 35.4609 89.832Z" fill="black" fill-opacity="0.87"/>
<path d="M42.7178 99.4873V98.9609C42.7178 98.5827 42.7998 98.2386 42.9639 97.9287C43.1279 97.6188 43.3626 97.3704 43.668 97.1836C43.9733 96.9967 44.3356 96.9033 44.7549 96.9033C45.1833 96.9033 45.5479 96.9967 45.8486 97.1836C46.154 97.3704 46.3887 97.6188 46.5527 97.9287C46.7168 98.2386 46.7988 98.5827 46.7988 98.9609V99.4873C46.7988 99.8564 46.7168 100.196 46.5527 100.506C46.3932 100.816 46.1608 101.064 45.8555 101.251C45.5547 101.438 45.1924 101.531 44.7686 101.531C44.3447 101.531 43.9779 101.438 43.668 101.251C43.3626 101.064 43.1279 100.816 42.9639 100.506C42.7998 100.196 42.7178 99.8564 42.7178 99.4873ZM43.668 98.9609V99.4873C43.668 99.6969 43.7067 99.8952 43.7842 100.082C43.8662 100.269 43.9893 100.422 44.1533 100.54C44.3174 100.654 44.5225 100.711 44.7686 100.711C45.0146 100.711 45.2174 100.654 45.377 100.54C45.5365 100.422 45.6549 100.269 45.7324 100.082C45.8099 99.8952 45.8486 99.6969 45.8486 99.4873V98.9609C45.8486 98.7467 45.8076 98.5462 45.7256 98.3594C45.6481 98.168 45.5273 98.0153 45.3633 97.9014C45.2038 97.7829 45.001 97.7236 44.7549 97.7236C44.5133 97.7236 44.3105 97.7829 44.1465 97.9014C43.987 98.0153 43.8662 98.168 43.7842 98.3594C43.7067 98.5462 43.668 98.7467 43.668 98.9609ZM47.5645 105.093V104.56C47.5645 104.186 47.6465 103.844 47.8105 103.534C47.9746 103.224 48.2093 102.976 48.5146 102.789C48.82 102.602 49.1823 102.509 49.6016 102.509C50.0299 102.509 50.3945 102.602 50.6953 102.789C51.0007 102.976 51.2354 103.224 51.3994 103.534C51.5635 103.844 51.6455 104.186 51.6455 104.56V105.093C51.6455 105.466 51.5635 105.808 51.3994 106.118C51.2399 106.428 51.0075 106.676 50.7021 106.863C50.4014 107.05 50.0391 107.144 49.6152 107.144C49.1914 107.144 48.8268 107.05 48.5215 106.863C48.2161 106.676 47.9792 106.428 47.8105 106.118C47.6465 105.808 47.5645 105.466 47.5645 105.093ZM48.5146 104.56V105.093C48.5146 105.302 48.5534 105.503 48.6309 105.694C48.7129 105.881 48.8359 106.034 49 106.152C49.1641 106.266 49.3691 106.323 49.6152 106.323C49.8613 106.323 50.0641 106.266 50.2236 106.152C50.3877 106.034 50.5085 105.881 50.5859 105.694C50.6634 105.507 50.7021 105.307 50.7021 105.093V104.56C50.7021 104.345 50.6611 104.145 50.5791 103.958C50.5016 103.771 50.3809 103.621 50.2168 103.507C50.0573 103.388 49.8522 103.329 49.6016 103.329C49.36 103.329 49.1572 103.388 48.9932 103.507C48.8337 103.621 48.7129 103.771 48.6309 103.958C48.5534 104.145 48.5146 104.345 48.5146 104.56ZM49.916 98.4619L45.0557 106.241L44.3447 105.79L49.2051 98.0107L49.916 98.4619Z" fill="black" fill-opacity="0.87"/>
<rect x="12" y="123" width="176" height="5" rx="2.5" fill="black" fill-opacity="0.04"/>
<rect width="51" height="5" rx="2.5" transform="matrix(-1 0 0 1 63 123)" fill="#00695C"/>
<path d="M17.5591 139.467V140.659C17.5591 141.3 17.5018 141.841 17.3872 142.281C17.2726 142.722 17.1079 143.076 16.8931 143.345C16.6782 143.613 16.4186 143.808 16.1143 143.93C15.8135 144.048 15.4733 144.107 15.0938 144.107C14.793 144.107 14.5155 144.07 14.2612 143.995C14.007 143.919 13.7778 143.799 13.5737 143.635C13.3732 143.466 13.2013 143.248 13.0581 142.979C12.9149 142.711 12.8057 142.385 12.7305 142.002C12.6553 141.619 12.6177 141.171 12.6177 140.659V139.467C12.6177 138.826 12.675 138.289 12.7896 137.855C12.9077 137.422 13.0742 137.075 13.2891 136.813C13.5039 136.549 13.7617 136.359 14.0625 136.244C14.3669 136.13 14.707 136.072 15.083 136.072C15.3874 136.072 15.6667 136.11 15.9209 136.185C16.1787 136.257 16.4079 136.373 16.6084 136.534C16.8089 136.692 16.979 136.903 17.1187 137.168C17.2619 137.429 17.3711 137.75 17.4463 138.129C17.5215 138.509 17.5591 138.955 17.5591 139.467ZM16.5601 140.82V139.3C16.5601 138.949 16.5386 138.641 16.4956 138.376C16.4562 138.108 16.3971 137.879 16.3184 137.689C16.2396 137.499 16.1393 137.345 16.0176 137.227C15.8994 137.109 15.7616 137.023 15.604 136.969C15.45 136.912 15.2764 136.883 15.083 136.883C14.8467 136.883 14.6372 136.928 14.4546 137.018C14.272 137.104 14.118 137.241 13.9927 137.431C13.8709 137.621 13.7778 137.87 13.7134 138.178C13.6489 138.486 13.6167 138.86 13.6167 139.3V140.82C13.6167 141.171 13.6364 141.481 13.6758 141.75C13.7188 142.018 13.7814 142.251 13.8638 142.448C13.9461 142.641 14.0464 142.8 14.1646 142.926C14.2827 143.051 14.4188 143.144 14.5728 143.205C14.7303 143.262 14.904 143.291 15.0938 143.291C15.3372 143.291 15.5503 143.244 15.7329 143.151C15.9155 143.058 16.0677 142.913 16.1895 142.716C16.3148 142.516 16.4079 142.26 16.4688 141.948C16.5296 141.633 16.5601 141.257 16.5601 140.82Z" fill="black" fill-opacity="0.54"/>
<path d="M171.916 136.137V144H170.922V137.377L168.918 138.108V137.211L171.76 136.137H171.916ZM179.997 139.467V140.659C179.997 141.3 179.939 141.841 179.825 142.281C179.71 142.722 179.545 143.076 179.331 143.345C179.116 143.613 178.856 143.808 178.552 143.93C178.251 144.048 177.911 144.107 177.531 144.107C177.23 144.107 176.953 144.07 176.699 143.995C176.444 143.919 176.215 143.799 176.011 143.635C175.811 143.466 175.639 143.248 175.496 142.979C175.352 142.711 175.243 142.385 175.168 142.002C175.093 141.619 175.055 141.171 175.055 140.659V139.467C175.055 138.826 175.112 138.289 175.227 137.855C175.345 137.422 175.512 137.075 175.727 136.813C175.941 136.549 176.199 136.359 176.5 136.244C176.804 136.13 177.145 136.072 177.521 136.072C177.825 136.072 178.104 136.11 178.358 136.185C178.616 136.257 178.845 136.373 179.046 136.534C179.246 136.692 179.417 136.903 179.556 137.168C179.699 137.429 179.809 137.75 179.884 138.129C179.959 138.509 179.997 138.955 179.997 139.467ZM178.998 140.82V139.3C178.998 138.949 178.976 138.641 178.933 138.376C178.894 138.108 178.835 137.879 178.756 137.689C178.677 137.499 178.577 137.345 178.455 137.227C178.337 137.109 178.199 137.023 178.042 136.969C177.888 136.912 177.714 136.883 177.521 136.883C177.284 136.883 177.075 136.928 176.892 137.018C176.709 137.104 176.556 137.241 176.43 137.431C176.308 137.621 176.215 137.87 176.151 138.178C176.086 138.486 176.054 138.86 176.054 139.3V140.82C176.054 141.171 176.074 141.481 176.113 141.75C176.156 142.018 176.219 142.251 176.301 142.448C176.384 142.641 176.484 142.8 176.602 142.926C176.72 143.051 176.856 143.144 177.01 143.205C177.168 143.262 177.341 143.291 177.531 143.291C177.775 143.291 177.988 143.244 178.17 143.151C178.353 143.058 178.505 142.913 178.627 142.716C178.752 142.516 178.845 142.26 178.906 141.948C178.967 141.633 178.998 141.257 178.998 140.82ZM186.434 139.467V140.659C186.434 141.3 186.377 141.841 186.262 142.281C186.148 142.722 185.983 143.076 185.768 143.345C185.553 143.613 185.294 143.808 184.989 143.93C184.688 144.048 184.348 144.107 183.969 144.107C183.668 144.107 183.39 144.07 183.136 143.995C182.882 143.919 182.653 143.799 182.449 143.635C182.248 143.466 182.076 143.248 181.933 142.979C181.79 142.711 181.681 142.385 181.605 142.002C181.53 141.619 181.493 141.171 181.493 140.659V139.467C181.493 138.826 181.55 138.289 181.665 137.855C181.783 137.422 181.949 137.075 182.164 136.813C182.379 136.549 182.637 136.359 182.938 136.244C183.242 136.13 183.582 136.072 183.958 136.072C184.262 136.072 184.542 136.11 184.796 136.185C185.054 136.257 185.283 136.373 185.483 136.534C185.684 136.692 185.854 136.903 185.994 137.168C186.137 137.429 186.246 137.75 186.321 138.129C186.396 138.509 186.434 138.955 186.434 139.467ZM185.435 140.82V139.3C185.435 138.949 185.414 138.641 185.371 138.376C185.331 138.108 185.272 137.879 185.193 137.689C185.115 137.499 185.014 137.345 184.893 137.227C184.774 137.109 184.637 137.023 184.479 136.969C184.325 136.912 184.151 136.883 183.958 136.883C183.722 136.883 183.512 136.928 183.33 137.018C183.147 137.104 182.993 137.241 182.868 137.431C182.746 137.621 182.653 137.87 182.588 138.178C182.524 138.486 182.492 138.86 182.492 139.3V140.82C182.492 141.171 182.511 141.481 182.551 141.75C182.594 142.018 182.656 142.251 182.739 142.448C182.821 142.641 182.921 142.8 183.04 142.926C183.158 143.051 183.294 143.144 183.448 143.205C183.605 143.262 183.779 143.291 183.969 143.291C184.212 143.291 184.425 143.244 184.608 143.151C184.791 143.058 184.943 142.913 185.064 142.716C185.19 142.516 185.283 142.26 185.344 141.948C185.405 141.633 185.435 141.257 185.435 140.82Z" fill="black" fill-opacity="0.54"/>
</g>
</g>
<rect x="0.5" y="0.5" width="199" height="159" rx="3.5" stroke="black" stroke-opacity="0.12"/>
<defs>
<filter id="filter0_d_4685_48980" x="-8" y="-4" width="216" height="176" filterUnits="userSpaceOnUse" color-interpolation-filters="sRGB">
<feFlood flood-opacity="0" result="BackgroundImageFix"/>
<feColorMatrix in="SourceAlpha" type="matrix" values="0 0 0 0 0 0 0 0 0 0 0 0 0 0 0 0 0 0 127 0" result="hardAlpha"/>
<feOffset dy="4"/>
<feGaussianBlur stdDeviation="4"/>
<feComposite in2="hardAlpha" operator="out"/>
<feColorMatrix type="matrix" values="0 0 0 0 0 0 0 0 0 0 0 0 0 0 0 0 0 0 0.04 0"/>
<feBlend mode="normal" in2="BackgroundImageFix" result="effect1_dropShadow_4685_48980"/>
<feBlend mode="normal" in="SourceGraphic" in2="effect1_dropShadow_4685_48980" result="shape"/>
</filter>
<filter id="filter1_b_4685_48980" x="6" y="6" width="188" height="148" filterUnits="userSpaceOnUse" color-interpolation-filters="sRGB">
<feFlood flood-opacity="0" result="BackgroundImageFix"/>
<feGaussianBlur in="BackgroundImageFix" stdDeviation="3"/>
<feComposite in2="SourceAlpha" operator="in" result="effect1_backgroundBlur_4685_48980"/>
<feBlend mode="normal" in="SourceGraphic" in2="effect1_backgroundBlur_4685_48980" result="shape"/>
</filter>
<clipPath id="clip0_4685_48980">
<rect width="200" height="160" rx="4" fill="white"/>
</clipPath>
</defs>
</svg>
