<svg width="200" height="160" viewBox="0 0 200 160" fill="none" xmlns="http://www.w3.org/2000/svg">
<rect width="200" height="160" rx="5.45669" fill="#00695C"/>
<path d="M52.4166 20.75H17.5833V17.5833H52.4166V20.75ZM19.1666 50.8333H25.4999C25.4999 46.0833 22.3333 42.9166 22.3333 42.9166C31.8333 36.5833 33.4166 22.3333 33.4166 22.3333H19.1666V50.8333ZM50.8333 22.3333H36.5833C36.5833 22.3333 38.1666 36.5833 47.6666 42.9166C47.6666 42.9166 44.4999 46.0833 44.4999 50.8333H50.8333V22.3333Z" fill="white"/>
<path d="M19.5068 112.765L21.4893 105.047H22.5283L22.4121 107.036L20.293 115H19.2129L19.5068 112.765ZM18.0234 105.047L19.6299 112.703L19.7734 115H18.625L16.3213 105.047H18.0234ZM24.7773 112.683L26.3633 105.047H28.0723L25.7686 115H24.6201L24.7773 112.683ZM22.9316 105.047L24.8936 112.785L25.1807 115H24.1006L22.0156 107.036L21.9062 105.047H22.9316ZM31.1934 107.604V115H29.5391V107.604H31.1934ZM29.4297 105.662C29.4297 105.411 29.5117 105.204 29.6758 105.04C29.8444 104.871 30.0768 104.787 30.373 104.787C30.6647 104.787 30.8949 104.871 31.0635 105.04C31.2321 105.204 31.3164 105.411 31.3164 105.662C31.3164 105.908 31.2321 106.113 31.0635 106.277C30.8949 106.441 30.6647 106.523 30.373 106.523C30.0768 106.523 29.8444 106.441 29.6758 106.277C29.5117 106.113 29.4297 105.908 29.4297 105.662ZM34.8818 109.183V115H33.2344V107.604H34.7861L34.8818 109.183ZM34.5879 111.028L34.0547 111.021C34.0592 110.497 34.1322 110.017 34.2734 109.579C34.4193 109.142 34.6198 108.766 34.875 108.451C35.1348 108.137 35.4447 107.895 35.8047 107.727C36.1647 107.553 36.5658 107.467 37.0078 107.467C37.3633 107.467 37.6846 107.517 37.9717 107.617C38.2633 107.713 38.5117 107.87 38.7168 108.089C38.9264 108.308 39.0859 108.592 39.1953 108.943C39.3047 109.29 39.3594 109.716 39.3594 110.222V115H37.7051V110.215C37.7051 109.859 37.6527 109.579 37.5479 109.374C37.4476 109.164 37.2995 109.016 37.1035 108.93C36.9121 108.839 36.6729 108.793 36.3857 108.793C36.1032 108.793 35.8503 108.852 35.627 108.971C35.4036 109.089 35.2145 109.251 35.0596 109.456C34.9092 109.661 34.793 109.898 34.7109 110.167C34.6289 110.436 34.5879 110.723 34.5879 111.028ZM45.8027 113.469V104.5H47.457V115H45.96L45.8027 113.469ZM40.9902 111.384V111.24C40.9902 110.68 41.0563 110.169 41.1885 109.709C41.3206 109.244 41.512 108.845 41.7627 108.513C42.0133 108.175 42.3187 107.918 42.6787 107.74C43.0387 107.558 43.4443 107.467 43.8955 107.467C44.3421 107.467 44.734 107.553 45.0713 107.727C45.4085 107.9 45.6956 108.148 45.9326 108.472C46.1696 108.791 46.3587 109.174 46.5 109.62C46.6413 110.062 46.7415 110.554 46.8008 111.097V111.555C46.7415 112.083 46.6413 112.566 46.5 113.004C46.3587 113.441 46.1696 113.82 45.9326 114.139C45.6956 114.458 45.4062 114.704 45.0645 114.877C44.7272 115.05 44.333 115.137 43.8818 115.137C43.4352 115.137 43.0319 115.043 42.6719 114.856C42.3164 114.67 42.0133 114.408 41.7627 114.07C41.512 113.733 41.3206 113.337 41.1885 112.881C41.0563 112.421 40.9902 111.922 40.9902 111.384ZM42.6377 111.24V111.384C42.6377 111.721 42.6673 112.035 42.7266 112.327C42.7904 112.619 42.8883 112.876 43.0205 113.1C43.1527 113.318 43.3236 113.492 43.5332 113.619C43.7474 113.742 44.0026 113.804 44.2988 113.804C44.6725 113.804 44.9801 113.722 45.2217 113.558C45.4632 113.394 45.6523 113.173 45.7891 112.895C45.9303 112.612 46.026 112.298 46.0762 111.951V110.714C46.0488 110.445 45.9919 110.194 45.9053 109.962C45.8232 109.729 45.7116 109.527 45.5703 109.354C45.429 109.176 45.2536 109.039 45.0439 108.943C44.8389 108.843 44.5951 108.793 44.3125 108.793C44.0117 108.793 43.7565 108.857 43.5469 108.984C43.3372 109.112 43.1641 109.287 43.0273 109.511C42.8952 109.734 42.7972 109.994 42.7334 110.29C42.6696 110.586 42.6377 110.903 42.6377 111.24ZM49.1152 111.384V111.227C49.1152 110.693 49.1927 110.199 49.3477 109.743C49.5026 109.283 49.7259 108.884 50.0176 108.547C50.3138 108.205 50.6738 107.941 51.0977 107.754C51.526 107.562 52.0091 107.467 52.5469 107.467C53.0892 107.467 53.5723 107.562 53.9961 107.754C54.4245 107.941 54.7868 108.205 55.083 108.547C55.3792 108.884 55.6048 109.283 55.7598 109.743C55.9147 110.199 55.9922 110.693 55.9922 111.227V111.384C55.9922 111.917 55.9147 112.411 55.7598 112.867C55.6048 113.323 55.3792 113.722 55.083 114.063C54.7868 114.401 54.4268 114.665 54.0029 114.856C53.5791 115.043 53.0983 115.137 52.5605 115.137C52.0182 115.137 51.5329 115.043 51.1045 114.856C50.6807 114.665 50.3206 114.401 50.0244 114.063C49.7282 113.722 49.5026 113.323 49.3477 112.867C49.1927 112.411 49.1152 111.917 49.1152 111.384ZM50.7627 111.227V111.384C50.7627 111.716 50.7969 112.031 50.8652 112.327C50.9336 112.623 51.0407 112.883 51.1865 113.106C51.3324 113.33 51.5192 113.505 51.7471 113.633C51.9749 113.76 52.2461 113.824 52.5605 113.824C52.8659 113.824 53.1302 113.76 53.3535 113.633C53.5814 113.505 53.7682 113.33 53.9141 113.106C54.0599 112.883 54.167 112.623 54.2354 112.327C54.3083 112.031 54.3447 111.716 54.3447 111.384V111.227C54.3447 110.898 54.3083 110.589 54.2354 110.297C54.167 110.001 54.0576 109.739 53.9072 109.511C53.7614 109.283 53.5745 109.105 53.3467 108.978C53.1234 108.845 52.8568 108.779 52.5469 108.779C52.237 108.779 51.9681 108.845 51.7402 108.978C51.5169 109.105 51.3324 109.283 51.1865 109.511C51.0407 109.739 50.9336 110.001 50.8652 110.297C50.7969 110.589 50.7627 110.898 50.7627 111.227ZM59.6328 113.359L61.3418 107.604H62.3945L62.1074 109.326L60.3848 115H59.4414L59.6328 113.359ZM58.6279 107.604L59.9609 113.387L60.0703 115H59.0176L57.0146 107.604H58.6279ZM63.9941 113.318L65.2861 107.604H66.8926L64.8965 115H63.8438L63.9941 113.318ZM62.5723 107.604L64.2607 113.291L64.4727 115H63.5293L61.7861 109.319L61.499 107.604H62.5723ZM73.7637 104.5V115H72.1094V104.5H73.7637ZM79.0791 115.137C78.5322 115.137 78.0378 115.048 77.5957 114.87C77.1582 114.688 76.7845 114.435 76.4746 114.111C76.1693 113.788 75.9346 113.407 75.7705 112.97C75.6064 112.532 75.5244 112.061 75.5244 111.555V111.281C75.5244 110.702 75.6087 110.178 75.7773 109.709C75.946 109.24 76.1807 108.839 76.4814 108.506C76.7822 108.169 77.1377 107.911 77.5479 107.733C77.958 107.556 78.4023 107.467 78.8809 107.467C79.4095 107.467 79.8721 107.556 80.2686 107.733C80.665 107.911 80.9932 108.162 81.2529 108.485C81.5173 108.804 81.7132 109.185 81.8408 109.627C81.973 110.069 82.0391 110.557 82.0391 111.09V111.794H76.3242V110.611H80.4121V110.481C80.403 110.185 80.3438 109.907 80.2344 109.647C80.1296 109.388 79.9678 109.178 79.749 109.019C79.5303 108.859 79.2386 108.779 78.874 108.779C78.6006 108.779 78.3568 108.839 78.1426 108.957C77.9329 109.071 77.7575 109.237 77.6162 109.456C77.4749 109.675 77.3656 109.939 77.2881 110.249C77.2152 110.554 77.1787 110.898 77.1787 111.281V111.555C77.1787 111.878 77.222 112.179 77.3086 112.457C77.3997 112.73 77.5319 112.97 77.7051 113.175C77.8783 113.38 78.0879 113.542 78.334 113.66C78.5801 113.774 78.8604 113.831 79.1748 113.831C79.5713 113.831 79.9245 113.751 80.2344 113.592C80.5443 113.432 80.8132 113.207 81.041 112.915L81.9092 113.756C81.7497 113.988 81.5423 114.212 81.2871 114.426C81.0319 114.635 80.7197 114.806 80.3506 114.938C79.986 115.071 79.5622 115.137 79.0791 115.137ZM85.8027 115H84.1553V106.893C84.1553 106.341 84.2578 105.879 84.4629 105.505C84.6725 105.127 84.971 104.842 85.3584 104.65C85.7458 104.454 86.2038 104.356 86.7324 104.356C86.8965 104.356 87.0583 104.368 87.2178 104.391C87.3773 104.409 87.5322 104.438 87.6826 104.479L87.6416 105.751C87.5505 105.728 87.4502 105.712 87.3408 105.703C87.236 105.694 87.1221 105.689 86.999 105.689C86.7484 105.689 86.5319 105.737 86.3496 105.833C86.1719 105.924 86.0352 106.059 85.9395 106.236C85.8483 106.414 85.8027 106.633 85.8027 106.893V115ZM87.3271 107.604V108.807H83.0205V107.604H87.3271ZM92.1641 107.604V108.807H87.9941V107.604H92.1641ZM89.1973 105.792H90.8447V112.956C90.8447 113.184 90.8766 113.359 90.9404 113.482C91.0088 113.601 91.1022 113.681 91.2207 113.722C91.3392 113.763 91.4782 113.783 91.6377 113.783C91.7516 113.783 91.861 113.776 91.9658 113.763C92.0706 113.749 92.1549 113.735 92.2188 113.722L92.2256 114.979C92.0889 115.021 91.9294 115.057 91.7471 115.089C91.5693 115.121 91.3643 115.137 91.1318 115.137C90.7536 115.137 90.4186 115.071 90.127 114.938C89.8353 114.802 89.6074 114.581 89.4434 114.275C89.2793 113.97 89.1973 113.564 89.1973 113.059V105.792ZM100.443 113.824C100.712 113.824 100.954 113.772 101.168 113.667C101.387 113.558 101.562 113.407 101.694 113.216C101.831 113.024 101.906 112.803 101.92 112.553H103.472C103.463 113.031 103.321 113.466 103.048 113.858C102.774 114.25 102.412 114.562 101.961 114.795C101.51 115.023 101.011 115.137 100.464 115.137C99.8988 115.137 99.4066 115.041 98.9873 114.85C98.568 114.654 98.2194 114.385 97.9414 114.043C97.6634 113.701 97.4538 113.307 97.3125 112.86C97.1758 112.414 97.1074 111.935 97.1074 111.425V111.186C97.1074 110.675 97.1758 110.197 97.3125 109.75C97.4538 109.299 97.6634 108.902 97.9414 108.561C98.2194 108.219 98.568 107.952 98.9873 107.761C99.4066 107.565 99.8965 107.467 100.457 107.467C101.049 107.467 101.569 107.585 102.016 107.822C102.462 108.055 102.813 108.381 103.068 108.8C103.328 109.215 103.463 109.698 103.472 110.249H101.92C101.906 109.976 101.838 109.729 101.715 109.511C101.596 109.287 101.428 109.11 101.209 108.978C100.995 108.845 100.737 108.779 100.437 108.779C100.104 108.779 99.8281 108.848 99.6094 108.984C99.3906 109.117 99.2197 109.299 99.0967 109.531C98.9736 109.759 98.8848 110.017 98.8301 110.304C98.7799 110.586 98.7549 110.88 98.7549 111.186V111.425C98.7549 111.73 98.7799 112.026 98.8301 112.313C98.8802 112.601 98.9668 112.858 99.0898 113.086C99.2174 113.309 99.3906 113.489 99.6094 113.626C99.8281 113.758 100.106 113.824 100.443 113.824ZM104.672 111.384V111.227C104.672 110.693 104.749 110.199 104.904 109.743C105.059 109.283 105.283 108.884 105.574 108.547C105.87 108.205 106.23 107.941 106.654 107.754C107.083 107.562 107.566 107.467 108.104 107.467C108.646 107.467 109.129 107.562 109.553 107.754C109.981 107.941 110.343 108.205 110.64 108.547C110.936 108.884 111.161 109.283 111.316 109.743C111.471 110.199 111.549 110.693 111.549 111.227V111.384C111.549 111.917 111.471 112.411 111.316 112.867C111.161 113.323 110.936 113.722 110.64 114.063C110.343 114.401 109.983 114.665 109.56 114.856C109.136 115.043 108.655 115.137 108.117 115.137C107.575 115.137 107.09 115.043 106.661 114.856C106.237 114.665 105.877 114.401 105.581 114.063C105.285 113.722 105.059 113.323 104.904 112.867C104.749 112.411 104.672 111.917 104.672 111.384ZM106.319 111.227V111.384C106.319 111.716 106.354 112.031 106.422 112.327C106.49 112.623 106.597 112.883 106.743 113.106C106.889 113.33 107.076 113.505 107.304 113.633C107.532 113.76 107.803 113.824 108.117 113.824C108.423 113.824 108.687 113.76 108.91 113.633C109.138 113.505 109.325 113.33 109.471 113.106C109.617 112.883 109.724 112.623 109.792 112.327C109.865 112.031 109.901 111.716 109.901 111.384V111.227C109.901 110.898 109.865 110.589 109.792 110.297C109.724 110.001 109.614 109.739 109.464 109.511C109.318 109.283 109.131 109.105 108.903 108.978C108.68 108.845 108.413 108.779 108.104 108.779C107.794 108.779 107.525 108.845 107.297 108.978C107.074 109.105 106.889 109.283 106.743 109.511C106.597 109.739 106.49 110.001 106.422 110.297C106.354 110.589 106.319 110.898 106.319 111.227ZM114.834 109.012V115H113.187V107.604H114.759L114.834 109.012ZM117.097 107.556L117.083 109.087C116.983 109.069 116.873 109.055 116.755 109.046C116.641 109.037 116.527 109.032 116.413 109.032C116.131 109.032 115.882 109.073 115.668 109.155C115.454 109.233 115.274 109.347 115.128 109.497C114.987 109.643 114.877 109.821 114.8 110.03C114.722 110.24 114.677 110.475 114.663 110.734L114.287 110.762C114.287 110.297 114.333 109.866 114.424 109.47C114.515 109.073 114.652 108.725 114.834 108.424C115.021 108.123 115.253 107.888 115.531 107.72C115.814 107.551 116.14 107.467 116.509 107.467C116.609 107.467 116.716 107.476 116.83 107.494C116.949 107.512 117.037 107.533 117.097 107.556ZM120.013 109.183V115H118.365V107.604H119.917L120.013 109.183ZM119.719 111.028L119.186 111.021C119.19 110.497 119.263 110.017 119.404 109.579C119.55 109.142 119.751 108.766 120.006 108.451C120.266 108.137 120.576 107.895 120.936 107.727C121.296 107.553 121.697 107.467 122.139 107.467C122.494 107.467 122.815 107.517 123.103 107.617C123.394 107.713 123.643 107.87 123.848 108.089C124.057 108.308 124.217 108.592 124.326 108.943C124.436 109.29 124.49 109.716 124.49 110.222V115H122.836V110.215C122.836 109.859 122.784 109.579 122.679 109.374C122.578 109.164 122.43 109.016 122.234 108.93C122.043 108.839 121.804 108.793 121.517 108.793C121.234 108.793 120.981 108.852 120.758 108.971C120.535 109.089 120.345 109.251 120.19 109.456C120.04 109.661 119.924 109.898 119.842 110.167C119.76 110.436 119.719 110.723 119.719 111.028ZM129.683 115.137C129.136 115.137 128.641 115.048 128.199 114.87C127.762 114.688 127.388 114.435 127.078 114.111C126.773 113.788 126.538 113.407 126.374 112.97C126.21 112.532 126.128 112.061 126.128 111.555V111.281C126.128 110.702 126.212 110.178 126.381 109.709C126.549 109.24 126.784 108.839 127.085 108.506C127.386 108.169 127.741 107.911 128.151 107.733C128.562 107.556 129.006 107.467 129.484 107.467C130.013 107.467 130.476 107.556 130.872 107.733C131.269 107.911 131.597 108.162 131.856 108.485C132.121 108.804 132.317 109.185 132.444 109.627C132.576 110.069 132.643 110.557 132.643 111.09V111.794H126.928V110.611H131.016V110.481C131.007 110.185 130.947 109.907 130.838 109.647C130.733 109.388 130.571 109.178 130.353 109.019C130.134 108.859 129.842 108.779 129.478 108.779C129.204 108.779 128.96 108.839 128.746 108.957C128.536 109.071 128.361 109.237 128.22 109.456C128.078 109.675 127.969 109.939 127.892 110.249C127.819 110.554 127.782 110.898 127.782 111.281V111.555C127.782 111.878 127.826 112.179 127.912 112.457C128.003 112.73 128.135 112.97 128.309 113.175C128.482 113.38 128.691 113.542 128.938 113.66C129.184 113.774 129.464 113.831 129.778 113.831C130.175 113.831 130.528 113.751 130.838 113.592C131.148 113.432 131.417 113.207 131.645 112.915L132.513 113.756C132.353 113.988 132.146 114.212 131.891 114.426C131.635 114.635 131.323 114.806 130.954 114.938C130.59 115.071 130.166 115.137 129.683 115.137ZM135.832 109.012V115H134.185V107.604H135.757L135.832 109.012ZM138.095 107.556L138.081 109.087C137.981 109.069 137.871 109.055 137.753 109.046C137.639 109.037 137.525 109.032 137.411 109.032C137.129 109.032 136.88 109.073 136.666 109.155C136.452 109.233 136.272 109.347 136.126 109.497C135.985 109.643 135.875 109.821 135.798 110.03C135.72 110.24 135.675 110.475 135.661 110.734L135.285 110.762C135.285 110.297 135.331 109.866 135.422 109.47C135.513 109.073 135.65 108.725 135.832 108.424C136.019 108.123 136.251 107.888 136.529 107.72C136.812 107.551 137.138 107.467 137.507 107.467C137.607 107.467 137.714 107.476 137.828 107.494C137.947 107.512 138.035 107.533 138.095 107.556Z" fill="white"/>
<path d="M23.6699 131.5V131.969C23.6699 132.613 23.5859 133.191 23.418 133.703C23.25 134.215 23.0098 134.65 22.6973 135.01C22.3887 135.369 22.0176 135.645 21.584 135.836C21.1504 136.023 20.6699 136.117 20.1426 136.117C19.6191 136.117 19.1406 136.023 18.707 135.836C18.2773 135.645 17.9043 135.369 17.5879 135.01C17.2715 134.65 17.0254 134.215 16.8496 133.703C16.6777 133.191 16.5918 132.613 16.5918 131.969V131.5C16.5918 130.855 16.6777 130.279 16.8496 129.771C17.0215 129.26 17.2637 128.824 17.5762 128.465C17.8926 128.102 18.2656 127.826 18.6953 127.639C19.1289 127.447 19.6074 127.352 20.1309 127.352C20.6582 127.352 21.1387 127.447 21.5723 127.639C22.0059 127.826 22.3789 128.102 22.6914 128.465C23.0039 128.824 23.2441 129.26 23.4121 129.771C23.584 130.279 23.6699 130.855 23.6699 131.5ZM22.1992 131.969V131.488C22.1992 131.012 22.1523 130.592 22.0586 130.229C21.9688 129.861 21.834 129.555 21.6543 129.309C21.4785 129.059 21.2617 128.871 21.0039 128.746C20.7461 128.617 20.4551 128.553 20.1309 128.553C19.8066 128.553 19.5176 128.617 19.2637 128.746C19.0098 128.871 18.793 129.059 18.6133 129.309C18.4375 129.555 18.3027 129.861 18.209 130.229C18.1152 130.592 18.0684 131.012 18.0684 131.488V131.969C18.0684 132.445 18.1152 132.867 18.209 133.234C18.3027 133.602 18.4395 133.912 18.6191 134.166C18.8027 134.416 19.0215 134.605 19.2754 134.734C19.5293 134.859 19.8184 134.922 20.1426 134.922C20.4707 134.922 20.7617 134.859 21.0156 134.734C21.2695 134.605 21.4844 134.416 21.6602 134.166C21.8359 133.912 21.9688 133.602 22.0586 133.234C22.1523 132.867 22.1992 132.445 22.1992 131.969ZM28.8809 132.818H26.6602V131.652H28.8809C29.2676 131.652 29.5801 131.59 29.8184 131.465C30.0566 131.34 30.2305 131.168 30.3398 130.949C30.4531 130.727 30.5098 130.473 30.5098 130.188C30.5098 129.918 30.4531 129.666 30.3398 129.432C30.2305 129.193 30.0566 129.002 29.8184 128.857C29.5801 128.713 29.2676 128.641 28.8809 128.641H27.1113V136H25.6406V127.469H28.8809C29.541 127.469 30.1016 127.586 30.5625 127.82C31.0273 128.051 31.3809 128.371 31.623 128.781C31.8652 129.188 31.9863 129.652 31.9863 130.176C31.9863 130.727 31.8652 131.199 31.623 131.594C31.3809 131.988 31.0273 132.291 30.5625 132.502C30.1016 132.713 29.541 132.818 28.8809 132.818ZM39.3887 134.834V136H34.8594V134.834H39.3887ZM35.2754 127.469V136H33.8047V127.469H35.2754ZM38.7969 131.031V132.18H34.8594V131.031H38.7969ZM39.3594 127.469V128.641H34.8594V127.469H39.3594ZM47.8574 127.469V136H46.3867L42.5605 129.889V136H41.0898V127.469H42.5605L46.3984 133.592V127.469H47.8574ZM55.6934 134.834V136H51.1641V134.834H55.6934ZM51.5801 127.469V136H50.1094V127.469H51.5801ZM55.1016 131.031V132.18H51.1641V131.031H55.1016ZM55.6641 127.469V128.641H51.1641V127.469H55.6641ZM59.873 136H58.0508L58.0625 134.834H59.873C60.4004 134.834 60.8418 134.719 61.1973 134.488C61.5566 134.258 61.8262 133.928 62.0059 133.498C62.1895 133.068 62.2812 132.557 62.2812 131.963V131.5C62.2812 131.039 62.2285 130.631 62.123 130.275C62.0215 129.92 61.8691 129.621 61.666 129.379C61.4668 129.137 61.2207 128.953 60.9277 128.828C60.6387 128.703 60.3047 128.641 59.9258 128.641H58.0156V127.469H59.9258C60.4922 127.469 61.0098 127.564 61.4785 127.756C61.9473 127.943 62.3516 128.215 62.6914 128.57C63.0352 128.926 63.2988 129.352 63.4824 129.848C63.666 130.344 63.7578 130.898 63.7578 131.512V131.963C63.7578 132.576 63.666 133.131 63.4824 133.627C63.2988 134.123 63.0352 134.549 62.6914 134.904C62.3477 135.256 61.9375 135.527 61.4609 135.719C60.9883 135.906 60.459 136 59.873 136ZM58.8652 127.469V136H57.3945V127.469H58.8652Z" fill="white" fill-opacity="0.8"/>
</svg>
