<svg width="86" height="40" viewBox="0 0 86 40" fill="none" xmlns="http://www.w3.org/2000/svg">
<g clip-path="url(#clip0_17666_12140)">
<path d="M5.08331 3.33333C5.08331 1.49238 6.5757 0 8.41665 0H82.5833C84.4243 0 85.9166 1.49238 85.9166 3.33333V31.6667C85.9166 33.5076 84.4243 35 82.5833 35H8.41665C6.5757 35 5.08331 33.5076 5.08331 31.6667V3.33333Z" fill="#FCC765"/>
<path d="M82.5833 34.1667V35H8.41665V34.1667H82.5833ZM85.0833 31.6667V3.33333C85.0833 1.95262 83.964 0.833333 82.5833 0.833333H8.41665C7.03593 0.833333 5.91665 1.95262 5.91665 3.33333V31.6667C5.91665 33.0474 7.03593 34.1667 8.41665 34.1667V35C6.63328 35 5.17674 33.5995 5.08738 31.8384L5.08331 31.6667V3.33333C5.08331 1.54997 6.48378 0.0934288 8.24493 0.00406901L8.41665 0H82.5833L82.755 0.00406901C84.5162 0.0934289 85.9166 1.54997 85.9166 3.33333V31.6667C85.9166 33.5076 84.4243 35 82.5833 35V34.1667C83.964 34.1667 85.0833 33.0474 85.0833 31.6667Z" fill="black" fill-opacity="0.5"/>
<path d="M2.58331 5.83333C2.58331 3.99238 4.0757 2.5 5.91665 2.5H80.0833C81.9243 2.5 83.4166 3.99238 83.4166 5.83333V34.1667C83.4166 36.0076 81.9243 37.5 80.0833 37.5H5.91665C4.0757 37.5 2.58331 36.0076 2.58331 34.1667V5.83333Z" fill="#FCC765"/>
<path d="M80.0833 36.6667V37.5H5.91665V36.6667H80.0833ZM82.5833 34.1667V5.83333C82.5833 4.45262 81.464 3.33333 80.0833 3.33333H5.91665C4.53593 3.33333 3.41665 4.45262 3.41665 5.83333V34.1667C3.41665 35.5474 4.53593 36.6667 5.91665 36.6667V37.5C4.13328 37.5 2.67674 36.0995 2.58738 34.3384L2.58331 34.1667V5.83333C2.58331 4.04997 3.98378 2.59343 5.74493 2.50407L5.91665 2.5H80.0833L80.255 2.50407C82.0162 2.59343 83.4166 4.04997 83.4166 5.83333V34.1667C83.4166 36.0076 81.9243 37.5 80.0833 37.5V36.6667C81.464 36.6667 82.5833 35.5474 82.5833 34.1667Z" fill="black" fill-opacity="0.5"/>
<path d="M0.083313 8.33333C0.083313 6.49238 1.5757 5 3.41665 5H77.5833C79.4243 5 80.9166 6.49238 80.9166 8.33333V36.6667C80.9166 38.5076 79.4243 40 77.5833 40H3.41665C1.5757 40 0.083313 38.5076 0.083313 36.6667V8.33333Z" fill="#FCC765"/>
<path d="M77.5833 39.1667V40H3.41665V39.1667H77.5833ZM80.0833 36.6667V8.33333C80.0833 6.95262 78.964 5.83333 77.5833 5.83333H3.41665C2.03593 5.83333 0.916646 6.95262 0.916646 8.33333V36.6667C0.916646 38.0474 2.03593 39.1667 3.41665 39.1667V40C1.63328 40 0.176742 38.5995 0.087382 36.8384L0.083313 36.6667V8.33333C0.083313 6.54997 1.48378 5.09343 3.24493 5.00407L3.41665 5H77.5833L77.755 5.00407C79.5162 5.09343 80.9166 6.54997 80.9166 8.33333V36.6667C80.9166 38.5076 79.4243 40 77.5833 40V39.1667C78.964 39.1667 80.0833 38.0474 80.0833 36.6667Z" fill="black" fill-opacity="0.5"/>
<path d="M16.9583 27.5H14.1458C13.1958 27.5 12.3854 27.1729 11.7146 26.5188C11.0437 25.8604 10.7083 25.0583 10.7083 24.1125C10.7083 23.3 10.9521 22.575 11.4396 21.9375C11.9312 21.3 12.5729 20.8937 13.3646 20.7187C13.6271 19.7604 14.1479 18.9854 14.9271 18.3937C15.7104 17.7979 16.5958 17.5 17.5833 17.5C18.8041 17.5 19.8375 17.925 20.6833 18.775C21.5333 19.6208 21.9583 20.6542 21.9583 21.875C22.6791 21.9583 23.275 22.2708 23.7458 22.8125C24.2208 23.3458 24.4583 23.9708 24.4583 24.6875C24.4583 25.4708 24.1854 26.1354 23.6396 26.6812C23.0937 27.2271 22.4291 27.5 21.6458 27.5H18.2083V23.0312L19.2083 24L20.0833 23.125L17.5833 20.625L15.0833 23.125L15.9583 24L16.9583 23.0312V27.5Z" fill="black" fill-opacity="0.76"/>
<path d="M70.1045 17.917V26.667H68.7259V17.917H70.1045Z" fill="black" fill-opacity="0.76"/>
<path d="M65.8206 25.4312V22.4917C65.8206 22.2714 65.7807 22.0815 65.701 21.922C65.6212 21.7625 65.4997 21.6391 65.3364 21.5518C65.1769 21.4644 64.9756 21.4207 64.7326 21.4207C64.5085 21.4207 64.3148 21.4587 64.1515 21.5347C63.9882 21.6106 63.861 21.7132 63.7698 21.8423C63.6787 21.9714 63.6331 22.1176 63.6331 22.2809H62.2659C62.2659 22.0379 62.3248 21.8024 62.4425 21.5745C62.5603 21.3467 62.7312 21.1435 62.9552 20.965C63.1793 20.7865 63.447 20.646 63.7584 20.5435C64.0699 20.4409 64.4192 20.3896 64.8066 20.3896C65.2699 20.3896 65.6801 20.4675 66.0371 20.6232C66.3979 20.7789 66.6808 21.0144 66.8859 21.3296C67.0948 21.641 67.1992 22.0322 67.1992 22.5031V25.2432C67.1992 25.5242 67.2182 25.7767 67.2562 26.0008C67.2979 26.2211 67.3568 26.4129 67.4328 26.5762V26.6673H66.0257C65.9611 26.5192 65.9099 26.3312 65.8719 26.1034C65.8377 25.8717 65.8206 25.6476 65.8206 25.4312ZM66.02 22.9189L66.0314 23.7677H65.0459C64.7914 23.7677 64.5674 23.7924 64.3737 23.8418C64.18 23.8874 64.0186 23.9557 63.8895 24.0469C63.7603 24.138 63.6635 24.2482 63.5989 24.3773C63.5344 24.5064 63.5021 24.6526 63.5021 24.8159C63.5021 24.9792 63.5401 25.1292 63.616 25.266C63.692 25.3989 63.8021 25.5033 63.9464 25.5793C64.0945 25.6552 64.273 25.6932 64.4819 25.6932C64.7629 25.6932 65.0079 25.6362 65.2168 25.5223C65.4294 25.4046 65.5965 25.2622 65.7181 25.0951C65.8396 24.9242 65.9042 24.7627 65.9118 24.6108L66.3561 25.2204C66.3105 25.3761 66.2327 25.5432 66.1225 25.7217C66.0124 25.9002 65.8681 26.0711 65.6896 26.2344C65.5149 26.3939 65.3041 26.5249 65.0573 26.6274C64.8142 26.73 64.5332 26.7812 64.2142 26.7812C63.8116 26.7812 63.4527 26.7015 63.1375 26.542C62.8223 26.3787 62.5754 26.1603 62.397 25.8869C62.2185 25.6096 62.1292 25.2963 62.1292 24.9469C62.1292 24.6203 62.19 24.3317 62.3115 24.0811C62.4368 23.8266 62.6191 23.6139 62.8584 23.443C63.1014 23.2721 63.3977 23.143 63.747 23.0557C64.0964 22.9645 64.4952 22.9189 64.9433 22.9189H66.02Z" fill="black" fill-opacity="0.76"/>
<path d="M57.213 21.8195V26.6673H55.8401V20.5036H57.1333L57.213 21.8195ZM56.9681 23.3576L56.5237 23.3519C56.5275 22.9151 56.5883 22.5145 56.706 22.1499C56.8276 21.7853 56.9947 21.472 57.2073 21.21C57.4238 20.9479 57.6821 20.7466 57.9821 20.6061C58.2821 20.4618 58.6163 20.3896 58.9847 20.3896C59.2809 20.3896 59.5486 20.4314 59.7879 20.515C60.031 20.5947 60.2379 20.7257 60.4088 20.908C60.5835 21.0903 60.7164 21.3277 60.8076 21.6201C60.8987 21.9087 60.9443 22.2638 60.9443 22.6854V26.6673H59.5657V22.6797C59.5657 22.3835 59.5221 22.1499 59.4347 21.979C59.3512 21.8043 59.2277 21.6809 59.0644 21.6087C58.9049 21.5328 58.7055 21.4948 58.4663 21.4948C58.2308 21.4948 58.0201 21.5442 57.834 21.6429C57.6479 21.7416 57.4903 21.8765 57.3611 22.0474C57.2358 22.2183 57.139 22.4157 57.0706 22.6398C57.0023 22.8639 56.9681 23.1031 56.9681 23.3576Z" fill="black" fill-opacity="0.76"/>
<path d="M53.1058 21.6771V26.6673H51.7329V20.5036H53.0431L53.1058 21.6771ZM54.9914 20.4637L54.98 21.7397C54.8964 21.7246 54.8053 21.7132 54.7065 21.7056C54.6116 21.698 54.5167 21.6942 54.4217 21.6942C54.1863 21.6942 53.9793 21.7284 53.8008 21.7967C53.6223 21.8613 53.4723 21.9562 53.3507 22.0815C53.233 22.2031 53.1419 22.3512 53.0773 22.5259C53.0127 22.7006 52.9748 22.8962 52.9634 23.1126L52.6501 23.1354C52.6501 22.748 52.688 22.3892 52.764 22.0588C52.84 21.7284 52.9539 21.4378 53.1058 21.1872C53.2615 20.9365 53.4552 20.7409 53.6868 20.6004C53.9223 20.4599 54.1938 20.3896 54.5015 20.3896C54.585 20.3896 54.6743 20.3972 54.7692 20.4124C54.8679 20.4276 54.942 20.4447 54.9914 20.4637Z" fill="black" fill-opacity="0.76"/>
<path d="M48.1896 26.7812C47.7339 26.7812 47.3218 26.7072 46.9534 26.5591C46.5888 26.4072 46.2774 26.1964 46.0192 25.9268C45.7647 25.6571 45.5692 25.34 45.4324 24.9754C45.2957 24.6108 45.2274 24.2178 45.2274 23.7962V23.5684C45.2274 23.086 45.2976 22.6493 45.4381 22.2581C45.5786 21.867 45.7742 21.5328 46.0249 21.2555C46.2755 20.9745 46.5718 20.7599 46.9136 20.6118C47.2553 20.4637 47.6256 20.3896 48.0244 20.3896C48.4649 20.3896 48.8504 20.4637 49.1808 20.6118C49.5112 20.7599 49.7846 20.9688 50.0011 21.2384C50.2214 21.5043 50.3847 21.8214 50.491 22.1898C50.6012 22.5582 50.6562 22.9645 50.6562 23.4089V23.9956H45.8939V23.0101H49.3004V22.9019C49.2928 22.655 49.2435 22.4233 49.1523 22.2069C49.065 21.9904 48.9302 21.8157 48.7479 21.6828C48.5656 21.5499 48.3225 21.4834 48.0187 21.4834C47.7908 21.4834 47.5877 21.5328 47.4092 21.6315C47.2345 21.7265 47.0882 21.8651 46.9705 22.0474C46.8528 22.2297 46.7616 22.4499 46.6971 22.7082C46.6363 22.9626 46.6059 23.2493 46.6059 23.5684V23.7962C46.6059 24.0659 46.642 24.3165 46.7142 24.5482C46.7901 24.776 46.9003 24.9754 47.0446 25.1463C47.1889 25.3172 47.3636 25.452 47.5687 25.5508C47.7737 25.6457 48.0073 25.6932 48.2693 25.6932C48.5998 25.6932 48.8941 25.6267 49.1523 25.4938C49.4106 25.3609 49.6346 25.1729 49.8245 24.9299L50.548 25.6305C50.4151 25.8242 50.2423 26.0103 50.0296 26.1888C49.8169 26.3635 49.5568 26.5059 49.2492 26.616C48.9453 26.7262 48.5922 26.7812 48.1896 26.7812Z" fill="black" fill-opacity="0.76"/>
<path d="M44.4127 20.5037V21.5063H40.9378V20.5037H44.4127ZM41.9404 18.9941H43.3133V24.9642C43.3133 25.1541 43.3399 25.3003 43.393 25.4028C43.45 25.5016 43.5279 25.568 43.6266 25.6022C43.7253 25.6364 43.8412 25.6535 43.9741 25.6535C44.069 25.6535 44.1602 25.6478 44.2475 25.6364C44.3349 25.625 44.4051 25.6136 44.4583 25.6022L44.464 26.6504C44.3501 26.6846 44.2172 26.715 44.0652 26.7415C43.9171 26.7681 43.7462 26.7814 43.5526 26.7814C43.2373 26.7814 42.9582 26.7263 42.7151 26.6162C42.4721 26.5023 42.2822 26.3181 42.1455 26.0636C42.0088 25.8092 41.9404 25.4712 41.9404 25.0496V18.9941Z" fill="black" fill-opacity="0.76"/>
<path d="M36.7679 20.5029L37.9414 22.548L39.1377 20.5029H40.6473L38.7788 23.5278L40.7214 26.6667H39.2117L37.9585 24.5361L36.7052 26.6667H35.1899L37.1268 23.5278L35.264 20.5029H36.7679Z" fill="black" fill-opacity="0.76"/>
<path d="M34.6886 25.5337V26.6673H30.2852V25.5337H34.6886ZM30.6896 18.373V26.6673H29.2598V18.373H30.6896ZM34.1133 21.8366V22.9531H30.2852V21.8366H34.1133ZM34.6602 18.373V19.5124H30.2852V18.373H34.6602Z" fill="black" fill-opacity="0.76"/>
</g>
<defs>
<clipPath id="clip0_17666_12140">
<rect width="85.8333" height="40" fill="white" transform="translate(0.083313)"/>
</clipPath>
</defs>
</svg>
