<svg width="92" height="40" viewBox="0 0 92 40" fill="none" xmlns="http://www.w3.org/2000/svg">
<g clip-path="url(#clip0_17666_12112)">
<path d="M5.16663 3.33333C5.16663 1.49238 6.65901 0 8.49996 0H88.5C90.3409 0 91.8333 1.49238 91.8333 3.33333V31.6667C91.8333 33.5076 90.3409 35 88.5 35H8.49996C6.65901 35 5.16663 33.5076 5.16663 31.6667V3.33333Z" fill="#30D2CC"/>
<path d="M88.5 34.1667V35H8.49996V34.1667H88.5ZM91 31.6667V3.33333C91 1.95262 89.8807 0.833335 88.5 0.833333H8.49996C7.11925 0.833333 5.99996 1.95262 5.99996 3.33333V31.6667C5.99996 33.0474 7.11925 34.1667 8.49996 34.1667V35C6.7166 35 5.26005 33.5995 5.17069 31.8384L5.16663 31.6667V3.33333C5.16663 1.49238 6.65901 6.711e-08 8.49996 0H88.5L88.6717 0.00406901C90.4328 0.09343 91.8333 1.54997 91.8333 3.33333V31.6667C91.8333 33.45 90.4328 34.9066 88.6717 34.9959L88.5 35V34.1667C89.8807 34.1667 91 33.0474 91 31.6667Z" fill="black" fill-opacity="0.5"/>
<path d="M2.66663 5.83333C2.66663 3.99238 4.15901 2.5 5.99996 2.5H86C87.8409 2.5 89.3333 3.99238 89.3333 5.83333V34.1667C89.3333 36.0076 87.8409 37.5 86 37.5H5.99996C4.15901 37.5 2.66663 36.0076 2.66663 34.1667V5.83333Z" fill="#30D2CC"/>
<path d="M86 36.6667V37.5H5.99996V36.6667H86ZM88.5 34.1667V5.83333C88.5 4.45262 87.3807 3.33333 86 3.33333H5.99996C4.61925 3.33333 3.49996 4.45262 3.49996 5.83333V34.1667C3.49996 35.5474 4.61925 36.6667 5.99996 36.6667V37.5C4.2166 37.5 2.76005 36.0995 2.67069 34.3384L2.66663 34.1667V5.83333C2.66663 3.99238 4.15901 2.5 5.99996 2.5H86L86.1717 2.50407C87.9328 2.59343 89.3333 4.04997 89.3333 5.83333V34.1667C89.3333 35.95 87.9328 37.4066 86.1717 37.4959L86 37.5V36.6667C87.3807 36.6667 88.5 35.5474 88.5 34.1667Z" fill="black" fill-opacity="0.5"/>
<path d="M0.166626 8.33333C0.166626 6.49238 1.65901 5 3.49996 5H83.5C85.3409 5 86.8333 6.49238 86.8333 8.33333V36.6667C86.8333 38.5076 85.3409 40 83.5 40H3.49996C1.65901 40 0.166626 38.5076 0.166626 36.6667V8.33333Z" fill="#30D2CC"/>
<path d="M83.5 39.1667V40H3.49996V39.1667H83.5ZM86 36.6667V8.33333C86 6.95262 84.8807 5.83333 83.5 5.83333H3.49996C2.11925 5.83333 0.999959 6.95262 0.999959 8.33333V36.6667C0.999959 38.0474 2.11925 39.1667 3.49996 39.1667V40C1.7166 40 0.260055 38.5995 0.170695 36.8384L0.166626 36.6667V8.33333C0.166626 6.49238 1.65901 5 3.49996 5H83.5L83.6717 5.00407C85.4328 5.09343 86.8333 6.54997 86.8333 8.33333V36.6667C86.8333 38.45 85.4328 39.9066 83.6717 39.9959L83.5 40V39.1667C84.8807 39.1667 86 38.0474 86 36.6667Z" fill="black" fill-opacity="0.5"/>
<path d="M21.4166 18.75H15.6854L19.4354 22.5L15.6854 26.25H21.4166V27.5H13.9166V26.25L17.6666 22.5L13.9166 18.75V17.5H21.4166V18.75Z" fill="black" fill-opacity="0.76"/>
<path d="M74.728 24.9982C74.728 24.8615 74.6938 24.7381 74.6254 24.6279C74.5571 24.514 74.4261 24.4115 74.2324 24.3203C74.0425 24.2292 73.7615 24.1456 73.3893 24.0697C73.0627 23.9975 72.7627 23.9121 72.4892 23.8133C72.2196 23.7108 71.9879 23.5873 71.7942 23.443C71.6005 23.2987 71.4505 23.1278 71.3442 22.9303C71.2379 22.7329 71.1847 22.505 71.1847 22.2467C71.1847 21.9961 71.2398 21.7587 71.3499 21.5347C71.46 21.3106 71.6176 21.1131 71.8227 20.9422C72.0278 20.7713 72.2765 20.6365 72.569 20.5378C72.8652 20.439 73.1956 20.3896 73.5602 20.3896C74.0767 20.3896 74.5191 20.477 74.8875 20.6517C75.2597 20.8226 75.5445 21.0562 75.742 21.3524C75.9395 21.6448 76.0382 21.9752 76.0382 22.3436H74.6653C74.6653 22.1803 74.6235 22.0284 74.54 21.8879C74.4602 21.7435 74.3387 21.6277 74.1754 21.5404C74.0121 21.4492 73.807 21.4036 73.5602 21.4036C73.3247 21.4036 73.1291 21.4416 72.9734 21.5176C72.8215 21.5897 72.7076 21.6847 72.6316 21.8024C72.5595 21.9201 72.5234 22.0493 72.5234 22.1898C72.5234 22.2923 72.5424 22.3854 72.5804 22.4689C72.6221 22.5487 72.6905 22.6227 72.7854 22.6911C72.8804 22.7556 73.0095 22.8164 73.1728 22.8734C73.3399 22.9303 73.5488 22.9854 73.7994 23.0386C74.2704 23.1373 74.6748 23.2645 75.0128 23.4202C75.3546 23.5722 75.6167 23.7696 75.799 24.0127C75.9812 24.252 76.0724 24.5558 76.0724 24.9242C76.0724 25.1976 76.0135 25.4482 75.8958 25.6761C75.7819 25.9002 75.6148 26.0958 75.3945 26.2629C75.1742 26.4262 74.9103 26.5534 74.6027 26.6445C74.2988 26.7357 73.957 26.7812 73.5773 26.7812C73.019 26.7812 72.5462 26.6825 72.1588 26.485C71.7714 26.2837 71.4771 26.0274 71.2758 25.716C71.0784 25.4008 70.9796 25.0742 70.9796 24.7362H72.3069C72.3221 24.9906 72.3924 25.1938 72.5177 25.3457C72.6468 25.4938 72.8063 25.6021 72.9962 25.6704C73.1899 25.735 73.3893 25.7673 73.5944 25.7673C73.8412 25.7673 74.0482 25.735 74.2153 25.6704C74.3824 25.6021 74.5096 25.5109 74.597 25.397C74.6843 25.2792 74.728 25.1463 74.728 24.9982Z" fill="black" fill-opacity="0.76"/>
<path d="M67.6927 25.6875C67.9167 25.6875 68.118 25.6438 68.2965 25.5565C68.4788 25.4653 68.625 25.34 68.7352 25.1805C68.8491 25.021 68.9117 24.8368 68.9231 24.6279H70.2163C70.2087 25.0267 70.0909 25.3894 69.8631 25.716C69.6352 26.0426 69.3333 26.3027 68.9573 26.4964C68.5813 26.6863 68.1655 26.7812 67.7098 26.7812C67.2388 26.7812 66.8287 26.7015 66.4793 26.542C66.1299 26.3787 65.8394 26.1546 65.6077 25.8698C65.376 25.585 65.2013 25.2565 65.0836 24.8843C64.9697 24.5121 64.9127 24.1133 64.9127 23.688V23.4886C64.9127 23.0633 64.9697 22.6645 65.0836 22.2923C65.2013 21.9163 65.376 21.5859 65.6077 21.3011C65.8394 21.0163 66.1299 20.7941 66.4793 20.6346C66.8287 20.4713 67.2369 20.3896 67.7041 20.3896C68.1978 20.3896 68.6307 20.4884 69.0029 20.6859C69.3751 20.8796 69.6675 21.1511 69.8802 21.5005C70.0966 21.8461 70.2087 22.2486 70.2163 22.7082H68.9231C68.9117 22.4803 68.8548 22.2752 68.7522 22.0929C68.6535 21.9068 68.513 21.7587 68.3307 21.6486C68.1522 21.5385 67.9376 21.4834 67.687 21.4834C67.4097 21.4834 67.18 21.5404 66.9977 21.6543C66.8154 21.7644 66.673 21.9163 66.5704 22.11C66.4679 22.2999 66.3938 22.5145 66.3483 22.7537C66.3065 22.9892 66.2856 23.2342 66.2856 23.4886V23.688C66.2856 23.9424 66.3065 24.1893 66.3483 24.4285C66.39 24.6678 66.4622 24.8824 66.5647 25.0723C66.6711 25.2584 66.8154 25.4084 66.9977 25.5223C67.18 25.6324 67.4116 25.6875 67.6927 25.6875Z" fill="black" fill-opacity="0.76"/>
<path d="M63.6709 20.5033V26.667H62.2923V20.5033H63.6709ZM62.2012 18.8854C62.2012 18.6765 62.2695 18.5037 62.4063 18.367C62.5468 18.2265 62.7405 18.1562 62.9873 18.1562C63.2304 18.1562 63.4221 18.2265 63.5627 18.367C63.7032 18.5037 63.7734 18.6765 63.7734 18.8854C63.7734 19.0905 63.7032 19.2614 63.5627 19.3981C63.4221 19.5348 63.2304 19.6032 62.9873 19.6032C62.7405 19.6032 62.5468 19.5348 62.4063 19.3981C62.2695 19.2614 62.2012 19.0905 62.2012 18.8854Z" fill="black" fill-opacity="0.76"/>
<path d="M61.1416 20.5037V21.5063H57.6666V20.5037H61.1416ZM58.6692 18.9941H60.0421V24.9642C60.0421 25.1541 60.0687 25.3003 60.1219 25.4028C60.1788 25.5016 60.2567 25.568 60.3554 25.6022C60.4542 25.6364 60.57 25.6535 60.7029 25.6535C60.7979 25.6535 60.889 25.6478 60.9764 25.6364C61.0637 25.625 61.134 25.6136 61.1871 25.6022L61.1928 26.6504C61.0789 26.6846 60.946 26.715 60.7941 26.7415C60.646 26.7681 60.4751 26.7814 60.2814 26.7814C59.9662 26.7814 59.687 26.7263 59.444 26.6162C59.2009 26.5023 59.011 26.3181 58.8743 26.0636C58.7376 25.8092 58.6692 25.4712 58.6692 25.0496V18.9941Z" fill="black" fill-opacity="0.76"/>
<path d="M54.3854 25.9945L56.0602 20.5029H57.5299L55.0576 27.6066C55.0006 27.7585 54.9266 27.9237 54.8354 28.1022C54.7443 28.2807 54.6246 28.4497 54.4765 28.6092C54.3322 28.7725 54.1518 28.9035 53.9353 29.0023C53.7189 29.1048 53.4568 29.1561 53.1492 29.1561C53.0277 29.1561 52.91 29.1447 52.796 29.1219C52.6859 29.1029 52.5814 29.082 52.4827 29.0592L52.477 28.0111C52.515 28.0149 52.5606 28.0187 52.6137 28.0225C52.6707 28.0263 52.7163 28.0282 52.7504 28.0282C52.9783 28.0282 53.1682 27.9997 53.3201 27.9427C53.472 27.8895 53.5954 27.8022 53.6904 27.6807C53.7891 27.5591 53.8727 27.3958 53.941 27.1908L54.3854 25.9945ZM53.4397 20.5029L54.9038 25.1172L55.1487 26.5641L54.1974 26.8091L51.9586 20.5029H53.4397Z" fill="black" fill-opacity="0.76"/>
<path d="M51.0927 17.917V26.667H49.7141V17.917H51.0927Z" fill="black" fill-opacity="0.76"/>
<path d="M46.8088 25.4312V22.4917C46.8088 22.2714 46.769 22.0815 46.6892 21.922C46.6095 21.7625 46.4879 21.6391 46.3246 21.5518C46.1651 21.4644 45.9638 21.4207 45.7208 21.4207C45.4967 21.4207 45.303 21.4587 45.1397 21.5347C44.9764 21.6106 44.8492 21.7132 44.7581 21.8423C44.6669 21.9714 44.6213 22.1176 44.6213 22.2809H43.2542C43.2542 22.0379 43.313 21.8024 43.4307 21.5745C43.5485 21.3467 43.7194 21.1435 43.9434 20.965C44.1675 20.7865 44.4352 20.646 44.7467 20.5435C45.0581 20.4409 45.4075 20.3896 45.7948 20.3896C46.2582 20.3896 46.6683 20.4675 47.0253 20.6232C47.3861 20.7789 47.669 21.0144 47.8741 21.3296C48.083 21.641 48.1874 22.0322 48.1874 22.5031V25.2432C48.1874 25.5242 48.2064 25.7767 48.2444 26.0008C48.2862 26.2211 48.345 26.4129 48.421 26.5762V26.6673H47.0139C46.9494 26.5192 46.8981 26.3312 46.8601 26.1034C46.8259 25.8717 46.8088 25.6476 46.8088 25.4312ZM47.0082 22.9189L47.0196 23.7677H46.0341C45.7797 23.7677 45.5556 23.7924 45.3619 23.8418C45.1682 23.8874 45.0068 23.9557 44.8777 24.0469C44.7486 24.138 44.6517 24.2482 44.5872 24.3773C44.5226 24.5064 44.4903 24.6526 44.4903 24.8159C44.4903 24.9792 44.5283 25.1292 44.6042 25.266C44.6802 25.3989 44.7903 25.5033 44.9347 25.5793C45.0828 25.6552 45.2613 25.6932 45.4701 25.6932C45.7512 25.6932 45.9961 25.6362 46.205 25.5223C46.4177 25.4046 46.5848 25.2622 46.7063 25.0951C46.8278 24.9242 46.8924 24.7627 46.9 24.6108L47.3443 25.2204C47.2987 25.3761 47.2209 25.5432 47.1108 25.7217C47.0006 25.9002 46.8563 26.0711 46.6778 26.2344C46.5031 26.3939 46.2923 26.5249 46.0455 26.6274C45.8024 26.73 45.5214 26.7812 45.2024 26.7812C44.7998 26.7812 44.4409 26.7015 44.1257 26.542C43.8105 26.3787 43.5637 26.1603 43.3852 25.8869C43.2067 25.6096 43.1174 25.2963 43.1174 24.9469C43.1174 24.6203 43.1782 24.3317 43.2997 24.0811C43.425 23.8266 43.6073 23.6139 43.8466 23.443C44.0897 23.2721 44.3859 23.143 44.7353 23.0557C45.0847 22.9645 45.4834 22.9189 45.9316 22.9189H47.0082Z" fill="black" fill-opacity="0.76"/>
<path d="M38.2013 21.8195V26.6673H36.8284V20.5036H38.1215L38.2013 21.8195ZM37.9563 23.3576L37.512 23.3519C37.5158 22.9151 37.5765 22.5145 37.6943 22.1499C37.8158 21.7853 37.9829 21.472 38.1956 21.21C38.412 20.9479 38.6703 20.7466 38.9703 20.6061C39.2703 20.4618 39.6045 20.3896 39.9729 20.3896C40.2691 20.3896 40.5369 20.4314 40.7761 20.515C41.0192 20.5947 41.2262 20.7257 41.3971 20.908C41.5718 21.0903 41.7047 21.3277 41.7958 21.6201C41.887 21.9087 41.9325 22.2638 41.9325 22.6854V26.6673H40.554V22.6797C40.554 22.3835 40.5103 22.1499 40.4229 21.979C40.3394 21.8043 40.216 21.6809 40.0527 21.6087C39.8931 21.5328 39.6938 21.4948 39.4545 21.4948C39.219 21.4948 39.0083 21.5442 38.8222 21.6429C38.6361 21.7416 38.4785 21.8765 38.3494 22.0474C38.224 22.2183 38.1272 22.4157 38.0588 22.6398C37.9905 22.8639 37.9563 23.1031 37.9563 23.3576Z" fill="black" fill-opacity="0.76"/>
<path d="M32.573 19.4782L30.095 26.6673H28.5968L31.7185 18.373H32.6756L32.573 19.4782ZM34.6466 26.6673L32.1629 19.4782L32.0546 18.373H33.0174L36.1505 26.6673H34.6466ZM34.527 23.5911V24.7248H30.0153V23.5911H34.527Z" fill="black" fill-opacity="0.76"/>
</g>
<defs>
<clipPath id="clip0_17666_12112">
<rect width="91.6667" height="40" fill="white" transform="translate(0.166626)"/>
</clipPath>
</defs>
</svg>
