<svg width="104" height="40" viewBox="0 0 104 40" fill="none" xmlns="http://www.w3.org/2000/svg">
<g clip-path="url(#clip0_17666_1526)">
<path d="M5.33337 3.33333C5.33337 1.49238 6.82576 0 8.66671 0H100.333C102.174 0 103.667 1.49238 103.667 3.33333V31.6667C103.667 33.5076 102.174 35 100.333 35H8.66671C6.82576 35 5.33337 33.5076 5.33337 31.6667V3.33333Z" fill="#CDF14F"/>
<path d="M100.333 34.1667V35H8.66671V34.1667H100.333ZM102.833 31.6667V3.33333C102.833 1.99574 101.783 0.903511 100.462 0.836589L100.333 0.833333H8.66671C7.286 0.833333 6.16671 1.95262 6.16671 3.33333V31.6667C6.16671 33.0474 7.286 34.1667 8.66671 34.1667V35L8.49499 34.9959C6.79071 34.9095 5.42392 33.5427 5.33744 31.8384L5.33337 31.6667V3.33333C5.33337 1.49238 6.82576 3.3555e-09 8.66671 0H100.333C102.174 0 103.667 1.49238 103.667 3.33333V31.6667C103.667 33.45 102.266 34.9066 100.505 34.9959L100.333 35V34.1667C101.714 34.1667 102.833 33.0474 102.833 31.6667Z" fill="black" fill-opacity="0.5"/>
<path d="M2.83337 5.83333C2.83337 3.99238 4.32576 2.5 6.16671 2.5H97.8334C99.6743 2.5 101.167 3.99238 101.167 5.83333V34.1667C101.167 36.0076 99.6743 37.5 97.8334 37.5H6.16671C4.32576 37.5 2.83337 36.0076 2.83337 34.1667V5.83333Z" fill="#CDF14F"/>
<path d="M97.8334 36.6667V37.5H6.16671V36.6667H97.8334ZM100.333 34.1667V5.83333C100.333 4.49574 99.2829 3.40351 97.9619 3.33659L97.8334 3.33333H6.16671C4.786 3.33333 3.66671 4.45262 3.66671 5.83333V34.1667C3.66671 35.5474 4.786 36.6667 6.16671 36.6667V37.5L5.99499 37.4959C4.29071 37.4095 2.92392 36.0427 2.83744 34.3384L2.83337 34.1667V5.83333C2.83337 3.99238 4.32576 2.5 6.16671 2.5H97.8334C99.6743 2.5 101.167 3.99238 101.167 5.83333V34.1667C101.167 35.95 99.7662 37.4066 98.0051 37.4959L97.8334 37.5V36.6667C99.2141 36.6667 100.333 35.5474 100.333 34.1667Z" fill="black" fill-opacity="0.5"/>
<path d="M0.333374 8.33333C0.333374 6.49238 1.82576 5 3.66671 5H95.3334C97.1743 5 98.6667 6.49238 98.6667 8.33333V36.6667C98.6667 38.5076 97.1743 40 95.3334 40H3.66671C1.82576 40 0.333374 38.5076 0.333374 36.6667V8.33333Z" fill="#CDF14F"/>
<path d="M95.3334 39.1667V40H3.66671V39.1667H95.3334ZM97.8334 36.6667V8.33333C97.8334 6.99574 96.7829 5.90351 95.4619 5.83659L95.3334 5.83333H3.66671C2.286 5.83333 1.16671 6.95262 1.16671 8.33333V36.6667C1.16671 38.0474 2.286 39.1667 3.66671 39.1667V40L3.49499 39.9959C1.79071 39.9095 0.423917 38.5427 0.337443 36.8384L0.333374 36.6667V8.33333C0.333374 6.49238 1.82576 5 3.66671 5H95.3334C97.1743 5 98.6667 6.49238 98.6667 8.33333V36.6667C98.6667 38.45 97.2662 39.9066 95.5051 39.9959L95.3334 40V39.1667C96.7141 39.1667 97.8334 38.0474 97.8334 36.6667Z" fill="black" fill-opacity="0.5"/>
<path d="M18.8696 20.4272H11.2709V21.8088H18.8696V20.4272ZM18.8696 17.6641H11.2709V19.0456H18.8696V17.6641ZM21.6327 23.1904V20.4272H20.2511V23.1904H17.488V24.572H20.2511V27.3351H21.6327V24.572H24.3959V23.1904H21.6327ZM11.2709 24.572H16.1064V23.1904H11.2709V24.572Z" fill="black" fill-opacity="0.76"/>
<path d="M87.8773 20.5028V21.5054H84.4023V20.5028H87.8773ZM85.4049 18.9932H86.7778V24.9632C86.7778 25.1531 86.8044 25.2993 86.8576 25.4019C86.9146 25.5006 86.9924 25.5671 87.0911 25.6012C87.1899 25.6354 87.3057 25.6525 87.4386 25.6525C87.5336 25.6525 87.6247 25.6468 87.7121 25.6354C87.7994 25.624 87.8697 25.6126 87.9229 25.6012L87.9286 26.6494C87.8146 26.6836 87.6817 26.714 87.5298 26.7406C87.3817 26.7671 87.2108 26.7804 87.0171 26.7804C86.7019 26.7804 86.4227 26.7254 86.1797 26.6152C85.9366 26.5013 85.7467 26.3171 85.61 26.0627C85.4733 25.8082 85.4049 25.4702 85.4049 25.0487V18.9932Z" fill="black" fill-opacity="0.76"/>
<path d="M79.9191 21.8195V26.6673H78.5463V20.5036H79.8394L79.9191 21.8195ZM79.6742 23.3576L79.2299 23.3519C79.2337 22.9151 79.2944 22.5145 79.4121 22.1499C79.5337 21.7853 79.7008 21.472 79.9135 21.21C80.1299 20.9479 80.3882 20.7466 80.6882 20.6061C80.9882 20.4618 81.3224 20.3896 81.6908 20.3896C81.987 20.3896 82.2548 20.4314 82.494 20.515C82.7371 20.5947 82.944 20.7257 83.1149 20.908C83.2896 21.0903 83.4226 21.3277 83.5137 21.6201C83.6049 21.9087 83.6504 22.2638 83.6504 22.6854V26.6673H82.2718V22.6797C82.2718 22.3835 82.2282 22.1499 82.1408 21.979C82.0573 21.8043 81.9339 21.6809 81.7705 21.6087C81.611 21.5328 81.4117 21.4948 81.1724 21.4948C80.9369 21.4948 80.7262 21.5442 80.5401 21.6429C80.354 21.7416 80.1964 21.8765 80.0673 22.0474C79.9419 22.2183 79.8451 22.4157 79.7767 22.6398C79.7084 22.8639 79.6742 23.1031 79.6742 23.3576Z" fill="black" fill-opacity="0.76"/>
<path d="M75.0201 26.7812C74.5644 26.7812 74.1523 26.7072 73.7839 26.5591C73.4194 26.4072 73.1079 26.1964 72.8497 25.9268C72.5952 25.6571 72.3997 25.34 72.2629 24.9754C72.1262 24.6108 72.0579 24.2178 72.0579 23.7962V23.5684C72.0579 23.086 72.1281 22.6493 72.2686 22.2581C72.4092 21.867 72.6047 21.5328 72.8554 21.2555C73.106 20.9745 73.4023 20.7599 73.7441 20.6118C74.0859 20.4637 74.4561 20.3896 74.8549 20.3896C75.2954 20.3896 75.6809 20.4637 76.0113 20.6118C76.3417 20.7599 76.6152 20.9688 76.8316 21.2384C77.0519 21.5043 77.2152 21.8214 77.3215 22.1898C77.4317 22.5582 77.4867 22.9645 77.4867 23.4089V23.9956H72.7244V23.0101H76.1309V22.9019C76.1233 22.655 76.074 22.4233 75.9828 22.2069C75.8955 21.9904 75.7607 21.8157 75.5784 21.6828C75.3961 21.5499 75.153 21.4834 74.8492 21.4834C74.6213 21.4834 74.4182 21.5328 74.2397 21.6315C74.065 21.7265 73.9188 21.8651 73.801 22.0474C73.6833 22.2297 73.5921 22.4499 73.5276 22.7082C73.4668 22.9626 73.4364 23.2493 73.4364 23.5684V23.7962C73.4364 24.0659 73.4725 24.3165 73.5447 24.5482C73.6206 24.776 73.7308 24.9754 73.8751 25.1463C74.0194 25.3172 74.1941 25.452 74.3992 25.5508C74.6042 25.6457 74.8378 25.6932 75.0999 25.6932C75.4303 25.6932 75.7246 25.6267 75.9828 25.4938C76.2411 25.3609 76.4651 25.1729 76.655 24.9299L77.3785 25.6305C77.2456 25.8242 77.0728 26.0103 76.8601 26.1888C76.6474 26.3635 76.3873 26.5059 76.0797 26.616C75.7759 26.7262 75.4227 26.7812 75.0201 26.7812Z" fill="black" fill-opacity="0.76"/>
<path d="M63.5129 21.7568V26.6673H62.14V20.5036H63.4331L63.5129 21.7568ZM63.2907 23.3576L62.8236 23.3519C62.8236 22.9265 62.8768 22.5335 62.9831 22.1727C63.0895 21.8119 63.2452 21.4986 63.4502 21.2327C63.6553 20.9631 63.9098 20.7561 64.2136 20.6118C64.5212 20.4637 64.8763 20.3896 65.2788 20.3896C65.5599 20.3896 65.8162 20.4314 66.0479 20.515C66.2834 20.5947 66.4865 20.722 66.6574 20.8966C66.8321 21.0713 66.965 21.2954 67.0562 21.5688C67.1511 21.8423 67.1986 22.1727 67.1986 22.5601V26.6673H65.8257V22.6797C65.8257 22.3797 65.7802 22.1442 65.689 21.9733C65.6017 21.8024 65.4744 21.6809 65.3073 21.6087C65.144 21.5328 64.9484 21.4948 64.7206 21.4948C64.4623 21.4948 64.2421 21.5442 64.0598 21.6429C63.8813 21.7416 63.7351 21.8765 63.6211 22.0474C63.5072 22.2183 63.4237 22.4157 63.3705 22.6398C63.3173 22.8639 63.2907 23.1031 63.2907 23.3576ZM67.1132 22.993L66.4694 23.1354C66.4694 22.7632 66.5207 22.4119 66.6232 22.0815C66.7296 21.7473 66.8834 21.4549 67.0847 21.2043C67.2898 20.9498 67.5423 20.7504 67.8423 20.6061C68.1423 20.4618 68.486 20.3896 68.8734 20.3896C69.1886 20.3896 69.4697 20.4333 69.7165 20.5207C69.9672 20.6042 70.1798 20.7371 70.3545 20.9194C70.5292 21.1017 70.6621 21.3391 70.7533 21.6315C70.8444 21.9201 70.89 22.2695 70.89 22.6797V26.6673H69.5114V22.674C69.5114 22.3626 69.4659 22.1214 69.3747 21.9505C69.2874 21.7796 69.162 21.6619 68.9987 21.5973C68.8354 21.529 68.6398 21.4948 68.412 21.4948C68.1993 21.4948 68.0113 21.5347 67.848 21.6144C67.6885 21.6904 67.5537 21.7986 67.4436 21.9391C67.3334 22.0758 67.2499 22.2335 67.1929 22.4119C67.1397 22.5904 67.1132 22.7841 67.1132 22.993Z" fill="black" fill-opacity="0.76"/>
<path d="M57.0131 17.917V26.667H55.6459V17.917H57.0131ZM56.7738 23.3573L56.3295 23.3516C56.3333 22.9262 56.3921 22.5331 56.5061 22.1724C56.6238 21.8116 56.7871 21.4983 56.996 21.2324C57.2086 20.9628 57.4631 20.7558 57.7593 20.6115C58.0555 20.4634 58.384 20.3893 58.7448 20.3893C59.0487 20.3893 59.3221 20.4311 59.5651 20.5146C59.812 20.5982 60.0247 20.733 60.2032 20.9191C60.3817 21.1014 60.5165 21.3407 60.6076 21.6369C60.7026 21.9293 60.75 22.2863 60.75 22.7078V26.667H59.3715V22.6965C59.3715 22.4002 59.3278 22.1648 59.2404 21.9901C59.1569 21.8154 59.0335 21.69 58.8702 21.6141C58.7069 21.5343 58.5075 21.4945 58.272 21.4945C58.0252 21.4945 57.8068 21.5438 57.6169 21.6426C57.4308 21.7413 57.2751 21.8761 57.1498 22.047C57.0245 22.2179 56.9295 22.4154 56.8649 22.6395C56.8042 22.8636 56.7738 23.1028 56.7738 23.3573Z" fill="black" fill-opacity="0.76"/>
<path d="M52.0798 25.6875C52.3038 25.6875 52.5051 25.6438 52.6836 25.5565C52.8659 25.4653 53.0121 25.34 53.1222 25.1805C53.2362 25.021 53.2988 24.8368 53.3102 24.6279H54.6034C54.5958 25.0267 54.478 25.3894 54.2502 25.716C54.0223 26.0426 53.7204 26.3027 53.3444 26.4964C52.9684 26.6863 52.5526 26.7812 52.0968 26.7812C51.6259 26.7812 51.2158 26.7015 50.8664 26.542C50.517 26.3787 50.2265 26.1546 49.9948 25.8698C49.7631 25.585 49.5884 25.2565 49.4707 24.8843C49.3568 24.5121 49.2998 24.1133 49.2998 23.688V23.4886C49.2998 23.0633 49.3568 22.6645 49.4707 22.2923C49.5884 21.9163 49.7631 21.5859 49.9948 21.3011C50.2265 21.0163 50.517 20.7941 50.8664 20.6346C51.2158 20.4713 51.624 20.3896 52.0911 20.3896C52.5849 20.3896 53.0178 20.4884 53.39 20.6859C53.7622 20.8796 54.0546 21.1511 54.2673 21.5005C54.4837 21.8461 54.5958 22.2486 54.6034 22.7082H53.3102C53.2988 22.4803 53.2419 22.2752 53.1393 22.0929C53.0406 21.9068 52.9001 21.7587 52.7178 21.6486C52.5393 21.5385 52.3247 21.4834 52.0741 21.4834C51.7968 21.4834 51.5671 21.5404 51.3848 21.6543C51.2025 21.7644 51.0601 21.9163 50.9575 22.11C50.855 22.2999 50.7809 22.5145 50.7354 22.7537C50.6936 22.9892 50.6727 23.2342 50.6727 23.4886V23.688C50.6727 23.9424 50.6936 24.1893 50.7354 24.4285C50.7771 24.6678 50.8493 24.8824 50.9518 25.0723C51.0582 25.2584 51.2025 25.4084 51.3848 25.5223C51.5671 25.6324 51.7987 25.6875 52.0798 25.6875Z" fill="black" fill-opacity="0.76"/>
<path d="M48.058 20.5033V26.667H46.6794V20.5033H48.058ZM46.5883 18.8854C46.5883 18.6765 46.6566 18.5037 46.7933 18.367C46.9339 18.2265 47.1275 18.1562 47.3744 18.1562C47.6174 18.1562 47.8092 18.2265 47.9497 18.367C48.0903 18.5037 48.1605 18.6765 48.1605 18.8854C48.1605 19.0905 48.0903 19.2614 47.9497 19.3981C47.8092 19.5348 47.6174 19.6032 47.3744 19.6032C47.1275 19.6032 46.9339 19.5348 46.7933 19.3981C46.6566 19.2614 46.5883 19.0905 46.5883 18.8854Z" fill="black" fill-opacity="0.76"/>
<path d="M43.8425 21.6771V26.6673H42.4696V20.5036H43.7798L43.8425 21.6771ZM45.7281 20.4637L45.7167 21.7397C45.6331 21.7246 45.542 21.7132 45.4432 21.7056C45.3483 21.698 45.2533 21.6942 45.1584 21.6942C44.9229 21.6942 44.716 21.7284 44.5375 21.7967C44.359 21.8613 44.209 21.9562 44.0874 22.0815C43.9697 22.2031 43.8786 22.3512 43.814 22.5259C43.7494 22.7006 43.7115 22.8962 43.7001 23.1126L43.3868 23.1354C43.3868 22.748 43.4247 22.3892 43.5007 22.0588C43.5766 21.7284 43.6906 21.4378 43.8425 21.1872C43.9982 20.9365 44.1919 20.7409 44.4235 20.6004C44.659 20.4599 44.9305 20.3896 45.2382 20.3896C45.3217 20.3896 45.411 20.3972 45.5059 20.4124C45.6046 20.4276 45.6787 20.4447 45.7281 20.4637Z" fill="black" fill-opacity="0.76"/>
<path d="M37.3313 21.8195V26.6673H35.9584V20.5036H37.2515L37.3313 21.8195ZM37.0863 23.3576L36.642 23.3519C36.6458 22.9151 36.7065 22.5145 36.8243 22.1499C36.9458 21.7853 37.1129 21.472 37.3256 21.21C37.542 20.9479 37.8003 20.7466 38.1003 20.6061C38.4003 20.4618 38.7345 20.3896 39.1029 20.3896C39.3991 20.3896 39.6669 20.4314 39.9061 20.515C40.1492 20.5947 40.3562 20.7257 40.5271 20.908C40.7018 21.0903 40.8347 21.3277 40.9258 21.6201C41.017 21.9087 41.0625 22.2638 41.0625 22.6854V26.6673H39.684V22.6797C39.684 22.3835 39.6403 22.1499 39.5529 21.979C39.4694 21.8043 39.346 21.6809 39.1827 21.6087C39.0232 21.5328 38.8238 21.4948 38.5845 21.4948C38.3491 21.4948 38.1383 21.5442 37.9522 21.6429C37.7661 21.7416 37.6085 21.8765 37.4794 22.0474C37.354 22.2183 37.2572 22.4157 37.1888 22.6398C37.1205 22.8639 37.0863 23.1031 37.0863 23.3576Z" fill="black" fill-opacity="0.76"/>
<path d="M34.9386 25.5337V26.6673H30.5352V25.5337H34.9386ZM30.9396 18.373V26.6673H29.5098V18.373H30.9396ZM34.3633 21.8366V22.9531H30.5352V21.8366H34.3633ZM34.9102 18.373V19.5124H30.5352V18.373H34.9102Z" fill="black" fill-opacity="0.76"/>
</g>
<defs>
<clipPath id="clip0_17666_1526">
<rect width="103.333" height="40" fill="white" transform="translate(0.333374)"/>
</clipPath>
</defs>
</svg>
