<svg width="70" height="40" viewBox="0 0 70 40" fill="none" xmlns="http://www.w3.org/2000/svg">
<g clip-path="url(#clip0_17666_13258)">
<path d="M5.83337 3.33333C5.83337 1.49238 7.32576 0 9.16671 0H65.8334C67.6743 0 69.1667 1.49238 69.1667 3.33333V31.6667C69.1667 33.5076 67.6743 35 65.8334 35H9.16671C7.32576 35 5.83337 33.5076 5.83337 31.6667V3.33333Z" fill="#D6C4F2"/>
<path d="M65.8334 34.1667V35H9.16671V34.1667H65.8334ZM68.3334 31.6667V3.33333C68.3334 1.95262 67.2141 0.833333 65.8334 0.833333H9.16671C7.786 0.833333 6.66671 1.95262 6.66671 3.33333V31.6667C6.66671 33.0474 7.786 34.1667 9.16671 34.1667V35L8.995 34.9959C7.29071 34.9095 5.92392 33.5427 5.83744 31.8384L5.83337 31.6667V3.33333C5.83337 1.49238 7.32576 1.3422e-08 9.16671 0H65.8334C67.6743 0 69.1667 1.49238 69.1667 3.33333V31.6667C69.1667 33.45 67.7663 34.9066 66.0051 34.9959L65.8334 35V34.1667C67.2141 34.1667 68.3334 33.0474 68.3334 31.6667Z" fill="black" fill-opacity="0.5"/>
<path d="M3.33337 5.83333C3.33337 3.99238 4.82576 2.5 6.66671 2.5H63.3334C65.1743 2.5 66.6667 3.99238 66.6667 5.83333V34.1667C66.6667 36.0076 65.1743 37.5 63.3334 37.5H6.66671C4.82576 37.5 3.33337 36.0076 3.33337 34.1667V5.83333Z" fill="#D6C4F2"/>
<path d="M63.3334 36.6667V37.5H6.66671V36.6667H63.3334ZM65.8334 34.1667V5.83333C65.8334 4.45262 64.7141 3.33333 63.3334 3.33333H6.66671C5.286 3.33333 4.16671 4.45262 4.16671 5.83333V34.1667C4.16671 35.5474 5.286 36.6667 6.66671 36.6667V37.5L6.495 37.4959C4.79071 37.4095 3.42392 36.0427 3.33744 34.3384L3.33337 34.1667V5.83333C3.33337 3.99238 4.82576 2.5 6.66671 2.5H63.3334C65.1743 2.5 66.6667 3.99238 66.6667 5.83333V34.1667C66.6667 35.95 65.2663 37.4066 63.5051 37.4959L63.3334 37.5V36.6667C64.7141 36.6667 65.8334 35.5474 65.8334 34.1667Z" fill="black" fill-opacity="0.5"/>
<path d="M0.833374 8.33333C0.833374 6.49238 2.32576 5 4.16671 5H60.8334C62.6743 5 64.1667 6.49238 64.1667 8.33333V36.6667C64.1667 38.5076 62.6743 40 60.8334 40H4.16671C2.32576 40 0.833374 38.5076 0.833374 36.6667V8.33333Z" fill="#D6C4F2"/>
<path d="M60.8334 39.1667V40H4.16671V39.1667H60.8334ZM63.3334 36.6667V8.33333C63.3334 6.95262 62.2141 5.83333 60.8334 5.83333H4.16671C2.786 5.83333 1.66671 6.95262 1.66671 8.33333V36.6667C1.66671 38.0474 2.786 39.1667 4.16671 39.1667V40L3.995 39.9959C2.29071 39.9095 0.923917 38.5427 0.837443 36.8384L0.833374 36.6667V8.33333C0.833374 6.49238 2.32576 5 4.16671 5H60.8334C62.6743 5 64.1667 6.49238 64.1667 8.33333V36.6667C64.1667 38.45 62.7663 39.9066 61.0051 39.9959L60.8334 40V39.1667C62.2141 39.1667 63.3334 38.0474 63.3334 36.6667Z" fill="black" fill-opacity="0.5"/>
<path d="M15.6898 19.2248L14.7273 18.4248L11.3461 22.4998L14.7273 26.5748L15.6898 25.7748L12.9711 22.4998L15.6898 19.2248ZM15.2086 23.1248H16.4586V21.8748H15.2086V23.1248ZM21.4586 21.8748H20.2086V23.1248H21.4586V21.8748ZM17.7086 23.1248H18.9586V21.8748H17.7086V23.1248ZM21.9398 18.4248L20.9773 19.2248L23.6961 22.4998L20.9773 25.7748L21.9398 26.5748L25.3211 22.4998L21.9398 18.4248Z" fill="black" fill-opacity="0.76"/>
<path d="M47.5668 25.2995L48.991 20.5029H49.8682L49.629 21.9385L48.1934 26.6667H47.4073L47.5668 25.2995ZM46.7294 20.5029L47.8403 25.3223L47.9314 26.6667H47.0541L45.385 20.5029H46.7294ZM51.2013 25.2653L52.2779 20.5029H53.6166L51.9532 26.6667H51.0759L51.2013 25.2653ZM50.0164 20.5029L51.4234 25.2425L51.6 26.6667H50.8139L49.3612 21.9328L49.122 20.5029H50.0164Z" fill="black" fill-opacity="0.76"/>
<path d="M39.0105 23.6538V23.5228C39.0105 23.0785 39.0751 22.6664 39.2042 22.2866C39.3333 21.903 39.5194 21.5707 39.7625 21.2897C40.0093 21.0049 40.3093 20.7846 40.6625 20.6289C41.0195 20.4694 41.4221 20.3896 41.8702 20.3896C42.3221 20.3896 42.7247 20.4694 43.0779 20.6289C43.4349 20.7846 43.7368 21.0049 43.9836 21.2897C44.2305 21.5707 44.4185 21.903 44.5476 22.2866C44.6767 22.6664 44.7413 23.0785 44.7413 23.5228V23.6538C44.7413 24.0981 44.6767 24.5102 44.5476 24.89C44.4185 25.2697 44.2305 25.6021 43.9836 25.8869C43.7368 26.1679 43.4368 26.3882 43.0836 26.5477C42.7304 26.7034 42.3297 26.7812 41.8816 26.7812C41.4297 26.7812 41.0252 26.7034 40.6682 26.5477C40.315 26.3882 40.015 26.1679 39.7681 25.8869C39.5213 25.6021 39.3333 25.2697 39.2042 24.89C39.0751 24.5102 39.0105 24.0981 39.0105 23.6538ZM40.3834 23.5228V23.6538C40.3834 23.931 40.4119 24.1931 40.4688 24.4399C40.5258 24.6868 40.615 24.9033 40.7366 25.0894C40.8581 25.2754 41.0138 25.4217 41.2037 25.528C41.3936 25.6343 41.6195 25.6875 41.8816 25.6875C42.136 25.6875 42.3563 25.6343 42.5424 25.528C42.7323 25.4217 42.888 25.2754 43.0095 25.0894C43.1311 24.9033 43.2203 24.6868 43.2773 24.4399C43.338 24.1931 43.3684 23.931 43.3684 23.6538V23.5228C43.3684 23.2493 43.338 22.9911 43.2773 22.748C43.2203 22.5012 43.1292 22.2828 43.0038 22.0929C42.8823 21.903 42.7266 21.7549 42.5367 21.6486C42.3506 21.5385 42.1284 21.4834 41.8702 21.4834C41.612 21.4834 41.3879 21.5385 41.198 21.6486C41.0119 21.7549 40.8581 21.903 40.7366 22.0929C40.615 22.2828 40.5258 22.5012 40.4688 22.748C40.4119 22.9911 40.3834 23.2493 40.3834 23.5228Z" fill="black" fill-opacity="0.76"/>
<path d="M37.7686 17.917V26.667H36.39V17.917H37.7686Z" fill="black" fill-opacity="0.76"/>
<path d="M31.4396 18.373V26.6673H30.0098V18.373H31.4396ZM34.8234 22.0018V23.1354H31.075V22.0018H34.8234ZM35.2962 18.373V19.5124H31.075V18.373H35.2962Z" fill="black" fill-opacity="0.76"/>
</g>
<defs>
<clipPath id="clip0_17666_13258">
<rect width="68.3333" height="40" fill="white" transform="translate(0.833374)"/>
</clipPath>
</defs>
</svg>
