<svg width="70" height="40" viewBox="0 0 70 40" fill="none" xmlns="http://www.w3.org/2000/svg">
<g clip-path="url(#clip0_17666_1967)">
<path d="M5 3.33333C5 1.49238 6.49238 0 8.33333 0H66.6667C68.5076 0 70 1.49238 70 3.33333V31.6667C70 33.5076 68.5076 35 66.6667 35H8.33333C6.49238 35 5 33.5076 5 31.6667V3.33333Z" fill="#F0E861"/>
<path d="M66.6667 34.1667V35H8.33333V34.1667H66.6667ZM69.1667 31.6667V3.33333C69.1667 1.95262 68.0474 0.833333 66.6667 0.833333H8.33333C6.95262 0.833333 5.83333 1.95262 5.83333 3.33333V31.6667C5.83333 33.0474 6.95262 34.1667 8.33333 34.1667V35L8.16162 34.9959C6.45733 34.9095 5.09054 33.5427 5.00407 31.8384L5 31.6667V3.33333C5 1.49238 6.49238 2.34885e-08 8.33333 0H66.6667C68.5076 0 70 1.49238 70 3.33333V31.6667C70 33.45 68.5995 34.9066 66.8384 34.9959L66.6667 35V34.1667C68.0474 34.1667 69.1667 33.0474 69.1667 31.6667Z" fill="black" fill-opacity="0.5"/>
<path d="M2.5 5.83333C2.5 3.99238 3.99238 2.5 5.83333 2.5H64.1667C66.0076 2.5 67.5 3.99238 67.5 5.83333V34.1667C67.5 36.0076 66.0076 37.5 64.1667 37.5H5.83333C3.99238 37.5 2.5 36.0076 2.5 34.1667V5.83333Z" fill="#F0E861"/>
<path d="M64.1667 36.6667V37.5H5.83333V36.6667H64.1667ZM66.6667 34.1667V5.83333C66.6667 4.45262 65.5474 3.33333 64.1667 3.33333H5.83333C4.45262 3.33333 3.33333 4.45262 3.33333 5.83333V34.1667C3.33333 35.5474 4.45262 36.6667 5.83333 36.6667V37.5L5.66162 37.4959C3.95733 37.4095 2.59054 36.0427 2.50407 34.3384L2.5 34.1667V5.83333C2.5 3.99238 3.99238 2.5 5.83333 2.5H64.1667C66.0076 2.5 67.5 3.99238 67.5 5.83333V34.1667C67.5 35.95 66.0995 37.4066 64.3384 37.4959L64.1667 37.5V36.6667C65.5474 36.6667 66.6667 35.5474 66.6667 34.1667Z" fill="black" fill-opacity="0.5"/>
<path d="M0 8.33333C0 6.49238 1.49238 5 3.33333 5H61.6667C63.5076 5 65 6.49238 65 8.33333V36.6667C65 38.5076 63.5076 40 61.6667 40H3.33333C1.49238 40 0 38.5076 0 36.6667V8.33333Z" fill="#F0E861"/>
<path d="M61.6667 39.1667V40H3.33333V39.1667H61.6667ZM64.1667 36.6667V8.33333C64.1667 6.95262 63.0474 5.83333 61.6667 5.83333H3.33333C1.95262 5.83333 0.833333 6.95262 0.833333 8.33333V36.6667C0.833333 38.0474 1.95262 39.1667 3.33333 39.1667V40L3.16162 39.9959C1.45733 39.9095 0.0905434 38.5427 0.00406901 36.8384L0 36.6667V8.33333C0 6.49238 1.49238 5 3.33333 5H61.6667C63.5076 5 65 6.49238 65 8.33333V36.6667C65 38.45 63.5995 39.9066 61.8384 39.9959L61.6667 40V39.1667C63.0474 39.1667 64.1667 38.0474 64.1667 36.6667Z" fill="black" fill-opacity="0.5"/>
<path d="M16.25 26.25H18.75V25H16.25V26.25ZM11.875 18.75V20H23.125V18.75H11.875ZM13.75 23.125H21.25V21.875H13.75V23.125Z" fill="black" fill-opacity="0.76"/>
<path d="M52.9313 21.6771V26.6673H51.5584V20.5036H52.8686L52.9313 21.6771ZM54.8169 20.4637L54.8055 21.7397C54.7219 21.7246 54.6308 21.7132 54.532 21.7056C54.4371 21.698 54.3422 21.6942 54.2472 21.6942C54.0118 21.6942 53.8048 21.7284 53.6263 21.7967C53.4478 21.8613 53.2978 21.9562 53.1762 22.0815C53.0585 22.2031 52.9674 22.3512 52.9028 22.5259C52.8383 22.7006 52.8003 22.8962 52.7889 23.1126L52.4756 23.1354C52.4756 22.748 52.5135 22.3892 52.5895 22.0588C52.6655 21.7284 52.7794 21.4378 52.9313 21.1872C53.087 20.9365 53.2807 20.7409 53.5124 20.6004C53.7478 20.4599 54.0193 20.3896 54.327 20.3896C54.4105 20.3896 54.4998 20.3972 54.5947 20.4124C54.6934 20.4276 54.7675 20.4447 54.8169 20.4637Z" fill="black" fill-opacity="0.76"/>
<path d="M48.0152 26.7812C47.5594 26.7812 47.1474 26.7072 46.779 26.5591C46.4144 26.4072 46.103 26.1964 45.8447 25.9268C45.5903 25.6571 45.3947 25.34 45.258 24.9754C45.1213 24.6108 45.0529 24.2178 45.0529 23.7962V23.5684C45.0529 23.086 45.1232 22.6493 45.2637 22.2581C45.4042 21.867 45.5998 21.5328 45.8504 21.2555C46.1011 20.9745 46.3973 20.7599 46.7391 20.6118C47.0809 20.4637 47.4512 20.3896 47.85 20.3896C48.2905 20.3896 48.676 20.4637 49.0064 20.6118C49.3368 20.7599 49.6102 20.9688 49.8267 21.2384C50.0469 21.5043 50.2103 21.8214 50.3166 22.1898C50.4267 22.5582 50.4818 22.9645 50.4818 23.4089V23.9956H45.7194V23.0101H49.126V22.9019C49.1184 22.655 49.069 22.4233 48.9779 22.2069C48.8905 21.9904 48.7557 21.8157 48.5734 21.6828C48.3911 21.5499 48.1481 21.4834 47.8443 21.4834C47.6164 21.4834 47.4132 21.5328 47.2347 21.6315C47.06 21.7265 46.9138 21.8651 46.7961 22.0474C46.6784 22.2297 46.5872 22.4499 46.5226 22.7082C46.4619 22.9626 46.4315 23.2493 46.4315 23.5684V23.7962C46.4315 24.0659 46.4676 24.3165 46.5397 24.5482C46.6157 24.776 46.7258 24.9754 46.8701 25.1463C47.0145 25.3172 47.1891 25.452 47.3942 25.5508C47.5993 25.6457 47.8329 25.6932 48.0949 25.6932C48.4253 25.6932 48.7196 25.6267 48.9779 25.4938C49.2361 25.3609 49.4602 25.1729 49.6501 24.9299L50.3736 25.6305C50.2406 25.8242 50.0678 26.0103 49.8552 26.1888C49.6425 26.3635 49.3823 26.5059 49.0747 26.616C48.7709 26.7262 48.4177 26.7812 48.0152 26.7812Z" fill="black" fill-opacity="0.76"/>
<path d="M44.2383 20.5037V21.5063H40.7634V20.5037H44.2383ZM41.766 18.9941H43.1389V24.9642C43.1389 25.1541 43.1654 25.3003 43.2186 25.4028C43.2756 25.5016 43.3534 25.568 43.4522 25.6022C43.5509 25.6364 43.6667 25.6535 43.7997 25.6535C43.8946 25.6535 43.9858 25.6478 44.0731 25.6364C44.1604 25.625 44.2307 25.6136 44.2839 25.6022L44.2896 26.6504C44.1756 26.6846 44.0427 26.715 43.8908 26.7415C43.7427 26.7681 43.5718 26.7814 43.3781 26.7814C43.0629 26.7814 42.7838 26.7263 42.5407 26.6162C42.2977 26.5023 42.1078 26.3181 41.971 26.0636C41.8343 25.8092 41.766 25.4712 41.766 25.0496V18.9941Z" fill="black" fill-opacity="0.76"/>
<path d="M39.9089 17.917V26.667H38.5303V17.917H39.9089Z" fill="black" fill-opacity="0.76"/>
<path d="M36.9352 20.5033V26.667H35.5567V20.5033H36.9352ZM35.4655 18.8854C35.4655 18.6765 35.5339 18.5037 35.6706 18.367C35.8111 18.2265 36.0048 18.1562 36.2516 18.1562C36.4947 18.1562 36.6865 18.2265 36.827 18.367C36.9675 18.5037 37.0378 18.6765 37.0378 18.8854C37.0378 19.0905 36.9675 19.2614 36.827 19.3981C36.6865 19.5348 36.4947 19.6032 36.2516 19.6032C36.0048 19.6032 35.8111 19.5348 35.6706 19.3981C35.5339 19.2614 35.4655 19.0905 35.4655 18.8854Z" fill="black" fill-opacity="0.76"/>
<path d="M30.6063 18.373V26.6673H29.1765V18.373H30.6063ZM33.9901 22.0018V23.1354H30.2417V22.0018H33.9901ZM34.4629 18.373V19.5124H30.2417V18.373H34.4629Z" fill="black" fill-opacity="0.76"/>
</g>
<defs>
<clipPath id="clip0_17666_1967">
<rect width="70" height="40" fill="white"/>
</clipPath>
</defs>
</svg>
