<svg width="126" height="40" viewBox="0 0 126 40" fill="none" xmlns="http://www.w3.org/2000/svg">
<g clip-path="url(#clip0_17666_13395)">
<path d="M5.5 3.33333C5.5 1.49238 6.99238 0 8.83333 0H122.167C124.008 0 125.5 1.49238 125.5 3.33333V31.6667C125.5 33.5076 124.008 35 122.167 35H8.83333C6.99239 35 5.5 33.5076 5.5 31.6667V3.33333Z" fill="#79CEF1"/>
<path d="M122.167 34.1667V35H8.83333V34.1667H122.167ZM124.667 31.6667V3.33333C124.667 1.95262 123.547 0.833334 122.167 0.833333H8.83333C7.45262 0.833333 6.33333 1.95262 6.33333 3.33333V31.6667C6.33333 33.0474 7.45262 34.1667 8.83333 34.1667V35C7.04997 35 5.59343 33.5995 5.50407 31.8384L5.5 31.6667V3.33333C5.5 1.49238 6.99238 1.3422e-08 8.83333 0H122.167L122.338 0.00406901C124.1 0.0934296 125.5 1.54997 125.5 3.33333V31.6667C125.5 33.45 124.1 34.9066 122.338 34.9959L122.167 35V34.1667C123.547 34.1667 124.667 33.0474 124.667 31.6667Z" fill="black" fill-opacity="0.5"/>
<path d="M3 5.83333C3 3.99238 4.49238 2.5 6.33333 2.5H119.667C121.508 2.5 123 3.99238 123 5.83333V34.1667C123 36.0076 121.508 37.5 119.667 37.5H6.33333C4.49239 37.5 3 36.0076 3 34.1667V5.83333Z" fill="#79CEF1"/>
<path d="M119.667 36.6667V37.5H6.33333V36.6667H119.667ZM122.167 34.1667V5.83333C122.167 4.45262 121.047 3.33333 119.667 3.33333H6.33333C4.95262 3.33333 3.83333 4.45262 3.83333 5.83333V34.1667C3.83333 35.5474 4.95262 36.6667 6.33333 36.6667V37.5C4.54997 37.5 3.09343 36.0995 3.00407 34.3384L3 34.1667V5.83333C3 3.99238 4.49238 2.5 6.33333 2.5H119.667L119.838 2.50407C121.6 2.59343 123 4.04997 123 5.83333V34.1667C123 35.95 121.6 37.4066 119.838 37.4959L119.667 37.5V36.6667C121.047 36.6667 122.167 35.5474 122.167 34.1667Z" fill="black" fill-opacity="0.5"/>
<path d="M0.5 8.33333C0.5 6.49238 1.99238 5 3.83333 5H117.167C119.008 5 120.5 6.49238 120.5 8.33333V36.6667C120.5 38.5076 119.008 40 117.167 40H3.83333C1.99239 40 0.5 38.5076 0.5 36.6667V8.33333Z" fill="#79CEF1"/>
<path d="M117.167 39.1667V40H3.83333V39.1667H117.167ZM119.667 36.6667V8.33333C119.667 6.95262 118.547 5.83333 117.167 5.83333H3.83333C2.45262 5.83333 1.33333 6.95262 1.33333 8.33333V36.6667C1.33333 38.0474 2.45262 39.1667 3.83333 39.1667V40C2.04997 40 0.593429 38.5995 0.504069 36.8384L0.5 36.6667V8.33333C0.5 6.49238 1.99238 5 3.83333 5H117.167L117.338 5.00407C119.1 5.09343 120.5 6.54997 120.5 8.33333V36.6667C120.5 38.45 119.1 39.9066 117.338 39.9959L117.167 40V39.1667C118.547 39.1667 119.667 38.0474 119.667 36.6667Z" fill="black" fill-opacity="0.5"/>
<path d="M25.0834 26.25V25H16.3334V17.5H17.5834L15.7084 15.625L13.8334 17.5H15.0834V18.75H12.5834V20H15.0834V25C15.0834 25.6875 15.6459 26.25 16.3334 26.25H21.3334V27.5H20.0834L21.9584 29.375L23.8334 27.5H22.5834V26.25H25.0834ZM17.5834 20H21.3334V23.75H22.5834V20C22.5834 19.3125 22.0209 18.75 21.3334 18.75H17.5834V20Z" fill="black" fill-opacity="0.76"/>
<path d="M105.939 21.8185V26.6663H104.566V20.5026H105.859L105.939 21.8185ZM105.694 23.3566L105.249 23.3509C105.253 22.9142 105.314 22.5135 105.432 22.1489C105.553 21.7843 105.72 21.471 105.933 21.209C106.149 20.9469 106.408 20.7457 106.708 20.6051C107.008 20.4608 107.342 20.3887 107.71 20.3887C108.007 20.3887 108.274 20.4304 108.514 20.514C108.757 20.5937 108.964 20.7248 109.134 20.9071C109.309 21.0894 109.442 21.3267 109.533 21.6191C109.624 21.9078 109.67 22.2629 109.67 22.6844V26.6663H108.291V22.6787C108.291 22.3825 108.248 22.1489 108.16 21.978C108.077 21.8033 107.953 21.6799 107.79 21.6077C107.631 21.5318 107.431 21.4938 107.192 21.4938C106.956 21.4938 106.746 21.5432 106.56 21.6419C106.374 21.7407 106.216 21.8755 106.087 22.0464C105.961 22.2173 105.865 22.4148 105.796 22.6388C105.728 22.8629 105.694 23.1022 105.694 23.3566Z" fill="black" fill-opacity="0.76"/>
<path d="M97.6957 23.6528V23.5218C97.6957 23.0775 97.7602 22.6654 97.8894 22.2856C98.0185 21.9021 98.2046 21.5698 98.4476 21.2887C98.6945 21.0039 98.9945 20.7836 99.3477 20.6279C99.7047 20.4684 100.107 20.3887 100.555 20.3887C101.007 20.3887 101.41 20.4684 101.763 20.6279C102.12 20.7836 102.422 21.0039 102.669 21.2887C102.916 21.5698 103.104 21.9021 103.233 22.2856C103.362 22.6654 103.426 23.0775 103.426 23.5218V23.6528C103.426 24.0972 103.362 24.5092 103.233 24.889C103.104 25.2688 102.916 25.6011 102.669 25.8859C102.422 26.1669 102.122 26.3872 101.769 26.5467C101.416 26.7024 101.015 26.7803 100.567 26.7803C100.115 26.7803 99.7104 26.7024 99.3534 26.5467C99.0002 26.3872 98.7002 26.1669 98.4533 25.8859C98.2065 25.6011 98.0185 25.2688 97.8894 24.889C97.7602 24.5092 97.6957 24.0972 97.6957 23.6528ZM99.0686 23.5218V23.6528C99.0686 23.9301 99.097 24.1921 99.154 24.439C99.211 24.6858 99.3002 24.9023 99.4218 25.0884C99.5433 25.2745 99.699 25.4207 99.8889 25.527C100.079 25.6334 100.305 25.6865 100.567 25.6865C100.821 25.6865 101.041 25.6334 101.228 25.527C101.417 25.4207 101.573 25.2745 101.695 25.0884C101.816 24.9023 101.905 24.6858 101.962 24.439C102.023 24.1921 102.054 23.9301 102.054 23.6528V23.5218C102.054 23.2484 102.023 22.9901 101.962 22.7471C101.905 22.5002 101.814 22.2818 101.689 22.092C101.567 21.9021 101.412 21.754 101.222 21.6476C101.036 21.5375 100.814 21.4824 100.555 21.4824C100.297 21.4824 100.073 21.5375 99.8832 21.6476C99.6971 21.754 99.5433 21.9021 99.4218 22.092C99.3002 22.2818 99.211 22.5002 99.154 22.7471C99.097 22.9901 99.0686 23.2484 99.0686 23.5218Z" fill="black" fill-opacity="0.76"/>
<path d="M96.4537 20.5023V26.666H95.0752V20.5023H96.4537ZM94.984 18.8844C94.984 18.6756 95.0524 18.5028 95.1891 18.366C95.3296 18.2255 95.5233 18.1553 95.7701 18.1553C96.0132 18.1553 96.205 18.2255 96.3455 18.366C96.486 18.5028 96.5563 18.6756 96.5563 18.8844C96.5563 19.0895 96.486 19.2604 96.3455 19.3971C96.205 19.5339 96.0132 19.6022 95.7701 19.6022C95.5233 19.6022 95.3296 19.5339 95.1891 19.3971C95.0524 19.2604 94.984 19.0895 94.984 18.8844Z" fill="black" fill-opacity="0.76"/>
<path d="M93.9245 20.5028V21.5054H90.4496V20.5028H93.9245ZM91.4522 18.9932H92.8251V24.9632C92.8251 25.1531 92.8517 25.2993 92.9048 25.4019C92.9618 25.5006 93.0396 25.5671 93.1384 25.6012C93.2371 25.6354 93.353 25.6525 93.4859 25.6525C93.5808 25.6525 93.672 25.6468 93.7593 25.6354C93.8467 25.624 93.9169 25.6126 93.9701 25.6012L93.9758 26.6494C93.8619 26.6836 93.7289 26.714 93.577 26.7406C93.4289 26.7671 93.258 26.7804 93.0643 26.7804C92.7491 26.7804 92.47 26.7254 92.2269 26.6152C91.9839 26.5013 91.794 26.3171 91.6573 26.0627C91.5205 25.8082 91.4522 25.4702 91.4522 25.0487V18.9932Z" fill="black" fill-opacity="0.76"/>
<path d="M88.2848 25.4302V22.4907C88.2848 22.2705 88.2449 22.0806 88.1652 21.9211C88.0854 21.7616 87.9639 21.6381 87.8006 21.5508C87.6411 21.4634 87.4398 21.4198 87.1967 21.4198C86.9727 21.4198 86.779 21.4577 86.6157 21.5337C86.4524 21.6096 86.3252 21.7122 86.234 21.8413C86.1429 21.9704 86.0973 22.1166 86.0973 22.2799H84.7301C84.7301 22.0369 84.789 21.8014 84.9067 21.5736C85.0244 21.3457 85.1953 21.1425 85.4194 20.964C85.6435 20.7855 85.9112 20.645 86.2226 20.5425C86.534 20.4399 86.8834 20.3887 87.2708 20.3887C87.7341 20.3887 88.1443 20.4665 88.5013 20.6222C88.862 20.7779 89.145 21.0134 89.3501 21.3286C89.5589 21.64 89.6634 22.0312 89.6634 22.5021V25.2422C89.6634 25.5232 89.6824 25.7758 89.7203 25.9998C89.7621 26.2201 89.821 26.4119 89.8969 26.5752V26.6663H88.4899C88.4253 26.5182 88.374 26.3302 88.3361 26.1024C88.3019 25.8707 88.2848 25.6466 88.2848 25.4302ZM88.4842 22.918L88.4956 23.7668H87.51C87.2556 23.7668 87.0315 23.7914 86.8378 23.8408C86.6442 23.8864 86.4828 23.9548 86.3536 24.0459C86.2245 24.137 86.1277 24.2472 86.0631 24.3763C85.9985 24.5054 85.9663 24.6516 85.9663 24.8149C85.9663 24.9782 86.0042 25.1283 86.0802 25.265C86.1562 25.3979 86.2663 25.5023 86.4106 25.5783C86.5587 25.6542 86.7372 25.6922 86.9461 25.6922C87.2271 25.6922 87.4721 25.6353 87.6809 25.5213C87.8936 25.4036 88.0607 25.2612 88.1822 25.0941C88.3038 24.9232 88.3683 24.7618 88.3759 24.6099L88.8203 25.2194C88.7747 25.3751 88.6968 25.5422 88.5867 25.7207C88.4766 25.8992 88.3323 26.0701 88.1538 26.2334C87.9791 26.3929 87.7683 26.5239 87.5214 26.6265C87.2784 26.729 86.9974 26.7803 86.6783 26.7803C86.2758 26.7803 85.9169 26.7005 85.6017 26.541C85.2865 26.3777 85.0396 26.1593 84.8611 25.8859C84.6826 25.6087 84.5934 25.2954 84.5934 24.946C84.5934 24.6194 84.6541 24.3307 84.7757 24.0801C84.901 23.8256 85.0833 23.613 85.3226 23.4421C85.5656 23.2712 85.8618 23.142 86.2112 23.0547C86.5606 22.9635 86.9594 22.918 87.4075 22.918H88.4842Z" fill="black" fill-opacity="0.76"/>
<path d="M76.02 21.7559V26.6663H74.6471V20.5026H75.9402L76.02 21.7559ZM75.7978 23.3566L75.3307 23.3509C75.3307 22.9256 75.3839 22.5325 75.4902 22.1717C75.5965 21.8109 75.7522 21.4976 75.9573 21.2318C76.1624 20.9621 76.4168 20.7552 76.7207 20.6108C77.0283 20.4627 77.3834 20.3887 77.7859 20.3887C78.067 20.3887 78.3233 20.4304 78.555 20.514C78.7904 20.5937 78.9936 20.721 79.1645 20.8957C79.3392 21.0704 79.4721 21.2944 79.5633 21.5679C79.6582 21.8413 79.7057 22.1717 79.7057 22.5591V26.6663H78.3328V22.6787C78.3328 22.3787 78.2872 22.1432 78.1961 21.9723C78.1087 21.8014 77.9815 21.6799 77.8144 21.6077C77.6511 21.5318 77.4555 21.4938 77.2277 21.4938C76.9694 21.4938 76.7491 21.5432 76.5669 21.6419C76.3884 21.7407 76.2421 21.8755 76.1282 22.0464C76.0143 22.2173 75.9307 22.4148 75.8776 22.6388C75.8244 22.8629 75.7978 23.1022 75.7978 23.3566ZM79.6202 22.992L78.9765 23.1344C78.9765 22.7623 79.0278 22.411 79.1303 22.0806C79.2367 21.7464 79.3905 21.4539 79.5918 21.2033C79.7968 20.9488 80.0494 20.7495 80.3494 20.6051C80.6494 20.4608 80.9931 20.3887 81.3805 20.3887C81.6957 20.3887 81.9767 20.4323 82.2236 20.5197C82.4742 20.6032 82.6869 20.7362 82.8616 20.9185C83.0363 21.1007 83.1692 21.3381 83.2604 21.6305C83.3515 21.9192 83.3971 22.2686 83.3971 22.6787V26.6663H82.0185V22.673C82.0185 22.3616 81.9729 22.1204 81.8818 21.9495C81.7944 21.7786 81.6691 21.6609 81.5058 21.5964C81.3425 21.528 81.1469 21.4938 80.9191 21.4938C80.7064 21.4938 80.5184 21.5337 80.3551 21.6134C80.1956 21.6894 80.0608 21.7976 79.9506 21.9382C79.8405 22.0749 79.757 22.2325 79.7 22.411C79.6468 22.5895 79.6202 22.7831 79.6202 22.992Z" fill="black" fill-opacity="0.76"/>
<path d="M71.9013 21.6761V26.6663H70.5284V20.5026H71.8387L71.9013 21.6761ZM73.7869 20.4627L73.7755 21.7388C73.692 21.7236 73.6008 21.7122 73.5021 21.7046C73.4071 21.697 73.3122 21.6932 73.2172 21.6932C72.9818 21.6932 72.7748 21.7274 72.5963 21.7957C72.4178 21.8603 72.2678 21.9552 72.1463 22.0806C72.0286 22.2021 71.9374 22.3502 71.8728 22.5249C71.8083 22.6996 71.7703 22.8952 71.7589 23.1117L71.4456 23.1344C71.4456 22.7471 71.4836 22.3882 71.5595 22.0578C71.6355 21.7274 71.7494 21.4368 71.9013 21.1862C72.057 20.9355 72.2507 20.74 72.4824 20.5994C72.7178 20.4589 72.9894 20.3887 73.297 20.3887C73.3806 20.3887 73.4698 20.3963 73.5647 20.4115C73.6635 20.4266 73.7375 20.4437 73.7869 20.4627Z" fill="black" fill-opacity="0.76"/>
<path d="M63.6412 23.6528V23.5218C63.6412 23.0775 63.7058 22.6654 63.8349 22.2856C63.964 21.9021 64.1501 21.5698 64.3932 21.2887C64.64 21.0039 64.9401 20.7836 65.2933 20.6279C65.6502 20.4684 66.0528 20.3887 66.5009 20.3887C66.9529 20.3887 67.3554 20.4684 67.7086 20.6279C68.0656 20.7836 68.3675 21.0039 68.6144 21.2887C68.8612 21.5698 69.0492 21.9021 69.1783 22.2856C69.3075 22.6654 69.372 23.0775 69.372 23.5218V23.6528C69.372 24.0972 69.3075 24.5092 69.1783 24.889C69.0492 25.2688 68.8612 25.6011 68.6144 25.8859C68.3675 26.1669 68.0675 26.3872 67.7143 26.5467C67.3611 26.7024 66.9605 26.7803 66.5123 26.7803C66.0604 26.7803 65.6559 26.7024 65.2989 26.5467C64.9458 26.3872 64.6457 26.1669 64.3989 25.8859C64.152 25.6011 63.964 25.2688 63.8349 24.889C63.7058 24.5092 63.6412 24.0972 63.6412 23.6528ZM65.0141 23.5218V23.6528C65.0141 23.9301 65.0426 24.1921 65.0996 24.439C65.1565 24.6858 65.2458 24.9023 65.3673 25.0884C65.4888 25.2745 65.6445 25.4207 65.8344 25.527C66.0243 25.6334 66.2503 25.6865 66.5123 25.6865C66.7668 25.6865 66.987 25.6334 67.1731 25.527C67.363 25.4207 67.5187 25.2745 67.6403 25.0884C67.7618 24.9023 67.851 24.6858 67.908 24.439C67.9688 24.1921 67.9991 23.9301 67.9991 23.6528V23.5218C67.9991 23.2484 67.9688 22.9901 67.908 22.7471C67.851 22.5002 67.7599 22.2818 67.6346 22.092C67.513 21.9021 67.3573 21.754 67.1674 21.6476C66.9813 21.5375 66.7592 21.4824 66.5009 21.4824C66.2427 21.4824 66.0186 21.5375 65.8287 21.6476C65.6426 21.754 65.4888 21.9021 65.3673 22.092C65.2458 22.2818 65.1565 22.5002 65.0996 22.7471C65.0426 22.9901 65.0141 23.2484 65.0141 23.5218Z" fill="black" fill-opacity="0.76"/>
<path d="M61.636 26.6665H60.2631V19.9103C60.2631 19.4508 60.3486 19.0653 60.5195 18.7539C60.6942 18.4387 60.9429 18.2013 61.2657 18.0418C61.5886 17.8785 61.9702 17.7969 62.4108 17.7969C62.5475 17.7969 62.6823 17.8064 62.8152 17.8254C62.9481 17.8405 63.0773 17.8652 63.2026 17.8994L63.1684 18.959C63.0925 18.94 63.0089 18.9267 62.9178 18.9191C62.8304 18.9115 62.7355 18.9077 62.6329 18.9077C62.4241 18.9077 62.2437 18.9476 62.0918 19.0273C61.9436 19.1033 61.8297 19.2153 61.75 19.3634C61.674 19.5116 61.636 19.6938 61.636 19.9103V26.6665ZM62.9064 20.5028V21.5054H59.3175V20.5028H62.9064Z" fill="black" fill-opacity="0.76"/>
<path d="M57.2326 24.9972C57.2326 24.8605 57.1984 24.7371 57.1301 24.627C57.0617 24.513 56.9307 24.4105 56.737 24.3193C56.5471 24.2282 56.2661 24.1446 55.8939 24.0687C55.5673 23.9965 55.2673 23.9111 54.9939 23.8123C54.7242 23.7098 54.4926 23.5864 54.2989 23.4421C54.1052 23.2977 53.9552 23.1268 53.8488 22.9294C53.7425 22.7319 53.6893 22.504 53.6893 22.2458C53.6893 21.9951 53.7444 21.7578 53.8545 21.5337C53.9647 21.3096 54.1223 21.1121 54.3274 20.9412C54.5324 20.7703 54.7812 20.6355 55.0736 20.5368C55.3698 20.438 55.7002 20.3887 56.0648 20.3887C56.5813 20.3887 57.0237 20.476 57.3921 20.6507C57.7643 20.8216 58.0491 21.0552 58.2466 21.3514C58.4441 21.6438 58.5428 21.9742 58.5428 22.3426H57.17C57.17 22.1793 57.1282 22.0274 57.0446 21.8869C56.9649 21.7426 56.8434 21.6267 56.6801 21.5394C56.5168 21.4482 56.3117 21.4027 56.0648 21.4027C55.8294 21.4027 55.6338 21.4406 55.4781 21.5166C55.3262 21.5888 55.2122 21.6837 55.1363 21.8014C55.0641 21.9192 55.028 22.0483 55.028 22.1888C55.028 22.2913 55.047 22.3844 55.085 22.4679C55.1268 22.5477 55.1951 22.6217 55.2901 22.6901C55.385 22.7547 55.5141 22.8154 55.6774 22.8724C55.8446 22.9294 56.0534 22.9844 56.3041 23.0376C56.775 23.1363 57.1795 23.2636 57.5175 23.4193C57.8593 23.5712 58.1213 23.7687 58.3036 24.0117C58.4859 24.251 58.577 24.5548 58.577 24.9232C58.577 25.1966 58.5182 25.4473 58.4004 25.6751C58.2865 25.8992 58.1194 26.0948 57.8991 26.2619C57.6789 26.4252 57.4149 26.5524 57.1073 26.6436C56.8035 26.7347 56.4617 26.7803 56.0819 26.7803C55.5236 26.7803 55.0508 26.6815 54.6635 26.484C54.2761 26.2828 53.9818 26.0264 53.7805 25.715C53.583 25.3998 53.4843 25.0732 53.4843 24.7352H54.8116C54.8268 24.9896 54.897 25.1928 55.0223 25.3447C55.1515 25.4928 55.311 25.6011 55.5009 25.6694C55.6945 25.734 55.8939 25.7663 56.099 25.7663C56.3459 25.7663 56.5528 25.734 56.7199 25.6694C56.887 25.6011 57.0143 25.5099 57.1016 25.396C57.189 25.2783 57.2326 25.1453 57.2326 24.9972Z" fill="black" fill-opacity="0.76"/>
<path d="M48.642 21.8185V26.6663H47.2692V20.5026H48.5623L48.642 21.8185ZM48.3971 23.3566L47.9528 23.3509C47.9566 22.9142 48.0173 22.5135 48.1351 22.1489C48.2566 21.7843 48.4237 21.471 48.6364 21.209C48.8528 20.9469 49.1111 20.7457 49.4111 20.6051C49.7111 20.4608 50.0453 20.3887 50.4137 20.3887C50.7099 20.3887 50.9777 20.4304 51.2169 20.514C51.46 20.5937 51.667 20.7248 51.8379 20.9071C52.0125 21.0894 52.1455 21.3267 52.2366 21.6191C52.3278 21.9078 52.3733 22.2629 52.3733 22.6844V26.6663H50.9948V22.6787C50.9948 22.3825 50.9511 22.1489 50.8637 21.978C50.7802 21.8033 50.6568 21.6799 50.4934 21.6077C50.3339 21.5318 50.1346 21.4938 49.8953 21.4938C49.6598 21.4938 49.4491 21.5432 49.263 21.6419C49.0769 21.7407 48.9193 21.8755 48.7902 22.0464C48.6648 22.2173 48.568 22.4148 48.4996 22.6388C48.4313 22.8629 48.3971 23.1022 48.3971 23.3566Z" fill="black" fill-opacity="0.76"/>
<path d="M44.4664 25.4302V22.4907C44.4664 22.2705 44.4266 22.0806 44.3468 21.9211C44.267 21.7616 44.1455 21.6381 43.9822 21.5508C43.8227 21.4634 43.6214 21.4198 43.3784 21.4198C43.1543 21.4198 42.9606 21.4577 42.7973 21.5337C42.634 21.6096 42.5068 21.7122 42.4156 21.8413C42.3245 21.9704 42.2789 22.1166 42.2789 22.2799H40.9117C40.9117 22.0369 40.9706 21.8014 41.0883 21.5736C41.2061 21.3457 41.377 21.1425 41.601 20.964C41.8251 20.7855 42.0928 20.645 42.4043 20.5425C42.7157 20.4399 43.0651 20.3887 43.4524 20.3887C43.9158 20.3887 44.3259 20.4665 44.6829 20.6222C45.0437 20.7779 45.3266 21.0134 45.5317 21.3286C45.7406 21.64 45.845 22.0312 45.845 22.5021V25.2422C45.845 25.5232 45.864 25.7758 45.902 25.9998C45.9438 26.2201 46.0026 26.4119 46.0786 26.5752V26.6663H44.6715C44.6069 26.5182 44.5557 26.3302 44.5177 26.1024C44.4835 25.8707 44.4664 25.6466 44.4664 25.4302ZM44.6658 22.918L44.6772 23.7668H43.6917C43.4372 23.7668 43.2132 23.7914 43.0195 23.8408C42.8258 23.8864 42.6644 23.9548 42.5353 24.0459C42.4062 24.137 42.3093 24.2472 42.2448 24.3763C42.1802 24.5054 42.1479 24.6516 42.1479 24.8149C42.1479 24.9782 42.1859 25.1283 42.2618 25.265C42.3378 25.3979 42.4479 25.5023 42.5922 25.5783C42.7404 25.6542 42.9188 25.6922 43.1277 25.6922C43.4088 25.6922 43.6537 25.6353 43.8626 25.5213C44.0753 25.4036 44.2424 25.2612 44.3639 25.0941C44.4854 24.9232 44.55 24.7618 44.5576 24.6099L45.0019 25.2194C44.9563 25.3751 44.8785 25.5422 44.7683 25.7207C44.6582 25.8992 44.5139 26.0701 44.3354 26.2334C44.1607 26.3929 43.9499 26.5239 43.7031 26.6265C43.46 26.729 43.179 26.7803 42.86 26.7803C42.4574 26.7803 42.0985 26.7005 41.7833 26.541C41.4681 26.3777 41.2213 26.1593 41.0428 25.8859C40.8643 25.6087 40.775 25.2954 40.775 24.946C40.775 24.6194 40.8358 24.3307 40.9573 24.0801C41.0826 23.8256 41.2649 23.613 41.5042 23.4421C41.7472 23.2712 42.0435 23.142 42.3929 23.0547C42.7423 22.9635 43.141 22.918 43.5892 22.918H44.6658Z" fill="black" fill-opacity="0.76"/>
<path d="M38.4509 21.6761V26.6663H37.078V20.5026H38.3882L38.4509 21.6761ZM40.3365 20.4627L40.3251 21.7388C40.2415 21.7236 40.1504 21.7122 40.0516 21.7046C39.9567 21.697 39.8617 21.6932 39.7668 21.6932C39.5313 21.6932 39.3244 21.7274 39.1459 21.7957C38.9674 21.8603 38.8174 21.9552 38.6958 22.0806C38.5781 22.2021 38.487 22.3502 38.4224 22.5249C38.3578 22.6996 38.3199 22.8952 38.3085 23.1117L37.9952 23.1344C37.9952 22.7471 38.0331 22.3882 38.1091 22.0578C38.185 21.7274 38.299 21.4368 38.4509 21.1862C38.6066 20.9355 38.8003 20.74 39.0319 20.5994C39.2674 20.4589 39.5389 20.3887 39.8466 20.3887C39.9301 20.3887 40.0194 20.3963 40.1143 20.4115C40.213 20.4266 40.2871 20.4437 40.3365 20.4627Z" fill="black" fill-opacity="0.76"/>
<path d="M33.922 18.3721V26.6663H32.5035V18.3721H33.922ZM36.5253 18.3721V19.5114H29.923V18.3721H36.5253Z" fill="black" fill-opacity="0.76"/>
</g>
<defs>
<clipPath id="clip0_17666_13395">
<rect width="125" height="40" fill="white" transform="translate(0.5)"/>
</clipPath>
</defs>
</svg>
