<svg width="78" height="40" viewBox="0 0 78 40" fill="none" xmlns="http://www.w3.org/2000/svg">
<g clip-path="url(#clip0_17666_10582)">
<path d="M5.25 3.33333C5.25 1.49238 6.74238 0 8.58333 0H74.4167C76.2576 0 77.75 1.49238 77.75 3.33333V31.6667C77.75 33.5076 76.2576 35 74.4167 35H8.58333C6.74238 35 5.25 33.5076 5.25 31.6667V3.33333Z" fill="#F1928F"/>
<path d="M74.4167 34.1667V35H8.58333V34.1667H74.4167ZM76.9167 31.6667V3.33333C76.9167 1.95262 75.7974 0.833333 74.4167 0.833333H8.58333C7.20262 0.833333 6.08333 1.95262 6.08333 3.33333V31.6667C6.08333 33.0474 7.20262 34.1667 8.58333 34.1667V35L8.41162 34.9959C6.70733 34.9095 5.34054 33.5427 5.25407 31.8384L5.25 31.6667V3.33333C5.25 1.54997 6.65047 0.0934288 8.41162 0.00406901L8.58333 0H74.4167C76.2576 0 77.75 1.49238 77.75 3.33333V31.6667C77.75 33.5076 76.2576 35 74.4167 35V34.1667C75.7974 34.1667 76.9167 33.0474 76.9167 31.6667Z" fill="black" fill-opacity="0.5"/>
<path d="M2.75 5.83333C2.75 3.99238 4.24238 2.5 6.08333 2.5H71.9167C73.7576 2.5 75.25 3.99238 75.25 5.83333V34.1667C75.25 36.0076 73.7576 37.5 71.9167 37.5H6.08333C4.24238 37.5 2.75 36.0076 2.75 34.1667V5.83333Z" fill="#F1928F"/>
<path d="M71.9167 36.6667V37.5H6.08333V36.6667H71.9167ZM74.4167 34.1667V5.83333C74.4167 4.45262 73.2974 3.33333 71.9167 3.33333H6.08333C4.70262 3.33333 3.58333 4.45262 3.58333 5.83333V34.1667C3.58333 35.5474 4.70262 36.6667 6.08333 36.6667V37.5L5.91162 37.4959C4.20733 37.4095 2.84054 36.0427 2.75407 34.3384L2.75 34.1667V5.83333C2.75 4.04997 4.15047 2.59343 5.91162 2.50407L6.08333 2.5H71.9167C73.7576 2.5 75.25 3.99238 75.25 5.83333V34.1667C75.25 36.0076 73.7576 37.5 71.9167 37.5V36.6667C73.2974 36.6667 74.4167 35.5474 74.4167 34.1667Z" fill="black" fill-opacity="0.5"/>
<path d="M0.25 8.33333C0.25 6.49238 1.74238 5 3.58333 5H69.4167C71.2576 5 72.75 6.49238 72.75 8.33333V36.6667C72.75 38.5076 71.2576 40 69.4167 40H3.58333C1.74238 40 0.25 38.5076 0.25 36.6667V8.33333Z" fill="#F1928F"/>
<path d="M69.4167 39.1667V40H3.58333V39.1667H69.4167ZM71.9167 36.6667V8.33333C71.9167 6.95262 70.7974 5.83333 69.4167 5.83333H3.58333C2.20262 5.83333 1.08333 6.95262 1.08333 8.33333V36.6667C1.08333 38.0474 2.20262 39.1667 3.58333 39.1667V40L3.41162 39.9959C1.70733 39.9095 0.340543 38.5427 0.254069 36.8384L0.25 36.6667V8.33333C0.25 6.54997 1.65047 5.09343 3.41162 5.00407L3.58333 5H69.4167C71.2576 5 72.75 6.49238 72.75 8.33333V36.6667C72.75 38.5076 71.2576 40 69.4167 40V39.1667C70.7974 39.1667 71.9167 38.0474 71.9167 36.6667Z" fill="black" fill-opacity="0.5"/>
<path d="M14.625 16.25V23.125H16.5V28.75L20.875 21.25H18.375L20.875 16.25H14.625Z" fill="black" fill-opacity="0.76"/>
<path d="M57.9608 21.8195V26.6673H56.5879V20.5036H57.881L57.9608 21.8195ZM57.7158 23.3576L57.2715 23.3519C57.2753 22.9151 57.336 22.5145 57.4538 22.1499C57.5753 21.7853 57.7424 21.472 57.9551 21.21C58.1715 20.9479 58.4298 20.7466 58.7298 20.6061C59.0298 20.4618 59.364 20.3896 59.7324 20.3896C60.0286 20.3896 60.2964 20.4314 60.5356 20.515C60.7787 20.5947 60.9857 20.7257 61.1566 20.908C61.3313 21.0903 61.4642 21.3277 61.5553 21.6201C61.6465 21.9087 61.6921 22.2638 61.6921 22.6854V26.6673H60.3135V22.6797C60.3135 22.3835 60.2698 22.1499 60.1825 21.979C60.0989 21.8043 59.9755 21.6809 59.8122 21.6087C59.6527 21.5328 59.4533 21.4948 59.214 21.4948C58.9786 21.4948 58.7678 21.5442 58.5817 21.6429C58.3956 21.7416 58.238 21.8765 58.1089 22.0474C57.9836 22.2183 57.8867 22.4157 57.8184 22.6398C57.75 22.8639 57.7158 23.1031 57.7158 23.3576Z" fill="black" fill-opacity="0.76"/>
<path d="M49.7178 23.6538V23.5228C49.7178 23.0785 49.7823 22.6664 49.9115 22.2866C50.0406 21.903 50.2267 21.5707 50.4697 21.2897C50.7166 21.0049 51.0166 20.7846 51.3698 20.6289C51.7268 20.4694 52.1293 20.3896 52.5775 20.3896C53.0294 20.3896 53.432 20.4694 53.7852 20.6289C54.1421 20.7846 54.4441 21.0049 54.6909 21.2897C54.9378 21.5707 55.1258 21.903 55.2549 22.2866C55.384 22.6664 55.4486 23.0785 55.4486 23.5228V23.6538C55.4486 24.0981 55.384 24.5102 55.2549 24.89C55.1258 25.2697 54.9378 25.6021 54.6909 25.8869C54.4441 26.1679 54.144 26.3882 53.7909 26.5477C53.4377 26.7034 53.037 26.7812 52.5889 26.7812C52.1369 26.7812 51.7325 26.7034 51.3755 26.5477C51.0223 26.3882 50.7223 26.1679 50.4754 25.8869C50.2286 25.6021 50.0406 25.2697 49.9115 24.89C49.7823 24.5102 49.7178 24.0981 49.7178 23.6538ZM51.0907 23.5228V23.6538C51.0907 23.931 51.1191 24.1931 51.1761 24.4399C51.2331 24.6868 51.3223 24.9033 51.4438 25.0894C51.5654 25.2754 51.7211 25.4217 51.911 25.528C52.1009 25.6343 52.3268 25.6875 52.5889 25.6875C52.8433 25.6875 53.0636 25.6343 53.2497 25.528C53.4396 25.4217 53.5953 25.2754 53.7168 25.0894C53.8383 24.9033 53.9276 24.6868 53.9845 24.4399C54.0453 24.1931 54.0757 23.931 54.0757 23.6538V23.5228C54.0757 23.2493 54.0453 22.9911 53.9845 22.748C53.9276 22.5012 53.8364 22.2828 53.7111 22.0929C53.5896 21.903 53.4339 21.7549 53.244 21.6486C53.0579 21.5385 52.8357 21.4834 52.5775 21.4834C52.3192 21.4834 52.0952 21.5385 51.9053 21.6486C51.7192 21.7549 51.5654 21.903 51.4438 22.0929C51.3223 22.2828 51.2331 22.5012 51.1761 22.748C51.1191 22.9911 51.0907 23.2493 51.0907 23.5228Z" fill="black" fill-opacity="0.76"/>
<path d="M48.476 20.5033V26.667H47.0974V20.5033H48.476ZM47.0062 18.8854C47.0062 18.6765 47.0746 18.5037 47.2113 18.367C47.3518 18.2265 47.5455 18.1562 47.7924 18.1562C48.0354 18.1562 48.2272 18.2265 48.3677 18.367C48.5082 18.5037 48.5785 18.6765 48.5785 18.8854C48.5785 19.0905 48.5082 19.2614 48.3677 19.3981C48.2272 19.5348 48.0354 19.6032 47.7924 19.6032C47.5455 19.6032 47.3518 19.5348 47.2113 19.3981C47.0746 19.2614 47.0062 19.0905 47.0062 18.8854Z" fill="black" fill-opacity="0.76"/>
<path d="M45.9466 20.5028V21.5054H42.4717V20.5028H45.9466ZM43.4743 18.9932H44.8472V24.9632C44.8472 25.1531 44.8738 25.2993 44.9269 25.4019C44.9839 25.5006 45.0617 25.5671 45.1605 25.6012C45.2592 25.6354 45.3751 25.6525 45.508 25.6525C45.6029 25.6525 45.6941 25.6468 45.7814 25.6354C45.8688 25.624 45.939 25.6126 45.9922 25.6012L45.9979 26.6494C45.884 26.6836 45.751 26.714 45.5991 26.7406C45.451 26.7671 45.2801 26.7804 45.0864 26.7804C44.7712 26.7804 44.4921 26.7254 44.249 26.6152C44.006 26.5013 43.8161 26.3171 43.6794 26.0627C43.5426 25.8082 43.4743 25.4702 43.4743 25.0487V18.9932Z" fill="black" fill-opacity="0.76"/>
<path d="M39.5436 25.6875C39.7677 25.6875 39.969 25.6438 40.1475 25.5565C40.3298 25.4653 40.476 25.34 40.5861 25.1805C40.7 25.021 40.7627 24.8368 40.7741 24.6279H42.0672C42.0596 25.0267 41.9419 25.3894 41.714 25.716C41.4862 26.0426 41.1842 26.3027 40.8083 26.4964C40.4323 26.6863 40.0164 26.7812 39.5607 26.7812C39.0898 26.7812 38.6796 26.7015 38.3302 26.542C37.9808 26.3787 37.6903 26.1546 37.4587 25.8698C37.227 25.585 37.0523 25.2565 36.9346 24.8843C36.8206 24.5121 36.7637 24.1133 36.7637 23.688V23.4886C36.7637 23.0633 36.8206 22.6645 36.9346 22.2923C37.0523 21.9163 37.227 21.5859 37.4587 21.3011C37.6903 21.0163 37.9808 20.7941 38.3302 20.6346C38.6796 20.4713 39.0879 20.3896 39.555 20.3896C40.0487 20.3896 40.4817 20.4884 40.8538 20.6859C41.226 20.8796 41.5184 21.1511 41.7311 21.5005C41.9476 21.8461 42.0596 22.2486 42.0672 22.7082H40.7741C40.7627 22.4803 40.7057 22.2752 40.6032 22.0929C40.5044 21.9068 40.3639 21.7587 40.1816 21.6486C40.0031 21.5385 39.7886 21.4834 39.5379 21.4834C39.2607 21.4834 39.0309 21.5404 38.8486 21.6543C38.6663 21.7644 38.5239 21.9163 38.4214 22.11C38.3188 22.2999 38.2448 22.5145 38.1992 22.7537C38.1574 22.9892 38.1366 23.2342 38.1366 23.4886V23.688C38.1366 23.9424 38.1574 24.1893 38.1992 24.4285C38.241 24.6678 38.3132 24.8824 38.4157 25.0723C38.522 25.2584 38.6663 25.4084 38.8486 25.5223C39.0309 25.6324 39.2626 25.6875 39.5436 25.6875Z" fill="black" fill-opacity="0.76"/>
<path d="M32.6564 19.4782L30.1784 26.6673H28.6802L31.8019 18.373H32.759L32.6564 19.4782ZM34.73 26.6673L32.2463 19.4782L32.138 18.373H33.1007L36.2339 26.6673H34.73ZM34.6104 23.5911V24.7248H30.0986V23.5911H34.6104Z" fill="black" fill-opacity="0.76"/>
</g>
<defs>
<clipPath id="clip0_17666_10582">
<rect width="77.5" height="40" fill="white" transform="translate(0.25)"/>
</clipPath>
</defs>
</svg>
