<svg xmlns="http://www.w3.org/2000/svg" width="225" height="179" fill="none" viewBox="0 0 225 179">


<animate xmlns="http://www.w3.org/2000/svg" href="#title-part" attributeName="opacity" values="0;1.0305;1;1" dur="3.3s" repeatCount="1" calcMode="spline" keyTimes="0;0.19;0.3;1" keySplines="0.33 0 0.67 1;0.33 0 0.67 1;0.33 0 0.67 1" additive="replace" fill="freeze"/>
<animate xmlns="http://www.w3.org/2000/svg" href="#legend" attributeName="opacity" values="0;1.0305;1;1" dur="3.3s" repeatCount="1" calcMode="spline" keyTimes="0;0.19;0.3;1" keySplines="0.33 0 0.67 1;0.33 0 0.67 1;0.33 0 0.67 1" additive="replace" fill="freeze"/>
<animate xmlns="http://www.w3.org/2000/svg" href="#day-1" attributeName="opacity" values="0;1.0305;1;1" dur="3.3s" repeatCount="1" calcMode="spline" keyTimes="0;0.19;0.3;1" keySplines="0.33 0 0.67 1;0.33 0 0.67 1;0.33 0 0.67 1" additive="replace" fill="freeze"/>
<animate xmlns="http://www.w3.org/2000/svg" href="#day-2" attributeName="opacity" values="0;1.0305;1;1" dur="3.3s" repeatCount="1" calcMode="spline" keyTimes="0;0.19;0.3;1" keySplines="0.33 0 0.67 1;0.33 0 0.67 1;0.33 0 0.67 1" additive="replace" fill="freeze"/>
<animate xmlns="http://www.w3.org/2000/svg" href="#day-1" attributeName="opacity" values="0;1.0305;1;1" dur="3.3s" repeatCount="1" calcMode="spline" keyTimes="0;0.19;0.3;1" keySplines="0.33 0 0.67 1;0.33 0 0.67 1;0.33 0 0.67 1" additive="replace" fill="freeze"/>
<animate xmlns="http://www.w3.org/2000/svg" href="#day-1" attributeName="opacity" values="0;1.0305;1;1" dur="3.3s" repeatCount="1" calcMode="spline" keyTimes="0;0.19;0.3;1" keySplines="0.33 0 0.67 1;0.33 0 0.67 1;0.33 0 0.67 1" additive="replace" fill="freeze"/>
<animate xmlns="http://www.w3.org/2000/svg" href="#100" attributeName="opacity" values="0;0;1;1" dur="3.3s" repeatCount="1" calcMode="spline" keyTimes="0;0.38;0.55;1" keySplines="0.5 0.35 0.15 1;0.5 0.35 0.15 1;0.5 0.35 0.15 1" additive="replace" fill="freeze"/>
<animate xmlns="http://www.w3.org/2000/svg" href="#80" attributeName="opacity" values="0;0;1;1" dur="3.3s" repeatCount="1" calcMode="spline" keyTimes="0;0.37;0.53;1" keySplines="0.5 0.35 0.15 1;0.5 0.35 0.15 1;0.5 0.35 0.15 1" additive="replace" fill="freeze"/>
<animate xmlns="http://www.w3.org/2000/svg" href="#60" attributeName="opacity" values="0;0;1;1" dur="3.3s" repeatCount="1" calcMode="spline" keyTimes="0;0.35;0.51;1" keySplines="0.5 0.35 0.15 1;0.5 0.35 0.15 1;0.5 0.35 0.15 1" additive="replace" fill="freeze"/>
<animate xmlns="http://www.w3.org/2000/svg" href="#40" attributeName="opacity" values="0;0;1;1" dur="3.3s" repeatCount="1" calcMode="spline" keyTimes="0;0.34;0.5;1" keySplines="0.5 0.35 0.15 1;0.5 0.35 0.15 1;0.5 0.35 0.15 1" additive="replace" fill="freeze"/>
<animate xmlns="http://www.w3.org/2000/svg" href="#20" attributeName="opacity" values="0;0;1;1" dur="3.3s" repeatCount="1" calcMode="spline" keyTimes="0;0.32;0.48;1" keySplines="0.5 0.35 0.15 1;0.5 0.35 0.15 1;0.5 0.35 0.15 1" additive="replace" fill="freeze"/>
<animate xmlns="http://www.w3.org/2000/svg" href="#0" attributeName="opacity" values="0;0;1;1" dur="3.3s" repeatCount="1" calcMode="spline" keyTimes="0;0.3;0.46;1" keySplines="0.5 0.35 0.15 1;0.5 0.35 0.15 1;0.5 0.35 0.15 1" additive="replace" fill="freeze"/>
<animate xmlns="http://www.w3.org/2000/svg" href="#Line-1" attributeName="stroke-dasharray" values="0 165.2892;0 165.2892;0 165.2892;0 165.2892;0 165.2892;0 165.2892;33.3197 131.9695;126.8145 38.4747;156.8447 8.4445;163.44 1.8493;163.6527 1.6365;163.6527 1.6365;163.6527 1.6365;163.6527 1.6365;163.6527 1.6365;163.6527 1.6365;163.6527 1.6365;163.6527 1.6365" dur="3.3s" repeatCount="1" keyTimes="0;0.06;0.12;0.18;0.24;0.29;0.35;0.41;0.47;0.53;0.59;0.65;0.71;0.76;0.82;0.88;0.94;1" fill="freeze"/>
<animate xmlns="http://www.w3.org/2000/svg" href="#Line-2" attributeName="stroke-dasharray" values="0 165.2892;0 165.2892;0 165.2892;0 165.2892;0 165.2892;0 165.2892;12.7813 152.508;91.0236 74.2656;149.6113 15.6779;162.098 3.1912;163.6527 1.6365;163.6527 1.6365;163.6527 1.6365;163.6527 1.6365;163.6527 1.6365;163.6527 1.6365;163.6527 1.6365;163.6527 1.6365" dur="3.3s" repeatCount="1" keyTimes="0;0.06;0.12;0.18;0.24;0.29;0.35;0.41;0.47;0.53;0.59;0.65;0.71;0.76;0.82;0.88;0.94;1" fill="freeze"/>
<animate xmlns="http://www.w3.org/2000/svg" href="#Line-3" attributeName="stroke-dasharray" values="0 165.2892;0 165.2892;0 165.2892;0 165.2892;0 165.2892;0 165.2892;0 165.2892;47.5084 117.7808;136.65 28.6392;159.0868 6.2024;163.6363 1.6529;163.6527 1.6365;163.6527 1.6365;163.6527 1.6365;163.6527 1.6365;163.6527 1.6365;163.6527 1.6365;163.6527 1.6365" dur="3.3s" repeatCount="1" keyTimes="0;0.06;0.12;0.18;0.24;0.29;0.35;0.41;0.47;0.53;0.59;0.65;0.71;0.76;0.82;0.88;0.94;1" fill="freeze"/>
<animate xmlns="http://www.w3.org/2000/svg" href="#Line-4" attributeName="stroke-dasharray" values="0 165.2892;0 165.2892;0 165.2892;0 165.2892;0 165.2892;0 165.2892;0 165.2892;21.3403 143.9489;111.0875 54.2018;153.5553 11.7339;162.9163 2.373;163.6527 1.6365;163.6527 1.6365;163.6527 1.6365;163.6527 1.6365;163.6527 1.6365;163.6527 1.6365;163.6527 1.6365" dur="3.3s" repeatCount="1" keyTimes="0;0.06;0.12;0.18;0.24;0.29;0.35;0.41;0.47;0.53;0.59;0.65;0.71;0.76;0.82;0.88;0.94;1" fill="freeze"/>
<animate xmlns="http://www.w3.org/2000/svg" href="#Line-5" attributeName="stroke-dasharray" values="0 165.2892;0 165.2892;0 165.2892;0 165.2892;0 165.2892;0 165.2892;0 165.2892;5.0896 160.1996;66.1648 99.1244;143.8016 21.4876;160.7724 4.5168;163.6527 1.6365;163.6527 1.6365;163.6527 1.6365;163.6527 1.6365;163.6527 1.6365;163.6527 1.6365;163.6527 1.6365" dur="3.3s" repeatCount="1" keyTimes="0;0.06;0.12;0.18;0.24;0.29;0.35;0.41;0.47;0.53;0.59;0.65;0.71;0.76;0.82;0.88;0.94;1" fill="freeze"/>
<animate xmlns="http://www.w3.org/2000/svg" href="#Line-6" attributeName="stroke-dasharray" values="0 165.2892;0 165.2892;0 165.2892;0 165.2892;0 165.2892;0 165.2892;0 165.2892;0 165.2892;32.0268 133.2624;125.5707 39.7185;156.5665 8.7227;163.4072 1.882;163.6527 1.6365;163.6527 1.6365;163.6527 1.6365;163.6527 1.6365;163.6527 1.6365;163.6527 1.6365" dur="3.3s" repeatCount="1" keyTimes="0;0.06;0.12;0.18;0.24;0.29;0.35;0.41;0.47;0.53;0.59;0.65;0.71;0.76;0.82;0.88;0.94;1" fill="freeze"/>
  
  
  
  
  
  
  
  <g class="Bar-chart" >
    <g id="rect-main" transform-origin="center">
    <animateTransform xmlns="http://www.w3.org/2000/svg" attributeName="transform" type="scale" values="0 0;1.0305 1.0305;1 1;1 1" dur="3.3s" repeatCount="1" calcMode="spline" keyTimes="0;0.19;0.3;1" keySplines="0.33 0 0.67 1;0.33 0 0.67 1;0.33 0 0.67 1" additive="sum" fill="freeze"/>
    <animate xmlns="http://www.w3.org/2000/svg" attributeName="opacity" values="0;1.0305;1;1" dur="3.3s" repeatCount="1" calcMode="spline" keyTimes="0;0.19;0.3;1" keySplines="0.33 0 0.67 1;0.33 0 0.67 1;0.33 0 0.67 1" additive="replace" fill="freeze"/>
    <rect
      style="fill: #ffffff; stroke: #e5effd; stroke-width: 8"
      width="217"
      height="171"
      x="4"
      y="4"
      ry="6" />
    <g id="title-part">
      <path fill="#000" fill-opacity=".87" d="M26.699 29.242v.54h-2.097v-.54h2.097Zm-1.905-3.41v3.95h-.68v-3.95h.68Zm1.63 1.65v.531h-1.822v-.532h1.823Zm.261-1.65v.542h-2.083v-.542h2.083Zm1.24 1.641v2.309h-.654v-2.936h.616l.038.627Zm-.117.733-.211-.003a1.88 1.88 0 0 1 .087-.572 1.41 1.41 0 0 1 .238-.448 1.086 1.086 0 0 1 .846-.39c.142 0 .27.02.383.059a.69.69 0 0 1 .296.187c.083.087.147.2.19.34a1.7 1.7 0 0 1 .065.506v1.897h-.656v-1.9a.741.741 0 0 0-.063-.333.349.349 0 0 0-.176-.176.66.66 0 0 0-.285-.055.633.633 0 0 0-.526.264.931.931 0 0 0-.139.282c-.032.107-.049.22-.049.342Zm3.603 1.058.72-2.418h.678l-1.02 2.936h-.424l.046-.518Zm-.55-2.418.732 2.429.035.507h-.423l-1.025-2.936h.68Zm3.139 0v2.936h-.657v-2.936H34Zm-.7-.77c0-.1.032-.182.097-.247.067-.067.16-.1.277-.1a.37.37 0 0 1 .274.1.33.33 0 0 1 .1.247.325.325 0 0 1-.1.244.376.376 0 0 1-.274.098.38.38 0 0 1-.277-.098.331.331 0 0 1-.097-.244Zm2.16 1.33v2.376h-.654v-2.936h.623l.03.56Zm.897-.579-.005.608a1.708 1.708 0 0 0-.266-.022.823.823 0 0 0-.296.05.558.558 0 0 0-.344.347.944.944 0 0 0-.054.279l-.15.01c0-.184.018-.355.055-.512.036-.157.09-.296.162-.415a.742.742 0 0 1 .665-.38.813.813 0 0 1 .233.035Zm.301 1.52v-.063c0-.211.031-.407.093-.588a1.4 1.4 0 0 1 .266-.475c.117-.136.26-.24.428-.315.17-.076.362-.114.575-.114.216 0 .407.038.576.114.17.074.314.18.431.315.118.134.207.292.269.475.061.18.092.377.092.588v.063c0 .211-.03.408-.092.588-.062.181-.151.34-.269.475-.117.134-.26.239-.429.315a1.407 1.407 0 0 1-.572.111c-.215 0-.408-.037-.578-.111a1.246 1.246 0 0 1-.429-.315 1.41 1.41 0 0 1-.268-.474 1.818 1.818 0 0 1-.093-.59Zm.654-.063v.063c0 .132.014.257.041.374a.96.96 0 0 0 .128.31.632.632 0 0 0 .222.208c.09.051.198.076.323.076a.624.624 0 0 0 .537-.285.952.952 0 0 0 .128-.309c.028-.117.043-.242.043-.374v-.063c0-.13-.015-.253-.043-.369a.946.946 0 0 0-.13-.312.622.622 0 0 0-.54-.29.627.627 0 0 0-.32.079.63.63 0 0 0-.22.211.982.982 0 0 0-.128.312c-.027.116-.04.24-.04.37Zm3.36-.81v2.308h-.655v-2.936h.616l.038.627Zm-.117.732-.212-.003a1.88 1.88 0 0 1 .087-.572c.058-.174.137-.323.238-.448a1.087 1.087 0 0 1 .846-.39c.142 0 .27.02.384.059.115.038.214.1.295.187.083.087.147.2.19.34.043.137.065.306.065.506v1.897h-.656v-1.9a.741.741 0 0 0-.063-.333.349.349 0 0 0-.176-.176.661.661 0 0 0-.285-.055.633.633 0 0 0-.526.264.934.934 0 0 0-.139.282c-.032.107-.049.22-.049.342Zm3.301-.763v2.339h-.654v-2.936h.616l.038.597Zm-.105.763-.223-.003c0-.203.025-.39.076-.562.05-.171.125-.32.223-.447a.977.977 0 0 1 .363-.296c.147-.07.316-.106.507-.106.134 0 .256.02.367.06a.724.724 0 0 1 .29.182.8.8 0 0 1 .19.32c.045.13.068.287.068.472v1.956h-.654v-1.9a.722.722 0 0 0-.065-.336.36.36 0 0 0-.182-.173.657.657 0 0 0-.28-.055.653.653 0 0 0-.314.071.593.593 0 0 0-.21.193.861.861 0 0 0-.118.282 1.44 1.44 0 0 0-.038.342Zm1.82-.174-.307.068c0-.177.025-.345.074-.502.05-.16.124-.299.22-.418a1.03 1.03 0 0 1 .36-.285c.143-.069.307-.103.491-.103.15 0 .284.021.402.063.12.04.22.103.304.19.083.086.146.2.19.339.043.137.065.303.065.499v1.899h-.657V27.88a.744.744 0 0 0-.065-.345.338.338 0 0 0-.179-.168.723.723 0 0 0-.28-.049.605.605 0 0 0-.268.057.532.532 0 0 0-.193.155.688.688 0 0 0-.119.225.966.966 0 0 0-.038.277Zm3.853 1.804c-.218 0-.414-.035-.59-.106a1.3 1.3 0 0 1-.444-.3 1.336 1.336 0 0 1-.28-.454 1.587 1.587 0 0 1-.097-.561v-.109c0-.23.033-.438.1-.624s.16-.345.28-.477a1.2 1.2 0 0 1 .423-.307c.163-.07.339-.106.529-.106.21 0 .393.035.55.106.158.07.288.17.391.298.105.127.183.278.234.453.052.176.078.37.078.581v.28H48.33v-.47h1.623v-.051a.918.918 0 0 0-.07-.331.563.563 0 0 0-.194-.25.577.577 0 0 0-.347-.095.574.574 0 0 0-.5.269 1.075 1.075 0 0 0-.13.314 1.77 1.77 0 0 0-.043.41v.109c0 .128.018.247.052.358a.857.857 0 0 0 .157.285.747.747 0 0 0 .25.192.786.786 0 0 0 .334.068.906.906 0 0 0 .74-.364l.345.334a1.238 1.238 0 0 1-.619.47 1.48 1.48 0 0 1-.504.078Zm2.42-2.363v2.309h-.654v-2.936h.616l.038.627Zm-.117.733-.212-.003c.002-.208.031-.399.087-.572a1.41 1.41 0 0 1 .239-.448 1.063 1.063 0 0 1 .846-.391c.142 0 .269.02.383.06.116.038.214.1.296.187.083.087.146.2.19.34.043.137.065.306.065.506v1.897h-.657v-1.9a.741.741 0 0 0-.062-.333.348.348 0 0 0-.177-.176.661.661 0 0 0-.285-.055.633.633 0 0 0-.526.264.934.934 0 0 0-.138.282 1.15 1.15 0 0 0-.049.342Zm3.994-1.36v.478h-1.655v-.478h1.655Zm-1.178-.718h.654v2.843c0 .09.013.16.038.209a.203.203 0 0 0 .111.095.506.506 0 0 0 .166.024 1.011 1.011 0 0 0 .23-.024l.003.499a1.4 1.4 0 0 1-.434.062.958.958 0 0 1-.399-.078.587.587 0 0 1-.271-.264 1.022 1.022 0 0 1-.098-.482v-2.884Zm3.893 1.315v2.339h-.653v-2.936h.615l.038.597Zm-.105.763-.223-.003c0-.203.026-.39.076-.562.05-.171.125-.32.223-.447a.978.978 0 0 1 .363-.296c.147-.07.316-.106.508-.106.133 0 .255.02.366.06a.725.725 0 0 1 .29.182.8.8 0 0 1 .19.32c.045.13.068.287.068.472v1.956h-.654v-1.9a.722.722 0 0 0-.065-.336.36.36 0 0 0-.182-.173.658.658 0 0 0-.28-.055.653.653 0 0 0-.314.071.593.593 0 0 0-.209.193.861.861 0 0 0-.12.282c-.025.107-.037.22-.037.342Zm1.82-.174-.307.068c0-.177.025-.345.074-.502.05-.16.124-.299.22-.418a1.03 1.03 0 0 1 .36-.285c.143-.069.307-.103.492-.103.15 0 .283.021.401.063.12.04.22.103.304.19.083.086.146.2.19.339.043.137.065.303.065.499v1.899h-.657V27.88a.744.744 0 0 0-.065-.345.338.338 0 0 0-.179-.168.723.723 0 0 0-.28-.049.605.605 0 0 0-.268.057.532.532 0 0 0-.192.155.688.688 0 0 0-.12.225.966.966 0 0 0-.038.277Zm2.434.315v-.063c0-.211.03-.407.092-.588.062-.183.15-.341.266-.475a1.2 1.2 0 0 1 .428-.315c.17-.076.362-.114.576-.114.215 0 .407.038.575.114.17.074.314.18.431.315.118.134.207.292.269.475.061.18.092.377.092.588v.063c0 .211-.03.408-.092.588a1.41 1.41 0 0 1-.269.475c-.117.134-.26.239-.428.315a1.405 1.405 0 0 1-.573.111 1.43 1.43 0 0 1-.578-.111 1.245 1.245 0 0 1-.428-.315 1.408 1.408 0 0 1-.269-.474 1.818 1.818 0 0 1-.092-.59Zm.654-.063v.063c0 .132.013.257.04.374a.96.96 0 0 0 .128.31.631.631 0 0 0 .222.208.65.65 0 0 0 .323.076.625.625 0 0 0 .315-.076.63.63 0 0 0 .222-.209.952.952 0 0 0 .128-.309 1.56 1.56 0 0 0 .043-.374v-.063c0-.13-.014-.253-.043-.369a.946.946 0 0 0-.13-.312.621.621 0 0 0-.54-.29.626.626 0 0 0-.32.079.629.629 0 0 0-.22.211.982.982 0 0 0-.128.312c-.027.116-.04.24-.04.37Zm3.41-1.438v2.936h-.657v-2.936h.657Zm-.7-.77c0-.1.032-.182.098-.247a.373.373 0 0 1 .276-.1.37.37 0 0 1 .274.1.33.33 0 0 1 .1.247.325.325 0 0 1-.1.244.376.376 0 0 1-.274.098.38.38 0 0 1-.276-.098.331.331 0 0 1-.098-.244Zm3.15 2.911a.327.327 0 0 0-.049-.176.417.417 0 0 0-.187-.147 1.815 1.815 0 0 0-.402-.12 3.437 3.437 0 0 1-.428-.121 1.361 1.361 0 0 1-.331-.177.676.676 0 0 1-.29-.57c0-.119.026-.232.078-.338a.86.86 0 0 1 .225-.283c.098-.081.216-.145.356-.192.14-.047.298-.07.472-.07.246 0 .456.04.632.124a.95.95 0 0 1 .407.334c.094.139.14.296.14.472h-.653c0-.078-.02-.15-.06-.217a.416.416 0 0 0-.173-.166.596.596 0 0 0-.293-.065.636.636 0 0 0-.28.054.382.382 0 0 0-.163.136.347.347 0 0 0-.024.317c.02.038.053.074.098.106.045.031.106.06.184.087.08.027.18.053.299.079.224.047.416.107.578.181a.924.924 0 0 1 .374.283c.087.114.13.258.13.434 0 .13-.028.25-.084.358a.812.812 0 0 1-.239.28 1.2 1.2 0 0 1-.377.181 1.698 1.698 0 0 1-.488.065c-.266 0-.491-.047-.676-.14a1.078 1.078 0 0 1-.42-.367.868.868 0 0 1-.141-.467h.632a.49.49 0 0 0 .1.29.537.537 0 0 0 .228.155c.092.03.187.046.285.046a.827.827 0 0 0 .296-.046.426.426 0 0 0 .181-.13.31.31 0 0 0 .063-.19Zm2.645-2.14v.477H70.09v-.478h1.655Zm-1.177-.72h.654v2.844c0 .09.012.16.037.209a.203.203 0 0 0 .112.095.506.506 0 0 0 .165.024 1.01 1.01 0 0 0 .23-.024l.004.499a1.4 1.4 0 0 1-.434.062.958.958 0 0 1-.4-.078.587.587 0 0 1-.27-.264 1.022 1.022 0 0 1-.098-.482v-2.884Zm3.535 2.963v-2.244h.656v2.936h-.618l-.038-.692Zm.092-.61.22-.006c0 .197-.022.38-.065.546-.044.164-.11.308-.201.431a.94.94 0 0 1-.347.285c-.141.067-.31.1-.508.1-.143 0-.274-.02-.393-.062a.806.806 0 0 1-.31-.193.877.877 0 0 1-.198-.339 1.568 1.568 0 0 1-.07-.5v-1.896h.654v1.902a.83.83 0 0 0 .038.269c.025.07.06.127.103.17a.367.367 0 0 0 .152.093.62.62 0 0 0 .184.027c.187 0 .333-.036.44-.108a.6.6 0 0 0 .23-.299c.047-.125.071-.265.071-.42Zm1.978-1.075v2.377h-.654v-2.936h.624l.03.56Zm.898-.578-.005.608a1.712 1.712 0 0 0-.266-.022.823.823 0 0 0-.296.05.558.558 0 0 0-.345.347.95.95 0 0 0-.054.279l-.15.01c0-.184.019-.355.055-.512a1.4 1.4 0 0 1 .163-.415.743.743 0 0 1 .665-.38.813.813 0 0 1 .233.035Zm1.736 3.01c-.217 0-.413-.036-.588-.107a1.3 1.3 0 0 1-.445-.3 1.336 1.336 0 0 1-.28-.454 1.587 1.587 0 0 1-.097-.561v-.109c0-.23.033-.438.1-.624s.16-.345.28-.477a1.2 1.2 0 0 1 .422-.307c.163-.07.34-.106.53-.106.21 0 .393.035.55.106.158.07.288.17.391.298.105.127.183.278.233.453.053.176.079.37.079.581v.28h-2.268v-.47h1.622v-.051a.918.918 0 0 0-.07-.331.563.563 0 0 0-.193-.25.577.577 0 0 0-.347-.095.575.575 0 0 0-.5.269 1.04 1.04 0 0 0-.13.314 1.765 1.765 0 0 0-.043.41v.109c0 .128.017.247.052.358a.856.856 0 0 0 .157.285.745.745 0 0 0 .25.192.786.786 0 0 0 .333.068.906.906 0 0 0 .74-.364l.346.334a1.238 1.238 0 0 1-.619.47 1.48 1.48 0 0 1-.505.078Z" class="Environment moisture"/>
      <path fill="#000" fill-opacity=".38" d="M25.844 35.84h.39c-.02.187-.073.355-.16.502a.94.94 0 0 1-.368.352 1.243 1.243 0 0 1-.594.129 1.053 1.053 0 0 1-.838-.374 1.296 1.296 0 0 1-.237-.434 1.852 1.852 0 0 1-.081-.566v-.295c0-.207.027-.395.081-.564.056-.17.135-.314.238-.435.105-.12.23-.214.377-.279.146-.065.311-.097.494-.097.224 0 .413.042.568.126.155.084.275.2.36.35.087.148.14.32.16.515h-.39a1.088 1.088 0 0 0-.106-.357.55.55 0 0 0-.22-.231.746.746 0 0 0-.372-.082.7.7 0 0 0-.598.289.994.994 0 0 0-.15.332 1.64 1.64 0 0 0-.052.43v.298c0 .145.015.282.045.41.032.127.078.239.14.335a.695.695 0 0 0 .239.228c.096.054.21.081.342.081a.85.85 0 0 0 .398-.08.519.519 0 0 0 .224-.227c.052-.1.088-.218.11-.356Zm2.355.433V34.58h.378v2.202h-.36l-.018-.509Zm.071-.464.157-.004c0 .147-.016.282-.047.407a.875.875 0 0 1-.146.322.694.694 0 0 1-.267.213.961.961 0 0 1-.4.076.891.891 0 0 1-.296-.047.59.59 0 0 1-.376-.399 1.225 1.225 0 0 1-.051-.376v-1.42h.376v1.424c0 .099.011.18.033.246a.407.407 0 0 0 .091.153c.04.036.083.062.13.077a.51.51 0 0 0 .151.022.69.69 0 0 0 .38-.091.522.522 0 0 0 .202-.25.945.945 0 0 0 .063-.353Zm1.397-.883v1.856h-.377V34.58h.366l.01.346Zm.687-.358-.002.35a.954.954 0 0 0-.183-.016.605.605 0 0 0-.23.04.475.475 0 0 0-.169.114.547.547 0 0 0-.11.175.842.842 0 0 0-.05.22l-.106.061c0-.133.013-.258.038-.374.028-.117.069-.22.125-.31a.608.608 0 0 1 .211-.211.596.596 0 0 1 .476-.049Zm.864.358v1.856h-.377V34.58h.366l.01.346Zm.688-.358-.003.35a.954.954 0 0 0-.183-.016.605.605 0 0 0-.23.04.475.475 0 0 0-.168.114.545.545 0 0 0-.11.175.842.842 0 0 0-.051.22l-.106.061c0-.133.013-.258.039-.374.027-.117.068-.22.124-.31a.607.607 0 0 1 .211-.211.595.595 0 0 1 .477-.049Zm1.36 2.255c-.154 0-.293-.026-.418-.078a.946.946 0 0 1-.523-.56 1.238 1.238 0 0 1-.071-.427v-.085c0-.18.026-.338.08-.478a1.07 1.07 0 0 1 .215-.358.924.924 0 0 1 .31-.222.888.888 0 0 1 .357-.075c.158 0 .293.027.407.081a.73.73 0 0 1 .283.228c.074.096.128.21.163.342.035.13.053.272.053.427v.169h-1.644v-.307h1.267v-.029a.94.94 0 0 0-.06-.285.512.512 0 0 0-.163-.228.476.476 0 0 0-.306-.09.513.513 0 0 0-.42.215.797.797 0 0 0-.12.258c-.03.102-.044.22-.044.352v.085c0 .105.015.203.043.295.03.091.073.171.128.24a.603.603 0 0 0 .483.223.656.656 0 0 0 .337-.082.836.836 0 0 0 .242-.218l.228.181c-.047.072-.107.14-.18.206a.863.863 0 0 1-.271.159c-.106.04-.232.06-.377.06Zm1.81-1.773v1.732H34.7V34.58h.356l.02.47Zm-.089.548-.156-.006c0-.151.023-.29.067-.417.043-.13.104-.241.183-.336a.814.814 0 0 1 .645-.3c.108 0 .206.015.293.045a.53.53 0 0 1 .222.139c.062.063.11.146.142.248.033.1.049.223.049.368v1.443h-.379v-1.447a.634.634 0 0 0-.05-.276.313.313 0 0 0-.149-.153.533.533 0 0 0-.24-.049.556.556 0 0 0-.454.222.819.819 0 0 0-.173.519Zm3.077-1.018v.29h-1.19v-.29h1.19Zm-.787-.535h.376v2.192c0 .074.012.13.035.169a.165.165 0 0 0 .09.075.371.371 0 0 0 .117.018.622.622 0 0 0 .178-.024l.002.307a.874.874 0 0 1-.118.026.897.897 0 0 1-.173.015.585.585 0 0 1-.255-.055.409.409 0 0 1-.185-.183.768.768 0 0 1-.067-.35v-2.19Zm2.917-.389v3.126h-.377v-3.125h.377Zm-.09 1.942-.156-.006c.001-.151.023-.29.067-.417a1.04 1.04 0 0 1 .183-.336.816.816 0 0 1 .645-.3c.109 0 .206.015.293.045a.53.53 0 0 1 .222.139c.062.063.11.146.142.248.033.1.05.223.05.368v1.443h-.38v-1.447a.634.634 0 0 0-.05-.276.313.313 0 0 0-.149-.153.532.532 0 0 0-.24-.049.557.557 0 0 0-.454.222.819.819 0 0 0-.173.519Zm3.446.808v-1.134a.46.46 0 0 0-.053-.226.346.346 0 0 0-.155-.15.56.56 0 0 0-.256-.053.602.602 0 0 0-.25.049.436.436 0 0 0-.167.128.281.281 0 0 0-.06.17h-.376c0-.078.02-.156.061-.233a.683.683 0 0 1 .175-.21.874.874 0 0 1 .277-.15 1.09 1.09 0 0 1 .362-.057c.16 0 .302.027.424.081.123.054.22.136.289.246.07.109.105.245.105.41v1.025c0 .073.006.151.019.234a.92.92 0 0 0 .059.213v.033h-.393a.701.701 0 0 1-.045-.173 1.388 1.388 0 0 1-.016-.203Zm.065-.959.004.265h-.38a1.41 1.41 0 0 0-.287.026.657.657 0 0 0-.212.075.34.34 0 0 0-.175.305c0 .07.016.133.047.19a.34.34 0 0 0 .14.136.51.51 0 0 0 .234.049.62.62 0 0 0 .515-.252.385.385 0 0 0 .086-.206l.16.181a.545.545 0 0 1-.077.19.903.903 0 0 1-.417.356.809.809 0 0 1-.322.06.842.842 0 0 1-.392-.087.671.671 0 0 1-.26-.234.62.62 0 0 1-.092-.331.67.67 0 0 1 .069-.312.601.601 0 0 1 .2-.226.948.948 0 0 1 .313-.138 1.66 1.66 0 0 1 .409-.047h.437Zm1.451-1.79v3.125h-.378v-3.125h.378Zm1.305 3.125h-.376v-2.434c0-.158.028-.292.085-.4a.576.576 0 0 1 .25-.249.822.822 0 0 1 .387-.085 1.055 1.055 0 0 1 .26.032l-.02.308a.63.63 0 0 0-.097-.015 1.387 1.387 0 0 0-.106-.004.42.42 0 0 0-.208.05.306.306 0 0 0-.13.138.51.51 0 0 0-.045.225v2.434Zm.468-2.202v.29h-1.192v-.29h1.192Zm2.35 1.974.612-1.974h.403l-.883 2.542a1.39 1.39 0 0 1-.082.175.843.843 0 0 1-.126.18.602.602 0 0 1-.187.14.564.564 0 0 1-.258.054 1.087 1.087 0 0 1-.212-.033l-.002-.305a.86.86 0 0 0 .05.005.553.553 0 0 0 .27-.031.329.329 0 0 0 .15-.112.666.666 0 0 0 .108-.214l.157-.427Zm-.45-1.974.572 1.71.097.396-.27.139-.81-2.245h.41Zm2.829 2.243c-.154 0-.293-.026-.417-.078a.947.947 0 0 1-.523-.56 1.24 1.24 0 0 1-.072-.427v-.085c0-.18.027-.338.08-.478a1.07 1.07 0 0 1 .215-.358.924.924 0 0 1 .31-.222.888.888 0 0 1 .358-.075c.157 0 .293.027.407.081.115.054.21.13.283.228.073.096.127.21.162.342.036.13.053.272.053.427v.169H50.78v-.307h1.268v-.029a.937.937 0 0 0-.061-.285.512.512 0 0 0-.163-.228.476.476 0 0 0-.305-.09.512.512 0 0 0-.421.215.797.797 0 0 0-.12.258 1.31 1.31 0 0 0-.043.352v.085c0 .105.014.203.043.295.03.091.072.171.128.24a.6.6 0 0 0 .482.223.656.656 0 0 0 .338-.082.836.836 0 0 0 .242-.218l.228.181c-.048.072-.108.14-.181.206a.866.866 0 0 1-.27.159c-.107.04-.232.06-.377.06Zm2.733-.417v-1.134a.459.459 0 0 0-.053-.226.346.346 0 0 0-.154-.15.56.56 0 0 0-.257-.053.602.602 0 0 0-.25.049.437.437 0 0 0-.167.128.281.281 0 0 0-.06.17h-.376c0-.078.02-.156.061-.233a.703.703 0 0 1 .175-.21.874.874 0 0 1 .277-.15 1.09 1.09 0 0 1 .362-.057c.16 0 .302.027.424.081.123.054.22.136.289.246.07.109.105.245.105.41v1.025c0 .073.007.151.019.234a.91.91 0 0 0 .059.213v.033h-.393a.705.705 0 0 1-.045-.173 1.388 1.388 0 0 1-.016-.203Zm.065-.959.004.265h-.38c-.108 0-.203.008-.287.026a.656.656 0 0 0-.212.075.34.34 0 0 0-.175.305c0 .07.016.133.047.19a.34.34 0 0 0 .14.136.51.51 0 0 0 .234.049.62.62 0 0 0 .515-.252.385.385 0 0 0 .086-.206l.16.181a.547.547 0 0 1-.077.19.908.908 0 0 1-.417.356.808.808 0 0 1-.322.06.842.842 0 0 1-.392-.087.619.619 0 0 1-.352-.566.67.67 0 0 1 .069-.31.601.601 0 0 1 .2-.227.948.948 0 0 1 .313-.138 1.66 1.66 0 0 1 .409-.047h.437Zm1.419-.52v1.855h-.377V34.58h.367l.01.346Zm.688-.359-.002.35a.954.954 0 0 0-.183-.016.605.605 0 0 0-.23.04.475.475 0 0 0-.17.114.549.549 0 0 0-.11.175.842.842 0 0 0-.05.22l-.106.061c0-.133.013-.258.039-.374a1.02 1.02 0 0 1 .124-.31.608.608 0 0 1 .212-.211.595.595 0 0 1 .476-.049Z" class="Current half year"/>
    </g>
    <g id="legend">
      <g class="type1">
        <g class="content">
          <rect width="2.778" height="2.778" x="43.664" y="49.854" fill="#7D8EFF" class="Rectangle 1037" rx="1.389"/>
          <path fill="#000" fill-opacity=".76" d="M50.11 50.554v.32h-1.604v-.32h1.604Zm-1.543-1.273v2.962h-.392v-2.962h.392Zm1.885 0v2.962h-.391v-2.962h.39Zm2.127 2.453v-1.693h.378v2.202h-.36l-.018-.509Zm.07-.464.157-.004c0 .147-.015.283-.046.407a.875.875 0 0 1-.147.322.694.694 0 0 1-.266.214.961.961 0 0 1-.401.075.891.891 0 0 1-.295-.047.59.59 0 0 1-.377-.399 1.223 1.223 0 0 1-.05-.376v-1.42h.376v1.424c0 .099.01.181.032.246a.408.408 0 0 0 .092.153c.04.036.083.062.13.077a.513.513 0 0 0 .15.022.69.69 0 0 0 .381-.091.522.522 0 0 0 .202-.25.944.944 0 0 0 .063-.352Zm1.395-.791v1.764h-.378v-2.202h.358l.02.438Zm-.077.58-.175-.006a1.5 1.5 0 0 1 .059-.417.99.99 0 0 1 .169-.336.75.75 0 0 1 .278-.22.89.89 0 0 1 .387-.08.87.87 0 0 1 .285.046.575.575 0 0 1 .374.376c.036.098.053.216.053.354v1.467h-.376v-1.449a.56.56 0 0 0-.06-.276.338.338 0 0 0-.162-.15.587.587 0 0 0-.248-.05.593.593 0 0 0-.279.06.472.472 0 0 0-.179.162.737.737 0 0 0-.098.238 1.338 1.338 0 0 0-.028.28Zm1.426-.208-.252.078a1.11 1.11 0 0 1 .059-.348.946.946 0 0 1 .169-.297.8.8 0 0 1 .275-.206.86.86 0 0 1 .372-.077.94.94 0 0 1 .313.047c.093.03.17.079.232.144a.604.604 0 0 1 .145.246c.032.1.049.22.049.358v1.447h-.379v-1.45a.577.577 0 0 0-.059-.288.307.307 0 0 0-.163-.144.65.65 0 0 0-.248-.043.533.533 0 0 0-.22.043.453.453 0 0 0-.16.118.515.515 0 0 0-.1.169.627.627 0 0 0-.033.203Zm2.48-.81v2.202h-.38v-2.202h.38Zm-.408-.583c0-.061.019-.113.055-.155.038-.042.094-.063.167-.063.072 0 .127.02.165.063.04.042.059.094.059.155a.21.21 0 0 1-.06.15c-.037.04-.092.061-.164.061-.073 0-.129-.02-.167-.06a.222.222 0 0 1-.055-.151Zm2.538 2.358v-2.698h.379v3.125h-.346l-.033-.427Zm-1.481-.65v-.042c0-.168.02-.32.06-.458a1.11 1.11 0 0 1 .178-.356.781.781 0 0 1 .633-.31c.138 0 .259.025.362.074a.697.697 0 0 1 .264.21c.074.09.131.2.173.33.042.128.072.274.088.437v.187a1.917 1.917 0 0 1-.088.435c-.042.13-.1.24-.172.33a.725.725 0 0 1-.265.21.878.878 0 0 1-.366.07.756.756 0 0 1-.354-.083.836.836 0 0 1-.275-.234 1.143 1.143 0 0 1-.177-.354 1.56 1.56 0 0 1-.061-.445Zm.378-.042v.043c0 .11.011.213.033.309a.81.81 0 0 0 .106.254.522.522 0 0 0 .18.173.533.533 0 0 0 .263.061.547.547 0 0 0 .307-.079.591.591 0 0 0 .196-.21c.049-.086.087-.18.114-.282v-.49a1.082 1.082 0 0 0-.071-.216.665.665 0 0 0-.118-.188.51.51 0 0 0-.177-.132.573.573 0 0 0-.247-.049.521.521 0 0 0-.266.065.52.52 0 0 0-.181.175.81.81 0 0 0-.106.257c-.022.096-.033.2-.033.309Zm2.616-1.083v2.202h-.379v-2.202h.379Zm-.407-.583c0-.061.018-.113.055-.155.038-.042.093-.063.166-.063.072 0 .127.02.165.063.04.042.06.094.06.155a.21.21 0 0 1-.06.15c-.038.04-.093.061-.165.061-.073 0-.128-.02-.166-.06a.222.222 0 0 1-.055-.151Zm2.072.584v.288h-1.19v-.288h1.19Zm-.788-.536h.377v2.192c0 .074.011.13.034.169a.165.165 0 0 0 .09.075.371.371 0 0 0 .118.018.622.622 0 0 0 .177-.024l.002.307a.874.874 0 0 1-.118.027.897.897 0 0 1-.173.014.587.587 0 0 1-.255-.055.41.41 0 0 1-.185-.183.768.768 0 0 1-.067-.35v-2.19Zm1.987 2.51.612-1.974h.403l-.883 2.541a1.22 1.22 0 0 1-.082.175.84.84 0 0 1-.126.181.602.602 0 0 1-.187.138.563.563 0 0 1-.258.055 1.138 1.138 0 0 1-.212-.033l-.002-.304a.86.86 0 0 0 .051.004.605.605 0 0 0 .269-.03.33.33 0 0 0 .15-.113.666.666 0 0 0 .108-.213l.157-.428Zm-.45-1.974.572 1.709.097.397-.27.138-.81-2.245h.411Z" class="Humidity"/>
        </g>
      </g>
      <g class="type1">
        <g class="content">
          <rect width="2.778" height="2.778" x="74.165" y="49.854" fill="#345983" class="Rectangle 1037" rx="1.389"/>
          <path fill="#000" fill-opacity=".76" d="M80.255 51.494a.48.48 0 0 0-.032-.183.35.35 0 0 0-.11-.146.86.86 0 0 0-.216-.124 3 3 0 0 0-.346-.12 3.18 3.18 0 0 1-.396-.145 1.388 1.388 0 0 1-.303-.185.677.677 0 0 1-.26-.545.72.72 0 0 1 .274-.574.987.987 0 0 1 .32-.171c.123-.04.26-.061.412-.061.223 0 .411.042.566.128a.897.897 0 0 1 .356.332c.082.135.122.28.122.435h-.39a.599.599 0 0 0-.072-.295.49.49 0 0 0-.215-.203.79.79 0 0 0-.367-.076.825.825 0 0 0-.346.063.457.457 0 0 0-.203.171.467.467 0 0 0-.065.246c0 .063.013.12.038.171.028.05.069.097.125.14a.993.993 0 0 0 .215.12c.088.038.194.073.316.107.168.047.313.1.435.158.122.059.223.124.301.198.08.072.14.154.177.246.04.09.06.194.06.31a.713.713 0 0 1-.283.578c-.091.068-.2.122-.328.16a1.518 1.518 0 0 1-.423.055c-.137 0-.272-.02-.405-.057a1.208 1.208 0 0 1-.36-.171.779.779 0 0 1-.354-.671h.39a.51.51 0 0 0 .22.441c.07.047.147.083.234.106a1.146 1.146 0 0 0 .623-.025.462.462 0 0 0 .215-.162.42.42 0 0 0 .075-.25Zm.878-.327v-.047c0-.159.023-.306.07-.442a1.05 1.05 0 0 1 .199-.356.89.89 0 0 1 .315-.236.979.979 0 0 1 .415-.085.98.98 0 0 1 .417.085.91.91 0 0 1 .318.236c.088.1.155.22.201.356.046.136.07.283.07.442v.047c0 .158-.024.306-.07.441a1.055 1.055 0 0 1-.201.356.922.922 0 0 1-.73.32.943.943 0 0 1-.735-.32 1.075 1.075 0 0 1-.2-.356 1.361 1.361 0 0 1-.069-.441Zm.377-.047v.047c0 .11.012.213.038.311a.82.82 0 0 0 .116.256.587.587 0 0 0 .198.177c.078.042.17.064.274.064a.558.558 0 0 0 .27-.064.567.567 0 0 0 .196-.177.82.82 0 0 0 .116-.256 1.16 1.16 0 0 0 .04-.311v-.047c0-.109-.013-.211-.04-.307a.791.791 0 0 0-.118-.259.548.548 0 0 0-.468-.244.556.556 0 0 0-.273.065.585.585 0 0 0-.195.18.816.816 0 0 0-.116.258 1.183 1.183 0 0 0-.038.307Zm2.647-1.078v2.201h-.378v-2.202h.378Zm-.407-.584c0-.061.019-.113.055-.155.038-.042.094-.063.167-.063.072 0 .127.02.165.063.04.042.059.094.059.155 0 .058-.02.108-.059.15-.038.04-.093.061-.165.061-.073 0-.129-.02-.167-.06a.222.222 0 0 1-.055-.151Zm1.56-.34v3.125h-.379v-3.125h.379Zm2.29 1.361v1.764h-.379v-2.202h.358l.02.438Zm-.078.58-.175-.006c.002-.15.022-.29.06-.417a.989.989 0 0 1 .168-.336.752.752 0 0 1 .28-.22.89.89 0 0 1 .386-.08.87.87 0 0 1 .285.046.575.575 0 0 1 .374.376c.035.098.053.216.053.354v1.467h-.376v-1.449a.56.56 0 0 0-.06-.276.338.338 0 0 0-.162-.15.587.587 0 0 0-.249-.05.593.593 0 0 0-.278.06.471.471 0 0 0-.18.162.734.734 0 0 0-.097.238 1.331 1.331 0 0 0-.029.28Zm1.427-.208-.252.078c.001-.121.02-.237.059-.348a.948.948 0 0 1 .168-.297.8.8 0 0 1 .275-.206.859.859 0 0 1 .373-.077.94.94 0 0 1 .313.047c.092.03.17.079.232.144a.605.605 0 0 1 .144.246c.033.1.05.22.05.358v1.447h-.38v-1.45a.576.576 0 0 0-.058-.288.307.307 0 0 0-.163-.144.65.65 0 0 0-.248-.043.533.533 0 0 0-.22.043.453.453 0 0 0-.16.118.515.515 0 0 0-.1.169.627.627 0 0 0-.033.203Zm1.97.316v-.047c0-.159.023-.306.07-.442a1.05 1.05 0 0 1 .199-.356.89.89 0 0 1 .315-.236.979.979 0 0 1 .415-.085.98.98 0 0 1 .417.085.9.9 0 0 1 .318.236c.088.1.155.22.201.356.046.136.07.283.07.442v.047c0 .158-.024.306-.07.441a1.055 1.055 0 0 1-.201.356.921.921 0 0 1-.73.32.943.943 0 0 1-.735-.32 1.075 1.075 0 0 1-.2-.356 1.361 1.361 0 0 1-.069-.441Zm.377-.047v.047c0 .11.012.213.038.311a.82.82 0 0 0 .116.256.587.587 0 0 0 .198.177c.078.042.17.064.274.064a.559.559 0 0 0 .271-.064.567.567 0 0 0 .195-.177.82.82 0 0 0 .116-.256 1.16 1.16 0 0 0 .041-.311v-.047c0-.109-.014-.211-.04-.307a.791.791 0 0 0-.119-.259.548.548 0 0 0-.468-.244.556.556 0 0 0-.272.065.585.585 0 0 0-.196.18.816.816 0 0 0-.116.258 1.183 1.183 0 0 0-.038.307Zm2.647-1.078v2.201h-.378v-2.202h.379Zm-.406-.584a.23.23 0 0 1 .054-.155c.038-.042.094-.063.167-.063.072 0 .127.02.165.063.04.042.06.094.06.155a.21.21 0 0 1-.06.15c-.038.04-.093.061-.165.061-.073 0-.129-.02-.167-.06a.222.222 0 0 1-.054-.151Zm2.432 2.201a.317.317 0 0 0-.037-.15.31.31 0 0 0-.145-.129 1.183 1.183 0 0 0-.325-.101 2.577 2.577 0 0 1-.332-.092 1.007 1.007 0 0 1-.25-.128.494.494 0 0 1-.212-.415.55.55 0 0 1 .057-.246.66.66 0 0 1 .165-.206.8.8 0 0 1 .259-.14c.1-.034.212-.051.335-.051.177 0 .327.031.452.093.125.063.22.146.287.25.067.104.1.218.1.345h-.377a.323.323 0 0 0-.055-.178.405.405 0 0 0-.156-.144.505.505 0 0 0-.25-.057.571.571 0 0 0-.255.049.326.326 0 0 0-.14.12.302.302 0 0 0-.023.264c.015.032.04.06.078.088.036.026.088.05.154.073.067.023.151.046.254.07.181.04.33.089.446.146a.657.657 0 0 1 .26.21.518.518 0 0 1 .086.3.575.575 0 0 1-.234.473.863.863 0 0 1-.269.134 1.2 1.2 0 0 1-.347.047c-.195 0-.359-.035-.493-.104a.762.762 0 0 1-.305-.269.643.643 0 0 1-.104-.348h.379a.39.39 0 0 0 .09.247c.053.06.12.102.198.128a.784.784 0 0 0 .234.037c.104 0 .19-.014.259-.041a.361.361 0 0 0 .16-.112.26.26 0 0 0 .056-.163Zm1.931-1.617v.288h-1.19v-.288h1.19Zm-.787-.536h.376v2.192c0 .074.012.13.035.169a.165.165 0 0 0 .09.075.371.371 0 0 0 .117.018.622.622 0 0 0 .177-.024l.002.307a.874.874 0 0 1-.118.027.897.897 0 0 1-.173.014.587.587 0 0 1-.254-.055.409.409 0 0 1-.185-.183.768.768 0 0 1-.067-.35v-2.19Zm2.715 2.228v-1.693h.378v2.202h-.36l-.018-.509Zm.071-.464.157-.004c0 .147-.016.283-.047.407a.875.875 0 0 1-.147.322.694.694 0 0 1-.266.214.961.961 0 0 1-.401.075.89.89 0 0 1-.295-.047.59.59 0 0 1-.377-.399 1.226 1.226 0 0 1-.05-.376v-1.42h.376v1.424c0 .099.01.181.032.246a.41.41 0 0 0 .092.153.34.34 0 0 0 .13.077c.05.015.1.022.15.022.161 0 .288-.03.381-.091a.522.522 0 0 0 .202-.25.946.946 0 0 0 .063-.352Zm1.396-.883v1.856h-.376v-2.202h.366l.01.346Zm.688-.358-.002.35a.98.98 0 0 0-.183-.016.607.607 0 0 0-.23.04.48.48 0 0 0-.169.115.55.55 0 0 0-.11.175.868.868 0 0 0-.051.22l-.105.06c0-.133.012-.257.038-.374.027-.117.069-.22.124-.31a.617.617 0 0 1 .212-.21.596.596 0 0 1 .476-.05Zm1.36 2.255c-.153 0-.292-.026-.417-.078a.946.946 0 0 1-.32-.221.98.98 0 0 1-.203-.338 1.227 1.227 0 0 1-.071-.427v-.086c0-.179.026-.338.079-.478a1.07 1.07 0 0 1 .216-.358.927.927 0 0 1 .309-.222.888.888 0 0 1 .358-.075.94.94 0 0 1 .407.081c.115.054.21.13.283.228.073.096.127.21.163.342.035.13.053.273.053.427v.17h-1.645v-.308h1.268v-.029a.934.934 0 0 0-.061-.285.51.51 0 0 0-.163-.227.473.473 0 0 0-.305-.09.514.514 0 0 0-.421.214.78.78 0 0 0-.12.258 1.288 1.288 0 0 0-.043.352v.086c0 .104.014.203.043.295.03.09.072.17.128.24a.628.628 0 0 0 .206.163.629.629 0 0 0 .276.059.655.655 0 0 0 .338-.082.837.837 0 0 0 .242-.218l.228.182c-.047.072-.108.14-.181.205a.854.854 0 0 1-.271.159 1.06 1.06 0 0 1-.376.06Z" class="Soil moisture"/>
        </g>
      </g>
      <g class="type1">
        <g class="content">
          <rect width="2.778" height="2.778" x="113.667" y="49.854" fill="#C4E0FF" class="Rectangle 1037" rx="1.389"/>
          <path fill="#000" fill-opacity=".76" d="M119.975 51.924v.32h-1.481v-.32h1.481Zm-1.404-2.643v2.962h-.393v-2.962h.393Zm2.849 3.003c-.153 0-.292-.026-.417-.078a.942.942 0 0 1-.523-.559 1.25 1.25 0 0 1-.071-.427v-.086c0-.179.027-.338.08-.478.052-.141.124-.26.215-.358a.92.92 0 0 1 .668-.297.94.94 0 0 1 .407.081.74.74 0 0 1 .282.228c.074.096.128.21.163.342a1.6 1.6 0 0 1 .053.427v.17h-1.644v-.308h1.268v-.029a.965.965 0 0 0-.061-.285.518.518 0 0 0-.163-.227.475.475 0 0 0-.305-.09.511.511 0 0 0-.422.214.822.822 0 0 0-.12.258 1.33 1.33 0 0 0-.042.352v.086c0 .104.014.203.042.295.03.09.073.17.129.24a.625.625 0 0 0 .205.163.633.633 0 0 0 .277.059.658.658 0 0 0 .338-.082.837.837 0 0 0 .242-.218l.228.182a1.07 1.07 0 0 1-.181.205.877.877 0 0 1-.271.159c-.106.04-.231.06-.377.06Zm2.734-.417v-1.134a.462.462 0 0 0-.053-.225.349.349 0 0 0-.155-.151.557.557 0 0 0-.256-.053.598.598 0 0 0-.25.049.428.428 0 0 0-.167.128.277.277 0 0 0-.059.17h-.377c0-.078.021-.156.061-.233a.688.688 0 0 1 .175-.21.884.884 0 0 1 .277-.15c.109-.038.229-.057.362-.057.16 0 .301.027.423.081a.63.63 0 0 1 .289.246.732.732 0 0 1 .106.41v1.025c0 .073.006.151.019.234a.877.877 0 0 0 .059.214v.032h-.393a.709.709 0 0 1-.045-.173 1.372 1.372 0 0 1-.016-.203Zm.065-.959.004.265h-.381a1.4 1.4 0 0 0-.286.026.652.652 0 0 0-.212.076.339.339 0 0 0-.175.305c0 .069.016.132.047.19a.34.34 0 0 0 .14.135.512.512 0 0 0 .234.05.635.635 0 0 0 .515-.252.383.383 0 0 0 .085-.207l.161.181a.537.537 0 0 1-.077.19.917.917 0 0 1-.417.356.81.81 0 0 1-.322.06.845.845 0 0 1-.393-.087.62.62 0 0 1-.352-.566c0-.117.024-.221.07-.31a.597.597 0 0 1 .199-.227.947.947 0 0 1 .313-.138c.122-.031.259-.047.409-.047h.438Zm1.604 1.335h-.377V49.81c0-.158.029-.292.086-.4a.575.575 0 0 1 .25-.249.824.824 0 0 1 .387-.085 1.05 1.05 0 0 1 .26.032l-.02.308a.626.626 0 0 0-.098-.014 1.371 1.371 0 0 0-.106-.005.416.416 0 0 0-.207.05.302.302 0 0 0-.13.138.509.509 0 0 0-.045.225v2.434Zm.468-2.202v.29h-1.193v-.29h1.193Zm2.288 1.812.566-1.812h.248l-.049.36-.576 1.842h-.242l.053-.39Zm-.38-1.812.482 1.832.034.37h-.254l-.639-2.202h.377Zm1.735 1.818.46-1.818h.375l-.639 2.202h-.253l.057-.384Zm-.486-1.818.553 1.781.064.421h-.241l-.592-1.845-.049-.357h.265Zm2.76 2.243c-.154 0-.293-.026-.417-.078a.946.946 0 0 1-.32-.221.98.98 0 0 1-.203-.338 1.227 1.227 0 0 1-.072-.427v-.086c0-.179.027-.338.08-.478.053-.141.125-.26.215-.358a.92.92 0 0 1 .668-.297.94.94 0 0 1 .407.081.75.75 0 0 1 .283.228c.073.096.127.21.162.342a1.6 1.6 0 0 1 .053.427v.17h-1.644v-.308h1.268v-.029a.965.965 0 0 0-.061-.285.51.51 0 0 0-.163-.227.475.475 0 0 0-.305-.09.511.511 0 0 0-.421.214.78.78 0 0 0-.12.258 1.288 1.288 0 0 0-.043.352v.086c0 .104.014.203.043.295.029.09.072.17.128.24a.625.625 0 0 0 .205.163.636.636 0 0 0 .277.059.655.655 0 0 0 .338-.082.837.837 0 0 0 .242-.218l.228.182a1.07 1.07 0 0 1-.181.205.866.866 0 0 1-.271.159c-.106.04-.231.06-.376.06Zm2.357-2.242v.288h-1.191v-.288h1.191Zm-.788-.536h.377v2.192c0 .074.011.13.034.169a.165.165 0 0 0 .09.075.369.369 0 0 0 .118.018.616.616 0 0 0 .177-.024l.002.307a.874.874 0 0 1-.118.027.9.9 0 0 1-.173.014.593.593 0 0 1-.255-.055.41.41 0 0 1-.185-.183.766.766 0 0 1-.067-.35v-2.19Zm1.744 1.005v1.732h-.376v-2.202h.356l.02.47Zm-.089.548-.157-.006c.002-.15.024-.29.067-.417.044-.13.105-.241.184-.336a.812.812 0 0 1 .645-.3.9.9 0 0 1 .293.046c.086.028.16.074.221.138.063.064.11.146.143.248.032.1.049.223.049.368v1.443h-.379v-1.447a.633.633 0 0 0-.051-.276.312.312 0 0 0-.148-.153.532.532 0 0 0-.24-.049.561.561 0 0 0-.454.222.82.82 0 0 0-.173.519Zm3.069 1.225c-.153 0-.292-.026-.417-.078a.946.946 0 0 1-.32-.221.98.98 0 0 1-.203-.338 1.227 1.227 0 0 1-.071-.427v-.086c0-.179.026-.338.079-.478a1.07 1.07 0 0 1 .216-.358.927.927 0 0 1 .309-.222.888.888 0 0 1 .358-.075.94.94 0 0 1 .407.081c.115.054.21.13.283.228.073.096.127.21.163.342.035.13.053.273.053.427v.17h-1.644v-.308h1.267v-.029a.934.934 0 0 0-.061-.285.51.51 0 0 0-.163-.227.473.473 0 0 0-.305-.09.514.514 0 0 0-.421.214.78.78 0 0 0-.12.258 1.288 1.288 0 0 0-.043.352v.086c0 .104.014.203.043.295.03.09.072.17.128.24a.628.628 0 0 0 .206.163.629.629 0 0 0 .276.059.655.655 0 0 0 .338-.082.837.837 0 0 0 .242-.218l.228.182c-.047.072-.108.14-.181.205a.854.854 0 0 1-.271.159 1.06 1.06 0 0 1-.376.06Zm2.717-.625a.31.31 0 0 0-.037-.15.31.31 0 0 0-.144-.129 1.19 1.19 0 0 0-.326-.101 2.57 2.57 0 0 1-.331-.092 1.02 1.02 0 0 1-.251-.128.49.49 0 0 1-.211-.415.55.55 0 0 1 .057-.246.65.65 0 0 1 .165-.206.793.793 0 0 1 .258-.14c.1-.034.212-.051.336-.051.176 0 .327.031.451.093a.698.698 0 0 1 .287.25c.067.104.1.218.1.345h-.376a.328.328 0 0 0-.055-.178.412.412 0 0 0-.157-.144.505.505 0 0 0-.25-.057.572.572 0 0 0-.255.049.33.33 0 0 0-.14.12.298.298 0 0 0-.022.264.23.23 0 0 0 .077.088c.037.026.088.05.155.073.066.023.151.046.254.07.18.04.329.089.446.146a.66.66 0 0 1 .26.21.518.518 0 0 1 .085.3.584.584 0 0 1-.234.472.857.857 0 0 1-.268.135 1.2 1.2 0 0 1-.348.047 1.07 1.07 0 0 1-.493-.104.762.762 0 0 1-.305-.269.645.645 0 0 1-.104-.348h.379a.388.388 0 0 0 .089.247.46.46 0 0 0 .2.128.787.787 0 0 0 .234.037.71.71 0 0 0 .258-.041.361.361 0 0 0 .161-.112.257.257 0 0 0 .055-.163Zm2.292 0a.31.31 0 0 0-.037-.15.31.31 0 0 0-.144-.129 1.19 1.19 0 0 0-.326-.101 2.587 2.587 0 0 1-.332-.092 1.013 1.013 0 0 1-.25-.128.541.541 0 0 1-.157-.177.55.55 0 0 1 .002-.484.68.68 0 0 1 .165-.206.799.799 0 0 1 .259-.14c.1-.034.212-.051.335-.051.177 0 .327.031.452.093a.698.698 0 0 1 .287.25c.067.104.1.218.1.345h-.377a.32.32 0 0 0-.055-.178.402.402 0 0 0-.156-.144.51.51 0 0 0-.251-.057.57.57 0 0 0-.254.049.324.324 0 0 0-.14.12.298.298 0 0 0-.023.264c.015.032.041.06.078.088.036.026.088.05.154.073.067.023.152.046.255.07.18.04.329.089.445.146a.656.656 0 0 1 .261.21.518.518 0 0 1 .085.3.584.584 0 0 1-.234.472.857.857 0 0 1-.268.135c-.104.031-.22.047-.348.047a1.07 1.07 0 0 1-.493-.104.762.762 0 0 1-.305-.269.645.645 0 0 1-.104-.348h.379a.388.388 0 0 0 .089.247c.054.06.121.102.2.128a.777.777 0 0 0 .234.037.71.71 0 0 0 .258-.041.361.361 0 0 0 .161-.112.263.263 0 0 0 .055-.163Z" class="Leaf wetness"/>
        </g>
      </g>
      <g class="type1">
        <g class="content">
          <rect width="2.778" height="2.778" x="153.169" y="49.854" fill="#046EBA" class="Rectangle 1037" rx="1.389"/>
          <path fill="#000" fill-opacity=".76" d="M159.469 51.301h.391a1.253 1.253 0 0 1-.161.503.945.945 0 0 1-.368.352 1.246 1.246 0 0 1-.595.128 1.056 1.056 0 0 1-.838-.374 1.297 1.297 0 0 1-.236-.434 1.858 1.858 0 0 1-.081-.566v-.295c0-.207.027-.395.081-.563.056-.17.135-.315.238-.436.105-.12.23-.213.377-.279a1.2 1.2 0 0 1 .494-.097c.224 0 .413.042.568.126a.91.91 0 0 1 .36.35c.087.148.14.32.161.515h-.391a1.08 1.08 0 0 0-.106-.356.547.547 0 0 0-.22-.232.745.745 0 0 0-.372-.082.766.766 0 0 0-.348.076.702.702 0 0 0-.25.213.986.986 0 0 0-.151.332 1.683 1.683 0 0 0-.051.43v.298c0 .146.015.282.045.41.031.127.078.239.14.335a.697.697 0 0 0 .239.228c.096.054.21.081.341.081a.85.85 0 0 0 .399-.079.518.518 0 0 0 .224-.228c.052-.099.088-.218.11-.356Zm1.417-2.183v3.125h-.379v-3.125h.379Zm.643 2.049v-.047c0-.159.023-.306.069-.442.047-.137.113-.255.2-.356a.894.894 0 0 1 .315-.236.981.981 0 0 1 .415-.085.98.98 0 0 1 .417.085.887.887 0 0 1 .318.236c.088.1.155.22.201.356.046.136.07.283.07.442v.047c0 .158-.024.306-.07.441a1.056 1.056 0 0 1-.201.356.92.92 0 0 1-.731.32c-.154 0-.293-.028-.417-.084a.944.944 0 0 1-.317-.236 1.088 1.088 0 0 1-.2-.356 1.367 1.367 0 0 1-.069-.441Zm.377-.047v.047c0 .11.013.213.038.311a.838.838 0 0 0 .116.256.587.587 0 0 0 .198.177c.078.042.17.064.274.064a.56.56 0 0 0 .271-.064.56.56 0 0 0 .195-.177.793.793 0 0 0 .116-.256c.027-.098.041-.201.041-.311v-.047c0-.109-.014-.211-.041-.307a.773.773 0 0 0-.118-.259.547.547 0 0 0-.468-.244.551.551 0 0 0-.468.244.834.834 0 0 0-.116.259 1.218 1.218 0 0 0-.038.307Zm3.586.614v-1.693h.378v2.202h-.36l-.018-.509Zm.071-.464.156-.004c0 .147-.015.283-.046.407a.874.874 0 0 1-.147.322.7.7 0 0 1-.266.214.963.963 0 0 1-.401.075.89.89 0 0 1-.295-.047.593.593 0 0 1-.377-.399 1.223 1.223 0 0 1-.051-.376v-1.42h.377v1.424c0 .099.011.181.032.246a.409.409 0 0 0 .092.153.34.34 0 0 0 .13.077.515.515 0 0 0 .151.022c.16 0 .287-.03.38-.091a.522.522 0 0 0 .202-.25.946.946 0 0 0 .063-.352Zm2.407.546v-2.698h.379v3.125h-.346l-.033-.427Zm-1.481-.65v-.042c0-.168.021-.32.061-.458a1.11 1.11 0 0 1 .177-.356.779.779 0 0 1 .633-.31c.138 0 .259.025.362.074a.694.694 0 0 1 .265.21c.073.09.131.2.173.33.042.128.071.274.087.437v.187a1.945 1.945 0 0 1-.087.435c-.042.13-.1.24-.173.33a.722.722 0 0 1-.265.21.874.874 0 0 1-.366.07.755.755 0 0 1-.354-.083.841.841 0 0 1-.275-.234 1.139 1.139 0 0 1-.177-.354 1.584 1.584 0 0 1-.061-.445Zm.379-.042v.043c0 .11.01.213.032.309a.82.82 0 0 0 .106.254.516.516 0 0 0 .181.173.53.53 0 0 0 .263.061.548.548 0 0 0 .307-.079.596.596 0 0 0 .195-.21c.049-.086.087-.18.114-.282v-.49a1.082 1.082 0 0 0-.071-.216.665.665 0 0 0-.118-.188.52.52 0 0 0-.177-.132.571.571 0 0 0-.246-.049.524.524 0 0 0-.267.065.518.518 0 0 0-.181.175.82.82 0 0 0-.106.257c-.022.096-.032.2-.032.309Zm4.26.85a.564.564 0 0 0 .248-.054.512.512 0 0 0 .187-.15.412.412 0 0 0 .083-.223h.359a.67.67 0 0 1-.133.364.904.904 0 0 1-.744.373c-.166 0-.31-.03-.434-.088a.857.857 0 0 1-.305-.24 1.08 1.08 0 0 1-.181-.35 1.49 1.49 0 0 1-.059-.42V51.1c0-.148.02-.288.059-.42.041-.133.101-.25.181-.352a.856.856 0 0 1 .305-.24c.124-.058.268-.087.434-.087a.92.92 0 0 1 .451.106.822.822 0 0 1 .426.692h-.359a.53.53 0 0 0-.256-.422.501.501 0 0 0-.262-.067.513.513 0 0 0-.477.252.866.866 0 0 0-.097.255 1.398 1.398 0 0 0-.029.283v.085c0 .096.01.191.029.285a.836.836 0 0 0 .095.254.535.535 0 0 0 .186.183.582.582 0 0 0 .293.068Zm1.339-.807v-.047c0-.159.023-.306.069-.442a1.05 1.05 0 0 1 .2-.356.885.885 0 0 1 .315-.236.978.978 0 0 1 .415-.085.98.98 0 0 1 .417.085.887.887 0 0 1 .318.236c.088.1.155.22.201.356.046.136.069.283.069.442v.047c0 .158-.023.306-.069.441a1.056 1.056 0 0 1-.201.356.92.92 0 0 1-.731.32.999.999 0 0 1-.417-.084.944.944 0 0 1-.317-.236 1.07 1.07 0 0 1-.2-.356 1.367 1.367 0 0 1-.069-.441Zm.376-.047v.047c0 .11.013.213.039.311a.838.838 0 0 0 .116.256.593.593 0 0 0 .197.177.578.578 0 0 0 .275.064.562.562 0 0 0 .271-.064.56.56 0 0 0 .195-.177.815.815 0 0 0 .116-.256c.027-.098.041-.201.041-.311v-.047c0-.109-.014-.211-.041-.307a.793.793 0 0 0-.118-.259.55.55 0 0 0-.468-.244.558.558 0 0 0-.273.065.588.588 0 0 0-.195.18.834.834 0 0 0-.116.258 1.174 1.174 0 0 0-.039.307Zm2.876.783.603-1.861h.384l-.791 2.201h-.253l.057-.34Zm-.502-1.861.62 1.871.043.33h-.252l-.798-2.202h.387Zm2.875 2.242c-.153 0-.292-.026-.417-.078a.942.942 0 0 1-.523-.559 1.25 1.25 0 0 1-.071-.427v-.086c0-.179.026-.338.079-.478a1.07 1.07 0 0 1 .216-.358.893.893 0 0 1 .668-.297c.157 0 .293.027.406.081a.73.73 0 0 1 .283.228c.074.096.128.21.163.342.035.13.053.273.053.427v.17h-1.644v-.308h1.268v-.029a.965.965 0 0 0-.061-.285.518.518 0 0 0-.163-.227.477.477 0 0 0-.305-.09.515.515 0 0 0-.422.214.822.822 0 0 0-.12.258 1.33 1.33 0 0 0-.042.352v.086c0 .104.014.203.042.295.03.09.073.17.128.24a.628.628 0 0 0 .206.163.633.633 0 0 0 .277.059.652.652 0 0 0 .337-.082.84.84 0 0 0 .243-.218l.228.182c-.048.072-.108.14-.182.205a.86.86 0 0 1-.27.159c-.106.04-.232.06-.377.06Zm1.812-1.897v1.856h-.377v-2.202h.367l.01.346Zm.688-.358-.002.35a.95.95 0 0 0-.184-.016.602.602 0 0 0-.229.04.471.471 0 0 0-.169.115.55.55 0 0 0-.11.175.828.828 0 0 0-.051.22l-.106.06c0-.133.013-.257.039-.374.027-.117.068-.22.124-.31a.606.606 0 0 1 .211-.21.597.597 0 0 1 .477-.05Z" class="Cloud cover"/>
        </g>
      </g>
      <g id="day-1">
        <path fill="#000" fill-opacity=".54" d="M56.087 152.456v-2.098h.39v2.098c0 .195-.04.36-.12.494a.787.787 0 0 1-.331.307c-.14.07-.3.104-.482.104s-.343-.031-.484-.093a.738.738 0 0 1-.332-.285.895.895 0 0 1-.12-.483H55c0 .125.023.228.07.308.046.08.11.139.19.177a.67.67 0 0 0 .56-.008.483.483 0 0 0 .196-.198.673.673 0 0 0 .071-.323Zm2.436.488v-1.133a.457.457 0 0 0-.053-.226.346.346 0 0 0-.154-.151.564.564 0 0 0-.257-.053.61.61 0 0 0-.25.049.439.439 0 0 0-.167.128.281.281 0 0 0-.059.171h-.376c0-.078.02-.156.06-.234a.681.681 0 0 1 .176-.209.877.877 0 0 1 .276-.151 1.09 1.09 0 0 1 .363-.057c.16 0 .3.027.423.081a.64.64 0 0 1 .289.247.74.74 0 0 1 .106.409v1.025c0 .073.006.151.018.234a.919.919 0 0 0 .059.214v.032h-.393a.699.699 0 0 1-.045-.173 1.398 1.398 0 0 1-.016-.203Zm.065-.958.004.264h-.38a1.38 1.38 0 0 0-.287.027.648.648 0 0 0-.212.075.338.338 0 0 0-.175.305.39.39 0 0 0 .047.189.342.342 0 0 0 .14.137.518.518 0 0 0 .235.048.631.631 0 0 0 .515-.252.384.384 0 0 0 .085-.205l.16.181a.543.543 0 0 1-.077.189.897.897 0 0 1-.417.356.804.804 0 0 1-.321.061.846.846 0 0 1-.393-.087.682.682 0 0 1-.26-.234.62.62 0 0 1-.092-.332c0-.118.023-.222.07-.311a.595.595 0 0 1 .199-.226.966.966 0 0 1 .313-.139c.122-.031.258-.046.409-.046h.437Zm1.42-.397v1.731h-.377v-2.201h.356l.02.47Zm-.09.547-.157-.006a1.32 1.32 0 0 1 .067-.417c.043-.129.105-.241.183-.336a.822.822 0 0 1 .645-.299c.109 0 .206.015.293.045a.522.522 0 0 1 .222.138c.063.064.11.147.142.248.033.101.05.224.05.369v1.442h-.38v-1.446a.633.633 0 0 0-.05-.277.315.315 0 0 0-.148-.153.541.541 0 0 0-.24-.048.549.549 0 0 0-.257.059.608.608 0 0 0-.197.162.822.822 0 0 0-.173.519Z" class="Jan"/>
      </g>
      <g id="day-2">
        <path fill="#000" fill-opacity=".54" d="M94.237 150.358v2.962h-.393v-2.962h.393Zm1.24 1.333v.321h-1.326v-.321h1.327Zm.202-1.333v.321h-1.528v-.321h1.528Zm1.419 3.003c-.153 0-.292-.026-.417-.077a.947.947 0 0 1-.523-.56 1.234 1.234 0 0 1-.071-.427v-.086c0-.179.026-.338.079-.478.053-.141.125-.26.216-.358a.891.891 0 0 1 .667-.297c.157 0 .293.027.407.081.115.055.21.131.283.228a.984.984 0 0 1 .163.342c.035.13.053.273.053.428v.168H96.31v-.307h1.267v-.028a.934.934 0 0 0-.06-.285.515.515 0 0 0-.164-.228.474.474 0 0 0-.305-.09.52.52 0 0 0-.421.214.81.81 0 0 0-.12.258c-.029.102-.043.22-.043.352v.086c0 .104.014.203.043.295.03.091.073.171.128.24a.612.612 0 0 0 .206.163.633.633 0 0 0 .276.059.648.648 0 0 0 .338-.082.828.828 0 0 0 .242-.217l.228.181a1.04 1.04 0 0 1-.181.205.872.872 0 0 1-.27.159 1.041 1.041 0 0 1-.377.061Zm1.433-3.166h.378v2.698l-.032.427h-.346v-3.125Zm1.866 2.006v.043c0 .16-.019.309-.057.446a1.114 1.114 0 0 1-.167.354.786.786 0 0 1-.269.234.778.778 0 0 1-.364.083.9.9 0 0 1-.368-.071.725.725 0 0 1-.264-.21 1.08 1.08 0 0 1-.174-.329 2.082 2.082 0 0 1-.087-.436v-.187c.016-.163.045-.309.087-.437.044-.129.102-.239.174-.33a.705.705 0 0 1 .264-.21.85.85 0 0 1 .364-.073c.139 0 .261.027.368.081a.723.723 0 0 1 .269.228c.073.099.129.218.167.356.038.137.057.29.057.458Zm-.379.043v-.043c0-.11-.01-.213-.03-.309a.794.794 0 0 0-.098-.256.483.483 0 0 0-.177-.175.517.517 0 0 0-.27-.065.596.596 0 0 0-.249.048.54.54 0 0 0-.177.133.69.69 0 0 0-.12.187 1.08 1.08 0 0 0-.067.215v.491c.022.095.057.186.106.275.05.086.117.158.2.213a.55.55 0 0 0 .31.084.528.528 0 0 0 .261-.061.493.493 0 0 0 .177-.173.81.81 0 0 0 .102-.255c.022-.096.032-.199.032-.309Z" class="Feb"/>
      </g>
      <g id="day-3">
        <path fill="#000" fill-opacity=".54" d="M132.468 150.358h.38l.971 2.415.969-2.415h.382l-1.204 2.962h-.298l-1.2-2.962Zm-.124 0h.336l.054 1.807v1.155h-.39v-2.962Zm2.612 0h.336v2.962h-.39v-1.155l.054-1.807Zm2.406 2.586v-1.133a.45.45 0 0 0-.053-.226.346.346 0 0 0-.154-.151.568.568 0 0 0-.257-.053.61.61 0 0 0-.25.049.438.438 0 0 0-.167.128.284.284 0 0 0-.059.171h-.376c0-.078.02-.156.061-.234a.672.672 0 0 1 .175-.209.873.873 0 0 1 .276-.151c.109-.038.23-.057.363-.057.16 0 .301.027.423.081a.64.64 0 0 1 .289.247.74.74 0 0 1 .106.409v1.025c0 .073.006.151.018.234a.88.88 0 0 0 .059.214v.032h-.393a.702.702 0 0 1-.045-.173 1.517 1.517 0 0 1-.016-.203Zm.065-.958.004.264h-.38a1.38 1.38 0 0 0-.287.027.651.651 0 0 0-.212.075.338.338 0 0 0-.175.305.39.39 0 0 0 .047.189.34.34 0 0 0 .141.137.513.513 0 0 0 .234.048.617.617 0 0 0 .514-.252.384.384 0 0 0 .086-.205l.161.181a.558.558 0 0 1-.078.189.898.898 0 0 1-.417.356.802.802 0 0 1-.321.061.843.843 0 0 1-.393-.087.69.69 0 0 1-.261-.234.62.62 0 0 1-.091-.332.67.67 0 0 1 .069-.311.6.6 0 0 1 .199-.226.972.972 0 0 1 .314-.139c.122-.031.258-.046.409-.046h.437Zm1.419-.521v1.855h-.376v-2.201h.366l.01.346Zm.688-.358-.002.35a1.229 1.229 0 0 0-.183-.017.605.605 0 0 0-.23.041.467.467 0 0 0-.169.114.548.548 0 0 0-.11.175.824.824 0 0 0-.051.22l-.106.061c0-.133.013-.258.039-.375.027-.116.068-.219.124-.309a.614.614 0 0 1 .212-.212.6.6 0 0 1 .476-.048Z" class="Mar"/>
      </g>
      <g id="day-4">
        <path fill="#000" fill-opacity=".54" d="m172.941 150.62-.981 2.7h-.401l1.129-2.962h.259l-.006.262Zm.822 2.7-.983-2.7-.006-.262h.258l1.133 2.962h-.402Zm-.051-1.096v.321h-1.665v-.321h1.665Zm1.309-.682v2.625h-.379v-3.048h.346l.033.423Zm1.483.659v.043c0 .16-.019.309-.057.446a1.114 1.114 0 0 1-.167.354.773.773 0 0 1-.266.234.782.782 0 0 1-.365.083.932.932 0 0 1-.37-.069.736.736 0 0 1-.273-.201 1.053 1.053 0 0 1-.179-.318 1.834 1.834 0 0 1-.089-.417v-.228c.016-.163.047-.309.091-.437.045-.129.104-.239.177-.33a.739.739 0 0 1 .271-.21.863.863 0 0 1 .366-.073c.139 0 .261.027.369.081a.74.74 0 0 1 .27.228c.073.099.128.218.165.356.038.137.057.29.057.458Zm-.378.043v-.043c0-.11-.012-.213-.035-.309a.77.77 0 0 0-.108-.256.503.503 0 0 0-.45-.24.596.596 0 0 0-.248.048.543.543 0 0 0-.177.133.68.68 0 0 0-.12.187c-.03.069-.052.141-.067.215v.528c.027.094.065.184.114.268.049.083.114.15.195.202a.58.58 0 0 0 .307.075.52.52 0 0 0 .263-.063.534.534 0 0 0 .183-.177.803.803 0 0 0 .108-.257c.023-.097.035-.201.035-.311Zm1.374-.779v1.855h-.377v-2.201h.366l.011.346Zm.687-.358-.002.35a.598.598 0 0 0-.089-.013 1.257 1.257 0 0 0-.094-.004.609.609 0 0 0-.23.041.476.476 0 0 0-.169.114.566.566 0 0 0-.11.175.865.865 0 0 0-.05.22l-.106.061c0-.133.013-.258.038-.375.028-.116.069-.219.125-.309a.612.612 0 0 1 .211-.212.602.602 0 0 1 .476-.048Z" class="Apr"/>
      </g>
    </g>
    </g>
    <g class="text-lines">
      <path fill="#000" fill-opacity=".54" d="M24.983 68.225v2.98h-.376v-2.51l-.759.277v-.34l1.076-.407h.06Zm3.106 1.262v.452c0 .243-.022.447-.065.614a1.068 1.068 0 0 1-.187.403.713.713 0 0 1-.295.222 1.05 1.05 0 0 1-.387.067c-.114 0-.219-.014-.315-.043a.749.749 0 0 1-.26-.136.825.825 0 0 1-.196-.248 1.33 1.33 0 0 1-.124-.37 2.676 2.676 0 0 1-.043-.51v-.451c0-.243.022-.446.065-.61a1.05 1.05 0 0 1 .19-.395.689.689 0 0 1 .292-.216 1.09 1.09 0 0 1 .387-.065c.115 0 .221.014.317.043a.716.716 0 0 1 .454.372c.055.1.096.22.124.364a2.6 2.6 0 0 1 .043.507Zm-.378.513v-.576c0-.133-.009-.25-.025-.35a1.107 1.107 0 0 0-.067-.26.515.515 0 0 0-.114-.176.403.403 0 0 0-.157-.097.563.563 0 0 0-.197-.033.535.535 0 0 0-.238.051.427.427 0 0 0-.175.157.844.844 0 0 0-.106.283 2.113 2.113 0 0 0-.037.425V70c0 .133.008.25.023.352.016.102.04.19.071.264a.61.61 0 0 0 .114.181.427.427 0 0 0 .155.106c.06.022.125.033.197.033a.526.526 0 0 0 .242-.053.437.437 0 0 0 .173-.165.86.86 0 0 0 .106-.291 2.29 2.29 0 0 0 .035-.427Zm2.861-.513v.452c0 .243-.022.447-.065.614a1.068 1.068 0 0 1-.187.403.712.712 0 0 1-.295.222 1.05 1.05 0 0 1-.387.067c-.114 0-.219-.014-.315-.043a.75.75 0 0 1-.26-.136.828.828 0 0 1-.196-.248 1.331 1.331 0 0 1-.124-.37 2.667 2.667 0 0 1-.043-.51v-.451c0-.243.022-.446.065-.61a1.05 1.05 0 0 1 .19-.395.689.689 0 0 1 .292-.216 1.09 1.09 0 0 1 .387-.065c.115 0 .221.014.317.043a.716.716 0 0 1 .454.372c.054.1.096.22.124.364a2.6 2.6 0 0 1 .043.507Zm-.378.513v-.576c0-.133-.009-.25-.025-.35a1.102 1.102 0 0 0-.067-.26.515.515 0 0 0-.114-.176.403.403 0 0 0-.157-.097.563.563 0 0 0-.197-.033.535.535 0 0 0-.238.051.428.428 0 0 0-.175.157.847.847 0 0 0-.106.283 2.113 2.113 0 0 0-.037.425V70c0 .133.008.25.023.352.016.102.04.19.071.264.031.073.07.134.114.181a.426.426 0 0 0 .155.106c.06.022.125.033.197.033a.526.526 0 0 0 .242-.053.436.436 0 0 0 .173-.165.858.858 0 0 0 .106-.291c.023-.12.035-.262.035-.427Zm.969-1.032v-.157c0-.112.024-.215.073-.307a.568.568 0 0 1 .21-.222.607.607 0 0 1 .323-.083c.128 0 .236.028.326.083.09.056.16.13.21.222a.646.646 0 0 1 .072.307v.157c0 .11-.024.211-.073.303a.553.553 0 0 1-.207.222.602.602 0 0 1-.324.084.623.623 0 0 1-.328-.084.569.569 0 0 1-.209-.222.637.637 0 0 1-.073-.303Zm.282-.157v.157c0 .063.012.121.035.177a.327.327 0 0 0 .11.136c.049.034.11.051.183.051a.303.303 0 0 0 .181-.05.318.318 0 0 0 .106-.137.458.458 0 0 0 .035-.177v-.157a.441.441 0 0 0-.037-.179.298.298 0 0 0-.289-.189.3.3 0 0 0-.289.19.464.464 0 0 0-.035.178Zm1.16 1.826v-.16c0-.11.025-.212.074-.304a.568.568 0 0 1 .21-.222.608.608 0 0 1 .323-.083.574.574 0 0 1 .535.305.642.642 0 0 1 .073.305v.159a.643.643 0 0 1-.073.305.553.553 0 0 1-.208.222.6.6 0 0 1-.323.083.583.583 0 0 1-.537-.305.643.643 0 0 1-.074-.305Zm.283-.16v.16c0 .062.012.122.035.179a.327.327 0 0 0 .11.136.31.31 0 0 0 .183.05.304.304 0 0 0 .18-.05.312.312 0 0 0 .109-.136.464.464 0 0 0 .034-.18v-.158a.439.439 0 0 0-.036-.18.3.3 0 0 0-.291-.186.3.3 0 0 0-.29.187.464.464 0 0 0-.034.179Zm.417-1.814-1.446 2.316-.212-.135 1.447-2.315.211.134Z" id="100"/>
      <path fill="#000" fill-opacity=".54" d="M28.114 85.519a.81.81 0 0 1-.126.46.79.79 0 0 1-.338.284c-.14.066-.3.098-.478.098s-.338-.032-.48-.098a.79.79 0 0 1-.338-.284.82.82 0 0 1-.124-.46c0-.118.022-.226.067-.324a.782.782 0 0 1 .193-.258.886.886 0 0 1 .298-.17c.115-.04.242-.06.38-.06.182 0 .344.035.486.106a.823.823 0 0 1 .336.287.73.73 0 0 1 .124.419Zm-.378-.008a.581.581 0 0 0-.072-.291.504.504 0 0 0-.199-.2.602.602 0 0 0-.297-.071.598.598 0 0 0-.3.071.497.497 0 0 0-.192.2.595.595 0 0 0-.07.29.6.6 0 0 0 .067.294.48.48 0 0 0 .196.185.68.68 0 0 0 .303.063.667.667 0 0 0 .301-.063.456.456 0 0 0 .194-.185.586.586 0 0 0 .069-.293Zm.309-1.382a.69.69 0 0 1-.114.389.791.791 0 0 1-.311.272.98.98 0 0 1-.448.1.997.997 0 0 1-.454-.1.776.776 0 0 1-.309-.272.7.7 0 0 1-.112-.39.82.82 0 0 1 .112-.439.742.742 0 0 1 .311-.276c.132-.064.282-.096.45-.096.17 0 .32.032.452.096a.728.728 0 0 1 .309.276.812.812 0 0 1 .114.44Zm-.377.006a.533.533 0 0 0-.063-.262.463.463 0 0 0-.175-.18.496.496 0 0 0-.26-.067.522.522 0 0 0-.26.063.438.438 0 0 0-.173.175.565.565 0 0 0-.061.271c0 .102.02.19.06.267a.454.454 0 0 0 .176.177.521.521 0 0 0 .26.063.51.51 0 0 0 .258-.063.448.448 0 0 0 .175-.177.542.542 0 0 0 .064-.267Zm2.921.468v.452c0 .243-.022.447-.065.614a1.07 1.07 0 0 1-.187.403.713.713 0 0 1-.295.222 1.052 1.052 0 0 1-.387.067c-.114 0-.219-.014-.315-.043a.749.749 0 0 1-.26-.136.825.825 0 0 1-.196-.248 1.33 1.33 0 0 1-.124-.37 2.676 2.676 0 0 1-.043-.51v-.45c0-.244.022-.447.065-.611a1.05 1.05 0 0 1 .19-.395.689.689 0 0 1 .292-.216 1.09 1.09 0 0 1 .387-.065c.115 0 .221.014.317.043a.718.718 0 0 1 .454.372c.055.1.096.22.124.364a2.6 2.6 0 0 1 .043.507Zm-.378.513v-.576c0-.133-.009-.25-.025-.35a1.105 1.105 0 0 0-.067-.26.515.515 0 0 0-.114-.176.403.403 0 0 0-.157-.097.563.563 0 0 0-.197-.033.535.535 0 0 0-.238.051.427.427 0 0 0-.175.157.844.844 0 0 0-.106.283 2.113 2.113 0 0 0-.037.425v.576c0 .133.008.25.023.352.016.102.04.19.071.264a.61.61 0 0 0 .114.181.427.427 0 0 0 .155.106c.06.022.125.033.197.033a.526.526 0 0 0 .242-.053.437.437 0 0 0 .173-.165.86.86 0 0 0 .106-.29 2.29 2.29 0 0 0 .035-.428Zm.969-1.032v-.157c0-.112.024-.215.073-.307a.569.569 0 0 1 .21-.222.608.608 0 0 1 .323-.083c.128 0 .236.028.326.083.09.056.16.13.21.222a.646.646 0 0 1 .072.307v.157c0 .11-.024.211-.073.303a.554.554 0 0 1-.207.222.602.602 0 0 1-.324.084.623.623 0 0 1-.328-.084.569.569 0 0 1-.21-.222.638.638 0 0 1-.072-.303Zm.282-.157v.157c0 .063.012.122.035.177a.327.327 0 0 0 .11.136c.049.034.11.051.183.051a.304.304 0 0 0 .181-.05.317.317 0 0 0 .106-.137.457.457 0 0 0 .035-.177v-.157a.44.44 0 0 0-.037-.179.299.299 0 0 0-.289-.189.3.3 0 0 0-.289.19.464.464 0 0 0-.035.178Zm1.16 1.826v-.159a.64.64 0 0 1 .074-.305.567.567 0 0 1 .21-.222.608.608 0 0 1 .323-.083.574.574 0 0 1 .535.305.642.642 0 0 1 .073.305v.159a.642.642 0 0 1-.073.305.553.553 0 0 1-.208.222.6.6 0 0 1-.323.083.583.583 0 0 1-.537-.305.642.642 0 0 1-.074-.305Zm.283-.159v.159c0 .062.012.122.035.179a.327.327 0 0 0 .11.136c.049.034.11.051.183.051a.304.304 0 0 0 .18-.05.314.314 0 0 0 .109-.137.464.464 0 0 0 .034-.18v-.158a.441.441 0 0 0-.036-.18.3.3 0 0 0-.291-.186.302.302 0 0 0-.29.187.462.462 0 0 0-.034.179Zm.417-1.815-1.446 2.316-.212-.135 1.447-2.315.211.134Z" id="80"/>
      <path fill="#000" fill-opacity=".54" d="M27.69 98.354h.034v.32h-.033c-.2 0-.366.032-.5.097a.82.82 0 0 0-.32.258 1.06 1.06 0 0 0-.171.362c-.034.135-.05.271-.05.41v.435c0 .131.015.248.046.35.031.1.074.185.128.254a.566.566 0 0 0 .183.157.524.524 0 0 0 .448.004.498.498 0 0 0 .17-.14.644.644 0 0 0 .109-.216.965.965 0 0 0 .036-.273.98.98 0 0 0-.032-.254.676.676 0 0 0-.1-.22.477.477 0 0 0-.407-.21.585.585 0 0 0-.293.078.667.667 0 0 0-.222.2.536.536 0 0 0-.097.266l-.2-.002c.02-.152.054-.282.106-.389a.83.83 0 0 1 .195-.264.74.74 0 0 1 .263-.151.974.974 0 0 1 .31-.049.758.758 0 0 1 .647.307c.068.093.12.197.152.314.034.115.05.234.05.356 0 .14-.019.271-.058.393a.923.923 0 0 1-.177.321.806.806 0 0 1-.287.216.963.963 0 0 1-.397.077c-.16 0-.3-.032-.42-.098a.889.889 0 0 1-.296-.264 1.21 1.21 0 0 1-.177-.366 1.455 1.455 0 0 1-.06-.409v-.177c0-.21.022-.414.064-.615.042-.2.114-.382.217-.545.105-.163.25-.293.434-.389.184-.096.42-.144.706-.144Zm2.899 1.25v.451c0 .243-.022.447-.065.614a1.07 1.07 0 0 1-.187.403.71.71 0 0 1-.295.222 1.046 1.046 0 0 1-.387.067 1.09 1.09 0 0 1-.315-.043.747.747 0 0 1-.26-.136.824.824 0 0 1-.196-.248 1.33 1.33 0 0 1-.124-.371 2.667 2.667 0 0 1-.043-.508v-.452c0-.243.022-.446.065-.61a1.05 1.05 0 0 1 .19-.395.689.689 0 0 1 .292-.216 1.09 1.09 0 0 1 .387-.065c.115 0 .221.014.317.043a.718.718 0 0 1 .454.372c.055.1.096.22.124.364a2.6 2.6 0 0 1 .043.507Zm-.378.512v-.576c0-.133-.009-.25-.025-.35a1.105 1.105 0 0 0-.067-.26.515.515 0 0 0-.114-.176.403.403 0 0 0-.157-.097.563.563 0 0 0-.197-.033.535.535 0 0 0-.238.051.427.427 0 0 0-.175.157.844.844 0 0 0-.106.283 2.113 2.113 0 0 0-.037.425v.576c0 .133.008.25.023.352.016.102.04.19.071.264.031.074.07.134.114.181a.42.42 0 0 0 .155.106c.06.022.125.033.197.033a.53.53 0 0 0 .242-.053.433.433 0 0 0 .173-.165.862.862 0 0 0 .106-.291c.023-.119.035-.262.035-.427Zm.969-1.032v-.157c0-.112.024-.215.073-.307a.569.569 0 0 1 .21-.222.608.608 0 0 1 .323-.083c.128 0 .236.028.326.083.09.056.16.13.21.222a.646.646 0 0 1 .072.307v.157c0 .11-.024.211-.073.303a.554.554 0 0 1-.207.222.602.602 0 0 1-.324.084.623.623 0 0 1-.328-.084.569.569 0 0 1-.21-.222.638.638 0 0 1-.072-.303Zm.282-.157v.157c0 .063.012.122.035.177a.327.327 0 0 0 .11.136c.049.034.11.051.183.051a.304.304 0 0 0 .181-.05.317.317 0 0 0 .106-.137.457.457 0 0 0 .035-.177v-.157a.44.44 0 0 0-.037-.179.299.299 0 0 0-.289-.189.3.3 0 0 0-.289.19.464.464 0 0 0-.035.178Zm1.16 1.826v-.159a.64.64 0 0 1 .074-.305.573.573 0 0 1 .533-.305.572.572 0 0 1 .535.305.642.642 0 0 1 .073.305v.159a.642.642 0 0 1-.073.305.558.558 0 0 1-.208.222.606.606 0 0 1-.323.083.618.618 0 0 1-.326-.083.588.588 0 0 1-.285-.527Zm.283-.159v.159c0 .062.012.122.035.179a.328.328 0 0 0 .11.136c.049.034.11.051.183.051a.303.303 0 0 0 .18-.051.315.315 0 0 0 .109-.136.468.468 0 0 0 .034-.179v-.159a.44.44 0 0 0-.036-.179.297.297 0 0 0-.108-.134.295.295 0 0 0-.183-.053.296.296 0 0 0-.181.053.317.317 0 0 0-.108.134.462.462 0 0 0-.035.179Zm.417-1.815-1.446 2.316-.212-.135 1.447-2.315.211.134Z" id="60"/>
      <path fill="#000" fill-opacity=".54" d="M28.248 115.323v.31h-2.14v-.222l1.326-2.053h.308l-.33.594-.877 1.371h1.713Zm-.413-1.965v2.962h-.376v-2.962h.376Zm2.754 1.245v.452c0 .243-.022.447-.065.614a1.07 1.07 0 0 1-.187.403.71.71 0 0 1-.295.222 1.046 1.046 0 0 1-.387.067 1.09 1.09 0 0 1-.315-.043.747.747 0 0 1-.26-.136.824.824 0 0 1-.196-.248 1.33 1.33 0 0 1-.124-.371 2.667 2.667 0 0 1-.043-.508v-.452c0-.243.022-.446.065-.61a1.04 1.04 0 0 1 .19-.395.69.69 0 0 1 .292-.216 1.1 1.1 0 0 1 .387-.065c.115 0 .221.014.317.043a.716.716 0 0 1 .454.372c.055.099.096.221.124.364a2.6 2.6 0 0 1 .043.507Zm-.378.513v-.576c0-.133-.009-.25-.025-.35a1.087 1.087 0 0 0-.067-.26.506.506 0 0 0-.114-.175.397.397 0 0 0-.157-.098.556.556 0 0 0-.197-.033.533.533 0 0 0-.238.051.431.431 0 0 0-.175.157.844.844 0 0 0-.106.283 2.104 2.104 0 0 0-.037.425v.576c0 .133.008.25.023.352.016.102.04.19.071.264.031.074.07.134.114.181a.42.42 0 0 0 .155.106c.06.022.125.033.197.033a.53.53 0 0 0 .242-.053.433.433 0 0 0 .173-.165.862.862 0 0 0 .106-.291c.023-.119.035-.262.035-.427Zm.969-1.032v-.157c0-.112.024-.215.073-.307a.573.573 0 0 1 .533-.305.572.572 0 0 1 .535.305.646.646 0 0 1 .073.307v.157c0 .11-.024.211-.073.303a.545.545 0 0 1-.207.222.598.598 0 0 1-.324.084.62.62 0 0 1-.328-.084.56.56 0 0 1-.21-.222.636.636 0 0 1-.072-.303Zm.282-.157v.157c0 .063.012.122.035.177a.332.332 0 0 0 .11.137.32.32 0 0 0 .183.05.31.31 0 0 0 .181-.05.322.322 0 0 0 .106-.137.452.452 0 0 0 .035-.177v-.157a.444.444 0 0 0-.037-.179.298.298 0 0 0-.289-.189.303.303 0 0 0-.181.053.316.316 0 0 0-.108.136.468.468 0 0 0-.035.179Zm1.16 1.826v-.159a.64.64 0 0 1 .074-.305.573.573 0 0 1 .533-.305.572.572 0 0 1 .535.305.642.642 0 0 1 .073.305v.159a.642.642 0 0 1-.073.305.558.558 0 0 1-.208.222.606.606 0 0 1-.323.083.618.618 0 0 1-.326-.083.588.588 0 0 1-.285-.527Zm.283-.159v.159c0 .062.012.122.035.179a.328.328 0 0 0 .11.136c.049.034.11.051.183.051a.303.303 0 0 0 .18-.051.315.315 0 0 0 .109-.136.468.468 0 0 0 .034-.179v-.159a.44.44 0 0 0-.036-.179.297.297 0 0 0-.108-.134.295.295 0 0 0-.183-.053.296.296 0 0 0-.181.053.317.317 0 0 0-.108.134.462.462 0 0 0-.035.179Zm.417-1.815-1.446 2.316-.212-.135 1.447-2.315.211.134Z" id="40"/>
      <path fill="#000" fill-opacity=".54" d="M28.187 131.011v.309h-1.939v-.27l.97-1.081c.12-.133.212-.245.278-.337a1.07 1.07 0 0 0 .138-.251.658.658 0 0 0 .04-.228.568.568 0 0 0-.06-.264.454.454 0 0 0-.175-.191.522.522 0 0 0-.281-.072.64.64 0 0 0-.33.078.473.473 0 0 0-.195.211.722.722 0 0 0-.065.314h-.377c0-.167.037-.32.11-.458a.81.81 0 0 1 .326-.33c.143-.083.32-.124.53-.124.188 0 .348.033.481.1a.704.704 0 0 1 .305.276.83.83 0 0 1 .063.68 1.376 1.376 0 0 1-.12.265c-.05.088-.109.175-.177.26-.066.086-.137.17-.213.252l-.794.861h1.485Zm2.402-1.408v.452c0 .243-.022.447-.065.614a1.07 1.07 0 0 1-.187.403.71.71 0 0 1-.295.222 1.046 1.046 0 0 1-.387.067 1.09 1.09 0 0 1-.315-.043.747.747 0 0 1-.26-.136.824.824 0 0 1-.196-.248 1.33 1.33 0 0 1-.124-.371 2.667 2.667 0 0 1-.043-.508v-.452c0-.243.022-.446.065-.61a1.04 1.04 0 0 1 .19-.395.69.69 0 0 1 .292-.216 1.1 1.1 0 0 1 .387-.065c.115 0 .221.014.317.043a.716.716 0 0 1 .454.372c.055.099.096.221.124.364a2.6 2.6 0 0 1 .043.507Zm-.378.513v-.576c0-.133-.009-.25-.025-.35a1.087 1.087 0 0 0-.067-.26.506.506 0 0 0-.114-.175.397.397 0 0 0-.157-.098.556.556 0 0 0-.197-.033.533.533 0 0 0-.238.051.431.431 0 0 0-.175.157.844.844 0 0 0-.106.283 2.104 2.104 0 0 0-.037.425v.576c0 .133.008.25.023.352.016.102.04.19.071.264.031.074.07.134.114.181a.42.42 0 0 0 .155.106c.06.022.125.033.197.033a.53.53 0 0 0 .242-.053.433.433 0 0 0 .173-.165.862.862 0 0 0 .106-.291c.023-.119.035-.262.035-.427Zm.969-1.032v-.157c0-.112.024-.215.073-.307a.573.573 0 0 1 .533-.305.572.572 0 0 1 .535.305.646.646 0 0 1 .073.307v.157c0 .11-.024.211-.073.303a.545.545 0 0 1-.207.222.598.598 0 0 1-.324.084.62.62 0 0 1-.328-.084.56.56 0 0 1-.21-.222.636.636 0 0 1-.072-.303Zm.282-.157v.157c0 .063.012.122.035.177a.332.332 0 0 0 .11.137.32.32 0 0 0 .183.05.31.31 0 0 0 .181-.05.322.322 0 0 0 .106-.137.452.452 0 0 0 .035-.177v-.157a.444.444 0 0 0-.037-.179.298.298 0 0 0-.289-.189.303.303 0 0 0-.181.053.316.316 0 0 0-.108.136.468.468 0 0 0-.035.179Zm1.16 1.826v-.159a.64.64 0 0 1 .074-.305.573.573 0 0 1 .533-.305.572.572 0 0 1 .535.305.642.642 0 0 1 .073.305v.159a.642.642 0 0 1-.073.305.558.558 0 0 1-.208.222.606.606 0 0 1-.323.083.618.618 0 0 1-.326-.083.588.588 0 0 1-.285-.527Zm.283-.159v.159c0 .062.012.122.035.179a.328.328 0 0 0 .11.136c.049.034.11.051.183.051a.303.303 0 0 0 .18-.051.315.315 0 0 0 .109-.136.468.468 0 0 0 .034-.179v-.159a.44.44 0 0 0-.036-.179.297.297 0 0 0-.108-.134.295.295 0 0 0-.183-.053.296.296 0 0 0-.181.053.317.317 0 0 0-.108.134.462.462 0 0 0-.035.179Zm.417-1.815-1.446 2.316-.212-.135 1.447-2.315.211.134Z" id="20"/>
      <path fill="#000" fill-opacity=".54" d="M30.606 145.603v.452c0 .243-.022.447-.065.614a1.07 1.07 0 0 1-.187.403.71.71 0 0 1-.295.222 1.046 1.046 0 0 1-.387.067 1.09 1.09 0 0 1-.315-.043.746.746 0 0 1-.26-.136.824.824 0 0 1-.196-.248 1.33 1.33 0 0 1-.124-.371 2.659 2.659 0 0 1-.043-.508v-.452c0-.243.022-.446.065-.61a1.04 1.04 0 0 1 .19-.395.689.689 0 0 1 .292-.216 1.1 1.1 0 0 1 .387-.065c.115 0 .221.014.317.043a.716.716 0 0 1 .454.372c.054.099.096.221.124.364a2.6 2.6 0 0 1 .043.507Zm-.378.513v-.576c0-.133-.009-.25-.025-.35a1.082 1.082 0 0 0-.067-.26.506.506 0 0 0-.114-.175.396.396 0 0 0-.157-.098.557.557 0 0 0-.197-.033.533.533 0 0 0-.238.051.431.431 0 0 0-.175.157.844.844 0 0 0-.106.283 2.104 2.104 0 0 0-.037.425v.576c0 .133.008.25.023.352.016.102.04.19.071.264.031.074.07.134.114.181a.42.42 0 0 0 .155.106c.06.022.125.033.197.033a.53.53 0 0 0 .242-.053.433.433 0 0 0 .173-.165.862.862 0 0 0 .106-.291c.023-.119.035-.262.035-.427Zm.969-1.032v-.157c0-.112.024-.215.073-.307a.573.573 0 0 1 .533-.305.572.572 0 0 1 .535.305.647.647 0 0 1 .073.307v.157c0 .11-.024.211-.073.303a.545.545 0 0 1-.207.222.598.598 0 0 1-.324.084.62.62 0 0 1-.327-.084.56.56 0 0 1-.21-.222.636.636 0 0 1-.073-.303Zm.283-.157v.157c0 .063.011.122.034.177a.331.331 0 0 0 .11.137.32.32 0 0 0 .183.05.31.31 0 0 0 .181-.05.322.322 0 0 0 .106-.137.452.452 0 0 0 .035-.177v-.157a.444.444 0 0 0-.037-.179.298.298 0 0 0-.289-.189.303.303 0 0 0-.181.053.317.317 0 0 0-.108.136.466.466 0 0 0-.034.179Zm1.16 1.826v-.159a.64.64 0 0 1 .073-.305.572.572 0 0 1 .533-.305.573.573 0 0 1 .535.305.642.642 0 0 1 .073.305v.159a.642.642 0 0 1-.073.305.558.558 0 0 1-.208.222.606.606 0 0 1-.323.083.617.617 0 0 1-.326-.083.588.588 0 0 1-.211-.222.642.642 0 0 1-.074-.305Zm.282-.159v.159c0 .062.012.122.035.179a.328.328 0 0 0 .11.136c.048.034.11.051.183.051a.303.303 0 0 0 .18-.051.314.314 0 0 0 .109-.136.466.466 0 0 0 .034-.179v-.159a.44.44 0 0 0-.036-.179.298.298 0 0 0-.291-.187.296.296 0 0 0-.181.053.317.317 0 0 0-.108.134.462.462 0 0 0-.035.179Zm.417-1.815-1.446 2.316-.212-.135 1.447-2.315.211.134Z" id="0"/>
    </g>
    <g class="grid">
      <line x1="37.674" x2="201.326" y1="69.647" y2="69.647" stroke="#000" stroke-linecap="square" stroke-opacity=".05" stroke-width=".347" id="Line-6"/>
      <line x1="37.674" x2="201.326" y1="84.647" y2="84.647" stroke="#000" stroke-linecap="square" stroke-opacity=".05" stroke-width=".347" id="Line-5"/>
      <line x1="37.674" x2="201.326" y1="99.647" y2="99.647" stroke="#000" stroke-linecap="square" stroke-opacity=".05" stroke-width=".347" id="Line-4"/>
      <line x1="37.674" x2="201.326" y1="115.147" y2="115.147" stroke="#000" stroke-linecap="square" stroke-opacity=".05" stroke-width=".347" id="Line-3"/>
      <line x1="37.674" x2="201.326" y1="129.647" y2="129.647" stroke="#000" stroke-linecap="square" stroke-opacity=".05" stroke-width=".347" id="Line-2"/>
      <line x1="37.674" x2="201.326" y1="146.147" y2="146.147" stroke="#000" stroke-linecap="square" stroke-opacity=".38" stroke-width=".347" id="Line-1"/>    </g>
    <g transform="scale(1,-1)">
      <rect
         style="fill:#7d8eff"
         id="rect38"
         width="7"
         height="0"
         x="44.5"
         y="98.32"
         transform="translate(0,-244.5)"> <animate attributeName="height" values="0;0;48;48" calcMode="spline" keyTimes="0;0.45;0.97;1" keySplines="0.5 0.35 0.15 1;0.5 0.35 0.15 1;0.5 0.35 0.15 1" repeatCount="1" dur="0.8" begin="1.4s" fill="freeze"/> </rect>
      <rect
         style="fill:#7d8eff;"
         id="rect39"
         width="7"
         height="0"
         x="83.25"
         y="73.32"
         transform="translate(0,-219.5)"> <animate attributeName="height" values="0;0;73;73" calcMode="spline" keyTimes="0;0.45;0.97;1" keySplines="0.5 0.35 0.15 1;0.5 0.35 0.15 1;0.5 0.35 0.15 1" repeatCount="1" dur="0.8" begin="1.4s" fill="freeze"/> </rect>
      <rect
         style="fill:#7d8eff;"
         id="rect40"
         width="7"
         height="0"
         x="121.750"
         y="82.320"
         transform="translate(0,-228.5)"> <animate attributeName="height" values="0;0;64;64" calcMode="spline" keyTimes="0;0.45;0.97;1" keySplines="0.5 0.35 0.15 1;0.5 0.35 0.15 1;0.5 0.35 0.15 1" repeatCount="1" dur="0.8" begin="1.4s" fill="freeze"/> </rect>
      <rect
         style="fill:#7d8eff;"
         id="rect41"
         width="7"
         height="0"
         x="160.750"
         y="106.320"
         transform="translate(0,-252.5)"> <animate attributeName="height" values="0;0;40;40" calcMode="spline" keyTimes="0;0.45;0.97;1" keySplines="0.5 0.35 0.15 1;0.5 0.35 0.15 1;0.5 0.35 0.15 1" repeatCount="1" dur="0.8" begin="1.4s" fill="freeze"/> </rect>
    </g>
    <g class="dark-bars" transform="scale(1,-1)">
      <rect
           style="fill:#345983"
           id="rect42"
           width="7"
           height="0"
           x="51.25"
           y="77.375"
           transform="translate(0,-223.555)"> <animate attributeName="height" values="0;0;69;69" calcMode="spline" keyTimes="0;0.45;0.97;1" keySplines="0.5 0.35 0.15 1;0.5 0.35 0.15 1;0.5 0.35 0.15 1" repeatCount="1" dur="0.8" begin="1.5s" fill="freeze"/> </rect>
      <rect
           style="fill:#345983"
           id="rect43"
           width="7"
           height="0"
           x="90.250"
           y="92.875"
           transform="translate(0,-239.055)"> <animate attributeName="height" values="0;0;53;53" calcMode="spline" keyTimes="0;0.45;0.97;1" keySplines="0.5 0.35 0.15 1;0.5 0.35 0.15 1;0.5 0.35 0.15 1" repeatCount="1" dur="0.8" begin="1.5s" fill="freeze"/> </rect>
      <rect
           style="fill:#345983"
           id="rect44"
           width="7"
           height="0"
           x="128.750"
           y="77.375"
           transform="translate(0,-223.555)"> <animate attributeName="height" values="0;0;69;69" calcMode="spline" keyTimes="0;0.45;0.97;1" keySplines="0.5 0.35 0.15 1;0.5 0.35 0.15 1;0.5 0.35 0.15 1" repeatCount="1" dur="0.8" begin="1.5s" fill="freeze"/> </rect>
      <rect
           style="fill:#345983"
           id="rect45"
           width="7"
           height="0"
           x="167.75"
           y="70.32"
           transform="translate(0,-216.555)"> <animate attributeName="height" values="0;0;76;76" calcMode="spline" keyTimes="0;0.45;0.97;1" keySplines="0.5 0.35 0.15 1;0.5 0.35 0.15 1;0.5 0.35 0.15 1" repeatCount="1" dur="0.8" begin="1.5s" fill="freeze"/> </rect>
    </g>
    <g class="light-bars" transform="scale(1,-1)">
      <rect
           style="fill:#C4E0FF"
           id="rect46"
           width="7"
           height="0"
           x="58.25"
           y="77.375"
           transform="translate(0,-223.555)"> <animate attributeName="height" values="0;0;58;58" calcMode="spline" keyTimes="0;0.45;0.97;1" keySplines="0.5 0.35 0.15 1;0.5 0.35 0.15 1;0.5 0.35 0.15 1" repeatCount="1" dur="0.8" begin="1.6s" fill="freeze"/> </rect>
      <rect
           style="fill:#C4E0FF"
           id="rect47"
           width="7"
           height="0"
           x="97.250"
           y="92.875"
           transform="translate(0,-239.055)"> <animate attributeName="height" values="0;0;45;45" calcMode="spline" keyTimes="0;0.45;0.97;1" keySplines="0.5 0.35 0.15 1;0.5 0.35 0.15 1;0.5 0.35 0.15 1" repeatCount="1" dur="0.8" begin="1.6s" fill="freeze"/> </rect>
      <rect
           style="fill:#C4E0FF"
           id="rect48"
           width="7"
           height="0"
           x="135.750"
           y="77.375"
           transform="translate(0,-223.555)"> <animate attributeName="height" values="0;0;56;56" calcMode="spline" keyTimes="0;0.45;0.97;1" keySplines="0.5 0.35 0.15 1;0.5 0.35 0.15 1;0.5 0.35 0.15 1" repeatCount="1" dur="0.8" begin="1.6s" fill="freeze"/> </rect>
      <rect
           style="fill:#C4E0FF"
           id="rect49"
           width="7"
           height="0"
           x="174.75"
           y="70.32"
           transform="translate(0,-216.555)"> <animate attributeName="height" values="0;0;61;61" calcMode="spline" keyTimes="0;0.45;0.97;1" keySplines="0.5 0.35 0.15 1;0.5 0.35 0.15 1;0.5 0.35 0.15 1" repeatCount="1" dur="0.8" begin="1.6s" fill="freeze"/> </rect>
    </g>
    <g class="light-bars" transform="scale(1,-1)">
      <rect
           style="fill:#046EBA"
           id="rect46"
           width="7"
           height="0"
           x="65.25"
           y="77.375"
           transform="translate(0,-223.555)"> <animate attributeName="height" values="0;0;58;58" calcMode="spline" keyTimes="0;0.45;0.97;1" keySplines="0.5 0.35 0.15 1;0.5 0.35 0.15 1;0.5 0.35 0.15 1" repeatCount="1" dur="0.8" begin="1.7s" fill="freeze"/> </rect>
      <rect
           style="fill:#046EBA"
           id="rect47"
           width="7"
           height="0"
           x="104.250"
           y="92.875"
           transform="translate(0,-239.055)"> <animate attributeName="height" values="0;0;40;40" calcMode="spline" keyTimes="0;0.45;0.97;1" keySplines="0.5 0.35 0.15 1;0.5 0.35 0.15 1;0.5 0.35 0.15 1" repeatCount="1" dur="0.8" begin="1.7s" fill="freeze"/> </rect>
      <rect
           style="fill:#046EBA"
           id="rect48"
           width="7"
           height="0"
           x="142.750"
           y="77.375"
           transform="translate(0,-223.555)"> <animate attributeName="height" values="0;0;50;50" calcMode="spline" keyTimes="0;0.45;0.97;1" keySplines="0.5 0.35 0.15 1;0.5 0.35 0.15 1;0.5 0.35 0.15 1" repeatCount="1" dur="0.8" begin="1.7s" fill="freeze"/> </rect>
      <rect
           style="fill:#046EBA"
           id="rect49"
           width="7"
           height="0"
           x="181.75"
           y="70.32"
           transform="translate(0,-216.555)"> <animate attributeName="height" values="0;0;42;42" calcMode="spline" keyTimes="0;0.45;0.97;1" keySplines="0.5 0.35 0.15 1;0.5 0.35 0.15 1;0.5 0.35 0.15 1" repeatCount="1" dur="0.8" begin="1.7s" fill="freeze"/> </rect>
    </g>
  </g>
</svg>
