<svg xmlns="http://www.w3.org/2000/svg" width="548" height="267" fill="none" viewBox="0 0 548 267">
  <g class="control-animation">
    <g class="battery" style="transform-box: content-box;" transform-origin="left top">
      <animate xmlns="http://www.w3.org/2000/svg" attributeName="opacity" values="0;1" dur="1s" repeatCount="1" calcMode="spline" keyTimes="0;1" keySplines="0.5 0.35 0.15 1" additive="replace" fill="freeze"/>
      <animateTransform xmlns="http://www.w3.org/2000/svg" attributeName="transform" type="scale" values="0.5 0.5;1 1" dur="1s" repeatCount="1" calcMode="spline" keyTimes="0;1" keySplines="0.5 0.35 0.15 1" additive="sum" fill="freeze"/>
      <rect width="184" height="183" fill="#fff" rx="6"/>
      <rect width="183" height="182" x=".5" y=".5" stroke="#3E9AF8" stroke-opacity=".5" rx="5.5"/>
      <path fill="#000" fill-opacity=".87" d="M26.239 29.71h-2.174l-.012-1.073h1.898c.32 0 .592-.047.815-.14.227-.098.398-.237.516-.417.117-.183.175-.404.175-.662 0-.285-.054-.517-.164-.697a.94.94 0 0 0-.504-.393c-.222-.082-.507-.123-.855-.123H24.51v7.36h-1.47v-8.532h2.894c.469 0 .887.045 1.254.135.37.09.685.23.943.422.262.188.46.426.592.715.137.289.205.633.205 1.031 0 .352-.084.674-.252.967a1.918 1.918 0 0 1-.744.709c-.328.183-.736.293-1.225.328l-.468.37Zm-.065 3.855h-2.572l.662-1.166h1.91c.332 0 .61-.055.832-.165.223-.113.389-.267.498-.462.113-.2.17-.432.17-.698 0-.277-.049-.517-.146-.72a1.01 1.01 0 0 0-.463-.475c-.211-.113-.487-.17-.826-.17h-1.653l.012-1.072h2.15l.334.404c.47.016.854.12 1.155.31a1.8 1.8 0 0 1 .68.745c.148.305.222.633.222.984 0 .543-.12.998-.357 1.365a2.205 2.205 0 0 1-1.014.838c-.442.188-.973.282-1.594.282Zm8.112-1.272V29.27c0-.227-.041-.422-.123-.586a.861.861 0 0 0-.375-.381 1.282 1.282 0 0 0-.621-.135c-.23 0-.43.04-.598.117a.966.966 0 0 0-.392.317.763.763 0 0 0-.141.45H30.63c0-.25.06-.491.181-.726.121-.234.297-.443.528-.627.23-.183.506-.328.826-.433.32-.106.68-.158 1.078-.158.476 0 .898.08 1.266.24.37.16.662.402.873.726.215.32.322.723.322 1.207V32.1c0 .289.02.549.059.779.043.227.103.424.181.592v.094h-1.447a2.5 2.5 0 0 1-.158-.58 4.732 4.732 0 0 1-.053-.692Zm.205-2.584.012.873h-1.014c-.262 0-.492.026-.691.076a1.42 1.42 0 0 0-.498.211.915.915 0 0 0-.399.791c0 .168.04.323.117.463a.821.821 0 0 0 .34.322c.153.079.336.118.551.118.29 0 .541-.059.756-.176.219-.121.39-.268.516-.44a.961.961 0 0 0 .199-.498l.457.627a2.14 2.14 0 0 1-.24.516c-.114.184-.262.36-.446.527a2.217 2.217 0 0 1-1.518.563 2.42 2.42 0 0 1-1.107-.246 1.97 1.97 0 0 1-.761-.674 1.747 1.747 0 0 1-.276-.967c0-.336.063-.633.188-.89.128-.262.316-.481.562-.657.25-.176.555-.308.914-.398.36-.094.77-.14 1.23-.14h1.108Zm5.827-2.484v1.031h-3.575v-1.031h3.575Zm-2.543-1.553h1.412v6.14c0 .196.027.346.082.452.059.101.139.17.24.205.102.035.22.053.358.053a2.827 2.827 0 0 0 .498-.053l.005 1.078a3.587 3.587 0 0 1-.41.094 3.007 3.007 0 0 1-.527.04c-.324 0-.611-.056-.861-.17a1.267 1.267 0 0 1-.586-.568c-.141-.261-.211-.609-.211-1.042v-6.229Zm6.77 1.553v1.031H40.97v-1.031h3.575Zm-2.543-1.553h1.412v6.14c0 .196.027.346.082.452a.44.44 0 0 0 .24.205c.102.035.22.053.358.053a2.819 2.819 0 0 0 .498-.053l.005 1.078a3.585 3.585 0 0 1-.41.094 3.005 3.005 0 0 1-.527.04c-.324 0-.611-.056-.861-.17a1.267 1.267 0 0 1-.586-.568c-.14-.261-.211-.609-.211-1.042v-6.229Zm6.658 8.01a3.38 3.38 0 0 1-1.271-.229 2.806 2.806 0 0 1-.96-.65 2.884 2.884 0 0 1-.605-.979 3.44 3.44 0 0 1-.21-1.213v-.234c0-.496.072-.945.216-1.348a3.05 3.05 0 0 1 .604-1.03c.258-.29.562-.51.914-.663a2.841 2.841 0 0 1 1.143-.228c.453 0 .85.076 1.189.228.34.152.621.367.844.645.226.273.394.6.504.978.113.379.17.797.17 1.254v.604h-4.899v-1.014h3.504v-.111a1.983 1.983 0 0 0-.152-.715 1.214 1.214 0 0 0-.416-.54c-.188-.136-.438-.204-.75-.204-.235 0-.444.05-.627.152-.18.098-.33.24-.451.428a2.252 2.252 0 0 0-.282.68 3.82 3.82 0 0 0-.093.884v.235c0 .277.037.535.11.773.079.234.192.44.34.615.15.176.329.315.54.416.21.098.451.147.72.147.34 0 .643-.069.909-.206.265-.136.496-.33.691-.58l.744.721c-.136.2-.314.39-.533.574-.219.18-.486.327-.803.44-.312.113-.675.17-1.09.17Zm5.288-5.25v5.133h-1.412v-6.34h1.348l.064 1.207Zm1.94-1.248-.012 1.312a3.634 3.634 0 0 0-.574-.047 1.78 1.78 0 0 0-.64.106 1.204 1.204 0 0 0-.743.75 2 2 0 0 0-.117.603l-.323.024c0-.399.04-.768.117-1.108.079-.34.196-.638.352-.896a1.8 1.8 0 0 1 .598-.604c.242-.144.521-.216.838-.216a1.7 1.7 0 0 1 .275.023c.102.016.178.033.229.053Zm3.06 5.69 1.723-5.65h1.512l-2.543 7.307a4.985 4.985 0 0 1-.229.51 2.31 2.31 0 0 1-.369.522 1.637 1.637 0 0 1-.556.404 1.877 1.877 0 0 1-.809.158c-.125 0-.246-.012-.363-.035a5.882 5.882 0 0 1-.322-.065l-.006-1.078a5.061 5.061 0 0 0 .28.018c.235 0 .43-.03.587-.088a.812.812 0 0 0 .38-.27c.102-.124.188-.292.259-.503l.457-1.23Zm-.972-5.65 1.506 4.747.252 1.488-.979.252-2.303-6.486h1.524Z" class="Battery"/>
      <rect width="49.887" height="20.325" x="36.318" y="66.508" fill="#08872B" class="1" rx="3.695"/>
      <rect width="49.887" height="20.325" x="36.318" y="89.604" fill="#08872B" class="2" rx="3.695"/>
      <rect width="49.887" height="20.325" x="36.318" y="112.7" fill="#08872B" class="3" rx="3.695"/>
      <rect width="49.887" height="20.325" x="36.318" y="135.796" fill="#08872B" class="4" rx="3.695"/>
      <path fill="#08872B" fill-opacity=".32" fill-rule="evenodd" d="M54.82 56.346a3.695 3.695 0 0 0-3.458 2.393l-.285.758a3.695 3.695 0 0 1-3.458 2.392h-6.682a9.238 9.238 0 0 0-9.238 9.238v80.375a9.238 9.238 0 0 0 9.238 9.238h40.65a9.238 9.238 0 0 0 9.238-9.238V71.127a9.238 9.238 0 0 0-9.239-9.238h-6.8a3.695 3.695 0 0 1-3.397-2.243l-.452-1.057a3.695 3.695 0 0 0-3.398-2.243H54.821Zm-13.883 7.39h40.65a7.39 7.39 0 0 1 7.39 7.392v80.374a7.39 7.39 0 0 1-7.39 7.39h-40.65a7.39 7.39 0 0 1-7.39-7.39V71.127a7.39 7.39 0 0 1 7.39-7.39Z" class="Union" clip-rule="evenodd"/>
      <path fill="#000" fill-opacity=".87" d="M112.183 100.835v13.208h-1.669v-11.124l-3.365 1.227v-1.507l4.772-1.804h.262Zm13.246 5.594v2.002c0 1.077-.096 1.985-.288 2.725-.193.74-.47 1.335-.83 1.786a3.156 3.156 0 0 1-1.309.984c-.505.198-1.076.298-1.714.298-.505 0-.971-.064-1.398-.19a3.327 3.327 0 0 1-1.155-.604 3.66 3.66 0 0 1-.866-1.101c-.241-.451-.424-.998-.55-1.642-.127-.644-.19-1.395-.19-2.256v-2.002c0-1.077.096-1.979.289-2.707.198-.728.478-1.311.839-1.75a3.063 3.063 0 0 1 1.299-.957 4.845 4.845 0 0 1 1.714-.288c.511 0 .981.063 1.408.189.433.121.818.316 1.154.587.337.264.623.619.857 1.064.241.439.424.978.551 1.615.126.638.189 1.387.189 2.247Zm-1.678 2.273v-2.553c0-.589-.036-1.107-.108-1.552a4.842 4.842 0 0 0-.298-1.155 2.3 2.3 0 0 0-.505-.776 1.801 1.801 0 0 0-.695-.433 2.497 2.497 0 0 0-.875-.144c-.397 0-.749.075-1.055.226a1.893 1.893 0 0 0-.776.694c-.205.319-.361.737-.469 1.254-.109.518-.163 1.146-.163 1.886v2.553c0 .59.033 1.11.099 1.561.073.451.178.842.316 1.173.139.325.307.592.505.803.199.21.427.367.686.469.265.096.556.144.875.144a2.34 2.34 0 0 0 1.074-.234c.307-.157.562-.4.767-.731.21-.337.367-.767.469-1.29.102-.53.153-1.161.153-1.895Zm12.164-2.273v2.002c0 1.077-.096 1.985-.289 2.725-.192.74-.469 1.335-.83 1.786a3.159 3.159 0 0 1-1.308.984c-.505.198-1.077.298-1.714.298a4.93 4.93 0 0 1-1.399-.19 3.314 3.314 0 0 1-1.154-.604 3.66 3.66 0 0 1-.866-1.101c-.241-.451-.425-.998-.551-1.642-.126-.644-.189-1.395-.189-2.256v-2.002c0-1.077.096-1.979.288-2.707.199-.728.479-1.311.839-1.75a3.06 3.06 0 0 1 1.3-.957 4.841 4.841 0 0 1 1.714-.288c.511 0 .98.063 1.407.189a3.19 3.19 0 0 1 1.155.587c.337.264.622.619.857 1.064.241.439.424.978.55 1.615.127.638.19 1.387.19 2.247Zm-1.678 2.273v-2.553c0-.589-.036-1.107-.108-1.552a4.939 4.939 0 0 0-.298-1.155 2.314 2.314 0 0 0-.505-.776 1.801 1.801 0 0 0-.695-.433 2.501 2.501 0 0 0-.875-.144c-.397 0-.749.075-1.056.226a1.9 1.9 0 0 0-.776.694c-.204.319-.361.737-.469 1.254-.108.518-.162 1.146-.162 1.886v2.553c0 .59.033 1.11.099 1.561.072.451.177.842.316 1.173.138.325.307.592.505.803.198.21.427.367.686.469.264.096.556.144.875.144.409 0 .767-.078 1.073-.234.307-.157.563-.4.767-.731.211-.337.367-.767.469-1.29.103-.53.154-1.161.154-1.895Z" class="100"/>
      <path fill="#000" fill-opacity=".87" d="M142.059 106.111v-.556a2.3 2.3 0 0 1 .26-1.09 2.01 2.01 0 0 1 .743-.786c.323-.198.705-.296 1.148-.296.452 0 .837.098 1.155.296.322.197.57.459.743.786a2.3 2.3 0 0 1 .26 1.09v.556c0 .39-.087.748-.26 1.075-.168.328-.414.59-.736.787-.318.197-.7.296-1.148.296-.447 0-.834-.099-1.162-.296a2.006 2.006 0 0 1-.743-.787 2.262 2.262 0 0 1-.26-1.075Zm1.003-.556v.556c0 .221.041.431.123.628.087.197.217.358.39.484.173.12.39.18.649.18.26 0 .474-.06.643-.18.168-.126.293-.287.375-.484a1.62 1.62 0 0 0 .123-.628v-.556c0-.226-.044-.438-.13-.635a1.052 1.052 0 0 0-.383-.483c-.168-.126-.382-.188-.642-.188a1.06 1.06 0 0 0-.642.188 1.12 1.12 0 0 0-.383.483 1.637 1.637 0 0 0-.123.635Zm4.114 6.474v-.563c0-.394.087-.755.26-1.082.173-.327.421-.59.744-.787.322-.197.705-.296 1.147-.296.453 0 .837.099 1.155.296.322.197.57.46.743.787.174.327.26.688.26 1.082v.563c0 .395-.086.756-.26 1.083a1.96 1.96 0 0 1-.736.787c-.317.197-.7.296-1.147.296-.448 0-.833-.099-1.155-.296a2.07 2.07 0 0 1-.751-.787 2.28 2.28 0 0 1-.26-1.083Zm1.004-.563v.563c0 .222.041.433.122.636.087.197.217.358.39.483.173.12.39.181.65.181.259 0 .474-.061.642-.181.173-.125.301-.286.383-.483a1.66 1.66 0 0 0 .122-.636v-.563c0-.226-.043-.437-.13-.635a1.058 1.058 0 0 0-.382-.476c-.169-.125-.385-.188-.65-.188a1.068 1.068 0 0 0-1.025.664 1.659 1.659 0 0 0-.122.635Zm1.479-6.438-5.131 8.214-.751-.476 5.132-8.214.75.476Z" class="%"/>
    </g>
    <g class="slider" style="transform-box: content-box;" transform-origin="left bottom">
      <animate xmlns="http://www.w3.org/2000/svg" attributeName="opacity" values="0;1" dur="1s" repeatCount="1" calcMode="spline" keyTimes="0;1" keySplines="0.5 0.35 0.15 1" additive="replace" fill="freeze"/>
      <animateTransform xmlns="http://www.w3.org/2000/svg" attributeName="transform" type="scale" values="0.5 0.5;1 1" dur="1s" repeatCount="1" calcMode="spline" keyTimes="0;1" keySplines="0.5 0.35 0.15 1" additive="sum" fill="freeze"/>
      <rect width="223" height="107" x="103" y="138" fill="#fff" rx="6"/>
      <rect width="222" height="106" x="103.5" y="138.5" stroke="#3E9AF8" stroke-opacity=".5" rx="5.5"/>
      <path fill="#000" fill-opacity=".87" d="M123.729 161.363c0-.156-.024-.294-.072-.416a.818.818 0 0 0-.245-.333 2.046 2.046 0 0 0-.499-.291 6.607 6.607 0 0 0-.811-.296 8.82 8.82 0 0 1-.999-.37 3.785 3.785 0 0 1-.79-.478 2.042 2.042 0 0 1-.526-.629 1.772 1.772 0 0 1-.187-.827c0-.309.064-.59.193-.843.131-.253.317-.471.556-.655.243-.187.529-.331.858-.432a3.62 3.62 0 0 1 1.092-.156c.562 0 1.046.104 1.451.312.409.209.723.488.942.838.221.35.332.737.332 1.159h-1.295c0-.249-.053-.469-.161-.66a1.093 1.093 0 0 0-.478-.458c-.212-.111-.48-.166-.806-.166-.309 0-.565.047-.77.14a1.033 1.033 0 0 0-.458.38c-.1.16-.15.34-.15.541 0 .142.032.272.098.39.066.114.167.222.302.322.135.097.305.189.51.276.204.087.445.17.722.25.42.124.786.263 1.098.416.312.149.572.319.78.509.208.191.364.408.468.65.104.24.156.512.156.817 0 .319-.064.607-.192.863-.129.253-.312.47-.552.65-.235.177-.52.314-.853.411-.329.094-.696.14-1.102.14-.364 0-.723-.048-1.077-.145a3.193 3.193 0 0 1-.957-.442 2.294 2.294 0 0 1-.686-.749 2.117 2.117 0 0 1-.255-1.056h1.305c0 .246.042.456.125.629.087.174.207.316.359.427.153.107.33.187.531.239.204.052.423.078.655.078.305 0 .56-.043.764-.13a1.01 1.01 0 0 0 .468-.364.952.952 0 0 0 .156-.541Zm3.849-6.038v7.988h-1.259v-7.988h1.259Zm2.881 2.361v5.627H129.2v-5.627h1.259Zm-1.342-1.476c0-.191.063-.349.187-.474.129-.128.306-.192.531-.192.222 0 .397.064.525.192a.635.635 0 0 1 .193.474.628.628 0 0 1-.193.468c-.128.124-.303.187-.525.187-.225 0-.402-.063-.531-.187a.639.639 0 0 1-.187-.468Zm6.314 5.939v-6.824h1.258v7.988h-1.139l-.119-1.164Zm-3.662-1.587v-.109c0-.426.051-.815.151-1.165a2.75 2.75 0 0 1 .437-.91c.191-.256.423-.452.697-.588.274-.138.582-.208.926-.208.339 0 .638.066.894.198.257.132.475.321.655.567.181.243.325.534.432.874.108.336.184.71.229 1.123v.348c-.045.403-.121.77-.229 1.103a2.92 2.92 0 0 1-.432.863c-.18.243-.4.43-.66.562a1.941 1.941 0 0 1-.9.197 1.97 1.97 0 0 1-.92-.213 2.027 2.027 0 0 1-.692-.598 2.811 2.811 0 0 1-.437-.905c-.1-.35-.151-.73-.151-1.139Zm1.254-.109v.109c0 .257.022.496.067.718.049.222.124.418.224.588.101.166.231.298.39.395.163.094.357.14.583.14.284 0 .518-.062.702-.187.183-.125.327-.293.431-.504.108-.215.181-.454.219-.718v-.941a2.288 2.288 0 0 0-.13-.572 1.556 1.556 0 0 0-.255-.463 1.08 1.08 0 0 0-.401-.312 1.256 1.256 0 0 0-.556-.115c-.229 0-.423.049-.583.146a1.19 1.19 0 0 0-.395.4c-.1.17-.175.368-.223.593a3.408 3.408 0 0 0-.073.723Zm7.624 2.964a3.01 3.01 0 0 1-1.129-.202 2.487 2.487 0 0 1-.853-.578 2.56 2.56 0 0 1-.535-.868 3.04 3.04 0 0 1-.187-1.077v-.208c0-.44.064-.839.192-1.196s.307-.662.536-.915c.228-.257.499-.453.811-.588.312-.135.65-.203 1.014-.203.402 0 .754.068 1.056.203.301.135.551.326.749.572.201.243.35.533.447.869.1.336.151.707.151 1.113v.535h-4.348v-.899h3.11v-.099a1.772 1.772 0 0 0-.135-.635 1.078 1.078 0 0 0-.37-.478c-.166-.121-.388-.182-.665-.182-.208 0-.394.045-.557.135a1.099 1.099 0 0 0-.4.38 1.979 1.979 0 0 0-.25.603 3.414 3.414 0 0 0-.083.785v.208c0 .247.033.475.099.687.069.208.17.39.302.546.131.156.291.279.478.369.187.087.4.13.64.13.301 0 .57-.06.806-.182.235-.121.44-.293.613-.515l.661.64a2.565 2.565 0 0 1-.473.51 2.402 2.402 0 0 1-.713.39c-.277.1-.6.15-.967.15Zm4.654-4.659v4.555h-1.253v-5.627h1.196l.057 1.072Zm1.722-1.108-.011 1.165a3.249 3.249 0 0 0-.509-.042c-.215 0-.404.032-.567.094-.163.059-.3.146-.411.26a1.136 1.136 0 0 0-.25.406 1.829 1.829 0 0 0-.104.535l-.286.021c0-.354.035-.681.104-.983.07-.301.174-.567.312-.795.142-.229.319-.408.531-.536.215-.128.463-.193.743-.193a1.54 1.54 0 0 1 .448.068Z" class="Slider"/>
      <path fill="#000" fill-opacity=".87" d="M204.787 186.117v2.246H192.5l-.093-1.696 7.348-11.514h2.258l-2.445 4.189-4.224 6.775h9.443Zm-2.13-10.964v17.037h-2.82v-17.037h2.82Zm15.447 12.391c0 1.061-.246 1.954-.737 2.68-.492.725-1.163 1.275-2.013 1.65-.842.366-1.794.55-2.855.55s-2.016-.184-2.867-.55c-.85-.375-1.521-.925-2.012-1.65-.492-.726-.738-1.619-.738-2.68 0-.702.137-1.338.41-1.907a4.292 4.292 0 0 1 1.158-1.486 5.455 5.455 0 0 1 1.779-.971 7.12 7.12 0 0 1 2.247-.34c1.076 0 2.04.199 2.89.597.85.398 1.517.948 2.001 1.65.491.702.737 1.521.737 2.457Zm-2.832-.14c0-.57-.117-1.069-.351-1.498a2.459 2.459 0 0 0-.983-.995c-.421-.234-.908-.351-1.462-.351-.562 0-1.05.117-1.463.351a2.487 2.487 0 0 0-.971.995c-.226.429-.34.928-.34 1.498 0 .577.114 1.076.34 1.498.226.413.55.729.971.947.421.219.917.328 1.486.328.57 0 1.061-.109 1.474-.328.414-.218.734-.534.96-.947.226-.422.339-.921.339-1.498Zm2.446-7.77c0 .85-.226 1.607-.679 2.27-.444.663-1.061 1.186-1.849 1.568-.788.375-1.685.562-2.691.562-1.014 0-1.919-.187-2.715-.562-.787-.382-1.408-.905-1.86-1.568-.445-.663-.667-1.42-.667-2.27 0-1.014.222-1.868.667-2.562a4.337 4.337 0 0 1 1.86-1.604c.788-.366 1.689-.549 2.703-.549 1.014 0 1.915.183 2.703.549a4.257 4.257 0 0 1 1.849 1.604c.453.694.679 1.548.679 2.562Zm-2.82.094c0-.507-.102-.952-.304-1.334a2.193 2.193 0 0 0-.831-.913c-.359-.218-.784-.328-1.276-.328-.491 0-.916.106-1.275.316a2.127 2.127 0 0 0-.831.89c-.195.382-.292.838-.292 1.369 0 .522.097.979.292 1.369.195.382.472.682.831.901.367.218.796.327 1.287.327.492 0 .917-.109 1.276-.327.358-.219.635-.519.83-.901.195-.39.293-.847.293-1.369Zm5.864-.398v-.901c0-.648.14-1.237.421-1.767.281-.53.69-.956 1.228-1.275.539-.32 1.186-.48 1.943-.48.78 0 1.435.16 1.966.48.538.319.947.745 1.228 1.275.281.53.422 1.119.422 1.767v.901c0 .632-.141 1.213-.422 1.743a3.128 3.128 0 0 1-1.217 1.276c-.53.32-1.181.48-1.954.48-.764 0-1.419-.16-1.966-.48a3.215 3.215 0 0 1-1.228-1.276 3.663 3.663 0 0 1-.421-1.743Zm1.954-.901v.901c0 .312.058.608.175.889.125.281.312.507.562.679.249.171.558.257.924.257.375 0 .679-.086.913-.257.242-.172.421-.398.538-.679.117-.281.176-.577.176-.889v-.901c0-.32-.063-.62-.187-.901a1.525 1.525 0 0 0-.539-.69c-.242-.172-.55-.258-.924-.258-.359 0-.663.086-.913.258a1.603 1.603 0 0 0-.55.69 2.319 2.319 0 0 0-.175.901Zm6.26 10.496v-.913c0-.639.14-1.225.421-1.755.289-.53.702-.956 1.24-1.275.539-.32 1.186-.48 1.943-.48.78 0 1.435.16 1.966.48.538.319.944.745 1.217 1.275.28.53.421 1.116.421 1.755v.913a3.7 3.7 0 0 1-.421 1.755 3.153 3.153 0 0 1-1.206 1.276c-.53.319-1.181.479-1.954.479-.764 0-1.42-.16-1.966-.479a3.302 3.302 0 0 1-1.24-1.276 3.687 3.687 0 0 1-.421-1.755Zm1.966-.913v.913c0 .312.062.608.187.889.133.281.324.511.573.691.25.171.55.257.901.257.398 0 .718-.086.96-.257.242-.18.413-.406.515-.679.109-.281.163-.581.163-.901v-.913c0-.32-.062-.62-.187-.901a1.504 1.504 0 0 0-.55-.678c-.242-.172-.55-.258-.924-.258-.367 0-.671.086-.913.258a1.616 1.616 0 0 0-.55.678 2.319 2.319 0 0 0-.175.901Zm2.34-10.426-8.32 13.316-1.439-.83 8.32-13.316 1.439.83Z" class="48%"/>
      <g class="slider-tumb">
        <g class="slider" clip-path="url(#b)">
          <rect width="191.048" height="3.994" x="118.976" y="204.178" fill="#5469FF" fill-opacity=".3" rx="1.997"/>
          <g class="steps">
            <circle cx="120.973" cy="206.175" r=".666" fill="#5469FF" fill-opacity=".82" class="Ellipse 1"/>
            <circle cx="136.506" cy="206.175" r=".666" fill="#5469FF" fill-opacity=".82" class="Ellipse 2"/>
            <circle cx="152.038" cy="206.175" r=".666" fill="#5469FF" fill-opacity=".82" class="Ellipse 3"/>
            <circle cx="167.571" cy="206.175" r=".666" fill="#5469FF" fill-opacity=".82" class="Ellipse 4"/>
            <circle cx="183.103" cy="206.175" r=".666" fill="#5469FF" fill-opacity=".82" class="Ellipse 5"/>
            <circle cx="198.636" cy="206.175" r=".666" fill="#5469FF" fill-opacity=".82" class="Ellipse 6"/>
            <circle cx="214.168" cy="206.175" r=".666" fill="#5469FF" fill-opacity=".82" class="Ellipse 13"/>
            <circle cx="229.701" cy="206.175" r=".666" fill="#2A7DEC" class="Ellipse 12"/>
            <circle cx="245.233" cy="206.175" r=".666" fill="#2A7DEC" class="Ellipse 22"/>
            <circle cx="260.766" cy="206.175" r=".666" fill="#2A7DEC" class="Ellipse 23"/>
            <circle cx="276.298" cy="206.175" r=".666" fill="#2A7DEC" class="Ellipse 11"/>
            <circle cx="291.831" cy="206.175" r=".666" fill="#2A7DEC" class="Ellipse 14"/>
            <circle cx="307.363" cy="206.175" r=".666" fill="#2A7DEC" class="Ellipse 16"/>
          </g>
          <g class="spacer" clip-path="url(#c)">
            <rect width="92.528" height="3.994" x="118.976" y="204.178" fill="#2A7DEC" rx="1.997"/>
            <rect width=".666" height="3.994" x="164.907" y="204.178" fill="#2A7DEC" class="spacer" rx=".333"/>
          </g>
        </g>
      </g>
      <path fill="#000" fill-opacity=".54" d="M123.117 215.817v.793c0 .427-.038.787-.114 1.08a1.878 1.878 0 0 1-.329.708 1.25 1.25 0 0 1-.519.39c-.2.079-.426.118-.679.118-.2 0-.385-.025-.554-.075a1.315 1.315 0 0 1-.458-.24 1.45 1.45 0 0 1-.343-.436 2.355 2.355 0 0 1-.218-.651 4.695 4.695 0 0 1-.075-.894v-.793c0-.427.038-.784.114-1.073.079-.288.19-.52.333-.694.143-.176.314-.302.515-.379.202-.076.429-.114.679-.114.203 0 .389.025.558.075a1.254 1.254 0 0 1 .797.654c.095.174.168.388.218.64.05.253.075.55.075.891Zm-.665.901v-1.012a3.83 3.83 0 0 0-.043-.615 1.904 1.904 0 0 0-.118-.458.893.893 0 0 0-.2-.307.707.707 0 0 0-.275-.172.994.994 0 0 0-.347-.057.944.944 0 0 0-.418.089.757.757 0 0 0-.308.276 1.485 1.485 0 0 0-.186.497 3.704 3.704 0 0 0-.064.747v1.012c0 .233.013.439.039.618.029.179.071.334.125.465.055.129.122.235.201.318a.732.732 0 0 0 .271.186c.105.038.221.057.347.057a.928.928 0 0 0 .426-.093.776.776 0 0 0 .304-.289c.083-.134.145-.304.185-.511.041-.21.061-.46.061-.751Z" class="0"/>
      <path fill="#000" fill-opacity=".54" d="M299.738 213.6v5.234h-.662v-4.408l-1.333.486v-.597l1.891-.715h.104Zm5.379 2.217v.793c0 .427-.038.787-.114 1.08a1.878 1.878 0 0 1-.329.708 1.25 1.25 0 0 1-.519.39c-.2.079-.426.118-.679.118-.2 0-.385-.025-.554-.075a1.315 1.315 0 0 1-.458-.24 1.45 1.45 0 0 1-.343-.436 2.355 2.355 0 0 1-.218-.651 4.695 4.695 0 0 1-.075-.894v-.793c0-.427.038-.784.114-1.073.079-.288.19-.52.333-.694.143-.176.314-.302.515-.379.202-.076.429-.114.679-.114.203 0 .389.025.558.075a1.254 1.254 0 0 1 .797.654c.095.174.168.388.218.64.05.253.075.55.075.891Zm-.665.901v-1.012a3.83 3.83 0 0 0-.043-.615 1.904 1.904 0 0 0-.118-.458.893.893 0 0 0-.2-.307.707.707 0 0 0-.275-.172.994.994 0 0 0-.347-.057.944.944 0 0 0-.418.089.757.757 0 0 0-.308.276 1.485 1.485 0 0 0-.186.497 3.704 3.704 0 0 0-.064.747v1.012c0 .233.013.439.039.618.029.179.071.334.125.465.055.129.122.235.201.318a.732.732 0 0 0 .271.186c.105.038.221.057.347.057a.928.928 0 0 0 .426-.093.776.776 0 0 0 .304-.289c.083-.134.145-.304.185-.511.041-.21.061-.46.061-.751Zm4.95-.901v.793c0 .427-.038.787-.114 1.08a1.878 1.878 0 0 1-.329.708 1.253 1.253 0 0 1-.518.39 1.844 1.844 0 0 1-.68.118c-.2 0-.385-.025-.554-.075a1.301 1.301 0 0 1-.457-.24 1.452 1.452 0 0 1-.344-.436 2.355 2.355 0 0 1-.218-.651 4.695 4.695 0 0 1-.075-.894v-.793c0-.427.038-.784.115-1.073a1.84 1.84 0 0 1 .332-.694c.143-.176.315-.302.515-.379.203-.076.429-.114.679-.114.203 0 .389.025.558.075a1.258 1.258 0 0 1 .797.654c.096.174.168.388.218.64.05.253.075.55.075.891Zm-.665.901v-1.012a3.96 3.96 0 0 0-.042-.615 2.003 2.003 0 0 0-.118-.458.91.91 0 0 0-.201-.307.7.7 0 0 0-.275-.172.99.99 0 0 0-.347-.057.944.944 0 0 0-.418.089.757.757 0 0 0-.308.276 1.464 1.464 0 0 0-.185.497 3.697 3.697 0 0 0-.065.747v1.012c0 .233.013.439.039.618.029.179.071.334.126.465.054.129.121.235.2.318a.735.735 0 0 0 .272.186c.104.038.22.057.346.057a.928.928 0 0 0 .426-.093.77.77 0 0 0 .304-.289c.083-.134.145-.304.186-.511.04-.21.06-.46.06-.751Z" class="100"/>
      <circle cx="215.156" cy="206.139" r="5.325" fill="#2A7DEC" class="Ellipse"/>
    </g>
    <g class="signal" style="transform-box: content-box;" transform-origin="right bottom">
      <animate xmlns="http://www.w3.org/2000/svg" attributeName="opacity" values="0;1" dur="1s" repeatCount="1" calcMode="spline" keyTimes="0;1" keySplines="0.5 0.35 0.15 1" additive="replace" fill="freeze"/>
      <animateTransform xmlns="http://www.w3.org/2000/svg" attributeName="transform" type="scale" values="0.5 0.5;1 1" dur="1s" repeatCount="1" calcMode="spline" keyTimes="0;1" keySplines="0.5 0.35 0.15 1" additive="sum" fill="freeze"/>
      <rect width="151" height="157" x="382" y="109" fill="#fff" rx="6"/>
      <rect width="152" height="158" x="381.5" y="108.5" stroke="#3E9AF8" stroke-opacity=".5" rx="6.5"/>
      <path fill="#000" fill-opacity=".87" d="M406.818 136.604c0-.187-.029-.353-.088-.498a.961.961 0 0 0-.292-.398 2.4 2.4 0 0 0-.598-.349 7.911 7.911 0 0 0-.971-.355 10.82 10.82 0 0 1-1.196-.442 4.546 4.546 0 0 1-.946-.573 2.457 2.457 0 0 1-.629-.753 2.118 2.118 0 0 1-.224-.99c0-.37.077-.706.23-1.009.158-.303.38-.564.667-.784.29-.224.633-.397 1.027-.517.394-.125.83-.187 1.307-.187.673 0 1.252.125 1.738.374.489.249.865.583 1.126 1.002.266.419.399.882.399 1.389h-1.55a1.59 1.59 0 0 0-.193-.791 1.311 1.311 0 0 0-.573-.548c-.253-.133-.575-.199-.965-.199-.37 0-.677.056-.922.168a1.23 1.23 0 0 0-.548.454c-.12.191-.18.407-.18.648 0 .17.039.326.118.467.079.137.199.266.361.386.162.116.366.226.61.33.245.104.534.203.866.299.502.149.94.315 1.314.498.373.178.684.382.934.61.249.228.435.488.56.778.124.287.187.613.187.978 0 .382-.077.726-.231 1.033a2.222 2.222 0 0 1-.66.779 3.18 3.18 0 0 1-1.021.492 4.823 4.823 0 0 1-1.32.168c-.436 0-.865-.059-1.289-.175a3.779 3.779 0 0 1-1.145-.529 2.73 2.73 0 0 1-.822-.897c-.203-.361-.305-.782-.305-1.263h1.563c0 .294.049.545.149.753.104.207.247.378.43.51.182.129.394.225.635.287.245.062.506.093.784.093.366 0 .671-.052.915-.155.25-.104.436-.249.561-.436.124-.187.187-.403.187-.648Zm4.607-4.402v6.737h-1.507v-6.737h1.507Zm-1.606-1.768c0-.228.074-.417.224-.566.153-.154.365-.231.635-.231.266 0 .475.077.629.231.153.149.23.338.23.566a.75.75 0 0 1-.23.56c-.154.15-.363.225-.629.225-.27 0-.482-.075-.635-.225a.757.757 0 0 1-.224-.56Zm7.764 1.768h1.363v6.55c0 .606-.128 1.121-.386 1.544a2.474 2.474 0 0 1-1.077.965c-.461.225-.994.337-1.6.337-.257 0-.544-.038-.859-.112a3.48 3.48 0 0 1-.909-.362 2.235 2.235 0 0 1-.729-.641l.704-.884c.241.286.506.496.797.629.29.133.595.199.915.199.345 0 .637-.064.878-.193.245-.124.434-.309.567-.554.132-.245.199-.544.199-.897v-5.055l.137-1.526Zm-4.577 3.443v-.13c0-.511.063-.976.187-1.395.125-.423.303-.787.536-1.09.232-.307.514-.541.846-.703a2.49 2.49 0 0 1 1.127-.249c.436 0 .808.079 1.115.236.311.158.571.384.778.679.208.291.37.639.486 1.046.12.403.209.851.268 1.345v.417a6.774 6.774 0 0 1-.274 1.32 3.644 3.644 0 0 1-.511 1.034 2.19 2.19 0 0 1-.784.672c-.308.158-.671.237-1.09.237-.411 0-.782-.085-1.115-.256a2.537 2.537 0 0 1-.846-.716 3.388 3.388 0 0 1-.536-1.083 4.79 4.79 0 0 1-.187-1.364Zm1.501-.13v.13c0 .308.029.594.087.86.062.265.156.5.28.703.129.199.291.357.486.473.199.112.434.169.704.169.352 0 .641-.075.865-.225.228-.149.403-.35.523-.604.125-.257.212-.543.262-.859v-1.127a2.753 2.753 0 0 0-.156-.685 1.864 1.864 0 0 0-.305-.554 1.274 1.274 0 0 0-.486-.373 1.605 1.605 0 0 0-.691-.137c-.27 0-.504.058-.704.174a1.423 1.423 0 0 0-.491.479c-.125.204-.218.44-.281.71-.062.27-.093.559-.093.866Zm7.683-1.874v5.298h-1.5v-6.737h1.413l.087 1.439Zm-.268 1.681-.485-.007c.004-.477.07-.915.199-1.313.133-.399.315-.741.548-1.028.237-.286.519-.506.847-.66a2.504 2.504 0 0 1 1.095-.236c.324 0 .617.045.878.137.266.087.492.23.679.429.191.2.336.459.436.779.1.315.149.703.149 1.164v4.352h-1.506v-4.358c0-.324-.048-.579-.144-.766a.801.801 0 0 0-.404-.405 1.523 1.523 0 0 0-.654-.124 1.45 1.45 0 0 0-.691.162 1.535 1.535 0 0 0-.517.442 2.135 2.135 0 0 0-.318.647 2.703 2.703 0 0 0-.112.785Zm9.875 2.266v-3.213c0-.24-.043-.448-.131-.622a.911.911 0 0 0-.398-.405c-.174-.096-.394-.143-.66-.143-.245 0-.457.041-.635.124a1.02 1.02 0 0 0-.417.336.812.812 0 0 0-.15.48h-1.494c0-.266.064-.523.193-.772s.316-.471.56-.666c.245-.195.538-.349.878-.461a3.66 3.66 0 0 1 1.146-.168c.506 0 .955.085 1.345.255.394.17.703.428.927.772.229.34.343.768.343 1.283v2.995c0 .307.021.583.062.828.046.24.11.45.193.628v.1h-1.538a2.71 2.71 0 0 1-.168-.616 5.092 5.092 0 0 1-.056-.735Zm.218-2.746.013.928h-1.078c-.278 0-.523.027-.734.081-.212.05-.388.124-.53.224a.98.98 0 0 0-.317.361 1.052 1.052 0 0 0-.106.48c0 .178.042.342.125.491.083.146.203.26.361.343.162.083.357.124.585.124.307 0 .575-.062.803-.186a1.66 1.66 0 0 0 .548-.467c.133-.187.203-.364.212-.53l.485.667c-.049.17-.134.352-.255.548-.12.195-.278.381-.473.56a2.359 2.359 0 0 1-1.613.598 2.57 2.57 0 0 1-1.176-.262 2.085 2.085 0 0 1-.81-.716 1.855 1.855 0 0 1-.292-1.027c0-.357.066-.673.199-.947.137-.278.336-.51.598-.697a2.87 2.87 0 0 1 .971-.423c.382-.1.818-.15 1.307-.15h1.177Zm4.664-5.466v9.563h-1.507v-9.563h1.507Zm8.996 7.739a.748.748 0 0 0-.112-.405c-.074-.124-.218-.236-.429-.336-.208-.1-.515-.191-.922-.274a7.97 7.97 0 0 1-.984-.28 3.124 3.124 0 0 1-.759-.405 1.698 1.698 0 0 1-.492-.56 1.555 1.555 0 0 1-.174-.747c0-.274.06-.534.18-.779a1.98 1.98 0 0 1 .517-.647 2.51 2.51 0 0 1 .816-.442 3.407 3.407 0 0 1 1.083-.162c.565 0 1.048.095 1.451.286.407.187.718.442.934.766.216.32.323.681.323 1.083h-1.5a.963.963 0 0 0-.137-.498.951.951 0 0 0-.399-.379c-.178-.1-.402-.15-.672-.15-.257 0-.471.042-.641.125a.87.87 0 0 0-.374.311.794.794 0 0 0-.056.728c.046.088.12.168.224.243.104.071.245.137.424.199.182.063.411.123.685.181.514.108.956.247 1.326.417.373.166.66.382.859.648.199.261.299.593.299.996 0 .299-.065.573-.193.822a1.868 1.868 0 0 1-.548.641 2.725 2.725 0 0 1-.866.417c-.332.1-.705.15-1.12.15-.61 0-1.127-.108-1.551-.324-.423-.22-.745-.5-.965-.841a1.985 1.985 0 0 1-.323-1.071h1.45c.017.279.094.501.231.667.141.161.315.28.523.355.211.07.429.105.653.105.27 0 .496-.035.679-.105a.977.977 0 0 0 .417-.299.71.71 0 0 0 .143-.436Zm6.071-4.913v1.096h-3.798v-1.096h3.798Zm-2.702-1.65h1.5v6.525c0 .208.029.368.087.48.063.108.148.18.256.218.108.037.234.056.38.056a2.993 2.993 0 0 0 .529-.056l.006 1.145c-.125.038-.27.071-.436.1a3.205 3.205 0 0 1-.56.044c-.345 0-.65-.061-.915-.181a1.343 1.343 0 0 1-.623-.604c-.15-.278-.224-.647-.224-1.108v-6.619Zm5.566 2.933v5.454h-1.501v-6.737h1.433l.068 1.283Zm2.061-1.326-.013 1.394a3.03 3.03 0 0 0-.298-.037 4.067 4.067 0 0 0-.312-.012c-.257 0-.483.037-.678.112a1.274 1.274 0 0 0-.791.797 2.172 2.172 0 0 0-.125.641l-.342.025c0-.424.041-.816.124-1.177a3.22 3.22 0 0 1 .374-.953c.17-.273.382-.487.635-.641.257-.153.554-.23.89-.23.092 0 .189.008.293.025.108.016.189.035.243.056Zm3.985 6.905c-.498 0-.949-.081-1.351-.243a2.998 2.998 0 0 1-1.022-.691 3.082 3.082 0 0 1-.641-1.04 3.653 3.653 0 0 1-.224-1.289v-.249c0-.527.077-1.004.23-1.432.154-.428.368-.793.642-1.096.274-.307.597-.541.971-.703a3.019 3.019 0 0 1 1.214-.243c.482 0 .903.081 1.264.243.361.162.66.39.897.685.24.29.419.637.535 1.039.12.403.181.847.181 1.333v.641h-5.206v-1.077h3.724v-.118a2.138 2.138 0 0 0-.162-.76 1.293 1.293 0 0 0-.442-.573c-.199-.145-.465-.218-.797-.218-.249 0-.471.054-.666.162a1.318 1.318 0 0 0-.48.455 2.42 2.42 0 0 0-.299.722 4.079 4.079 0 0 0-.099.94v.249c0 .295.039.569.118.822.083.249.203.467.361.654.158.186.349.334.573.442.224.104.479.155.766.155.361 0 .683-.072.965-.218.282-.145.527-.35.735-.616l.79.766a3.073 3.073 0 0 1-.566.61 2.837 2.837 0 0 1-.853.467 3.4 3.4 0 0 1-1.158.181Zm5.553-5.423v5.298h-1.5v-6.737h1.413l.087 1.439Zm-.267 1.681-.486-.007c.004-.477.071-.915.199-1.313.133-.399.316-.741.548-1.028.237-.286.519-.506.847-.66a2.505 2.505 0 0 1 1.096-.236c.324 0 .616.045.878.137.265.087.492.23.678.429.191.2.337.459.436.779.1.315.15.703.15 1.164v4.352h-1.507v-4.358c0-.324-.048-.579-.143-.766a.807.807 0 0 0-.405-.405 1.517 1.517 0 0 0-.654-.124 1.45 1.45 0 0 0-.691.162 1.544 1.544 0 0 0-.517.442 2.11 2.11 0 0 0-.317.647 2.67 2.67 0 0 0-.112.785Zm10.391-3.12h1.364v6.55c0 .606-.129 1.121-.386 1.544a2.485 2.485 0 0 1-1.077.965c-.461.225-.995.337-1.601.337-.257 0-.543-.038-.859-.112a3.508 3.508 0 0 1-.909-.362 2.242 2.242 0 0 1-.728-.641l.703-.884c.241.286.507.496.797.629.291.133.596.199.916.199.344 0 .637-.064.877-.193.245-.124.434-.309.567-.554.133-.245.199-.544.199-.897v-5.055l.137-1.526Zm-4.576 3.443v-.13c0-.511.062-.976.187-1.395.124-.423.303-.787.535-1.09.233-.307.515-.541.847-.703a2.487 2.487 0 0 1 1.127-.249c.436 0 .807.079 1.114.236.312.158.571.384.779.679.207.291.369.639.485 1.046.121.403.21.851.268 1.345v.417a6.701 6.701 0 0 1-.274 1.32 3.67 3.67 0 0 1-.51 1.034c-.212.29-.474.514-.785.672-.307.158-.67.237-1.09.237-.41 0-.782-.085-1.114-.256a2.54 2.54 0 0 1-.847-.716 3.386 3.386 0 0 1-.535-1.083 4.754 4.754 0 0 1-.187-1.364Zm1.5-.13v.13c0 .308.03.594.088.86.062.265.155.5.28.703.129.199.29.357.485.473.2.112.434.169.704.169.353 0 .641-.075.865-.225.229-.149.403-.35.523-.604.125-.257.212-.543.262-.859v-1.127a2.753 2.753 0 0 0-.156-.685 1.82 1.82 0 0 0-.305-.554 1.263 1.263 0 0 0-.485-.373 1.61 1.61 0 0 0-.692-.137c-.269 0-.504.058-.703.174a1.434 1.434 0 0 0-.492.479c-.124.204-.218.44-.28.71-.062.27-.094.559-.094.866Zm9.284-3.313v1.096h-3.798v-1.096h3.798Zm-2.702-1.65h1.5v6.525c0 .208.029.368.087.48.063.108.148.18.256.218.107.037.234.056.379.056.104 0 .204-.006.299-.019.096-.012.172-.025.231-.037l.006 1.145c-.125.038-.27.071-.436.1a3.205 3.205 0 0 1-.56.044c-.345 0-.65-.061-.916-.181a1.345 1.345 0 0 1-.622-.604c-.15-.278-.224-.647-.224-1.108v-6.619Zm5.541-1.176v9.563h-1.494v-9.563h1.494Zm-.262 5.946-.485-.007c.004-.464.068-.894.193-1.288.128-.395.307-.737.535-1.028a2.386 2.386 0 0 1 1.912-.921c.332 0 .631.045.896.137.27.091.502.238.698.442.195.199.342.461.442.784.103.32.155.71.155 1.171v4.327h-1.506v-4.34c0-.323-.048-.581-.144-.772a.83.83 0 0 0-.404-.411 1.487 1.487 0 0 0-.654-.13c-.27 0-.509.054-.716.162a1.478 1.478 0 0 0-.511.442c-.137.186-.24.402-.311.647-.066.245-.1.507-.1.785Z" class="Signal strength"/>
      <g class="Vector">
        <path fill="#08872B" d="M478.201 212.36c-5.697-4.952-13.055-7.687-20.677-7.687-7.623 0-14.98 2.735-20.678 7.687a4.711 4.711 0 0 0-1.158 1.461 4.605 4.605 0 0 0-.242 3.618c.207.589.531 1.132.954 1.597.423.465.937.843 1.51 1.113a4.921 4.921 0 0 0 3.704.187 4.816 4.816 0 0 0 1.619-.955c3.938-3.422 9.023-5.312 14.291-5.312 5.268 0 10.353 1.89 14.29 5.312a4.877 4.877 0 0 0 3.476 1.179 4.852 4.852 0 0 0 3.311-1.569 4.64 4.64 0 0 0 1.205-3.399 4.662 4.662 0 0 0-1.605-3.237v.005Z"/>
        <path fill="#08872B" d="M457.5 185.546c-13.017-.017-25.551 4.758-35.047 13.352-.48.416-.87.92-1.146 1.483a4.529 4.529 0 0 0-.167 3.624c.224.585.566 1.12 1.007 1.575.441.455.971.821 1.561 1.075a4.981 4.981 0 0 0 1.87.407 4.991 4.991 0 0 0 1.887-.324 4.865 4.865 0 0 0 1.61-1.005c7.71-6.958 17.87-10.828 28.425-10.828s20.715 3.87 28.425 10.828a4.865 4.865 0 0 0 1.61 1.005c.6.228 1.242.339 1.887.324a4.981 4.981 0 0 0 1.87-.407 4.846 4.846 0 0 0 1.561-1.075c.441-.455.783-.99 1.006-1.575a4.516 4.516 0 0 0-.166-3.624 4.695 4.695 0 0 0-1.147-1.483c-9.495-8.594-22.029-13.369-35.046-13.352Z"/>
        <path fill="#08872B" d="M505.288 184.294c-13.14-11.513-30.135-17.875-47.745-17.875-17.611 0-34.606 6.362-47.746 17.875a4.801 4.801 0 0 0-1.19 1.491 4.718 4.718 0 0 0 .724 5.339c.433.475.958.861 1.545 1.134a4.949 4.949 0 0 0 5.42-.834c11.353-9.942 26.033-15.436 41.246-15.436 15.212 0 29.893 5.494 41.246 15.436a4.928 4.928 0 0 0 3.52 1.212 4.913 4.913 0 0 0 3.362-1.589 4.733 4.733 0 0 0 1.234-3.457 4.753 4.753 0 0 0-1.618-3.301l.002.005ZM457.5 238.145a7.174 7.174 0 1 0-.001-14.347 7.174 7.174 0 0 0 .001 14.347Z"/>
      </g>
    </g>
    <g class="window" style="transform-box: content-box;" transform-origin="center">
      <animate xmlns="http://www.w3.org/2000/svg" attributeName="opacity" values="0;1" dur="1s" repeatCount="1" calcMode="spline" keyTimes="0;1" keySplines="0.5 0.35 0.15 1" additive="replace" fill="freeze"/>
      <animateTransform xmlns="http://www.w3.org/2000/svg" attributeName="transform" type="scale" values="0.5 0.5;1 1" dur="1s" repeatCount="1" calcMode="spline" keyTimes="0;1" keySplines="0.5 0.35 0.15 1" additive="sum" fill="freeze"/>
      <rect width="147" height="147" x="254" y="31" fill="#fff" rx="6"/>
      <rect width="146" height="146" x="254.5" y="31.5" stroke="#2A7DEC" stroke-opacity=".5" rx="5.5"/>
      <path fill="#2A7DEC" d="M300.667 51h-29.334v-2.667h29.334V51Zm-28 25.333H278c0-4-2.667-6.666-2.667-6.666 8-5.334 9.334-17.334 9.334-17.334h-12v24Zm26.666-24h-12s1.334 12 9.334 17.334c0 0-2.667 2.666-2.667 6.666h5.333v-24Z" class="Vector"/>
      <path fill="#000" fill-opacity=".87" d="m273.006 136.084 1.699-6.615h.891l-.1 1.705L273.68 138h-.926l.252-1.916Zm-1.272-6.615 1.377 6.562.123 1.969h-.984l-1.975-8.531h1.459Zm5.789 6.545 1.36-6.545h1.465L278.373 138h-.984l.134-1.986Zm-1.582-6.545 1.682 6.633.246 1.898h-.926l-1.787-6.826-.094-1.705h.879Zm7.118 2.191V138h-1.418v-6.34h1.418Zm-1.512-1.664c0-.215.07-.392.211-.533.144-.145.344-.217.597-.217.25 0 .448.072.592.217a.71.71 0 0 1 .217.533.702.702 0 0 1-.217.527c-.144.141-.342.211-.592.211-.253 0-.453-.07-.597-.211a.712.712 0 0 1-.211-.527Zm4.709 3.018V138h-1.412v-6.34h1.33l.082 1.354Zm-.252 1.582-.457-.006c.004-.449.066-.861.187-1.236.125-.375.297-.698.516-.967.223-.27.488-.477.797-.621a2.337 2.337 0 0 1 1.031-.223c.305 0 .58.043.826.129.25.082.463.217.639.404.18.188.316.432.41.733.094.296.141.662.141 1.095V138h-1.418v-4.102c0-.304-.045-.544-.135-.72a.753.753 0 0 0-.381-.381 1.43 1.43 0 0 0-.615-.117c-.242 0-.459.05-.65.152-.192.102-.354.24-.487.416a2.035 2.035 0 0 0-.299.609c-.07.231-.105.477-.105.739Zm9.648 2.092V129h1.418v9h-1.283l-.135-1.312Zm-4.125-1.788v-.123c0-.48.057-.918.17-1.312.114-.399.278-.74.492-1.026a2.17 2.17 0 0 1 .786-.662 2.277 2.277 0 0 1 1.043-.234c.382 0 .718.074 1.007.223.289.148.536.361.739.638.203.274.365.602.486.985.121.379.207.8.258 1.265v.393a6.362 6.362 0 0 1-.258 1.242 3.346 3.346 0 0 1-.486.973 2.12 2.12 0 0 1-.744.633 2.2 2.2 0 0 1-1.014.222c-.383 0-.729-.08-1.037-.24a2.293 2.293 0 0 1-.78-.674 3.208 3.208 0 0 1-.492-1.019 4.652 4.652 0 0 1-.17-1.284Zm1.412-.123v.123c0 .289.026.559.077.809.054.25.138.471.252.662.113.188.259.336.439.445.184.106.402.159.656.159.321 0 .584-.071.791-.211.207-.141.369-.33.487-.569.121-.242.203-.511.246-.808v-1.061a2.623 2.623 0 0 0-.147-.644 1.72 1.72 0 0 0-.287-.522 1.207 1.207 0 0 0-.451-.351 1.415 1.415 0 0 0-.627-.129 1.23 1.23 0 0 0-.656.164c-.18.109-.328.26-.446.451a2.232 2.232 0 0 0-.252.668 3.906 3.906 0 0 0-.082.814Zm5.588.123v-.134c0-.457.067-.881.2-1.272a3.01 3.01 0 0 1 .574-1.025c.254-.293.562-.52.926-.68a3.013 3.013 0 0 1 1.242-.246c.465 0 .879.082 1.242.246.367.16.678.387.932.68.253.289.447.631.58 1.025.132.391.199.815.199 1.272v.134c0 .457-.067.881-.199 1.272-.133.39-.327.732-.58 1.025a2.693 2.693 0 0 1-.926.68 3.04 3.04 0 0 1-1.237.24 3.1 3.1 0 0 1-1.248-.24 2.689 2.689 0 0 1-.925-.68 3.031 3.031 0 0 1-.58-1.025 3.926 3.926 0 0 1-.2-1.272Zm1.412-.134v.134c0 .286.03.555.088.809.059.254.151.477.276.668.125.191.285.342.48.451a1.4 1.4 0 0 0 .697.164c.262 0 .489-.054.68-.164.195-.109.356-.26.481-.451a2.06 2.06 0 0 0 .275-.668c.063-.254.094-.523.094-.809v-.134c0-.282-.031-.547-.094-.797a2.05 2.05 0 0 0-.281-.674 1.34 1.34 0 0 0-1.166-.627 1.36 1.36 0 0 0-.692.17 1.361 1.361 0 0 0-.474.457c-.125.195-.217.42-.276.674-.058.25-.088.515-.088.797Zm7.639 1.828 1.465-4.934h.902l-.246 1.477-1.476 4.863h-.809l.164-1.406Zm-.861-4.934 1.142 4.957.094 1.383h-.902l-1.717-6.34h1.383Zm4.599 4.899 1.108-4.899h1.377L312.09 138h-.902l.128-1.441Zm-1.218-4.899 1.447 4.875.182 1.465h-.809l-1.494-4.869-.246-1.471h.92Zm9.664-2.66v9h-1.418v-9h1.418Zm4.592 9.117a3.39 3.39 0 0 1-1.272-.228 2.814 2.814 0 0 1-.961-.651 2.862 2.862 0 0 1-.603-.978 3.421 3.421 0 0 1-.211-1.213v-.235c0-.496.072-.945.216-1.347.145-.403.346-.746.604-1.031.258-.289.562-.51.914-.663a2.849 2.849 0 0 1 1.143-.228c.453 0 .849.076 1.189.228.34.153.621.368.844.645.226.273.394.6.504.979.113.378.17.796.17 1.253v.604h-4.899v-1.014h3.504v-.111a1.983 1.983 0 0 0-.152-.715 1.219 1.219 0 0 0-.416-.539c-.188-.137-.438-.205-.75-.205-.235 0-.444.051-.627.152-.18.098-.33.241-.451.428a2.274 2.274 0 0 0-.282.68 3.838 3.838 0 0 0-.093.884v.235c0 .277.037.535.111.773.078.235.191.44.34.616.148.175.328.314.539.416.211.097.451.146.721.146.339 0 .642-.068.908-.205.265-.137.496-.33.691-.58l.744.721c-.136.199-.314.39-.533.574-.219.18-.486.326-.803.439-.312.114-.675.17-1.089.17Zm5.798-.117h-1.412v-6.949c0-.473.088-.869.264-1.19a1.74 1.74 0 0 1 .767-.732c.333-.168.725-.252 1.178-.252.141 0 .28.01.416.029.137.016.27.041.399.076l-.035 1.09a1.742 1.742 0 0 0-.258-.041 3.346 3.346 0 0 0-.293-.011c-.215 0-.401.041-.557.123a.812.812 0 0 0-.351.345c-.079.153-.118.34-.118.563V138Zm1.307-6.34v1.031h-3.691v-1.031h3.691Zm4.182 0v1.031h-3.575v-1.031h3.575Zm-2.543-1.553h1.412v6.141c0 .195.027.346.082.451.058.102.138.17.24.205a1.1 1.1 0 0 0 .357.053 2.422 2.422 0 0 0 .499-.053l.005 1.078a3.362 3.362 0 0 1-.41.094 2.945 2.945 0 0 1-.527.041c-.324 0-.611-.056-.861-.17a1.262 1.262 0 0 1-.586-.568c-.141-.262-.211-.609-.211-1.043v-6.229Zm9.711 6.885c.23 0 .437-.045.621-.135a1.17 1.17 0 0 0 .451-.386 1.06 1.06 0 0 0 .193-.569h1.33c-.008.41-.129.784-.363 1.119a2.515 2.515 0 0 1-.932.803 2.793 2.793 0 0 1-1.283.293c-.484 0-.906-.082-1.265-.246a2.496 2.496 0 0 1-.897-.691 3.047 3.047 0 0 1-.539-1.014 4.19 4.19 0 0 1-.176-1.23v-.206c0-.437.059-.847.176-1.23.121-.387.301-.727.539-1.02.238-.292.537-.521.897-.685.359-.168.779-.252 1.259-.252.508 0 .953.102 1.336.305.383.199.684.478.903.838.222.355.337.769.345 1.242h-1.33a1.41 1.41 0 0 0-.176-.633 1.16 1.16 0 0 0-.433-.457 1.24 1.24 0 0 0-.662-.17c-.285 0-.522.059-.709.176a1.181 1.181 0 0 0-.44.468 2.316 2.316 0 0 0-.228.663 4.312 4.312 0 0 0-.065.755v.206c0 .261.022.515.065.761.043.246.117.467.222.662.11.192.258.346.446.463.187.114.426.17.715.17Zm3.66-2.092v-.134c0-.457.066-.881.199-1.272.133-.394.324-.736.574-1.025.254-.293.563-.52.926-.68a3.013 3.013 0 0 1 1.242-.246c.465 0 .879.082 1.242.246.368.16.678.387.932.68.254.289.447.631.58 1.025.133.391.199.815.199 1.272v.134c0 .457-.066.881-.199 1.272-.133.39-.326.732-.58 1.025a2.693 2.693 0 0 1-.926.68c-.363.16-.775.24-1.236.24-.465 0-.881-.08-1.248-.24a2.693 2.693 0 0 1-.926-.68 3.048 3.048 0 0 1-.58-1.025 3.926 3.926 0 0 1-.199-1.272Zm1.412-.134v.134c0 .286.029.555.088.809.058.254.15.477.275.668.125.191.285.342.481.451.195.11.427.164.697.164.262 0 .488-.054.68-.164.195-.109.355-.26.48-.451s.217-.414.275-.668c.063-.254.094-.523.094-.809v-.134c0-.282-.031-.547-.094-.797a2.03 2.03 0 0 0-.281-.674 1.345 1.345 0 0 0-.48-.457 1.327 1.327 0 0 0-.686-.17c-.265 0-.496.057-.691.17-.192.109-.35.262-.475.457s-.217.42-.275.674c-.059.25-.088.515-.088.797Zm7.334-1.899V138h-1.412v-6.34h1.347l.065 1.207Zm1.939-1.248-.011 1.313a2.702 2.702 0 0 0-.282-.036 4.076 4.076 0 0 0-.293-.011c-.242 0-.455.035-.638.105a1.207 1.207 0 0 0-.463.293 1.29 1.29 0 0 0-.281.457c-.067.18-.106.381-.118.604l-.322.023c0-.398.039-.767.117-1.107.078-.34.196-.639.352-.897.16-.258.359-.459.597-.603.243-.145.522-.217.838-.217a1.833 1.833 0 0 1 .504.076Zm2.535 1.395V138h-1.412v-6.34h1.33l.082 1.354Zm-.251 1.582-.458-.006c.004-.449.067-.861.188-1.236.125-.375.297-.698.516-.967a2.26 2.26 0 0 1 .796-.621 2.345 2.345 0 0 1 1.032-.223c.304 0 .58.043.826.129.25.082.463.217.639.404.179.188.316.432.41.733.093.296.14.662.14 1.095V138h-1.418v-4.102c0-.304-.045-.544-.134-.72a.753.753 0 0 0-.381-.381 1.43 1.43 0 0 0-.615-.117c-.243 0-.459.05-.651.152a1.47 1.47 0 0 0-.486.416 2.012 2.012 0 0 0-.299.609c-.07.231-.105.477-.105.739Zm8.576 3.521a3.39 3.39 0 0 1-1.272-.228 2.814 2.814 0 0 1-.961-.651 2.878 2.878 0 0 1-.603-.978 3.421 3.421 0 0 1-.211-1.213v-.235c0-.496.072-.945.217-1.347.144-.403.345-.746.603-1.031.258-.289.563-.51.914-.663a2.852 2.852 0 0 1 1.143-.228c.453 0 .849.076 1.189.228.34.153.621.368.844.645.227.273.394.6.504.979.113.378.17.796.17 1.253v.604h-4.899v-1.014h3.504v-.111a1.983 1.983 0 0 0-.152-.715 1.219 1.219 0 0 0-.416-.539c-.188-.137-.438-.205-.75-.205-.234 0-.443.051-.627.152-.18.098-.33.241-.451.428a2.247 2.247 0 0 0-.281.68 3.781 3.781 0 0 0-.094.884v.235c0 .277.037.535.111.773.078.235.192.44.34.616.148.175.328.314.539.416.211.097.451.146.721.146.34 0 .642-.068.908-.205.266-.137.496-.33.691-.58l.744.721c-.136.199-.314.39-.533.574-.218.18-.486.326-.802.439-.313.114-.676.17-1.09.17Zm5.306-5.25V138h-1.412v-6.34h1.348l.064 1.207Zm1.94-1.248-.012 1.313a2.717 2.717 0 0 0-.281-.036 4.12 4.12 0 0 0-.293-.011 1.79 1.79 0 0 0-.639.105 1.215 1.215 0 0 0-.463.293 1.29 1.29 0 0 0-.281.457 2.07 2.07 0 0 0-.117.604l-.322.023c0-.398.039-.767.117-1.107.078-.34.195-.639.351-.897.16-.258.36-.459.598-.603.242-.145.521-.217.838-.217a1.81 1.81 0 0 1 .504.076Z" class="text"/>
      <path fill="#000" fill-opacity=".54" d="M276.392 151.25v.391a4.62 4.62 0 0 1-.21 1.445c-.14.426-.341.789-.601 1.089a2.575 2.575 0 0 1-.928.688 2.979 2.979 0 0 1-1.201.235c-.436 0-.835-.078-1.196-.235a2.69 2.69 0 0 1-.933-.688 3.21 3.21 0 0 1-.615-1.089 4.53 4.53 0 0 1-.215-1.445v-.391c0-.537.072-1.017.215-1.44.143-.427.345-.79.605-1.089.264-.303.575-.533.933-.689.361-.159.76-.239 1.196-.239.44 0 .84.08 1.202.239.361.156.672.386.932.689.261.299.461.662.601 1.089.143.423.215.903.215 1.44Zm-1.226.391v-.401c0-.397-.039-.747-.117-1.05a2.15 2.15 0 0 0-.337-.766 1.405 1.405 0 0 0-.542-.469 1.61 1.61 0 0 0-.728-.161c-.27 0-.511.054-.722.161-.212.104-.393.26-.542.469a2.26 2.26 0 0 0-.337.766 4.233 4.233 0 0 0-.117 1.05v.401c0 .397.039.748.117 1.054.078.306.192.565.342.777.153.208.335.366.546.473.212.104.453.157.723.157.274 0 .516-.053.728-.157.211-.107.39-.265.537-.473.146-.212.257-.471.332-.777.078-.306.117-.657.117-1.054Zm5.651.708h-1.85v-.972h1.85c.323 0 .583-.052.782-.156a.976.976 0 0 0 .434-.43c.095-.186.142-.397.142-.635 0-.224-.047-.434-.142-.63a1.08 1.08 0 0 0-.434-.478c-.199-.121-.459-.181-.782-.181h-1.474V155h-1.226v-7.109h2.7c.551 0 1.018.097 1.402.293.387.192.682.459.884.8.201.339.302.726.302 1.162 0 .459-.101.853-.302 1.182a1.952 1.952 0 0 1-.884.757c-.384.176-.851.264-1.402.264Zm8.84 1.679V155h-3.774v-.972h3.774Zm-3.428-6.137V155h-1.225v-7.109h1.225Zm2.935 2.968v.957h-3.281v-.957h3.281Zm.469-2.968v.976h-3.75v-.976h3.75Zm7.165 0V155h-1.226l-3.188-5.093V155h-1.226v-7.109h1.226l3.198 5.102v-5.102h1.216Zm6.613 6.137V155h-3.774v-.972h3.774Zm-3.428-6.137V155h-1.225v-7.109h1.225Zm2.935 2.968v.957h-3.281v-.957h3.281Zm.469-2.968v.976h-3.75v-.976h3.75Zm3.591 7.109h-1.519l.01-.972h1.509c.439 0 .807-.096 1.103-.288.3-.192.524-.467.674-.825.153-.358.229-.784.229-1.279v-.386c0-.384-.044-.724-.131-1.021a2.013 2.013 0 0 0-.381-.747 1.607 1.607 0 0 0-.616-.459 2.087 2.087 0 0 0-.835-.156h-1.591v-.976h1.591c.472 0 .904.079 1.294.239.391.156.728.382 1.011.679.287.296.506.651.659 1.064.153.413.23.876.23 1.387v.376c0 .511-.077.973-.23 1.386a3.002 3.002 0 0 1-.659 1.065 2.958 2.958 0 0 1-1.025.679 3.567 3.567 0 0 1-1.323.234Zm-.84-7.109V155h-1.226v-7.109h1.226Z" class="text"/>
    </g>
    <g class="switch" style="transform-box: content-box;" transform-origin="right top">
      <animate xmlns="http://www.w3.org/2000/svg" attributeName="opacity" values="0;1" dur="1s" repeatCount="1" calcMode="spline" keyTimes="0;1" keySplines="0.5 0.35 0.15 1" additive="replace" fill="freeze"/>
      <animateTransform xmlns="http://www.w3.org/2000/svg" attributeName="transform" type="scale" values="0.5 0.5;1 1" dur="1s" repeatCount="1" calcMode="spline" keyTimes="0;1" keySplines="0.5 0.35 0.15 1" additive="sum" fill="freeze"/>
      <rect width="186" height="42" x="362" y="6" fill="#fff" rx="4.271"/>
      <rect width="185.288" height="41.288" x="362.356" y="6.356" stroke="#2A7DEC" stroke-opacity=".5" stroke-width=".712" rx="3.915"/>
      <rect width="29.898" height="15.661" x="394.847" y="19.169" fill="#2A7DEC" class="Rectangle 1" rx="7.831"/>
      <circle cx="416.915" cy="27" r="6.407" fill="#fff" class="Ellipse 1"/>
      <path fill="#000" fill-opacity=".76" d="M435.524 27.915a1.19 1.19 0 0 0-.078-.445.866.866 0 0 0-.261-.356 2.155 2.155 0 0 0-.534-.312 7.101 7.101 0 0 0-.868-.317 9.732 9.732 0 0 1-1.068-.395 4.075 4.075 0 0 1-.845-.511 2.197 2.197 0 0 1-.562-.673 1.89 1.89 0 0 1-.2-.884c0-.33.069-.63.206-.901a2.1 2.1 0 0 1 .595-.701c.259-.2.565-.354.918-.462a3.857 3.857 0 0 1 1.167-.167c.601 0 1.118.111 1.552.334.438.223.773.52 1.007.895.237.375.356.788.356 1.24h-1.385c0-.266-.058-.502-.173-.706a1.165 1.165 0 0 0-.511-.49c-.226-.118-.514-.177-.862-.177-.33 0-.605.05-.823.15a1.1 1.1 0 0 0-.49.406c-.107.17-.161.363-.161.578a.84.84 0 0 0 .106.418c.07.122.178.237.322.344.145.104.326.202.545.295.219.093.477.182.773.267.449.134.84.282 1.174.445.333.16.611.341.834.545.222.204.389.436.5.695.112.256.167.547.167.873 0 .341-.068.65-.205.924a2 2 0 0 1-.59.695 2.846 2.846 0 0 1-.912.44c-.352.1-.745.15-1.179.15a4.33 4.33 0 0 1-1.151-.156 3.397 3.397 0 0 1-1.024-.473 2.454 2.454 0 0 1-.734-.801 2.269 2.269 0 0 1-.272-1.129h1.396c0 .263.044.488.133.673.093.185.221.337.384.456.163.115.352.2.567.256.219.055.453.083.701.083.326 0 .599-.046.817-.139.223-.093.39-.222.501-.39a1.02 1.02 0 0 0 .167-.578Zm4.316.75 1.39-4.682h.856l-.233 1.401L440.451 30h-.767l.156-1.335Zm-.818-4.682 1.084 4.704.089 1.313h-.856l-1.63-6.017h1.313Zm4.366 4.649 1.051-4.65h1.307L444.122 30h-.857l.123-1.368Zm-1.157-4.65 1.374 4.628.172 1.39h-.767l-1.419-4.622-.233-1.395h.873Zm6.04 0V30h-1.346v-6.017h1.346Zm-1.435-1.579c0-.204.067-.372.2-.506.137-.137.326-.206.567-.206.238 0 .425.069.562.206a.677.677 0 0 1 .206.506.67.67 0 0 1-.206.5c-.137.134-.324.2-.562.2-.241 0-.43-.066-.567-.2a.68.68 0 0 1-.2-.5Zm5.839 1.58v.978h-3.392v-.978h3.392Zm-2.413-1.474h1.34v5.828c0 .186.026.328.078.428a.412.412 0 0 0 .228.195c.096.033.209.05.339.05a2.712 2.712 0 0 0 .473-.05l.005 1.023a3.42 3.42 0 0 1-.389.09 2.852 2.852 0 0 1-.5.038 1.96 1.96 0 0 1-.818-.161 1.202 1.202 0 0 1-.556-.54c-.134-.248-.2-.578-.2-.99v-5.91Zm6.084 6.534c.219 0 .415-.042.589-.127.178-.09.321-.212.429-.367.111-.156.172-.336.183-.54h1.263c-.008.39-.123.743-.345 1.062a2.396 2.396 0 0 1-.884.762 2.67 2.67 0 0 1-1.218.278c-.46 0-.861-.078-1.202-.233a2.383 2.383 0 0 1-.851-.657 2.892 2.892 0 0 1-.511-.962 3.945 3.945 0 0 1-.167-1.168v-.194c0-.415.055-.805.167-1.168.115-.367.285-.69.511-.968a2.33 2.33 0 0 1 .851-.65c.341-.16.74-.24 1.196-.24.482 0 .905.097 1.268.29.363.189.649.454.856.795.212.337.321.73.329 1.179h-1.263a1.344 1.344 0 0 0-.167-.6 1.097 1.097 0 0 0-.411-.435 1.176 1.176 0 0 0-.629-.16c-.27 0-.495.055-.673.166a1.122 1.122 0 0 0-.417.445c-.1.185-.172.395-.217.628-.04.23-.061.47-.061.718v.194c0 .249.021.49.061.723.041.234.112.443.212.629.104.181.244.328.422.44.178.107.405.16.679.16Zm4.994-7.585V30h-1.335v-8.542h1.335Zm-.234 5.31-.433-.005c.003-.415.061-.799.172-1.151a2.95 2.95 0 0 1 .478-.918 2.127 2.127 0 0 1 1.708-.823c.296 0 .563.041.801.123.241.081.448.213.622.395.175.178.306.411.395.7.093.286.139.634.139 1.046V30h-1.346v-3.876c0-.29-.042-.52-.127-.69a.746.746 0 0 0-.362-.367 1.32 1.32 0 0 0-.584-.117c-.241 0-.454.048-.639.145a1.328 1.328 0 0 0-.456.395c-.123.167-.216.36-.279.578a2.68 2.68 0 0 0-.089.7Z" class="Text"/>
    </g>
  </g>
  <defs>
    <clipPath id="b" class="b">
      <rect width="191.048" height="3.994" x="118.976" y="204.178" fill="#fff" rx="1.997"/>
    </clipPath>
    <clipPath id="c" class="c">
      <rect width="92.528" height="3.994" x="118.976" y="204.178" fill="#fff" rx="1.997"/>
    </clipPath>
  </defs>
</svg>
