<svg xmlns="http://www.w3.org/2000/svg" width="548" height="266" fill="none" viewBox="0 0 548 266">
  <g class="gauges">
    <g class="left-top"  style="transform-box: content-box;" transform-origin="left top">
      <animate xmlns="http://www.w3.org/2000/svg" attributeName="opacity" values="0;1" dur="1s" repeatCount="1" calcMode="spline" keyTimes="0;1" keySplines="0.5 0.35 0.15 1" additive="replace" fill="freeze"/>
      <animateTransform xmlns="http://www.w3.org/2000/svg" attributeName="transform" type="scale" values="0.5 0.5;1 1" dur="1s" repeatCount="1" calcMode="spline" keyTimes="0;1" keySplines="0.5 0.35 0.15 1" additive="sum" fill="freeze"/>
      <rect width="149" height="149" fill="#fff" rx="6"/>
      <rect width="148" height="148" x=".5" y=".5" stroke="#3E9AF8" stroke-opacity=".5" rx="5.5"/>
      <circle cx="74.5" cy="74.5" r="53.5" stroke="#ACCFE8" stroke-dasharray="2 2" stroke-width="20" class="Ellipse 2"/>
      <g class="Intersect" filter="url(#a)">
        <path fill="#2A7DEC" d="m136.25 59.67-19.44 4.65c-.1-.44-.22-.88-.34-1.32l19.28-5.26c.17.63.34 1.27.49 1.9v.03Zm-1.05-3.84-19.1 5.87-.43-1.3 18.9-6.47c.22.63.43 1.26.62 1.9Zm-2.03-5.63c.25.61.5 1.23.73 1.85l-18.7 7.07c-.15-.42-.32-.85-.5-1.27l18.47-7.65Zm-1.64-3.64.84 1.8-18.2 8.24-.59-1.23 17.95-8.8Zm-1.87-3.52c.33.58.65 1.16.96 1.75l-17.66 9.36-.66-1.2 17.36-9.91Zm-2.09-3.4c.37.55.73 1.12 1.07 1.68l-17.03 10.46c-.24-.39-.48-.77-.74-1.15l16.7-11Zm-2.29-3.27c.4.54.8 1.07 1.17 1.62l-16.35 11.5-.8-1.1 15.98-12.02Zm-2.49-3.11c.43.5.85 1.02 1.27 1.54l-15.6 12.51-.88-1.05 15.2-13Zm-2.27-2.52.95 1.02-14.8 13.47c-.3-.34-.61-.67-.93-1L120.1 30.3l.42.43Zm-3.28-3.21a66.27 66.27 0 0 1 1.45 1.37l-13.92 14.36-1-.94 13.47-14.79Zm-3.04-2.59 1.54 1.27-13 15.2c-.34-.3-.7-.58-1.05-.87l12.51-15.6Zm-3.19-2.39c.55.38 1.08.77 1.62 1.17L100.6 39.7l-1.1-.8L111 22.55Zm-3.33-2.19c.56.34 1.13.7 1.68 1.07l-10.99 16.7-1.15-.74 10.46-17.03Zm-3.47-1.98c.6.31 1.17.63 1.75.96L96.04 36.7l-1.2-.66 9.37-17.66Zm-3.58-1.75c.6.27 1.2.55 1.8.85l-8.8 17.94c-.4-.2-.82-.4-1.23-.58l8.23-18.21Zm-3.68-1.53c.62.23 1.24.48 1.85.73L91.15 34.3l-1.27-.5 7.07-18.69Zm-3.78-1.3c.64.2 1.27.4 1.9.62L88.6 33.33c-.43-.15-.86-.29-1.3-.42l5.87-19.1Zm-3.84-1.04c.64.15 1.29.32 1.93.5L86 32.52l-1.32-.34 4.65-19.43Zm-3.91-.81a45 45 0 0 1 1.96.37L83.34 31.9c-.44-.1-.88-.18-1.33-.26l3.41-19.7Zm-3.95-.57 1.98.25-2.8 19.8-1.35-.17 2.17-19.88Zm-3.97-.31c.66.03 1.32.07 1.99.13l-1.55 19.93a43.8 43.8 0 0 0-1.37-.08l.92-19.98ZM74.93 11a72.37 72.37 0 0 1 .57 0l-.3 20a45.52 45.52 0 0 0-1.4 0l-.3-20a62.2 62.2 0 0 1 1.43 0Z"/>
      </g>
      <path fill="#2A7DEC" d="m70.37 87.73-3.03-2.88v-6.89l3.03-2.74v12.51Zm-11-11.5a80.35 80.35 0 0 0-2-1.55l2-1.48H67l1.96 1.48L67 76.22h-7.65Zm-3.34-2v-12.5l3.03 2.72v6.94l-3.03 2.86Zm14.25-12.51v12.52l-3.02-2.72V64.6l3.02-2.88Zm9.14 27.24 2.88-3.02h6.92l2.72 3.02H79.42Zm-.84-13.74 3.02 2.9V85l-3.02 2.74V75.22Zm14.25 12.51-3.02-2.88v-6.89l3.02-2.74v12.51ZM79.4 60.52h12.52l-2.77 3.02h-6.86l-2.89-3.02Zm-.9 13.72V61.72l3.03 2.72v6.94l-3.02 2.86Zm14.26-12.52v12.52l-3.03-2.72V64.6l3.03-2.88Z" class="40"/>
    </g>
    <g class="left-bottom" style="transform-box: content-box;" transform-origin="left bottom">
      <animate xmlns="http://www.w3.org/2000/svg" attributeName="opacity" values="0;1" dur="1s" repeatCount="1" calcMode="spline" keyTimes="0;1" keySplines="0.5 0.35 0.15 1" additive="replace" fill="freeze"/>
      <animateTransform xmlns="http://www.w3.org/2000/svg" attributeName="transform" type="scale" values="0.5 0.5;1 1" dur="1s" repeatCount="1" calcMode="spline" keyTimes="0;1" keySplines="0.5 0.35 0.15 1" additive="sum" fill="freeze"/>
      <rect width="180" height="149" x="95" y="110" fill="#fff" rx="6"/>
      <rect width="179" height="148" x="95.5" y="110.5" stroke="#3E9AF8" stroke-opacity=".5" rx="5.5"/>
      <path fill="#2A7DEC" d="m164.51 178.68 2.89-3.02h6.91l2.72 3.02H164.5Zm-.84-13.75 3.03 2.92v6.86l-3.03 2.74v-12.51Zm3.25 1.01a80.94 80.94 0 0 0-1.99-1.54l1.99-1.48h7.64l1.96 1.48-1.96 1.54h-7.64Zm-2.44-15.7H177l-2.77 3.02h-6.86l-2.89-3.02Zm13.36 1.2v12.52l-3.03-2.72v-6.92l3.03-2.88Zm22.55 26.01-3.03-2.88v-6.9l3.03-2.73v12.51Zm-11-11.5a79.08 79.08 0 0 0-2-1.55l2-1.48h7.64l1.96 1.48-1.96 1.54h-7.65Zm-3.34-2v-12.51l3.02 2.72v6.94l-3.02 2.86Zm14.25-12.51v12.52l-3.02-2.72v-6.92l3.02-2.88Z" class="24"/>
      <path fill="#2A7DEC" d="m234.75 219.9-1.08-1.02v-2.46l1.08-.98v4.47Zm-.03-9.28v4.47l-1.08-.97v-2.47l1.08-1.03Zm3.49 9.73 1.03-1.08h2.47l.97 1.08h-4.47Zm-.3-4.91 1.08 1.04v2.45l-1.08.98v-4.47Zm5.09 4.47-1.08-1.03v-2.46l1.08-.98v4.47Zm-4.8-9.72h4.47l-1 1.08h-2.44l-1.03-1.08Zm-.32 4.9v-4.47l1.08.97v2.48l-1.08 1.02Zm5.09-4.47v4.47l-1.08-.97v-2.47l1.08-1.03Zm3.48 9.73 1.03-1.08h2.47l.97 1.08h-4.47Zm-.3-4.91 1.08 1.04v2.45l-1.08.98v-4.47Zm5.1 4.47-1.09-1.03v-2.46l1.08-.98v4.47Zm-4.8-9.72h4.46l-.99 1.08h-2.45l-1.03-1.08Zm-.33 4.9v-4.47l1.08.97v2.48l-1.08 1.02Zm5.1-4.47v4.47l-1.09-.97v-2.47l1.08-1.03Z" class="100"/>
      <path fill="#2A7DEC" d="m116.58 220.41 1.03-1.08h2.47l.97 1.08h-4.47Zm-.3-4.9 1.08 1.03V219l-1.08.98v-4.47Zm5.1 4.46-1.09-1.03v-2.46l1.08-.98v4.47Zm-4.8-9.72h4.46l-.99 1.08h-2.45l-1.03-1.08Zm-.33 4.9v-4.47l1.08.97v2.48l-1.08 1.02Zm5.1-4.47v4.47l-1.09-.97v-2.47l1.08-1.03Z" class="0"/>
      <path fill="#ACCFE8" d="M118.92 183.72h2v20h-2v-20Zm3 0h2v20h-2v-20Zm3 0h2v20h-2v-20Zm3 0h2v20h-2v-20Zm3 0h2v20h-2v-20Zm3 0h2v20h-2v-20Zm3 0h2v20h-2v-20Zm3 0h2v20h-2v-20Zm3 0h2v20h-2v-20Zm3 0h2v20h-2v-20Zm3 0h2v20h-2v-20Zm3 0h2v20h-2v-20Zm3 0h2v20h-2v-20Zm3 0h2v20h-2v-20Zm3 0h2v20h-2v-20Zm3 0h2v20h-2v-20Zm3 0h2v20h-2v-20Zm3 0h2v20h-2v-20Zm3 0h2v20h-2v-20Zm3 0h2v20h-2v-20Zm3 0h2v20h-2v-20Zm3 0h2v20h-2v-20Zm3 0h2v20h-2v-20Zm3 0h2v20h-2v-20Zm3 0h2v20h-2v-20Zm3 0h2v20h-2v-20Zm3 0h2v20h-2v-20Zm3 0h2v20h-2v-20Zm3 0h2v20h-2v-20Zm3 0h2v20h-2v-20Zm3 0h2v20h-2v-20Zm3 0h2v20h-2v-20Zm3 0h2v20h-2v-20Zm3 0h2v20h-2v-20Zm3 0h2v20h-2v-20Zm3 0h2v20h-2v-20Zm3 0h2v20h-2v-20Zm3 0h2v20h-2v-20Zm3 0h2v20h-2v-20Zm3 0h2v20h-2v-20Zm3 0h2v20h-2v-20Zm3 0h2v20h-2v-20Z" class="Vector"/>
      <path fill="#2A7DEC" d="M118.92 183.72h2v20h-2v-20Zm3 0h2v20h-2v-20Zm3 0h2v20h-2v-20Zm3 0h2v20h-2v-20Zm3 0h2v20h-2v-20Zm3 0h2v20h-2v-20Zm3 0h2v20h-2v-20Zm3 0h2v20h-2v-20Zm3 0h2v20h-2v-20Zm3 0h2v20h-2v-20Z" class="Vector"/>
    </g>
    <g class="right-top" style="transform-box: content-box;" transform-origin="right top">
      <animate xmlns="http://www.w3.org/2000/svg" attributeName="opacity" values="0;1" dur="1s" repeatCount="1" calcMode="spline" keyTimes="0;1" keySplines="0.5 0.35 0.15 1" additive="replace" fill="freeze"/>
      <animateTransform xmlns="http://www.w3.org/2000/svg" attributeName="transform" type="scale" values="0.5 0.5;1 1" dur="1s" repeatCount="1" calcMode="spline" keyTimes="0;1" keySplines="0.5 0.35 0.15 1" additive="sum" fill="freeze"/>
      <rect width="197" height="197" x="234" y="7" fill="#fff" rx="6"/>
      <rect width="198" height="198" x="233.5" y="6.5" stroke="#3E9AF8" stroke-opacity=".5" rx="6.5"/>
      <path fill="#000" fill-opacity=".06" d="M396 127.5a63.5 63.5 0 1 0-127 0h20a43.5 43.5 0 0 1 87 0h20Z" class="bg"/>
      <path fill="#08872B" d="M287.6 82.6a63.5 63.5 0 0 0-18.6 44.9h20a43.5 43.5 0 0 1 12.74-30.76L287.6 82.6Z" class="bg"/>
      <path fill="#000" fill-opacity=".54" d="M331.85 124.88v2.62H318.5v-2.26l6.48-7.06c.71-.8 1.28-1.5 1.69-2.08.4-.59.7-1.11.86-1.57a4 4 0 0 0-.1-3.04 2.6 2.6 0 0 0-1.01-1.13 2.99 2.99 0 0 0-1.63-.43 3.4 3.4 0 0 0-1.86.48c-.5.32-.88.76-1.13 1.33a4.43 4.43 0 0 0-.38 1.91h-3.3c0-1.16.26-2.21.8-3.17a5.8 5.8 0 0 1 2.3-2.3c1-.57 2.2-.86 3.61-.86a7.8 7.8 0 0 1 3.4.67 4.8 4.8 0 0 1 2.11 1.9c.5.82.74 1.8.74 2.91 0 .62-.1 1.24-.3 1.85-.2.6-.49 1.22-.86 1.83-.37.6-.8 1.2-1.3 1.82-.5.6-1.05 1.21-1.65 1.83l-4.31 4.75h9.19Zm16.35-4.48v2.63h-14.35l-.11-1.98 8.58-13.46h2.64l-2.86 4.9-4.93 7.91h11.03Zm-2.49-12.8v19.9h-3.3v-19.9h3.3Z" class="24"/>
      <path fill="#08872B" d="M379.92 136.14V144h-1v-6.62l-2 .73v-.9l2.84-1.07h.16Zm8.08 3.33v1.19c0 .64-.06 1.18-.18 1.62-.11.44-.27.8-.49 1.06a1.8 1.8 0 0 1-.78.59 2.93 2.93 0 0 1-1.85.06 2 2 0 0 1-.69-.36 2.2 2.2 0 0 1-.51-.65c-.15-.27-.26-.6-.33-.98a7.06 7.06 0 0 1-.12-1.34v-1.2c0-.63.06-1.17.18-1.6.12-.44.28-.79.5-1.05.21-.26.47-.45.77-.57a2.95 2.95 0 0 1 1.86-.05 1.9 1.9 0 0 1 1.2.98c.14.26.25.58.32.96.08.38.12.83.12 1.34Zm-1 1.35v-1.52a5 5 0 0 0-.24-1.62 1.36 1.36 0 0 0-.3-.45c-.12-.12-.26-.2-.42-.26a1.5 1.5 0 0 0-.52-.09c-.24 0-.44.05-.63.14-.18.08-.33.22-.46.41-.12.2-.22.44-.28.75-.06.3-.1.68-.1 1.12v1.52c0 .35.02.66.06.93.05.27.1.5.2.7.07.2.17.35.3.48.11.12.25.21.4.28.16.05.33.08.52.08.25 0 .46-.05.64-.14.18-.1.33-.24.46-.43.12-.2.22-.46.28-.77.06-.32.09-.7.09-1.13Zm7.43-1.35v1.19c0 .64-.05 1.18-.17 1.62-.11.44-.28.8-.5 1.06-.2.27-.47.47-.77.59a2.93 2.93 0 0 1-1.85.06 2 2 0 0 1-.7-.36c-.2-.16-.36-.38-.5-.65-.15-.27-.26-.6-.33-.98a7.07 7.07 0 0 1-.12-1.34v-1.2c0-.63.06-1.17.18-1.6.11-.44.28-.79.5-1.05.2-.26.47-.45.77-.57a2.95 2.95 0 0 1 1.86-.05 1.9 1.9 0 0 1 1.2.98c.14.26.25.58.32.96.08.38.11.83.11 1.34Zm-1 1.35v-1.52c0-.35-.02-.66-.06-.92a3.1 3.1 0 0 0-.18-.7 1.35 1.35 0 0 0-.3-.45 1.1 1.1 0 0 0-.41-.26 1.5 1.5 0 0 0-.52-.09c-.24 0-.45.05-.63.14-.18.08-.34.22-.46.41-.12.2-.22.44-.28.75-.07.3-.1.68-.1 1.12v1.52c0 .35.02.66.06.93.04.27.1.5.19.7.08.2.18.35.3.48.12.12.25.21.4.28.17.05.34.08.53.08.24 0 .45-.05.64-.14.18-.1.33-.24.45-.43.13-.2.22-.46.28-.77.06-.32.1-.7.1-1.13Z" class="100"/>
      <path fill="#08872B" d="M280.56 139.47v1.19c0 .64-.06 1.18-.17 1.62-.12.44-.28.8-.5 1.06a1.8 1.8 0 0 1-.78.59 2.93 2.93 0 0 1-1.85.06 2 2 0 0 1-.69-.36c-.2-.16-.37-.38-.51-.65s-.25-.6-.33-.98a7.07 7.07 0 0 1-.11-1.34v-1.2c0-.63.06-1.17.17-1.6.12-.44.28-.79.5-1.05.21-.26.47-.45.77-.57a2.99 2.99 0 0 1 1.86-.05 1.9 1.9 0 0 1 1.2.98c.14.26.25.58.33.96.07.38.1.83.1 1.34Zm-1 1.35v-1.52c0-.35-.02-.66-.06-.92a3.1 3.1 0 0 0-.18-.7 1.35 1.35 0 0 0-.3-.45c-.12-.12-.26-.2-.42-.26a1.5 1.5 0 0 0-.52-.09c-.23 0-.44.05-.63.14-.18.08-.33.22-.46.41-.12.2-.21.44-.28.75-.06.3-.1.68-.1 1.12v1.52c0 .35.03.66.07.93.04.27.1.5.18.7.09.2.19.35.3.48.12.12.26.21.41.28.16.05.33.08.52.08.25 0 .46-.05.64-.14.19-.1.34-.24.46-.43.13-.2.22-.46.28-.77.06-.32.09-.7.09-1.13Z" class="0"/>
    </g>
    <g class="right-bottom" style="transform-box: content-box;" transform-origin="right bottom">
      <animate xmlns="http://www.w3.org/2000/svg" attributeName="opacity" values="0;1" dur="1s" repeatCount="1" calcMode="spline" keyTimes="0;1" keySplines="0.5 0.35 0.15 1" additive="replace" fill="freeze"/>
      <animateTransform xmlns="http://www.w3.org/2000/svg" attributeName="transform" type="scale" values="0.5 0.5;1 1" dur="1s" repeatCount="1" calcMode="spline" keyTimes="0;1" keySplines="0.5 0.35 0.15 1" additive="sum" fill="freeze"/>
      <rect width="149" height="201" x="399" y="65" fill="#fff" rx="6"/>
      <rect width="148" height="200" x="399.5" y="65.5" stroke="#3E9AF8" stroke-opacity=".5" rx="5.5"/>
      <path fill="#000" fill-opacity=".54" d="M472.85 116.38V119H459.5v-2.26l6.48-7.06c.71-.8 1.28-1.5 1.69-2.08.4-.59.7-1.11.86-1.57a4 4 0 0 0-.1-3.04 2.6 2.6 0 0 0-1.01-1.13 2.99 2.99 0 0 0-1.63-.43 3.4 3.4 0 0 0-1.86.48c-.5.32-.88.76-1.13 1.33a4.43 4.43 0 0 0-.38 1.91h-3.3c0-1.16.26-2.21.8-3.17a5.8 5.8 0 0 1 2.3-2.3c1-.57 2.2-.86 3.61-.86 1.34 0 2.47.22 3.4.67a4.8 4.8 0 0 1 2.11 1.9c.5.82.74 1.8.74 2.91 0 .62-.1 1.24-.3 1.85-.2.6-.49 1.22-.86 1.83-.37.6-.8 1.2-1.3 1.82-.5.6-1.05 1.21-1.65 1.83l-4.31 4.75h9.19Zm16.35-4.48v2.63h-14.35l-.11-1.98 8.58-13.46h2.64l-2.86 4.9-4.93 7.91h11.03Zm-2.49-12.8V119h-3.3V99.1h3.3Z" class="24"/>
      <path fill="#08872B" d="M491.92 123.14V131h-1v-6.62l-2 .73v-.9l2.84-1.07h.16Zm8.08 3.33v1.19c0 .64-.06 1.18-.18 1.62-.11.44-.27.8-.49 1.06a1.8 1.8 0 0 1-.78.59 2.93 2.93 0 0 1-1.85.06 2 2 0 0 1-.69-.36 2.2 2.2 0 0 1-.51-.65c-.15-.27-.26-.6-.33-.98a7.06 7.06 0 0 1-.12-1.34v-1.2c0-.63.06-1.17.18-1.6.12-.44.28-.78.5-1.05.21-.26.47-.45.77-.57a2.95 2.95 0 0 1 1.86-.05 1.9 1.9 0 0 1 1.2.98c.14.26.25.58.32.96.08.38.12.83.12 1.34Zm-1 1.35v-1.52a5 5 0 0 0-.24-1.62 1.36 1.36 0 0 0-.3-.45c-.12-.12-.26-.2-.42-.26a1.5 1.5 0 0 0-.52-.09c-.24 0-.44.05-.63.14-.18.08-.33.22-.46.41-.12.2-.22.44-.28.75-.06.3-.1.68-.1 1.12v1.52c0 .35.02.66.06.93.05.27.1.5.2.7.07.2.17.35.3.48.11.12.25.21.4.28.16.05.33.08.52.08.25 0 .46-.05.64-.14.18-.1.33-.24.46-.43.12-.2.22-.46.28-.77.06-.32.09-.7.09-1.13Zm7.43-1.35v1.19c0 .64-.05 1.18-.17 1.62-.11.44-.28.8-.5 1.06-.2.27-.47.47-.77.59a2.93 2.93 0 0 1-1.85.06 2 2 0 0 1-.7-.36c-.2-.16-.36-.38-.5-.65-.15-.27-.26-.6-.33-.98a7.07 7.07 0 0 1-.12-1.34v-1.2c0-.63.06-1.17.18-1.6.11-.44.28-.78.5-1.05.2-.26.47-.45.77-.57a2.95 2.95 0 0 1 1.86-.05 1.9 1.9 0 0 1 1.2.98c.14.26.25.58.32.96.08.38.11.83.11 1.34Zm-1 1.35v-1.52c0-.35-.02-.66-.06-.92a3.1 3.1 0 0 0-.18-.7 1.35 1.35 0 0 0-.3-.45 1.1 1.1 0 0 0-.41-.26 1.5 1.5 0 0 0-.52-.09c-.24 0-.45.05-.63.14-.18.08-.34.22-.46.41-.12.2-.22.44-.28.75-.07.3-.1.68-.1 1.12v1.52c0 .35.02.66.06.93.04.27.1.5.19.7.08.2.18.35.3.48.12.12.25.21.4.28.17.05.34.08.53.08.24 0 .45-.05.64-.14.18-.1.33-.24.45-.43.13-.2.22-.46.28-.77.06-.32.1-.7.1-1.13Z" class="100"/>
      <path fill="#08872B" d="M493.56 220.47v1.19c0 .64-.06 1.18-.17 1.62-.12.44-.28.8-.5 1.06a1.8 1.8 0 0 1-.78.59 2.93 2.93 0 0 1-1.85.06 2 2 0 0 1-.69-.36c-.2-.16-.37-.38-.51-.65s-.25-.6-.33-.98a7.07 7.07 0 0 1-.11-1.34v-1.2c0-.63.06-1.17.17-1.6.12-.44.28-.79.5-1.05.21-.26.47-.45.77-.57a2.99 2.99 0 0 1 1.86-.05 1.9 1.9 0 0 1 1.2.98c.14.26.25.58.33.96.07.38.1.83.1 1.34Zm-1 1.35v-1.52c0-.35-.02-.66-.06-.92a3.1 3.1 0 0 0-.18-.7 1.35 1.35 0 0 0-.3-.45c-.12-.12-.26-.2-.42-.26a1.5 1.5 0 0 0-.52-.09c-.23 0-.44.05-.63.14-.18.08-.33.22-.46.41-.12.2-.21.44-.28.75-.06.3-.1.68-.1 1.12v1.52c0 .35.03.66.07.93.04.27.1.5.18.7.09.2.19.35.3.48.12.12.26.21.41.28.16.05.33.08.52.08.25 0 .46-.05.64-.14.19-.1.34-.24.46-.43.13-.2.22-.46.28-.77.06-.32.09-.7.09-1.13Z" class="0"/>
      <rect width="101" height="20" x="464" y="228" fill="#000" fill-opacity=".06" class="Rectangle 2396" transform="rotate(-90 464 228)"/>
      <rect width="28" height="20" x="464" y="228" fill="#08872B" class="Rectangle 2397" transform="rotate(-90 464 228)"/>
    </g>
  </g>
  <defs>
    <filter id="a" width="78.75" height="69.32" x="65.5" y="3" class="a" color-interpolation-filters="sRGB" filterUnits="userSpaceOnUse">
      <feFlood flood-opacity="0" result="BackgroundImageFix"/>
      <feColorMatrix in="SourceAlpha" result="hardAlpha" values="0 0 0 0 0 0 0 0 0 0 0 0 0 0 0 0 0 0 127 0"/>
      <feOffset/>
      <feGaussianBlur stdDeviation="4"/>
      <feComposite in2="hardAlpha" operator="out"/>
      <feColorMatrix values="0 0 0 0 0.827451 0 0 0 0 1 0 0 0 0 1 0 0 0 1 0"/>
      <feBlend in2="BackgroundImageFix" mode="hard-light" result="effect1_dropShadow_10115_56209"/>
      <feBlend in="SourceGraphic" in2="effect1_dropShadow_10115_56209" result="shape"/>
    </filter>
  </defs>
</svg>
