<svg width="212" height="160" viewBox="0 0 212 160" fill="none" xmlns="http://www.w3.org/2000/svg">
<g filter="url(#filter0_d_4986_41367)">
<rect x="6" y="52" width="200" height="56" rx="4" fill="white"/>
<g filter="url(#filter1_b_4986_41367)">
<rect x="18" y="64" width="176" height="32" rx="4" fill="white" fill-opacity="0.76"/>
</g>
<path d="M56.5 81V73C56.5 71.34 55.16 70 53.5 70C51.84 70 50.5 71.34 50.5 73V81C49.29 81.91 48.5 83.37 48.5 85C48.5 87.76 50.74 90 53.5 90C56.26 90 58.5 87.76 58.5 85C58.5 83.37 57.71 81.91 56.5 81ZM52.5 73C52.5 72.45 52.95 72 53.5 72C54.05 72 54.5 72.45 54.5 73H53.5V74H54.5V76H53.5V77H54.5V79H52.5V73Z" fill="#00695C"/>
<path d="M78.6064 75.0469V85H76.9043V75.0469H78.6064ZM81.7305 75.0469V76.4141H73.8076V75.0469H81.7305ZM84.7559 74.5V85H83.1152V74.5H84.7559ZM84.4688 81.0283L83.9355 81.0215C83.9401 80.5111 84.0107 80.0394 84.1475 79.6064C84.2887 79.1735 84.4847 78.7975 84.7354 78.4785C84.9906 78.1549 85.2959 77.9066 85.6514 77.7334C86.0068 77.5557 86.401 77.4668 86.834 77.4668C87.1986 77.4668 87.5267 77.5169 87.8184 77.6172C88.1146 77.7174 88.3698 77.8792 88.584 78.1025C88.7982 78.3213 88.96 78.6084 89.0693 78.9639C89.1833 79.3148 89.2402 79.7432 89.2402 80.249V85H87.5859V80.2354C87.5859 79.8799 87.5335 79.5973 87.4287 79.3877C87.3285 79.1781 87.1803 79.0277 86.9844 78.9365C86.7884 78.8408 86.5492 78.793 86.2666 78.793C85.9704 78.793 85.7083 78.8522 85.4805 78.9707C85.2572 79.0892 85.0703 79.251 84.9199 79.4561C84.7695 79.6611 84.6556 79.8981 84.5781 80.167C84.5052 80.4359 84.4688 80.723 84.4688 81.0283ZM94.4189 85.1367C93.8721 85.1367 93.3776 85.0479 92.9355 84.8701C92.498 84.6878 92.1243 84.4349 91.8145 84.1113C91.5091 83.7878 91.2744 83.4072 91.1104 82.9697C90.9463 82.5322 90.8643 82.0605 90.8643 81.5547V81.2812C90.8643 80.7025 90.9486 80.1784 91.1172 79.709C91.2858 79.2396 91.5205 78.8385 91.8213 78.5059C92.1221 78.1686 92.4775 77.9111 92.8877 77.7334C93.2979 77.5557 93.7422 77.4668 94.2207 77.4668C94.7493 77.4668 95.2119 77.5557 95.6084 77.7334C96.0049 77.9111 96.333 78.1618 96.5928 78.4854C96.8571 78.8044 97.0531 79.1849 97.1807 79.627C97.3128 80.069 97.3789 80.5566 97.3789 81.0898V81.7939H91.6641V80.6113H95.752V80.4814C95.7428 80.1852 95.6836 79.9072 95.5742 79.6475C95.4694 79.3877 95.3076 79.1781 95.0889 79.0186C94.8701 78.859 94.5785 78.7793 94.2139 78.7793C93.9404 78.7793 93.6966 78.8385 93.4824 78.957C93.2728 79.071 93.0973 79.2373 92.9561 79.4561C92.8148 79.6748 92.7054 79.9391 92.6279 80.249C92.555 80.5544 92.5186 80.8984 92.5186 81.2812V81.5547C92.5186 81.8783 92.5618 82.179 92.6484 82.457C92.7396 82.7305 92.8717 82.9697 93.0449 83.1748C93.2181 83.3799 93.4277 83.5417 93.6738 83.6602C93.9199 83.7741 94.2002 83.8311 94.5146 83.8311C94.9111 83.8311 95.2643 83.7513 95.5742 83.5918C95.8841 83.4323 96.153 83.2067 96.3809 82.915L97.249 83.7559C97.0895 83.9883 96.8822 84.2116 96.627 84.4258C96.3717 84.6354 96.0596 84.8063 95.6904 84.9385C95.3258 85.0706 94.902 85.1367 94.4189 85.1367ZM100.568 79.0117V85H98.9209V77.6035H100.493L100.568 79.0117ZM102.831 77.5557L102.817 79.0869C102.717 79.0687 102.608 79.055 102.489 79.0459C102.375 79.0368 102.261 79.0322 102.147 79.0322C101.865 79.0322 101.617 79.0732 101.402 79.1553C101.188 79.2327 101.008 79.3467 100.862 79.4971C100.721 79.6429 100.612 79.8206 100.534 80.0303C100.457 80.2399 100.411 80.4746 100.397 80.7344L100.021 80.7617C100.021 80.2969 100.067 79.8662 100.158 79.4697C100.249 79.0732 100.386 78.7246 100.568 78.4238C100.755 78.123 100.988 77.8883 101.266 77.7197C101.548 77.5511 101.874 77.4668 102.243 77.4668C102.343 77.4668 102.451 77.4759 102.564 77.4941C102.683 77.5124 102.772 77.5329 102.831 77.5557ZM105.761 79.1074V85H104.113V77.6035H105.665L105.761 79.1074ZM105.494 81.0283L104.934 81.0215C104.934 80.5111 104.997 80.0394 105.125 79.6064C105.253 79.1735 105.439 78.7975 105.686 78.4785C105.932 78.1549 106.237 77.9066 106.602 77.7334C106.971 77.5557 107.397 77.4668 107.88 77.4668C108.217 77.4668 108.525 77.5169 108.803 77.6172C109.085 77.7129 109.329 77.8656 109.534 78.0752C109.744 78.2848 109.903 78.5537 110.013 78.8818C110.127 79.21 110.184 79.6064 110.184 80.0713V85H108.536V80.2148C108.536 79.8548 108.481 79.5723 108.372 79.3672C108.267 79.1621 108.115 79.0163 107.914 78.9297C107.718 78.8385 107.483 78.793 107.21 78.793C106.9 78.793 106.636 78.8522 106.417 78.9707C106.203 79.0892 106.027 79.251 105.891 79.4561C105.754 79.6611 105.654 79.8981 105.59 80.167C105.526 80.4359 105.494 80.723 105.494 81.0283ZM110.081 80.5908L109.309 80.7617C109.309 80.3151 109.37 79.8936 109.493 79.4971C109.621 79.096 109.805 78.7451 110.047 78.4443C110.293 78.139 110.596 77.8997 110.956 77.7266C111.316 77.5534 111.729 77.4668 112.193 77.4668C112.572 77.4668 112.909 77.5192 113.205 77.624C113.506 77.7243 113.761 77.8838 113.971 78.1025C114.18 78.3213 114.34 78.6061 114.449 78.957C114.559 79.3034 114.613 79.7227 114.613 80.2148V85H112.959V80.208C112.959 79.8343 112.904 79.5449 112.795 79.3398C112.69 79.1348 112.54 78.9935 112.344 78.916C112.148 78.834 111.913 78.793 111.64 78.793C111.384 78.793 111.159 78.8408 110.963 78.9365C110.771 79.0277 110.61 79.1576 110.478 79.3262C110.345 79.4902 110.245 79.6794 110.177 79.8936C110.113 80.1077 110.081 80.3402 110.081 80.5908ZM116.244 81.3838V81.2266C116.244 80.6934 116.322 80.1989 116.477 79.7432C116.632 79.2829 116.855 78.8841 117.146 78.5469C117.443 78.2051 117.803 77.9408 118.227 77.7539C118.655 77.5625 119.138 77.4668 119.676 77.4668C120.218 77.4668 120.701 77.5625 121.125 77.7539C121.553 77.9408 121.916 78.2051 122.212 78.5469C122.508 78.8841 122.734 79.2829 122.889 79.7432C123.044 80.1989 123.121 80.6934 123.121 81.2266V81.3838C123.121 81.917 123.044 82.4115 122.889 82.8672C122.734 83.3229 122.508 83.7217 122.212 84.0635C121.916 84.4007 121.556 84.665 121.132 84.8564C120.708 85.0433 120.227 85.1367 119.689 85.1367C119.147 85.1367 118.662 85.0433 118.233 84.8564C117.81 84.665 117.45 84.4007 117.153 84.0635C116.857 83.7217 116.632 83.3229 116.477 82.8672C116.322 82.4115 116.244 81.917 116.244 81.3838ZM117.892 81.2266V81.3838C117.892 81.7165 117.926 82.0309 117.994 82.3271C118.062 82.6234 118.17 82.8831 118.315 83.1064C118.461 83.3298 118.648 83.5052 118.876 83.6328C119.104 83.7604 119.375 83.8242 119.689 83.8242C119.995 83.8242 120.259 83.7604 120.482 83.6328C120.71 83.5052 120.897 83.3298 121.043 83.1064C121.189 82.8831 121.296 82.6234 121.364 82.3271C121.437 82.0309 121.474 81.7165 121.474 81.3838V81.2266C121.474 80.8984 121.437 80.5885 121.364 80.2969C121.296 80.0007 121.187 79.7386 121.036 79.5107C120.89 79.2829 120.703 79.1051 120.476 78.9775C120.252 78.8454 119.986 78.7793 119.676 78.7793C119.366 78.7793 119.097 78.8454 118.869 78.9775C118.646 79.1051 118.461 79.2829 118.315 79.5107C118.17 79.7386 118.062 80.0007 117.994 80.2969C117.926 80.5885 117.892 80.8984 117.892 81.2266ZM128.901 82.9971C128.901 82.833 128.86 82.6849 128.778 82.5527C128.696 82.416 128.539 82.293 128.307 82.1836C128.079 82.0742 127.742 81.974 127.295 81.8828C126.903 81.7962 126.543 81.6937 126.215 81.5752C125.891 81.4521 125.613 81.304 125.381 81.1309C125.148 80.9577 124.968 80.7526 124.841 80.5156C124.713 80.2786 124.649 80.0052 124.649 79.6953C124.649 79.3945 124.715 79.1097 124.848 78.8408C124.98 78.5719 125.169 78.335 125.415 78.1299C125.661 77.9248 125.96 77.763 126.311 77.6445C126.666 77.526 127.062 77.4668 127.5 77.4668C128.12 77.4668 128.651 77.5716 129.093 77.7812C129.539 77.9863 129.881 78.2666 130.118 78.6221C130.355 78.973 130.474 79.3695 130.474 79.8115H128.826C128.826 79.6156 128.776 79.4333 128.676 79.2646C128.58 79.0915 128.434 78.9525 128.238 78.8477C128.042 78.7383 127.796 78.6836 127.5 78.6836C127.217 78.6836 126.983 78.7292 126.796 78.8203C126.614 78.9069 126.477 79.0208 126.386 79.1621C126.299 79.3034 126.256 79.4583 126.256 79.627C126.256 79.75 126.279 79.8617 126.324 79.9619C126.374 80.0576 126.456 80.1465 126.57 80.2285C126.684 80.306 126.839 80.3789 127.035 80.4473C127.236 80.5156 127.486 80.5817 127.787 80.6455C128.352 80.764 128.838 80.9167 129.243 81.1035C129.653 81.2858 129.968 81.5228 130.187 81.8145C130.405 82.1016 130.515 82.4661 130.515 82.9082C130.515 83.2363 130.444 83.5371 130.303 83.8105C130.166 84.0794 129.965 84.3141 129.701 84.5146C129.437 84.7106 129.12 84.8633 128.751 84.9727C128.386 85.082 127.976 85.1367 127.521 85.1367C126.851 85.1367 126.283 85.0182 125.818 84.7812C125.354 84.5397 125 84.2321 124.759 83.8584C124.522 83.4801 124.403 83.0882 124.403 82.6826H125.996C126.014 82.988 126.099 83.2318 126.249 83.4141C126.404 83.5918 126.595 83.7217 126.823 83.8037C127.056 83.8812 127.295 83.9199 127.541 83.9199C127.837 83.9199 128.086 83.8812 128.286 83.8037C128.487 83.7217 128.639 83.6123 128.744 83.4756C128.849 83.3343 128.901 83.1748 128.901 82.9971ZM135.598 77.6035V78.8066H131.428V77.6035H135.598ZM132.631 75.792H134.278V82.9561C134.278 83.1839 134.31 83.3594 134.374 83.4824C134.442 83.6009 134.536 83.6807 134.654 83.7217C134.773 83.7627 134.912 83.7832 135.071 83.7832C135.185 83.7832 135.295 83.7764 135.399 83.7627C135.504 83.749 135.589 83.7354 135.652 83.7217L135.659 84.9795C135.522 85.0205 135.363 85.057 135.181 85.0889C135.003 85.1208 134.798 85.1367 134.565 85.1367C134.187 85.1367 133.852 85.0706 133.561 84.9385C133.269 84.8018 133.041 84.5807 132.877 84.2754C132.713 83.9701 132.631 83.5645 132.631 83.0586V75.792ZM141.289 83.5166V79.9893C141.289 79.7249 141.241 79.4971 141.146 79.3057C141.05 79.1143 140.904 78.9661 140.708 78.8613C140.517 78.7565 140.275 78.7041 139.983 78.7041C139.715 78.7041 139.482 78.7497 139.286 78.8408C139.09 78.932 138.938 79.055 138.828 79.21C138.719 79.3649 138.664 79.5404 138.664 79.7363H137.023C137.023 79.4447 137.094 79.1621 137.235 78.8887C137.377 78.6152 137.582 78.3714 137.851 78.1572C138.119 77.943 138.441 77.7744 138.814 77.6514C139.188 77.5283 139.607 77.4668 140.072 77.4668C140.628 77.4668 141.12 77.5602 141.549 77.7471C141.982 77.9339 142.321 78.2165 142.567 78.5947C142.818 78.9684 142.943 79.4378 142.943 80.0029V83.291C142.943 83.6283 142.966 83.9313 143.012 84.2002C143.062 84.4645 143.132 84.6947 143.224 84.8906V85H141.535C141.458 84.8223 141.396 84.5967 141.351 84.3232C141.31 84.0452 141.289 83.7764 141.289 83.5166ZM141.528 80.502L141.542 81.5205H140.359C140.054 81.5205 139.785 81.5501 139.553 81.6094C139.32 81.6641 139.127 81.7461 138.972 81.8555C138.817 81.9648 138.701 82.097 138.623 82.252C138.546 82.4069 138.507 82.5824 138.507 82.7783C138.507 82.9743 138.552 83.1543 138.644 83.3184C138.735 83.4779 138.867 83.6032 139.04 83.6943C139.218 83.7855 139.432 83.8311 139.683 83.8311C140.02 83.8311 140.314 83.7627 140.564 83.626C140.82 83.4847 141.02 83.3138 141.166 83.1133C141.312 82.9082 141.389 82.7145 141.398 82.5322L141.932 83.2637C141.877 83.4505 141.784 83.651 141.651 83.8652C141.519 84.0794 141.346 84.2845 141.132 84.4805C140.922 84.6719 140.669 84.8291 140.373 84.9521C140.081 85.0752 139.744 85.1367 139.361 85.1367C138.878 85.1367 138.448 85.041 138.069 84.8496C137.691 84.6536 137.395 84.3916 137.181 84.0635C136.966 83.7308 136.859 83.3548 136.859 82.9355C136.859 82.5436 136.932 82.1973 137.078 81.8965C137.229 81.5911 137.447 81.3359 137.734 81.1309C138.026 80.9258 138.382 80.7708 138.801 80.666C139.22 80.5566 139.699 80.502 140.236 80.502H141.528ZM148.307 77.6035V78.8066H144.137V77.6035H148.307ZM145.34 75.792H146.987V82.9561C146.987 83.1839 147.019 83.3594 147.083 83.4824C147.151 83.6009 147.245 83.6807 147.363 83.7217C147.482 83.7627 147.621 83.7832 147.78 83.7832C147.894 83.7832 148.004 83.7764 148.108 83.7627C148.213 83.749 148.298 83.7354 148.361 83.7217L148.368 84.9795C148.231 85.0205 148.072 85.057 147.89 85.0889C147.712 85.1208 147.507 85.1367 147.274 85.1367C146.896 85.1367 146.561 85.0706 146.27 84.9385C145.978 84.8018 145.75 84.5807 145.586 84.2754C145.422 83.9701 145.34 83.5645 145.34 83.0586V75.792ZM157.604 76.373L154.631 85H152.833L156.579 75.0469H157.728L157.604 76.373ZM160.093 85L157.112 76.373L156.982 75.0469H158.138L161.897 85H160.093ZM159.949 81.3086V82.6689H154.535V81.3086H159.949ZM167.5 75.0127V85H165.853V76.9678L163.412 77.7949V76.4346L167.302 75.0127H167.5Z" fill="black" fill-opacity="0.87"/>
</g>
<defs>
<filter id="filter0_d_4986_41367" x="0" y="48" width="212" height="68" filterUnits="userSpaceOnUse" color-interpolation-filters="sRGB">
<feFlood flood-opacity="0" result="BackgroundImageFix"/>
<feColorMatrix in="SourceAlpha" type="matrix" values="0 0 0 0 0 0 0 0 0 0 0 0 0 0 0 0 0 0 127 0" result="hardAlpha"/>
<feOffset dy="2"/>
<feGaussianBlur stdDeviation="3"/>
<feColorMatrix type="matrix" values="0 0 0 0 0 0 0 0 0 0 0 0 0 0 0 0 0 0 0.12 0"/>
<feBlend mode="normal" in2="BackgroundImageFix" result="effect1_dropShadow_4986_41367"/>
<feBlend mode="normal" in="SourceGraphic" in2="effect1_dropShadow_4986_41367" result="shape"/>
</filter>
<filter id="filter1_b_4986_41367" x="12" y="58" width="188" height="44" filterUnits="userSpaceOnUse" color-interpolation-filters="sRGB">
<feFlood flood-opacity="0" result="BackgroundImageFix"/>
<feGaussianBlur in="BackgroundImageFix" stdDeviation="3"/>
<feComposite in2="SourceAlpha" operator="in" result="effect1_backgroundBlur_4986_41367"/>
<feBlend mode="normal" in="SourceGraphic" in2="effect1_backgroundBlur_4986_41367" result="shape"/>
</filter>
</defs>
</svg>
