<svg xmlns="http://www.w3.org/2000/svg" width="200" height="160" fill="none"><rect width="200" height="160" fill="#fff" rx="4"/><rect width="199" height="159" x=".5" y=".5" stroke="#000" stroke-opacity=".1" rx="3.5"/><g clip-path="url(#a)"><rect width="137" height="137" x="31.5" y="11.5" fill="#fff" rx="8.2"/><path fill="#fff" d="M168.5 11.5h-137v137h137v-137Z"/><mask id="b" width="124" height="124" x="38" y="18" maskUnits="userSpaceOnUse" style="mask-type:luminance"><path fill="#fff" d="M42.7 52.4h-4.3v4.2h4.3v-4.2ZM42.7 60.9h-4.3V65h4.3V61ZM42.7 65.1h-4.3v4.3h4.3V65ZM42.7 94.9h-4.3V99h4.3V95ZM47 56.6h-4.3V61h4.2v-4.3ZM47 82.1h-4.3v4.3h4.2V82ZM47 86.4h-4.3v4.2h4.2v-4.2ZM47 94.9h-4.3V99h4.2V95ZM47 103.4h-4.3v4.2h4.2v-4.2ZM51.2 52.4h-4.3v4.2h4.3v-4.2Z"/><path fill="#fff" d="M51.2 60.9h-4.3V65h4.3V61ZM51.2 73.6h-4.3V78h4.3v-4.3Z"/><path fill="#fff" d="M51.2 77.9h-4.3V82h4.3V78ZM51.2 82.1h-4.3v4.3h4.3V82ZM51.2 90.6h-4.3V95h4.3v-4.3ZM51.2 99.1h-4.3v4.3h4.3V99ZM55.4 52.4h-4.2v4.2h4.2v-4.2ZM55.4 69.4h-4.2v4.2h4.2v-4.2Z"/><path fill="#fff" d="M55.4 86.4h-4.2v4.2h4.2v-4.2ZM55.4 99.1h-4.2v4.3h4.2V99ZM55.4 103.4h-4.2v4.2h4.2v-4.2ZM59.7 65.1h-4.3v4.3h4.3V65ZM59.7 69.4h-4.3v4.2h4.3v-4.2ZM59.7 86.4h-4.3v4.2h4.3v-4.2Z"/><path fill="#fff" d="M59.7 90.6h-4.3V95h4.3v-4.3Z"/><path fill="#fff" d="M59.7 94.9h-4.3V99h4.3V95ZM63.9 52.4h-4.2v4.2h4.2v-4.2ZM63.9 65.1h-4.2v4.3h4.2V65ZM63.9 69.4h-4.2v4.2h4.2v-4.2ZM63.9 86.4h-4.2v4.2h4.2v-4.2ZM63.9 99.1h-4.2v4.3h4.2V99ZM68.1 52.4H64v4.2h4.2v-4.2ZM68.1 60.9H64V65h4.2V61ZM68.1 69.4H64v4.2h4.2v-4.2ZM68.1 77.9H64V82h4.2V78ZM68.1 86.4H64v4.2h4.2v-4.2ZM68.1 94.9H64V99h4.2V95ZM68.1 103.4H64v4.2h4.2v-4.2Z"/><path fill="#fff" d="M72.4 52.4H68v4.2h4.3v-4.2ZM72.4 69.4H68v4.2h4.3v-4.2ZM72.4 77.9H68V82h4.3V78ZM72.4 82.1H68v4.3h4.3V82ZM72.4 86.4H68v4.2h4.3v-4.2Z"/><path fill="#fff" d="M72.4 90.6H68V95h4.3v-4.3ZM72.4 99.1H68v4.3h4.3V99ZM72.4 103.4H68v4.2h4.3v-4.2ZM76.6 22.7h-4.2v4.2h4.2v-4.2ZM76.6 31.2h-4.2v4.2h4.2v-4.2ZM76.6 39.7h-4.2v4.2h4.2v-4.2Z"/><path fill="#fff" d="M76.6 43.9h-4.2v4.2h4.2V44ZM76.6 48.1h-4.2v4.3h4.2v-4.3ZM76.6 52.4h-4.2v4.2h4.2v-4.2ZM76.6 56.6h-4.2V61h4.2v-4.3Z"/><path fill="#fff" d="M76.6 60.9h-4.2V65h4.2V61ZM76.6 65.1h-4.2v4.3h4.2V65ZM76.6 69.4h-4.2v4.2h4.2v-4.2ZM76.6 94.9h-4.2V99h4.2V95ZM76.6 103.4h-4.2v4.2h4.2v-4.2Z"/><path fill="#fff" d="M76.6 107.6h-4.2v4.3h4.2v-4.3ZM76.6 111.9h-4.2v4.2h4.2v-4.2Z"/><path fill="#fff" d="M76.6 116.1h-4.2v4.2h4.2v-4.2ZM76.6 124.6h-4.2v4.2h4.2v-4.2ZM76.6 128.8h-4.2v4.3h4.2v-4.3ZM76.6 137.3h-4.2v4.3h4.2v-4.3ZM80.9 18.4h-4.3v4.3H81v-4.3ZM80.9 27h-4.3v4.2H81v-4.3ZM80.9 31.2h-4.3v4.2H81v-4.2ZM80.9 35.4h-4.3v4.3H81v-4.3ZM80.9 39.7h-4.3v4.2H81v-4.2ZM80.9 48.1h-4.3v4.3H81v-4.3ZM80.9 60.9h-4.3V65H81V61ZM80.9 65.1h-4.3v4.3H81V65ZM80.9 73.6h-4.3V78H81v-4.3ZM80.9 82.1h-4.3v4.3H81V82ZM80.9 94.9h-4.3V99H81V95ZM80.9 99.1h-4.3v4.3H81V99ZM80.9 103.4h-4.3v4.2H81v-4.2ZM80.9 111.9h-4.3v4.2H81v-4.2Z"/><path fill="#fff" d="M80.9 116.1h-4.3v4.2H81v-4.2ZM80.9 124.6h-4.3v4.2H81v-4.2ZM80.9 137.3h-4.3v4.3H81v-4.3ZM85.1 18.4H81v4.3H85v-4.3ZM85.1 31.2H81v4.2H85v-4.2ZM85.1 35.4H81v4.3H85v-4.3ZM85.1 43.9H81v4.2H85V44ZM85.1 56.6H81V61H85v-4.3ZM85.1 73.6H81V78H85v-4.3Z"/><path fill="#fff" d="M85.1 77.9H81V82H85V78ZM85.1 82.1H81v4.3H85V82ZM85.1 86.4H81v4.2H85v-4.2Z"/><path fill="#fff" d="M85.1 90.6H81V95H85v-4.3ZM85.1 99.1H81v4.3H85V99ZM85.1 111.9H81v4.2H85v-4.2Z"/><path fill="#fff" d="M85.1 116.1H81v4.2H85v-4.2ZM85.1 133H81v4.3H85v-4.2ZM89.4 22.7H85v4.2h4.3v-4.2ZM89.4 31.2H85v4.2h4.3v-4.2ZM89.4 35.4H85v4.3h4.3v-4.3ZM89.4 48.1H85v4.3h4.3v-4.3ZM89.4 52.4H85v4.2h4.3v-4.2ZM89.4 56.6H85V61h4.3v-4.3ZM89.4 65.1H85v4.3h4.3V65ZM89.4 103.4H85v4.2h4.3v-4.2Z"/><path fill="#fff" d="M89.4 107.6H85v4.3h4.3v-4.3ZM89.4 111.9H85v4.2h4.3v-4.2ZM89.4 128.8H85v4.3h4.3v-4.3Z"/><path fill="#fff" d="M89.4 133H85v4.3h4.3v-4.2ZM93.6 18.4h-4.2v4.3h4.2v-4.3ZM93.6 22.7h-4.2v4.2h4.2v-4.2ZM93.6 27h-4.2v4.2h4.2v-4.3ZM93.6 31.2h-4.2v4.2h4.2v-4.2ZM93.6 43.9h-4.2v4.2h4.2V44ZM93.6 56.6h-4.2V61h4.2v-4.3ZM93.6 65.1h-4.2v4.3h4.2V65ZM93.6 69.4h-4.2v4.2h4.2v-4.2Z"/><path fill="#fff" d="M93.6 73.6h-4.2V78h4.2v-4.3ZM93.6 82.1h-4.2v4.3h4.2V82ZM93.6 86.4h-4.2v4.2h4.2v-4.2Z"/><path fill="#fff" d="M93.6 90.6h-4.2V95h4.2v-4.3ZM93.6 111.9h-4.2v4.2h4.2v-4.2Z"/><path fill="#fff" d="M93.6 116.1h-4.2v4.2h4.2v-4.2ZM97.9 18.4h-4.3v4.3H98v-4.3ZM97.9 22.7h-4.3v4.2H98v-4.2ZM97.9 35.4h-4.3v4.3H98v-4.3ZM97.9 48.1h-4.3v4.3H98v-4.3ZM97.9 52.4h-4.3v4.2H98v-4.2ZM97.9 60.9h-4.3V65H98V61ZM97.9 65.1h-4.3v4.3H98V65ZM97.9 73.6h-4.3V78H98v-4.3ZM97.9 82.1h-4.3v4.3H98V82ZM97.9 86.4h-4.3v4.2H98v-4.2ZM97.9 94.9h-4.3V99H98V95ZM97.9 99.1h-4.3v4.3H98V99ZM97.9 103.4h-4.3v4.2H98v-4.2Z"/><path fill="#fff" d="M97.9 107.6h-4.3v4.3H98v-4.3ZM97.9 116.1h-4.3v4.2H98v-4.2ZM97.9 124.6h-4.3v4.2H98v-4.2ZM97.9 133h-4.3v4.3H98v-4.2ZM102.1 22.7H98v4.2h4.2v-4.2ZM102.1 43.9H98v4.2h4.2V44ZM102.1 52.4H98v4.2h4.2v-4.2ZM102.1 69.4H98v4.2h4.2v-4.2Z"/><path fill="#fff" d="M102.1 73.6H98V78h4.2v-4.3ZM102.1 90.6H98V95h4.2v-4.3Z"/><path fill="#fff" d="M102.1 94.9H98V99h4.2V95ZM102.1 103.4H98v4.2h4.2v-4.2ZM102.1 133H98v4.3h4.2v-4.2ZM102.1 137.3H98v4.3h4.2v-4.3ZM106.4 18.4H102v4.3h4.3v-4.3ZM106.4 22.7H102v4.2h4.3v-4.2ZM106.4 48.1H102v4.3h4.3v-4.3ZM106.4 60.9H102V65h4.3V61ZM106.4 73.6H102V78h4.3v-4.3Z"/><path fill="#fff" d="M106.4 77.9H102V82h4.3V78ZM106.4 82.1H102v4.3h4.3V82ZM106.4 86.4H102v4.2h4.3v-4.2Z"/><path fill="#fff" d="M106.4 90.6H102V95h4.3v-4.3Z"/><path fill="#fff" d="M106.4 94.9H102V99h4.3V95ZM106.4 103.4H102v4.2h4.3v-4.2ZM106.4 116.1H102v4.2h4.3v-4.2ZM106.4 133H102v4.3h4.3v-4.2ZM106.4 137.3H102v4.3h4.3v-4.3ZM110.6 27h-4.2v4.2h4.2v-4.3ZM110.6 39.7h-4.2v4.2h4.2v-4.2Z"/><path fill="#fff" d="M110.6 43.9h-4.2v4.2h4.2V44ZM110.6 48.1h-4.2v4.3h4.2v-4.3ZM110.6 52.4h-4.2v4.2h4.2v-4.2ZM110.6 56.6h-4.2V61h4.2v-4.3ZM110.6 90.6h-4.2V95h4.2v-4.3ZM110.6 99.1h-4.2v4.3h4.2V99ZM110.6 107.6h-4.2v4.3h4.2v-4.3ZM110.6 116.1h-4.2v4.2h4.2v-4.2ZM110.6 120.3h-4.2v4.3h4.2v-4.3ZM110.6 133h-4.2v4.3h4.2v-4.2ZM110.6 137.3h-4.2v4.3h4.2v-4.3ZM114.9 31.2h-4.3v4.2h4.3v-4.2ZM114.9 48.1h-4.3v4.3h4.3v-4.3ZM114.9 52.4h-4.3v4.2h4.3v-4.2ZM114.9 65.1h-4.3v4.3h4.3V65ZM114.9 73.6h-4.3V78h4.3v-4.3Z"/><path fill="#fff" d="M114.9 77.9h-4.3V82h4.3V78ZM114.9 82.1h-4.3v4.3h4.3V82ZM114.9 86.4h-4.3v4.2h4.3v-4.2ZM114.9 99.1h-4.3v4.3h4.3V99ZM114.9 111.9h-4.3v4.2h4.3v-4.2Z"/><path fill="#fff" d="M114.9 116.1h-4.3v4.2h4.3v-4.2ZM114.9 133h-4.3v4.3h4.3v-4.2ZM114.9 137.3h-4.3v4.3h4.3v-4.3ZM119.1 18.4H115v4.3h4.2v-4.3ZM119.1 35.4H115v4.3h4.2v-4.3ZM119.1 39.7H115v4.2h4.2v-4.2Z"/><path fill="#fff" d="M119.1 43.9H115v4.2h4.2V44ZM119.1 65.1H115v4.3h4.2V65ZM119.1 69.4H115v4.2h4.2v-4.2Z"/><path fill="#fff" d="M119.1 73.6H115V78h4.2v-4.3Z"/><path fill="#fff" d="M119.1 77.9H115V82h4.2V78ZM119.1 82.1H115v4.3h4.2V82ZM119.1 86.4H115v4.2h4.2v-4.2ZM119.1 94.9H115V99h4.2V95ZM119.1 103.4H115v4.2h4.2v-4.2Z"/><path fill="#fff" d="M119.1 107.6H115v4.3h4.2v-4.3ZM119.1 116.1H115v4.2h4.2v-4.2ZM119.1 124.6H115v4.2h4.2v-4.2ZM119.1 133H115v4.3h4.2v-4.2ZM119.1 137.3H115v4.3h4.2v-4.3ZM123.4 31.2H119v4.2h4.3v-4.2ZM123.4 35.4H119v4.3h4.3v-4.3ZM123.4 56.6H119V61h4.3v-4.3Z"/><path fill="#fff" d="M123.4 60.9H119V65h4.3V61ZM123.4 90.6H119V95h4.3v-4.3Z"/><path fill="#fff" d="M123.4 94.9H119V99h4.3V95ZM123.4 99.1H119v4.3h4.3V99ZM123.4 120.3H119v4.3h4.3v-4.3Z"/><path fill="#fff" d="M123.4 124.6H119v4.2h4.3v-4.2ZM127.6 18.4h-4.2v4.3h4.2v-4.3ZM127.6 27h-4.2v4.2h4.2v-4.3ZM127.6 31.2h-4.2v4.2h4.2v-4.2ZM127.6 39.7h-4.2v4.2h4.2v-4.2Z"/><path fill="#fff" d="M127.6 43.9h-4.2v4.2h4.2V44ZM127.6 48.1h-4.2v4.3h4.2v-4.3ZM127.6 56.6h-4.2V61h4.2v-4.3ZM127.6 65.1h-4.2v4.3h4.2V65ZM127.6 69.4h-4.2v4.2h4.2v-4.2ZM127.6 77.9h-4.2V82h4.2V78ZM127.6 82.1h-4.2v4.3h4.2V82ZM127.6 99.1h-4.2v4.3h4.2V99ZM127.6 103.4h-4.2v4.2h4.2v-4.2Z"/><path fill="#fff" d="M127.6 107.6h-4.2v4.3h4.2v-4.3ZM127.6 111.9h-4.2v4.2h4.2v-4.2Z"/><path fill="#fff" d="M127.6 116.1h-4.2v4.2h4.2v-4.2ZM127.6 120.3h-4.2v4.3h4.2v-4.3ZM127.6 128.8h-4.2v4.3h4.2v-4.3Z"/><path fill="#fff" d="M127.6 133h-4.2v4.3h4.2v-4.2ZM131.9 52.4h-4.3v4.2h4.3v-4.2ZM131.9 65.1h-4.3v4.3h4.3V65ZM131.9 77.9h-4.3V82h4.3V78ZM131.9 86.4h-4.3v4.2h4.3v-4.2ZM131.9 94.9h-4.3V99h4.3V95ZM131.9 103.4h-4.3v4.2h4.3v-4.2ZM131.9 120.3h-4.3v4.3h4.3v-4.3ZM131.9 133h-4.3v4.3h4.3v-4.2ZM131.9 137.3h-4.3v4.3h4.3v-4.3ZM136.1 52.4h-4.2v4.2h4.2v-4.2ZM136.1 56.6h-4.2V61h4.2v-4.3Z"/><path fill="#fff" d="M136.1 60.9h-4.2V65h4.2V61ZM136.1 65.1h-4.2v4.3h4.2V65ZM136.1 69.4h-4.2v4.2h4.2v-4.2ZM136.1 94.9h-4.2V99h4.2V95ZM136.1 103.4h-4.2v4.2h4.2v-4.2ZM136.1 111.9h-4.2v4.2h4.2v-4.2ZM136.1 120.3h-4.2v4.3h4.2v-4.3Z"/><path fill="#fff" d="M136.1 124.6h-4.2v4.2h4.2v-4.2ZM136.1 128.8h-4.2v4.3h4.2v-4.3ZM140.3 52.4h-4.2v4.2h4.2v-4.2ZM140.3 56.6h-4.2V61h4.2v-4.3ZM140.3 65.1h-4.2v4.3h4.2V65ZM140.3 73.6h-4.2V78h4.2v-4.3Z"/><path fill="#fff" d="M140.3 77.9h-4.2V82h4.2V78ZM140.3 86.4h-4.2v4.2h4.2v-4.2ZM140.3 94.9h-4.2V99h4.2V95ZM140.3 103.4h-4.2v4.2h4.2v-4.2ZM140.3 120.3h-4.2v4.3h4.2v-4.3ZM140.3 128.8h-4.2v4.3h4.2v-4.3ZM144.6 60.9h-4.3V65h4.3V61Z"/><path fill="#fff" d="M144.6 86.4h-4.3v4.2h4.3v-4.2ZM144.6 103.4h-4.3v4.2h4.3v-4.2Z"/><path fill="#fff" d="M144.6 107.6h-4.3v4.3h4.3v-4.3ZM144.6 111.9h-4.3v4.2h4.3v-4.2Z"/><path fill="#fff" d="M144.6 116.1h-4.3v4.2h4.3v-4.2ZM144.6 120.3h-4.3v4.3h4.3v-4.3Z"/><path fill="#fff" d="M144.6 124.6h-4.3v4.2h4.3v-4.2ZM148.8 52.4h-4.2v4.2h4.2v-4.2ZM148.8 60.9h-4.2V65h4.2V61ZM148.8 73.6h-4.2V78h4.2v-4.3ZM148.8 82.1h-4.2v4.3h4.2V82ZM148.8 86.4h-4.2v4.2h4.2v-4.2Z"/><path fill="#fff" d="M148.8 90.6h-4.2V95h4.2v-4.3ZM148.8 99.1h-4.2v4.3h4.2V99ZM148.8 103.4h-4.2v4.2h4.2v-4.2Z"/><path fill="#fff" d="M148.8 107.6h-4.2v4.3h4.2v-4.3ZM148.8 111.9h-4.2v4.2h4.2v-4.2ZM148.8 120.3h-4.2v4.3h4.2v-4.3Z"/><path fill="#fff" d="M148.8 124.6h-4.2v4.2h4.2v-4.2ZM148.8 128.8h-4.2v4.3h4.2v-4.3ZM148.8 137.3h-4.2v4.3h4.2v-4.3ZM153 56.6h-4.2V61h4.3v-4.3Z"/><path fill="#fff" d="M153 60.9h-4.2V65h4.3V61ZM153 65.1h-4.2v4.3h4.3V65ZM153 94.9h-4.2V99h4.3V95ZM153 99.1h-4.2v4.3h4.3V99ZM153 103.4h-4.2v4.2h4.3v-4.2ZM153 120.3h-4.2v4.3h4.3v-4.3Z"/><path fill="#fff" d="M153 124.6h-4.2v4.2h4.3v-4.2ZM153 137.3h-4.2v4.3h4.3v-4.3ZM157.3 52.4h-4.2v4.2h4.2v-4.2ZM157.3 56.6h-4.2V61h4.2v-4.3Z"/><path fill="#fff" d="M157.3 60.9h-4.2V65h4.2V61ZM157.3 65.1h-4.2v4.3h4.2V65ZM157.3 90.6h-4.2V95h4.2v-4.3ZM157.3 116.1h-4.2v4.2h4.2v-4.2ZM157.3 124.6h-4.2v4.2h4.2v-4.2ZM157.3 133h-4.2v4.3h4.2v-4.2Z"/><path fill="#fff" d="M161.6 56.6h-4.3V61h4.3v-4.3Z"/><path fill="#fff" d="M161.6 60.9h-4.3V65h4.3V61ZM161.6 65.1h-4.3v4.3h4.3V65ZM161.6 73.6h-4.3V78h4.3v-4.3ZM161.6 90.6h-4.3V95h4.3v-4.3ZM161.6 103.4h-4.3v4.2h4.3v-4.2Z"/><path fill="#fff" d="M161.6 107.6h-4.3v4.3h4.3v-4.3ZM161.6 111.9h-4.3v4.2h4.3v-4.2ZM161.6 120.3h-4.3v4.3h4.3v-4.3Z"/><path fill="#fff" d="M161.6 124.6h-4.3v4.2h4.3v-4.2ZM161.6 133h-4.3v4.3h4.3v-4.2Z"/></mask><g mask="url(#b)"><path fill="#000" d="M161.6 18.4H38.4v123.2h123.2V18.4Z"/></g><mask id="c" width="31" height="31" x="38" y="18" maskUnits="userSpaceOnUse" style="mask-type:luminance"><path fill="#fff" d="M42.7 18.4h-4.3v4.3h4.3v-4.3ZM42.7 22.7h-4.3v4.2h4.3v-4.2ZM42.7 27h-4.3v4.2h4.3v-4.3ZM42.7 31.2h-4.3v4.2h4.3v-4.2ZM42.7 35.4h-4.3v4.3h4.3v-4.3ZM42.7 39.7h-4.3v4.2h4.3v-4.2Z"/><path fill="#fff" d="M42.7 43.9h-4.3v4.2h4.3V44ZM47 18.4h-4.3v4.3h4.2v-4.3ZM47 43.9h-4.3v4.2h4.2V44Z"/><path fill="#fff" d="M51.2 18.4h-4.3v4.3h4.3v-4.3ZM51.2 43.9h-4.3v4.2h4.3V44Z"/><path fill="#fff" d="M55.4 18.4h-4.2v4.3h4.2v-4.3ZM55.4 43.9h-4.2v4.2h4.2V44ZM59.7 18.4h-4.3v4.3h4.3v-4.3ZM59.7 43.9h-4.3v4.2h4.3V44Z"/><path fill="#fff" d="M63.9 18.4h-4.2v4.3h4.2v-4.3ZM63.9 43.9h-4.2v4.2h4.2V44ZM68.1 18.4H64v4.3h4.2v-4.3ZM68.1 22.7H64v4.2h4.2v-4.2ZM68.1 27H64v4.2h4.2v-4.3ZM68.1 31.2H64v4.2h4.2v-4.2ZM68.1 35.4H64v4.3h4.2v-4.3ZM68.1 39.7H64v4.2h4.2v-4.2Z"/><path fill="#fff" d="M68.1 43.9H64v4.2h4.2V44Z"/></mask><g mask="url(#c)"><path fill="#000" d="M68.1 18.4H38.4v29.7h29.7V18.4Z"/></g><mask id="d" width="14" height="14" x="46" y="26" maskUnits="userSpaceOnUse" style="mask-type:luminance"><path fill="#fff" d="M51.2 27h-4.3v4.2h4.3v-4.3ZM51.2 31.2h-4.3v4.2h4.3v-4.2ZM51.2 35.4h-4.3v4.3h4.3v-4.3Z"/><path fill="#fff" d="M55.4 27h-4.2v4.2h4.2v-4.3ZM55.4 31.2h-4.2v4.2h4.2v-4.2ZM55.4 35.4h-4.2v4.3h4.2v-4.3ZM59.7 27h-4.3v4.2h4.3v-4.3ZM59.7 31.2h-4.3v4.2h4.3v-4.2ZM59.7 35.4h-4.3v4.3h4.3v-4.3Z"/></mask><g mask="url(#d)"><path fill="#000" d="M59.7 27H46.9v12.7h12.8V26.9Z"/></g><mask id="e" width="31" height="31" x="131" y="18" maskUnits="userSpaceOnUse" style="mask-type:luminance"><path fill="#fff" d="M136.1 18.4h-4.2v4.3h4.2v-4.3ZM136.1 22.7h-4.2v4.2h4.2v-4.2ZM136.1 27h-4.2v4.2h4.2v-4.3ZM136.1 31.2h-4.2v4.2h4.2v-4.2ZM136.1 35.4h-4.2v4.3h4.2v-4.3ZM136.1 39.7h-4.2v4.2h4.2v-4.2Z"/><path fill="#fff" d="M136.1 43.9h-4.2v4.2h4.2V44ZM140.3 18.4h-4.2v4.3h4.2v-4.3ZM140.3 43.9h-4.2v4.2h4.2V44Z"/><path fill="#fff" d="M144.6 18.4h-4.3v4.3h4.3v-4.3ZM144.6 43.9h-4.3v4.2h4.3V44ZM148.8 18.4h-4.2v4.3h4.2v-4.3ZM148.8 43.9h-4.2v4.2h4.2V44ZM153 18.4h-4.2v4.3h4.3v-4.3ZM153 43.9h-4.2v4.2h4.3V44ZM157.3 18.4h-4.2v4.3h4.2v-4.3ZM157.3 43.9h-4.2v4.2h4.2V44Z"/><path fill="#fff" d="M161.6 18.4h-4.3v4.3h4.3v-4.3ZM161.6 22.7h-4.3v4.2h4.3v-4.2ZM161.6 27h-4.3v4.2h4.3v-4.3ZM161.6 31.2h-4.3v4.2h4.3v-4.2ZM161.6 35.4h-4.3v4.3h4.3v-4.3ZM161.6 39.7h-4.3v4.2h4.3v-4.2Z"/><path fill="#fff" d="M161.6 43.9h-4.3v4.2h4.3V44Z"/></mask><g mask="url(#e)"><path fill="#000" d="M161.6 18.4h-29.7v29.7h29.7V18.4Z"/></g><mask id="f" width="14" height="14" x="140" y="26" maskUnits="userSpaceOnUse" style="mask-type:luminance"><path fill="#fff" d="M144.6 27h-4.3v4.2h4.3v-4.3ZM144.6 31.2h-4.3v4.2h4.3v-4.2ZM144.6 35.4h-4.3v4.3h4.3v-4.3ZM148.8 27h-4.2v4.2h4.2v-4.3ZM148.8 31.2h-4.2v4.2h4.2v-4.2ZM148.8 35.4h-4.2v4.3h4.2v-4.3ZM153 27h-4.2v4.2h4.3v-4.3ZM153 31.2h-4.2v4.2h4.3v-4.2ZM153 35.4h-4.2v4.3h4.3v-4.3Z"/></mask><g mask="url(#f)"><path fill="#000" d="M153 27h-12.7v12.7h12.8V26.9Z"/></g><mask id="g" width="31" height="31" x="38" y="111" maskUnits="userSpaceOnUse" style="mask-type:luminance"><path fill="#fff" d="M42.7 111.9h-4.3v4.2h4.3v-4.2Z"/><path fill="#fff" d="M42.7 116.1h-4.3v4.2h4.3v-4.2ZM42.7 120.3h-4.3v4.3h4.3v-4.3Z"/><path fill="#fff" d="M42.7 124.6h-4.3v4.2h4.3v-4.2ZM42.7 128.8h-4.3v4.3h4.3v-4.3Z"/><path fill="#fff" d="M42.7 133h-4.3v4.3h4.3v-4.2ZM42.7 137.3h-4.3v4.3h4.3v-4.3ZM47 111.9h-4.3v4.2h4.2v-4.2ZM47 137.3h-4.3v4.3h4.2v-4.3Z"/><path fill="#fff" d="M51.2 111.9h-4.3v4.2h4.3v-4.2ZM51.2 137.3h-4.3v4.3h4.3v-4.3Z"/><path fill="#fff" d="M55.4 111.9h-4.2v4.2h4.2v-4.2ZM55.4 137.3h-4.2v4.3h4.2v-4.3ZM59.7 111.9h-4.3v4.2h4.3v-4.2ZM59.7 137.3h-4.3v4.3h4.3v-4.3Z"/><path fill="#fff" d="M63.9 111.9h-4.2v4.2h4.2v-4.2ZM63.9 137.3h-4.2v4.3h4.2v-4.3ZM68.1 111.9H64v4.2h4.2v-4.2Z"/><path fill="#fff" d="M68.1 116.1H64v4.2h4.2v-4.2ZM68.1 120.3H64v4.3h4.2v-4.3Z"/><path fill="#fff" d="M68.1 124.6H64v4.2h4.2v-4.2ZM68.1 128.8H64v4.3h4.2v-4.3Z"/><path fill="#fff" d="M68.1 133H64v4.3h4.2v-4.2ZM68.1 137.3H64v4.3h4.2v-4.3Z"/></mask><g mask="url(#g)"><path fill="#000" d="M68.1 111.9H38.4v29.7h29.7v-29.7Z"/></g><mask id="h" width="14" height="14" x="46" y="120" maskUnits="userSpaceOnUse" style="mask-type:luminance"><path fill="#fff" d="M51.2 120.3h-4.3v4.3h4.3v-4.3Z"/><path fill="#fff" d="M51.2 124.6h-4.3v4.2h4.3v-4.2ZM51.2 128.8h-4.3v4.3h4.3v-4.3Z"/><path fill="#fff" d="M55.4 120.3h-4.2v4.3h4.2v-4.3Z"/><path fill="#fff" d="M55.4 124.6h-4.2v4.2h4.2v-4.2ZM55.4 128.8h-4.2v4.3h4.2v-4.3ZM59.7 120.3h-4.3v4.3h4.3v-4.3Z"/><path fill="#fff" d="M59.7 124.6h-4.3v4.2h4.3v-4.2ZM59.7 128.8h-4.3v4.3h4.3v-4.3Z"/></mask><g mask="url(#h)"><path fill="#000" d="M59.7 120.3H46.9v12.8h12.8v-12.8Z"/></g></g><defs><clipPath id="a"><rect width="137" height="137" x="31.5" y="11.5" fill="#fff" rx="8.2"/></clipPath></defs></svg>