<svg width="28" height="28" viewBox="0 0 28 28" fill="none" xmlns="http://www.w3.org/2000/svg">
<path d="M2.81693 10.1765V17H1.43091V10.1765H2.81693ZM2.63479 14.4279L2.28829 14.4368C2.28829 14.0991 2.32975 13.7896 2.41267 13.5083C2.49856 13.224 2.61998 12.9767 2.77695 12.7664C2.93391 12.5561 3.12197 12.3933 3.34113 12.2778C3.56325 12.1623 3.80758 12.1045 4.07412 12.1045C4.31105 12.1045 4.52724 12.1386 4.72271 12.2067C4.91817 12.2748 5.08698 12.3829 5.22914 12.531C5.37129 12.6791 5.48087 12.873 5.55787 13.1129C5.63487 13.3528 5.67337 13.6445 5.67337 13.9881V17H4.27847V13.9792C4.27847 13.7748 4.24885 13.6149 4.18962 13.4994C4.13335 13.3839 4.05043 13.3025 3.94085 13.2551C3.83423 13.2077 3.70392 13.184 3.54992 13.184C3.36926 13.184 3.2197 13.2166 3.10124 13.2817C2.98278 13.3439 2.88949 13.4313 2.82137 13.5438C2.75326 13.6564 2.70439 13.7882 2.67477 13.9392C2.64812 14.0902 2.63479 14.2531 2.63479 14.4279ZM9.18538 12.1934V13.1662H6.33338V12.1934H9.18538ZM6.98641 11.0028H8.37687V15.494C8.37687 15.6273 8.39316 15.7295 8.42574 15.8006C8.45832 15.8716 8.51163 15.922 8.58566 15.9516C8.6597 15.9783 8.75447 15.9916 8.86998 15.9916C8.9529 15.9916 9.02398 15.9886 9.08321 15.9827C9.14244 15.9768 9.19723 15.9694 9.24758 15.9605V16.9645C9.12911 17.003 9.00325 17.0326 8.86998 17.0533C8.73671 17.077 8.59159 17.0888 8.43462 17.0888C8.1355 17.0888 7.87637 17.04 7.65721 16.9422C7.44101 16.8445 7.27517 16.6905 7.15966 16.4802C7.04416 16.267 6.98641 15.9901 6.98641 15.6495V11.0028ZM12.4575 12.1934V13.1662H9.60551V12.1934H12.4575ZM10.2585 11.0028H11.649V15.494C11.649 15.6273 11.6653 15.7295 11.6979 15.8006C11.7304 15.8716 11.7837 15.922 11.8578 15.9516C11.9318 15.9783 12.0266 15.9916 12.1421 15.9916C12.225 15.9916 12.2961 15.9886 12.3553 15.9827C12.4146 15.9768 12.4694 15.9694 12.5197 15.9605V16.9645C12.4012 17.003 12.2754 17.0326 12.1421 17.0533C12.0088 17.077 11.8637 17.0888 11.7067 17.0888C11.4076 17.0888 11.1485 17.04 10.9293 16.9422C10.7131 16.8445 10.5473 16.6905 10.4318 16.4802C10.3163 16.267 10.2585 15.9901 10.2585 15.6495V11.0028ZM14.6768 13.1174V18.848H13.2908V12.1934H14.5835L14.6768 13.1174ZM17.6754 14.5434V14.6367C17.6754 14.9861 17.6354 15.3104 17.5554 15.6095C17.4755 15.9057 17.3555 16.1648 17.1956 16.387C17.0386 16.6091 16.8447 16.7823 16.6137 16.9067C16.3827 17.0281 16.1146 17.0888 15.8096 17.0888C15.5194 17.0888 15.2676 17.0281 15.0544 16.9067C14.8441 16.7823 14.6664 16.6106 14.5213 16.3914C14.3792 16.1693 14.2636 15.9161 14.1748 15.6317C14.0889 15.3445 14.0223 15.038 13.9749 14.7122V14.53C14.0223 14.1835 14.0904 13.8622 14.1792 13.566C14.2681 13.2699 14.3836 13.0137 14.5257 12.7975C14.6679 12.5784 14.8441 12.4081 15.0544 12.2866C15.2647 12.1652 15.5149 12.1045 15.8052 12.1045C16.1072 12.1045 16.3753 12.1623 16.6092 12.2778C16.8432 12.3933 17.0386 12.5591 17.1956 12.7753C17.3555 12.9885 17.4755 13.2447 17.5554 13.5438C17.6354 13.843 17.6754 14.1761 17.6754 14.5434ZM16.2849 14.6367V14.5434C16.2849 14.3479 16.2701 14.1687 16.2405 14.0058C16.2109 13.84 16.1635 13.6964 16.0983 13.5749C16.0332 13.4505 15.9473 13.3543 15.8407 13.2862C15.7341 13.2181 15.6038 13.184 15.4498 13.184C15.2839 13.184 15.1432 13.2107 15.0277 13.264C14.9122 13.3173 14.8189 13.3958 14.7479 13.4994C14.6768 13.6001 14.625 13.7245 14.5924 13.8726C14.5628 14.0207 14.5465 14.1895 14.5435 14.379V14.8677C14.5465 15.0898 14.5776 15.2882 14.6368 15.4629C14.699 15.6347 14.7953 15.7695 14.9256 15.8672C15.0588 15.962 15.2365 16.0094 15.4586 16.0094C15.6156 16.0094 15.7459 15.9753 15.8496 15.9072C15.9562 15.8361 16.0406 15.7369 16.1028 15.6095C16.1679 15.4822 16.2138 15.3356 16.2405 15.1697C16.2701 15.0039 16.2849 14.8262 16.2849 14.6367ZM18.6464 16.3425C18.6464 16.1411 18.7174 15.9723 18.8596 15.8361C19.0047 15.6999 19.1928 15.6317 19.4238 15.6317C19.6577 15.6317 19.8443 15.6999 19.9835 15.8361C20.1257 15.9723 20.1968 16.1411 20.1968 16.3425C20.1968 16.541 20.1257 16.7083 19.9835 16.8445C19.8443 16.9807 19.6577 17.0489 19.4238 17.0489C19.1928 17.0489 19.0047 16.9807 18.8596 16.8445C18.7174 16.7083 18.6464 16.541 18.6464 16.3425ZM18.6464 12.7353C18.6464 12.5339 18.7174 12.3651 18.8596 12.2289C19.0047 12.0927 19.1928 12.0245 19.4238 12.0245C19.6577 12.0245 19.8443 12.0927 19.9835 12.2289C20.1257 12.3651 20.1968 12.5339 20.1968 12.7353C20.1968 12.9338 20.1257 13.1011 19.9835 13.2373C19.8443 13.3735 19.6577 13.4417 19.4238 13.4417C19.1928 13.4417 19.0047 13.3735 18.8596 13.2373C18.7174 13.1011 18.6464 12.9338 18.6464 12.7353ZM24.1263 10.5319L21.8385 17.5553H20.8301L23.1179 10.5319H24.1263ZM26.4922 10.5319L24.2044 17.5553H23.196L25.4838 10.5319H26.4922Z" fill="#899AAB"/>
</svg>
