<svg width="28" height="28" viewBox="0 0 28 28" fill="none" xmlns="http://www.w3.org/2000/svg">
<path d="M20.8109 20.0732C20.1261 21.2639 18.7809 21.9948 17.0549 22.1373C15.3316 22.2795 13.2888 21.8234 11.3544 20.7021C9.41989 19.5807 8.00502 18.0327 7.26609 16.4632C6.52599 14.8913 6.48388 13.3562 7.16861 12.1655C7.85334 10.9748 9.19856 10.2438 10.9246 10.1014C12.6478 9.95912 14.6906 10.4153 16.6251 11.5366C18.5596 12.6579 19.9744 14.206 20.7134 15.7754C21.4535 17.3474 21.4956 18.8825 20.8109 20.0732Z" stroke="url(#paint0_linear_2739_20973)" stroke-width="1.2"/>
<path d="M17.5768 9.27425C18.2414 9.65946 18.6624 10.671 18.5433 12.308C18.4276 13.8983 17.8042 15.8752 16.674 17.8406C15.5438 19.806 14.1502 21.3365 12.8363 22.2322C11.4838 23.1542 10.4007 23.294 9.73611 22.9088C9.07154 22.5235 8.65053 21.512 8.76961 19.875C8.88529 18.2847 9.50874 16.3078 10.6389 14.3424C11.7692 12.377 13.1627 10.8465 14.4767 9.95078C15.8292 9.02877 16.9122 8.88904 17.5768 9.27425Z" stroke="url(#paint1_linear_2739_20973)" stroke-width="1.2"/>
<path d="M20.3739 11.7228C20.9974 12.6604 20.9907 14.0111 20.2849 15.5295C19.5845 17.0364 18.2317 18.6084 16.373 19.8543C14.5144 21.1001 12.5497 21.7519 10.8948 21.8236C9.22741 21.8959 7.98236 21.3844 7.35882 20.4468C6.73528 19.5091 6.74201 18.1585 7.44776 16.6401C8.1482 15.1331 9.50097 13.5612 11.3597 12.3153C13.2183 11.0694 15.183 10.4177 16.8379 10.3459C18.5053 10.2736 19.7503 10.7851 20.3739 11.7228Z" stroke="url(#paint2_linear_2739_20973)" stroke-width="1.2"/>
<path d="M13.966 8.39762C18.3026 8.39762 21.8222 11.9278 21.8222 16.2875C21.8222 20.6472 18.3026 24.1773 13.966 24.1773C9.62936 24.1773 6.10977 20.6472 6.10977 16.2875C6.10977 11.9278 9.62936 8.39762 13.966 8.39762Z" stroke="url(#paint3_linear_2739_20973)" stroke-width="1.2"/>
<path fill-rule="evenodd" clip-rule="evenodd" d="M14.5688 2.64102C14.5688 2.30964 14.3001 2.04102 13.9688 2.04102C13.6374 2.04102 13.3688 2.30964 13.3688 2.64102V5.29521C13.3688 5.62658 13.6374 5.89521 13.9688 5.89521C14.3001 5.89521 14.5688 5.62658 14.5688 5.29521V2.64102ZM20.8536 3.7756C21.1411 3.9403 21.2415 4.30737 21.0778 4.59547L19.703 7.01495C19.5392 7.30305 19.1734 7.40309 18.8859 7.2384C18.5983 7.0737 18.498 6.70664 18.6617 6.41853L20.0365 3.99906C20.2002 3.71095 20.566 3.61091 20.8536 3.7756ZM25.8688 8.94594C26.0425 9.22818 25.9549 9.59855 25.6733 9.77316L23.4101 11.1764C23.1285 11.351 22.7595 11.2637 22.5858 10.9815C22.4122 10.6992 22.4998 10.3289 22.7814 10.1542L25.0445 8.75105C25.3262 8.57644 25.6952 8.66369 25.8688 8.94594ZM7.04832 3.87766C7.33123 3.70513 7.69963 3.79511 7.87116 4.07863L9.24599 6.35107C9.41752 6.63459 9.32723 7.00429 9.04431 7.17682C8.7614 7.34935 8.393 7.25937 8.22147 6.97585L6.84664 4.7034C6.67511 4.41988 6.7654 4.05018 7.04832 3.87766ZM2.95572 8.79357C2.67384 8.61936 2.30492 8.70715 2.13171 8.98965C1.9585 9.27215 2.0466 9.64238 2.32848 9.81659L4.52802 11.1759C4.8099 11.3501 5.17883 11.2623 5.35203 10.9798C5.52524 10.6974 5.43714 10.3271 5.15526 10.1529L2.95572 8.79357Z" fill="#899AAB"/>
<defs>
<linearGradient id="paint0_linear_2739_20973" x1="16.8524" y1="14.882" x2="11.0385" y2="21.2068" gradientUnits="userSpaceOnUse">
<stop stop-color="#899AAB" stop-opacity="0"/>
<stop offset="0.510417" stop-color="#899AAB"/>
</linearGradient>
<linearGradient id="paint1_linear_2739_20973" x1="9.91425" y1="14.1286" x2="15.0361" y2="16.7483" gradientUnits="userSpaceOnUse">
<stop offset="0.369792" stop-color="#899AAB"/>
<stop offset="1" stop-color="#899AAB" stop-opacity="0"/>
</linearGradient>
<linearGradient id="paint2_linear_2739_20973" x1="16.9326" y1="9.60387" x2="15.6284" y2="16.1446" gradientUnits="userSpaceOnUse">
<stop offset="0.369792" stop-color="#899AAB"/>
<stop offset="1" stop-color="#899AAB" stop-opacity="0"/>
</linearGradient>
<linearGradient id="paint3_linear_2739_20973" x1="8.16024" y1="12.0967" x2="21.1387" y2="20.7677" gradientUnits="userSpaceOnUse">
<stop stop-color="#899AAB" stop-opacity="0"/>
<stop offset="0.520833" stop-color="#899AAB"/>
</linearGradient>
</defs>
</svg>
