<svg width="28" height="28" viewBox="0 0 28 28" fill="none" xmlns="http://www.w3.org/2000/svg">
<path d="M19.2864 13.5838H19.0485V12.4295H19.2724C19.6641 12.4295 20.1538 12.4575 20.1538 12.9752C20.1538 13.5138 19.6991 13.5838 19.2864 13.5838ZM16.747 11.9188H16.0894C15.6137 11.3312 14.9281 10.9255 14.1376 10.7436H16.747V11.9188ZM16.747 13.22H16.719C16.621 12.7793 16.4322 12.3875 16.1873 12.0447H16.747V13.22ZM16.747 15.8294H16.2922C16.5091 15.4936 16.67 15.1088 16.747 14.6751V15.8294ZM16.747 17.1306H14.5294C15.2149 16.9067 15.7956 16.5079 16.2013 15.9553H16.747V17.1306ZM14.4244 15.9553L14.0886 16.2911L13.7528 15.9553L13.6269 15.8294L13.2981 15.5006L13.571 15.2347C13.445 15.2697 13.3121 15.2907 13.1722 15.2907C12.6685 15.2907 12.2768 15.0459 12.0809 14.6541H14.2635C14.2355 14.7031 14.2076 14.752 14.1796 14.801L14.8791 15.5006L14.4874 15.8923L14.4244 15.9553ZM11.7591 16.8927L10.8357 15.9693L10.8497 15.9553L10.9756 15.8294L11.7591 15.0459L12.6825 15.9693L11.7591 16.8927ZM10.7657 15.3047C10.7657 15.2417 10.8147 15.1858 10.8846 15.1858C10.9546 15.1858 11.0106 15.2417 11.0106 15.3047C11.0106 15.3747 10.9546 15.4236 10.8846 15.4236C10.8147 15.4236 10.7657 15.3677 10.7657 15.3047ZM11.0106 14.85C11.0106 14.9199 10.9546 14.9689 10.8846 14.9689C10.8147 14.9689 10.7657 14.9129 10.7657 14.85C10.7657 14.787 10.8147 14.7311 10.8846 14.7311C10.9546 14.7311 11.0106 14.787 11.0106 14.85ZM10.297 14.6541L10.1711 14.5282L9.70239 14.0665L10.4229 13.3529L10.5349 13.241L10.6468 13.3529L11.3603 14.0665L10.8986 14.5282L10.7727 14.6541L10.5349 14.892L10.297 14.6541ZM11.5492 14.4093C11.6192 14.4093 11.6751 14.4652 11.6751 14.5282C11.6751 14.5981 11.6192 14.6471 11.5492 14.6471C11.4793 14.6471 11.4303 14.5911 11.4303 14.5282C11.4303 14.4652 11.4793 14.4093 11.5492 14.4093ZM11.5492 13.9615C11.6192 13.9615 11.6751 14.0175 11.6751 14.0805C11.6751 14.1504 11.6192 14.1994 11.5492 14.1994C11.4793 14.1994 11.4303 14.1434 11.4303 14.0805C11.4303 14.0105 11.4793 13.9615 11.5492 13.9615ZM11.913 13.0381C11.983 13.0381 12.0389 13.0941 12.0389 13.157C12.0389 13.178 12.0319 13.199 12.0179 13.22C12.0109 13.234 11.9969 13.241 11.9899 13.255C11.983 13.255 11.983 13.262 11.976 13.262C11.969 13.262 11.969 13.269 11.962 13.269C11.955 13.269 11.955 13.269 11.948 13.276C11.948 13.276 11.948 13.276 11.941 13.276C11.934 13.276 11.934 13.276 11.927 13.276C11.927 13.276 11.927 13.276 11.92 13.276C11.913 13.276 11.913 13.276 11.906 13.276C11.899 13.276 11.899 13.276 11.892 13.276C11.892 13.276 11.892 13.276 11.885 13.276C11.878 13.276 11.878 13.276 11.871 13.276C11.871 13.276 11.871 13.276 11.864 13.276C11.857 13.276 11.857 13.276 11.85 13.269C11.843 13.269 11.843 13.262 11.836 13.262C11.829 13.262 11.829 13.255 11.8221 13.255C11.8081 13.248 11.8011 13.234 11.7941 13.22C11.7801 13.199 11.7731 13.178 11.7731 13.157C11.7871 13.0941 11.843 13.0381 11.913 13.0381ZM11.913 12.5834C11.983 12.5834 12.0389 12.6394 12.0389 12.7023C12.0389 12.7723 11.983 12.8213 11.913 12.8213C11.843 12.8213 11.7941 12.7653 11.7941 12.7023C11.7871 12.6394 11.843 12.5834 11.913 12.5834ZM13.7319 13.3459L13.8578 13.22H12.2068C12.4167 12.9472 12.7525 12.7723 13.1722 12.7723C13.508 12.7723 13.7948 12.8912 13.9977 13.0801L14.6063 12.4715L15.3618 13.22L15.4877 13.3459L15.5297 13.3879L14.6063 14.3113L14.3964 14.1015C14.3894 14.2554 14.3615 14.3953 14.3125 14.5282H12.0179C11.962 14.3813 11.934 14.2204 11.934 14.0455C11.934 13.7937 11.9969 13.5558 12.1159 13.3529H13.7319V13.3459ZM24.3442 13.9476C24.3442 13.234 24.9248 12.6674 25.6454 12.6674C26.184 12.6674 26.6667 12.9752 27.0515 13.3319L26.9815 10.8275C26.4778 10.6526 25.9182 10.5547 25.3795 10.5547C24.0644 10.5547 22.9451 11.2682 22.3644 12.3386C22.0776 11.1773 21.0702 10.6176 19.776 10.6176H1.05582V10.7436H12.2068C11.4163 10.9255 10.7377 11.3382 10.255 11.9188H1.04883V12.0447H10.1571C9.90526 12.3875 9.72337 12.7793 9.62543 13.22H1.04883V13.3459H9.59046C9.54848 13.5558 9.5275 13.7727 9.5275 14.0035C9.5275 14.1854 9.54149 14.3533 9.56247 14.5212H1.04883V14.6471H9.59046C9.66741 15.0878 9.82831 15.4796 10.0522 15.8224H1.04883V15.9483H10.1361C10.5419 16.5009 11.1225 16.8997 11.8081 17.1236H1.04883V17.2495H12.4237L12.0739 16.8997L12.9973 15.9763L13.9207 16.8997L13.571 17.2495H14.0397H19.0485V15.2487H20.2657C21.0073 15.2487 21.5949 14.9829 21.9727 14.5212C22.2105 16.1372 23.5747 17.3334 25.2746 17.3334C25.7013 17.3334 26.5898 17.2565 26.9745 17.0746L27.0445 14.6191C26.6597 14.9969 26.226 15.2277 25.6733 15.2277C24.9598 15.2347 24.3442 14.6751 24.3442 13.9476Z" fill="#899AAB"/>
<path d="M3.51727 10.2051L3.89302 10.5808L3.51727 10.9536L3.14453 10.5808L3.51727 10.2051Z" fill="#899AAB"/>
<path d="M4.44306 11.6426L4.81881 12.0183L4.44306 12.3911L4.07031 12.0183L4.44306 11.6426Z" fill="#899AAB"/>
<path d="M5.32587 12.127L5.70162 12.5027L5.32587 12.8754L4.95312 12.5027L5.32587 12.127Z" fill="#899AAB"/>
<path d="M6.5661 14.3242L6.94185 14.7L6.5661 15.0727L6.19336 14.7L6.5661 14.3242Z" fill="#899AAB"/>
<path d="M4.40985 12.877L4.7856 13.2527L4.40985 13.6254L4.03711 13.2527L4.40985 12.877Z" fill="#899AAB"/>
<path d="M5.66488 13.3184L6.19336 13.8468L5.66488 14.3711L5.14062 13.8468L5.66488 13.3184Z" fill="#899AAB"/>
<path d="M6.42743 10.9375L6.80318 11.3132L6.42743 11.686L6.05469 11.3132L6.42743 10.9375Z" fill="#899AAB"/>
<path d="M8.41448 10.5859L8.96618 11.1376L8.41448 11.6849L7.86719 11.1376L8.41448 10.5859Z" fill="#899AAB"/>
<path d="M7.66448 11.5918L8.21618 12.1435L7.66448 12.6908L7.11719 12.1435L7.66448 11.5918Z" fill="#899AAB"/>
<path d="M8.88337 11.7637L9.6203 12.5006L8.88337 13.2316L8.15234 12.5006L8.88337 11.7637Z" fill="#899AAB"/>
<path d="M8.02009 13.1719L8.75702 13.9088L8.02009 14.6398L7.28906 13.9088L8.02009 13.1719Z" fill="#899AAB"/>
<path d="M8.64705 14.5137L9.38397 15.2506L8.64705 15.9816L7.91602 15.2506L8.64705 14.5137Z" fill="#899AAB"/>
<path d="M9.99275 15.0977L10.7297 15.8346L9.99275 16.5656L9.26172 15.8346L9.99275 15.0977Z" fill="#899AAB"/>
<path d="M9.29548 13.6641L10.0324 14.401L9.29548 15.132L8.56445 14.401L9.29548 13.6641Z" fill="#899AAB"/>
<path d="M9.69587 12.6094L10.4328 13.3463L9.69587 14.0773L8.96484 13.3463L9.69587 12.6094Z" fill="#899AAB"/>
<path d="M7.53376 14.7832L8.27069 15.5201L7.53376 16.2512L6.80273 15.5201L7.53376 14.7832Z" fill="#899AAB"/>
<path d="M6.75056 12.6914L7.48749 13.4283L6.75056 14.1594L6.01953 13.4283L6.75056 12.6914Z" fill="#899AAB"/>
<path d="M5.0036 10.4141L5.37935 10.7898L5.0036 11.1626L4.63086 10.7898L5.0036 10.4141Z" fill="#899AAB"/>
<path d="M9.87686 10.9375L10.4568 11.5208L9.87686 12.1007L9.29688 11.5208L9.87686 10.9375Z" fill="#899AAB"/>
<path d="M3.97259 9.52539L4.30846 9.86126L3.97259 10.1971L3.63672 9.86126L3.97259 9.52539Z" fill="#899AAB"/>
<path d="M10.6664 13.7031C10.7363 13.7031 10.7923 13.7591 10.7923 13.822C10.7923 13.892 10.7363 13.948 10.6664 13.948C10.5964 13.948 10.5475 13.892 10.5475 13.822C10.5405 13.7591 10.5964 13.7031 10.6664 13.7031ZM10.6664 14.1578C10.7363 14.1578 10.7923 14.2138 10.7923 14.2838C10.7923 14.3537 10.7363 14.4027 10.6664 14.4027C10.5964 14.4027 10.5475 14.3467 10.5475 14.2838C10.5405 14.2208 10.5964 14.1578 10.6664 14.1578Z" fill="#899AAB"/>
<path d="M11.5805 15.6816C11.6504 15.6816 11.7064 15.7376 11.7064 15.8006C11.7064 15.8705 11.6504 15.9265 11.5805 15.9265C11.5105 15.9265 11.4615 15.8705 11.4615 15.8006C11.4545 15.7376 11.5105 15.6816 11.5805 15.6816ZM11.5805 16.1364C11.6504 16.1364 11.7064 16.1923 11.7064 16.2623C11.7064 16.3322 11.6504 16.3812 11.5805 16.3812C11.5105 16.3812 11.4615 16.3252 11.4615 16.2623C11.4545 16.1993 11.5105 16.1364 11.5805 16.1364Z" fill="#899AAB"/>
<path d="M13.7992 15.0156C13.8692 15.0156 13.9251 15.0716 13.9251 15.1346C13.9251 15.2045 13.8692 15.2605 13.7992 15.2605C13.7292 15.2605 13.6803 15.2045 13.6803 15.1346C13.6733 15.0716 13.7292 15.0156 13.7992 15.0156ZM13.7992 15.4703C13.8692 15.4703 13.9251 15.5263 13.9251 15.5963C13.9251 15.6662 13.8692 15.7152 13.7992 15.7152C13.7292 15.7152 13.6803 15.6592 13.6803 15.5963C13.6733 15.5333 13.7292 15.4703 13.7992 15.4703Z" fill="#899AAB"/>
<path d="M5.8201 11.127C5.89005 11.127 5.94602 11.1829 5.94602 11.2459C5.94602 11.3158 5.89005 11.3718 5.8201 11.3718C5.75014 11.3718 5.70117 11.3158 5.70117 11.2459C5.70117 11.1829 5.75014 11.127 5.8201 11.127ZM5.8201 11.5887C5.89005 11.5887 5.94602 11.6446 5.94602 11.7146C5.94602 11.7845 5.89005 11.8335 5.8201 11.8335C5.75014 11.8335 5.70117 11.7775 5.70117 11.7146C5.70117 11.6446 5.75014 11.5887 5.8201 11.5887Z" fill="#899AAB"/>
<path d="M8.57986 14.8828C8.64982 14.8828 8.70578 14.9388 8.70578 15.0017C8.70578 15.0717 8.64982 15.1277 8.57986 15.1277C8.50991 15.1277 8.46094 15.0717 8.46094 15.0017C8.46094 14.9458 8.50991 14.8828 8.57986 14.8828ZM8.57986 15.3445C8.64982 15.3445 8.70578 15.4005 8.70578 15.4704C8.70578 15.5404 8.64982 15.5894 8.57986 15.5894C8.50991 15.5894 8.46094 15.5334 8.46094 15.4704C8.46094 15.4005 8.50991 15.3445 8.57986 15.3445Z" fill="white"/>
<path d="M7.16992 11.2231C7.16992 11.1881 7.19795 11.16 7.23299 11.16C7.26803 11.16 7.29607 11.1881 7.29607 11.2231C7.29607 11.2651 7.26103 11.2792 7.23299 11.2792C7.20496 11.2792 7.16992 11.2651 7.16992 11.2231ZM7.16992 10.8306C7.16992 10.7956 7.19795 10.7676 7.23299 10.7676C7.26803 10.7676 7.29607 10.7956 7.29607 10.8306C7.29607 10.8727 7.26103 10.8867 7.23299 10.8867C7.20496 10.8937 7.16992 10.8727 7.16992 10.8306Z" fill="#899AAB"/>
<path d="M7.81619 10.6738C7.88615 10.6738 7.94211 10.7298 7.94211 10.7928C7.94211 10.8627 7.88615 10.9187 7.81619 10.9187C7.74623 10.9187 7.69727 10.8627 7.69727 10.7928C7.69727 10.7298 7.74623 10.6738 7.81619 10.6738ZM7.81619 11.1285C7.88615 11.1285 7.94211 11.1845 7.94211 11.2545C7.94211 11.3244 7.88615 11.3734 7.81619 11.3734C7.74623 11.3734 7.69727 11.3174 7.69727 11.2545C7.69727 11.1845 7.74623 11.1285 7.81619 11.1285Z" fill="#899AAB"/>
<path d="M6.06055 14.8218C6.06055 14.7867 6.08858 14.7517 6.12362 14.7517C6.15866 14.7517 6.1937 14.7797 6.1937 14.8218C6.1937 14.8638 6.15165 14.8849 6.12362 14.8849C6.09559 14.8919 6.06055 14.8708 6.06055 14.8218ZM6.06055 14.3943C6.06055 14.3593 6.08858 14.3242 6.12362 14.3242C6.15866 14.3242 6.1937 14.3523 6.1937 14.3943C6.1937 14.4363 6.15165 14.4574 6.12362 14.4574C6.09559 14.4574 6.06055 14.4363 6.06055 14.3943Z" fill="#899AAB"/>
<path d="M6.75038 15.248C6.82033 15.248 6.8763 15.304 6.8763 15.367C6.8763 15.4369 6.82033 15.4929 6.75038 15.4929C6.68042 15.4929 6.63145 15.4369 6.63145 15.367C6.62446 15.304 6.68042 15.248 6.75038 15.248ZM6.75038 15.7028C6.82033 15.7028 6.8763 15.7587 6.8763 15.8287C6.8763 15.8986 6.82033 15.9476 6.75038 15.9476C6.68042 15.9476 6.63145 15.8916 6.63145 15.8287C6.62446 15.7657 6.68042 15.7028 6.75038 15.7028Z" fill="#899AAB"/>
<path d="M4.51953 10.8901C4.51953 10.8551 4.54756 10.8201 4.5826 10.8201C4.61764 10.8201 4.65268 10.8481 4.65268 10.8901C4.65268 10.9322 4.61063 10.9532 4.5826 10.9532C4.56158 10.9602 4.51953 10.9392 4.51953 10.8901ZM4.51953 10.4627C4.51953 10.4276 4.54756 10.3926 4.5826 10.3926C4.61764 10.3926 4.65268 10.4206 4.65268 10.4627C4.65268 10.5047 4.61063 10.5257 4.5826 10.5257C4.56158 10.5257 4.51953 10.5047 4.51953 10.4627Z" fill="#899AAB"/>
<path d="M3.46289 10.0362C3.46289 10.0081 3.48391 9.98011 3.51895 9.98011C3.55399 9.98011 3.57502 10.0081 3.57502 10.0362C3.57502 10.0712 3.53998 10.0852 3.51895 10.0852C3.49793 10.0852 3.46289 10.0712 3.46289 10.0362ZM3.46289 9.69278C3.46289 9.66475 3.48391 9.63672 3.51895 9.63672C3.55399 9.63672 3.57502 9.66475 3.57502 9.69278C3.57502 9.72782 3.53998 9.74184 3.51895 9.74184C3.49793 9.74184 3.46289 9.72782 3.46289 9.69278Z" fill="#899AAB"/>
<path d="M5.01953 12.2122C5.01953 12.1771 5.04756 12.1491 5.0826 12.1491C5.11764 12.1491 5.14567 12.1771 5.14567 12.2122C5.14567 12.2542 5.11063 12.2682 5.0826 12.2682C5.05457 12.2753 5.01953 12.2542 5.01953 12.2122ZM5.01953 11.8267C5.01953 11.7917 5.04756 11.7637 5.0826 11.7637C5.11764 11.7637 5.14567 11.7917 5.14567 11.8267C5.14567 11.8688 5.11063 11.8828 5.0826 11.8828C5.05457 11.8828 5.01953 11.8618 5.01953 11.8267Z" fill="#899AAB"/>
<path d="M3.91016 12.1985C3.91016 12.1635 3.93819 12.1354 3.97323 12.1354C4.00827 12.1354 4.0363 12.1635 4.0363 12.1985C4.0363 12.2406 4.00126 12.2546 3.97323 12.2546C3.9452 12.2546 3.91016 12.2406 3.91016 12.1985ZM3.91016 11.8131C3.91016 11.778 3.93819 11.75 3.97323 11.75C4.00827 11.75 4.0363 11.778 4.0363 11.8131C4.0363 11.8551 4.00126 11.8691 3.97323 11.8691C3.9452 11.8691 3.91016 11.8481 3.91016 11.8131Z" fill="#899AAB"/>
<path d="M3.02539 10.8977C3.02539 10.8627 3.05342 10.8347 3.08145 10.8347C3.11649 10.8347 3.14453 10.8627 3.14453 10.8977C3.14453 10.9398 3.10949 10.9538 3.08145 10.9538C3.06043 10.9608 3.02539 10.9398 3.02539 10.8977ZM3.02539 10.5123C3.02539 10.4773 3.05342 10.4492 3.08145 10.4492C3.11649 10.4492 3.14453 10.4773 3.14453 10.5123C3.14453 10.5543 3.10949 10.5684 3.08145 10.5684C3.06043 10.5684 3.02539 10.5473 3.02539 10.5123Z" fill="#899AAB"/>
<path d="M14.3416 12.9883C14.4115 12.9883 14.4675 13.0442 14.4675 13.1072C14.4675 13.1772 14.4115 13.2331 14.3416 13.2331C14.2716 13.2331 14.2227 13.1772 14.2227 13.1072C14.2227 13.0442 14.2716 12.9883 14.3416 12.9883ZM14.3416 13.45C14.4115 13.45 14.4675 13.506 14.4675 13.5759C14.4675 13.6459 14.4115 13.6948 14.3416 13.6948C14.2716 13.6948 14.2227 13.6389 14.2227 13.5759C14.2227 13.506 14.2716 13.45 14.3416 13.45Z" fill="#899AAB"/>
<path d="M3.84803 12.875C3.91799 12.875 3.97395 12.931 3.97395 12.9939C3.97395 13.0639 3.91799 13.1198 3.84803 13.1198C3.77808 13.1198 3.72911 13.0639 3.72911 12.9939C3.72211 12.931 3.77808 12.875 3.84803 12.875ZM3.84803 13.3367C3.91799 13.3367 3.97395 13.3927 3.97395 13.4626C3.97395 13.5326 3.91799 13.5816 3.84803 13.5816C3.77808 13.5816 3.72911 13.5256 3.72911 13.4626C3.72211 13.3927 3.77808 13.3367 3.84803 13.3367Z" fill="#899AAB"/>
<path d="M5.01991 13.625C5.08986 13.625 5.14583 13.681 5.14583 13.7439C5.14583 13.8139 5.08986 13.8698 5.01991 13.8698C4.94995 13.8698 4.90098 13.8139 4.90098 13.7439C4.89399 13.681 4.94995 13.625 5.01991 13.625ZM5.01991 14.0797C5.08986 14.0797 5.14583 14.1357 5.14583 14.2056C5.14583 14.2756 5.08986 14.3246 5.01991 14.3246C4.94995 14.3246 4.90098 14.2686 4.90098 14.2056C4.89399 14.1357 4.94995 14.0797 5.01991 14.0797Z" fill="#899AAB"/>
<path d="M7.04471 11.7891C7.11466 11.7891 7.17063 11.845 7.17063 11.908C7.17063 11.9779 7.11466 12.0339 7.04471 12.0339C6.97475 12.0339 6.92578 11.9779 6.92578 11.908C6.92578 11.852 6.97475 11.7891 7.04471 11.7891ZM7.04471 12.2508C7.11466 12.2508 7.17063 12.3067 7.17063 12.3767C7.17063 12.4466 7.11466 12.4956 7.04471 12.4956C6.97475 12.4956 6.92578 12.4397 6.92578 12.3767C6.92578 12.3067 6.97475 12.2508 7.04471 12.2508Z" fill="#899AAB"/>
<path d="M9.25955 11.1621C9.32951 11.1621 9.38547 11.2181 9.38547 11.281C9.38547 11.351 9.32951 11.407 9.25955 11.407C9.18959 11.407 9.14062 11.351 9.14062 11.281C9.14062 11.2181 9.18959 11.1621 9.25955 11.1621ZM9.25955 11.6168C9.32951 11.6168 9.38547 11.6728 9.38547 11.7427C9.38547 11.8127 9.32951 11.8617 9.25955 11.8617C9.18959 11.8617 9.14062 11.8057 9.14062 11.7427C9.14062 11.6728 9.18959 11.6168 9.25955 11.6168Z" fill="#899AAB"/>
<path d="M8.02908 12.0996C8.09904 12.0996 8.155 12.1556 8.155 12.2185C8.155 12.2885 8.09904 12.3445 8.02908 12.3445C7.95913 12.3445 7.91016 12.2885 7.91016 12.2185C7.91016 12.1556 7.95913 12.0996 8.02908 12.0996ZM8.02908 12.5543C8.09904 12.5543 8.155 12.6103 8.155 12.6802C8.155 12.7502 8.09904 12.7992 8.02908 12.7992C7.95913 12.7992 7.91016 12.7432 7.91016 12.6802C7.91016 12.6103 7.95913 12.5543 8.02908 12.5543Z" fill="#899AAB"/>
<path d="M8.96268 12.3418C9.03263 12.3418 9.0886 12.3978 9.0886 12.4607C9.0886 12.5307 9.03263 12.5866 8.96268 12.5866C8.89272 12.5866 8.84375 12.5307 8.84375 12.4607C8.84375 12.3978 8.89272 12.3418 8.96268 12.3418ZM8.96268 12.7965C9.03263 12.7965 9.0886 12.8525 9.0886 12.9224C9.0886 12.9924 9.03263 13.0414 8.96268 13.0414C8.89272 13.0414 8.84375 12.9854 8.84375 12.9224C8.84375 12.8525 8.89272 12.7965 8.96268 12.7965Z" fill="white"/>
<path d="M7.81619 13.5547C7.88615 13.5547 7.94211 13.6107 7.94211 13.6736C7.94211 13.7436 7.88615 13.7995 7.81619 13.7995C7.74623 13.7995 7.69727 13.7436 7.69727 13.6736C7.69727 13.6107 7.74623 13.5547 7.81619 13.5547ZM7.81619 14.0094C7.88615 14.0094 7.94211 14.0654 7.94211 14.1353C7.94211 14.2053 7.88615 14.2542 7.81619 14.2542C7.74623 14.2542 7.69727 14.1983 7.69727 14.1353C7.69727 14.0654 7.74623 14.0094 7.81619 14.0094Z" fill="white"/>
<path d="M6.54666 13.0762C6.61662 13.0762 6.67258 13.1321 6.67258 13.1951C6.67258 13.2651 6.61662 13.321 6.54666 13.321C6.4767 13.321 6.42773 13.2651 6.42773 13.1951C6.42773 13.1321 6.4767 13.0762 6.54666 13.0762ZM6.54666 13.5309C6.61662 13.5309 6.67258 13.5869 6.67258 13.6568C6.67258 13.7268 6.61662 13.7757 6.54666 13.7757C6.4767 13.7757 6.42773 13.7198 6.42773 13.6568C6.42773 13.5869 6.4767 13.5309 6.54666 13.5309Z" fill="white"/>
<path d="M5.89627 12.9688C5.96623 12.9688 6.02219 13.0247 6.02219 13.0877C6.02219 13.1576 5.96623 13.2136 5.89627 13.2136C5.82631 13.2136 5.77734 13.1576 5.77734 13.0877C5.77734 13.0247 5.82631 12.9688 5.89627 12.9688ZM5.89627 13.4235C5.96623 13.4235 6.02219 13.4794 6.02219 13.5494C6.02219 13.6193 5.96623 13.6683 5.89627 13.6683C5.82631 13.6683 5.77734 13.6123 5.77734 13.5494C5.77734 13.4794 5.82631 13.4235 5.89627 13.4235Z" fill="#899AAB"/>
</svg>
