<svg width="28" height="28" viewBox="0 0 28 28" fill="none" xmlns="http://www.w3.org/2000/svg">
<path fill-rule="evenodd" clip-rule="evenodd" d="M24.5314 5.46851C26.0539 6.99098 23.746 11.7951 19.3448 16.4301C19.2455 16.2797 19.1373 16.12 19.0199 15.9515C21.2211 19.1411 22.0957 21.915 21.0052 23.0055C19.9191 24.0916 17.1628 23.2283 13.9892 21.0463V21.0608C10.8247 23.2319 8.07835 24.0889 6.99467 23.0052C5.95934 21.9699 6.69534 19.417 8.65638 16.4317C4.25438 11.7963 1.94589 6.9914 3.46851 5.46879C4.94391 3.99339 9.50118 6.11517 13.9998 10.2532C18.4985 6.11498 23.056 3.99307 24.5314 5.46851ZM12.9142 11.2929C10.9578 9.50296 9.02489 8.14145 7.41034 7.32871C6.43628 6.83838 5.65557 6.58729 5.10191 6.51921C4.75538 6.47659 4.59377 6.5136 4.53481 6.53509C4.51332 6.59405 4.47631 6.75566 4.51893 7.10219C4.58701 7.65585 4.8381 8.43656 5.32843 9.41062C6.17745 11.0972 7.62532 13.1312 9.53484 15.1766C10.4669 13.9204 11.5898 12.6172 12.8666 11.3404C12.8825 11.3246 12.8983 11.3087 12.9142 11.2929ZM13.9892 12.3182V19.2002C15.0827 20.0178 16.1266 20.674 17.0634 21.1456C18.0375 21.6359 18.8182 21.887 19.3718 21.9551C19.7184 21.9977 19.88 21.9607 19.9389 21.9392C19.9604 21.8802 19.9974 21.7186 19.9548 21.3721C19.8867 20.8184 19.6356 20.0377 19.1453 19.0637C18.1722 17.1306 16.4125 14.7412 14.0726 12.4014C14.0448 12.3736 14.017 12.3458 13.9892 12.3182ZM4.54762 6.50731C4.54755 6.50725 4.54672 6.50842 4.54532 6.51097C4.54698 6.50864 4.54768 6.50737 4.54762 6.50731ZM19.9667 21.9264C19.9666 21.9263 19.9654 21.927 19.963 21.9287C19.9656 21.9273 19.9668 21.9265 19.9667 21.9264ZM19.9261 21.967C19.9262 21.967 19.927 21.9659 19.9284 21.9633C19.9268 21.9656 19.9261 21.9669 19.9261 21.967ZM4.51068 6.5456C4.50813 6.547 4.50697 6.54783 4.50703 6.5479C4.50709 6.54796 4.50835 6.54726 4.51068 6.5456Z" fill="#899AAB"/>
</svg>
