<svg width="28" height="28" viewBox="0 0 28 28" fill="none" xmlns="http://www.w3.org/2000/svg">
<g clip-path="url(#clip0_2739_21063)">
<path d="M21.1 11.4072C21.1616 11.1662 21.4086 11.0179 21.6385 11.1128C22.2422 11.3617 22.7588 11.7913 23.114 12.3478C23.4693 12.9042 23.6416 13.5536 23.6133 14.206C23.6026 14.4545 23.3641 14.6161 23.1196 14.5706C22.8751 14.5251 22.7185 14.2889 22.7155 14.0402C22.7104 13.6148 22.587 13.196 22.3549 12.8324C22.1228 12.4688 21.7948 12.1807 21.411 11.997C21.1867 11.8896 21.0384 11.6481 21.1 11.4072Z" fill="#899AAB"/>
<path d="M21.4133 9.88904C21.5034 9.60791 21.8059 9.4506 22.0764 9.56885C23.016 9.97963 23.8187 10.6586 24.3802 11.526C24.9416 12.3935 25.2324 13.4038 25.2224 14.4292C25.2195 14.7244 24.9522 14.9359 24.6588 14.9031C24.3654 14.8702 24.2397 14.5294 24.2349 14.2342C24.2222 13.4551 23.9918 12.6912 23.5646 12.0312C23.1373 11.3712 22.5348 10.8482 21.8292 10.5176C21.5619 10.3923 21.3232 10.1702 21.4133 9.88904Z" fill="#899AAB"/>
<path fill-rule="evenodd" clip-rule="evenodd" d="M5.11239 19.2467C5.02608 19.2552 4.93849 19.2596 4.84986 19.2596C3.43665 19.2596 2.29102 18.1525 2.29102 16.7868C2.29102 15.5089 3.29414 14.4574 4.58096 14.3275C4.87872 13.4182 5.67603 12.7351 6.64849 12.6026C6.81634 11.5146 7.75681 10.6815 8.89186 10.6815C9.74191 10.6815 10.4828 11.1487 10.8718 11.8404C11.2698 10.2856 12.7232 9.13281 14.4551 9.13281C16.3692 9.13281 17.943 10.5407 18.128 12.3434C18.5567 12.0303 19.0906 11.8446 19.6694 11.8446C21.0826 11.8446 22.2282 12.9518 22.2282 14.3174C22.2282 14.7977 22.0865 15.246 21.8413 15.6255C22.4855 15.9434 22.9265 16.5909 22.9265 17.3378C22.9265 18.3835 22.0622 19.2341 20.9863 19.2589V19.2599H5.11239V19.2467Z" fill="#899AAB"/>
</g>
<defs>
<clipPath id="clip0_2739_21063">
<rect width="23.4193" height="10.7338" fill="white" transform="translate(2.29102 9.13281)"/>
</clipPath>
</defs>
</svg>
