<svg width="768" height="389" viewBox="0 0 768 389" fill="none" xmlns="http://www.w3.org/2000/svg">
<path d="M670 252L670 225.5C670 222.186 667.314 219.5 664 219.5L399 219.5C395.686 219.5 393 216.814 393 213.5L393 187" stroke="#28232D"/>
<path d="M669.143 255.571C669.531 256.218 670.469 256.218 670.857 255.571L672.091 253.514C672.491 252.848 672.011 252 671.234 252H668.766C667.989 252 667.509 252.848 667.909 253.514L669.143 255.571Z" fill="#28232D"/>
<path d="M393.857 183.429C393.469 182.782 392.531 182.782 392.143 183.429L390.909 185.486C390.509 186.152 390.989 187 391.766 187L394.234 187C395.011 187 395.491 186.152 395.091 185.486L393.857 183.429Z" fill="#28232D"/>
<path d="M98 252L98 225.5C98 222.186 100.686 219.5 104 219.5L369 219.5C372.314 219.5 375 216.814 375 213.5L375 187" stroke="#28232D"/>
<path d="M98.8575 255.571C98.4691 256.218 97.5309 256.218 97.1425 255.571L95.9087 253.514C95.5088 252.848 95.9889 252 96.7662 252H99.2338C100.011 252 100.491 252.848 100.091 253.514L98.8575 255.571Z" fill="#28232D"/>
<path d="M374.143 183.429C374.531 182.782 375.469 182.782 375.857 183.429L377.091 185.486C377.491 186.152 377.011 187 376.234 187L373.766 187C372.989 187 372.509 186.152 372.909 185.486L374.143 183.429Z" fill="#28232D"/>
<path d="M384 252L384 187" stroke="#28232D"/>
<path d="M384.857 255.571C384.469 256.218 383.531 256.218 383.143 255.571L381.909 253.514C381.509 252.848 381.989 252 382.766 252L385.234 252C386.011 252 386.491 252.848 386.091 253.514L384.857 255.571Z" fill="#28232D"/>
<path d="M383.143 183.429C383.531 182.782 384.469 182.782 384.857 183.429L386.091 185.486C386.491 186.152 386.011 187 385.234 187L382.766 187C381.989 187 381.509 186.152 381.909 185.486L383.143 183.429Z" fill="#28232D"/>
<circle r="4" stroke="white" stroke-width="1" opacity="0">
<animate attributeName="opacity" values="0;1" dur="0.1s" begin="2.end;22.end" fill="freeze"/>
<animateMotion dur="5s" begin="2.end;22.end" fill="freeze"
      path="M393 167L393 213.5C393 216.814 395.686 219.5 399 219.5L664 219.5C667.314 219.5 670 222.186 670 225.5L670 272"/>
</circle>
<circle r="4" stroke="white" stroke-width="1" opacity="0">
<animate attributeName="opacity" values="0;1" dur="0.1s" begin="2.end;22.end" fill="freeze"/>
<animateMotion dur="4s" begin="2.end;22.end" fill="freeze"
      path="M375 167L375 213.5C375 216.814 372.314 219.5 369 219.5L104 219.5C100.686 219.5 98 222.186 98 225.5L98 272"/>
</circle>
<circle r="4" stroke="white" stroke-width="1" opacity="0">
<animate attributeName="opacity" values="0;1" dur="0.1s" begin="2.end;22.end" fill="freeze"/>
<animateMotion dur="3s" begin="2.end;22.end" fill="freeze"
      path="M384 167L384 272"/>
</circle>

<circle r="3.5" fill="#305680" opacity="0">
<animate attributeName="opacity" values="0;1" dur="0.1s" begin="2.end" fill="freeze"/>
<animateMotion id="in3" dur="5s" begin="2.end" fill="freeze"
      path="M393 167L393 213.5C393 216.814 395.686 219.5 399 219.5L664 219.5C667.314 219.5 670 222.186 670 225.5L670 272"/>
</circle>
<circle r="3.5" fill="#305680" opacity="0">
<animate attributeName="opacity" values="0;1" dur="0.1s" begin="2.end" fill="freeze"/>
<animateMotion id="in1" dur="4s" begin="2.end" fill="freeze"
      path="M375 167L375 213.5C375 216.814 372.314 219.5 369 219.5L104 219.5C100.686 219.5 98 222.186 98 225.5L98 272"/>
</circle>
<circle r="3.5" fill="#305680" opacity="0">
<animate attributeName="opacity" values="0;1" dur="0.1s" begin="2.end" fill="freeze"/>
<animateMotion id="in2" dur="3s" begin="2.end" fill="freeze"
      path="M384 167L384 272"/>
</circle>
<circle r="3.5" fill="#305680" opacity="0">
<animate attributeName="opacity" values="0;1" dur="0.1s" begin="22.end" fill="freeze"/>
<animateMotion id="in33" dur="5s" begin="22.end" fill="freeze"
      path="M393 167L393 213.5C393 216.814 395.686 219.5 399 219.5L664 219.5C667.314 219.5 670 222.186 670 225.5L670 272"/>
</circle>
<circle r="3.5" fill="#305680" opacity="0">
<animate attributeName="opacity" values="0;1" dur="0.1s" begin="22.end" fill="freeze"/>
<animateMotion id="in11" dur="4s" begin="22.end" fill="freeze"
      path="M375 167L375 213.5C375 216.814 372.314 219.5 369 219.5L104 219.5C100.686 219.5 98 222.186 98 225.5L98 272"/>
</circle>
<circle r="3.5" fill="#305680" opacity="0">
<animate attributeName="opacity" values="0;1" dur="0.1s" begin="22.end" fill="freeze"/>
<animateMotion id="in22" dur="3s" begin="22.end" fill="freeze"
      path="M384 167L384 272"/>
</circle>

<rect x="572.5" y="259.5" width="195" height="129" rx="9.5" stroke="#B7B7B7" stroke-linecap="round" stroke-dasharray="5 5" fill="white"/>
<path d="M591.977 283H587.131V274.434H591.977V275.617H588.531V277.949H591.76V279.121H588.531V281.811H591.977V283ZM595.873 283.117C595.064 283.117 594.434 282.824 593.98 282.238C593.527 281.652 593.301 280.83 593.301 279.771C593.301 278.709 593.529 277.883 593.986 277.293C594.447 276.699 595.084 276.402 595.896 276.402C596.748 276.402 597.396 276.717 597.842 277.346H597.912C597.846 276.881 597.812 276.514 597.812 276.244V273.883H599.195V283H598.117L597.877 282.15H597.812C597.371 282.795 596.725 283.117 595.873 283.117ZM596.242 282.004C596.809 282.004 597.221 281.846 597.479 281.529C597.736 281.209 597.869 280.691 597.877 279.977V279.783C597.877 278.967 597.744 278.387 597.479 278.043C597.213 277.699 596.797 277.527 596.23 277.527C595.746 277.527 595.373 277.725 595.111 278.119C594.85 278.51 594.719 279.068 594.719 279.795C594.719 280.514 594.846 281.062 595.1 281.441C595.354 281.816 595.734 282.004 596.242 282.004ZM606.637 276.52V277.275L605.529 277.48C605.631 277.617 605.715 277.785 605.781 277.984C605.848 278.184 605.881 278.395 605.881 278.617C605.881 279.285 605.65 279.811 605.189 280.193C604.729 280.576 604.094 280.768 603.285 280.768C603.078 280.768 602.891 280.752 602.723 280.721C602.426 280.904 602.277 281.119 602.277 281.365C602.277 281.514 602.346 281.625 602.482 281.699C602.623 281.773 602.879 281.811 603.25 281.811H604.381C605.096 281.811 605.639 281.963 606.01 282.268C606.381 282.572 606.566 283.012 606.566 283.586C606.566 284.32 606.264 284.887 605.658 285.285C605.053 285.684 604.178 285.883 603.033 285.883C602.15 285.883 601.477 285.727 601.012 285.414C600.547 285.102 600.314 284.656 600.314 284.078C600.314 283.68 600.439 283.344 600.689 283.07C600.943 282.801 601.297 282.613 601.75 282.508C601.566 282.43 601.414 282.305 601.293 282.133C601.176 281.957 601.117 281.773 601.117 281.582C601.117 281.34 601.186 281.135 601.322 280.967C601.459 280.799 601.662 280.633 601.932 280.469C601.596 280.324 601.322 280.09 601.111 279.766C600.904 279.438 600.801 279.055 600.801 278.617C600.801 277.914 601.021 277.369 601.463 276.982C601.908 276.596 602.541 276.402 603.361 276.402C603.545 276.402 603.736 276.416 603.936 276.443C604.139 276.467 604.291 276.492 604.393 276.52H606.637ZM601.545 284.008C601.545 284.305 601.678 284.533 601.943 284.693C602.213 284.854 602.59 284.934 603.074 284.934C603.824 284.934 604.383 284.826 604.75 284.611C605.117 284.396 605.301 284.111 605.301 283.756C605.301 283.475 605.199 283.273 604.996 283.152C604.797 283.035 604.424 282.977 603.877 282.977H602.834C602.439 282.977 602.125 283.068 601.891 283.252C601.66 283.439 601.545 283.691 601.545 284.008ZM602.137 278.617C602.137 279.023 602.24 279.336 602.447 279.555C602.658 279.773 602.959 279.883 603.35 279.883C604.146 279.883 604.545 279.457 604.545 278.605C604.545 278.184 604.445 277.859 604.246 277.633C604.051 277.402 603.752 277.287 603.35 277.287C602.951 277.287 602.648 277.4 602.441 277.627C602.238 277.854 602.137 278.184 602.137 278.617ZM610.674 283.117C609.666 283.117 608.877 282.824 608.307 282.238C607.74 281.648 607.457 280.838 607.457 279.807C607.457 278.748 607.721 277.916 608.248 277.311C608.775 276.705 609.5 276.402 610.422 276.402C611.277 276.402 611.953 276.662 612.449 277.182C612.945 277.701 613.193 278.416 613.193 279.326V280.07H608.875C608.895 280.699 609.064 281.184 609.385 281.523C609.705 281.859 610.156 282.027 610.738 282.027C611.121 282.027 611.477 281.992 611.805 281.922C612.137 281.848 612.492 281.727 612.871 281.559V282.678C612.535 282.838 612.195 282.951 611.852 283.018C611.508 283.084 611.115 283.117 610.674 283.117ZM610.422 277.445C609.984 277.445 609.633 277.584 609.367 277.861C609.105 278.139 608.949 278.543 608.898 279.074H611.84C611.832 278.539 611.703 278.135 611.453 277.861C611.203 277.584 610.859 277.445 610.422 277.445ZM619.785 276.402C619.785 276.945 619.627 277.398 619.311 277.762C618.994 278.121 618.549 278.363 617.975 278.488V278.535C618.662 278.621 619.178 278.836 619.521 279.18C619.865 279.52 620.037 279.973 620.037 280.539C620.037 281.363 619.746 282 619.164 282.449C618.582 282.895 617.754 283.117 616.68 283.117C615.73 283.117 614.93 282.963 614.277 282.654V281.43C614.641 281.609 615.025 281.748 615.432 281.846C615.838 281.943 616.229 281.992 616.604 281.992C617.268 281.992 617.764 281.869 618.092 281.623C618.42 281.377 618.584 280.996 618.584 280.48C618.584 280.023 618.402 279.688 618.039 279.473C617.676 279.258 617.105 279.15 616.328 279.15H615.584V278.031H616.34C617.707 278.031 618.391 277.559 618.391 276.613C618.391 276.246 618.271 275.963 618.033 275.764C617.795 275.564 617.443 275.465 616.979 275.465C616.654 275.465 616.342 275.512 616.041 275.605C615.74 275.695 615.385 275.873 614.975 276.139L614.301 275.178C615.086 274.6 615.998 274.311 617.037 274.311C617.9 274.311 618.574 274.496 619.059 274.867C619.543 275.238 619.785 275.75 619.785 276.402Z" fill="#28232D"/>
<rect x="286.5" y="259.5" width="195" height="129" rx="9.5" stroke="#B7B7B7" stroke-linecap="round" stroke-dasharray="5 5" fill="white"/>
<path d="M305.977 283H301.131V274.434H305.977V275.617H302.531V277.949H305.76V279.121H302.531V281.811H305.977V283ZM309.873 283.117C309.064 283.117 308.434 282.824 307.98 282.238C307.527 281.652 307.301 280.83 307.301 279.771C307.301 278.709 307.529 277.883 307.986 277.293C308.447 276.699 309.084 276.402 309.896 276.402C310.748 276.402 311.396 276.717 311.842 277.346H311.912C311.846 276.881 311.812 276.514 311.812 276.244V273.883H313.195V283H312.117L311.877 282.15H311.812C311.371 282.795 310.725 283.117 309.873 283.117ZM310.242 282.004C310.809 282.004 311.221 281.846 311.479 281.529C311.736 281.209 311.869 280.691 311.877 279.977V279.783C311.877 278.967 311.744 278.387 311.479 278.043C311.213 277.699 310.797 277.527 310.23 277.527C309.746 277.527 309.373 277.725 309.111 278.119C308.85 278.51 308.719 279.068 308.719 279.795C308.719 280.514 308.846 281.062 309.1 281.441C309.354 281.816 309.734 282.004 310.242 282.004ZM320.637 276.52V277.275L319.529 277.48C319.631 277.617 319.715 277.785 319.781 277.984C319.848 278.184 319.881 278.395 319.881 278.617C319.881 279.285 319.65 279.811 319.189 280.193C318.729 280.576 318.094 280.768 317.285 280.768C317.078 280.768 316.891 280.752 316.723 280.721C316.426 280.904 316.277 281.119 316.277 281.365C316.277 281.514 316.346 281.625 316.482 281.699C316.623 281.773 316.879 281.811 317.25 281.811H318.381C319.096 281.811 319.639 281.963 320.01 282.268C320.381 282.572 320.566 283.012 320.566 283.586C320.566 284.32 320.264 284.887 319.658 285.285C319.053 285.684 318.178 285.883 317.033 285.883C316.15 285.883 315.477 285.727 315.012 285.414C314.547 285.102 314.314 284.656 314.314 284.078C314.314 283.68 314.439 283.344 314.689 283.07C314.943 282.801 315.297 282.613 315.75 282.508C315.566 282.43 315.414 282.305 315.293 282.133C315.176 281.957 315.117 281.773 315.117 281.582C315.117 281.34 315.186 281.135 315.322 280.967C315.459 280.799 315.662 280.633 315.932 280.469C315.596 280.324 315.322 280.09 315.111 279.766C314.904 279.438 314.801 279.055 314.801 278.617C314.801 277.914 315.021 277.369 315.463 276.982C315.908 276.596 316.541 276.402 317.361 276.402C317.545 276.402 317.736 276.416 317.936 276.443C318.139 276.467 318.291 276.492 318.393 276.52H320.637ZM315.545 284.008C315.545 284.305 315.678 284.533 315.943 284.693C316.213 284.854 316.59 284.934 317.074 284.934C317.824 284.934 318.383 284.826 318.75 284.611C319.117 284.396 319.301 284.111 319.301 283.756C319.301 283.475 319.199 283.273 318.996 283.152C318.797 283.035 318.424 282.977 317.877 282.977H316.834C316.439 282.977 316.125 283.068 315.891 283.252C315.66 283.439 315.545 283.691 315.545 284.008ZM316.137 278.617C316.137 279.023 316.24 279.336 316.447 279.555C316.658 279.773 316.959 279.883 317.35 279.883C318.146 279.883 318.545 279.457 318.545 278.605C318.545 278.184 318.445 277.859 318.246 277.633C318.051 277.402 317.752 277.287 317.35 277.287C316.951 277.287 316.648 277.4 316.441 277.627C316.238 277.854 316.137 278.184 316.137 278.617ZM324.674 283.117C323.666 283.117 322.877 282.824 322.307 282.238C321.74 281.648 321.457 280.838 321.457 279.807C321.457 278.748 321.721 277.916 322.248 277.311C322.775 276.705 323.5 276.402 324.422 276.402C325.277 276.402 325.953 276.662 326.449 277.182C326.945 277.701 327.193 278.416 327.193 279.326V280.07H322.875C322.895 280.699 323.064 281.184 323.385 281.523C323.705 281.859 324.156 282.027 324.738 282.027C325.121 282.027 325.477 281.992 325.805 281.922C326.137 281.848 326.492 281.727 326.871 281.559V282.678C326.535 282.838 326.195 282.951 325.852 283.018C325.508 283.084 325.115 283.117 324.674 283.117ZM324.422 277.445C323.984 277.445 323.633 277.584 323.367 277.861C323.105 278.139 322.949 278.543 322.898 279.074H325.84C325.832 278.539 325.703 278.135 325.453 277.861C325.203 277.584 324.859 277.445 324.422 277.445ZM334.107 283H328.301V281.957L330.51 279.736C331.162 279.068 331.594 278.596 331.805 278.318C332.02 278.037 332.176 277.773 332.273 277.527C332.371 277.281 332.42 277.018 332.42 276.736C332.42 276.35 332.303 276.045 332.068 275.822C331.838 275.6 331.518 275.488 331.107 275.488C330.779 275.488 330.461 275.549 330.152 275.67C329.848 275.791 329.494 276.01 329.092 276.326L328.348 275.418C328.824 275.016 329.287 274.73 329.736 274.562C330.186 274.395 330.664 274.311 331.172 274.311C331.969 274.311 332.607 274.52 333.088 274.938C333.568 275.352 333.809 275.91 333.809 276.613C333.809 277 333.738 277.367 333.598 277.715C333.461 278.062 333.248 278.422 332.959 278.793C332.674 279.16 332.197 279.658 331.529 280.287L330.041 281.729V281.787H334.107V283Z" fill="#28232D"/>
<rect x="0.5" y="259.5" width="195" height="129" rx="9.5" stroke="#B7B7B7" stroke-linecap="round" stroke-dasharray="5 5" fill="white"/>
<path d="M19.9766 283H15.1309V274.434H19.9766V275.617H16.5312V277.949H19.7598V279.121H16.5312V281.811H19.9766V283ZM23.873 283.117C23.0645 283.117 22.4336 282.824 21.9805 282.238C21.5273 281.652 21.3008 280.83 21.3008 279.771C21.3008 278.709 21.5293 277.883 21.9863 277.293C22.4473 276.699 23.084 276.402 23.8965 276.402C24.748 276.402 25.3965 276.717 25.8418 277.346H25.9121C25.8457 276.881 25.8125 276.514 25.8125 276.244V273.883H27.1953V283H26.1172L25.877 282.15H25.8125C25.3711 282.795 24.7246 283.117 23.873 283.117ZM24.2422 282.004C24.8086 282.004 25.2207 281.846 25.4785 281.529C25.7363 281.209 25.8691 280.691 25.877 279.977V279.783C25.877 278.967 25.7441 278.387 25.4785 278.043C25.2129 277.699 24.7969 277.527 24.2305 277.527C23.7461 277.527 23.373 277.725 23.1113 278.119C22.8496 278.51 22.7188 279.068 22.7188 279.795C22.7188 280.514 22.8457 281.062 23.0996 281.441C23.3535 281.816 23.7344 282.004 24.2422 282.004ZM34.6367 276.52V277.275L33.5293 277.48C33.6309 277.617 33.7148 277.785 33.7812 277.984C33.8477 278.184 33.8809 278.395 33.8809 278.617C33.8809 279.285 33.6504 279.811 33.1895 280.193C32.7285 280.576 32.0938 280.768 31.2852 280.768C31.0781 280.768 30.8906 280.752 30.7227 280.721C30.4258 280.904 30.2773 281.119 30.2773 281.365C30.2773 281.514 30.3457 281.625 30.4824 281.699C30.623 281.773 30.8789 281.811 31.25 281.811H32.3809C33.0957 281.811 33.6387 281.963 34.0098 282.268C34.3809 282.572 34.5664 283.012 34.5664 283.586C34.5664 284.32 34.2637 284.887 33.6582 285.285C33.0527 285.684 32.1777 285.883 31.0332 285.883C30.1504 285.883 29.4766 285.727 29.0117 285.414C28.5469 285.102 28.3145 284.656 28.3145 284.078C28.3145 283.68 28.4395 283.344 28.6895 283.07C28.9434 282.801 29.2969 282.613 29.75 282.508C29.5664 282.43 29.4141 282.305 29.293 282.133C29.1758 281.957 29.1172 281.773 29.1172 281.582C29.1172 281.34 29.1855 281.135 29.3223 280.967C29.459 280.799 29.6621 280.633 29.9316 280.469C29.5957 280.324 29.3223 280.09 29.1113 279.766C28.9043 279.438 28.8008 279.055 28.8008 278.617C28.8008 277.914 29.0215 277.369 29.4629 276.982C29.9082 276.596 30.541 276.402 31.3613 276.402C31.5449 276.402 31.7363 276.416 31.9355 276.443C32.1387 276.467 32.291 276.492 32.3926 276.52H34.6367ZM29.5449 284.008C29.5449 284.305 29.6777 284.533 29.9434 284.693C30.2129 284.854 30.5898 284.934 31.0742 284.934C31.8242 284.934 32.3828 284.826 32.75 284.611C33.1172 284.396 33.3008 284.111 33.3008 283.756C33.3008 283.475 33.1992 283.273 32.9961 283.152C32.7969 283.035 32.4238 282.977 31.877 282.977H30.834C30.4395 282.977 30.125 283.068 29.8906 283.252C29.6602 283.439 29.5449 283.691 29.5449 284.008ZM30.1367 278.617C30.1367 279.023 30.2402 279.336 30.4473 279.555C30.6582 279.773 30.959 279.883 31.3496 279.883C32.1465 279.883 32.5449 279.457 32.5449 278.605C32.5449 278.184 32.4453 277.859 32.2461 277.633C32.0508 277.402 31.752 277.287 31.3496 277.287C30.9512 277.287 30.6484 277.4 30.4414 277.627C30.2383 277.854 30.1367 278.184 30.1367 278.617ZM38.6738 283.117C37.666 283.117 36.877 282.824 36.3066 282.238C35.7402 281.648 35.457 280.838 35.457 279.807C35.457 278.748 35.7207 277.916 36.248 277.311C36.7754 276.705 37.5 276.402 38.4219 276.402C39.2773 276.402 39.9531 276.662 40.4492 277.182C40.9453 277.701 41.1934 278.416 41.1934 279.326V280.07H36.875C36.8945 280.699 37.0645 281.184 37.3848 281.523C37.7051 281.859 38.1562 282.027 38.7383 282.027C39.1211 282.027 39.4766 281.992 39.8047 281.922C40.1367 281.848 40.4922 281.727 40.8711 281.559V282.678C40.5352 282.838 40.1953 282.951 39.8516 283.018C39.5078 283.084 39.1152 283.117 38.6738 283.117ZM38.4219 277.445C37.9844 277.445 37.6328 277.584 37.3672 277.861C37.1055 278.139 36.9492 278.543 36.8984 279.074H39.8398C39.832 278.539 39.7031 278.135 39.4531 277.861C39.2031 277.584 38.8594 277.445 38.4219 277.445ZM46.3438 283H44.9668V277.469C44.9668 276.809 44.9824 276.285 45.0137 275.898C44.9238 275.992 44.8125 276.096 44.6797 276.209C44.5508 276.322 44.1133 276.682 43.3672 277.287L42.6758 276.414L45.1953 274.434H46.3438V283Z" fill="#28232D"/>
<path d="M429.605 18.5968C431.266 18.363 432.939 18.1973 434.622 18.1008C434.636 18.3756 434.87 18.5871 435.145 18.5736C436.141 18.5246 437.139 18.5 438.141 18.5C438.941 18.5 439.737 18.515 440.53 18.5448C440.805 18.5552 441.037 18.3409 441.049 18.0659C442.327 18.124 443.595 18.2202 444.852 18.3533C444.822 18.6269 445.019 18.8735 445.293 18.9047C446.884 19.0859 448.458 19.3269 450.012 19.6253C450.282 19.6773 450.544 19.5007 450.597 19.2306C451.848 19.4813 453.086 19.769 454.31 20.0926C454.239 20.3584 454.396 20.6321 454.661 20.7047C456.204 21.1258 457.723 21.6043 459.217 22.138C459.476 22.2307 459.761 22.0961 459.855 21.8372C461.052 22.2758 462.232 22.7496 463.394 23.2572C463.283 23.509 463.396 23.8035 463.648 23.9158C465.106 24.5664 466.534 25.2709 467.93 26.0269C468.173 26.158 468.475 26.0684 468.607 25.8269C469.722 26.4419 470.816 27.0895 471.889 27.7684C471.741 28.0004 471.808 28.3087 472.04 28.4578C473.38 29.3211 474.685 30.2339 475.953 31.1937C476.173 31.36 476.485 31.3173 476.652 31.0985C477.661 31.8744 478.645 32.6799 479.604 33.5138C479.422 33.7208 479.442 34.0357 479.648 34.2181C480.842 35.2727 481.995 36.3718 483.105 37.5129C483.297 37.7104 483.612 37.7152 483.81 37.5241C484.689 38.4422 485.541 39.3868 486.364 40.3563C486.153 40.5336 486.125 40.8479 486.302 41.0593C487.322 42.2804 488.296 43.5407 489.222 44.8376C489.382 45.0618 489.693 45.1142 489.918 44.9552C490.647 45.9948 491.347 47.0573 492.014 48.1413C491.779 48.2846 491.704 48.5911 491.846 48.8268C492.668 50.1865 493.44 51.5796 494.159 53.0037C494.283 53.2497 494.582 53.3488 494.828 53.2258C495.391 54.3629 495.92 55.5191 496.414 56.6934C496.16 56.7991 496.039 57.0906 496.144 57.3453C496.748 58.8122 497.297 60.3069 497.789 61.8269C497.874 62.0889 498.155 62.2329 498.417 62.1491C498.798 63.3576 499.143 64.5817 499.452 65.8202C499.184 65.8856 499.02 66.155 499.084 66.4228C499.27 67.1949 499.441 67.9726 499.598 68.7555C499.797 69.7502 500.112 70.7079 500.531 71.6125C500.647 71.8631 500.944 71.9724 501.194 71.8565C501.197 71.8551 501.2 71.8537 501.203 71.8522C501.932 73.2749 502.93 74.5489 504.135 75.6027C504.133 75.6052 504.131 75.6077 504.129 75.6103C503.956 75.8252 503.989 76.14 504.204 76.3134C504.979 76.9391 505.829 77.4804 506.739 77.9214C507.492 78.2862 508.236 78.6677 508.969 79.0654C509.212 79.1967 509.514 79.1075 509.646 78.8662C510.832 79.523 511.991 80.2219 513.121 80.9606C512.97 81.1902 513.032 81.4994 513.261 81.6521C514.654 82.5807 516.002 83.5706 517.301 84.6177C517.516 84.7906 517.83 84.7574 518.003 84.544C519.05 85.4032 520.064 86.2995 521.044 87.2305C520.854 87.4291 520.859 87.7444 521.057 87.9359C522.26 89.0987 523.408 90.3147 524.498 91.5794C524.678 91.7879 524.993 91.8117 525.202 91.633C526.076 92.6658 526.913 93.73 527.709 94.8234C527.486 94.9843 527.435 95.2955 527.595 95.5196C528.566 96.8789 529.475 98.2825 530.318 99.7259C530.457 99.9637 530.762 100.044 531 99.9068C531.671 101.081 532.298 102.28 532.88 103.503C532.631 103.62 532.523 103.916 532.64 104.166C533.342 105.678 533.975 107.225 534.534 108.803C534.625 109.063 534.91 109.199 535.17 109.108C535.608 110.385 535.998 111.68 536.339 112.993C536.072 113.061 535.91 113.332 535.977 113.599C536.378 115.212 536.704 116.851 536.949 118.512C536.99 118.784 537.243 118.973 537.515 118.934C537.699 120.267 537.832 121.613 537.911 122.971C537.637 122.986 537.425 123.22 537.439 123.495C537.479 124.326 537.5 125.161 537.5 126C537.5 126.787 537.482 127.57 537.448 128.349C537.435 128.624 537.648 128.857 537.923 128.871C537.855 130.124 537.743 131.367 537.589 132.596C537.316 132.561 537.065 132.752 537.029 133.025C536.818 134.586 536.537 136.127 536.191 137.643C536.13 137.911 536.297 138.178 536.565 138.241C536.274 139.458 535.942 140.66 535.569 141.844C535.307 141.76 535.026 141.904 534.941 142.166C534.455 143.66 533.903 145.125 533.29 146.56C533.182 146.813 533.299 147.106 533.551 147.215C533.049 148.359 532.508 149.483 531.929 150.585C531.686 150.456 531.385 150.548 531.254 150.79C530.513 152.172 529.712 153.518 528.854 154.825C528.703 155.056 528.767 155.365 528.996 155.516C528.303 156.553 527.574 157.566 526.812 158.551C526.595 158.382 526.282 158.42 526.112 158.636C525.143 159.867 524.121 161.054 523.05 162.197C522.862 162.398 522.871 162.713 523.071 162.902C522.211 163.803 521.319 164.676 520.399 165.518C520.214 165.314 519.899 165.298 519.694 165.482C518.531 166.528 517.322 167.524 516.071 168.469C515.851 168.635 515.807 168.947 515.972 169.167C514.971 169.909 513.945 170.617 512.894 171.291C512.747 171.059 512.439 170.99 512.206 171.136C510.883 171.968 509.522 172.745 508.127 173.464C507.883 173.59 507.786 173.89 507.911 174.135C506.8 174.695 505.667 175.219 504.516 175.704C504.41 175.45 504.119 175.329 503.864 175.434C502.421 176.026 500.948 176.559 499.448 177.029C499.185 177.111 499.038 177.39 499.119 177.653C497.931 178.013 496.726 178.334 495.506 178.614C495.446 178.346 495.18 178.176 494.911 178.235C493.391 178.57 491.848 178.841 490.286 179.044C490.013 179.08 489.821 179.33 489.855 179.603C488.624 179.752 487.381 179.86 486.128 179.925C486.115 179.65 485.883 179.438 485.607 179.449C484.828 179.483 484.045 179.5 483.258 179.5H480.776C480.5 179.5 480.276 179.724 480.276 180H476.313C476.313 179.724 476.09 179.5 475.813 179.5H470.851C470.574 179.5 470.351 179.724 470.351 180H466.388C466.388 179.724 466.164 179.5 465.888 179.5H460.925C460.649 179.5 460.425 179.724 460.425 180H456.462C456.462 179.724 456.238 179.5 455.962 179.5H450.999C450.723 179.5 450.499 179.724 450.499 180H446.536C446.536 179.724 446.312 179.5 446.036 179.5H441.073C440.797 179.5 440.573 179.724 440.573 180H436.61C436.61 179.724 436.386 179.5 436.11 179.5H431.147C430.871 179.5 430.647 179.724 430.647 180H426.685C426.685 179.724 426.461 179.5 426.185 179.5H421.222C420.946 179.5 420.722 179.724 420.722 180H416.759C416.759 179.724 416.535 179.5 416.259 179.5H411.296C411.02 179.5 410.796 179.724 410.796 180H406.833C406.833 179.724 406.609 179.5 406.333 179.5H401.37C401.094 179.5 400.87 179.724 400.87 180H396.907C396.907 179.724 396.683 179.5 396.407 179.5H391.444C391.168 179.5 390.944 179.724 390.944 180H386.981C386.981 179.724 386.758 179.5 386.481 179.5H381.519C381.242 179.5 381.019 179.724 381.019 180H377.056C377.056 179.724 376.832 179.5 376.556 179.5H371.593C371.317 179.5 371.093 179.724 371.093 180H367.13C367.13 179.724 366.906 179.5 366.63 179.5H361.667C361.391 179.5 361.167 179.724 361.167 180H357.204C357.204 179.724 356.98 179.5 356.704 179.5H351.741C351.465 179.5 351.241 179.724 351.241 180H347.278C347.278 179.724 347.054 179.5 346.778 179.5H341.815C341.539 179.5 341.315 179.724 341.315 180H337.353C337.353 179.724 337.129 179.5 336.853 179.5H331.89C331.614 179.5 331.39 179.724 331.39 180H327.427C327.427 179.724 327.203 179.5 326.927 179.5H321.964C321.688 179.5 321.464 179.724 321.464 180H317.501C317.501 179.724 317.277 179.5 317.001 179.5H312.038C311.762 179.5 311.538 179.724 311.538 180H307.575C307.575 179.724 307.351 179.5 307.075 179.5H302.112C301.836 179.5 301.612 179.724 301.612 180H297.649C297.649 179.724 297.426 179.5 297.149 179.5H292.187C291.91 179.5 291.687 179.724 291.687 180H287.724C287.724 179.724 287.5 179.5 287.224 179.5H284.742C283.955 179.5 283.172 179.483 282.393 179.449C282.117 179.438 281.885 179.65 281.872 179.925C280.619 179.86 279.376 179.752 278.145 179.603C278.179 179.33 277.987 179.08 277.714 179.044C276.152 178.841 274.609 178.57 273.089 178.235C272.82 178.176 272.554 178.346 272.494 178.614C271.274 178.334 270.069 178.013 268.881 177.653C268.962 177.39 268.815 177.111 268.552 177.029C267.052 176.559 265.579 176.026 264.136 175.434C263.881 175.329 263.59 175.45 263.484 175.704C262.333 175.219 261.2 174.695 260.089 174.135C260.214 173.89 260.117 173.59 259.873 173.464C258.478 172.745 257.117 171.968 255.794 171.136C255.561 170.99 255.253 171.059 255.106 171.291C254.055 170.617 253.029 169.909 252.028 169.167C252.193 168.947 252.149 168.635 251.929 168.469C250.678 167.524 249.469 166.528 248.306 165.482C248.101 165.298 247.786 165.314 247.601 165.518C246.681 164.676 245.789 163.803 244.929 162.902C245.129 162.713 245.138 162.398 244.95 162.197C243.879 161.054 242.857 159.867 241.888 158.636C241.718 158.42 241.405 158.382 241.188 158.551C240.426 157.566 239.697 156.553 239.004 155.516C239.233 155.365 239.297 155.056 239.146 154.825C238.288 153.518 237.487 152.172 236.746 150.79C236.615 150.548 236.314 150.456 236.071 150.585C235.492 149.483 234.951 148.359 234.449 147.215C234.701 147.106 234.818 146.813 234.71 146.56C234.097 145.125 233.545 143.66 233.059 142.166C232.974 141.904 232.693 141.76 232.431 141.844C232.058 140.66 231.726 139.458 231.435 138.241C231.703 138.178 231.87 137.911 231.809 137.643C231.463 136.127 231.183 134.586 230.971 133.025C230.935 132.752 230.684 132.561 230.411 132.596C230.257 131.367 230.145 130.124 230.077 128.871C230.352 128.857 230.565 128.624 230.552 128.349C230.518 127.57 230.5 126.787 230.5 126C230.5 125.164 230.52 124.332 230.561 123.504C230.574 123.229 230.363 122.995 230.088 122.98C230.167 121.629 230.299 120.288 230.482 118.961C230.754 119 231.007 118.811 231.047 118.539C231.291 116.884 231.614 115.251 232.013 113.643C232.08 113.375 231.917 113.105 231.651 113.038C231.989 111.73 232.376 110.44 232.811 109.169C233.071 109.259 233.355 109.122 233.447 108.863C234.002 107.29 234.63 105.747 235.328 104.24C235.444 103.99 235.336 103.694 235.087 103.577C235.664 102.359 236.287 101.164 236.953 99.9943C237.192 100.131 237.496 100.05 237.635 99.8122C238.472 98.3725 239.375 96.9723 240.34 95.616C240.5 95.3916 240.448 95.0805 240.224 94.92C241.015 93.8299 241.846 92.7686 242.714 91.7384C242.923 91.9166 243.238 91.8921 243.417 91.6831C244.501 90.4203 245.642 89.2058 246.836 88.044C247.034 87.852 247.039 87.5366 246.848 87.3386C247.821 86.4091 248.828 85.5139 249.868 84.6553C250.042 84.8682 250.356 84.9004 250.569 84.7269C251.861 83.6795 253.201 82.6887 254.586 81.7588C254.814 81.6053 254.876 81.2959 254.723 81.0668C255.846 80.3274 256.997 79.6274 258.175 78.9691C258.308 79.2099 258.611 79.2979 258.853 79.1657C259.582 78.7666 260.321 78.3835 261.07 78.0171C261.994 77.5652 262.855 77.0103 263.638 76.3686C263.852 76.1936 263.883 75.8786 263.708 75.665C263.706 75.6624 263.704 75.6599 263.702 75.6574C264.925 74.5715 265.927 73.2572 266.633 71.7899C266.636 71.7913 266.639 71.7927 266.643 71.7941C266.896 71.9033 267.19 71.7863 267.3 71.5326C267.7 70.6016 267.989 69.616 268.149 68.5927C268.283 67.7353 268.43 66.8823 268.591 66.034C268.642 65.7632 268.465 65.5021 268.194 65.4499C268.466 64.0647 268.773 62.692 269.115 61.3328C269.381 61.4008 269.653 61.24 269.722 60.9731C270.156 59.2919 270.642 57.6317 271.181 55.9945C271.267 55.7326 271.125 55.4506 270.863 55.3638C271.312 54.0272 271.794 52.7061 272.31 51.4013C272.566 51.5034 272.856 51.3792 272.959 51.1235C273.606 49.5148 274.304 47.9315 275.051 46.3756C275.17 46.1271 275.065 45.8291 274.818 45.7092C275.435 44.4429 276.084 43.195 276.765 41.9665C277.005 42.1007 277.309 42.0151 277.444 41.7748C278.293 40.2647 279.189 38.7844 280.13 37.3361C280.28 37.105 280.215 36.796 279.984 36.6452C280.759 35.4695 281.563 34.315 282.396 33.1828C282.617 33.3468 282.93 33.3008 283.094 33.0798C284.129 31.6921 285.206 30.3386 286.326 29.0213C286.504 28.8113 286.479 28.4965 286.27 28.3175C287.187 27.2509 288.132 26.2083 289.104 25.1907C289.302 25.3815 289.618 25.3757 289.809 25.1775C291.011 23.9338 292.252 22.7285 293.531 21.5636C293.735 21.378 293.75 21.0625 293.565 20.8584C294.61 19.9177 295.68 19.0037 296.774 18.1174C296.947 18.3319 297.26 18.3663 297.476 18.1941C298.825 17.1142 300.209 16.0766 301.627 15.0833C301.852 14.9252 301.907 14.6142 301.75 14.3882C302.906 13.5888 304.084 12.8185 305.282 12.0785C305.426 12.3133 305.733 12.3875 305.968 12.2441C307.443 11.346 308.948 10.4937 310.483 9.68926C310.727 9.56128 310.821 9.25996 310.694 9.01563C311.942 8.37125 313.208 7.75822 314.493 7.17758C314.605 7.42891 314.9 7.54187 315.152 7.42987C316.728 6.72907 318.33 6.07723 319.957 5.47628C320.216 5.38078 320.348 5.09412 320.254 4.83546C321.573 4.35759 322.907 3.91288 324.257 3.50236C324.336 3.76612 324.614 3.91615 324.878 3.83757C326.53 3.34638 328.203 2.9066 329.897 2.52013C330.165 2.45881 330.334 2.19165 330.273 1.92294C331.641 1.61979 333.021 1.35113 334.413 1.11794C334.458 1.38973 334.714 1.57435 334.986 1.5305C336.685 1.25673 338.401 1.03605 340.134 0.870204C340.408 0.843937 340.609 0.600619 340.584 0.326357C341.977 0.201602 343.38 0.112092 344.793 0.0587283C344.802 0.334007 345.033 0.54985 345.308 0.541119C346.171 0.513776 347.037 0.5 347.906 0.5C348.723 0.5 349.538 0.512109 350.35 0.536226C350.625 0.544406 350.856 0.328099 350.865 0.0527982C352.174 0.0996048 353.477 0.177429 354.773 0.285859C354.749 0.560267 354.952 0.8024 355.226 0.827056C356.855 0.973315 358.472 1.16822 360.077 1.41092C360.35 1.45214 360.604 1.26505 360.646 0.992845C361.939 1.19652 363.223 1.43107 364.498 1.69607C364.441 1.96555 364.613 2.23046 364.883 2.28822C366.479 2.63029 368.06 3.02043 369.625 3.45779C369.891 3.53197 370.166 3.37735 370.241 3.11231C371.498 3.47199 372.744 3.86198 373.978 4.28187C373.889 4.54233 374.027 4.82631 374.287 4.9167C375.827 5.45119 377.349 6.03261 378.85 6.66007C379.104 6.76634 379.397 6.64676 379.504 6.39296C380.705 6.90392 381.894 7.44426 383.068 8.01357C382.948 8.26104 383.05 8.55985 383.297 8.6816C384.757 9.40058 386.196 10.1648 387.611 10.9733C387.85 11.11 388.155 11.0273 388.292 10.7885C389.42 11.4426 390.533 12.1248 391.631 12.8347C391.48 13.0654 391.545 13.3745 391.776 13.5257C393.135 14.4171 394.469 15.3516 395.777 16.3282C395.998 16.4931 396.31 16.4482 396.476 16.228C397.515 17.0139 398.537 17.8263 399.541 18.6649C399.364 18.8758 399.39 19.1904 399.601 19.3684C400.222 19.8935 400.836 20.4288 401.442 20.9741C402.342 21.7823 403.342 22.4388 404.406 22.9407C404.655 23.0585 404.953 22.9515 405.071 22.7018C405.073 22.6986 405.074 22.6954 405.076 22.6923C406.874 23.4502 408.841 23.7623 410.794 23.612C410.794 23.6153 410.794 23.6187 410.795 23.622C410.827 23.8962 411.076 24.0924 411.35 24.0602C412.517 23.9231 413.674 23.626 414.785 23.1655C415.71 22.7822 416.642 22.422 417.58 22.0851C417.84 21.992 417.975 21.7068 417.883 21.4474C419.472 20.8912 421.08 20.4009 422.704 19.9776C422.772 20.2442 423.044 20.4056 423.311 20.3383C425.248 19.8502 427.207 19.4578 429.184 19.163C429.457 19.1224 429.645 18.8691 429.605 18.5968Z" stroke="#B7B7B7" stroke-linecap="round" stroke-dasharray="5 5" fill="white"/>
<path d="M333.445 166H332.045V158.635H329.525V157.434H335.965V158.635H333.445V166ZM342.838 166H341.455V162.016C341.455 161.516 341.354 161.143 341.15 160.896C340.951 160.65 340.633 160.527 340.195 160.527C339.617 160.527 339.191 160.701 338.918 161.049C338.648 161.393 338.514 161.971 338.514 162.783V166H337.137V156.883H338.514V159.197C338.514 159.568 338.49 159.965 338.443 160.387H338.531C338.719 160.074 338.979 159.832 339.311 159.66C339.646 159.488 340.037 159.402 340.482 159.402C342.053 159.402 342.838 160.193 342.838 161.775V166ZM346.131 166H344.754V159.52H346.131V166ZM344.672 157.803C344.672 157.557 344.738 157.367 344.871 157.234C345.008 157.102 345.201 157.035 345.451 157.035C345.693 157.035 345.881 157.102 346.014 157.234C346.15 157.367 346.219 157.557 346.219 157.803C346.219 158.037 346.15 158.223 346.014 158.359C345.881 158.492 345.693 158.559 345.451 158.559C345.201 158.559 345.008 158.492 344.871 158.359C344.738 158.223 344.672 158.037 344.672 157.803ZM353.807 166H352.424V162.016C352.424 161.516 352.322 161.143 352.119 160.896C351.92 160.65 351.602 160.527 351.164 160.527C350.582 160.527 350.156 160.699 349.887 161.043C349.617 161.387 349.482 161.963 349.482 162.771V166H348.105V159.52H349.184L349.377 160.369H349.447C349.643 160.061 349.92 159.822 350.279 159.654C350.639 159.486 351.037 159.402 351.475 159.402C353.029 159.402 353.807 160.193 353.807 161.775V166ZM361.195 159.52V160.275L360.088 160.48C360.189 160.617 360.273 160.785 360.34 160.984C360.406 161.184 360.439 161.395 360.439 161.617C360.439 162.285 360.209 162.811 359.748 163.193C359.287 163.576 358.652 163.768 357.844 163.768C357.637 163.768 357.449 163.752 357.281 163.721C356.984 163.904 356.836 164.119 356.836 164.365C356.836 164.514 356.904 164.625 357.041 164.699C357.182 164.773 357.438 164.811 357.809 164.811H358.939C359.654 164.811 360.197 164.963 360.568 165.268C360.939 165.572 361.125 166.012 361.125 166.586C361.125 167.32 360.822 167.887 360.217 168.285C359.611 168.684 358.736 168.883 357.592 168.883C356.709 168.883 356.035 168.727 355.57 168.414C355.105 168.102 354.873 167.656 354.873 167.078C354.873 166.68 354.998 166.344 355.248 166.07C355.502 165.801 355.855 165.613 356.309 165.508C356.125 165.43 355.973 165.305 355.852 165.133C355.734 164.957 355.676 164.773 355.676 164.582C355.676 164.34 355.744 164.135 355.881 163.967C356.018 163.799 356.221 163.633 356.49 163.469C356.154 163.324 355.881 163.09 355.67 162.766C355.463 162.438 355.359 162.055 355.359 161.617C355.359 160.914 355.58 160.369 356.021 159.982C356.467 159.596 357.1 159.402 357.92 159.402C358.104 159.402 358.295 159.416 358.494 159.443C358.697 159.467 358.85 159.492 358.951 159.52H361.195ZM356.104 167.008C356.104 167.305 356.236 167.533 356.502 167.693C356.771 167.854 357.148 167.934 357.633 167.934C358.383 167.934 358.941 167.826 359.309 167.611C359.676 167.396 359.859 167.111 359.859 166.756C359.859 166.475 359.758 166.273 359.555 166.152C359.355 166.035 358.982 165.977 358.436 165.977H357.393C356.998 165.977 356.684 166.068 356.449 166.252C356.219 166.439 356.104 166.691 356.104 167.008ZM356.695 161.617C356.695 162.023 356.799 162.336 357.006 162.555C357.217 162.773 357.518 162.883 357.908 162.883C358.705 162.883 359.104 162.457 359.104 161.605C359.104 161.184 359.004 160.859 358.805 160.633C358.609 160.402 358.311 160.287 357.908 160.287C357.51 160.287 357.207 160.4 357 160.627C356.797 160.854 356.695 161.184 356.695 161.617ZM366.756 164.154C366.756 164.787 366.525 165.273 366.064 165.613C365.604 165.949 364.943 166.117 364.084 166.117C363.221 166.117 362.527 165.986 362.004 165.725V164.535C362.766 164.887 363.475 165.062 364.131 165.062C364.979 165.062 365.402 164.807 365.402 164.295C365.402 164.131 365.355 163.994 365.262 163.885C365.168 163.775 365.014 163.662 364.799 163.545C364.584 163.428 364.285 163.295 363.902 163.146C363.156 162.857 362.65 162.568 362.385 162.279C362.123 161.99 361.992 161.615 361.992 161.154C361.992 160.6 362.215 160.17 362.66 159.865C363.109 159.557 363.719 159.402 364.488 159.402C365.25 159.402 365.971 159.557 366.65 159.865L366.205 160.902C365.506 160.613 364.918 160.469 364.441 160.469C363.715 160.469 363.352 160.676 363.352 161.09C363.352 161.293 363.445 161.465 363.633 161.605C363.824 161.746 364.238 161.939 364.875 162.186C365.41 162.393 365.799 162.582 366.041 162.754C366.283 162.926 366.463 163.125 366.58 163.352C366.697 163.574 366.756 163.842 366.756 164.154ZM368.396 157.434H370.939C372.119 157.434 372.971 157.605 373.494 157.949C374.021 158.293 374.285 158.836 374.285 159.578C374.285 160.078 374.156 160.494 373.898 160.826C373.641 161.158 373.27 161.367 372.785 161.453V161.512C373.387 161.625 373.828 161.85 374.109 162.186C374.395 162.518 374.537 162.969 374.537 163.539C374.537 164.309 374.268 164.912 373.729 165.35C373.193 165.783 372.447 166 371.49 166H368.396V157.434ZM369.797 160.973H371.145C371.73 160.973 372.158 160.881 372.428 160.697C372.697 160.51 372.832 160.193 372.832 159.748C372.832 159.346 372.686 159.055 372.393 158.875C372.104 158.695 371.643 158.605 371.01 158.605H369.797V160.973ZM369.797 162.109V164.822H371.285C371.871 164.822 372.312 164.711 372.609 164.488C372.91 164.262 373.061 163.906 373.061 163.422C373.061 162.977 372.908 162.646 372.604 162.432C372.299 162.217 371.836 162.109 371.215 162.109H369.797ZM381.92 162.748C381.92 163.807 381.648 164.633 381.105 165.227C380.562 165.82 379.807 166.117 378.838 166.117C378.232 166.117 377.697 165.98 377.232 165.707C376.768 165.434 376.41 165.041 376.16 164.529C375.91 164.018 375.785 163.424 375.785 162.748C375.785 161.697 376.055 160.877 376.594 160.287C377.133 159.697 377.893 159.402 378.873 159.402C379.811 159.402 380.553 159.705 381.1 160.311C381.646 160.912 381.92 161.725 381.92 162.748ZM377.203 162.748C377.203 164.244 377.756 164.992 378.861 164.992C379.955 164.992 380.502 164.244 380.502 162.748C380.502 161.268 379.951 160.527 378.85 160.527C378.271 160.527 377.852 160.719 377.59 161.102C377.332 161.484 377.203 162.033 377.203 162.748ZM387.562 166L387.287 165.098H387.24C386.928 165.492 386.613 165.762 386.297 165.906C385.98 166.047 385.574 166.117 385.078 166.117C384.441 166.117 383.943 165.945 383.584 165.602C383.229 165.258 383.051 164.771 383.051 164.143C383.051 163.475 383.299 162.971 383.795 162.631C384.291 162.291 385.047 162.105 386.062 162.074L387.182 162.039V161.693C387.182 161.279 387.084 160.971 386.889 160.768C386.697 160.561 386.398 160.457 385.992 160.457C385.66 160.457 385.342 160.506 385.037 160.604C384.732 160.701 384.439 160.816 384.158 160.949L383.713 159.965C384.064 159.781 384.449 159.643 384.867 159.549C385.285 159.451 385.68 159.402 386.051 159.402C386.875 159.402 387.496 159.582 387.914 159.941C388.336 160.301 388.547 160.865 388.547 161.635V166H387.562ZM385.512 165.062C386.012 165.062 386.412 164.924 386.713 164.646C387.018 164.365 387.17 163.973 387.17 163.469V162.906L386.338 162.941C385.689 162.965 385.217 163.074 384.92 163.27C384.627 163.461 384.48 163.756 384.48 164.154C384.48 164.443 384.566 164.668 384.738 164.828C384.91 164.984 385.168 165.062 385.512 165.062ZM393.756 159.402C394.033 159.402 394.262 159.422 394.441 159.461L394.307 160.744C394.111 160.697 393.908 160.674 393.697 160.674C393.146 160.674 392.699 160.854 392.355 161.213C392.016 161.572 391.846 162.039 391.846 162.613V166H390.469V159.52H391.547L391.729 160.662H391.799C392.014 160.275 392.293 159.969 392.637 159.742C392.984 159.516 393.357 159.402 393.756 159.402ZM397.834 166.117C397.025 166.117 396.395 165.824 395.941 165.238C395.488 164.652 395.262 163.83 395.262 162.771C395.262 161.709 395.49 160.883 395.947 160.293C396.408 159.699 397.045 159.402 397.857 159.402C398.709 159.402 399.357 159.717 399.803 160.346H399.873C399.807 159.881 399.773 159.514 399.773 159.244V156.883H401.156V166H400.078L399.838 165.15H399.773C399.332 165.795 398.686 166.117 397.834 166.117ZM398.203 165.004C398.77 165.004 399.182 164.846 399.439 164.529C399.697 164.209 399.83 163.691 399.838 162.977V162.783C399.838 161.967 399.705 161.387 399.439 161.043C399.174 160.699 398.758 160.527 398.191 160.527C397.707 160.527 397.334 160.725 397.072 161.119C396.811 161.51 396.68 162.068 396.68 162.795C396.68 163.514 396.807 164.062 397.061 164.441C397.314 164.816 397.695 165.004 398.203 165.004ZM410.033 158.512C409.229 158.512 408.596 158.797 408.135 159.367C407.674 159.938 407.443 160.725 407.443 161.729C407.443 162.779 407.664 163.574 408.105 164.113C408.551 164.652 409.193 164.922 410.033 164.922C410.396 164.922 410.748 164.887 411.088 164.816C411.428 164.742 411.781 164.648 412.148 164.535V165.736C411.477 165.99 410.715 166.117 409.863 166.117C408.609 166.117 407.646 165.738 406.975 164.98C406.303 164.219 405.967 163.131 405.967 161.717C405.967 160.826 406.129 160.047 406.453 159.379C406.781 158.711 407.254 158.199 407.871 157.844C408.488 157.488 409.213 157.311 410.045 157.311C410.92 157.311 411.729 157.494 412.471 157.861L411.967 159.027C411.678 158.891 411.371 158.771 411.047 158.67C410.727 158.564 410.389 158.512 410.033 158.512ZM415.225 166H413.848V156.883H415.225V166ZM422.947 162.748C422.947 163.807 422.676 164.633 422.133 165.227C421.59 165.82 420.834 166.117 419.865 166.117C419.26 166.117 418.725 165.98 418.26 165.707C417.795 165.434 417.438 165.041 417.188 164.529C416.938 164.018 416.812 163.424 416.812 162.748C416.812 161.697 417.082 160.877 417.621 160.287C418.16 159.697 418.92 159.402 419.9 159.402C420.838 159.402 421.58 159.705 422.127 160.311C422.674 160.912 422.947 161.725 422.947 162.748ZM418.23 162.748C418.23 164.244 418.783 164.992 419.889 164.992C420.982 164.992 421.529 164.244 421.529 162.748C421.529 161.268 420.979 160.527 419.877 160.527C419.299 160.527 418.879 160.719 418.617 161.102C418.359 161.484 418.23 162.033 418.23 162.748ZM429.105 166L428.912 165.15H428.842C428.65 165.451 428.377 165.688 428.021 165.859C427.67 166.031 427.268 166.117 426.814 166.117C426.029 166.117 425.443 165.922 425.057 165.531C424.67 165.141 424.477 164.549 424.477 163.756V159.52H425.865V163.516C425.865 164.012 425.967 164.385 426.17 164.635C426.373 164.881 426.691 165.004 427.125 165.004C427.703 165.004 428.127 164.832 428.396 164.488C428.67 164.141 428.807 163.561 428.807 162.748V159.52H430.189V166H429.105ZM434.338 166.117C433.529 166.117 432.898 165.824 432.445 165.238C431.992 164.652 431.766 163.83 431.766 162.771C431.766 161.709 431.994 160.883 432.451 160.293C432.912 159.699 433.549 159.402 434.361 159.402C435.213 159.402 435.861 159.717 436.307 160.346H436.377C436.311 159.881 436.277 159.514 436.277 159.244V156.883H437.66V166H436.582L436.342 165.15H436.277C435.836 165.795 435.189 166.117 434.338 166.117ZM434.707 165.004C435.273 165.004 435.686 164.846 435.943 164.529C436.201 164.209 436.334 163.691 436.342 162.977V162.783C436.342 161.967 436.209 161.387 435.943 161.043C435.678 160.699 435.262 160.527 434.695 160.527C434.211 160.527 433.838 160.725 433.576 161.119C433.314 161.51 433.184 162.068 433.184 162.795C433.184 163.514 433.311 164.062 433.564 164.441C433.818 164.816 434.199 165.004 434.707 165.004Z" fill="#28232D"/>
<g>
<animate id="e3" attributeName="opacity" values="1;0" dur="0.5s" begin="in3.end" fill="freeze"/>
<animate id="end2" attributeName="opacity" values="0;1" dur="0.5s" begin="e33.end" fill="freeze"/>
<rect x="582.5" y="296.5" width="175" height="82" rx="5.5" fill="white" stroke="#05172A"/>
<rect opacity="0.8" x="592" y="325" width="12" height="44" rx="1" fill="#305680"/>
<rect opacity="0.4" x="700" y="339" width="12" height="30" rx="1" fill="#305680"/>
<rect opacity="0.4" x="610" y="342" width="12" height="27" rx="1" fill="#305680"/>
<rect opacity="0.4" x="718" y="342" width="12" height="27" rx="1" fill="#305680"/>
<rect x="628" y="321" width="12" height="48" rx="1" fill="#305680"/>
<rect x="736" y="321" width="12" height="48" rx="1" fill="#305680"/>
<rect opacity="0.8" x="646" y="330" width="12" height="39" rx="1" fill="#305680"/>
<rect opacity="0.4" x="664" y="342" width="12" height="27" rx="1" fill="#305680"/>
<rect opacity="0.8" x="682" y="328" width="12" height="41" rx="1" fill="#305680"/>
</g>
<g opacity="0">
<animate id="end" attributeName="opacity" values="0;1" dur="0.5s" begin="e3.end" fill="freeze"/>
<animate id="e33" attributeName="opacity" values="1;0" dur="0.5s" begin="in33.end" fill="freeze"/>
<rect x="582.5" y="296.5" width="88" height="82" rx="5.5" fill="white" stroke="#05172A"/>
<rect opacity="0.8" x="592" y="325" width="5" height="44" rx="1" fill="#305680"/>
<rect opacity="0.4" x="640" y="339" width="5" height="30" rx="1" fill="#305680"/>
<rect opacity="0.4" x="600" y="342" width="5" height="27" rx="1" fill="#305680"/>
<rect opacity="0.4" x="648" y="342" width="5" height="27" rx="1" fill="#305680"/>
<rect x="608" y="321" width="5" height="48" rx="1" fill="#305680"/>
<rect x="656" y="321" width="5" height="48" rx="1" fill="#305680"/>
<rect opacity="0.8" x="616" y="330" width="5" height="39" rx="1" fill="#305680"/>
<rect opacity="0.4" x="624" y="342" width="5" height="27" rx="1" fill="#305680"/>
<rect opacity="0.8" x="632" y="328" width="5" height="41" rx="1" fill="#305680"/>
<rect x="675.5" y="296.5" width="82" height="82" rx="5.5" fill="white" stroke="#05172A"/>
<path d="M745 337.5C745 332.857 743.865 328.284 741.695 324.179C739.525 320.075 736.385 316.562 732.547 313.948C728.71 311.333 724.293 309.696 719.678 309.178C715.064 308.66 710.393 309.277 706.072 310.976L708.633 317.491C711.893 316.209 715.417 315.743 718.898 316.134C722.379 316.525 725.711 317.76 728.606 319.732C731.5 321.705 733.869 324.354 735.507 327.451C737.144 330.548 738 333.997 738 337.5H745Z" fill="#305680" stroke="white"/>
<path opacity="0.4" d="M706.073 310.976C700.901 313.009 696.436 316.51 693.228 321.048C690.02 325.586 688.209 330.963 688.017 336.517C687.825 342.072 689.262 347.561 692.149 352.309C695.037 357.057 699.25 360.858 704.27 363.242L707.274 356.92C703.487 355.121 700.309 352.254 698.13 348.672C695.952 345.09 694.868 340.949 695.013 336.759C695.157 332.569 696.524 328.513 698.944 325.089C701.364 321.666 704.732 319.025 708.634 317.491L706.073 310.976Z" fill="#305680" stroke="white"/>
<path opacity="0.8" d="M704.27 363.242C708.614 365.306 713.409 366.237 718.21 365.949C723.011 365.66 727.661 364.161 731.726 361.592C735.792 359.022 739.141 355.466 741.462 351.253C743.783 347.041 745 342.309 745 337.5H738C738 341.128 737.082 344.697 735.331 347.875C733.58 351.053 731.053 353.736 727.986 355.674C724.919 357.613 721.412 358.744 717.79 358.961C714.168 359.179 710.551 358.477 707.273 356.92L704.27 363.242Z" fill="#305680" stroke="white"/>
<rect x="708" y="333" width="17" height="2" rx="1" fill="#05172A"/>
<rect x="711" y="338" width="11" height="1" rx="0.5" fill="#05172A"/>
<rect x="710" y="342" width="13" height="1" rx="0.5" fill="#05172A"/>
</g>
<g>
<animate id="e2" attributeName="opacity" values="1;0" dur="0.5s" begin="in2.end" fill="freeze"/>
<animate attributeName="opacity" values="0;1" dur="0.5s" begin="e22.end" fill="freeze"/>
<rect x="296.5" y="296.5" width="175" height="82" rx="5.5" fill="white" stroke="#05172A"/>
<rect opacity="0.8" x="306" y="325" width="12" height="44" rx="1" fill="#305680"/>
<rect opacity="0.4" x="414" y="339" width="12" height="30" rx="1" fill="#305680"/>
<rect opacity="0.4" x="324" y="342" width="12" height="27" rx="1" fill="#305680"/>
<rect opacity="0.4" x="432" y="342" width="12" height="27" rx="1" fill="#305680"/>
<rect x="342" y="321" width="12" height="48" rx="1" fill="#305680"/>
<rect x="450" y="321" width="12" height="48" rx="1" fill="#305680"/>
<rect opacity="0.8" x="360" y="330" width="12" height="39" rx="1" fill="#305680"/>
<rect opacity="0.4" x="378" y="342" width="12" height="27" rx="1" fill="#305680"/>
<rect opacity="0.8" x="396" y="328" width="12" height="41" rx="1" fill="#305680"/>
</g>
<g opacity="0">
<animate attributeName="opacity" values="0;1" dur="0.5s" begin="e2.end" fill="freeze"/>
<animate id="e22" attributeName="opacity" values="1;0" dur="0.5s" begin="in22.end" fill="freeze"/>
<rect x="296.5" y="296.5" width="88" height="82" rx="5.5" fill="white" stroke="#05172A"/>
<rect opacity="0.8" x="306" y="325" width="5" height="44" rx="1" fill="#305680"/>
<rect opacity="0.4" x="354" y="339" width="5" height="30" rx="1" fill="#305680"/>
<rect opacity="0.4" x="314" y="342" width="5" height="27" rx="1" fill="#305680"/>
<rect opacity="0.4" x="362" y="342" width="5" height="27" rx="1" fill="#305680"/>
<rect x="322" y="321" width="5" height="48" rx="1" fill="#305680"/>
<rect x="370" y="321" width="5" height="48" rx="1" fill="#305680"/>
<rect opacity="0.8" x="330" y="330" width="5" height="39" rx="1" fill="#305680"/>
<rect opacity="0.4" x="338" y="342" width="5" height="27" rx="1" fill="#305680"/>
<rect opacity="0.8" x="346" y="328" width="5" height="41" rx="1" fill="#305680"/>
<rect x="389.5" y="296.5" width="82" height="82" rx="5.5" fill="white" stroke="#05172A"/>
<path d="M459 337.5C459 332.857 457.865 328.284 455.695 324.179C453.525 320.075 450.385 316.562 446.547 313.948C442.71 311.333 438.293 309.696 433.678 309.178C429.064 308.66 424.393 309.277 420.072 310.976L422.633 317.491C425.893 316.209 429.417 315.743 432.898 316.134C436.379 316.525 439.711 317.76 442.606 319.732C445.5 321.705 447.869 324.354 449.507 327.451C451.144 330.548 452 333.997 452 337.5H459Z" fill="#305680" stroke="white"/>
<path opacity="0.4" d="M420.073 310.976C414.901 313.009 410.436 316.51 407.228 321.048C404.02 325.586 402.209 330.963 402.017 336.517C401.825 342.072 403.262 347.561 406.149 352.309C409.037 357.057 413.25 360.858 418.27 363.242L421.274 356.92C417.487 355.121 414.309 352.254 412.13 348.672C409.952 345.09 408.868 340.949 409.013 336.759C409.157 332.569 410.524 328.513 412.944 325.089C415.364 321.666 418.732 319.025 422.634 317.491L420.073 310.976Z" fill="#305680" stroke="white"/>
<path opacity="0.8" d="M418.27 363.242C422.614 365.306 427.409 366.237 432.21 365.949C437.011 365.66 441.661 364.161 445.726 361.592C449.792 359.022 453.141 355.466 455.462 351.253C457.783 347.041 459 342.309 459 337.5H452C452 341.128 451.082 344.697 449.331 347.875C447.58 351.053 445.053 353.736 441.986 355.674C438.919 357.613 435.412 358.744 431.79 358.961C428.168 359.179 424.551 358.477 421.273 356.92L418.27 363.242Z" fill="#305680" stroke="white"/>
<rect x="422" y="333" width="17" height="2" rx="1" fill="#05172A"/>
<rect x="425" y="338" width="11" height="1" rx="0.5" fill="#05172A"/>
<rect x="424" y="342" width="13" height="1" rx="0.5" fill="#05172A"/>
</g>
<g>
<animate id="e1" attributeName="opacity" values="1;0" dur="0.5s" begin="in1.end" fill="freeze"/>
<animate attributeName="opacity" values="0;1" dur="0.5s" begin="e11.end" fill="freeze"/>
<rect x="10.5" y="296.5" width="175" height="82" rx="5.5" fill="white" stroke="#05172A"/>
<rect opacity="0.8" x="20" y="325" width="12" height="44" rx="1" fill="#305680"/>
<rect opacity="0.4" x="128" y="339" width="12" height="30" rx="1" fill="#305680"/>
<rect opacity="0.4" x="38" y="342" width="12" height="27" rx="1" fill="#305680"/>
<rect opacity="0.4" x="146" y="342" width="12" height="27" rx="1" fill="#305680"/>
<rect x="56" y="321" width="12" height="48" rx="1" fill="#305680"/>
<rect x="164" y="321" width="12" height="48" rx="1" fill="#305680"/>
<rect opacity="0.8" x="74" y="330" width="12" height="39" rx="1" fill="#305680"/>
<rect opacity="0.4" x="92" y="342" width="12" height="27" rx="1" fill="#305680"/>
<rect opacity="0.8" x="110" y="328" width="12" height="41" rx="1" fill="#305680"/>
</g>
<g opacity="0">
<animate attributeName="opacity" values="0;1" dur="0.5s" begin="e1.end" fill="freeze"/>
<animate id="e11" attributeName="opacity" values="1;0" dur="0.5s" begin="in11.end" fill="freeze"/>
<rect x="10.5" y="296.5" width="88" height="82" rx="5.5" fill="white" stroke="#05172A"/>
<rect opacity="0.8" x="20" y="325" width="5" height="44" rx="1" fill="#305680"/>
<rect opacity="0.4" x="68" y="339" width="5" height="30" rx="1" fill="#305680"/>
<rect opacity="0.4" x="28" y="342" width="5" height="27" rx="1" fill="#305680"/>
<rect opacity="0.4" x="76" y="342" width="5" height="27" rx="1" fill="#305680"/>
<rect x="36" y="321" width="5" height="48" rx="1" fill="#305680"/>
<rect x="84" y="321" width="5" height="48" rx="1" fill="#305680"/>
<rect opacity="0.8" x="44" y="330" width="5" height="39" rx="1" fill="#305680"/>
<rect opacity="0.4" x="52" y="342" width="5" height="27" rx="1" fill="#305680"/>
<rect opacity="0.8" x="60" y="328" width="5" height="41" rx="1" fill="#305680"/>
<rect x="103.5" y="296.5" width="82" height="82" rx="5.5" fill="white" stroke="#05172A"/>
<path d="M173 337.5C173 332.857 171.865 328.284 169.695 324.179C167.525 320.075 164.385 316.562 160.547 313.948C156.71 311.333 152.293 309.696 147.678 309.178C143.064 308.66 138.393 309.277 134.072 310.976L136.633 317.491C139.893 316.209 143.417 315.743 146.898 316.134C150.379 316.525 153.711 317.76 156.606 319.732C159.5 321.705 161.869 324.354 163.507 327.451C165.144 330.548 166 333.997 166 337.5H173Z" fill="#305680" stroke="white"/>
<path opacity="0.4" d="M134.073 310.976C128.901 313.009 124.436 316.51 121.228 321.048C118.02 325.586 116.209 330.963 116.017 336.517C115.825 342.072 117.262 347.561 120.149 352.309C123.037 357.057 127.25 360.858 132.27 363.242L135.274 356.92C131.487 355.121 128.309 352.254 126.13 348.672C123.952 345.09 122.868 340.949 123.013 336.759C123.157 332.569 124.524 328.513 126.944 325.089C129.364 321.666 132.732 319.025 136.634 317.491L134.073 310.976Z" fill="#305680" stroke="white"/>
<path opacity="0.8" d="M132.27 363.242C136.614 365.306 141.409 366.237 146.21 365.949C151.011 365.66 155.661 364.161 159.726 361.592C163.792 359.022 167.141 355.466 169.462 351.253C171.783 347.041 173 342.309 173 337.5H166C166 341.128 165.082 344.697 163.331 347.875C161.58 351.053 159.053 353.736 155.986 355.674C152.919 357.613 149.412 358.744 145.79 358.961C142.168 359.179 138.551 358.477 135.273 356.92L132.27 363.242Z" fill="#305680" stroke="white"/>
<rect x="136" y="333" width="17" height="2" rx="1" fill="#05172A"/>
<rect x="139" y="338" width="11" height="1" rx="0.5" fill="#05172A"/>
<rect x="138" y="342" width="13" height="1" rx="0.5" fill="#05172A"/>
</g>
<g>
<animate id="1" attributeName="opacity" values="1;0" dur="0.5s" begin="3s;end2.end+5s" fill="freeze"/>
<animate id="22" attributeName="opacity" values="0;1" dur="0.5s" begin="11.end" fill="freeze"/>
<rect x="296.5" y="60.5" width="175" height="82" rx="5.5" fill="white" stroke="#05172A"/>
<rect opacity="0.8" x="306" y="89" width="12" height="44" rx="1" fill="#305680"/>
<rect opacity="0.4" x="414" y="103" width="12" height="30" rx="1" fill="#305680"/>
<rect opacity="0.4" x="324" y="106" width="12" height="27" rx="1" fill="#305680"/>
<rect opacity="0.4" x="432" y="106" width="12" height="27" rx="1" fill="#305680"/>
<rect x="342" y="85" width="12" height="48" rx="1" fill="#305680"/>
<rect x="450" y="85" width="12" height="48" rx="1" fill="#305680"/>
<rect opacity="0.8" x="360" y="94" width="12" height="39" rx="1" fill="#305680"/>
<rect opacity="0.4" x="378" y="106" width="12" height="27" rx="1" fill="#305680"/>
<rect opacity="0.8" x="396" y="92" width="12" height="41" rx="1" fill="#305680"/>
</g>
<g opacity="0">
<animate id="2" attributeName="opacity" values="0;1" dur="0.5s" begin="1.end" fill="freeze"/>
<animate id="11" attributeName="opacity" values="1;0" dur="0.5s" begin="end.end+5s" fill="freeze"/>
<rect x="296.5" y="60.5" width="88" height="82" rx="5.5" fill="white" stroke="#05172A"/>
<rect opacity="0.8" x="306" y="89" width="5" height="44" rx="1" fill="#305680"/>
<rect opacity="0.4" x="354" y="103" width="5" height="30" rx="1" fill="#305680"/>
<rect opacity="0.4" x="314" y="106" width="5" height="27" rx="1" fill="#305680"/>
<rect opacity="0.4" x="362" y="106" width="5" height="27" rx="1" fill="#305680"/>
<rect x="322" y="85" width="5" height="48" rx="1" fill="#305680"/>
<rect x="370" y="85" width="5" height="48" rx="1" fill="#305680"/>
<rect opacity="0.8" x="330" y="94" width="5" height="39" rx="1" fill="#305680"/>
<rect opacity="0.4" x="338" y="106" width="5" height="27" rx="1" fill="#305680"/>
<rect opacity="0.8" x="346" y="92" width="5" height="41" rx="1" fill="#305680"/>
<rect x="389.5" y="60.5" width="82" height="82" rx="5.5" fill="white" stroke="#05172A"/>
<path d="M459 101.5C459 96.8569 457.865 92.284 455.695 88.1793C453.525 84.0745 450.385 80.5621 446.547 77.9477C442.71 75.3332 438.293 73.6958 433.678 73.1779C429.064 72.6599 424.393 73.2772 420.072 74.976L422.633 81.4907C425.893 80.2091 429.417 79.7435 432.898 80.1342C436.379 80.5249 439.711 81.7601 442.606 83.7324C445.5 85.7048 447.869 88.3545 449.507 91.451C451.144 94.5476 452 97.9973 452 101.5H459Z" fill="#305680" stroke="white"/>
<path opacity="0.4" d="M420.073 74.9761C414.901 77.0094 410.436 80.5104 407.228 85.0484C404.02 89.5864 402.209 94.9634 402.017 100.517C401.825 106.072 403.262 111.561 406.149 116.309C409.037 121.057 413.25 124.858 418.27 127.242L421.274 120.92C417.487 119.121 414.309 116.254 412.13 112.672C409.952 109.09 408.868 104.949 409.013 100.759C409.157 96.5689 410.524 92.5126 412.944 89.0892C415.364 85.6658 418.732 83.0246 422.634 81.4907L420.073 74.9761Z" fill="#305680" stroke="white"/>
<path opacity="0.8" d="M418.27 127.242C422.614 129.306 427.409 130.237 432.21 129.949C437.011 129.66 441.661 128.161 445.726 125.592C449.792 123.022 453.141 119.466 455.462 115.253C457.783 111.041 459 106.309 459 101.5H452C452 105.128 451.082 108.697 449.331 111.875C447.58 115.053 445.053 117.736 441.986 119.674C438.919 121.613 435.412 122.744 431.79 122.961C428.168 123.179 424.551 122.477 421.273 120.92L418.27 127.242Z" fill="#305680" stroke="white"/>
<rect x="422" y="97" width="17" height="2" rx="1" fill="#05172A"/>
<rect x="425" y="102" width="11" height="1" rx="0.5" fill="#05172A"/>
<rect x="424" y="106" width="13" height="1" rx="0.5" fill="#05172A"/>
</g>
</svg>