<svg xmlns="http://www.w3.org/2000/svg" height="700" viewBox="0 0 335.34344 700.00429" width="335.34" version="1.1">
 <flowRoot style="word-spacing:0px;letter-spacing:0px" xml:space="preserve" transform="translate(-143.28 -185.3)" line-height="0.01%" font-family="sans-serif" fill="#000000"><flowRegion><rect y="370.88" width="513.6" x="-655.92" height="137.54"/></flowRegion><flowPara font-size="40px" line-height="1.25"> </flowPara></flowRoot>
 <g transform="translate(-143.28 -185.3)">
  <text style="word-spacing:0px;letter-spacing:0px;text-anchor:middle;text-align:center" font-weight="bold" xml:space="preserve" line-height="0%" y="796.27826" x="184.16866" font-family="Roboto" fill="#237de0"><tspan font-size="12.493px" line-height="1.25" y="796.27826" x="184.16866">MQTT</tspan></text>
  <rect stroke-linejoin="round" stroke-dasharray="6.4963048, 6.4963048" height="482.41" width="332.1" stroke="#305680" stroke-linecap="round" y="295.16" x="144.9" stroke-width="3.2482" fill="none"/>
  <g transform="matrix(.62464 0 0 .62464 655.99 298.49)">
   <rect stroke-linejoin="round" height="146.54" width="452.24" stroke="#305680" stroke-linecap="round" y="61.782" x="-778.5" stroke-width="5.2" fill="none"/>
   <text style="word-spacing:0px;letter-spacing:0px;text-anchor:middle;text-align:center" font-weight="bold" xml:space="preserve" font-size="20px" line-height="0%" y="89.443008" x="-552.42847" font-family="Roboto" fill="#237de0"><tspan line-height="1.25" y="89.443008" x="-552.42847">Server-Side API Gateway</tspan><tspan line-height="1.25" y="114.44316" x="-552.42847">(REST APIs and websockets)</tspan></text>
   <g transform="matrix(1.5234 0 0 1.5234 -1628.3 -14.86)">
    <path d="m689.61 102.24h33.007v-5.2552h-33.007z" fill="#237de0"/>
    <path d="m722.22 128.88h-31.894v-23.588h31.894zm-31.56-30.737h15.077v3.0926h-15.077zm27.447 0h3.7689v3.0926h-3.7689zm4.5301-4.5867h-32.738c-2.0774 0-3.7774 1.7-3.7774 3.7776v32.738c0 2.0774 1.7 3.7775 3.7774 3.7775h32.738c2.0776 0 3.7776-1.7 3.7776-3.7775v-32.736c0-2.0776-1.7-3.7776-3.7776-3.7776" fill="#345982"/>
    <g fill="#237de0">
     <path d="m700.86 120.61-5.9202-3.5974 5.9202-3.4682v-3.6884l-8.4884 5.63v3.1314l8.4884 5.6545v-3.6619"/>
     <path d="m719.85 115.49-8.4883-5.63v3.6884l5.9202 3.4682-5.9202 3.5974v3.6619l8.4883-5.6545v-3.1314"/>
     <path d="m709.5 108.12h-2.4894l-4.2834 17.888h2.4426l4.3301-17.888"/>
    </g>
   </g>
  </g>
  <text style="word-spacing:0px;letter-spacing:0px;text-anchor:middle;text-align:center" font-weight="bold" xml:space="preserve" line-height="0%" y="319.08072" x="311.0018" font-family="Roboto" fill="#305680"><tspan font-size="15.616px" line-height="1.25" y="319.08072" x="311.0018">ThingsBoard Server node</tspan></text>
  <g transform="matrix(.62464 0 0 .62464 547.64 327.63)">
   <g fill-rule="evenodd" transform="matrix(.90343 -1.1791 1.1791 .90343 -1726.7 142.67)" clip-rule="evenodd" fill="#237de0">
    <path d="m363.34 833.96c1.6957 0.36941 3.8357-2.9495 2.9776-4.2854-0.28078-0.43886-0.42149-0.92847-0.43076-1.4141 0.91589-0.99503 2.8621-2.1052 3.8572-2.5322 0.45803 0.20996 0.8627 0.54821 1.155 1.0035 0.93562 1.458 4.7543 0.81995 5.1349-0.92501 0.11881-0.54527 0.48638-1.0913 0.76615-1.3768 0.95979-0.00083 3.0259 0.39787 4.4258 0.95493 0.17933 0.35712 0.24744 1.032 0.12672 1.5803-0.40182 1.8456 2.9168 3.8563 4.3141 2.9593 0.46665-0.2999 1.1255-0.46344 1.5066-0.43241 0.72718 0.70605 2.04 2.7585 2.4742 3.7763-0.28144 0.41708-0.55777 0.92771-1.0396 1.2367-1.3968 0.89757-0.86622 4.7699 0.9287 5.1612 0.59041 0.12892 1.1144 0.44934 1.4642 0.86128-0.0522 0.99901-0.60101 3.4216-0.99349 4.3106-0.22593 0.18113-1.0626 0.27217-1.6303 0.14824-2.4433-0.53217-4.0844 2.6069-2.9925 4.3071 0.30832 0.48046 0.50284 1.0269 0.43021 1.5521-0.69255 0.70104-2.6906 1.997-3.7743 2.4303-0.47093-0.17709-0.92799-0.55723-1.2371-1.0394-0.97473-1.5191-4.726-1.0652-5.1609 0.92952-0.11338 0.51901-0.42849 0.96401-0.74944 1.3942-1.2742-0.0952-3.4871-0.44591-4.5187-1.0113-0.17766-0.48873-0.16174-1.0337-0.0509-1.5412 0.38053-1.746-2.7597-3.9861-4.278-3.011-0.42426 0.27277-0.928 0.47952-1.4014 0.49982-0.93531-0.87967-2.3071-2.9541-2.6105-3.9706 0.23037-0.50933 0.63103-0.82739 1.0711-1.1106 1.6403-1.0524 0.97092-4.7227-0.9238-5.1353-0.51861-0.1135-0.99378-0.41073-1.3581-0.73085 0.10629-1.1032 0.34297-3.0499 0.9398-4.462 0.58126-0.22927 1.0294-0.2464 1.5775-0.12715zm4.5488 3.6302c-0.94174 4.3184 1.7959 8.581 6.1138 9.5222 4.3177 0.94039 8.5808-1.798 9.5221-6.1162 0.94133-4.3182-1.7961-8.5811-6.1137-9.5218-4.3178-0.94079-8.5809 1.797-9.5222 6.1158z"/>
    <path d="m370.63 810.63c0.80729 0.40719 2.319-0.98843 2.0601-1.7741-0.0845-0.25795-0.0917-0.52326-0.0332-0.76946 0.5916-0.38269 1.7179-0.68931 2.2756-0.77511 0.20371 0.16557 0.36382 0.38889 0.45196 0.65661 0.28212 0.85735 2.2916 1.0327 2.7108 0.20203 0.13097-0.25958 0.38746-0.48717 0.56577-0.59476 0.48429 0.12457 1.4747 0.59475 2.1083 1.058 0.044 0.20351-0.01 0.55282-0.14186 0.81371-0.44301 0.8787 0.96927 2.3252 1.7909 2.0546 0.27446-0.0905 0.62813-0.0872 0.81631-0.022 0.2749 0.45087 0.66993 1.6572 0.75642 2.2272-0.19629 0.17375-0.40218 0.39537-0.68547 0.48849-0.82153 0.2709-1.0581 2.2935-0.20358 2.7246 0.281 0.14202 0.50369 0.37179 0.62648 0.62514-0.15641 0.49718-0.74874 1.6478-1.0625 2.0452-0.13756 0.062-0.5715-0.001-0.84171-0.1375-1.1633-0.58663-2.3999 0.78323-2.0705 1.7831 0.093 0.28252 0.11995 0.58351 0.0149 0.83898-0.44066 0.26346-1.6174 0.65704-2.2205 0.73453-0.2145-0.15066-0.39557-0.40194-0.48871-0.68545-0.2939-0.89325-2.2454-1.1528-2.7245-0.20313-0.12491 0.247-0.34169 0.43051-0.55961 0.60572-0.6304-0.21394-1.701-0.67903-2.1478-1.0986-0.026-0.26968 0.053-0.54252 0.17501-0.78411 0.41933-0.83125-0.87309-2.3702-1.766-2.076-0.24954 0.0824-0.53058 0.12105-0.77206 0.0696-0.35727-0.56555-0.77918-1.7906-0.79985-2.343 0.18253-0.22695 0.42608-0.33522 0.68497-0.42076 0.96451-0.31732 1.1048-2.256 0.20269-2.7109-0.24683-0.12481-0.44784-0.33661-0.58996-0.54554 0.19728-0.54269 0.57016-1.4939 1.0551-2.1285 0.32308-0.04 0.55138 0.01 0.81234 0.14127zm1.822 2.4236c-1.0374 2.0558-0.21145 4.5626 1.8442 5.5997 2.0556 1.0366 4.5628 0.21034 5.6-1.8455s0.21133-4.5628-1.8442-5.5995c-2.0557-1.0369-4.5627-0.2109-5.6 1.8452z"/>
    <path d="m347.84 818.38c1.2056 0.23226 2.6624-2.1517 2.0326-3.0818-0.20608-0.30559-0.31398-0.64947-0.32885-0.99278 0.63076-0.71942 1.9882-1.5379 2.6848-1.8569 0.32753 0.14068 0.61953 0.37297 0.83402 0.68997 0.68666 1.0152 3.3765 0.49859 3.6159-0.74207 0.0747-0.38768 0.32533-0.78014 0.51832-0.98683 0.67881-0.017 2.1469 0.22964 3.1465 0.59967 0.13295 0.24952 0.19266 0.72564 0.11665 1.1155-0.2526 1.3122 2.129 2.6776 3.1018 2.0192 0.32491-0.22009 0.7881-0.34703 1.0581-0.3316 0.5264 0.48692 1.49 1.9161 1.8145 2.6285-0.19193 0.2998-0.37863 0.66567-0.7141 0.89244-0.97257 0.65872-0.53105 3.3884 0.74513 3.6344 0.41977 0.0811 0.79589 0.29873 1.0503 0.58409-0.0198 0.70746-0.36655 2.4302-0.62891 3.0657-0.15669 0.13198-0.7469 0.21068-1.1505 0.13274-1.7372-0.33459-2.8441 1.9136-2.0428 3.0974 0.22628 0.33453 0.37321 0.71768 0.33083 1.0904-0.47783 0.50766-1.8688 1.4584-2.6278 1.7834-0.3361-0.11719-0.66587-0.37822-0.89273-0.714-0.71537-1.0577-3.3608-0.67257-3.6342 0.74571-0.0713 0.36901-0.28654 0.68914-0.50619 0.99885-0.90283-0.0455-2.4739-0.25572-3.2132-0.63794-0.13402-0.34262-0.13207-0.72833-0.0624-1.0892 0.23926-1.2414-2.02-2.772-3.0771-2.0564-0.2954 0.20018-0.64814 0.35503-0.98264 0.37748-0.67656-0.60616-1.6823-2.0498-1.9142-2.7636 0.15416-0.36419 0.43215-0.59597 0.73858-0.80378 1.1421-0.7724 0.60591-3.3568-0.74121-3.6162-0.36874-0.0714-0.7099-0.27349-0.97307-0.49365 0.0563-0.78208 0.1904-2.1629 0.58836-3.1718 0.40718-0.1721 0.72384-0.19189 1.1135-0.11693zm3.2793 2.4897c-0.59218 3.0703 1.4169 6.0383 4.487 6.6301 3.0698 0.59125 6.0381-1.4185 6.63-4.4887 0.59191-3.0702-1.4171-6.0384-4.4869-6.6298-3.0699-0.59153-6.0382 1.4177-6.6301 4.4884z"/>
   </g>
   <path stroke-linejoin="round" d="m-356.89 472.55 0.009-39.602v0" stroke="#305680" stroke-linecap="round" stroke-width="7.8114" fill="none"/>
   <g fill="#237de0" transform="matrix(.092883 .031281 -.031281 .092883 -336.87 425.96)">
    <path fill="#237de0" d="m362.3 125.06c-2.851-2.853-6.092-4.28-9.706-4.287-0.77 0-1.902 0.193-3.432 0.572l-113.06 27.98 48.82-132.19c0.951-1.903 1.431-3.614 1.431-5.139 0-3.234-1.242-6.04-3.713-8.42-2.48-2.383-5.52-3.571-9.14-3.571h-93.645c-3.045 0-5.708 0.855-7.994 2.568-2.284 1.715-3.809 3.905-4.568 6.567l-57.386 235.55c-0.953 4.564 0.284 8.277 3.711 11.135 2.473 2.099 5.421 3.139 8.848 3.139 1.524 0 2.666-0.089 3.427-0.281l115.91-28.838-56.244 230.69c-0.76 3.045-0.333 5.899 1.287 8.562 1.619 2.669 4.047 4.476 7.281 5.427 1.903 0.377 3.239 0.568 3.999 0.568 5.52 0 9.514-2.375 11.991-7.136l154.16-330.32c2.095-4.567 1.434-8.756-1.998-12.561z"/>
   </g>
  </g>
  <rect stroke-linejoin="round" height="68.79" width="282.92" stroke="#305680" stroke-linecap="round" y="567.01" x="169.49" stroke-width="3.2466" fill="none"/>
  <text style="word-spacing:0px;letter-spacing:0px;text-anchor:middle;text-align:center" font-weight="bold" xml:space="preserve" font-size="7.4957px" line-height="0%" y="584.50659" x="310.71664" font-family="Roboto" fill="#237de0"><tspan font-size="12.493px" line-height="1.25" y="584.50659" x="310.71664" stroke-width=".62464px">Rule Engine</tspan></text>
  <rect stroke-linejoin="round" height="54.401" width="281.23" stroke="#305680" stroke-linecap="round" y="470.49" x="170.33" stroke-width="3.2466" fill="none"/>
  <text style="word-spacing:0px;letter-spacing:0px" font-weight="bold" xml:space="preserve" font-size="7.4957px" line-height="0%" y="485.08768" x="272.46936" font-family="Roboto" fill="#237de0"><tspan font-size="12.493px" line-height="1.25" y="485.08768" x="272.46936" stroke-width=".62464px">Core services</tspan></text>
  <g fill-rule="evenodd" transform="matrix(.48586 -.63412 .63412 .48586 -395.63 338.1)" clip-rule="evenodd" fill="#305680">
   <path d="m363.34 833.96c1.6957 0.36941 3.8357-2.9495 2.9776-4.2854-0.28078-0.43886-0.42149-0.92847-0.43076-1.4141 0.91589-0.99503 2.8621-2.1052 3.8572-2.5322 0.45803 0.20996 0.8627 0.54821 1.155 1.0035 0.93562 1.458 4.7543 0.81995 5.1349-0.92501 0.11881-0.54527 0.48638-1.0913 0.76615-1.3768 0.95979-0.00083 3.0259 0.39787 4.4258 0.95493 0.17933 0.35712 0.24744 1.032 0.12672 1.5803-0.40182 1.8456 2.9168 3.8563 4.3141 2.9593 0.46665-0.2999 1.1255-0.46344 1.5066-0.43241 0.72718 0.70605 2.04 2.7585 2.4742 3.7763-0.28144 0.41708-0.55777 0.92771-1.0396 1.2367-1.3968 0.89757-0.86622 4.7699 0.9287 5.1612 0.59041 0.12892 1.1144 0.44934 1.4642 0.86128-0.0522 0.99901-0.60101 3.4216-0.99349 4.3106-0.22593 0.18113-1.0626 0.27217-1.6303 0.14824-2.4433-0.53217-4.0844 2.6069-2.9925 4.3071 0.30832 0.48046 0.50284 1.0269 0.43021 1.5521-0.69255 0.70104-2.6906 1.997-3.7743 2.4303-0.47093-0.17709-0.92799-0.55723-1.2371-1.0394-0.97473-1.5191-4.726-1.0652-5.1609 0.92952-0.11338 0.51901-0.42849 0.96401-0.74944 1.3942-1.2742-0.0952-3.4871-0.44591-4.5187-1.0113-0.17766-0.48873-0.16174-1.0337-0.0509-1.5412 0.38053-1.746-2.7597-3.9861-4.278-3.011-0.42426 0.27277-0.928 0.47952-1.4014 0.49982-0.93531-0.87967-2.3071-2.9541-2.6105-3.9706 0.23037-0.50933 0.63103-0.82739 1.0711-1.1106 1.6403-1.0524 0.97092-4.7227-0.9238-5.1353-0.51861-0.1135-0.99378-0.41073-1.3581-0.73085 0.10629-1.1032 0.34297-3.0499 0.9398-4.462 0.58126-0.22927 1.0294-0.2464 1.5775-0.12715zm4.5488 3.6302c-0.94174 4.3184 1.7959 8.581 6.1138 9.5222 4.3177 0.94039 8.5808-1.798 9.5221-6.1162 0.94133-4.3182-1.7961-8.5811-6.1137-9.5218-4.3178-0.94079-8.5809 1.797-9.5222 6.1158z"/>
   <path d="m370.63 810.63c0.80729 0.40719 2.319-0.98843 2.0601-1.7741-0.0845-0.25795-0.0917-0.52326-0.0332-0.76946 0.5916-0.38269 1.7179-0.68931 2.2756-0.77511 0.20371 0.16557 0.36382 0.38889 0.45196 0.65661 0.28212 0.85735 2.2916 1.0327 2.7108 0.20203 0.13097-0.25958 0.38746-0.48717 0.56577-0.59476 0.48429 0.12457 1.4747 0.59475 2.1083 1.058 0.044 0.20351-0.01 0.55282-0.14186 0.81371-0.44301 0.8787 0.96927 2.3252 1.7909 2.0546 0.27446-0.0905 0.62813-0.0872 0.81631-0.022 0.2749 0.45087 0.66993 1.6572 0.75642 2.2272-0.19629 0.17375-0.40218 0.39537-0.68547 0.48849-0.82153 0.2709-1.0581 2.2935-0.20358 2.7246 0.281 0.14202 0.50369 0.37179 0.62648 0.62514-0.15641 0.49718-0.74874 1.6478-1.0625 2.0452-0.13756 0.062-0.5715-0.001-0.84171-0.1375-1.1633-0.58663-2.3999 0.78323-2.0705 1.7831 0.093 0.28252 0.11995 0.58351 0.0149 0.83898-0.44066 0.26346-1.6174 0.65704-2.2205 0.73453-0.2145-0.15066-0.39557-0.40194-0.48871-0.68545-0.2939-0.89325-2.2454-1.1528-2.7245-0.20313-0.12491 0.247-0.34169 0.43051-0.55961 0.60572-0.6304-0.21394-1.701-0.67903-2.1478-1.0986-0.026-0.26968 0.053-0.54252 0.17501-0.78411 0.41933-0.83125-0.87309-2.3702-1.766-2.076-0.24954 0.0824-0.53058 0.12105-0.77206 0.0696-0.35727-0.56555-0.77918-1.7906-0.79985-2.343 0.18253-0.22695 0.42608-0.33522 0.68497-0.42076 0.96451-0.31732 1.1048-2.256 0.20269-2.7109-0.24683-0.12481-0.44784-0.33661-0.58996-0.54554 0.19728-0.54269 0.57016-1.4939 1.0551-2.1285 0.32308-0.04 0.55138 0.01 0.81234 0.14127zm1.822 2.4236c-1.0374 2.0558-0.21145 4.5626 1.8442 5.5997 2.0556 1.0366 4.5628 0.21034 5.6-1.8455s0.21133-4.5628-1.8442-5.5995c-2.0557-1.0369-4.5627-0.2109-5.6 1.8452z"/>
   <path d="m347.84 818.38c1.2056 0.23226 2.6624-2.1517 2.0326-3.0818-0.20608-0.30559-0.31398-0.64947-0.32885-0.99278 0.63076-0.71942 1.9882-1.5379 2.6848-1.8569 0.32753 0.14068 0.61953 0.37297 0.83402 0.68997 0.68666 1.0152 3.3765 0.49859 3.6159-0.74207 0.0747-0.38768 0.32533-0.78014 0.51832-0.98683 0.67881-0.017 2.1469 0.22964 3.1465 0.59967 0.13295 0.24952 0.19266 0.72564 0.11665 1.1155-0.2526 1.3122 2.129 2.6776 3.1018 2.0192 0.32491-0.22009 0.7881-0.34703 1.0581-0.3316 0.5264 0.48692 1.49 1.9161 1.8145 2.6285-0.19193 0.2998-0.37863 0.66567-0.7141 0.89244-0.97257 0.65872-0.53105 3.3884 0.74513 3.6344 0.41977 0.0811 0.79589 0.29873 1.0503 0.58409-0.0198 0.70746-0.36655 2.4302-0.62891 3.0657-0.15669 0.13198-0.7469 0.21068-1.1505 0.13274-1.7372-0.33459-2.8441 1.9136-2.0428 3.0974 0.22628 0.33453 0.37321 0.71768 0.33083 1.0904-0.47783 0.50766-1.8688 1.4584-2.6278 1.7834-0.3361-0.11719-0.66587-0.37822-0.89273-0.714-0.71537-1.0577-3.3608-0.67257-3.6342 0.74571-0.0713 0.36901-0.28654 0.68914-0.50619 0.99885-0.90283-0.0455-2.4739-0.25572-3.2132-0.63794-0.13402-0.34262-0.13207-0.72833-0.0624-1.0892 0.23926-1.2414-2.02-2.772-3.0771-2.0564-0.2954 0.20018-0.64814 0.35503-0.98264 0.37748-0.67656-0.60616-1.6823-2.0498-1.9142-2.7636 0.15416-0.36419 0.43215-0.59597 0.73858-0.80378 1.1421-0.7724 0.60591-3.3568-0.74121-3.6162-0.36874-0.0714-0.7099-0.27349-0.97307-0.49365 0.0563-0.78208 0.1904-2.1629 0.58836-3.1718 0.40718-0.1721 0.72384-0.19189 1.1135-0.11693zm3.2793 2.4897c-0.59218 3.0703 1.4169 6.0383 4.487 6.6301 3.0698 0.59125 6.0381-1.4185 6.63-4.4887 0.59191-3.0702-1.4171-6.0384-4.4869-6.6298-3.0699-0.59153-6.0382 1.4177-6.6301 4.4884z"/>
  </g>
  <g fill="#305680">
   <path d="m310.94 432.26c-1.2846 3.5231-2.5715 7.0439-3.8521 10.569 0.8703-0.41811 1.7342-0.85323 2.6025-1.2738 0.002 2.3609 0.0136 8.9556 0.0129 11.316 0.00027 2.3605 0.001 1.3683-0.00058 3.729-0.86831-0.42061-2.6025-1.2739-2.6025-1.2739 1.2805 3.5255 2.5673 7.0464 3.8518 10.569 1.2992-3.515 2.5761-7.0429 3.8587-10.568-0.86963 0.41653-1.7334 0.85151-2.6018 1.2729-0.002-2.3608-0.001-1.369-0.00042-3.7299-0.00041-2.361-0.0135-8.9561-0.0116-11.317 0.86827 0.42141 1.7321 0.85642 2.6017 1.273-1.2825-3.5247-2.5593-7.0527-3.8584-10.568z"/>
   <path d="m310.94 529.58c-1.2846 3.5231-2.5715 7.0439-3.8521 10.569 0.8703-0.41811 1.7342-0.85323 2.6025-1.2738 0.002 2.3609 0.0136 8.9556 0.0129 11.316 0.00027 2.3605 0.001 1.3683-0.00058 3.729-0.86831-0.4206-2.6025-1.2739-2.6025-1.2739 1.2805 3.5255 2.5673 7.0464 3.8518 10.569 1.2992-3.515 2.5761-7.0429 3.8587-10.568-0.86963 0.41653-1.7334 0.85151-2.6018 1.2729-0.002-2.3608-0.001-1.369-0.00042-3.7299-0.00041-2.361-0.0135-8.9561-0.0116-11.317 0.86827 0.42141 1.7321 0.85642 2.6017 1.273-1.2825-3.5247-2.5593-7.0527-3.8584-10.568z"/>
   <path d="m212.61 639.45c-1.2846 3.5231-2.5715 7.0439-3.8521 10.569 0.87031-0.41811 1.7342-0.85322 2.6025-1.2738 0.002 2.3609 0.0136 8.9556 0.0129 11.316 0.00027 2.3605 0.001 1.3683-0.00058 3.729-0.86831-0.42061-2.6025-1.2739-2.6025-1.2739 1.2805 3.5255 2.5673 7.0464 3.8518 10.57 1.2992-3.515 2.5761-7.0429 3.8587-10.568-0.86963 0.41653-1.7334 0.85151-2.6017 1.2729-0.002-2.3608-0.001-1.369-0.00042-3.7299-0.00042-2.361-0.0135-8.9561-0.0116-11.317 0.86827 0.42141 1.7321 0.85642 2.6017 1.273-1.2825-3.5247-2.5593-7.0527-3.8584-10.568z"/>
   <path d="m310.94 639.45c-1.2846 3.5231-2.5715 7.0439-3.8521 10.569 0.8703-0.41811 1.7342-0.85322 2.6025-1.2738 0.002 2.3609 0.0136 8.9556 0.0129 11.316 0.00027 2.3605 0.001 1.3683-0.00058 3.729-0.86831-0.42061-2.6025-1.2739-2.6025-1.2739 1.2805 3.5255 2.5673 7.0464 3.8518 10.57 1.2992-3.515 2.5761-7.0429 3.8587-10.568-0.86963 0.41653-1.7334 0.85151-2.6018 1.2729-0.002-2.3608-0.001-1.369-0.00041-3.7299-0.00042-2.361-0.0135-8.9561-0.0116-11.317 0.86827 0.42141 1.7321 0.85642 2.6017 1.273-1.2825-3.5247-2.5593-7.0527-3.8584-10.568z"/>
   <path d="m409.27 639.45c-1.2846 3.5231-2.5715 7.0439-3.8521 10.569 0.8703-0.41811 1.7342-0.85322 2.6025-1.2738 0.002 2.3609 0.0135 8.9556 0.0129 11.316 0.00027 2.3605 0.001 1.3683-0.00058 3.729-0.86831-0.42061-2.6025-1.2739-2.6025-1.2739 1.2805 3.5255 2.5673 7.0464 3.8518 10.57 1.2992-3.515 2.5761-7.0429 3.8587-10.568-0.86963 0.41653-1.7334 0.85151-2.6018 1.2729-0.002-2.3608-0.001-1.369-0.00042-3.7299-0.00042-2.361-0.0135-8.9561-0.0116-11.317 0.86828 0.42141 1.7321 0.85642 2.6017 1.273-1.2825-3.5247-2.5593-7.0527-3.8584-10.568z"/>
  </g>
  <g transform="matrix(.62464 0 0 .62464 549.63 312.64)">
   <g transform="translate(-532.74 367.02)">
    <rect stroke-linejoin="round" height="122.42" width="138.17" stroke="#305680" stroke-linecap="round" y="424.74" x="-75.83" stroke-width="5.2" fill="none"/>
    <text style="word-spacing:0px;letter-spacing:0px;text-anchor:middle;text-align:center" font-weight="bold" xml:space="preserve" font-size="20px" line-height="0%" y="447.4765" x="-6.2486544" font-family="Roboto" fill="#237de0"><tspan line-height="1.25" y="447.4765" x="-3.7486393">Device </tspan><tspan line-height="1.25" y="472.47665" x="-6.2486548">Application</tspan></text>
    <g fill="#305680" transform="matrix(.42040 0 0 .42040 50.388 330.02)">
     <g transform="translate(-318.77 19.031)" fill="#305680">
      <path style="color-rendering:auto;text-decoration-color:#000000;color:#000000;isolation:auto;mix-blend-mode:normal;shape-rendering:auto;solid-color:#000000;text-decoration-line:none;text-decoration-style:solid;image-rendering:auto;white-space:normal;text-indent:0;text-transform:none" d="m146.6 366.65c-2.065 0.0002-3.739 1.6742-3.7392 3.7392v72.522c0.00021 2.065 1.6742 3.739 3.7392 3.7392h72.522c2.065-0.00021 3.739-1.6742 3.7392-3.7392v-72.522c-0.00021-2.065-1.6742-3.739-3.7392-3.7392z"/>
      <g fill-rule="evenodd" transform="translate(-257.14 294.29)">
       <path style="color-rendering:auto;text-decoration-color:#000000;color:#000000;isolation:auto;mix-blend-mode:normal;shape-rendering:auto;solid-color:#000000;text-decoration-line:none;text-decoration-style:solid;image-rendering:auto;white-space:normal;text-indent:0;text-transform:none" d="m419.92 49.559a5 5 0 0 0 -4.9233 5.0698v13.733h9.999v-13.733a5 5 0 0 0 -5.0757 -5.0698z"/>
       <path style="color-rendering:auto;text-decoration-color:#000000;color:#000000;isolation:auto;mix-blend-mode:normal;shape-rendering:auto;solid-color:#000000;text-decoration-line:none;text-decoration-style:solid;image-rendering:auto;white-space:normal;text-indent:0;text-transform:none" d="m439.92 49.559a5 5 0 0 0 -4.9233 5.0698v13.733h9.999v-13.733a5 5 0 0 0 -5.0757 -5.0698z"/>
       <path style="color-rendering:auto;text-decoration-color:#000000;color:#000000;isolation:auto;mix-blend-mode:normal;shape-rendering:auto;solid-color:#000000;text-decoration-line:none;text-decoration-style:solid;image-rendering:auto;white-space:normal;text-indent:0;text-transform:none" d="m459.92 49.559a5 5 0 0 0 -4.9233 5.0698v13.733h9.999v-13.733a5 5 0 0 0 -5.0757 -5.0698z"/>
      </g>
      <g fill-rule="evenodd" transform="rotate(180 311.43 259.5)">
       <path style="color-rendering:auto;text-decoration-color:#000000;color:#000000;isolation:auto;mix-blend-mode:normal;shape-rendering:auto;solid-color:#000000;text-decoration-line:none;text-decoration-style:solid;image-rendering:auto;white-space:normal;text-indent:0;text-transform:none" d="m419.92 49.559a5 5 0 0 0 -4.9233 5.0698v13.733h9.999v-13.733a5 5 0 0 0 -5.0757 -5.0698z"/>
       <path style="color-rendering:auto;text-decoration-color:#000000;color:#000000;isolation:auto;mix-blend-mode:normal;shape-rendering:auto;solid-color:#000000;text-decoration-line:none;text-decoration-style:solid;image-rendering:auto;white-space:normal;text-indent:0;text-transform:none" d="m439.92 49.559a5 5 0 0 0 -4.9233 5.0698v13.733h9.999v-13.733a5 5 0 0 0 -5.0757 -5.0698z"/>
       <path style="color-rendering:auto;text-decoration-color:#000000;color:#000000;isolation:auto;mix-blend-mode:normal;shape-rendering:auto;solid-color:#000000;text-decoration-line:none;text-decoration-style:solid;image-rendering:auto;white-space:normal;text-indent:0;text-transform:none" d="m459.92 49.559a5 5 0 0 0 -4.9233 5.0698v13.733h9.999v-13.733a5 5 0 0 0 -5.0757 -5.0698z"/>
      </g>
      <g fill-rule="evenodd" transform="rotate(-90 458.57 388.07)">
       <path style="color-rendering:auto;text-decoration-color:#000000;color:#000000;isolation:auto;mix-blend-mode:normal;shape-rendering:auto;solid-color:#000000;text-decoration-line:none;text-decoration-style:solid;image-rendering:auto;white-space:normal;text-indent:0;text-transform:none" d="m419.92 49.559a5 5 0 0 0 -4.9233 5.0698v13.733h9.999v-13.733a5 5 0 0 0 -5.0757 -5.0698z"/>
       <path style="color-rendering:auto;text-decoration-color:#000000;color:#000000;isolation:auto;mix-blend-mode:normal;shape-rendering:auto;solid-color:#000000;text-decoration-line:none;text-decoration-style:solid;image-rendering:auto;white-space:normal;text-indent:0;text-transform:none" d="m439.92 49.559a5 5 0 0 0 -4.9233 5.0698v13.733h9.999v-13.733a5 5 0 0 0 -5.0757 -5.0698z"/>
       <path style="color-rendering:auto;text-decoration-color:#000000;color:#000000;isolation:auto;mix-blend-mode:normal;shape-rendering:auto;solid-color:#000000;text-decoration-line:none;text-decoration-style:solid;image-rendering:auto;white-space:normal;text-indent:0;text-transform:none" d="m459.92 49.559a5 5 0 0 0 -4.9233 5.0698v13.733h9.999v-13.733a5 5 0 0 0 -5.0757 -5.0698z"/>
      </g>
      <g fill-rule="evenodd" transform="rotate(90 164.29 130.93)">
       <path style="color-rendering:auto;text-decoration-color:#000000;color:#000000;isolation:auto;mix-blend-mode:normal;shape-rendering:auto;solid-color:#000000;text-decoration-line:none;text-decoration-style:solid;image-rendering:auto;white-space:normal;text-indent:0;text-transform:none" d="m419.92 49.559a5 5 0 0 0 -4.9233 5.0698v13.733h9.999v-13.733a5 5 0 0 0 -5.0757 -5.0698z"/>
       <path style="color-rendering:auto;text-decoration-color:#000000;color:#000000;isolation:auto;mix-blend-mode:normal;shape-rendering:auto;solid-color:#000000;text-decoration-line:none;text-decoration-style:solid;image-rendering:auto;white-space:normal;text-indent:0;text-transform:none" d="m439.92 49.559a5 5 0 0 0 -4.9233 5.0698v13.733h9.999v-13.733a5 5 0 0 0 -5.0757 -5.0698z"/>
       <path style="color-rendering:auto;text-decoration-color:#000000;color:#000000;isolation:auto;mix-blend-mode:normal;shape-rendering:auto;solid-color:#000000;text-decoration-line:none;text-decoration-style:solid;image-rendering:auto;white-space:normal;text-indent:0;text-transform:none" d="m459.92 49.559a5 5 0 0 0 -4.9233 5.0698v13.733h9.999v-13.733a5 5 0 0 0 -5.0757 -5.0698z"/>
      </g>
     </g>
    </g>
   </g>
   <g transform="translate(-375.36 367.02)">
    <rect stroke-linejoin="round" height="122.42" width="138.17" stroke="#305680" stroke-linecap="round" y="424.74" x="-75.83" stroke-width="5.2" fill="none"/>
    <text style="word-spacing:0px;letter-spacing:0px;text-anchor:middle;text-align:center" font-weight="bold" xml:space="preserve" font-size="20px" line-height="0%" y="447.4765" x="-6.2486544" font-family="Roboto" fill="#237de0"><tspan line-height="1.25" y="447.4765" x="-3.7486393">Device </tspan><tspan line-height="1.25" y="472.47665" x="-6.2486548">Application</tspan></text>
    <g fill="#305680" transform="matrix(.42040 0 0 .42040 50.388 330.02)">
     <g transform="translate(-318.77 19.031)" fill="#305680">
      <path style="color-rendering:auto;text-decoration-color:#000000;color:#000000;isolation:auto;mix-blend-mode:normal;shape-rendering:auto;solid-color:#000000;text-decoration-line:none;text-decoration-style:solid;image-rendering:auto;white-space:normal;text-indent:0;text-transform:none" d="m146.6 366.65c-2.065 0.0002-3.739 1.6742-3.7392 3.7392v72.522c0.00021 2.065 1.6742 3.739 3.7392 3.7392h72.522c2.065-0.00021 3.739-1.6742 3.7392-3.7392v-72.522c-0.00021-2.065-1.6742-3.739-3.7392-3.7392z"/>
      <g fill-rule="evenodd" transform="translate(-257.14 294.29)">
       <path style="color-rendering:auto;text-decoration-color:#000000;color:#000000;isolation:auto;mix-blend-mode:normal;shape-rendering:auto;solid-color:#000000;text-decoration-line:none;text-decoration-style:solid;image-rendering:auto;white-space:normal;text-indent:0;text-transform:none" d="m419.92 49.559a5 5 0 0 0 -4.9233 5.0698v13.733h9.999v-13.733a5 5 0 0 0 -5.0757 -5.0698z"/>
       <path style="color-rendering:auto;text-decoration-color:#000000;color:#000000;isolation:auto;mix-blend-mode:normal;shape-rendering:auto;solid-color:#000000;text-decoration-line:none;text-decoration-style:solid;image-rendering:auto;white-space:normal;text-indent:0;text-transform:none" d="m439.92 49.559a5 5 0 0 0 -4.9233 5.0698v13.733h9.999v-13.733a5 5 0 0 0 -5.0757 -5.0698z"/>
       <path style="color-rendering:auto;text-decoration-color:#000000;color:#000000;isolation:auto;mix-blend-mode:normal;shape-rendering:auto;solid-color:#000000;text-decoration-line:none;text-decoration-style:solid;image-rendering:auto;white-space:normal;text-indent:0;text-transform:none" d="m459.92 49.559a5 5 0 0 0 -4.9233 5.0698v13.733h9.999v-13.733a5 5 0 0 0 -5.0757 -5.0698z"/>
      </g>
      <g fill-rule="evenodd" transform="rotate(180 311.43 259.5)">
       <path style="color-rendering:auto;text-decoration-color:#000000;color:#000000;isolation:auto;mix-blend-mode:normal;shape-rendering:auto;solid-color:#000000;text-decoration-line:none;text-decoration-style:solid;image-rendering:auto;white-space:normal;text-indent:0;text-transform:none" d="m419.92 49.559a5 5 0 0 0 -4.9233 5.0698v13.733h9.999v-13.733a5 5 0 0 0 -5.0757 -5.0698z"/>
       <path style="color-rendering:auto;text-decoration-color:#000000;color:#000000;isolation:auto;mix-blend-mode:normal;shape-rendering:auto;solid-color:#000000;text-decoration-line:none;text-decoration-style:solid;image-rendering:auto;white-space:normal;text-indent:0;text-transform:none" d="m439.92 49.559a5 5 0 0 0 -4.9233 5.0698v13.733h9.999v-13.733a5 5 0 0 0 -5.0757 -5.0698z"/>
       <path style="color-rendering:auto;text-decoration-color:#000000;color:#000000;isolation:auto;mix-blend-mode:normal;shape-rendering:auto;solid-color:#000000;text-decoration-line:none;text-decoration-style:solid;image-rendering:auto;white-space:normal;text-indent:0;text-transform:none" d="m459.92 49.559a5 5 0 0 0 -4.9233 5.0698v13.733h9.999v-13.733a5 5 0 0 0 -5.0757 -5.0698z"/>
      </g>
      <g fill-rule="evenodd" transform="rotate(-90 458.57 388.07)">
       <path style="color-rendering:auto;text-decoration-color:#000000;color:#000000;isolation:auto;mix-blend-mode:normal;shape-rendering:auto;solid-color:#000000;text-decoration-line:none;text-decoration-style:solid;image-rendering:auto;white-space:normal;text-indent:0;text-transform:none" d="m419.92 49.559a5 5 0 0 0 -4.9233 5.0698v13.733h9.999v-13.733a5 5 0 0 0 -5.0757 -5.0698z"/>
       <path style="color-rendering:auto;text-decoration-color:#000000;color:#000000;isolation:auto;mix-blend-mode:normal;shape-rendering:auto;solid-color:#000000;text-decoration-line:none;text-decoration-style:solid;image-rendering:auto;white-space:normal;text-indent:0;text-transform:none" d="m439.92 49.559a5 5 0 0 0 -4.9233 5.0698v13.733h9.999v-13.733a5 5 0 0 0 -5.0757 -5.0698z"/>
       <path style="color-rendering:auto;text-decoration-color:#000000;color:#000000;isolation:auto;mix-blend-mode:normal;shape-rendering:auto;solid-color:#000000;text-decoration-line:none;text-decoration-style:solid;image-rendering:auto;white-space:normal;text-indent:0;text-transform:none" d="m459.92 49.559a5 5 0 0 0 -4.9233 5.0698v13.733h9.999v-13.733a5 5 0 0 0 -5.0757 -5.0698z"/>
      </g>
      <g fill-rule="evenodd" transform="rotate(90 164.29 130.93)">
       <path style="color-rendering:auto;text-decoration-color:#000000;color:#000000;isolation:auto;mix-blend-mode:normal;shape-rendering:auto;solid-color:#000000;text-decoration-line:none;text-decoration-style:solid;image-rendering:auto;white-space:normal;text-indent:0;text-transform:none" d="m419.92 49.559a5 5 0 0 0 -4.9233 5.0698v13.733h9.999v-13.733a5 5 0 0 0 -5.0757 -5.0698z"/>
       <path style="color-rendering:auto;text-decoration-color:#000000;color:#000000;isolation:auto;mix-blend-mode:normal;shape-rendering:auto;solid-color:#000000;text-decoration-line:none;text-decoration-style:solid;image-rendering:auto;white-space:normal;text-indent:0;text-transform:none" d="m439.92 49.559a5 5 0 0 0 -4.9233 5.0698v13.733h9.999v-13.733a5 5 0 0 0 -5.0757 -5.0698z"/>
       <path style="color-rendering:auto;text-decoration-color:#000000;color:#000000;isolation:auto;mix-blend-mode:normal;shape-rendering:auto;solid-color:#000000;text-decoration-line:none;text-decoration-style:solid;image-rendering:auto;white-space:normal;text-indent:0;text-transform:none" d="m459.92 49.559a5 5 0 0 0 -4.9233 5.0698v13.733h9.999v-13.733a5 5 0 0 0 -5.0757 -5.0698z"/>
      </g>
     </g>
    </g>
   </g>
   <g transform="translate(-217.98 367.02)">
    <rect stroke-linejoin="round" height="122.42" width="138.17" stroke="#305680" stroke-linecap="round" y="424.74" x="-75.83" stroke-width="5.2" fill="none"/>
    <text style="word-spacing:0px;letter-spacing:0px;text-anchor:middle;text-align:center" font-weight="bold" xml:space="preserve" font-size="20px" line-height="0%" y="447.4765" x="-6.2486544" font-family="Roboto" fill="#237de0"><tspan line-height="1.25" y="447.4765" x="-3.7486393">Device </tspan><tspan line-height="1.25" y="472.47665" x="-6.2486548">Application</tspan></text>
    <g fill="#305680" transform="matrix(.42040 0 0 .42040 50.388 330.02)">
     <g transform="translate(-318.77 19.031)" fill="#305680">
      <path style="color-rendering:auto;text-decoration-color:#000000;color:#000000;isolation:auto;mix-blend-mode:normal;shape-rendering:auto;solid-color:#000000;text-decoration-line:none;text-decoration-style:solid;image-rendering:auto;white-space:normal;text-indent:0;text-transform:none" d="m146.6 366.65c-2.065 0.0002-3.739 1.6742-3.7392 3.7392v72.522c0.00021 2.065 1.6742 3.739 3.7392 3.7392h72.522c2.065-0.00021 3.739-1.6742 3.7392-3.7392v-72.522c-0.00021-2.065-1.6742-3.739-3.7392-3.7392z"/>
      <g fill-rule="evenodd" transform="translate(-257.14 294.29)">
       <path style="color-rendering:auto;text-decoration-color:#000000;color:#000000;isolation:auto;mix-blend-mode:normal;shape-rendering:auto;solid-color:#000000;text-decoration-line:none;text-decoration-style:solid;image-rendering:auto;white-space:normal;text-indent:0;text-transform:none" d="m419.92 49.559a5 5 0 0 0 -4.9233 5.0698v13.733h9.999v-13.733a5 5 0 0 0 -5.0757 -5.0698z"/>
       <path style="color-rendering:auto;text-decoration-color:#000000;color:#000000;isolation:auto;mix-blend-mode:normal;shape-rendering:auto;solid-color:#000000;text-decoration-line:none;text-decoration-style:solid;image-rendering:auto;white-space:normal;text-indent:0;text-transform:none" d="m439.92 49.559a5 5 0 0 0 -4.9233 5.0698v13.733h9.999v-13.733a5 5 0 0 0 -5.0757 -5.0698z"/>
       <path style="color-rendering:auto;text-decoration-color:#000000;color:#000000;isolation:auto;mix-blend-mode:normal;shape-rendering:auto;solid-color:#000000;text-decoration-line:none;text-decoration-style:solid;image-rendering:auto;white-space:normal;text-indent:0;text-transform:none" d="m459.92 49.559a5 5 0 0 0 -4.9233 5.0698v13.733h9.999v-13.733a5 5 0 0 0 -5.0757 -5.0698z"/>
      </g>
      <g fill-rule="evenodd" transform="rotate(180 311.43 259.5)">
       <path style="color-rendering:auto;text-decoration-color:#000000;color:#000000;isolation:auto;mix-blend-mode:normal;shape-rendering:auto;solid-color:#000000;text-decoration-line:none;text-decoration-style:solid;image-rendering:auto;white-space:normal;text-indent:0;text-transform:none" d="m419.92 49.559a5 5 0 0 0 -4.9233 5.0698v13.733h9.999v-13.733a5 5 0 0 0 -5.0757 -5.0698z"/>
       <path style="color-rendering:auto;text-decoration-color:#000000;color:#000000;isolation:auto;mix-blend-mode:normal;shape-rendering:auto;solid-color:#000000;text-decoration-line:none;text-decoration-style:solid;image-rendering:auto;white-space:normal;text-indent:0;text-transform:none" d="m439.92 49.559a5 5 0 0 0 -4.9233 5.0698v13.733h9.999v-13.733a5 5 0 0 0 -5.0757 -5.0698z"/>
       <path style="color-rendering:auto;text-decoration-color:#000000;color:#000000;isolation:auto;mix-blend-mode:normal;shape-rendering:auto;solid-color:#000000;text-decoration-line:none;text-decoration-style:solid;image-rendering:auto;white-space:normal;text-indent:0;text-transform:none" d="m459.92 49.559a5 5 0 0 0 -4.9233 5.0698v13.733h9.999v-13.733a5 5 0 0 0 -5.0757 -5.0698z"/>
      </g>
      <g fill-rule="evenodd" transform="rotate(-90 458.57 388.07)">
       <path style="color-rendering:auto;text-decoration-color:#000000;color:#000000;isolation:auto;mix-blend-mode:normal;shape-rendering:auto;solid-color:#000000;text-decoration-line:none;text-decoration-style:solid;image-rendering:auto;white-space:normal;text-indent:0;text-transform:none" d="m419.92 49.559a5 5 0 0 0 -4.9233 5.0698v13.733h9.999v-13.733a5 5 0 0 0 -5.0757 -5.0698z"/>
       <path style="color-rendering:auto;text-decoration-color:#000000;color:#000000;isolation:auto;mix-blend-mode:normal;shape-rendering:auto;solid-color:#000000;text-decoration-line:none;text-decoration-style:solid;image-rendering:auto;white-space:normal;text-indent:0;text-transform:none" d="m439.92 49.559a5 5 0 0 0 -4.9233 5.0698v13.733h9.999v-13.733a5 5 0 0 0 -5.0757 -5.0698z"/>
       <path style="color-rendering:auto;text-decoration-color:#000000;color:#000000;isolation:auto;mix-blend-mode:normal;shape-rendering:auto;solid-color:#000000;text-decoration-line:none;text-decoration-style:solid;image-rendering:auto;white-space:normal;text-indent:0;text-transform:none" d="m459.92 49.559a5 5 0 0 0 -4.9233 5.0698v13.733h9.999v-13.733a5 5 0 0 0 -5.0757 -5.0698z"/>
      </g>
      <g fill-rule="evenodd" transform="rotate(90 164.29 130.93)">
       <path style="color-rendering:auto;text-decoration-color:#000000;color:#000000;isolation:auto;mix-blend-mode:normal;shape-rendering:auto;solid-color:#000000;text-decoration-line:none;text-decoration-style:solid;image-rendering:auto;white-space:normal;text-indent:0;text-transform:none" d="m419.92 49.559a5 5 0 0 0 -4.9233 5.0698v13.733h9.999v-13.733a5 5 0 0 0 -5.0757 -5.0698z"/>
       <path style="color-rendering:auto;text-decoration-color:#000000;color:#000000;isolation:auto;mix-blend-mode:normal;shape-rendering:auto;solid-color:#000000;text-decoration-line:none;text-decoration-style:solid;image-rendering:auto;white-space:normal;text-indent:0;text-transform:none" d="m439.92 49.559a5 5 0 0 0 -4.9233 5.0698v13.733h9.999v-13.733a5 5 0 0 0 -5.0757 -5.0698z"/>
       <path style="color-rendering:auto;text-decoration-color:#000000;color:#000000;isolation:auto;mix-blend-mode:normal;shape-rendering:auto;solid-color:#000000;text-decoration-line:none;text-decoration-style:solid;image-rendering:auto;white-space:normal;text-indent:0;text-transform:none" d="m459.92 49.559a5 5 0 0 0 -4.9233 5.0698v13.733h9.999v-13.733a5 5 0 0 0 -5.0757 -5.0698z"/>
      </g>
     </g>
    </g>
   </g>
  </g>
  <g fill="#305680">
   <path d="m212.63 758.18c-1.2846 3.5231-2.5715 7.0439-3.8521 10.569 0.87031-0.41811 1.7342-0.85323 2.6025-1.2738 0.002 2.3609 0.0136 8.9556 0.0129 11.316 0.00026 2.3605 0.001 13.132-0.00059 15.493-0.86831-0.4206-2.6025-1.2739-2.6025-1.2739 1.2805 3.5255 2.5673 7.0464 3.8518 10.57 1.2992-3.515 2.5761-7.0429 3.8587-10.568-0.86963 0.41653-1.7334 0.85151-2.6017 1.2729-0.002-2.3608-0.001-13.133-0.00042-15.494-0.00042-2.361-0.0135-8.9561-0.0116-11.317 0.86828 0.42142 1.7321 0.85642 2.6017 1.273-1.2825-3.5247-2.5593-7.0527-3.8584-10.568z"/>
   <path d="m310.94 758.18c-1.2846 3.5231-2.5715 7.0439-3.8521 10.569 0.8703-0.41811 1.7342-0.85323 2.6025-1.2738 0.002 2.3609 0.0136 8.9556 0.0129 11.316 0.00027 2.3605 0.001 13.132-0.00058 15.493-0.86831-0.4206-2.6025-1.2739-2.6025-1.2739 1.2805 3.5255 2.5673 7.0464 3.8518 10.57 1.2992-3.515 2.5761-7.0429 3.8587-10.568-0.86963 0.41653-1.7334 0.85151-2.6018 1.2729-0.002-2.3608-0.001-13.133-0.00041-15.494-0.00042-2.361-0.0135-8.9561-0.0116-11.317 0.86827 0.42142 1.7321 0.85642 2.6017 1.273-1.2825-3.5247-2.5593-7.0527-3.8584-10.568z"/>
   <path d="m409.25 758.18c-1.2846 3.5231-2.5715 7.0439-3.8521 10.569 0.87031-0.41811 1.7342-0.85323 2.6025-1.2738 0.002 2.3609 0.0136 8.9556 0.0129 11.316 0.00027 2.3605 0.001 13.132-0.00058 15.493-0.86831-0.4206-2.6025-1.2739-2.6025-1.2739 1.2805 3.5255 2.5673 7.0464 3.8518 10.57 1.2992-3.515 2.5761-7.0429 3.8587-10.568-0.86963 0.41653-1.7334 0.85151-2.6018 1.2729-0.002-2.3608-0.001-13.133-0.00042-15.494-0.00042-2.361-0.0135-8.9561-0.0116-11.317 0.86828 0.42142 1.7321 0.85642 2.6017 1.273-1.2825-3.5247-2.5593-7.0527-3.8584-10.568z"/>
  </g>
  <text style="word-spacing:0px;letter-spacing:0px;text-anchor:middle;text-align:center" font-weight="bold" xml:space="preserve" line-height="0%" y="794.85583" x="285.82828" font-family="Roboto" fill="#237de0"><tspan font-size="12.493px" line-height="1.25" y="794.85583" x="285.82828">HTTP</tspan></text>
  <text style="word-spacing:0px;letter-spacing:0px;text-anchor:middle;text-align:center" font-weight="bold" xml:space="preserve" line-height="0%" y="794.18323" x="384.76212" font-family="Roboto" fill="#237de0"><tspan font-size="12.493px" line-height="1.25" y="794.18323" x="384.76212">CoAP</tspan></text>
  <g transform="matrix(.62464 0 0 .62464 708.55 45.813)">
   <g transform="translate(34.126)">
    <rect stroke-linejoin="round" height="120.81" width="133.38" stroke="#305680" stroke-linecap="round" y="225.9" x="-577.91" stroke-width="5.2" fill="none"/>
    <text style="word-spacing:0px;letter-spacing:0px;text-anchor:middle;text-align:center" font-weight="bold" xml:space="preserve" font-size="20px" line-height="0%" y="249.83809" x="-511.19278" font-family="Roboto" fill="#237de0"><tspan line-height="1.25" y="249.83809" x="-511.19278">Server-side</tspan><tspan line-height="1.25" y="274.83826" x="-511.19278">applications</tspan></text>
    <g fill-rule="evenodd" transform="matrix(.77782 -1.0152 1.0152 .77782 -1642.4 44.754)" clip-rule="evenodd" fill="#305680">
     <path d="m363.34 833.96c1.6957 0.36941 3.8357-2.9495 2.9776-4.2854-0.28078-0.43886-0.42149-0.92847-0.43076-1.4141 0.91589-0.99503 2.8621-2.1052 3.8572-2.5322 0.45803 0.20996 0.8627 0.54821 1.155 1.0035 0.93562 1.458 4.7543 0.81995 5.1349-0.92501 0.11881-0.54527 0.48638-1.0913 0.76615-1.3768 0.95979-0.00083 3.0259 0.39787 4.4258 0.95493 0.17933 0.35712 0.24744 1.032 0.12672 1.5803-0.40182 1.8456 2.9168 3.8563 4.3141 2.9593 0.46665-0.2999 1.1255-0.46344 1.5066-0.43241 0.72718 0.70605 2.04 2.7585 2.4742 3.7763-0.28144 0.41708-0.55777 0.92771-1.0396 1.2367-1.3968 0.89757-0.86622 4.7699 0.9287 5.1612 0.59041 0.12892 1.1144 0.44934 1.4642 0.86128-0.0522 0.99901-0.60101 3.4216-0.99349 4.3106-0.22593 0.18113-1.0626 0.27217-1.6303 0.14824-2.4433-0.53217-4.0844 2.6069-2.9925 4.3071 0.30832 0.48046 0.50284 1.0269 0.43021 1.5521-0.69255 0.70104-2.6906 1.997-3.7743 2.4303-0.47093-0.17709-0.92799-0.55723-1.2371-1.0394-0.97473-1.5191-4.726-1.0652-5.1609 0.92952-0.11338 0.51901-0.42849 0.96401-0.74944 1.3942-1.2742-0.0952-3.4871-0.44591-4.5187-1.0113-0.17766-0.48873-0.16174-1.0337-0.0509-1.5412 0.38053-1.746-2.7597-3.9861-4.278-3.011-0.42426 0.27277-0.928 0.47952-1.4014 0.49982-0.93531-0.87967-2.3071-2.9541-2.6105-3.9706 0.23037-0.50933 0.63103-0.82739 1.0711-1.1106 1.6403-1.0524 0.97092-4.7227-0.9238-5.1353-0.51861-0.1135-0.99378-0.41073-1.3581-0.73085 0.10629-1.1032 0.34297-3.0499 0.9398-4.462 0.58126-0.22927 1.0294-0.2464 1.5775-0.12715zm4.5488 3.6302c-0.94174 4.3184 1.7959 8.581 6.1138 9.5222 4.3177 0.94039 8.5808-1.798 9.5221-6.1162 0.94133-4.3182-1.7961-8.5811-6.1137-9.5218-4.3178-0.94079-8.5809 1.797-9.5222 6.1158z"/>
     <path d="m370.63 810.63c0.80729 0.40719 2.319-0.98843 2.0601-1.7741-0.0845-0.25795-0.0917-0.52326-0.0332-0.76946 0.5916-0.38269 1.7179-0.68931 2.2756-0.77511 0.20371 0.16557 0.36382 0.38889 0.45196 0.65661 0.28212 0.85735 2.2916 1.0327 2.7108 0.20203 0.13097-0.25958 0.38746-0.48717 0.56577-0.59476 0.48429 0.12457 1.4747 0.59475 2.1083 1.058 0.044 0.20351-0.01 0.55282-0.14186 0.81371-0.44301 0.8787 0.96927 2.3252 1.7909 2.0546 0.27446-0.0905 0.62813-0.0872 0.81631-0.022 0.2749 0.45087 0.66993 1.6572 0.75642 2.2272-0.19629 0.17375-0.40218 0.39537-0.68547 0.48849-0.82153 0.2709-1.0581 2.2935-0.20358 2.7246 0.281 0.14202 0.50369 0.37179 0.62648 0.62514-0.15641 0.49718-0.74874 1.6478-1.0625 2.0452-0.13756 0.062-0.5715-0.001-0.84171-0.1375-1.1633-0.58663-2.3999 0.78323-2.0705 1.7831 0.093 0.28252 0.11995 0.58351 0.0149 0.83898-0.44066 0.26346-1.6174 0.65704-2.2205 0.73453-0.2145-0.15066-0.39557-0.40194-0.48871-0.68545-0.2939-0.89325-2.2454-1.1528-2.7245-0.20313-0.12491 0.247-0.34169 0.43051-0.55961 0.60572-0.6304-0.21394-1.701-0.67903-2.1478-1.0986-0.026-0.26968 0.053-0.54252 0.17501-0.78411 0.41933-0.83125-0.87309-2.3702-1.766-2.076-0.24954 0.0824-0.53058 0.12105-0.77206 0.0696-0.35727-0.56555-0.77918-1.7906-0.79985-2.343 0.18253-0.22695 0.42608-0.33522 0.68497-0.42076 0.96451-0.31732 1.1048-2.256 0.20269-2.7109-0.24683-0.12481-0.44784-0.33661-0.58996-0.54554 0.19728-0.54269 0.57016-1.4939 1.0551-2.1285 0.32308-0.04 0.55138 0.01 0.81234 0.14127zm1.822 2.4236c-1.0374 2.0558-0.21145 4.5626 1.8442 5.5997 2.0556 1.0366 4.5628 0.21034 5.6-1.8455s0.21133-4.5628-1.8442-5.5995c-2.0557-1.0369-4.5627-0.2109-5.6 1.8452z"/>
     <path d="m347.84 818.38c1.2056 0.23226 2.6624-2.1517 2.0326-3.0818-0.20608-0.30559-0.31398-0.64947-0.32885-0.99278 0.63076-0.71942 1.9882-1.5379 2.6848-1.8569 0.32753 0.14068 0.61953 0.37297 0.83402 0.68997 0.68666 1.0152 3.3765 0.49859 3.6159-0.74207 0.0747-0.38768 0.32533-0.78014 0.51832-0.98683 0.67881-0.017 2.1469 0.22964 3.1465 0.59967 0.13295 0.24952 0.19266 0.72564 0.11665 1.1155-0.2526 1.3122 2.129 2.6776 3.1018 2.0192 0.32491-0.22009 0.7881-0.34703 1.0581-0.3316 0.5264 0.48692 1.49 1.9161 1.8145 2.6285-0.19193 0.2998-0.37863 0.66567-0.7141 0.89244-0.97257 0.65872-0.53105 3.3884 0.74513 3.6344 0.41977 0.0811 0.79589 0.29873 1.0503 0.58409-0.0198 0.70746-0.36655 2.4302-0.62891 3.0657-0.15669 0.13198-0.7469 0.21068-1.1505 0.13274-1.7372-0.33459-2.8441 1.9136-2.0428 3.0974 0.22628 0.33453 0.37321 0.71768 0.33083 1.0904-0.47783 0.50766-1.8688 1.4584-2.6278 1.7834-0.3361-0.11719-0.66587-0.37822-0.89273-0.714-0.71537-1.0577-3.3608-0.67257-3.6342 0.74571-0.0713 0.36901-0.28654 0.68914-0.50619 0.99885-0.90283-0.0455-2.4739-0.25572-3.2132-0.63794-0.13402-0.34262-0.13207-0.72833-0.0624-1.0892 0.23926-1.2414-2.02-2.772-3.0771-2.0564-0.2954 0.20018-0.64814 0.35503-0.98264 0.37748-0.67656-0.60616-1.6823-2.0498-1.9142-2.7636 0.15416-0.36419 0.43215-0.59597 0.73858-0.80378 1.1421-0.7724 0.60591-3.3568-0.74121-3.6162-0.36874-0.0714-0.7099-0.27349-0.97307-0.49365 0.0563-0.78208 0.1904-2.1629 0.58836-3.1718 0.40718-0.1721 0.72384-0.19189 1.1135-0.11693zm3.2793 2.4897c-0.59218 3.0703 1.4169 6.0383 4.487 6.6301 3.0698 0.59125 6.0381-1.4185 6.63-4.4887 0.59191-3.0702-1.4171-6.0384-4.4869-6.6298-3.0699-0.59153-6.0382 1.4177-6.6301 4.4884z"/>
    </g>
   </g>
  </g>
  <path d="m410.52 265.66c-1.2846 3.5231-2.5715 7.0439-3.8521 10.569 0.87031-0.41811 1.7342-0.85322 2.6025-1.2738 0.002 2.3609 0.0136 8.9556 0.0129 11.316 0.00027 2.3605 0.001 35.08-0.00058 37.441-0.86831-0.42061-2.6025-1.2739-2.6025-1.2739 1.2805 3.5255 2.5673 7.0464 3.8518 10.57 1.2992-3.515 2.5761-7.0429 3.8587-10.568-0.86963 0.41653-1.7334 0.85151-2.6017 1.2729-0.003-2.3608-0.001-35.081-0.00042-37.442-0.00042-2.361-0.0135-8.9561-0.0116-11.317 0.86828 0.42141 1.7321 0.85642 2.6017 1.273-1.2825-3.5247-2.5593-7.0527-3.8584-10.568z" fill="#305680"/>
  <g transform="matrix(.62464 0 0 .62464 663.67 305.2)">
   <g fill="#305680" transform="matrix(.11414 0 0 .11414 -747.45 -129.06)">
    <g fill="#305680">
     <path d="m204.58 216.67c50.664 0 91.74-48.075 91.74-107.38 0-82.237-41.074-107.38-91.74-107.38-50.668 0-91.74 25.14-91.74 107.38 0.001 59.303 41.073 107.38 91.74 107.38z"/>
     <path d="m407.16 374.72-46.28-104.27c-2.117-4.771-5.836-8.728-10.465-11.138l-71.83-37.392c-1.584-0.823-3.502-0.663-4.926 0.415-20.316 15.366-44.203 23.488-69.076 23.488-24.877 0-48.762-8.122-69.078-23.488-1.428-1.078-3.346-1.238-4.93-0.415l-71.83 37.4c-4.631 2.41-8.346 6.365-10.465 11.138l-46.284 104.26c-3.191 7.188-2.537 15.412 1.75 22.005 4.285 6.592 11.537 10.526 19.4 10.526h362.86c7.863 0 15.117-3.936 19.402-10.527 4.285-6.592 4.941-14.819 1.75-22.004z"/>
    </g>
   </g>
   <rect stroke-linejoin="round" height="120.81" width="133.38" stroke="#305680" stroke-linecap="round" y="-189.36" x="-790.79" stroke-width="5.2" fill="none"/>
   <text style="word-spacing:0px;letter-spacing:0px;text-anchor:middle;text-align:center" font-weight="bold" xml:space="preserve" font-size="20px" line-height="0%" y="-165.42134" x="-724.61371" font-family="Roboto" fill="#237de0"><tspan line-height="1.25" y="-165.42134" x="-724.61371">User</tspan><tspan line-height="1.25" y="-140.42119" x="-724.61371">Browser</tspan></text>
  </g>
  <path d="m211.35 265.66c-1.2846 3.5231-2.5715 7.0439-3.8521 10.569 0.8703-0.41811 1.7342-0.85323 2.6025-1.2738 0.002 2.3609 0.0136 8.9556 0.0129 11.316 0.00027 2.3605 0.001 35.08-0.00058 37.441-0.86831-0.4206-2.6025-1.2739-2.6025-1.2739 1.2805 3.5255 2.5673 7.0464 3.8518 10.57 1.2992-3.515 2.5761-7.0429 3.8587-10.568-0.86963 0.41653-1.7334 0.85151-2.6018 1.2729-0.002-2.3608-0.001-35.081-0.00041-37.442-0.00042-2.361-0.0135-8.9561-0.0116-11.317 0.86827 0.42141 1.7321 0.85642 2.6017 1.273-1.2825-3.5247-2.5593-7.0527-3.8584-10.568z" fill="#305680"/>
  <g transform="matrix(.62464 0 0 .62464 53.78 332.31)">
   <rect stroke-linejoin="round" height="125.72" width="138.09" stroke="#305680" stroke-linecap="round" y="551.67" x="185.24" stroke-width="5.2" fill="none"/>
   <text style="word-spacing:0px;letter-spacing:0px;text-anchor:middle;text-align:center" font-weight="bold" xml:space="preserve" font-size="20px" line-height="0%" y="576.37097" x="254.28113" font-family="Roboto" fill="#237de0"><tspan line-height="1.25" y="576.37097" x="254.28113">MQTT</tspan><tspan line-height="1.25" y="601.37115" x="254.28113">Transport</tspan></text>
   <path style="color-rendering:auto;text-decoration-color:#000000;color:#000000;isolation:auto;mix-blend-mode:normal;shape-rendering:auto;solid-color:#000000;text-decoration-line:none;text-decoration-style:solid;image-rendering:auto;white-space:normal;text-indent:0;text-transform:none" d="m247.55 610.4v13.602h13.6v-13.602zm-3.3093 4.4942c-7.314 0.00031-13.295 5.982-13.295 13.296a2.4005 2.4005 0 1 0 4.7998 0c0.00019-4.7198 3.7752-8.4948 8.495-8.495a2.4005 2.4005 0 0 0 0 -4.801zm20.574 0a2.4005 2.4005 0 1 0 0 4.801c4.7198 0.00021 8.4948 3.7752 8.495 8.495a2.4005 2.4005 0 1 0 4.7998 0c-0.00031-7.314-5.9808-13.296-13.295-13.296zm-38.506 16.783v13.6h13.599v-13.6zm42.35 0v13.6h13.599v-13.6zm-35.35 15.469a2.4005 2.4005 0 0 0 -2.3631 2.4344c0.00031 7.314 5.9808 13.295 13.295 13.295a2.4005 2.4005 0 0 0 0 -4.8009c-4.7198-0.0002-8.4948-3.7752-8.495-8.495a2.4005 2.4005 0 0 0 -2.4367 -2.4333zm42.365 0a2.4005 2.4005 0 0 0 -2.3643 2.4333c-0.0002 4.7198-3.7752 8.4948-8.495 8.495a2.4005 2.4005 0 1 0 0 4.8009c7.314-0.00029 13.295-5.9808 13.295-13.295a2.4005 2.4005 0 0 0 -2.4356 -2.4344zm-28.124 5.9497v13.602h13.61v-13.602z" fill="#305680"/>
  </g>
  <g transform="matrix(.62464 0 0 .62464 53.78 332.31)">
   <rect stroke-linejoin="round" height="125.72" width="138.09" stroke="#305680" stroke-linecap="round" y="551.67" x="342.66" stroke-width="5.2" fill="none"/>
   <text style="word-spacing:0px;letter-spacing:0px;text-anchor:middle;text-align:center" font-weight="bold" xml:space="preserve" font-size="20px" line-height="0%" y="576.37097" x="411.70105" font-family="Roboto" fill="#237de0"><tspan line-height="1.25" y="576.37097" x="411.70105">HTTP</tspan><tspan line-height="1.25" y="601.37115" x="411.70105">Transport</tspan></text>
   <path style="color-rendering:auto;text-decoration-color:#000000;color:#000000;isolation:auto;mix-blend-mode:normal;shape-rendering:auto;solid-color:#000000;text-decoration-line:none;text-decoration-style:solid;image-rendering:auto;white-space:normal;text-indent:0;text-transform:none" d="m404.97 610.4v13.602h13.6v-13.602zm-3.3093 4.4942c-7.314 0.00031-13.295 5.982-13.295 13.296a2.4005 2.4005 0 1 0 4.7998 0c0.00019-4.7198 3.7752-8.4948 8.495-8.495a2.4005 2.4005 0 0 0 0 -4.801zm20.574 0a2.4005 2.4005 0 1 0 0 4.801c4.7198 0.00021 8.4948 3.7752 8.495 8.495a2.4005 2.4005 0 1 0 4.7998 0c-0.00031-7.314-5.9808-13.296-13.295-13.296zm-38.506 16.783v13.6h13.599v-13.6zm42.35 0v13.6h13.599v-13.6zm-35.35 15.469a2.4005 2.4005 0 0 0 -2.3631 2.4344c0.00031 7.314 5.9808 13.295 13.295 13.295a2.4005 2.4005 0 0 0 0 -4.8009c-4.7198-0.0002-8.4948-3.7752-8.495-8.495a2.4005 2.4005 0 0 0 -2.4367 -2.4333zm42.365 0a2.4005 2.4005 0 0 0 -2.3643 2.4333c-0.0002 4.7198-3.7752 8.4948-8.495 8.495a2.4005 2.4005 0 1 0 0 4.8009c7.314-0.00029 13.295-5.9808 13.295-13.295a2.4005 2.4005 0 0 0 -2.4356 -2.4344zm-28.124 5.9497v13.602h13.6v-13.602z" fill="#305680"/>
  </g>
  <g transform="matrix(.62464 0 0 .62464 53.78 332.31)">
   <rect stroke-linejoin="round" height="125.72" width="138.09" stroke="#305680" stroke-linecap="round" y="551.67" x="500.08" stroke-width="5.2" fill="none"/>
   <text style="word-spacing:0px;letter-spacing:0px;text-anchor:middle;text-align:center" font-weight="bold" xml:space="preserve" font-size="20px" line-height="0%" y="576.37097" x="569.12097" font-family="Roboto" fill="#237de0"><tspan line-height="1.25" y="576.37097" x="569.12097">CoAP</tspan><tspan line-height="1.25" y="601.37115" x="569.12097">Transport</tspan></text>
   <path style="color-rendering:auto;text-decoration-color:#000000;color:#000000;isolation:auto;mix-blend-mode:normal;shape-rendering:auto;solid-color:#000000;text-decoration-line:none;text-decoration-style:solid;image-rendering:auto;white-space:normal;text-indent:0;text-transform:none" d="m562.39 610.4v13.602h13.6v-13.602zm-3.3093 4.4942c-7.314 0.00031-13.295 5.982-13.295 13.296a2.4005 2.4005 0 1 0 4.7998 0c0.00019-4.7198 3.7752-8.4948 8.495-8.495a2.4005 2.4005 0 0 0 0 -4.801zm20.574 0a2.4005 2.4005 0 1 0 0 4.801c4.7198 0.00021 8.4948 3.7752 8.495 8.495a2.4005 2.4005 0 1 0 4.7998 0c-0.00031-7.314-5.9808-13.296-13.295-13.296zm-38.506 16.783v13.6h13.599v-13.6zm42.35 0v13.6h13.599v-13.6zm-35.35 15.469a2.4005 2.4005 0 0 0 -2.3631 2.4344c0.00031 7.314 5.9808 13.295 13.295 13.295a2.4005 2.4005 0 0 0 0 -4.8009c-4.7198-0.0002-8.4948-3.7752-8.495-8.495a2.4005 2.4005 0 0 0 -2.4367 -2.4333zm42.365 0a2.4005 2.4005 0 0 0 -2.3643 2.4333c-0.0002 4.7198-3.7752 8.4948-8.495 8.495a2.4005 2.4005 0 1 0 0 4.8009c7.314-0.00029 13.295-5.9808 13.295-13.295a2.4005 2.4005 0 0 0 -2.4356 -2.4344zm-28.124 5.9497v13.602h13.6v-13.602z" fill="#305680"/>
  </g>
 </g>
</svg>
