<svg xmlns="http://www.w3.org/2000/svg" height="393.37" viewBox="0 0 600.00273 393.37041" width="600" version="1.1">
 <g transform="matrix(.73195 0 0 .73195 .49720 21.125)">
  <rect stroke-linejoin="round" stroke-dasharray="10.40006447, 10.40006447" height="184.02" width="211.87" stroke="#305680" stroke-linecap="round" y="144.73" x="302.83" stroke-width="5.2" fill="none"/>
  <text style="word-spacing:0px;letter-spacing:0px;text-anchor:middle;text-align:center" font-weight="bold" xml:space="preserve" line-height="0%" y="177.80743" x="462.84918" font-family="Roboto" fill="#305680"><tspan font-size="20px" line-height="1.25" y="177.80743" x="462.84918">Node B</tspan></text>
 </g>
 <g transform="matrix(.73195 0 0 .73195 .49720 21.125)">
  <rect stroke-linejoin="round" stroke-dasharray="10.40006447, 10.40006447" height="182.65" width="211.88" stroke="#305680" stroke-linecap="round" y="145.42" x="604.57" stroke-width="5.2" fill="none"/>
  <text style="word-spacing:0px;letter-spacing:0px;text-anchor:middle;text-align:center" font-weight="bold" xml:space="preserve" line-height="0%" y="177.80743" x="764.59949" font-family="Roboto" fill="#305680"><tspan font-size="20px" line-height="1.25" y="177.80743" x="764.59949">Node C</tspan></text>
 </g>
 <g transform="matrix(.73195 0 0 .73195 .49720 21.125)">
  <rect stroke-linejoin="round" stroke-dasharray="10.40006447, 10.40006447" height="185.38" width="211.85" stroke="#305680" stroke-linecap="round" y="144.06" x="1.9199" stroke-width="5.2" fill="none"/>
  <text style="word-spacing:0px;letter-spacing:0px;text-anchor:middle;text-align:center" font-weight="bold" xml:space="preserve" line-height="0%" y="177.80743" x="161.9321" font-family="Roboto" fill="#305680"><tspan font-size="20px" line-height="1.25" y="177.80743" x="161.9321">Node A</tspan></text>
 </g>
 <path d="m520.55 244.62c-1.5053 4.1283-3.0132 8.254-4.5138 12.385 1.0198-0.48993 2.0321-0.9998 3.0496-1.4926 0.002 2.7664 0.0159 6.7043 0.0152 9.4704 0.00032 2.766 0.001 19.062-0.00068 21.828-1.0175-0.49285-3.0496-1.4927-3.0496-1.4927 1.5005 4.1312 3.0084 8.2569 4.5135 12.385 1.5224-4.1188 3.0186-8.2528 4.5216-12.383-1.019 0.48808-2.0312 0.99779-3.0487 1.4915-0.003-2.7664-0.001-19.062-0.00049-21.829-0.00049-2.7665-0.0158-6.7049-0.0136-9.4715 1.0174 0.49381 2.0297 1.0036 3.0487 1.4917-1.5028-4.1302-2.999-8.2643-4.5213-12.383z" stroke-width=".73195" fill="#305680"/>
 <text style="word-spacing:0px;letter-spacing:0px;text-anchor:middle;text-align:center" font-weight="bold" xml:space="preserve" font-size="8.7834px" line-height="0%" y="284.18295" x="491.17175" font-family="Roboto" fill="#237de0"><tspan font-size="14.639px" line-height="1.25" y="284.18295" x="491.17175" stroke-width=".73195px">MQTT</tspan></text>
 <g transform="matrix(.73195 0 0 .73195 84.374 107.84)">
  <path d="m369.02 136.85c5.6402 2.0565 11.277 4.1167 16.921 6.1669-0.66936-1.3933-1.366-2.7762-2.0392-4.1664 3.7795-0.003 9.1596-0.0217 12.939-0.0207 3.779-0.00043 103.74-0.002 107.52 0.00093-0.67335 1.3901-1.3699 2.773-2.0394 4.1664 5.6441-2.05 11.281-4.1101 16.921-6.1665-5.6272-2.0799-11.275-4.1241-16.918-6.1775 0.66683 1.3922 1.3632 2.7751 2.0378 4.1652-3.7794 0.004-103.75 0.002-107.52 0.00067-3.7797 0.00067-9.1604 0.0216-12.94 0.0186 0.67465-1.39 1.3711-2.773 2.0379-4.1651-5.6428 2.0532-11.291 4.0973-16.918 6.1771z" fill="#305680"/>
  <text style="word-spacing:0px;letter-spacing:0px;text-anchor:middle;text-align:center" font-weight="bold" xml:space="preserve" line-height="0%" y="125.51778" x="443.81207" font-family="Roboto" fill="#237de0"><tspan font-size="20px" line-height="1.25" y="125.51778" x="443.81207">RPC</tspan></text>
 </g>
 <g transform="matrix(.73195 0 0 .73195 .49720 21.125)">
  <rect stroke-linejoin="round" height="122.42" width="138.17" stroke="#305680" stroke-linecap="round" y="383.54" x="641.43" stroke-width="5.2" fill="none"/>
  <text style="word-spacing:0px;letter-spacing:0px;text-anchor:middle;text-align:center" font-weight="bold" xml:space="preserve" font-size="20px" line-height="0%" y="406.28458" x="711.01245" font-family="Roboto" fill="#237de0"><tspan line-height="1.25" y="406.28458" x="713.51245">Device D1 </tspan><tspan line-height="1.25" y="431.28473" x="711.01245">Application</tspan></text>
  <g fill="#305680" transform="matrix(.42040 0 0 .42040 767.65 288.83)">
   <g transform="translate(-318.77 19.031)" fill="#305680">
    <path style="color-rendering:auto;text-decoration-color:#000000;color:#000000;isolation:auto;mix-blend-mode:normal;shape-rendering:auto;solid-color:#000000;text-decoration-line:none;text-decoration-style:solid;image-rendering:auto;white-space:normal;text-indent:0;text-transform:none" d="m146.6 366.65c-2.065 0.0002-3.739 1.6742-3.7392 3.7392v72.522c0.00021 2.065 1.6742 3.739 3.7392 3.7392h72.522c2.065-0.00021 3.739-1.6742 3.7392-3.7392v-72.522c-0.00021-2.065-1.6742-3.739-3.7392-3.7392z"/>
    <g fill-rule="evenodd" transform="translate(-257.14 294.29)">
     <path style="color-rendering:auto;text-decoration-color:#000000;color:#000000;isolation:auto;mix-blend-mode:normal;shape-rendering:auto;solid-color:#000000;text-decoration-line:none;text-decoration-style:solid;image-rendering:auto;white-space:normal;text-indent:0;text-transform:none" d="m419.92 49.559a5 5 0 0 0 -4.9233 5.0698v13.733h9.999v-13.733a5 5 0 0 0 -5.0757 -5.0698z"/>
     <path style="color-rendering:auto;text-decoration-color:#000000;color:#000000;isolation:auto;mix-blend-mode:normal;shape-rendering:auto;solid-color:#000000;text-decoration-line:none;text-decoration-style:solid;image-rendering:auto;white-space:normal;text-indent:0;text-transform:none" d="m439.92 49.559a5 5 0 0 0 -4.9233 5.0698v13.733h9.999v-13.733a5 5 0 0 0 -5.0757 -5.0698z"/>
     <path style="color-rendering:auto;text-decoration-color:#000000;color:#000000;isolation:auto;mix-blend-mode:normal;shape-rendering:auto;solid-color:#000000;text-decoration-line:none;text-decoration-style:solid;image-rendering:auto;white-space:normal;text-indent:0;text-transform:none" d="m459.92 49.559a5 5 0 0 0 -4.9233 5.0698v13.733h9.999v-13.733a5 5 0 0 0 -5.0757 -5.0698z"/>
    </g>
    <g fill-rule="evenodd" transform="rotate(180 311.43 259.5)">
     <path style="color-rendering:auto;text-decoration-color:#000000;color:#000000;isolation:auto;mix-blend-mode:normal;shape-rendering:auto;solid-color:#000000;text-decoration-line:none;text-decoration-style:solid;image-rendering:auto;white-space:normal;text-indent:0;text-transform:none" d="m419.92 49.559a5 5 0 0 0 -4.9233 5.0698v13.733h9.999v-13.733a5 5 0 0 0 -5.0757 -5.0698z"/>
     <path style="color-rendering:auto;text-decoration-color:#000000;color:#000000;isolation:auto;mix-blend-mode:normal;shape-rendering:auto;solid-color:#000000;text-decoration-line:none;text-decoration-style:solid;image-rendering:auto;white-space:normal;text-indent:0;text-transform:none" d="m439.92 49.559a5 5 0 0 0 -4.9233 5.0698v13.733h9.999v-13.733a5 5 0 0 0 -5.0757 -5.0698z"/>
     <path style="color-rendering:auto;text-decoration-color:#000000;color:#000000;isolation:auto;mix-blend-mode:normal;shape-rendering:auto;solid-color:#000000;text-decoration-line:none;text-decoration-style:solid;image-rendering:auto;white-space:normal;text-indent:0;text-transform:none" d="m459.92 49.559a5 5 0 0 0 -4.9233 5.0698v13.733h9.999v-13.733a5 5 0 0 0 -5.0757 -5.0698z"/>
    </g>
    <g fill-rule="evenodd" transform="rotate(-90 458.57 388.07)">
     <path style="color-rendering:auto;text-decoration-color:#000000;color:#000000;isolation:auto;mix-blend-mode:normal;shape-rendering:auto;solid-color:#000000;text-decoration-line:none;text-decoration-style:solid;image-rendering:auto;white-space:normal;text-indent:0;text-transform:none" d="m419.92 49.559a5 5 0 0 0 -4.9233 5.0698v13.733h9.999v-13.733a5 5 0 0 0 -5.0757 -5.0698z"/>
     <path style="color-rendering:auto;text-decoration-color:#000000;color:#000000;isolation:auto;mix-blend-mode:normal;shape-rendering:auto;solid-color:#000000;text-decoration-line:none;text-decoration-style:solid;image-rendering:auto;white-space:normal;text-indent:0;text-transform:none" d="m439.92 49.559a5 5 0 0 0 -4.9233 5.0698v13.733h9.999v-13.733a5 5 0 0 0 -5.0757 -5.0698z"/>
     <path style="color-rendering:auto;text-decoration-color:#000000;color:#000000;isolation:auto;mix-blend-mode:normal;shape-rendering:auto;solid-color:#000000;text-decoration-line:none;text-decoration-style:solid;image-rendering:auto;white-space:normal;text-indent:0;text-transform:none" d="m459.92 49.559a5 5 0 0 0 -4.9233 5.0698v13.733h9.999v-13.733a5 5 0 0 0 -5.0757 -5.0698z"/>
    </g>
    <g fill-rule="evenodd" transform="rotate(90 164.29 130.93)">
     <path style="color-rendering:auto;text-decoration-color:#000000;color:#000000;isolation:auto;mix-blend-mode:normal;shape-rendering:auto;solid-color:#000000;text-decoration-line:none;text-decoration-style:solid;image-rendering:auto;white-space:normal;text-indent:0;text-transform:none" d="m419.92 49.559a5 5 0 0 0 -4.9233 5.0698v13.733h9.999v-13.733a5 5 0 0 0 -5.0757 -5.0698z"/>
     <path style="color-rendering:auto;text-decoration-color:#000000;color:#000000;isolation:auto;mix-blend-mode:normal;shape-rendering:auto;solid-color:#000000;text-decoration-line:none;text-decoration-style:solid;image-rendering:auto;white-space:normal;text-indent:0;text-transform:none" d="m439.92 49.559a5 5 0 0 0 -4.9233 5.0698v13.733h9.999v-13.733a5 5 0 0 0 -5.0757 -5.0698z"/>
     <path style="color-rendering:auto;text-decoration-color:#000000;color:#000000;isolation:auto;mix-blend-mode:normal;shape-rendering:auto;solid-color:#000000;text-decoration-line:none;text-decoration-style:solid;image-rendering:auto;white-space:normal;text-indent:0;text-transform:none" d="m459.92 49.559a5 5 0 0 0 -4.9233 5.0698v13.733h9.999v-13.733a5 5 0 0 0 -5.0757 -5.0698z"/>
    </g>
   </g>
  </g>
 </g>
 <g style="" transform="matrix(.73195 0 0 .73195 -108.56 82.073)">
  <rect stroke-linejoin="round" height="90.643" width="138.99" stroke="#305680" stroke-linecap="round" y="126.71" x="187.34" stroke-width="5.2" fill="none"/>
  <text style="word-spacing:0px;letter-spacing:0px" font-weight="bold" xml:space="preserve" line-height="0%" y="149.86746" x="200.63701" font-family="Roboto" fill="#237de0"><tspan font-size="20px" line-height="1.25" y="149.86746" x="200.63701">RPC Service</tspan></text>
  <path d="m282.44 166.19s0.238-1.5196-1.52-1.5196h-38.26c-0.83776 0-1.519 0.68209-1.519 1.5196v9.0688c-0.80791-0.38722-1.6687-0.58668-2.5509-0.58668-4.0718 0.0001-7.3833 4.3642-7.3833 9.7285 0 5.3645 3.3121 9.7283 7.3832 9.7283 0.8822 0 1.743-0.19979 2.5509-0.58668v9.0704c0 0.83807 0.68178 1.5193 1.519 1.5193h11.161c0.83807 0 1.5196-0.68242 1.5196-1.5193 0-0.39254-0.15214-0.76877-0.42058-1.051-0.41365-0.55715-0.62293-1.1318-0.62293-1.7078 0-2.4671 3.5998-4.551 7.8622-4.551 4.2612 0 7.8617 2.0833 7.8617 4.551 0 0.61377-0.23689 1.2243-0.70438 1.8148-0.35981 0.45374-0.42858 1.0838-0.17644 1.6057 0.25203 0.52175 0.78892 0.85758 1.3687 0.85758h10.414c1.4133 0 1.52-1.5193 1.52-1.5193z" stroke="#305680" stroke-width="3.6447" fill="none"/>
 </g>
 <g transform="matrix(.73195 0 0 .73195 -135.76 107.84)">
  <path d="m369.02 136.85c5.6402 2.0565 11.277 4.1167 16.921 6.1669-0.66936-1.3933-1.366-2.7762-2.0392-4.1664 3.7795-0.003 9.1596-0.0217 12.939-0.0207 3.779-0.00043 103.74-0.002 107.52 0.00093-0.67335 1.3901-1.3699 2.773-2.0394 4.1664 5.6441-2.05 11.281-4.1101 16.921-6.1665-5.6272-2.0799-11.275-4.1241-16.918-6.1775 0.66683 1.3922 1.3632 2.7751 2.0378 4.1652-3.7794 0.004-103.75 0.002-107.52 0.00067-3.7797 0.00067-9.1604 0.0216-12.94 0.0186 0.67465-1.39 1.3711-2.773 2.0379-4.1651-5.6428 2.0532-11.291 4.0973-16.918 6.1771z" fill="#305680"/>
  <text style="word-spacing:0px;letter-spacing:0px;text-anchor:middle;text-align:center" font-weight="bold" xml:space="preserve" line-height="0%" y="125.51778" x="443.81207" font-family="Roboto" fill="#237de0"><tspan font-size="20px" line-height="1.25" y="125.51778" x="443.81207">RPC</tspan></text>
 </g>
 <g transform="matrix(.73195 0 0 .73195 84.374 -7.9693)">
  <rect stroke-linejoin="round" height="90.643" width="138.99" stroke="#305680" stroke-linecap="round" y="249.73" x="224.67" stroke-width="5.2" fill="none"/>
  <text style="word-spacing:0px;letter-spacing:0px" font-weight="bold" xml:space="preserve" line-height="0%" y="272.88422" x="237.97377" font-family="Roboto" fill="#237de0"><tspan font-size="20px" line-height="1.25" y="272.88422" x="237.97377">Device Actor</tspan></text>
  <g fill="#305680" transform="matrix(.42040 0 0 .42040 351.31 127.59)">
   <g transform="translate(-318.77 19.031)" fill="#305680">
    <path style="color-rendering:auto;text-decoration-color:#000000;color:#000000;isolation:auto;mix-blend-mode:normal;shape-rendering:auto;solid-color:#000000;text-decoration-line:none;text-decoration-style:solid;image-rendering:auto;white-space:normal;text-indent:0;text-transform:none" d="m146.6 366.65c-2.065 0.0002-3.739 1.6742-3.7392 3.7392v72.522c0.00021 2.065 1.6742 3.739 3.7392 3.7392h72.522c2.065-0.00021 3.739-1.6742 3.7392-3.7392v-72.522c-0.00021-2.065-1.6742-3.739-3.7392-3.7392z"/>
    <g fill-rule="evenodd" transform="translate(-257.14 294.29)">
     <path style="color-rendering:auto;text-decoration-color:#000000;color:#000000;isolation:auto;mix-blend-mode:normal;shape-rendering:auto;solid-color:#000000;text-decoration-line:none;text-decoration-style:solid;image-rendering:auto;white-space:normal;text-indent:0;text-transform:none" d="m419.92 49.559a5 5 0 0 0 -4.9233 5.0698v13.733h9.999v-13.733a5 5 0 0 0 -5.0757 -5.0698z"/>
     <path style="color-rendering:auto;text-decoration-color:#000000;color:#000000;isolation:auto;mix-blend-mode:normal;shape-rendering:auto;solid-color:#000000;text-decoration-line:none;text-decoration-style:solid;image-rendering:auto;white-space:normal;text-indent:0;text-transform:none" d="m439.92 49.559a5 5 0 0 0 -4.9233 5.0698v13.733h9.999v-13.733a5 5 0 0 0 -5.0757 -5.0698z"/>
     <path style="color-rendering:auto;text-decoration-color:#000000;color:#000000;isolation:auto;mix-blend-mode:normal;shape-rendering:auto;solid-color:#000000;text-decoration-line:none;text-decoration-style:solid;image-rendering:auto;white-space:normal;text-indent:0;text-transform:none" d="m459.92 49.559a5 5 0 0 0 -4.9233 5.0698v13.733h9.999v-13.733a5 5 0 0 0 -5.0757 -5.0698z"/>
    </g>
    <g fill-rule="evenodd" transform="rotate(180 311.43 259.5)">
     <path style="color-rendering:auto;text-decoration-color:#000000;color:#000000;isolation:auto;mix-blend-mode:normal;shape-rendering:auto;solid-color:#000000;text-decoration-line:none;text-decoration-style:solid;image-rendering:auto;white-space:normal;text-indent:0;text-transform:none" d="m419.92 49.559a5 5 0 0 0 -4.9233 5.0698v13.733h9.999v-13.733a5 5 0 0 0 -5.0757 -5.0698z"/>
     <path style="color-rendering:auto;text-decoration-color:#000000;color:#000000;isolation:auto;mix-blend-mode:normal;shape-rendering:auto;solid-color:#000000;text-decoration-line:none;text-decoration-style:solid;image-rendering:auto;white-space:normal;text-indent:0;text-transform:none" d="m439.92 49.559a5 5 0 0 0 -4.9233 5.0698v13.733h9.999v-13.733a5 5 0 0 0 -5.0757 -5.0698z"/>
     <path style="color-rendering:auto;text-decoration-color:#000000;color:#000000;isolation:auto;mix-blend-mode:normal;shape-rendering:auto;solid-color:#000000;text-decoration-line:none;text-decoration-style:solid;image-rendering:auto;white-space:normal;text-indent:0;text-transform:none" d="m459.92 49.559a5 5 0 0 0 -4.9233 5.0698v13.733h9.999v-13.733a5 5 0 0 0 -5.0757 -5.0698z"/>
    </g>
    <g fill-rule="evenodd" transform="rotate(-90 458.57 388.07)">
     <path style="color-rendering:auto;text-decoration-color:#000000;color:#000000;isolation:auto;mix-blend-mode:normal;shape-rendering:auto;solid-color:#000000;text-decoration-line:none;text-decoration-style:solid;image-rendering:auto;white-space:normal;text-indent:0;text-transform:none" d="m419.92 49.559a5 5 0 0 0 -4.9233 5.0698v13.733h9.999v-13.733a5 5 0 0 0 -5.0757 -5.0698z"/>
     <path style="color-rendering:auto;text-decoration-color:#000000;color:#000000;isolation:auto;mix-blend-mode:normal;shape-rendering:auto;solid-color:#000000;text-decoration-line:none;text-decoration-style:solid;image-rendering:auto;white-space:normal;text-indent:0;text-transform:none" d="m439.92 49.559a5 5 0 0 0 -4.9233 5.0698v13.733h9.999v-13.733a5 5 0 0 0 -5.0757 -5.0698z"/>
     <path style="color-rendering:auto;text-decoration-color:#000000;color:#000000;isolation:auto;mix-blend-mode:normal;shape-rendering:auto;solid-color:#000000;text-decoration-line:none;text-decoration-style:solid;image-rendering:auto;white-space:normal;text-indent:0;text-transform:none" d="m459.92 49.559a5 5 0 0 0 -4.9233 5.0698v13.733h9.999v-13.733a5 5 0 0 0 -5.0757 -5.0698z"/>
    </g>
    <g fill-rule="evenodd" transform="rotate(90 164.29 130.93)">
     <path style="color-rendering:auto;text-decoration-color:#000000;color:#000000;isolation:auto;mix-blend-mode:normal;shape-rendering:auto;solid-color:#000000;text-decoration-line:none;text-decoration-style:solid;image-rendering:auto;white-space:normal;text-indent:0;text-transform:none" d="m419.92 49.559a5 5 0 0 0 -4.9233 5.0698v13.733h9.999v-13.733a5 5 0 0 0 -5.0757 -5.0698z"/>
     <path style="color-rendering:auto;text-decoration-color:#000000;color:#000000;isolation:auto;mix-blend-mode:normal;shape-rendering:auto;solid-color:#000000;text-decoration-line:none;text-decoration-style:solid;image-rendering:auto;white-space:normal;text-indent:0;text-transform:none" d="m439.92 49.559a5 5 0 0 0 -4.9233 5.0698v13.733h9.999v-13.733a5 5 0 0 0 -5.0757 -5.0698z"/>
     <path style="color-rendering:auto;text-decoration-color:#000000;color:#000000;isolation:auto;mix-blend-mode:normal;shape-rendering:auto;solid-color:#000000;text-decoration-line:none;text-decoration-style:solid;image-rendering:auto;white-space:normal;text-indent:0;text-transform:none" d="m459.92 49.559a5 5 0 0 0 -4.9233 5.0698v13.733h9.999v-13.733a5 5 0 0 0 -5.0757 -5.0698z"/>
    </g>
   </g>
  </g>
 </g>
 <g transform="matrix(.73195 0 0 .73195 525.5 -7.9693)">
  <rect stroke-linejoin="round" height="90.643" width="138.99" stroke="#305680" stroke-linecap="round" y="249.73" x="-76.254" stroke-width="5.2" fill="none"/>
  <text style="word-spacing:0px;letter-spacing:0px" font-weight="bold" xml:space="preserve" line-height="0%" y="272.88422" x="-69.735382" font-family="Roboto" fill="#237de0"><tspan font-size="20px" line-height="1.25" y="272.88422" x="-69.735382">Session Actor</tspan></text>
  <g transform="matrix(1.2444 0 0 1.2444 -885.62 165.45)">
   <path d="m689.61 102.24h33.007v-5.2552h-33.007z" fill="#237de0"/>
   <path d="m722.22 128.88h-31.894v-23.588h31.894zm-31.56-30.737h15.077v3.0926h-15.077zm27.447 0h3.7689v3.0926h-3.7689zm4.5301-4.5867h-32.738c-2.0774 0-3.7774 1.7-3.7774 3.7776v32.738c0 2.0774 1.7 3.7775 3.7774 3.7775h32.738c2.0776 0 3.7776-1.7 3.7776-3.7775v-32.736c0-2.0776-1.7-3.7776-3.7776-3.7776" fill="#345982"/>
   <g fill="#237de0">
    <path d="m700.86 120.61-5.9202-3.5974 5.9202-3.4682v-3.6884l-8.4884 5.63v3.1314l8.4884 5.6545v-3.6619"/>
    <path d="m719.85 115.49-8.4883-5.63v3.6884l5.9202 3.4682-5.9202 3.5974v3.6619l8.4883-5.6545v-3.1314"/>
    <path d="m709.5 108.12h-2.4894l-4.2834 17.888h2.4426l4.3301-17.888"/>
   </g>
  </g>
 </g>
 <path d="m79.416 93.839c-1.5053 4.1283-3.0132 8.254-4.5138 12.385 1.0198-0.48992 2.0321-0.9998 3.0496-1.4926 0.0022 2.7664 0.01588 30.571 0.01515 33.337 0.000314 2.766 0.0015 19.062-0.000681 21.828-1.0175-0.49287-3.0496-1.4927-3.0496-1.4927 1.5005 4.1312 3.0084 8.2569 4.5135 12.385 1.5224-4.1188 3.0186-8.2528 4.5216-12.383-1.019 0.48809-2.0312 0.99779-3.0487 1.4915-0.0029-2.7664-0.0015-19.062-0.00049-21.829-0.000491-2.7665-0.01581-30.572-0.01362-33.338 1.0174 0.49381 2.0297 1.0036 3.0487 1.4917-1.5028-4.1302-2.999-8.2643-4.5213-12.383z" stroke-width=".73195" fill="#305680"/>
 <g transform="matrix(.73195 0 0 .73195 .28366 21.125)">
  <rect stroke-linejoin="round" height="119.13" width="138.25" stroke="#305680" stroke-linecap="round" y="-26.261" x="39.004" stroke-width="5.2" fill="none"/>
  <text style="word-spacing:0px;letter-spacing:0px;text-anchor:middle;text-align:center" font-weight="bold" xml:space="preserve" font-size="20px" line-height="0%" y="-4.6694598" x="108.05375" font-family="Roboto" fill="#237de0"><tspan line-height="1.25" y="-4.6694598" x="108.05375">Server-side</tspan><tspan line-height="1.25" y="20.330696" x="108.05375">application</tspan></text>
  <g fill-rule="evenodd" transform="matrix(.82669 -1.079 1.079 .82669 -1094.1 -226.67)" clip-rule="evenodd" fill="#305680">
   <path d="m363.34 833.96c1.6957 0.36941 3.8357-2.9495 2.9776-4.2854-0.28078-0.43886-0.42149-0.92847-0.43076-1.4141 0.91589-0.99503 2.8621-2.1052 3.8572-2.5322 0.45803 0.20996 0.8627 0.54821 1.155 1.0035 0.93562 1.458 4.7543 0.81995 5.1349-0.92501 0.11881-0.54527 0.48638-1.0913 0.76615-1.3768 0.95979-0.00083 3.0259 0.39787 4.4258 0.95493 0.17933 0.35712 0.24744 1.032 0.12672 1.5803-0.40182 1.8456 2.9168 3.8563 4.3141 2.9593 0.46665-0.2999 1.1255-0.46344 1.5066-0.43241 0.72718 0.70605 2.04 2.7585 2.4742 3.7763-0.28144 0.41708-0.55777 0.92771-1.0396 1.2367-1.3968 0.89757-0.86622 4.7699 0.9287 5.1612 0.59041 0.12892 1.1144 0.44934 1.4642 0.86128-0.0522 0.99901-0.60101 3.4216-0.99349 4.3106-0.22593 0.18113-1.0626 0.27217-1.6303 0.14824-2.4433-0.53217-4.0844 2.6069-2.9925 4.3071 0.30832 0.48046 0.50284 1.0269 0.43021 1.5521-0.69255 0.70104-2.6906 1.997-3.7743 2.4303-0.47093-0.17709-0.92799-0.55723-1.2371-1.0394-0.97473-1.5191-4.726-1.0652-5.1609 0.92952-0.11338 0.51901-0.42849 0.96401-0.74944 1.3942-1.2742-0.0952-3.4871-0.44591-4.5187-1.0113-0.17766-0.48873-0.16174-1.0337-0.0509-1.5412 0.38053-1.746-2.7597-3.9861-4.278-3.011-0.42426 0.27277-0.928 0.47952-1.4014 0.49982-0.93531-0.87967-2.3071-2.9541-2.6105-3.9706 0.23037-0.50933 0.63103-0.82739 1.0711-1.1106 1.6403-1.0524 0.97092-4.7227-0.9238-5.1353-0.51861-0.1135-0.99378-0.41073-1.3581-0.73085 0.10629-1.1032 0.34297-3.0499 0.9398-4.462 0.58126-0.22927 1.0294-0.2464 1.5775-0.12715zm4.5488 3.6302c-0.94174 4.3184 1.7959 8.581 6.1138 9.5222 4.3177 0.94039 8.5808-1.798 9.5221-6.1162 0.94133-4.3182-1.7961-8.5811-6.1137-9.5218-4.3178-0.94079-8.5809 1.797-9.5222 6.1158z"/>
   <path d="m370.63 810.63c0.80729 0.40719 2.319-0.98843 2.0601-1.7741-0.0845-0.25795-0.0917-0.52326-0.0332-0.76946 0.5916-0.38269 1.7179-0.68931 2.2756-0.77511 0.20371 0.16557 0.36382 0.38889 0.45196 0.65661 0.28212 0.85735 2.2916 1.0327 2.7108 0.20203 0.13097-0.25958 0.38746-0.48717 0.56577-0.59476 0.48429 0.12457 1.4747 0.59475 2.1083 1.058 0.044 0.20351-0.01 0.55282-0.14186 0.81371-0.44301 0.8787 0.96927 2.3252 1.7909 2.0546 0.27446-0.0905 0.62813-0.0872 0.81631-0.022 0.2749 0.45087 0.66993 1.6572 0.75642 2.2272-0.19629 0.17375-0.40218 0.39537-0.68547 0.48849-0.82153 0.2709-1.0581 2.2935-0.20358 2.7246 0.281 0.14202 0.50369 0.37179 0.62648 0.62514-0.15641 0.49718-0.74874 1.6478-1.0625 2.0452-0.13756 0.062-0.5715-0.001-0.84171-0.1375-1.1633-0.58663-2.3999 0.78323-2.0705 1.7831 0.093 0.28252 0.11995 0.58351 0.0149 0.83898-0.44066 0.26346-1.6174 0.65704-2.2205 0.73453-0.2145-0.15066-0.39557-0.40194-0.48871-0.68545-0.2939-0.89325-2.2454-1.1528-2.7245-0.20313-0.12491 0.247-0.34169 0.43051-0.55961 0.60572-0.6304-0.21394-1.701-0.67903-2.1478-1.0986-0.026-0.26968 0.053-0.54252 0.17501-0.78411 0.41933-0.83125-0.87309-2.3702-1.766-2.076-0.24954 0.0824-0.53058 0.12105-0.77206 0.0696-0.35727-0.56555-0.77918-1.7906-0.79985-2.343 0.18253-0.22695 0.42608-0.33522 0.68497-0.42076 0.96451-0.31732 1.1048-2.256 0.20269-2.7109-0.24683-0.12481-0.44784-0.33661-0.58996-0.54554 0.19728-0.54269 0.57016-1.4939 1.0551-2.1285 0.32308-0.04 0.55138 0.01 0.81234 0.14127zm1.822 2.4236c-1.0374 2.0558-0.21145 4.5626 1.8442 5.5997 2.0556 1.0366 4.5628 0.21034 5.6-1.8455s0.21133-4.5628-1.8442-5.5995c-2.0557-1.0369-4.5627-0.2109-5.6 1.8452z"/>
   <path d="m347.84 818.38c1.2056 0.23226 2.6624-2.1517 2.0326-3.0818-0.20608-0.30559-0.31398-0.64947-0.32885-0.99278 0.63076-0.71942 1.9882-1.5379 2.6848-1.8569 0.32753 0.14068 0.61953 0.37297 0.83402 0.68997 0.68666 1.0152 3.3765 0.49859 3.6159-0.74207 0.0747-0.38768 0.32533-0.78014 0.51832-0.98683 0.67881-0.017 2.1469 0.22964 3.1465 0.59967 0.13295 0.24952 0.19266 0.72564 0.11665 1.1155-0.2526 1.3122 2.129 2.6776 3.1018 2.0192 0.32491-0.22009 0.7881-0.34703 1.0581-0.3316 0.5264 0.48692 1.49 1.9161 1.8145 2.6285-0.19193 0.2998-0.37863 0.66567-0.7141 0.89244-0.97257 0.65872-0.53105 3.3884 0.74513 3.6344 0.41977 0.0811 0.79589 0.29873 1.0503 0.58409-0.0198 0.70746-0.36655 2.4302-0.62891 3.0657-0.15669 0.13198-0.7469 0.21068-1.1505 0.13274-1.7372-0.33459-2.8441 1.9136-2.0428 3.0974 0.22628 0.33453 0.37321 0.71768 0.33083 1.0904-0.47783 0.50766-1.8688 1.4584-2.6278 1.7834-0.3361-0.11719-0.66587-0.37822-0.89273-0.714-0.71537-1.0577-3.3608-0.67257-3.6342 0.74571-0.0713 0.36901-0.28654 0.68914-0.50619 0.99885-0.90283-0.0455-2.4739-0.25572-3.2132-0.63794-0.13402-0.34262-0.13207-0.72833-0.0624-1.0892 0.23926-1.2414-2.02-2.772-3.0771-2.0564-0.2954 0.20018-0.64814 0.35503-0.98264 0.37748-0.67656-0.60616-1.6823-2.0498-1.9142-2.7636 0.15416-0.36419 0.43215-0.59597 0.73858-0.80378 1.1421-0.7724 0.60591-3.3568-0.74121-3.6162-0.36874-0.0714-0.7099-0.27349-0.97307-0.49365 0.0563-0.78208 0.1904-2.1629 0.58836-3.1718 0.40718-0.1721 0.72384-0.19189 1.1135-0.11693zm3.2793 2.4897c-0.59218 3.0703 1.4169 6.0383 4.487 6.6301 3.0698 0.59125 6.0381-1.4185 6.63-4.4887 0.59191-3.0702-1.4171-6.0384-4.4869-6.6298-3.0699-0.59153-6.0382 1.4177-6.6301 4.4884z"/>
  </g>
 </g>
 <text style="word-spacing:0px;letter-spacing:0px;text-anchor:middle;text-align:center" font-weight="bold" xml:space="preserve" font-size="8.7834px" line-height="0%" y="110.85561" x="120.48535" font-family="Roboto" fill="#237de0"><tspan font-size="14.639px" line-height="1.25" y="110.85561" x="120.48535" stroke-width=".73195px">REST API</tspan></text>
</svg>
