<svg width="753" height="207" viewBox="0 0 753 207" fill="none" xmlns="http://www.w3.org/2000/svg">
<path d="M417 89C417 85.6863 419.686 83 423 83H535C538.314 83 541 85.6863 541 89V114C541 117.314 538.314 120 535 120H423C419.686 120 417 117.314 417 114V89Z" fill="#305680"/>
<path d="M454.895 101.236H455.48C456.055 101.236 456.479 101.141 456.752 100.949C457.025 100.758 457.162 100.457 457.162 100.047C457.162 99.6406 457.021 99.3516 456.74 99.1797C456.463 99.0078 456.031 98.9219 455.445 98.9219H454.895V101.236ZM454.895 102.713V106H453.078V97.4336H455.574C456.738 97.4336 457.6 97.6465 458.158 98.0723C458.717 98.4941 458.996 99.1367 458.996 100C458.996 100.504 458.857 100.953 458.58 101.348C458.303 101.738 457.91 102.045 457.402 102.268C458.691 104.193 459.531 105.438 459.922 106H457.906L455.861 102.713H454.895Z" fill="white"/>
<path d="M465.5 106L465.26 105.162H465.166C464.975 105.467 464.703 105.703 464.352 105.871C464 106.035 463.6 106.117 463.15 106.117C462.381 106.117 461.801 105.912 461.41 105.502C461.02 105.088 460.824 104.494 460.824 103.721V99.4492H462.611V103.275C462.611 103.748 462.695 104.104 462.863 104.342C463.031 104.576 463.299 104.693 463.666 104.693C464.166 104.693 464.527 104.527 464.75 104.195C464.973 103.859 465.084 103.305 465.084 102.531V99.4492H466.871V106H465.5Z" fill="white"/>
<path d="M470.533 106H468.746V96.8828H470.533V106Z" fill="white"/>
<path d="M475.127 100.598C474.748 100.598 474.451 100.719 474.236 100.961C474.021 101.199 473.898 101.539 473.867 101.98H476.375C476.367 101.539 476.252 101.199 476.029 100.961C475.807 100.719 475.506 100.598 475.127 100.598ZM475.379 106.117C474.324 106.117 473.5 105.826 472.906 105.244C472.312 104.662 472.016 103.838 472.016 102.771C472.016 101.674 472.289 100.826 472.836 100.229C473.387 99.627 474.146 99.3262 475.115 99.3262C476.041 99.3262 476.762 99.5898 477.277 100.117C477.793 100.645 478.051 101.373 478.051 102.303V103.17H473.826C473.846 103.678 473.996 104.074 474.277 104.359C474.559 104.645 474.953 104.787 475.461 104.787C475.855 104.787 476.229 104.746 476.58 104.664C476.932 104.582 477.299 104.451 477.682 104.271V105.654C477.369 105.811 477.035 105.926 476.68 106C476.324 106.078 475.891 106.117 475.379 106.117Z" fill="white"/>
<path d="M487.695 106H482.762V97.4336H487.695V98.9219H484.578V100.803H487.479V102.291H484.578V104.5H487.695V106Z" fill="white"/>
<path d="M495.395 106H493.607V102.174C493.607 101.701 493.523 101.348 493.355 101.113C493.188 100.875 492.92 100.756 492.553 100.756C492.053 100.756 491.691 100.924 491.469 101.26C491.246 101.592 491.135 102.145 491.135 102.918V106H489.348V99.4492H490.713L490.953 100.287H491.053C491.252 99.9707 491.525 99.7324 491.873 99.5723C492.225 99.4082 492.623 99.3262 493.068 99.3262C493.83 99.3262 494.408 99.5332 494.803 99.9473C495.197 100.357 495.395 100.951 495.395 101.729V106Z" fill="white"/>
<path d="M502.936 99.4492V100.357L501.91 100.621C502.098 100.914 502.191 101.242 502.191 101.605C502.191 102.309 501.945 102.857 501.453 103.252C500.965 103.643 500.285 103.838 499.414 103.838L499.092 103.82L498.828 103.791C498.645 103.932 498.553 104.088 498.553 104.26C498.553 104.518 498.881 104.646 499.537 104.646H500.65C501.369 104.646 501.916 104.801 502.291 105.109C502.67 105.418 502.859 105.871 502.859 106.469C502.859 107.234 502.539 107.828 501.898 108.25C501.262 108.672 500.346 108.883 499.15 108.883C498.236 108.883 497.537 108.723 497.053 108.402C496.572 108.086 496.332 107.641 496.332 107.066C496.332 106.672 496.455 106.342 496.701 106.076C496.947 105.811 497.309 105.621 497.785 105.508C497.602 105.43 497.441 105.303 497.305 105.127C497.168 104.947 497.1 104.758 497.1 104.559C497.1 104.309 497.172 104.102 497.316 103.938C497.461 103.77 497.67 103.605 497.943 103.445C497.6 103.297 497.326 103.059 497.123 102.73C496.924 102.402 496.824 102.016 496.824 101.57C496.824 100.855 497.057 100.303 497.521 99.9121C497.986 99.5215 498.65 99.3262 499.514 99.3262C499.697 99.3262 499.914 99.3438 500.164 99.3789C500.418 99.4102 500.58 99.4336 500.65 99.4492H502.936ZM497.879 106.926C497.879 107.172 497.996 107.365 498.23 107.506C498.469 107.646 498.801 107.717 499.227 107.717C499.867 107.717 500.369 107.629 500.732 107.453C501.096 107.277 501.277 107.037 501.277 106.732C501.277 106.486 501.17 106.316 500.955 106.223C500.74 106.129 500.408 106.082 499.959 106.082H499.033C498.705 106.082 498.43 106.158 498.207 106.311C497.988 106.467 497.879 106.672 497.879 106.926ZM498.529 101.594C498.529 101.949 498.609 102.23 498.77 102.438C498.934 102.645 499.182 102.748 499.514 102.748C499.85 102.748 500.096 102.645 500.252 102.438C500.408 102.23 500.486 101.949 500.486 101.594C500.486 100.805 500.162 100.41 499.514 100.41C498.857 100.41 498.529 100.805 498.529 101.594Z" fill="white"/>
<path d="M503.943 97.7559C503.943 97.1738 504.268 96.8828 504.916 96.8828C505.564 96.8828 505.889 97.1738 505.889 97.7559C505.889 98.0332 505.807 98.25 505.643 98.4062C505.482 98.5586 505.24 98.6348 504.916 98.6348C504.268 98.6348 503.943 98.3418 503.943 97.7559ZM505.807 106H504.02V99.4492H505.807V106Z" fill="white"/>
<path d="M513.734 106H511.947V102.174C511.947 101.701 511.863 101.348 511.695 101.113C511.527 100.875 511.26 100.756 510.893 100.756C510.393 100.756 510.031 100.924 509.809 101.26C509.586 101.592 509.475 102.145 509.475 102.918V106H507.688V99.4492H509.053L509.293 100.287H509.393C509.592 99.9707 509.865 99.7324 510.213 99.5723C510.564 99.4082 510.963 99.3262 511.408 99.3262C512.17 99.3262 512.748 99.5332 513.143 99.9473C513.537 100.357 513.734 100.951 513.734 101.729V106Z" fill="white"/>
<path d="M518.287 100.598C517.908 100.598 517.611 100.719 517.396 100.961C517.182 101.199 517.059 101.539 517.027 101.98H519.535C519.527 101.539 519.412 101.199 519.189 100.961C518.967 100.719 518.666 100.598 518.287 100.598ZM518.539 106.117C517.484 106.117 516.66 105.826 516.066 105.244C515.473 104.662 515.176 103.838 515.176 102.771C515.176 101.674 515.449 100.826 515.996 100.229C516.547 99.627 517.307 99.3262 518.275 99.3262C519.201 99.3262 519.922 99.5898 520.438 100.117C520.953 100.645 521.211 101.373 521.211 102.303V103.17H516.986C517.006 103.678 517.156 104.074 517.438 104.359C517.719 104.645 518.113 104.787 518.621 104.787C519.016 104.787 519.389 104.746 519.74 104.664C520.092 104.582 520.459 104.451 520.842 104.271V105.654C520.529 105.811 520.195 105.926 519.84 106C519.484 106.078 519.051 106.117 518.539 106.117Z" fill="white"/>
<path fill-rule="evenodd" clip-rule="evenodd" d="M429.611 98.2594C429.508 98.3671 429.448 98.5159 429.455 98.6792C429.462 98.8206 429.518 98.9572 429.617 99.0608C430.088 99.5349 431.016 100.459 431.016 100.459L431.836 99.6412C431.836 99.6412 430.938 98.7449 430.44 98.2463C430.329 98.1334 430.18 98.0863 430.024 98.0856C429.861 98.0848 429.715 98.1516 429.611 98.2593L429.611 98.2594ZM431.836 99.6412L429.301 102.175C429.026 102.45 429.026 102.896 429.301 103.171L430.557 104.426L432.754 106.622L434.863 108.73C435.138 109.005 435.584 109.005 435.859 108.73L437.574 107.015L440.198 104.393L442.733 101.86C443.008 101.585 443.008 101.139 442.733 100.864L441.443 99.5771L439.246 97.3814L437.17 95.3065C436.895 95.0316 436.449 95.0316 436.174 95.3065L434.459 97.0209L431.836 99.6428L431.836 99.6412ZM434.459 97.0193C434.459 97.0193 433.561 96.123 433.063 95.6245C432.952 95.5116 432.804 95.4645 432.647 95.4638C432.321 95.4622 432.063 95.7308 432.079 96.0573C432.085 96.1987 432.142 96.3353 432.24 96.4389C432.711 96.913 433.639 97.8374 433.639 97.8374L434.459 97.0193L434.459 97.0193ZM439.247 97.3799C439.247 97.3799 440.143 96.4827 440.642 95.9846C440.755 95.8737 440.802 95.7253 440.803 95.5688C440.805 95.2427 440.536 94.9856 440.209 95.0006C440.068 95.0073 439.931 95.0638 439.827 95.1623C439.353 95.6329 438.428 96.5608 438.428 96.5608L439.247 97.3798L439.247 97.3799ZM441.444 99.5757C441.444 99.5757 442.34 98.6785 442.839 98.1804C442.952 98.0695 442.999 97.9211 443 97.7647C443.002 97.4385 442.733 97.1814 442.406 97.1965C442.265 97.2031 442.128 97.2596 442.024 97.3581C441.55 97.8287 440.625 98.7566 440.625 98.7566L441.444 99.5757L441.444 99.5757ZM440.197 104.393C440.197 104.393 441.095 105.29 441.594 105.788C441.705 105.901 441.853 105.948 442.01 105.949C442.336 105.95 442.593 105.682 442.578 105.355L442.578 105.355C442.571 105.214 442.515 105.077 442.416 104.974C441.945 104.5 441.017 103.575 441.017 103.575L440.197 104.393L440.197 104.393ZM437.574 107.015C437.574 107.015 438.472 107.911 438.97 108.41C439.081 108.523 439.23 108.57 439.386 108.571C439.713 108.572 439.97 108.304 439.955 107.977H439.955C439.948 107.836 439.891 107.699 439.793 107.595C439.322 107.121 438.394 106.197 438.394 106.197L437.574 107.015L437.574 107.015ZM432.753 106.62C432.753 106.62 431.857 107.517 431.358 108.015C431.245 108.126 431.198 108.275 431.197 108.431C431.196 108.757 431.464 109.014 431.791 108.999H431.791C431.932 108.993 432.069 108.936 432.173 108.838C432.647 108.367 433.572 107.439 433.572 107.439L432.754 106.624L432.753 106.62ZM430.556 104.424C430.556 104.424 429.66 105.321 429.161 105.82C429.048 105.93 429.001 106.079 429 106.235C428.998 106.561 429.267 106.818 429.594 106.805H429.594C429.735 106.798 429.872 106.742 429.976 106.643C430.45 106.173 431.375 105.245 431.375 105.245L430.556 104.424L430.556 104.424ZM436.592 98.1618C436.708 98.0438 436.866 97.9778 437.028 97.9802C437.143 97.9818 437.253 98.0182 437.343 98.0846L438.485 98.9213C438.706 99.0802 438.772 99.3818 438.639 99.6344C438.507 99.887 438.216 100.016 437.951 99.9403L438.374 101.596C438.451 101.897 438.266 102.217 437.961 102.31L434.872 103.252L435.442 105.457C435.523 105.759 435.338 106.083 435.03 106.177C434.722 106.271 434.409 106.1 434.334 105.796L433.622 103.046C433.544 102.745 433.729 102.425 434.036 102.331L437.126 101.388L436.841 100.273C436.649 100.485 436.34 100.537 436.108 100.395C435.876 100.254 435.789 99.9604 435.901 99.7005L436.463 98.3552C436.493 98.2835 436.537 98.2177 436.592 98.1618L436.592 98.1618Z" fill="white"/>
<path d="M633 50C633 46.6863 635.686 44 639 44H728C731.314 44 734 46.6863 734 50V75C734 78.3137 731.314 81 728 81H639C635.686 81 633 78.3137 633 75V50Z" fill="white"/>
<path fill-rule="evenodd" clip-rule="evenodd" d="M728 45H639C636.239 45 634 47.2386 634 50V75C634 77.7614 636.239 80 639 80H728C730.761 80 733 77.7614 733 75V50C733 47.2386 730.761 45 728 45ZM639 44C635.686 44 633 46.6863 633 50V75C633 78.3137 635.686 81 639 81H728C731.314 81 734 78.3137 734 75V50C734 46.6863 731.314 44 728 44H639Z" fill="#305680" fill-opacity="0.4"/>
<path d="M673.977 67H669.131V58.4336H673.977V59.6172H670.531V61.9492H673.76V63.1211H670.531V65.8105H673.977V67Z" fill="#05172A"/>
<path d="M681.389 67H680.006V63.0156C680.006 62.5156 679.904 62.1426 679.701 61.8965C679.502 61.6504 679.184 61.5273 678.746 61.5273C678.164 61.5273 677.738 61.6992 677.469 62.043C677.199 62.3867 677.064 62.9629 677.064 63.7715V67H675.688V60.5195H676.766L676.959 61.3691H677.029C677.225 61.0605 677.502 60.8223 677.861 60.6543C678.221 60.4863 678.619 60.4023 679.057 60.4023C680.611 60.4023 681.389 61.1934 681.389 62.7754V67Z" fill="#05172A"/>
<path d="M685.49 67.1172C684.682 67.1172 684.051 66.8242 683.598 66.2383C683.145 65.6523 682.918 64.8301 682.918 63.7715C682.918 62.709 683.146 61.8828 683.604 61.293C684.064 60.6992 684.701 60.4023 685.514 60.4023C686.365 60.4023 687.014 60.7168 687.459 61.3457H687.529C687.463 60.8809 687.43 60.5137 687.43 60.2441V57.8828H688.812V67H687.734L687.494 66.1504H687.43C686.988 66.7949 686.342 67.1172 685.49 67.1172ZM685.859 66.0039C686.426 66.0039 686.838 65.8457 687.096 65.5293C687.354 65.209 687.486 64.6914 687.494 63.9766V63.7832C687.494 62.9668 687.361 62.3867 687.096 62.043C686.83 61.6992 686.414 61.5273 685.848 61.5273C685.363 61.5273 684.99 61.7246 684.729 62.1191C684.467 62.5098 684.336 63.0684 684.336 63.7949C684.336 64.5137 684.463 65.0625 684.717 65.4414C684.971 65.8164 685.352 66.0039 685.859 66.0039Z" fill="#05172A"/>
<path d="M700.76 58.4336V63.9766C700.76 64.6094 700.623 65.1641 700.35 65.6406C700.08 66.1133 699.688 66.4785 699.172 66.7363C698.66 66.9902 698.047 67.1172 697.332 67.1172C696.27 67.1172 695.443 66.8359 694.854 66.2734C694.264 65.7109 693.969 64.9375 693.969 63.9531V58.4336H695.375V63.8535C695.375 64.5605 695.539 65.082 695.867 65.418C696.195 65.7539 696.699 65.9219 697.379 65.9219C698.699 65.9219 699.359 65.2285 699.359 63.8418V58.4336H700.76Z" fill="#05172A"/>
<path d="M707.158 65.1543C707.158 65.7871 706.928 66.2734 706.467 66.6133C706.006 66.9492 705.346 67.1172 704.486 67.1172C703.623 67.1172 702.93 66.9863 702.406 66.7246V65.5352C703.168 65.8867 703.877 66.0625 704.533 66.0625C705.381 66.0625 705.805 65.8066 705.805 65.2949C705.805 65.1309 705.758 64.9941 705.664 64.8848C705.57 64.7754 705.416 64.6621 705.201 64.5449C704.986 64.4277 704.688 64.2949 704.305 64.1465C703.559 63.8574 703.053 63.5684 702.787 63.2793C702.525 62.9902 702.395 62.6152 702.395 62.1543C702.395 61.5996 702.617 61.1699 703.062 60.8652C703.512 60.5566 704.121 60.4023 704.891 60.4023C705.652 60.4023 706.373 60.5566 707.053 60.8652L706.607 61.9023C705.908 61.6133 705.32 61.4688 704.844 61.4688C704.117 61.4688 703.754 61.6758 703.754 62.0898C703.754 62.293 703.848 62.4648 704.035 62.6055C704.227 62.7461 704.641 62.9395 705.277 63.1855C705.812 63.3926 706.201 63.582 706.443 63.7539C706.686 63.9258 706.865 64.125 706.982 64.3516C707.1 64.5742 707.158 64.8418 707.158 65.1543Z" fill="#05172A"/>
<path d="M711.482 67.1172C710.475 67.1172 709.686 66.8242 709.115 66.2383C708.549 65.6484 708.266 64.8379 708.266 63.8066C708.266 62.748 708.529 61.916 709.057 61.3105C709.584 60.7051 710.309 60.4023 711.23 60.4023C712.086 60.4023 712.762 60.6621 713.258 61.1816C713.754 61.7012 714.002 62.416 714.002 63.3262V64.0703H709.684C709.703 64.6992 709.873 65.1836 710.193 65.5234C710.514 65.8594 710.965 66.0273 711.547 66.0273C711.93 66.0273 712.285 65.9922 712.613 65.9219C712.945 65.8477 713.301 65.7266 713.68 65.5586V66.6777C713.344 66.8379 713.004 66.9512 712.66 67.0176C712.316 67.084 711.924 67.1172 711.482 67.1172ZM711.23 61.4453C710.793 61.4453 710.441 61.584 710.176 61.8613C709.914 62.1387 709.758 62.543 709.707 63.0742H712.648C712.641 62.5391 712.512 62.1348 712.262 61.8613C712.012 61.584 711.668 61.4453 711.23 61.4453Z" fill="#05172A"/>
<path d="M718.854 60.4023C719.131 60.4023 719.359 60.4219 719.539 60.4609L719.404 61.7441C719.209 61.6973 719.006 61.6738 718.795 61.6738C718.244 61.6738 717.797 61.8535 717.453 62.2129C717.113 62.5723 716.943 63.0391 716.943 63.6133V67H715.566V60.5195H716.645L716.826 61.6621H716.896C717.111 61.2754 717.391 60.9688 717.734 60.7422C718.082 60.5156 718.455 60.4023 718.854 60.4023Z" fill="#05172A"/>
<path fill-rule="evenodd" clip-rule="evenodd" d="M652 63C653.657 63 655 61.6569 655 60C655 58.3431 653.657 57 652 57C650.343 57 649 58.3431 649 60C649 61.6569 650.343 63 652 63ZM652 63C654.626 63 656.858 64.6869 657.671 67.0362C658.033 68.08 657.105 69 656 69H648C646.895 69 645.967 68.08 646.329 67.0362C647.142 64.6869 649.374 63 652 63Z" fill="#305680"/>
<path d="M639 114C639 110.686 641.686 108 645 108H747C750.314 108 753 110.686 753 114V155C753 158.314 750.314 161 747 161H645C641.686 161 639 158.314 639 155V114Z" fill="white"/>
<path fill-rule="evenodd" clip-rule="evenodd" d="M747 109H645C642.239 109 640 111.239 640 114V155C640 157.761 642.239 160 645 160H747C749.761 160 752 157.761 752 155V114C752 111.239 749.761 109 747 109ZM645 108C641.686 108 639 110.686 639 114V155C639 158.314 641.686 161 645 161H747C750.314 161 753 158.314 753 155V114C753 110.686 750.314 108 747 108H645Z" fill="#305680" fill-opacity="0.4"/>
<path d="M636 117C636 113.686 638.686 111 642 111H744C747.314 111 750 113.686 750 117V158C750 161.314 747.314 164 744 164H642C638.686 164 636 161.314 636 158V117Z" fill="white"/>
<path fill-rule="evenodd" clip-rule="evenodd" d="M744 112H642C639.239 112 637 114.239 637 117V158C637 160.761 639.239 163 642 163H744C746.761 163 749 160.761 749 158V117C749 114.239 746.761 112 744 112ZM642 111C638.686 111 636 113.686 636 117V158C636 161.314 638.686 164 642 164H744C747.314 164 750 161.314 750 158V117C750 113.686 747.314 111 744 111H642Z" fill="#305680" fill-opacity="0.4"/>
<path d="M633 120C633 116.686 635.686 114 639 114H741C744.314 114 747 116.686 747 120V161C747 164.314 744.314 167 741 167H639C635.686 167 633 164.314 633 161V120Z" fill="white"/>
<path fill-rule="evenodd" clip-rule="evenodd" d="M741 115H639C636.239 115 634 117.239 634 120V161C634 163.761 636.239 166 639 166H741C743.761 166 746 163.761 746 161V120C746 117.239 743.761 115 741 115ZM639 114C635.686 114 633 116.686 633 120V161C633 164.314 635.686 167 639 167H741C744.314 167 747 164.314 747 161V120C747 116.686 744.314 114 741 114H639Z" fill="#305680" fill-opacity="0.4"/>
<path d="M674.07 134.674C674.07 135.436 673.795 136.033 673.244 136.467C672.693 136.9 671.934 137.117 670.965 137.117C669.996 137.117 669.203 136.967 668.586 136.666V135.342C668.977 135.525 669.391 135.67 669.828 135.775C670.27 135.881 670.68 135.934 671.059 135.934C671.613 135.934 672.021 135.828 672.283 135.617C672.549 135.406 672.682 135.123 672.682 134.768C672.682 134.447 672.561 134.176 672.318 133.953C672.076 133.73 671.576 133.467 670.818 133.162C670.037 132.846 669.486 132.484 669.166 132.078C668.846 131.672 668.686 131.184 668.686 130.613C668.686 129.898 668.939 129.336 669.447 128.926C669.955 128.516 670.637 128.311 671.492 128.311C672.312 128.311 673.129 128.49 673.941 128.85L673.496 129.992C672.734 129.672 672.055 129.512 671.457 129.512C671.004 129.512 670.66 129.611 670.426 129.811C670.191 130.006 670.074 130.266 670.074 130.59C670.074 130.812 670.121 131.004 670.215 131.164C670.309 131.32 670.463 131.469 670.678 131.609C670.893 131.75 671.279 131.936 671.838 132.166C672.467 132.428 672.928 132.672 673.221 132.898C673.514 133.125 673.729 133.381 673.865 133.666C674.002 133.951 674.07 134.287 674.07 134.674Z" fill="#05172A"/>
<path d="M678.412 137.117C677.404 137.117 676.615 136.824 676.045 136.238C675.479 135.648 675.195 134.838 675.195 133.807C675.195 132.748 675.459 131.916 675.986 131.311C676.514 130.705 677.238 130.402 678.16 130.402C679.016 130.402 679.691 130.662 680.188 131.182C680.684 131.701 680.932 132.416 680.932 133.326V134.07H676.613C676.633 134.699 676.803 135.184 677.123 135.523C677.443 135.859 677.895 136.027 678.477 136.027C678.859 136.027 679.215 135.992 679.543 135.922C679.875 135.848 680.23 135.727 680.609 135.559V136.678C680.273 136.838 679.934 136.951 679.59 137.018C679.246 137.084 678.854 137.117 678.412 137.117ZM678.16 131.445C677.723 131.445 677.371 131.584 677.105 131.861C676.844 132.139 676.688 132.543 676.637 133.074H679.578C679.57 132.539 679.441 132.135 679.191 131.861C678.941 131.584 678.598 131.445 678.16 131.445Z" fill="#05172A"/>
<path d="M685.783 130.402C686.061 130.402 686.289 130.422 686.469 130.461L686.334 131.744C686.139 131.697 685.936 131.674 685.725 131.674C685.174 131.674 684.727 131.854 684.383 132.213C684.043 132.572 683.873 133.039 683.873 133.613V137H682.496V130.52H683.574L683.756 131.662H683.826C684.041 131.275 684.32 130.969 684.664 130.742C685.012 130.516 685.385 130.402 685.783 130.402Z" fill="#05172A"/>
<path d="M689.152 137L686.691 130.52H688.145L689.463 134.287C689.689 134.92 689.826 135.432 689.873 135.822H689.92C689.955 135.541 690.092 135.029 690.33 134.287L691.648 130.52H693.113L690.641 137H689.152Z" fill="#05172A"/>
<path d="M696.928 137.117C695.92 137.117 695.131 136.824 694.561 136.238C693.994 135.648 693.711 134.838 693.711 133.807C693.711 132.748 693.975 131.916 694.502 131.311C695.029 130.705 695.754 130.402 696.676 130.402C697.531 130.402 698.207 130.662 698.703 131.182C699.199 131.701 699.447 132.416 699.447 133.326V134.07H695.129C695.148 134.699 695.318 135.184 695.639 135.523C695.959 135.859 696.41 136.027 696.992 136.027C697.375 136.027 697.73 135.992 698.059 135.922C698.391 135.848 698.746 135.727 699.125 135.559V136.678C698.789 136.838 698.449 136.951 698.105 137.018C697.762 137.084 697.369 137.117 696.928 137.117ZM696.676 131.445C696.238 131.445 695.887 131.584 695.621 131.861C695.359 132.139 695.203 132.543 695.152 133.074H698.094C698.086 132.539 697.957 132.135 697.707 131.861C697.457 131.584 697.113 131.445 696.676 131.445Z" fill="#05172A"/>
<path d="M704.299 130.402C704.576 130.402 704.805 130.422 704.984 130.461L704.85 131.744C704.654 131.697 704.451 131.674 704.24 131.674C703.689 131.674 703.242 131.854 702.898 132.213C702.559 132.572 702.389 133.039 702.389 133.613V137H701.012V130.52H702.09L702.271 131.662H702.342C702.557 131.275 702.836 130.969 703.18 130.742C703.527 130.516 703.9 130.402 704.299 130.402Z" fill="#05172A"/>
<path d="M705.629 134.369V133.197H708.641V134.369H705.629Z" fill="#05172A"/>
<path d="M714.412 135.154C714.412 135.787 714.182 136.273 713.721 136.613C713.26 136.949 712.6 137.117 711.74 137.117C710.877 137.117 710.184 136.986 709.66 136.725V135.535C710.422 135.887 711.131 136.062 711.787 136.062C712.635 136.062 713.059 135.807 713.059 135.295C713.059 135.131 713.012 134.994 712.918 134.885C712.824 134.775 712.67 134.662 712.455 134.545C712.24 134.428 711.941 134.295 711.559 134.146C710.812 133.857 710.307 133.568 710.041 133.279C709.779 132.99 709.648 132.615 709.648 132.154C709.648 131.6 709.871 131.17 710.316 130.865C710.766 130.557 711.375 130.402 712.145 130.402C712.906 130.402 713.627 130.557 714.307 130.865L713.861 131.902C713.162 131.613 712.574 131.469 712.098 131.469C711.371 131.469 711.008 131.676 711.008 132.09C711.008 132.293 711.102 132.465 711.289 132.605C711.48 132.746 711.895 132.939 712.531 133.186C713.066 133.393 713.455 133.582 713.697 133.754C713.939 133.926 714.119 134.125 714.236 134.352C714.354 134.574 714.412 134.842 714.412 135.154Z" fill="#05172A"/>
<path d="M717.283 137H715.906V130.52H717.283V137ZM715.824 128.803C715.824 128.557 715.891 128.367 716.023 128.234C716.16 128.102 716.354 128.035 716.604 128.035C716.846 128.035 717.033 128.102 717.166 128.234C717.303 128.367 717.371 128.557 717.371 128.803C717.371 129.037 717.303 129.223 717.166 129.359C717.033 129.492 716.846 129.559 716.604 129.559C716.354 129.559 716.16 129.492 716.023 129.359C715.891 129.223 715.824 129.037 715.824 128.803Z" fill="#05172A"/>
<path d="M721.443 137.117C720.635 137.117 720.004 136.824 719.551 136.238C719.098 135.652 718.871 134.83 718.871 133.771C718.871 132.709 719.1 131.883 719.557 131.293C720.018 130.699 720.654 130.402 721.467 130.402C722.318 130.402 722.967 130.717 723.412 131.346H723.482C723.416 130.881 723.383 130.514 723.383 130.244V127.883H724.766V137H723.688L723.447 136.15H723.383C722.941 136.795 722.295 137.117 721.443 137.117ZM721.812 136.004C722.379 136.004 722.791 135.846 723.049 135.529C723.307 135.209 723.439 134.691 723.447 133.977V133.783C723.447 132.967 723.314 132.387 723.049 132.043C722.783 131.699 722.367 131.527 721.801 131.527C721.316 131.527 720.943 131.725 720.682 132.119C720.42 132.51 720.289 133.068 720.289 133.795C720.289 134.514 720.416 135.062 720.67 135.441C720.924 135.816 721.305 136.004 721.812 136.004Z" fill="#05172A"/>
<path d="M729.564 137.117C728.557 137.117 727.768 136.824 727.197 136.238C726.631 135.648 726.348 134.838 726.348 133.807C726.348 132.748 726.611 131.916 727.139 131.311C727.666 130.705 728.391 130.402 729.312 130.402C730.168 130.402 730.844 130.662 731.34 131.182C731.836 131.701 732.084 132.416 732.084 133.326V134.07H727.766C727.785 134.699 727.955 135.184 728.275 135.523C728.596 135.859 729.047 136.027 729.629 136.027C730.012 136.027 730.367 135.992 730.695 135.922C731.027 135.848 731.383 135.727 731.762 135.559V136.678C731.426 136.838 731.086 136.951 730.742 137.018C730.398 137.084 730.006 137.117 729.564 137.117ZM729.312 131.445C728.875 131.445 728.523 131.584 728.258 131.861C727.996 132.139 727.84 132.543 727.789 133.074H730.73C730.723 132.539 730.594 132.135 730.344 131.861C730.094 131.584 729.75 131.445 729.312 131.445Z" fill="#05172A"/>
<path d="M673.039 153L672.764 152.098H672.717C672.404 152.492 672.09 152.762 671.773 152.906C671.457 153.047 671.051 153.117 670.555 153.117C669.918 153.117 669.42 152.945 669.061 152.602C668.705 152.258 668.527 151.771 668.527 151.143C668.527 150.475 668.775 149.971 669.271 149.631C669.768 149.291 670.523 149.105 671.539 149.074L672.658 149.039V148.693C672.658 148.279 672.561 147.971 672.365 147.768C672.174 147.561 671.875 147.457 671.469 147.457C671.137 147.457 670.818 147.506 670.514 147.604C670.209 147.701 669.916 147.816 669.635 147.949L669.189 146.965C669.541 146.781 669.926 146.643 670.344 146.549C670.762 146.451 671.156 146.402 671.527 146.402C672.352 146.402 672.973 146.582 673.391 146.941C673.812 147.301 674.023 147.865 674.023 148.635V153H673.039ZM670.988 152.062C671.488 152.062 671.889 151.924 672.189 151.646C672.494 151.365 672.646 150.973 672.646 150.469V149.906L671.814 149.941C671.166 149.965 670.693 150.074 670.396 150.27C670.104 150.461 669.957 150.756 669.957 151.154C669.957 151.443 670.043 151.668 670.215 151.828C670.387 151.984 670.645 152.062 670.988 152.062Z" fill="#05172A"/>
<path d="M679.232 153.117C678.412 153.117 677.775 152.822 677.322 152.232H677.24C677.295 152.779 677.322 153.111 677.322 153.229V155.883H675.945V146.52H677.059C677.09 146.641 677.154 146.93 677.252 147.387H677.322C677.752 146.73 678.396 146.402 679.256 146.402C680.064 146.402 680.693 146.695 681.143 147.281C681.596 147.867 681.822 148.689 681.822 149.748C681.822 150.807 681.592 151.633 681.131 152.227C680.674 152.82 680.041 153.117 679.232 153.117ZM678.898 147.527C678.352 147.527 677.951 147.688 677.697 148.008C677.447 148.328 677.322 148.84 677.322 149.543V149.748C677.322 150.537 677.447 151.109 677.697 151.465C677.947 151.816 678.355 151.992 678.922 151.992C679.398 151.992 679.766 151.797 680.023 151.406C680.281 151.016 680.41 150.459 680.41 149.736C680.41 149.01 680.281 148.461 680.023 148.09C679.77 147.715 679.395 147.527 678.898 147.527Z" fill="#05172A"/>
<path d="M686.709 153.117C685.889 153.117 685.252 152.822 684.799 152.232H684.717C684.771 152.779 684.799 153.111 684.799 153.229V155.883H683.422V146.52H684.535C684.566 146.641 684.631 146.93 684.729 147.387H684.799C685.229 146.73 685.873 146.402 686.732 146.402C687.541 146.402 688.17 146.695 688.619 147.281C689.072 147.867 689.299 148.689 689.299 149.748C689.299 150.807 689.068 151.633 688.607 152.227C688.15 152.82 687.518 153.117 686.709 153.117ZM686.375 147.527C685.828 147.527 685.428 147.688 685.174 148.008C684.924 148.328 684.799 148.84 684.799 149.543V149.748C684.799 150.537 684.924 151.109 685.174 151.465C685.424 151.816 685.832 151.992 686.398 151.992C686.875 151.992 687.242 151.797 687.5 151.406C687.758 151.016 687.887 150.459 687.887 149.736C687.887 149.01 687.758 148.461 687.5 148.09C687.246 147.715 686.871 147.527 686.375 147.527Z" fill="#05172A"/>
<path d="M695.252 151.154C695.252 151.787 695.021 152.273 694.561 152.613C694.1 152.949 693.439 153.117 692.58 153.117C691.717 153.117 691.023 152.986 690.5 152.725V151.535C691.262 151.887 691.971 152.062 692.627 152.062C693.475 152.062 693.898 151.807 693.898 151.295C693.898 151.131 693.852 150.994 693.758 150.885C693.664 150.775 693.51 150.662 693.295 150.545C693.08 150.428 692.781 150.295 692.398 150.146C691.652 149.857 691.146 149.568 690.881 149.279C690.619 148.99 690.488 148.615 690.488 148.154C690.488 147.6 690.711 147.17 691.156 146.865C691.605 146.557 692.215 146.402 692.984 146.402C693.746 146.402 694.467 146.557 695.146 146.865L694.701 147.902C694.002 147.613 693.414 147.469 692.938 147.469C692.211 147.469 691.848 147.676 691.848 148.09C691.848 148.293 691.941 148.465 692.129 148.605C692.32 148.746 692.734 148.939 693.371 149.186C693.906 149.393 694.295 149.582 694.537 149.754C694.779 149.926 694.959 150.125 695.076 150.352C695.193 150.574 695.252 150.842 695.252 151.154Z" fill="#05172A"/>
<path fill-rule="evenodd" clip-rule="evenodd" d="M647 135C646.448 135 646 135.448 646 136V140H658V136C658 135.448 657.552 135 657 135H647ZM646 141H658V143H646V141ZM646 144H658V146C658 146.552 657.552 147 657 147H647C646.448 147 646 146.552 646 146V144ZM649 137.5C649 137.776 648.776 138 648.5 138C648.224 138 648 137.776 648 137.5C648 137.224 648.224 137 648.5 137C648.776 137 649 137.224 649 137.5ZM650.5 138C650.776 138 651 137.776 651 137.5C651 137.224 650.776 137 650.5 137C650.224 137 650 137.224 650 137.5C650 137.776 650.224 138 650.5 138Z" fill="#305680"/>
<path d="M151 46C151 42.6863 153.686 40 157 40H229C232.314 40 235 42.6863 235 46V71C235 74.3137 232.314 77 229 77H157C153.686 77 151 74.3137 151 71V46Z" fill="#305680"/>
<path fill-rule="evenodd" clip-rule="evenodd" d="M163.611 55.2594C163.508 55.3671 163.448 55.5159 163.455 55.6792C163.462 55.8206 163.518 55.9572 163.617 56.0608C164.088 56.5349 165.016 57.4593 165.016 57.4593L165.836 56.6412C165.836 56.6412 164.938 55.7449 164.44 55.2463C164.329 55.1334 164.18 55.0863 164.024 55.0856C163.861 55.0848 163.715 55.1516 163.611 55.2593L163.611 55.2594ZM165.836 56.6412L163.301 59.175C163.026 59.4499 163.026 59.8956 163.301 60.1706L164.557 61.4262L166.754 63.622L168.863 65.7297C169.138 66.0046 169.584 66.0046 169.859 65.7297L171.574 64.0153L174.198 61.3934L176.733 58.8596C177.008 58.5847 177.008 58.1389 176.733 57.864L175.443 56.5771L173.246 54.3814L171.17 52.3065C170.895 52.0316 170.449 52.0316 170.174 52.3065L168.459 54.0209L165.836 56.6428L165.836 56.6412ZM168.459 54.0193C168.459 54.0193 167.561 53.123 167.063 52.6245C166.952 52.5116 166.804 52.4645 166.647 52.4638C166.321 52.4622 166.063 52.7308 166.079 53.0573C166.085 53.1987 166.142 53.3353 166.24 53.4389C166.711 53.913 167.639 54.8374 167.639 54.8374L168.459 54.0193L168.459 54.0193ZM173.247 54.3799C173.247 54.3799 174.143 53.4827 174.642 52.9846C174.755 52.8737 174.802 52.7253 174.803 52.5688C174.805 52.2427 174.536 51.9856 174.209 52.0006C174.068 52.0073 173.931 52.0638 173.827 52.1623C173.353 52.6329 172.428 53.5608 172.428 53.5608L173.247 54.3798L173.247 54.3799ZM175.444 56.5757C175.444 56.5757 176.34 55.6785 176.839 55.1804C176.952 55.0695 176.999 54.9211 177 54.7647C177.002 54.4385 176.733 54.1814 176.406 54.1965C176.265 54.2031 176.128 54.2596 176.024 54.3581C175.55 54.8287 174.625 55.7566 174.625 55.7566L175.444 56.5757L175.444 56.5757ZM174.197 61.3933C174.197 61.3933 175.095 62.2896 175.594 62.788C175.705 62.9009 175.853 62.948 176.01 62.9487C176.336 62.9503 176.593 62.6817 176.578 62.3552L176.578 62.3553C176.571 62.2139 176.515 62.0772 176.416 61.9737C175.945 61.4996 175.017 60.5752 175.017 60.5752L174.197 61.3933L174.197 61.3933ZM171.574 64.0151C171.574 64.0151 172.472 64.9114 172.97 65.4099C173.081 65.5227 173.23 65.5699 173.386 65.5706C173.713 65.5722 173.97 65.3036 173.955 64.977H173.955C173.948 64.8356 173.891 64.699 173.793 64.5955C173.322 64.1214 172.394 63.1969 172.394 63.1969L171.574 64.015L171.574 64.0151ZM166.753 63.62C166.753 63.62 165.857 64.5171 165.358 65.0154C165.245 65.1263 165.198 65.2747 165.197 65.4311C165.196 65.7573 165.464 66.0144 165.791 65.9994H165.791C165.932 65.9927 166.069 65.9362 166.173 65.8377C166.647 65.3672 167.572 64.4392 167.572 64.4392L166.754 63.6241L166.753 63.62ZM164.556 61.4242C164.556 61.4242 163.66 62.3213 163.161 62.8196C163.048 62.9303 163.001 63.0786 163 63.2353C162.998 63.5612 163.267 63.8181 163.594 63.805H163.594C163.735 63.7983 163.872 63.7418 163.976 63.6433C164.45 63.1728 165.375 62.2448 165.375 62.2448L164.556 61.4244L164.556 61.4242ZM170.592 55.1618C170.708 55.0438 170.866 54.9778 171.028 54.9802C171.143 54.9818 171.253 55.0182 171.343 55.0846L172.485 55.9213C172.706 56.0802 172.772 56.3818 172.639 56.6344C172.507 56.887 172.216 57.0165 171.951 56.9403L172.374 58.5964C172.451 58.8973 172.266 59.2165 171.961 59.3098L168.872 60.2525L169.442 62.4573C169.523 62.7594 169.338 63.0827 169.03 63.1769C168.722 63.2711 168.409 63.1001 168.334 62.7962L167.622 60.0461C167.544 59.7449 167.729 59.4247 168.036 59.3312L171.126 58.3881L170.841 57.2735C170.649 57.4854 170.34 57.5369 170.108 57.3953C169.876 57.2538 169.789 56.9604 169.901 56.7005L170.463 55.3552C170.493 55.2835 170.537 55.2177 170.592 55.1618L170.592 55.1618Z" fill="white"/>
<path d="M194.098 63H192.287V59.3027H188.895V63H187.078V54.4336H188.895V57.791H192.287V54.4336H194.098V63Z" fill="white"/>
<path d="M199.57 63H197.754V55.9453H195.428V54.4336H201.896V55.9453H199.57V63Z" fill="white"/>
<path d="M206.52 63H204.703V55.9453H202.377V54.4336H208.846V55.9453H206.52V63Z" fill="white"/>
<path d="M211.98 58.4648H212.578C213.137 58.4648 213.555 58.3555 213.832 58.1367C214.109 57.9141 214.248 57.5918 214.248 57.1699C214.248 56.7441 214.131 56.4297 213.896 56.2266C213.666 56.0234 213.303 55.9219 212.807 55.9219H211.98V58.4648ZM216.082 57.1055C216.082 58.0273 215.793 58.7324 215.215 59.2207C214.641 59.709 213.822 59.9531 212.76 59.9531H211.98V63H210.164V54.4336H212.9C213.939 54.4336 214.729 54.6582 215.268 55.1074C215.811 55.5527 216.082 56.2188 216.082 57.1055Z" fill="white"/>
<path d="M151 89C151 85.6863 153.686 83 157 83H229C232.314 83 235 85.6863 235 89V114C235 117.314 232.314 120 229 120H157C153.686 120 151 117.314 151 114V89Z" fill="#305680"/>
<path d="M190.705 106L188.643 99.2793H188.59C188.664 100.646 188.701 101.559 188.701 102.016V106H187.078V97.4336H189.551L191.578 103.984H191.613L193.764 97.4336H196.236V106H194.543V101.945C194.543 101.754 194.545 101.533 194.549 101.283C194.557 101.033 194.584 100.369 194.631 99.291H194.578L192.369 106H190.705Z" fill="white"/>
<path d="M206.174 101.705C206.174 102.713 205.994 103.559 205.635 104.242C205.279 104.922 204.756 105.42 204.064 105.736L206.127 108.039H203.801L202.23 106.117H202.096C200.783 106.117 199.775 105.736 199.072 104.975C198.369 104.213 198.018 103.119 198.018 101.693C198.018 100.268 198.369 99.1797 199.072 98.4297C199.779 97.6758 200.791 97.2988 202.107 97.2988C203.424 97.2988 204.43 97.6777 205.125 98.4355C205.824 99.1934 206.174 100.283 206.174 101.705ZM199.922 101.705C199.922 102.662 200.104 103.383 200.467 103.867C200.83 104.352 201.373 104.594 202.096 104.594C203.545 104.594 204.27 103.631 204.27 101.705C204.27 99.7754 203.549 98.8105 202.107 98.8105C201.385 98.8105 200.84 99.0547 200.473 99.543C200.105 100.027 199.922 100.748 199.922 101.705Z" fill="white"/>
<path d="M211.254 106H209.438V98.9453H207.111V97.4336H213.58V98.9453H211.254V106Z" fill="white"/>
<path d="M218.203 106H216.387V98.9453H214.061V97.4336H220.529V98.9453H218.203V106Z" fill="white"/>
<path fill-rule="evenodd" clip-rule="evenodd" d="M163.611 98.2594C163.508 98.3671 163.448 98.5159 163.455 98.6792C163.462 98.8206 163.518 98.9572 163.617 99.0608C164.088 99.5349 165.016 100.459 165.016 100.459L165.836 99.6412C165.836 99.6412 164.938 98.7449 164.44 98.2463C164.329 98.1334 164.18 98.0863 164.024 98.0856C163.861 98.0848 163.715 98.1516 163.611 98.2593L163.611 98.2594ZM165.836 99.6412L163.301 102.175C163.026 102.45 163.026 102.896 163.301 103.171L164.557 104.426L166.754 106.622L168.863 108.73C169.138 109.005 169.584 109.005 169.859 108.73L171.574 107.015L174.198 104.393L176.733 101.86C177.008 101.585 177.008 101.139 176.733 100.864L175.443 99.5771L173.246 97.3814L171.17 95.3065C170.895 95.0316 170.449 95.0316 170.174 95.3065L168.459 97.0209L165.836 99.6428L165.836 99.6412ZM168.459 97.0193C168.459 97.0193 167.561 96.123 167.063 95.6245C166.952 95.5116 166.804 95.4645 166.647 95.4638C166.321 95.4622 166.063 95.7308 166.079 96.0573C166.085 96.1987 166.142 96.3353 166.24 96.4389C166.711 96.913 167.639 97.8374 167.639 97.8374L168.459 97.0193L168.459 97.0193ZM173.247 97.3799C173.247 97.3799 174.143 96.4827 174.642 95.9846C174.755 95.8737 174.802 95.7253 174.803 95.5688C174.805 95.2427 174.536 94.9856 174.209 95.0006C174.068 95.0073 173.931 95.0638 173.827 95.1623C173.353 95.6329 172.428 96.5608 172.428 96.5608L173.247 97.3798L173.247 97.3799ZM175.444 99.5757C175.444 99.5757 176.34 98.6785 176.839 98.1804C176.952 98.0695 176.999 97.9211 177 97.7647C177.002 97.4385 176.733 97.1814 176.406 97.1965C176.265 97.2031 176.128 97.2596 176.024 97.3581C175.55 97.8287 174.625 98.7566 174.625 98.7566L175.444 99.5757L175.444 99.5757ZM174.197 104.393C174.197 104.393 175.095 105.29 175.594 105.788C175.705 105.901 175.853 105.948 176.01 105.949C176.336 105.95 176.593 105.682 176.578 105.355L176.578 105.355C176.571 105.214 176.515 105.077 176.416 104.974C175.945 104.5 175.017 103.575 175.017 103.575L174.197 104.393L174.197 104.393ZM171.574 107.015C171.574 107.015 172.472 107.911 172.97 108.41C173.081 108.523 173.23 108.57 173.386 108.571C173.713 108.572 173.97 108.304 173.955 107.977H173.955C173.948 107.836 173.891 107.699 173.793 107.595C173.322 107.121 172.394 106.197 172.394 106.197L171.574 107.015L171.574 107.015ZM166.753 106.62C166.753 106.62 165.857 107.517 165.358 108.015C165.245 108.126 165.198 108.275 165.197 108.431C165.196 108.757 165.464 109.014 165.791 108.999H165.791C165.932 108.993 166.069 108.936 166.173 108.838C166.647 108.367 167.572 107.439 167.572 107.439L166.754 106.624L166.753 106.62ZM164.556 104.424C164.556 104.424 163.66 105.321 163.161 105.82C163.048 105.93 163.001 106.079 163 106.235C162.998 106.561 163.267 106.818 163.594 106.805H163.594C163.735 106.798 163.872 106.742 163.976 106.643C164.45 106.173 165.375 105.245 165.375 105.245L164.556 104.424L164.556 104.424ZM170.592 98.1618C170.708 98.0438 170.866 97.9778 171.028 97.9802C171.143 97.9818 171.253 98.0182 171.343 98.0846L172.485 98.9213C172.706 99.0802 172.772 99.3818 172.639 99.6344C172.507 99.887 172.216 100.016 171.951 99.9403L172.374 101.596C172.451 101.897 172.266 102.217 171.961 102.31L168.872 103.252L169.442 105.457C169.523 105.759 169.338 106.083 169.03 106.177C168.722 106.271 168.409 106.1 168.334 105.796L167.622 103.046C167.544 102.745 167.729 102.425 168.036 102.331L171.126 101.388L170.841 100.273C170.649 100.485 170.34 100.537 170.108 100.395C169.876 100.254 169.789 99.9604 169.901 99.7005L170.463 98.3552C170.493 98.2835 170.537 98.2177 170.592 98.1618L170.592 98.1618Z" fill="white"/>
<path d="M151 132C151 128.686 153.686 126 157 126H229C232.314 126 235 128.686 235 132V157C235 160.314 232.314 163 229 163H157C153.686 163 151 160.314 151 157V132Z" fill="#305680"/>
<path d="M190.717 141.822C190.033 141.822 189.504 142.08 189.129 142.596C188.754 143.107 188.566 143.822 188.566 144.74C188.566 146.65 189.283 147.605 190.717 147.605C191.318 147.605 192.047 147.455 192.902 147.154V148.678C192.199 148.971 191.414 149.117 190.547 149.117C189.301 149.117 188.348 148.74 187.688 147.986C187.027 147.229 186.697 146.143 186.697 144.729C186.697 143.838 186.859 143.059 187.184 142.391C187.508 141.719 187.973 141.205 188.578 140.85C189.188 140.49 189.9 140.311 190.717 140.311C191.549 140.311 192.385 140.512 193.225 140.914L192.639 142.391C192.318 142.238 191.996 142.105 191.672 141.992C191.348 141.879 191.029 141.822 190.717 141.822Z" fill="white"/>
<path d="M196.014 145.713C196.014 146.361 196.119 146.852 196.33 147.184C196.545 147.516 196.893 147.682 197.373 147.682C197.85 147.682 198.191 147.518 198.398 147.189C198.609 146.857 198.715 146.365 198.715 145.713C198.715 145.064 198.609 144.578 198.398 144.254C198.188 143.93 197.842 143.768 197.361 143.768C196.885 143.768 196.541 143.93 196.33 144.254C196.119 144.574 196.014 145.061 196.014 145.713ZM200.543 145.713C200.543 146.779 200.262 147.613 199.699 148.215C199.137 148.816 198.354 149.117 197.35 149.117C196.721 149.117 196.166 148.98 195.686 148.707C195.205 148.43 194.836 148.033 194.578 147.518C194.32 147.002 194.191 146.4 194.191 145.713C194.191 144.643 194.471 143.811 195.029 143.217C195.588 142.623 196.373 142.326 197.385 142.326C198.014 142.326 198.568 142.463 199.049 142.736C199.529 143.01 199.898 143.402 200.156 143.914C200.414 144.426 200.543 145.025 200.543 145.713Z" fill="white"/>
<path d="M207.404 149L206.783 146.961H203.66L203.039 149H201.082L204.105 140.398H206.326L209.361 149H207.404ZM206.35 145.438C205.775 143.59 205.451 142.545 205.377 142.303C205.307 142.061 205.256 141.869 205.225 141.729C205.096 142.229 204.727 143.465 204.117 145.438H206.35Z" fill="white"/>
<path d="M212.262 144.465H212.859C213.418 144.465 213.836 144.355 214.113 144.137C214.391 143.914 214.529 143.592 214.529 143.17C214.529 142.744 214.412 142.43 214.178 142.227C213.947 142.023 213.584 141.922 213.088 141.922H212.262V144.465ZM216.363 143.105C216.363 144.027 216.074 144.732 215.496 145.221C214.922 145.709 214.104 145.953 213.041 145.953H212.262V149H210.445V140.434H213.182C214.221 140.434 215.01 140.658 215.549 141.107C216.092 141.553 216.363 142.219 216.363 143.105Z" fill="white"/>
<path fill-rule="evenodd" clip-rule="evenodd" d="M163.611 141.259C163.508 141.367 163.448 141.516 163.455 141.679C163.462 141.821 163.518 141.957 163.617 142.061C164.088 142.535 165.016 143.459 165.016 143.459L165.836 142.641C165.836 142.641 164.938 141.745 164.44 141.246C164.329 141.133 164.18 141.086 164.024 141.086C163.861 141.085 163.715 141.152 163.611 141.259L163.611 141.259ZM165.836 142.641L163.301 145.175C163.026 145.45 163.026 145.896 163.301 146.171L164.557 147.426L166.754 149.622L168.863 151.73C169.138 152.005 169.584 152.005 169.859 151.73L171.574 150.015L174.198 147.393L176.733 144.86C177.008 144.585 177.008 144.139 176.733 143.864L175.443 142.577L173.246 140.381L171.17 138.306C170.895 138.032 170.449 138.032 170.174 138.306L168.459 140.021L165.836 142.643L165.836 142.641ZM168.459 140.019C168.459 140.019 167.561 139.123 167.063 138.624C166.952 138.512 166.804 138.464 166.647 138.464C166.321 138.462 166.063 138.731 166.079 139.057C166.085 139.199 166.142 139.335 166.24 139.439C166.711 139.913 167.639 140.837 167.639 140.837L168.459 140.019L168.459 140.019ZM173.247 140.38C173.247 140.38 174.143 139.483 174.642 138.985C174.755 138.874 174.802 138.725 174.803 138.569C174.805 138.243 174.536 137.986 174.209 138.001C174.068 138.007 173.931 138.064 173.827 138.162C173.353 138.633 172.428 139.561 172.428 139.561L173.247 140.38L173.247 140.38ZM175.444 142.576C175.444 142.576 176.34 141.679 176.839 141.18C176.952 141.07 176.999 140.921 177 140.765C177.002 140.438 176.733 140.181 176.406 140.196C176.265 140.203 176.128 140.26 176.024 140.358C175.55 140.829 174.625 141.757 174.625 141.757L175.444 142.576L175.444 142.576ZM174.197 147.393C174.197 147.393 175.095 148.29 175.594 148.788C175.705 148.901 175.853 148.948 176.01 148.949C176.336 148.95 176.593 148.682 176.578 148.355L176.578 148.355C176.571 148.214 176.515 148.077 176.416 147.974C175.945 147.5 175.017 146.575 175.017 146.575L174.197 147.393L174.197 147.393ZM171.574 150.015C171.574 150.015 172.472 150.911 172.97 151.41C173.081 151.523 173.23 151.57 173.386 151.571C173.713 151.572 173.97 151.304 173.955 150.977H173.955C173.948 150.836 173.891 150.699 173.793 150.595C173.322 150.121 172.394 149.197 172.394 149.197L171.574 150.015L171.574 150.015ZM166.753 149.62C166.753 149.62 165.857 150.517 165.358 151.015C165.245 151.126 165.198 151.275 165.197 151.431C165.196 151.757 165.464 152.014 165.791 151.999H165.791C165.932 151.993 166.069 151.936 166.173 151.838C166.647 151.367 167.572 150.439 167.572 150.439L166.754 149.624L166.753 149.62ZM164.556 147.424C164.556 147.424 163.66 148.321 163.161 148.82C163.048 148.93 163.001 149.079 163 149.235C162.998 149.561 163.267 149.818 163.594 149.805H163.594C163.735 149.798 163.872 149.742 163.976 149.643C164.45 149.173 165.375 148.245 165.375 148.245L164.556 147.424L164.556 147.424ZM170.592 141.162C170.708 141.044 170.866 140.978 171.028 140.98C171.143 140.982 171.253 141.018 171.343 141.085L172.485 141.921C172.706 142.08 172.772 142.382 172.639 142.634C172.507 142.887 172.216 143.016 171.951 142.94L172.374 144.596C172.451 144.897 172.266 145.217 171.961 145.31L168.872 146.252L169.442 148.457C169.523 148.759 169.338 149.083 169.03 149.177C168.722 149.271 168.409 149.1 168.334 148.796L167.622 146.046C167.544 145.745 167.729 145.425 168.036 145.331L171.126 144.388L170.841 143.273C170.649 143.485 170.34 143.537 170.108 143.395C169.876 143.254 169.789 142.96 169.901 142.701L170.463 141.355C170.493 141.283 170.537 141.218 170.592 141.162L170.592 141.162Z" fill="white"/>
<path fill-rule="evenodd" clip-rule="evenodd" d="M262 101L242 101L242 102L262 102L262 101Z" fill="#28232D"/>
<path d="M238.17 102.319C237.602 101.921 237.602 101.079 238.17 100.681L240.427 99.1014C241.089 98.6375 242 99.1116 242 99.9206L242 103.079C242 103.888 241.089 104.362 240.427 103.899L238.17 102.319Z" fill="#28232D"/>
<path d="M265.83 100.681C266.398 101.079 266.398 101.921 265.83 102.319L263.573 103.899C262.911 104.363 262 103.888 262 103.079L262 99.9207C262 99.1117 262.911 98.6375 263.573 99.1015L265.83 100.681Z" fill="#28232D"/>
<path fill-rule="evenodd" clip-rule="evenodd" d="M400 102L410 102L410 101L400 101L400 102Z" fill="#28232D"/>
<path d="M413.83 100.681C414.398 101.079 414.398 101.921 413.83 102.319L411.573 103.899C410.911 104.363 410 103.888 410 103.079L410 99.9207C410 99.1117 410.911 98.6375 411.573 99.1015L413.83 100.681Z" fill="#28232D"/>
<path d="M396.17 102.319C395.602 101.921 395.602 101.079 396.17 100.681L398.427 99.1014C399.089 98.6375 400 99.1116 400 99.9206L400 103.079C400 103.888 399.089 104.362 398.427 103.899L396.17 102.319Z" fill="#28232D"/>
<path fill-rule="evenodd" clip-rule="evenodd" d="M548 102L561 102L561 101L548 101L548 102Z" fill="#28232D"/>
<path d="M544.17 102.319C543.602 101.921 543.602 101.079 544.17 100.681L546.427 99.1014C547.089 98.6375 548 99.1116 548 99.9206L548 103.079C548 103.888 547.089 104.362 546.427 103.899L544.17 102.319Z" fill="#28232D"/>
<path d="M269 89C269 85.6863 271.686 83 275 83H387C390.314 83 393 85.6863 393 89V114C393 117.314 390.314 120 387 120H275C271.686 120 269 117.314 269 114V89Z" fill="#305680"/>
<path d="M310.012 106H305.078V97.4336H310.012V98.9219H306.895V100.803H309.795V102.291H306.895V104.5H310.012V106Z" fill="white"/>
<path d="M313.738 106.117C312.969 106.117 312.363 105.818 311.922 105.221C311.484 104.623 311.266 103.795 311.266 102.736C311.266 101.662 311.488 100.826 311.934 100.229C312.383 99.627 313 99.3262 313.785 99.3262C314.609 99.3262 315.238 99.6465 315.672 100.287H315.73C315.641 99.7988 315.596 99.3633 315.596 98.9805V96.8828H317.389V106H316.018L315.672 105.15H315.596C315.189 105.795 314.57 106.117 313.738 106.117ZM314.365 104.693C314.822 104.693 315.156 104.561 315.367 104.295C315.582 104.029 315.699 103.578 315.719 102.941V102.748C315.719 102.045 315.609 101.541 315.391 101.236C315.176 100.932 314.824 100.779 314.336 100.779C313.938 100.779 313.627 100.949 313.404 101.289C313.186 101.625 313.076 102.115 313.076 102.76C313.076 103.404 313.188 103.889 313.41 104.213C313.633 104.533 313.951 104.693 314.365 104.693Z" fill="white"/>
<path d="M324.959 99.4492V100.357L323.934 100.621C324.121 100.914 324.215 101.242 324.215 101.605C324.215 102.309 323.969 102.857 323.477 103.252C322.988 103.643 322.309 103.838 321.438 103.838L321.115 103.82L320.852 103.791C320.668 103.932 320.576 104.088 320.576 104.26C320.576 104.518 320.904 104.646 321.561 104.646H322.674C323.393 104.646 323.939 104.801 324.314 105.109C324.693 105.418 324.883 105.871 324.883 106.469C324.883 107.234 324.562 107.828 323.922 108.25C323.285 108.672 322.369 108.883 321.174 108.883C320.26 108.883 319.561 108.723 319.076 108.402C318.596 108.086 318.355 107.641 318.355 107.066C318.355 106.672 318.479 106.342 318.725 106.076C318.971 105.811 319.332 105.621 319.809 105.508C319.625 105.43 319.465 105.303 319.328 105.127C319.191 104.947 319.123 104.758 319.123 104.559C319.123 104.309 319.195 104.102 319.34 103.938C319.484 103.77 319.693 103.605 319.967 103.445C319.623 103.297 319.35 103.059 319.146 102.73C318.947 102.402 318.848 102.016 318.848 101.57C318.848 100.855 319.08 100.303 319.545 99.9121C320.01 99.5215 320.674 99.3262 321.537 99.3262C321.721 99.3262 321.938 99.3438 322.188 99.3789C322.441 99.4102 322.604 99.4336 322.674 99.4492H324.959ZM319.902 106.926C319.902 107.172 320.02 107.365 320.254 107.506C320.492 107.646 320.824 107.717 321.25 107.717C321.891 107.717 322.393 107.629 322.756 107.453C323.119 107.277 323.301 107.037 323.301 106.732C323.301 106.486 323.193 106.316 322.979 106.223C322.764 106.129 322.432 106.082 321.982 106.082H321.057C320.729 106.082 320.453 106.158 320.23 106.311C320.012 106.467 319.902 106.672 319.902 106.926ZM320.553 101.594C320.553 101.949 320.633 102.23 320.793 102.438C320.957 102.645 321.205 102.748 321.537 102.748C321.873 102.748 322.119 102.645 322.275 102.438C322.432 102.23 322.51 101.949 322.51 101.594C322.51 100.805 322.186 100.41 321.537 100.41C320.881 100.41 320.553 100.805 320.553 101.594Z" fill="white"/>
<path d="M328.756 100.598C328.377 100.598 328.08 100.719 327.865 100.961C327.65 101.199 327.527 101.539 327.496 101.98H330.004C329.996 101.539 329.881 101.199 329.658 100.961C329.436 100.719 329.135 100.598 328.756 100.598ZM329.008 106.117C327.953 106.117 327.129 105.826 326.535 105.244C325.941 104.662 325.645 103.838 325.645 102.771C325.645 101.674 325.918 100.826 326.465 100.229C327.016 99.627 327.775 99.3262 328.744 99.3262C329.67 99.3262 330.391 99.5898 330.906 100.117C331.422 100.645 331.68 101.373 331.68 102.303V103.17H327.455C327.475 103.678 327.625 104.074 327.906 104.359C328.188 104.645 328.582 104.787 329.09 104.787C329.484 104.787 329.857 104.746 330.209 104.664C330.561 104.582 330.928 104.451 331.311 104.271V105.654C330.998 105.811 330.664 105.926 330.309 106C329.953 106.078 329.52 106.117 329.008 106.117Z" fill="white"/>
<path d="M340.029 98.8223C339.346 98.8223 338.816 99.0801 338.441 99.5957C338.066 100.107 337.879 100.822 337.879 101.74C337.879 103.65 338.596 104.605 340.029 104.605C340.631 104.605 341.359 104.455 342.215 104.154V105.678C341.512 105.971 340.727 106.117 339.859 106.117C338.613 106.117 337.66 105.74 337 104.986C336.34 104.229 336.01 103.143 336.01 101.729C336.01 100.838 336.172 100.059 336.496 99.3906C336.82 98.7188 337.285 98.2051 337.891 97.8496C338.5 97.4902 339.213 97.3105 340.029 97.3105C340.861 97.3105 341.697 97.5117 342.537 97.9141L341.951 99.3906C341.631 99.2383 341.309 99.1055 340.984 98.9922C340.66 98.8789 340.342 98.8223 340.029 98.8223Z" fill="white"/>
<path d="M345.326 102.713C345.326 103.361 345.432 103.852 345.643 104.184C345.857 104.516 346.205 104.682 346.686 104.682C347.162 104.682 347.504 104.518 347.711 104.189C347.922 103.857 348.027 103.365 348.027 102.713C348.027 102.064 347.922 101.578 347.711 101.254C347.5 100.93 347.154 100.768 346.674 100.768C346.197 100.768 345.854 100.93 345.643 101.254C345.432 101.574 345.326 102.061 345.326 102.713ZM349.855 102.713C349.855 103.779 349.574 104.613 349.012 105.215C348.449 105.816 347.666 106.117 346.662 106.117C346.033 106.117 345.479 105.98 344.998 105.707C344.518 105.43 344.148 105.033 343.891 104.518C343.633 104.002 343.504 103.4 343.504 102.713C343.504 101.643 343.783 100.811 344.342 100.217C344.9 99.623 345.686 99.3262 346.697 99.3262C347.326 99.3262 347.881 99.4629 348.361 99.7363C348.842 100.01 349.211 100.402 349.469 100.914C349.727 101.426 349.855 102.025 349.855 102.713Z" fill="white"/>
<path d="M354.988 99.3262C355.23 99.3262 355.432 99.3438 355.592 99.3789L355.457 101.055C355.312 101.016 355.137 100.996 354.93 100.996C354.359 100.996 353.914 101.143 353.594 101.436C353.277 101.729 353.119 102.139 353.119 102.666V106H351.332V99.4492H352.686L352.949 100.551H353.037C353.24 100.184 353.514 99.8887 353.857 99.666C354.205 99.4395 354.582 99.3262 354.988 99.3262Z" fill="white"/>
<path d="M359.494 100.598C359.115 100.598 358.818 100.719 358.604 100.961C358.389 101.199 358.266 101.539 358.234 101.98H360.742C360.734 101.539 360.619 101.199 360.396 100.961C360.174 100.719 359.873 100.598 359.494 100.598ZM359.746 106.117C358.691 106.117 357.867 105.826 357.273 105.244C356.68 104.662 356.383 103.838 356.383 102.771C356.383 101.674 356.656 100.826 357.203 100.229C357.754 99.627 358.514 99.3262 359.482 99.3262C360.408 99.3262 361.129 99.5898 361.645 100.117C362.16 100.645 362.418 101.373 362.418 102.303V103.17H358.193C358.213 103.678 358.363 104.074 358.645 104.359C358.926 104.645 359.32 104.787 359.828 104.787C360.223 104.787 360.596 104.746 360.947 104.664C361.299 104.582 361.666 104.451 362.049 104.271V105.654C361.736 105.811 361.402 105.926 361.047 106C360.691 106.078 360.258 106.117 359.746 106.117Z" fill="white"/>
<path fill-rule="evenodd" clip-rule="evenodd" d="M281.611 98.2594C281.508 98.3671 281.448 98.5159 281.455 98.6792C281.462 98.8206 281.518 98.9572 281.617 99.0608C282.088 99.5349 283.016 100.459 283.016 100.459L283.836 99.6412C283.836 99.6412 282.938 98.7449 282.44 98.2463C282.329 98.1334 282.18 98.0863 282.024 98.0856C281.861 98.0848 281.715 98.1516 281.611 98.2593L281.611 98.2594ZM283.836 99.6412L281.301 102.175C281.026 102.45 281.026 102.896 281.301 103.171L282.557 104.426L284.754 106.622L286.863 108.73C287.138 109.005 287.584 109.005 287.859 108.73L289.574 107.015L292.198 104.393L294.733 101.86C295.008 101.585 295.008 101.139 294.733 100.864L293.443 99.5771L291.246 97.3814L289.17 95.3065C288.895 95.0316 288.449 95.0316 288.174 95.3065L286.459 97.0209L283.836 99.6428L283.836 99.6412ZM286.459 97.0193C286.459 97.0193 285.561 96.123 285.063 95.6245C284.952 95.5116 284.804 95.4645 284.647 95.4638C284.321 95.4622 284.063 95.7308 284.079 96.0573C284.085 96.1987 284.142 96.3353 284.24 96.4389C284.711 96.913 285.639 97.8374 285.639 97.8374L286.459 97.0193L286.459 97.0193ZM291.247 97.3799C291.247 97.3799 292.143 96.4827 292.642 95.9846C292.755 95.8737 292.802 95.7253 292.803 95.5688C292.805 95.2427 292.536 94.9856 292.209 95.0006C292.068 95.0073 291.931 95.0638 291.827 95.1623C291.353 95.6329 290.428 96.5608 290.428 96.5608L291.247 97.3798L291.247 97.3799ZM293.444 99.5757C293.444 99.5757 294.34 98.6785 294.839 98.1804C294.952 98.0695 294.999 97.9211 295 97.7647C295.002 97.4385 294.733 97.1814 294.406 97.1965C294.265 97.2031 294.128 97.2596 294.024 97.3581C293.55 97.8287 292.625 98.7566 292.625 98.7566L293.444 99.5757L293.444 99.5757ZM292.197 104.393C292.197 104.393 293.095 105.29 293.594 105.788C293.705 105.901 293.853 105.948 294.01 105.949C294.336 105.95 294.593 105.682 294.578 105.355L294.578 105.355C294.571 105.214 294.515 105.077 294.416 104.974C293.945 104.5 293.017 103.575 293.017 103.575L292.197 104.393L292.197 104.393ZM289.574 107.015C289.574 107.015 290.472 107.911 290.97 108.41C291.081 108.523 291.23 108.57 291.386 108.571C291.713 108.572 291.97 108.304 291.955 107.977H291.955C291.948 107.836 291.891 107.699 291.793 107.595C291.322 107.121 290.394 106.197 290.394 106.197L289.574 107.015L289.574 107.015ZM284.753 106.62C284.753 106.62 283.857 107.517 283.358 108.015C283.245 108.126 283.198 108.275 283.197 108.431C283.196 108.757 283.464 109.014 283.791 108.999H283.791C283.932 108.993 284.069 108.936 284.173 108.838C284.647 108.367 285.572 107.439 285.572 107.439L284.754 106.624L284.753 106.62ZM282.556 104.424C282.556 104.424 281.66 105.321 281.161 105.82C281.048 105.93 281.001 106.079 281 106.235C280.998 106.561 281.267 106.818 281.594 106.805H281.594C281.735 106.798 281.872 106.742 281.976 106.643C282.45 106.173 283.375 105.245 283.375 105.245L282.556 104.424L282.556 104.424ZM288.592 98.1618C288.708 98.0438 288.866 97.9778 289.028 97.9802C289.143 97.9818 289.253 98.0182 289.343 98.0846L290.485 98.9213C290.706 99.0802 290.772 99.3818 290.639 99.6344C290.507 99.887 290.216 100.016 289.951 99.9403L290.374 101.596C290.451 101.897 290.266 102.217 289.961 102.31L286.872 103.252L287.442 105.457C287.523 105.759 287.338 106.083 287.03 106.177C286.722 106.271 286.409 106.1 286.334 105.796L285.622 103.046C285.544 102.745 285.729 102.425 286.036 102.331L289.126 101.388L288.841 100.273C288.649 100.485 288.34 100.537 288.108 100.395C287.876 100.254 287.789 99.9604 287.901 99.7005L288.463 98.3552C288.493 98.2835 288.537 98.2177 288.592 98.1618L288.592 98.1618Z" fill="white"/>
<path d="M6 83C6 79.6863 8.68629 77 12 77H101C104.314 77 107 79.6863 107 83V108C107 111.314 104.314 114 101 114H12C8.68629 114 6 111.314 6 108V83Z" fill="white"/>
<path fill-rule="evenodd" clip-rule="evenodd" d="M101 78H12C9.23858 78 7 80.2386 7 83V108C7 110.761 9.23857 113 12 113H101C103.761 113 106 110.761 106 108V83C106 80.2386 103.761 78 101 78ZM12 77C8.68629 77 6 79.6863 6 83V108C6 111.314 8.68629 114 12 114H101C104.314 114 107 111.314 107 108V83C107 79.6863 104.314 77 101 77H12Z" fill="#305680" fill-opacity="0.4"/>
<path d="M3 86C3 82.6863 5.68629 80 9 80H98C101.314 80 104 82.6863 104 86V111C104 114.314 101.314 117 98 117H9C5.68629 117 3 114.314 3 111V86Z" fill="white"/>
<path fill-rule="evenodd" clip-rule="evenodd" d="M98 81H9C6.23858 81 4 83.2386 4 86V111C4 113.761 6.23857 116 9 116H98C100.761 116 103 113.761 103 111V86C103 83.2386 100.761 81 98 81ZM9 80C5.68629 80 3 82.6863 3 86V111C3 114.314 5.68629 117 9 117H98C101.314 117 104 114.314 104 111V86C104 82.6863 101.314 80 98 80H9Z" fill="#305680" fill-opacity="0.4"/>
<path d="M0 89C0 85.6863 2.68629 83 6 83H95C98.3137 83 101 85.6863 101 89V114C101 117.314 98.3137 120 95 120H6C2.68629 120 0 117.314 0 114V89Z" fill="white"/>
<path fill-rule="evenodd" clip-rule="evenodd" d="M95 84H6C3.23858 84 1 86.2386 1 89V114C1 116.761 3.23857 119 6 119H95C97.7614 119 100 116.761 100 114V89C100 86.2386 97.7614 84 95 84ZM6 83C2.68629 83 0 85.6863 0 89V114C0 117.314 2.68629 120 6 120H95C98.3137 120 101 117.314 101 114V89C101 85.6863 98.3137 83 95 83H6Z" fill="#305680" fill-opacity="0.4"/>
<path d="M43.0977 101.635C43.0977 103.049 42.7051 104.131 41.9199 104.881C41.1348 105.627 40.0039 106 38.5273 106H36.1309V97.4336H38.7793C40.1426 97.4336 41.2031 97.8008 41.9609 98.5352C42.7188 99.2695 43.0977 100.303 43.0977 101.635ZM41.6211 101.682C41.6211 99.6309 40.6621 98.6055 38.7441 98.6055H37.5312V104.822H38.5273C40.5898 104.822 41.6211 103.775 41.6211 101.682Z" fill="#05172A"/>
<path d="M47.627 106.117C46.6191 106.117 45.8301 105.824 45.2598 105.238C44.6934 104.648 44.4102 103.838 44.4102 102.807C44.4102 101.748 44.6738 100.916 45.2012 100.311C45.7285 99.7051 46.4531 99.4023 47.375 99.4023C48.2305 99.4023 48.9062 99.6621 49.4023 100.182C49.8984 100.701 50.1465 101.416 50.1465 102.326V103.07H45.8281C45.8477 103.699 46.0176 104.184 46.3379 104.523C46.6582 104.859 47.1094 105.027 47.6914 105.027C48.0742 105.027 48.4297 104.992 48.7578 104.922C49.0898 104.848 49.4453 104.727 49.8242 104.559V105.678C49.4883 105.838 49.1484 105.951 48.8047 106.018C48.4609 106.084 48.0684 106.117 47.627 106.117ZM47.375 100.445C46.9375 100.445 46.5859 100.584 46.3203 100.861C46.0586 101.139 45.9023 101.543 45.8516 102.074H48.793C48.7852 101.539 48.6562 101.135 48.4062 100.861C48.1562 100.584 47.8125 100.445 47.375 100.445Z" fill="#05172A"/>
<path d="M53.1875 106L50.7266 99.5195H52.1797L53.498 103.287C53.7246 103.92 53.8613 104.432 53.9082 104.822H53.9551C53.9902 104.541 54.127 104.029 54.3652 103.287L55.6836 99.5195H57.1484L54.6758 106H53.1875Z" fill="#05172A"/>
<path d="M59.5098 106H58.1328V99.5195H59.5098V106ZM58.0508 97.8027C58.0508 97.5566 58.1172 97.3672 58.25 97.2344C58.3867 97.1016 58.5801 97.0352 58.8301 97.0352C59.0723 97.0352 59.2598 97.1016 59.3926 97.2344C59.5293 97.3672 59.5977 97.5566 59.5977 97.8027C59.5977 98.0371 59.5293 98.2227 59.3926 98.3594C59.2598 98.4922 59.0723 98.5586 58.8301 98.5586C58.5801 98.5586 58.3867 98.4922 58.25 98.3594C58.1172 98.2227 58.0508 98.0371 58.0508 97.8027Z" fill="#05172A"/>
<path d="M64.0977 106.117C63.1172 106.117 62.3711 105.832 61.8594 105.262C61.3516 104.688 61.0977 103.865 61.0977 102.795C61.0977 101.705 61.3633 100.867 61.8945 100.281C62.4297 99.6953 63.2012 99.4023 64.209 99.4023C64.8926 99.4023 65.5078 99.5293 66.0547 99.7832L65.6387 100.891C65.0566 100.664 64.5762 100.551 64.1973 100.551C63.0762 100.551 62.5156 101.295 62.5156 102.783C62.5156 103.51 62.6543 104.057 62.9316 104.424C63.2129 104.787 63.623 104.969 64.1621 104.969C64.7754 104.969 65.3555 104.816 65.9023 104.512V105.713C65.6562 105.857 65.3926 105.961 65.1113 106.023C64.834 106.086 64.4961 106.117 64.0977 106.117Z" fill="#05172A"/>
<path d="M70.2559 106.117C69.248 106.117 68.459 105.824 67.8887 105.238C67.3223 104.648 67.0391 103.838 67.0391 102.807C67.0391 101.748 67.3027 100.916 67.8301 100.311C68.3574 99.7051 69.082 99.4023 70.0039 99.4023C70.8594 99.4023 71.5352 99.6621 72.0312 100.182C72.5273 100.701 72.7754 101.416 72.7754 102.326V103.07H68.457C68.4766 103.699 68.6465 104.184 68.9668 104.523C69.2871 104.859 69.7383 105.027 70.3203 105.027C70.7031 105.027 71.0586 104.992 71.3867 104.922C71.7188 104.848 72.0742 104.727 72.4531 104.559V105.678C72.1172 105.838 71.7773 105.951 71.4336 106.018C71.0898 106.084 70.6973 106.117 70.2559 106.117ZM70.0039 100.445C69.5664 100.445 69.2148 100.584 68.9492 100.861C68.6875 101.139 68.5312 101.543 68.4805 102.074H71.4219C71.4141 101.539 71.2852 101.135 71.0352 100.861C70.7852 100.584 70.4414 100.445 70.0039 100.445Z" fill="#05172A"/>
<path d="M78.6934 104.154C78.6934 104.787 78.4629 105.273 78.002 105.613C77.541 105.949 76.8809 106.117 76.0215 106.117C75.1582 106.117 74.4648 105.986 73.9414 105.725V104.535C74.7031 104.887 75.4121 105.062 76.0684 105.062C76.916 105.062 77.3398 104.807 77.3398 104.295C77.3398 104.131 77.293 103.994 77.1992 103.885C77.1055 103.775 76.9512 103.662 76.7363 103.545C76.5215 103.428 76.2227 103.295 75.8398 103.146C75.0938 102.857 74.5879 102.568 74.3223 102.279C74.0605 101.99 73.9297 101.615 73.9297 101.154C73.9297 100.6 74.1523 100.17 74.5977 99.8652C75.0469 99.5566 75.6562 99.4023 76.4258 99.4023C77.1875 99.4023 77.9082 99.5566 78.5879 99.8652L78.1426 100.902C77.4434 100.613 76.8555 100.469 76.3789 100.469C75.6523 100.469 75.2891 100.676 75.2891 101.09C75.2891 101.293 75.3828 101.465 75.5703 101.605C75.7617 101.746 76.1758 101.939 76.8125 102.186C77.3477 102.393 77.7363 102.582 77.9785 102.754C78.2207 102.926 78.4004 103.125 78.5176 103.352C78.6348 103.574 78.6934 103.842 78.6934 104.154Z" fill="#05172A"/>
<path fill-rule="evenodd" clip-rule="evenodd" d="M17 95.5C17 95.2239 17.2239 95 17.5 95C17.7761 95 18 95.2239 18 95.5V97H20V95.5C20 95.2239 20.2239 95 20.5 95C20.7761 95 21 95.2239 21 95.5V97H22C23.1046 97 24 97.8954 24 99V100H25.5C25.7761 100 26 100.224 26 100.5C26 100.776 25.7761 101 25.5 101H24V103H25.5C25.7761 103 26 103.224 26 103.5C26 103.776 25.7761 104 25.5 104H24V105C24 106.105 23.1046 107 22 107H21V108.5C21 108.776 20.7761 109 20.5 109C20.2239 109 20 108.776 20 108.5V107H18V108.5C18 108.776 17.7761 109 17.5 109C17.2239 109 17 108.776 17 108.5V107H16C14.8954 107 14 106.105 14 105V104H12.5C12.2239 104 12 103.776 12 103.5C12 103.224 12.2239 103 12.5 103H14V101H12.5C12.2239 101 12 100.776 12 100.5C12 100.224 12.2239 100 12.5 100H14V99C14 97.8954 14.8954 97 16 97H17V95.5ZM17 102C17 100.895 17.8954 100 19 100C20.1046 100 21 100.895 21 102C21 103.105 20.1046 104 19 104C17.8954 104 17 103.105 17 102ZM19 101C18.4477 101 18 101.448 18 102C18 102.552 18.4477 103 19 103C19.5523 103 20 102.552 20 102C20 101.448 19.5523 101 19 101Z" fill="#305680"/>
<path d="M568.281 96.625V99H567.617V93.2891H569.184C569.884 93.2891 570.401 93.4232 570.734 93.6914C571.07 93.9596 571.238 94.3633 571.238 94.9023C571.238 95.6576 570.855 96.168 570.09 96.4336L571.641 99H570.855L569.473 96.625H568.281ZM568.281 96.0547H569.191C569.66 96.0547 570.004 95.9622 570.223 95.7773C570.441 95.5898 570.551 95.3099 570.551 94.9375C570.551 94.5599 570.439 94.2878 570.215 94.1211C569.993 93.9544 569.637 93.8711 569.145 93.8711H568.281V96.0547Z" fill="#05172A"/>
<path d="M575.746 99H572.562V93.2891H575.746V93.8789H573.227V95.7188H575.594V96.3047H573.227V98.4062H575.746V99Z" fill="#05172A"/>
<path d="M580.238 97.4805C580.238 97.9831 580.056 98.375 579.691 98.6562C579.327 98.9375 578.832 99.0781 578.207 99.0781C577.53 99.0781 577.009 98.9909 576.645 98.8164V98.1758C576.879 98.2747 577.134 98.3529 577.41 98.4102C577.686 98.4674 577.96 98.4961 578.23 98.4961C578.673 98.4961 579.007 98.4128 579.23 98.2461C579.454 98.0768 579.566 97.8424 579.566 97.543C579.566 97.3451 579.526 97.1836 579.445 97.0586C579.367 96.931 579.234 96.8138 579.047 96.707C578.862 96.6003 578.579 96.4792 578.199 96.3438C577.668 96.1536 577.288 95.9284 577.059 95.668C576.832 95.4076 576.719 95.0677 576.719 94.6484C576.719 94.2083 576.884 93.8581 577.215 93.5977C577.546 93.3372 577.983 93.207 578.527 93.207C579.095 93.207 579.617 93.3112 580.094 93.5195L579.887 94.0977C579.415 93.8997 578.957 93.8008 578.512 93.8008C578.16 93.8008 577.885 93.8763 577.688 94.0273C577.49 94.1784 577.391 94.388 577.391 94.6562C577.391 94.8542 577.427 95.0169 577.5 95.1445C577.573 95.2695 577.695 95.3854 577.867 95.4922C578.042 95.5964 578.307 95.7122 578.664 95.8398C579.263 96.0534 579.674 96.2826 579.898 96.5273C580.125 96.7721 580.238 97.0898 580.238 97.4805Z" fill="#05172A"/>
<path d="M583.164 99H582.5V93.8789H580.691V93.2891H584.973V93.8789H583.164V99Z" fill="#05172A"/>
<path d="M591.504 99L590.793 97.1836H588.504L587.801 99H587.129L589.387 93.2656H589.945L592.191 99H591.504ZM590.586 96.5859L589.922 94.8164C589.836 94.5924 589.747 94.3177 589.656 93.9922C589.599 94.2422 589.517 94.5169 589.41 94.8164L588.738 96.5859H590.586Z" fill="#05172A"/>
<path d="M596.598 94.9531C596.598 95.5312 596.4 95.9766 596.004 96.2891C595.611 96.599 595.047 96.7539 594.312 96.7539H593.641V99H592.977V93.2891H594.457C595.884 93.2891 596.598 93.8438 596.598 94.9531ZM593.641 96.1836H594.238C594.827 96.1836 595.253 96.0885 595.516 95.8984C595.779 95.7083 595.91 95.4036 595.91 94.9844C595.91 94.6068 595.786 94.3255 595.539 94.1406C595.292 93.9557 594.906 93.8633 594.383 93.8633H593.641V96.1836Z" fill="#05172A"/>
<path d="M597.797 99V93.2891H598.461V99H597.797Z" fill="#05172A"/>
<path d="M602.941 94.4258C602.941 94.6055 602.988 94.7773 603.082 94.9414C603.176 95.1029 603.336 95.2982 603.562 95.5273C603.898 95.332 604.132 95.1523 604.262 94.9883C604.395 94.8216 604.461 94.6302 604.461 94.4141C604.461 94.2135 604.393 94.0508 604.258 93.9258C604.125 93.7982 603.947 93.7344 603.723 93.7344C603.491 93.7344 603.302 93.7969 603.156 93.9219C603.013 94.0469 602.941 94.2148 602.941 94.4258ZM603.547 98.4961C604.174 98.4961 604.695 98.2956 605.109 97.8945L603.402 96.2383C603.113 96.4154 602.909 96.5625 602.789 96.6797C602.669 96.7943 602.581 96.918 602.523 97.0508C602.466 97.1836 602.438 97.3346 602.438 97.5039C602.438 97.8086 602.538 98.0508 602.738 98.2305C602.941 98.4076 603.211 98.4961 603.547 98.4961ZM601.766 97.5195C601.766 97.181 601.855 96.8815 602.035 96.6211C602.217 96.3607 602.543 96.0977 603.012 95.832C602.79 95.5846 602.639 95.3971 602.559 95.2695C602.48 95.1419 602.418 95.0091 602.371 94.8711C602.324 94.7331 602.301 94.5898 602.301 94.4414C602.301 94.0508 602.428 93.7461 602.684 93.5273C602.939 93.3086 603.294 93.1992 603.75 93.1992C604.172 93.1992 604.504 93.3086 604.746 93.5273C604.988 93.7435 605.109 94.0456 605.109 94.4336C605.109 94.7122 605.021 94.9701 604.844 95.207C604.667 95.4414 604.374 95.6797 603.965 95.9219L605.555 97.4492C605.701 97.2878 605.816 97.099 605.902 96.8828C605.991 96.6641 606.065 96.4258 606.125 96.168H606.781C606.604 96.9128 606.337 97.4779 605.98 97.8633L607.148 99H606.254L605.531 98.3047C605.224 98.5807 604.911 98.7786 604.594 98.8984C604.276 99.0182 603.922 99.0781 603.531 99.0781C602.971 99.0781 602.536 98.9401 602.227 98.6641C601.919 98.388 601.766 98.0065 601.766 97.5195Z" fill="#05172A"/>
<path d="M570.176 110H569.52L568.367 106.176C568.312 106.007 568.251 105.793 568.184 105.535C568.116 105.277 568.081 105.122 568.078 105.07C568.021 105.414 567.93 105.79 567.805 106.199L566.688 110H566.031L564.512 104.289H565.215L566.117 107.816C566.242 108.311 566.333 108.759 566.391 109.16C566.461 108.684 566.565 108.217 566.703 107.762L567.727 104.289H568.43L569.504 107.793C569.629 108.197 569.734 108.652 569.82 109.16C569.87 108.79 569.964 108.34 570.102 107.809L571 104.289H571.703L570.176 110Z" fill="#05172A"/>
<path d="M574.309 110.078C573.676 110.078 573.176 109.885 572.809 109.5C572.444 109.115 572.262 108.579 572.262 107.895C572.262 107.204 572.431 106.656 572.77 106.25C573.111 105.844 573.568 105.641 574.141 105.641C574.677 105.641 575.102 105.818 575.414 106.172C575.727 106.523 575.883 106.988 575.883 107.566V107.977H572.934C572.947 108.479 573.073 108.861 573.312 109.121C573.555 109.382 573.895 109.512 574.332 109.512C574.793 109.512 575.249 109.415 575.699 109.223V109.801C575.47 109.9 575.253 109.97 575.047 110.012C574.844 110.056 574.598 110.078 574.309 110.078ZM574.133 106.184C573.789 106.184 573.514 106.296 573.309 106.52C573.105 106.743 572.986 107.053 572.949 107.449H575.188C575.188 107.04 575.096 106.728 574.914 106.512C574.732 106.293 574.471 106.184 574.133 106.184Z" fill="#05172A"/>
<path d="M578.984 105.648C579.547 105.648 579.983 105.841 580.293 106.227C580.605 106.609 580.762 107.152 580.762 107.855C580.762 108.559 580.604 109.105 580.289 109.496C579.977 109.884 579.542 110.078 578.984 110.078C578.706 110.078 578.451 110.027 578.219 109.926C577.99 109.822 577.797 109.663 577.641 109.449H577.594L577.457 110H576.992V103.922H577.641V105.398C577.641 105.729 577.63 106.026 577.609 106.289H577.641C577.943 105.862 578.391 105.648 578.984 105.648ZM578.891 106.191C578.448 106.191 578.129 106.319 577.934 106.574C577.738 106.827 577.641 107.254 577.641 107.855C577.641 108.457 577.741 108.888 577.941 109.148C578.142 109.406 578.464 109.535 578.906 109.535C579.305 109.535 579.602 109.391 579.797 109.102C579.992 108.81 580.09 108.392 580.09 107.848C580.09 107.29 579.992 106.875 579.797 106.602C579.602 106.328 579.299 106.191 578.891 106.191Z" fill="#05172A"/>
<path d="M585.219 108.48C585.219 108.983 585.036 109.375 584.672 109.656C584.307 109.938 583.812 110.078 583.188 110.078C582.51 110.078 581.99 109.991 581.625 109.816V109.176C581.859 109.275 582.115 109.353 582.391 109.41C582.667 109.467 582.94 109.496 583.211 109.496C583.654 109.496 583.987 109.413 584.211 109.246C584.435 109.077 584.547 108.842 584.547 108.543C584.547 108.345 584.507 108.184 584.426 108.059C584.348 107.931 584.215 107.814 584.027 107.707C583.842 107.6 583.56 107.479 583.18 107.344C582.648 107.154 582.268 106.928 582.039 106.668C581.812 106.408 581.699 106.068 581.699 105.648C581.699 105.208 581.865 104.858 582.195 104.598C582.526 104.337 582.964 104.207 583.508 104.207C584.076 104.207 584.598 104.311 585.074 104.52L584.867 105.098C584.396 104.9 583.938 104.801 583.492 104.801C583.141 104.801 582.866 104.876 582.668 105.027C582.47 105.178 582.371 105.388 582.371 105.656C582.371 105.854 582.408 106.017 582.48 106.145C582.553 106.27 582.676 106.385 582.848 106.492C583.022 106.596 583.288 106.712 583.645 106.84C584.243 107.053 584.655 107.283 584.879 107.527C585.105 107.772 585.219 108.09 585.219 108.48Z" fill="#05172A"/>
<path d="M589.984 107.855C589.984 108.553 589.809 109.099 589.457 109.492C589.105 109.883 588.62 110.078 588 110.078C587.617 110.078 587.277 109.988 586.98 109.809C586.684 109.629 586.454 109.371 586.293 109.035C586.132 108.699 586.051 108.306 586.051 107.855C586.051 107.158 586.225 106.615 586.574 106.227C586.923 105.836 587.408 105.641 588.027 105.641C588.626 105.641 589.102 105.84 589.453 106.238C589.807 106.637 589.984 107.176 589.984 107.855ZM586.723 107.855C586.723 108.402 586.832 108.819 587.051 109.105C587.27 109.392 587.591 109.535 588.016 109.535C588.44 109.535 588.762 109.393 588.98 109.109C589.202 108.823 589.312 108.405 589.312 107.855C589.312 107.311 589.202 106.898 588.98 106.617C588.762 106.333 588.438 106.191 588.008 106.191C587.583 106.191 587.263 106.331 587.047 106.609C586.831 106.888 586.723 107.303 586.723 107.855Z" fill="#05172A"/>
<path d="M592.836 110.078C592.216 110.078 591.736 109.888 591.395 109.508C591.056 109.125 590.887 108.585 590.887 107.887C590.887 107.171 591.059 106.617 591.402 106.227C591.749 105.836 592.241 105.641 592.879 105.641C593.085 105.641 593.29 105.663 593.496 105.707C593.702 105.751 593.863 105.803 593.98 105.863L593.781 106.414C593.638 106.357 593.482 106.31 593.312 106.273C593.143 106.234 592.993 106.215 592.863 106.215C591.993 106.215 591.559 106.77 591.559 107.879C591.559 108.405 591.664 108.809 591.875 109.09C592.089 109.371 592.404 109.512 592.82 109.512C593.177 109.512 593.543 109.435 593.918 109.281V109.855C593.632 110.004 593.271 110.078 592.836 110.078Z" fill="#05172A"/>
<path d="M595.578 107.809C595.69 107.65 595.861 107.441 596.09 107.184L597.473 105.719H598.242L596.508 107.543L598.363 110H597.578L596.066 107.977L595.578 108.398V110H594.938V103.922H595.578V107.145C595.578 107.288 595.568 107.509 595.547 107.809H595.578Z" fill="#05172A"/>
<path d="M600.949 110.078C600.316 110.078 599.816 109.885 599.449 109.5C599.085 109.115 598.902 108.579 598.902 107.895C598.902 107.204 599.072 106.656 599.41 106.25C599.751 105.844 600.208 105.641 600.781 105.641C601.318 105.641 601.742 105.818 602.055 106.172C602.367 106.523 602.523 106.988 602.523 107.566V107.977H599.574C599.587 108.479 599.714 108.861 599.953 109.121C600.195 109.382 600.535 109.512 600.973 109.512C601.434 109.512 601.889 109.415 602.34 109.223V109.801C602.111 109.9 601.893 109.97 601.688 110.012C601.484 110.056 601.238 110.078 600.949 110.078ZM600.773 106.184C600.43 106.184 600.155 106.296 599.949 106.52C599.746 106.743 599.626 107.053 599.59 107.449H601.828C601.828 107.04 601.737 106.728 601.555 106.512C601.372 106.293 601.112 106.184 600.773 106.184Z" fill="#05172A"/>
<path d="M605.016 109.543C605.13 109.543 605.241 109.535 605.348 109.52C605.454 109.501 605.539 109.483 605.602 109.465V109.961C605.531 109.995 605.427 110.022 605.289 110.043C605.154 110.066 605.031 110.078 604.922 110.078C604.094 110.078 603.68 109.642 603.68 108.77V106.223H603.066V105.91L603.68 105.641L603.953 104.727H604.328V105.719H605.57V106.223H604.328V108.742C604.328 109 604.389 109.198 604.512 109.336C604.634 109.474 604.802 109.543 605.016 109.543Z" fill="#05172A"/>
<path d="M609.223 108.832C609.223 109.23 609.074 109.538 608.777 109.754C608.48 109.97 608.064 110.078 607.527 110.078C606.96 110.078 606.517 109.988 606.199 109.809V109.207C606.405 109.311 606.625 109.393 606.859 109.453C607.096 109.513 607.324 109.543 607.543 109.543C607.882 109.543 608.142 109.49 608.324 109.383C608.507 109.273 608.598 109.108 608.598 108.887C608.598 108.72 608.525 108.578 608.379 108.461C608.236 108.341 607.954 108.201 607.535 108.039C607.137 107.891 606.853 107.762 606.684 107.652C606.517 107.54 606.392 107.414 606.309 107.273C606.228 107.133 606.188 106.965 606.188 106.77C606.188 106.421 606.329 106.146 606.613 105.945C606.897 105.742 607.286 105.641 607.781 105.641C608.242 105.641 608.693 105.734 609.133 105.922L608.902 106.449C608.473 106.272 608.083 106.184 607.734 106.184C607.427 106.184 607.195 106.232 607.039 106.328C606.883 106.424 606.805 106.557 606.805 106.727C606.805 106.841 606.833 106.939 606.891 107.02C606.951 107.1 607.046 107.177 607.176 107.25C607.306 107.323 607.556 107.428 607.926 107.566C608.434 107.751 608.776 107.938 608.953 108.125C609.133 108.312 609.223 108.548 609.223 108.832Z" fill="#05172A"/>
<path fill-rule="evenodd" clip-rule="evenodd" d="M258.5 95L262 95L262 94L258.5 94C255.462 94 253 91.5376 253 88.5L253 64.5C253 60.9101 250.09 58 246.5 58L242 58L242 59L246.5 59C249.538 59 252 61.4624 252 64.5L252 88.5C252 92.0899 254.91 95 258.5 95Z" fill="#28232D"/>
<path d="M265.83 93.6808C266.398 94.0789 266.398 94.9212 265.83 95.3193L263.573 96.8986C262.911 97.3625 262 96.8884 262 96.0794L262 92.9207C262 92.1117 262.911 91.6375 263.573 92.1015L265.83 93.6808Z" fill="#28232D"/>
<path d="M238.17 59.3192C237.602 58.9211 237.602 58.0788 238.17 57.6807L240.427 56.1014C241.089 55.6375 242 56.1116 242 56.9206L242 60.0793C242 60.8883 241.089 61.3625 240.427 60.8985L238.17 59.3192Z" fill="#28232D"/>
<path fill-rule="evenodd" clip-rule="evenodd" d="M621 136C621 138.761 623.239 141 626 141L626 140C623.791 140 622 138.209 622 136L622 107.5C622 103.91 619.09 101 615.5 101L613 101L613 102L615.5 102C618.538 102 621 104.462 621 107.5L621 136Z" fill="#28232D"/>
<path d="M629.83 139.681C630.398 140.079 630.398 140.921 629.83 141.319L627.573 142.899C626.911 143.363 626 142.888 626 142.079L626 138.921C626 138.112 626.911 137.638 627.573 138.101L629.83 139.681Z" fill="#28232D"/>
<path fill-rule="evenodd" clip-rule="evenodd" d="M258.5 108L262 108L262 109L258.5 109C255.462 109 253 111.462 253 114.5L253 138.5C253 142.09 250.09 145 246.5 145L242 145L242 144L246.5 144C249.538 144 252 141.538 252 138.5L252 114.5C252 110.91 254.91 108 258.5 108Z" fill="#28232D"/>
<path d="M265.83 109.319C266.398 108.921 266.398 108.079 265.83 107.681L263.573 106.101C262.911 105.637 262 106.112 262 106.921L262 110.079C262 110.888 262.911 111.362 263.573 110.899L265.83 109.319Z" fill="#28232D"/>
<path d="M238.17 143.681C237.602 144.079 237.602 144.921 238.17 145.319L240.427 146.899C241.089 147.363 242 146.888 242 146.079L242 142.921C242 142.112 241.089 141.638 240.427 142.101L238.17 143.681Z" fill="#28232D"/>
<path fill-rule="evenodd" clip-rule="evenodd" d="M621 67C621 64.2386 623.239 62 626 62L626 63C623.791 63 622 64.7909 622 67L622 95.5C622 99.0899 619.09 102 615.5 102L613 102L613 101L615.5 101C618.538 101 621 98.5376 621 95.5L621 67Z" fill="#28232D"/>
<path d="M629.83 63.3192C630.398 62.9211 630.398 62.0788 629.83 61.6807L627.573 60.1014C626.911 59.6375 626 60.1116 626 60.9206L626 64.0793C626 64.8883 626.911 65.3625 627.573 64.8985L629.83 63.3192Z" fill="#28232D"/>
<path fill-rule="evenodd" clip-rule="evenodd" d="M114 101L108 101L108 102L114 102L114 101ZM139 101L144 101L144 102L139 102L139 101Z" fill="#28232D"/>
<path d="M147.83 102.319C148.398 101.921 148.398 101.079 147.83 100.681L145.573 99.1014C144.911 98.6375 144 99.1116 144 99.9206L144 103.079C144 103.888 144.911 104.362 145.573 103.899L147.83 102.319Z" fill="#28232D"/>
<path d="M104.17 100.681C103.602 101.079 103.602 101.921 104.17 102.319L106.427 103.899C107.089 104.363 108 103.888 108 103.079L108 99.9207C108 99.1117 107.089 98.6375 106.427 99.1015L104.17 100.681Z" fill="#28232D"/>
<path d="M118.652 104L116.715 98.9375H116.684C116.72 99.3385 116.738 99.8151 116.738 100.367V104H116.125V98.2891H117.125L118.934 103H118.965L120.789 98.2891H121.781V104H121.117V100.32C121.117 99.8984 121.135 99.4401 121.172 98.9453H121.141L119.188 104H118.652Z" fill="#05172A"/>
<path d="M128.309 101.137C128.309 101.868 128.161 102.477 127.867 102.961C127.573 103.445 127.158 103.773 126.621 103.945L127.98 105.359H127.016L125.902 104.07L125.688 104.078C124.846 104.078 124.197 103.822 123.738 103.309C123.283 102.793 123.055 102.066 123.055 101.129C123.055 100.199 123.284 99.4792 123.742 98.9688C124.201 98.4557 124.852 98.1992 125.695 98.1992C126.516 98.1992 127.156 98.4596 127.617 98.9805C128.078 99.5013 128.309 100.22 128.309 101.137ZM123.758 101.137C123.758 101.91 123.922 102.497 124.25 102.898C124.581 103.297 125.06 103.496 125.688 103.496C126.32 103.496 126.798 103.297 127.121 102.898C127.444 102.5 127.605 101.913 127.605 101.137C127.605 100.368 127.444 99.7865 127.121 99.3906C126.801 98.9922 126.326 98.793 125.695 98.793C125.062 98.793 124.581 98.9935 124.25 99.3945C123.922 99.793 123.758 100.374 123.758 101.137Z" fill="#05172A"/>
<path d="M131.344 104H130.68V98.8789H128.871V98.2891H133.152V98.8789H131.344V104Z" fill="#05172A"/>
<path d="M135.773 104H135.109V98.8789H133.301V98.2891H137.582V98.8789H135.773V104Z" fill="#05172A"/>
<path fill-rule="evenodd" clip-rule="evenodd" d="M108 95L119.1 95C122.69 95 125.6 92.0899 125.6 88.5L125.6 83L124.6 83L124.6 88.5C124.6 91.5376 122.138 94 119.1 94L108 94L108 95ZM124.6 67L124.6 64.5C124.6 60.9101 127.51 58 131.1 58L144 58L144 59L131.1 59C128.062 59 125.6 61.4624 125.6 64.5L125.6 67L124.6 67Z" fill="#28232D"/>
<path d="M104.17 93.6808C103.602 94.0789 103.602 94.9212 104.17 95.3193L106.427 96.8986C107.089 97.3625 108 96.8884 108 96.0794L108 92.9207C108 92.1117 107.089 91.6375 106.427 92.1015L104.17 93.6808Z" fill="#28232D"/>
<path d="M147.83 59.3192C148.398 58.9211 148.398 58.0788 147.83 57.6807L145.573 56.1014C144.911 55.6375 144 56.1116 144 56.9206L144 60.0793C144 60.8883 144.911 61.3625 145.573 60.8985L147.83 59.3192Z" fill="#28232D"/>
<path d="M122.328 78H121.664V75.3125H118.656V78H117.992V72.2891H118.656V74.7188H121.664V72.2891H122.328V78Z" fill="#05172A"/>
<path d="M125.656 78H124.992V72.8789H123.184V72.2891H127.465V72.8789H125.656V78Z" fill="#05172A"/>
<path d="M130.086 78H129.422V72.8789H127.613V72.2891H131.895V72.8789H130.086V78Z" fill="#05172A"/>
<path d="M136.379 73.9531C136.379 74.5312 136.181 74.9766 135.785 75.2891C135.392 75.599 134.828 75.7539 134.094 75.7539H133.422V78H132.758V72.2891H134.238C135.665 72.2891 136.379 72.8438 136.379 73.9531ZM133.422 75.1836H134.02C134.608 75.1836 135.034 75.0885 135.297 74.8984C135.56 74.7083 135.691 74.4036 135.691 73.9844C135.691 73.6068 135.568 73.3255 135.32 73.1406C135.073 72.9557 134.688 72.8633 134.164 72.8633H133.422V75.1836Z" fill="#05172A"/>
<path fill-rule="evenodd" clip-rule="evenodd" d="M108 108L119.1 108C122.69 108 125.6 110.91 125.6 114.5L125.6 118L124.6 118L124.6 114.5C124.6 111.462 122.138 109 119.1 109L108 109L108 108ZM124.6 134L124.6 138.5C124.6 142.09 127.51 145 131.1 145L144 145L144 144L131.1 144C128.062 144 125.6 141.538 125.6 138.5L125.6 134L124.6 134Z" fill="#28232D"/>
<path d="M104.17 109.319C103.602 108.921 103.602 108.079 104.17 107.681L106.427 106.101C107.089 105.637 108 106.112 108 106.921L108 110.079C108 110.888 107.089 111.362 106.427 110.899L104.17 109.319Z" fill="#28232D"/>
<path d="M147.83 143.681C148.398 144.079 148.398 144.921 147.83 145.319L145.573 146.899C144.911 147.363 144 146.888 144 146.079L144 142.921C144 142.112 144.911 141.638 145.573 142.101L147.83 143.681Z" fill="#28232D"/>
<path d="M119.348 123.801C118.72 123.801 118.224 124.01 117.859 124.43C117.497 124.846 117.316 125.418 117.316 126.145C117.316 126.892 117.491 127.47 117.84 127.879C118.191 128.285 118.691 128.488 119.34 128.488C119.738 128.488 120.193 128.417 120.703 128.273V128.855C120.307 129.004 119.819 129.078 119.238 129.078C118.397 129.078 117.747 128.823 117.289 128.312C116.833 127.802 116.605 127.077 116.605 126.137C116.605 125.548 116.715 125.033 116.934 124.59C117.155 124.147 117.473 123.806 117.887 123.566C118.303 123.327 118.793 123.207 119.355 123.207C119.954 123.207 120.478 123.316 120.926 123.535L120.645 124.105C120.212 123.902 119.78 123.801 119.348 123.801Z" fill="#05172A"/>
<path d="M125.547 126.855C125.547 127.553 125.371 128.099 125.02 128.492C124.668 128.883 124.182 129.078 123.562 129.078C123.18 129.078 122.84 128.988 122.543 128.809C122.246 128.629 122.017 128.371 121.855 128.035C121.694 127.699 121.613 127.306 121.613 126.855C121.613 126.158 121.788 125.615 122.137 125.227C122.486 124.836 122.97 124.641 123.59 124.641C124.189 124.641 124.664 124.84 125.016 125.238C125.37 125.637 125.547 126.176 125.547 126.855ZM122.285 126.855C122.285 127.402 122.395 127.819 122.613 128.105C122.832 128.392 123.154 128.535 123.578 128.535C124.003 128.535 124.324 128.393 124.543 128.109C124.764 127.823 124.875 127.405 124.875 126.855C124.875 126.311 124.764 125.898 124.543 125.617C124.324 125.333 124 125.191 123.57 125.191C123.146 125.191 122.826 125.331 122.609 125.609C122.393 125.888 122.285 126.303 122.285 126.855Z" fill="#05172A"/>
<path d="M130.375 129L129.664 127.184H127.375L126.672 129H126L128.258 123.266H128.816L131.062 129H130.375ZM129.457 126.586L128.793 124.816C128.707 124.592 128.618 124.318 128.527 123.992C128.47 124.242 128.388 124.517 128.281 124.816L127.609 126.586H129.457Z" fill="#05172A"/>
<path d="M135.469 124.953C135.469 125.531 135.271 125.977 134.875 126.289C134.482 126.599 133.918 126.754 133.184 126.754H132.512V129H131.848V123.289H133.328C134.755 123.289 135.469 123.844 135.469 124.953ZM132.512 126.184H133.109C133.698 126.184 134.124 126.089 134.387 125.898C134.65 125.708 134.781 125.404 134.781 124.984C134.781 124.607 134.658 124.326 134.41 124.141C134.163 123.956 133.777 123.863 133.254 123.863H132.512V126.184Z" fill="#05172A"/>
</svg>
