<?xml version="1.0" encoding="utf-8"?>
<!-- Generator: Adobe Illustrator 21.1.0, SVG Export Plug-In . SVG Version: 6.00 Build 0)  -->
<svg version="1.1" id="Layer_1" xmlns="http://www.w3.org/2000/svg" xmlns:xlink="http://www.w3.org/1999/xlink" x="0px" y="0px"
	 viewBox="0 0 72 145.8" style="enable-background:new 0 0 72 145.8;" xml:space="preserve">
<style type="text/css">
	.st0{fill:#FFDE17;}
	.st1{fill:#00AEEF;}
</style>
<g>
	<g>
		<path class="st0" d="M23.8,0h-0.3C13.5,0,3.2,34.3,0.7,65c-2.4,29.6,1.6,53.1,10.7,63c2.2,2.4,4.8,4.1,7.5,4.9
			c-2.1-3.6-3.5-7.8-4.1-12.3c-0.2-1.6-0.3-3.3-0.3-5c0.1-10.5,5.2-18.7,10.6-27.4c5-8,10.6-16.9,13.6-29.5c0.1-0.6,0.3-1.1,0.4-1.7
			l3.5-16.4l0.2-1C39,13.3,32.5,0,23.8,0z"/>
		<polygon class="st1" points="63.6,115.6 63.6,115.6 63.6,115.6 		"/>
	</g>
	<path class="st1" d="M42.7,70.3L42.7,70.3L42.7,70.3z"/>
	<path class="st1" d="M32.9,141.7"/>
	<path class="st1" d="M42.3,62.2C39.6,74.9,34,83.8,29.2,91.5c-5.1,8.1-9.9,15.8-9.9,25.6c-0.1,8.6,2.7,15.9,7.9,21.2
		c4.8,4.8,11.3,7.5,18.5,7.5c7.1,0,13.7-2.7,18.5-7.5c5.2-5.3,7.9-12.6,7.9-21.2v0c-0.1-9.9-4.9-17.5-9.9-25.6
		c-4.9-7.8-10.4-16.6-13.1-29.3l-3.3-15.3L42.3,62.2z"/>
</g>
</svg>
