<svg width="175" height="32" viewBox="0 0 175 32" fill="none" xmlns="http://www.w3.org/2000/svg">
    <g clip-path="url(#clip0_15338_37751)">
        <path d="M72.5614 16.1525C72.9424 15.7715 73.0566 15.6953 73.6662 15.3144C74.0471 15.0858 78.0852 13.1049 78.0852 13.1049C78.0852 13.1049 80.1043 12.7239 79.99 16.2287C79.8757 19.7715 74.0852 19.3144 74.0852 19.3144C74.0852 19.3144 70.2757 18.3239 72.5614 16.1525Z" fill="white"/>
        <path d="M48.2956 12.8763H43.4575C43.4194 12.8382 43.3813 12.8001 43.3432 12.8001C42.3908 11.0858 40.6765 10.7429 38.886 11.2382C37.0956 11.7334 36.2194 13.0667 35.9146 14.8191C35.7241 16.0382 35.8003 17.2191 36.3337 18.3239C37.0956 20.0001 38.6956 20.8763 40.5622 20.762C42.0098 20.6477 43.1146 20.0001 43.686 18.6286C43.7622 18.4763 43.7622 18.3239 43.8384 18.0953H39.1908V14.9334H48.2194C48.2575 14.9715 48.2956 14.9715 48.2956 15.0096C49.2098 20.5715 44.9432 24.2667 40.9813 24.5715C37.0194 24.8763 33.4384 22.7048 32.1813 19.0477C30.3146 13.4858 33.4003 8.41912 38.3527 7.42865C41.7051 6.74293 44.6765 7.58103 46.9622 10.3239C47.5718 11.0096 47.9908 11.8858 48.2956 12.8763Z" fill="#00529F"/>
        <path d="M16.8283 24.4192H12.4092C12.1045 23.5049 11.7997 22.5906 11.495 21.6383H5.4759C5.17114 22.5526 4.86638 23.4668 4.56162 24.4192H0.180664C2.12352 18.743 4.06638 13.0668 6.00924 7.42874H11.0378C12.9426 13.0668 14.8854 18.7049 16.8283 24.4192ZM8.56162 12.6097H8.44733C7.83781 14.5145 7.19019 16.4192 6.58066 18.3621H10.4664C9.78066 16.4192 9.17114 14.5145 8.56162 12.6097Z" fill="#00529F"/>
        <path d="M17.6279 19.3144H21.9327C21.9708 19.4287 22.0089 19.543 22.047 19.6573C22.3899 21.1049 23.6851 21.7144 25.0184 21.1049C25.6279 20.8382 25.9327 20.3811 25.9708 19.7335C26.0089 19.0859 25.7422 18.5906 25.1708 18.2097C24.4851 17.7525 23.6851 17.5621 22.9232 17.2954C21.8565 16.9144 20.7518 16.6097 19.7232 16.1144C18.1232 15.3525 17.5137 13.9049 17.5899 12.1906C17.7041 9.82872 19.0375 8.19062 21.4375 7.50491C23.3803 6.93348 25.3613 7.00967 27.266 7.80967C29.0946 8.60967 30.1994 10.4001 30.0089 12.343H25.666C25.4756 11.9621 25.2851 11.543 25.0565 11.2001C24.4851 10.3621 23.0375 10.2478 22.3137 10.9716C21.7041 11.5811 21.7803 12.8001 22.466 13.3716C22.8851 13.7144 23.3803 13.943 23.8756 14.1335C24.8279 14.4763 25.8184 14.6668 26.7708 15.0097C27.266 15.1621 27.7232 15.3906 28.1803 15.6192C29.7803 16.4573 30.3899 17.9049 30.2756 19.6192C30.1613 21.7525 28.9803 23.2001 27.1137 24.0001C24.8279 24.9906 22.466 24.9144 20.1803 23.8097C18.466 22.9716 17.6279 21.4859 17.5518 19.5811C17.5899 19.5049 17.5899 19.4287 17.6279 19.3144Z" fill="#00529F"/>
        <path d="M72.5622 16.1526C72.486 16.3431 72.4098 16.5336 72.3336 16.6859C71.9527 17.7526 72.3717 18.5907 73.4384 18.8574C74.5051 19.124 75.5717 19.0859 76.5622 18.6288C77.8574 18.0193 78.6955 16.9526 79.267 15.6574C79.3432 15.4669 79.5336 15.3145 79.686 15.124C79.7241 15.124 79.7622 15.1621 79.8384 15.1621C79.6479 14.705 79.4574 14.2859 79.267 13.7526C78.886 14.0955 78.5432 14.4002 78.2003 14.7431C78.2384 14.7431 78.2765 14.7812 78.3146 14.7812C78.2765 15.0098 78.3146 15.2383 78.2384 15.4288C77.5527 17.0288 76.4479 18.1336 74.6193 18.324C74.3527 18.3621 74.0479 18.324 73.7812 18.2859C72.7146 18.0955 72.2955 17.0669 72.9812 16.1145C72.9812 16.1526 73.0193 16.1526 73.0193 16.1907C73.1336 17.4479 73.9336 17.9812 75.1527 17.524C75.8003 17.2955 76.3336 16.8383 76.8289 16.3431C76.9431 16.2288 77.1336 16.1145 77.3241 15.9621C77.2479 15.6193 77.1717 15.2383 77.0574 14.7431C76.6765 15.0098 76.3336 15.2002 75.9908 15.4669C76.2574 15.7717 76.067 16.0002 75.9146 16.2669C75.6098 16.6859 75.2289 16.9526 74.6955 17.0288C73.9336 17.1431 73.4765 16.7621 73.4765 16.0002C73.4384 14.4764 74.5431 12.9907 76.067 12.5336C77.5146 12.1145 79.0003 12.6098 79.9527 13.7907C80.8289 14.9336 80.9432 16.6098 80.2193 17.8669C79.4574 19.1621 78.0479 19.8479 76.5622 19.6193C76.3336 19.5812 76.067 19.6193 75.8003 19.6955C74.8479 19.8859 73.8955 19.8479 73.0193 19.3145C71.8003 18.5907 71.6479 17.2955 72.6003 16.305C72.4479 16.2288 72.486 16.2288 72.5622 16.1526Z" fill="#5C92CD"/>
        <path d="M95.7994 23.3144H94.3899V16.8382H86.9232V23.3144H85.4756V9.18109H86.8851V15.543H94.3518V9.18109H95.7994V23.3144Z" fill="#4D4D4F"/>
        <path d="M83.0756 12.8762H81.3613C81.3232 12.8381 81.247 12.7619 81.2089 12.7238C79.9899 10.781 78.1994 10.1714 76.028 10.3238C73.2851 10.5524 71.1137 12.8 71.0756 15.9619C71.0375 17.4857 71.3423 18.9334 72.2947 20.1524C74.1232 22.4762 77.8185 22.9333 80.1042 21.0667C80.5232 20.7238 80.828 20.3048 81.1327 19.8857C81.2851 19.6572 81.4375 19.5429 81.7042 19.581C82.1232 19.581 82.5423 19.581 83.0375 19.581C82.9232 19.8095 82.8851 19.9619 82.8089 20.1143C82.047 21.4857 80.9423 22.4762 79.4947 22.9714C77.3994 23.7333 75.2661 23.7334 73.247 22.6667C70.5804 21.2572 69.3232 18.6667 69.5518 15.6953C69.7423 12.8381 71.1518 10.7048 73.7804 9.60002C76.4851 8.49526 79.1137 8.80002 81.4375 10.6667C82.1613 11.2 82.6566 11.9619 83.0756 12.8762Z" fill="#4D4D4F"/>
        <path d="M68.2576 22.1334V23.2763H61.1338V9.14293H68.2576V10.2858H62.6195V15.581H67.6481V16.762H62.6195V22.1334H68.2576Z" fill="#4D4D4F"/>
        <path d="M55.7239 23.3144H54.2763V10.3239H50.6191V9.14293H59.343V10.3239H55.7239V23.3144Z" fill="#4D4D4F"/>
        <path d="M77.5144 17.7525C79.1906 17.7525 80.6001 16.5715 80.6001 15.162C80.6001 13.7525 79.1906 12.5715 77.5144 12.5715C75.8382 12.5715 74.4287 13.7525 74.4287 15.162C74.4287 16.5715 75.8001 17.7525 77.5144 17.7525Z" fill="#5E9CD4"/>
        <path d="M77.8189 16.8765C78.9998 16.8765 79.9903 15.9622 79.9903 14.8574C79.9903 13.7527 79.0379 12.8384 77.8189 12.8384C76.6379 12.8384 75.6475 13.7527 75.6475 14.8574C75.6475 15.9622 76.6379 16.8765 77.8189 16.8765Z" fill="#4AA7DD"/>
        <path d="M127.076 4.72365H125.857V7.65698H126.353V6.66651H127.076C127.381 6.66651 127.648 6.59032 127.8 6.36174C128.029 6.20936 128.105 5.9427 128.105 5.63793C128.105 5.33317 128.029 5.1427 127.8 4.99032C127.648 4.79984 127.381 4.72365 127.076 4.72365ZM127.076 6.24746H126.353V5.18079H127.076C127.229 5.18079 127.381 5.25698 127.496 5.33317C127.572 5.48555 127.648 5.56174 127.648 5.67603C127.648 5.9046 127.572 5.98079 127.496 6.09508C127.381 6.17127 127.229 6.24746 127.076 6.24746Z" fill="#4C4D4F"/>
        <path d="M130.544 7.69514H131.039L129.896 4.76181H129.324L128.182 7.69514H128.677L128.982 6.89514H130.277L130.544 7.69514ZM129.096 6.4761L129.591 5.25705L130.01 6.4761H129.096Z" fill="#4C4D4F"/>
        <path d="M133.325 7.69508H133.896L133.02 6.55222C133.248 6.55222 133.439 6.39984 133.591 6.24746C133.667 6.09508 133.744 5.9046 133.744 5.67603C133.744 5.37127 133.667 5.18079 133.515 5.02841C133.287 4.79984 133.096 4.72365 132.791 4.72365H131.61V7.65698H132.029V6.51412H132.525L133.325 7.69508ZM132.029 5.18079H132.753C132.982 5.18079 133.096 5.25698 133.172 5.33317C133.248 5.40936 133.325 5.56174 133.325 5.67603C133.325 5.82841 133.248 5.98079 133.172 6.01889C133.096 6.09508 132.944 6.17127 132.753 6.17127H132.029V5.18079Z" fill="#4C4D4F"/>
        <path d="M136.791 4.72365H134.543V5.18079H135.419V7.69508H135.914V5.18079H136.791V4.72365Z" fill="#4C4D4F"/>
        <path d="M140.144 4.64752C139.839 4.64752 139.572 4.72371 139.344 4.87609C139.115 5.02847 139.001 5.18086 138.849 5.44752C138.696 5.67609 138.62 5.86657 138.62 6.17133C138.62 6.47609 138.696 6.74276 138.849 6.97133C139.001 7.1999 139.153 7.39038 139.344 7.46657C139.572 7.61895 139.839 7.69514 140.144 7.69514C140.449 7.69514 140.715 7.61895 140.944 7.46657C141.173 7.39038 141.287 7.16181 141.439 6.97133C141.592 6.74276 141.668 6.47609 141.668 6.17133C141.668 5.86657 141.592 5.67609 141.439 5.44752C141.287 5.14276 141.134 5.02847 140.944 4.87609C140.753 4.72371 140.449 4.64752 140.144 4.64752ZM140.144 5.18086C140.372 5.18086 140.487 5.18086 140.639 5.33324C140.868 5.40943 140.944 5.56181 140.982 5.67609C141.134 5.82847 141.134 5.98086 141.134 6.17133C141.134 6.3999 141.134 6.59038 140.982 6.74276C140.906 6.89514 140.83 7.04752 140.639 7.08562C140.487 7.16181 140.334 7.238 140.144 7.238C139.915 7.238 139.801 7.16181 139.649 7.08562C139.42 7.00943 139.344 6.85705 139.306 6.74276C139.153 6.59038 139.153 6.3999 139.153 6.17133C139.153 5.94276 139.153 5.82847 139.306 5.67609C139.382 5.52371 139.458 5.37133 139.649 5.33324C139.801 5.18086 139.953 5.18086 140.144 5.18086Z" fill="#4C4D4F"/>
        <path d="M144.257 5.18079V4.72365H142.314V7.69508H142.81V6.39984H144.181V5.9427H142.81V5.18079H144.257Z" fill="#4C4D4F"/>
        <path d="M148.295 4.72365H146.048V5.18079H146.924V7.69508H147.419V5.18079H148.295V4.72365Z" fill="#4C4D4F"/>
        <path d="M150.886 4.72365V5.9427H149.362V4.72365H148.867V7.69508H149.362V6.39984H150.886V7.69508H151.305V4.72365H150.886Z" fill="#4C4D4F"/>
        <path d="M154.048 5.18079V4.72365H152.144V7.69508H154.048V7.16174H152.601V6.39984H153.972V5.9427H152.601V5.18079H154.048Z" fill="#4C4D4F"/>
        <path d="M131.267 17.8665H132.486L129.819 11.1237H128.448L125.857 17.8665H127L127.648 15.9998H130.581L131.267 17.8665ZM128.105 15.0094L129.172 12.1903L130.162 15.0094H128.105Z" fill="#4C4D4F"/>
        <path d="M137.21 10.3999V13.4857C136.981 13.1428 136.791 12.9142 136.41 12.6857C136.105 12.5333 135.762 12.3809 135.343 12.3809C134.848 12.3809 134.467 12.5333 134.124 12.7238C133.781 13.0285 133.477 13.2952 133.248 13.7142C133.02 14.1333 132.905 14.5904 132.905 15.1619C132.905 15.6571 133.058 16.1523 133.248 16.6095C133.401 16.9523 133.667 17.3333 134.124 17.5619C134.467 17.7904 134.848 17.9047 135.343 17.9047C135.762 17.9047 136.143 17.8285 136.41 17.5999C136.753 17.4476 136.981 17.1809 137.21 16.8761V17.8285H138.277V10.3999H137.21ZM135.572 16.9523C135.153 16.9523 134.772 16.7238 134.429 16.4571C134.124 16.1523 134.01 15.7333 134.01 15.238C134.01 14.7428 134.162 14.2857 134.429 13.9428C134.772 13.638 135.153 13.5238 135.572 13.5238C136.067 13.5238 136.448 13.6761 136.715 13.9428C137.058 14.2857 137.21 14.7428 137.21 15.238C137.21 15.7333 137.058 16.1904 136.715 16.4571C136.41 16.7238 136.067 16.9523 135.572 16.9523Z" fill="#4C4D4F"/>
        <path d="M143.115 12.5713L141.744 16.7237L140.296 12.5713H139.153L141.02 17.8665H142.391L144.258 12.5713H143.115Z" fill="#4C4D4F"/>
        <path d="M148.943 12.5712V13.5236C148.715 13.1808 148.524 12.9522 148.22 12.7236C147.877 12.5712 147.496 12.4189 147.077 12.4189C146.658 12.4189 146.201 12.5712 145.858 12.7617C145.515 13.0665 145.21 13.3331 144.982 13.7522C144.753 14.1712 144.677 14.6284 144.639 15.1998C144.715 15.695 144.791 16.1903 144.982 16.6474C145.21 16.9903 145.477 17.3712 145.858 17.5998C146.201 17.8284 146.658 17.9427 147.077 17.9427C147.496 17.9427 147.877 17.8665 148.22 17.6379C148.524 17.4855 148.715 17.2189 148.943 16.9141V17.8665H150.01V12.5712H148.943ZM147.343 16.9522C146.848 16.9522 146.467 16.7236 146.201 16.4569C145.896 16.1522 145.782 15.7331 145.782 15.2379C145.782 14.7427 145.934 14.2855 146.201 13.9427C146.505 13.6379 146.848 13.5236 147.343 13.5236C147.762 13.5236 148.22 13.676 148.486 13.9427C148.791 14.2855 148.905 14.7427 148.905 15.2379C148.905 15.7331 148.753 16.1903 148.486 16.4569C148.22 16.7236 147.762 16.9522 147.343 16.9522Z" fill="#4C4D4F"/>
        <path d="M154.163 12.4189C153.744 12.4189 153.363 12.5712 153.096 12.7236C152.791 12.876 152.601 13.1427 152.372 13.4474V12.5712H151.306V17.9046H152.372V15.0855C152.372 14.5903 152.525 14.2093 152.715 13.9427C153.02 13.6379 153.287 13.5236 153.782 13.5236C154.201 13.5236 154.506 13.5998 154.658 13.8284C154.887 14.0569 154.963 14.3236 154.963 14.7808V17.9427H156.029V14.5522C156.029 13.9046 155.877 13.4093 155.534 13.0284C155.268 12.6474 154.734 12.4189 154.163 12.4189Z" fill="#4C4D4F"/>
        <path d="M159.839 17.9427C160.258 17.9427 160.639 17.8665 160.981 17.7142C161.324 17.5618 161.629 17.2951 161.934 16.9903C162.239 16.6856 162.353 16.3427 162.429 15.9237H161.286C161.21 16.2284 160.981 16.4951 160.791 16.6475C160.486 16.8761 160.22 16.9523 159.839 16.9523C159.343 16.9523 158.962 16.7999 158.62 16.457C158.315 16.1523 158.2 15.7332 158.2 15.238C158.2 14.7427 158.353 14.2856 158.62 13.9427C158.924 13.638 159.343 13.4475 159.839 13.4475C160.181 13.4475 160.486 13.5999 160.791 13.7523C161.02 13.9808 161.21 14.1713 161.286 14.5523H162.429C162.353 14.1332 162.2 13.7523 161.934 13.4094C161.705 13.1046 161.362 12.9142 160.981 12.7618C160.639 12.5332 160.258 12.457 159.839 12.457C159.343 12.457 158.848 12.6094 158.391 12.7999C158.048 13.1046 157.667 13.3713 157.439 13.7903C157.21 14.2094 157.096 14.6665 157.096 15.238C157.096 15.7332 157.248 16.2284 157.439 16.6094C157.667 17.0284 158.01 17.4094 158.391 17.5999C158.848 17.8284 159.343 17.9427 159.839 17.9427Z" fill="#4C4D4F"/>
        <path d="M166.048 12.4189C165.476 12.4189 165.057 12.5712 164.6 12.7617C164.181 13.0665 163.876 13.3331 163.648 13.7522C163.343 14.1712 163.305 14.6284 163.305 15.1998C163.305 15.695 163.381 16.1903 163.648 16.6474C163.876 16.9903 164.143 17.3712 164.6 17.5998C165.019 17.8284 165.476 17.9427 166.048 17.9427C166.619 17.9427 167.114 17.7903 167.571 17.5236C168.067 17.2189 168.371 16.7998 168.562 16.2284H167.495C167.343 16.5331 167.152 16.6474 166.924 16.7998C166.619 16.9522 166.428 17.0284 166.048 17.0284C165.628 17.0284 165.248 16.876 164.905 16.6093C164.6 16.3808 164.486 16.0379 164.409 15.5427H168.714C168.714 14.9712 168.638 14.476 168.409 13.9808C168.181 13.5617 167.914 13.1808 167.457 12.9141C167.038 12.5712 166.619 12.4189 166.048 12.4189ZM166.048 13.3712C166.39 13.4474 166.771 13.5236 167 13.7141C167.305 13.9427 167.419 14.2093 167.571 14.6665H164.486C164.562 14.2474 164.79 13.9427 164.981 13.7141C165.248 13.4855 165.59 13.4093 166.048 13.3712Z" fill="#4C4D4F"/>
        <path d="M173.934 10.3999V13.4857C173.705 13.1428 173.438 12.9142 173.134 12.6857C172.829 12.5333 172.486 12.3809 172.067 12.3809C171.572 12.3809 171.191 12.5333 170.772 12.7238C170.429 13.0285 170.124 13.2952 169.972 13.7142C169.743 14.1333 169.629 14.5904 169.629 15.1619C169.629 15.6571 169.781 16.1523 169.934 16.6095C170.162 16.9523 170.429 17.3333 170.81 17.5619C171.229 17.7904 171.61 17.9047 172.105 17.9047C172.524 17.9047 172.905 17.8285 173.172 17.5999C173.477 17.4476 173.743 17.1809 173.972 16.8761V17.8285H175.038V10.3999H173.934ZM172.296 16.9523C171.877 16.9523 171.419 16.7238 171.153 16.4571C170.848 16.1523 170.734 15.7333 170.734 15.238C170.734 14.7428 170.886 14.2857 171.153 13.9428C171.457 13.638 171.877 13.5238 172.296 13.5238C172.791 13.5238 173.172 13.6761 173.438 13.9428C173.743 14.2857 173.934 14.7428 173.934 15.238C173.934 15.7333 173.705 16.1904 173.438 16.4571C173.134 16.7238 172.791 16.9523 172.296 16.9523Z" fill="#4C4D4F"/>
        <path d="M129.173 22.8951V23.7713H131.687C131.611 24.3427 131.344 24.7618 130.963 25.0665C130.544 25.4094 130.087 25.5618 129.515 25.5618C129.02 25.5618 128.563 25.4094 128.22 25.2189C127.877 24.9903 127.573 24.7237 127.42 24.3427C127.192 23.9999 127.116 23.5427 127.116 23.1237C127.116 22.3999 127.344 21.7522 127.763 21.3332C128.182 20.9141 128.754 20.6856 129.477 20.6094C129.896 20.6856 130.354 20.7618 130.696 20.9522C131.039 21.1808 131.344 21.4475 131.496 21.9046H132.715C132.487 21.1808 132.068 20.6856 131.496 20.2665C130.925 19.8475 130.277 19.6189 129.477 19.6189C128.83 19.6189 128.182 19.7713 127.687 20.038C127.192 20.3808 126.735 20.7618 126.468 21.3332C126.163 21.8284 126.049 22.3999 126.049 23.1237C126.049 23.7713 126.201 24.3427 126.468 24.9142C126.773 25.4094 127.192 25.8665 127.687 26.1332C128.182 26.438 128.754 26.5522 129.401 26.5522C129.973 26.5522 130.468 26.3999 130.925 26.1332C131.344 25.9046 131.649 25.5618 131.801 25.1427V26.438H132.754V22.9332H129.173V22.8951Z" fill="#4C4D4F"/>
        <path d="M136.981 21.0284C136.562 21.0284 136.181 21.1046 135.914 21.3332C135.61 21.5617 135.419 21.8284 135.267 22.2093V21.2189H134.2V26.476H135.267V24.1141C135.267 23.4665 135.419 22.9713 135.762 22.6665C136.067 22.3617 136.486 22.2474 136.981 22.2474C137.134 22.2474 137.21 22.2474 137.324 22.2474V21.1046C137.286 21.0284 137.134 21.0284 136.981 21.0284Z" fill="#4C4D4F"/>
        <path d="M140.676 21.0284C140.181 21.0284 139.724 21.1808 139.305 21.3713C138.886 21.5998 138.581 21.9427 138.315 22.3617C138.086 22.7046 137.972 23.2379 137.972 23.7332C137.972 24.3046 138.124 24.7236 138.315 25.1808C138.543 25.5998 138.886 25.9808 139.305 26.1713C139.648 26.3998 140.181 26.5141 140.676 26.5141C141.172 26.5141 141.667 26.3617 142.048 26.1713C142.467 25.9427 142.848 25.5998 143.038 25.1808C143.267 24.7617 143.381 24.3046 143.381 23.7332C143.381 23.2379 143.229 22.7427 143.038 22.3617C142.81 21.9427 142.467 21.5617 142.048 21.3713C141.667 21.1808 141.172 21.0284 140.676 21.0284ZM140.676 22.1332C141.172 22.1332 141.553 22.2855 141.819 22.5522C142.162 22.857 142.315 23.276 142.315 23.7713C142.315 24.3427 142.162 24.7617 141.819 25.0665C141.515 25.3713 141.172 25.4855 140.676 25.4855C140.181 25.4855 139.8 25.3332 139.534 25.0665C139.229 24.7617 139.038 24.3427 139.038 23.7713C139.038 23.276 139.267 22.8189 139.534 22.5522C139.8 22.2855 140.219 22.1332 140.676 22.1332Z" fill="#4C4D4F"/>
        <path d="M148.067 21.1808V23.9236C148.067 24.4189 147.991 24.876 147.724 25.0665C147.496 25.3713 147.153 25.4855 146.734 25.4855C146.315 25.4855 146.01 25.4094 145.858 25.1808C145.629 24.9522 145.553 24.6855 145.553 24.2284V21.1427H144.486V24.457C144.486 25.1046 144.639 25.5998 144.982 25.9808C145.286 26.3236 145.782 26.5522 146.353 26.5522C146.696 26.5522 147.077 26.476 147.343 26.2474C147.648 26.0951 147.915 25.8284 148.067 25.5236V26.3998H149.134V21.1808H148.067Z" fill="#4C4D4F"/>
        <path d="M153.401 21.0284C153.058 21.0284 152.601 21.1808 152.334 21.3332C152.03 21.5617 151.763 21.7522 151.611 22.057V21.1808H150.468V28.876H151.611V25.5617C151.763 25.8665 152.03 26.1332 152.334 26.2855C152.639 26.5141 152.982 26.5903 153.401 26.5903C153.896 26.5903 154.353 26.4379 154.696 26.2474C155.039 26.0189 155.344 25.676 155.573 25.257C155.801 24.9141 155.877 24.3808 155.877 23.8093C155.877 23.3141 155.801 22.8189 155.573 22.4379C155.344 22.0189 155.077 21.6379 154.696 21.4474C154.315 21.1808 153.896 21.0284 153.401 21.0284ZM153.173 25.4855C152.677 25.4855 152.296 25.3332 152.03 25.0665C151.725 24.7617 151.611 24.3427 151.534 23.7713C151.611 23.276 151.763 22.8951 152.03 22.5522C152.334 22.2474 152.677 22.1332 153.173 22.1332C153.668 22.1332 154.049 22.2855 154.315 22.5522C154.62 22.8951 154.734 23.276 154.734 23.7713C154.734 24.3427 154.582 24.7617 154.315 25.0665C154.049 25.3713 153.668 25.4855 153.173 25.4855Z" fill="#4C4D4F"/>
        <path d="M111.876 -3.05176e-05H111.457V31.9238H111.876V-3.05176e-05Z" fill="#888C8E"/>
    </g>
    <defs>
        <clipPath id="clip0_15338_37751">
            <rect width="174.819" height="32" fill="white" transform="translate(0.180664)"/>
        </clipPath>
    </defs>
</svg>
