<svg xmlns="http://www.w3.org/2000/svg" width="189" height="32" viewBox="0 0 189 32" fill="none">
<g clip-path="url(#clip0_13800_13044)">
<path d="M35.7479 27.3104V25.6826H41.2729V27.3104H35.7479ZM35.7479 17.982V16.3542H41.2729V17.982H35.7479ZM35.7479 22.2393V20.6429H40.9598V22.2393H35.7479ZM34.6052 16.3542H36.4208V27.3104H34.6052V16.3542Z" fill="#273353"/>
<path d="M52.3274 16.3542H54.1432V27.8581L46.145 19.9541V27.3104H44.3295V15.8063L52.3274 23.7104V16.3542Z" fill="#273353"/>
<path d="M58.4979 27.3104V25.6826H64.0229V27.3104H58.4979ZM58.4979 17.982V16.3542H64.0229V17.982H58.4979ZM58.4979 22.2393V20.6429H63.7098V22.2393H58.4979ZM57.3552 16.3542H59.1708V27.3104H57.3552V16.3542Z" fill="#273353"/>
<path d="M69.3334 22.0827H71.3367L75.0462 27.3104H72.8237L69.3334 22.0827ZM67.0795 16.3542H68.9264V27.3104H67.0795V16.3542ZM68.1751 17.9507V16.3542H70.4602C71.2532 16.3542 71.9419 16.495 72.5263 16.7768C73.1211 17.0586 73.5802 17.455 73.9036 17.9664C74.2272 18.4672 74.3889 19.0619 74.3889 19.7506C74.3889 20.4393 74.2272 21.0394 73.9036 21.5506C73.5802 22.062 73.1211 22.4584 72.5263 22.7402C71.9419 23.0218 71.2532 23.1628 70.4602 23.1628H68.1751V21.6446H70.382C70.7994 21.6446 71.1645 21.5715 71.4777 21.4254C71.8011 21.2793 72.0515 21.0706 72.229 20.7993C72.4063 20.5175 72.495 20.1836 72.495 19.7976C72.495 19.4011 72.4063 19.0672 72.229 18.7959C72.0515 18.5246 71.8011 18.3159 71.4777 18.1698C71.1645 18.0237 70.7994 17.9507 70.382 17.9507H68.1751Z" fill="#273353"/>
<path d="M82.3826 23.1469V21.5819H87.6572C87.6781 22.3853 87.5737 23.1469 87.3442 23.867C87.1146 24.5764 86.7702 25.2079 86.3111 25.7608C85.8521 26.3138 85.2781 26.7521 84.5894 27.0756C83.9111 27.3885 83.1391 27.5451 82.2731 27.5451C81.4487 27.5451 80.6869 27.4095 79.9878 27.1382C79.2888 26.8564 78.6783 26.4599 78.1566 25.9487C77.6454 25.4373 77.2487 24.8321 76.9671 24.133C76.6854 23.434 76.5444 22.6671 76.5444 21.8323C76.5444 20.9974 76.6854 20.2358 76.9671 19.5471C77.2592 18.848 77.661 18.2479 78.1722 17.7472C78.6941 17.2358 79.3044 16.8446 80.0036 16.5733C80.713 16.302 81.4799 16.1664 82.3043 16.1664C83.0244 16.1664 83.6764 16.2655 84.2608 16.4637C84.8451 16.6515 85.3668 16.928 85.826 17.2933C86.2955 17.6481 86.692 18.0811 87.0155 18.5923L85.5129 19.594C85.2103 19.0723 84.7878 18.6549 84.2452 18.3419C83.7129 18.0289 83.066 17.8724 82.3043 17.8724C81.5948 17.8724 80.9531 18.0392 80.3791 18.3733C79.8053 18.6967 79.3461 19.1558 79.0019 19.7505C78.6575 20.335 78.4853 21.0288 78.4853 21.8323C78.4853 22.6252 78.6522 23.3244 78.9861 23.9296C79.3305 24.5243 79.7895 24.9887 80.3635 25.3226C80.9373 25.6565 81.5844 25.8234 82.3043 25.8234C82.7947 25.8234 83.2329 25.7556 83.6191 25.62C84.0051 25.4843 84.339 25.2912 84.6208 25.0408C84.9025 24.7905 85.1373 24.5034 85.3251 24.18C85.5129 23.8565 85.6538 23.5122 85.7476 23.1469H82.3826Z" fill="#273353"/>
<path d="M90.334 16.3542H92.1965V27.3104H90.334V16.3542Z" fill="#273353"/>
<path d="M96.5694 27.3104V25.6826H102.094V27.3104H96.5694ZM96.5694 17.982V16.3542H102.094V17.982H96.5694ZM96.5694 22.2393V20.6429H101.781V22.2393H96.5694ZM95.4268 16.3542H97.2423V27.3104H95.4268V16.3542Z" fill="#273353"/>
<path d="M106.56 21.6602V20.7523H108.328C108.673 20.7523 108.975 20.695 109.236 20.5801C109.497 20.4654 109.7 20.3037 109.847 20.095C109.993 19.8758 110.066 19.615 110.066 19.3125C110.066 18.8532 109.904 18.4986 109.58 18.248C109.257 17.9976 108.84 17.8725 108.328 17.8725H106.998V25.7922H108.532C108.949 25.7922 109.32 25.7243 109.643 25.5887C109.966 25.453 110.222 25.2496 110.41 24.9783C110.598 24.707 110.692 24.3678 110.692 23.9609C110.692 23.6688 110.634 23.4131 110.52 23.194C110.415 22.9645 110.264 22.7766 110.066 22.6306C109.878 22.4741 109.653 22.3645 109.393 22.3019C109.132 22.2288 108.845 22.1923 108.532 22.1923H106.56V21.175H108.641C109.173 21.175 109.674 21.2323 110.144 21.3472C110.613 21.4619 111.031 21.6392 111.396 21.8793C111.772 22.1192 112.064 22.4271 112.272 22.8028C112.481 23.1784 112.586 23.627 112.586 24.1488C112.586 24.8687 112.413 25.4635 112.069 25.933C111.735 26.4026 111.271 26.7522 110.676 26.9817C110.092 27.2008 109.413 27.3104 108.641 27.3104H105.151V16.3542H108.454C109.142 16.3542 109.747 16.4534 110.269 16.6516C110.801 16.8499 111.213 17.1525 111.506 17.5595C111.808 17.9664 111.96 18.4828 111.96 19.1089C111.96 19.6515 111.808 20.1159 111.506 20.5019C111.213 20.8776 110.801 21.1646 110.269 21.3628C109.747 21.561 109.142 21.6602 108.454 21.6602H106.56Z" fill="#273353"/>
<path d="M116.461 27.3104V25.6826H121.986V27.3104H116.461ZM116.461 17.982V16.3542H121.986V17.982H116.461ZM116.461 22.2393V20.6429H121.673V22.2393H116.461ZM115.318 16.3542H117.134V27.3104H115.318V16.3542Z" fill="#273353"/>
<path d="M127.297 22.0827H129.3L133.009 27.3104H130.787L127.297 22.0827ZM125.043 16.3542H126.89V27.3104H125.043V16.3542ZM126.138 17.9507V16.3542H128.423C129.217 16.3542 129.905 16.495 130.49 16.7768C131.084 17.0586 131.543 17.455 131.867 17.9664C132.19 18.4672 132.352 19.0619 132.352 19.7506C132.352 20.4393 132.19 21.0394 131.867 21.5506C131.543 22.062 131.084 22.4584 130.49 22.7402C129.905 23.0218 129.217 23.1628 128.423 23.1628H126.138V21.6446H128.345C128.763 21.6446 129.128 21.5715 129.441 21.4254C129.764 21.2793 130.015 21.0706 130.192 20.7993C130.37 20.5175 130.458 20.1836 130.458 19.7976C130.458 19.4011 130.37 19.0672 130.192 18.7959C130.015 18.5246 129.764 18.3159 129.441 18.1698C129.128 18.0237 128.763 17.9507 128.345 17.9507H126.138Z" fill="#273353"/>
<path d="M136.449 24.4931L136.793 22.9279H141.88L142.24 24.4931H136.449ZM139.313 19.4532L137.591 23.4756L137.56 23.8826L136.042 27.3103H133.96L139.313 15.7437L144.666 27.3103H142.584L141.097 23.9766L141.05 23.5226L139.313 19.4532Z" fill="#273353"/>
<path d="M144.527 18.0602V16.3542H152.165V18.0602H149.269V27.3104H147.407V18.0602H144.527Z" fill="#273353"/>
<path d="M154.214 16.3542H156.061V23.6323C156.061 24.3105 156.238 24.8583 156.593 25.2757C156.958 25.6826 157.495 25.8862 158.205 25.8862C158.904 25.8862 159.437 25.6826 159.802 25.2757C160.167 24.8583 160.35 24.3105 160.35 23.6323V16.3542H162.196V23.7105C162.196 24.3157 162.097 24.8583 161.898 25.3383C161.711 25.8078 161.439 26.2096 161.085 26.5435C160.731 26.8774 160.308 27.1331 159.818 27.3104C159.326 27.4878 158.789 27.5766 158.205 27.5766C157.621 27.5766 157.083 27.4878 156.593 27.3104C156.102 27.1331 155.675 26.8774 155.309 26.5435C154.954 26.2096 154.683 25.8078 154.495 25.3383C154.308 24.8583 154.214 24.3157 154.214 23.7105V16.3542Z" fill="#273353"/>
<path d="M173.343 16.3542H175.159V27.8581L167.162 19.9541V27.3104H165.346V15.8063L173.343 23.7104V16.3542Z" fill="#273353"/>
<path d="M183.583 23.1469V21.5819H188.858C188.88 22.3853 188.775 23.1469 188.546 23.867C188.316 24.5764 187.971 25.2079 187.512 25.7608C187.053 26.3138 186.479 26.7521 185.79 27.0756C185.111 27.3885 184.34 27.5451 183.474 27.5451C182.65 27.5451 181.888 27.4095 181.189 27.1382C180.489 26.8564 179.879 26.4599 179.358 25.9487C178.846 25.4373 178.449 24.8321 178.168 24.133C177.886 23.434 177.745 22.6671 177.745 21.8323C177.745 20.9974 177.886 20.2358 178.168 19.5471C178.46 18.848 178.861 18.2479 179.373 17.7472C179.895 17.2358 180.505 16.8446 181.204 16.5733C181.915 16.302 182.681 16.1664 183.505 16.1664C184.225 16.1664 184.877 16.2655 185.461 16.4637C186.046 16.6515 186.568 16.928 187.027 17.2933C187.497 17.6481 187.893 18.0811 188.216 18.5923L186.715 19.594C186.412 19.0723 185.989 18.6549 185.446 18.3419C184.913 18.0289 184.267 17.8724 183.505 17.8724C182.797 17.8724 182.153 18.0392 181.581 18.3733C181.006 18.6967 180.547 19.1558 180.202 19.7505C179.859 20.335 179.687 21.0288 179.687 21.8323C179.687 22.6252 179.853 23.3244 180.187 23.9296C180.532 24.5243 180.991 24.9887 181.565 25.3226C182.138 25.6565 182.786 25.8234 183.505 25.8234C183.995 25.8234 184.434 25.7556 184.82 25.62C185.207 25.4843 185.541 25.2912 185.822 25.0408C186.104 24.7905 186.338 24.5034 186.526 24.18C186.715 23.8565 186.855 23.5122 186.949 23.1469H183.583Z" fill="#273353"/>
<path d="M35.4767 8.92842V8.20608H36.8841C37.1581 8.20608 37.3989 8.16041 37.6064 8.06907C37.814 7.97774 37.9759 7.84906 38.0922 7.683C38.2084 7.50864 38.2665 7.30106 38.2665 7.06028C38.2665 6.69495 38.1379 6.41266 37.8805 6.21339C37.6231 6.01411 37.2909 5.91449 36.8841 5.91449H35.8255V12.2164H37.046C37.3782 12.2164 37.6729 12.1624 37.9303 12.0544C38.1877 11.9465 38.3911 11.7846 38.5405 11.5687C38.69 11.3529 38.7648 11.083 38.7648 10.7592C38.7648 10.5267 38.719 10.3233 38.6277 10.149C38.5447 9.96628 38.4243 9.81684 38.2665 9.70059C38.1171 9.57606 37.9386 9.48888 37.7309 9.43905C37.5235 9.38093 37.2951 9.35187 37.046 9.35187H35.4767V8.54235H37.1332C37.5566 8.54235 37.9551 8.58801 38.3288 8.67934C38.7025 8.77067 39.0345 8.91181 39.3252 9.10278C39.6241 9.29375 39.8565 9.53869 40.0226 9.83758C40.1887 10.1365 40.2717 10.4935 40.2717 10.9087C40.2717 11.4816 40.1347 11.9548 39.8607 12.3284C39.5951 12.7021 39.2256 12.9802 38.7523 13.1629C38.2873 13.3372 37.7476 13.4244 37.1332 13.4244H34.356V4.70642H36.9837C37.5318 4.70642 38.0133 4.7853 38.4284 4.94305C38.8519 5.1008 39.1798 5.34158 39.4123 5.66541C39.6531 5.98921 39.7735 6.4002 39.7735 6.89837C39.7735 7.33012 39.6531 7.69961 39.4123 8.00681C39.1798 8.3057 38.8519 8.53404 38.4284 8.69179C38.0133 8.84955 37.5318 8.92842 36.9837 8.92842H35.4767Z" fill="#F26101"/>
<path d="M42.3386 12.7893C42.3386 12.5485 42.4217 12.3451 42.5878 12.179C42.762 12.0047 42.9696 11.9175 43.2104 11.9175C43.4678 11.9175 43.6795 12.0047 43.8456 12.179C44.0117 12.3451 44.0947 12.5485 44.0947 12.7893C44.0947 13.0218 44.0117 13.2252 43.8456 13.3995C43.6795 13.5739 43.4678 13.6611 43.2104 13.6611C42.9696 13.6611 42.762 13.5739 42.5878 13.3995C42.4217 13.2252 42.3386 13.0218 42.3386 12.7893Z" fill="#F26101"/>
<path d="M47.6391 13.4244V12.1292H52.0354V13.4244H47.6391ZM47.6391 6.00167V4.70642H52.0354V6.00167H47.6391ZM47.6391 9.38924V8.1189H51.7863V9.38924H47.6391ZM46.73 4.70642H48.1747V13.4244H46.73V4.70642Z" fill="#F26101"/>
<path d="M54.5424 12.7893C54.5424 12.5485 54.6254 12.3451 54.7915 12.179C54.9658 12.0047 55.1735 11.9175 55.4142 11.9175C55.6716 11.9175 55.8832 12.0047 56.0493 12.179C56.2154 12.3451 56.2985 12.5485 56.2985 12.7893C56.2985 13.0218 56.2154 13.2252 56.0493 13.3995C55.8832 13.5739 55.6716 13.6611 55.4142 13.6611C55.1735 13.6611 54.9658 13.5739 54.7915 13.3995C54.6254 13.2252 54.5424 13.0218 54.5424 12.7893Z" fill="#F26101"/>
<path d="M58.9337 4.70642H60.4157V13.4244H58.9337V4.70642Z" fill="#F26101"/>
<path d="M63.0609 12.7893C63.0609 12.5485 63.144 12.3451 63.31 12.179C63.4844 12.0047 63.6919 11.9175 63.9327 11.9175C64.1901 11.9175 64.4018 12.0047 64.5679 12.179C64.734 12.3451 64.817 12.5485 64.817 12.7893C64.817 13.0218 64.734 13.2252 64.5679 13.3995C64.4018 13.5739 64.1901 13.6611 63.9327 13.6611C63.6919 13.6611 63.4844 13.5739 63.31 13.3995C63.144 13.2252 63.0609 13.0218 63.0609 12.7893Z" fill="#F26101"/>
<path fill-rule="evenodd" clip-rule="evenodd" d="M6.20975 0C6.03733 0 5.89756 0.139775 5.89756 0.312195V1.24878H1.37073C0.681046 1.24878 0.121948 1.80788 0.121948 2.49756V24.947C0.121948 25.6367 0.681047 26.1958 1.37073 26.1958H7.45853V7.58476C7.45853 6.55023 8.29718 5.71158 9.3317 5.71158H17.3929V2.49756C17.3929 1.80788 16.8338 1.24878 16.1441 1.24878H11.6732V0.312195C11.6732 0.139775 11.5334 0 11.361 0H6.20975Z" fill="#F26101"/>
<path d="M24.475 7.00574H10.9504C9.91586 7.00574 9.07721 7.84438 9.07721 8.87891V30.0796C9.07721 31.1141 9.91586 31.9528 10.9504 31.9528H24.475C25.5095 31.9528 26.3482 31.1141 26.3482 30.0796V8.87891C26.3482 7.84438 25.5095 7.00574 24.475 7.00574Z" fill="#273353"/>
</g>
<defs>
<clipPath id="clip0_13800_13044">
<rect width="188.878" height="32" fill="white" transform="translate(0.121948)"/>
</clipPath>
</defs>
</svg>