<svg width="160" height="37" viewBox="0 0 160 37" fill="none" xmlns="http://www.w3.org/2000/svg">
<g clip-path="url(#clip0)">
<path d="M82.1813 36.9999C81.4765 36.8484 80.7632 36.7273 80.0684 36.5404C76.1991 35.4996 73.599 32.3898 73.3387 28.3656C73.2089 26.3583 73.2313 24.3403 73.2244 22.327C73.2094 17.9648 73.2091 13.6025 73.2234 9.24014C73.2281 7.38359 74.6668 6.20802 76.4689 6.55259C77.6627 6.78087 78.5162 7.84034 78.5179 9.13615C78.5236 13.617 78.5246 18.0978 78.5208 22.5787C78.5214 24.2145 78.4639 25.8539 78.5609 27.4844C78.61 28.3083 78.8204 29.1152 79.1809 29.8614C79.8858 31.2857 81.217 32.0095 82.7756 32.0073C84.5544 32.0048 86.3326 31.7414 88.1114 31.5963C88.6683 31.5509 88.6417 31.1755 88.6414 30.7777C88.6365 23.7127 88.6363 16.6476 88.6408 9.58261C88.634 9.25154 88.6575 8.92053 88.7112 8.59358C88.9583 7.27346 90.0867 6.39119 91.389 6.4761C92.7811 6.56686 93.8154 7.52773 93.9355 8.85201C93.959 9.11113 93.9537 9.37314 93.9537 9.63383C93.9546 17.1019 93.9547 24.57 93.9541 32.038C93.9538 34.1988 93.2115 35.2733 91.0994 35.8241C89.4234 36.2612 87.6986 36.5185 85.9963 36.8597C85.8367 36.8917 85.6831 36.9525 85.5267 36.9999L82.1813 36.9999Z" fill="#E40040"/>
<path d="M0 13.6616C0.147328 12.948 0.274198 12.2297 0.44522 11.5216C1.81827 5.83669 6.50615 2.11306 12.4601 2.00699C14.9311 1.96297 17.4027 1.95696 19.8749 1.98894C21.386 2.00873 22.3845 2.99107 22.4207 4.35932C22.4617 5.91195 21.4967 6.93657 19.9012 6.95629C17.7202 6.98324 15.5387 6.96379 13.3574 6.96471C8.73661 6.96665 5.59474 9.92267 5.5144 14.433C5.45742 17.6324 5.46448 20.834 5.51457 24.0336C5.56769 27.4264 7.58394 30.2274 10.5843 31.0916C11.4461 31.325 12.3353 31.448 13.2295 31.4576C15.3853 31.5087 17.5432 31.467 19.7002 31.4766C21.54 31.4848 22.6374 32.7244 22.3854 34.4863C22.2429 35.4822 21.4582 36.3915 20.435 36.3952C16.9532 36.4079 13.445 36.804 9.99572 36.1304C4.57598 35.0719 0.780403 30.9074 0.163674 25.5167C0.122171 25.2625 0.0675434 25.0104 0 24.7616L0 13.6616Z" fill="#E40040"/>
<path d="M101.963 0C103.566 0.607512 104.156 1.78001 104.035 3.41225C103.967 4.3318 104.052 5.26138 104.012 6.18411C103.988 6.76032 104.163 6.97525 104.783 6.9631C106.332 6.93268 107.885 6.92134 109.432 6.99007C110.864 7.05368 111.774 8.10771 111.725 9.49815C111.677 10.8194 110.666 11.7833 109.2 11.822C107.748 11.8603 106.294 11.8601 104.84 11.8215C104.213 11.8046 104.006 11.9755 104.009 12.6149C104.034 17.9005 104.018 23.1861 104.026 28.4718C104.029 30.5466 105.145 31.6172 107.262 31.6158C107.989 31.6153 108.716 31.5956 109.442 31.6036C110.688 31.6174 111.668 32.3811 111.844 33.4581C112.069 34.8302 111.546 35.9927 110.266 36.2748C108.941 36.5666 107.54 36.6329 106.176 36.6061C105.209 36.5718 104.256 36.3753 103.357 36.0252C100.338 34.8818 99.1062 32.4772 98.7871 29.497C98.747 29.0246 98.732 28.5505 98.7421 28.0766C98.7396 19.8756 98.7704 11.6744 98.715 3.47371C98.7039 1.81959 99.1567 0.614902 100.8 0H101.963Z" fill="#E40040"/>
<path d="M126.254 37.0001C125.389 36.808 124.514 36.6497 123.661 36.4174C120.874 35.659 118.433 34.3111 116.457 32.2217C116.256 32.0088 116.211 31.6542 116.094 31.3654C116.393 31.2882 116.695 31.1337 116.991 31.1458C120.328 31.2827 123.664 31.5477 127.001 31.5718C130.303 31.5956 133.255 30.5456 135.462 28.0105C138.147 24.9261 138.55 20.5912 136.564 16.9727C136.051 16.0384 136.187 15.8065 137.252 15.8052C138.512 15.8035 139.773 15.8247 141.032 15.7967C141.685 15.7822 142.07 16.0303 142.281 16.6376C145.392 25.6034 139.803 34.9554 130.644 36.7045C130.15 36.799 129.657 36.9014 129.163 37.0001H126.254Z" fill="#E40040"/>
<path d="M159.999 10.104C159.344 11.6419 158.106 12.053 156.526 11.8519C156.044 11.8021 155.559 11.7878 155.074 11.8091C153.273 11.847 152.123 13.0162 152.122 14.8185C152.118 21.0302 152.088 27.2422 152.142 33.4534C152.156 35.087 151.695 36.3152 150.109 37.0001H148.799C147.243 36.3406 146.752 35.1576 146.766 33.5412C146.82 27.4091 146.779 21.2761 146.793 15.1435C146.797 13.1698 147.177 11.2793 148.401 9.64489C149.702 7.90654 151.549 7.08487 153.672 6.88313C154.844 6.7717 156.04 6.8471 157.223 6.89805C158.55 6.95521 159.491 7.6055 159.999 8.82323V10.104Z" fill="#E40040"/>
<path d="M39.2718 37.0001C37.7356 36.4197 37.1785 35.321 37.1916 33.7246C37.2424 27.5585 37.1849 21.3915 37.236 15.2254C37.2334 14.0193 37.4126 12.8194 37.7679 11.6645C38.7405 8.66229 41.0463 7.16858 44.1539 6.88255C45.4676 6.76163 46.8197 6.85136 48.1362 6.9994C49.6183 7.16604 50.3926 8.17133 50.3478 9.59911C50.3068 10.9083 49.5236 11.7139 48.0372 11.8581C47.3445 11.9253 46.6362 11.8543 45.9357 11.8263C43.7061 11.7371 42.4972 12.8691 42.4961 15.0751C42.4929 21.2654 42.4666 27.4558 42.5143 33.6457C42.5267 35.2512 42.0086 36.4032 40.4354 37.0001H39.2718Z" fill="#E40040"/>
<path d="M28.9453 37.0002C27.3303 36.4161 26.7912 35.2536 26.8009 33.6139C26.8448 26.168 26.8208 18.7218 26.8192 11.2756C26.819 10.4755 26.937 9.7212 27.5264 9.10123C27.886 8.71183 28.3557 8.43576 28.876 8.30808C29.3963 8.1804 29.9436 8.20686 30.4484 8.3841C30.9423 8.55837 31.3689 8.87807 31.6694 9.29924C31.97 9.72041 32.1297 10.2223 32.1267 10.736C32.1482 13.0835 32.1362 15.4312 32.1365 17.7789C32.137 23.1145 32.1057 28.4504 32.1558 33.7856C32.1705 35.3504 31.6331 36.4409 30.1089 37.0002H28.9453Z" fill="#E40040"/>
<path d="M30.2536 0C30.4167 0.0880885 30.5755 0.184814 30.7433 0.262901C32.0789 0.884128 32.739 2.22333 32.422 3.67667C32.2754 4.3171 31.9119 4.89029 31.3906 5.30326C30.8692 5.71622 30.2205 5.94473 29.5497 5.95172C28.879 5.95872 28.2254 5.74378 27.6952 5.34177C27.165 4.93977 26.7891 4.37429 26.6286 3.73706C26.2814 2.25412 26.9403 0.884717 28.3005 0.256241C28.4701 0.17787 28.633 0.0857503 28.7991 0H30.2536Z" fill="#E40040"/>
<path d="M57.7369 21.7378C57.7368 23.4206 57.729 25.1034 57.7385 26.7862C57.7552 29.7472 59.6076 31.5666 62.6446 31.5978C64.1949 31.6137 65.7455 31.5947 67.2959 31.6027C68.776 31.6104 69.8355 32.5587 69.9033 33.9187C69.9726 35.3093 69.1336 36.3672 67.6332 36.4355C64.8123 36.564 61.959 36.8073 59.1985 35.9757C55.4594 34.8492 52.7029 31.5567 52.5561 27.7431C52.4032 23.7705 52.3648 19.7814 52.5504 15.8118C52.7845 10.8055 56.903 7.08223 62.0445 6.95863C63.8119 6.91614 65.5814 6.93725 67.3497 6.95579C68.8162 6.97117 69.8142 7.97899 69.803 9.3859C69.7917 10.792 68.7833 11.7766 67.3172 11.8015C65.5022 11.8324 63.6727 11.7244 61.8754 11.913C59.2444 12.1892 57.7645 13.9496 57.74 16.5472C57.7238 18.2773 57.7369 20.0076 57.7369 21.7378Z" fill="#E40040"/>
<path d="M116.344 27.5992C115.69 27.5992 115.034 27.573 114.382 27.6063C113.684 27.6419 113.323 27.3249 113.109 26.6987C110.204 18.2085 115.063 9.05527 123.932 6.90304C129.707 5.50191 134.741 7.09368 138.949 11.1829C139.157 11.3845 139.201 11.7471 139.321 12.0347C139.022 12.1146 138.72 12.2745 138.425 12.2622C135.111 12.1245 131.799 11.8467 128.486 11.8335C124.763 11.8187 121.497 13.0498 119.345 16.1911C117.103 19.4634 117.049 22.9314 118.855 26.4331C119.345 27.3834 119.23 27.5968 118.162 27.5991C117.556 27.6004 116.95 27.5993 116.344 27.5992Z" fill="#E40040"/>
<path d="M127.681 27.3451C124.467 27.339 121.996 24.8526 122.014 21.6423C122.031 18.4971 124.541 16.0471 127.733 16.0586C130.915 16.0701 133.401 18.5393 133.405 21.6928C133.409 24.8814 130.908 27.3511 127.681 27.3451Z" fill="#E40040"/>
</g>
<defs>
<clipPath id="clip0">
<rect width="160" height="37" fill="white"/>
</clipPath>
</defs>
</svg>
