<svg width="2189" height="1005" viewBox="0 0 2189 1005" fill="none" xmlns="http://www.w3.org/2000/svg">
<circle cx="1184" cy="487" r="487" fill="url(#paint0_radial_14415_31533)" fill-opacity="0.12"/>
<path d="M50.7045 10H1V59.7M50.7045 10V59.7M50.7045 10H100.409M50.7045 59.7H1M50.7045 59.7V109.4M50.7045 59.7H100.409M1 59.7V109.4M50.7045 109.4H1M50.7045 109.4V159.1M50.7045 109.4H100.409M1 109.4V159.1M50.7045 159.1H1M50.7045 159.1V208.8M50.7045 159.1H100.409M1 159.1V208.8M50.7045 208.8H1M50.7045 208.8V258.5M50.7045 208.8H100.409M1 208.8V258.5M50.7045 258.5H1M50.7045 258.5V308.2M50.7045 258.5H100.409M1 258.5V308.2M50.7045 308.2H1M50.7045 308.2V357.9M50.7045 308.2H100.409M1 308.2V357.9M50.7045 357.9H1M50.7045 357.9V407.6M50.7045 357.9H100.409M1 357.9V407.6M50.7045 407.6H1M50.7045 407.6V457.3M50.7045 407.6H100.409M1 407.6V457.3M50.7045 457.3H1M50.7045 457.3V507M50.7045 457.3H100.409M1 457.3V507M50.7045 507H1M50.7045 507V556.7M50.7045 507H100.409M1 507V556.7M50.7045 556.7H1M50.7045 556.7V606.4M50.7045 556.7H100.409M1 556.7V606.4M50.7045 606.4H1M50.7045 606.4V656.1M50.7045 606.4H100.409M1 606.4V656.1M50.7045 656.1H1M50.7045 656.1V705.8M50.7045 656.1H100.409M1 656.1V705.8M50.7045 705.8H1M50.7045 705.8V755.5M50.7045 705.8H100.409M1 705.8V755.5M50.7045 755.5H1M50.7045 755.5V805.2M50.7045 755.5H100.409M1 755.5V805.2M50.7045 805.2H1M50.7045 805.2V854.9M50.7045 805.2H100.409M1 805.2V854.9M50.7045 854.9H1M50.7045 854.9V904.6M50.7045 854.9H100.409M1 854.9V904.6M50.7045 904.6H1M50.7045 904.6V954.3M50.7045 904.6H100.409M1 904.6V954.3M50.7045 954.3H1M50.7045 954.3V1004M50.7045 954.3H100.409M1 954.3V1004H50.7045M50.7045 1004H100.409M100.409 10V59.7M100.409 10H150.114M100.409 59.7V109.4M100.409 59.7H150.114M100.409 109.4V159.1M100.409 109.4H150.114M100.409 159.1V208.8M100.409 159.1H150.114M100.409 208.8V258.5M100.409 208.8H150.114M100.409 258.5V308.2M100.409 258.5H150.114M100.409 308.2V357.9M100.409 308.2H150.114M100.409 357.9V407.6M100.409 357.9H150.114M100.409 407.6V457.3M100.409 407.6H150.114M100.409 457.3V507M100.409 457.3H150.114M100.409 507V556.7M100.409 507H150.114M100.409 556.7V606.4M100.409 556.7H150.114M100.409 606.4V656.1M100.409 606.4H150.114M100.409 656.1V705.8M100.409 656.1H150.114M100.409 705.8V755.5M100.409 705.8H150.114M100.409 755.5V805.2M100.409 755.5H150.114M100.409 805.2V854.9M100.409 805.2H150.114M100.409 854.9V904.6M100.409 854.9H150.114M100.409 904.6V954.3M100.409 904.6H150.114M100.409 954.3V1004M100.409 954.3H150.114M100.409 1004H150.114M150.114 10V59.7M150.114 10H199.818M150.114 59.7V109.4M150.114 59.7H199.818M150.114 109.4V159.1M150.114 109.4H199.818M150.114 159.1V208.8M150.114 159.1H199.818M150.114 208.8V258.5M150.114 208.8H199.818M150.114 258.5V308.2M150.114 258.5H199.818M150.114 308.2V357.9M150.114 308.2H199.818M150.114 357.9V407.6M150.114 357.9H199.818M150.114 407.6V457.3M150.114 407.6H199.818M150.114 457.3V507M150.114 457.3H199.818M150.114 507V556.7M150.114 507H199.818M150.114 556.7V606.4M150.114 556.7H199.818M150.114 606.4V656.1M150.114 606.4H199.818M150.114 656.1V705.8M150.114 656.1H199.818M150.114 705.8V755.5M150.114 705.8H199.818M150.114 755.5V805.2M150.114 755.5H199.818M150.114 805.2V854.9M150.114 805.2H199.818M150.114 854.9V904.6M150.114 854.9H199.818M150.114 904.6V954.3M150.114 904.6H199.818M150.114 954.3V1004M150.114 954.3H199.818M150.114 1004H199.818M199.818 10V59.7M199.818 10H249.523M199.818 59.7V109.4M199.818 59.7H249.523M199.818 109.4V159.1M199.818 109.4H249.523M199.818 159.1V208.8M199.818 159.1H249.523M199.818 208.8V258.5M199.818 208.8H249.523M199.818 258.5V308.2M199.818 258.5H249.523M199.818 308.2V357.9M199.818 308.2H249.523M199.818 357.9V407.6M199.818 357.9H249.523M199.818 407.6V457.3M199.818 407.6H249.523M199.818 457.3V507M199.818 457.3H249.523M199.818 507V556.7M199.818 507H249.523M199.818 556.7V606.4M199.818 556.7H249.523M199.818 606.4V656.1M199.818 606.4H249.523M199.818 656.1V705.8M199.818 656.1H249.523M199.818 705.8V755.5M199.818 705.8H249.523M199.818 755.5V805.2M199.818 755.5H249.523M199.818 805.2V854.9M199.818 805.2H249.523M199.818 854.9V904.6M199.818 854.9H249.523M199.818 904.6V954.3M199.818 904.6H249.523M199.818 954.3V1004M199.818 954.3H249.523M199.818 1004H249.523M249.523 10V59.7M249.523 10H299.227M249.523 59.7V109.4M249.523 59.7H299.227M249.523 109.4V159.1M249.523 109.4H299.227M249.523 159.1V208.8M249.523 159.1H299.227M249.523 208.8V258.5M249.523 208.8H299.227M249.523 258.5V308.2M249.523 258.5H299.227M249.523 308.2V357.9M249.523 308.2H299.227M249.523 357.9V407.6M249.523 357.9H299.227M249.523 407.6V457.3M249.523 407.6H299.227M249.523 457.3V507M249.523 457.3H299.227M249.523 507V556.7M249.523 507H299.227M249.523 556.7V606.4M249.523 556.7H299.227M249.523 606.4V656.1M249.523 606.4H299.227M249.523 656.1V705.8M249.523 656.1H299.227M249.523 705.8V755.5M249.523 705.8H299.227M249.523 755.5V805.2M249.523 755.5H299.227M249.523 805.2V854.9M249.523 805.2H299.227M249.523 854.9V904.6M249.523 854.9H299.227M249.523 904.6V954.3M249.523 904.6H299.227M249.523 954.3V1004M249.523 954.3H299.227M249.523 1004H299.227M299.227 10V59.7M299.227 10H348.932M299.227 59.7V109.4M299.227 59.7H348.932M299.227 109.4V159.1M299.227 109.4H348.932M299.227 159.1V208.8M299.227 159.1H348.932M299.227 208.8V258.5M299.227 208.8H348.932M299.227 258.5V308.2M299.227 258.5H348.932M299.227 308.2V357.9M299.227 308.2H348.932M299.227 357.9V407.6M299.227 357.9H348.932M299.227 407.6V457.3M299.227 407.6H348.932M299.227 457.3V507M299.227 457.3H348.932M299.227 507V556.7M299.227 507H348.932M299.227 556.7V606.4M299.227 556.7H348.932M299.227 606.4V656.1M299.227 606.4H348.932M299.227 656.1V705.8M299.227 656.1H348.932M299.227 705.8V755.5M299.227 705.8H348.932M299.227 755.5V805.2M299.227 755.5H348.932M299.227 805.2V854.9M299.227 805.2H348.932M299.227 854.9V904.6M299.227 854.9H348.932M299.227 904.6V954.3M299.227 904.6H348.932M299.227 954.3V1004M299.227 954.3H348.932M299.227 1004H348.932M348.932 10V59.7M348.932 10H398.636M348.932 59.7V109.4M348.932 59.7H398.636M348.932 109.4V159.1M348.932 109.4H398.636M348.932 159.1V208.8M348.932 159.1H398.636M348.932 208.8V258.5M348.932 208.8H398.636M348.932 258.5V308.2M348.932 258.5H398.636M348.932 308.2V357.9M348.932 308.2H398.636M348.932 357.9V407.6M348.932 357.9H398.636M348.932 407.6V457.3M348.932 407.6H398.636M348.932 457.3V507M348.932 457.3H398.636M348.932 507V556.7M348.932 507H398.636M348.932 556.7V606.4M348.932 556.7H398.636M348.932 606.4V656.1M348.932 606.4H398.636M348.932 656.1V705.8M348.932 656.1H398.636M348.932 705.8V755.5M348.932 705.8H398.636M348.932 755.5V805.2M348.932 755.5H398.636M348.932 805.2V854.9M348.932 805.2H398.636M348.932 854.9V904.6M348.932 854.9H398.636M348.932 904.6V954.3M348.932 904.6H398.636M348.932 954.3V1004M348.932 954.3H398.636M348.932 1004H398.636M398.636 10V59.7M398.636 10H448.341M398.636 59.7V109.4M398.636 59.7H448.341M398.636 109.4V159.1M398.636 109.4H448.341M398.636 159.1V208.8M398.636 159.1H448.341M398.636 208.8V258.5M398.636 208.8H448.341M398.636 258.5V308.2M398.636 258.5H448.341M398.636 308.2V357.9M398.636 308.2H448.341M398.636 357.9V407.6M398.636 357.9H448.341M398.636 407.6V457.3M398.636 407.6H448.341M398.636 457.3V507M398.636 457.3H448.341M398.636 507V556.7M398.636 507H448.341M398.636 556.7V606.4M398.636 556.7H448.341M398.636 606.4V656.1M398.636 606.4H448.341M398.636 656.1V705.8M398.636 656.1H448.341M398.636 705.8V755.5M398.636 705.8H448.341M398.636 755.5V805.2M398.636 755.5H448.341M398.636 805.2V854.9M398.636 805.2H448.341M398.636 854.9V904.6M398.636 854.9H448.341M398.636 904.6V954.3M398.636 904.6H448.341M398.636 954.3V1004M398.636 954.3H448.341M398.636 1004H448.341M448.341 10V59.7M448.341 10H498.045M448.341 59.7V109.4M448.341 59.7H498.045M448.341 109.4V159.1M448.341 109.4H498.045M448.341 159.1V208.8M448.341 159.1H498.045M448.341 208.8V258.5M448.341 208.8H498.045M448.341 258.5V308.2M448.341 258.5H498.045M448.341 308.2V357.9M448.341 308.2H498.045M448.341 357.9V407.6M448.341 357.9H498.045M448.341 407.6V457.3M448.341 407.6H498.045M448.341 457.3V507M448.341 457.3H498.045M448.341 507V556.7M448.341 507H498.045M448.341 556.7V606.4M448.341 556.7H498.045M448.341 606.4V656.1M448.341 606.4H498.045M448.341 656.1V705.8M448.341 656.1H498.045M448.341 705.8V755.5M448.341 705.8H498.045M448.341 755.5V805.2M448.341 755.5H498.045M448.341 805.2V854.9M448.341 805.2H498.045M448.341 854.9V904.6M448.341 854.9H498.045M448.341 904.6V954.3M448.341 904.6H498.045M448.341 954.3V1004M448.341 954.3H498.045M448.341 1004H498.045M498.045 10V59.7M498.045 10H547.75M498.045 59.7V109.4M498.045 59.7H547.75M498.045 109.4V159.1M498.045 109.4H547.75M498.045 159.1V208.8M498.045 159.1H547.75M498.045 208.8V258.5M498.045 208.8H547.75M498.045 258.5V308.2M498.045 258.5H547.75M498.045 308.2V357.9M498.045 308.2H547.75M498.045 357.9V407.6M498.045 357.9H547.75M498.045 407.6V457.3M498.045 407.6H547.75M498.045 457.3V507M498.045 457.3H547.75M498.045 507V556.7M498.045 507H547.75M498.045 556.7V606.4M498.045 556.7H547.75M498.045 606.4V656.1M498.045 606.4H547.75M498.045 656.1V705.8M498.045 656.1H547.75M498.045 705.8V755.5M498.045 705.8H547.75M498.045 755.5V805.2M498.045 755.5H547.75M498.045 805.2V854.9M498.045 805.2H547.75M498.045 854.9V904.6M498.045 854.9H547.75M498.045 904.6V954.3M498.045 904.6H547.75M498.045 954.3V1004M498.045 954.3H547.75M498.045 1004H547.75M547.75 10V59.7M547.75 10H597.455M547.75 59.7V109.4M547.75 59.7H597.455M547.75 109.4V159.1M547.75 109.4H597.455M547.75 159.1V208.8M547.75 159.1H597.455M547.75 208.8V258.5M547.75 208.8H597.455M547.75 258.5V308.2M547.75 258.5H597.455M547.75 308.2V357.9M547.75 308.2H597.455M547.75 357.9V407.6M547.75 357.9H597.455M547.75 407.6V457.3M547.75 407.6H597.455M547.75 457.3V507M547.75 457.3H597.455M547.75 507V556.7M547.75 507H597.455M547.75 556.7V606.4M547.75 556.7H597.455M547.75 606.4V656.1M547.75 606.4H597.455M547.75 656.1V705.8M547.75 656.1H597.455M547.75 705.8V755.5M547.75 705.8H597.455M547.75 755.5V805.2M547.75 755.5H597.455M547.75 805.2V854.9M547.75 805.2H597.455M547.75 854.9V904.6M547.75 854.9H597.455M547.75 904.6V954.3M547.75 904.6H597.455M547.75 954.3V1004M547.75 954.3H597.455M547.75 1004H597.455M597.455 10V59.7M597.455 10H647.159M597.455 59.7V109.4M597.455 59.7H647.159M597.455 109.4V159.1M597.455 109.4H647.159M597.455 159.1V208.8M597.455 159.1H647.159M597.455 208.8V258.5M597.455 208.8H647.159M597.455 258.5V308.2M597.455 258.5H647.159M597.455 308.2V357.9M597.455 308.2H647.159M597.455 357.9V407.6M597.455 357.9H647.159M597.455 407.6V457.3M597.455 407.6H647.159M597.455 457.3V507M597.455 457.3H647.159M597.455 507V556.7M597.455 507H647.159M597.455 556.7V606.4M597.455 556.7H647.159M597.455 606.4V656.1M597.455 606.4H647.159M597.455 656.1V705.8M597.455 656.1H647.159M597.455 705.8V755.5M597.455 705.8H647.159M597.455 755.5V805.2M597.455 755.5H647.159M597.455 805.2V854.9M597.455 805.2H647.159M597.455 854.9V904.6M597.455 854.9H647.159M597.455 904.6V954.3M597.455 904.6H647.159M597.455 954.3V1004M597.455 954.3H647.159M597.455 1004H647.159M647.159 10V59.7M647.159 10H696.864M647.159 59.7V109.4M647.159 59.7H696.864M647.159 109.4V159.1M647.159 109.4H696.864M647.159 159.1V208.8M647.159 159.1H696.864M647.159 208.8V258.5M647.159 208.8H696.864M647.159 258.5V308.2M647.159 258.5H696.864M647.159 308.2V357.9M647.159 308.2H696.864M647.159 357.9V407.6M647.159 357.9H696.864M647.159 407.6V457.3M647.159 407.6H696.864M647.159 457.3V507M647.159 457.3H696.864M647.159 507V556.7M647.159 507H696.864M647.159 556.7V606.4M647.159 556.7H696.864M647.159 606.4V656.1M647.159 606.4H696.864M647.159 656.1V705.8M647.159 656.1H696.864M647.159 705.8V755.5M647.159 705.8H696.864M647.159 755.5V805.2M647.159 755.5H696.864M647.159 805.2V854.9M647.159 805.2H696.864M647.159 854.9V904.6M647.159 854.9H696.864M647.159 904.6V954.3M647.159 904.6H696.864M647.159 954.3V1004M647.159 954.3H696.864M647.159 1004H696.864M696.864 10V59.7M696.864 10H746.568M696.864 59.7V109.4M696.864 59.7H746.568M696.864 109.4V159.1M696.864 109.4H746.568M696.864 159.1V208.8M696.864 159.1H746.568M696.864 208.8V258.5M696.864 208.8H746.568M696.864 258.5V308.2M696.864 258.5H746.568M696.864 308.2V357.9M696.864 308.2H746.568M696.864 357.9V407.6M696.864 357.9H746.568M696.864 407.6V457.3M696.864 407.6H746.568M696.864 457.3V507M696.864 457.3H746.568M696.864 507V556.7M696.864 507H746.568M696.864 556.7V606.4M696.864 556.7H746.568M696.864 606.4V656.1M696.864 606.4H746.568M696.864 656.1V705.8M696.864 656.1H746.568M696.864 705.8V755.5M696.864 705.8H746.568M696.864 755.5V805.2M696.864 755.5H746.568M696.864 805.2V854.9M696.864 805.2H746.568M696.864 854.9V904.6M696.864 854.9H746.568M696.864 904.6V954.3M696.864 904.6H746.568M696.864 954.3V1004M696.864 954.3H746.568M696.864 1004H746.568M746.568 10V59.7M746.568 10H796.273M746.568 59.7V109.4M746.568 59.7H796.273M746.568 109.4V159.1M746.568 109.4H796.273M746.568 159.1V208.8M746.568 159.1H796.273M746.568 208.8V258.5M746.568 208.8H796.273M746.568 258.5V308.2M746.568 258.5H796.273M746.568 308.2V357.9M746.568 308.2H796.273M746.568 357.9V407.6M746.568 357.9H796.273M746.568 407.6V457.3M746.568 407.6H796.273M746.568 457.3V507M746.568 457.3H796.273M746.568 507V556.7M746.568 507H796.273M746.568 556.7V606.4M746.568 556.7H796.273M746.568 606.4V656.1M746.568 606.4H796.273M746.568 656.1V705.8M746.568 656.1H796.273M746.568 705.8V755.5M746.568 705.8H796.273M746.568 755.5V805.2M746.568 755.5H796.273M746.568 805.2V854.9M746.568 805.2H796.273M746.568 854.9V904.6M746.568 854.9H796.273M746.568 904.6V954.3M746.568 904.6H796.273M746.568 954.3V1004M746.568 954.3H796.273M746.568 1004H796.273M796.273 10V59.7M796.273 10H845.977M796.273 59.7V109.4M796.273 59.7H845.977M796.273 109.4V159.1M796.273 109.4H845.977M796.273 159.1V208.8M796.273 159.1H845.977M796.273 208.8V258.5M796.273 208.8H845.977M796.273 258.5V308.2M796.273 258.5H845.977M796.273 308.2V357.9M796.273 308.2H845.977M796.273 357.9V407.6M796.273 357.9H845.977M796.273 407.6V457.3M796.273 407.6H845.977M796.273 457.3V507M796.273 457.3H845.977M796.273 507V556.7M796.273 507H845.977M796.273 556.7V606.4M796.273 556.7H845.977M796.273 606.4V656.1M796.273 606.4H845.977M796.273 656.1V705.8M796.273 656.1H845.977M796.273 705.8V755.5M796.273 705.8H845.977M796.273 755.5V805.2M796.273 755.5H845.977M796.273 805.2V854.9M796.273 805.2H845.977M796.273 854.9V904.6M796.273 854.9H845.977M796.273 904.6V954.3M796.273 904.6H845.977M796.273 954.3V1004M796.273 954.3H845.977M796.273 1004H845.977M845.977 10V59.7M845.977 10H895.682M845.977 59.7V109.4M845.977 59.7H895.682M845.977 109.4V159.1M845.977 109.4H895.682M845.977 159.1V208.8M845.977 159.1H895.682M845.977 208.8V258.5M845.977 208.8H895.682M845.977 258.5V308.2M845.977 258.5H895.682M845.977 308.2V357.9M845.977 308.2H895.682M845.977 357.9V407.6M845.977 357.9H895.682M845.977 407.6V457.3M845.977 407.6H895.682M845.977 457.3V507M845.977 457.3H895.682M845.977 507V556.7M845.977 507H895.682M845.977 556.7V606.4M845.977 556.7H895.682M845.977 606.4V656.1M845.977 606.4H895.682M845.977 656.1V705.8M845.977 656.1H895.682M845.977 705.8V755.5M845.977 705.8H895.682M845.977 755.5V805.2M845.977 755.5H895.682M845.977 805.2V854.9M845.977 805.2H895.682M845.977 854.9V904.6M845.977 854.9H895.682M845.977 904.6V954.3M845.977 904.6H895.682M845.977 954.3V1004M845.977 954.3H895.682M845.977 1004H895.682M895.682 10V59.7M895.682 10H945.386M895.682 59.7V109.4M895.682 59.7H945.386M895.682 109.4V159.1M895.682 109.4H945.386M895.682 159.1V208.8M895.682 159.1H945.386M895.682 208.8V258.5M895.682 208.8H945.386M895.682 258.5V308.2M895.682 258.5H945.386M895.682 308.2V357.9M895.682 308.2H945.386M895.682 357.9V407.6M895.682 357.9H945.386M895.682 407.6V457.3M895.682 407.6H945.386M895.682 457.3V507M895.682 457.3H945.386M895.682 507V556.7M895.682 507H945.386M895.682 556.7V606.4M895.682 556.7H945.386M895.682 606.4V656.1M895.682 606.4H945.386M895.682 656.1V705.8M895.682 656.1H945.386M895.682 705.8V755.5M895.682 705.8H945.386M895.682 755.5V805.2M895.682 755.5H945.386M895.682 805.2V854.9M895.682 805.2H945.386M895.682 854.9V904.6M895.682 854.9H945.386M895.682 904.6V954.3M895.682 904.6H945.386M895.682 954.3V1004M895.682 954.3H945.386M895.682 1004H945.386M945.386 10V59.7M945.386 10H995.091M945.386 59.7V109.4M945.386 59.7H995.091M945.386 109.4V159.1M945.386 109.4H995.091M945.386 159.1V208.8M945.386 159.1H995.091M945.386 208.8V258.5M945.386 208.8H995.091M945.386 258.5V308.2M945.386 258.5H995.091M945.386 308.2V357.9M945.386 308.2H995.091M945.386 357.9V407.6M945.386 357.9H995.091M945.386 407.6V457.3M945.386 407.6H995.091M945.386 457.3V507M945.386 457.3H995.091M945.386 507V556.7M945.386 507H995.091M945.386 556.7V606.4M945.386 556.7H995.091M945.386 606.4V656.1M945.386 606.4H995.091M945.386 656.1V705.8M945.386 656.1H995.091M945.386 705.8V755.5M945.386 705.8H995.091M945.386 755.5V805.2M945.386 755.5H995.091M945.386 805.2V854.9M945.386 805.2H995.091M945.386 854.9V904.6M945.386 854.9H995.091M945.386 904.6V954.3M945.386 904.6H995.091M945.386 954.3V1004M945.386 954.3H995.091M945.386 1004H995.091M995.091 10V59.7M995.091 10H1044.8M995.091 59.7V109.4M995.091 59.7H1044.8M995.091 109.4V159.1M995.091 109.4H1044.8M995.091 159.1V208.8M995.091 159.1H1044.8M995.091 208.8V258.5M995.091 208.8H1044.8M995.091 258.5V308.2M995.091 258.5H1044.8M995.091 308.2V357.9M995.091 308.2H1044.8M995.091 357.9V407.6M995.091 357.9H1044.8M995.091 407.6V457.3M995.091 407.6H1044.8M995.091 457.3V507M995.091 457.3H1044.8M995.091 507V556.7M995.091 507H1044.8M995.091 556.7V606.4M995.091 556.7H1044.8M995.091 606.4V656.1M995.091 606.4H1044.8M995.091 656.1V705.8M995.091 656.1H1044.8M995.091 705.8V755.5M995.091 705.8H1044.8M995.091 755.5V805.2M995.091 755.5H1044.8M995.091 805.2V854.9M995.091 805.2H1044.8M995.091 854.9V904.6M995.091 854.9H1044.8M995.091 904.6V954.3M995.091 904.6H1044.8M995.091 954.3V1004M995.091 954.3H1044.8M995.091 1004H1044.8M1044.8 10V59.7M1044.8 10H1094.5M1044.8 59.7V109.4M1044.8 59.7H1094.5M1044.8 109.4V159.1M1044.8 109.4H1094.5M1044.8 159.1V208.8M1044.8 159.1H1094.5M1044.8 208.8V258.5M1044.8 208.8H1094.5M1044.8 258.5V308.2M1044.8 258.5H1094.5M1044.8 308.2V357.9M1044.8 308.2H1094.5M1044.8 357.9V407.6M1044.8 357.9H1094.5M1044.8 407.6V457.3M1044.8 407.6H1094.5M1044.8 457.3V507M1044.8 457.3H1094.5M1044.8 507V556.7M1044.8 507H1094.5M1044.8 556.7V606.4M1044.8 556.7H1094.5M1044.8 606.4V656.1M1044.8 606.4H1094.5M1044.8 656.1V705.8M1044.8 656.1H1094.5M1044.8 705.8V755.5M1044.8 705.8H1094.5M1044.8 755.5V805.2M1044.8 755.5H1094.5M1044.8 805.2V854.9M1044.8 805.2H1094.5M1044.8 854.9V904.6M1044.8 854.9H1094.5M1044.8 904.6V954.3M1044.8 904.6H1094.5M1044.8 954.3V1004M1044.8 954.3H1094.5M1044.8 1004H1094.5M1094.5 10V59.7M1094.5 10H1144.2M1094.5 59.7V109.4M1094.5 59.7H1144.2M1094.5 109.4V159.1M1094.5 109.4H1144.2M1094.5 159.1V208.8M1094.5 159.1H1144.2M1094.5 208.8V258.5M1094.5 208.8H1144.2M1094.5 258.5V308.2M1094.5 258.5H1144.2M1094.5 308.2V357.9M1094.5 308.2H1144.2M1094.5 357.9V407.6M1094.5 357.9H1144.2M1094.5 407.6V457.3M1094.5 407.6H1144.2M1094.5 457.3V507M1094.5 457.3H1144.2M1094.5 507V556.7M1094.5 507H1144.2M1094.5 556.7V606.4M1094.5 556.7H1144.2M1094.5 606.4V656.1M1094.5 606.4H1144.2M1094.5 656.1V705.8M1094.5 656.1H1144.2M1094.5 705.8V755.5M1094.5 705.8H1144.2M1094.5 755.5V805.2M1094.5 755.5H1144.2M1094.5 805.2V854.9M1094.5 805.2H1144.2M1094.5 854.9V904.6M1094.5 854.9H1144.2M1094.5 904.6V954.3M1094.5 904.6H1144.2M1094.5 954.3V1004M1094.5 954.3H1144.2M1094.5 1004H1144.2M1144.2 10V59.7M1144.2 10H1193.91M1144.2 59.7V109.4M1144.2 59.7H1193.91M1144.2 109.4V159.1M1144.2 109.4H1193.91M1144.2 159.1V208.8M1144.2 159.1H1193.91M1144.2 208.8V258.5M1144.2 208.8H1193.91M1144.2 258.5V308.2M1144.2 258.5H1193.91M1144.2 308.2V357.9M1144.2 308.2H1193.91M1144.2 357.9V407.6M1144.2 357.9H1193.91M1144.2 407.6V457.3M1144.2 407.6H1193.91M1144.2 457.3V507M1144.2 457.3H1193.91M1144.2 507V556.7M1144.2 507H1193.91M1144.2 556.7V606.4M1144.2 556.7H1193.91M1144.2 606.4V656.1M1144.2 606.4H1193.91M1144.2 656.1V705.8M1144.2 656.1H1193.91M1144.2 705.8V755.5M1144.2 705.8H1193.91M1144.2 755.5V805.2M1144.2 755.5H1193.91M1144.2 805.2V854.9M1144.2 805.2H1193.91M1144.2 854.9V904.6M1144.2 854.9H1193.91M1144.2 904.6V954.3M1144.2 904.6H1193.91M1144.2 954.3V1004M1144.2 954.3H1193.91M1144.2 1004H1193.91M1193.91 10V59.7M1193.91 10H1243.61M1193.91 59.7V109.4M1193.91 59.7H1243.61M1193.91 109.4V159.1M1193.91 109.4H1243.61M1193.91 159.1V208.8M1193.91 159.1H1243.61M1193.91 208.8V258.5M1193.91 208.8H1243.61M1193.91 258.5V308.2M1193.91 258.5H1243.61M1193.91 308.2V357.9M1193.91 308.2H1243.61M1193.91 357.9V407.6M1193.91 357.9H1243.61M1193.91 407.6V457.3M1193.91 407.6H1243.61M1193.91 457.3V507M1193.91 457.3H1243.61M1193.91 507V556.7M1193.91 507H1243.61M1193.91 556.7V606.4M1193.91 556.7H1243.61M1193.91 606.4V656.1M1193.91 606.4H1243.61M1193.91 656.1V705.8M1193.91 656.1H1243.61M1193.91 705.8V755.5M1193.91 705.8H1243.61M1193.91 755.5V805.2M1193.91 755.5H1243.61M1193.91 805.2V854.9M1193.91 805.2H1243.61M1193.91 854.9V904.6M1193.91 854.9H1243.61M1193.91 904.6V954.3M1193.91 904.6H1243.61M1193.91 954.3V1004M1193.91 954.3H1243.61M1193.91 1004H1243.61M1243.61 10V59.7M1243.61 10H1293.32M1243.61 59.7V109.4M1243.61 59.7H1293.32M1243.61 109.4V159.1M1243.61 109.4H1293.32M1243.61 159.1V208.8M1243.61 159.1H1293.32M1243.61 208.8V258.5M1243.61 208.8H1293.32M1243.61 258.5V308.2M1243.61 258.5H1293.32M1243.61 308.2V357.9M1243.61 308.2H1293.32M1243.61 357.9V407.6M1243.61 357.9H1293.32M1243.61 407.6V457.3M1243.61 407.6H1293.32M1243.61 457.3V507M1243.61 457.3H1293.32M1243.61 507V556.7M1243.61 507H1293.32M1243.61 556.7V606.4M1243.61 556.7H1293.32M1243.61 606.4V656.1M1243.61 606.4H1293.32M1243.61 656.1V705.8M1243.61 656.1H1293.32M1243.61 705.8V755.5M1243.61 705.8H1293.32M1243.61 755.5V805.2M1243.61 755.5H1293.32M1243.61 805.2V854.9M1243.61 805.2H1293.32M1243.61 854.9V904.6M1243.61 854.9H1293.32M1243.61 904.6V954.3M1243.61 904.6H1293.32M1243.61 954.3V1004M1243.61 954.3H1293.32M1243.61 1004H1293.32M1293.32 10V59.7M1293.32 10H1343.02M1293.32 59.7V109.4M1293.32 59.7H1343.02M1293.32 109.4V159.1M1293.32 109.4H1343.02M1293.32 159.1V208.8M1293.32 159.1H1343.02M1293.32 208.8V258.5M1293.32 208.8H1343.02M1293.32 258.5V308.2M1293.32 258.5H1343.02M1293.32 308.2V357.9M1293.32 308.2H1343.02M1293.32 357.9V407.6M1293.32 357.9H1343.02M1293.32 407.6V457.3M1293.32 407.6H1343.02M1293.32 457.3V507M1293.32 457.3H1343.02M1293.32 507V556.7M1293.32 507H1343.02M1293.32 556.7V606.4M1293.32 556.7H1343.02M1293.32 606.4V656.1M1293.32 606.4H1343.02M1293.32 656.1V705.8M1293.32 656.1H1343.02M1293.32 705.8V755.5M1293.32 705.8H1343.02M1293.32 755.5V805.2M1293.32 755.5H1343.02M1293.32 805.2V854.9M1293.32 805.2H1343.02M1293.32 854.9V904.6M1293.32 854.9H1343.02M1293.32 904.6V954.3M1293.32 904.6H1343.02M1293.32 954.3V1004M1293.32 954.3H1343.02M1293.32 1004H1343.02M1343.02 10V59.7M1343.02 10H1392.73M1343.02 59.7V109.4M1343.02 59.7H1392.73M1343.02 109.4V159.1M1343.02 109.4H1392.73M1343.02 159.1V208.8M1343.02 159.1H1392.73M1343.02 208.8V258.5M1343.02 208.8H1392.73M1343.02 258.5V308.2M1343.02 258.5H1392.73M1343.02 308.2V357.9M1343.02 308.2H1392.73M1343.02 357.9V407.6M1343.02 357.9H1392.73M1343.02 407.6V457.3M1343.02 407.6H1392.73M1343.02 457.3V507M1343.02 457.3H1392.73M1343.02 507V556.7M1343.02 507H1392.73M1343.02 556.7V606.4M1343.02 556.7H1392.73M1343.02 606.4V656.1M1343.02 606.4H1392.73M1343.02 656.1V705.8M1343.02 656.1H1392.73M1343.02 705.8V755.5M1343.02 705.8H1392.73M1343.02 755.5V805.2M1343.02 755.5H1392.73M1343.02 805.2V854.9M1343.02 805.2H1392.73M1343.02 854.9V904.6M1343.02 854.9H1392.73M1343.02 904.6V954.3M1343.02 904.6H1392.73M1343.02 954.3V1004M1343.02 954.3H1392.73M1343.02 1004H1392.73M1392.73 10V59.7M1392.73 10H1442.43M1392.73 59.7V109.4M1392.73 59.7H1442.43M1392.73 109.4V159.1M1392.73 109.4H1442.43M1392.73 159.1V208.8M1392.73 159.1H1442.43M1392.73 208.8V258.5M1392.73 208.8H1442.43M1392.73 258.5V308.2M1392.73 258.5H1442.43M1392.73 308.2V357.9M1392.73 308.2H1442.43M1392.73 357.9V407.6M1392.73 357.9H1442.43M1392.73 407.6V457.3M1392.73 407.6H1442.43M1392.73 457.3V507M1392.73 457.3H1442.43M1392.73 507V556.7M1392.73 507H1442.43M1392.73 556.7V606.4M1392.73 556.7H1442.43M1392.73 606.4V656.1M1392.73 606.4H1442.43M1392.73 656.1V705.8M1392.73 656.1H1442.43M1392.73 705.8V755.5M1392.73 705.8H1442.43M1392.73 755.5V805.2M1392.73 755.5H1442.43M1392.73 805.2V854.9M1392.73 805.2H1442.43M1392.73 854.9V904.6M1392.73 854.9H1442.43M1392.73 904.6V954.3M1392.73 904.6H1442.43M1392.73 954.3V1004M1392.73 954.3H1442.43M1392.73 1004H1442.43M1442.43 10V59.7M1442.43 10H1492.14M1442.43 59.7V109.4M1442.43 59.7H1492.14M1442.43 109.4V159.1M1442.43 109.4H1492.14M1442.43 159.1V208.8M1442.43 159.1H1492.14M1442.43 208.8V258.5M1442.43 208.8H1492.14M1442.43 258.5V308.2M1442.43 258.5H1492.14M1442.43 308.2V357.9M1442.43 308.2H1492.14M1442.43 357.9V407.6M1442.43 357.9H1492.14M1442.43 407.6V457.3M1442.43 407.6H1492.14M1442.43 457.3V507M1442.43 457.3H1492.14M1442.43 507V556.7M1442.43 507H1492.14M1442.43 556.7V606.4M1442.43 556.7H1492.14M1442.43 606.4V656.1M1442.43 606.4H1492.14M1442.43 656.1V705.8M1442.43 656.1H1492.14M1442.43 705.8V755.5M1442.43 705.8H1492.14M1442.43 755.5V805.2M1442.43 755.5H1492.14M1442.43 805.2V854.9M1442.43 805.2H1492.14M1442.43 854.9V904.6M1442.43 854.9H1492.14M1442.43 904.6V954.3M1442.43 904.6H1492.14M1442.43 954.3V1004M1442.43 954.3H1492.14M1442.43 1004H1492.14M1492.14 10V59.7M1492.14 10H1541.84M1492.14 59.7V109.4M1492.14 59.7H1541.84M1492.14 109.4V159.1M1492.14 109.4H1541.84M1492.14 159.1V208.8M1492.14 159.1H1541.84M1492.14 208.8V258.5M1492.14 208.8H1541.84M1492.14 258.5V308.2M1492.14 258.5H1541.84M1492.14 308.2V357.9M1492.14 308.2H1541.84M1492.14 357.9V407.6M1492.14 357.9H1541.84M1492.14 407.6V457.3M1492.14 407.6H1541.84M1492.14 457.3V507M1492.14 457.3H1541.84M1492.14 507V556.7M1492.14 507H1541.84M1492.14 556.7V606.4M1492.14 556.7H1541.84M1492.14 606.4V656.1M1492.14 606.4H1541.84M1492.14 656.1V705.8M1492.14 656.1H1541.84M1492.14 705.8V755.5M1492.14 705.8H1541.84M1492.14 755.5V805.2M1492.14 755.5H1541.84M1492.14 805.2V854.9M1492.14 805.2H1541.84M1492.14 854.9V904.6M1492.14 854.9H1541.84M1492.14 904.6V954.3M1492.14 904.6H1541.84M1492.14 954.3V1004M1492.14 954.3H1541.84M1492.14 1004H1541.84M1541.84 10V59.7M1541.84 10H1591.55M1541.84 59.7V109.4M1541.84 59.7H1591.55M1541.84 109.4V159.1M1541.84 109.4H1591.55M1541.84 159.1V208.8M1541.84 159.1H1591.55M1541.84 208.8V258.5M1541.84 208.8H1591.55M1541.84 258.5V308.2M1541.84 258.5H1591.55M1541.84 308.2V357.9M1541.84 308.2H1591.55M1541.84 357.9V407.6M1541.84 357.9H1591.55M1541.84 407.6V457.3M1541.84 407.6H1591.55M1541.84 457.3V507M1541.84 457.3H1591.55M1541.84 507V556.7M1541.84 507H1591.55M1541.84 556.7V606.4M1541.84 556.7H1591.55M1541.84 606.4V656.1M1541.84 606.4H1591.55M1541.84 656.1V705.8M1541.84 656.1H1591.55M1541.84 705.8V755.5M1541.84 705.8H1591.55M1541.84 755.5V805.2M1541.84 755.5H1591.55M1541.84 805.2V854.9M1541.84 805.2H1591.55M1541.84 854.9V904.6M1541.84 854.9H1591.55M1541.84 904.6V954.3M1541.84 904.6H1591.55M1541.84 954.3V1004M1541.84 954.3H1591.55M1541.84 1004H1591.55M1591.55 10V59.7M1591.55 10H1641.25M1591.55 59.7V109.4M1591.55 59.7H1641.25M1591.55 109.4V159.1M1591.55 109.4H1641.25M1591.55 159.1V208.8M1591.55 159.1H1641.25M1591.55 208.8V258.5M1591.55 208.8H1641.25M1591.55 258.5V308.2M1591.55 258.5H1641.25M1591.55 308.2V357.9M1591.55 308.2H1641.25M1591.55 357.9V407.6M1591.55 357.9H1641.25M1591.55 407.6V457.3M1591.55 407.6H1641.25M1591.55 457.3V507M1591.55 457.3H1641.25M1591.55 507V556.7M1591.55 507H1641.25M1591.55 556.7V606.4M1591.55 556.7H1641.25M1591.55 606.4V656.1M1591.55 606.4H1641.25M1591.55 656.1V705.8M1591.55 656.1H1641.25M1591.55 705.8V755.5M1591.55 705.8H1641.25M1591.55 755.5V805.2M1591.55 755.5H1641.25M1591.55 805.2V854.9M1591.55 805.2H1641.25M1591.55 854.9V904.6M1591.55 854.9H1641.25M1591.55 904.6V954.3M1591.55 904.6H1641.25M1591.55 954.3V1004M1591.55 954.3H1641.25M1591.55 1004H1641.25M1641.25 10V59.7M1641.25 10H1690.95M1641.25 59.7V109.4M1641.25 59.7H1690.95M1641.25 109.4V159.1M1641.25 109.4H1690.95M1641.25 159.1V208.8M1641.25 159.1H1690.95M1641.25 208.8V258.5M1641.25 208.8H1690.95M1641.25 258.5V308.2M1641.25 258.5H1690.95M1641.25 308.2V357.9M1641.25 308.2H1690.95M1641.25 357.9V407.6M1641.25 357.9H1690.95M1641.25 407.6V457.3M1641.25 407.6H1690.95M1641.25 457.3V507M1641.25 457.3H1690.95M1641.25 507V556.7M1641.25 507H1690.95M1641.25 556.7V606.4M1641.25 556.7H1690.95M1641.25 606.4V656.1M1641.25 606.4H1690.95M1641.25 656.1V705.8M1641.25 656.1H1690.95M1641.25 705.8V755.5M1641.25 705.8H1690.95M1641.25 755.5V805.2M1641.25 755.5H1690.95M1641.25 805.2V854.9M1641.25 805.2H1690.95M1641.25 854.9V904.6M1641.25 854.9H1690.95M1641.25 904.6V954.3M1641.25 904.6H1690.95M1641.25 954.3V1004M1641.25 954.3H1690.95M1641.25 1004H1690.95M1690.95 10V59.7M1690.95 10H1740.66M1690.95 59.7V109.4M1690.95 59.7H1740.66M1690.95 109.4V159.1M1690.95 109.4H1740.66M1690.95 159.1V208.8M1690.95 159.1H1740.66M1690.95 208.8V258.5M1690.95 208.8H1740.66M1690.95 258.5V308.2M1690.95 258.5H1740.66M1690.95 308.2V357.9M1690.95 308.2H1740.66M1690.95 357.9V407.6M1690.95 357.9H1740.66M1690.95 407.6V457.3M1690.95 407.6H1740.66M1690.95 457.3V507M1690.95 457.3H1740.66M1690.95 507V556.7M1690.95 507H1740.66M1690.95 556.7V606.4M1690.95 556.7H1740.66M1690.95 606.4V656.1M1690.95 606.4H1740.66M1690.95 656.1V705.8M1690.95 656.1H1740.66M1690.95 705.8V755.5M1690.95 705.8H1740.66M1690.95 755.5V805.2M1690.95 755.5H1740.66M1690.95 805.2V854.9M1690.95 805.2H1740.66M1690.95 854.9V904.6M1690.95 854.9H1740.66M1690.95 904.6V954.3M1690.95 904.6H1740.66M1690.95 954.3V1004M1690.95 954.3H1740.66M1690.95 1004H1740.66M1740.66 10V59.7M1740.66 10H1790.36M1740.66 59.7V109.4M1740.66 59.7H1790.36M1740.66 109.4V159.1M1740.66 109.4H1790.36M1740.66 159.1V208.8M1740.66 159.1H1790.36M1740.66 208.8V258.5M1740.66 208.8H1790.36M1740.66 258.5V308.2M1740.66 258.5H1790.36M1740.66 308.2V357.9M1740.66 308.2H1790.36M1740.66 357.9V407.6M1740.66 357.9H1790.36M1740.66 407.6V457.3M1740.66 407.6H1790.36M1740.66 457.3V507M1740.66 457.3H1790.36M1740.66 507V556.7M1740.66 507H1790.36M1740.66 556.7V606.4M1740.66 556.7H1790.36M1740.66 606.4V656.1M1740.66 606.4H1790.36M1740.66 656.1V705.8M1740.66 656.1H1790.36M1740.66 705.8V755.5M1740.66 705.8H1790.36M1740.66 755.5V805.2M1740.66 755.5H1790.36M1740.66 805.2V854.9M1740.66 805.2H1790.36M1740.66 854.9V904.6M1740.66 854.9H1790.36M1740.66 904.6V954.3M1740.66 904.6H1790.36M1740.66 954.3V1004M1740.66 954.3H1790.36M1740.66 1004H1790.36M1790.36 10V59.7M1790.36 10H1840.07M1790.36 59.7V109.4M1790.36 59.7H1840.07M1790.36 109.4V159.1M1790.36 109.4H1840.07M1790.36 159.1V208.8M1790.36 159.1H1840.07M1790.36 208.8V258.5M1790.36 208.8H1840.07M1790.36 258.5V308.2M1790.36 258.5H1840.07M1790.36 308.2V357.9M1790.36 308.2H1840.07M1790.36 357.9V407.6M1790.36 357.9H1840.07M1790.36 407.6V457.3M1790.36 407.6H1840.07M1790.36 457.3V507M1790.36 457.3H1840.07M1790.36 507V556.7M1790.36 507H1840.07M1790.36 556.7V606.4M1790.36 556.7H1840.07M1790.36 606.4V656.1M1790.36 606.4H1840.07M1790.36 656.1V705.8M1790.36 656.1H1840.07M1790.36 705.8V755.5M1790.36 705.8H1840.07M1790.36 755.5V805.2M1790.36 755.5H1840.07M1790.36 805.2V854.9M1790.36 805.2H1840.07M1790.36 854.9V904.6M1790.36 854.9H1840.07M1790.36 904.6V954.3M1790.36 904.6H1840.07M1790.36 954.3V1004M1790.36 954.3H1840.07M1790.36 1004H1840.07M1840.07 10V59.7M1840.07 10H1889.77M1840.07 59.7V109.4M1840.07 59.7H1889.77M1840.07 109.4V159.1M1840.07 109.4H1889.77M1840.07 159.1V208.8M1840.07 159.1H1889.77M1840.07 208.8V258.5M1840.07 208.8H1889.77M1840.07 258.5V308.2M1840.07 258.5H1889.77M1840.07 308.2V357.9M1840.07 308.2H1889.77M1840.07 357.9V407.6M1840.07 357.9H1889.77M1840.07 407.6V457.3M1840.07 407.6H1889.77M1840.07 457.3V507M1840.07 457.3H1889.77M1840.07 507V556.7M1840.07 507H1889.77M1840.07 556.7V606.4M1840.07 556.7H1889.77M1840.07 606.4V656.1M1840.07 606.4H1889.77M1840.07 656.1V705.8M1840.07 656.1H1889.77M1840.07 705.8V755.5M1840.07 705.8H1889.77M1840.07 755.5V805.2M1840.07 755.5H1889.77M1840.07 805.2V854.9M1840.07 805.2H1889.77M1840.07 854.9V904.6M1840.07 854.9H1889.77M1840.07 904.6V954.3M1840.07 904.6H1889.77M1840.07 954.3V1004M1840.07 954.3H1889.77M1840.07 1004H1889.77M1889.77 10V59.7M1889.77 10H1939.48M1889.77 59.7V109.4M1889.77 59.7H1939.48M1889.77 109.4V159.1M1889.77 109.4H1939.48M1889.77 159.1V208.8M1889.77 159.1H1939.48M1889.77 208.8V258.5M1889.77 208.8H1939.48M1889.77 258.5V308.2M1889.77 258.5H1939.48M1889.77 308.2V357.9M1889.77 308.2H1939.48M1889.77 357.9V407.6M1889.77 357.9H1939.48M1889.77 407.6V457.3M1889.77 407.6H1939.48M1889.77 457.3V507M1889.77 457.3H1939.48M1889.77 507V556.7M1889.77 507H1939.48M1889.77 556.7V606.4M1889.77 556.7H1939.48M1889.77 606.4V656.1M1889.77 606.4H1939.48M1889.77 656.1V705.8M1889.77 656.1H1939.48M1889.77 705.8V755.5M1889.77 705.8H1939.48M1889.77 755.5V805.2M1889.77 755.5H1939.48M1889.77 805.2V854.9M1889.77 805.2H1939.48M1889.77 854.9V904.6M1889.77 854.9H1939.48M1889.77 904.6V954.3M1889.77 904.6H1939.48M1889.77 954.3V1004M1889.77 954.3H1939.48M1889.77 1004H1939.48M1939.48 10V59.7M1939.48 10H1989.18M1939.48 59.7V109.4M1939.48 59.7H1989.18M1939.48 109.4V159.1M1939.48 109.4H1989.18M1939.48 159.1V208.8M1939.48 159.1H1989.18M1939.48 208.8V258.5M1939.48 208.8H1989.18M1939.48 258.5V308.2M1939.48 258.5H1989.18M1939.48 308.2V357.9M1939.48 308.2H1989.18M1939.48 357.9V407.6M1939.48 357.9H1989.18M1939.48 407.6V457.3M1939.48 407.6H1989.18M1939.48 457.3V507M1939.48 457.3H1989.18M1939.48 507V556.7M1939.48 507H1989.18M1939.48 556.7V606.4M1939.48 556.7H1989.18M1939.48 606.4V656.1M1939.48 606.4H1989.18M1939.48 656.1V705.8M1939.48 656.1H1989.18M1939.48 705.8V755.5M1939.48 705.8H1989.18M1939.48 755.5V805.2M1939.48 755.5H1989.18M1939.48 805.2V854.9M1939.48 805.2H1989.18M1939.48 854.9V904.6M1939.48 854.9H1989.18M1939.48 904.6V954.3M1939.48 904.6H1989.18M1939.48 954.3V1004M1939.48 954.3H1989.18M1939.48 1004H1989.18M1989.18 10V59.7M1989.18 10H2038.89M1989.18 59.7V109.4M1989.18 59.7H2038.89M1989.18 109.4V159.1M1989.18 109.4H2038.89M1989.18 159.1V208.8M1989.18 159.1H2038.89M1989.18 208.8V258.5M1989.18 208.8H2038.89M1989.18 258.5V308.2M1989.18 258.5H2038.89M1989.18 308.2V357.9M1989.18 308.2H2038.89M1989.18 357.9V407.6M1989.18 357.9H2038.89M1989.18 407.6V457.3M1989.18 407.6H2038.89M1989.18 457.3V507M1989.18 457.3H2038.89M1989.18 507V556.7M1989.18 507H2038.89M1989.18 556.7V606.4M1989.18 556.7H2038.89M1989.18 606.4V656.1M1989.18 606.4H2038.89M1989.18 656.1V705.8M1989.18 656.1H2038.89M1989.18 705.8V755.5M1989.18 705.8H2038.89M1989.18 755.5V805.2M1989.18 755.5H2038.89M1989.18 805.2V854.9M1989.18 805.2H2038.89M1989.18 854.9V904.6M1989.18 854.9H2038.89M1989.18 904.6V954.3M1989.18 904.6H2038.89M1989.18 954.3V1004M1989.18 954.3H2038.89M1989.18 1004H2038.89M2038.89 10V59.7M2038.89 10H2088.59M2038.89 59.7V109.4M2038.89 59.7H2088.59M2038.89 109.4V159.1M2038.89 109.4H2088.59M2038.89 159.1V208.8M2038.89 159.1H2088.59M2038.89 208.8V258.5M2038.89 208.8H2088.59M2038.89 258.5V308.2M2038.89 258.5H2088.59M2038.89 308.2V357.9M2038.89 308.2H2088.59M2038.89 357.9V407.6M2038.89 357.9H2088.59M2038.89 407.6V457.3M2038.89 407.6H2088.59M2038.89 457.3V507M2038.89 457.3H2088.59M2038.89 507V556.7M2038.89 507H2088.59M2038.89 556.7V606.4M2038.89 556.7H2088.59M2038.89 606.4V656.1M2038.89 606.4H2088.59M2038.89 656.1V705.8M2038.89 656.1H2088.59M2038.89 705.8V755.5M2038.89 705.8H2088.59M2038.89 755.5V805.2M2038.89 755.5H2088.59M2038.89 805.2V854.9M2038.89 805.2H2088.59M2038.89 854.9V904.6M2038.89 854.9H2088.59M2038.89 904.6V954.3M2038.89 904.6H2088.59M2038.89 954.3V1004M2038.89 954.3H2088.59M2038.89 1004H2088.59M2088.59 10V59.7M2088.59 10H2138.3M2088.59 59.7V109.4M2088.59 59.7H2138.3M2088.59 109.4V159.1M2088.59 109.4H2138.3M2088.59 159.1V208.8M2088.59 159.1H2138.3M2088.59 208.8V258.5M2088.59 208.8H2138.3M2088.59 258.5V308.2M2088.59 258.5H2138.3M2088.59 308.2V357.9M2088.59 308.2H2138.3M2088.59 357.9V407.6M2088.59 357.9H2138.3M2088.59 407.6V457.3M2088.59 407.6H2138.3M2088.59 457.3V507M2088.59 457.3H2138.3M2088.59 507V556.7M2088.59 507H2138.3M2088.59 556.7V606.4M2088.59 556.7H2138.3M2088.59 606.4V656.1M2088.59 606.4H2138.3M2088.59 656.1V705.8M2088.59 656.1H2138.3M2088.59 705.8V755.5M2088.59 705.8H2138.3M2088.59 755.5V805.2M2088.59 755.5H2138.3M2088.59 805.2V854.9M2088.59 805.2H2138.3M2088.59 854.9V904.6M2088.59 854.9H2138.3M2088.59 904.6V954.3M2088.59 904.6H2138.3M2088.59 954.3V1004M2088.59 954.3H2138.3M2088.59 1004H2138.3M2138.3 10V59.7M2138.3 10H2188V59.7M2138.3 59.7V109.4M2138.3 59.7H2188M2138.3 109.4V159.1M2138.3 109.4H2188M2138.3 159.1V208.8M2138.3 159.1H2188M2138.3 208.8V258.5M2138.3 208.8H2188M2138.3 258.5V308.2M2138.3 258.5H2188M2138.3 308.2V357.9M2138.3 308.2H2188M2138.3 357.9V407.6M2138.3 357.9H2188M2138.3 407.6V457.3M2138.3 407.6H2188M2138.3 457.3V507M2138.3 457.3H2188M2138.3 507V556.7M2138.3 507H2188M2138.3 556.7V606.4M2138.3 556.7H2188M2138.3 606.4V656.1M2138.3 606.4H2188M2138.3 656.1V705.8M2138.3 656.1H2188M2138.3 705.8V755.5M2138.3 705.8H2188M2138.3 755.5V805.2M2138.3 755.5H2188M2138.3 805.2V854.9M2138.3 805.2H2188M2138.3 854.9V904.6M2138.3 854.9H2188M2138.3 904.6V954.3M2138.3 904.6H2188M2138.3 954.3V1004M2138.3 954.3H2188M2138.3 1004H2188V954.3M2188 59.7V109.4M2188 109.4V159.1M2188 159.1V208.8M2188 208.8V258.5M2188 258.5V308.2M2188 308.2V357.9M2188 357.9V407.6M2188 407.6V457.3M2188 457.3V507M2188 507V556.7M2188 556.7V606.4M2188 606.4V656.1M2188 656.1V705.8M2188 705.8V755.5M2188 755.5V805.2M2188 805.2V854.9M2188 854.9V904.6M2188 904.6V954.3" stroke="url(#paint1_radial_14415_31533)" stroke-opacity="0.16"/>
<defs>
<radialGradient id="paint0_radial_14415_31533" cx="0" cy="0" r="1" gradientUnits="userSpaceOnUse" gradientTransform="translate(1184 487) rotate(90) scale(487)">
<stop stop-color="#2A7DEC"/>
<stop offset="1" stop-color="#2A7DEC" stop-opacity="0"/>
</radialGradient>
<radialGradient id="paint1_radial_14415_31533" cx="0" cy="0" r="1" gradientUnits="userSpaceOnUse" gradientTransform="translate(1094.5 481) rotate(90) scale(392.5 392.5)">
<stop stop-color="#2A7DEC"/>
<stop offset="1" stop-color="#2A7DEC" stop-opacity="0"/>
</radialGradient>
</defs>
</svg>
