<svg width="191" height="32" viewBox="0 0 191 32" fill="none" xmlns="http://www.w3.org/2000/svg">
<path d="M185.449 21.707H190.943C191 23.0828 191 23.7452 191 24.3057C191 29.4522 188.482 32 180.928 32C173.373 32 170.684 29.656 170.684 23.7452V10.242H167.135V5.65605H170.684V0H177.494V5.65605H189.913V10.242H177.494V23.6433C177.494 26.293 178.181 27.465 181.214 27.465C184.705 27.465 185.449 26.7006 185.449 23.2866V21.707Z" fill="#019FE3"/>
<path d="M154.929 24H161.338V24.7643C161.338 29.8089 158.477 32 148.405 32C137.703 32 135.013 29.2994 135.013 18.7516C135.013 7.89809 137.703 5.24841 148.405 5.24841C159.45 5.24841 161.51 8.05096 161.51 16.4076C161.51 17.5796 161.567 18.242 161.396 19.8217H141.652V21.8089C141.652 26.0892 143.197 27.6688 148.462 27.6688C153.784 27.6688 154.929 26.8025 154.929 24ZM141.652 16H154.986V14.9809C154.986 10.4459 154.128 9.3758 148.405 9.3758C142.911 9.3758 141.652 10.344 141.652 15.0318V16Z" fill="#019FE3"/>
<path d="M85.4208 31.5924V5.65606H92.0594V9.27389C94.2913 6.01274 96.5232 5.24841 100.587 5.24841C105.337 5.24841 107.282 7.08281 108.37 9.32485C110.659 6.16561 112.719 5.24841 117.87 5.24841C124.337 5.24841 126.74 8.20383 126.74 13.4522V31.5924H119.93V15.1847C119.93 10.9045 119.072 9.73249 114.951 9.73249C110.602 9.73249 109.514 11.8217 109.457 15.7452V31.5924H102.647V15.1847C102.647 10.9045 101.788 9.73249 97.6678 9.73249C93.0895 9.73249 92.2311 12.0764 92.2311 16.3567V31.5924H85.4208Z" fill="#019FE3"/>
<path d="M68.9659 31.5923V24.6115H75.719V31.5923H68.9659Z" fill="#019FE3"/>
<path d="M46.4369 32C35.5061 32 33.3314 30.0637 33.3314 18.7006C33.3314 7.49045 35.5634 5.24841 46.4369 5.24841C57.3677 5.24841 59.5424 7.18472 59.5424 18.5478C59.5424 29.758 57.3104 32 46.4369 32ZM46.4369 9.78344C40.5423 9.78344 40.0272 10.242 40.0272 18.8025C40.0272 26.8535 40.5995 27.414 46.4369 27.414C52.3315 27.414 52.8466 26.9554 52.8466 18.4459C52.8466 10.4459 52.2743 9.78344 46.4369 9.78344Z" fill="#019FE3"/>
<path d="M26.5882 14.5733H20.1785V14.0637C20.1785 10.6497 19.0912 9.8344 14.055 9.8344C8.27486 9.8344 7.58811 10.344 7.58811 18.3949C7.58811 26.7006 8.27486 27.3631 14.2267 27.3631C19.7207 27.3631 20.293 26.293 20.293 22.2675V21.758H26.7599C26.8171 22.1656 26.8171 22.4713 26.8171 22.6752C26.8171 29.6051 23.8984 32 14.055 32C2.95254 32 0.777832 29.5541 0.777832 18.3949C0.777832 7.59236 3.35314 5.24841 14.3411 5.24841C24.5852 5.24841 26.6454 7.79618 26.6454 13.758C26.6454 14.1147 26.6454 14.2166 26.5882 14.5733Z" fill="#019FE3"/>
</svg>
