<svg xmlns="http://www.w3.org/2000/svg" height="20.805mm" width="82.081mm" version="1.1" viewBox="0 0 82.080811 20.805336">
 <g transform="translate(-26.995 -109.7)">
  <g>
   <path d="m106.37 115.4c1.1811 0 1.8288 0.64767 1.8288 1.8288v1.8288h-5.9817v-1.8288c0-1.1811 0.6477-1.8288 1.8288-1.8288zm-4.1529 4.4577h6.858v-2.5908c0-1.7336-0.93345-2.6669-2.667-2.6669h-2.4003c-1.7336 0-2.667 0.93334-2.667 2.6669v4.9531c0 1.7336 0.93345 2.6671 2.667 2.6671h2.4003c1.7336 0 2.667-0.93348 2.667-2.6671v-0.53343h-0.8763v0.57146c0 1.1811-0.6477 1.8288-1.8288 1.8288h-2.3241c-1.1811 0-1.8288-0.64766-1.8288-1.8288zm-5.9623-4.4577c1.1811 0 1.8288 0.64767 1.8288 1.8288v1.8288h-5.9817v-1.8288c0-1.1811 0.6477-1.8288 1.8288-1.8288zm-4.1529 4.4577h6.858v-2.5908c0-1.7336-0.93345-2.6669-2.667-2.6669h-2.4003c-1.7336 0-2.667 0.93334-2.667 2.6669v4.9531c0 1.7336 0.93345 2.6671 2.667 2.6671h2.4003c1.7336 0 2.667-0.93348 2.667-2.6671v-0.53343h-0.8763v0.57146c0 1.1811-0.6477 1.8288-1.8288 1.8288h-2.3241c-1.1811 0-1.8288-0.64766-1.8288-1.8288zm-4.2287 2.4003c0 1.1811-0.6477 1.8288-1.8288 1.8288h-1.0096c-1.1049 0-2.0384-0.41906-3.2766-1.505v-5.6768c1.2382-1.0859 2.1717-1.505 3.2766-1.505h1.0096c1.1811 0 1.8288 0.64767 1.8288 1.8288zm-2.8384-7.658c-1.2764 0-2.1908 0.53329-3.2766 1.505v-5.5055h-0.8763v14.288h0.8763v-1.505c1.0858 0.97152 2.0002 1.505 3.2766 1.505h1.0478c1.7145 0 2.667-0.93348 2.667-2.6671v-4.9531c0-1.7336-0.9525-2.6669-2.667-2.6669zm-14.633 10.29h0.8763v-7.982c1.2382-1.0859 2.1526-1.505 3.2576-1.505h0.78105c1.1811 0 1.8288 0.64767 1.8288 1.8288v7.6582h0.8763v-7.6201c0-1.7336-0.9525-2.6669-2.667-2.6669h-0.81915c-1.2764 0-2.1717 0.53329-3.2576 1.505v-1.5h-0.8763zm-3.581-2.629c0 1.1811-0.6477 1.8288-1.8288 1.8288h-2.4003c-1.181 0-1.8287-0.64766-1.8287-1.8288v-5.0291c0-1.1811 0.64766-1.8288 1.8287-1.8288h2.4003c1.1811 0 1.8288 0.64767 1.8288 1.8288zm-4.2672-7.658c-1.7336 0-2.6669 0.93334-2.6669 2.6669v4.9531c0 1.7336 0.93334 2.6671 2.6669 2.6671h2.4765c1.7336 0 2.667-0.93348 2.667-2.6671v-4.9531c0-1.7336-0.93345-2.6669-2.667-2.6669zm-9.9059 0c-1.7336 0-2.6671 0.93334-2.6671 2.6669v4.9531c0 1.7336 0.93348 2.6671 2.6671 2.6671h2.3812c1.7334 0 2.6669-0.93348 2.6669-2.6671v-0.41906h-0.8763v0.45709c0 1.1811-0.6477 1.8288-1.8288 1.8288h-2.305c-1.1811 0-1.8288-0.64766-1.8288-1.8288v-5.0291c0-1.1811 0.6477-1.8288 1.8288-1.8288h2.305c1.1811 0 1.8288 0.64767 1.8288 1.8288v0.45724h0.8763v-0.41921c0-1.7336-0.93348-2.6669-2.6669-2.6669h-2.3812" fill="#5a5758"/>
   <path d="m27.877 118.57 3.3256 1.9215 3.3255-1.9215v-3.8436l-3.3255-1.9214-3.3256 1.9214zm3.3256 2.8717c-0.07624 0-0.15258-0.0195-0.22077-0.0592l-3.7665-2.1761c-0.13629-0.079-0.22035-0.22448-0.22035-0.38185v-4.3525c0-0.15751 0.08406-0.30303 0.22035-0.38199l3.7665-2.1762c0.13642-0.079 0.30494-0.079 0.44136 0l3.7665 2.1762c0.13628 0.079 0.22034 0.22448 0.22034 0.38199v4.3525c0 0.15737-0.08407 0.30289-0.22034 0.38185l-3.7665 2.1761c-0.06819 0.0397-0.14453 0.0592-0.22059 0.0592zm6.0343-2.8814 4.5649 2.6352 4.5649-2.6352v-5.2703l-4.5649-2.6351-4.5649 2.6351zm4.5649 3.5854c-0.0762 0-0.15244-0.0197-0.22049-0.059l-5.0059-2.8899c-0.13642-0.0788-0.22049-0.22433-0.22049-0.38185v-5.7795c0-0.15765 0.08407-0.30317 0.22049-0.38198l5.0059-2.8898c0.13642-0.0788 0.30455-0.0788 0.44097 0l5.0058 2.8898c0.13642 0.0788 0.22049 0.22433 0.22049 0.38198v5.7795c0 0.15752-0.08407 0.30304-0.22049 0.38185l-5.0058 2.8899c-0.06837 0.0393-0.14443 0.059-0.22049 0.059zm-9.6548 5.2554 3.7386 2.1587 3.7386-2.1587v-4.3174l-3.7386-2.1591-3.7386 2.1591zm3.7386 3.1088c-0.07609 0-0.15229-0.0196-0.22049-0.0593l-4.1796-2.4134c-0.13642-0.0784-0.22049-0.22421-0.22049-0.38158v-4.8266c0-0.15752 0.08407-0.30315 0.22049-0.38185l4.1796-2.4138c0.13642-0.0788 0.30452-0.0788 0.44097 0l4.1796 2.4138c0.13642 0.0787 0.22049 0.22433 0.22049 0.38185v4.8266c0 0.15737-0.08407 0.30317-0.22049 0.38158l-4.1796 2.4134c-0.06823 0.0397-0.14429 0.0593-0.22049 0.0593" fill="#00adef"/>
   <path d="m107.37 127.43c0-0.20643 0.11007-0.32108 0.32138-0.32108h0.25683c0.25223 0 0.47272 0.0963 0.7433 0.28898v1.3304c-0.27058 0.19265-0.49107 0.28912-0.7433 0.28912h-0.25683c-0.21131 0-0.32138-0.11479-0.32138-0.32123zm0.31221-0.60481c-0.40358 0-0.62336 0.21965-0.62336 0.62314v1.2295c0 0.40362 0.21978 0.62329 0.62336 0.62329h0.266c0.27975 0 0.50024-0.15104 0.7433-0.35719v0.35719h0.31115v-3.439h-0.31115v1.3202c-0.24306-0.20616-0.46355-0.35704-0.7433-0.35704zm-1.9212 0.27463c0.21097 0 0.32103 0.11011 0.32103 0.32123v0.44979h-1.2848v-0.44979c0-0.21112 0.115-0.32123 0.32138-0.32123zm-0.96378 1.0272h1.596v-0.67841c0-0.40377-0.21943-0.62342-0.623-0.62342h-0.66076c-0.40357 0-0.62335 0.21965-0.62335 0.62342v1.2291c0 0.40376 0.21978 0.62343 0.62335 0.62343h0.66076c0.40357 0 0.623-0.21967 0.623-0.62343v-0.15145h-0.31115v0.17901c0 0.20657-0.11465 0.32122-0.32103 0.32122h-0.6424c-0.20638 0-0.32138-0.1101-0.32138-0.32122zm-1.44-1.0364h0.63747v-0.2654h-0.64206v-0.73381h-0.30198v0.73381h-0.38523v0.2654h0.38065v1.5872c0 0.40362 0.21978 0.62329 0.623 0.62329h0.32562v-0.27465h-0.31645c-0.20637 0-0.32102-0.11465-0.32102-0.32108zm-2.3753-0.2654c-0.40357 0-0.62335 0.21965-0.62335 0.62314v1.2295c0 0.40362 0.21978 0.62329 0.62335 0.62329h0.65158c0.40358 0 0.62301-0.21967 0.62301-0.62329v-0.14677h-0.31115v0.16509c0 0.20644-0.11465 0.32123-0.32103 0.32123h-0.63323c-0.20638 0-0.32138-0.11479-0.32138-0.32123v-1.2661c0-0.21098 0.115-0.32108 0.32138-0.32108h0.63323c0.21096 0 0.32103 0.1101 0.32103 0.32108v0.16523h0.31115v-0.1469c0-0.40349-0.21943-0.62314-0.62301-0.62314zm-1.9212 0.27463c0.21096 0 0.32103 0.11011 0.32103 0.32123v0.44979h-1.288v-0.44979c0-0.21112 0.11465-0.32123 0.32103-0.32123zm-0.96344 1.0272h1.596v-0.67841c0-0.40377-0.21978-0.62342-0.62336-0.62342h-0.66075c-0.40358 0-0.62336 0.21965-0.62336 0.62342v1.2291c0 0.40376 0.21978 0.62343 0.62336 0.62343h0.66075c0.40358 0 0.62336-0.21967 0.62336-0.62343v-0.15145h-0.3115v0.17901c0 0.20657-0.11465 0.32122-0.32103 0.32122h-0.64241c-0.20638 0-0.32103-0.1101-0.32103-0.32122zm-2.9256 1.1741h0.3115v-1.9032c0.27058-0.19265 0.49071-0.28898 0.7433-0.28898h0.20179c0.21096 0 0.32103 0.11465 0.32103 0.32108v1.8711h0.3115v-1.8528c0-0.40349-0.21978-0.62314-0.62336-0.62314h-0.21096c-0.2801 0-0.50024 0.15088-0.7433 0.35704v-0.35704h-0.3115zm-2.6599 0h0.3115v-1.9032c0.27058-0.19265 0.49071-0.28898 0.7433-0.28898h0.20179c0.21096 0 0.32103 0.11465 0.32103 0.32108v1.8711h0.3115v-1.8528c0-0.40349-0.21978-0.62314-0.62336-0.62314h-0.21096c-0.28011 0-0.50024 0.15088-0.7433 0.35704v-0.35704h-0.3115zm-1.0499-0.60497c0 0.21112-0.115 0.32123-0.32138 0.32123h-0.66534c-0.20638 0-0.32103-0.11011-0.32103-0.32123v-1.2661c0-0.21098 0.11465-0.32108 0.32103-0.32108h0.66534c0.21096 0 0.32138 0.11465 0.32138 0.32108zm-0.99589-1.871c-0.40358 0-0.62301 0.21965-0.62301 0.62314v1.2295c0 0.40362 0.21943 0.62329 0.62301 0.62329h0.68368c0.40358 0 0.62336-0.21967 0.62336-0.62329v-1.2295c0-0.40349-0.21978-0.62314-0.62336-0.62314zm-2.5178 0c-0.40358 0-0.623 0.21965-0.623 0.62314v1.2295c0 0.40362 0.21943 0.62329 0.623 0.62329h0.65158c0.40358 0 0.62336-0.21967 0.62336-0.62329v-0.14677h-0.31115v0.16509c0 0.20644-0.115 0.32123-0.32138 0.32123h-0.63324c-0.20638 0-0.32103-0.11479-0.32103-0.32123v-1.2661c0-0.21098 0.11465-0.32108 0.32103-0.32108h0.63324c0.21096 0 0.32138 0.1101 0.32138 0.32108v0.16523h0.31115v-0.1469c0-0.40349-0.21978-0.62314-0.62336-0.62314zm-3.0999 0.27463c0.21131 0 0.32138 0.11011 0.32138 0.32123v0.44979h-1.2848v-0.44979c0-0.21112 0.11465-0.32123 0.32138-0.32123zm-0.96344 1.0272h1.596v-0.67841c0-0.40377-0.21978-0.62342-0.62336-0.62342h-0.6604c-0.40358 0-0.62336 0.21965-0.62336 0.62342v1.2291c0 0.40376 0.21978 0.62343 0.62336 0.62343h0.6604c0.40358 0 0.62336-0.21967 0.62336-0.62343v-0.15145h-0.31115v0.17901c0 0.20657-0.11465 0.32122-0.32138 0.32122h-0.64206c-0.20673 0-0.32138-0.1101-0.32138-0.32122zm-1.3247 0.56912c0 0.20644-0.11007 0.32123-0.32103 0.32123h-0.25718c-0.25224 0-0.47237-0.0965-0.7433-0.28912v-1.3304c0.27093-0.19265 0.49107-0.28898 0.7433-0.28898h0.25718c0.21096 0 0.32103 0.11465 0.32103 0.32108zm-0.5782-1.871c-0.27975 0-0.49989 0.15088-0.7433 0.35704v-1.3202h-0.31115v3.439h0.31115v-0.35719c0.24342 0.20615 0.46355 0.35719 0.7433 0.35719h0.26635c0.40323 0 0.62301-0.21967 0.62301-0.62329v-1.2295c0-0.40349-0.21978-0.62314-0.62301-0.62314h-0.26635" fill="#00adef"/>
  </g>
 </g>
</svg>
