<svg width="164" height="34" viewBox="0 0 164 34" fill="none" xmlns="http://www.w3.org/2000/svg">
<g clip-path="url(#clip0_14019_69827)">
<path fill-rule="evenodd" clip-rule="evenodd" d="M33.691 9.58301L1.37305 23.5903L9.44905 23.7433L22.3741 33.4905L33.691 9.58301Z" fill="#AAC4EF"/>
<path d="M6.65527 23.0734C6.93389 18.029 13.1337 12.9894 20.5548 11.6555C28.0235 10.3129 34.2724 13.1612 34.4745 18.1815C34.6833 23.3828 28.3642 28.8536 20.4027 30.2202C12.4956 31.5772 6.36703 28.2978 6.65527 23.0734Z" stroke="#AAC4EF" stroke-width="0.681862" stroke-miterlimit="3.864"/>
<path fill-rule="evenodd" clip-rule="evenodd" d="M8.90909 16.443L22.221 34.1108L34.1038 0.81311L0.40625 14.0033L8.90909 16.443Z" fill="#3E8EDE"/>
<path d="M20.2534 28.9513C28.1539 28.9513 34.5586 22.5466 34.5586 14.6461C34.5586 6.74558 28.1539 0.340942 20.2534 0.340942C12.3529 0.340942 5.94824 6.74558 5.94824 14.6461C5.94824 22.5466 12.3529 28.9513 20.2534 28.9513Z" stroke="#3E8EDE" stroke-width="0.681862" stroke-miterlimit="3.864"/>
<path d="M156.36 20.5718H156.321V26.6356H154.06V12.061H156.321V13.8158H156.36C157.134 12.49 158.265 11.827 159.753 11.827C161.02 11.827 162.008 12.2722 162.717 13.1626C163.425 14.053 163.779 15.2489 163.779 16.7502C163.779 18.414 163.38 19.7464 162.58 20.7473C161.781 21.7482 160.689 22.2486 159.304 22.2486C158.031 22.2486 157.049 21.6897 156.36 20.5718ZM156.302 16.6332V17.8713C156.302 18.5993 156.533 19.2167 156.994 19.7236C157.462 20.2306 158.053 20.4841 158.768 20.4841C159.607 20.4841 160.263 20.1591 160.738 19.5092C161.219 18.8527 161.459 17.9396 161.459 16.7697C161.459 15.7883 161.235 15.0214 160.786 14.469C160.344 13.91 159.743 13.6306 158.983 13.6306C158.177 13.6306 157.527 13.9165 157.033 14.4885C156.546 15.0604 156.302 15.7753 156.302 16.6332Z" fill="#3E8EDE"/>
<path d="M150.893 22.0439H148.631V20.4646H148.592C147.936 21.6735 146.915 22.2779 145.531 22.2779C143.172 22.2779 141.992 20.861 141.992 18.0274V12.061H144.254V17.7934C144.254 19.5872 144.946 20.4841 146.33 20.4841C147 20.4841 147.549 20.2371 147.978 19.7432C148.413 19.2492 148.631 18.6026 148.631 17.8031V12.061H150.893V22.0439Z" fill="#3E8EDE"/>
<path d="M134.467 22.2779C132.927 22.2779 131.695 21.8132 130.772 20.8838C129.856 19.9479 129.397 18.7098 129.397 17.1694C129.397 15.4926 129.875 14.183 130.831 13.2406C131.792 12.2982 133.086 11.827 134.711 11.827C136.27 11.827 137.486 12.2852 138.357 13.2016C139.228 14.118 139.663 15.3886 139.663 17.0134C139.663 18.6058 139.192 19.8829 138.249 20.8448C137.314 21.8002 136.053 22.2779 134.467 22.2779ZM134.574 13.6306C133.69 13.6306 132.992 13.9393 132.478 14.5567C131.965 15.1742 131.708 16.0256 131.708 17.1109C131.708 18.1573 131.968 18.9827 132.488 19.5872C133.008 20.1851 133.703 20.4841 134.574 20.4841C135.465 20.4841 136.147 20.1883 136.621 19.5969C137.102 19.0055 137.343 18.1638 137.343 17.0719C137.343 15.9736 137.102 15.1254 136.621 14.5275C136.147 13.9295 135.465 13.6306 134.574 13.6306Z" fill="#3E8EDE"/>
<path d="M128.402 14.2157C128.129 14.0013 127.736 13.894 127.223 13.894C126.553 13.894 125.994 14.1962 125.546 14.8007C125.097 15.4051 124.873 16.2273 124.873 17.2671V22.0441H122.611V12.0612H124.873V14.1182H124.912C125.133 13.4163 125.471 12.8704 125.926 12.4804C126.387 12.084 126.901 11.8857 127.466 11.8857C127.876 11.8857 128.188 11.9475 128.402 12.071V14.2157Z" fill="#3E8EDE"/>
<path d="M119.64 21.0885C118.184 21.8814 116.563 22.2778 114.775 22.2778C112.708 22.2778 111.035 21.6344 109.755 20.3476C108.474 19.0607 107.834 17.3579 107.834 15.2391C107.834 13.0749 108.533 11.3006 109.93 9.91622C111.334 8.52538 113.115 7.82996 115.272 7.82996C116.826 7.82996 118.132 8.05743 119.191 8.51238V10.9009C118.119 10.1859 116.842 9.82848 115.36 9.82848C113.872 9.82848 112.65 10.3192 111.695 11.3006C110.746 12.282 110.271 13.5526 110.271 15.1124C110.271 16.7177 110.681 17.9818 111.5 18.9047C112.318 19.8211 113.43 20.2793 114.834 20.2793C115.796 20.2793 116.627 20.0941 117.329 19.7236V16.3992H114.385V14.4495H119.64V21.0885Z" fill="#3E8EDE"/>
<path d="M99.7825 22.0439H97.589V20.4841H97.55C96.861 21.6799 95.8504 22.2779 94.5181 22.2779C93.5367 22.2779 92.7665 22.0114 92.2076 21.4784C91.6551 20.9455 91.3789 20.2403 91.3789 19.3629C91.3789 17.4781 92.4643 16.3798 94.635 16.0678L97.5987 15.6486C97.5987 14.2253 96.9228 13.5136 95.5709 13.5136C94.3816 13.5136 93.3092 13.923 92.3538 14.7419V12.7629C93.4067 12.139 94.622 11.827 95.9999 11.827C98.5216 11.827 99.7825 13.0684 99.7825 15.5511V22.0439ZM97.5987 17.1402L95.5027 17.4326C94.8528 17.5171 94.3621 17.6764 94.0306 17.9103C93.7056 18.1378 93.5432 18.5408 93.5432 19.1192C93.5432 19.5417 93.6926 19.8894 93.9916 20.1623C94.2971 20.4288 94.7033 20.562 95.2102 20.562C95.8991 20.562 96.4678 20.3216 96.9163 19.8406C97.3712 19.3532 97.5987 18.7422 97.5987 18.0078V17.1402Z" fill="#3E8EDE"/>
<path d="M87.82 9.96507C87.4495 9.96507 87.131 9.84483 86.8646 9.60436C86.6046 9.36389 86.4746 9.05842 86.4746 8.68796C86.4746 8.3175 86.6046 8.00879 86.8646 7.76182C87.131 7.51484 87.4495 7.39136 87.82 7.39136C88.2034 7.39136 88.5284 7.51484 88.7948 7.76182C89.0613 8.00879 89.1946 8.3175 89.1946 8.68796C89.1946 9.03892 89.0613 9.34114 88.7948 9.59461C88.5284 9.84158 88.2034 9.96507 87.82 9.96507ZM88.9411 22.044H86.6793V12.0611H88.9411V22.044Z" fill="#3E8EDE"/>
<path d="M83.6957 22.0439H81.4339V16.4188C81.4339 14.5535 80.7743 13.6208 79.4549 13.6208C78.766 13.6208 78.1973 13.8808 77.7489 14.4007C77.3004 14.9142 77.0762 15.5641 77.0762 16.3505V22.0439H74.8047V12.061H77.0762V13.7183H77.1152C77.8626 12.4575 78.9415 11.827 80.3518 11.827C81.4372 11.827 82.2658 12.1812 82.8378 12.8897C83.4097 13.5916 83.6957 14.6087 83.6957 15.9411V22.0439Z" fill="#3E8EDE"/>
<path d="M70.5075 9.96507C70.137 9.96507 69.8185 9.84483 69.5521 9.60436C69.2921 9.36389 69.1621 9.05842 69.1621 8.68796C69.1621 8.3175 69.2921 8.00879 69.5521 7.76182C69.8185 7.51484 70.137 7.39136 70.5075 7.39136C70.8909 7.39136 71.2159 7.51484 71.4823 7.76182C71.7488 8.00879 71.8821 8.3175 71.8821 8.68796C71.8821 9.03892 71.7488 9.34114 71.4823 9.59461C71.2159 9.84158 70.8909 9.96507 70.5075 9.96507ZM71.6286 22.044H69.3668V12.0611H71.6286V22.044Z" fill="#3E8EDE"/>
<path d="M67.5535 14.2157C67.2806 14.0013 66.8874 13.894 66.3739 13.894C65.7045 13.894 65.1456 14.1962 64.6971 14.8007C64.2487 15.4051 64.0244 16.2273 64.0244 17.2671V22.0441H61.7627V12.0612H64.0244V14.1182H64.0634C64.2844 13.4163 64.6224 12.8704 65.0773 12.4804C65.5388 12.084 66.0522 11.8857 66.6176 11.8857C67.0271 11.8857 67.3391 11.9475 67.5535 12.071V14.2157Z" fill="#3E8EDE"/>
<path d="M58.7805 22.0439H56.587V20.4841H56.548C55.8591 21.6799 54.8485 22.2779 53.5161 22.2779C52.5347 22.2779 51.7645 22.0114 51.2056 21.4784C50.6532 20.9455 50.377 20.2403 50.377 19.3629C50.377 17.4781 51.4623 16.3798 53.6331 16.0678L56.5968 15.6486C56.5968 14.2253 55.9208 13.5136 54.569 13.5136C53.3796 13.5136 52.3072 13.923 51.3518 14.7419V12.7629C52.4047 12.139 53.6201 11.827 54.9979 11.827C57.5197 11.827 58.7805 13.0684 58.7805 15.5511V22.0439ZM56.5968 17.1402L54.5007 17.4326C53.8508 17.5171 53.3601 17.6764 53.0287 17.9103C52.7037 18.1378 52.5412 18.5408 52.5412 19.1192C52.5412 19.5417 52.6907 19.8894 52.9897 20.1623C53.2951 20.4288 53.7013 20.562 54.2083 20.562C54.8972 20.562 55.4659 20.3216 55.9143 19.8406C56.3693 19.3532 56.5968 18.7422 56.5968 18.0078V17.1402Z" fill="#3E8EDE"/>
<path d="M49.3435 10.0332H44.1181V14.235H48.9341V16.1946H44.1181V22.0439H41.7979V8.06396H49.3435V10.0332Z" fill="#3E8EDE"/>
</g>
<defs>
<clipPath id="clip0_14019_69827">
<rect width="163.594" height="34" fill="white" transform="translate(0.40625)"/>
</clipPath>
</defs>
</svg>
