<svg width="154" height="32" viewBox="0 0 154 32" fill="none" xmlns="http://www.w3.org/2000/svg">
<path d="M84.8494 13.3075H97.3626V19.0143H84.816V23.2202H98.9095V29.366H77.5832V3.13556H98.7047V9.23119H84.8494V13.3075ZM52.3603 29.4078H31.1384V3.11465H52.2056V9.23119H38.3169V13.2615H50.9012V18.9934H38.3294V23.1868H52.3603V29.4078ZM13.0229 19.6498C12.0613 20.7117 11.2168 21.6441 10.3054 22.6516V29.3995H3.09766V3.11047H10.2761V13.4413C10.3556 13.4789 10.435 13.5207 10.5144 13.5583L19.407 3.10211H28.053C24.6665 6.95265 21.4013 10.661 18.111 14.4029C21.5309 19.3864 24.9257 24.3323 28.4125 29.4078H19.6453C17.488 26.2262 15.3015 23.007 13.0229 19.6498ZM128.648 25.2354C129.96 23.6676 131.273 22.0956 132.636 20.4651C132.962 20.6825 133.267 20.8831 133.569 21.088C135.977 22.7352 138.602 23.6717 141.554 23.5672C141.792 23.5589 142.035 23.5547 142.269 23.5171C143.481 23.3247 144.159 22.7603 144.234 21.8991C144.334 20.7661 143.569 20.2936 142.687 20.0219C141.023 19.5118 139.326 19.1147 137.662 18.6088C136.453 18.2409 135.249 17.8479 134.095 17.342C128.104 14.729 129.154 7.37491 132.645 4.66574C134.204 3.45748 135.952 2.73002 137.887 2.51262C142.156 2.036 146.207 2.65476 149.861 5.07128C150.196 5.29286 150.509 5.54789 150.919 5.85309C149.694 7.58395 148.515 9.24792 147.361 10.8743C146.036 10.2513 144.832 9.47368 143.515 9.11831C142.03 8.71695 140.446 8.59989 138.899 8.54554C138.042 8.51627 137.327 9.07232 137.231 10.0506C137.139 10.9955 137.749 11.539 138.535 11.794C140.028 12.2707 141.566 12.6135 143.067 13.0734C144.468 13.4998 145.885 13.9137 147.227 14.4948C149.744 15.5944 151.421 17.3963 151.605 20.302C151.809 23.538 150.722 26.1468 147.925 27.9111C146.207 28.9981 144.288 29.4622 142.281 29.5792C137.586 29.851 133.255 28.8225 129.438 25.9628C129.246 25.8207 129.062 25.6702 128.878 25.5113C128.807 25.4528 128.752 25.365 128.648 25.2354ZM70.9942 29.4078H59.8481V15.1094C63.6109 19.9341 67.2398 24.5915 70.9942 29.4078Z" fill="#007A81"/>
<path d="M70.1581 3.1272V16.9197L59.405 3.1272H70.1581Z" fill="#86C851"/>
<path d="M124.55 24.7797C123.539 23.2997 122.523 21.8155 121.461 20.2645C123.568 19.282 125.186 17.9692 126.11 15.9373C128.614 10.4312 125.654 4.5153 119.65 3.46591C114.37 2.54613 109.01 3.14817 103.688 3.11473C103.663 3.11473 103.634 3.15235 103.571 3.19834V29.3786H110.783V21.502H114.019C115.779 24.1443 117.56 26.8116 119.299 29.4204H127.724C126.591 27.7607 125.571 26.2681 124.55 24.7797ZM117.004 15.5234C114.989 15.7157 112.94 15.5694 110.8 15.5694V9.54483C112.915 9.54483 114.993 9.39432 117.037 9.59082C118.706 9.75387 119.563 10.983 119.554 12.5592C119.546 14.1061 118.651 15.3645 117.004 15.5234Z" fill="#007A81"/>
</svg>
