<svg width="135" height="32" viewBox="0 0 135 32" fill="none" xmlns="http://www.w3.org/2000/svg">
    <g clip-path="url(#clip0_21313_12185)">
        <path d="M25.2356 5.78125H21.7656V23.3689H25.2356V5.78125Z" fill="#EA640C"/>
        <mask id="mask0_21313_12185" style="mask-type:luminance" maskUnits="userSpaceOnUse" x="0" y="-1" width="296" height="33">
            <path d="M295.752 -0.683105H0.0898438V31.45H295.752V-0.683105Z" fill="white"/>
        </mask>
        <g mask="url(#mask0_21313_12185)">
            <path d="M35.5033 6.82729C32.9365 8.39592 31.1777 11.248 31.1777 14.6229C31.1777 19.7566 35.2181 23.7495 40.3043 23.7495C41.1599 23.7495 41.968 23.6544 42.7285 23.4167L41.35 20.2795C41.0173 20.327 40.6846 20.3745 40.3043 20.3745C37.1195 20.3745 34.6477 17.9978 34.6477 14.6229C34.6477 12.6265 35.5033 10.9628 36.8818 9.96455L35.5033 6.82729ZM49.4309 14.6229C49.4309 9.48921 45.3429 5.49634 40.3043 5.49634C39.5437 5.49634 38.7832 5.59141 38.0702 5.78154L39.4487 8.9188C39.7339 8.87126 40.0191 8.87126 40.3043 8.87126C43.4891 8.87126 45.9609 11.248 45.9609 14.6229C45.9609 16.5243 45.1528 18.1404 43.8694 19.1386L45.2478 22.3234C47.7672 20.7073 49.4309 17.9028 49.4309 14.6229Z" fill="#EA640C"/>
        </g>
        <path d="M67.8268 5.78125H52.8535V9.10864H58.6052V23.3689H62.0751V9.10864H67.8268V5.78125Z" fill="#EA640C"/>
        <path d="M77.6194 20.0415V16.0962H84.2742V12.8638H77.6194V9.10864H86.9836V5.78125H74.1494V23.3689H87.1262V20.0415H77.6194Z" fill="#EA640C"/>
        <path d="M11.9745 23.3689H16.1099L9.31255 14.3374L15.8247 5.78125H11.7368L5.22461 14.3374" fill="#EA640C"/>
        <path d="M3.55984 5.78125H0.0898438V23.3689H3.55984V5.78125Z" fill="#EA640C"/>
        <path d="M134.708 23.3689L127.102 5.78125H122.587L114.934 23.3689H118.689L124.821 8.68083L128.338 16.9993H123.965L122.587 20.4218H129.764L131 23.3689H134.708Z" fill="#EA640C"/>
        <mask id="mask1_21313_12185" style="mask-type:luminance" maskUnits="userSpaceOnUse" x="0" y="-1" width="296" height="33">
            <path d="M295.752 -0.683105H0.0898438V31.45H295.752V-0.683105Z" fill="white"/>
        </mask>
        <g mask="url(#mask1_21313_12185)">
            <path d="M109.229 14.716C109.752 13.8129 110.037 12.8147 110.037 11.7214C110.037 10.6281 109.752 9.62988 109.229 8.72673C108.706 7.82358 107.946 7.11057 107.042 6.5877C106.092 6.06482 105.046 5.82715 103.858 5.82715H94.8262V23.4148H98.5814V9.20207H103.715C104.428 9.20207 105.046 9.43975 105.521 9.96262C105.997 10.438 106.282 11.0559 106.282 11.7214C106.282 12.3869 106.044 13.0048 105.521 13.4801C105.046 13.9555 104.428 14.2407 103.715 14.2407H100.578L105.331 23.3673H109.181L105.807 17.3304C106.234 17.1878 106.71 17.0452 107.09 16.8075C107.993 16.2847 108.706 15.5717 109.229 14.716Z" fill="#EA640C"/>
        </g>
    </g>
    <defs>
        <clipPath id="clip0_21313_12185">
            <rect width="135" height="32" fill="white"/>
        </clipPath>
    </defs>
</svg>
