<svg xmlns="http://www.w3.org/2000/svg" height="14.826mm" width="63.91mm" version="1.1" viewBox="0 0 63.910103 14.825887">
 <g transform="translate(-2.8188 -117.99)">
  <g stroke-width=".26458">
   <g fill="#1385c1">
    <path d="m2.8188 125.39c0-1.9923 0.88106-3.2332 2.6326-3.2332s2.63 1.2382 2.63 3.2332-0.88106 3.2412-2.63 3.2412-2.6326-1.2382-2.6326-3.2412zm4.1381 0c0-1.4817-0.49742-2.2992-1.5055-2.2992s-1.5081 0.81492-1.5081 2.2992 0.49742 2.3125 1.5081 2.3125 1.5055-0.82021 1.5055-2.3125z" class="cls-1"/>
    <path d="m9.6979 122.48a0.20108 0.20108 0 0 1 0.20373 -0.20372h0.65087a0.1905 0.1905 0 0 1 0.20373 0.20372v0.52917a0.060854 0.060854 0 0 0 0.0635 0.0635 0.071438 0.071438 0 0 0 0.0635 -0.037 1.8521 1.8521 0 0 1 1.6854 -0.86783c1.1748 0 1.9791 0.65087 1.9791 1.7621v4.3709a0.20108 0.20108 0 0 1 -0.20373 0.20373h-0.73025a0.1905 0.1905 0 0 1 -0.19315 -0.20373v-4.2016c0-0.71437-0.44715-1.0081-1.2144-1.0081-1.1509 0-1.3785 0.67734-1.3785 1.3229v3.8867a0.20108 0.20108 0 0 1 -0.20373 0.20373h-0.7266a0.1905 0.1905 0 0 1 -0.19844 -0.20373z" class="cls-1"/>
    <path d="m17.291 125.78c0.11377 1.6484 1.0213 1.9288 1.8521 1.9288a5.3314 5.3314 0 0 0 1.1377 -0.15345 1.6854 1.6854 0 0 1 0.4101 -0.0635c0.08996 0 0.14023 0.0503 0.14023 0.15345v0.56092a0.22754 0.22754 0 0 1 -0.17992 0.26458 6.9638 6.9638 0 0 1 -1.6748 0.17727c-1.8018 0-2.8099-0.71437-2.8099-3.2068 0-2.3627 0.93133-3.2702 2.5532-3.2702s2.3548 0.889 2.3548 2.4342v0.97102a0.1905 0.1905 0 0 1 -0.19315 0.20373zm0-0.86783h2.646v-0.26459c0-1.0583-0.37042-1.5452-1.2885-1.5452-0.80962-0.005-1.2779 0.39158-1.3441 1.8098z" class="cls-1"/>
    <path d="m23.946 127.7c0.46038 0 1.2515-0.09 1.2515-0.7276 0-0.63765-0.68262-0.93133-1.6219-1.3917-0.79375-0.39687-1.4552-0.8546-1.4552-1.8018 0-1.1615 1.0081-1.6219 2.249-1.6219a7.7708 7.7708 0 0 1 1.5319 0.15346c0.11377 0.0265 0.127 0.0635 0.127 0.20373v0.6006c0 0.10319-0.03704 0.14023-0.11377 0.14023s-0.28046-0.0397-0.55033-0.0767a9.1837 9.1837 0 0 0 -1.0345 -0.09c-0.38365 0-1.0213 0.0767-1.0213 0.61383 0 0.46038 0.4736 0.74083 1.3018 1.1615 1.0583 0.52917 1.7886 0.98425 1.7886 2.0188 0 1.2912-1.2012 1.7489-2.4395 1.7489a8.4217 8.4217 0 0 1 -1.673 -0.16c-0.16669-0.0503-0.17992-0.0767-0.17992-0.20373v-0.57679a0.18785 0.18785 0 0 1 0.1905 -0.19315 12.062 12.062 0 0 0 1.6484 0.2196z" class="cls-1"/>
    <path d="m28.518 125.78c0.11377 1.6484 1.0213 1.9288 1.8521 1.9288a5.3472 5.3472 0 0 0 1.1509 -0.15345 1.6801 1.6801 0 0 1 0.40746 -0.0635c0.08996 0 0.14023 0.0503 0.14023 0.15345v0.56092a0.2249 0.2249 0 0 1 -0.17992 0.26458 6.9585 6.9585 0 0 1 -1.6748 0.17727c-1.8018 0-2.8099-0.71437-2.8099-3.2068 0-2.3627 0.93398-3.2702 2.5559-3.2702s2.3627 0.8943 2.3627 2.4395v0.97102a0.1905 0.1905 0 0 1 -0.19314 0.20373zm0-0.86783h2.6458v-0.26459c0-1.0583-0.37042-1.5452-1.2912-1.5452-0.80433-0.005-1.2779 0.39158-1.3414 1.8098z" class="cls-1"/>
    <path d="m37.037 123.15a0.16669 0.16669 0 0 1 -0.15346 0.09c-0.10319 0-0.24077-0.0503-0.43392-0.0503-1.2515 0-1.4182 0.51065-1.4182 1.2382v3.8814a0.20108 0.20108 0 0 1 -0.20373 0.20373h-0.728a0.1905 0.1905 0 0 1 -0.193 -0.21v-5.8208a0.20108 0.20108 0 0 1 0.20373 -0.20372h0.65088a0.1905 0.1905 0 0 1 0.1905 0.20372v0.52917a0.060854 0.060854 0 0 0 0.0635 0.0635 0.071438 0.071438 0 0 0 0.0635 -0.037c0.21696-0.49742 0.86783-0.86783 1.6854-0.86783 0.34396 0 0.51064 0.0635 0.51064 0.19314a0.64029 0.64029 0 0 1 -0.03704 0.1905z" class="cls-1"/>
    <path d="m41.84 122.48a0.23019 0.23019 0 0 1 0.21696 -0.20372h0.76465a0.1614 0.1614 0 0 1 0.17992 0.17991 1.4499 1.4499 0 0 1 -0.03704 0.20373l-1.5584 5.5827c-0.05027 0.16669-0.127 0.26458-0.28046 0.26458h-1.5452c-0.15346 0-0.23019-0.09-0.28046-0.26458l-1.5716-5.5827a1.4579 1.4579 0 0 1 -0.03969 -0.20373 0.1614 0.1614 0 0 1 0.17992 -0.17991h0.79375a0.23019 0.23019 0 0 1 0.21696 0.20372l1.2647 4.8789c0.02646 0.11377 0.07673 0.20373 0.1905 0.20373s0.17992-0.09 0.20373-0.20373z" class="cls-1"/>
    <path d="m44.983 125.78c0.11377 1.6484 1.0213 1.9288 1.8521 1.9288a5.3419 5.3419 0 0 0 1.1509 -0.15345 1.6828 1.6828 0 0 1 0.4101 -0.0635c0.08996 0 0.14023 0.0503 0.14023 0.15345v0.56092a0.2249 0.2249 0 0 1 -0.17727 0.26458 6.9585 6.9585 0 0 1 -1.6748 0.17727c-1.8018 0-2.8099-0.71437-2.8099-3.2068 0-2.3627 0.93133-3.2702 2.5532-3.2702s2.3627 0.8943 2.3627 2.4395v0.97102a0.19315 0.19315 0 0 1 -0.19315 0.20373zm0-0.86783h2.6458v-0.26459c0-1.0583-0.37042-1.5452-1.2912-1.5452-0.80433-0.005-1.2779 0.39158-1.3414 1.8098z" class="cls-1"/>
   </g>
   <path d="m58.91 125.16-5.2731-3.0083c-0.22754-0.12964-0.4101-0.0238-0.4101 0.23813v6.0457c0 0.26458 0.18256 0.36777 0.4101 0.23547l5.2731-3.0401a0.24871 0.24871 0 0 0 0 -0.47096z" class="cls-7" fill="#0e83c1"/>
   <path d="m59.643 132.52v-6.0854c0-0.26458-0.18256-0.36512-0.40746-0.23548l-5.2414 3.0639a0.26458 0.26458 0 0 0 0 0.4736l5.2388 3.0189c0.22754 0.13229 0.4101 0.0265 0.4101-0.23548z" class="cls-2" fill="#69bfd1"/>
   <path d="m60.739 132.74 5.2361-3.0268a0.24871 0.24871 0 0 0 0 -0.47096l-5.265-3.04c-0.22754-0.12965-0.40746-0.0238-0.40746 0.23548l0.02646 6.0669c0.0026 0.26458 0.18521 0.36777 0.4101 0.23812z" class="cls-3" fill="#ffcd16"/>
   <path d="m61.027 125.63 5.2917 3.011c0.22754 0.12965 0.4101 0.0238 0.4101-0.23812v-6.0484c0-0.26458-0.18256-0.36512-0.4101-0.23547l-5.2917 3.0401a0.24871 0.24871 0 0 0 0 0.47096z" class="cls-4" fill="#ee734d"/>
   <path d="m60.299 118.28v6.0854c0 0.26458 0.18256 0.36512 0.40746 0.23283l5.2414-3.0612a0.26458 0.26458 0 0 0 0 -0.4736l-5.2414-3.0189c-0.2249-0.12965-0.40746-0.0238-0.40746 0.23548z" class="cls-5" fill="#a7c834"/>
   <path d="m59.201 118.05-5.2335 3.0268a0.24871 0.24871 0 0 0 0 0.47361l5.2652 3.0454c0.2249 0.12965 0.40746 0.0238 0.40746-0.23548l-0.02646-6.0695c-0.0026-0.26458-0.17462-0.37042-0.41275-0.24077z" class="cls-6" fill="#2eaa89"/>
  </g>
 </g>
</svg>
