<svg width="132" height="32" viewBox="0 0 132 32" fill="none" xmlns="http://www.w3.org/2000/svg">
<g clip-path="url(#clip0_13996_61735)">
<mask id="mask0_13996_61735" style="mask-type:luminance" maskUnits="userSpaceOnUse" x="0" y="0" width="132" height="32">
<path d="M132 0.695679H0V31.3045H132V0.695679Z" fill="white"/>
</mask>
<g mask="url(#mask0_13996_61735)">
<path d="M87.1066 16.7769C87.3453 20.1774 89.2173 20.7596 90.9049 20.7596C91.776 20.7596 92.5424 20.6004 93.2794 20.4413C93.8867 20.3073 93.9914 20.3073 94.1212 20.3073C94.3055 20.3073 94.4101 20.412 94.4101 20.6255V21.7856C94.4101 22.1541 94.251 22.2337 94.0416 22.3132C93.3799 22.5226 91.8765 22.6818 90.5825 22.6818C86.8637 22.6818 84.7782 21.2076 84.7782 16.065C84.7782 10.9224 86.7046 9.31421 90.0548 9.31421C93.4051 9.31421 94.9378 11.1611 94.9378 14.3522V16.3582C94.9378 16.5969 94.7787 16.7811 94.54 16.7811H87.0982L87.1066 16.7769ZM87.1317 14.9846H92.6219V14.4318C92.6219 12.2415 91.8556 11.2406 89.9585 11.2406C88.2415 11.2406 87.2657 12.0573 87.1317 14.9846ZM80.6155 10.001C80.6657 9.7623 80.8249 9.57804 81.0636 9.57804H82.6466C82.9104 9.57804 83.0151 9.73718 83.0151 9.94657C83.0151 10.0806 82.9607 10.2104 82.9355 10.3696L79.7151 21.8945C79.6104 22.2379 79.4513 22.4221 79.133 22.4221H75.9419C75.6236 22.4221 75.4687 22.2379 75.3598 21.8945L72.1142 10.3696C72.0891 10.2104 72.0346 10.0806 72.0346 9.94657C72.0346 9.73718 72.1393 9.57804 72.4032 9.57804H74.0657C74.3044 9.57804 74.4594 9.7623 74.5138 10.001L77.127 20.0769C77.1815 20.3156 77.2862 20.4999 77.5207 20.4999C77.7845 20.4999 77.8892 20.3156 77.9436 20.0769L80.6071 10.001H80.6155ZM70.6904 11.3453C70.6108 11.4793 70.5061 11.5296 70.3763 11.5296C70.1669 11.5296 69.8779 11.4249 69.4801 11.4249C66.892 11.4249 66.5486 12.4802 66.5486 13.9837V21.9991C66.5486 22.2379 66.3643 22.4221 66.1256 22.4221H64.6222C64.3835 22.4221 64.2244 22.2379 64.2244 21.9991V10.001C64.2244 9.76649 64.4086 9.57804 64.6473 9.57804H65.9958C66.2345 9.57804 66.3895 9.7623 66.3895 10.001V11.0564C66.3895 11.1359 66.4439 11.1904 66.5235 11.1904C66.5779 11.1904 66.6282 11.1611 66.6575 11.1108C67.1056 10.0848 68.4499 9.3184 70.1417 9.3184C70.8537 9.3184 71.1971 9.44822 71.1971 9.71205C71.1971 9.79162 71.1678 9.97588 71.1175 10.1099L70.6945 11.3495L70.6904 11.3453ZM53.0931 16.7769C53.3318 20.1774 55.2038 20.7596 56.8915 20.7596C57.7626 20.7596 58.5289 20.6004 59.266 20.4413C59.8732 20.3073 59.9779 20.3073 60.1077 20.3073C60.292 20.3073 60.3967 20.412 60.3967 20.6255V21.7856C60.3967 22.1541 60.2376 22.2337 60.0282 22.3132C59.3707 22.5226 57.8631 22.6818 56.5732 22.6818C52.8544 22.6818 50.7689 21.2076 50.7689 16.065C50.7689 10.9224 52.6953 9.31421 56.0456 9.31421C59.3958 9.31421 60.9286 11.1611 60.9286 14.3522V16.3582C60.9286 16.5969 60.7694 16.7811 60.5307 16.7811H53.089L53.0931 16.7769ZM53.1183 14.9846H58.6085V14.4318C58.6085 12.2415 57.8421 11.2406 55.945 11.2406C54.228 11.2406 53.2523 12.0573 53.1225 14.9846M43.6454 20.7596C44.5961 20.7596 46.2293 20.5753 46.2293 19.2561C46.2293 18.0165 44.8055 17.3297 42.8791 16.3833C41.2165 15.5667 39.8722 14.616 39.8722 12.6645C39.8722 10.2649 41.9577 9.31421 44.5165 9.31421C45.4671 9.31421 46.9957 9.44822 47.6825 9.63248C47.9212 9.68692 47.9463 9.76649 47.9463 10.0555V11.2951C47.9463 11.5045 47.8667 11.584 47.7076 11.584C47.5233 11.584 47.1255 11.5045 46.5727 11.4249C46.1497 11.3747 45.174 11.2406 44.4369 11.2406C43.6454 11.2406 42.3263 11.3998 42.3263 12.5054C42.3263 13.456 43.302 14.0339 45.019 14.905C47.2093 16.0148 48.7127 16.9361 48.7127 19.0719C48.7127 21.7353 46.2335 22.6859 43.6747 22.6859C42.5398 22.6859 40.9066 22.5017 40.2198 22.3174C39.8764 22.2127 39.8513 22.1583 39.8513 21.8945V20.7093C39.8513 20.4999 40.0104 20.3156 40.2449 20.3156C40.5883 20.3156 42.1713 20.7637 43.6496 20.7637M29.8968 16.7769C30.1355 20.1774 32.0075 20.7596 33.6952 20.7596C34.5662 20.7596 35.3326 20.6004 36.0697 20.4413C36.6769 20.3073 36.7816 20.3073 36.9156 20.3073C37.0999 20.3073 37.2046 20.412 37.2046 20.6255V21.7856C37.2046 22.1541 37.0454 22.2337 36.836 22.3132C36.1744 22.5226 34.6709 22.6818 33.3769 22.6818C29.6539 22.6818 27.5726 21.2076 27.5726 16.065C27.5726 10.9224 29.499 9.31421 32.8492 9.31421C36.1995 9.31421 37.7322 11.1611 37.7322 14.3522V16.3582C37.7322 16.5969 37.5731 16.7811 37.3344 16.7811H29.8926L29.8968 16.7769ZM29.9261 14.9846H35.4122V14.4318C35.4122 12.2415 34.6458 11.2406 32.7487 11.2406C31.0317 11.2406 30.056 12.0573 29.9261 14.9846ZM14.2218 10.001C14.2218 9.7623 14.4061 9.57804 14.6448 9.57804H15.9891C16.2278 9.57804 16.3827 9.7623 16.3827 10.001V11.0564C16.3827 11.1359 16.4372 11.1904 16.5168 11.1904C16.5712 11.1904 16.6214 11.1653 16.6508 11.1108C17.2831 10.1602 18.2589 9.3184 20.135 9.3184C22.564 9.3184 24.2265 10.6627 24.2265 12.9576V22.0033C24.2265 22.242 24.0423 22.4263 23.8036 22.4263H22.3001C22.0614 22.4263 21.9023 22.242 21.9023 22.0033V13.3262C21.9023 11.8479 20.9768 11.2448 19.3938 11.2448C17.0193 11.2448 16.5419 12.6436 16.5419 13.9879V22.0033C16.5419 22.242 16.3576 22.4263 16.1189 22.4263H14.6155C14.3768 22.4263 14.2176 22.242 14.2176 22.0033V10.0052L14.2218 10.001ZM0 15.9896C0 11.8772 1.8217 9.3184 5.43579 9.3184C9.04987 9.3184 10.8716 11.8772 10.8716 15.9896C10.8716 20.1021 9.04987 22.6859 5.43579 22.6859C1.8217 22.6859 0 20.1272 0 15.9896ZM8.55152 15.9896C8.55152 12.9325 7.52132 11.2448 5.43997 11.2448C3.35863 11.2448 2.32843 12.9325 2.32843 15.9896C2.32843 19.0467 3.35444 20.7637 5.43997 20.7637C7.52551 20.7637 8.55152 19.0761 8.55152 15.9896Z" fill="#0C0565"/>
<path d="M115.869 15.5163L104.985 9.30159C104.516 9.03357 104.139 9.25553 104.139 9.79157L104.147 22.2755C104.147 22.8115 104.524 23.0334 104.993 22.7612L115.873 16.4837C116.338 16.2115 116.338 15.7801 115.873 15.5121" fill="#0C0565"/>
<path d="M117.392 30.7013V18.1463C117.392 17.606 117.016 17.3925 116.551 17.6647L105.725 23.9799C105.256 24.2521 105.26 24.6876 105.725 24.9557L116.547 31.1913C117.016 31.4593 117.392 31.2416 117.392 30.7013Z" fill="#0C0565"/>
<path d="M119.655 31.1619L130.472 24.9095C130.937 24.6414 130.937 24.2059 130.472 23.9337L119.592 17.6562C119.127 17.3881 118.75 17.6059 118.75 18.142L118.804 30.6719C118.804 31.2121 119.186 31.4299 119.655 31.1577" fill="#0C0565"/>
<path d="M120.271 16.4837L131.155 22.6984C131.624 22.9664 132.001 22.7445 132.001 22.2084L131.992 9.72452C131.992 9.18848 131.611 8.96652 131.147 9.23873L120.267 15.5163C119.802 15.7843 119.802 16.2199 120.267 16.4879" fill="#0C0565"/>
<path d="M118.746 1.29866V13.8537C118.746 14.394 119.123 14.6075 119.588 14.3395L130.418 8.0243C130.882 7.75209 130.882 7.31656 130.418 7.04854L119.592 0.808689C119.123 0.540668 118.746 0.758435 118.746 1.29866Z" fill="#0C0565"/>
<path d="M116.48 0.838051L105.667 7.09046C105.202 7.35848 105.202 7.79401 105.667 8.06622L116.547 14.3438C117.016 14.6118 117.389 14.3941 117.389 13.858L117.33 1.32802C117.33 0.791985 116.949 0.574218 116.48 0.842238" fill="#0C0565"/>
</g>
</g>
<defs>
<clipPath id="clip0_13996_61735">
<rect width="132" height="32" fill="white"/>
</clipPath>
</defs>
</svg>
