<svg xmlns="http://www.w3.org/2000/svg" height="203.27mm" width="406.82mm" version="1.1" viewBox="0 0 406.82077 203.27248">
 <g transform="translate(229.11 -70.632)">
  <g transform="matrix(.26458 0 0 .26458 -229.11 70.631)">
   <path fill="#434545" d="m1338 437.92h-43.795c-2.689 44.18-0.382 93.351-1.151 139.45-71.071-0.769-145.21 1.536-214.36-1.151 6.579-37.865 39.64-196.5 42.641-235.11 2.62-33.614 1.104-64.203 2.306-101.42 2.4-79.233 14.574-122.96 47.253-161.35 36.304-42.642 93.543-78.081 175.18-72.607 52.364 3.505 95.655 26.628 127.92 57.625 29.942 28.764 57.385 72.126 62.235 122.16 3.145 32.389-0.145 295.44-1.153 391.84h-167.11v-300.8c0-32.846 4.944-75.631-4.61-95.657-12.415-26.05-53.903-25.546-65.692-1.152-13.229 27.373-3.012 72.399-4.609 109.49h44.946v148.67z"/>
   <g fill="#245faa">
    <path d="m590.07 746.79c0.745 6.169 0.913 12.918 2.305 18.439-6.17 1.632-15.726 1.632-21.896 0-17.984-20.408-5.523-71.311-9.221-106.03-1.224-2.616-7.251-0.431-10.372-1.15v-16.137h10.372c1.681-10.686-2.329-21.271 0-28.813 2.353-7.61 10.66-7.369 12.678-13.829 2.688 11.524 0.384 28.043 1.153 41.49 2.736 2.64 10.348 0.408 14.981 1.151v16.137h-14.981c1.249 28.716-2.666 62.592 2.305 87.587 4.057 2.69 7.178 1.875 12.676 1.154z"/>
    <path d="m356.12 764.07h-14.982c-0.096-5.28-2.93-7.827-2.305-13.83-6.508 9.989-33.279 24.396-49.557 11.525-8.596-6.796-11.525-21.032-11.525-29.964 0-36.615 32.461-37.504 59.93-46.1 10.108-37.119-45.499-39.281-42.642-6.915-5.45-0.312-8.884-2.643-14.982-2.305 0.744-25.426 23.266-42.57 48.404-38.031 42.209 7.636 14.429 93.711 27.659 125.62zm-56.472-16.135c21.921 15.126 45.836-18.415 36.879-44.945-7.898 7.85-28.788 3.647-38.032 12.678-6.891 6.745-7.251 26.481 1.153 32.267z"/>
    <path d="m268.53 745.64c0.745 6.172 0.912 12.917 2.305 18.439-6.17 1.634-15.726 1.634-21.897 0-18.008-20.433-5.522-71.309-9.22-106.03-1.224-2.619-7.251-0.434-10.372-1.154v-11.523c-2.33 5.353-3.842 11.523-4.609 18.438-41.586-20.432-23.627 67.228-27.66 100.27h-14.983v-123.31h13.831v16.134c2.953-12.87 19.976-26.122 32.269-12.678 0.479-4.537 6.482-3.506 11.524-3.456 1.681-10.685-2.328-21.273 0-28.813 2.353-7.61 10.66-7.371 12.678-13.831 2.688 11.526 0.383 28.045 1.152 41.49 2.736 2.643 10.347 0.408 14.981 1.153v16.134h-14.981c1.249 28.716-2.666 62.596 2.305 87.59 4.058 2.687 7.178 1.87 12.677 1.151z"/>
    <path d="m1347.3 640.76c64.635-14.047 65.403 143.31-2.305 125.62-42.28-11.044-40.529-116.3 2.305-125.62zm8.068 110.64c34.384-0.746 34.311-103.53-5.763-93.351-28.597 7.273-28.282 94.095 5.763 93.351z"/>
    <path d="m985.37 595.81v23.051h-13.83v-23.051h13.83z"/>
    <path d="m631.56 640.76c64.635-14.047 65.403 143.31-2.305 125.62-42.282-11.044-40.529-116.3 2.305-125.62zm8.067 110.64c34.382-0.746 34.311-103.53-5.762-93.351-28.596 7.273-28.284 94.095 5.762 93.351z"/>
    <path d="m448.32 764.07h-14.981c-0.097-5.28-2.93-7.827-2.305-13.83-6.507 9.989-33.279 24.396-49.557 11.525-8.596-6.796-11.524-21.032-11.524-29.964 0-36.615 32.462-37.504 59.929-46.1 10.108-37.119-45.5-39.281-42.643-6.915-5.45-0.312-8.883-2.643-14.982-2.305 0.745-25.426 23.266-42.57 48.404-38.031 42.209 7.636 14.43 93.711 27.659 125.62zm-56.472-16.135c21.922 15.126 45.836-18.415 36.88-44.945-7.899 7.85-28.789 3.647-38.032 12.678-6.89 6.745-7.251 26.481 1.152 32.267z"/>
    <path d="m1212.4 741.02v24.202h-16.135v-24.202h16.135z"/>
   </g>
   <path fill="#434545" d="m1068.4 3.436v154.43c-48.62 0.145-85.21-0.096-124.47-1.152-2.689 137.53-0.385 280.05-1.151 419.5h-169.42c1.2-132.73 1.368-273.57 1.152-418.35-42.258-2.689-89.51-0.384-133.69-1.152v-150.98c-0.048-1.968 0.864-2.977 2.305-3.458 131.43 2.474 284.57 0.552 425.26 1.153z"/>
   <g fill="#245faa">
    <path d="m907 765.23h-14.983c-0.096-5.283-2.928-7.827-2.305-13.829-6.507 9.986-33.278 24.393-49.559 11.524-8.593-6.795-11.523-21.032-11.523-29.966 0-36.615 32.462-37.504 59.929-46.098 10.108-37.122-45.497-39.281-42.642-6.917-5.449-0.312-8.884-2.64-14.982-2.305 0.745-25.426 23.267-42.568 48.404-38.031 42.21 7.637 14.43 93.712 27.661 125.62zm-56.472-16.134c21.921 15.126 45.835-18.416 36.88-44.948-7.899 7.852-28.788 3.65-38.031 12.678-6.892 6.744-7.254 26.483 1.151 32.27z"/>
    <path d="m1528.2 765.23h-14.983c-3.863-27.854 5.091-67.108 0-93.351-2.809-14.383-22.256-19.978-31.116-4.61-11.548 20.071-0.744 69.172-4.61 97.961h-14.982c-3.602-25.114 15.103-111.31-17.288-107.18-30.587 3.888-14.021 73.9-18.438 107.18h-14.983c-0.839-42.329 1.297-81.684 1.154-123.32h10.373c5.018 1.13 1.031 11.262 2.305 16.137 5.041-22.547 47.994-25.356 49.556 2.305 5.859-7.78 8.86-16.617 17.288-19.593 52.099-18.346 32.099 84.057 35.724 124.47z"/>
    <path d="m534.75 640.76v123.31h-10.372c-4.97-0.793-1.057-10.468-2.305-14.98-6.699 16.734-37.24 24.465-49.557 6.914-16.59-23.625-1.705-77.313-6.915-111.79-0.744-6.891 10.3-1.993 14.982-3.456 6.027 27.947-14.045 104.9 14.982 108.33 37.624 4.44 22.162-70.855 25.355-108.33h13.83z"/>
    <path d="m957.71 746.79c0.743 6.169 0.912 12.918 2.305 18.439-6.171 1.632-15.728 1.632-21.896 0-17.984-20.408-5.524-71.311-9.22-106.03-1.227-2.616-7.252-0.431-10.373-1.15v-16.137h10.373c1.679-10.686-2.331-21.271 0-28.813 2.352-7.61 10.659-7.369 12.676-13.829 2.689 11.524 0.384 28.043 1.153 41.49 2.736 2.64 10.348 0.408 14.982 1.151v16.137h-14.982c1.247 28.716-2.666 62.592 2.305 87.587 4.056 2.69 7.179 1.875 12.677 1.154z"/>
    <path d="m1293.1 720.28c5.091 0.286 8.403 2.352 13.829 2.305-1.608 32.58-22.232 52.054-47.251 43.793-34.145-11.26-35.057-94.455-11.524-117.55 21.656-21.247 59.472-3.001 57.624 29.966-5.764-0.384-8.068 2.689-13.831 2.305-3.168-10.9-5.473-21.97-14.981-24.202-40.505-9.484-38.199 94.479-5.763 94.505 14.957 0.023 19.327-14.072 21.897-31.118z"/>
    <path d="m812.5 765.23h-14.982c-3.865-27.854 5.115-67.108 0-93.351-2.784-14.383-22.257-19.978-31.117-4.61-11.548 20.071-0.743 69.172-4.609 97.961h-14.982c-3.602-25.114 15.103-111.31-17.288-107.18-30.588 3.888-14.021 73.9-18.44 107.18h-14.982c-0.841-42.329 1.296-81.684 1.152-123.32h10.372c5.019 1.13 1.033 11.262 2.305 16.137 5.042-22.547 47.997-25.356 49.557 2.305 5.858-7.78 8.86-16.617 17.288-19.593 52.101-18.346 32.101 84.057 35.726 124.47z"/>
   </g>
   <path fill="#434545" d="m631.56 576.22h-178.63c-21.682-46.941-47.396-105.24-70.302-155.59-3.505-7.681-9.148-16.398-10.373-23.049-4.73-25.955-0.265-56.231 0-81.826 0.264-26.267 0.601-49.148 1.153-72.606 35.534 3.192 61.105-3.074 69.148-27.659 7.107-21.682-2.668-48.956-24.203-56.472-19.167-6.69-43.167-2.19-70.301-2.305v419.5h-171.72v-133.69c43.818-33.156 98.297-74.214 146.36-110.64 4.225-3.218 20.624-13.157 20.745-14.982 0.144-2.017-15.824-15.126-20.745-19.592-48.236-43.866-99.306-89.606-146.36-133.69 0.288-56.16 1.657-100.07 1.152-161.35h146.36c48.164 0 101.32-5.137 147.52 0 26.099 2.905 53.351 18.56 73.759 33.422 40.265 29.292 73.158 75.631 77.216 135.99 5.739 85.428-33.614 135.49-82.978 174.02 30.542 77.024 61.875 153.26 92.2 230.5z"/>
   <g fill="#245faa">
    <path d="m322.7 297.32c4.921 4.466 20.889 17.575 20.745 19.592-0.121 1.825-16.52 11.765-20.745 14.982-48.07 36.43-102.55 77.49-146.37 110.64-59.16 42.26-117.79 91.19-176.33 130.23v-565.87c4.273-2.737 8.307 3.89 10.372 5.763 55.439 49.796 111.29 102.35 165.96 150.97 47.059 44.083 98.129 89.823 146.36 133.69z"/>
    <path d="m985.37 641.91v123.32h-14.983c2.689-37.646 0.385-80.29 1.153-119.86-0.985-6.749 9.435-2.09 13.83-3.459z"/>
    <path d="m1034.9 640.76c64.635-14.047 65.404 143.31-2.305 125.62-42.28-11.044-40.529-116.3 2.305-125.62zm8.069 110.64c34.383-0.746 34.31-103.53-5.764-93.351-28.594 7.273-28.282 94.095 5.764 93.351z"/>
    <path d="m1169.8 765.23h-14.982c-5.834-28.261 12.919-100.96-12.676-107.18-40.482-9.846-24.73 71.212-27.661 107.18h-14.983c-0.839-42.329 1.297-81.684 1.154-123.32h12.678v14.982c5.257-13.325 29.074-23.386 43.793-12.678 24.635 17.888 7.275 83.723 12.677 121.01z"/>
   </g>
  </g>
 </g>
</svg>
