<svg width="88" height="48" viewBox="0 0 88 48" fill="none" xmlns="http://www.w3.org/2000/svg">
<g clip-path="url(#clip0_14019_36777)">
<path d="M79.3798 22.3127H88.0001V30.9327H79.3798V22.3127ZM53.5207 22.3127H62.1392V30.9327H53.5207V22.3127ZM27.6597 22.3127H36.28V30.9327H27.6597V22.3127ZM22.1726 36.1434C22.1726 38.878 22.5719 40.6532 23.373 41.4714C24.0501 42.1688 25.2042 42.5983 26.8221 42.7583C27.3021 42.7986 28.1248 42.8172 29.286 42.8172V45.2132H8.5156V42.8172C10.184 42.8172 11.4129 42.7379 12.2084 42.5779C13.8176 42.2394 14.832 41.3016 15.2483 39.7641C15.466 38.9674 15.5769 37.7601 15.5769 36.1434V4.82502C12.0525 4.92461 9.29644 6.09152 7.30681 8.32757C5.41648 10.467 4.26361 13.742 3.84463 18.1537L1.59961 17.7661L2.01769 2.78784H35.7839L36.2032 17.7661L33.9555 18.1537C33.5377 13.742 32.3749 10.467 30.4774 8.32757C28.4776 6.09152 25.7084 4.92461 22.1726 4.82502V36.1434ZM1.64059 22.3127H10.2609V30.9327H1.64059V22.3127Z" fill="#E2007A"/>
</g>
<defs>
<clipPath id="clip0_14019_36777">
<rect width="87.36" height="48" fill="white" transform="translate(0.639648)"/>
</clipPath>
</defs>
</svg>
