<svg width="65" height="60" viewBox="0 0 65 60" fill="none" xmlns="http://www.w3.org/2000/svg">
<g clip-path="url(#clip0_14019_34940)">
<path d="M31.074 0L45.8364 14.7624L31.074 29.5249L16.3115 14.7624L31.074 0Z" fill="#F0B736"/>
<path d="M24.7719 29.7678H30.2712L22.3254 21.8219H7.94587C2.15755 22.8962 0.483985 26.0342 0 29.7678H11.1388V43.5729L19.0882 51.8538V35.4533C19.0882 33.9446 19.6856 32.4997 20.7529 31.4325C21.8183 30.367 23.2632 29.7678 24.7737 29.7678H24.7719Z" fill="#414142"/>
<path d="M38.4012 30.7801C37.9155 30.64 37.4173 30.5549 36.9138 30.5248C34.6357 30.5124 25.7166 30.507 25.7166 30.507C21.8748 30.8297 20.0399 32.8986 19.8325 36.3911V52.0914L27.7394 60V49.168H36.7241C39.2398 49.168 41.5658 48.1911 43.3368 46.4236C43.6152 46.1453 43.8474 45.8652 44.0814 45.5868C45.3845 43.9133 46.0812 41.9117 46.0812 39.7684C46.0812 39.5645 46.0741 39.3588 46.0617 39.155C45.7904 35.12 43.4255 32.2285 38.4012 30.7801ZM37.3783 41.4455H37.3322C37.2861 41.5394 37.1922 41.6316 37.0982 41.7256C36.5876 42.2379 35.8891 42.518 35.1445 42.518H32.0243L27.6951 42.4826V37.1109H35.1906C35.9352 37.1109 36.6337 37.391 37.1443 37.9033C37.5166 38.2756 37.7506 38.6958 37.8428 39.162C37.8889 39.3482 37.9368 39.5804 37.9368 39.8145C37.9368 40.4208 37.7524 40.9792 37.3801 41.4455H37.3783Z" fill="#414142"/>
<path d="M64.7669 31.4484C64.1411 25.2878 57.6347 23.7844 57.6347 23.7844C57.6347 23.7844 51.0433 23.8678 48.166 23.8678C47.3221 23.8678 46.6219 23.1639 46.6219 22.3218C46.6219 21.4797 47.3221 20.7759 48.166 20.7759H64.7296C64.8449 17.6291 62.9142 15.6542 58.9005 14.9468L46.6609 14.9876L40.7662 20.8841C40.6704 21.3681 40.6226 21.8627 40.6226 22.3591C40.6226 23.0966 40.7289 23.8358 40.9381 24.5361C41.2891 25.7292 41.9557 26.816 42.8333 27.6935C43.7108 28.5711 44.7976 29.2377 45.9889 29.5869C46.691 29.7979 47.4285 29.9025 48.166 29.9025H57.2607C58.1045 29.9025 58.8048 30.6063 58.8048 31.4484C58.8048 32.2905 58.1045 32.9943 57.2607 32.9943L43.5477 32.716C45.895 34.7938 46.2301 35.9053 46.7477 38.9564H57.2607C57.8067 38.9564 58.3439 38.8997 58.8651 38.7862C62.0527 38.2721 64.0595 36.4549 64.6144 33.0387C64.742 32.5157 64.82 31.9803 64.7669 31.4466V31.4484Z" fill="#414142"/>
<path d="M31.9129 51.485V51.7829H31.1683V53.928H30.8457V51.7829H30.1011V51.485H31.9129Z" fill="#414142"/>
<path d="M32.6433 53.632H33.7992V53.9298H32.3242V51.4868H33.7638V51.7847H32.6433V52.5789H33.6219V52.8803H32.6433V53.632Z" fill="#414142"/>
<path d="M34.0898 52.7136C34.0898 52.0222 34.6394 51.4443 35.3308 51.4443C35.7067 51.4443 36.0329 51.6038 36.2492 51.8591L36.0151 52.0577C35.852 51.8662 35.6038 51.7421 35.3308 51.7421C34.8167 51.7421 34.4125 52.1889 34.4125 52.7136C34.4125 53.2384 34.8167 53.6745 35.3308 53.6745C35.6038 53.6745 35.852 53.5504 36.0151 53.3589L36.2492 53.5575C36.0329 53.8128 35.7067 53.9723 35.3308 53.9723C34.6394 53.9723 34.0898 53.405 34.0898 52.7136Z" fill="#414142"/>
<path d="M38.2242 51.485H38.5469V53.928H38.2242V52.8608H37.0258V53.928H36.7031V51.485H37.0258V52.5665H38.2242V51.485Z" fill="#414142"/>
<path d="M40.6637 51.485H40.9863V53.928H40.6743L39.5468 52.0665V53.928H39.2241V51.485H39.5432L40.6637 53.3394V51.485Z" fill="#414142"/>
<path d="M41.4932 52.7136C41.4932 52.0187 42.0321 51.4443 42.7271 51.4443C43.422 51.4443 43.968 52.0187 43.968 52.7136C43.968 53.4086 43.4256 53.9723 42.7271 53.9723C42.0286 53.9723 41.4932 53.405 41.4932 52.7136ZM43.6454 52.7136C43.6454 52.1889 43.2483 51.7421 42.7271 51.7421C42.2058 51.7421 41.8158 52.1889 41.8158 52.7136C41.8158 53.2384 42.2129 53.6745 42.7271 53.6745C43.2412 53.6745 43.6454 53.2348 43.6454 52.7136Z" fill="#414142"/>
<path d="M44.8046 53.632H45.8045V53.9298H44.4819V51.4868H44.8046V53.632Z" fill="#414142"/>
<path d="M45.9146 52.7136C45.9146 52.0187 46.4535 51.4443 47.1485 51.4443C47.8434 51.4443 48.3894 52.0187 48.3894 52.7136C48.3894 53.4086 47.847 53.9723 47.1485 53.9723C46.45 53.9723 45.9146 53.405 45.9146 52.7136ZM48.0668 52.7136C48.0668 52.1889 47.6697 51.7421 47.1485 51.7421C46.6272 51.7421 46.2372 52.1889 46.2372 52.7136C46.2372 53.2384 46.6343 53.6745 47.1485 53.6745C47.6626 53.6745 48.0668 53.2348 48.0668 52.7136Z" fill="#414142"/>
<path d="M48.7334 52.7136C48.7334 52.0187 49.2759 51.4443 49.9708 51.4443C50.2935 51.4443 50.5807 51.5684 50.7934 51.7634L50.5701 51.9726C50.414 51.8343 50.2013 51.7421 49.9708 51.7421C49.4567 51.7421 49.0561 52.1889 49.0561 52.7136C49.0561 53.2384 49.4567 53.6745 49.9708 53.6745C50.4105 53.6745 50.7722 53.3767 50.7722 52.9866H50.063V52.7065H51.1267C51.1267 53.561 50.6658 53.9723 49.9708 53.9723C49.2759 53.9723 48.7334 53.405 48.7334 52.7136Z" fill="#414142"/>
<path d="M51.5879 53.9298V51.4868H51.9105V53.9298H51.5879Z" fill="#414142"/>
<path d="M52.4175 52.7136C52.4175 52.0222 52.9671 51.4443 53.6585 51.4443C54.0343 51.4443 54.3605 51.6038 54.5768 51.8591L54.3428 52.0577C54.1797 51.8662 53.9315 51.7421 53.6585 51.7421C53.1443 51.7421 52.7401 52.1889 52.7401 52.7136C52.7401 53.2384 53.1443 53.6745 53.6585 53.6745C53.9315 53.6745 54.1797 53.5504 54.3428 53.3589L54.5768 53.5575C54.3605 53.8128 54.0343 53.9723 53.6585 53.9723C52.9671 53.9723 52.4175 53.405 52.4175 52.7136Z" fill="#414142"/>
<path d="M56.5622 53.9298L56.3246 53.3022H55.2751L55.0375 53.9298H54.7007L55.6297 51.4868H55.97L56.899 53.9298H56.5622ZM55.3815 53.0186H56.2182L55.7998 51.9088L55.3815 53.0186Z" fill="#414142"/>
<path d="M57.5692 53.632H58.5691V53.9298H57.2466V51.4868H57.5692V53.632Z" fill="#414142"/>
<path d="M31.3416 54.4989C31.8593 54.4989 32.0685 54.8818 32.0685 55.2612C32.0685 55.6406 31.8593 56.0235 31.3416 56.0235H30.6928V56.9419H30.3701V54.4989H31.3416ZM31.3204 55.7239C31.6253 55.7239 31.7458 55.497 31.7458 55.263C31.7458 55.029 31.6288 54.7985 31.3381 54.7985H30.6928V55.7239H31.3204Z" fill="#414142"/>
<path d="M33.8132 56.9436L33.1714 56.0217H32.8559V56.9436H32.5332V54.5006H33.4515C33.9834 54.5006 34.189 54.8836 34.189 55.263C34.189 55.6175 33.9869 55.9934 33.5508 56.0253L34.1997 56.9436H33.8132ZM32.8559 54.7985V55.7275H33.3664C33.7246 55.7275 33.8664 55.5395 33.8664 55.263C33.8664 54.9864 33.7068 54.7985 33.4586 54.7985H32.8559Z" fill="#414142"/>
<path d="M34.5542 55.7275C34.5542 55.0325 35.0931 54.4581 35.7881 54.4581C36.483 54.4581 37.0291 55.0325 37.0291 55.7275C37.0291 56.4224 36.4866 56.9862 35.7881 56.9862C35.0896 56.9862 34.5542 56.4189 34.5542 55.7275ZM36.7064 55.7275C36.7064 55.2027 36.3093 54.7559 35.7881 54.7559C35.2669 54.7559 34.8769 55.2027 34.8769 55.7275C34.8769 56.2522 35.274 56.6883 35.7881 56.6883C36.3022 56.6883 36.7064 56.2487 36.7064 55.7275Z" fill="#414142"/>
<path d="M38.4902 54.4989C39.1851 54.4989 39.5929 55.0307 39.5929 55.7257C39.5929 56.4206 39.1851 56.9419 38.4902 56.9419H37.5435V54.4989H38.4902ZM38.4902 56.6458C39.0043 56.6458 39.2702 56.2487 39.2702 55.7275C39.2702 55.2062 39.0043 54.7985 38.4902 54.7985H37.8661V56.6458H38.4902Z" fill="#414142"/>
<path d="M40.0889 56.1104V54.5006H40.4115V56.1104C40.4115 56.4969 40.6739 56.6777 40.9788 56.6777C41.2838 56.6777 41.5461 56.4969 41.5461 56.1104V54.5006H41.8688V56.1104C41.8688 56.6671 41.461 56.9862 40.9788 56.9862C40.4966 56.9862 40.0889 56.6671 40.0889 56.1104Z" fill="#414142"/>
<path d="M42.3511 55.7275C42.3511 55.036 42.9007 54.4581 43.5921 54.4581C43.9679 54.4581 44.2941 54.6177 44.5104 54.8729L44.2764 55.0715C44.1133 54.88 43.8651 54.7559 43.5921 54.7559C43.0779 54.7559 42.6737 55.2027 42.6737 55.7275C42.6737 56.2522 43.0779 56.6883 43.5921 56.6883C43.8651 56.6883 44.1133 56.5642 44.2764 56.3728L44.5104 56.5713C44.2941 56.8266 43.9679 56.9862 43.5921 56.9862C42.9007 56.9862 42.3511 56.4189 42.3511 55.7275Z" fill="#414142"/>
<path d="M46.5067 54.4989V54.7967H45.7621V56.9419H45.4394V54.7967H44.6948V54.4989H46.5067Z" fill="#414142"/>
<path d="M46.7334 56.2522H47.0525C47.0631 56.4685 47.2688 56.6883 47.595 56.6883C47.9212 56.6883 48.0879 56.4827 48.0879 56.2664C48.0879 56.0288 47.8716 55.9225 47.6659 55.8693L47.3503 55.7913C46.8327 55.6672 46.7511 55.3622 46.7511 55.1637C46.7511 54.7418 47.1305 54.4581 47.556 54.4581C47.9815 54.4581 48.329 54.7311 48.329 55.1672H48.0098C48.0098 54.9226 47.8077 54.7559 47.5454 54.7559C47.3007 54.7559 47.0738 54.919 47.0738 55.1601C47.0738 55.2452 47.1022 55.4154 47.4284 55.5005L47.7475 55.5856C48.1623 55.6955 48.4105 55.9083 48.4105 56.2558C48.4105 56.6351 48.102 56.9862 47.595 56.9862C47.088 56.9862 46.7369 56.6316 46.7334 56.2522Z" fill="#414142"/>
<path d="M50.6479 55.7009H50.8801V56.9418H50.6479V56.7202C50.5663 56.8692 50.3926 56.972 50.194 56.972C49.8696 56.972 49.5859 56.699 49.5859 56.3178C49.5859 55.9366 49.8536 55.6672 50.2047 55.6672C50.3908 55.6672 50.5663 55.747 50.6479 55.8923V55.6991V55.7009ZM50.6479 56.3214C50.6479 56.0661 50.4334 55.887 50.2259 55.887C50.0008 55.887 49.8199 56.0856 49.8199 56.3214C49.8199 56.5571 50.0008 56.7575 50.2295 56.7575C50.4582 56.7575 50.6496 56.5731 50.6496 56.3214H50.6479Z" fill="#414142"/>
<path d="M52.4262 56.2256V56.9436H52.194V56.2398C52.194 56.0324 52.0663 55.8994 51.8943 55.8994C51.7224 55.8994 51.5132 56.0022 51.5132 56.2717V56.9436H51.2827V55.7026H51.5132V55.8923C51.5876 55.7399 51.7897 55.6707 51.9263 55.6707C52.2347 55.6707 52.428 55.8781 52.4262 56.2256Z" fill="#414142"/>
<path d="M53.7932 55.0254H54.0237V56.9419H53.7932V56.7486C53.7116 56.8887 53.5308 56.9738 53.3518 56.9738C53.0114 56.9738 52.7295 56.7114 52.7295 56.3196C52.7295 55.9278 53.0096 55.669 53.35 55.669C53.5361 55.669 53.7116 55.7487 53.7932 55.8941V55.0254ZM53.7932 56.3178C53.7932 56.0483 53.5751 55.887 53.3713 55.887C53.1443 55.887 52.9653 56.0678 52.9653 56.3178C52.9653 56.5678 53.1461 56.7557 53.3713 56.7557C53.5964 56.7557 53.7932 56.582 53.7932 56.3178Z" fill="#414142"/>
<path d="M30.2109 59.266H30.53C30.5407 59.4823 30.7463 59.7022 31.0725 59.7022C31.3987 59.7022 31.5654 59.4965 31.5654 59.2802C31.5654 59.0427 31.3491 58.9363 31.1435 58.8831L30.8279 58.8051C30.3102 58.681 30.2287 58.3761 30.2287 58.1775C30.2287 57.7556 30.6081 57.4719 31.0335 57.4719C31.459 57.4719 31.8065 57.7449 31.8065 58.1811H31.4874C31.4874 57.9364 31.2853 57.7698 31.0229 57.7698C30.7782 57.7698 30.5513 57.9329 30.5513 58.174C30.5513 58.2591 30.5797 58.4293 30.9059 58.5144L31.225 58.5995C31.6398 58.7094 31.888 58.9221 31.888 59.2696C31.888 59.649 31.5796 60 31.0725 60C30.5655 60 30.2145 59.6454 30.2109 59.266Z" fill="#414142"/>
<path d="M32.7068 59.6596H33.8627V59.9575H32.3877V57.5145H33.8272V57.8123H32.7068V58.6065H33.6854V58.9079H32.7068V59.6596Z" fill="#414142"/>
<path d="M35.6643 59.9575L35.0225 59.0356H34.7069V59.9575H34.3843V57.5145H35.3026C35.8345 57.5145 36.0401 57.8974 36.0401 58.2768C36.0401 58.6314 35.838 59.0072 35.4019 59.0391L36.0507 59.9575H35.6643ZM34.7069 57.8123V58.7413H35.2175C35.5756 58.7413 35.7175 58.5534 35.7175 58.2768C35.7175 58.0002 35.5579 57.8123 35.3097 57.8123H34.7069Z" fill="#414142"/>
<path d="M37.7349 57.5127H38.0646L37.3306 59.9557H37.0222L36.2847 57.5127H36.6144L37.1746 59.4167L37.7349 57.5127Z" fill="#414142"/>
<path d="M38.5005 59.9575V57.5145H38.8231V59.9575H38.5005Z" fill="#414142"/>
<path d="M39.3301 58.7413C39.3301 58.0499 39.8797 57.4719 40.5711 57.4719C40.9469 57.4719 41.2731 57.6315 41.4894 57.8868L41.2554 58.0853C41.0923 57.8939 40.8441 57.7698 40.5711 57.7698C40.0569 57.7698 39.6527 58.2165 39.6527 58.7413C39.6527 59.266 40.0569 59.7022 40.5711 59.7022C40.8441 59.7022 41.0923 59.5781 41.2554 59.3866L41.4894 59.5852C41.2731 59.8404 40.9469 60 40.5711 60C39.8797 60 39.3301 59.4327 39.3301 58.7413Z" fill="#414142"/>
<path d="M42.2625 59.6596H43.4184V59.9575H41.9434V57.5145H43.3829V57.8123H42.2625V58.6065H43.2411V58.9079H42.2625V59.6596Z" fill="#414142"/>
<path d="M43.7803 59.266H44.0994C44.11 59.4823 44.3157 59.7022 44.6419 59.7022C44.9681 59.7022 45.1347 59.4965 45.1347 59.2802C45.1347 59.0427 44.9184 58.9363 44.7128 58.8831L44.3972 58.8051C43.8796 58.681 43.798 58.3761 43.798 58.1775C43.798 57.7556 44.1774 57.4719 44.6029 57.4719C45.0284 57.4719 45.3758 57.7449 45.3758 58.1811H45.0567C45.0567 57.9364 44.8546 57.7698 44.5922 57.7698C44.3476 57.7698 44.1207 57.9329 44.1207 58.174C44.1207 58.2591 44.149 58.4293 44.4752 58.5144L44.7943 58.5995C45.2092 58.7094 45.4574 58.9221 45.4574 59.2696C45.4574 59.649 45.1489 60 44.6419 60C44.1348 60 43.7838 59.6454 43.7803 59.266Z" fill="#414142"/>
</g>
<defs>
<clipPath id="clip0_14019_34940">
<rect width="64.7849" height="60" fill="white" transform="translate(0.214844)"/>
</clipPath>
</defs>
</svg>
