<svg xmlns="http://www.w3.org/2000/svg" height="51.085mm" width="88.212mm" version="1.1" viewBox="0 0 88.211792 51.084888">
 <g transform="translate(-37.917 -86.627)">
  <g transform="matrix(.030339 0 0 -.030339 37.647 137.75)">
   <g stroke="#b9d110" stroke-miterlimit="2.6131" stroke-width="37.701" fill="none">
    <path d="m1079.4 224.92c-7.08 354.54 125.73 815.56 523.44 853.91"/>
    <path d="m1309.3 885.02c25.78 2.906 61.67-18.391 87.72-23.055 74.45-13.336 81.95-29.531 136.48-66.547"/>
    <path d="m1432.5 1035.9c2.25 26.37 23.38 70.52 36.52 92.89 7.99 21.79 50.33 63.12 52.58 89.48 15.9 90.56 4.27 193.69-5.61 281.35"/>
    <path d="m1526.2 1303.6c-5.74 4.58-88.14 75.99-110.22 85.38-10.05 4.28-80.41 21.15-104.18 26.21"/>
    <path d="m1217.7 824.51c-19.54 34.351-31.67 95.648-41.48 136.32-12.13 61.292-173.09 377.35-219.5 372.11"/>
    <path d="m1142 1167c-15 133.04 57.53 228.43 153.34 312.97 28.61 24.12 101.31 74.08 108.13 106.19"/>
    <path d="m1272.8 1462.2c-2.32 20.62-17.73 67.09-20.06 87.71-5.64 50.09-20.54 89.59-25.43 132.91"/>
   </g>
   <g fill="#4a463d">
    <path d="m108.8 6.0898-99.886 279.47h61.23l70.666-206.85 68.45 206.85h59.863l-100.07-279.47h-60.25"/>
    <path d="m296.2 6.0898h56.414v279.47h-56.41z"/>
    <path d="m392.1 96.988 54.918 5.4027c3.253-18.481 9.957-32.012 20.105-40.668 10.086-8.5899 23.688-12.949 40.863-12.949 18.157 0 31.887 3.8399 41.059 11.582 9.238 7.6797 13.859 16.66 13.859 26.941 0 6.6328-1.953 12.23-5.855 16.851-3.84 4.684-10.606 8.719-20.301 12.102-6.57 2.344-21.668 6.375-45.16 12.23-30.254 7.485-51.465 16.727-63.637 27.657-17.176 15.359-25.765 34.097-25.765 56.218 0 14.25 4.035 27.524 12.105 39.954 8.066 12.363 19.715 21.796 34.875 28.304 15.227 6.442 33.512 9.692 54.984 9.692 35.133 0 61.489-7.676 79.25-23.032 17.7-15.421 27.004-35.918 27.918-61.621l-56.414-2.468c-2.41 14.379-7.613 24.726-15.554 30.968-7.938 6.313-19.844 9.438-35.723 9.438-16.399 0-29.281-3.32-38.52-10.086-5.984-4.293-8.98-10.086-8.98-17.309 0-6.636 2.801-12.297 8.394-16.984 7.094-5.984 24.403-12.231 51.86-18.676 27.457-6.504 47.762-13.207 60.902-20.105 13.145-6.961 23.426-16.395 30.91-28.434 7.418-12.039 11.125-26.871 11.125-44.504 0-16.008-4.422-31.039-13.34-44.965-8.92-13.975-21.48-24.381-37.75-31.151-16.26-6.8317-36.56-10.214-60.84-10.214-35.328 0-62.461 8.1328-81.398 24.469-18.934 16.328-30.258 40.144-33.902 71.375"/>
    <path d="m665.07 6.0898h56.414v279.47h-56.41z"/>
    <path d="m775.42 285.56h111.72c22.121 0 38.648-0.914 49.515-2.797 10.867-1.824 20.563-5.66 29.153-11.52 8.585-5.855 15.679-13.597 21.406-23.359 5.726-9.695 8.59-20.625 8.59-32.664 0-13.078-3.516-25.117-10.543-36.047-7.094-10.934-16.657-19.129-28.696-24.598 16.985-4.941 30.125-13.402 39.239-25.308 9.171-11.977 13.731-26.028 13.731-42.164 0-12.691-2.93-25.055-8.85-37.09-5.93-11.971-14-21.6-24.22-28.76-10.21-7.16-22.84-11.582-37.87-13.273-9.37-0.977-32.07-1.6254-68.06-1.8872h-95.129zm56.476-46.524v-64.613h36.961c21.993 0 35.657 0.324 40.993 0.976 9.632 1.106 17.242 4.426 22.773 9.954 5.531 5.531 8.266 12.82 8.266 21.863 0 8.656-2.344 15.683-7.094 21.082-4.817 5.402-11.906 8.652-21.277 9.762-5.598 0.648-21.668 0.976-48.215 0.976zm0-111.14v-74.701h52.188c20.363 0 33.25 0.5196 38.715 1.6914 8.394 1.4961 15.226 5.2735 20.496 11.129 5.273 5.918 7.937 13.859 7.937 23.746 0 8.3946-2.082 15.488-6.117 21.343-4.097 5.856-9.953 10.149-17.633 12.821-7.679 2.668-24.398 3.968-50.035 3.968h-45.551"/>
    <path d="m1058.7 6.0898v277.19h56.41v-230.08h140.29v-47.11h-196.7"/>
    <path d="m1295.7 6.0898v279.47h207.17v-47.31h-150.76v-61.941h140.29v-47.04h-140.3v-76.071h156.1v-47.109h-212.51"/>
    <path d="m1556.6 6.0898v279.47h54.92l114.4-186.62v186.62h52.44v-279.47h-56.67l-112.5 182.26v-182.26h-52.44"/>
    <path d="m1838 6.0898v279.47h207.18v-47.31h-150.77v-61.941h140.29v-47.04h-140.2v-76.071h156.1v-47.109h-212.51"/>
    <path d="m2098.6 6.0898v279.47h118.82c29.86 0 51.53-2.539 65.06-7.547 13.54-5.012 24.41-13.926 32.54-26.746 8.13-12.883 12.17-27.524 12.17-44.051 0-20.953-6.19-38.324-18.48-51.988-12.3-13.602-30.78-22.254-55.31-25.766 12.23-7.16 22.32-14.969 30.26-23.492 7.94-8.5237 18.61-23.621 32.07-45.352l34.17-54.527h-67.48l-40.8 60.84c-14.51 21.73-24.4 35.394-29.73 41.058-5.34 5.66-11 9.5-16.98 11.645-5.99 2.082-15.43 3.125-28.44 3.125h-11.39v-116.67zm56.48 161.3h41.71c27.07 0 43.99 1.109 50.75 3.386 6.71 2.278 11.98 6.246 15.82 11.844 3.77 5.594 5.72 12.555 5.72 20.949 0 9.438-2.54 16.985-7.54 22.778-5.02 5.789-12.11 9.433-21.28 10.996-4.56 0.586-18.29 0.906-41.19 0.906h-43.99v-70.859"/>
    <path d="m2510.4 108.83v47.109h121.61v-111.33c-11.84-11.453-28.95-21.539-51.4-30.258-22.45-8.6524-45.16-13.012-68.13-13.012-29.21 0-54.72 6.1172-76.45 18.352-21.73 12.297-38.07 29.797-49 52.637s-16.4 47.629-16.4 74.442c0 29.085 6.12 54.98 18.29 77.625 12.23 22.578 30.06 39.949 53.62 51.988 17.89 9.305 40.21 13.922 66.89 13.922 34.68 0 61.81-7.285 81.27-21.793 19.51-14.574 32.07-34.684 37.67-60.387l-56.02-10.473c-3.97 13.727-11.39 24.594-22.26 32.532-10.87 7.941-24.4 11.91-40.66 11.91-24.67 0-44.25-7.809-58.83-23.426-14.57-15.68-21.8-38.844-21.8-69.625 0-33.117 7.36-58.039 22.13-74.633 14.7-16.594 34.03-24.856 57.91-24.856 11.84 0 23.68 2.3437 35.59 6.9609 11.84 4.6211 22.06 10.281 30.59 16.852v35.465h-64.62"/>
    <path d="m2757.4 6.0898v117.64l-102.35 161.82h66.17l65.78-110.55 64.43 110.55h65l-102.7-162.21v-117.25h-56.28"/>
   </g>
   <path d="m1029.9 244.49h128.77v44.797h-128.8z" fill-rule="evenodd" fill="#fff"/>
   <path d="m1029.9 244.49h128.77v44.797h-128.8z" stroke="#fff" stroke-miterlimit="2.6131" stroke-width="2.16" fill="none"/>
  </g>
 </g>
</svg>
