<svg width="130" height="32" viewBox="0 0 130 32" fill="none" xmlns="http://www.w3.org/2000/svg">
    <path d="M31.9971 16C31.9971 24.8363 24.8363 32 16 32C7.1637 32 0 24.8363 0 16C0 7.16369 7.1637 0 16 0C24.8363 0 31.9971 7.16369 31.9971 16Z" fill="#EE3023"/>
    <path d="M16.1264 24.9217C11.7318 24.9366 7.15786 21.1855 7.13728 15.1595C7.12256 11.1763 9.27434 7.34022 12.0199 5.06501C14.7008 2.84859 18.3723 1.42289 21.6998 1.41113C22.129 1.41113 22.5788 1.44635 22.8521 1.54042C19.942 2.14303 17.6256 4.85328 17.6344 7.92514C17.6344 8.02796 17.6432 8.13674 17.6549 8.18674C22.5258 9.37432 24.7363 12.3139 24.751 16.3793C24.7627 20.4476 21.5529 24.904 16.1264 24.9217Z" fill="white"/>
    <path d="M42.3294 22.6256L37.438 10.9526H40.6333L43.6845 18.7042L46.6417 10.9526H49.693L44.9456 22.6256H42.3294Z" fill="#EE3023"/>
    <path d="M58.2059 16.7288C58.2059 16.2438 58.15 15.7822 58.0354 15.3442C57.9236 14.9063 57.7532 14.53 57.5268 14.2155C57.3005 13.898 57.0271 13.6481 56.7037 13.4629C56.3804 13.2748 56.0012 13.1807 55.5661 13.1807C55.1311 13.1807 54.7489 13.2748 54.4285 13.4629C54.1052 13.6481 53.8289 13.898 53.6054 14.2155C53.3791 14.53 53.2086 14.9063 53.0969 15.3442C52.9823 15.7822 52.9264 16.2438 52.9264 16.7288C52.9264 17.2314 52.9823 17.6988 53.0969 18.128C53.2086 18.5572 53.3732 18.9334 53.5908 19.2568C53.8083 19.5802 54.0846 19.8359 54.4168 20.024C54.746 20.2092 55.1311 20.3033 55.5661 20.3033C56.0012 20.3033 56.3804 20.2092 56.7037 20.024C57.0271 19.8359 57.3005 19.5802 57.5268 19.2568C57.7532 18.9334 57.9237 18.5572 58.0354 18.128C58.15 17.6988 58.2059 17.2314 58.2059 16.7288ZM61.1601 16.7416C61.1601 17.5029 61.0425 18.2496 60.8103 18.9845C60.5751 19.7193 60.2283 20.3748 59.7668 20.9569C59.3082 21.5389 58.7262 22.0063 58.0236 22.362C57.3211 22.7177 56.5009 22.8941 55.5661 22.8941C54.6284 22.8941 53.8083 22.7177 53.1087 22.362C52.4061 22.0063 51.8241 21.5389 51.3626 20.9569C50.904 20.3749 50.5571 19.7193 50.322 18.9845C50.0897 18.2496 49.9722 17.5029 49.9722 16.7416C49.9722 15.9832 50.0897 15.2424 50.322 14.5134C50.5571 13.7873 50.904 13.1377 51.3626 12.5645C51.8241 11.9913 52.4061 11.5327 53.1087 11.1858C53.8083 10.839 54.6284 10.6626 55.5661 10.6626C56.5009 10.6626 57.3181 10.839 58.0118 11.1858C58.7056 11.5327 59.2876 11.9913 59.755 12.5645C60.2253 13.1377 60.5751 13.7873 60.8103 14.5134C61.0425 15.2424 61.1601 15.9832 61.1601 16.7416Z" fill="#EE3023"/>
    <path d="M70.1819 13.5217C69.6029 13.2954 69.0649 13.1807 68.5652 13.1807C68.0537 13.1807 67.6098 13.2808 67.2424 13.4747C66.872 13.6686 66.5663 13.9303 66.3253 14.2625C66.0842 14.5946 65.9049 14.968 65.7844 15.3824C65.6638 15.794 65.6021 16.2202 65.6021 16.6582C65.6021 17.1432 65.655 17.6077 65.7609 18.0545C65.8637 18.4984 66.0254 18.8893 66.2429 19.2215C66.4575 19.5537 66.7309 19.8212 67.0601 20.024C67.3894 20.2239 67.7803 20.3268 68.2301 20.3268C68.6005 20.3268 68.9767 20.224 69.3618 20.024C69.7469 19.8211 70.0203 19.5801 70.182 19.3067L70.1819 13.5217ZM70.423 22.6255L70.3025 21.7319C70.0291 22.0376 69.6675 22.308 69.2148 22.5402C68.7651 22.7754 68.233 22.893 67.6216 22.893C66.8191 22.893 66.1077 22.7226 65.4992 22.3845C64.8849 22.0464 64.3704 21.5937 63.953 21.0293C63.5356 20.465 63.2152 19.8094 62.9977 19.0657C62.7831 18.3249 62.6743 17.5489 62.6743 16.7405C62.6743 15.9821 62.786 15.2384 63.0094 14.5123C63.2358 13.7863 63.5768 13.1366 64.0353 12.5634C64.4968 11.9902 65.0701 11.5316 65.7638 11.1848C66.4546 10.8379 67.2688 10.6615 68.2007 10.6615C68.8121 10.6615 69.4735 10.7761 70.182 10.9996V6.47266H73.1832V22.6255H70.423Z" fill="#EE3023"/>
    <path d="M81.6375 17.1522C81.3141 17.1692 80.979 17.1993 80.638 17.2375C80.2971 17.2786 79.9737 17.3315 79.665 17.3962C79.0125 17.5255 78.5627 17.746 78.3099 18.0605C78.0601 18.378 77.9337 18.719 77.9337 19.0923C77.9337 19.4774 78.0748 19.789 78.3599 20.0242C78.645 20.2564 79.0448 20.3739 79.5651 20.3739C79.9561 20.3739 80.3353 20.2946 80.6998 20.1329C81.0643 19.9712 81.3788 19.7684 81.6375 19.5274V17.1522ZM81.8785 22.6168L81.761 21.7437C81.4347 22.1024 81.0231 22.3846 80.5205 22.5874C80.0178 22.7903 79.4681 22.8931 78.8684 22.8931C78.3658 22.8931 77.8807 22.8078 77.4222 22.6374C76.9577 22.4699 76.5491 22.2258 76.1934 21.9113C75.8378 21.5968 75.5497 21.2117 75.3322 20.7502C75.1117 20.2887 75.0029 19.7684 75.0029 19.1864C75.0029 18.6073 75.1146 18.0928 75.3439 17.649C75.5703 17.2051 75.876 16.8318 76.2669 16.5231C76.655 16.2174 77.1018 15.9675 77.6044 15.7735C78.1042 15.5796 78.6333 15.4325 79.183 15.3355C79.571 15.2562 79.9972 15.1973 80.4587 15.1561C80.9203 15.1149 81.3053 15.0798 81.614 15.0473V14.8769C81.614 14.2302 81.4494 13.7716 81.1143 13.4953C80.7821 13.2219 80.3235 13.0838 79.7415 13.0838C79.4005 13.0838 79.0742 13.1249 78.7656 13.2073C78.4569 13.2866 78.1835 13.3867 77.9395 13.5071C77.6956 13.6306 77.481 13.7511 77.2928 13.8716C77.1077 13.9921 76.9577 14.1009 76.8431 14.1979L75.8495 12.0932C75.9789 11.9786 76.1758 11.8433 76.4433 11.6816C76.7108 11.52 77.0312 11.3612 77.4134 11.2084C77.7926 11.0554 78.2188 10.9262 78.695 10.8203C79.1712 10.7145 79.6856 10.6616 80.2324 10.6616C80.8791 10.6616 81.4699 10.747 82.002 10.9174C82.5341 11.0878 82.9956 11.3524 83.3836 11.7169C83.7687 12.0785 84.0714 12.5371 84.2919 13.0956C84.5094 13.6512 84.6182 14.3243 84.6182 15.115V22.6168H81.8785Z" fill="#EE3023"/>
    <path d="M93.895 9.13603C93.798 9.0891 93.6098 9.0185 93.3276 8.93019C93.0425 8.84209 92.6692 8.79794 92.1989 8.79794C91.7815 8.79794 91.4287 8.92444 91.1465 9.17421C90.8643 9.42407 90.7232 9.83267 90.7232 10.3971V10.9526H93.2424V13.3748H90.7467V22.6256H87.7425V13.3748H86.1934V10.9526H87.7425V10.3236C87.7425 9.56516 87.8395 8.92436 88.0335 8.39817C88.2275 7.87494 88.498 7.44575 88.8448 7.11652C89.1917 6.78434 89.6003 6.54037 90.0677 6.38751C90.538 6.23457 91.0466 6.1582 91.5963 6.1582C92.3223 6.1582 92.922 6.22582 93.3982 6.36404C93.8744 6.50227 94.1537 6.59334 94.233 6.64332L93.895 9.13603Z" fill="#EE3023"/>
    <path d="M102.082 16.7288C102.082 16.2438 102.023 15.7822 101.911 15.3442C101.8 14.9063 101.629 14.53 101.403 14.2155C101.176 13.898 100.903 13.6481 100.58 13.4629C100.256 13.2748 99.8772 13.1807 99.4421 13.1807C99.0071 13.1807 98.6249 13.2748 98.3045 13.4629C97.9812 13.6481 97.7048 13.898 97.4785 14.2155C97.2551 14.53 97.0846 14.9063 96.9699 15.3442C96.8582 15.7822 96.8024 16.2438 96.8024 16.7288C96.8024 17.2314 96.8582 17.6988 96.9699 18.128C97.0846 18.5572 97.2492 18.9334 97.4667 19.2568C97.6843 19.5802 97.9606 19.8359 98.2898 20.024C98.622 20.2092 99.0071 20.3033 99.4421 20.3033C99.8772 20.3033 100.256 20.2092 100.58 20.024C100.903 19.8359 101.176 19.5802 101.403 19.2568C101.629 18.9334 101.8 18.5572 101.911 18.128C102.023 17.6988 102.082 17.2314 102.082 16.7288ZM105.036 16.7416C105.036 17.5029 104.919 18.2496 104.683 18.9845C104.451 19.7193 104.104 20.3748 103.643 20.9569C103.184 21.5389 102.602 22.0063 101.9 22.362C101.197 22.7177 100.377 22.8941 99.4421 22.8941C98.5044 22.8941 97.6843 22.7177 96.9847 22.362C96.2821 22.0063 95.7001 21.5389 95.2386 20.9569C94.78 20.3749 94.4331 19.7193 94.198 18.9845C93.9628 18.2496 93.8481 17.5029 93.8481 16.7416C93.8481 15.9832 93.9628 15.2424 94.198 14.5134C94.4331 13.7873 94.78 13.1377 95.2386 12.5645C95.7001 11.9913 96.2821 11.5327 96.9847 11.1858C97.6843 10.839 98.5044 10.6626 99.4421 10.6626C100.377 10.6626 101.194 10.839 101.888 11.1858C102.582 11.5327 103.164 11.9913 103.631 12.5645C104.101 13.1377 104.451 13.7873 104.683 14.5134C104.919 15.2424 105.036 15.9832 105.036 16.7416Z" fill="#EE3023"/>
    <path d="M114.357 22.6256V15.9675C114.357 15.0797 114.172 14.3919 113.802 13.9069C113.429 13.4248 112.914 13.1808 112.25 13.1808C111.782 13.1808 111.35 13.3013 110.956 13.5453C110.56 13.7863 110.216 14.0538 109.925 14.3449V22.6256H106.923V10.9526H109.66L109.804 11.8727C110.274 11.4876 110.801 11.1878 111.391 10.9791C111.979 10.7675 112.573 10.6646 113.17 10.6646C113.784 10.6646 114.349 10.7556 114.866 10.9409C115.383 11.129 115.827 11.4229 116.198 11.8256C116.571 12.2284 116.856 12.7546 117.059 13.3983C117.259 14.045 117.362 14.8211 117.362 15.7235V22.6256H114.357Z" fill="#EE3023"/>
    <path d="M126.704 15.3856C126.671 14.9828 126.586 14.6301 126.448 14.3332C126.31 14.0333 126.139 13.7923 125.936 13.6071C125.733 13.419 125.516 13.2837 125.281 13.1926C125.043 13.1045 124.805 13.0604 124.561 13.0604C124.04 13.0604 123.546 13.2543 123.076 13.6424C122.606 14.0304 122.329 14.6095 122.247 15.3856H126.704ZM122.177 17.5402C122.241 18.525 122.547 19.2364 123.1 19.6714C123.649 20.1065 124.364 20.3269 125.237 20.3269C125.642 20.3269 126.024 20.2887 126.38 20.2181C126.736 20.1448 127.053 20.0535 127.33 19.9389C127.606 19.8271 127.841 19.7125 128.035 19.6008C128.229 19.4863 128.373 19.3804 128.473 19.2834L129.273 21.732C129.158 21.8113 128.976 21.9202 128.726 22.0583C128.476 22.1965 128.164 22.3229 127.794 22.4463C127.424 22.5668 126.986 22.6697 126.486 22.7608C125.986 22.8489 125.437 22.8931 124.84 22.8931C124.078 22.8931 123.358 22.7726 122.67 22.5315C121.986 22.2876 121.383 21.9113 120.868 21.4028C120.351 20.8942 119.94 20.2622 119.634 19.5038C119.325 18.7454 119.172 17.84 119.172 16.7906C119.172 15.8058 119.313 14.9328 119.596 14.1744C119.878 13.416 120.266 12.7781 120.757 12.2607C121.251 11.7463 121.824 11.3495 122.476 11.0731C123.132 10.7998 123.829 10.6616 124.572 10.6616C125.316 10.6616 126.001 10.7851 126.633 11.0261C127.262 11.2672 127.806 11.6434 128.267 12.152C128.726 12.6605 129.09 13.319 129.355 14.1273C129.622 14.9328 129.755 15.8941 129.755 17.0081V17.5402L122.177 17.5402Z" fill="#EE3023"/>
</svg>
