<svg width="36" height="36" viewBox="0 0 36 36" fill="none" xmlns="http://www.w3.org/2000/svg">
<path d="M7.60856 30.2507C7.36856 30.0467 7.0497 29.9798 6.80028 29.7921C6.74456 29.571 6.53456 29.5744 6.37771 29.5178C5.94485 29.361 5.54629 29.4835 5.32514 29.8195C5.13143 30.1144 5.20686 30.5112 5.512 30.8515C5.70057 31.0615 5.94485 31.203 6.14628 31.3967C6.39999 31.6409 6.44628 31.8424 6.31771 32.1209C6.18999 32.3978 6.00314 32.4955 5.656 32.4604C5.04743 32.3987 4.64972 32.0181 4.30858 31.5587C3.1883 30.0458 4.49715 28.2561 5.71686 28.089C6.42828 27.9913 7.04027 28.2313 7.63684 28.5621C8.28484 28.9221 8.86683 29.391 9.53197 29.7218C10.4654 30.1847 11.4322 30.3955 12.4702 30.1392C13.4585 29.895 13.9274 29.3078 13.9359 28.2955C13.9419 27.4418 13.7422 26.619 13.5845 25.7901C13.4474 25.0761 13.6368 24.4736 14.1502 23.9696C14.7656 23.3653 15.4719 22.9667 16.3728 23.0096C16.3511 22.992 16.325 22.9807 16.2973 22.977C14.7562 22.7756 13.1062 24.2884 13.2039 25.827C13.2194 26.0593 13.1439 26.1673 12.9528 26.2873C12.0065 26.8787 10.9462 27.1101 9.87311 27.309C8.45541 27.573 7.11313 27.3887 5.88743 26.5958C5.22829 26.1698 4.78515 25.5887 4.73886 24.7719C4.66258 23.433 4.95058 22.1807 5.63628 21.0227C5.79657 20.7527 5.94657 20.475 6.09142 20.1965C6.13 20.1228 6.22171 20.0328 6.09914 19.947C6.05885 19.8099 6.24314 19.7499 6.21142 19.6162C6.25193 19.6211 6.29056 19.636 6.3238 19.6597C6.35704 19.6833 6.38382 19.7149 6.40171 19.7516C6.58171 20.073 6.85513 20.3182 7.08827 20.5959C6.72485 21.2507 6.39056 21.9159 6.25514 22.6624C6.14371 23.2744 6.18314 23.8633 6.52771 24.4033C7.0677 25.2527 7.9197 25.569 8.8514 25.6599C10.4534 25.8141 11.8574 25.3316 13.0497 24.2319C14.0251 23.331 14.2394 22.1662 13.6239 21.0056C13.3479 20.4845 12.9879 20.025 12.6262 19.5648C12.0545 18.8362 11.4502 18.1333 11.026 17.2968C10.1508 15.5696 10.2082 13.8399 10.9685 12.0982C10.9805 12.1111 10.9994 12.1231 11.0028 12.1385C11.1708 12.838 11.5994 13.0925 12.2774 12.8397C13.2837 12.4634 13.9436 11.7271 14.2411 10.708C14.4125 10.1251 14.2899 9.55684 13.6651 9.33055C13.6214 9.31427 13.5922 9.25684 13.5562 9.21827C14.0534 8.88056 14.6208 8.68684 15.1899 8.54284C16.4816 8.21141 17.8322 8.18208 19.137 8.45713C20.7032 8.77514 22.1475 9.52994 23.3027 10.6343C24.0133 11.308 24.5927 12.0648 24.8439 13.0462C25.1901 14.3945 25.0838 15.6836 24.4813 16.9402C23.9241 18.1025 23.0687 19.0033 22.0607 19.7799C21.2576 20.3979 20.4467 21.0099 19.9127 21.903C19.6916 22.2742 19.4927 22.653 19.3607 23.127C19.5733 22.983 19.5982 22.7756 19.7267 22.6453C19.917 22.6813 20.0027 22.4996 20.151 22.4422C20.9996 22.1139 21.8533 22.1422 22.713 22.3805C22.4524 22.6359 22.1816 22.8819 21.9339 23.1493C21.7299 23.3679 21.4419 23.5059 21.3107 23.7939L21.3099 23.7947C21.2893 23.7639 21.267 23.7622 21.2422 23.7896L21.0365 23.9722C20.7656 24.1667 20.1519 24.255 19.9239 24.0947C20.0327 24.2833 19.9667 24.3776 19.8407 24.477C19.6093 24.6604 19.4722 24.9099 19.395 25.1987C19.239 25.7927 19.6265 26.193 20.1056 26.4056C20.5256 26.5941 20.7913 26.4287 21.0519 25.8681C21.1264 25.707 21.1607 25.8287 21.2096 25.8801C21.1924 25.947 21.2285 26.0019 21.2516 26.0601C21.4282 26.4964 21.5242 26.943 21.4719 27.4204C21.441 27.6981 21.357 27.9604 21.303 28.2313C21.2762 28.2326 21.2492 28.232 21.2225 28.2295C19.4602 27.9467 18.2936 26.5984 18.267 24.8199C18.2653 24.7187 18.3133 24.5961 18.1873 24.5053L18.123 25.2399L18.1273 25.2339C18.0305 25.2819 17.9799 25.3676 17.9302 25.4593C17.6816 25.9179 17.5668 26.415 17.5042 26.9284C17.4819 27.1718 17.3859 27.3424 17.1185 27.4016C16.9479 27.4384 16.8785 27.6141 16.8073 27.7556C16.6008 28.1653 16.7482 28.6298 17.2033 28.7781C17.4716 28.8664 17.6679 28.6967 17.8993 28.6547L18.0399 28.8518C18.5268 29.5393 19.167 29.9961 20.013 30.1058C20.6439 30.1872 21.2447 30.0415 21.813 29.7647C22.2784 29.5482 22.6773 29.2111 22.9684 28.7884C23.4501 28.0753 23.4716 27.3304 23.0336 26.6078C22.6119 25.9136 22.0222 25.3993 21.1882 25.2364C21.0562 25.2107 20.9096 25.1104 20.817 25.3041C20.847 25.359 20.8745 25.4156 20.8985 25.473C21.0656 25.9487 20.7562 26.3987 20.307 26.3378C19.6899 26.253 19.3702 25.6221 19.6573 25.0701C19.9247 24.5567 20.3773 24.3956 20.913 24.3879C21.8559 24.375 22.653 24.777 23.403 25.2939C24.9853 26.3858 25.2201 28.341 24.4779 29.7475C24.0416 30.573 23.2993 31.035 22.4602 31.3744C22.392 31.406 22.3176 31.4217 22.2425 31.4206C22.1674 31.4194 22.0936 31.4012 22.0264 31.3675C21.4273 31.0984 20.8385 30.8061 20.2187 30.585C20.0854 30.5322 19.94 30.5173 19.7987 30.5421C19.2733 30.6398 18.7822 30.8447 18.279 31.011C18.1162 31.0641 18.0022 31.0418 17.859 30.9424C17.0808 30.4041 16.5819 29.6413 16.1456 28.8295C15.9271 28.4224 15.7839 27.9896 15.7762 27.5198C16.1482 27.5078 16.4542 27.3141 16.7113 27.0887C17.3953 26.4861 17.2008 25.5793 16.5622 25.1901C16.3908 25.0864 16.1902 25.1447 16.0419 25.017C16.1208 24.7881 16.2922 24.6141 16.4191 24.4024C16.1113 24.4813 15.9811 24.561 15.8962 24.7161L15.9005 24.7119C15.8628 24.6459 15.8225 24.6964 15.7933 24.7161C15.3262 25.0444 15.0048 25.4704 14.9062 26.0456C14.8222 26.5281 14.9182 26.9927 15.0305 27.4573C15.2396 28.3187 15.4891 29.1698 15.5328 30.0655C15.5739 30.9278 15.1916 31.563 14.5051 32.0104C13.3994 32.7304 12.2182 32.6944 11.02 32.2521C11.1588 32.2118 11.176 32.1072 11.1862 31.9804C11.2342 31.3812 10.6102 30.5172 9.84054 30.3792C9.27483 30.2772 8.7674 30.4907 8.79655 31.1258C8.53255 30.9338 8.27026 30.7384 8.00198 30.5515C7.93341 30.5035 7.88455 30.3981 7.77055 30.447L7.77141 30.4478C7.81255 30.3707 7.76541 30.3784 7.71484 30.3895L7.71827 30.3938C7.74398 30.3304 7.7097 30.3252 7.66084 30.3355L7.66513 30.3398C7.68141 30.2884 7.63941 30.273 7.60856 30.2507ZM14.5848 18.3665C14.5505 18.3922 14.5154 18.4162 14.4802 18.4411C14.0259 18.8885 13.9548 19.4328 14.1168 20.0139C14.2642 20.5462 14.8711 20.847 15.5808 20.7459C16.1593 20.6636 16.5879 20.3516 16.7833 19.7893C16.9633 19.2708 16.8725 18.7908 16.4679 18.3991C16.0496 17.9945 15.5636 17.9045 15.0228 18.1179C14.8586 18.1637 14.7082 18.249 14.5848 18.3665ZM18.0553 18.5439C18.0622 18.6065 18.0442 18.6365 17.9696 18.6348C17.7948 18.6305 17.6499 18.7153 17.5102 18.8096C16.9573 19.095 16.7516 20.1039 17.1296 20.6713C17.4571 21.1642 18.2182 21.3442 18.8568 21.0802C19.467 20.8273 19.8425 20.2196 19.7696 19.6025C19.7036 19.0488 19.2313 18.5568 18.6605 18.4591C18.4539 18.4239 18.2422 18.4076 18.0553 18.5439ZM15.5371 10.7543C16.2622 10.7543 16.7439 10.456 17.1313 9.9914C17.3139 9.77026 17.3696 9.51055 17.2222 9.23712C17.0791 8.97141 16.8433 8.86513 16.5571 8.85141C15.9151 8.82313 15.4771 9.15741 15.1154 9.64684C14.9354 9.88941 14.8454 10.1405 14.9602 10.4234C15.0004 10.5387 15.0809 10.6357 15.1869 10.6965C15.2929 10.7573 15.4172 10.7778 15.5371 10.7543Z" fill="#A7B9CC"/>
<path d="M10.9713 12.0993C10.2111 13.841 10.1536 15.5707 11.0288 17.2978C11.453 18.1344 12.0573 18.8364 12.629 19.5658C12.9908 20.0261 13.3507 20.4855 13.6267 21.0058C14.2422 22.1681 14.0279 23.3321 13.0525 24.2329C11.8602 25.3335 10.4553 25.8161 8.85421 25.6609C7.92251 25.5709 7.07137 25.2538 6.53052 24.4044C6.18595 23.8644 6.14738 23.2755 6.25795 22.6644C6.39337 21.917 6.72766 21.2518 7.09108 20.597C7.32439 20.2894 7.53004 19.9619 7.70565 19.6181C8.03136 19.0061 7.95422 18.4044 7.64136 17.8104C7.56851 17.6733 7.49051 17.6673 7.36108 17.7307C7.12708 17.8447 6.88023 17.933 6.64623 18.0478C6.32652 18.2064 6.05223 18.143 5.76424 17.951C5.36995 17.6887 4.97224 17.4247 4.53167 17.2387C4.20425 17.0416 3.99511 16.7793 3.99339 16.3713C3.98794 16.0297 3.96735 15.6885 3.93168 15.3487C3.91968 15.2184 4.00025 15.0084 3.84597 14.975C3.70282 14.945 3.59825 15.131 3.52025 15.2621C3.45719 15.3704 3.40713 15.4858 3.37111 15.6059C3.2614 15.9676 3.2734 16.3353 3.33511 16.703C3.3994 17.0896 3.58711 17.3887 3.96339 17.5507C4.25311 17.6716 4.55225 17.7693 4.85824 17.8413C4.98339 17.8867 5.10681 17.939 5.22595 17.999C5.75738 18.3015 6.26309 18.6281 6.20738 19.3567C5.89452 18.6753 5.30738 18.3521 4.62853 18.1507C4.33478 18.0706 4.04856 17.965 3.77311 17.8353C3.28197 17.5901 3.05311 17.1753 3.01711 16.649C2.97769 16.097 2.97426 15.5467 3.37283 15.0924C3.49625 14.951 3.61711 14.8019 3.82711 14.7916C3.851 14.794 3.87493 14.7874 3.89425 14.7731C3.91357 14.7589 3.92691 14.738 3.93168 14.7144C3.93459 14.6984 3.93341 14.6819 3.92825 14.6664C3.89911 14.4659 4.03368 14.4144 4.18453 14.3519C5.04167 13.9953 5.93823 13.7622 6.82023 13.481C7.10676 13.3935 7.41423 13.4034 7.69451 13.5093C8.2285 13.6979 8.76507 13.8804 9.28192 14.1127C9.50821 14.2139 9.61621 14.3279 9.58192 14.6201C9.52192 15.1456 9.53478 15.6804 9.53392 16.211C9.53306 16.4313 9.47392 16.5898 9.27164 16.697C8.77964 16.9576 8.2945 17.2284 7.80422 17.4924C7.67994 17.5593 7.59594 17.585 7.71251 17.771C8.11793 18.4207 8.15479 19.103 7.79993 19.7964C7.47422 20.435 7.06965 21.0341 6.81423 21.7095C6.6128 22.2203 6.52392 22.7684 6.55366 23.3167C6.60337 24.0924 7.18537 24.7824 8.01336 25.0395C9.25621 25.4244 10.4605 25.2949 11.6185 24.7224C12.2492 24.4128 12.8173 23.9894 13.2942 23.4735C13.7767 22.9507 13.8976 22.3429 13.6619 21.6761C13.4142 20.975 12.9368 20.4204 12.4748 19.8573C11.8953 19.1501 11.2439 18.5038 10.7605 17.7153C10.0628 16.5787 9.81506 15.3547 9.94706 14.0416C10.1073 12.4507 10.7271 11.0639 11.8353 9.9119C12.7833 8.92619 13.967 8.34334 15.2853 8.04506C16.8976 7.67649 18.5793 7.74506 20.1556 8.24563C20.1898 8.25677 20.225 8.26448 20.261 8.27134C20.267 8.27306 20.2756 8.26448 20.3047 8.24906C19.9996 7.55049 19.8984 6.83135 20.2181 6.10622C20.549 5.35536 21.209 5.06222 22.0121 4.9028C21.749 4.7228 21.5261 4.57108 21.3024 4.42023C21.2587 4.38908 21.2129 4.36101 21.1653 4.33623C20.5267 4.02337 20.183 3.58281 20.3613 2.81224C20.4684 2.35282 20.4898 1.87282 20.5987 1.40739C20.693 1.00454 20.9313 0.7774 21.3187 0.7054C22.1475 0.551116 22.9764 0.385688 23.8275 0.391688C24.0795 0.396831 24.3247 0.467973 24.5407 0.597401C24.6547 0.662543 24.7344 0.686543 24.8304 0.55883C25.2967 -0.0583082 26.4718 -0.182593 27.0992 0.277689C27.8458 0.826256 28.3138 1.57625 28.4278 2.5071C28.5101 3.18424 28.1963 3.72681 27.7429 4.19652C27.5886 4.35594 27.4575 4.50851 27.4601 4.74937C27.4626 4.90794 27.3606 5.00394 27.2098 5.06308C26.3355 5.40251 25.4235 5.60479 24.5098 5.79765C24.2192 5.8585 23.939 6.02565 23.621 5.84565C23.5095 5.78308 23.4152 5.9545 23.315 6.01793C22.7587 6.37621 22.4458 6.86821 22.5187 7.55563L22.4527 7.5582C22.2118 6.6925 22.6884 6.14736 23.3304 5.66479C22.9961 5.47536 22.6841 5.30051 22.3747 5.12051C22.3452 5.10213 22.3124 5.08978 22.2781 5.08419C22.2438 5.0786 22.2088 5.07987 22.175 5.08794C21.407 5.22937 20.6518 5.9425 20.501 6.7045C20.4033 7.20164 20.4238 7.7142 20.5635 8.20106C20.5791 8.26566 20.6105 8.32536 20.655 8.37475C20.6994 8.42414 20.7555 8.46166 20.8181 8.48391C21.1395 8.62362 21.4558 8.77705 21.7618 8.94676C23.2635 9.77819 24.4832 10.8856 25.1989 12.4816C25.4304 13.1433 25.5538 13.8384 25.5624 14.5396C25.5701 15.8313 25.1552 16.991 24.4515 18.0676C24.0615 18.665 23.5824 19.1715 23.0527 19.6335C22.3455 20.2515 21.5913 20.813 20.849 21.389C20.4067 21.7404 20.0278 22.1664 19.7304 22.6464C19.6018 22.7758 19.5761 22.9841 19.3636 23.1281C19.4956 22.6541 19.6944 22.2761 19.9156 21.905C20.4496 21.011 21.2604 20.399 22.0635 19.781C23.0715 19.0044 23.927 18.1036 24.4849 16.9413C25.0875 15.6847 25.1929 14.3956 24.8467 13.0473C24.5955 12.0659 24.0152 11.309 23.3064 10.6345C22.1509 9.53001 20.7064 8.7752 19.1398 8.45734C17.835 8.1826 16.4843 8.21222 15.1927 8.54391C14.6245 8.68877 14.057 8.88162 13.559 9.21933C12.3556 9.87247 11.5113 10.8496 10.9713 12.0993ZM20.597 3.37709C20.5473 3.54166 20.6613 3.65395 20.8053 3.76623C21.131 4.02166 21.5073 4.1948 21.8561 4.4108C22.3807 4.7348 22.919 5.03565 23.4581 5.33565C23.7598 5.50365 23.7744 5.49422 23.7924 5.13165C23.8181 4.56594 23.8824 4.00195 23.9878 3.44566C24.0392 3.19024 23.9758 3.07024 23.7744 2.94853C22.8629 2.39639 21.9552 1.8381 21.0513 1.27368C20.8755 1.16397 20.8584 1.25825 20.8344 1.38682C20.7144 2.0331 20.6578 2.6871 20.597 3.37709ZM27.5132 2.93481C27.5561 2.6331 27.5166 2.56453 27.2818 2.61596C26.4084 2.81567 25.5247 2.96738 24.6332 3.07024C24.4104 3.09338 24.2544 3.18595 24.2304 3.44566C24.1678 4.13309 24.0864 4.8188 24.0212 5.50622C24.0084 5.65022 24.1018 5.65193 24.2218 5.62108C24.4815 5.55251 24.7455 5.49851 25.0095 5.44365C25.6944 5.30051 26.3749 5.14365 27.0375 4.91565C27.1644 4.87108 27.1935 4.79823 27.2098 4.67908C27.2417 4.38536 27.2921 4.09393 27.3606 3.80652C27.4455 3.48424 27.4164 3.14567 27.5132 2.93481ZM21.089 0.974541C21.1224 1.00711 21.1575 1.03883 21.1944 1.06711C22.1047 1.67825 23.045 2.24139 23.9887 2.79853C24.1452 2.8906 24.3307 2.92029 24.5081 2.88167C25.0121 2.78824 25.5195 2.7111 26.0244 2.62281C26.3964 2.55767 26.7675 2.48567 27.1755 2.41024C27.143 2.38012 27.1087 2.35206 27.0726 2.32624C26.2815 1.88568 25.4749 1.47082 24.7035 0.998541C24.2201 0.702829 23.7247 0.623115 23.1838 0.689972C22.7107 0.7474 22.2367 0.803114 21.7653 0.872542C21.5467 0.904256 21.317 0.866542 21.089 0.974541ZM6.32566 17.8258C6.56309 17.7804 6.72594 17.6467 6.91023 17.5618C7.63451 17.2276 8.33222 16.8401 9.02307 16.4407C9.09145 16.408 9.14784 16.3547 9.18429 16.2883C9.22074 16.2219 9.2354 16.1456 9.22621 16.0704C9.20859 15.6655 9.20859 15.26 9.22621 14.855C9.23478 14.6116 9.14907 14.609 8.95964 14.687C8.1625 15.0136 7.38765 15.3933 6.57337 15.6779C6.42166 15.731 6.32052 15.8244 6.32309 16.0139C6.33166 16.6087 6.32566 17.2036 6.32566 17.8258ZM4.2891 14.5584C4.91824 14.8893 5.52595 15.2004 6.12338 15.5296C6.17473 15.5622 6.23377 15.5807 6.29456 15.5833C6.35536 15.5859 6.41575 15.5724 6.46966 15.5441C7.13137 15.263 7.79822 14.9939 8.46164 14.7127C8.67164 14.6244 8.89878 14.5687 9.13021 14.3964C8.55593 14.1796 8.02793 13.9662 7.48879 13.781C7.26251 13.7039 7.01137 13.667 6.77137 13.7382C5.93352 13.979 5.10546 14.2526 4.2891 14.5584ZM6.14738 17.879C6.17995 17.3467 6.11395 16.8581 6.18509 16.3756C6.25795 15.8819 6.22023 15.7987 5.75567 15.6084C5.717 15.5869 5.67978 15.5628 5.64424 15.5364C5.16596 15.2621 4.64396 15.0753 4.13568 14.7239C4.17596 15.3547 4.27282 15.9136 4.28653 16.4776C4.29168 16.6884 4.40653 16.8264 4.60282 16.9378C5.11538 17.2293 5.64167 17.5001 6.14738 17.879ZM25.9001 0.233118C25.6301 0.210833 25.3044 0.317117 25.0104 0.53483C24.8441 0.658258 24.8235 0.744828 25.0327 0.857113C25.8409 1.28825 26.6389 1.73739 27.4481 2.16682C27.6418 2.26967 27.7335 2.41453 27.7275 2.61596C27.7206 2.8851 27.6949 3.15424 27.6641 3.42167C27.6572 3.48166 27.6084 3.55366 27.6709 3.58624C27.7438 3.62395 27.7764 3.54252 27.8029 3.48766C27.8603 3.37624 27.9126 3.26138 27.9581 3.14481C28.2478 2.34682 27.8818 1.69025 27.4884 1.04825C27.1506 0.497116 26.6398 0.239975 25.9001 0.233118Z" fill="#121316"/>
<path d="M21.191 25.2375C22.0259 25.4004 22.6139 25.9146 23.0365 26.6089C23.4745 27.3315 23.453 28.0763 22.9713 28.7895C22.6799 29.2129 22.2813 29.5498 21.8159 29.7666C21.2476 30.0426 20.6468 30.1883 20.0159 30.1069C19.1699 29.9972 18.5296 29.5412 18.0428 28.8529L17.9022 28.6558C17.6062 28.1307 17.4689 27.531 17.5071 26.9295C17.5696 26.4161 17.6845 25.9189 17.9331 25.4604C17.9828 25.3686 18.0334 25.2829 18.1302 25.2358C18.0736 25.3575 18.0136 25.4775 17.9631 25.6009C17.7359 26.1495 17.6202 26.7195 17.7059 27.3126C17.9116 28.7518 19.3885 30.1412 21.1542 29.5412C21.5716 29.3998 21.9599 29.2018 22.2908 28.8452C21.5108 28.7818 20.7856 28.6686 20.0991 28.3781C19.3551 28.0626 18.7774 27.5809 18.4731 26.8035C18.2759 26.2978 18.2279 25.7646 18.1259 25.2409L18.1902 24.5064C18.3162 24.5972 18.2674 24.7198 18.2699 24.8209C18.2956 26.5995 19.4631 27.9478 21.2253 28.2306C21.2521 28.2331 21.279 28.2336 21.3059 28.2323C21.7122 28.3643 22.1365 28.3352 22.553 28.3721C22.6456 28.3806 22.6979 28.3223 22.7356 28.2418C22.8568 27.9961 22.9206 27.726 22.9221 27.452C22.9236 27.1781 22.8627 26.9073 22.7442 26.6603C22.7345 26.6307 22.7173 26.6041 22.6944 26.5831C22.6714 26.5621 22.6434 26.5474 22.613 26.5404C22.0953 26.4298 21.653 26.1572 21.2125 25.8804C21.1636 25.8298 21.1293 25.7081 21.0548 25.8701C20.795 26.4298 20.5285 26.5943 20.1085 26.4066C19.6293 26.1932 19.2419 25.7938 19.3988 25.1998C19.4751 24.9109 19.6113 24.6615 19.8436 24.4781C19.9705 24.3787 20.0356 24.2844 19.9268 24.0958C20.1548 24.2561 20.7685 24.1678 21.0393 23.9732C21.0496 24.0418 21.0436 24.1284 21.1585 24.0881C22.8256 24.2732 24.1087 25.0421 24.8956 26.5566C24.9702 26.7006 25.043 26.7683 25.2162 26.7606C26.0099 26.7229 26.8036 26.6783 27.5201 26.2892C28.0996 25.9746 28.5633 25.5375 28.8401 24.8706C28.373 25.0524 27.9393 25.2118 27.5133 25.3892C27.191 25.5229 26.9107 25.5452 26.5704 25.3678C25.9859 25.0618 25.3533 24.8518 24.7584 24.5569C24.377 24.3684 24.1705 24.1044 24.1807 23.6784C24.1919 23.1924 24.1002 22.7115 24.1267 22.223C24.1396 21.9787 24.221 21.8244 24.4713 21.803C24.6582 21.7858 24.7336 21.6872 24.8056 21.5184C25.307 20.3535 26.6553 19.6387 28.007 19.7921C28.9096 19.895 29.645 20.3038 30.2441 20.9724C30.4104 21.1584 30.6453 21.1627 30.8553 21.2235C31.3198 21.3572 31.3173 21.347 31.319 21.8364C31.3215 22.5452 31.2615 23.2507 31.3061 23.9638C31.3685 24.8375 31.1589 25.7091 30.7061 26.4589C30.2887 27.1489 29.6656 27.6101 28.9576 27.9632C27.8298 28.5294 26.5853 28.8244 25.3233 28.8246C25.2264 28.8246 25.1227 28.7792 25.073 28.9438C24.719 30.0975 23.7153 31.1329 22.4442 31.5203C22.7733 31.6917 23.0673 31.8469 23.3622 31.9995C23.4419 32.0406 23.5276 32.0706 23.6082 32.1109C24.3624 32.4863 24.2219 32.3303 24.2056 33.1394C24.1987 33.4994 24.1525 33.8586 24.1362 34.2177C24.1364 34.2757 24.1205 34.3327 24.0902 34.3822C24.0599 34.4317 24.0165 34.4718 23.9647 34.498C23.1865 34.966 22.4108 35.44 21.629 35.9037C21.4276 36.0228 21.2253 36.0443 21.0008 35.8943C20.0356 35.2497 19.0482 34.6403 18.0985 33.9709C17.6228 33.6349 17.3982 33.2012 17.3614 32.6474C17.3408 32.3432 17.2799 32.0423 17.3056 31.7329C17.3262 31.4792 17.4299 31.3206 17.6699 31.2426C17.7536 31.2076 17.8349 31.1672 17.9134 31.1217C17.3202 30.8937 16.9345 30.4626 16.4991 30.0966C16.3985 30.0077 16.3029 29.9133 16.2128 29.8138C16.1699 29.7709 16.1314 29.6989 16.0705 29.7169C15.9805 29.7443 16.0148 29.8369 16.0191 29.902C16.0499 30.2492 16.0191 30.5989 15.9282 30.9349C15.7242 31.6909 15.198 32.182 14.5491 32.536C13.3988 33.1626 12.2134 33.166 10.9937 32.692C9.97799 32.2977 9.12514 31.6729 8.32543 30.9572C8.13943 30.79 7.92686 30.6503 7.77344 30.448C7.88744 30.3992 7.93629 30.5046 8.00486 30.5526C8.27315 30.7395 8.53543 30.9349 8.79943 31.1269C9.47314 31.6369 10.1966 32.0457 11.0228 32.2532C12.2211 32.6954 13.4014 32.7314 14.508 32.0114C15.1945 31.564 15.5768 30.9289 15.5357 30.0666C15.4928 29.1709 15.2425 28.3198 15.0334 27.4583C14.9211 26.9938 14.8251 26.5301 14.9091 26.0466C15.0085 25.4706 15.3291 25.0455 15.7962 24.7172C15.8254 24.6975 15.8648 24.6469 15.9025 24.7129C15.8904 24.7442 15.873 24.7732 15.8511 24.7986C15.1277 25.3695 15.0282 26.1212 15.2237 26.9586C15.2837 26.5558 15.3797 26.1598 15.5134 25.7749C15.6539 25.3824 15.8537 25.0129 16.1065 24.6812C16.0122 24.6178 15.9719 24.7386 15.8982 24.7172C15.9839 24.5629 16.1142 24.4824 16.4211 24.4035C16.2951 24.6152 16.1237 24.7892 16.0448 25.0181C15.6754 25.8229 15.6488 26.6638 15.7791 27.5209C15.7868 27.9898 15.9299 28.4235 16.1485 28.8306C16.5857 29.6423 17.0828 30.4052 17.8628 30.9443C18.0051 31.0429 18.1199 31.0652 18.2819 31.012C18.7851 30.8457 19.2762 30.6409 19.8016 30.5432C19.9429 30.5184 20.0883 30.5332 20.2216 30.586C20.8413 30.8072 21.4302 31.1003 22.0293 31.3686C22.0965 31.4022 22.1703 31.4203 22.2454 31.4214C22.3205 31.4226 22.3949 31.4069 22.463 31.3755C23.3022 31.036 24.0445 30.574 24.4807 29.7486C25.2239 28.3421 24.9882 26.3869 23.4059 25.2949C22.6567 24.7781 21.8596 24.3761 20.9159 24.3889C20.3811 24.3975 19.9276 24.5578 19.6602 25.0712C19.3731 25.6232 19.6919 26.2541 20.3099 26.3389C20.7591 26.4006 21.0685 25.9498 20.9013 25.4741C20.8776 25.4162 20.8504 25.3598 20.8199 25.3052C20.9048 25.2821 20.9485 25.3446 21.005 25.3884C21.2476 25.5881 21.5108 25.7621 21.7876 25.9095C21.9925 26.0115 22.187 26.1469 22.4836 26.2009C22.295 25.9549 22.0636 25.7449 21.8005 25.5812C21.6008 25.4604 21.3942 25.3515 21.1919 25.2384L21.191 25.2375ZM30.8587 24.0487C30.871 23.8484 30.8633 23.6474 30.8355 23.4487C30.8107 23.2258 30.7755 23.0029 30.7361 22.7818C30.3873 20.8293 28.5367 19.6224 26.6116 20.1041C25.9773 20.2627 25.463 20.6158 25.1193 21.1841C25.0422 21.3118 24.9204 21.4824 25.0036 21.6041C25.0722 21.7052 25.2522 21.5912 25.3739 21.5578C25.7364 21.4584 26.1299 21.4558 26.4607 21.2578C26.6922 21.1129 26.9689 21.0579 27.2381 21.1035C27.9581 21.2235 28.5384 21.587 28.9404 22.1938C30.0521 23.8687 29.1924 26.1795 27.2279 26.8446C26.6227 27.0486 26.0004 27.1146 25.3696 27.1129C25.1544 27.1129 25.115 27.1789 25.1579 27.3743C25.2247 27.7018 25.2384 28.0369 25.199 28.3686C25.1673 28.6858 25.1733 28.6832 25.4776 28.6403C26.429 28.5058 27.3341 28.2135 28.2144 27.8389C28.7287 27.6203 29.2207 27.3538 29.6416 26.9843C30.5021 26.2284 30.8201 25.2315 30.8587 24.0487ZM23.6013 32.4212C22.9593 32.1297 22.3739 31.8555 21.7825 31.5949C21.1921 31.3306 20.6184 31.0303 20.0648 30.6957C20.034 30.6768 19.9993 30.6651 19.9634 30.6617C19.9274 30.6583 19.8911 30.6632 19.8573 30.676L17.7822 31.3549C17.6391 31.402 17.6219 31.4577 17.7616 31.5392C18.0488 31.7072 18.3274 31.8923 18.6188 32.05C19.5059 32.5283 20.4402 32.9149 21.2948 33.454C21.3873 33.5123 21.4825 33.5269 21.5733 33.4686C22.2185 33.0628 22.8969 32.7124 23.6013 32.4212ZM21.3599 34.7397H21.3582C21.3582 34.5331 21.3385 34.3231 21.3625 34.1191C21.3942 33.856 21.2853 33.712 21.0616 33.5886C19.9328 32.9689 18.7525 32.44 17.6965 31.6926C17.5234 31.5709 17.4951 31.6617 17.5045 31.81C17.5216 32.0886 17.5705 32.3672 17.5628 32.644C17.5499 33.0897 17.7128 33.3829 18.1028 33.634C19.1262 34.2914 20.1342 34.9729 21.173 35.608C21.3376 35.7091 21.3659 35.6594 21.3616 35.4966C21.3556 35.2446 21.3599 34.9917 21.3599 34.7397ZM27.0016 25.1758C26.9441 24.5098 26.9784 23.8678 26.9844 23.2258C26.9861 23.1152 26.9167 23.1058 26.8319 23.0818C26.0836 22.865 25.3387 22.6361 24.6325 22.3035C24.4027 22.1955 24.3873 22.2607 24.3856 22.4681C24.3822 22.8829 24.5579 23.2824 24.4927 23.6989C24.4473 23.9878 24.6024 24.1352 24.8253 24.2432C25.5222 24.5801 26.2319 24.8826 27.0016 25.1758ZM21.5742 34.6257H21.5768C21.5768 34.8871 21.581 35.1486 21.575 35.4091C21.5716 35.5703 21.6282 35.6097 21.7619 35.5206C21.9093 35.4211 22.0525 35.3149 22.2008 35.2163C22.6444 34.9299 23.1008 34.6639 23.5687 34.4191C23.6793 34.3591 23.849 34.3077 23.8405 34.1466C23.8165 33.6837 23.963 33.2406 23.963 32.7803C23.963 32.5283 23.8602 32.5317 23.6887 32.6157C23.0527 32.9303 22.4193 33.25 21.7808 33.5603C21.6188 33.6392 21.5622 33.7489 21.5708 33.9237C21.5836 34.1569 21.5742 34.3909 21.5742 34.6257ZM27.1147 24.1129H27.113C27.113 24.3915 27.1259 24.6718 27.1087 24.9495C27.0941 25.1886 27.167 25.2289 27.3813 25.1406C27.8613 24.9435 28.3473 24.7575 28.8333 24.5749C28.8841 24.5577 28.9296 24.5276 28.9652 24.4875C29.0008 24.4473 29.0254 24.3986 29.0364 24.3461C29.201 23.7718 29.123 23.2147 28.9198 22.6661C28.8736 22.541 28.8024 22.5092 28.6704 22.5581C28.2084 22.7295 27.7447 22.8967 27.2767 23.0492C27.1481 23.0921 27.1087 23.1487 27.1121 23.2755C27.119 23.5541 27.1147 23.8335 27.1147 24.1129ZM24.4884 21.9615C24.6393 22.1261 24.8176 22.193 24.9942 22.2487C25.553 22.4227 26.1136 22.5847 26.6424 22.847C26.7753 22.9129 26.933 22.9712 27.1087 22.9044C27.5925 22.7217 28.0806 22.5508 28.5727 22.3918C28.7296 22.3421 28.7364 22.295 28.6447 22.1775C28.349 21.7995 27.959 21.5064 27.5133 21.329C27.4035 21.2898 27.2848 21.2829 27.1713 21.3092C26.8139 21.365 26.4804 21.5064 26.1282 21.5818C25.5873 21.6984 25.049 21.8304 24.4884 21.9615ZM31.0858 21.581L30.7995 21.7258C30.8844 21.8861 30.9041 22.0824 31.0858 22.2504V21.5818V21.581ZM30.9658 21.4481C30.8158 21.395 30.7104 21.3324 30.5767 21.3324C30.6915 21.6195 30.6941 21.6204 30.9658 21.4481ZM16.0594 29.6603C16.0542 29.6552 16.0482 29.6432 16.0448 29.644C16.0334 29.6476 16.0225 29.6525 16.0122 29.6586C16.0165 29.6646 16.0225 29.6758 16.0268 29.6758C16.0383 29.6722 16.0493 29.667 16.0594 29.6603Z" fill="#121316"/>
<path d="M6.09677 19.9485C6.21934 20.0342 6.12762 20.1242 6.08905 20.1971C5.9442 20.4765 5.7942 20.7542 5.63477 21.0242C4.94906 22.1822 4.66021 23.4345 4.73649 24.7734C4.78278 25.5902 5.22592 26.1705 5.88505 26.5973C7.11076 27.3902 8.45303 27.5745 9.87074 27.3105C10.9439 27.1108 12.005 26.8811 12.9504 26.2888C13.1416 26.1688 13.2161 26.0608 13.2016 25.8285C13.1039 24.2899 14.753 22.7771 16.2958 22.9785C16.3232 22.9824 16.349 22.9936 16.3704 23.0111C15.4704 22.9682 14.7633 23.3668 14.1487 23.9711C13.6344 24.4751 13.4459 25.0768 13.5813 25.7916C13.7399 26.6205 13.9396 27.4433 13.9327 28.297C13.925 29.3085 13.4561 29.8965 12.467 30.1399C11.4299 30.397 10.463 30.187 9.5296 29.7233C8.86446 29.3925 8.28246 28.9236 7.63533 28.5636C7.0379 28.2328 6.42591 27.9928 5.71534 28.0905C4.49478 28.2576 3.18593 30.0473 4.30621 31.5602C4.64735 32.0196 5.04506 32.4002 5.65363 32.4619C6.00077 32.4962 6.18762 32.3993 6.31619 32.1224C6.44476 31.8447 6.39762 31.6424 6.14391 31.3982C5.94248 31.2044 5.6982 31.063 5.50963 30.853C5.20449 30.5127 5.12906 30.1159 5.32277 29.821C5.54391 29.485 5.94248 29.3625 6.37534 29.5193C6.53133 29.5759 6.74219 29.5725 6.7979 29.7936C6.61191 29.7636 6.46105 29.6393 6.27077 29.6136C5.98534 29.575 5.6562 29.6882 5.53963 29.9102C5.4042 30.1665 5.50877 30.3945 5.66563 30.6079C5.83448 30.8393 6.07705 30.9816 6.29991 31.1479C6.74219 31.4736 6.83476 31.7247 6.69076 32.2107C6.57933 32.5896 6.26048 32.8107 5.78048 32.8304C5.26449 32.8527 4.83849 32.6376 4.47335 32.2956C3.70364 31.5756 3.3325 30.7322 3.60421 29.6522C3.90421 28.4548 5.2182 27.5385 6.44476 27.6988C7.14247 27.7905 7.74247 28.0999 8.32361 28.4668C9.07617 28.9416 9.82788 29.4165 10.6979 29.6607C11.3056 29.8347 11.9519 29.8236 12.5536 29.6299C13.2007 29.4259 13.5307 28.8199 13.4424 28.0348C13.3944 27.6079 13.3267 27.1828 13.2941 26.7542C13.2787 26.5519 13.2059 26.5828 13.0799 26.6453C12.5724 26.8939 12.0779 27.1682 11.5456 27.3602C10.7484 27.643 9.91445 27.8145 9.06931 27.8659C8.0498 27.9407 7.0289 27.7406 6.11305 27.2865C4.89763 26.6916 4.26678 25.7659 4.34907 24.3431C4.42878 22.9408 4.9482 21.7134 5.7402 20.5811C5.88163 20.384 6.00077 20.1714 6.09677 19.9485ZM21.3084 23.7954C21.4395 23.5074 21.7284 23.3694 21.9315 23.1508C22.1801 22.8834 22.4501 22.6365 22.7106 22.3819C23.1975 21.9534 23.6381 21.4794 24.0761 21.0037C24.9975 20.0025 25.8478 18.9551 26.392 17.6848C26.8909 16.5226 27.016 15.3209 26.74 14.1054C26.5325 13.1907 26.1176 12.3358 25.5272 11.6069C25.1458 11.0506 24.6855 10.5595 24.2475 10.0503C23.7375 9.45633 23.2326 8.86062 22.7989 8.20748L22.8666 8.14062C23.5206 8.90948 24.2689 9.58404 24.9769 10.2998C26.0586 11.3917 26.926 12.6303 27.2397 14.1783C27.4737 15.3311 27.3923 16.46 26.956 17.5571C26.5772 18.5103 25.9866 19.3177 25.3103 20.0857C24.1112 21.4485 22.7698 22.6528 21.3726 23.8022C21.3469 23.8236 21.3281 23.8159 21.3084 23.7954Z" fill="#121316"/>
<path d="M4.52344 17.2393C4.96315 17.4253 5.36086 17.6893 5.756 17.9515C6.044 18.1435 6.31828 18.207 6.63885 18.0493C6.87199 17.9335 7.11885 17.8453 7.35284 17.7313C7.48227 17.6678 7.56027 17.673 7.63313 17.811C7.94598 18.405 8.02312 19.0067 7.69741 19.6187C7.52181 19.9624 7.31615 20.29 7.08285 20.5975C6.84971 20.3198 6.57714 20.0747 6.39628 19.7532C6.37846 19.7165 6.35169 19.6849 6.31844 19.6612C6.28519 19.6375 6.24652 19.6226 6.206 19.6178L6.19914 19.3572C6.25485 18.6287 5.74914 18.303 5.21772 17.9995C5.09834 17.9398 4.97556 17.8871 4.85001 17.8418C4.80286 17.607 4.56458 17.4758 4.52344 17.2393Z" fill="#708192"/>
<path d="M22.8677 8.14023L22.7991 8.20795C22.6449 8.01166 22.494 7.81366 22.4477 7.55824C22.4709 7.55824 22.4923 7.55652 22.5146 7.55566C22.5831 7.78109 22.7349 7.95423 22.8677 8.14023ZM21.1543 24.0881C21.0386 24.1284 21.0454 24.0418 21.0352 23.9741L21.2409 23.7907L21.3 23.855C21.3 23.963 21.06 23.921 21.1543 24.0881Z" fill="#14456B"/>
<path d="M21.2976 23.8543L21.2384 23.7908C21.2633 23.7634 21.2856 23.7651 21.3061 23.796C21.3105 23.8093 21.3134 23.8231 21.3147 23.8371C21.3147 23.8431 21.3036 23.8491 21.2976 23.8543ZM7.65625 30.3368C7.70682 30.3257 7.74025 30.3317 7.71454 30.3951C7.6993 30.3946 7.68482 30.3883 7.67411 30.3775C7.66341 30.3666 7.65646 30.352 7.65625 30.3368Z" fill="#121316"/>
<path d="M7.71175 30.3908C7.76232 30.3797 7.80947 30.3711 7.76832 30.4491C7.74951 30.4296 7.73065 30.4102 7.71175 30.3908ZM7.60547 30.252C7.63633 30.2742 7.67833 30.2897 7.66204 30.3411C7.61404 30.3308 7.60633 30.294 7.60547 30.252Z" fill="#121316"/>
<path d="M25.5324 11.6074C26.1231 12.3363 26.5384 13.1911 26.7461 14.106C27.0213 15.3214 26.8961 16.5231 26.3973 17.6854C25.853 18.9557 25.0027 20.0031 24.0813 21.0042C23.6433 21.4799 23.2027 21.9539 22.7159 22.3825C21.8562 22.1451 21.0025 22.1168 20.1539 22.4442C20.0056 22.5016 19.9199 22.6842 19.7305 22.6473C20.0279 22.1673 20.4067 21.7422 20.849 21.3899C21.5913 20.8139 22.3456 20.2525 23.0527 19.6345C23.5824 19.1716 24.0616 18.6659 24.4516 18.0685C25.1553 16.9911 25.5701 15.8322 25.5624 14.5405C25.5531 13.8396 25.4301 13.1449 25.1981 12.4834C25.3713 12.2143 25.3884 11.8868 25.5324 11.6074Z" fill="#708192"/>
<path d="M10.9688 12.0987C11.5087 10.849 12.353 9.87189 13.5564 9.21875C13.5924 9.25732 13.6216 9.31561 13.6653 9.33104C14.2902 9.55732 14.4119 10.1256 14.2413 10.7085C13.9439 11.7276 13.2839 12.4639 12.2776 12.8402C11.5996 13.093 11.1719 12.8384 11.003 12.139C10.9996 12.1236 10.9807 12.1116 10.9688 12.0987Z" fill="#87A0C0"/>
<path d="M17.5111 18.812C17.6508 18.7177 17.7956 18.632 17.9714 18.6371C18.0451 18.6389 18.0631 18.6089 18.0562 18.5463C18.1634 18.542 18.2414 18.572 18.1968 18.6989C18.1496 18.8334 18.2148 18.9243 18.2979 19.01C18.348 19.0626 18.4111 19.101 18.4808 19.1213C18.5505 19.1416 18.6243 19.1432 18.6948 19.1257C18.8885 19.0854 18.9853 18.95 18.9948 18.7451C19.7173 19.2646 19.7199 20.2306 19.0282 20.7543C18.6442 21.0457 17.9594 21.0843 17.5454 20.8263C17.0971 20.5477 17.0542 20.108 17.1005 19.6391C17.1331 19.3109 17.3234 19.0623 17.5119 18.812H17.5111Z" fill="#FDFDFD"/>
<path d="M15.5382 10.7563C15.4183 10.78 15.2939 10.7596 15.1879 10.6988C15.0819 10.638 15.0014 10.5409 14.9614 10.4254C14.8465 10.1426 14.9365 9.89144 15.1156 9.64887C15.4791 9.1603 15.9162 8.82516 16.5582 8.8543C16.8445 8.86716 17.0802 8.9743 17.2233 9.2383C17.3708 9.51258 17.3151 9.77229 17.1316 9.99258C16.7451 10.458 16.2634 10.7554 15.5374 10.7563H15.5382Z" fill="#87A0C0"/>
<path d="M21.2079 25.8807C21.6485 26.1567 22.0908 26.4293 22.6085 26.5399C22.6389 26.5468 22.6669 26.5615 22.6899 26.5826C22.7129 26.6036 22.73 26.6302 22.7396 26.6599C22.8582 26.9069 22.9191 27.1776 22.9176 27.4516C22.9161 27.7256 22.8523 27.9956 22.731 28.2413C22.6933 28.3219 22.641 28.3793 22.5485 28.3716C22.1319 28.3347 21.7076 28.363 21.3013 28.2319C21.3553 27.9619 21.4385 27.6987 21.4702 27.421C21.5225 26.9427 21.4273 26.497 21.2499 26.0599C21.2268 26.0025 21.1899 25.9493 21.2079 25.8807Z" fill="#708192"/>
<path d="M11.0176 32.2536C10.1913 32.0462 9.46787 31.6365 8.79417 31.1274C8.76502 30.4931 9.27245 30.2788 9.83902 30.3808C10.6079 30.5179 11.2319 31.3836 11.1847 31.9819C11.1736 32.1088 11.1564 32.2134 11.0176 32.2536ZM15.7738 27.5214C15.6435 26.6643 15.6701 25.8234 16.0395 25.0186C16.1878 25.1471 16.3884 25.0871 16.5598 25.1917C17.1984 25.5808 17.393 26.4877 16.709 27.0903C16.4518 27.3165 16.1458 27.5103 15.7738 27.5214Z" fill="#87A0C0"/>
<path d="M17.515 18.8097C17.3281 19.06 17.137 19.3085 17.1044 19.6368C17.0581 20.1057 17.101 20.5454 17.5501 20.8239C17.9633 21.0811 18.6481 21.0425 19.0321 20.752C19.7238 20.2291 19.7213 19.2622 18.9996 18.7428C18.9884 18.9477 18.8924 19.0831 18.6987 19.1234C18.6282 19.1408 18.5544 19.1393 18.4847 19.119C18.415 19.0987 18.3519 19.0603 18.3018 19.0077C18.2187 18.922 18.1536 18.8311 18.2007 18.6965C18.2453 18.5705 18.1673 18.5397 18.0601 18.544C18.247 18.4077 18.4587 18.424 18.6653 18.4583C19.2361 18.556 19.7084 19.0488 19.7744 19.6025C19.8473 20.2197 19.4718 20.8282 18.8616 21.0802C18.223 21.3442 17.4618 21.1642 17.1344 20.6714C16.7564 20.1031 16.963 19.0942 17.515 18.8097ZM15.0276 18.118C15.5684 17.9045 16.0544 17.9945 16.4727 18.3991C16.8773 18.7908 16.969 19.2708 16.7881 19.7894C16.5927 20.3525 16.1641 20.6637 15.5856 20.746C14.875 20.8471 14.269 20.5462 14.1216 20.014C13.9604 19.4328 14.0307 18.8885 14.485 18.442L14.4936 18.532C14.3844 18.675 14.3012 18.836 14.2476 19.0077C14.0719 19.5828 14.2536 20.1854 14.6779 20.4194C15.331 20.7794 16.2027 20.5068 16.5293 19.84C16.807 19.276 16.597 18.5663 16.0861 18.34C16.0296 18.6237 15.8496 18.7514 15.595 18.6888C15.349 18.628 15.2479 18.4283 15.3336 18.1523L15.0919 18.1745L15.0276 18.118Z" fill="#121316"/>
<path d="M17.4992 26.9287C17.4608 27.5302 17.5977 28.1299 17.8935 28.655C17.6629 28.697 17.4666 28.8667 17.1992 28.7784C16.7441 28.6301 16.5958 28.1656 16.8023 27.7558C16.8735 27.6144 16.9429 27.4387 17.1143 27.4019C17.3809 27.3427 17.4769 27.173 17.4992 26.9287Z" fill="#87A0C0"/>
<path d="M15.02 18.1182L15.0843 18.1747L14.6257 18.4113L14.582 18.3667C14.7055 18.2493 14.8572 18.1636 15.02 18.1182Z" fill="#14456B"/>
<path d="M14.4929 18.5336L14.4844 18.4436L14.5889 18.3682L14.6327 18.4127L14.4929 18.5336Z" fill="#14456B"/>
<path d="M25.5334 11.6068C25.3894 11.8862 25.3722 12.2137 25.1991 12.4819C24.4843 10.886 23.2645 9.77853 21.7628 8.94711C21.4559 8.77784 21.1409 8.62338 20.8191 8.48426C20.7564 8.46213 20.7001 8.42466 20.6555 8.37526C20.6109 8.32586 20.5794 8.2661 20.5637 8.2014C20.4251 7.71444 20.404 7.20156 20.502 6.70484C20.6529 5.94199 21.408 5.22971 22.176 5.08828C22.2098 5.08017 22.2448 5.07887 22.2791 5.08446C22.3134 5.09006 22.3462 5.10243 22.3757 5.12086C22.6843 5.30085 22.9971 5.47571 23.3314 5.66514C22.6886 6.1477 22.2128 6.69284 22.4537 7.55941C22.4991 7.81398 22.6508 8.01198 22.8051 8.20826C23.2388 8.86054 23.7437 9.45625 24.2537 10.0502C24.6917 10.5594 25.152 11.0505 25.5334 11.6068Z" fill="#A7B9CC"/>
<path d="M20.5892 3.37728C20.6509 2.68728 20.7075 2.03329 20.8266 1.38701C20.8506 1.25844 20.8677 1.16415 21.0435 1.27386C21.9469 1.83957 22.8546 2.39843 23.7666 2.94871C23.968 3.07042 24.0306 3.19042 23.9809 3.44585C23.8746 4.00299 23.8094 4.56612 23.7854 5.13183C23.7666 5.4944 23.752 5.50383 23.4503 5.33583C22.912 5.03583 22.3729 4.73498 21.8483 4.41098C21.4994 4.19498 21.124 4.02184 20.7975 3.76642C20.6535 3.65413 20.5395 3.54185 20.5892 3.37728Z" fill="#21A2F8"/>
<path d="M27.5088 2.935C27.4119 3.14585 27.4402 3.48442 27.3562 3.80671C27.2877 4.09385 27.2371 4.38527 27.2054 4.67927C27.1891 4.79927 27.1599 4.87127 27.0339 4.91584C26.3705 5.1447 25.6899 5.30155 25.0051 5.44384C24.7411 5.49869 24.4771 5.55269 24.2165 5.62126C24.0965 5.65298 24.004 5.65041 24.0168 5.50641C24.082 4.81898 24.1625 4.13328 24.226 3.44585C24.25 3.18614 24.406 3.09357 24.6288 3.06957C25.5193 2.96696 26.4035 2.81559 27.2774 2.61614C27.5122 2.56472 27.5517 2.63329 27.5088 2.935Z" fill="#14456B"/>
<path d="M21.0898 0.974083C21.3178 0.866084 21.5476 0.903798 21.7661 0.871227C22.2375 0.802656 22.7115 0.746942 23.1847 0.688657C23.7247 0.622657 24.2201 0.702371 24.7044 0.998083C25.4758 1.47036 26.2824 1.88522 27.0744 2.32579C27.1095 2.3515 27.1438 2.37979 27.1764 2.40979C26.7684 2.48521 26.3964 2.55721 26.0252 2.62236C25.5195 2.71064 25.0138 2.78778 24.509 2.88121C24.3317 2.91944 24.1465 2.88944 23.9904 2.79721C23.0458 2.24093 22.1047 1.67779 21.1953 1.06665C21.1582 1.03811 21.1229 1.00719 21.0898 0.974083Z" fill="#5DC0F8"/>
<path d="M6.31992 17.8249C6.31992 17.2018 6.32421 16.6078 6.31649 16.0129C6.31306 15.8243 6.4142 15.7301 6.56677 15.6769C7.38105 15.3923 8.15591 15.0126 8.95304 14.6861C9.14333 14.6081 9.22904 14.6106 9.21875 14.8541C9.20333 15.2586 9.1999 15.6649 9.21875 16.0695C9.22815 16.1446 9.21367 16.2208 9.17737 16.2873C9.14107 16.3537 9.08478 16.4071 9.01647 16.4398C8.32562 16.8392 7.62791 17.2266 6.90277 17.5609C6.71934 17.6466 6.55649 17.7795 6.31992 17.8249Z" fill="#21A2F8"/>
<path d="M4.28906 14.5595C5.10542 14.2537 5.93348 13.98 6.77133 13.7392C7.01133 13.6681 7.26161 13.7049 7.48875 13.7821C8.02789 13.9672 8.55674 14.1806 9.12931 14.3975C8.8996 14.5698 8.6716 14.6255 8.46074 14.7146C7.79904 14.9949 7.13218 15.2641 6.46962 15.5461C6.41566 15.5742 6.35521 15.5876 6.2944 15.5849C6.23359 15.5822 6.17458 15.5635 6.12333 15.5306C5.52591 15.2015 4.9182 14.8904 4.28906 14.5595Z" fill="#5DC0F8"/>
<path d="M6.14451 17.8778C5.6388 17.4989 5.11252 17.2281 4.59995 16.9366C4.40367 16.8252 4.28881 16.6872 4.28281 16.4764C4.2691 15.9124 4.1731 15.3535 4.13281 14.7227C4.64109 15.0741 5.16309 15.2609 5.64137 15.5352C5.67651 15.5609 5.71423 15.5849 5.7528 15.6072C6.21737 15.7975 6.25508 15.8806 6.18222 16.3744C6.11108 16.8561 6.17708 17.3455 6.14451 17.8778Z" fill="#14456B"/>
<path d="M25.8928 0.233192C26.6325 0.240049 27.1434 0.49719 27.4811 1.04747C27.8754 1.69032 28.2405 2.34689 27.9508 3.14403C27.905 3.26119 27.8533 3.37592 27.7957 3.48774C27.77 3.5426 27.7357 3.62488 27.6637 3.58631C27.6011 3.55374 27.65 3.48088 27.6568 3.42174C27.6877 3.15431 27.7134 2.88517 27.7202 2.61603C27.7262 2.4146 27.6345 2.26975 27.4408 2.16689C26.6317 1.73747 25.8337 1.28833 25.0254 0.857188C24.8163 0.74576 24.8368 0.658332 25.0031 0.534904C25.2971 0.317192 25.6228 0.211764 25.8928 0.233192ZM4.52442 17.2388C4.56556 17.4762 4.80384 17.6065 4.85098 17.8413C4.5452 17.769 4.2459 17.6715 3.95613 17.5499C3.57985 17.3888 3.39214 17.0896 3.32785 16.7031C3.26614 16.3354 3.25414 15.9676 3.36385 15.6059C3.39985 15.4859 3.44957 15.3702 3.51385 15.2622C3.59099 15.1311 3.69556 14.9451 3.83785 14.9751C3.99213 15.0085 3.91242 15.2185 3.92442 15.3488C3.95699 15.6891 3.98442 16.0311 3.98613 16.3714C3.98785 16.7794 4.19699 17.0416 4.52442 17.2388ZM30.8514 24.0487C30.8128 25.2316 30.4948 26.2284 29.6342 26.9844C29.2142 27.3538 28.7222 27.6204 28.2071 27.839C27.3268 28.2135 26.4217 28.5058 25.4703 28.6404C25.166 28.6833 25.16 28.685 25.1917 28.3678C25.2311 28.037 25.2174 27.7018 25.1505 27.3744C25.1077 27.179 25.1471 27.1121 25.3623 27.113C25.9931 27.1147 26.6154 27.0487 27.2205 26.8447C29.1851 26.1796 30.0448 23.8687 28.9331 22.1939C28.5302 21.587 27.9499 21.2236 27.2308 21.1036C26.9615 21.058 26.6849 21.1129 26.4534 21.2579C26.1225 21.4559 25.7291 21.4585 25.3665 21.5579C25.2448 21.5913 25.0648 21.7053 24.9963 21.6042C24.9131 21.4825 25.0357 21.3119 25.112 21.1842C25.4557 20.6159 25.9691 20.2628 26.6042 20.1042C28.5294 19.6225 30.3799 20.8285 30.7288 22.7819C30.7691 23.003 30.8034 23.2259 30.8282 23.4487C30.8556 23.6476 30.8634 23.8482 30.8514 24.0487Z" fill="#A7B9CC"/>
<path d="M23.5999 32.4205C22.8953 32.7119 22.2173 33.0616 21.5719 33.4679C21.481 33.5262 21.3859 33.5116 21.2933 33.4533C20.4387 32.9133 19.5045 32.5276 18.6182 32.0493C18.325 31.8916 18.0473 31.7065 17.761 31.5385C17.6205 31.4562 17.6376 31.4013 17.7808 31.3542L19.8559 30.6753C19.8897 30.6626 19.9259 30.6578 19.9619 30.6612C19.9978 30.6646 20.0325 30.6762 20.0633 30.695C20.617 31.0293 21.1904 31.3302 21.781 31.595C22.3724 31.8548 22.9579 32.1282 23.5999 32.4205Z" fill="#5DC0F8"/>
<path d="M21.3609 34.7398C21.3609 34.9909 21.3566 35.2438 21.3626 35.4949C21.3669 35.6595 21.3386 35.7083 21.174 35.6072C20.1352 34.972 19.1272 34.2906 18.1038 33.6332C17.7138 33.3821 17.5509 33.0889 17.5638 32.6432C17.5724 32.3664 17.5235 32.0878 17.5055 31.8092C17.4961 31.6609 17.5244 31.5692 17.6975 31.6918C18.7535 32.4392 19.9346 32.9681 21.0626 33.5878C21.2855 33.7112 21.3952 33.8552 21.3635 34.1192C21.3395 34.3223 21.3583 34.5323 21.3583 34.7389L21.3609 34.7398Z" fill="#21A2F8"/>
<path d="M27.0028 25.1757C26.2642 24.8967 25.5381 24.5855 24.8265 24.2432C24.6037 24.1352 24.4494 23.9877 24.494 23.6989C24.5591 23.2832 24.3826 22.8829 24.3868 22.468C24.3886 22.2606 24.404 22.1955 24.6337 22.3035C25.34 22.636 26.0848 22.8649 26.8331 23.0817C26.918 23.1066 26.9874 23.116 26.9865 23.2257C26.9797 23.8686 26.9445 24.5097 27.0028 25.1757ZM21.5746 34.6265C21.5746 34.3925 21.5831 34.1585 21.5711 33.9245C21.5626 33.7497 21.6191 33.6399 21.7811 33.5611C22.4197 33.2517 23.0531 32.9311 23.6891 32.6165C23.8606 32.5317 23.9634 32.5291 23.9634 32.7811C23.9634 33.2414 23.8168 33.6854 23.8408 34.1474C23.8494 34.3085 23.6797 34.3608 23.5691 34.4199C23.1037 34.6702 22.6417 34.9256 22.2003 35.2171C22.0529 35.3156 21.9097 35.4228 21.7623 35.5205C21.6286 35.6105 21.572 35.5719 21.5754 35.4099C21.5814 35.1494 21.5771 34.8871 21.5771 34.6265H21.5746Z" fill="#14456B"/>
<path d="M27.1133 24.112C27.1133 23.8334 27.1175 23.5549 27.1107 23.2754C27.1073 23.1486 27.1467 23.0911 27.2753 23.0491C27.743 22.8944 28.2076 22.7307 28.669 22.558C28.801 22.5091 28.8721 22.5409 28.9175 22.666C29.1215 23.2146 29.1995 23.7717 29.035 24.346C29.0238 24.3984 28.9992 24.4469 28.9636 24.4869C28.928 24.5269 28.8825 24.5569 28.8318 24.574C28.3451 24.7558 27.861 24.9447 27.3798 25.1406C27.1655 25.228 27.0927 25.1886 27.1073 24.9494C27.1244 24.6708 27.1115 24.3923 27.1115 24.1129L27.1133 24.112Z" fill="#21A2F8"/>
<path d="M24.4805 21.9613C25.041 21.8302 25.5793 21.6982 26.1202 21.5816C26.4716 21.5053 26.8059 21.3647 27.1633 21.309C27.2768 21.2824 27.3955 21.289 27.5053 21.3279C27.951 21.5062 28.341 21.7993 28.6367 22.1764C28.7284 22.2947 28.7224 22.341 28.5647 22.3916C28.0726 22.5503 27.5844 22.7212 27.1007 22.9042C26.925 22.971 26.7665 22.9127 26.6345 22.8467C26.1065 22.5844 25.5459 22.4224 24.987 22.2484C24.8096 22.1936 24.6313 22.1259 24.4805 21.9613Z" fill="#5DC0F8"/>
<path d="M31.0832 21.5811V22.2496C30.9014 22.0816 30.8817 21.8853 30.7969 21.7251L31.0832 21.5811Z" fill="#21A2F8"/>
<path d="M30.9634 21.4487C30.6916 21.621 30.6891 21.6201 30.5742 21.333C30.7079 21.333 30.8134 21.3956 30.9634 21.4487Z" fill="#87A0C0"/>
<path d="M16.0588 29.6603C16.0485 29.6662 16.0376 29.6708 16.0262 29.674C16.0228 29.674 16.0168 29.6637 16.0116 29.6568C16.0219 29.651 16.0328 29.6464 16.0442 29.6431C16.0476 29.6431 16.0536 29.6543 16.0588 29.6603ZM14.4919 18.5321L14.6316 18.4112L15.0902 18.1746L15.3319 18.1523C15.2462 18.4283 15.3473 18.6281 15.5933 18.6889C15.8479 18.7515 16.0279 18.6238 16.0845 18.3392C16.5953 18.5663 16.8045 19.276 16.5285 19.84C16.201 20.5069 15.3285 20.7795 14.6771 20.4195C14.2519 20.1855 14.0711 19.5829 14.2459 19.0078C14.2999 18.8363 14.3831 18.6752 14.4919 18.5321Z" fill="#FDFDFD"/>
</svg>
