<svg width="140" height="90" viewBox="0 0 140 90" fill="none" xmlns="http://www.w3.org/2000/svg">
<mask id="mask0" mask-type="alpha" maskUnits="userSpaceOnUse" x="0" y="26" width="39" height="38">
<path d="M38.6717 26H0V63.6572H38.6717V26Z" fill="white"/>
</mask>
<g mask="url(#mask0)">
<path fill-rule="evenodd" clip-rule="evenodd" d="M19.3734 25.9996C18.8484 25.9996 18.3232 26.1247 17.8231 26.3496L5.1707 32.4009C4.17034 32.8758 3.47034 33.751 3.22031 34.8262L0.0945564 48.4039C-0.155476 49.4791 0.0945564 50.5794 0.794785 51.4546L9.54639 62.3316C10.2217 63.1819 11.2467 63.6568 12.3219 63.6568H26.3498C27.425 63.6568 28.45 63.1819 29.1253 62.3316L37.8769 51.4546C38.5772 50.6043 38.8272 49.4791 38.5772 48.4039L35.4514 34.8262C35.2014 33.751 34.5014 32.8758 33.501 32.4009L20.8987 26.3496C20.4236 26.1247 19.8984 25.9996 19.3734 25.9996ZM19.3734 27.1747C19.7234 27.1747 20.0736 27.2497 20.3987 27.3998L33.0511 33.426C33.7012 33.751 34.2013 34.3513 34.3513 35.0513L37.4768 48.629C37.6518 49.3542 37.4768 50.1043 37.0017 50.6794L28.2501 61.5566C27.7999 62.1317 27.0999 62.4568 26.3748 62.4568H12.3471C11.6219 62.4568 10.9217 62.1317 10.4717 61.5566L1.71988 50.6794C1.26992 50.1043 1.09492 49.3542 1.24475 48.629L4.3705 35.0513C4.5455 34.3261 5.02063 33.7261 5.67077 33.426L18.3232 27.3749C18.6482 27.2497 19.0234 27.1747 19.3734 27.1747Z" fill="#326DE6"/>
</g>
<path fill-rule="evenodd" clip-rule="evenodd" d="M12.0532 59.282C12.5018 59.8452 13.1745 60.156 13.8768 60.156L24.8854 60.1366C25.5879 60.1366 26.2536 59.8063 26.7022 59.2625L33.413 50.8133C33.6068 50.5496 33.5853 50.0324 33.5853 49.5966V37.7979L19.1666 46.0998V46.0995L4.76172 37.8057V49.5966C4.76172 50.0394 4.91819 50.4713 5.20597 50.8328L12.0532 59.282Z" fill="#1FBFCF"/>
<path fill-rule="evenodd" clip-rule="evenodd" d="M19.1666 46.0997L33.5853 37.7981L19.1531 29.5012L4.76172 37.8051L19.1666 46.0997Z" fill="#C9E9EC"/>
<path fill-rule="evenodd" clip-rule="evenodd" d="M22.6067 52.5134C22.1933 52.7765 21.6294 52.7015 21.2911 52.2879C21.1783 52.1751 21.1408 52.0248 21.1033 51.8745L20.7649 45.7477C23.3584 46.0485 25.7265 47.2136 27.5307 49.0178L22.6067 52.5134ZM17.4948 51.724C17.4571 52.2504 17.0437 52.7015 16.4798 52.7015C16.3295 52.7015 16.1417 52.6637 16.029 52.5887L11.0297 49.0178C12.5708 47.4766 14.4878 46.4244 16.6304 45.9357C17.0437 45.8605 17.4196 45.7852 17.8332 45.7102L17.4948 51.724ZM31.5525 49.2058L31.9283 48.8675V48.7922C31.9283 48.6044 31.9659 48.4164 32.1164 48.2286C32.5673 47.815 33.1312 47.4766 33.8076 47.0633C33.9204 46.988 34.0331 46.9505 34.1459 46.8752C34.3715 46.7627 34.5595 46.6499 34.7851 46.4994C34.8226 46.4619 34.8976 46.4244 34.9729 46.3491C35.0104 46.3116 35.0481 46.3116 35.0481 46.2738C35.5743 45.823 35.6871 45.0713 35.3112 44.5826C35.1232 44.3193 34.7851 44.169 34.4467 44.169C34.1459 44.169 33.8828 44.2818 33.6198 44.4699L33.5445 44.5449C33.4695 44.5826 33.4317 44.6577 33.3567 44.6952C33.1687 44.8832 33.0184 45.0335 32.8681 45.2215C32.7928 45.2966 32.7178 45.4094 32.605 45.4846C32.0786 46.0485 31.59 46.4994 31.1014 46.8377C30.9886 46.913 30.8758 46.9505 30.763 46.9505C30.688 46.9505 30.6128 46.9505 30.5375 46.913H30.4625L30.0113 47.2136C29.5227 46.6874 28.9966 46.2363 28.4702 45.7852C26.2151 44.0187 23.4712 42.9287 20.6146 42.6656L20.5769 42.177L20.5019 42.1017C20.3891 41.989 20.2386 41.8762 20.2011 41.6131C20.1635 41.0117 20.2386 40.335 20.3138 39.5833V39.5458C20.3138 39.4331 20.3513 39.2828 20.3891 39.17C20.4266 38.9444 20.4641 38.7189 20.5019 38.4558V38.2302V38.1175C20.5019 37.441 19.9755 36.8771 19.3366 36.8771C19.036 36.8771 18.7352 37.0274 18.5096 37.253C18.2841 37.4785 18.1713 37.7791 18.1713 38.1175V38.1927V38.4183C18.1713 38.6814 18.209 38.9069 18.2841 39.1322C18.3218 39.245 18.3218 39.3578 18.3593 39.5083V39.5458C18.4346 40.2975 18.5471 40.9742 18.4721 41.5756C18.4346 41.8387 18.2841 41.9515 18.1713 42.0642C18.1338 42.1017 18.1338 42.1017 18.0962 42.1393L18.0585 42.6279C17.3821 42.7032 16.7054 42.7784 16.029 42.9287C13.1347 43.5676 10.5788 45.0335 8.58654 47.1385L8.21069 46.8752H8.13543C8.0604 46.8752 7.98514 46.913 7.9101 46.913C7.79733 46.913 7.68455 46.8752 7.57177 46.8002C7.08314 46.4619 6.59452 45.9732 6.06814 45.4094C5.99311 45.3343 5.91785 45.2216 5.80507 45.1463C5.65478 44.9585 5.50448 44.808 5.31644 44.6201C5.27893 44.5826 5.20367 44.5449 5.12863 44.4699C5.09089 44.4321 5.05337 44.4321 5.05337 44.3946C4.82782 44.2066 4.52723 44.0938 4.22641 44.0938C3.88808 44.0938 3.54997 44.2443 3.36194 44.5074C2.98609 44.996 3.09886 45.7477 3.62501 46.1988C3.66275 46.1988 3.66275 46.2363 3.70027 46.2363C3.7753 46.2738 3.81305 46.3491 3.88808 46.3866C4.11363 46.5371 4.30167 46.6499 4.52723 46.7627C4.64001 46.8002 4.75278 46.8752 4.86533 46.9505C5.542 47.3641 6.10589 47.7022 6.55677 48.1158C6.74481 48.3036 6.74481 48.4917 6.74481 48.6795V48.7547L7.12066 49.0931C7.0454 49.2058 6.97037 49.2809 6.93285 49.3936C6.49203 50.0902 6.11778 50.8165 5.80553 51.5636L7.94831 54.2076C8.23814 53.1844 8.66249 52.1959 9.22546 51.2731L13.6984 55.2574C14.112 55.5955 14.1495 56.2347 13.8112 56.648C13.6984 56.7983 13.5481 56.9111 13.3603 56.9488L10.7774 57.6987L12.0607 59.2819C12.5093 59.8454 13.1818 60.156 13.8844 60.156L24.8929 60.1366C25.5952 60.1366 26.2609 59.8065 26.7097 59.2625L27.9145 57.7454L25.2754 56.9864C24.7492 56.8361 24.4484 56.3097 24.5612 55.7835C24.5987 55.6333 24.674 55.483 24.7867 55.3702L29.3349 51.2731C29.8885 52.1852 30.3289 53.2105 30.6322 54.3238L32.8178 51.5723C32.465 50.749 32.0418 49.9584 31.5525 49.2058Z" fill="#326DE6"/>
<path fill-rule="evenodd" clip-rule="evenodd" d="M57.0459 47.9237C57.0459 46.8699 56.9102 46.123 56.6398 45.6837C56.3685 45.2445 55.9039 45.0249 55.2451 45.0249C55.0399 45.0249 54.8278 45.0359 54.6082 45.0581C54.3886 45.0798 54.1763 45.1057 53.9716 45.135V54.0508H50.6992V42.895C50.9772 42.8215 51.3031 42.7447 51.6765 42.6641C52.0498 42.5838 52.4451 42.5104 52.8624 42.4445C53.2796 42.3786 53.7079 42.3276 54.1471 42.2908C54.5863 42.2544 55.018 42.2359 55.4428 42.2359C56.2773 42.2359 56.9544 42.3425 57.4741 42.5543C57.9939 42.7668 58.4219 43.0194 58.7588 43.312C59.2271 42.9755 59.7654 42.7119 60.373 42.5214C60.9803 42.3313 61.5403 42.2359 62.053 42.2359C62.9753 42.2359 63.733 42.3642 64.3259 42.6202C64.9188 42.8767 65.391 43.239 65.7426 43.7073C66.0937 44.176 66.3353 44.7323 66.4673 45.3763C66.5988 46.0209 66.6647 46.7379 66.6647 47.5284V54.0508H63.3926V47.9237C63.3926 46.8699 63.2569 46.123 62.9863 45.6837C62.7152 45.2445 62.2506 45.0249 61.5918 45.0249C61.4163 45.0249 61.1706 45.0691 60.8561 45.1567C60.5411 45.2445 60.2814 45.3546 60.0765 45.4861C60.1787 45.8231 60.2446 46.1779 60.2741 46.5512C60.3032 46.9245 60.3181 47.3237 60.3181 47.7481V54.0508H57.0459V47.9237Z" fill="#326DE6"/>
<mask id="mask1" mask-type="alpha" maskUnits="userSpaceOnUse" x="0" y="26" width="140" height="38">
<path d="M0 63.6573H139.793V26H0V63.6573Z" fill="white"/>
</mask>
<g mask="url(#mask1)">
<path fill-rule="evenodd" clip-rule="evenodd" d="M68.9932 54.0508H72.2656V42.4994H68.9932V54.0508ZM72.5729 39.1614C72.5729 39.7619 72.3786 40.234 71.9911 40.5778C71.6029 40.9221 71.1454 41.0941 70.6186 41.0941C70.0913 41.0941 69.6335 40.9221 69.246 40.5778C68.8578 40.234 68.6641 39.7619 68.6641 39.1614C68.6641 38.5611 68.8578 38.0892 69.246 37.7449C69.6335 37.4011 70.0913 37.2288 70.6186 37.2288C71.1454 37.2288 71.6029 37.4011 71.9911 37.7449C72.3786 38.0892 72.5729 38.5611 72.5729 39.1614Z" fill="#326DE6"/>
<path fill-rule="evenodd" clip-rule="evenodd" d="M74.7031 42.8949C75.2595 42.7338 75.9769 42.584 76.8553 42.4445C77.7337 42.3056 78.6561 42.2358 79.6224 42.2358C80.6031 42.2358 81.4193 42.3644 82.071 42.6204C82.7225 42.8766 83.2386 43.2389 83.6195 43.7074C83.9999 44.1762 84.2705 44.7323 84.4318 45.3765C84.5926 46.0209 84.6734 46.738 84.6734 47.5286V54.051H81.4012V47.9237C81.4012 46.8698 81.2619 46.1229 80.9839 45.6837C80.7058 45.2445 80.1858 45.0251 79.4249 45.0251C79.1905 45.0251 78.9416 45.0358 78.678 45.058C78.4147 45.08 78.1803 45.1056 77.9755 45.1349V54.051H74.7031V42.8949Z" fill="#326DE6"/>
<path fill-rule="evenodd" clip-rule="evenodd" d="M87.0013 54.0508H90.2737V42.4994H87.0013V54.0508ZM90.5809 39.1614C90.5809 39.7619 90.3867 40.234 89.9989 40.5778C89.611 40.9221 89.1534 41.0941 88.6264 41.0941C88.0993 41.0941 87.6416 40.9221 87.2538 40.5778C86.8659 40.234 86.6719 39.7619 86.6719 39.1614C86.6719 38.5611 86.8659 38.0892 87.2538 37.7449C87.6416 37.4011 88.0993 37.2288 88.6264 37.2288C89.1534 37.2288 89.611 37.4011 89.9989 37.7449C90.3867 38.0892 90.5809 38.5611 90.5809 39.1614Z" fill="#326DE6"/>
<path fill-rule="evenodd" clip-rule="evenodd" d="M95.9794 46.6477C96.301 46.2984 96.6337 45.9347 96.9775 45.5563C97.3209 45.1777 97.6537 44.803 97.9758 44.4315C98.2976 44.0602 98.601 43.7075 98.886 43.3728C99.171 43.0384 99.416 42.7472 99.621 42.4994H103.512C102.736 43.3911 101.978 44.2419 101.239 45.0524C100.499 45.8633 99.6908 46.6996 98.8124 47.5614C99.2516 47.9576 99.705 48.4307 100.174 48.9804C100.642 49.5305 101.096 50.0985 101.535 50.6853C101.975 51.2721 102.377 51.8584 102.743 52.4451C103.109 53.0317 103.417 53.567 103.666 54.0508H99.9031C99.669 53.6692 99.4025 53.2476 99.1029 52.7851C98.8034 52.323 98.4857 51.8607 98.1492 51.3986C97.8131 50.9362 97.459 50.4922 97.0864 50.0667C96.7137 49.6412 96.3445 49.2816 95.9794 48.9877V54.0508H92.707V37.5363L95.9794 37.0092V46.6477Z" fill="#326DE6"/>
<path fill-rule="evenodd" clip-rule="evenodd" d="M114.869 53.6557C114.312 53.8167 113.595 53.9668 112.716 54.1059C111.838 54.2447 110.916 54.3145 109.949 54.3145C108.968 54.3145 108.152 54.1828 107.501 53.919C106.849 53.6557 106.333 53.286 105.952 52.8102C105.571 52.3346 105.301 51.7668 105.14 51.108C104.979 50.4492 104.898 49.7245 104.898 48.9339V42.4994H108.171V48.5388C108.171 49.5927 108.309 50.3543 108.588 50.8225C108.866 51.2913 109.386 51.5253 110.147 51.5253C110.381 51.5253 110.63 51.5145 110.894 51.4926C111.157 51.4704 111.391 51.4452 111.596 51.4157V42.4994H114.869V53.6557Z" fill="#326DE6"/>
<path fill-rule="evenodd" clip-rule="evenodd" d="M124.706 48.1874C124.706 46.0791 123.929 45.025 122.378 45.025C122.041 45.025 121.708 45.0689 121.379 45.1568C121.049 45.2446 120.782 45.3544 120.577 45.486V51.4376C120.738 51.4671 120.943 51.4925 121.192 51.5144C121.441 51.5364 121.711 51.5474 122.004 51.5474C122.897 51.5474 123.571 51.2399 124.025 50.625C124.479 50.0101 124.706 49.1976 124.706 48.1874ZM128.044 48.2752C128.044 49.1976 127.908 50.0319 127.637 50.7787C127.366 51.5254 126.975 52.1623 126.463 52.6893C125.95 53.2162 125.321 53.6227 124.574 53.9082C123.827 54.1936 122.978 54.3364 122.026 54.3364C121.631 54.3364 121.217 54.3179 120.785 54.2815C120.354 54.2449 119.929 54.1971 119.512 54.1387C119.095 54.0802 118.696 54.0106 118.315 53.9301C117.934 53.8498 117.597 53.7654 117.305 53.6776V37.5362L120.577 37.0093V42.7631C120.943 42.602 121.324 42.4776 121.719 42.3897C122.114 42.3017 122.539 42.258 122.993 42.258C123.813 42.258 124.537 42.4007 125.167 42.6862C125.796 42.9717 126.323 43.378 126.748 43.905C127.172 44.4321 127.494 45.0655 127.714 45.8046C127.934 46.544 128.044 47.3675 128.044 48.2752Z" fill="#326DE6"/>
<path fill-rule="evenodd" clip-rule="evenodd" d="M136.632 47.1112C136.617 46.8333 136.569 46.5622 136.489 46.2987C136.408 46.0352 136.284 45.8009 136.116 45.5959C135.947 45.391 135.735 45.2226 135.479 45.0908C135.222 44.9591 134.904 44.8932 134.523 44.8932C134.157 44.8932 133.843 44.9556 133.579 45.0799C133.316 45.2043 133.096 45.3692 132.92 45.574C132.745 45.7792 132.609 46.0171 132.514 46.2877C132.419 46.5588 132.349 46.8333 132.305 47.1112H136.632ZM128.945 48.363C128.945 47.3384 129.102 46.4414 129.417 45.6728C129.732 44.9042 130.146 44.2639 130.658 43.7512C131.171 43.2388 131.76 42.8508 132.426 42.5873C133.092 42.3238 133.777 42.192 134.479 42.192C136.119 42.192 137.415 42.6935 138.366 43.6963C139.318 44.6992 139.794 46.1745 139.794 48.1214C139.794 48.3118 139.786 48.5204 139.772 48.7473C139.757 48.9745 139.742 49.1755 139.728 49.3512H132.305C132.378 50.0247 132.693 50.5591 133.25 50.9544C133.806 51.3497 134.552 51.5473 135.49 51.5473C136.09 51.5473 136.679 51.4924 137.257 51.3826C137.836 51.2728 138.308 51.1376 138.674 50.9763L139.113 53.6336C138.937 53.7214 138.703 53.8093 138.41 53.8971C138.117 53.985 137.792 54.0618 137.433 54.1277C137.074 54.1936 136.69 54.2485 136.28 54.2924C135.87 54.3363 135.46 54.3583 135.05 54.3583C134.011 54.3583 133.107 54.2046 132.338 53.8971C131.57 53.5897 130.933 53.1687 130.428 52.6344C129.923 52.1002 129.549 51.467 129.308 50.7348C129.066 50.003 128.945 49.2124 128.945 48.363Z" fill="#326DE6"/>
</g>
</svg>
