<svg width="36" height="36" viewBox="0 0 36 36" fill="none" xmlns="http://www.w3.org/2000/svg">
<g clip-path="url(#clip0_14063_23269)">
<path fill-rule="evenodd" clip-rule="evenodd" d="M18.0346 0.00175353C17.5454 0.00175353 17.057 0.117488 16.5914 0.326161L4.81368 5.96121C4.35909 6.17421 3.95917 6.48826 3.64447 6.87939C3.32977 7.27052 3.10861 7.72839 2.99787 8.21804L0.087841 20.8568C-0.144505 21.8572 0.0878438 22.8822 0.740167 23.6967L8.88631 33.8217C9.1961 34.2089 9.58945 34.5209 10.0369 34.7346C10.4844 34.9482 10.9743 35.0578 11.4702 35.0553H24.5289C25.0246 35.0577 25.5144 34.948 25.9617 34.7344C26.409 34.5207 26.8022 34.2087 27.1119 33.8217L35.2589 23.6967C35.5787 23.3054 35.8039 22.8455 35.9169 22.3529C36.0299 21.8604 36.0276 21.3484 35.9104 20.8568L33.0012 8.21716C32.8903 7.72756 32.6691 7.26975 32.3545 6.87864C32.0398 6.48752 31.6399 6.17344 31.1854 5.96034L19.4541 0.326161C19.0105 0.114121 18.5254 0.00274483 18.0337 0L18.0346 0.00175353ZM18.0346 1.0951C18.359 1.0951 18.6861 1.16524 18.9885 1.30465L30.7663 6.91427C31.3713 7.21676 31.836 7.77527 31.9763 8.42671L34.8863 21.0663C35.0494 21.7415 34.8863 22.4394 34.4444 22.9751L26.2974 33.1001C26.0887 33.3627 25.8232 33.5746 25.5208 33.7198C25.2185 33.8649 24.8871 33.9397 24.5517 33.9383H11.4938C10.8187 33.9383 10.1664 33.6358 9.74818 33.1001L1.60116 22.9751C1.39332 22.7081 1.24606 22.3991 1.1696 22.0695C1.09314 21.7399 1.08931 21.3976 1.15839 21.0663L4.06841 8.42671C4.23149 7.75159 4.67339 7.19396 5.27837 6.91427L17.057 1.28097C17.3692 1.16117 17.7003 1.09821 18.0346 1.0951Z" fill="#326DE6"/>
<path fill-rule="evenodd" clip-rule="evenodd" d="M11.2168 30.9817C11.4203 31.2365 11.6788 31.442 11.9729 31.5829C12.267 31.7238 12.5891 31.7964 12.9151 31.7954L23.162 31.7778C23.8161 31.7778 24.436 31.4701 24.8533 30.9633L31.1004 23.0986C31.281 22.8531 31.2608 22.3709 31.2608 21.9658V10.9824L17.8391 18.7121L4.42969 10.9912V21.9649C4.42969 22.377 4.57523 22.7795 4.84353 23.1162L11.2168 30.9808V30.9817Z" fill="#1FBFCF"/>
<path fill-rule="evenodd" clip-rule="evenodd" d="M17.8391 18.7112L31.2608 10.9842L17.826 3.25977L4.42969 10.9903L17.8391 18.7112Z" fill="#C9E9EC"/>
<path fill-rule="evenodd" clip-rule="evenodd" d="M21.0341 24.6814C20.6501 24.9269 20.1249 24.8567 19.8101 24.4709C19.7049 24.3657 19.6698 24.2263 19.6347 24.0869L19.3191 18.3835C21.7025 18.6577 23.9229 19.7306 25.6187 21.4276L21.0341 24.6814ZM16.2767 23.9466C16.2407 24.4367 15.8558 24.8567 15.3315 24.8567C15.1912 24.8567 15.0159 24.8217 14.9107 24.7515L10.2576 21.4276C11.6885 19.9962 13.4969 19.001 15.4718 18.558C15.8567 18.4878 16.2065 18.4177 16.5914 18.3484L16.2767 23.9466ZM29.3626 21.6021L29.7124 21.2874V21.2172C29.7124 21.0419 29.7466 20.8674 29.8869 20.6929C30.3069 20.3071 30.8321 19.9924 31.4616 19.6083C31.5668 19.5382 31.6712 19.5031 31.7764 19.433C31.9859 19.3278 32.1613 19.2225 32.3717 19.0823C32.4059 19.0481 32.476 19.013 32.5462 18.9429C32.5812 18.9078 32.6163 18.9078 32.6163 18.8727C33.1064 18.4536 33.2108 17.7539 32.8609 17.2989C32.6856 17.0534 32.3717 16.9131 32.0561 16.9131C31.7755 16.9131 31.5317 17.0183 31.2862 17.1937L31.2161 17.2638C31.146 17.2989 31.1109 17.369 31.0407 17.4041C30.8654 17.5786 30.7269 17.7189 30.5866 17.8934C30.5164 17.9635 30.4463 18.0687 30.3411 18.1388C29.8518 18.6632 29.3968 19.0831 28.9426 19.3979C28.8374 19.468 28.7322 19.5031 28.627 19.5031C28.5568 19.5031 28.4867 19.5031 28.4165 19.468H28.3464L27.9273 19.7486C27.4731 19.2576 26.983 18.8385 26.4929 18.4185C24.384 16.7701 21.8459 15.7622 19.1806 15.5147L19.1455 15.0587L19.0754 14.9886C18.9701 14.8843 18.8299 14.779 18.7948 14.5344C18.7597 13.975 18.8299 13.3446 18.9 12.645V12.6099C18.9 12.5047 18.9351 12.3653 18.9701 12.2601C19.0052 12.0496 19.0403 11.8401 19.0754 11.5955V11.2798C19.0754 10.6512 18.5844 10.126 17.9908 10.126C17.7102 10.126 17.4296 10.2663 17.221 10.4758C17.0105 10.6862 16.9053 10.9659 16.9053 11.2807V11.5613C16.9053 11.805 16.9404 12.0154 17.0105 12.225C17.0456 12.3302 17.0456 12.4354 17.0807 12.5757V12.6108C17.1508 13.3096 17.256 13.94 17.1859 14.4993C17.1508 14.7448 17.0105 14.8501 16.9053 14.9553L16.8352 15.0245L16.8001 15.4787C16.1715 15.5488 15.5411 15.619 14.9115 15.7593C12.2607 16.3391 9.84644 17.705 7.98412 19.6785L7.63341 19.433H7.56327C7.49312 19.433 7.42298 19.468 7.35371 19.468C7.2485 19.468 7.14329 19.433 7.03895 19.3628C6.5839 19.0481 6.12973 18.593 5.63961 18.0687C5.56947 17.9986 5.49933 17.8934 5.39411 17.8232C5.25383 17.6479 5.11442 17.5084 4.93994 17.334C4.90487 17.2989 4.83473 17.2638 4.76459 17.1937C4.72952 17.1586 4.69444 17.1586 4.69444 17.1235C4.48402 16.9482 4.2052 16.843 3.92464 16.843C3.60987 16.843 3.29511 16.9833 3.12063 17.2288C2.76992 17.6838 2.87513 18.3835 3.36525 18.8034C3.40032 18.8034 3.40032 18.8385 3.43539 18.8385C3.50554 18.8736 3.54061 18.9437 3.61075 18.9788C3.8203 19.1182 3.99478 19.2234 4.2052 19.3278C4.31042 19.3628 4.41563 19.433 4.51997 19.5031C5.14949 19.888 5.67468 20.2028 6.09378 20.5877C6.26914 20.763 6.26914 20.9384 6.26914 21.112V21.1821L6.61985 21.4978C6.54971 21.603 6.47957 21.6723 6.4445 21.7775C6.03416 22.4263 5.6852 23.1014 5.39499 23.7976L7.38966 26.2587C7.66014 25.2983 8.06012 24.3792 8.57857 23.5267L12.7424 27.2354C13.1273 27.5511 13.1624 28.1455 12.8476 28.5304C12.7424 28.6707 12.6021 28.775 12.4268 28.811L10.0235 29.508L11.2177 30.9819C11.635 31.5062 12.261 31.7955 12.9151 31.7955L23.1629 31.778C23.817 31.778 24.436 31.4711 24.8542 30.9635L25.9756 29.5519L23.5189 28.8452C23.2862 28.7786 23.0877 28.6255 22.9642 28.4174C22.8406 28.2092 22.8013 27.9617 22.8543 27.7255C22.8893 27.5853 22.9595 27.445 23.0638 27.3406L27.2978 23.5267C27.8309 24.4126 28.2373 25.3688 28.5051 26.3674L30.5392 23.8055C30.2105 23.0388 29.8169 22.3017 29.3626 21.6021Z" fill="#326DE6"/>
</g>
<defs>
<clipPath id="clip0_14063_23269">
    <rect width="36" height="36" fill="white"/>
</clipPath>
</defs>
</svg>
