<svg width="36" height="36" viewBox="0 0 36 36" fill="none" xmlns="http://www.w3.org/2000/svg">
<g clip-path="url(#clip0_14063_23174)">
<path d="M36.0005 10.4361C35.5992 9.59981 35.1274 8.79921 34.5903 8.04297L28.8113 10.1459C29.476 10.8303 30.0472 11.5997 30.51 12.4341L36.0005 10.4361ZM10.4525 16.8284L4.67188 18.9314C4.74545 19.8589 4.90581 20.7748 5.12983 21.6717L10.622 19.6721C10.4397 18.7359 10.3827 17.7796 10.4525 16.8284Z" fill="#C22133"/>
<path d="M23.2836 8.7982C24.4501 9.3453 25.5081 10.0986 26.4067 11.0219L32.1865 8.91889C30.5366 6.60008 28.3129 4.74947 25.733 3.54825C17.4699 -0.304696 7.6123 3.2829 3.76018 11.5443C2.55441 14.1226 2.03994 16.9701 2.26728 19.8073L8.04793 17.7044C8.14206 16.4193 8.46776 15.1619 9.00931 13.9928C11.5132 8.62461 17.9163 6.29516 23.2836 8.7982ZM29.4487 19.3593C29.3535 20.6452 29.0246 21.903 28.4782 23.0709C25.9752 28.4399 19.5712 30.7693 14.2047 28.2671C13.0355 27.7228 11.9751 26.9705 11.0751 26.0468L5.30764 28.1456C6.95414 30.4657 9.17626 32.3171 11.7554 33.5179C20.0193 37.37 29.8752 33.7824 33.7273 25.5194C34.9326 22.9428 35.4454 20.0965 35.2153 17.2613L29.4487 19.3593Z" fill="#DB212E"/>
<path d="M30.8707 12.3037L25.3785 14.3025C26.4093 16.1435 26.877 18.2466 26.7234 20.351L32.4909 18.253C32.3259 16.1863 31.7764 14.1687 30.8707 12.3037ZM5.49216 21.5397L0 23.5402C0.506617 25.5503 1.38228 27.4487 2.58241 29.139L8.34983 27.0393C6.87996 25.525 5.8864 23.6129 5.49216 21.5397Z" fill="#EB2126"/>
<path d="M35.1631 8.91341C34.9813 8.61748 34.7928 8.3265 34.5911 8.04297L28.8113 10.1468C29.0659 10.4071 29.299 10.6832 29.5222 10.9659L35.1639 8.91341H35.1631ZM10.4302 17.989C10.4158 17.6021 10.4232 17.2146 10.4525 16.8284L4.67188 18.9314C4.70163 19.3017 4.74793 19.6696 4.80331 20.0366L10.4302 17.989Z" fill="#AD213B"/>
<path d="M35.221 17.2606L29.4527 19.3586C29.3901 20.2018 29.2264 21.0344 28.965 21.8385L35.2441 19.5504C35.2887 18.7833 35.2813 18.0186 35.221 17.2606ZM5.3125 28.1457C5.76019 28.7744 6.2516 29.3708 6.78308 29.9304L13.0622 27.6406C12.3402 27.1898 11.6747 26.6542 11.0799 26.0452L5.3125 28.1457Z" fill="#BA2133"/>
</g>
<defs>
<clipPath id="clip0_14063_23174">
<rect width="36" height="36" fill="white"/>
</clipPath>
</defs>
</svg>
