<svg width="96" height="104" viewBox="0 0 96 104" fill="none" xmlns="http://www.w3.org/2000/svg">
<g filter="url(#filter0_d)">
<path fill-rule="evenodd" clip-rule="evenodd" d="M49.1395 22.0267L49.4744 21.4466C51.1312 18.5769 54.8008 17.5936 57.6705 19.2505L66.3308 24.2505C69.2005 25.9073 70.1838 29.5769 68.5269 32.4466L68.1931 33.0248C68.6037 33.6628 68.9851 34.3217 69.3352 34.9996H70C73.3137 34.9996 76 37.6859 76 40.9996V50.9996C76 54.3133 73.3137 56.9996 70 56.9996H69.3356C68.9855 57.6776 68.6042 58.3364 68.1936 58.9744L68.5269 59.5517C70.1838 62.4215 69.2005 66.091 66.3308 67.7479L57.6705 72.7479C54.8008 74.4047 51.1312 73.4215 49.4744 70.5517L49.1404 69.9733C48.7622 69.991 48.382 70 48 70C47.6184 70 47.2386 69.9911 46.8609 69.9734L46.5269 70.5517C44.8701 73.4215 41.2005 74.4047 38.3308 72.7479L29.6705 67.7479C26.8008 66.091 25.8175 62.4215 27.4744 59.5517L27.8071 58.9755C27.3962 58.3372 27.0147 57.6779 26.6644 56.9996H26C22.6863 56.9996 20 54.3133 20 50.9996V40.9996C20 37.6859 22.6863 34.9996 26 34.9996H26.6648C27.0151 34.3213 27.3967 33.662 27.8076 33.0238L27.4744 32.4466C25.8175 29.5769 26.8008 25.9073 29.6705 24.2505L38.3308 19.2505C41.2005 17.5936 44.8701 18.5769 46.5269 21.4466L46.8618 22.0266C47.2392 22.0089 47.6187 22 48 22C48.3817 22 48.7616 22.0089 49.1395 22.0267ZM52.0002 25.0718C51.5833 25.7938 50.763 26.1718 49.9331 26.0922C49.297 26.0312 48.6521 26 48 26C47.3483 26 46.7038 26.0312 46.068 26.0921C45.2381 26.1717 44.4179 25.7936 44.001 25.0716L43.0628 23.4466C42.5105 22.49 41.2874 22.1623 40.3308 22.7146L31.6705 27.7146C30.7139 28.2669 30.3862 29.49 30.9385 30.4466L31.8763 32.0711C32.2939 32.7942 32.2101 33.6951 31.7242 34.3742C30.977 35.4183 30.3279 36.5373 29.7901 37.7177C29.4442 38.4771 28.7062 38.9996 27.8717 38.9996H26C24.8954 38.9996 24 39.895 24 40.9996V50.9996C24 52.1042 24.8954 52.9996 26 52.9996H27.8713C28.7059 52.9996 29.4439 53.5221 29.7898 54.2816C30.3275 55.462 30.9766 56.581 31.7237 57.6251C32.2096 58.3042 32.2933 59.2051 31.8758 59.9282L30.9385 61.5517C30.3862 62.5083 30.7139 63.7315 31.6705 64.2838L40.3308 69.2838C41.2874 69.8361 42.5105 69.5083 43.0628 68.5517L44.0001 66.9283C44.417 66.2062 45.2373 65.8282 46.0672 65.9078C46.7033 65.9688 47.348 66 48 66C48.6524 66 49.2975 65.9688 49.9339 65.9077C50.7638 65.8281 51.5842 66.2061 52.0011 66.9281L52.9385 68.5517C53.4908 69.5083 54.7139 69.8361 55.6705 69.2838L64.3308 64.2838C65.2874 63.7315 65.6151 62.5083 65.0628 61.5517L64.1249 59.9272C63.7074 59.2041 63.7911 58.3033 64.277 57.6242C65.0238 56.5804 65.6726 55.4617 66.2102 54.2816C66.5561 53.5221 67.2941 52.9996 68.1287 52.9996H70C71.1046 52.9996 72 52.1042 72 50.9996V40.9996C72 39.895 71.1046 38.9996 70 38.9996H68.1283C67.2938 38.9996 66.5558 38.4771 66.2099 37.7177C65.6723 36.5376 65.0233 35.4189 64.2765 34.3751C63.7906 33.6961 63.7069 32.7952 64.1244 32.0721L65.0628 30.4466C65.6151 29.49 65.2874 28.2669 64.3308 27.7146L55.6705 22.7146C54.7139 22.1623 53.4908 22.49 52.9385 23.4466L52.0002 25.0718Z" fill="#3D6CAB"/>
<path fill-rule="evenodd" clip-rule="evenodd" d="M48 60C55.732 60 62 53.732 62 46C62 38.268 55.732 32 48 32C40.268 32 34 38.268 34 46C34 53.732 40.268 60 48 60ZM48 52C51.3137 52 54 49.3137 54 46C54 42.6863 51.3137 40 48 40C44.6863 40 42 42.6863 42 46C42 49.3137 44.6863 52 48 52Z" fill="#2A7DEC"/>
</g>
<defs>
<filter id="filter0_d" x="-2" y="6" width="100" height="100" filterUnits="userSpaceOnUse" color-interpolation-filters="sRGB">
<feFlood flood-opacity="0" result="BackgroundImageFix"/>
<feColorMatrix in="SourceAlpha" type="matrix" values="0 0 0 0 0 0 0 0 0 0 0 0 0 0 0 0 0 0 127 0"/>
<feOffset dy="10"/>
<feGaussianBlur stdDeviation="10"/>
<feColorMatrix type="matrix" values="0 0 0 0 0 0 0 0 0 0 0 0 0 0 0 0 0 0 0.1 0"/>
<feBlend mode="normal" in2="BackgroundImageFix" result="effect1_dropShadow"/>
<feBlend mode="normal" in="SourceGraphic" in2="effect1_dropShadow" result="shape"/>
</filter>
</defs>
</svg>
