<svg width="60" height="60" viewBox="0 0 60 60" fill="none" xmlns="http://www.w3.org/2000/svg">
<path fill-rule="evenodd" clip-rule="evenodd" d="M31.1395 6.02665L31.4744 5.44662C33.1312 2.57686 36.8008 1.59361 39.6705 3.25047L48.3308 8.25047C51.2005 9.90732 52.1838 13.5769 50.5269 16.4466L50.1931 17.0248C50.6037 17.6628 50.9851 18.3217 51.3352 18.9996H52C55.3137 18.9996 58 21.6859 58 24.9996V34.9996C58 38.3133 55.3137 40.9996 52 40.9996H51.3356C50.9855 41.6776 50.6042 42.3364 50.1936 42.9744L50.5269 43.5517C52.1838 46.4215 51.2005 50.091 48.3308 51.7479L39.6705 56.7479C36.8008 58.4047 33.1312 57.4215 31.4744 54.5517L31.1404 53.9733C30.7622 53.991 30.382 54 30 54C29.6184 54 29.2386 53.9911 28.8609 53.9734L28.5269 54.5517C26.8701 57.4215 23.2005 58.4047 20.3308 56.7479L11.6705 51.7479C8.80077 50.091 7.81752 46.4215 9.47438 43.5517L9.80708 42.9755C9.39623 42.3372 9.01467 41.6779 8.66437 40.9996H8C4.6863 40.9996 2 38.3133 2 34.9996V24.9996C2 21.6859 4.68629 18.9996 8 18.9996H8.66477C9.0151 18.3213 9.39669 17.662 9.80758 17.0238L9.47437 16.4466C7.81752 13.5769 8.80077 9.90733 11.6705 8.25047L20.3308 3.25047C23.2005 1.59361 26.8701 2.57687 28.5269 5.44662L28.8618 6.02659C29.2392 6.00892 29.6187 6 30 6C30.3817 6 30.7616 6.00894 31.1395 6.02665ZM34.0002 9.07176C33.5833 9.7938 32.763 10.1718 31.9331 10.0922C31.297 10.0312 30.6521 10 30 10C29.3483 10 28.7038 10.0312 28.068 10.0921C27.2381 10.1717 26.4179 9.79364 26.001 9.07164L25.0628 7.44662C24.5105 6.49004 23.2874 6.16229 22.3308 6.71457L13.6705 11.7146C12.7139 12.2669 12.3862 13.49 12.9385 14.4466L13.8763 16.0711C14.2939 16.7942 14.2101 17.6951 13.7242 18.3742C12.977 19.4183 12.3279 20.5373 11.7901 21.7177C11.4442 22.4771 10.7062 22.9996 9.87167 22.9996H8C6.89543 22.9996 6 23.895 6 24.9996V34.9996C6 36.1042 6.89543 36.9996 8 36.9996H9.87132C10.7059 36.9996 11.4439 37.5221 11.7898 38.2816C12.3275 39.462 12.9766 40.581 13.7237 41.6251C14.2096 42.3042 14.2933 43.2051 13.8758 43.9282L12.9385 45.5517C12.3862 46.5083 12.7139 47.7315 13.6705 48.2838L22.3308 53.2838C23.2874 53.8361 24.5105 53.5083 25.0628 52.5517L26.0001 50.9283C26.417 50.2062 27.2373 49.8282 28.0672 49.9078C28.7033 49.9688 29.348 50 30 50C30.6524 50 31.2975 49.9688 31.9339 49.9077C32.7638 49.8281 33.5842 50.2061 34.0011 50.9281L34.9385 52.5517C35.4908 53.5083 36.7139 53.8361 37.6705 53.2838L46.3308 48.2838C47.2874 47.7315 47.6151 46.5083 47.0628 45.5517L46.1249 43.9272C45.7074 43.2041 45.7911 42.3033 46.277 41.6242C47.0238 40.5804 47.6726 39.4617 48.2102 38.2816C48.5561 37.5221 49.2941 36.9996 50.1287 36.9996H52C53.1046 36.9996 54 36.1042 54 34.9996V24.9996C54 23.895 53.1046 22.9996 52 22.9996H50.1283C49.2938 22.9996 48.5558 22.4771 48.2099 21.7177C47.6723 20.5376 47.0233 19.4189 46.2765 18.3751C45.7906 17.6961 45.7069 16.7952 46.1244 16.0721L47.0628 14.4466C47.6151 13.49 47.2874 12.2669 46.3308 11.7146L37.6705 6.71457C36.7139 6.16228 35.4908 6.49003 34.9385 7.44662L34.0002 9.07176Z" fill="#0D2743"/>
<path fill-rule="evenodd" clip-rule="evenodd" d="M30 44C37.732 44 44 37.732 44 30C44 22.268 37.732 16 30 16C22.268 16 16 22.268 16 30C16 37.732 22.268 44 30 44ZM30 36C33.3137 36 36 33.3137 36 30C36 26.6863 33.3137 24 30 24C26.6863 24 24 26.6863 24 30C24 33.3137 26.6863 36 30 36Z" fill="#305680"/>
</svg>
