<svg width="100" height="106" viewBox="0 0 100 106" fill="none" xmlns="http://www.w3.org/2000/svg">
<g filter="url(#filter0_d)">
<path fill-rule="evenodd" clip-rule="evenodd" d="M50 35C43.9249 35 39 39.9249 39 46C39 52.0751 43.9249 57 50 57C56.0751 57 61 52.0751 61 46C61 39.9249 56.0751 35 50 35ZM50 31C41.7157 31 35 37.7157 35 46C35 54.2843 41.7157 61 50 61C58.2843 61 65 54.2843 65 46C65 37.7157 58.2843 31 50 31Z" fill="#3D6CAB"/>
<path fill-rule="evenodd" clip-rule="evenodd" d="M35.5039 62.3359L41.5039 53.3359L46.4962 56.6641L40.4962 65.6641L35.5039 62.3359Z" fill="#3D6CAB"/>
<path fill-rule="evenodd" clip-rule="evenodd" d="M41.4805 37.1306L33.2305 24.3806L38.2679 21.1211L46.5179 33.8711L41.4805 37.1306Z" fill="#3D6CAB"/>
<path fill-rule="evenodd" clip-rule="evenodd" d="M36.2715 47.4911L26.5215 46.7411L26.9817 40.7588L36.7317 41.5088L36.2715 47.4911Z" fill="#3D6CAB"/>
<path d="M71 69.25C71 71.3211 69.3211 73 67.25 73C65.1789 73 63.5 71.3211 63.5 69.25C63.5 67.1789 65.1789 65.5 67.25 65.5C69.3211 65.5 71 67.1789 71 69.25Z" fill="#2A7DEC"/>
<path d="M39.5 22.75C39.5 24.8211 37.8211 26.5 35.75 26.5C33.6789 26.5 32 24.8211 32 22.75C32 20.6789 33.6789 19 35.75 19C37.8211 19 39.5 20.6789 39.5 22.75Z" fill="#2A7DEC"/>
<path d="M30.5 43.75C30.5 45.8211 28.8211 47.5 26.75 47.5C24.6789 47.5 23 45.8211 23 43.75C23 41.6789 24.6789 40 26.75 40C28.8211 40 30.5 41.6789 30.5 43.75Z" fill="#2A7DEC"/>
<path fill-rule="evenodd" clip-rule="evenodd" d="M57 36.75L64.5 30L68.5138 34.4598L61.0138 41.2098L57 36.75Z" fill="#3D6CAB"/>
<path fill-rule="evenodd" clip-rule="evenodd" d="M59.8768 53.9219L67.3768 63.6719L62.6211 67.3301L55.1211 57.5801L59.8768 53.9219Z" fill="#3D6CAB"/>
<path fill-rule="evenodd" clip-rule="evenodd" d="M35.75 22C35.3358 22 35 22.3358 35 22.75C35 23.1642 35.3358 23.5 35.75 23.5C36.1642 23.5 36.5 23.1642 36.5 22.75C36.5 22.3358 36.1642 22 35.75 22ZM29 22.75C29 19.0221 32.0221 16 35.75 16C39.4779 16 42.5 19.0221 42.5 22.75C42.5 26.4779 39.4779 29.5 35.75 29.5C32.0221 29.5 29 26.4779 29 22.75Z" fill="#2A7DEC"/>
<path fill-rule="evenodd" clip-rule="evenodd" d="M26.75 43C26.3358 43 26 43.3358 26 43.75C26 44.1642 26.3358 44.5 26.75 44.5C27.1642 44.5 27.5 44.1642 27.5 43.75C27.5 43.3358 27.1642 43 26.75 43ZM20 43.75C20 40.0221 23.0221 37 26.75 37C30.4779 37 33.5 40.0221 33.5 43.75C33.5 47.4779 30.4779 50.5 26.75 50.5C23.0221 50.5 20 47.4779 20 43.75Z" fill="#2A7DEC"/>
<path fill-rule="evenodd" clip-rule="evenodd" d="M35.5 65C33.567 65 32 66.567 32 68.5C32 70.433 33.567 72 35.5 72C37.433 72 39 70.433 39 68.5C39 66.567 37.433 65 35.5 65ZM35.5 61C31.3579 61 28 64.3579 28 68.5C28 72.6421 31.3579 76 35.5 76C39.6421 76 43 72.6421 43 68.5C43 64.3579 39.6421 61 35.5 61Z" fill="#3D6CAB"/>
<path fill-rule="evenodd" clip-rule="evenodd" d="M67.25 68.5C66.8358 68.5 66.5 68.8358 66.5 69.25C66.5 69.6642 66.8358 70 67.25 70C67.6642 70 68 69.6642 68 69.25C68 68.8358 67.6642 68.5 67.25 68.5ZM60.5 69.25C60.5 65.5221 63.5221 62.5 67.25 62.5C70.9779 62.5 74 65.5221 74 69.25C74 72.9779 70.9779 76 67.25 76C63.5221 76 60.5 72.9779 60.5 69.25Z" fill="#2A7DEC"/>
<path fill-rule="evenodd" clip-rule="evenodd" d="M71 23C68.2386 23 66 25.2386 66 28C66 30.7614 68.2386 33 71 33C73.7614 33 76 30.7614 76 28C76 25.2386 73.7614 23 71 23ZM71 19C66.0294 19 62 23.0294 62 28C62 32.9706 66.0294 37 71 37C75.9706 37 80 32.9706 80 28C80 23.0294 75.9706 19 71 19Z" fill="#3D6CAB"/>
</g>
<defs>
<filter id="filter0_d" x="0" y="6" width="100" height="100" filterUnits="userSpaceOnUse" color-interpolation-filters="sRGB">
<feFlood flood-opacity="0" result="BackgroundImageFix"/>
<feColorMatrix in="SourceAlpha" type="matrix" values="0 0 0 0 0 0 0 0 0 0 0 0 0 0 0 0 0 0 127 0"/>
<feOffset dy="10"/>
<feGaussianBlur stdDeviation="10"/>
<feColorMatrix type="matrix" values="0 0 0 0 0 0 0 0 0 0 0 0 0 0 0 0 0 0 0.1 0"/>
<feBlend mode="normal" in2="BackgroundImageFix" result="effect1_dropShadow"/>
<feBlend mode="normal" in="SourceGraphic" in2="effect1_dropShadow" result="shape"/>
</filter>
</defs>
</svg>
