<svg width="60" height="60" viewBox="0 0 60 60" fill="none" xmlns="http://www.w3.org/2000/svg">
<g clip-path="url(#clip0)">
<path fill-rule="evenodd" clip-rule="evenodd" d="M47 30C47 39.3888 39.3888 47 30 47C20.6112 47 13 39.3888 13 30C13 20.6112 20.6112 13 30 13C39.3888 13 47 20.6112 47 30ZM32 21C32 19.8954 31.1046 19 30 19C28.8954 19 28 19.8954 28 21V30C28 30.5699 28.2384 31.0841 28.6208 31.4484L33.5893 36.4169C34.3701 37.1977 35.6361 37.1977 36.4169 36.4169C37.1977 35.6361 37.1977 34.3701 36.4169 33.5893L32 29.1724V21Z" fill="#305680"/>
<path d="M5.79998 35.9333C5.39998 36.4667 4.59998 36.4667 4.19998 35.9333L0.199984 30.6C-0.294443 29.9408 0.175939 29 0.999985 29L8.99998 29C9.82403 29 10.2944 29.9408 9.79998 30.6L5.79998 35.9333Z" fill="#0D2743"/>
<path fill-rule="evenodd" clip-rule="evenodd" d="M30 7C17.2975 7 7 17.2975 7 30C7 31.1046 6.10457 32 5 32C3.89543 32 3 31.1046 3 30C3 15.0883 15.0883 3 30 3C44.9117 3 57 15.0883 57 30C57 44.9117 44.9117 57 30 57C23.6955 57 17.8907 54.8367 13.2953 51.2134C12.4279 50.5295 12.2791 49.2719 12.963 48.4045C13.6469 47.5372 14.9045 47.3884 15.7719 48.0723C19.6869 51.1592 24.6257 53 30 53C42.7025 53 53 42.7025 53 30C53 17.2975 42.7025 7 30 7Z" fill="#0D2743"/>
</g>
<defs>
<clipPath id="clip0">
<rect width="60" height="60" fill="white"/>
</clipPath>
</defs>
</svg>
