<svg width="60" height="60" viewBox="0 0 60 60" fill="none" xmlns="http://www.w3.org/2000/svg">
<path fill-rule="evenodd" clip-rule="evenodd" d="M60 7L60 29C60 32.3137 57.3137 35 54 35L6 35C2.6863 35 -1.36877e-06 32.3137 -1.22392e-06 29L-2.62268e-07 7C-1.17422e-07 3.68629 2.68629 0.999997 6 0.999998L54 1C57.3137 1 60 3.68629 60 7ZM56 7C56 5.89543 55.1046 5 54 5L6 5C4.89543 5 4 5.89543 4 7L4 29C4 30.1046 4.89543 31 6 31L54 31C55.1046 31 56 30.1046 56 29L56 7Z" fill="#0D2743"/>
<path fill-rule="evenodd" clip-rule="evenodd" d="M7 13.9301C10.0691 13.4944 12.4974 11.0681 12.9362 8H47.0709C47.5094 11.0657 49.9343 13.4906 53 13.9291V22.0719C49.9377 22.5132 47.5162 24.9367 47.078 28H12.9435C12.5043 24.9295 10.0725 22.5018 7 22.0688V13.9301ZM30 23C32.7614 23 35 20.7614 35 18C35 15.2386 32.7614 13 30 13C27.2386 13 25 15.2386 25 18C25 20.7614 27.2386 23 30 23Z" fill="#305680"/>
<path d="M20 39H12V44C12 45.1046 12.8954 46 14 46H18C19.1046 46 20 45.1046 20 44V39Z" fill="#305680"/>
<path d="M34 39H26V48C26 49.1046 26.8954 50 28 50H32C33.1046 50 34 49.1046 34 48V39Z" fill="#305680"/>
<path d="M48 39H40V54H48V39Z" fill="#305680"/>
<path d="M44.6 59.55C44.2444 59.8167 43.7555 59.8167 43.4 59.55L38.4 55.8C37.6312 55.2234 38.039 54 39 54L49 54C49.961 54 50.3688 55.2234 49.6 55.8L44.6 59.55Z" fill="#305680"/>
</svg>
