<svg width="100" height="106" viewBox="0 0 100 106" fill="none" xmlns="http://www.w3.org/2000/svg">
<g filter="url(#filter0_d)">
<path fill-rule="evenodd" clip-rule="evenodd" d="M80 23L80 45C80 48.3137 77.3137 51 74 51L26 51C22.6863 51 20 48.3137 20 45L20 23C20 19.6863 22.6863 17 26 17L74 17C77.3137 17 80 19.6863 80 23ZM76 23C76 21.8954 75.1046 21 74 21L26 21C24.8954 21 24 21.8954 24 23L24 45C24 46.1046 24.8954 47 26 47L74 47C75.1046 47 76 46.1046 76 45L76 23Z" fill="#3D6CAB"/>
<path fill-rule="evenodd" clip-rule="evenodd" d="M27 29.9301C30.0691 29.4944 32.4974 27.0681 32.9362 24H67.0709C67.5094 27.0657 69.9343 29.4906 73 29.9291V38.0719C69.9377 38.5132 67.5162 40.9367 67.078 44H32.9435C32.5043 40.9295 30.0725 38.5018 27 38.0688V29.9301ZM50 39C52.7614 39 55 36.7614 55 34C55 31.2386 52.7614 29 50 29C47.2386 29 45 31.2386 45 34C45 36.7614 47.2386 39 50 39Z" fill="#2A7DEC"/>
<path d="M40 55H32V60C32 61.1046 32.8954 62 34 62H38C39.1046 62 40 61.1046 40 60V55Z" fill="#2A7DEC"/>
<path d="M54 55H46V64C46 65.1046 46.8954 66 48 66H52C53.1046 66 54 65.1046 54 64V55Z" fill="#2A7DEC"/>
<path d="M68 55H60V70H68V55Z" fill="#2A7DEC"/>
<path d="M64.6 75.55C64.2444 75.8167 63.7555 75.8167 63.4 75.55L58.4 71.8C57.6312 71.2234 58.039 70 59 70L69 70C69.961 70 70.3688 71.2234 69.6 71.8L64.6 75.55Z" fill="#2A7DEC"/>
</g>
<defs>
<filter id="filter0_d" x="0" y="6" width="100" height="100" filterUnits="userSpaceOnUse" color-interpolation-filters="sRGB">
<feFlood flood-opacity="0" result="BackgroundImageFix"/>
<feColorMatrix in="SourceAlpha" type="matrix" values="0 0 0 0 0 0 0 0 0 0 0 0 0 0 0 0 0 0 127 0"/>
<feOffset dy="10"/>
<feGaussianBlur stdDeviation="10"/>
<feColorMatrix type="matrix" values="0 0 0 0 0 0 0 0 0 0 0 0 0 0 0 0 0 0 0.1 0"/>
<feBlend mode="normal" in2="BackgroundImageFix" result="effect1_dropShadow"/>
<feBlend mode="normal" in="SourceGraphic" in2="effect1_dropShadow" result="shape"/>
</filter>
</defs>
</svg>
