<svg width="95" height="36" viewBox="0 0 95 36" fill="none" xmlns="http://www.w3.org/2000/svg">
<path fill-rule="evenodd" clip-rule="evenodd" d="M15.1656 16.685L16.4678 17.9797L15.1656 19.2743H5.9999V23.588L0.410156 17.9797L5.9999 12.4658V16.685H15.1656Z" fill="#932279"/>
<path fill-rule="evenodd" clip-rule="evenodd" d="M19.3131 15.1636L18.0185 16.4658L16.7238 15.1636V5.99785H12.4102L18.0185 0.408203L23.5323 5.99785H19.3131V15.1636Z" fill="#EFA724"/>
<path fill-rule="evenodd" clip-rule="evenodd" d="M20.8374 19.3141L19.5352 18.0195L20.8374 16.7248H30.0031V12.4111L35.5928 18.0195L30.0031 23.5333V19.3141H20.8374Z" fill="#262577"/>
<path fill-rule="evenodd" clip-rule="evenodd" d="M16.688 20.8364L17.9826 19.5342L19.2772 20.8364V30.0022H23.5909L17.9826 35.5919L12.4688 30.0022H16.688V20.8364Z" fill="#9CCD2A"/>
<path d="M5.66797 5.66992H16.8049V16.8069H5.66797V5.66992Z" fill="#9CCD2A"/>
<path fill-rule="evenodd" clip-rule="evenodd" d="M5.27344 5.27148H17.2058V17.2039H5.27344V5.27148ZM6.0689 6.06695V16.4085H16.4103V6.06695H6.0689Z" fill="white"/>
<path d="M19.1953 5.66992H30.3322V16.8069H19.1953V5.66992Z" fill="#932279"/>
<path fill-rule="evenodd" clip-rule="evenodd" d="M18.793 5.27148H30.7254V17.2039H18.793V5.27148ZM19.5885 6.06695V16.4085H29.93V6.06695H19.5885Z" fill="white"/>
<path d="M19.1953 19.1934H30.3322V30.3304H19.1953V19.1934Z" fill="#EFA724"/>
<path fill-rule="evenodd" clip-rule="evenodd" d="M18.793 18.7949H30.7254V30.7274H18.793V18.7949ZM19.5885 19.5904V29.9318H29.93V19.5904H19.5885Z" fill="white"/>
<path d="M5.66797 19.1934H16.8049V30.3304H5.66797V19.1934Z" fill="#262577"/>
<path fill-rule="evenodd" clip-rule="evenodd" d="M5.27344 18.7949H17.2058V30.7274H5.27344V18.7949ZM6.0689 19.5904V29.9318H16.4103V19.5904H6.0689Z" fill="white"/>
<path fill-rule="evenodd" clip-rule="evenodd" d="M0 18L8.43749 9.56247L16.875 18L8.43749 26.4375L0 18ZM1.12498 18L8.43749 25.3126L15.75 18L8.43749 10.6874L1.12498 18ZM9.56256 8.43749L18 0L26.4374 8.43749L18 16.875L9.56256 8.43749ZM10.6874 8.43749L18 15.75L25.3126 8.43749L18 1.12489L10.6874 8.43749ZM27.5625 9.56238L36 18L27.5625 26.4374L19.125 18L27.5625 9.56238ZM20.25 18L27.5625 25.3125L34.875 18L27.5625 10.6874L20.25 18ZM9.56247 27.5625L18 19.1249L26.4374 27.5625L18 36L9.56247 27.5625ZM10.6874 27.5625L18 34.875L25.3125 27.5625L18 20.2499L10.6874 27.5625Z" fill="white"/>
<path fill-rule="evenodd" clip-rule="evenodd" d="M80.2153 20.4422C82.9953 20.4422 87.0174 19.869 87.0174 16.5624C87.0256 16.3071 87.0024 16.0518 86.9484 15.8022L85.2929 8.61113C84.9108 7.0289 84.5751 6.31111 81.7975 4.92225C79.6418 3.82007 74.9464 2 73.5575 2C72.264 2 71.8886 3.66682 70.3465 3.66682C68.8621 3.66682 67.7599 2.42236 66.3711 2.42236C65.0377 2.42236 64.1688 3.33118 63.4979 5.20029C63.4979 5.20029 61.6291 10.4714 61.3891 11.2358C61.351 11.3762 61.3346 11.5215 61.3404 11.6668C61.3404 13.7155 69.4072 20.4333 80.2156 20.4333L80.2153 20.4422ZM87.4444 17.9042C87.8287 19.7243 87.8287 19.9152 87.8287 20.1552C87.8287 23.2666 84.3312 24.9934 79.7332 24.9934C69.3422 24.9992 60.24 18.9109 60.24 14.8863C60.2392 14.3261 60.3534 13.7717 60.5756 13.2575C56.8377 13.4442 52 14.1109 52 18.3822C52 25.378 68.5755 34 81.6997 34C91.7619 34 94.2994 29.4491 94.2994 25.8558C94.2994 23.0287 91.855 19.82 87.4483 17.9042" fill="#EE0000"/>
<path fill-rule="evenodd" clip-rule="evenodd" d="M87.4467 17.904C87.8311 19.7241 87.831 19.915 87.831 20.155C87.831 23.266 84.3334 24.9928 79.7354 24.9928C69.3444 24.9996 60.2422 18.9106 60.2422 14.8861C60.2414 14.3259 60.3557 13.7715 60.5778 13.2573L61.391 11.2441C61.3537 11.3816 61.3373 11.5239 61.3422 11.6662C61.3422 13.7149 69.4091 20.4328 80.2176 20.4328C82.9976 20.4328 87.0196 19.8596 87.0196 16.5525C87.0278 16.2974 87.0047 16.0423 86.9507 15.7928L87.4467 17.904Z" fill="black"/>
</svg>

