<svg xmlns="http://www.w3.org/2000/svg" fill="none" viewBox="0 0 140 84"><rect width="100%" height="100%"/><g class="currentLayer"><path fill="#000" d="M60.299 28.9418h-7.9429c-.8055 0-1.6023-.1166-2.3906-.3498-1.5252-.4843-2.7333-1.5964-3.6244-3.3363-.8055-1.5784-1.2082-3.417-1.2082-5.5156 0-2.0269.3599-3.8206 1.0797-5.3812.7882-1.7219 1.9107-2.8968 3.3673-3.5246 1.131-.4843 2.2878-.7264 3.4702-.7264h7.1979v3.6053h-7.4806c-1.2168 0-2.0993.6906-2.6477 2.0717-.4284 1.0763-.6426 2.4843-.6426 4.2242 0 1.4709.2742 2.7175.8226 3.7399.634 1.2018 1.5251 1.8027 2.6733 1.8027l7.326-.027v3.4171zm13.228.0807h-6.272c-1.525 0-2.853-.6816-3.984-2.0448-1.114-1.3812-1.671-2.9686-1.671-4.7623 0-1.9552.609-3.6412 1.825-5.0583 1.234-1.4349 2.605-2.1524 4.113-2.1524h5.964v2.8789h-4.37c-.549 0-1.02.0538-1.414.1614-.377.0897-.728.278-1.054.565-.6.5381-.9 1.2646-.9 2.1794h7.712v2.9058H65.79c0 .4305.043.7982.129 1.1031.103.287.3.583.591.8879.291.287.634.4843 1.028.5919.411.0897.908.1346 1.491.1346h4.498v2.6098zm14.659-.0807h-3.573V19.767c0-.2332-.052-.4395-.154-.6189-.103-.1973-.249-.3856-.437-.565-.343-.3049-.737-.4574-1.183-.4574h-3.496v10.8161H75.77V15.0047h6.838c1.216 0 2.099.0717 2.647.2152.857.2153 1.543.6906 2.057 1.426.582.861.874 1.8027.874 2.8251v9.4708zm10.262-11.0313h-3.47v6.3228c0 .574.188 1.0493.565 1.426.428.3767.994.565 1.697.565h1.053v2.7175h-3.315c-.994 0-1.843-.3767-2.545-1.1301-.412-.4484-.677-.9417-.797-1.4798s-.18-1.1749-.18-1.9103v-6.5111h-2.262v-2.9058h2.262v-4.8968h3.522v4.8968h3.47v2.9058zm20.976 1.5874c0 3.6592-.968 6.278-2.904 7.8564-1.577 1.2736-3.873 1.9103-6.889 1.9103-3.342 0-5.81-.7354-7.403-2.2062-1.748-1.6144-2.622-4.2063-2.622-7.7757 0-2.9238.779-5.2018 2.339-6.8341 1.696-1.7757 4.233-2.6636 7.609-2.6636 3.718 0 6.34.852 7.865 2.556 1.337 1.5067 2.005 3.8924 2.005 7.1569zm-4.575-.1076c0-1.8475-.42-3.3184-1.26-4.4125-.942-1.2197-2.339-1.8296-4.19-1.8296-1.816 0-3.187.6547-4.113 1.9641-.771 1.0942-1.156 2.5202-1.156 4.278 0 2.0269.308 3.5246.925 4.4932.857 1.3453 2.442 2.0179 4.756 2.0179 1.953 0 3.324-.6547 4.112-1.9641.617-1.0224.926-2.5381.926-4.547zM140 23.1032c0 1.6502-.523 3.0404-1.568 4.1704-1.045 1.1301-2.373 1.6951-3.984 1.6951l-12.724-.0269v-3.3902h10.487c.703 0 1.294-.1704 1.774-.5112.548-.3946.823-.9327.823-1.6143 0-1.5964-1.08-2.3946-3.239-2.3946h-5.296c-1.525 0-2.861-.4933-4.01-1.4798-1.148-.9865-1.722-2.2421-1.722-3.7668 0-1.6861.557-3.0493 1.671-4.0896 1.131-1.0583 2.613-1.5874 4.447-1.5875h12.159v3.2287h-10.719c-.48 0-.969.2153-1.466.6457-.479.4126-.719.9059-.719 1.4799 0 .6457.231 1.1928.694 1.6412.479.4305 1.054.6457 1.722.6457h5.835c1.816 0 3.239.4933 4.267 1.4798 1.045.9686 1.568 2.2601 1.568 3.8744z"/><path fill="#932279" fill-rule="evenodd" d="M16.5623 18.2237l1.4223 1.414-1.4223 1.414H6.5516v4.7114L.4465 19.6377l6.1051-6.0222v4.6082h10.0107z" clip-rule="evenodd"/><path fill="#EFA724" fill-rule="evenodd" d="M21.0953 16.5621l-1.414 1.4223-1.414-1.4223V6.5513h-4.7114l6.1254-6.105 6.0222 6.105h-4.6082v10.0108z" clip-rule="evenodd"/><path fill="#262577" fill-rule="evenodd" d="M22.7569 21.0952l-1.4223-1.414 1.4223-1.414h10.0108v-4.7114l6.105 6.1254-6.105 6.0222v-4.6082H22.7569z" clip-rule="evenodd"/><path fill="#9CCD2A" fill-rule="evenodd" d="M18.2238 22.7569l1.414-1.4223 1.414 1.4223v10.0108h4.7114l-6.1254 6.1051-6.0222-6.1051h4.6082V22.7569z" clip-rule="evenodd"/><path fill="#9CCD2A" d="M6.1926 6.1925h12.1637v12.1638H6.1926V6.1925z"/><path fill="#fff" fill-rule="evenodd" d="M5.7582 5.758h13.0325v13.0326H5.7582V5.758zm.8688.8688v11.295h11.2949V6.6268H6.627z" clip-rule="evenodd"/><path fill="#932279" d="M20.9628 6.1925h12.1637v12.1638H20.9628V6.1925z"/><path fill="#fff" fill-rule="evenodd" d="M20.5284 5.758H33.561v13.0326H20.5284V5.758zm.8689.8688v11.295h11.2949V6.6268H21.3973z" clip-rule="evenodd"/><path fill="#EFA724" d="M20.9628 20.9627h12.1637v12.1638H20.9628V20.9627z"/><path fill="#fff" fill-rule="evenodd" d="M20.5284 20.5283H33.561v13.0326H20.5284V20.5283zm.8689.8688V32.692h11.2949V21.3971H21.3973z" clip-rule="evenodd"/><path fill="#262577" d="M6.1926 20.9627h12.1637v12.1638H6.1926V20.9627z"/><path fill="#fff" fill-rule="evenodd" d="M5.7582 20.5283h13.0325v13.0326H5.7582V20.5283zm.8688.8688V32.692h11.2949V21.3971H6.627z" clip-rule="evenodd"/><path fill="#fff" fill-rule="evenodd" d="M0 19.6596l9.2154-9.2155 9.2154 9.2155-9.2154 9.2154L0 19.6596zm1.2287 0l7.9867 7.9867 7.9867-7.9867-7.9867-7.9868-7.9867 7.9868zM10.4442 9.2154L19.6596 0l9.2153 9.2154-9.2153 9.2154-9.2154-9.2154zm1.2286 0l7.9868 7.9867 7.9867-7.9867-7.9867-7.9868-7.9868 7.9868zM30.1037 10.444l9.2154 9.2155-9.2154 9.2154-9.2154-9.2154 9.2154-9.2155zm-7.9867 9.2155l7.9867 7.9867 7.9867-7.9867-7.9867-7.9867-7.9867 7.9867zM10.4441 30.1037l9.2154-9.2155 9.2154 9.2155-9.2154 9.2154-9.2154-9.2154zm1.2287 0l7.9867 7.9867 7.9867-7.9867-7.9867-7.9868-7.9867 7.9868z" clip-rule="evenodd"/><path fill="#E00" fill-rule="evenodd" d="M29.0529 69.9896c2.8626 0 7.0041-.5902 7.0041-3.995a3.2123 3.2123 0 00-.0711-.7827l-1.7046-7.4046c-.3935-1.6292-.7391-2.3683-3.5992-3.7984-2.2197-1.1349-7.0545-3.009-8.4846-3.009-1.3319 0-1.7185 1.7163-3.3063 1.7163-1.5285 0-2.6634-1.2814-4.0935-1.2814-1.3729 0-2.2676.9358-2.9585 2.8604 0 0-1.9242 5.4276-2.1714 6.2147a1.4685 1.4685 0 00-.0501.4438c0 2.1095 8.3063 9.0267 19.4356 9.0267l-.0004.0092zm7.4438-2.6133c.3957 1.8741.3957 2.0707.3957 2.3178 0 3.2038-3.6014 4.9818-8.3359 4.9818-10.6995.006-20.0719-6.2631-20.0719-10.4071a4.2126 4.2126 0 01.3456-1.6772C4.9813 62.7838 0 63.4703 0 67.8684c0 7.2035 17.0676 16.0815 30.5814 16.0815 10.3609 0 12.9738-4.686 12.9738-8.386 0-2.911-2.517-6.215-7.0545-8.1876" clip-rule="evenodd"/><path fill="#000" fill-rule="evenodd" d="M36.4966 67.3767c.3958 1.8741.3957 2.0707.3957 2.3178 0 3.2034-3.6014 4.9814-8.3359 4.9814-10.6995.007-20.0719-6.2627-20.0719-10.4067a4.2143 4.2143 0 01.3456-1.6772l.8373-2.0729a1.466 1.466 0 00-.0502.4346c0 2.1095 8.3063 9.0268 19.4357 9.0268 2.8626 0 7.004-.5902 7.004-3.9954a3.2124 3.2124 0 00-.071-.7823l.5103 2.1735.0004.0004zm96.0434 4.7432c0 2.721 1.637 4.043 4.62 4.043.919-.022 1.832-.152 2.721-.384v-3.155c-.568.18-1.161.269-1.757.265-1.229 0-1.684-.384-1.684-1.5399v-4.8348H140v-3.2493h-3.56v-4.1187l-3.89.8421v3.2766h-2.584v3.2493h2.574v5.6057zm-12.127.073c0-.8417.844-1.2514 2.119-1.2514a9.8738 9.8738 0 012.311.2881v1.6363c-.745.407-1.583.614-2.432.602-1.25 0-1.998-.481-1.998-1.275zm1.19 4.018c1.373 0 2.48-.288 3.515-.986v.771h3.849v-8.1594c0-3.1027-2.092-4.8051-5.581-4.8051-1.95 0-3.877.4576-5.95 1.3959l1.396 2.8648c1.492-.6271 2.746-1.0115 3.851-1.0115 1.602 0 2.431.6246 2.431 1.9015v.6246a11.3179 11.3179 0 00-2.888-.3613c-3.275 0-5.247 1.3729-5.247 3.8285 0 2.238 1.78 3.944 4.62 3.944l.005-.007h-.001zm-21.157-.208h4.14v-6.6012h6.93v6.5942h4.151V59.1502h-4.135v6.4732h-6.931v-6.4732h-4.139l-.016 16.8527zM84.69 69.6191c0-1.8305 1.444-3.2265 3.345-3.2265a3.9406 3.9406 0 012.691.9885v4.4504a3.7423 3.7423 0 01-2.691 1.0204c-1.876 0-3.345-1.3956-3.345-3.224v-.0091.0003zm6.088 6.3868h3.852V58.3086l-3.89.842v4.7891a6.4755 6.4755 0 00-3.25-.8421c-3.704 0-6.617 2.8626-6.617 6.5215v.0802c0 3.5466 2.918 6.4636 6.464 6.4636h.034a5.7473 5.7473 0 003.417-1.105l-.01.948zm-17.671-9.7894c1.226 0 2.26.7941 2.67 2.0206h-5.308c.384-1.2653 1.347-2.0206 2.638-2.0206zm-6.561 3.4323c0 3.7071 3.032 6.5941 6.929 6.5941 2.142 0 3.707-.579 5.32-1.926l-2.576-2.288c-.602.626-1.492.963-2.55.963-1.357.038-2.606-.768-3.13-2.0207h9.073v-.968c0-4.0433-2.719-6.9539-6.425-6.9539l-.099-.0007c-3.586 0-6.537 2.9512-6.537 6.5372v.0557l-.005.0069v.0004zm-6.711-6.9608c1.373 0 2.142.8651 2.142 1.9015 0 1.0365-.769 1.9016-2.142 1.9016h-4.093V62.688h4.093zm-8.2372 13.3079h4.1392v-6.1366h3.151l3.178 6.1366h4.633l-3.706-6.7385c1.923-.782 3.184-2.6649 3.176-4.7411 0-3.0317-2.382-5.3657-5.95-5.3657h-8.6215v16.8453h.0003z" clip-rule="evenodd"/></g></svg>