<svg width="230" height="160" viewBox="0 0 230 160" fill="none" xmlns="http://www.w3.org/2000/svg">
<g filter="url(#filter0_d)">
<rect x="20" y="10" width="190" height="120" rx="4" fill="none"/>
<path d="M105.299 56.9419H97.3561C96.5506 56.9419 95.7538 56.8253 94.9655 56.5921C93.4403 56.1078 92.2322 54.9957 91.3411 53.2558C90.5356 51.6774 90.1329 49.8388 90.1329 47.7402C90.1329 45.7133 90.4928 43.9196 91.2126 42.359C92.0008 40.6371 93.1233 39.4622 94.5799 38.8344C95.7109 38.3501 96.8677 38.108 98.0501 38.108H105.248V41.7133H97.7674C96.5506 41.7133 95.6681 42.4039 95.1197 43.785C94.6913 44.8613 94.4771 46.2693 94.4771 48.0092C94.4771 49.4801 94.7513 50.7267 95.2997 51.7491C95.9337 52.9509 96.8248 53.5518 97.973 53.5518L105.299 53.5248V56.9419V56.9419ZM118.527 57.0226H112.255C110.73 57.0226 109.402 56.341 108.271 54.9778C107.157 53.5966 106.6 52.0092 106.6 50.2155C106.6 48.2603 107.209 46.5743 108.425 45.1572C109.659 43.7223 111.03 43.0048 112.538 43.0048H118.502V45.8837H114.132C113.583 45.8837 113.112 45.9375 112.718 46.0451C112.341 46.1348 111.99 46.3231 111.664 46.6101C111.064 47.1482 110.764 47.8747 110.764 48.7895H118.476V51.6953H110.79C110.79 52.1258 110.833 52.4935 110.919 52.7984C111.022 53.0854 111.219 53.3814 111.51 53.6863C111.801 53.9733 112.144 54.1706 112.538 54.2782C112.949 54.3679 113.446 54.4128 114.029 54.4128H118.527V57.0226ZM133.186 56.9419H129.613V47.7671C129.613 47.5339 129.561 47.3276 129.459 47.1482C129.356 46.9509 129.21 46.7626 129.022 46.5832C128.679 46.2783 128.285 46.1258 127.839 46.1258H124.343V56.9419H120.77V43.0048H127.608C128.824 43.0048 129.707 43.0765 130.255 43.22C131.112 43.4353 131.798 43.9106 132.312 44.646C132.894 45.507 133.186 46.4487 133.186 47.4711V56.9419ZM143.448 45.9106H139.978V52.2334C139.978 52.8074 140.166 53.2827 140.543 53.6594C140.971 54.0361 141.537 54.2244 142.24 54.2244H143.293V56.9419H139.978C138.984 56.9419 138.135 56.5652 137.433 55.8118C137.021 55.3634 136.756 54.8701 136.636 54.332C136.516 53.7939 136.456 53.1571 136.456 52.4217V45.9106H134.194V43.0048H136.456V38.108H139.978V43.0048H143.448V45.9106ZM164.424 47.498C164.424 51.1572 163.456 53.776 161.52 55.3544C159.943 56.628 157.647 57.2647 154.631 57.2647C151.289 57.2647 148.821 56.5293 147.228 55.0585C145.48 53.4441 144.606 50.8522 144.606 47.2828C144.606 44.359 145.385 42.081 146.945 40.4487C148.641 38.673 151.178 37.7851 154.554 37.7851C158.272 37.7851 160.894 38.6371 162.419 40.3411C163.756 41.8478 164.424 44.2335 164.424 47.498ZM159.849 47.3904C159.849 45.5429 159.429 44.072 158.589 42.9779C157.647 41.7582 156.25 41.1483 154.399 41.1483C152.583 41.1483 151.212 41.803 150.286 43.1124C149.515 44.2066 149.13 45.6326 149.13 47.3904C149.13 49.4173 149.438 50.915 150.055 51.8836C150.912 53.2289 152.497 53.9015 154.811 53.9015C156.764 53.9015 158.135 53.2468 158.923 51.9374C159.54 50.915 159.849 49.3993 159.849 47.3904ZM185 51.1033C185 52.7535 184.477 54.1437 183.432 55.2737C182.387 56.4038 181.059 56.9688 179.448 56.9688L166.724 56.9419V53.5517H177.211C177.914 53.5517 178.505 53.3813 178.985 53.0405C179.533 52.6459 179.808 52.1078 179.808 51.4262C179.808 49.8298 178.728 49.0316 176.569 49.0316H171.273C169.748 49.0316 168.412 48.5383 167.263 47.5518C166.115 46.5653 165.541 45.3097 165.541 43.785C165.541 42.0989 166.098 40.7357 167.212 39.6954C168.343 38.6371 169.825 38.108 171.659 38.1079H183.818V41.3366H173.099C172.619 41.3366 172.13 41.5519 171.633 41.9823C171.154 42.3949 170.914 42.8882 170.914 43.4622C170.914 44.1079 171.145 44.655 171.608 45.1034C172.087 45.5339 172.662 45.7491 173.33 45.7491H179.165C180.981 45.7491 182.404 46.2424 183.432 47.2289C184.477 48.1975 185 49.489 185 51.1033Z" fill="black"/>
<path fill-rule="evenodd" clip-rule="evenodd" d="M61.5623 46.2238L62.9846 47.6378L61.5623 49.0518H51.5516V53.7632L45.4465 47.6378L51.5516 41.6156V46.2238L61.5623 46.2238Z" fill="#932279"/>
<path fill-rule="evenodd" clip-rule="evenodd" d="M66.0953 44.5622L64.6813 45.9845L63.2673 44.5622V34.5514H58.5559L64.6813 28.4464L70.7035 34.5514H66.0953L66.0953 44.5622Z" fill="#EFA724"/>
<path fill-rule="evenodd" clip-rule="evenodd" d="M67.7569 49.0953L66.3346 47.6813L67.7569 46.2673H77.7677V41.5559L83.8727 47.6813L77.7677 53.7035V49.0953L67.7569 49.0953Z" fill="#262577"/>
<path fill-rule="evenodd" clip-rule="evenodd" d="M63.2238 50.757L64.6378 49.3347L66.0518 50.757V60.7678H70.7632L64.6378 66.8729L58.6156 60.7678H63.2238L63.2238 50.757Z" fill="#9CCD2A"/>
<path d="M51.1926 34.1926H63.3563V46.3564H51.1926V34.1926Z" fill="#9CCD2A"/>
<path fill-rule="evenodd" clip-rule="evenodd" d="M50.7582 33.7581H63.7907V46.7907H50.7582V33.7581ZM51.627 34.6269V45.9219H62.9219V34.6269H51.627Z" fill="white"/>
<path d="M65.9628 34.1926H78.1265V46.3564H65.9628V34.1926Z" fill="#932279"/>
<path fill-rule="evenodd" clip-rule="evenodd" d="M65.5284 33.7581H78.561V46.7907H65.5284V33.7581ZM66.3973 34.6269V45.9219H77.6922V34.6269H66.3973Z" fill="white"/>
<path d="M65.9628 48.9628H78.1265V61.1266H65.9628V48.9628Z" fill="#EFA724"/>
<path fill-rule="evenodd" clip-rule="evenodd" d="M65.5284 48.5284H78.561V61.561H65.5284V48.5284ZM66.3973 49.3972V60.6921H77.6922V49.3972H66.3973Z" fill="white"/>
<path d="M51.1926 48.9628H63.3563V61.1266H51.1926V48.9628Z" fill="#262577"/>
<path fill-rule="evenodd" clip-rule="evenodd" d="M50.7582 48.5284H63.7907V61.561H50.7582V48.5284ZM51.627 49.3972V60.6921H62.9219V49.3972H51.627Z" fill="white"/>
<path fill-rule="evenodd" clip-rule="evenodd" d="M45 47.6597L54.2154 38.4442L63.4308 47.6597L54.2154 56.8751L45 47.6597ZM46.2287 47.6597L54.2154 55.6464L62.2021 47.6597L54.2154 39.6729L46.2287 47.6597Z" fill="white"/>
<path fill-rule="evenodd" clip-rule="evenodd" d="M55.4442 37.2155L64.6596 28.0001L73.8749 37.2155L64.6596 46.4309L55.4442 37.2155ZM56.6728 37.2155L64.6596 45.2022L72.6463 37.2155L64.6596 29.2287L56.6728 37.2155Z" fill="white"/>
<path fill-rule="evenodd" clip-rule="evenodd" d="M75.1037 38.4441L84.3191 47.6596L75.1037 56.875L65.8883 47.6596L75.1037 38.4441ZM67.117 47.6596L75.1037 55.6463L83.0904 47.6596L75.1037 39.6729L67.117 47.6596Z" fill="white"/>
<path fill-rule="evenodd" clip-rule="evenodd" d="M55.4441 58.1038L64.6595 48.8883L73.8749 58.1038L64.6595 67.3192L55.4441 58.1038ZM56.6728 58.1038L64.6595 66.0905L72.6462 58.1038L64.6595 50.117L56.6728 58.1038Z" fill="white"/>
<path fill-rule="evenodd" clip-rule="evenodd" d="M74.0529 97.9897C76.9155 97.9897 81.057 97.3995 81.057 93.9947C81.0654 93.7322 81.0416 93.469 80.9859 93.212L79.2813 85.8074C78.8878 84.1782 78.5422 83.4391 75.6821 82.009C73.4624 80.8741 68.6276 79 67.1975 79C65.8656 79 65.479 80.7163 63.8912 80.7163C62.3627 80.7163 61.2278 79.4349 59.7977 79.4349C58.4248 79.4349 57.5301 80.3707 56.8392 82.2953C56.8392 82.2953 54.915 87.7229 54.6678 88.51C54.6287 88.6547 54.6115 88.8044 54.6177 88.9538C54.6177 91.0633 62.924 97.9805 74.0533 97.9805L74.0529 97.9897ZM81.4967 95.3764C81.8924 97.2505 81.8924 97.4471 81.8924 97.6942C81.8924 100.898 78.291 102.676 73.5565 102.676C62.857 102.682 53.4846 96.4129 53.4846 92.2689C53.4838 91.6919 53.6014 91.1211 53.8302 90.5917C49.9813 90.7839 45 91.4704 45 95.8685C45 103.072 62.0676 111.95 75.5814 111.95C85.9423 111.95 88.5552 107.264 88.5552 103.564C88.5552 100.653 86.0382 97.349 81.5007 95.3764" fill="#EE0000"/>
<path fill-rule="evenodd" clip-rule="evenodd" d="M81.4966 95.3768C81.8924 97.2509 81.8923 97.4475 81.8923 97.6946C81.8923 100.898 78.2909 102.676 73.5564 102.676C62.8569 102.683 53.4845 96.4133 53.4845 92.2693C53.4838 91.6923 53.6013 91.1215 53.8301 90.5921L54.6674 88.5192C54.629 88.6609 54.6121 88.8073 54.6172 88.9538C54.6172 91.0633 62.9235 97.9806 74.0529 97.9806C76.9155 97.9806 81.0569 97.3904 81.0569 93.9852C81.0653 93.7227 81.0415 93.4595 80.9859 93.2029L81.4962 95.3764L81.4966 95.3768ZM177.54 100.12C177.54 102.841 179.177 104.163 182.16 104.163C183.079 104.141 183.992 104.011 184.881 103.779V100.624C184.313 100.804 183.72 100.893 183.124 100.889C181.895 100.889 181.44 100.505 181.44 99.3491V94.5143H185V91.265H181.44V87.1463L177.55 87.9884V91.265H174.966V94.5143H177.54V100.12V100.12ZM165.413 100.193C165.413 99.3513 166.257 98.9416 167.532 98.9416C168.311 98.946 169.087 99.043 169.843 99.2297V100.866C169.098 101.273 168.26 101.48 167.411 101.468C166.161 101.468 165.413 100.987 165.413 100.193ZM166.603 104.211C167.976 104.211 169.083 103.923 170.118 103.225V103.996H173.967V95.8366C173.967 92.7339 171.875 91.0315 168.386 91.0315C166.436 91.0315 164.509 91.4891 162.436 92.4274L163.832 95.2922C165.324 94.6651 166.578 94.2807 167.683 94.2807C169.285 94.2807 170.114 94.9053 170.114 96.1822V96.8068C169.171 96.5626 168.2 96.4411 167.226 96.4455C163.951 96.4455 161.979 97.8184 161.979 100.274C161.979 102.512 163.759 104.218 166.599 104.218L166.604 104.211H166.603ZM145.446 104.003H149.586V97.4018H156.516V103.996H160.667V87.1503H156.532V93.6235H149.601V87.1503H145.462L145.446 104.003L145.446 104.003ZM129.69 97.6192C129.69 95.7887 131.134 94.3927 133.035 94.3927C134.024 94.3726 134.985 94.7255 135.726 95.3812V99.8316C135.001 100.517 134.032 100.884 133.035 100.852C131.159 100.852 129.69 99.4564 129.69 97.628V97.6189V97.6192ZM135.778 104.006H139.63V86.3087L135.74 87.1507V91.9398C134.75 91.3785 133.629 91.0878 132.49 91.0977C128.786 91.0977 125.873 93.9603 125.873 97.6192L125.873 97.6994C125.873 101.246 128.791 104.163 132.337 104.163H132.371C133.599 104.169 134.796 103.782 135.788 103.058L135.778 104.006ZM118.107 94.2166C119.333 94.2166 120.367 95.0107 120.777 96.2372H115.469C115.853 94.9719 116.816 94.2166 118.107 94.2166ZM111.546 97.6489C111.546 101.356 114.578 104.243 118.475 104.243C120.617 104.243 122.182 103.664 123.795 102.317L121.219 100.029C120.617 100.655 119.727 100.992 118.669 100.992C117.312 101.03 116.063 100.224 115.539 98.9713H124.612V98.0033C124.612 93.96 121.893 91.0494 118.187 91.0494L118.088 91.0487C114.502 91.0487 111.551 93.9999 111.551 97.5859L111.551 97.6416L111.546 97.6485V97.6489ZM104.835 90.6881C106.208 90.6881 106.977 91.5532 106.977 92.5896C106.977 93.6261 106.208 94.4912 104.835 94.4912H100.742V90.6881H104.835ZM96.5978 103.996H100.737V97.8594H103.888L107.066 103.996H111.699L107.993 97.2575C109.916 96.4755 111.177 94.5926 111.169 92.5164C111.169 89.4847 108.787 87.1507 105.219 87.1507H96.5975V103.996L96.5978 103.996Z" fill="black"/>
</g>
<defs>
<filter id="filter0_d" x="0" y="0" width="230" height="160" filterUnits="userSpaceOnUse" color-interpolation-filters="sRGB">
<feFlood flood-opacity="0" result="BackgroundImageFix"/>
<feColorMatrix in="SourceAlpha" type="matrix" values="0 0 0 0 0 0 0 0 0 0 0 0 0 0 0 0 0 0 127 0"/>
<feOffset dy="10"/>
<feGaussianBlur stdDeviation="10"/>
<feColorMatrix type="matrix" values="0 0 0 0 0 0 0 0 0 0 0 0 0 0 0 0 0 0 0.15 0"/>
<feBlend mode="normal" in2="BackgroundImageFix" result="effect1_dropShadow"/>
<feBlend mode="normal" in="SourceGraphic" in2="effect1_dropShadow" result="shape"/>
</filter>
</defs>
</svg>
