<svg xmlns="http://www.w3.org/2000/svg" width="150" height="82" fill="none"><rect width="100%" height="100%"/><g class="currentLayer"><path d="M15.329 70.718c0-1.224.282-2.322.846-3.294a6.105 6.105 0 012.322-2.268 6.475 6.475 0 013.222-.828c1.332 0 2.514.33 3.546.99 1.044.648 1.8 1.572 2.268 2.772h-2.466c-.324-.66-.774-1.152-1.35-1.476-.576-.324-1.242-.486-1.998-.486-.828 0-1.566.186-2.214.558a3.942 3.942 0 00-1.53 1.602c-.36.696-.54 1.506-.54 2.43 0 .924.18 1.734.54 2.43a4.067 4.067 0 001.53 1.62c.648.372 1.386.558 2.214.558.756 0 1.422-.162 1.998-.486.576-.324 1.026-.816 1.35-1.476h2.466c-.468 1.2-1.224 2.124-2.268 2.772-1.032.648-2.214.972-3.546.972-1.176 0-2.25-.27-3.222-.81a6.24 6.24 0 01-2.322-2.286c-.564-.972-.846-2.07-.846-3.294zm16.658-7.038V77h-2.052V63.68h2.052zm11.676 3.402V77h-2.052v-1.17c-.324.408-.75.732-1.278.972a4.051 4.051 0 01-1.656.342c-.78 0-1.482-.162-2.106-.486a3.582 3.582 0 01-1.458-1.44c-.348-.636-.522-1.404-.522-2.304v-5.832h2.034v5.526c0 .888.222 1.572.666 2.052.444.468 1.05.702 1.818.702s1.374-.234 1.818-.702c.456-.48.684-1.164.684-2.052v-5.526h2.052zm6.307 10.08c-.78 0-1.482-.138-2.106-.414-.612-.288-1.098-.672-1.458-1.152a2.915 2.915 0 01-.576-1.638h2.124c.036.42.234.774.594 1.062.372.276.834.414 1.386.414.576 0 1.02-.108 1.332-.324.324-.228.486-.516.486-.864 0-.372-.18-.648-.54-.828-.348-.18-.906-.378-1.674-.594a16.244 16.244 0 01-1.818-.594 3.263 3.263 0 01-1.224-.882c-.336-.396-.504-.918-.504-1.566 0-.528.156-1.008.468-1.44.312-.444.756-.792 1.332-1.044.588-.252 1.26-.378 2.016-.378 1.128 0 2.034.288 2.718.864.696.564 1.068 1.338 1.116 2.322H51.59c-.036-.444-.216-.798-.54-1.062-.324-.264-.762-.396-1.314-.396-.54 0-.954.102-1.242.306-.288.204-.432.474-.432.81 0 .264.096.486.288.666.192.18.426.324.702.432.276.096.684.222 1.224.378.72.192 1.308.39 1.764.594.468.192.87.48 1.206.864.336.384.51.894.522 1.53 0 .564-.156 1.068-.468 1.512-.312.444-.756.792-1.332 1.044-.564.252-1.23.378-1.998.378zm8.41-8.406v5.49c0 .372.084.642.252.81.18.156.48.234.9.234h1.26V77h-1.62c-.924 0-1.632-.216-2.124-.648-.492-.432-.738-1.134-.738-2.106v-5.49h-1.17v-1.674h1.17v-2.466h2.07v2.466h2.412v1.674H58.38zm13.393 3.042c0 .372-.024.708-.072 1.008h-7.578c.06.792.354 1.428.882 1.908s1.176.72 1.944.72c1.104 0 1.884-.462 2.34-1.386h2.214a4.498 4.498 0 01-1.638 2.25c-.78.576-1.752.864-2.916.864-.948 0-1.8-.21-2.556-.63a4.708 4.708 0 01-1.764-1.8c-.42-.78-.63-1.68-.63-2.7 0-1.02.204-1.914.612-2.682a4.428 4.428 0 011.746-1.8c.756-.42 1.62-.63 2.592-.63.936 0 1.77.204 2.502.612a4.31 4.31 0 011.71 1.728c.408.732.612 1.578.612 2.538zm-2.142-.648c-.012-.756-.282-1.362-.81-1.818-.528-.456-1.182-.684-1.962-.684-.708 0-1.314.228-1.818.684-.504.444-.804 1.05-.9 1.818h5.49zm6.213-2.628c.3-.504.696-.894 1.188-1.17.504-.288 1.098-.432 1.782-.432v2.124h-.522c-.804 0-1.416.204-1.836.612-.408.408-.612 1.116-.612 2.124V77h-2.052v-9.918h2.052v1.44zm13.132 8.64c-.78 0-1.482-.138-2.106-.414-.612-.288-1.098-.672-1.458-1.152a2.915 2.915 0 01-.576-1.638h2.124c.036.42.234.774.594 1.062.372.276.834.414 1.386.414.576 0 1.02-.108 1.332-.324.324-.228.486-.516.486-.864 0-.372-.18-.648-.54-.828-.348-.18-.906-.378-1.674-.594a16.244 16.244 0 01-1.818-.594 3.263 3.263 0 01-1.224-.882c-.336-.396-.504-.918-.504-1.566 0-.528.156-1.008.468-1.44.312-.444.756-.792 1.332-1.044.588-.252 1.26-.378 2.016-.378 1.128 0 2.034.288 2.718.864.696.564 1.068 1.338 1.116 2.322h-2.052c-.036-.444-.216-.798-.54-1.062-.324-.264-.762-.396-1.314-.396-.54 0-.954.102-1.242.306-.288.204-.432.474-.432.81 0 .264.096.486.288.666.192.18.426.324.702.432.276.096.684.222 1.224.378.72.192 1.308.39 1.764.594.468.192.87.48 1.206.864.336.384.51.894.522 1.53 0 .564-.156 1.068-.468 1.512-.312.444-.756.792-1.332 1.044-.564.252-1.23.378-1.998.378zm15.106-5.364c0 .372-.024.708-.072 1.008h-7.578c.06.792.354 1.428.882 1.908s1.176.72 1.944.72c1.104 0 1.884-.462 2.34-1.386h2.214a4.498 4.498 0 01-1.638 2.25c-.78.576-1.752.864-2.916.864-.948 0-1.8-.21-2.556-.63a4.708 4.708 0 01-1.764-1.8c-.42-.78-.63-1.68-.63-2.7 0-1.02.204-1.914.612-2.682a4.428 4.428 0 011.746-1.8c.756-.42 1.62-.63 2.592-.63.936 0 1.77.204 2.502.612a4.31 4.31 0 011.71 1.728c.408.732.612 1.578.612 2.538zm-2.142-.648c-.012-.756-.282-1.362-.81-1.818-.528-.456-1.182-.684-1.962-.684-.708 0-1.314.228-1.818.684-.504.444-.804 1.05-.9 1.818h5.49zm6.555-2.394v5.49c0 .372.084.642.252.81.18.156.48.234.9.234h1.26V77h-1.62c-.924 0-1.632-.216-2.124-.648-.492-.432-.738-1.134-.738-2.106v-5.49h-1.17v-1.674h1.17v-2.466h2.07v2.466h2.412v1.674h-2.412zm13.285-1.674V77h-2.052v-1.17c-.324.408-.75.732-1.278.972a4.051 4.051 0 01-1.656.342c-.78 0-1.482-.162-2.106-.486a3.582 3.582 0 01-1.458-1.44c-.348-.636-.522-1.404-.522-2.304v-5.832h2.034v5.526c0 .888.222 1.572.666 2.052.444.468 1.05.702 1.818.702s1.374-.234 1.818-.702c.456-.48.684-1.164.684-2.052v-5.526h2.052zm4.76 1.458c.348-.456.822-.84 1.422-1.152.6-.312 1.278-.468 2.034-.468.864 0 1.65.216 2.358.648a4.407 4.407 0 011.692 1.782c.408.768.612 1.65.612 2.646s-.204 1.89-.612 2.682a4.63 4.63 0 01-1.692 1.836 4.439 4.439 0 01-2.358.648c-.756 0-1.428-.15-2.016-.45a4.624 4.624 0 01-1.44-1.152v6.156h-2.052V67.082h2.052v1.458zm6.03 3.456c0-.684-.144-1.272-.432-1.764a2.748 2.748 0 00-1.116-1.134 2.896 2.896 0 00-1.476-.396 2.96 2.96 0 00-1.476.396 3.033 3.033 0 00-1.116 1.152c-.276.504-.414 1.098-.414 1.782 0 .684.138 1.284.414 1.8.288.504.66.888 1.116 1.152.468.264.96.396 1.476.396.528 0 1.02-.132 1.476-.396.468-.276.84-.672 1.116-1.188.288-.516.432-1.116.432-1.8z" fill="#212529"/><path d="M5.38 35.294c-.28-.238-.652-.316-.943-.535-.065-.258-.31-.254-.493-.32-.505-.183-.97-.04-1.228.352-.226.344-.138.807.218 1.204.22.245.505.41.74.636.296.285.35.52.2.845-.149.323-.367.437-.772.396-.71-.072-1.174-.516-1.572-1.052-1.307-1.765.22-3.853 1.643-4.048.83-.114 1.544.166 2.24.552.756.42 1.435.967 2.211 1.353 1.089.54 2.217.786 3.428.487 1.153-.285 1.7-.97 1.71-2.151.007-.996-.226-1.956-.41-2.923-.16-.833.061-1.536.66-2.124.718-.705 1.542-1.17 2.593-1.12a.177.177 0 00-.088-.038c-1.798-.235-3.723 1.53-3.609 3.325.018.271-.07.397-.293.537-1.104.69-2.341.96-3.593 1.192-1.654.308-3.22.093-4.65-.832-.769-.497-1.286-1.175-1.34-2.128-.089-1.562.247-3.023 1.047-4.374.187-.315.362-.639.531-.964.045-.086.152-.191.009-.291-.047-.16.168-.23.131-.386a.285.285 0 01.222.158c.21.375.529.661.801.985-.424.764-.814 1.54-.972 2.411-.13.714-.084 1.401.318 2.031.63.991 1.624 1.36 2.711 1.466 1.869.18 3.507-.383 4.898-1.666 1.138-1.051 1.388-2.41.67-3.764-.322-.608-.742-1.144-1.164-1.681-.667-.85-1.372-1.67-1.867-2.646-1.021-2.015-.954-4.033-.067-6.065.014.015.036.029.04.047.196.816.696 1.113 1.487.818 1.174-.439 1.944-1.298 2.291-2.487.2-.68.057-1.343-.672-1.607-.051-.019-.085-.086-.127-.131.58-.394 1.242-.62 1.906-.788a10.125 10.125 0 014.605-.1 9.878 9.878 0 014.86 2.54c.829.786 1.505 1.669 1.798 2.814.404 1.573.28 3.077-.423 4.543-.65 1.356-1.648 2.407-2.824 3.313-.937.721-1.883 1.435-2.506 2.477-.258.433-.49.875-.644 1.428.248-.168.277-.41.427-.562.222.042.322-.17.495-.237.99-.383 1.986-.35 2.989-.072-.304.298-.62.585-.909.897-.238.255-.574.416-.727.752l-.001.001c-.024-.036-.05-.038-.079-.006l-.24.213c-.316.227-1.032.33-1.298.143.127.22.05.33-.097.446-.27.214-.43.505-.52.842-.182.693.27 1.16.829 1.408.49.22.8.027 1.104-.627.087-.188.127-.046.184.014-.02.078.022.142.049.21.206.509.318 1.03.257 1.587-.036.324-.134.63-.197.946a.66.66 0 01-.094-.002c-2.056-.33-3.417-1.903-3.448-3.978-.002-.118.054-.261-.093-.367l-.075.857.005-.007c-.113.056-.172.156-.23.263-.29.535-.424 1.115-.497 1.714-.026.284-.138.483-.45.552-.199.043-.28.248-.363.413-.241.478-.069 1.02.462 1.193.313.103.542-.095.812-.144l.164.23c.568.802 1.315 1.335 2.302 1.463.736.095 1.437-.075 2.1-.398a3.355 3.355 0 001.348-1.139c.562-.832.587-1.701.076-2.544-.492-.81-1.18-1.41-2.153-1.6-.154-.03-.325-.147-.433.079.035.064.067.13.095.197.195.555-.166 1.08-.69 1.009-.72-.099-1.093-.835-.758-1.479.312-.599.84-.787 1.465-.796 1.1-.015 2.03.454 2.905 1.057 1.846 1.274 2.12 3.555 1.254 5.196-.509.963-1.375 1.502-2.354 1.898a.582.582 0 01-.506-.008c-.699-.314-1.386-.655-2.109-.913a.906.906 0 00-.49-.05c-.613.114-1.186.353-1.773.547-.19.062-.323.036-.49-.08-.908-.628-1.49-1.518-1.999-2.465-.255-.475-.422-.98-.431-1.528.434-.014.791-.24 1.091-.503.798-.703.571-1.761-.174-2.215-.2-.121-.434-.053-.607-.202.092-.267.292-.47.44-.717-.359.092-.511.185-.61.366l.005-.005c-.044-.077-.091-.018-.125.005-.545.383-.92.88-1.035 1.551-.098.563.014 1.105.145 1.647.244 1.005.535 1.998.586 3.043.048 1.006-.398 1.747-1.199 2.269-1.29.84-2.668.798-4.066.282.162-.047.182-.169.194-.317.056-.699-.672-1.707-1.57-1.868-.66-.119-1.252.13-1.218.871-.308-.224-.614-.452-.927-.67-.08-.056-.137-.179-.27-.122l.001.001c.048-.09-.007-.081-.066-.068l.004.005c.03-.074-.01-.08-.067-.068l.005.005c.019-.06-.03-.078-.066-.104zm8.139-13.865c-.04.03-.081.058-.122.087-.53.522-.613 1.157-.424 1.835.172.621.88.972 1.708.854.675-.096 1.175-.46 1.403-1.116.21-.605.104-1.165-.368-1.622-.488-.472-1.055-.577-1.686-.328a1.214 1.214 0 00-.511.29zm4.049.207c.008.073-.013.108-.1.106-.204-.005-.373.094-.536.204-.645.333-.885 1.51-.444 2.172.382.575 1.27.785 2.015.477.712-.295 1.15-1.004 1.065-1.724-.077-.646-.628-1.22-1.294-1.334-.241-.041-.488-.06-.706.099zm-2.938-9.088c.846 0 1.408-.348 1.86-.89.213-.258.278-.561.106-.88-.167-.31-.442-.434-.776-.45-.749-.033-1.26.357-1.682.928-.21.283-.315.576-.181.906a.592.592 0 00.673.386z" fill="#A7B9CC"/><path d="M9.3 14.116c-.887 2.032-.954 4.05.067 6.065.495.976 1.2 1.795 1.867 2.646.422.537.842 1.073 1.164 1.68.718 1.356.468 2.714-.67 3.765-1.391 1.284-3.03 1.847-4.898 1.666-1.087-.105-2.08-.475-2.711-1.466-.402-.63-.447-1.317-.318-2.03.158-.872.548-1.648.972-2.412a7.64 7.64 0 00.717-1.142c.38-.714.29-1.416-.075-2.109-.085-.16-.176-.167-.327-.093-.273.133-.561.236-.834.37-.373.185-.693.111-1.029-.113-.46-.306-.924-.614-1.438-.831-.382-.23-.626-.536-.628-1.012a13.489 13.489 0 00-.072-1.193c-.014-.152.08-.397-.1-.436-.167-.035-.289.182-.38.335a1.858 1.858 0 00-.174.401c-.128.422-.114.851-.042 1.28.075.451.294.8.733.989.338.141.687.255 1.044.339.146.053.29.114.429.184.62.353 1.21.734 1.145 1.584-.365-.795-1.05-1.172-1.842-1.407a6.123 6.123 0 01-.998-.368c-.573-.286-.84-.77-.882-1.384-.046-.644-.05-1.286.415-1.816.144-.165.285-.339.53-.351a.113.113 0 00.122-.09.113.113 0 00-.004-.056c-.034-.234.123-.294.299-.367 1-.416 2.046-.688 3.075-1.016a1.58 1.58 0 011.02.033c.623.22 1.249.433 1.852.704.264.118.39.251.35.592-.07.613-.055 1.237-.056 1.856-.001.257-.07.442-.306.567-.574.304-1.14.62-1.712.928-.145.078-.243.108-.107.325.473.758.516 1.554.102 2.363-.38.745-.852 1.444-1.15 2.232a4.453 4.453 0 00-.304 1.875c.058.905.737 1.71 1.703 2.01 1.45.449 2.855.298 4.206-.37a6.655 6.655 0 001.955-1.457c.563-.61.704-1.319.429-2.097-.289-.818-.846-1.465-1.385-2.122-.676-.825-1.436-1.579-2-2.499-.814-1.326-1.103-2.754-.949-4.286.187-1.856.91-3.474 2.203-4.818 1.106-1.15 2.487-1.83 4.025-2.178 1.881-.43 3.843-.35 5.682.234.04.013.081.022.123.03.007.002.017-.008.051-.026-.356-.815-.474-1.654-.101-2.5.386-.876 1.156-1.218 2.093-1.404-.307-.21-.567-.387-.828-.563a1.348 1.348 0 00-.16-.098c-.745-.365-1.146-.879-.938-1.778.125-.536.15-1.096.277-1.639.11-.47.388-.735.84-.819.967-.18 1.934-.373 2.927-.366.294.006.58.089.832.24.133.076.226.104.338-.045.544-.72 1.915-.865 2.647-.328.871.64 1.417 1.515 1.55 2.601.096.79-.27 1.423-.799 1.971-.18.186-.333.364-.33.645.003.185-.116.297-.292.366-1.02.396-2.084.632-3.15.857-.339.071-.666.266-1.037.056-.13-.073-.24.127-.357.201-.649.418-1.014.992-.929 1.794l-.077.003c-.281-1.01.275-1.646 1.024-2.209-.39-.221-.754-.425-1.115-.635a.306.306 0 00-.233-.038c-.896.165-1.777.997-1.953 1.886-.114.58-.09 1.178.073 1.746a.466.466 0 00.297.33c.375.163.744.342 1.101.54 1.752.97 3.175 2.262 4.01 4.124.27.772.414 1.583.424 2.401.009 1.507-.475 2.86-1.296 4.116-.455.697-1.014 1.288-1.632 1.827-.825.721-1.705 1.376-2.571 2.048-.516.41-.958.907-1.305 1.467-.15.151-.18.394-.428.562.154-.553.386-.994.644-1.427.623-1.043 1.569-1.757 2.506-2.478 1.176-.906 2.174-1.957 2.825-3.313.703-1.466.826-2.97.422-4.543-.293-1.145-.97-2.028-1.797-2.815a9.878 9.878 0 00-4.861-2.54 10.126 10.126 0 00-4.605.101c-.663.169-1.325.394-1.906.788-1.404.762-2.389 1.902-3.019 3.36zM20.53 3.94c-.058.192.075.323.243.454.38.298.819.5 1.226.752.612.378 1.24.729 1.869 1.079.352.196.369.185.39-.238.03-.66.105-1.318.228-1.967.06-.298-.014-.438-.249-.58a275.689 275.689 0 01-3.177-1.954c-.205-.128-.225-.018-.253.132-.14.754-.205 1.517-.276 2.322zm8.069-.516c.05-.352.004-.432-.27-.372-1.019.233-2.05.41-3.09.53-.26.027-.442.135-.47.438-.073.802-.168 1.602-.244 2.404-.015.168.094.17.234.134.303-.08.611-.143.919-.207.799-.167 1.593-.35 2.366-.616.148-.052.182-.137.201-.276a8.23 8.23 0 01.176-1.018c.099-.376.065-.771.178-1.017zm-7.495-2.287c.039.038.08.075.123.108 1.062.713 2.159 1.37 3.26 2.02a.842.842 0 00.606.097c.588-.109 1.18-.199 1.769-.302.434-.076.867-.16 1.343-.248a1.234 1.234 0 00-.12-.098c-.923-.514-1.864-.998-2.764-1.549-.564-.345-1.142-.438-1.773-.36-.552.067-1.105.132-1.655.213-.255.037-.523-.007-.789.119zM3.88 20.797c.277-.053.467-.209.682-.308.845-.39 1.659-.842 2.465-1.308a.422.422 0 00.237-.432 16.313 16.313 0 010-1.418c.01-.284-.09-.287-.311-.196-.93.381-1.834.824-2.784 1.156-.177.062-.295.171-.292.392.01.694.003 1.388.003 2.114zm-2.376-3.812c.734.386 1.443.749 2.14 1.133a.404.404 0 00.404.017c.772-.328 1.55-.642 2.324-.97.245-.103.51-.168.78-.369-.67-.253-1.286-.502-1.915-.718-.264-.09-.557-.133-.837-.05a38.82 38.82 0 00-2.896.957zm2.168 3.874c.038-.621-.039-1.191.044-1.754.085-.576.041-.673-.501-.895a1.193 1.193 0 01-.13-.084c-.558-.32-1.167-.538-1.76-.948.047.736.16 1.388.176 2.046.006.246.14.407.369.537.598.34 1.212.656 1.802 1.098zM26.717.272c-.315-.026-.695.098-1.038.352-.194.144-.218.245.026.376.943.503 1.874 1.027 2.818 1.528.226.12.333.289.326.524-.008.314-.038.628-.074.94-.008.07-.065.154.008.192.085.044.123-.051.154-.115.067-.13.128-.264.181-.4.338-.931-.089-1.697-.548-2.446-.394-.643-.99-.943-1.853-.951z" fill="#121316"/><path d="M21.223 29.444c.974.19 1.66.79 2.153 1.6.511.843.486 1.712-.076 2.544-.34.494-.805.887-1.348 1.14-.663.322-1.364.492-2.1.397-.987-.128-1.734-.66-2.302-1.463l-.164-.23a3.632 3.632 0 01-.461-2.014c.073-.599.207-1.179.497-1.714.058-.107.117-.207.23-.262-.066.142-.136.282-.195.426-.265.64-.4 1.305-.3 1.997.24 1.679 1.963 3.3 4.023 2.6.487-.165.94-.396 1.326-.812-.91-.074-1.756-.206-2.557-.545-.868-.368-1.542-.93-1.897-1.837-.23-.59-.286-1.212-.405-1.823l.075-.857c.147.106.09.249.093.367.03 2.075 1.392 3.648 3.448 3.978a.675.675 0 00.094.002c.474.154.969.12 1.455.163.108.01.169-.058.213-.152a2.108 2.108 0 00.01-1.845.211.211 0 00-.153-.14c-.604-.129-1.12-.447-1.634-.77-.057-.059-.097-.201-.184-.012-.303.653-.614.845-1.104.626-.559-.249-1.011-.715-.828-1.408.089-.337.248-.628.519-.842.148-.116.224-.226.097-.446.266.187.982.084 1.298-.143.012.08.005.181.139.134 1.945.216 3.442 1.113 4.36 2.88.087.168.172.247.374.238.926-.044 1.852-.096 2.688-.55.676-.367 1.217-.877 1.54-1.655-.545.212-1.051.398-1.548.605-.376.156-.703.182-1.1-.025-.682-.357-1.42-.602-2.114-.946-.445-.22-.686-.528-.674-1.025.013-.567-.094-1.128-.063-1.698.015-.285.11-.465.402-.49.218-.02.306-.135.39-.332.585-1.359 2.158-2.193 3.735-2.014 1.053.12 1.911.597 2.61 1.377.194.217.468.222.713.293.542.156.539.144.541.715.003.827-.067 1.65-.015 2.482a4.95 4.95 0 01-.7 2.911c-.487.805-1.214 1.343-2.04 1.755a9.453 9.453 0 01-4.24 1.005c-.113 0-.234-.053-.292.139-.413 1.346-1.584 2.554-3.067 3.006.384.2.727.381 1.071.559.093.048.193.083.287.13.88.438.716.256.697 1.2-.008.42-.062.839-.081 1.258a.365.365 0 01-.2.327c-.908.546-1.813 1.099-2.725 1.64-.235.139-.471.164-.733-.011-1.126-.752-2.278-1.463-3.386-2.244-.555-.392-.817-.898-.86-1.544-.024-.355-.095-.706-.065-1.067.024-.296.145-.481.425-.572a2.46 2.46 0 00.284-.141c-.692-.266-1.142-.769-1.65-1.196a4.234 4.234 0 01-.334-.33c-.05-.05-.095-.134-.166-.113-.105.032-.065.14-.06.216.036.405 0 .813-.106 1.205-.238.882-.852 1.455-1.609 1.868-1.342.731-2.725.735-4.148.182-1.185-.46-2.18-1.189-3.113-2.024-.217-.195-.465-.358-.644-.594.133-.057.19.066.27.122.313.218.619.446.927.67.786.595 1.63 1.072 2.594 1.314 1.398.516 2.775.558 4.066-.282.801-.522 1.247-1.263 1.199-2.269-.05-1.045-.342-2.038-.586-3.043-.131-.542-.243-1.083-.145-1.647.116-.672.49-1.168 1.035-1.551.034-.023.08-.082.124-.005a.342.342 0 01-.06.1c-.844.666-.96 1.543-.732 2.52.07-.47.182-.932.338-1.381.164-.458.397-.889.692-1.276-.11-.074-.157.067-.243.042.1-.18.252-.274.61-.366-.147.247-.347.45-.439.717-.431.939-.462 1.92-.31 2.92.009.547.176 1.053.431 1.528.51.947 1.09 1.837 2 2.466.166.115.3.141.489.079.587-.194 1.16-.433 1.773-.547a.906.906 0 01.49.05c.723.258 1.41.6 2.109.913a.584.584 0 00.506.008c.979-.396 1.845-.935 2.354-1.898.867-1.641.592-3.922-1.254-5.196-.874-.603-1.804-1.072-2.905-1.057-.624.01-1.153.197-1.465.796-.335.644.037 1.38.758 1.479.524.072.885-.454.69-1.009a1.832 1.832 0 00-.095-.197c.099-.027.15.046.216.097.283.233.59.436.913.608.239.119.466.277.812.34-.22-.287-.49-.532-.797-.723-.233-.141-.474-.268-.71-.4zm11.279-1.387a3.508 3.508 0 00-.027-.7c-.029-.26-.07-.52-.116-.778-.407-2.278-2.566-3.686-4.812-3.124-.74.185-1.34.597-1.741 1.26-.09.149-.232.348-.135.49.08.118.29-.015.432-.054.423-.116.882-.119 1.268-.35a1.3 1.3 0 01.907-.18c.84.14 1.517.564 1.986 1.272 1.297 1.954.294 4.65-1.998 5.426-.706.238-1.432.315-2.168.313-.251 0-.297.077-.247.305.078.382.094.773.048 1.16-.037.37-.03.367.325.317 1.11-.157 2.166-.498 3.193-.935.6-.255 1.174-.566 1.665-.997 1.004-.882 1.375-2.045 1.42-3.425zm-8.467 9.768c-.749-.34-1.432-.66-2.122-.964a18.463 18.463 0 01-2.004-1.049.275.275 0 00-.242-.023l-2.421.792c-.167.055-.187.12-.024.215.335.196.66.412 1 .596 1.035.558 2.125 1.009 3.122 1.638.108.068.219.085.325.017a15.735 15.735 0 012.366-1.222zM21.42 40.53h-.002c0-.241-.023-.486.005-.724.037-.307-.09-.475-.351-.619-1.317-.723-2.694-1.34-3.926-2.212-.202-.142-.235-.036-.224.137.02.325.077.65.068.973-.015.52.175.862.63 1.155 1.194.767 2.37 1.562 3.582 2.303.192.118.225.06.22-.13-.007-.294-.002-.589-.002-.883zm6.582-11.158c-.067-.777-.027-1.526-.02-2.275.002-.129-.079-.14-.178-.168-.873-.253-1.742-.52-2.566-.908-.268-.126-.286-.05-.288.192-.004.484.201.95.125 1.436-.053.337.128.509.388.635.813.393 1.642.746 2.54 1.088zM21.67 40.397h.003c0 .305.005.61-.002.914-.004.188.062.234.218.13.172-.116.339-.24.512-.355a20.23 20.23 0 011.596-.93c.129-.07.327-.13.317-.318-.028-.54.143-1.057.143-1.594 0-.294-.12-.29-.32-.192-.742.367-1.481.74-2.226 1.102-.189.092-.255.22-.245.424.015.272.004.546.004.82zm6.464-12.265h-.002c0 .325.015.652-.005.976-.017.279.068.326.318.223.56-.23 1.127-.447 1.694-.66a.36.36 0 00.237-.267c.192-.67.101-1.32-.136-1.96-.054-.146-.137-.183-.291-.126-.539.2-1.08.395-1.626.573-.15.05-.196.116-.192.264.008.325.003.651.003.977zm-3.064-2.51c.176.192.384.27.59.335.652.203 1.306.392 1.923.698.155.077.339.145.544.067a37.275 37.275 0 011.708-.598c.183-.058.191-.113.084-.25-.345-.441-.8-.783-1.32-.99a.71.71 0 00-.399-.023c-.417.065-.806.23-1.217.318-.631.136-1.259.29-1.913.443zm7.697-.444l-.334.169c.099.187.122.416.334.612v-.78zm-.14-.155c-.175-.062-.298-.135-.454-.135.134.335.137.336.454.135zm-17.391 9.581c-.006-.006-.013-.02-.017-.019a.174.174 0 00-.038.017c.005.007.012.02.017.02a.15.15 0 00.038-.018z" fill="#121316"/><path d="M3.619 23.273c.143.1.036.205-.009.29-.169.326-.344.65-.53.965-.8 1.351-1.137 2.812-1.048 4.374.054.953.571 1.63 1.34 2.128 1.43.925 2.996 1.14 4.65.832 1.252-.233 2.49-.501 3.593-1.192.223-.14.31-.266.293-.537-.114-1.795 1.81-3.56 3.61-3.325a.177.177 0 01.087.038c-1.05-.05-1.875.415-2.592 1.12-.6.588-.82 1.29-.662 2.124.185.967.418 1.927.41 2.923-.009 1.18-.556 1.866-1.71 2.15-1.21.3-2.338.055-3.427-.486-.776-.386-1.455-.933-2.21-1.353-.697-.386-1.411-.666-2.24-.552-1.424.195-2.951 2.283-1.644 4.048.398.536.862.98 1.572 1.052.405.04.623-.073.773-.396.15-.324.095-.56-.201-.845-.235-.226-.52-.391-.74-.636-.356-.397-.444-.86-.218-1.204.258-.392.723-.535 1.228-.352.182.066.428.062.493.32-.217-.035-.393-.18-.615-.21-.333-.045-.717.087-.853.346-.158.299-.036.565.147.814.197.27.48.436.74.63.516.38.624.673.456 1.24-.13.442-.502.7-1.062.723-.602.026-1.099-.225-1.525-.624-.898-.84-1.331-1.824-1.014-3.084.35-1.397 1.883-2.466 3.314-2.279.814.107 1.514.468 2.192.896.878.554 1.755 1.108 2.77 1.393.709.203 1.463.19 2.165-.036.755-.238 1.14-.945 1.037-1.861-.056-.498-.135-.994-.173-1.494-.018-.236-.103-.2-.25-.127-.592.29-1.169.61-1.79.834-.93.33-1.903.53-2.889.59a6.666 6.666 0 01-3.449-.676C2.22 31.14 1.484 30.06 1.58 28.4c.093-1.636.699-3.068 1.623-4.389.165-.23.305-.478.417-.738zM21.366 27.761c.153-.336.49-.497.727-.752.29-.312.605-.6.909-.897.568-.5 1.082-1.053 1.593-1.608 1.075-1.168 2.067-2.39 2.702-3.872.582-1.356.728-2.758.406-4.176a7.141 7.141 0 00-1.415-2.915c-.445-.649-.982-1.222-1.493-1.816-.595-.693-1.184-1.388-1.69-2.15l.079-.078c.763.897 1.636 1.684 2.462 2.519 1.262 1.274 2.274 2.719 2.64 4.525.273 1.345.178 2.662-.331 3.942-.442 1.112-1.131 2.054-1.92 2.95-1.399 1.59-2.964 2.995-4.594 4.336-.03.025-.052.016-.075-.008z" fill="#121316"/><path d="M1.787 20.112c.513.217.977.525 1.438.831.336.224.656.298 1.03.114.272-.135.56-.238.833-.371.151-.074.242-.068.327.093.365.693.455 1.395.075 2.109a7.64 7.64 0 01-.717 1.142c-.272-.324-.59-.61-.801-.985a.284.284 0 00-.222-.158l-.008-.304c.065-.85-.525-1.23-1.145-1.584a3.973 3.973 0 00-.429-.184c-.055-.274-.333-.427-.381-.703z" fill="#708192"/><path d="M23.184 9.497l-.08.079c-.18-.229-.356-.46-.41-.758.027 0 .052-.002.078-.003.08.263.257.465.412.682zM21.185 28.103c-.135.047-.127-.054-.139-.133l.24-.214.069.075c0 .126-.28.077-.17.272z" fill="#14456B"/><path d="M21.355 27.83l-.069-.074c.029-.032.055-.03.079.006a.22.22 0 01.01.048c0 .007-.013.014-.02.02zM5.44 35.393c.059-.013.098-.006.068.068a.069.069 0 01-.067-.068z" fill="#121316"/><path d="M5.504 35.456c.059-.013.114-.023.066.068a21.258 21.258 0 00-.066-.068zM5.38 35.294c.036.026.085.044.066.104-.056-.012-.065-.055-.066-.104z" fill="#121316"/><path d="M26.288 13.541a7.141 7.141 0 011.416 2.915c.321 1.418.175 2.82-.407 4.176-.635 1.482-1.627 2.704-2.702 3.872-.511.555-1.025 1.108-1.593 1.608-1.003-.277-1.999-.31-2.989.072-.173.067-.273.28-.494.237.347-.56.789-1.056 1.305-1.467.866-.672 1.746-1.327 2.571-2.048.618-.54 1.177-1.13 1.632-1.827.821-1.257 1.305-2.609 1.296-4.116a7.556 7.556 0 00-.425-2.4c.202-.314.222-.696.39-1.022z" fill="#708192"/><path d="M9.3 14.116c.63-1.458 1.615-2.598 3.019-3.36.042.045.076.113.127.131.729.264.871.927.672 1.607-.347 1.189-1.117 2.048-2.291 2.487-.791.295-1.29-.002-1.487-.818-.004-.018-.026-.032-.04-.047z" fill="#87A0C0"/><path d="M16.932 21.946c.163-.11.332-.21.537-.204.086.002.107-.033.099-.106.125-.005.216.03.164.178-.055.157.021.263.118.363a.48.48 0 00.463.135c.226-.047.339-.205.35-.444.843.606.846 1.733.039 2.344-.448.34-1.247.385-1.73.084-.523-.325-.573-.838-.519-1.385.038-.383.26-.673.48-.965z" fill="#FDFDFD"/><path d="M14.63 12.548a.591.591 0 01-.673-.386c-.134-.33-.029-.623.18-.906.424-.57.934-.961 1.683-.927.334.015.609.14.776.448.172.32.107.623-.107.88-.451.543-1.013.89-1.86.891z" fill="#87A0C0"/><path d="M21.248 30.195c.514.322 1.03.64 1.634.769a.21.21 0 01.153.14 2.107 2.107 0 01-.01 1.845c-.044.094-.105.161-.213.152-.486-.043-.981-.01-1.455-.163.063-.315.16-.622.197-.946.061-.558-.05-1.078-.257-1.588-.027-.067-.07-.13-.049-.21z" fill="#708192"/><path d="M9.36 37.629c-.964-.242-1.808-.72-2.594-1.314-.034-.74.558-.99 1.219-.871.897.16 1.625 1.17 1.57 1.868-.013.148-.033.27-.195.317zM14.909 32.108c-.152-1-.121-1.981.31-2.92.173.15.407.08.607.202.745.454.972 1.512.174 2.215-.3.264-.657.49-1.091.503z" fill="#87A0C0"/><path d="M16.932 21.946c-.218.292-.441.582-.479.965-.054.547-.004 1.06.52 1.385.482.3 1.281.255 1.729-.084.807-.61.804-1.738-.038-2.344-.013.239-.125.397-.351.444a.48.48 0 01-.463-.135c-.097-.1-.173-.206-.118-.363.052-.147-.039-.183-.164-.178.218-.159.465-.14.706-.1.666.114 1.217.689 1.294 1.335.085.72-.353 1.43-1.065 1.724-.745.308-1.633.098-2.015-.477-.441-.663-.2-1.84.444-2.172zM14.03 21.139c.631-.249 1.198-.144 1.686.328.472.457.579 1.017.368 1.622-.228.657-.728 1.02-1.403 1.116-.829.118-1.536-.233-1.708-.854-.188-.678-.106-1.313.424-1.834l.01.105a1.797 1.797 0 00-.287.555c-.205.671.007 1.374.502 1.647.762.42 1.779.102 2.16-.676.324-.658.079-1.486-.517-1.75-.066.331-.276.48-.573.407-.287-.071-.405-.304-.305-.626l-.282.026-.075-.066z" fill="#121316"/><path d="M16.925 31.418a3.632 3.632 0 00.46 2.014c-.269.049-.498.247-.81.144-.531-.173-.704-.715-.463-1.193.083-.165.164-.37.364-.413.311-.069.423-.267.449-.552z" fill="#87A0C0"/><path d="M14.03 21.139l.075.066-.535.276-.051-.052c.144-.137.32-.237.51-.29z" fill="#14456B"/><path d="M13.407 21.622l-.01-.105.122-.088.051.052-.163.141z" fill="#14456B"/><path d="M26.288 13.541c-.168.326-.188.708-.39 1.021-.834-1.862-2.257-3.154-4.009-4.124a12.8 12.8 0 00-1.101-.54.466.466 0 01-.298-.33 3.736 3.736 0 01-.072-1.746c.176-.89 1.057-1.721 1.953-1.886a.305.305 0 01.233.038c.36.21.725.414 1.115.635-.75.563-1.305 1.199-1.024 2.21.053.297.23.528.41.757.506.761 1.095 1.456 1.69 2.149.511.594 1.048 1.167 1.493 1.816z" fill="#A7B9CC"/><path d="M20.53 3.94c.072-.805.138-1.568.277-2.322.028-.15.048-.26.253-.132 1.054.66 2.113 1.312 3.177 1.954.235.142.308.282.25.58-.124.65-.2 1.307-.228 1.967-.022.423-.039.434-.391.238-.628-.35-1.257-.701-1.869-1.079-.407-.252-.845-.454-1.226-.752-.168-.131-.3-.262-.242-.454z" fill="#21A2F8"/><path d="M28.599 3.424c-.113.246-.08.641-.178 1.017-.08.335-.139.675-.176 1.018-.019.14-.053.224-.2.276-.774.267-1.568.45-2.367.616-.308.064-.616.127-.92.207-.14.037-.248.034-.233-.134.076-.802.17-1.602.244-2.404.028-.303.21-.411.47-.439a28.6 28.6 0 003.09-.529c.274-.06.32.02.27.372z" fill="#14456B"/><path d="M21.104 1.137c.266-.126.534-.082.789-.12.55-.08 1.103-.145 1.655-.213.63-.077 1.208.016 1.773.361.9.551 1.841 1.035 2.765 1.549.041.03.081.063.119.098-.476.088-.91.172-1.343.248-.59.103-1.18.193-1.769.302a.841.841 0 01-.605-.098c-1.102-.649-2.2-1.306-3.261-2.019a1.262 1.262 0 01-.123-.108z" fill="#5DC0F8"/><path d="M3.88 20.797c0-.727.005-1.42-.004-2.114-.004-.22.114-.33.292-.392.95-.332 1.854-.775 2.784-1.156.222-.091.322-.088.31.196-.018.472-.022.946 0 1.418a.421.421 0 01-.236.432c-.806.466-1.62.918-2.466 1.308-.214.1-.404.255-.68.308z" fill="#21A2F8"/><path d="M1.503 16.985a38.833 38.833 0 012.896-.957c.28-.083.572-.04.837.05.629.216 1.246.465 1.914.718-.268.201-.534.266-.78.37-.772.327-1.55.641-2.323.97a.403.403 0 01-.404-.018c-.697-.384-1.406-.747-2.14-1.133z" fill="#5DC0F8"/><path d="M3.671 20.859c-.59-.442-1.204-.758-1.802-1.098-.229-.13-.363-.291-.37-.537-.016-.658-.128-1.31-.175-2.046.593.41 1.202.628 1.76.948.041.03.085.058.13.084.542.222.586.319.501.895-.083.562-.006 1.133-.044 1.754z" fill="#14456B"/><path d="M26.717.272c.863.008 1.459.308 1.853.95.46.75.886 1.516.548 2.446a4.26 4.26 0 01-.181.401c-.03.064-.07.16-.154.115-.073-.038-.016-.123-.008-.192.036-.312.066-.626.074-.94.007-.235-.1-.404-.326-.524-.944-.501-1.875-1.025-2.818-1.528-.244-.13-.22-.232-.026-.376.343-.254.723-.377 1.038-.352zM1.787 20.112c.048.277.326.429.381.703a6.668 6.668 0 01-1.044-.34c-.439-.188-.658-.537-.733-.988-.072-.429-.086-.858.042-1.28.042-.14.1-.275.175-.401.09-.153.212-.37.378-.335.18.039.087.284.101.436.038.397.07.796.072 1.193.002.476.246.782.628 1.012zM32.502 28.057c-.045 1.38-.416 2.543-1.42 3.425-.49.431-1.064.742-1.665.997-1.027.437-2.083.778-3.193.935-.355.05-.362.052-.325-.318.046-.386.03-.777-.048-1.159-.05-.228-.004-.306.247-.305.736.002 1.462-.075 2.168-.313 2.292-.776 3.295-3.472 1.998-5.426-.47-.708-1.147-1.132-1.986-1.272a1.3 1.3 0 00-.907.18c-.386.231-.845.234-1.268.35-.142.039-.352.172-.432.054-.097-.142.046-.341.135-.49.401-.663 1-1.075 1.741-1.26 2.246-.562 4.405.845 4.812 3.124.047.258.087.518.116.778.032.232.041.466.027.7z" fill="#A7B9CC"/><path d="M24.035 37.825c-.822.34-1.613.748-2.366 1.222-.106.068-.217.051-.325-.017-.997-.63-2.087-1.08-3.121-1.638-.342-.184-.666-.4-1-.596-.164-.096-.144-.16.023-.215l2.421-.792a.277.277 0 01.242.023c.646.39 1.315.741 2.004 1.05.69.303 1.373.622 2.122.963z" fill="#5DC0F8"/><path d="M21.42 40.53c0 .293-.005.588.002.881.005.192-.028.249-.22.131-1.212-.741-2.388-1.536-3.582-2.303-.455-.293-.645-.635-.63-1.155.01-.323-.047-.648-.068-.973-.011-.173.022-.28.224-.137 1.232.872 2.61 1.489 3.926 2.212.26.144.388.312.351.62-.028.237-.006.482-.006.723h.003z" fill="#21A2F8"/><path d="M28.002 29.371a31.648 31.648 0 01-2.539-1.088c-.26-.126-.44-.298-.388-.635.076-.485-.13-.952-.125-1.436.002-.242.02-.318.288-.192.824.388 1.693.655 2.566.908.099.029.18.04.179.168-.008.75-.048 1.498.02 2.275zM21.669 40.397c0-.273.01-.546-.004-.819-.01-.204.056-.332.245-.424.745-.361 1.484-.735 2.226-1.102.2-.099.32-.102.32.192 0 .537-.171 1.055-.143 1.594.01.188-.188.249-.317.318-.543.292-1.082.59-1.597.93-.172.115-.339.24-.511.354-.156.105-.222.06-.218-.129.007-.304.002-.61.002-.914h-.003z" fill="#14456B"/><path d="M28.133 28.131c0-.325.005-.65-.003-.976-.004-.148.042-.215.192-.264a44.575 44.575 0 001.626-.573c.154-.057.237-.02.29.126.238.64.329 1.29.137 1.96a.36.36 0 01-.237.266 62.37 62.37 0 00-1.694.661c-.25.102-.335.056-.318-.223.02-.325.005-.65.005-.976h.002z" fill="#21A2F8"/><path d="M25.069 25.622c.654-.153 1.282-.307 1.913-.443.41-.089.8-.253 1.217-.318a.71.71 0 01.399.022c.52.208.975.55 1.32.99.107.138.1.192-.084.251a36.43 36.43 0 00-1.708.598c-.205.078-.39.01-.544-.067-.616-.306-1.27-.495-1.922-.698-.207-.064-.415-.143-.591-.335z" fill="#5DC0F8"/><path d="M32.766 25.179v.78c-.212-.196-.235-.425-.334-.612l.334-.168z" fill="#21A2F8"/><path d="M32.626 25.023c-.317.201-.32.2-.454-.135.156 0 .279.073.454.135z" fill="#87A0C0"/><path d="M15.235 34.605a.161.161 0 01-.038.016c-.004 0-.011-.012-.017-.02a.18.18 0 01.038-.016c.004 0 .011.013.017.02zM13.407 21.622l.163-.141.535-.276.282-.026c-.1.322.018.555.305.626.297.073.507-.076.573-.408.596.265.84 1.093.518 1.751-.382.778-1.4 1.096-2.16.676-.496-.273-.707-.976-.503-1.647.063-.2.16-.388.287-.555z" fill="#FDFDFD"/><path fill-rule="evenodd" clip-rule="evenodd" d="M69.569 1.01c-.558 0-1.115.132-1.646.37L54.49 7.807a3.758 3.758 0 00-2.071 2.574L49.1 24.796c-.265 1.141 0 2.31.744 3.239l9.291 11.548a3.75 3.75 0 002.947 1.407h14.894a3.75 3.75 0 002.946-1.407l9.292-11.548a3.745 3.745 0 00.743-3.239L86.639 10.38a3.76 3.76 0 00-2.071-2.574L71.188 1.38a3.806 3.806 0 00-1.62-.372zm0 1.247c.37 0 .743.08 1.088.239L84.09 8.894c.69.345 1.22.982 1.38 1.725l3.319 14.416c.186.77 0 1.566-.504 2.177L78.993 38.76a2.53 2.53 0 01-1.991.956H62.109c-.77 0-1.514-.345-1.991-.956l-9.292-11.548a2.66 2.66 0 01-.505-2.177l3.319-14.416c.186-.77.69-1.406 1.38-1.725l13.434-6.425a3.195 3.195 0 011.115-.212z" fill="#326DE6"/><path fill-rule="evenodd" clip-rule="evenodd" d="M61.796 36.344a2.469 2.469 0 001.937.928l11.687-.02c.746 0 1.453-.351 1.929-.929l7.125-8.97c.206-.28.183-.83.183-1.292V13.534L69.349 22.35l-15.294-8.806V26.06c0 .47.166.929.472 1.313l7.269 8.97z" fill="#1FBFCF"/><path fill-rule="evenodd" clip-rule="evenodd" d="M69.349 22.348l15.308-8.813-15.323-8.81-15.279 8.817 15.294 8.806z" fill="#C9E9EC"/><path fill-rule="evenodd" clip-rule="evenodd" d="M73 29.158c-.438.28-1.037.2-1.396-.24-.12-.12-.16-.279-.2-.438l-.36-6.505a12.115 12.115 0 017.185 3.472L73 29.158zm-5.426-.838c-.041.559-.48 1.038-1.078 1.038-.16 0-.36-.04-.48-.12l-5.307-3.791a12.178 12.178 0 015.947-3.273c.439-.08.838-.16 1.277-.239l-.36 6.385zm14.925-2.674l.399-.359v-.08c0-.2.039-.399.199-.598.479-.44 1.078-.799 1.796-1.237.12-.08.239-.12.359-.2.239-.12.439-.24.679-.4.039-.039.119-.079.199-.159.04-.04.08-.04.08-.08.559-.478.678-1.276.279-1.795-.2-.28-.558-.44-.918-.44-.32 0-.598.12-.878.32l-.08.08c-.08.04-.12.12-.2.16-.2.199-.358.359-.518.558-.08.08-.16.2-.28.28-.558.598-1.077 1.077-1.595 1.436-.12.08-.24.12-.36.12-.08 0-.16 0-.24-.04h-.08l-.478.32c-.518-.56-1.077-1.038-1.636-1.517a15.935 15.935 0 00-8.34-3.312l-.04-.52-.08-.08c-.12-.119-.28-.239-.32-.518-.04-.638.04-1.357.12-2.155v-.04c0-.12.04-.279.08-.399.04-.24.08-.479.12-.758v-.36c0-.717-.56-1.316-1.237-1.316-.32 0-.64.16-.878.399-.24.24-.36.559-.36.918v.32c0 .278.04.518.12.757.04.12.04.24.08.4v.04c.08.797.2 1.516.12 2.154-.04.28-.2.4-.32.52l-.08.079-.04.518c-.717.08-1.436.16-2.154.32a15.383 15.383 0 00-7.901 4.47l-.4-.28h-.08c-.08 0-.16.04-.239.04-.12 0-.24-.04-.359-.12-.519-.359-1.037-.878-1.596-1.476-.08-.08-.16-.2-.28-.28-.16-.2-.319-.359-.518-.558-.04-.04-.12-.08-.2-.16-.04-.04-.08-.04-.08-.08-.24-.2-.558-.32-.878-.32-.359 0-.718.16-.917.44-.4.519-.28 1.317.279 1.796.04 0 .04.04.08.04.08.04.12.12.2.16.239.159.438.279.678.398.12.04.24.12.359.2.718.439 1.317.798 1.795 1.237.2.2.2.4.2.598v.08l.4.36c-.08.12-.16.199-.2.319-.468.74-.866 1.51-1.197 2.304l2.275 2.807a12.538 12.538 0 011.356-3.116l4.749 4.23c.439.36.479 1.038.12 1.477-.12.16-.28.279-.48.32l-2.741.795 1.362 1.681c.476.598 1.19.928 1.936.928l11.688-.02c.746 0 1.452-.35 1.929-.929l1.279-1.61-2.802-.806a1.082 1.082 0 01-.758-1.277c.04-.16.12-.32.239-.439l4.829-4.35a12.63 12.63 0 011.377 3.24l2.32-2.922a16.695 16.695 0 00-1.342-2.513z" fill="#326DE6"/><path d="M149.553 11.205a19.775 19.775 0 00-1.706-2.895l-6.991 2.544a13.08 13.08 0 012.055 2.768l6.642-2.417zm-30.906 7.733l-6.993 2.544c.089 1.122.283 2.23.554 3.315l6.644-2.419a13.016 13.016 0 01-.205-3.44z" fill="#C22133"/><path d="M134.168 9.224a12.94 12.94 0 013.778 2.69l6.992-2.544a19.88 19.88 0 00-7.807-6.497c-9.996-4.661-21.921-.321-26.581 9.673a19.853 19.853 0 00-1.806 9.996l6.993-2.544a12.93 12.93 0 011.163-4.49c3.029-6.494 10.775-9.312 17.268-6.284zM141.626 22a12.83 12.83 0 01-1.174 4.49c-3.028 6.495-10.775 9.313-17.267 6.286a12.869 12.869 0 01-3.786-2.686l-6.977 2.539a19.825 19.825 0 007.8 6.499c9.997 4.66 21.92.32 26.58-9.676a19.797 19.797 0 001.8-9.99L141.627 22z" fill="#DB212E"/><path d="M143.345 13.464l-6.644 2.418a13.036 13.036 0 011.627 7.317l6.977-2.538a20.144 20.144 0 00-1.96-7.197zm-30.701 11.173L106 27.057a20.245 20.245 0 003.124 6.773l6.977-2.54a13.053 13.053 0 01-3.457-6.653z" fill="#EB2126"/><path d="M148.54 9.363c-.22-.358-.448-.71-.692-1.053l-6.992 2.545c.308.315.59.649.86.991l6.825-2.483zm-29.92 10.979a12.42 12.42 0 01.027-1.404l-6.993 2.544c.036.448.092.893.159 1.337l6.808-2.477z" fill="#AD213B"/><path d="M148.603 19.462L141.625 22a12.757 12.757 0 01-.59 3l7.596-2.768c.054-.928.045-1.854-.028-2.771zM112.422 32.63a19.886 19.886 0 001.779 2.159l7.596-2.77a12.906 12.906 0 01-2.398-1.93l-6.977 2.54z" fill="#BA2133"/></g></svg>