<svg width="230" height="160" viewBox="0 0 230 160" fill="none" xmlns="http://www.w3.org/2000/svg">
<g filter="url(#filter0_d)">
<rect x="20" y="10" width="190" height="120" rx="4" fill="none"/>
<path d="M55.3291 101.718C55.3291 100.494 55.6111 99.396 56.1751 98.424C56.7511 97.452 57.5251 96.696 58.4971 96.156C59.4811 95.604 60.5551 95.328 61.7191 95.328C63.0511 95.328 64.2331 95.658 65.2651 96.318C66.3091 96.966 67.0651 97.89 67.5331 99.09H65.0671C64.7431 98.43 64.2931 97.938 63.7171 97.614C63.1411 97.29 62.4751 97.128 61.7191 97.128C60.8911 97.128 60.1531 97.314 59.5051 97.686C58.8571 98.058 58.3471 98.592 57.9751 99.288C57.6151 99.984 57.4351 100.794 57.4351 101.718C57.4351 102.642 57.6151 103.452 57.9751 104.148C58.3471 104.844 58.8571 105.384 59.5051 105.768C60.1531 106.14 60.8911 106.326 61.7191 106.326C62.4751 106.326 63.1411 106.164 63.7171 105.84C64.2931 105.516 64.7431 105.024 65.0671 104.364H67.5331C67.0651 105.564 66.3091 106.488 65.2651 107.136C64.2331 107.784 63.0511 108.108 61.7191 108.108C60.5431 108.108 59.4691 107.838 58.4971 107.298C57.5251 106.746 56.7511 105.984 56.1751 105.012C55.6111 104.04 55.3291 102.942 55.3291 101.718ZM71.987 94.68V108H69.935V94.68H71.987ZM83.6631 98.082V108H81.6111V106.83C81.2871 107.238 80.8611 107.562 80.3331 107.802C79.8171 108.03 79.2651 108.144 78.6771 108.144C77.8971 108.144 77.1951 107.982 76.5711 107.658C75.9591 107.334 75.4731 106.854 75.1131 106.218C74.7651 105.582 74.5911 104.814 74.5911 103.914V98.082H76.6251V103.608C76.6251 104.496 76.8471 105.18 77.2911 105.66C77.7351 106.128 78.3411 106.362 79.1091 106.362C79.8771 106.362 80.4831 106.128 80.9271 105.66C81.3831 105.18 81.6111 104.496 81.6111 103.608V98.082H83.6631ZM89.9705 108.162C89.1905 108.162 88.4885 108.024 87.8645 107.748C87.2525 107.46 86.7665 107.076 86.4065 106.596C86.0465 106.104 85.8545 105.558 85.8305 104.958H87.9545C87.9905 105.378 88.1885 105.732 88.5485 106.02C88.9205 106.296 89.3825 106.434 89.9345 106.434C90.5105 106.434 90.9545 106.326 91.2665 106.11C91.5905 105.882 91.7525 105.594 91.7525 105.246C91.7525 104.874 91.5725 104.598 91.2125 104.418C90.8645 104.238 90.3065 104.04 89.5385 103.824C88.7945 103.62 88.1885 103.422 87.7205 103.23C87.2525 103.038 86.8445 102.744 86.4965 102.348C86.1605 101.952 85.9925 101.43 85.9925 100.782C85.9925 100.254 86.1485 99.774 86.4605 99.342C86.7725 98.898 87.2165 98.55 87.7925 98.298C88.3805 98.046 89.0525 97.92 89.8085 97.92C90.9365 97.92 91.8425 98.208 92.5265 98.784C93.2225 99.348 93.5945 100.122 93.6425 101.106H91.5905C91.5545 100.662 91.3745 100.308 91.0505 100.044C90.7265 99.78 90.2885 99.648 89.7365 99.648C89.1965 99.648 88.7825 99.75 88.4945 99.954C88.2065 100.158 88.0625 100.428 88.0625 100.764C88.0625 101.028 88.1585 101.25 88.3505 101.43C88.5425 101.61 88.7765 101.754 89.0525 101.862C89.3285 101.958 89.7365 102.084 90.2765 102.24C90.9965 102.432 91.5845 102.63 92.0405 102.834C92.5085 103.026 92.9105 103.314 93.2465 103.698C93.5825 104.082 93.7565 104.592 93.7685 105.228C93.7685 105.792 93.6125 106.296 93.3005 106.74C92.9885 107.184 92.5445 107.532 91.9685 107.784C91.4045 108.036 90.7385 108.162 89.9705 108.162ZM98.3797 99.756V105.246C98.3797 105.618 98.4637 105.888 98.6317 106.056C98.8117 106.212 99.1117 106.29 99.5317 106.29H100.792V108H99.1717C98.2477 108 97.5397 107.784 97.0477 107.352C96.5557 106.92 96.3097 106.218 96.3097 105.246V99.756H95.1397V98.082H96.3097V95.616H98.3797V98.082H100.792V99.756H98.3797ZM111.773 102.798C111.773 103.17 111.749 103.506 111.701 103.806H104.123C104.183 104.598 104.477 105.234 105.005 105.714C105.533 106.194 106.181 106.434 106.949 106.434C108.053 106.434 108.833 105.972 109.289 105.048H111.503C111.203 105.96 110.657 106.71 109.865 107.298C109.085 107.874 108.113 108.162 106.949 108.162C106.001 108.162 105.149 107.952 104.393 107.532C103.649 107.1 103.061 106.5 102.629 105.732C102.209 104.952 101.999 104.052 101.999 103.032C101.999 102.012 102.203 101.118 102.611 100.35C103.031 99.57 103.613 98.97 104.357 98.55C105.113 98.13 105.977 97.92 106.949 97.92C107.885 97.92 108.719 98.124 109.451 98.532C110.183 98.94 110.753 99.516 111.161 100.26C111.569 100.992 111.773 101.838 111.773 102.798ZM109.631 102.15C109.619 101.394 109.349 100.788 108.821 100.332C108.293 99.876 107.639 99.648 106.859 99.648C106.151 99.648 105.545 99.876 105.041 100.332C104.537 100.776 104.237 101.382 104.141 102.15H109.631ZM115.844 99.522C116.144 99.018 116.54 98.628 117.032 98.352C117.536 98.064 118.13 97.92 118.814 97.92V100.044H118.292C117.488 100.044 116.876 100.248 116.456 100.656C116.048 101.064 115.844 101.772 115.844 102.78V108H113.792V98.082H115.844V99.522ZM128.976 108.162C128.196 108.162 127.494 108.024 126.87 107.748C126.258 107.46 125.772 107.076 125.412 106.596C125.052 106.104 124.86 105.558 124.836 104.958H126.96C126.996 105.378 127.194 105.732 127.554 106.02C127.926 106.296 128.388 106.434 128.94 106.434C129.516 106.434 129.96 106.326 130.272 106.11C130.596 105.882 130.758 105.594 130.758 105.246C130.758 104.874 130.578 104.598 130.218 104.418C129.87 104.238 129.312 104.04 128.544 103.824C127.8 103.62 127.194 103.422 126.726 103.23C126.258 103.038 125.85 102.744 125.502 102.348C125.166 101.952 124.998 101.43 124.998 100.782C124.998 100.254 125.154 99.774 125.466 99.342C125.778 98.898 126.222 98.55 126.798 98.298C127.386 98.046 128.058 97.92 128.814 97.92C129.942 97.92 130.848 98.208 131.532 98.784C132.228 99.348 132.6 100.122 132.648 101.106H130.596C130.56 100.662 130.38 100.308 130.056 100.044C129.732 99.78 129.294 99.648 128.742 99.648C128.202 99.648 127.788 99.75 127.5 99.954C127.212 100.158 127.068 100.428 127.068 100.764C127.068 101.028 127.164 101.25 127.356 101.43C127.548 101.61 127.782 101.754 128.058 101.862C128.334 101.958 128.742 102.084 129.282 102.24C130.002 102.432 130.59 102.63 131.046 102.834C131.514 103.026 131.916 103.314 132.252 103.698C132.588 104.082 132.762 104.592 132.774 105.228C132.774 105.792 132.618 106.296 132.306 106.74C131.994 107.184 131.55 107.532 130.974 107.784C130.41 108.036 129.744 108.162 128.976 108.162ZM144.082 102.798C144.082 103.17 144.058 103.506 144.01 103.806H136.432C136.492 104.598 136.786 105.234 137.314 105.714C137.842 106.194 138.49 106.434 139.258 106.434C140.362 106.434 141.142 105.972 141.598 105.048H143.812C143.512 105.96 142.966 106.71 142.174 107.298C141.394 107.874 140.422 108.162 139.258 108.162C138.31 108.162 137.458 107.952 136.702 107.532C135.958 107.1 135.37 106.5 134.938 105.732C134.518 104.952 134.308 104.052 134.308 103.032C134.308 102.012 134.512 101.118 134.92 100.35C135.34 99.57 135.922 98.97 136.666 98.55C137.422 98.13 138.286 97.92 139.258 97.92C140.194 97.92 141.028 98.124 141.76 98.532C142.492 98.94 143.062 99.516 143.47 100.26C143.878 100.992 144.082 101.838 144.082 102.798ZM141.94 102.15C141.928 101.394 141.658 100.788 141.13 100.332C140.602 99.876 139.948 99.648 139.168 99.648C138.46 99.648 137.854 99.876 137.35 100.332C136.846 100.776 136.546 101.382 136.45 102.15H141.94ZM148.495 99.756V105.246C148.495 105.618 148.579 105.888 148.747 106.056C148.927 106.212 149.227 106.29 149.647 106.29H150.907V108H149.287C148.363 108 147.655 107.784 147.163 107.352C146.671 106.92 146.425 106.218 146.425 105.246V99.756H145.255V98.082H146.425V95.616H148.495V98.082H150.907V99.756H148.495ZM161.78 98.082V108H159.728V106.83C159.404 107.238 158.978 107.562 158.45 107.802C157.934 108.03 157.382 108.144 156.794 108.144C156.014 108.144 155.312 107.982 154.688 107.658C154.076 107.334 153.59 106.854 153.23 106.218C152.882 105.582 152.708 104.814 152.708 103.914V98.082H154.742V103.608C154.742 104.496 154.964 105.18 155.408 105.66C155.852 106.128 156.458 106.362 157.226 106.362C157.994 106.362 158.6 106.128 159.044 105.66C159.5 105.18 159.728 104.496 159.728 103.608V98.082H161.78ZM166.54 99.54C166.888 99.084 167.362 98.7 167.962 98.388C168.562 98.076 169.24 97.92 169.996 97.92C170.86 97.92 171.646 98.136 172.354 98.568C173.074 98.988 173.638 99.582 174.046 100.35C174.454 101.118 174.658 102 174.658 102.996C174.658 103.992 174.454 104.886 174.046 105.678C173.638 106.458 173.074 107.07 172.354 107.514C171.646 107.946 170.86 108.162 169.996 108.162C169.24 108.162 168.568 108.012 167.98 107.712C167.392 107.4 166.912 107.016 166.54 106.56V112.716H164.488V98.082H166.54V99.54ZM172.57 102.996C172.57 102.312 172.426 101.724 172.138 101.232C171.862 100.728 171.49 100.35 171.022 100.098C170.566 99.834 170.074 99.702 169.546 99.702C169.03 99.702 168.538 99.834 168.07 100.098C167.614 100.362 167.242 100.746 166.954 101.25C166.678 101.754 166.54 102.348 166.54 103.032C166.54 103.716 166.678 104.316 166.954 104.832C167.242 105.336 167.614 105.72 168.07 105.984C168.538 106.248 169.03 106.38 169.546 106.38C170.074 106.38 170.566 106.248 171.022 105.984C171.49 105.708 171.862 105.312 172.138 104.796C172.426 104.28 172.57 103.68 172.57 102.996Z" fill="#212529"/>
<g clip-path="url(#clip0)">
<path d="M62.9167 70.3785C62.5566 70.0717 62.0789 69.9719 61.7048 69.6898C61.6216 69.3581 61.3052 69.3635 61.071 69.2786C60.4214 69.0429 59.8234 69.2279 59.4922 69.7319C59.202 70.1735 59.3149 70.7692 59.7729 71.2796C60.055 71.594 60.4218 71.8069 60.7232 72.0965C61.1046 72.4629 61.1742 72.7666 60.9819 73.1831C60.7896 73.5994 60.5095 73.745 59.9889 73.6926C59.0757 73.6007 58.4788 73.0293 57.9678 72.3398C56.2863 70.0706 58.2502 67.3862 60.08 67.1354C61.1466 66.9892 62.0651 67.3491 62.9599 67.8457C63.932 68.3852 64.8044 69.0885 65.8029 69.5846C67.2021 70.2797 68.6523 70.5952 70.2096 70.2108C71.6919 69.8449 72.396 68.9636 72.4079 67.4451C72.4179 66.1653 72.1172 64.9306 71.8806 63.6876C71.6766 62.6156 71.9602 61.7127 72.7307 60.9557C73.6531 60.0494 74.713 59.4517 76.064 59.5162C76.0316 59.4898 75.9925 59.4729 75.9511 59.4672C73.6387 59.1649 71.1638 61.4341 71.3108 63.7428C71.333 64.0911 71.2208 64.2534 70.9334 64.4333C69.5147 65.321 67.9232 65.6664 66.3143 65.966C64.1877 66.3619 62.1745 66.0847 60.336 64.8957C59.3473 64.2562 58.6819 63.3847 58.6123 62.1593C58.4984 60.1518 58.9308 58.273 59.959 56.5365C60.1994 56.1305 60.4243 55.7149 60.642 55.2962C60.6991 55.1863 60.8364 55.0505 60.6525 54.922C60.5925 54.7168 60.8688 54.6265 60.8222 54.4259C60.8828 54.4333 60.9406 54.4558 60.9903 54.4912C61.04 54.5266 61.0801 54.5739 61.1069 54.6288C61.3773 55.1112 61.787 55.4793 62.1371 55.8962C61.5921 56.8776 61.0905 57.8763 60.8874 58.9958C60.7208 59.9142 60.7794 60.7971 61.2957 61.6074C62.1072 62.8812 63.3836 63.3562 64.7816 63.4916C67.1844 63.7242 69.2903 63 71.0786 61.3495C72.5425 59.9985 72.8637 58.2518 71.9404 56.5099C71.5261 55.7283 70.986 55.039 70.4444 54.3487C69.5867 53.2555 68.6796 52.2017 68.0438 50.9475C66.7304 48.3566 66.8164 45.7614 67.9573 43.1489C67.9749 43.1689 68.0031 43.1863 68.0086 43.2092C68.2611 44.2593 68.9032 44.641 69.9206 44.2609C71.4298 43.6971 72.4201 42.5922 72.8666 41.0639C73.1221 40.1892 72.9391 39.3368 72.0025 38.9978C71.9363 38.9738 71.8929 38.8868 71.8389 38.829C72.5857 38.3228 73.4363 38.0328 74.2894 37.816C76.2269 37.3187 78.2529 37.2745 80.2101 37.6869C82.5597 38.1638 84.7262 39.2959 86.4593 40.9525C87.5244 41.9643 88.3933 43.0988 88.7707 44.5707C89.2893 46.5933 89.131 48.5277 88.2271 50.4125C87.3909 52.1562 86.1081 53.507 84.5956 54.6716C83.391 55.5991 82.1745 56.5167 81.3741 57.8571C81.0417 58.4139 80.7438 58.9818 80.5455 59.693C80.8642 59.476 80.902 59.1645 81.0953 58.9699C81.3801 59.0244 81.5087 58.7513 81.7313 58.6653C83.0041 58.1732 84.284 58.216 85.5742 58.5721C85.1832 58.9552 84.778 59.3251 84.4055 59.7255C84.0997 60.0542 83.6672 60.2605 83.4706 60.6932L83.4693 60.6943C83.4389 60.6482 83.4051 60.6456 83.368 60.6865L83.0597 60.9607C82.6524 61.2522 81.7329 61.3849 81.39 61.1437C81.5535 61.4265 81.4555 61.5679 81.2652 61.7181C80.9176 61.9923 80.7126 62.3672 80.5981 62.8C80.3627 63.6905 80.9447 64.2903 81.6627 64.6109C82.2926 64.8921 82.6928 64.6452 83.0823 63.8048C83.1947 63.5624 83.2461 63.7455 83.3194 63.8219C83.2923 63.9229 83.3467 64.0043 83.382 64.0913C83.6473 64.7464 83.7911 65.4157 83.7119 66.1327C83.6658 66.5495 83.5407 66.9435 83.4592 67.3494C83.4187 67.3514 83.3782 67.3505 83.3379 67.3468C80.6946 66.9216 78.9449 64.9001 78.9047 62.2323C78.9024 62.0797 78.9752 61.8957 78.7851 61.7602C78.7517 62.1461 78.7207 62.5038 78.6896 62.8614L78.6954 62.8532C78.55 62.9246 78.4743 63.0539 78.4003 63.1905C78.0273 63.8792 77.8545 64.625 77.7605 65.3941C77.7279 65.7604 77.5839 66.016 77.1833 66.1038C76.9264 66.1601 76.822 66.4231 76.7151 66.6352C76.4051 67.2503 76.6274 67.9463 77.3098 68.1699C77.712 68.3016 78.0068 68.047 78.353 67.9845C78.4233 68.0831 78.4935 68.1817 78.5638 68.2803C79.2941 69.3112 80.2549 69.9956 81.5244 70.1605C82.4708 70.2833 83.3722 70.0643 84.2237 69.6494C84.922 69.3249 85.5207 68.8193 85.9577 68.1852C86.6803 67.1145 86.7124 65.9973 86.055 64.914C85.4224 63.8714 84.5385 63.0999 83.2873 62.8568C83.0882 62.8184 82.8688 62.6679 82.7295 62.9582C82.7757 63.0402 82.8168 63.1248 82.8529 63.2117C83.1033 63.9253 82.6394 64.601 81.9651 64.5088C81.0386 64.3821 80.5601 63.4354 80.9911 62.6071C81.3919 61.837 82.0713 61.5954 82.8742 61.5841C84.2893 61.5641 85.4853 62.1673 86.6087 62.9424C88.9822 64.5802 89.3356 67.5132 88.2213 69.6237C87.5674 70.8619 86.4531 71.5547 85.195 72.0641C85.0927 72.1114 84.981 72.1351 84.8683 72.1333C84.7556 72.1315 84.6448 72.1043 84.5441 72.0538C83.6459 71.65 82.7626 71.2116 81.833 70.8792C81.6327 70.8001 81.4143 70.7781 81.2021 70.8156C80.4146 70.9619 79.6777 71.2692 78.9231 71.5183C78.6799 71.5986 78.5084 71.5646 78.294 71.4163C77.1253 70.6082 76.3786 69.464 75.7236 68.2461C75.3951 67.6354 75.1803 66.9854 75.1683 66.2817C75.7269 66.2641 76.1863 65.9744 76.5718 65.6348C77.5981 64.7309 77.3061 63.3708 76.3479 62.7878C76.0905 62.6312 75.7892 62.7194 75.5675 62.5279C75.6859 62.1842 75.9433 61.9232 76.133 61.6057C75.6721 61.7243 75.4758 61.8437 75.3481 62.0763L75.3546 62.0698C75.2982 61.9713 75.2376 62.0462 75.195 62.0762C74.4943 62.5689 74.0126 63.2065 73.8634 64.0709C73.7384 64.7948 73.8812 65.4907 74.0506 66.1876C74.3646 67.4795 74.7386 68.7567 74.8033 70.1009C74.8655 71.3939 74.2925 72.3462 73.2625 73.017C71.6027 74.0981 69.8321 74.0439 68.0346 73.3801C68.2431 73.3202 68.2686 73.1633 68.2839 72.9724C68.3556 72.074 67.4202 70.7776 66.2661 70.5706C65.4167 70.4182 64.6558 70.7385 64.6996 71.6914C64.3028 71.4028 63.9095 71.1093 63.507 70.8288C63.4051 70.7578 63.3308 70.5994 63.16 70.6722L63.1621 70.6738C63.2227 70.5569 63.152 70.5695 63.0764 70.5869L63.0821 70.5928C63.1202 70.4972 63.0699 70.4891 62.9953 70.5052L63.0025 70.5121C63.0261 70.434 62.964 70.411 62.9167 70.3785ZM73.3817 52.5517C73.3295 52.5892 73.2773 52.6266 73.2251 52.6641C72.5429 53.3342 72.4373 54.1517 72.6793 55.0224C72.9014 55.8216 73.8103 56.2726 74.8762 56.1208C75.7436 55.9973 76.3862 55.5303 76.6796 54.6864C76.9503 53.9079 76.8136 53.188 76.2059 52.5999C75.5792 51.9934 74.8504 51.8592 74.0384 52.1782C73.7922 52.247 73.5667 52.3753 73.3817 52.5517ZM78.5876 52.8175C78.5973 52.9121 78.5708 52.9568 78.4597 52.9539C78.1971 52.9472 77.9799 53.0752 77.77 53.2158C76.941 53.644 76.6317 55.157 77.1989 56.0095C77.6902 56.7479 78.8321 57.0177 79.7901 56.6219C80.7057 56.2436 81.2687 55.3318 81.1585 54.4058C81.0596 53.5749 80.3515 52.8361 79.4955 52.6903C79.1848 52.6374 78.8673 52.6133 78.5876 52.8175ZM74.8101 41.1338C75.8974 41.1327 76.6203 40.6863 77.2004 39.9879C77.4749 39.6575 77.5594 39.2673 77.3375 38.8568C77.1227 38.4592 76.7695 38.2993 76.3403 38.2798C75.3776 38.236 74.721 38.7381 74.1773 39.4716C73.9076 39.8356 73.7723 40.2125 73.9445 40.6371C74.0046 40.8103 74.1254 40.956 74.2844 41.0473C74.4435 41.1385 74.6301 41.1693 74.8101 41.1338Z" fill="#A7B9CC"/>
<path d="M67.9572 43.149C66.8164 45.7614 66.7304 48.3566 68.0438 50.9476C68.6796 52.2017 69.5867 53.2556 70.4443 54.3487C70.9859 55.0391 71.5261 55.7284 71.9404 56.51C72.8637 58.2519 72.5424 59.9985 71.0786 61.3496C69.2903 63 67.1843 63.7242 64.7815 63.4916C63.3836 63.3563 62.1072 62.8812 61.2957 61.6074C60.7794 60.7971 60.7208 59.9142 60.8874 58.9959C61.0905 57.8763 61.592 56.8777 62.137 55.8963C62.4868 55.4346 62.795 54.9429 63.0581 54.427C63.5478 53.5089 63.4317 52.6071 62.9621 51.7164C62.853 51.5094 62.7364 51.5016 62.5421 51.5962C62.1907 51.7675 61.8203 51.9 61.47 52.0731C60.9904 52.3099 60.5789 52.2148 60.1465 51.9272C59.554 51.5332 58.9579 51.1374 58.2972 50.8578C57.806 50.5625 57.4932 50.1686 57.4899 49.5577C57.4872 49.0461 57.446 48.5337 57.3979 48.0238C57.3794 47.8281 57.4994 47.5125 57.2679 47.4634C57.0547 47.4182 56.8976 47.6972 56.7817 47.8929C56.6866 48.0556 56.6111 48.2291 56.5569 48.4097C56.3922 48.9511 56.4107 49.5038 56.5023 50.0541C56.5989 50.635 56.881 51.0835 57.4448 51.3261C57.8796 51.508 58.3287 51.6538 58.7876 51.7618C58.9758 51.8298 59.1598 51.9088 59.3387 51.9984C60.1362 52.453 60.8944 52.9421 60.8112 54.0355C60.3424 53.013 59.4616 52.5291 58.4433 52.226C58.0024 52.106 57.5727 51.9477 57.1593 51.753C56.4235 51.3859 56.0806 50.7638 56.0252 49.9744C55.9671 49.1462 55.9612 48.3197 56.5591 47.6383C56.7441 47.4273 56.9251 47.2035 57.2401 47.1872C57.2639 47.1898 57.288 47.1863 57.3102 47.1772C57.3324 47.1681 57.3519 47.1536 57.3671 47.1351C57.3823 47.1165 57.3926 47.0945 57.3971 47.0709C57.4015 47.0474 57.4001 47.0231 57.3929 47.0002C57.3483 46.6993 57.55 46.6221 57.7767 46.5278C59.062 45.993 60.4075 45.6432 61.7298 45.2221C62.16 45.0906 62.6217 45.1055 63.0425 45.2646C63.8429 45.5472 64.6473 45.8205 65.4234 46.1688C65.7625 46.321 65.9234 46.492 65.8736 46.93C65.7839 47.7186 65.8026 48.5208 65.8006 49.3174C65.7998 49.647 65.7111 49.8855 65.407 50.0464C64.6696 50.4366 63.9414 50.844 63.2066 51.2389C63.0196 51.3394 62.894 51.378 63.0683 51.6569C63.6771 52.6311 63.7329 53.6547 63.2006 54.695C62.7104 55.6531 62.105 56.5512 61.7215 57.5651C61.4196 58.3309 61.2864 59.1528 61.331 59.9748C61.4045 61.1383 62.2777 62.1734 63.5201 62.5585C65.3851 63.1366 67.1909 62.9426 68.9272 62.0836C69.8733 61.6194 70.7256 60.9845 71.441 60.2106C72.1654 59.4253 72.3462 58.5154 71.9928 57.5141C71.622 56.4633 70.9053 55.6308 70.2123 54.7859C69.3426 53.7254 68.3655 52.7566 67.6399 51.5736C66.5938 49.8681 66.2227 48.0326 66.421 46.0625C66.6612 43.6762 67.5917 41.5963 69.2536 39.8676C70.6747 38.3892 72.4506 37.5162 74.4286 37.0674C76.847 36.5142 79.3693 36.6182 81.7339 37.3687C81.7854 37.3847 81.8383 37.3968 81.8912 37.4077C81.9008 37.4097 81.9134 37.3968 81.9573 37.3732C81.4996 36.3257 81.3475 35.2477 81.827 34.1602C82.3242 33.0326 83.3133 32.5934 84.5188 32.354C84.1241 32.0853 83.7897 31.8569 83.4543 31.63C83.3883 31.5833 83.3191 31.5412 83.2473 31.504C82.2907 31.0351 81.7744 30.3746 82.0426 29.2189C82.2025 28.5299 82.2349 27.8096 82.3979 27.1116C82.5391 26.5075 82.8967 26.1665 83.4778 26.0581C84.722 25.8259 85.9643 25.5788 87.2411 25.5872C87.619 25.5951 87.9882 25.702 88.3118 25.8972C88.4826 25.9936 88.6024 26.0293 88.7464 25.8383C89.4448 24.9115 91.2074 24.7266 92.1487 25.4169C93.2694 26.2387 93.9709 27.3648 94.1417 28.7608C94.2658 29.7754 93.7937 30.5904 93.1148 31.295C92.8845 31.5341 92.6861 31.7631 92.6907 32.1236C92.6938 32.3619 92.5413 32.5061 92.3146 32.5942C91.0028 33.104 89.635 33.4075 88.2639 33.6963C87.8294 33.7878 87.4087 34.0391 86.9322 33.7689C86.765 33.6742 86.6224 33.9316 86.4733 34.0273C85.6383 34.5639 85.1685 35.3021 85.2789 36.334C85.2456 36.3353 85.2124 36.3367 85.1791 36.3379C84.8177 35.0384 85.5328 34.2211 86.4962 33.4976C85.9949 33.2131 85.5262 32.951 85.0623 32.6806C85.018 32.6531 84.9687 32.6346 84.9173 32.6263C84.8658 32.6181 84.8132 32.6202 84.7626 32.6325C83.6105 32.8439 82.4785 33.9135 82.2518 35.0563C82.1048 35.8017 82.1367 36.5712 82.3449 37.3018C82.3683 37.3987 82.4154 37.4883 82.4822 37.5624C82.5489 37.6365 82.6331 37.6928 82.727 37.7262C83.209 37.9353 83.6839 38.1657 84.1436 38.4202C86.3955 39.6669 88.2247 41.3289 89.298 43.7232C89.6459 44.7157 89.8304 45.7582 89.8442 46.8098C89.8553 48.7472 89.2337 50.4859 88.1782 52.1021C87.593 52.9982 86.8733 53.7571 86.0798 54.4505C85.0186 55.378 83.8868 56.2196 82.7732 57.0835C82.1101 57.6118 81.5426 58.2498 81.0952 58.97C80.9019 59.1645 80.8642 59.476 80.5455 59.6931C80.7438 58.9819 81.0417 58.4139 81.3741 57.8571C82.1744 56.5167 83.3909 55.5991 84.5955 54.6717C86.1081 53.5071 87.3909 52.1562 88.2271 50.4125C89.131 48.5277 89.2893 46.5933 88.7707 44.5707C88.3933 43.0988 87.5244 41.9643 86.4593 40.9525C84.7262 39.296 82.5596 38.1638 80.2101 37.687C78.2528 37.2746 76.2269 37.3187 74.2894 37.816C73.4362 38.0328 72.5857 38.3228 71.8389 38.829C70.0335 39.8094 68.7672 41.2742 67.9572 43.149ZM82.3966 30.0661C82.3215 30.3121 82.4921 30.4805 82.7085 30.6498C83.1976 31.0327 83.7606 31.2924 84.2846 31.6163C85.0709 32.1024 85.8794 32.5533 86.6874 33.0031C87.1404 33.2553 87.1619 33.2413 87.1896 32.6979C87.2264 31.8489 87.3243 31.0036 87.4826 30.1687C87.5584 29.7853 87.4637 29.606 87.162 29.4232C85.7948 28.5948 84.4332 27.7572 83.0772 26.9103C82.8142 26.7454 82.7878 26.8869 82.7521 27.0802C82.5731 28.0496 82.4882 29.0302 82.3966 30.0661V30.0661ZM92.7697 29.4024C92.8357 28.9493 92.7751 28.8476 92.4238 28.9243C91.113 29.2234 89.7867 29.4504 88.4509 29.6043C88.1159 29.6398 87.882 29.7791 87.8464 30.1687C87.752 31.2001 87.63 32.2289 87.5326 33.26C87.5123 33.4755 87.6527 33.4791 87.8328 33.4319C88.2231 33.3295 88.6191 33.2483 89.0143 33.1657C90.0415 32.951 91.0629 32.7166 92.0572 32.373C92.2475 32.3073 92.2912 32.1979 92.3151 32.0183C92.3629 31.5779 92.4383 31.1409 92.5409 30.7099C92.6686 30.227 92.6247 29.7183 92.7697 29.4024ZM83.1343 26.4613C83.1836 26.5113 83.2361 26.5581 83.2914 26.6013C84.6572 27.5178 86.0675 28.3626 87.484 29.1972C87.7186 29.3354 87.9966 29.38 88.2627 29.3223C89.0188 29.1829 89.7793 29.0667 90.5368 28.9345C91.0949 28.8371 91.6511 28.729 92.2637 28.6154C92.2152 28.5701 92.164 28.5279 92.1102 28.489C90.923 27.8291 89.7129 27.2065 88.5555 26.498C87.8298 26.0537 87.0868 25.9343 86.2762 26.0339C85.5663 26.1211 84.8558 26.2053 84.1482 26.3083C83.8204 26.3561 83.4762 26.2994 83.1343 26.4613ZM60.9875 51.7394C61.3436 51.6705 61.5877 51.4708 61.8635 51.3437C62.9511 50.8423 63.9966 50.2603 65.0331 49.6619C65.1357 49.613 65.2204 49.533 65.275 49.4333C65.3297 49.3335 65.3515 49.2191 65.3375 49.1063C65.3087 48.4998 65.3138 47.8902 65.3377 47.2832C65.3522 46.9175 65.2232 46.9134 64.9383 47.0303C63.7431 47.5208 62.5809 48.0908 61.3587 48.5169C61.1307 48.5963 60.9789 48.7373 60.9829 49.0211C60.9953 49.9129 60.9875 50.805 60.9875 51.7394ZM57.9322 46.8377C58.8767 47.3344 59.7876 47.8008 60.6832 48.2947C60.7603 48.3437 60.8489 48.3715 60.9401 48.3753C61.0313 48.3792 61.122 48.3589 61.2028 48.3166C62.1963 47.8953 63.1971 47.4915 64.1907 47.0703C64.5057 46.9368 64.8479 46.8535 65.1932 46.5953C64.3337 46.2696 63.5405 45.9493 62.7325 45.6723C62.3919 45.5555 62.0165 45.5008 61.6553 45.6077C60.417 45.9742 59.1841 46.3584 57.9322 46.8377V46.8377ZM60.7203 51.8184C60.7691 51.0199 60.6697 50.2869 60.7767 49.5634C60.8861 48.8228 60.8297 48.6979 60.1316 48.4124C60.0739 48.3801 60.0183 48.3442 59.9651 48.3048C59.2479 47.8935 58.4644 47.6131 57.7017 47.0865C57.7624 48.0329 57.9071 48.8703 57.9286 49.7169C57.9366 50.0327 58.1088 50.2399 58.4031 50.407C59.1722 50.8437 59.961 51.2499 60.7203 51.8184L60.7203 51.8184ZM90.3506 25.3494C89.9452 25.317 89.4567 25.4761 89.016 25.8025C88.767 25.9869 88.7354 26.1179 89.0497 26.2855C90.2617 26.9321 91.4591 27.6061 92.6723 28.2504C92.963 28.4048 93.1002 28.6218 93.0921 28.9239C93.0812 29.3274 93.043 29.7309 92.9968 30.1321C92.9865 30.2218 92.913 30.3308 93.0067 30.3796C93.116 30.4366 93.165 30.3137 93.2048 30.2318C93.2914 30.0641 93.3692 29.892 93.438 29.7162C93.8719 28.5199 93.3234 27.5356 92.7327 26.5722C92.2257 25.7455 91.4594 25.3598 90.3506 25.3494Z" fill="#121316"/>
<path d="M83.2873 62.8568C84.5386 63.0999 85.4224 63.8714 86.0551 64.914C86.7124 65.9973 86.6804 67.1145 85.9577 68.1852C85.5208 68.8193 84.9221 69.3249 84.2238 69.6494C83.3723 70.0643 82.4708 70.2833 81.5244 70.1605C80.255 69.9956 79.2942 69.3112 78.5638 68.2803C78.4938 68.1815 78.4236 68.083 78.353 67.9846C77.9089 67.1967 77.7031 66.2968 77.7606 65.3942C77.8546 64.625 78.0273 63.8792 78.4004 63.1905C78.4744 63.0539 78.5501 62.9246 78.6951 62.8536C78.6111 63.0364 78.5213 63.2165 78.4446 63.4019C78.104 64.2254 77.9317 65.0801 78.0588 65.9693C78.3673 68.1275 80.5825 70.2125 83.232 69.3128C83.8583 69.1001 84.4405 68.8032 84.936 68.2677C83.7668 68.1727 82.6786 68.003 81.6494 67.5669C80.5333 67.094 79.6662 66.3727 79.2101 65.2062C78.9135 64.4477 78.842 63.6474 78.6897 62.8614C78.7207 62.5038 78.7517 62.1462 78.7852 61.7602C78.9752 61.8957 78.9024 62.0797 78.9047 62.2323C78.945 64.9001 80.6946 66.9216 83.338 67.3468C83.3783 67.3505 83.4188 67.3514 83.4592 67.3494C84.0683 67.5463 84.7044 67.5037 85.3294 67.558C85.4689 67.5701 85.5471 67.4833 85.6036 67.3625C85.7855 66.9941 85.8812 66.5892 85.8834 66.1783C85.8857 65.7675 85.7945 65.3615 85.6167 64.9911C85.6025 64.9466 85.5769 64.9065 85.5425 64.8748C85.5081 64.8431 85.4661 64.821 85.4205 64.8105C84.6437 64.645 83.9799 64.2364 83.3195 63.8219C83.2461 63.7455 83.1947 63.5624 83.0824 63.8049C82.6929 64.6453 82.2926 64.8922 81.6628 64.6109C80.9448 64.2903 80.3628 63.6905 80.5982 62.8C80.7126 62.3672 80.9176 61.9923 81.2652 61.7181C81.4556 61.5679 81.5535 61.4266 81.3901 61.1437C81.733 61.385 82.6525 61.2522 83.0596 60.9608C83.0753 61.0636 83.0651 61.1933 83.238 61.1319C85.7384 61.4096 87.6631 62.5637 88.8433 64.8345C88.9558 65.0509 89.0655 65.153 89.3251 65.1409C90.5157 65.0854 91.7061 65.0179 92.7809 64.4341C93.6495 63.9623 94.3451 63.307 94.7613 62.3068C94.0593 62.5792 93.4091 62.8178 92.7702 63.0836C92.2872 63.2846 91.866 63.3188 91.3572 63.0524C90.4795 62.593 89.5301 62.2777 88.6374 61.8362C88.0657 61.5534 87.7564 61.1572 87.7714 60.5177C87.7885 59.789 87.651 59.0671 87.6899 58.3352C87.7094 57.969 87.8321 57.7366 88.2073 57.7038C88.4881 57.6793 88.6011 57.531 88.7097 57.2785C89.4613 55.5307 91.4829 54.4581 93.5108 54.6885C94.8641 54.8422 95.9681 55.4557 96.8666 56.4594C97.1155 56.7375 97.4682 56.7447 97.783 56.8353C98.4803 57.0358 98.4759 57.0213 98.4789 57.7551C98.4833 58.8185 98.3921 59.8768 98.4598 60.9465C98.553 62.2571 98.2382 63.5644 97.5588 64.6889C96.9339 65.7241 95.9984 66.4152 94.9359 66.945C93.2447 67.7943 91.3785 68.2368 89.486 68.2374C89.3404 68.2379 89.1848 68.1697 89.1093 68.4158C88.5785 70.1469 87.0738 71.7002 85.167 72.2812C85.66 72.5388 86.1009 72.7712 86.5439 72.9996C86.6635 73.0612 86.7914 73.1065 86.912 73.1665C88.0446 73.7302 87.8334 73.4962 87.8091 74.7107C87.7983 75.2501 87.7284 75.7881 87.7046 76.3275C87.705 76.4144 87.6813 76.4997 87.6361 76.5739C87.5909 76.6482 87.5259 76.7084 87.4485 76.7478C86.2799 77.4493 85.1168 78.1601 83.9444 78.855C83.6415 79.0345 83.3377 79.0664 83.0013 78.8418C81.5539 77.8752 80.0725 76.9611 78.6486 75.9565C77.9344 75.4527 77.5978 74.8016 77.5422 73.9714C77.5116 73.5149 77.4206 73.0644 77.4583 72.5995C77.4892 72.2191 77.6451 71.9807 78.0055 71.8646C78.1307 71.8118 78.2524 71.7511 78.3698 71.6827C77.4812 71.3414 76.902 70.6947 76.2486 70.1454C76.0978 70.0123 75.9545 69.8711 75.8193 69.7222C75.7561 69.6558 75.6974 69.5483 75.6058 69.5761C75.4705 69.6172 75.522 69.7554 75.5301 69.8539C75.5751 70.3741 75.5285 70.8982 75.3927 71.4024C75.0867 72.5365 74.2977 73.2738 73.3241 73.8044C71.5985 74.7448 69.8199 74.7501 67.9914 74.0389C66.467 73.4461 65.1877 72.5099 63.9887 71.4357C63.7091 71.1852 63.391 70.9756 63.16 70.6722C63.3309 70.5994 63.4052 70.7578 63.5071 70.8288C63.9095 71.1093 64.3029 71.4028 64.6996 71.6914C65.7094 72.4555 66.7954 73.0692 68.0347 73.3801C69.8321 74.0439 71.6027 74.0981 73.2625 73.017C74.2926 72.3462 74.8655 71.3939 74.8034 70.101C74.7387 68.7567 74.3646 67.4795 74.0507 66.1876C73.8813 65.4907 73.7385 64.7949 73.8635 64.0709C74.0127 63.2065 74.4944 62.5689 75.195 62.0762C75.2377 62.0462 75.2983 61.9713 75.3547 62.0698C75.3362 62.1167 75.3099 62.16 75.2768 62.1981C74.1916 63.054 74.0415 64.1816 74.3361 65.4389C74.4249 64.8345 74.5704 64.2398 74.7706 63.6627C74.9809 63.0733 75.2809 62.52 75.6602 62.0223C75.5183 61.9264 75.4579 62.1087 75.3481 62.0763C75.4759 61.8437 75.6722 61.7243 76.133 61.6057C75.9433 61.9232 75.6859 62.1842 75.5676 62.5279C75.013 63.7343 74.9735 64.9955 75.1684 66.2817C75.1804 66.9854 75.3952 67.6354 75.7236 68.2461C76.3786 69.464 77.1254 70.6082 78.294 71.4163C78.5085 71.5646 78.6799 71.5986 78.9231 71.5183C79.6778 71.2692 80.4146 70.9619 81.2022 70.8157C81.4143 70.7781 81.6327 70.8001 81.8331 70.8792C82.7626 71.2116 83.646 71.65 84.5441 72.0538C84.6449 72.1043 84.7557 72.1315 84.8684 72.1333C84.9811 72.1351 85.0927 72.1114 85.195 72.0641C86.4531 71.5547 87.5675 70.8619 88.2213 69.6237C89.3357 67.5133 88.9822 64.5803 86.6087 62.9424C85.4854 62.1673 84.2893 61.5641 82.8742 61.5841C82.0714 61.5955 81.392 61.837 80.9912 62.6072C80.5601 63.4354 81.0387 64.3821 81.9651 64.5088C82.6395 64.601 83.1034 63.9253 82.8529 63.2117C82.8169 63.1248 82.7757 63.0402 82.7296 62.9582C82.8569 62.9231 82.9237 63.017 83.0078 63.0828C83.372 63.3821 83.7655 63.644 84.1822 63.8644C84.489 64.0175 84.7804 64.2204 85.2257 64.3005C84.9419 63.9325 84.5947 63.618 84.2004 63.3721C83.9018 63.1908 83.5921 63.0279 83.2873 62.8568ZM97.7878 61.0732C97.8065 60.7729 97.7951 60.4714 97.7537 60.1734C97.7165 59.8387 97.6646 59.5052 97.6052 59.1736C97.0807 56.2436 94.3053 54.4337 91.418 55.1559C90.4658 55.3941 89.6949 55.9244 89.1794 56.7773C89.0644 56.9675 88.8814 57.2234 89.0056 57.4068C89.1085 57.5588 89.3789 57.387 89.5614 57.3369C90.1054 57.1876 90.6957 57.1847 91.1912 56.887C91.5386 56.6695 91.9538 56.5873 92.3578 56.6559C93.4368 56.836 94.3078 57.3806 94.9116 58.2906C96.5785 60.8032 95.2896 64.2696 92.3418 65.2669C91.4348 65.5737 90.5012 65.6727 89.5551 65.6699C89.2317 65.669 89.1731 65.7689 89.2377 66.0622C89.3378 66.5526 89.3586 67.0558 89.2993 67.5527C89.2507 68.0284 89.26 68.0254 89.7173 67.9609C91.1441 67.7595 92.5015 67.3208 93.8222 66.7593C94.5942 66.4311 95.3319 66.0312 95.9625 65.477C97.2532 64.3427 97.7304 62.8473 97.7878 61.0732ZM86.9024 73.6322C85.9398 73.1941 85.0613 72.7835 84.174 72.3934C83.2882 71.9968 82.4276 71.5463 81.5969 71.0444C81.5509 71.0161 81.4991 70.9987 81.4453 70.9935C81.3916 70.9883 81.3374 70.9954 81.2868 71.0143C80.2491 71.3541 79.2113 71.6935 78.1734 72.0327C77.9587 72.1029 77.9336 72.1861 78.1432 72.3091C78.5735 72.5618 78.9906 72.8384 79.4293 73.0752C80.7586 73.7928 82.1603 74.3725 83.4418 75.1812C83.5817 75.2694 83.7235 75.2907 83.8608 75.2028C84.8285 74.5944 85.846 74.0689 86.9024 73.6322ZM83.5406 77.1092L83.537 77.1092C83.537 76.7986 83.5076 76.4845 83.5443 76.1783C83.5917 75.7829 83.4277 75.567 83.0923 75.3826C81.4 74.452 79.6291 73.6596 78.0447 72.5383C77.7857 72.355 77.743 72.4912 77.7572 72.7146C77.7836 73.132 77.8563 73.5497 77.8444 73.9653C77.8252 74.6331 78.0692 75.0739 78.6549 75.4502C80.1899 76.4364 81.7022 77.4582 83.2592 78.411C83.5072 78.5628 83.5491 78.4891 83.5431 78.2433C83.5338 77.8655 83.5406 77.4873 83.5406 77.1092ZM92.003 62.7633C91.916 61.7639 91.9674 60.8011 91.9781 59.8378C91.98 59.672 91.8755 59.6588 91.7482 59.6219C90.6262 59.2968 89.5079 58.9536 88.4495 58.4549C88.1039 58.2921 88.0808 58.39 88.0783 58.7009C88.0735 59.3237 88.3373 59.9235 88.2393 60.5478C88.1715 60.9802 88.4046 61.2013 88.7389 61.3633C89.783 61.8694 90.8498 62.323 92.003 62.7633ZM83.8602 76.9394H83.8638C83.8638 77.331 83.8704 77.7228 83.8614 78.1142C83.8559 78.356 83.9412 78.4144 84.1418 78.2805C84.3636 78.1325 84.5772 77.9721 84.7995 77.8248C85.4608 77.3866 86.1546 77.0048 86.8526 76.6288C87.0177 76.5398 87.2727 76.4616 87.2599 76.2205C87.2231 75.5272 87.444 74.8612 87.4442 74.1712C87.4443 73.7932 87.2885 73.7971 87.0322 73.9237C86.0778 74.3953 85.128 74.8761 84.1705 75.3412C83.9277 75.4592 83.8418 75.6234 83.8557 75.8863C83.8741 76.2364 83.8602 76.5883 83.8602 76.9394ZM92.1707 61.1692L92.1682 61.1692C92.1682 61.5877 92.1881 62.0074 92.1621 62.4243C92.1398 62.7829 92.25 62.8431 92.5707 62.7113C93.2915 62.4149 94.02 62.1369 94.7492 61.8616C94.8251 61.8357 94.893 61.7905 94.9463 61.7305C94.9996 61.6705 95.0364 61.5977 95.0531 61.5193C95.3006 60.657 95.1836 59.8223 94.8788 58.9993C94.8095 58.812 94.7022 58.7647 94.5047 58.8378C93.8118 59.0944 93.1162 59.3452 92.414 59.5747C92.2218 59.6375 92.1624 59.7237 92.1673 59.9136C92.1781 60.3319 92.1707 60.7506 92.1707 61.1692ZM88.2313 57.9422C88.4585 58.19 88.7259 58.2905 88.991 58.3731C89.8289 58.6341 90.6701 58.8779 91.4621 59.2712C91.6614 59.3702 91.8981 59.4574 92.1626 59.3575C92.8881 59.0835 93.6202 58.8272 94.3588 58.5886C94.5936 58.5129 94.6042 58.4428 94.4661 58.2654C94.0222 57.6992 93.4365 57.2603 92.7684 56.9931C92.6039 56.9349 92.4261 56.9249 92.2561 56.9645C91.7193 57.0473 91.2192 57.2591 90.6916 57.3729C89.8797 57.5479 89.0729 57.7462 88.2313 57.9422ZM98.1283 57.3724C97.9707 57.4518 97.8344 57.5204 97.6982 57.589C97.8255 57.8293 97.8558 58.124 98.1283 58.3756V57.3724ZM97.9474 57.1723C97.7228 57.093 97.5641 56.9983 97.3647 56.9984C97.536 57.4294 97.5403 57.431 97.9474 57.1723ZM75.588 69.4914C75.5804 69.4827 75.5712 69.4657 75.5656 69.4668C75.5486 69.472 75.5322 69.4792 75.5168 69.4883C75.5243 69.497 75.5333 69.5139 75.5391 69.5128C75.5563 69.508 75.5728 69.5008 75.588 69.4914Z" fill="#121316"/>
<path d="M60.6524 54.922C60.8363 55.0505 60.699 55.1863 60.6419 55.2962C60.4243 55.7149 60.1993 56.1305 59.9589 56.5365C58.9307 58.273 58.4984 60.1518 58.6123 62.1593C58.6818 63.3846 59.3472 64.2562 60.336 64.8957C62.1744 66.0847 64.1877 66.3619 66.3143 65.9659C67.9232 65.6664 69.5146 65.321 70.9334 64.4332C71.2207 64.2534 71.333 64.0911 71.3108 63.7428C71.1637 61.4341 73.6386 59.1649 75.951 59.4672C75.9924 59.4729 76.0315 59.4898 76.064 59.5162C74.7129 59.4517 73.653 60.0494 72.7306 60.9557C71.9601 61.7127 71.6765 62.6156 71.8806 63.6876C72.1172 64.9306 72.4179 66.1653 72.4078 67.4451C72.3959 68.9636 71.6919 69.8449 70.2095 70.2108C68.6522 70.5951 67.2021 70.2797 65.8029 69.5845C64.8043 69.0884 63.932 68.3852 62.9599 67.8457C62.065 67.3491 61.1465 66.9892 60.08 67.1354C58.2501 67.3862 56.2862 70.0705 57.9678 72.3398C58.4787 73.0293 59.0756 73.6006 59.9888 73.6926C60.5095 73.745 60.7896 73.5993 60.9818 73.183C61.1741 72.7666 61.1045 72.4629 60.7232 72.0965C60.4217 71.8068 60.0549 71.594 59.7728 71.2796C59.3148 70.7692 59.2019 70.1735 59.4921 69.7319C59.8233 69.2278 60.4213 69.0429 61.071 69.2785C61.3051 69.3635 61.6216 69.3581 61.7047 69.6898C61.4264 69.6448 61.199 69.458 60.9143 69.4198C60.4858 69.3624 59.9925 69.532 59.8168 69.8647C59.6137 70.2495 59.7716 70.5918 60.0058 70.9115C60.2593 71.2577 60.6229 71.4725 60.9587 71.7207C61.6213 72.2104 61.7598 72.5871 61.5445 73.3151C61.3762 73.8842 60.8984 74.2154 60.1791 74.2458C59.4048 74.2785 58.7657 73.9556 58.2179 73.4429C57.0631 72.362 56.5067 71.0978 56.9138 69.4778C57.3652 67.6819 59.3346 66.3072 61.1756 66.5482C62.2216 66.6851 63.1213 67.15 63.9928 67.6998C65.1217 68.4119 66.2503 69.1241 67.5538 69.4913C68.466 69.7522 69.4352 69.7358 70.338 69.4441C71.3086 69.1385 71.805 68.2294 71.6719 67.0516C71.5995 66.4112 71.4977 65.7733 71.4491 65.1313C71.4261 64.8274 71.3166 64.8747 71.1273 64.9674C70.3672 65.3396 69.6252 65.7522 68.8267 66.0403C67.63 66.4653 66.3796 66.7205 65.1121 66.7984C63.5829 66.9107 62.0517 66.6106 60.678 65.9296C58.8531 65.0361 57.9084 63.6472 58.0302 61.514C58.1503 59.4111 58.9287 57.5701 60.1164 55.8713C60.3287 55.5751 60.5084 55.2568 60.6524 54.922Z" fill="#121316"/>
<path d="M83.4706 60.6932C83.6671 60.2605 84.0997 60.0542 84.4055 59.7255C84.778 59.3251 85.1832 58.9552 85.5742 58.5721C86.304 57.9301 86.9647 57.2185 87.6217 56.5053C89.0045 55.0041 90.2798 53.4317 91.0966 51.5266C91.8441 49.7829 92.0326 47.9815 91.6188 46.1579C91.3074 44.7857 90.6847 43.5035 89.7988 42.4102C89.2273 41.5757 88.5364 40.8384 87.8795 40.0745C87.1144 39.1847 86.3572 38.2904 85.7061 37.3118C85.7399 37.278 85.7737 37.2442 85.8075 37.2105C86.7886 38.3632 87.9117 39.3759 88.9739 40.4491C90.5957 42.0875 91.8974 43.9446 92.3685 46.2667C92.7193 47.996 92.5964 49.6897 91.942 51.3359C91.3736 52.7655 90.4877 53.976 89.474 55.1281C87.6752 57.1725 85.6627 58.9789 83.5672 60.7029C83.5276 60.7354 83.5 60.724 83.4706 60.6932Z" fill="#121316"/>
<path d="M58.2972 50.8578C58.9579 51.1374 59.554 51.5332 60.1465 51.9272C60.5789 52.2147 60.9904 52.3099 61.47 52.073C61.8204 51.9 62.1907 51.7674 62.5421 51.5962C62.7364 51.5015 62.853 51.5094 62.9621 51.7164C63.4317 52.6071 63.5478 53.5089 63.0582 54.4269C62.795 54.9429 62.4868 55.4345 62.1371 55.8962C61.7871 55.4793 61.3773 55.1112 61.1069 54.6288C61.0802 54.574 61.0401 54.5266 60.9903 54.4912C60.9406 54.4558 60.8828 54.4333 60.8222 54.4259C60.8185 54.2958 60.8149 54.1656 60.8112 54.0354C60.8944 52.942 60.1362 52.4529 59.3388 51.9983C59.1599 51.9088 58.9758 51.8298 58.7876 51.7618C58.7174 51.4098 58.3599 51.2138 58.2972 50.8578Z" fill="#708192"/>
<path d="M85.8075 37.2104C85.7736 37.2442 85.7399 37.278 85.7061 37.3119C85.474 37.018 85.2479 36.7206 85.1791 36.338C85.2123 36.3366 85.2455 36.3353 85.2788 36.334C85.3802 36.6713 85.6093 36.9316 85.8075 37.2104Z" fill="#14456B"/>
<path d="M83.2379 61.132C83.0651 61.1934 83.0752 61.0637 83.0596 60.9609C83.1625 60.8693 83.2653 60.7778 83.3681 60.6864C83.3975 60.7183 83.427 60.7503 83.4563 60.7823C83.4561 60.9442 83.0975 60.8822 83.2379 61.132Z" fill="#14456B"/>
<path d="M83.4563 60.7821C83.4269 60.7502 83.3975 60.7182 83.368 60.6863C83.4051 60.6455 83.4388 60.6481 83.4693 60.6942C83.476 60.7143 83.4804 60.7352 83.4825 60.7563C83.4826 60.7648 83.4655 60.7735 83.4563 60.7821Z" fill="#121316"/>
<path d="M62.9952 70.5051C63.0699 70.489 63.1202 70.4971 63.0821 70.5928C63.0591 70.5922 63.0372 70.5828 63.021 70.5664C63.0048 70.5501 62.9956 70.5281 62.9952 70.5051Z" fill="#121316"/>
<path d="M63.0764 70.5869C63.152 70.5695 63.2227 70.5569 63.1621 70.6738C63.1335 70.6448 63.105 70.6159 63.0764 70.5869Z" fill="#121316"/>
<path d="M62.9166 70.3785C62.9639 70.4111 63.026 70.4341 63.0024 70.5121C62.9294 70.496 62.918 70.4405 62.9166 70.3785Z" fill="#121316"/>
<path d="M89.799 42.4102C90.6848 43.5035 91.3075 44.7857 91.619 46.1579C92.0327 47.9816 91.8443 49.783 91.0967 51.5266C90.2799 53.4318 89.0046 55.0041 87.6218 56.5053C86.9648 57.2186 86.3041 57.9301 85.5743 58.5721C84.2841 58.216 83.0041 58.1733 81.7313 58.6653C81.5088 58.7514 81.3802 59.0245 81.0953 58.97C81.5427 58.2498 82.1102 57.6118 82.7733 57.0835C83.8869 56.2196 85.0187 55.378 86.0799 54.4505C86.8734 53.7571 87.5931 52.9982 88.1783 52.1021C89.2338 50.4859 89.8554 48.7472 89.8443 46.8098C89.8305 45.7582 89.646 44.7157 89.2981 43.7232C89.5574 43.3208 89.5824 42.829 89.799 42.4102Z" fill="#708192"/>
<path d="M67.9572 43.149C68.7671 41.2742 70.0334 39.8094 71.8388 38.829C71.8928 38.8868 71.9362 38.9739 72.0024 38.9978C72.939 39.3368 73.122 40.1892 72.8665 41.0639C72.42 42.5922 71.4297 43.6971 69.9205 44.2609C68.9031 44.641 68.261 44.2593 68.0085 43.2092C68.003 43.1863 67.9748 43.1689 67.9572 43.149Z" fill="#87A0C0"/>
<path d="M77.7701 53.2158C77.9799 53.0752 78.1971 52.9472 78.4597 52.9539C78.5708 52.9568 78.5974 52.9121 78.5876 52.8175C78.7483 52.8114 78.865 52.8574 78.798 53.047C78.727 53.2479 78.8254 53.3853 78.9495 53.513C79.0247 53.5921 79.1194 53.6498 79.2241 53.6804C79.3287 53.7111 79.4396 53.7134 79.5455 53.6873C79.8354 53.6271 79.9806 53.4227 79.9965 53.1157C81.0786 53.8947 81.0835 55.3446 80.0452 56.1303C79.4697 56.5658 78.4421 56.6245 77.8216 56.2381C77.1491 55.8194 77.0851 55.1609 77.1541 54.4571C77.2024 53.9646 77.4893 53.5921 77.7701 53.2158Z" fill="#FDFDFD"/>
<path d="M74.81 41.1338C74.6301 41.1693 74.4435 41.1386 74.2844 41.0473C74.1253 40.956 74.0046 40.8104 73.9445 40.6371C73.7722 40.2126 73.9076 39.8356 74.1773 39.4716C74.721 38.7381 75.3775 38.236 76.3402 38.2798C76.7695 38.2993 77.1227 38.4592 77.3375 38.8568C77.5594 39.2673 77.4749 39.6575 77.2004 39.9879C76.6203 40.6863 75.8974 41.1328 74.81 41.1338Z" fill="#87A0C0"/>
<path d="M83.3195 63.8219C83.9799 64.2364 84.6436 64.645 85.4204 64.8105C85.466 64.821 85.5081 64.8431 85.5425 64.8748C85.5769 64.9065 85.6025 64.9466 85.6167 64.9911C85.7944 65.3615 85.8856 65.7675 85.8834 66.1783C85.8811 66.5891 85.7854 66.9941 85.6036 67.3625C85.5471 67.4833 85.4688 67.5701 85.3294 67.558C84.7043 67.5037 84.0683 67.5463 83.4592 67.3494C83.5407 66.9435 83.6659 66.5495 83.7119 66.1327C83.7911 65.4157 83.6473 64.7464 83.382 64.0913C83.3467 64.0043 83.2923 63.9229 83.3195 63.8219Z" fill="#708192"/>
<path d="M68.0346 73.38C66.7953 73.0691 65.7093 72.4555 64.6996 71.6914C64.6558 70.7385 65.4167 70.4182 66.2661 70.5706C67.4202 70.7776 68.3556 72.0739 68.2839 72.9724C68.2686 73.1632 68.2431 73.3202 68.0346 73.38Z" fill="#87A0C0"/>
<path d="M75.1683 66.2816C74.9734 64.9955 75.0128 63.7343 75.5674 62.5278C75.7892 62.7194 76.0904 62.6312 76.3478 62.7877C77.306 63.3708 77.598 64.7309 76.5717 65.6348C76.1862 65.9743 75.7268 66.264 75.1683 66.2816Z" fill="#87A0C0"/>
<path d="M77.7701 53.2158C77.4893 53.5921 77.2024 53.9647 77.1541 54.4571C77.0851 55.1609 77.1491 55.8194 77.8216 56.2382C78.442 56.6245 79.4697 56.5658 80.0452 56.1304C81.0835 55.3446 81.0786 53.8947 79.9965 53.1157C79.9806 53.4227 79.8354 53.6271 79.5455 53.6873C79.4396 53.7134 79.3287 53.7111 79.224 53.6805C79.1194 53.6498 79.0247 53.5921 78.9495 53.513C78.8254 53.3853 78.727 53.2479 78.798 53.047C78.865 52.8574 78.7483 52.8114 78.5876 52.8175C78.8674 52.6133 79.1848 52.6374 79.4955 52.6903C80.3515 52.8361 81.0597 53.5749 81.1585 54.4058C81.2687 55.3318 80.7057 56.2436 79.7901 56.6219C78.8321 57.0178 77.6902 56.7479 77.1989 56.0095C76.6317 55.157 76.941 53.644 77.7701 53.2158Z" fill="#121316"/>
<path d="M74.0385 52.1782C74.8504 51.8592 75.5792 51.9934 76.2059 52.5999C76.8136 53.188 76.9503 53.9079 76.6796 54.6864C76.3863 55.5303 75.7437 55.9973 74.8762 56.1208C73.8104 56.2726 72.9014 55.8216 72.6793 55.0224C72.4373 54.1517 72.543 53.3342 73.2251 52.6642C73.2294 52.7096 73.2337 52.7549 73.238 52.8003C73.0742 53.0144 72.9491 53.2557 72.8684 53.513C72.6057 54.3761 72.8774 55.2794 73.5147 55.631C74.4934 56.1709 75.801 55.7616 76.2919 54.7617C76.7073 53.9155 76.3923 52.8509 75.626 52.5108C75.5411 52.9373 75.2715 53.1291 74.8897 53.0348C74.5205 52.9436 74.3693 52.6438 74.4976 52.2302C74.3722 52.2417 74.2534 52.2526 74.1346 52.2635C74.1025 52.2351 74.0705 52.2066 74.0385 52.1782Z" fill="#121316"/>
<path d="M77.7605 65.3942C77.703 66.2968 77.9088 67.1967 78.3529 67.9845C78.0067 68.047 77.712 68.3016 77.3097 68.1698C76.6273 67.9463 76.405 67.2503 76.715 66.6352C76.8219 66.4231 76.9263 66.1601 77.1832 66.1038C77.5838 66.016 77.7278 65.7604 77.7605 65.3942Z" fill="#87A0C0"/>
<path d="M74.0384 52.1782C74.0704 52.2066 74.1025 52.235 74.1346 52.2634C73.9056 52.3816 73.6765 52.4998 73.4472 52.6181L73.3816 52.5516C73.5666 52.3752 73.7922 52.247 74.0384 52.1782Z" fill="#14456B"/>
<path d="M73.238 52.8003C73.2337 52.755 73.2294 52.7096 73.2251 52.6642C73.2773 52.6267 73.3295 52.5892 73.3817 52.5517C73.4036 52.5739 73.4254 52.5961 73.4473 52.6182C73.3775 52.6789 73.3078 52.7396 73.238 52.8003Z" fill="#14456B"/>
<path d="M89.7988 42.4102C89.5823 42.829 89.5573 43.3208 89.298 43.7232C88.2247 41.3289 86.3955 39.6669 84.1436 38.4202C83.6839 38.1657 83.209 37.9353 82.727 37.7261C82.633 37.6928 82.5489 37.6365 82.4821 37.5624C82.4154 37.4883 82.3682 37.3987 82.3449 37.3018C82.1367 36.5712 82.1048 35.8016 82.2517 35.0563C82.4785 33.9134 83.6105 32.8438 84.7626 32.6324C84.8132 32.6201 84.8658 32.618 84.9173 32.6263C84.9687 32.6346 85.018 32.653 85.0623 32.6806C85.5262 32.9509 85.9949 33.2131 86.4962 33.4976C85.5328 34.2211 84.8177 35.0384 85.1791 36.3379C85.2479 36.7206 85.474 37.018 85.7062 37.3119C86.3572 38.2904 87.1144 39.1846 87.8795 40.0744C88.5364 40.8384 89.2273 41.5757 89.7988 42.4102Z" fill="#A7B9CC"/>
<path d="M82.3967 30.0661C82.4883 29.0302 82.5731 28.0496 82.7522 27.0802C82.7879 26.8869 82.8142 26.7454 83.0773 26.9103C84.4318 27.7592 85.7934 28.5969 87.1621 29.4232C87.4637 29.606 87.5584 29.7852 87.4827 30.1687C87.3244 31.0036 87.2265 31.8489 87.1897 32.6979C87.162 33.2413 87.1405 33.2552 86.6875 33.0031C85.8795 32.5533 85.0709 32.1023 84.2846 31.6163C83.7606 31.2924 83.1977 31.0327 82.7085 30.6498C82.4922 30.4805 82.3215 30.3121 82.3967 30.0661Z" fill="#21A2F8"/>
<path d="M92.7696 29.4023C92.6246 29.7183 92.6685 30.227 92.5408 30.7099C92.4382 31.1409 92.3628 31.5779 92.3151 32.0183C92.2911 32.1979 92.2474 32.3073 92.0571 32.373C91.0629 32.7166 90.0415 32.951 89.0143 33.1657C88.6191 33.2483 88.2231 33.3295 87.8328 33.4319C87.6527 33.4791 87.5123 33.4755 87.5326 33.2599C87.63 32.2289 87.752 31.2001 87.8463 30.1687C87.882 29.7791 88.1159 29.6398 88.4509 29.6043C89.7866 29.4504 91.1129 29.2234 92.4238 28.9243C92.7751 28.8476 92.8356 28.9493 92.7696 29.4023Z" fill="#14456B"/>
<path d="M83.1343 26.4613C83.4762 26.2994 83.8204 26.3561 84.1482 26.3083C84.8559 26.2053 85.5663 26.1211 86.2762 26.0339C87.0868 25.9343 87.8298 26.0537 88.5555 26.498C89.7129 27.2065 90.923 27.8291 92.1102 28.489C92.164 28.5279 92.2152 28.5701 92.2637 28.6154C91.6511 28.729 91.0949 28.8371 90.5368 28.9345C89.7793 29.0667 89.0189 29.1829 88.2627 29.3223C87.9966 29.38 87.7186 29.3354 87.484 29.1972C86.0675 28.3626 84.6572 27.5178 83.2914 26.6013C83.2361 26.5581 83.1836 26.5113 83.1343 26.4613Z" fill="#5DC0F8"/>
<path d="M60.9876 51.7393C60.9876 50.8049 60.9954 49.9128 60.983 49.021C60.979 48.7372 61.1308 48.5963 61.3588 48.5168C62.581 48.0907 63.7432 47.5207 64.9384 47.0302C65.2233 46.9133 65.3523 46.9175 65.3378 47.2831C65.3139 47.8901 65.3088 48.4997 65.3376 49.1062C65.3516 49.2191 65.3297 49.3335 65.2751 49.4332C65.2205 49.5329 65.1358 49.6129 65.0331 49.6618C63.9967 50.2602 62.9512 50.8423 61.8636 51.3436C61.5878 51.4708 61.3437 51.6704 60.9876 51.7393Z" fill="#21A2F8"/>
<path d="M57.9323 46.8377C59.1841 46.3584 60.417 45.9742 61.6554 45.6077C62.0165 45.5008 62.392 45.5555 62.7326 45.6723C63.5406 45.9493 64.3337 46.2696 65.1932 46.5953C64.8479 46.8535 64.5057 46.9368 64.1907 47.0703C63.1972 47.4915 62.1963 47.8953 61.2029 48.3166C61.122 48.3589 61.0314 48.3792 60.9401 48.3753C60.8489 48.3715 60.7603 48.3437 60.6833 48.2947C59.7876 47.8008 58.8768 47.3344 57.9323 46.8377Z" fill="#5DC0F8"/>
<path d="M60.7204 51.8184C59.9611 51.2499 59.1722 50.8437 58.4032 50.407C58.1089 50.2399 57.9366 50.0327 57.9286 49.7169C57.9072 48.8703 57.7625 48.0328 57.7018 47.0865C58.4644 47.6131 59.248 47.8935 59.9652 48.3048C60.0183 48.3442 60.074 48.3801 60.1317 48.4124C60.8297 48.6979 60.8862 48.8228 60.7767 49.5633C60.6698 50.2868 60.7691 51.0198 60.7204 51.8184Z" fill="#14456B"/>
<path d="M90.3506 25.3495C91.4594 25.3598 92.2257 25.7455 92.7327 26.5723C93.3234 27.5356 93.8719 28.5199 93.438 29.7162C93.3693 29.892 93.2914 30.0641 93.2048 30.2318C93.1651 30.3137 93.1161 30.4366 93.0067 30.3796C92.913 30.3308 92.9865 30.2218 92.9968 30.1321C93.043 29.7309 93.0812 29.3274 93.0921 28.9239C93.1002 28.6218 92.963 28.4048 92.6723 28.2504C91.4591 27.6061 90.2617 26.9321 89.0497 26.2855C88.7354 26.1179 88.7671 25.9869 89.0161 25.8025C89.4567 25.4762 89.9452 25.317 90.3506 25.3495Z" fill="#A7B9CC"/>
<path d="M58.2971 50.8578C58.3598 51.2138 58.7174 51.4099 58.7875 51.7618C58.3287 51.6538 57.8796 51.508 57.4447 51.3261C56.881 51.0835 56.5989 50.6351 56.5022 50.0542C56.4107 49.5038 56.3922 48.9511 56.5569 48.4097C56.6111 48.2291 56.6865 48.0556 56.7817 47.8929C56.8976 47.6972 57.0547 47.4182 57.2678 47.4634C57.4994 47.5125 57.3793 47.828 57.3978 48.0238C57.446 48.5337 57.4871 49.0461 57.4899 49.5577C57.4931 50.1686 57.806 50.5625 58.2971 50.8578Z" fill="#A7B9CC"/>
<path d="M97.7877 61.0732C97.7303 62.8473 97.253 64.3427 95.9623 65.477C95.3318 66.0312 94.594 66.4311 93.822 66.7593C92.5013 67.3209 91.1439 67.7595 89.7171 67.9609C89.2598 68.0255 89.2505 68.0284 89.2992 67.5527C89.3585 67.0558 89.3377 66.5526 89.2376 66.0623C89.173 65.7689 89.2316 65.669 89.5549 65.67C90.5011 65.6727 91.4347 65.5737 92.3416 65.2669C95.2894 64.2696 96.5784 60.8032 94.9114 58.2906C94.3076 57.3805 93.4366 56.836 92.3577 56.6558C91.9536 56.5873 91.5385 56.6695 91.1911 56.887C90.6955 57.1846 90.1052 57.1875 89.5612 57.3369C89.3788 57.387 89.1084 57.5588 89.0054 57.4067C88.8812 57.2233 89.0643 56.9675 89.1793 56.7772C89.6947 55.9244 90.4657 55.394 91.4179 55.1558C94.3051 54.4336 97.0805 56.2436 97.605 59.1736C97.6644 59.5051 97.7164 59.8387 97.7535 60.1734C97.7949 60.4714 97.8064 60.7729 97.7877 61.0732Z" fill="#A7B9CC"/>
<path d="M86.9023 73.6322C85.8459 74.0689 84.8284 74.5943 83.8607 75.2028C83.7234 75.2907 83.5816 75.2694 83.4418 75.1811C82.1602 74.3725 80.7585 73.7927 79.4292 73.0752C78.9905 72.8384 78.5734 72.5618 78.1431 72.3091C77.9335 72.1861 77.9586 72.1028 78.1733 72.0327C79.2112 71.6934 80.249 71.354 81.2867 71.0143C81.3373 70.9954 81.3915 70.9883 81.4452 70.9935C81.499 70.9987 81.5508 71.0161 81.5968 71.0444C82.4275 71.5463 83.2881 71.9968 84.1739 72.3934C85.0613 72.7835 85.9397 73.194 86.9023 73.6322Z" fill="#5DC0F8"/>
<path d="M83.5406 77.1093C83.5406 77.4873 83.5337 77.8655 83.543 78.2434C83.5491 78.4891 83.5071 78.5628 83.2592 78.4111C81.7021 77.4582 80.1899 76.4365 78.6549 75.4502C78.0692 75.0739 77.8252 74.6332 77.8443 73.9654C77.8562 73.5497 77.7836 73.132 77.7572 72.7147C77.743 72.4912 77.7856 72.355 78.0447 72.5384C79.629 73.6597 81.3999 74.452 83.0923 75.3826C83.4277 75.5671 83.5917 75.783 83.5443 76.1783C83.5075 76.4845 83.5369 76.7987 83.5369 77.1093L83.5406 77.1093Z" fill="#21A2F8"/>
<path d="M92.0029 62.7633C90.8498 62.323 89.7829 61.8694 88.7388 61.3633C88.4046 61.2013 88.1714 60.9802 88.2393 60.5478C88.3372 59.9235 88.0735 59.3237 88.0783 58.7009C88.0807 58.39 88.1038 58.2921 88.4495 58.4549C89.5079 58.9536 90.6261 59.2967 91.7482 59.6219C91.8755 59.6588 91.9799 59.672 91.9781 59.8378C91.9673 60.8011 91.916 61.7639 92.0029 62.7633Z" fill="#14456B"/>
<path d="M83.8601 76.9394C83.8601 76.5883 83.874 76.2365 83.8555 75.8863C83.8417 75.6235 83.9276 75.4592 84.1703 75.3413C85.1278 74.8761 86.0777 74.3954 87.0321 73.9238C87.2884 73.7971 87.4442 73.7932 87.4441 74.1713C87.4439 74.8613 87.223 75.5273 87.2598 76.2206C87.2726 76.4616 87.0176 76.5399 86.8525 76.6288C86.1545 77.0048 85.4607 77.3866 84.7994 77.8248C84.5771 77.9721 84.3635 78.1325 84.1417 78.2806C83.9411 78.4145 83.8557 78.356 83.8613 78.1142C83.8703 77.7228 83.8637 77.331 83.8637 76.9394H83.8601Z" fill="#14456B"/>
<path d="M92.1706 61.1691C92.1706 60.7506 92.178 60.3318 92.1672 59.9135C92.1623 59.7236 92.2217 59.6374 92.4139 59.5746C93.1161 59.3451 93.8117 59.0943 94.5046 58.8377C94.7021 58.7646 94.8094 58.8119 94.8787 58.9992C95.1836 59.8223 95.3005 60.6569 95.053 61.5192C95.0363 61.5977 94.9995 61.6705 94.9462 61.7305C94.893 61.7905 94.825 61.8356 94.7491 61.8615C94.0199 62.1368 93.2915 62.4149 92.5707 62.7112C92.25 62.8431 92.1398 62.7828 92.1621 62.4242C92.188 62.0074 92.1681 61.5876 92.1681 61.1692L92.1706 61.1691Z" fill="#21A2F8"/>
<path d="M88.2312 57.9422C89.0728 57.7462 89.8796 57.5479 90.6915 57.3729C91.2191 57.2591 91.7192 57.0473 92.256 56.9645C92.426 56.9249 92.6038 56.9348 92.7684 56.9931C93.4364 57.2603 94.0221 57.6992 94.466 58.2654C94.6041 58.4428 94.5935 58.5129 94.3587 58.5886C93.6206 58.8266 92.8886 59.0829 92.1625 59.3575C91.898 59.4573 91.6613 59.3702 91.462 59.2712C90.67 58.8779 89.8288 58.634 88.9909 58.3731C88.7258 58.2905 88.4584 58.19 88.2312 57.9422Z" fill="#5DC0F8"/>
<path d="M98.1282 57.3725V58.3757C97.8556 58.1241 97.8253 57.8294 97.6981 57.589C97.8343 57.5204 97.9705 57.4518 98.1282 57.3725Z" fill="#21A2F8"/>
<path d="M97.9473 57.1723C97.5402 57.431 97.5358 57.4295 97.3646 56.9984C97.564 56.9983 97.7227 57.093 97.9473 57.1723Z" fill="#87A0C0"/>
<path d="M75.5881 69.4917C75.5727 69.5008 75.5562 69.5079 75.539 69.5128C75.5333 69.5138 75.5243 69.4969 75.5167 69.4882C75.5321 69.4791 75.5485 69.4719 75.5656 69.4668C75.5712 69.4656 75.5804 69.4826 75.5881 69.4917Z" fill="#FDFDFD"/>
<path d="M73.238 52.8003C73.3077 52.7396 73.3775 52.6789 73.4472 52.6182C73.6764 52.4999 73.9056 52.3816 74.1347 52.2634C74.2533 52.2526 74.3722 52.2417 74.4976 52.2302C74.3693 52.6438 74.5205 52.9436 74.8896 53.0348C75.2715 53.1291 75.541 52.9373 75.626 52.5108C76.3923 52.8509 76.7072 53.9155 76.2918 54.7617C75.8009 55.7616 74.4934 56.1709 73.5146 55.631C72.8773 55.2794 72.6056 54.3761 72.8683 53.513C72.949 53.2556 73.0741 53.0144 73.238 52.8003Z" fill="#FDFDFD"/>
</g>
<g clip-path="url(#clip1)">
<mask id="mask0" mask-type="alpha" maskUnits="userSpaceOnUse" x="122" y="27" width="52" height="50">
<path d="M173.322 76.9867V27.0108H122V76.9867H173.322Z" fill="white"/>
</mask>
<g mask="url(#mask0)">
<path fill-rule="evenodd" clip-rule="evenodd" d="M147.711 27.0107C147.014 27.0107 146.317 27.1767 145.653 27.4752L128.862 35.5061C127.534 36.1363 126.605 37.2979 126.274 38.7248L122.125 56.7441C121.794 58.171 122.125 59.6313 123.055 60.7928L134.669 75.228C135.565 76.3564 136.926 76.9867 138.353 76.9867H156.969C158.396 76.9867 159.757 76.3564 160.653 75.228L172.267 60.7928C173.197 59.6644 173.529 58.171 173.197 56.7441L169.048 38.7248C168.717 37.2979 167.788 36.1363 166.46 35.5061L149.735 27.4752C149.105 27.1767 148.408 27.0107 147.711 27.0107ZM147.711 28.5702C148.175 28.5702 148.64 28.6698 149.072 28.869L165.863 36.8665C166.726 37.2979 167.389 38.0945 167.588 39.0235L171.736 57.0429C171.969 58.0052 171.736 59.0007 171.106 59.7639L159.491 74.1994C158.894 74.9626 157.965 75.394 157.003 75.394H138.386C137.424 75.394 136.494 74.9626 135.897 74.1994L124.282 59.7639C123.685 59.0007 123.453 58.0052 123.652 57.0429L127.8 39.0235C128.032 38.0611 128.663 37.2648 129.526 36.8665L146.317 28.8359C146.748 28.6698 147.246 28.5702 147.711 28.5702Z" fill="#326DE6"/>
</g>
<path fill-rule="evenodd" clip-rule="evenodd" d="M137.996 71.1802C138.591 71.9277 139.484 72.3403 140.416 72.3403L155.025 72.3145C155.958 72.3145 156.841 71.8761 157.437 71.1544L166.343 59.9413C166.6 59.5912 166.571 58.9048 166.571 58.3265V42.6682L147.436 53.6858V53.6855L128.319 42.6785V58.3265C128.319 58.9142 128.527 59.4874 128.908 59.9671L137.996 71.1802Z" fill="#1FBFCF"/>
<path fill-rule="evenodd" clip-rule="evenodd" d="M147.436 53.6857L166.571 42.6684L147.418 31.6574L128.319 42.6778L147.436 53.6857Z" fill="#C9E9EC"/>
<path fill-rule="evenodd" clip-rule="evenodd" d="M152.001 62.1975C151.452 62.5467 150.704 62.4471 150.255 61.8982C150.105 61.7485 150.056 61.549 150.006 61.3496L149.557 53.2185C152.999 53.6177 156.141 55.1639 158.536 57.5583L152.001 62.1975ZM145.217 61.1498C145.167 61.8484 144.618 62.4471 143.87 62.4471C143.67 62.4471 143.421 62.397 143.271 62.2974L136.637 57.5583C138.682 55.513 141.226 54.1165 144.07 53.4681C144.618 53.3682 145.117 53.2683 145.666 53.1687L145.217 61.1498ZM163.873 57.8079L164.372 57.3589V57.259C164.372 57.0098 164.422 56.7602 164.622 56.5109C165.22 55.9621 165.968 55.513 166.866 54.9645C167.016 54.8646 167.165 54.8148 167.315 54.7149C167.614 54.5655 167.864 54.4159 168.163 54.2161C168.213 54.1663 168.313 54.1165 168.412 54.0166C168.462 53.9669 168.512 53.9669 168.512 53.9168C169.211 53.3184 169.36 52.3208 168.861 51.6723C168.612 51.3229 168.163 51.1234 167.714 51.1234C167.315 51.1234 166.966 51.2731 166.617 51.5226L166.517 51.6222C166.417 51.6723 166.367 51.7719 166.268 51.8217C166.018 52.0712 165.819 52.2707 165.619 52.5202C165.519 52.6198 165.42 52.7695 165.27 52.8694C164.571 53.6177 163.923 54.2161 163.274 54.6651C163.125 54.765 162.975 54.8148 162.825 54.8148C162.726 54.8148 162.626 54.8148 162.526 54.765H162.427L161.828 55.1639C161.179 54.4657 160.481 53.867 159.783 53.2683C156.79 50.924 153.148 49.4773 149.357 49.1282L149.307 48.4797L149.208 48.3799C149.058 48.2302 148.858 48.0805 148.808 47.7314C148.759 46.9332 148.858 46.0352 148.958 45.0376V44.9878C148.958 44.8382 149.008 44.6387 149.058 44.489C149.108 44.1897 149.157 43.8904 149.208 43.5412V43.2419V43.0922C149.208 42.1945 148.509 41.4461 147.661 41.4461C147.262 41.4461 146.863 41.6456 146.564 41.9449C146.264 42.2443 146.115 42.6432 146.115 43.0922V43.1921V43.4914C146.115 43.8406 146.165 44.1399 146.264 44.4389C146.314 44.5886 146.314 44.7383 146.364 44.938V44.9878C146.464 45.9854 146.613 46.8835 146.514 47.6816C146.464 48.0307 146.264 48.1804 146.115 48.3301C146.065 48.3799 146.065 48.3799 146.015 48.4296L145.965 49.0781C145.067 49.178 144.169 49.2779 143.271 49.4773C139.43 50.3253 136.038 52.2707 133.394 55.0643L132.896 54.7149H132.796C132.696 54.7149 132.596 54.765 132.497 54.765C132.347 54.765 132.197 54.7149 132.048 54.6153C131.399 54.1663 130.751 53.5178 130.052 52.7695C129.953 52.6699 129.853 52.5202 129.703 52.4204C129.504 52.1711 129.304 51.9713 129.055 51.7221C129.005 51.6723 128.905 51.6222 128.805 51.5226C128.755 51.4725 128.705 51.4725 128.705 51.4228C128.406 51.1732 128.007 51.0235 127.608 51.0235C127.159 51.0235 126.71 51.2233 126.461 51.5724C125.962 52.2209 126.112 53.2185 126.81 53.8172C126.86 53.8172 126.86 53.867 126.91 53.867C127.009 53.9168 127.059 54.0166 127.159 54.0664C127.458 54.2662 127.708 54.4159 128.007 54.5655C128.157 54.6153 128.307 54.7149 128.456 54.8148C129.354 55.3637 130.102 55.8124 130.701 56.3613C130.95 56.6105 130.95 56.8601 130.95 57.1093V57.2092L131.449 57.6582C131.349 57.8079 131.25 57.9075 131.2 58.0571C130.615 58.9816 130.118 59.9455 129.704 60.937L132.547 64.4459C132.932 63.088 133.495 61.7761 134.242 60.5514L140.178 65.8391C140.727 66.2878 140.777 67.136 140.328 67.6846C140.178 67.8841 139.979 68.0338 139.73 68.0839L136.302 69.079L138.005 71.1802C138.6 71.9279 139.493 72.3402 140.425 72.3402L155.035 72.3144C155.967 72.3144 156.851 71.8763 157.446 71.1544L159.045 69.141L155.543 68.1336C154.844 67.9342 154.445 67.2356 154.595 66.5374C154.645 66.3379 154.744 66.1384 154.894 65.9888L160.93 60.5514C161.665 61.7619 162.249 63.1226 162.652 64.6001L165.552 60.9485C165.084 59.8559 164.523 58.8067 163.873 57.8079Z" fill="#326DE6"/>
</g>
</g>
<defs>
<filter id="filter0_d" x="0" y="0" width="230" height="160" filterUnits="userSpaceOnUse" color-interpolation-filters="sRGB">
<feFlood flood-opacity="0" result="BackgroundImageFix"/>
<feColorMatrix in="SourceAlpha" type="matrix" values="0 0 0 0 0 0 0 0 0 0 0 0 0 0 0 0 0 0 127 0"/>
<feOffset dy="10"/>
<feGaussianBlur stdDeviation="10"/>
<feColorMatrix type="matrix" values="0 0 0 0 0 0 0 0 0 0 0 0 0 0 0 0 0 0 0.15 0"/>
<feBlend mode="normal" in2="BackgroundImageFix" result="effect1_dropShadow"/>
<feBlend mode="normal" in="SourceGraphic" in2="effect1_dropShadow" result="shape"/>
</filter>
<clipPath id="clip0">
<rect width="42.479" height="54" fill="white" transform="translate(56 25)"/>
</clipPath>
<clipPath id="clip1">
<rect width="51.3909" height="50" fill="white" transform="translate(122 27)"/>
</clipPath>
</defs>
</svg>
