<svg width="88" height="36" viewBox="0 0 88 36" fill="none" xmlns="http://www.w3.org/2000/svg">
<g clip-path="url(#clip0_14092_28088)">
<path d="M7.60856 30.2512C7.36856 30.0472 7.0497 29.9803 6.80028 29.7926C6.74456 29.5715 6.53456 29.5749 6.37771 29.5183C5.94485 29.3615 5.54629 29.484 5.32514 29.82C5.13143 30.1149 5.20686 30.5117 5.512 30.852C5.70057 31.062 5.94485 31.2034 6.14628 31.3972C6.39999 31.6414 6.44628 31.8429 6.31771 32.1214C6.18999 32.3983 6.00314 32.496 5.656 32.4609C5.04743 32.3991 4.64972 32.0186 4.30858 31.5592C3.1883 30.0463 4.49715 28.2566 5.71686 28.0895C6.42828 27.9918 7.04027 28.2318 7.63684 28.5626C8.28484 28.9226 8.86683 29.3915 9.53197 29.7223C10.4654 30.1852 11.4322 30.396 12.4702 30.1397C13.4585 29.8955 13.9274 29.3083 13.9359 28.296C13.9419 27.4423 13.7422 26.6195 13.5845 25.7906C13.4474 25.0766 13.6368 24.4741 14.1502 23.9701C14.7656 23.3658 15.4719 22.9672 16.3728 23.0101C16.3511 22.9925 16.325 22.9812 16.2973 22.9775C14.7562 22.7761 13.1062 24.2889 13.2039 25.8275C13.2194 26.0598 13.1439 26.1678 12.9528 26.2878C12.0065 26.8792 10.9462 27.1106 9.87311 27.3095C8.45541 27.5735 7.11313 27.3892 5.88743 26.5963C5.22829 26.1703 4.78515 25.5892 4.73886 24.7723C4.66258 23.4335 4.95058 22.1812 5.63628 21.0232C5.79657 20.7532 5.94657 20.4755 6.09142 20.197C6.13 20.1232 6.22171 20.0332 6.09914 19.9475C6.05885 19.8104 6.24314 19.7504 6.21142 19.6167C6.25193 19.6216 6.29056 19.6365 6.3238 19.6602C6.35704 19.6838 6.38382 19.7154 6.40171 19.7521C6.58171 20.0735 6.85513 20.3187 7.08827 20.5964C6.72485 21.2512 6.39056 21.9164 6.25514 22.6629C6.14371 23.2749 6.18314 23.8638 6.52771 24.4038C7.0677 25.2532 7.9197 25.5695 8.8514 25.6603C10.4534 25.8146 11.8574 25.3321 13.0497 24.2324C14.0251 23.3315 14.2394 22.1667 13.6239 21.0061C13.3479 20.485 12.9879 20.0255 12.6262 19.5652C12.0545 18.8367 11.4502 18.1338 11.026 17.2973C10.1508 15.5701 10.2082 13.8404 10.9685 12.0987C10.9805 12.1116 10.9994 12.1236 11.0028 12.139C11.1708 12.8384 11.5994 13.093 12.2774 12.8402C13.2837 12.4639 13.9436 11.7276 14.2411 10.7085C14.4125 10.1256 14.2899 9.55732 13.6651 9.33104C13.6214 9.31476 13.5922 9.25733 13.5562 9.21876C14.0534 8.88104 14.6208 8.68733 15.1899 8.54333C16.4816 8.2119 17.8322 8.18257 19.137 8.45762C20.7032 8.77563 22.1475 9.53043 23.3027 10.6347C24.0133 11.3085 24.5927 12.0653 24.8439 13.0467C25.1901 14.395 25.0838 15.6841 24.4813 16.9407C23.9241 18.103 23.0687 19.0038 22.0607 19.7804C21.2576 20.3984 20.4467 21.0104 19.9127 21.9035C19.6916 22.2747 19.4927 22.6535 19.3607 23.1275C19.5733 22.9835 19.5982 22.7761 19.7267 22.6458C19.917 22.6818 20.0027 22.5001 20.151 22.4427C20.9996 22.1144 21.8533 22.1427 22.713 22.3809C22.4524 22.6364 22.1816 22.8824 21.9339 23.1498C21.7299 23.3684 21.4419 23.5064 21.3107 23.7944L21.3099 23.7952C21.2893 23.7644 21.267 23.7626 21.2422 23.7901L21.0365 23.9726C20.7656 24.1672 20.1519 24.2555 19.9239 24.0952C20.0327 24.2838 19.9667 24.3781 19.8407 24.4775C19.6093 24.6609 19.4722 24.9103 19.395 25.1992C19.239 25.7932 19.6265 26.1935 20.1056 26.406C20.5256 26.5946 20.7913 26.4292 21.0519 25.8686C21.1264 25.7075 21.1607 25.8292 21.2096 25.8806C21.1924 25.9475 21.2285 26.0023 21.2516 26.0606C21.4282 26.4969 21.5242 26.9435 21.4719 27.4209C21.441 27.6986 21.357 27.9609 21.303 28.2318C21.2762 28.2331 21.2492 28.2325 21.2225 28.23C19.4602 27.9472 18.2936 26.5989 18.267 24.8203C18.2653 24.7192 18.3133 24.5966 18.1873 24.5058L18.123 25.2403L18.1273 25.2343C18.0305 25.2823 17.9799 25.3681 17.9302 25.4598C17.6816 25.9183 17.5668 26.4155 17.5042 26.9289C17.4819 27.1723 17.3859 27.3429 17.1185 27.402C16.9479 27.4389 16.8785 27.6146 16.8073 27.756C16.6008 28.1658 16.7482 28.6303 17.2033 28.7786C17.4716 28.8669 17.6679 28.6972 17.8993 28.6552L18.0399 28.8523C18.5268 29.5397 19.167 29.9966 20.013 30.1063C20.6439 30.1877 21.2447 30.042 21.813 29.7652C22.2784 29.5487 22.6773 29.2116 22.9684 28.7889C23.4501 28.0758 23.4716 27.3309 23.0336 26.6083C22.6119 25.9141 22.0222 25.3998 21.1882 25.2369C21.0562 25.2112 20.9096 25.1109 20.817 25.3046C20.847 25.3595 20.8745 25.4161 20.8985 25.4735C21.0656 25.9492 20.7562 26.3992 20.307 26.3383C19.6899 26.2535 19.3702 25.6226 19.6573 25.0706C19.9247 24.5572 20.3773 24.3961 20.913 24.3884C21.8559 24.3755 22.653 24.7775 23.403 25.2943C24.9853 26.3863 25.2201 28.3415 24.4779 29.748C24.0416 30.5734 23.2993 31.0354 22.4602 31.3749C22.392 31.4064 22.3176 31.4222 22.2425 31.421C22.1674 31.4199 22.0936 31.4017 22.0264 31.368C21.4273 31.0989 20.8385 30.8066 20.2187 30.5854C20.0854 30.5326 19.94 30.5178 19.7987 30.5426C19.2733 30.6403 18.7822 30.8452 18.279 31.0114C18.1162 31.0646 18.0022 31.0423 17.859 30.9429C17.0808 30.4046 16.5819 29.6417 16.1456 28.83C15.9271 28.4229 15.7839 27.99 15.7762 27.5203C16.1482 27.5083 16.4542 27.3146 16.7113 27.0892C17.3953 26.4866 17.2008 25.5798 16.5622 25.1906C16.3908 25.0869 16.1902 25.1452 16.0419 25.0175C16.1208 24.7886 16.2922 24.6146 16.4191 24.4029C16.1113 24.4818 15.9811 24.5615 15.8962 24.7166L15.9005 24.7123C15.8628 24.6464 15.8225 24.6969 15.7933 24.7166C15.3262 25.0449 15.0048 25.4709 14.9062 26.0461C14.8222 26.5286 14.9182 26.9932 15.0305 27.4578C15.2396 28.3192 15.4891 29.1703 15.5328 30.066C15.5739 30.9283 15.1916 31.5634 14.5051 32.0109C13.3994 32.7309 12.2182 32.6949 11.02 32.2526C11.1588 32.2123 11.176 32.1077 11.1862 31.9809C11.2342 31.3817 10.6102 30.5177 9.84054 30.3797C9.27483 30.2777 8.7674 30.4912 8.79655 31.1263C8.53255 30.9343 8.27026 30.7389 8.00198 30.552C7.93341 30.504 7.88455 30.3986 7.77055 30.4474L7.77141 30.4483C7.81255 30.3712 7.76541 30.3789 7.71484 30.39L7.71827 30.3943C7.74398 30.3309 7.7097 30.3257 7.66084 30.336L7.66513 30.3403C7.68141 30.2889 7.63941 30.2734 7.60856 30.2512ZM14.5848 18.367C14.5505 18.3927 14.5154 18.4167 14.4802 18.4415C14.0259 18.889 13.9548 19.4332 14.1168 20.0144C14.2642 20.5467 14.8711 20.8475 15.5808 20.7464C16.1593 20.6641 16.5879 20.3521 16.7833 19.7898C16.9633 19.2712 16.8725 18.7913 16.4679 18.3995C16.0496 17.995 15.5636 17.905 15.0228 18.1184C14.8586 18.1641 14.7082 18.2495 14.5848 18.367ZM18.0553 18.5444C18.0622 18.607 18.0442 18.637 17.9696 18.6353C17.7948 18.631 17.6499 18.7158 17.5102 18.8101C16.9573 19.0955 16.7516 20.1044 17.1296 20.6718C17.4571 21.1647 18.2182 21.3447 18.8568 21.0807C19.467 20.8278 19.8425 20.2201 19.7696 19.603C19.7036 19.0493 19.2313 18.5573 18.6605 18.4595C18.4539 18.4244 18.2422 18.4081 18.0553 18.5444ZM15.5371 10.7547C16.2622 10.7547 16.7439 10.4565 17.1313 9.99189C17.3139 9.77075 17.3696 9.51104 17.2222 9.23761C17.0791 8.9719 16.8433 8.86562 16.5571 8.8519C15.9151 8.82362 15.4771 9.1579 15.1154 9.64732C14.9354 9.88989 14.8454 10.141 14.9602 10.4239C15.0004 10.5392 15.0809 10.6362 15.1869 10.697C15.2929 10.7578 15.4172 10.7783 15.5371 10.7547Z" fill="#A7B9CC"/>
<path d="M10.9713 12.0998C10.2111 13.8415 10.1536 15.5712 11.0288 17.2983C11.453 18.1349 12.0573 18.8369 12.629 19.5663C12.9908 20.0266 13.3507 20.486 13.6267 21.0063C14.2422 22.1686 14.0279 23.3326 13.0525 24.2334C11.8602 25.334 10.4553 25.8166 8.85421 25.6614C7.92251 25.5714 7.07137 25.2543 6.53052 24.4048C6.18595 23.8649 6.14738 23.276 6.25795 22.6649C6.39337 21.9174 6.72766 21.2523 7.09108 20.5975C7.32439 20.2899 7.53004 19.9624 7.70565 19.6186C8.03136 19.0066 7.95422 18.4049 7.64136 17.8109C7.56851 17.6738 7.49051 17.6678 7.36108 17.7312C7.12708 17.8452 6.88023 17.9335 6.64623 18.0483C6.32652 18.2069 6.05223 18.1435 5.76424 17.9515C5.36995 17.6892 4.97224 17.4252 4.53167 17.2392C4.20425 17.042 3.99511 16.7798 3.99339 16.3718C3.98794 16.0302 3.96735 15.689 3.93168 15.3492C3.91968 15.2189 4.00025 15.0089 3.84597 14.9755C3.70282 14.9455 3.59825 15.1315 3.52025 15.2626C3.45719 15.3709 3.40713 15.4863 3.37111 15.6063C3.2614 15.9681 3.2734 16.3358 3.33511 16.7035C3.3994 17.09 3.58711 17.3892 3.96339 17.5512C4.25311 17.672 4.55225 17.7698 4.85824 17.8418C4.98339 17.8872 5.10681 17.9395 5.22595 17.9995C5.75738 18.302 6.26309 18.6286 6.20738 19.3572C5.89452 18.6758 5.30738 18.3526 4.62853 18.1512C4.33478 18.0711 4.04856 17.9655 3.77311 17.8358C3.28197 17.5906 3.05311 17.1758 3.01711 16.6495C2.97769 16.0975 2.97426 15.5472 3.37283 15.0929C3.49625 14.9515 3.61711 14.8024 3.82711 14.7921C3.851 14.7945 3.87493 14.7879 3.89425 14.7736C3.91357 14.7594 3.92691 14.7385 3.93168 14.7149C3.93459 14.6989 3.93341 14.6824 3.92825 14.6669C3.89911 14.4664 4.03368 14.4149 4.18453 14.3524C5.04167 13.9958 5.93823 13.7626 6.82023 13.4815C7.10676 13.394 7.41423 13.4039 7.69451 13.5098C8.2285 13.6984 8.76507 13.8809 9.28192 14.1132C9.50821 14.2144 9.61621 14.3284 9.58192 14.6206C9.52192 15.1461 9.53478 15.6809 9.53392 16.2115C9.53306 16.4318 9.47392 16.5903 9.27164 16.6975C8.77964 16.958 8.2945 17.2289 7.80422 17.4929C7.67994 17.5598 7.59594 17.5855 7.71251 17.7715C8.11793 18.4212 8.15479 19.1035 7.79993 19.7969C7.47422 20.4355 7.06965 21.0346 6.81423 21.71C6.6128 22.2207 6.52392 22.7689 6.55366 23.3171C6.60337 24.0928 7.18537 24.7828 8.01336 25.04C9.25621 25.4248 10.4605 25.2954 11.6185 24.7228C12.2492 24.4133 12.8173 23.9899 13.2942 23.474C13.7767 22.9511 13.8976 22.3434 13.6619 21.6766C13.4142 20.9754 12.9368 20.4209 12.4748 19.8577C11.8953 19.1506 11.2439 18.5043 10.7605 17.7158C10.0628 16.5792 9.81506 15.3552 9.94706 14.0421C10.1073 12.4512 10.7271 11.0644 11.8353 9.91239C12.7833 8.92668 13.967 8.34383 15.2853 8.04555C16.8976 7.67698 18.5793 7.74555 20.1556 8.24612C20.1898 8.25726 20.225 8.26497 20.261 8.27183C20.267 8.27354 20.2756 8.26497 20.3047 8.24954C19.9996 7.55098 19.8984 6.83184 20.2181 6.1067C20.549 5.35585 21.209 5.06271 22.0121 4.90328C21.749 4.72329 21.5261 4.57157 21.3024 4.42072C21.2587 4.38957 21.2129 4.3615 21.1653 4.33672C20.5267 4.02386 20.183 3.58329 20.3613 2.81273C20.4684 2.3533 20.4898 1.87331 20.5987 1.40788C20.693 1.00503 20.9313 0.777888 21.3187 0.705889C22.1475 0.551604 22.9764 0.386177 23.8275 0.392177C24.0795 0.397319 24.3247 0.468462 24.5407 0.597889C24.6547 0.663032 24.7344 0.687032 24.8304 0.559318C25.2967 -0.0578199 26.4718 -0.182105 27.0992 0.278177C27.8458 0.826745 28.3138 1.57674 28.4278 2.50759C28.5101 3.18473 28.1963 3.72729 27.7429 4.197C27.5886 4.35643 27.4575 4.509 27.4601 4.74986C27.4626 4.90843 27.3606 5.00443 27.2098 5.06357C26.3355 5.403 25.4235 5.60528 24.5098 5.79813C24.2192 5.85899 23.939 6.02613 23.621 5.84613C23.5095 5.78356 23.4152 5.95499 23.315 6.01842C22.7587 6.3767 22.4458 6.8687 22.5187 7.55612L22.4527 7.55869C22.2118 6.69299 22.6884 6.14785 23.3304 5.66528C22.9961 5.47585 22.6841 5.301 22.3747 5.121C22.3452 5.10261 22.3124 5.09027 22.2781 5.08468C22.2438 5.07909 22.2088 5.08036 22.175 5.08843C21.407 5.22985 20.6518 5.94299 20.501 6.70499C20.4033 7.20212 20.4238 7.71469 20.5635 8.20154C20.5791 8.26615 20.6105 8.32585 20.655 8.37524C20.6994 8.42463 20.7555 8.46215 20.8181 8.4844C21.1395 8.62411 21.4558 8.77754 21.7618 8.94725C23.2635 9.77868 24.4832 10.8861 25.1989 12.4821C25.4304 13.1438 25.5538 13.8389 25.5624 14.5401C25.5701 15.8318 25.1552 16.9915 24.4515 18.068C24.0615 18.6655 23.5824 19.172 23.0527 19.634C22.3455 20.252 21.5913 20.8134 20.849 21.3894C20.4067 21.7409 20.0278 22.1669 19.7304 22.6469C19.6018 22.7763 19.5761 22.9846 19.3636 23.1286C19.4956 22.6546 19.6944 22.2766 19.9156 21.9054C20.4496 21.0114 21.2604 20.3995 22.0635 19.7815C23.0715 19.0049 23.927 18.104 24.4849 16.9418C25.0875 15.6852 25.1929 14.3961 24.8467 13.0478C24.5955 12.0664 24.0152 11.3095 23.3064 10.635C22.1509 9.5305 20.7064 8.77569 19.1398 8.45783C17.835 8.18309 16.4843 8.21271 15.1927 8.5444C14.6245 8.68926 14.057 8.88211 13.559 9.21982C12.3556 9.87296 11.5113 10.8501 10.9713 12.0998ZM20.597 3.37758C20.5473 3.54215 20.6613 3.65444 20.8053 3.76672C21.131 4.02215 21.5073 4.19529 21.8561 4.41129C22.3807 4.73529 22.919 5.03614 23.4581 5.33614C23.7598 5.50414 23.7744 5.49471 23.7924 5.13214C23.8181 4.56643 23.8824 4.00243 23.9878 3.44615C24.0392 3.19073 23.9758 3.07073 23.7744 2.94901C22.8629 2.39688 21.9552 1.83859 21.0513 1.27417C20.8755 1.16446 20.8584 1.25874 20.8344 1.38731C20.7144 2.03359 20.6578 2.68759 20.597 3.37758ZM27.5132 2.9353C27.5561 2.63359 27.5166 2.56502 27.2818 2.61645C26.4084 2.81616 25.5247 2.96787 24.6332 3.07073C24.4104 3.09387 24.2544 3.18644 24.2304 3.44615C24.1678 4.13358 24.0864 4.81929 24.0212 5.50671C24.0084 5.65071 24.1018 5.65242 24.2218 5.62156C24.4815 5.55299 24.7455 5.49899 25.0095 5.44414C25.6944 5.301 26.3749 5.14414 27.0375 4.91614C27.1644 4.87157 27.1935 4.79871 27.2098 4.67957C27.2417 4.38585 27.2921 4.09442 27.3606 3.80701C27.4455 3.48472 27.4164 3.14616 27.5132 2.9353ZM21.089 0.975029C21.1224 1.0076 21.1575 1.03931 21.1944 1.0676C22.1047 1.67874 23.045 2.24188 23.9887 2.79902C24.1452 2.89109 24.3307 2.92078 24.5081 2.88216C25.0121 2.78873 25.5195 2.71159 26.0244 2.6233C26.3964 2.55816 26.7675 2.48616 27.1755 2.41073C27.143 2.38061 27.1087 2.35255 27.0726 2.32673C26.2815 1.88617 25.4749 1.47131 24.7035 0.999029C24.2201 0.703317 23.7247 0.623603 23.1838 0.69046C22.7107 0.747888 22.2367 0.803602 21.7653 0.87303C21.5467 0.904744 21.317 0.86703 21.089 0.975029ZM6.32566 17.8263C6.56309 17.7809 6.72594 17.6472 6.91023 17.5623C7.63451 17.228 8.33222 16.8406 9.02307 16.4412C9.09145 16.4085 9.14784 16.3552 9.18429 16.2888C9.22074 16.2223 9.2354 16.1461 9.22621 16.0709C9.20859 15.666 9.20859 15.2604 9.22621 14.8555C9.23478 14.6121 9.14907 14.6095 8.95964 14.6875C8.1625 15.0141 7.38765 15.3938 6.57337 15.6783C6.42166 15.7315 6.32052 15.8249 6.32309 16.0143C6.33166 16.6092 6.32566 17.204 6.32566 17.8263ZM4.2891 14.5589C4.91824 14.8898 5.52595 15.2009 6.12338 15.5301C6.17473 15.5627 6.23377 15.5812 6.29456 15.5838C6.35536 15.5863 6.41575 15.5728 6.46966 15.5446C7.13137 15.2635 7.79822 14.9944 8.46164 14.7132C8.67164 14.6249 8.89878 14.5692 9.13021 14.3969C8.55593 14.1801 8.02793 13.9666 7.48879 13.7815C7.26251 13.7044 7.01137 13.6675 6.77137 13.7386C5.93352 13.9794 5.10546 14.2531 4.2891 14.5589ZM6.14738 17.8795C6.17995 17.3472 6.11395 16.8586 6.18509 16.3761C6.25795 15.8823 6.22023 15.7992 5.75567 15.6089C5.717 15.5874 5.67978 15.5633 5.64424 15.5369C5.16596 15.2626 4.64396 15.0758 4.13568 14.7244C4.17596 15.3552 4.27282 15.9141 4.28653 16.4781C4.29168 16.6889 4.40653 16.8269 4.60282 16.9383C5.11538 17.2298 5.64167 17.5006 6.14738 17.8795ZM25.9001 0.233606C25.6301 0.211321 25.3044 0.317606 25.0104 0.535318C24.8441 0.658746 24.8235 0.745317 25.0327 0.857602C25.8409 1.28874 26.6389 1.73788 27.4481 2.16731C27.6418 2.27016 27.7335 2.41502 27.7275 2.61645C27.7206 2.88559 27.6949 3.15473 27.6641 3.42215C27.6572 3.48215 27.6084 3.55415 27.6709 3.58672C27.7438 3.62444 27.7764 3.54301 27.8029 3.48815C27.8603 3.37672 27.9126 3.26187 27.9581 3.1453C28.2478 2.3473 27.8818 1.69074 27.4884 1.04874C27.1506 0.497604 26.6398 0.240463 25.9001 0.233606Z" fill="#121316"/>
<path d="M21.191 25.238C22.0259 25.4008 22.6139 25.9151 23.0365 26.6094C23.4745 27.332 23.453 28.0768 22.9713 28.79C22.6799 29.2134 22.2813 29.5502 21.8159 29.7671C21.2476 30.0431 20.6468 30.1888 20.0159 30.1074C19.1699 29.9977 18.5296 29.5417 18.0428 28.8534L17.9022 28.6562C17.6062 28.1312 17.4689 27.5315 17.5071 26.93C17.5696 26.4166 17.6845 25.9194 17.9331 25.4608C17.9828 25.3691 18.0334 25.2834 18.1302 25.2363C18.0736 25.358 18.0136 25.478 17.9631 25.6014C17.7359 26.15 17.6202 26.72 17.7059 27.3131C17.9116 28.7522 19.3885 30.1417 21.1542 29.5417C21.5716 29.4002 21.9599 29.2022 22.2908 28.8457C21.5108 28.7822 20.7856 28.6691 20.0991 28.3785C19.3551 28.0631 18.7774 27.5814 18.4731 26.804C18.2759 26.2983 18.2279 25.7651 18.1259 25.2414L18.1902 24.5069C18.3162 24.5977 18.2674 24.7203 18.2699 24.8214C18.2956 26.6 19.4631 27.9483 21.2253 28.2311C21.2521 28.2336 21.279 28.2341 21.3059 28.2328C21.7122 28.3648 22.1365 28.3357 22.553 28.3725C22.6456 28.3811 22.6979 28.3228 22.7356 28.2423C22.8568 27.9966 22.9206 27.7265 22.9221 27.4525C22.9236 27.1786 22.8627 26.9078 22.7442 26.6608C22.7345 26.6312 22.7173 26.6046 22.6944 26.5836C22.6714 26.5626 22.6434 26.5479 22.613 26.5408C22.0953 26.4303 21.653 26.1577 21.2125 25.8808C21.1636 25.8303 21.1293 25.7086 21.0548 25.8706C20.795 26.4303 20.5285 26.5948 20.1085 26.4071C19.6293 26.1937 19.2419 25.7943 19.3988 25.2003C19.4751 24.9114 19.6113 24.662 19.8436 24.4786C19.9705 24.3791 20.0356 24.2849 19.9268 24.0963C20.1548 24.2566 20.7685 24.1683 21.0393 23.9737C21.0496 24.0423 21.0436 24.1289 21.1585 24.0886C22.8256 24.2737 24.1087 25.0426 24.8956 26.5571C24.9702 26.7011 25.043 26.7688 25.2162 26.7611C26.0099 26.7234 26.8036 26.6788 27.5201 26.2897C28.0996 25.9751 28.5633 25.538 28.8401 24.8711C28.373 25.0529 27.9393 25.2123 27.5133 25.3897C27.191 25.5234 26.9107 25.5457 26.5704 25.3683C25.9859 25.0623 25.3533 24.8523 24.7584 24.5574C24.377 24.3689 24.1705 24.1049 24.1807 23.6789C24.1919 23.1929 24.1002 22.712 24.1267 22.2234C24.1396 21.9792 24.221 21.8249 24.4713 21.8034C24.6582 21.7863 24.7336 21.6877 24.8056 21.5189C25.307 20.354 26.6553 19.6392 28.007 19.7926C28.9096 19.8955 29.645 20.3043 30.2441 20.9729C30.4104 21.1589 30.6453 21.1632 30.8553 21.224C31.3198 21.3577 31.3173 21.3474 31.319 21.8369C31.3215 22.5457 31.2615 23.2511 31.3061 23.9643C31.3685 24.838 31.1589 25.7096 30.7061 26.4594C30.2887 27.1494 29.6656 27.6105 28.9576 27.9637C27.8298 28.5299 26.5853 28.8249 25.3233 28.8251C25.2264 28.8251 25.1227 28.7797 25.073 28.9442C24.719 30.098 23.7153 31.1334 22.4442 31.5208C22.7733 31.6922 23.0673 31.8474 23.3622 31.9999C23.4419 32.0411 23.5276 32.0711 23.6082 32.1114C24.3624 32.4868 24.2219 32.3308 24.2056 33.1399C24.1987 33.4999 24.1525 33.8591 24.1362 34.2182C24.1364 34.2762 24.1205 34.3332 24.0902 34.3827C24.0599 34.4322 24.0165 34.4723 23.9647 34.4985C23.1865 34.9665 22.4108 35.4405 21.629 35.9042C21.4276 36.0233 21.2253 36.0448 21.0008 35.8948C20.0356 35.2502 19.0482 34.6408 18.0985 33.9714C17.6228 33.6354 17.3982 33.2016 17.3614 32.6479C17.3408 32.3437 17.2799 32.0428 17.3056 31.7334C17.3262 31.4797 17.4299 31.3211 17.6699 31.2431C17.7536 31.2081 17.8349 31.1677 17.9134 31.1222C17.3202 30.8942 16.9345 30.4631 16.4991 30.0971C16.3985 30.0082 16.3029 29.9137 16.2128 29.8142C16.1699 29.7714 16.1314 29.6994 16.0705 29.7174C15.9805 29.7448 16.0148 29.8374 16.0191 29.9025C16.0499 30.2497 16.0191 30.5994 15.9282 30.9354C15.7242 31.6914 15.198 32.1825 14.5491 32.5365C13.3988 33.1631 12.2134 33.1665 10.9937 32.6925C9.97799 32.2982 9.12514 31.6734 8.32543 30.9577C8.13943 30.7905 7.92686 30.6508 7.77344 30.4485C7.88744 30.3997 7.93629 30.5051 8.00486 30.5531C8.27315 30.7399 8.53543 30.9354 8.79943 31.1274C9.47314 31.6374 10.1966 32.0462 11.0228 32.2537C12.2211 32.6959 13.4014 32.7319 14.508 32.0119C15.1945 31.5645 15.5768 30.9294 15.5357 30.0671C15.4928 29.1714 15.2425 28.3203 15.0334 27.4588C14.9211 26.9943 14.8251 26.5306 14.9091 26.0471C15.0085 25.4711 15.3291 25.046 15.7962 24.7177C15.8254 24.698 15.8648 24.6474 15.9025 24.7134C15.8904 24.7447 15.873 24.7737 15.8511 24.7991C15.1277 25.37 15.0282 26.1217 15.2237 26.9591C15.2837 26.5563 15.3797 26.1603 15.5134 25.7754C15.6539 25.3828 15.8537 25.0134 16.1065 24.6817C16.0122 24.6183 15.9719 24.7391 15.8982 24.7177C15.9839 24.5634 16.1142 24.4829 16.4211 24.404C16.2951 24.6157 16.1237 24.7897 16.0448 25.0186C15.6754 25.8234 15.6488 26.6643 15.7791 27.5214C15.7868 27.9903 15.9299 28.424 16.1485 28.8311C16.5857 29.6428 17.0828 30.4057 17.8628 30.9448C18.0051 31.0434 18.1199 31.0657 18.2819 31.0125C18.7851 30.8462 19.2762 30.6414 19.8016 30.5437C19.9429 30.5189 20.0883 30.5337 20.2216 30.5865C20.8413 30.8077 21.4302 31.1008 22.0293 31.3691C22.0965 31.4027 22.1703 31.4207 22.2454 31.4219C22.3205 31.4231 22.3949 31.4074 22.463 31.3759C23.3022 31.0365 24.0445 30.5745 24.4807 29.7491C25.2239 28.3425 24.9882 26.3874 23.4059 25.2954C22.6567 24.7786 21.8596 24.3766 20.9159 24.3894C20.3811 24.398 19.9276 24.5583 19.6602 25.0717C19.3731 25.6237 19.6919 26.2546 20.3099 26.3394C20.7591 26.4011 21.0685 25.9503 20.9013 25.4746C20.8776 25.4167 20.8504 25.3603 20.8199 25.3057C20.9048 25.2826 20.9485 25.3451 21.005 25.3888C21.2476 25.5886 21.5108 25.7626 21.7876 25.91C21.9925 26.012 22.187 26.1474 22.4836 26.2014C22.295 25.9554 22.0636 25.7454 21.8005 25.5817C21.6008 25.4608 21.3942 25.352 21.1919 25.2388L21.191 25.238ZM30.8587 24.0491C30.871 23.8489 30.8633 23.6479 30.8355 23.4491C30.8107 23.2263 30.7755 23.0034 30.7361 22.7823C30.3873 20.8297 28.5367 19.6229 26.6116 20.1046C25.9773 20.2632 25.463 20.6163 25.1193 21.1846C25.0422 21.3123 24.9204 21.4829 25.0036 21.6046C25.0722 21.7057 25.2522 21.5917 25.3739 21.5583C25.7364 21.4589 26.1299 21.4563 26.4607 21.2583C26.6922 21.1133 26.9689 21.0584 27.2381 21.104C27.9581 21.224 28.5384 21.5874 28.9404 22.1943C30.0521 23.8691 29.1924 26.18 27.2279 26.8451C26.6227 27.0491 26.0004 27.1151 25.3696 27.1134C25.1544 27.1134 25.115 27.1794 25.1579 27.3748C25.2247 27.7023 25.2384 28.0374 25.199 28.3691C25.1673 28.6862 25.1733 28.6837 25.4776 28.6408C26.429 28.5063 27.3341 28.214 28.2144 27.8394C28.7287 27.6208 29.2207 27.3543 29.6416 26.9848C30.5021 26.2288 30.8201 25.232 30.8587 24.0491ZM23.6013 32.4216C22.9593 32.1302 22.3739 31.8559 21.7825 31.5954C21.1921 31.331 20.6184 31.0308 20.0648 30.6962C20.034 30.6773 19.9993 30.6656 19.9634 30.6622C19.9274 30.6588 19.8911 30.6637 19.8573 30.6765L17.7822 31.3554C17.6391 31.4025 17.6219 31.4582 17.7616 31.5397C18.0488 31.7077 18.3274 31.8928 18.6188 32.0505C19.5059 32.5288 20.4402 32.9154 21.2948 33.4545C21.3873 33.5128 21.4825 33.5274 21.5733 33.4691C22.2185 33.0633 22.8969 32.7129 23.6013 32.4216ZM21.3599 34.7402H21.3582C21.3582 34.5336 21.3385 34.3236 21.3625 34.1196C21.3942 33.8565 21.2853 33.7125 21.0616 33.5891C19.9328 32.9694 18.7525 32.4405 17.6965 31.6931C17.5234 31.5714 17.4951 31.6622 17.5045 31.8105C17.5216 32.0891 17.5705 32.3676 17.5628 32.6445C17.5499 33.0902 17.7128 33.3834 18.1028 33.6345C19.1262 34.2919 20.1342 34.9733 21.173 35.6085C21.3376 35.7096 21.3659 35.6599 21.3616 35.4971C21.3556 35.2451 21.3599 34.9922 21.3599 34.7402ZM27.0016 25.1763C26.9441 24.5103 26.9784 23.8683 26.9844 23.2263C26.9861 23.1157 26.9167 23.1063 26.8319 23.0823C26.0836 22.8654 25.3387 22.6366 24.6325 22.304C24.4027 22.196 24.3873 22.2612 24.3856 22.4686C24.3822 22.8834 24.5579 23.2829 24.4927 23.6994C24.4473 23.9883 24.6024 24.1357 24.8253 24.2437C25.5222 24.5806 26.2319 24.8831 27.0016 25.1763ZM21.5742 34.6262H21.5768C21.5768 34.8876 21.581 35.1491 21.575 35.4096C21.5716 35.5708 21.6282 35.6102 21.7619 35.5211C21.9093 35.4216 22.0525 35.3153 22.2008 35.2168C22.6444 34.9304 23.1008 34.6644 23.5687 34.4196C23.6793 34.3596 23.849 34.3082 23.8405 34.1471C23.8165 33.6842 23.963 33.2411 23.963 32.7808C23.963 32.5288 23.8602 32.5322 23.6887 32.6162C23.0527 32.9308 22.4193 33.2505 21.7808 33.5608C21.6188 33.6396 21.5622 33.7494 21.5708 33.9242C21.5836 34.1574 21.5742 34.3913 21.5742 34.6262ZM27.1147 24.1134H27.113C27.113 24.392 27.1259 24.6723 27.1087 24.95C27.0941 25.1891 27.167 25.2294 27.3813 25.1411C27.8613 24.944 28.3473 24.758 28.8333 24.5754C28.8841 24.5582 28.9296 24.5281 28.9652 24.488C29.0008 24.4478 29.0254 24.3991 29.0364 24.3466C29.201 23.7723 29.123 23.2151 28.9198 22.6666C28.8736 22.5414 28.8024 22.5097 28.6704 22.5586C28.2084 22.73 27.7447 22.8972 27.2767 23.0497C27.1481 23.0926 27.1087 23.1492 27.1121 23.276C27.119 23.5546 27.1147 23.834 27.1147 24.1134ZM24.4884 21.962C24.6393 22.1266 24.8176 22.1934 24.9942 22.2492C25.553 22.4232 26.1136 22.5852 26.6424 22.8474C26.7753 22.9134 26.933 22.9717 27.1087 22.9049C27.5925 22.7222 28.0806 22.5513 28.5727 22.3923C28.7296 22.3426 28.7364 22.2954 28.6447 22.178C28.349 21.8 27.959 21.5069 27.5133 21.3295C27.4035 21.2903 27.2848 21.2834 27.1713 21.3097C26.8139 21.3654 26.4804 21.5069 26.1282 21.5823C25.5873 21.6989 25.049 21.8309 24.4884 21.962ZM31.0858 21.5814L30.7995 21.7263C30.8844 21.8866 30.9041 22.0829 31.0858 22.2509V21.5823V21.5814ZM30.9658 21.4486C30.8158 21.3954 30.7104 21.3329 30.5767 21.3329C30.6915 21.62 30.6941 21.6209 30.9658 21.4486ZM16.0594 29.6608C16.0542 29.6557 16.0482 29.6437 16.0448 29.6445C16.0334 29.6481 16.0225 29.653 16.0122 29.6591C16.0165 29.6651 16.0225 29.6762 16.0268 29.6762C16.0383 29.6727 16.0493 29.6675 16.0594 29.6608Z" fill="#121316"/>
<path d="M6.09677 19.949C6.21934 20.0347 6.12762 20.1247 6.08905 20.1976C5.9442 20.477 5.7942 20.7547 5.63477 21.0247C4.94906 22.1827 4.66021 23.435 4.73649 24.7738C4.78278 25.5907 5.22592 26.171 5.88505 26.5978C7.11076 27.3907 8.45303 27.575 9.87074 27.311C10.9439 27.1113 12.005 26.8815 12.9504 26.2893C13.1416 26.1693 13.2161 26.0613 13.2016 25.829C13.1039 24.2904 14.753 22.7776 16.2958 22.979C16.3232 22.9829 16.349 22.9941 16.3704 23.0116C15.4704 22.9687 14.7633 23.3673 14.1487 23.9716C13.6344 24.4756 13.4459 25.0773 13.5813 25.7921C13.7399 26.621 13.9396 27.4438 13.9327 28.2975C13.925 29.309 13.4561 29.8969 12.467 30.1404C11.4299 30.3975 10.463 30.1875 9.5296 29.7238C8.86446 29.3929 8.28246 28.9241 7.63533 28.5641C7.0379 28.2332 6.42591 27.9932 5.71534 28.091C4.49478 28.2581 3.18593 30.0478 4.30621 31.5606C4.64735 32.0201 5.04506 32.4006 5.65363 32.4624C6.00077 32.4966 6.18762 32.3998 6.31619 32.1229C6.44476 31.8452 6.39762 31.6429 6.14391 31.3986C5.94248 31.2049 5.6982 31.0635 5.50963 30.8535C5.20449 30.5132 5.12906 30.1164 5.32277 29.8215C5.54391 29.4855 5.94248 29.3629 6.37534 29.5198C6.53133 29.5764 6.74219 29.5729 6.7979 29.7941C6.61191 29.7641 6.46105 29.6398 6.27077 29.6141C5.98534 29.5755 5.6562 29.6887 5.53963 29.9107C5.4042 30.1669 5.50877 30.3949 5.66563 30.6084C5.83448 30.8398 6.07705 30.9821 6.29991 31.1484C6.74219 31.4741 6.83476 31.7252 6.69076 32.2112C6.57933 32.5901 6.26048 32.8112 5.78048 32.8309C5.26449 32.8532 4.83849 32.6381 4.47335 32.2961C3.70364 31.5761 3.3325 30.7327 3.60421 29.6527C3.90421 28.4552 5.2182 27.539 6.44476 27.6992C7.14247 27.791 7.74247 28.1004 8.32361 28.4672C9.07617 28.9421 9.82788 29.417 10.6979 29.6612C11.3056 29.8352 11.9519 29.8241 12.5536 29.6304C13.2007 29.4264 13.5307 28.8204 13.4424 28.0352C13.3944 27.6084 13.3267 27.1833 13.2941 26.7547C13.2787 26.5524 13.2059 26.5833 13.0799 26.6458C12.5724 26.8944 12.0779 27.1687 11.5456 27.3607C10.7484 27.6435 9.91445 27.815 9.06931 27.8664C8.0498 27.9412 7.0289 27.7411 6.11305 27.287C4.89763 26.6921 4.26678 25.7664 4.34907 24.3436C4.42878 22.9413 4.9482 21.7139 5.7402 20.5816C5.88163 20.3844 6.00077 20.1719 6.09677 19.949ZM21.3084 23.7958C21.4395 23.5079 21.7284 23.3699 21.9315 23.1513C22.1801 22.8839 22.4501 22.637 22.7106 22.3824C23.1975 21.9539 23.6381 21.4799 24.0761 21.0042C24.9975 20.003 25.8478 18.9556 26.392 17.6853C26.8909 16.523 27.016 15.3213 26.74 14.1059C26.5325 13.1911 26.1176 12.3363 25.5272 11.6074C25.1458 11.0511 24.6855 10.56 24.2475 10.0508C23.7375 9.45682 23.2326 8.86111 22.7989 8.20797L22.8666 8.14111C23.5206 8.90996 24.2689 9.58453 24.9769 10.3002C26.0586 11.3922 26.926 12.6308 27.2397 14.1788C27.4737 15.3316 27.3923 16.4605 26.956 17.5576C26.5772 18.5107 25.9866 19.3182 25.3103 20.0862C24.1112 21.449 22.7698 22.6533 21.3726 23.8027C21.3469 23.8241 21.3281 23.8164 21.3084 23.7958Z" fill="#121316"/>
<path d="M4.52344 17.2397C4.96315 17.4257 5.36086 17.6897 5.756 17.952C6.044 18.144 6.31828 18.2075 6.63885 18.0497C6.87199 17.934 7.11885 17.8457 7.35284 17.7317C7.48227 17.6683 7.56027 17.6735 7.63313 17.8115C7.94598 18.4055 8.02312 19.0072 7.69741 19.6192C7.52181 19.9629 7.31615 20.2905 7.08285 20.598C6.84971 20.3203 6.57714 20.0752 6.39628 19.7537C6.37846 19.717 6.35169 19.6854 6.31844 19.6617C6.28519 19.638 6.24652 19.6231 6.206 19.6183L6.19914 19.3577C6.25485 18.6292 5.74914 18.3035 5.21772 18C5.09834 17.9403 4.97556 17.8876 4.85001 17.8423C4.80286 17.6075 4.56458 17.4763 4.52344 17.2397Z" fill="#708192"/>
<path d="M22.8677 8.14072L22.7991 8.20843C22.6449 8.01215 22.494 7.81415 22.4477 7.55872C22.4709 7.55872 22.4923 7.55701 22.5146 7.55615C22.5831 7.78158 22.7349 7.95472 22.8677 8.14072ZM21.1543 24.0886C21.0386 24.1289 21.0454 24.0423 21.0352 23.9746L21.2409 23.7912L21.3 23.8555C21.3 23.9635 21.06 23.9215 21.1543 24.0886Z" fill="#14456B"/>
<path d="M21.2976 23.8548L21.2384 23.7913C21.2633 23.7639 21.2856 23.7656 21.3061 23.7965C21.3105 23.8098 21.3134 23.8236 21.3147 23.8376C21.3147 23.8436 21.3036 23.8496 21.2976 23.8548ZM7.65625 30.3373C7.70682 30.3261 7.74025 30.3321 7.71454 30.3956C7.6993 30.3951 7.68482 30.3888 7.67411 30.378C7.66341 30.3671 7.65646 30.3525 7.65625 30.3373Z" fill="#121316"/>
<path d="M7.71175 30.3913C7.76232 30.3802 7.80947 30.3716 7.76832 30.4496C7.74951 30.4301 7.73065 30.4107 7.71175 30.3913ZM7.60547 30.2524C7.63633 30.2747 7.67833 30.2902 7.66204 30.3416C7.61404 30.3313 7.60633 30.2944 7.60547 30.2524Z" fill="#121316"/>
<path d="M25.5324 11.6079C26.1231 12.3367 26.5384 13.1916 26.7461 14.1065C27.0213 15.3219 26.8961 16.5236 26.3973 17.6859C25.853 18.9561 25.0027 20.0036 24.0813 21.0047C23.6433 21.4804 23.2027 21.9544 22.7159 22.383C21.8562 22.1455 21.0025 22.1173 20.1539 22.4447C20.0056 22.5021 19.9199 22.6847 19.7305 22.6478C20.0279 22.1678 20.4067 21.7427 20.849 21.3904C21.5913 20.8144 22.3456 20.253 23.0527 19.635C23.5824 19.1721 24.0616 18.6664 24.4516 18.069C25.1553 16.9916 25.5701 15.8327 25.5624 14.541C25.5531 13.8401 25.4301 13.1454 25.1981 12.4839C25.3713 12.2148 25.3884 11.8873 25.5324 11.6079Z" fill="#708192"/>
<path d="M10.9688 12.0992C11.5087 10.8495 12.353 9.87238 13.5564 9.21924C13.5924 9.25781 13.6216 9.3161 13.6653 9.33152C14.2902 9.55781 14.4119 10.1261 14.2413 10.7089C13.9439 11.7281 13.2839 12.4644 12.2776 12.8406C11.5996 13.0935 11.1719 12.8389 11.003 12.1395C10.9996 12.1241 10.9807 12.1121 10.9688 12.0992Z" fill="#87A0C0"/>
<path d="M17.5111 18.8125C17.6508 18.7182 17.7956 18.6325 17.9714 18.6376C18.0451 18.6393 18.0631 18.6093 18.0562 18.5468C18.1634 18.5425 18.2414 18.5725 18.1968 18.6993C18.1496 18.8339 18.2148 18.9248 18.2979 19.0105C18.348 19.0631 18.4111 19.1015 18.4808 19.1218C18.5505 19.1421 18.6243 19.1436 18.6948 19.1262C18.8885 19.0859 18.9853 18.9505 18.9948 18.7456C19.7173 19.2651 19.7199 20.231 19.0282 20.7548C18.6442 21.0462 17.9594 21.0848 17.5454 20.8268C17.0971 20.5482 17.0542 20.1085 17.1005 19.6396C17.1331 19.3113 17.3234 19.0628 17.5119 18.8125H17.5111Z" fill="#FDFDFD"/>
<path d="M15.5382 10.7568C15.4183 10.7805 15.2939 10.7601 15.1879 10.6993C15.0819 10.6385 15.0014 10.5414 14.9614 10.4259C14.8465 10.1431 14.9365 9.89192 15.1156 9.64935C15.4791 9.16079 15.9162 8.82565 16.5582 8.85479C16.8445 8.86765 17.0802 8.97479 17.2233 9.23879C17.3708 9.51307 17.3151 9.77278 17.1316 9.99307C16.7451 10.4585 16.2634 10.7559 15.5374 10.7568H15.5382Z" fill="#87A0C0"/>
<path d="M21.2079 25.8812C21.6485 26.1572 22.0908 26.4298 22.6085 26.5404C22.6389 26.5473 22.6669 26.562 22.6899 26.583C22.7129 26.6041 22.73 26.6307 22.7396 26.6604C22.8582 26.9073 22.9191 27.1781 22.9176 27.4521C22.9161 27.726 22.8523 27.9961 22.731 28.2418C22.6933 28.3224 22.641 28.3798 22.5485 28.3721C22.1319 28.3352 21.7076 28.3635 21.3013 28.2324C21.3553 27.9624 21.4385 27.6992 21.4702 27.4215C21.5225 26.9432 21.4273 26.4975 21.2499 26.0604C21.2268 26.0029 21.1899 25.9498 21.2079 25.8812Z" fill="#708192"/>
<path d="M11.0176 32.2541C10.1913 32.0467 9.46787 31.637 8.79417 31.1279C8.76502 30.4936 9.27245 30.2793 9.83902 30.3813C10.6079 30.5184 11.2319 31.3841 11.1847 31.9824C11.1736 32.1093 11.1564 32.2138 11.0176 32.2541ZM15.7738 27.5219C15.6435 26.6647 15.6701 25.8239 16.0395 25.019C16.1878 25.1476 16.3884 25.0876 16.5598 25.1922C17.1984 25.5813 17.393 26.4882 16.709 27.0907C16.4518 27.317 16.1458 27.5107 15.7738 27.5219Z" fill="#87A0C0"/>
<path d="M17.515 18.8102C17.3281 19.0605 17.137 19.309 17.1044 19.6373C17.0581 20.1062 17.101 20.5459 17.5501 20.8244C17.9633 21.0816 18.6481 21.043 19.0321 20.7524C19.7238 20.2296 19.7213 19.2627 18.9996 18.7433C18.9884 18.9482 18.8924 19.0836 18.6987 19.1239C18.6282 19.1413 18.5544 19.1398 18.4847 19.1195C18.415 19.0992 18.3519 19.0608 18.3018 19.0082C18.2187 18.9225 18.1536 18.8316 18.2007 18.697C18.2453 18.571 18.1673 18.5402 18.0601 18.5445C18.247 18.4082 18.4587 18.4245 18.6653 18.4587C19.2361 18.5565 19.7084 19.0493 19.7744 19.603C19.8473 20.2202 19.4718 20.8287 18.8616 21.0807C18.223 21.3447 17.4618 21.1647 17.1344 20.6719C16.7564 20.1036 16.963 19.0947 17.515 18.8102ZM15.0276 18.1185C15.5684 17.905 16.0544 17.995 16.4727 18.3996C16.8773 18.7913 16.969 19.2713 16.7881 19.7899C16.5927 20.353 16.1641 20.6642 15.5856 20.7464C14.875 20.8476 14.269 20.5467 14.1216 20.0144C13.9604 19.4333 14.0307 18.889 14.485 18.4425L14.4936 18.5325C14.3844 18.6754 14.3012 18.8364 14.2476 19.0082C14.0719 19.5833 14.2536 20.1859 14.6779 20.4199C15.331 20.7799 16.2027 20.5073 16.5293 19.8404C16.807 19.2765 16.597 18.5667 16.0861 18.3405C16.0296 18.6242 15.8496 18.7519 15.595 18.6893C15.349 18.6285 15.2479 18.4287 15.3336 18.1527L15.0919 18.175L15.0276 18.1185Z" fill="#121316"/>
<path d="M17.4992 26.9292C17.4608 27.5307 17.5977 28.1303 17.8935 28.6555C17.6629 28.6975 17.4666 28.8672 17.1992 28.7789C16.7441 28.6306 16.5958 28.166 16.8023 27.7563C16.8735 27.6149 16.9429 27.4392 17.1143 27.4023C17.3809 27.3432 17.4769 27.1735 17.4992 26.9292Z" fill="#87A0C0"/>
<path d="M15.02 18.1187L15.0843 18.1752L14.6257 18.4118L14.582 18.3672C14.7055 18.2498 14.8572 18.1641 15.02 18.1187Z" fill="#14456B"/>
<path d="M14.4929 18.5341L14.4844 18.4441L14.5889 18.3687L14.6327 18.4132L14.4929 18.5341Z" fill="#14456B"/>
<path d="M25.5334 11.6073C25.3894 11.8867 25.3722 12.2141 25.1991 12.4824C24.4843 10.8864 23.2645 9.77902 21.7628 8.9476C21.4559 8.77833 21.1409 8.62386 20.8191 8.48475C20.7564 8.46261 20.7001 8.42515 20.6555 8.37575C20.6109 8.32635 20.5794 8.26659 20.5637 8.20189C20.4251 7.71493 20.404 7.20205 20.502 6.70533C20.6529 5.94248 21.408 5.2302 22.176 5.08877C22.2098 5.08066 22.2448 5.07936 22.2791 5.08495C22.3134 5.09054 22.3462 5.10292 22.3757 5.12134C22.6843 5.30134 22.9971 5.4762 23.3314 5.66563C22.6886 6.14819 22.2128 6.69333 22.4537 7.5599C22.4991 7.81447 22.6508 8.01246 22.8051 8.20875C23.2388 8.86103 23.7437 9.45674 24.2537 10.0507C24.6917 10.5599 25.152 11.051 25.5334 11.6073Z" fill="#A7B9CC"/>
<path d="M20.5892 3.37776C20.6509 2.68777 20.7075 2.03377 20.8266 1.38749C20.8506 1.25892 20.8677 1.16464 21.0435 1.27435C21.9469 1.84006 22.8546 2.39891 23.7666 2.9492C23.968 3.07091 24.0306 3.19091 23.9809 3.44634C23.8746 4.00347 23.8094 4.56661 23.7854 5.13232C23.7666 5.49489 23.752 5.50432 23.4503 5.33632C22.912 5.03632 22.3729 4.73547 21.8483 4.41147C21.4994 4.19547 21.124 4.02233 20.7975 3.7669C20.6535 3.65462 20.5395 3.54233 20.5892 3.37776Z" fill="#21A2F8"/>
<path d="M27.5088 2.93549C27.4119 3.14634 27.4402 3.48491 27.3562 3.80719C27.2877 4.09434 27.2371 4.38576 27.2054 4.67976C27.1891 4.79976 27.1599 4.87176 27.0339 4.91633C26.3705 5.14518 25.6899 5.30204 25.0051 5.44432C24.7411 5.49918 24.4771 5.55318 24.2165 5.62175C24.0965 5.65347 24.004 5.65089 24.0168 5.5069C24.082 4.81947 24.1625 4.13376 24.226 3.44634C24.25 3.18663 24.406 3.09406 24.6288 3.07006C25.5193 2.96745 26.4035 2.81608 27.2774 2.61663C27.5122 2.5652 27.5517 2.63378 27.5088 2.93549Z" fill="#14456B"/>
<path d="M21.0898 0.974571C21.3178 0.866572 21.5476 0.904286 21.7661 0.871715C22.2375 0.803144 22.7115 0.74743 23.1847 0.689145C23.7247 0.623145 24.2201 0.702859 24.7044 0.998571C25.4758 1.47085 26.2824 1.88571 27.0744 2.32627C27.1095 2.35199 27.1438 2.38027 27.1764 2.41027C26.7684 2.4857 26.3964 2.5577 26.0252 2.62284C25.5195 2.71113 25.0138 2.78827 24.509 2.8817C24.3317 2.91992 24.1465 2.88993 23.9904 2.7977C23.0458 2.24142 22.1047 1.67828 21.1953 1.06714C21.1582 1.0386 21.1229 1.00768 21.0898 0.974571Z" fill="#5DC0F8"/>
<path d="M6.31992 17.8254C6.31992 17.2022 6.32421 16.6083 6.31649 16.0134C6.31306 15.8248 6.4142 15.7305 6.56677 15.6774C7.38105 15.3928 8.15591 15.0131 8.95304 14.6866C9.14333 14.6086 9.22904 14.6111 9.21875 14.8546C9.20333 15.2591 9.1999 15.6654 9.21875 16.07C9.22815 16.1451 9.21367 16.2213 9.17737 16.2878C9.14107 16.3542 9.08478 16.4076 9.01647 16.4403C8.32562 16.8397 7.62791 17.2271 6.90277 17.5614C6.71934 17.6471 6.55649 17.78 6.31992 17.8254Z" fill="#21A2F8"/>
<path d="M4.28906 14.56C5.10542 14.2542 5.93348 13.9805 6.77133 13.7397C7.01133 13.6686 7.26161 13.7054 7.48875 13.7826C8.02789 13.9677 8.55674 14.1811 9.12931 14.398C8.8996 14.5703 8.6716 14.626 8.46074 14.7151C7.79904 14.9954 7.13218 15.2646 6.46962 15.5465C6.41566 15.5747 6.35521 15.5881 6.2944 15.5854C6.23359 15.5827 6.17458 15.564 6.12333 15.5311C5.52591 15.202 4.9182 14.8908 4.28906 14.56Z" fill="#5DC0F8"/>
<path d="M6.14451 17.8783C5.6388 17.4994 5.11252 17.2286 4.59995 16.9371C4.40367 16.8257 4.28881 16.6877 4.28281 16.4768C4.2691 15.9129 4.1731 15.354 4.13281 14.7231C4.64109 15.0746 5.16309 15.2614 5.64137 15.5357C5.67651 15.5614 5.71423 15.5854 5.7528 15.6077C6.21737 15.798 6.25508 15.8811 6.18222 16.3748C6.11108 16.8566 6.17708 17.346 6.14451 17.8783Z" fill="#14456B"/>
<path d="M25.8928 0.233681C26.6325 0.240538 27.1434 0.497679 27.4811 1.04796C27.8754 1.69081 28.2405 2.34738 27.9508 3.14452C27.905 3.26168 27.8533 3.37641 27.7957 3.48823C27.77 3.54308 27.7357 3.62537 27.6637 3.5868C27.6011 3.55423 27.65 3.48137 27.6568 3.42223C27.6877 3.1548 27.7134 2.88566 27.7202 2.61652C27.7262 2.41509 27.6345 2.27024 27.4408 2.16738C26.6317 1.73795 25.8337 1.28882 25.0254 0.857676C24.8163 0.746248 24.8368 0.65882 25.0031 0.535393C25.2971 0.31768 25.6228 0.212252 25.8928 0.233681ZM4.52442 17.2393C4.56556 17.4767 4.80384 17.607 4.85098 17.8418C4.5452 17.7695 4.2459 17.672 3.95613 17.5504C3.57985 17.3893 3.39214 17.0901 3.32785 16.7036C3.26614 16.3358 3.25414 15.9681 3.36385 15.6064C3.39985 15.4864 3.44957 15.3707 3.51385 15.2627C3.59099 15.1316 3.69556 14.9456 3.83785 14.9756C3.99213 15.009 3.91242 15.219 3.92442 15.3493C3.95699 15.6896 3.98442 16.0316 3.98613 16.3718C3.98785 16.7798 4.19699 17.0421 4.52442 17.2393ZM30.8514 24.0492C30.8128 25.2321 30.4948 26.2289 29.6342 26.9849C29.2142 27.3543 28.7222 27.6209 28.2071 27.8395C27.3268 28.214 26.4217 28.5063 25.4703 28.6409C25.166 28.6837 25.16 28.6855 25.1917 28.3683C25.2311 28.0375 25.2174 27.7023 25.1505 27.3749C25.1077 27.1795 25.1471 27.1126 25.3623 27.1135C25.9931 27.1152 26.6154 27.0492 27.2205 26.8452C29.1851 26.1801 30.0448 23.8692 28.9331 22.1944C28.5302 21.5875 27.9499 21.2241 27.2308 21.1041C26.9615 21.0585 26.6849 21.1134 26.4534 21.2584C26.1225 21.4564 25.7291 21.4589 25.3665 21.5584C25.2448 21.5918 25.0648 21.7058 24.9963 21.6047C24.9131 21.4829 25.0357 21.3124 25.112 21.1847C25.4557 20.6164 25.9691 20.2632 26.6042 20.1047C28.5294 19.623 30.3799 20.829 30.7288 22.7824C30.7691 23.0035 30.8034 23.2264 30.8282 23.4492C30.8556 23.6481 30.8634 23.8486 30.8514 24.0492Z" fill="#A7B9CC"/>
<path d="M23.5999 32.421C22.8953 32.7124 22.2173 33.0621 21.5719 33.4684C21.481 33.5267 21.3859 33.5121 21.2933 33.4538C20.4387 32.9138 19.5045 32.5281 18.6182 32.0498C18.325 31.8921 18.0473 31.707 17.761 31.539C17.6205 31.4567 17.6376 31.4018 17.7808 31.3547L19.8559 30.6758C19.8897 30.6631 19.9259 30.6583 19.9619 30.6617C19.9978 30.6651 20.0325 30.6767 20.0633 30.6955C20.617 31.0298 21.1904 31.3307 21.781 31.5955C22.3724 31.8552 22.9579 32.1287 23.5999 32.421Z" fill="#5DC0F8"/>
<path d="M21.3609 34.7402C21.3609 34.9914 21.3566 35.2442 21.3626 35.4954C21.3669 35.66 21.3386 35.7088 21.174 35.6077C20.1352 34.9725 19.1272 34.2911 18.1038 33.6337C17.7138 33.3825 17.5509 33.0894 17.5638 32.6437C17.5724 32.3668 17.5235 32.0883 17.5055 31.8097C17.4961 31.6614 17.5244 31.5697 17.6975 31.6923C18.7535 32.4397 19.9346 32.9685 21.0626 33.5883C21.2855 33.7117 21.3952 33.8557 21.3635 34.1197C21.3395 34.3228 21.3583 34.5328 21.3583 34.7394L21.3609 34.7402Z" fill="#21A2F8"/>
<path d="M27.0028 25.1762C26.2642 24.8972 25.5381 24.586 24.8265 24.2436C24.6037 24.1356 24.4494 23.9882 24.494 23.6994C24.5591 23.2837 24.3826 22.8834 24.3868 22.4685C24.3886 22.2611 24.404 22.1959 24.6337 22.3039C25.34 22.6365 26.0848 22.8654 26.8331 23.0822C26.918 23.1071 26.9874 23.1165 26.9865 23.2262C26.9797 23.8691 26.9445 24.5102 27.0028 25.1762ZM21.5746 34.627C21.5746 34.393 21.5831 34.159 21.5711 33.925C21.5626 33.7501 21.6191 33.6404 21.7811 33.5616C22.4197 33.2521 23.0531 32.9316 23.6891 32.617C23.8606 32.5321 23.9634 32.5296 23.9634 32.7816C23.9634 33.2419 23.8168 33.6859 23.8408 34.1479C23.8494 34.309 23.6797 34.3613 23.5691 34.4204C23.1037 34.6707 22.6417 34.9261 22.2003 35.2176C22.0529 35.3161 21.9097 35.4233 21.7623 35.521C21.6286 35.611 21.572 35.5724 21.5754 35.4104C21.5814 35.1498 21.5771 34.8876 21.5771 34.627H21.5746Z" fill="#14456B"/>
<path d="M27.1133 24.1125C27.1133 23.8339 27.1175 23.5553 27.1107 23.2759C27.1073 23.1491 27.1467 23.0916 27.2753 23.0496C27.743 22.8949 28.2076 22.7312 28.669 22.5585C28.801 22.5096 28.8721 22.5414 28.9175 22.6665C29.1215 23.2151 29.1995 23.7722 29.035 24.3465C29.0238 24.3988 28.9992 24.4474 28.9636 24.4874C28.928 24.5273 28.8825 24.5574 28.8318 24.5745C28.3451 24.7563 27.861 24.9451 27.3798 25.141C27.1655 25.2285 27.0927 25.189 27.1073 24.9499C27.1244 24.6713 27.1115 24.3928 27.1115 24.1133L27.1133 24.1125Z" fill="#21A2F8"/>
<path d="M24.4805 21.9618C25.041 21.8306 25.5793 21.6986 26.1202 21.5821C26.4716 21.5058 26.8059 21.3652 27.1633 21.3095C27.2768 21.2829 27.3955 21.2895 27.5053 21.3284C27.951 21.5066 28.341 21.7998 28.6367 22.1769C28.7284 22.2952 28.7224 22.3415 28.5647 22.3921C28.0726 22.5508 27.5844 22.7217 27.1007 22.9046C26.925 22.9715 26.7665 22.9132 26.6345 22.8472C26.1065 22.5849 25.5459 22.4229 24.987 22.2489C24.8096 22.1941 24.6313 22.1264 24.4805 21.9618Z" fill="#5DC0F8"/>
<path d="M31.0832 21.5815V22.2501C30.9014 22.0821 30.8817 21.8858 30.7969 21.7255L31.0832 21.5815Z" fill="#21A2F8"/>
<path d="M30.9634 21.4492C30.6916 21.6215 30.6891 21.6206 30.5742 21.3335C30.7079 21.3335 30.8134 21.3961 30.9634 21.4492Z" fill="#87A0C0"/>
<path d="M16.0588 29.6607C16.0485 29.6667 16.0376 29.6713 16.0262 29.6745C16.0228 29.6745 16.0168 29.6642 16.0116 29.6573C16.0219 29.6515 16.0328 29.6469 16.0442 29.6436C16.0476 29.6436 16.0536 29.6547 16.0588 29.6607ZM14.4919 18.5325L14.6316 18.4117L15.0902 18.1751L15.3319 18.1528C15.2462 18.4288 15.3473 18.6285 15.5933 18.6894C15.8479 18.752 16.0279 18.6243 16.0845 18.3397C16.5953 18.5668 16.8045 19.2765 16.5285 19.8405C16.201 20.5074 15.3285 20.78 14.6771 20.42C14.2519 20.186 14.0711 19.5834 14.2459 19.0083C14.2999 18.8368 14.3831 18.6757 14.4919 18.5325Z" fill="#FDFDFD"/>
</g>
<g clip-path="url(#clip1_14092_28088)">
<path fill-rule="evenodd" clip-rule="evenodd" d="M70.0346 0.00224181C69.5454 0.00224181 69.057 0.117976 68.5914 0.32665L56.8137 5.9617C56.3591 6.17469 55.9592 6.48874 55.6445 6.87988C55.3298 7.27101 55.1086 7.72888 54.9979 8.21853L52.0878 20.8573C51.8555 21.8577 52.0878 22.8826 52.7402 23.6972L60.8863 33.8222C61.1961 34.2093 61.5894 34.5214 62.0369 34.735C62.4844 34.9487 62.9743 35.0583 63.4702 35.0558H76.5289C77.0246 35.0582 77.5144 34.9485 77.9617 34.7348C78.409 34.5212 78.8022 34.2092 79.1119 33.8222L87.2589 23.6972C87.5787 23.3059 87.8039 22.846 87.9169 22.3534C88.0299 21.8609 88.0276 21.3489 87.9104 20.8573L85.0012 8.21765C84.8903 7.72805 84.6691 7.27024 84.3545 6.87913C84.0398 6.48801 83.6399 6.17393 83.1854 5.96082L71.4541 0.32665C71.0105 0.114609 70.5254 0.00323311 70.0337 0.000488281L70.0346 0.00224181ZM70.0346 1.09558C70.359 1.09558 70.6861 1.16573 70.9885 1.30513L82.7663 6.91476C83.3713 7.21725 83.836 7.77575 83.9763 8.4272L86.8863 21.0668C87.0494 21.7419 86.8863 22.4399 86.4444 22.9756L78.2974 33.1006C78.0887 33.3632 77.8232 33.5751 77.5208 33.7203C77.2185 33.8654 76.8871 33.9402 76.5517 33.9388H63.4938C62.8187 33.9388 62.1664 33.6363 61.7482 33.1006L53.6012 22.9756C53.3933 22.7086 53.2461 22.3996 53.1696 22.07C53.0931 21.7404 53.0893 21.3981 53.1584 21.0668L56.0684 8.4272C56.2315 7.75208 56.6734 7.19445 57.2784 6.91476L69.057 1.28146C69.3692 1.16165 69.7003 1.0987 70.0346 1.09558Z" fill="#326DE6"/>
<path fill-rule="evenodd" clip-rule="evenodd" d="M63.2168 30.9822C63.4203 31.237 63.6788 31.4425 63.9729 31.5834C64.267 31.7243 64.5891 31.7969 64.9151 31.7959L75.162 31.7783C75.8161 31.7783 76.436 31.4706 76.8533 30.9638L83.1004 23.0991C83.281 22.8536 83.2608 22.3714 83.2608 21.9663V10.9829L69.8391 18.7126L56.4297 10.9917V21.9654C56.4297 22.3775 56.5752 22.78 56.8435 23.1166L63.2168 30.9813V30.9822Z" fill="#1FBFCF"/>
<path fill-rule="evenodd" clip-rule="evenodd" d="M69.8391 18.7112L83.2608 10.9842L69.826 3.25977L56.4297 10.9903L69.8391 18.7112Z" fill="#C9E9EC"/>
<path fill-rule="evenodd" clip-rule="evenodd" d="M73.0341 24.6819C72.6501 24.9274 72.1249 24.8572 71.8101 24.4714C71.7049 24.3662 71.6698 24.2268 71.6347 24.0874L71.3191 18.384C73.7025 18.6581 75.9229 19.7311 77.6187 21.4281L73.0341 24.6819ZM68.2767 23.9471C68.2407 24.4372 67.8558 24.8572 67.3315 24.8572C67.1912 24.8572 67.0159 24.8221 66.9107 24.752L62.2576 21.4281C63.6885 19.9967 65.4969 19.0015 67.4718 18.5584C67.8567 18.4883 68.2065 18.4182 68.5914 18.3489L68.2767 23.9471ZM81.3626 21.6026L81.7124 21.2878V21.2177C81.7124 21.0424 81.7466 20.8679 81.8869 20.6934C82.3069 20.3076 82.8321 19.9928 83.4616 19.6088C83.5668 19.5387 83.6712 19.5036 83.7764 19.4335C83.9859 19.3282 84.1613 19.223 84.3717 19.0828C84.4059 19.0486 84.476 19.0135 84.5462 18.9433C84.5812 18.9083 84.6163 18.9083 84.6163 18.8732C85.1064 18.4541 85.2108 17.7544 84.8609 17.2994C84.6856 17.0539 84.3717 16.9136 84.0561 16.9136C83.7755 16.9136 83.5317 17.0188 83.2862 17.1942L83.2161 17.2643C83.146 17.2994 83.1109 17.3695 83.0407 17.4046C82.8654 17.5791 82.7269 17.7194 82.5866 17.8938C82.5164 17.964 82.4463 18.0692 82.3411 18.1393C81.8518 18.6637 81.3968 19.0836 80.9426 19.3984C80.8374 19.4685 80.7322 19.5036 80.627 19.5036C80.5568 19.5036 80.4867 19.5036 80.4165 19.4685H80.3464L79.9273 19.7491C79.4731 19.2581 78.983 18.839 78.4929 18.419C76.384 16.7706 73.8459 15.7626 71.1806 15.5151L71.1455 15.0592L71.0754 14.9891C70.9701 14.8847 70.8299 14.7795 70.7948 14.5349C70.7597 13.9755 70.8299 13.3451 70.9 12.6454V12.6104C70.9 12.5052 70.9351 12.3658 70.9701 12.2605C71.0052 12.0501 71.0403 11.8406 71.0754 11.5959V11.2803C71.0754 10.6517 70.5844 10.1265 69.9908 10.1265C69.7102 10.1265 69.4296 10.2667 69.221 10.4763C69.0105 10.6867 68.9053 10.9664 68.9053 11.2812V11.5618C68.9053 11.8055 68.9404 12.0159 69.0105 12.2255C69.0456 12.3307 69.0456 12.4359 69.0807 12.5762V12.6113C69.1508 13.31 69.256 13.9404 69.1859 14.4998C69.1508 14.7453 69.0105 14.8505 68.9053 14.9558L68.8352 15.025L68.8001 15.4792C68.1715 15.5493 67.5411 15.6195 66.9115 15.7598C64.2607 16.3396 61.8464 17.7055 59.9841 19.679L59.6334 19.4335H59.5633C59.4931 19.4335 59.423 19.4685 59.3537 19.4685C59.2485 19.4685 59.1433 19.4335 59.0389 19.3633C58.5839 19.0486 58.1297 18.5935 57.6396 18.0692C57.5695 17.9991 57.4993 17.8938 57.3941 17.8237C57.2538 17.6483 57.1144 17.5089 56.9399 17.3345C56.9049 17.2994 56.8347 17.2643 56.7646 17.1942C56.7295 17.1591 56.6944 17.1591 56.6944 17.124C56.484 16.9487 56.2052 16.8435 55.9246 16.8435C55.6099 16.8435 55.2951 16.9837 55.1206 17.2292C54.7699 17.6843 54.8751 18.384 55.3653 18.8039C55.4003 18.8039 55.4003 18.839 55.4354 18.839C55.5055 18.8741 55.5406 18.9442 55.6107 18.9793C55.8203 19.1187 55.9948 19.2239 56.2052 19.3282C56.3104 19.3633 56.4156 19.4335 56.52 19.5036C57.1495 19.8885 57.6747 20.2033 58.0938 20.5882C58.2691 20.7635 58.2691 20.9389 58.2691 21.1125V21.1826L58.6199 21.4983C58.5497 21.6035 58.4796 21.6728 58.4445 21.778C58.0342 22.4268 57.6852 23.1019 57.395 23.7981L59.3897 26.2592C59.6601 25.2988 60.0601 24.3796 60.5786 23.5271L64.7424 27.2359C65.1273 27.5515 65.1624 28.146 64.8476 28.5309C64.7424 28.6712 64.6021 28.7755 64.4268 28.8115L62.0235 29.5085L63.2177 30.9824C63.635 31.5067 64.261 31.796 64.9151 31.796L75.1629 31.7785C75.817 31.7785 76.436 31.4716 76.8542 30.964L77.9756 29.5524L75.5189 28.8457C75.2862 28.7791 75.0877 28.626 74.9642 28.4179C74.8406 28.2097 74.8013 27.9622 74.8543 27.726C74.8893 27.5857 74.9595 27.4455 75.0638 27.3411L79.2978 23.5271C79.8309 24.4131 80.2373 25.3693 80.5051 26.3679L82.5392 23.806C82.2105 23.0393 81.8169 22.3022 81.3626 21.6026Z" fill="#326DE6"/>
</g>
<defs>
<clipPath id="clip0_14092_28088">
<rect width="36" height="36" fill="white" transform="translate(0 0.000488281)"/>
</clipPath>
<clipPath id="clip1_14092_28088">
<rect width="36" height="36" fill="white" transform="translate(52 0.000488281)"/>
</clipPath>
</defs>
</svg>
