<svg xmlns="http://www.w3.org/2000/svg" fill="none" viewBox="0 0 140 90"><rect width="100%" height="100%"/><g class="currentLayer"><path fill="#2596EC" d="M0 64.591c.0938-.1602.0859-.3458.1245-.5191.4908-2.1981 2.5079-3.8514 4.7571-3.9124 1.196-.0325 2.2799.2699 3.241.9909.034.0255.0634.0692.1226.0516.0473-.0737.0234-.1585.0235-.238.0017-1.3821-.0016-2.7641.0026-4.1462.0019-.6284.3908-1.032.9686-1.0232.5243.008.929.3972.9295.9221.0026 2.9387.0213 5.8776-.0092 8.8161-.0234 2.2582-1.9291 4.375-4.1705 4.7176-.1127.0173-.239-.0004-.3362.0851H4.5593c-.029-.0654-.0904-.0417-.1387-.0477C2.3998 70.0361.6702 68.5161.1533 66.543c-.0586-.2239-.0559-.461-.1533-.6755V64.591zm8.2675.6496c.0029-1.7497-1.44-3.1942-3.1873-3.1906a3.1865 3.1865 0 00-2.9419 1.9666 3.186 3.186 0 004.1595 4.1639 3.1857 3.1857 0 001.9697-2.9399zM45.5471 70.3355c-.1525-.0925-.3307-.0834-.4965-.1209-2.2637-.5123-3.8784-2.5364-3.9373-4.8585-.068-2.6755 1.9244-4.5632 3.7776-5.0353 2.9229-.7447 5.826 1.1222 6.3388 4.0974.0432.2547.0642.5126.0629.771-.0015.6145-.3713 1.0016-.9874 1.0028a1815.193 1815.193 0 01-6.0397.0017c-.3114 0-.6231.0056-.9343-.0023-.1574-.004-.1755.0441-.1265.1861.3715 1.0787 1.5332 1.9613 2.6832 2.0447.9412.0683 1.7681-.1757 2.4698-.8266.4113-.3814.9895-.3564 1.3472.0321.3554.3861.3344.9938-.0698 1.374a4.7637 4.7637 0 01-2.7315 1.2904c-.0585.0074-.1234-.008-.171.0434h-1.1855zm.6577-6.025l2.7995-.0001c.2709 0 .2709-.0005.1662-.2577-.5374-1.3207-1.925-2.1528-3.3666-1.9563-1.216.1657-2.0974.823-2.5786 1.9733-.0973.2326-.0875.2404.1573.2406.9408.0006 1.8815.0006 2.8222.0002zM32.8724 70.3355c-.0347-.0524-.0952-.039-.1436-.0561a.9526.9526 0 01-.6392-.8589c-.007-.1669-.004-.3342-.004-.5013-.0002-3.9957-.0001-7.9915.0003-11.9872 0-.1515-.0102-.3042.0319-.4528a.96.96 0 011.0322-.6805c.456.0563.8172.4286.8221.8905.0113 1.0481.0058 2.0965.0062 3.1448.0005 1.314.0006 2.6294.0001 3.9463.1109.0216.1705-.0618.241-.1075a4331.1308 4331.1308 0 005.1375-3.3366c.6442-.4172 1.424-.071 1.5125.6734.0446.3751-.0913.678-.4231.8915-1.1745.7558-2.3425 1.5218-3.5184 2.2755-.1719.1102-.2057.1712-.0525.3415a603.7337 603.7337 0 013.6983 4.1514c.5515.6208.3342 1.3857-.4631 1.6382-.0131.0041-.0231.0183-.0346.0278h-.3191c-.3146-.0857-.5232-.3078-.7312-.5427a1612.0907 1612.0907 0 00-3.8092-4.2866c-.0936-.1057-.1612-.1248-.2803-.0408-.2477.1747-.501.3426-.7613.4976-.1468.0873-.2029.1874-.2012.3636.0097 1.0013.0075 2.0028.0033 3.0042-.0021.5046-.245.8181-.7301.9689a.2418.2418 0 00-.0554.0358h-.3191zM15.6839 70.3355c-.1656-.1007-.3591-.082-.5386-.1214a5.0794 5.0794 0 01-3.9393-4.2733c-.3515-2.6231 1.3084-5.0598 3.8548-5.6584 2.7898-.656 5.5718 1.1015 6.1685 3.8967.5887 2.7577-1.1952 5.4876-3.9532 6.0524-.1661.0341-.3436.0141-.498.104h-1.0942zm3.7436-5.1051c-.001-1.7477-1.4517-3.1902-3.1987-3.1804-1.7414.0097-3.1805 1.4549-3.1735 3.1869a3.1857 3.1857 0 001.9693 2.9437 3.1882 3.1882 0 001.2201.2415 3.1872 3.1872 0 002.9422-1.9715 3.1878 3.1878 0 00.2406-1.2202zM26.8084 70.3355c-.1579-.0993-.3436-.0794-.5156-.1172a5.0762 5.0762 0 01-3.9612-4.3299c-.33-2.5907 1.3207-5.0221 3.8482-5.5941 1.6396-.371 3.1525-.0612 4.4596 1.0469.4647.394.5108 1.0458.1128 1.4483-.3397.3435-.8982.3665-1.3079.041-.4404-.3499-.9178-.6109-1.4764-.7235-1.8118-.3655-3.628.99-3.7643 2.8319-.1028 1.3885.4578 2.4582 1.6836 3.1039 1.2137.6392 2.4031.5125 3.493-.3455.4504-.3546 1.0571-.3289 1.3952.067.3528.4132.2852 1.0101-.1662 1.3962a4.8077 4.8077 0 01-2.5678 1.1279c-.0482.0062-.1099-.0193-.1387.0471h-1.0943zM60 61.6276c-.155.4093-.405.707-.876.7492-.205.0183-.386-.062-.571-.1284-1.798-.6444-3.7145.329-4.2248 2.1462a3.2193 3.2193 0 00-.1157.877c.0008 1.2835-.0187 2.5674.0086 3.8504.013.6111-.1976 1.0203-.7865 1.2135h-.3647a.4304.4304 0 00-.073-.0455c-.4591-.1733-.6881-.4785-.6887-.9634-.0034-2.726-.0032-5.452.0004-8.178.0008-.5199.3476-.928.8036-.9813.5179-.0605.9567.2229 1.0735.7025.0281.1153.0271.2377.0421.3829.0952-.0651.1809-.1222.265-.1815 1.1012-.7781 2.3292-1.0254 3.6532-.875.264.0268.525.0766.78.1489.466.1374.863.3606 1.074.8266v.4559z"/><path fill="#2496EC" d="M34.8785 19c.1777.1113.2347.2692.2332.4793-.0081 1.1228-.0032 2.2458-.0042 3.3687-.0003.3349-.1144.451-.4503.4515a1493.217 1493.217 0 01-3.8469-.0001c-.3366-.0004-.4477-.1143-.448-.4526-.0011-1.123.004-2.2459-.0044-3.3688-.0015-.2107.058-.3669.2349-.478h4.2857zM26.1579 34.5374c4.9841-.0001 9.9682.0086 14.9522-.0068a8.1568 8.1568 0 003.2323-.674c.1756-.0759.2356-.1354.1175-.3389-.9462-1.6293-1.0498-3.3586-.5663-5.1474a8.709 8.709 0 011.4284-2.9288c.0621-.0839.1031-.1247.2163-.0628 1.8556 1.014 3.1229 2.5008 3.68 4.5608.0469.1602.081.3239.102.4895.0151.1416.0713.1459.1932.1276 1.2944-.1941 2.5851-.2188 3.8647.1124.7063.1829 1.3598.4672 1.9188.953.118.1027.144.1765.094.321-.7184 2.0742-2.2007 3.3301-4.2541 3.966-.811.2512-1.6503.3363-2.4969.3129-.2065-.0057-.2857.0653-.3571.2452-.853 2.1502-1.8649 4.2182-3.1882 6.1242-2.8648 4.1264-6.7528 6.806-11.5628 8.1835-2.1558.6175-4.3569.9345-6.596 1.022-2.4698.0966-4.9174-.0585-7.3305-.612-1.6298-.3739-3.1946-.9165-4.5701-1.9037-1.6498-1.1842-2.7859-2.7774-3.62-4.6017-.8011-1.7521-1.274-3.5975-1.5275-5.5038a25.1549 25.1549 0 01-.2058-3.0884c-.0088-.9533.5907-1.5492 1.5464-1.5494 4.9765-.0009 9.953-.0011 14.9295-.0004z"/><path fill="#2596EC" d="M21.5065 29.3491c.6377 0 1.2755.0001 1.9132.0003.3321.0005.455.1195.4556.4522.0021 1.1312.0021 2.2624.0001 3.3936-.0006.3348-.1177.4605-.451.4616-1.283.0044-2.5661.0044-3.8492.0002-.3346-.0011-.4558-.126-.4565-.4567a752.1138 752.1138 0 01-.0002-3.3936c.0007-.3414.1242-.4571.4747-.4574.6378-.0007 1.2755-.0007 1.9133-.0002zM21.489 28.4817c-.6377 0-1.2755.0013-1.9132-.0005-.3268-.0009-.4565-.128-.4571-.4554a873.5505 873.5505 0 010-3.3936c.0008-.3424.1245-.4616.4744-.462a1459.787 1459.787 0 013.8036-.0001c.3608.0005.4785.119.479.4799.0015 1.116.0016 2.232.0001 3.348-.0003.3698-.118.4832-.4963.4835a991.432 991.432 0 01-1.8905.0002zM27.1709 29.3491c.6378 0 1.2755-.001 1.9133.0004.3137.0007.4436.1259.4444.4417a720.2673 720.2673 0 010 3.4164c-.0009.3189-.1226.4477-.4411.4488a525.9443 525.9443 0 01-3.8721.0002c-.319-.0012-.4445-.1304-.4455-.4456a590.2181 590.2181 0 01-.0002-3.4164c.0009-.3237.1334-.4449.4652-.4453a892.4052 892.4052 0 011.936-.0002zM38.3716 29.3491c.6377 0 1.2755 0 1.9132.0002.3412.0005.4623.1214.4628.4692.0016 1.1236.0015 2.2472-.0001 3.3709-.0006.3366-.1174.4659-.4463.4671a525.9175 525.9175 0 01-3.872-.0001c-.3166-.0012-.4398-.1314-.4408-.45a590.57 590.57 0 01-.0002-3.3936c.0009-.3447.1267-.4631.4701-.4635a871.6034 871.6034 0 011.9133-.0002zM27.1273 28.4817c-.6301 0-1.2603.001-1.8904-.0005-.3401-.0008-.4671-.1259-.4677-.4689-.002-1.1235-.002-2.2471.0001-3.3707.0008-.3456.1246-.4707.4665-.4713 1.2754-.0021 2.5509-.0021 3.8263 0 .3433.0005.4661.1242.4668.4697a881.6486 881.6486 0 01-.0001 3.3706c-.0008.3539-.1253.4704-.4883.4708-.6378.0009-1.2755.0009-1.9132.0003zM15.9385 29.3491c.6451 0 1.2902-.0012 1.9354.0005.3012.0008.4333.1235.4345.4282.0044 1.146.0044 2.292 0 3.438-.0013.3202-.1248.4325-.4502.433-1.2827.0016-2.5653.0016-3.848 0-.3372-.0004-.4562-.1161-.4569-.4485a864.4451 864.4451 0 01.0003-3.4152c.0007-.3121.1318-.4351.4495-.4357a625.8322 625.8322 0 011.9354-.0003z"/><path fill="#2496EC" d="M32.7343 24.1793c.6375.0001 1.2751-.0011 1.9127.0005.3523.0009.4603.1102.4605.4632a2518.435 2518.435 0 01-.0001 3.3698c-.0002.3487-.1171.4681-.4602.4683-1.2751.001-2.5502.001-3.8253 0-.3431-.0002-.4596-.1194-.4599-.4682-.0008-1.1233-.0007-2.2465.0001-3.3698.0003-.3546.1069-.4625.4595-.4633.6376-.0016 1.2751-.0005 1.9127-.0005zM32.7206 33.6493c-.6375 0-1.275.0016-1.9125-.0007-.3362-.0012-.4456-.1137-.4459-.4546a1919.004 1919.004 0 010-3.3923c.0003-.3343.118-.4519.4508-.4521 1.2826-.0009 2.5652-.0009 3.8478 0 .3298.0003.4463.1192.4466.4566.0011 1.1308.0011 2.2616 0 3.3924-.0002.3342-.1147.4491-.4515.4501-.6451.002-1.2902.0006-1.9353.0006z"/><path fill="#2596EC" d="M56.51 68.9458a.6629.6629 0 01.255.0506.674.674 0 01.215.1447c.061.062.11.1355.143.2164a.6735.6735 0 01.049.2547.6535.6535 0 01-.054.2539.6634.6634 0 01-.146.2138.6676.6676 0 01-.218.1408.6586.6586 0 01-.255.0462c-.38-.0029-.689-.3122-.678-.6781a.677.677 0 01.214-.4617.6737.6737 0 01.475-.1813zm.297 1.0278c.194-.1391.247-.3621.142-.594a.4858.4858 0 00-.24-.2483.4865.4865 0 00-.344-.027.517.517 0 00-.26.1755.5215.5215 0 00-.111.2929c-.014.2157.114.4419.315.5063.179.0577.37.0913.501-.1088l-.003.0034z"/><path fill="#2596EC" d="M56.81 69.9703c-.116-.0099-.195-.0588-.214-.1864-.01-.0711-.067-.0979-.135-.091-.081.0081-.057.0745-.062.1228-.007.0561.017.1372-.079.13-.089-.0068-.067-.0856-.07-.1422-.003-.0759 0-.1519 0-.2279 0-.2877.126-.3762.403-.2854.084.0276.158.1053.119.1635-.131.1921.046.3468.035.5199l.003-.0033zm-.309-.587c-.063-.0071-.1.0152-.1.0846-.001.0603.012.1041.085.0975.062-.0055.128-.0138.126-.0938-.002-.0626-.056-.0812-.111-.0883z"/><path fill="#BFCAD6" fill-rule="evenodd" d="M85 38h-4v5h-5v4h5v5h4v-5h5v-4h-5v-5z" clip-rule="evenodd"/><path fill="#fff" d="M115.5 18.3334c-3 2.6666-3.194 6.9444-2.917 8.75l4.167 3.3333 2.5 6.25 8.333-.4167 1.667-8.3333c.417 0 1.417.25 2.083 1.25 6 1.3333 4.167-4.4445 2.5-7.5-1.25-1.6667-5.451-5-6.25-14.5833-.416-5-7.916-4.5834-9.166-2.9167S119.25 15 115.5 18.3334z"/><path fill="#F2C94C" d="M118.417 34.1667c-.834-1.25-3.334-5.8333-5.417-6.25-.139.5555-.75 1.8333-2.083 2.5-1.667.8333-2.084 1.6667-1.667 2.9167.417 1.25-2.083 4.1666.417 4.1666 4.166 0 7.083 2.5 8.75 1.25 1.666-1.25.833-3.3333 0-4.5833zM130.917 27.9167c-2.084-.4167-2.5 1.25-2.084 2.9167.417 1.6666-1.25 5-1.25 6.6666 2.084 3.3334 4.584 1.6667 6.25-.8333 5-2.9167 3.334-3.3334 2.5-5.8334-.833-2.5-3.333-2.4999-5.416-2.9166zM121.75 8.75L118 11.6667 122.167 15 128 11.6667 121.75 8.75z"/><path fill="#000" d="M137.302 31.7483c-.917-.7433-.56-2.385-1.512-3.195.922-5.6083-1.662-10.5516-4.742-13.72-2.585-2.6583-1.751-5.245-1.751-7.4833 0-3.5767-1.469-7.35-5.917-7.35-4.755 0-6.058 3.9667-6.105 6.23-.113 5.4367 1.098 6.85-2.083 10.8067-3.744 4.655-4.295 9.2983-3.45 11.7616-.395.46-.929.97-1.925 1.3917-2.754 1.2-.735 3.2083-1.497 4.6333-.217.405-.32.8284-.32 1.2334 0 1.25.993 2.3316 2.798 2.17 2.435-.2167 4.682 1.5083 6.135 1.5083 1.284 0 2.337-.73 2.827-1.735 2.295-.565 5.128-.4933 7.422.0983C127.593 39.25 128.71 40 129.952 40c2.718 0 3.241-3.0817 6.36-4.125 1.123-.375 1.688-1.465 1.688-2.48 0-.65-.232-1.2683-.698-1.6467zm-15.245-17.4416c-.532 0-.972-.43-1.667-.9467-.88-.6533-1.775-1.03-1.765-1.7167 0-.4716.632-.6166 1.448-1.135.877-.555 1.219-1.1183 2.082-1.1183.883 0 1.15.4467 2.35.965 1.18.5117 2.002.7117 2.002 1.2883 0 .5917-1.235 1.015-1.93 1.4467-1.022.63-1.547 1.2167-2.52 1.2167zm2.775-8.6917c1.47.235 1.635 2.8183.931 4.09l-.591-.2417c.306-.905.301-2.395-.725-2.49-.652-.06-1.072.8-1.162 1.5367-.255-.1067-.533-.1833-.872-.2117.104-1.5383 1.097-2.895 2.419-2.6833zm-5.672.5517c1.127-.28 1.792 1.03 1.797 2.3916l-.517.3167c-.07-.5717-.325-1.495-.965-1.2983-.685.2133-.573 1.805-.192 2.1316l-.51.2834c-.7-1.1784-.698-3.555.387-3.825zm-3.525 32.0716c-3.272-1.4883-4.383-1.15-5.008-1.15-1.295 0-1.719-.965-1.232-1.8783.413-.775.285-1.5867.183-2.2383-.156-.9984-.185-1.3234.797-1.7534 1.358-.5766 1.962-1.3183 2.412-1.8733 1.263-1.5617 2.538.895 3.583 3.0833.678 1.4184 2.013 2.1367 2.425 3.7084.378 1.4516-1.183 3.0016-3.16 2.1016zm11.645-3.1233c-2.307 1.1217-5.245 1.6367-7.443.4983-.325-.9383-.845-1.545-1.405-2.155.898-.2366 1.565-1.3566.766-2.4816-.851-1.2017-2.591-2.04-4.35-3.4-1.645-1.2717-2.165-4.4067.075-7.91-1.091 3.1033-.453 5.9633.095 6.7816.114-1.6466.244-4.3966 2.494-7.6916 1.135-1.6634 1.151-3.86 1.176-5.2334l1.034.7067c.76.5617 1.396 1.18 2.31 1.18 1.35 0 2.096-.7767 3.136-1.4217.407-.25 1.022-.5033 1.539-.855.866 4.1267 4.456 9.09 4.658 11.9167.835-1.72-.237-5.8567-.237-5.8567 1.404 2.1417 1.515 3.9267 1.577 6.1167.982.4017 2.035 1.4483 2.132 2.8267l-.409-.0467c-.21-1.5317-4.345-3.7817-4.716-.8983-1.984.3016-1.262 3.4433-1.662 5.48-.183.9316-.523 1.6683-.77 2.4433zm8.077-.0683c-1.642.6333-2.75 1.9783-3.512 2.8133-1.467 1.61-3.407.8383-3.613-.6683-.219-1.61.6-2.4884.953-4.29.322-1.645-.038-4.1767.718-4.4467.492 2.9217 3.444 1.6933 4.117.8967 1.095 0 1.187.37 1.432 1.395.153.6416.365 1.1816.963 1.8166.697.745.483 1.8884-1.058 2.4834zM122.023 13.37c-1.085 0-1.896-.7217-2.556-1.2817-.339-.285.083-.8116.421-.525.645.5467 1.295 1.125 2.135 1.125 1.012 0 1.904-.865 3.112-1.3416.412-.1617.647.475.238.6366-1.173.4617-2.115 1.3867-3.35 1.3867zM134.201 71.2507c.057 6.0533 5.311 8.0673 5.369 8.0933-.044.142-.84 2.871-2.768 5.689-1.667 2.437-3.398 4.865-6.123 4.915-2.679.049-3.54-1.588-6.602-1.588-3.061 0-4.018 1.538-6.553 1.637-2.632.1-4.635-2.635-6.316-5.062-3.435-4.967-6.06-14.0334-2.535-20.1538 1.751-3.0394 4.88-4.964 8.276-5.0134 2.584-.0493 5.023 1.7382 6.602 1.7382 1.578 0 4.542-2.1496 7.657-1.8339 1.305.0543 4.965.5268 7.316 3.9678-.189.1174-4.368 2.5501-4.323 7.6108zm-5.033-14.8641c1.397-1.6908 2.337-4.0446 2.08-6.3866-2.013.0809-4.448 1.3417-5.892 3.0316-1.294 1.4965-2.428 3.8917-2.122 6.1873 2.244.1737 4.537-1.1404 5.934-2.8323"/></g></svg>