<svg width="230" height="160" viewBox="0 0 230 160" fill="none" xmlns="http://www.w3.org/2000/svg">
<g filter="url(#filter0_d)">
<rect x="20" y="10" width="190" height="120" rx="4" fill="none"/>
<path d="M45 89.591C45.0938 89.4308 45.0859 89.2452 45.1245 89.0719C45.6153 86.8738 47.6324 85.2205 49.8816 85.1595C51.0776 85.127 52.1615 85.4294 53.1226 86.1504C53.1566 86.1759 53.186 86.2196 53.2452 86.202C53.2925 86.1283 53.2686 86.0435 53.2687 85.964C53.2704 84.5819 53.2671 83.1999 53.2713 81.8178C53.2732 81.1894 53.6621 80.7858 54.2399 80.7946C54.7642 80.8026 55.1689 81.1918 55.1694 81.7167C55.172 84.6554 55.1907 87.5943 55.1602 90.5328C55.1368 92.791 53.2311 94.9078 50.9897 95.2504C50.877 95.2677 50.7507 95.25 50.6535 95.3355H49.5593C49.5303 95.2701 49.4689 95.2938 49.4206 95.2878C47.3998 95.0361 45.6702 93.5161 45.1533 91.543C45.0947 91.3191 45.0974 91.082 45 90.8675L45 89.591ZM53.2675 90.2406C53.2704 88.4909 51.8275 87.0464 50.0802 87.05C49.4504 87.0503 48.8348 87.2373 48.3111 87.5873C47.7875 87.9373 47.3794 88.4347 47.1383 89.0166C46.8973 89.5984 46.8341 90.2387 46.9568 90.8565C47.0795 91.4743 47.3825 92.0418 47.8277 92.4874C48.2728 92.933 48.84 93.2367 49.4577 93.36C50.0753 93.4834 50.7157 93.4209 51.2978 93.1805C51.88 92.94 52.3778 92.5324 52.7283 92.0092C53.0789 91.4859 53.2665 90.8705 53.2675 90.2406Z" fill="#2596EC"/>
<path d="M90.5471 95.3355C90.3946 95.243 90.2164 95.2521 90.0506 95.2146C87.7869 94.7023 86.1722 92.6782 86.1133 90.3561C86.0453 87.6806 88.0377 85.7929 89.8909 85.3208C92.8138 84.5761 95.7169 86.443 96.2297 89.4182C96.2729 89.6729 96.2939 89.9308 96.2926 90.1892C96.2911 90.8037 95.9213 91.1908 95.3052 91.192C93.292 91.1959 91.2788 91.1965 89.2655 91.1937C88.9541 91.1937 88.6424 91.1993 88.3312 91.1914C88.1738 91.1874 88.1557 91.2355 88.2047 91.3775C88.5762 92.4562 89.7379 93.3388 90.8879 93.4222C91.8291 93.4905 92.656 93.2465 93.3577 92.5956C93.769 92.2142 94.3472 92.2392 94.7049 92.6277C95.0603 93.0138 95.0393 93.6215 94.6351 94.0017C93.8887 94.7168 92.93 95.1697 91.9036 95.2921C91.8451 95.2995 91.7802 95.2841 91.7326 95.3355H90.5471ZM91.2048 89.3105C92.138 89.3105 93.0711 89.3105 94.0043 89.3104C94.2752 89.3104 94.2752 89.3099 94.1705 89.0527C93.6331 87.732 92.2455 86.8999 90.8039 87.0964C89.5879 87.2621 88.7065 87.9194 88.2253 89.0697C88.128 89.3023 88.1378 89.3101 88.3826 89.3103C89.3234 89.3109 90.2641 89.3109 91.2048 89.3105Z" fill="#2596EC"/>
<path d="M77.8724 95.3355C77.8377 95.2831 77.7772 95.2965 77.7288 95.2794C77.5484 95.2168 77.3911 95.1014 77.2771 94.9483C77.1631 94.7951 77.0977 94.6112 77.0896 94.4205C77.0826 94.2536 77.0856 94.0863 77.0856 93.9192C77.0854 89.9235 77.0855 85.9277 77.0859 81.932C77.0859 81.7805 77.0757 81.6278 77.1178 81.4792C77.1821 81.2623 77.3209 81.0752 77.5098 80.9507C77.6986 80.8262 77.9253 80.7724 78.15 80.7987C78.606 80.855 78.9672 81.2273 78.9721 81.6892C78.9834 82.7373 78.9779 83.7857 78.9783 84.834C78.9788 86.148 78.9789 87.4634 78.9784 88.7803C79.0893 88.8019 79.1489 88.7185 79.2194 88.6728C80.9327 87.5618 82.6452 86.4496 84.3569 85.3362C85.0011 84.919 85.7809 85.2652 85.8694 86.0096C85.914 86.3847 85.7781 86.6876 85.4463 86.9011C84.2718 87.6569 83.1038 88.4229 81.9279 89.1766C81.756 89.2868 81.7222 89.3478 81.8754 89.5181C83.1145 90.8962 84.3473 92.28 85.5737 93.6695C86.1252 94.2903 85.9079 95.0552 85.1106 95.3077C85.0975 95.3118 85.0875 95.326 85.076 95.3355H84.7569C84.4423 95.2498 84.2337 95.0277 84.0257 94.7928C82.7585 93.3617 81.4888 91.9328 80.2165 90.5062C80.1229 90.4005 80.0553 90.3814 79.9362 90.4654C79.6885 90.6401 79.4352 90.808 79.1749 90.963C79.0281 91.0503 78.972 91.1504 78.9737 91.3266C78.9834 92.3279 78.9812 93.3294 78.977 94.3308C78.9749 94.8354 78.732 95.1489 78.2469 95.2997C78.2269 95.309 78.2083 95.3211 78.1915 95.3355L77.8724 95.3355Z" fill="#2596EC"/>
<path d="M60.6839 95.3355C60.5183 95.2348 60.3248 95.2535 60.1453 95.2141C59.1304 94.9904 58.2085 94.4607 57.5041 93.6966C56.7996 92.9324 56.3466 91.9706 56.206 90.9408C55.8545 88.3177 57.5144 85.881 60.0608 85.2824C62.8506 84.6264 65.6326 86.3839 66.2293 89.1791C66.818 91.9368 65.0341 94.6667 62.2761 95.2315C62.11 95.2656 61.9325 95.2456 61.7781 95.3355H60.6839ZM64.4275 90.2304C64.4265 88.4827 62.9758 87.0402 61.2288 87.05C59.4874 87.0597 58.0483 88.5049 58.0553 90.2369C58.0554 90.6555 58.138 91.07 58.2984 91.4567C58.4588 91.8433 58.6938 92.1946 58.99 92.4904C59.2862 92.7862 59.6377 93.0207 60.0246 93.1806C60.4115 93.3404 60.8261 93.4225 61.2447 93.4221C61.6633 93.4216 62.0777 93.3387 62.4642 93.1781C62.8507 93.0174 63.2018 92.7822 63.4974 92.4858C63.793 92.1894 64.0273 91.8376 64.1869 91.4506C64.3464 91.0637 64.4282 90.649 64.4275 90.2304Z" fill="#2596EC"/>
<path d="M71.8084 95.3355C71.6505 95.2362 71.4648 95.2561 71.2928 95.2183C70.2655 94.9956 69.3326 94.4595 68.623 93.6839C67.9134 92.9083 67.4622 91.9315 67.3316 90.8884C67.0016 88.2977 68.6523 85.8663 71.1798 85.2943C72.8194 84.9233 74.3323 85.2331 75.6394 86.3412C76.1041 86.7352 76.1502 87.387 75.7522 87.7895C75.4125 88.133 74.854 88.156 74.4443 87.8305C74.0039 87.4806 73.5265 87.2196 72.9679 87.107C71.1561 86.7415 69.3399 88.097 69.2036 89.9389C69.1008 91.3274 69.6614 92.3971 70.8872 93.0428C72.1009 93.682 73.2903 93.5553 74.3802 92.6973C74.8306 92.3427 75.4373 92.3684 75.7754 92.7643C76.1282 93.1775 76.0606 93.7744 75.6092 94.1605C74.8844 94.7833 73.9904 95.176 73.0414 95.2884C72.9932 95.2946 72.9315 95.2691 72.9027 95.3355H71.8084Z" fill="#2596EC"/>
<path d="M105 86.6276C104.845 87.0369 104.595 87.3346 104.124 87.3768C103.919 87.3951 103.738 87.3148 103.553 87.2484C101.755 86.604 99.8385 87.5774 99.3282 89.3946C99.2495 89.6802 99.2105 89.9753 99.2125 90.2716C99.2133 91.5551 99.1938 92.839 99.2211 94.122C99.2341 94.7331 99.0235 95.1423 98.4346 95.3355H98.0699C98.0471 95.3179 98.0227 95.3027 97.9969 95.29C97.5378 95.1167 97.3088 94.8115 97.3082 94.3266C97.3048 91.6006 97.305 88.8746 97.3086 86.1486C97.3094 85.6287 97.6562 85.2206 98.1122 85.1673C98.6301 85.1068 99.0689 85.3902 99.1857 85.8698C99.2138 85.9851 99.2128 86.1075 99.2278 86.2527C99.323 86.1876 99.4087 86.1305 99.4928 86.0712C100.594 85.2931 101.822 85.0458 103.146 85.1962C103.41 85.223 103.671 85.2728 103.926 85.3451C104.392 85.4825 104.789 85.7057 105 86.1717V86.6276Z" fill="#2596EC"/>
<path d="M79.8785 44C80.0562 44.1113 80.1132 44.2692 80.1117 44.4793C80.1036 45.6021 80.1085 46.7251 80.1075 47.848C80.1072 48.1829 79.9931 48.299 79.6572 48.2995C78.3749 48.3011 77.0926 48.3011 75.8103 48.2994C75.4737 48.299 75.3626 48.1851 75.3623 47.8468C75.3612 46.7238 75.3663 45.6009 75.3579 44.478C75.3564 44.2673 75.4159 44.1111 75.5928 44H79.8785Z" fill="#2496EC"/>
<path d="M71.1579 59.5374C76.142 59.5373 81.1261 59.546 86.1101 59.5306C87.2222 59.5286 88.3222 59.2993 89.3424 58.8566C89.518 58.7807 89.578 58.7212 89.4599 58.5177C88.5137 56.8884 88.4101 55.1591 88.8936 53.3703C89.1812 52.3128 89.6659 51.3192 90.322 50.4415C90.3841 50.3576 90.4251 50.3168 90.5383 50.3787C92.3939 51.3927 93.6612 52.8795 94.2183 54.9395C94.2652 55.0997 94.2993 55.2634 94.3203 55.429C94.3354 55.5706 94.3916 55.5749 94.5135 55.5566C95.8079 55.3625 97.0986 55.3378 98.3782 55.669C99.0845 55.8519 99.738 56.1362 100.297 56.622C100.415 56.7247 100.441 56.7985 100.391 56.943C99.6726 59.0172 98.1903 60.2731 96.1369 60.909C95.3259 61.1602 94.4866 61.2453 93.64 61.2219C93.4335 61.2162 93.3543 61.2872 93.2829 61.4671C92.4299 63.6173 91.418 65.6853 90.0947 67.5913C87.2299 71.7177 83.3419 74.3973 78.5319 75.7748C76.3761 76.3923 74.175 76.7093 71.9359 76.7968C69.4661 76.8934 67.0185 76.7383 64.6054 76.1848C62.9756 75.8109 61.4108 75.2683 60.0353 74.2811C58.3855 73.0969 57.2494 71.5037 56.4153 69.6794C55.6142 67.9273 55.1413 66.0819 54.8878 64.1756C54.7559 63.1513 54.6871 62.1199 54.682 61.0872C54.6732 60.1339 55.2727 59.538 56.2284 59.5378C61.2049 59.5369 66.1814 59.5367 71.1579 59.5374Z" fill="#2496EC"/>
<path d="M66.5065 54.3491C67.1442 54.3491 67.782 54.3492 68.4197 54.3494C68.7518 54.3499 68.8747 54.4689 68.8753 54.8016C68.8774 55.9328 68.8774 57.064 68.8754 58.1952C68.8748 58.53 68.7577 58.6557 68.4244 58.6568C67.1414 58.6612 65.8583 58.6612 64.5752 58.657C64.2406 58.6559 64.1194 58.531 64.1187 58.2003C64.1161 57.0691 64.116 55.9379 64.1185 54.8067C64.1192 54.4653 64.2427 54.3496 64.5932 54.3493C65.231 54.3486 65.8687 54.3486 66.5065 54.3491Z" fill="#2596EC"/>
<path d="M66.489 53.4817C65.8513 53.4817 65.2135 53.483 64.5758 53.4812C64.249 53.4803 64.1193 53.3532 64.1187 53.0258C64.1165 51.8946 64.1165 50.7634 64.1187 49.6322C64.1195 49.2898 64.2432 49.1706 64.5931 49.1702C65.8609 49.1685 67.1288 49.1685 68.3967 49.1701C68.7575 49.1706 68.8752 49.2891 68.8757 49.65C68.8772 50.766 68.8773 51.882 68.8758 52.998C68.8755 53.3678 68.7578 53.4812 68.3795 53.4815C67.7493 53.4822 67.1192 53.4822 66.489 53.4817Z" fill="#2596EC"/>
<path d="M72.1709 54.3491C72.8087 54.3491 73.4464 54.3481 74.0842 54.3495C74.3979 54.3502 74.5278 54.4754 74.5286 54.7912C74.5313 55.93 74.5313 57.0688 74.5286 58.2076C74.5277 58.5265 74.406 58.6553 74.0875 58.6564C72.7968 58.6612 71.5061 58.6613 70.2154 58.6566C69.8964 58.6554 69.7709 58.5262 69.7699 58.211C69.7665 57.0722 69.7665 55.9334 69.7697 54.7946C69.7706 54.4709 69.9031 54.3497 70.2349 54.3493C70.8802 54.3485 71.5256 54.3485 72.1709 54.3491Z" fill="#2596EC"/>
<path d="M83.3716 54.3491C84.0093 54.3491 84.6471 54.3491 85.2848 54.3493C85.626 54.3498 85.7471 54.4707 85.7476 54.8185C85.7492 55.9421 85.7491 57.0657 85.7475 58.1894C85.7469 58.526 85.6301 58.6553 85.3012 58.6565C84.0106 58.6612 82.7199 58.6612 81.4292 58.6564C81.1126 58.6552 80.9894 58.525 80.9884 58.2064C80.9851 57.0752 80.985 55.944 80.9882 54.8128C80.9891 54.4681 81.1149 54.3497 81.4583 54.3493C82.0961 54.3485 82.7338 54.3485 83.3716 54.3491Z" fill="#2596EC"/>
<path d="M72.1273 53.4817C71.4972 53.4817 70.867 53.4827 70.2369 53.4812C69.8968 53.4804 69.7698 53.3553 69.7692 53.0123C69.7672 51.8888 69.7672 50.7652 69.7693 49.6416C69.7701 49.296 69.8939 49.1709 70.2358 49.1703C71.5112 49.1682 72.7867 49.1682 74.0621 49.1703C74.4054 49.1708 74.5282 49.2945 74.5289 49.64C74.531 50.7635 74.531 51.8871 74.5288 53.0106C74.528 53.3645 74.4035 53.481 74.0405 53.4814C73.4027 53.4823 72.765 53.4823 72.1273 53.4817Z" fill="#2596EC"/>
<path d="M60.9385 54.3491C61.5836 54.3491 62.2287 54.3479 62.8739 54.3496C63.1751 54.3504 63.3072 54.4731 63.3084 54.7778C63.3128 55.9238 63.3128 57.0698 63.3084 58.2158C63.3071 58.536 63.1836 58.6483 62.8582 58.6488C61.5755 58.6504 60.2929 58.6504 59.0102 58.6488C58.673 58.6484 58.554 58.5327 58.5533 58.2003C58.5512 57.0619 58.5512 55.9235 58.5536 54.7851C58.5543 54.473 58.6854 54.35 59.0031 54.3494C59.6482 54.3483 60.2934 54.3482 60.9385 54.3491Z" fill="#2596EC"/>
<path d="M77.7343 49.1793C78.3718 49.1794 79.0094 49.1782 79.647 49.1798C79.9993 49.1807 80.1073 49.29 80.1075 49.643C80.1082 50.7662 80.1082 51.8895 80.1074 53.0128C80.1072 53.3615 79.9903 53.4809 79.6472 53.4811C78.3721 53.4821 77.097 53.4821 75.8219 53.4811C75.4788 53.4809 75.3623 53.3617 75.362 53.0129C75.3612 51.8896 75.3613 50.7664 75.3621 49.6431C75.3624 49.2885 75.469 49.1806 75.8216 49.1798C76.4592 49.1782 77.0967 49.1793 77.7343 49.1793Z" fill="#2496EC"/>
<path d="M77.7206 58.6493C77.0831 58.6493 76.4456 58.6509 75.8081 58.6486C75.4719 58.6474 75.3625 58.5349 75.3622 58.194C75.3612 57.0632 75.3612 55.9325 75.3622 54.8017C75.3625 54.4674 75.4802 54.3498 75.813 54.3496C77.0956 54.3487 78.3782 54.3487 79.6608 54.3496C79.9906 54.3499 80.1071 54.4688 80.1074 54.8062C80.1085 55.937 80.1085 57.0678 80.1074 58.1986C80.1072 58.5328 79.9927 58.6477 79.6559 58.6487C79.0108 58.6507 78.3657 58.6493 77.7206 58.6493Z" fill="#2496EC"/>
<path d="M101.51 93.9458C101.598 93.9457 101.684 93.9629 101.765 93.9964C101.845 94.03 101.918 94.0792 101.98 94.1411C102.041 94.2031 102.09 94.2766 102.123 94.3575C102.156 94.4384 102.172 94.5249 102.172 94.6122C102.171 94.6995 102.153 94.7858 102.118 94.8661C102.084 94.9463 102.034 95.019 101.972 95.0799C101.909 95.1408 101.835 95.1886 101.754 95.2207C101.673 95.2528 101.586 95.2686 101.499 95.2669C101.119 95.264 100.81 94.9547 100.821 94.5888C100.83 94.4129 100.906 94.2472 101.035 94.1271C101.164 94.0069 101.334 93.9418 101.51 93.9458ZM101.807 94.9736C102.001 94.8345 102.054 94.6115 101.949 94.3796C101.902 94.2703 101.817 94.182 101.709 94.1313C101.601 94.0805 101.479 94.071 101.365 94.1043C101.262 94.1347 101.171 94.196 101.105 94.2798C101.039 94.3637 101 94.466 100.994 94.5727C100.98 94.7884 101.108 95.0146 101.309 95.079C101.488 95.1367 101.679 95.1703 101.81 94.9702L101.807 94.9736Z" fill="#2596EC"/>
<path d="M101.81 94.9703C101.694 94.9604 101.615 94.9115 101.596 94.7839C101.586 94.7128 101.529 94.686 101.461 94.6929C101.38 94.701 101.404 94.7674 101.399 94.8157C101.392 94.8718 101.416 94.9529 101.32 94.9457C101.231 94.9389 101.253 94.8601 101.25 94.8035C101.247 94.7276 101.25 94.6516 101.25 94.5756C101.25 94.2879 101.376 94.1994 101.653 94.2902C101.737 94.3178 101.811 94.3955 101.772 94.4537C101.641 94.6458 101.818 94.8005 101.807 94.9736L101.81 94.9703ZM101.501 94.3833C101.438 94.3762 101.401 94.3985 101.401 94.4679C101.4 94.5282 101.413 94.572 101.486 94.5654C101.548 94.5599 101.614 94.5516 101.612 94.4716C101.61 94.409 101.556 94.3904 101.501 94.3833Z" fill="#2596EC"/>
<path fill-rule="evenodd" clip-rule="evenodd" d="M122 63H118V68H113V72H118V77H122V72H127V68H122V63Z" fill="#BFCAD6"/>
<path d="M158.84 68.9311H185V46L158.84 49.8436V68.9311Z" fill="#0078D6"/>
<path d="M156.996 68.9311V50.1135L138 52.9035V68.9311H156.996Z" fill="#0078D6"/>
<path d="M156.996 70.7866H138V87.0183L156.996 89.84V70.7866Z" fill="#0078D6"/>
<path d="M158.84 70.7866V90.1145L185 94.0001V70.7866H158.84Z" fill="#0078D6"/>
</g>
<defs>
<filter id="filter0_d" x="0" y="0" width="230" height="160" filterUnits="userSpaceOnUse" color-interpolation-filters="sRGB">
<feFlood flood-opacity="0" result="BackgroundImageFix"/>
<feColorMatrix in="SourceAlpha" type="matrix" values="0 0 0 0 0 0 0 0 0 0 0 0 0 0 0 0 0 0 127 0"/>
<feOffset dy="10"/>
<feGaussianBlur stdDeviation="10"/>
<feColorMatrix type="matrix" values="0 0 0 0 0 0 0 0 0 0 0 0 0 0 0 0 0 0 0.15 0"/>
<feBlend mode="normal" in2="BackgroundImageFix" result="effect1_dropShadow"/>
<feBlend mode="normal" in="SourceGraphic" in2="effect1_dropShadow" result="shape"/>
</filter>
</defs>
</svg>
