<svg width="97" height="36" viewBox="0 0 97 36" fill="none" xmlns="http://www.w3.org/2000/svg">
<g clip-path="url(#clip0_13516_75145)">
<path d="M0 31.3116C0.0644223 31.2016 0.0589965 31.0741 0.0855072 30.9551C0.422591 29.4455 1.80794 28.31 3.3527 28.2681C4.17412 28.2457 4.91855 28.4534 5.57864 28.9486C5.60199 28.9661 5.62218 28.9961 5.66284 28.9841C5.69533 28.9334 5.67891 28.8752 5.67898 28.8206C5.68015 27.8714 5.67788 26.9222 5.68077 25.973C5.68207 25.5414 5.94917 25.2642 6.346 25.2702C6.7061 25.2757 6.98405 25.543 6.98439 25.9035C6.98618 27.9218 6.99902 29.9403 6.97807 31.9585C6.962 33.5094 5.65316 34.9632 4.11375 35.1985C4.03635 35.2104 3.94961 35.1983 3.88285 35.257H3.13135C3.11143 35.2121 3.06926 35.2283 3.03609 35.2242C1.64819 35.0514 0.460296 34.0074 0.105287 32.6523C0.0650404 32.4985 0.0668948 32.3357 0 32.1883V31.3116ZM5.67816 31.7578C5.68015 30.5561 4.68916 29.564 3.4891 29.5665C3.05654 29.5667 2.63374 29.6952 2.27413 29.9355C1.91451 30.1759 1.6342 30.5175 1.46859 30.9171C1.30308 31.3168 1.25973 31.7565 1.34402 32.1808C1.42831 32.605 1.63645 32.9948 1.94216 33.3008C2.24786 33.6069 2.63741 33.8154 3.06159 33.9002C3.48576 33.9849 3.92554 33.942 4.32536 33.7769C4.7252 33.6118 5.06711 33.3319 5.3079 32.9725C5.54869 32.6131 5.67753 32.1904 5.67816 31.7578ZM31.282 35.257C31.1772 35.1935 31.0548 35.1997 30.941 35.1739C29.3862 34.8221 28.2773 33.4319 28.2368 31.8371C28.1901 29.9996 29.5585 28.7031 30.8313 28.3788C32.8387 27.8674 34.8326 29.1496 35.1848 31.193C35.2145 31.3679 35.2289 31.545 35.228 31.7225C35.227 32.1445 34.973 32.4104 34.5498 32.4112C33.1671 32.4139 31.7844 32.4143 30.4017 32.4124C30.1879 32.4124 29.9738 32.4162 29.7601 32.4108C29.652 32.408 29.6395 32.4411 29.6732 32.5386C29.9283 33.2795 30.7262 33.8856 31.516 33.9429C32.1624 33.9898 32.7304 33.8222 33.2123 33.3752C33.4948 33.1133 33.8919 33.1304 34.1375 33.3973C34.3816 33.6624 34.3672 34.0798 34.0896 34.3409C33.577 34.8321 32.9185 35.1431 32.2136 35.2272C32.1734 35.2323 32.1289 35.2217 32.0962 35.257H31.282ZM31.7337 31.119L33.6564 31.1189C33.8424 31.1189 33.8424 31.1186 33.7705 30.9419C33.4014 30.0349 32.4484 29.4634 31.4583 29.5983C30.6232 29.7121 30.0178 30.1636 29.6873 30.9536C29.6205 31.1134 29.6272 31.1187 29.7954 31.1188C30.4415 31.1193 31.0876 31.1193 31.7337 31.119ZM22.5769 35.257C22.5531 35.221 22.5115 35.2302 22.4783 35.2185C22.3544 35.1754 22.2463 35.0962 22.1681 34.991C22.0898 34.8858 22.0449 34.7596 22.0393 34.6286C22.0345 34.5139 22.0365 34.399 22.0365 34.2843C22.0364 31.54 22.0365 28.7957 22.0367 26.0514C22.0367 25.9473 22.0297 25.8425 22.0586 25.7404C22.1028 25.5915 22.1982 25.4629 22.3279 25.3774C22.4576 25.2919 22.6133 25.2549 22.7676 25.273C23.0808 25.3117 23.3288 25.5674 23.3322 25.8846C23.34 26.6045 23.3362 27.3245 23.3364 28.0445C23.3368 28.947 23.3369 29.8504 23.3365 30.7548C23.4127 30.7697 23.4536 30.7124 23.502 30.681C24.6787 29.918 25.8549 29.1541 27.0305 28.3894C27.4729 28.1029 28.0085 28.3407 28.0693 28.8519C28.0999 29.1095 28.0066 29.3176 27.7787 29.4642C26.972 29.9833 26.1699 30.5094 25.3622 31.027C25.2442 31.1027 25.221 31.1446 25.3262 31.2616C26.1772 32.2081 27.0239 33.1585 27.8662 34.1128C28.245 34.5391 28.0957 35.0645 27.5481 35.2379C27.5391 35.2407 27.5323 35.2505 27.5244 35.257H27.3052C27.0891 35.1981 26.9459 35.0456 26.803 34.8843C25.9327 33.9014 25.0607 32.92 24.1868 31.9402C24.1226 31.8676 24.0761 31.8545 23.9943 31.9122C23.8242 32.0322 23.6502 32.1475 23.4715 32.2539C23.3707 32.3139 23.3321 32.3826 23.3333 32.5037C23.34 33.1913 23.3384 33.8792 23.3356 34.567C23.3341 34.9135 23.1673 35.1288 22.8341 35.2324C22.8204 35.2388 22.8076 35.2471 22.7961 35.257H22.5769ZM10.7718 35.257C10.658 35.1878 10.5251 35.2007 10.4019 35.1736C9.7048 35.0199 9.07165 34.6562 8.58785 34.1313C8.10404 33.6065 7.79288 32.9459 7.69633 32.2387C7.45492 30.4371 8.59495 28.7636 10.3438 28.3525C12.2599 27.9019 14.1706 29.109 14.5804 31.0287C14.9847 32.9227 13.7595 34.7976 11.8653 35.1856C11.7512 35.209 11.6293 35.1952 11.5233 35.257H10.7718ZM13.3429 31.7508C13.3422 30.5505 12.3459 29.5597 11.146 29.5665C9.95001 29.5731 8.96163 30.5657 8.96644 31.7552C8.96652 32.1882 9.09509 32.6115 9.33586 32.9714C9.57662 33.3313 9.91876 33.6117 10.319 33.777C10.5847 33.8868 10.8694 33.9431 11.1569 33.9429C11.5899 33.9423 12.013 33.8134 12.3727 33.5723C12.7324 33.3313 13.0125 32.9891 13.1776 32.5888C13.2872 32.323 13.3434 32.0383 13.3429 31.7508ZM18.4121 35.257C18.3037 35.1888 18.1761 35.2025 18.058 35.1765C17.3524 35.0235 16.7118 34.6553 16.2244 34.1226C15.7371 33.5899 15.4272 32.9191 15.3374 32.2027C15.1108 30.4234 16.2445 28.7535 17.9804 28.3606C19.1065 28.1058 20.1456 28.3186 21.0433 29.0797C21.3624 29.3503 21.3941 29.7979 21.1207 30.0744C20.8874 30.3103 20.5039 30.3261 20.2225 30.1025C19.92 29.8622 19.5921 29.6829 19.2085 29.6056C17.9641 29.3546 16.7168 30.2855 16.6231 31.5506C16.5525 32.5042 16.9376 33.2389 17.7794 33.6823C18.613 34.1214 19.4299 34.0343 20.1785 33.4451C20.4878 33.2015 20.9045 33.2192 21.1367 33.4911C21.379 33.7749 21.3326 34.1848 21.0225 34.45C20.5247 34.8777 19.9107 35.1474 19.259 35.2246C19.2259 35.2289 19.1835 35.2114 19.1637 35.257H18.4121ZM41.2083 29.2764C41.1018 29.5575 40.9301 29.7619 40.6066 29.7909C40.4658 29.8035 40.3415 29.7483 40.2145 29.7027C38.9796 29.2602 37.6633 29.9287 37.3129 31.1767C37.2588 31.3729 37.232 31.5756 37.2334 31.7791C37.2339 32.6606 37.2205 33.5424 37.2393 34.4235C37.2482 34.8433 37.1036 35.1243 36.6991 35.257H36.4486C36.433 35.2449 36.4162 35.2345 36.3985 35.2257C36.0832 35.1067 35.9259 34.8971 35.9255 34.5641C35.9232 32.6918 35.9233 30.8196 35.9258 28.9474C35.9263 28.5903 36.1645 28.31 36.4777 28.2734C36.8334 28.2319 37.1348 28.4265 37.215 28.7559C37.2343 28.8351 37.2336 28.9192 37.2439 29.0189C37.3093 28.9742 37.3681 28.935 37.4259 28.8942C38.1822 28.3598 39.0256 28.19 39.9349 28.2933C40.1162 28.3117 40.2955 28.3459 40.4706 28.3955C40.7907 28.4899 41.0634 28.6432 41.2083 28.9632V29.2764Z" fill="#2596EC"/>
<path d="M23.9536 0C24.0756 0.0764413 24.1148 0.184888 24.1137 0.329185C24.1082 1.10033 24.1115 1.87161 24.1108 2.64282C24.1106 2.87283 24.0323 2.95257 23.8016 2.95292C22.9209 2.95403 22.0402 2.954 21.1595 2.95285C20.9283 2.95257 20.852 2.87435 20.8518 2.642C20.8511 1.87072 20.8546 1.09951 20.8488 0.328293C20.8478 0.183583 20.8886 0.076304 21.0101 0L23.9536 0ZM17.9642 10.6712C21.3873 10.6711 24.8104 10.6771 28.2335 10.6665C28.9973 10.6651 29.7527 10.5076 30.4534 10.2036C30.574 10.1515 30.6152 10.1106 30.5341 9.97082C29.8843 8.85181 29.8131 7.66412 30.1452 6.43556C30.3427 5.70931 30.6756 5.02686 31.1262 4.42405C31.1689 4.36643 31.197 4.33841 31.2748 4.38092C32.5492 5.07734 33.4196 6.09848 33.8022 7.5133C33.8344 7.62332 33.8578 7.73575 33.8723 7.84949C33.8826 7.94674 33.9212 7.94969 34.005 7.93712C34.894 7.80382 35.7804 7.78685 36.6593 8.01432C37.1443 8.13994 37.5932 8.3352 37.9771 8.66885C38.0581 8.73938 38.076 8.79007 38.0416 8.88931C37.5482 10.3139 36.5302 11.1764 35.1199 11.6132C34.5629 11.7857 33.9865 11.8441 33.405 11.8281C33.2632 11.8242 33.2088 11.8729 33.1598 11.9965C32.5739 13.4732 31.879 14.8936 30.9701 16.2026C29.0025 19.0366 26.3323 20.877 23.0287 21.8231C21.5481 22.2472 20.0364 22.4649 18.4986 22.525C16.8023 22.5913 15.1213 22.4848 13.4639 22.1047C12.3446 21.8479 11.2699 21.4752 10.3252 20.7972C9.19208 19.9839 8.41181 18.8897 7.83894 17.6367C7.28874 16.4334 6.96395 15.1659 6.78985 13.8567C6.69924 13.1532 6.65203 12.4448 6.6485 11.7356C6.64246 11.0808 7.0542 10.6716 7.71058 10.6714C11.1285 10.6708 14.5463 10.6707 17.9642 10.6712Z" fill="#2496EC"/>
<path d="M14.768 7.10771C15.206 7.10771 15.6441 7.10778 16.082 7.10792C16.3101 7.10826 16.3945 7.18999 16.3949 7.41849C16.3964 8.1954 16.3964 8.97231 16.395 9.74923C16.3946 9.97917 16.3142 10.0655 16.0853 10.0663C15.2041 10.0693 14.3229 10.0693 13.4416 10.0664C13.2118 10.0656 13.1286 9.97986 13.1281 9.75273C13.1263 8.97582 13.1262 8.1989 13.1279 7.42199C13.1284 7.18752 13.2133 7.10805 13.454 7.10785C13.892 7.10737 14.33 7.10737 14.768 7.10771ZM14.756 6.51198C14.318 6.51198 13.88 6.51287 13.442 6.51163C13.2176 6.51101 13.1285 6.42372 13.1281 6.19886C13.1266 5.42195 13.1266 4.64503 13.1281 3.86812C13.1286 3.63296 13.2136 3.55109 13.4539 3.55082C14.3247 3.54966 15.1955 3.54964 16.0662 3.55075C16.314 3.55109 16.3949 3.63248 16.3952 3.88035C16.3962 4.64682 16.3963 5.41329 16.3953 6.17977C16.3951 6.43375 16.3142 6.51163 16.0544 6.51184C15.6216 6.5123 15.1888 6.51234 14.756 6.51198ZM18.6584 7.10771C19.0964 7.10771 19.5344 7.10702 19.9724 7.10798C20.1879 7.10846 20.2771 7.19445 20.2777 7.41135C20.2795 8.19348 20.2795 8.97561 20.2777 9.75774C20.277 9.97677 20.1934 10.0652 19.9747 10.066C19.0882 10.0693 18.2018 10.0693 17.3153 10.0661C17.0962 10.0653 17.01 9.97656 17.0094 9.76008C17.007 8.97795 17.007 8.19581 17.0092 7.41368C17.0098 7.19136 17.1008 7.10812 17.3287 7.10785C17.7719 7.10732 18.2152 7.10727 18.6584 7.10771ZM26.3511 7.10771C26.789 7.10771 27.2271 7.10771 27.6651 7.10785C27.8994 7.10819 27.9826 7.19122 27.9829 7.4301C27.984 8.20179 27.9839 8.97348 27.9828 9.74524C27.9824 9.97642 27.9022 10.0652 27.6763 10.0661C26.7899 10.0693 25.9034 10.0693 25.017 10.066C24.7996 10.0652 24.715 9.97574 24.7143 9.75692C24.712 8.98001 24.7119 8.20309 24.7141 7.42618C24.7148 7.18944 24.8012 7.10812 25.037 7.10785C25.475 7.10732 25.913 7.10727 26.3511 7.10771ZM18.6284 6.51198C18.1957 6.51198 17.7628 6.51266 17.3301 6.51163C17.0965 6.51108 17.0093 6.42516 17.0089 6.18959C17.0075 5.41796 17.0075 4.64627 17.0089 3.87458C17.0095 3.63722 17.0945 3.5513 17.3293 3.55089C18.2053 3.54944 19.0813 3.54944 19.9573 3.55089C20.193 3.55123 20.2774 3.63619 20.2779 3.87348C20.2793 4.64513 20.2793 5.41677 20.2778 6.18842C20.2772 6.43148 20.1917 6.51149 19.9424 6.51177C19.5044 6.51239 19.0664 6.51239 18.6284 6.51198ZM10.9439 7.10771C11.387 7.10771 11.83 7.10689 12.2732 7.10805C12.48 7.1086 12.5707 7.19287 12.5716 7.40214C12.5746 8.18922 12.5746 8.9763 12.5716 9.76338C12.5707 9.98329 12.4859 10.0604 12.2624 10.0608C11.3814 10.0619 10.5005 10.0619 9.61955 10.0608C9.38796 10.0605 9.30623 9.98102 9.30574 9.75273C9.30427 8.97087 9.30434 8.18901 9.30595 7.40716C9.30643 7.1928 9.39647 7.10833 9.61467 7.10792C10.0578 7.10716 10.5008 7.10709 10.9439 7.10771Z" fill="#2596EC"/>
<path d="M22.4812 3.55689C22.9191 3.55696 23.357 3.55614 23.7949 3.55724C24.0369 3.55786 24.111 3.63292 24.1112 3.87537C24.1117 4.64683 24.1116 5.41829 24.1111 6.18976C24.111 6.42925 24.0307 6.51125 23.795 6.51139C22.9193 6.51208 22.0435 6.51208 21.1678 6.51139C20.9322 6.51125 20.8521 6.42939 20.8519 6.18983C20.8514 5.41834 20.8515 4.64692 20.852 3.87543C20.8522 3.63189 20.9254 3.55779 21.1676 3.55724C21.6055 3.55614 22.0433 3.55689 22.4812 3.55689ZM22.4718 10.0609C22.034 10.0609 21.5962 10.062 21.1583 10.0605C20.9274 10.0596 20.8523 9.98236 20.8521 9.74823C20.8514 8.97161 20.8514 8.195 20.8521 7.41838C20.8523 7.18878 20.9331 7.10802 21.1617 7.10788C22.0426 7.10726 22.9235 7.10726 23.8044 7.10788C24.0309 7.10808 24.1109 7.18975 24.1111 7.42147C24.1119 8.19811 24.1119 8.97475 24.1111 9.75139C24.111 9.98092 24.0323 10.0598 23.801 10.0605C23.358 10.0619 22.9149 10.0609 22.4718 10.0609Z" fill="#2496EC"/>
<path d="M38.8132 34.3028C38.8733 34.3028 38.9329 34.3146 38.9884 34.3376C39.0436 34.3609 39.0937 34.3946 39.136 34.437C39.1779 34.4796 39.2116 34.53 39.2343 34.5856C39.2567 34.6412 39.2681 34.7006 39.2679 34.7605C39.2673 34.8206 39.2547 34.8799 39.2308 34.9349C39.2074 34.99 39.1733 35.0399 39.1306 35.0818C39.0875 35.1235 39.0366 35.1563 38.9808 35.1785C38.9251 35.2005 38.8656 35.2113 38.8057 35.2102C38.5447 35.2082 38.3325 34.9958 38.34 34.7445C38.3459 34.6237 38.3987 34.5099 38.487 34.4274C38.5753 34.3448 38.6924 34.3002 38.8132 34.3028ZM39.0172 35.0087C39.1505 34.9132 39.1869 34.7601 39.1148 34.6008C39.0826 34.5257 39.0239 34.465 38.9499 34.4303C38.8761 34.3954 38.792 34.3888 38.7137 34.4117C38.6431 34.4324 38.5807 34.4745 38.5351 34.5322C38.4897 34.5899 38.4631 34.6601 38.4589 34.7334C38.4492 34.8816 38.5372 35.0369 38.6752 35.0811C38.7981 35.1208 38.9293 35.1438 39.0193 35.0064L39.0172 35.0087Z" fill="#2596EC"/>
<path d="M39.0183 35.0062C38.9387 34.9994 38.8844 34.9658 38.8714 34.8782C38.8645 34.8293 38.8253 34.8109 38.7786 34.8157C38.723 34.8212 38.7395 34.8668 38.7361 34.9C38.7313 34.9385 38.7477 34.9942 38.6818 34.9893C38.6207 34.9846 38.6358 34.9305 38.6337 34.8916C38.6317 34.8395 38.6337 34.7873 38.6337 34.7351C38.6337 34.5375 38.7203 34.4767 38.9105 34.5391C38.9682 34.558 39.019 34.6114 38.9922 34.6514C38.9023 34.7833 39.0238 34.8896 39.0163 35.0085L39.0183 35.0062ZM38.8061 34.603C38.7628 34.5982 38.7374 34.6135 38.7374 34.6611C38.7367 34.7026 38.7457 34.7326 38.7958 34.7281C38.8384 34.7243 38.8837 34.7186 38.8824 34.6637C38.881 34.6207 38.8439 34.6079 38.8061 34.603Z" fill="#2596EC"/>
<path fill-rule="evenodd" clip-rule="evenodd" d="M52.8844 13.0498H50.1371V16.4838H46.7031V19.231H50.1371V22.6651H52.8844V19.231H56.3184V16.4838H52.8844V13.0498Z" fill="#BFCAD6"/>
<path d="M78.0167 17.0557H97.6366V-0.142578L78.0167 2.74012V17.0557ZM76.6337 17.0557V2.94254L62.3867 5.03504V17.0557H76.6337ZM76.6337 18.4473H62.3867V30.6211L76.6337 32.7374V18.4473ZM78.0167 18.4473V32.9432L97.6366 35.8574V18.4473H78.0167Z" fill="#0078D6"/>
</g>
<defs>
<clipPath id="clip0_13516_75145">
<rect width="96.3243" height="36" fill="white"/>
</clipPath>
</defs>
</svg>
