<svg xmlns="http://www.w3.org/2000/svg" fill="none" viewBox="0 0 140 51"><rect width="100%" height="100%"/><g class="currentLayer"><path fill="#2596EC" d="M0 45.591c.0938-.1602.0859-.3458.1245-.5191.4908-2.1981 2.5079-3.8514 4.7571-3.9124 1.196-.0325 2.2799.2699 3.241.9909.034.0255.0634.0692.1226.0516.0473-.0737.0234-.1585.0235-.238.0017-1.3821-.0016-2.7641.0026-4.1462.0019-.6284.3908-1.032.9686-1.0232.5243.008.929.3972.9295.9221.0026 2.9387.0213 5.8776-.0092 8.8161-.0234 2.2582-1.9291 4.375-4.1705 4.7176-.1127.0173-.239-.0004-.3362.0851H4.5593c-.029-.0654-.0904-.0417-.1387-.0477C2.3998 51.0361.6702 49.5161.1533 47.543c-.0586-.2239-.0559-.461-.1533-.6755V45.591zm8.2675.6496c.0029-1.7497-1.44-3.1942-3.1873-3.1906a3.1865 3.1865 0 00-2.9419 1.9666 3.186 3.186 0 004.1595 4.1639 3.1857 3.1857 0 001.9697-2.9399zM45.5471 51.3355c-.1525-.0925-.3307-.0834-.4965-.1209-2.2637-.5123-3.8784-2.5364-3.9373-4.8585-.068-2.6755 1.9244-4.5632 3.7776-5.0353 2.9229-.7447 5.826 1.1222 6.3388 4.0974.0432.2547.0642.5126.0629.771-.0015.6145-.3713 1.0016-.9874 1.0028a1815.193 1815.193 0 01-6.0397.0017c-.3114 0-.6231.0056-.9343-.0023-.1574-.004-.1755.0441-.1265.1861.3715 1.0787 1.5332 1.9613 2.6832 2.0447.9412.0683 1.7681-.1757 2.4698-.8266.4113-.3814.9895-.3564 1.3472.0321.3554.3861.3344.9938-.0698 1.374a4.7637 4.7637 0 01-2.7315 1.2904c-.0585.0074-.1234-.008-.171.0434h-1.1855zm.6577-6.025l2.7995-.0001c.2709 0 .2709-.0005.1662-.2577-.5374-1.3207-1.925-2.1528-3.3666-1.9563-1.216.1657-2.0974.823-2.5786 1.9733-.0973.2326-.0875.2404.1573.2406.9408.0006 1.8815.0006 2.8222.0002zM32.8724 51.3355c-.0347-.0524-.0952-.039-.1436-.0561a.9526.9526 0 01-.6392-.8589c-.007-.1669-.004-.3342-.004-.5013-.0002-3.9957-.0001-7.9915.0003-11.9872 0-.1515-.0102-.3042.0319-.4528a.96.96 0 011.0322-.6805c.456.0563.8172.4286.8221.8905.0113 1.0481.0058 2.0965.0062 3.1448.0005 1.314.0006 2.6294.0001 3.9463.1109.0216.1705-.0618.241-.1075a4331.1308 4331.1308 0 005.1375-3.3366c.6442-.4172 1.424-.071 1.5125.6734.0446.3751-.0913.678-.4231.8915-1.1745.7558-2.3425 1.5218-3.5184 2.2755-.1719.1102-.2057.1712-.0525.3415a603.7337 603.7337 0 013.6983 4.1514c.5515.6208.3342 1.3857-.4631 1.6382-.0131.0041-.0231.0183-.0346.0278h-.3191c-.3146-.0857-.5232-.3078-.7312-.5427a1612.0907 1612.0907 0 00-3.8092-4.2866c-.0936-.1057-.1612-.1248-.2803-.0408-.2477.1747-.501.3426-.7613.4976-.1468.0873-.2029.1874-.2012.3636.0097 1.0013.0075 2.0028.0033 3.0042-.0021.5046-.245.8181-.7301.9689a.2418.2418 0 00-.0554.0358h-.3191zM15.6839 51.3355c-.1656-.1007-.3591-.082-.5386-.1214a5.0794 5.0794 0 01-3.9393-4.2733c-.3515-2.6231 1.3084-5.0598 3.8548-5.6584 2.7898-.656 5.5718 1.1015 6.1685 3.8967.5887 2.7577-1.1952 5.4876-3.9532 6.0524-.1661.0341-.3436.0141-.498.104h-1.0942zm3.7436-5.1051c-.001-1.7477-1.4517-3.1902-3.1987-3.1804-1.7414.0097-3.1805 1.4549-3.1735 3.1869a3.1857 3.1857 0 001.9693 2.9437 3.1882 3.1882 0 001.2201.2415 3.1872 3.1872 0 002.9422-1.9715 3.1878 3.1878 0 00.2406-1.2202zM26.8084 51.3355c-.1579-.0993-.3436-.0794-.5156-.1172a5.0762 5.0762 0 01-3.9612-4.3299c-.33-2.5907 1.3207-5.0221 3.8482-5.5941 1.6396-.371 3.1525-.0612 4.4596 1.0469.4647.394.5108 1.0458.1128 1.4483-.3397.3435-.8982.3665-1.3079.041-.4404-.3499-.9178-.6109-1.4764-.7235-1.8118-.3655-3.628.99-3.7643 2.8319-.1028 1.3885.4578 2.4582 1.6836 3.1039 1.2137.6392 2.4031.5125 3.493-.3455.4504-.3546 1.0571-.3289 1.3952.067.3528.4132.2852 1.0101-.1662 1.3962a4.8077 4.8077 0 01-2.5678 1.1279c-.0482.0062-.1099-.0193-.1387.0471h-1.0943zM60 42.6276c-.155.4093-.405.707-.876.7492-.205.0183-.386-.062-.571-.1284-1.798-.6444-3.7145.329-4.2248 2.1462a3.2193 3.2193 0 00-.1157.877c.0008 1.2835-.0187 2.5674.0086 3.8504.013.6111-.1976 1.0203-.7865 1.2135h-.3647a.4304.4304 0 00-.073-.0455c-.4591-.1733-.6881-.4785-.6887-.9634-.0034-2.726-.0032-5.452.0004-8.178.0008-.5199.3476-.928.8036-.9813.5179-.0605.9567.2229 1.0735.7025.0281.1153.0271.2377.0421.3829.0952-.0651.1809-.1222.265-.1815 1.1012-.7781 2.3292-1.0254 3.6532-.875.264.0268.525.0766.78.1489.466.1374.863.3606 1.074.8266v.4559z"/><path fill="#2496EC" d="M34.8785 0c.1777.1113.2347.2692.2332.4793-.0081 1.1228-.0032 2.2458-.0042 3.3687-.0003.3349-.1144.451-.4503.4515a1493.217 1493.217 0 01-3.8469-.0001c-.3366-.0004-.4477-.1143-.448-.4526-.0011-1.123.004-2.2459-.0044-3.3688-.0015-.2107.058-.3669.2349-.478h4.2857zM26.1579 15.5374c4.9841-.0001 9.9682.0086 14.9522-.0068a8.1568 8.1568 0 003.2323-.674c.1756-.0759.2356-.1354.1175-.3389-.9462-1.6293-1.0498-3.3586-.5663-5.1474a8.709 8.709 0 011.4284-2.9288c.0621-.0839.1031-.1247.2163-.0628 1.8556 1.014 3.1229 2.5008 3.68 4.5608.0469.1602.081.3239.102.4895.0151.1416.0713.1459.1932.1276 1.2944-.1941 2.5851-.2188 3.8647.1124.7063.1829 1.3598.4672 1.9188.953.118.1027.144.1765.094.321-.7184 2.0742-2.2007 3.3301-4.2541 3.966-.811.2512-1.6503.3363-2.4969.3129-.2065-.0057-.2857.0653-.3571.2452-.853 2.1502-1.8649 4.2182-3.1882 6.1242-2.8648 4.1264-6.7528 6.806-11.5628 8.1835-2.1558.6175-4.3569.9345-6.596 1.022-2.4698.0966-4.9174-.0585-7.3305-.612-1.6298-.3739-3.1946-.9165-4.5701-1.9037-1.6498-1.1842-2.7859-2.7774-3.62-4.6017-.8011-1.7521-1.274-3.5975-1.5275-5.5038a25.1549 25.1549 0 01-.2058-3.0884c-.0088-.9533.5907-1.5492 1.5464-1.5494 4.9765-.0009 9.953-.0011 14.9295-.0004z"/><path fill="#2596EC" d="M21.5065 10.3491c.6377 0 1.2755.0001 1.9132.0003.3321.0005.455.1195.4556.4522.0021 1.1312.0021 2.2624.0001 3.3936-.0006.3348-.1177.4605-.451.4616-1.283.0044-2.5661.0044-3.8492.0002-.3346-.0011-.4558-.126-.4565-.4567a752.1138 752.1138 0 01-.0002-3.3936c.0007-.3414.1242-.4571.4747-.4574.6378-.0007 1.2755-.0007 1.9133-.0002zM21.489 9.4817c-.6377 0-1.2755.0013-1.9132-.0005-.3268-.0009-.4565-.128-.4571-.4554a873.5505 873.5505 0 010-3.3936c.0008-.3424.1245-.4616.4744-.462a1459.787 1459.787 0 013.8036-.0001c.3608.0005.4785.119.479.4799.0015 1.116.0016 2.232.0001 3.348-.0003.3698-.118.4832-.4963.4835a991.432 991.432 0 01-1.8905.0002zM27.1709 10.3491c.6378 0 1.2755-.001 1.9133.0004.3137.0007.4436.1259.4444.4417a720.2673 720.2673 0 010 3.4164c-.0009.3189-.1226.4477-.4411.4488a525.9443 525.9443 0 01-3.8721.0002c-.319-.0012-.4445-.1304-.4455-.4456a590.2181 590.2181 0 01-.0002-3.4164c.0009-.3237.1334-.4449.4652-.4453a892.4052 892.4052 0 011.936-.0002zM38.3716 10.3491c.6377 0 1.2755 0 1.9132.0002.3412.0005.4623.1214.4628.4692.0016 1.1236.0015 2.2472-.0001 3.3709-.0006.3366-.1174.4659-.4463.4671a525.9175 525.9175 0 01-3.872-.0001c-.3166-.0012-.4398-.1314-.4408-.45a590.57 590.57 0 01-.0002-3.3936c.0009-.3447.1267-.4631.4701-.4635a871.6034 871.6034 0 011.9133-.0002zM27.1273 9.4817c-.6301 0-1.2603.001-1.8904-.0005-.3401-.0008-.4671-.1259-.4677-.4689-.002-1.1235-.002-2.2471.0001-3.3707.0008-.3456.1246-.4707.4665-.4713 1.2754-.0021 2.5509-.0021 3.8263 0 .3433.0005.4661.1242.4668.4697a881.6486 881.6486 0 01-.0001 3.3706c-.0008.3539-.1253.4704-.4883.4708-.6378.0009-1.2755.0009-1.9132.0003zM15.9385 10.3491c.6451 0 1.2902-.0012 1.9354.0005.3012.0008.4333.1235.4345.4282.0044 1.146.0044 2.292 0 3.438-.0013.3202-.1248.4325-.4502.433-1.2827.0016-2.5653.0016-3.848 0-.3372-.0004-.4562-.1161-.4569-.4485a864.4451 864.4451 0 01.0003-3.4152c.0007-.3121.1318-.4351.4495-.4357a625.8322 625.8322 0 011.9354-.0003z"/><path fill="#2496EC" d="M32.7343 5.1793c.6375.0001 1.2751-.0011 1.9127.0005.3523.0009.4603.1102.4605.4632a2518.435 2518.435 0 01-.0001 3.3698c-.0002.3487-.1171.4681-.4602.4683-1.2751.001-2.5502.001-3.8253 0-.3431-.0002-.4596-.1194-.4599-.4682-.0008-1.1233-.0007-2.2465.0001-3.3698.0003-.3546.1069-.4625.4595-.4633.6376-.0016 1.2751-.0005 1.9127-.0005zM32.7206 14.6493c-.6375 0-1.275.0016-1.9125-.0007-.3362-.0012-.4456-.1137-.4459-.4546a1919.004 1919.004 0 010-3.3923c.0003-.3343.118-.4519.4508-.4521 1.2826-.0009 2.5652-.0009 3.8478 0 .3298.0003.4463.1192.4466.4566.0011 1.1308.0011 2.2616 0 3.3924-.0002.3342-.1147.4491-.4515.4501-.6451.002-1.2902.0006-1.9353.0006z"/><path fill="#2596EC" d="M56.51 49.9458a.6629.6629 0 01.255.0506.674.674 0 01.215.1447c.061.062.11.1355.143.2164a.6735.6735 0 01.049.2547.6535.6535 0 01-.054.2539.6634.6634 0 01-.146.2138.6676.6676 0 01-.218.1408.6586.6586 0 01-.255.0462c-.38-.0029-.689-.3122-.678-.6781a.677.677 0 01.214-.4617.6737.6737 0 01.475-.1813zm.297 1.0278c.194-.1391.247-.3621.142-.594a.4858.4858 0 00-.24-.2483.4865.4865 0 00-.344-.027.517.517 0 00-.26.1755.5215.5215 0 00-.111.2929c-.014.2157.114.4419.315.5063.179.0577.37.0913.501-.1088l-.003.0034z"/><path fill="#2596EC" d="M56.81 50.9703c-.116-.0099-.195-.0588-.214-.1864-.01-.0711-.067-.0979-.135-.091-.081.0081-.057.0745-.062.1228-.007.0561.017.1372-.079.13-.089-.0068-.067-.0856-.07-.1422-.003-.0759 0-.1519 0-.2279 0-.2877.126-.3762.403-.2854.084.0276.158.1053.119.1635-.131.1921.046.3468.035.5199l.003-.0033zm-.309-.587c-.063-.0071-.1.0152-.1.0846-.001.0603.012.1041.085.0975.062-.0055.128-.0138.126-.0938-.002-.0626-.056-.0812-.111-.0883z"/><path fill="#BFCAD6" fill-rule="evenodd" d="M77 19h-4v5h-5v4h5v5h4v-5h5v-4h-5v-5z" clip-rule="evenodd"/><path fill="#0078D6" d="M113.84 24.9311H140V2l-26.16 3.8436v19.0875zM111.996 24.9311V6.1135L93 8.9035v16.0276h18.996zM111.996 26.7866H93v16.2317l18.996 2.8217V26.7866zM113.84 26.7866v19.3279L140 50.0001V26.7866h-26.16z"/></g></svg>