<svg width="140" height="90" viewBox="0 0 140 90" fill="none" xmlns="http://www.w3.org/2000/svg">
<path d="M52.7869 45.2665C52.7869 40.9807 51.5626 38.7805 49.1139 38.66C48.1396 38.6141 47.1883 38.769 46.2629 39.1276C45.5243 39.3915 45.0271 39.6525 44.7655 39.9165V50.1461C46.3319 51.1272 47.7229 51.5833 48.9358 51.5116C51.5023 51.3424 52.7869 49.2626 52.7869 45.2665ZM55.8076 45.4444C55.8076 47.6217 55.296 49.429 54.2671 50.8662C53.1203 52.4927 51.531 53.3303 49.4991 53.3762C47.9672 53.425 46.3894 52.9459 44.7655 51.9419V61.2393L42.1387 60.3041V39.6669C42.5698 39.139 43.1245 38.6858 43.797 38.3014C45.3605 37.392 47.2602 36.9244 49.4962 36.9015L49.5335 36.9388C51.577 36.913 53.1519 37.7506 54.2585 39.4489C55.2902 41.0065 55.8076 43.0031 55.8076 45.4444Z" fill="#646464"/>
<path d="M71.8615 51.546C71.8615 54.4663 71.5683 56.4887 70.982 57.6133C70.3929 58.7378 69.272 59.6357 67.6165 60.3041C66.2744 60.8319 64.823 61.1188 63.2653 61.1675L62.8313 59.5152C64.4149 59.3 65.53 59.0849 66.1767 58.8697C67.4499 58.4394 68.3236 57.7796 68.8035 56.8961C69.1886 56.1761 69.3783 54.802 69.3783 52.7681V52.0853C67.5821 52.9 65.6996 53.3045 63.7309 53.3045C62.4376 53.3045 61.2966 52.9 60.3136 52.0853C59.21 51.1989 58.6582 50.0744 58.6582 48.7118V37.7994L61.2851 36.9015V47.8856C61.2851 49.0589 61.6644 49.9625 62.4232 50.5965C63.1819 51.2305 64.1648 51.5346 65.3691 51.5116C66.5733 51.4858 67.8637 51.0211 69.2346 50.1117V37.2974H71.8615V51.546Z" fill="#646464"/>
<path d="M82.1169 53.2328C81.8037 53.2586 81.5163 53.2701 81.2519 53.2701C79.766 53.2701 78.6077 52.9172 77.78 52.2087C76.9552 51.5001 76.5413 50.5219 76.5413 49.274V38.9468H74.7422V37.2973H76.5413V32.9169L79.1653 31.9846V37.2973H82.1169V38.9468H79.1653V49.2023C79.1653 50.1862 79.4297 50.8833 79.9585 51.2907C80.4126 51.6263 81.134 51.8185 82.1169 51.8673V53.2328Z" fill="#646464"/>
<path d="M98.0215 53.0176H95.3947V42.897C95.3947 41.8671 95.1532 40.9807 94.6733 40.2406C94.1186 39.4029 93.3483 38.9841 92.3597 38.9841C91.1555 38.9841 89.6495 39.6181 87.8417 40.886V53.0176H85.2148V28.8262L87.8417 28V39.0185C89.5201 37.7994 91.3538 37.1883 93.3455 37.1883C94.7365 37.1883 95.8631 37.6559 96.7253 38.5882C97.5904 39.5206 98.0215 40.6824 98.0215 42.0708V53.0176Z" fill="#646464"/>
<path d="M111.983 44.8534C111.983 43.2068 111.67 41.8471 111.046 40.7713C110.305 39.4603 109.152 38.769 107.595 38.6973C104.715 38.8637 103.278 40.9234 103.278 44.8706C103.278 46.6808 103.577 48.1926 104.18 49.406C104.951 50.9522 106.106 51.7153 107.646 51.6895C110.538 51.6665 111.983 49.3888 111.983 44.8534ZM114.86 44.8706C114.86 47.2143 114.26 49.165 113.061 50.7227C111.742 52.4669 109.92 53.3418 107.595 53.3418C105.29 53.3418 103.494 52.4669 102.197 50.7227C101.022 49.165 100.436 47.2143 100.436 44.8706C100.436 42.6675 101.071 40.8144 102.341 39.3054C103.683 37.7047 105.448 36.9015 107.629 36.9015C109.811 36.9015 111.587 37.7047 112.955 39.3054C114.225 40.8144 114.86 42.6675 114.86 44.8706Z" fill="#646464"/>
<path d="M129.919 53.0177H127.292V42.3233C127.292 41.15 126.939 40.2349 126.232 39.5751C125.525 38.9182 124.582 38.5997 123.407 38.6256C122.159 38.6485 120.972 39.0559 119.846 39.8447V53.0177H117.219V39.5206C118.73 38.4219 120.122 37.7047 121.392 37.3691C122.59 37.0564 123.648 36.9015 124.559 36.9015C125.183 36.9015 125.769 36.9617 126.321 37.0822C127.353 37.3203 128.192 37.7621 128.838 38.4104C129.56 39.1276 129.919 39.9882 129.919 40.9951V53.0177Z" fill="#646464"/>
<path d="M16.1934 28.9231C14.8418 28.9293 13.5511 29.0444 12.4155 29.245C9.06992 29.8349 8.4625 31.0697 8.4625 33.3469V36.3544H16.3684V37.3569H8.4625H5.49547C3.19778 37.3569 1.18586 38.7353 0.556559 41.3577C-0.169334 44.3634 -0.201531 46.2391 0.556559 49.3776C1.11854 51.7138 2.46063 53.3784 4.75832 53.3784H7.47656V49.7731C7.47656 47.1685 9.73435 44.871 12.4155 44.871H20.3122C22.5104 44.871 24.2652 43.0645 24.2652 40.861V33.3469C24.2652 31.2084 22.4577 29.6019 20.3122 29.245C18.9541 29.0193 17.5449 28.9168 16.1934 28.9231ZM11.9179 31.3419C12.7345 31.3419 13.4014 32.0184 13.4014 32.8503C13.4014 33.6791 12.7345 34.3494 11.9179 34.3494C11.0983 34.3494 10.4344 33.6791 10.4344 32.8503C10.4344 32.0184 11.0983 31.3419 11.9179 31.3419Z" fill="url(#paint0_linear)"/>
<path d="M16.1934 28.9231C14.8418 28.9293 13.5511 29.0444 12.4155 29.245C9.06992 29.8349 8.4625 31.0697 8.4625 33.3469V36.3544H16.3684V37.3569H8.4625H5.49547C3.19778 37.3569 1.18586 38.7353 0.556559 41.3577C-0.169334 44.3634 -0.201531 46.2391 0.556559 49.3776C1.11854 51.7138 2.46063 53.3784 4.75832 53.3784H7.47656V49.7731C7.47656 47.1685 9.73435 44.871 12.4155 44.871H20.3122C22.5104 44.871 24.2652 43.0645 24.2652 40.861V33.3469C24.2652 31.2084 22.4577 29.6019 20.3122 29.245C18.9541 29.0193 17.5449 28.9168 16.1934 28.9231ZM11.9179 31.3419C12.7345 31.3419 13.4014 32.0184 13.4014 32.8503C13.4014 33.6791 12.7345 34.3494 11.9179 34.3494C11.0983 34.3494 10.4344 33.6791 10.4344 32.8503C10.4344 32.0184 11.0983 31.3419 11.9179 31.3419Z" fill="#306998"/>
<path d="M25.2515 37.3569V40.861C25.2515 43.5777 22.9439 45.8643 20.3126 45.8643H12.4159C10.2528 45.8643 8.46289 47.7121 8.46289 49.8742V57.3883C8.46289 59.5269 10.326 60.7848 12.4159 61.3983C14.9184 62.1328 17.3183 62.2655 20.3126 61.3983C22.3029 60.8231 24.2656 59.6655 24.2656 57.3883V54.3809H16.3688V53.3784H24.2656H28.2185C30.5162 53.3784 31.3724 51.7787 32.1715 49.3776C32.9969 46.9057 32.9618 44.5286 32.1715 41.3576C31.6037 39.0746 30.5191 37.3569 28.2185 37.3569H25.2515ZM20.8102 56.3859C21.6297 56.3859 22.2937 57.0561 22.2937 57.885C22.2937 58.7168 21.6297 59.3933 20.8102 59.3933C19.9935 59.3933 19.3266 58.7168 19.3266 57.885C19.3266 57.0561 19.9935 56.3859 20.8102 56.3859Z" fill="url(#paint1_linear)"/>
<path d="M25.2515 37.3569V40.861C25.2515 43.5777 22.9439 45.8643 20.3126 45.8643H12.4159C10.2528 45.8643 8.46289 47.7121 8.46289 49.8742V57.3883C8.46289 59.5269 10.326 60.7848 12.4159 61.3983C14.9184 62.1328 17.3183 62.2655 20.3126 61.3983C22.3029 60.8231 24.2656 59.6655 24.2656 57.3883V54.3809H16.3688V53.3784H24.2656H28.2185C30.5162 53.3784 31.3724 51.7787 32.1715 49.3776C32.9969 46.9057 32.9618 44.5286 32.1715 41.3576C31.6037 39.0746 30.5191 37.3569 28.2185 37.3569H25.2515ZM20.8102 56.3859C21.6297 56.3859 22.2937 57.0561 22.2937 57.885C22.2937 58.7168 21.6297 59.3933 20.8102 59.3933C19.9935 59.3933 19.3266 58.7168 19.3266 57.885C19.3266 57.0561 19.9935 56.3859 20.8102 56.3859Z" fill="#FFD43B"/>
<path d="M135.034 34.9598H135.495V32.0766H136.586V31.733H133.943V32.0766H135.034V34.9598ZM136.994 34.9598H137.388V32.3266L138.242 34.9594H138.68L139.57 32.3355V34.9598H139.999V31.733H139.431L138.459 34.4974L137.629 31.733H136.994V34.9598Z" fill="#646464"/>
<defs>
<linearGradient id="paint0_linear" x1="2.58039e-08" y1="28.9228" x2="18.2016" y2="44.4621" gradientUnits="userSpaceOnUse">
<stop stop-color="#5A9FD4"/>
<stop offset="1" stop-color="#306998"/>
</linearGradient>
<linearGradient id="paint1_linear" x1="20.6202" y1="57.6322" x2="14.096" y2="48.4728" gradientUnits="userSpaceOnUse">
<stop stop-color="#FFD43B"/>
<stop offset="1" stop-color="#FFE873"/>
</linearGradient>
</defs>
</svg>
