<svg width="36" height="36" viewBox="0 0 36 36" fill="none" xmlns="http://www.w3.org/2000/svg">
<g clip-path="url(#clip0_13516_109516)">
<path d="M11.3284 -0.334961C11.1071 -0.32174 10.8964 -0.235678 10.7291 -0.0901877C10.4873 -0.223965 10.2107 -0.281573 9.93558 -0.255467C9.66046 -0.229361 9.39965 -0.120758 9.18731 0.0561139C8.98464 -0.0122725 8.76593 -0.0172676 8.56035 0.0417939C8.35477 0.100855 8.17206 0.221169 8.03659 0.3867C7.73934 0.324205 7.43114 0.337444 7.14034 0.4252C6.84955 0.512956 6.58548 0.672413 6.37241 0.888908C5.14855 0.742607 4.79264 1.58665 5.2217 2.38287C5.12865 2.48339 5.05661 2.60149 5.00983 2.73024C4.96305 2.85898 4.94247 2.99577 4.94928 3.13258C4.9561 3.26939 4.99017 3.40346 5.04952 3.52692C5.10886 3.65038 5.19227 3.76073 5.29485 3.85151C5.2128 4.09191 5.20759 4.35188 5.27993 4.59538C5.35227 4.83887 5.49859 5.05382 5.69858 5.21043C5.6519 5.44768 5.68113 5.69361 5.78214 5.9133C5.88315 6.13299 6.0508 6.31528 6.26128 6.43429C6.27724 6.72885 6.37351 7.01343 6.53965 7.25718C6.70579 7.50094 6.93547 7.69458 7.2038 7.81712C7.25059 8.11437 7.39736 8.38677 7.61988 8.58934C7.84239 8.7919 8.12734 8.91252 8.42767 8.93126C8.50934 9.19446 8.6712 9.42556 8.89063 9.59228C9.11005 9.75899 9.37608 9.85298 9.65153 9.86112C8.58152 10.3579 7.69231 11.1749 7.10688 12.1991C6.52145 13.2232 6.26873 14.404 6.38367 15.5781L6.15155 15.9945C5.4987 16.4391 4.94884 17.0185 4.53911 17.6938C4.12939 18.369 3.86934 19.1243 3.77652 19.9087C3.68371 20.693 3.7603 21.4882 4.00112 22.2404C4.24194 22.9926 4.64138 23.6844 5.17246 24.269C5.3576 25.1045 5.61169 25.9232 5.9321 26.7167C6.07072 27.7954 6.49424 28.8177 7.1591 29.6784C7.82395 30.5391 8.70612 31.2071 9.71484 31.6136C10.8168 32.4979 12.0581 33.1929 13.3878 33.6703C13.9479 34.2951 14.6327 34.7955 15.3982 35.1391C16.1637 35.4827 16.9927 35.6618 17.8318 35.665H17.9049C18.7439 35.6618 19.573 35.4827 20.3385 35.1391C21.1039 34.7955 21.7888 34.2951 22.3488 33.6703C23.6786 33.1929 24.9198 32.4979 26.0218 31.6136C27.0305 31.2071 27.9127 30.5391 28.5776 29.6784C29.2424 28.8177 29.6659 27.7954 29.8046 26.7167C30.125 25.9232 30.3791 25.1045 30.5642 24.269C31.0953 23.6844 31.4947 22.9926 31.7355 22.2404C31.9764 21.4882 32.0529 20.693 31.9601 19.9087C31.8673 19.1243 31.6073 18.369 31.1975 17.6938C30.7878 17.0185 30.238 16.4391 29.5851 15.9945L29.194 15.5781C29.2939 14.4249 29.0405 13.2686 28.4677 12.2628C27.8948 11.257 27.0295 10.4493 25.9867 9.94693C26.2621 9.93879 26.5281 9.8448 26.7476 9.67809C26.967 9.51137 27.1288 9.28027 27.2105 9.01708C27.5108 8.99833 27.7958 8.87771 28.0183 8.67515C28.2408 8.47258 28.3876 8.20018 28.4344 7.90294C28.7027 7.78039 28.9324 7.58675 29.0985 7.34299C29.2647 7.09924 29.3609 6.81466 29.3769 6.52011C29.5874 6.4011 29.755 6.2188 29.856 5.99911C29.9571 5.77942 29.9863 5.53349 29.9396 5.29624C30.1396 5.13963 30.2859 4.92468 30.3583 4.68119C30.4306 4.43769 30.4254 4.17772 30.3433 3.93732C30.4459 3.84654 30.5293 3.73619 30.5887 3.61273C30.648 3.48927 30.6821 3.3552 30.6889 3.21839C30.6957 3.08158 30.6751 2.94479 30.6284 2.81605C30.5816 2.6873 30.5095 2.5692 30.4165 2.46868C30.8455 1.68512 30.4165 0.841077 29.2658 0.974718C29.0557 0.732875 28.7853 0.551042 28.4821 0.447747C28.1789 0.344451 27.8537 0.323387 27.5397 0.3867C27.4052 0.223661 27.2246 0.104924 27.0216 0.0459581C26.8186 -0.0130078 26.6026 -0.00946987 26.4016 0.0561139C26.1893 -0.120758 25.9285 -0.229361 25.6534 -0.255467C25.3783 -0.281573 25.1017 -0.223965 24.8598 -0.0901877C24.6256 -0.246739 24.3478 -0.325072 24.0662 -0.313952C23.7847 -0.302832 23.5139 -0.20283 23.2927 -0.0282901C23.0673 -0.10824 22.825 -0.128884 22.5893 -0.088237C22.3535 -0.04759 22.1322 0.0529839 21.9465 0.203824C21.6534 0.137604 21.3467 0.168647 21.0729 0.292255C20.799 0.415864 20.5728 0.625312 20.4286 0.888908H19.9503C18.8843 1.63016 18.1196 2.7293 17.7952 3.98656C17.4868 2.70248 16.7205 1.57503 15.64 0.815757H15.1618C15.0068 0.56549 14.7761 0.371192 14.5031 0.261133C14.2301 0.151075 13.9291 0.130998 13.6439 0.203824C13.4555 0.0485576 13.2297 -0.0545884 12.9891 -0.0953179C12.7484 -0.136047 12.5012 -0.112937 12.2723 -0.0282901C11.9775 -0.182493 11.6589 -0.286155 11.3298 -0.334961H11.3284Z" fill="black"/>
<path d="M8.76992 3.00651C11.1671 4.0912 13.3613 5.57747 15.2578 7.40118C14.719 9.62947 11.793 9.73919 10.7281 9.68011C10.8287 9.64713 10.9216 9.59444 11.0016 9.52512C11.0815 9.4558 11.1468 9.37123 11.1937 9.27637C10.5604 9.19505 9.93433 9.06429 9.32136 8.8853C9.42265 8.88073 9.5213 8.85158 9.6088 8.80036C9.6963 8.74913 9.77001 8.67738 9.82357 8.59129C9.22469 8.4569 8.65326 8.2209 8.13407 7.89354C8.36906 7.93038 8.60934 7.87821 8.8079 7.74724C8.22301 7.49307 7.67846 7.15468 7.19155 6.74283C7.42571 6.7731 7.66364 6.735 7.87663 6.6331C7.39903 6.34215 6.96277 5.98822 6.57962 5.58086C6.80425 5.64314 7.04392 5.62113 7.25345 5.51896C6.819 5.17322 6.44284 4.76001 6.13931 4.29509C6.25796 4.35827 6.39033 4.39131 6.52475 4.39131C6.65918 4.39131 6.79155 4.35827 6.9102 4.29509C6.52362 3.9295 6.1826 3.51857 5.89453 3.07123C6.13205 3.12523 6.37867 3.12523 6.61619 3.07123C6.48587 2.62326 6.26517 2.20674 5.96768 1.84736C6.51795 1.88694 7.07034 1.88694 7.62061 1.84736L7.21687 1.35781C7.83026 1.24587 8.4628 1.30976 9.04142 1.54209C9.26228 1.37047 9.04142 1.15102 8.76007 0.930159C9.28354 0.995465 9.79734 1.12297 10.2906 1.30998C10.5227 1.08912 10.119 0.893585 9.92485 0.648812C10.4992 0.73516 11.0471 0.94854 11.5285 1.27341C11.8099 1.01597 11.5285 0.809179 11.3696 0.58832C11.8734 0.782253 12.3318 1.07823 12.7158 1.45769C12.7668 1.41836 12.8093 1.36912 12.8407 1.31293C12.8721 1.25675 12.8919 1.19478 12.8987 1.13077C12.9055 1.06675 12.8993 1.00202 12.8805 0.940462C12.8616 0.878907 12.8305 0.821808 12.789 0.772604C13.2095 1.00345 13.5766 1.32028 13.8666 1.70246C13.9591 1.62285 14.0251 1.51688 14.0558 1.39872C14.0865 1.28057 14.0803 1.15586 14.0382 1.04129C14.4785 1.41552 14.8878 1.82482 15.262 2.26516C15.377 2.10773 15.4448 1.92087 15.4576 1.72638C16.6083 2.84052 18.2359 5.65541 15.874 6.76956C13.752 5.09408 11.3415 3.82067 8.76148 3.01214L8.76992 3.00651ZM26.886 3.00651C24.4888 4.0912 22.2946 5.57747 20.3981 7.40118C20.9608 9.62947 23.8629 9.73919 24.9278 9.68011C24.7409 9.59962 24.5919 9.45062 24.5114 9.26371C25.1448 9.18239 25.7708 9.05163 26.3838 8.87264C26.2847 8.86608 26.1886 8.83599 26.1034 8.78486C26.0183 8.73372 25.9466 8.66303 25.8942 8.57863C26.4931 8.44424 27.0645 8.20824 27.5837 7.88088C27.3451 7.92064 27.1002 7.86835 26.8986 7.73458C27.4835 7.48041 28.0281 7.14202 28.515 6.73017C28.2808 6.76044 28.0429 6.72233 27.8299 6.62044C28.3075 6.32949 28.7438 5.97557 29.1269 5.5682C28.9023 5.63048 28.6626 5.60846 28.4531 5.5063C28.8875 5.16055 29.2637 4.74735 29.5672 4.28243C29.4486 4.34561 29.3162 4.37865 29.1818 4.37865C29.0474 4.37865 28.915 4.34561 28.7963 4.28243C29.1829 3.91684 29.5239 3.50591 29.812 3.05856C29.5745 3.11257 29.3279 3.11257 29.0903 3.05856C29.2207 2.6106 29.4414 2.19408 29.7388 1.8347C29.1886 1.87428 28.6362 1.87428 28.0859 1.8347L28.5023 1.40564C27.8889 1.2937 27.2564 1.35759 26.6778 1.58992C26.4569 1.4183 26.6778 1.19885 26.9591 0.977989C26.4357 1.04329 25.9218 1.1708 25.4286 1.35781C25.1472 1.07646 25.5383 0.893583 25.7465 0.647403C25.1721 0.733751 24.6243 0.947131 24.1428 1.272C23.8615 1.01456 24.1428 0.807773 24.3018 0.586914C23.7979 0.780847 23.3396 1.07683 22.9555 1.45628C22.9036 1.4179 22.8601 1.36937 22.8275 1.31365C22.7949 1.25793 22.7739 1.19617 22.7659 1.13212C22.7579 1.06806 22.7629 1.00305 22.7808 0.941007C22.7986 0.878967 22.8289 0.821198 22.8697 0.771198C22.4492 1.00204 22.0821 1.31887 21.7922 1.70106C21.6996 1.62145 21.6336 1.51547 21.6029 1.39732C21.5722 1.27916 21.5784 1.15446 21.6205 1.03989C21.1802 1.41412 20.7709 1.82341 20.3967 2.26375C20.2817 2.10632 20.2139 1.91947 20.2011 1.72497C19.0504 2.83911 17.4228 5.65401 19.7847 6.76815C21.8916 5.09745 24.2851 3.82422 26.848 3.01073L26.886 3.00651Z" fill="#75A928"/>
<path d="M21.9649 25.7383C21.9268 26.7797 21.4778 27.7635 20.7162 28.4748C19.9546 29.186 18.9424 29.5668 17.9008 29.5337C16.8573 29.5803 15.8379 29.2107 15.0666 28.5062C14.2954 27.8017 13.8353 26.8198 13.7875 25.7763C13.8257 24.7349 14.2746 23.751 15.0362 23.0398C15.7978 22.3286 16.8101 21.9478 17.8516 21.9809C18.8952 21.9343 19.9145 22.3039 20.6858 23.0084C21.4571 23.7129 21.9171 24.6948 21.9649 25.7383ZM15.5009 14.9669C16.3312 15.625 16.8686 16.5838 16.9969 17.6355C17.1251 18.6872 16.8338 19.747 16.186 20.5854C15.667 21.5141 14.8045 22.2023 13.7837 22.5021C12.7629 22.802 11.6653 22.6896 10.7264 22.1891C9.89619 21.5309 9.35873 20.5721 9.2305 19.5205C9.10226 18.4688 9.39359 17.4089 10.0413 16.5705C10.5604 15.6418 11.4229 14.9536 12.4436 14.6538C13.4644 14.354 14.5621 14.4664 15.5009 14.9669ZM20.0799 14.7587C19.2496 15.4168 18.7122 16.3756 18.5839 17.4273C18.4557 18.479 18.747 19.5388 19.3948 20.3772C19.9138 21.3059 20.7763 21.9941 21.7971 22.2939C22.8179 22.5938 23.9155 22.4814 24.8544 21.9809C25.6846 21.3227 26.2221 20.3639 26.3503 19.3123C26.4785 18.2606 26.1872 17.2007 25.5395 16.3624C25.0204 15.4336 24.1579 14.7454 23.1372 14.4456C22.1164 14.1458 21.0187 14.2582 20.0799 14.7587ZM7.03232 16.8027C8.86812 16.3131 7.64425 24.3794 6.16295 23.7182C5.67712 23.2479 5.30738 22.6711 5.08297 22.0333C4.85856 21.3954 4.78563 20.7141 4.86997 20.0432C4.95431 19.3724 5.19359 18.7303 5.56889 18.1679C5.94419 17.6054 6.44521 17.138 7.03232 16.8027ZM28.1841 16.6803C26.3483 16.1907 27.5722 24.257 29.0535 23.5958C29.5393 23.1256 29.9091 22.5487 30.1335 21.9109C30.3579 21.273 30.4308 20.5917 30.3465 19.9209C30.2621 19.25 30.0229 18.6079 29.6476 18.0455C29.2723 17.4831 28.7712 17.0157 28.1841 16.6803ZM21.9663 10.6833C25.1245 10.1445 27.7565 12.0296 27.6468 15.4578C27.5483 16.8041 20.8409 10.8676 21.9663 10.6833ZM13.222 10.5849C10.0639 10.0461 7.43184 11.9311 7.54156 15.3593C7.64003 16.6676 14.384 10.7818 13.222 10.5849ZM17.7658 9.79004C15.8807 9.79004 14.1082 11.1855 14.1082 12.0296C14.1082 12.8736 15.6022 14.0975 17.7658 14.1228C19.9294 14.1481 21.4233 13.29 21.4233 12.2378C21.4233 11.1855 19.3554 9.79004 17.6898 9.79004H17.7658ZM17.8882 30.7083C19.5284 30.6352 21.7314 31.2345 21.7426 32.0307C21.7539 32.8269 19.7479 34.553 17.7756 34.4784C15.8034 34.4038 13.7481 32.8142 13.7734 32.1995C13.7734 31.3062 16.2212 30.6099 17.8868 30.6577L17.8882 30.7083ZM11.8153 25.9817C13.0391 27.3884 13.5033 29.8741 12.5369 30.5958C11.5705 31.3175 9.36611 30.9264 7.77508 28.6376C6.71018 26.7033 6.84663 24.7578 7.60346 24.1445C8.72885 23.4594 10.4803 24.3892 11.8265 25.9451L11.8153 25.9817ZM23.7276 25.5315C22.5037 27.0128 21.7581 29.718 22.6753 30.5874C23.5574 31.2626 25.9319 31.1754 27.6833 28.7389C28.1941 27.9952 28.4776 27.1191 28.4993 26.2172C28.521 25.3153 28.2801 24.4265 27.8057 23.6591C26.7282 22.8263 25.1751 23.8912 23.729 25.5301L23.7276 25.5315Z" fill="#BC1142"/>
</g>
<defs>
<clipPath id="clip0_13516_109516">
<rect width="36" height="36" fill="white"/>
</clipPath>
</defs>
</svg>
