<svg width="140" height="32" viewBox="0 0 140 32" fill="none" xmlns="http://www.w3.org/2000/svg">
<path d="M24.3237 17.7518L24.2919 17.4141C24.2906 17.3982 24.2887 17.3823 24.286 17.3659L24.2642 17.205C24.2601 17.1755 24.2551 17.1464 24.2497 17.1186L24.1801 16.7882C24.1705 16.7433 24.1586 16.699 24.1442 16.6555L24.0387 16.3368C24.0315 16.3173 24.0247 16.2982 24.0178 16.2795L23.9583 16.1277C23.9497 16.1045 23.9397 16.0818 23.9287 16.0582L23.7897 15.7559C23.771 15.7155 23.7492 15.6759 23.7265 15.6373L23.5542 15.3514C23.5397 15.3277 23.5247 15.305 23.5097 15.2823L23.4192 15.1541C23.4106 15.1405 23.4001 15.1273 23.3901 15.1141L23.1906 14.8518C23.1642 14.8177 23.1365 14.785 23.1074 14.7541L22.8801 14.5127C22.851 14.4827 22.8201 14.4536 22.7883 14.4259L22.5324 14.2055L22.4287 14.1177C22.3987 14.0918 22.3678 14.0677 22.336 14.045L22.1419 13.9105C22.0878 13.8018 22.0297 13.6945 21.971 13.5886V13.5786C21.9728 13.5527 21.9728 13.5273 21.9728 13.5014L21.9683 13.2923C21.9683 13.2705 21.9669 13.2482 21.9651 13.2268L21.941 12.8882C21.9375 12.8403 21.9313 12.7926 21.9224 12.7455L21.8583 12.4168C21.8574 12.4118 21.8106 12.1868 21.8106 12.1868C21.8023 12.1456 21.7915 12.1049 21.7783 12.065L21.6765 11.7468C21.666 11.7155 21.6551 11.6836 21.6424 11.6541L21.5597 11.4532C21.5542 11.4395 21.5478 11.4259 21.5415 11.4118L21.4047 11.1123C21.3846 11.0687 21.362 11.0264 21.3369 10.9855L21.166 10.7036C21.1583 10.6923 21.1506 10.6805 21.1437 10.6695L21.0278 10.4936C21.0098 10.4653 20.9901 10.4382 20.9688 10.4123L20.7687 10.1559C20.7409 10.1199 20.711 10.0854 20.6792 10.0527L20.3106 9.67864C20.2795 9.6469 20.2465 9.617 20.2119 9.58909L19.9624 9.38636C19.9311 9.36006 19.8983 9.33562 19.8642 9.31318L19.7074 9.21C19.7069 9.21 19.691 9.19955 19.6678 9.18409C19.8051 9.14518 19.9396 9.09735 20.0706 9.04091C20.2004 8.98436 20.3171 8.90129 20.413 8.79702C20.5088 8.69276 20.5819 8.5696 20.6274 8.43546C20.8705 8.34444 21.0981 8.21658 21.3024 8.05637C21.4996 7.89059 21.6266 7.6562 21.6578 7.40046C21.8394 7.27901 22.011 7.14328 22.171 6.99455C22.2779 6.89401 22.3617 6.77157 22.4169 6.63561C22.4721 6.49966 22.4972 6.35339 22.4906 6.20682C22.5806 6.12227 22.6642 6.03682 22.7401 5.95227C22.8481 5.83291 22.9262 5.68961 22.968 5.53418C23.0098 5.37875 23.0141 5.21561 22.9806 5.05818C23.0687 4.95455 23.1469 4.85318 23.2133 4.75773C23.3012 4.62957 23.3589 4.4831 23.3819 4.32938C23.4049 4.17567 23.3926 4.01874 23.346 3.87046C23.4182 3.7599 23.4789 3.64233 23.5274 3.51955C23.5882 3.36125 23.6086 3.1903 23.5868 3.02213C23.565 2.85397 23.5016 2.69389 23.4024 2.55637C23.485 2.40082 23.526 2.22656 23.5214 2.05049C23.5169 1.87442 23.4668 1.70253 23.3762 1.5515C23.2856 1.40046 23.1575 1.27542 23.0043 1.18851C22.8511 1.10159 22.6781 1.05576 22.5019 1.05546C22.4661 1.05527 22.4302 1.05739 22.3947 1.06182C22.3483 1.06637 22.3042 1.07046 22.2601 1.07364C22.1241 0.885977 21.9284 0.750069 21.7051 0.688184C21.476 0.626529 21.2396 0.596102 21.0024 0.597729C20.9451 0.597729 20.8869 0.599093 20.8274 0.602274C20.6556 0.434634 20.4304 0.332641 20.191 0.314093C20.1433 0.310456 20.0933 0.308638 20.0433 0.308638C19.9669 0.308638 19.8856 0.313184 19.7997 0.32182C19.6871 0.217908 19.5527 0.140597 19.4063 0.0955961C19.2599 0.0505948 19.1052 0.0390521 18.9537 0.0618199C18.7793 0.0882806 18.6065 0.125165 18.4365 0.172274C18.2686 0.0596131 18.0709 -0.00037209 17.8687 1.73667e-06C17.7793 7.71837e-05 17.6902 0.0118434 17.6038 0.0350017C17.4175 0.0866483 17.2368 0.156532 17.0642 0.243638C16.8228 0.142323 16.5517 0.137604 16.3069 0.230456C16.1656 0.284723 16.0304 0.353901 15.9037 0.43682C15.8017 0.403899 15.6951 0.387032 15.5878 0.38682C15.3915 0.386807 15.1993 0.443298 15.0342 0.549547C14.8472 0.676336 14.6736 0.821778 14.516 0.983638C14.4824 0.980456 14.4487 0.978184 14.416 0.978184C14.1701 0.978168 13.9324 1.06713 13.7469 1.22864C13.1232 1.78714 12.6395 2.48435 12.3347 3.26409C12.0298 2.48446 11.5463 1.78728 10.9228 1.22864C10.7372 1.06741 10.4996 0.978488 10.2537 0.978184C10.2201 0.978184 10.1874 0.980456 10.1533 0.983638C9.99575 0.821544 9.82196 0.676082 9.63466 0.549547C9.46966 0.443067 9.2774 0.386556 9.08102 0.38682C8.97407 0.387103 8.86781 0.40397 8.76602 0.43682C8.63908 0.353797 8.50361 0.284614 8.36193 0.230456C8.24674 0.186289 8.12439 0.163789 8.00102 0.164093C7.86521 0.163851 7.73073 0.190901 7.60557 0.243638C7.43305 0.156456 7.25232 0.0865701 7.06602 0.0350017C6.97928 0.0118428 6.88989 7.71963e-05 6.80011 1.73667e-06C6.59797 -0.000169574 6.40035 0.0597981 6.23239 0.172274C6.06264 0.12512 5.89021 0.0882346 5.71602 0.0618199C5.56441 0.0390489 5.40962 0.0505875 5.26307 0.0955855C5.11651 0.140584 4.98191 0.217894 4.8692 0.32182C4.78841 0.31337 4.70725 0.308971 4.62602 0.308638C4.57557 0.308638 4.52602 0.310456 4.47784 0.314093C4.23869 0.33283 4.01368 0.434802 3.84193 0.602274C3.78284 0.599093 3.72466 0.597729 3.66739 0.597729C3.43014 0.596103 3.19376 0.62653 2.96466 0.688184C2.74121 0.749825 2.54545 0.885785 2.40966 1.07364C2.36511 1.07046 2.32057 1.06637 2.27557 1.06182C2.23983 1.05743 2.20385 1.05531 2.16784 1.05546C1.99168 1.05569 1.81856 1.10146 1.66531 1.18835C1.51206 1.27523 1.38388 1.40026 1.29322 1.55131C1.20256 1.70235 1.15249 1.87427 1.14788 2.05038C1.14328 2.22648 1.18429 2.40079 1.26693 2.55637C1.1676 2.69375 1.10418 2.85378 1.08243 3.02192C1.06068 3.19005 1.08129 3.36095 1.14239 3.51909C1.1902 3.64232 1.251 3.7601 1.32375 3.87046C1.27708 4.0187 1.26474 4.17562 1.28765 4.32933C1.31057 4.48305 1.36814 4.62954 1.45602 4.75773C1.52239 4.85318 1.60057 4.95455 1.6892 5.05818C1.65558 5.21557 1.65981 5.37869 1.70153 5.53413C1.74326 5.68957 1.82129 5.83288 1.9292 5.95227C2.00466 6.03682 2.08875 6.12227 2.1792 6.20682C2.17259 6.35339 2.19772 6.49966 2.25287 6.63561C2.30802 6.77157 2.3919 6.89401 2.49875 6.99455C2.65865 7.14339 2.83027 7.27913 3.01193 7.40046C3.04279 7.6561 3.1695 7.89052 3.36648 8.05637C3.57097 8.21619 3.79857 8.34402 4.04148 8.43546C4.08731 8.56957 4.16057 8.69266 4.2566 8.7969C4.35262 8.90114 4.4693 8.98424 4.5992 9.04091C4.63966 9.05909 4.68193 9.07546 4.72466 9.09182L4.68057 9.11864C4.65466 9.13364 4.6292 9.14955 4.60466 9.16637L4.37284 9.32818C4.34832 9.34486 4.32465 9.36276 4.30193 9.38182L4.08284 9.56C4.06011 9.57864 4.03739 9.59909 4.01557 9.61864L3.81102 9.81182C3.78966 9.83182 3.76829 9.85409 3.74739 9.87591L3.56057 10.0818C3.53966 10.1045 3.52011 10.1282 3.50193 10.1509L3.44557 10.2223L3.26329 10.4568C3.24375 10.4823 3.22466 10.5086 3.20693 10.5355L3.04602 10.7805C3.02784 10.8082 3.01011 10.8373 2.9942 10.8655L2.85602 11.1191C2.83875 11.15 2.82329 11.1818 2.8092 11.2132L2.69557 11.4727C2.68784 11.4891 2.68102 11.5068 2.67466 11.5241L2.61284 11.6823C2.60648 11.6991 2.60011 11.7159 2.59466 11.7323L2.49966 12.0132C2.48784 12.05 2.47784 12.0864 2.46875 12.1236L2.40239 12.4068C2.39557 12.4364 2.39011 12.4659 2.38557 12.4955L2.35375 12.695C2.35193 12.7055 2.35102 12.7155 2.34966 12.725L2.31057 13.0223C2.30486 13.0639 2.30137 13.1058 2.30011 13.1477L2.29193 13.4418C2.29148 13.4641 2.29148 13.4864 2.29193 13.5091L2.29693 13.7005C2.23102 13.8255 2.16693 13.9509 2.10511 14.0777L2.01102 14.1436C1.98577 14.1604 1.96163 14.1788 1.93875 14.1986L1.71239 14.3832C1.68784 14.4023 1.66511 14.4232 1.64284 14.4441L1.43148 14.6459C1.40966 14.6668 1.38784 14.6891 1.36739 14.7118L1.17193 14.9291C1.15102 14.9523 1.13102 14.9764 1.11193 15.0005L0.935113 15.23C0.915113 15.2559 0.896931 15.2818 0.880568 15.3077L0.722386 15.5491C0.704659 15.5759 0.688295 15.6045 0.673295 15.6318L0.536931 15.8823C0.520687 15.9116 0.505971 15.9418 0.49284 15.9727L0.379204 16.2295C0.366022 16.26 0.353295 16.2914 0.342386 16.3223L0.303749 16.4355L0.207386 16.7145C0.196022 16.7486 0.186022 16.7827 0.176931 16.8173L0.106931 17.1009C0.0987494 17.1368 0.0910222 17.1741 0.0846585 17.21L0.0423858 17.4923C0.0382949 17.5232 0.034204 17.5545 0.0323858 17.585L0.0205676 17.7491C0.0194734 17.7575 0.0188663 17.766 0.0187494 17.7745L0.00284034 18.07C0.00102216 18.1105 0.000113071 18.1518 0.0023858 18.1932L0.0160222 18.4836C0.0178403 18.5186 0.0210222 18.5555 0.0260222 18.5914L0.0528403 18.7809C0.0532949 18.7864 0.100568 19.0945 0.100568 19.0945C0.107147 19.1387 0.116406 19.1824 0.128295 19.2255L0.204659 19.51C0.211931 19.5341 0.218749 19.5573 0.226477 19.5814L0.293295 19.7791C0.300113 19.8 0.30784 19.8195 0.315113 19.8395L0.426022 20.1182C0.443582 20.1624 0.46377 20.2055 0.486477 20.2473L0.627386 20.5077C0.628295 20.51 0.738295 20.7109 0.738295 20.7109C0.760594 20.7508 0.785023 20.7895 0.811477 20.8268L0.986022 21.0741C0.999204 21.0936 1.01375 21.1118 1.02829 21.1309L1.16784 21.305C1.18305 21.3248 1.19928 21.3437 1.21648 21.3618L1.23693 21.385C1.39309 22.1038 1.62074 22.8052 1.91648 23.4786C1.91875 23.4932 1.92102 23.5086 1.92329 23.5227L1.98284 23.8741C1.98966 23.9155 1.9992 23.9559 2.00966 23.9964L2.10466 24.3359C2.1092 24.3527 2.11329 24.3691 2.11829 24.3845L2.17648 24.5627C2.1842 24.5873 2.19375 24.6127 2.20329 24.6373L2.33557 24.9714C2.35202 25.0124 2.37053 25.0526 2.39102 25.0918L2.55875 25.4086C2.56739 25.425 2.57602 25.4418 2.58648 25.4586L2.68784 25.6305C2.70102 25.6532 2.71511 25.6745 2.73011 25.6959L2.93466 25.9973C2.96148 26.0345 2.9892 26.0718 3.01875 26.1064L3.25693 26.3823L3.28284 26.4109L3.42148 26.5623C3.4442 26.5864 3.46829 26.6095 3.49239 26.6318L3.76193 26.8809C3.79637 26.9126 3.83264 26.9422 3.87057 26.9695L4.1692 27.1873C4.17284 27.19 4.34739 27.3136 4.34739 27.3136C4.38057 27.3368 4.41602 27.3591 4.45148 27.3791L4.77511 27.5623C4.81455 27.5848 4.85522 27.6052 4.89693 27.6232L5.08011 27.7014L5.2442 27.7709C6.17063 28.5033 7.20769 29.0836 8.31648 29.49L8.47875 29.67C8.50739 29.7009 8.53738 29.7309 8.56966 29.76L8.85511 30.0159C8.88284 30.0405 8.91148 30.0636 8.93966 30.0855C8.93966 30.0855 9.06602 30.1795 9.07102 30.1832L9.38284 30.4077C9.41829 30.4327 9.45466 30.4564 9.49284 30.4786L9.82784 30.6686C9.8657 30.6903 9.9047 30.7098 9.94466 30.7273L10.3015 30.8814C10.3274 30.8932 10.3533 30.9036 10.3797 30.9136L10.5037 30.9559C10.5177 30.9622 10.5321 30.9672 10.5469 30.9709L10.916 31.0868C10.9572 31.0996 10.9991 31.11 11.0415 31.1182L11.4233 31.1945C11.4651 31.2036 11.5075 31.21 11.5501 31.2136L11.9419 31.2495C11.9792 31.2527 12.0165 31.2545 12.0537 31.2545C12.0574 31.2545 12.1774 31.2527 12.1774 31.2527L12.5642 31.2486C12.6065 31.2477 12.6487 31.245 12.6901 31.2405L13.0787 31.1945C13.1201 31.1905 13.1611 31.1835 13.2015 31.1736L13.586 31.0886C13.6261 31.0798 13.6657 31.0687 13.7047 31.0555L14.0819 30.9314C14.1201 30.9186 14.1583 30.9036 14.1951 30.8873L14.5606 30.7241C14.5976 30.7083 14.6334 30.6899 14.6678 30.6691L15.0178 30.4695C15.0452 30.4547 15.0718 30.4383 15.0974 30.4205C15.0974 30.4205 15.1428 30.3895 15.1492 30.385L15.4674 30.1591C15.4995 30.1363 15.5305 30.1119 15.5601 30.0859L15.8556 29.83C15.8884 29.8015 15.9197 29.7711 15.9492 29.7391C15.9492 29.7391 16.2269 29.4414 16.2292 29.4382C16.2433 29.4232 16.2565 29.4077 16.2683 29.3932C17.2119 29.0214 18.0999 28.5217 18.9074 27.9082L19.2447 27.7955C19.2819 27.7827 19.3192 27.7677 19.3551 27.7523L19.7351 27.5818C19.771 27.5655 19.8074 27.5477 19.8415 27.5282L20.2033 27.3218C20.2377 27.3019 20.2711 27.2802 20.3033 27.2568L20.6419 27.0177C20.6747 26.9941 20.7065 26.9691 20.7374 26.9423L21.0483 26.6709C21.0789 26.6445 21.1081 26.6165 21.1356 26.5868L21.4178 26.2878C21.4451 26.2582 21.4715 26.2268 21.4969 26.195L21.7447 25.8705C21.7704 25.8382 21.7941 25.8044 21.8156 25.7691L22.0283 25.4241C22.0497 25.3891 22.0701 25.3518 22.0883 25.3155L22.2637 24.9523C22.2747 24.9305 22.2847 24.9068 22.2942 24.8837L22.3328 24.79C22.3383 24.7755 22.3442 24.7605 22.3506 24.7441L22.4892 24.36C22.5038 24.3204 22.5162 24.28 22.5265 24.2391L22.6242 23.8455C22.6344 23.8041 22.6424 23.7622 22.6483 23.72L22.7037 23.3223C22.7096 23.2798 22.7132 23.237 22.7147 23.1941L22.7274 22.7964C22.7274 22.7946 22.7297 22.7096 22.7306 22.6714C22.8965 22.1964 23.0296 21.7106 23.1287 21.2173L23.1319 21.2128L23.1969 21.1309L23.4187 20.8468C23.4442 20.8143 23.4677 20.7803 23.4892 20.745L23.6756 20.4478C23.6978 20.4123 23.7183 20.3746 23.7374 20.3364L23.8897 20.0259C23.9056 19.9923 23.9206 19.9582 23.9333 19.925L23.9819 19.7973C23.9837 19.7923 24.1074 19.4514 24.1074 19.4514C24.1226 19.41 24.1355 19.3678 24.146 19.325L24.2278 18.9905C24.2386 18.947 24.247 18.903 24.2528 18.8587L24.2969 18.5214C24.2983 18.5118 24.2987 18.5018 24.3001 18.4918L24.3165 18.3368C24.3201 18.3018 24.3219 18.2655 24.3233 18.2305L24.3292 17.8887C24.3301 17.843 24.3283 17.7973 24.3237 17.7518" fill="#230007"/>
<path d="M2.61417 20.7914L2.61316 20.7924" stroke="#EE3042" stroke-width="0.1" stroke-linecap="round" stroke-linejoin="round"/>
<path d="M3.13058 20.2364L3.28058 19.9255L3.2974 19.8746L3.36649 19.6282L3.39695 19.5686L3.45967 19.4005L3.49604 19.2891L3.53513 19.1786L3.59967 18.9305L3.63831 18.7627L3.67967 18.4714L3.6924 18.4273L3.71831 18.3296L3.76058 18.0664L3.7674 18.0377L3.79967 17.8773L3.81831 17.7191L3.84513 17.4532L3.84831 17.4205V17.3132L3.85422 17.2327L3.86422 17.0736L3.87058 16.9482V16.9441L3.86649 16.8386L3.8624 16.75L3.86104 16.7259L3.8624 16.6777L3.86286 16.6164L3.86376 16.5618L3.86286 16.5114L3.8624 16.465L3.86058 16.4214L3.85786 16.38L3.85513 16.3396L3.8524 16.3005L3.84831 16.2605L3.84377 16.2214L3.84331 16.2196L3.84149 16.1791L3.83967 16.135L3.83649 16.0873L3.83195 16.035L3.82649 15.9768L3.81876 15.9109L3.80922 15.8332L3.80286 15.7891L3.79649 15.765L3.79467 15.7473L3.77786 15.6436L3.75286 15.5136L3.74422 15.4668L3.71058 15.3809L3.69876 15.3518L3.66104 15.2205L3.65604 15.2118L3.56786 15.0718L3.54649 15.0418L3.49695 15.0068L3.48149 14.9859L3.45649 14.9386L3.4424 14.9159L3.33149 14.8468L3.31922 14.8464L3.18104 14.8546L3.14831 14.8664L3.05286 14.9096L2.94558 14.9727L2.7074 15.1391L2.48149 15.3241L2.27013 15.5255L2.07513 15.7427L1.89831 15.9718L1.74013 16.2132L1.60467 16.4636L1.49104 16.7209L1.45286 16.83L1.35695 17.1096L1.28695 17.3914L1.24467 17.6746L1.23195 17.8391L1.21649 18.1346L1.23058 18.4255L1.25604 18.615L1.30195 18.9091L1.37831 19.1932L1.44558 19.3914L1.55513 19.67L1.69695 19.9318L1.80331 20.125L1.97831 20.3718L2.11649 20.5455L2.26422 20.7082L2.29695 20.7414L2.34149 20.7641L2.4324 20.8209L2.45876 20.8264L2.5774 20.8114L2.61286 20.7918L2.7474 20.7282L2.8024 20.6827L2.86967 20.5986L2.92604 20.5377L2.95967 20.4886L3.00286 20.3923L3.11467 20.2596L3.13058 20.2364Z" fill="#EE2E62"/>
<path d="M9.03578 10.9268L9.06306 11.0759L9.08487 11.1427L9.12215 11.21L9.17396 11.2827L9.19578 11.335L9.23351 11.4009L9.26487 11.4591L9.34442 11.5727L9.36487 11.5955L9.43669 11.6636L9.44487 11.6718L9.55169 11.7618L9.63351 11.8209L9.6626 11.8436L9.7776 11.9191L9.82306 11.945L9.89578 11.99L10.0099 12.05L10.0181 12.055L10.1444 12.1182L10.2031 12.1427L10.2762 12.1768L10.4067 12.2291L10.414 12.2323L10.5581 12.2873L10.6312 12.31L10.7103 12.3391L10.8726 12.3873L10.8849 12.39L11.0453 12.4346L11.1931 12.4668L11.2312 12.4759L11.4312 12.515L11.5026 12.5255L11.6053 12.5341L11.6444 12.5386L11.8712 12.55L12.0985 12.5473L12.1112 12.5491L12.3099 12.5659L12.3894 12.5741L12.4144 12.5759L12.6767 12.5691L12.9767 12.5423L13.1649 12.5127L13.2785 12.4868L13.3581 12.4609L13.6035 12.4286L13.8144 12.3846L13.9331 12.3486L14.2312 12.2259L14.4062 12.1318L14.4094 12.1296L14.5167 12.0841L14.6253 12.0214L14.7917 11.9336L14.864 11.8827L15.0099 11.75L15.1649 11.5505L15.1744 11.5423L15.2149 11.4918L15.2426 11.4414L15.3108 11.3427L15.3921 11.13L15.3976 11.0877L15.3962 10.9259L15.3976 10.9046L15.3603 10.6855L15.3476 10.6546L15.2962 10.5073L15.2817 10.4759L15.2712 10.46L15.1535 10.2832L15.0967 10.2164L14.8899 9.98864L14.6562 9.78455L14.4871 9.64591L14.2358 9.47228L14.0512 9.37046L13.7894 9.22955L13.5103 9.11409L13.3308 9.05909L13.0512 8.97591L12.7594 8.91773L12.459 8.88637L12.3203 8.88L12.0321 8.87546L11.7412 8.89546L11.4481 8.93909L11.1571 9.00728L10.8699 9.09819L10.5894 9.21137L10.3176 9.34591L10.0567 9.5L9.80942 9.67228L9.57806 9.86228L9.37806 10.0541L9.36624 10.0655L9.2226 10.2468L9.16578 10.3377L9.12169 10.4077L9.11533 10.4227L9.06624 10.5932L9.06169 10.635L9.03124 10.7505L9.02942 10.7632L9.03396 10.8509L9.03578 10.9268Z" fill="#EE2E62"/>
<path d="M8.44104 9.93364V9.93228" stroke="#EE3042" stroke-width="0.1" stroke-linecap="round" stroke-linejoin="round"/>
<path d="M3.61487 13.8096L3.61261 13.81" stroke="#EE3042" stroke-width="0.1" stroke-linecap="round" stroke-linejoin="round"/>
<path d="M3.53144 13.7836L3.53599 13.7905L3.61462 13.8095L3.62735 13.8159L3.74871 13.825L3.79553 13.8164L3.94008 13.7573L4.00417 13.7245L4.16008 13.6741L4.29235 13.6177L4.40008 13.5559L4.60144 13.4277L4.65508 13.3873L4.67599 13.37L4.78917 13.3073L4.88372 13.2595L4.98371 13.2041L5.09735 13.1295L5.29553 12.9909L5.38053 12.9268L5.40553 12.9105L5.47099 12.8614L5.63008 12.7368L5.76781 12.625L5.79826 12.6L5.88826 12.5309L5.89962 12.5227L5.9119 12.5123L6.00053 12.4459L6.10235 12.3659L6.16917 12.3109L6.19599 12.2918L6.28372 12.2236L6.3669 12.1573L6.44644 12.0905L6.51008 12.035L6.52281 12.0245L6.60008 11.9618L6.67553 11.8973L6.75008 11.8305L6.82508 11.7609L6.83144 11.7541L6.90462 11.69L6.98826 11.6145L7.07326 11.5327L7.1519 11.4545L7.16326 11.4445L7.20008 11.41L7.21235 11.4005L7.26826 11.35L7.38008 11.2464L7.49462 11.135L7.5019 11.1291L7.64099 11.0045L7.65235 10.9932L7.78599 10.8491L7.87326 10.7495L7.93781 10.6832L7.95144 10.6682L8.06462 10.5145L8.12008 10.4305L8.17826 10.3732L8.21553 10.3282L8.34553 10.1536L8.3569 10.1409L8.35735 10.14L8.42962 9.97727L8.44099 9.93227L8.4919 9.83318L8.50099 9.79818L8.48008 9.72909L8.44644 9.69318L8.43781 9.68864L8.43281 9.68636L8.41371 9.67L8.37099 9.66091L8.22053 9.62818L8.02553 9.58591L7.73553 9.55227L7.43781 9.54546H7.27144L6.98735 9.56455L6.70008 9.60773L6.41371 9.67546L6.31371 9.70637L6.05144 9.79046L5.79372 9.895L5.5419 10.02L5.29917 10.1641L5.06735 10.3259L4.84917 10.5032L4.64508 10.6959L4.45826 10.9009L4.40462 10.9691L4.22144 11.2041L4.06053 11.4491L3.92144 11.7027L3.80781 11.9618L3.7469 12.1209L3.6519 12.4009L3.58599 12.6845L3.55417 12.8841L3.51508 13.1814L3.5069 13.4755L3.51235 13.6727L3.53144 13.7836Z" fill="#EE2E62"/>
<path d="M8.94356 19.7105L9.29129 19.5646L9.4531 19.4655L9.64038 19.3664L9.92765 19.1541L9.9681 19.1282L10.2745 18.8605L10.3517 18.7705L10.5149 18.6009L10.5508 18.5605L10.5672 18.5346L10.7213 18.3409L10.8026 18.2464L11.0231 17.9136L11.034 17.8927L11.2104 17.5668L11.2713 17.4123L11.3595 17.2096L11.4408 16.9309L11.4695 16.8455L11.4776 16.8036L11.5226 16.495L11.5276 16.4741L11.5313 16.4455L11.5804 16.1268L11.5836 16.0105L11.5963 15.7846L11.5836 15.6055L11.5772 15.4505L11.5395 15.2332L11.5249 15.13L11.4604 14.8996L11.4408 14.8236L11.4404 14.8223L11.3704 14.6664L11.3495 14.6046L11.3299 14.54L11.249 14.3609L11.2126 14.2782L11.1363 14.15L11.0699 14.0346L11.0186 13.9677L10.9036 13.8114L10.9031 13.8105L10.7786 13.6764L10.7199 13.6109L10.6617 13.5605L10.5481 13.4591L10.5186 13.4323L10.4358 13.3727L10.3304 13.2959L10.3031 13.275L10.2236 13.2296L10.1222 13.1696L10.0772 13.1409L10.0213 13.1159L9.91992 13.0677L9.84265 13.0296L9.82174 13.0218L9.7181 12.9841L9.61583 12.9455L9.59992 12.9391L9.50719 12.915L9.39538 12.8841L9.34992 12.8709L9.27719 12.8586L9.15174 12.8359L9.0931 12.8255L9.01583 12.8191L8.86901 12.8064L8.82856 12.8032L8.70992 12.8041L8.55719 12.8046L8.5331 12.8073L8.34038 12.8259L8.28038 12.8309L8.13038 12.8596L7.99992 12.8836L7.89856 12.9114L7.71719 12.9614L7.64674 12.9868L7.50901 13.0377L7.43583 13.0623L7.36992 13.0914L7.34992 13.1005L7.15901 13.1905L7.07765 13.2377L6.88583 13.3477L6.77401 13.4246L6.61856 13.53L6.46401 13.655L6.36038 13.7377L6.15447 13.9323L6.11492 13.9686L6.03401 14.0577L5.87947 14.225L5.84674 14.2673L5.83447 14.2818L5.67401 14.4946L5.49629 14.775L5.47265 14.8127L5.3331 15.0786L5.30401 15.1336L5.16083 15.4696L5.1381 15.5391L5.04538 15.8173L5.02538 15.9032L5.00492 15.9868L4.99538 16.0296L4.96219 16.1818L4.91538 16.55V16.5505L4.90265 16.9223L4.91265 17.0682L4.92538 17.2896L4.97447 17.5827L4.98492 17.6482L5.08129 17.9968L5.11401 18.0741L5.17174 18.2205L5.21629 18.3273L5.33129 18.5259L5.38992 18.6332L5.59765 18.9127L5.6181 18.9336L5.83765 19.1682L5.97492 19.2768L6.1081 19.3891L6.38629 19.5614L6.40538 19.5741L6.72674 19.725L6.85038 19.7596L7.06901 19.8336L7.35038 19.8823L7.42674 19.8991L7.79674 19.9223L7.87583 19.9155L8.17356 19.9041L8.37719 19.8655L8.41174 19.8582L8.55265 19.8373L8.92583 19.7191L8.94356 19.7105Z" fill="#EE2E62"/>
<path d="M15.0364 12.7736L14.8591 12.8373L14.7491 12.8845L14.6091 12.9423L14.5814 12.9586L14.5401 12.9782L14.2814 13.1223L14.1501 13.2068L14.066 13.28L13.9873 13.3564L13.8919 13.4427L13.7637 13.5727L13.7482 13.5932L13.641 13.7527L13.6319 13.7686L13.5491 13.89L13.511 13.9541L13.4687 14.0136L13.4001 14.1268L13.3991 14.1291L13.3846 14.1627L13.3446 14.2445L13.296 14.3545L13.2555 14.4613L13.2246 14.5563L13.2214 14.565L13.1873 14.6663L13.1582 14.7682L13.1346 14.8718L13.1182 14.9613L13.1146 14.9759L13.0937 15.085L13.0778 15.1991L13.0664 15.3191L13.0623 15.3968L13.0573 15.4486L13.051 15.5509L13.0514 15.59L13.0623 15.7391L13.0687 15.7827L13.0741 15.8977V15.9091L13.0837 16.1145L13.1014 16.3204L13.1069 16.3482L13.1455 16.5023L13.1651 16.5995L13.2401 16.8991L13.2564 16.9518L13.3682 17.2009L13.4655 17.3882L13.5182 17.4973L13.5305 17.5377L13.5337 17.5454L13.756 17.9604L13.8155 18.0568L14.0491 18.3445L14.226 18.5336L14.2882 18.5863L14.4069 18.7191L14.6464 18.9513L14.8323 19.0918L15.1682 19.2986L15.2851 19.3536L15.2973 19.3613L15.7023 19.5723L15.8078 19.6104L16.2851 19.7218L16.3132 19.73L16.3346 19.7323L16.5037 19.7395L16.8196 19.7913L16.9464 19.7945L17.296 19.7582L17.5914 19.6804L17.661 19.6673L17.7341 19.6459L17.9105 19.5645L18.1328 19.48L18.3723 19.3359L18.4841 19.2568L18.4946 19.2468L18.786 18.9918L19.0401 18.6832L19.1001 18.5795L19.1946 18.435L19.2464 18.3477L19.4014 17.9818L19.4605 17.7691L19.5114 17.5959L19.5764 17.1982L19.591 16.8718L19.596 16.7813L19.571 16.365V16.3595L19.5637 16.3186L19.4896 15.9268L19.446 15.775L19.3373 15.405L19.1878 15.0513L19.0878 14.8636L18.901 14.5332L18.6851 14.2345L18.6769 14.2236L18.5451 14.0668L18.2941 13.79L18.1587 13.6709L17.9496 13.4927L17.8578 13.4232L17.6401 13.2682L17.5214 13.1936L17.2037 13.0254L17.0932 12.9673L17.0641 12.955L16.6882 12.8254L16.5814 12.7868L16.5701 12.7836L16.1123 12.6977L16.0278 12.6877H15.6419L15.6137 12.6891L15.5428 12.6909L15.2314 12.7332L15.0364 12.7736Z" fill="#EE2E62"/>
<path d="M15.7859 9.90317L15.8264 9.97317L15.8296 9.98544L15.8459 10.0423L15.9546 10.2145L16.0214 10.2909L16.1009 10.3782L16.1287 10.4218L16.14 10.4354L16.23 10.5423L16.3014 10.6236L16.36 10.6895L16.3814 10.7114L16.3928 10.7227L16.4137 10.7436L16.4637 10.7927L16.4987 10.8264L16.5091 10.8382L16.5482 10.885L16.5859 10.9291L16.6232 10.9723L16.6623 11.0136L16.7028 11.0564L16.7464 11.1004L16.7937 11.1477L16.8473 11.1995L16.91 11.2577L16.9214 11.2682L16.9928 11.3309L17.0732 11.4173L17.1796 11.5273L17.2937 11.6427L17.3337 11.6786L17.6069 11.9186L17.6296 11.9432L17.6314 11.945L17.9569 12.2414L18.295 12.5032L18.5123 12.6441L18.5755 12.6918L18.6314 12.7477L18.9414 13.0077L19.2523 13.2241L19.5037 13.3636L19.5532 13.405L19.8205 13.5868L19.9087 13.6341L20.0696 13.7123L20.1732 13.7427L20.285 13.815L20.4323 13.8809L20.465 13.8914L20.61 13.8927L20.6596 13.9L20.7005 13.8873L20.7405 13.8191L20.7437 13.7968L20.7446 13.79L20.7569 13.5241L20.7523 13.315L20.7278 12.9759L20.6637 12.6473L20.6205 12.4354L20.5187 12.1186L20.4355 11.9177L20.2982 11.6186L20.1273 11.3373L20.0109 11.1609L19.8109 10.9054L19.6664 10.7582L19.4437 10.5314L19.1941 10.3282L19.0364 10.2245L18.775 10.0536L18.4919 9.90817L18.1928 9.78953L18.0528 9.73953L17.7541 9.65317L17.445 9.59272L17.1278 9.55908L16.805 9.55226H16.7282L16.4232 9.57135L16.1187 9.61453L15.8264 9.67999L15.8155 9.68726L15.7682 9.72453L15.7678 9.7959L15.7787 9.81317L15.7859 9.90317Z" fill="#EE2E62"/>
<path d="M23.0805 17.5295L23.0592 17.3691L22.9896 17.0391L22.8833 16.7191L22.8242 16.5682L22.6851 16.265L22.5124 15.9791L22.4228 15.8509L22.2228 15.5886L21.9955 15.3477L21.7424 15.1304L21.6392 15.0418L21.371 14.855L21.1174 14.7123L21.0069 14.6645L20.9178 14.6723L20.9101 14.6795L20.8105 14.7132L20.7228 14.8109L20.7037 14.8627L20.6942 14.8954L20.6501 14.9714L20.6065 15.1082L20.5915 15.1691L20.5792 15.1959L20.5501 15.3223L20.5201 15.5041L20.5187 15.5232L20.5178 15.5459L20.4942 15.6727L20.4733 15.8264L20.461 15.9677L20.4569 16.1027L20.4587 16.2359L20.4674 16.3691V16.3718L20.461 16.51V16.6541L20.4687 16.81L20.4846 16.9841L20.5092 17.1841L20.5355 17.3536L20.5369 17.395L20.5387 17.4177L20.5751 17.7068L20.6092 17.9241L20.6228 17.9791L20.6392 18.0923L20.6896 18.38L20.7365 18.5664L20.7483 18.6532L20.7724 18.7982L20.8705 19.1709L20.9796 19.4582L20.9892 19.5014L21.0887 19.8132L21.2087 20.0741L21.3415 20.2714L21.3451 20.2827L21.4492 20.4723L21.5687 20.6064L21.6778 20.6723L21.6919 20.6923L21.7374 20.7209L21.7878 20.7418L21.8983 20.7218L21.9619 20.6795L21.9928 20.6504L22.0124 20.6332L22.176 20.4618L22.2396 20.38L22.4587 20.0991L22.6451 19.8018L22.7965 19.4914L22.8451 19.3641L22.9646 19.0359L23.046 18.7014L23.0901 18.3636L23.1065 18.2082L23.1128 17.8668L23.0805 17.5295Z" fill="#EE2E62"/>
<path d="M8.25234 25.7814L8.25189 25.7773" stroke="#EE3042" stroke-width="0.1" stroke-linecap="round" stroke-linejoin="round"/>
<path d="M8.27588 25.2045L8.26952 25.1736L8.1827 24.8386L8.18134 24.8168L8.08952 24.3923L8.07497 24.3545L7.91725 23.9841L7.77225 23.7414L7.70952 23.5814L7.53907 23.285L7.47725 23.1814L7.46361 23.1659L7.21043 22.8L6.90225 22.4586L6.86316 22.425L6.76407 22.3236L6.60043 22.1209L6.27634 21.8227L6.17088 21.7527L6.07452 21.6718L5.93816 21.5595L5.90316 21.5382L5.83634 21.4991L5.79179 21.4723L5.75861 21.4527L5.7327 21.4382L5.71134 21.4264L5.69316 21.4164L5.67725 21.4082L5.6627 21.4L5.64952 21.3927L5.6377 21.3864L5.62497 21.3805L5.61088 21.3732L5.60134 21.3677L5.59088 21.36L5.57861 21.3523L5.56634 21.345L5.5527 21.3368L5.5377 21.3286L5.52088 21.3177L5.49997 21.3068L5.47543 21.2923L5.44361 21.275L5.39997 21.2514L5.33679 21.2173L5.30406 21.1991L5.16043 21.1527L5.0577 21.1209L4.96816 21.0791L4.6527 21.0091L4.47134 21.0141L4.38407 21.0059L4.3527 20.9982L4.08952 21.0045L3.8427 21.0809L3.78997 21.1086L3.6277 21.2068L3.55725 21.2818L3.44997 21.3677L3.32043 21.5468L3.30543 21.5705L3.19861 21.8518L3.19406 21.8691L3.14225 22.0964L3.13816 22.1241L3.09679 22.4586L3.08679 22.8082L3.10997 23.1532L3.12134 23.3205L3.18088 23.6714L3.27543 24.0105L3.33225 24.1886L3.46497 24.5232L3.63316 24.84L3.73452 25.0118L3.93861 25.3118L4.17634 25.5868L4.31543 25.7377L4.58497 25.9868L4.88361 26.2045L5.04906 26.3214L5.37316 26.5045L5.55406 26.5814L5.89634 26.7264L6.2577 26.8341L6.6377 26.9023L6.63452 26.9014L6.80316 26.9318L7.08816 26.9418L7.10861 26.9386L7.15725 26.9341L7.31997 26.9191L7.39634 26.9059L7.68452 26.7959L7.72043 26.7741L7.90088 26.5977L7.92452 26.5795L7.93861 26.5623L7.9527 26.5327L8.15088 26.2764L8.15588 26.2682L8.24497 25.9464L8.25179 25.7777L8.28225 25.5891L8.27588 25.2045Z" fill="#EE2E62"/>
<path d="M19.7895 20.5923L19.7931 20.59" stroke="#EE3042" stroke-width="0.1" stroke-linecap="round" stroke-linejoin="round"/>
<path d="M21.4145 21.8314L21.3741 21.6936L21.2632 21.3127L21.2286 21.2282L21.1154 21.0236L21.0859 20.9923L20.9614 20.8318L20.7809 20.6909L20.5909 20.6191L20.58 20.6127L20.3382 20.5468L20.2164 20.5514L20.0768 20.5418L19.7895 20.5918L19.4791 20.6604L19.3218 20.7295L19.15 20.8127L19.1177 20.8354L18.8823 20.9573L18.7895 21.0095L18.6109 21.1441L18.4177 21.3009L18.3818 21.3323L18.3045 21.4127L18.2691 21.4409L18.1895 21.5091L18.1232 21.5614L17.9964 21.6695L17.8873 21.7714L17.7904 21.8714L17.7023 21.9714L17.6209 22.0741L17.5914 22.1154L17.5336 22.1759L17.4436 22.2786L17.3545 22.3914L17.2623 22.5186L17.1645 22.6664L17.1245 22.7327L17.055 22.8382L16.9795 22.9586L16.9754 22.9668L16.9268 23.0368L16.775 23.2764L16.6645 23.4636L16.5918 23.6223L16.4714 23.9091L16.4441 24.0018L16.3536 24.2214L16.3141 24.3268L16.2268 24.7223L16.1504 25.0914L16.1364 25.4386L16.1454 25.4986L16.1682 25.7577L16.1727 25.7714L16.1982 26.0386L16.2914 26.2891L16.4123 26.4591L16.4318 26.505L16.5773 26.68L16.6454 26.7268L16.7945 26.8114L16.9168 26.8486L17.035 26.8959L17.0495 26.8986L17.2204 26.9282L17.2782 26.9345L17.6459 26.9218L18.0573 26.8686L18.4623 26.7745L18.8577 26.6427L19.2377 26.4723L19.5995 26.265L19.9377 26.0254L20.2491 25.7536L20.5314 25.4545L20.78 25.1304L20.9927 24.7854L21.1686 24.4236L21.2064 24.33L21.3459 23.9464L21.4432 23.5523L21.4986 23.155L21.5118 22.7559L21.515 22.6236L21.4859 22.2232L21.4145 21.8314Z" fill="#EE2E62"/>
<path d="M13.3696 19.4664L13.3641 19.4641" stroke="#EE3042" stroke-width="0.1" stroke-linecap="round" stroke-linejoin="round"/>
<path d="M15.8241 22.1541V22.1532" stroke="#EE3042" stroke-width="0.1" stroke-linecap="round" stroke-linejoin="round"/>
<path d="M15.6772 21.9018L15.6208 21.6886L15.4881 21.3568L15.4213 21.2277L15.3222 21.0882L15.1872 20.8373L15.1567 20.7918L14.8308 20.415L14.7867 20.3773L14.5181 20.1718L14.4554 20.1114L14.3058 20.0014L14.0354 19.8273L13.8158 19.7273L13.5881 19.6359L13.274 19.5614L13.2331 19.5482L13.1176 19.5064L12.8845 19.4586L12.6113 19.4123L12.5404 19.4114L12.2922 19.4123L12.2376 19.4091L12.089 19.4059L12.009 19.415L11.8131 19.4409L11.6572 19.4659L11.5776 19.4805L11.5317 19.4868L11.5222 19.4877L11.4236 19.5123L11.3308 19.5382L11.2495 19.5623L11.1754 19.5855L11.1086 19.6082L11.0467 19.6305L10.9886 19.6536L10.9645 19.6636L10.9317 19.6746L10.8763 19.6955L10.8208 19.7168L10.7649 19.74L10.7072 19.7659L10.6472 19.7946L10.584 19.8259L10.5163 19.8614L10.4417 19.9032L10.3972 19.9291L10.354 19.9496L10.2917 19.9818L10.2526 20.0077L10.1458 20.0836L10.019 20.1777L9.86355 20.2996L9.85264 20.3082L9.84083 20.3164L9.68855 20.465L9.4931 20.6677L9.47901 20.6859L9.31719 20.9268L9.29037 20.9636L9.21764 21.0696L9.15219 21.2091L9.07355 21.34L9.00037 21.4727L8.8731 21.8236L8.84764 21.9046L8.80037 22.2155L8.77901 22.34L8.77446 22.3773L8.7781 22.46L8.75537 22.825L8.76446 22.9359L8.82128 23.2959L8.87855 23.4905L8.92674 23.6123L8.9731 23.7727L9.09128 24.0373L9.09446 24.0427L9.19128 24.2214L9.39401 24.5132L9.5281 24.6718L9.76492 24.9236L9.92674 25.0636L10.1767 25.2455L10.354 25.3473L10.5086 25.4414L10.6104 25.4932L10.7999 25.5664L11.0631 25.6741L11.2476 25.7273L11.5126 25.7873L11.5481 25.7909L11.9636 25.8473L12.3945 25.8555H12.4004L12.6713 25.8227L12.8213 25.8064L13.2317 25.7164L13.6226 25.5823L13.7017 25.5441L13.999 25.4091L14.3536 25.1936L14.5458 25.0441L14.609 24.99L14.6826 24.9332L14.9817 24.6286L15.2472 24.2791L15.3072 24.1741L15.3258 24.1355L15.4645 23.8782L15.514 23.7441L15.6399 23.4455L15.6413 23.4409L15.7345 22.9573L15.7381 22.9132L15.749 22.8109L15.7504 22.4373L15.729 22.2491L15.6772 21.9018Z" fill="#EE2E62"/>
<path d="M15.6368 27.7504L15.6327 27.7395L15.5141 27.6077L15.4986 27.5977L15.3631 27.4482L15.1545 27.3141L15.0645 27.2795L14.9068 27.2259L14.8818 27.2095L14.5736 27.0904L14.5127 27.0782L14.2195 26.9841L14.0318 26.9473L13.7959 26.9114L13.7522 26.9082L13.4477 26.8582L13.3195 26.8432L13.1459 26.84L13.0154 26.8204L12.7513 26.7927L12.6554 26.7895L12.3695 26.7932L12.1195 26.8091L11.9791 26.825L11.8891 26.8223L11.8272 26.8232L11.6736 26.8314L11.4718 26.8482L11.2759 26.8754L11.0827 26.9109L10.9409 26.9423L10.9336 26.945L10.8859 26.9491L10.6845 26.9809L10.4727 27.0268L10.2418 27.0918L10.1381 27.1273L9.99088 27.1959L9.98178 27.1982L9.71633 27.2891L9.69678 27.2982L9.45951 27.4454L9.43178 27.4573L9.35542 27.5059L9.21088 27.6136L9.18633 27.6436L9.04588 27.7623L8.97315 27.8932L8.95588 27.9304L8.9536 27.9504L8.90906 28.0745L8.92088 28.2282L8.9886 28.3818L8.99178 28.3918L9.03769 28.4554L9.12497 28.5714L9.38042 28.8541L9.66678 29.1109L9.78133 29.1964L10.0927 29.4209L10.4286 29.6118L10.7859 29.7668L10.9095 29.8104L11.2786 29.9259L11.6609 30.0023L12.0527 30.0391L12.1609 30.0377L12.5486 30.0327L12.9372 29.9868L13.3222 29.9023L13.6991 29.7764L14.0645 29.6136L14.4136 29.4145L14.4445 29.3941L14.7627 29.1677L15.0586 28.9114L15.3286 28.6209V28.6204L15.5009 28.4059L15.5736 28.31L15.6291 28.2209L15.6754 28.0682L15.6677 28.0182L15.6804 27.9027L15.6368 27.7504Z" fill="#EE2E62"/>
<path d="M10.2528 1.99863C10.2545 2.1685 10.1968 2.33364 10.0896 2.46544L10.0819 2.46181C9.79522 2.06851 9.45878 1.71404 9.08096 1.40726C9.23778 1.91272 8.91187 1.9809 8.91187 1.9809C8.67463 1.64757 8.36227 1.37476 8.00005 1.18453C8.2396 1.37772 8.07233 1.65044 8.00551 1.74044C7.98187 1.73544 7.95914 1.73044 7.93596 1.7259C7.61623 1.4069 7.22765 1.16541 6.80005 1.01999C7.18778 1.34453 7.02233 1.53681 6.95778 1.5909C6.94233 1.59044 6.92551 1.58908 6.91051 1.58863C6.50606 1.31661 6.04532 1.13962 5.56278 1.0709C5.9996 1.31863 5.97233 1.53363 5.93551 1.62044C5.90278 1.62453 5.87051 1.62772 5.83778 1.63272C5.43132 1.4574 4.99705 1.35538 4.55505 1.33135C4.92369 1.47999 4.9046 1.70317 4.87005 1.80863C4.83233 1.81681 4.79414 1.8259 4.75687 1.83408C4.27514 1.63853 3.74822 1.58199 3.23596 1.6709C3.38617 1.77801 3.52066 1.90561 3.63551 2.04999C3.14904 2.119 2.65592 2.1277 2.16733 2.0759C2.4421 2.40495 2.63967 2.79138 2.74551 3.20681C2.52679 3.22517 2.30654 3.2072 2.09369 3.15363C2.30691 3.52293 2.60536 3.83587 2.96414 4.06635C2.97551 4.11453 2.98733 4.16226 2.99914 4.2109C2.76946 4.29216 2.51711 4.28041 2.29596 4.17817C2.59027 4.55699 2.92803 4.89994 3.30233 5.19999C3.30233 5.19999 3.20323 5.38363 2.68687 5.26999C3.01202 5.60922 3.38378 5.90047 3.79096 6.13499C3.80369 6.15499 3.81687 6.17453 3.83005 6.19408C3.73574 6.25027 3.63005 6.28466 3.52073 6.29472C3.41141 6.30479 3.30122 6.29028 3.19823 6.25226C3.61095 6.60086 4.07665 6.88136 4.57778 7.08317C4.59142 7.09772 4.60596 7.11226 4.62005 7.1259C4.5412 7.19877 4.44535 7.25072 4.34126 7.277C4.23716 7.30328 4.12813 7.30306 4.02414 7.27635C4.46633 7.52304 4.94321 7.70156 5.43869 7.8059C5.45778 7.81908 5.47687 7.83181 5.49642 7.84453C5.47278 7.90408 5.37778 8.05726 5.00642 8.1059C5.47151 8.27547 5.96371 8.35851 6.45869 8.3509C6.51869 8.37362 6.57778 8.39499 6.63733 8.41408C6.6396 8.49681 6.58142 8.64362 6.20733 8.7759C7.01722 8.84732 7.83288 8.73819 8.59551 8.45635L8.59823 8.45272C8.94805 8.35632 9.26532 8.16718 9.51648 7.9053C9.76764 7.64342 9.94336 7.31853 10.0251 6.96499C8.69233 5.41181 5.73096 3.63408 4.40414 3.02408C5.8646 3.4609 8.74642 4.66999 10.6073 6.2959C10.8071 6.22375 10.9907 6.11293 11.1476 5.96979C11.3046 5.82664 11.4318 5.65397 11.5219 5.46165C11.6121 5.26932 11.6635 5.06111 11.6731 4.84892C11.6828 4.63673 11.6506 4.42471 11.5782 4.22499C11.3573 3.37183 10.8975 2.59945 10.2528 1.99863Z" fill="#5FBB46"/>
<path d="M22.3724 4.17819C22.1513 4.28051 21.8989 4.29242 21.6692 4.21137C21.681 4.16273 21.6924 4.11455 21.7046 4.06683C22.0629 3.836 22.3609 3.52291 22.5737 3.15364C22.3615 3.20724 22.1418 3.22521 21.9237 3.20683C22.0291 2.79149 22.2262 2.40505 22.5005 2.07592C22.0121 2.12793 21.5191 2.11923 21.0328 2.05001C21.1478 1.90585 21.2822 1.77841 21.4324 1.67137C20.9202 1.58222 20.3933 1.63843 19.9115 1.83364C19.8742 1.82546 19.8365 1.81728 19.7983 1.8091C19.7637 1.70364 19.7446 1.48001 20.1142 1.33137C19.6719 1.35543 19.2374 1.4573 18.8305 1.63228C18.7983 1.62773 18.7655 1.6241 18.7328 1.62001C18.696 1.53319 18.6696 1.3191 19.106 1.07001C18.6235 1.13896 18.1629 1.31627 17.7587 1.58864C17.7428 1.5891 17.7269 1.59046 17.711 1.59092C17.646 1.53683 17.4801 1.34501 17.8683 1.02046C17.4408 1.1658 17.0523 1.40695 16.7324 1.72546C16.7096 1.73046 16.686 1.73546 16.6624 1.74092C16.596 1.65046 16.4287 1.37773 16.6683 1.18362C16.3062 1.37426 15.9939 1.64718 15.7565 1.98044C15.7565 1.98044 15.4301 1.91226 15.5874 1.4068C15.2096 1.714 14.8731 2.06859 14.586 2.4618L14.5783 2.46544C14.4715 2.33362 14.4139 2.16872 14.4155 1.99908C13.7708 2.5997 13.3109 3.37194 13.0901 4.22498C13.0178 4.42468 12.9856 4.63666 12.9952 4.84882C13.0048 5.06098 13.0562 5.26916 13.1463 5.46147C13.2364 5.65378 13.3636 5.82646 13.5204 5.96963C13.6773 6.1128 13.8608 6.22367 14.0605 6.29589C15.9219 4.66998 18.8042 3.46135 20.2651 3.02408C18.9378 3.63408 15.976 5.41226 14.6433 6.96498C14.725 7.31853 14.9007 7.64342 15.1518 7.9053C15.403 8.16718 15.7203 8.35632 16.0701 8.45271L16.0728 8.45635C16.8352 8.73839 17.6508 8.84738 18.4605 8.77544C18.0869 8.64317 18.0292 8.49635 18.0315 8.41407C18.0905 8.39453 18.1505 8.37362 18.2105 8.35044C18.7051 8.35835 19.1968 8.27547 19.6615 8.10589C19.291 8.05726 19.1955 7.90408 19.1719 7.84453C19.191 7.83226 19.2101 7.81862 19.2296 7.80544C19.7252 7.70115 20.2022 7.52279 20.6446 7.27635C20.5405 7.30316 20.4312 7.30339 20.327 7.27703C20.2227 7.25066 20.1267 7.19854 20.0478 7.12544C20.0624 7.11226 20.0769 7.09771 20.0915 7.08317C20.5923 6.88117 21.0577 6.60052 21.4701 6.2518C21.3672 6.29022 21.2569 6.30494 21.1475 6.29487C21.0381 6.2848 20.9324 6.25019 20.8383 6.19362C20.8515 6.17408 20.8646 6.15453 20.8774 6.13498C21.2843 5.90015 21.656 5.60893 21.9815 5.26998C21.4651 5.38317 21.366 5.19998 21.366 5.19998C21.7403 4.89994 22.0781 4.55698 22.3724 4.17817" fill="#5FBB46"/>
<path d="M23.9672 11.6768C23.644 11.6769 23.3281 11.5812 23.0593 11.4018C22.7905 11.2223 22.581 10.9672 22.4572 10.6686C22.3335 10.3701 22.301 10.0415 22.364 9.72452C22.427 9.40753 22.5826 9.11634 22.8111 8.88778C23.0396 8.65922 23.3307 8.50356 23.6477 8.44049C23.9646 8.37742 24.2932 8.40977 24.5918 8.53345C24.8904 8.65712 25.1456 8.86658 25.3251 9.13531C25.5046 9.40404 25.6004 9.71998 25.6004 10.0432C25.6005 10.2577 25.5583 10.4701 25.4762 10.6683C25.3942 10.8665 25.2739 11.0466 25.1222 11.1983C24.9706 11.35 24.7905 11.4704 24.5923 11.5525C24.3941 11.6346 24.1817 11.6768 23.9672 11.6768ZM23.9672 8.0818C23.5794 8.08167 23.2003 8.19653 22.8778 8.41186C22.5553 8.62719 22.3039 8.93332 22.1554 9.29153C22.0068 9.64975 21.9679 10.044 22.0434 10.4243C22.1189 10.8047 22.3055 11.1541 22.5796 11.4284C22.8538 11.7027 23.2031 11.8896 23.5834 11.9654C23.9637 12.0411 24.3579 12.0024 24.7162 11.8542C25.0745 11.7059 25.3808 11.4547 25.5964 11.1323C25.812 10.81 25.9271 10.431 25.9272 10.0432C25.9273 9.78567 25.8767 9.53068 25.7783 9.29274C25.6799 9.05481 25.5355 8.8386 25.3535 8.65646C25.1715 8.47432 24.9554 8.32982 24.7175 8.23122C24.4797 8.13262 24.2247 8.08185 23.9672 8.0818Z" fill="#231F20"/>
<path d="M23.6027 9.91775H24.1081C24.3136 9.91775 24.425 9.82957 24.425 9.61775C24.425 9.41593 24.3136 9.3273 24.1081 9.3273H23.6027V9.91775ZM23.1418 8.96957H24.2722C24.3511 8.96431 24.4302 8.97534 24.5046 9.00198C24.579 9.02862 24.6471 9.07029 24.7048 9.1244C24.7624 9.17851 24.8082 9.2439 24.8394 9.3165C24.8707 9.3891 24.8866 9.46735 24.8863 9.54639C24.8959 9.65841 24.8687 9.77052 24.8089 9.86568C24.749 9.96085 24.6597 10.0339 24.5545 10.0737V10.0796C24.7804 10.1378 24.845 10.3578 24.86 10.5696C24.8517 10.7394 24.8816 10.9088 24.9477 11.0655H24.4868C24.444 10.9014 24.4195 10.7331 24.4136 10.5637C24.3813 10.3432 24.2959 10.2468 24.0645 10.2468H23.6027V11.0655H23.1418V8.96957Z" fill="#231F20"/>
<path d="M36.1146 12.4977C36.1166 12.2759 36.0747 12.0559 35.9913 11.8503C35.9079 11.6448 35.7846 11.4578 35.6285 11.3001C35.4725 11.1425 35.2868 11.0173 35.0821 10.9317C34.8774 10.8462 34.6578 10.8021 34.436 10.8018H32.4305V14.16H34.436C34.8788 14.1615 35.3042 13.9874 35.6188 13.6758C35.9335 13.3642 36.1118 12.9406 36.1146 12.4977ZM38.3964 19.0505C38.4343 19.1628 38.4496 19.2816 38.4415 19.3998C38.4333 19.5181 38.4019 19.6337 38.3489 19.7397C38.2959 19.8458 38.2225 19.9404 38.1328 20.018C38.0431 20.0956 37.939 20.1546 37.8264 20.1918C37.7093 20.2229 37.5889 20.2392 37.4678 20.2405H37.4514C37.2269 20.2421 37.0066 20.18 36.816 20.0614C36.5979 19.9167 36.4187 19.7206 36.2941 19.4905C36.0319 18.8733 35.9148 18.2041 35.9519 17.5346C35.9509 17.2874 35.8832 17.0451 35.756 16.8332C35.6311 16.6407 35.464 16.4791 35.2673 16.3609C34.9861 16.1823 34.6779 16.0501 34.3546 15.9696H32.4305V19.5068C32.4274 19.7464 32.3298 19.975 32.1588 20.1429C31.9878 20.3107 31.7574 20.4041 31.5178 20.4027C31.3999 20.4032 31.2832 20.3803 31.1742 20.3355C31.0652 20.2906 30.9662 20.2247 30.8828 20.1414C30.7994 20.0581 30.7333 19.9592 30.6883 19.8503C30.6433 19.7414 30.6202 19.6247 30.6205 19.5068V9.88865C30.6189 9.77041 30.641 9.65305 30.6855 9.54351C30.7301 9.43397 30.7961 9.33448 30.8798 9.25091C30.9634 9.16734 31.063 9.10139 31.1726 9.05697C31.2822 9.01255 31.3995 8.99055 31.5178 8.99228H34.436C35.1545 8.99171 35.8556 9.2132 36.4433 9.62643C37.0311 10.0397 37.4768 10.6244 37.7194 11.3007C37.962 11.977 37.9898 12.7118 37.7987 13.4044C37.6077 14.097 37.2073 14.7137 36.6523 15.17C36.8743 15.3387 37.0671 15.5426 37.2232 15.7736C37.5775 16.2922 37.7652 16.9065 37.7614 17.5346C37.7452 17.8565 37.767 18.1791 37.8264 18.4959C37.9583 18.537 38.0787 18.6087 38.1777 18.705C38.2768 18.8014 38.3517 18.9197 38.3964 19.0505Z" fill="#231F20"/>
<path d="M46.0281 16.3445C46.0414 15.7233 45.8131 15.1212 45.3912 14.665C45.2004 14.4524 44.9666 14.2829 44.7052 14.1676C44.4439 14.0523 44.161 13.9939 43.8753 13.9964C43.5893 13.9908 43.3055 14.0478 43.0438 14.1633C42.782 14.2788 42.5486 14.45 42.3599 14.665C41.9433 15.1233 41.7212 15.7255 41.7403 16.3445C41.7272 16.9626 41.9486 17.5626 42.3599 18.0241C42.5553 18.2284 42.7907 18.3903 43.0514 18.4995C43.3122 18.6088 43.5927 18.6631 43.8753 18.6591C44.1577 18.6601 44.4373 18.6044 44.6977 18.4954C44.9581 18.3863 45.1939 18.226 45.3912 18.0241C45.8078 17.5646 46.0353 16.9647 46.0281 16.3445ZM47.7553 16.3445V19.5395C47.754 19.7682 47.6626 19.9872 47.5009 20.1489C47.3393 20.3106 47.1204 20.4022 46.8917 20.4036C46.6921 20.3991 46.4998 20.3274 46.3461 20.2C46.1923 20.0726 46.086 19.8971 46.0444 19.7018C45.4133 20.1582 44.6542 20.4038 43.8753 20.4036C43.3566 20.4056 42.8429 20.3009 42.3663 20.0961C41.8896 19.8913 41.4601 19.5908 41.1044 19.2132C40.3827 18.4333 39.9861 17.4071 39.9958 16.3445C39.9803 15.2807 40.3777 14.2521 41.1044 13.475C41.7192 12.7942 42.5647 12.3656 43.4773 12.2723C44.3899 12.1791 45.3046 12.4276 46.0444 12.97C46.0827 12.7718 46.1876 12.5926 46.3417 12.4622C46.4958 12.3318 46.6899 12.2581 46.8917 12.2532C47.1228 12.2555 47.3436 12.3494 47.5055 12.5143C47.6674 12.6792 47.7573 12.9016 47.7553 13.1327V16.3445Z" fill="#231F20"/>
<path d="M50.5605 18.0727C50.6305 17.9814 50.7184 17.9052 50.8188 17.8489C50.9191 17.7926 51.0299 17.7572 51.1444 17.745C51.2588 17.7328 51.3745 17.744 51.4845 17.7779C51.5945 17.8118 51.6964 17.8678 51.7842 17.9423C52.2859 18.3731 52.9164 18.6254 53.5769 18.6596C53.9676 18.6577 54.3505 18.5507 54.6855 18.3496C54.7676 18.2947 54.8364 18.2224 54.8871 18.1377C54.9378 18.0531 54.9691 17.9582 54.9787 17.86C54.9825 17.8019 54.9654 17.7444 54.9305 17.6977C54.9137 17.6486 54.8487 17.5836 54.7173 17.5023C54.3149 17.2705 53.8728 17.1156 53.4137 17.0455H53.3978C52.9101 16.9606 52.4342 16.8183 51.9801 16.6214C51.5253 16.4156 51.1358 16.0889 50.8541 15.6768C50.6703 15.3657 50.575 15.0104 50.5782 14.6491C50.5894 14.2964 50.6819 13.951 50.8486 13.6399C51.0153 13.3289 51.2516 13.0605 51.5392 12.8559C52.1308 12.4553 52.8306 12.2448 53.5451 12.2527C54.4344 12.2844 55.2904 12.5985 55.9892 13.1496C56.1782 13.2794 56.3105 13.4766 56.359 13.7007C56.4075 13.9249 56.3685 14.1591 56.2501 14.3555C56.1864 14.4502 56.1045 14.5314 56.0092 14.5942C55.9139 14.6571 55.807 14.7004 55.6949 14.7217C55.5827 14.743 55.4674 14.7418 55.3557 14.7181C55.244 14.6945 55.1381 14.649 55.0442 14.5841C54.6147 14.2399 54.0932 14.03 53.5451 13.9809C53.1961 13.9733 52.8537 14.0759 52.5664 14.2741C52.4961 14.3111 52.4358 14.3645 52.3904 14.4298C52.3451 14.4951 52.3161 14.5703 52.306 14.6491C52.2993 14.6949 52.3105 14.7414 52.3373 14.7791C52.3812 14.8494 52.4437 14.9062 52.5178 14.9432C52.8863 15.147 53.2898 15.2796 53.7073 15.3341L53.7237 15.3496H53.7396C54.264 15.438 54.7739 15.5972 55.2555 15.8227C55.73 16.0188 56.1339 16.354 56.4142 16.7841C56.6115 17.1086 56.7181 17.4802 56.7228 17.86C56.7147 18.2343 56.6173 18.6012 56.4387 18.9302C56.26 19.2591 56.0054 19.5407 55.696 19.7514C55.0726 20.1796 54.3332 20.407 53.5769 20.4032C52.5106 20.3662 51.4882 19.9699 50.6755 19.2786C50.5035 19.1319 50.3953 18.9241 50.3738 18.699C50.3523 18.4739 50.4193 18.2493 50.5605 18.0727Z" fill="#231F20"/>
<path d="M60.7667 16.3446C60.7541 16.6455 60.8041 16.9457 60.9136 17.2263C61.023 17.5069 61.1896 17.7617 61.4026 17.9746C61.5959 18.1941 61.8346 18.369 62.1022 18.4872C62.3697 18.6054 62.6597 18.664 62.9522 18.6591C63.2409 18.6571 63.5261 18.5953 63.7897 18.4774C64.0532 18.3596 64.2895 18.1884 64.4835 17.9746C64.8946 17.5316 65.1218 16.9489 65.119 16.3446C65.1127 15.7369 64.8871 15.1521 64.4835 14.6977C64.2865 14.489 64.0492 14.3222 63.7861 14.2075C63.5229 14.0927 63.2393 14.0324 62.9522 14.03C62.6614 14.0256 62.373 14.0828 62.1059 14.1979C61.8388 14.313 61.5991 14.4833 61.4026 14.6977C61.193 14.9166 61.0289 15.1748 60.9197 15.4575C60.8106 15.7401 60.7586 16.0417 60.7667 16.3446ZM58.9731 22.5882V13.1168C58.9747 12.8881 59.0664 12.6693 59.2282 12.5076C59.39 12.346 59.6089 12.2546 59.8376 12.2532C60.0408 12.246 60.2403 12.3083 60.4032 12.4298C60.5662 12.5513 60.6828 12.7247 60.734 12.9214C61.3947 12.492 62.1642 12.2602 62.9522 12.2532C64.0154 12.2795 65.0255 12.7236 65.7636 13.4895C66.5017 14.2553 66.9083 15.281 66.8954 16.3446C66.9066 17.4029 66.4979 18.4226 65.7588 19.1803C65.0197 19.9379 64.0105 20.3718 62.9522 20.3868C62.1722 20.3956 61.4086 20.1624 60.7667 19.7191V22.5882C60.7564 22.8268 60.6537 23.052 60.4803 23.2162C60.3069 23.3805 60.0764 23.4708 59.8376 23.4682C59.6082 23.4603 59.3906 23.3646 59.2297 23.2008C59.0688 23.037 58.9769 22.8177 58.9731 22.5882Z" fill="#231F20"/>
<path d="M71.5109 16.3445C71.5081 16.9471 71.7422 17.5266 72.1627 17.9582C72.3581 18.1694 72.5952 18.3379 72.859 18.453C73.1228 18.568 73.4076 18.6272 73.6954 18.6268C73.9828 18.6255 74.2669 18.5655 74.5303 18.4506C74.7937 18.3356 75.0309 18.168 75.2272 17.9582C75.6468 17.5191 75.8809 16.9352 75.8809 16.328C75.8809 15.7207 75.6468 15.1368 75.2272 14.6977C75.0308 14.488 74.7936 14.3206 74.5302 14.2058C74.2668 14.0909 73.9827 14.0311 73.6954 14.03C73.4077 14.0294 73.1229 14.0885 72.8591 14.2034C72.5953 14.3183 72.3582 14.4866 72.1627 14.6977C71.7361 15.1388 71.5017 15.731 71.5109 16.3445ZM69.7336 16.3445V9.87228C69.7358 9.63807 69.8304 9.41423 69.9969 9.24941C70.1633 9.08459 70.388 8.99213 70.6222 8.99213C70.8564 8.99213 71.0812 9.08459 71.2476 9.24941C71.414 9.41423 71.5086 9.63807 71.5109 9.87228V12.9368C72.153 12.493 72.9148 12.2546 73.6954 12.2532C74.7563 12.2831 75.7637 12.7256 76.5035 13.4866C77.2433 14.2476 77.6572 15.2671 77.6572 16.3284C77.6572 17.3897 77.2433 18.4092 76.5035 19.1702C75.7637 19.9312 74.7563 20.3737 73.6954 20.4036C72.9027 20.3961 72.1304 20.1517 71.4777 19.7018C71.4371 19.9006 71.329 20.0791 71.1716 20.2071C71.0142 20.335 70.8173 20.4045 70.6145 20.4036C70.3814 20.4021 70.1583 20.3088 69.9935 20.1441C69.8286 19.9793 69.7353 19.7563 69.7336 19.5232V16.3445Z" fill="#231F20"/>
<path d="M81.7019 15.5295H86.3146C86.1292 15.0349 85.8009 14.6065 85.3715 14.2988C84.942 13.9912 84.4308 13.8182 83.9028 13.8018C83.396 13.8039 82.9044 13.9749 82.5057 14.2879C82.1071 14.6008 81.8242 15.0377 81.7019 15.5295ZM79.9246 16.3286C79.9138 15.2613 80.3264 14.2332 81.072 13.4693C81.8176 12.7055 82.8355 12.2682 83.9028 12.2532C84.9218 12.2449 85.9037 12.636 86.6378 13.3428C87.372 14.0496 87.8001 15.0159 87.8305 16.0345V16.1164C87.8331 16.1655 87.8278 16.2148 87.8146 16.2623C87.7818 16.4579 87.6762 16.6339 87.5191 16.755C87.362 16.876 87.1648 16.9332 86.9673 16.915H81.7837C81.8605 17.3195 82.0526 17.6931 82.3369 17.9909C82.7563 18.412 83.3107 18.6718 83.9028 18.7245C84.4975 18.783 85.0947 18.6394 85.5978 18.3168C85.7603 18.1606 85.9744 18.0694 86.1997 18.0605C86.4249 18.0515 86.6456 18.1254 86.82 18.2682C86.89 18.3375 86.9456 18.42 86.9835 18.511C87.0215 18.6019 87.041 18.6994 87.041 18.798C87.041 18.8965 87.0215 18.994 86.9835 19.085C86.9456 19.1759 86.89 19.2584 86.82 19.3277C86.0254 20.0534 84.9783 20.4393 83.9028 20.4027C82.8365 20.3853 81.8203 19.9474 81.0752 19.1844C80.3302 18.4214 79.9166 17.395 79.9246 16.3286Z" fill="#231F20"/>
<path d="M95.1027 13.1168C95.1011 13.3455 95.0097 13.5644 94.8481 13.7261C94.6865 13.8879 94.4677 13.9796 94.239 13.9814C93.8875 13.9709 93.5429 14.0798 93.2613 14.2905C92.9558 14.4924 92.6991 14.76 92.5099 15.0736C92.2184 15.4927 91.9934 15.9544 91.8431 16.4423V19.5396C91.8369 19.7725 91.7394 19.9937 91.5715 20.1554C91.4036 20.3171 91.1789 20.4062 90.9458 20.4036C90.7172 20.4022 90.4983 20.3107 90.3366 20.1489C90.175 19.9872 90.0836 19.7682 90.0822 19.5396V13.1168C90.0832 13.0044 90.1063 12.8934 90.1503 12.7899C90.1942 12.6865 90.2581 12.5927 90.3383 12.514C90.4185 12.4352 90.5135 12.3731 90.6177 12.3311C90.722 12.2891 90.8335 12.268 90.9458 12.2691C91.1772 12.2629 91.4015 12.3486 91.5697 12.5075C91.7379 12.6664 91.8362 12.8855 91.8431 13.1168V13.2305C91.9447 13.1097 92.0593 13.0005 92.1849 12.905C92.7882 12.4873 93.5053 12.2653 94.239 12.2691C94.3518 12.2667 94.4639 12.2868 94.5687 12.3283C94.6735 12.3699 94.769 12.432 94.8495 12.511C94.93 12.59 94.9938 12.6843 95.0373 12.7883C95.0808 12.8924 95.103 13.0041 95.1027 13.1168Z" fill="#231F20"/>
<path d="M102.261 13.1168C102.259 13.3455 102.168 13.5643 102.006 13.7261C101.844 13.8879 101.626 13.9796 101.397 13.9813C101.045 13.9708 100.7 14.0798 100.419 14.2904C100.113 14.4924 99.8565 14.76 99.6674 15.0736C99.3763 15.493 99.1512 15.9546 99.0001 16.4423V19.5395C98.9939 19.7725 98.8964 19.9937 98.7285 20.1554C98.5606 20.3171 98.3359 20.4062 98.1028 20.4036C97.8742 20.4021 97.6553 20.3106 97.4936 20.1489C97.332 19.9871 97.2405 19.7682 97.2392 19.5395V13.1168C97.2402 13.0044 97.2633 12.8933 97.3073 12.7899C97.3512 12.6864 97.4151 12.5927 97.4953 12.5139C97.5755 12.4352 97.6705 12.3731 97.7747 12.331C97.879 12.289 97.9905 12.268 98.1028 12.2691C98.3341 12.2628 98.5585 12.3486 98.7267 12.5075C98.8949 12.6664 98.9932 12.8855 99.0001 13.1168V13.2304C99.102 13.1099 99.2166 13.0008 99.3419 12.905C99.9456 12.4874 100.663 12.2654 101.397 12.2691C101.51 12.2666 101.622 12.2868 101.727 12.3283C101.831 12.3699 101.927 12.4319 102.007 12.5109C102.088 12.5899 102.152 12.6842 102.195 12.7883C102.239 12.8923 102.261 13.004 102.261 13.1168Z" fill="#231F20"/>
<path d="M110.543 13.1168V19.2782C110.551 19.9386 110.388 20.5899 110.072 21.1696C109.755 21.7493 109.295 22.2378 108.735 22.5882C108.175 22.9386 107.535 23.1391 106.875 23.1705C106.215 23.2019 105.559 23.063 104.968 22.7673C104.862 22.7212 104.767 22.6543 104.688 22.5704C104.609 22.4865 104.548 22.3875 104.509 22.2794C104.469 22.1712 104.452 22.0561 104.458 21.941C104.464 21.826 104.493 21.7134 104.544 21.61C104.657 21.416 104.838 21.2714 105.052 21.2049C105.267 21.1384 105.498 21.1548 105.701 21.2509C105.995 21.3972 106.318 21.4753 106.646 21.4791C107.099 21.4771 107.539 21.3328 107.905 21.0667C108.27 20.8006 108.543 20.4261 108.684 19.9964C108.209 20.2563 107.676 20.3907 107.135 20.3868C106.23 20.381 105.365 20.0179 104.727 19.3768C104.089 18.7356 103.73 17.8682 103.728 16.9636V13.1168C103.729 12.8907 103.818 12.6739 103.976 12.5125C104.135 12.3511 104.35 12.2581 104.576 12.2532C104.69 12.2498 104.804 12.2697 104.91 12.3119C105.017 12.3541 105.113 12.4176 105.194 12.4985C105.275 12.5794 105.339 12.6759 105.381 12.7823C105.423 12.8886 105.443 13.0025 105.44 13.1168V16.9636C105.446 17.4069 105.627 17.8298 105.943 18.1409C106.259 18.4521 106.684 18.6265 107.128 18.6265C107.571 18.6265 107.996 18.4521 108.312 18.1409C108.628 17.8298 108.809 17.4069 108.815 16.9636V13.1168C108.811 13.0037 108.83 12.891 108.871 12.7855C108.912 12.68 108.974 12.584 109.054 12.5032C109.133 12.4224 109.228 12.3586 109.332 12.3156C109.437 12.2726 109.549 12.2514 109.663 12.2532C109.894 12.2513 110.116 12.3411 110.281 12.503C110.446 12.6649 110.54 12.8857 110.543 13.1168Z" fill="#231F20"/>
<path d="M119.555 14.16H121.56C121.782 14.1621 122.002 14.1203 122.208 14.0368C122.413 13.9534 122.6 13.8301 122.758 13.6739C122.915 13.5178 123.041 13.332 123.126 13.1272C123.211 12.9224 123.255 12.7028 123.255 12.4809C123.255 12.259 123.211 12.0394 123.126 11.8346C123.041 11.6298 122.915 11.444 122.758 11.2879C122.6 11.1317 122.413 11.0084 122.208 10.925C122.002 10.8415 121.782 10.7997 121.56 10.8018H119.555V14.16ZM121.56 15.9695H119.555V19.5073C119.553 19.7457 119.457 19.9737 119.287 20.1415C119.118 20.3093 118.889 20.4035 118.651 20.4035C118.412 20.4035 118.183 20.3093 118.014 20.1415C117.845 19.9737 117.748 19.7457 117.746 19.5073V9.88909C117.746 9.77126 117.768 9.65453 117.813 9.54559C117.858 9.43665 117.924 9.33765 118.007 9.25427C118.091 9.1709 118.19 9.10479 118.298 9.05975C118.407 9.01471 118.524 8.99162 118.642 8.99181H121.56C122.02 8.98971 122.475 9.07841 122.9 9.2528C123.325 9.42719 123.712 9.68385 124.037 10.008C124.363 10.3322 124.621 10.7175 124.798 11.1419C124.974 11.5662 125.065 12.0212 125.065 12.4807C125.065 12.9402 124.974 13.3952 124.798 13.8195C124.621 14.2438 124.363 14.6291 124.037 14.9533C123.712 15.2775 123.325 15.5342 122.9 15.7086C122.475 15.8829 122.02 15.9716 121.56 15.9695Z" fill="#231F20"/>
<path d="M128.848 13.165V19.5232C128.85 19.6391 128.829 19.7543 128.785 19.8618C128.742 19.9694 128.677 20.067 128.595 20.1491C128.513 20.2311 128.416 20.2959 128.308 20.3394C128.201 20.383 128.085 20.4045 127.969 20.4027C127.854 20.4035 127.739 20.3813 127.632 20.3374C127.525 20.2935 127.427 20.2287 127.345 20.1469C127.263 20.0651 127.198 19.9679 127.154 19.8608C127.11 19.7537 127.088 19.639 127.089 19.5232V13.165C127.085 13.0476 127.105 12.9308 127.148 12.8214C127.191 12.7121 127.255 12.6126 127.338 12.5289C127.42 12.4451 127.518 12.379 127.627 12.3343C127.736 12.2897 127.852 12.2675 127.969 12.2691C128.087 12.2665 128.204 12.288 128.313 12.3323C128.422 12.3766 128.52 12.4428 128.603 12.5268C128.685 12.6107 128.749 12.7107 128.792 12.8205C128.834 12.9302 128.853 13.0475 128.848 13.165ZM128.848 10.2155C128.85 10.3323 128.829 10.4484 128.786 10.5569C128.743 10.6655 128.679 10.7644 128.597 10.8478C128.515 10.9313 128.417 10.9976 128.31 11.0429C128.202 11.0882 128.086 11.1117 127.969 11.1118C127.734 11.1094 127.509 11.0137 127.344 10.8457C127.179 10.6777 127.087 10.451 127.089 10.2155V9.87228C127.088 9.75649 127.11 9.64174 127.155 9.53468C127.199 9.42761 127.264 9.33035 127.345 9.24852C127.427 9.16668 127.525 9.1019 127.632 9.05792C127.739 9.01394 127.854 8.99163 127.969 8.99228C128.085 8.9906 128.201 9.01222 128.308 9.05587C128.415 9.09951 128.513 9.16429 128.595 9.24636C128.677 9.32843 128.742 9.42613 128.785 9.53364C128.829 9.64116 128.85 9.75632 128.848 9.87228V10.2155Z" fill="#231F20"/>
<path fill-rule="evenodd" clip-rule="evenodd" d="M132.273 10C132.273 9.49793 132.68 9.09091 133.182 9.09091H138.409C138.777 9.09091 139.108 9.3124 139.249 9.65211C139.39 9.99181 139.312 10.3828 139.052 10.6428L137.484 12.211C138.969 12.8938 140 14.3947 140 16.1364C140 18.5212 138.067 20.4545 135.682 20.4545C133.919 20.4545 132.405 19.3986 131.734 17.8885C131.53 17.4297 131.737 16.8925 132.196 16.6886C132.655 16.4847 133.192 16.6914 133.396 17.1502C133.786 18.0275 134.664 18.6364 135.682 18.6364C137.063 18.6364 138.182 17.5171 138.182 16.1364C138.182 14.7557 137.063 13.6364 135.682 13.6364C135.314 13.6364 134.983 13.4149 134.842 13.0752C134.701 12.7355 134.779 12.3444 135.039 12.0845L136.214 10.9091H133.182C132.68 10.9091 132.273 10.5021 132.273 10Z" fill="#231F20"/>
</svg>
