<svg xmlns="http://www.w3.org/2000/svg" fill="none" viewBox="0 0 150 66"><rect width="100%" height="100%"/><g class="currentLayer"><path fill="#212529" d="M14.7039 58.716c.448.08.828.316 1.14.708.312.392.468.836.468 1.332 0 .424-.112.808-.336 1.152-.216.336-.532.604-.948.804-.416.192-.9.288-1.452.288h-3.336v-8.34h3.18c.568 0 1.056.096 1.464.288.408.192.716.452.924.78.208.32.312.68.312 1.08 0 .48-.128.88-.384 1.2-.256.32-.6.556-1.032.708zm-3.096-.552h1.692c.448 0 .796-.1 1.044-.3.256-.208.384-.504.384-.888 0-.376-.128-.668-.384-.876-.248-.216-.596-.324-1.044-.324h-1.692v2.388zm1.848 3.72c.464 0 .828-.112 1.092-.336.264-.224.396-.536.396-.936 0-.408-.14-.732-.42-.972-.28-.24-.652-.36-1.116-.36h-1.8v2.604h1.848zm10.3306-5.496V63h-1.368v-.78c-.216.272-.5.488-.852.648-.344.152-.712.228-1.104.228-.52 0-.988-.108-1.404-.324-.408-.216-.732-.536-.972-.96-.232-.424-.348-.936-.348-1.536v-3.888h1.356v3.684c0 .592.148 1.048.444 1.368.296.312.7.468 1.212.468s.916-.156 1.212-.468c.304-.32.456-.776.456-1.368v-3.684h1.368zm2.501-.876c-.248 0-.456-.084-.624-.252-.168-.168-.252-.376-.252-.624s.084-.456.252-.624c.168-.168.376-.252.624-.252.24 0 .444.084.612.252.168.168.252.376.252.624s-.084.456-.252.624c-.168.168-.372.252-.612.252zm.672.876V63h-1.368v-6.612h1.368zm3.164-2.268V63h-1.368v-8.88h1.368zm1.34 5.544c0-.664.136-1.252.408-1.764.28-.512.656-.908 1.128-1.188.48-.288 1.012-.432 1.596-.432.432 0 .856.096 1.272.288.424.184.76.432 1.008.744V54.12h1.38V63h-1.38v-.996c-.224.32-.536.584-.936.792-.392.208-.844.312-1.356.312-.576 0-1.104-.144-1.584-.432-.472-.296-.848-.704-1.128-1.224-.272-.528-.408-1.124-.408-1.788zm5.412.024c0-.456-.096-.852-.288-1.188-.184-.336-.428-.592-.732-.768-.304-.176-.632-.264-.984-.264s-.68.088-.984.264c-.304.168-.552.42-.744.756-.184.328-.276.72-.276 1.176 0 .456.092.856.276 1.2.192.344.44.608.744.792.312.176.64.264.984.264.352 0 .68-.088.984-.264.304-.176.548-.432.732-.768.192-.344.288-.744.288-1.2zm3.8729-4.176c-.248 0-.456-.084-.624-.252-.168-.168-.252-.376-.252-.624s.084-.456.252-.624c.168-.168.376-.252.624-.252.24 0 .444.084.612.252.168.168.252.376.252.624s-.084.456-.252.624c-.168.168-.372.252-.612.252zm.672.876V63h-1.368v-6.612h1.368zm5.132-.108c.52 0 .984.108 1.392.324.416.216.74.536.972.96.232.424.348.936.348 1.536V63h-1.356v-3.696c0-.592-.148-1.044-.444-1.356-.296-.32-.7-.48-1.212-.48s-.92.16-1.224.48c-.296.312-.444.764-.444 1.356V63h-1.368v-6.612h1.368v.756c.224-.272.508-.484.852-.636.352-.152.724-.228 1.116-.228zm7.121 0c.512 0 .964.104 1.356.312.4.2.712.452.936.756v-.96h1.38v6.72c0 .608-.128 1.148-.384 1.62-.256.48-.628.856-1.116 1.128-.48.272-1.056.408-1.728.408-.896 0-1.64-.212-2.232-.636-.592-.416-.928-.984-1.008-1.704h1.356c.104.344.324.62.66.828.344.216.752.324 1.224.324.552 0 .996-.168 1.332-.504.344-.336.516-.824.516-1.464v-1.104c-.232.312-.548.576-.948.792-.392.208-.84.312-1.344.312-.576 0-1.104-.144-1.584-.432-.472-.296-.848-.704-1.128-1.224-.272-.528-.408-1.124-.408-1.788 0-.664.136-1.252.408-1.764.28-.512.656-.908 1.128-1.188.48-.288 1.008-.432 1.584-.432zm2.292 3.408c0-.456-.096-.852-.288-1.188-.184-.336-.428-.592-.732-.768-.304-.176-.632-.264-.984-.264s-.68.088-.984.264c-.304.168-.552.42-.744.756-.184.328-.276.72-.276 1.176 0 .456.092.856.276 1.2.192.344.44.608.744.792.312.176.64.264.984.264.352 0 .68-.088.984-.264.304-.176.548-.432.732-.768.192-.344.288-.744.288-1.2zm9.0657-2.184h-1.224V63h-1.38v-5.496h-.78v-1.116h.78v-.468c0-.76.2-1.312.6-1.656.408-.352 1.044-.528 1.908-.528v1.14c-.416 0-.708.08-.876.24-.168.152-.252.42-.252.804v.468h1.224v1.116zm2.581-.156c.2-.336.464-.596.792-.78.336-.192.732-.288 1.188-.288v1.416h-.348c-.536 0-.944.136-1.224.408-.272.272-.408.744-.408 1.416V63h-1.368v-6.612h1.368v.96zm6.105 5.76c-.624 0-1.188-.14-1.692-.42-.504-.288-.9-.688-1.188-1.2-.288-.52-.432-1.12-.432-1.8 0-.672.148-1.268.444-1.788.296-.52.7-.92 1.212-1.2.512-.28 1.084-.42 1.716-.42.632 0 1.204.14 1.716.42.512.28.916.68 1.212 1.2.296.52.444 1.116.444 1.788 0 .672-.152 1.268-.456 1.788-.304.52-.72.924-1.248 1.212-.52.28-1.096.42-1.728.42zm0-1.188c.352 0 .68-.084.984-.252.312-.168.564-.42.756-.756.192-.336.288-.744.288-1.224s-.092-.884-.276-1.212c-.184-.336-.428-.588-.732-.756-.304-.168-.632-.252-.984-.252s-.68.084-.984.252c-.296.168-.532.42-.708.756-.176.328-.264.732-.264 1.212 0 .712.18 1.264.54 1.656.368.384.828.576 1.38.576zm12.789-5.64c.52 0 .984.108 1.392.324.416.216.74.536.972.96.24.424.36.936.36 1.536V63h-1.356v-3.696c0-.592-.148-1.044-.444-1.356-.296-.32-.7-.48-1.212-.48s-.92.16-1.224.48c-.296.312-.444.764-.444 1.356V63h-1.356v-3.696c0-.592-.148-1.044-.444-1.356-.296-.32-.7-.48-1.212-.48s-.92.16-1.224.48c-.296.312-.444.764-.444 1.356V63h-1.368v-6.612h1.368v.756c.224-.272.508-.484.852-.636.344-.152.712-.228 1.104-.228.528 0 1 .112 1.416.336.416.224.736.548.96.972.2-.4.512-.716.936-.948.424-.24.88-.36 1.368-.36zm9.982 6.828c-.52 0-.988-.092-1.404-.276-.408-.192-.732-.448-.972-.768-.24-.328-.368-.692-.384-1.092h1.416c.024.28.156.516.396.708.248.184.556.276.924.276.384 0 .68-.072.888-.216.216-.152.324-.344.324-.576 0-.248-.12-.432-.36-.552-.232-.12-.604-.252-1.116-.396-.496-.136-.9-.268-1.212-.396-.312-.128-.584-.324-.816-.588-.224-.264-.336-.612-.336-1.044 0-.352.104-.672.312-.96.208-.296.504-.528.888-.696.392-.168.84-.252 1.344-.252.752 0 1.356.192 1.812.576.464.376.712.892.744 1.548h-1.368c-.024-.296-.144-.532-.36-.708-.216-.176-.508-.264-.876-.264-.36 0-.636.068-.828.204-.192.136-.288.316-.288.54 0 .176.064.324.192.444s.284.216.468.288c.184.064.456.148.816.252.48.128.872.26 1.176.396.312.128.58.32.804.576.224.256.34.596.348 1.02 0 .376-.104.712-.312 1.008-.208.296-.504.528-.888.696-.376.168-.82.252-1.332.252zm6.878 0c-.624 0-1.188-.14-1.692-.42-.504-.288-.9-.688-1.188-1.2-.288-.52-.432-1.12-.432-1.8 0-.672.148-1.268.444-1.788.296-.52.7-.92 1.212-1.2.512-.28 1.084-.42 1.716-.42.632 0 1.204.14 1.716.42.512.28.916.68 1.212 1.2.296.52.444 1.116.444 1.788 0 .672-.152 1.268-.456 1.788-.304.52-.72.924-1.248 1.212-.52.28-1.096.42-1.728.42zm0-1.188c.352 0 .68-.084.984-.252.312-.168.564-.42.756-.756.192-.336.288-.744.288-1.224s-.092-.884-.276-1.212c-.184-.336-.428-.588-.732-.756-.304-.168-.632-.252-.984-.252s-.68.084-.984.252c-.296.168-.532.42-.708.756-.176.328-.264.732-.264 1.212 0 .712.18 1.264.54 1.656.368.384.828.576 1.38.576zm10.772-5.532V63h-1.368v-.78c-.216.272-.5.488-.852.648-.344.152-.712.228-1.104.228-.52 0-.988-.108-1.404-.324-.408-.216-.732-.536-.972-.96-.232-.424-.348-.936-.348-1.536v-3.888h1.356v3.684c0 .592.148 1.048.444 1.368.296.312.7.468 1.212.468s.916-.156 1.212-.468c.304-.32.456-.776.456-1.368v-3.684h1.368zm3.173.96c.2-.336.464-.596.792-.78.336-.192.732-.288 1.188-.288v1.416h-.348c-.536 0-.944.136-1.224.408-.272.272-.408.744-.408 1.416V63h-1.368v-6.612h1.368v.96zm2.781 2.34c0-.68.136-1.276.408-1.788.28-.52.664-.92 1.152-1.2.488-.28 1.048-.42 1.68-.42.8 0 1.46.192 1.98.576.528.376.884.916 1.068 1.62h-1.476c-.12-.328-.312-.584-.576-.768-.264-.184-.596-.276-.996-.276-.56 0-1.008.2-1.344.6-.328.392-.492.944-.492 1.656s.164 1.268.492 1.668c.336.4.784.6 1.344.6.792 0 1.316-.348 1.572-1.044h1.476c-.192.672-.552 1.208-1.08 1.608-.528.392-1.184.588-1.968.588-.632 0-1.192-.14-1.68-.42-.488-.288-.872-.688-1.152-1.2-.272-.52-.408-1.12-.408-1.8zm13.712-.156c0 .248-.016.472-.048.672h-5.052c.04.528.236.952.588 1.272.352.32.784.48 1.296.48.736 0 1.256-.308 1.56-.924h1.476c-.2.608-.564 1.108-1.092 1.5-.52.384-1.168.576-1.944.576-.632 0-1.2-.14-1.704-.42-.496-.288-.888-.688-1.176-1.2-.28-.52-.42-1.12-.42-1.8 0-.68.136-1.276.408-1.788.28-.52.668-.92 1.164-1.2.504-.28 1.08-.42 1.728-.42.624 0 1.18.136 1.668.408.488.272.868.656 1.14 1.152.272.488.408 1.052.408 1.692zm-1.428-.432c-.008-.504-.188-.908-.54-1.212-.352-.304-.788-.456-1.308-.456-.472 0-.876.152-1.212.456-.336.296-.536.7-.6 1.212h3.66zm5.174 4.008c-.52 0-.988-.092-1.404-.276-.408-.192-.732-.448-.972-.768-.24-.328-.368-.692-.384-1.092h1.416c.024.28.156.516.396.708.248.184.556.276.924.276.384 0 .68-.072.888-.216.216-.152.324-.344.324-.576 0-.248-.12-.432-.36-.552-.232-.12-.604-.252-1.116-.396-.496-.136-.9-.268-1.212-.396-.312-.128-.584-.324-.816-.588-.224-.264-.336-.612-.336-1.044 0-.352.104-.672.312-.96.208-.296.504-.528.888-.696.392-.168.84-.252 1.344-.252.752 0 1.356.192 1.812.576.464.376.712.892.744 1.548h-1.368c-.024-.296-.144-.532-.36-.708-.216-.176-.508-.264-.876-.264-.36 0-.636.068-.828.204-.192.136-.288.316-.288.54 0 .176.064.324.192.444s.284.216.468.288c.184.064.456.148.816.252.48.128.872.26 1.176.396.312.128.58.32.804.576.224.256.34.596.348 1.02 0 .376-.104.712-.312 1.008-.208.296-.504.528-.888.696-.376.168-.82.252-1.332.252z"/><path fill="#231E1B" fill-rule="evenodd" d="M15.3789 0a15.3814 15.3814 0 00-4.8604 29.9736c.769.141 1.0497-.3338 1.0497-.7414 0-.3651-.0133-1.3323-.0208-2.6158-4.2781.9295-5.1808-2.0616-5.1808-2.0616a4.0726 4.0726 0 00-1.7076-2.2497c-1.3964-.9543.1056-.9349.1056-.9349a3.2301 3.2301 0 012.3558 1.5849 3.2737 3.2737 0 001.9714 1.5727 3.2735 3.2735 0 002.5045-.2948 3.2857 3.2857 0 01.9765-2.056c-3.4152-.3882-7.0055-1.7076-7.0055-7.6012a5.9447 5.9447 0 011.583-4.127 5.5318 5.5318 0 01.1508-4.0702s1.2913-.4136 4.2293 1.5766a14.5785 14.5785 0 017.7007 0c2.9362-1.9902 4.2252-1.5766 4.2252-1.5766a5.524 5.524 0 01.153 4.0702 5.935 5.935 0 011.5809 4.127c0 5.9083-3.596 7.2084-7.0221 7.5892a3.6703 3.6703 0 011.0441 2.8481c0 2.0561-.019 3.7148-.019 4.2191 0 .4113.2772.8898 1.0577.7396a15.3825 15.3825 0 0010.3094-17.0577A15.3824 15.3824 0 0015.3789 0z" clip-rule="evenodd"/><path fill="#DF5A2C" d="M96.184 10.0748a7.0613 7.0613 0 00-.294 1.9638l1.056.511c-.02-.6275.006-1.2555.075-1.8794.004-.043.008-.0681.008-.0681-.001.023-.007.0452-.008.0681-.05.617-.052 1.237-.005 1.8543a20.4872 20.4872 0 001.564-1.4766c-.526-1.0736-1.18-1.2611-1.18-1.2611s-.935-.377-1.216.288zM98.929 15.3914a.0094.0094 0 00.004-.0039c.002-.0016.002-.0035.003-.0054l-.06.0525c-.001.005-.006.0092-.007.0142.021-.0198.042-.0397.06-.0574zM99.575 17.2172c-.028.0341-.062.0675-.095.1008.033-.0333.067-.0667.095-.1008zM99.843 18.182c-.05.054-.101.1051-.152.1562.026-.0241.054-.0532.079-.0802.025-.0239.05-.0493.073-.076z"/><path fill="#DF5A2C" d="M99.843 18.182c-.05.054-.101.1051-.152.1562.026-.0241.054-.0532.079-.0802.025-.0239.05-.0493.073-.076z" opacity=".35"/><path fill="#DF5A2C" d="M99.456 17.34c.009-.0063.015-.0156.024-.022.033-.0333.067-.0667.095-.1008-.037.0405-.079.0802-.119.1228z"/><path fill="#DF5A2C" d="M99.456 17.34c.009-.0063.015-.0156.024-.022.033-.0333.067-.0667.095-.1008-.037.0405-.079.0802-.119.1228z" opacity=".35"/><path fill="#DF5A2C" d="M97.222 15.6656a56.5136 56.5136 0 01-.134-1.0365 22.7887 22.7887 0 01-.096-1.0411.6601.6601 0 01-.004-.0596c-.023-.3345-.04-.6603-.047-.9796l-1.054-.5081c-.002.0639-.007.1298-.01.1986-.01.2524-.018.5206-.02.8025-.003.3178 0 .6492.006.9965.007.3192.02.6522.038.991.017.29.036.5828.059.8815.001.0129.002.0208.003.0337l1.409.714c-.049-.3333-.101-.6645-.15-.9929zM99.304 24.0003c.078.2633.157.5346.243.8095.002.0029.001.0079.003.0108.012.0403.022.0777.036.1159.056.1856.111.3504.227.7275.283-.0174.565.0499.81.1935a1.1581 1.1581 0 00-.77-.4183c.863-.5757 1.431-1.3173 1.351-2.2019a2.6856 2.6856 0 00-.035-.2413.9975.9975 0 01-.165.5043.9976.9976 0 01-.402.3477l-.002.0021.002-.0021a2.787 2.787 0 00.452-1.7549 5.6905 5.6905 0 00-.056-.4575 2.2571 2.2571 0 01-.413 1.0844c-.23.3193-.539.5731-.897.7362l-.428.3937c.016.0511.029.0993.044.1504z"/><path fill="#DF5A2C" d="M98.755 22.7974c-.09-.3345-.179-.674-.27-1.0164a53.1299 53.1299 0 01-.25-.9954c-.082-.3358-.161-.6738-.24-1.0117-.081-.3459-.156-.691-.228-1.0382-.074-.3422-.141-.6887-.209-1.0301a14.382 14.382 0 01-.069-.3723 41.8864 41.8864 0 01-.112-.6382c-.004-.0108-.004-.0237-.008-.0345l-1.401-.7153a.5088.5088 0 01.005.0675c.028.3173.056.6397.093.9636.037.3289.079.6586.127.9919.042.281.087.5597.133.8414.01.0554.021.1136.031.1689.064.3486.133.685.208.9993.084.3566.174.6911.264 1.0026.061.2044.121.4009.182.5873.053.1569.111.3146.167.4694.134.3644.282.7181.442 1.0634l1.417.7176c-.076-.2604-.146-.5251-.222-.7935-.02-.0748-.039-.1496-.06-.2273z"/><path fill="#DF5A2C" d="M97.642 23.1475c.192.4142.409.816.651 1.2032.009.0116.017.0282.025.0397a2.8552 2.8552 0 00-1.08-.0836 3.9648 3.9648 0 011.74 1.0137 1.8206 1.8206 0 01-.822.4125c.302.05.613.0226.902-.0796-.278.2995-.468.6699-.549 1.0703.2-.3941.509-.7219.891-.9434.426 1.4097.938 2.9379 1.505 4.5413a.4365.4365 0 00.084-.1918.4219.4219 0 00-.017-.2085c-.105-.2881-.78-2.1953-1.55-4.7842-.022-.0727-.041-.1475-.066-.223-.007-.0216-.011-.0403-.018-.0619-.079-.2713-.16-.5504-.241-.8375-.018-.0669-.037-.1288-.055-.1957l-.002-.0029-1.417-.7176a.2863.2863 0 00.019.049zM97.537 16.689c.008.0474.017.0898.025.1372.027.1402.052.2825.081.4255.03.156.062.3149.093.4788.016.0819.032.1638.049.2487.052.2515.107.5089.164.7742.07.3264.147.6615.23 1.0102.077.3301.16.6738.248 1.0234.085.3337.171.6753.265 1.0285.083.3129.173.6345.263.964.003.0158.011.0323.013.0482.092.3244.186.6597.285 1.0007.001.0076.003.015.007.0216l.428-.3937c-.011.0035-.02.0098-.034.0154a4.0948 4.0948 0 001.041-2.3033 5.4689 5.4689 0 00-.013-1.2849 8.7296 8.7296 0 00-.206-1.0989 14.3847 14.3847 0 00-.314-1.0771 2.1467 2.1467 0 01-.326.4708l-.074.081c-.025.027-.052.0511-.079.0802.339-.5544.45-1.2195.307-1.854-.095.268-.239.5163-.423.7331-.028.0341-.062.0675-.095.1008-.009.0064-.015.0157-.027.0241.117-.1881.209-.3903.275-.6018.013-.0413.024-.0834.032-.1259.015-.0644.025-.1296.035-.1948.004-.043.01-.0831.014-.1261a1.731 1.731 0 00-.002-.3056c-.002-.0337-.003-.0646-.008-.0962-.008-.0474-.014-.092-.023-.1344a6.3228 6.3228 0 00-.11-.5197 4.3374 4.3374 0 00-.056-.2036c-.009-.0245-.013-.0482-.022-.0727-.023-.0677-.042-.1296-.062-.1814a1.9212 1.9212 0 00-.078-.1787.37.37 0 01-.031.085 2.7536 2.7536 0 01-.481.6908l.394-.3603-.394.3603c-.001.001-.003.0023-.004.0039a.0109.0109 0 00-.002.0054.6601.6601 0 00-.058.0604c.001-.005.006-.0093.007-.0143l-1.346 1.2328c.011.0094.013.0173.012.0224z"/><path fill="#DF5A2C" d="M97.016 12.5246c.016.295.042.6274.076.9943 0 .0193.003.0385.006.0574.031.3203.07.665.12 1.0421.043.3247.09.6681.149 1.0388.048.3204.107.6553.168 1.011l1.346-1.2327c.229-.3645.347-.7878.338-1.2182a4.8218 4.8218 0 00-.016-.3308 10.5362 10.5362 0 00-.121-1.0629 9.0962 9.0962 0 00-.201-.9519 4.8294 4.8294 0 00-.154-.4829 5.694 5.694 0 00-.148-.3358 21.406 21.406 0 01-1.563 1.4716zM99.772 18.2609c-.025.027-.052.0511-.079.0802a.854.854 0 01.079-.0802z"/><path fill="#DF5A2C" d="M99.772 18.2609c-.025.027-.052.0511-.079.0802a.854.854 0 01.079-.0802z" opacity=".35"/><path fill="#DF5A2C" d="M99.772 18.2609c-.025.027-.052.0511-.079.0802a.854.854 0 01.079-.0802zM99.453 17.3421c.009-.0063.015-.0156.027-.0241-.009.0064-.015.0156-.027.0241z"/><path fill="#DF5A2C" d="M99.453 17.3421c.009-.0063.015-.0156.027-.0241-.009.0064-.015.0156-.027.0241z" opacity=".35"/><path fill="#DF5A2C" d="M99.453 17.3421c.009-.0063.015-.0156.027-.0241-.009.0064-.015.0156-.027.0241z"/><path fill="#000" d="M55.0249 5h4.929a1.0092 1.0092 0 01.7262.2117.649.649 0 01.151.2054.6289.6289 0 01.06.2482c.021.1829.051.3646.091.5443.04.3225.081.6552.121.9979.06.3225.111.6552.151.9979.222 1.27.403 2.5603.544 3.8706a83.196 83.196 0 00.575 3.9009c.082.4099.142.8238.181 1.2399.04.4161.1.8299.182 1.2398l.06.3024a.3868.3868 0 00.152.2419.351.351 0 01.09.0605c.026.009.053.011.08.0057a.1476.1476 0 00.071-.036.62.62 0 00.238-.1371.6314.6314 0 00.156-.2257c.1-.2016.201-.3831.302-.5444.242-.4636.474-.9172.695-1.3607.222-.4637.464-.9274.726-1.3911l1.936-3.6892a337.279 337.279 0 001.965-3.7497c.161-.3225.323-.635.484-.9374.181-.3225.353-.6451.514-.9677.081-.1612.171-.3225.272-.4838.105-.1652.251-.3006.424-.3931A.807.807 0 0171.384 5h5.202a.5893.5893 0 01.423.121c.201.1209.262.3528.181.6955-.06.3225-.121.6552-.181.9979l-.907 4.5359-2.268 11.2491-.514 2.6308a7.967 7.967 0 01-.152.6653.8237.8237 0 01-.302.4536 1.0086 1.0086 0 01-.484.1814h-2.873a3.5423 3.5423 0 00-.393-.0907.3519.3519 0 01-.146-.0767.3584.3584 0 01-.096-.135.6086.6086 0 01-.06-.3931c.04-.1613.081-.3326.121-.5141l.302-1.5422 1.573-7.7715c.04-.2823.08-.5443.121-.7862.06-.2621.111-.5242.151-.7863l.121-.4838c.039-.1686.059-.341.06-.5141-.02-.1505-.02-.303 0-.4536.041-.1612.01-.262-.09-.3024a.14.14 0 00-.081-.0081.1395.1395 0 00-.071.0384l-.09.0907a1.301 1.301 0 00-.272.3024l-.182.3024c-.181.3024-.363.6149-.544.9374-.161.3226-.343.6451-.544.9677l-.182.3628a1.5352 1.5352 0 01-.181.3629c-.162.2621-.313.5242-.454.7862a7.5438 7.5438 0 01-.423.7863.681.681 0 00-.091.2116.7696.7696 0 01-.091.1815 5.3062 5.3062 0 00-.332.5745 3.0285 3.0285 0 01-.333.6048 5.316 5.316 0 00-.333.5746 4.1558 4.1558 0 01-.302.6048 22.0885 22.0885 0 00-.998 1.7841 74.7167 74.7167 0 01-.937 1.7539.4659.4659 0 00-.121.1814.2873.2873 0 01-.027.0999.276.276 0 01-.064.0816c-.143.2249-.274.457-.393.6955a5.4269 5.4269 0 01-.363.6652 6.6749 6.6749 0 01-.242.3931 1.324 1.324 0 01-.272.3024.951.951 0 01-.333.1512c-.133.0047-.265.025-.393.0605h-.695c-.141 0-.313.0101-.514.0303h-.575a4.1678 4.1678 0 01-.514-.0303.5744.5744 0 01-.3327-.1209.6909.6909 0 01-.2721-.3327 2.8186 2.8186 0 00-.121-.4838 8.942 8.942 0 01-.0907-.7258 4.5462 4.5462 0 00-.121-.7559l-.0302-.2722a4.5569 4.5569 0 01-.121-.756 4.5907 4.5907 0 00-.121-.7862v-.1512a.5684.5684 0 00-.0302-.1814 2.6435 2.6435 0 01-.121-.5746 6.2743 6.2743 0 00-.0906-.6048v-.1512a.3369.3369 0 00-.0303-.1512 6.2743 6.2743 0 01-.0907-.6048 2.0977 2.0977 0 00-.0907-.6048 20.8882 20.8882 0 01-.2117-1.27 13.462 13.462 0 00-.1814-1.3003 35.5091 35.5091 0 01-.2117-1.5422 7.4081 7.4081 0 00-.2722-1.512 2.6577 2.6577 0 00-.1814-.6955.4725.4725 0 00-.121-.0907c-.0201-.0403-.0604-.0403-.121 0a.4625.4625 0 00-.2418.3024 1.6734 1.6734 0 01-.121.4233 1.2086 1.2086 0 00-.1512.4536 27.19 27.19 0 00-.0605.4536 7.8796 7.8796 0 01-.1512.6653 7.8774 7.8774 0 01-.1512.6652l-1.6026 8.0437-.3024 1.4818-.121.4838a.6515.6515 0 01-.1814.3931.749.749 0 01-.5141.2722 1.6473 1.6473 0 01-.4536.0605 3.8757 3.8757 0 00-.4838-.0303h-2.1773a.685.685 0 01-.4233-.1814.5351.5351 0 01-.121-.4536l.121-.6653.514-2.6611 2.268-11.249.8467-4.2336c.0202-.1209.0403-.262.0605-.4233a20.059 20.059 0 01.1209-.5141c.0404-.1613.0807-.3125.121-.4536.0605-.1613.1109-.2822.1512-.3629a1.0189 1.0189 0 01.5443-.3024c.0605-.0201.1008-.0201.121 0A.4953.4953 0 0055.0249 5zM91.169 25.3512c0 .2231-.021.4457-.061.6652a.566.566 0 01-.131.2832.5666.5666 0 01-.262.1704 1.138 1.138 0 01-.454.0907H87.6a.6005.6005 0 01-.362-.1512.5763.5763 0 01-.242-.3326.8279.8279 0 00-.212-.3931.3797.3797 0 00-.151-.0907.2276.2276 0 00-.102-.0414.2322.2322 0 00-.11.0111 1.677 1.677 0 00-.333.1512c-.096.0584-.197.109-.302.1512a2.4302 2.4302 0 01-.393.2117c-.121.0605-.252.121-.393.1814a6.4476 6.4476 0 01-.877.3024c-.303.0605-.605.1311-.907.2117a1.8801 1.8801 0 01-.454.0605c-.121.0201-.252.0403-.393.0605h-.181a.576.576 0 01-.182.0302h-.333a1.5202 1.5202 0 01-.604 0h-.272a1.5435 1.5435 0 00-.424-.0605.7468.7468 0 01-.363-.0302l-.544-.121a1.2388 1.2388 0 01-.484-.1512 3.9611 3.9611 0 01-1.33-.8467 2.8637 2.8637 0 01-.696-1.4212 3.0469 3.0469 0 01-.091-.4536c0-.1718-.01-.3434-.03-.5141a.7697.7697 0 010-.3024.8251.8251 0 00.061-.3024c0-.0605.01-.1814.03-.3629a1.838 1.838 0 01.121-.4233c.07-.1649.121-.3375.151-.5141l.302-.6652a3.787 3.787 0 01.394-.6351 5.132 5.132 0 011.421-1.3305 8.1795 8.1795 0 011.875-.7862c.274-.0989.558-.1698.846-.2117.283-.0403.575-.0907.877-.1512.168-.0412.341-.0615.514-.0605.193-.0188.385-.0491.575-.0907a1.005 1.005 0 01.423-.0303 2.264 2.264 0 00.484-.0604c.138-.0399.28-.0602.423-.0605.154-.0016.306-.0219.454-.0605.444-.1008.847-.1814 1.21-.2419a2.5262 2.5262 0 001.088-.5443c.195-.1726.358-.3771.484-.6048a.4887.4887 0 00.03-.1512.2692.2692 0 01.031-.121.2483.2483 0 00.048-.0846.2446.2446 0 00.012-.0968.9611.9611 0 01.06-.1814v-.4536a1.459 1.459 0 00-.326-.7751 1.4555 1.4555 0 00-.702-.4647 2.3592 2.3592 0 00-.635-.121 3.1256 3.1256 0 00-.756-.0302c-.263 0-.526.0203-.786.0604a4.2425 4.2425 0 00-.635.1512c-.14.0397-.272.1009-.393.1815a3.449 3.449 0 00-.363.2116 2.6816 2.6816 0 00-.393.3327c-.121.1143-.223.247-.302.3931a6.5322 6.5322 0 00-.363.5745.7701.7701 0 01-.218.2368.7687.7687 0 01-.296.1261 2.115 2.115 0 01-.514.0605h-1.694a2.027 2.027 0 00-.332.0302.7823.7823 0 01-.242-.0302h-.273a.3349.3349 0 00-.151-.0302.2071.2071 0 01-.082-.0146.2074.2074 0 01-.069-.0459c-.141-.0403-.222-.1714-.242-.3931a.805.805 0 01.061-.3024c.04-.1008.08-.1915.121-.2722.1-.2217.201-.4233.302-.6048.112-.1875.233-.3692.363-.5443l.242-.3024.242-.3024c.218-.2368.462-.4497.725-.635a.5904.5904 0 00.212-.1512 6.358 6.358 0 00.302-.2117c.101-.0605.212-.1209.333-.1814a5.5325 5.5325 0 011.179-.5141c.424-.1411.847-.2721 1.271-.3931.258-.06.521-.1004.786-.121.274-.022.547-.0624.816-.1209.12-.0207.243-.0207.363 0a.5273.5273 0 00.333-.0303c.777-.0221 1.555.0082 2.328.0908a7.6122 7.6122 0 011.966.4536 3.7566 3.7566 0 011.421.9071c.394.3833.658.8803.756 1.4213.061.3908.061.7886 0 1.1793-.061.4435-.141.8971-.242 1.3608l-1.361 6.7434c-.06.3831-.131.7762-.211 1.1794a3.9222 3.9222 0 00-.091 1.0583.9446.9446 0 01-.03.2117v.1815zm-3.508-4.6569c.042-.1073.072-.2188.091-.3327.018-.1201.028-.2413.03-.3628a1.6883 1.6883 0 01.03-.3327.2232.2232 0 00-.007-.1352.2258.2258 0 00-.084-.1067.5896.5896 0 00-.423-.1209 2.9456 2.9456 0 00-.212.0604 1.3069 1.3069 0 00-.242.0303c-.148.0418-.3.0721-.453.0907a5.5606 5.5606 0 00-.514.0907.9211.9211 0 01-.272.0302 6.163 6.163 0 01-.817.121 3.611 3.611 0 00-.786.1512l-.484.121a1.6664 1.6664 0 00-.423.1209 3.588 3.588 0 00-1.24.8165c-.385.4125-.61.9485-.635 1.512a1.392 1.392 0 00.181.8467c.097.2395.281.4338.514.5443.28.1265.575.2179.877.2721.339.0615.685.0818 1.028.0605a6.1198 6.1198 0 001.089-.2117 3.3109 3.3109 0 001.391-.7559c.398-.3834.726-.8338.968-1.3306a3.533 3.533 0 00.151-.4233c.043-.1675.103-.3297.181-.4839l.061-.2721zM126.239 18.6078a1.5002 1.5002 0 01-.121.5443.7075.7075 0 01-.303.3931c-.135.0949-.29.157-.453.1814-.202.0202-.424.0403-.665.0605h-.696c-.222-.0202-.423-.0302-.605-.0302h-7.802a.8876.8876 0 00-.332.0604.927.927 0 00-.363.2419 1.8598 1.8598 0 00-.182.242.5878.5878 0 00-.09.3024c.02.1201.02.2427 0 .3628.001.1116.011.2228.03.3327.042.419.155.8279.333 1.2095.202.3242.47.6023.786.8165.136.0986.29.1705.453.2117.176.0188.349.0594.515.1209.208.0474.421.0777.635.0908.252.0214.506.0113.756-.0303h.272c.201-.0403.393-.0806.574-.1209l.545-.1815c.221-.1008.473-.2318.756-.3931.241-.1316.465-.2942.665-.4838.121-.1409.252-.2724.393-.3931.128-.1323.282-.2354.454-.3024.247-.1051.518-.1466.786-.121h1.24a.7005.7005 0 01.362.0303h.303c.14.0236.273.075.393.1512.06.0403.081.131.06.2721a.6882.6882 0 01-.09.3629c-.15.2658-.322.5187-.514.756-.17.2315-.351.4535-.545.6652a7.8462 7.8462 0 01-1.814 1.6027 9.994 9.994 0 01-2.328 1.0282 3.101 3.101 0 01-.696.1512 5.465 5.465 0 00-.726.1209.615.615 0 01-.272 0 1 1 0 00-.242.0303h-.332a.7468.7468 0 01-.363.0302 1.6991 1.6991 0 01-.333-.0302 1.4765 1.4765 0 00-.423 0 .8901.8901 0 01-.393-.0303.8891.8891 0 00-.333-.0604.6698.6698 0 01-.302-.0605 7.901 7.901 0 01-.666-.1512 1.6185 1.6185 0 01-.544-.2117 10.461 10.461 0 00-.575-.2117 2.7286 2.7286 0 01-.483-.2721 6.8044 6.8044 0 01-1.452-1.391 5.6863 5.6863 0 01-.847-1.8749 3.9508 3.9508 0 01-.121-.6653c0-.2447-.03-.4884-.09-.7257v-.2117a.9862.9862 0 00.03-.2419 5.1613 5.1613 0 010-.7862l.121-.8467c.021-.1097.031-.2211.03-.3327.018-.1138.049-.2253.091-.3326l.091-.3629.242-.7257c.141-.3427.272-.6754.393-.9979.118-.3177.27-.6218.453-.9072a10.5426 10.5426 0 015.322-4.4452c.292-.118.596-.1993.908-.2419.302-.0605.625-.1311.967-.2117.151-.0195.302-.0296.454-.0303a3.634 3.634 0 00.453-.0302 6.8753 6.8753 0 012.571.3629c.645.2198 1.248.547 1.784.9676.165.125.317.2669.453.4234.153.1311.286.2839.394.4536a.491.491 0 00.211.2419c.122.2224.223.4552.303.6955.1.2218.211.4536.332.6955.062.1865.102.3792.121.5746.041.1814.081.383.121.6048.041.2702.061.5431.061.8164l.06.8467a1.8993 1.8993 0 01-.091.5443 1.5324 1.5324 0 00-.03.5141l-.06.3327zm-4.204-1.7842a.7807.7807 0 00.184-.3397.7879.7879 0 00-.002-.386c-.04-.3024-.071-.5242-.091-.6653a2.3648 2.3648 0 00-.877-1.2398c-.403-.3024-1.018-.4637-1.844-.4838a.2545.2545 0 01-.212.0302.3765.3765 0 00-.212 0c-.118.0397-.239.07-.363.0907a.8876.8876 0 00-.332.0605 4.2225 4.2225 0 00-2.298 1.6632 3.1684 3.1684 0 00-.212.3326 1.3944 1.3944 0 00-.182.3931 1.148 1.148 0 00-.06.3629c0 .0587.013.1168.039.1693a.3829.3829 0 00.112.1331c.191.1139.413.1666.635.1512h5.05a.8594.8594 0 00.363-.0629.8475.8475 0 00.302-.2093zM139.279 10.564c1.209-.0403 2.177.1311 2.903.5141a3.2191 3.2191 0 011.572 1.6934c.103.2294.164.475.182.7257.04.242.07.494.09.756.02.1506.02.3031 0 .4536-.02.1404-.02.283 0 .4234a.3808.3808 0 00-.03.2419 6.9974 6.9974 0 01-.121.8769c-.06.3024-.121.5948-.181.877l-.514 2.6913-.998 4.8988c-.081.383-.162.756-.242 1.1189a.8508.8508 0 01-.575.6652c-.137.0427-.28.0631-.423.0605h-2.117a5.8302 5.8302 0 01-.635-.0302.563.563 0 01-.226-.0928.5704.5704 0 01-.167-.1794.8033.8033 0 01-.061-.4536c.041-.2016.081-.4133.121-.635l.424-2.1168.907-4.5057c.141-.7459.242-1.4313.302-2.0562a2.8193 2.8193 0 00-.211-1.633 1.7004 1.7004 0 00-.441-.5342 1.6836 1.6836 0 00-.618-.3125.8876.8876 0 00-.332-.0605.8106.8106 0 01-.303-.0604 1.2634 1.2634 0 00-.393 0 1.426 1.426 0 00-.332.0302c-.08.0176-.161.0278-.242.0302a.576.576 0 00-.182.0303 4.1922 4.1922 0 00-1.209.4838 3.7088 3.7088 0 00-1.573 2.0261 28.0307 28.0307 0 00-.756 2.9937l-.756 3.7799-.363 1.8446c-.04.1814-.08.3629-.121.5443-.032.1611-.093.3149-.181.4536a.8136.8136 0 01-.244.2606.816.816 0 01-.331.1325c-.27.0441-.543.0643-.816.0605h-1.512c-.222 0-.444-.0101-.665-.0302a.482.482 0 01-.424-.2117.99.99 0 01-.111-.3869.9847.9847 0 01.051-.3993c.08-.3428.151-.6653.211-.9677l.817-4.1126 1.33-6.6527.333-1.5422c.04-.2217.081-.4233.121-.6048a.82.82 0 01.272-.4536.3282.3282 0 01.094-.0818.3084.3084 0 01.118-.0391c.098-.0394.199-.0698.302-.0907h.152c.099-.0201.2-.0302.302-.0303h1.603a3.212 3.212 0 01.453.0303c.144-.0027.287.0178.424.0604a.3625.3625 0 01.14.1092.363.363 0 01.071.163c.043.137.063.2799.061.4234a.661.661 0 01-.031.2116.282.282 0 000 .1815.45.45 0 00.061.1814c.052.0272.103.0575.151.0907a.7358.7358 0 00.31-.0433.731.731 0 00.265-.1684c.161-.1656.344-.3081.544-.4233a9.1245 9.1245 0 011.996-.9677c.187-.0575.38-.098.574-.1209.202-.0202.424-.0504.666-.0907a.6007.6007 0 01.272 0 .6284.6284 0 00.242-.0303zM146.766 10.5402c.013.014.021.0304.027.0482a.1434.1434 0 01.004.0546c0 .05-.01.0996-.031.1452l-.006.0484a.3627.3627 0 01-.054.0907.1621.1621 0 01-.079.0484.7287.7287 0 01-.151.0121 2.6253 2.6253 0 00-.163-.0061h-.091a.0868.0868 0 01-.054.0061.0696.0696 0 00-.049.006.228.228 0 00-.115.1149.2061.2061 0 00-.024.0726l-.012.0847-.29 1.4273a.2493.2493 0 00-.006.0544.1024.1024 0 01-.012.0484l-.012.0484-.012.0363c-.001.0061-.002.0122-.006.0175a.0302.0302 0 01-.013.0127.1231.1231 0 01-.032.0414.1328.1328 0 01-.046.0251.196.196 0 01-.073.0121h-.272a.1636.1636 0 01-.075-.0078.1677.1677 0 01-.064-.0406.1449.1449 0 01-.012-.0846c.008-.0323.016-.0686.024-.1089l.284-1.4273.012-.0605a.085.085 0 00.006-.0544l.013-.0847c.004-.0645-.017-.1048-.061-.1209a.3086.3086 0 00-.163-.0242c-.069.004-.129.006-.182.006-.02 0-.04.0021-.06.0061a.1276.1276 0 01-.042-.0061.0565.0565 0 00-.043-.006.1164.1164 0 01-.036-.0061.0897.0897 0 01-.044-.0391.096.096 0 01-.011-.0576c.006-.0528.014-.1053.025-.1573.004-.0242.008-.0464.012-.0665a.355.355 0 01.03-.0605.0997.0997 0 01.048-.0423.4687.4687 0 01.061-.0303c.012-.004.02-.004.024 0a.0942.0942 0 00.03-.006h1.615a.8478.8478 0 01.103.006.1202.1202 0 01.078.0242zm3.218.0121a.1306.1306 0 01.012.0968c-.004.0363-.01.0766-.018.1209l-.393 1.9656a.9983.9983 0 01-.03.121.2091.2091 0 01-.043.0846.1648.1648 0 01-.061.039.1683.1683 0 01-.072.0094h-.169a.5675.5675 0 00-.079.0061.1331.1331 0 01-.06-.0121.091.091 0 01-.04-.0192.0913.0913 0 01-.027-.0353.6866.6866 0 01-.006-.0907l.018-.1028a.2951.2951 0 01.006-.0423c.004-.0202.008-.0383.012-.0544l.158-.7681.024-.1452a.5952.5952 0 00.018-.133.1982.1982 0 01-.006-.0484.0482.0482 0 00-.004-.0206.0386.0386 0 00-.014-.0157.0367.0367 0 00-.009-.0049.0233.0233 0 00-.009-.0012.3793.3793 0 01-.043.0242 1.0368 1.0368 0 00-.109.1633 2.488 2.488 0 01-.102.1754c-.073.125-.143.252-.212.381-.069.125-.139.248-.212.369a3.9442 3.9442 0 00-.102.1935.4128.4128 0 01-.127.1512.1981.1981 0 01-.085.0302h-.194a.4166.4166 0 00-.054-.0181.1485.1485 0 01-.042-.0303.0907.0907 0 01-.025-.0483l-.012-.0605a.5064.5064 0 01-.024-.1089 1.2554 1.2554 0 00-.018-.1209 5.78 5.78 0 01-.061-.3569 4.903 4.903 0 00-.06-.3628l-.036-.2057a.3508.3508 0 00-.067-.1754.0314.0314 0 00-.01.0012.0203.0203 0 00-.008.0049h-.012a.129.129 0 00-.042.0544.1908.1908 0 00-.025.0605.1287.1287 0 01-.012.0544l-.018.1028a.2142.2142 0 00-.018.0484.152.152 0 00-.006.0424l-.145.7015a3.748 3.748 0 01-.036.1936.3693.3693 0 01-.055.1572.2421.2421 0 00-.036.0302.081.081 0 01-.03.0182.3224.3224 0 01-.073.0181h-.242a.1815.1815 0 01-.121-.0363.0883.0883 0 01-.024-.0357.104.104 0 01-.006-.0429c.004-.0363.01-.0766.018-.1209l.399-1.9958c.008-.0363.016-.0706.024-.1029a.2718.2718 0 01.043-.0846.1316.1316 0 01.043-.0369.1425.1425 0 01.053-.0176c.013-.004.021-.004.025 0a.1.1 0 00.03-.006h.526a.1217.1217 0 01.048.0059c.016.0052.03.0135.043.0243.017.014.03.0315.04.0514a.1546.1546 0 01.014.0635c.008.049.018.0974.03.1452.021.1129.041.2278.061.3447.02.1129.04.2278.06.3447.017.0616.029.1243.037.1875.012.0645.024.127.036.1875a.524.524 0 01.018.0786c.004.0115.01.0218.018.0303a.0758.0758 0 00.031.0181.0464.0464 0 00.054-.0121.2054.2054 0 00.042-.0423.6114.6114 0 00.097-.1391 3.535 3.535 0 01.085-.1512 6.364 6.364 0 00.236-.4052c.076-.1411.157-.2782.241-.4113.033-.0564.065-.1149.097-.1754a.2937.2937 0 01.145-.133.3064.3064 0 01.085-.0121h.436a.1788.1788 0 01.066 0h.03a.2447.2447 0 00.049.0181c.02.0041.032.0121.036.0242z"/><path fill="#DF5A2C" d="M109.978 10.3392a7.961 7.961 0 00-1.797 1.3477l.444 1.25a14.9846 14.9846 0 011.554-1.453c.037-.0314.06-.0485.06-.0485-.019.0177-.041.0308-.06.0485a13.363 13.363 0 00-1.478 1.4889c.809.0602 1.621.078 2.432.0534.43-1.2817.053-1.9521.053-1.9521s-.453-1.0464-1.208-.7349zM107.963 16.8005a.017.017 0 00.007.0003.0174.0174 0 00.006-.0026l-.089-.0049c-.005.0034-.013.0023-.018.0057.033.0007.066.0014.094.0015zM107.033 18.7835zM106.482 19.7729c-.083.0043-.165.0045-.247.0048.041.0019.086.0003.127-.0018.04.0013.08.0003.12-.003z"/><path fill="#DF5A2C" d="M106.482 19.7729c-.083.0043-.165.0045-.247.0048.041.0019.086.0003.127-.0018.04.0013.08.0003.12-.003z" opacity=".35"/><path fill="#DF5A2C" d="M106.839 18.7879c.012.0018.025-.0004.037.0013.053-.0003.107-.0007.157-.0057-.062.0032-.128.0018-.194.0044z"/><path fill="#DF5A2C" d="M106.839 18.7879c.012.0018.025-.0004.037.0013.053-.0003.107-.0007.157-.0057-.062.0032-.128.0018-.194.0044z" opacity=".35"/><path fill="#DF5A2C" d="M106.371 15.6648c.24-.3215.479-.6349.716-.9404.248-.3163.497-.62.749-.915.015-.0183.03-.0366.045-.0509.247-.2876.492-.5632.74-.8262l-.444-1.246c-.053.0497-.109.0988-.166.152a27.168 27.168 0 00-.654.6297c-.255.2537-.516.523-.787.8071-.248.2629-.502.5413-.757.8278-.217.247-.434.498-.652.7571-.01.0108-.015.0183-.025.0291l.567 1.6946c.226-.3073.447-.6151.668-.9189zM101.425 24.0288c-.146.2737-.298.5548-.447.8445-.001.004-.006.0074-.006.0114-.023.0418-.045.0796-.063.122-.103.1941-.19.3699-.396.7661.242.2108.415.4889.498.7987a1.3062 1.3062 0 00-.287-.9482c1.152.2223 2.199.0766 2.837-.6989a3.38 3.38 0 00.164-.222c-.28.2623-.588.3483-1.133.2355l-.004-.0006.004.0006a3.1484 3.1484 0 001.757-1.054 6.115 6.115 0 00.319-.4125 2.5577 2.5577 0 01-1.194.5445 2.56 2.56 0 01-1.308-.1202l-.656-.0226-.085.1557z"/><path fill="#DF5A2C" d="M101.939 22.624c.193-.3406.391-.6846.59-1.0326.192-.3326.389-.6646.59-1 .201-.3354.405-.6703.61-1.0051.211-.3423.424-.6799.642-1.017.213-.3337.434-.6661.65-.9952.079-.1196.157-.2352.241-.3542.136-.2014.276-.4022.416-.6031.006-.0114.016-.0223.021-.0337l-.559-1.6894a.6542.6542 0 01-.05.0584c-.229.2779-.463.5593-.691.8498-.231.294-.46.5926-.685.8998-.19.2592-.375.519-.562.7827-.036.0521-.073.1082-.109.1602-.225.3319-.437.6575-.627.9701-.215.3537-.409.6943-.583 1.0172-.114.213-.222.4185-.321.6172-.082.1683-.16.3413-.238.5102-.182.3998-.344.8025-.489 1.2075l.57 1.7031c.146-.2696.3-.5381.452-.8152.044-.0755.087-.1511.132-.2307z"/><path fill="#DF5A2C" d="M100.765 22.0213c-.175.486-.319.9825-.432 1.4865-.002.016-.009.0355-.011.0516a3.2364 3.2364 0 00-.804-.9256c.38.7691.644 1.513.596 2.1989a2.0634 2.0634 0 01-.99-.3215c.204.2807.476.5054.79.6529a2.5165 2.5165 0 00-1.293.4254 2.5825 2.5825 0 011.468-.0512c-.778 1.4725-1.58 3.1097-2.397 4.8511a.4855.4855 0 00.22-.0876.483.483 0 00.151-.1817c.145-.315 1.117-2.3863 2.554-5.0824.04-.0761.084-.1517.124-.2319.012-.0229.023-.0417.034-.0646.152-.2812.31-.5697.472-.8657.039-.0681.073-.1328.111-.2009l.001-.004-.57-1.7032a.2704.2704 0 00-.024.0539zM105.812 16.7389c-.031.0446-.058.0858-.089.1305-.089.1345-.183.2683-.273.4068-.1.1494-.2.3028-.305.4595-.053.0784-.105.1568-.158.2392-.159.2432-.319.4945-.484.7532a59.386 59.386 0 00-.617.9958c-.2.3274-.406.6703-.614 1.0212-.196.336-.399.6794-.603 1.0389-.182.3177-.366.6475-.554.9847-.011.0148-.018.0343-.028.0492-.184.3337-.374.679-.566 1.0322a.0633.0633 0 00-.011.0229l.657.0226c-.012-.0058-.024-.0076-.039-.0139a4.6413 4.6413 0 002.668-1.0271 6.2624 6.2624 0 001.01-1.0449c.258-.3341.494-.6843.707-1.0483a15.81 15.81 0 00.603-1.117c-.206.0683-.42.1086-.637.1198l-.124.0064c-.041.0021-.082.0003-.127.0018a2.8237 2.8237 0 001.72-1.2481c-.289.1399-.602.226-.922.2541-.05.0049-.104.0053-.157.0057-.012-.0018-.025.0005-.041-.0019.244-.0587.479-.1482.699-.2664.044-.0228.086-.0481.126-.0758.064-.0399.123-.0845.183-.129.038-.0314.074-.0588.112-.0902.087-.0756.168-.1584.241-.2475.025-.0292.049-.0543.07-.0841.031-.0446.062-.0852.088-.1264.13-.186.237-.3548.324-.5059.044-.0756.083-.1437.117-.2084.012-.0269.028-.0492.04-.0761.035-.0728.069-.1375.094-.1953a2.144 2.144 0 00.08-.2057.4301.4301 0 01-.093.0439 3.1399 3.1399 0 01-.936.1743l.604.0229-.604-.0229a.0123.0123 0 00-.006-.0003.0154.0154 0 00-.006.0025.9133.9133 0 00-.095.0025c.005-.0034.013-.0022.017-.0057l-2.063-.0772c.002.0167-.004.0241-.008.0275z"/><path fill="#DF5A2C" d="M108.701 12.9727c-.221.2505-.464.5387-.729.8607a.4727.4727 0 00-.04.0515c-.23.2819-.472.5908-.731.934a42.175 42.175 0 00-.706.9542c-.216.2964-.435.6128-.668.9475l2.063.0773a2.498 2.498 0 001.24-.7119c.083-.0863.166-.1806.25-.279.265-.3046.514-.6225.747-.9523.214-.2978.413-.6067.595-.9254.095-.166.181-.3366.259-.5113.057-.1352.105-.2635.147-.3884-.809.0218-1.619.0029-2.427-.0569zM106.362 19.7799c-.041.0022-.082.0003-.127.0018.042-.0029.084-.0035.127-.0018z"/><path fill="#DF5A2C" d="M106.362 19.7799c-.041.0022-.082.0003-.127.0018.042-.0029.084-.0035.127-.0018z" opacity=".35"/><path fill="#DF5A2C" d="M106.362 19.7799c-.041.0022-.082.0003-.127.0018.042-.0029.084-.0035.127-.0018zM106.836 18.7874c.012.0017.024-.0005.04.0018-.012-.0017-.024.0005-.04-.0018z"/><path fill="#DF5A2C" d="M106.836 18.7874c.012.0017.024-.0005.04.0018-.012-.0017-.024.0005-.04-.0018z" opacity=".35"/><path fill="#DF5A2C" d="M106.836 18.7874c.012.0017.024-.0005.04.0018-.012-.0017-.024.0005-.04-.0018z"/></g></svg>