<svg width="159" height="98" viewBox="0 0 159 98" fill="none" xmlns="http://www.w3.org/2000/svg">
<path d="M61.999 18C44.823 18 30.3986 29.6207 28.0294 44.2069H27.5556C12.4765 44.2069 0 56.7801 0 71.7931C0 86.8062 12.6581 98 26.8667 98H97.8222C112.019 98 124 85.9301 124 71.7931C124 57.9818 113.397 45.5862 99.2 45.5862C98.188 45.5862 97.1904 45.7834 96.1861 45.8874C94.7061 30.5201 79.8316 18.0007 62 18.0007L61.999 18ZM61.999 26.2754C76.4841 26.2754 87.8126 36.9897 88.1349 47.8704C84.1435 49.5407 80.5694 52.0431 77.9736 55.5002C77.0884 56.6856 76.9039 58.2539 77.4872 59.6133C78.0706 60.9728 79.3344 61.9176 80.802 62.0916C82.2706 62.2658 83.7197 61.6423 84.604 60.457C87.5312 56.5604 93.4237 53.8617 99.1996 53.8617C108.557 53.8617 115.733 62.1715 115.733 71.7929C115.733 81.09 107.18 89.7242 97.8223 89.7242H26.8667C16.9352 89.7242 8.26721 82.1656 8.26721 71.7929C8.26721 61.4203 17.1167 52.4831 27.5556 52.4831H31.6892C32.7848 52.4821 33.8362 52.0463 34.6118 51.2708C35.3864 50.4944 35.8218 49.4418 35.8227 48.3449C35.8227 37.3045 47.3055 26.2755 62.0005 26.2755L61.999 26.2754Z" fill="#D2E6F8"/>
<path d="M61.999 26.2754C76.4841 26.2754 87.8126 36.9897 88.1349 47.8704C84.1435 49.5407 80.5694 52.0431 77.9736 55.5002C77.0884 56.6856 76.9039 58.2539 77.4872 59.6133C78.0706 60.9728 79.3344 61.9176 80.802 62.0916C82.2706 62.2658 83.7197 61.6423 84.604 60.457C87.5312 56.5604 93.4237 53.8617 99.1996 53.8617C108.557 53.8617 115.733 62.1715 115.733 71.7929C115.733 81.09 107.18 89.7242 97.8223 89.7242H26.8667C16.9352 89.7242 8.26721 82.1656 8.26721 71.7929C8.26721 61.4203 17.1167 52.4831 27.5556 52.4831H31.6892C32.7848 52.4821 33.8362 52.0463 34.6118 51.2708C35.3864 50.4944 35.8218 49.4418 35.8227 48.3449C35.8227 37.3045 47.3055 26.2755 62.0005 26.2755L61.999 26.2754Z" fill="#D2E6F8"/>
<path d="M96.999 0C79.823 0 65.3986 11.6207 63.0294 26.2069H62.5556C47.4765 26.2069 35 38.7801 35 53.7931C35 68.8062 47.6581 80 61.8667 80H132.822C147.019 80 159 67.9301 159 53.7931C159 39.9818 148.397 27.5862 134.2 27.5862C133.188 27.5862 132.19 27.7834 131.186 27.8874C129.706 12.5201 114.832 0.000665223 97 0.000665223L96.999 0ZM96.999 8.27537C111.484 8.27537 122.813 18.9897 123.135 29.8704C119.144 31.5407 115.569 34.0431 112.974 37.5002C112.088 38.6856 111.904 40.2539 112.487 41.6133C113.071 42.9728 114.334 43.9176 115.802 44.0916C117.271 44.2658 118.72 43.6423 119.604 42.457C122.531 38.5604 128.424 35.8617 134.2 35.8617C143.557 35.8617 150.733 44.1715 150.733 53.7929C150.733 63.09 142.18 71.7242 132.822 71.7242H61.8667C51.9352 71.7242 43.2672 64.1656 43.2672 53.7929C43.2672 43.4203 52.1167 34.4831 62.5556 34.4831H66.6892C67.7848 34.4821 68.8362 34.0463 69.6118 33.2708C70.3864 32.4944 70.8218 31.4418 70.8227 30.3449C70.8227 19.3045 82.3055 8.27547 97.0005 8.27547L96.999 8.27537Z" fill="#D2E6F8"/>
<path fill-rule="evenodd" clip-rule="evenodd" d="M74.2223 39.3277L70.8889 36L66.4369 40.4445L62 36L57.5632 40.4445L53.1111 36L49.7778 39.3277L54.2356 43.7778L49.7987 48.2222L45.3334 43.7645L42 47.0921L46.4711 51.5556L42.0343 56L46.437 60.4102L42 64.8396L45.3334 68.1673L49.7646 63.7436L54.2014 68.188L49.7778 72.6041L53.1111 75.9318L57.5291 71.5214L62 76L66.471 71.5214L70.8889 75.9317L74.2223 72.6041L69.7987 68.188L74.2355 63.7436L78.6667 68.1673L82 64.8396L77.5631 60.4103L81.9658 56L77.529 51.5556L82 47.0922L78.6667 43.7645L74.2013 48.2222L69.7645 43.7778L74.2223 39.3277ZM65.3333 45.9828L62 42.6552L48.6667 55.9658L52 59.2934L65.3333 45.9828ZM68.1282 53.2097L64.7949 49.8821L53.6838 60.9742L57.0171 64.3019L68.1282 53.2097ZM66.4445 58.1842L69.7778 61.5118L62 69.2763L58.6667 65.9487L66.4445 58.1842Z" fill="#5555FF"/>
<path d="M28.3828 91H26.5664V83.9453H24.2402V82.4336H30.709V83.9453H28.3828V91ZM35.543 84.3262C35.6328 84.3262 35.7363 84.332 35.8535 84.3438C35.9746 84.3516 36.0723 84.3633 36.1465 84.3789L36.0117 86.0547C35.9531 86.0352 35.8691 86.0215 35.7598 86.0137C35.6543 86.002 35.5625 85.9961 35.4844 85.9961C35.2539 85.9961 35.0293 86.0254 34.8105 86.084C34.5957 86.1426 34.4023 86.2383 34.2305 86.3711C34.0586 86.5 33.9219 86.6719 33.8203 86.8867C33.7227 87.0977 33.6738 87.3574 33.6738 87.666V91H31.8867V84.4492H33.2402L33.5039 85.5508H33.5918C33.7207 85.3281 33.8809 85.125 34.0723 84.9414C34.2676 84.7539 34.4883 84.6055 34.7344 84.4961C34.9844 84.3828 35.2539 84.3262 35.543 84.3262ZM40.0371 84.3262C40.6426 84.3262 41.1641 84.4434 41.6016 84.6777C42.0391 84.9082 42.377 85.2441 42.6152 85.6855C42.8535 86.127 42.9727 86.666 42.9727 87.3027V88.1699H38.748C38.7676 88.6738 38.918 89.0703 39.1992 89.3594C39.4844 89.6445 39.8789 89.7871 40.3828 89.7871C40.8008 89.7871 41.1836 89.7441 41.5312 89.6582C41.8789 89.5723 42.2363 89.4434 42.6035 89.2715V90.6543C42.2793 90.8145 41.9395 90.9316 41.584 91.0059C41.2324 91.0801 40.8047 91.1172 40.3008 91.1172C39.6445 91.1172 39.0625 90.9961 38.5547 90.7539C38.0508 90.5117 37.6543 90.1426 37.3652 89.6465C37.0801 89.1504 36.9375 88.5254 36.9375 87.7715C36.9375 87.0059 37.0664 86.3691 37.3242 85.8613C37.5859 85.3496 37.9492 84.9668 38.4141 84.7129C38.8789 84.4551 39.4199 84.3262 40.0371 84.3262ZM40.0488 85.5977C39.7012 85.5977 39.4121 85.709 39.1816 85.9316C38.9551 86.1543 38.8242 86.5039 38.7891 86.9805H41.2969C41.293 86.7148 41.2441 86.4785 41.1504 86.2715C41.0605 86.0645 40.9238 85.9004 40.7402 85.7793C40.5605 85.6582 40.3301 85.5977 40.0488 85.5977ZM48.1465 84.3262C48.8457 84.3262 49.4082 84.5176 49.834 84.9004C50.2598 85.2793 50.4727 85.8887 50.4727 86.7285V91H48.6855V87.1738C48.6855 86.7051 48.5996 86.3516 48.4277 86.1133C48.2598 85.875 47.9941 85.7559 47.6309 85.7559C47.084 85.7559 46.7109 85.9414 46.5117 86.3125C46.3125 86.6836 46.2129 87.2188 46.2129 87.918V91H44.4258V84.4492H45.791L46.0312 85.2871H46.1309C46.2715 85.0605 46.4453 84.877 46.6523 84.7363C46.8633 84.5957 47.0957 84.4922 47.3496 84.4258C47.6074 84.3594 47.873 84.3262 48.1465 84.3262ZM54.3867 91.1172C53.6562 91.1172 53.0605 90.832 52.5996 90.2617C52.1426 89.6875 51.9141 88.8457 51.9141 87.7363C51.9141 86.6152 52.1465 85.7676 52.6113 85.1934C53.0762 84.6152 53.6836 84.3262 54.4336 84.3262C54.7461 84.3262 55.0215 84.3691 55.2598 84.4551C55.498 84.541 55.7031 84.6562 55.875 84.8008C56.0508 84.9453 56.1992 85.1074 56.3203 85.2871H56.3789C56.3555 85.1621 56.3262 84.9785 56.291 84.7363C56.2598 84.4902 56.2441 84.2383 56.2441 83.9805V81.8828H58.0371V91H56.666L56.3203 90.1504H56.2441C56.1309 90.3301 55.9883 90.4941 55.8164 90.6426C55.6484 90.7871 55.4473 90.9023 55.2129 90.9883C54.9785 91.0742 54.7031 91.1172 54.3867 91.1172ZM55.0137 89.6934C55.502 89.6934 55.8457 89.5488 56.0449 89.2598C56.248 88.9668 56.3555 88.5273 56.3672 87.9414V87.748C56.3672 87.1113 56.2695 86.625 56.0742 86.2891C55.8789 85.9492 55.5156 85.7793 54.9844 85.7793C54.5898 85.7793 54.2812 85.9492 54.0586 86.2891C53.8359 86.6289 53.7246 87.1191 53.7246 87.7598C53.7246 88.4004 53.8359 88.8828 54.0586 89.207C54.2852 89.5312 54.6035 89.6934 55.0137 89.6934ZM64.4648 91H59.291V89.9453L62.3262 85.8145H59.4727V84.4492H64.3594V85.6094L61.4062 89.6348H64.4648V91ZM72.6621 83.8223C72.3145 83.8223 72.0059 83.8906 71.7363 84.0273C71.4707 84.1602 71.2461 84.3535 71.0625 84.6074C70.8828 84.8613 70.7461 85.168 70.6523 85.5273C70.5586 85.8867 70.5117 86.291 70.5117 86.7402C70.5117 87.3457 70.5859 87.8633 70.7344 88.293C70.8867 88.7188 71.1211 89.0449 71.4375 89.2715C71.7539 89.4941 72.1621 89.6055 72.6621 89.6055C73.0098 89.6055 73.3574 89.5664 73.7051 89.4883C74.0566 89.4102 74.4375 89.2988 74.8477 89.1543V90.6777C74.4688 90.834 74.0957 90.9453 73.7285 91.0117C73.3613 91.082 72.9492 91.1172 72.4922 91.1172C71.6094 91.1172 70.8828 90.9355 70.3125 90.5723C69.7461 90.2051 69.3262 89.6934 69.0527 89.0371C68.7793 88.377 68.6426 87.6074 68.6426 86.7285C68.6426 86.0801 68.7305 85.4863 68.9062 84.9473C69.082 84.4082 69.3398 83.9414 69.6797 83.5469C70.0195 83.1523 70.4395 82.8477 70.9395 82.6328C71.4395 82.418 72.0137 82.3105 72.6621 82.3105C73.0879 82.3105 73.5137 82.3652 73.9395 82.4746C74.3691 82.5801 74.7793 82.7266 75.1699 82.9141L74.584 84.3906C74.2637 84.2383 73.9414 84.1055 73.6172 83.9922C73.293 83.8789 72.9746 83.8223 72.6621 83.8223ZM78.3223 91H76.5352V81.8828H78.3223V91ZM86.1562 87.7129C86.1562 88.2598 86.082 88.7441 85.9336 89.166C85.7891 89.5879 85.5762 89.9453 85.2949 90.2383C85.0176 90.5273 84.6816 90.7461 84.2871 90.8945C83.8965 91.043 83.4551 91.1172 82.9629 91.1172C82.502 91.1172 82.0781 91.043 81.6914 90.8945C81.3086 90.7461 80.9746 90.5273 80.6895 90.2383C80.4082 89.9453 80.1895 89.5879 80.0332 89.166C79.8809 88.7441 79.8047 88.2598 79.8047 87.7129C79.8047 86.9863 79.9336 86.3711 80.1914 85.8672C80.4492 85.3633 80.8164 84.9805 81.293 84.7188C81.7695 84.457 82.3379 84.3262 82.998 84.3262C83.6113 84.3262 84.1543 84.457 84.627 84.7188C85.1035 84.9805 85.4766 85.3633 85.7461 85.8672C86.0195 86.3711 86.1562 86.9863 86.1562 87.7129ZM81.627 87.7129C81.627 88.1426 81.6738 88.5039 81.7676 88.7969C81.8613 89.0898 82.0078 89.3105 82.207 89.459C82.4062 89.6074 82.666 89.6816 82.9863 89.6816C83.3027 89.6816 83.5586 89.6074 83.7539 89.459C83.9531 89.3105 84.0977 89.0898 84.1875 88.7969C84.2812 88.5039 84.3281 88.1426 84.3281 87.7129C84.3281 87.2793 84.2812 86.9199 84.1875 86.6348C84.0977 86.3457 83.9531 86.1289 83.7539 85.9844C83.5547 85.8398 83.2949 85.7676 82.9746 85.7676C82.502 85.7676 82.1582 85.9297 81.9434 86.2539C81.7324 86.5781 81.627 87.0645 81.627 87.7129ZM93.6445 84.4492V91H92.2734L92.0332 90.1621H91.9395C91.7988 90.3848 91.623 90.5664 91.4121 90.707C91.2012 90.8477 90.9688 90.9512 90.7148 91.0176C90.4609 91.084 90.1973 91.1172 89.9238 91.1172C89.4551 91.1172 89.0469 91.0352 88.6992 90.8711C88.3516 90.7031 88.0801 90.4434 87.8848 90.0918C87.6934 89.7402 87.5977 89.2832 87.5977 88.7207V84.4492H89.3848V88.2754C89.3848 88.7441 89.4688 89.0977 89.6367 89.3359C89.8047 89.5742 90.0723 89.6934 90.4395 89.6934C90.8027 89.6934 91.0879 89.6113 91.2949 89.4473C91.502 89.2793 91.6465 89.0352 91.7285 88.7148C91.8145 88.3906 91.8574 87.9961 91.8574 87.5312V84.4492H93.6445ZM97.5938 91.1172C96.8633 91.1172 96.2676 90.832 95.8066 90.2617C95.3496 89.6875 95.1211 88.8457 95.1211 87.7363C95.1211 86.6152 95.3535 85.7676 95.8184 85.1934C96.2832 84.6152 96.8906 84.3262 97.6406 84.3262C97.9531 84.3262 98.2285 84.3691 98.4668 84.4551C98.7051 84.541 98.9102 84.6562 99.082 84.8008C99.2578 84.9453 99.4062 85.1074 99.5273 85.2871H99.5859C99.5625 85.1621 99.5332 84.9785 99.498 84.7363C99.4668 84.4902 99.4512 84.2383 99.4512 83.9805V81.8828H101.244V91H99.873L99.5273 90.1504H99.4512C99.3379 90.3301 99.1953 90.4941 99.0234 90.6426C98.8555 90.7871 98.6543 90.9023 98.4199 90.9883C98.1855 91.0742 97.9102 91.1172 97.5938 91.1172ZM98.2207 89.6934C98.709 89.6934 99.0527 89.5488 99.252 89.2598C99.4551 88.9668 99.5625 88.5273 99.5742 87.9414V87.748C99.5742 87.1113 99.4766 86.625 99.2812 86.2891C99.0859 85.9492 98.7227 85.7793 98.1914 85.7793C97.7969 85.7793 97.4883 85.9492 97.2656 86.2891C97.043 86.6289 96.9316 87.1191 96.9316 87.7598C96.9316 88.4004 97.043 88.8828 97.2656 89.207C97.4922 89.5312 97.8105 89.6934 98.2207 89.6934Z" fill="#5555FF"/>
</svg>
