<svg xmlns="http://www.w3.org/2000/svg" fill="none" viewBox="0 0 140 32"><defs/><path fill="#000" d="M16.757 30.364c-.851.213-1.975.44-3.371.678-1.396.24-3.012.36-4.848.36-1.596 0-2.94-.234-4.03-.699-1.09-.465-1.968-1.123-2.633-1.975C1.21 27.877.731 26.873.44 25.716.146 24.559 0 23.276 0 21.866v-11.65h3.71v10.851c0 2.528.4 4.337 1.197 5.427.798 1.09 2.141 1.636 4.03 1.636.4 0 .811-.014 1.237-.04.425-.027.824-.06 1.197-.1a44.8 44.8 0 001.017-.12c.306-.04.525-.086.659-.14V10.216h3.71v20.149zM25.814 11.133c.452-.292 1.137-.598 2.055-.917.917-.32 1.974-.48 3.172-.48 1.489 0 2.812.267 3.97.798a8.253 8.253 0 012.932 2.235c.798.957 1.403 2.101 1.815 3.431.412 1.33.619 2.793.619 4.389 0 1.676-.247 3.186-.739 4.529s-1.19 2.48-2.094 3.41c-.905.932-1.995 1.65-3.272 2.155-1.277.505-2.713.758-4.31.758-1.728 0-3.258-.12-4.587-.359-1.33-.239-2.421-.478-3.272-.718V.64l3.71-.638v11.132zm0 16.598c.372.106.897.206 1.576.299.678.093 1.522.14 2.533.14 1.995 0 3.591-.66 4.788-1.976 1.197-1.316 1.796-3.185 1.796-5.605 0-1.063-.107-2.06-.32-2.993-.213-.93-.558-1.735-1.037-2.413a5.025 5.025 0 00-1.855-1.597c-.758-.385-1.67-.578-2.733-.578-1.012 0-1.942.173-2.793.519-.852.346-1.503.705-1.955 1.077V27.73zM61.084 30.364c-.852.213-1.976.44-3.372.678-1.396.24-3.012.36-4.848.36-1.596 0-2.94-.234-4.03-.699-1.09-.465-1.968-1.123-2.633-1.975-.665-.851-1.144-1.855-1.436-3.012-.293-1.157-.44-2.44-.44-3.85v-11.65h3.712v10.851c0 2.528.399 4.337 1.197 5.427.798 1.09 2.14 1.636 4.03 1.636.398 0 .81-.014 1.236-.04.425-.027.824-.06 1.197-.1.372-.04.712-.08 1.017-.12.306-.04.526-.086.659-.14V10.216h3.71v20.149zM66.43 10.814c.85-.213 1.98-.44 3.39-.679 1.41-.239 3.033-.358 4.868-.358 1.65 0 3.019.233 4.11.698 1.09.466 1.961 1.117 2.613 1.955.651.837 1.11 1.842 1.377 3.012.266 1.171.399 2.46.399 3.87v11.65h-3.71V20.11c0-1.276-.088-2.367-.26-3.272-.174-.903-.459-1.635-.858-2.194a3.397 3.397 0 00-1.596-1.217c-.666-.252-1.49-.379-2.474-.379-.398 0-.812.014-1.236.04-.426.027-.832.06-1.217.1-.387.04-.732.087-1.038.14a39.31 39.31 0 00-.658.12v17.514h-3.71V10.814zM91.765 10.216h7.86v3.112h-7.86v9.575c0 1.037.079 1.895.24 2.573.159.68.398 1.21.717 1.596.32.386.718.659 1.197.818.479.16 1.037.24 1.676.24 1.143 0 2.048-.126 2.713-.38a32.415 32.415 0 001.356-.538l.798 3.033c-.373.186-1.031.425-1.975.717-.944.293-2.014.44-3.212.44-1.41 0-2.573-.18-3.49-.54-.918-.359-1.657-.897-2.215-1.615-.558-.718-.951-1.602-1.177-2.653-.226-1.05-.34-2.268-.34-3.651V4.43l3.712-.638v6.424zM119.813 30.364c-.852.213-1.975.44-3.372.678-1.396.24-3.012.36-4.847.36-1.596 0-2.94-.234-4.03-.699-1.091-.465-1.969-1.123-2.634-1.975-.665-.851-1.144-1.855-1.436-3.012-.293-1.157-.439-2.44-.439-3.85v-11.65h3.711v10.851c0 2.528.399 4.337 1.196 5.427.799 1.09 2.141 1.636 4.031 1.636.398 0 .811-.014 1.236-.04.425-.027.824-.06 1.197-.1.373-.04.711-.08 1.018-.12.305-.04.525-.086.658-.14V10.216h3.711v20.149z"/><path fill="#E95420" d="M131.621 16.758a8.379 8.379 0 100-16.758 8.38 8.38 0 000 16.758z"/><path fill="#fff" d="M127.273 8.379a1.077 1.077 0 11-2.154 0 1.077 1.077 0 012.154 0zm6.129 5.238a1.077 1.077 0 101.865-1.077 1.077 1.077 0 00-1.865 1.077zm1.865-9.399a1.077 1.077 0 10-1.865-1.077 1.077 1.077 0 001.865 1.077zm-3.646 1.089a3.07 3.07 0 013.06 2.8l1.559-.025a4.606 4.606 0 00-1.359-2.988 1.513 1.513 0 01-2.044-1.182 4.638 4.638 0 00-3.269.318l.759 1.362a3.065 3.065 0 011.294-.285zm-3.072 3.072c0-1.04.516-1.958 1.306-2.514l-.8-1.338a4.634 4.634 0 00-1.909 2.67 1.516 1.516 0 010 2.363 4.635 4.635 0 001.909 2.671l.8-1.338a3.068 3.068 0 01-1.306-2.514zm3.072 3.072a3.06 3.06 0 01-1.294-.285l-.759 1.362a4.63 4.63 0 003.268.318 1.515 1.515 0 012.045-1.182 4.618 4.618 0 001.359-2.988l-1.559-.025a3.071 3.071 0 01-3.06 2.8z"/></svg>