<svg width="36" height="36" viewBox="0 0 36 36" fill="none" xmlns="http://www.w3.org/2000/svg">
<path d="M17.7241 36C22.498 36 27.0763 34.1036 30.452 30.7279C33.8276 27.3523 35.7241 22.7739 35.7241 18C35.7241 13.2261 33.8276 8.64773 30.452 5.27208C27.0763 1.89642 22.498 0 17.7241 0C12.9983 0.0730132 8.49085 2.00155 5.17476 5.36927C1.85868 8.73698 0 13.2737 0 18C0 22.7263 1.85868 27.263 5.17476 30.6307C8.49085 33.9984 12.9983 35.927 17.7241 36Z" fill="#E95420"/>
<path d="M8.37728 17.9987C8.37728 18.3026 8.31743 18.6034 8.20116 18.8841C8.08489 19.1648 7.91447 19.4199 7.69963 19.6347C7.48479 19.8496 7.22972 20.02 6.94902 20.1363C6.66832 20.2525 6.36746 20.3124 6.06363 20.3124C5.7598 20.3124 5.45895 20.2525 5.17825 20.1363C4.89754 20.02 4.64249 19.8496 4.42765 19.6347C4.21281 19.4199 4.04238 19.1648 3.92611 18.8841C3.80984 18.6034 3.75 18.3026 3.75 17.9987C3.75 17.3851 3.99376 16.7966 4.42765 16.3627C4.86154 15.9289 5.45002 15.6851 6.06363 15.6851C6.67725 15.6851 7.26574 15.9289 7.69963 16.3627C8.13353 16.7966 8.37728 17.3851 8.37728 17.9987ZM21.5437 29.2512C21.6926 29.5201 21.8935 29.7568 22.1348 29.9472C22.3761 30.1377 22.6529 30.2781 22.9491 30.3604C23.2453 30.4426 23.555 30.465 23.8599 30.4263C24.1649 30.3875 24.459 30.2884 24.7252 30.1347C24.9915 29.9809 25.2243 29.7757 25.4103 29.5309C25.5963 29.2862 25.7317 29.0068 25.8085 28.7092C25.8853 28.4115 25.902 28.1015 25.8576 27.7973C25.8133 27.4932 25.7088 27.2008 25.5502 26.9375C25.2374 26.4182 24.7333 26.0423 24.1463 25.8908C23.5593 25.7394 22.9362 25.8244 22.4112 26.1275C21.8862 26.4307 21.5012 26.9279 21.3389 27.512C21.1767 28.0962 21.2502 28.7207 21.5437 29.2512ZM25.5502 9.05996C25.7088 8.79662 25.8133 8.50432 25.8576 8.20013C25.902 7.89594 25.8853 7.58596 25.8085 7.28831C25.7317 6.99065 25.5963 6.71129 25.4103 6.46653C25.2243 6.22178 24.9915 6.01654 24.7252 5.86282C24.459 5.70909 24.1649 5.60995 23.8599 5.5712C23.555 5.53244 23.2453 5.55484 22.9491 5.6371C22.6529 5.71935 22.3761 5.85981 22.1348 6.05026C21.8935 6.24071 21.6926 6.47734 21.5437 6.74632C21.2502 7.2768 21.1767 7.90129 21.3389 8.48545C21.5012 9.06961 21.8862 9.56675 22.4112 9.86994C22.9362 10.1731 23.5593 10.2581 24.1463 10.1066C24.7333 9.95516 25.2374 9.57932 25.5502 9.05996ZM17.7178 11.3994C19.3672 11.3984 20.9571 12.0154 22.174 13.1289C23.3908 14.2424 24.1463 15.7714 24.2913 17.4144L27.6404 17.3607C27.4886 14.9352 26.4494 12.6503 24.721 10.9418C24.2671 11.1183 23.7795 11.1905 23.294 11.1532C22.8085 11.1159 22.3376 10.9699 21.916 10.7262C21.4945 10.4824 21.1331 10.147 20.8586 9.74486C20.5841 9.34269 20.4035 8.88397 20.33 8.4026C17.9842 7.7661 15.4866 8.00906 13.3074 9.08574L14.938 12.0116C15.8088 11.6073 16.7576 11.3983 17.7178 11.3994ZM11.1184 17.9987C11.1184 15.7646 12.2269 13.7925 13.924 12.5981L12.2054 9.72376C10.1844 11.0713 8.72588 13.1113 8.10446 15.4595C8.48407 15.7647 8.79038 16.1512 9.00084 16.5904C9.21131 17.0297 9.32056 17.5106 9.32056 17.9977C9.32056 18.4847 9.21131 18.9656 9.00084 19.4049C8.79038 19.8441 8.48407 20.2306 8.10446 20.5358C8.72559 22.8847 10.1841 24.9255 12.2054 26.2737L13.924 23.3994C13.0567 22.7909 12.3489 21.9824 11.8605 21.0423C11.3721 20.1022 11.1176 19.0581 11.1184 17.9987ZM17.7178 24.5981C16.7576 24.5995 15.8087 24.3905 14.938 23.9858L13.3074 26.9117C15.4855 27.9894 17.9829 28.2324 20.3279 27.5949C20.402 27.1136 20.5831 26.6551 20.8579 26.2532C21.1328 25.8512 21.4943 25.5161 21.9159 25.2724C22.3375 25.0287 22.8083 24.8828 23.2938 24.8453C23.7793 24.8077 24.267 24.8796 24.721 25.0557C26.4474 23.3458 27.4862 21.0617 27.6404 18.6368L24.2913 18.5831C24.1458 20.2259 23.3902 21.7546 22.1734 22.868C20.9567 23.9814 19.367 24.5986 17.7178 24.5981Z" fill="white"/>
</svg>
