<svg xmlns="http://www.w3.org/2000/svg" fill="none" viewBox="0 0 140 32"><defs/><path fill="#0078D6" d="M63.585 6.546l-5.13 18.158h-2.493l-3.736-13.27a8.296 8.296 0 01-.291-1.849h-.05a9.396 9.396 0 01-.33 1.824l-3.76 13.295h-2.47L40.007 6.546h2.342l3.862 13.929c.16.582.262 1.19.304 1.823h.064c.042-.447.172-1.055.392-1.823l4.014-13.93h2.039l3.85 14.031c.134.481.235 1.047.303 1.697h.05c.034-.438.148-1.02.343-1.747l3.71-13.98h2.305zM66.445 8.445c-.372 0-.688-.127-.95-.38a1.282 1.282 0 01-.392-.963c0-.387.131-.711.392-.97.262-.256.578-.385.95-.385.38 0 .702.13.97.386.264.258.398.58.398.97 0 .371-.134.687-.399.949a1.33 1.33 0 01-.97.393zm1.013 16.26H65.38V11.737h2.077v12.966zM81.414 24.704h-2.076V17.31c0-2.752-1.005-4.128-3.014-4.128-1.038 0-1.898.39-2.577 1.171-.68.781-1.02 1.767-1.02 2.957v7.394H70.65V11.738h2.077v2.152h.05c.98-1.638 2.398-2.456 4.255-2.456 1.419 0 2.503.458 3.255 1.373.752.916 1.127 2.24 1.127 3.97v7.927zM96.188 24.704H94.11v-2.203h-.05c-.963 1.671-2.45 2.507-4.458 2.507-1.63 0-2.931-.58-3.906-1.741-.975-1.16-1.463-2.742-1.463-4.742 0-2.145.54-3.863 1.621-5.154 1.08-1.292 2.52-1.937 4.318-1.937 1.781 0 3.077.7 3.888 2.102h.05V5.508h2.077v19.196zm-2.076-5.862V16.93c0-1.047-.347-1.933-1.038-2.66-.693-.725-1.57-1.089-2.635-1.089-1.266 0-2.262.465-2.988 1.393-.726.93-1.09 2.212-1.09 3.85 0 1.494.35 2.673 1.046 3.538.695.866 1.63 1.298 2.804 1.298 1.157 0 2.096-.417 2.818-1.254.721-.834 1.083-1.89 1.083-3.164zM105.266 25.008c-1.917 0-3.446-.605-4.59-1.817-1.144-1.211-1.716-2.818-1.716-4.818 0-2.178.595-3.88 1.786-5.103 1.189-1.224 2.798-1.837 4.825-1.837 1.932 0 3.442.595 4.526 1.786 1.085 1.189 1.627 2.84 1.627 4.95 0 2.07-.584 3.726-1.754 4.971-1.169 1.246-2.737 1.868-4.704 1.868zm.152-11.827c-1.335 0-2.39.453-3.165 1.361-.778.909-1.165 2.16-1.165 3.755 0 1.536.392 2.747 1.178 3.634.785.885 1.836 1.33 3.153 1.33 1.342 0 2.374-.436 3.096-1.306.722-.869 1.083-2.105 1.083-3.71 0-1.62-.361-2.87-1.083-3.748-.722-.877-1.754-1.316-3.097-1.316zM130.439 11.738l-3.887 12.966h-2.154l-2.671-9.282a6.018 6.018 0 01-.202-1.202h-.05c-.026.304-.115.695-.266 1.178l-2.9 9.307h-2.077l-3.925-12.967h2.177l2.684 9.75c.084.296.143.684.177 1.165h.102a5.41 5.41 0 01.228-1.19l2.988-9.725h1.899l2.685 9.775c.083.313.147.701.19 1.165h.102c.016-.33.088-.717.215-1.165l2.634-9.775h2.051zM131.401 24.235v-2.229c1.131.837 2.376 1.254 3.735 1.254 1.824 0 2.735-.607 2.735-1.823 0-.346-.078-.64-.233-.88a2.345 2.345 0 00-.633-.64 4.915 4.915 0 00-.937-.5 68.325 68.325 0 00-1.158-.463 14.683 14.683 0 01-1.513-.69 4.564 4.564 0 01-1.09-.785 2.923 2.923 0 01-.658-.995c-.148-.371-.222-.805-.222-1.304 0-.608.139-1.146.417-1.614.28-.47.651-.862 1.115-1.179a5.203 5.203 0 011.59-.715 7.05 7.05 0 011.841-.24c1.123 0 2.127.194 3.014.582v2.102c-.955-.625-2.052-.937-3.293-.937a3.83 3.83 0 00-1.05.133c-.313.088-.58.213-.804.373-.224.161-.397.353-.519.576a1.516 1.516 0 00-.184.741c0 .338.061.62.184.85.122.227.302.43.538.607.237.176.524.337.861.48.339.144.722.3 1.154.47.572.22 1.088.445 1.544.676.456.232.844.495 1.165.786.321.292.567.627.741 1.006.172.38.259.832.259 1.355 0 .642-.14 1.2-.424 1.672-.283.473-.66.865-1.133 1.177a5.18 5.18 0 01-1.634.697 8.05 8.05 0 01-1.936.228c-1.336.002-2.493-.256-3.472-.77zM13.71 14.982h17.208V0L13.709 2.511v12.47zM12.496 14.981V2.687L0 4.51v10.471h12.496zM12.496 16.194H0v10.604l12.496 1.844V16.194zM13.71 16.194V28.82l17.208 2.539V16.194H13.709z"/></svg>