<svg width="336" height="292" fill="none" xmlns="http://www.w3.org/2000/svg"><rect x="176.75" y="132.344" width="158.5" height="158.5" rx="39.25" fill="#F4F8FE" stroke="#3E9AF8" stroke-width="1.5"/><path d="M298.5 256.344h-85c-.69 0-1.25-.56-1.25-1.25v-46.356c0-.343.141-.67.39-.907l42.5-40.326a1.248 1.248 0 0 1 1.72 0l42.5 40.326c.249.237.39.564.39.907v46.356c0 .69-.56 1.25-1.25 1.25Z" fill="#fff" stroke="#1A1A1A" stroke-width=".5"/><rect x="228.25" y="208.844" width="7.5" height="15.75" rx=".25" fill="#999" stroke="#1A1A1A" stroke-width=".5"/><rect x="261.25" y="208.844" width="7.5" height="15.75" rx=".25" fill="#999" stroke="#1A1A1A" stroke-width=".5"/><rect x="261.25" y="233.594" width="7.5" height="15.75" rx=".25" fill="#999" stroke="#1A1A1A" stroke-width=".5"/><rect x="228.25" y="233.594" width="16" height="22.75" rx=".25" fill="#999" stroke="#1A1A1A" stroke-width=".5"/><rect x="236.75" y="208.844" width="7.5" height="15.75" rx=".25" fill="#999" stroke="#1A1A1A" stroke-width=".5"/><rect x="269.75" y="208.844" width="7.5" height="15.75" rx=".25" fill="#999" stroke="#1A1A1A" stroke-width=".5"/><rect x="269.75" y="233.594" width="7.5" height="15.75" rx=".25" fill="#999" stroke="#1A1A1A" stroke-width=".5"/><rect x="278.25" y="208.844" width="7.5" height="15.75" rx=".25" fill="#999" stroke="#1A1A1A" stroke-width=".5"/><rect x="278.25" y="233.594" width="7.5" height="15.75" rx=".25" fill="#999" stroke="#1A1A1A" stroke-width=".5"/><path d="M277.75 177.094c0-.691.56-1.25 1.25-1.25h13.625c.69 0 1.25.559 1.25 1.25v21.52c0 1.08-1.278 1.652-2.083.931l-13.625-12.19a1.247 1.247 0 0 1-.417-.932v-9.329Z" fill="#fff" stroke="#1A1A1A" stroke-width=".5"/><path d="M213.414 208.344h-6.142a.25.25 0 0 1-.17-.433l48.387-45.001a.75.75 0 0 1 1.022 0l48.387 45.001a.25.25 0 0 1-.17.433h-6.142a1.25 1.25 0 0 1-.847-.332l-41.23-38.039a.751.751 0 0 0-1.018 0l-41.23 38.039a1.25 1.25 0 0 1-.847.332Z" fill="#fff" stroke="#1A1A1A" stroke-width=".5"/><path d="m256.174 188.11 6.765 6.554a.25.25 0 0 1-.174.43h-13.53a.25.25 0 0 1-.174-.43l6.765-6.554a.25.25 0 0 1 .348 0Z" fill="#999" stroke="#1A1A1A" stroke-width=".5"/><rect x="206.25" y="256.344" width="99.5" height="5.5" rx="1.25" fill="#fff" stroke="#1A1A1A" stroke-width=".5"/><rect x="96.75" y="1.156" width="158.5" height="158.5" rx="39.25" fill="#F4F8FE" stroke="#3E9AF8" stroke-width="1.5"/><g clip-path="url(#a)" stroke="#1A1A1A" stroke-width=".4"><path d="M120.2 88.63c0-.28.119-.55.327-.739l20.8-18.91a1 1 0 0 1 1.346 0l20.8 18.91c.208.19.327.458.327.74V114.9a1 1 0 0 1-1 1h-41.6a1 1 0 0 1-1-1V88.63Z" fill="#fff"/><path d="m142.136 68.753-.136-.125-.136.125L119.388 89.5h-2.876L142 65.972 167.488 89.5h-2.876l-22.476-20.747Z" fill="#fff"/><rect x="127.2" y="101.9" width="8.8" height="14" rx=".2" fill="#999"/><path d="M132 88.5c0-.11.09-.2.2-.2h3.6a.2.2 0 0 1 .2.2v8.8a.2.2 0 0 1-.2.2h-3.6a.2.2 0 0 1-.2-.2v-8.8ZM150 88.5c0-.11.09-.2.2-.2h3.6a.2.2 0 0 1 .2.2v8.8a.2.2 0 0 1-.2.2h-3.6a.2.2 0 0 1-.2-.2v-8.8ZM150 102.1c0-.11.09-.2.2-.2h3.6a.2.2 0 0 1 .2.2v8.8a.2.2 0 0 1-.2.2h-3.6a.2.2 0 0 1-.2-.2v-8.8ZM127.2 88.5c0-.11.09-.2.2-.2h3.6c.11 0 .2.09.2.2v8.8a.2.2 0 0 1-.2.2h-3.6a.2.2 0 0 1-.2-.2v-8.8ZM145.2 88.5c0-.11.09-.2.2-.2h3.6c.11 0 .2.09.2.2v8.8a.2.2 0 0 1-.2.2h-3.6a.2.2 0 0 1-.2-.2v-8.8ZM145.2 102.1c0-.11.09-.2.2-.2h3.6c.11 0 .2.09.2.2v8.8a.2.2 0 0 1-.2.2h-3.6a.2.2 0 0 1-.2-.2v-8.8Z" fill="#999"/><rect x="154.8" y="97.5" width="9.2" height="4" rx=".2" transform="rotate(-90 154.8 97.5)" fill="#999"/><rect x="154.8" y="111.1" width="9.2" height="4" rx=".2" transform="rotate(-90 154.8 111.1)" fill="#999"/><path d="M141.851 76.164a.2.2 0 0 1 .298 0l2.702 3.002a.2.2 0 0 1-.149.334h-5.404a.2.2 0 0 1-.148-.334l2.701-3.002ZM219.976 44.488a.2.2 0 0 1 .2-.188h6.048a.2.2 0 0 1 .2.188l1.95 31.2a.2.2 0 0 1-.2.212h-9.948a.2.2 0 0 1-.2-.212l1.95-31.2Z" fill="#999"/><path d="M201 75.7v.361l.306-.191 12.188-7.618-.106-.168.106.168a.2.2 0 0 1 .306.17V75.9h17a1 1 0 0 1 1 1v38a1 1 0 0 1-1 1h-43.4a1 1 0 0 1-1-1V75.94a.2.2 0 0 1 .106-.176l-.094-.177.094.177 14.2-7.574a.2.2 0 0 1 .294.177V75.7Z" fill="#fff"/><rect x="201.8" y="87.7" width="7.6" height="7.6" rx=".2" fill="#999"/><rect x="193" y="87.7" width="7.6" height="7.6" rx=".2" fill="#999"/><rect x="201.8" y="96.5" width="7.6" height="7.6" rx=".2" fill="#999"/><rect x="193" y="96.5" width="7.6" height="7.6" rx=".2" fill="#999"/><rect x="210.6" y="87.7" width="7.6" height="7.6" rx=".2" fill="#999"/><rect x="210.6" y="96.5" width="7.6" height="7.6" rx=".2" fill="#999"/><rect x="219.4" y="87.7" width="7.6" height="7.6" rx=".2" fill="#999"/><rect x="219.4" y="96.5" width="7.6" height="7.6" rx=".2" fill="#999"/><path d="M154 41.7a1 1 0 0 1 1-1h42a1 1 0 0 1 1 1v73.2a1 1 0 0 1-1 1h-42a1 1 0 0 1-1-1V41.7Z" fill="#fff"/><rect x="176.8" y="51.9" width="17.2" height="7.2" rx=".2" fill="#999"/><rect x="176.8" y="73.5" width="17.2" height="7.2" rx=".2" fill="#999"/><rect x="176.8" y="62.7" width="17.2" height="7.2" rx=".2" fill="#999"/><rect x="176.8" y="84.3" width="17.2" height="7.2" rx=".2" fill="#999"/><rect x="158" y="51.9" width="17.2" height="7.2" rx=".2" fill="#999"/><rect x="158" y="73.5" width="17.2" height="7.2" rx=".2" fill="#999"/><rect x="158" y="62.7" width="17.2" height="7.2" rx=".2" fill="#999"/><rect x="158" y="84.3" width="17.2" height="7.2" rx=".2" fill="#999"/><rect x="166.2" y="97.7" width="19.6" height="18.2" rx=".2" fill="#999"/><rect x="116.2" y="115.9" width="119.6" height="4.4" rx="1" fill="#fff"/></g><rect x=".75" y="79.844" width="158.5" height="158.5" rx="39.25" fill="#F4F8FE" stroke="#3E9AF8" stroke-width="1.5"/><path d="M26.594 130.291c0-.839.68-1.518 1.518-1.518H91.9c.839 0 1.519.679 1.519 1.518v80.798c0 .839-.68 1.519-1.519 1.519H28.112c-.838 0-1.518-.68-1.518-1.519v-80.798Z" fill="#fff" stroke="#1A1A1A" stroke-width=".608"/><rect x="62.436" y="142.441" width="26.122" height="10.935" rx=".304" fill="#999" stroke="#1A1A1A" stroke-width=".608"/><rect x="62.436" y="175.246" width="26.122" height="10.935" rx=".304" fill="#999" stroke="#1A1A1A" stroke-width=".608"/><rect x="62.436" y="158.844" width="26.122" height="10.935" rx=".304" fill="#999" stroke="#1A1A1A" stroke-width=".608"/><rect x="62.436" y="191.649" width="26.122" height="10.935" rx=".304" fill="#999" stroke="#1A1A1A" stroke-width=".608"/><path d="M66.081 99.916c0-.838.68-1.519 1.519-1.519h63.787c.839 0 1.519.68 1.519 1.52v111.172c0 .839-.68 1.519-1.519 1.519H67.6c-.839 0-1.519-.68-1.519-1.519V99.916Z" fill="#fff" stroke="#1A1A1A" stroke-width=".608"/><rect x="100.709" y="115.407" width="26.122" height="10.935" rx=".304" fill="#999" stroke="#1A1A1A" stroke-width=".608"/><rect x="100.709" y="148.212" width="26.122" height="10.935" rx=".304" fill="#999" stroke="#1A1A1A" stroke-width=".608"/><rect x="100.709" y="131.81" width="26.122" height="10.935" rx=".304" fill="#999" stroke="#1A1A1A" stroke-width=".608"/><rect x="100.709" y="164.615" width="26.122" height="10.935" rx=".304" fill="#999" stroke="#1A1A1A" stroke-width=".608"/><rect x="72.156" y="115.407" width="26.122" height="10.935" rx=".304" fill="#999" stroke="#1A1A1A" stroke-width=".608"/><rect x="72.156" y="148.212" width="26.122" height="10.935" rx=".304" fill="#999" stroke="#1A1A1A" stroke-width=".608"/><rect x="72.156" y="131.81" width="26.122" height="10.935" rx=".304" fill="#999" stroke="#1A1A1A" stroke-width=".608"/><rect x="72.156" y="164.615" width="26.122" height="10.935" rx=".304" fill="#999" stroke="#1A1A1A" stroke-width=".608"/><rect x="84.61" y="184.966" width="29.767" height="27.641" rx=".304" fill="#999" stroke="#1A1A1A" stroke-width=".608"/><rect x="33.884" y="142.441" width="26.122" height="10.935" rx=".304" fill="#999" stroke="#1A1A1A" stroke-width=".608"/><rect x="33.884" y="175.246" width="26.122" height="10.935" rx=".304" fill="#999" stroke="#1A1A1A" stroke-width=".608"/><rect x="33.884" y="158.844" width="26.122" height="10.935" rx=".304" fill="#999" stroke="#1A1A1A" stroke-width=".608"/><rect x="33.884" y="191.649" width="26.122" height="10.935" rx=".304" fill="#999" stroke="#1A1A1A" stroke-width=".608"/><rect x="19.304" y="213.107" width="120.893" height="6.683" rx="1.519" fill="#fff" stroke="#1A1A1A" stroke-width=".608"/><defs><clipPath id="a"><path fill="#fff" transform="translate(116 40.5)" d="M0 0h120v80H0z"/></clipPath></defs></svg>