<svg width="344" height="290" fill="none" xmlns="http://www.w3.org/2000/svg"><rect x="184.75" y=".75" width="158.5" height="158.5" rx="39.25" fill="#F4F8FE" stroke="#3E9AF8" stroke-width="1.5"/><g clip-path="url(#a)"><path fill="#fff" stroke="#1A1A1A" d="M214.5 31h99v99h-99z"/><circle cx="264" cy="80.5" r="34.5" stroke="#1A1A1A"/><circle cx="264" cy="62.5" r="3.5" stroke="#727171"/><circle cx="278.5" cy="80.5" r="4" fill="#1A1A1A"/><circle cx="249.5" cy="80.5" r="4" fill="#1A1A1A"/></g><rect x=".75" y="39.75" width="158.5" height="158.5" rx="39.25" fill="#F4F8FE" stroke="#3E9AF8" stroke-width="1.5"/><g clip-path="url(#b)" fill="#fff" stroke="#1A1A1A"><path d="M30.5 70h99v99h-99z"/><path d="M43 84a1.5 1.5 0 0 1 1.5-1.5h32A1.5 1.5 0 0 1 78 84v71a1.5 1.5 0 0 1-1.5 1.5h-32A1.5 1.5 0 0 1 43 155V84ZM82 84a1.5 1.5 0 0 1 1.5-1.5h32A1.5 1.5 0 0 1 117 84v71a1.5 1.5 0 0 1-1.5 1.5h-32A1.5 1.5 0 0 1 82 155V84Z"/></g><rect x="71.75" y="130.75" width="158.5" height="158.5" rx="39.25" fill="#F4F8FE" stroke="#3E9AF8" stroke-width="1.5"/><rect x="90.205" y="197.905" width="122.59" height="24.19" rx="1.025" fill="#fff" stroke="#1A1A1A" stroke-width=".41"/><circle cx="185.94" cy="210.308" r="2.255" fill="#fff" stroke="#1A1A1A" stroke-width=".41"/><circle cx="107.22" cy="210.308" r="2.255" fill="#fff" stroke="#1A1A1A" stroke-width=".41"/><circle cx="195.78" cy="210.308" r="2.255" fill="#fff" stroke="#1A1A1A" stroke-width=".41"/><circle cx="117.06" cy="210.308" r="2.255" fill="#fff" stroke="#1A1A1A" stroke-width=".41"/><circle cx="131.82" cy="210.41" r="2.05" fill="#198038"/><path d="M139.825 210.381c0 .472-.085.88-.255 1.223-.17.344-.404.609-.701.795-.297.187-.636.28-1.018.28-.381 0-.721-.093-1.018-.28a1.918 1.918 0 0 1-.701-.795c-.17-.343-.255-.751-.255-1.223 0-.471.085-.879.255-1.223a1.93 1.93 0 0 1 .701-.795 1.88 1.88 0 0 1 1.018-.279c.382 0 .721.093 1.018.279.297.187.531.452.701.795.17.344.255.752.255 1.223Zm-.524 0c0-.387-.064-.714-.194-.98a1.404 1.404 0 0 0-.522-.605 1.352 1.352 0 0 0-.734-.206c-.271 0-.516.069-.736.206a1.43 1.43 0 0 0-.522.605c-.128.266-.192.593-.192.98 0 .388.064.714.192.981.13.266.304.468.522.605.22.137.465.205.736.205.271 0 .516-.068.734-.205a1.41 1.41 0 0 0 .522-.605c.13-.267.194-.593.194-.981Zm4.982-2.236v4.473h-.524l-2.438-3.512h-.043v3.512h-.542v-4.473h.524l2.446 3.52h.044v-3.52h.533Z" fill="#1A1A1A"/><path d="M90 210h14.965M198.035 210H213" stroke="#1A1A1A" stroke-width="1.23"/><path d="M111.115 189.5h-1.23s-1.32 5.346-1.948 8.815c-.676 3.738-1.332 9.635-1.332 9.635h1.23s.554-5.487 1.23-9.225c.627-3.469 2.05-9.225 2.05-9.225ZM191.885 189.5h1.23s1.32 5.346 1.948 8.815c.676 3.738 1.332 9.635 1.332 9.635h-1.23s-.554-5.487-1.23-9.225c-.627-3.469-2.05-9.225-2.05-9.225ZM111.115 230.5h-1.23s1.611-5.545 2.87-9.02c1.296-3.578 3.69-9.02 3.69-9.02h1.23s-2.394 5.442-3.69 9.02c-1.259 3.475-2.87 9.02-2.87 9.02ZM191.885 230.5h1.23s-1.611-5.545-2.87-9.02c-1.296-3.578-3.69-9.02-3.69-9.02h-1.23s2.394 5.442 3.69 9.02c1.259 3.475 2.87 9.02 2.87 9.02Z" fill="#1A1A1A"/><defs><clipPath id="a"><path fill="#fff" transform="translate(214 30.5)" d="M0 0h100v100H0z"/></clipPath><clipPath id="b"><path fill="#fff" transform="translate(30 69.5)" d="M0 0h100v100H0z"/></clipPath></defs></svg>