<svg width="337" height="292" fill="none" xmlns="http://www.w3.org/2000/svg"><rect x="83.75" y="1.591" width="158.5" height="158.5" rx="39.25" fill="#F4F8FE" stroke="#3E9AF8" stroke-width="1.5"/><path d="m158.2 79.491-6.3-3.6v7.2l6.3-3.6Z" fill="#666"/><path d="M151.841 26.667v.377c0 .448-.056.85-.168 1.206a2.58 2.58 0 0 1-.484.906 2.09 2.09 0 0 1-.759.57c-.292.132-.62.197-.984.197-.353 0-.677-.065-.972-.196a2.182 2.182 0 0 1-.763-.57 2.65 2.65 0 0 1-.496-.907 3.819 3.819 0 0 1-.176-1.206v-.377c0-.449.057-.85.172-1.202a2.65 2.65 0 0 1 .496-.907 2.12 2.12 0 0 1 .759-.574c.295-.131.619-.197.972-.197.364 0 .692.066.984.197.296.131.549.323.759.574.213.25.376.552.488.907.115.353.172.753.172 1.202Zm-.783.377v-.386c0-.355-.037-.67-.111-.943a1.945 1.945 0 0 0-.316-.689 1.359 1.359 0 0 0-.512-.422 1.559 1.559 0 0 0-.681-.144 1.53 1.53 0 0 0-.669.144 1.41 1.41 0 0 0-.508.422c-.14.186-.248.416-.324.69a3.491 3.491 0 0 0-.115.942v.386c0 .358.038.675.115.952.076.273.186.504.328.693.145.186.316.326.513.422.199.096.422.144.668.144.257 0 .485-.048.685-.144.2-.096.368-.236.505-.422.139-.189.244-.42.315-.693.071-.277.107-.594.107-.952Zm4.753 1.772v-3.413h.763v4.438h-.726l-.037-1.025Zm.144-.935.316-.008c0 .295-.032.568-.095.82-.06.249-.158.465-.295.648a1.402 1.402 0 0 1-.537.43 1.939 1.939 0 0 1-.808.152c-.216 0-.415-.031-.595-.094a1.182 1.182 0 0 1-.459-.291 1.32 1.32 0 0 1-.3-.513 2.485 2.485 0 0 1-.102-.759v-2.863h.758v2.872c0 .2.022.365.066.496a.812.812 0 0 0 .185.307.678.678 0 0 0 .262.156c.098.03.2.045.304.045.322 0 .578-.061.767-.184.188-.126.324-.294.406-.505a1.92 1.92 0 0 0 .127-.71Zm3.818-2.478v.583h-2.4v-.583h2.4Zm-1.588-1.078h.759v4.417c0 .15.023.264.07.34a.334.334 0 0 0 .18.152.753.753 0 0 0 .238.037c.063 0 .129-.005.197-.016l.16-.033.004.62c-.06.018-.139.036-.238.053-.095.019-.212.028-.348.028-.186 0-.357-.037-.513-.11a.824.824 0 0 1-.373-.37c-.09-.175-.136-.41-.136-.705v-4.413Zm5.459 4.655v-5.439h.763v6.3h-.697l-.066-.861Zm-2.986-1.308v-.087c0-.339.041-.646.123-.922.085-.28.204-.519.357-.718a1.574 1.574 0 0 1 1.276-.623c.279 0 .522.049.73.147.21.096.388.237.533.422.148.184.264.405.349.665.084.26.143.554.176.882v.377a3.89 3.89 0 0 1-.176.878 2.07 2.07 0 0 1-.349.664 1.464 1.464 0 0 1-.533.423 1.773 1.773 0 0 1-.739.143c-.259 0-.497-.056-.713-.168a1.68 1.68 0 0 1-.554-.471 2.306 2.306 0 0 1-.357-.714 3.143 3.143 0 0 1-.123-.898Zm.763-.087v.087c0 .221.022.429.066.623.046.194.117.365.213.513.096.147.217.264.365.348.148.082.324.123.529.123.252 0 .458-.053.619-.16a1.19 1.19 0 0 0 .394-.422 2.43 2.43 0 0 0 .23-.57v-.989a2.198 2.198 0 0 0-.144-.434 1.322 1.322 0 0 0-.238-.378 1.02 1.02 0 0 0-.356-.266 1.158 1.158 0 0 0-.497-.099c-.208 0-.387.044-.537.132a1.045 1.045 0 0 0-.365.352c-.096.148-.167.32-.213.517a2.817 2.817 0 0 0-.066.623Zm4.15.087v-.095c0-.32.047-.616.14-.89.093-.276.227-.515.402-.718.175-.205.387-.363.635-.475.249-.115.528-.173.837-.173.312 0 .592.058.841.173.252.112.465.27.64.475.178.203.313.442.406.718.093.274.139.57.139.89v.095c0 .32-.046.616-.139.89a2.125 2.125 0 0 1-.406.717c-.175.203-.387.361-.636.476a1.997 1.997 0 0 1-.837.168c-.311 0-.592-.056-.84-.168a1.896 1.896 0 0 1-.64-.476 2.168 2.168 0 0 1-.402-.717 2.747 2.747 0 0 1-.14-.89Zm.759-.095v.095c0 .221.026.43.078.627.052.194.13.367.234.517.106.15.239.27.398.357.158.085.343.127.553.127.208 0 .39-.043.546-.127.158-.088.29-.207.394-.357.103-.15.181-.323.233-.517.055-.197.082-.406.082-.627v-.095c0-.219-.027-.425-.082-.62a1.588 1.588 0 0 0-.238-.52 1.126 1.126 0 0 0-.393-.36 1.105 1.105 0 0 0-.55-.132c-.208 0-.391.044-.549.131a1.174 1.174 0 0 0-.394.361c-.104.15-.182.324-.234.52-.052.195-.078.401-.078.62Zm4.216.095v-.095c0-.32.046-.616.139-.89.093-.276.227-.515.402-.718.175-.205.387-.363.636-.475.249-.115.528-.173.837-.173.311 0 .592.058.841.173.251.112.464.27.639.475.178.203.314.442.406.718.093.274.14.57.14.89v.095c0 .32-.047.616-.14.89a2.109 2.109 0 0 1-.406.717c-.175.203-.386.361-.635.476a1.997 1.997 0 0 1-.837.168c-.312 0-.592-.056-.841-.168a1.905 1.905 0 0 1-.64-.476 2.168 2.168 0 0 1-.402-.717 2.747 2.747 0 0 1-.139-.89Zm.759-.095v.095c0 .221.026.43.078.627.052.194.13.367.233.517.107.15.24.27.398.357.159.085.343.127.554.127.208 0 .39-.043.545-.127.159-.088.29-.207.394-.357a1.65 1.65 0 0 0 .234-.517c.055-.197.082-.406.082-.627v-.095c0-.219-.027-.425-.082-.62a1.588 1.588 0 0 0-.238-.52 1.101 1.101 0 0 0-.943-.492c-.208 0-.391.044-.55.131a1.183 1.183 0 0 0-.394.361c-.103.15-.181.324-.233.52-.052.195-.078.401-.078.62Zm5.175-1.476v3.74h-.758v-4.438h.738l.02.698Zm1.387-.722-.004.705a1.921 1.921 0 0 0-.37-.033c-.175 0-.329.028-.463.083a.962.962 0 0 0-.341.23 1.126 1.126 0 0 0-.221.352 1.718 1.718 0 0 0-.103.443l-.213.123c0-.268.026-.52.078-.755.055-.235.138-.443.25-.623.112-.183.255-.326.427-.427a1.199 1.199 0 0 1 .96-.098Z" fill="#000" fill-opacity=".87"/><path fill="#C8DFF7" d="M159.4 35.241h6.298v95.853H159.4z"/><path stroke="#000" stroke-opacity=".87" stroke-width=".15" d="M159.475 35.316h6.148v95.703h-6.148z"/><path fill="#EBEBEB" d="M159.4 106.249h6.298v24.992H159.4z"/><path stroke="#000" stroke-opacity=".87" stroke-width=".15" d="M159.475 106.324h6.148v24.842h-6.148z"/><path fill="#EBEBEB" d="M159.402 35.241h6.298v24.992h-6.298z"/><path stroke="#000" stroke-opacity=".87" stroke-width=".15" d="M159.477 35.316h6.148v24.842h-6.148z"/><path fill="#666" d="M159.4 117.863h6.298v13.231H159.4z"/><path stroke="#000" stroke-opacity=".87" stroke-width=".15" d="M159.475 117.938h6.148v13.081h-6.148z"/><path fill="#666" d="M159.4 35.241h6.298v13.231H159.4z"/><path stroke="#000" stroke-opacity=".87" stroke-width=".15" d="M159.475 35.316h6.148v13.081h-6.148z"/><path fill="#DEDEDE" d="m159.992 66.257 2.545-2.495 2.545 2.495-2.545 2.495z"/><path transform="scale(1.00991 .98999) rotate(-45 160.212 -157.766)" stroke="#000" stroke-opacity=".87" stroke-width=".3" d="M.214 0h3.264v3.264H.214z"/><path d="M159.434 137.076c0-.138.034-.265.103-.381a.779.779 0 0 1 .272-.275.696.696 0 0 1 .741 0 .757.757 0 0 1 .367.656.753.753 0 0 1-.367.653.7.7 0 0 1-.369.1.718.718 0 0 1-.372-.1.787.787 0 0 1-.272-.272.726.726 0 0 1-.103-.381Zm.363 0c0 .108.038.197.112.27a.382.382 0 0 0 .272.108.368.368 0 0 0 .372-.378.38.38 0 0 0-.108-.275.349.349 0 0 0-.264-.112.378.378 0 0 0-.272.112.375.375 0 0 0-.112.275Zm4.752 2.209h.562c-.029.27-.106.511-.231.724a1.355 1.355 0 0 1-.53.507c-.229.123-.514.184-.856.184a1.519 1.519 0 0 1-1.207-.539 1.876 1.876 0 0 1-.34-.624 2.668 2.668 0 0 1-.117-.814v-.425c0-.299.039-.569.117-.812.08-.244.195-.453.343-.627.15-.173.331-.307.542-.401a1.73 1.73 0 0 1 .712-.141c.322 0 .595.061.817.182.223.121.396.289.519.504.125.213.202.46.231.741h-.562a1.572 1.572 0 0 0-.152-.513.805.805 0 0 0-.317-.334c-.137-.078-.315-.117-.536-.117a1.1 1.1 0 0 0-.501.109.993.993 0 0 0-.36.307 1.43 1.43 0 0 0-.217.478 2.414 2.414 0 0 0-.073.618v.431c0 .209.021.405.064.589.045.183.112.344.202.483.09.139.204.248.343.328a.99.99 0 0 0 .492.117c.24 0 .432-.038.574-.114a.752.752 0 0 0 .323-.328c.074-.143.127-.314.158-.513Z" fill="#000" fill-opacity=".87"/><path d="M171.625 81.973v.668h-4.188v-.584l2.096-2.334c.258-.287.457-.53.597-.73.144-.201.244-.382.299-.54a1.42 1.42 0 0 0 .088-.492c0-.211-.044-.401-.132-.571a.988.988 0 0 0-.378-.413 1.136 1.136 0 0 0-.606-.154c-.284 0-.522.055-.712.167-.188.108-.328.26-.422.457a1.549 1.549 0 0 0-.141.677h-.813c0-.36.08-.69.238-.99.158-.298.392-.535.703-.711.31-.179.693-.268 1.147-.268.404 0 .75.072 1.037.215.287.14.507.34.659.598.155.255.233.553.233.896 0 .188-.032.378-.097.572-.061.19-.148.38-.259.57-.108.191-.236.379-.382.563a8.955 8.955 0 0 1-.462.545l-1.713 1.86h3.208Zm4.174-5.74h.07v.69h-.07c-.431 0-.791.071-1.081.212a1.77 1.77 0 0 0-.69.558c-.17.231-.293.492-.369.782-.074.29-.11.585-.11.883v.94c0 .285.033.537.101.757.067.216.16.4.277.549.117.15.249.262.395.338.15.077.305.115.466.115.188 0 .355-.035.501-.106.146-.073.27-.174.369-.303.103-.132.18-.287.233-.466.053-.179.079-.375.079-.589 0-.19-.023-.373-.07-.55a1.48 1.48 0 0 0-.215-.474 1.042 1.042 0 0 0-.365-.33 1.021 1.021 0 0 0-.514-.122c-.226 0-.437.055-.633.167a1.432 1.432 0 0 0-.479.43 1.153 1.153 0 0 0-.211.576l-.431-.004c.041-.329.117-.608.229-.84.114-.234.255-.424.422-.571.169-.15.358-.258.566-.325a2.1 2.1 0 0 1 .668-.106c.32 0 .595.06.827.18.231.12.421.282.571.484.149.2.259.425.329.677.074.249.11.505.11.769 0 .302-.042.584-.127.848a2.003 2.003 0 0 1-.382.694c-.167.2-.374.355-.62.466a2.062 2.062 0 0 1-.857.167 1.86 1.86 0 0 1-.905-.21 1.94 1.94 0 0 1-.642-.572 2.604 2.604 0 0 1-.382-.791 3.126 3.126 0 0 1-.128-.884v-.382c0-.451.046-.893.137-1.327a3.51 3.51 0 0 1 .47-1.178c.225-.351.537-.631.936-.84.398-.207.907-.311 1.525-.311Z" fill="#002878"/><rect x="177.75" y="101.543" width="158.5" height="158.5" rx="39.25" fill="#F4F8FE" stroke="#3E9AF8" stroke-width="1.5"/><rect x="194.21" y="141.911" width="125.58" height="76.86" rx="1.05" fill="#fff" stroke="#1A1A1A" stroke-width=".42"/><rect x="199.46" y="138.551" width="31.08" height="3.36" rx=".21" fill="#999" stroke="#1A1A1A" stroke-width=".42"/><rect x="199.46" y="218.772" width="31.08" height="3.36" rx=".21" fill="#999" stroke="#1A1A1A" stroke-width=".42"/><rect x="283.46" y="219.191" width="31.08" height="3.36" rx=".21" fill="#999" stroke="#1A1A1A" stroke-width=".42"/><rect x="241.46" y="138.551" width="31.08" height="3.36" rx=".21" fill="#999" stroke="#1A1A1A" stroke-width=".42"/><rect x="283.46" y="138.131" width="31.08" height="3.36" rx=".21" fill="#999" stroke="#1A1A1A" stroke-width=".42"/><circle cx="207.86" cy="156.401" r="2.1" fill="#198038"/><path d="M215.882 155.251h-.555a1.157 1.157 0 0 0-.468-.725 1.238 1.238 0 0 0-.382-.188 1.523 1.523 0 0 0-.439-.063c-.277 0-.528.071-.754.211-.223.14-.402.347-.534.619-.132.273-.197.608-.197 1.005 0 .397.065.732.197 1.004.132.273.311.48.534.62.226.14.477.21.754.21.152 0 .299-.02.439-.062a1.28 1.28 0 0 0 .382-.186 1.18 1.18 0 0 0 .296-.306c.082-.123.139-.263.172-.421h.555a1.864 1.864 0 0 1-.228.629 1.734 1.734 0 0 1-.965.765c-.203.067-.42.101-.651.101a1.92 1.92 0 0 1-1.042-.287 1.962 1.962 0 0 1-.718-.814c-.175-.352-.262-.77-.262-1.253 0-.483.087-.901.262-1.253.174-.352.414-.623.718-.814a1.92 1.92 0 0 1 1.042-.287c.231 0 .448.034.651.101.205.067.389.166.553.295.164.129.301.285.412.47.11.184.186.393.228.629Zm2.221 3.221c-.31 0-.583-.073-.817-.221a1.515 1.515 0 0 1-.546-.62 2.102 2.102 0 0 1-.194-.93c0-.358.065-.671.194-.938.132-.267.314-.474.546-.622.234-.147.507-.221.817-.221.31 0 .581.074.814.221.234.148.416.355.546.622.131.267.197.58.197.938 0 .355-.066.665-.197.93-.13.266-.312.472-.546.62a1.484 1.484 0 0 1-.814.221Zm0-.474c.235 0 .429-.06.581-.181.153-.121.265-.28.338-.477.073-.196.11-.41.11-.639 0-.23-.037-.444-.11-.642a1.07 1.07 0 0 0-.338-.481.894.894 0 0 0-.581-.184.895.895 0 0 0-.582.184 1.078 1.078 0 0 0-.338.481 1.842 1.842 0 0 0-.109.642c0 .229.036.443.109.639.073.197.186.356.338.477a.905.905 0 0 0 .582.181Zm2.891-1.664v2.067h-.528v-3.436h.51v.536h.045a.98.98 0 0 1 .367-.42c.164-.108.375-.161.635-.161.233 0 .436.047.611.143.174.094.31.237.407.429.097.191.145.433.145.725v2.184h-.528v-2.148c0-.27-.07-.48-.21-.631-.14-.152-.333-.228-.577-.228a.922.922 0 0 0-.452.11.78.78 0 0 0-.311.32c-.076.14-.114.31-.114.51Zm3.685 0v2.067h-.528v-3.436h.51v.536h.045a.98.98 0 0 1 .367-.42c.164-.108.376-.161.635-.161.233 0 .436.047.611.143.174.094.31.237.407.429.097.191.146.433.146.725v2.184h-.528v-2.148c0-.27-.071-.48-.211-.631-.14-.152-.332-.228-.577-.228a.925.925 0 0 0-.452.11.78.78 0 0 0-.311.32c-.076.14-.114.31-.114.51Zm4.598 2.138c-.331 0-.617-.073-.857-.219a1.464 1.464 0 0 1-.552-.617 2.096 2.096 0 0 1-.193-.926c0-.352.064-.663.193-.931.129-.27.31-.48.541-.631.233-.152.504-.228.814-.228.179 0 .356.03.531.089.174.06.333.157.476.291.143.133.257.309.342.528.085.219.128.489.128.81v.224h-2.649v-.457h2.112c0-.194-.039-.367-.116-.519a.875.875 0 0 0-.327-.36.915.915 0 0 0-.497-.132.94.94 0 0 0-.545.157c-.153.103-.27.237-.352.402a1.185 1.185 0 0 0-.123.533v.304c0 .26.045.48.134.66a.958.958 0 0 0 .379.409c.161.093.348.139.561.139.139 0 .264-.019.376-.058.113-.04.211-.1.293-.179a.816.816 0 0 0 .19-.3l.51.143a1.131 1.131 0 0 1-.27.457c-.127.13-.284.231-.47.304a1.737 1.737 0 0 1-.629.107Zm3.622 0c-.322 0-.599-.076-.832-.228a1.48 1.48 0 0 1-.537-.628 2.134 2.134 0 0 1-.188-.915c0-.349.064-.657.192-.924.13-.269.311-.478.542-.629.233-.152.504-.228.814-.228.242 0 .46.045.653.134.194.089.353.215.477.376s.201.349.23.564h-.528a.809.809 0 0 0-.268-.416c-.137-.123-.322-.184-.555-.184a.928.928 0 0 0-.541.161 1.043 1.043 0 0 0-.36.45 1.664 1.664 0 0 0-.128.678c0 .265.042.496.125.693.085.197.205.35.358.459a.925.925 0 0 0 .546.163.959.959 0 0 0 .374-.071.782.782 0 0 0 .284-.206.79.79 0 0 0 .165-.322h.528a1.216 1.216 0 0 1-.684.933c-.191.093-.413.14-.667.14Zm3.618-3.507v.447h-1.781v-.447h1.781Zm-1.262-.824h.528v3.276c0 .149.022.261.065.335a.34.34 0 0 0 .17.148c.07.024.144.036.221.036a.95.95 0 0 0 .233-.027l.107.474a1.02 1.02 0 0 1-.15.04 1.088 1.088 0 0 1-.243.023c-.15 0-.296-.032-.439-.097a.86.86 0 0 1-.353-.293.835.835 0 0 1-.139-.496v-3.419Zm3.46 4.331c-.331 0-.617-.073-.857-.219a1.466 1.466 0 0 1-.553-.617 2.11 2.11 0 0 1-.192-.926c0-.352.064-.663.192-.931.13-.27.311-.48.542-.631.232-.152.504-.228.814-.228.179 0 .356.03.53.089.175.06.334.157.477.291.143.133.257.309.342.528.085.219.128.489.128.81v.224h-2.649v-.457h2.112a1.12 1.12 0 0 0-.117-.519.88.88 0 0 0-.823-.492.945.945 0 0 0-.546.157 1.033 1.033 0 0 0-.351.402 1.185 1.185 0 0 0-.123.533v.304c0 .26.045.48.134.66a.962.962 0 0 0 .378.409c.161.093.349.139.562.139.139 0 .264-.019.376-.058.113-.04.211-.1.293-.179a.816.816 0 0 0 .19-.3l.51.143a1.133 1.133 0 0 1-.271.457c-.127.13-.283.231-.47.304a1.731 1.731 0 0 1-.628.107Zm3.523 0c-.286 0-.539-.072-.758-.217a1.47 1.47 0 0 1-.515-.617 2.242 2.242 0 0 1-.185-.946c0-.361.062-.675.185-.94.124-.265.297-.471.517-.615.221-.145.476-.217.765-.217.224 0 .401.037.531.112a.902.902 0 0 1 .299.25c.07.093.125.169.164.228h.044v-1.691h.528v4.582h-.51v-.528h-.062a3.176 3.176 0 0 1-.166.237.988.988 0 0 1-.306.253c-.133.073-.31.109-.531.109Zm.072-.474a.867.867 0 0 0 .537-.165c.146-.112.257-.267.333-.463.076-.199.114-.428.114-.687 0-.257-.037-.481-.111-.674a.982.982 0 0 0-.332-.452.878.878 0 0 0-.541-.163.887.887 0 0 0-.559.172 1.038 1.038 0 0 0-.334.463 1.846 1.846 0 0 0-.109.654c0 .244.037.467.112.666.076.199.188.357.335.475a.876.876 0 0 0 .555.174Z" fill="#1A1A1A"/><rect x=".75" y="131.909" width="158.5" height="158.5" rx="39.25" fill="#F4F8FE" stroke="#3E9AF8" stroke-width="1.5"/><path d="M69.291 195.084v.378c0 .448-.056.85-.168 1.205a2.592 2.592 0 0 1-.484.907c-.21.249-.464.439-.759.57-.292.131-.62.197-.984.197a2.37 2.37 0 0 1-.972-.197 2.182 2.182 0 0 1-.763-.57 2.655 2.655 0 0 1-.496-.907 3.824 3.824 0 0 1-.177-1.205v-.378c0-.448.058-.849.172-1.202a2.66 2.66 0 0 1 .497-.906c.213-.252.466-.443.758-.574a2.37 2.37 0 0 1 .972-.197c.364 0 .692.066.985.197.295.131.548.322.759.574.213.249.376.551.488.906.115.353.172.754.172 1.202Zm-.783.378v-.386c0-.355-.037-.67-.111-.943a1.944 1.944 0 0 0-.316-.689 1.367 1.367 0 0 0-.513-.423 1.552 1.552 0 0 0-.68-.143c-.247 0-.47.047-.67.143a1.419 1.419 0 0 0-.508.423 2.05 2.05 0 0 0-.324.689 3.509 3.509 0 0 0-.114.943v.386c0 .358.038.675.114.951.077.274.186.505.329.693.144.186.315.327.512.423.2.095.423.143.669.143.257 0 .485-.048.685-.143.2-.096.367-.237.504-.423a1.99 1.99 0 0 0 .316-.693c.071-.276.107-.593.107-.951Zm4.753 1.771v-3.412h.763v4.438h-.726l-.037-1.026Zm.143-.935.316-.008c0 .295-.031.569-.094.82-.06.249-.159.465-.296.648a1.39 1.39 0 0 1-.537.431 1.94 1.94 0 0 1-.808.152c-.216 0-.414-.032-.594-.095a1.169 1.169 0 0 1-.46-.291 1.325 1.325 0 0 1-.3-.512 2.476 2.476 0 0 1-.102-.759v-2.863h.759v2.871c0 .2.022.365.066.496a.825.825 0 0 0 .184.308c.08.074.167.126.263.156.098.03.2.045.303.045.323 0 .579-.062.767-.185a1.05 1.05 0 0 0 .406-.504c.085-.213.127-.45.127-.71Zm3.818-2.477v.582h-2.4v-.582h2.4Zm-1.587-1.079h.759v4.418c0 .15.023.263.07.34a.334.334 0 0 0 .18.152.765.765 0 0 0 .238.037c.063 0 .128-.006.197-.017.07-.013.124-.024.16-.033l.004.62c-.06.019-.14.037-.238.053a1.82 1.82 0 0 1-.349.029 1.18 1.18 0 0 1-.512-.111.827.827 0 0 1-.374-.369c-.09-.175-.135-.41-.135-.706v-4.413Zm5.459 4.655v-5.438h.763v6.3h-.698l-.065-.862Zm-2.986-1.308v-.086c0-.339.04-.647.123-.923.085-.279.204-.518.357-.718.156-.199.34-.352.553-.459a1.58 1.58 0 0 1 .722-.164c.28 0 .522.049.73.148.21.095.388.236.533.422.148.183.264.405.35.664.084.26.143.554.175.882v.378c-.03.325-.088.618-.176.877a2.07 2.07 0 0 1-.349.665 1.457 1.457 0 0 1-.533.422c-.21.096-.456.144-.738.144-.26 0-.498-.056-.714-.168a1.688 1.688 0 0 1-.553-.472 2.29 2.29 0 0 1-.357-.714 3.136 3.136 0 0 1-.123-.898Zm.763-.086v.086c0 .222.022.429.065.623.047.195.118.366.213.513.096.148.218.264.366.349.147.082.324.123.529.123.251 0 .458-.053.619-.16.164-.107.295-.248.394-.423.098-.175.175-.365.23-.57v-.988a2.19 2.19 0 0 0-.144-.435 1.336 1.336 0 0 0-.238-.377 1.036 1.036 0 0 0-.357-.267 1.166 1.166 0 0 0-.496-.098c-.208 0-.387.043-.537.131-.148.085-.27.202-.365.353-.096.147-.167.32-.214.516a2.842 2.842 0 0 0-.065.624Zm4.15.086v-.094c0-.32.046-.617.14-.89.092-.276.226-.516.401-.718.175-.205.387-.364.636-.476a1.97 1.97 0 0 1 .837-.172c.311 0 .592.057.84.172.252.112.465.271.64.476.178.202.314.442.406.718.093.273.14.57.14.89v.094c0 .32-.047.617-.14.89a2.124 2.124 0 0 1-.406.718 1.867 1.867 0 0 1-.635.476 1.998 1.998 0 0 1-.837.168c-.312 0-.592-.056-.84-.168a1.91 1.91 0 0 1-.64-.476 2.163 2.163 0 0 1-.403-.718 2.745 2.745 0 0 1-.14-.89Zm.759-.094v.094c0 .222.026.431.078.628.051.194.13.366.233.516.107.151.24.27.398.357.159.085.343.127.554.127.208 0 .39-.042.545-.127.159-.087.29-.206.394-.357.104-.15.182-.322.234-.516a2.34 2.34 0 0 0 .082-.628v-.094c0-.219-.027-.425-.082-.62a1.612 1.612 0 0 0-.238-.521 1.1 1.1 0 0 0-.943-.492c-.208 0-.391.044-.55.132a1.174 1.174 0 0 0-.394.36 1.661 1.661 0 0 0-.233.521 2.394 2.394 0 0 0-.078.62Zm4.216.094v-.094c0-.32.046-.617.139-.89.093-.276.227-.516.402-.718.175-.205.387-.364.636-.476.248-.115.527-.172.836-.172.312 0 .592.057.841.172.252.112.465.271.64.476.178.202.313.442.406.718.093.273.14.57.14.89v.094c0 .32-.047.617-.14.89a2.124 2.124 0 0 1-.406.718 1.867 1.867 0 0 1-.636.476 1.998 1.998 0 0 1-.836.168c-.312 0-.592-.056-.841-.168a1.91 1.91 0 0 1-.64-.476 2.163 2.163 0 0 1-.402-.718 2.748 2.748 0 0 1-.14-.89Zm.758-.094v.094c0 .222.026.431.078.628.052.194.13.366.234.516.107.151.24.27.398.357.158.085.343.127.554.127.207 0 .39-.042.545-.127.159-.087.29-.206.394-.357.104-.15.182-.322.234-.516.054-.197.082-.406.082-.628v-.094c0-.219-.028-.425-.082-.62a1.61 1.61 0 0 0-.238-.521 1.1 1.1 0 0 0-.943-.492c-.208 0-.392.044-.55.132a1.173 1.173 0 0 0-.394.36 1.664 1.664 0 0 0-.234.521 2.398 2.398 0 0 0-.078.62Zm5.176-1.477v3.741h-.759v-4.438h.738l.02.697Zm1.386-.722-.004.706a2.082 2.082 0 0 0-.37-.033c-.174 0-.329.027-.463.082a.957.957 0 0 0-.34.23 1.104 1.104 0 0 0-.221.352 1.697 1.697 0 0 0-.103.443l-.213.123c0-.268.026-.519.078-.754.054-.235.138-.443.25-.624.112-.183.254-.325.426-.426a1.198 1.198 0 0 1 .813-.136.59.59 0 0 1 .147.037Z" fill="#000" fill-opacity=".87"/><path d="m75.35 208.159 3.6-6.3h-7.2l3.6 6.3Z" fill="#666"/><path fill="#C8DFF7" d="M128 208.759v6.3H32v-6.3z"/><path stroke="#000" stroke-opacity=".87" stroke-width=".15" d="M127.925 208.834v6.15h-95.85v-6.15z"/><path fill="#C8DFF7" d="M32.132 215.06v-6.3H128v6.3z"/><path stroke="#000" stroke-opacity=".87" stroke-width=".15" d="M32.207 214.984v-6.15h95.717v6.15z"/><path fill="#EBEBEB" d="M32 215.059v-6.3h22.51v6.3z"/><path stroke="#000" stroke-opacity=".87" stroke-width=".15" d="M32.075 214.984v-6.15h22.36v6.15z"/><path fill="#666" d="M32 215.059v-6.3h11.917v6.3z"/><path stroke="#000" stroke-opacity=".87" stroke-width=".15" d="M32.075 214.984v-6.15h11.767v6.15z"/><path fill="#DEDEDE" d="m100.064 209.359 2.247 2.546-2.247 2.546-2.247-2.546z"/><path transform="scale(.93592 1.06022) rotate(45 -184.89 228.011)" stroke="#000" stroke-opacity=".87" stroke-width=".3" d="M0 .225h3.096v3.096H0z"/><path fill="#EBEBEB" d="M105.49 215.059v-6.3H128v6.3z"/><path stroke="#000" stroke-opacity=".87" stroke-width=".15" d="M105.565 214.984v-6.15h22.36v6.15z"/><path fill="#666" d="M116.083 215.059v-6.3H128v6.3z"/><path stroke="#000" stroke-opacity=".87" stroke-width=".15" d="M116.158 214.984v-6.15h11.767v6.15z"/><path d="M74.674 223.991v.668h-4.188v-.584l2.096-2.334c.258-.287.457-.53.598-.729.143-.202.243-.383.299-.541.058-.161.088-.325.088-.492 0-.211-.044-.401-.132-.571a.983.983 0 0 0-.378-.413 1.133 1.133 0 0 0-.607-.154c-.284 0-.521.055-.712.167a1.027 1.027 0 0 0-.421.457c-.094.196-.141.422-.141.677h-.813c0-.361.08-.69.237-.989a1.75 1.75 0 0 1 .704-.712c.31-.179.692-.268 1.146-.268.405 0 .75.072 1.037.215.288.141.507.34.66.598.155.255.233.554.233.896 0 .188-.033.378-.097.572a2.93 2.93 0 0 1-.26.571c-.108.19-.235.378-.382.562a8.432 8.432 0 0 1-.461.545l-1.714 1.859h3.208Zm4.174-5.739h.07v.69h-.07c-.43 0-.79.07-1.08.211-.29.138-.52.324-.69.558-.17.231-.294.492-.37.782-.073.29-.11.585-.11.883v.941c0 .284.034.536.101.756.068.217.16.4.277.549.117.149.25.262.396.338.15.077.305.115.466.115.187 0 .354-.035.5-.106.147-.073.27-.174.37-.303.102-.132.18-.287.233-.466.052-.179.079-.375.079-.589 0-.19-.024-.373-.07-.549a1.469 1.469 0 0 0-.216-.475 1.037 1.037 0 0 0-.879-.452c-.225 0-.436.055-.633.167a1.441 1.441 0 0 0-.479.43 1.161 1.161 0 0 0-.21.576l-.431-.004c.04-.328.117-.608.228-.84.115-.234.255-.424.422-.571.17-.149.359-.258.567-.325.211-.07.434-.106.668-.106.32 0 .595.06.826.181.232.12.422.281.572.483.149.199.259.425.329.677.073.249.11.505.11.769 0 .302-.043.584-.127.848a1.997 1.997 0 0 1-.383.694 1.72 1.72 0 0 1-.62.466 2.066 2.066 0 0 1-.856.167c-.346 0-.648-.07-.906-.211a1.935 1.935 0 0 1-.641-.571 2.602 2.602 0 0 1-.383-.791 3.127 3.127 0 0 1-.127-.883v-.383c0-.451.045-.893.136-1.327.091-.434.248-.826.47-1.178.226-.351.538-.631.936-.839.399-.208.907-.312 1.525-.312Z" fill="#002878"/><path d="M76.884 231.694c0-.139.034-.266.102-.381a.781.781 0 0 1 .273-.275.687.687 0 0 1 .372-.106c.135 0 .258.035.369.106a.765.765 0 0 1 .366.656.75.75 0 0 1-.366.653.702.702 0 0 1-.37.1.717.717 0 0 1-.371-.1.79.79 0 0 1-.273-.272.735.735 0 0 1-.102-.381Zm.363 0a.36.36 0 0 0 .111.269.38.38 0 0 0 .273.109.35.35 0 0 0 .263-.109.365.365 0 0 0 .109-.269.38.38 0 0 0-.109-.276.349.349 0 0 0-.263-.111.378.378 0 0 0-.384.387ZM82 233.903h.562a1.79 1.79 0 0 1-.232.723 1.353 1.353 0 0 1-.53.507c-.228.123-.513.185-.855.185-.25 0-.478-.047-.683-.141a1.516 1.516 0 0 1-.524-.398 1.868 1.868 0 0 1-.34-.624 2.666 2.666 0 0 1-.117-.815v-.424c0-.299.039-.57.117-.812.08-.244.194-.453.343-.627.15-.174.33-.308.542-.401a1.73 1.73 0 0 1 .712-.141c.322 0 .594.061.817.182a1.3 1.3 0 0 1 .518.504c.126.212.203.46.232.741h-.563a1.576 1.576 0 0 0-.152-.513.794.794 0 0 0-.316-.334c-.137-.078-.316-.117-.536-.117-.19 0-.357.036-.501.108a1.015 1.015 0 0 0-.36.308 1.431 1.431 0 0 0-.218.478 2.418 2.418 0 0 0-.073.618v.43c0 .209.022.406.065.589.045.184.112.345.202.484.09.138.204.248.343.328a.988.988 0 0 0 .492.117c.24 0 .431-.038.574-.114a.754.754 0 0 0 .322-.328c.075-.143.127-.314.159-.513Z" fill="#000" fill-opacity=".87"/></svg>