<svg width="273" height="232" viewBox="0 0 273 232" fill="none" xmlns="http://www.w3.org/2000/svg">
<g clip-path="url(#clip0_12977_5310)">
<path fill-rule="evenodd" clip-rule="evenodd" d="M83.5113 38.3627V0.779785L84.8398 0.779785V38.3627H83.5113Z" fill="#91A3BE"/>
<path d="M83.5117 37.9788C96.3059 37.9788 108.975 40.4988 120.795 45.3949C132.615 50.291 143.355 57.4674 152.402 66.5142C161.449 75.561 168.625 86.3012 173.522 98.1215C178.418 109.942 180.938 122.611 180.938 135.405H179.61C179.61 122.785 177.125 110.289 172.295 98.6295C167.466 86.9703 160.387 76.3765 151.464 67.4529C142.54 58.5293 131.946 51.4508 120.287 46.6214C108.628 41.792 96.1316 39.3063 83.5117 39.3063V37.9788Z" fill="#91A3BE"/>
<path fill-rule="evenodd" clip-rule="evenodd" d="M179.608 134.962L252.234 134.962L252.234 136.291L179.608 136.291L179.608 134.962Z" fill="#91A3BE"/>
<path d="M262.421 146.033C256.551 146.033 251.792 141.274 251.792 135.405C251.792 129.535 256.551 124.776 262.421 124.776C268.29 124.776 273.049 129.535 273.049 135.405C273.049 141.274 268.29 146.033 262.421 146.033Z" fill="#F4F8FE"/>
<path fill-rule="evenodd" clip-rule="evenodd" d="M253.121 135.405C253.121 140.541 257.284 144.704 262.421 144.704C267.557 144.704 271.72 140.541 271.72 135.405C271.72 130.269 267.557 126.105 262.421 126.105C257.284 126.105 253.121 130.269 253.121 135.405ZM251.792 135.405C251.792 141.274 256.551 146.033 262.421 146.033C268.29 146.033 273.049 141.274 273.049 135.405C273.049 129.535 268.29 124.776 262.421 124.776C256.551 124.776 251.792 129.535 251.792 135.405Z" fill="#91A3BE"/>
<rect x="166.101" y="52.8142" width="165.181" height="165.181" rx="82.5907" transform="rotate(90 166.101 52.8142)" stroke="#91A3BE" stroke-width="1.32854"/>
<g clip-path="url(#clip1_12977_5310)">
<path d="M47.4509 164.107C48.4266 164.107 49.2175 163.312 49.2175 162.333C49.2175 161.353 48.4266 160.559 47.4509 160.559C46.4752 160.559 45.6842 161.353 45.6842 162.333C45.6842 163.312 46.4752 164.107 47.4509 164.107Z" fill="#305680"/>
<path fill-rule="evenodd" clip-rule="evenodd" d="M105.207 150.243C104.855 149.524 104.04 149.161 103.273 149.383C101.176 149.989 99.2547 151.109 97.6696 152.643C97.1596 153.137 97.0208 153.902 97.3248 154.544C97.4754 154.862 97.5469 155.218 97.5297 155.578C97.5125 155.938 97.4075 156.283 97.2286 156.582C97.05 156.88 96.8052 157.12 96.5224 157.283C96.24 157.446 95.9261 157.529 95.6106 157.529H95.5607C94.8353 157.529 94.1953 158.006 93.9845 158.703C93.5832 160.029 93.3687 161.437 93.3687 162.893C93.3678 163.838 93.4591 164.78 93.6413 165.706C93.8063 166.545 94.58 167.119 95.4265 167.031C95.7939 166.993 96.1668 167.069 96.4992 167.255C96.8324 167.441 97.1139 167.732 97.2994 168.099C97.4852 168.465 97.5634 168.886 97.5197 169.305C97.4761 169.724 97.3137 170.114 97.0612 170.425C96.5427 171.065 96.5726 171.99 97.1313 172.595C98.747 174.343 100.776 175.632 103.023 176.33C103.892 176.6 104.814 176.112 105.083 175.239C105.214 174.815 105.468 174.455 105.798 174.205C106.127 173.955 106.516 173.826 106.909 173.826C107.301 173.826 107.69 173.955 108.019 174.205C108.349 174.455 108.603 174.815 108.734 175.239C109.003 176.112 109.925 176.6 110.794 176.33C113.041 175.632 115.07 174.344 116.686 172.596C117.244 171.991 117.274 171.066 116.756 170.426C116.503 170.115 116.341 169.725 116.297 169.306C116.254 168.887 116.332 168.466 116.518 168.099C116.703 167.733 116.985 167.442 117.318 167.256C117.65 167.07 118.023 166.994 118.391 167.032C119.237 167.12 120.011 166.545 120.176 165.706C120.354 164.797 120.448 163.857 120.448 162.895C120.45 161.475 120.242 160.061 119.833 158.704C119.62 157.998 118.967 157.519 118.232 157.53C117.914 157.534 117.598 157.454 117.312 157.293C117.026 157.132 116.777 156.894 116.596 156.594C116.414 156.295 116.306 155.948 116.288 155.586C116.269 155.224 116.34 154.865 116.492 154.544C116.796 153.902 116.657 153.137 116.147 152.643C114.562 151.109 112.641 149.989 110.544 149.383C109.777 149.161 108.962 149.524 108.61 150.243C108.443 150.585 108.191 150.864 107.891 151.056C107.591 151.247 107.25 151.345 106.908 151.345C106.566 151.345 106.226 151.247 105.926 151.056C105.626 150.864 105.374 150.585 105.207 150.243ZM100.821 155.737C100.843 155.274 100.806 154.811 100.713 154.36C101.444 153.779 102.245 153.305 103.094 152.948C103.407 153.293 103.765 153.597 104.161 153.849C104.847 154.287 105.624 154.554 106.429 154.631L106.909 154.653C107.883 154.654 108.834 154.373 109.656 153.849C110.052 153.597 110.41 153.293 110.723 152.948C111.572 153.305 112.373 153.779 113.103 154.36C113.009 154.817 112.973 155.286 112.997 155.755C113.043 156.662 113.313 157.544 113.783 158.318C114.254 159.093 114.913 159.735 115.7 160.179C116.09 160.399 116.505 160.565 116.934 160.676C117.08 161.404 117.154 162.147 117.154 162.893V162.894C117.154 163.21 117.141 163.523 117.115 163.833C116.628 163.94 116.156 164.119 115.715 164.365C114.797 164.878 114.057 165.659 113.581 166.599C113.105 167.539 112.911 168.601 113.02 169.65C113.075 170.178 113.206 170.693 113.407 171.178C112.701 171.784 111.922 172.288 111.092 172.677C110.787 172.257 110.422 171.881 110.005 171.565C109.112 170.887 108.028 170.517 106.909 170.517C105.789 170.517 104.705 170.887 103.812 171.565C103.395 171.881 103.03 172.257 102.725 172.677C101.895 172.288 101.116 171.784 100.41 171.178C100.611 170.692 100.742 170.177 100.797 169.649C100.906 168.6 100.712 167.539 100.236 166.599C99.7599 165.659 99.0198 164.878 98.1022 164.365C97.6608 164.118 97.1889 163.939 96.7017 163.832C96.6759 163.521 96.6631 163.208 96.6634 162.896L96.6634 162.894C96.6634 162.132 96.7391 161.39 96.8828 160.676C97.3297 160.561 97.7609 160.384 98.1648 160.151C98.9423 159.702 99.5902 159.058 100.053 158.286C100.515 157.514 100.778 156.637 100.821 155.737Z" fill="#305680"/>
<path fill-rule="evenodd" clip-rule="evenodd" d="M103.052 158.735C104.075 157.708 105.463 157.13 106.911 157.13C107.627 157.13 108.337 157.272 108.999 157.547C109.661 157.823 110.263 158.227 110.77 158.735C111.276 159.244 111.678 159.848 111.952 160.513C112.227 161.178 112.368 161.891 112.368 162.61C112.368 163.33 112.227 164.042 111.952 164.707C111.678 165.372 111.276 165.976 110.77 166.485C110.263 166.994 109.661 167.397 108.999 167.673C108.337 167.948 107.627 168.09 106.911 168.09C105.463 168.09 104.075 167.513 103.052 166.485C102.028 165.457 101.453 164.063 101.453 162.61C101.453 161.157 102.028 159.763 103.052 158.735ZM106.911 160.439C106.337 160.439 105.787 160.667 105.382 161.075C104.976 161.482 104.748 162.034 104.748 162.61C104.748 163.186 104.976 163.738 105.382 164.146C105.787 164.553 106.337 164.782 106.911 164.782C107.195 164.782 107.476 164.725 107.738 164.616C108.001 164.507 108.239 164.347 108.44 164.146C108.641 163.944 108.8 163.705 108.909 163.441C109.017 163.178 109.073 162.895 109.073 162.61C109.073 162.325 109.017 162.043 108.909 161.779C108.8 161.516 108.641 161.276 108.44 161.075C108.239 160.873 108.001 160.713 107.738 160.604C107.476 160.495 107.195 160.439 106.911 160.439Z" fill="#305680"/>
<path fill-rule="evenodd" clip-rule="evenodd" d="M57.1991 155.568V170.781H64.6323V155.568H57.1991ZM68.1657 170.781V154.61C68.1657 153.179 67.011 152.02 65.5867 152.02H56.2447C54.8204 152.02 53.6657 153.179 53.6657 154.61V170.781H49.2175V169.428C49.2175 168.448 48.4266 167.654 47.4509 167.654C46.4752 167.654 45.6842 168.448 45.6842 169.428V171.739C45.6842 173.17 46.8389 174.329 48.2632 174.329H89.9569C90.9326 174.329 91.7236 173.535 91.7236 172.555C91.7236 171.575 90.9326 170.781 89.9569 170.781H68.1657Z" fill="#305680"/>
<path fill-rule="evenodd" clip-rule="evenodd" d="M62.1609 113.825L57.5874 136.788H69.272L64.1707 113.825H62.1609ZM72.8921 136.788H82.0399L77.9973 119.535H75.1289L72.108 133.258L72.8921 136.788ZM70.2904 125.076L67.4527 112.303C67.1897 111.119 66.1436 110.277 64.9356 110.277H61.3786C60.1492 110.277 59.0907 111.149 58.8496 112.359L53.9841 136.788H53.4015C51.9772 136.788 50.8225 137.947 50.8225 139.377V142.12H48.2632C46.8389 142.12 45.6842 143.279 45.6842 144.709V155.237C45.6842 156.216 46.4752 157.011 47.4509 157.011C48.4266 157.011 49.2175 156.216 49.2175 155.237V145.668H52.5892L117.435 146.036V147.127C117.435 148.106 118.226 148.901 119.201 148.901C120.177 148.901 120.968 148.106 120.968 147.127V145.083C120.968 143.658 119.822 142.501 118.403 142.493L89.2866 142.328V139.377C89.2866 137.947 88.1319 136.788 86.7076 136.788H85.6698L81.2635 117.984C80.9894 116.814 79.9499 115.987 78.7531 115.987H74.3625C73.1526 115.987 72.1054 116.832 71.8443 118.018L70.2904 125.076ZM85.7532 142.308V140.336H54.3559V142.13L85.7532 142.308Z" fill="#305680"/>
<path fill-rule="evenodd" clip-rule="evenodd" d="M85.0859 99.6356C86.1951 100.111 87.4609 99.9651 88.4431 99.2486C89.0244 98.8246 89.7283 98.5763 90.4985 98.5763C92.3363 98.5763 93.8556 100.017 94.0619 101.869C94.2275 103.357 95.2498 104.59 96.6411 104.979C98.5456 105.511 99.9431 107.323 99.9431 109.465C99.9431 112.03 97.9436 114.11 95.4771 114.11C93.7113 114.11 92.178 113.044 91.4518 111.481C91.0008 110.511 90.1609 109.797 89.1566 109.53C88.1524 109.264 87.0862 109.472 86.2432 110.099C85.2969 110.803 84.1422 111.216 82.8843 111.216C80.9301 111.216 79.2012 110.212 78.1486 108.656C77.0579 107.044 74.9344 106.621 73.3488 107.701C72.9136 107.998 72.396 108.17 71.829 108.17C70.2924 108.17 69.0468 106.875 69.0468 105.277C69.0468 103.679 70.2924 102.384 71.829 102.384C72.383 102.384 72.8893 102.548 73.3178 102.832C74.9169 103.89 77.0348 103.438 78.1049 101.811C79.1526 100.218 80.9029 99.1855 82.8843 99.1855C83.6706 99.1855 84.4119 99.3466 85.0859 99.6356ZM75.2042 99.748C76.8789 97.2016 79.694 95.5305 82.8843 95.5305C84.138 95.5305 85.3337 95.7886 86.4251 96.2564C87.5783 95.4151 88.983 94.9214 90.4985 94.9214C94.1415 94.9214 97.1438 97.7741 97.5528 101.449C100.954 102.399 103.457 105.628 103.457 109.465C103.457 114.049 99.8845 117.765 95.4771 117.765C93.2895 117.765 91.3075 116.849 89.8659 115.367C89.2221 114.704 88.686 113.929 88.2876 113.072C87.4367 113.705 86.4788 114.192 85.4476 114.499C84.6333 114.741 83.7734 114.871 82.8843 114.871C79.7381 114.871 76.9569 113.246 75.2744 110.759C74.2844 111.433 73.1007 111.825 71.829 111.825C68.3516 111.825 65.5326 108.894 65.5326 105.277C65.5326 101.66 68.3516 98.7286 71.829 98.7286C73.0708 98.7286 74.2287 99.1025 75.2042 99.748Z" fill="#305680"/>
</g>
</g>
<defs>
<clipPath id="clip0_12977_5310">
<rect width="232" height="273" fill="white" transform="matrix(0 1 -1 0 273 0)"/>
</clipPath>
<clipPath id="clip1_12977_5310">
<rect width="81.4836" height="81.4836" fill="white" transform="translate(42.7689 94.6631)"/>
</clipPath>
</defs>
</svg>
