<svg width="331" height="290" fill="none" xmlns="http://www.w3.org/2000/svg"><rect x="171.75" y="49.75" width="158.5" height="158.5" rx="39.25" fill="#F4F8FE" stroke="#3E9AF8" stroke-width="1.5"/><path fill="#fff" stroke="#1A1A1A" stroke-width=".5" d="M201.25 79.75h99.5v99.5h-99.5z"/><circle cx="251" cy="92" r="4.75" fill="#fff" stroke="#1A1A1A" stroke-width=".5"/><circle cx="229" cy="92" r="4.75" fill="#fff" stroke="#1A1A1A" stroke-width=".5"/><circle cx="273" cy="92" r="4.75" fill="#fff" stroke="#1A1A1A" stroke-width=".5"/><circle cx="251" cy="167" r="4.75" fill="#fff" stroke="#1A1A1A" stroke-width=".5"/><circle cx="229" cy="167" r="4.75" fill="#fff" stroke="#1A1A1A" stroke-width=".5"/><circle cx="273" cy="167" r="4.75" fill="#fff" stroke="#1A1A1A" stroke-width=".5"/><rect x="238.75" y="124.75" width="24.5" height="19.5" rx=".25" fill="#DEDEDE" stroke="#1A1A1A" stroke-width=".5"/><rect x="268.75" y="124.75" width="24.5" height="19.5" rx=".25" fill="#DEDEDE" stroke="#1A1A1A" stroke-width=".5"/><rect x="208.75" y="124.75" width="24.5" height="19.5" rx=".25" fill="#DEDEDE" stroke="#1A1A1A" stroke-width=".5"/><path d="M244.509 138v-.511l1.92-2.103c.225-.246.411-.46.557-.642.146-.183.254-.356.324-.517a1.25 1.25 0 0 0 .108-.511.945.945 0 0 0-.546-.878 1.294 1.294 0 0 0-.568-.122c-.224 0-.419.046-.585.139a.959.959 0 0 0-.384.384 1.199 1.199 0 0 0-.133.579h-.671c0-.341.079-.64.236-.898a1.64 1.64 0 0 1 .642-.602c.273-.144.579-.216.918-.216.341 0 .643.072.906.216.263.144.47.338.619.583.15.244.225.516.225.815 0 .214-.039.423-.117.628a2.802 2.802 0 0 1-.397.679c-.188.248-.448.551-.782.909l-1.307 1.398v.045h2.705V138h-3.67Zm4.843 0v-.511l1.921-2.103c.225-.246.411-.46.557-.642.145-.183.253-.356.323-.517a1.25 1.25 0 0 0 .108-.511.944.944 0 0 0-.147-.531.967.967 0 0 0-.398-.347 1.297 1.297 0 0 0-.568-.122c-.224 0-.419.046-.585.139a.959.959 0 0 0-.384.384 1.199 1.199 0 0 0-.134.579h-.67c0-.341.079-.64.236-.898a1.64 1.64 0 0 1 .642-.602c.273-.144.578-.216.917-.216.341 0 .643.072.907.216.263.144.469.338.619.583.15.244.224.516.224.815 0 .214-.038.423-.116.628a2.777 2.777 0 0 1-.398.679c-.187.248-.448.551-.781.909l-1.307 1.398v.045h2.705V138h-3.671Zm6.742.08c-.428 0-.793-.117-1.094-.35-.301-.235-.531-.575-.69-1.02-.159-.447-.239-.987-.239-1.619 0-.629.08-1.166.239-1.611.161-.447.392-.788.693-1.023a1.724 1.724 0 0 1 1.091-.355c.424 0 .787.119 1.088.355.303.235.534.576.693 1.023.161.445.241.982.241 1.611 0 .632-.079 1.172-.238 1.619-.159.445-.389.785-.691 1.02-.301.233-.665.35-1.093.35Zm0-.625c.424 0 .754-.205.988-.614.235-.409.353-.993.353-1.75 0-.504-.054-.933-.162-1.287-.106-.354-.26-.624-.461-.81a1.015 1.015 0 0 0-.718-.278c-.421 0-.749.207-.986.622-.237.413-.355.997-.355 1.753 0 .504.053.932.159 1.284.106.352.258.62.457.804.201.184.443.276.725.276ZM274.509 138v-.511l1.92-2.103c.225-.246.411-.46.557-.642.146-.183.254-.356.324-.517a1.25 1.25 0 0 0 .108-.511.945.945 0 0 0-.546-.878 1.294 1.294 0 0 0-.568-.122c-.224 0-.419.046-.585.139a.959.959 0 0 0-.384.384 1.199 1.199 0 0 0-.133.579h-.671c0-.341.079-.64.236-.898a1.64 1.64 0 0 1 .642-.602c.273-.144.579-.216.918-.216.341 0 .643.072.906.216.263.144.47.338.619.583.15.244.225.516.225.815 0 .214-.039.423-.117.628a2.802 2.802 0 0 1-.397.679c-.188.248-.448.551-.782.909l-1.307 1.398v.045h2.705V138h-3.67Zm4.843 0v-.511l1.921-2.103c.225-.246.411-.46.557-.642.145-.183.253-.356.323-.517a1.25 1.25 0 0 0 .108-.511.944.944 0 0 0-.147-.531.967.967 0 0 0-.398-.347 1.297 1.297 0 0 0-.568-.122c-.224 0-.419.046-.585.139a.959.959 0 0 0-.384.384 1.199 1.199 0 0 0-.134.579h-.67c0-.341.079-.64.236-.898a1.64 1.64 0 0 1 .642-.602c.273-.144.578-.216.917-.216.341 0 .643.072.907.216.263.144.469.338.619.583.15.244.224.516.224.815 0 .214-.038.423-.116.628a2.777 2.777 0 0 1-.398.679c-.187.248-.448.551-.781.909l-1.307 1.398v.045h2.705V138h-3.671Zm6.742.08c-.428 0-.793-.117-1.094-.35-.301-.235-.531-.575-.69-1.02-.159-.447-.239-.987-.239-1.619 0-.629.08-1.166.239-1.611.161-.447.392-.788.693-1.023a1.724 1.724 0 0 1 1.091-.355c.424 0 .787.119 1.088.355.303.235.534.576.693 1.023.161.445.241.982.241 1.611 0 .632-.079 1.172-.238 1.619-.159.445-.389.785-.691 1.02-.301.233-.665.35-1.093.35Zm0-.625c.424 0 .754-.205.988-.614.235-.409.353-.993.353-1.75 0-.504-.054-.933-.162-1.287-.106-.354-.26-.624-.461-.81a1.015 1.015 0 0 0-.718-.278c-.421 0-.749.207-.986.622-.237.413-.355.997-.355 1.753 0 .504.053.932.159 1.284.106.352.258.62.457.804.201.184.443.276.725.276ZM214.509 138v-.511l1.92-2.103c.225-.246.411-.46.557-.642.146-.183.254-.356.324-.517a1.25 1.25 0 0 0 .108-.511.945.945 0 0 0-.546-.878 1.294 1.294 0 0 0-.568-.122c-.224 0-.419.046-.585.139a.959.959 0 0 0-.384.384 1.199 1.199 0 0 0-.133.579h-.671c0-.341.079-.64.236-.898a1.64 1.64 0 0 1 .642-.602c.273-.144.579-.216.918-.216.341 0 .643.072.906.216.263.144.47.338.619.583.15.244.225.516.225.815 0 .214-.039.423-.117.628a2.802 2.802 0 0 1-.397.679c-.188.248-.448.551-.782.909l-1.307 1.398v.045h2.705V138h-3.67Zm4.843 0v-.511l1.921-2.103c.225-.246.411-.46.557-.642.145-.183.253-.356.323-.517a1.25 1.25 0 0 0 .108-.511.944.944 0 0 0-.147-.531.967.967 0 0 0-.398-.347 1.297 1.297 0 0 0-.568-.122c-.224 0-.419.046-.585.139a.959.959 0 0 0-.384.384 1.199 1.199 0 0 0-.134.579h-.67c0-.341.079-.64.236-.898a1.64 1.64 0 0 1 .642-.602c.273-.144.578-.216.917-.216.341 0 .643.072.907.216.263.144.469.338.619.583.15.244.224.516.224.815 0 .214-.038.423-.116.628a2.777 2.777 0 0 1-.398.679c-.187.248-.448.551-.781.909l-1.307 1.398v.045h2.705V138h-3.671Zm6.742.08c-.428 0-.793-.117-1.094-.35-.301-.235-.531-.575-.69-1.02-.159-.447-.239-.987-.239-1.619 0-.629.08-1.166.239-1.611.161-.447.392-.788.693-1.023a1.724 1.724 0 0 1 1.091-.355c.424 0 .787.119 1.088.355.303.235.534.576.693 1.023.161.445.241.982.241 1.611 0 .632-.079 1.172-.238 1.619-.159.445-.389.785-.691 1.02-.301.233-.665.35-1.093.35Zm0-.625c.424 0 .754-.205.988-.614.235-.409.353-.993.353-1.75 0-.504-.054-.933-.162-1.287-.106-.354-.26-.624-.461-.81a1.015 1.015 0 0 0-.718-.278c-.421 0-.749.207-.986.622-.237.413-.355.997-.355 1.753 0 .504.053.932.159 1.284.106.352.258.62.457.804.201.184.443.276.725.276Z" fill="#002878"/><circle cx="221" cy="116" r="2.5" fill="#198038"/><path d="M220.987 110.167v.583h-2.142v-.583h2.142Zm-1.937-3.683v4.266h-.735v-4.266h.735Zm4.409-.014v4.28h-.706v-3.442l-1.046.354v-.583l1.667-.609h.085Z" fill="#1A1A1A"/><circle cx="250.75" cy="116" r="2.5" fill="#198038"/><path d="M250.737 110.167v.583h-2.142v-.583h2.142Zm-1.937-3.683v4.266h-.735v-4.266h.735Zm5.34 3.704v.562h-2.859v-.483l1.389-1.515c.152-.172.272-.32.36-.445.088-.125.15-.238.185-.337a.862.862 0 0 0-.021-.651.562.562 0 0 0-.217-.243.642.642 0 0 0-.348-.091.735.735 0 0 0-.399.103.643.643 0 0 0-.243.284.968.968 0 0 0-.082.41h-.706c0-.248.057-.474.17-.679.113-.207.277-.372.492-.493a1.54 1.54 0 0 1 .777-.184c.285 0 .527.048.726.143.199.096.351.232.454.408.106.175.158.383.158.624 0 .132-.021.264-.064.395a1.884 1.884 0 0 1-.185.393 3.398 3.398 0 0 1-.278.389c-.107.129-.226.26-.354.393l-.923 1.017h1.968Z" fill="#1A1A1A"/><circle cx="281" cy="116" r="2.5" fill="#198038"/><path d="M280.987 110.167v.583h-2.142v-.583h2.142Zm-1.937-3.683v4.266h-.735v-4.266h.735Zm3.31 1.814h.422c.164 0 .3-.028.407-.085a.551.551 0 0 0 .243-.234.72.72 0 0 0 .08-.343.752.752 0 0 0-.074-.346.497.497 0 0 0-.216-.226.765.765 0 0 0-.367-.079.749.749 0 0 0-.34.077.58.58 0 0 0-.237.21.585.585 0 0 0-.088.323h-.709c0-.227.06-.428.179-.604s.281-.313.486-.413c.207-.101.44-.152.698-.152.275 0 .515.046.72.137.207.09.368.225.484.405.115.179.173.402.173.668a.9.9 0 0 1-.085.369 1.089 1.089 0 0 1-.252.343c-.112.101-.25.184-.416.249a1.649 1.649 0 0 1-.578.093h-.53v-.392Zm0 .551v-.387h.53c.25 0 .463.029.639.088.178.058.322.139.434.243a.928.928 0 0 1 .243.349c.053.13.079.269.079.416 0 .199-.036.377-.108.533a1.085 1.085 0 0 1-.302.392 1.343 1.343 0 0 1-.46.244 1.906 1.906 0 0 1-1.096.005 1.435 1.435 0 0 1-.451-.225 1.122 1.122 0 0 1-.316-.378 1.152 1.152 0 0 1-.115-.527h.706c0 .127.03.239.088.336a.635.635 0 0 0 .252.226c.11.055.235.082.375.082a.857.857 0 0 0 .384-.079.557.557 0 0 0 .246-.234.748.748 0 0 0 .088-.375.754.754 0 0 0-.097-.405.569.569 0 0 0-.275-.228 1.067 1.067 0 0 0-.422-.076h-.422ZM249.959 153.471l1.122-3.487h.812l-1.53 4.266h-.548l.144-.779Zm-1.037-3.487 1.113 3.487.152.779h-.55l-1.524-4.266h.809Z" fill="#1A1A1A"/><rect x="51.75" y="130.75" width="158.5" height="158.5" rx="39.25" fill="#F4F8FE" stroke="#3E9AF8" stroke-width="1.5"/><path fill="#fff" stroke="#1A1A1A" stroke-width=".6" d="M71.3 180.8h119.4v59.4H71.3z"/><rect x="134.9" y="204.8" width="37.8" height="23.4" rx=".3" fill="#DEDEDE" stroke="#1A1A1A" stroke-width=".6"/><path d="M142.877 221.7v-.844l3.168-3.468c.372-.407.678-.76.919-1.06.241-.303.419-.587.534-.853.119-.269.179-.55.179-.844 0-.337-.082-.629-.244-.876a1.582 1.582 0 0 0-.656-.572 2.137 2.137 0 0 0-.938-.202c-.369 0-.691.077-.966.23-.271.15-.482.361-.632.633a1.982 1.982 0 0 0-.221.956h-1.106c0-.562.13-1.056.389-1.481.26-.425.613-.756 1.06-.994.45-.237.954-.356 1.514-.356.562 0 1.061.119 1.495.356.434.238.775.558 1.022.961.247.403.37.852.37 1.345 0 .354-.064.699-.192 1.036-.125.335-.344.708-.656 1.121-.31.409-.739.909-1.289 1.5l-2.157 2.306v.075h4.463v1.031h-6.056Zm7.992 0v-.844l3.169-3.468c.371-.407.678-.76.918-1.06.241-.303.419-.587.535-.853.118-.269.178-.55.178-.844a1.554 1.554 0 0 0-.9-1.448 2.134 2.134 0 0 0-.938-.202c-.368 0-.69.077-.965.23a1.58 1.58 0 0 0-.633.633c-.147.272-.22.591-.22.956h-1.107c0-.562.13-1.056.389-1.481.26-.425.613-.756 1.06-.994.45-.237.954-.356 1.514-.356.562 0 1.061.119 1.495.356.434.238.775.558 1.022.961.247.403.37.852.37 1.345 0 .354-.064.699-.192 1.036-.125.335-.344.708-.656 1.121-.31.409-.739.909-1.289 1.5l-2.156 2.306v.075h4.462v1.031h-6.056Zm11.123.131c-.706 0-1.308-.192-1.804-.576-.497-.388-.877-.949-1.14-1.683-.262-.737-.393-1.628-.393-2.672 0-1.037.131-1.923.393-2.658.266-.737.647-1.3 1.144-1.687.5-.391 1.1-.586 1.8-.586s1.299.195 1.796.586c.5.387.881.95 1.143 1.687.266.735.399 1.621.399 2.658 0 1.044-.132 1.935-.394 2.672-.263.734-.642 1.295-1.139 1.683-.497.384-1.099.576-1.805.576Zm0-1.031c.7 0 1.244-.337 1.631-1.012.388-.675.582-1.638.582-2.888 0-.831-.089-1.539-.267-2.123-.175-.585-.429-1.03-.76-1.336a1.677 1.677 0 0 0-1.186-.46c-.694 0-1.236.343-1.626 1.027-.391.681-.586 1.645-.586 2.892 0 .831.087 1.538.262 2.119.175.581.427 1.023.755 1.327.331.303.73.454 1.195.454Z" fill="#002878"/><rect x="89.3" y="204.8" width="37.8" height="23.4" rx=".3" fill="#DEDEDE" stroke="#1A1A1A" stroke-width=".6"/><path d="M96.77 221.7v-.844l3.169-3.468c.372-.407.678-.76.919-1.06.24-.303.419-.587.534-.853.119-.269.178-.55.178-.844a1.56 1.56 0 0 0-.243-.876 1.585 1.585 0 0 0-.657-.572 2.13 2.13 0 0 0-.937-.202c-.369 0-.69.077-.966.23a1.58 1.58 0 0 0-.633.633c-.147.272-.22.591-.22.956h-1.106c0-.562.13-1.056.389-1.481.26-.425.612-.756 1.06-.994a3.2 3.2 0 0 1 1.513-.356c.563 0 1.061.119 1.496.356.434.238.775.558 1.021.961.247.403.371.852.371 1.345 0 .354-.064.699-.192 1.036-.125.335-.344.708-.657 1.121-.309.409-.739.909-1.289 1.5l-2.156 2.306v.075h4.463v1.031H96.77Zm11.236.131c-.619 0-1.17-.106-1.654-.318a2.834 2.834 0 0 1-1.149-.886 2.384 2.384 0 0 1-.459-1.327h1.181c.025.31.131.577.319.802.187.222.433.394.736.515.303.122.639.183 1.007.183.413 0 .779-.072 1.097-.215.319-.144.569-.344.75-.6.182-.257.272-.554.272-.891 0-.353-.087-.664-.262-.933a1.739 1.739 0 0 0-.769-.637c-.338-.153-.75-.23-1.238-.23h-.768v-1.031h.768c.382 0 .716-.069 1.004-.207a1.556 1.556 0 0 0 .928-1.462c0-.325-.072-.608-.216-.848a1.475 1.475 0 0 0-.609-.563 1.98 1.98 0 0 0-.919-.202c-.331 0-.644.061-.938.183-.29.119-.528.292-.712.521a1.357 1.357 0 0 0-.3.815h-1.125c.019-.503.17-.944.455-1.322a2.857 2.857 0 0 1 1.115-.89 3.602 3.602 0 0 1 1.524-.319c.593 0 1.103.12 1.528.361.425.237.751.551.98.942.228.391.342.813.342 1.266 0 .54-.142 1.001-.427 1.383a2.163 2.163 0 0 1-1.148.792v.075c.606.1 1.079.358 1.42.773.341.413.511.924.511 1.533 0 .522-.142.991-.427 1.406a2.884 2.884 0 0 1-1.153.975c-.487.238-1.042.356-1.664.356Zm8.292 0c-.706 0-1.307-.192-1.804-.576-.497-.388-.877-.949-1.139-1.683-.263-.737-.394-1.628-.394-2.672 0-1.037.131-1.923.394-2.658.265-.737.647-1.3 1.143-1.687.5-.391 1.1-.586 1.8-.586s1.299.195 1.796.586c.5.387.881.95 1.143 1.687.266.735.399 1.621.399 2.658 0 1.044-.131 1.935-.394 2.672-.262.734-.642 1.295-1.139 1.683-.497.384-1.098.576-1.805.576Zm0-1.031c.7 0 1.244-.337 1.632-1.012.387-.675.581-1.638.581-2.888 0-.831-.089-1.539-.267-2.123-.175-.585-.428-1.03-.76-1.336a1.677 1.677 0 0 0-1.186-.46c-.693 0-1.236.343-1.626 1.027-.391.681-.586 1.645-.586 2.892 0 .831.087 1.538.262 2.119.175.581.427 1.023.755 1.327.331.303.73.454 1.195.454Z" fill="#002878"/><path d="M104.528 197.7v-5.891h.905v5.891h-.905Zm.461-6.873a.645.645 0 0 1-.457-.18.579.579 0 0 1-.188-.433c0-.169.063-.313.188-.434.128-.12.28-.18.457-.18a.63.63 0 0 1 .452.18.576.576 0 0 1 .192.434.572.572 0 0 1-.192.433.63.63 0 0 1-.452.18Zm3.007 3.329v3.544h-.905v-5.891h.875v.921h.076c.138-.299.348-.54.629-.721.282-.184.645-.276 1.09-.276.398 0 .747.081 1.047.245.299.161.531.407.698.736.166.328.249.742.249 1.243v3.743h-.905v-3.682c0-.462-.12-.823-.361-1.081-.24-.261-.57-.391-.989-.391-.289 0-.547.062-.775.188a1.341 1.341 0 0 0-.533.548c-.13.24-.196.532-.196.874ZM148.622 197.823c-.532 0-.999-.127-1.4-.38a2.578 2.578 0 0 1-.936-1.062c-.222-.455-.334-.987-.334-1.596 0-.613.112-1.149.334-1.607.225-.457.537-.813.936-1.066.401-.253.868-.379 1.4-.379.531 0 .997.126 1.396.379.401.253.713.609.935 1.066.225.458.338.994.338 1.607 0 .609-.113 1.141-.338 1.596a2.541 2.541 0 0 1-.935 1.062c-.399.253-.865.38-1.396.38Zm0-.813c.404 0 .736-.104.997-.311.261-.207.454-.479.579-.817.125-.337.188-.703.188-1.097 0-.393-.063-.76-.188-1.1a1.855 1.855 0 0 0-.579-.825c-.261-.21-.593-.314-.997-.314s-.737.104-.998.314a1.87 1.87 0 0 0-.579.825c-.125.34-.188.707-.188 1.1 0 .394.063.76.188 1.097.126.338.319.61.579.817.261.207.594.311.998.311Zm7.763-1.718v-3.483h.905v5.891h-.905v-.997h-.061a1.926 1.926 0 0 1-.645.763c-.291.207-.659.311-1.104.311a1.97 1.97 0 0 1-.982-.242 1.692 1.692 0 0 1-.675-.736c-.164-.33-.245-.745-.245-1.247v-3.743h.905v3.682c0 .43.12.772.36 1.028.243.256.552.383.928.383.225 0 .454-.057.687-.172.235-.115.432-.292.59-.529.162-.238.242-.541.242-.909Zm5.125-3.483v.767h-3.053v-.767h3.053Zm-2.163-1.411h.905v5.615c0 .255.037.447.111.575.077.125.174.21.292.253.12.041.246.061.379.061.1 0 .182-.005.246-.015l.153-.031.184.814a1.928 1.928 0 0 1-.675.107c-.255 0-.506-.055-.751-.165a1.492 1.492 0 0 1-.606-.502c-.159-.225-.238-.509-.238-.852v-5.86Z" fill="#1A1A1A"/><rect x=".75" y=".75" width="158.5" height="158.5" rx="39.25" fill="#F4F8FE" stroke="#3E9AF8" stroke-width="1.5"/><path fill="#fff" stroke="#1A1A1A" stroke-width=".6" d="M50.3 19.8h59.4v119.4H50.3z"/><path d="M65.3 49.8h29.4v59.1a.3.3 0 0 1-.3.3H65.6a.3.3 0 0 1-.3-.3V49.8Z" fill="#fff" stroke="#1A1A1A" stroke-width=".6"/><rect x="57.5" y="49.8" width="45" height="11.4" rx=".3" fill="#999" stroke="#1A1A1A" stroke-width=".6"/><path d="M79.014 78.712v.593c0 .704-.088 1.336-.264 1.894a4.069 4.069 0 0 1-.76 1.425c-.331.39-.729.69-1.193.896-.46.206-.975.31-1.547.31a3.718 3.718 0 0 1-1.527-.31 3.433 3.433 0 0 1-1.199-.896 4.173 4.173 0 0 1-.78-1.425c-.185-.558-.277-1.19-.277-1.894v-.594c0-.704.09-1.334.27-1.888a4.176 4.176 0 0 1 .78-1.424 3.34 3.34 0 0 1 1.193-.903c.464-.206.973-.31 1.528-.31.57 0 1.087.104 1.546.31.464.207.862.507 1.193.903.335.39.59.865.767 1.424.18.554.27 1.184.27 1.889Zm-1.23.593v-.606c0-.559-.059-1.053-.175-1.483a3.072 3.072 0 0 0-.496-1.083 2.14 2.14 0 0 0-.806-.663 2.445 2.445 0 0 0-1.07-.226c-.386 0-.736.075-1.05.225-.31.15-.576.372-.8.664-.219.293-.388.654-.508 1.083-.12.43-.181.924-.181 1.483v.606c0 .562.06 1.06.18 1.495.12.43.293.793.516 1.09.228.291.496.513.806.663.313.15.664.225 1.05.225a2.46 2.46 0 0 0 1.077-.225c.313-.15.578-.372.793-.664.219-.296.384-.66.496-1.09.112-.433.167-.932.167-1.495Zm10.312-4.99V83.7h-1.25l-4.725-7.238V83.7h-1.244v-9.384h1.244l4.744 7.257v-7.257h1.23Z" fill="#1A1A1A"/><circle cx="80" cy="34.5" r="5.7" fill="#fff" stroke="#1A1A1A" stroke-width=".6"/><circle cx="80" cy="124.5" r="5.7" fill="#fff" stroke="#1A1A1A" stroke-width=".6"/><path d="M80 19.5v9.3M80 130.2v9.3" stroke="#1A1A1A" stroke-width="1.8"/></svg>