<svg width="343" height="294" fill="none" xmlns="http://www.w3.org/2000/svg"><rect x="-.75" y=".75" width="158.5" height="158.5" rx="39.25" transform="matrix(-1 0 0 1 236.5 .813)" fill="#F4F8FE" stroke="#3E9AF8" stroke-width="1.5"/><path d="M98.2 21.7a1 1 0 0 1 1-1h117.6a1 1 0 0 1 1 1v117.6a1 1 0 0 1-1 1h-1.6a1 1 0 0 1-1-1v-3.58a1.4 1.4 0 0 0-1.4-1.4H103.2a1.4 1.4 0 0 0-1.4 1.4v3.58a1 1 0 0 1-1 1h-1.6a1 1 0 0 1-1-1V21.7Z" fill="#fff" stroke="#1A1A1A" stroke-width=".4"/><rect x="108.2" y="134.3" width="19.6" height="6" rx=".2" fill="#999" stroke="#1A1A1A" stroke-width=".4"/><rect x="128.2" y="134.3" width="19.6" height="6" rx=".2" fill="#999" stroke="#1A1A1A" stroke-width=".4"/><rect x="148.2" y="134.3" width="19.6" height="6" rx=".2" fill="#999" stroke="#1A1A1A" stroke-width=".4"/><rect x="193.2" y="134.3" width="9.6" height="6" rx=".2" fill="#999" stroke="#1A1A1A" stroke-width=".4"/><path d="M116.054 44.874h-1.275a1.614 1.614 0 0 0-.201-.556 1.506 1.506 0 0 0-.863-.671 1.94 1.94 0 0 0-.596-.089c-.38 0-.716.095-1.009.286-.294.189-.523.466-.689.832-.166.364-.249.808-.249 1.333 0 .534.083.984.249 1.35.168.364.398.639.689.825.293.184.628.276 1.005.276.209 0 .405-.027.587-.082a1.61 1.61 0 0 0 .494-.248 1.513 1.513 0 0 0 .583-.948l1.275.007a2.752 2.752 0 0 1-.31.934c-.157.29-.363.547-.617.77-.255.22-.553.393-.894.518a3.331 3.331 0 0 1-1.135.184 3.175 3.175 0 0 1-1.643-.426 2.978 2.978 0 0 1-1.139-1.23c-.277-.537-.416-1.18-.416-1.93 0-.752.14-1.395.42-1.93.279-.536.66-.946 1.142-1.23a3.16 3.16 0 0 1 1.636-.426c.389 0 .75.054 1.084.163.334.11.632.27.893.481.262.21.477.466.645.77.17.303.282.648.334 1.037Zm2.338 1.558V49.5h-1.234v-6.982h1.206v2.635h.062a1.51 1.51 0 0 1 .569-.698c.259-.173.589-.26.989-.26.363 0 .68.077.951.229.27.152.479.375.627.668.15.293.225.651.225 1.074V49.5h-1.234v-3.143c0-.352-.091-.626-.273-.822-.179-.197-.432-.296-.757-.296-.218 0-.413.047-.586.143-.17.093-.304.228-.402.406a1.336 1.336 0 0 0-.143.644Zm6.16 3.174c-.332 0-.631-.06-.897-.178a1.468 1.468 0 0 1-.627-.531c-.152-.234-.228-.523-.228-.866 0-.296.054-.54.163-.733.109-.194.258-.348.447-.464.188-.116.401-.203.637-.262a5.21 5.21 0 0 1 .74-.133c.307-.032.556-.06.747-.086.191-.027.329-.068.416-.122.088-.057.133-.145.133-.263v-.02c0-.257-.077-.456-.229-.597-.152-.14-.371-.211-.658-.211-.302 0-.542.066-.719.197a.986.986 0 0 0-.355.467l-1.152-.163c.091-.318.241-.584.45-.798.209-.216.465-.377.767-.484.302-.109.636-.163 1.002-.163.253 0 .504.029.754.088.25.06.478.157.685.293.207.134.373.317.498.55.127.231.191.52.191.868V49.5h-1.187v-.72h-.041a1.495 1.495 0 0 1-.825.713 2.042 2.042 0 0 1-.712.113Zm.32-.907c.248 0 .463-.049.645-.147.181-.1.321-.231.419-.395.1-.164.15-.342.15-.535v-.617a.586.586 0 0 1-.198.088 2.792 2.792 0 0 1-.307.072c-.113.02-.226.038-.337.054l-.29.041a2.143 2.143 0 0 0-.494.123.815.815 0 0 0-.344.239.579.579 0 0 0-.127.388c0 .227.083.4.249.515.166.116.378.174.634.174Zm3.686.801v-5.236h1.196v.872h.055c.095-.302.259-.535.491-.699a1.35 1.35 0 0 1 .801-.248c.068 0 .144.003.228.01.087.004.158.012.215.024v1.135a1.292 1.292 0 0 0-.249-.048 2.284 2.284 0 0 0-.324-.024 1.25 1.25 0 0 0-.607.147 1.072 1.072 0 0 0-.419.399c-.102.17-.153.367-.153.59V49.5h-1.234Zm5.867 2.073c-.443 0-.823-.06-1.142-.181a2.034 2.034 0 0 1-.767-.477 1.654 1.654 0 0 1-.402-.665l1.111-.27c.05.103.123.204.219.304.095.102.223.187.385.252.163.069.369.103.617.103.35 0 .64-.086.869-.256.23-.168.345-.446.345-.832v-.992h-.062a1.75 1.75 0 0 1-.279.392 1.437 1.437 0 0 1-.481.338c-.198.09-.447.136-.747.136a2.15 2.15 0 0 1-1.094-.283 2.027 2.027 0 0 1-.777-.852c-.191-.38-.287-.855-.287-1.425 0-.575.096-1.06.287-1.456.193-.398.453-.699.78-.903.328-.207.692-.31 1.095-.31.307 0 .559.052.757.156.2.103.359.226.477.372.118.143.208.278.269.406h.068v-.866h1.217v5.321c0 .448-.106.818-.32 1.112a1.927 1.927 0 0 1-.876.657 3.432 3.432 0 0 1-1.262.219Zm.011-3.116c.261 0 .484-.064.668-.191.184-.127.324-.31.419-.549a2.3 2.3 0 0 0 .143-.859c0-.33-.047-.618-.143-.866a1.236 1.236 0 0 0-.416-.576 1.074 1.074 0 0 0-.671-.208c-.275 0-.505.072-.689.215-.184.143-.323.34-.416.59-.093.247-.14.529-.14.845 0 .32.047.601.14.842.096.239.235.425.419.56.187.13.415.197.686.197Zm6.03 1.145c-.525 0-.978-.109-1.36-.327a2.222 2.222 0 0 1-.876-.934c-.205-.405-.307-.88-.307-1.428 0-.54.102-1.012.307-1.419.207-.409.495-.727.866-.954.37-.23.806-.344 1.306-.344.322 0 .627.052.913.156.289.103.543.262.764.478.223.215.398.49.525.825.127.331.191.727.191 1.186v.378h-4.292v-.831h3.109a1.325 1.325 0 0 0-.154-.631 1.113 1.113 0 0 0-.419-.44 1.178 1.178 0 0 0-.62-.16c-.253 0-.474.061-.665.184-.191.12-.34.28-.447.477-.104.196-.158.41-.16.645v.726c0 .304.056.566.167.784.111.216.267.382.467.498.2.113.434.17.702.17.18 0 .342-.025.488-.075.145-.052.271-.129.378-.229a.943.943 0 0 0 .242-.371l1.153.13c-.073.304-.212.57-.416.797-.203.225-.462.4-.778.525a2.974 2.974 0 0 1-1.084.184Zm3.373-.102v-5.236h1.196v.872h.055c.095-.302.259-.535.491-.699a1.35 1.35 0 0 1 .801-.248c.068 0 .144.003.228.01.087.004.158.012.215.024v1.135a1.292 1.292 0 0 0-.249-.048 2.284 2.284 0 0 0-.324-.024c-.225 0-.427.05-.606.147a1.074 1.074 0 0 0-.573.989V49.5h-1.234Z" fill="#1A1A1A"/><circle cx="106.4" cy="63.1" r="2" fill="#198038"/><path d="M110.705 60.282h.84l1.978 4.83h.068l1.977-4.83h.841V66.1h-.659v-4.42h-.057l-1.818 4.42h-.636l-1.819-4.42h-.056v4.42h-.659v-5.818Zm8.31 5.92a1.77 1.77 0 0 1-.753-.156 1.296 1.296 0 0 1-.537-.457 1.294 1.294 0 0 1-.199-.727c0-.25.05-.453.148-.608.098-.158.23-.28.395-.37.165-.089.346-.155.545-.199.201-.045.403-.081.605-.108.266-.034.481-.06.645-.076a.994.994 0 0 0 .364-.094c.078-.044.116-.12.116-.227v-.023c0-.28-.076-.498-.23-.653-.151-.156-.381-.233-.69-.233-.32 0-.571.07-.753.21a1.24 1.24 0 0 0-.383.449l-.637-.228c.114-.265.265-.471.455-.619.191-.15.399-.254.625-.312a2.59 2.59 0 0 1 .67-.091c.14 0 .301.017.483.05.184.033.361.1.531.203.173.102.316.256.429.463.114.206.171.483.171.83V66.1h-.671v-.59h-.034a1.17 1.17 0 0 1-.227.303 1.31 1.31 0 0 1-.423.276 1.63 1.63 0 0 1-.645.113Zm.102-.602c.265 0 .489-.052.671-.156a1.06 1.06 0 0 0 .556-.923v-.614c-.028.034-.09.065-.187.094-.095.026-.205.05-.33.07a15.095 15.095 0 0 1-.642.086 2.55 2.55 0 0 0-.488.11.844.844 0 0 0-.364.225.571.571 0 0 0-.136.404c0 .233.086.409.258.528.174.117.395.176.662.176Zm3.122.5v-4.363h.67V66.1h-.67Zm.341-5.09a.479.479 0 0 1-.339-.134.432.432 0 0 1-.139-.321c0-.125.047-.232.139-.321a.479.479 0 0 1 .339-.134c.13 0 .242.045.335.134a.427.427 0 0 1 .142.32.428.428 0 0 1-.142.322.468.468 0 0 1-.335.133Zm2.228 2.465V66.1h-.671v-4.363h.648v.681h.057c.102-.221.257-.4.466-.534.208-.136.477-.204.806-.204.296 0 .554.06.776.181.222.12.394.302.517.546.123.242.185.55.185.92V66.1h-.671v-2.727c0-.343-.089-.61-.267-.801-.178-.194-.422-.29-.733-.29-.214 0-.405.046-.574.14a1.003 1.003 0 0 0-.395.405 1.348 1.348 0 0 0-.144.648Zm7.1-.761-.603.17a1.088 1.088 0 0 0-.167-.292.816.816 0 0 0-.296-.24 1.073 1.073 0 0 0-.48-.093c-.267 0-.489.062-.667.185-.177.121-.265.275-.265.463 0 .167.061.298.182.395.121.096.311.177.568.241l.648.16c.39.094.681.239.872.434.192.193.287.442.287.747 0 .25-.072.474-.216.67a1.434 1.434 0 0 1-.596.467 2.18 2.18 0 0 1-.892.17c-.445 0-.814-.097-1.105-.29-.292-.193-.477-.475-.554-.846l.636-.16c.061.235.175.412.344.529.17.117.393.176.667.176.313 0 .561-.066.745-.199.185-.134.278-.295.278-.483a.508.508 0 0 0-.159-.38c-.106-.105-.269-.182-.489-.233l-.727-.17c-.4-.096-.693-.242-.881-.441a1.069 1.069 0 0 1-.278-.753c0-.246.069-.464.207-.653.14-.19.331-.338.571-.446.243-.108.517-.162.824-.162.432 0 .771.094 1.017.284.248.19.425.44.529.75Zm5.111 3.477c-.394 0-.739-.094-1.037-.281a1.916 1.916 0 0 1-.693-.787c-.165-.337-.247-.731-.247-1.182 0-.455.082-.851.247-1.19.167-.34.398-.603.693-.79a1.904 1.904 0 0 1 1.037-.281c.394 0 .739.093 1.034.28.298.188.529.452.693.79.167.34.25.736.25 1.191 0 .45-.083.845-.25 1.182-.164.337-.395.6-.693.787-.295.187-.64.281-1.034.281Zm0-.602c.299 0 .546-.077.739-.23a1.36 1.36 0 0 0 .429-.605c.093-.25.139-.521.139-.813 0-.292-.046-.563-.139-.815a1.377 1.377 0 0 0-.429-.611c-.193-.155-.44-.233-.739-.233s-.545.078-.738.233a1.362 1.362 0 0 0-.429.61c-.093.253-.14.524-.14.816 0 .292.047.563.14.813.092.25.235.451.429.605.193.153.439.23.738.23Zm3.671-2.114V66.1h-.67v-4.363h.648v.681h.056c.103-.221.258-.4.466-.534.209-.136.478-.204.807-.204.296 0 .554.06.776.181.221.12.394.302.517.546.123.242.184.55.184.92V66.1h-.67v-2.727c0-.343-.089-.61-.267-.801-.178-.194-.422-.29-.733-.29-.214 0-.405.046-.574.14a.996.996 0 0 0-.395.405 1.348 1.348 0 0 0-.145.648Z" fill="#1A1A1A"/><circle cx="106.4" cy="77.1" r="2" fill="#DEDEDE"/><path d="M110.705 80.1v-5.818h2.034c.405 0 .739.07 1.002.21.264.138.46.325.589.56.128.233.193.491.193.775 0 .25-.045.457-.134.62a1.036 1.036 0 0 1-.346.386 1.588 1.588 0 0 1-.463.21v.057c.178.012.357.074.536.188.18.113.331.276.452.488.121.212.182.472.182.779 0 .291-.066.554-.199.787-.132.233-.342.417-.628.554-.286.136-.658.204-1.116.204h-2.102Zm.704-.625h1.398c.46 0 .787-.089.98-.267a.857.857 0 0 0 .293-.653c0-.197-.051-.38-.151-.546a1.084 1.084 0 0 0-.429-.403 1.345 1.345 0 0 0-.659-.154h-1.432v2.023Zm0-2.636h1.307c.212 0 .403-.042.574-.125.172-.084.308-.201.409-.352a.934.934 0 0 0 .153-.535.885.885 0 0 0-.267-.65c-.178-.18-.46-.27-.846-.27h-1.33v1.932Zm7.158 1.477v-2.58h.67V80.1h-.67v-.738h-.046c-.102.221-.261.41-.477.565-.216.153-.489.23-.818.23-.273 0-.515-.06-.727-.18a1.246 1.246 0 0 1-.5-.544c-.122-.245-.182-.553-.182-.924v-2.772h.67v2.727c0 .318.089.572.267.761.18.19.409.284.688.284.166 0 .336-.042.508-.128.175-.085.32-.216.438-.392.119-.176.179-.4.179-.673Zm2.569-4.034V80.1h-.671v-5.818h.671Zm1.853 4.227-.012-.83h.137l1.909-1.942h.829l-2.034 2.056h-.057l-.772.716Zm-.625 1.591v-5.818h.67V80.1h-.67Zm2.772 0-1.704-2.159.477-.466 2.08 2.625h-.853Z" fill="#1A1A1A"/><circle cx="106.4" cy="91.1" r="2" fill="#DEDEDE"/><path d="M110.943 94.1h-.738l2.136-5.818h.727l2.137 5.818h-.739l-1.739-4.898h-.045l-1.739 4.898Zm.273-2.273h2.977v.625h-2.977v-.625Zm4.895 2.273v-5.818h.67v2.148h.057c.049-.076.117-.173.205-.29.089-.12.216-.225.38-.318.167-.095.392-.142.676-.142.368 0 .692.091.972.275.28.184.499.444.656.782.157.337.236.734.236 1.193 0 .462-.079.862-.236 1.201a1.86 1.86 0 0 1-.653.784 1.71 1.71 0 0 1-.963.276c-.281 0-.505-.046-.673-.14a1.248 1.248 0 0 1-.39-.32 4.158 4.158 0 0 1-.21-.301h-.079v.67h-.648Zm.659-2.182c0 .33.048.62.145.872.096.25.237.447.423.588.186.14.413.21.682.21a1.1 1.1 0 0 0 .702-.22c.189-.15.331-.351.426-.603.096-.254.145-.536.145-.847 0-.306-.048-.583-.142-.83a1.28 1.28 0 0 0-.424-.587c-.187-.146-.423-.22-.707-.22-.273 0-.502.07-.688.208a1.25 1.25 0 0 0-.42.574c-.095.245-.142.53-.142.855Zm7.31-1.204-.603.17a1.115 1.115 0 0 0-.167-.292.816.816 0 0 0-.296-.24 1.073 1.073 0 0 0-.48-.093 1.15 1.15 0 0 0-.668.185c-.176.121-.264.275-.264.463 0 .167.061.298.182.395.121.096.311.177.568.241l.648.16c.39.094.681.239.872.434.191.193.287.442.287.747 0 .25-.072.474-.216.67a1.434 1.434 0 0 1-.596.467 2.18 2.18 0 0 1-.892.17c-.446 0-.814-.097-1.106-.29-.291-.193-.476-.475-.554-.846l.637-.16a.88.88 0 0 0 .344.529c.17.117.393.176.667.176.313 0 .561-.066.745-.199.185-.134.278-.295.278-.483a.508.508 0 0 0-.159-.38c-.106-.105-.269-.182-.489-.233l-.727-.17c-.4-.096-.693-.242-.881-.441a1.069 1.069 0 0 1-.278-.753c0-.246.069-.464.207-.653.14-.19.331-.338.571-.446.243-.108.517-.162.824-.162.432 0 .771.094 1.017.284.248.19.424.44.529.75Zm2.861 3.477c-.394 0-.74-.094-1.037-.281a1.916 1.916 0 0 1-.693-.787c-.165-.337-.247-.731-.247-1.182 0-.454.082-.851.247-1.19.167-.34.398-.603.693-.79a1.902 1.902 0 0 1 1.037-.281c.394 0 .739.093 1.034.28.297.188.529.452.693.79.167.34.25.737.25 1.191 0 .45-.083.845-.25 1.182-.164.337-.396.6-.693.787-.295.187-.64.281-1.034.281Zm0-.602c.299 0 .546-.077.739-.23a1.36 1.36 0 0 0 .429-.605c.092-.25.139-.521.139-.813 0-.292-.047-.563-.139-.815a1.377 1.377 0 0 0-.429-.611c-.193-.155-.44-.233-.739-.233s-.545.078-.739.233a1.377 1.377 0 0 0-.429.61 2.359 2.359 0 0 0-.139.816c0 .292.047.563.139.813.093.25.236.451.429.605.194.153.44.23.739.23Zm3.001.511v-4.363h.647v.659h.046c.079-.216.223-.392.432-.526a1.27 1.27 0 0 1 .704-.202 7.356 7.356 0 0 1 .353.012v.681a2.011 2.011 0 0 0-.157-.025 1.522 1.522 0 0 0-.253-.02c-.212 0-.401.044-.568.133a1.016 1.016 0 0 0-.392.364.986.986 0 0 0-.142.526V94.1h-.67Zm2.976 1.637v-6h.648v.693h.08c.049-.076.117-.173.204-.29.089-.12.216-.225.381-.318.166-.095.392-.142.676-.142.367 0 .691.091.972.275.28.184.499.444.656.782.157.337.236.734.236 1.193 0 .462-.079.862-.236 1.201a1.856 1.856 0 0 1-.654.784 1.706 1.706 0 0 1-.963.276c-.28 0-.504-.046-.673-.14a1.243 1.243 0 0 1-.389-.32 4.158 4.158 0 0 1-.21-.301h-.057v2.306h-.671Zm.659-3.819c0 .33.049.62.145.872.097.25.238.447.424.588.185.14.412.21.681.21.281 0 .515-.073.702-.22.19-.15.332-.351.426-.603.097-.254.145-.536.145-.847a2.29 2.29 0 0 0-.142-.83 1.285 1.285 0 0 0-.423-.587c-.188-.146-.423-.22-.708-.22-.272 0-.501.07-.687.208a1.245 1.245 0 0 0-.421.574c-.094.245-.142.53-.142.855Zm6.114-2.181v.568h-2.261v-.569h2.261Zm-1.602-1.046h.67v4.16c0 .189.028.33.083.425a.42.42 0 0 0 .216.188c.089.03.182.045.281.045a1.192 1.192 0 0 0 .295-.034l.137.602a1.395 1.395 0 0 1-.5.08c-.19 0-.375-.04-.557-.122a1.104 1.104 0 0 1-.449-.372c-.118-.167-.176-.377-.176-.631V88.69Zm2.611 5.41v-4.364h.67V94.1h-.67Zm.34-5.092a.478.478 0 0 1-.338-.133.432.432 0 0 1-.139-.321c0-.125.047-.232.139-.321a.478.478 0 0 1 .338-.134c.131 0 .243.045.336.134a.427.427 0 0 1 .142.32.428.428 0 0 1-.142.322.469.469 0 0 1-.336.133Zm3.331 5.182c-.394 0-.74-.094-1.037-.281a1.902 1.902 0 0 1-.693-.787c-.165-.337-.248-.731-.248-1.182 0-.454.083-.851.248-1.19.166-.34.397-.603.693-.79a1.902 1.902 0 0 1 1.037-.281c.394 0 .738.093 1.034.28.297.188.528.452.693.79.167.34.25.737.25 1.191 0 .45-.083.845-.25 1.182-.165.337-.396.6-.693.787a1.89 1.89 0 0 1-1.034.281Zm0-.602c.299 0 .545-.077.738-.23.194-.154.337-.355.429-.605.093-.25.14-.521.14-.813 0-.292-.047-.563-.14-.815a1.362 1.362 0 0 0-.429-.611c-.193-.155-.439-.233-.738-.233-.3 0-.546.078-.739.233a1.377 1.377 0 0 0-.429.61 2.335 2.335 0 0 0-.139.816c0 .292.046.563.139.813.093.25.236.451.429.605.193.153.439.23.739.23Zm3.671-2.114V94.1h-.671v-4.363h.648v.681h.057c.102-.221.258-.4.466-.534.208-.136.477-.204.807-.204.295 0 .554.06.775.181.222.12.394.302.517.546.123.242.185.55.185.92V94.1h-.67v-2.727c0-.343-.089-.61-.268-.801-.178-.194-.422-.29-.732-.29-.214 0-.406.046-.574.14a.99.99 0 0 0-.395.405 1.337 1.337 0 0 0-.145.648Z" fill="#1A1A1A"/><circle cx="106.4" cy="105.1" r="2" fill="#DEDEDE"/><path d="M110.705 108.1v-5.818h3.488v.625h-2.784v1.966h2.523v.625h-2.523v2.602h-.704Zm5.274-5.818v5.818h-.67v-5.818h.67Zm3.001 5.909c-.394 0-.739-.094-1.037-.281a1.92 1.92 0 0 1-.693-.787c-.165-.337-.247-.731-.247-1.182 0-.455.082-.851.247-1.19a1.91 1.91 0 0 1 .693-.79 1.9 1.9 0 0 1 1.037-.281c.394 0 .739.093 1.034.281.298.187.529.451.693.79.167.339.25.735.25 1.19 0 .451-.083.845-.25 1.182a1.878 1.878 0 0 1-.693.787 1.89 1.89 0 0 1-1.034.281Zm0-.602c.299 0 .546-.077.739-.23.193-.154.336-.355.429-.605.093-.25.139-.521.139-.813 0-.292-.046-.563-.139-.815a1.376 1.376 0 0 0-.429-.611c-.193-.155-.44-.233-.739-.233s-.545.078-.739.233a1.376 1.376 0 0 0-.429.611 2.356 2.356 0 0 0-.139.815c0 .292.047.563.139.813.093.25.236.451.429.605.194.153.44.23.739.23Zm4.285.613c-.277 0-.528-.052-.753-.156a1.295 1.295 0 0 1-.537-.457 1.296 1.296 0 0 1-.199-.728c0-.25.05-.452.148-.607.098-.158.23-.281.395-.37a2.09 2.09 0 0 1 .545-.199c.201-.045.403-.081.605-.108.266-.034.481-.059.645-.076.167-.019.288-.051.364-.094.078-.044.116-.119.116-.227v-.023c0-.28-.076-.498-.23-.653-.151-.156-.381-.233-.69-.233-.32 0-.571.07-.753.21a1.24 1.24 0 0 0-.383.449l-.637-.228c.114-.265.265-.471.455-.619.191-.15.399-.254.625-.312.227-.061.451-.091.67-.091.14 0 .301.017.483.051.184.032.361.099.531.201.173.103.316.257.429.464.114.206.171.483.171.829v2.875h-.671v-.591h-.034a1.165 1.165 0 0 1-.227.304c-.106.108-.247.2-.423.276a1.644 1.644 0 0 1-.645.113Zm.102-.602c.265 0 .489-.052.671-.156a1.06 1.06 0 0 0 .556-.923v-.614c-.028.034-.09.065-.187.094a3.38 3.38 0 0 1-.33.071 14.127 14.127 0 0 1-.642.085c-.174.023-.337.06-.488.111a.843.843 0 0 0-.364.224.573.573 0 0 0-.136.404c0 .233.086.409.258.528.174.117.395.176.662.176Zm5.019-3.864v.569h-2.261v-.569h2.261Zm-1.602-1.045h.671v4.159c0 .189.027.332.082.426a.427.427 0 0 0 .216.188c.089.03.183.045.281.045.074 0 .135-.004.182-.011l.114-.023.136.602a1.471 1.471 0 0 1-.5.08 1.36 1.36 0 0 1-.557-.122 1.12 1.12 0 0 1-.449-.372 1.073 1.073 0 0 1-.176-.631v-4.341ZM167.996 42.518V49.5h-1.265v-6.982h1.265Zm2.549 3.914V49.5h-1.234v-5.236h1.179v.89h.062c.12-.294.312-.527.576-.7.266-.172.594-.258.985-.258.361 0 .676.077.944.231.271.155.48.379.628.672.15.293.223.649.221 1.067V49.5h-1.234v-3.143c0-.35-.091-.624-.273-.822-.179-.197-.428-.296-.746-.296-.216 0-.408.047-.576.143a.99.99 0 0 0-.392.406 1.36 1.36 0 0 0-.14.644Zm9.105-2.168-1.864 5.236h-1.364l-1.865-5.236h1.316l1.204 3.89h.054l1.207-3.89h1.312Zm2.994 5.338c-.525 0-.978-.109-1.36-.327a2.222 2.222 0 0 1-.876-.934c-.204-.405-.307-.88-.307-1.428 0-.54.103-1.012.307-1.419.207-.409.496-.727.866-.954.37-.23.806-.344 1.306-.344.322 0 .627.052.913.156.289.103.544.262.764.478.223.215.398.49.525.825.127.331.191.727.191 1.186v.378h-4.292v-.831h3.109a1.324 1.324 0 0 0-.153-.631c-.1-.186-.24-.333-.42-.44a1.178 1.178 0 0 0-.62-.16c-.253 0-.474.061-.665.184-.191.12-.34.28-.447.477-.104.196-.158.41-.16.645v.726c0 .304.056.566.167.784.112.216.267.382.467.498.2.113.434.17.703.17.179 0 .342-.025.487-.075.145-.052.272-.129.378-.229a.943.943 0 0 0 .242-.371l1.153.13c-.073.304-.212.57-.416.797-.202.225-.462.4-.777.525a2.983 2.983 0 0 1-1.085.184Zm3.373-.102v-5.236h1.196v.872h.055c.095-.302.259-.535.491-.699a1.35 1.35 0 0 1 .801-.248c.068 0 .144.003.228.01.087.004.158.012.215.024v1.135a1.292 1.292 0 0 0-.249-.048 2.281 2.281 0 0 0-.323-.024c-.225 0-.428.05-.607.147a1.074 1.074 0 0 0-.573.989V49.5h-1.234Zm6.702-5.236v.954h-3.01v-.954h3.01Zm-2.267-1.255h1.234v4.916c0 .166.025.293.075.382a.405.405 0 0 0 .205.177.782.782 0 0 0 .279.048c.078 0 .148-.006.212-.017.066-.012.116-.022.15-.03l.208.964a2.342 2.342 0 0 1-.727.123 2.012 2.012 0 0 1-.835-.14 1.306 1.306 0 0 1-.59-.484c-.143-.218-.213-.491-.211-.819v-5.12Zm5.561 6.593c-.525 0-.978-.109-1.36-.327a2.21 2.21 0 0 1-.876-.934c-.205-.405-.307-.88-.307-1.428 0-.54.102-1.012.307-1.419.207-.409.495-.727.866-.954.37-.23.805-.344 1.305-.344.323 0 .628.052.914.156.289.103.543.262.764.478.222.215.397.49.525.825.127.331.191.727.191 1.186v.378h-4.292v-.831h3.109a1.336 1.336 0 0 0-.154-.631 1.12 1.12 0 0 0-.419-.44 1.179 1.179 0 0 0-.621-.16 1.2 1.2 0 0 0-.664.184c-.191.12-.34.28-.447.477-.104.196-.158.41-.16.645v.726c0 .304.056.566.167.784.111.216.267.382.467.498.2.113.434.17.702.17.18 0 .342-.025.488-.075.145-.052.271-.129.378-.229a.943.943 0 0 0 .242-.371l1.152.13c-.072.304-.211.57-.415.797-.203.225-.462.4-.778.525a2.978 2.978 0 0 1-1.084.184Zm3.373-.102v-5.236h1.196v.872h.055c.095-.302.259-.535.491-.699a1.35 1.35 0 0 1 .801-.248c.068 0 .144.003.228.01.087.004.158.012.215.024v1.135a1.292 1.292 0 0 0-.249-.048 2.284 2.284 0 0 0-.324-.024 1.25 1.25 0 0 0-.607.147 1.072 1.072 0 0 0-.419.399c-.102.17-.153.367-.153.59V49.5h-1.234Z" fill="#1A1A1A"/><circle cx="159" cy="63.1" r="2" fill="#DEDEDE"/><path d="M164.009 60.282V66.1h-.704v-5.818h.704Zm1.992 3.193V66.1h-.67v-4.363h.648v.681h.056c.103-.221.258-.4.466-.534.209-.136.478-.204.807-.204.296 0 .554.06.776.181.221.12.394.302.517.546.123.242.184.55.184.92V66.1h-.67v-2.727c0-.343-.089-.61-.267-.801-.178-.194-.423-.29-.733-.29-.214 0-.405.046-.574.14a.996.996 0 0 0-.395.405 1.348 1.348 0 0 0-.145.648Zm7.421-1.739-1.613 4.364h-.682l-1.614-4.363h.728l1.204 3.477h.046l1.204-3.477h.727Zm2.559 4.455c-.421 0-.783-.093-1.088-.278a1.871 1.871 0 0 1-.702-.784c-.163-.338-.244-.73-.244-1.177 0-.447.081-.84.244-1.181.165-.343.394-.61.687-.802a1.85 1.85 0 0 1 1.034-.29c.228 0 .452.038.674.114.221.076.423.2.605.37.182.168.327.392.435.67.107.279.161.621.161 1.029v.284h-3.363v-.58h2.682c0-.246-.05-.466-.148-.66a1.116 1.116 0 0 0-1.046-.624c-.267 0-.498.066-.693.199-.193.13-.342.3-.446.511-.104.21-.156.436-.156.676v.387c0 .33.057.608.17.838.116.227.276.4.481.52.204.117.442.176.713.176.176 0 .335-.025.477-.074a1.02 1.02 0 0 0 .372-.227c.104-.103.185-.23.242-.381l.647.182c-.068.22-.182.413-.343.58-.161.164-.36.293-.597.386a2.212 2.212 0 0 1-.798.136Zm2.826-.09v-4.364h.648v.659h.046c.079-.216.223-.392.431-.526.209-.134.444-.202.705-.202a7.423 7.423 0 0 1 .352.012v.681a2.044 2.044 0 0 0-.156-.025 1.54 1.54 0 0 0-.253-.02c-.212 0-.401.044-.568.133a.977.977 0 0 0-.534.89V66.1h-.671Zm5.148-4.364v.568h-2.261v-.569h2.261Zm-1.602-1.046h.67v4.16c0 .189.028.33.083.425a.42.42 0 0 0 .216.188c.089.03.182.045.281.045.074 0 .134-.004.182-.011l.113-.023.137.602a1.395 1.395 0 0 1-.5.08c-.19 0-.375-.04-.557-.122a1.104 1.104 0 0 1-.449-.372 1.072 1.072 0 0 1-.176-.631V60.69Zm4.393 5.5c-.42 0-.783-.093-1.088-.278a1.862 1.862 0 0 1-.701-.784 2.672 2.672 0 0 1-.245-1.177c0-.447.082-.84.245-1.181.164-.343.393-.61.687-.802.295-.193.64-.29 1.034-.29.227 0 .452.038.673.114.222.076.424.2.606.37.181.168.326.392.434.67.108.279.162.621.162 1.029v.284h-3.364v-.58h2.682c0-.246-.049-.466-.147-.66a1.116 1.116 0 0 0-1.046-.624c-.267 0-.498.066-.693.199-.193.13-.342.3-.446.511-.104.21-.156.436-.156.676v.387c0 .33.056.608.17.838.116.227.276.4.48.52.205.117.442.176.713.176.176 0 .336-.025.478-.074.143-.051.268-.127.372-.227.104-.103.184-.23.241-.381l.648.182c-.068.22-.183.413-.344.58a1.68 1.68 0 0 1-.596.386 2.213 2.213 0 0 1-.799.136Zm2.827-.09v-4.364h.648v.659h.045c.08-.216.224-.392.432-.526a1.27 1.27 0 0 1 .705-.202 7.352 7.352 0 0 1 .352.012v.681a2.044 2.044 0 0 0-.156-.025 1.54 1.54 0 0 0-.253-.02c-.212 0-.402.044-.568.133a1.012 1.012 0 0 0-.393.364.986.986 0 0 0-.142.526V66.1h-.67Zm6.999.09c-.394 0-.739-.094-1.037-.281a1.916 1.916 0 0 1-.693-.787c-.165-.337-.247-.731-.247-1.182 0-.455.082-.851.247-1.19.167-.34.398-.603.693-.79a1.904 1.904 0 0 1 1.037-.281c.394 0 .739.093 1.034.28.298.188.529.452.694.79.166.34.25.736.25 1.191 0 .45-.084.845-.25 1.182-.165.337-.396.6-.694.787-.295.187-.64.281-1.034.281Zm0-.602c.3 0 .546-.077.739-.23a1.36 1.36 0 0 0 .429-.605c.093-.25.139-.521.139-.813 0-.292-.046-.563-.139-.815a1.377 1.377 0 0 0-.429-.611c-.193-.155-.439-.233-.739-.233-.299 0-.545.078-.738.233a1.362 1.362 0 0 0-.429.61c-.093.253-.14.524-.14.816 0 .292.047.563.14.813.092.25.235.451.429.605.193.153.439.23.738.23Zm3.671-2.114V66.1h-.67v-4.363h.648v.681h.057c.102-.221.257-.4.465-.534.209-.136.478-.204.807-.204.296 0 .554.06.776.181.221.12.394.302.517.546.123.242.185.55.185.92V66.1h-.671v-2.727c0-.343-.089-.61-.267-.801-.178-.194-.422-.29-.733-.29-.214 0-.405.046-.574.14a1.003 1.003 0 0 0-.395.405 1.348 1.348 0 0 0-.145.648Z" fill="#1A1A1A"/><circle cx="159" cy="77.1" r="2" fill="#DEDEDE"/><path d="M168.214 77.191c0 .614-.111 1.144-.333 1.59a2.486 2.486 0 0 1-.912 1.035 2.436 2.436 0 0 1-1.324.364c-.496 0-.937-.122-1.323-.364a2.486 2.486 0 0 1-.912-1.034c-.222-.447-.333-.977-.333-1.591s.111-1.144.333-1.59c.221-.448.525-.793.912-1.035a2.435 2.435 0 0 1 1.323-.364c.497 0 .938.122 1.324.364.387.242.691.587.912 1.034.222.447.333.977.333 1.591Zm-.682 0c0-.504-.084-.929-.253-1.276a1.834 1.834 0 0 0-.679-.787 1.76 1.76 0 0 0-.955-.266c-.352 0-.671.089-.957.267a1.86 1.86 0 0 0-.679.786c-.167.347-.25.772-.25 1.276s.083.929.25 1.276c.169.346.395.609.679.787.286.177.605.267.957.267.353 0 .671-.09.955-.267.286-.178.512-.44.679-.787.169-.347.253-.772.253-1.276Zm5.344-1.454-1.614 4.363h-.682l-1.614-4.363h.728l1.204 3.477h.046l1.204-3.477h.728Zm2.558 4.454c-.421 0-.783-.093-1.088-.278a1.871 1.871 0 0 1-.702-.784c-.163-.338-.244-.73-.244-1.177 0-.447.081-.84.244-1.181.165-.343.394-.61.688-.802.295-.193.64-.29 1.034-.29.227 0 .451.038.673.114.221.076.423.2.605.37.182.168.327.392.435.67.108.279.162.621.162 1.029v.284h-3.364v-.58h2.682c0-.246-.049-.466-.148-.66a1.116 1.116 0 0 0-1.045-.624c-.267 0-.499.066-.694.199-.193.13-.341.3-.446.511-.104.21-.156.436-.156.676v.387c0 .33.057.608.171.838.115.227.275.4.48.52.204.117.442.176.713.176.176 0 .335-.025.477-.074a1.02 1.02 0 0 0 .372-.227c.104-.103.185-.23.242-.381l.647.182c-.068.22-.182.413-.343.58-.161.164-.36.293-.597.386a2.212 2.212 0 0 1-.798.136Zm2.826-.09v-4.364h.648v.659h.046c.079-.216.223-.392.431-.526.209-.135.444-.202.705-.202a7.423 7.423 0 0 1 .352.012v.681a1.954 1.954 0 0 0-.156-.025 1.53 1.53 0 0 0-.253-.02c-.212 0-.401.044-.568.133a.977.977 0 0 0-.534.89V80.1h-.671Zm3.648-5.82v5.82h-.671v-5.82h.671Zm3 5.91c-.394 0-.739-.094-1.037-.281a1.916 1.916 0 0 1-.693-.787c-.165-.337-.247-.731-.247-1.182 0-.454.082-.851.247-1.19.167-.34.398-.603.693-.79a1.904 1.904 0 0 1 1.037-.281c.394 0 .739.093 1.034.28.298.188.529.452.693.79.167.34.25.737.25 1.191 0 .45-.083.845-.25 1.182-.164.337-.395.6-.693.787-.295.187-.64.281-1.034.281Zm0-.602c.299 0 .546-.077.739-.23a1.36 1.36 0 0 0 .429-.605c.093-.25.139-.521.139-.813 0-.292-.046-.563-.139-.815a1.377 1.377 0 0 0-.429-.611c-.193-.155-.44-.233-.739-.233s-.545.078-.738.233a1.362 1.362 0 0 0-.429.61c-.093.253-.14.524-.14.816 0 .292.047.563.14.813.092.25.235.451.429.605.193.153.439.23.738.23Zm4.285.613c-.276 0-.527-.052-.753-.156a1.296 1.296 0 0 1-.537-.457 1.294 1.294 0 0 1-.199-.727c0-.25.05-.453.148-.608.099-.158.23-.28.395-.37.165-.089.347-.155.545-.199.201-.045.403-.081.606-.108.265-.034.48-.06.644-.076a.994.994 0 0 0 .364-.094c.078-.044.117-.12.117-.227v-.023c0-.28-.077-.498-.231-.653-.151-.156-.381-.233-.69-.233-.32 0-.571.07-.753.21a1.24 1.24 0 0 0-.383.449l-.637-.228c.114-.265.266-.471.455-.619.191-.15.4-.254.625-.312a2.59 2.59 0 0 1 .67-.091c.141 0 .302.017.483.05.184.033.361.1.532.203.172.102.315.256.429.463.113.206.17.483.17.83V80.1h-.67v-.59h-.035a1.17 1.17 0 0 1-.227.303 1.31 1.31 0 0 1-.423.276 1.63 1.63 0 0 1-.645.113Zm.102-.602c.265 0 .489-.052.671-.156a1.07 1.07 0 0 0 .557-.923v-.614c-.029.034-.091.065-.188.094-.095.026-.204.05-.329.07a15.928 15.928 0 0 1-.643.086 2.55 2.55 0 0 0-.488.11.844.844 0 0 0-.364.225.571.571 0 0 0-.136.404c0 .233.086.409.258.528.175.117.395.176.662.176Zm4.769.591a1.71 1.71 0 0 1-.963-.276 1.86 1.86 0 0 1-.653-.784c-.157-.339-.236-.74-.236-1.201 0-.459.079-.856.236-1.194.157-.337.376-.597.656-.78.281-.184.604-.276.972-.276.284 0 .508.047.673.142.167.093.294.199.381.318.089.117.158.214.207.29h.057v-2.148h.67V80.1h-.647v-.67h-.08c-.049.08-.119.18-.21.3s-.221.227-.389.322c-.169.093-.393.139-.674.139Zm.091-.602c.269 0 .497-.07.682-.21.186-.142.327-.339.423-.589.097-.252.145-.542.145-.872 0-.326-.047-.61-.142-.855a1.244 1.244 0 0 0-.42-.574 1.12 1.12 0 0 0-.688-.207c-.284 0-.52.073-.71.219-.187.144-.328.34-.423.588a2.334 2.334 0 0 0-.139.83c0 .31.047.592.142.846.096.252.238.453.426.602.189.148.424.222.704.222Z" fill="#1A1A1A"/><circle cx="159" cy="91.1" r="2" fill="#DEDEDE"/><path d="M163.305 94.1v-5.818h.704v5.193h2.705v.625h-3.409Zm6.181.091c-.394 0-.739-.094-1.037-.281a1.916 1.916 0 0 1-.693-.787c-.165-.337-.247-.731-.247-1.182 0-.454.082-.851.247-1.19.167-.34.398-.603.693-.79a1.904 1.904 0 0 1 1.037-.281c.394 0 .739.093 1.034.28.298.188.529.452.694.79.166.34.25.737.25 1.191 0 .45-.084.845-.25 1.182-.165.337-.396.6-.694.787-.295.187-.64.281-1.034.281Zm0-.602c.3 0 .546-.077.739-.23a1.36 1.36 0 0 0 .429-.605c.093-.25.139-.521.139-.813 0-.292-.046-.563-.139-.815a1.377 1.377 0 0 0-.429-.611c-.193-.155-.439-.233-.739-.233-.299 0-.545.078-.738.233a1.377 1.377 0 0 0-.429.61 2.335 2.335 0 0 0-.139.816c0 .292.046.563.139.813.093.25.236.451.429.605.193.153.439.23.738.23Zm3.841.511-1.329-4.363h.704l.943 3.34h.046l.932-3.34h.716l.92 3.329h.046l.943-3.33h.704l-1.329 4.364h-.659l-.955-3.352h-.068l-.955 3.352h-.659Zm7.853 0v-5.818h.67v2.148h.057c.049-.076.117-.173.204-.29.089-.12.216-.225.381-.318.167-.095.392-.142.676-.142.368 0 .691.091.972.275.28.184.499.444.656.782.157.337.236.734.236 1.193 0 .462-.079.862-.236 1.201a1.86 1.86 0 0 1-.653.784 1.71 1.71 0 0 1-.963.276c-.281 0-.505-.046-.674-.14a1.255 1.255 0 0 1-.389-.32 4.158 4.158 0 0 1-.21-.301h-.08v.67h-.647Zm.659-2.182c0 .33.048.62.144.872.097.25.238.447.424.588.185.14.413.21.682.21.28 0 .514-.073.701-.22.19-.15.332-.351.426-.603.097-.254.145-.536.145-.847a2.29 2.29 0 0 0-.142-.83 1.285 1.285 0 0 0-.423-.587c-.188-.146-.423-.22-.707-.22-.273 0-.502.07-.688.208a1.244 1.244 0 0 0-.42.574c-.095.245-.142.53-.142.855Zm5.502 2.284a1.77 1.77 0 0 1-.752-.156 1.284 1.284 0 0 1-.537-.457 1.286 1.286 0 0 1-.199-.727c0-.25.049-.453.148-.608.098-.158.23-.28.394-.37.165-.089.347-.155.546-.199.201-.045.402-.081.605-.108.265-.034.48-.06.645-.076a.994.994 0 0 0 .364-.094c.077-.044.116-.12.116-.227v-.023c0-.28-.077-.498-.23-.653-.152-.156-.382-.233-.69-.233-.321 0-.571.07-.753.21-.182.14-.31.29-.384.449l-.636-.228c.113-.265.265-.471.454-.619.192-.15.4-.254.625-.312.228-.061.451-.091.671-.091.14 0 .301.017.483.05.183.033.361.1.531.203.172.102.315.256.429.463.114.206.17.483.17.83V94.1h-.67v-.59h-.034a1.194 1.194 0 0 1-.227.303c-.106.108-.248.2-.424.276a1.63 1.63 0 0 1-.645.113Zm.103-.602c.265 0 .488-.052.67-.156a1.063 1.063 0 0 0 .557-.923v-.614c-.028.034-.091.065-.188.094-.094.026-.204.05-.329.07a14.471 14.471 0 0 1-.642.086c-.174.023-.337.06-.489.11a.84.84 0 0 0-.363.225.572.572 0 0 0-.137.404c0 .233.086.409.259.528.174.117.395.176.662.176Zm5.019-3.863v.568h-2.261v-.569h2.261Zm-1.602-1.046h.67v4.16c0 .189.028.33.082.425a.428.428 0 0 0 .216.188c.089.03.183.045.282.045a1.178 1.178 0 0 0 .295-.034l.136.602a1.404 1.404 0 0 1-.5.08c-.189 0-.375-.04-.556-.122a1.104 1.104 0 0 1-.449-.372c-.118-.167-.176-.377-.176-.631V88.69Zm4.508 1.046v.568h-2.261v-.569h2.261Zm-1.602-1.046h.67v4.16c0 .189.028.33.083.425a.428.428 0 0 0 .216.188c.089.03.182.045.281.045a1.192 1.192 0 0 0 .295-.034l.137.602a1.395 1.395 0 0 1-.5.08c-.19 0-.375-.04-.557-.122a1.104 1.104 0 0 1-.449-.372 1.072 1.072 0 0 1-.176-.631V88.69Zm4.393 5.5c-.42 0-.783-.093-1.088-.278a1.862 1.862 0 0 1-.701-.784 2.672 2.672 0 0 1-.245-1.177c0-.447.082-.84.245-1.181.164-.343.394-.61.687-.802.296-.193.64-.29 1.034-.29.227 0 .452.038.673.114.222.076.424.2.606.37.181.168.326.392.434.67.108.279.162.621.162 1.029v.284h-3.363v-.58h2.681c0-.246-.049-.466-.147-.66a1.116 1.116 0 0 0-1.046-.624c-.267 0-.498.066-.693.199-.193.13-.342.3-.446.511-.104.21-.156.436-.156.676v.387c0 .33.057.608.17.838.116.227.276.4.48.52.205.117.443.176.713.176.176 0 .336-.025.478-.074a1.02 1.02 0 0 0 .372-.227c.104-.103.184-.23.241-.381l.648.182c-.068.22-.183.413-.344.58a1.68 1.68 0 0 1-.596.386 2.213 2.213 0 0 1-.799.136Zm2.827-.09v-4.364h.648v.659h.045c.08-.216.224-.392.432-.526a1.27 1.27 0 0 1 .705-.202 7.352 7.352 0 0 1 .352.012v.681a2.044 2.044 0 0 0-.156-.025 1.54 1.54 0 0 0-.253-.02c-.212 0-.402.044-.568.133a.977.977 0 0 0-.534.89V94.1h-.671Zm3.541 1.636a1.476 1.476 0 0 1-.488-.08l.17-.591c.163.042.307.057.432.046a.515.515 0 0 0 .332-.168c.099-.099.189-.259.27-.48l.125-.341-1.613-4.386h.727l1.204 3.477h.046l1.204-3.477h.728l-1.853 5a1.886 1.886 0 0 1-.309.56 1.16 1.16 0 0 1-.429.332 1.324 1.324 0 0 1-.546.108Z" fill="#1A1A1A"/><circle cx="159" cy="105.1" r="2" fill="#DEDEDE"/><path d="M162.986 102.907v-.625h4.364v.625h-1.83v5.193h-.704v-5.193h-1.83Zm6.557 5.284c-.42 0-.783-.093-1.088-.278a1.875 1.875 0 0 1-.702-.784 2.693 2.693 0 0 1-.244-1.177c0-.447.082-.841.244-1.181.165-.343.394-.61.688-.802.295-.193.64-.289 1.034-.289.227 0 .452.038.673.113.222.076.424.199.605.37.182.168.327.392.435.67.108.278.162.621.162 1.028v.285h-3.364v-.58h2.682c0-.246-.049-.466-.148-.659a1.102 1.102 0 0 0-.414-.457 1.162 1.162 0 0 0-.631-.168 1.2 1.2 0 0 0-.693.199c-.193.13-.342.301-.446.511-.104.21-.156.436-.156.676v.387c0 .329.056.609.17.838.116.227.276.4.48.52.205.117.442.176.713.176.176 0 .335-.025.477-.074.144-.051.268-.127.373-.227.104-.103.184-.23.241-.381l.648.182a1.433 1.433 0 0 1-.344.579c-.161.165-.36.294-.597.387a2.204 2.204 0 0 1-.798.136Zm2.827-.091v-4.364h.648v.682h.056c.091-.233.238-.414.441-.542.202-.131.446-.196.73-.196.288 0 .527.065.719.196.193.128.343.309.451.542h.046c.112-.225.279-.404.503-.537.223-.134.491-.201.804-.201.39 0 .709.122.957.366.248.243.372.62.372 1.134v2.92h-.67v-2.92c0-.322-.088-.552-.265-.691a.978.978 0 0 0-.622-.207c-.307 0-.544.093-.713.278a.998.998 0 0 0-.253.699v2.841h-.681v-2.989a.785.785 0 0 0-.242-.599.866.866 0 0 0-.622-.23.92.92 0 0 0-.489.139 1.055 1.055 0 0 0-.363.386 1.143 1.143 0 0 0-.137.566v2.727h-.67Zm6.953 1.636v-6h.648v.694h.079c.05-.076.118-.173.205-.29.089-.119.216-.226.38-.318.167-.095.393-.142.677-.142.367 0 .691.091.971.275.281.184.499.444.656.781.158.338.236.735.236 1.194 0 .462-.078.862-.236 1.201a1.858 1.858 0 0 1-.653.784 1.704 1.704 0 0 1-.963.276c-.28 0-.505-.046-.673-.139a1.256 1.256 0 0 1-.39-.321 5.05 5.05 0 0 1-.21-.301h-.057v2.306h-.67Zm.659-3.818c0 .33.048.621.145.872.097.25.238.446.423.589.186.14.413.21.682.21a1.1 1.1 0 0 0 .702-.222c.189-.149.331-.35.426-.602.097-.254.145-.536.145-.847 0-.307-.048-.583-.142-.829a1.28 1.28 0 0 0-.424-.588c-.187-.146-.423-.219-.707-.219-.273 0-.502.069-.687.207a1.25 1.25 0 0 0-.421.574c-.095.244-.142.53-.142.855Zm6.046 2.273c-.421 0-.784-.093-1.089-.278a1.873 1.873 0 0 1-.701-.784 2.679 2.679 0 0 1-.245-1.177c0-.447.082-.841.245-1.181.165-.343.394-.61.687-.802.296-.193.64-.289 1.034-.289.228 0 .452.038.674.113.221.076.423.199.605.37.182.168.326.392.434.67.108.278.162.621.162 1.028v.285h-3.363v-.58h2.682c0-.246-.05-.466-.148-.659a1.111 1.111 0 0 0-.415-.457 1.16 1.16 0 0 0-.631-.168 1.2 1.2 0 0 0-.693.199c-.193.13-.342.301-.446.511-.104.21-.156.436-.156.676v.387c0 .329.057.609.17.838.116.227.276.4.48.52.205.117.443.176.714.176.176 0 .335-.025.477-.074.144-.051.268-.127.372-.227.104-.103.185-.23.241-.381l.648.182a1.433 1.433 0 0 1-.344.579 1.672 1.672 0 0 1-.596.387 2.212 2.212 0 0 1-.798.136Zm2.826-.091v-4.364h.648v.66h.045a1.05 1.05 0 0 1 .432-.526c.209-.134.443-.202.705-.202a6.951 6.951 0 0 1 .352.012v.681a2.363 2.363 0 0 0-.156-.025 1.572 1.572 0 0 0-.253-.02c-.212 0-.402.045-.568.134a.98.98 0 0 0-.534.889v2.761h-.671Zm4.261.102c-.277 0-.528-.052-.753-.156a1.295 1.295 0 0 1-.537-.457 1.296 1.296 0 0 1-.199-.728c0-.25.049-.452.148-.607.098-.158.23-.281.395-.37a2.09 2.09 0 0 1 .545-.199c.201-.045.403-.081.605-.108.266-.034.481-.059.645-.076.167-.019.288-.051.364-.094.078-.044.116-.119.116-.227v-.023c0-.28-.076-.498-.23-.653-.151-.156-.381-.233-.69-.233-.32 0-.571.07-.753.21-.182.14-.31.29-.383.449l-.637-.228c.114-.265.265-.471.455-.619.191-.15.399-.254.625-.312.227-.061.451-.091.67-.091.14 0 .301.017.483.051.184.032.361.099.531.201.173.103.316.257.429.464.114.206.171.483.171.829v2.875h-.671v-.591h-.034a1.165 1.165 0 0 1-.227.304c-.106.108-.247.2-.423.276a1.644 1.644 0 0 1-.645.113Zm.102-.602c.265 0 .489-.052.671-.156a1.06 1.06 0 0 0 .556-.923v-.614c-.028.034-.09.065-.187.094a3.38 3.38 0 0 1-.33.071 14.127 14.127 0 0 1-.642.085c-.174.023-.337.06-.488.111a.843.843 0 0 0-.364.224.573.573 0 0 0-.136.404c0 .233.086.409.258.528.174.117.395.176.662.176Zm5.019-3.864v.569h-2.261v-.569h2.261Zm-1.602-1.045h.671v4.159c0 .189.027.332.082.426a.427.427 0 0 0 .216.188c.089.03.183.045.281.045.074 0 .135-.004.182-.011l.114-.023.136.602a1.471 1.471 0 0 1-.5.08c-.19 0-.375-.041-.557-.122a1.12 1.12 0 0 1-.449-.372 1.073 1.073 0 0 1-.176-.631v-4.341Zm5.361 3.625v-2.58h.67v4.364h-.67v-.739h-.046c-.102.222-.261.41-.477.566-.216.153-.489.23-.818.23-.273 0-.515-.06-.727-.179a1.25 1.25 0 0 1-.5-.546c-.122-.244-.182-.552-.182-.923v-2.773h.67v2.728c0 .318.089.572.267.761.18.189.409.284.688.284.167 0 .336-.042.508-.128.175-.085.32-.216.438-.392.119-.176.179-.4.179-.673Zm1.898 1.784v-4.364h.648v.66h.045a1.05 1.05 0 0 1 .432-.526c.209-.134.443-.202.705-.202a7.084 7.084 0 0 1 .352.012v.681a2.363 2.363 0 0 0-.156-.025 1.572 1.572 0 0 0-.253-.02c-.212 0-.401.045-.568.134a.98.98 0 0 0-.534.889v2.761h-.671Zm4.674.091c-.421 0-.784-.093-1.088-.278a1.869 1.869 0 0 1-.702-.784c-.163-.338-.244-.73-.244-1.177 0-.447.081-.841.244-1.181.165-.343.394-.61.687-.802.296-.193.64-.289 1.034-.289.228 0 .452.038.674.113.221.076.423.199.605.37.182.168.327.392.434.67.108.278.162.621.162 1.028v.285h-3.363v-.58h2.682c0-.246-.05-.466-.148-.659a1.111 1.111 0 0 0-.415-.457 1.16 1.16 0 0 0-.631-.168 1.2 1.2 0 0 0-.693.199c-.193.13-.342.301-.446.511-.104.21-.156.436-.156.676v.387c0 .329.057.609.17.838.116.227.276.4.481.52.204.117.442.176.713.176.176 0 .335-.025.477-.074.144-.051.268-.127.372-.227a1.05 1.05 0 0 0 .242-.381l.647.182a1.433 1.433 0 0 1-.344.579 1.672 1.672 0 0 1-.596.387 2.212 2.212 0 0 1-.798.136Z" fill="#1A1A1A"/><rect x="-.75" y=".75" width="158.5" height="158.5" rx="39.25" transform="matrix(-1 0 0 1 158.5 133.188)" fill="#F4F8FE" stroke="#3E9AF8" stroke-width="1.5"/><rect x="42.485" y="184.692" width="75.03" height="81.59" rx="1.025" fill="#fff" stroke="#1A1A1A" stroke-width=".41"/><rect x="39.205" y="266.283" width="81.59" height="8.2" rx="1.025" fill="#fff" stroke="#1A1A1A" stroke-width=".41"/><rect x="39.205" y="179.977" width="81.59" height="4.51" rx="1.025" fill="#fff" stroke="#1A1A1A" stroke-width=".41"/><path d="M69.919 235.686a.41.41 0 0 1-.355-.615l10.081-17.413a.41.41 0 0 1 .71 0l10.08 17.413a.41.41 0 0 1-.354.615H69.92Z" stroke="#1A1A1A" stroke-width="1.64"/><path d="m80.896 225.968-3.452 3.092a.333.333 0 0 0 .193.577l2.696.26-1.616 2.253a.262.262 0 0 0 .026.336c.1.1.257.103.36.007l3.453-3.093a.332.332 0 0 0-.194-.576l-2.696-.26 1.617-2.253a.262.262 0 0 0-.027-.336.256.256 0 0 0-.36-.007Z" fill="#1A1A1A"/><path d="M52.735 158.741c0-.714.31-1.392.849-1.859l1.126-.976a6.354 6.354 0 0 1 4.163-1.554h1.254c1.53 0 3.008.552 4.163 1.554l1.126.976c.54.467.849 1.145.849 1.859v.491a2.46 2.46 0 0 1-1.641 2.32l-.449.158a7.59 7.59 0 0 1-2.524.432H57.35c-.86 0-1.714-.146-2.525-.432l-.449-.158a2.46 2.46 0 0 1-1.641-2.32v-.491ZM52.735 166.531c0-.714.31-1.392.849-1.859l1.126-.976a6.354 6.354 0 0 1 4.163-1.554h1.254c1.53 0 3.008.552 4.163 1.554l1.126.976c.54.467.849 1.145.849 1.859v.491a2.46 2.46 0 0 1-1.641 2.32l-.449.158a7.59 7.59 0 0 1-2.524.432H57.35c-.86 0-1.714-.146-2.525-.432l-.449-.158a2.46 2.46 0 0 1-1.641-2.32v-.491ZM52.735 174.321c0-.714.31-1.392.849-1.859l1.126-.976a6.353 6.353 0 0 1 4.163-1.553h1.254c1.53 0 3.008.551 4.163 1.553l1.126.976c.54.467.849 1.145.849 1.859v.491a2.46 2.46 0 0 1-1.641 2.32l-.449.158a7.59 7.59 0 0 1-2.524.433H57.35a7.59 7.59 0 0 1-2.525-.433l-.449-.158a2.46 2.46 0 0 1-1.641-2.32v-.491Z" fill="#fff" stroke="#1A1A1A" stroke-width=".41"/><rect x="57.45" y="151.482" width="4.1" height="3.075" rx=".41" fill="#1A1A1A"/><rect x="56.425" y="177.723" width="6.15" height="2.255" rx=".205" fill="#fff" stroke="#1A1A1A" stroke-width=".41"/><path d="M93.735 158.946c0-.714.31-1.392.849-1.859l1.126-.976a6.353 6.353 0 0 1 4.163-1.553h1.254c1.53 0 3.008.551 4.163 1.553l1.126.976a2.46 2.46 0 0 1 .849 1.859v.491a2.46 2.46 0 0 1-1.641 2.32l-.449.158a7.588 7.588 0 0 1-2.524.433H98.35a7.59 7.59 0 0 1-2.525-.433l-.449-.158a2.46 2.46 0 0 1-1.641-2.32v-.491Z" fill="#fff" stroke="#1A1A1A" stroke-width=".41"/><path d="M93.735 166.736c0-.714.31-1.392.849-1.859l1.126-.976a6.353 6.353 0 0 1 4.163-1.553h1.254c1.53 0 3.008.551 4.163 1.553l1.126.976a2.46 2.46 0 0 1 .849 1.859v.491a2.46 2.46 0 0 1-1.641 2.32l-.449.158a7.588 7.588 0 0 1-2.524.433H98.35a7.59 7.59 0 0 1-2.525-.433l-.449-.158a2.46 2.46 0 0 1-1.641-2.32v-.491Z" fill="#fff" stroke="#1A1A1A" stroke-width=".41"/><path d="M93.735 174.526c0-.714.31-1.392.849-1.859l1.126-.976a6.353 6.353 0 0 1 4.163-1.553h1.254c1.53 0 3.008.551 4.163 1.553l1.126.976a2.46 2.46 0 0 1 .849 1.859v.491a2.46 2.46 0 0 1-1.641 2.32l-.449.158a7.588 7.588 0 0 1-2.524.433H98.35a7.59 7.59 0 0 1-2.525-.433l-.449-.158a2.46 2.46 0 0 1-1.641-2.32v-.491Z" fill="#fff" stroke="#1A1A1A" stroke-width=".41"/><rect x="98.45" y="151.688" width="4.1" height="3.075" rx=".41" fill="#1A1A1A"/><rect x="97.425" y="177.928" width="6.15" height="2.255" rx=".205" fill="#fff" stroke="#1A1A1A" stroke-width=".41"/><path d="M73.235 158.946c0-.714.31-1.392.849-1.859l1.126-.976a6.353 6.353 0 0 1 4.163-1.553h1.254c1.53 0 3.008.551 4.163 1.553l1.126.976c.54.467.849 1.145.849 1.859v.491a2.46 2.46 0 0 1-1.641 2.32l-.449.158a7.59 7.59 0 0 1-2.524.433H77.85a7.59 7.59 0 0 1-2.525-.433l-.449-.158a2.46 2.46 0 0 1-1.641-2.32v-.491Z" fill="#fff" stroke="#1A1A1A" stroke-width=".41"/><path d="M73.235 166.736c0-.714.31-1.392.849-1.859l1.126-.976a6.353 6.353 0 0 1 4.163-1.553h1.254c1.53 0 3.008.551 4.163 1.553l1.126.976c.54.467.849 1.145.849 1.859v.491a2.46 2.46 0 0 1-1.641 2.32l-.449.158a7.59 7.59 0 0 1-2.524.433H77.85a7.59 7.59 0 0 1-2.525-.433l-.449-.158a2.46 2.46 0 0 1-1.641-2.32v-.491Z" fill="#fff" stroke="#1A1A1A" stroke-width=".41"/><path d="M73.235 174.526c0-.714.31-1.392.849-1.859l1.126-.976a6.353 6.353 0 0 1 4.163-1.553h1.254c1.53 0 3.008.551 4.163 1.553l1.126.976c.54.467.849 1.145.849 1.859v.491a2.46 2.46 0 0 1-1.641 2.32l-.449.158a7.59 7.59 0 0 1-2.524.433H77.85a7.59 7.59 0 0 1-2.525-.433l-.449-.158a2.46 2.46 0 0 1-1.641-2.32v-.491Z" fill="#fff" stroke="#1A1A1A" stroke-width=".41"/><rect x="77.95" y="151.688" width="4.1" height="3.075" rx=".41" fill="#1A1A1A"/><rect x="76.925" y="177.928" width="6.15" height="2.255" rx=".205" fill="#fff" stroke="#1A1A1A" stroke-width=".41"/><rect x="-.75" y=".75" width="158.5" height="158.5" rx="39.25" transform="matrix(-1 0 0 1 341.5 65.438)" fill="#F4F8FE" stroke="#3E9AF8" stroke-width="1.5"/><g clip-path="url(#a)" stroke="#1A1A1A"><path d="M253.65 130.688h17.7" stroke-width=".295"/><path d="M291.557 121.837v9.293" stroke-width=".885"/><path d="M279.02 101.188v7.375M245.98 101.188v7.375" stroke-width=".295"/><path d="M233.443 121.837v9.293" stroke-width=".885"/><path d="m244.38 101.04 9.809-5.605h17.622l9.809 5.605h-37.24ZM234.223 121.69l20.105-8.555h17.344l20.105 8.555h-57.554Z" fill="#999" stroke-width=".295"/><path d="m271.205 130.643 14.691 73.38-23.33-11.665-.066-.033-.066.033-23.33 11.665 14.691-73.38.003-.015V95.495l8.702-8.847 8.703 8.847v35.133l.002.015Z" fill="#999" stroke-width=".295"/><path d="m262.5 192.342-19.175-9.882M262.5 172.577l-19.027 9.883M281.675 182.46l-19.175 9.882M281.528 182.46l-19.028-9.882M277.988 164.613l-15.488 7.965M277.988 164.612l-15.488-7.965M275.038 150.2l-12.538 6.447M275.038 150.01l-12.538-6.448M272.743 138.358l-10.243 5.267M262.566 143.625l-10.243-5.268M262.5 156.648l-12.537-6.448M262.5 143.562l-12.537 6.448M262.5 172.577l-15.488-7.965M262.5 156.647l-15.488 7.965M253.797 113.135h17.405M253.797 121.69h17.405M276.365 108.562h5.31M243.325 108.562h5.31M253.797 130.688h17.405M253.797 101.04h17.405M253.797 95.435h17.405" stroke-width=".295"/></g><defs><clipPath id="a"><path fill="#fff" transform="translate(233 86.438)" d="M0 0h59v118H0z"/></clipPath></defs></svg>