<svg width="337" height="292" fill="none" xmlns="http://www.w3.org/2000/svg"><rect x="177.75" y="72" width="158.5" height="158.5" rx="39.25" fill="#F4F8FE" stroke="#3E9AF8" stroke-width="1.5"/><path fill="#fff" stroke="#1A1A1A" stroke-width=".5" d="M207.25 102h99.5v99.5h-99.5z"/><rect x="219.25" y="161" width="75.5" height="20.5" rx=".75" fill="#DEDEDE" stroke="#1A1A1A" stroke-width=".5"/><rect x="219.25" y="122" width="75.5" height="20.5" rx=".75" fill="#DEDEDE" stroke="#1A1A1A" stroke-width=".5"/><path d="M238.297 176.119c-.642 0-1.189-.174-1.641-.524-.451-.352-.797-.862-1.035-1.53-.239-.67-.358-1.48-.358-2.429 0-.943.119-1.748.358-2.416.241-.67.588-1.182 1.04-1.534.454-.355 1-.533 1.636-.533.636 0 1.18.178 1.632.533.455.352.801.864 1.04 1.534.241.668.362 1.473.362 2.416 0 .949-.119 1.759-.358 2.429-.239.668-.584 1.178-1.035 1.53-.452.35-.999.524-1.641.524Zm0-.937c.636 0 1.131-.307 1.483-.921.352-.613.528-1.488.528-2.625 0-.755-.081-1.399-.243-1.93-.159-.531-.389-.936-.69-1.215a1.525 1.525 0 0 0-1.078-.417c-.631 0-1.124.311-1.479.933-.355.619-.532 1.496-.532 2.629 0 .756.079 1.398.238 1.926.159.529.388.931.686 1.206.301.276.664.414 1.087.414Zm7.5.937c-.642 0-1.189-.174-1.641-.524-.451-.352-.797-.862-1.035-1.53-.239-.67-.358-1.48-.358-2.429 0-.943.119-1.748.358-2.416.241-.67.588-1.182 1.04-1.534.454-.355 1-.533 1.636-.533.636 0 1.18.178 1.632.533.455.352.801.864 1.04 1.534.241.668.362 1.473.362 2.416 0 .949-.119 1.759-.358 2.429-.239.668-.584 1.178-1.035 1.53-.452.35-.999.524-1.641.524Zm0-.937c.636 0 1.131-.307 1.483-.921.352-.613.528-1.488.528-2.625 0-.755-.081-1.399-.243-1.93-.159-.531-.389-.936-.69-1.215a1.525 1.525 0 0 0-1.078-.417c-.631 0-1.124.311-1.479.933-.355.619-.532 1.496-.532 2.629 0 .756.079 1.398.238 1.926.159.529.388.931.686 1.206.301.276.664.414 1.087.414Zm7.5.937c-.642 0-1.189-.174-1.641-.524-.451-.352-.797-.862-1.035-1.53-.239-.67-.358-1.48-.358-2.429 0-.943.119-1.748.358-2.416.241-.67.588-1.182 1.04-1.534.454-.355 1-.533 1.636-.533.636 0 1.18.178 1.632.533.455.352.801.864 1.04 1.534.241.668.362 1.473.362 2.416 0 .949-.119 1.759-.358 2.429-.239.668-.584 1.178-1.035 1.53-.452.35-.999.524-1.641.524Zm0-.937c.636 0 1.131-.307 1.483-.921.352-.613.528-1.488.528-2.625 0-.755-.081-1.399-.243-1.93-.159-.531-.389-.936-.69-1.215a1.525 1.525 0 0 0-1.078-.417c-.631 0-1.124.311-1.479.933-.355.619-.532 1.496-.532 2.629 0 .756.079 1.398.238 1.926.159.529.388.931.686 1.206.301.276.664.414 1.087.414Zm7.5.937c-.642 0-1.189-.174-1.641-.524-.451-.352-.797-.862-1.035-1.53-.239-.67-.358-1.48-.358-2.429 0-.943.119-1.748.358-2.416.241-.67.588-1.182 1.04-1.534.454-.355 1-.533 1.636-.533.636 0 1.18.178 1.632.533.455.352.801.864 1.04 1.534.241.668.362 1.473.362 2.416 0 .949-.119 1.759-.358 2.429-.239.668-.584 1.178-1.035 1.53-.452.35-.999.524-1.641.524Zm0-.937c.636 0 1.131-.307 1.483-.921.352-.613.528-1.488.528-2.625 0-.755-.081-1.399-.243-1.93-.159-.531-.389-.936-.69-1.215a1.525 1.525 0 0 0-1.078-.417c-.631 0-1.124.311-1.479.933-.355.619-.532 1.496-.532 2.629 0 .756.079 1.398.238 1.926.159.529.388.931.686 1.206.301.276.664.414 1.087.414Zm4.653.818v-.767l2.881-3.153c.338-.37.616-.691.835-.964.219-.275.381-.534.486-.775.108-.244.162-.5.162-.767a1.413 1.413 0 0 0-.818-1.317 1.938 1.938 0 0 0-.853-.183c-.335 0-.627.069-.877.209a1.436 1.436 0 0 0-.576.575c-.133.247-.2.537-.2.869h-1.006c0-.511.118-.96.354-1.346.236-.387.557-.688.963-.904a2.903 2.903 0 0 1 1.377-.324c.511 0 .964.108 1.359.324.395.216.704.507.929.874.224.366.337.774.337 1.223 0 .321-.059.635-.175.942-.114.304-.313.643-.597 1.018-.281.372-.672.827-1.172 1.364l-1.96 2.096v.068h4.057V176h-5.506Zm10.215.119c-.563 0-1.064-.096-1.504-.289a2.586 2.586 0 0 1-1.045-.806 2.169 2.169 0 0 1-.417-1.206h1.074c.022.281.119.524.289.729.171.202.394.358.67.469.275.11.581.166.916.166.375 0 .707-.066.997-.196.29-.131.517-.313.682-.546a1.37 1.37 0 0 0 .247-.809c0-.321-.08-.604-.239-.848a1.58 1.58 0 0 0-.699-.58c-.306-.139-.681-.209-1.125-.209h-.699v-.937h.699c.347 0 .651-.063.912-.188a1.412 1.412 0 0 0 .844-1.329c0-.296-.065-.553-.196-.772a1.344 1.344 0 0 0-.554-.511 1.795 1.795 0 0 0-.835-.183c-.301 0-.585.055-.852.166a1.583 1.583 0 0 0-.648.473 1.23 1.23 0 0 0-.273.742h-1.023c.017-.458.155-.858.414-1.202a2.59 2.59 0 0 1 1.014-.81c.42-.193.882-.29 1.385-.29.54 0 1.003.11 1.389.329.386.215.683.501.891.856.207.355.311.739.311 1.151 0 .491-.129.91-.388 1.257a1.973 1.973 0 0 1-1.044.72v.068c.551.091.981.325 1.291.703.31.375.465.84.465 1.394 0 .474-.13.9-.388 1.278a2.629 2.629 0 0 1-1.048.886c-.444.216-.948.324-1.513.324ZM238.664 137.119c-.642 0-1.189-.174-1.641-.524-.451-.352-.796-.862-1.035-1.53-.239-.67-.358-1.48-.358-2.429 0-.943.119-1.748.358-2.416.241-.67.588-1.182 1.04-1.534.454-.355 1-.533 1.636-.533.636 0 1.18.178 1.632.533.455.352.801.864 1.04 1.534.241.668.362 1.473.362 2.416 0 .949-.119 1.759-.358 2.429-.238.668-.584 1.178-1.035 1.53-.452.35-.999.524-1.641.524Zm0-.937c.636 0 1.131-.307 1.483-.921.352-.613.528-1.488.528-2.625 0-.755-.081-1.399-.242-1.93-.16-.531-.39-.936-.691-1.215a1.523 1.523 0 0 0-1.078-.417c-.631 0-1.124.311-1.479.933-.355.619-.532 1.496-.532 2.629 0 .756.079 1.398.238 1.926.159.529.388.931.686 1.206.302.276.664.414 1.087.414Zm7.5.937c-.642 0-1.189-.174-1.641-.524-.451-.352-.796-.862-1.035-1.53-.239-.67-.358-1.48-.358-2.429 0-.943.119-1.748.358-2.416.241-.67.588-1.182 1.04-1.534.454-.355 1-.533 1.636-.533.636 0 1.18.178 1.632.533.455.352.801.864 1.04 1.534.241.668.362 1.473.362 2.416 0 .949-.119 1.759-.358 2.429-.238.668-.584 1.178-1.035 1.53-.452.35-.999.524-1.641.524Zm0-.937c.636 0 1.131-.307 1.483-.921.352-.613.528-1.488.528-2.625 0-.755-.081-1.399-.242-1.93-.16-.531-.39-.936-.691-1.215a1.523 1.523 0 0 0-1.078-.417c-.631 0-1.124.311-1.479.933-.355.619-.532 1.496-.532 2.629 0 .756.079 1.398.238 1.926.159.529.388.931.686 1.206.302.276.664.414 1.087.414Zm7.5.937c-.642 0-1.189-.174-1.641-.524-.451-.352-.796-.862-1.035-1.53-.239-.67-.358-1.48-.358-2.429 0-.943.119-1.748.358-2.416.241-.67.588-1.182 1.04-1.534.454-.355 1-.533 1.636-.533.636 0 1.18.178 1.632.533.455.352.801.864 1.04 1.534.241.668.362 1.473.362 2.416 0 .949-.119 1.759-.358 2.429-.238.668-.584 1.178-1.035 1.53-.452.35-.999.524-1.641.524Zm0-.937c.636 0 1.131-.307 1.483-.921.352-.613.528-1.488.528-2.625 0-.755-.081-1.399-.242-1.93-.16-.531-.39-.936-.691-1.215a1.523 1.523 0 0 0-1.078-.417c-.631 0-1.124.311-1.479.933-.355.619-.532 1.496-.532 2.629 0 .756.079 1.398.238 1.926.159.529.388.931.686 1.206.302.276.664.414 1.087.414Zm4.653.818v-.767l2.881-3.153c.338-.37.617-.691.835-.964.219-.275.381-.534.486-.775.108-.244.162-.5.162-.767a1.42 1.42 0 0 0-.221-.797 1.44 1.44 0 0 0-.597-.52 1.936 1.936 0 0 0-.852-.183c-.336 0-.628.069-.878.209a1.434 1.434 0 0 0-.575.575 1.796 1.796 0 0 0-.201.869h-1.005c0-.511.117-.96.353-1.346.236-.387.557-.688.963-.904a2.903 2.903 0 0 1 1.377-.324c.511 0 .964.108 1.359.324.395.216.705.507.929.874.225.366.337.774.337 1.223 0 .321-.058.635-.175.942-.114.304-.312.643-.597 1.018-.281.372-.671.827-1.171 1.364l-1.961 2.096v.068h4.057V137h-5.506Zm7.266 0v-.767l2.881-3.153c.338-.37.616-.691.835-.964.219-.275.381-.534.486-.775.108-.244.162-.5.162-.767a1.413 1.413 0 0 0-.818-1.317 1.938 1.938 0 0 0-.853-.183c-.335 0-.628.069-.878.209a1.44 1.44 0 0 0-.575.575c-.133.247-.2.537-.2.869h-1.006c0-.511.118-.96.354-1.346.236-.387.557-.688.963-.904a2.902 2.902 0 0 1 1.376-.324c.512 0 .965.108 1.36.324.395.216.704.507.929.874.224.366.336.774.336 1.223 0 .321-.058.635-.174.942-.114.304-.313.643-.597 1.018-.281.372-.672.827-1.172 1.364l-1.96 2.096v.068h4.057V137h-5.506Zm10.215.119c-.563 0-1.064-.096-1.505-.289a2.59 2.59 0 0 1-1.044-.806 2.161 2.161 0 0 1-.417-1.206h1.074c.022.281.119.524.289.729.171.202.394.358.669.469.276.11.581.166.917.166.375 0 .707-.066.997-.196.289-.131.517-.313.682-.546a1.37 1.37 0 0 0 .247-.809c0-.321-.08-.604-.239-.848a1.58 1.58 0 0 0-.699-.58c-.307-.139-.682-.209-1.125-.209h-.699v-.937h.699c.347 0 .651-.063.912-.188a1.412 1.412 0 0 0 .844-1.329c0-.296-.065-.553-.196-.772a1.35 1.35 0 0 0-.554-.511 1.795 1.795 0 0 0-.835-.183c-.302 0-.586.055-.853.166-.264.108-.48.266-.647.473a1.23 1.23 0 0 0-.273.742h-1.023c.017-.458.155-.858.414-1.202a2.59 2.59 0 0 1 1.014-.81c.42-.193.882-.29 1.385-.29.539 0 1.003.11 1.389.329.386.215.683.501.891.856.207.355.311.739.311 1.151 0 .491-.13.91-.388 1.257a1.973 1.973 0 0 1-1.044.72v.068c.551.091.981.325 1.291.703.31.375.464.84.464 1.394 0 .474-.129.9-.387 1.278a2.625 2.625 0 0 1-1.049.886c-.443.216-.947.324-1.512.324Z" fill="#002878"/><path d="M249.627 187.25V194h-1.064v-6.75h1.064Zm2.953 1.995-2.07 2.294-1.134 1.16-.277-.896.857-1.059 1.345-1.499h1.279ZM251.53 194l-1.543-2.232.668-.743 2.101 2.975h-1.226Zm3.607-1.437 1.274-4.961h.668l-.075 1.278-1.362 5.12h-.694l.189-1.437Zm-.954-4.961 1.033 4.921.092 1.477h-.738l-1.481-6.398h1.094Zm4.342 4.908 1.019-4.908h1.099L259.162 194h-.738l.101-1.49Zm-1.187-4.908 1.262 4.974.184 1.424h-.694l-1.34-5.12-.071-1.278h.659Zm5.238-.352V194h-1.055v-6.75h1.055Zm-.185 4.197-.342-.005c.003-.328.048-.631.136-.909a2.33 2.33 0 0 1 .378-.725c.164-.208.36-.368.589-.479.228-.115.482-.172.76-.172.234 0 .445.032.633.097.19.064.354.168.492.312.138.141.242.325.312.554.073.225.11.501.11.826V194h-1.064v-3.063c0-.229-.033-.41-.101-.545a.583.583 0 0 0-.285-.29 1.054 1.054 0 0 0-.462-.092c-.19 0-.359.038-.505.114-.144.076-.264.18-.361.312-.096.132-.17.284-.219.457a2.102 2.102 0 0 0-.071.554ZM252.706 110.908v-.703h4.909v.703h-2.058v5.842h-.793v-5.842h-2.058Zm8.318-.703v6.545h-.793v-5.714h-.038l-1.598 1.061v-.806l1.636-1.086h.793ZM251.573 149.908v-.703h4.909v.703h-2.058v5.842h-.793v-5.842h-2.058Zm6.017 5.842v-.575l2.161-2.365c.253-.277.462-.518.626-.723.164-.206.286-.4.364-.581.081-.184.122-.375.122-.576 0-.23-.056-.429-.166-.597a1.07 1.07 0 0 0-.448-.39 1.441 1.441 0 0 0-.639-.138c-.251 0-.471.053-.658.157-.186.102-.33.246-.432.431-.1.186-.15.403-.15.652h-.754c0-.383.088-.72.265-1.009.177-.29.418-.516.722-.678a2.178 2.178 0 0 1 1.033-.243c.383 0 .723.081 1.019.243.296.162.529.38.697.655.168.275.252.581.252.917 0 .241-.043.477-.131.707a3.127 3.127 0 0 1-.447.764c-.211.279-.504.62-.879 1.022l-1.47 1.573v.051h3.042v.703h-4.129Z" fill="#1A1A1A"/><rect x=".75" y="132" width="158.5" height="158.5" rx="39.25" fill="#F4F8FE" stroke="#3E9AF8" stroke-width="1.5"/><g clip-path="url(#a)"><path fill="#fff" stroke="#1A1A1A" stroke-width=".5" d="M30.25 162h99.5v99.5h-99.5z"/><rect x="42.25" y="197.5" width="75.5" height="28.5" rx=".75" fill="#DEDEDE" stroke="#1A1A1A" stroke-width=".5"/><path d="M61.297 216.619c-.642 0-1.189-.174-1.64-.524-.452-.352-.798-.862-1.036-1.53-.239-.67-.358-1.48-.358-2.429 0-.943.12-1.748.358-2.416.241-.67.588-1.182 1.04-1.534.454-.355 1-.533 1.636-.533.636 0 1.18.178 1.632.533.454.352.801.864 1.04 1.534.241.668.362 1.473.362 2.416 0 .949-.12 1.759-.358 2.429-.239.668-.584 1.178-1.035 1.53-.452.35-1 .524-1.641.524Zm0-.937c.636 0 1.13-.307 1.483-.921.352-.613.528-1.488.528-2.625 0-.755-.08-1.399-.243-1.93-.159-.531-.389-.936-.69-1.215a1.525 1.525 0 0 0-1.078-.417c-.63 0-1.124.311-1.479.933-.355.619-.532 1.496-.532 2.629 0 .756.08 1.398.238 1.926.16.529.388.931.686 1.206.301.276.664.414 1.087.414Zm7.5.937c-.642 0-1.189-.174-1.64-.524-.453-.352-.798-.862-1.036-1.53-.239-.67-.358-1.48-.358-2.429 0-.943.12-1.748.358-2.416.241-.67.588-1.182 1.04-1.534.454-.355 1-.533 1.636-.533.636 0 1.18.178 1.632.533.454.352.801.864 1.04 1.534.241.668.362 1.473.362 2.416 0 .949-.12 1.759-.358 2.429-.239.668-.584 1.178-1.035 1.53-.452.35-1 .524-1.641.524Zm0-.937c.636 0 1.13-.307 1.483-.921.352-.613.528-1.488.528-2.625 0-.755-.08-1.399-.243-1.93-.159-.531-.389-.936-.69-1.215a1.525 1.525 0 0 0-1.078-.417c-.63 0-1.124.311-1.479.933-.355.619-.532 1.496-.532 2.629 0 .756.08 1.398.238 1.926.16.529.388.931.686 1.206.301.276.664.414 1.087.414Zm7.5.937c-.642 0-1.189-.174-1.64-.524-.453-.352-.798-.862-1.036-1.53-.239-.67-.358-1.48-.358-2.429 0-.943.12-1.748.358-2.416.241-.67.588-1.182 1.04-1.534.454-.355 1-.533 1.636-.533.636 0 1.18.178 1.632.533.454.352.801.864 1.04 1.534.241.668.362 1.473.362 2.416 0 .949-.12 1.759-.358 2.429-.239.668-.584 1.178-1.035 1.53-.452.35-1 .524-1.641.524Zm0-.937c.636 0 1.13-.307 1.483-.921.352-.613.528-1.488.528-2.625 0-.755-.08-1.399-.243-1.93-.159-.531-.389-.936-.69-1.215a1.525 1.525 0 0 0-1.078-.417c-.63 0-1.124.311-1.479.933-.355.619-.532 1.496-.532 2.629 0 .756.08 1.398.238 1.926.16.529.388.931.686 1.206.301.276.664.414 1.087.414Zm7.5.937c-.642 0-1.189-.174-1.64-.524-.453-.352-.798-.862-1.036-1.53-.239-.67-.358-1.48-.358-2.429 0-.943.12-1.748.358-2.416.241-.67.588-1.182 1.04-1.534.454-.355 1-.533 1.636-.533.636 0 1.18.178 1.632.533.454.352.801.864 1.04 1.534.241.668.362 1.473.362 2.416 0 .949-.12 1.759-.358 2.429-.239.668-.584 1.178-1.035 1.53-.452.35-1 .524-1.641.524Zm0-.937c.636 0 1.13-.307 1.483-.921.352-.613.528-1.488.528-2.625 0-.755-.08-1.399-.243-1.93-.159-.531-.389-.936-.69-1.215a1.525 1.525 0 0 0-1.078-.417c-.63 0-1.124.311-1.479.933-.355.619-.532 1.496-.532 2.629 0 .756.08 1.398.238 1.926.16.529.388.931.686 1.206.301.276.664.414 1.087.414Zm4.653.818v-.767l2.881-3.153c.338-.37.616-.691.835-.964.219-.275.38-.534.486-.775.108-.244.162-.5.162-.767 0-.307-.074-.573-.222-.797a1.44 1.44 0 0 0-.596-.52 1.936 1.936 0 0 0-.852-.183c-.336 0-.628.069-.878.209a1.436 1.436 0 0 0-.576.575c-.133.247-.2.537-.2.869h-1.006c0-.511.118-.96.354-1.346.236-.387.557-.688.963-.904.41-.216.868-.324 1.377-.324.51 0 .964.108 1.359.324.395.216.704.507.929.874.224.366.337.774.337 1.223 0 .321-.059.635-.175.942-.114.304-.313.643-.597 1.018-.281.372-.672.827-1.172 1.364l-1.96 2.096v.068h4.057v.938H88.45Zm10.215.119c-.563 0-1.064-.096-1.505-.289a2.583 2.583 0 0 1-1.043-.806 2.162 2.162 0 0 1-.418-1.206h1.074c.023.281.119.524.29.729.17.202.393.358.668.469.276.11.582.166.917.166.375 0 .707-.066.997-.196.29-.131.517-.313.682-.546a1.37 1.37 0 0 0 .247-.809c0-.321-.08-.604-.239-.848a1.58 1.58 0 0 0-.699-.58c-.306-.139-.681-.209-1.125-.209h-.698v-.937h.698c.347 0 .65-.063.912-.188a1.412 1.412 0 0 0 .844-1.329c0-.296-.065-.553-.196-.772a1.344 1.344 0 0 0-.554-.511 1.795 1.795 0 0 0-.835-.183c-.301 0-.585.055-.853.166-.264.108-.48.266-.647.473a1.234 1.234 0 0 0-.273.742h-1.023c.017-.458.155-.858.414-1.202a2.598 2.598 0 0 1 1.014-.81 3.28 3.28 0 0 1 1.385-.29c.54 0 1.003.11 1.389.329.386.215.683.501.891.856.207.355.311.739.311 1.151 0 .491-.129.91-.388 1.257a1.973 1.973 0 0 1-1.044.72v.068c.551.091.981.325 1.291.703.31.375.465.84.465 1.394 0 .474-.13.9-.388 1.278a2.629 2.629 0 0 1-1.048.886c-.444.216-.948.324-1.513.324Z" fill="#002878"/><path d="M72.627 239.5v6.75h-1.064v-6.75h1.064Zm2.953 1.995-2.07 2.294-1.134 1.16-.277-.896.857-1.059 1.345-1.499h1.279Zm-1.05 4.755-1.543-2.232.668-.743 2.1 2.975H74.53Zm3.607-1.437 1.274-4.961h.668l-.075 1.278-1.362 5.12h-.694l.189-1.437Zm-.954-4.961 1.033 4.921.092 1.477h-.738l-1.481-6.398h1.094Zm4.342 4.908 1.02-4.908h1.098l-1.48 6.398h-.74l.102-1.49Zm-1.187-4.908 1.262 4.974.184 1.424h-.694l-1.34-5.12-.07-1.278h.658Zm5.238-.352v6.75H84.52v-6.75h1.055Zm-.185 4.197-.342-.005c.002-.328.048-.631.136-.909.09-.279.217-.52.378-.725a1.678 1.678 0 0 1 1.349-.651c.234 0 .445.032.633.097a1.2 1.2 0 0 1 .492.312c.138.141.242.325.312.554.073.225.11.501.11.826v3.054h-1.064v-3.063c0-.229-.033-.41-.1-.545a.586.586 0 0 0-.286-.29 1.052 1.052 0 0 0-.462-.092c-.19 0-.359.038-.505.114a1.05 1.05 0 0 0-.36.312c-.097.132-.17.284-.22.457-.047.173-.07.357-.07.554ZM75.706 177.408v-.703h4.909v.703h-2.058v5.842h-.793v-5.842h-2.058Zm8.318-.703v6.545h-.793v-5.714h-.038l-1.598 1.061v-.806l1.636-1.086h.793Z" fill="#1A1A1A"/></g><rect x="59.75" y="1.5" width="158.5" height="158.5" rx="39.25" fill="#F4F8FE" stroke="#3E9AF8" stroke-width="1.5"/><g clip-path="url(#b)"><path fill="#fff" stroke="#1A1A1A" stroke-width=".4" d="M79.2 40.7h119.6v79.6H79.2z"/><rect x="88.8" y="56.7" width="47.6" height="16.4" rx=".6" fill="#DEDEDE" stroke="#1A1A1A" stroke-width=".4"/><rect x="141.6" y="56.7" width="47.6" height="16.4" rx=".6" fill="#DEDEDE" stroke="#1A1A1A" stroke-width=".4"/><path d="M96.731 68.196c-.513 0-.95-.14-1.312-.42-.362-.282-.638-.69-.829-1.224-.19-.536-.286-1.184-.286-1.943 0-.754.095-1.399.286-1.933.194-.536.47-.945.832-1.227.364-.284.8-.426 1.31-.426.508 0 .944.142 1.305.426.363.282.64.69.832 1.227.193.534.29 1.179.29 1.933 0 .76-.096 1.407-.287 1.943-.19.534-.467.942-.828 1.224-.362.28-.8.42-1.313.42Zm0-.75c.51 0 .905-.246 1.187-.737.281-.49.422-1.19.422-2.1 0-.604-.065-1.12-.194-1.544-.127-.425-.311-.749-.552-.972a1.22 1.22 0 0 0-.863-.334c-.504 0-.899.25-1.183.747-.284.495-.426 1.196-.426 2.103 0 .605.064 1.118.191 1.541.127.423.31.744.549.965.24.22.53.33.87.33Zm6 .75c-.513 0-.951-.14-1.312-.42-.362-.282-.638-.69-.829-1.224-.191-.536-.286-1.184-.286-1.943 0-.754.095-1.399.286-1.933.193-.536.471-.945.832-1.227.364-.284.8-.426 1.309-.426.509 0 .945.142 1.306.426.364.282.641.69.832 1.227.193.534.289 1.179.289 1.933 0 .76-.095 1.407-.286 1.943-.191.534-.467.942-.828 1.224-.362.28-.799.42-1.313.42Zm0-.75c.509 0 .905-.246 1.187-.737.281-.49.422-1.19.422-2.1 0-.604-.064-1.12-.194-1.544-.127-.425-.311-.749-.552-.972a1.22 1.22 0 0 0-.863-.334c-.504 0-.899.25-1.183.747-.284.495-.426 1.196-.426 2.103 0 .605.064 1.118.191 1.541.127.423.31.744.549.965.241.22.531.33.869.33Zm6 .75c-.513 0-.951-.14-1.312-.42-.362-.282-.638-.69-.829-1.224-.191-.536-.286-1.184-.286-1.943 0-.754.095-1.399.286-1.933.193-.536.471-.945.832-1.227.364-.284.8-.426 1.309-.426.509 0 .945.142 1.306.426.364.282.641.69.832 1.227.193.534.289 1.179.289 1.933 0 .76-.095 1.407-.286 1.943-.191.534-.467.942-.828 1.224-.362.28-.799.42-1.313.42Zm0-.75c.509 0 .905-.246 1.187-.737.281-.49.422-1.19.422-2.1 0-.604-.064-1.12-.194-1.544-.127-.425-.311-.749-.552-.972a1.22 1.22 0 0 0-.863-.334c-.504 0-.899.25-1.183.747-.284.495-.426 1.196-.426 2.103 0 .605.064 1.118.191 1.541.127.423.31.744.549.965.241.22.531.33.869.33Zm3.723.654v-.613l2.304-2.523c.271-.296.494-.552.669-.77.175-.221.304-.428.388-.621.087-.196.13-.4.13-.614 0-.245-.059-.458-.177-.637a1.148 1.148 0 0 0-.478-.416 1.545 1.545 0 0 0-.682-.147 1.42 1.42 0 0 0-.702.167c-.198.11-.351.263-.46.46a1.44 1.44 0 0 0-.16.696h-.805c0-.41.095-.768.283-1.077a1.97 1.97 0 0 1 .771-.723 2.32 2.32 0 0 1 1.101-.26c.409 0 .771.087 1.087.26.316.173.564.406.743.699.18.293.27.62.27.978 0 .257-.047.508-.14.754-.091.243-.25.514-.477.814a14.6 14.6 0 0 1-.938 1.091l-1.568 1.678v.054h3.245v.75h-4.404Zm5.812 0v-.613l2.305-2.523c.27-.296.493-.552.668-.77.175-.221.305-.428.389-.621.086-.196.129-.4.129-.614 0-.245-.059-.458-.177-.637a1.151 1.151 0 0 0-.477-.416 1.548 1.548 0 0 0-.682-.147 1.42 1.42 0 0 0-.702.167c-.198.11-.351.263-.461.46a1.45 1.45 0 0 0-.16.696h-.804c0-.41.094-.768.283-1.077a1.96 1.96 0 0 1 .77-.723 2.32 2.32 0 0 1 1.101-.26c.409 0 .772.087 1.088.26.316.173.563.406.743.699.179.293.269.62.269.978 0 .257-.046.508-.14.754-.09.243-.25.514-.477.814-.225.298-.537.662-.937 1.091l-1.568 1.678v.054h3.245v.75h-4.405Zm8.172.096c-.45 0-.851-.078-1.203-.232a2.065 2.065 0 0 1-.836-.645 1.735 1.735 0 0 1-.334-.964h.859c.019.225.096.419.232.583.137.161.315.286.535.375.221.088.465.133.733.133.3 0 .566-.053.798-.157.232-.105.414-.25.546-.437.131-.186.197-.402.197-.647a1.21 1.21 0 0 0-.191-.679 1.26 1.26 0 0 0-.559-.463c-.245-.112-.545-.167-.9-.167h-.559v-.75h.559c.278 0 .521-.05.73-.15a1.13 1.13 0 0 0 .675-1.064c0-.236-.052-.442-.157-.617a1.074 1.074 0 0 0-.443-.41 1.437 1.437 0 0 0-.668-.146 1.76 1.76 0 0 0-.682.133 1.264 1.264 0 0 0-.518.379.99.99 0 0 0-.219.593h-.818c.014-.366.124-.687.331-.962.207-.277.477-.493.811-.647a2.626 2.626 0 0 1 1.108-.232c.432 0 .803.087 1.112.262.309.173.546.402.712.686.166.284.249.59.249.92 0 .393-.103.728-.31 1.006-.205.277-.483.469-.835.576v.054c.44.073.785.26 1.033.563.247.3.371.671.371 1.115 0 .38-.103.72-.31 1.022a2.11 2.11 0 0 1-.839.71c-.354.172-.758.259-1.21.259ZM149.731 68.196c-.513 0-.951-.14-1.312-.42-.362-.282-.638-.69-.829-1.224-.191-.536-.286-1.184-.286-1.943 0-.754.095-1.399.286-1.933.193-.536.471-.945.832-1.227.364-.284.8-.426 1.309-.426.509 0 .945.142 1.306.426.364.282.641.69.832 1.227.193.534.289 1.179.289 1.933 0 .76-.095 1.407-.286 1.943-.191.534-.467.942-.828 1.224-.362.28-.799.42-1.313.42Zm0-.75c.509 0 .905-.246 1.187-.737.281-.49.422-1.19.422-2.1 0-.604-.064-1.12-.194-1.544-.127-.425-.311-.749-.552-.972a1.22 1.22 0 0 0-.863-.334c-.504 0-.899.25-1.183.747-.284.495-.426 1.196-.426 2.103 0 .605.064 1.118.191 1.541.127.423.31.744.549.965.241.22.531.33.869.33Zm6 .75c-.513 0-.951-.14-1.312-.42-.362-.282-.638-.69-.829-1.224-.191-.536-.286-1.184-.286-1.943 0-.754.095-1.399.286-1.933.193-.536.471-.945.832-1.227.364-.284.8-.426 1.309-.426.509 0 .945.142 1.306.426.364.282.641.69.832 1.227.193.534.289 1.179.289 1.933 0 .76-.095 1.407-.286 1.943-.191.534-.467.942-.828 1.224-.362.28-.799.42-1.313.42Zm0-.75c.509 0 .905-.246 1.187-.737.281-.49.422-1.19.422-2.1 0-.604-.064-1.12-.194-1.544-.127-.425-.311-.749-.552-.972a1.22 1.22 0 0 0-.863-.334c-.504 0-.899.25-1.183.747-.284.495-.426 1.196-.426 2.103 0 .605.064 1.118.191 1.541.127.423.31.744.549.965.241.22.531.33.869.33Zm6 .75c-.513 0-.951-.14-1.312-.42-.362-.282-.638-.69-.829-1.224-.191-.536-.286-1.184-.286-1.943 0-.754.095-1.399.286-1.933.193-.536.471-.945.832-1.227.364-.284.8-.426 1.309-.426.509 0 .945.142 1.306.426.364.282.641.69.832 1.227.193.534.289 1.179.289 1.933 0 .76-.095 1.407-.286 1.943-.191.534-.467.942-.828 1.224-.362.28-.799.42-1.313.42Zm0-.75c.509 0 .905-.246 1.187-.737.281-.49.422-1.19.422-2.1 0-.604-.064-1.12-.194-1.544-.127-.425-.311-.749-.552-.972a1.22 1.22 0 0 0-.863-.334c-.504 0-.899.25-1.183.747-.284.495-.426 1.196-.426 2.103 0 .605.064 1.118.191 1.541.127.423.31.744.549.965.241.22.531.33.869.33Zm3.723.654v-.613l2.304-2.523c.271-.296.494-.552.669-.77.175-.221.304-.428.388-.621.087-.196.13-.4.13-.614 0-.245-.059-.458-.177-.637a1.148 1.148 0 0 0-.478-.416 1.545 1.545 0 0 0-.682-.147 1.42 1.42 0 0 0-.702.167c-.198.11-.351.263-.46.46a1.44 1.44 0 0 0-.16.696h-.805c0-.41.095-.768.283-1.077a1.97 1.97 0 0 1 .771-.723 2.32 2.32 0 0 1 1.101-.26c.409 0 .771.087 1.087.26.316.173.564.406.743.699.18.293.27.62.27.978 0 .257-.047.508-.14.754-.091.243-.25.514-.477.814a14.6 14.6 0 0 1-.938 1.091l-1.568 1.678v.054h3.245v.75h-4.404Zm5.812 0v-.613l2.305-2.523c.27-.296.493-.552.668-.77.175-.221.305-.428.389-.621.086-.196.129-.4.129-.614 0-.245-.059-.458-.177-.637a1.151 1.151 0 0 0-.477-.416 1.548 1.548 0 0 0-.682-.147 1.42 1.42 0 0 0-.702.167c-.198.11-.351.263-.461.46a1.45 1.45 0 0 0-.16.696h-.804c0-.41.094-.768.283-1.077a1.96 1.96 0 0 1 .77-.723 2.32 2.32 0 0 1 1.101-.26c.409 0 .772.087 1.088.26.316.173.563.406.743.699.179.293.269.62.269.978 0 .257-.046.508-.14.754-.09.243-.25.514-.477.814-.225.298-.537.662-.937 1.091l-1.568 1.678v.054h3.245v.75h-4.405Zm8.172.096c-.45 0-.851-.078-1.203-.232a2.065 2.065 0 0 1-.836-.645 1.735 1.735 0 0 1-.334-.964h.859c.019.225.096.419.232.583.137.161.315.286.535.375.221.088.465.133.733.133.3 0 .566-.053.798-.157.232-.105.414-.25.546-.437.131-.186.197-.402.197-.647a1.21 1.21 0 0 0-.191-.679 1.26 1.26 0 0 0-.559-.463c-.245-.112-.545-.167-.9-.167h-.559v-.75h.559c.278 0 .521-.05.73-.15a1.13 1.13 0 0 0 .675-1.064c0-.236-.052-.442-.157-.617a1.074 1.074 0 0 0-.443-.41 1.437 1.437 0 0 0-.668-.146 1.76 1.76 0 0 0-.682.133 1.264 1.264 0 0 0-.518.379.99.99 0 0 0-.219.593h-.818c.014-.366.124-.687.331-.962.207-.277.477-.493.811-.647a2.626 2.626 0 0 1 1.108-.232c.432 0 .803.087 1.112.262.309.173.546.402.712.686.166.284.249.59.249.92 0 .393-.103.728-.31 1.006-.205.277-.483.469-.835.576v.054c.44.073.785.26 1.033.563.247.3.371.671.371 1.115 0 .38-.103.72-.31 1.022a2.11 2.11 0 0 1-.839.71c-.354.172-.758.259-1.21.259Z" fill="#002878"/><path d="M133.401 109.5v5.4h-.85v-5.4h.85Zm2.363 1.596-1.656 1.835-.907.928-.221-.717.685-.847 1.076-1.199h1.023Zm-.84 3.804-1.234-1.786.534-.594 1.681 2.38h-.981Zm2.885-1.15 1.02-3.969h.534l-.059 1.023-1.09 4.096h-.556l.151-1.15Zm-.762-3.969.826 3.938.074 1.181h-.591l-1.185-5.119h.876Zm3.473 3.927.816-3.927h.879l-1.185 5.119h-.591l.081-1.192Zm-.949-3.927 1.009 3.98.147 1.139h-.555l-1.072-4.096-.057-1.023h.528Zm4.19-.281v5.4h-.844v-5.4h.844Zm-.148 3.357-.274-.003a2.48 2.48 0 0 1 .109-.728c.073-.223.173-.416.302-.58a1.336 1.336 0 0 1 1.08-.52c.187 0 .356.025.506.077a.98.98 0 0 1 .394.25c.11.112.193.26.249.443.059.18.088.4.088.661v2.443h-.851v-2.45a.98.98 0 0 0-.081-.436.46.46 0 0 0-.228-.232.826.826 0 0 0-.369-.074.866.866 0 0 0-.405.091.853.853 0 0 0-.288.25 1.157 1.157 0 0 0-.176.365 1.712 1.712 0 0 0-.056.443ZM108.964 47.626v-.563h3.928v.563h-1.647V52.3h-.634v-4.674h-1.647Zm6.655-.563V52.3h-.634v-4.572h-.031l-1.278.85v-.645l1.309-.87h.634ZM161.358 47.626v-.563h3.928v.563h-1.647V52.3h-.634v-4.674h-1.647Zm4.814 4.674v-.46l1.729-1.893c.202-.221.369-.414.501-.577.131-.166.228-.32.291-.466.065-.146.097-.3.097-.46a.847.847 0 0 0-.491-.79 1.157 1.157 0 0 0-.511-.11c-.201 0-.377.042-.527.125a.865.865 0 0 0-.345.346c-.08.148-.12.322-.12.521h-.603c0-.307.07-.576.212-.808a1.47 1.47 0 0 1 .578-.542c.245-.13.52-.194.825-.194.307 0 .579.065.816.194.237.13.423.304.557.524.135.22.202.465.202.734 0 .193-.034.381-.104.565a2.539 2.539 0 0 1-.358.611c-.169.224-.403.496-.703.818l-1.177 1.258v.041h2.435v.563h-3.304Z" fill="#1A1A1A"/><rect x="115.2" y="87.9" width="47.6" height="16.4" rx=".6" fill="#DEDEDE" stroke="#1A1A1A" stroke-width=".4"/><path d="M124.038 99.395c-.514 0-.952-.14-1.313-.42-.361-.28-.637-.689-.828-1.223-.191-.536-.287-1.184-.287-1.943 0-.755.096-1.399.287-1.933.193-.536.47-.946.831-1.227.364-.284.8-.427 1.31-.427.509 0 .944.143 1.305.427.364.281.641.69.832 1.227.193.534.29 1.178.29 1.933 0 .759-.096 1.407-.287 1.943-.19.534-.467.942-.828 1.224-.361.28-.799.42-1.312.42Zm0-.75c.509 0 .904-.245 1.186-.736.282-.491.423-1.191.423-2.1 0-.605-.065-1.12-.195-1.544-.127-.425-.311-.75-.552-.972a1.22 1.22 0 0 0-.862-.334c-.505 0-.899.249-1.183.746-.285.496-.427 1.197-.427 2.104 0 .604.064 1.118.191 1.54.128.423.311.745.549.966.241.22.531.33.87.33Zm6 .75c-.514 0-.952-.14-1.313-.42-.361-.28-.637-.689-.828-1.223-.191-.536-.287-1.184-.287-1.943 0-.755.096-1.399.287-1.933.193-.536.47-.946.831-1.227.364-.284.8-.427 1.31-.427.509 0 .944.143 1.305.427.364.281.641.69.832 1.227.193.534.29 1.178.29 1.933 0 .759-.096 1.407-.287 1.943-.19.534-.467.942-.828 1.224-.361.28-.799.42-1.312.42Zm0-.75c.509 0 .904-.245 1.186-.736.282-.491.423-1.191.423-2.1 0-.605-.065-1.12-.195-1.544-.127-.425-.311-.75-.552-.972a1.22 1.22 0 0 0-.862-.334c-.505 0-.899.249-1.183.746-.285.496-.427 1.197-.427 2.104 0 .604.064 1.118.191 1.54.128.423.311.745.549.966.241.22.531.33.87.33Zm6 .75c-.514 0-.952-.14-1.313-.42-.361-.28-.637-.689-.828-1.223-.191-.536-.287-1.184-.287-1.943 0-.755.096-1.399.287-1.933.193-.536.47-.946.831-1.227.364-.284.8-.427 1.31-.427.509 0 .944.143 1.305.427.364.281.641.69.832 1.227.193.534.29 1.178.29 1.933 0 .759-.096 1.407-.287 1.943-.19.534-.467.942-.828 1.224-.361.28-.799.42-1.312.42Zm0-.75c.509 0 .904-.245 1.186-.736.282-.491.423-1.191.423-2.1 0-.605-.065-1.12-.195-1.544-.127-.425-.311-.75-.552-.972a1.22 1.22 0 0 0-.862-.334c-.505 0-.899.249-1.183.746-.285.496-.427 1.197-.427 2.104 0 .604.064 1.118.191 1.54.128.423.311.745.549.966.241.22.531.33.87.33Zm6 .75c-.514 0-.952-.14-1.313-.42-.361-.28-.637-.689-.828-1.223-.191-.536-.287-1.184-.287-1.943 0-.755.096-1.399.287-1.933.193-.536.47-.946.831-1.227.364-.284.8-.427 1.31-.427.509 0 .944.143 1.305.427.364.281.641.69.832 1.227.193.534.29 1.178.29 1.933 0 .759-.096 1.407-.287 1.943-.19.534-.467.942-.828 1.224-.361.28-.799.42-1.312.42Zm0-.75c.509 0 .904-.245 1.186-.736.282-.491.423-1.191.423-2.1 0-.605-.065-1.12-.195-1.544-.127-.425-.311-.75-.552-.972a1.22 1.22 0 0 0-.862-.334c-.505 0-.899.249-1.183.746-.285.496-.427 1.197-.427 2.104 0 .604.064 1.118.191 1.54.128.423.311.745.549.966.241.22.531.33.87.33Zm3.722.655v-.614l2.305-2.523c.27-.295.493-.552.668-.77.175-.22.305-.427.389-.62.086-.196.129-.4.129-.614 0-.246-.059-.458-.177-.638a1.151 1.151 0 0 0-.477-.415 1.551 1.551 0 0 0-.682-.147 1.42 1.42 0 0 0-.702.167 1.15 1.15 0 0 0-.461.46 1.44 1.44 0 0 0-.16.696h-.804c0-.41.094-.769.282-1.078a1.97 1.97 0 0 1 .771-.722 2.32 2.32 0 0 1 1.101-.26c.409 0 .772.087 1.088.26.315.172.563.405.743.698.179.294.269.62.269.979 0 .257-.047.508-.14.753-.091.243-.25.515-.477.815-.225.298-.537.661-.937 1.091l-1.569 1.677v.055h3.246v.75h-4.405Zm8.172.095c-.45 0-.851-.077-1.204-.232a2.062 2.062 0 0 1-.835-.644 1.734 1.734 0 0 1-.334-.965h.859c.018.225.096.42.232.583.136.162.315.287.535.375.221.089.465.133.733.133.3 0 .566-.052.798-.157.232-.104.414-.25.545-.436.132-.186.198-.402.198-.648 0-.257-.064-.483-.191-.678a1.26 1.26 0 0 0-.559-.464c-.245-.111-.545-.167-.9-.167h-.559v-.75h.559c.277 0 .521-.05.73-.15.211-.1.376-.24.494-.422.12-.182.181-.396.181-.641 0-.237-.053-.442-.157-.617a1.074 1.074 0 0 0-.443-.41 1.439 1.439 0 0 0-.669-.146c-.24 0-.468.044-.681.133a1.274 1.274 0 0 0-.519.378.99.99 0 0 0-.218.593h-.818c.014-.365.124-.686.331-.96.207-.278.477-.494.811-.649a2.626 2.626 0 0 1 1.108-.231c.432 0 .802.087 1.111.262.31.173.547.401.713.685.166.284.249.591.249.92 0 .394-.104.73-.31 1.006-.205.278-.483.47-.836.576v.055c.441.073.786.26 1.033.563.248.3.372.671.372 1.114 0 .38-.103.72-.31 1.023a2.11 2.11 0 0 1-.839.71c-.354.172-.758.258-1.21.258Z" fill="#002878"/><path d="M134.346 78.826v-.562h3.927v.562h-1.647V83.5h-.634v-4.674h-1.646Zm6.583 4.746a2.23 2.23 0 0 1-.903-.174 1.548 1.548 0 0 1-.626-.483 1.306 1.306 0 0 1-.251-.724h.645a.752.752 0 0 0 .174.437c.102.121.236.215.401.281.165.067.349.1.55.1.225 0 .424-.04.598-.118a.982.982 0 0 0 .409-.327.819.819 0 0 0 .148-.486.907.907 0 0 0-.143-.508.945.945 0 0 0-.419-.348 1.629 1.629 0 0 0-.675-.125h-.419v-.563h.419c.208 0 .39-.037.547-.112a.852.852 0 0 0 .506-.798.889.889 0 0 0-.117-.463.81.81 0 0 0-.333-.307 1.073 1.073 0 0 0-.501-.11c-.181 0-.351.034-.511.1a.954.954 0 0 0-.389.284.74.74 0 0 0-.163.445h-.614c.01-.275.093-.515.248-.721.155-.208.358-.37.608-.486.253-.116.53-.174.831-.174.324 0 .602.066.834.197.232.13.41.3.534.514.125.213.187.443.187.69 0 .295-.078.546-.233.754a1.177 1.177 0 0 1-.626.433v.04c.331.055.589.196.775.422.185.225.278.504.278.836 0 .285-.077.54-.232.767a1.591 1.591 0 0 1-.629.532 2.05 2.05 0 0 1-.908.195Z" fill="#1A1A1A"/></g><defs><clipPath id="a"><path fill="#fff" transform="translate(30 161.75)" d="M0 0h100v100H0z"/></clipPath><clipPath id="b"><path fill="#fff" transform="translate(79 40.5)" d="M0 0h120v80H0z"/></clipPath></defs></svg>