<svg width="246" height="308" viewBox="0 0 246 308" fill="none" xmlns="http://www.w3.org/2000/svg">
<path fill-rule="evenodd" clip-rule="evenodd" d="M42.4334 214H0V212.5H42.4334V214Z" fill="#91A3BE"/>
<path d="M42 214C42 199.555 44.8452 185.251 50.3732 171.905C55.9013 158.559 64.0038 146.433 74.2183 136.218C84.4327 126.004 96.559 117.901 109.905 112.373C123.251 106.845 137.555 104 152 104V105.499C137.751 105.499 123.642 108.305 110.478 113.758C97.3144 119.211 85.3533 127.203 75.2781 137.278C65.2028 147.353 57.2107 159.314 51.758 172.478C46.3053 185.642 43.4988 199.751 43.4988 214H42Z" fill="#91A3BE"/>
<path fill-rule="evenodd" clip-rule="evenodd" d="M151.5 105.5L151.5 23.5L153 23.5L153 105.5L151.5 105.5Z" fill="#91A3BE"/>
<path d="M164 12C164 18.6274 158.627 24 152 24C145.373 24 140 18.6274 140 12C140 5.37258 145.373 0 152 0C158.627 0 164 5.37258 164 12Z" fill="#F4F8FE"/>
<path fill-rule="evenodd" clip-rule="evenodd" d="M152 22.5C157.799 22.5 162.5 17.799 162.5 12C162.5 6.20101 157.799 1.5 152 1.5C146.201 1.5 141.5 6.20101 141.5 12C141.5 17.799 146.201 22.5 152 22.5ZM152 24C158.627 24 164 18.6274 164 12C164 5.37258 158.627 0 152 0C145.373 0 140 5.37258 140 12C140 18.6274 145.373 24 152 24Z" fill="#91A3BE"/>
<rect x="58.75" y="120.75" width="186.5" height="186.5" rx="93.25" stroke="#91A3BE" stroke-width="1.5"/>
<g clip-path="url(#clip0_11711_81034)">
<path fill-rule="evenodd" clip-rule="evenodd" d="M184.847 180.328C185.542 181.021 186.668 181.019 187.361 180.324L190.463 177.21C191.156 176.514 191.154 175.389 190.459 174.696C189.763 174.003 188.638 174.005 187.945 174.7L184.842 177.814C184.149 178.51 184.151 179.635 184.847 180.328Z" fill="#305680"/>
<path fill-rule="evenodd" clip-rule="evenodd" d="M165.007 180.328C165.703 179.635 165.705 178.51 165.012 177.814L161.909 174.7C161.216 174.005 160.091 174.003 159.395 174.696C158.7 175.389 158.698 176.514 159.391 177.21L162.493 180.324C163.186 181.019 164.312 181.021 165.007 180.328Z" fill="#305680"/>
<path fill-rule="evenodd" clip-rule="evenodd" d="M174.927 197.7C171.191 197.7 168.187 194.697 168.187 191.024C168.187 187.35 171.191 184.347 174.927 184.347C178.663 184.347 181.667 187.35 181.667 191.024C181.667 194.697 178.663 197.7 174.927 197.7ZM164.23 191.024C164.23 196.91 169.033 201.657 174.927 201.657C180.821 201.657 185.624 196.91 185.624 191.024C185.624 185.138 180.821 180.39 174.927 180.39C169.033 180.39 164.23 185.138 164.23 191.024Z" fill="#305680"/>
<path fill-rule="evenodd" clip-rule="evenodd" d="M190.608 206.594C191.378 205.819 191.374 204.566 190.598 203.796L187.495 200.716C186.72 199.946 185.467 199.95 184.697 200.726C183.928 201.501 183.932 202.754 184.708 203.524L187.81 206.604C188.586 207.374 189.838 207.37 190.608 206.594Z" fill="#305680"/>
<path fill-rule="evenodd" clip-rule="evenodd" d="M159.246 206.594C160.016 207.37 161.269 207.374 162.044 206.604L165.147 203.524C165.922 202.754 165.927 201.501 165.157 200.726C164.387 199.95 163.134 199.946 162.359 200.716L159.256 203.796C158.481 204.566 158.476 205.819 159.246 206.594Z" fill="#305680"/>
<path fill-rule="evenodd" clip-rule="evenodd" d="M188.752 191.026C188.752 192.119 189.637 193.005 190.73 193.005H195.118C196.211 193.005 197.097 192.119 197.097 191.026C197.097 189.934 196.211 189.048 195.118 189.048H190.73C189.637 189.048 188.752 189.934 188.752 191.026Z" fill="#305680"/>
<path fill-rule="evenodd" clip-rule="evenodd" d="M174.927 177.313C176.02 177.313 176.905 176.428 176.905 175.335V170.978C176.905 169.886 176.02 169 174.927 169C173.834 169 172.948 169.886 172.948 170.978V175.335C172.948 176.428 173.834 177.313 174.927 177.313Z" fill="#305680"/>
<path fill-rule="evenodd" clip-rule="evenodd" d="M174.927 213.049C176.02 213.049 176.906 212.163 176.906 211.07V206.714C176.906 205.621 176.02 204.735 174.927 204.735C173.834 204.735 172.949 205.621 172.949 206.714V211.07C172.949 212.163 173.834 213.049 174.927 213.049Z" fill="#305680"/>
<path fill-rule="evenodd" clip-rule="evenodd" d="M152.758 191.026C152.758 192.119 153.644 193.005 154.736 193.005H159.124C160.217 193.005 161.103 192.119 161.103 191.026C161.103 189.934 160.217 189.048 159.124 189.048H154.736C153.644 189.048 152.758 189.934 152.758 191.026Z" fill="#305680"/>
<path fill-rule="evenodd" clip-rule="evenodd" d="M127.194 224.563C128.286 224.563 129.172 223.678 129.172 222.585V203.508C129.172 202.415 128.286 201.53 127.194 201.53C126.101 201.53 125.215 202.415 125.215 203.508V222.585C125.215 223.678 126.101 224.563 127.194 224.563Z" fill="#305680"/>
<path fill-rule="evenodd" clip-rule="evenodd" d="M125.215 257.487C125.215 258.58 126.101 259.466 127.193 259.466H134.278C135.37 259.466 136.256 258.58 136.256 257.487V203.51C136.256 202.417 135.37 201.531 134.278 201.531C133.185 201.531 132.299 202.417 132.299 203.51V255.509H129.172V238.411C129.172 237.318 128.286 236.432 127.193 236.432C126.101 236.432 125.215 237.318 125.215 238.411V257.487Z" fill="#305680"/>
<path fill-rule="evenodd" clip-rule="evenodd" d="M130.736 199.371C129.427 199.371 128.391 198.322 128.391 197.057C128.391 195.792 129.427 194.743 130.736 194.743C132.044 194.743 133.081 195.792 133.081 197.057C133.081 198.322 132.044 199.371 130.736 199.371ZM124.434 197.057C124.434 200.534 127.269 203.328 130.736 203.328C134.203 203.328 137.038 200.534 137.038 197.057C137.038 193.58 134.203 190.786 130.736 190.786C127.269 190.786 124.434 193.58 124.434 197.057Z" fill="#305680"/>
<path fill-rule="evenodd" clip-rule="evenodd" d="M127.016 196.758C128.109 196.758 128.995 195.872 128.995 194.779V179.869C128.995 177.796 129.612 175.785 130.747 174.078C131.867 175.777 132.476 177.775 132.476 179.834V194.779C132.476 195.872 133.362 196.758 134.455 196.758C135.547 196.758 136.433 195.872 136.433 194.779V179.834C136.433 175.986 134.892 172.299 132.154 169.585C132.153 169.584 132.153 169.584 132.153 169.584L132.147 169.578C131.379 168.815 130.14 168.812 129.367 169.57C126.598 172.289 125.038 175.997 125.038 179.869V194.779C125.038 195.872 125.923 196.758 127.016 196.758Z" fill="#305680"/>
<path fill-rule="evenodd" clip-rule="evenodd" d="M106.073 209.546C105.931 210.054 105.998 210.598 106.258 211.056C106.518 211.515 106.951 211.85 107.459 211.989C111.209 213.008 115.214 212.496 118.583 210.565L131.591 203.11C132.539 202.567 132.867 201.358 132.323 200.41C131.78 199.462 130.571 199.134 129.623 199.677L116.616 207.132C114.806 208.17 112.742 208.646 110.686 208.527" fill="#305680"/>
<path d="M114.834 204.188C113.042 205.215 111.608 206.729 110.686 208.527L106.073 209.546C107.075 205.833 109.52 202.672 112.866 200.755L125.904 193.282C126.852 192.739 128.061 193.067 128.604 194.015C129.148 194.963 128.82 196.172 127.872 196.715L114.834 204.188Z" fill="#305680"/>
<path fill-rule="evenodd" clip-rule="evenodd" d="M142.937 210.565C146.306 212.496 150.311 213.008 154.061 211.989C154.57 211.85 155.002 211.515 155.262 211.056C155.523 210.598 155.589 210.054 155.447 209.546M150.834 208.527C148.778 208.646 146.714 208.17 144.905 207.132L131.897 199.677C130.949 199.134 129.74 199.462 129.197 200.41C128.653 201.358 128.981 202.567 129.929 203.11L142.937 210.565M150.834 208.527C149.912 206.729 148.478 205.215 146.686 204.188L133.649 196.715C132.701 196.172 132.372 194.963 132.916 194.015C133.459 193.067 134.668 192.739 135.616 193.282L148.654 200.755C152 202.672 154.445 205.834 155.447 209.546" fill="#305680"/>
<path d="M154.061 211.989C150.311 213.008 146.306 212.496 142.937 210.565L129.929 203.11C128.981 202.567 128.653 201.358 129.197 200.41C129.74 199.462 130.949 199.134 131.897 199.677L144.905 207.132C146.714 208.17 148.778 208.646 150.834 208.527L155.447 209.546C155.589 210.054 155.523 210.598 155.262 211.056C155.002 211.515 154.57 211.85 154.061 211.989Z" fill="#305680"/>
<path fill-rule="evenodd" clip-rule="evenodd" d="M106 257.487C106 258.58 106.886 259.466 107.979 259.466H195.118C196.21 259.466 197.096 258.58 197.096 257.487C197.096 256.395 196.21 255.509 195.118 255.509H107.979C106.886 255.509 106 256.395 106 257.487Z" fill="#305680"/>
<path fill-rule="evenodd" clip-rule="evenodd" d="M157.055 257.487C157.055 258.58 157.941 259.466 159.034 259.466H168.952C170.045 259.466 170.93 258.58 170.93 257.487V249.047C170.93 247.954 170.045 247.068 168.952 247.068H159.034C157.941 247.068 157.055 247.954 157.055 249.047V257.487ZM161.012 255.509V251.025H166.973V255.509H161.012Z" fill="#305680"/>
<path fill-rule="evenodd" clip-rule="evenodd" d="M164 251.025C165.092 251.025 165.978 250.14 165.978 249.047V219.509C165.978 218.416 165.092 217.53 164 217.53C162.907 217.53 162.021 218.416 162.021 219.509V249.047C162.021 250.14 162.907 251.025 164 251.025Z" fill="#305680"/>
<path fill-rule="evenodd" clip-rule="evenodd" d="M179.53 251.007C180.612 250.859 181.37 249.861 181.222 248.779L177.184 219.24C177.036 218.158 176.039 217.4 174.956 217.548C173.873 217.696 173.116 218.694 173.264 219.776L177.301 249.315C177.449 250.397 178.447 251.155 179.53 251.007Z" fill="#305680"/>
<path fill-rule="evenodd" clip-rule="evenodd" d="M148.47 251.007C149.552 251.155 150.55 250.397 150.698 249.315L154.736 219.776C154.884 218.694 154.126 217.696 153.043 217.548C151.961 217.4 150.963 218.158 150.815 219.24L146.777 248.779C146.629 249.861 147.387 250.859 148.47 251.007Z" fill="#305680"/>
<path fill-rule="evenodd" clip-rule="evenodd" d="M137.474 229.355C137.474 230.448 138.359 231.334 139.452 231.334H188.548C189.64 231.334 190.526 230.448 190.526 229.355C190.526 228.263 189.64 227.377 188.548 227.377H139.452C138.359 227.377 137.474 228.263 137.474 229.355Z" fill="#305680"/>
<path fill-rule="evenodd" clip-rule="evenodd" d="M134.591 239.2C134.591 240.293 135.477 241.179 136.569 241.179H191.43C192.523 241.179 193.408 240.293 193.408 239.2C193.408 238.108 192.523 237.222 191.43 237.222H136.569C135.477 237.222 134.591 238.108 134.591 239.2Z" fill="#305680"/>
<path fill-rule="evenodd" clip-rule="evenodd" d="M136.759 247.068C136.411 247.068 136.196 246.75 136.274 246.462L136.274 246.462L143.004 221.847L143.004 221.847C143.059 221.643 143.252 221.487 143.488 221.487H184.542C184.778 221.487 184.971 221.643 185.027 221.847L185.027 221.847L191.756 246.462L193.665 245.941L191.756 246.462C191.835 246.75 191.62 247.068 191.272 247.068H136.759ZM132.457 245.419C131.68 248.262 133.839 251.025 136.759 251.025H191.272C194.191 251.025 196.35 248.262 195.573 245.419L188.844 220.804C188.313 218.863 186.545 217.53 184.542 217.53H143.488C141.486 217.53 139.717 218.863 139.187 220.804M139.187 220.804L132.457 245.419C132.457 245.419 132.457 245.419 132.457 245.419" fill="#305680"/>
<path d="M128.96 230.59C128.96 231.683 128.075 232.568 126.982 232.568C125.889 232.568 125.003 231.683 125.003 230.59C125.003 229.497 125.889 228.611 126.982 228.611C128.075 228.611 128.96 229.497 128.96 230.59Z" fill="#305680"/>
</g>
<defs>
<clipPath id="clip0_11711_81034">
<rect width="92" height="92" fill="white" transform="translate(106 168)"/>
</clipPath>
</defs>
</svg>
