<svg xmlns="http://www.w3.org/2000/svg" width="142" height="71" fill="none" viewBox="0 0 142 71">
  <g class="SCADA-Energy-Use-case" clip-path="url(#a)">
    <circle cx="70.602" cy="34.401" r="27.4" stroke="#91A3BE" stroke-dasharray="1.6 1.6" stroke-linecap="round" stroke-linejoin="round" stroke-opacity=".8" stroke-width=".15" class="Big-ellipse"><animate xmlns="http://www.w3.org/2000/svg" attributeName="opacity" values="0;0;1;1" dur="2.0016s" repeatCount="1" calcMode="spline" keyTimes="0;0.5;0.75;1" keySplines="0.5 0.35 0.15 1;0.5 0.35 0.15 1;0.5 0.35 0.15 1" additive="replace" fill="freeze"/></circle>
    <g class="lines">
      <path stroke="#91A3BE" stroke-linecap="round" stroke-linejoin="round" stroke-width=".15" d="M1.9 27.301h32.25l10.95 15.35h12.4" class="line-8"><animate xmlns="http://www.w3.org/2000/svg" attributeName="stroke-dasharray" values="0 64.1404;0 64.1404;0 64.1404;5.3599 58.7806;27.6566 36.4838;53.7636 10.3768;61.0922 3.0483;63.2958 0.8446;63.5054 0.6351;63.5054 0.6351;63.5054 0.6351" dur="2s" repeatCount="1" keyTimes="0;0.1;0.2;0.3;0.4;0.5;0.6;0.7;0.8;0.9;1" fill="freeze"/></path>
      <path stroke="#7D899B" stroke-linecap="round" stroke-linejoin="round" stroke-width=".15" d="M.9 39.301h34.95l6.1 6.75h13.2" class="line-7"><animate xmlns="http://www.w3.org/2000/svg" attributeName="stroke-dasharray" values="0 56.8609;0 56.8609;0 56.8609;4.7515 52.1094;24.5178 32.3432;47.6618 9.1991;54.1586 2.7023;56.1122 0.7488;56.2979 0.563;56.2979 0.563;56.2979 0.563" dur="2s" repeatCount="1" keyTimes="0;0.1;0.2;0.3;0.4;0.5;0.6;0.7;0.8;0.9;1" fill="freeze"/></path>
      <path stroke="#51627B" stroke-linecap="round" stroke-linejoin="round" stroke-width=".15" d="M1.752 51.2h35.25l2-2h16.1" class="line-6"><animate xmlns="http://www.w3.org/2000/svg" attributeName="stroke-dasharray" values="0 54.7202;0 54.7202;0 54.7202;4.5727 50.1476;23.5947 31.1255;45.8675 8.8528;52.1196 2.6006;53.9996 0.7206;54.1784 0.5418;54.1784 0.5418;54.1784 0.5418" dur="2s" repeatCount="1" keyTimes="0;0.1;0.2;0.3;0.4;0.5;0.6;0.7;0.8;0.9;1" fill="freeze"/></path>
      <path stroke="#3B475A" stroke-linecap="round" stroke-linejoin="round" stroke-width=".15" d="M1.202 63.2h31.15l9.3-10.65h16.05" class="line-5"><animate xmlns="http://www.w3.org/2000/svg" attributeName="stroke-dasharray" values="0 61.9524;0 61.9524;0 61.9524;5.177 56.7754;26.7132 35.2393;51.9296 10.0228;59.0082 2.9443;61.1366 0.8158;61.339 0.6134;61.339 0.6134;61.339 0.6134" dur="2s" repeatCount="1" keyTimes="0;0.1;0.2;0.3;0.4;0.5;0.6;0.7;0.8;0.9;1" fill="freeze"/></path>
      <path stroke="#18469D" stroke-linecap="round" stroke-linejoin="round" stroke-width=".15" d="M138.852 43.7h-29.85l-13.95-10.5h-4.55" class="line-4"><animate xmlns="http://www.w3.org/2000/svg" attributeName="stroke-dasharray" values="0 52.3786;0 52.3786;0 52.3786;4.377 48.0016;22.585 29.7936;43.9047 8.4739;49.8893 2.4893;51.6889 0.6897;51.86 0.5186;51.86 0.5186;51.86 0.5186" dur="2s" repeatCount="1" keyTimes="0;0.1;0.2;0.3;0.4;0.5;0.6;0.7;0.8;0.9;1" fill="freeze"/></path>
      <path stroke="#1568E5" stroke-linecap="round" stroke-linejoin="round" stroke-width=".15" d="M139.8 31.302h-35.05l-2.35-1.9H92.1" class="line-3"><animate xmlns="http://www.w3.org/2000/svg" attributeName="stroke-dasharray" values="0 52.3786;0 52.3786;0 52.3786;4.377 48.0016;22.585 29.7936;43.9047 8.4739;49.8893 2.4893;51.6889 0.6897;51.86 0.5186;51.86 0.5186;51.86 0.5186" dur="2s" repeatCount="1" keyTimes="0;0.1;0.2;0.3;0.4;0.5;0.6;0.7;0.8;0.9;1" fill="freeze"/></path>
      <path stroke="#3E9AF8" stroke-linecap="round" stroke-linejoin="round" stroke-width=".15" d="M140 19.601h-31.9l-5.05 6H92.1" class="line-2"><animate xmlns="http://www.w3.org/2000/svg" attributeName="stroke-dasharray" values="0 51.1993;0 51.1993;0 51.1993;4.2784 46.9208;22.0765 29.1228;42.9161 8.2831;48.766 2.4332;50.5251 0.6742;50.6924 0.5069;50.6924 0.5069;50.6924 0.5069" dur="2s" repeatCount="1" keyTimes="0;0.1;0.2;0.3;0.4;0.5;0.6;0.7;0.8;0.9;1" fill="freeze"/></path>
      <path stroke="#78C4FE" stroke-linecap="round" stroke-linejoin="round" stroke-width=".15" d="M140.001 7.601h-32.6l-11.4 14.2h-5.5" class="line-1"><animate xmlns="http://www.w3.org/2000/svg" attributeName="stroke-dasharray" values="0 56.873;0 56.873;0 56.873;4.7526 52.1204;24.523 32.35;47.672 9.201;54.1701 2.7029;56.1241 0.7489;56.3099 0.5631;56.3099 0.5631;56.3099 0.5631" dur="2s" repeatCount="1" keyTimes="0;0.1;0.2;0.3;0.4;0.5;0.6;0.7;0.8;0.9;1" fill="freeze"/></path>
    </g>
    <g class="tb-gateway">
      <animate xmlns="http://www.w3.org/2000/svg" attributeName="opacity" values="0;1;1" dur="2s" repeatCount="1" calcMode="spline" keyTimes="0;0.5;1" keySplines="0 0 0.15 1;0.5 0.35 0.15 1" additive="replace" fill="freeze"/>
      <animateTransform xmlns="http://www.w3.org/2000/svg" attributeName="transform" type="translate" values="0 -3;0 0;0 0" dur="2s" repeatCount="1" calcMode="spline" keyTimes="0;0.5;1" keySplines="0.5 0.35 0.15 1;0.5 0.35 0.15 1" additive="sum" fill="freeze"/>
      <g class="Group 121">
        <path stroke="#3E9AF8" stroke-width=".15" d="m84.886 21.139.004.048.046.016c2.606.906 4.487 3.389 4.487 6.203 0 3.622-3.02 6.57-6.643 6.57H58.417c-3.624 0-6.644-2.948-6.644-6.57 0-2.812 1.88-5.292 4.48-6.2l.046-.016.004-.05c.375-5.116 4.656-9.165 9.866-9.165a9.76 9.76 0 0 1 7.25 3.201l.041.045.052-.03a7.49 7.49 0 0 1 3.731-1c3.986 0 7.274 3.056 7.643 6.948Z" class="Vector"/>
        <g class="Vector">
          <path fill="#3E9AF8" d="M70.51 20.2c-.284 0-.55.08-.776.216a.368.368 0 0 0-.597.285c0 .084.028.165.08.229a1.504 1.504 0 0 0-.219.782.087.087 0 0 0 .026.062.088.088 0 0 0 .124 0 .087.087 0 0 0 .026-.062c0-.247.067-.478.183-.676a.368.368 0 0 0 .512-.335.366.366 0 0 0-.03-.144c.197-.115.426-.181.67-.181a.087.087 0 0 0 .063-.026.088.088 0 0 0 0-.124.087.087 0 0 0-.062-.026Zm-1.007.31c.059 0 .112.024.148.07l.002.002a.191.191 0 0 1-.27.268.191.191 0 0 1 .12-.34Z"/>
          <path fill="#3E9AF8" fill-rule="evenodd" d="M69.668 21.229a.082.082 0 0 0-.022.06c0 .02.009.04.023.055l.202.203.119-.119-.202-.201a.082.082 0 0 0-.06-.024.081.081 0 0 0-.06.026Zm.322.2-.366.366a.102.102 0 0 0 0 .144l.499.499.304.304c.04.04.105.04.144 0l.248-.248.38-.379.366-.366a.102.102 0 0 0 0-.144l-.186-.186-.618-.618a.102.102 0 0 0-.144 0l-.248.248-.38.38Zm.379-.38-.202-.201a.082.082 0 0 0-.06-.024.082.082 0 0 0-.082.086c0 .02.01.04.023.055l.203.203.118-.119Zm.692.052.202-.201a.082.082 0 0 0 .023-.06.082.082 0 0 0-.086-.083.089.089 0 0 0-.055.024l-.202.202.118.118Zm.318.318.201-.202a.082.082 0 0 0 .023-.06.082.082 0 0 0-.085-.082c-.02 0-.04.009-.055.023-.07.068-.203.202-.203.202l.119.119Zm-.18.696.201.202a.083.083 0 0 0 .06.023.082.082 0 0 0 .083-.085.094.094 0 0 0-.024-.056l-.202-.202-.118.118Zm-.38.38.202.201a.082.082 0 0 0 .06.023.082.082 0 0 0 .082-.085.086.086 0 0 0-.023-.056 72.214 72.214 0 0 0-.202-.202l-.119.118Zm-.696-.057-.202.201a.082.082 0 0 0-.023.06c0 .048.038.085.086.083.02-.001.04-.01.055-.024l.202-.202-.118-.118Zm-.318-.318-.202.202a.082.082 0 0 0-.023.06c0 .047.039.084.086.082.02 0 .04-.009.055-.023l.202-.202-.118-.119Zm.872-.905a.087.087 0 0 1 .063-.026.08.08 0 0 1 .046.015l.165.12a.08.08 0 0 1 .023.104.087.087 0 0 1-.1.044l.061.24a.087.087 0 0 1-.06.103l-.446.136.082.319a.087.087 0 0 1-.06.104.078.078 0 0 1-.1-.055l-.103-.398a.087.087 0 0 1 .06-.103l.447-.137-.041-.16a.084.084 0 0 1-.106.017.08.08 0 0 1-.03-.1l.08-.195a.09.09 0 0 1 .02-.028Z" clip-rule="evenodd"/>
          <path fill="#3E9AF8" d="M70.687 23.4c.284 0 .55-.079.776-.215a.368.368 0 0 0 .597-.285.367.367 0 0 0-.08-.23 1.5 1.5 0 0 0 .218-.78.09.09 0 0 0-.025-.063.088.088 0 0 0-.125 0 .089.089 0 0 0-.025.062c0 .247-.067.478-.184.676a.365.365 0 0 0-.145-.032.368.368 0 0 0-.367.367c0 .05.012.099.031.144a1.325 1.325 0 0 1-.67.181.09.09 0 0 0-.064.025.088.088 0 0 0 0 .125.09.09 0 0 0 .063.026Zm1.007-.308a.186.186 0 0 1-.148-.071l-.002-.002a.191.191 0 0 1 .27-.268.192.192 0 0 1-.12.34ZM61.99 27.1h-.376v-1.965h-.669v-.319h1.713v.319h-.667V27.1Zm1.347-2.43v.61a2.68 2.68 0 0 1-.017.327h.02a.5.5 0 0 1 .135-.149.572.572 0 0 1 .178-.089.743.743 0 0 1 .213-.03.77.77 0 0 1 .337.068.455.455 0 0 1 .213.204c.05.093.075.213.075.361V27.1h-.368v-1.059c0-.134-.027-.235-.082-.302-.056-.067-.141-.101-.257-.101-.111 0-.2.023-.265.07a.378.378 0 0 0-.14.205 1.15 1.15 0 0 0-.041.328v.86h-.368v-2.432h.367Zm2.035.7v1.73h-.367v-1.73h.367Zm-.181-.662c.056 0 .104.015.145.046.042.03.062.082.062.156 0 .073-.02.125-.062.156a.237.237 0 0 1-.145.045.242.242 0 0 1-.149-.045c-.04-.031-.06-.083-.06-.156 0-.074.02-.126.06-.156.04-.03.09-.046.149-.046Zm1.609.63c.195 0 .346.05.455.151.11.1.164.261.164.483V27.1h-.367v-1.059c0-.134-.028-.235-.083-.302-.055-.067-.14-.101-.256-.101-.168 0-.285.051-.35.155-.065.103-.097.252-.097.448v.86h-.368v-1.73h.286l.052.234h.02a.5.5 0 0 1 .14-.148.62.62 0 0 1 .187-.09.784.784 0 0 1 .217-.029Zm1.627 2.532c-.235 0-.415-.043-.54-.127a.404.404 0 0 1-.187-.355c0-.106.033-.196.1-.27a.535.535 0 0 1 .286-.152.318.318 0 0 1-.122-.097.243.243 0 0 1-.05-.148c0-.065.018-.12.055-.166a.587.587 0 0 1 .164-.133.476.476 0 0 1-.219-.187.573.573 0 0 1-.081-.308c0-.125.026-.231.08-.319a.503.503 0 0 1 .232-.201.883.883 0 0 1 .472-.064 1.22 1.22 0 0 1 .177.026h.598v.205l-.294.055a.498.498 0 0 1 .093.3.52.52 0 0 1-.186.423c-.123.102-.293.153-.51.153a1.777 1.777 0 0 1-.151-.012.284.284 0 0 0-.086.076.152.152 0 0 0-.03.092c0 .028.01.051.03.07a.22.22 0 0 0 .087.037c.04.008.088.012.144.012h.298c.19 0 .335.04.435.12.1.08.15.198.15.354a.512.512 0 0 1-.244.454c-.162.108-.396.161-.701.161Zm.014-.259c.128 0 .236-.012.323-.037a.433.433 0 0 0 .199-.108.226.226 0 0 0 .067-.164c0-.056-.014-.1-.043-.13a.23.23 0 0 0-.126-.062 1.077 1.077 0 0 0-.21-.017h-.271a.482.482 0 0 0-.18.03.278.278 0 0 0-.122.095.251.251 0 0 0-.042.146c0 .08.035.14.105.183.07.043.17.064.3.064Zm.072-1.346c.107 0 .186-.03.239-.088a.367.367 0 0 0 .078-.25c0-.117-.027-.204-.082-.262-.053-.059-.132-.088-.237-.088-.103 0-.182.03-.236.09-.053.058-.08.146-.08.263 0 .105.027.188.08.247.054.058.133.088.237.088Zm2.357.342c0 .113-.027.21-.083.287a.508.508 0 0 1-.242.178c-.105.04-.234.06-.387.06-.121 0-.225-.01-.313-.027a1.074 1.074 0 0 1-.245-.078v-.317c.082.038.175.072.277.1.103.028.2.042.292.042.12 0 .208-.019.26-.056a.18.18 0 0 0 .048-.253.336.336 0 0 0-.12-.092 2.273 2.273 0 0 0-.252-.116 2.11 2.11 0 0 1-.277-.131.483.483 0 0 1-.17-.158.45.45 0 0 1-.058-.24.39.39 0 0 1 .181-.348.866.866 0 0 1 .483-.12 1.42 1.42 0 0 1 .578.125l-.115.277a1.731 1.731 0 0 0-.236-.085.842.842 0 0 0-.24-.034.438.438 0 0 0-.217.044.138.138 0 0 0-.073.125c0 .04.012.075.036.103a.38.38 0 0 0 .123.084 5 5 0 0 0 .247.105c.103.04.192.081.267.125a.49.49 0 0 1 .175.157.438.438 0 0 1 .061.243Zm.435-1.791h.68c.294 0 .517.043.667.128.15.086.225.233.225.442a.583.583 0 0 1-.047.238.438.438 0 0 1-.349.264v.016a.719.719 0 0 1 .236.082.42.42 0 0 1 .164.17c.04.075.061.17.061.288 0 .14-.033.259-.1.357a.612.612 0 0 1-.283.223 1.122 1.122 0 0 1-.434.076h-.82v-2.284Zm.375.942h.36c.169 0 .287-.027.352-.082.066-.056.099-.136.099-.243 0-.108-.04-.186-.118-.234-.077-.048-.2-.072-.368-.072h-.325v.631Zm0 .303v.725h.395c.175 0 .298-.033.369-.101a.362.362 0 0 0 .106-.275.343.343 0 0 0-.048-.184.3.3 0 0 0-.155-.12.79.79 0 0 0-.29-.045h-.377Zm3.228.171c0 .143-.019.271-.056.383a.722.722 0 0 1-.424.458.931.931 0 0 1-.342.059.871.871 0 0 1-.327-.06.743.743 0 0 1-.257-.175.8.8 0 0 1-.168-.282 1.14 1.14 0 0 1-.059-.383c0-.19.033-.352.098-.485a.7.7 0 0 1 .285-.304.875.875 0 0 1 .439-.105c.16 0 .3.035.422.105.122.07.217.171.286.304.068.134.103.295.103.485Zm-1.255 0c0 .126.015.234.045.323a.42.42 0 0 0 .144.206c.065.047.148.07.25.07a.415.415 0 0 0 .25-.07.412.412 0 0 0 .142-.206c.03-.09.046-.197.046-.323a.989.989 0 0 0-.046-.32.394.394 0 0 0-.142-.202.419.419 0 0 0-.251-.07c-.152 0-.263.05-.333.153-.07.102-.105.248-.105.439Zm2.355-.894c.219 0 .384.048.495.145.113.097.169.248.169.453v1.165h-.261l-.07-.246h-.013a.892.892 0 0 1-.151.155.528.528 0 0 1-.182.09.855.855 0 0 1-.248.032.653.653 0 0 1-.277-.056.44.44 0 0 1-.192-.175.57.57 0 0 1-.07-.297c0-.178.066-.312.198-.402.134-.09.335-.139.603-.148l.3-.011v-.091c0-.12-.028-.205-.084-.256a.332.332 0 0 0-.234-.077.85.85 0 0 0-.252.038c-.081.025-.16.055-.237.092l-.12-.26a1.33 1.33 0 0 1 .626-.151Zm.3.936-.224.008c-.183.006-.312.037-.386.093a.275.275 0 0 0-.11.232c0 .085.025.148.076.187a.325.325 0 0 0 .202.058.466.466 0 0 0 .315-.108c.085-.073.127-.18.127-.32v-.15Zm1.755-.936a1.031 1.031 0 0 1 .184.017l-.034.344a.86.86 0 0 0-.166-.019.537.537 0 0 0-.188.033.434.434 0 0 0-.265.258.6.6 0 0 0-.04.225v.904h-.368v-1.73h.287l.05.305h.018a.77.77 0 0 1 .128-.168.605.605 0 0 1 .175-.122.51.51 0 0 1 .219-.047Zm1.085 1.794a.614.614 0 0 1-.496-.225c-.124-.151-.186-.374-.186-.668 0-.296.063-.52.189-.673a.622.622 0 0 1 .501-.228.67.67 0 0 1 .23.036.528.528 0 0 1 .169.094c.048.04.088.084.122.133h.017a1.678 1.678 0 0 1-.028-.31v-.622h.368V27.1h-.287l-.066-.236h-.015a.554.554 0 0 1-.287.231.662.662 0 0 1-.23.037Zm.104-.299c.157 0 .268-.045.332-.136.065-.09.098-.226.1-.407v-.049c0-.194-.03-.342-.093-.445-.063-.104-.177-.156-.343-.156a.34.34 0 0 0-.303.16c-.068.107-.103.255-.103.446 0 .19.035.336.103.437.07.1.172.15.307.15Z"/>
        </g>
      </g>
      <g class="gateway">
        <path fill="#fff" stroke="#51627B" stroke-width=".15" d="M63.5 42.075h14a5.425 5.425 0 0 1 0 10.85h-14a5.425 5.425 0 0 1 0-10.85Z" class="Rectangle 2801"/>
        <g class="Vector">
          <path fill="#51627B" d="M64.679 49.058a.07.07 0 0 1 .07-.071c.04 0 .072.032.072.07v.072a.071.071 0 1 1-.142 0v-.071Zm-.213 0a.071.071 0 1 1 .142 0v.07c0 .04-.032.072-.07.072a.071.071 0 0 1-.072-.071v-.071Zm-.212 0a.07.07 0 0 1 .07-.071c.04 0 .072.032.072.07v.072a.071.071 0 1 1-.142 0v-.071Zm-.212 0a.07.07 0 0 1 .07-.071.07.07 0 0 1 .071.07v.072a.07.07 0 0 1-.07.071.071.071 0 0 1-.071-.071v-.071Zm.849-.213a.07.07 0 0 1 .071-.071h.07a.07.07 0 0 1 0 .142h-.07a.07.07 0 0 1-.07-.071Zm-1.133 0a.07.07 0 0 1 .071-.071h.071a.07.07 0 0 1 0 .142h-.07a.07.07 0 0 1-.072-.071Z"/>
          <path fill="#51627B" fill-rule="evenodd" d="M62.838 48.205h-.212v.213c0 .157.127.285.283.285h.142a.284.284 0 0 0 .283-.285v-.213h-.213v.142h-.283v-.142Zm-.591.402a.053.053 0 0 0-.053.053c0 .262.212.475.474.475a.053.053 0 0 0 0-.106.369.369 0 0 1-.368-.37.053.053 0 0 0-.053-.052Z" clip-rule="evenodd"/>
          <path fill="#51627B" fill-rule="evenodd" d="M62.451 48.587a.053.053 0 0 0-.052.052c0 .16.13.29.289.29a.052.052 0 0 0 .052-.052.053.053 0 0 0-.052-.053.184.184 0 0 1-.184-.185.053.053 0 0 0-.053-.052Z" clip-rule="evenodd"/>
          <path fill="#51627B" d="M64.891 48.631a.07.07 0 0 1 .071-.07h.07a.071.071 0 0 1 0 .142h-.07a.071.071 0 0 1-.07-.072Zm-1.133 0a.07.07 0 0 1 .071-.07h.071a.071.071 0 0 1 0 .142h-.07a.071.071 0 0 1-.072-.072Zm1.133-.213a.07.07 0 0 1 .071-.071h.07a.071.071 0 0 1 0 .142h-.07a.071.071 0 0 1-.07-.071Zm-1.133 0a.07.07 0 0 1 .071-.071h.071a.071.071 0 0 1 0 .142h-.07a.071.071 0 0 1-.072-.071Zm1.133-.213a.07.07 0 0 1 .071-.071h.07a.07.07 0 0 1 0 .142h-.07a.07.07 0 0 1-.07-.071Zm-1.133 0a.07.07 0 0 1 .071-.071h.071a.07.07 0 0 1 0 .142h-.07a.07.07 0 0 1-.072-.071Zm-1.132-.143a.07.07 0 0 1 .07-.07h.567c.04 0 .07.03.07.07v.071h-.707v-.07Zm2.053-.142a.07.07 0 0 1 .07-.071c.04 0 .072.032.072.071v.071a.07.07 0 1 1-.142 0v-.07Z"/>
          <path fill="#51627B" fill-rule="evenodd" d="M63.688 46.416v.153h.141v-.153a.247.247 0 0 1-.141 0Zm.212 1.149v-.285h.142v.285h.283c.078 0 .141.063.141.142v.142h-.141v-.142h-.283a.142.142 0 0 1-.142-.142Zm-.283-.285v.285a.142.142 0 0 1-.142.142h-.425v.142h-.141v-.142c0-.079.063-.142.142-.142h.424v-.285h.142Z" clip-rule="evenodd"/>
          <path fill="#51627B" d="M64.042 47.92a.07.07 0 1 1 .141 0v.071a.07.07 0 1 1-.141 0v-.07Z"/>
          <path fill="#51627B" fill-rule="evenodd" d="M64.041 47.991a.142.142 0 0 0-.141.142v.783c0 .078.063.142.142.142h.778a.142.142 0 0 0 .142-.142v-.783a.142.142 0 0 0-.142-.142h-.778Zm.071.142a.07.07 0 0 0-.07.071v.64c0 .04.031.072.07.072h.638a.07.07 0 0 0 .07-.072v-.64a.071.071 0 0 0-.07-.07h-.638Z" clip-rule="evenodd"/>
          <path fill="#51627B" d="M64.466 48.56h.213v.214h-.213v-.214Zm-.283 0h.213v.214h-.213v-.214Zm.283-.284h.213v.213h-.213v-.213Zm-.283 0h.213v.213h-.213v-.213Z"/>
          <path fill="#51627B" fill-rule="evenodd" d="M63.759 46.356c.097 0 .177-.08.177-.178a.177.177 0 1 0-.177.178Zm-.78.284a.142.142 0 0 0-.14.142v.285c0 .078.063.142.14.142h1.558a.142.142 0 0 0 .142-.142v-.285a.142.142 0 0 0-.142-.142H62.98Zm.072.285a.07.07 0 1 0 0-.142.07.07 0 0 0 0 .142Zm.283-.072a.07.07 0 1 1-.142 0 .07.07 0 0 1 .142 0Z" clip-rule="evenodd"/>
          <path fill="#51627B" d="M67.048 46.906V48.3h-.182v-1.394h.182Zm.788 1.412a.566.566 0 0 1-.28-.07.509.509 0 0 1-.196-.198.623.623 0 0 1-.07-.3c0-.112.024-.21.072-.296a.5.5 0 0 1 .2-.198.57.57 0 0 1 .282-.07.57.57 0 0 1 .282.07c.084.045.15.11.198.196.05.085.074.185.074.298a.583.583 0 0 1-.076.3.515.515 0 0 1-.202.198.582.582 0 0 1-.284.07Zm0-.16a.384.384 0 0 0 .184-.046.344.344 0 0 0 .138-.138.435.435 0 0 0 .054-.224.448.448 0 0 0-.052-.224.334.334 0 0 0-.136-.136.373.373 0 0 0-.182-.046.376.376 0 0 0-.184.046.325.325 0 0 0-.132.136.464.464 0 0 0-.05.224c0 .09.016.165.048.226a.339.339 0 0 0 .132.138c.055.03.115.044.18.044Zm1.66-1.252v.148h-.38V48.3h-.182v-1.246h-.382v-.148h.944Zm1.813.404a.427.427 0 0 0-.168-.188.477.477 0 0 0-.256-.068.52.52 0 0 0-.264.068.474.474 0 0 0-.184.192.604.604 0 0 0-.066.288c0 .11.022.205.066.288a.491.491 0 0 0 .184.192.532.532 0 0 0 .264.066c.136 0 .248-.04.336-.122a.503.503 0 0 0 .154-.33h-.556v-.148h.75v.14a.678.678 0 0 1-.35.542.684.684 0 0 1-.334.082.683.683 0 0 1-.7-.71c0-.136.03-.258.092-.366a.698.698 0 0 1 .608-.346c.148 0 .279.037.392.11a.627.627 0 0 1 .25.31h-.218Zm.433.438c0-.112.022-.21.068-.294a.494.494 0 0 1 .452-.268.48.48 0 0 1 .25.062c.07.041.123.093.158.156v-.2h.184V48.3h-.184v-.204a.434.434 0 0 1-.162.16.483.483 0 0 1-.248.062.496.496 0 0 1-.45-.274.628.628 0 0 1-.068-.296Zm.928.002a.446.446 0 0 0-.05-.216.345.345 0 0 0-.136-.14.357.357 0 0 0-.186-.05.348.348 0 0 0-.32.188.445.445 0 0 0-.05.216c0 .084.016.157.05.22a.362.362 0 0 0 .134.142.368.368 0 0 0 .186.048.359.359 0 0 0 .322-.19.458.458 0 0 0 .05-.218Zm.713-.396V48c0 .053.011.091.034.114.023.021.062.032.118.032h.134v.154h-.164c-.101 0-.177-.023-.228-.07-.05-.047-.076-.123-.076-.23v-.646h-.142v-.15h.142v-.276h.182v.276h.286v.15h-.286Zm1.507.356c0 .035-.002.071-.006.11h-.876a.36.36 0 0 0 .11.254c.068.06.15.09.246.09a.337.337 0 0 0 .196-.054.295.295 0 0 0 .112-.148h.196a.477.477 0 0 1-.176.258.535.535 0 0 1-.328.098.559.559 0 0 1-.28-.07.499.499 0 0 1-.192-.198.623.623 0 0 1-.07-.3c0-.113.022-.213.068-.298a.472.472 0 0 1 .19-.196.567.567 0 0 1 .284-.07.55.55 0 0 1 .276.068c.08.045.141.108.184.188a.54.54 0 0 1 .066.268Zm-.188-.038a.331.331 0 0 0-.046-.178.29.29 0 0 0-.126-.114.375.375 0 0 0-.174-.04.34.34 0 0 0-.236.088.36.36 0 0 0-.11.244h.692Zm1.888-.468-.342 1.096h-.188l-.264-.87-.264.87h-.188L75 47.204h.186l.252.92.272-.92h.186l.266.922.248-.922h.18Zm.113.544a.61.61 0 0 1 .067-.294.495.495 0 0 1 .453-.268.48.48 0 0 1 .25.062c.07.041.123.093.157.156v-.2h.184V48.3h-.183v-.204a.434.434 0 0 1-.162.16.482.482 0 0 1-.248.062.497.497 0 0 1-.45-.274.63.63 0 0 1-.069-.296Zm.927.002a.446.446 0 0 0-.05-.216.344.344 0 0 0-.135-.14.357.357 0 0 0-.186-.05.348.348 0 0 0-.32.188.446.446 0 0 0-.05.216c0 .084.016.157.05.22a.362.362 0 0 0 .134.142.368.368 0 0 0 .186.048.358.358 0 0 0 .322-.19.458.458 0 0 0 .05-.218Zm1.436-.546-.66 1.612h-.188l.216-.528-.442-1.084h.202l.344.888.34-.888h.188Z"/>
        </g>
      </g>
    </g>
    <g class="TEXT-main">
      <animate xmlns="http://www.w3.org/2000/svg" attributeName="opacity" values="0;0;1;1" dur="2.0016s" repeatCount="1" calcMode="spline" keyTimes="0;0.5;1;1" keySplines="0 0 0.15 1;0 0 0.15 1;0.5 0.35 0.15 1" additive="replace" fill="freeze"/>
      <g class="dots">
        <circle cx="125.103" cy="8.9" r=".4" fill="#78C4FE" class="Ellipse 852"/>
        <circle cx="126.303" cy="8.9" r=".4" fill="#78C4FE" class="Ellipse 853"/>
        <circle cx="127.503" cy="8.9" r=".4" fill="#78C4FE" class="Ellipse 854"/>
      </g>
      <g class="dots">
        <circle cx="13.603" cy="28.399" r=".35" stroke="#91A3BE" stroke-width=".1" class="Ellipse 852"/>
        <circle cx="14.803" cy="28.399" r=".35" stroke="#91A3BE" stroke-width=".1" class="Ellipse 855"/>
        <circle cx="16.003" cy="28.399" r=".35" stroke="#91A3BE" stroke-width=".1" class="Ellipse 856"/>
      </g>
      <g class="dots">
        <circle cx="19.603" cy="40.4" r=".35" stroke="#7A8699" stroke-width=".1" class="Ellipse 852"/>
        <circle cx="20.803" cy="40.4" r=".35" stroke="#7A8699" stroke-width=".1" class="Ellipse 855"/>
        <circle cx="22.003" cy="40.4" r=".35" stroke="#7A8699" stroke-width=".1" class="Ellipse 856"/>
      </g>
      <g class="dots">
        <circle cx="16.302" cy="52.4" r=".35" stroke="#4C5D76" stroke-width=".1" class="Ellipse 852"/>
        <circle cx="17.502" cy="52.4" r=".35" stroke="#4C5D76" stroke-width=".1" class="Ellipse 855"/>
        <circle cx="18.702" cy="52.4" r=".35" stroke="#4C5D76" stroke-width=".1" class="Ellipse 856"/>
      </g>
      <g class="dots">
        <circle cx="19.603" cy="64.4" r=".35" stroke="#354154" stroke-width=".1" class="Ellipse 852"/>
        <circle cx="20.803" cy="64.4" r=".35" stroke="#354154" stroke-width=".1" class="Ellipse 855"/>
        <circle cx="22.003" cy="64.4" r=".35" stroke="#354154" stroke-width=".1" class="Ellipse 856"/>
      </g>
      <g class="dots">
        <circle cx="119.201" cy="20.899" r=".4" fill="#3E9AF8" class="Ellipse 852"/>
        <circle cx="120.401" cy="20.899" r=".4" fill="#3E9AF8" class="Ellipse 853"/>
        <circle cx="121.601" cy="20.899" r=".4" fill="#3E9AF8" class="Ellipse 854"/>
      </g>
      <g class="dots">
        <circle cx="125.103" cy="32.4" r=".4" fill="#1568E5" class="Ellipse 852"/>
        <circle cx="126.303" cy="32.4" r=".4" fill="#1568E5" class="Ellipse 853"/>
        <circle cx="127.503" cy="32.4" r=".4" fill="#1568E5" class="Ellipse 854"/>
      </g>
      <g class="dots">
        <circle cx="119.201" cy="44.9" r=".4" fill="#18469D" class="Ellipse 852"/>
        <circle cx="120.401" cy="44.9" r=".4" fill="#18469D" class="Ellipse 853"/>
        <circle cx="121.601" cy="44.9" r=".4" fill="#18469D" class="Ellipse 854"/>
      </g>
      <path fill="#4AA7FB" d="M110.546 17.111a.83.83 0 0 1 .388.086.593.593 0 0 1 .258.244.715.715 0 0 1 .092.37c0 .141-.03.264-.092.368a.6.6 0 0 1-.258.24.865.865 0 0 1-.388.082h-.454v-1.39h.454Zm0 1.204c.163 0 .288-.044.374-.132.087-.088.13-.212.13-.372a.523.523 0 0 0-.13-.378c-.086-.09-.211-.136-.374-.136h-.226v1.018h.226Zm.888-.37a.62.62 0 0 1 .068-.294.514.514 0 0 1 .678-.218.436.436 0 0 1 .156.126v-.16h.23v1.102h-.23v-.164a.484.484 0 0 1-.386.182.492.492 0 0 1-.448-.276.645.645 0 0 1-.068-.298Zm.902.004a.392.392 0 0 0-.048-.198.316.316 0 0 0-.286-.172.327.327 0 0 0-.288.17.402.402 0 0 0-.046.196c0 .076.016.143.046.2a.355.355 0 0 0 .124.132.33.33 0 0 0 .328 0 .317.317 0 0 0 .122-.128.404.404 0 0 0 .048-.2Zm.93.57a.571.571 0 0 1-.234-.046.423.423 0 0 1-.162-.128.32.32 0 0 1-.064-.182h.236a.165.165 0 0 0 .066.118.25.25 0 0 0 .154.046.259.259 0 0 0 .148-.036.113.113 0 0 0 .054-.096c0-.041-.02-.072-.06-.092a1.088 1.088 0 0 0-.186-.066 1.796 1.796 0 0 1-.202-.066.358.358 0 0 1-.136-.098.256.256 0 0 1-.056-.174c0-.059.017-.112.052-.16a.34.34 0 0 1 .148-.116.563.563 0 0 1 .224-.042c.125 0 .226.032.302.096a.34.34 0 0 1 .124.258h-.228a.162.162 0 0 0-.06-.118.225.225 0 0 0-.146-.044.237.237 0 0 0-.138.034.105.105 0 0 0-.048.09c0 .03.01.054.032.074.021.02.047.036.078.048.03.01.076.025.136.042.08.021.145.043.196.066a.36.36 0 0 1 .134.096.29.29 0 0 1 .006.338.346.346 0 0 1-.148.116.543.543 0 0 1-.222.042Zm1.238-1.138c.084 0 .159.018.224.054.067.036.119.09.156.16a.52.52 0 0 1 .058.256v.65h-.226v-.616c0-.099-.024-.174-.074-.226a.26.26 0 0 0-.202-.08.269.269 0 0 0-.204.08c-.049.052-.074.127-.074.226v.616h-.228v-1.48h.228v.506a.391.391 0 0 1 .146-.108.5.5 0 0 1 .196-.038Zm.957.182a.489.489 0 0 1 .384-.182.486.486 0 0 1 .45.27.62.62 0 0 1 .068.294c0 .11-.023.21-.068.298a.494.494 0 0 1-.45.276.505.505 0 0 1-.228-.05.445.445 0 0 1-.156-.128v.16h-.228v-1.48h.228v.542Zm.67.382a.381.381 0 0 0-.048-.196.307.307 0 0 0-.124-.126.33.33 0 0 0-.452.128.402.402 0 0 0-.046.198c0 .076.015.143.046.2a.33.33 0 0 0 .452.128.332.332 0 0 0 .124-.132.404.404 0 0 0 .048-.2Zm.935.574a.571.571 0 0 1-.282-.07.52.52 0 0 1-.198-.2.61.61 0 0 1-.072-.3c0-.112.025-.211.074-.298a.517.517 0 0 1 .202-.2.589.589 0 0 1 .286-.07.58.58 0 0 1 .286.07.504.504 0 0 1 .202.2c.05.087.074.186.074.298a.576.576 0 0 1-.076.298.528.528 0 0 1-.208.202.595.595 0 0 1-.288.07Zm0-.198a.33.33 0 0 0 .29-.168.405.405 0 0 0 .048-.204.404.404 0 0 0-.046-.202.303.303 0 0 0-.122-.126.336.336 0 0 0-.328 0 .307.307 0 0 0-.118.126.427.427 0 0 0-.044.202c0 .119.03.21.09.276a.306.306 0 0 0 .23.096Zm.722-.376a.62.62 0 0 1 .068-.294.507.507 0 0 1 .452-.27c.087 0 .162.017.226.052a.454.454 0 0 1 .156.126v-.16h.23v1.102h-.23v-.164a.453.453 0 0 1-.158.13.49.49 0 0 1-.228.052.49.49 0 0 1-.26-.072.535.535 0 0 1-.188-.204.645.645 0 0 1-.068-.298Zm.902.004a.392.392 0 0 0-.048-.198.323.323 0 0 0-.45-.128.32.32 0 0 0-.124.126.39.39 0 0 0-.046.196c0 .076.015.143.046.2a.347.347 0 0 0 .124.132.33.33 0 0 0 .328 0 .323.323 0 0 0 .122-.128.404.404 0 0 0 .048-.2Zm.757-.39a.362.362 0 0 1 .33-.178v.236h-.058c-.089 0-.157.023-.204.068-.045.045-.068.124-.068.236v.58h-.228v-1.102h.228v.16Zm.464.386a.62.62 0 0 1 .068-.294.507.507 0 0 1 .666-.222.42.42 0 0 1 .168.124v-.532h.23v1.48h-.23v-.166a.42.42 0 0 1-.156.132.476.476 0 0 1-.226.052.504.504 0 0 1-.452-.276.645.645 0 0 1-.068-.298Zm.902.004a.392.392 0 0 0-.048-.198.323.323 0 0 0-.45-.128.32.32 0 0 0-.124.126.39.39 0 0 0-.046.196c0 .076.015.143.046.2a.347.347 0 0 0 .124.132.33.33 0 0 0 .328 0 .323.323 0 0 0 .122-.128.404.404 0 0 0 .048-.2Zm.929.57a.578.578 0 0 1-.234-.046.423.423 0 0 1-.162-.128.327.327 0 0 1-.064-.182h.236a.165.165 0 0 0 .066.118c.042.03.093.046.154.046a.257.257 0 0 0 .148-.036.113.113 0 0 0 .054-.096c0-.041-.02-.072-.06-.092-.038-.02-.1-.042-.186-.066a1.867 1.867 0 0 1-.202-.066.366.366 0 0 1-.136-.098.262.262 0 0 1-.056-.174.27.27 0 0 1 .052-.16.345.345 0 0 1 .148-.116.566.566 0 0 1 .224-.042c.126 0 .226.032.302.096a.333.333 0 0 1 .124.258h-.228a.162.162 0 0 0-.06-.118.223.223 0 0 0-.146-.044.237.237 0 0 0-.138.034.105.105 0 0 0-.048.09c0 .03.011.054.032.074.022.02.048.036.078.048.031.01.076.025.136.042.08.021.146.043.196.066a.351.351 0 0 1 .134.096c.038.043.057.1.058.17a.283.283 0 0 1-.052.168.34.34 0 0 1-.148.116.536.536 0 0 1-.222.042Z" class="Dashboards"/>
      <path fill="#156BE7" d="M125.995 30.2h-.228l-.686-1.037V30.2h-.228v-1.392h.228l.686 1.036v-1.036h.228V30.2Zm.778.019a.57.57 0 0 1-.282-.07.52.52 0 0 1-.198-.2.61.61 0 0 1-.072-.3c0-.112.024-.212.074-.298a.505.505 0 0 1 .202-.2.583.583 0 0 1 .286-.07c.105 0 .2.023.286.07a.518.518 0 0 1 .202.2.595.595 0 0 1 .074.298.586.586 0 0 1-.076.298.533.533 0 0 1-.208.202.6.6 0 0 1-.288.07Zm0-.198a.336.336 0 0 0 .164-.042.318.318 0 0 0 .126-.126.405.405 0 0 0 .048-.204.415.415 0 0 0-.046-.202.315.315 0 0 0-.286-.168.33.33 0 0 0-.164.042.294.294 0 0 0-.118.126.415.415 0 0 0-.044.202c0 .118.03.21.09.276a.305.305 0 0 0 .23.096Zm1.063-.736v.61c0 .041.009.071.028.09.02.017.053.026.1.026h.14v.19h-.18c-.103 0-.181-.024-.236-.072-.055-.048-.082-.126-.082-.234v-.61h-.13v-.186h.13v-.274h.23v.274h.268v.186h-.268Zm.594-.332a.142.142 0 0 1-.104-.042.141.141 0 0 1-.042-.104.14.14 0 0 1 .042-.104.142.142 0 0 1 .104-.042c.04 0 .074.014.102.042a.141.141 0 0 1 .042.104.141.141 0 0 1-.042.104.139.139 0 0 1-.102.042Zm.112.146V30.2h-.228v-1.102h.228Zm.761.186h-.204v.916h-.23v-.916h-.13v-.186h.13v-.078c0-.127.034-.219.1-.276.068-.059.174-.088.318-.088v.19c-.069 0-.118.013-.146.04-.028.025-.042.07-.042.134v.078h.204v.186Zm.318-.332a.142.142 0 0 1-.104-.042.141.141 0 0 1-.042-.104.14.14 0 0 1 .042-.104.142.142 0 0 1 .104-.042c.04 0 .074.014.102.042a.141.141 0 0 1 .042.104.141.141 0 0 1-.042.104.139.139 0 0 1-.102.042Zm.112.146V30.2h-.228v-1.102h.228Zm.224.55c0-.114.022-.213.068-.298a.487.487 0 0 1 .192-.2.55.55 0 0 1 .28-.07c.133 0 .243.032.33.096a.463.463 0 0 1 .178.27h-.246a.26.26 0 0 0-.096-.128.285.285 0 0 0-.166-.046.277.277 0 0 0-.224.1.416.416 0 0 0-.082.276c0 .118.027.211.082.278.056.066.13.1.224.1.132 0 .219-.058.262-.174h.246a.498.498 0 0 1-.18.268.537.537 0 0 1-.328.098.504.504 0 0 1-.472-.27.63.63 0 0 1-.068-.3Zm1.199-.004a.62.62 0 0 1 .068-.294.508.508 0 0 1 .452-.27c.087 0 .162.017.226.052a.454.454 0 0 1 .156.126v-.16h.23V30.2h-.23v-.164a.488.488 0 0 1-.386.182.49.49 0 0 1-.26-.072.534.534 0 0 1-.188-.204.645.645 0 0 1-.068-.298Zm.902.004a.392.392 0 0 0-.048-.198.323.323 0 0 0-.45-.128.32.32 0 0 0-.124.126.391.391 0 0 0-.046.196c0 .076.015.142.046.2a.347.347 0 0 0 .124.132.33.33 0 0 0 .328 0 .323.323 0 0 0 .122-.128.404.404 0 0 0 .048-.2Zm.796-.364v.61c0 .041.009.071.028.09.02.017.053.026.1.026h.14v.19h-.18c-.103 0-.182-.024-.236-.072-.055-.048-.082-.126-.082-.234v-.61h-.13v-.186h.13v-.274h.23v.274h.268v.186h-.268Zm.594-.332a.14.14 0 0 1-.104-.042.141.141 0 0 1-.042-.104.14.14 0 0 1 .042-.104.14.14 0 0 1 .104-.042c.04 0 .074.014.102.042a.141.141 0 0 1 .042.104.141.141 0 0 1-.042.104.139.139 0 0 1-.102.042Zm.112.146V30.2h-.228v-1.102h.228Zm.777 1.12a.57.57 0 0 1-.282-.07.52.52 0 0 1-.198-.2.61.61 0 0 1-.072-.3c0-.112.025-.212.074-.298a.511.511 0 0 1 .202-.2.586.586 0 0 1 .286-.07c.105 0 .201.023.286.07a.511.511 0 0 1 .202.2.595.595 0 0 1 .074.298.576.576 0 0 1-.076.298.533.533 0 0 1-.208.202.6.6 0 0 1-.288.07Zm0-.198a.334.334 0 0 0 .29-.168.405.405 0 0 0 .048-.204.404.404 0 0 0-.046-.202.31.31 0 0 0-.122-.126.334.334 0 0 0-.164-.042.334.334 0 0 0-.164.042.3.3 0 0 0-.118.126.427.427 0 0 0-.044.202c0 .118.03.21.09.276a.305.305 0 0 0 .23.096Zm1.353-.94c.087 0 .164.018.232.054.07.036.124.089.162.16a.52.52 0 0 1 .058.256v.65h-.226v-.616c0-.099-.024-.174-.074-.226a.26.26 0 0 0-.202-.08.27.27 0 0 0-.204.08c-.049.052-.074.127-.074.226v.616h-.228v-1.102h.228v.126a.387.387 0 0 1 .142-.106.467.467 0 0 1 .186-.038Zm1.143 1.138a.577.577 0 0 1-.234-.046.423.423 0 0 1-.162-.128.326.326 0 0 1-.064-.182h.236a.165.165 0 0 0 .066.118c.042.03.093.046.154.046a.257.257 0 0 0 .148-.036c.036-.026.054-.058.054-.096 0-.042-.02-.072-.06-.092-.038-.02-.1-.042-.186-.066a1.867 1.867 0 0 1-.202-.066.365.365 0 0 1-.136-.098.262.262 0 0 1-.056-.174.27.27 0 0 1 .052-.16.346.346 0 0 1 .148-.116.566.566 0 0 1 .224-.042c.126 0 .226.032.302.096a.334.334 0 0 1 .124.258h-.228a.162.162 0 0 0-.06-.118.223.223 0 0 0-.146-.044.237.237 0 0 0-.138.034.105.105 0 0 0-.048.09.1.1 0 0 0 .032.074c.022.02.048.036.078.048l.136.042c.08.021.146.043.196.066a.351.351 0 0 1 .134.096.25.25 0 0 1 .058.17.283.283 0 0 1-.052.168.34.34 0 0 1-.148.116.536.536 0 0 1-.222.042Z" class="Notifications"/>
      <path fill="#78C4FE" d="M125.691 6.616h-.582l-.1.284h-.238l.498-1.392h.264l.498 1.392h-.24l-.1-.284Zm-.064-.186-.226-.646-.228.646h.454Zm.849-1.01V6.9h-.228V5.42h.228Zm.223.924c0-.11.023-.209.068-.294a.508.508 0 0 1 .452-.27c.087 0 .162.017.226.052a.455.455 0 0 1 .156.126v-.16h.23V6.9h-.23v-.164a.489.489 0 0 1-.386.182.49.49 0 0 1-.26-.072.534.534 0 0 1-.188-.204.645.645 0 0 1-.068-.298Zm.902.004a.392.392 0 0 0-.048-.198.323.323 0 0 0-.45-.128.32.32 0 0 0-.124.126.391.391 0 0 0-.046.196c0 .076.015.143.046.2a.346.346 0 0 0 .124.132.33.33 0 0 0 .328 0 .323.323 0 0 0 .122-.128.404.404 0 0 0 .048-.2Zm.757-.39a.363.363 0 0 1 .33-.178v.236h-.058c-.089 0-.157.023-.204.068-.045.045-.068.124-.068.236v.58h-.228V5.798h.228v.16Zm1.874-.178c.087 0 .164.018.232.054a.39.39 0 0 1 .162.16c.04.07.06.156.06.256v.65h-.226v-.616c0-.099-.025-.174-.074-.226a.262.262 0 0 0-.202-.08.27.27 0 0 0-.204.08c-.049.052-.074.127-.074.226V6.9h-.226v-.616c0-.099-.025-.174-.074-.226a.262.262 0 0 0-.202-.08.27.27 0 0 0-.204.08c-.049.052-.074.127-.074.226V6.9h-.228V5.798h.228v.126a.38.38 0 0 1 .142-.106.489.489 0 0 1 .42.018.383.383 0 0 1 .16.162.36.36 0 0 1 .156-.158.457.457 0 0 1 .228-.06Zm1.144 1.138a.577.577 0 0 1-.234-.046.423.423 0 0 1-.162-.128.326.326 0 0 1-.064-.182h.236a.165.165 0 0 0 .066.118c.042.03.093.046.154.046a.257.257 0 0 0 .148-.036.113.113 0 0 0 .054-.096c0-.041-.02-.072-.06-.092-.038-.02-.1-.042-.186-.066a1.85 1.85 0 0 1-.202-.066.365.365 0 0 1-.136-.098.262.262 0 0 1-.056-.174.27.27 0 0 1 .052-.16.346.346 0 0 1 .148-.116.566.566 0 0 1 .224-.042c.126 0 .226.032.302.096a.333.333 0 0 1 .124.258h-.228a.162.162 0 0 0-.06-.118.223.223 0 0 0-.146-.044.237.237 0 0 0-.138.034.105.105 0 0 0-.048.09c0 .03.011.054.032.074.022.02.048.036.078.048.031.01.076.025.136.042.08.021.146.043.196.066a.352.352 0 0 1 .134.096c.038.043.057.1.058.17a.283.283 0 0 1-.052.168.34.34 0 0 1-.148.116.536.536 0 0 1-.222.042Z" class="Alarms"/>
      <path fill="#1848A4" d="M111.982 41.211c.148 0 .277.029.388.086a.593.593 0 0 1 .258.244.725.725 0 0 1 .092.37.715.715 0 0 1-.092.368.6.6 0 0 1-.258.24.868.868 0 0 1-.388.082h-.454v-1.39h.454Zm0 1.204c.163 0 .287-.044.374-.132.087-.088.13-.212.13-.372a.523.523 0 0 0-.13-.378c-.087-.09-.211-.136-.374-.136h-.226v1.018h.226Zm.888-.37a.62.62 0 0 1 .068-.294.507.507 0 0 1 .452-.27c.087 0 .162.017.226.052a.454.454 0 0 1 .156.126v-.16h.23v1.102h-.23v-.164a.453.453 0 0 1-.158.13.49.49 0 0 1-.228.052.49.49 0 0 1-.26-.072.535.535 0 0 1-.188-.204.645.645 0 0 1-.068-.298Zm.902.004a.392.392 0 0 0-.048-.198.323.323 0 0 0-.45-.128.32.32 0 0 0-.124.126.39.39 0 0 0-.046.196c0 .076.015.143.046.2a.347.347 0 0 0 .124.132.33.33 0 0 0 .328 0 .323.323 0 0 0 .122-.128.404.404 0 0 0 .048-.2Zm.796-.364v.61c0 .041.009.071.028.09.02.017.053.026.1.026h.14v.19h-.18c-.103 0-.182-.024-.236-.072-.055-.048-.082-.126-.082-.234v-.61h-.13V41.5h.13v-.274h.23v.274h.268v.186h-.268Zm.402.36a.61.61 0 0 1 .068-.294.5.5 0 0 1 .452-.27c.086 0 .162.017.226.052a.454.454 0 0 1 .156.126v-.16h.23v1.102h-.23v-.164a.462.462 0 0 1-.158.13.49.49 0 0 1-.228.052.487.487 0 0 1-.26-.072.528.528 0 0 1-.188-.204.633.633 0 0 1-.068-.298Zm.902.004a.392.392 0 0 0-.048-.198.324.324 0 0 0-.45-.128.32.32 0 0 0-.124.126.39.39 0 0 0-.046.196c0 .076.015.143.046.2a.347.347 0 0 0 .124.132.328.328 0 0 0 .328 0 .33.33 0 0 0 .122-.128.404.404 0 0 0 .048-.2Zm1.277.368h.47v.184h-.698v-1.39h.228v1.206Zm.584-.372a.62.62 0 0 1 .068-.294.514.514 0 0 1 .678-.218.436.436 0 0 1 .156.126v-.16h.23v1.102h-.23v-.164a.484.484 0 0 1-.386.182.492.492 0 0 1-.448-.276.645.645 0 0 1-.068-.298Zm.902.004a.392.392 0 0 0-.048-.198.316.316 0 0 0-.286-.172.327.327 0 0 0-.288.17.402.402 0 0 0-.046.196c0 .076.016.143.046.2a.355.355 0 0 0 .124.132.33.33 0 0 0 .328 0 .317.317 0 0 0 .122-.128.404.404 0 0 0 .048-.2Zm.966.002.508.55h-.308l-.408-.474v.474h-.228v-1.48h.228v.86l.4-.482h.316l-.508.552Zm1.681-.028a.642.642 0 0 1-.008.112h-.842a.31.31 0 0 0 .098.212.31.31 0 0 0 .216.08c.123 0 .21-.051.26-.154h.246a.498.498 0 0 1-.182.25.528.528 0 0 1-.324.096.576.576 0 0 1-.284-.07.528.528 0 0 1-.196-.2.63.63 0 0 1-.07-.3.63.63 0 0 1 .068-.298.498.498 0 0 1 .194-.2.583.583 0 0 1 .288-.07.56.56 0 0 1 .278.068c.082.045.145.11.19.192a.562.562 0 0 1 .068.282Zm-.238-.072a.257.257 0 0 0-.09-.202.32.32 0 0 0-.218-.076.292.292 0 0 0-.202.076.31.31 0 0 0-.1.202h.61Zm.863.668a.571.571 0 0 1-.234-.046.423.423 0 0 1-.162-.128.32.32 0 0 1-.064-.182h.236a.165.165 0 0 0 .066.118.25.25 0 0 0 .154.046.259.259 0 0 0 .148-.036.113.113 0 0 0 .054-.096c0-.041-.02-.072-.06-.092a1.088 1.088 0 0 0-.186-.066 1.796 1.796 0 0 1-.202-.066.358.358 0 0 1-.136-.098.256.256 0 0 1-.056-.174c0-.059.017-.112.052-.16a.34.34 0 0 1 .148-.116.563.563 0 0 1 .224-.042c.125 0 .226.032.302.096a.34.34 0 0 1 .124.258h-.228a.162.162 0 0 0-.06-.118.225.225 0 0 0-.146-.044.237.237 0 0 0-.138.034.105.105 0 0 0-.048.09c0 .03.01.054.032.074.021.02.047.036.078.048.03.01.076.025.136.042.08.021.145.043.196.066a.36.36 0 0 1 .134.096.29.29 0 0 1 .006.338.346.346 0 0 1-.148.116.543.543 0 0 1-.222.042Z" class="Data Lakes"/>
      <path fill="#4C5C75" d="M5.736 48.711v.186h-.59v.41h.46v.186h-.46v.608h-.228v-1.39h.818ZM6.945 49v1.102h-.228v-.13a.377.377 0 0 1-.142.108.5.5 0 0 1-.418-.016.398.398 0 0 1-.162-.16.526.526 0 0 1-.058-.256V49h.226v.614c0 .099.025.175.074.228.05.052.117.078.202.078a.265.265 0 0 0 .202-.078.322.322 0 0 0 .076-.228V49h.228Zm1.31.524a.713.713 0 0 1-.007.112h-.842a.301.301 0 0 0 .098.212.31.31 0 0 0 .216.08c.122 0 .209-.051.26-.154h.246a.5.5 0 0 1-.506.346.523.523 0 0 1-.48-.27.623.623 0 0 1-.07-.3c0-.113.022-.213.068-.298a.491.491 0 0 1 .194-.2.583.583 0 0 1 .288-.07.56.56 0 0 1 .278.068c.081.045.144.11.19.192a.57.57 0 0 1 .068.282Zm-.237-.072a.26.26 0 0 0-.09-.202.322.322 0 0 0-.218-.076.29.29 0 0 0-.202.076.31.31 0 0 0-.1.202h.61Zm.69-.83v1.48H8.48v-1.48h.228Zm1.825.49a.36.36 0 0 0-.15-.156.445.445 0 0 0-.222-.054.485.485 0 0 0-.246.062.441.441 0 0 0-.17.176.559.559 0 0 0-.06.264c0 .1.02.189.06.266a.442.442 0 0 0 .17.176.486.486 0 0 0 .246.062.436.436 0 0 0 .302-.104.453.453 0 0 0 .142-.282h-.522v-.182h.766v.178a.679.679 0 0 1-.116.298.683.683 0 0 1-.572.298.694.694 0 0 1-.71-.71.678.678 0 0 1 .352-.618.719.719 0 0 1 .358-.092c.148 0 .28.037.394.11.116.072.2.175.252.308h-.274Zm1.55.412a.706.706 0 0 1-.007.112h-.842a.31.31 0 0 0 .098.212.31.31 0 0 0 .216.08c.123 0 .21-.051.26-.154h.246a.5.5 0 0 1-.506.346.524.524 0 0 1-.48-.27.624.624 0 0 1-.07-.3.63.63 0 0 1 .068-.298.492.492 0 0 1 .194-.2.583.583 0 0 1 .288-.07.56.56 0 0 1 .278.068c.081.045.144.11.19.192a.569.569 0 0 1 .068.282Zm-.237-.072a.26.26 0 0 0-.09-.202.321.321 0 0 0-.218-.076.29.29 0 0 0-.202.076.31.31 0 0 0-.1.202h.61Zm1.018-.47c.087 0 .164.018.232.054.07.036.123.09.162.16a.52.52 0 0 1 .058.256v.65h-.226v-.616c0-.099-.024-.174-.074-.226a.261.261 0 0 0-.202-.08.268.268 0 0 0-.204.08c-.05.052-.074.127-.074.226v.616h-.228V49h.228v.126a.378.378 0 0 1 .142-.106.463.463 0 0 1 .186-.038Zm1.753.542a.706.706 0 0 1-.008.112h-.842a.31.31 0 0 0 .098.212.31.31 0 0 0 .216.08c.123 0 .21-.051.26-.154h.246a.5.5 0 0 1-.506.346.524.524 0 0 1-.48-.27.624.624 0 0 1-.07-.3.63.63 0 0 1 .068-.298.492.492 0 0 1 .194-.2.583.583 0 0 1 .288-.07.56.56 0 0 1 .278.068.48.48 0 0 1 .19.192.569.569 0 0 1 .068.282Zm-.238-.072a.26.26 0 0 0-.09-.202.321.321 0 0 0-.218-.076.29.29 0 0 0-.202.076.31.31 0 0 0-.1.202h.61Zm.69-.292a.352.352 0 0 1 .132-.13.392.392 0 0 1 .198-.048v.236h-.058c-.089 0-.157.023-.204.068-.045.045-.068.124-.068.236v.58h-.228V49h.228v.16Zm.464.386c0-.11.023-.209.068-.294a.507.507 0 0 1 .452-.27c.087 0 .162.017.226.052a.448.448 0 0 1 .156.126V49h.23v1.102h-.23v-.164a.488.488 0 0 1-.386.182.49.49 0 0 1-.26-.072.535.535 0 0 1-.188-.204.642.642 0 0 1-.068-.298Zm.902.004a.392.392 0 0 0-.048-.198.323.323 0 0 0-.45-.128.322.322 0 0 0-.124.126.394.394 0 0 0-.046.196c0 .076.015.143.046.2a.35.35 0 0 0 .124.132.33.33 0 0 0 .328 0 .323.323 0 0 0 .122-.128.404.404 0 0 0 .048-.2Zm.796-.364v.61c0 .041.009.071.027.09.02.017.054.026.1.026h.14v.19h-.18a.35.35 0 0 1-.236-.072c-.054-.048-.082-.126-.082-.234v-.61h-.13V49H17v-.274h.23V49h.268v.186h-.268Zm.956.934a.571.571 0 0 1-.282-.07.52.52 0 0 1-.198-.2.61.61 0 0 1-.072-.3c0-.112.024-.211.074-.298a.51.51 0 0 1 .202-.2.586.586 0 0 1 .286-.07c.105 0 .2.023.286.07a.51.51 0 0 1 .202.2.596.596 0 0 1 .074.298.58.58 0 0 1-.076.298.532.532 0 0 1-.208.202.599.599 0 0 1-.288.07Zm0-.198a.334.334 0 0 0 .29-.168.405.405 0 0 0 .048-.204.407.407 0 0 0-.046-.202.31.31 0 0 0-.122-.126.334.334 0 0 0-.164-.042.334.334 0 0 0-.164.042.3.3 0 0 0-.118.126.423.423 0 0 0-.044.202c0 .119.03.21.09.276a.305.305 0 0 0 .23.096Zm1.025-.762a.352.352 0 0 1 .132-.13.392.392 0 0 1 .198-.048v.236h-.058c-.09 0-.157.023-.204.068-.045.045-.068.124-.068.236v.58h-.228V49h.228v.16Z" class="Fuel Generator"/>
      <path fill="#354154" d="M20.25 60.711v.186h-.37v1.204h-.228v-1.204h-.372v-.186h.97Zm.459.448a.352.352 0 0 1 .131-.13.392.392 0 0 1 .198-.048v.236h-.058c-.089 0-.157.023-.204.068-.045.045-.067.124-.067.236v.58h-.229V61h.229v.16Zm.463.386c0-.11.023-.209.068-.294a.506.506 0 0 1 .452-.27c.087 0 .162.017.226.052a.448.448 0 0 1 .156.126V61h.23v1.102h-.23v-.164a.488.488 0 0 1-.386.182.49.49 0 0 1-.26-.072.535.535 0 0 1-.188-.204.64.64 0 0 1-.068-.298Zm.902.004a.392.392 0 0 0-.048-.198.323.323 0 0 0-.45-.128.322.322 0 0 0-.124.126.394.394 0 0 0-.046.196c0 .076.015.143.046.2a.35.35 0 0 0 .124.132.33.33 0 0 0 .328 0 .324.324 0 0 0 .122-.128.404.404 0 0 0 .048-.2Zm1.085-.568c.087 0 .165.018.233.054a.39.39 0 0 1 .162.16c.038.07.058.156.058.256v.65h-.226v-.616c0-.099-.025-.174-.075-.226a.261.261 0 0 0-.201-.08.268.268 0 0 0-.204.08c-.05.052-.075.127-.075.226v.616h-.227V61h.227v.126a.379.379 0 0 1 .143-.106.463.463 0 0 1 .186-.038Zm1.143 1.138a.574.574 0 0 1-.234-.046.423.423 0 0 1-.162-.128.324.324 0 0 1-.064-.182h.236a.165.165 0 0 0 .066.118c.042.03.093.046.154.046a.258.258 0 0 0 .148-.036.113.113 0 0 0 .054-.096c0-.041-.02-.072-.06-.092-.038-.02-.1-.042-.186-.066a1.823 1.823 0 0 1-.202-.066.364.364 0 0 1-.136-.098.26.26 0 0 1-.056-.174.27.27 0 0 1 .052-.16.344.344 0 0 1 .148-.116.564.564 0 0 1 .224-.042c.126 0 .226.032.302.096a.336.336 0 0 1 .124.258h-.228a.162.162 0 0 0-.06-.118.224.224 0 0 0-.146-.044.237.237 0 0 0-.138.034.105.105 0 0 0-.048.09c0 .03.011.054.032.074.022.02.048.036.078.048.031.01.076.025.136.042.08.021.146.043.196.066a.354.354 0 0 1 .134.096c.038.043.057.1.058.17a.285.285 0 0 1-.052.168.344.344 0 0 1-.148.116.54.54 0 0 1-.222.042Zm1.13-.934h-.203v.916h-.23v-.916h-.13V61h.13v-.078c0-.127.033-.219.1-.276.068-.059.174-.088.318-.088v.19c-.07 0-.118.013-.146.04-.028.025-.042.07-.042.134V61h.204v.186Zm.68.934a.571.571 0 0 1-.281-.07.52.52 0 0 1-.198-.2.61.61 0 0 1-.072-.3.59.59 0 0 1 .074-.298.51.51 0 0 1 .202-.2.586.586 0 0 1 .286-.07c.105 0 .2.023.286.07a.511.511 0 0 1 .202.2c.05.087.074.186.074.298a.58.58 0 0 1-.076.298.532.532 0 0 1-.208.202.599.599 0 0 1-.288.07Zm0-.198a.334.334 0 0 0 .29-.168.405.405 0 0 0 .049-.204.408.408 0 0 0-.046-.202.31.31 0 0 0-.122-.126.334.334 0 0 0-.164-.042.333.333 0 0 0-.164.042.3.3 0 0 0-.118.126.422.422 0 0 0-.044.202c0 .119.03.21.09.276a.305.305 0 0 0 .23.096Zm1.026-.762a.352.352 0 0 1 .132-.13.392.392 0 0 1 .198-.048v.236h-.058c-.09 0-.157.023-.204.068-.045.045-.068.124-.068.236v.58h-.228V61h.228v.16Zm1.874-.178a.49.49 0 0 1 .232.054c.07.036.123.09.162.16.04.07.06.156.06.256v.65h-.226v-.616c0-.099-.025-.174-.074-.226a.261.261 0 0 0-.202-.08.268.268 0 0 0-.204.08c-.05.052-.074.127-.074.226v.616h-.226v-.616c0-.099-.025-.174-.074-.226a.261.261 0 0 0-.202-.08.268.268 0 0 0-.204.08c-.05.052-.074.127-.074.226v.616h-.228V61h.228v.126a.379.379 0 0 1 .142-.106.489.489 0 0 1 .42.018.38.38 0 0 1 .16.162.364.364 0 0 1 .156-.158c.07-.04.146-.06.228-.06Zm1.754.542a.718.718 0 0 1-.008.112h-.842a.306.306 0 0 0 .314.292c.122 0 .21-.051.26-.154h.246a.5.5 0 0 1-.506.346.523.523 0 0 1-.48-.27.623.623 0 0 1-.07-.3.63.63 0 0 1 .068-.298.49.49 0 0 1 .194-.2.583.583 0 0 1 .288-.07.56.56 0 0 1 .278.068.48.48 0 0 1 .19.192.57.57 0 0 1 .068.282Zm-.238-.072a.26.26 0 0 0-.09-.202.322.322 0 0 0-.218-.076.29.29 0 0 0-.202.076.309.309 0 0 0-.1.202h.61Zm.69-.292a.353.353 0 0 1 .132-.13.392.392 0 0 1 .198-.048v.236h-.058c-.09 0-.157.023-.204.068-.045.045-.068.124-.068.236v.58h-.228V61h.228v.16Z" class="Transformer"/>
      <path fill="#7A8799" d="m21.162 36.811-.412 1.39h-.258L20.2 37.15l-.31 1.052-.256.002-.394-1.392h.242l.288 1.132.312-1.132h.256l.29 1.126.29-1.126h.244Zm.304.142a.141.141 0 0 1-.104-.042.141.141 0 0 1-.042-.104c0-.041.014-.076.042-.104a.141.141 0 0 1 .104-.042c.04 0 .074.014.102.042a.141.141 0 0 1 .042.104.141.141 0 0 1-.042.104.139.139 0 0 1-.102.042Zm.112.146v1.102h-.228V37.1h.228Zm.855-.018c.087 0 .164.018.232.054.07.036.123.09.162.16a.52.52 0 0 1 .058.256v.65h-.226v-.616c0-.099-.025-.174-.074-.226a.262.262 0 0 0-.202-.08.268.268 0 0 0-.204.08c-.05.052-.074.127-.074.226v.616h-.228V37.1h.228v.126a.377.377 0 0 1 .142-.106.463.463 0 0 1 .186-.038Zm.667.564a.61.61 0 0 1 .068-.294.507.507 0 0 1 .666-.222c.07.03.127.072.168.124v-.532h.23v1.48h-.23v-.166a.425.425 0 0 1-.156.132.476.476 0 0 1-.226.052.504.504 0 0 1-.452-.276.642.642 0 0 1-.068-.298Zm.902.004a.392.392 0 0 0-.048-.198.323.323 0 0 0-.45-.128.322.322 0 0 0-.124.126.394.394 0 0 0-.046.196c0 .076.015.143.046.2a.35.35 0 0 0 .124.132.33.33 0 0 0 .328 0 .323.323 0 0 0 .122-.128.404.404 0 0 0 .048-.2Zm1.947-.838v.186h-.37v1.204h-.228v-1.204h-.372v-.186h.97Zm1.229.288v1.102h-.228v-.13a.377.377 0 0 1-.142.108.5.5 0 0 1-.418-.016.398.398 0 0 1-.162-.16.526.526 0 0 1-.058-.256V37.1h.226v.614c0 .099.024.175.074.228a.264.264 0 0 0 .202.078.265.265 0 0 0 .202-.078.322.322 0 0 0 .076-.228V37.1h.228Zm.528.16a.353.353 0 0 1 .133-.13.392.392 0 0 1 .198-.048v.236h-.058c-.09 0-.158.023-.204.068-.046.046-.069.124-.069.236v.58h-.227V37.1h.227v.16Zm.768.004a.425.425 0 0 1 .158-.13.49.49 0 0 1 .226-.052.49.49 0 0 1 .45.27.617.617 0 0 1 .068.294c0 .11-.023.21-.068.298a.493.493 0 0 1-.45.276.504.504 0 0 1-.228-.05.44.44 0 0 1-.156-.128v.16h-.228v-1.48h.228v.542Zm.67.382a.381.381 0 0 0-.048-.196.306.306 0 0 0-.124-.126.328.328 0 0 0-.452.128.406.406 0 0 0-.046.198c0 .076.015.143.046.2a.33.33 0 0 0 .452.128.33.33 0 0 0 .124-.132.404.404 0 0 0 .048-.2Zm.574-.692a.141.141 0 0 1-.104-.042.141.141 0 0 1-.042-.104c0-.041.014-.076.042-.104a.141.141 0 0 1 .104-.042c.04 0 .074.014.102.042a.141.141 0 0 1 .042.104.141.141 0 0 1-.042.104.139.139 0 0 1-.102.042Zm.112.146v1.102h-.228V37.1h.228Zm.855-.018c.087 0 .164.018.232.054.07.036.123.09.162.16a.52.52 0 0 1 .058.256v.65h-.226v-.616c0-.099-.025-.174-.074-.226a.261.261 0 0 0-.202-.08.268.268 0 0 0-.204.08c-.05.052-.074.127-.074.226v.616h-.228V37.1h.228v.126a.378.378 0 0 1 .142-.106.463.463 0 0 1 .186-.038Zm1.753.542a.706.706 0 0 1-.008.112h-.842c.006.088.04.159.098.212a.31.31 0 0 0 .216.08c.122 0 .21-.051.26-.154h.246a.5.5 0 0 1-.506.346.524.524 0 0 1-.48-.27.624.624 0 0 1-.07-.3c0-.113.022-.212.068-.298a.492.492 0 0 1 .194-.2.583.583 0 0 1 .288-.07.56.56 0 0 1 .278.068c.081.045.144.11.19.192a.569.569 0 0 1 .068.282Zm-.238-.072a.26.26 0 0 0-.09-.202.321.321 0 0 0-.218-.076.29.29 0 0 0-.202.076.31.31 0 0 0-.1.202h.61Zm.862.668a.573.573 0 0 1-.234-.046.423.423 0 0 1-.162-.128.324.324 0 0 1-.064-.182h.236a.165.165 0 0 0 .066.118c.041.03.093.046.154.046a.258.258 0 0 0 .148-.036.113.113 0 0 0 .054-.096c0-.041-.02-.072-.06-.092-.039-.02-.1-.042-.186-.066a1.816 1.816 0 0 1-.202-.066.364.364 0 0 1-.136-.098.26.26 0 0 1-.056-.174c0-.059.017-.112.052-.16a.344.344 0 0 1 .148-.116.564.564 0 0 1 .224-.042c.125 0 .226.032.302.096a.336.336 0 0 1 .124.258h-.228a.162.162 0 0 0-.06-.118.224.224 0 0 0-.146-.044.237.237 0 0 0-.138.034.105.105 0 0 0-.048.09c0 .03.01.054.032.074a.24.24 0 0 0 .078.048c.03.01.076.025.136.042.08.022.145.044.196.066a.354.354 0 0 1 .134.096c.037.043.057.1.058.17a.285.285 0 0 1-.052.168.344.344 0 0 1-.148.116.54.54 0 0 1-.222.042Z" class="Wind Turbines"/>
      <path fill="#91A3BE" d="M4.983 26.215a.634.634 0 0 1-.252-.048.421.421 0 0 1-.176-.14.353.353 0 0 1-.064-.21h.244c.006.06.03.11.07.148a.256.256 0 0 0 .178.058c.08 0 .14-.018.184-.056a.188.188 0 0 0 .066-.148.158.158 0 0 0-.042-.114.263.263 0 0 0-.102-.068 1.452 1.452 0 0 0-.168-.052 1.749 1.749 0 0 1-.222-.072.332.332 0 0 1-.204-.324.37.37 0 0 1 .228-.348.61.61 0 0 1 .25-.048c.135 0 .245.034.33.102a.368.368 0 0 1 .144.276h-.252a.183.183 0 0 0-.072-.13.266.266 0 0 0-.174-.054.246.246 0 0 0-.16.05.18.18 0 0 0-.062.144c0 .043.013.078.038.106.027.027.06.048.1.064.04.016.095.034.164.052.092.026.167.05.224.076a.362.362 0 0 1 .148.118.328.328 0 0 1 .062.21c0 .07-.019.138-.058.2a.41.41 0 0 1-.166.152.55.55 0 0 1-.256.056Zm1.227.004a.571.571 0 0 1-.282-.07.52.52 0 0 1-.198-.2.61.61 0 0 1-.072-.3c0-.112.025-.211.074-.298a.51.51 0 0 1 .202-.2.586.586 0 0 1 .286-.07.59.59 0 0 1 .286.07.51.51 0 0 1 .202.2c.05.087.074.186.074.298a.58.58 0 0 1-.076.298.532.532 0 0 1-.208.202.598.598 0 0 1-.288.07Zm0-.198a.334.334 0 0 0 .29-.168.405.405 0 0 0 .048-.204.408.408 0 0 0-.046-.202.31.31 0 0 0-.122-.126.334.334 0 0 0-.164-.042.334.334 0 0 0-.164.042.3.3 0 0 0-.118.126.423.423 0 0 0-.044.202c0 .119.03.21.09.276a.305.305 0 0 0 .23.096Zm1.026-1.3v1.48h-.228v-1.48h.228Zm.223.924c0-.11.023-.209.068-.294a.507.507 0 0 1 .452-.27c.087 0 .162.018.226.052a.447.447 0 0 1 .156.126v-.16h.23v1.102h-.23v-.164a.488.488 0 0 1-.386.182.49.49 0 0 1-.26-.072.535.535 0 0 1-.188-.204.641.641 0 0 1-.068-.298Zm.902.004a.392.392 0 0 0-.048-.198.323.323 0 0 0-.45-.128.322.322 0 0 0-.124.126.394.394 0 0 0-.046.196c0 .076.016.143.046.2a.35.35 0 0 0 .124.132.33.33 0 0 0 .328 0 .323.323 0 0 0 .122-.128.404.404 0 0 0 .048-.2Zm.758-.39a.352.352 0 0 1 .132-.13.392.392 0 0 1 .198-.048v.236H9.39c-.09 0-.158.023-.204.068-.046.045-.068.124-.068.236v.58H8.89V25.1h.228v.16Zm2.03-.034a.42.42 0 0 1-.05.2.38.38 0 0 1-.16.154.603.603 0 0 1-.281.058h-.252v.564h-.228v-1.39h.48a.59.59 0 0 1 .27.056.37.37 0 0 1 .166.148.402.402 0 0 1 .056.21Zm-.491.226c.086 0 .151-.02.194-.058a.219.219 0 0 0 .064-.168c0-.152-.086-.228-.258-.228h-.252v.454h.252Zm.633.194c0-.11.023-.209.068-.294a.507.507 0 0 1 .452-.27c.087 0 .162.018.226.052a.448.448 0 0 1 .156.126v-.16h.23v1.102h-.23v-.164a.488.488 0 0 1-.386.182.49.49 0 0 1-.26-.072.535.535 0 0 1-.188-.204.642.642 0 0 1-.068-.298Zm.902.004a.392.392 0 0 0-.048-.198.323.323 0 0 0-.45-.128.322.322 0 0 0-.124.126.394.394 0 0 0-.046.196c0 .076.015.143.046.2a.35.35 0 0 0 .124.132.33.33 0 0 0 .328 0 .323.323 0 0 0 .122-.128.404.404 0 0 0 .048-.2Zm1.086-.568a.49.49 0 0 1 .232.054.39.39 0 0 1 .162.16c.038.07.058.156.058.256v.65h-.226v-.616c0-.099-.025-.174-.074-.226a.262.262 0 0 0-.202-.08.268.268 0 0 0-.204.08c-.05.052-.074.127-.074.226v.616h-.228V25.1h.228v.126a.377.377 0 0 1 .142-.106.463.463 0 0 1 .186-.038Zm1.752.542a.718.718 0 0 1-.008.112h-.841a.301.301 0 0 0 .098.212.31.31 0 0 0 .216.08c.122 0 .209-.051.26-.154H15a.5.5 0 0 1-.505.346.523.523 0 0 1-.48-.27.623.623 0 0 1-.07-.3c0-.113.022-.213.068-.298a.491.491 0 0 1 .194-.2.583.583 0 0 1 .287-.07.56.56 0 0 1 .279.068.5.5 0 0 1 .19.192.57.57 0 0 1 .067.282Zm-.238-.072a.26.26 0 0 0-.09-.202.322.322 0 0 0-.217-.076.29.29 0 0 0-.203.076.31.31 0 0 0-.1.202h.61Zm.69-.83v1.48h-.227v-1.48h.228Zm.7 1.498a.573.573 0 0 1-.234-.046.423.423 0 0 1-.162-.128.324.324 0 0 1-.064-.182h.236a.165.165 0 0 0 .066.118c.042.03.093.046.154.046a.258.258 0 0 0 .148-.036.113.113 0 0 0 .054-.096c0-.041-.02-.072-.06-.092-.039-.02-.1-.042-.186-.066a1.816 1.816 0 0 1-.202-.066.364.364 0 0 1-.136-.098.26.26 0 0 1-.056-.174.27.27 0 0 1 .052-.16.344.344 0 0 1 .148-.116.564.564 0 0 1 .224-.042c.126 0 .226.032.302.096a.336.336 0 0 1 .124.258h-.228a.162.162 0 0 0-.06-.118.224.224 0 0 0-.146-.044.237.237 0 0 0-.138.034.105.105 0 0 0-.048.09c0 .03.01.054.032.074a.24.24 0 0 0 .078.048c.03.01.076.025.136.042.08.021.146.044.196.066a.354.354 0 0 1 .134.096c.037.043.057.1.058.17a.285.285 0 0 1-.052.168.344.344 0 0 1-.148.116.54.54 0 0 1-.222.042Z" class="Solar Panels"/>
    </g>
    <g class="Color-circles">
      <animate xmlns="http://www.w3.org/2000/svg" attributeName="opacity" values="0;0;1;1" dur="2s" repeatCount="1" calcMode="spline" keyTimes="0;0.6;0.68;1" keySplines="0 0 0.15 1;0 0 1 1;0.5 0.35 1 1" additive="replace" fill="freeze"/>
      <circle cx="90.503" cy="21.801" r=".8" fill="#78C4FE" class="Ellipse 839"/>
      <circle cx="92.103" cy="25.601" r=".8" fill="#3E9AF8" class="Ellipse 840"/>
      <circle cx="92.103" cy="29.401" r=".8" fill="#1568E5" class="Ellipse 842"/>
      <circle cx="90.503" cy="33.201" r=".8" fill="#18469D" class="Ellipse 841"/>
      <circle cx="57.403" cy="42.601" r=".8" fill="#91A3BE" class="Ellipse 856"/>
      <circle cx="55.803" cy="46.001" r=".8" fill="#7D899B" class="Ellipse 855"/>
      <circle cx="55.803" cy="49.201" r=".8" fill="#51627B" class="Ellipse 854"/>
      <circle cx="57.403" cy="52.501" r=".8" fill="#3B475A" class="Ellipse 853"/>
      <circle cx="70.803" cy="41.9" r=".8" fill="#51627B" class="Ellipse 906"/>
    </g>
    <g class="Minor-text">
      <animate xmlns="http://www.w3.org/2000/svg" attributeName="opacity" values="0;0;1;1" dur="2s" repeatCount="1" calcMode="spline" keyTimes="0;0.5;1;1" keySplines="0 0 0.15 1;0 0 0.15 1;0.5 0.35 0.15 1" additive="replace" fill="freeze"/>
      <path fill="#7D899B" d="M50.335 40.692V41.8h-.146v-.825l-.368.825h-.102l-.37-.827v.827h-.145v-1.107h.157l.41.915.409-.915h.155Zm.63 1.122a.454.454 0 0 1-.225-.056.407.407 0 0 1-.157-.159.499.499 0 0 1-.056-.24c0-.09.02-.168.058-.236a.402.402 0 0 1 .16-.159.457.457 0 0 1 .226-.056c.083 0 .158.019.225.056a.4.4 0 0 1 .159.157c.04.068.059.148.059.238a.46.46 0 0 1-.061.24.411.411 0 0 1-.162.159.466.466 0 0 1-.227.056Zm0-.128a.308.308 0 0 0 .146-.037.274.274 0 0 0 .11-.11.348.348 0 0 0 .044-.18.36.36 0 0 0-.042-.179.267.267 0 0 0-.108-.109.299.299 0 0 0-.146-.036.302.302 0 0 0-.147.036.26.26 0 0 0-.106.11.37.37 0 0 0-.04.178c0 .072.013.132.039.181a.27.27 0 0 0 .105.11.3.3 0 0 0 .144.036Zm.586-.328c0-.09.018-.168.054-.235a.395.395 0 0 1 .363-.215.391.391 0 0 1 .325.171v-.464h.147V41.8h-.147v-.164a.345.345 0 0 1-.128.13.385.385 0 0 1-.198.049.406.406 0 0 1-.213-.058.405.405 0 0 1-.149-.162.504.504 0 0 1-.054-.236Zm.742.001a.356.356 0 0 0-.04-.172.275.275 0 0 0-.109-.112.285.285 0 0 0-.148-.04.279.279 0 0 0-.256.15.357.357 0 0 0-.04.173.37.37 0 0 0 .04.176.29.29 0 0 0 .107.113.295.295 0 0 0 .149.039.286.286 0 0 0 .258-.152.366.366 0 0 0 .04-.175Zm.54-.273a.344.344 0 0 1 .13-.128.388.388 0 0 1 .197-.05.395.395 0 0 1 .362.214.489.489 0 0 1 .054.236.504.504 0 0 1-.054.236.4.4 0 0 1-.362.22.394.394 0 0 1-.2-.05.339.339 0 0 1-.128-.126v.161h-.145v-1.184h.145v.47Zm.594.272a.357.357 0 0 0-.04-.173.276.276 0 0 0-.108-.112.295.295 0 0 0-.15-.038.29.29 0 0 0-.257.153.353.353 0 0 0-.04.171c0 .066.013.125.04.175a.296.296 0 0 0 .109.113.3.3 0 0 0 .149.039.287.287 0 0 0 .258-.152.37.37 0 0 0 .04-.176Zm1.118-.435v.876H54.4v-.13a.287.287 0 0 1-.117.106.4.4 0 0 1-.347-.005.319.319 0 0 1-.13-.127.425.425 0 0 1-.046-.207v-.514h.144v.495c0 .086.022.153.065.2a.236.236 0 0 0 .18.069.24.24 0 0 0 .184-.072c.044-.048.067-.118.067-.21v-.482h.145Zm.557.89a.463.463 0 0 1-.181-.033.314.314 0 0 1-.127-.096.26.26 0 0 1-.05-.142h.15c.004.043.024.08.06.107a.238.238 0 0 0 .146.041c.055 0 .1-.012.131-.036a.112.112 0 0 0 .048-.093.09.09 0 0 0-.051-.085.686.686 0 0 0-.158-.056 1.302 1.302 0 0 1-.16-.051.303.303 0 0 1-.106-.078.21.21 0 0 1-.043-.138c0-.045.013-.086.04-.123a.265.265 0 0 1 .113-.088.4.4 0 0 1 .168-.034c.097 0 .176.025.236.074.06.049.091.116.096.201h-.146a.15.15 0 0 0-.056-.11.203.203 0 0 0-.134-.042.208.208 0 0 0-.125.034.104.104 0 0 0-.047.088.1.1 0 0 0 .028.072.234.234 0 0 0 .07.045c.029.01.068.023.118.036.063.018.114.035.154.052.04.016.073.04.1.073a.197.197 0 0 1 .046.13.222.222 0 0 1-.04.13.272.272 0 0 1-.114.09.407.407 0 0 1-.166.033Z" class="Modbus"/>
      <path fill="#7D899B" d="M48.072 45.21a.546.546 0 0 1-.56-.57c0-.108.024-.205.073-.291a.557.557 0 0 1 .486-.277c.105 0 .2.024.286.073a.524.524 0 0 1 .201.202.586.586 0 0 1 .074.294.59.59 0 0 1-.074.295.535.535 0 0 1-.486.275Zm0-.126a.407.407 0 0 0 .21-.054.376.376 0 0 0 .147-.155.485.485 0 0 0 .054-.234.48.48 0 0 0-.054-.233.38.38 0 0 0-.146-.156.41.41 0 0 0-.211-.054.39.39 0 0 0-.358.21.49.49 0 0 0-.053.233c0 .089.017.167.052.234a.39.39 0 0 0 .359.21Zm1.498-.673a.31.31 0 0 1-.096.232c-.063.06-.16.091-.29.091h-.214v.466h-.146v-1.116h.36c.126 0 .221.03.286.092.066.06.1.139.1.235Zm-.386.203c.081 0 .14-.017.18-.053.038-.035.057-.085.057-.15 0-.138-.08-.206-.237-.206h-.214v.41h.214Zm.512.027c0-.108.025-.206.074-.292a.536.536 0 0 1 .483-.279c.121 0 .228.03.318.088a.507.507 0 0 1 .199.25h-.175a.348.348 0 0 0-.134-.156.382.382 0 0 0-.208-.054.407.407 0 0 0-.21.054.38.38 0 0 0-.145.156.49.49 0 0 0-.053.233c0 .089.017.167.053.234a.383.383 0 0 0 .355.208.348.348 0 0 0 .342-.208h.175a.505.505 0 0 1-.199.248.58.58 0 0 1-.318.086.539.539 0 0 1-.483-.275.583.583 0 0 1-.074-.293Zm1.898-.09v.124h-.638v-.123h.638Zm.416-.467v.706c0 .1.024.173.072.22.05.049.117.073.203.073a.27.27 0 0 0 .2-.072c.05-.048.074-.122.074-.22v-.706h.146v.703a.46.46 0 0 1-.056.236.352.352 0 0 1-.153.14.476.476 0 0 1-.212.047.487.487 0 0 1-.215-.047.354.354 0 0 1-.15-.14.471.471 0 0 1-.054-.236v-.703h.145Zm1.597.868h-.487l-.09.248h-.153l.403-1.11h.168l.402 1.11h-.154l-.09-.248Zm-.042-.119-.202-.563-.201.563h.403Z" class="OPC-UA"/>
      <path fill="#7D899B" d="M48.292 47.825c.04.006.077.022.11.05a.28.28 0 0 1 .08.098c.02.04.03.082.03.127a.283.283 0 0 1-.043.153.3.3 0 0 1-.126.108.451.451 0 0 1-.194.038h-.416v-1.115h.4c.076 0 .14.013.194.038a.27.27 0 0 1 .12.1.27.27 0 0 1 .04.145.25.25 0 0 1-.054.165.298.298 0 0 1-.141.093Zm-.413-.06h.245a.236.236 0 0 0 .158-.048.166.166 0 0 0 .056-.133c0-.056-.019-.1-.056-.132-.037-.032-.091-.048-.161-.048h-.242v.361Zm.258.514a.255.255 0 0 0 .17-.051.176.176 0 0 0 .06-.143.179.179 0 0 0-.064-.145.256.256 0 0 0-.171-.055h-.253v.394h.258Zm1.237-.128h-.487l-.09.248h-.153l.403-1.109h.168l.402 1.109h-.154l-.09-.248Zm-.042-.119-.201-.563-.202.563h.403Zm.406-.191a.58.58 0 0 1 .074-.293.536.536 0 0 1 .483-.279.58.58 0 0 1 .319.088.51.51 0 0 1 .198.25h-.174a.348.348 0 0 0-.135-.155.383.383 0 0 0-.208-.055.408.408 0 0 0-.21.055.38.38 0 0 0-.145.155.49.49 0 0 0-.053.233c0 .09.018.167.053.234a.381.381 0 0 0 .146.154.407.407 0 0 0 .21.054.348.348 0 0 0 .342-.208h.174a.504.504 0 0 1-.198.248.58.58 0 0 1-.319.086.538.538 0 0 1-.483-.275.583.583 0 0 1-.074-.292Zm1.718-.335c.106 0 .193.033.26.098.065.064.098.157.098.278v.517h-.144v-.496c0-.087-.022-.154-.065-.2a.233.233 0 0 0-.18-.07.243.243 0 0 0-.183.072c-.045.047-.068.117-.068.21v.484h-.145v-.877h.145v.125a.29.29 0 0 1 .117-.104.37.37 0 0 1 .165-.037Zm1.396.42a.855.855 0 0 1-.005.089h-.7a.288.288 0 0 0 .087.203c.055.048.12.072.197.072a.27.27 0 0 0 .157-.043.235.235 0 0 0 .09-.118h.157a.38.38 0 0 1-.141.206.428.428 0 0 1-.263.078.447.447 0 0 1-.224-.056.398.398 0 0 1-.153-.158.499.499 0 0 1-.056-.24.5.5 0 0 1 .054-.239.379.379 0 0 1 .152-.156.454.454 0 0 1 .227-.056.44.44 0 0 1 .221.054.37.37 0 0 1 .147.15.432.432 0 0 1 .053.215Zm-.15-.03a.265.265 0 0 0-.037-.142.232.232 0 0 0-.1-.091.301.301 0 0 0-.14-.032.273.273 0 0 0-.189.07.289.289 0 0 0-.088.196h.554Zm.52-.254v.517c0 .043.009.073.027.091.018.017.05.026.094.026h.108v.123h-.132c-.08 0-.141-.019-.182-.056-.04-.037-.06-.099-.06-.184v-.517h-.114v-.12h.113v-.22h.146v.22h.229v.12h-.23Z" class="BACnet"/>
      <path fill="#7D899B" d="M43.72 51.71a.547.547 0 0 1-.56-.57c0-.108.025-.205.074-.291a.557.557 0 0 1 .486-.277c.105 0 .2.024.285.073a.524.524 0 0 1 .202.202.583.583 0 0 1 .073.294.59.59 0 0 1-.073.295.535.535 0 0 1-.487.275Zm0-.126a.406.406 0 0 0 .21-.054.376.376 0 0 0 .147-.155.484.484 0 0 0 .054-.234.478.478 0 0 0-.054-.233.38.38 0 0 0-.146-.156.41.41 0 0 0-.21-.054.39.39 0 0 0-.358.21.49.49 0 0 0-.054.233c0 .089.018.167.053.234a.39.39 0 0 0 .358.21Zm.93-.641v.517c0 .042.01.073.027.09.018.018.05.027.095.027h.107v.123h-.131c-.081 0-.142-.019-.183-.056-.04-.038-.06-.099-.06-.184v-.517h-.114v-.12h.113v-.22h.146v.22h.229v.12h-.229Zm.84-.136a.37.37 0 0 1 .18.043.29.29 0 0 1 .124.127.424.424 0 0 1 .047.206v.517h-.144v-.496c0-.088-.022-.154-.066-.2a.233.233 0 0 0-.179-.07.243.243 0 0 0-.184.071c-.045.048-.067.118-.067.21v.485h-.146v-1.184h.146v.432a.288.288 0 0 1 .118-.104.392.392 0 0 1 .171-.037Zm1.389.42a.857.857 0 0 1-.005.089h-.7a.288.288 0 0 0 .087.203c.054.048.12.072.197.072a.27.27 0 0 0 .157-.043.236.236 0 0 0 .09-.119h.156a.38.38 0 0 1-.14.207.428.428 0 0 1-.263.078.448.448 0 0 1-.224-.056.398.398 0 0 1-.154-.158.497.497 0 0 1-.056-.24.5.5 0 0 1 .055-.239.378.378 0 0 1 .152-.157.454.454 0 0 1 .227-.055.44.44 0 0 1 .22.054.37.37 0 0 1 .148.15.432.432 0 0 1 .053.215Zm-.15-.03a.265.265 0 0 0-.038-.142.233.233 0 0 0-.1-.091.301.301 0 0 0-.14-.032.273.273 0 0 0-.188.07.288.288 0 0 0-.088.195h.553Zm.488-.232a.28.28 0 0 1 .108-.117.343.343 0 0 1 .175-.041v.15h-.039c-.163 0-.244.089-.244.266v.477h-.146v-.877h.146v.142Zm1.023.02a.344.344 0 0 1 .128-.125.385.385 0 0 1 .2-.051.406.406 0 0 1 .361.214.487.487 0 0 1 .055.235.503.503 0 0 1-.055.237.4.4 0 0 1-.361.22.37.37 0 0 1-.328-.176v.577h-.146v-1.293h.146v.161Zm.595.273a.356.356 0 0 0-.04-.173.275.275 0 0 0-.109-.112.295.295 0 0 0-.148-.038.29.29 0 0 0-.258.154.353.353 0 0 0-.04.17c0 .067.013.125.04.175a.3.3 0 0 0 .109.114.3.3 0 0 0 .148.038.286.286 0 0 0 .258-.152.369.369 0 0 0 .04-.176Zm.486-.293a.281.281 0 0 1 .109-.117.344.344 0 0 1 .174-.041v.15h-.038c-.163 0-.245.089-.245.266v.477h-.145v-.877h.145v.142Zm.834.75a.454.454 0 0 1-.224-.057.407.407 0 0 1-.157-.158.499.499 0 0 1-.056-.24c0-.09.02-.169.058-.237a.402.402 0 0 1 .16-.159.457.457 0 0 1 .225-.055c.083 0 .159.018.226.056.067.036.12.088.158.156.04.069.06.148.06.239 0 .09-.02.17-.061.24a.41.41 0 0 1-.162.158.466.466 0 0 1-.227.056Zm0-.129a.308.308 0 0 0 .147-.037.274.274 0 0 0 .11-.11.348.348 0 0 0 .044-.18.35.35 0 0 0-.042-.178.267.267 0 0 0-.109-.11.299.299 0 0 0-.145-.036.302.302 0 0 0-.148.037.26.26 0 0 0-.105.108.372.372 0 0 0-.04.18c0 .071.013.131.038.18a.27.27 0 0 0 .106.11.3.3 0 0 0 .144.036Zm.819-.643v.517c0 .042.009.073.027.09.018.018.05.027.094.027h.107v.123h-.13c-.082 0-.143-.019-.183-.056-.04-.038-.061-.099-.061-.184v-.517h-.114v-.12h.114v-.22h.145v.22h.23v.12h-.23Zm.787.771a.454.454 0 0 1-.224-.056.406.406 0 0 1-.157-.158.497.497 0 0 1-.056-.24c0-.09.02-.169.058-.237a.4.4 0 0 1 .16-.159.457.457 0 0 1 .225-.055c.084 0 .159.018.226.056.067.036.12.088.158.156.04.069.06.148.06.239 0 .09-.02.17-.061.24a.412.412 0 0 1-.162.158.466.466 0 0 1-.227.056Zm0-.128a.308.308 0 0 0 .147-.037.275.275 0 0 0 .11-.11.348.348 0 0 0 .044-.18.36.36 0 0 0-.042-.178.267.267 0 0 0-.109-.11.299.299 0 0 0-.145-.036.302.302 0 0 0-.147.037.26.26 0 0 0-.106.108.37.37 0 0 0-.04.18c0 .071.013.131.038.18a.27.27 0 0 0 .25.146Zm.587-.326c0-.091.018-.17.054-.237a.392.392 0 0 1 .15-.159.44.44 0 0 1 .223-.055c.108 0 .196.026.266.078.07.052.116.125.139.218h-.157a.224.224 0 0 0-.088-.127.266.266 0 0 0-.16-.046.257.257 0 0 0-.202.086.355.355 0 0 0-.077.242.36.36 0 0 0 .077.245.257.257 0 0 0 .202.086.272.272 0 0 0 .16-.045.227.227 0 0 0 .088-.128h.157a.39.39 0 0 1-.141.216.425.425 0 0 1-.264.08.44.44 0 0 1-.222-.056.392.392 0 0 1-.15-.158.504.504 0 0 1-.055-.24Zm1.408.454a.454.454 0 0 1-.224-.056.406.406 0 0 1-.156-.158.497.497 0 0 1-.056-.24c0-.09.019-.169.057-.237a.4.4 0 0 1 .16-.159.457.457 0 0 1 .226-.055c.083 0 .158.018.225.056.068.036.12.088.159.156.04.069.059.148.059.239 0 .09-.02.17-.06.24a.412.412 0 0 1-.162.158.466.466 0 0 1-.228.056Zm0-.128a.308.308 0 0 0 .148-.037.275.275 0 0 0 .11-.11.348.348 0 0 0 .043-.18.36.36 0 0 0-.041-.178.267.267 0 0 0-.11-.11.299.299 0 0 0-.145-.036.302.302 0 0 0-.147.037.26.26 0 0 0-.106.108.37.37 0 0 0-.04.18.38.38 0 0 0 .039.18.27.27 0 0 0 .25.146Zm.787-1.07V51.7h-.146v-1.184h.146Zm.559 1.198a.463.463 0 0 1-.181-.033.314.314 0 0 1-.127-.096.26.26 0 0 1-.05-.143h.15c.004.044.024.08.06.107a.238.238 0 0 0 .146.042c.055 0 .1-.012.131-.037a.112.112 0 0 0 .048-.093.09.09 0 0 0-.051-.084.686.686 0 0 0-.158-.056 1.302 1.302 0 0 1-.16-.052.303.303 0 0 1-.106-.078.21.21 0 0 1-.043-.138c0-.044.013-.086.04-.123a.265.265 0 0 1 .113-.088.4.4 0 0 1 .168-.033c.097 0 .176.024.236.073.06.05.091.116.096.202h-.146a.15.15 0 0 0-.056-.11.203.203 0 0 0-.134-.042.208.208 0 0 0-.125.033.104.104 0 0 0-.047.088.1.1 0 0 0 .028.072.234.234 0 0 0 .07.045c.029.01.068.023.118.037.063.017.114.034.154.051.04.016.073.04.1.074a.197.197 0 0 1 .046.13.222.222 0 0 1-.04.129.272.272 0 0 1-.114.091.407.407 0 0 1-.166.032Z" class="Other protocols"/>
    </g>
    <g class="TB-connect">
      <path stroke="url(#b)" stroke-width=".15" d="M70.802 33.85v8.25" class="Line 196"><animate xmlns="http://www.w3.org/2000/svg" attributeName="stroke-dasharray" values="0 8.3325;0 8.3325;0 8.3325;0 8.3325;0 8.3325;1.5461 6.7865;6.704 1.6286;8.25 0.0825;8.25 0.0825;8.25 0.0825;8.25 0.0825" dur="2s" repeatCount="1" keyTimes="0;0.1;0.2;0.3;0.4;0.5;0.6;0.7;0.8;0.9;1" fill="freeze"/></path>
      <circle cx="70.802" cy="33.701" r="1.125" fill="#fff" stroke="#3E9AF8" stroke-width=".15" class="Ellipse 907"><animate xmlns="http://www.w3.org/2000/svg" attributeName="opacity" values="0;0;1;1" dur="2s" repeatCount="1" calcMode="spline" keyTimes="0;0.25;0.75;1" keySplines="0 0 0.15 1;0 0 0 1;0.5 0.35 0 1" additive="replace" fill="freeze"/></circle>
      <g class="mqtt">
        <animate xmlns="http://www.w3.org/2000/svg" attributeName="opacity" values="0;0;1;1" dur="2s" repeatCount="1" calcMode="spline" keyTimes="0;0.5;0.75;1" keySplines="0.5 0.35 0.15 1;0.5 0.35 0.15 1;0.5 0.35 0.15 1" additive="replace" fill="freeze"/>
        <path fill="#fff" d="M67.602 36.501h6v3h-6z" class="Rectangle 2800"/>
        <path fill="#7D899B" d="M72.892 37.415v.118h-.304v.997h-.146v-.997h-.305v-.118h.755Zm-.867 0v.118h-.304v.997h-.146v-.997h-.306v-.118h.756Zm-1.053 1.325-.222-.222a.623.623 0 0 1-.167.022.547.547 0 0 1-.56-.57c0-.108.025-.206.074-.292a.559.559 0 0 1 .486-.277c.105 0 .2.025.285.074a.522.522 0 0 1 .202.201.59.59 0 0 1 .073.295.587.587 0 0 1-.07.288.523.523 0 0 1-.194.201l.282.28h-.189Zm-.8-.77c0 .09.018.167.053.234a.39.39 0 0 0 .358.21.406.406 0 0 0 .21-.055.375.375 0 0 0 .147-.155.484.484 0 0 0 .055-.233.478.478 0 0 0-.055-.234.38.38 0 0 0-.145-.155.41.41 0 0 0-.212-.054.39.39 0 0 0-.358.21.49.49 0 0 0-.053.233Zm-.342-.547v1.107h-.145v-.826l-.368.826h-.103l-.37-.827v.827H68.7v-1.107h.157l.41.915.41-.915h.154Z" class="Vector"/>
      </g>
    </g>
    <g class="White-circles">
      <animate xmlns="http://www.w3.org/2000/svg" attributeName="opacity" values="0;1;1" dur="2.0016s" repeatCount="1" calcMode="spline" keyTimes="0;0.25;1" keySplines="0 0 0.15 1;0.5 0.35 0.15 1" additive="replace" fill="freeze"/>
      <circle cx="140.003" cy="19.6" r="1.125" fill="#fff" stroke="#3E9AF8" stroke-width=".15" class="Ellipse 844"/>
      <circle cx="140.003" cy="31.5" r="1.125" fill="#fff" stroke="#1568E5" stroke-width=".15" class="Ellipse 845"/>
      <circle cx="140.003" cy="43.5" r="1.125" fill="#fff" stroke="#18469D" stroke-width=".15" class="Ellipse 846"/>
      <circle cx="1.203" cy="27.4" r="1.125" fill="#fff" stroke="#96A7C2" stroke-width=".15" class="Ellipse 849"/>
      <circle cx="1.203" cy="39.3" r="1.125" fill="#fff" stroke="#7D899B" stroke-width=".15" class="Ellipse 850"/>
      <circle cx="1.203" cy="51.2" r="1.125" fill="#fff" stroke="#51627B" stroke-width=".15" class="Ellipse 851"/>
      <circle cx="1.203" cy="63.1" r="1.125" fill="#fff" stroke="#3B475A" stroke-width=".15" class="Ellipse 852"/>
      <circle cx="140.003" cy="7.6" r="1.125" fill="#fff" stroke="#78C4FE" stroke-width=".15" class="Ellipse 843"/>
    </g>
    <g class="Left-circles">
      <animateTransform xmlns="http://www.w3.org/2000/svg" attributeName="transform" type="translate" values="0 -3;0 -3;0 0;0 0" dur="2.0016s" repeatCount="1" calcMode="spline" keyTimes="0;0.5;1;1" keySplines="0 0 0.15 1;0 0 0.15 1;0.5 0.35 0.15 1" additive="sum" fill="freeze"/>
      <animate xmlns="http://www.w3.org/2000/svg" attributeName="opacity" values="0;0;1;1" dur="2.0016s" repeatCount="1" calcMode="spline" keyTimes="0;0.5;1;1" keySplines="0 0 0.15 1;0 0 0.15 1;0.5 0.35 0.15 1" additive="replace" fill="freeze"/>
      <g class="device">
        <circle cx="24.998" cy="27" r="7.524" fill="#fff" stroke="#91A3BE" stroke-width=".152" class="Ellipse 915"/>
        <g class="Group 427319674">
          <path fill="#ACBACE" stroke="#fff" stroke-width=".03" d="M20.815 24.015h2.67v5.274h-2.67v-5.274Z" class="Rectangle 2870"/>
          <path stroke="#fff" stroke-width=".03" d="M21.475 24v.59" class="Vector 652"/>
          <path stroke="#fff" stroke-width=".03" d="M22.15 24v.59" class="Vector 653"/>
          <path stroke="#fff" stroke-width=".03" d="M22.825 24v.59" class="Vector 654"/>
          <path stroke="#fff" stroke-width=".03" d="M23.2 26.652h.3" class="Vector 655"/>
          <path stroke="#fff" stroke-width=".03" d="M23.2 25.326h.3" class="Vector 656"/>
          <path stroke="#fff" stroke-width=".03" d="M23.2 27.978h.3" class="Vector 657"/>
          <path fill="#ACBACE" stroke="#fff" stroke-width=".03" d="M20.515 24.604h2.67v5.274h-2.67z" class="Rectangle 2871"/>
          <path stroke="#fff" stroke-width=".03" d="M21.175 24.59v5.303" class="Vector 658"/>
          <path stroke="#fff" stroke-width=".03" d="M21.85 24.59v5.303" class="Vector 659"/>
          <path stroke="#fff" stroke-width=".03" d="M22.525 24.59v5.303" class="Vector 660"/>
          <path stroke="#fff" stroke-width=".03" d="M20.5 27.241h2.7" class="Vector 661"/>
          <path stroke="#fff" stroke-width=".03" d="M20.5 25.915h2.7" class="Vector 662"/>
          <path stroke="#fff" stroke-width=".03" d="M20.5 28.567h2.7" class="Vector 663"/>
          <path fill="#ACBACE" stroke="#fff" stroke-width=".03" d="M23.815 24.015h2.67v5.274h-2.67v-5.274Z" class="Rectangle 2872"/>
          <path stroke="#fff" stroke-width=".03" d="M24.475 24v.59" class="Vector 664"/>
          <path stroke="#fff" stroke-width=".03" d="M25.15 24v.59" class="Vector 665"/>
          <path stroke="#fff" stroke-width=".03" d="M25.825 24v.59" class="Vector 666"/>
          <path stroke="#fff" stroke-width=".03" d="M26.2 26.652h.3" class="Vector 667"/>
          <path stroke="#fff" stroke-width=".03" d="M26.2 25.326h.3" class="Vector 668"/>
          <path stroke="#fff" stroke-width=".03" d="M26.2 27.978h.3" class="Vector 669"/>
          <path fill="#ACBACE" stroke="#fff" stroke-width=".03" d="M23.515 24.604h2.67v5.274h-2.67z" class="Rectangle 2873"/>
          <path stroke="#fff" stroke-width=".03" d="M24.175 24.59v5.303" class="Vector 670"/>
          <path stroke="#fff" stroke-width=".03" d="M24.85 24.59v5.303" class="Vector 671"/>
          <path stroke="#fff" stroke-width=".03" d="M25.525 24.59v5.303" class="Vector 672"/>
          <path stroke="#fff" stroke-width=".03" d="M23.5 27.241h2.7" class="Vector 673"/>
          <path stroke="#fff" stroke-width=".03" d="M23.5 25.915h2.7" class="Vector 674"/>
          <path stroke="#fff" stroke-width=".03" d="M23.5 28.567h2.7" class="Vector 675"/>
          <path fill="#ACBACE" stroke="#fff" stroke-width=".03" d="M26.815 24.015h2.67v5.274h-2.67v-5.274Z" class="Rectangle 2869"/>
          <path stroke="#fff" stroke-width=".03" d="M27.475 24v.59" class="Vector 646"/>
          <path stroke="#fff" stroke-width=".03" d="M28.15 24v.59" class="Vector 647"/>
          <path stroke="#fff" stroke-width=".03" d="M28.825 24v.59" class="Vector 648"/>
          <path stroke="#fff" stroke-width=".03" d="M29.2 26.652h.3" class="Vector 649"/>
          <path stroke="#fff" stroke-width=".03" d="M29.2 25.326h.3" class="Vector 650"/>
          <path stroke="#fff" stroke-width=".03" d="M29.2 27.978h.3" class="Vector 651"/>
          <path fill="#ACBACE" stroke="#fff" stroke-width=".03" d="M26.515 24.604h2.67v5.274h-2.67z" class="Rectangle 2868"/>
          <path stroke="#fff" stroke-width=".03" d="M27.175 24.59v5.303" class="Vector 640"/>
          <path stroke="#fff" stroke-width=".03" d="M27.85 24.59v5.303" class="Vector 641"/>
          <path stroke="#fff" stroke-width=".03" d="M28.525 24.59v5.303" class="Vector 642"/>
          <path stroke="#fff" stroke-width=".03" d="M26.5 27.241h2.7" class="Vector 643"/>
          <path stroke="#fff" stroke-width=".03" d="M26.5 25.915h2.7" class="Vector 644"/>
          <path stroke="#fff" stroke-width=".03" d="M26.5 28.567h2.7" class="Vector 645"/>
        </g>
        <circle cx="24.998" cy="27" r="6.6" stroke="#91A3BE" stroke-width=".4" class="Ellipse 917"/>
      </g>
      <g class="device">
        <circle cx="10.6" cy="39.099" r="7.524" fill="#fff" stroke="#7D899B" stroke-width=".152" class="Ellipse 915"/>
        <g class="Group 427319675">
          <path fill="#7A8799" stroke="#fff" stroke-width=".023" d="m11.966 38.345-.002.005-.002-.005a5.191 5.191 0 0 1-.138-.403c-.076-.25-.15-.561-.15-.81 0-.247.074-.558.15-.808a6.115 6.115 0 0 1 .138-.404l.002-.005.002.005a5.106 5.106 0 0 1 .138.404c.075.25.15.56.15.809 0 .248-.075.559-.15.809a6.123 6.123 0 0 1-.138.403Z" class="Vector 534"/>
          <path fill="#7A8799" stroke="#fff" stroke-width=".023" d="m9.327 38.345-.002.005-.002-.005a5.252 5.252 0 0 1-.138-.403c-.076-.25-.15-.561-.15-.81 0-.247.074-.558.15-.808a6.136 6.136 0 0 1 .138-.404l.002-.005.002.005a5.02 5.02 0 0 1 .138.404c.075.25.15.56.15.809 0 .248-.075.559-.15.809a6.153 6.153 0 0 1-.138.403Z" class="Vector 537"/>
          <path fill="#7A8799" stroke="#fff" stroke-width=".023" d="m11.616 43.288.233-4.894h.23l.233 4.894h-.696Z" class="Rectangle 2828"/>
          <path fill="#7A8799" stroke="#fff" stroke-width=".023" d="m8.977 43.288.233-4.894h.23l.233 4.894h-.696Z" class="Rectangle 2829"/>
          <path fill="#7A8799" stroke="#fff" stroke-width=".023" d="m14.096 39.617.004.005-.006-.001a5.378 5.378 0 0 1-.42-.081c-.255-.059-.563-.149-.778-.273-.215-.124-.447-.346-.625-.537a6.163 6.163 0 0 1-.28-.323l-.004-.005h.006a5.378 5.378 0 0 1 .42.082c.255.059.562.149.777.273.216.124.447.346.626.537a6.098 6.098 0 0 1 .28.323Z" class="Vector 535"/>
          <path fill="#7A8799" stroke="#fff" stroke-width=".023" d="m11.457 39.617.004.005-.006-.001a5.097 5.097 0 0 1-.42-.081c-.255-.059-.562-.149-.778-.273-.215-.124-.446-.346-.625-.537a6.102 6.102 0 0 1-.28-.323l-.004-.005h.006a5.26 5.26 0 0 1 .42.082c.255.059.563.149.778.273.215.124.447.346.625.537a6.098 6.098 0 0 1 .28.323Z" class="Vector 538"/>
          <path fill="#7A8799" stroke="#fff" stroke-width=".023" d="m9.825 39.621-.006.001.004-.005a5.304 5.304 0 0 1 .28-.323c.178-.191.41-.413.625-.537.216-.124.523-.214.778-.273a6.144 6.144 0 0 1 .42-.081h.006l-.004.004a6.077 6.077 0 0 1-.28.323c-.178.191-.41.413-.625.537-.215.124-.523.214-.778.273a6.027 6.027 0 0 1-.42.081Z" class="Vector 536"/>
          <path fill="#7A8799" stroke="#fff" stroke-width=".023" d="m7.187 39.621-.007.001.004-.005a5.304 5.304 0 0 1 .28-.323c.179-.191.41-.413.626-.537.215-.124.523-.214.777-.273a6.148 6.148 0 0 1 .42-.081h.006l-.004.004a6.095 6.095 0 0 1-.28.323c-.178.191-.41.413-.625.537-.215.124-.523.214-.778.273a6.03 6.03 0 0 1-.42.081Z" class="Vector 539"/>
          <circle cx="11.964" cy="38.394" r=".314" fill="#7A8799" stroke="#fff" stroke-width=".023" class="Ellipse 396"/>
          <circle cx="9.325" cy="38.394" r=".314" fill="#7A8799" stroke="#fff" stroke-width=".023" class="Ellipse 397"/>
          <path fill="#7A8799" stroke="#fff" stroke-width=".023" d="m10.648 37.093-.006.014-.005-.014a7.682 7.682 0 0 1-.175-.507c-.096-.314-.192-.705-.192-1.017 0-.312.096-.703.192-1.016a7.682 7.682 0 0 1 .175-.507l.005-.014.006.014a6.727 6.727 0 0 1 .175.507c.096.313.191.704.191 1.016 0 .312-.095.703-.191 1.017a7.682 7.682 0 0 1-.175.507Z" class="Vector 531"/>
          <path fill="#7A8799" stroke="#fff" stroke-width=".023" d="m10.19 43.288.3-6.138h.304l.301 6.138h-.905Z" class="Rectangle 2826"/>
          <path fill="#7A8799" stroke="#fff" stroke-width=".023" d="m13.323 38.68.01.012-.015-.002a6.73 6.73 0 0 1-.527-.102c-.32-.074-.706-.187-.976-.343-.27-.156-.56-.434-.784-.674a7.612 7.612 0 0 1-.352-.405l-.01-.012.016.002a6.738 6.738 0 0 1 .526.102c.32.074.706.187.976.343.27.156.561.434.785.674a7.677 7.677 0 0 1 .351.405Z" class="Vector 532"/>
          <path fill="#7A8799" stroke="#fff" stroke-width=".023" d="m7.967 38.69-.016.002.01-.012.078-.095c.067-.08.162-.19.273-.31.224-.24.515-.518.785-.674.27-.156.657-.269.976-.343a7.64 7.64 0 0 1 .527-.101l.015-.003-.01.012a7.677 7.677 0 0 1-.351.405c-.224.24-.515.518-.785.674-.27.156-.656.27-.976.343a7.652 7.652 0 0 1-.526.102Z" class="Vector 533"/>
          <circle cx="10.642" cy="37.139" r=".384" fill="#7A8799" stroke="#fff" stroke-width=".023" class="Ellipse 395"/>
          <rect width="3.813" height=".256" x="8.736" y="43.032" fill="#7A8799" stroke="#fff" stroke-width=".023" class="Rectangle 2827" rx=".012"/>
        </g>
        <circle cx="10.601" cy="39.1" r="6.6" stroke="#7D899B" stroke-width=".4" class="Ellipse 917"/>
      </g>
      <g class="device">
        <circle cx="27.6" cy="51.099" r="7.524" fill="#fff" stroke="#51627B" stroke-width=".152" class="Ellipse 915"/>
        <g class="Group 427319676">
          <path fill="#4C5C75" stroke="#fff" stroke-width=".027" d="M31.587 48.607v4.4a.307.307 0 0 1-.307.306h-7.36a.307.307 0 0 1-.307-.306V48.82c0-.17.138-.307.307-.307h1.267c.169 0 .306.138.306.307v.493a.093.093 0 0 1-.093.094h-.187a.093.093 0 0 1-.093-.094v-.28a.147.147 0 0 0-.147-.146h-.84a.147.147 0 0 0-.146.146v3.76c0 .081.065.147.146.147h6.934a.147.147 0 0 0 .146-.147v-4.186c0-.052.042-.094.094-.094h.186c.052 0 .094.042.094.094Z" class="Rectangle 2800"/>
          <path fill="#4C5C75" stroke="#fff" stroke-width=".027" d="M24.293 49.233h6.614c.169 0 .306.138.306.307v3.253a.147.147 0 0 1-.146.147h-6.934a.147.147 0 0 1-.146-.147V49.54c0-.17.137-.307.306-.307Z" class="Rectangle 2416"/>
          <circle cx="29.973" cy="53.167" r=".653" fill="#4C5C75" stroke="#fff" stroke-width=".027" class="Ellipse 383"/>
          <path fill="#4C5C75" stroke="#fff" stroke-width=".027" d="M24.4 53.313h.4v.44c0 .037-.03.067-.067.067h-.266a.067.067 0 0 1-.067-.067v-.44Z" class="Rectangle 2798"/>
          <path fill="#4C5C75" stroke="#fff" stroke-width=".027" d="M26.853 48.78h3.627c.17 0 .307.137.307.307v.146h-4.24v-.146c0-.17.137-.307.306-.307Z" class="Rectangle 2799"/>
          <path stroke="#fff" stroke-linecap="round" stroke-width=".08" d="M24.76 51.313h1.253" class="Line 46"/>
          <path stroke="#fff" stroke-linecap="round" stroke-width=".08" d="M24.76 51.74h1.253" class="Line 47"/>
          <path stroke="#fff" stroke-linecap="round" stroke-width=".08" d="M24.76 52.167h1.253" class="Line 48"/>
          <path stroke="#fff" stroke-linecap="round" stroke-width=".08" d="M26.307 51.313h1.253" class="Line 43"/>
          <path stroke="#fff" stroke-linecap="round" stroke-width=".08" d="M26.307 51.74h1.253" class="Line 44"/>
          <path stroke="#fff" stroke-linecap="round" stroke-width=".08" d="M26.307 52.167h1.253" class="Line 45"/>
        </g>
        <circle cx="27.601" cy="51.1" r="6.6" stroke="#51627B" stroke-width=".4" class="Ellipse 917"/>
      </g>
      <g class="device">
        <circle cx="10.6" cy="63.099" r="7.524" fill="#fff" stroke="#354154" stroke-width=".152" class="Ellipse 915"/>
        <g class="Group 427319673">
          <rect width="5.124" height="5.572" x="8.238" y="61.268" fill="#354154" stroke="#fff" stroke-width=".028" class="Rectangle 2879" rx=".07"/>
          <rect width="5.572" height=".56" x="8.014" y="66.84" fill="#354154" stroke="#fff" stroke-width=".028" class="Rectangle 2878" rx=".07"/>
          <rect width="5.572" height=".308" x="8.014" y="60.946" fill="#354154" stroke="#fff" stroke-width=".028" class="Rectangle 2880" rx=".07"/>
          <g class="Vector">
            <path fill="#fff" fill-rule="evenodd" d="m11.44 64.695-.64-1.106-.64 1.106h1.28Zm-1.329.112a.084.084 0 0 1-.072-.126l.688-1.19a.084.084 0 0 1 .146 0l.688 1.19a.084.084 0 0 1-.073.126h-1.377Z" clip-rule="evenodd"/>
            <path fill="#fff" d="m10.861 64.087-.236.211a.023.023 0 0 0 .014.04l.184.017-.11.154a.018.018 0 0 0 .001.023.018.018 0 0 0 .025 0l.236-.21a.023.023 0 0 0-.014-.04l-.184-.018.11-.154a.018.018 0 0 0-.001-.023.018.018 0 0 0-.025 0Z"/>
          </g>
          <path fill="#354154" stroke="#fff" stroke-width=".028" d="M9.862 59.496v.033a.168.168 0 0 1-.112.159l-.03.01a.52.52 0 0 1-.173.03h-.294a.52.52 0 0 1-.172-.03l-.031-.01a.168.168 0 0 1-.112-.159v-.033c0-.049.021-.095.058-.127l.077-.067a.434.434 0 0 1 .284-.106h.086c.104 0 .205.038.284.106l.077.067a.168.168 0 0 1 .058.127Z" class="Rectangle 2803"/>
          <path fill="#354154" stroke="#fff" stroke-width=".028" d="M9.862 60.028v.033a.168.168 0 0 1-.112.159l-.03.01a.52.52 0 0 1-.173.03h-.294a.52.52 0 0 1-.172-.03l-.031-.01a.168.168 0 0 1-.112-.159v-.033c0-.049.021-.095.058-.127l.077-.067a.434.434 0 0 1 .284-.106h.086c.104 0 .205.038.284.106l.077.067a.168.168 0 0 1 .058.127Z" class="Rectangle 2808"/>
          <path fill="#354154" stroke="#fff" stroke-width=".028" d="M9.862 60.56v.033a.168.168 0 0 1-.112.159l-.03.01a.52.52 0 0 1-.173.03h-.294a.52.52 0 0 1-.172-.03l-.031-.01a.168.168 0 0 1-.112-.159v-.033c0-.049.021-.095.058-.127l.077-.067a.434.434 0 0 1 .284-.106h.086c.104 0 .205.038.284.106l.077.067a.168.168 0 0 1 .058.127Z" class="Rectangle 2809"/>
          <rect width=".28" height=".21" x="9.26" y="59" fill="#354154" class="Rectangle 2806" rx=".028"/>
          <rect width=".42" height=".154" x="9.19" y="60.792" fill="#354154" stroke="#fff" stroke-width=".028" class="Rectangle 2807" rx=".014"/>
          <path fill="#354154" stroke="#fff" stroke-width=".028" d="M12.662 59.51v.033a.168.168 0 0 1-.112.159l-.03.01a.517.517 0 0 1-.173.03h-.294a.517.517 0 0 1-.172-.03l-.03-.01a.168.168 0 0 1-.113-.159v-.033c0-.049.021-.095.058-.127l.077-.067a.434.434 0 0 1 .284-.106h.086c.104 0 .205.038.284.106l.077.067a.168.168 0 0 1 .058.127Z" class="Rectangle 2803"/>
          <path fill="#354154" stroke="#fff" stroke-width=".028" d="M12.662 60.042v.033a.168.168 0 0 1-.112.159l-.03.01a.52.52 0 0 1-.173.03h-.294a.52.52 0 0 1-.172-.03l-.03-.01a.168.168 0 0 1-.113-.159v-.033c0-.049.021-.095.058-.127l.077-.067a.434.434 0 0 1 .284-.106h.086c.104 0 .205.038.284.106l.077.067a.168.168 0 0 1 .058.127Z" class="Rectangle 2808"/>
          <path fill="#354154" stroke="#fff" stroke-width=".028" d="M12.662 60.574v.033a.168.168 0 0 1-.112.159l-.03.01a.52.52 0 0 1-.173.03h-.294a.52.52 0 0 1-.172-.03l-.03-.01a.168.168 0 0 1-.113-.159v-.033c0-.049.021-.095.058-.127l.077-.067a.434.434 0 0 1 .284-.106h.086c.104 0 .205.038.284.106l.077.067a.168.168 0 0 1 .058.127Z" class="Rectangle 2809"/>
          <rect width=".28" height=".21" x="12.06" y="59.014" fill="#354154" class="Rectangle 2806" rx=".028"/>
          <rect width=".42" height=".154" x="11.99" y="60.806" fill="#354154" stroke="#fff" stroke-width=".028" class="Rectangle 2807" rx=".014"/>
          <path fill="#354154" stroke="#fff" stroke-width=".028" d="M11.262 59.51v.033a.168.168 0 0 1-.112.159l-.03.01a.516.516 0 0 1-.173.03h-.294a.517.517 0 0 1-.172-.03l-.03-.01a.168.168 0 0 1-.113-.159v-.033c0-.049.021-.095.058-.127l.077-.067a.434.434 0 0 1 .284-.106h.086c.104 0 .205.038.284.106l.077.067a.168.168 0 0 1 .058.127Z" class="Rectangle 2803"/>
          <path fill="#354154" stroke="#fff" stroke-width=".028" d="M11.262 60.042v.033a.168.168 0 0 1-.112.159l-.03.01a.518.518 0 0 1-.173.03h-.294a.52.52 0 0 1-.172-.03l-.03-.01a.168.168 0 0 1-.113-.159v-.033c0-.049.021-.095.058-.127l.077-.067a.434.434 0 0 1 .284-.106h.086c.104 0 .205.038.284.106l.077.067a.168.168 0 0 1 .058.127Z" class="Rectangle 2808"/>
          <path fill="#354154" stroke="#fff" stroke-width=".028" d="M11.262 60.574v.033a.168.168 0 0 1-.112.159l-.03.01a.518.518 0 0 1-.173.03h-.294a.52.52 0 0 1-.172-.03l-.03-.01a.168.168 0 0 1-.113-.159v-.033c0-.049.021-.095.058-.127l.077-.067a.434.434 0 0 1 .284-.106h.086c.104 0 .205.038.284.106l.077.067a.168.168 0 0 1 .058.127Z" class="Rectangle 2809"/>
          <rect width=".28" height=".21" x="10.66" y="59.014" fill="#354154" class="Rectangle 2806" rx=".028"/>
          <rect width=".42" height=".154" x="10.59" y="60.806" fill="#354154" stroke="#fff" stroke-width=".028" class="Rectangle 2807" rx=".014"/>
        </g>
        <circle cx="10.601" cy="63.1" r="6.6" stroke="#354154" stroke-width=".4" class="Ellipse 917"/>
      </g>
    </g>
    <g class="Right-circles">
      <animateTransform xmlns="http://www.w3.org/2000/svg" attributeName="transform" type="translate" values="0 3;0 3;0 0;0 0" dur="2.0016s" repeatCount="1" calcMode="spline" keyTimes="0;0.5;1;1" keySplines="0 0 0.15 1;0 0 0.15 1;0.5 0.35 0.15 1" additive="sum" fill="freeze"/>
      <animate xmlns="http://www.w3.org/2000/svg" attributeName="opacity" values="0;0;1;1" dur="2.0016s" repeatCount="1" calcMode="spline" keyTimes="0;0.5;1;1" keySplines="0 0 0.15 1;0 0 0.15 1;0.5 0.35 0.15 1" additive="replace" fill="freeze"/>
      <g class="device">
        <circle cx="130.601" cy="43.599" r="7.524" fill="#fff" stroke="#18469D" stroke-width=".152" class="Ellipse 915"/>
        <g class="Vector">
          <path fill="#18469D" fill-rule="evenodd" d="M128.745 41.8a.417.417 0 0 0-.419.414l-.003.625a.416.416 0 0 0 .414.419l3.75.02a.417.417 0 0 0 .419-.415l.003-.625a.416.416 0 0 0-.414-.419l-3.75-.02Zm.31.522a.21.21 0 0 0-.21.207.21.21 0 0 0 .208.21l3.02.015a.209.209 0 0 0 .003-.416l-3.021-.016Z" clip-rule="evenodd"/>
          <path fill="#18469D" fill-rule="evenodd" d="M128.737 43.258a.417.417 0 0 0-.419.414l-.003.625a.417.417 0 0 0 .415.419l3.75.02a.416.416 0 0 0 .418-.415l.004-.625a.417.417 0 0 0-.415-.419l-3.75-.02Zm.31.522a.208.208 0 1 0-.002.417l3.021.016a.208.208 0 1 0 .002-.417l-3.021-.016Zm-.862 1.184a.208.208 0 0 1 .292.041c.081.107.157.19.248.216.067.019.216.022.483-.235a.208.208 0 0 1 .321.039.497.497 0 0 0 .345.202c.157.021.363-.02.583-.234a.21.21 0 0 1 .323.041c.121.198.547.376.919-.026a.21.21 0 0 1 .33.03c.061.098.17.183.286.202.098.017.246-.008.418-.218a.208.208 0 1 1 .322.265c-.247.3-.534.41-.809.364a.819.819 0 0 1-.412-.204.98.98 0 0 1-1.254-.014c-.256.184-.522.24-.763.206a.952.952 0 0 1-.482-.213c-.258.197-.498.258-.72.197-.245-.067-.396-.268-.47-.367h-.001a.209.209 0 0 1 .041-.292Z" clip-rule="evenodd"/>
        </g>
        <circle cx="130.601" cy="43.599" r="6.6" stroke="#18469D" stroke-width=".4" class="Ellipse 917"/>
      </g>
      <g class="device">
        <circle cx="116.101" cy="31.599" r="7.524" fill="#fff" stroke="#1568E5" stroke-width=".152" class="Ellipse 915"/>
        <path fill="#1568E5" d="M118.102 33.047v.238h-4v-.238l.445-.476v-1.429c0-.738.451-1.388 1.111-1.598v-.069c0-.126.047-.247.13-.336a.429.429 0 0 1 .314-.14.43.43 0 0 1 .315.14c.083.089.13.21.13.337v.069c.66.209 1.111.859 1.111 1.597v1.429l.444.476Zm-1.555.476a.495.495 0 0 1-.13.337.432.432 0 0 1-.315.14.429.429 0 0 1-.314-.14.495.495 0 0 1-.13-.337" class="Vector"/>
        <circle cx="116.102" cy="31.6" r="6.6" stroke="#1568E5" stroke-width=".4" class="Ellipse 917"/>
      </g>
      <g class="device">
        <circle cx="130.601" cy="19.599" r="7.524" fill="#fff" stroke="#3E9AF8" stroke-width=".152" class="Ellipse 915"/>
        <circle cx="130.601" cy="19.599" r="6.6" stroke="#3E9AF8" stroke-width=".4" class="Ellipse 917"/>
        <g class="Vector">
          <path fill="#3E9AF8" d="M128.217 20.66a.205.205 0 0 1 .201-.208l.511-.006a.205.205 0 0 1 .207.203l.014 1.135a.205.205 0 0 1-.202.209l-.511.006a.206.206 0 0 1-.207-.204l-.013-1.134Z"/>
          <path fill="#3E9AF8" fill-rule="evenodd" d="m128.931 20.549-.511.006a.102.102 0 0 0-.101.104l.014 1.135c0 .057.047.103.103.102l.511-.006a.103.103 0 0 0 .101-.105l-.014-1.134a.103.103 0 0 0-.103-.102Zm-.513-.097a.205.205 0 0 0-.201.209l.013 1.134a.206.206 0 0 0 .207.204l.511-.006a.205.205 0 0 0 .202-.209l-.014-1.135a.205.205 0 0 0-.207-.203l-.511.006Z" clip-rule="evenodd"/>
          <path fill="#3E9AF8" d="M129.428 19.408a.205.205 0 0 1 .201-.21l.511-.005a.205.205 0 0 1 .207.203l.029 2.373a.205.205 0 0 1-.202.209l-.51.006a.205.205 0 0 1-.207-.204l-.029-2.372Z"/>
          <path fill="#3E9AF8" fill-rule="evenodd" d="m130.142 19.296-.511.006a.102.102 0 0 0-.101.104l.029 2.373a.103.103 0 0 0 .103.102l.511-.006a.102.102 0 0 0 .101-.105l-.029-2.372a.103.103 0 0 0-.103-.102Zm-.513-.097a.205.205 0 0 0-.201.209l.029 2.372a.205.205 0 0 0 .207.204l.51-.006a.205.205 0 0 0 .202-.209l-.029-2.373a.205.205 0 0 0-.207-.203l-.511.006Z" clip-rule="evenodd"/>
          <path fill="#3E9AF8" d="M130.661 20.012a.206.206 0 0 1 .202-.21l.511-.005a.205.205 0 0 1 .207.203l.021 1.754a.205.205 0 0 1-.201.209l-.511.006a.205.205 0 0 1-.207-.204l-.022-1.753Z"/>
          <path fill="#3E9AF8" fill-rule="evenodd" d="m131.375 19.9-.511.006a.102.102 0 0 0-.1.104l.021 1.754a.103.103 0 0 0 .103.102l.511-.006a.102.102 0 0 0 .101-.105l-.021-1.753a.103.103 0 0 0-.104-.102Zm-.512-.097a.206.206 0 0 0-.202.209l.022 1.753a.205.205 0 0 0 .207.204l.511-.006a.205.205 0 0 0 .201-.209L131.581 20a.205.205 0 0 0-.207-.203l-.511.006Z" clip-rule="evenodd"/>
          <path fill="#3E9AF8" d="M131.872 18.759a.206.206 0 0 1 .202-.21l.511-.005a.205.205 0 0 1 .207.203l.037 2.992a.206.206 0 0 1-.202.209l-.511.006a.205.205 0 0 1-.207-.204l-.037-2.991Z"/>
          <path fill="#3E9AF8" fill-rule="evenodd" d="m132.586 18.647-.511.006a.102.102 0 0 0-.1.104l.036 2.992a.103.103 0 0 0 .104.102l.511-.006a.102.102 0 0 0 .1-.105l-.036-2.991a.103.103 0 0 0-.104-.102Zm-.512-.097a.206.206 0 0 0-.202.209l.037 2.991a.205.205 0 0 0 .207.204l.511-.006a.206.206 0 0 0 .202-.209l-.037-2.992a.205.205 0 0 0-.207-.203l-.511.006Z" clip-rule="evenodd"/>
          <path fill="#3E9AF8" d="M129.12 19.36a.461.461 0 0 1-.454.47.462.462 0 0 1-.465-.459.462.462 0 0 1 .454-.47.462.462 0 0 1 .465.459Z"/>
          <path fill="#3E9AF8" fill-rule="evenodd" d="M128.665 19.727a.359.359 0 0 0 .353-.366.359.359 0 0 0-.362-.357.36.36 0 0 0-.353.366.36.36 0 0 0 .362.357Zm.001.103a.461.461 0 0 0 .454-.47.462.462 0 0 0-.465-.459.462.462 0 0 0-.454.47.462.462 0 0 0 .465.459Z" clip-rule="evenodd"/>
          <path fill="#3E9AF8" d="M130.331 18.107a.461.461 0 0 1-.454.47.462.462 0 0 1-.465-.459.462.462 0 0 1 .454-.47.462.462 0 0 1 .465.459Z"/>
          <path fill="#3E9AF8" fill-rule="evenodd" d="M129.876 18.474a.359.359 0 0 0 .353-.366.359.359 0 0 0-.362-.357.36.36 0 0 0-.353.366.36.36 0 0 0 .362.357Zm.001.103a.461.461 0 0 0 .454-.47.462.462 0 0 0-.465-.459.462.462 0 0 0-.454.47.462.462 0 0 0 .465.459Z" clip-rule="evenodd"/>
          <path fill="#3E9AF8" d="M131.565 18.71a.462.462 0 0 1-.454.47.462.462 0 0 1-.465-.458.461.461 0 0 1 .454-.47.462.462 0 0 1 .465.459Z"/>
          <path fill="#3E9AF8" fill-rule="evenodd" d="M131.11 19.078a.36.36 0 0 0 .353-.366.36.36 0 0 0-.362-.357.359.359 0 0 0-.353.366c.002.2.164.359.362.357Zm.001.103a.462.462 0 0 0 .454-.47.462.462 0 0 0-.465-.459.461.461 0 0 0-.454.47.462.462 0 0 0 .465.459Z" clip-rule="evenodd"/>
          <path fill="#3E9AF8" d="M132.776 17.458a.462.462 0 0 1-.454.47.462.462 0 0 1-.465-.459.461.461 0 0 1 .454-.47.462.462 0 0 1 .465.459Z"/>
          <path fill="#3E9AF8" fill-rule="evenodd" d="M132.321 17.825a.36.36 0 0 0 .353-.366.36.36 0 0 0-.362-.357.358.358 0 0 0-.353.366c.002.2.164.359.362.357Zm.001.103a.462.462 0 0 0 .454-.47.462.462 0 0 0-.465-.459.461.461 0 0 0-.454.47.462.462 0 0 0 .465.459Z" clip-rule="evenodd"/>
          <path fill="#3E9AF8" fill-rule="evenodd" d="M132.46 17.367c.081.08.082.21.003.292l-1.211 1.253a.202.202 0 0 1-.238.04l-1.146-.584-1.055 1.187a.202.202 0 0 1-.288.016.208.208 0 0 1-.016-.292l1.159-1.304a.204.204 0 0 1 .245-.046l1.151.587 1.107-1.145a.203.203 0 0 1 .289-.003Z" clip-rule="evenodd"/>
        </g>
      </g>
      <g class="device">
        <circle cx="116.101" cy="7.599" r="7.524" fill="#fff" stroke="#3E9AF8" stroke-width=".152" class="Ellipse 915"/>
        <path fill="#3E9AF8" d="m114.223 9.405 3.763-.02c.384-.002.622-.436.428-.78l-1.899-3.362a.491.491 0 0 0-.865.005l-1.863 3.381c-.191.346.051.778.436.776Zm1.872-1.825a.254.254 0 0 1-.251-.257l-.003-.519a.255.255 0 0 1 .248-.26.255.255 0 0 1 .252.258l.002.518a.255.255 0 0 1-.248.26Zm.255 1.036-.5.003-.002-.519.499-.002.003.518Z" class="Vector"/>
        <circle cx="116.102" cy="7.6" r="6.6" stroke="#3E9AF8" stroke-width=".4" class="Ellipse 917"/>
      </g>
    </g>
  </g>
  <defs>
    <linearGradient id="b" x1="-179594" x2="-179594" y1="36.493" y2="41.593" class="b" gradientUnits="userSpaceOnUse">
      <stop stop-color="#3E9AF8"/>
      <stop offset="1" stop-color="#51627B"/>
    </linearGradient>
    <clipPath id="a" class="a">
      <path fill="#fff" d="M0 0h141.2v70.8H0z"/>
    </clipPath>
  </defs>
</svg>
