<svg width="331" height="290" fill="none" xmlns="http://www.w3.org/2000/svg"><rect x=".75" y="-.75" width="158.5" height="158.5" rx="39.25" transform="matrix(1 0 0 -1 171 288.244)" fill="#F4F8FE" stroke="#3E9AF8" stroke-width="1.5"/><g clip-path="url(#a)"><path d="M251 269.744v-41.4c0-10.272 8.328-18.6 18.6-18.6H311" stroke="#1A1A1A" stroke-width="3.6"/></g><rect x="103.75" y="1.006" width="158.5" height="158.5" rx="39.25" fill="#F4F8FE" stroke="#3E9AF8" stroke-width="1.5"/><g clip-path="url(#b)"><path fill="#F4F8FE" d="M123 20.256h120v120H123z"/><path d="M243 80.256h-51a9 9 0 0 0-9 9v51M123 80.256h51a9 9 0 0 1 9 9v51M243 80.256h-51a9 9 0 0 1-9-9v-51M123 80.256h51a9 9 0 0 0 9-9v-51" stroke="#1A1A1A" stroke-width="3.6"/><path d="M175.2 80.256h15.6s-7.8 0-7.8 8.4c0-8.4-7.8-8.4-7.8-8.4ZM175.2 80.256h15.6s-7.8 0-7.8-8.4c0 8.4-7.8 8.4-7.8 8.4Z" fill="#1A1A1A"/><path d="M190.8 80.256h-15.6m15.6 0s-7.8 0-7.8 8.4c0-8.4-7.8-8.4-7.8-8.4m15.6 0s-7.8 0-7.8-8.4c0 8.4-7.8 8.4-7.8 8.4" stroke="#1A1A1A" stroke-width="1.2"/></g><rect x=".75" y="68.712" width="158.5" height="158.5" rx="39.25" fill="#F4F8FE" stroke="#3E9AF8" stroke-width="1.5"/><path fill="#F4F8FE" d="M140 87.962v120H20v-120z"/><path d="m62.6 147.962 34.8-17.4v34.8l-34.8-17.4Z" fill="#1A1A1A"/><path d="M140 147.962H20" stroke="#1A1A1A" stroke-width="3.6"/><defs><clipPath id="a"><path fill="#fff" transform="matrix(1 0 0 -1 191 269.744)" d="M0 0h120v120H0z"/></clipPath><clipPath id="b"><path fill="#fff" transform="translate(123 20.256)" d="M0 0h120v120H0z"/></clipPath></defs></svg>