<svg width="246" height="308" viewBox="0 0 246 308" fill="none" xmlns="http://www.w3.org/2000/svg">
<path fill-rule="evenodd" clip-rule="evenodd" d="M42.4334 214H0V212.5H42.4334V214Z" fill="#91A3BE"/>
<path d="M42 214C42 199.555 44.8452 185.251 50.3732 171.905C55.9013 158.559 64.0038 146.433 74.2183 136.218C84.4327 126.004 96.559 117.901 109.905 112.373C123.251 106.845 137.555 104 152 104V105.499C137.751 105.499 123.642 108.305 110.478 113.758C97.3144 119.211 85.3533 127.203 75.2781 137.278C65.2028 147.353 57.2107 159.314 51.758 172.478C46.3053 185.642 43.4988 199.751 43.4988 214H42Z" fill="#91A3BE"/>
<path fill-rule="evenodd" clip-rule="evenodd" d="M151.5 105.5L151.5 23.5L153 23.5L153 105.5L151.5 105.5Z" fill="#91A3BE"/>
<path d="M164 12C164 18.6274 158.627 24 152 24C145.373 24 140 18.6274 140 12C140 5.37258 145.373 0 152 0C158.627 0 164 5.37258 164 12Z" fill="#F4F8FE"/>
<path fill-rule="evenodd" clip-rule="evenodd" d="M152 22.5C157.799 22.5 162.5 17.799 162.5 12C162.5 6.20101 157.799 1.5 152 1.5C146.201 1.5 141.5 6.20101 141.5 12C141.5 17.799 146.201 22.5 152 22.5ZM152 24C158.627 24 164 18.6274 164 12C164 5.37258 158.627 0 152 0C145.373 0 140 5.37258 140 12C140 18.6274 145.373 24 152 24Z" fill="#91A3BE"/>
<rect x="58.75" y="120.75" width="186.5" height="186.5" rx="93.25" stroke="#91A3BE" stroke-width="1.5"/>
<g clip-path="url(#clip0_11711_81034)">
<path fill-rule="evenodd" clip-rule="evenodd" d="M144.089 171.742C144.206 170.196 145.496 169.001 147.047 169.001L157.945 169.001C159.479 169.001 160.76 170.17 160.9 171.698L161.174 174.706L183.325 174.935C184.417 174.947 185.294 175.841 185.282 176.933C185.271 178.026 184.377 178.902 183.284 178.891L182.348 178.881L182.348 182.847C183.43 182.858 184.304 183.739 184.304 184.825C184.304 185.91 183.43 186.791 182.348 186.802C182.348 187.895 181.463 188.78 180.37 188.78C179.278 188.78 178.392 187.895 178.392 186.802C177.31 186.791 176.436 185.91 176.436 184.824C176.436 183.739 177.31 182.858 178.392 182.847L178.392 178.84L161.536 178.666L162.021 183.972L171.804 180.023C172.817 179.615 173.969 180.104 174.378 181.117C174.787 182.13 174.297 183.283 173.284 183.692L162.396 188.086L164.356 209.548L196.023 209.549C197.115 209.549 198.001 210.435 198.001 211.527C198.001 212.619 197.115 213.505 196.023 213.505L195.066 213.505L195.066 217.461C196.149 217.472 197.023 218.353 197.023 219.439C197.023 220.524 196.149 221.405 195.066 221.416C195.066 222.508 194.181 223.394 193.088 223.394C191.996 223.394 191.111 222.509 191.111 221.416C190.028 221.405 189.154 220.524 189.154 219.438C189.154 218.353 190.028 217.472 191.11 217.461L191.11 213.504L164.718 213.504L165.544 222.558L185.511 214.633C186.526 214.23 187.676 214.727 188.079 215.742C188.482 216.757 187.985 217.907 186.97 218.31L165.92 226.664L166.674 234.922L172.121 256.029L195.045 256.029C196.138 256.029 197.023 256.915 197.023 258.007C197.023 259.099 196.138 259.985 195.045 259.985L156.404 259.984C155.311 259.984 154.426 259.099 154.426 258.006C154.426 256.914 155.311 256.029 156.404 256.029L168.036 256.029L167.689 254.684L139.651 247.402L137.054 256.028L141.241 256.028C142.333 256.028 143.218 256.914 143.218 258.006C143.218 259.098 142.333 259.984 141.241 259.984L109.936 259.983C108.844 259.983 107.958 259.098 107.958 258.006C107.958 256.913 108.844 256.028 109.936 256.028L132.923 256.028L139.284 234.897L139.836 227.645L117.012 218.301C116.001 217.887 115.517 216.732 115.931 215.721C116.345 214.71 117.5 214.226 118.511 214.64L140.151 223.5L140.912 213.504L112.891 213.503L112.891 217.459C113.974 217.471 114.848 218.352 114.848 219.437C114.848 220.522 113.974 221.403 112.891 221.415C112.891 222.507 112.006 223.393 110.914 223.393C109.821 223.393 108.936 222.507 108.936 221.415C107.853 221.403 106.979 220.522 106.979 219.437C106.979 218.352 107.853 217.471 108.936 217.459L108.936 213.503L107.979 213.503C106.886 213.503 106.001 212.618 106.001 211.525C106.001 210.433 106.886 209.547 107.978 209.547L141.213 209.548L142.844 188.105L131.707 183.696C130.691 183.294 130.194 182.144 130.596 181.129C130.998 180.113 132.147 179.616 133.163 180.018L143.158 183.975L143.545 178.89L126.586 178.89L126.586 182.846C127.669 182.857 128.543 183.738 128.543 184.824C128.543 185.909 127.669 186.79 126.586 186.801C126.587 187.894 125.701 188.779 124.609 188.779C123.516 188.779 122.631 187.894 122.631 186.801C121.548 186.79 120.674 185.909 120.674 184.824C120.674 183.738 121.548 182.857 122.631 182.846L122.631 178.89L121.674 178.89C120.581 178.89 119.696 178.004 119.696 176.912C119.696 175.819 120.581 174.934 121.674 174.934L143.846 174.934L144.089 171.742ZM147.694 176.501L146.669 189.966L156.5 182.451L147.694 176.501ZM158.243 186.098L148.58 193.485L159.227 196.871L158.243 186.098ZM157.453 200.457L146.145 196.861L145.077 210.895L157.453 200.457ZM144.472 218.851L160.35 228.399L141.751 240.426L143.103 235.934C143.165 235.729 143.204 235.518 143.22 235.304L144.472 218.851ZM143.159 244.226L162.414 231.775L162.742 235.361C162.756 235.521 162.784 235.678 162.824 235.833L166.558 250.304L143.159 244.226ZM161.762 224.633L146.095 215.211L159.843 203.616L161.762 224.633ZM157.538 178.378L157.043 172.956L149.513 172.956L157.538 178.378Z" fill="#305680"/>
<path d="M150.477 258.492C150.477 259.595 149.583 260.489 148.48 260.489C147.377 260.489 146.483 259.595 146.483 258.492C146.483 257.389 147.377 256.495 148.48 256.495C149.583 256.495 150.477 257.389 150.477 258.492Z" fill="#305680"/>
<path fill-rule="evenodd" clip-rule="evenodd" d="M148.48 259.489C149.031 259.489 149.477 259.042 149.477 258.492C149.477 257.941 149.031 257.495 148.48 257.495C147.93 257.495 147.483 257.941 147.483 258.492C147.483 259.042 147.93 259.489 148.48 259.489ZM148.48 260.489C149.583 260.489 150.477 259.595 150.477 258.492C150.477 257.389 149.583 256.495 148.48 256.495C147.377 256.495 146.483 257.389 146.483 258.492C146.483 259.595 147.377 260.489 148.48 260.489Z" fill="#305680"/>
</g>
<defs>
<clipPath id="clip0_11711_81034">
<rect width="92" height="92" fill="white" transform="translate(106 168)"/>
</clipPath>
</defs>
</svg>
