<svg width="273" height="232" viewBox="0 0 273 232" fill="none" xmlns="http://www.w3.org/2000/svg">
<g clip-path="url(#clip0_12977_5384)">
<path fill-rule="evenodd" clip-rule="evenodd" d="M83.4622 38.4677V0.884766L84.7908 0.884766V38.4677H83.4622Z" fill="#91A3BE"/>
<path d="M83.4622 38.0838C96.2563 38.0838 108.925 40.6038 120.745 45.4999C132.566 50.396 143.306 57.5723 152.353 66.6192C161.4 75.666 168.576 86.4062 173.472 98.2265C178.368 110.047 180.888 122.716 180.888 135.51H179.561C179.561 122.89 177.075 110.394 172.246 98.7345C167.416 87.0753 160.338 76.4814 151.414 67.5579C142.49 58.6343 131.897 51.5557 120.237 46.7263C108.578 41.8969 96.082 39.4113 83.4622 39.4113V38.0838Z" fill="#91A3BE"/>
<path fill-rule="evenodd" clip-rule="evenodd" d="M179.56 135.067L252.186 135.067L252.186 136.395L179.56 136.396L179.56 135.067Z" fill="#91A3BE"/>
<path d="M262.372 146.138C256.502 146.138 251.743 141.38 251.743 135.51C251.743 129.64 256.502 124.882 262.372 124.882C268.242 124.882 273 129.64 273 135.51C273 141.38 268.242 146.138 262.372 146.138Z" fill="#F4F8FE"/>
<path fill-rule="evenodd" clip-rule="evenodd" d="M253.072 135.51C253.072 140.646 257.236 144.81 262.372 144.81C267.508 144.81 271.671 140.646 271.671 135.51C271.671 130.374 267.508 126.21 262.372 126.21C257.236 126.21 253.072 130.374 253.072 135.51ZM251.743 135.51C251.743 141.38 256.502 146.138 262.372 146.138C268.242 146.138 273 141.38 273 135.51C273 129.64 268.242 124.882 262.372 124.882C256.502 124.882 251.743 129.64 251.743 135.51Z" fill="#91A3BE"/>
<rect x="166.053" y="52.9192" width="165.178" height="165.178" rx="82.5889" transform="rotate(90 166.053 52.9192)" stroke="#91A3BE" stroke-width="1.32854"/>
<path fill-rule="evenodd" clip-rule="evenodd" d="M76.4567 97.2098C76.5609 95.8324 77.7028 94.7682 79.0765 94.7682L88.7285 94.7684C90.087 94.7684 91.2215 95.8098 91.345 97.1703L91.5883 99.8494L111.206 100.053C112.173 100.064 112.949 100.86 112.939 101.833C112.929 102.806 112.137 103.586 111.17 103.576L110.34 103.568L110.34 107.1C111.299 107.11 112.073 107.895 112.073 108.861C112.073 109.828 111.299 110.612 110.34 110.622C110.34 111.595 109.556 112.384 108.589 112.384C107.622 112.384 106.837 111.595 106.837 110.622C105.879 110.612 105.104 109.827 105.104 108.861C105.104 107.894 105.878 107.11 106.837 107.1L106.837 103.531L91.9086 103.376L92.3378 108.102L101.002 104.585C101.899 104.221 102.92 104.657 103.282 105.559C103.644 106.461 103.21 107.488 102.313 107.852L92.6705 111.766L94.4065 130.88L122.452 130.881C123.419 130.881 124.203 131.669 124.203 132.642C124.203 133.615 123.419 134.404 122.452 134.404L121.604 134.403L121.604 137.927C122.563 137.937 123.337 138.722 123.337 139.688C123.337 140.655 122.563 141.439 121.604 141.45C121.604 142.422 120.82 143.211 119.853 143.211C118.885 143.211 118.101 142.423 118.101 141.45C117.142 141.44 116.368 140.655 116.368 139.688C116.368 138.722 117.142 137.937 118.101 137.927L118.101 134.403L94.7264 134.403L95.4587 142.466L113.141 135.409C114.041 135.05 115.059 135.492 115.416 136.396C115.773 137.3 115.333 138.324 114.434 138.683L95.7909 146.124L96.4588 153.478L101.283 172.276L121.586 172.276C122.553 172.276 123.337 173.065 123.337 174.038C123.337 175.01 122.553 175.799 121.586 175.799L87.3633 175.798C86.396 175.798 85.6117 175.01 85.6117 174.037C85.6117 173.064 86.3959 172.276 87.3633 172.276L97.665 172.276L97.3577 171.078L72.5261 164.592L70.226 172.275L73.9342 172.275C74.9016 172.275 75.6858 173.064 75.6858 174.037C75.6858 175.01 74.9016 175.798 73.9342 175.798L46.2097 175.798C45.2423 175.798 44.458 175.009 44.458 174.036C44.458 173.063 45.2422 172.275 46.2096 172.275L66.5675 172.275L72.2018 153.455L72.6903 146.997L52.4765 138.675C51.5812 138.306 51.1526 137.278 51.5191 136.377C51.8856 135.477 52.9085 135.046 53.8038 135.415L72.9696 143.306L73.6431 134.403L48.8269 134.402L48.827 137.926C49.7857 137.936 50.5598 138.721 50.5598 139.687C50.5598 140.654 49.7858 141.438 48.8271 141.448C48.8271 142.421 48.0429 143.21 47.0755 143.21C46.1081 143.21 45.3239 142.421 45.3239 141.448C44.3651 141.438 43.5911 140.653 43.591 139.687C43.591 138.72 44.3651 137.936 45.3238 137.926L45.3237 134.402L44.4762 134.402C43.5088 134.402 42.7245 133.614 42.7245 132.641C42.7245 131.668 43.5087 130.879 44.4761 130.879L73.9096 130.88L75.3543 111.782L65.4908 107.856C64.5914 107.498 64.1508 106.474 64.5069 105.57C64.8629 104.665 65.8807 104.222 66.7802 104.58L75.6326 108.104L75.9752 103.576L60.9559 103.575L60.956 107.099C61.9147 107.109 62.6888 107.894 62.6888 108.86C62.6888 109.827 61.9148 110.611 60.956 110.621C60.9561 111.594 60.1719 112.383 59.2045 112.383C58.2371 112.383 57.4529 111.594 57.4528 110.622C56.4941 110.611 55.72 109.827 55.72 108.86C55.72 107.894 56.4941 107.109 57.4528 107.099L57.4527 103.575L56.6051 103.575C55.6378 103.575 54.8535 102.787 54.8535 101.814C54.8535 100.841 55.6377 100.052 56.6051 100.052L76.2417 100.053L76.4567 97.2098ZM79.6494 101.448L78.7423 113.44L87.4489 106.747L79.6494 101.448ZM88.992 109.995L80.4339 116.574L89.8633 119.589L88.992 109.995ZM88.2922 122.784L78.2777 119.581L77.3322 132.08L88.2922 122.784ZM76.7962 139.165L90.8582 147.669L74.386 158.38L75.5837 154.379C75.6384 154.197 75.6732 154.008 75.6876 153.818L76.7962 139.165ZM75.633 161.764L92.6865 150.675L92.9765 153.869C92.9894 154.011 93.0136 154.151 93.049 154.289L96.3565 167.177L75.633 161.764ZM92.1088 144.314L78.2338 135.924L90.4089 125.597L92.1088 144.314ZM88.3676 103.12L87.9291 98.2912L81.2603 98.2911L88.3676 103.12Z" fill="#305680"/>
<path d="M82.1143 174.469C82.1143 175.451 81.3225 176.247 80.3458 176.247C79.3692 176.247 78.5774 175.451 78.5774 174.469C78.5774 173.487 79.3692 172.69 80.3458 172.69C81.3225 172.69 82.1143 173.487 82.1143 174.469Z" fill="#305680"/>
<path fill-rule="evenodd" clip-rule="evenodd" d="M80.3458 175.357C80.8334 175.357 81.2287 174.959 81.2287 174.469C81.2287 173.979 80.8334 173.581 80.3458 173.581C79.8583 173.581 79.463 173.979 79.463 174.469C79.463 174.959 79.8583 175.357 80.3458 175.357ZM80.3458 176.247C81.3225 176.247 82.1143 175.451 82.1143 174.469C82.1143 173.487 81.3225 172.69 80.3458 172.69C79.3692 172.69 78.5774 173.487 78.5774 174.469C78.5774 175.451 79.3692 176.247 80.3458 176.247Z" fill="#305680"/>
</g>
<defs>
<clipPath id="clip0_12977_5384">
<rect width="232" height="273" fill="white" transform="matrix(0 1 -1 0 273 0)"/>
</clipPath>
</defs>
</svg>
