<svg width="58" height="36" viewBox="0 0 58 36" fill="none" xmlns="http://www.w3.org/2000/svg">
<path d="M38.4941 15.7441H19.2461V20.0641H38.4941V15.7441Z" fill="#ED6B1E"/>
<path d="M48.095 0H35.375L38.447 4.368L47.759 7.2C49.487 7.728 50.591 9.36 50.543 11.04V24.96C50.543 26.688 49.439 28.272 47.759 28.8L38.495 31.632L35.375 36H48.095C53.423 36 57.695 31.68 57.695 26.4V9.6C57.743 4.32 53.423 0 48.095 0Z" fill="#ED6B1E"/>
<path d="M9.6 0H22.32L19.248 4.368L9.984 7.2C8.256 7.728 7.152 9.36 7.2 11.04V24.96C7.2 26.688 8.304 28.272 9.984 28.8L19.248 31.632L22.32 36H9.6C4.32 36 0 31.68 0 26.4V9.6C0 4.32 4.32 0 9.6 0Z" fill="#ED6B1E"/>
</svg>
