<svg width="140" height="90" viewBox="0 0 140 90" fill="none" xmlns="http://www.w3.org/2000/svg">
<path d="M44.1026 45.8135H48.2097L46.1468 39.889L44.1026 45.8135ZM49.815 50.6825L48.7301 47.4606H43.5601L42.5143 50.6825H40.2344L44.967 37.8521H47.4317L52.0932 50.6825H49.815ZM65.2402 50.6825V44.2958C65.2402 43.7278 65.1283 43.321 64.9046 43.074C64.6808 42.8269 64.3113 42.7042 63.8028 42.7042C63.4163 42.7042 63.0061 42.7681 62.5704 42.8975C62.171 43.0116 61.7881 43.1766 61.4313 43.3883V50.6825H59.2277V44.2958C59.2277 43.7278 59.1159 43.321 58.8921 43.074C58.6684 42.8269 58.2988 42.7042 57.7903 42.7042C57.3952 42.7093 57.0027 42.7687 56.6241 42.8807C56.2071 42.9962 55.8079 43.1675 55.4375 43.3899V50.6841H53.2339V41.2622H55.0646L55.268 42.2067C55.8901 41.7866 56.4783 41.479 57.0309 41.2823C57.5665 41.0884 58.1321 40.9883 58.7023 40.9865C59.86 40.9865 60.6567 41.4118 61.0754 42.2639C62.3213 41.4118 63.5163 40.9865 64.6605 40.9865C65.5419 40.9865 66.2284 41.2218 66.7149 41.6992C67.2014 42.1765 67.4438 42.8622 67.4438 43.7664V50.6909H65.2402V50.6825ZM72.7121 49.4035C73.0647 49.4035 73.4342 49.3278 73.8224 49.1715C74.2312 49.0062 74.612 48.7794 74.9513 48.4992V46.7211C74.3072 46.5866 73.7376 46.5194 73.2562 46.5194C71.9934 46.5194 71.3628 47.0186 71.3628 48.0186C71.3628 48.4505 71.4815 48.7866 71.7272 49.027C71.973 49.2673 72.3036 49.3883 72.7443 49.3883L72.7121 49.4035ZM75.231 50.6808L75.0615 49.7732C74.6313 50.1406 74.1427 50.4348 73.6156 50.6438C73.085 50.8539 72.5595 50.9581 72.0391 50.9581C71.1679 50.9581 70.4627 50.6993 69.9203 50.1799C69.3779 49.6606 69.1067 49.0034 69.1067 48.1631C69.1067 47.2505 69.4389 46.5227 70.1237 45.9782C70.8085 45.4337 71.6832 45.1631 72.8019 45.1631C73.48 45.1631 74.1834 45.2555 74.9682 45.4404V44.3479C74.9682 43.7177 74.8326 43.2807 74.558 43.0336C74.2834 42.7866 73.8054 42.6639 73.1206 42.6639C72.1493 42.6639 71.0357 42.8656 69.7779 43.274V41.7378C70.2457 41.5025 70.8204 41.3176 71.4984 41.1832C72.1709 41.0493 72.8551 40.9817 73.541 40.9815C74.7835 40.9815 75.6988 41.2286 76.287 41.721C76.8752 42.2134 77.1718 42.9866 77.1718 44.0353V50.6825H75.2479L75.231 50.6808ZM78.5872 50.6825V49.069L83.8928 42.9227H78.7635V41.242H86.2507V42.8521L80.9485 48.9984H86.3083V50.6791H78.594L78.5872 50.6825ZM91.8292 49.2371C93.3971 49.2371 94.182 48.1446 94.182 45.9597C94.182 43.7883 93.3971 42.7025 91.8292 42.7025C90.2612 42.7025 89.4764 43.7883 89.4764 45.9597C89.4764 48.1446 90.2612 49.2371 91.8292 49.2371ZM91.8292 50.9598C90.385 50.9598 89.2578 50.5194 88.4492 49.6354C87.6406 48.7513 87.2389 47.5312 87.2389 45.9597C87.2389 44.3883 87.6424 43.1698 88.4526 42.2958C89.2628 41.4218 90.3884 40.9815 91.8326 40.9815C93.2768 40.9815 94.4023 41.4185 95.2126 42.2958C96.0228 43.1731 96.4262 44.3967 96.4262 45.9597C96.4262 47.5228 96.0194 48.753 95.2126 49.6354C94.4057 50.5178 93.2768 50.9598 91.8326 50.9598H91.8292ZM104.546 50.6825V44.4437C104.546 43.8387 104.422 43.3983 104.173 43.1193C103.924 42.8403 103.525 42.7025 102.978 42.7025C102.156 42.7025 101.317 42.9714 100.457 43.516V50.6808H98.2535V41.2571H100.084L100.308 42.2941C101.495 41.4202 102.681 40.9798 103.969 40.9798C104.878 40.9798 105.57 41.2151 106.042 41.6924C106.515 42.1698 106.754 42.8555 106.754 43.7597V50.6841H104.551L104.546 50.6825Z" fill="#22140C"/>
<path d="M117.066 44.8379H111.081V50.0586H117.963V50.9727H110V38.1758H117.919V39.0986H111.081V43.9238H117.066V44.8379Z" fill="#22140C"/>
<path d="M129.31 46.9824C129.163 48.3301 128.68 49.3613 127.859 50.0762C127.045 50.791 125.958 51.1484 124.599 51.1484C123.649 51.1484 122.809 50.9111 122.076 50.4365C121.35 49.9619 120.787 49.291 120.389 48.4238C119.99 47.5508 119.788 46.5547 119.782 45.4355V43.7744C119.782 42.6377 119.981 41.6299 120.38 40.751C120.778 39.8721 121.35 39.1953 122.094 38.7207C122.844 38.2402 123.705 38 124.678 38C126.049 38 127.13 38.3721 127.921 39.1162C128.718 39.8545 129.181 40.877 129.31 42.1836H128.22C127.95 40.0098 126.77 38.9229 124.678 38.9229C123.518 38.9229 122.592 39.3564 121.9 40.2236C121.215 41.0908 120.872 42.2891 120.872 43.8184V45.3828C120.872 46.8594 121.206 48.0371 121.874 48.916C122.548 49.7949 123.456 50.2344 124.599 50.2344C125.729 50.2344 126.582 49.9648 127.156 49.4258C127.73 48.8809 128.085 48.0664 128.22 46.9824H129.31Z" fill="#22140C"/>
<path d="M139.54 50.9727H131.524V50.1641L135.91 45.1895C136.637 44.3516 137.141 43.6602 137.422 43.1152C137.703 42.5703 137.844 42.04 137.844 41.5244C137.844 40.7158 137.606 40.0771 137.132 39.6084C136.657 39.1338 136.004 38.8965 135.172 38.8965C134.311 38.8965 133.613 39.1719 133.08 39.7227C132.553 40.2734 132.289 40.9883 132.289 41.8672H131.243C131.243 41.1465 131.404 40.4902 131.727 39.8984C132.055 39.3066 132.518 38.8438 133.115 38.5098C133.719 38.1699 134.404 38 135.172 38C136.344 38 137.258 38.3076 137.914 38.9229C138.576 39.5381 138.907 40.376 138.907 41.4365C138.907 42.0342 138.72 42.6875 138.345 43.3965C137.976 44.1055 137.322 44.9902 136.385 46.0508L132.816 50.085H139.54V50.9727Z" fill="#22140C"/>
<path d="M5.51587 55.5477L1.66016 56.4285V31.4277L5.51587 32.3102V55.5477Z" fill="#F68536"/>
<path d="M10.3263 57.0234L5.51562 58.3921V29.4983L10.3263 30.8654V57.0234V57.0234ZM16.4974 58.5395L10.3263 60.8007V27.0898L16.4974 29.3499V58.5395ZM32.9979 55.6231L16.4974 63.8834V24L32.9979 32.2603V55.6231Z" fill="#F68536"/>
<path d="M13.2065 25.6468L16.4957 24V63.8834L13.2065 62.237V25.6468V25.6468ZM7.77835 28.3639L10.3246 27.0893V60.7941L7.77835 59.5195V28.3639ZM3.48562 30.5132L5.51387 29.4978V58.3856L3.48562 57.3696V30.5132ZM1.65816 31.4277L0.00390625 32.2559V55.628L1.65816 56.4556V31.4277Z" fill="#9D5025"/>
</svg>
