<svg width="30" height="36" viewBox="0 0 30 36" fill="none" xmlns="http://www.w3.org/2000/svg">
<g clip-path="url(#clip0_13940_48657)">
<path d="M4.96623 28.3926L1.49609 29.1853V6.68457L4.96623 7.47882V28.3926Z" fill="#F68536"/>
<path d="M9.29446 29.7211L4.96484 30.9529V4.94847L9.29446 6.17886V29.7211ZM14.8484 31.0856L9.29446 33.1206V2.78082L14.8484 4.81491V31.0856ZM29.6989 28.4608L14.8484 35.8951V0L29.6989 7.43427V28.4608Z" fill="#F68536"/>
<path d="M11.8862 1.48212L14.8465 0V35.8951L11.8862 34.4133V1.48212ZM7.00091 3.92751L9.29253 2.78037V33.1147L7.00091 31.9676V3.92751ZM3.13745 5.86188L4.96287 4.94802V30.947L3.13745 30.0326V5.86188ZM1.49273 6.68493L0.00390625 7.43031V28.4652L1.49273 29.21V6.68493Z" fill="#9D5025"/>
</g>
<defs>
<clipPath id="clip0_13940_48657">
<rect width="29.7" height="36" fill="white"/>
</clipPath>
</defs>
</svg>
