<svg width="58" height="36" viewBox="0 0 58 36" fill="none" xmlns="http://www.w3.org/2000/svg">
<path d="M17.1133 17.5381L15.5859 23.8257H18.6213L17.1478 17.5381H17.1133Z" fill="#F7981F"/>
<path d="M2.21094 24.3814V25.2966C2.21094 29.846 7.15336 34.4477 13.2461 34.4477H45.7441C51.8368 34.4477 56.7793 29.8447 56.7793 25.2966V24.3814C56.7793 20.1521 52.5011 14.8414 47.0007 14.3743C46.8778 10.5929 43.7666 7.56587 39.9399 7.56587C38.454 7.56587 37.0758 8.0248 35.9379 8.80251C33.756 3.96587 28.8854 0.589844 23.2111 0.589844C15.5067 0.589844 9.26208 6.8019 9.26208 14.4705C9.26208 14.6079 9.27865 14.7384 9.28279 14.873C5.1496 16.0643 2.21094 20.879 2.21094 24.3814ZM19.7477 28.5792L18.9577 25.4532H15.2057L14.3785 28.5792H12.2422L15.8865 15.8239H18.5076L21.8826 28.5792H19.7477ZM32.1928 28.5792H29.8231L28.1715 18.9691H28.1356L26.5019 28.5792H24.1322L21.6534 15.8239H23.7193L25.4054 25.7376H25.4427L27.1288 15.8239H29.2845L31.0079 25.7912H31.0438L32.7134 15.8239H34.742L32.1928 28.5792ZM39.6955 28.8279C36.5179 28.8279 35.7998 26.7214 35.7998 24.9338V24.6301H37.8464V24.9517C37.8464 26.5057 38.5286 27.2917 39.9468 27.2917C41.2394 27.2917 41.8843 26.3793 41.8843 25.4312C41.8843 24.0915 41.2035 23.5021 40.0546 23.164L38.6529 22.6804C36.7845 21.9659 35.978 21.0027 35.978 19.1807C35.978 16.8572 37.5578 15.5711 39.9634 15.5711C43.2487 15.5711 43.5898 17.6074 43.5898 18.9279V19.215H41.5432V18.9471C41.5432 17.7847 41.0226 17.1059 39.748 17.1059C38.8683 17.1059 38.0246 17.5895 38.0246 18.9471C38.0246 20.0367 38.5811 20.5891 39.9468 21.1071L41.3278 21.6086C43.141 22.2503 43.9323 23.2355 43.9323 24.9846C43.9337 27.7039 42.2807 28.8279 39.6955 28.8279Z" fill="#F7981F"/>
<path d="M15.8904 15.8232L12.2461 28.5785H14.3824L15.2096 25.4526H18.9617L19.7516 28.5785H21.8879L18.5129 15.8232H15.8904ZM15.5852 23.8257L17.1112 17.5381H17.1457L18.6178 23.8257H15.5852Z" fill="white"/>
<path d="M31.0428 25.7906H31.0055L29.2821 15.8232H27.1278L25.4417 25.7356H25.4044L23.7182 15.8232H21.6523L24.1312 28.5785H26.5009L28.1332 18.9684H28.1704L29.8221 28.5785H32.1918L34.7396 15.8232H32.7124L31.0428 25.7906Z" fill="white"/>
<path d="M41.3326 21.6128L39.9517 21.1112C38.5873 20.5932 38.0294 20.0408 38.0294 18.9512C38.0294 17.5937 38.8732 17.11 39.7528 17.11C41.0275 17.11 41.5481 17.7888 41.5481 18.9512V19.2192H43.5946V18.932C43.5946 17.6115 43.2535 15.5752 39.9683 15.5752C37.5626 15.5752 35.9828 16.8613 35.9828 19.1848C35.9828 21.0068 36.7893 21.97 38.6577 22.6845L40.0594 23.1682C41.2084 23.5062 41.8892 24.097 41.8892 25.4354C41.8892 26.3821 41.2429 27.2958 39.9517 27.2958C38.5335 27.2958 37.8513 26.5099 37.8513 24.9558V24.6343H35.8047V24.9379C35.8047 26.7256 36.5242 28.832 39.7004 28.832C42.2855 28.832 43.9371 27.708 43.9371 24.9915C43.9371 23.2382 43.1458 22.2531 41.3326 21.6128Z" fill="white"/>
</svg>

