<svg width="140" height="90" viewBox="0 0 140 90" fill="none" xmlns="http://www.w3.org/2000/svg">
<path fill-rule="evenodd" clip-rule="evenodd" d="M112.097 0H27.1343C24.3096 0 22 2.60887 22 5.47875V65.7394C22 68.6081 24.1698 71 26.9944 71H54.4751C55.3757 71 56.1674 71.6085 56.4091 72.4761C59.1664 82.3762 59.6391 84.0004 42 84.0004V90H59.99H77.1876H98V84C80.3628 84 79.0111 82.3766 81.6021 72.4793C81.8301 71.6081 82.6242 71 83.5247 71H112.032C114.856 71 118 68.6081 118 65.7383V5.47875C118 2.60887 114.92 0 112.097 0ZM111 7V64H29V7H111ZM84 25.5L69 17L54 25.5L69 34L84 25.5ZM70 36V53L85 45V27.5L70 36ZM68 36L53 27.5V45L68 53V36Z" fill="#0078D7"/>
</svg>
