<svg width="123" height="36" viewBox="0 0 123 36" fill="none" xmlns="http://www.w3.org/2000/svg">
<g clip-path="url(#clip0_13925_78576)">
<path d="M21.1648 33.524C27.0424 32.4853 31.8974 31.6274 31.9536 31.6151L32.0538 31.5932L26.5047 24.9973C23.4535 21.3683 20.9557 18.3856 20.9557 18.3689C20.9557 18.3364 26.6857 2.56665 26.7182 2.51133C26.7288 2.49202 30.6279 9.21963 36.1708 18.8202L45.6769 35.2889L45.749 35.4153L28.1143 35.4118L10.4787 35.4101L21.1657 33.5231L21.1648 33.524ZM88.7955 31.9277C86.1105 31.7556 84.5493 30.2278 84.1355 27.3689C84.0257 26.6076 84.0257 26.5874 84.0143 21.6502L84.0029 16.8701H86.3794L86.3882 21.493C86.397 25.6602 86.4022 26.1484 86.4426 26.4417C86.6043 27.6314 86.9259 28.4313 87.4741 29.0056C87.9134 29.4648 88.4265 29.7344 89.1381 29.8766C89.4737 29.9442 90.4278 29.9442 90.7336 29.8766C91.4205 29.7367 92.05 29.3952 92.5417 28.8958C93.1233 28.3154 93.5529 27.4918 93.7603 26.5602L93.8306 26.2467L93.8385 21.5843L93.8464 16.9219H96.2721V31.5809H93.871V30.4175C93.871 29.6272 93.8631 29.2585 93.8446 29.2637C93.8297 29.269 93.7682 29.3629 93.7076 29.4736C93.2698 30.2513 92.6271 30.8942 91.8494 31.3324C90.9436 31.8303 90.036 32.0076 88.7955 31.9277ZM116.043 31.9163C115.065 31.8353 114.12 31.5268 113.282 31.0154C111.564 29.953 110.546 28.2004 110.248 25.791C110.146 24.9569 110.133 23.8356 110.219 23.127C110.411 21.543 111.034 19.9889 111.92 18.879C112.234 18.5086 112.578 18.1649 112.948 17.8517C113.715 17.2393 114.612 16.8112 115.571 16.6005C116.127 16.4785 117.107 16.4223 117.698 16.4767C119.183 16.6146 120.544 17.3126 121.469 18.4119C122.408 19.5297 122.924 21.09 122.99 23.0129C123.001 23.3141 123.004 23.8418 122.996 24.186L122.982 24.812L117.783 24.819L112.583 24.8252V25.057C112.583 25.7638 112.755 26.5672 113.052 27.2521C113.308 27.8413 113.749 28.4858 114.109 28.7975C114.849 29.4368 115.771 29.8267 116.745 29.9117C117.113 29.9451 118.049 29.91 118.467 29.845C119.662 29.6615 120.798 29.1935 121.716 28.506C121.823 28.4252 121.926 28.3497 121.945 28.3391C121.971 28.3216 121.977 28.5323 121.977 29.4209L121.976 30.5246L121.73 30.6756C120.67 31.3249 119.481 31.7367 118.246 31.8829C117.87 31.9295 116.492 31.9497 116.043 31.9163ZM120.569 22.6116C120.569 21.4289 120.07 20.1153 119.364 19.4384C118.861 18.9554 118.252 18.6604 117.528 18.5489C117.186 18.4962 116.464 18.5164 116.103 18.5893C115.366 18.7298 114.688 19.0897 114.159 19.6219C113.576 20.1993 113.135 20.9041 112.872 21.6809C112.762 22.0112 112.679 22.3497 112.623 22.6933L112.606 22.8171H120.569V22.6107V22.6116ZM50.0338 31.5467L53.9575 21.2445L57.8706 10.9757H60.3851L60.4888 11.2427C60.8077 12.0592 68.3221 31.5572 68.3221 31.5677C68.3221 31.5739 67.7203 31.5791 66.9849 31.5791H65.6469L64.5636 28.6974L63.4803 25.8156H54.7587L54.7209 25.9131C54.6999 25.9667 54.2377 27.2635 53.693 28.7948L52.702 31.5783H51.3622C50.3008 31.5791 50.025 31.573 50.0338 31.5467ZM62.6852 23.6161C62.6852 23.6117 61.956 21.637 61.066 19.2285C59.3993 14.7215 59.3062 14.4502 59.1744 13.7267C59.1129 13.3877 59.0813 13.3781 59.0444 13.688C59.018 13.9093 58.9047 14.4045 58.8168 14.6785C58.7729 14.8146 58.0235 16.8736 57.1493 19.2531C56.276 21.6326 55.5609 23.5907 55.5609 23.6021C55.5609 23.6144 57.1634 23.6249 59.1226 23.6249C61.0818 23.6249 62.6852 23.6214 62.6852 23.6161ZM69.1313 31.2042V30.8293L73.4758 24.8603L77.8203 18.8905L73.887 18.8782L69.9536 18.865L69.9466 17.8675L69.9396 16.8692H81.3188V17.5435L76.9734 23.545C74.5837 26.8465 72.628 29.5517 72.628 29.5596C72.628 29.5658 74.5608 29.571 76.9216 29.571H81.2143V31.58H69.1313V31.2042ZM101.013 31.5625C101.003 31.5528 100.996 28.2434 100.996 24.207V16.8692H103.371V18.3821C103.371 19.2145 103.381 19.8949 103.393 19.8949C103.405 19.8949 103.463 19.7588 103.521 19.592C103.797 18.8167 104.251 18.1173 104.848 17.5506C105.361 17.0522 106.017 16.7263 106.724 16.6181C106.927 16.5856 107.1 16.5794 107.507 16.59C108.019 16.6031 108.286 16.6409 108.597 16.7419L108.694 16.7744V19.2382L108.414 19.0977C107.918 18.8501 107.429 18.7517 106.841 18.7825C106.351 18.7976 105.872 18.9338 105.447 19.1789C105.022 19.4241 104.664 19.7705 104.406 20.1873C103.874 21.0562 103.535 22.0295 103.412 23.041C103.393 23.2166 103.382 24.6382 103.377 27.44L103.37 31.5809H102.201C101.557 31.5809 101.023 31.5712 101.013 31.5625ZM0 31.5115C0 31.5027 2.61463 26.9659 5.81087 21.4315L11.6209 11.3673L18.3929 5.68811C22.1172 2.56402 25.1737 0.00450428 25.186 0.000114032C25.1983 -0.00427621 25.1491 0.118651 25.0771 0.274065L17.7243 16.035L10.5024 31.515L5.25122 31.5221C2.36336 31.5256 0 31.5212 0 31.5115Z" fill="#0089D6"/>
</g>
<defs>
<clipPath id="clip0_13925_78576">
<rect width="123" height="36" fill="white"/>
</clipPath>
</defs>
</svg>
