<svg width="140" height="90" viewBox="0 0 140 90" fill="none" xmlns="http://www.w3.org/2000/svg">
<path fill-rule="evenodd" clip-rule="evenodd" d="M64.7919 22.8645L45.6959 30.1612V0L64.7919 6.56775V22.8645Z" fill="#804998"/>
<path fill-rule="evenodd" clip-rule="evenodd" d="M28.584 5.10742V24.8095L42.72 30.1612V0.24292L28.584 5.10742ZM30.072 23.3504L29.328 23.1074V6.81067L30.072 6.56767L30.816 6.32467L31.56 6.08167V23.8387L30.816 23.5957L30.072 23.3527V23.3504ZM33.792 24.3235L32.8 24.0805V5.83754L33.792 5.59454L34.784 5.35042L35.776 5.10742V25.0537L34.784 24.8107L33.792 24.3247V24.3235ZM38.256 25.7827L37.016 25.2955V4.62142L38.256 4.37842L39.496 3.89242L40.984 3.40529V26.5139L39.496 26.0279L38.256 25.7849V25.7827Z" fill="#804998"/>
<path fill-rule="evenodd" clip-rule="evenodd" d="M109.184 22.8645L90.0879 30.1612V0L109.184 6.56775V22.8645Z" fill="#804998"/>
<path fill-rule="evenodd" clip-rule="evenodd" d="M72.976 5.10742V24.8095L87.1119 30.1612V0.24292L72.976 5.10742ZM74.464 23.3504L73.72 23.1074V6.81067L74.464 6.56767L75.2079 6.32467L75.9508 6.08167V23.8387L75.2079 23.5957L74.464 23.3527V23.3504ZM78.1839 24.3235L77.192 24.0805V5.83754L78.1839 5.59454L79.1759 5.35042L80.1679 5.10742V25.0537L79.1759 24.8107L78.1839 24.3247V24.3235ZM82.6479 25.7827L81.4079 25.2955V4.62142L82.6479 4.37842L83.8879 3.89242L85.3759 3.40529V26.5139L83.8879 26.0279L82.6479 25.7849V25.7827Z" fill="#804998"/>
<path fill-rule="evenodd" clip-rule="evenodd" d="M64.7919 82.7021L45.6959 90V59.8376L64.7919 66.4054V82.7021Z" fill="#804998"/>
<path fill-rule="evenodd" clip-rule="evenodd" d="M28.584 64.9451V84.6483L42.72 89.9999V60.0806L28.584 64.9451ZM30.072 83.1881L29.328 82.9451V66.6483L30.072 66.4053L30.816 66.1623L31.56 65.9193V83.6752L30.816 83.4322L30.072 83.1892V83.1881ZM33.792 84.1612L32.8 83.9182V65.6752L33.792 65.4322L34.784 65.1892L35.776 64.9462V84.8924L34.784 84.6494L33.792 84.1634V84.1612ZM38.256 85.6203L37.016 85.1343V64.4591L38.256 64.2161L39.496 63.7301L40.984 63.2441V86.3527L39.496 85.8667L38.256 85.6237V85.6203Z" fill="#804998"/>
<path fill-rule="evenodd" clip-rule="evenodd" d="M109.184 82.7021L90.0879 90V59.8376L109.184 66.4054V82.7021Z" fill="#804998"/>
<path fill-rule="evenodd" clip-rule="evenodd" d="M72.976 64.9451V84.6483L87.1119 89.9999V60.0806L72.976 64.9451V64.9451ZM74.464 83.1881L73.72 82.9451V66.6483L74.464 66.4053L75.2079 66.1623L75.9508 65.9193V83.6752L75.2079 83.4322L74.464 83.1892V83.1881ZM78.1839 84.1612L77.192 83.9182V65.6752L78.1839 65.4322L79.1759 65.1892L80.1679 64.9462V84.8924L79.1759 84.6494L78.1839 84.1634V84.1612ZM82.6479 85.6203L81.4079 85.1343V64.4591L82.6479 64.2161L83.8879 63.7301L85.3759 63.2441V86.3527L83.8879 85.8667L82.6479 85.6237V85.6203Z" fill="#804998"/>
<path fill-rule="evenodd" clip-rule="evenodd" d="M88.352 52.7839L69.504 59.8388V29.9194L88.352 36.4872V52.7839Z" fill="#804998"/>
<path fill-rule="evenodd" clip-rule="evenodd" d="M52.144 34.7839V54.4861L66.28 59.8388V29.9194L52.144 34.7839V34.7839ZM53.632 53.0269L52.8892 52.7839V36.4872L53.632 36.2442L54.376 36.0012L55.12 35.7582V53.5152L54.376 53.2722L53.632 53.0292V53.0269ZM57.352 54.2431L56.36 54.0001V35.7571L57.352 35.5141L58.344 35.2711L59.336 35.0269V54.9732L58.344 54.7302L57.352 54.2442V54.2431ZM61.816 55.7022L60.576 55.2162V34.5409L61.816 34.2979L63.056 33.8108L64.544 33.3248V56.4334L63.056 55.9474L61.816 55.7044V55.7022Z" fill="#804998"/>
<path fill-rule="evenodd" clip-rule="evenodd" d="M44.208 52.7839L25.36 59.8388V29.9194L44.208 36.4872V52.7839Z" fill="#804998"/>
<path fill-rule="evenodd" clip-rule="evenodd" d="M8 34.7839V54.4861L22.136 59.8377V29.9194L8 34.7839ZM9.488 53.0269L8.744 52.7839V36.4872L9.488 36.2442L10.232 36.0012L10.976 35.7582V53.5152L10.232 53.2722L9.48913 53.0292L9.488 53.0269ZM13.208 54.2431L12.216 54.0001V35.7571L13.208 35.5141L14.2 35.2711L15.192 35.0269V54.9732L14.2 54.7302L13.208 54.2442V54.2431ZM17.672 55.7022L16.432 55.2162V34.5409L17.672 34.2979L18.912 33.8108L20.4 33.3248V56.4334L18.912 55.9474L17.672 55.7044V55.7022Z" fill="#804998"/>
<path fill-rule="evenodd" clip-rule="evenodd" d="M132 52.7839L113.152 59.8388V29.9194L132 36.4872V52.7839Z" fill="#804998"/>
<path opacity="0.2" fill-rule="evenodd" clip-rule="evenodd" d="M64.7918 22.8645L45.6958 30.1612V0L64.7918 6.56775V22.8645Z" fill="white"/>
<path opacity="0.2" fill-rule="evenodd" clip-rule="evenodd" d="M109.184 22.8645L90.0879 30.1612V0L109.184 6.56775V22.8645Z" fill="white"/>
<path opacity="0.2" fill-rule="evenodd" clip-rule="evenodd" d="M64.7918 82.7021L45.6958 90V59.8376L64.7918 66.4054V82.7021Z" fill="white"/>
<path opacity="0.2" fill-rule="evenodd" clip-rule="evenodd" d="M109.184 82.7021L90.0879 90V59.8376L109.184 66.4054V82.7021Z" fill="white"/>
<path opacity="0.2" fill-rule="evenodd" clip-rule="evenodd" d="M88.3521 52.7839L69.5042 59.8388V29.9194L88.3521 36.4872V52.7839Z" fill="white"/>
<path opacity="0.2" fill-rule="evenodd" clip-rule="evenodd" d="M44.2081 52.7839L25.3601 59.8388V29.9194L44.2081 36.4872V52.7839Z" fill="white"/>
<path opacity="0.2" fill-rule="evenodd" clip-rule="evenodd" d="M132 52.7839L113.152 59.8388V29.9194L132 36.4872V52.7839Z" fill="white"/>
<path fill-rule="evenodd" clip-rule="evenodd" d="M95.792 34.7839V54.4861L109.928 59.8377V29.9194L95.792 34.7839V34.7839ZM97.28 53.0269L96.536 52.7839V36.4872L97.28 36.2442L98.024 36.0012L98.768 35.7582V53.5152L98.024 53.2722L97.28 53.0292V53.0269ZM101 54.2431L100.008 54.0001V35.7571L101 35.5141L101.992 35.2711L102.984 35.0269V54.9732L101.992 54.7302L101 54.2442V54.2431ZM105.464 55.7022L104.224 55.2162V34.5409L105.464 34.2979L106.704 33.8108L108.192 33.3248V56.4334L106.704 55.9474L105.464 55.7044V55.7022Z" fill="#804998"/>
</svg>
