<svg xmlns="http://www.w3.org/2000/svg" fill="none" viewBox="0 0 140 41"><defs/><path fill="#0089D6" d="M24.09 38.18c6.69-1.183 12.216-2.16 12.28-2.174l.114-.025-6.316-7.512c-3.473-4.133-6.316-7.53-6.316-7.549 0-.037 6.522-17.997 6.559-18.06.012-.022 4.45 7.64 10.759 18.574L51.99 40.19l.082.144L32 40.33l-20.073-.002 12.164-2.149zm76.978-1.818c-3.056-.196-4.833-1.936-5.304-5.192-.125-.867-.125-.89-.138-6.513l-.013-5.444h2.705l.01 5.265c.01 4.746.016 5.302.062 5.636.184 1.355.55 2.266 1.174 2.92.5.523 1.084.83 1.894.992.382.077 1.468.077 1.816 0a4.01 4.01 0 002.058-1.117c.662-.661 1.151-1.599 1.387-2.66l.08-.357.009-5.31.009-5.31h2.761v16.695h-2.733v-1.325c0-.9-.009-1.32-.03-1.314-.017.006-.087.113-.156.239a5.56 5.56 0 01-2.115 2.117c-1.031.567-2.064.769-3.476.678zm31.014-.013a7.164 7.164 0 01-3.143-1.026c-1.956-1.21-3.114-3.206-3.453-5.95-.117-.95-.131-2.227-.033-3.034.218-1.804.927-3.574 1.936-4.838a9.912 9.912 0 011.17-1.17 7.29 7.29 0 012.985-1.425c.633-.139 1.748-.203 2.421-.141 1.69.157 3.239.952 4.292 2.204 1.069 1.273 1.657 3.05 1.732 5.24.012.343.015.944.006 1.336l-.015.713-5.918.008-5.919.007v.264c0 .805.196 1.72.534 2.5.291.671.793 1.405 1.203 1.76a5.291 5.291 0 003.001 1.269c.418.038 1.484-.002 1.96-.076 1.36-.209 2.653-.742 3.697-1.525.122-.092.24-.178.261-.19.03-.02.037.22.037 1.232l-.001 1.257-.28.172a9.8 9.8 0 01-3.966 1.375c-.428.053-1.996.076-2.507.038zm5.151-10.597c0-1.347-.568-2.843-1.371-3.614-.573-.55-1.266-.886-2.09-1.013-.39-.06-1.211-.037-1.622.046a4.239 4.239 0 00-2.213 1.176 6.027 6.027 0 00-1.465 2.345 7.438 7.438 0 00-.283 1.153l-.02.141h9.064v-.235zM56.949 35.928l4.466-11.733 4.454-11.695h2.862l.118.304c.363.93 8.916 23.136 8.916 23.148 0 .007-.685.013-1.522.013H74.72l-1.233-3.282-1.233-3.282h-9.927l-.043.111c-.024.061-.55 1.538-1.17 3.282l-1.128 3.17h-1.525c-1.208.001-1.523-.006-1.513-.036zm14.4-9.032c0-.005-.83-2.254-1.843-4.997-1.897-5.133-2.003-5.442-2.153-6.266-.07-.386-.106-.397-.148-.044-.03.252-.159.816-.259 1.128-.05.155-.903 2.5-1.898 5.21-.994 2.71-1.808 4.94-1.808 4.953 0 .014 1.824.026 4.054.026 2.23 0 4.055-.004 4.055-.01zm7.337 8.642v-.427l4.945-6.798 4.945-6.799-4.477-.014-4.477-.015-.008-1.136-.008-1.137h12.952v.768l-4.946 6.835c-2.72 3.76-4.946 6.841-4.946 6.85 0 .007 2.2.013 4.887.013h4.886v2.288H78.686v-.428zm36.288.408c-.011-.011-.019-3.78-.019-8.377v-8.357H117.658v1.723c0 .948.011 1.723.025 1.723.014 0 .08-.155.146-.345a5.957 5.957 0 011.51-2.325 3.916 3.916 0 012.136-1.062c.231-.037.427-.044.891-.032.582.015.886.058 1.24.173l.111.037V21.91l-.319-.16c-.564-.282-1.121-.394-1.79-.359a3.384 3.384 0 00-2.772 1.6 8.083 8.083 0 00-1.131 3.25c-.022.2-.035 1.819-.04 5.01l-.008 4.716h-1.331c-.733 0-1.341-.01-1.352-.02zM0 35.888c0-.01 2.976-5.177 6.614-11.48l6.613-11.462 7.708-6.468C25.174 2.92 28.653.005 28.667 0c.014-.005-.042.135-.124.312l-8.369 17.95-8.22 17.63-5.977.008C2.69 35.904 0 35.899 0 35.888z"/></svg>