<svg xmlns="http://www.w3.org/2000/svg" fill="none" viewBox="0 0 107 80"><defs/><path fill="#0080FF" d="M53.48 53.533v-10.38c10.987 0 19.516-10.896 15.297-22.46-1.548-4.25-4.977-7.68-9.257-9.228-11.564-4.188-22.46 4.31-22.46 15.298H26.71C26.71 9.25 43.646-4.41 62.009 1.328c8.013 2.52 14.417 8.893 16.906 16.906 5.736 18.363-7.922 35.3-25.435 35.3z"/><path fill="#0080FF" fill-rule="evenodd" d="M53.51 43.214H43.16v-10.35h10.35v10.35zM43.16 51.135H35.24v-7.921h7.921v7.921zM35.239 43.214h-6.647v-6.648h6.647v6.648z" clip-rule="evenodd"/><path fill="#0080FF" d="M9.227 64.035c-1.336-.941-3.035-1.396-4.978-1.396H0v13.506h4.28c1.942 0 3.642-.485 4.977-1.487.729-.516 1.306-1.244 1.73-2.155.395-.91.607-2.003.607-3.187 0-1.184-.212-2.246-.607-3.157-.425-.91-1.001-1.639-1.76-2.124zm-6.738.88h1.335c1.488 0 2.702.304 3.643.88 1.032.638 1.548 1.821 1.548 3.521 0 1.76-.516 3.005-1.548 3.673-.88.576-2.095.88-3.612.88H2.489v-8.954zM14.539 62.457c-.425 0-.76.151-1.063.425a1.395 1.395 0 00-.425 1.032c0 .424.152.758.425 1.062.273.273.638.425 1.063.425.394 0 .758-.152 1.062-.425.273-.273.425-.638.425-1.063 0-.424-.152-.758-.425-1.031a1.572 1.572 0 00-1.062-.425zM15.722 66.615h-2.397v9.53h2.397v-9.53zM24.433 67.404c-.728-.637-1.517-1.032-2.398-1.032-1.335 0-2.428.455-3.277 1.366-.85.88-1.306 2.033-1.306 3.43 0 1.335.425 2.488 1.275 3.399.85.88 1.973 1.336 3.278 1.336.91 0 1.73-.243 2.368-.76v.213c0 .79-.213 1.396-.638 1.821-.425.425-1.001.638-1.73.638-1.092 0-1.79-.425-2.64-1.579l-1.64 1.579.03.06c.365.486.881.972 1.61 1.427.698.455 1.608.698 2.67.698 1.427 0 2.58-.425 3.43-1.305.85-.88 1.275-2.034 1.275-3.46v-8.65h-2.367v.819h.06zm-.637 5.645c-.425.486-.971.698-1.64.698-.697 0-1.213-.242-1.638-.698-.425-.485-.607-1.092-.607-1.851 0-.79.212-1.396.607-1.882s.971-.698 1.639-.698c.698 0 1.214.243 1.639.698.425.486.637 1.123.637 1.882 0 .759-.212 1.366-.637 1.851zM31.232 66.615h-2.398v9.53h2.398v-9.53zM30.048 62.457c-.425 0-.758.151-1.062.425a1.395 1.395 0 00-.425 1.032c0 .424.152.758.425 1.062.273.273.637.425 1.062.425.395 0 .76-.152 1.063-.425.273-.273.425-.638.425-1.063 0-.424-.152-.758-.425-1.031-.304-.274-.638-.425-1.063-.425zM36.483 64.035h-2.367v2.58H32.75V68.8h1.366v3.946c0 1.244.242 2.125.728 2.64.486.517 1.366.76 2.58.76.395 0 .79 0 1.153-.031h.122V73.93l-.82.03c-.576 0-.94-.091-1.123-.304-.182-.212-.273-.637-.273-1.274V68.77h2.246v-2.186h-2.246v-2.55zM52.357 62.608h-2.398v13.537h2.398V62.608zM76.578 72.746c-.425.486-.88.91-1.214 1.123-.334.212-.759.334-1.245.334-.698 0-1.274-.243-1.73-.79-.455-.515-.698-1.213-.698-2.003 0-.82.243-1.487.698-2.003.456-.516 1.032-.789 1.73-.789.76 0 1.579.486 2.277 1.305l1.578-1.517c-1.032-1.336-2.337-1.973-3.915-1.973-1.305 0-2.459.485-3.4 1.426-.94.941-1.396 2.125-1.396 3.551 0 1.427.486 2.61 1.396 3.552.941.94 2.064 1.426 3.4 1.426 1.73 0 3.126-.759 4.097-2.125l-1.578-1.517zM86.442 67.95c-.334-.485-.789-.85-1.366-1.123a4.591 4.591 0 00-1.973-.425c-1.335 0-2.428.486-3.247 1.457-.79.972-1.214 2.155-1.214 3.582 0 1.457.455 2.64 1.305 3.551.88.91 2.033 1.366 3.46 1.366 1.609 0 2.944-.668 3.946-1.943l.06-.06-1.578-1.518c-.152.182-.364.364-.546.546-.243.213-.456.395-.698.516a2.647 2.647 0 01-1.214.273c-.668 0-1.215-.182-1.64-.576-.394-.364-.637-.85-.697-1.457h6.343l.03-.88c0-.607-.09-1.214-.242-1.76a5.154 5.154 0 00-.729-1.549zm-5.25 2.246c.12-.455.333-.85.637-1.123.334-.333.758-.485 1.244-.485.577 0 1.032.152 1.336.485.273.304.455.668.485 1.123h-3.703zM95.639 67.343c-.729-.607-1.73-.94-2.975-.94-.789 0-1.548.181-2.215.515a3.927 3.927 0 00-1.64 1.518l.031.03 1.548 1.457c.637-1.001 1.335-1.366 2.276-1.366.516 0 .91.122 1.245.395.303.273.485.607.485 1.032v.455a6.064 6.064 0 00-1.76-.273c-1.184 0-2.155.273-2.883.82-.729.546-1.093 1.365-1.093 2.397 0 .91.303 1.609.94 2.155.638.516 1.397.79 2.308.79.91 0 1.76-.365 2.55-1.002v.789h2.367v-6.131c-.092-1.123-.456-2.034-1.184-2.64zm-4.25 5.16c.274-.182.668-.273 1.154-.273.577 0 1.184.121 1.821.334v.94c-.516.486-1.214.73-2.064.73-.425 0-.728-.092-.971-.274-.213-.182-.334-.395-.334-.698 0-.334.121-.577.394-.759zM105.958 67.525c-.667-.758-1.608-1.123-2.792-1.123-.941 0-1.73.273-2.307.82v-.577h-2.337v9.5h2.398v-5.25c0-.729.182-1.306.516-1.7.334-.395.789-.607 1.427-.607.546 0 .94.182 1.244.546.303.364.455.88.455 1.487v5.524h2.398v-5.524c0-1.305-.334-2.367-1.002-3.096zM46.954 67.343c-.728-.607-1.73-.94-2.974-.94-.79 0-1.548.181-2.216.515a3.927 3.927 0 00-1.639 1.518l.03.03 1.548 1.457c.638-1.001 1.336-1.366 2.277-1.366.516 0 .91.122 1.244.395.304.273.486.607.486 1.032v.455a6.065 6.065 0 00-1.76-.273c-1.184 0-2.155.273-2.884.82-.728.546-1.093 1.365-1.093 2.397 0 .91.304 1.609.941 2.155.638.516 1.397.79 2.307.79.91 0 1.76-.365 2.55-1.002v.789h2.367v-6.131c-.09-1.123-.455-2.034-1.184-2.64zm-4.249 5.16c.273-.182.668-.273 1.154-.273.576 0 1.183.121 1.82.334v.94c-.515.486-1.213.73-2.063.73-.425 0-.729-.092-.972-.274-.212-.182-.333-.395-.333-.698 0-.334.121-.577.394-.759zM61.068 76.358a6.982 6.982 0 010-13.962 6.982 6.982 0 010 13.962zm0-11.504a4.534 4.534 0 00-4.522 4.523 4.534 4.534 0 004.522 4.522 4.534 4.534 0 004.523-4.522 4.534 4.534 0 00-4.523-4.523z"/></svg>