<svg width="33" height="36" viewBox="0 0 33 36" fill="none" xmlns="http://www.w3.org/2000/svg">
<g clip-path="url(#clip0_13940_48765)">
<path d="M12.5508 12.3574H14.025V16.717L18.2699 12.3574H20.2158L15.5581 17.1608L20.5104 22.7033H18.6239L14.025 17.5304V22.7033H12.5509L12.5508 12.3574Z" fill="#4060DB"/>
<path d="M17.1688 8.25142L24.4288 12.4541C24.4896 12.4895 24.5401 12.5402 24.5752 12.6012C24.6103 12.6622 24.6288 12.7314 24.6289 12.8018V21.2075C24.6289 21.3508 24.7056 21.4834 24.8294 21.5551L31.308 25.3058C31.5751 25.4606 31.9087 25.2667 31.9087 24.9583V8.58716C31.9087 8.44392 31.8325 8.31148 31.7091 8.23957L17.5699 0.0543091C17.3029 -0.100207 16.9688 0.0934357 16.9688 0.402467V7.90383C16.9688 8.04745 17.0448 8.17951 17.1688 8.25142Z" fill="#4060DB"/>
<path d="M23.413 23.3146L16.153 27.5174C16.0293 27.5893 15.8763 27.5893 15.7526 27.5174L7.47958 22.7281C7.41868 22.6928 7.36811 22.642 7.33293 22.5809C7.29773 22.5198 7.27915 22.4506 7.27905 22.38V12.8013C7.2792 12.7308 7.29781 12.6616 7.333 12.6006C7.3682 12.5396 7.41876 12.4889 7.47963 12.4536L14.7396 8.2512C14.8005 8.21596 14.851 8.16537 14.8863 8.10436C14.9214 8.04335 14.94 7.97419 14.94 7.90371V0.402257C14.94 0.0933205 14.6061 -0.0999429 14.339 0.0540992L0.199656 8.23984C0.0758692 8.31174 0 8.44419 0 8.58752V26.5948C0 26.7384 0.0763032 26.8705 0.199656 26.943L15.7526 35.946C15.8763 36.018 16.0293 36.018 16.153 35.946L30.2923 27.761C30.5593 27.6064 30.5593 27.22 30.2923 27.0655L23.8136 23.3146C23.6893 23.2427 23.5368 23.2427 23.413 23.3146Z" fill="#2777FF"/>
</g>
<defs>
<clipPath id="clip0_13940_48765">
<rect width="32.2105" height="36" fill="white"/>
</clipPath>
</defs>
</svg>
