<svg width="141" height="90" viewBox="0 0 141 90" fill="none" xmlns="http://www.w3.org/2000/svg">
<path d="M45.1026 45.8133H49.2097L47.1468 39.8889L45.1026 45.8133ZM50.815 50.6823L49.7301 47.4604H44.5601L43.5143 50.6823H41.2344L45.967 37.8519H48.4317L53.0932 50.6823H50.815ZM66.2402 50.6823V44.2957C66.2402 43.7276 66.1283 43.3209 65.9046 43.0738C65.6808 42.8267 65.3113 42.7041 64.8028 42.7041C64.4163 42.7041 64.0061 42.7679 63.5704 42.8973C63.171 43.0115 62.7881 43.1764 62.4313 43.3881V50.6823H60.2277V44.2957C60.2277 43.7276 60.1159 43.3209 59.8921 43.0738C59.6684 42.8267 59.2988 42.7041 58.7903 42.7041C58.3952 42.7091 58.0027 42.7685 57.6241 42.8805C57.2071 42.996 56.8079 43.1673 56.4375 43.3898V50.684H54.2339V41.262H56.0646L56.268 42.2066C56.8901 41.7864 57.4783 41.4788 58.0309 41.2822C58.5665 41.0882 59.1321 40.9881 59.7023 40.9864C60.86 40.9864 61.6567 41.4116 62.0754 42.2637C63.3213 41.4116 64.5163 40.9864 65.6605 40.9864C66.5419 40.9864 67.2284 41.2217 67.7149 41.699C68.2014 42.1763 68.4438 42.862 68.4438 43.7662V50.6907H66.2402V50.6823ZM73.7121 49.4033C74.0647 49.4033 74.4342 49.3277 74.8224 49.1714C75.2312 49.006 75.612 48.7792 75.9513 48.4991V46.7209C75.3072 46.5865 74.7376 46.5192 74.2562 46.5192C72.9934 46.5192 72.3628 47.0184 72.3628 48.0184C72.3628 48.4503 72.4815 48.7865 72.7272 49.0268C72.973 49.2672 73.3036 49.3882 73.7443 49.3882L73.7121 49.4033ZM76.231 50.6806L76.0615 49.773C75.6314 50.1405 75.1427 50.4347 74.6156 50.6436C74.085 50.8537 73.5595 50.9579 73.0391 50.9579C72.1679 50.9579 71.4627 50.6991 70.9203 50.1798C70.3779 49.6604 70.1067 49.0033 70.1067 48.1629C70.1067 47.2503 70.4389 46.5226 71.1237 45.978C71.8085 45.4335 72.6832 45.1629 73.8019 45.1629C74.48 45.1629 75.1834 45.2553 75.9682 45.4402V44.3478C75.9682 43.7175 75.8326 43.2805 75.558 43.0335C75.2834 42.7864 74.8054 42.6637 74.1206 42.6637C73.1493 42.6637 72.0357 42.8654 70.7779 43.2738V41.7377C71.2457 41.5024 71.8204 41.3175 72.4984 41.183C73.1709 41.0491 73.8551 40.9816 74.541 40.9813C75.7835 40.9813 76.6988 41.2284 77.287 41.7208C77.8752 42.2133 78.1718 42.9864 78.1718 44.0352V50.6823H76.2479L76.231 50.6806ZM79.5872 50.6823V49.0688L84.8928 42.9225H79.7635V41.2418H87.2507V42.8519L81.9485 48.9982H87.3083V50.6789H79.594L79.5872 50.6823ZM92.8292 49.2369C94.3971 49.2369 95.182 48.1445 95.182 45.9596C95.182 43.7881 94.3971 42.7024 92.8292 42.7024C91.2612 42.7024 90.4764 43.7881 90.4764 45.9596C90.4764 48.1445 91.2612 49.2369 92.8292 49.2369ZM92.8292 50.9596C91.385 50.9596 90.2578 50.5193 89.4492 49.6352C88.6406 48.7512 88.2389 47.531 88.2389 45.9596C88.2389 44.3881 88.6424 43.1696 89.4526 42.2956C90.2628 41.4217 91.3884 40.9813 92.8326 40.9813C94.2768 40.9813 95.4023 41.4183 96.2126 42.2956C97.0228 43.173 97.4262 44.3965 97.4262 45.9596C97.4262 47.5226 97.0194 48.7529 96.2126 49.6352C95.4057 50.5176 94.2768 50.9596 92.8326 50.9596H92.8292ZM105.546 50.6823V44.4436C105.546 43.8385 105.422 43.3982 105.173 43.1192C104.924 42.8402 104.525 42.7024 103.978 42.7024C103.156 42.7024 102.317 42.9713 101.457 43.5158V50.6806H99.2535V41.257H101.084L101.308 42.294C102.495 41.42 103.681 40.9797 104.969 40.9797C105.878 40.9797 106.57 41.215 107.042 41.6923C107.515 42.1696 107.754 42.8553 107.754 43.7595V50.684H105.551L105.546 50.6823ZM112.173 50.6823V37.8502H119.811V38.8317H113.275V43.5377H118.877V44.5192H113.275V49.684H119.811V50.6655H112.173V50.6823ZM122.015 50.6655V37.8502H123.117V43.7931L129.055 37.8502H130.475L124.2 44.1074L130.98 50.6621H129.467L123.1 44.5158V50.6621H121.998L122.015 50.6655ZM134.565 44.2032C133.608 43.8335 132.904 43.3915 132.455 42.8805C132.006 42.3696 131.782 41.7376 131.782 40.9813C131.782 39.9729 132.152 39.1275 132.892 38.4906C133.633 37.8536 134.608 37.5376 135.815 37.5376C136.396 37.5414 136.975 37.6067 137.542 37.7326C138.145 37.862 138.715 38.0452 139.251 38.2788V39.2233C137.979 38.7796 136.854 38.5561 135.871 38.5561C134.911 38.5561 134.176 38.7628 133.667 39.178C133.159 39.5931 132.901 40.1813 132.901 40.946C132.901 41.378 132.979 41.7276 133.135 41.9914C133.291 42.2553 133.545 42.4956 133.901 42.7141C134.257 42.9326 134.762 43.1629 135.423 43.4083L137.423 44.1679C138.322 44.5125 138.973 44.936 139.385 45.4352C139.796 45.9343 140 46.5612 140 47.3142C140.016 47.8217 139.914 48.326 139.702 48.7882C139.49 49.2504 139.174 49.6581 138.778 49.9798C137.964 50.6588 136.888 50.9983 135.557 50.9983C134.176 50.9983 132.943 50.7394 131.862 50.2218V49.2772C133.167 49.7478 134.37 49.9831 135.466 49.9831C136.483 49.9831 137.323 49.7428 137.94 49.2604C138.557 48.7781 138.864 48.1243 138.864 47.2974C138.874 46.8164 138.692 46.351 138.359 46.0016C138.023 45.6436 137.481 45.3226 136.735 45.0385L134.569 44.2049" fill="#252D40"/>
<path d="M13.2461 39.044H14.8022V43.6458L19.2829 39.044H21.337L16.4205 44.1142L21.6479 49.9646H19.6566L14.8022 44.5044V49.9646H13.2462V39.044" fill="#4060DB"/>
<path d="M18.1214 34.7102L25.7847 39.1464C25.8489 39.1837 25.9022 39.2372 25.9392 39.3016C25.9763 39.366 25.9958 39.4391 25.9959 39.5134V48.3861C25.9959 48.5373 26.0769 48.6773 26.2075 48.753L33.0461 52.7121C33.328 52.8754 33.6802 52.6708 33.6802 52.3452V35.0646C33.6802 34.9134 33.5997 34.7736 33.4695 34.6977L18.5448 26.0577C18.2629 25.8946 17.9102 26.099 17.9102 26.4252V34.3433C17.9102 34.4949 17.9909 34.6343 18.1218 34.7102" fill="#4060DB"/>
<path d="M24.7137 50.6099L17.0504 55.0461C16.9198 55.122 16.7583 55.122 16.6277 55.0461L7.89511 49.9908C7.83083 49.9535 7.77745 49.8999 7.74031 49.8354C7.70316 49.7709 7.68355 49.6978 7.68344 49.6233V39.5125C7.6836 39.4381 7.70324 39.365 7.74039 39.3006C7.77754 39.2362 7.83091 39.1827 7.89516 39.1455L15.5585 34.7096C15.6228 34.6724 15.6761 34.619 15.7133 34.5546C15.7504 34.4902 15.77 34.4172 15.77 34.3428V26.4246C15.77 26.0985 15.4175 25.8945 15.1356 26.0571L0.210748 34.6976C0.0800841 34.7735 0 34.9133 0 35.0646V54.0723C0 54.2239 0.0805423 54.3633 0.210748 54.4398L16.6277 63.943C16.7583 64.019 16.9198 64.019 17.0504 63.943L31.9752 55.3033C32.257 55.1401 32.257 54.7322 31.9752 54.5691L25.1366 50.6099C25.0054 50.534 24.8444 50.534 24.7137 50.6099Z" fill="#2777FF"/>
</svg>
