<svg width="140" height="90" viewBox="0 0 140 90" fill="none" xmlns="http://www.w3.org/2000/svg">
<path d="M40.9284 85.4586L20.2156 49.5417C19.4192 48.1609 19 46.5945 19 45C19 43.4055 19.4192 41.8391 20.2156 40.4582L40.9284 4.54214C41.7249 3.16107 42.8705 2.01424 44.25 1.21692C45.6296 0.419606 47.1945 -9.81404e-05 48.7875 1.72134e-08H90.2131C91.8059 4.0526e-05 93.3707 0.419811 94.7501 1.21712C96.1295 2.01443 97.2749 3.16119 98.0713 4.54214L118.784 40.4582C119.581 41.8392 120 43.4058 120 45.0004C120 46.595 119.581 48.1616 118.784 49.5425L98.0713 85.4579C97.2749 86.8388 96.1295 87.9856 94.7501 88.7829C93.3707 89.5802 91.8059 90 90.2131 90H48.7875C47.1945 90.0002 45.6296 89.5805 44.25 88.7832C42.8704 87.9859 41.7248 86.839 40.9284 85.4579V85.4586Z" fill="url(#paint0_linear)"/>
<path opacity="0.07" fill-rule="evenodd" clip-rule="evenodd" d="M112.832 59.8619L98.0708 85.4579C97.2744 86.8389 96.1289 87.9856 94.7495 88.7829C93.3701 89.5802 91.8053 90 90.2125 90H86.1412L50.1838 54.0026L55.592 51.6897L50.2185 46.3102L55.592 43.9143L50.1602 38.4764L56.2225 37.0268L57.1946 32.8544L61.8801 32.0486L63.1749 25.6596L68.4387 30.9293L70.9045 25.647L76.2307 30.9791L78.6799 25.6707L112.832 59.8619Z" fill="black"/>
<path d="M74.1017 39.5466H65.0993C64.5722 39.5466 64.1406 39.9787 64.1406 40.5056L64.1414 49.5164C64.1425 49.7705 64.2437 50.0139 64.4231 50.1937C64.6025 50.3734 64.8455 50.4749 65.0993 50.4762H74.1009C74.3549 50.4752 74.5981 50.3737 74.7777 50.1939C74.9573 50.0142 75.0586 49.7707 75.0596 49.5164V40.5056C75.0596 39.9787 74.6288 39.5466 74.1025 39.5466" fill="white"/>
<path d="M88.3523 38.8199C88.8257 38.8199 89.2124 38.4312 89.2124 37.9589V36.5559C89.2124 36.0835 88.8257 35.6949 88.3523 35.6949H83.973V31.5983C83.9716 31.3446 83.8703 31.1017 83.6911 30.9223C83.5119 30.743 83.2693 30.6415 83.0159 30.6401H78.9057L78.9065 26.2401C78.9065 25.7685 78.5198 25.3799 78.0472 25.3799L76.645 25.3807C76.1716 25.3807 75.7849 25.7685 75.7849 26.2409L75.7857 30.6393H71.1618V26.2393C71.1618 25.7685 70.7752 25.3799 70.3034 25.3799L68.8996 25.3807C68.427 25.3807 68.0403 25.7685 68.0403 26.2409L68.0411 30.6393L63.4172 30.6401V26.2393C63.4172 25.7685 63.0306 25.3799 62.5587 25.3799H61.1558C60.6839 25.3799 60.2957 25.7685 60.2957 26.2409L60.2973 30.6401H56.1887C55.9349 30.6409 55.6916 30.7421 55.512 30.9215C55.3323 31.101 55.2306 31.3442 55.2292 31.5983V35.6957H50.8507C50.3796 35.6957 49.9922 36.0843 49.9922 36.5567L49.993 37.9612C49.993 38.4336 50.3796 38.8207 50.8515 38.8207H55.2292L55.2308 43.4497H50.8515C50.3796 43.4497 49.9922 43.8368 49.9922 44.3092L49.993 45.7129C49.993 46.1869 50.3796 46.5739 50.8515 46.5739H55.2308V51.203L50.8515 51.2022C50.3796 51.2022 49.9922 51.59 49.9922 52.0624L49.993 53.4661C49.993 53.9401 50.3796 54.3264 50.8515 54.3264H55.2308V58.4262C55.2308 58.9515 55.6624 59.3843 56.1879 59.3843H60.2973V63.7819C60.2973 64.2559 60.6839 64.643 61.1566 64.643H62.558C63.0298 64.643 63.4164 64.2559 63.4164 63.7819L63.4172 59.3843H68.0403L68.0411 63.7819C68.0411 64.2559 68.4278 64.643 68.9012 64.643H70.3026C70.7744 64.643 71.1611 64.2559 71.1611 63.7819L71.1618 59.3843H75.7849L75.7857 63.7819C75.7857 64.2559 76.1724 64.643 76.6458 64.643H78.0464C78.519 64.643 78.9065 64.2559 78.9065 63.7819V59.3843H83.0143C83.268 59.3831 83.5109 59.2817 83.6903 59.1021C83.8697 58.9225 83.971 58.6793 83.9722 58.4254L83.973 54.3264L88.3523 54.3256C88.8249 54.3256 89.2116 53.9393 89.2116 53.4661V52.064C89.2116 51.59 88.8249 51.203 88.3515 51.203H83.9738V46.5739L88.3523 46.5723C88.8257 46.5723 89.2124 46.1869 89.2124 45.7129V44.3107C89.2124 43.8368 88.8257 43.4497 88.3523 43.4497H83.973V38.8207H88.3523V38.8199ZM80.7402 56.163H58.4619V33.8591L80.7418 33.8583L80.7402 56.163Z" fill="white"/>
<defs>
<linearGradient id="paint0_linear" x1="69.5003" y1="0.000789955" x2="69.5003" y2="89.8602" gradientUnits="userSpaceOnUse">
<stop stop-color="#4387FD"/>
<stop offset="1" stop-color="#4683EA"/>
</linearGradient>
</defs>
</svg>
