<svg width="40" height="36" viewBox="0 0 40 36" fill="none" xmlns="http://www.w3.org/2000/svg">
<g clip-path="url(#clip0_13950_49227)">
<path d="M8.68451 34.1834L0.481425 19.8167C0.166019 19.2644 0 18.6378 0 18C0 17.3622 0.166019 16.7356 0.481425 16.1833L8.68451 1.81686C8.99996 1.26443 9.45366 0.805696 10 0.486768C10.5464 0.167842 11.1661 -3.92562e-05 11.797 6.88535e-09H28.2032C28.834 1.62104e-05 29.4537 0.167924 30 0.486848C30.5463 0.805772 31 1.26448 31.3154 1.81686L39.5184 16.1833C39.8341 16.7357 40 17.3623 40 18.0002C40 18.638 39.8341 19.2646 39.5184 19.817L31.3154 34.1832C31 34.7355 30.5463 35.1942 30 35.5132C29.4537 35.8321 28.834 36 28.2032 36H11.797C11.1661 36.0001 10.5464 35.8322 10 35.5133C9.45362 35.1944 8.99992 34.7359 8.68451 34.1834Z" fill="url(#paint0_linear_13950_49227)"/>
<path opacity="0.07" fill-rule="evenodd" clip-rule="evenodd" d="M37.1604 23.9447L31.3143 34.1831C30.9989 34.7355 30.5453 35.1942 29.999 35.5131C29.4527 35.8321 28.833 36 28.2021 36H26.5897L12.3492 21.601L14.4911 20.6759L12.3629 18.5241L14.4911 17.5657L12.3398 15.3905L14.7408 14.8107L15.1257 13.1417L16.9814 12.8194L17.4942 10.2638L19.5789 12.3717L20.5554 10.2588L22.6648 12.3916L23.6348 10.2683L37.1604 23.9447Z" fill="black"/>
<path d="M21.82 15.8184H18.2547C18.0459 15.8184 17.875 15.9912 17.875 16.202L17.8753 19.8063C17.8758 19.9079 17.9158 20.0053 17.9869 20.0772C18.0579 20.1491 18.1542 20.1897 18.2547 20.1902H21.8197C21.9203 20.1898 22.0166 20.1492 22.0877 20.0773C22.1588 20.0054 22.199 19.908 22.1994 19.8063V16.202C22.1994 15.9912 22.0284 15.8184 21.82 15.8184Z" fill="white"/>
<path d="M27.4656 15.5283C27.653 15.5283 27.8062 15.3729 27.8062 15.1839V14.6227C27.8062 14.4338 27.653 14.2783 27.4656 14.2783H25.7312V12.6397C25.7306 12.5382 25.6905 12.4411 25.6195 12.3693C25.5486 12.2976 25.4525 12.257 25.3521 12.2564H23.7243L23.7246 10.4964C23.7246 10.3078 23.5715 10.1523 23.3843 10.1523L22.829 10.1527C22.6415 10.1527 22.4884 10.3078 22.4884 10.4967L22.4887 12.2561H20.6574V10.4961C20.6574 10.3078 20.5043 10.1523 20.3175 10.1523L19.7615 10.1527C19.5743 10.1527 19.4212 10.3078 19.4212 10.4967L19.4215 12.2561L17.5903 12.2564V10.4961C17.5903 10.3078 17.4372 10.1523 17.2503 10.1523H16.6947C16.5078 10.1523 16.354 10.3078 16.354 10.4967L16.3547 12.2564H14.7275C14.627 12.2567 14.5306 12.2972 14.4595 12.369C14.3883 12.4408 14.3481 12.5381 14.3475 12.6397V14.2787H12.6134C12.4269 14.2787 12.2734 14.4341 12.2734 14.6231L12.2738 15.1849C12.2738 15.3738 12.4269 15.5287 12.6138 15.5287H14.3475L14.3481 17.3803H12.6138C12.4269 17.3803 12.2734 17.5351 12.2734 17.7241L12.2738 18.2855C12.2738 18.4751 12.4269 18.6299 12.6138 18.6299H14.3481V20.4816L12.6138 20.4813C12.4269 20.4813 12.2734 20.6364 12.2734 20.8253L12.2738 21.3868C12.2738 21.5764 12.4269 21.7309 12.6138 21.7309H14.3481V23.3709C14.3481 23.581 14.5191 23.7541 14.7272 23.7541H16.3547V25.5131C16.3547 25.7027 16.5078 25.8576 16.695 25.8576H17.25C17.4368 25.8576 17.59 25.7027 17.59 25.5131L17.5903 23.7541H19.4212L19.4215 25.5131C19.4215 25.7027 19.5747 25.8576 19.7622 25.8576H20.3172C20.504 25.8576 20.6572 25.7027 20.6572 25.5131L20.6574 23.7541H22.4884L22.4887 25.5131C22.4887 25.7027 22.6418 25.8576 22.8293 25.8576H23.384C23.5712 25.8576 23.7246 25.7027 23.7246 25.5131V23.7541H25.3515C25.452 23.7536 25.5482 23.7131 25.6192 23.6412C25.6903 23.5694 25.7304 23.4721 25.7309 23.3705L25.7312 21.7309L27.4656 21.7306C27.6527 21.7306 27.8059 21.5761 27.8059 21.3868V20.826C27.8059 20.6364 27.6527 20.4816 27.4652 20.4816H25.7315V18.6299L27.4656 18.6293C27.653 18.6293 27.8062 18.4751 27.8062 18.2855V17.7247C27.8062 17.5351 27.653 17.3803 27.4656 17.3803H25.7312V15.5287L27.4656 15.5283ZM24.4509 22.4656H15.6278V13.544L24.4515 13.5437L24.4509 22.4656Z" fill="white"/>
</g>
<defs>
<linearGradient id="paint0_linear_13950_49227" x1="20.0001" y1="0.000315982" x2="20.0001" y2="35.9441" gradientUnits="userSpaceOnUse">
<stop stop-color="#4387FD"/>
<stop offset="1" stop-color="#4683EA"/>
</linearGradient>
<clipPath id="clip0_13950_49227">
<rect width="40" height="36" fill="white"/>
</clipPath>
</defs>
</svg>
