<svg xmlns="http://www.w3.org/2000/svg" fill="none" viewBox="0 0 142 80"><defs/><path fill="#F8BB16" d="M80.168 43.601l-6.27 10.9H57.474a4.088 4.088 0 01-3.546-2.053L40.644 29.284a4.088 4.088 0 010-4.067l5.055-8.812L51.94 27.25l9.408 16.351h18.82z"/><path fill="#EA4334" d="M100.875 29.285L87.591 52.448a4.088 4.088 0 01-3.546 2.054H73.897l6.271-10.9L89.58 27.25 80.168 10.9h12.495l8.212 14.316a4.085 4.085 0 010 4.068z"/><path fill="#0074BC" d="M92.663 10.9H61.348L51.94 27.25 45.7 16.406l8.229-14.351A4.087 4.087 0 0157.475 0h26.57c1.464 0 2.817.783 3.546 2.054l5.072 8.846z"/><path fill="#E2E3E4" d="M80.168 10.9l9.41 16.35-9.41 16.352H61.351l-9.41-16.351 9.407-16.35h18.82z"/><path fill="#fff" d="M70.76 19.075a8.176 8.176 0 110 16.352 8.176 8.176 0 010-16.352z"/><path fill="#fff" d="M53.93 2.394A4.088 4.088 0 0157.474.34h26.57c1.465 0 2.817.784 3.546 2.054l4.878 8.506h.194L87.59 2.054A4.087 4.087 0 0084.045 0h-26.57a4.087 4.087 0 00-3.546 2.054L45.7 16.405l.099.17 8.131-14.18z" opacity=".2"/><path fill="#2C3079" d="M51.94 27.25l9.408-16.35h31.315l-.194-.34H61.348L51.94 26.91" opacity=".2"/><path fill="#fff" d="M40.644 25.558l5.056-8.813 6.24 10.847 9.408 16.35h18.623l.197-.34h-18.82L51.94 27.25 45.7 16.405l-5.056 8.812a4.075 4.075 0 00-.531 2.204 4.106 4.106 0 01.531-1.863z" opacity=".2"/><path fill="#BE3B26" d="M74.095 54.161h-16.62a4.088 4.088 0 01-3.546-2.053L40.644 28.944a4.104 4.104 0 01-.531-1.864c-.03.76.14 1.523.531 2.205L53.93 52.448a4.089 4.089 0 003.546 2.054h16.423l.197-.34z" opacity=".2"/><g opacity=".2"><path fill="#3F2723" d="M89.771 27.25L80.366 10.9h-.198l9.412 16.35h.191zM100.876 28.944L87.591 52.108a4.087 4.087 0 01-3.546 2.053h-9.95l-.198.34h10.148a4.088 4.088 0 003.546-2.053l13.285-23.163a4.069 4.069 0 00.531-2.205 4.107 4.107 0 01-.531 1.864z" opacity=".2"/></g><g opacity=".2"><path fill="#fff" d="M92.663 11.24l8.213 14.318c.33.58.504 1.22.532 1.863.03-.76-.14-1.523-.532-2.204L92.663 10.9H80.168l.198.34M80.168 43.942l9.603-16.691h-.19L80.168 43.6l-6.27 10.9h.197l6.073-10.559z" opacity=".2"/></g><path fill="#767576" d="M50.455 71.11c0-3.098 2.342-5.44 5.412-5.44 1.57 0 2.895.625 3.826 1.702l-.931.902c-.727-.902-1.703-1.324-2.895-1.324-2.197 0-4.045 1.6-4.045 4.16 0 2.561 1.848 4.162 4.045 4.162 1.31 0 2.415-.612 3.2-1.513l.931.93c-.916 1.092-2.386 1.863-4.131 1.863-3.07 0-5.412-2.342-5.412-5.441zM61.046 65.902h1.338v10.417h-1.338V65.902zM69.382 72.754c0-1.629-1.135-2.575-2.328-2.575-1.193 0-2.328.946-2.328 2.575 0 1.63 1.135 2.576 2.328 2.576 1.193 0 2.328-.946 2.328-2.576zm1.338 0c0 2.168-1.527 3.798-3.666 3.798-2.139 0-3.666-1.63-3.666-3.798 0-2.167 1.527-3.797 3.666-3.797 2.139 0 3.666 1.63 3.666 3.797zM76.772 76.32v-.99h-.058c-.392.655-1.28 1.222-2.255 1.222-1.833 0-2.72-1.237-2.72-2.997V69.19h1.338v4.146c0 1.485.742 1.994 1.76 1.994 1.164 0 1.877-1.12 1.877-2.212V69.19h1.339v7.13h-1.28zM85.007 72.754c0-1.629-1.077-2.575-2.27-2.575s-2.27.975-2.27 2.575 1.077 2.576 2.27 2.576 2.27-.946 2.27-2.576zm-5.878 0c0-2.182 1.585-3.797 3.39-3.797 1.135 0 2.022.568 2.43 1.222h.058l-.059-.989v-3.288h1.34v10.417h-1.281v-.99h-.059c-.407.656-1.294 1.223-2.43 1.223-1.804 0-3.39-1.615-3.39-3.798zM93.517 70.82c1.193 0 1.862-.99 1.862-1.819 0-.83-.669-1.819-1.862-1.819h-2.24v3.638h2.24zm-3.58 5.5V65.901h3.55c1.732 0 3.26 1.28 3.26 3.099 0 1.819-1.528 3.099-3.26 3.099h-2.21v4.22h-1.34zM97.692 65.902h1.338v10.417h-1.338V65.902zM105.243 73.25s-.567-.466-1.702-.466c-1.411 0-1.964.756-1.964 1.41 0 .757.785 1.136 1.484 1.136 1.062 0 2.182-.917 2.182-2.08zm-5.063.916c0-1.615 1.455-2.488 3.128-2.488.96 0 1.659.276 1.935.437v-.204c0-1.077-.858-1.732-1.862-1.732-.742 0-1.455.364-1.702 1.033l-1.222-.523c.247-.655 1.105-1.732 2.894-1.732 1.747 0 3.172 1.048 3.172 3.055v4.307h-1.28v-.99h-.058c-.393.597-1.121 1.223-2.342 1.223-1.455 0-2.663-.902-2.663-2.386zM108.458 74.151v-3.739h-1.251V69.19h1.251v-2.183h1.339v2.183h1.745v1.222h-1.745v3.637c0 .8.334 1.164.96 1.164.247 0 .422-.029.611-.116l.465 1.15c-.305.13-.625.189-1.076.189-1.499 0-2.299-.83-2.299-2.285zM117.158 66.033l-.466 1.15c-.174-.088-.363-.117-.611-.117-.669 0-1.193.392-1.193 1.222v.902h1.863v1.222h-1.863v5.907h-1.338v-5.907h-1.339V69.19h1.339v-.946c0-1.455 1.033-2.4 2.531-2.4.451 0 .771.058 1.077.189zM123.108 72.754c0-1.629-1.135-2.575-2.328-2.575-1.193 0-2.328.946-2.328 2.575 0 1.63 1.135 2.576 2.328 2.576 1.193 0 2.328-.946 2.328-2.576zm1.339 0c0 2.168-1.528 3.798-3.667 3.798-2.138 0-3.666-1.63-3.666-3.798 0-2.167 1.528-3.797 3.666-3.797 2.139 0 3.667 1.63 3.667 3.797zM125.523 76.32v-7.13h1.28v1.164h.058c.291-.815 1.324-1.338 2.066-1.338.437 0 .728.058 1.004.174l-.509 1.251c-.189-.073-.422-.101-.713-.101-.917 0-1.848.77-1.848 2.08v3.9h-1.338zM130.658 69.19h1.28v.99h.059c.407-.684 1.353-1.223 2.197-1.223 1.149 0 1.891.524 2.255 1.368a2.9 2.9 0 012.488-1.368c1.745 0 2.546 1.237 2.546 2.997v4.365h-1.339v-4.16c0-1.485-.568-1.98-1.586-1.98-1.091 0-1.819 1.106-1.819 2.197v3.943h-1.338v-4.16c0-1.485-.567-1.98-1.586-1.98-1.091 0-1.818 1.106-1.818 2.197v3.943h-1.339V69.19zM0 70.587c0-3.288 2.764-5.965 6.052-5.965 1.82 0 3.114.713 4.089 1.644l-1.15 1.149c-.698-.655-1.644-1.164-2.939-1.164-2.4 0-4.277 1.935-4.277 4.336 0 2.4 1.877 4.335 4.277 4.335 1.557 0 2.445-.625 3.012-1.193.466-.465.771-1.135.888-2.051h-3.9v-1.63h5.485c.059.291.088.64.088 1.019 0 1.222-.335 2.735-1.412 3.812-1.047 1.09-2.386 1.673-4.16 1.673C2.763 76.552 0 73.875 0 70.587zM16.058 75.039c-1.165 0-2.168-.96-2.168-2.328 0-1.382 1.003-2.328 2.168-2.328 1.163 0 2.167.946 2.167 2.328 0 1.368-1.004 2.328-2.168 2.328zm0-6.17c-2.125 0-3.856 1.616-3.856 3.842 0 2.211 1.731 3.84 3.856 3.84 2.124 0 3.855-1.629 3.855-3.84 0-2.226-1.731-3.841-3.855-3.841zM24.468 75.039c-1.164 0-2.168-.96-2.168-2.328 0-1.382 1.004-2.328 2.168-2.328 1.164 0 2.168.946 2.168 2.328 0 1.368-1.004 2.328-2.168 2.328zm0-6.17c-2.124 0-3.855 1.616-3.855 3.842 0 2.211 1.731 3.84 3.855 3.84 2.124 0 3.856-1.629 3.856-3.84 0-2.226-1.732-3.841-3.856-3.841zM32.857 75.039c-1.164 0-2.139-.975-2.139-2.314 0-1.352.975-2.342 2.139-2.342 1.15 0 2.051.99 2.051 2.343 0 1.338-.902 2.313-2.051 2.313zm1.935-5.936v.625h-.058c-.378-.45-1.106-.858-2.023-.858-1.92 0-3.68 1.688-3.68 3.855 0 2.154 1.76 3.827 3.68 3.827.917 0 1.645-.408 2.023-.873h.058v.553c0 1.47-.786 2.255-2.051 2.255-1.033 0-1.674-.742-1.936-1.368l-1.469.611c.422 1.019 1.542 2.27 3.405 2.27 1.978 0 3.651-1.164 3.651-4.001v-6.896h-1.6zM39.244 76.319h-1.688v-11.29h1.688v11.29zM43.74 70.354c.669 0 1.236.335 1.425.815l-3.433 1.425c-.044-1.484 1.15-2.24 2.008-2.24zm.13 4.685c-.858 0-1.469-.393-1.862-1.164l5.136-2.124-.175-.437c-.32-.858-1.294-2.444-3.288-2.444-1.978 0-3.622 1.557-3.622 3.84 0 2.154 1.63 3.842 3.812 3.842 1.76 0 2.779-1.077 3.2-1.702l-1.31-.873c-.436.64-1.032 1.062-1.89 1.062z"/></svg>