<svg width="40" height="36" viewBox="0 0 40 36" fill="none" xmlns="http://www.w3.org/2000/svg">
<path d="M39.5163 16.1528L31.2987 1.8393C30.6708 0.723144 29.5014 0.0235808 28.2142 0H11.779C10.4996 0.0235808 9.32231 0.723144 8.69441 1.8393L0.476809 16.1135C-0.158936 17.2218 -0.158936 18.5817 0.476809 19.69L8.69441 34.09C9.31446 35.2218 10.4839 35.945 11.779 35.9921H28.222C29.5092 35.945 30.6865 35.2297 31.3066 34.0978L39.5242 19.7843C40.1599 18.6603 40.1599 17.2769 39.5163 16.1528Z" fill="url(#paint0_linear_13950_49239)"/>
<path opacity="0.07" d="M28.0073 13.1262L20.0016 9.5498L12.3491 13.7157L12.0352 22.8965L25.1111 35.9996H28.2349C29.5221 35.9524 30.6994 35.2371 31.3195 34.1053L37.7475 22.8729L28.0073 13.1262Z" fill="#010202"/>
<path d="M27.8085 12.9847L20.415 8.70088C20.156 8.55153 19.8342 8.55153 19.5673 8.70088L12.1738 12.9847C11.9148 13.1341 11.75 13.417 11.75 13.7157V22.2755C11.75 22.5742 11.9148 22.8572 12.1738 23.0066L19.5673 27.2904C19.8263 27.4397 20.1481 27.4397 20.415 27.2904L27.8085 23.0066C28.0675 22.8572 28.2323 22.5742 28.2323 22.2755V13.7157C28.2323 13.417 28.0753 13.1341 27.8085 12.9847ZM26.8038 21.4502L24.2216 19.9568V16.0266L20.4071 18.2197V22.645L23.8056 20.6799L26.3879 22.1734L19.9912 25.8677L13.5944 22.1734L16.1767 20.6799L19.5752 22.645V18.2354L15.7764 16.0424V19.9568L13.1942 21.4502V14.0616L19.5909 10.3673V13.3463L16.1924 15.3114L20.0068 17.5044L23.8213 15.3114L20.4228 13.3463V10.3673L26.8195 14.0616V21.4502H26.8038Z" fill="white"/>
<defs>
<linearGradient id="paint0_linear_13950_49239" x1="20.0001" y1="0.000315913" x2="20.0001" y2="35.9362" gradientUnits="userSpaceOnUse">
<stop stop-color="#4387FD"/>
<stop offset="1" stop-color="#4683EA"/>
</linearGradient>
</defs>
</svg>
