<svg width="41" height="36" viewBox="0 0 41 36" fill="none" xmlns="http://www.w3.org/2000/svg">
<path d="M5.39811 14.359C5.2634 14.3537 5.13162 14.3181 5.01259 14.2548L1.37624 12.171C1.20991 12.08 1.08353 11.9303 1.02185 11.751C0.960179 11.5718 0.967656 11.376 1.04282 11.202C1.07842 11.1014 1.13422 11.0093 1.20677 10.9311C1.27933 10.853 1.36711 10.7905 1.46472 10.7476C1.56232 10.7046 1.66768 10.6821 1.77432 10.6814C1.88095 10.6807 1.9866 10.7018 2.08475 10.7435L2.20979 10.806L5.85656 12.8899C6.03369 12.9891 6.16597 13.1525 6.22608 13.3464C6.28619 13.5403 6.26953 13.7498 6.17956 13.9318C6.11072 14.0761 5.99817 14.1951 5.85789 14.2717C5.71761 14.3484 5.55673 14.379 5.39811 14.359ZM11.7018 8.10741C11.5666 8.10725 11.4338 8.07155 11.3168 8.00388C11.1998 7.93622 11.1026 7.83897 11.035 7.72189L8.9511 4.08554C8.85121 3.921 8.81215 3.72665 8.84071 3.53629C8.86926 3.34593 8.96362 3.1716 9.10739 3.04361C9.25779 2.91925 9.45073 2.85839 9.64527 2.87395C9.8398 2.88951 10.0206 2.98027 10.1493 3.12696C10.1493 3.12696 10.2223 3.1999 10.2431 3.24157L12.327 6.87792C12.4254 7.04536 12.4605 7.24249 12.4261 7.43362C12.3917 7.62475 12.29 7.79724 12.1394 7.91986C12.0125 8.01455 11.86 8.06899 11.7018 8.07615V8.10741ZM19.4955 4.9816V0.813866C19.4947 0.610383 19.5702 0.413995 19.7072 0.263516C19.8441 0.113037 20.0326 0.0194165 20.2353 0.00115677C20.3369 -0.00445315 20.4386 0.0103818 20.5343 0.0447831C20.6301 0.0791844 20.718 0.132453 20.7928 0.201433C20.8676 0.270414 20.9278 0.353705 20.9698 0.446374C21.0119 0.539043 21.0349 0.639205 21.0375 0.74093V5.02328C21.0389 5.12629 21.0197 5.22854 20.9809 5.32398C20.9421 5.41942 20.8846 5.50613 20.8118 5.57897C20.7389 5.65182 20.6522 5.70933 20.5568 5.7481C20.4613 5.78688 20.3591 5.80613 20.2561 5.80473C20.0505 5.77556 19.8617 5.67505 19.7226 5.52078C19.5836 5.36652 19.5032 5.1683 19.4955 4.96076V4.9816ZM28.8729 8.10741C28.7214 8.10802 28.573 8.06458 28.4457 7.98237C28.2934 7.86118 28.1897 7.68936 28.1533 7.49815C28.117 7.30694 28.1505 7.10904 28.2477 6.94044L30.3316 3.30409C30.4358 3.1322 30.6022 3.00706 30.7962 2.95467C30.9902 2.90228 31.197 2.92667 31.3735 3.02277C31.4165 3.03838 31.4531 3.06767 31.4777 3.10612C31.6181 3.23632 31.71 3.41037 31.7384 3.59971C31.7668 3.78904 31.73 3.98241 31.634 4.14806L29.5501 7.78441C29.4635 7.88276 29.3556 7.96013 29.2347 8.01067C29.1138 8.06121 28.9829 8.0836 28.852 8.07615L28.8729 8.10741ZM35.1245 14.359C34.9839 14.3594 34.8458 14.3219 34.7248 14.2503C34.6038 14.1788 34.5043 14.076 34.4368 13.9527C34.3468 13.7707 34.3302 13.5611 34.3903 13.3672C34.4504 13.1733 34.5827 13.0099 34.7598 12.9107L38.3545 10.8269C38.5184 10.7249 38.7133 10.6847 38.9042 10.7133C39.0951 10.7419 39.2696 10.8376 39.3964 10.9831C39.517 11.1358 39.5746 11.329 39.5571 11.5228C39.5397 11.7166 39.4486 11.8964 39.3027 12.0251C39.3027 12.0251 39.2401 12.0876 39.1985 12.1084L35.51 14.1923C35.406 14.2865 35.2746 14.345 35.1349 14.359H35.1245Z" fill="url(#paint0_linear_14033_33982)"/>
<path d="M10.5163 31.9468C9.21389 30.6094 8.19631 29.0217 7.52502 27.2798C6.85374 25.5379 6.54271 23.6779 6.61073 21.8123C6.67876 19.9468 7.12442 18.1144 7.92079 16.426C8.71715 14.7376 9.84767 13.2282 11.244 11.9892C12.6403 10.7501 14.2734 9.80713 16.0445 9.21721C17.8156 8.62729 19.688 8.4027 21.5484 8.55702C23.4088 8.71133 25.2186 9.24135 26.8683 10.115C28.5181 10.9887 29.9735 12.1879 31.1466 13.6401C31.3862 13.9526 31.605 14.2548 31.8238 14.5778L30.5422 15.4218C30.3561 15.1365 30.1543 14.8617 29.9379 14.5986C29.6382 14.2271 29.3145 13.8756 28.9689 13.5463C26.6338 11.4395 23.5796 10.3086 20.4355 10.3865C17.2915 10.4644 14.297 11.7452 12.0691 13.9651C9.84127 16.185 8.54965 19.1748 8.46041 22.3185C8.37117 25.4623 9.49109 28.5206 11.5894 30.8632L10.5163 31.9468Z" fill="url(#paint1_linear_14033_33982)"/>
<path d="M30.1227 36.0003H8.85683C7.68429 35.9935 6.52463 35.7553 5.44435 35.2993C4.36407 34.8433 3.38444 34.1786 2.56163 33.3432C1.73882 32.5078 1.08902 31.5182 0.649505 30.4311C0.209988 29.3441 -0.0105997 28.1809 0.000391409 27.0084H1.54245C1.52851 28.9615 2.2875 30.8408 3.65386 32.2365C5.02021 33.6321 6.88305 34.4308 8.83599 34.4582H30.1019C32.4923 34.4582 34.7853 33.5108 36.4785 31.8234C38.1718 30.1361 39.1272 27.8463 39.1354 25.4559C39.128 23.2367 38.3132 21.096 36.8432 19.4335L37.9893 18.3916C39.3539 19.9063 40.2491 21.7849 40.5661 23.7988C40.8831 25.8128 40.6083 27.8754 39.7751 29.7361C38.9419 31.5968 37.5861 33.1755 35.8725 34.2801C34.159 35.3848 32.1614 35.9679 30.1227 35.9586V36.0003Z" fill="url(#paint2_linear_14033_33982)"/>
<path d="M1.54597 27.0915L0.00390625 27.0081C0.0157085 24.9087 0.766889 22.8805 2.1255 21.2799C3.48411 19.6793 5.36327 18.6086 7.4329 18.2559L7.69338 19.7979C5.97561 20.0988 4.41841 20.9943 3.29451 22.3278C2.1706 23.6612 1.55162 25.3476 1.54597 27.0915Z" fill="url(#paint3_linear_14033_33982)"/>
<path d="M21.0902 25.393H19.5586C19.564 24.0021 19.8446 22.626 20.3841 21.344C20.9236 20.062 21.7114 18.8994 22.7022 17.9232C23.6929 16.9469 24.867 16.1764 26.1569 15.6559C27.4467 15.1353 28.8268 14.8751 30.2176 14.8903C31.6925 14.9098 33.1474 15.2347 34.4906 15.8444C35.8337 16.4541 37.036 17.3354 38.0217 18.4328L36.8651 19.4748C35.2755 17.6889 33.0427 16.606 30.6561 16.4634C28.2694 16.3208 25.9236 17.1302 24.1327 18.7142C23.1964 19.5606 22.4433 20.59 21.9201 21.7386C21.3968 22.8873 21.1144 24.131 21.0902 25.393Z" fill="url(#paint4_linear_14033_33982)"/>
<defs>
<linearGradient id="paint0_linear_14033_33982" x1="30.6442" y1="-6.1671" x2="5.90865" y2="35.8229" gradientUnits="userSpaceOnUse">
<stop stop-color="#50FFD2"/>
<stop offset="1" stop-color="#0064FF"/>
</linearGradient>
<linearGradient id="paint1_linear_14033_33982" x1="21.6545" y1="24.1428" x2="12.3605" y2="10.8581" gradientUnits="userSpaceOnUse">
<stop offset="0.2" stop-color="#09B9EC" stop-opacity="0"/>
<stop offset="0.29" stop-color="#09B9EC" stop-opacity="0.03"/>
<stop offset="0.5" stop-color="#09B9EC" stop-opacity="0.2"/>
<stop offset="0.79" stop-color="#09B9EC" stop-opacity="0.74"/>
<stop offset="1" stop-color="#09B9EC"/>
</linearGradient>
<linearGradient id="paint2_linear_14033_33982" x1="37.7913" y1="-1.94696" x2="13.0558" y2="40.043" gradientUnits="userSpaceOnUse">
<stop stop-color="#50FFD2"/>
<stop offset="1" stop-color="#0064FF"/>
</linearGradient>
<linearGradient id="paint3_linear_14033_33982" x1="-0.902577" y1="25.4348" x2="8.45399" y2="20.0271" gradientUnits="userSpaceOnUse">
<stop offset="0.08" stop-color="#0871FE"/>
<stop offset="0.75" stop-color="#0871FE" stop-opacity="0.07"/>
<stop offset="0.88" stop-color="#0871FE" stop-opacity="0"/>
</linearGradient>
<linearGradient id="paint4_linear_14033_33982" x1="20.4755" y1="26.4662" x2="34.7083" y2="14.5256" gradientUnits="userSpaceOnUse">
<stop offset="0.14" stop-color="#193A3E" stop-opacity="0"/>
<stop offset="0.32" stop-color="#37CEE0" stop-opacity="0.07"/>
<stop offset="0.85" stop-color="#37CEE0" stop-opacity="0.76"/>
<stop offset="0.91" stop-color="#33C7E2"/>
</linearGradient>
</defs>
</svg>
