<svg width="141" height="90" viewBox="0 0 141 90" fill="none" xmlns="http://www.w3.org/2000/svg">
<path d="M54.5846 57.3967C53.7278 55.9387 51.8828 55.4237 50.3892 56.1932L46.0603 51.3336C46.7459 49.3489 47.1206 47.22 47.1206 44.9984C47.1206 42.8228 46.7574 40.7285 46.0952 38.7731L49.7618 34.4513C50.6509 34.8218 51.6849 34.7926 52.5743 34.272C54.0851 33.3983 54.5964 31.46 53.713 29.9561C52.8269 28.4518 50.8834 27.9371 49.3694 28.8223C48.4803 29.337 47.9488 30.2281 47.8323 31.177L42.3354 32.2241C39.494 28.9613 35.5892 26.6469 31.1498 25.8139L29.0637 19.7796C30.4438 18.8597 30.8972 17.0142 30.0457 15.5621C29.1596 14.0637 27.2158 13.5487 25.7053 14.4339C24.1945 15.3076 23.6801 17.2515 24.5663 18.7557C24.7958 19.1491 25.1007 19.4731 25.4524 19.716L23.3607 25.9181C19.0579 26.838 15.2865 29.1639 12.5439 32.3864L6.39042 31.2408C6.36143 30.7664 6.23366 30.292 5.97783 29.8524C5.09466 28.3481 3.14793 27.839 1.63742 28.7186C0.126633 29.5979 -0.384745 31.5362 0.498425 33.0404C1.30616 34.4171 3.00297 34.9495 4.43806 34.3535L8.75538 39.2769C8.19757 41.0877 7.89825 43.0086 7.89825 44.999C7.89825 47.2262 8.27299 49.3614 8.9645 51.3513L4.53094 56.5176C3.61555 56.0836 2.50878 56.0953 1.57326 56.639C0.0565708 57.5245 -0.448902 59.4566 0.434268 60.9664C1.31744 62.4647 3.26416 62.9798 4.77495 62.1004C5.71341 61.5507 6.26264 60.5962 6.33808 59.5894L13.1221 58.2645C15.8097 61.1516 19.3599 63.2283 23.3693 64.0906L25.5834 70.3562C24.3456 71.3165 23.9679 73.0522 24.7816 74.4351C25.6647 75.9393 27.6115 76.4482 29.1252 75.5689C30.633 74.6895 31.1444 72.7513 30.2612 71.2414C30.0317 70.8595 29.7324 70.5356 29.3896 70.287L31.502 64.1197C35.5957 63.2751 39.2245 61.1631 41.9526 58.2068L48.7251 59.5087C48.7863 59.8789 48.8993 60.2434 49.1058 60.5845C49.986 62.089 51.9298 62.5978 53.4464 61.7185C54.9567 60.8392 55.4651 58.8953 54.5846 57.3967ZM27.5065 59.3579C19.54 59.3579 13.0843 52.9303 13.0843 44.9987C13.0843 37.0666 19.54 30.6389 27.5065 30.6389C35.4703 30.6389 41.929 37.0666 41.929 44.9987C41.929 52.9303 35.4703 59.3579 27.5065 59.3579Z" fill="#414042"/>
<path d="M24.8091 46.1096C24.6491 45.5713 24.5881 45.1086 24.6174 44.7179C24.6493 44.2812 24.7916 43.8241 25.0386 43.3671C25.2912 42.9101 25.5789 42.5396 25.9013 42.2619L33.9666 35.3772C31.5088 33.7458 28.4349 33.0338 25.303 33.6301C18.9954 34.8448 14.8727 40.9138 16.0871 47.191C16.0871 47.191 16.1685 47.7464 16.4533 48.5915C16.4705 48.6431 16.4879 48.6954 16.5086 48.7476C16.5405 48.84 16.5754 48.9381 16.6101 49.0368C16.7381 49.361 16.8659 49.6787 17.0111 49.9914L17.0227 49.9853C17.8419 51.6862 19.3471 53.8038 22.0575 55.2271C22.1013 55.2442 22.1448 55.2674 22.1883 55.2907C22.322 55.3602 22.4556 55.4235 22.5893 55.4871C22.6822 55.5275 22.7751 55.5684 22.8623 55.6087C22.9031 55.6258 22.9437 55.6435 22.9845 55.6665V55.6608C25.0386 56.5287 27.36 56.8149 29.7105 56.367C30.8291 56.1526 31.8808 55.7768 32.8513 55.2848L25.8203 47.7464C25.303 47.2089 24.9629 46.6535 24.8091 46.1096Z" fill="#414042"/>
<path d="M36.8497 38.1023L30.0074 43.7086C29.7548 43.9109 29.5194 44.1077 29.2984 44.3217C29.1242 44.4837 29.0281 44.7093 29.0077 44.9987C28.9846 45.3866 29.0657 45.7076 29.2751 45.9764C29.5161 46.2827 29.769 46.5783 30.0246 46.8504L35.9748 52.9365C38.4386 50.3215 39.6589 46.6016 38.9266 42.8122C38.587 41.0471 37.8609 39.4502 36.8497 38.1023Z" fill="#27AAE1"/>
<path d="M68.0682 45.0738L73.6349 38.9583H79.5588L73.1001 46.0686L79.951 55.9791H74.2418L69.7793 49.6559H67.0339V55.9791H62.0742V30.7546H67.0339V45.0738H68.0682Z" fill="#414042"/>
<path d="M96.9829 40.7347C98.7321 42.4067 99.6241 44.6109 99.6241 47.3478C99.6241 50.1186 98.7321 52.352 96.9829 54.0585C95.2338 55.7651 92.9155 56.6158 90.0247 56.6158C87.1336 56.6158 84.8153 55.7651 83.0313 54.0585C81.2472 52.352 80.3555 50.1186 80.3555 47.3478C80.3555 44.6109 81.2472 42.4067 82.9934 40.7347C84.7802 39.0688 87.1336 38.2122 90.0244 38.2122C92.9155 38.2124 95.234 39.0688 96.9829 40.7347ZM90.025 42.6208C87.2066 42.6208 85.2773 44.5011 85.2773 47.3478C85.2773 50.2231 87.2066 52.213 90.025 52.213C92.8431 52.213 94.7345 50.2231 94.7345 47.3478C94.7345 44.5011 92.8431 42.6208 90.025 42.6208Z" fill="#414042"/>
<path d="M121.648 47.3823C121.648 50.0091 120.863 52.1435 119.329 53.7752C117.795 55.3721 115.796 56.1935 113.405 56.1935C111.371 56.1935 109.695 56.1184 108.303 55.9794V64.1833H103.344V39.2481C107.589 38.7098 110.837 38.4265 113.083 38.4265C118.472 38.4262 121.506 41.8746 121.648 47.3823ZM116.831 47.521C116.831 44.1828 115.332 42.5107 112.298 42.5107C111.156 42.5107 109.837 42.5858 108.303 42.7248V51.7848C109.553 51.9642 110.979 52.0684 112.621 52.0684C115.082 52.0684 116.831 50.0783 116.831 47.521Z" fill="#414042"/>
<path d="M125.518 51.0734C128.121 52.0685 130.44 52.5659 132.439 52.5659C134.4 52.5659 135.364 52.1436 135.364 51.253C135.364 50.4715 134.615 50.0784 133.473 49.8295C132.866 49.6563 132.546 49.6213 131.724 49.4767L130.797 49.2977C126.767 48.5512 124.908 47.0587 124.908 44.1831C124.908 40.6308 127.799 38.5017 132.401 38.5017C134.934 38.5017 137.326 38.924 139.574 39.7803L138.468 43.5061C135.722 42.7249 133.65 42.3373 132.224 42.3373C130.655 42.3373 129.763 42.9042 129.763 43.7953C129.763 44.5763 130.332 44.8599 131.332 45.1782C131.939 45.323 132.224 45.3573 133.084 45.5313L134.08 45.7103C138.253 46.5608 140.002 47.7702 140.002 50.7901C140.002 54.5913 137.006 56.5119 132.259 56.5119C129.618 56.5119 127.049 56.0142 124.516 55.0192L125.518 51.0734Z" fill="#414042"/>
<path d="M25.7968 47.7521C25.2795 47.2087 24.9397 46.659 24.7856 46.1094C24.6259 45.577 24.565 45.1144 24.5939 44.721C24.6259 44.2869 24.7682 43.8243 25.0151 43.3728C25.268 42.9102 25.5555 42.5397 25.8782 42.2677L33.9435 35.383C31.4856 33.7515 28.4117 33.0339 25.2795 33.6358C18.972 34.8447 14.8493 40.9198 16.0637 47.1972C16.0637 47.1972 16.145 47.7521 16.4299 48.5972C16.4473 48.6432 16.4648 48.7012 16.4852 48.7533C16.5171 48.8458 16.552 48.9444 16.5869 49.0369C16.7147 49.3667 16.8427 49.6847 16.9879 49.9975L16.9995 49.9854C17.1098 50.2172 17.2669 50.4657 17.4062 50.7089C20.7241 50.3503 23.9201 49.7713 26.9302 48.9674L25.7968 47.7521Z" fill="url(#paint0_linear)"/>
<path d="M46.104 38.9066C46.0868 38.8663 46.0838 38.8198 46.0691 38.7735L49.7357 34.4576C49.7676 34.4693 49.8055 34.475 49.8374 34.4865C51.0229 32.6874 51.8741 30.7837 52.4029 28.8109C51.4645 28.3191 50.3257 28.2496 49.3438 28.8224C48.4544 29.3431 47.9229 30.2339 47.8067 31.1827L42.3096 32.2299C39.4681 28.9611 35.5634 26.6471 31.1239 25.814L29.0379 19.7854C30.4179 18.8657 30.8713 17.0199 30.0198 15.5678C29.1337 14.0636 27.187 13.5544 25.6791 14.4338C24.1683 15.3134 23.6543 17.2514 24.5401 18.7556C24.7697 19.149 25.0749 19.4729 25.4263 19.7218L23.3343 25.918C19.0315 26.8379 15.2601 29.1637 12.5178 32.3918L6.36429 31.2463C6.3353 30.7722 6.20752 30.2975 5.9517 29.8519C5.06853 28.3477 3.1218 27.8445 1.61102 28.7238C0.100234 29.6031 -0.411149 31.5414 0.472021 33.0397C1.27976 34.4164 2.97657 34.9547 4.41166 34.3587L8.72899 39.2763C8.17117 41.087 7.87481 43.0079 7.87481 45.0042C7.87481 47.1392 8.23505 49.187 8.87421 51.1079C9.21701 51.1135 9.55122 51.1424 9.89697 51.1424C11.4222 51.1424 12.9244 51.0903 14.4119 50.9919C13.5636 49.1638 13.0581 47.1504 13.0581 45.0039C13.0581 37.0718 19.5139 30.6385 27.4804 30.6385C34.5696 30.6385 40.4356 35.7469 41.647 42.4584C43.2829 41.3538 44.7792 40.1735 46.104 38.9066Z" fill="url(#paint1_linear)"/>
<path d="M36.8219 38.1084L29.9798 43.7147C29.727 43.9112 29.4918 44.1138 29.2709 44.322C29.0967 44.4898 29.0008 44.7095 28.9804 45.0048C28.9571 45.3927 29.0384 45.7105 29.2478 45.9767C29.4889 46.2894 29.7417 46.5842 29.9973 46.8506L30.8805 47.7527C33.85 46.729 36.5808 45.4793 39.062 44.0619C39.0271 43.6511 38.9806 43.2344 38.8993 42.8121C38.5595 41.0473 37.8331 39.4565 36.8219 38.1084Z" fill="url(#paint2_linear)"/>
<defs>
<linearGradient id="paint0_linear" x1="31.815" y1="59.9108" x2="18.8983" y2="24.698" gradientUnits="userSpaceOnUse">
<stop stop-color="white"/>
<stop offset="0.1371" stop-color="white" stop-opacity="0.8629"/>
<stop offset="1" stop-color="white" stop-opacity="0"/>
</linearGradient>
<linearGradient id="paint1_linear" x1="36.4993" y1="58.1888" x2="23.583" y2="22.9773" gradientUnits="userSpaceOnUse">
<stop stop-color="white"/>
<stop offset="0.1371" stop-color="white" stop-opacity="0.8629"/>
<stop offset="1" stop-color="white" stop-opacity="0"/>
</linearGradient>
<linearGradient id="paint2_linear" x1="38.9015" y1="57.3026" x2="25.9918" y2="22.1089" gradientUnits="userSpaceOnUse">
<stop stop-color="white"/>
<stop offset="0.1371" stop-color="white" stop-opacity="0.8629"/>
<stop offset="1" stop-color="white" stop-opacity="0"/>
</linearGradient>
</defs>
</svg>
