<svg xmlns="http://www.w3.org/2000/svg" width="25" height="24" viewBox="0 0 25 24" fill="none">
    <g clip-path="url(#clip0_9164_40)">
        <path d="M16.588 6.41243C16.2435 5.96772 15.7747 5.63533 15.241 5.45743L13.863 5.00943C13.7572 4.97177 13.6657 4.90229 13.6009 4.81053C13.5362 4.71877 13.5014 4.60923 13.5014 4.49693C13.5014 4.38463 13.5362 4.27509 13.6009 4.18333C13.6657 4.09157 13.7572 4.02209 13.863 3.98443L15.241 3.53643C15.6488 3.39562 16.0191 3.16376 16.3239 2.85846C16.6287 2.55316 16.8599 2.18243 17 1.77443L17.011 1.74043L17.459 0.36343C17.4962 0.256944 17.5657 0.16467 17.6577 0.0993824C17.7497 0.0340948 17.8597 -0.000976562 17.9725 -0.000976562C18.0853 -0.000976562 18.1953 0.0340948 18.2873 0.0993824C18.3793 0.16467 18.4488 0.256944 18.486 0.36343L18.933 1.74043C19.0727 2.15897 19.3081 2.5392 19.6203 2.85095C19.9326 3.1627 20.3132 3.3974 20.732 3.53643L22.109 3.98443L22.137 3.99143C22.2428 4.02909 22.3343 4.09857 22.3991 4.19033C22.4638 4.28209 22.4986 4.39163 22.4986 4.50393C22.4986 4.61623 22.4638 4.72577 22.3991 4.81753C22.3343 4.90929 22.2428 4.97877 22.137 5.01643L20.759 5.46443C20.3404 5.60359 19.96 5.83835 19.6479 6.1501C19.3358 6.46184 19.1006 6.842 18.961 7.26043L18.513 8.63743L18.5 8.67143C18.4568 8.77205 18.3842 8.8573 18.2918 8.91601C18.1993 8.97472 18.0913 9.00416 17.9819 9.00049C17.8724 8.99681 17.7666 8.96019 17.6784 8.89542C17.5901 8.83064 17.5234 8.74073 17.487 8.63743L17.039 7.26043C16.9389 6.95397 16.7867 6.66708 16.589 6.41243M24.284 10.2134L23.518 9.96543C23.2856 9.88772 23.0744 9.75701 22.9012 9.58362C22.728 9.41024 22.5975 9.19894 22.52 8.96643L22.27 8.20243C22.2493 8.14336 22.2107 8.09219 22.1597 8.05598C22.1086 8.01977 22.0476 8.00033 21.985 8.00033C21.9224 8.00033 21.8614 8.01977 21.8103 8.05598C21.7593 8.09219 21.7207 8.14336 21.7 8.20243L21.452 8.96643C21.3759 9.19745 21.2476 9.40779 21.0769 9.58107C20.9062 9.75435 20.6978 9.88588 20.468 9.96543L19.703 10.2134C19.6439 10.2341 19.5928 10.2727 19.5565 10.3237C19.5203 10.3748 19.5009 10.4358 19.5009 10.4984C19.5009 10.561 19.5203 10.6221 19.5565 10.6731C19.5928 10.7242 19.6439 10.7627 19.703 10.7834L20.468 11.0324C20.7011 11.1102 20.9129 11.2412 21.0865 11.4152C21.2601 11.5891 21.3907 11.8012 21.468 12.0344L21.716 12.7984C21.7367 12.8575 21.7753 12.9087 21.8263 12.9449C21.8774 12.9811 21.9384 13.0005 22.001 13.0005C22.0636 13.0005 22.1246 12.9811 22.1757 12.9449C22.2267 12.9087 22.2653 12.8575 22.286 12.7984L22.535 12.0344C22.6126 11.8018 22.7432 11.5904 22.9166 11.4171C23.09 11.2437 23.3014 11.113 23.534 11.0354L24.299 10.7874C24.3581 10.7667 24.4092 10.7282 24.4454 10.6771C24.4817 10.6261 24.5011 10.565 24.5011 10.5024C24.5011 10.4398 24.4817 10.3788 24.4454 10.3277C24.4092 10.2767 24.3581 10.2381 24.299 10.2174L24.284 10.2134ZM10.409 3.70043C11.2439 3.16462 12.2527 2.96988 13.227 3.15643C13.0544 3.26609 12.9029 3.406 12.78 3.56943C12.5759 3.86794 12.479 4.22677 12.505 4.58743C12.0491 4.58765 11.6027 4.71773 11.218 4.96243L4.13 9.50643L11.201 14.1264C11.991 14.6414 13.01 14.6414 13.799 14.1264L18.549 11.0234C18.5877 11.1208 18.638 11.2128 18.7 11.2994C18.855 11.5204 19.076 11.6884 19.33 11.7794L19.87 11.9504L19.5 12.1934V17.7504C19.5 17.9127 19.4474 18.0706 19.35 18.2004L19.349 18.2014L19.348 18.2034L19.345 18.2074L19.336 18.2174L19.321 18.2374L19.311 18.2504L19.225 18.3514C19.1244 18.4662 19.0186 18.5763 18.908 18.6814C18.631 18.9484 18.218 19.2954 17.658 19.6394C16.537 20.3294 14.839 21.0004 12.5 21.0004C10.161 21.0004 8.464 20.3304 7.341 19.6394C6.89149 19.3658 6.47245 19.045 6.091 18.6824C5.98069 18.5773 5.87525 18.4672 5.775 18.3524C5.73206 18.3038 5.6907 18.2538 5.651 18.2024L5.65 18.2004C5.55263 18.0706 5.5 17.9127 5.5 17.7504V12.1934L3.5 10.8864V16.2504C3.5 16.4493 3.42098 16.6401 3.28033 16.7808C3.13968 16.9214 2.94891 17.0004 2.75 17.0004C2.55109 17.0004 2.36032 16.9214 2.21967 16.7808C2.07902 16.6401 2 16.4493 2 16.2504V9.50043C1.9999 9.37203 2.03276 9.24575 2.09545 9.13369C2.15813 9.02163 2.24853 8.92754 2.358 8.86043L10.409 3.70043ZM14.619 15.3814C13.9887 15.7924 13.2525 16.0112 12.5 16.0112C11.7475 16.0112 11.0113 15.7924 10.381 15.3814L7 13.1724V17.4694C7.03667 17.5081 7.08 17.5514 7.13 17.5994C7.341 17.8024 7.67 18.0804 8.127 18.3614C9.036 18.9214 10.464 19.5004 12.5 19.5004C14.536 19.5004 15.964 18.9204 16.873 18.3614C17.2831 18.1103 17.6614 17.8108 18 17.4694V13.1724L14.619 15.3814Z" fill="#2A7DEC"/>
    </g>
    <defs>
        <clipPath id="clip0_9164_40">
            <rect width="24" height="24" fill="white" transform="translate(0.5)"/>
        </clipPath>
    </defs>
</svg>