<svg width="24" height="24" viewBox="0 0 24 24" fill="none" xmlns="http://www.w3.org/2000/svg">
<path d="M5.5 8C5.5 7.33696 5.76339 6.70107 6.23223 6.23223C6.70107 5.76339 7.33696 5.5 8 5.5C8.66304 5.5 9.29893 5.76339 9.76777 6.23223C10.2366 6.70107 10.5 7.33696 10.5 8C10.5 8.66304 10.2366 9.29893 9.76777 9.76777C9.29893 10.2366 8.66304 10.5 8 10.5C7.33696 10.5 6.70107 10.2366 6.23223 9.76777C5.76339 9.29893 5.5 8.66304 5.5 8ZM8 4C6.93913 4 5.92172 4.42143 5.17157 5.17157C4.42143 5.92172 4 6.93913 4 8C4 9.06087 4.42143 10.0783 5.17157 10.8284C5.92172 11.5786 6.93913 12 8 12C9.06087 12 10.0783 11.5786 10.8284 10.8284C11.5786 10.0783 12 9.06087 12 8C12 6.93913 11.5786 5.92172 10.8284 5.17157C10.0783 4.42143 9.06087 4 8 4ZM15.5 9C15.5 8.60218 15.658 8.22064 15.9393 7.93934C16.2206 7.65804 16.6022 7.5 17 7.5C17.3978 7.5 17.7794 7.65804 18.0607 7.93934C18.342 8.22064 18.5 8.60218 18.5 9C18.5 9.39782 18.342 9.77936 18.0607 10.0607C17.7794 10.342 17.3978 10.5 17 10.5C16.6022 10.5 16.2206 10.342 15.9393 10.0607C15.658 9.77936 15.5 9.39782 15.5 9ZM17 6C16.2044 6 15.4413 6.31607 14.8787 6.87868C14.3161 7.44129 14 8.20435 14 9C14 9.79565 14.3161 10.5587 14.8787 11.1213C15.4413 11.6839 16.2044 12 17 12C17.7956 12 18.5587 11.6839 19.1213 11.1213C19.6839 10.5587 20 9.79565 20 9C20 8.20435 19.6839 7.44129 19.1213 6.87868C18.5587 6.31607 17.7956 6 17 6ZM14.248 19.038C14.951 19.323 15.852 19.5 17.001 19.5C19.283 19.5 20.587 18.803 21.298 17.942C21.643 17.524 21.818 17.102 21.908 16.779C21.9595 16.5919 21.9907 16.3998 22.001 16.206V16.179C22.0007 15.6012 21.7711 15.0471 21.3625 14.6385C20.9539 14.2299 20.3998 14.0003 19.822 14H14.18C14.152 14 14.1247 14.0007 14.098 14.002C14.492 14.412 14.778 14.927 14.914 15.5H19.822C20.194 15.5 20.496 15.799 20.501 16.169L20.498 16.201C20.494 16.2397 20.4817 16.2997 20.461 16.381C20.3992 16.6034 20.2901 16.8098 20.141 16.986C19.791 17.412 18.969 18 17.001 18C16.021 18 15.325 17.854 14.831 17.655C14.723 18.055 14.545 18.538 14.248 19.038ZM4.25 14C3.65326 14 3.08097 14.2371 2.65901 14.659C2.23705 15.081 2 15.6533 2 16.25V16.528C2.00105 16.5975 2.00572 16.667 2.014 16.736C2.09712 17.48 2.36453 18.1915 2.792 18.806C3.61 19.974 5.172 21 8 21C10.828 21 12.39 19.975 13.208 18.805C13.6355 18.1905 13.9029 17.479 13.986 16.735C13.9931 16.6662 13.9977 16.5971 14 16.528V16.25C14 15.6533 13.7629 15.081 13.341 14.659C12.919 14.2371 12.3467 14 11.75 14H4.25ZM3.5 16.507V16.25C3.5 16.0511 3.57902 15.8603 3.71967 15.7197C3.86032 15.579 4.05109 15.5 4.25 15.5H11.75C11.9489 15.5 12.1397 15.579 12.2803 15.7197C12.421 15.8603 12.5 16.0511 12.5 16.25V16.507L12.493 16.587C12.4355 17.0749 12.2589 17.5413 11.979 17.945C11.486 18.65 10.422 19.5 8 19.5C5.578 19.5 4.514 18.65 4.02 17.945C3.74041 17.5412 3.56425 17.0748 3.507 16.587L3.5 16.507Z" fill="#2A7DEC"/>
</svg>
