<svg width="24" height="24" viewBox="0 0 24 24" fill="none" xmlns="http://www.w3.org/2000/svg">
<path d="M12 2C12.3753 2 12.7453 2.02033 13.11 2.061C13.2405 2.07545 13.3669 2.11546 13.482 2.17876C13.5971 2.24206 13.6986 2.3274 13.7806 2.42992C13.8627 2.53243 13.9238 2.65011 13.9604 2.77624C13.997 2.90237 14.0084 3.03447 13.994 3.165C13.9796 3.29553 13.9395 3.42194 13.8762 3.53701C13.8129 3.65208 13.7276 3.75356 13.6251 3.83565C13.5226 3.91773 13.4049 3.97882 13.2788 4.01543C13.1526 4.05204 13.0205 4.06345 12.89 4.049C11.242 3.86464 9.57752 4.19694 8.12668 4.99992C6.67583 5.80291 5.51035 7.03689 4.79147 8.5312C4.07258 10.0255 3.8358 11.7063 4.11389 13.341C4.39198 14.9758 5.17119 16.4837 6.34374 17.6563C7.51629 18.8288 9.02423 19.608 10.659 19.8861C12.2937 20.1642 13.9745 19.9274 15.4688 19.2085C16.9631 18.4896 18.1971 17.3242 19.0001 15.8733C19.8031 14.4225 20.1354 12.758 19.951 11.11C19.9366 10.9795 19.948 10.8474 19.9846 10.7212C20.0212 10.5951 20.0823 10.4774 20.1644 10.3749C20.3301 10.1679 20.5714 10.0352 20.835 10.006C21.0986 9.97683 21.363 10.0536 21.5701 10.2194C21.6726 10.3014 21.7579 10.4029 21.8212 10.518C21.8845 10.6331 21.9246 10.7595 21.939 10.89C21.979 11.2547 21.9993 11.6247 22 12C22 17.523 17.523 22 12 22C6.477 22 2 17.523 2 12C2 6.477 6.477 2 12 2ZM11.968 7.877C12.0339 8.13372 11.9952 8.40611 11.8604 8.63431C11.7256 8.8625 11.5057 9.02785 11.249 9.094C10.5439 9.27871 9.93004 9.71367 9.52204 10.3177C9.11404 10.9217 8.93975 11.6536 9.0317 12.3767C9.12365 13.0998 9.47555 13.7647 10.0217 14.2474C10.5679 14.7301 11.2711 14.9976 12 15C12.6653 15.0003 13.3118 14.7794 13.8379 14.3721C14.3639 13.9648 14.7397 13.3942 14.906 12.75C14.9769 12.4984 15.1435 12.2845 15.3701 12.1542C15.5968 12.0239 15.8655 11.9875 16.1186 12.0529C16.3717 12.1183 16.5892 12.2802 16.7244 12.5039C16.8596 12.7277 16.9018 12.9955 16.842 13.25C16.5352 14.4259 15.8108 15.45 14.8042 16.1308C13.7975 16.8116 12.5774 17.1026 11.3718 16.9495C10.1662 16.7964 9.05754 16.2096 8.25301 15.2987C7.44848 14.3879 7.00307 13.2153 7 12C6.99983 10.8914 7.3681 9.81416 8.04692 8.93767C8.72573 8.06119 9.67659 7.43515 10.75 7.158C10.8772 7.12522 11.0096 7.11781 11.1396 7.13621C11.2697 7.1546 11.3948 7.19843 11.5079 7.2652C11.621 7.33197 11.7199 7.42036 11.7988 7.52534C11.8778 7.63031 11.9353 7.74981 11.968 7.877ZM18.504 2.127C18.6865 2.20268 18.8425 2.33074 18.9524 2.49501C19.0622 2.65928 19.1209 2.8524 19.121 3.05V4.88H20.95C21.1478 4.88004 21.341 4.93871 21.5055 5.0486C21.6699 5.15848 21.798 5.31465 21.8737 5.49735C21.9493 5.68005 21.9692 5.88108 21.9306 6.07503C21.892 6.26898 21.7968 6.44715 21.657 6.587L18.12 10.12C17.9325 10.3075 17.6782 10.4129 17.413 10.413H15L13.172 12.242C12.9844 12.4296 12.7299 12.5351 12.4645 12.5351C12.1991 12.5351 11.9446 12.4296 11.757 12.242C11.5694 12.0544 11.4639 11.7999 11.4639 11.5345C11.4639 11.2691 11.5694 11.0146 11.757 10.827L13.586 9V6.586C13.5861 6.32081 13.6915 6.06649 13.879 5.879L17.414 2.343C17.5538 2.20307 17.7321 2.10776 17.9261 2.06913C18.1201 2.0305 18.3212 2.0503 18.504 2.126M17.121 5.463L15.586 7V8.414H17L18.536 6.879H18.121C17.8558 6.879 17.6014 6.77364 17.4139 6.58611C17.2264 6.39857 17.121 6.14422 17.121 5.879V5.463Z" fill="#2A7DEC"/>
</svg>
