<svg width="24" height="24" viewBox="0 0 24 24" fill="none" xmlns="http://www.w3.org/2000/svg">
<g id="mingcute:question-line">
<g id="Group">
<path id="Vector" d="M12 2C17.523 2 22 6.477 22 12C22 17.523 17.523 22 12 22C6.477 22 2 17.523 2 12C2 6.477 6.477 2 12 2ZM12 4C9.87827 4 7.84344 4.84285 6.34315 6.34315C4.84285 7.84344 4 9.87827 4 12C4 14.1217 4.84285 16.1566 6.34315 17.6569C7.84344 19.1571 9.87827 20 12 20C14.1217 20 16.1566 19.1571 17.6569 17.6569C19.1571 16.1566 20 14.1217 20 12C20 9.87827 19.1571 7.84344 17.6569 6.34315C16.1566 4.84285 14.1217 4 12 4ZM12 16C12.2652 16 12.5196 16.1054 12.7071 16.2929C12.8946 16.4804 13 16.7348 13 17C13 17.2652 12.8946 17.5196 12.7071 17.7071C12.5196 17.8946 12.2652 18 12 18C11.7348 18 11.4804 17.8946 11.2929 17.7071C11.1054 17.5196 11 17.2652 11 17C11 16.7348 11.1054 16.4804 11.2929 16.2929C11.4804 16.1054 11.7348 16 12 16ZM12 6.5C12.8423 6.50003 13.6583 6.79335 14.3078 7.3296C14.9573 7.86585 15.3998 8.61154 15.5593 9.43858C15.7188 10.2656 15.5853 11.1224 15.1818 11.8617C14.7783 12.601 14.1299 13.1768 13.348 13.49C13.2322 13.5326 13.1278 13.6014 13.043 13.691C12.999 13.741 12.992 13.805 12.993 13.871L13 14C12.9997 14.2549 12.9021 14.5 12.7272 14.6854C12.5522 14.8707 12.313 14.9822 12.0586 14.9972C11.8042 15.0121 11.5536 14.9293 11.3582 14.7657C11.1627 14.6021 11.0371 14.3701 11.007 14.117L11 14V13.75C11 12.597 11.93 11.905 12.604 11.634C12.8783 11.5245 13.1176 11.3423 13.2962 11.107C13.4748 10.8717 13.5859 10.5922 13.6176 10.2986C13.6493 10.0049 13.6004 9.70813 13.4762 9.44014C13.352 9.17215 13.1571 8.94307 12.9125 8.77748C12.6679 8.61189 12.3829 8.51606 12.0879 8.50027C11.793 8.48448 11.4993 8.54934 11.2384 8.68787C10.9775 8.8264 10.7593 9.03338 10.6072 9.28658C10.4551 9.53978 10.3748 9.82962 10.375 10.125C10.375 10.3902 10.2696 10.6446 10.0821 10.8321C9.89457 11.0196 9.64022 11.125 9.375 11.125C9.10978 11.125 8.85543 11.0196 8.66789 10.8321C8.48036 10.6446 8.375 10.3902 8.375 10.125C8.375 9.16359 8.75692 8.24156 9.43674 7.56174C10.1166 6.88192 11.0386 6.5 12 6.5Z" fill="#2A7DEC"/>
</g>
</g>
</svg>
