<svg width="200" height="160" viewBox="0 0 200 160" fill="none" xmlns="http://www.w3.org/2000/svg">
<rect width="200" height="160" rx="6" fill="white"/>
<path fill-rule="evenodd" clip-rule="evenodd" d="M196 0.5H4C2.067 0.5 0.5 2.067 0.5 4V156C0.5 157.933 2.067 159.5 4 159.5H196C197.933 159.5 199.5 157.933 199.5 156V4C199.5 2.067 197.933 0.5 196 0.5ZM4 0H196C198.209 0 200 1.79086 200 4V156C200 158.209 198.209 160 196 160H4C1.79086 160 0 158.209 0 156V4C0 1.79086 1.79086 0 4 0Z" fill="#E0E0E0"/>
<path d="M196 0H4C1.79086 0 0 1.79086 0 4V74H200V4C200 1.79086 198.209 0 196 0Z" fill="#EEEEEE"/>
<path fill-rule="evenodd" clip-rule="evenodd" d="M196 0.5H4C2.067 0.5 0.5 2.06701 0.5 4V73.5H199.5V4C199.5 2.067 197.933 0.5 196 0.5ZM4 0H196C198.209 0 200 1.79086 200 4V74H0V4C0 1.79086 1.79086 0 4 0Z" fill="#E0E0E0"/>
<path d="M199 22H14V73H199V22Z" fill="white"/>
<path d="M199 22H1C0.447715 22 0 21.5523 0 21H200C200 21.5523 199.552 22 199 22Z" fill="#EEEEEE"/>
<path fill-rule="evenodd" clip-rule="evenodd" d="M199.866 21.5C199.693 21.7989 199.37 22 199 22H1C0.629859 22 0.306687 21.7989 0.133782 21.5C0.0486972 21.3529 0 21.1821 0 21H200C200 21.1821 199.951 21.3529 199.866 21.5Z" fill="#E0E0E0"/>
<path d="M16.7461 12.6992H15.4102V15H14.6562V9.3125H16.5391C17.1797 9.3125 17.6719 9.45833 18.0156 9.75C18.362 10.0417 18.5352 10.4661 18.5352 11.0234C18.5352 11.3776 18.4388 11.6862 18.2461 11.9492C18.056 12.2122 17.7904 12.4089 17.4492 12.5391L18.7852 14.9531V15H17.9805L16.7461 12.6992ZM15.4102 12.0859H16.5625C16.9349 12.0859 17.2305 11.9896 17.4492 11.7969C17.6706 11.6042 17.7812 11.3464 17.7812 11.0234C17.7812 10.6719 17.6758 10.4023 17.4648 10.2148C17.2565 10.0273 16.9544 9.93229 16.5586 9.92969H15.4102V12.0859Z" fill="#757575"/>
<path d="M21.2305 15.0781C20.6576 15.0781 20.1914 14.8906 19.832 14.5156C19.4727 14.138 19.293 13.6341 19.293 13.0039V12.8711C19.293 12.4518 19.3724 12.0781 19.5312 11.75C19.6927 11.4193 19.9167 11.1615 20.2031 10.9766C20.4922 10.7891 20.8047 10.6953 21.1406 10.6953C21.6901 10.6953 22.1172 10.8763 22.4219 11.2383C22.7266 11.6003 22.8789 12.1185 22.8789 12.793V13.0938H20.0156C20.026 13.5104 20.1471 13.8477 20.3789 14.1055C20.6133 14.3607 20.9102 14.4883 21.2695 14.4883C21.5247 14.4883 21.7409 14.4362 21.918 14.332C22.0951 14.2279 22.25 14.0898 22.3828 13.918L22.8242 14.2617C22.4701 14.806 21.9388 15.0781 21.2305 15.0781ZM21.1406 11.2891C20.849 11.2891 20.6042 11.3958 20.4062 11.6094C20.2083 11.8203 20.0859 12.1172 20.0391 12.5H22.1562V12.4453C22.1354 12.0781 22.0365 11.7943 21.8594 11.5938C21.6823 11.3906 21.4427 11.2891 21.1406 11.2891Z" fill="#757575"/>
<path d="M26.1797 13.8789C26.1797 13.6836 26.1055 13.5326 25.957 13.4258C25.8112 13.3164 25.5547 13.2227 25.1875 13.1445C24.8229 13.0664 24.5326 12.9727 24.3164 12.8633C24.1029 12.7539 23.944 12.6237 23.8398 12.4727C23.7383 12.3216 23.6875 12.1419 23.6875 11.9336C23.6875 11.5872 23.8333 11.2943 24.125 11.0547C24.4193 10.8151 24.7943 10.6953 25.25 10.6953C25.7292 10.6953 26.1172 10.819 26.4141 11.0664C26.7135 11.3138 26.8633 11.6302 26.8633 12.0156H26.1367C26.1367 11.8177 26.0521 11.6471 25.8828 11.5039C25.7161 11.3607 25.5052 11.2891 25.25 11.2891C24.987 11.2891 24.7812 11.3464 24.6328 11.4609C24.4844 11.5755 24.4102 11.7253 24.4102 11.9102C24.4102 12.0846 24.4792 12.2161 24.6172 12.3047C24.7552 12.3932 25.0039 12.4779 25.3633 12.5586C25.7253 12.6393 26.0182 12.7357 26.2422 12.8477C26.4661 12.9596 26.6315 13.0951 26.7383 13.2539C26.8477 13.4102 26.9023 13.6016 26.9023 13.8281C26.9023 14.2057 26.7513 14.5091 26.4492 14.7383C26.1471 14.9648 25.7552 15.0781 25.2734 15.0781C24.9349 15.0781 24.6354 15.0182 24.375 14.8984C24.1146 14.7786 23.9102 14.612 23.7617 14.3984C23.6159 14.1823 23.543 13.9492 23.543 13.6992H24.2656C24.2786 13.9414 24.375 14.1341 24.5547 14.2773C24.737 14.418 24.9766 14.4883 25.2734 14.4883C25.5469 14.4883 25.7656 14.4336 25.9297 14.3242C26.0964 14.2122 26.1797 14.0638 26.1797 13.8789Z" fill="#757575"/>
<path d="M27.6523 12.8477C27.6523 12.4336 27.7331 12.0612 27.8945 11.7305C28.0586 11.3997 28.2852 11.1445 28.5742 10.9648C28.8659 10.7852 29.1979 10.6953 29.5703 10.6953C30.1458 10.6953 30.6107 10.8945 30.9648 11.293C31.3216 11.6914 31.5 12.2214 31.5 12.8828V12.9336C31.5 13.3451 31.4206 13.7148 31.2617 14.043C31.1055 14.3685 30.8802 14.6224 30.5859 14.8047C30.2943 14.987 29.9583 15.0781 29.5781 15.0781C29.0052 15.0781 28.5404 14.8789 28.1836 14.4805C27.8294 14.082 27.6523 13.5547 27.6523 12.8984V12.8477ZM28.3789 12.9336C28.3789 13.4023 28.487 13.7786 28.7031 14.0625C28.9219 14.3464 29.2135 14.4883 29.5781 14.4883C29.9453 14.4883 30.237 14.3451 30.4531 14.0586C30.6693 13.7695 30.7773 13.3659 30.7773 12.8477C30.7773 12.3841 30.6667 12.0091 30.4453 11.7227C30.2266 11.4336 29.9349 11.2891 29.5703 11.2891C29.2135 11.2891 28.9258 11.431 28.707 11.7148C28.4883 11.9987 28.3789 12.4049 28.3789 12.9336Z" fill="#757575"/>
<path d="M35.0156 14.582C34.7344 14.9128 34.3216 15.0781 33.7773 15.0781C33.3268 15.0781 32.9831 14.9479 32.7461 14.6875C32.5117 14.4245 32.3932 14.0365 32.3906 13.5234V10.7734H33.1133V13.5039C33.1133 14.1445 33.3737 14.4648 33.8945 14.4648C34.4466 14.4648 34.8138 14.2591 34.9961 13.8477V10.7734H35.7188V15H35.0312L35.0156 14.582Z" fill="#757575"/>
<path d="M38.8633 11.4219C38.7539 11.4036 38.6354 11.3945 38.5078 11.3945C38.0339 11.3945 37.7122 11.5964 37.543 12V15H36.8203V10.7734H37.5234L37.5352 11.2617C37.7721 10.8841 38.1081 10.6953 38.543 10.6953C38.6836 10.6953 38.7904 10.7135 38.8633 10.75V11.4219Z" fill="#757575"/>
<path d="M41.1484 14.4883C41.4062 14.4883 41.6315 14.4102 41.8242 14.2539C42.0169 14.0977 42.1237 13.9023 42.1445 13.668H42.8281C42.8151 13.9102 42.7318 14.1406 42.5781 14.3594C42.4245 14.5781 42.2188 14.7526 41.9609 14.8828C41.7057 15.013 41.4349 15.0781 41.1484 15.0781C40.5729 15.0781 40.1146 14.8867 39.7734 14.5039C39.4349 14.1185 39.2656 13.5924 39.2656 12.9258V12.8047C39.2656 12.3932 39.3411 12.0273 39.4922 11.707C39.6432 11.3867 39.8594 11.138 40.1406 10.9609C40.4245 10.7839 40.7591 10.6953 41.1445 10.6953C41.6185 10.6953 42.0117 10.8372 42.3242 11.1211C42.6393 11.4049 42.8073 11.7734 42.8281 12.2266H42.1445C42.1237 11.9531 42.0195 11.7292 41.832 11.5547C41.6471 11.3776 41.418 11.2891 41.1445 11.2891C40.7773 11.2891 40.4922 11.4219 40.2891 11.6875C40.0885 11.9505 39.9883 12.332 39.9883 12.832V12.9688C39.9883 13.4557 40.0885 13.8307 40.2891 14.0938C40.4896 14.3568 40.776 14.4883 41.1484 14.4883Z" fill="#757575"/>
<path d="M45.3945 15.0781C44.8216 15.0781 44.3555 14.8906 43.9961 14.5156C43.6367 14.138 43.457 13.6341 43.457 13.0039V12.8711C43.457 12.4518 43.5365 12.0781 43.6953 11.75C43.8568 11.4193 44.0807 11.1615 44.3672 10.9766C44.6562 10.7891 44.9688 10.6953 45.3047 10.6953C45.8542 10.6953 46.2812 10.8763 46.5859 11.2383C46.8906 11.6003 47.043 12.1185 47.043 12.793V13.0938H44.1797C44.1901 13.5104 44.3112 13.8477 44.543 14.1055C44.7773 14.3607 45.0742 14.4883 45.4336 14.4883C45.6888 14.4883 45.9049 14.4362 46.082 14.332C46.2591 14.2279 46.4141 14.0898 46.5469 13.918L46.9883 14.2617C46.6341 14.806 46.1029 15.0781 45.3945 15.0781ZM45.3047 11.2891C45.013 11.2891 44.7682 11.3958 44.5703 11.6094C44.3724 11.8203 44.25 12.1172 44.2031 12.5H46.3203V12.4453C46.2995 12.0781 46.2005 11.7943 46.0234 11.5938C45.8464 11.3906 45.6068 11.2891 45.3047 11.2891Z" fill="#757575"/>
<path d="M50.3438 13.8789C50.3438 13.6836 50.2695 13.5326 50.1211 13.4258C49.9753 13.3164 49.7188 13.2227 49.3516 13.1445C48.987 13.0664 48.6966 12.9727 48.4805 12.8633C48.2669 12.7539 48.1081 12.6237 48.0039 12.4727C47.9023 12.3216 47.8516 12.1419 47.8516 11.9336C47.8516 11.5872 47.9974 11.2943 48.2891 11.0547C48.5833 10.8151 48.9583 10.6953 49.4141 10.6953C49.8932 10.6953 50.2812 10.819 50.5781 11.0664C50.8776 11.3138 51.0273 11.6302 51.0273 12.0156H50.3008C50.3008 11.8177 50.2161 11.6471 50.0469 11.5039C49.8802 11.3607 49.6693 11.2891 49.4141 11.2891C49.151 11.2891 48.9453 11.3464 48.7969 11.4609C48.6484 11.5755 48.5742 11.7253 48.5742 11.9102C48.5742 12.0846 48.6432 12.2161 48.7812 12.3047C48.9193 12.3932 49.168 12.4779 49.5273 12.5586C49.8893 12.6393 50.1823 12.7357 50.4062 12.8477C50.6302 12.9596 50.7956 13.0951 50.9023 13.2539C51.0117 13.4102 51.0664 13.6016 51.0664 13.8281C51.0664 14.2057 50.9154 14.5091 50.6133 14.7383C50.3112 14.9648 49.9193 15.0781 49.4375 15.0781C49.099 15.0781 48.7995 15.0182 48.5391 14.8984C48.2786 14.7786 48.0742 14.612 47.9258 14.3984C47.7799 14.1823 47.707 13.9492 47.707 13.6992H48.4297C48.4427 13.9414 48.5391 14.1341 48.7188 14.2773C48.901 14.418 49.1406 14.4883 49.4375 14.4883C49.7109 14.4883 49.9297 14.4336 50.0938 14.3242C50.2604 14.2122 50.3438 14.0638 50.3438 13.8789Z" fill="#757575"/>
<path d="M18.592 30.488C18.592 30.648 18.5387 30.7893 18.432 30.912C18.3253 31.0346 18.184 31.096 18.008 31.096C17.8267 31.096 17.6827 31.0346 17.576 30.912C17.4693 30.7893 17.416 30.648 17.416 30.488C17.416 30.3226 17.4693 30.1786 17.576 30.056C17.6827 29.9333 17.8267 29.872 18.008 29.872C18.184 29.872 18.3253 29.9333 18.432 30.056C18.5387 30.1786 18.592 30.3226 18.592 30.488Z" fill="#272727"/>
<path d="M22.704 31.088C22.4693 31.088 22.2747 31.056 22.12 30.992C21.9653 30.928 21.8427 30.832 21.752 30.704C21.6613 30.576 21.5973 30.4186 21.56 30.232C21.5227 30.04 21.504 29.8186 21.504 29.568V26.056H20.432V25.496H22.16V29.568C22.16 29.7546 22.1707 29.9066 22.192 30.024C22.2187 30.1413 22.256 30.2373 22.304 30.312C22.3573 30.3813 22.4213 30.4293 22.496 30.456C22.5707 30.4826 22.6587 30.496 22.76 30.496C22.9147 30.496 23.0587 30.4773 23.192 30.44C23.3253 30.4026 23.4293 30.3626 23.504 30.32L23.6 30.88C23.568 30.896 23.5227 30.9173 23.464 30.944C23.4053 30.9653 23.336 30.9866 23.256 31.008C23.176 31.0293 23.088 31.048 22.992 31.064C22.9013 31.08 22.8053 31.088 22.704 31.088Z" fill="#272727"/>
<path d="M26.072 27.2C26.5733 27.2 26.96 27.3573 27.232 27.672C27.504 27.9813 27.64 28.4533 27.64 29.088V29.32H24.984C25.0107 29.704 25.136 29.9973 25.36 30.2C25.5893 30.3973 25.9093 30.496 26.32 30.496C26.5547 30.496 26.7547 30.4773 26.92 30.44C27.0853 30.4026 27.2107 30.3626 27.296 30.32L27.384 30.88C27.304 30.9226 27.16 30.968 26.952 31.016C26.744 31.064 26.5093 31.088 26.248 31.088C25.928 31.088 25.6453 31.04 25.4 30.944C25.16 30.8426 24.96 30.7066 24.8 30.536C24.64 30.3653 24.52 30.1626 24.44 29.928C24.36 29.688 24.32 29.4293 24.32 29.152C24.32 28.8213 24.3707 28.5333 24.472 28.288C24.5733 28.0426 24.7067 27.84 24.872 27.68C25.0373 27.52 25.224 27.4 25.432 27.32C25.64 27.24 25.8533 27.2 26.072 27.2ZM26.968 28.784C26.968 28.4693 26.8853 28.2213 26.72 28.04C26.5547 27.8533 26.336 27.76 26.064 27.76C25.9093 27.76 25.768 27.7893 25.64 27.848C25.5173 27.9066 25.4107 27.984 25.32 28.08C25.2293 28.176 25.1573 28.2853 25.104 28.408C25.0507 28.5306 25.016 28.656 25 28.784H26.968Z" fill="#272727"/>
<path d="M30.768 30.656C30.6933 30.6986 30.5787 30.744 30.424 30.792C30.2693 30.84 30.0907 30.864 29.888 30.864C29.6693 30.864 29.464 30.8293 29.272 30.76C29.0853 30.6853 28.92 30.576 28.776 30.432C28.6373 30.2826 28.5253 30.096 28.44 29.872C28.36 29.6426 28.32 29.3733 28.32 29.064C28.32 28.792 28.3573 28.544 28.432 28.32C28.512 28.0906 28.624 27.8933 28.768 27.728C28.9173 27.5626 29.0987 27.4346 29.312 27.344C29.5253 27.248 29.768 27.2 30.04 27.2C30.36 27.2 30.632 27.224 30.856 27.272C31.0853 27.3146 31.2773 27.3573 31.432 27.4V30.712C31.432 31.288 31.2853 31.704 30.992 31.96C30.704 32.216 30.2667 32.344 29.68 32.344C29.44 32.344 29.2213 32.3253 29.024 32.288C28.832 32.2506 28.6613 32.2053 28.512 32.152L28.632 31.568C28.7707 31.6266 28.928 31.6746 29.104 31.712C29.2853 31.7493 29.4827 31.768 29.696 31.768C30.08 31.768 30.3547 31.6906 30.52 31.536C30.6853 31.3813 30.768 31.1306 30.768 30.784V30.656ZM30.768 27.872C30.704 27.8506 30.616 27.832 30.504 27.816C30.392 27.7946 30.24 27.784 30.048 27.784C29.7067 27.784 29.4453 27.9013 29.264 28.136C29.088 28.3706 29 28.6826 29 29.072C29 29.2853 29.024 29.4693 29.072 29.624C29.1253 29.7733 29.1947 29.8986 29.28 30C29.3707 30.096 29.472 30.168 29.584 30.216C29.696 30.2586 29.816 30.28 29.944 30.28C30.1093 30.28 30.264 30.256 30.408 30.208C30.5573 30.16 30.6773 30.104 30.768 30.04V27.872Z" fill="#272727"/>
<path d="M34.072 27.2C34.5733 27.2 34.96 27.3573 35.232 27.672C35.504 27.9813 35.64 28.4533 35.64 29.088V29.32H32.984C33.0107 29.704 33.136 29.9973 33.36 30.2C33.5893 30.3973 33.9093 30.496 34.32 30.496C34.5547 30.496 34.7547 30.4773 34.92 30.44C35.0853 30.4026 35.2107 30.3626 35.296 30.32L35.384 30.88C35.304 30.9226 35.16 30.968 34.952 31.016C34.744 31.064 34.5093 31.088 34.248 31.088C33.928 31.088 33.6453 31.04 33.4 30.944C33.16 30.8426 32.96 30.7066 32.8 30.536C32.64 30.3653 32.52 30.1626 32.44 29.928C32.36 29.688 32.32 29.4293 32.32 29.152C32.32 28.8213 32.3707 28.5333 32.472 28.288C32.5733 28.0426 32.7067 27.84 32.872 27.68C33.0373 27.52 33.224 27.4 33.432 27.32C33.64 27.24 33.8533 27.2 34.072 27.2ZM34.968 28.784C34.968 28.4693 34.8853 28.2213 34.72 28.04C34.5547 27.8533 34.336 27.76 34.064 27.76C33.9093 27.76 33.768 27.7893 33.64 27.848C33.5173 27.9066 33.4107 27.984 33.32 28.08C33.2293 28.176 33.1573 28.2853 33.104 28.408C33.0507 28.5306 33.016 28.656 33 28.784H34.968Z" fill="#272727"/>
<path d="M36.568 27.392C36.808 27.3333 37.0453 27.288 37.28 27.256C37.52 27.224 37.744 27.208 37.952 27.208C38.448 27.208 38.8213 27.336 39.072 27.592C39.328 27.848 39.456 28.2586 39.456 28.824V31H38.8V28.944C38.8 28.704 38.7787 28.5093 38.736 28.36C38.6933 28.2106 38.632 28.096 38.552 28.016C38.4773 27.9306 38.384 27.872 38.272 27.84C38.1653 27.808 38.048 27.792 37.92 27.792C37.8133 27.792 37.6987 27.8 37.576 27.816C37.4587 27.8266 37.344 27.8426 37.232 27.864V31H36.568V27.392Z" fill="#272727"/>
<path d="M42.768 28.072C42.6933 28.0026 42.584 27.9386 42.44 27.88C42.296 27.816 42.1467 27.784 41.992 27.784C41.816 27.784 41.664 27.8186 41.536 27.888C41.4133 27.9573 41.312 28.0533 41.232 28.176C41.152 28.2933 41.0933 28.4373 41.056 28.608C41.0187 28.7733 41 28.952 41 29.144C41 29.576 41.1013 29.9093 41.304 30.144C41.5067 30.3786 41.7707 30.496 42.096 30.496C42.2613 30.496 42.4 30.488 42.512 30.472C42.6293 30.456 42.7147 30.44 42.768 30.424V28.072ZM42.768 25.568L43.432 25.456V30.896C43.288 30.9386 43.104 30.9813 42.88 31.024C42.656 31.0666 42.3947 31.088 42.096 31.088C41.8293 31.088 41.5867 31.0426 41.368 30.952C41.1493 30.8613 40.9627 30.7333 40.808 30.568C40.6533 30.3973 40.5333 30.192 40.448 29.952C40.3627 29.712 40.32 29.4426 40.32 29.144C40.32 28.856 40.3547 28.5946 40.424 28.36C40.4987 28.12 40.6053 27.9146 40.744 27.744C40.8827 27.5733 41.048 27.44 41.24 27.344C41.4373 27.248 41.6613 27.2 41.912 27.2C42.1093 27.2 42.2827 27.224 42.432 27.272C42.5813 27.32 42.6933 27.3706 42.768 27.424V25.568Z" fill="#272727"/>
<path d="M48.632 28.608H48.952C49.0427 28.608 49.1227 28.5893 49.192 28.552C49.2613 28.5093 49.3173 28.456 49.36 28.392C49.408 28.3226 49.4427 28.248 49.464 28.168C49.4907 28.0826 49.504 27.9973 49.504 27.912V26.624C49.504 26.4266 49.5227 26.2533 49.56 26.104C49.6027 25.9546 49.672 25.8293 49.768 25.728C49.864 25.6213 49.992 25.5413 50.152 25.488C50.3173 25.4346 50.5227 25.408 50.768 25.408H51.416V25.928H50.736C50.512 25.928 50.352 25.9786 50.256 26.08C50.1653 26.1813 50.12 26.3653 50.12 26.632V27.736C50.12 28.0933 50.0667 28.3573 49.96 28.528C49.8533 28.6933 49.7307 28.8053 49.592 28.864C49.7307 28.928 49.8533 29.048 49.96 29.224C50.0667 29.4 50.12 29.656 50.12 29.992V31.096C50.12 31.3626 50.168 31.5466 50.264 31.648C50.36 31.7493 50.52 31.8 50.744 31.8H51.416V32.32H50.768C50.5227 32.32 50.3173 32.2933 50.152 32.24C49.992 32.1866 49.864 32.1066 49.768 32C49.672 31.8986 49.6027 31.7733 49.56 31.624C49.5227 31.4746 49.504 31.3013 49.504 31.104V29.816C49.504 29.736 49.4907 29.656 49.464 29.576C49.4427 29.4906 49.408 29.416 49.36 29.352C49.3173 29.2826 49.2613 29.2266 49.192 29.184C49.128 29.1413 49.0507 29.12 48.96 29.12H48.632V28.608Z" fill="#272727"/>
<path d="M33.288 39V35.84H32.504V35.288H33.288V34.952C33.288 34.664 33.328 34.4266 33.408 34.24C33.488 34.048 33.592 33.8933 33.72 33.776C33.8533 33.6586 34.0053 33.576 34.176 33.528C34.352 33.48 34.536 33.456 34.728 33.456C34.92 33.456 35.112 33.4773 35.304 33.52C35.5013 33.5626 35.6853 33.6133 35.856 33.672L35.736 34.24C35.6187 34.1813 35.472 34.1306 35.296 34.088C35.12 34.0453 34.9413 34.024 34.76 34.024C34.648 34.024 34.5413 34.04 34.44 34.072C34.344 34.0986 34.2587 34.1493 34.184 34.224C34.1093 34.2933 34.0507 34.3893 34.008 34.512C33.9653 34.6293 33.944 34.7786 33.944 34.96V35.288H35.44V35.84H33.944V39H33.288Z" fill="#272727"/>
<path d="M39.68 37.144C39.68 37.4373 39.6373 37.704 39.552 37.944C39.472 38.1786 39.3573 38.3813 39.208 38.552C39.0587 38.7226 38.88 38.856 38.672 38.952C38.464 39.0426 38.2373 39.088 37.992 39.088C37.752 39.088 37.528 39.0426 37.32 38.952C37.1173 38.856 36.9413 38.7226 36.792 38.552C36.6427 38.3813 36.5253 38.1786 36.44 37.944C36.36 37.704 36.32 37.4373 36.32 37.144C36.32 36.8506 36.36 36.584 36.44 36.344C36.5253 36.104 36.6427 35.9013 36.792 35.736C36.9413 35.5653 37.1173 35.4346 37.32 35.344C37.528 35.248 37.752 35.2 37.992 35.2C38.2373 35.2 38.464 35.248 38.672 35.344C38.88 35.4346 39.0587 35.5653 39.208 35.736C39.3573 35.9013 39.472 36.104 39.552 36.344C39.6373 36.584 39.68 36.8506 39.68 37.144ZM39 37.144C39 36.7226 38.9093 36.392 38.728 36.152C38.5467 35.9066 38.3013 35.784 37.992 35.784C37.688 35.784 37.4453 35.9066 37.264 36.152C37.088 36.392 37 36.7226 37 37.144C37 37.56 37.088 37.8906 37.264 38.136C37.4453 38.376 37.688 38.496 37.992 38.496C38.3013 38.496 38.5467 38.376 38.728 38.136C38.9093 37.8906 39 37.56 39 37.144Z" fill="#272727"/>
<path d="M40.568 35.392C40.808 35.3333 41.0453 35.288 41.28 35.256C41.52 35.224 41.744 35.208 41.952 35.208C42.448 35.208 42.8213 35.336 43.072 35.592C43.328 35.848 43.456 36.2586 43.456 36.824V39H42.8V36.944C42.8 36.704 42.7787 36.5093 42.736 36.36C42.6933 36.2106 42.632 36.096 42.552 36.016C42.4773 35.9306 42.384 35.872 42.272 35.84C42.1653 35.808 42.048 35.792 41.92 35.792C41.8133 35.792 41.6987 35.8 41.576 35.816C41.4587 35.8266 41.344 35.8426 41.232 35.864V39H40.568V35.392Z" fill="#272727"/>
<path d="M45.944 35.288H47.512V35.84H45.944V37.568C45.944 37.7546 45.9573 37.9066 45.984 38.024C46.0107 38.1413 46.0533 38.2373 46.112 38.312C46.176 38.3813 46.256 38.4293 46.352 38.456C46.448 38.4826 46.5653 38.496 46.704 38.496C46.896 38.496 47.0507 38.48 47.168 38.448C47.2853 38.416 47.3973 38.3733 47.504 38.32L47.6 38.88C47.5253 38.912 47.4053 38.9546 47.24 39.008C47.08 39.0613 46.88 39.088 46.64 39.088C46.3627 39.088 46.136 39.056 45.96 38.992C45.784 38.928 45.6453 38.832 45.544 38.704C45.448 38.576 45.3813 38.4186 45.344 38.232C45.3067 38.04 45.288 37.8186 45.288 37.568V35.84H44.504V35.288H45.288V34.248L45.944 34.136V35.288Z" fill="#272727"/>
<path d="M49.12 36.656H50.88V37.28H49.12V36.656Z" fill="#272727"/>
<path d="M54.808 38.072C54.808 37.9386 54.752 37.8293 54.64 37.744C54.5333 37.6586 54.3973 37.584 54.232 37.52C54.072 37.456 53.896 37.3946 53.704 37.336C53.512 37.272 53.3333 37.1946 53.168 37.104C53.008 37.0133 52.872 36.9013 52.76 36.768C52.6533 36.6346 52.6 36.4613 52.6 36.248C52.6 35.9493 52.72 35.7013 52.96 35.504C53.2053 35.3013 53.5867 35.2 54.104 35.2C54.3067 35.2 54.5147 35.216 54.728 35.248C54.9467 35.2746 55.1333 35.312 55.288 35.36L55.168 35.952C55.1253 35.9306 55.0667 35.9093 54.992 35.888C54.9173 35.8613 54.832 35.84 54.736 35.824C54.64 35.8026 54.536 35.7866 54.424 35.776C54.3173 35.7653 54.2133 35.76 54.112 35.76C53.536 35.76 53.248 35.9173 53.248 36.232C53.248 36.344 53.3013 36.44 53.408 36.52C53.52 36.5946 53.6587 36.664 53.824 36.728C53.9893 36.792 54.168 36.8586 54.36 36.928C54.552 36.992 54.7307 37.072 54.896 37.168C55.0613 37.264 55.1973 37.3813 55.304 37.52C55.416 37.6533 55.472 37.824 55.472 38.032C55.472 38.368 55.3413 38.6293 55.08 38.816C54.8187 38.9973 54.4053 39.088 53.84 39.088C53.584 39.088 53.3493 39.0666 53.136 39.024C52.9227 38.9813 52.72 38.9173 52.528 38.832L52.656 38.232C52.8426 38.3173 53.0373 38.3893 53.24 38.448C53.448 38.5013 53.6693 38.528 53.904 38.528C54.5067 38.528 54.808 38.376 54.808 38.072Z" fill="#272727"/>
<path d="M57.672 34.712C57.5333 34.712 57.4133 34.664 57.312 34.568C57.2107 34.472 57.16 34.3413 57.16 34.176C57.16 34.0106 57.2107 33.88 57.312 33.784C57.4133 33.688 57.5333 33.64 57.672 33.64C57.816 33.64 57.936 33.688 58.032 33.784C58.1333 33.88 58.184 34.0106 58.184 34.176C58.184 34.3413 58.1333 34.472 58.032 34.568C57.936 34.664 57.816 34.712 57.672 34.712ZM57.504 35.84H56.432V35.288H58.16V37.568C58.16 37.936 58.2107 38.184 58.312 38.312C58.4133 38.4346 58.5653 38.496 58.768 38.496C58.9227 38.496 59.064 38.4773 59.192 38.44C59.3253 38.4026 59.4293 38.3626 59.504 38.32L59.6 38.88C59.568 38.896 59.5227 38.9173 59.464 38.944C59.4053 38.9653 59.336 38.9866 59.256 39.008C59.1813 39.0293 59.096 39.048 59 39.064C58.9093 39.08 58.8133 39.088 58.712 39.088C58.4773 39.088 58.2826 39.056 58.128 38.992C57.9733 38.928 57.848 38.832 57.752 38.704C57.6613 38.576 57.5973 38.4186 57.56 38.232C57.5227 38.04 57.504 37.8186 57.504 37.568V35.84Z" fill="#272727"/>
<path d="M63.36 35.784C63.264 35.896 63.1333 36.0533 62.968 36.256C62.8026 36.4533 62.624 36.6746 62.432 36.92C62.2453 37.16 62.0587 37.4133 61.872 37.68C61.6853 37.9466 61.52 38.2 61.376 38.44H63.416V39H60.584V38.56C60.696 38.3466 60.8347 38.1146 61 37.864C61.1707 37.608 61.3467 37.3573 61.528 37.112C61.7093 36.8613 61.8853 36.624 62.056 36.4C62.232 36.176 62.384 35.9893 62.512 35.84H60.688V35.288H63.36V35.784Z" fill="#272727"/>
<path d="M66.072 35.2C66.5733 35.2 66.96 35.3573 67.232 35.672C67.504 35.9813 67.64 36.4533 67.64 37.088V37.32H64.984C65.0107 37.704 65.136 37.9973 65.36 38.2C65.5893 38.3973 65.9093 38.496 66.32 38.496C66.5547 38.496 66.7546 38.4773 66.92 38.44C67.0853 38.4026 67.2107 38.3626 67.296 38.32L67.384 38.88C67.304 38.9226 67.16 38.968 66.952 39.016C66.744 39.064 66.5093 39.088 66.248 39.088C65.928 39.088 65.6453 39.04 65.4 38.944C65.16 38.8426 64.96 38.7066 64.8 38.536C64.64 38.3653 64.52 38.1626 64.44 37.928C64.36 37.688 64.32 37.4293 64.32 37.152C64.32 36.8213 64.3707 36.5333 64.472 36.288C64.5733 36.0426 64.7067 35.84 64.872 35.68C65.0373 35.52 65.224 35.4 65.432 35.32C65.64 35.24 65.8533 35.2 66.072 35.2ZM66.968 36.784C66.968 36.4693 66.8853 36.2213 66.72 36.04C66.5547 35.8533 66.336 35.76 66.064 35.76C65.9093 35.76 65.768 35.7893 65.64 35.848C65.5173 35.9066 65.4107 35.984 65.32 36.08C65.2293 36.176 65.1573 36.2853 65.104 36.408C65.0507 36.5306 65.016 36.656 65 36.784H66.968Z" fill="#272727"/>
<path d="M70.592 38.488C70.592 38.648 70.5387 38.7893 70.432 38.912C70.3253 39.0346 70.184 39.096 70.008 39.096C69.8267 39.096 69.6827 39.0346 69.576 38.912C69.4693 38.7893 69.416 38.648 69.416 38.488C69.416 38.3226 69.4693 38.1786 69.576 38.056C69.6827 37.9333 69.8267 37.872 70.008 37.872C70.184 37.872 70.3253 37.9333 70.432 38.056C70.5387 38.1786 70.592 38.3226 70.592 38.488ZM70.592 35.904C70.592 36.064 70.5387 36.2053 70.432 36.328C70.3253 36.4506 70.184 36.512 70.008 36.512C69.8267 36.512 69.6827 36.4506 69.576 36.328C69.4693 36.2053 69.416 36.064 69.416 35.904C69.416 35.7386 69.4693 35.5946 69.576 35.472C69.6827 35.3493 69.8267 35.288 70.008 35.288C70.184 35.288 70.3253 35.3493 70.432 35.472C70.5387 35.5946 70.592 35.7386 70.592 35.904Z" fill="#272727"/>
<path d="M76.6 35.072C76.872 34.9653 77.136 34.832 77.392 34.672C77.648 34.5066 77.8853 34.2986 78.104 34.048H78.568V38.44H79.504V39H76.84V38.44H77.912V34.968C77.8533 35.0213 77.7813 35.0773 77.696 35.136C77.616 35.1893 77.5253 35.2426 77.424 35.296C77.328 35.3493 77.2267 35.4 77.12 35.448C77.0133 35.496 76.9093 35.536 76.808 35.568L76.6 35.072Z" fill="#272727"/>
<path d="M81.696 38.52C82.1173 38.52 82.416 38.4373 82.592 38.272C82.7733 38.1013 82.864 37.8746 82.864 37.592C82.864 37.4106 82.8267 37.2586 82.752 37.136C82.6773 37.0133 82.5787 36.9146 82.456 36.84C82.3333 36.7653 82.192 36.712 82.032 36.68C81.872 36.648 81.704 36.632 81.528 36.632H81.36V36.096H81.592C81.7093 36.096 81.8293 36.0853 81.952 36.064C82.08 36.0373 82.1946 35.9946 82.296 35.936C82.4026 35.872 82.488 35.7866 82.552 35.68C82.616 35.5733 82.648 35.4373 82.648 35.272C82.648 35 82.5626 34.808 82.392 34.696C82.2266 34.5786 82.032 34.52 81.808 34.52C81.5787 34.52 81.384 34.5546 81.224 34.624C81.064 34.688 80.9306 34.7546 80.824 34.824L80.568 34.32C80.68 34.24 80.848 34.1573 81.072 34.072C81.3013 33.9813 81.5547 33.936 81.832 33.936C82.0933 33.936 82.3173 33.968 82.504 34.032C82.6906 34.096 82.8427 34.1866 82.96 34.304C83.0827 34.4213 83.1733 34.56 83.232 34.72C83.2907 34.8746 83.32 35.0453 83.32 35.232C83.32 35.4933 83.2507 35.7146 83.112 35.896C82.9787 36.0773 82.8053 36.216 82.592 36.312C82.848 36.3866 83.0693 36.5333 83.256 36.752C83.4426 36.9653 83.536 37.2506 83.536 37.608C83.536 37.8213 83.4987 38.0213 83.424 38.208C83.3547 38.3893 83.2453 38.5466 83.096 38.68C82.952 38.8133 82.7627 38.9173 82.528 38.992C82.2987 39.0666 82.024 39.104 81.704 39.104C81.5813 39.104 81.4533 39.0933 81.32 39.072C81.192 39.056 81.072 39.032 80.96 39C80.848 38.9733 80.7466 38.9466 80.656 38.92C80.5706 38.888 80.5093 38.864 80.472 38.848L80.6 38.28C80.6853 38.3226 80.8213 38.3733 81.008 38.432C81.1947 38.4906 81.424 38.52 81.696 38.52Z" fill="#272727"/>
<path d="M87 37.152C87 36.72 86.8987 36.3866 86.696 36.152C86.4933 35.912 86.2293 35.792 85.904 35.792C85.7227 35.792 85.5787 35.8 85.472 35.816C85.3707 35.832 85.2907 35.8506 85.232 35.872V38.216C85.3067 38.2853 85.416 38.3493 85.56 38.408C85.704 38.4666 85.8533 38.496 86.008 38.496C86.184 38.496 86.3333 38.4613 86.456 38.392C86.584 38.3226 86.688 38.2293 86.768 38.112C86.848 37.9893 86.9067 37.848 86.944 37.688C86.9813 37.5226 87 37.344 87 37.152ZM87.68 37.152C87.68 37.4346 87.6427 37.696 87.568 37.936C87.4987 38.1706 87.3946 38.3733 87.256 38.544C87.1226 38.7146 86.9573 38.848 86.76 38.944C86.5627 39.04 86.3386 39.088 86.088 39.088C85.8906 39.088 85.7173 39.064 85.568 39.016C85.4187 38.968 85.3067 38.9146 85.232 38.856V40.32H84.568V35.4C84.712 35.3573 84.896 35.3146 85.12 35.272C85.3493 35.2293 85.6107 35.208 85.904 35.208C86.1707 35.208 86.4133 35.2533 86.632 35.344C86.8507 35.4346 87.0373 35.5653 87.192 35.736C87.3467 35.9013 87.4667 36.104 87.552 36.344C87.6373 36.584 87.68 36.8533 87.68 37.152Z" fill="#272727"/>
<path d="M91.04 39C90.9867 38.8933 90.92 38.776 90.84 38.648C90.7653 38.52 90.6827 38.3893 90.592 38.256C90.5013 38.1173 90.4053 37.9813 90.304 37.848C90.208 37.7146 90.112 37.5893 90.016 37.472C89.92 37.5946 89.8186 37.7226 89.712 37.856C89.6053 37.9893 89.5013 38.1253 89.4 38.264C89.304 38.3973 89.2133 38.528 89.128 38.656C89.0426 38.784 88.9707 38.8986 88.912 39H88.232C88.408 38.68 88.6213 38.352 88.872 38.016C89.128 37.6746 89.3787 37.352 89.624 37.048L88.288 35.288H89.032L90.032 36.584L90.952 35.288H91.656L90.432 37.008C90.672 37.3226 90.912 37.6506 91.152 37.992C91.3973 38.3333 91.6053 38.6693 91.776 39H91.04Z" fill="#272727"/>
<path d="M93 39.632C93.096 39.6106 93.1893 39.5893 93.28 39.568C93.376 39.5466 93.464 39.5146 93.544 39.472C93.624 39.4346 93.696 39.384 93.76 39.32C93.824 39.2613 93.8747 39.1786 93.912 39.072C93.7413 39.056 93.616 38.992 93.536 38.88C93.4613 38.7626 93.424 38.648 93.424 38.536C93.424 38.3226 93.4826 38.1626 93.6 38.056C93.7226 37.944 93.8613 37.888 94.016 37.888C94.2133 37.888 94.3626 37.96 94.464 38.104C94.5653 38.2426 94.616 38.4133 94.616 38.616C94.616 38.7706 94.584 38.9306 94.52 39.096C94.4613 39.2666 94.368 39.424 94.24 39.568C94.1173 39.7173 93.9627 39.8426 93.776 39.944C93.5893 40.0506 93.368 40.12 93.112 40.152L93 39.632ZM94.592 35.904C94.592 36.064 94.5387 36.2053 94.432 36.328C94.3253 36.4506 94.184 36.512 94.008 36.512C93.8267 36.512 93.6826 36.4506 93.576 36.328C93.4693 36.2053 93.416 36.064 93.416 35.904C93.416 35.7386 93.4693 35.5946 93.576 35.472C93.6826 35.3493 93.8267 35.288 94.008 35.288C94.184 35.288 94.3253 35.3493 94.432 35.472C94.5387 35.5946 94.592 35.7386 94.592 35.904Z" fill="#272727"/>
<path d="M34.704 47.088C34.4693 47.088 34.2747 47.056 34.12 46.992C33.9653 46.928 33.8427 46.832 33.752 46.704C33.6613 46.576 33.5973 46.4186 33.56 46.232C33.5227 46.04 33.504 45.8186 33.504 45.568V42.056H32.432V41.496H34.16V45.568C34.16 45.7546 34.1707 45.9066 34.192 46.024C34.2187 46.1413 34.256 46.2373 34.304 46.312C34.3573 46.3813 34.4213 46.4293 34.496 46.456C34.5707 46.4826 34.6587 46.496 34.76 46.496C34.9147 46.496 35.0587 46.4773 35.192 46.44C35.3253 46.4026 35.4293 46.3626 35.504 46.32L35.6 46.88C35.568 46.896 35.5227 46.9173 35.464 46.944C35.4053 46.9653 35.336 46.9866 35.256 47.008C35.176 47.0293 35.088 47.048 34.992 47.064C34.9013 47.08 34.8053 47.088 34.704 47.088Z" fill="#272727"/>
<path d="M37.672 42.712C37.5333 42.712 37.4133 42.664 37.312 42.568C37.2107 42.472 37.16 42.3413 37.16 42.176C37.16 42.0106 37.2107 41.88 37.312 41.784C37.4133 41.688 37.5333 41.64 37.672 41.64C37.816 41.64 37.936 41.688 38.032 41.784C38.1333 41.88 38.184 42.0106 38.184 42.176C38.184 42.3413 38.1333 42.472 38.032 42.568C37.936 42.664 37.816 42.712 37.672 42.712ZM37.504 43.84H36.432V43.288H38.16V45.568C38.16 45.936 38.2107 46.184 38.312 46.312C38.4133 46.4346 38.5653 46.496 38.768 46.496C38.9227 46.496 39.064 46.4773 39.192 46.44C39.3253 46.4026 39.4293 46.3626 39.504 46.32L39.6 46.88C39.568 46.896 39.5227 46.9173 39.464 46.944C39.4053 46.9653 39.336 46.9866 39.256 47.008C39.1813 47.0293 39.096 47.048 39 47.064C38.9093 47.08 38.8133 47.088 38.712 47.088C38.4773 47.088 38.2827 47.056 38.128 46.992C37.9733 46.928 37.848 46.832 37.752 46.704C37.6613 46.576 37.5973 46.4186 37.56 46.232C37.5227 46.04 37.504 45.8186 37.504 45.568V43.84Z" fill="#272727"/>
<path d="M40.568 43.392C40.808 43.3333 41.0453 43.288 41.28 43.256C41.52 43.224 41.744 43.208 41.952 43.208C42.448 43.208 42.8213 43.336 43.072 43.592C43.328 43.848 43.456 44.2586 43.456 44.824V47H42.8V44.944C42.8 44.704 42.7787 44.5093 42.736 44.36C42.6933 44.2106 42.632 44.096 42.552 44.016C42.4773 43.9306 42.384 43.872 42.272 43.84C42.1653 43.808 42.048 43.792 41.92 43.792C41.8133 43.792 41.6987 43.8 41.576 43.816C41.4587 43.8266 41.344 43.8426 41.232 43.864V47H40.568V43.392Z" fill="#272727"/>
<path d="M46.072 43.2C46.5733 43.2 46.96 43.3573 47.232 43.672C47.504 43.9813 47.64 44.4533 47.64 45.088V45.32H44.984C45.0107 45.704 45.136 45.9973 45.36 46.2C45.5893 46.3973 45.9093 46.496 46.32 46.496C46.5547 46.496 46.7547 46.4773 46.92 46.44C47.0853 46.4026 47.2107 46.3626 47.296 46.32L47.384 46.88C47.304 46.9226 47.16 46.968 46.952 47.016C46.744 47.064 46.5093 47.088 46.248 47.088C45.928 47.088 45.6453 47.04 45.4 46.944C45.16 46.8426 44.96 46.7066 44.8 46.536C44.64 46.3653 44.52 46.1626 44.44 45.928C44.36 45.688 44.32 45.4293 44.32 45.152C44.32 44.8213 44.3707 44.5333 44.472 44.288C44.5733 44.0426 44.7067 43.84 44.872 43.68C45.0373 43.52 45.224 43.4 45.432 43.32C45.64 43.24 45.8533 43.2 46.072 43.2ZM46.968 44.784C46.968 44.4693 46.8853 44.2213 46.72 44.04C46.5547 43.8533 46.336 43.76 46.064 43.76C45.9093 43.76 45.768 43.7893 45.64 43.848C45.5173 43.9066 45.4107 43.984 45.32 44.08C45.2293 44.176 45.1573 44.2853 45.104 44.408C45.0507 44.5306 45.016 44.656 45 44.784H46.968Z" fill="#272727"/>
<path d="M49.12 44.656H50.88V45.28H49.12V44.656Z" fill="#272727"/>
<path d="M52.568 47V41.568L53.232 41.456V43.344C53.3386 43.3013 53.4587 43.2693 53.592 43.248C53.7253 43.2213 53.856 43.208 53.984 43.208C54.2667 43.208 54.5013 43.2506 54.688 43.336C54.88 43.416 55.032 43.5306 55.144 43.68C55.256 43.8293 55.336 44.008 55.384 44.216C55.432 44.424 55.456 44.6533 55.456 44.904V47H54.8V45.048C54.8 44.5893 54.736 44.2666 54.608 44.08C54.48 43.888 54.2506 43.792 53.92 43.792C53.7813 43.792 53.6453 43.808 53.512 43.84C53.384 43.8666 53.2906 43.8933 53.232 43.92V47H52.568Z" fill="#272727"/>
<path d="M58.072 43.2C58.5733 43.2 58.96 43.3573 59.232 43.672C59.504 43.9813 59.64 44.4533 59.64 45.088V45.32H56.984C57.0107 45.704 57.136 45.9973 57.36 46.2C57.5893 46.3973 57.9093 46.496 58.32 46.496C58.5547 46.496 58.7546 46.4773 58.92 46.44C59.0853 46.4026 59.2107 46.3626 59.296 46.32L59.384 46.88C59.304 46.9226 59.16 46.968 58.952 47.016C58.744 47.064 58.5093 47.088 58.248 47.088C57.928 47.088 57.6453 47.04 57.4 46.944C57.16 46.8426 56.96 46.7066 56.8 46.536C56.64 46.3653 56.52 46.1626 56.44 45.928C56.36 45.688 56.32 45.4293 56.32 45.152C56.32 44.8213 56.3707 44.5333 56.472 44.288C56.5733 44.0426 56.7067 43.84 56.872 43.68C57.0373 43.52 57.224 43.4 57.432 43.32C57.64 43.24 57.8533 43.2 58.072 43.2ZM58.968 44.784C58.968 44.4693 58.8853 44.2213 58.72 44.04C58.5547 43.8533 58.336 43.76 58.064 43.76C57.9093 43.76 57.768 43.7893 57.64 43.848C57.5173 43.9066 57.4107 43.984 57.32 44.08C57.2293 44.176 57.1573 44.2853 57.104 44.408C57.0507 44.5306 57.016 44.656 57 44.784H58.968Z" fill="#272727"/>
<path d="M61.672 42.712C61.5333 42.712 61.4133 42.664 61.312 42.568C61.2107 42.472 61.16 42.3413 61.16 42.176C61.16 42.0106 61.2107 41.88 61.312 41.784C61.4133 41.688 61.5333 41.64 61.672 41.64C61.816 41.64 61.936 41.688 62.032 41.784C62.1333 41.88 62.184 42.0106 62.184 42.176C62.184 42.3413 62.1333 42.472 62.032 42.568C61.936 42.664 61.816 42.712 61.672 42.712ZM61.504 43.84H60.432V43.288H62.16V45.568C62.16 45.936 62.2107 46.184 62.312 46.312C62.4133 46.4346 62.5653 46.496 62.768 46.496C62.9227 46.496 63.064 46.4773 63.192 46.44C63.3253 46.4026 63.4293 46.3626 63.504 46.32L63.6 46.88C63.568 46.896 63.5227 46.9173 63.464 46.944C63.4053 46.9653 63.336 46.9866 63.256 47.008C63.1813 47.0293 63.096 47.048 63 47.064C62.9093 47.08 62.8133 47.088 62.712 47.088C62.4773 47.088 62.2826 47.056 62.128 46.992C61.9733 46.928 61.848 46.832 61.752 46.704C61.6613 46.576 61.5973 46.4186 61.56 46.232C61.5227 46.04 61.504 45.8186 61.504 45.568V43.84Z" fill="#272727"/>
<path d="M66.768 46.656C66.6933 46.6986 66.5787 46.744 66.424 46.792C66.2693 46.84 66.0907 46.864 65.888 46.864C65.6693 46.864 65.464 46.8293 65.272 46.76C65.0853 46.6853 64.92 46.576 64.776 46.432C64.6373 46.2826 64.5253 46.096 64.44 45.872C64.36 45.6426 64.32 45.3733 64.32 45.064C64.32 44.792 64.3573 44.544 64.432 44.32C64.512 44.0906 64.624 43.8933 64.768 43.728C64.9173 43.5626 65.0987 43.4346 65.312 43.344C65.5253 43.248 65.768 43.2 66.04 43.2C66.36 43.2 66.632 43.224 66.856 43.272C67.0853 43.3146 67.2773 43.3573 67.432 43.4V46.712C67.432 47.288 67.2853 47.704 66.992 47.96C66.704 48.216 66.2667 48.344 65.68 48.344C65.44 48.344 65.2213 48.3253 65.024 48.288C64.832 48.2506 64.6613 48.2053 64.512 48.152L64.632 47.568C64.7707 47.6266 64.928 47.6746 65.104 47.712C65.2853 47.7493 65.4827 47.768 65.696 47.768C66.08 47.768 66.3547 47.6906 66.52 47.536C66.6853 47.3813 66.768 47.1306 66.768 46.784V46.656ZM66.768 43.872C66.704 43.8506 66.616 43.832 66.504 43.816C66.392 43.7946 66.24 43.784 66.048 43.784C65.7067 43.784 65.4453 43.9013 65.264 44.136C65.088 44.3706 65 44.6826 65 45.072C65 45.2853 65.024 45.4693 65.072 45.624C65.1253 45.7733 65.1947 45.8986 65.28 46C65.3707 46.096 65.472 46.168 65.584 46.216C65.696 46.2586 65.816 46.28 65.944 46.28C66.1093 46.28 66.264 46.256 66.408 46.208C66.5573 46.16 66.6773 46.104 66.768 46.04V43.872Z" fill="#272727"/>
<path d="M68.568 47V41.568L69.232 41.456V43.344C69.3386 43.3013 69.4587 43.2693 69.592 43.248C69.7253 43.2213 69.856 43.208 69.984 43.208C70.2667 43.208 70.5013 43.2506 70.688 43.336C70.88 43.416 71.032 43.5306 71.144 43.68C71.256 43.8293 71.336 44.008 71.384 44.216C71.432 44.424 71.456 44.6533 71.456 44.904V47H70.8V45.048C70.8 44.5893 70.736 44.2666 70.608 44.08C70.48 43.888 70.2506 43.792 69.92 43.792C69.7813 43.792 69.6453 43.808 69.512 43.84C69.384 43.8666 69.2906 43.8933 69.232 43.92V47H68.568Z" fill="#272727"/>
<path d="M73.944 43.288H75.512V43.84H73.944V45.568C73.944 45.7546 73.9573 45.9066 73.984 46.024C74.0107 46.1413 74.0533 46.2373 74.112 46.312C74.176 46.3813 74.256 46.4293 74.352 46.456C74.448 46.4826 74.5653 46.496 74.704 46.496C74.896 46.496 75.0507 46.48 75.168 46.448C75.2853 46.416 75.3973 46.3733 75.504 46.32L75.6 46.88C75.5253 46.912 75.4053 46.9546 75.24 47.008C75.08 47.0613 74.88 47.088 74.64 47.088C74.3627 47.088 74.136 47.056 73.96 46.992C73.784 46.928 73.6453 46.832 73.544 46.704C73.448 46.576 73.3813 46.4186 73.344 46.232C73.3067 46.04 73.288 45.8186 73.288 45.568V43.84H72.504V43.288H73.288V42.248L73.944 42.136V43.288Z" fill="#272727"/>
<path d="M78.592 46.488C78.592 46.648 78.5387 46.7893 78.432 46.912C78.3253 47.0346 78.184 47.096 78.008 47.096C77.8267 47.096 77.6827 47.0346 77.576 46.912C77.4693 46.7893 77.416 46.648 77.416 46.488C77.416 46.3226 77.4693 46.1786 77.576 46.056C77.6827 45.9333 77.8267 45.872 78.008 45.872C78.184 45.872 78.3253 45.9333 78.432 46.056C78.5387 46.1786 78.592 46.3226 78.592 46.488ZM78.592 43.904C78.592 44.064 78.5387 44.2053 78.432 44.328C78.3253 44.4506 78.184 44.512 78.008 44.512C77.8267 44.512 77.6827 44.4506 77.576 44.328C77.4693 44.2053 77.416 44.064 77.416 43.904C77.416 43.7386 77.4693 43.5946 77.576 43.472C77.6827 43.3493 77.8267 43.288 78.008 43.288C78.184 43.288 78.3253 43.3493 78.432 43.472C78.5387 43.5946 78.592 43.7386 78.592 43.904Z" fill="#272727"/>
<path d="M84.6 43.072C84.872 42.9653 85.136 42.832 85.392 42.672C85.648 42.5066 85.8853 42.2986 86.104 42.048H86.568V46.44H87.504V47H84.84V46.44H85.912V42.968C85.8533 43.0213 85.7813 43.0773 85.696 43.136C85.616 43.1893 85.5253 43.2426 85.424 43.296C85.328 43.3493 85.2267 43.4 85.12 43.448C85.0133 43.496 84.9093 43.536 84.808 43.568L84.6 43.072Z" fill="#272727"/>
<path d="M90.464 44.432C90.464 44.5706 90.4213 44.6906 90.336 44.792C90.256 44.8933 90.1493 44.944 90.016 44.944C89.8773 44.944 89.7653 44.8933 89.68 44.792C89.5947 44.6906 89.552 44.5706 89.552 44.432C89.552 44.2933 89.5947 44.1706 89.68 44.064C89.7653 43.9573 89.8773 43.904 90.016 43.904C90.1493 43.904 90.256 43.9573 90.336 44.064C90.4213 44.1706 90.464 44.2933 90.464 44.432ZM88.368 44.52C88.368 43.688 88.5093 43.0506 88.792 42.608C89.08 42.16 89.4827 41.936 90 41.936C90.5227 41.936 90.9253 42.16 91.208 42.608C91.4907 43.0506 91.632 43.688 91.632 44.52C91.632 45.352 91.4907 45.992 91.208 46.44C90.9253 46.8826 90.5227 47.104 90 47.104C89.4827 47.104 89.08 46.8826 88.792 46.44C88.5093 45.992 88.368 45.352 88.368 44.52ZM90.96 44.52C90.96 44.248 90.944 43.992 90.912 43.752C90.88 43.5066 90.8267 43.2933 90.752 43.112C90.6773 42.9306 90.5787 42.7866 90.456 42.68C90.3333 42.5733 90.1813 42.52 90 42.52C89.8187 42.52 89.6667 42.5733 89.544 42.68C89.4213 42.7866 89.3227 42.9306 89.248 43.112C89.1733 43.2933 89.12 43.5066 89.088 43.752C89.056 43.992 89.04 44.248 89.04 44.52C89.04 44.792 89.056 45.0506 89.088 45.296C89.12 45.536 89.1733 45.7466 89.248 45.928C89.3227 46.1093 89.4213 46.2533 89.544 46.36C89.6667 46.4666 89.8187 46.52 90 46.52C90.1813 46.52 90.3333 46.4666 90.456 46.36C90.5787 46.2533 90.6773 46.1093 90.752 45.928C90.8267 45.7466 90.88 45.536 90.912 45.296C90.944 45.0506 90.96 44.792 90.96 44.52Z" fill="#272727"/>
<path d="M95 45.152C95 44.72 94.8987 44.3866 94.696 44.152C94.4933 43.912 94.2293 43.792 93.904 43.792C93.7227 43.792 93.5787 43.8 93.472 43.816C93.3707 43.832 93.2907 43.8506 93.232 43.872V46.216C93.3067 46.2853 93.416 46.3493 93.56 46.408C93.704 46.4666 93.8533 46.496 94.008 46.496C94.184 46.496 94.3333 46.4613 94.456 46.392C94.584 46.3226 94.688 46.2293 94.768 46.112C94.848 45.9893 94.9067 45.848 94.944 45.688C94.9813 45.5226 95 45.344 95 45.152ZM95.68 45.152C95.68 45.4346 95.6427 45.696 95.568 45.936C95.4987 46.1706 95.3946 46.3733 95.256 46.544C95.1226 46.7146 94.9573 46.848 94.76 46.944C94.5627 47.04 94.3386 47.088 94.088 47.088C93.8906 47.088 93.7173 47.064 93.568 47.016C93.4187 46.968 93.3067 46.9146 93.232 46.856V48.32H92.568V43.4C92.712 43.3573 92.896 43.3146 93.12 43.272C93.3493 43.2293 93.6107 43.208 93.904 43.208C94.1707 43.208 94.4133 43.2533 94.632 43.344C94.8507 43.4346 95.0373 43.5653 95.192 43.736C95.3467 43.9013 95.4667 44.104 95.552 44.344C95.6373 44.584 95.68 44.8533 95.68 45.152Z" fill="#272727"/>
<path d="M99.04 47C98.9867 46.8933 98.92 46.776 98.84 46.648C98.7653 46.52 98.6827 46.3893 98.592 46.256C98.5013 46.1173 98.4053 45.9813 98.304 45.848C98.208 45.7146 98.112 45.5893 98.016 45.472C97.92 45.5946 97.8186 45.7226 97.712 45.856C97.6053 45.9893 97.5013 46.1253 97.4 46.264C97.304 46.3973 97.2133 46.528 97.128 46.656C97.0426 46.784 96.9707 46.8986 96.912 47H96.232C96.408 46.68 96.6213 46.352 96.872 46.016C97.128 45.6746 97.3787 45.352 97.624 45.048L96.288 43.288H97.032L98.032 44.584L98.952 43.288H99.656L98.432 45.008C98.672 45.3226 98.912 45.6506 99.152 45.992C99.3973 46.3333 99.6053 46.6693 99.776 47H99.04Z" fill="#272727"/>
<path d="M101 47.632C101.096 47.6106 101.189 47.5893 101.28 47.568C101.376 47.5466 101.464 47.5146 101.544 47.472C101.624 47.4346 101.696 47.384 101.76 47.32C101.824 47.2613 101.875 47.1786 101.912 47.072C101.741 47.056 101.616 46.992 101.536 46.88C101.461 46.7626 101.424 46.648 101.424 46.536C101.424 46.3226 101.483 46.1626 101.6 46.056C101.723 45.944 101.861 45.888 102.016 45.888C102.213 45.888 102.363 45.96 102.464 46.104C102.565 46.2426 102.616 46.4133 102.616 46.616C102.616 46.7706 102.584 46.9306 102.52 47.096C102.461 47.2666 102.368 47.424 102.24 47.568C102.117 47.7173 101.963 47.8426 101.776 47.944C101.589 48.0506 101.368 48.12 101.112 48.152L101 47.632ZM102.592 43.904C102.592 44.064 102.539 44.2053 102.432 44.328C102.325 44.4506 102.184 44.512 102.008 44.512C101.827 44.512 101.683 44.4506 101.576 44.328C101.469 44.2053 101.416 44.064 101.416 43.904C101.416 43.7386 101.469 43.5946 101.576 43.472C101.683 43.3493 101.827 43.288 102.008 43.288C102.184 43.288 102.325 43.3493 102.432 43.472C102.539 43.5946 102.592 43.7386 102.592 43.904Z" fill="#272727"/>
<path d="M19.368 53.12H19.048C18.9573 53.12 18.8773 53.1413 18.808 53.184C18.744 53.2213 18.688 53.2746 18.64 53.344C18.5973 53.408 18.5627 53.4826 18.536 53.568C18.5147 53.648 18.504 53.7306 18.504 53.816V55.104C18.504 55.3013 18.4827 55.4746 18.44 55.624C18.4027 55.7733 18.3333 55.8986 18.232 56C18.136 56.1066 18.0053 56.1866 17.84 56.24C17.68 56.2933 17.4773 56.32 17.232 56.32H16.584V55.8H17.264C17.488 55.8 17.6453 55.7493 17.736 55.648C17.832 55.5466 17.88 55.3626 17.88 55.096V53.992C17.88 53.6346 17.9333 53.3733 18.04 53.208C18.1467 53.0373 18.2693 52.9226 18.408 52.864C18.2693 52.8 18.1467 52.68 18.04 52.504C17.9333 52.328 17.88 52.072 17.88 51.736V50.632C17.88 50.3653 17.832 50.1813 17.736 50.08C17.64 49.9786 17.48 49.928 17.256 49.928H16.584V49.408H17.232C17.4773 49.408 17.68 49.4346 17.84 49.488C18.0053 49.5413 18.136 49.6213 18.232 49.728C18.3333 49.8293 18.4027 49.9546 18.44 50.104C18.4827 50.2533 18.504 50.4266 18.504 50.624V51.912C18.504 51.992 18.5147 52.0746 18.536 52.16C18.5573 52.24 18.5893 52.3146 18.632 52.384C18.68 52.448 18.736 52.5013 18.8 52.544C18.8693 52.5866 18.9493 52.608 19.04 52.608H19.368V53.12Z" fill="#272727"/>
<path d="M18.592 70.488C18.592 70.648 18.5387 70.7893 18.432 70.912C18.3253 71.0346 18.184 71.096 18.008 71.096C17.8267 71.096 17.6827 71.0346 17.576 70.912C17.4693 70.7893 17.416 70.648 17.416 70.488C17.416 70.3226 17.4693 70.1786 17.576 70.056C17.6827 69.9333 17.8267 69.872 18.008 69.872C18.184 69.872 18.3253 69.9333 18.432 70.056C18.5387 70.1786 18.592 70.3226 18.592 70.488Z" fill="#272727"/>
<path d="M22.704 71.088C22.4693 71.088 22.2747 71.056 22.12 70.992C21.9653 70.928 21.8427 70.832 21.752 70.704C21.6613 70.576 21.5973 70.4186 21.56 70.232C21.5227 70.04 21.504 69.8186 21.504 69.568V66.056H20.432V65.496H22.16V69.568C22.16 69.7546 22.1707 69.9066 22.192 70.024C22.2187 70.1413 22.256 70.2373 22.304 70.312C22.3573 70.3813 22.4213 70.4293 22.496 70.456C22.5707 70.4826 22.6587 70.496 22.76 70.496C22.9147 70.496 23.0587 70.4773 23.192 70.44C23.3253 70.4026 23.4293 70.3626 23.504 70.32L23.6 70.88C23.568 70.896 23.5227 70.9173 23.464 70.944C23.4053 70.9653 23.336 70.9866 23.256 71.008C23.176 71.0293 23.088 71.048 22.992 71.064C22.9013 71.08 22.8053 71.088 22.704 71.088Z" fill="#272727"/>
<path d="M26.072 67.2C26.5733 67.2 26.96 67.3573 27.232 67.672C27.504 67.9813 27.64 68.4533 27.64 69.088V69.32H24.984C25.0107 69.704 25.136 69.9973 25.36 70.2C25.5893 70.3973 25.9093 70.496 26.32 70.496C26.5547 70.496 26.7547 70.4773 26.92 70.44C27.0853 70.4026 27.2107 70.3626 27.296 70.32L27.384 70.88C27.304 70.9226 27.16 70.968 26.952 71.016C26.744 71.064 26.5093 71.088 26.248 71.088C25.928 71.088 25.6453 71.04 25.4 70.944C25.16 70.8426 24.96 70.7066 24.8 70.536C24.64 70.3653 24.52 70.1626 24.44 69.928C24.36 69.688 24.32 69.4293 24.32 69.152C24.32 68.8213 24.3707 68.5333 24.472 68.288C24.5733 68.0426 24.7067 67.84 24.872 67.68C25.0373 67.52 25.224 67.4 25.432 67.32C25.64 67.24 25.8533 67.2 26.072 67.2ZM26.968 68.784C26.968 68.4693 26.8853 68.2213 26.72 68.04C26.5547 67.8533 26.336 67.76 26.064 67.76C25.9093 67.76 25.768 67.7893 25.64 67.848C25.5173 67.9066 25.4107 67.984 25.32 68.08C25.2293 68.176 25.1573 68.2853 25.104 68.408C25.0507 68.5306 25.016 68.656 25 68.784H26.968Z" fill="#272727"/>
<path d="M30.768 70.656C30.6933 70.6986 30.5787 70.744 30.424 70.792C30.2693 70.84 30.0907 70.864 29.888 70.864C29.6693 70.864 29.464 70.8293 29.272 70.76C29.0853 70.6853 28.92 70.576 28.776 70.432C28.6373 70.2826 28.5253 70.096 28.44 69.872C28.36 69.6426 28.32 69.3733 28.32 69.064C28.32 68.792 28.3573 68.544 28.432 68.32C28.512 68.0906 28.624 67.8933 28.768 67.728C28.9173 67.5626 29.0987 67.4346 29.312 67.344C29.5253 67.248 29.768 67.2 30.04 67.2C30.36 67.2 30.632 67.224 30.856 67.272C31.0853 67.3146 31.2773 67.3573 31.432 67.4V70.712C31.432 71.288 31.2853 71.704 30.992 71.96C30.704 72.216 30.2667 72.344 29.68 72.344C29.44 72.344 29.2213 72.3253 29.024 72.288C28.832 72.2506 28.6613 72.2053 28.512 72.152L28.632 71.568C28.7707 71.6266 28.928 71.6746 29.104 71.712C29.2853 71.7493 29.4827 71.768 29.696 71.768C30.08 71.768 30.3547 71.6906 30.52 71.536C30.6853 71.3813 30.768 71.1306 30.768 70.784V70.656ZM30.768 67.872C30.704 67.8506 30.616 67.832 30.504 67.816C30.392 67.7946 30.24 67.784 30.048 67.784C29.7067 67.784 29.4453 67.9013 29.264 68.136C29.088 68.3706 29 68.6826 29 69.072C29 69.2853 29.024 69.4693 29.072 69.624C29.1253 69.7733 29.1947 69.8986 29.28 70C29.3707 70.096 29.472 70.168 29.584 70.216C29.696 70.2586 29.816 70.28 29.944 70.28C30.1093 70.28 30.264 70.256 30.408 70.208C30.5573 70.16 30.6773 70.104 30.768 70.04V67.872Z" fill="#272727"/>
<path d="M34.072 67.2C34.5733 67.2 34.96 67.3573 35.232 67.672C35.504 67.9813 35.64 68.4533 35.64 69.088V69.32H32.984C33.0107 69.704 33.136 69.9973 33.36 70.2C33.5893 70.3973 33.9093 70.496 34.32 70.496C34.5547 70.496 34.7547 70.4773 34.92 70.44C35.0853 70.4026 35.2107 70.3626 35.296 70.32L35.384 70.88C35.304 70.9226 35.16 70.968 34.952 71.016C34.744 71.064 34.5093 71.088 34.248 71.088C33.928 71.088 33.6453 71.04 33.4 70.944C33.16 70.8426 32.96 70.7066 32.8 70.536C32.64 70.3653 32.52 70.1626 32.44 69.928C32.36 69.688 32.32 69.4293 32.32 69.152C32.32 68.8213 32.3707 68.5333 32.472 68.288C32.5733 68.0426 32.7067 67.84 32.872 67.68C33.0373 67.52 33.224 67.4 33.432 67.32C33.64 67.24 33.8533 67.2 34.072 67.2ZM34.968 68.784C34.968 68.4693 34.8853 68.2213 34.72 68.04C34.5547 67.8533 34.336 67.76 34.064 67.76C33.9093 67.76 33.768 67.7893 33.64 67.848C33.5173 67.9066 33.4107 67.984 33.32 68.08C33.2293 68.176 33.1573 68.2853 33.104 68.408C33.0507 68.5306 33.016 68.656 33 68.784H34.968Z" fill="#272727"/>
<path d="M36.568 67.392C36.808 67.3333 37.0453 67.288 37.28 67.256C37.52 67.224 37.744 67.208 37.952 67.208C38.448 67.208 38.8213 67.336 39.072 67.592C39.328 67.848 39.456 68.2586 39.456 68.824V71H38.8V68.944C38.8 68.704 38.7787 68.5093 38.736 68.36C38.6933 68.2106 38.632 68.096 38.552 68.016C38.4773 67.9306 38.384 67.872 38.272 67.84C38.1653 67.808 38.048 67.792 37.92 67.792C37.8133 67.792 37.6987 67.8 37.576 67.816C37.4587 67.8266 37.344 67.8426 37.232 67.864V71H36.568V67.392Z" fill="#272727"/>
<path d="M42.768 68.072C42.6933 68.0026 42.584 67.9386 42.44 67.88C42.296 67.816 42.1467 67.784 41.992 67.784C41.816 67.784 41.664 67.8186 41.536 67.888C41.4133 67.9573 41.312 68.0533 41.232 68.176C41.152 68.2933 41.0933 68.4373 41.056 68.608C41.0187 68.7733 41 68.952 41 69.144C41 69.576 41.1013 69.9093 41.304 70.144C41.5067 70.3786 41.7707 70.496 42.096 70.496C42.2613 70.496 42.4 70.488 42.512 70.472C42.6293 70.456 42.7147 70.44 42.768 70.424V68.072ZM42.768 65.568L43.432 65.456V70.896C43.288 70.9386 43.104 70.9813 42.88 71.024C42.656 71.0666 42.3947 71.088 42.096 71.088C41.8293 71.088 41.5867 71.0426 41.368 70.952C41.1493 70.8613 40.9627 70.7333 40.808 70.568C40.6533 70.3973 40.5333 70.192 40.448 69.952C40.3627 69.712 40.32 69.4426 40.32 69.144C40.32 68.856 40.3547 68.5946 40.424 68.36C40.4987 68.12 40.6053 67.9146 40.744 67.744C40.8827 67.5733 41.048 67.44 41.24 67.344C41.4373 67.248 41.6613 67.2 41.912 67.2C42.1093 67.2 42.2827 67.224 42.432 67.272C42.5813 67.32 42.6933 67.3706 42.768 67.424V65.568Z" fill="#272727"/>
<path d="M49.944 67.288H51.512V67.84H49.944V69.568C49.944 69.7546 49.9573 69.9066 49.984 70.024C50.0107 70.1413 50.0533 70.2373 50.112 70.312C50.176 70.3813 50.256 70.4293 50.352 70.456C50.448 70.4826 50.5653 70.496 50.704 70.496C50.896 70.496 51.0507 70.48 51.168 70.448C51.2853 70.416 51.3973 70.3733 51.504 70.32L51.6 70.88C51.5253 70.912 51.4053 70.9546 51.24 71.008C51.08 71.0613 50.88 71.088 50.64 71.088C50.3627 71.088 50.136 71.056 49.96 70.992C49.784 70.928 49.6453 70.832 49.544 70.704C49.448 70.576 49.3813 70.4186 49.344 70.232C49.3067 70.04 49.288 69.8186 49.288 69.568V67.84H48.504V67.288H49.288V66.248L49.944 66.136V67.288Z" fill="#272727"/>
<path d="M54.04 70.528C54.2053 70.528 54.352 70.5226 54.48 70.512C54.6133 70.5013 54.7227 70.488 54.808 70.472V69.368C54.7227 69.3413 54.6186 69.32 54.496 69.304C54.3786 69.288 54.2533 69.28 54.12 69.28C53.9973 69.28 53.8773 69.2906 53.76 69.312C53.6426 69.328 53.5387 69.36 53.448 69.408C53.3573 69.456 53.2827 69.52 53.224 69.6C53.1653 69.6746 53.136 69.7706 53.136 69.888C53.136 70.128 53.216 70.296 53.376 70.392C53.5413 70.4826 53.7627 70.528 54.04 70.528ZM53.976 67.2C54.2533 67.2 54.4853 67.2346 54.672 67.304C54.864 67.3733 55.0187 67.4693 55.136 67.592C55.2533 67.7146 55.336 67.864 55.384 68.04C55.432 68.216 55.456 68.408 55.456 68.616V70.936C55.3013 70.9626 55.096 70.9946 54.84 71.032C54.5893 71.0693 54.3307 71.088 54.064 71.088C53.8613 71.088 53.664 71.0693 53.472 71.032C53.28 71 53.1093 70.9413 52.96 70.856C52.8107 70.7653 52.6906 70.6426 52.6 70.488C52.5093 70.3333 52.464 70.136 52.464 69.896C52.464 69.6826 52.5093 69.504 52.6 69.36C52.696 69.2106 52.816 69.0906 52.96 69C53.1093 68.9093 53.2773 68.8453 53.464 68.808C53.656 68.7653 53.848 68.744 54.04 68.744C54.3013 68.744 54.5573 68.7733 54.808 68.832V68.648C54.808 68.536 54.7947 68.4293 54.768 68.328C54.7467 68.2213 54.7013 68.1253 54.632 68.04C54.568 67.9546 54.4773 67.888 54.36 67.84C54.248 67.7866 54.1013 67.76 53.92 67.76C53.6906 67.76 53.4907 67.776 53.32 67.808C53.1493 67.84 53.0187 67.872 52.928 67.904L52.848 67.36C52.9387 67.3173 53.088 67.28 53.296 67.248C53.5093 67.216 53.736 67.2 53.976 67.2Z" fill="#272727"/>
<path d="M57.232 67.424C57.312 67.376 57.4267 67.328 57.576 67.28C57.7307 67.2266 57.9013 67.2 58.088 67.2C58.3387 67.2 58.5627 67.248 58.76 67.344C58.9573 67.44 59.1227 67.5733 59.256 67.744C59.3947 67.9146 59.4987 68.12 59.568 68.36C59.6427 68.5946 59.68 68.856 59.68 69.144C59.68 69.4426 59.6373 69.712 59.552 69.952C59.4667 70.192 59.3467 70.3973 59.192 70.568C59.0373 70.7333 58.8507 70.8613 58.632 70.952C58.4133 71.0426 58.1707 71.088 57.904 71.088C57.6107 71.088 57.3493 71.0666 57.12 71.024C56.8907 70.9813 56.7067 70.9386 56.568 70.896V65.568L57.232 65.456V67.424ZM57.232 70.424C57.3333 70.4506 57.4347 70.472 57.536 70.488C57.6373 70.4986 57.7333 70.504 57.824 70.504C58.192 70.504 58.48 70.392 58.688 70.168C58.896 69.9386 59 69.5973 59 69.144C59 68.952 58.9813 68.7733 58.944 68.608C58.9067 68.4373 58.848 68.2933 58.768 68.176C58.688 68.0533 58.584 67.9573 58.456 67.888C58.3333 67.8186 58.184 67.784 58.008 67.784C57.8533 67.784 57.704 67.816 57.56 67.88C57.416 67.9386 57.3066 68.0026 57.232 68.072V70.424Z" fill="#272727"/>
<path d="M62.704 71.088C62.4693 71.088 62.2747 71.056 62.12 70.992C61.9653 70.928 61.8427 70.832 61.752 70.704C61.6613 70.576 61.5973 70.4186 61.56 70.232C61.5227 70.04 61.504 69.8186 61.504 69.568V66.056H60.432V65.496H62.16V69.568C62.16 69.7546 62.1707 69.9066 62.192 70.024C62.2187 70.1413 62.256 70.2373 62.304 70.312C62.3573 70.3813 62.4213 70.4293 62.496 70.456C62.5706 70.4826 62.6587 70.496 62.76 70.496C62.9147 70.496 63.0587 70.4773 63.192 70.44C63.3253 70.4026 63.4293 70.3626 63.504 70.32L63.6 70.88C63.568 70.896 63.5227 70.9173 63.464 70.944C63.4053 70.9653 63.336 70.9866 63.256 71.008C63.176 71.0293 63.088 71.048 62.992 71.064C62.9013 71.08 62.8053 71.088 62.704 71.088Z" fill="#272727"/>
<path d="M66.072 67.2C66.5733 67.2 66.96 67.3573 67.232 67.672C67.504 67.9813 67.64 68.4533 67.64 69.088V69.32H64.984C65.0107 69.704 65.136 69.9973 65.36 70.2C65.5893 70.3973 65.9093 70.496 66.32 70.496C66.5547 70.496 66.7546 70.4773 66.92 70.44C67.0853 70.4026 67.2107 70.3626 67.296 70.32L67.384 70.88C67.304 70.9226 67.16 70.968 66.952 71.016C66.744 71.064 66.5093 71.088 66.248 71.088C65.928 71.088 65.6453 71.04 65.4 70.944C65.16 70.8426 64.96 70.7066 64.8 70.536C64.64 70.3653 64.52 70.1626 64.44 69.928C64.36 69.688 64.32 69.4293 64.32 69.152C64.32 68.8213 64.3707 68.5333 64.472 68.288C64.5733 68.0426 64.7067 67.84 64.872 67.68C65.0373 67.52 65.224 67.4 65.432 67.32C65.64 67.24 65.8533 67.2 66.072 67.2ZM66.968 68.784C66.968 68.4693 66.8853 68.2213 66.72 68.04C66.5547 67.8533 66.336 67.76 66.064 67.76C65.9093 67.76 65.768 67.7893 65.64 67.848C65.5173 67.9066 65.4107 67.984 65.32 68.08C65.2293 68.176 65.1573 68.2853 65.104 68.408C65.0507 68.5306 65.016 68.656 65 68.784H66.968Z" fill="#272727"/>
<path d="M72.632 68.608H72.952C73.0427 68.608 73.1227 68.5893 73.192 68.552C73.2613 68.5093 73.3173 68.456 73.36 68.392C73.408 68.3226 73.4427 68.248 73.464 68.168C73.4907 68.0826 73.504 67.9973 73.504 67.912V66.624C73.504 66.4266 73.5227 66.2533 73.56 66.104C73.6027 65.9546 73.672 65.8293 73.768 65.728C73.864 65.6213 73.992 65.5413 74.152 65.488C74.3173 65.4346 74.5227 65.408 74.768 65.408H75.416V65.928H74.736C74.512 65.928 74.352 65.9786 74.256 66.08C74.1653 66.1813 74.12 66.3653 74.12 66.632V67.736C74.12 68.0933 74.0667 68.3573 73.96 68.528C73.8533 68.6933 73.7307 68.8053 73.592 68.864C73.7307 68.928 73.8533 69.048 73.96 69.224C74.0667 69.4 74.12 69.656 74.12 69.992V71.096C74.12 71.3626 74.168 71.5466 74.264 71.648C74.36 71.7493 74.52 71.8 74.744 71.8H75.416V72.32H74.768C74.5227 72.32 74.3173 72.2933 74.152 72.24C73.992 72.1866 73.864 72.1066 73.768 72C73.672 71.8986 73.6027 71.7733 73.56 71.624C73.5227 71.4746 73.504 71.3013 73.504 71.104V69.816C73.504 69.736 73.4907 69.656 73.464 69.576C73.4427 69.4906 73.408 69.416 73.36 69.352C73.3173 69.2826 73.2613 69.2266 73.192 69.184C73.128 69.1413 73.0507 69.12 72.96 69.12H72.632V68.608Z" fill="#272727"/>
<path d="M8.60009 27.0721C8.87209 26.9654 9.13609 26.8321 9.39209 26.6721C9.64809 26.5068 9.88542 26.2988 10.1041 26.0481H10.5681V30.4401H11.5041V31.0001H8.84009V30.4401H9.91209V26.9681C9.85342 27.0214 9.78142 27.0774 9.69609 27.1361C9.61609 27.1894 9.52542 27.2428 9.42409 27.2961C9.32809 27.3494 9.22675 27.4001 9.12009 27.4481C9.01342 27.4961 8.90942 27.5361 8.80809 27.5681L8.60009 27.0721Z" fill="#272727"/>
<path d="M11.3601 35.3121C11.3601 35.4828 11.3254 35.6481 11.2561 35.8081C11.1921 35.9681 11.1041 36.1254 10.9921 36.2801C10.8854 36.4348 10.7628 36.5868 10.6241 36.7361C10.4854 36.8854 10.3441 37.0321 10.2001 37.1761C10.1201 37.2561 10.0268 37.3521 9.92009 37.4641C9.81342 37.5761 9.71209 37.6908 9.61609 37.8081C9.52009 37.9254 9.44009 38.0401 9.37609 38.1521C9.31209 38.2641 9.28009 38.3601 9.28009 38.4401H11.5601V39.0001H8.56009C8.55475 38.9734 8.55209 38.9468 8.55209 38.9201C8.55209 38.8881 8.55209 38.8588 8.55209 38.8321C8.55209 38.6081 8.58942 38.4001 8.66409 38.2081C8.73875 38.0161 8.83475 37.8348 8.95209 37.6641C9.06942 37.4934 9.20009 37.3334 9.34409 37.1841C9.49342 37.0294 9.64009 36.8801 9.78409 36.7361C9.90142 36.6188 10.0134 36.5041 10.1201 36.3921C10.2321 36.2801 10.3281 36.1681 10.4081 36.0561C10.4934 35.9441 10.5601 35.8294 10.6081 35.7121C10.6614 35.5894 10.6881 35.4641 10.6881 35.3361C10.6881 35.1921 10.6641 35.0694 10.6161 34.9681C10.5734 34.8668 10.5121 34.7841 10.4321 34.7201C10.3574 34.6508 10.2694 34.6001 10.1681 34.5681C10.0668 34.5361 9.95742 34.5201 9.84009 34.5201C9.70142 34.5201 9.57342 34.5388 9.45609 34.5761C9.34409 34.6134 9.24275 34.6588 9.15209 34.7121C9.06675 34.7654 8.99209 34.8188 8.92809 34.8721C8.86409 34.9201 8.81609 34.9601 8.78409 34.9921L8.45609 34.5281C8.49875 34.4801 8.56275 34.4214 8.64809 34.3521C8.73342 34.2828 8.83475 34.2188 8.95209 34.1601C9.07475 34.0961 9.21075 34.0428 9.36009 34.0001C9.50942 33.9574 9.66942 33.9361 9.84009 33.9361C10.3574 33.9361 10.7388 34.0561 10.9841 34.2961C11.2348 34.5308 11.3601 34.8694 11.3601 35.3121Z" fill="#272727"/>
<path d="M9.69609 46.5201C10.1174 46.5201 10.4161 46.4374 10.5921 46.2721C10.7734 46.1014 10.8641 45.8748 10.8641 45.5921C10.8641 45.4108 10.8268 45.2588 10.7521 45.1361C10.6774 45.0134 10.5788 44.9148 10.4561 44.8401C10.3334 44.7654 10.1921 44.7121 10.0321 44.6801C9.87209 44.6481 9.70409 44.6321 9.52809 44.6321H9.36009V44.0961H9.59209C9.70942 44.0961 9.82942 44.0854 9.95209 44.0641C10.0801 44.0374 10.1948 43.9948 10.2961 43.9361C10.4028 43.8721 10.4881 43.7868 10.5521 43.6801C10.6161 43.5734 10.6481 43.4374 10.6481 43.2721C10.6481 43.0001 10.5628 42.8081 10.3921 42.6961C10.2268 42.5788 10.0321 42.5201 9.80809 42.5201C9.57875 42.5201 9.38409 42.5548 9.22409 42.6241C9.06409 42.6881 8.93075 42.7548 8.82409 42.8241L8.56809 42.3201C8.68009 42.2401 8.84809 42.1574 9.07209 42.0721C9.30142 41.9814 9.55475 41.9361 9.83209 41.9361C10.0934 41.9361 10.3174 41.9681 10.5041 42.0321C10.6908 42.0961 10.8428 42.1868 10.9601 42.3041C11.0828 42.4214 11.1734 42.5601 11.2321 42.7201C11.2908 42.8748 11.3201 43.0454 11.3201 43.2321C11.3201 43.4934 11.2508 43.7148 11.1121 43.8961C10.9788 44.0774 10.8054 44.2161 10.5921 44.3121C10.8481 44.3868 11.0694 44.5334 11.2561 44.7521C11.4428 44.9654 11.5361 45.2508 11.5361 45.6081C11.5361 45.8214 11.4988 46.0214 11.4241 46.2081C11.3548 46.3894 11.2454 46.5468 11.0961 46.6801C10.9521 46.8134 10.7628 46.9174 10.5281 46.9921C10.2988 47.0668 10.0241 47.1041 9.70409 47.1041C9.58142 47.1041 9.45342 47.0934 9.32009 47.0721C9.19209 47.0561 9.07209 47.0321 8.96009 47.0001C8.84809 46.9734 8.74675 46.9468 8.65609 46.9201C8.57075 46.8881 8.50942 46.8641 8.47209 46.8481L8.60009 46.2801C8.68542 46.3228 8.82142 46.3734 9.00809 46.4321C9.19475 46.4908 9.42409 46.5201 9.69609 46.5201Z" fill="#272727"/>
<path d="M8.28809 53.2881C8.37875 53.0748 8.50142 52.8294 8.65609 52.5521C8.81609 52.2748 8.99475 51.9894 9.19209 51.6961C9.38942 51.3974 9.60009 51.1068 9.82409 50.8241C10.0481 50.5361 10.2748 50.2774 10.5041 50.0481H11.1441V53.1921H11.7281V53.7361H11.1441V55.0001H10.5041V53.7361H8.28809V53.2881ZM10.5041 50.8321C10.3601 50.9868 10.2134 51.1574 10.0641 51.3441C9.92009 51.5308 9.77875 51.7281 9.64009 51.9361C9.50142 52.1388 9.37075 52.3468 9.24809 52.5601C9.13075 52.7734 9.02409 52.9841 8.92809 53.1921H10.5041V50.8321Z" fill="#272727"/>
<path d="M9.48809 59.9601C10.2028 59.9868 10.7228 60.1441 11.0481 60.4321C11.3734 60.7201 11.5361 61.1068 11.5361 61.5921C11.5361 61.8108 11.5014 62.0134 11.4321 62.2001C11.3628 62.3868 11.2534 62.5468 11.1041 62.6801C10.9601 62.8134 10.7734 62.9174 10.5441 62.9921C10.3201 63.0668 10.0534 63.1041 9.74409 63.1041C9.61609 63.1041 9.48809 63.0934 9.36009 63.0721C9.23742 63.0561 9.12009 63.0348 9.00809 63.0081C8.89609 62.9814 8.79742 62.9548 8.71209 62.9281C8.62675 62.8961 8.56542 62.8694 8.52809 62.8481L8.65609 62.2801C8.74142 62.3228 8.87209 62.3734 9.04809 62.4321C9.22942 62.4908 9.45609 62.5201 9.72809 62.5201C9.94142 62.5201 10.1201 62.4961 10.2641 62.4481C10.4081 62.4001 10.5228 62.3361 10.6081 62.2561C10.6988 62.1708 10.7628 62.0748 10.8001 61.9681C10.8428 61.8614 10.8641 61.7494 10.8641 61.6321C10.8641 61.4508 10.8321 61.2908 10.7681 61.1521C10.7094 61.0081 10.6028 60.8881 10.4481 60.7921C10.2988 60.6961 10.0908 60.6241 9.82409 60.5761C9.56275 60.5228 9.23209 60.4961 8.83209 60.4961C8.86409 60.2614 8.88809 60.0428 8.90409 59.8401C8.92542 59.6321 8.94142 59.4321 8.95209 59.2401C8.96809 59.0428 8.97875 58.8481 8.98409 58.6561C8.99475 58.4641 9.00542 58.2614 9.01609 58.0481H11.4001V58.6081H9.59209C9.58675 58.6828 9.57875 58.7814 9.56809 58.9041C9.56275 59.0214 9.55475 59.1468 9.54409 59.2801C9.53342 59.4134 9.52275 59.5414 9.51209 59.6641C9.50142 59.7868 9.49342 59.8854 9.48809 59.9601Z" fill="#272727"/>
<path d="M8.43209 69.0161C8.43209 68.5361 8.49609 68.1121 8.62409 67.7441C8.75742 67.3708 8.94409 67.0588 9.18409 66.8081C9.42942 66.5574 9.72542 66.3654 10.0721 66.2321C10.4188 66.0988 10.8108 66.0294 11.2481 66.0241L11.3041 66.5841C11.0214 66.5894 10.7628 66.6214 10.5281 66.6801C10.2988 66.7334 10.0934 66.8241 9.91209 66.9521C9.73075 67.0748 9.57875 67.2348 9.45609 67.4321C9.33342 67.6294 9.24009 67.8721 9.17609 68.1601C9.30409 68.1014 9.44275 68.0534 9.59209 68.0161C9.74675 67.9788 9.90942 67.9601 10.0801 67.9601C10.3574 67.9601 10.5921 68.0028 10.7841 68.0881C10.9814 68.1734 11.1388 68.2881 11.2561 68.4321C11.3734 68.5708 11.4588 68.7334 11.5121 68.9201C11.5654 69.1068 11.5921 69.2988 11.5921 69.4961C11.5921 69.6774 11.5628 69.8641 11.5041 70.0561C11.4454 70.2428 11.3548 70.4161 11.2321 70.5761C11.1094 70.7308 10.9521 70.8588 10.7601 70.9601C10.5681 71.0561 10.3388 71.1041 10.0721 71.1041C9.52275 71.1041 9.11209 70.9201 8.84009 70.5521C8.56809 70.1841 8.43209 69.6721 8.43209 69.0161ZM10.0081 68.5041C9.83742 68.5041 9.68009 68.5201 9.53609 68.5521C9.39742 68.5841 9.25609 68.6321 9.11209 68.6961C9.10675 68.7494 9.10409 68.8028 9.10409 68.8561C9.10409 68.9041 9.10409 68.9574 9.10409 69.0161C9.10409 69.2241 9.11742 69.4214 9.14409 69.6081C9.17609 69.7894 9.22675 69.9521 9.29609 70.0961C9.37075 70.2348 9.46942 70.3468 9.59209 70.4321C9.71475 70.5121 9.87209 70.5521 10.0641 70.5521C10.2241 70.5521 10.3574 70.5201 10.4641 70.4561C10.5708 70.3868 10.6588 70.3014 10.7281 70.2001C10.7974 70.0988 10.8454 69.9868 10.8721 69.8641C10.9041 69.7361 10.9201 69.6161 10.9201 69.5041C10.9201 69.1788 10.8454 68.9308 10.6961 68.7601C10.5521 68.5894 10.3228 68.5041 10.0081 68.5041Z" fill="#272727"/>
<path d="M75.0312 15H74.2773V12.3711H71.4102V15H70.6602V9.3125H71.4102V11.7578H74.2773V9.3125H75.0312V15Z" fill="#757575"/>
<path d="M80.1758 9.92969H78.3477V15H77.6016V9.92969H75.7773V9.3125H80.1758V9.92969Z" fill="#757575"/>
<path d="M81.9883 9.3125L83.8477 13.9531L85.707 9.3125H86.6797V15H85.9297V12.7852L86 10.3945L84.1328 15H83.5586L81.6953 10.4062L81.7695 12.7852V15H81.0195V9.3125H81.9883Z" fill="#757575"/>
<path d="M88.7578 14.3867H91.4531V15H88.0039V9.3125H88.7578V14.3867Z" fill="#757575"/>
<path d="M114.844 13.1953C114.773 13.7969 114.551 14.2617 114.176 14.5898C113.803 14.9154 113.307 15.0781 112.688 15.0781C112.016 15.0781 111.477 14.8372 111.07 14.3555C110.667 13.8737 110.465 13.2292 110.465 12.4219V11.875C110.465 11.3464 110.559 10.8815 110.746 10.4805C110.936 10.0794 111.204 9.77214 111.551 9.55859C111.897 9.34245 112.298 9.23438 112.754 9.23438C113.358 9.23438 113.842 9.40365 114.207 9.74219C114.572 10.0781 114.784 10.5443 114.844 11.1406H114.09C114.025 10.6875 113.883 10.3594 113.664 10.1562C113.448 9.95312 113.145 9.85156 112.754 9.85156C112.275 9.85156 111.898 10.0286 111.625 10.3828C111.354 10.737 111.219 11.2409 111.219 11.8945V12.4453C111.219 13.0625 111.348 13.5534 111.605 13.918C111.863 14.2826 112.224 14.4648 112.688 14.4648C113.104 14.4648 113.423 14.3711 113.645 14.1836C113.868 13.9935 114.017 13.6641 114.09 13.1953H114.844Z" fill="#757575"/>
<path d="M117.547 12.4648C116.904 12.2799 116.435 12.0534 116.141 11.7852C115.849 11.5143 115.703 11.181 115.703 10.7852C115.703 10.3372 115.882 9.96745 116.238 9.67578C116.598 9.38151 117.064 9.23438 117.637 9.23438C118.027 9.23438 118.375 9.3099 118.68 9.46094C118.987 9.61198 119.224 9.82031 119.391 10.0859C119.56 10.3516 119.645 10.6419 119.645 10.957H118.891C118.891 10.6133 118.781 10.3438 118.562 10.1484C118.344 9.95052 118.035 9.85156 117.637 9.85156C117.267 9.85156 116.978 9.93359 116.77 10.0977C116.564 10.2591 116.461 10.4844 116.461 10.7734C116.461 11.0052 116.559 11.2018 116.754 11.3633C116.952 11.5221 117.286 11.668 117.758 11.8008C118.232 11.9336 118.602 12.0807 118.867 12.2422C119.135 12.401 119.333 12.5872 119.461 12.8008C119.591 13.0143 119.656 13.2656 119.656 13.5547C119.656 14.0156 119.477 14.3854 119.117 14.6641C118.758 14.9401 118.277 15.0781 117.676 15.0781C117.285 15.0781 116.921 15.0039 116.582 14.8555C116.243 14.7044 115.982 14.4987 115.797 14.2383C115.615 13.9779 115.523 13.6823 115.523 13.3516H116.277C116.277 13.6953 116.404 13.9674 116.656 14.168C116.911 14.3659 117.251 14.4648 117.676 14.4648C118.072 14.4648 118.375 14.3841 118.586 14.2227C118.797 14.0612 118.902 13.8411 118.902 13.5625C118.902 13.2839 118.805 13.069 118.609 12.918C118.414 12.7643 118.06 12.6133 117.547 12.4648Z" fill="#757575"/>
<path d="M122.297 12.4648C121.654 12.2799 121.185 12.0534 120.891 11.7852C120.599 11.5143 120.453 11.181 120.453 10.7852C120.453 10.3372 120.632 9.96745 120.988 9.67578C121.348 9.38151 121.814 9.23438 122.387 9.23438C122.777 9.23438 123.125 9.3099 123.43 9.46094C123.737 9.61198 123.974 9.82031 124.141 10.0859C124.31 10.3516 124.395 10.6419 124.395 10.957H123.641C123.641 10.6133 123.531 10.3438 123.312 10.1484C123.094 9.95052 122.785 9.85156 122.387 9.85156C122.017 9.85156 121.728 9.93359 121.52 10.0977C121.314 10.2591 121.211 10.4844 121.211 10.7734C121.211 11.0052 121.309 11.2018 121.504 11.3633C121.702 11.5221 122.036 11.668 122.508 11.8008C122.982 11.9336 123.352 12.0807 123.617 12.2422C123.885 12.401 124.083 12.5872 124.211 12.8008C124.341 13.0143 124.406 13.2656 124.406 13.5547C124.406 14.0156 124.227 14.3854 123.867 14.6641C123.508 14.9401 123.027 15.0781 122.426 15.0781C122.035 15.0781 121.671 15.0039 121.332 14.8555C120.993 14.7044 120.732 14.4987 120.547 14.2383C120.365 13.9779 120.273 13.6823 120.273 13.3516H121.027C121.027 13.6953 121.154 13.9674 121.406 14.168C121.661 14.3659 122.001 14.4648 122.426 14.4648C122.822 14.4648 123.125 14.3841 123.336 14.2227C123.547 14.0612 123.652 13.8411 123.652 13.5625C123.652 13.2839 123.555 13.069 123.359 12.918C123.164 12.7643 122.81 12.6133 122.297 12.4648Z" fill="#757575"/>
<g clip-path="url(#clip0)">
<path fill-rule="evenodd" clip-rule="evenodd" d="M21 144L209 144L209 145L21 145L21 144Z" fill="black"/>
<path fill-rule="evenodd" clip-rule="evenodd" d="M24 144V146H23V144H24Z" fill="black"/>
<path d="M25 148.715C25 149.149 24.9195 149.472 24.7584 149.683C24.5974 149.894 24.3457 150 24.0033 150C23.6652 150 23.4149 149.897 23.2524 149.691C23.09 149.484 23.0058 149.175 23 148.765V148.269C23 147.84 23.0805 147.521 23.2416 147.313C23.4026 147.104 23.6551 147 23.9989 147C24.3399 147 24.5909 147.101 24.7519 147.303C24.9129 147.503 24.9956 147.814 25 148.233V148.715ZM24.5974 148.207C24.5974 147.893 24.5495 147.664 24.4538 147.521C24.358 147.377 24.2064 147.305 23.9989 147.305C23.7929 147.305 23.6427 147.376 23.5484 147.519C23.4541 147.662 23.4055 147.882 23.4026 148.179V148.773C23.4026 149.088 23.4519 149.322 23.5506 149.473C23.6507 149.622 23.8016 149.697 24.0033 149.697C24.202 149.697 24.3493 149.626 24.445 149.485C24.5423 149.343 24.593 149.12 24.5974 148.815V148.207Z" fill="#686868"/>
<path fill-rule="evenodd" clip-rule="evenodd" d="M62 144V146H61V144H62Z" fill="black"/>
<path d="M62.9266 147.802C62.9266 147.948 62.8848 148.078 62.8013 148.191C62.7192 148.305 62.6076 148.394 62.4665 148.458C62.6307 148.523 62.7603 148.619 62.8553 148.745C62.9518 148.87 63 149.013 63 149.172C63 149.424 62.9078 149.626 62.7235 149.775C62.5407 149.925 62.2995 150 62 150C61.6976 150 61.455 149.925 61.2721 149.775C61.0907 149.624 61 149.423 61 149.172C61 149.014 61.0461 148.872 61.1382 148.745C61.2318 148.618 61.3607 148.521 61.5248 148.456C61.3852 148.392 61.275 148.303 61.1944 148.189C61.1138 148.076 61.0734 147.947 61.0734 147.802C61.0734 147.556 61.1584 147.361 61.3283 147.217C61.4982 147.072 61.7221 147 62 147C62.2765 147 62.4996 147.072 62.6695 147.217C62.8409 147.361 62.9266 147.556 62.9266 147.802ZM62.6004 149.164C62.6004 149.001 62.5443 148.868 62.432 148.765C62.3211 148.662 62.1757 148.61 61.9957 148.61C61.8157 148.61 61.671 148.661 61.5616 148.763C61.4536 148.864 61.3996 148.998 61.3996 149.164C61.3996 149.33 61.4521 149.46 61.5572 149.555C61.6638 149.65 61.8114 149.697 62 149.697C62.1872 149.697 62.3341 149.65 62.4406 149.555C62.5472 149.459 62.6004 149.328 62.6004 149.164ZM62 147.305C61.8431 147.305 61.7156 147.35 61.6177 147.441C61.5212 147.531 61.473 147.653 61.473 147.808C61.473 147.957 61.5205 148.077 61.6156 148.169C61.712 148.26 61.8402 148.305 62 148.305C62.1598 148.305 62.2873 148.26 62.3823 148.169C62.4788 148.077 62.527 147.957 62.527 147.808C62.527 147.66 62.4773 147.539 62.378 147.445C62.2786 147.352 62.1526 147.305 62 147.305Z" fill="#686868"/>
<path fill-rule="evenodd" clip-rule="evenodd" d="M100 144V146H99V144H100Z" fill="black"/>
<path d="M99.1004 149.96H98.7343V147.465L98 147.742V147.403L99.0433 147H99.1004V149.96Z" fill="#686868"/>
<path d="M101.596 147.012V147.33H101.53C101.246 147.335 101.02 147.421 100.852 147.589C100.684 147.756 100.587 147.991 100.561 148.295C100.712 148.117 100.918 148.028 101.179 148.028C101.428 148.028 101.627 148.118 101.776 148.299C101.925 148.479 102 148.713 102 148.999C102 149.302 101.919 149.545 101.758 149.727C101.598 149.909 101.383 150 101.112 150C100.838 150 100.615 149.892 100.445 149.676C100.274 149.459 100.189 149.18 100.189 148.839V148.695C100.189 148.153 100.301 147.739 100.526 147.453C100.751 147.166 101.087 147.019 101.531 147.012H101.596ZM101.118 148.339C100.993 148.339 100.879 148.378 100.774 148.454C100.669 148.531 100.596 148.628 100.555 148.744V148.881C100.555 149.124 100.608 149.32 100.715 149.468C100.821 149.616 100.953 149.69 101.112 149.69C101.276 149.69 101.405 149.628 101.498 149.504C101.593 149.38 101.64 149.218 101.64 149.017C101.64 148.815 101.592 148.651 101.496 148.527C101.402 148.402 101.276 148.339 101.118 148.339Z" fill="#686868"/>
<path fill-rule="evenodd" clip-rule="evenodd" d="M138 144V146H137V144H138Z" fill="black"/>
<path d="M137.818 150H136.052V149.73L136.985 148.591C137.123 148.419 137.218 148.28 137.27 148.173C137.323 148.064 137.349 147.953 137.349 147.837C137.349 147.683 137.307 147.556 137.222 147.457C137.137 147.358 137.023 147.309 136.881 147.309C136.711 147.309 136.578 147.362 136.483 147.47C136.389 147.575 136.342 147.723 136.342 147.913H136C136 147.64 136.08 147.42 136.239 147.252C136.399 147.084 136.613 147 136.881 147C137.132 147 137.33 147.072 137.475 147.217C137.621 147.361 137.694 147.553 137.694 147.793C137.694 148.084 137.525 148.431 137.186 148.833L136.465 149.693H137.818V150Z" fill="#686868"/>
<path d="M139.626 149.006H140V149.313H139.626V150H139.282V149.313H138.055V149.091L139.261 147.041H139.626V149.006ZM138.443 149.006H139.282V147.555L139.241 147.636L138.443 149.006Z" fill="#686868"/>
<path fill-rule="evenodd" clip-rule="evenodd" d="M176 144V146H175V144H176Z" fill="black"/>
<path d="M174.556 148.32H174.817C174.98 148.317 175.109 148.271 175.203 148.181C175.297 148.092 175.344 147.971 175.344 147.818C175.344 147.476 175.184 147.305 174.865 147.305C174.715 147.305 174.595 147.351 174.505 147.443C174.416 147.534 174.372 147.655 174.372 147.806H174.024C174.024 147.575 174.103 147.383 174.261 147.231C174.42 147.077 174.621 147 174.865 147C175.123 147 175.325 147.073 175.472 147.219C175.618 147.364 175.691 147.567 175.691 147.826C175.691 147.953 175.652 148.076 175.575 148.195C175.499 148.314 175.394 148.403 175.261 148.462C175.412 148.513 175.527 148.597 175.609 148.715C175.691 148.832 175.733 148.976 175.733 149.146C175.733 149.408 175.652 149.616 175.492 149.769C175.332 149.923 175.124 150 174.867 150C174.611 150 174.402 149.926 174.24 149.777C174.08 149.629 174 149.433 174 149.19H174.349C174.349 149.344 174.396 149.467 174.49 149.559C174.584 149.651 174.71 149.697 174.867 149.697C175.035 149.697 175.163 149.65 175.252 149.557C175.341 149.463 175.385 149.329 175.385 149.154C175.385 148.984 175.336 148.854 175.239 148.763C175.141 148.672 175 148.625 174.817 148.622H174.556V148.32Z" fill="#686868"/>
<path d="M178 149.96H176.209V149.693L177.155 148.57C177.295 148.4 177.392 148.263 177.444 148.157C177.498 148.05 177.525 147.94 177.525 147.826C177.525 147.674 177.482 147.549 177.396 147.451C177.309 147.354 177.194 147.305 177.05 147.305C176.878 147.305 176.743 147.358 176.647 147.463C176.552 147.568 176.504 147.713 176.504 147.9H176.157C176.157 147.632 176.237 147.414 176.399 147.249C176.562 147.083 176.779 147 177.05 147C177.304 147 177.505 147.072 177.653 147.215C177.8 147.356 177.874 147.545 177.874 147.782C177.874 148.07 177.703 148.412 177.36 148.809L176.628 149.657H178V149.96Z" fill="#686868"/>
<path fill-rule="evenodd" clip-rule="evenodd" d="M22 145H20V144H22V145Z" fill="black"/>
<path d="M18 144.715C18 145.149 17.9195 145.472 17.7584 145.683C17.5974 145.894 17.3457 146 17.0033 146C16.6652 146 16.4149 145.897 16.2524 145.691C16.09 145.484 16.0058 145.175 16 144.765V144.269C16 143.84 16.0805 143.521 16.2416 143.313C16.4026 143.104 16.6551 143 16.9989 143C17.3399 143 17.5909 143.101 17.7519 143.303C17.9129 143.503 17.9956 143.814 18 144.233V144.715ZM17.5974 144.207C17.5974 143.893 17.5495 143.664 17.4538 143.521C17.358 143.377 17.2064 143.305 16.9989 143.305C16.7929 143.305 16.6427 143.376 16.5484 143.519C16.4541 143.662 16.4055 143.882 16.4026 144.179V144.773C16.4026 145.088 16.4519 145.322 16.5506 145.473C16.6507 145.622 16.8016 145.697 17.0033 145.697C17.202 145.697 17.3493 145.626 17.445 145.485C17.5423 145.343 17.593 145.12 17.5974 144.815V144.207Z" fill="#686868"/>
<path fill-rule="evenodd" clip-rule="evenodd" d="M22 131H20V130H22V131Z" fill="black"/>
<path d="M13.818 130.96H12.0518V130.693L12.9849 129.57C13.1231 129.4 13.2181 129.263 13.27 129.157C13.323 129.05 13.3496 128.94 13.3496 128.826C13.3496 128.674 13.307 128.549 13.2218 128.451C13.1367 128.354 13.0231 128.305 12.8812 128.305C12.7109 128.305 12.5782 128.358 12.4832 128.463C12.3894 128.568 12.3425 128.713 12.3425 128.9H12C12 128.632 12.0796 128.414 12.2388 128.249C12.3993 128.083 12.6134 128 12.8812 128C13.1317 128 13.3298 128.072 13.4755 128.215C13.6211 128.356 13.6939 128.545 13.6939 128.782C13.6939 129.07 13.5248 129.412 13.1867 129.809L12.4647 130.657H13.818V130.96Z" fill="#686868"/>
<path d="M14.3382 129.496L14.4752 128.04H15.8562V128.383H14.7658L14.6844 129.179C14.8164 129.095 14.9664 129.053 15.1342 129.053C15.3798 129.053 15.5748 129.141 15.7192 129.318C15.8636 129.493 15.9358 129.73 15.9358 130.029C15.9358 130.33 15.8605 130.568 15.71 130.741C15.5606 130.914 15.3514 131 15.0824 131C14.8442 131 14.6498 130.928 14.4992 130.785C14.3487 130.642 14.2629 130.445 14.2419 130.192H14.5659C14.5869 130.359 14.6418 130.485 14.7306 130.571C14.8195 130.655 14.9367 130.697 15.0824 130.697C15.2416 130.697 15.3662 130.638 15.4563 130.521C15.5477 130.403 15.5933 130.241 15.5933 130.033C15.5933 129.838 15.544 129.682 15.4452 129.564C15.3477 129.445 15.2175 129.386 15.0546 129.386C14.9053 129.386 14.788 129.421 14.7029 129.492L14.6122 129.572L14.3382 129.496Z" fill="#686868"/>
<path d="M18 129.715C18 130.149 17.9315 130.472 17.7945 130.683C17.6575 130.894 17.4434 131 17.1521 131C16.8645 131 16.6517 130.897 16.5134 130.691C16.3752 130.484 16.3036 130.175 16.2987 129.765V129.269C16.2987 128.84 16.3672 128.521 16.5042 128.313C16.6412 128.104 16.8559 128 17.1484 128C17.4384 128 17.652 128.101 17.789 128.303C17.9259 128.503 17.9963 128.814 18 129.233V129.715ZM17.6575 129.207C17.6575 128.893 17.6168 128.664 17.5353 128.521C17.4539 128.377 17.3249 128.305 17.1484 128.305C16.9732 128.305 16.8454 128.376 16.7652 128.519C16.685 128.662 16.6436 128.882 16.6412 129.179V129.773C16.6412 130.088 16.6831 130.322 16.767 130.473C16.8522 130.622 16.9806 130.697 17.1521 130.697C17.3212 130.697 17.4465 130.626 17.5279 130.485C17.6106 130.343 17.6538 130.12 17.6575 129.815V129.207Z" fill="#686868"/>
<path fill-rule="evenodd" clip-rule="evenodd" d="M22 116H20V115H22V116Z" fill="black"/>
<path d="M12.0981 114.496L12.2377 113.04H13.6453V113.383H12.534L12.4509 114.179C12.5855 114.095 12.7384 114.053 12.9094 114.053C13.1597 114.053 13.3585 114.141 13.5057 114.318C13.6528 114.493 13.7264 114.73 13.7264 115.029C13.7264 115.33 13.6497 115.568 13.4962 115.741C13.344 115.914 13.1308 116 12.8566 116C12.6138 116 12.4157 115.928 12.2623 115.785C12.1088 115.642 12.0214 115.445 12 115.192H12.3302C12.3516 115.359 12.4075 115.485 12.4981 115.571C12.5887 115.655 12.7082 115.697 12.8566 115.697C13.0189 115.697 13.1459 115.638 13.2377 115.521C13.3308 115.403 13.3774 115.241 13.3774 115.033C13.3774 114.838 13.327 114.682 13.2264 114.564C13.127 114.445 12.9943 114.386 12.8283 114.386C12.6761 114.386 12.5566 114.421 12.4698 114.492L12.3774 114.572L12.0981 114.496Z" fill="#686868"/>
<path d="M15.8302 114.715C15.8302 115.149 15.7604 115.472 15.6208 115.683C15.4811 115.894 15.2629 116 14.966 116C14.673 116 14.456 115.897 14.3151 115.691C14.1742 115.484 14.1013 115.175 14.0962 114.765V114.269C14.0962 113.84 14.166 113.521 14.3057 113.313C14.4453 113.104 14.6642 113 14.9623 113C15.2579 113 15.4755 113.101 15.6151 113.303C15.7547 113.503 15.8264 113.814 15.8302 114.233V114.715ZM15.4811 114.207C15.4811 113.893 15.4396 113.664 15.3566 113.521C15.2736 113.377 15.1421 113.305 14.9623 113.305C14.7836 113.305 14.6535 113.376 14.5717 113.519C14.4899 113.662 14.4478 113.882 14.4453 114.179V114.773C14.4453 115.088 14.4881 115.322 14.5736 115.473C14.6604 115.622 14.7912 115.697 14.966 115.697C15.1384 115.697 15.266 115.626 15.3491 115.485C15.4333 115.343 15.4774 115.12 15.4811 114.815V114.207Z" fill="#686868"/>
<path d="M18 114.715C18 115.149 17.9302 115.472 17.7906 115.683C17.6509 115.894 17.4327 116 17.1358 116C16.8428 116 16.6258 115.897 16.4849 115.691C16.344 115.484 16.2711 115.175 16.266 114.765V114.269C16.266 113.84 16.3358 113.521 16.4755 113.313C16.6151 113.104 16.834 113 17.1321 113C17.4277 113 17.6453 113.101 17.7849 113.303C17.9245 113.503 17.9962 113.814 18 114.233V114.715ZM17.6509 114.207C17.6509 113.893 17.6094 113.664 17.5264 113.521C17.4434 113.377 17.3119 113.305 17.1321 113.305C16.9535 113.305 16.8233 113.376 16.7415 113.519C16.6597 113.662 16.6176 113.882 16.6151 114.179V114.773C16.6151 115.088 16.6579 115.322 16.7434 115.473C16.8302 115.622 16.961 115.697 17.1358 115.697C17.3082 115.697 17.4358 115.626 17.5189 115.485C17.6031 115.343 17.6472 115.12 17.6509 114.815V114.207Z" fill="#686868"/>
<path fill-rule="evenodd" clip-rule="evenodd" d="M22 101H20V100H22V101Z" fill="black"/>
<path d="M13.8127 98.2487L12.7019 100.96H12.3445L13.4516 98.3449H12V98.0401H13.8127V98.2487Z" fill="#686868"/>
<path d="M14.3562 99.496L14.4925 98.0401H15.8667V98.383H14.7817L14.7006 99.1791C14.8321 99.0949 14.9813 99.0528 15.1483 99.0528C15.3927 99.0528 15.5867 99.141 15.7304 99.3175C15.8741 99.4926 15.946 99.7299 15.946 100.029C15.946 100.33 15.871 100.568 15.7212 100.741C15.5726 100.914 15.3644 101 15.0967 101C14.8597 101 14.6663 100.928 14.5164 100.785C14.3666 100.642 14.2812 100.445 14.2604 100.192H14.5827C14.6036 100.359 14.6583 100.485 14.7467 100.571C14.8351 100.655 14.9518 100.697 15.0967 100.697C15.2551 100.697 15.3792 100.638 15.4688 100.521C15.5597 100.403 15.6052 100.241 15.6052 100.033C15.6052 99.8382 15.556 99.6818 15.4578 99.5642C15.3608 99.4452 15.2312 99.3857 15.0691 99.3857C14.9205 99.3857 14.8038 99.4211 14.7191 99.492L14.6288 99.5722L14.3562 99.496Z" fill="#686868"/>
<path d="M18 99.7146C18 100.149 17.9318 100.472 17.7955 100.683C17.6592 100.894 17.4461 101 17.1563 101C16.8701 101 16.6583 100.897 16.5207 100.691C16.3832 100.484 16.3119 100.175 16.307 99.7647V99.2694C16.307 98.8402 16.3752 98.5214 16.5115 98.3128C16.6478 98.1043 16.8615 98 17.1526 98C17.4412 98 17.6537 98.1009 17.79 98.3028C17.9263 98.5033 17.9963 98.8135 18 99.2333V99.7146ZM17.6592 99.2072C17.6592 98.893 17.6187 98.6644 17.5376 98.5214C17.4566 98.377 17.3282 98.3048 17.1526 98.3048C16.9782 98.3048 16.8511 98.3763 16.7713 98.5194C16.6914 98.6624 16.6503 98.8824 16.6478 99.1791V99.7727C16.6478 100.088 16.6896 100.322 16.7731 100.473C16.8578 100.622 16.9856 100.697 17.1563 100.697C17.3245 100.697 17.4492 100.626 17.5302 100.485C17.6125 100.343 17.6555 100.12 17.6592 99.8148V99.2072Z" fill="#686868"/>
<path d="M11.0366 85.9599H10.6917V83.4873L10 83.762V83.4251L10.9828 83.0261H11.0366V85.9599Z" fill="#686868"/>
<path d="M13.7348 84.7146C13.7348 85.1491 13.6662 85.4719 13.529 85.6832C13.3917 85.8944 13.1773 86 12.8855 86C12.5974 86 12.3842 85.8971 12.2457 85.6912C12.1072 85.484 12.0355 85.1751 12.0306 84.7647V84.2694C12.0306 83.8402 12.0992 83.5214 12.2364 83.3128C12.3737 83.1043 12.5888 83 12.8818 83C13.1723 83 13.3862 83.1009 13.5234 83.3028C13.6606 83.5033 13.7311 83.8135 13.7348 84.2333V84.7146ZM13.3917 84.2072C13.3917 83.893 13.351 83.6644 13.2694 83.5214C13.1878 83.377 13.0586 83.3048 12.8818 83.3048C12.7062 83.3048 12.5783 83.3763 12.4979 83.5194C12.4176 83.6624 12.3761 83.8824 12.3737 84.1791V84.7727C12.3737 85.0882 12.4157 85.3215 12.4998 85.4726C12.5851 85.6223 12.7136 85.6972 12.8855 85.6972C13.0549 85.6972 13.1803 85.6263 13.2619 85.4846C13.3448 85.3429 13.388 85.1197 13.3917 84.8148V84.2072Z" fill="#686868"/>
<path d="M15.8674 84.7146C15.8674 85.1491 15.7988 85.4719 15.6616 85.6832C15.5243 85.8944 15.3098 86 15.0181 86C14.73 86 14.5168 85.8971 14.3783 85.6912C14.2398 85.484 14.1681 85.1751 14.1632 84.7647V84.2694C14.1632 83.8402 14.2318 83.5214 14.369 83.3128C14.5063 83.1043 14.7214 83 15.0144 83C15.3049 83 15.5188 83.1009 15.656 83.3028C15.7932 83.5033 15.8637 83.8135 15.8674 84.2333V84.7146ZM15.5243 84.2072C15.5243 83.893 15.4835 83.6644 15.4019 83.5214C15.3204 83.377 15.1912 83.3048 15.0144 83.3048C14.8388 83.3048 14.7109 83.3763 14.6305 83.5194C14.5501 83.6624 14.5087 83.8824 14.5063 84.1791V84.7727C14.5063 85.0882 14.5483 85.3215 14.6324 85.4726C14.7177 85.6223 14.8462 85.6972 15.0181 85.6972C15.1875 85.6972 15.3129 85.6263 15.3945 85.4846C15.4774 85.3429 15.5206 85.1197 15.5243 84.8148V84.2072Z" fill="#686868"/>
<path d="M18 84.7146C18 85.1491 17.9314 85.4719 17.7942 85.6832C17.6569 85.8944 17.4424 86 17.1507 86C16.8626 86 16.6494 85.8971 16.5109 85.6912C16.3724 85.484 16.3007 85.1751 16.2958 84.7647V84.2694C16.2958 83.8402 16.3644 83.5214 16.5016 83.3128C16.6389 83.1043 16.854 83 17.147 83C17.4375 83 17.6514 83.1009 17.7886 83.3028C17.9258 83.5033 17.9963 83.8135 18 84.2333V84.7146ZM17.6569 84.2072C17.6569 83.893 17.6161 83.6644 17.5345 83.5214C17.4529 83.377 17.3238 83.3048 17.147 83.3048C16.9714 83.3048 16.8435 83.3763 16.7631 83.5194C16.6827 83.6624 16.6413 83.8824 16.6389 84.1791V84.7727C16.6389 85.0882 16.6809 85.3215 16.765 85.4726C16.8503 85.6223 16.9788 85.6972 17.1507 85.6972C17.32 85.6972 17.4455 85.6263 17.5271 85.4846C17.61 85.3429 17.6532 85.1197 17.6569 84.8148V84.2072Z" fill="#686868"/>
<path fill-rule="evenodd" clip-rule="evenodd" d="M209 130.5H22V130H209V130.5Z" fill="#CCCCCC"/>
<path fill-rule="evenodd" clip-rule="evenodd" d="M209 115.5H22V115H209V115.5Z" fill="#CCCCCC"/>
<path fill-rule="evenodd" clip-rule="evenodd" d="M40 144V86H40.5V144H40Z" fill="#CCCCCC"/>
<path fill-rule="evenodd" clip-rule="evenodd" d="M59 144V86H59.5V144H59Z" fill="#CCCCCC"/>
<path fill-rule="evenodd" clip-rule="evenodd" d="M78 144V86H78.5V144H78Z" fill="#CCCCCC"/>
<path fill-rule="evenodd" clip-rule="evenodd" d="M97 144V86H97.5V144H97Z" fill="#CCCCCC"/>
<path fill-rule="evenodd" clip-rule="evenodd" d="M116 144V86H116.5V144H116Z" fill="#CCCCCC"/>
<path fill-rule="evenodd" clip-rule="evenodd" d="M135 144V86H135.5V144H135Z" fill="#CCCCCC"/>
<path fill-rule="evenodd" clip-rule="evenodd" d="M154 144V86H154.5V144H154Z" fill="#CCCCCC"/>
<path fill-rule="evenodd" clip-rule="evenodd" d="M173 144V86H173.5V144H173Z" fill="#CCCCCC"/>
<path fill-rule="evenodd" clip-rule="evenodd" d="M185 144V86H185.5V144H185Z" fill="#CCCCCC"/>
<path fill-rule="evenodd" clip-rule="evenodd" d="M209 100.5H22V100H209V100.5Z" fill="#CCCCCC"/>
<path fill-rule="evenodd" clip-rule="evenodd" d="M209 56.5H22V56H209V56.5Z" fill="#CCCCCC"/>
<path opacity="0.24" d="M22 141.485L36.8182 136.19L51.6364 141.668L66.4545 136.105L81.2727 135.862L96.0909 134.902L110.909 132L125.727 138.024L140.545 133.919L155.364 133.056L170.182 127.004L185 115.4V144H170.182H155.364H140.545H125.727H110.909H96.0909H81.2727H66.4545H51.6364H36.8182H22V141.485Z" fill="#2196F3" fill-opacity="0.67"/>
<path fill-rule="evenodd" clip-rule="evenodd" d="M111.14 102.705L126.501 121.436L124.954 122.705L110.678 105.296L96.4498 113.656L81.3933 116.581L66.9233 117.292L51.6421 134.5L36.8057 118.049L22.7312 133.136L21.2688 131.771L36.8307 115.09L51.6306 131.501L65.9858 115.336L81.1523 114.59L95.7321 111.758L111.14 102.705Z" fill="#2A7DEC"/>
<path fill-rule="evenodd" clip-rule="evenodd" d="M110.675 108.337L126.364 121.294L125.091 122.836L111.143 111.317L96.3744 134.413L80.6916 123.548L66.3523 113.002L51.7116 120.242L36.7663 115.29L22.218 118.54L21.782 116.588L36.8701 113.217L51.5612 118.085L66.5568 110.67L81.8539 121.92L95.8075 131.587L110.675 108.337Z" fill="#F2C94C"/>
<path d="M125 119H128V124H125V119Z" fill="#2A7DEC"/>
<path d="M130 117H133V126H130V117Z" fill="#2A7DEC"/>
<path d="M135 112H138V124H135V112Z" fill="#2A7DEC"/>
<path d="M140 119H143V136H140V119Z" fill="#2A7DEC"/>
<path d="M145 115H148V128H145V115Z" fill="#2A7DEC"/>
<path d="M150 110H153V127H150V110Z" fill="#2A7DEC"/>
<path d="M155 116H158V129H155V116Z" fill="#2A7DEC"/>
<path d="M160 101H163V124H160V101Z" fill="#2A7DEC"/>
<path d="M165 96H168V109H165V96Z" fill="#2A7DEC"/>
<path d="M170 99H173V112H170V99Z" fill="#2A7DEC"/>
<path d="M175 86H178V109H175V86Z" fill="#2A7DEC"/>
<path d="M180 95H183V104H180V95Z" fill="#2A7DEC"/>
<path fill-rule="evenodd" clip-rule="evenodd" d="M124 144V86H125V144H124Z" fill="black"/>
<path fill-rule="evenodd" clip-rule="evenodd" d="M21 144V86H22V144H21Z" fill="black"/>
</g>
<path d="M102 20H133V21H102V20Z" fill="#305680"/>
<defs>
<clipPath id="clip0">
<rect width="176" height="97" fill="white" transform="translate(10 53)"/>
</clipPath>
</defs>
</svg>
