<svg width="18" height="18" viewBox="0 0 18 18" fill="none" xmlns="http://www.w3.org/2000/svg">
<path fill-rule="evenodd" clip-rule="evenodd" d="M1.5 2C0.671573 2 0 2.67157 0 3.5V14.5C0 15.3284 0.671573 16 1.5 16H16.5C17.3284 16 18 15.3284 18 14.5V3.5C18 2.67157 17.3284 2 16.5 2H1.5ZM3.23547 4.17832C2.91974 3.9102 2.44644 3.9488 2.17832 4.26453C1.9102 4.58026 1.9488 5.05356 2.26453 5.32168L6.08752 8.56819L2.68439 11.4256C2.36717 11.692 2.32594 12.1651 2.59229 12.4823C2.85864 12.7995 3.33172 12.8407 3.64894 12.5744L7.30597 9.50375L7.49633 9.62807C8.40999 10.2247 9.59001 10.2247 10.5037 9.62807L10.694 9.50375L14.3511 12.5744C14.6683 12.8407 15.1414 12.7995 15.4077 12.4823C15.6741 12.1651 15.6328 11.692 15.3156 11.4256L11.9125 8.56819L15.7355 5.32168C16.0512 5.05356 16.0898 4.58026 15.8217 4.26453C15.5536 3.9488 15.0803 3.9102 14.7645 4.17832L10.3005 7.96924L9.68349 8.37216C9.26819 8.64338 8.73181 8.64338 8.31651 8.37216L7.69955 7.96924L3.23547 4.17832Z" fill="#212529"/>
</svg>
