<svg width="18" height="18" viewBox="0 0 18 18" fill="none" xmlns="http://www.w3.org/2000/svg">
<path d="M15.1384 11.2603C14.4878 10.6181 13.6757 10.6181 13.0293 11.2603C12.5362 11.7492 12.0431 12.2381 11.5583 12.7353C11.4257 12.8721 11.3139 12.9011 11.1523 12.8099C10.8332 12.6359 10.4934 12.495 10.1868 12.3044C8.7573 11.4053 7.55982 10.2493 6.49907 8.94825C5.97284 8.30188 5.50462 7.60993 5.17728 6.83096C5.11099 6.67351 5.12342 6.56993 5.25187 6.44148C5.74495 5.96499 6.2256 5.47606 6.71039 4.98714C7.38579 4.30761 7.38579 3.51208 6.70625 2.82841C6.3209 2.43893 5.93555 2.05773 5.5502 1.66825C5.15242 1.27048 4.75879 0.868568 4.35686 0.474942C3.70633 -0.159003 2.89419 -0.159003 2.2478 0.479085C1.75057 0.96801 1.27407 1.46936 0.768555 1.95C0.300335 2.39335 0.0641529 2.93614 0.0144304 3.57008C-0.0642969 4.6018 0.188459 5.5755 0.544804 6.52435C1.27407 8.48833 2.38454 10.2327 3.73119 11.8321C5.5502 13.995 7.72142 15.7062 10.2614 16.9409C11.405 17.4961 12.5901 17.9229 13.8787 17.9934C14.7654 18.0431 15.5361 17.8193 16.1535 17.1274C16.5762 16.655 17.0527 16.2241 17.5002 15.7725C18.1631 15.1012 18.1673 14.2891 17.5085 13.6262C16.7212 12.8348 15.9298 12.0475 15.1384 11.2603Z" fill="#212529"/>
</svg>
