<svg width="24" height="24" viewBox="0 0 24 24" fill="none" xmlns="http://www.w3.org/2000/svg">
<path d="M16 21.5C16 20.1193 17.1193 19 18.5 19H19.5C20.8807 19 22 20.1193 22 21.5V21.5C22 21.7761 21.7761 22 21.5 22H16.5C16.2239 22 16 21.7761 16 21.5V21.5Z" fill="#2A7DEC"/>
<path d="M8 21.2857C8 18.9188 9.91878 17 12.2857 17H14.7143C17.0812 17 19 18.9188 19 21.2857V21.2857C19 21.6802 18.6802 22 18.2857 22H8.71429C8.3198 22 8 21.6802 8 21.2857V21.2857Z" fill="#2A7DEC"/>
<path d="M2 21.5C2 20.1193 3.11929 19 4.5 19H9.5C10.8807 19 12 20.1193 12 21.5V21.5C12 21.7761 11.7761 22 11.5 22H2.5C2.22386 22 2 21.7761 2 21.5V21.5Z" fill="#2A7DEC"/>
<path fill-rule="evenodd" clip-rule="evenodd" d="M11.5208 9C11.2332 9 11 9.23317 11 9.5208V19.0709C11.3266 19.0242 11.6605 19 12 19H12.8333L12.0398 9.47755C12.0173 9.20762 11.7917 9 11.5208 9Z" fill="#2A7DEC"/>
<path d="M20 6L16.1535 6.74793C13.1607 7.32987 11 9.95113 11 13V13L14.8465 12.2521C17.8393 11.6701 20 9.04887 20 6V6Z" fill="#2A7DEC"/>
<path d="M4 2L7.79819 3.6278C10.3473 4.72025 12 7.22671 12 10V10L8.20181 8.3722C5.65275 7.27975 4 4.77329 4 2V2Z" fill="#2A7DEC"/>
</svg>
