<svg width="24" height="24" viewBox="0 0 24 24" fill="none" xmlns="http://www.w3.org/2000/svg">
    <path fill-rule="evenodd" clip-rule="evenodd" d="M10.9433 8.42847C10.7379 8.42847 10.5713 8.59504 10.5713 8.80047V15.7784C10.9877 15.6545 11.4268 15.5833 11.8809 15.5727L11.314 8.76954C11.2979 8.57675 11.1368 8.42847 10.9433 8.42847Z" fill="#2A7DEC"/>
    <path d="M19.1427 4.85718L15.3101 5.57582C12.5624 6.09096 10.5713 8.49017 10.5713 11.2857L14.4039 10.5671C17.1516 10.052 19.1427 7.65275 19.1427 4.85718Z" fill="#2A7DEC"/>
    <path d="M4.14355 2L7.53476 3.45336C9.81076 4.42878 11.2864 6.66671 11.2864 9.14285L7.89519 7.68949C5.61922 6.71407 4.14355 4.47614 4.14355 2Z" fill="#2A7DEC"/>
    <path d="M14.8574 21.2858C14.8574 19.3134 16.4564 17.7144 18.4288 17.7144C20.4013 17.7144 22.0003 19.3134 22.0003 21.2858C22.0003 21.6803 21.6805 22.0001 21.286 22.0001H15.5717C15.1772 22.0001 14.8574 21.6803 14.8574 21.2858Z" fill="#D4E5FB"/>
    <path d="M7.71484 20.5714C7.71484 18.2044 9.63363 16.2856 12.0006 16.2856H14.1434C16.5103 16.2856 18.4291 18.2044 18.4291 20.5714V21.2856C18.4291 21.6801 18.1093 21.9999 17.7148 21.9999H8.42913C8.03463 21.9999 7.71484 21.6801 7.71484 21.2856V20.5714Z" fill="#D4E5FB"/>
    <path d="M2 21.4047C2 19.761 3.33248 18.4285 4.97619 18.4285H7.59521C9.23892 18.4285 10.5714 19.761 10.5714 21.4047C10.5714 21.7334 10.3049 21.9999 9.9762 21.9999H2.59523C2.2665 21.9999 2 21.7334 2 21.4047Z" fill="#D4E5FB"/>
</svg>
