<svg width="64" height="64" viewBox="0 0 64 64" fill="none" xmlns="http://www.w3.org/2000/svg">
<path fill-rule="evenodd" clip-rule="evenodd" d="M29.1834 22.476C28.6356 22.476 28.1914 22.9201 28.1914 23.468V42.0757C29.3019 41.7453 30.4727 41.5555 31.6838 41.5272L30.172 23.3855C30.1291 22.8714 29.6994 22.476 29.1834 22.476Z" fill="#2A7DEC"/>
<path d="M51.0485 12.9525L40.8283 14.8689C33.5011 16.2426 28.1914 22.6405 28.1914 30.0954L38.4116 28.179C45.7388 26.8053 51.0485 20.4074 51.0485 12.9525Z" fill="#2A7DEC"/>
<path d="M11.0481 5.33337L20.0913 9.20899C26.1606 11.8101 30.0957 17.7779 30.0957 24.381L21.0525 20.5054C14.9832 17.9042 11.0481 11.9364 11.0481 5.33337Z" fill="#2A7DEC"/>
<path d="M39.6199 56.7617C39.6199 51.5019 43.8839 47.2379 49.1437 47.2379C54.4035 47.2379 58.6675 51.5019 58.6675 56.7617C58.6675 57.8137 57.8147 58.6665 56.7627 58.6665H41.5246C40.4726 58.6665 39.6199 57.8137 39.6199 56.7617Z" fill="#D4E5FB"/>
<path d="M20.5715 54.8569C20.5715 48.5451 25.6883 43.4283 32.0001 43.4283H37.7144C44.0262 43.4283 49.1429 48.5451 49.1429 54.8569V56.7617C49.1429 57.8137 48.2902 58.6664 47.2382 58.6664H22.4763C21.4243 58.6664 20.5715 57.8137 20.5715 56.7617V54.8569Z" fill="#D4E5FB"/>
<path d="M5.33325 57.0795C5.33325 52.6963 8.88654 49.1429 13.2698 49.1429H20.2538C24.637 49.1429 28.1904 52.6963 28.1904 57.0795C28.1904 57.9561 27.4797 58.6667 26.6031 58.6667H6.92055C6.04392 58.6667 5.33325 57.9561 5.33325 57.0795Z" fill="#D4E5FB"/>
</svg>
