<svg width="34" height="44" viewBox="0 0 34 44" fill="none" xmlns="http://www.w3.org/2000/svg">
<path fill-rule="evenodd" clip-rule="evenodd" d="M3.71752 15.1489H3V12.766H3.71752C3.84774 12.1781 4.07669 11.6178 4.3942 11.1098L3.88085 10.5855L5.53172 8.89362L6.04506 9.41787C6.5429 9.09571 7.09156 8.86392 7.66677 8.73277V8H10.0001V8.73277C10.5757 8.86576 11.1244 9.09957 11.6219 9.42383L12.1352 8.89362L13.7861 10.5796L13.2727 11.1038C13.5908 11.6137 13.8198 12.1761 13.9494 12.766H14.6669V15.1489H13.9494C13.8192 15.7368 13.5902 16.2971 13.2727 16.8051L13.7861 17.3294L12.1352 19.0213L11.6219 18.497C11.124 18.8192 10.5754 19.051 10.0001 19.1821V19.9149H7.66677V19.1821C7.09118 19.0491 6.5425 18.8153 6.04506 18.4911L5.53172 19.0213L3.88085 17.3294L4.3942 16.8051C4.07669 16.2971 3.84774 15.7368 3.71752 15.1489ZM5.92325 15.9433C5.53866 15.3555 5.33338 14.6644 5.33338 13.9574C5.33338 13.0094 5.70214 12.1003 6.35853 11.4299C7.01492 10.7596 7.90518 10.383 8.83346 10.383C9.52571 10.383 10.2024 10.5926 10.778 10.9854C11.3536 11.3782 11.8022 11.9364 12.0671 12.5896C12.332 13.2427 12.4013 13.9614 12.2663 14.6548C12.1312 15.3482 11.7979 15.9851 11.3084 16.485C10.8189 16.9849 10.1952 17.3253 9.51629 17.4632C8.83734 17.6012 8.13359 17.5304 7.49404 17.2598C6.85448 16.9893 6.30785 16.5311 5.92325 15.9433Z" fill="#D4E5FB"/>
<path d="M13.5002 36.2054L14.0311 25.3211C14.0472 25.1925 14.0252 25.062 13.968 24.9462C13.9109 24.8305 13.8211 24.7349 13.7103 24.6717L9.14265 22.0803C9.04776 22.0276 8.94148 22 8.83348 22C8.72548 22 8.6192 22.0276 8.52431 22.0803L3.95671 24.6717C3.84588 24.7349 3.75609 24.8305 3.69891 24.9462C3.64173 25.062 3.61978 25.1925 3.63587 25.3211L4.16671 36.2054H13.5002Z" fill="#2B7DEC"/>
<path d="M25.1671 11.5745H25.2254C25.37 12.2977 25.7724 12.9404 26.3545 13.3779C26.9367 13.8154 27.6572 14.0166 28.3764 13.9424C29.0955 13.8682 29.7621 13.5239 30.2468 12.9764C30.7316 12.4288 31 11.7169 31 10.9787C31 10.2406 30.7316 9.52868 30.2468 8.98111C29.7621 8.43354 29.0955 8.08928 28.3764 8.01509C27.6572 7.9409 26.9367 8.14205 26.3545 8.57955C25.7724 9.01705 25.37 9.65973 25.2254 10.383H25.1671H21.0837C20.929 10.383 20.7806 10.4458 20.6712 10.5575C20.5618 10.6692 20.5003 10.8207 20.5003 10.9787V21.1064H15.2502C15.0955 21.1064 14.9471 21.1692 14.8377 21.2809C14.7283 21.3926 14.6669 21.5441 14.6669 21.7021C14.6669 21.8601 14.7283 22.0117 14.8377 22.1234C14.9471 22.2351 15.0955 22.2979 15.2502 22.2979H20.5003V32.4255C20.5003 32.5835 20.5618 32.7351 20.6712 32.8468C20.7806 32.9585 20.929 33.0213 21.0837 33.0213H25.1671H25.2254C25.37 33.7445 25.7724 34.3872 26.3545 34.8247C26.9367 35.2622 27.6572 35.4634 28.3764 35.3892C29.0955 35.315 29.7621 34.9707 30.2468 34.4232C30.7316 33.8756 31 33.1637 31 32.4255C31 31.6874 30.7316 30.9755 30.2468 30.4279C29.7621 29.8803 29.0955 29.5361 28.3764 29.4619C27.6572 29.3877 26.9367 29.5889 26.3545 30.0264C25.7724 30.4639 25.37 31.1065 25.2254 31.8298H25.1671H21.667V22.2979H25.1671H25.2254C25.37 23.0211 25.7724 23.6638 26.3545 24.1013C26.9367 24.5388 27.6572 24.74 28.3764 24.6658C29.0955 24.5916 29.7621 24.2473 30.2468 23.6998C30.7316 23.1522 31 22.4403 31 21.7021C31 20.964 30.7316 20.2521 30.2468 19.7045C29.7621 19.1569 29.0955 18.8127 28.3764 18.7385C27.6572 18.6643 26.9367 18.8655 26.3545 19.303C25.7724 19.7404 25.37 20.3831 25.2254 21.1064H25.1671H21.667V11.5745H25.1671Z" fill="#D4E5FB"/>
<circle cx="28" cy="11" r="3" fill="#2B7DEC"/>
<circle cx="28" cy="21.7" r="3" fill="#2B7DEC"/>
<circle cx="28" cy="32.45" r="3" fill="#2B7DEC"/>
</svg>
