<svg width="100" height="100" viewBox="0 0 100 100" fill="none" xmlns="http://www.w3.org/2000/svg">
<g filter="url(#filter0_d)">
<path fill-rule="evenodd" clip-rule="evenodd" d="M48 16C49.1046 16 50 16.8954 50 18L50 61C50 62.1046 49.1046 63 48 63H25C23.8954 63 23 62.1046 23 61V18C23 16.8954 23.8954 16 25 16L48 16ZM29 22H34V27H29V22ZM34 32H29V37H34V32ZM29 42H34V47H29V42ZM34 52H29V57H34V52ZM39 22H44V27H39V22ZM44 32H39V37H44V32ZM39 42H44V47H39V42ZM44 52H39V57H44V52Z" fill="#2A7DEC"/>
<path fill-rule="evenodd" clip-rule="evenodd" d="M77 58C77 60.7614 74.7614 63 72 63L54 63L54 59L72 59C72.5523 59 73 58.5523 73 58L73 37C73 36.4477 72.5523 36 72 36L54 36L54 32L72 32C74.7614 32 77 34.2386 77 37L77 58Z" fill="#305680"/>
<path d="M54 40H59V45H54V40Z" fill="#2A7DEC"/>
<path d="M54 50H59V55H54V50Z" fill="#2A7DEC"/>
<path d="M64 40H69V45H64V40Z" fill="#2A7DEC"/>
<path d="M64 50H69V55H64V50Z" fill="#2A7DEC"/>
</g>
<defs>
<filter id="filter0_d" x="-16" y="-8" width="132" height="132" filterUnits="userSpaceOnUse" color-interpolation-filters="sRGB">
<feFlood flood-opacity="0" result="BackgroundImageFix"/>
<feColorMatrix in="SourceAlpha" type="matrix" values="0 0 0 0 0 0 0 0 0 0 0 0 0 0 0 0 0 0 127 0"/>
<feOffset dy="10"/>
<feGaussianBlur stdDeviation="10"/>
<feColorMatrix type="matrix" values="0 0 0 0 0 0 0 0 0 0 0 0 0 0 0 0 0 0 0.1 0"/>
<feBlend mode="normal" in2="BackgroundImageFix" result="effect1_dropShadow"/>
<feBlend mode="normal" in="SourceGraphic" in2="effect1_dropShadow" result="shape"/>
</filter>
</defs>
</svg>
