<svg width="94" height="92" viewBox="0 0 94 92" fill="none" xmlns="http://www.w3.org/2000/svg">
<g filter="url(#filter0_d)">
<path fill-rule="evenodd" clip-rule="evenodd" d="M45 15C46.1046 15 47 15.8954 47 17L47 60C47 61.1046 46.1046 62 45 62H22C20.8954 62 20 61.1046 20 60V17C20 15.8954 20.8954 15 22 15L45 15ZM26 21H31V26H26V21ZM31 31H26V36H31V31ZM26 41H31V46H26V41ZM31 51H26V56H31V51ZM36 21H41V26H36V21ZM41 31H36V36H41V31ZM36 41H41V46H36V41ZM41 51H36V56H41V51Z" fill="#2A7DEC"/>
<path fill-rule="evenodd" clip-rule="evenodd" d="M74 57C74 59.7614 71.7614 62 69 62L51 62L51 58L69 58C69.5523 58 70 57.5523 70 57L70 36C70 35.4477 69.5523 35 69 35L51 35L51 31L69 31C71.7614 31 74 33.2386 74 36L74 57Z" fill="#305680"/>
<path d="M51 39H56V44H51V39Z" fill="#2A7DEC"/>
<path d="M51 49H56V54H51V49Z" fill="#2A7DEC"/>
<path d="M61 39H66V44H61V39Z" fill="#2A7DEC"/>
<path d="M61 49H66V54H61V49Z" fill="#2A7DEC"/>
</g>
<defs>
<filter id="filter0_d" x="-19" y="-10" width="132" height="124" filterUnits="userSpaceOnUse" color-interpolation-filters="sRGB">
<feFlood flood-opacity="0" result="BackgroundImageFix"/>
<feColorMatrix in="SourceAlpha" type="matrix" values="0 0 0 0 0 0 0 0 0 0 0 0 0 0 0 0 0 0 127 0"/>
<feOffset dy="10"/>
<feGaussianBlur stdDeviation="10"/>
<feColorMatrix type="matrix" values="0 0 0 0 0 0 0 0 0 0 0 0 0 0 0 0 0 0 0.1 0"/>
<feBlend mode="normal" in2="BackgroundImageFix" result="effect1_dropShadow"/>
<feBlend mode="normal" in="SourceGraphic" in2="effect1_dropShadow" result="shape"/>
</filter>
</defs>
</svg>
