<svg width="24" height="24" fill="none" xmlns="http://www.w3.org/2000/svg"><path d="M2 9h20v8a4 4 0 0 1-4 4H6a4 4 0 0 1-4-4V9ZM9.5 5a.5.5 0 0 0 .5-.5.5.5 0 0 1 .5-.5h3a.5.5 0 0 1 .5.5.5.5 0 0 0 .5.5h.5a1 1 0 0 0 1-1 2 2 0 0 0-2-2h-4a2 2 0 0 0-2 2 1 1 0 0 0 1 1h.5Z" fill="#2A7DEC"/><path d="M5 5.5h14A2.5 2.5 0 0 1 21.5 8v1.279a1.5 1.5 0 0 1-1.026 1.423l-5.161 1.721a1.5 1.5 0 0 1-.475.077H9.162a1.5 1.5 0 0 1-.475-.077l-5.162-1.721A1.5 1.5 0 0 1 2.5 9.279V8A2.5 2.5 0 0 1 5 5.5Z" fill="#D4E5FB" stroke="#fff"/></svg>