<svg width="24" height="24" viewBox="0 0 24 24" fill="none" xmlns="http://www.w3.org/2000/svg">
    <path d="M17.3457 20.248C17.3457 21.3526 16.4503 22.248 15.3457 22.248H7.3457C6.39505 22.248 5.60175 21.5843 5.39844 20.6953C5.54241 20.7282 5.69174 20.748 5.8457 20.748H13.8457C14.9503 20.748 15.8457 19.8526 15.8457 18.748V18.6328C16.4015 18.4084 16.9087 18.0893 17.3457 17.6934V20.248ZM15.793 4.2998C16.6819 4.50305 17.3455 5.29754 17.3457 6.24805V10.2061C16.9087 9.81016 16.4014 9.49102 15.8457 9.2666V4.74805C15.8457 4.59385 15.826 4.44398 15.793 4.2998Z" fill="#D4E5FB"/>
    <path fill-rule="evenodd" clip-rule="evenodd" d="M9.69922 13.9254C9.69922 16.2591 11.637 18.1508 14.0267 18.1508C16.4164 18.1508 18.3546 16.2587 18.3546 13.9254C18.3546 11.592 16.4168 9.69995 14.0267 9.69995C11.6366 9.69995 9.69922 11.5916 9.69922 13.9254ZM11.1561 13.9254C11.1561 12.3775 12.4414 11.1225 14.0267 11.1225C15.612 11.1225 16.8973 12.3775 16.8973 13.9254C16.8973 15.4733 15.612 16.7283 14.0267 16.7283C12.4414 16.7283 11.1561 15.4733 11.1561 13.9254ZM21.8274 20.0425C22.5507 20.6808 20.9453 22.2483 20.2916 21.542L18.2381 19.3233L19.555 18.0375L21.8274 20.0425ZM19.0989 17.6345L17.8255 18.8775L16.4384 17.4342C16.892 17.1197 17.2832 16.7443 17.6058 16.3014L19.0989 17.6345Z" fill="#2B7DEC"/>
    <path d="M18.2381 19.3233L19.555 18.0375L19.0989 17.6345L17.8255 18.8775L18.2381 19.3233Z" fill="#2B7DEC"/>
    <path d="M13.5 2C14.3284 2 15 2.67157 15 3.5V9.00977C14.6614 8.93817 14.3101 8.90039 13.9502 8.90039C11.1612 8.9005 8.90039 11.1612 8.90039 13.9502C8.90055 16.739 11.1613 18.9999 13.9502 19C14.2901 19 14.6222 18.9654 14.9434 18.9014C14.7677 19.5346 14.1892 20 13.5 20H4.5C3.67157 20 3 19.3284 3 18.5V7H7C7.55228 7 8 6.55228 8 6V2H13.5Z" fill="#2B7DEC"/>
    <path d="M7.2 2V5.2C7.2 5.75228 6.75228 6.2 6.2 6.2H3L7.2 2Z" fill="#2B7DEC"/>
</svg>
