<svg width="34" height="44" viewBox="0 0 34 44" fill="none" xmlns="http://www.w3.org/2000/svg">
    <path d="M0.4 16.1875C0.4 15.2915 0.823592 14.614 1.50682 14.0823C2.20177 13.5415 3.1508 13.1662 4.13615 12.9106C5.1161 12.6564 6.10119 12.5282 6.84473 12.4639C7.21559 12.4319 7.52425 12.4159 7.73942 12.4079C7.84697 12.4039 7.93103 12.4019 7.9877 12.401C8.01603 12.4005 8.0375 12.4002 8.05162 12.4001L8.06723 12.4L8.07078 12.4L8.07143 12.4L8.07147 12.4L8.07154 12.4L12 12.4L16.0713 12.4L16.0714 12.4L16.0714 12.4L16.072 12.4L16.0755 12.4L16.0908 12.4001C16.1046 12.4002 16.1256 12.4005 16.1534 12.401C16.209 12.4019 16.2915 12.4039 16.397 12.4079C16.6082 12.4159 16.9112 12.4318 17.2752 12.4639C18.0051 12.5281 18.9719 12.6562 19.9336 12.9102C20.9005 13.1655 21.8313 13.5402 22.5128 14.0801C23.1824 14.6106 23.6 15.2885 23.6 16.1875V16.2134V16.2395V16.2659V16.2924V16.3191V16.3461V16.3732V16.4005V16.428V16.4557V16.4836V16.5117V16.54V16.5685V16.5972V16.626V16.6551V16.6843V16.7137V16.7433V16.7731V16.8031V16.8333V16.8636V16.8942V16.9249V16.9558V16.9868V17.0181V17.0495V17.0811V17.1129V17.1448V17.1769V17.2092V17.2417V17.2744V17.3072V17.3402V17.3733V17.4066V17.4401V17.4738V17.5076V17.5416V17.5757V17.61V17.6445V17.6791V17.7139V17.7488V17.784V17.8192V17.8546V17.8902V17.9259V17.9618V17.9979V18.0341V18.0704V18.1069V18.1435V18.1803V18.2173V18.2544V18.2916V18.329V18.3665V18.4042V18.442V18.4799V18.518V18.5562V18.5946V18.6331V18.6718V18.7105V18.7495V18.7885V18.8277V18.867V18.9065V18.9461V18.9858V19.0256V19.0656V19.1057V19.1459V19.1863V19.2267V19.2674V19.3081V19.3489V19.3899V19.431V19.4722V19.5135V19.555V19.5966V19.6382V19.68V19.722V19.764V19.8061V19.8484V19.8907V19.9332V19.9758V20.0185V20.0613V20.1042V20.1472V20.1903V20.2336V20.2769V20.3203V20.3639V20.4075V20.4512V20.4951V20.539V20.583V20.6272V20.6714V20.7157V20.7601V20.8046V20.8492V20.8939V20.9387V20.9835V21.0285V21.0735V21.1187V21.1639V21.2092V21.2546V21.3V21.3456V21.3912V21.437V21.4827V21.5286V21.5746V21.6206V21.6667V21.7129V21.7592V21.8055V21.8519V21.8984V21.9449V21.9915V22.0382V22.085V22.1318V22.1787V22.2257V22.2727V22.3198V22.3669V22.4142V22.4614V22.5088V22.5562V22.6036V22.6511V22.6987V22.7463V22.794V22.8418V22.8896V22.9374V22.9853V23.0333V23.0813V23.1293V23.1774V23.2256V23.2738V23.322V23.3703V23.4186V23.467V23.5154V23.5639V23.6124V23.6609V23.7095V23.7581V23.8068V23.8555V23.9042V23.953V24.0018V24.0506V24.0995V24.1483V24.1973V24.2462V24.2952V24.3442V24.3933V24.4423V24.4914V24.5405V24.5897V24.6388V24.688V24.7372V24.7864V24.8357V24.8849V24.9342V24.9835V25.0328V25.0822V25.1315V25.1808V25.2302V25.2796V25.329V25.3784V25.4278V25.4772V25.5266V25.576V25.6255V25.6749V25.7244V25.7738V25.8232V25.8727V25.9221V25.9716V26.021V26.0705V26.1199V26.1693V26.2188V26.2682V26.3176V26.367V26.4164V26.4658V26.5152V26.5646V26.6139V26.6633V26.7126V26.7619V26.8112V26.8605V26.9098V26.959V27.0082V27.0574V27.1066V27.1558V27.2049V27.2541V27.3032V27.3522V27.4013V27.4503V27.4993V27.5483V27.5972V27.6461V27.695V27.7438V27.7926V27.8414V27.8901V27.9388V27.9875V28.0361V28.0847V28.1333V28.1818V28.2303V28.2787V28.3271V28.3754V28.4237V28.472V28.5202V28.5684V28.6165V28.6645V28.7126V28.7605V28.8084V28.8563V28.9041V28.9519V28.9996V29.0472V29.0948V29.1423V29.1898V29.2372V29.2846V29.3319V29.3791V29.4263V29.4734V29.5205V29.5674V29.6143V29.6612V29.708V29.7547V29.8013V29.8479V29.8944V29.9408V29.9872V30.0335V30.0797V30.1258V30.1719V30.2178V30.2637V30.3096V30.3553V30.401V30.4465V30.492V30.5374V30.5828V30.628V30.6732V30.7182V30.7632V30.8081V30.8529V30.8976V30.9423V30.9868V31.0312V31.0756V31.1198V31.164V31.208V31.252V31.2959V31.3396V31.3833V31.4269V31.4703V31.5137V31.5569V31.6001V31.6432V31.6861V31.7289V31.7717V31.8143V31.8568V31.8992V31.9415V31.9836V32.0257V32.0677V32.1095V32.1512V32.1928V32.2343V32.2757V32.3169V32.3581V32.3991V32.4399V32.4807V32.5214V32.5619V32.6023V32.6425V32.6827V32.7227V32.7626V32.8023V32.8419V32.8814V32.9208V32.96V32.9991V33.0381V33.0769V33.1156V33.1541V33.1926V33.2308V33.269V33.307V33.3448V33.3825V33.4201V33.4575V33.4948V33.5319V33.5689V33.6057V33.6424V33.679V33.7154V33.7516V33.7877V33.8236V33.8594V33.895V33.9305V33.9658V34.001V34.036V34.0708V34.1055V34.14V34.1743V34.2085V34.2426V34.2764V34.3101V34.3437V34.377V34.4102V34.4433V34.4761V34.5088V34.5414V34.5737V34.6059V34.6379V34.6697V34.7014V34.7329V34.7642V34.7953V34.8262V34.857V34.8876V34.918V34.9482V34.9782V35.0081V35.0377V35.0672V35.0965V35.1256V35.1546V35.1833V35.2118V35.2402V35.2683V35.2963V35.3241V35.3516V35.379V35.4062V35.4332V35.46V35.4866V35.5129V35.5391V35.5651V35.5909V35.6165V35.6419V35.667V35.692V35.7168V35.7413V35.7657V35.7898V35.8137V35.8374V35.8609V35.8842V35.9073V35.9302V35.9528V35.9752V35.9974V36.0194V36.0412V36.0628V36.0841V36.1052V36.1261V36.1468V36.1672V36.1874V36.2074V36.2272V36.2467V36.266V36.2851V36.304V36.3226V36.341V36.3591V36.3771V36.3947V36.4122V36.4294V36.4464V36.4631V36.4796V36.4959V36.5119V36.5277C23.6 36.5489 23.5923 36.565 23.5798 36.5773C23.5667 36.5901 23.5467 36.6 23.52 36.6H0.48C0.453331 36.6 0.433336 36.5901 0.420247 36.5773C0.407675 36.565 0.4 36.5489 0.4 36.5277V16.1875Z" fill="#D4E5FB" stroke="#2A7DEC" stroke-width="0.8"/>
    <path d="M13.5 7H28.5V10H13.5V7Z" fill="#D4E5FB"/>
    <path d="M10.5 12V10H13.5V12H10.5Z" fill="#D4E5FB"/>
    <path d="M28.5 18V10H31.5V18H28.5Z" fill="#D4E5FB"/>
    <path d="M28.5 37V32H31.5V37H28.5Z" fill="#D4E5FB"/>
    <path d="M17.5 20.28C17.5 20.1254 17.6254 20 17.78 20H19.72C19.8746 20 20 20.1254 20 20.28V34.72C20 34.8746 19.8746 35 19.72 35H17.78C17.6254 35 17.5 34.8746 17.5 34.72V20.28Z" fill="#2A7DEC"/>
    <path d="M10.5 10C10.5 10 10.5716 8.72843 11.4 7.9C12.2284 7.07157 13.5 7 13.5 7V10H10.5Z" fill="#D4E5FB"/>
    <path d="M28.5 7C28.5 7 29.7716 7.07157 30.6 7.9C31.4284 8.72843 31.5 10 31.5 10H28.5V7Z" fill="#D4E5FB"/>
    <path d="M0.274509 18.8823C0.122902 18.8823 0 18.7594 0 18.6078C0 18.4562 0.122902 18.3333 0.27451 18.3333H23.7255C23.8771 18.3333 24 18.4562 24 18.6078C24 18.7594 23.8771 18.8823 23.7255 18.8823H0.274509Z" fill="white"/>
    <path d="M7.19995 14.2251C7.19995 13.96 7.41485 13.7451 7.67995 13.7451H16.32C16.585 13.7451 16.8 13.96 16.8 14.2251V16.4024C16.8 16.6675 16.585 16.8824 16.32 16.8824H7.67995C7.41485 16.8824 7.19995 16.6675 7.19995 16.4024V14.2251Z" fill="#2A7DEC"/>
    <path d="M27.4806 32.8799C27.3039 32.8799 27.1606 32.7366 27.1606 32.5599V31.5199C27.1606 31.3432 27.3039 31.1999 27.4806 31.1999H32.5206C32.6973 31.1999 32.8406 31.3432 32.8406 31.5199V32.5599C32.8406 32.7366 32.6973 32.8799 32.5206 32.8799H27.4806Z" fill="#2A7DEC"/>
    <path d="M28.0402 31.1999C28.0402 31.1999 27.5321 29.4664 27.3602 28.3199C27.1931 27.2059 27.1602 26.5663 27.1602 25.4399C27.1602 24.3134 27.1931 23.6739 27.3602 22.5599C27.5321 21.4134 28.0402 19.6799 28.0402 19.6799H31.9602C31.9602 19.6799 32.4282 21.4134 32.6002 22.5599C32.7672 23.6739 32.8324 24.3135 32.8402 25.4399C32.8479 26.5655 32.8062 27.2065 32.6402 28.3199C32.4686 29.4704 31.9602 31.1999 31.9602 31.1999H28.0402Z" fill="#2A7DEC"/>
    <path d="M27.4806 19.6799C27.3039 19.6799 27.1606 19.5366 27.1606 19.3599V18.3199C27.1606 18.1432 27.3039 17.9999 27.4806 17.9999H32.5206C32.6973 17.9999 32.8406 18.1432 32.8406 18.3199V19.3599C32.8406 19.5366 32.6973 19.6799 32.5206 19.6799H27.4806Z" fill="#2A7DEC"/>
    <rect x="27.2" y="19.6799" width="1.68" height="5.68" rx="0.32" transform="rotate(-90 27.2 19.6799)" fill="#2A7DEC"/>
    <rect x="27.2" y="32.8799" width="1.68" height="5.68" rx="0.32" transform="rotate(-90 27.2 32.8799)" fill="#2A7DEC"/>
    <path d="M34 25.4399C34 27.6491 32.2091 29.4399 30 29.4399C27.7909 29.4399 26 27.6491 26 25.4399C26 23.2308 27.7909 21.4399 30 21.4399C32.2091 21.4399 34 23.2308 34 25.4399ZM26.9995 25.4399C26.9995 27.0971 28.3429 28.4404 30 28.4404C31.6571 28.4404 33.0005 27.0971 33.0005 25.4399C33.0005 23.7828 31.6571 22.4395 30 22.4395C28.3429 22.4395 26.9995 23.7828 26.9995 25.4399Z" fill="#D4E5FB"/>
    <path d="M29.7649 24.4399C29.6959 24.4399 29.6399 24.384 29.6399 24.3149V22.4499C29.6399 22.3119 29.7518 22.1999 29.8899 22.1999H30.1099C30.248 22.1999 30.3599 22.3119 30.3599 22.4499V24.3149C30.3599 24.384 30.3039 24.4399 30.2349 24.4399H29.7649Z" fill="#D4E5FB"/>
    <path d="M30.9193 24.9968C30.8948 24.9322 30.9273 24.86 30.9919 24.8356L32.7357 24.1742C32.8648 24.1252 33.0091 24.1902 33.0581 24.3193L33.1467 24.553C33.1957 24.6821 33.1307 24.8265 33.0016 24.8754L31.2578 25.5368C31.1933 25.5613 31.1211 25.5288 31.0966 25.4643L30.9193 24.9968Z" fill="#D4E5FB"/>
    <path d="M29.6149 26.462C29.6697 26.504 29.6801 26.5825 29.6381 26.6373L28.5036 28.1176C28.4196 28.2272 28.2627 28.2479 28.1531 28.1639L27.9547 28.0119C27.8451 27.9279 27.8243 27.7709 27.9083 27.6614L29.0428 26.1811C29.0848 26.1263 29.1632 26.1159 29.218 26.1579L29.6149 26.462Z" fill="#D4E5FB"/>
    <path d="M30.4742 26.462C30.4194 26.504 30.409 26.5825 30.451 26.6373L31.5855 28.1176C31.6695 28.2272 31.8264 28.2479 31.936 28.1639L32.1344 28.0119C32.244 27.9279 32.2648 27.7709 32.1808 27.6614L31.0463 26.1811C31.0043 26.1263 30.9259 26.1159 30.8711 26.1579L30.4742 26.462Z" fill="#D4E5FB"/>
    <path d="M28.938 25.339C28.9178 25.405 28.8479 25.4421 28.7819 25.4219L26.9987 24.8753C26.8667 24.8348 26.7925 24.695 26.833 24.563L26.9063 24.324C26.9467 24.192 27.0865 24.1178 27.2185 24.1582L29.0017 24.7048C29.0677 24.725 29.1048 24.7949 29.0845 24.8609L28.938 25.339Z" fill="#D4E5FB"/>
    <circle cx="30" cy="25.4397" r="1.2" fill="#D4E5FB"/>
    <path d="M30.9201 25.44C30.9201 25.9481 30.5082 26.36 30.0001 26.36C29.492 26.36 29.0801 25.9481 29.0801 25.44C29.0801 24.9319 29.492 24.52 30.0001 24.52C30.5082 24.52 30.9201 24.9319 30.9201 25.44Z" fill="#2A7DEC"/>
</svg>
