<svg width="34" height="44" viewBox="0 0 34 44" fill="none" xmlns="http://www.w3.org/2000/svg">
<path fill-rule="evenodd" clip-rule="evenodd" d="M3 24C3 20.6863 5.68629 18 9 18H27C27.5523 18 28 18.4477 28 19C28 19.5523 27.5523 20 27 20H9C6.79086 20 5 21.7909 5 24C5 26.2091 6.79086 28 9 28H30C30.5523 28 31 28.4477 31 29C31 29.5523 30.5523 30 30 30H9C5.68629 30 3 27.3137 3 24Z" fill="#D4E5FB"/>
<path d="M5 30C5 28.3431 6.34315 27 8 27H31V30C31 31.6569 29.6569 33 28 33H5V30Z" fill="#2A7DEC"/>
<path fill-rule="evenodd" clip-rule="evenodd" d="M28.0024 27H21.0005H20.0005H12.001C13.8254 24.5711 16.7301 23 20.0017 23C23.2733 23 26.178 24.5711 28.0024 27Z" fill="#2A7DEC"/>
<path fill-rule="evenodd" clip-rule="evenodd" d="M10 36C11.6569 36 13 34.6569 13 33C13 31.3431 11.6569 30 10 30C8.34315 30 7 31.3431 7 33C7 34.6569 8.34315 36 10 36Z" fill="#2A7DEC"/>
<path fill-rule="evenodd" clip-rule="evenodd" d="M25 36C26.6569 36 28 34.6569 28 33C28 31.3431 26.6569 30 25 30C23.3431 30 22 31.3431 22 33C22 34.6569 23.3431 36 25 36Z" fill="#2A7DEC"/>
<path fill-rule="evenodd" clip-rule="evenodd" d="M27 18.6667C27 18.6667 31 15.5425 31 12C31 9.79086 29.2091 8 27 8C24.7909 8 23 9.79086 23 12C23 15.5425 27 18.6667 27 18.6667ZM27 13.3333C27.7364 13.3333 28.3333 12.7364 28.3333 12C28.3333 11.2636 27.7364 10.6667 27 10.6667C26.2636 10.6667 25.6667 11.2636 25.6667 12C25.6667 12.7364 26.2636 13.3333 27 13.3333Z" fill="#2A7DEC"/>
</svg>
