<svg width="20" height="20" viewBox="0 0 20 20" fill="none" xmlns="http://www.w3.org/2000/svg">
    <path d="M5.16864 5.89844C4.62477 5.89844 4.31432 6.51934 4.64064 6.95444L7.18832 10.3513C7.29875 10.4989 7.4727 10.5859 7.65695 10.5859H12.3445C12.5287 10.5859 12.7027 10.4989 12.8131 10.3513L15.3608 6.95444C15.6871 6.51934 15.3766 5.89844 14.8328 5.89844H5.16864Z" fill="#2A7DEC"/>
    <path d="M13.0482 0C12.9948 0 12.9437 0.0212999 12.9062 0.0591667L8.61536 4.38573C8.49017 4.51196 8.57959 4.72656 8.75737 4.72656H10.0525C10.1059 4.72656 10.157 4.70526 10.1945 4.6674L14.4853 0.340834C14.6105 0.214603 14.5211 0 14.3433 0H13.0482Z" fill="#C7DDFA"/>
    <path d="M4.28613 0C3.96227 0 3.7002 0.26207 3.7002 0.585938V4.52656C3.7002 4.63702 3.78974 4.72656 3.9002 4.72656H3.96019C4.01352 4.72656 4.06464 4.70526 4.10219 4.6674L8.393 0.340834C8.51819 0.214603 8.42877 0 8.25099 0H4.28613Z" fill="#C7DDFA"/>
    <path d="M15.7676 4.72656C16.0914 4.72656 16.3535 4.46449 16.3535 4.14062V0.2C16.3535 0.0895429 16.264 0 16.1535 0H16.0935C16.0402 0 15.9891 0.0212998 15.9515 0.0591664L11.6607 4.38573C11.5355 4.51196 11.6249 4.72656 11.8027 4.72656H15.7676Z" fill="#C7DDFA"/>
    <path d="M10.0013 0C9.94797 0 9.89684 0.0212999 9.85929 0.0591667L5.56849 4.38573C5.4433 4.51196 5.53271 4.72656 5.71049 4.72656H7.00566C7.05899 4.72656 7.11011 4.70526 7.14766 4.6674L11.4385 0.340834C11.5637 0.214603 11.4742 0 11.2965 0H10.0013Z" fill="#C7DDFA"/>
    <path d="M12.4851 17.3123C12.027 16.8554 11.2876 16.8515 10.8274 17.3141C10.6168 17.5241 10.3153 17.6448 10 17.6448C9.31973 17.6448 8.82812 17.1121 8.82812 16.4844C8.82812 15.8366 9.35227 15.3125 10 15.3125C10.646 15.3125 11.1719 14.7866 11.1719 14.1406V11.7578H8.82812V13.1467C7.15457 13.9391 6.48438 15.1261 6.48438 16.4844C6.48438 18.4281 8.05801 20 10 20C10.9396 20 11.8225 19.6338 12.4862 18.97C12.9367 18.5173 12.9502 17.7774 12.4851 17.3123Z" fill="#2A7DEC"/>
</svg>
