<svg width="34" height="44" viewBox="0 0 34 44" fill="none" xmlns="http://www.w3.org/2000/svg">
<path d="M25.4853 30.4853C24.371 31.5996 23.0481 32.4835 21.5922 33.0866C20.1363 33.6896 18.5759 34 17 34C15.4241 34 13.8637 33.6896 12.4078 33.0866C10.9519 32.4835 9.62902 31.5996 8.51472 30.4853L17 22L25.4853 30.4853Z" fill="#D4E5FB"/>
<path fill-rule="evenodd" clip-rule="evenodd" d="M27.0003 21.9999C27.0003 24.7613 25.881 27.2614 24.0713 29.071L26.1926 31.1923C27.3997 29.9851 28.3572 28.5521 29.0105 26.9749C29.6638 25.3977 30.0001 23.7072 30.0001 22C30.0001 20.2928 29.6638 18.6024 29.0105 17.0251C28.3572 15.4479 27.3996 14.0148 26.1925 12.8076L24.0713 14.9288C25.881 16.7384 27.0003 19.2385 27.0003 21.9999Z" fill="#2A7DEC"/>
<path fill-rule="evenodd" clip-rule="evenodd" d="M29.9343 16.6424C28.8747 14.0843 27.0803 11.8978 24.778 10.3594C22.4757 8.82109 19.7689 8 17 8C14.2311 8 11.5243 8.82109 9.22202 10.3594C6.91973 11.8978 5.12532 14.0843 4.06569 16.6424C3.00607 19.2006 2.72882 22.0155 3.26901 24.7313C3.80921 27.447 5.14258 29.9416 7.10051 31.8995V31.8995C7.49104 32.29 8.1242 32.29 8.51473 31.8995V31.8995L9.25856 31.1101C9.61302 30.7339 9.57131 30.1383 9.20418 29.7745C9.19298 29.7634 9.18182 29.7523 9.17067 29.7411C8.79996 29.3703 8.18473 29.3561 7.83713 29.7487V29.7487C6.5277 28.2003 5.62831 26.3406 5.23058 24.3411C4.76756 22.0133 5.0052 19.6005 5.91345 17.4078C6.8217 15.2151 8.35977 13.3409 10.3332 12.0224C12.3066 10.7038 14.6266 10 17 10C19.3734 10 21.6935 10.7038 23.6668 12.0224C25.6402 13.3409 27.1783 15.2151 28.0866 17.4078C28.9948 19.6005 29.2325 22.0133 28.7694 24.3411C28.3717 26.3406 27.4723 28.2003 26.1629 29.7487L25.4512 29.037C25.072 28.6578 24.4503 28.6918 24.0711 29.0711V29.0711C23.6918 29.4503 23.6578 30.072 24.037 30.4512L25.4853 31.8995V31.8995C25.8758 32.29 26.509 32.29 26.8995 31.8995V31.8995C28.8574 29.9416 30.1908 27.447 30.731 24.7313C31.2712 22.0155 30.9939 19.2006 29.9343 16.6424Z" fill="#2A7DEC"/>
<path d="M13.7467 14.0306C13.6481 13.4736 13.9918 12.9337 14.5382 12.7873V12.7873C15.0847 12.6408 15.6523 12.9367 15.8454 13.4685L18.7743 21.5389C19.1411 22.5498 18.5636 23.658 17.5248 23.9363V23.9363C16.4859 24.2147 15.4315 23.5435 15.244 22.4845L13.7467 14.0306Z" fill="#2A7DEC"/>
<path fill-rule="evenodd" clip-rule="evenodd" d="M16.784 13.1273L18.6876 18.3725C20.053 19.0091 20.9994 20.394 20.9994 21.9999C20.9994 24.209 19.2085 25.9999 16.9994 25.9999C14.7903 25.9999 12.9994 24.209 12.9994 21.9999C12.9994 21.1401 13.2707 20.3436 13.7324 19.6914L12.7607 14.205C12.7526 14.1596 12.7461 14.1143 12.7411 14.0691C9.91837 15.588 7.99958 18.5699 7.99958 21.9999C7.99958 26.9705 12.029 30.9999 16.9996 30.9999C21.9701 30.9999 25.9996 26.9705 25.9996 21.9999C25.9996 17.0293 21.9701 12.9999 16.9996 12.9999C16.911 12.9999 16.8227 13.0012 16.7347 13.0037C16.7523 13.0441 16.7688 13.0853 16.784 13.1273Z" fill="#D4E5FB"/>
<path d="M24.0704 14.9303C23.6799 14.5397 23.6799 13.9066 24.0704 13.516L25.2944 12.292C25.6849 11.9015 26.3181 11.9015 26.7086 12.292V12.292C27.0991 12.6826 27.0991 13.3157 26.7086 13.7063L25.4846 14.9303C25.0941 15.3208 24.4609 15.3208 24.0704 14.9303V14.9303Z" fill="#2A7DEC"/>
</svg>
