<svg width="34" height="44" viewBox="0 0 34 44" fill="none" xmlns="http://www.w3.org/2000/svg">
<path d="M28 11H6V23H28V11Z" fill="#D4E5FB"/>
<path d="M20 29H14L13 34H21L20 29Z" fill="#D4E5FB"/>
<path fill-rule="evenodd" clip-rule="evenodd" d="M5 8C3.89543 8 3 8.89543 3 10V26C3 27.1046 3.89543 28 5 28H29C30.1046 28 31 27.1046 31 26V10C31 8.89543 30.1046 8 29 8H5ZM29 10H20C20 10.5523 19.5523 11 19 11H15C14.4477 11 14 10.5523 14 10H5V24H29V10ZM17 27C17.5523 27 18 26.5523 18 26C18 25.4477 17.5523 25 17 25C16.4477 25 16 25.4477 16 26C16 26.5523 16.4477 27 17 27Z" fill="#2A7DEC"/>
<path d="M9 35C9 34.4477 9.44772 34 10 34H24C24.5523 34 25 34.4477 25 35C25 35.5523 24.5523 36 24 36H10C9.44772 36 9 35.5523 9 35Z" fill="#2A7DEC"/>
</svg>
