<svg width="24" height="24" viewBox="0 0 24 24" fill="none" xmlns="http://www.w3.org/2000/svg">
<path fill-rule="evenodd" clip-rule="evenodd" d="M15.067 4.05458H15.8743C16.2494 4.05458 16.5567 4.35458 16.5567 4.72083V8.86167C16.1027 8.59542 15.6008 8.39833 15.067 8.28542V4.05458ZM16.5567 17.1408V21.3338C16.5567 21.7 16.2494 22 15.8743 22H4.78614C4.41104 22 4.10379 21.7004 4.10379 21.3338V20.5454H13.7701C14.4845 20.5454 15.067 19.9767 15.067 19.2792V17.7167C15.6008 17.6042 16.1022 17.4071 16.5567 17.1408ZM5.6332 2H9.3334V5.21417C9.3334 5.29375 9.36327 5.37 9.41618 5.43042C9.53823 5.57 9.7533 5.58625 9.89626 5.46708L10.9353 4.5975L11.9557 5.45125C12.0175 5.51083 12.1025 5.54792 12.1959 5.54792C12.3845 5.54792 12.5373 5.39875 12.5373 5.21458V2H13.7706C14.1457 2 14.4529 2.3 14.4529 2.66625V8.19458C14.3091 8.18208 14.1636 8.17583 14.0164 8.17583C12.6453 8.17583 11.4043 8.72125 10.509 9.60208H4.25699C4.06837 9.60208 3.9156 9.75125 3.9156 9.93542C3.9156 10.1196 4.06837 10.2688 4.25699 10.2688H9.94277C9.53353 10.8492 9.25104 11.5208 9.13411 12.2467H4.25699C4.06837 12.2467 3.9156 12.3958 3.9156 12.58C3.9156 12.7642 4.06837 12.9133 4.25699 12.9133H9.07522C9.0748 12.9425 9.07394 12.9721 9.07394 13.0013C9.07394 13.6721 9.21434 14.3108 9.46782 14.8913H4.25699C4.06837 14.8913 3.9156 15.0404 3.9156 15.2246C3.9156 15.4088 4.06837 15.5579 4.25699 15.5579H9.82456C10.6981 16.9204 12.2488 17.8267 14.0164 17.8267C14.1636 17.8267 14.3091 17.82 14.4529 17.8079V19.2796C14.4529 19.6458 14.1457 19.9458 13.7706 19.9458H2.68235C2.30725 19.9458 2 19.6462 2 19.2796V5.5475H5.29181C5.48043 5.5475 5.6332 5.39833 5.6332 5.21417V2ZM4.25699 18.2025H12.1959C12.3845 18.2025 12.5373 18.0533 12.5373 17.8692C12.5373 17.685 12.3845 17.5358 12.1959 17.5358H4.25699C4.06837 17.5358 3.9156 17.685 3.9156 17.8692C3.9156 18.0533 4.06837 18.2025 4.25699 18.2025ZM4.25699 7.62375H12.1959C12.3845 7.62375 12.5373 7.47458 12.5373 7.29042C12.5373 7.10625 12.3845 6.95708 12.1959 6.95708H4.25699C4.06837 6.95708 3.9156 7.10625 3.9156 7.29042C3.9156 7.47458 4.06837 7.62375 4.25699 7.62375ZM10.0157 2V4.49042L10.7109 3.90875C10.8359 3.80167 11.0262 3.7975 11.1564 3.90625L11.8541 4.49042V2H10.0157ZM2.34139 4.88083H4.95043V2.33333L2.34139 4.88083Z" fill="#D4E5FB"/>
<path fill-rule="evenodd" clip-rule="evenodd" d="M9.80078 13.0255C9.80078 15.3592 11.7386 17.2509 14.1283 17.2509C16.518 17.2509 18.4562 15.3588 18.4562 13.0255C18.4562 10.6921 16.5184 8.80005 14.1283 8.80005C11.7381 8.80005 9.80078 10.6917 9.80078 13.0255ZM11.2576 13.0255C11.2576 11.4775 12.543 10.2225 14.1283 10.2225C15.7136 10.2225 16.9989 11.4775 16.9989 13.0255C16.9989 14.5734 15.7136 15.8284 14.1283 15.8284C12.543 15.8284 11.2576 14.5734 11.2576 13.0255ZM21.9289 19.1425C22.6523 19.7809 21.0469 21.3484 20.3931 20.6421L18.3397 18.4234L19.6566 17.1375L21.9289 19.1425ZM19.2004 16.7346L17.927 17.9775L16.987 16.9617C17.4406 16.6471 17.8374 16.2592 18.16 15.8163L19.2004 16.7346Z" fill="#2B7DEC"/>
<path fill-rule="evenodd" clip-rule="evenodd" d="M5.6332 2H9.3334V5.21417C9.3334 5.29375 9.36327 5.37 9.41618 5.43042C9.53823 5.57 9.7533 5.58625 9.89626 5.46708L10.9353 4.5975L11.9557 5.45125C12.0175 5.51083 12.1025 5.54792 12.1959 5.54792C12.3845 5.54792 12.5373 5.39875 12.5373 5.21458V2H13.7706C14.1457 2 14.4529 2.3 14.4529 2.66625V8.19458C14.3091 8.18208 14.1636 8.17583 14.0164 8.17583C12.6453 8.17583 11.4043 8.72125 10.509 9.60208H4.25699C4.06837 9.60208 3.9156 9.75125 3.9156 9.93542C3.9156 10.1196 4.06837 10.2688 4.25699 10.2688H9.94277C9.53353 10.8492 9.25104 11.5208 9.13411 12.2467H4.25699C4.06837 12.2467 3.9156 12.3958 3.9156 12.58C3.9156 12.7642 4.06837 12.9133 4.25699 12.9133H9.07522C9.0748 12.9425 9.07394 12.9721 9.07394 13.0013C9.07394 13.6721 9.21434 14.3108 9.46782 14.8913H4.25699C4.06837 14.8913 3.9156 15.0404 3.9156 15.2246C3.9156 15.4088 4.06837 15.5579 4.25699 15.5579H9.82456C10.6981 16.9204 12.2488 17.8267 14.0164 17.8267C14.1636 17.8267 14.3091 17.82 14.4529 17.8079V19.2796C14.4529 19.6458 14.1457 19.9458 13.7706 19.9458H2.68235C2.30725 19.9458 2 19.6462 2 19.2796V5.5475H5.29181C5.48043 5.5475 5.6332 5.39833 5.6332 5.21417V2ZM4.25699 18.2025H12.1959C12.3845 18.2025 12.5373 18.0533 12.5373 17.8692C12.5373 17.685 12.3845 17.5358 12.1959 17.5358H4.25699C4.06837 17.5358 3.9156 17.685 3.9156 17.8692C3.9156 18.0533 4.06837 18.2025 4.25699 18.2025ZM4.25699 7.62375H12.1959C12.3845 7.62375 12.5373 7.47458 12.5373 7.29042C12.5373 7.10625 12.3845 6.95708 12.1959 6.95708H4.25699C4.06837 6.95708 3.9156 7.10625 3.9156 7.29042C3.9156 7.47458 4.06837 7.62375 4.25699 7.62375ZM10.0157 2V4.49042L10.7109 3.90875C10.8359 3.80167 11.0262 3.7975 11.1564 3.90625L11.8541 4.49042V2H10.0157ZM2.34139 4.88083H4.95043V2.33333L2.34139 4.88083Z" fill="#2B7DEC"/>
<path d="M9.3334 2V5.21417C9.3334 5.29375 9.36327 5.37 9.41618 5.43042C9.53823 5.57 9.7533 5.58625 9.89626 5.46708L10.9353 4.5975L11.9557 5.45125C12.0175 5.51083 12.1025 5.54792 12.1959 5.54792C12.3845 5.54792 12.5373 5.39875 12.5373 5.21458V2H11.8541V4.49042L11.1564 3.90625C11.0262 3.7975 10.8359 3.80167 10.7109 3.90875L10.0157 4.49042V2H9.3334Z" fill="#2B7DEC"/>
<path fill-rule="evenodd" clip-rule="evenodd" d="M9.80078 13.0255C9.80078 15.3592 11.7386 17.2509 14.1283 17.2509C16.518 17.2509 18.4562 15.3588 18.4562 13.0255C18.4562 10.6921 16.5184 8.80005 14.1283 8.80005C11.7381 8.80005 9.80078 10.6917 9.80078 13.0255ZM11.2576 13.0255C11.2576 11.4775 12.543 10.2225 14.1283 10.2225C15.7136 10.2225 16.9989 11.4775 16.9989 13.0255C16.9989 14.5734 15.7136 15.8284 14.1283 15.8284C12.543 15.8284 11.2576 14.5734 11.2576 13.0255ZM21.9289 19.1425C22.6523 19.7809 21.0469 21.3484 20.3931 20.6421L18.3397 18.4234L19.6566 17.1375L21.9289 19.1425ZM19.2004 16.7346L17.927 17.9775L16.987 16.9617C17.4406 16.6471 17.8374 16.2592 18.16 15.8163L19.2004 16.7346Z" fill="#2B7DEC"/>
<path d="M18.3397 18.4234L19.6566 17.1375L19.2004 16.7346L17.927 17.9775L18.3397 18.4234Z" fill="#2B7DEC"/>
</svg>
