<svg width="20" height="20" viewBox="0 0 20 20" fill="none" xmlns="http://www.w3.org/2000/svg">
<g clip-path="url(#clip0_11807_573)">
<rect x="1" y="18.5" width="10" height="18" rx="1" transform="rotate(-90 1 18.5)" fill="#D4E5FB" stroke="#2A7DEC"/>
<rect x="0.05" y="19.95" width="1.1" height="19.9" rx="0.25" transform="rotate(-90 0.05 19.95)" fill="#2A7DEC" stroke="#2A7DEC" stroke-width="0.1"/>
<path d="M3.34962 1.77029C3.34962 1.59631 3.42514 1.43089 3.55661 1.31693L3.8313 1.0788C4.11313 0.834494 4.4736 0.700002 4.84658 0.700002H4.99962H5.15266C5.52564 0.700002 5.88611 0.834494 6.16794 1.0788L6.44263 1.31693C6.5741 1.43089 6.64962 1.59631 6.64962 1.77029V1.89012C6.64962 2.14451 6.4892 2.37124 6.24931 2.45591L6.13988 2.49453C5.94211 2.56434 5.7339 2.6 5.52417 2.6H4.99962H4.47508C4.26534 2.6 4.05714 2.56434 3.85936 2.49453L3.74993 2.45591C3.51004 2.37124 3.34962 2.14451 3.34962 1.89012V1.77029Z" fill="#2A7DEC" stroke="#2A7DEC" stroke-width="0.1"/>
<path d="M3.34962 3.6703C3.34962 3.49631 3.42514 3.33089 3.55661 3.21693L3.8313 2.9788C4.11313 2.7345 4.4736 2.6 4.84658 2.6H4.99962H5.15266C5.52564 2.6 5.88611 2.7345 6.16794 2.9788L6.44263 3.21693C6.5741 3.33089 6.64962 3.49631 6.64962 3.6703V3.79012C6.64962 4.04451 6.4892 4.27125 6.24931 4.35591L6.13988 4.39454C5.94211 4.46434 5.7339 4.5 5.52417 4.5H4.99962H4.47508C4.26534 4.5 4.05714 4.46434 3.85936 4.39454L3.74993 4.35591C3.51004 4.27125 3.34962 4.04451 3.34962 3.79012V3.6703Z" fill="#2A7DEC" stroke="#2A7DEC" stroke-width="0.1"/>
<path d="M3.34962 5.57029C3.34962 5.3963 3.42514 5.23089 3.55661 5.11692L3.8313 4.8788C4.11313 4.63449 4.4736 4.5 4.84658 4.5H4.99962H5.15266C5.52564 4.5 5.88611 4.63449 6.16794 4.8788L6.44263 5.11692C6.5741 5.23089 6.64962 5.3963 6.64962 5.57029V5.69011C6.64962 5.9445 6.4892 6.17124 6.24931 6.25591L6.13988 6.29453C5.94211 6.36433 5.7339 6.4 5.52417 6.4H4.99962H4.47508C4.26534 6.4 4.05714 6.36433 3.85936 6.29453L3.74993 6.25591C3.51004 6.17124 3.34962 5.9445 3.34962 5.69011V5.57029Z" fill="#2A7DEC" stroke="#2A7DEC" stroke-width="0.1"/>
<rect x="4.54908" y="0.05" width="0.9" height="0.65" rx="0.05" fill="#2A7DEC" stroke="#2A7DEC" stroke-width="0.1"/>
<rect x="4.24965" y="6.4" width="1.5" height="0.55" rx="0.05" fill="#2A7DEC" stroke="#2A7DEC" stroke-width="0.1"/>
<path d="M13.3488 1.77029C13.3488 1.59631 13.4244 1.43089 13.5558 1.31693L13.8305 1.0788C14.1123 0.834494 14.4728 0.700002 14.8458 0.700002H14.9988H15.1519C15.5248 0.700002 15.8853 0.834494 16.1671 1.0788L16.4418 1.31693C16.5733 1.43089 16.6488 1.59631 16.6488 1.77029V1.89012C16.6488 2.14451 16.4884 2.37124 16.2485 2.45591L16.1391 2.49453C15.9413 2.56434 15.7331 2.6 15.5234 2.6H14.9988H14.4743C14.2646 2.6 14.0563 2.56434 13.8586 2.49453L13.7491 2.45591C13.5092 2.37124 13.3488 2.14451 13.3488 1.89012V1.77029Z" fill="#2A7DEC" stroke="#2A7DEC" stroke-width="0.1"/>
<path d="M13.3488 3.6703C13.3488 3.49631 13.4244 3.33089 13.5558 3.21693L13.8305 2.9788C14.1123 2.7345 14.4728 2.6 14.8458 2.6H14.9988H15.1519C15.5248 2.6 15.8853 2.7345 16.1671 2.9788L16.4418 3.21693C16.5733 3.33089 16.6488 3.49631 16.6488 3.6703V3.79012C16.6488 4.04451 16.4884 4.27125 16.2485 4.35591L16.1391 4.39454C15.9413 4.46434 15.7331 4.5 15.5234 4.5H14.9988H14.4743C14.2646 4.5 14.0563 4.46434 13.8586 4.39454L13.7491 4.35591C13.5092 4.27125 13.3488 4.04451 13.3488 3.79012V3.6703Z" fill="#2A7DEC" stroke="#2A7DEC" stroke-width="0.1"/>
<path d="M13.3488 5.57029C13.3488 5.3963 13.4244 5.23089 13.5558 5.11692L13.8305 4.8788C14.1123 4.63449 14.4728 4.5 14.8458 4.5H14.9988H15.1519C15.5248 4.5 15.8853 4.63449 16.1671 4.8788L16.4418 5.11692C16.5733 5.23089 16.6488 5.3963 16.6488 5.57029V5.69011C16.6488 5.9445 16.4884 6.17124 16.2485 6.25591L16.1391 6.29453C15.9413 6.36433 15.7331 6.4 15.5234 6.4H14.9988H14.4743C14.2646 6.4 14.0563 6.36433 13.8586 6.29453L13.7491 6.25591C13.5092 6.17124 13.3488 5.9445 13.3488 5.69011V5.57029Z" fill="#2A7DEC" stroke="#2A7DEC" stroke-width="0.1"/>
<rect x="14.5483" y="0.05" width="0.9" height="0.65" rx="0.05" fill="#2A7DEC" stroke="#2A7DEC" stroke-width="0.1"/>
<rect x="14.2489" y="6.4" width="1.5" height="0.55" rx="0.05" fill="#2A7DEC" stroke="#2A7DEC" stroke-width="0.1"/>
<path d="M8.34883 1.77029C8.34883 1.59631 8.42435 1.43089 8.55582 1.31693L8.83051 1.0788C9.11234 0.834494 9.47281 0.700002 9.84579 0.700002H9.99883H10.1519C10.5248 0.700002 10.8853 0.834494 11.1671 1.0788L11.4418 1.31693C11.5733 1.43089 11.6488 1.59631 11.6488 1.77029V1.89012C11.6488 2.14451 11.4884 2.37124 11.2485 2.45591L11.1391 2.49453C10.9413 2.56434 10.7331 2.6 10.5234 2.6H9.99883H9.47428C9.26455 2.6 9.05634 2.56434 8.85857 2.49453L8.74914 2.45591C8.50925 2.37124 8.34883 2.14451 8.34883 1.89012V1.77029Z" fill="#2A7DEC" stroke="#2A7DEC" stroke-width="0.1"/>
<path d="M8.34883 3.6703C8.34883 3.49631 8.42435 3.33089 8.55582 3.21693L8.83051 2.9788C9.11234 2.7345 9.47281 2.6 9.84579 2.6H9.99883H10.1519C10.5248 2.6 10.8853 2.7345 11.1671 2.9788L11.4418 3.21693C11.5733 3.33089 11.6488 3.49631 11.6488 3.6703V3.79012C11.6488 4.04451 11.4884 4.27125 11.2485 4.35591L11.1391 4.39454C10.9413 4.46434 10.7331 4.5 10.5234 4.5H9.99883H9.47428C9.26455 4.5 9.05634 4.46434 8.85857 4.39454L8.74914 4.35591C8.50925 4.27125 8.34883 4.04451 8.34883 3.79012V3.6703Z" fill="#2A7DEC" stroke="#2A7DEC" stroke-width="0.1"/>
<path d="M8.34883 5.57029C8.34883 5.3963 8.42435 5.23089 8.55582 5.11692L8.83051 4.8788C9.11234 4.63449 9.47281 4.5 9.84579 4.5H9.99883H10.1519C10.5248 4.5 10.8853 4.63449 11.1671 4.8788L11.4418 5.11692C11.5733 5.23089 11.6488 5.3963 11.6488 5.57029V5.69011C11.6488 5.9445 11.4884 6.17124 11.2485 6.25591L11.1391 6.29453C10.9413 6.36433 10.7331 6.4 10.5234 6.4H9.99883H9.47428C9.26455 6.4 9.05634 6.36433 8.85857 6.29453L8.74914 6.25591C8.50925 6.17124 8.34883 5.9445 8.34883 5.69011V5.57029Z" fill="#2A7DEC" stroke="#2A7DEC" stroke-width="0.1"/>
<rect x="9.54829" y="0.05" width="0.9" height="0.65" rx="0.05" fill="#2A7DEC" stroke="#2A7DEC" stroke-width="0.1"/>
<rect x="9.24885" y="6.4" width="1.5" height="0.55" rx="0.05" fill="#2A7DEC" stroke="#2A7DEC" stroke-width="0.1"/>
<rect y="8.05" width="1.2" height="20" rx="0.3" transform="rotate(-90 0 8.05)" fill="#2A7DEC"/>
<path d="M10.6725 11.0529L8.08122 13.3741C7.92114 13.5192 8.01119 13.7868 8.22629 13.8068L10.2498 14.0019L9.03671 15.6928C8.98168 15.7703 8.98918 15.8779 9.05672 15.9454C9.13175 16.0204 9.24931 16.0229 9.32685 15.9504L11.9182 13.6292C12.0783 13.4841 11.9882 13.2165 11.7731 13.1965L9.74957 13.0014L10.9627 11.3105C11.0177 11.233 11.0102 11.1255 10.9427 11.0579C10.8676 10.9829 10.7501 10.9804 10.6725 11.0529Z" fill="#2A7DEC"/>
</g>
<defs>
<clipPath id="clip0_11807_573">
<rect width="20" height="20" fill="white"/>
</clipPath>
</defs>
</svg>
