<svg width="20" height="20" viewBox="0 0 20 20" fill="none" xmlns="http://www.w3.org/2000/svg">
    <g clip-path="url(#clip0_12725_6071)">
        <path d="M18 4.99951C18.5523 4.99951 19 5.44723 19 5.99951V15.9995C19 16.5518 18.5523 16.9995 18 16.9995H2C1.44772 16.9995 1 16.5518 1 15.9995V5.99951C1 5.44723 1.44772 4.99951 2 4.99951H18Z" fill="#C7DDFA"/>
        <path d="M17.2543 1.57227L12.5402 1.57224L12.5401 0.660137C12.5401 0.295595 12.8356 4.99487e-05 13.2001 4.99487e-05H16.5943C16.9588 4.99487e-05 17.2543 0.295542 17.2543 0.66005V1.57227Z" fill="#2A7DEC"/>
        <rect y="17.5881" width="20" height="2.41207" rx="0.66" fill="#2A7DEC"/>
        <path d="M7.46427 1.57593L2.75021 1.57591L2.75009 0.663799C2.75004 0.299257 3.04554 0.00371206 3.41009 0.00371206H6.80427C7.16878 0.00371206 7.46427 0.299204 7.46427 0.663712V1.57593Z" fill="#2A7DEC"/>
        <path d="M0 2.67025C0 2.30574 0.295487 2.01025 0.659992 2.01025L19.34 2.01002C19.7045 2.01001 20 2.30551 20 2.67002V3.76208C20 4.12659 19.7045 4.42208 19.34 4.42208H0.66C0.295492 4.42208 0 4.12659 0 3.76208V2.67025Z" fill="#2A7DEC"/>
        <path fill-rule="evenodd" clip-rule="evenodd" d="M11.0728 10.6729V7.71541C11.0728 6.97842 10.092 6.72427 9.73412 7.36856L8.09091 10.3263C7.82641 10.8024 8.1707 11.3875 8.71534 11.3875H9.64412V14.3449C9.64412 15.0819 10.6248 15.3361 10.9828 14.6918L12.626 11.734C12.8905 11.258 12.5462 10.6729 12.0016 10.6729H11.0728Z" fill="#2A7DEC"/>
    </g>
    <defs>
        <clipPath id="clip0_12725_6071">
            <rect width="20" height="20" fill="white"/>
        </clipPath>
    </defs>
</svg>
