<svg width="34" height="34" viewBox="0 0 34 34" fill="none" xmlns="http://www.w3.org/2000/svg">
<path fill-rule="evenodd" clip-rule="evenodd" d="M8.17157 13.8284C7.42143 14.5786 7 15.596 7 16.6569V27C7 28.1046 7.89543 29 9 29C11.2091 29 13 27.2091 13 25V18C13 16.8954 13.8954 16 15 16H18C18.8703 16 19.6108 16.5559 19.8857 17.332C19.939 17.3059 19.9931 17.2812 20.0478 17.258C20.4512 17.087 20.885 16.9993 21.3232 17C22.1842 17.0015 23.3953 17.3772 24.0035 18C24.6115 17.3775 25.8275 17.0072 26.6877 17.009C26.7922 17.0092 26.8964 17.0145 27 17.0247V16.6569C27 15.596 26.5786 14.5786 25.8284 13.8284L19.8284 7.82843C18.2663 6.26634 15.7337 6.26633 14.1716 7.82843L8.17157 13.8284Z" fill="#D4E5FB"/>
<path d="M13 29V18C13 16.8954 13.8946 16 14.9992 16C16.0775 16 17.4129 16 18.5325 16C19.0719 16 19.5754 16.168 20 16.456" stroke="#2A7DEC" stroke-width="2" stroke-linecap="round" stroke-linejoin="round"/>
<path d="M29 17L17.7071 5.70711C17.3166 5.31658 16.6834 5.31658 16.2929 5.70711L5 17H8C8 18.841 8 24.095 8 27.003C8 28.1076 8.89543 29 10 29H18" stroke="#2A7DEC" stroke-width="2" stroke-linecap="round" stroke-linejoin="round"/>
<path d="M23.9875 30L29.0235 24.8396C29.6485 24.1922 29.9985 23.3278 30 22.428C30.0015 21.5281 29.6544 20.6626 29.0315 20.0131C28.7286 19.6966 28.3648 19.4445 27.962 19.2719C27.5593 19.0994 27.1258 19.0099 26.6877 19.009C26.2495 19.0081 25.8157 19.0956 25.4122 19.2665C25.0087 19.4373 24.6438 19.6879 24.3395 20.0031L24.0035 20.3472L23.6675 20.0031C23.3644 19.6867 23.0005 19.4347 22.5977 19.2624C22.1949 19.09 21.7614 19.0008 21.3232 19C20.885 18.9993 20.4512 19.087 20.0478 19.258C19.6444 19.429 19.2797 19.6797 18.9755 19.9951C18.3511 20.6424 18.0015 21.5063 18 22.4057C17.9985 23.3051 18.3452 24.1702 18.9675 24.8196L23.9875 30Z" fill="#2A7DEC"/>
</svg>
