<svg width="24" height="24" viewBox="0 0 24 24" fill="none" xmlns="http://www.w3.org/2000/svg">
<rect width="24" height="24" fill="white"/>
<path d="M4.20186 14.7023C4.11642 14.302 3.74866 14 3.30935 14H2V21.4834H3.30935C3.81173 21.4834 4.22063 21.0885 4.22063 20.6034V20.5923C4.20854 20.5567 4.20186 20.5191 4.20186 20.4802V14.7023Z" fill="#2B7DEC"/>
<path d="M18.0022 16.3275L12.8375 18.3421C12.537 18.7225 12.1042 18.896 11.6825 18.896H8.92085C8.71662 18.896 8.55129 18.7355 8.55129 18.5375C8.55129 18.3396 8.71662 18.1791 8.92085 18.1791H11.6825C12.1081 18.1791 12.4194 17.8224 12.4194 17.4645C12.4194 17.0685 12.0889 16.7463 11.6825 16.7463C11.5527 16.7463 9.52979 16.7463 9.62246 16.7463C8.77756 16.7463 7.97028 16.3585 7.46282 15.709C7.09148 15.2377 6.50389 14.9556 5.89184 14.9556H4.95996V20.2298L10.1273 21.9388C10.4435 22.0456 10.7918 22.0106 11.0776 21.8496L18.6115 17.5988C18.9429 17.4259 19.087 17.0529 18.9464 16.7134C18.7995 16.3649 18.3685 16.183 18.0022 16.3275Z" fill="#D4E5FB"/>
<path d="M19.7981 9.29774C19.8836 9.69805 20.2513 10 20.6906 10H22V2.51664H20.6906C20.1883 2.51664 19.7794 2.91149 19.7794 3.39658V3.4077C19.7915 3.44327 19.7981 3.48093 19.7981 3.51982V9.29774Z" fill="#2B7DEC"/>
<path d="M5.99778 7.67246L11.1625 5.65788C11.463 5.27748 11.8958 5.10404 12.3175 5.10404H15.0792C15.2834 5.10404 15.4487 5.26451 15.4487 5.46246C15.4487 5.6604 15.2834 5.82087 15.0792 5.82087H12.3175C11.8919 5.82087 11.5806 6.17756 11.5806 6.53548C11.5806 6.93149 11.9111 7.25366 12.3175 7.25366C12.4473 7.25366 14.4702 7.25366 14.3775 7.25366C15.2224 7.25366 16.0297 7.6415 16.5372 8.29099C16.9085 8.76226 17.4961 9.04437 18.1082 9.04437H19.04V3.77023L13.8727 2.06116C13.5565 1.95445 13.2082 1.9894 12.9224 2.15043L5.38852 6.40125C5.05709 6.57406 4.91305 6.9471 5.05361 7.28659C5.20051 7.63505 5.63145 7.81702 5.99778 7.67246Z" fill="#D4E5FB"/>
<path d="M8.74375 13.0351L11.5672 15.6711C11.6844 15.7805 11.8391 15.8414 12 15.8414C12.1609 15.8414 12.3156 15.7805 12.4328 15.6711L15.2562 13.0351C15.7312 12.593 16 11.9726 16 11.3242V11.2336C16 10.1414 15.2109 9.21014 14.1344 9.03045C13.4219 8.9117 12.6969 9.14452 12.1875 9.65389L12 9.84139L11.8125 9.65389C11.3031 9.14452 10.5781 8.9117 9.86563 9.03045C8.78906 9.21014 8 10.1414 8 11.2336V11.3242C8 11.9726 8.26875 12.593 8.74375 13.0351Z" fill="#2B7DEC"/>
<rect x="11.4277" y="10.7143" width="1.14286" height="3.42857" rx="0.2" fill="white"/>
<rect x="10.2861" y="12.9999" width="1.14286" height="3.42857" rx="0.2" transform="rotate(-90 10.2861 12.9999)" fill="white"/>
</svg>
