<?xml version="1.0" encoding="UTF-8"?>
<svg width="34" height="34" enable-background="new 0 0 26 26" version="1.1" viewBox="0 0 34 34" xmlns="http://www.w3.org/2000/svg">
 <path d="m28.535 24.778c-1.5384 2.3023-3.7249 4.0967-6.283 5.1563-2.5582 1.0596-5.3731 1.3369-8.0889 0.7967-2.7157-0.5402-5.2102-1.8736-7.1682-3.8315-0.39052-0.3905-0.39052-1.0237 0-1.4142l1.4483-1.4483c0.37923-0.3792 1.0009-0.3452 1.3801 0.0341 0.37926 0.3792 0.41326 1.0009 0.03406 1.3801l-0.71166 0.7117c1.5484 1.3094 3.4081 2.2088 5.4076 2.6065 0.4447 0.0885 0.8924 0.1513 1.3411 0.1889 0.97534 0.02723 0.96607 0.02497 2 0 1.2286-0.1028 2.4408-0.3948 3.5922-0.8717 1.1514-0.477 2.215-1.1276 3.1564-1.9237 0.80245-0.64297 0.80229-0.65185 1.4142-1.4141 0.2908-0.3439 0.563-0.705 0.8148-1.082 1.1327-1.6951 1.8117-3.646 1.9807-5.6668 0.01085-1.0447 0.02709-1.0596 0-2-0.169-2.0208-0.848-3.9717-1.9807-5.6668-0.91897-1.2994-0.91341-1.3087-2.2289-2.496-0.9414-0.79616-2.005-1.4468-3.1565-1.9238-1.1514-0.47694-2.3636-0.76896-3.5922-0.8717-1.0037-0.03309-1.0064-0.0324-2-1e-5 -0.4487 0.03752-0.8964 0.1004-1.3411 0.18884-1.9995 0.39773-3.8592 1.2971-5.4076 2.6066 0.39259 0.3476 0.37837 0.96283 0.0075 1.3335l-0.03336 0.03351c-0.36382 0.36713-0.95937 0.40884-1.3356 0.05438l-0.78944-0.74383c-0.39052-0.39053-0.39052-1.0237 0-1.4142 1.9579-1.9579 4.4525-3.2913 7.1682-3.8315 2.7158-0.54019 5.5307-0.26294 8.0889 0.79668 2.5581 1.0596 4.7446 2.854 6.283 5.1563 1.5383 2.3023 2.3594 5.0091 2.3594 7.778s-0.8211 5.4757-2.3594 7.778z" fill="#2a7dec"/>
 <g transform="translate(-.68314 .91577)">
  <circle cx="17.683" cy="16.084" r="9.4559" fill="#d4e5fb" stroke-width=".65784"/>
  <g transform="matrix(1.5521 0 0 1.5521 -31.097 -74.294)" fill="#2a7dec" stroke-width=".59307">
   <path d="m26.78 60.341 1.8835-5.0597h0.96606l1.8939 5.0597h-1.112l-0.3475-1.0425h-1.8313l-0.3475 1.0425zm1.734-1.8869h1.2684l-0.63246-1.9008z"/>
   <path d="m36.048 60.658-0.66026 0.58728-1.0738-0.86528q-0.18765 0.03128-0.3892 0.03128-0.95216 0-1.5568-0.66373-0.60466-0.66373-0.60466-1.8209v-0.22588q0-1.1572 0.60118-1.8209 0.60118-0.66721 1.5533-0.66721 0.95564 0 1.5568 0.66721 0.60118 0.66373 0.60118 1.8209v0.22588q0 0.70196-0.22935 1.2302-0.22935 0.52821-0.63246 0.84096zm-1.0286-2.9642q0-0.79231-0.28843-1.2058t-0.81316-0.41353q-0.52126 0-0.80968 0.41006-0.28495 0.40658-0.28843 1.1919v0.2502q0 0.78883 0.28843 1.2093 0.2919 0.417 0.81663 0.417t0.80621-0.41353q0.28495-0.41353 0.28843-1.1954z"/>
  </g>
 </g>
</svg>
