<svg width="34" height="44" viewBox="0 0 34 44" fill="none" xmlns="http://www.w3.org/2000/svg">
<path d="M3 35H31V37H3V35Z" fill="#D4E5FB"/>
<path fill-rule="evenodd" clip-rule="evenodd" d="M3 14C3 10.6863 5.68629 8 9 8H25C28.3137 8 31 10.6863 31 14V26C31 29.3137 28.3137 32 25 32H9C5.68629 32 3 29.3137 3 26V14ZM9 16C8.44772 16 8 16.4477 8 17V20C8 20.5523 8.44772 21 9 21H25C25.5523 21 26 20.5523 26 20V17C26 16.4477 25.5523 16 25 16H9Z" fill="#2A7DEC"/>
<path d="M18 33H16V34H13C12.4477 34 12 34.4477 12 35V37H22V35C22 34.4477 21.5523 34 21 34H18V33Z" fill="#2A7DEC"/>
<path d="M12 12C11.4477 12 11 12.4477 11 13C11 13.5523 11.4477 14 12 14H22C22.5523 14 23 13.5523 23 13C23 12.4477 22.5523 12 22 12H12Z" fill="#D4E5FB"/>
<path d="M17 28C18.1046 28 19 27.1046 19 26C19 24.8954 18.1046 24 17 24C15.8954 24 15 24.8954 15 26C15 27.1046 15.8954 28 17 28Z" fill="#D4E5FB"/>
<path d="M13 26C13 27.1046 12.1046 28 11 28C9.89543 28 9 27.1046 9 26C9 24.8954 9.89543 24 11 24C12.1046 24 13 24.8954 13 26Z" fill="#D4E5FB"/>
<path d="M23 28C24.1046 28 25 27.1046 25 26C25 24.8954 24.1046 24 23 24C21.8954 24 21 24.8954 21 26C21 27.1046 21.8954 28 23 28Z" fill="#D4E5FB"/>
</svg>
