<svg width="34" height="34" viewBox="0 0 34 34" fill="none" xmlns="http://www.w3.org/2000/svg">
<rect x="3" y="10" width="28" height="14" rx="4" fill="#D4E5FB"/>
<path d="M17 14C15.4908 16 13.3778 20 17 20C20.6222 20 18.5092 16 17 14Z" fill="#2A7DEC" stroke="#2A7DEC"/>
<path fill-rule="evenodd" clip-rule="evenodd" d="M13 5H21V7H20V8.99998H28C30.2091 8.99998 32 10.7908 32 13V21C32 23.2091 30.2091 25 28 25H25V27H32V29H2V27H8V25H6C3.79086 25 2 23.2091 2 21V13C2 10.7908 3.79086 8.99998 6 8.99998H14V7L13 7V5ZM23 27V25H10V27H23ZM18 7V8.99998H16V7L18 7ZM6 11H28C29.1046 11 30 11.8954 30 13V21C30 22.1046 29.1046 23 28 23H6C4.89543 23 4 22.1046 4 21V13C4 11.8954 4.89543 11 6 11Z" fill="#2A7DEC"/>
<rect x="16" y="7" width="2" height="4" fill="#D4E5FB"/>
</svg>
