<svg width="47" height="47" viewBox="0 0 47 47" fill="none" xmlns="http://www.w3.org/2000/svg">
<path d="M13.2474 33.7529C12.6617 33.1671 12.6617 32.2173 13.2474 31.6315L31.6316 13.2474C32.2174 12.6616 33.1671 12.6616 33.7529 13.2474C34.3387 13.8332 34.3387 14.7829 33.7529 15.3687L15.3688 33.7528C14.783 34.3386 13.8332 34.3386 13.2474 33.7529Z" fill="#212529"/>
<path d="M33.7518 33.752C34.3375 33.1662 34.3375 32.2165 33.7518 31.6307L15.3691 13.2481C14.7834 12.6623 13.8336 12.6623 13.2478 13.2481C12.662 13.8339 12.662 14.7836 13.2478 15.3694L31.6304 33.752C32.2162 34.3378 33.166 34.3378 33.7518 33.752Z" fill="#212529"/>
</svg>
