<svg width="280" height="164" viewBox="0 0 280 164" fill="none" xmlns="http://www.w3.org/2000/svg">
<path fill-rule="evenodd" clip-rule="evenodd" d="M238.904 74.216L238.42 69.1007C236.049 44.0688 214.869 24.4 189.219 24.4C180.854 24.4 172.699 26.5911 165.274 30.8279L159.723 33.9952L155.408 29.2811C142.939 15.659 125.736 8 107.188 8C72.5277 8 44.0297 34.9369 41.5304 68.9567L41.1457 74.1922L36.1897 75.9231C19.7456 81.6664 8 97.3287 8 114.8C8 137.395 26.9249 156 49.7656 156H230.234C253.075 156 272 137.395 272 114.8C272 97.3135 260.24 81.6322 243.758 75.903L238.904 74.216ZM246.384 68.3465C243.628 39.2463 219.035 16.4 189.219 16.4C179.43 16.4 169.912 18.9704 161.309 23.8795C147.338 8.61656 128 0 107.188 0C68.3025 0 36.3557 30.2055 33.5519 68.3705C14.0853 75.1694 0 93.7315 0 114.8C0 141.931 22.6248 164 49.7656 164H230.234C257.375 164 280 141.931 280 114.8C280 93.7156 265.899 75.1295 246.384 68.3465Z" fill="#B4C8DD"/>
<path fill-rule="evenodd" clip-rule="evenodd" d="M238.904 74.216L238.42 69.1007C236.049 44.0688 214.869 24.4 189.219 24.4C180.854 24.4 172.699 26.5911 165.274 30.8279L159.723 33.9952L155.408 29.2811C142.939 15.659 125.736 8 107.188 8C72.5277 8 44.0297 34.9369 41.5304 68.9567L41.1457 74.1922L36.1897 75.9231C19.7456 81.6664 8 97.3287 8 114.8C8 137.395 26.9249 156 49.7656 156H230.234C253.075 156 272 137.395 272 114.8C272 97.3135 260.24 81.6322 243.758 75.903L238.904 74.216ZM246.384 68.3465C243.628 39.2463 219.035 16.4 189.219 16.4C179.43 16.4 169.912 18.9704 161.309 23.8795C147.338 8.61656 128 0 107.188 0C68.3025 0 36.3557 30.2055 33.5519 68.3705C14.0853 75.1694 0 93.7315 0 114.8C0 141.931 22.6248 164 49.7656 164H230.234C257.375 164 280 141.931 280 114.8C280 93.7156 265.899 75.1295 246.384 68.3465Z" fill="#4CA1EF"/>
<path d="M137.228 42C128.365 42 120.067 44.4733 112.974 48.7296C110.951 47.0853 108.41 46.1701 105.765 46.1694C105.765 46.1694 105.765 46.1694 105.764 46.1694C99.4661 46.1696 94.302 51.3339 94.3023 57.6314C94.3023 57.6325 94.3023 57.6336 94.3023 57.6347C94.3054 60.264 95.2169 62.7851 96.8346 64.7986C92.5127 71.9323 90.0002 80.2909 90.0002 89.2243C89.9959 89.5867 90.0637 89.9463 90.1994 90.2824C90.3352 90.6184 90.5363 90.9241 90.7911 91.1819C91.0458 91.4396 91.3492 91.6443 91.6837 91.7839C92.0181 91.9236 92.377 91.9955 92.7394 91.9955C93.1019 91.9955 93.4607 91.9236 93.7952 91.7839C94.1296 91.6443 94.433 91.4396 94.6878 91.1819C94.9426 90.9241 95.1437 90.6184 95.2794 90.2824C95.4152 89.9463 95.4829 89.5867 95.4787 89.2243C95.4787 81.5057 97.5784 74.3046 101.222 68.1096C102.649 68.7297 104.182 69.0937 105.759 69.0961C105.76 69.0961 105.762 69.0961 105.763 69.0961C112.061 69.0963 117.226 63.932 117.226 57.6341C117.226 57.6337 117.226 57.6333 117.226 57.6329C117.226 56.0707 116.87 54.5511 116.263 53.1343C122.424 49.5459 129.571 47.4801 137.227 47.4801C137.589 47.4844 137.949 47.4167 138.285 47.2809C138.621 47.1452 138.927 46.9441 139.185 46.6894C139.442 46.4346 139.647 46.1312 139.787 45.7968C139.926 45.4624 139.998 45.1036 139.998 44.7412C139.998 44.3788 139.926 44.02 139.787 43.6856C139.647 43.3512 139.442 43.0478 139.185 42.793C138.927 42.5383 138.621 42.3372 138.285 42.2015C137.949 42.0657 137.589 41.998 137.227 42.0023L137.228 42ZM105.762 51.649C107.61 51.6497 109.259 52.434 110.398 53.8604C110.417 53.883 110.436 53.9054 110.456 53.9274C111.29 54.9835 111.747 56.2875 111.747 57.6342C111.747 60.9704 109.101 63.6161 105.765 63.6174C104.399 63.6149 103.077 63.1459 102.015 62.2879C102.014 62.287 102.012 62.286 102.011 62.2851C100.6 61.1499 99.7811 59.4423 99.7785 57.6315C99.7792 54.2953 102.425 51.6496 105.762 51.649L105.762 51.649Z" fill="#305680"/>
<path fill-rule="evenodd" clip-rule="evenodd" d="M110.936 74.1303C110.469 74.6172 110.196 75.2896 110.23 76.0273C110.26 76.6663 110.516 77.2836 110.961 77.7515C113.087 79.8937 117.28 84.0705 117.28 84.0705L120.982 80.374C120.982 80.374 116.928 76.3241 114.677 74.0712C114.175 73.5611 113.505 73.3481 112.798 73.3449C112.061 73.3414 111.402 73.643 110.936 74.1299L110.936 74.1303ZM120.982 80.3743L109.532 91.8229C108.29 93.0653 108.29 95.0791 109.532 96.3215L115.206 101.995L125.129 111.916L134.653 121.44C135.895 122.682 137.91 122.682 139.152 121.44L146.9 113.694L158.748 101.847L170.198 90.398C171.44 89.1555 171.44 87.1415 170.197 85.8991L164.375 80.0778L154.454 70.1538L145.075 60.7797C143.833 59.5376 141.819 59.5376 140.576 60.7797L132.829 68.5258L120.982 80.3715L120.982 80.3743ZM132.829 68.5286C132.829 68.5286 128.775 64.4787 126.524 62.2258C126.023 61.7157 125.352 61.5027 124.645 61.4995C123.171 61.4925 122.01 62.7062 122.077 64.1816C122.107 64.8205 122.363 65.4378 122.808 65.9057C124.934 68.0479 129.127 72.2248 129.127 72.2248L132.829 68.5282L132.829 68.5286ZM154.452 70.1576C154.452 70.1576 158.502 66.1039 160.755 63.8532C161.266 63.352 161.479 62.6815 161.482 61.9747C161.489 60.5009 160.275 59.3393 158.799 59.4071C158.16 59.4372 157.543 59.6925 157.075 60.1374C154.933 62.2638 150.755 66.4565 150.755 66.4565L154.452 70.1574L154.452 70.1576ZM164.375 80.0794C164.375 80.0794 168.425 76.0258 170.678 73.7751C171.188 73.2739 171.401 72.6033 171.405 71.8965C171.412 70.4227 170.198 69.2611 168.722 69.3289C168.083 69.359 167.466 69.6143 166.998 70.0593C164.855 72.1856 160.678 76.3783 160.678 76.3783L164.375 80.0792L164.375 80.0794ZM158.747 101.848C158.747 101.848 162.801 105.898 165.053 108.15C165.554 108.66 166.224 108.873 166.931 108.877C168.405 108.884 169.567 107.67 169.499 106.195L169.498 106.195C169.468 105.556 169.213 104.939 168.768 104.471C166.641 102.329 162.448 98.1521 162.448 98.1521L158.747 101.849L158.747 101.848ZM146.899 113.695C146.899 113.695 150.953 117.745 153.204 119.997C153.706 120.507 154.376 120.72 155.083 120.724C156.557 120.731 157.719 119.517 157.651 118.042H157.65C157.62 117.403 157.365 116.785 156.92 116.317C154.793 114.175 150.6 109.998 150.6 109.998L146.899 113.695L146.899 113.695ZM125.128 111.918C125.128 111.918 121.077 115.972 118.825 118.223C118.315 118.724 118.102 119.395 118.098 120.102C118.091 121.575 119.305 122.737 120.781 122.669H120.78C121.419 122.639 122.037 122.384 122.505 121.939C124.647 119.813 128.824 115.62 128.824 115.62L125.13 111.92L125.128 111.918ZM115.208 102C115.208 102 111.158 106.054 108.905 108.305C108.395 108.807 108.182 109.477 108.179 110.184C108.172 111.658 109.385 112.819 110.861 112.751H110.86C111.499 112.721 112.117 112.466 112.585 112.021C114.727 109.895 118.904 105.702 118.904 105.702L115.208 101.999L115.208 102ZM142.47 73.705C142.994 73.1718 143.709 72.8739 144.437 72.8845C144.957 72.8919 145.454 73.0564 145.863 73.3562L151.019 77.1371C152.02 77.8548 152.314 79.2178 151.716 80.3593C151.118 81.5007 149.803 82.0854 148.607 81.7412L150.521 89.2242C150.868 90.584 150.032 92.0263 148.651 92.448L134.7 96.7072L137.277 106.67C137.643 108.035 136.808 109.496 135.416 109.922C134.024 110.347 132.611 109.575 132.27 108.201L129.057 95.7749C128.705 94.4139 129.541 92.9675 130.924 92.5446L144.881 88.2835L143.593 83.2471C142.729 84.2046 141.332 84.4371 140.284 83.7975C139.237 83.1579 138.842 81.8322 139.351 80.6581L141.888 74.5794C142.023 74.2552 142.221 73.9579 142.47 73.7053L142.47 73.705Z" fill="#305680"/>
<path d="M142.773 142C151.636 142 159.934 139.527 167.027 135.27C169.05 136.914 171.591 137.83 174.236 137.83C174.236 137.83 174.237 137.83 174.237 137.83C180.535 137.83 185.7 132.666 185.699 126.368C185.699 126.367 185.699 126.366 185.699 126.365C185.696 123.735 184.785 121.214 183.167 119.201C187.487 112.07 190 103.711 190 94.7777C190.005 94.4151 189.937 94.0552 189.802 93.7189C189.666 93.3826 189.465 93.0765 189.21 92.8185C188.955 92.5604 188.652 92.3556 188.317 92.2157C187.983 92.0759 187.623 92.0039 187.261 92.0039C186.898 92.0039 186.539 92.0759 186.204 92.2157C185.87 92.3556 185.566 92.5604 185.312 92.8185C185.057 93.0765 184.856 93.3826 184.72 93.7189C184.584 94.0552 184.517 94.4151 184.522 94.7777C184.522 102.497 182.422 109.698 178.778 115.893C177.351 115.273 175.818 114.909 174.241 114.906C174.24 114.906 174.239 114.906 174.237 114.906C167.939 114.906 162.774 120.07 162.774 126.368C162.775 127.93 163.13 129.45 163.738 130.867C157.576 134.455 150.429 136.521 142.773 136.521C142.41 136.516 142.051 136.584 141.714 136.719C141.378 136.855 141.072 137.056 140.814 137.311C140.556 137.566 140.351 137.869 140.211 138.204C140.071 138.538 139.999 138.897 139.999 139.26C139.999 139.623 140.071 139.982 140.211 140.316C140.351 140.651 140.556 140.954 140.814 141.209C141.072 141.464 141.378 141.665 141.714 141.8C142.051 141.936 142.41 142.003 142.773 141.999L142.773 142ZM174.239 132.352C172.391 132.352 170.741 131.567 169.602 130.141C169.584 130.118 169.565 130.096 169.545 130.074C168.71 129.018 168.254 127.714 168.253 126.367C168.254 123.031 170.9 120.385 174.236 120.384C175.601 120.387 176.924 120.856 177.986 121.714C177.987 121.714 177.988 121.715 177.99 121.716C179.4 122.852 180.22 124.559 180.222 126.37C180.221 129.706 177.575 132.352 174.239 132.352V132.352Z" fill="#305680"/>
</svg>
