<svg width="36" height="22" viewBox="0 0 36 22" fill="none" xmlns="http://www.w3.org/2000/svg">
<path d="M23.4643 3.56857C26.7745 3.56857 29.5049 6.07211 29.8108 9.26096C31.9773 10.0043 33.5429 12.041 33.5429 14.3514C33.5429 17.3244 31.0311 19.7429 28.0179 19.7429H7.98215C4.96896 19.7429 2.45715 17.3244 2.45715 14.3514C2.45715 12.0427 4.02091 10.0086 6.1821 9.26359C6.49338 5.0814 10.0401 1.77142 14.3572 1.77142C16.6678 1.77142 18.8147 2.71564 20.3657 4.38818C21.3209 3.85024 22.3775 3.56857 23.4643 3.56857Z" stroke="#305680" stroke-width="3"/>
<path d="M23.4643 3.56857C26.7745 3.56857 29.5049 6.07211 29.8108 9.26096C31.9773 10.0043 33.5429 12.041 33.5429 14.3514C33.5429 17.3244 31.0311 19.7429 28.0179 19.7429H7.98215C4.96896 19.7429 2.45715 17.3244 2.45715 14.3514C2.45715 12.0427 4.02091 10.0086 6.1821 9.26359C6.49338 5.0814 10.0401 1.77142 14.3572 1.77142C16.6678 1.77142 18.8147 2.71564 20.3657 4.38818C21.3209 3.85024 22.3775 3.56857 23.4643 3.56857Z" stroke="#4CA1EF" stroke-width="3"/>
</svg>
