<svg width="228" height="134" viewBox="0 0 228 134" fill="none" xmlns="http://www.w3.org/2000/svg">
<path d="M36.8378 28C29.9243 28 23.4522 29.9291 17.9196 33.2489C16.3419 31.9664 14.3596 31.2525 12.297 31.252C12.2967 31.252 12.2964 31.252 12.2961 31.252C7.38354 31.2522 3.35555 35.2802 3.3558 40.1921C3.3558 40.1929 3.3558 40.1938 3.3558 40.1946C3.35821 42.2455 4.06918 44.2118 5.33099 45.7824C1.95991 51.3464 0.000146262 57.8659 0.000146262 64.8338C-0.00316135 65.1164 0.0496604 65.3969 0.155551 65.659C0.261442 65.9211 0.418296 66.1596 0.617026 66.3606C0.815756 66.5617 1.05241 66.7213 1.31328 66.8302C1.57415 66.9392 1.85404 66.9953 2.13675 66.9953C2.41945 66.9953 2.69935 66.9392 2.96022 66.8302C3.22109 66.7213 3.45774 66.5617 3.65647 66.3606C3.8552 66.1596 4.01205 65.9211 4.11795 65.659C4.22384 65.3969 4.27666 65.1164 4.27335 64.8338C4.27335 58.8135 5.91119 53.1968 8.75301 48.3648C9.86605 48.8485 11.062 49.1324 12.292 49.1343C12.293 49.1343 12.2941 49.1343 12.2951 49.1343C17.2079 49.1344 21.2366 45.1064 21.2363 40.1942C21.2363 40.1939 21.2363 40.1936 21.2363 40.1933C21.236 38.9748 20.9588 37.7895 20.4849 36.6845C25.291 33.8856 30.8651 32.2744 36.837 32.2744C37.1196 32.2777 37.4002 32.2249 37.6623 32.119C37.9244 32.0131 38.1629 31.8563 38.364 31.6576C38.5651 31.4589 38.7247 31.2222 38.8337 30.9614C38.9426 30.7006 38.9987 30.4207 38.9987 30.1381C38.9987 29.8554 38.9426 29.5755 38.8337 29.3147C38.7247 29.0539 38.5651 28.8173 38.364 28.6185C38.1629 28.4198 37.9244 28.263 37.6623 28.1571C37.4002 28.0513 37.1196 27.9984 36.837 28.0018L36.8378 28ZM12.2945 35.526C13.7358 35.5265 15.0223 36.1383 15.9108 37.2508C15.9254 37.2684 15.9402 37.2859 15.9553 37.3031C16.6065 38.1268 16.9627 39.1439 16.963 40.1943C16.9627 42.7965 14.8989 44.86 12.2966 44.861C11.2314 44.859 10.2001 44.4933 9.37163 43.8241C9.37062 43.8233 9.36961 43.8226 9.3686 43.8219C8.26831 42.9364 7.62924 41.6046 7.62719 40.1922C7.6278 37.59 9.69179 35.5265 12.2945 35.526L12.2945 35.526Z" fill="#305680"/>
<path fill-rule="evenodd" clip-rule="evenodd" d="M16.3292 53.0621C15.9655 53.4418 15.7524 53.9663 15.7789 54.5417C15.8023 55.0401 16.0015 55.5216 16.3486 55.8865C18.0073 57.5574 21.278 60.8152 21.278 60.8152L24.165 57.932C24.165 57.932 21.0028 54.7732 19.247 53.016C18.8561 52.6181 18.333 52.452 17.7816 52.4495C17.2068 52.4468 16.6927 52.682 16.329 53.0618L16.3292 53.0621ZM24.1651 57.9323L15.2343 66.8618C14.2653 67.8309 14.2653 69.4016 15.2343 70.3706L19.6598 74.7956L27.3996 82.5344L34.8287 89.9624C35.7978 90.9314 37.3691 90.9315 38.3382 89.9624L44.3811 83.9204L53.6226 74.6801L62.5534 65.7505C63.5225 64.7814 63.5224 63.2105 62.5533 62.2414L58.0122 57.701L50.2731 49.9605L42.9581 42.649C41.989 41.6802 40.418 41.6802 39.4488 42.649L33.4062 48.6907L24.1656 57.9301L24.1651 57.9323ZM33.4059 48.6929C33.4059 48.6929 30.2437 45.5341 28.488 43.7769C28.097 43.379 27.574 43.2129 27.0226 43.2104C25.8729 43.2049 24.9667 44.1515 25.0197 45.3023C25.0431 45.8007 25.2423 46.2822 25.5894 46.6471C27.2481 48.318 30.5187 51.5758 30.5187 51.5758L33.4057 48.6926L33.4059 48.6929ZM50.2718 49.9635C50.2718 49.9635 53.4311 46.8017 55.1885 45.0462C55.5864 44.6553 55.7526 44.1323 55.7551 43.581C55.7605 42.4315 54.8138 41.5254 53.6628 41.5784C53.1644 41.6018 52.6829 41.801 52.3179 42.148C50.6468 43.8065 47.3885 47.0767 47.3885 47.0767L50.2721 49.9633L50.2718 49.9635ZM58.0116 57.7022C58.0116 57.7022 61.1709 54.5405 62.9283 52.785C63.3263 52.3941 63.4924 51.8711 63.4949 51.3198C63.5004 50.1702 62.5536 49.2642 61.4027 49.3172C60.9043 49.3406 60.4227 49.5397 60.0577 49.8868C58.3866 51.5453 55.1283 54.8155 55.1283 54.8155L58.0119 57.7021L58.0116 57.7022ZM53.6219 74.6813C53.6219 74.6813 56.7841 77.8402 58.5403 79.5969C58.9313 79.9947 59.4543 80.1609 60.0058 80.1634C61.1554 80.1688 62.0616 79.2222 62.0086 78.0714L62.0082 78.0719C61.9847 77.5736 61.7853 77.0918 61.4382 76.7269C59.7795 75.056 56.5091 71.7985 56.5091 71.7985L53.6221 74.6817L53.6219 74.6813ZM44.3803 83.9216C44.3803 83.9216 47.5425 87.0805 49.2987 88.8372C49.6897 89.235 50.2128 89.4012 50.7642 89.4037C51.9138 89.4093 52.82 88.4625 52.7671 87.3117H52.7666C52.7431 86.8134 52.544 86.3318 52.1969 85.967C50.5381 84.296 47.2675 81.0383 47.2675 81.0383L44.3805 83.9214L44.3803 83.9216ZM27.3989 82.5356C27.3989 82.5356 24.2396 85.6974 22.4827 87.4533C22.0848 87.8443 21.9186 88.3672 21.9161 88.9186C21.9106 90.0681 22.8574 90.9742 24.0083 90.9212H24.0079C24.5063 90.8978 24.9879 90.6986 25.3528 90.3515C27.024 88.6931 30.2822 85.4228 30.2822 85.4228L27.4011 82.5372L27.3989 82.5356ZM19.6615 74.8C19.6615 74.8 16.5022 77.9618 14.7453 79.7177C14.3474 80.1087 14.1812 80.6316 14.1787 81.183C14.1732 82.3325 15.12 83.2385 16.2709 83.1856H16.2705C16.7689 83.1621 17.2505 82.963 17.6154 82.616C19.2866 80.9575 22.5448 77.6873 22.5448 77.6873L19.6615 74.7992L19.6615 74.8ZM40.9256 52.7304C41.335 52.3145 41.8926 52.0821 42.4606 52.0904C42.8659 52.0962 43.2535 52.2245 43.5727 52.4583L47.5943 55.4073C48.3746 55.9671 48.6046 57.0302 48.1381 57.9205C47.6716 58.8108 46.6455 59.2669 45.7126 58.9984L47.2054 64.835C47.4766 65.8955 46.8241 67.0206 45.7469 67.3494L34.8654 70.6715L36.8752 78.442C37.1611 79.5069 36.5092 80.6463 35.4238 80.9784C34.3384 81.3104 33.236 80.7077 32.9697 79.6368L30.4635 69.9443C30.1889 68.8828 30.8411 67.7546 31.9201 67.4248L42.8063 64.1012L41.8016 60.173C41.128 60.9198 40.0384 61.1011 39.2212 60.6023C38.4039 60.1034 38.0964 59.0694 38.4933 58.1536L40.4718 53.4124C40.5774 53.1595 40.732 52.9276 40.9258 52.7306L40.9256 52.7304Z" fill="#305680"/>
<path d="M41.1625 105.999C48.076 105.999 54.5481 104.069 60.081 100.749C61.6587 102.032 63.641 102.746 65.7037 102.746C65.704 102.746 65.7043 102.746 65.7046 102.746C70.6174 102.746 74.6454 98.7182 74.6452 93.8063C74.6452 93.8054 74.6452 93.8045 74.6452 93.8036C74.6427 91.7528 73.9318 89.7862 72.67 88.2159C76.0398 82.6542 77.9998 76.1343 77.9998 69.1664C78.0034 68.8836 77.9508 68.6029 77.845 68.3406C77.7392 68.0782 77.5824 67.8395 77.3837 67.6383C77.1849 67.437 76.9482 67.2772 76.6872 67.1682C76.4262 67.0591 76.1461 67.0029 75.8632 67.0029C75.5804 67.0029 75.3003 67.0591 75.0393 67.1682C74.7783 67.2772 74.5415 67.437 74.3428 67.6383C74.144 67.8395 73.9872 68.0782 73.8815 68.3406C73.7757 68.6029 73.7231 68.8836 73.7266 69.1664C73.7266 75.187 72.0888 80.8037 69.247 85.6356C68.1339 85.152 66.938 84.868 65.7079 84.8662C65.7069 84.8662 65.7059 84.8662 65.7049 84.8662C60.7921 84.866 56.7634 88.8941 56.7636 93.8062C56.7641 95.0247 57.0412 96.21 57.5151 97.315C52.7091 100.114 47.1347 101.725 41.1628 101.725C40.8799 101.722 40.5992 101.774 40.3368 101.88C40.0745 101.986 39.8357 102.142 39.6344 102.341C39.4332 102.54 39.2733 102.777 39.1643 103.038C39.0552 103.299 38.999 103.579 38.999 103.861C38.999 104.144 39.0552 104.424 39.1643 104.685C39.2733 104.946 39.4332 105.183 39.6344 105.382C39.8357 105.58 40.0745 105.737 40.3368 105.843C40.5992 105.949 40.8799 106.001 41.1628 105.998L41.1625 105.999ZM65.7058 98.4738C64.2645 98.4738 62.978 97.8615 62.0896 96.749C62.075 96.7313 62.0602 96.7139 62.045 96.6967C61.3939 95.8729 61.0377 94.8559 61.0373 93.8055C61.0378 91.2033 63.1015 89.1397 65.7037 89.1387C66.7689 89.1407 67.8003 89.5065 68.6287 90.1757C68.6297 90.1764 68.6308 90.1772 68.6318 90.1779C69.7321 91.0634 70.3711 92.3952 70.3732 93.8076C70.3725 96.4098 68.3086 98.4736 65.7058 98.4738V98.4738Z" fill="#305680"/>
<path fill-rule="evenodd" clip-rule="evenodd" d="M121 56.999H115V63.999L108 63.999V69.999H115V76.999H121V69.999H128V63.999L121 63.999V56.999Z" fill="#BFCAD6"/>
<g clip-path="url(#clip0)">
<path fill-rule="evenodd" clip-rule="evenodd" d="M192.998 32.8633C184.687 32.8646 176.647 35.8233 170.317 41.2099C163.988 46.5966 159.782 54.0596 158.451 62.2638C157.121 70.4679 158.753 78.8778 163.056 85.9885C167.359 93.0993 174.052 98.4469 181.937 101.075C183.687 101.396 184.326 100.315 184.326 99.3875C184.326 98.5566 184.296 96.3555 184.279 93.4347C174.543 95.5498 172.488 88.743 172.488 88.743C171.845 86.6275 170.467 84.8117 168.602 83.6233C165.425 81.4517 168.843 81.4957 168.843 81.4957C169.952 81.6489 171.012 82.0535 171.941 82.6786C172.87 83.3037 173.644 84.1328 174.204 85.1026C174.678 85.9661 175.319 86.727 176.089 87.3413C176.859 87.9556 177.743 88.4112 178.69 88.6816C179.637 88.9521 180.629 89.032 181.607 88.9169C182.586 88.8017 183.531 88.4937 184.39 88.0107C184.549 86.2361 185.337 84.5769 186.612 83.3317C178.84 82.4484 170.669 79.4457 170.669 66.0336C170.619 62.5563 171.909 59.193 174.272 56.6418C173.204 53.623 173.327 50.3107 174.615 47.3791C174.615 47.3791 177.554 46.438 184.24 50.9671C189.976 49.3963 196.029 49.3963 201.764 50.9671C208.446 46.438 211.38 47.3791 211.38 47.3791C212.671 50.3096 212.796 53.6226 211.728 56.6418C214.092 59.1925 215.38 62.5566 215.326 66.0336C215.326 79.4792 207.142 82.4379 199.345 83.3044C200.18 84.153 200.824 85.1704 201.234 86.2882C201.644 87.4061 201.81 88.5986 201.721 89.7859C201.721 94.465 201.678 98.2399 201.678 99.3875C201.678 100.323 202.309 101.412 204.085 101.07C211.967 98.4377 218.655 93.0869 222.953 85.9751C227.252 78.8632 228.88 70.4542 227.546 62.252C226.213 54.0499 222.005 46.5895 215.676 41.2052C209.346 35.821 201.308 32.8641 192.998 32.8633V32.8633Z" fill="#231E1B"/>
</g>
<defs>
<clipPath id="clip0">
<rect width="70" height="68.2714" fill="white" transform="translate(158 32.8633)"/>
</clipPath>
</defs>
</svg>
