<svg width="979" height="830" viewBox="0 0 979 830" fill="none" xmlns="http://www.w3.org/2000/svg" xmlns:xlink="http://www.w3.org/1999/xlink">
<style>
svg .magic:hover { 
stroke: #305680; 
stroke-width: 3px;
 }
svg .black_magic:hover { 
opacity: 1;
 }
</style>
<rect x="1.5" y="255.5" width="107" height="52" rx="5.5" fill="white" stroke="#28232D"/>
<rect x="159.5" y="255.5" width="88" height="52" rx="5.5" fill="white" stroke="#28232D"/>
<rect x="159" y="746" width="214" height="53" rx="6" fill="white"/>
<rect x="159.5" y="746.5" width="213" height="52" rx="5.5" stroke="#305680" stroke-opacity="0.4"/>
<rect x="486" y="159" width="163" height="37" rx="6" fill="white"/>
<rect x="486.5" y="159.5" width="162" height="36" rx="5.5" stroke="#305680" stroke-opacity="0.4"/>
<rect x="298.5" y="74.5" width="137" height="52" rx="5.5" fill="white" stroke="#28232D"/>
<rect x="298" y="436" width="138" height="53" rx="6" fill="white"/>
<rect x="298.5" y="436.5" width="137" height="52" rx="5.5" stroke="#305680" stroke-opacity="0.4"/>
<rect x="819" y="1" width="159" height="53" rx="6" fill="#305680"/>
<path fill-rule="evenodd" clip-rule="evenodd" d="M831.611 24.2594C831.508 24.3671 831.448 24.5159 831.455 24.6792C831.462 24.8206 831.518 24.9572 831.617 25.0608C832.088 25.5349 833.016 26.4593 833.016 26.4593L833.836 25.6412C833.836 25.6412 832.938 24.7449 832.44 24.2463C832.329 24.1334 832.18 24.0863 832.024 24.0856C831.861 24.0848 831.715 24.1516 831.611 24.2593L831.611 24.2594ZM833.836 25.6412L831.301 28.175C831.026 28.4499 831.026 28.8956 831.301 29.1706L832.557 30.4262L834.754 32.622L836.863 34.7297C837.138 35.0046 837.584 35.0046 837.859 34.7297L839.574 33.0153L842.198 30.3934L844.733 27.8596C845.008 27.5847 845.008 27.1389 844.733 26.864L843.443 25.5771L841.246 23.3814L839.17 21.3065C838.895 21.0316 838.449 21.0316 838.174 21.3065L836.459 23.0209L833.836 25.6428L833.836 25.6412ZM836.459 23.0193C836.459 23.0193 835.561 22.123 835.063 21.6245C834.952 21.5116 834.804 21.4645 834.647 21.4638C834.321 21.4622 834.063 21.7308 834.079 22.0573C834.085 22.1987 834.142 22.3353 834.24 22.4389C834.711 22.913 835.639 23.8374 835.639 23.8374L836.459 23.0193L836.459 23.0193ZM841.247 23.3799C841.247 23.3799 842.143 22.4827 842.642 21.9846C842.755 21.8737 842.802 21.7253 842.803 21.5688C842.805 21.2427 842.536 20.9856 842.209 21.0006C842.068 21.0073 841.931 21.0638 841.827 21.1623C841.353 21.6329 840.428 22.5608 840.428 22.5608L841.247 23.3798L841.247 23.3799ZM843.444 25.5757C843.444 25.5757 844.34 24.6785 844.839 24.1804C844.952 24.0695 844.999 23.9211 845 23.7647C845.002 23.4385 844.733 23.1814 844.406 23.1965C844.265 23.2031 844.128 23.2596 844.024 23.3581C843.55 23.8287 842.625 24.7566 842.625 24.7566L843.444 25.5757L843.444 25.5757ZM842.197 30.3933C842.197 30.3933 843.095 31.2896 843.594 31.788C843.705 31.9009 843.853 31.948 844.01 31.9487C844.336 31.9503 844.593 31.6817 844.578 31.3552L844.578 31.3553C844.571 31.2139 844.515 31.0772 844.416 30.9737C843.945 30.4996 843.017 29.5752 843.017 29.5752L842.197 30.3933L842.197 30.3933ZM839.574 33.0151C839.574 33.0151 840.472 33.9114 840.97 34.4099C841.081 34.5227 841.23 34.5699 841.386 34.5706C841.713 34.5722 841.97 34.3036 841.955 33.977H841.955C841.948 33.8356 841.891 33.699 841.793 33.5955C841.322 33.1214 840.394 32.1969 840.394 32.1969L839.574 33.015L839.574 33.0151ZM834.753 32.62C834.753 32.62 833.857 33.5171 833.358 34.0154C833.245 34.1263 833.198 34.2747 833.197 34.4311C833.196 34.7573 833.464 35.0144 833.791 34.9994H833.791C833.932 34.9927 834.069 34.9362 834.173 34.8377C834.647 34.3672 835.572 33.4392 835.572 33.4392L834.754 32.6241L834.753 32.62ZM832.556 30.4242C832.556 30.4242 831.66 31.3213 831.161 31.8196C831.048 31.9303 831.001 32.0786 831 32.2353C830.998 32.5612 831.267 32.8181 831.594 32.805H831.594C831.735 32.7983 831.872 32.7418 831.976 32.6433C832.45 32.1728 833.375 31.2448 833.375 31.2448L832.556 30.4244L832.556 30.4242ZM838.592 24.1618C838.708 24.0438 838.866 23.9778 839.028 23.9802C839.143 23.9818 839.253 24.0182 839.343 24.0846L840.485 24.9213C840.706 25.0802 840.772 25.3818 840.639 25.6344C840.507 25.887 840.216 26.0165 839.951 25.9403L840.374 27.5964C840.451 27.8973 840.266 28.2165 839.961 28.3098L836.872 29.2525L837.442 31.4573C837.523 31.7594 837.338 32.0827 837.03 32.1769C836.722 32.2711 836.409 32.1001 836.334 31.7962L835.622 29.0461C835.544 28.7449 835.729 28.4247 836.036 28.3312L839.126 27.3881L838.841 26.2735C838.649 26.4854 838.34 26.5369 838.108 26.3953C837.876 26.2538 837.789 25.9604 837.901 25.7005L838.463 24.3552C838.493 24.2835 838.537 24.2177 838.592 24.1618L838.592 24.1618Z" fill="white"/>
<rect x="819" y="61" width="159" height="53" rx="6" fill="#305680"/>
<path fill-rule="evenodd" clip-rule="evenodd" d="M831.611 84.2594C831.508 84.3671 831.448 84.5159 831.455 84.6792C831.462 84.8206 831.518 84.9572 831.617 85.0608C832.088 85.5349 833.016 86.4593 833.016 86.4593L833.836 85.6412C833.836 85.6412 832.938 84.7449 832.44 84.2463C832.329 84.1334 832.18 84.0863 832.024 84.0856C831.861 84.0848 831.715 84.1516 831.611 84.2593L831.611 84.2594ZM833.836 85.6412L831.301 88.175C831.026 88.4499 831.026 88.8956 831.301 89.1706L832.557 90.4262L834.754 92.622L836.863 94.7297C837.138 95.0046 837.584 95.0046 837.859 94.7297L839.574 93.0153L842.198 90.3934L844.733 87.8596C845.008 87.5847 845.008 87.1389 844.733 86.864L843.443 85.5771L841.246 83.3814L839.17 81.3065C838.895 81.0316 838.449 81.0316 838.174 81.3065L836.459 83.0209L833.836 85.6428L833.836 85.6412ZM836.459 83.0193C836.459 83.0193 835.561 82.123 835.063 81.6245C834.952 81.5116 834.804 81.4645 834.647 81.4638C834.321 81.4622 834.063 81.7308 834.079 82.0573C834.085 82.1987 834.142 82.3353 834.24 82.4389C834.711 82.913 835.639 83.8374 835.639 83.8374L836.459 83.0193L836.459 83.0193ZM841.247 83.3799C841.247 83.3799 842.143 82.4827 842.642 81.9846C842.755 81.8737 842.802 81.7253 842.803 81.5688C842.805 81.2427 842.536 80.9856 842.209 81.0006C842.068 81.0073 841.931 81.0638 841.827 81.1623C841.353 81.6329 840.428 82.5608 840.428 82.5608L841.247 83.3798L841.247 83.3799ZM843.444 85.5757C843.444 85.5757 844.34 84.6785 844.839 84.1804C844.952 84.0695 844.999 83.9211 845 83.7647C845.002 83.4385 844.733 83.1814 844.406 83.1965C844.265 83.2031 844.128 83.2596 844.024 83.3581C843.55 83.8287 842.625 84.7566 842.625 84.7566L843.444 85.5757L843.444 85.5757ZM842.197 90.3933C842.197 90.3933 843.095 91.2896 843.594 91.788C843.705 91.9009 843.853 91.948 844.01 91.9487C844.336 91.9503 844.593 91.6817 844.578 91.3552L844.578 91.3553C844.571 91.2139 844.515 91.0772 844.416 90.9737C843.945 90.4996 843.017 89.5752 843.017 89.5752L842.197 90.3933L842.197 90.3933ZM839.574 93.0151C839.574 93.0151 840.472 93.9114 840.97 94.4099C841.081 94.5227 841.23 94.5699 841.386 94.5706C841.713 94.5722 841.97 94.3036 841.955 93.977H841.955C841.948 93.8356 841.891 93.699 841.793 93.5955C841.322 93.1214 840.394 92.1969 840.394 92.1969L839.574 93.015L839.574 93.0151ZM834.753 92.62C834.753 92.62 833.857 93.5171 833.358 94.0154C833.245 94.1263 833.198 94.2747 833.197 94.4311C833.196 94.7573 833.464 95.0144 833.791 94.9994H833.791C833.932 94.9927 834.069 94.9362 834.173 94.8377C834.647 94.3672 835.572 93.4392 835.572 93.4392L834.754 92.6241L834.753 92.62ZM832.556 90.4242C832.556 90.4242 831.66 91.3213 831.161 91.8196C831.048 91.9303 831.001 92.0786 831 92.2353C830.998 92.5612 831.267 92.8181 831.594 92.805H831.594C831.735 92.7983 831.872 92.7418 831.976 92.6433C832.45 92.1728 833.375 91.2448 833.375 91.2448L832.556 90.4244L832.556 90.4242ZM838.592 84.1618C838.708 84.0438 838.866 83.9778 839.028 83.9802C839.143 83.9818 839.253 84.0182 839.343 84.0846L840.485 84.9213C840.706 85.0802 840.772 85.3818 840.639 85.6344C840.507 85.887 840.216 86.0165 839.951 85.9403L840.374 87.5964C840.451 87.8973 840.266 88.2165 839.961 88.3098L836.872 89.2525L837.442 91.4573C837.523 91.7594 837.338 92.0827 837.03 92.1769C836.722 92.2711 836.409 92.1001 836.334 91.7962L835.622 89.0461C835.544 88.7449 835.729 88.4247 836.036 88.3312L839.126 87.3881L838.841 86.2735C838.649 86.4854 838.34 86.5369 838.108 86.3953C837.876 86.2538 837.789 85.9604 837.901 85.7005L838.463 84.3552C838.493 84.2835 838.537 84.2177 838.592 84.1618L838.592 84.1618Z" fill="white"/>
<rect x="819" y="121" width="159" height="53" rx="6" fill="#305680"/>
<path fill-rule="evenodd" clip-rule="evenodd" d="M831.611 144.259C831.508 144.367 831.448 144.516 831.455 144.679C831.462 144.821 831.518 144.957 831.617 145.061C832.088 145.535 833.016 146.459 833.016 146.459L833.836 145.641C833.836 145.641 832.938 144.745 832.44 144.246C832.329 144.133 832.18 144.086 832.024 144.086C831.861 144.085 831.715 144.152 831.611 144.259L831.611 144.259ZM833.836 145.641L831.301 148.175C831.026 148.45 831.026 148.896 831.301 149.171L832.557 150.426L834.754 152.622L836.863 154.73C837.138 155.005 837.584 155.005 837.859 154.73L839.574 153.015L842.198 150.393L844.733 147.86C845.008 147.585 845.008 147.139 844.733 146.864L843.443 145.577L841.246 143.381L839.17 141.306C838.895 141.032 838.449 141.032 838.174 141.306L836.459 143.021L833.836 145.643L833.836 145.641ZM836.459 143.019C836.459 143.019 835.561 142.123 835.063 141.624C834.952 141.512 834.804 141.464 834.647 141.464C834.321 141.462 834.063 141.731 834.079 142.057C834.085 142.199 834.142 142.335 834.24 142.439C834.711 142.913 835.639 143.837 835.639 143.837L836.459 143.019L836.459 143.019ZM841.247 143.38C841.247 143.38 842.143 142.483 842.642 141.985C842.755 141.874 842.802 141.725 842.803 141.569C842.805 141.243 842.536 140.986 842.209 141.001C842.068 141.007 841.931 141.064 841.827 141.162C841.353 141.633 840.428 142.561 840.428 142.561L841.247 143.38L841.247 143.38ZM843.444 145.576C843.444 145.576 844.34 144.679 844.839 144.18C844.952 144.07 844.999 143.921 845 143.765C845.002 143.438 844.733 143.181 844.406 143.196C844.265 143.203 844.128 143.26 844.024 143.358C843.55 143.829 842.625 144.757 842.625 144.757L843.444 145.576L843.444 145.576ZM842.197 150.393C842.197 150.393 843.095 151.29 843.594 151.788C843.705 151.901 843.853 151.948 844.01 151.949C844.336 151.95 844.593 151.682 844.578 151.355L844.578 151.355C844.571 151.214 844.515 151.077 844.416 150.974C843.945 150.5 843.017 149.575 843.017 149.575L842.197 150.393L842.197 150.393ZM839.574 153.015C839.574 153.015 840.472 153.911 840.97 154.41C841.081 154.523 841.23 154.57 841.386 154.571C841.713 154.572 841.97 154.304 841.955 153.977H841.955C841.948 153.836 841.891 153.699 841.793 153.595C841.322 153.121 840.394 152.197 840.394 152.197L839.574 153.015L839.574 153.015ZM834.753 152.62C834.753 152.62 833.857 153.517 833.358 154.015C833.245 154.126 833.198 154.275 833.197 154.431C833.196 154.757 833.464 155.014 833.791 154.999H833.791C833.932 154.993 834.069 154.936 834.173 154.838C834.647 154.367 835.572 153.439 835.572 153.439L834.754 152.624L834.753 152.62ZM832.556 150.424C832.556 150.424 831.66 151.321 831.161 151.82C831.048 151.93 831.001 152.079 831 152.235C830.998 152.561 831.267 152.818 831.594 152.805H831.594C831.735 152.798 831.872 152.742 831.976 152.643C832.45 152.173 833.375 151.245 833.375 151.245L832.556 150.424L832.556 150.424ZM838.592 144.162C838.708 144.044 838.866 143.978 839.028 143.98C839.143 143.982 839.253 144.018 839.343 144.085L840.485 144.921C840.706 145.08 840.772 145.382 840.639 145.634C840.507 145.887 840.216 146.016 839.951 145.94L840.374 147.596C840.451 147.897 840.266 148.217 839.961 148.31L836.872 149.252L837.442 151.457C837.523 151.759 837.338 152.083 837.03 152.177C836.722 152.271 836.409 152.1 836.334 151.796L835.622 149.046C835.544 148.745 835.729 148.425 836.036 148.331L839.126 147.388L838.841 146.273C838.649 146.485 838.34 146.537 838.108 146.395C837.876 146.254 837.789 145.96 837.901 145.701L838.463 144.355C838.493 144.283 838.537 144.218 838.592 144.162L838.592 144.162Z" fill="white"/>
<rect x="819" y="181" width="159" height="53" rx="6" fill="#305680"/>
<path fill-rule="evenodd" clip-rule="evenodd" d="M831.611 204.259C831.508 204.367 831.448 204.516 831.455 204.679C831.462 204.821 831.518 204.957 831.617 205.061C832.088 205.535 833.016 206.459 833.016 206.459L833.836 205.641C833.836 205.641 832.938 204.745 832.44 204.246C832.329 204.133 832.18 204.086 832.024 204.086C831.861 204.085 831.715 204.152 831.611 204.259L831.611 204.259ZM833.836 205.641L831.301 208.175C831.026 208.45 831.026 208.896 831.301 209.171L832.557 210.426L834.754 212.622L836.863 214.73C837.138 215.005 837.584 215.005 837.859 214.73L839.574 213.015L842.198 210.393L844.733 207.86C845.008 207.585 845.008 207.139 844.733 206.864L843.443 205.577L841.246 203.381L839.17 201.306C838.895 201.032 838.449 201.032 838.174 201.306L836.459 203.021L833.836 205.643L833.836 205.641ZM836.459 203.019C836.459 203.019 835.561 202.123 835.063 201.624C834.952 201.512 834.804 201.464 834.647 201.464C834.321 201.462 834.063 201.731 834.079 202.057C834.085 202.199 834.142 202.335 834.24 202.439C834.711 202.913 835.639 203.837 835.639 203.837L836.459 203.019L836.459 203.019ZM841.247 203.38C841.247 203.38 842.143 202.483 842.642 201.985C842.755 201.874 842.802 201.725 842.803 201.569C842.805 201.243 842.536 200.986 842.209 201.001C842.068 201.007 841.931 201.064 841.827 201.162C841.353 201.633 840.428 202.561 840.428 202.561L841.247 203.38L841.247 203.38ZM843.444 205.576C843.444 205.576 844.34 204.679 844.839 204.18C844.952 204.07 844.999 203.921 845 203.765C845.002 203.438 844.733 203.181 844.406 203.196C844.265 203.203 844.128 203.26 844.024 203.358C843.55 203.829 842.625 204.757 842.625 204.757L843.444 205.576L843.444 205.576ZM842.197 210.393C842.197 210.393 843.095 211.29 843.594 211.788C843.705 211.901 843.853 211.948 844.01 211.949C844.336 211.95 844.593 211.682 844.578 211.355L844.578 211.355C844.571 211.214 844.515 211.077 844.416 210.974C843.945 210.5 843.017 209.575 843.017 209.575L842.197 210.393L842.197 210.393ZM839.574 213.015C839.574 213.015 840.472 213.911 840.97 214.41C841.081 214.523 841.23 214.57 841.386 214.571C841.713 214.572 841.97 214.304 841.955 213.977H841.955C841.948 213.836 841.891 213.699 841.793 213.595C841.322 213.121 840.394 212.197 840.394 212.197L839.574 213.015L839.574 213.015ZM834.753 212.62C834.753 212.62 833.857 213.517 833.358 214.015C833.245 214.126 833.198 214.275 833.197 214.431C833.196 214.757 833.464 215.014 833.791 214.999H833.791C833.932 214.993 834.069 214.936 834.173 214.838C834.647 214.367 835.572 213.439 835.572 213.439L834.754 212.624L834.753 212.62ZM832.556 210.424C832.556 210.424 831.66 211.321 831.161 211.82C831.048 211.93 831.001 212.079 831 212.235C830.998 212.561 831.267 212.818 831.594 212.805H831.594C831.735 212.798 831.872 212.742 831.976 212.643C832.45 212.173 833.375 211.245 833.375 211.245L832.556 210.424L832.556 210.424ZM838.592 204.162C838.708 204.044 838.866 203.978 839.028 203.98C839.143 203.982 839.253 204.018 839.343 204.085L840.485 204.921C840.706 205.08 840.772 205.382 840.639 205.634C840.507 205.887 840.216 206.016 839.951 205.94L840.374 207.596C840.451 207.897 840.266 208.217 839.961 208.31L836.872 209.252L837.442 211.457C837.523 211.759 837.338 212.083 837.03 212.177C836.722 212.271 836.409 212.1 836.334 211.796L835.622 209.046C835.544 208.745 835.729 208.425 836.036 208.331L839.126 207.388L838.841 206.273C838.649 206.485 838.34 206.537 838.108 206.395C837.876 206.254 837.789 205.96 837.901 205.701L838.463 204.355C838.493 204.283 838.537 204.218 838.592 204.162L838.592 204.162Z" fill="white"/>
<rect x="819" y="524" width="159" height="53" rx="6" fill="#305680"/>
<path fill-rule="evenodd" clip-rule="evenodd" d="M831.611 547.259C831.508 547.367 831.448 547.516 831.455 547.679C831.462 547.821 831.518 547.957 831.617 548.061C832.088 548.535 833.016 549.459 833.016 549.459L833.836 548.641C833.836 548.641 832.938 547.745 832.44 547.246C832.329 547.133 832.18 547.086 832.024 547.086C831.861 547.085 831.715 547.152 831.611 547.259L831.611 547.259ZM833.836 548.641L831.301 551.175C831.026 551.45 831.026 551.896 831.301 552.171L832.557 553.426L834.754 555.622L836.863 557.73C837.138 558.005 837.584 558.005 837.859 557.73L839.574 556.015L842.198 553.393L844.733 550.86C845.008 550.585 845.008 550.139 844.733 549.864L843.443 548.577L841.246 546.381L839.17 544.306C838.895 544.032 838.449 544.032 838.174 544.306L836.459 546.021L833.836 548.643L833.836 548.641ZM836.459 546.019C836.459 546.019 835.561 545.123 835.063 544.624C834.952 544.512 834.804 544.464 834.647 544.464C834.321 544.462 834.063 544.731 834.079 545.057C834.085 545.199 834.142 545.335 834.24 545.439C834.711 545.913 835.639 546.837 835.639 546.837L836.459 546.019L836.459 546.019ZM841.247 546.38C841.247 546.38 842.143 545.483 842.642 544.985C842.755 544.874 842.802 544.725 842.803 544.569C842.805 544.243 842.536 543.986 842.209 544.001C842.068 544.007 841.931 544.064 841.827 544.162C841.353 544.633 840.428 545.561 840.428 545.561L841.247 546.38L841.247 546.38ZM843.444 548.576C843.444 548.576 844.34 547.679 844.839 547.18C844.952 547.07 844.999 546.921 845 546.765C845.002 546.438 844.733 546.181 844.406 546.196C844.265 546.203 844.128 546.26 844.024 546.358C843.55 546.829 842.625 547.757 842.625 547.757L843.444 548.576L843.444 548.576ZM842.197 553.393C842.197 553.393 843.095 554.29 843.594 554.788C843.705 554.901 843.853 554.948 844.01 554.949C844.336 554.95 844.593 554.682 844.578 554.355L844.578 554.355C844.571 554.214 844.515 554.077 844.416 553.974C843.945 553.5 843.017 552.575 843.017 552.575L842.197 553.393L842.197 553.393ZM839.574 556.015C839.574 556.015 840.472 556.911 840.97 557.41C841.081 557.523 841.23 557.57 841.386 557.571C841.713 557.572 841.97 557.304 841.955 556.977H841.955C841.948 556.836 841.891 556.699 841.793 556.595C841.322 556.121 840.394 555.197 840.394 555.197L839.574 556.015L839.574 556.015ZM834.753 555.62C834.753 555.62 833.857 556.517 833.358 557.015C833.245 557.126 833.198 557.275 833.197 557.431C833.196 557.757 833.464 558.014 833.791 557.999H833.791C833.932 557.993 834.069 557.936 834.173 557.838C834.647 557.367 835.572 556.439 835.572 556.439L834.754 555.624L834.753 555.62ZM832.556 553.424C832.556 553.424 831.66 554.321 831.161 554.82C831.048 554.93 831.001 555.079 831 555.235C830.998 555.561 831.267 555.818 831.594 555.805H831.594C831.735 555.798 831.872 555.742 831.976 555.643C832.45 555.173 833.375 554.245 833.375 554.245L832.556 553.424L832.556 553.424ZM838.592 547.162C838.708 547.044 838.866 546.978 839.028 546.98C839.143 546.982 839.253 547.018 839.343 547.085L840.485 547.921C840.706 548.08 840.772 548.382 840.639 548.634C840.507 548.887 840.216 549.016 839.951 548.94L840.374 550.596C840.451 550.897 840.266 551.217 839.961 551.31L836.872 552.252L837.442 554.457C837.523 554.759 837.338 555.083 837.03 555.177C836.722 555.271 836.409 555.1 836.334 554.796L835.622 552.046C835.544 551.745 835.729 551.425 836.036 551.331L839.126 550.388L838.841 549.273C838.649 549.485 838.34 549.537 838.108 549.395C837.876 549.254 837.789 548.96 837.901 548.701L838.463 547.355C838.493 547.283 838.537 547.218 838.592 547.162L838.592 547.162Z" fill="white"/>
<rect x="819" y="464" width="159" height="53" rx="6" fill="#305680"/>
<path fill-rule="evenodd" clip-rule="evenodd" d="M831.611 487.259C831.508 487.367 831.448 487.516 831.455 487.679C831.462 487.821 831.518 487.957 831.617 488.061C832.088 488.535 833.016 489.459 833.016 489.459L833.836 488.641C833.836 488.641 832.938 487.745 832.44 487.246C832.329 487.133 832.18 487.086 832.024 487.086C831.861 487.085 831.715 487.152 831.611 487.259L831.611 487.259ZM833.836 488.641L831.301 491.175C831.026 491.45 831.026 491.896 831.301 492.171L832.557 493.426L834.754 495.622L836.863 497.73C837.138 498.005 837.584 498.005 837.859 497.73L839.574 496.015L842.198 493.393L844.733 490.86C845.008 490.585 845.008 490.139 844.733 489.864L843.443 488.577L841.246 486.381L839.17 484.306C838.895 484.032 838.449 484.032 838.174 484.306L836.459 486.021L833.836 488.643L833.836 488.641ZM836.459 486.019C836.459 486.019 835.561 485.123 835.063 484.624C834.952 484.512 834.804 484.464 834.647 484.464C834.321 484.462 834.063 484.731 834.079 485.057C834.085 485.199 834.142 485.335 834.24 485.439C834.711 485.913 835.639 486.837 835.639 486.837L836.459 486.019L836.459 486.019ZM841.247 486.38C841.247 486.38 842.143 485.483 842.642 484.985C842.755 484.874 842.802 484.725 842.803 484.569C842.805 484.243 842.536 483.986 842.209 484.001C842.068 484.007 841.931 484.064 841.827 484.162C841.353 484.633 840.428 485.561 840.428 485.561L841.247 486.38L841.247 486.38ZM843.444 488.576C843.444 488.576 844.34 487.679 844.839 487.18C844.952 487.07 844.999 486.921 845 486.765C845.002 486.438 844.733 486.181 844.406 486.196C844.265 486.203 844.128 486.26 844.024 486.358C843.55 486.829 842.625 487.757 842.625 487.757L843.444 488.576L843.444 488.576ZM842.197 493.393C842.197 493.393 843.095 494.29 843.594 494.788C843.705 494.901 843.853 494.948 844.01 494.949C844.336 494.95 844.593 494.682 844.578 494.355L844.578 494.355C844.571 494.214 844.515 494.077 844.416 493.974C843.945 493.5 843.017 492.575 843.017 492.575L842.197 493.393L842.197 493.393ZM839.574 496.015C839.574 496.015 840.472 496.911 840.97 497.41C841.081 497.523 841.23 497.57 841.386 497.571C841.713 497.572 841.97 497.304 841.955 496.977H841.955C841.948 496.836 841.891 496.699 841.793 496.595C841.322 496.121 840.394 495.197 840.394 495.197L839.574 496.015L839.574 496.015ZM834.753 495.62C834.753 495.62 833.857 496.517 833.358 497.015C833.245 497.126 833.198 497.275 833.197 497.431C833.196 497.757 833.464 498.014 833.791 497.999H833.791C833.932 497.993 834.069 497.936 834.173 497.838C834.647 497.367 835.572 496.439 835.572 496.439L834.754 495.624L834.753 495.62ZM832.556 493.424C832.556 493.424 831.66 494.321 831.161 494.82C831.048 494.93 831.001 495.079 831 495.235C830.998 495.561 831.267 495.818 831.594 495.805H831.594C831.735 495.798 831.872 495.742 831.976 495.643C832.45 495.173 833.375 494.245 833.375 494.245L832.556 493.424L832.556 493.424ZM838.592 487.162C838.708 487.044 838.866 486.978 839.028 486.98C839.143 486.982 839.253 487.018 839.343 487.085L840.485 487.921C840.706 488.08 840.772 488.382 840.639 488.634C840.507 488.887 840.216 489.016 839.951 488.94L840.374 490.596C840.451 490.897 840.266 491.217 839.961 491.31L836.872 492.252L837.442 494.457C837.523 494.759 837.338 495.083 837.03 495.177C836.722 495.271 836.409 495.1 836.334 494.796L835.622 492.046C835.544 491.745 835.729 491.425 836.036 491.331L839.126 490.388L838.841 489.273C838.649 489.485 838.34 489.537 838.108 489.395C837.876 489.254 837.789 488.96 837.901 488.701L838.463 487.355C838.493 487.283 838.537 487.218 838.592 487.162L838.592 487.162Z" fill="white"/>
<rect x="819" y="241" width="159" height="37" rx="6" fill="#305680"/>
<path fill-rule="evenodd" clip-rule="evenodd" d="M832.5 255C831.672 255 831 255.672 831 256.5V263.5C831 264.328 831.672 265 832.5 265H843.5C844.328 265 845 264.328 845 263.5V256.5C845 255.672 844.328 255 843.5 255H832.5ZM832.332 255.626C832.126 255.443 831.81 255.461 831.626 255.668C831.443 255.874 831.461 256.19 831.668 256.374L835.74 259.993L832.675 262.62C832.465 262.8 832.441 263.116 832.62 263.325C832.8 263.535 833.116 263.559 833.325 263.38L836.538 260.626L836.613 260.676C837.453 261.236 838.547 261.236 839.387 260.676L839.462 260.626L842.675 263.38C842.884 263.559 843.2 263.535 843.38 263.325C843.559 263.116 843.535 262.8 843.325 262.62L840.26 259.993L844.332 256.374C844.539 256.19 844.557 255.874 844.374 255.668C844.19 255.461 843.874 255.443 843.668 255.626L839.194 259.603L838.832 259.844C838.328 260.18 837.672 260.18 837.168 259.844L836.806 259.603L832.332 255.626Z" fill="white"/>
<rect x="819" y="672" width="159" height="37" rx="6" fill="#305680"/>
<path fill-rule="evenodd" clip-rule="evenodd" d="M832.5 686C831.672 686 831 686.672 831 687.5V694.5C831 695.328 831.672 696 832.5 696H843.5C844.328 696 845 695.328 845 694.5V687.5C845 686.672 844.328 686 843.5 686H832.5ZM832.332 686.626C832.126 686.443 831.81 686.461 831.626 686.668C831.443 686.874 831.461 687.19 831.668 687.374L835.74 690.993L832.675 693.62C832.465 693.8 832.441 694.116 832.62 694.325C832.8 694.535 833.116 694.559 833.325 694.38L836.538 691.626L836.613 691.676C837.453 692.236 838.547 692.236 839.387 691.676L839.462 691.626L842.675 694.38C842.884 694.559 843.2 694.535 843.38 694.325C843.559 694.116 843.535 693.8 843.325 693.62L840.26 690.993L844.332 687.374C844.539 687.19 844.557 686.874 844.374 686.668C844.19 686.461 843.874 686.443 843.668 686.626L839.194 690.603L838.832 690.844C838.328 691.18 837.672 691.18 837.168 690.844L836.806 690.603L832.332 686.626Z" fill="white"/>
<rect x="819" y="716" width="159" height="53" rx="6" fill="#305680"/>
<path fill-rule="evenodd" clip-rule="evenodd" d="M833 737C832.448 737 832 737.448 832 738V741C832 741.552 832.448 742 833 742H843C843.552 742 844 741.552 844 741V738C844 737.448 843.552 737 843 737H833ZM835 739.5C835 739.776 834.776 740 834.5 740C834.224 740 834 739.776 834 739.5C834 739.224 834.224 739 834.5 739C834.776 739 835 739.224 835 739.5ZM836.5 740C836.776 740 837 739.776 837 739.5C837 739.224 836.776 739 836.5 739C836.224 739 836 739.224 836 739.5C836 739.776 836.224 740 836.5 740Z" fill="white"/>
<path d="M835.5 743V745.5H833.866C833.693 745.201 833.37 745 833 745C832.448 745 832 745.448 832 746C832 746.552 832.448 747 833 747C833.37 747 833.693 746.799 833.866 746.5H836.5V743H835.5Z" fill="white"/>
<path d="M839.5 743V746.5H842.134C842.307 746.799 842.63 747 843 747C843.552 747 844 746.552 844 746C844 745.448 843.552 745 843 745C842.63 745 842.307 745.201 842.134 745.5H840.5V743H839.5Z" fill="white"/>
<path d="M837.5 743V747.134C837.201 747.307 837 747.63 837 748C837 748.552 837.448 749 838 749C838.552 749 839 748.552 839 748C839 747.63 838.799 747.307 838.5 747.134V743H837.5Z" fill="white"/>
<rect x="486.5" y="205.5" width="162" height="276" rx="9.5" fill="white" stroke="#B7B7B7" stroke-linecap="round" stroke-dasharray="5 5"/>
<rect x="496" y="215" width="143" height="37" rx="6" fill="#F7F8FA"/>
<rect x="496.5" y="215.5" width="142" height="36" rx="5.5" stroke="#305680" stroke-opacity="0.4"/>
<path fill-rule="evenodd" clip-rule="evenodd" d="M514.5 239.478V240.5C514.5 240.776 514.724 241 515 241C515.276 241 515.5 240.776 515.5 240.5V239.478C515.669 239.462 515.836 239.439 516 239.409V240.5C516 240.776 516.224 241 516.5 241C516.776 241 517 240.776 517 240.5V239.125C518.43 238.567 519.569 237.427 520.127 235.996C521.172 235.931 522 235.062 522 234C522 232.938 521.172 232.069 520.127 232.004C519.569 230.572 518.428 229.431 516.996 228.873C516.931 227.828 516.062 227 515 227C513.938 227 513.069 227.828 513.004 228.873C511.572 229.431 510.432 230.572 509.874 232.004C508.828 232.069 508 232.938 508 234C508 235.062 508.828 235.931 509.874 235.996C510.431 237.427 511.57 238.566 513 239.125V240.5C513 240.776 513.224 241 513.5 241C513.776 241 514 240.776 514 240.5V239.409C514.164 239.439 514.331 239.462 514.5 239.478ZM515 228C514.448 228 514 228.448 514 229C514 229.552 514.448 230 515 230C515.552 230 516 229.552 516 229C516 228.448 515.552 228 515 228ZM514.5 230.937C513.928 230.79 513.454 230.395 513.201 229.874C512.162 230.328 511.328 231.162 510.874 232.201C511.395 232.454 511.79 232.928 511.937 233.5H513.5C513.776 233.5 514 233.724 514 234V238.388C514.163 238.426 514.33 238.454 514.5 238.473V230.937ZM515.5 238.473V230.937C516.072 230.79 516.546 230.395 516.799 229.874C517.838 230.328 518.672 231.162 519.126 232.201C518.605 232.454 518.21 232.927 518.063 233.5H516.5C516.224 233.5 516 233.724 516 234V238.389C515.837 238.426 515.67 238.454 515.5 238.473ZM513 238.032V234.5H511.937C511.79 235.072 511.395 235.546 510.874 235.799C511.298 236.77 512.055 237.562 513 238.032ZM511 234C511 233.448 510.552 233 510 233C509.448 233 509 233.448 509 234C509 234.552 509.448 235 510 235C510.552 235 511 234.552 511 234ZM517 238.032C517.945 237.563 518.702 236.77 519.126 235.799C518.605 235.546 518.21 235.073 518.063 234.5H517V238.032ZM519 234C519 234.552 519.448 235 520 235C520.552 235 521 234.552 521 234C521 233.448 520.552 233 520 233C519.448 233 519 233.448 519 234Z" fill="#305680"/>
<rect x="496" y="435" width="143" height="37" rx="6" fill="#F7F8FA"/>
<rect x="496.5" y="435.5" width="142" height="36" rx="5.5" stroke="#305680" stroke-opacity="0.4"/>
<path d="M521 449.001H516.733C516.387 448.403 515.741 448 515 448C514.259 448 513.613 448.403 513.267 449.001H509V451.001H513.268C513.444 451.304 513.697 451.557 514 451.732V454H516V451.732C516.303 451.557 516.556 451.304 516.732 451.001H521V449.001Z" fill="#305680"/>
<path fill-rule="evenodd" clip-rule="evenodd" d="M510 455C509.448 455 509 455.448 509 456V459C509 459.552 509.448 460 510 460H520C520.552 460 521 459.552 521 459V456C521 455.448 520.552 455 520 455H510ZM517 457.5C517 457.776 516.776 458 516.5 458C516.224 458 516 457.776 516 457.5C516 457.224 516.224 457 516.5 457C516.776 457 517 457.224 517 457.5ZM518.5 458C518.776 458 519 457.776 519 457.5C519 457.224 518.776 457 518.5 457C518.224 457 518 457.224 518 457.5C518 457.776 518.224 458 518.5 458Z" fill="#305680"/>
<rect x="496" y="391" width="143" height="37" rx="6" fill="white"/>
<rect x="496.5" y="391.5" width="142" height="36" rx="5.5" stroke="#305680" stroke-opacity="0.4"/>
<rect x="496" y="259" width="143" height="37" rx="6" fill="#F7F8FA"/>
<rect x="496.5" y="259.5" width="142" height="36" rx="5.5" stroke="#305680" stroke-opacity="0.4"/>
<path d="M511.5 275.5L515.5 272L511.5 281.5H508L511.5 275.5Z" fill="#305680"/>
<path d="M514.5 277.5L516 273.5L522 283H511.5L517.5 281.5L514.5 277.5Z" fill="#305680"/>
<rect x="496" y="347" width="143" height="37" rx="6" fill="#F7F8FA"/>
<rect x="496.5" y="347.5" width="142" height="36" rx="5.5" stroke="#305680" stroke-opacity="0.4"/>
<path d="M515 359C515.276 359 515.5 359.224 515.5 359.5V361C515.5 361.276 515.276 361.5 515 361.5C514.724 361.5 514.5 361.276 514.5 361V359.5C514.5 359.224 514.724 359 515 359Z" fill="#305680"/>
<path d="M518.184 359.619C518.44 359.722 518.564 360.014 518.46 360.27L517.898 361.661C517.795 361.917 517.503 362.04 517.247 361.937C516.991 361.833 516.868 361.542 516.971 361.286L517.533 359.895C517.636 359.639 517.928 359.515 518.184 359.619Z" fill="#305680"/>
<path d="M520.917 362.093C521.109 361.894 521.103 361.577 520.904 361.386C520.706 361.194 520.389 361.199 520.197 361.398L519.155 362.477C518.964 362.676 518.969 362.992 519.168 363.184C519.366 363.376 519.683 363.37 519.875 363.172L520.917 362.093Z" fill="#305680"/>
<path d="M509.083 362.093C508.891 361.894 508.896 361.577 509.095 361.386C509.294 361.194 509.61 361.199 509.802 361.398L510.844 362.477C511.036 362.676 511.03 362.992 510.832 363.184C510.633 363.376 510.317 363.37 510.125 363.172L509.083 362.093Z" fill="#305680"/>
<path d="M511.539 360.27C511.436 360.014 511.56 359.722 511.816 359.619C512.072 359.515 512.363 359.639 512.467 359.895L513.028 361.286C513.132 361.542 513.008 361.833 512.752 361.937C512.496 362.04 512.205 361.917 512.101 361.661L511.539 360.27Z" fill="#305680"/>
<path fill-rule="evenodd" clip-rule="evenodd" d="M509.5 367.5C509.5 364.462 511.962 362 515 362C518.038 362 520.5 364.462 520.5 367.5C520.5 370.538 518.038 373 515 373C511.962 373 509.5 370.538 509.5 367.5ZM515 363C514.429 363 513.883 363.106 513.38 363.3C514.497 363.372 515.745 363.797 516.906 364.546C517.057 364.643 517.204 364.744 517.346 364.849C517.549 364.823 517.744 364.804 517.929 364.793C518.16 364.78 518.383 364.778 518.593 364.79C517.771 363.703 516.468 363 515 363ZM515 372C513.532 372 512.229 371.297 511.407 370.21C511.617 370.222 511.839 370.22 512.07 370.207C512.256 370.196 512.451 370.177 512.654 370.151C512.796 370.256 512.943 370.357 513.094 370.454C514.255 371.203 515.503 371.628 516.62 371.7C516.117 371.894 515.571 372 515 372ZM511.219 365.061C511.538 364.565 512.208 364.262 513.17 364.291C513.995 364.316 514.967 364.589 515.926 365.123C515.408 365.254 514.866 365.42 514.315 365.621C513.135 366.051 512.085 366.578 511.301 367.111C510.899 366.266 510.905 365.547 511.219 365.061ZM511.583 369.216C511.343 369.21 511.15 369.184 511.004 369.144C510.848 369.102 510.792 369.057 510.775 369.04C510.777 369.016 510.791 368.946 510.883 368.813C510.928 368.748 510.985 368.678 511.055 368.603C511.215 368.812 511.391 369.017 511.583 369.216ZM512.928 369.099C512.492 368.742 512.121 368.356 511.825 367.964C512.527 367.48 513.513 366.978 514.657 366.56C515.524 366.245 516.353 366.025 517.072 365.901C517.508 366.258 517.879 366.644 518.175 367.036C517.473 367.519 516.487 368.022 515.342 368.44C514.476 368.755 513.647 368.975 512.928 369.099ZM514.074 369.877C515.033 370.411 516.005 370.684 516.83 370.709C517.792 370.738 518.462 370.435 518.782 369.939C519.096 369.453 519.101 368.734 518.699 367.889C517.915 368.422 516.865 368.949 515.685 369.379C515.134 369.58 514.591 369.746 514.074 369.877ZM518.945 366.397C519.015 366.322 519.072 366.252 519.117 366.187C519.208 366.054 519.223 365.984 519.225 365.96C519.208 365.943 519.152 365.898 518.996 365.856C518.85 365.816 518.657 365.79 518.417 365.784C518.609 365.983 518.785 366.188 518.945 366.397Z" fill="#305680"/>
<rect x="496" y="303" width="143" height="37" rx="6" fill="#F7F8FA"/>
<rect x="496.5" y="303.5" width="142" height="36" rx="5.5" stroke="#305680" stroke-opacity="0.4"/>
<path d="M511.5 319.5L515.5 316L511.5 325.5H508L511.5 319.5Z" fill="#305680"/>
<path d="M514.5 321.5L516 317.5L522 327H511.5L517.5 325.5L514.5 321.5Z" fill="#305680"/>
<rect x="486.5" y="486.5" width="162" height="188" rx="9.5" fill="white" stroke="#B7B7B7" stroke-linecap="round" stroke-dasharray="5 5"/>
<rect x="496" y="496" width="143" height="37" rx="6" fill="white"/>
<rect x="496.5" y="496.5" width="142" height="36" rx="5.5" stroke="#305680" stroke-opacity="0.4"/>
<rect x="496" y="628" width="143" height="37" rx="6" fill="white"/>
<rect x="496.5" y="628.5" width="142" height="36" rx="5.5" stroke="#305680" stroke-opacity="0.4"/>
<rect x="496" y="540" width="143" height="37" rx="6" fill="white"/>
<rect x="496.5" y="540.5" width="142" height="36" rx="5.5" stroke="#305680" stroke-opacity="0.4"/>
<rect x="496" y="584" width="143" height="37" rx="6" fill="white"/>
<rect x="496.5" y="584.5" width="142" height="36" rx="5.5" stroke="#305680" stroke-opacity="0.4"/>
<rect x="819" y="383" width="159" height="53" rx="6" fill="#F7F8FA"/>
<rect x="819.5" y="383.5" width="158" height="52" rx="5.5" stroke="#305680" stroke-opacity="0.4"/>
<path d="M844 405.001H839.733C839.387 404.403 838.741 404 838 404C837.259 404 836.613 404.403 836.267 405.001H832V407.001H836.268C836.444 407.304 836.697 407.557 837 407.732V410H839V407.732C839.303 407.557 839.556 407.304 839.732 407.001H844V405.001Z" fill="#305680"/>
<path fill-rule="evenodd" clip-rule="evenodd" d="M833 411C832.448 411 832 411.448 832 412V415C832 415.552 832.448 416 833 416H843C843.552 416 844 415.552 844 415V412C844 411.448 843.552 411 843 411H833ZM840 413.5C840 413.776 839.776 414 839.5 414C839.224 414 839 413.776 839 413.5C839 413.224 839.224 413 839.5 413C839.776 413 840 413.224 840 413.5ZM841.5 414C841.776 414 842 413.776 842 413.5C842 413.224 841.776 413 841.5 413C841.224 413 841 413.224 841 413.5C841 413.776 841.224 414 841.5 414Z" fill="#305680"/>
<rect x="819" y="584" width="159" height="37" rx="6" fill="#F7F8FA"/>
<rect x="819.5" y="584.5" width="158" height="36" rx="5.5" stroke="#305680" stroke-opacity="0.4"/>
<path d="M844 598.001H839.733C839.387 597.403 838.741 597 838 597C837.259 597 836.613 597.403 836.267 598.001H832V600.001H836.268C836.444 600.304 836.697 600.557 837 600.732V603H839V600.732C839.303 600.557 839.556 600.304 839.732 600.001H844V598.001Z" fill="#305680"/>
<path fill-rule="evenodd" clip-rule="evenodd" d="M833 604C832.448 604 832 604.448 832 605V608C832 608.552 832.448 609 833 609H843C843.552 609 844 608.552 844 608V605C844 604.448 843.552 604 843 604H833ZM840 606.5C840 606.776 839.776 607 839.5 607C839.224 607 839 606.776 839 606.5C839 606.224 839.224 606 839.5 606C839.776 606 840 606.224 840 606.5ZM841.5 607C841.776 607 842 606.776 842 606.5C842 606.224 841.776 606 841.5 606C841.224 606 841 606.224 841 606.5C841 606.776 841.224 607 841.5 607Z" fill="#305680"/>
<rect x="819" y="628" width="159" height="37" rx="6" fill="#F7F8FA"/>
<rect x="819.5" y="628.5" width="158" height="36" rx="5.5" stroke="#305680" stroke-opacity="0.4"/>
<path d="M844 642.001H839.733C839.387 641.403 838.741 641 838 641C837.259 641 836.613 641.403 836.267 642.001H832V644.001H836.268C836.444 644.304 836.697 644.557 837 644.732V647H839V644.732C839.303 644.557 839.556 644.304 839.732 644.001H844V642.001Z" fill="#305680"/>
<path fill-rule="evenodd" clip-rule="evenodd" d="M833 648C832.448 648 832 648.448 832 649V652C832 652.552 832.448 653 833 653H843C843.552 653 844 652.552 844 652V649C844 648.448 843.552 648 843 648H833ZM840 650.5C840 650.776 839.776 651 839.5 651C839.224 651 839 650.776 839 650.5C839 650.224 839.224 650 839.5 650C839.776 650 840 650.224 840 650.5ZM841.5 651C841.776 651 842 650.776 842 650.5C842 650.224 841.776 650 841.5 650C841.224 650 841 650.224 841 650.5C841 650.776 841.224 651 841.5 651Z" fill="#305680"/>
<rect x="486" y="716" width="283" height="53" rx="6" fill="white"/>
<rect x="486.5" y="716.5" width="282" height="52" rx="5.5" stroke="#305680" stroke-opacity="0.4"/>
<rect x="819" y="776" width="159" height="53" rx="6" fill="#F7F8FA"/>
<rect x="819.5" y="776.5" width="158" height="52" rx="5.5" stroke="#305680" stroke-opacity="0.4"/>
<path d="M844 798.001H839.733C839.387 797.403 838.741 797 838 797C837.259 797 836.613 797.403 836.267 798.001H832V800.001H836.268C836.444 800.304 836.697 800.557 837 800.732V803H839V800.732C839.303 800.557 839.556 800.304 839.732 800.001H844V798.001Z" fill="#305680"/>
<path fill-rule="evenodd" clip-rule="evenodd" d="M833 804C832.448 804 832 804.448 832 805V808C832 808.552 832.448 809 833 809H843C843.552 809 844 808.552 844 808V805C844 804.448 843.552 804 843 804H833ZM840 806.5C840 806.776 839.776 807 839.5 807C839.224 807 839 806.776 839 806.5C839 806.224 839.224 806 839.5 806C839.776 806 840 806.224 840 806.5ZM841.5 807C841.776 807 842 806.776 842 806.5C842 806.224 841.776 806 841.5 806C841.224 806 841 806.224 841 806.5C841 806.776 841.224 807 841.5 807Z" fill="#305680"/>
<path d="M812 686V684.921C812 684.112 812.911 683.637 813.573 684.101L815.83 685.681C816.398 686.079 816.398 686.921 815.83 687.319L813.573 688.899C812.911 689.362 812 688.888 812 688.079V687L711.5 687C707.91 687 705 684.09 705 680.5V680H706V680.5C706 683.538 708.462 686 711.5 686L812 686Z" fill="#858288"/>
<path d="M706 586.5L706 659H705L705 586.5C705 583.462 702.538 581 699.5 581L652 581L652 580L699.5 580C703.09 580 706 582.91 706 586.5Z" fill="#858288"/>
<path d="M294.83 99.6808C295.398 100.079 295.398 100.921 294.83 101.319L292.573 102.899C291.911 103.363 291 102.888 291 102.079V101L280.5 101C277.462 101 275 103.462 275 106.5L275 179H274L274 106.5C274 102.91 276.91 100 280.5 100L291 100V98.9207C291 98.1117 291.911 97.6375 292.573 98.1015L294.83 99.6808Z" fill="#28232D"/>
<path d="M275 271.5L275 200H274L274 271.5C274 274.538 271.538 277 268.5 277H251L251 278H268.5C272.09 278 275 275.09 275 271.5Z" fill="#28232D"/>
<path d="M482.83 342.681C483.398 343.079 483.398 343.921 482.83 344.319L480.573 345.899C479.911 346.363 479 345.888 479 345.079V344L468.5 344C465.462 344 463 346.462 463 349.5L463 391H462L462 349.5C462 345.91 464.91 343 468.5 343L479 343V341.921C479 341.112 479.911 340.638 480.573 341.101L482.83 342.681Z" fill="#28232D"/>
<path d="M463 452.5L463 412H462L462 452.5C462 455.538 459.538 458 456.5 458H439L439 459H456.5C460.09 459 463 456.09 463 452.5Z" fill="#28232D"/>
<path d="M815.83 86.6808C816.398 87.0789 816.398 87.9212 815.83 88.3193L813.573 89.8986C812.911 90.3625 812 89.8884 812 89.0794V88L711.5 88C708.462 88 706 90.4625 706 93.5V100H705V93.5C705 89.9102 707.91 87 711.5 87L812 87V85.9207C812 85.1117 812.911 84.6375 813.573 85.1015L815.83 86.6808Z" fill="#28232D"/>
<path d="M706 159.5L706 121H705L705 159.5C705 162.538 702.538 165 699.5 165H652L652 166H699.5C703.09 166 706 163.09 706 159.5Z" fill="#28232D"/>
<path d="M815.83 262.681C816.398 263.079 816.398 263.921 815.83 264.319L813.573 265.899C812.911 266.363 812 265.888 812 265.079V264L711.5 264C708.462 264 706 266.463 706 269.5V274H705V269.5C705 265.91 707.91 263 711.5 263L812 263V261.921C812 261.112 812.911 260.638 813.573 261.101L815.83 262.681Z" fill="#28232D"/>
<path d="M706 337.5L706 295H705L705 337.5C705 340.538 702.538 343 699.5 343H652L652 344H699.5C703.09 344 706 341.09 706 337.5Z" fill="#28232D"/>
<path d="M815.83 146.681C816.398 147.079 816.398 147.921 815.83 148.319L813.573 149.899C812.911 150.363 812 149.888 812 149.079V148L771 148V147L812 147V145.921C812 145.112 812.911 144.638 813.573 145.101L815.83 146.681Z" fill="#28232D"/>
<path d="M719.5 147L736 147V148L719.5 148C716.462 148 714 150.462 714 153.5V167.5C714 171.09 711.09 174 707.5 174L652 174L652 173L707.5 173C710.538 173 713 170.538 713 167.5V153.5C713 149.91 715.91 147 719.5 147Z" fill="#28232D"/>
<path d="M719.5 208L736 208V207L719.5 207C716.462 207 714 204.537 714 201.5V187.5C714 183.91 711.09 181 707.5 181L652 181L652 182L707.5 182C710.538 182 713 184.462 713 187.5V201.5C713 205.09 715.91 208 719.5 208Z" fill="#28232D"/>
<path d="M812 208L771 208V207L812 207V205.921C812 205.111 812.911 204.637 813.573 205.101L815.83 206.681C816.398 207.079 816.398 207.921 815.83 208.319L813.573 209.898C812.911 210.362 812 209.888 812 209.079V208Z" fill="#28232D"/>
<path d="M815.83 21.6808C816.398 22.0789 816.398 22.9212 815.83 23.3193L813.573 24.8986C812.911 25.3625 812 24.8884 812 24.0794V23.0002L468.5 23.0002C465.462 23.0002 463 25.4626 463 28.5002L463 49H462L462 28.5002C462 24.9103 464.91 22.0002 468.5 22.0002L812 22.0002V20.9207C812 20.1117 812.911 19.6375 813.573 20.1015L815.83 21.6808Z" fill="#28232D"/>
<path d="M463 90.5001L463 70H462L462 90.5001C462 93.5377 459.538 96.0001 456.5 96.0001H439L439 97.0001H456.5C460.09 97.0001 463 94.09 463 90.5001Z" fill="#28232D"/>
<path d="M152 772V770.921C152 770.112 152.911 769.637 153.573 770.101L155.83 771.681C156.398 772.079 156.398 772.921 155.83 773.319L153.573 774.899C152.911 775.362 152 774.888 152 774.079V773H141.5C137.91 773 135 770.09 135 766.5L135 543H136L136 766.5C136 769.538 138.463 772 141.5 772H152Z" fill="#28232D"/>
<path d="M136 297.5L136 522H135L135 297.5C135 294.462 132.538 292 129.5 292L112 292V291L129.5 291C133.09 291 136 293.91 136 297.5Z" fill="#28232D"/>
<path d="M291 462V460.921C291 460.112 291.911 459.637 292.573 460.101L294.83 461.681C295.398 462.079 295.398 462.921 294.83 463.319L292.573 464.899C291.911 465.363 291 464.888 291 464.079V463H280.5C276.91 463 274 460.09 274 456.5L274 385H275L275 456.5C275 459.538 277.462 462 280.5 462H291Z" fill="#28232D"/>
<path d="M275 291.5L275 364H274L274 291.5C274 288.462 271.538 286 268.5 286L251 286L251 285L268.5 285C272.09 285 275 287.91 275 291.5Z" fill="#28232D"/>
<path d="M479 580V578.921C479 578.112 479.911 577.637 480.573 578.101L482.83 579.681C483.398 580.079 483.398 580.921 482.83 581.319L480.573 582.899C479.911 583.363 479 582.888 479 582.079V581L468.5 581C464.91 581 462 578.09 462 574.5L462 535H463L463 574.5C463 577.538 465.462 580 468.5 580L479 580Z" fill="#28232D"/>
<path d="M463 472.5L463 514H462L462 472.5C462 469.462 459.538 467 456.5 467L439 467L439 466L456.5 466C460.09 466 463 468.91 463 472.5Z" fill="#28232D"/>
<path d="M812 802V800.921C812 800.112 812.911 799.637 813.573 800.101L815.83 801.681C816.398 802.079 816.398 802.921 815.83 803.319L813.573 804.899C812.911 805.363 812 804.888 812 804.079V803L468.5 803C465.796 803 463.478 801.349 462.498 799H463.6C464.51 800.781 466.363 802 468.5 802L812 802Z" fill="#28232D"/>
<path d="M456.5 776C459.204 776 461.522 777.651 462.502 780H461.4C460.49 778.219 458.637 777 456.5 777L376 777L376 776L456.5 776Z" fill="#28232D"/>
<path d="M812 255V253.921C812 253.112 812.911 252.637 813.573 253.101L815.83 254.681C816.398 255.079 816.398 255.921 815.83 256.319L813.573 257.899C812.911 258.363 812 257.888 812 257.079V256L711.5 256C707.91 256 705 253.09 705 249.5V245H706V249.5C706 252.538 708.462 255 711.5 255L812 255Z" fill="#28232D"/>
<path d="M706 195.5L706 224H705L705 195.5C705 192.462 702.538 190 699.5 190L652 190L652 189H699.5C703.09 189 706 191.91 706 195.5Z" fill="#28232D"/>
<path d="M479 177V175.921C479 175.112 479.911 174.637 480.573 175.101L482.83 176.681C483.398 177.079 483.398 177.921 482.83 178.319L480.573 179.899C479.911 180.363 479 179.888 479 179.079V178L468.5 178C464.91 178 462 175.09 462 171.5L462 151H463L463 171.5C463 174.538 465.462 177 468.5 177L479 177Z" fill="#28232D"/>
<path d="M463 110.5L463 131H462L462 110.5C462 107.462 459.538 105 456.5 105L439 105L439 104H456.5C460.09 104 463 106.91 463 110.5Z" fill="#28232D"/>
<path d="M482.83 741.681C483.398 742.079 483.398 742.921 482.83 743.319L480.573 744.899C479.911 745.363 479 744.888 479 744.079V743L468.5 743C466.363 743 464.51 744.219 463.6 746H462.498C463.478 743.651 465.796 742 468.5 742L479 742V740.921C479 740.112 479.911 739.638 480.573 740.101L482.83 741.681Z" fill="#28232D"/>
<path d="M456.5 769C459.204 769 461.522 767.349 462.502 765H461.4C460.49 766.781 458.637 768 456.5 768L376 768L376 769L456.5 769Z" fill="#28232D"/>
<path d="M155.83 278.319C156.398 277.921 156.398 277.079 155.83 276.681L153.573 275.101C152.911 274.638 152 275.112 152 275.921V277L146 277V278L152 278V279.079C152 279.888 152.911 280.363 153.573 279.899L155.83 278.319Z" fill="#28232D"/>
<path d="M112 277L122 277V278L112 278V277Z" fill="#28232D"/>
<path d="M815.83 410.319C816.398 409.921 816.398 409.079 815.83 408.681L813.573 407.101C812.911 406.638 812 407.112 812 407.921V409L642 409V410L812 410V411.079C812 411.888 812.911 412.363 813.573 411.899L815.83 410.319Z" fill="#28232D"/>
<path d="M815.83 559.319C816.398 558.921 816.398 558.079 815.83 557.681L813.573 556.101C812.911 555.638 812 556.112 812 556.921V558L642 558V559L812 559V560.079C812 560.888 812.911 561.363 813.573 560.899L815.83 559.319Z" fill="#28232D"/>
<path d="M815.83 603.319C816.398 602.921 816.398 602.079 815.83 601.681L813.573 600.101C812.911 599.638 812 600.112 812 600.921V602L642 602V603L812 603V604.079C812 604.888 812.911 605.363 813.573 604.899L815.83 603.319Z" fill="#28232D"/>
<path d="M815.83 647.319C816.398 646.921 816.398 646.079 815.83 645.681L813.573 644.101C812.911 643.638 812 644.112 812 644.921V646L642 646V647L812 647V648.079C812 648.888 812.911 649.363 813.573 648.899L815.83 647.319Z" fill="#28232D"/>
<path d="M815.83 489.681C816.398 490.079 816.398 490.921 815.83 491.319L813.573 492.899C812.911 493.363 812 492.888 812 492.079V491L711.5 491C708.462 491 706 493.462 706 496.5V508.5C706 512.09 703.09 515 699.5 515H642L642 514H699.5C702.538 514 705 511.537 705 508.5L705 496.5C705 492.91 707.91 490 711.5 490L812 490V488.921C812 488.112 812.911 487.638 813.573 488.101L815.83 489.681Z" fill="#28232D"/>
<path d="M815.83 693.681C816.398 694.079 816.398 694.921 815.83 695.319L813.573 696.899C812.911 697.363 812 696.888 812 696.079V695L801.5 695C798.462 695 796 697.462 796 700.5V703H795V700.5C795 696.91 797.91 694 801.5 694L812 694V692.921C812 692.112 812.911 691.638 813.573 692.101L815.83 693.681Z" fill="#28232D"/>
<path d="M796 726.5V724H795V726.5C795 729.538 792.538 732 789.5 732L772 732L772 733L789.5 733C793.09 733 796 730.09 796 726.5Z" fill="#28232D"/>
<path d="M815.83 747.319C816.398 746.921 816.398 746.079 815.83 745.681L813.573 744.101C812.911 743.638 812 744.112 812 744.921V746L806 746V747L812 747V748.079C812 748.888 812.911 749.363 813.573 748.899L815.83 747.319Z" fill="#28232D"/>
<path d="M772 746L782 746V747L772 747V746Z" fill="#28232D"/>
<text fill="#28232D" xml:space="preserve" style="white-space: pre" font-family="Open Sans" font-size="12" font-weight="600" letter-spacing="0em"><tspan x="15" y="277.655">Is your device </tspan><tspan x="15" y="293.655">IP Enabled?</tspan></text>
<text transform="translate(124 267.5)" fill="#28232D" xml:space="preserve" style="white-space: pre" font-family="Open Sans" font-size="12" font-weight="600" letter-spacing="0em"><tspan x="0.0683594" y="12.6553">Yes</tspan></text>
<text fill="#28232D" xml:space="preserve" style="white-space: pre" font-family="Open Sans" font-size="12" font-weight="600" letter-spacing="0em"><tspan x="173" y="277.655">Custom </tspan><tspan x="173" y="293.655">Firmware?</tspan></text>
<text transform="translate(261 181)" fill="#28232D" xml:space="preserve" style="white-space: pre" font-family="Open Sans" font-size="12" font-weight="600" letter-spacing="0em"><tspan x="2.06836" y="12.6553">Yes</tspan></text>
<text fill="#28232D" xml:space="preserve" style="white-space: pre" font-family="Open Sans" font-size="12" font-weight="600" letter-spacing="0em"><tspan x="312" y="96.6553">Your device is an </tspan><tspan x="312" y="112.655">IoT gateway?</tspan></text>
<text transform="translate(449 51)" fill="#28232D" xml:space="preserve" style="white-space: pre" font-family="Open Sans" font-size="12" font-weight="600" letter-spacing="0em"><tspan x="2.06836" y="12.6553">Yes</tspan></text>
<text fill="white" xml:space="preserve" style="white-space: pre" font-family="Open Sans" font-size="12" font-weight="600" letter-spacing="0em"><tspan x="854" y="39.6553">MQTT Gateway API</tspan></text>
<text fill="white" xml:space="preserve" style="white-space: pre" font-family="Open Sans" font-size="12" letter-spacing="0em"><tspan x="854" y="23.6553">ThingsBoard CE &#10;</tspan></text>
<text transform="translate(449 133)" fill="#28232D" xml:space="preserve" style="white-space: pre" font-family="Open Sans" font-size="12" font-weight="600" letter-spacing="0em"><tspan x="3.63281" y="12.6553">No</tspan></text>
<text fill="#28232D" xml:space="preserve" style="white-space: pre" font-family="Open Sans" font-size="12" font-weight="600" letter-spacing="0em"><tspan x="500" y="181.655">Choose your protocol</tspan></text>
<text transform="translate(688 102)" fill="#28232D" xml:space="preserve" style="white-space: pre" font-family="Open Sans" font-size="12" font-weight="600" letter-spacing="0em"><tspan x="0.443359" y="12.6553">MQTT</tspan></text>
<text fill="white" xml:space="preserve" style="white-space: pre" font-family="Open Sans" font-size="12" font-weight="600" letter-spacing="0em"><tspan x="854" y="99.6553">MQTT API</tspan></text>
<text fill="white" xml:space="preserve" style="white-space: pre" font-family="Open Sans" font-size="12" letter-spacing="0em"><tspan x="854" y="83.6553">ThingsBoard CE&#10;</tspan></text>
<text transform="translate(738 138)" fill="#28232D" xml:space="preserve" style="white-space: pre" font-family="Open Sans" font-size="12" font-weight="600" letter-spacing="0em"><tspan x="0.505858" y="12.6553">HTTP</tspan></text>
<text fill="white" xml:space="preserve" style="white-space: pre" font-family="Open Sans" font-size="12" font-weight="600" letter-spacing="0em"><tspan x="854" y="159.655">HTTP API</tspan></text>
<text fill="white" xml:space="preserve" style="white-space: pre" font-family="Open Sans" font-size="12" letter-spacing="0em"><tspan x="854" y="143.655">ThingsBoard CE&#10;</tspan></text>
<text transform="translate(738 198)" fill="#28232D" xml:space="preserve" style="white-space: pre" font-family="Open Sans" font-size="12" font-weight="600" letter-spacing="0em"><tspan x="0.371094" y="12.6553">CoAP</tspan></text>
<text fill="white" xml:space="preserve" style="white-space: pre" font-family="Open Sans" font-size="12" font-weight="600" letter-spacing="0em"><tspan x="854" y="219.655">CoAP API</tspan></text>
<text fill="white" xml:space="preserve" style="white-space: pre" font-family="Open Sans" font-size="12" letter-spacing="0em"><tspan x="854" y="203.655">ThingsBoard CE&#10;</tspan></text>
<text transform="translate(688 226)" fill="#28232D" xml:space="preserve" style="white-space: pre" font-family="Open Sans" font-size="12" font-weight="600" letter-spacing="0em"><tspan x="0.560547" y="12.6553">Other</tspan></text>
<text fill="white" xml:space="preserve" style="white-space: pre" font-family="Open Sans" font-size="12" font-weight="600" letter-spacing="0em"><tspan x="854" y="263.655">Contact Us</tspan></text>
<text transform="translate(261 366)" fill="#28232D" xml:space="preserve" style="white-space: pre" font-family="Open Sans" font-size="12" font-weight="600" letter-spacing="0em"><tspan x="3.63281" y="12.6553">No</tspan></text>
<text fill="#28232D" xml:space="preserve" style="white-space: pre" font-family="Open Sans" font-size="12" font-weight="600" letter-spacing="0em"><tspan x="312" y="458.655">Already Connected </tspan><tspan x="312" y="474.655">to Backend?</tspan></text>
<text transform="translate(449 393)" fill="#28232D" xml:space="preserve" style="white-space: pre" font-family="Open Sans" font-size="12" font-weight="600" letter-spacing="0em"><tspan x="2.06836" y="12.6553">Yes</tspan></text>
<text fill="#28232D" xml:space="preserve" style="white-space: pre" font-family="Open Sans" font-size="12" letter-spacing="0em"><tspan x="531" y="237.655">AWS IoT</tspan></text>
<text fill="#28232D" xml:space="preserve" style="white-space: pre" font-family="Open Sans" font-size="12" letter-spacing="0em"><tspan x="531" y="281.655">Azure Event Hub</tspan></text>
<text fill="#28232D" xml:space="preserve" style="white-space: pre" font-family="Open Sans" font-size="12" letter-spacing="0em"><tspan x="531" y="325.655">Azure IoT Hub</tspan></text>
<text fill="#28232D" xml:space="preserve" style="white-space: pre" font-family="Open Sans" font-size="12" letter-spacing="0em"><tspan x="531" y="369.655">IBM Watson IoT</tspan></text>
<text fill="#28232D" xml:space="preserve" style="white-space: pre" font-family="Open Sans" font-size="12" font-weight="600" letter-spacing="0em"><tspan x="510" y="413.655">MQTT Broker</tspan></text>
<text fill="#28232D" xml:space="preserve" style="white-space: pre" font-family="Open Sans" font-size="12" letter-spacing="0em"><tspan x="531" y="457.655">OPC-UA</tspan></text>
<text transform="translate(688 276)" fill="#28232D" xml:space="preserve" style="white-space: pre" font-family="Open Sans" font-size="12" font-weight="600" letter-spacing="0em"><tspan x="0.560547" y="12.6553">Other</tspan></text>
<text fill="#28232D" xml:space="preserve" style="white-space: pre" font-family="Open Sans" font-size="12" letter-spacing="0em"><tspan x="854" y="405.655">Broker + &#10;</tspan><tspan x="854" y="421.655">MQTT Integration</tspan></text>
<text transform="translate(449 516)" fill="#28232D" xml:space="preserve" style="white-space: pre" font-family="Open Sans" font-size="12" font-weight="600" letter-spacing="0em"><tspan x="3.63281" y="12.6553">No</tspan></text>
<text fill="#28232D" xml:space="preserve" style="white-space: pre" font-family="Open Sans" font-size="12" font-weight="600" letter-spacing="0em"><tspan x="510" y="518.655">LwM2M Device</tspan></text>
<text fill="#28232D" xml:space="preserve" style="white-space: pre" font-family="Open Sans" font-size="12" font-weight="600" letter-spacing="0em"><tspan x="510" y="562.655">SNMP Device</tspan></text>
<text fill="#28232D" xml:space="preserve" style="white-space: pre" font-family="Open Sans" font-size="12" font-weight="600" letter-spacing="0em"><tspan x="510" y="606.655">CoAP Device</tspan></text>
<text fill="#28232D" xml:space="preserve" style="white-space: pre" font-family="Open Sans" font-size="12" font-weight="600" letter-spacing="0em"><tspan x="510" y="650.655">Support Webhooks</tspan></text>
<text fill="white" xml:space="preserve" style="white-space: pre" font-family="Open Sans" font-size="12" font-weight="600" letter-spacing="0em"><tspan x="854" y="502.655">LwM2M API</tspan></text>
<text fill="white" xml:space="preserve" style="white-space: pre" font-family="Open Sans" font-size="12" letter-spacing="0em"><tspan x="854" y="486.655">ThingsBoard CE&#10;</tspan></text>
<text fill="white" xml:space="preserve" style="white-space: pre" font-family="Open Sans" font-size="12" font-weight="600" letter-spacing="0em"><tspan x="854" y="562.655">SNMP API</tspan></text>
<text fill="white" xml:space="preserve" style="white-space: pre" font-family="Open Sans" font-size="12" letter-spacing="0em"><tspan x="854" y="546.655">ThingsBoard CE&#10;</tspan></text>
<text fill="#28232D" xml:space="preserve" style="white-space: pre" font-family="Open Sans" font-size="12" letter-spacing="0em"><tspan x="854" y="606.655">CoAP Integration</tspan></text>
<text fill="#28232D" xml:space="preserve" style="white-space: pre" font-family="Open Sans" font-size="12" letter-spacing="0em"><tspan x="854" y="650.655">HTTP Integration</tspan></text>
<text transform="translate(688 661)" fill="#858288" xml:space="preserve" style="white-space: pre" font-family="Open Sans" font-size="12" font-weight="600" letter-spacing="0em"><tspan x="0.560547" y="12.6553">Other</tspan></text>
<text fill="white" xml:space="preserve" style="white-space: pre" font-family="Open Sans" font-size="12" font-weight="600" letter-spacing="0em"><tspan x="854" y="694.655">Contact Us</tspan></text>
<text transform="translate(122 524)" fill="#28232D" xml:space="preserve" style="white-space: pre" font-family="Open Sans" font-size="12" font-weight="600" letter-spacing="0em"><tspan x="3.63281" y="12.6553">No</tspan></text>
<text fill="#28232D" xml:space="preserve" style="white-space: pre" font-family="Open Sans" font-size="12" font-weight="600" letter-spacing="0em"><tspan x="173" y="768.655">Your device supports LoRaWAN, </tspan><tspan x="173" y="784.655">SigFox, NB IoT or SMS?</tspan></text>
<text transform="translate(453 747)" fill="#28232D" xml:space="preserve" style="white-space: pre" font-family="Open Sans" font-size="12" font-weight="600" letter-spacing="0em"><tspan x="1.63281" y="12.6553">No</tspan></text>
<text fill="#28232D" xml:space="preserve" style="white-space: pre" font-family="Open Sans" font-size="12" font-weight="600" letter-spacing="0em"><tspan x="500" y="738.655">Your device supports OPC-UA, Modbus, BLE, </tspan><tspan x="500" y="754.655">Request, CAN, BACnet, ODBC, REST, SNMP?</tspan></text>
<text transform="translate(783 706)" fill="#28232D" xml:space="preserve" style="white-space: pre" font-family="Open Sans" font-size="12" font-weight="600" letter-spacing="0em"><tspan x="3.63281" y="12.6553">No</tspan></text>
<text transform="translate(784 736.5)" fill="#28232D" xml:space="preserve" style="white-space: pre" font-family="Open Sans" font-size="12" font-weight="600" letter-spacing="0em"><tspan x="0.0683594" y="12.6553">Yes</tspan></text>
<text fill="white" xml:space="preserve" style="white-space: pre" font-family="Open Sans" font-size="12" font-weight="600" letter-spacing="0em"><tspan x="854" y="754.655">IoT Gateway</tspan></text>
<text fill="white" xml:space="preserve" style="white-space: pre" font-family="Open Sans" font-size="12" letter-spacing="0em"><tspan x="854" y="738.655">ThingsBoard&#10;</tspan></text>
<text transform="translate(451 781)" fill="#28232D" xml:space="preserve" style="white-space: pre" font-family="Open Sans" font-size="12" font-weight="600" letter-spacing="0em"><tspan x="2.06836" y="12.6553">Yes</tspan></text>
<text fill="#28232D" xml:space="preserve" style="white-space: pre" font-family="Open Sans" font-size="12" letter-spacing="0em"><tspan x="854" y="798.655">Platform </tspan><tspan x="854" y="814.655">Integrations</tspan></text>








<rect id="tooltip1" x="1.5" y="255.5" width="107" height="52" rx="5.5" fill="#ffffff00"/>
<g opacity="0">
<animate attributeName="opacity" from="0" to="1" dur="0.1s" begin="tooltip1.mouseover" end="tooltip1.mouseout" fill="freeze"/>
<animate attributeName="opacity" from="1" to="0" dur="0.1s" begin="tooltip1.mouseout" end="tooltip1.mouseout" fill="freeze"/>
<rect x="1.5" y="255.5" width="107" height="52" rx="5.5" stroke="#305680" stroke-width="3"/>
<path d="M60 245.5H59.7929L59.6464 245.646L55 250.293L50.3536 245.646L50.2071 245.5H50H6C2.96243 245.5 0.5 243.038 0.5 240V199C0.5 195.962 2.96243 193.5 6 193.5H242C245.038 193.5 247.5 195.962 247.5 199V240C247.5 243.038 245.038 245.5 242 245.5H60Z" fill="white" stroke="#28232D"/>
<text fill="#28232D" xml:space="preserve" style="white-space: pre" font-family="Open Sans" font-size="12" font-weight="600" letter-spacing="0em"><tspan x="16.4043" y="215.655">Is your device connected through the </tspan><tspan x="20.6289" y="231.655">common TCP/UDP based protocols?</tspan></text>
</g>

<rect id="tooltip2" x="159.5" y="255.5" width="88" height="52" rx="5.5" fill="#ffffff00"/>
<g opacity="0">
<animate attributeName="opacity" from="0" to="1" dur="0.1s" begin="tooltip2.mouseover" end="tooltip2.mouseout" fill="freeze"/>
<animate attributeName="opacity" from="1" to="0" dur="0.1s" begin="tooltip2.mouseout" end="tooltip2.mouseout" fill="freeze"/>
<path d="M159.5 261C159.5 257.962 161.962 255.5 165 255.5H242C245.038 255.5 247.5 257.962 247.5 261V302C247.5 305.038 245.038 307.5 242 307.5H165C161.962 307.5 159.5 305.038 159.5 302V261Z" stroke="#305680" stroke-width="3"/>
<path d="M209 245.5H208.793L208.646 245.646L204 250.293L199.354 245.646L199.207 245.5H199H24C20.9624 245.5 18.5 243.038 18.5 240V199C18.5 195.962 20.9624 193.5 24 193.5H384C387.038 193.5 389.5 195.962 389.5 199V240C389.5 243.038 387.038 245.5 384 245.5H209Z" fill="white" stroke="#28232D"/>
<text fill="#28232D" xml:space="preserve" style="white-space: pre" font-family="Open Sans" font-size="12" font-weight="600" letter-spacing="0em"><tspan x="32.291" y="215.655">Are you able to change and upload custom device firmware </tspan><tspan x="36.3691" y="231.655">to use ThingsBoard data format and supported protocols?</tspan></text>
</g>

<rect id="tooltip3" x="298.5" y="74.5" width="137" height="52" rx="5.5" fill="#ffffff00"/>
<g opacity="0">
<animate attributeName="opacity" from="0" to="1" dur="0.1s" begin="tooltip3.mouseover" end="tooltip3.mouseout" fill="freeze"/>
<animate attributeName="opacity" from="1" to="0" dur="0.1s" begin="tooltip3.mouseout" end="tooltip3.mouseout" fill="freeze"/>
<path d="M298.5 80C298.5 76.9624 300.962 74.5 304 74.5H430C433.038 74.5 435.5 76.9624 435.5 80V121C435.5 124.038 433.038 126.5 430 126.5H304C300.962 126.5 298.5 124.038 298.5 121V80Z" stroke="#305680" stroke-width="3"/>
<path d="M372 64.5H371.793L371.646 64.6464L367 69.2929L362.354 64.6464L362.207 64.5H362H208C204.962 64.5 202.5 62.0376 202.5 59V18C202.5 14.9624 204.962 12.5 208 12.5H526C529.038 12.5 531.5 14.9624 531.5 18V59C531.5 62.0376 529.038 64.5 526 64.5H372Z" fill="white" stroke="#28232D"/>
<text fill="#28232D" xml:space="preserve" style="white-space: pre" font-family="Open Sans" font-size="12" font-weight="600" letter-spacing="0em"><tspan x="216.033" y="34.6553">Your device has multiple other devices connected to </tspan><tspan x="220.439" y="50.6553">itself using various protocols like BTLE, ZigBee, etc.</tspan></text>
</g>

<g opacity="0">
<animate attributeName="opacity" from="0" to="1" dur="0.1s" begin="tooltip5.mouseover" end="tooltip5.mouseout" fill="freeze"/>
<animate attributeName="opacity" from="1" to="0" dur="0.1s" begin="tooltip5.mouseout" end="tooltip5.mouseout" fill="freeze"/>
<path d="M819.5 389C819.5 385.962 821.962 383.5 825 383.5H972C975.038 383.5 977.5 385.962 977.5 389V430C977.5 433.038 975.038 435.5 972 435.5H825C821.962 435.5 819.5 433.038 819.5 430V389Z" stroke="#305680" stroke-width="3"/>
<path d="M904 373.5H903.793L903.646 373.646L899 378.293L894.354 373.646L894.207 373.5H894H580C576.962 373.5 574.5 371.038 574.5 368V311C574.5 307.962 576.962 305.5 580 305.5H973C976.038 305.5 978.5 307.962 978.5 311V368C978.5 371.038 976.038 373.5 973 373.5H904Z" fill="white" stroke="#28232D"/>
<text fill="#28232D" xml:space="preserve" style="white-space: pre" font-family="Open Sans" font-size="12" font-weight="600" letter-spacing="0em"><tspan x="612.215" y="327.655">Use external MQTT broker. Configure ThingsBoard MQTT </tspan><tspan x="588.133" y="343.655">Integration to subscribe to the data feed from the external MQTT </tspan><tspan x="612.455" y="359.655">broker as well as push downlink messages to the broker.</tspan></text>
</g>


<a xlink:href="/docs/user-guide/integrations/opc-ua/" target="_parent" xlink:title="OPC-UA">
<rect class="magic" x="496.5" y="435.5" width="142" fill="#ffffff00" height="36" rx="5.5"/>
</a>
<a xlink:href="/docs/user-guide/integrations/aws-iot/" target="_parent" xlink:title="AWS IoT Integration">
<rect class="magic" x="496.5" y="215.5" width="142" fill="#ffffff00" height="36" rx="5.5"/>
</a>
<a xlink:href="/docs/user-guide/integrations/azure-event-hub/" target="_parent" xlink:title="Azure Event Hub Integration">
<rect class="magic" x="496.5" y="259.5" width="142" fill="#ffffff00" height="36" rx="5.5"/>
</a>
<a xlink:href="/docs/user-guide/integrations/azure-iot-hub/" target="_parent" xlink:title="Azure IoT Hub Integration">
<rect class="magic" x="496.5" y="303.5" width="142" fill="#ffffff00" height="36" rx="5.5"/>
</a>
<a xlink:href="/docs/user-guide/integrations/ibm-watson-iot/" target="_parent" xlink:title="IBM Watson IoT Integration">
<rect class="magic" x="496.5" y="347.5" width="142" fill="#ffffff00" height="36" rx="5.5"/>
</a>

<a xlink:href="/docs/user-guide/integrations/http/" target="_parent" xlink:title="HTTP Integration">
<rect class="magic" x="819.5" y="628.5" width="158" fill="#ffffff00" height="36" rx="5.5"/>
</a>
<a xlink:href="/docs/user-guide/integrations/coap/" target="_parent" xlink:title="CoAP Integration">
<rect class="magic" x="819.5" y="584.5" width="158" fill="#ffffff00" height="36" rx="5.5"/>
</a>

<a xlink:href="/docs/user-guide/integrations/mqtt/" target="_parent" xlink:title="Broker + MQTT Integration">
<rect id="tooltip5" class="magic" x="819.5" y="383.5" width="158" fill="#ffffff00" height="52" rx="5.5"/>
</a>
<a xlink:href="/docs/user-guide/integrations/" target="_parent" xlink:title="Platform Integrations">
<rect class="magic" x="819.5" y="776.5" width="158" fill="#ffffff00" height="52" rx="5.5"/>
</a>

<a xlink:href="/docs/reference/gateway-mqtt-api/" target="_parent" xlink:title="MQTT Gateway API Reference">
<g class="black_magic" opacity="0">
<rect x="819.5" y="1.5" width="158" height="52" rx="5.5" fill="white" stroke="#305680" stroke-width="3"/>
<path fill-rule="evenodd" clip-rule="evenodd" d="M831.611 24.2594C831.508 24.3671 831.448 24.5159 831.455 24.6792C831.462 24.8206 831.518 24.9572 831.617 25.0608C832.088 25.5349 833.016 26.4593 833.016 26.4593L833.836 25.6412C833.836 25.6412 832.938 24.7449 832.44 24.2463C832.329 24.1334 832.18 24.0863 832.024 24.0856C831.861 24.0848 831.715 24.1516 831.611 24.2593L831.611 24.2594ZM833.836 25.6412L831.301 28.175C831.026 28.4499 831.026 28.8956 831.301 29.1706L832.557 30.4262L834.754 32.622L836.863 34.7297C837.138 35.0046 837.584 35.0046 837.859 34.7297L839.574 33.0153L842.198 30.3934L844.733 27.8596C845.008 27.5847 845.008 27.1389 844.733 26.864L843.443 25.5771L841.246 23.3814L839.17 21.3065C838.895 21.0316 838.449 21.0316 838.174 21.3065L836.459 23.0209L833.836 25.6428L833.836 25.6412ZM836.459 23.0193C836.459 23.0193 835.561 22.123 835.063 21.6245C834.952 21.5116 834.804 21.4645 834.647 21.4638C834.321 21.4622 834.063 21.7308 834.079 22.0573C834.085 22.1987 834.142 22.3353 834.24 22.4389C834.711 22.913 835.639 23.8374 835.639 23.8374L836.459 23.0193L836.459 23.0193ZM841.247 23.3799C841.247 23.3799 842.143 22.4827 842.642 21.9846C842.755 21.8737 842.802 21.7253 842.803 21.5688C842.805 21.2427 842.536 20.9856 842.209 21.0006C842.068 21.0073 841.931 21.0638 841.827 21.1623C841.353 21.6329 840.428 22.5608 840.428 22.5608L841.247 23.3798L841.247 23.3799ZM843.444 25.5757C843.444 25.5757 844.34 24.6785 844.839 24.1804C844.952 24.0695 844.999 23.9211 845 23.7647C845.002 23.4385 844.733 23.1814 844.406 23.1965C844.265 23.2031 844.128 23.2596 844.024 23.3581C843.55 23.8287 842.625 24.7566 842.625 24.7566L843.444 25.5757L843.444 25.5757ZM842.197 30.3933C842.197 30.3933 843.095 31.2896 843.594 31.788C843.705 31.9009 843.853 31.948 844.01 31.9487C844.336 31.9503 844.593 31.6817 844.578 31.3552L844.578 31.3553C844.571 31.2139 844.515 31.0772 844.416 30.9737C843.945 30.4996 843.017 29.5752 843.017 29.5752L842.197 30.3933L842.197 30.3933ZM839.574 33.0151C839.574 33.0151 840.472 33.9114 840.97 34.4099C841.081 34.5227 841.23 34.5699 841.386 34.5706C841.713 34.5722 841.97 34.3036 841.955 33.977H841.955C841.948 33.8356 841.891 33.699 841.793 33.5955C841.322 33.1214 840.394 32.1969 840.394 32.1969L839.574 33.015L839.574 33.0151ZM834.753 32.62C834.753 32.62 833.857 33.5171 833.358 34.0154C833.245 34.1263 833.198 34.2747 833.197 34.4311C833.196 34.7573 833.464 35.0144 833.791 34.9994H833.791C833.932 34.9927 834.069 34.9362 834.173 34.8377C834.647 34.3672 835.572 33.4392 835.572 33.4392L834.754 32.6241L834.753 32.62ZM832.556 30.4242C832.556 30.4242 831.66 31.3213 831.161 31.8196C831.048 31.9303 831.001 32.0786 831 32.2353C830.998 32.5612 831.267 32.8181 831.594 32.805H831.594C831.735 32.7983 831.872 32.7418 831.976 32.6433C832.45 32.1728 833.375 31.2448 833.375 31.2448L832.556 30.4244L832.556 30.4242ZM838.592 24.1618C838.708 24.0438 838.866 23.9778 839.028 23.9802C839.143 23.9818 839.253 24.0182 839.343 24.0846L840.485 24.9213C840.706 25.0802 840.772 25.3818 840.639 25.6344C840.507 25.887 840.216 26.0165 839.951 25.9403L840.374 27.5964C840.451 27.8973 840.266 28.2165 839.961 28.3098L836.872 29.2525L837.442 31.4573C837.523 31.7594 837.338 32.0827 837.03 32.1769C836.722 32.2711 836.409 32.1001 836.334 31.7962L835.622 29.0461C835.544 28.7449 835.729 28.4247 836.036 28.3312L839.126 27.3881L838.841 26.2735C838.649 26.4854 838.34 26.5369 838.108 26.3953C837.876 26.2538 837.789 25.9604 837.901 25.7005L838.463 24.3552C838.493 24.2835 838.537 24.2177 838.592 24.1618L838.592 24.1618Z" fill="#305680"/>
<text fill="#28232D" xml:space="preserve" style="white-space: pre" font-family="Open Sans" font-size="12" font-weight="600" letter-spacing="0em"><tspan x="854" y="39.6553">MQTT Gateway API</tspan></text>
<text fill="#28232D" xml:space="preserve" style="white-space: pre" font-family="Open Sans" font-size="12" letter-spacing="0em"><tspan x="854" y="23.6553">ThingsBoard CE &#10;</tspan></text>
</g>
</a>
<a xlink:href="/docs/reference/mqtt-api/" target="_parent" xlink:title="MQTT Device API Reference">
<g class="black_magic" opacity="0">
<rect x="819.5" y="61.5" width="158" height="52" rx="5.5" fill="white" stroke="#305680" stroke-width="3"/>
<path fill-rule="evenodd" clip-rule="evenodd" d="M831.611 84.2594C831.508 84.3671 831.448 84.5159 831.455 84.6792C831.462 84.8206 831.518 84.9572 831.617 85.0608C832.088 85.5349 833.016 86.4593 833.016 86.4593L833.836 85.6412C833.836 85.6412 832.938 84.7449 832.44 84.2463C832.329 84.1334 832.18 84.0863 832.024 84.0856C831.861 84.0848 831.715 84.1516 831.611 84.2593L831.611 84.2594ZM833.836 85.6412L831.301 88.175C831.026 88.4499 831.026 88.8956 831.301 89.1706L832.557 90.4262L834.754 92.622L836.863 94.7297C837.138 95.0046 837.584 95.0046 837.859 94.7297L839.574 93.0153L842.198 90.3934L844.733 87.8596C845.008 87.5847 845.008 87.1389 844.733 86.864L843.443 85.5771L841.246 83.3814L839.17 81.3065C838.895 81.0316 838.449 81.0316 838.174 81.3065L836.459 83.0209L833.836 85.6428L833.836 85.6412ZM836.459 83.0193C836.459 83.0193 835.561 82.123 835.063 81.6245C834.952 81.5116 834.804 81.4645 834.647 81.4638C834.321 81.4622 834.063 81.7308 834.079 82.0573C834.085 82.1987 834.142 82.3353 834.24 82.4389C834.711 82.913 835.639 83.8374 835.639 83.8374L836.459 83.0193L836.459 83.0193ZM841.247 83.3799C841.247 83.3799 842.143 82.4827 842.642 81.9846C842.755 81.8737 842.802 81.7253 842.803 81.5688C842.805 81.2427 842.536 80.9856 842.209 81.0006C842.068 81.0073 841.931 81.0638 841.827 81.1623C841.353 81.6329 840.428 82.5608 840.428 82.5608L841.247 83.3798L841.247 83.3799ZM843.444 85.5757C843.444 85.5757 844.34 84.6785 844.839 84.1804C844.952 84.0695 844.999 83.9211 845 83.7647C845.002 83.4385 844.733 83.1814 844.406 83.1965C844.265 83.2031 844.128 83.2596 844.024 83.3581C843.55 83.8287 842.625 84.7566 842.625 84.7566L843.444 85.5757L843.444 85.5757ZM842.197 90.3933C842.197 90.3933 843.095 91.2896 843.594 91.788C843.705 91.9009 843.853 91.948 844.01 91.9487C844.336 91.9503 844.593 91.6817 844.578 91.3552L844.578 91.3553C844.571 91.2139 844.515 91.0772 844.416 90.9737C843.945 90.4996 843.017 89.5752 843.017 89.5752L842.197 90.3933L842.197 90.3933ZM839.574 93.0151C839.574 93.0151 840.472 93.9114 840.97 94.4099C841.081 94.5227 841.23 94.5699 841.386 94.5706C841.713 94.5722 841.97 94.3036 841.955 93.977H841.955C841.948 93.8356 841.891 93.699 841.793 93.5955C841.322 93.1214 840.394 92.1969 840.394 92.1969L839.574 93.015L839.574 93.0151ZM834.753 92.62C834.753 92.62 833.857 93.5171 833.358 94.0154C833.245 94.1263 833.198 94.2747 833.197 94.4311C833.196 94.7573 833.464 95.0144 833.791 94.9994H833.791C833.932 94.9927 834.069 94.9362 834.173 94.8377C834.647 94.3672 835.572 93.4392 835.572 93.4392L834.754 92.6241L834.753 92.62ZM832.556 90.4242C832.556 90.4242 831.66 91.3213 831.161 91.8196C831.048 91.9303 831.001 92.0786 831 92.2353C830.998 92.5612 831.267 92.8181 831.594 92.805H831.594C831.735 92.7983 831.872 92.7418 831.976 92.6433C832.45 92.1728 833.375 91.2448 833.375 91.2448L832.556 90.4244L832.556 90.4242ZM838.592 84.1618C838.708 84.0438 838.866 83.9778 839.028 83.9802C839.143 83.9818 839.253 84.0182 839.343 84.0846L840.485 84.9213C840.706 85.0802 840.772 85.3818 840.639 85.6344C840.507 85.887 840.216 86.0165 839.951 85.9403L840.374 87.5964C840.451 87.8973 840.266 88.2165 839.961 88.3098L836.872 89.2525L837.442 91.4573C837.523 91.7594 837.338 92.0827 837.03 92.1769C836.722 92.2711 836.409 92.1001 836.334 91.7962L835.622 89.0461C835.544 88.7449 835.729 88.4247 836.036 88.3312L839.126 87.3881L838.841 86.2735C838.649 86.4854 838.34 86.5369 838.108 86.3953C837.876 86.2538 837.789 85.9604 837.901 85.7005L838.463 84.3552C838.493 84.2835 838.537 84.2177 838.592 84.1618L838.592 84.1618Z" fill="#305680"/>
<text fill="#28232D" xml:space="preserve" style="white-space: pre" font-family="Open Sans" font-size="12" font-weight="600" letter-spacing="0em"><tspan x="854" y="99.6553">MQTT API</tspan></text>
<text fill="#28232D" xml:space="preserve" style="white-space: pre" font-family="Open Sans" font-size="12" letter-spacing="0em"><tspan x="854" y="83.6553">ThingsBoard CE&#10;</tspan></text>
</g>
</a>
<a xlink:href="/docs/reference/http-api/" target="_parent" xlink:title="HTTP Device API Reference">
<g class="black_magic" opacity="0">
<rect x="819.5" y="121.5" width="158" height="52" rx="5.5" fill="white" stroke="#305680" stroke-width="3"/>
<path fill-rule="evenodd" clip-rule="evenodd" d="M831.611 144.259C831.508 144.367 831.448 144.516 831.455 144.679C831.462 144.821 831.518 144.957 831.617 145.061C832.088 145.535 833.016 146.459 833.016 146.459L833.836 145.641C833.836 145.641 832.938 144.745 832.44 144.246C832.329 144.133 832.18 144.086 832.024 144.086C831.861 144.085 831.715 144.152 831.611 144.259L831.611 144.259ZM833.836 145.641L831.301 148.175C831.026 148.45 831.026 148.896 831.301 149.171L832.557 150.426L834.754 152.622L836.863 154.73C837.138 155.005 837.584 155.005 837.859 154.73L839.574 153.015L842.198 150.393L844.733 147.86C845.008 147.585 845.008 147.139 844.733 146.864L843.443 145.577L841.246 143.381L839.17 141.306C838.895 141.032 838.449 141.032 838.174 141.306L836.459 143.021L833.836 145.643L833.836 145.641ZM836.459 143.019C836.459 143.019 835.561 142.123 835.063 141.624C834.952 141.512 834.804 141.464 834.647 141.464C834.321 141.462 834.063 141.731 834.079 142.057C834.085 142.199 834.142 142.335 834.24 142.439C834.711 142.913 835.639 143.837 835.639 143.837L836.459 143.019L836.459 143.019ZM841.247 143.38C841.247 143.38 842.143 142.483 842.642 141.985C842.755 141.874 842.802 141.725 842.803 141.569C842.805 141.243 842.536 140.986 842.209 141.001C842.068 141.007 841.931 141.064 841.827 141.162C841.353 141.633 840.428 142.561 840.428 142.561L841.247 143.38L841.247 143.38ZM843.444 145.576C843.444 145.576 844.34 144.679 844.839 144.18C844.952 144.07 844.999 143.921 845 143.765C845.002 143.438 844.733 143.181 844.406 143.196C844.265 143.203 844.128 143.26 844.024 143.358C843.55 143.829 842.625 144.757 842.625 144.757L843.444 145.576L843.444 145.576ZM842.197 150.393C842.197 150.393 843.095 151.29 843.594 151.788C843.705 151.901 843.853 151.948 844.01 151.949C844.336 151.95 844.593 151.682 844.578 151.355L844.578 151.355C844.571 151.214 844.515 151.077 844.416 150.974C843.945 150.5 843.017 149.575 843.017 149.575L842.197 150.393L842.197 150.393ZM839.574 153.015C839.574 153.015 840.472 153.911 840.97 154.41C841.081 154.523 841.23 154.57 841.386 154.571C841.713 154.572 841.97 154.304 841.955 153.977H841.955C841.948 153.836 841.891 153.699 841.793 153.595C841.322 153.121 840.394 152.197 840.394 152.197L839.574 153.015L839.574 153.015ZM834.753 152.62C834.753 152.62 833.857 153.517 833.358 154.015C833.245 154.126 833.198 154.275 833.197 154.431C833.196 154.757 833.464 155.014 833.791 154.999H833.791C833.932 154.993 834.069 154.936 834.173 154.838C834.647 154.367 835.572 153.439 835.572 153.439L834.754 152.624L834.753 152.62ZM832.556 150.424C832.556 150.424 831.66 151.321 831.161 151.82C831.048 151.93 831.001 152.079 831 152.235C830.998 152.561 831.267 152.818 831.594 152.805H831.594C831.735 152.798 831.872 152.742 831.976 152.643C832.45 152.173 833.375 151.245 833.375 151.245L832.556 150.424L832.556 150.424ZM838.592 144.162C838.708 144.044 838.866 143.978 839.028 143.98C839.143 143.982 839.253 144.018 839.343 144.085L840.485 144.921C840.706 145.08 840.772 145.382 840.639 145.634C840.507 145.887 840.216 146.016 839.951 145.94L840.374 147.596C840.451 147.897 840.266 148.217 839.961 148.31L836.872 149.252L837.442 151.457C837.523 151.759 837.338 152.083 837.03 152.177C836.722 152.271 836.409 152.1 836.334 151.796L835.622 149.046C835.544 148.745 835.729 148.425 836.036 148.331L839.126 147.388L838.841 146.273C838.649 146.485 838.34 146.537 838.108 146.395C837.876 146.254 837.789 145.96 837.901 145.701L838.463 144.355C838.493 144.283 838.537 144.218 838.592 144.162L838.592 144.162Z" fill="#305680"/>
<text fill="#28232D" xml:space="preserve" style="white-space: pre" font-family="Open Sans" font-size="12" font-weight="600" letter-spacing="0em"><tspan x="854" y="159.655">HTTP API</tspan></text>
<text fill="#28232D" xml:space="preserve" style="white-space: pre" font-family="Open Sans" font-size="12" letter-spacing="0em"><tspan x="854" y="143.655">ThingsBoard CE&#10;</tspan></text>
</g>
</a>
<a xlink:href="/docs/reference/coap-api/" target="_parent" xlink:title="CoAP Device API Reference">
<g class="black_magic" opacity="0">
<rect x="819.5" y="181.5" width="158" height="52" rx="5.5" fill="white" stroke="#305680" stroke-width="3"/>
<path fill-rule="evenodd" clip-rule="evenodd" d="M831.611 204.259C831.508 204.367 831.448 204.516 831.455 204.679C831.462 204.821 831.518 204.957 831.617 205.061C832.088 205.535 833.016 206.459 833.016 206.459L833.836 205.641C833.836 205.641 832.938 204.745 832.44 204.246C832.329 204.133 832.18 204.086 832.024 204.086C831.861 204.085 831.715 204.152 831.611 204.259L831.611 204.259ZM833.836 205.641L831.301 208.175C831.026 208.45 831.026 208.896 831.301 209.171L832.557 210.426L834.754 212.622L836.863 214.73C837.138 215.005 837.584 215.005 837.859 214.73L839.574 213.015L842.198 210.393L844.733 207.86C845.008 207.585 845.008 207.139 844.733 206.864L843.443 205.577L841.246 203.381L839.17 201.306C838.895 201.032 838.449 201.032 838.174 201.306L836.459 203.021L833.836 205.643L833.836 205.641ZM836.459 203.019C836.459 203.019 835.561 202.123 835.063 201.624C834.952 201.512 834.804 201.464 834.647 201.464C834.321 201.462 834.063 201.731 834.079 202.057C834.085 202.199 834.142 202.335 834.24 202.439C834.711 202.913 835.639 203.837 835.639 203.837L836.459 203.019L836.459 203.019ZM841.247 203.38C841.247 203.38 842.143 202.483 842.642 201.985C842.755 201.874 842.802 201.725 842.803 201.569C842.805 201.243 842.536 200.986 842.209 201.001C842.068 201.007 841.931 201.064 841.827 201.162C841.353 201.633 840.428 202.561 840.428 202.561L841.247 203.38L841.247 203.38ZM843.444 205.576C843.444 205.576 844.34 204.679 844.839 204.18C844.952 204.07 844.999 203.921 845 203.765C845.002 203.438 844.733 203.181 844.406 203.196C844.265 203.203 844.128 203.26 844.024 203.358C843.55 203.829 842.625 204.757 842.625 204.757L843.444 205.576L843.444 205.576ZM842.197 210.393C842.197 210.393 843.095 211.29 843.594 211.788C843.705 211.901 843.853 211.948 844.01 211.949C844.336 211.95 844.593 211.682 844.578 211.355L844.578 211.355C844.571 211.214 844.515 211.077 844.416 210.974C843.945 210.5 843.017 209.575 843.017 209.575L842.197 210.393L842.197 210.393ZM839.574 213.015C839.574 213.015 840.472 213.911 840.97 214.41C841.081 214.523 841.23 214.57 841.386 214.571C841.713 214.572 841.97 214.304 841.955 213.977H841.955C841.948 213.836 841.891 213.699 841.793 213.595C841.322 213.121 840.394 212.197 840.394 212.197L839.574 213.015L839.574 213.015ZM834.753 212.62C834.753 212.62 833.857 213.517 833.358 214.015C833.245 214.126 833.198 214.275 833.197 214.431C833.196 214.757 833.464 215.014 833.791 214.999H833.791C833.932 214.993 834.069 214.936 834.173 214.838C834.647 214.367 835.572 213.439 835.572 213.439L834.754 212.624L834.753 212.62ZM832.556 210.424C832.556 210.424 831.66 211.321 831.161 211.82C831.048 211.93 831.001 212.079 831 212.235C830.998 212.561 831.267 212.818 831.594 212.805H831.594C831.735 212.798 831.872 212.742 831.976 212.643C832.45 212.173 833.375 211.245 833.375 211.245L832.556 210.424L832.556 210.424ZM838.592 204.162C838.708 204.044 838.866 203.978 839.028 203.98C839.143 203.982 839.253 204.018 839.343 204.085L840.485 204.921C840.706 205.08 840.772 205.382 840.639 205.634C840.507 205.887 840.216 206.016 839.951 205.94L840.374 207.596C840.451 207.897 840.266 208.217 839.961 208.31L836.872 209.252L837.442 211.457C837.523 211.759 837.338 212.083 837.03 212.177C836.722 212.271 836.409 212.1 836.334 211.796L835.622 209.046C835.544 208.745 835.729 208.425 836.036 208.331L839.126 207.388L838.841 206.273C838.649 206.485 838.34 206.537 838.108 206.395C837.876 206.254 837.789 205.96 837.901 205.701L838.463 204.355C838.493 204.283 838.537 204.218 838.592 204.162L838.592 204.162Z" fill="#305680"/>
<text fill="#28232D" xml:space="preserve" style="white-space: pre" font-family="Open Sans" font-size="12" font-weight="600" letter-spacing="0em"><tspan x="854" y="219.655">CoAP API</tspan></text>
<text fill="#28232D" xml:space="preserve" style="white-space: pre" font-family="Open Sans" font-size="12" letter-spacing="0em"><tspan x="854" y="203.655">ThingsBoard CE&#10;</tspan></text>
</g>
</a>
<a xlink:href="/docs/reference/snmp-api/" target="_parent" xlink:title="SNMP Device API Reference">
<g class="black_magic" opacity="0">
<rect x="819.5" y="524.5" width="158" height="52" rx="5.5" fill="white" stroke="#305680" stroke-width="3"/>
<path fill-rule="evenodd" clip-rule="evenodd" d="M831.611 547.259C831.508 547.367 831.448 547.516 831.455 547.679C831.462 547.821 831.518 547.957 831.617 548.061C832.088 548.535 833.016 549.459 833.016 549.459L833.836 548.641C833.836 548.641 832.938 547.745 832.44 547.246C832.329 547.133 832.18 547.086 832.024 547.086C831.861 547.085 831.715 547.152 831.611 547.259L831.611 547.259ZM833.836 548.641L831.301 551.175C831.026 551.45 831.026 551.896 831.301 552.171L832.557 553.426L834.754 555.622L836.863 557.73C837.138 558.005 837.584 558.005 837.859 557.73L839.574 556.015L842.198 553.393L844.733 550.86C845.008 550.585 845.008 550.139 844.733 549.864L843.443 548.577L841.246 546.381L839.17 544.306C838.895 544.032 838.449 544.032 838.174 544.306L836.459 546.021L833.836 548.643L833.836 548.641ZM836.459 546.019C836.459 546.019 835.561 545.123 835.063 544.624C834.952 544.512 834.804 544.464 834.647 544.464C834.321 544.462 834.063 544.731 834.079 545.057C834.085 545.199 834.142 545.335 834.24 545.439C834.711 545.913 835.639 546.837 835.639 546.837L836.459 546.019L836.459 546.019ZM841.247 546.38C841.247 546.38 842.143 545.483 842.642 544.985C842.755 544.874 842.802 544.725 842.803 544.569C842.805 544.243 842.536 543.986 842.209 544.001C842.068 544.007 841.931 544.064 841.827 544.162C841.353 544.633 840.428 545.561 840.428 545.561L841.247 546.38L841.247 546.38ZM843.444 548.576C843.444 548.576 844.34 547.679 844.839 547.18C844.952 547.07 844.999 546.921 845 546.765C845.002 546.438 844.733 546.181 844.406 546.196C844.265 546.203 844.128 546.26 844.024 546.358C843.55 546.829 842.625 547.757 842.625 547.757L843.444 548.576L843.444 548.576ZM842.197 553.393C842.197 553.393 843.095 554.29 843.594 554.788C843.705 554.901 843.853 554.948 844.01 554.949C844.336 554.95 844.593 554.682 844.578 554.355L844.578 554.355C844.571 554.214 844.515 554.077 844.416 553.974C843.945 553.5 843.017 552.575 843.017 552.575L842.197 553.393L842.197 553.393ZM839.574 556.015C839.574 556.015 840.472 556.911 840.97 557.41C841.081 557.523 841.23 557.57 841.386 557.571C841.713 557.572 841.97 557.304 841.955 556.977H841.955C841.948 556.836 841.891 556.699 841.793 556.595C841.322 556.121 840.394 555.197 840.394 555.197L839.574 556.015L839.574 556.015ZM834.753 555.62C834.753 555.62 833.857 556.517 833.358 557.015C833.245 557.126 833.198 557.275 833.197 557.431C833.196 557.757 833.464 558.014 833.791 557.999H833.791C833.932 557.993 834.069 557.936 834.173 557.838C834.647 557.367 835.572 556.439 835.572 556.439L834.754 555.624L834.753 555.62ZM832.556 553.424C832.556 553.424 831.66 554.321 831.161 554.82C831.048 554.93 831.001 555.079 831 555.235C830.998 555.561 831.267 555.818 831.594 555.805H831.594C831.735 555.798 831.872 555.742 831.976 555.643C832.45 555.173 833.375 554.245 833.375 554.245L832.556 553.424L832.556 553.424ZM838.592 547.162C838.708 547.044 838.866 546.978 839.028 546.98C839.143 546.982 839.253 547.018 839.343 547.085L840.485 547.921C840.706 548.08 840.772 548.382 840.639 548.634C840.507 548.887 840.216 549.016 839.951 548.94L840.374 550.596C840.451 550.897 840.266 551.217 839.961 551.31L836.872 552.252L837.442 554.457C837.523 554.759 837.338 555.083 837.03 555.177C836.722 555.271 836.409 555.1 836.334 554.796L835.622 552.046C835.544 551.745 835.729 551.425 836.036 551.331L839.126 550.388L838.841 549.273C838.649 549.485 838.34 549.537 838.108 549.395C837.876 549.254 837.789 548.96 837.901 548.701L838.463 547.355C838.493 547.283 838.537 547.218 838.592 547.162L838.592 547.162Z" fill="#305680"/>
<text fill="#28232D" xml:space="preserve" style="white-space: pre" font-family="Open Sans" font-size="12" font-weight="600" letter-spacing="0em"><tspan x="854" y="562.655">SNMP API</tspan></text>
<text fill="#28232D" xml:space="preserve" style="white-space: pre" font-family="Open Sans" font-size="12" letter-spacing="0em"><tspan x="854" y="546.655">ThingsBoard CE&#10;</tspan></text>
</g>
</a>
<a xlink:href="/docs/reference/lwm2m-api/" target="_parent" xlink:title="LwM2M Device API Reference">
<g class="black_magic" opacity="0">
<rect x="819.5" y="464.5" width="158" height="52" rx="5.5" fill="white" stroke="#305680" stroke-width="3"/>
<path fill-rule="evenodd" clip-rule="evenodd" d="M831.611 487.259C831.508 487.367 831.448 487.516 831.455 487.679C831.462 487.821 831.518 487.957 831.617 488.061C832.088 488.535 833.016 489.459 833.016 489.459L833.836 488.641C833.836 488.641 832.938 487.745 832.44 487.246C832.329 487.133 832.18 487.086 832.024 487.086C831.861 487.085 831.715 487.152 831.611 487.259L831.611 487.259ZM833.836 488.641L831.301 491.175C831.026 491.45 831.026 491.896 831.301 492.171L832.557 493.426L834.754 495.622L836.863 497.73C837.138 498.005 837.584 498.005 837.859 497.73L839.574 496.015L842.198 493.393L844.733 490.86C845.008 490.585 845.008 490.139 844.733 489.864L843.443 488.577L841.246 486.381L839.17 484.306C838.895 484.032 838.449 484.032 838.174 484.306L836.459 486.021L833.836 488.643L833.836 488.641ZM836.459 486.019C836.459 486.019 835.561 485.123 835.063 484.624C834.952 484.512 834.804 484.464 834.647 484.464C834.321 484.462 834.063 484.731 834.079 485.057C834.085 485.199 834.142 485.335 834.24 485.439C834.711 485.913 835.639 486.837 835.639 486.837L836.459 486.019L836.459 486.019ZM841.247 486.38C841.247 486.38 842.143 485.483 842.642 484.985C842.755 484.874 842.802 484.725 842.803 484.569C842.805 484.243 842.536 483.986 842.209 484.001C842.068 484.007 841.931 484.064 841.827 484.162C841.353 484.633 840.428 485.561 840.428 485.561L841.247 486.38L841.247 486.38ZM843.444 488.576C843.444 488.576 844.34 487.679 844.839 487.18C844.952 487.07 844.999 486.921 845 486.765C845.002 486.438 844.733 486.181 844.406 486.196C844.265 486.203 844.128 486.26 844.024 486.358C843.55 486.829 842.625 487.757 842.625 487.757L843.444 488.576L843.444 488.576ZM842.197 493.393C842.197 493.393 843.095 494.29 843.594 494.788C843.705 494.901 843.853 494.948 844.01 494.949C844.336 494.95 844.593 494.682 844.578 494.355L844.578 494.355C844.571 494.214 844.515 494.077 844.416 493.974C843.945 493.5 843.017 492.575 843.017 492.575L842.197 493.393L842.197 493.393ZM839.574 496.015C839.574 496.015 840.472 496.911 840.97 497.41C841.081 497.523 841.23 497.57 841.386 497.571C841.713 497.572 841.97 497.304 841.955 496.977H841.955C841.948 496.836 841.891 496.699 841.793 496.595C841.322 496.121 840.394 495.197 840.394 495.197L839.574 496.015L839.574 496.015ZM834.753 495.62C834.753 495.62 833.857 496.517 833.358 497.015C833.245 497.126 833.198 497.275 833.197 497.431C833.196 497.757 833.464 498.014 833.791 497.999H833.791C833.932 497.993 834.069 497.936 834.173 497.838C834.647 497.367 835.572 496.439 835.572 496.439L834.754 495.624L834.753 495.62ZM832.556 493.424C832.556 493.424 831.66 494.321 831.161 494.82C831.048 494.93 831.001 495.079 831 495.235C830.998 495.561 831.267 495.818 831.594 495.805H831.594C831.735 495.798 831.872 495.742 831.976 495.643C832.45 495.173 833.375 494.245 833.375 494.245L832.556 493.424L832.556 493.424ZM838.592 487.162C838.708 487.044 838.866 486.978 839.028 486.98C839.143 486.982 839.253 487.018 839.343 487.085L840.485 487.921C840.706 488.08 840.772 488.382 840.639 488.634C840.507 488.887 840.216 489.016 839.951 488.94L840.374 490.596C840.451 490.897 840.266 491.217 839.961 491.31L836.872 492.252L837.442 494.457C837.523 494.759 837.338 495.083 837.03 495.177C836.722 495.271 836.409 495.1 836.334 494.796L835.622 492.046C835.544 491.745 835.729 491.425 836.036 491.331L839.126 490.388L838.841 489.273C838.649 489.485 838.34 489.537 838.108 489.395C837.876 489.254 837.789 488.96 837.901 488.701L838.463 487.355C838.493 487.283 838.537 487.218 838.592 487.162L838.592 487.162Z" fill="#305680"/>
<text fill="#28232D" xml:space="preserve" style="white-space: pre" font-family="Open Sans" font-size="12" font-weight="600" letter-spacing="0em"><tspan x="854" y="502.655">LwM2M API</tspan></text>
<text fill="#28232D" xml:space="preserve" style="white-space: pre" font-family="Open Sans" font-size="12" letter-spacing="0em"><tspan x="854" y="486.655">ThingsBoard CE&#10;</tspan></text>
</g>
</a>
<a xlink:href="/docs/contact-us/" target="_parent" xlink:title="Contact Us">
<g class="black_magic" opacity="0">
<rect x="819.5" y="241.5" width="158" height="36" rx="5.5" fill="white" stroke="#305680" stroke-width="3"/>
<path fill-rule="evenodd" clip-rule="evenodd" d="M832.5 255C831.672 255 831 255.672 831 256.5V263.5C831 264.328 831.672 265 832.5 265H843.5C844.328 265 845 264.328 845 263.5V256.5C845 255.672 844.328 255 843.5 255H832.5ZM832.332 255.626C832.126 255.443 831.81 255.461 831.626 255.668C831.443 255.874 831.461 256.19 831.668 256.374L835.74 259.993L832.675 262.62C832.465 262.8 832.441 263.116 832.62 263.325C832.8 263.535 833.116 263.559 833.325 263.38L836.538 260.626L836.613 260.676C837.453 261.236 838.547 261.236 839.387 260.676L839.462 260.626L842.675 263.38C842.884 263.559 843.2 263.535 843.38 263.325C843.559 263.116 843.535 262.8 843.325 262.62L840.26 259.993L844.332 256.374C844.539 256.19 844.557 255.874 844.374 255.668C844.19 255.461 843.874 255.443 843.668 255.626L839.194 259.603L838.832 259.844C838.328 260.18 837.672 260.18 837.168 259.844L836.806 259.603L832.332 255.626Z" fill="#305680"/>
<text fill="#28232D" xml:space="preserve" style="white-space: pre" font-family="Open Sans" font-size="12" font-weight="600" letter-spacing="0em"><tspan x="854" y="263.655">Contact Us</tspan></text>
</g>
</a>
<a xlink:href="/docs/contact-us/" target="_parent" xlink:title="Contact Us">
<g class="black_magic" opacity="0">
<rect x="819.5" y="672.5" width="158" height="36" rx="5.5" fill="white" stroke="#305680" stroke-width="3"/>
<path fill-rule="evenodd" clip-rule="evenodd" d="M832.5 686C831.672 686 831 686.672 831 687.5V694.5C831 695.328 831.672 696 832.5 696H843.5C844.328 696 845 695.328 845 694.5V687.5C845 686.672 844.328 686 843.5 686H832.5ZM832.332 686.626C832.126 686.443 831.81 686.461 831.626 686.668C831.443 686.874 831.461 687.19 831.668 687.374L835.74 690.993L832.675 693.62C832.465 693.8 832.441 694.116 832.62 694.325C832.8 694.535 833.116 694.559 833.325 694.38L836.538 691.626L836.613 691.676C837.453 692.236 838.547 692.236 839.387 691.676L839.462 691.626L842.675 694.38C842.884 694.559 843.2 694.535 843.38 694.325C843.559 694.116 843.535 693.8 843.325 693.62L840.26 690.993L844.332 687.374C844.539 687.19 844.557 686.874 844.374 686.668C844.19 686.461 843.874 686.443 843.668 686.626L839.194 690.603L838.832 690.844C838.328 691.18 837.672 691.18 837.168 690.844L836.806 690.603L832.332 686.626Z" fill="#305680"/>
<text fill="#28232D" xml:space="preserve" style="white-space: pre" font-family="Open Sans" font-size="12" font-weight="600" letter-spacing="0em"><tspan x="854" y="694.655">Contact Us</tspan></text>
</g>
</a>
<a xlink:href="/docs/iot-gateway/what-is-iot-gateway/" target="_parent" xlink:title="What is ThingsBoard IoT Gateway?">
<g class="black_magic" opacity="0">
<rect x="819.5" y="716.5" width="158" height="52" rx="5.5" fill="white" stroke="#305680" stroke-width="3"/>
<path fill-rule="evenodd" clip-rule="evenodd" d="M833 737C832.448 737 832 737.448 832 738V741C832 741.552 832.448 742 833 742H843C843.552 742 844 741.552 844 741V738C844 737.448 843.552 737 843 737H833ZM835 739.5C835 739.776 834.776 740 834.5 740C834.224 740 834 739.776 834 739.5C834 739.224 834.224 739 834.5 739C834.776 739 835 739.224 835 739.5ZM836.5 740C836.776 740 837 739.776 837 739.5C837 739.224 836.776 739 836.5 739C836.224 739 836 739.224 836 739.5C836 739.776 836.224 740 836.5 740Z" fill="#305680"/>
<path d="M835.5 743V745.5H833.866C833.693 745.201 833.37 745 833 745C832.448 745 832 745.448 832 746C832 746.552 832.448 747 833 747C833.37 747 833.693 746.799 833.866 746.5H836.5V743H835.5Z" fill="#305680"/>
<path d="M839.5 743V746.5H842.134C842.307 746.799 842.63 747 843 747C843.552 747 844 746.552 844 746C844 745.448 843.552 745 843 745C842.63 745 842.307 745.201 842.134 745.5H840.5V743H839.5Z" fill="#305680"/>
<path d="M837.5 743V747.134C837.201 747.307 837 747.63 837 748C837 748.552 837.448 749 838 749C838.552 749 839 748.552 839 748C839 747.63 838.799 747.307 838.5 747.134V743H837.5Z" fill="#305680"/>
<text fill="#28232D" xml:space="preserve" style="white-space: pre" font-family="Open Sans" font-size="12" font-weight="600" letter-spacing="0em"><tspan x="854" y="754.655">IoT Gateway</tspan></text>
<text fill="#28232D" xml:space="preserve" style="white-space: pre" font-family="Open Sans" font-size="12" letter-spacing="0em"><tspan x="854" y="738.655">ThingsBoard&#10;</tspan></text>
</g>
</a>
</svg>
