<svg width="24" height="24" fill="none" xmlns="http://www.w3.org/2000/svg"><path fill-rule="evenodd" clip-rule="evenodd" d="m9.404 23.445.275-.465c.44-.745.66-1.117 1.012-1.325.351-.207.81-.222 1.725-.252.859-.027 1.436-.102 1.93-.306a4.238 4.238 0 0 0 2.295-2.296c.323-.779.323-1.767.323-3.743v-.848c0-2.777 0-4.165-.625-5.185-.35-.57-.83-1.05-1.4-1.4C13.919 7 12.531 7 9.754 7H7.21c-2.777 0-4.165 0-5.185.625-.57.35-1.05.83-1.4 1.4C0 10.045 0 11.433 0 14.21v.848c0 1.976 0 2.964.323 3.744a4.24 4.24 0 0 0 2.295 2.295c.494.204 1.07.28 1.93.306.916.03 1.374.045 1.725.252.35.208.571.58 1.012 1.325l.275.465c.41.692 1.434.692 1.844 0Zm2.789-7.963a1.06 1.06 0 1 0 0-2.12 1.06 1.06 0 0 0 0 2.12Zm-2.65-1.06a1.06 1.06 0 1 1-2.118 0 1.06 1.06 0 0 1 2.117 0m-4.772 1.06a1.06 1.06 0 1 0 0-2.12 1.06 1.06 0 0 0 0 2.12Z" fill="#2A7DEC"/><path d="M15.486 1c1.267 0 2.274 0 3.082.077.83.079 1.53.244 2.153.626.642.394 1.181.934 1.575 1.575.383.624.548 1.325.627 2.153C23 6.239 23 7.247 23 8.513v.866c0 .901 0 1.619-.04 2.2-.04.595-.125 1.106-.323 1.584a4.77 4.77 0 0 1-2.67 2.617c-.14.055-.262.1-.368.135h-1.65c.016-.499.016-1.093.016-1.822v-.848c0-2.777 0-4.165-.625-5.185-.35-.57-.83-1.05-1.4-1.4-1.02-.625-2.408-.625-5.185-.625H8.21c-.986 0-1.796 0-2.478.028v-1.65a7.84 7.84 0 0 1 .13-.396c.09-.26.204-.506.346-.739a4.8 4.8 0 0 1 1.576-1.575c.624-.382 1.324-.547 2.153-.626C10.745 1 11.752 1 13.02 1h2.467Z" fill="#D4E5FB"/></svg>