<svg width="16" height="17" viewBox="0 0 16 17" fill="none" xmlns="http://www.w3.org/2000/svg">
    <g clip-path="url(#clip0_18837_22744)">
        <path d="M5.33337 2.88094V10.8809C5.33337 11.2346 5.47385 11.5737 5.7239 11.8237C5.97395 12.0738 6.31309 12.2143 6.66671 12.2143H12C12.3537 12.2143 12.6928 12.0738 12.9428 11.8237C13.1929 11.5737 13.3334 11.2346 13.3334 10.8809V5.04227C13.3334 4.86465 13.2978 4.68882 13.2289 4.5251C13.16 4.36139 13.0591 4.2131 12.932 4.08894L10.722 1.92761C10.4729 1.68405 10.1384 1.54765 9.79004 1.54761H6.66671C6.31309 1.54761 5.97395 1.68808 5.7239 1.93813C5.47385 2.18818 5.33337 2.52732 5.33337 2.88094Z" stroke="#0094FF" stroke-width="1.33333" stroke-linecap="round" stroke-linejoin="round"/>
        <path d="M10.6667 12.2142V13.5475C10.6667 13.9011 10.5263 14.2403 10.2762 14.4903C10.0262 14.7404 9.68704 14.8809 9.33341 14.8809H4.00008C3.64646 14.8809 3.30732 14.7404 3.05727 14.4903C2.80722 14.2403 2.66675 13.9011 2.66675 13.5475V6.21419C2.66675 5.86057 2.80722 5.52143 3.05727 5.27138C3.30732 5.02134 3.64646 4.88086 4.00008 4.88086H5.33341" stroke="#0094FF" stroke-width="1.33333" stroke-linecap="round" stroke-linejoin="round"/>
    </g>
    <defs>
        <clipPath id="clip0_18837_22744">
            <rect width="16" height="16" fill="white" transform="translate(0 0.214233)"/>
        </clipPath>
    </defs>
</svg>
