<svg width="44" height="44" viewBox="0 0 44 44" fill="none" xmlns="http://www.w3.org/2000/svg">
<path d="M14.7343 33.6825C13.8701 32.6646 12.622 32.0631 11.1818 32.0631C10.8937 32.0631 10.6537 32.2019 10.5097 32.387L8.78141 34.7929C8.54138 35.1167 8.06131 35.1167 7.86928 34.7929L6.14103 32.387C5.99701 32.1556 5.75698 32.0631 5.46894 32.0631C3.35664 32.0631 1.53238 33.4974 1.05231 35.4869L0.044163 39.836C-0.195871 40.8076 0.572238 41.7329 1.62839 41.7329H11.4218C11.4218 41.6867 11.4698 41.6404 11.4698 41.6404L12.4779 37.2913C12.814 35.8107 13.6301 34.5615 14.7343 33.6825Z" fill="#2B7DEC"/>
<path d="M8.3493 31.4154C10.7016 31.4154 12.6699 29.5647 12.6699 27.2513V25.5395C12.6699 23.2724 10.7496 21.3754 8.3493 21.3754C5.99697 21.3754 4.02869 23.2261 4.02869 25.5395V27.2513C4.02869 29.5647 5.99697 31.4154 8.3493 31.4154Z" fill="#D4E5FB"/>
<path d="M42.8183 35.4406C42.3382 33.4511 40.5139 32.0168 38.3536 32.0168C38.1136 32.0168 37.8736 32.1556 37.7295 32.3407L36.0013 34.7466C35.7613 35.0705 35.2812 35.0705 35.0892 34.7466L33.3609 32.3407C33.2169 32.1094 32.9769 32.0168 32.7368 32.0168C31.2966 32.0168 30.0484 32.6183 29.1843 33.6362C30.3365 34.5153 31.1046 35.7645 31.4887 37.1988L32.4968 41.5479C32.4968 41.5941 32.5448 41.6404 32.5448 41.6404H42.3862C43.3944 41.6404 44.1625 40.7151 43.9704 39.7435L42.8183 35.4406Z" fill="#2B7DEC"/>
<path d="M31.2006 27.2513C31.2006 29.5184 33.1209 31.4154 35.5212 31.4154C37.9216 31.4154 39.8419 29.5647 39.8419 27.2513V25.5395C39.8419 23.2724 37.9216 21.3754 35.5212 21.3754C33.1209 21.3754 31.2006 23.2261 31.2006 25.5395V27.2513Z" fill="#D4E5FB"/>
<path d="M24.7677 34.3302C24.4796 34.3302 24.2396 34.469 24.0956 34.6541L22.3673 37.06C22.1273 37.3838 21.6953 37.3838 21.4552 37.06L19.727 34.6541C19.583 34.4227 19.3429 34.3302 19.0549 34.3302C16.9426 34.3302 15.0703 35.7645 14.6382 37.754L13.6301 42.1031C13.3901 43.0747 14.1582 44 15.2143 44H28.6562C29.7124 44 30.4325 43.0747 30.2405 42.1031L29.2323 37.7077C28.7523 35.7182 26.928 34.3302 24.7677 34.3302Z" fill="#2B7DEC"/>
<path d="M21.9353 23.6425C19.583 23.6425 17.6147 25.4931 17.6147 27.8065V29.5184C17.6147 31.7855 19.535 33.6824 21.9353 33.6824C24.2876 33.6824 26.2559 31.8317 26.2559 29.5184V27.8065C26.2559 25.5394 24.2876 23.6425 21.9353 23.6425Z" fill="#D4E5FB"/>
<path d="M14.3022 10.1788C14.3022 11.0116 13.9182 11.7981 13.1981 12.2608L12.4299 12.7697C11.9979 13.0473 11.8539 13.6488 12.1419 14.1115L13.4861 16.3786C13.7741 16.8412 14.3502 17.0263 14.8783 16.795L15.7424 16.4248C16.5105 16.1009 17.3746 16.1009 18.0948 16.5174C18.1428 16.5636 18.1908 16.5636 18.2388 16.6099C18.9589 16.98 19.4389 17.7203 19.487 18.5068L19.535 19.3859C19.583 19.8948 20.015 20.3113 20.5911 20.3113H23.3275C23.8556 20.3113 24.3356 19.8948 24.3836 19.3859L24.4797 18.5068C24.5277 17.7203 25.0077 16.98 25.7278 16.6099C25.7758 16.5636 25.8239 16.5636 25.8719 16.5174C26.592 16.1009 27.4561 16.1009 28.2242 16.4248L29.0883 16.795C29.5684 17.0263 30.1925 16.8412 30.4805 16.3786L31.8247 14.1115C32.1128 13.6488 31.9687 13.0473 31.4887 12.7697L30.6725 12.2608C29.9524 11.7981 29.5684 11.0116 29.5684 10.1788C29.5684 9.34595 29.9524 8.55941 30.6725 8.09674L31.4407 7.5878C31.8727 7.3102 32.0167 6.70873 31.7767 6.24606L30.3845 3.9327C30.0965 3.47003 29.5204 3.28496 28.9923 3.5163L28.1762 3.9327C27.4081 4.25657 26.544 4.25657 25.8239 3.84017C25.7758 3.7939 25.7278 3.7939 25.6798 3.74763C24.9597 3.3775 24.4797 2.63722 24.4317 1.85068L24.3356 0.925342C24.2876 0.416404 23.8556 0 23.2795 0H20.5431C20.015 0 19.535 0.416404 19.487 0.925342L19.4389 1.80442C19.3909 2.59096 18.9109 3.33123 18.1908 3.70137C18.1428 3.74763 18.0948 3.74763 18.0467 3.7939C17.3266 4.21031 16.4625 4.2103 15.6944 3.88644L14.8303 3.5163C14.3502 3.28496 13.7261 3.47003 13.4381 3.9327L12.0939 6.19979C11.8059 6.66246 11.9499 7.26393 12.4299 7.54154L13.1981 8.05047C13.9182 8.51314 14.3022 9.29968 14.3022 10.1788C14.3022 10.1325 14.3022 10.1325 14.3022 10.1788ZM21.9353 5.82965C24.4317 5.82965 26.4479 7.77287 26.4479 10.1788C26.4479 12.5846 24.4317 14.5279 21.9353 14.5279C19.4389 14.5279 17.4227 12.5846 17.4227 10.1788C17.4227 7.77287 19.4389 5.82965 21.9353 5.82965Z" fill="#2B7DEC"/>
</svg>
