<svg width="34" height="44" viewBox="0 0 34 44" fill="none" xmlns="http://www.w3.org/2000/svg">
<path d="M22.8063 12.4846L21.4935 12.3472C21.4038 12.3378 21.3303 12.2799 21.3006 12.1984C21.0985 11.6433 20.8044 11.156 20.4023 10.7114C20.3434 10.6461 20.3277 10.5561 20.364 10.4773L20.8962 9.32177C20.9444 9.21708 20.9024 9.09445 20.7986 9.03712L18.9745 8.03037C18.8707 7.97304 18.7388 7.99971 18.6679 8.09194L17.8844 9.11389C17.8314 9.18293 17.7425 9.21459 17.6547 9.19839C17.0667 9.09096 16.4573 9.08448 15.8571 9.1934C15.7695 9.20935 15.6806 9.17795 15.6277 9.10915L14.8475 8.09169C14.7766 7.99946 14.6447 7.97279 14.5409 8.03012L12.7168 9.03687C12.613 9.0942 12.571 9.21683 12.6193 9.32152L13.1509 10.4761C13.1869 10.5541 13.1707 10.6433 13.1123 10.7081C12.7137 11.1506 12.4146 11.6583 12.218 12.1987C12.1885 12.2794 12.1155 12.3373 12.0266 12.3465L10.7089 12.4843C10.5902 12.4968 10.5 12.593 10.5 12.7074V14.7209C10.5 14.8353 10.5902 14.9315 10.7091 14.944L12.0219 15.0813C12.1116 15.0908 12.1852 15.1486 12.2149 15.2301C12.4167 15.7852 12.7111 16.2725 13.1131 16.7172C13.172 16.7825 13.1877 16.8725 13.1514 16.9513L12.6193 18.1068C12.571 18.2115 12.613 18.3341 12.7168 18.3915L14.5409 19.3982C14.6447 19.4555 14.7766 19.4289 14.8475 19.3366L15.6311 18.3147C15.684 18.2456 15.7729 18.214 15.8608 18.2302C16.4487 18.3376 17.0581 18.3438 17.6583 18.2352C17.7459 18.2192 17.8348 18.2506 17.8878 18.3194L18.6679 19.3369C18.7385 19.4291 18.8707 19.4558 18.9745 19.3984L20.7986 18.3917C20.9024 18.3344 20.9444 18.2117 20.8962 18.1071L20.3645 16.9525C20.3285 16.8745 20.3447 16.7852 20.4031 16.7204C20.8018 16.278 21.1008 15.7703 21.2974 15.2299C21.3269 15.1491 21.3999 15.0913 21.4888 15.0821L22.8066 14.9442C22.9252 14.9318 23.0154 14.8356 23.0154 14.7212V12.7077C23.0154 12.593 22.9252 12.497 22.8063 12.4846ZM16.7577 15.9577C15.4616 15.9577 14.4111 14.9535 14.4111 13.7144C14.4111 12.4754 15.4616 11.4711 16.7577 11.4711C18.0538 11.4711 19.1044 12.4754 19.1044 13.7144C19.1044 14.9535 18.0538 15.9577 16.7577 15.9577Z" fill="#2B7DEC"/>
<path d="M14.2226 26.7279C14.7342 27.5689 15 28.4926 15 29.429V32.1819H7.36387V29.7617L4.10651 26.8215C3.35744 26.1453 2.96182 25.2619 3.00291 24.3565L3.37962 16.0703C3.37272 15.4429 3.95742 14.9136 4.73231 14.8457C5.52029 14.7766 6.25954 15.2044 6.38826 15.8338C6.58644 16.8027 6.8177 19.3528 6.93697 20.7691C6.34172 21.474 6.16499 22.3907 6.57007 23.2294L7.53259 25.2192C7.69295 25.5504 8.15948 25.7268 8.59147 25.5937C9.01291 25.4617 9.2209 25.0802 9.05691 24.7407C9.11727 24.8654 8.17148 22.9098 8.09512 22.7518C7.79331 22.1253 8.13039 21.3681 8.91946 21.0588C9.72852 20.7404 10.7543 21.0263 11.1492 21.675L14.2226 26.7279Z" fill="#D4E5FB"/>
<rect x="7.50003" y="32.8182" width="7.5" height="3.18182" rx="1" fill="#2B7DEC"/>
<path d="M29.9971 24.3565C30.0382 25.2618 29.6429 26.1452 28.8935 26.8214L25.6364 29.7616V32.1818H18V29.4289C18 28.4926 18.2658 27.5688 18.7775 26.7275L21.8505 21.6746C22.2451 21.0256 23.2713 20.7397 24.0804 21.0584C24.8316 21.3528 25.1895 22.0612 24.9255 22.6926C24.8495 22.8747 23.9004 24.8284 23.9429 24.7404C23.7789 25.0798 23.9873 25.4614 24.4084 25.5933C24.8407 25.7265 25.3069 25.55 25.4673 25.2188L26.4298 23.229C26.8345 22.3904 26.6582 21.4736 26.0629 20.7687C26.1822 19.3525 26.4135 16.8026 26.6116 15.8335C26.7404 15.2041 27.4796 14.7763 28.2676 14.8453C29.0425 14.9135 29.6273 15.4428 29.6204 16.0699L29.9971 24.3565Z" fill="#D4E5FB"/>
<rect x="18" y="32.8182" width="7.5" height="3.18182" rx="1" fill="#2B7DEC"/>
</svg>
