<svg width="34" height="44" viewBox="0 0 34 44" fill="none" xmlns="http://www.w3.org/2000/svg">
<path d="M7.64208 24.1209C7.5072 23.4693 6.92664 22.9778 6.23313 22.9778H4.16614V35.1587H6.23313C7.0262 35.1587 7.67171 34.516 7.67171 33.7264V33.7083C7.65262 33.6504 7.64208 33.5891 7.64208 33.5258L7.64208 24.1209Z" fill="#2B7DEC"/>
<path d="M29.4275 26.7668L21.2742 30.046C20.7999 30.6652 20.1166 30.9475 19.4509 30.9475H15.0913C14.7689 30.9475 14.5079 30.6863 14.5079 30.3641C14.5079 30.0419 14.7689 29.7807 15.0913 29.7807H19.4509C20.1228 29.7807 20.6143 29.2001 20.6143 28.6175C20.6143 27.9729 20.0925 27.4485 19.4509 27.4485C19.246 27.4485 16.0526 27.4485 16.1989 27.4485C14.8651 27.4485 13.5907 26.8172 12.7896 25.76C12.2034 24.9929 11.2758 24.5337 10.3096 24.5337H8.8385V33.1186L16.9959 35.9005C17.495 36.0742 18.0448 36.0173 18.4961 35.7552L30.3893 28.836C30.9125 28.5547 31.1399 27.9475 30.918 27.3949C30.6861 26.8277 30.0058 26.5315 29.4275 26.7668Z" fill="#D4E5FB"/>
<path d="M29.2534 20.9808C28.9022 19.9106 28.5746 19.7673 28.8333 19.3589L29.5451 18.1863L28.1274 16.7627C27.1655 17.2667 26.8428 17.7538 26.3655 17.492C25.4045 16.995 25.0526 17.1167 24.942 16.646L24.6153 15.3101H22.6083C22.2782 16.362 22.3891 16.9075 21.8849 17.0603C20.8304 17.3898 20.709 17.741 20.2747 17.4803L19.0904 16.7627L17.6727 18.1863C18.1842 19.1587 18.6621 19.4588 18.4019 19.9482C17.9033 20.8459 18.0431 21.2512 17.556 21.3658L16.22 21.6925V23.7053L17.556 24.032C18.0364 24.1449 17.9096 24.542 18.4019 25.4614C18.6185 25.8559 18.2982 26.1383 18.2386 26.2839H19.4521C20.7239 26.2839 21.7623 27.3107 21.7799 28.5826L28.7516 25.7822C28.74 25.6714 28.7632 25.5605 28.8158 25.4555C29.7631 23.6916 28.585 24.4475 31.0036 23.7053V21.6925C29.9276 21.3612 29.4212 21.4844 29.2534 20.9808ZM23.6119 25.6772C21.9724 25.6772 20.6364 24.3412 20.6364 22.7018C20.6364 21.0566 21.9724 19.7206 23.6119 19.7206C25.2512 19.7206 26.5871 21.0566 26.5871 22.7018C26.5871 24.3412 25.2512 25.6772 23.6119 25.6772Z" fill="#2B7DEC"/>
<path d="M15.3332 17.4687C15.3916 17.3404 15.4499 17.2004 15.5024 17.0662L16.6342 16.7861C16.891 16.722 17.0776 16.4886 17.0776 16.2202V13.8516C17.0776 13.5832 16.891 13.3499 16.6342 13.2857L15.4965 13.0057C15.4499 12.8715 15.3916 12.7373 15.3332 12.6031L15.9341 11.6113C16.0741 11.3838 16.0391 11.0863 15.8466 10.8996L14.178 9.22518C13.9856 9.03265 13.6939 8.99764 13.4605 9.13766L12.4629 9.73858C12.3287 9.68022 12.2003 9.62189 12.0662 9.57521L11.7861 8.4434C11.7219 8.18086 11.4886 8 11.2202 8H8.8516C8.58325 8 8.3498 8.18085 8.28571 8.4434L8.00568 9.57521C7.87144 9.62773 7.73727 9.68022 7.60886 9.73858L6.60542 9.13766C6.37795 8.99764 6.08041 9.03265 5.89368 9.22518L4.2193 10.8996C4.03264 11.0863 3.99176 11.3838 4.13178 11.6113L4.73854 12.6089C4.68021 12.7373 4.62189 12.8715 4.56933 13.0057L3.44339 13.2857C3.18089 13.3499 3 13.5832 3 13.8516V16.2202C3 16.4886 3.18089 16.722 3.4434 16.7861L4.57517 17.0662C4.62189 17.2004 4.68022 17.3345 4.73854 17.4629L4.13178 18.4605C3.99177 18.6939 4.03265 18.9856 4.21931 19.1781L5.89369 20.8466C6.08041 21.0392 6.37796 21.0742 6.60542 20.9342L7.60887 20.3332C7.73727 20.3916 7.86561 20.4441 8.00569 20.4966L8.27987 21.6284C8.34397 21.8909 8.57742 22.0718 8.84577 22.0718H11.2202C11.4886 22.0718 11.7219 21.8909 11.7862 21.6284L12.0662 20.4966C12.2004 20.4499 12.3287 20.3916 12.4629 20.3332L13.4605 20.9342C13.6939 21.0742 13.9856 21.0392 14.178 20.8466L15.8467 19.1781C16.0392 18.9856 16.0741 18.6939 15.9341 18.4605L15.3332 17.4687ZM10.0359 18.443C8.1573 18.443 6.62877 16.9145 6.62877 15.0359C6.62877 13.1573 8.1573 11.6288 10.0359 11.6288C11.9145 11.6288 13.4429 13.1573 13.4429 15.0359C13.4429 16.9145 11.9145 18.443 10.0359 18.443Z" fill="#2B7DEC"/>
</svg>
