<svg width="92" height="92" viewBox="0 0 92 92" fill="none" xmlns="http://www.w3.org/2000/svg">
<g clip-path="url(#clip0)">
<g filter="url(#filter0_d)">
<path fill-rule="evenodd" clip-rule="evenodd" d="M69 21L69 55C69 58.3137 66.3137 61 63 61L29 61C25.6863 61 23 58.3137 23 55L23 21C23 17.6863 25.6863 15 29 15L63 15C66.3137 15 69 17.6863 69 21ZM65 21C65 19.8954 64.1046 19 63 19L29 19C27.8954 19 27 19.8954 27 21L27 55C27 56.1046 27.8954 57 29 57L63 57C64.1046 57 65 56.1046 65 55L65 21Z" fill="#305680"/>
<path d="M34 27C34 26.4477 34.4477 26 35 26H44C44.5523 26 45 26.4477 45 27V36C45 36.5523 44.5523 37 44 37H35C34.4477 37 34 36.5523 34 36V27Z" fill="#2A7DEC"/>
<path d="M34 40C34 39.4477 34.4477 39 35 39H44C44.5523 39 45 39.4477 45 40V49C45 49.5523 44.5523 50 44 50H35C34.4477 50 34 49.5523 34 49V40Z" fill="#2A7DEC"/>
<path d="M47 27C47 26.4477 47.4477 26 48 26H57C57.5523 26 58 26.4477 58 27V36C58 36.5523 57.5523 37 57 37H48C47.4477 37 47 36.5523 47 36V27Z" fill="#2A7DEC"/>
<path d="M47 40C47 39.4477 47.4477 39 48 39H57C57.5523 39 58 39.4477 58 40V49C58 49.5523 57.5523 50 57 50H48C47.4477 50 47 49.5523 47 49V40Z" fill="#2A7DEC"/>
<path d="M67 32C67 31.4477 67.4477 31 68 31L72 31C72.5523 31 73 31.4477 73 32C73 32.5523 72.5523 33 72 33L68 33C67.4477 33 67 32.5523 67 32Z" fill="#305680"/>
<path d="M67 38C67 37.4477 67.4477 37 68 37L72 37C72.5523 37 73 37.4477 73 38C73 38.5523 72.5523 39 72 39L68 39C67.4477 39 67 38.5523 67 38Z" fill="#305680"/>
<path d="M19 32C19 31.4477 19.4477 31 20 31L24 31C24.5523 31 25 31.4477 25 32C25 32.5523 24.5523 33 24 33L20 33C19.4477 33 19 32.5523 19 32Z" fill="#305680"/>
<path d="M19 38C19 37.4477 19.4477 37 20 37L24 37C24.5523 37 25 37.4477 25 38C25 38.5523 24.5523 39 24 39L20 39C19.4477 39 19 38.5523 19 38Z" fill="#305680"/>
<path d="M67 44C67 43.4477 67.4477 43 68 43L72 43C72.5523 43 73 43.4477 73 44C73 44.5523 72.5523 45 72 45L68 45C67.4477 45 67 44.5523 67 44Z" fill="#305680"/>
<path d="M19 44C19 43.4477 19.4477 43 20 43L24 43C24.5523 43 25 43.4477 25 44C25 44.5523 24.5523 45 24 45L20 45C19.4477 45 19 44.5523 19 44Z" fill="#305680"/>
<path d="M40 17C39.4477 17 39 16.5523 39 16L39 12C39 11.4477 39.4477 11 40 11C40.5523 11 41 11.4477 41 12L41 16C41 16.5523 40.5523 17 40 17Z" fill="#305680"/>
<path d="M46 17C45.4477 17 45 16.5523 45 16L45 12C45 11.4477 45.4477 11 46 11C46.5523 11 47 11.4477 47 12L47 16C47 16.5523 46.5523 17 46 17Z" fill="#305680"/>
<path d="M40 65C39.4477 65 39 64.5523 39 64L39 60C39 59.4477 39.4477 59 40 59C40.5523 59 41 59.4477 41 60L41 64C41 64.5523 40.5523 65 40 65Z" fill="#305680"/>
<path d="M52 17C51.4477 17 51 16.5523 51 16L51 12C51 11.4477 51.4477 11 52 11C52.5523 11 53 11.4477 53 12L53 16C53 16.5523 52.5523 17 52 17Z" fill="#305680"/>
<path d="M52 65C51.4477 65 51 64.5523 51 64L51 60C51 59.4477 51.4477 59 52 59C52.5523 59 53 59.4477 53 60L53 64C53 64.5523 52.5523 65 52 65Z" fill="#305680"/>
<path d="M46 65C45.4477 65 45 64.5523 45 64L45 60C45 59.4477 45.4477 59 46 59C46.5523 59 47 59.4477 47 60L47 64C47 64.5523 46.5523 65 46 65Z" fill="#305680"/>
</g>
</g>
<defs>
<filter id="filter0_d" x="-4" y="-2" width="100" height="100" filterUnits="userSpaceOnUse" color-interpolation-filters="sRGB">
<feFlood flood-opacity="0" result="BackgroundImageFix"/>
<feColorMatrix in="SourceAlpha" type="matrix" values="0 0 0 0 0 0 0 0 0 0 0 0 0 0 0 0 0 0 127 0"/>
<feOffset dy="10"/>
<feGaussianBlur stdDeviation="10"/>
<feColorMatrix type="matrix" values="0 0 0 0 0 0 0 0 0 0 0 0 0 0 0 0 0 0 0.1 0"/>
<feBlend mode="normal" in2="BackgroundImageFix" result="effect1_dropShadow"/>
<feBlend mode="normal" in="SourceGraphic" in2="effect1_dropShadow" result="shape"/>
</filter>
<clipPath id="clip0">
<rect width="92" height="92" fill="white"/>
</clipPath>
</defs>
</svg>
