<svg width="626" height="335" fill="none" xmlns="http://www.w3.org/2000/svg"><path fill="#fff" d="M0 0h626v335H0z"/><g clip-path="url(#a)"><g filter="url(#b)"><path fill="#fff" d="M0 71h56v56H0z"/><path d="M43 92v14H29V92h14Zm0-2H29c-1.1 0-2 .9-2 2v14c0 1.1.9 2 2 2h14c1.1 0 2-.9 2-2V92c0-1.1-.9-2-2-2Z" fill="#000" opacity=".54"/><g filter="url(#c)"><path fill="#fff" d="M0 127h56v52H0z"/><path d="M43 146v14H29v-14h14Zm0-2H29c-1.1 0-2 .9-2 2v14c0 1.1.9 2 2 2h14c1.1 0 2-.9 2-2v-14c0-1.1-.9-2-2-2Z" fill="#000" opacity=".54"/></g><g filter="url(#d)"><path fill="#fff" d="M0 179h56v52H0z"/><path d="M43 198v14H29v-14h14Zm0-2H29c-1.1 0-2 .9-2 2v14c0 1.1.9 2 2 2h14c1.1 0 2-.9 2-2v-14c0-1.1-.9-2-2-2Z" fill="#000" opacity=".54"/></g><g filter="url(#e)"><path fill="#fff" d="M0 231h56v52H0z"/><path fill="#000" fill-opacity=".04" d="M0 231h56v52H0z"/><path d="M43 250v14H29v-14h14Zm0-2H29c-1.1 0-2 .9-2 2v14c0 1.1.9 2 2 2h14c1.1 0 2-.9 2-2v-14c0-1.1-.9-2-2-2Z" fill="#000" opacity=".54"/></g><g filter="url(#f)"><path fill="#fff" d="M0 283h56v52H0z"/><path d="M43 302v14H29v-14h14Zm0-2H29c-1.1 0-2 .9-2 2v14c0 1.1.9 2 2 2h14c1.1 0 2-.9 2-2v-14c0-1.1-.9-2-2-2Z" fill="#000" opacity=".54"/></g><path fill="#fff" d="M56 71h176v56H56z"/><path opacity=".87" d="M80.6064 100.76c-.1002 1.062-.4921 1.891-1.1757 2.488-.6836.592-1.5928.889-2.7276.889-.7929 0-1.4925-.187-2.0986-.561-.6016-.378-1.0664-.914-1.3945-1.606-.3282-.693-.4991-1.497-.5127-2.4134v-.9296c0-.9388.1663-1.766.499-2.4815s.8089-1.2669 1.4287-1.6543c.6243-.3874 1.3444-.581 2.1602-.581 1.0983 0 1.9824.2985 2.6523.8955.6699.597 1.0596 1.4401 1.1689 2.5293h-1.7226c-.082-.7155-.2917-1.2305-.6289-1.545-.3327-.319-.8226-.4785-1.4697-.4785-.752 0-1.3308.2757-1.7364.8272-.401.5468-.6061 1.3512-.6152 2.4131v.8818c0 1.0754.1914 1.8954.5742 2.4614.3874.565.9525.847 1.6953.847.6791 0 1.1895-.152 1.5313-.458.3418-.305.5582-.813.6494-1.524h1.7226Zm5.4037-2.6389a4.1051 4.1051 0 0 0-.6767-.0547c-.7611 0-1.2738.2917-1.5381.875V104h-1.6612v-7.3965h1.586l.041.8272c.401-.6426.957-.9639 1.668-.9639.2369 0 .4329.0319.5879.0957l-.0069 1.5586Zm4.3099 6.0159c-1.0527 0-1.9072-.331-2.5634-.991-.6517-.666-.9776-1.55-.9776-2.653v-.205c0-.7382.1413-1.3967.4239-1.9755.2871-.5833.6881-1.0368 1.2031-1.3604.515-.3235 1.0892-.4853 1.7226-.4853 1.0072 0 1.7842.3213 2.3311.9639.5514.6425.8271 1.5517.8271 2.7273v.67h-4.833c.0502.611.253 1.094.6084 1.449.3601.356.8112.534 1.3535.534.7611 0 1.3809-.308 1.8594-.923l.8955.854c-.2962.442-.6927.786-1.1894 1.032-.4922.242-1.0459.363-1.6612.363Zm-.1982-6.3372c-.4557 0-.8249.1595-1.1074.4785-.278.319-.4558.7634-.5332 1.333h3.165v-.123c-.0364-.556-.1846-.9753-.4443-1.2578-.2598-.2871-.6198-.4307-1.0801-.4307ZM99.1417 104c-.0729-.141-.1367-.371-.1914-.69-.5287.551-1.1758.827-1.9414.827-.7429 0-1.349-.212-1.8184-.636-.4694-.424-.7041-.948-.7041-1.572 0-.789.2917-1.393.875-1.812.5879-.4236 1.4264-.6356 2.5156-.6356h1.0186v-.4853c0-.3828-.1071-.6882-.3213-.916-.2142-.2324-.54-.3487-.9775-.3487-.3783 0-.6882.0957-.9297.2872-.2416.1868-.3623.4261-.3623.7177h-1.6612c0-.4056.1345-.7838.4034-1.1347.2688-.3555.6334-.6335 1.0937-.834.4648-.2005.9821-.3008 1.5518-.3008.8658 0 1.5563.2187 2.0713.6562.5152.433.7792 1.0437.7932 1.8321v3.3359c0 .665.093 1.196.28 1.593V104h-1.6953Zm-1.8252-1.196c.3281 0 .6357-.08.9228-.24.2917-.159.5105-.373.6563-.642v-1.395h-.8955c-.6153 0-1.0778.107-1.3877.322-.3099.214-.4649.517-.4649.909 0 .319.1049.574.3145.765.2142.187.499.281.8545.281Zm7.2015-7.9983v1.7978h1.306v1.2305h-1.306v4.129c0 .282.055.488.164.615.114.123.315.185.602.185.191 0 .385-.023.581-.069v1.285c-.379.105-.743.158-1.094.158-1.276 0-1.914-.704-1.914-2.113v-4.19h-1.217v-1.2305h1.217v-1.7978h1.661Zm5.978 9.3313c-1.053 0-1.907-.331-2.564-.991-.651-.666-.977-1.55-.977-2.653v-.205c0-.7382.141-1.3967.424-1.9755.287-.5833.688-1.0368 1.203-1.3604.515-.3235 1.089-.4853 1.722-.4853 1.008 0 1.785.3213 2.332.9639.551.6425.827 1.5517.827 2.7273v.67h-4.833c.05.611.253 1.094.608 1.449.36.356.811.534 1.354.534.761 0 1.38-.308 1.859-.923l.895.854c-.296.442-.692.786-1.189 1.032-.492.242-1.046.363-1.661.363Zm-.198-6.3372c-.456 0-.825.1595-1.108.4785-.278.319-.455.7634-.533 1.333h3.165v-.123c-.036-.556-.184-.9753-.444-1.2578-.26-.2871-.62-.4307-1.08-.4307Zm4.289 2.4472c0-1.1393.264-2.053.793-2.7411.529-.6927 1.237-1.0391 2.126-1.0391.784 0 1.417.2734 1.9.8203V93.5h1.662V104h-1.504l-.082-.766c-.497.602-1.16.903-1.99.903-.866 0-1.567-.349-2.105-1.046-.533-.697-.8-1.645-.8-2.844Zm1.661.144c0 .752.144 1.339.431 1.763.292.42.704.629 1.237.629.679 0 1.176-.303 1.49-.909v-3.1582c-.305-.5924-.797-.8887-1.476-.8887-.538 0-.953.2142-1.244.6426-.292.4239-.438 1.0642-.438 1.9213Zm12.4-5.5853v1.7978h1.306v1.2305h-1.306v4.129c0 .282.055.488.164.615.114.123.315.185.602.185.191 0 .385-.023.581-.069v1.285c-.378.105-.743.158-1.094.158-1.276 0-1.914-.704-1.914-2.113v-4.19h-1.217v-1.2305h1.217v-1.7978h1.661ZM133.136 104h-1.661v-7.3965h1.661V104Zm-1.764-9.3174c0-.2552.08-.4671.24-.6357.164-.1686.396-.253.697-.253.301 0 .533.0844.697.253.164.1686.246.3805.246.6357 0 .2507-.082.4603-.246.6289-.164.1641-.396.2461-.697.2461-.301 0-.533-.082-.697-.2461-.16-.1686-.24-.3782-.24-.6289Zm5.281 1.9209.048.7725c.519-.6061 1.23-.9092 2.133-.9092.989 0 1.665.3783 2.03 1.1348.538-.7565 1.294-1.1348 2.269-1.1348.816 0 1.422.2256 1.819.6768.401.4511.606 1.1165.615 1.996V104h-1.661v-4.8125c0-.4694-.103-.8135-.308-1.0322-.205-.2188-.544-.3282-1.018-.3282-.379 0-.688.1026-.93.3077-.237.2005-.403.4648-.499.7929l.007 5.0723h-1.661v-4.8672c-.023-.8704-.467-1.3057-1.333-1.3057-.666 0-1.137.2712-1.415.8135V104h-1.661v-7.3965h1.565Zm14.017 7.5335c-1.053 0-1.907-.331-2.564-.991-.651-.666-.977-1.55-.977-2.653v-.205c0-.7382.141-1.3967.424-1.9755.287-.5833.688-1.0368 1.203-1.3604.515-.3235 1.089-.4853 1.722-.4853 1.008 0 1.785.3213 2.332.9639.551.6425.827 1.5517.827 2.7273v.67h-4.833c.05.611.253 1.094.608 1.449.36.356.811.534 1.354.534.761 0 1.38-.308 1.859-.923l.895.854c-.296.442-.692.786-1.189 1.032-.492.242-1.046.363-1.661.363Zm-.198-6.3372c-.456 0-.825.1595-1.108.4785-.278.319-.456.7634-.533 1.333h3.165v-.123c-.036-.556-.185-.9753-.444-1.2578-.26-.2871-.62-.4307-1.08-.4307Z" fill="#000"/><path d="m180 99-1.41-1.41-5.59 5.58V91h-2v12.17l-5.58-5.59L164 99l8 8 8-8Z" fill="#000" opacity=".54"/><g filter="url(#g)"><path fill="#fff" d="M56 127h176v52H56z"/><path opacity=".87" d="M79.3486 158h-6.5215v-.909l3.4454-3.828c.5104-.579.8613-1.048 1.0527-1.409.196-.364.2939-.74.2939-1.127 0-.52-.1572-.946-.4716-1.279-.3145-.332-.7338-.499-1.2579-.499-.6289 0-1.1188.18-1.4697.54-.3463.356-.5195.852-.5195 1.49h-1.2647c0-.916.294-1.656.8819-2.221.5924-.565 1.3831-.848 2.372-.848.9252 0 1.6566.244 2.1944.732.5377.483.8066 1.128.8066 1.934 0 .98-.6243 2.147-1.873 3.5l-2.666 2.892h4.997V158Zm7.7211-4.245c0 1.481-.2529 2.582-.7588 3.302-.5059.72-1.2966 1.08-2.3721 1.08-1.0618 0-1.848-.351-2.3584-1.053-.5104-.706-.7747-1.759-.7929-3.158v-1.689c0-1.463.2529-2.549.7588-3.26.5058-.711 1.2988-1.067 2.3789-1.067 1.0709 0 1.8593.344 2.3652 1.032.5059.684.7656 1.741.7793 3.172v1.641Zm-1.2647-1.73c0-1.071-.1504-1.85-.4511-2.337-.3008-.493-.7771-.739-1.4287-.739-.6472 0-1.1189.244-1.4151.732-.2962.487-.4489 1.237-.458 2.249v2.023c0 1.076.155 1.871.4649 2.386.3144.51.7884.765 1.4218.765.6244 0 1.0869-.241 1.3877-.724.3054-.483.4649-1.244.4785-2.283v-2.072ZM95.3513 158h-6.5215v-.909l3.4453-3.828c.5104-.579.8613-1.048 1.0528-1.409.1959-.364.2939-.74.2939-1.127 0-.52-.1572-.946-.4717-1.279-.3144-.332-.7337-.499-1.2578-.499-.6289 0-1.1188.18-1.4697.54-.3464.356-.5196.852-.5196 1.49h-1.2646c0-.916.2939-1.656.8818-2.221.5925-.565 1.3832-.848 2.3721-.848.9251 0 1.6566.244 2.1943.732.5378.483.8067 1.128.8067 1.934 0 .98-.6244 2.147-1.8731 3.5l-2.666 2.892h4.9971V158Zm5.6357 0h-1.2711v-8.429l-2.5498.937v-1.149l3.6229-1.36h.198V158Zm6.607-3.712h-3.336v-1.032h3.336v1.032Zm7.489-.533c0 1.481-.253 2.582-.759 3.302-.506.72-1.297 1.08-2.372 1.08-1.062 0-1.848-.351-2.358-1.053-.511-.706-.775-1.759-.793-3.158v-1.689c0-1.463.253-2.549.758-3.26.506-.711 1.299-1.067 2.379-1.067 1.071 0 1.86.344 2.366 1.032.505.684.765 1.741.779 3.172v1.641Zm-1.265-1.73c0-1.071-.15-1.85-.451-2.337-.301-.493-.777-.739-1.429-.739-.647 0-1.119.244-1.415.732-.296.487-.449 1.237-.458 2.249v2.023c0 1.076.155 1.871.465 2.386.315.51.788.765 1.422.765.624 0 1.087-.241 1.388-.724.305-.483.464-1.244.478-2.283v-2.072Zm7.181 5.975h-1.271v-8.429l-2.55.937v-1.149l3.623-1.36h.198V158Zm6.607-3.712h-3.336v-1.032h3.336v1.032ZM133.01 158h-1.272v-8.429l-2.55.937v-1.149l3.623-1.36h.199V158Zm9.184-3.343h1.38v1.032h-1.38V158h-1.272v-2.311h-4.532v-.745l4.457-6.897h1.347v6.61Zm-4.369 0h3.097v-4.881l-.15.274-2.947 4.607Zm14.8 3.343h-1.272v-8.429l-2.549.937v-1.149l3.623-1.36h.198V158Zm10.271-9.242L158.774 158h-1.326l4.108-8.914h-5.387v-1.039h6.727v.711Zm1.664 8.579c0-.219.064-.401.192-.547.132-.146.328-.219.588-.219.259 0 .455.073.587.219.137.146.205.328.205.547 0 .21-.068.385-.205.526-.132.142-.328.212-.587.212-.26 0-.456-.07-.588-.212-.128-.141-.192-.316-.192-.526Zm.007-6.036c0-.219.064-.401.191-.547.133-.146.329-.219.588-.219.26 0 .456.073.588.219.137.146.205.328.205.547 0 .209-.068.385-.205.526-.132.141-.328.212-.588.212-.259 0-.455-.071-.588-.212-.127-.141-.191-.317-.191-.526Zm5.274 1.107h.95c.597-.009 1.066-.166 1.408-.471.342-.306.513-.718.513-1.238 0-1.166-.581-1.75-1.743-1.75-.547 0-.985.157-1.313.472-.323.31-.485.722-.485 1.237h-1.265c0-.788.287-1.442.862-1.962.578-.524 1.312-.786 2.201-.786.939 0 1.675.249 2.208.745.533.497.8 1.187.8 2.072 0 .433-.142.852-.424 1.257-.278.406-.659.709-1.142.91.547.173.969.46 1.265.861.301.401.451.891.451 1.47 0 .893-.292 1.601-.875 2.126-.583.524-1.342.786-2.276.786-.935 0-1.696-.253-2.284-.759-.583-.506-.875-1.174-.875-2.003h1.272c0 .524.171.943.513 1.258.341.314.799.471 1.374.471.61 0 1.077-.159 1.401-.478.324-.319.485-.777.485-1.374 0-.579-.177-1.023-.533-1.333-.355-.31-.868-.469-1.538-.479h-.95v-1.032Zm8.001 0h.95c.597-.009 1.067-.166 1.409-.471.341-.306.512-.718.512-1.238 0-1.166-.581-1.75-1.743-1.75-.547 0-.984.157-1.312.472-.324.31-.486.722-.486 1.237h-1.264c0-.788.287-1.442.861-1.962.579-.524 1.312-.786 2.201-.786.939 0 1.675.249 2.208.745.533.497.8 1.187.8 2.072 0 .433-.141.852-.424 1.257-.278.406-.658.709-1.142.91.547.173.969.46 1.265.861.301.401.451.891.451 1.47 0 .893-.291 1.601-.875 2.126-.583.524-1.342.786-2.276.786-.934 0-1.695-.253-2.283-.759-.584-.506-.875-1.174-.875-2.003h1.271c0 .524.171.943.513 1.258.342.314.8.471 1.374.471.611 0 1.078-.159 1.401-.478.324-.319.486-.777.486-1.374 0-.579-.178-1.023-.534-1.333-.355-.31-.868-.469-1.538-.479h-.95v-1.032Zm6.252 4.929c0-.219.063-.401.191-.547.132-.146.328-.219.588-.219.26 0 .456.073.588.219.136.146.205.328.205.547 0 .21-.069.385-.205.526-.132.142-.328.212-.588.212-.26 0-.456-.07-.588-.212-.128-.141-.191-.316-.191-.526Zm.006-6.036c0-.219.064-.401.192-.547.132-.146.328-.219.588-.219.259 0 .455.073.588.219.136.146.205.328.205.547 0 .209-.069.385-.205.526-.133.141-.329.212-.588.212-.26 0-.456-.071-.588-.212-.128-.141-.192-.317-.192-.526Zm4.016 1.709.506-4.963h5.1v1.169h-4.027l-.3 2.714c.487-.287 1.041-.431 1.661-.431.907 0 1.627.301 2.16.902.533.597.8 1.406.8 2.427 0 1.026-.278 1.834-.834 2.427-.552.588-1.324.882-2.318.882-.879 0-1.597-.244-2.153-.732-.556-.487-.873-1.162-.95-2.023h1.196c.078.569.28 1 .609 1.292.328.287.761.43 1.298.43.588 0 1.049-.2 1.381-.601.337-.401.506-.955.506-1.661 0-.666-.182-1.199-.547-1.6-.36-.405-.841-.608-1.442-.608-.552 0-.985.121-1.299.362l-.335.274-1.012-.26Zm13.846-4.252L197.84 158h-1.326l4.109-8.914h-5.387v-1.039h6.726v.711Z" fill="#000"/></g><g filter="url(#h)"><path fill="#fff" d="M56 179h176v52H56z"/><path opacity=".87" d="M79.3486 210h-6.5215v-.909l3.4454-3.828c.5104-.579.8613-1.048 1.0527-1.409.196-.364.2939-.74.2939-1.127 0-.52-.1572-.946-.4716-1.279-.3145-.332-.7338-.499-1.2579-.499-.6289 0-1.1188.18-1.4697.54-.3463.356-.5195.852-.5195 1.49h-1.2647c0-.916.294-1.656.8819-2.221.5924-.565 1.3831-.848 2.372-.848.9252 0 1.6566.244 2.1944.732.5377.483.8066 1.128.8066 1.934 0 .98-.6243 2.147-1.873 3.5l-2.666 2.892h4.997V210Zm7.7211-4.245c0 1.481-.2529 2.582-.7588 3.302-.5059.72-1.2966 1.08-2.3721 1.08-1.0618 0-1.848-.351-2.3584-1.053-.5104-.706-.7747-1.759-.7929-3.158v-1.689c0-1.463.2529-2.549.7588-3.26.5058-.711 1.2988-1.067 2.3789-1.067 1.0709 0 1.8593.344 2.3652 1.032.5059.684.7656 1.741.7793 3.172v1.641Zm-1.2647-1.73c0-1.071-.1504-1.85-.4511-2.337-.3008-.493-.7771-.739-1.4287-.739-.6472 0-1.1189.244-1.4151.732-.2962.487-.4489 1.237-.458 2.249v2.023c0 1.076.155 1.871.4649 2.386.3144.51.7884.765 1.4218.765.6244 0 1.0869-.241 1.3877-.724.3054-.483.4649-1.244.4785-2.283v-2.072ZM95.3513 210h-6.5215v-.909l3.4453-3.828c.5104-.579.8613-1.048 1.0528-1.409.1959-.364.2939-.74.2939-1.127 0-.52-.1572-.946-.4717-1.279-.3144-.332-.7337-.499-1.2578-.499-.6289 0-1.1188.18-1.4697.54-.3464.356-.5196.852-.5196 1.49h-1.2646c0-.916.2939-1.656.8818-2.221.5925-.565 1.3832-.848 2.3721-.848.9251 0 1.6566.244 2.1943.732.5378.483.8067 1.128.8067 1.934 0 .98-.6244 2.147-1.8731 3.5l-2.666 2.892h4.9971V210Zm7.7207-4.245c0 1.481-.253 2.582-.758 3.302-.506.72-1.297 1.08-2.3725 1.08-1.0619 0-1.848-.351-2.3584-1.053-.5104-.706-.7748-1.759-.793-3.158v-1.689c0-1.463.2529-2.549.7588-3.26.5059-.711 1.2988-1.067 2.3789-1.067 1.0712 0 1.8592.344 2.3652 1.032.506.684.766 1.741.779 3.172v1.641Zm-1.264-1.73c0-1.071-.151-1.85-.451-2.337-.301-.493-.777-.739-1.4292-.739-.6471 0-1.1188.244-1.415.732-.2963.487-.4489 1.237-.458 2.249v2.023c0 1.076.1549 1.871.4648 2.386.3145.51.7884.765 1.4219.765.6245 0 1.0865-.241 1.3875-.724.306-.483.465-1.244.479-2.283v-2.072Zm5.786 2.263h-3.336v-1.032h3.336v1.032Zm7.489-.533c0 1.481-.253 2.582-.759 3.302-.506.72-1.297 1.08-2.372 1.08-1.062 0-1.848-.351-2.358-1.053-.511-.706-.775-1.759-.793-3.158v-1.689c0-1.463.253-2.549.758-3.26.506-.711 1.299-1.067 2.379-1.067 1.071 0 1.86.344 2.366 1.032.505.684.765 1.741.779 3.172v1.641Zm-1.265-1.73c0-1.071-.15-1.85-.451-2.337-.301-.493-.777-.739-1.429-.739-.647 0-1.119.244-1.415.732-.296.487-.449 1.237-.458 2.249v2.023c0 1.076.155 1.871.465 2.386.315.51.788.765 1.422.765.624 0 1.087-.241 1.388-.724.305-.483.464-1.244.478-2.283v-2.072Zm9.451-3.267L119.147 210h-1.327l4.109-8.914h-5.387v-1.039h6.727v.711Zm4.337 5.53h-3.336v-1.032h3.336v1.032Zm7.769 3.712h-6.522v-.909l3.446-3.828c.51-.579.861-1.048 1.052-1.409.196-.364.294-.74.294-1.127 0-.52-.157-.946-.471-1.279-.315-.332-.734-.499-1.258-.499-.629 0-1.119.18-1.47.54-.346.356-.519.852-.519 1.49h-1.265c0-.916.294-1.656.882-2.221.592-.565 1.383-.848 2.372-.848.925 0 1.656.244 2.194.732.538.483.807 1.128.807 1.934 0 .98-.624 2.147-1.873 3.5l-2.666 2.892h4.997V210Zm6.326-4.375c-.264.314-.581.567-.95.759-.364.191-.765.287-1.203.287-.574 0-1.075-.141-1.504-.424-.424-.282-.752-.679-.984-1.189-.233-.515-.349-1.083-.349-1.703 0-.665.125-1.264.376-1.797.255-.534.615-.941 1.08-1.224.465-.283 1.007-.424 1.627-.424.985 0 1.759.369 2.324 1.108.57.733.855 1.736.855 3.007v.37c0 1.936-.383 3.351-1.149 4.245-.765.888-1.92 1.344-3.465 1.367h-.246v-1.067h.266c1.044-.018 1.846-.289 2.406-.813.561-.529.866-1.363.916-2.502Zm-1.948 0c.424 0 .814-.13 1.169-.39.36-.259.622-.581.786-.964v-.505c0-.83-.18-1.504-.54-2.024-.36-.519-.816-.779-1.367-.779-.556 0-1.003.214-1.34.642-.337.424-.506.985-.506 1.682 0 .679.162 1.24.486 1.682.328.437.765.656 1.312.656Zm14.957.13c0 1.481-.253 2.582-.759 3.302-.506.72-1.296 1.08-2.372 1.08-1.062 0-1.848-.351-2.358-1.053-.511-.706-.775-1.759-.793-3.158v-1.689c0-1.463.253-2.549.758-3.26.506-.711 1.299-1.067 2.379-1.067 1.071 0 1.86.344 2.366 1.032.505.684.765 1.741.779 3.172v1.641Zm-1.265-1.73c0-1.071-.15-1.85-.451-2.337-.301-.493-.777-.739-1.429-.739-.647 0-1.118.244-1.415.732-.296.487-.449 1.237-.458 2.249v2.023c0 1.076.155 1.871.465 2.386.315.51.789.765 1.422.765.624 0 1.087-.241 1.388-.724.305-.483.465-1.244.478-2.283v-2.072Zm8.364 2.632h1.381v1.032h-1.381V210h-1.272v-2.311h-4.532v-.745l4.457-6.897h1.347v6.61Zm-4.368 0h3.096v-4.881l-.15.274-2.946 4.607Zm7.119 2.68c0-.219.064-.401.192-.547.132-.146.328-.219.588-.219.259 0 .455.073.587.219.137.146.205.328.205.547 0 .21-.068.385-.205.526-.132.142-.328.212-.587.212-.26 0-.456-.07-.588-.212-.128-.141-.192-.316-.192-.526Zm.007-6.036c0-.219.064-.401.191-.547.133-.146.329-.219.588-.219.26 0 .456.073.588.219.137.146.205.328.205.547 0 .209-.068.385-.205.526-.132.141-.328.212-.588.212-.259 0-.455-.071-.588-.212-.127-.141-.191-.317-.191-.526Zm5.274 1.107h.95c.597-.009 1.066-.166 1.408-.471.342-.306.513-.718.513-1.238 0-1.166-.581-1.75-1.743-1.75-.547 0-.985.157-1.313.472-.323.31-.485.722-.485 1.237h-1.265c0-.788.287-1.442.862-1.962.578-.524 1.312-.786 2.201-.786.939 0 1.675.249 2.208.745.533.497.8 1.187.8 2.072 0 .433-.142.852-.424 1.257-.278.406-.659.709-1.142.91.547.173.969.46 1.265.861.301.401.451.891.451 1.47 0 .893-.292 1.601-.875 2.126-.583.524-1.342.786-2.276.786-.935 0-1.696-.253-2.284-.759-.583-.506-.875-1.174-.875-2.003h1.272c0 .524.171.943.513 1.258.341.314.799.471 1.374.471.61 0 1.077-.159 1.401-.478.324-.319.485-.777.485-1.374 0-.579-.177-1.023-.533-1.333-.355-.31-.868-.469-1.538-.479h-.95v-1.032Zm11.501 2.249h1.381v1.032h-1.381V210h-1.271v-2.311h-4.533v-.745l4.458-6.897h1.346v6.61Zm-4.368 0h3.097v-4.881l-.151.274-2.946 4.607Zm7.12 2.68c0-.219.063-.401.191-.547.132-.146.328-.219.588-.219.26 0 .456.073.588.219.136.146.205.328.205.547 0 .21-.069.385-.205.526-.132.142-.328.212-.588.212-.26 0-.456-.07-.588-.212-.128-.141-.191-.316-.191-.526Zm.006-6.036c0-.219.064-.401.192-.547.132-.146.328-.219.588-.219.259 0 .455.073.588.219.136.146.205.328.205.547 0 .209-.069.385-.205.526-.133.141-.329.212-.588.212-.26 0-.456-.071-.588-.212-.128-.141-.192-.317-.192-.526Zm9.957 6.699h-6.522v-.909l3.446-3.828c.51-.579.861-1.048 1.052-1.409.196-.364.294-.74.294-1.127 0-.52-.157-.946-.471-1.279-.315-.332-.734-.499-1.258-.499-.629 0-1.119.18-1.47.54-.346.356-.519.852-.519 1.49h-1.265c0-.916.294-1.656.882-2.221.592-.565 1.383-.848 2.372-.848.925 0 1.656.244 2.194.732.538.483.807 1.128.807 1.934 0 .98-.625 2.147-1.873 3.5l-2.666 2.892h4.997V210Zm2.061-4.99.506-4.963h5.099v1.169h-4.026l-.301 2.714c.488-.287 1.041-.431 1.661-.431.907 0 1.627.301 2.16.902.533.597.8 1.406.8 2.427 0 1.026-.278 1.834-.834 2.427-.551.588-1.324.882-2.317.882-.88 0-1.598-.244-2.154-.732-.556-.487-.872-1.162-.95-2.023h1.196c.078.569.281 1 .609 1.292.328.287.761.43 1.299.43.588 0 1.048-.2 1.381-.601.337-.401.505-.955.505-1.661 0-.666-.182-1.199-.546-1.6-.36-.405-.841-.608-1.443-.608-.551 0-.984.121-1.299.362l-.335.274-1.011-.26Z" fill="#000"/></g><g filter="url(#i)"><path fill="#fff" d="M56 231h176v52H56z"/><path fill="#000" fill-opacity=".04" d="M56 231h176v52H56z"/><path opacity=".87" d="M79.3486 262h-6.5215v-.909l3.4454-3.828c.5104-.579.8613-1.048 1.0527-1.409.196-.364.2939-.74.2939-1.127 0-.52-.1572-.946-.4716-1.279-.3145-.332-.7338-.499-1.2579-.499-.6289 0-1.1188.18-1.4697.54-.3463.356-.5195.852-.5195 1.49h-1.2647c0-.916.294-1.656.8819-2.221.5924-.565 1.3831-.848 2.372-.848.9252 0 1.6566.244 2.1944.732.5377.483.8066 1.128.8066 1.934 0 .98-.6243 2.147-1.873 3.5l-2.666 2.892h4.997V262Zm7.7211-4.245c0 1.481-.2529 2.582-.7588 3.302-.5059.72-1.2966 1.08-2.3721 1.08-1.0618 0-1.848-.351-2.3584-1.053-.5104-.706-.7747-1.759-.7929-3.158v-1.689c0-1.463.2529-2.549.7588-3.26.5058-.711 1.2988-1.067 2.3789-1.067 1.0709 0 1.8593.344 2.3652 1.032.5059.684.7656 1.741.7793 3.172v1.641Zm-1.2647-1.73c0-1.071-.1504-1.85-.4511-2.337-.3008-.493-.7771-.739-1.4287-.739-.6472 0-1.1189.244-1.4151.732-.2962.487-.4489 1.237-.458 2.249v2.023c0 1.076.155 1.871.4649 2.386.3144.51.7884.765 1.4218.765.6244 0 1.0869-.241 1.3877-.724.3054-.483.4649-1.244.4785-2.283v-2.072ZM95.3513 262h-6.5215v-.909l3.4453-3.828c.5104-.579.8613-1.048 1.0528-1.409.1959-.364.2939-.74.2939-1.127 0-.52-.1572-.946-.4717-1.279-.3144-.332-.7337-.499-1.2578-.499-.6289 0-1.1188.18-1.4697.54-.3464.356-.5196.852-.5196 1.49h-1.2646c0-.916.2939-1.656.8818-2.221.5925-.565 1.3832-.848 2.3721-.848.9251 0 1.6566.244 2.1943.732.5378.483.8067 1.128.8067 1.934 0 .98-.6244 2.147-1.8731 3.5l-2.666 2.892h4.9971V262Zm7.7207-4.245c0 1.481-.253 2.582-.758 3.302-.506.72-1.297 1.08-2.3725 1.08-1.0619 0-1.848-.351-2.3584-1.053-.5104-.706-.7748-1.759-.793-3.158v-1.689c0-1.463.2529-2.549.7588-3.26.5059-.711 1.2988-1.067 2.3789-1.067 1.0712 0 1.8592.344 2.3652 1.032.506.684.766 1.741.779 3.172v1.641Zm-1.264-1.73c0-1.071-.151-1.85-.451-2.337-.301-.493-.777-.739-1.4292-.739-.6471 0-1.1188.244-1.415.732-.2963.487-.4489 1.237-.458 2.249v2.023c0 1.076.1549 1.871.4648 2.386.3145.51.7884.765 1.4219.765.6245 0 1.0865-.241 1.3875-.724.306-.483.465-1.244.479-2.283v-2.072Zm5.786 2.263h-3.336v-1.032h3.336v1.032Zm7.489-.533c0 1.481-.253 2.582-.759 3.302-.506.72-1.297 1.08-2.372 1.08-1.062 0-1.848-.351-2.358-1.053-.511-.706-.775-1.759-.793-3.158v-1.689c0-1.463.253-2.549.758-3.26.506-.711 1.299-1.067 2.379-1.067 1.071 0 1.86.344 2.366 1.032.505.684.765 1.741.779 3.172v1.641Zm-1.265-1.73c0-1.071-.15-1.85-.451-2.337-.301-.493-.777-.739-1.429-.739-.647 0-1.119.244-1.415.732-.296.487-.449 1.237-.458 2.249v2.023c0 1.076.155 1.871.465 2.386.315.51.788.765 1.422.765.624 0 1.087-.241 1.388-.724.305-.483.464-1.244.478-2.283v-2.072Zm7.988-3.985v1.073h-.233c-.984.019-1.768.31-2.351.875s-.921 1.361-1.012 2.386c.524-.602 1.24-.902 2.147-.902.865 0 1.556.305 2.071.916.519.61.779 1.399.779 2.365 0 1.025-.28 1.846-.841 2.461-.556.615-1.303.923-2.242.923-.952 0-1.725-.365-2.317-1.094-.593-.734-.889-1.677-.889-2.83v-.485c0-1.832.39-3.232 1.169-4.198.784-.97 1.948-1.467 3.493-1.49h.226Zm-1.661 4.484c-.433 0-.832.13-1.197.39-.364.26-.617.586-.758.978v.464c0 .821.184 1.482.553 1.983.369.501.83.752 1.381.752.57 0 1.016-.21 1.34-.629.328-.419.492-.969.492-1.648 0-.683-.166-1.235-.499-1.654-.328-.424-.765-.636-1.312-.636Zm7.461 1.764h-3.336v-1.032h3.336v1.032Zm7.489-.533c0 1.481-.253 2.582-.759 3.302-.506.72-1.297 1.08-2.372 1.08-1.062 0-1.848-.351-2.359-1.053-.51-.706-.774-1.759-.793-3.158v-1.689c0-1.463.253-2.549.759-3.26.506-.711 1.299-1.067 2.379-1.067 1.071 0 1.859.344 2.365 1.032.506.684.766 1.741.78 3.172v1.641Zm-1.265-1.73c0-1.071-.15-1.85-.451-2.337-.301-.493-.777-.739-1.429-.739-.647 0-1.119.244-1.415.732-.296.487-.449 1.237-.458 2.249v2.023c0 1.076.155 1.871.465 2.386.314.51.788.765 1.422.765.624 0 1.087-.241 1.387-.724.306-.483.465-1.244.479-2.283v-2.072Zm8.364 2.632h1.38v1.032h-1.38V262h-1.272v-2.311h-4.532v-.745l4.457-6.897h1.347v6.61Zm-4.369 0h3.097v-4.881l-.15.274-2.947 4.607Zm16.885-.902c0 1.481-.253 2.582-.759 3.302-.506.72-1.296 1.08-2.372 1.08-1.062 0-1.848-.351-2.358-1.053-.511-.706-.775-1.759-.793-3.158v-1.689c0-1.463.253-2.549.758-3.26.506-.711 1.299-1.067 2.379-1.067 1.071 0 1.86.344 2.366 1.032.505.684.765 1.741.779 3.172v1.641Zm-1.265-1.73c0-1.071-.15-1.85-.451-2.337-.301-.493-.777-.739-1.429-.739-.647 0-1.118.244-1.415.732-.296.487-.449 1.237-.458 2.249v2.023c0 1.076.155 1.871.465 2.386.315.51.789.765 1.422.765.624 0 1.087-.241 1.388-.724.305-.483.465-1.244.478-2.283v-2.072Zm4.864.383h.95c.597-.009 1.067-.166 1.408-.471.342-.306.513-.718.513-1.238 0-1.166-.581-1.75-1.743-1.75-.547 0-.985.157-1.313.472-.323.31-.485.722-.485 1.237h-1.265c0-.788.287-1.442.862-1.962.578-.524 1.312-.786 2.201-.786.939 0 1.675.249 2.208.745.533.497.8 1.187.8 2.072 0 .433-.142.852-.424 1.257-.278.406-.659.709-1.142.91.547.173.969.46 1.265.861.301.401.451.891.451 1.47 0 .893-.292 1.601-.875 2.126-.583.524-1.342.786-2.276.786-.935 0-1.696-.253-2.284-.759-.583-.506-.875-1.174-.875-2.003h1.272c0 .524.171.943.513 1.258.341.314.799.471 1.374.471.61 0 1.077-.159 1.401-.478.324-.319.485-.777.485-1.374 0-.579-.177-1.023-.533-1.333-.355-.31-.868-.469-1.538-.479h-.95v-1.032Zm6.251 4.929c0-.219.064-.401.192-.547.132-.146.328-.219.588-.219.259 0 .455.073.587.219.137.146.205.328.205.547 0 .21-.068.385-.205.526-.132.142-.328.212-.587.212-.26 0-.456-.07-.588-.212-.128-.141-.192-.316-.192-.526Zm.007-6.036c0-.219.064-.401.191-.547.133-.146.329-.219.588-.219.26 0 .456.073.588.219.137.146.205.328.205.547 0 .209-.068.385-.205.526-.132.141-.328.212-.588.212-.259 0-.455-.071-.588-.212-.127-.141-.191-.317-.191-.526Zm9.956 6.699h-6.521v-.909l3.445-3.828c.511-.579.862-1.048 1.053-1.409.196-.364.294-.74.294-1.127 0-.52-.157-.946-.472-1.279-.314-.332-.733-.499-1.258-.499-.628 0-1.118.18-1.469.54-.347.356-.52.852-.52 1.49h-1.264c0-.916.294-1.656.881-2.221.593-.565 1.384-.848 2.372-.848.926 0 1.657.244 2.195.732.538.483.806 1.128.806 1.934 0 .98-.624 2.147-1.873 3.5l-2.666 2.892h4.997V262Zm5.637 0h-1.272v-8.429l-2.55.937v-1.149l3.623-1.36h.199V262Zm3.934-.663c0-.219.063-.401.191-.547.132-.146.328-.219.588-.219.26 0 .456.073.588.219.136.146.205.328.205.547 0 .21-.069.385-.205.526-.132.142-.328.212-.588.212-.26 0-.456-.07-.588-.212-.128-.141-.191-.316-.191-.526Zm.006-6.036c0-.219.064-.401.192-.547.132-.146.328-.219.588-.219.259 0 .455.073.588.219.136.146.205.328.205.547 0 .209-.069.385-.205.526-.133.141-.329.212-.588.212-.26 0-.456-.071-.588-.212-.128-.141-.192-.317-.192-.526Zm7.592 6.699h-1.272v-8.429l-2.55.937v-1.149l3.623-1.36h.199V262Zm8.807-9.96v1.073h-.232c-.984.019-1.768.31-2.351.875-.584.565-.921 1.361-1.012 2.386.524-.602 1.239-.902 2.146-.902.866 0 1.557.305 2.072.916.519.61.779 1.399.779 2.365 0 1.025-.28 1.846-.841 2.461-.556.615-1.303.923-2.242.923-.953 0-1.725-.365-2.318-1.094-.592-.734-.888-1.677-.888-2.83v-.485c0-1.832.389-3.232 1.169-4.198.784-.97 1.948-1.467 3.493-1.49h.225Zm-1.661 4.484c-.433 0-.831.13-1.196.39s-.617.586-.759.978v.464c0 .821.185 1.482.554 1.983.369.501.829.752 1.381.752.57 0 1.016-.21 1.34-.629.328-.419.492-.969.492-1.648 0-.683-.166-1.235-.499-1.654-.328-.424-.766-.636-1.313-.636Z" fill="#000"/></g><g filter="url(#j)"><path fill="#fff" d="M56 283h176v52H56z"/><path opacity=".87" d="M79.3486 314h-6.5215v-.909l3.4454-3.828c.5104-.579.8613-1.048 1.0527-1.409.196-.364.2939-.74.2939-1.127 0-.52-.1572-.946-.4716-1.279-.3145-.332-.7338-.499-1.2579-.499-.6289 0-1.1188.18-1.4697.54-.3463.356-.5195.852-.5195 1.49h-1.2647c0-.916.294-1.656.8819-2.221.5924-.565 1.3831-.848 2.372-.848.9252 0 1.6566.244 2.1944.732.5377.483.8066 1.128.8066 1.934 0 .98-.6243 2.147-1.873 3.5l-2.666 2.892h4.997V314Zm7.7211-4.245c0 1.481-.2529 2.582-.7588 3.302-.5059.72-1.2966 1.08-2.3721 1.08-1.0618 0-1.848-.351-2.3584-1.053-.5104-.706-.7747-1.759-.7929-3.158v-1.689c0-1.463.2529-2.549.7588-3.26.5058-.711 1.2988-1.067 2.3789-1.067 1.0709 0 1.8593.344 2.3652 1.032.5059.684.7656 1.741.7793 3.172v1.641Zm-1.2647-1.73c0-1.071-.1504-1.85-.4511-2.337-.3008-.493-.7771-.739-1.4287-.739-.6472 0-1.1189.244-1.4151.732-.2962.487-.4489 1.237-.458 2.249v2.023c0 1.076.155 1.871.4649 2.386.3144.51.7884.765 1.4218.765.6244 0 1.0869-.241 1.3877-.724.3054-.483.4649-1.244.4785-2.283v-2.072ZM95.3513 314h-6.5215v-.909l3.4453-3.828c.5104-.579.8613-1.048 1.0528-1.409.1959-.364.2939-.74.2939-1.127 0-.52-.1572-.946-.4717-1.279-.3144-.332-.7337-.499-1.2578-.499-.6289 0-1.1188.18-1.4697.54-.3464.356-.5196.852-.5196 1.49h-1.2646c0-.916.2939-1.656.8818-2.221.5925-.565 1.3832-.848 2.3721-.848.9251 0 1.6566.244 2.1943.732.5378.483.8067 1.128.8067 1.934 0 .98-.6244 2.147-1.8731 3.5l-2.666 2.892h4.9971V314Zm7.7207-4.245c0 1.481-.253 2.582-.758 3.302-.506.72-1.297 1.08-2.3725 1.08-1.0619 0-1.848-.351-2.3584-1.053-.5104-.706-.7748-1.759-.793-3.158v-1.689c0-1.463.2529-2.549.7588-3.26.5059-.711 1.2988-1.067 2.3789-1.067 1.0712 0 1.8592.344 2.3652 1.032.506.684.766 1.741.779 3.172v1.641Zm-1.264-1.73c0-1.071-.151-1.85-.451-2.337-.301-.493-.777-.739-1.4292-.739-.6471 0-1.1188.244-1.415.732-.2963.487-.4489 1.237-.458 2.249v2.023c0 1.076.1549 1.871.4648 2.386.3145.51.7884.765 1.4219.765.6245 0 1.0865-.241 1.3875-.724.306-.483.465-1.244.479-2.283v-2.072Zm5.786 2.263h-3.336v-1.032h3.336v1.032Zm7.489-.533c0 1.481-.253 2.582-.759 3.302-.506.72-1.297 1.08-2.372 1.08-1.062 0-1.848-.351-2.358-1.053-.511-.706-.775-1.759-.793-3.158v-1.689c0-1.463.253-2.549.758-3.26.506-.711 1.299-1.067 2.379-1.067 1.071 0 1.86.344 2.366 1.032.505.684.765 1.741.779 3.172v1.641Zm-1.265-1.73c0-1.071-.15-1.85-.451-2.337-.301-.493-.777-.739-1.429-.739-.647 0-1.119.244-1.415.732-.296.487-.449 1.237-.458 2.249v2.023c0 1.076.155 1.871.465 2.386.315.51.788.765 1.422.765.624 0 1.087-.241 1.388-.724.305-.483.464-1.244.478-2.283v-2.072Zm3.606.985.506-4.963h5.099v1.169h-4.026l-.301 2.714c.488-.287 1.042-.431 1.661-.431.907 0 1.627.301 2.161.902.533.597.799 1.406.799 2.427 0 1.026-.278 1.834-.834 2.427-.551.588-1.323.882-2.317.882-.88 0-1.597-.244-2.153-.732-.556-.487-.873-1.162-.95-2.023h1.196c.077.569.28 1 .608 1.292.328.287.761.43 1.299.43.588 0 1.048-.2 1.381-.601.337-.401.506-.955.506-1.661 0-.666-.183-1.199-.547-1.6-.36-.405-.841-.608-1.443-.608-.551 0-.984.121-1.298.362l-.335.274-1.012-.26Zm10.182 1.278h-3.336v-1.032h3.336v1.032ZM133.01 314h-1.272v-8.429l-2.55.937v-1.149l3.623-1.36h.199V314Zm8.808-9.96v1.073h-.233c-.984.019-1.768.31-2.351.875-.584.565-.921 1.361-1.012 2.386.524-.602 1.239-.902 2.146-.902.866 0 1.557.305 2.072.916.519.61.779 1.399.779 2.365 0 1.025-.28 1.846-.841 2.461-.556.615-1.303.923-2.242.923-.952 0-1.725-.365-2.317-1.094-.593-.734-.889-1.677-.889-2.83v-.485c0-1.832.39-3.232 1.169-4.198.784-.97 1.948-1.467 3.493-1.49h.226Zm-1.662 4.484c-.432 0-.831.13-1.196.39-.364.26-.617.586-.759.978v.464c0 .821.185 1.482.554 1.983.369.501.83.752 1.381.752.57 0 1.016-.21 1.34-.629.328-.419.492-.969.492-1.648 0-.683-.166-1.235-.499-1.654-.328-.424-.766-.636-1.313-.636ZM152.625 314h-1.272v-8.429l-2.549.937v-1.149l3.623-1.36h.198V314Zm8.001 0h-1.271v-8.429l-2.55.937v-1.149l3.623-1.36h.198V314Zm3.934-.663c0-.219.064-.401.192-.547.132-.146.328-.219.588-.219.259 0 .455.073.587.219.137.146.205.328.205.547 0 .21-.068.385-.205.526-.132.142-.328.212-.587.212-.26 0-.456-.07-.588-.212-.128-.141-.192-.316-.192-.526Zm.007-6.036c0-.219.064-.401.191-.547.133-.146.329-.219.588-.219.26 0 .456.073.588.219.137.146.205.328.205.547 0 .209-.068.385-.205.526-.132.141-.328.212-.588.212-.259 0-.455-.071-.588-.212-.127-.141-.191-.317-.191-.526Zm9.676 2.454c0 1.481-.253 2.582-.759 3.302-.505.72-1.296 1.08-2.372 1.08-1.062 0-1.848-.351-2.358-1.053-.51-.706-.775-1.759-.793-3.158v-1.689c0-1.463.253-2.549.759-3.26.506-.711 1.299-1.067 2.379-1.067 1.071 0 1.859.344 2.365 1.032.506.684.766 1.741.779 3.172v1.641Zm-1.264-1.73c0-1.071-.151-1.85-.452-2.337-.3-.493-.777-.739-1.428-.739-.647 0-1.119.244-1.415.732-.297.487-.449 1.237-.458 2.249v2.023c0 1.076.155 1.871.464 2.386.315.51.789.765 1.422.765.625 0 1.087-.241 1.388-.724.305-.483.465-1.244.479-2.283v-2.072ZM180.16 314h-1.272v-8.429l-2.55.937v-1.149l3.623-1.36h.199V314Zm3.934-.663c0-.219.063-.401.191-.547.132-.146.328-.219.588-.219.26 0 .456.073.588.219.136.146.205.328.205.547 0 .21-.069.385-.205.526-.132.142-.328.212-.588.212-.26 0-.456-.07-.588-.212-.128-.141-.191-.316-.191-.526Zm.006-6.036c0-.219.064-.401.192-.547.132-.146.328-.219.588-.219.259 0 .455.073.588.219.136.146.205.328.205.547 0 .209-.069.385-.205.526-.133.141-.329.212-.588.212-.26 0-.456-.071-.588-.212-.128-.141-.192-.317-.192-.526Zm4.016 1.709.506-4.963h5.1v1.169h-4.027l-.3 2.714c.487-.287 1.041-.431 1.661-.431.907 0 1.627.301 2.16.902.533.597.8 1.406.8 2.427 0 1.026-.278 1.834-.834 2.427-.552.588-1.324.882-2.318.882-.879 0-1.597-.244-2.153-.732-.556-.487-.873-1.162-.95-2.023h1.196c.078.569.28 1 .609 1.292.328.287.761.43 1.298.43.588 0 1.049-.2 1.381-.601.337-.401.506-.955.506-1.661 0-.666-.182-1.199-.547-1.6-.36-.405-.841-.608-1.442-.608-.552 0-.985.121-1.299.362l-.335.274-1.012-.26Zm13.942 4.99h-6.521v-.909l3.445-3.828c.51-.579.861-1.048 1.053-1.409.196-.364.294-.74.294-1.127 0-.52-.158-.946-.472-1.279-.315-.332-.734-.499-1.258-.499-.629 0-1.119.18-1.47.54-.346.356-.519.852-.519 1.49h-1.265c0-.916.294-1.656.882-2.221.592-.565 1.383-.848 2.372-.848.925 0 1.657.244 2.194.732.538.483.807 1.128.807 1.934 0 .98-.624 2.147-1.873 3.5l-2.666 2.892h4.997V314Z" fill="#000"/></g><path fill="#fff" d="M232 71h250v56H232z"/><g clip-path="url(#k)"><path opacity=".87" d="M256.907 104h-1.729l-4.437-7.0615V104h-1.729v-9.9531h1.729l4.45 7.0891v-7.0891h1.716V104Zm6.443 0c-.073-.141-.137-.371-.191-.69-.529.551-1.176.827-1.942.827-.743 0-1.349-.212-1.818-.636-.47-.424-.704-.948-.704-1.572 0-.789.291-1.393.875-1.812.588-.4236 1.426-.6356 2.515-.6356h1.019v-.4853c0-.3828-.107-.6882-.321-.916-.215-.2324-.54-.3487-.978-.3487-.378 0-.688.0957-.93.2872-.241.1868-.362.4261-.362.7177h-1.661c0-.4056.134-.7838.403-1.1347.269-.3555.634-.6335 1.094-.834.465-.2005.982-.3008 1.552-.3008.866 0 1.556.2187 2.071.6562.515.433.779 1.0437.793 1.8321v3.3359c0 .665.093 1.196.28 1.593V104h-1.695Zm-1.825-1.196c.328 0 .636-.08.923-.24.291-.159.51-.373.656-.642v-1.395h-.896c-.615 0-1.077.107-1.387.322-.31.214-.465.517-.465.909 0 .319.105.574.314.765.214.187.499.281.855.281Zm6.682-6.2005.048.7725c.519-.6061 1.23-.9092 2.132-.9092.989 0 1.666.3783 2.031 1.1348.537-.7565 1.294-1.1348 2.269-1.1348.816 0 1.422.2256 1.819.6768.401.4511.606 1.1165.615 1.996V104h-1.661v-4.8125c0-.4694-.103-.8135-.308-1.0322-.205-.2188-.545-.3282-1.018-.3282-.379 0-.689.1026-.93.3077-.237.2005-.403.4648-.499.7929l.007 5.0723h-1.661v-4.8672c-.023-.8704-.468-1.3057-1.333-1.3057-.666 0-1.138.2712-1.416.8135V104h-1.661v-7.3965h1.566Zm14.017 7.5335c-1.053 0-1.908-.331-2.564-.991-.651-.666-.977-1.55-.977-2.653v-.205c0-.7382.141-1.3967.424-1.9755.287-.5833.688-1.0368 1.203-1.3604.515-.3235 1.089-.4853 1.722-.4853 1.007 0 1.784.3213 2.331.9639.552.6425.828 1.5517.828 2.7273v.67h-4.833c.05.611.252 1.094.608 1.449.36.356.811.534 1.353.534.761 0 1.381-.308 1.86-.923l.895.854c-.296.442-.692.786-1.189 1.032-.492.242-1.046.363-1.661.363Zm-.199-6.3372c-.455 0-.824.1595-1.107.4785-.278.319-.456.7634-.533 1.333h3.165v-.123c-.037-.556-.185-.9753-.444-1.2578-.26-.2871-.62-.4307-1.081-.4307Z" fill="#000"/></g><g filter="url(#l)"><path fill="#fff" d="M232 127h250v52H232z"/><path opacity=".87" d="M254.781 153.399h-4.313v3.528h5.011V158h-6.324v-9.953h6.255v1.08h-4.942v3.199h4.313v1.073Zm5.404.164c-1.126-.323-1.946-.72-2.461-1.189-.51-.474-.766-1.057-.766-1.75 0-.784.313-1.431.937-1.941.629-.515 1.445-.773 2.447-.773.684 0 1.292.132 1.825.397.538.264.953.629 1.244 1.093.297.465.445.973.445 1.525h-1.32c0-.602-.191-1.073-.574-1.415-.383-.347-.923-.52-1.62-.52-.647 0-1.153.144-1.517.431-.36.282-.54.677-.54 1.183 0 .405.17.749.512 1.032.347.278.932.533 1.757.765.829.233 1.477.49 1.941.773.47.278.816.604 1.04.977.227.374.341.814.341 1.32 0 .806-.314 1.453-.943 1.941-.629.483-1.47.725-2.522.725-.684 0-1.322-.13-1.915-.39-.592-.264-1.05-.624-1.374-1.08-.319-.456-.478-.973-.478-1.552h1.319c0 .602.221 1.078.663 1.429.447.346 1.042.519 1.785.519.692 0 1.223-.141 1.592-.423.369-.283.554-.668.554-1.156 0-.487-.171-.863-.513-1.128-.341-.268-.961-.533-1.859-.793Zm6.832.541V158h-1.312v-9.953h3.671c1.089 0 1.941.278 2.556.834.62.556.93 1.292.93 2.208 0 .966-.303 1.711-.909 2.235-.602.52-1.465.78-2.591.78h-2.345Zm0-1.074h2.359c.702 0 1.239-.164 1.613-.492.374-.333.561-.811.561-1.435 0-.593-.187-1.067-.561-1.422-.374-.356-.886-.54-1.538-.554h-2.434v3.903Zm13.368-2.385c0 .496-.132.938-.397 1.326-.259.387-.613.69-1.059.909.519.223.929.549 1.23.977.306.429.458.914.458 1.456 0 .862-.291 1.548-.875 2.058-.579.511-1.342.766-2.29.766-.957 0-1.725-.255-2.303-.766-.575-.515-.862-1.201-.862-2.058 0-.537.146-1.023.438-1.456.296-.433.704-.761 1.223-.984-.442-.219-.79-.522-1.046-.909-.255-.388-.382-.827-.382-1.319 0-.839.268-1.504.806-1.997.538-.492 1.247-.738 2.126-.738.875 0 1.582.246 2.119.738.543.493.814 1.158.814 1.997Zm-1.032 4.641c0-.556-.178-1.009-.534-1.36-.35-.351-.811-.527-1.38-.527-.57 0-1.028.174-1.374.52-.342.346-.513.802-.513 1.367s.166 1.01.499 1.333c.337.324.804.485 1.401.485.593 0 1.058-.161 1.395-.485.337-.328.506-.772.506-1.333Zm-1.901-6.337c-.497 0-.9.155-1.21.465-.305.305-.458.722-.458 1.251 0 .506.151.916.451 1.231.306.309.711.464 1.217.464.506 0 .909-.155 1.21-.464.306-.315.458-.725.458-1.231 0-.506-.157-.918-.471-1.237-.315-.319-.714-.479-1.197-.479Zm11.42 9.051h-6.522v-.909l3.445-3.828c.511-.579.862-1.048 1.053-1.409.196-.364.294-.74.294-1.127 0-.52-.157-.946-.472-1.279-.314-.332-.733-.499-1.257-.499-.629 0-1.119.18-1.47.54-.347.356-.52.852-.52 1.49h-1.264c0-.916.294-1.656.881-2.221.593-.565 1.384-.848 2.373-.848.925 0 1.656.244 2.194.732.538.483.807 1.128.807 1.934 0 .98-.625 2.147-1.874 3.5l-2.666 2.892h4.998V158Zm6.442-9.96v1.073h-.232c-.985.019-1.768.31-2.352.875-.583.565-.92 1.361-1.011 2.386.524-.602 1.239-.902 2.146-.902.866 0 1.556.305 2.071.916.52.61.78 1.399.78 2.365 0 1.025-.281 1.846-.841 2.461-.556.615-1.304.923-2.242.923-.953 0-1.725-.365-2.318-1.094-.592-.734-.888-1.677-.888-2.83v-.485c0-1.832.389-3.232 1.169-4.198.783-.97 1.948-1.467 3.493-1.49h.225Zm-1.661 4.484c-.433 0-.832.13-1.196.39-.365.26-.618.586-.759.978v.464c0 .821.185 1.482.554 1.983.369.501.829.752 1.381.752.569 0 1.016-.21 1.339-.629.329-.419.493-.969.493-1.648 0-.683-.167-1.235-.499-1.654-.328-.424-.766-.636-1.313-.636Zm9.663-4.484v1.073h-.233c-.984.019-1.768.31-2.351.875-.584.565-.921 1.361-1.012 2.386.524-.602 1.239-.902 2.146-.902.866 0 1.557.305 2.072.916.519.61.779 1.399.779 2.365 0 1.025-.28 1.846-.841 2.461-.556.615-1.303.923-2.242.923-.953 0-1.725-.365-2.317-1.094-.593-.734-.889-1.677-.889-2.83v-.485c0-1.832.39-3.232 1.169-4.198.784-.97 1.948-1.467 3.493-1.49h.226Zm-1.662 4.484c-.432 0-.831.13-1.196.39-.364.26-.617.586-.759.978v.464c0 .821.185 1.482.554 1.983.369.501.83.752 1.381.752.57 0 1.016-.21 1.34-.629.328-.419.492-.969.492-1.648 0-.683-.166-1.235-.499-1.654-.328-.424-.766-.636-1.313-.636Zm8.641 5.476v-9.953h2.809c.866 0 1.632.191 2.297.574.666.383 1.178.928 1.538 1.634.365.706.549 1.517.554 2.433v.636c0 .939-.182 1.762-.547 2.468-.36.706-.877 1.249-1.552 1.627-.67.378-1.451.572-2.344.581h-2.755Zm1.312-8.873v7.8h1.381c1.012 0 1.798-.315 2.359-.944.565-.629.847-1.524.847-2.686v-.581c0-1.13-.266-2.008-.8-2.632-.528-.629-1.28-.948-2.255-.957h-1.532Zm10.886 9.01c-1.002 0-1.818-.328-2.447-.985-.629-.66-.943-1.542-.943-2.645v-.233c0-.733.139-1.387.417-1.962.282-.578.674-1.029 1.176-1.353.505-.328 1.052-.492 1.64-.492.962 0 1.709.317 2.242.95.534.633.8 1.54.8 2.721v.526h-5.011c.019.729.231 1.319.636 1.771.41.446.93.669 1.559.669.446 0 .825-.091 1.135-.273.309-.182.581-.424.813-.725l.772.602c-.619.952-1.549 1.429-2.789 1.429Zm-.157-6.631c-.51 0-.939.187-1.285.56-.346.37-.561.889-.643 1.559h3.706v-.096c-.037-.642-.21-1.139-.52-1.49-.31-.355-.729-.533-1.258-.533Zm6.997 4.778 1.832-5.68h1.292L329.804 158h-.964l-2.679-7.396h1.292l1.88 5.68Zm5.854 1.716h-1.264v-7.396h1.264V158Zm-1.367-9.358c0-.205.062-.379.185-.52.127-.141.314-.212.56-.212.246 0 .433.071.561.212.128.141.191.315.191.52 0 .205-.063.376-.191.512-.128.137-.315.205-.561.205-.246 0-.433-.068-.56-.205-.123-.136-.185-.307-.185-.512Zm6.505 8.462c.451 0 .845-.136 1.182-.41.337-.273.524-.615.561-1.025h1.196c-.023.424-.169.827-.438 1.21-.268.383-.628.688-1.08.916a3.08 3.08 0 0 1-1.421.342c-1.008 0-1.81-.335-2.407-1.005-.592-.675-.888-1.595-.888-2.762v-.212c0-.72.132-1.36.396-1.921.264-.56.643-.995 1.135-1.305.497-.31 1.082-.465 1.757-.465.829 0 1.517.248 2.064.745.552.497.846 1.142.882 1.934h-1.196c-.037-.478-.219-.87-.547-1.175-.324-.31-.725-.465-1.203-.465-.643 0-1.142.232-1.497.697-.351.46-.527 1.128-.527 2.003v.239c0 .853.176 1.509.527 1.969.351.46.852.69 1.504.69Zm7.57 1.033c-1.002 0-1.818-.328-2.447-.985-.629-.66-.943-1.542-.943-2.645v-.233c0-.733.139-1.387.417-1.962.282-.578.674-1.029 1.175-1.353.506-.328 1.053-.492 1.641-.492.962 0 1.709.317 2.242.95.533.633.8 1.54.8 2.721v.526h-5.011c.018.729.23 1.319.636 1.771.41.446.93.669 1.559.669.446 0 .824-.091 1.134-.273.31-.182.581-.424.814-.725l.772.602c-.62.952-1.549 1.429-2.789 1.429Zm-.157-6.631c-.51 0-.939.187-1.285.56-.347.37-.561.889-.643 1.559h3.705v-.096c-.036-.642-.209-1.139-.519-1.49-.31-.355-.729-.533-1.258-.533Z" fill="#000"/></g><g filter="url(#m)"><path fill="#fff" d="M232 179h250v52H232z"/><path opacity=".87" d="M254.651 207.402h-4.17l-.936 2.598h-1.354l3.801-9.953h1.149l3.807 9.953h-1.346l-.951-2.598Zm-3.773-1.08h3.384l-1.696-4.655-1.688 4.655Zm10.927-2.584c-.191-.032-.399-.048-.622-.048-.829 0-1.392.354-1.689 1.06V210h-1.264v-7.396h1.23l.021.854c.415-.661 1.002-.991 1.763-.991.247 0 .433.032.561.095v1.176Zm.865 2.502c0-1.135.269-2.046.806-2.734.538-.693 1.242-1.039 2.113-1.039.865 0 1.551.296 2.057.888V199.5h1.265V210h-1.162l-.062-.793c-.506.62-1.21.93-2.112.93-.857 0-1.556-.351-2.099-1.053-.537-.702-.806-1.618-.806-2.748v-.096Zm1.264.144c0 .838.173 1.495.52 1.969.346.473.825.71 1.435.71.802 0 1.388-.36 1.757-1.08v-3.397c-.378-.697-.959-1.046-1.743-1.046-.62 0-1.103.239-1.449.718-.347.478-.52 1.187-.52 2.126Zm11.652 2.885c-.492.578-1.215.868-2.167.868-.788 0-1.39-.228-1.805-.684-.41-.46-.617-1.139-.622-2.037v-4.812h1.265v4.778c0 1.121.456 1.681 1.367 1.681.966 0 1.609-.36 1.928-1.08v-5.379h1.264V210h-1.203l-.027-.731Zm4.672.731h-1.264v-7.396h1.264V210Zm-1.367-9.358c0-.205.062-.379.185-.52.127-.141.314-.212.56-.212.246 0 .433.071.561.212.127.141.191.315.191.52 0 .205-.064.376-.191.512-.128.137-.315.205-.561.205-.246 0-.433-.068-.56-.205-.123-.136-.185-.307-.185-.512Zm4.734 1.962.041.929c.565-.711 1.303-1.066 2.215-1.066 1.563 0 2.351.882 2.365 2.645V210h-1.265v-4.895c-.004-.533-.127-.927-.369-1.182-.237-.255-.608-.383-1.114-.383-.41 0-.77.109-1.08.328-.31.219-.552.506-.725.861V210h-1.264v-7.396h1.196Zm6.333 3.629c0-.724.141-1.376.424-1.955.287-.578.684-1.025 1.189-1.34.511-.314 1.092-.471 1.744-.471 1.007 0 1.82.348 2.44 1.046.624.697.937 1.624.937 2.782v.089c0 .72-.139 1.367-.417 1.941-.274.57-.668 1.014-1.183 1.333-.51.319-1.098.479-1.764.479-1.002 0-1.816-.349-2.44-1.046-.62-.697-.93-1.62-.93-2.769v-.089Zm1.272.151c0 .82.189 1.479.567 1.975.383.497.893.745 1.531.745.643 0 1.153-.25 1.532-.751.378-.506.567-1.213.567-2.12 0-.811-.194-1.467-.581-1.968-.383-.506-.893-.759-1.531-.759-.625 0-1.128.248-1.511.745s-.574 1.208-.574 2.133Zm18.005-6.337v6.767c-.004.939-.301 1.707-.888 2.304-.584.597-1.377.932-2.379 1.005l-.349.014c-1.089 0-1.957-.294-2.604-.882-.648-.588-.976-1.397-.985-2.427v-6.781h1.299v6.74c0 .72.198 1.281.595 1.682.396.396.961.594 1.695.594.743 0 1.31-.198 1.702-.594.397-.397.595-.955.595-1.675v-6.747h1.319Zm9.861 9.953h-1.319l-5.011-7.67V210h-1.319v-9.953h1.319l5.024 7.704v-7.704h1.306V210Zm10.127-4.655c0 .975-.164 1.827-.492 2.556-.328.725-.793 1.279-1.394 1.661-.602.383-1.304.575-2.106.575-.784 0-1.479-.192-2.085-.575-.606-.387-1.078-.936-1.415-1.647-.333-.715-.504-1.543-.513-2.481v-.718c0-.957.167-1.803.499-2.536.333-.734.802-1.295 1.409-1.682.61-.392 1.308-.588 2.091-.588.798 0 1.5.194 2.106.581.611.383 1.08.941 1.408 1.675.328.729.492 1.579.492 2.55v.629Zm-1.305-.643c0-1.18-.237-2.085-.711-2.714-.474-.633-1.137-.95-1.99-.95-.829 0-1.483.317-1.962.95-.473.629-.717 1.504-.731 2.625v.732c0 1.144.239 2.044.718 2.7.483.652 1.146.977 1.989.977.848 0 1.504-.307 1.969-.922.465-.62.704-1.507.718-2.66v-.738Zm7.027 5.298v-9.953h2.809c.866 0 1.632.191 2.297.574.665.383 1.178.928 1.538 1.634.365.706.549 1.517.554 2.433v.636c0 .939-.182 1.762-.547 2.468-.36.706-.877 1.249-1.552 1.627-.67.378-1.451.572-2.344.581h-2.755Zm1.312-8.873v7.8h1.381c1.012 0 1.798-.315 2.358-.944.566-.629.848-1.524.848-2.686v-.581c0-1.13-.267-2.008-.8-2.632-.528-.629-1.28-.948-2.256-.957h-1.531Zm10.886 9.01c-1.002 0-1.818-.328-2.447-.985-.629-.66-.943-1.542-.943-2.645v-.233c0-.733.139-1.387.417-1.962.282-.578.674-1.029 1.175-1.353.506-.328 1.053-.492 1.641-.492.962 0 1.709.317 2.242.95.533.633.8 1.54.8 2.721v.526h-5.011c.018.729.23 1.319.636 1.771.41.446.93.669 1.559.669.446 0 .824-.091 1.134-.273.31-.182.581-.424.814-.725l.772.602c-.619.952-1.549 1.429-2.789 1.429Zm-.157-6.631c-.51 0-.939.187-1.285.56-.346.37-.561.889-.643 1.559h3.705v-.096c-.036-.642-.209-1.139-.519-1.49-.31-.355-.729-.533-1.258-.533Zm6.996 4.778 1.832-5.68h1.292L354.454 210h-.964l-2.679-7.396h1.292l1.879 5.68Zm5.855 1.716h-1.264v-7.396h1.264V210Zm-1.367-9.358c0-.205.062-.379.185-.52.127-.141.314-.212.56-.212.246 0 .433.071.561.212.127.141.191.315.191.52 0 .205-.064.376-.191.512-.128.137-.315.205-.561.205-.246 0-.433-.068-.56-.205-.123-.136-.185-.307-.185-.512Zm6.504 8.462c.452 0 .846-.136 1.183-.41.337-.273.524-.615.561-1.025h1.196c-.023.424-.169.827-.438 1.21s-.629.688-1.08.916c-.446.228-.92.342-1.422.342-1.007 0-1.809-.335-2.406-1.005-.592-.675-.889-1.595-.889-2.762v-.212c0-.72.133-1.36.397-1.921.264-.56.643-.995 1.135-1.305.496-.31 1.082-.465 1.757-.465.829 0 1.517.248 2.064.745.551.497.845 1.142.882 1.934h-1.196c-.037-.478-.219-.87-.547-1.175-.324-.31-.725-.465-1.203-.465-.643 0-1.142.232-1.498.697-.35.46-.526 1.128-.526 2.003v.239c0 .853.176 1.509.526 1.969.351.46.853.69 1.504.69Zm7.571 1.033c-1.003 0-1.818-.328-2.447-.985-.629-.66-.944-1.542-.944-2.645v-.233c0-.733.139-1.387.417-1.962.283-.578.675-1.029 1.176-1.353.506-.328 1.053-.492 1.641-.492.961 0 1.709.317 2.242.95.533.633.8 1.54.8 2.721v.526h-5.011c.018.729.23 1.319.636 1.771.41.446.929.669 1.558.669.447 0 .825-.091 1.135-.273.31-.182.581-.424.814-.725l.772.602c-.62.952-1.549 1.429-2.789 1.429Zm-.157-6.631c-.511 0-.939.187-1.285.56-.347.37-.561.889-.643 1.559h3.705v-.096c-.036-.642-.209-1.139-.519-1.49-.31-.355-.73-.533-1.258-.533Z" fill="#000"/></g><g filter="url(#n)"><path fill="#fff" d="M232 231h250v52H232z"/><path fill="#000" fill-opacity=".04" d="M232 231h250v52H232z"/><path opacity=".87" d="M252.806 257.974h-2.338V262h-1.32v-9.953h3.295c1.121 0 1.983.255 2.584.765.606.511.91 1.254.91 2.229 0 .62-.169 1.16-.506 1.62-.333.46-.798.804-1.395 1.032l2.338 4.225V262h-1.408l-2.16-4.026Zm-2.338-1.074h2.016c.652 0 1.169-.168 1.552-.505.388-.338.581-.789.581-1.354 0-.615-.184-1.087-.554-1.415-.364-.328-.893-.494-1.585-.499h-2.01v3.773Zm11.822 5.1c-.073-.146-.132-.406-.177-.779-.588.61-1.29.916-2.106.916-.729 0-1.328-.205-1.798-.616-.465-.414-.697-.938-.697-1.572 0-.77.292-1.367.875-1.791.588-.428 1.413-.642 2.475-.642h1.23v-.581c0-.442-.132-.793-.396-1.053-.265-.264-.654-.397-1.169-.397-.451 0-.83.114-1.135.342-.305.228-.458.504-.458.827h-1.272c0-.369.13-.724.39-1.066.264-.346.62-.62 1.067-.82.451-.201.945-.301 1.483-.301.852 0 1.52.214 2.003.642.483.424.734 1.01.752 1.757v3.405c0 .679.086 1.219.26 1.62V262h-1.327Zm-2.098-.964c.396 0 .772-.102 1.128-.307.355-.206.613-.472.772-.8v-1.518h-.991c-1.55 0-2.324.454-2.324 1.36 0 .397.132.707.396.93.265.223.604.335 1.019.335Zm9.594-.998c0-.342-.13-.606-.39-.793-.255-.191-.704-.355-1.346-.492-.638-.137-1.147-.301-1.525-.492-.374-.192-.652-.42-.834-.684-.178-.264-.266-.579-.266-.943 0-.606.255-1.119.765-1.538.515-.42 1.171-.629 1.969-.629.838 0 1.517.216 2.037.649.524.433.786.987.786 1.661h-1.271c0-.346-.148-.645-.445-.895-.291-.251-.66-.376-1.107-.376-.46 0-.82.1-1.08.301-.26.2-.39.462-.39.786 0 .305.121.535.362.69.242.155.677.303 1.306.445.634.141 1.146.309 1.538.505.392.196.682.433.868.711.192.274.288.609.288 1.005 0 .661-.265 1.192-.793 1.593-.529.396-1.215.595-2.058.595-.593 0-1.117-.105-1.572-.315-.456-.209-.814-.501-1.074-.875-.255-.378-.382-.786-.382-1.223h1.264c.023.423.192.761.506 1.011.319.246.738.369 1.258.369.478 0 .861-.095 1.148-.287.292-.196.438-.455.438-.779Zm9.3-1.654c0 1.125-.257 2.032-.772 2.72-.515.689-1.213 1.033-2.092 1.033-.898 0-1.604-.285-2.119-.855v3.562h-1.265v-10.24h1.155l.062.82c.515-.638 1.23-.957 2.146-.957.889 0 1.591.335 2.106 1.005.519.67.779 1.602.779 2.796v.116Zm-1.265-.144c0-.834-.177-1.492-.533-1.975-.355-.483-.843-.725-1.463-.725-.765 0-1.34.34-1.722 1.019v3.534c.378.674.957 1.011 1.736 1.011.606 0 1.087-.239 1.442-.717.36-.483.54-1.199.54-2.147Zm9.28.144c0 1.13-.26 2.039-.779 2.727-.52.684-1.217 1.026-2.092 1.026-.934 0-1.657-.331-2.167-.991l-.062.854h-1.162v-10.5h1.265v3.917c.51-.633 1.214-.95 2.112-.95.898 0 1.602.339 2.113 1.018.515.679.772 1.609.772 2.789v.11Zm-1.265-.144c0-.861-.166-1.526-.499-1.996-.332-.469-.811-.704-1.435-.704-.834 0-1.433.387-1.798 1.162v3.199c.387.775.991 1.162 1.811 1.162.607 0 1.078-.234 1.416-.704.337-.469.505-1.175.505-2.119Zm6.074 3.897c-1.003 0-1.818-.328-2.447-.985-.629-.66-.944-1.542-.944-2.645v-.233c0-.733.139-1.387.417-1.962.283-.578.675-1.029 1.176-1.353.506-.328 1.053-.492 1.641-.492.961 0 1.709.317 2.242.95.533.633.8 1.54.8 2.721v.526h-5.011c.018.729.23 1.319.636 1.771.41.446.929.669 1.558.669.447 0 .825-.091 1.135-.273.31-.182.581-.424.814-.725l.772.602c-.62.952-1.549 1.429-2.789 1.429Zm-.157-6.631c-.511 0-.939.187-1.285.56-.347.37-.561.889-.643 1.559h3.705v-.096c-.036-.642-.21-1.139-.519-1.49-.31-.355-.73-.533-1.258-.533Zm8.227.232c-.192-.032-.399-.048-.622-.048-.83 0-1.393.354-1.689 1.06V262h-1.265v-7.396h1.231l.02.854c.415-.661 1.003-.991 1.764-.991.246 0 .433.032.561.095v1.176Zm4.884 0c-.192-.032-.399-.048-.622-.048-.83 0-1.393.354-1.689 1.06V262h-1.264v-7.396h1.23l.021.854c.414-.661 1.002-.991 1.763-.991.246 0 .433.032.561.095v1.176Zm3.852 4.409 1.722-5.543h1.354l-2.974 8.538c-.46 1.23-1.191 1.845-2.194 1.845l-.239-.02-.472-.089v-1.025l.342.027c.428 0 .761-.087.998-.26.241-.173.44-.49.595-.95l.28-.752-2.639-7.314h1.381l1.846 5.543Zm9.474-2.043V262h-1.312v-9.953h3.67c1.09 0 1.942.278 2.557.834.62.556.93 1.292.93 2.208 0 .966-.303 1.711-.909 2.235-.602.52-1.466.78-2.591.78h-2.345Zm0-1.074h2.358c.702 0 1.24-.164 1.614-.492.373-.333.56-.811.56-1.435 0-.593-.187-1.067-.56-1.422-.374-.356-.887-.54-1.538-.554h-2.434v3.903Zm8.835 4.97h-1.264v-7.396h1.264V262Zm-1.367-9.358c0-.205.062-.379.185-.52.127-.141.314-.212.56-.212.246 0 .433.071.561.212.127.141.191.315.191.52 0 .205-.064.376-.191.512-.128.137-.315.205-.561.205-.246 0-.433-.068-.56-.205-.123-.136-.185-.307-.185-.512Zm7.349 9.358v-9.953h2.809c.866 0 1.632.191 2.297.574.665.383 1.178.928 1.538 1.634.365.706.549 1.517.554 2.433v.636c0 .939-.183 1.762-.547 2.468-.36.706-.877 1.249-1.552 1.627-.67.378-1.451.572-2.345.581h-2.754Zm1.312-8.873v7.8h1.381c1.012 0 1.798-.315 2.358-.944.565-.629.848-1.524.848-2.686v-.581c0-1.13-.267-2.008-.8-2.632-.529-.629-1.28-.948-2.256-.957h-1.531Zm10.886 9.01c-1.002 0-1.818-.328-2.447-.985-.629-.66-.944-1.542-.944-2.645v-.233c0-.733.139-1.387.417-1.962.283-.578.675-1.029 1.176-1.353.506-.328 1.053-.492 1.641-.492.961 0 1.709.317 2.242.95.533.633.8 1.54.8 2.721v.526h-5.011c.018.729.23 1.319.636 1.771.41.446.93.669 1.558.669.447 0 .825-.091 1.135-.273.31-.182.581-.424.814-.725l.772.602c-.62.952-1.549 1.429-2.789 1.429Zm-.157-6.631c-.511 0-.939.187-1.285.56-.347.37-.561.889-.643 1.559h3.705v-.096c-.036-.642-.209-1.139-.519-1.49-.31-.355-.729-.533-1.258-.533Zm6.996 4.778 1.832-5.68h1.292L352.516 262h-.964l-2.68-7.396h1.292l1.88 5.68Zm5.855 1.716h-1.264v-7.396h1.264V262Zm-1.367-9.358c0-.205.062-.379.185-.52.127-.141.314-.212.56-.212.246 0 .433.071.561.212.127.141.191.315.191.52 0 .205-.064.376-.191.512-.128.137-.315.205-.561.205-.246 0-.433-.068-.56-.205-.123-.136-.185-.307-.185-.512Zm6.504 8.462c.451 0 .846-.136 1.183-.41.337-.273.524-.615.56-1.025h1.197c-.023.424-.169.827-.438 1.21s-.629.688-1.08.916c-.446.228-.92.342-1.422.342-1.007 0-1.809-.335-2.406-1.005-.592-.675-.889-1.595-.889-2.762v-.212c0-.72.132-1.36.397-1.921.264-.56.642-.995 1.135-1.305.496-.31 1.082-.465 1.756-.465.83 0 1.518.248 2.065.745.551.497.845 1.142.882 1.934h-1.197c-.036-.478-.218-.87-.546-1.175-.324-.31-.725-.465-1.204-.465-.642 0-1.141.232-1.497.697-.351.46-.526 1.128-.526 2.003v.239c0 .853.175 1.509.526 1.969.351.46.853.69 1.504.69Zm7.571 1.033c-1.003 0-1.818-.328-2.447-.985-.629-.66-.944-1.542-.944-2.645v-.233c0-.733.139-1.387.417-1.962.283-.578.675-1.029 1.176-1.353.506-.328 1.053-.492 1.641-.492.961 0 1.709.317 2.242.95.533.633.8 1.54.8 2.721v.526h-5.011c.018.729.23 1.319.636 1.771.41.446.929.669 1.558.669.447 0 .825-.091 1.135-.273.31-.182.581-.424.814-.725l.772.602c-.62.952-1.55 1.429-2.789 1.429Zm-.157-6.631c-.511 0-.939.187-1.285.56-.347.37-.561.889-.643 1.559h3.705v-.096c-.036-.642-.21-1.139-.52-1.49-.309-.355-.729-.533-1.257-.533Z" fill="#000"/></g><g filter="url(#o)"><path fill="#fff" d="M232 283h250v52H232z"/><path opacity=".87" d="M250.475 312.927h4.716V314h-6.036v-9.953h1.32v8.88Zm7.529 1.073h-1.264v-7.396h1.264V314Zm-1.367-9.358c0-.205.062-.379.185-.52.127-.141.314-.212.56-.212.246 0 .433.071.561.212.127.141.191.315.191.52 0 .205-.064.376-.191.512-.128.137-.315.205-.561.205-.246 0-.433-.068-.56-.205-.123-.136-.185-.307-.185-.512Zm4.734 1.962.041.929c.565-.711 1.303-1.066 2.215-1.066 1.563 0 2.351.882 2.365 2.645V314h-1.265v-4.895c-.004-.533-.127-.927-.369-1.182-.237-.255-.608-.383-1.114-.383-.41 0-.77.109-1.08.328-.31.219-.552.506-.725.861V314h-1.264v-7.396h1.196Zm8.733 3.971-.793.827V314h-1.265v-10.5h1.265v6.351l.676-.814 2.304-2.433h1.538l-2.878 3.089 3.213 4.307h-1.483l-2.577-3.425Zm6.777 3.425h-1.312v-9.953h1.312V314Zm4.064-9.188v1.792h1.381v.977h-1.381v4.587c0 .296.062.52.185.67.123.146.332.219.629.219.145 0 .346-.028.601-.082V314c-.333.091-.656.137-.971.137-.565 0-.991-.171-1.278-.513-.287-.342-.431-.827-.431-1.456v-4.587h-1.346v-.977h1.346v-1.792h1.265Zm14.472 4.533c0 .975-.165 1.827-.493 2.556-.328.725-.793 1.279-1.394 1.661-.602.383-1.304.575-2.106.575-.784 0-1.479-.192-2.085-.575-.606-.387-1.077-.936-1.415-1.647-.332-.715-.503-1.543-.512-2.481v-.718c0-.957.166-1.803.499-2.536.332-.734.802-1.295 1.408-1.682.611-.392 1.308-.588 2.092-.588.797 0 1.499.194 2.105.581.611.383 1.08.941 1.408 1.675.328.729.493 1.579.493 2.55v.629Zm-1.306-.643c0-1.18-.237-2.085-.711-2.714-.474-.633-1.137-.95-1.989-.95-.83 0-1.484.317-1.962.95-.474.629-.718 1.504-.732 2.625v.732c0 1.144.24 2.044.718 2.7.483.652 1.146.977 1.989.977.848 0 1.504-.307 1.969-.922.465-.62.704-1.507.718-2.66v-.738Zm4.412-2.098.041.929c.565-.711 1.304-1.066 2.215-1.066 1.563 0 2.352.882 2.365 2.645V314h-1.264v-4.895c-.005-.533-.128-.927-.369-1.182-.237-.255-.609-.383-1.115-.383-.41 0-.77.109-1.08.328-.31.219-.551.506-.724.861V314h-1.265v-7.396h1.196Zm9.738 7.533c-1.003 0-1.818-.328-2.447-.985-.629-.66-.944-1.542-.944-2.645v-.233c0-.733.139-1.387.417-1.962.283-.578.675-1.029 1.176-1.353.506-.328 1.053-.492 1.641-.492.961 0 1.709.317 2.242.95.533.633.8 1.54.8 2.721v.526h-5.011c.018.729.23 1.319.636 1.771.41.446.929.669 1.558.669.447 0 .825-.091 1.135-.273.31-.182.581-.424.814-.725l.772.602c-.62.952-1.549 1.429-2.789 1.429Zm-.157-6.631c-.511 0-.939.187-1.285.56-.347.37-.561.889-.643 1.559h3.705v-.096c-.036-.642-.21-1.139-.519-1.49-.31-.355-.73-.533-1.258-.533Zm8.462 6.494v-9.953h2.81c.866 0 1.631.191 2.297.574.665.383 1.178.928 1.538 1.634.364.706.549 1.517.554 2.433v.636c0 .939-.183 1.762-.547 2.468-.36.706-.878 1.249-1.552 1.627-.67.378-1.452.572-2.345.581h-2.755Zm1.313-8.873v7.8h1.381c1.011 0 1.798-.315 2.358-.944.565-.629.848-1.524.848-2.686v-.581c0-1.13-.267-2.008-.8-2.632-.529-.629-1.281-.948-2.256-.957h-1.531Zm10.886 9.01c-1.003 0-1.818-.328-2.447-.985-.629-.66-.944-1.542-.944-2.645v-.233c0-.733.139-1.387.417-1.962.283-.578.675-1.029 1.176-1.353.506-.328 1.053-.492 1.641-.492.961 0 1.709.317 2.242.95.533.633.8 1.54.8 2.721v.526h-5.011c.018.729.23 1.319.636 1.771.41.446.929.669 1.558.669.447 0 .825-.091 1.135-.273.31-.182.581-.424.814-.725l.772.602c-.62.952-1.549 1.429-2.789 1.429Zm-.157-6.631c-.511 0-.939.187-1.285.56-.347.37-.561.889-.643 1.559h3.705v-.096c-.036-.642-.21-1.139-.519-1.49-.31-.355-.73-.533-1.258-.533Zm6.996 4.778 1.832-5.68h1.292L336.076 314h-.964l-2.68-7.396h1.292l1.88 5.68Zm5.855 1.716h-1.265v-7.396h1.265V314Zm-1.367-9.358c0-.205.061-.379.184-.52.128-.141.315-.212.561-.212.246 0 .433.071.56.212.128.141.192.315.192.52 0 .205-.064.376-.192.512-.127.137-.314.205-.56.205-.246 0-.433-.068-.561-.205-.123-.136-.184-.307-.184-.512Zm6.504 8.462c.451 0 .845-.136 1.183-.41.337-.273.524-.615.56-1.025h1.197c-.023.424-.169.827-.438 1.21s-.629.688-1.08.916c-.447.228-.921.342-1.422.342-1.007 0-1.809-.335-2.406-1.005-.593-.675-.889-1.595-.889-2.762v-.212c0-.72.132-1.36.397-1.921.264-.56.642-.995 1.134-1.305.497-.31 1.083-.465 1.757-.465.83 0 1.518.248 2.065.745.551.497.845 1.142.882 1.934h-1.197c-.036-.478-.218-.87-.547-1.175-.323-.31-.724-.465-1.203-.465-.642 0-1.141.232-1.497.697-.351.46-.526 1.128-.526 2.003v.239c0 .853.175 1.509.526 1.969.351.46.852.69 1.504.69Zm7.571 1.033c-1.003 0-1.819-.328-2.448-.985-.628-.66-.943-1.542-.943-2.645v-.233c0-.733.139-1.387.417-1.962.283-.578.675-1.029 1.176-1.353.506-.328 1.053-.492 1.641-.492.961 0 1.709.317 2.242.95.533.633.8 1.54.8 2.721v.526h-5.011c.018.729.23 1.319.636 1.771.41.446.929.669 1.558.669.447 0 .825-.091 1.135-.273.31-.182.581-.424.813-.725l.773.602c-.62.952-1.55 1.429-2.789 1.429Zm-.157-6.631c-.511 0-.939.187-1.286.56-.346.37-.56.889-.642 1.559h3.705v-.096c-.037-.642-.21-1.139-.52-1.49-.31-.355-.729-.533-1.257-.533Z" fill="#000"/></g><path fill="#fff" d="M482 71h144v56H482z"/><g clip-path="url(#p)"><path opacity=".87" d="M502.638 104v-9.9531h2.94c.879 0 1.658.1959 2.337.5879.684.3919 1.213.9479 1.586 1.6679.374.7201.561 1.545.561 2.4746v.4991c0 .9436-.189 1.7726-.568 2.4886-.373.715-.909 1.267-1.606 1.654-.693.387-1.488.581-2.386.581h-2.864Zm1.73-8.5586v7.1776h1.127c.907 0 1.602-.282 2.085-.848.488-.569.736-1.385.746-2.4468v-.5537c0-1.0801-.235-1.9049-.705-2.4746-.469-.5697-1.15-.8545-2.043-.8545h-1.21Zm10.653 8.6956c-1.053 0-1.907-.331-2.563-.991-.652-.666-.978-1.55-.978-2.653v-.205c0-.7382.141-1.3967.424-1.9755.287-.5833.688-1.0368 1.203-1.3604.515-.3235 1.089-.4853 1.723-.4853 1.007 0 1.784.3213 2.331.9639.551.6425.827 1.5517.827 2.7273v.67h-4.833c.05.611.253 1.094.608 1.449.36.356.812.534 1.354.534.761 0 1.381-.308 1.859-.923l.896.854c-.296.442-.693.786-1.19 1.032-.492.242-1.046.363-1.661.363Zm-.198-6.3372c-.456 0-.825.1595-1.107.4785-.278.319-.456.7634-.534 1.333h3.165v-.123c-.036-.556-.184-.9753-.444-1.2578-.26-.2871-.62-.4307-1.08-.4307Zm7.113 4.0952 1.565-5.2915h1.716L522.653 104h-1.442l-2.584-7.3965h1.723l1.586 5.2915Zm6.23 2.105h-1.661v-7.3965h1.661V104Zm-1.763-9.3174c0-.2552.08-.4671.239-.6357.164-.1686.397-.253.697-.253.301 0 .533.0844.698.253.164.1686.246.3805.246.6357 0 .2507-.082.4603-.246.6289-.165.1641-.397.2461-.698.2461-.3 0-.533-.082-.697-.2461-.159-.1686-.239-.3782-.239-.6289Zm6.757 8.1284c.415 0 .759-.121 1.032-.363.274-.241.419-.54.438-.895h1.565c-.018.46-.162.891-.431 1.292-.268.396-.633.711-1.093.943-.461.233-.957.349-1.491.349-1.034 0-1.854-.335-2.46-1.005-.607-.67-.91-1.595-.91-2.776v-.17c0-1.1261.301-2.0262.903-2.7006.601-.6791 1.422-1.0186 2.461-1.0186.879 0 1.595.2575 2.146.7725.556.5104.848 1.1826.875 2.0166h-1.565c-.019-.4239-.164-.7725-.438-1.0459-.269-.2735-.613-.4102-1.032-.4102-.538 0-.953.196-1.244.5879-.292.3874-.44.9775-.445 1.7703v.267c0 .802.144 1.401.431 1.798.292.392.711.588 1.258.588Zm7.687 1.326c-1.053 0-1.907-.331-2.564-.991-.651-.666-.977-1.55-.977-2.653v-.205c0-.7382.141-1.3967.424-1.9755.287-.5833.688-1.0368 1.203-1.3604.515-.3235 1.089-.4853 1.722-.4853 1.008 0 1.785.3213 2.331.9639.552.6425.828 1.5517.828 2.7273v.67h-4.833c.05.611.253 1.094.608 1.449.36.356.811.534 1.354.534.761 0 1.38-.308 1.859-.923l.895.854c-.296.442-.692.786-1.189 1.032-.492.242-1.046.363-1.661.363Zm-.198-6.3372c-.456 0-.825.1595-1.108.4785-.278.319-.456.7634-.533 1.333h3.165v-.123c-.036-.556-.185-.9753-.444-1.2578-.26-.2871-.62-.4307-1.08-.4307Zm14.703 2.5772c0 1.144-.259 2.058-.779 2.741-.519.679-1.217 1.019-2.092 1.019-.811 0-1.46-.267-1.948-.8v3.507h-1.661V96.6035h1.531l.069.752c.487-.5925 1.15-.8887 1.989-.8887.902 0 1.609.3372 2.119 1.0117.515.6699.772 1.6019.772 2.7955v.103Zm-1.654-.144c0-.7379-.148-1.3235-.444-1.7564-.292-.433-.711-.6495-1.258-.6495-.679 0-1.167.2803-1.463.8409v3.281c.301.574.793.862 1.477.862.528 0 .941-.212 1.237-.636.301-.429.451-1.076.451-1.942Zm7.079-2.1119a4.115 4.115 0 0 0-.677-.0547c-.761 0-1.274.2917-1.538.875V104h-1.661v-7.3965h1.586l.041.8272c.401-.6426.957-.9639 1.668-.9639.237 0 .432.0319.587.0957l-.006 1.5586Zm.632 2.1119c0-.7242.143-1.3759.43-1.9547.288-.5833.691-1.0299 1.21-1.3398.52-.3145 1.117-.4717 1.791-.4717.998 0 1.807.3213 2.427.9639.625.6425.962 1.4948 1.012 2.5566l.007.3897c0 .729-.142 1.381-.424 1.955-.278.574-.679 1.019-1.203 1.333-.52.314-1.121.472-1.805.472-1.044 0-1.88-.347-2.509-1.039-.624-.698-.936-1.625-.936-2.783v-.082Zm1.661.144c0 .761.157 1.358.472 1.791.314.428.752.643 1.312.643.561 0 .996-.219 1.306-.657.314-.437.471-1.078.471-1.921 0-.747-.161-1.3394-.485-1.7769-.319-.4375-.754-.6563-1.306-.6563-.542 0-.973.2165-1.292.6494-.319.4284-.478 1.071-.478 1.9278Zm7.201 3.623v-6.166h-1.127v-1.2305h1.127v-.5058c.005-.5788.128-1.0756.37-1.4903.241-.4147.583-.7269 1.025-.9365.442-.2096.973-.3145 1.593-.3145.364 0 .713.0388 1.046.1163.337.0774.686.1754 1.046.2939l-.253 1.374c-.629-.2187-1.204-.3281-1.723-.3281-.506 0-.873.1117-1.101.335-.227.2187-.341.5491-.341.9912v.4648h1.456v1.2305h-1.456V104h-1.662Zm5.866 0h-1.661v-7.3965h1.661V104Zm3.749 0h-1.661V93.5h1.661V104Zm5.212.137c-1.052 0-1.907-.331-2.563-.991-.652-.666-.978-1.55-.978-2.653v-.205c0-.7382.142-1.3967.424-1.9755.287-.5833.688-1.0368 1.203-1.3604.515-.3235 1.089-.4853 1.723-.4853 1.007 0 1.784.3213 2.331.9639.551.6425.827 1.5517.827 2.7273v.67h-4.833c.05.611.253 1.094.609 1.449.36.356.811.534 1.353.534.761 0 1.381-.308 1.859-.923l.896.854c-.296.442-.693.786-1.19 1.032-.492.242-1.045.363-1.661.363Zm-.198-6.3372c-.456 0-.825.1595-1.107.4785-.278.319-.456.7634-.534 1.333h3.165v-.123c-.036-.556-.184-.9753-.444-1.2578-.26-.2871-.62-.4307-1.08-.4307Z" fill="#000"/></g><g filter="url(#q)"><path fill="#fff" d="M482 127h144v52H482z"/><path opacity=".87" d="M498.649 154.24c0-1.135.269-2.046.807-2.734.538-.693 1.242-1.039 2.112-1.039.866 0 1.552.296 2.058.888V147.5h1.265V158h-1.162l-.062-.793c-.506.62-1.21.93-2.112.93-.857 0-1.557-.351-2.099-1.053-.538-.702-.807-1.618-.807-2.748v-.096Zm1.265.144c0 .838.173 1.495.52 1.969.346.473.824.71 1.435.71.802 0 1.388-.36 1.757-1.08v-3.397c-.378-.697-.959-1.046-1.743-1.046-.62 0-1.103.239-1.449.718-.347.478-.52 1.187-.52 2.126Zm10.015 3.753c-1.003 0-1.819-.328-2.448-.985-.628-.66-.943-1.542-.943-2.645v-.233c0-.733.139-1.387.417-1.962.283-.578.675-1.029 1.176-1.353.506-.328 1.053-.492 1.64-.492.962 0 1.709.317 2.243.95.533.633.799 1.54.799 2.721v.526h-5.01c.018.729.23 1.319.635 1.771.411.446.93.669 1.559.669.447 0 .825-.091 1.135-.273.31-.182.581-.424.813-.725l.773.602c-.62.952-1.55 1.429-2.789 1.429Zm-.158-6.631c-.51 0-.938.187-1.285.56-.346.37-.56.889-.642 1.559h3.705v-.096c-.037-.642-.21-1.139-.52-1.49-.31-.355-.729-.533-1.258-.533Zm5.134 6.494v-6.419h-1.169v-.977h1.169v-.759c0-.793.212-1.406.636-1.839.424-.433 1.023-.65 1.798-.65.292 0 .581.039.868.117l-.068 1.025c-.215-.041-.442-.061-.684-.061-.41 0-.727.12-.95.362-.223.237-.335.579-.335 1.025v.78h1.579v.977h-1.579V158h-1.265Zm8.812 0c-.073-.146-.132-.406-.178-.779-.588.61-1.29.916-2.105.916-.73 0-1.329-.205-1.798-.616-.465-.414-.698-.938-.698-1.572 0-.77.292-1.367.875-1.791.588-.428 1.413-.642 2.475-.642h1.231v-.581c0-.442-.133-.793-.397-1.053-.264-.264-.654-.397-1.169-.397-.451 0-.829.114-1.135.342-.305.228-.458.504-.458.827h-1.271c0-.369.13-.724.39-1.066.264-.346.619-.62 1.066-.82.451-.201.946-.301 1.483-.301.853 0 1.52.214 2.003.642.483.424.734 1.01.752 1.757v3.405c0 .679.087 1.219.26 1.62V158h-1.326Zm-2.099-.964c.397 0 .773-.102 1.128-.307.356-.206.613-.472.773-.8v-1.518h-.992c-1.549 0-2.324.454-2.324 1.36 0 .397.132.707.397.93.264.223.603.335 1.018.335Zm9.714.233c-.492.578-1.214.868-2.167.868-.788 0-1.39-.228-1.805-.684-.41-.46-.617-1.139-.622-2.037v-4.812h1.265v4.778c0 1.121.456 1.681 1.367 1.681.966 0 1.609-.36 1.928-1.08v-5.379h1.264V158h-1.203l-.027-.731Zm4.532.731H534.6v-10.5h1.264V158Zm3.746-9.188v1.792h1.381v.977h-1.381v4.587c0 .296.062.52.185.67.123.146.333.219.629.219.146 0 .346-.028.601-.082V158c-.332.091-.656.137-.97.137-.565 0-.992-.171-1.279-.513-.287-.342-.43-.827-.43-1.456v-4.587h-1.347v-.977h1.347v-1.792h1.264Z" fill="#000"/></g><g filter="url(#r)"><path fill="#fff" d="M482 179h144v52H482z"/><path opacity=".87" d="M498.649 206.24c0-1.135.269-2.046.807-2.734.538-.693 1.242-1.039 2.112-1.039.866 0 1.552.296 2.058.888V199.5h1.265V210h-1.162l-.062-.793c-.506.62-1.21.93-2.112.93-.857 0-1.557-.351-2.099-1.053-.538-.702-.807-1.618-.807-2.748v-.096Zm1.265.144c0 .838.173 1.495.52 1.969.346.473.824.71 1.435.71.802 0 1.388-.36 1.757-1.08v-3.397c-.378-.697-.959-1.046-1.743-1.046-.62 0-1.103.239-1.449.718-.347.478-.52 1.187-.52 2.126Zm10.015 3.753c-1.003 0-1.819-.328-2.448-.985-.628-.66-.943-1.542-.943-2.645v-.233c0-.733.139-1.387.417-1.962.283-.578.675-1.029 1.176-1.353.506-.328 1.053-.492 1.64-.492.962 0 1.709.317 2.243.95.533.633.799 1.54.799 2.721v.526h-5.01c.018.729.23 1.319.635 1.771.411.446.93.669 1.559.669.447 0 .825-.091 1.135-.273.31-.182.581-.424.813-.725l.773.602c-.62.952-1.55 1.429-2.789 1.429Zm-.158-6.631c-.51 0-.938.187-1.285.56-.346.37-.56.889-.642 1.559h3.705v-.096c-.037-.642-.21-1.139-.52-1.49-.31-.355-.729-.533-1.258-.533Zm5.134 6.494v-6.419h-1.169v-.977h1.169v-.759c0-.793.212-1.406.636-1.839.424-.433 1.023-.65 1.798-.65.292 0 .581.039.868.117l-.068 1.025c-.215-.041-.442-.061-.684-.061-.41 0-.727.12-.95.362-.223.237-.335.579-.335 1.025v.78h1.579v.977h-1.579V210h-1.265Zm8.812 0c-.073-.146-.132-.406-.178-.779-.588.61-1.29.916-2.105.916-.73 0-1.329-.205-1.798-.616-.465-.414-.698-.938-.698-1.572 0-.77.292-1.367.875-1.791.588-.428 1.413-.642 2.475-.642h1.231v-.581c0-.442-.133-.793-.397-1.053-.264-.264-.654-.397-1.169-.397-.451 0-.829.114-1.135.342-.305.228-.458.504-.458.827h-1.271c0-.369.13-.724.39-1.066.264-.346.619-.62 1.066-.82.451-.201.946-.301 1.483-.301.853 0 1.52.214 2.003.642.483.424.734 1.01.752 1.757v3.405c0 .679.087 1.219.26 1.62V210h-1.326Zm-2.099-.964c.397 0 .773-.102 1.128-.307.356-.206.613-.472.773-.8v-1.518h-.992c-1.549 0-2.324.454-2.324 1.36 0 .397.132.707.397.93.264.223.603.335 1.018.335Zm9.714.233c-.492.578-1.214.868-2.167.868-.788 0-1.39-.228-1.805-.684-.41-.46-.617-1.139-.622-2.037v-4.812h1.265v4.778c0 1.121.456 1.681 1.367 1.681.966 0 1.609-.36 1.928-1.08v-5.379h1.264V210h-1.203l-.027-.731Zm4.532.731H534.6v-10.5h1.264V210Zm3.746-9.188v1.792h1.381v.977h-1.381v4.587c0 .296.062.52.185.67.123.146.333.219.629.219.146 0 .346-.028.601-.082V210c-.332.091-.656.137-.97.137-.565 0-.992-.171-1.279-.513-.287-.342-.43-.827-.43-1.456v-4.587h-1.347v-.977h1.347v-1.792h1.264Z" fill="#000"/></g><g filter="url(#s)"><path fill="#fff" d="M482 231h144v52H482z"/><path fill="#000" fill-opacity=".04" d="M482 231h144v52H482z"/><path opacity=".87" d="M498.649 258.24c0-1.135.269-2.046.807-2.734.538-.693 1.242-1.039 2.112-1.039.866 0 1.552.296 2.058.888V251.5h1.265V262h-1.162l-.062-.793c-.506.62-1.21.93-2.112.93-.857 0-1.557-.351-2.099-1.053-.538-.702-.807-1.618-.807-2.748v-.096Zm1.265.144c0 .838.173 1.495.52 1.969.346.473.824.71 1.435.71.802 0 1.388-.36 1.757-1.08v-3.397c-.378-.697-.959-1.046-1.743-1.046-.62 0-1.103.239-1.449.718-.347.478-.52 1.187-.52 2.126Zm10.015 3.753c-1.003 0-1.819-.328-2.448-.985-.628-.66-.943-1.542-.943-2.645v-.233c0-.733.139-1.387.417-1.962.283-.578.675-1.029 1.176-1.353.506-.328 1.053-.492 1.64-.492.962 0 1.709.317 2.243.95.533.633.799 1.54.799 2.721v.526h-5.01c.018.729.23 1.319.635 1.771.411.446.93.669 1.559.669.447 0 .825-.091 1.135-.273.31-.182.581-.424.813-.725l.773.602c-.62.952-1.55 1.429-2.789 1.429Zm-.158-6.631c-.51 0-.938.187-1.285.56-.346.37-.56.889-.642 1.559h3.705v-.096c-.037-.642-.21-1.139-.52-1.49-.31-.355-.729-.533-1.258-.533Zm5.134 6.494v-6.419h-1.169v-.977h1.169v-.759c0-.793.212-1.406.636-1.839.424-.433 1.023-.65 1.798-.65.292 0 .581.039.868.117l-.068 1.025c-.215-.041-.442-.061-.684-.061-.41 0-.727.12-.95.362-.223.237-.335.579-.335 1.025v.78h1.579v.977h-1.579V262h-1.265Zm8.812 0c-.073-.146-.132-.406-.178-.779-.588.61-1.29.916-2.105.916-.73 0-1.329-.205-1.798-.616-.465-.414-.698-.938-.698-1.572 0-.77.292-1.367.875-1.791.588-.428 1.413-.642 2.475-.642h1.231v-.581c0-.442-.133-.793-.397-1.053-.264-.264-.654-.397-1.169-.397-.451 0-.829.114-1.135.342-.305.228-.458.504-.458.827h-1.271c0-.369.13-.724.39-1.066.264-.346.619-.62 1.066-.82.451-.201.946-.301 1.483-.301.853 0 1.52.214 2.003.642.483.424.734 1.01.752 1.757v3.405c0 .679.087 1.219.26 1.62V262h-1.326Zm-2.099-.964c.397 0 .773-.102 1.128-.307.356-.206.613-.472.773-.8v-1.518h-.992c-1.549 0-2.324.454-2.324 1.36 0 .397.132.707.397.93.264.223.603.335 1.018.335Zm9.714.233c-.492.578-1.214.868-2.167.868-.788 0-1.39-.228-1.805-.684-.41-.46-.617-1.139-.622-2.037v-4.812h1.265v4.778c0 1.121.456 1.681 1.367 1.681.966 0 1.609-.36 1.928-1.08v-5.379h1.264V262h-1.203l-.027-.731Zm4.532.731H534.6v-10.5h1.264V262Zm3.746-9.188v1.792h1.381v.977h-1.381v4.587c0 .296.062.52.185.67.123.146.333.219.629.219.146 0 .346-.028.601-.082V262c-.332.091-.656.137-.97.137-.565 0-.992-.171-1.279-.513-.287-.342-.43-.827-.43-1.456v-4.587h-1.347v-.977h1.347v-1.792h1.264Z" fill="#000"/></g><g filter="url(#t)"><path fill="#fff" d="M482 283h144v52H482z"/><path opacity=".87" d="M498.649 310.24c0-1.135.269-2.046.807-2.734.538-.693 1.242-1.039 2.112-1.039.866 0 1.552.296 2.058.888V303.5h1.265V314h-1.162l-.062-.793c-.506.62-1.21.93-2.112.93-.857 0-1.557-.351-2.099-1.053-.538-.702-.807-1.618-.807-2.748v-.096Zm1.265.144c0 .838.173 1.495.52 1.969.346.473.824.71 1.435.71.802 0 1.388-.36 1.757-1.08v-3.397c-.378-.697-.959-1.046-1.743-1.046-.62 0-1.103.239-1.449.718-.347.478-.52 1.187-.52 2.126Zm10.015 3.753c-1.003 0-1.819-.328-2.448-.985-.628-.66-.943-1.542-.943-2.645v-.233c0-.733.139-1.387.417-1.962.283-.578.675-1.029 1.176-1.353.506-.328 1.053-.492 1.64-.492.962 0 1.709.317 2.243.95.533.633.799 1.54.799 2.721v.526h-5.01c.018.729.23 1.319.635 1.771.411.446.93.669 1.559.669.447 0 .825-.091 1.135-.273.31-.182.581-.424.813-.725l.773.602c-.62.952-1.55 1.429-2.789 1.429Zm-.158-6.631c-.51 0-.938.187-1.285.56-.346.37-.56.889-.642 1.559h3.705v-.096c-.037-.642-.21-1.139-.52-1.49-.31-.355-.729-.533-1.258-.533Zm5.134 6.494v-6.419h-1.169v-.977h1.169v-.759c0-.793.212-1.406.636-1.839.424-.433 1.023-.65 1.798-.65.292 0 .581.039.868.117l-.068 1.025c-.215-.041-.442-.061-.684-.061-.41 0-.727.12-.95.362-.223.237-.335.579-.335 1.025v.78h1.579v.977h-1.579V314h-1.265Zm8.812 0c-.073-.146-.132-.406-.178-.779-.588.61-1.29.916-2.105.916-.73 0-1.329-.205-1.798-.616-.465-.414-.698-.938-.698-1.572 0-.77.292-1.367.875-1.791.588-.428 1.413-.642 2.475-.642h1.231v-.581c0-.442-.133-.793-.397-1.053-.264-.264-.654-.397-1.169-.397-.451 0-.829.114-1.135.342-.305.228-.458.504-.458.827h-1.271c0-.369.13-.724.39-1.066.264-.346.619-.62 1.066-.82.451-.201.946-.301 1.483-.301.853 0 1.52.214 2.003.642.483.424.734 1.01.752 1.757v3.405c0 .679.087 1.219.26 1.62V314h-1.326Zm-2.099-.964c.397 0 .773-.102 1.128-.307.356-.206.613-.472.773-.8v-1.518h-.992c-1.549 0-2.324.454-2.324 1.36 0 .397.132.707.397.93.264.223.603.335 1.018.335Zm9.714.233c-.492.578-1.214.868-2.167.868-.788 0-1.39-.228-1.805-.684-.41-.46-.617-1.139-.622-2.037v-4.812h1.265v4.778c0 1.121.456 1.681 1.367 1.681.966 0 1.609-.36 1.928-1.08v-5.379h1.264V314h-1.203l-.027-.731Zm4.532.731H534.6v-10.5h1.264V314Zm3.746-9.188v1.792h1.381v.977h-1.381v4.587c0 .296.062.52.185.67.123.146.333.219.629.219.146 0 .346-.028.601-.082V314c-.332.091-.656.137-.97.137-.565 0-.992-.171-1.279-.513-.287-.342-.43-.827-.43-1.456v-4.587h-1.347v-.977h1.347v-1.792h1.264Z" fill="#000"/></g></g><path opacity=".83" d="M22.6504 42V27.7812h4.0137c1.2369 0 2.3307.2735 3.2812.8204.9505.5468 1.683 1.3248 2.1973 2.3339.5208 1.0092.7845 2.168.791 3.4766v.9082c0 1.3412-.2604 2.5163-.7813 3.5254-.5143 1.0091-1.2532 1.7839-2.2168 2.3242-.957.5404-2.0735.8171-3.3496.8301h-3.9355Zm1.875-12.6758v11.1426h1.9726c1.4454 0 2.5684-.4492 3.3692-1.3477.8073-.8984 1.2109-2.1777 1.2109-3.8379v-.83c0-1.6146-.3808-2.8679-1.1426-3.7598-.7552-.8984-1.8294-1.3542-3.2226-1.3672h-2.1875ZM40.077 42.1953c-1.4323 0-2.5977-.4687-3.4961-1.4062-.8985-.944-1.3477-2.2038-1.3477-3.7793v-.3321c0-1.0481.1986-1.9824.5957-2.8027.4037-.8268.9635-1.4714 1.6797-1.9336.7226-.4687 1.5039-.7031 2.3437-.7031 1.3737 0 2.4414.4525 3.2032 1.3574.7617.905 1.1425 2.2005 1.1425 3.8867v.752h-7.1582c.0261 1.0416.3288 1.8847.9082 2.5293.586.638 1.3282.957 2.2266.957.638 0 1.1784-.1302 1.6211-.3906.4427-.2604.8301-.6055 1.1621-1.0352l1.1035.8594c-.8854 1.3607-2.2135 2.041-3.9843 2.041Zm-.2247-9.4726c-.7291 0-1.3411.2669-1.8359.8007-.4948.5274-.8008 1.2696-.918 2.2266h5.293v-.1367c-.0521-.918-.2995-1.6276-.7422-2.1289-.4427-.5078-1.0416-.7617-1.7969-.7617Zm9.995 6.8261 2.6172-8.1152h1.8457L50.5211 42h-1.377L45.316 31.4336h1.8457l2.6856 8.1152ZM58.2113 42h-1.8066V31.4336h1.8066V42Zm-1.9531-13.3691c0-.293.0879-.5404.2637-.7422.1823-.2019.4492-.3028.8008-.3028.3515 0 .6184.1009.8007.3028.1823.2018.2735.4492.2735.7422 0 .2929-.0912.5371-.2735.7324-.1823.1953-.4492.2929-.8007.2929-.3516 0-.6185-.0976-.8008-.2929-.1758-.1953-.2637-.4395-.2637-.7324ZM65.55 40.7207c.6445 0 1.2077-.1953 1.6895-.5859.4817-.3907.7487-.8789.8007-1.4649h1.709c-.0325.6055-.2409 1.1817-.625 1.7285-.3841.5469-.8984.9831-1.543 1.3086-.638.3256-1.3151.4883-2.0312.4883-1.4388 0-2.5846-.4785-3.4375-1.4355-.8464-.9636-1.2695-2.2787-1.2695-3.9453v-.3028c0-1.0286.1888-1.9433.5664-2.7441.3776-.8008.9179-1.4225 1.6211-1.8653.7096-.4427 1.5462-.664 2.5097-.664 1.1849 0 2.168.3548 2.9493 1.0644.7877.7097 1.2076 1.6309 1.2597 2.7637h-1.709c-.052-.6836-.3125-1.2435-.7812-1.6797-.4623-.4427-1.0352-.664-1.7188-.664-.9179 0-1.6308.332-2.1386.9961-.5013.6575-.752 1.6113-.752 2.8613v.3418c0 1.2174.2507 2.1549.752 2.8125.5013.6575 1.2174.9863 2.1484.9863Zm10.8152 1.4746c-1.4323 0-2.5976-.4687-3.4961-1.4062-.8984-.944-1.3476-2.2038-1.3476-3.7793v-.3321c0-1.0481.1986-1.9824.5957-2.8027.4036-.8268.9635-1.4714 1.6797-1.9336.7226-.4687 1.5039-.7031 2.3437-.7031 1.3737 0 2.4414.4525 3.2032 1.3574.7617.905 1.1425 2.2005 1.1425 3.8867v.752h-7.1582c.0261 1.0416.3288 1.8847.9082 2.5293.586.638 1.3282.957 2.2266.957.638 0 1.1784-.1302 1.6211-.3906.4427-.2604.8301-.6055 1.1621-1.0352l1.1035.8594c-.8854 1.3607-2.2135 2.041-3.9844 2.041Zm-.2246-9.4726c-.7291 0-1.3411.2669-1.8359.8007-.4948.5274-.8008 1.2696-.918 2.2266h5.293v-.1367c-.0521-.918-.2995-1.6276-.7422-2.1289-.4427-.5078-1.0417-.7617-1.7969-.7617Zm12.7977 6.4746c0-.4883-.1856-.8659-.5567-1.1328-.3645-.2735-1.0058-.5079-1.9238-.7032-.9114-.1953-1.6374-.4297-2.1777-.7031-.5339-.2734-.931-.599-1.1914-.9766-.2539-.3776-.3809-.8268-.3809-1.3476 0-.8659.3646-1.5983 1.0938-2.1973.7356-.5989 1.6731-.8984 2.8125-.8984 1.1979 0 2.1679.3092 2.9101.9277.7487.6185 1.1231 1.4095 1.1231 2.3731h-1.8164c0-.4948-.2116-.9213-.6348-1.2793-.4167-.3581-.944-.5371-1.582-.5371-.6576 0-1.1719.1432-1.543.4296-.3711.2865-.5566.6609-.5566 1.1231 0 .4362.1725.765.5175.9863.3451.2214.9668.433 1.8653.6348.9049.2018 1.6373.4427 2.1972.7226.5599.28.9733.6185 1.2403 1.0157.2734.3906.4101.8691.4101 1.4355 0 .944-.3776 1.7025-1.1328 2.2754-.7552.5664-1.735.8496-2.9394.8496-.8464 0-1.5951-.1497-2.2461-.4492-.6511-.2995-1.1621-.7162-1.5332-1.25-.3646-.5404-.5469-1.1231-.5469-1.7481h1.8066c.0326.6055.2735 1.0873.7227 1.4454.4557.3515 1.0547.5273 1.7969.5273.6836 0 1.2304-.1367 1.6406-.4102.4166-.2799.625-.651.625-1.1132Z" fill="#000"/></g><defs><filter id="b" x="0" y="71" width="626" height="265" filterUnits="userSpaceOnUse" color-interpolation-filters="sRGB"><feFlood flood-opacity="0" result="BackgroundImageFix"/><feColorMatrix in="SourceAlpha" values="0 0 0 0 0 0 0 0 0 0 0 0 0 0 0 0 0 0 127 0"/><feOffset dy="1"/><feColorMatrix values="0 0 0 0 0 0 0 0 0 0 0 0 0 0 0 0 0 0 0.12 0"/><feBlend in2="BackgroundImageFix" result="effect1_dropShadow"/><feBlend in="SourceGraphic" in2="effect1_dropShadow" result="shape"/></filter><filter id="c" x="0" y="127" width="56" height="52" filterUnits="userSpaceOnUse" color-interpolation-filters="sRGB"><feFlood flood-opacity="0" result="BackgroundImageFix"/><feBlend in="SourceGraphic" in2="BackgroundImageFix" result="shape"/><feColorMatrix in="SourceAlpha" values="0 0 0 0 0 0 0 0 0 0 0 0 0 0 0 0 0 0 127 0" result="hardAlpha"/><feOffset dy="1"/><feComposite in2="hardAlpha" operator="arithmetic" k2="-1" k3="1"/><feColorMatrix values="0 0 0 0 0 0 0 0 0 0 0 0 0 0 0 0 0 0 0.12 0"/><feBlend in2="shape" result="effect1_innerShadow"/></filter><filter id="d" x="0" y="179" width="56" height="52" filterUnits="userSpaceOnUse" color-interpolation-filters="sRGB"><feFlood flood-opacity="0" result="BackgroundImageFix"/><feBlend in="SourceGraphic" in2="BackgroundImageFix" result="shape"/><feColorMatrix in="SourceAlpha" values="0 0 0 0 0 0 0 0 0 0 0 0 0 0 0 0 0 0 127 0" result="hardAlpha"/><feOffset dy="1"/><feComposite in2="hardAlpha" operator="arithmetic" k2="-1" k3="1"/><feColorMatrix values="0 0 0 0 0 0 0 0 0 0 0 0 0 0 0 0 0 0 0.12 0"/><feBlend in2="shape" result="effect1_innerShadow"/></filter><filter id="e" x="0" y="231" width="56" height="52" filterUnits="userSpaceOnUse" color-interpolation-filters="sRGB"><feFlood flood-opacity="0" result="BackgroundImageFix"/><feBlend in="SourceGraphic" in2="BackgroundImageFix" result="shape"/><feColorMatrix in="SourceAlpha" values="0 0 0 0 0 0 0 0 0 0 0 0 0 0 0 0 0 0 127 0" result="hardAlpha"/><feOffset dy="1"/><feComposite in2="hardAlpha" operator="arithmetic" k2="-1" k3="1"/><feColorMatrix values="0 0 0 0 0 0 0 0 0 0 0 0 0 0 0 0 0 0 0.12 0"/><feBlend in2="shape" result="effect1_innerShadow"/></filter><filter id="f" x="0" y="283" width="56" height="52" filterUnits="userSpaceOnUse" color-interpolation-filters="sRGB"><feFlood flood-opacity="0" result="BackgroundImageFix"/><feBlend in="SourceGraphic" in2="BackgroundImageFix" result="shape"/><feColorMatrix in="SourceAlpha" values="0 0 0 0 0 0 0 0 0 0 0 0 0 0 0 0 0 0 127 0" result="hardAlpha"/><feOffset dy="1"/><feComposite in2="hardAlpha" operator="arithmetic" k2="-1" k3="1"/><feColorMatrix values="0 0 0 0 0 0 0 0 0 0 0 0 0 0 0 0 0 0 0.12 0"/><feBlend in2="shape" result="effect1_innerShadow"/></filter><filter id="g" x="56" y="127" width="176" height="52" filterUnits="userSpaceOnUse" color-interpolation-filters="sRGB"><feFlood flood-opacity="0" result="BackgroundImageFix"/><feBlend in="SourceGraphic" in2="BackgroundImageFix" result="shape"/><feColorMatrix in="SourceAlpha" values="0 0 0 0 0 0 0 0 0 0 0 0 0 0 0 0 0 0 127 0" result="hardAlpha"/><feOffset dy="1"/><feComposite in2="hardAlpha" operator="arithmetic" k2="-1" k3="1"/><feColorMatrix values="0 0 0 0 0 0 0 0 0 0 0 0 0 0 0 0 0 0 0.12 0"/><feBlend in2="shape" result="effect1_innerShadow"/></filter><filter id="h" x="56" y="179" width="176" height="52" filterUnits="userSpaceOnUse" color-interpolation-filters="sRGB"><feFlood flood-opacity="0" result="BackgroundImageFix"/><feBlend in="SourceGraphic" in2="BackgroundImageFix" result="shape"/><feColorMatrix in="SourceAlpha" values="0 0 0 0 0 0 0 0 0 0 0 0 0 0 0 0 0 0 127 0" result="hardAlpha"/><feOffset dy="1"/><feComposite in2="hardAlpha" operator="arithmetic" k2="-1" k3="1"/><feColorMatrix values="0 0 0 0 0 0 0 0 0 0 0 0 0 0 0 0 0 0 0.12 0"/><feBlend in2="shape" result="effect1_innerShadow"/></filter><filter id="i" x="56" y="231" width="176" height="52" filterUnits="userSpaceOnUse" color-interpolation-filters="sRGB"><feFlood flood-opacity="0" result="BackgroundImageFix"/><feBlend in="SourceGraphic" in2="BackgroundImageFix" result="shape"/><feColorMatrix in="SourceAlpha" values="0 0 0 0 0 0 0 0 0 0 0 0 0 0 0 0 0 0 127 0" result="hardAlpha"/><feOffset dy="1"/><feComposite in2="hardAlpha" operator="arithmetic" k2="-1" k3="1"/><feColorMatrix values="0 0 0 0 0 0 0 0 0 0 0 0 0 0 0 0 0 0 0.12 0"/><feBlend in2="shape" result="effect1_innerShadow"/></filter><filter id="j" x="56" y="283" width="176" height="52" filterUnits="userSpaceOnUse" color-interpolation-filters="sRGB"><feFlood flood-opacity="0" result="BackgroundImageFix"/><feBlend in="SourceGraphic" in2="BackgroundImageFix" result="shape"/><feColorMatrix in="SourceAlpha" values="0 0 0 0 0 0 0 0 0 0 0 0 0 0 0 0 0 0 127 0" result="hardAlpha"/><feOffset dy="1"/><feComposite in2="hardAlpha" operator="arithmetic" k2="-1" k3="1"/><feColorMatrix values="0 0 0 0 0 0 0 0 0 0 0 0 0 0 0 0 0 0 0.12 0"/><feBlend in2="shape" result="effect1_innerShadow"/></filter><filter id="l" x="232" y="127" width="250" height="52" filterUnits="userSpaceOnUse" color-interpolation-filters="sRGB"><feFlood flood-opacity="0" result="BackgroundImageFix"/><feBlend in="SourceGraphic" in2="BackgroundImageFix" result="shape"/><feColorMatrix in="SourceAlpha" values="0 0 0 0 0 0 0 0 0 0 0 0 0 0 0 0 0 0 127 0" result="hardAlpha"/><feOffset dy="1"/><feComposite in2="hardAlpha" operator="arithmetic" k2="-1" k3="1"/><feColorMatrix values="0 0 0 0 0 0 0 0 0 0 0 0 0 0 0 0 0 0 0.12 0"/><feBlend in2="shape" result="effect1_innerShadow"/></filter><filter id="m" x="232" y="179" width="250" height="52" filterUnits="userSpaceOnUse" color-interpolation-filters="sRGB"><feFlood flood-opacity="0" result="BackgroundImageFix"/><feBlend in="SourceGraphic" in2="BackgroundImageFix" result="shape"/><feColorMatrix in="SourceAlpha" values="0 0 0 0 0 0 0 0 0 0 0 0 0 0 0 0 0 0 127 0" result="hardAlpha"/><feOffset dy="1"/><feComposite in2="hardAlpha" operator="arithmetic" k2="-1" k3="1"/><feColorMatrix values="0 0 0 0 0 0 0 0 0 0 0 0 0 0 0 0 0 0 0.12 0"/><feBlend in2="shape" result="effect1_innerShadow"/></filter><filter id="n" x="232" y="231" width="250" height="52" filterUnits="userSpaceOnUse" color-interpolation-filters="sRGB"><feFlood flood-opacity="0" result="BackgroundImageFix"/><feBlend in="SourceGraphic" in2="BackgroundImageFix" result="shape"/><feColorMatrix in="SourceAlpha" values="0 0 0 0 0 0 0 0 0 0 0 0 0 0 0 0 0 0 127 0" result="hardAlpha"/><feOffset dy="1"/><feComposite in2="hardAlpha" operator="arithmetic" k2="-1" k3="1"/><feColorMatrix values="0 0 0 0 0 0 0 0 0 0 0 0 0 0 0 0 0 0 0.12 0"/><feBlend in2="shape" result="effect1_innerShadow"/></filter><filter id="o" x="232" y="283" width="250" height="52" filterUnits="userSpaceOnUse" color-interpolation-filters="sRGB"><feFlood flood-opacity="0" result="BackgroundImageFix"/><feBlend in="SourceGraphic" in2="BackgroundImageFix" result="shape"/><feColorMatrix in="SourceAlpha" values="0 0 0 0 0 0 0 0 0 0 0 0 0 0 0 0 0 0 127 0" result="hardAlpha"/><feOffset dy="1"/><feComposite in2="hardAlpha" operator="arithmetic" k2="-1" k3="1"/><feColorMatrix values="0 0 0 0 0 0 0 0 0 0 0 0 0 0 0 0 0 0 0.12 0"/><feBlend in2="shape" result="effect1_innerShadow"/></filter><filter id="q" x="482" y="127" width="144" height="52" filterUnits="userSpaceOnUse" color-interpolation-filters="sRGB"><feFlood flood-opacity="0" result="BackgroundImageFix"/><feBlend in="SourceGraphic" in2="BackgroundImageFix" result="shape"/><feColorMatrix in="SourceAlpha" values="0 0 0 0 0 0 0 0 0 0 0 0 0 0 0 0 0 0 127 0" result="hardAlpha"/><feOffset dy="1"/><feComposite in2="hardAlpha" operator="arithmetic" k2="-1" k3="1"/><feColorMatrix values="0 0 0 0 0 0 0 0 0 0 0 0 0 0 0 0 0 0 0.12 0"/><feBlend in2="shape" result="effect1_innerShadow"/></filter><filter id="r" x="482" y="179" width="144" height="52" filterUnits="userSpaceOnUse" color-interpolation-filters="sRGB"><feFlood flood-opacity="0" result="BackgroundImageFix"/><feBlend in="SourceGraphic" in2="BackgroundImageFix" result="shape"/><feColorMatrix in="SourceAlpha" values="0 0 0 0 0 0 0 0 0 0 0 0 0 0 0 0 0 0 127 0" result="hardAlpha"/><feOffset dy="1"/><feComposite in2="hardAlpha" operator="arithmetic" k2="-1" k3="1"/><feColorMatrix values="0 0 0 0 0 0 0 0 0 0 0 0 0 0 0 0 0 0 0.12 0"/><feBlend in2="shape" result="effect1_innerShadow"/></filter><filter id="s" x="482" y="231" width="144" height="52" filterUnits="userSpaceOnUse" color-interpolation-filters="sRGB"><feFlood flood-opacity="0" result="BackgroundImageFix"/><feBlend in="SourceGraphic" in2="BackgroundImageFix" result="shape"/><feColorMatrix in="SourceAlpha" values="0 0 0 0 0 0 0 0 0 0 0 0 0 0 0 0 0 0 127 0" result="hardAlpha"/><feOffset dy="1"/><feComposite in2="hardAlpha" operator="arithmetic" k2="-1" k3="1"/><feColorMatrix values="0 0 0 0 0 0 0 0 0 0 0 0 0 0 0 0 0 0 0.12 0"/><feBlend in2="shape" result="effect1_innerShadow"/></filter><filter id="t" x="482" y="283" width="144" height="52" filterUnits="userSpaceOnUse" color-interpolation-filters="sRGB"><feFlood flood-opacity="0" result="BackgroundImageFix"/><feBlend in="SourceGraphic" in2="BackgroundImageFix" result="shape"/><feColorMatrix in="SourceAlpha" values="0 0 0 0 0 0 0 0 0 0 0 0 0 0 0 0 0 0 127 0" result="hardAlpha"/><feOffset dy="1"/><feComposite in2="hardAlpha" operator="arithmetic" k2="-1" k3="1"/><feColorMatrix values="0 0 0 0 0 0 0 0 0 0 0 0 0 0 0 0 0 0 0.12 0"/><feBlend in2="shape" result="effect1_innerShadow"/></filter><clipPath id="a"><rect y="24" width="626" height="311" rx="4" fill="#fff"/></clipPath><clipPath id="k"><path fill="#fff" transform="translate(248 86)" d="M0 0h42v26H0z"/></clipPath><clipPath id="p"><path fill="#fff" transform="translate(498 86)" d="M0 0h91v26H0z"/></clipPath></defs></svg>