<svg xmlns="http://www.w3.org/2000/svg" width="162" height="166" viewBox="0 0 162 166" fill="none">
    <g opacity="0.16" clip-path="url(#clip0_12109_13412)">
        <path d="M33.1763 93.4533L115.143 140.777C121.894 144.675 125.269 146.623 128.678 146.674C131.677 146.718 134.686 145.764 137.276 143.948C140.219 141.884 142.353 138.188 146.62 130.797L148.906 126.838C153.173 119.448 155.306 115.753 155.622 112.171C155.9 109.02 155.221 105.937 153.684 103.362C151.936 100.435 148.561 98.4865 141.81 94.5889L59.8429 47.2653C53.0921 43.3677 49.7167 41.4189 46.3077 41.3687C43.3089 41.3247 40.2996 42.2785 37.7104 44.0942C34.7665 46.1591 32.6332 49.8542 28.3662 57.2449L26.0805 61.2039C21.8134 68.5946 19.6797 72.2903 19.3637 75.8716C19.0859 79.0217 19.7642 82.1054 21.302 84.6798C23.05 87.6069 26.4254 89.5557 33.1763 93.4533Z" fill="#2A7DEC"/>
        <path d="M99.2823 73.602L119.282 38.9611" stroke="#2A7DEC" stroke-width="13.3333" stroke-linecap="round" stroke-linejoin="round"/>
        <path fill-rule="evenodd" clip-rule="evenodd" d="M44.3141 68.8093C46.1551 65.6207 50.2323 64.5282 53.421 66.3691L76.515 79.7025C79.7036 81.5434 80.7961 85.6207 78.9551 88.8093C77.1142 91.9979 73.0369 93.0904 69.8483 91.2495L46.7543 77.9161C43.5657 76.0752 42.4732 71.9979 44.3141 68.8093Z" fill="white"/>
        <path d="M80.63 28.638C83.8257 16.7169 92.4666 6.56791 104.469 1.80085M147.548 67.2724C156.274 58.5447 160.743 45.987 158.87 33.2094M54.8549 21.7765C60.4329 0.942358 75.9888 -16.6471 97.5189 -24.0573M166.358 86.1528C181.611 70.905 189.067 48.6387 184.719 26.2879" stroke="#2A7DEC" stroke-width="13.3333" stroke-linecap="round" stroke-linejoin="round"/>
    </g>
    <defs>
        <clipPath id="clip0_12109_13412">
            <rect width="160" height="160" fill="white" transform="translate(80 -53) rotate(30)"/>
        </clipPath>
    </defs>
</svg>