<svg xmlns="http://www.w3.org/2000/svg" height="45.522mm" width="50.722mm" version="1.1" viewBox="0 0 179.72266 161.29744">
 <g transform="translate(-206.76 -314.82)">
  <path style="color-rendering:auto;text-decoration-color:#000000;color:#000000;isolation:auto;mix-blend-mode:normal;shape-rendering:auto;solid-color:#000000;block-progression:tb;text-decoration-line:none;text-decoration-style:solid;image-rendering:auto;white-space:normal;text-indent:0;text-transform:none" d="m250.16 329.03h-37.236a6.1631 6.1631 0 0 0 -6.1621 6.1621v134.76a6.1631 6.1631 0 0 0 6.1621 6.1641h167.4a6.1631 6.1631 0 0 0 6.1621 -6.1641v-134.76a6.1631 6.1631 0 0 0 -6.1621 -6.1621h-40.133v12.326h33.969v122.44h-155.07v-122.44h31.074v-12.326z" fill="#305680"/>
  <g fill="#305680" transform="matrix(.36964 0 0 .36964 307.84 271.16)">
   <g transform="translate(-318.77 19.031)" fill="#305680">
    <path style="color-rendering:auto;text-decoration-color:#000000;color:#000000;isolation:auto;mix-blend-mode:normal;shape-rendering:auto;solid-color:#000000;block-progression:tb;text-decoration-line:none;text-decoration-style:solid;image-rendering:auto;white-space:normal;text-indent:0;text-transform:none" d="m146.6 366.65c-2.065 0.0002-3.739 1.6742-3.7392 3.7392v72.522c0.00021 2.065 1.6742 3.739 3.7392 3.7392h72.522c2.065-0.00021 3.739-1.6742 3.7392-3.7392v-72.522c-0.00021-2.065-1.6742-3.739-3.7392-3.7392z"/>
    <g fill-rule="evenodd" transform="translate(-257.14 294.29)">
     <path style="color-rendering:auto;text-decoration-color:#000000;color:#000000;isolation:auto;mix-blend-mode:normal;shape-rendering:auto;solid-color:#000000;block-progression:tb;text-decoration-line:none;text-decoration-style:solid;image-rendering:auto;white-space:normal;text-indent:0;text-transform:none" d="m419.92 49.559a5 5 0 0 0 -4.9233 5.0698v13.733h9.999v-13.733a5 5 0 0 0 -5.0757 -5.0698z"/>
     <path style="color-rendering:auto;text-decoration-color:#000000;color:#000000;isolation:auto;mix-blend-mode:normal;shape-rendering:auto;solid-color:#000000;block-progression:tb;text-decoration-line:none;text-decoration-style:solid;image-rendering:auto;white-space:normal;text-indent:0;text-transform:none" d="m439.92 49.559a5 5 0 0 0 -4.9233 5.0698v13.733h9.999v-13.733a5 5 0 0 0 -5.0757 -5.0698z"/>
     <path style="color-rendering:auto;text-decoration-color:#000000;color:#000000;isolation:auto;mix-blend-mode:normal;shape-rendering:auto;solid-color:#000000;block-progression:tb;text-decoration-line:none;text-decoration-style:solid;image-rendering:auto;white-space:normal;text-indent:0;text-transform:none" d="m459.92 49.559a5 5 0 0 0 -4.9233 5.0698v13.733h9.999v-13.733a5 5 0 0 0 -5.0757 -5.0698z"/>
    </g>
    <g fill-rule="evenodd" transform="matrix(-1 0 0 -1 622.86 519.01)">
     <path style="color-rendering:auto;text-decoration-color:#000000;color:#000000;isolation:auto;mix-blend-mode:normal;shape-rendering:auto;solid-color:#000000;block-progression:tb;text-decoration-line:none;text-decoration-style:solid;image-rendering:auto;white-space:normal;text-indent:0;text-transform:none" d="m419.92 49.559a5 5 0 0 0 -4.9233 5.0698v13.733h9.999v-13.733a5 5 0 0 0 -5.0757 -5.0698z"/>
     <path style="color-rendering:auto;text-decoration-color:#000000;color:#000000;isolation:auto;mix-blend-mode:normal;shape-rendering:auto;solid-color:#000000;block-progression:tb;text-decoration-line:none;text-decoration-style:solid;image-rendering:auto;white-space:normal;text-indent:0;text-transform:none" d="m439.92 49.559a5 5 0 0 0 -4.9233 5.0698v13.733h9.999v-13.733a5 5 0 0 0 -5.0757 -5.0698z"/>
     <path style="color-rendering:auto;text-decoration-color:#000000;color:#000000;isolation:auto;mix-blend-mode:normal;shape-rendering:auto;solid-color:#000000;block-progression:tb;text-decoration-line:none;text-decoration-style:solid;image-rendering:auto;white-space:normal;text-indent:0;text-transform:none" d="m459.92 49.559a5 5 0 0 0 -4.9233 5.0698v13.733h9.999v-13.733a5 5 0 0 0 -5.0757 -5.0698z"/>
    </g>
    <g fill-rule="evenodd" transform="matrix(0 -1 1 0 70.498 846.65)">
     <path style="color-rendering:auto;text-decoration-color:#000000;color:#000000;isolation:auto;mix-blend-mode:normal;shape-rendering:auto;solid-color:#000000;block-progression:tb;text-decoration-line:none;text-decoration-style:solid;image-rendering:auto;white-space:normal;text-indent:0;text-transform:none" d="m419.92 49.559a5 5 0 0 0 -4.9233 5.0698v13.733h9.999v-13.733a5 5 0 0 0 -5.0757 -5.0698z"/>
     <path style="color-rendering:auto;text-decoration-color:#000000;color:#000000;isolation:auto;mix-blend-mode:normal;shape-rendering:auto;solid-color:#000000;block-progression:tb;text-decoration-line:none;text-decoration-style:solid;image-rendering:auto;white-space:normal;text-indent:0;text-transform:none" d="m439.92 49.559a5 5 0 0 0 -4.9233 5.0698v13.733h9.999v-13.733a5 5 0 0 0 -5.0757 -5.0698z"/>
     <path style="color-rendering:auto;text-decoration-color:#000000;color:#000000;isolation:auto;mix-blend-mode:normal;shape-rendering:auto;solid-color:#000000;block-progression:tb;text-decoration-line:none;text-decoration-style:solid;image-rendering:auto;white-space:normal;text-indent:0;text-transform:none" d="m459.92 49.559a5 5 0 0 0 -4.9233 5.0698v13.733h9.999v-13.733a5 5 0 0 0 -5.0757 -5.0698z"/>
    </g>
    <g fill-rule="evenodd" transform="matrix(0 1 -1 0 295.22 -33.352)">
     <path style="color-rendering:auto;text-decoration-color:#000000;color:#000000;isolation:auto;mix-blend-mode:normal;shape-rendering:auto;solid-color:#000000;block-progression:tb;text-decoration-line:none;text-decoration-style:solid;image-rendering:auto;white-space:normal;text-indent:0;text-transform:none" d="m419.92 49.559a5 5 0 0 0 -4.9233 5.0698v13.733h9.999v-13.733a5 5 0 0 0 -5.0757 -5.0698z"/>
     <path style="color-rendering:auto;text-decoration-color:#000000;color:#000000;isolation:auto;mix-blend-mode:normal;shape-rendering:auto;solid-color:#000000;block-progression:tb;text-decoration-line:none;text-decoration-style:solid;image-rendering:auto;white-space:normal;text-indent:0;text-transform:none" d="m439.92 49.559a5 5 0 0 0 -4.9233 5.0698v13.733h9.999v-13.733a5 5 0 0 0 -5.0757 -5.0698z"/>
     <path style="color-rendering:auto;text-decoration-color:#000000;color:#000000;isolation:auto;mix-blend-mode:normal;shape-rendering:auto;solid-color:#000000;block-progression:tb;text-decoration-line:none;text-decoration-style:solid;image-rendering:auto;white-space:normal;text-indent:0;text-transform:none" d="m459.92 49.559a5 5 0 0 0 -4.9233 5.0698v13.733h9.999v-13.733a5 5 0 0 0 -5.0757 -5.0698z"/>
    </g>
   </g>
  </g>
  <g stroke="#237de0" stroke-linecap="round" stroke-width="11.729" fill="none">
   <path d="m302.56 371.67h54.786"/>
   <path d="m302.68 396.01h54.786"/>
   <path d="m302.84 420.61h54.786"/>
   <path d="m302.95 445.17h54.786"/>
  </g>
  <path style="color-rendering:auto;text-decoration-color:#000000;color:#000000;isolation:auto;mix-blend-mode:normal;shape-rendering:auto;solid-color:#000000;block-progression:tb;text-decoration-line:none;text-decoration-style:solid;image-rendering:auto;white-space:normal;text-indent:0;text-transform:none" d="m269.22 314.82a10.322 10.322 0 0 0 -10.32 10.32v15.787a10.322 10.322 0 0 0 0.0293 0.58594h73.879a10.322 10.322 0 0 0 0.0195 -0.58594v-15.787a10.322 10.322 0 0 0 -10.32 -10.32h-53.287zm10.547 5.377h32.785v15.465h-32.785v-14.326-1.1387z" fill="#305680"/>
  <g fill="#305680" transform="matrix(.86157 0 0 .86157 -31.588 -55.193)">
   <g transform="matrix(.59736 0 0 .59736 305.48 478.16)">
    <path d="m90 83h-75c-1.1 0-2-0.9-2-2v-1c0-1.1 0.9-2 2-2 0.7 0 1.4 0.4 1.7 1h72.4l1.8-1.8v-39.4l-2.4-2.4c-0.3-0.4-0.5-0.9-0.5-1.4v-12h-71v6c0 1.1-0.9 2-2 2s-2-0.9-2-2v-8c0-1.1 0.9-2 2-2h75c1.1 0 2 0.9 2 2v13.2l2.4 2.4c0.4 0.4 0.6 0.9 0.6 1.4v41c0 0.5-0.2 1-0.6 1.4l-3 3c-0.4 0.4-0.9 0.6-1.4 0.6z" fill="#305680"/>
   </g>
   <g transform="matrix(.59736 0 0 .33535 305.48 492.33)">
    <path d="m15 65c-1.1 0-2-0.9-2-2v-15c0-1.1 0.9-2 2-2s2 0.9 2 2v15c0 1.1-0.9 2-2 2z" fill="#305680"/>
   </g>
   <path d="m318.7 507.1h-11.908c-0.5954 0-1.1164-0.52097-1.1164-1.1164v-8.1867c0-0.5954 0.52097-1.1164 1.1164-1.1164h11.908c0.5954 0 1.1164 0.52097 1.1164 1.1164v8.1867c0 0.5954-0.52097 1.1164-1.1164 1.1164z"/>
   <path d="m320.39 524.16h-11.407c-0.65182 0-1.2222-0.57034-1.2222-1.2222v-6.5182c0-0.65182 0.57033-1.2222 1.2222-1.2222h11.407c0.65182 0 1.2222 0.57034 1.2222 1.2222v6.5182c0 0.65182-0.57034 1.2222-1.2222 1.2222z"/>
   <path d="m338.94 497.06h-16.089c-0.80446 0-1.5084-0.14784-1.5084-0.3168v-2.3232c0-0.16896 0.70392-0.3168 1.5084-0.3168h16.089c0.80447 0 1.5084 0.14784 1.5084 0.3168v2.3232c0 0.16896-0.70391 0.3168-1.5084 0.3168z"/>
   <path d="m354.92 516.2h-20.297c-1.0148 0-1.9028-0.2678-1.9028-0.57385v-4.2083c0-0.30605 0.888-0.57385 1.9028-0.57385h20.297c1.0148 0 1.9028 0.2678 1.9028 0.57385v4.2083c0 0.30605-0.888 0.57385-1.9028 0.57385z"/>
   <path d="m354.21 497.02h-9.2636c-0.46317 0-0.86845-0.14784-0.86845-0.3168v-2.3232c0-0.16896 0.40528-0.3168 0.86845-0.3168h9.2636c0.46317 0 0.86845 0.14784 0.86845 0.3168v2.3232c0 0.16896-0.40528 0.3168-0.86845 0.3168z"/>
   <path d="m349.76 505.38h-7.0837c-0.35408 0-0.6641-0.21728-0.6641-0.46562v-3.4146c0-0.24833 0.31006-0.46562 0.6641-0.46562h7.0837c0.35408 0 0.6641 0.21729 0.6641 0.46562v3.4146c0 0.24834-0.31009 0.46562-0.6641 0.46562z"/>
   <path d="m341.53 523.77h-12.012c-0.6006 0-1.1261-0.14784-1.1261-0.3168v-2.3232c0-0.16896 0.52553-0.3168 1.1261-0.3168h12.012c0.60059 0 1.1261 0.14784 1.1261 0.3168v2.3232c0 0.16896-0.52552 0.3168-1.1261 0.3168z"/>
   <path d="m356.01 523.73h-8.9938c-0.44969 0-0.84317-0.14784-0.84317-0.3168v-2.3232c0-0.16896 0.39348-0.3168 0.84317-0.3168h8.9938c0.44968 0 0.84316 0.14784 0.84316 0.3168v2.3232c0 0.16896-0.39348 0.3168-0.84316 0.3168z"/>
  </g>
 </g>
</svg>
