<svg width="24" height="24" viewBox="0 0 24 24" fill="none" xmlns="http://www.w3.org/2000/svg">
<path fill-rule="evenodd" clip-rule="evenodd" d="M11.7251 2.00371L11.4011 2.43093L8.7679 3.45449L8.04377 5.05382L8.55988 6.60865L9.95286 6.32772L12.2569 5.37369L14.3635 6.07739L15.2851 6.97301L16.0751 9.02015L17.8525 8.06056L18.05 7.35685L18.9717 7.42083L20.0908 9.65988L21.3241 8.37867C19.8734 4.64587 16.2457 2 12 2C11.9081 2 11.8164 2.00124 11.7251 2.00371ZM3.69541 17.5726L5.93718 18.9999L6.46383 15.4175L7.51712 14.5858L7.12214 13.4983V12.4747L5.47637 12.0269L3.96226 10.7474L2.02182 11.3341C2.00735 11.5542 2 11.7762 2 12C2 14.0631 2.62476 15.9803 3.69541 17.5726ZM2.46105 8.98969L3.30396 9.65988L4.48891 9.34002L3.96226 8.44439L5.27888 7.35685L5.80552 6.20534L6.79298 5.05382L6.59549 4.09423L6.27595 3.79923C4.4898 5.04827 3.13061 6.86598 2.46105 8.98969ZM9.16289 6.97301L11.0061 6.84507V7.16493L11.9278 7.93261L12.5203 7.42083L13.8369 7.80466L15.2193 10.3636L16.4701 10.7474L14.8902 12.3468L15.0877 13.7542L13.771 15.4175L13.8369 15.8653L12.3228 16.7609L11.2036 14.138L11.467 12.8585L10.9403 11.8989L10.282 11.0673L8.63624 11.3872L7.58295 10.3636L7.38546 9.02015L9.16289 6.97301ZM17.0626 13.4983L16.2068 14.074L15.8776 15.6733L16.6018 16.1212L17.3917 14.6498V12.9865L17.0626 13.4983Z" fill="#2A7DEC"/>
<path fill-rule="evenodd" clip-rule="evenodd" d="M12 20C16.4183 20 20 16.4183 20 12C20 7.58172 16.4183 4 12 4C7.58172 4 4 7.58172 4 12C4 16.4183 7.58172 20 12 20ZM12 22C17.5228 22 22 17.5228 22 12C22 6.47715 17.5228 2 12 2C6.47715 2 2 6.47715 2 12C2 17.5228 6.47715 22 12 22Z" fill="#2A7DEC"/>
</svg>
