<svg width="20" height="18" fill="none" xmlns="http://www.w3.org/2000/svg"><g clip-path="url(#a)"><path d="M14.167 4.167c0 1.896-2.538 5.274-3.653 6.666a.653.653 0 0 1-1.028 0c-1.114-1.392-3.653-4.77-3.653-6.666A4.166 4.166 0 0 1 10 0a4.166 4.166 0 0 1 4.167 4.167Zm.277 2.791c.122-.24.233-.479.334-.715.017-.042.034-.087.052-.128l4.028-1.612A.833.833 0 0 1 20 5.278v9.403c0 .34-.208.645-.524.774l-5.032 2.01V6.958ZM4.778 4.802c.083.49.25.983.444 1.441.1.236.212.476.334.715v8.73l-4.414 1.767A.833.833 0 0 1 0 16.68V7.278c0-.34.208-.646.524-.775l4.257-1.7h-.003Zm6.604 6.726a36.219 36.219 0 0 0 1.951-2.674v8.656l-6.666-1.906v-6.75a36.237 36.237 0 0 0 1.951 2.674 1.766 1.766 0 0 0 2.764 0ZM10 5.278A1.389 1.389 0 1 0 10 2.5a1.389 1.389 0 0 0 0 2.778Z" fill="#2A7DEC"/></g><path d="M14.167 4.167c0 1.896-2.538 5.274-3.652 6.666a.653.653 0 0 1-1.028 0c-1.115-1.392-3.653-4.77-3.653-6.666A4.166 4.166 0 0 1 10.001 0a4.166 4.166 0 0 1 4.166 4.167Zm-4.166 1.11A1.389 1.389 0 1 0 10 2.5a1.389 1.389 0 0 0 0 2.778Z" fill="#D4E5FB"/><defs><clipPath id="a"><path fill="#fff" d="M0 0h20v17.778H0z"/></clipPath></defs></svg>