<svg width="34" height="44" viewBox="0 0 34 44" fill="none" xmlns="http://www.w3.org/2000/svg">
<path fill-rule="evenodd" clip-rule="evenodd" d="M27 14C27.5523 14 28 14.4477 28 15V19H23.6667C23.0176 19 22.386 19.2105 21.8667 19.6L18.9333 21.8C18.7602 21.9298 18.5497 22 18.3333 22H6V9C6 8.44772 6.44772 8 7 8H21C21.5523 8 22 8.44772 22 9V13C22 13.5523 22.4477 14 23 14H27Z" fill="#D4E5FB"/>
<path d="M9 12C9 11.4477 9.44772 11 10 11H15C15.5523 11 16 11.4477 16 12C16 12.5523 15.5523 13 15 13H10C9.44772 13 9 12.5523 9 12Z" fill="#2A7DEC"/>
<path d="M9 15.5C9 15.2239 9.22386 15 9.5 15H17.5C17.7761 15 18 15.2239 18 15.5C18 15.7761 17.7761 16 17.5 16H9.5C9.22386 16 9 15.7761 9 15.5Z" fill="#2A7DEC"/>
<path d="M9 17.5C9 17.2239 9.22386 17 9.5 17H13.5C13.7761 17 14 17.2239 14 17.5C14 17.7761 13.7761 18 13.5 18H9.5C9.22386 18 9 17.7761 9 17.5Z" fill="#2A7DEC"/>
<path d="M23 12V9.20706C23 8.76161 23.5386 8.53852 23.8536 8.8535L27.1465 12.1464C27.4615 12.4614 27.2384 13 26.7929 13H24C23.4478 13 23 12.5522 23 12Z" fill="#D4E5FB"/>
<path d="M30 22C30 20.8954 29.1046 20 28 20H23.6667C23.2339 20 22.8129 20.1404 22.4667 20.4L19.5333 22.6C19.1871 22.8596 18.7661 23 18.3333 23H6C4.89543 23 4 23.8954 4 25V34C4 35.1046 4.89543 36 6 36H18H28C29.1046 36 30 35.1046 30 34V22Z" fill="#2A7DEC"/>
</svg>
