<svg width="28" height="28" viewBox="0 0 28 28" fill="none" xmlns="http://www.w3.org/2000/svg">
<path fill-rule="evenodd" clip-rule="evenodd" d="M24 6C24.5523 6 25 6.44772 25 7V11H20.6667C20.0176 11 19.386 11.2105 18.8667 11.6L15.9333 13.8C15.7602 13.9298 15.5497 14 15.3333 14H3V1C3 0.447715 3.44772 0 4 0H18C18.5523 0 19 0.447715 19 1V5C19 5.55228 19.4477 6 20 6H24Z" fill="#D4E5FB"/>
<path d="M6 4C6 3.44772 6.44772 3 7 3H12C12.5523 3 13 3.44772 13 4V4C13 4.55228 12.5523 5 12 5H7C6.44772 5 6 4.55228 6 4V4Z" fill="#2A7DEC"/>
<path d="M6 7.5C6 7.22386 6.22386 7 6.5 7H14.5C14.7761 7 15 7.22386 15 7.5V7.5C15 7.77614 14.7761 8 14.5 8H6.5C6.22386 8 6 7.77614 6 7.5V7.5Z" fill="#2A7DEC"/>
<path d="M6 9.5C6 9.22386 6.22386 9 6.5 9H10.5C10.7761 9 11 9.22386 11 9.5V9.5C11 9.77614 10.7761 10 10.5 10H6.5C6.22386 10 6 9.77614 6 9.5V9.5Z" fill="#2A7DEC"/>
<path d="M20 3.99995V1.20706C20 0.761605 20.5386 0.538521 20.8536 0.853504L24.1465 4.1464C24.4615 4.46138 24.2384 4.99995 23.7929 4.99995H21C20.4478 4.99995 20 4.55224 20 3.99995Z" fill="#D4E5FB"/>
<path d="M27 14C27 12.8954 26.1046 12 25 12H20.6667C20.2339 12 19.8129 12.1404 19.4667 12.4L16.5333 14.6C16.1871 14.8596 15.7661 15 15.3333 15H3C1.89543 15 1 15.8954 1 17V26C1 27.1046 1.89543 28 3 28H15H25C26.1046 28 27 27.1046 27 26V14Z" fill="#2A7DEC"/>
</svg>
