<svg width="18" height="18" viewBox="0 0 18 18" fill="none" xmlns="http://www.w3.org/2000/svg">
<path fill-rule="evenodd" clip-rule="evenodd" d="M18 9C18 13.9706 13.9706 18 9 18C4.02944 18 0 13.9706 0 9C0 4.02944 4.02944 0 9 0C13.9706 0 18 4.02944 18 9ZM10 5C10 5.55228 9.55229 6 9 6C8.44771 6 8 5.55228 8 5C8 4.44772 8.44771 4 9 4C9.55229 4 10 4.44772 10 5ZM8 8H7.5C7.22386 8 7 7.77614 7 7.5C7 7.22386 7.22386 7 7.5 7H8.5H9.5C9.77614 7 10 7.22386 10 7.5V12H10.5C10.7761 12 11 12.2239 11 12.5C11 12.7761 10.7761 13 10.5 13H9.5H8.5H7.5C7.22386 13 7 12.7761 7 12.5C7 12.2239 7.22386 12 7.5 12H8V8Z" fill="#2A7DEC"/>
</svg>
