<svg width="24" height="24" viewBox="0 0 24 24" fill="none" xmlns="http://www.w3.org/2000/svg">
<path d="M21.81 10.25C21.75 10.21 21.25 9.82002 20.17 9.82002C19.89 9.82002 19.61 9.85002 19.33 9.90002C19.12 8.50002 17.95 7.79002 17.9 7.76002L17.61 7.59002L17.43 7.86002C17.19 8.22002 17 8.63002 16.92 9.05002C16.72 9.85002 16.84 10.61 17.25 11.26C16.76 11.54 15.96 11.61 15.79 11.61H2.62C2.28 11.61 2 11.89 2 12.24C2 13.39 2.18 14.54 2.58 15.62C3.03 16.81 3.71 17.69 4.58 18.23C5.56 18.83 7.17 19.17 9 19.17C9.79 19.17 10.61 19.1 11.42 18.95C12.54 18.75 13.62 18.36 14.61 17.79C15.43 17.32 16.16 16.72 16.78 16C17.83 14.83 18.45 13.5 18.9 12.35H19.09C20.23 12.35 20.94 11.89 21.33 11.5C21.59 11.26 21.78 10.97 21.92 10.63L22 10.39L21.81 10.25ZM3.85 11.24H5.61C5.69 11.24 5.77 11.17 5.77 11.08V9.50002C5.77 9.42002 5.7 9.34002 5.61 9.34002H3.85C3.76 9.34002 3.69 9.41002 3.69 9.50002V11.08C3.7 11.17 3.76 11.24 3.85 11.24ZM6.28 11.24H8.04C8.12 11.24 8.2 11.17 8.2 11.08V9.50002C8.2 9.42002 8.13 9.34002 8.04 9.34002H6.28C6.19 9.34002 6.12 9.41002 6.12 9.50002V11.08C6.13 11.17 6.19 11.24 6.28 11.24ZM8.75 11.24H10.5C10.6 11.24 10.67 11.17 10.67 11.08V9.50002C10.67 9.42002 10.61 9.34002 10.5 9.34002H8.75C8.67 9.34002 8.6 9.41002 8.6 9.50002V11.08C8.6 11.17 8.66 11.24 8.75 11.24ZM11.19 11.24H12.96C13.04 11.24 13.11 11.17 13.11 11.08V9.50002C13.11 9.42002 13.05 9.34002 12.96 9.34002H11.19C11.11 9.34002 11.04 9.41002 11.04 9.50002V11.08C11.04 11.17 11.11 11.24 11.19 11.24ZM6.28 9.00002H8.04C8.12 9.00002 8.2 8.91002 8.2 8.82002V7.25002C8.2 7.16002 8.13 7.09002 8.04 7.09002H6.28C6.19 7.09002 6.12 7.15002 6.12 7.25002V8.82002C6.13 8.91002 6.19 9.00002 6.28 9.00002ZM8.75 9.00002H10.5C10.6 9.00002 10.67 8.91002 10.67 8.82002V7.25002C10.67 7.16002 10.61 7.09002 10.5 7.09002H8.75C8.67 7.09002 8.6 7.15002 8.6 7.25002V8.82002C8.6 8.91002 8.66 9.00002 8.75 9.00002ZM11.19 9.00002H12.96C13.04 9.00002 13.11 8.91002 13.11 8.82002V7.25002C13.11 7.16002 13.04 7.09002 12.96 7.09002H11.19C11.11 7.09002 11.04 7.15002 11.04 7.25002V8.82002C11.04 8.91002 11.11 9.00002 11.19 9.00002ZM11.19 6.72002H12.96C13.04 6.72002 13.11 6.65002 13.11 6.56002V5.00002C13.11 4.90002 13.04 4.83002 12.96 4.83002H11.19C11.11 4.83002 11.04 4.89002 11.04 5.00002V6.56002C11.04 6.64002 11.11 6.72002 11.19 6.72002ZM13.65 11.24H15.41C15.5 11.24 15.57 11.17 15.57 11.08V9.50002C15.57 9.42002 15.5 9.34002 15.41 9.34002H13.65C13.57 9.34002 13.5 9.41002 13.5 9.50002V11.08C13.5 11.17 13.57 11.24 13.65 11.24Z" fill="#1D63ED"/>
</svg>
