<svg width="24" height="25" viewBox="0 0 24 25" fill="none" xmlns="http://www.w3.org/2000/svg">
<path fill-rule="evenodd" clip-rule="evenodd" d="M0.539149 11.8055C2.35051 7.51547 6.8071 4.5 11.9998 4.5C17.1924 4.5 21.649 7.51547 23.4604 11.8055L23.5425 12L23.4604 12.1945C21.649 16.4845 17.1924 19.5 11.9998 19.5C6.8071 19.5 2.35051 16.4845 0.539149 12.1945L0.457031 12L0.539149 11.8055ZM1.54494 12C3.24548 15.8025 7.27265 18.5 11.9998 18.5C16.7269 18.5 20.7541 15.8025 22.4546 12C20.7541 8.19755 16.7269 5.5 11.9998 5.5C7.27265 5.5 3.24548 8.19755 1.54494 12Z" fill="white"/>
<circle cx="12" cy="12" r="4" fill="white"/>
</svg>
