<svg width="24" height="24" viewBox="0 0 24 24" fill="none" xmlns="http://www.w3.org/2000/svg">
<path fill-rule="evenodd" clip-rule="evenodd" d="M0.539149 11.3055C2.35051 7.01547 6.8071 4 11.9998 4C17.1924 4 21.649 7.01547 23.4604 11.3055L23.5425 11.5L23.4604 11.6945C21.649 15.9845 17.1924 19 11.9998 19C6.8071 19 2.35051 15.9845 0.539149 11.6945L0.457031 11.5L0.539149 11.3055ZM1.54494 11.5C3.24548 15.3025 7.27265 18 11.9998 18C16.7269 18 20.7541 15.3025 22.4546 11.5C20.7541 7.69755 16.7269 5 11.9998 5C7.27265 5 3.24548 7.69755 1.54494 11.5Z" fill="white"/>
<circle cx="12" cy="11.5" r="4" fill="white"/>
</svg>
