<svg width="23" height="25" viewBox="0 0 23 25" fill="none" xmlns="http://www.w3.org/2000/svg">
    <g clip-path="url(#clip0_12716_44646)">
        <path d="M21.8981 15.8023C21.8423 15.6306 21.6823 15.514 21.5015 15.514H18.109L17.0606 12.2873C16.949 11.944 16.3798 11.944 16.2681 12.2873L15.2198 15.514H11.8273C11.6465 15.514 11.4865 15.6306 11.4306 15.8023C11.3748 15.974 11.4356 16.1623 11.5823 16.2681L14.3306 18.2656L13.349 21.4606C13.2965 21.6323 13.3598 21.819 13.5056 21.9231C13.6515 22.0273 13.849 22.0256 13.9931 21.9198L16.664 19.9623L19.3348 21.9198C19.4081 21.9731 19.4948 21.9998 19.5815 21.9998C19.6665 21.9998 19.7506 21.974 19.8231 21.9231C19.9698 21.819 20.0323 21.6323 19.9798 21.4606L18.9981 18.2656L21.7465 16.2681C21.8931 16.1623 21.954 15.9731 21.8981 15.8023Z" fill="#2A7DEC"/>
        <path d="M18.332 2H4.9987C3.39036 2 2.08203 3.30833 2.08203 4.91667V13.25C2.08203 14.8583 3.39036 16.1667 4.9987 16.1667H6.82453L4.62536 20.5633C4.5387 20.7367 4.58286 20.9458 4.7312 21.0692C4.8087 21.1342 4.9037 21.1667 4.9987 21.1667C5.0862 21.1667 5.17453 21.1392 5.2487 21.0833L10.6295 17.0483C10.7945 16.925 10.8445 16.6992 10.7462 16.5175C10.5762 16.2025 10.5379 15.8575 10.6395 15.545C10.8079 15.0283 11.2854 14.6808 11.8287 14.6808H14.3129C14.4937 14.6808 14.6537 14.5642 14.7095 14.3925L15.477 12.03C15.6445 11.5133 16.122 11.1667 16.6654 11.1667C17.2087 11.1667 17.6862 11.5142 17.8545 12.03L18.622 14.3925C18.6779 14.5642 18.8379 14.6808 19.0187 14.6808H20.8329C21.0629 14.6808 21.2495 14.4942 21.2495 14.2642V4.91667C21.2487 3.30833 19.9395 2 18.332 2ZM7.4987 10.3333C6.80953 10.3333 6.2487 9.7725 6.2487 9.08333C6.2487 8.39417 6.8087 7.83333 7.4987 7.83333C8.1887 7.83333 8.7487 8.39417 8.7487 9.08333C8.7487 9.7725 8.18786 10.3333 7.4987 10.3333ZM11.6654 10.3333C10.9762 10.3333 10.4154 9.7725 10.4154 9.08333C10.4154 8.39417 10.9754 7.83333 11.6654 7.83333C12.3554 7.83333 12.9154 8.39417 12.9154 9.08333C12.9154 9.7725 12.3545 10.3333 11.6654 10.3333ZM15.832 10.3333C15.1429 10.3333 14.582 9.7725 14.582 9.08333C14.582 8.39417 15.142 7.83333 15.832 7.83333C16.522 7.83333 17.082 8.39417 17.082 9.08333C17.082 9.7725 16.5212 10.3333 15.832 10.3333Z" fill="#D4E5FB"/>
    </g>
    <defs>
        <clipPath id="clip0_12716_44646">
            <rect width="20" height="20" fill="white" transform="translate(2 2)"/>
        </clipPath>
    </defs>
</svg>
