<svg width="24" height="24" viewBox="0 0 24 24" fill="none" xmlns="http://www.w3.org/2000/svg">
<path d="M19.7002 3.5C20.1419 3.50011 20.4999 3.85813 20.5 4.2998V9.7002C20.4999 10.1419 20.1419 10.4999 19.7002 10.5H17.1885L14.4072 12.9395C13.8902 13.3928 13.0801 13.0256 13.0801 12.3379V10.5H4.2998C3.85813 10.4999 3.50011 10.1419 3.5 9.7002V4.2998C3.50011 3.85813 3.85813 3.50011 4.2998 3.5H19.7002Z" stroke="#2B7DEC"/>
<path d="M4.59032 12.5152C4.4898 12.0498 4.05716 11.6987 3.54035 11.6987H2V20.3994H3.54035C4.13135 20.3994 4.6124 19.9403 4.6124 19.3763V19.3634C4.59817 19.322 4.59032 19.2783 4.59032 19.233V12.5152Z" fill="#2B7DEC"/>
<path d="M20.8256 14.4049L14.7497 16.7472C14.3962 17.1895 13.887 17.3911 13.3909 17.3911H10.1421C9.90183 17.3911 9.70733 17.2045 9.70733 16.9744C9.70733 16.7443 9.90183 16.5577 10.1421 16.5577H13.3909C13.8916 16.5577 14.2579 16.143 14.2579 15.7268C14.2579 15.2664 13.869 14.8918 13.3909 14.8918C13.2382 14.8918 10.8585 14.8918 10.9675 14.8918C9.97352 14.8918 9.02382 14.4409 8.42683 13.6857C7.98999 13.1378 7.29873 12.8098 6.5787 12.8098H5.48242V18.9419L11.5614 20.929C11.9334 21.0531 12.3431 21.0124 12.6794 20.8252L21.5424 15.8829C21.9323 15.682 22.1017 15.2483 21.9363 14.8535C21.7635 14.4484 21.2566 14.2368 20.8256 14.4049Z" fill="#D4E5FB"/>
<path d="M6.94336 6.18945C6.97014 6.27177 7.04723 6.32708 7.13379 6.32715H8.57031L7.4082 7.17188C7.35561 7.21017 7.32627 7.27037 7.32617 7.33301L7.33594 7.39551L7.7793 8.76074L6.61719 7.91699C6.56455 7.87881 6.49806 7.8685 6.43848 7.8877L6.38281 7.91699L5.2207 8.76074L5.66406 7.39551C5.68409 7.33387 5.67305 7.26748 5.63672 7.2168L5.5918 7.17188L4.42969 6.32715H5.86621C5.93098 6.3271 5.9904 6.2963 6.02734 6.24609L6.05664 6.18945L6.5 4.82324L6.94336 6.18945Z" fill="#2B7DEC" stroke="#2B7DEC" stroke-width="0.2"/>
<path d="M12.4434 6.18945C12.4701 6.27177 12.5472 6.32708 12.6338 6.32715H14.0703L12.9082 7.17188C12.8556 7.21017 12.8263 7.27037 12.8262 7.33301L12.8359 7.39551L13.2793 8.76074L12.1172 7.91699C12.0646 7.87881 11.9981 7.8685 11.9385 7.8877L11.8828 7.91699L10.7207 8.76074L11.1641 7.39551C11.1841 7.33387 11.173 7.26748 11.1367 7.2168L11.0918 7.17188L9.92969 6.32715H11.3662C11.431 6.3271 11.4904 6.2963 11.5273 6.24609L11.5566 6.18945L12 4.82324L12.4434 6.18945Z" fill="#2B7DEC" stroke="#2B7DEC" stroke-width="0.2"/>
<path d="M17.9434 6.18945C17.9701 6.27177 18.0472 6.32708 18.1338 6.32715H19.5703L18.4082 7.17188C18.3556 7.21017 18.3263 7.27037 18.3262 7.33301L18.3359 7.39551L18.7793 8.76074L17.6172 7.91699C17.5646 7.87881 17.4981 7.8685 17.4385 7.8877L17.3828 7.91699L16.2207 8.76074L16.6641 7.39551C16.6841 7.33387 16.673 7.26748 16.6367 7.2168L16.5918 7.17188L15.4297 6.32715H16.8662C16.931 6.3271 16.9904 6.2963 17.0273 6.24609L17.0566 6.18945L17.5 4.82324L17.9434 6.18945Z" fill="#2B7DEC" stroke="#2B7DEC" stroke-width="0.2"/>
</svg>
