<svg width="54" height="54" viewBox="0 0 54 54" fill="none" xmlns="http://www.w3.org/2000/svg">
<path fill-rule="evenodd" clip-rule="evenodd" d="M26 7.85449V9.99984H28V7.85449C27.6831 7.94879 27.3475 7.99943 27 7.99943C26.6525 7.99943 26.3169 7.94879 26 7.85449ZM29 24V20H31V24H35C36.1046 24 37 24.8954 37 26V28H35V26H31C29.8954 26 29 25.1046 29 24ZM25 20V24C25 25.1046 24.1046 26 23 26H17V28H15V26C15 24.8954 15.8954 24 17 24H23V20H25Z" fill="#FDB1B1"/>
<path fill-rule="evenodd" clip-rule="evenodd" d="M27 7C28.3807 7 29.5 5.88071 29.5 4.5C29.5 3.11929 28.3807 2 27 2C25.6193 2 24.5 3.11929 24.5 4.5C24.5 5.88071 25.6193 7 27 7ZM16 11C14.8954 11 14 11.8954 14 13V17C14 18.1046 14.8954 19 16 19H38C39.1046 19 40 18.1046 40 17V13C40 11.8954 39.1046 11 38 11H16ZM17 15C17.5523 15 18 14.5523 18 14C18 13.4477 17.5523 13 17 13C16.4477 13 16 13.4477 16 14C16 14.5523 16.4477 15 17 15ZM21 14C21 14.5523 20.5523 15 20 15C19.4477 15 19 14.5523 19 14C19 13.4477 19.4477 13 20 13C20.5523 13 21 13.4477 21 14Z" fill="#EB5757"/>
<path fill-rule="evenodd" clip-rule="evenodd" d="M14 33H11V36C11 38.2091 12.7907 40 14.9998 40H16H17.0002C19.2093 40 21 38.2091 21 36V33H18V35H14V33Z" fill="#FDB1B1"/>
<path d="M11 31C11 30.4477 11.4477 30 12 30H20C20.5523 30 21 30.4477 21 31V32H11V31Z" fill="#EB5757"/>
<path fill-rule="evenodd" clip-rule="evenodd" d="M5.65266 38.6582C5.24258 38.6582 4.91016 38.9906 4.91016 39.4007C4.91016 43.0913 7.90201 46.0832 11.5927 46.0832C12.0027 46.0832 12.3352 45.7508 12.3352 45.3407C12.3352 44.9306 12.0027 44.5982 11.5927 44.5982C8.72216 44.5982 6.39516 42.2712 6.39516 39.4007C6.39516 38.9906 6.06273 38.6582 5.65266 38.6582Z" fill="#FDB1B1"/>
<path fill-rule="evenodd" clip-rule="evenodd" d="M8.53645 38.3721C8.12637 38.3721 7.79395 38.7045 7.79395 39.1146C7.79395 41.37 9.6223 43.1983 11.8777 43.1983C12.2878 43.1983 12.6202 42.8659 12.6202 42.4558C12.6202 42.0457 12.2878 41.7133 11.8777 41.7133C10.4424 41.7133 9.27895 40.5498 9.27895 39.1146C9.27895 38.7045 8.94652 38.3721 8.53645 38.3721Z" fill="#FDB1B1"/>
<path d="M27 36C27 35.4477 27.4477 35 28 35H29C29.5523 35 30 35.4477 30 36V36C30 36.5523 29.5523 37 29 37H28C27.4477 37 27 36.5523 27 36V36Z" fill="#FDB1B1"/>
<path d="M27 33C27 32.4477 27.4477 32 28 32H29C29.5523 32 30 32.4477 30 33V33C30 33.5523 29.5523 34 29 34H28C27.4477 34 27 33.5523 27 33V33Z" fill="#FDB1B1"/>
<path d="M43 36C43 35.4477 43.4477 35 44 35H45C45.5523 35 46 35.4477 46 36V36C46 36.5523 45.5523 37 45 37H44C43.4477 37 43 36.5523 43 36V36Z" fill="#FDB1B1"/>
<path d="M43 33C43 32.4477 43.4477 32 44 32H45C45.5523 32 46 32.4477 46 33V33C46 33.5523 45.5523 34 45 34H44C43.4477 34 43 33.5523 43 33V33Z" fill="#FDB1B1"/>
<path d="M43 39C43 38.4477 43.4477 38 44 38H45C45.5523 38 46 38.4477 46 39V39C46 39.5523 45.5523 40 45 40H44C43.4477 40 43 39.5523 43 39V39Z" fill="#FDB1B1"/>
<path d="M43 42C43 41.4477 43.4477 41 44 41H45C45.5523 41 46 41.4477 46 42V42C46 42.5523 45.5523 43 45 43H44C43.4477 43 43 42.5523 43 42V42Z" fill="#FDB1B1"/>
<path d="M27 39C27 38.4477 27.4477 38 28 38H29C29.5523 38 30 38.4477 30 39V39C30 39.5523 29.5523 40 29 40H28C27.4477 40 27 39.5523 27 39V39Z" fill="#FDB1B1"/>
<path d="M27 42C27 41.4477 27.4477 41 28 41H29C29.5523 41 30 41.4477 30 42V42C30 42.5523 29.5523 43 29 43H28C27.4477 43 27 42.5523 27 42V42Z" fill="#FDB1B1"/>
<path d="M34 45C34 44.4477 34.4477 44 35 44V44C35.5523 44 36 44.4477 36 45V46C36 46.5523 35.5523 47 35 47V47C34.4477 47 34 46.5523 34 46V45Z" fill="#FDB1B1"/>
<path d="M31 45C31 44.4477 31.4477 44 32 44V44C32.5523 44 33 44.4477 33 45V46C33 46.5523 32.5523 47 32 47V47C31.4477 47 31 46.5523 31 46V45Z" fill="#FDB1B1"/>
<path d="M31 29C31 28.4477 31.4477 28 32 28V28C32.5523 28 33 28.4477 33 29V30C33 30.5523 32.5523 31 32 31V31C31.4477 31 31 30.5523 31 30V29Z" fill="#FDB1B1"/>
<path d="M37 45C37 44.4477 37.4477 44 38 44V44C38.5523 44 39 44.4477 39 45V46C39 46.5523 38.5523 47 38 47V47C37.4477 47 37 46.5523 37 46V45Z" fill="#FDB1B1"/>
<path d="M40 45C40 44.4477 40.4477 44 41 44V44C41.5523 44 42 44.4477 42 45V46C42 46.5523 41.5523 47 41 47V47C40.4477 47 40 46.5523 40 46V45Z" fill="#FDB1B1"/>
<path d="M40 29C40 28.4477 40.4477 28 41 28V28C41.5523 28 42 28.4477 42 29V30C42 30.5523 41.5523 31 41 31V31C40.4477 31 40 30.5523 40 30V29Z" fill="#FDB1B1"/>
<path fill-rule="evenodd" clip-rule="evenodd" d="M31 30C29.8954 30 29 30.8954 29 32V43C29 44.1046 29.8954 45 31 45H42C43.1046 45 44 44.1046 44 43V32C44 30.8954 43.1046 30 42 30H31ZM32 32C31.4477 32 31 32.4477 31 33V42C31 42.5523 31.4477 43 32 43H41C41.5523 43 42 42.5523 42 42V33C42 32.4477 41.5523 32 41 32H32Z" fill="#EB5757"/>
<path d="M33 34H36V37H33V34Z" fill="#FDB1B1"/>
<path d="M37 34H40V37H37V34Z" fill="#FDB1B1"/>
<path d="M37 38H40V41H37V38Z" fill="#FDB1B1"/>
<path d="M33 38H36V41H33V38Z" fill="#FDB1B1"/>
</svg>
