<svg width="28" height="28" viewBox="0 0 28 28" fill="none" xmlns="http://www.w3.org/2000/svg">
<path fill-rule="evenodd" clip-rule="evenodd" d="M14 24.0001C13.6487 24.0001 13.3232 23.8158 13.1425 23.5145C12.5788 22.575 11.5634 22.0001 10.4676 22.0001H2.60048C1.71656 22.0001 1 21.2835 1 20.3996V5.85938C0.379928 5.97387 0 6.05268 0 6.05268V25.0001C0 25.0001 5.07435 23.9474 8.4 23.9474C11.7257 23.9474 14 25.0001 14 25.0001C14 25.0001 16.2743 23.9474 19.6 23.9474C22.9257 23.9474 28 25.0001 28 25.0001V6.05268C28 6.05268 27.6201 5.97387 27 5.85938V20.3996C27 21.2835 26.2834 22.0001 25.3995 22.0001H17.5324C16.4366 22.0001 15.4212 22.575 14.8575 23.5145C14.6768 23.8158 14.3513 24.0001 14 24.0001Z" fill="#2A7DEC"/>
<path d="M2 4C2 3.44772 2.44772 3 3 3H11C12.6569 3 14 4.34315 14 6V23V23C13.2555 21.7592 11.9146 21 10.4676 21H2.60048C2.26884 21 2 20.7312 2 20.3995V4Z" fill="#D4E5FB"/>
<path d="M26 4C26 3.44772 25.5523 3 25 3H17C15.3431 3 14 4.34315 14 6V23V23C14.7445 21.7592 16.0854 21 17.5324 21H25.3995C25.7312 21 26 20.7312 26 20.3995V4Z" fill="#D4E5FB"/>
<path d="M16 12.1085V3C16 2.44772 16.4477 2 17 2H21C21.5523 2 22 2.44771 22 3V12.1085C22 12.4989 21.5725 12.7387 21.2393 12.5351L19.5215 11.4853C19.2013 11.2897 18.7987 11.2897 18.4786 11.4853L16.7607 12.5351C16.4275 12.7387 16 12.4989 16 12.1085Z" fill="#2A7DEC"/>
</svg>
