<svg width="24" height="24" fill="none" xmlns="http://www.w3.org/2000/svg"><g clip-path="url(#a)"><path d="M7.686 11.873c1.597.2 3.061-.888 4.259.244.833-.515 1.7-.778 2.263-.577.931.333 1.863.621 2.33.532l3.526 5.724-.532.4c1.331 1.111 0 2.661-1.198 1.93l-.4-.275c.467.674-.066 2.27-1.53 1.605l-.52-.356c.686.525.098 2.042-1.144 1.421l-.777-.472-.905-.567c1.664 1.057.534 2.19-.544 1.566l-1.301-.66-7.121-4.792 3.594-5.723Z" fill="#D4E5FB"/><path d="M11.945 12.117c-1.198-1.132-2.662-.045-4.26-.244l-3.593 5.723 7.12 4.792 1.302.66c1.086.629 2.226-.527.504-1.592l.945.593.777.472c1.278.64 1.864-.986 1.08-1.464m3.712-2.862c-4.206-3.514-5.657-4.037-5.857-3.86-2.29 1.97-3.527 2.108-3.86 1.93-.266-.088-.639-.599 0-1.93.799-1.664 3.237-3.208 4.393-2.795.931.333 1.863.621 2.33.532l3.526 5.724-.532.4Zm0 0c1.331 1.112 0 2.662-1.198 1.93l-.4-.274m-2.994-2.055 2.995 2.055m0 0c.466.674-.067 2.27-1.531 1.605l-.584-.399m-1.945-1.331 1.945 1.331" stroke="#fff" stroke-width=".5" stroke-linecap="round"/><path d="M14.228 11.475c.931.332 1.863.62 2.329.532l3.527 5.723-.532.4c-4.206-3.514-5.657-4.038-5.857-3.86-2.29 1.97-3.527 2.107-3.86 1.93-.266-.089-.639-.6 0-1.93.799-1.664 3.237-3.208 4.393-2.795Z" fill="#2A7DEC" stroke="#fff" stroke-width=".5"/><rect x="5.97" y="16.337" width="2.051" height="3.477" rx="1.025" transform="rotate(35.828 5.97 16.337)" fill="#2A7DEC" stroke="#fff" stroke-width=".5"/><rect x="8.228" y="16.7" width="1.944" height="4.766" rx=".972" transform="rotate(35.828 8.228 16.7)" fill="#2A7DEC" stroke="#fff" stroke-width=".5"/><rect x="9.961" y="17.745" width="1.874" height="4.766" rx=".937" transform="rotate(35.828 9.96 17.745)" fill="#2A7DEC" stroke="#fff" stroke-width=".5"/><rect x="10.924" y="19.742" width="1.803" height="3.228" rx=".902" transform="rotate(35.828 10.924 19.742)" fill="#2A7DEC" stroke="#fff" stroke-width=".5"/><rect x="16.265" y="10.968" width="3.612" height="8.751" rx=".861" transform="rotate(-31.53 16.265 10.968)" fill="#2A7DEC" stroke="#2A7DEC" stroke-width=".115"/><rect x="4.799" y="9.079" width="3.612" height="8.751" rx=".861" transform="rotate(32.637 4.799 9.08)" fill="#2A7DEC" stroke="#2A7DEC" stroke-width=".115"/><path d="M15.103 8.285c.094-.126.182-.262.266-.412.08-.146.152-.296.205-.446l1.35-.191a.249.249 0 0 0 .21-.246l-.058-2.011a.26.26 0 0 0-.064-.166.27.27 0 0 0-.157-.088l-1.361-.185a3.807 3.807 0 0 0-.52-.85l.474-1.25a.25.25 0 0 0-.002-.176.264.264 0 0 0-.119-.135L13.53 1.13a.251.251 0 0 0-.323.065l-.812 1.062a3.893 3.893 0 0 0-.996.007l-.875-1.059a.259.259 0 0 0-.332-.053L8.458 2.166c-.11.064-.156.193-.098.309l.55 1.247c-.1.124-.202.264-.28.405a2.973 2.973 0 0 0-.205.446l-1.35.191a.25.25 0 0 0-.21.246l.058 2.011c0 .132.1.229.22.254l1.362.185c.137.303.304.586.52.85L8.55 9.56a.261.261 0 0 0 .121.31l1.797 1a.248.248 0 0 0 .324-.065l.811-1.062c.337.044.67.039.996-.007l.876 1.059c.082.094.22.122.332.053l1.738-1.012a.237.237 0 0 0 .098-.308l-.54-1.243Zm-4.015-.646c-.926-.515-1.275-1.674-.773-2.576.5-.9 1.669-1.217 2.595-.702.927.515 1.275 1.674.774 2.576-.501.9-1.67 1.217-2.596.702Z" fill="#2A7DEC"/></g><defs><clipPath id="a"><path fill="#fff" d="M0 0h24v24H0z"/></clipPath></defs></svg>