<svg width="24" height="24" viewBox="0 0 24 24" fill="none" xmlns="http://www.w3.org/2000/svg">
<path fill-rule="evenodd" clip-rule="evenodd" d="M9 2C8.44772 2 8 2.44772 8 3V4H6C4.89543 4 4 4.89543 4 6V7H3C2.44772 7 2 7.44772 2 8C2 8.55229 2.44772 9 3 9H4V11H3C2.44772 11 2 11.4477 2 12C2 12.5523 2.44772 13 3 13H4V15H3C2.44772 15 2 15.4477 2 16C2 16.5523 2.44772 17 3 17H4V18C4 19.1046 4.89543 20 6 20H8V21C8 21.5523 8.44772 22 9 22C9.55228 22 10 21.5523 10 21V20H14V21C14 21.5523 14.4477 22 15 22C15.5523 22 16 21.5523 16 21V20H18C19.1046 20 20 19.1046 20 18V17H21C21.5523 17 22 16.5523 22 16C22 15.4477 21.5523 15 21 15H20V13H21C21.5523 13 22 12.5523 22 12C22 11.4477 21.5523 11 21 11H20V9H21C21.5523 9 22 8.55228 22 8C22 7.44771 21.5523 7 21 7H20V6C20 4.89543 19.1046 4 18 4H16V3C16 2.44772 15.5523 2 15 2C14.4477 2 14 2.44772 14 3V4H10V3C10 2.44772 9.55228 2 9 2ZM8 9C8 8.44772 8.44772 8 9 8H10C10.5523 8 11 8.44772 11 9V10C11 10.5523 10.5523 11 10 11H9C8.44772 11 8 10.5523 8 10V9ZM14 8C13.4477 8 13 8.44772 13 9V10C13 10.5523 13.4477 11 14 11H15C15.5523 11 16 10.5523 16 10V9C16 8.44772 15.5523 8 15 8H14ZM13 14C13 13.4477 13.4477 13 14 13H15C15.5523 13 16 13.4477 16 14V15C16 15.5523 15.5523 16 15 16H14C13.4477 16 13 15.5523 13 15V14ZM9 13C8.44772 13 8 13.4477 8 14V15C8 15.5523 8.44772 16 9 16H10C10.5523 16 11 15.5523 11 15V14C11 13.4477 10.5523 13 10 13H9Z" fill="#2A7DEC"/>
</svg>
