<svg id="Solutions" xmlns="http://www.w3.org/2000/svg" xml:space="preserve" viewBox="0 0 92.429688 92.429682" height="92.43" width="92.43" version="1.1" y="0px" x="0px"><g fill="#fff" transform="matrix(.18471 0 0 .18471 -1.07 -1.07)"><g fill="#fff"><path d="m256 5.793c-66.88 0-129.63 25.995-176.92 73.285-47.292 47.292-73.287 110.04-73.287 176.92 0 62.196 22.708 121.23 64.135 167.26a5.7933 5.7933 0 0 1 -2.1914 9.2676l-8.3047 3.2539a5.7933 5.7933 0 0 1 -0.14453 0.0547c-1.0155 0.36684-7.547 2.9467-13.561 8.9434-6.0135 5.9967-11.686 15.144-11.686 30.162v28.967c0 1.3375 0.96031 2.2988 2.291 2.2988h119c0.0157 0 0.11642-0.004 0.32031-0.0332a5.7933 5.7933 0 0 1 1.6504 0c0.21101 0.0303 0.30461 0.0332 0.32031 0.0332h32.895c1.3375 0 2.291-0.95355 2.291-2.291 0-1.3366-0.95526-2.291-2.291-2.291h-24.811a5.7933 5.7933 0 0 1 -5.793 -5.793v-28.154c0-16.369 6.6684-27.658 13.502-34.422s13.619-9.2609 14.641-9.6211a5.7933 5.7933 0 0 1 0.0801 -0.0274c0.0187-0.006 0.0485-0.0169 0.0898-0.0332a5.7933 5.7933 0 0 1 0.0156 -0.008l39.367-15.418a5.7933 5.7933 0 0 1 6.3672 1.4629c0.19676 0.21296 0.21882 0.22685 0.0527 0.0644l20.912 20.371c0.43108 0.41842 1.004 0.6499 1.5976 0.65039h0.002a5.7933 5.7933 0 0 1 0.0391 -0.002c0.61078-0.009 1.189-0.26032 1.6074-0.69531a5.7933 5.7933 0 0 1 0.002 -0.004l20.088-20.844a5.7933 5.7933 0 0 1 6.3281 -1.3574l39.316 15.766a5.7933 5.7933 0 0 1 0.0215 0.01c0.0695 0.0282-0.0463-0.0158 0.0137 0.004a5.7933 5.7933 0 0 1 0.11133 0.0391c1.0635 0.37378 7.8484 2.8715 14.689 9.6387 6.8411 6.7672 13.512 18.058 13.512 34.426v28.154a5.7933 5.7933 0 0 1 -5.793 5.793h-130.69c-1.3366 0-2.291 0.95525-2.291 2.291 0 1.3366 0.95525 2.291 2.291 2.291h260.07c1.2876 0 2.291-1.0119 2.291-2.3476v-28.918c0.00091-14.96-5.6294-24.094-11.617-30.094-5.9878-6.0002-12.51-8.6063-13.604-9.0039a5.7933 5.7933 0 0 1 -0.17774 -0.0664l-8.4121-3.373a5.7933 5.7933 0 0 1 -2.1523 -9.25c41.33-45.99 64.01-105.03 64.01-167.14 0-50.803-15.355-99.668-43.334-140.75a5.7933 5.7933 0 0 1 -0.37696 -0.63671c-0.11196-0.22039-0.23246-0.38382-0.35156-0.51172a5.7933 5.7933 0 0 1 -0.53 -0.65c-12.25-17.666-26.85-33.868-43.59-48.112-1.0171-0.86517-2.3632-0.7556-3.2285 0.26172-0.86438 1.0162-0.75366 2.3648 0.26172 3.2285 14.075 11.972 26.6 25.356 37.467 39.838a5.7933 5.7933 0 0 1 -2.5234 8.8711c-17.543 6.8564-38.388 12.593-61.582 17.119a5.7933 5.7933 0 0 1 -6.6016 -3.8418c-6.23-18.54-13.86-35.775-22.79-51.267a5.7933 5.7933 0 0 1 -0.002 0c-12.04-20.886-25.81-37.547-40.61-49.682a5.7933 5.7933 0 0 1 5.2637 -10.051c24.636 7.0433 48.108 17.959 69.637 32.502 1.108 0.74777 2.4335 0.49201 3.1816-0.61524 0.74666-1.1052 0.49222-2.4314-0.61523-3.1797-41.39-27.963-89.73-42.734-139.89-42.734zm-8.1211 5.0313a5.7933 5.7933 0 0 1 5.8301 5.793v124.02a5.7933 5.7933 0 0 1 -5.8516 5.793c-38.169-0.38679-75.047-3.4914-108.02-8.8926a5.7933 5.7933 0 0 1 -4.541 -7.6035c5.9517-17.278 13.182-33.424 21.639-48.096 24.112-41.828 55.763-67.288 90.369-70.984a5.7933 5.7933 0 0 1 0.57813 -0.0332zm16.203 0h0.002a5.7933 5.7933 0 0 1 0.61524 0.0332c34.606 3.6961 66.258 29.157 90.369 70.984h-0.002c8.4614 14.677 15.696 30.833 21.648 48.121a5.7933 5.7933 0 0 1 -4.541 7.6035c-32.926 5.3914-69.776 8.4834-108.03 8.8672a5.7933 5.7933 0 0 1 -5.8516 -5.793v-124.02a5.7933 5.7933 0 0 1 5.793 -5.793zm-74.154 8.8477a5.7933 5.7933 0 0 1 3.5606 10.268c-14.774 12.131-28.511 28.767-40.527 49.613-8.9281 15.488-16.556 32.715-22.775 51.242a5.7933 5.7933 0 0 1 -6.6016 3.8418c-23.17-4.52-43.981-10.24-61.49-17.07a5.7933 5.7933 0 0 1 -2.5254 -8.877c31.705-42.174 76.655-73.846 128.64-88.794a5.7933 5.7933 0 0 1 1.7168 -0.22461zm267.52 100.29a5.7933 5.7933 0 0 1 4.7949 2.6445c23.983 37.051 37.716 80.19 39.223 125.12a5.7933 5.7933 0 0 1 -5.7891 5.9863h-88.768a5.7933 5.7933 0 0 1 -5.791 -5.6894c-0.64748-35.917-5.6696-70.532-14.588-101.97a5.7933 5.7933 0 0 1 4.4434 -7.2617c24.575-4.8814 46.413-11.116 64.213-18.398a5.7933 5.7933 0 0 1 2.2617 -0.43164zm-402.73 0.0371a5.7933 5.7933 0 0 1 2.1621 0.43164c17.75 7.2535 39.596 13.465 64.15 18.342a5.7933 5.7933 0 0 1 4.4434 7.2637c-8.9241 31.442-13.948 66.067-14.598 101.99a5.7933 5.7933 0 0 1 -5.791 5.6875h-88.76a5.7933 5.7933 0 0 1 -5.7891 -5.9863c1.5307-45.979 15.765-88.832 39.299-125.09a5.7933 5.7933 0 0 1 4.8887 -2.6387zm81.199 21.58a5.7933 5.7933 0 0 1 0.90039 0.0801c33.816 5.6839 71.863 8.9701 111.16 9.3652a5.7933 5.7933 0 0 1 5.7344 5.793v69.602a5.7933 5.7933 0 0 1 -5.252 5.7676c-15.465 1.4482-29.236 8.7458-39.102 19.674a5.7933 5.7933 0 0 1 -4.9258 1.875c-0.14086-0.0153-0.23074-0.0176-0.26953-0.0176h-82.902a5.7933 5.7933 0 0 1 -5.793 -5.793v-0.002a5.7933 5.7933 0 0 1 0.002 -0.10743c0.67188-35.969 5.744-70.599 14.826-102.05a5.7933 5.7933 0 0 1 5.625 -4.1855zm240.42 0.0215a5.7933 5.7933 0 0 1 5.3711 4.1816c9.0801 31.449 14.15 66.072 14.822 102.04a5.7933 5.7933 0 0 1 -5.791 5.9004h-82.74a5.7933 5.7933 0 0 1 -0.22461 -0.0117c-0.003-0.005 0.35814 0.0117 0.19922 0.0117a5.7933 5.7933 0 0 1 -0.61523 -0.0352 5.7933 5.7933 0 0 1 -3.6797 -1.8711c-10.069-11.131-24.195-18.476-40.043-19.699a5.7933 5.7933 0 0 1 -5.3476 -5.7754v-69.52a5.7933 5.7933 0 0 1 5.7344 -5.793c39.387-0.39217 77.393-3.6719 111.16-9.3477a5.7933 5.7933 0 0 1 1.1543 -0.0762zm-122.22 94.893h4.8359c30.679 0 55.732 25.057 55.732 55.736v9.8789a5.7933 5.7933 0 0 1 -9.4023 4.5312c0.165 0.13139 0.12127 0.10075-0.125-0.0918a5.7933 5.7933 0 0 1 -0.0117 -0.0117c-0.0328-0.0258-0.0563-0.0417-0.0723-0.0527a5.7933 5.7933 0 0 1 -0.0117 -0.008c0.0543 0.0377 0.027 0.0175-0.084-0.0527a5.7933 5.7933 0 0 1 -0.0117 -0.008c-0.105-0.0668-0.12607-0.0759-0.0703-0.0449a5.7933 5.7933 0 0 1 -0.0371 -0.0215c0.0751 0.0424 0.0133 0.009-0.0742-0.0352l-0.0176-0.008c-0.0999-0.0493-0.13034-0.0655-0.10156-0.0527 0.11564 0.0513 0.0402 0.0197-0.12304-0.043l-0.0156-0.006c-0.0625-0.0232-0.10679-0.0382-0.0801-0.0293 0.0564 0.0186 0.0353 0.0104-0.11133-0.0274a5.7933 5.7933 0 0 1 -0.13672 -0.0371c-0.29842-0.0847-0.2864-0.0734 0.0234 0l0.0508 0.0117c-9.8838-2.2475-16.026-9.6136-19.611-15.85-1.7925-3.118-3.0051-6.0466-3.7949-8.248-0.78983-2.2014-1.0228-3.1139-1.2109-3.9121a5.7933 5.7933 0 0 1 -0.0117 -0.0488c-0.20144-0.89023-0.87679-1.5527-1.7754-1.7363a5.7933 5.7933 0 0 1 -0.006 -0.002c-0.89053-0.18314-1.7725 0.15851-2.3106 0.90234-10.647 14.72-27.166 21.721-40.783 25.248-13.617 3.5268-23.999 3.5898-25.211 3.5898h-0.0313c-0.0613 0-0.124 0.003-0.18555 0.008 0.0478-0.005 0.14367-0.0162-0.082 0.0156a5.7933 5.7933 0 0 1 -0.0273 0.004c-0.20447 0.0279-0.22861 0.033-0.17188 0.0215 0.1128-0.0233 0.0546-0.008-0.0976 0.0293-0.007 0.002 0.003-0.002-0.004 0-0.20636 0.0518-0.22601 0.0606-0.11719 0.0273 0.10602-0.0334 0.12765-0.0419-0.10351 0.043-0.22854 0.0841-0.19651 0.0733-0.10938 0.0371 0.0442-0.0186 0.0583-0.0263-0.12304 0.0625a5.7933 5.7933 0 0 1 -0.002 0c-0.30103 0.14725-0.31065 0.15906-0.0508 0.0176a5.7933 5.7933 0 0 1 -0.0391 0.0215c0.13871-0.0741 0.0453-0.0214-0.0996 0.0664-0.0308 0.0187 0.0223-0.0133-0.0215 0.0137-0.0128 0.008-0.0789 0.0476-0.0488 0.0273 0.0447-0.0303 0.0536-0.0376-0.0957 0.0762a5.7933 5.7933 0 0 1 -0.0254 0.0195c-0.23918 0.1801-0.1997 0.15343-0.043 0.0254 0.23224-0.19144 0.19404-0.16367-0.084 0.0801a5.7933 5.7933 0 0 1 -9.6113 -4.3555v-10.06c0-30.68 25.054-55.734 55.732-55.734zm-132.87 21.803h73.061a5.7933 5.7933 0 0 1 5.2383 8.2676c-3.6829 7.7956-5.75 16.476-5.75 25.664v18.863a5.7933 5.7933 0 0 1 -2.3145 4.6309c-5.0585 3.8003-8.3281 9.8021-8.3281 16.621 0 11.397 9.1035 20.587 20.455 20.762a5.7933 5.7933 0 0 1 5.4648 4.1484c3.356 11.335 11.107 20.832 21.262 26.48a5.7933 5.7933 0 0 1 2.9766 5.0625v8.2461a5.7933 5.7933 0 0 1 -3.6797 5.3945l-42.906 16.805a5.7933 5.7933 0 0 1 -0.22852 0.084c-4.4279 1.5235-11.371 5.4317-17.393 11.852a5.7933 5.7933 0 0 1 -6.3809 1.4141l-24.467-9.8105a5.7933 5.7933 0 0 1 -3.6367 -5.377v-4.5976a5.7933 5.7933 0 0 1 2.8633 -4.9961c7.5977-4.4557 13.445-11.608 16.215-20.107a5.7933 5.7933 0 0 1 5.0508 -3.9805c8.7975-0.69485 15.717-7.9923 15.717-16.996 0-5.3537-2.4484-10.076-6.2969-13.223a5.7933 5.7933 0 0 1 -2.127 -4.4844v-14.369c0-25.536-19.675-46.445-44.646-48.506a5.7933 5.7933 0 0 1 -5.3066 -5.4434c-0.31194-5.4619-0.52833-10.975-0.63282-16.502a5.7933 5.7933 0 0 1 5.791 -5.9024zm-104.96 0.002a5.7933 5.7933 0 0 1 0.02148 0h88.766a5.7933 5.7933 0 0 1 5.791 5.6875c0.0996 5.4888 0.3119 10.978 0.61523 16.428a5.7933 5.7933 0 0 1 -4.959 6.0566c-23.547 3.3864-41.721 23.65-41.721 48.18v14.305a5.7933 5.7933 0 0 1 -2.1484 4.5039c-3.8857 3.1445-6.3613 7.8871-6.3613 13.268 0 9.0693 7.0198 16.406 15.918 17.006a5.7933 5.7933 0 0 1 5.1172 3.9824c2.7695 8.4926 8.6152 15.64 16.209 20.094a5.7933 5.7933 0 0 1 2.8613 4.9961v4.5527a5.7933 5.7933 0 0 1 -3.6816 5.3945l-8.8301 3.457a5.7933 5.7933 0 0 1 -6.3184 -1.4121c-41.42-43.77-65.055-100.48-67.046-160.51a5.7933 5.7933 0 0 1 5.7676 -5.9844zm302.39 0a5.7933 5.7933 0 0 1 0.0684 0h71.982a5.7933 5.7933 0 0 1 5.791 5.9043c-0.10648 5.5469-0.32256 11.082-0.63867 16.572a5.7933 5.7933 0 0 1 -5.2109 5.4316c-24.583 2.439-43.838 23.184-43.838 48.443v14.307a5.7933 5.7933 0 0 1 -2.1484 4.5039c-3.8837 3.1428-6.3594 7.8866-6.3594 13.268 0 9.0712 7.0162 16.406 15.914 17.006a5.7933 5.7933 0 0 1 5.1191 3.9824c2.7692 8.4918 8.6162 15.637 16.211 20.092a5.7933 5.7933 0 0 1 2.8613 4.9961v4.5527a5.7933 5.7933 0 0 1 -3.6797 5.3945l-25.314 9.9141a5.7933 5.7933 0 0 1 -6.3438 -1.4375c-6.0202-6.4358-12.974-10.36-17.414-11.893a5.7933 5.7933 0 0 1 -0.26562 -0.0996l-41.812-16.77a5.7933 5.7933 0 0 1 -3.6367 -5.377v-8.293a5.7933 5.7933 0 0 1 2.9766 -5.0625c10.157-5.6491 17.908-15.15 21.264-26.488a5.7933 5.7933 0 0 1 5.3945 -4.1465c11.224-0.31067 20.193-9.4475 20.193-20.756 0-6.779-3.2336-12.747-8.2441-16.553a5.7933 5.7933 0 0 1 -2.2891 -4.6133v-18.92c0-9.1873-2.0664-17.867-5.75-25.662a5.7933 5.7933 0 0 1 5.1699 -8.2676zm88.229 0h88.764a5.7933 5.7933 0 0 1 5.7891 5.9844c-1.9893 59.911-25.547 116.56-66.83 160.29a5.7933 5.7933 0 0 1 -6.3691 1.4004l-7.9688-3.1953a5.7933 5.7933 0 0 1 -3.6367 -5.377v-4.5996a5.7933 5.7933 0 0 1 2.8633 -4.9961c7.5959-4.4547 13.445-11.608 16.215-20.105a5.7933 5.7933 0 0 1 5.0508 -3.9805c8.7962-0.69481 15.715-7.992 15.715-16.996 0-5.3537-2.4484-10.076-6.2969-13.223a5.7933 5.7933 0 0 1 -2.127 -4.4844v-14.369c0-24.804-18.58-45.242-42.518-48.281a5.7933 5.7933 0 0 1 -5.0527 -6.0684c0.30129-5.4143 0.51075-10.864 0.61133-16.316a5.7933 5.7933 0 0 1 5.791 -5.6855zm-132.44 29.527a5.7933 5.7933 0 0 1 5.3027 3.082c3.549 6.7164 9.3473 14.175 18.174 17.945a5.7933 5.7933 0 0 1 3.5176 5.3281v30.377c-0.001 22.124-18.093 40.219-40.215 40.219h-9.2227c-22.124 0-40.217-18.093-40.217-40.217v-28.543a5.7933 5.7933 0 0 1 5.2617 -5.7676c12.271-1.1299 36.649-5.6282 53.711-20.945a5.7933 5.7933 0 0 1 3.6875 -1.4785zm-160.98 2.7188h3.8652c24.267 0 44.104 19.84 44.104 44.107v5.2031a5.7933 5.7933 0 0 1 -5.793 5.793h-0.002a5.7933 5.7933 0 0 1 -1.8106 -0.29101c0.16686 0.0549 0.0778 0.0287-0.10351-0.0195-0.30723-0.0781-0.43319-0.11058-0.10547-0.0332l0.0469 0.01c-7.891-1.7949-12.686-7.7036-15.453-12.561-1.3834-2.4284-2.3165-4.6924-2.9277-6.3984-0.61124-1.706-0.77207-2.323-0.94922-3.0645a5.7933 5.7933 0 0 1 -0.0156 -0.0664c-0.20144-0.89025-0.87679-1.5527-1.7754-1.7363a5.7933 5.7933 0 0 1 -0.002 -0.002c-0.89652-0.18374-1.7754 0.15975-2.3106 0.90039a5.7933 5.7933 0 0 1 -0.002 0.004c-8.51 11.78-21.67 17.27-32.44 20.05-10.769 2.77-18.667 2.82-19.951 2.82h-0.02539c-0.06129 0-0.124 0.003-0.18555 0.008 0.0478-0.005 0.14363-0.0162-0.08203 0.0156a5.7933 5.7933 0 0 1 -0.05664 0.008c-0.1986 0.026-0.20596 0.0283-0.14258 0.0156 0.11281-0.0233 0.05455-0.008-0.09766 0.0293-0.0063 0.002 0.0022-0.002-0.0039 0-0.19907 0.0499-0.20036 0.0534-0.12109 0.0293 0.25734-0.0804 0.31048-0.10268-0.05664 0.0254a5.7933 5.7933 0 0 1 -7.7012 -5.4688v-5.2676c0-24.268 19.837-44.107 44.105-44.107zm282.03 0.002h3.8672c24.267 0 44.102 19.838 44.102 44.105v5.2031a5.7933 5.7933 0 0 1 -7.5703 5.5137c0.0883 0.0285 0.0608 0.0162-0.0898-0.0215a5.7933 5.7933 0 0 1 -0.17774 -0.0469c-0.23891-0.0678-0.25917-0.0713-0.0625-0.0215l0.13672 0.0332c-7.891-1.7946-12.688-7.7007-15.455-12.557-1.3837-2.428-2.3164-4.6926-2.9277-6.3984-0.30567-0.85293-0.52988-1.5661-0.68359-2.0898-0.15372-0.52374-0.15021-0.48882-0.26758-0.98438a5.7933 5.7933 0 0 1 -0.0137 -0.0566c-0.20155-0.89074-0.87906-1.5552-1.7754-1.7383a5.7933 5.7933 0 0 1 -0.002 -0.002c-0.89653-0.18374-1.7766 0.15886-2.3144 0.90234-8.5114 11.766-21.662 17.265-32.428 20.039-10.765 2.774-18.707 2.8281-19.967 2.8281h-0.0254c-0.0514 0-0.13526 0.003-0.23047 0.0117 0.0214-0.002-0.0223 0.004-0.004 0.002 0.25961-0.0272 0.28457-0.0337-0.0586 0.0137a5.7933 5.7933 0 0 1 -0.0332 0.004c-0.24605 0.0324-0.2893 0.0467-0.12109 0.0117a5.7933 5.7933 0 0 1 -0.0625 0.0117c0.34629-0.0681 0.33888-0.0751-0.0273 0.0195a5.7933 5.7933 0 0 1 -0.0352 0.008c-0.3112 0.0784-0.34858 0.0946-0.10742 0.0195a5.7933 5.7933 0 0 1 -0.0215 0.006c0.3468-0.10641 0.32586-0.10273-0.0684 0.0332a5.7933 5.7933 0 0 1 -7.6816 -5.4766v-5.2676c0-24.268 19.838-44.105 44.105-44.105zm-194.33 25.926a5.7933 5.7933 0 0 1 6.0391 5.7871v20.166a5.7933 5.7933 0 0 1 -7.1836 5.623c-7.0675-1.7478-12.308-8.1572-12.309-15.703v-0.002c-0.00063-7.5469 5.2388-13.958 12.307-15.707a5.7933 5.7933 0 0 1 1.1465 -0.16407zm110.82 0.0801a5.7933 5.7933 0 0 1 1.4062 0.2168c6.8111 1.9262 11.795 8.2113 11.795 15.574 0 7.363-4.9853 13.647-11.797 15.57a5.7933 5.7933 0 0 1 -7.3672 -5.5742v-19.996a5.7933 5.7933 0 0 1 5.9629 -5.791zm-182.51 15.936a5.7933 5.7933 0 0 1 4.9785 2.875c2.8262 4.8467 7.0583 9.825 13.086 12.654a5.7933 5.7933 0 0 1 3.332 5.2441v23.234c-0.001 17.425-14.272 31.697-31.697 31.697h-7.375c-17.426 0-31.697-14.272-31.697-31.697v-21.381a5.7933 5.7933 0 0 1 5.1699 -5.7598c9.9275-1.0739 27.528-4.7159 40.465-15.52a5.7933 5.7933 0 0 1 3.7383 -1.3476zm282.04 0a5.7933 5.7933 0 0 1 4.9785 2.875c2.8244 4.8442 7.0585 9.8227 13.088 12.652a5.7933 5.7933 0 0 1 3.332 5.2441v23.236c-0.001 17.426-14.274 31.697-31.699 31.697h-7.373c-17.427 0-31.699-14.272-31.699-31.697v-21.389a5.7933 5.7933 0 0 1 5.168 -5.7598c9.9341-1.0782 27.541-4.717 40.467-15.512a5.7933 5.7933 0 0 1 3.7383 -1.3476zm-341.63 22.81a5.7933 5.7933 0 0 1 5.6367 5.791v11.252a5.7933 5.7933 0 0 1 -8.9297 4.8691c-3.4386-2.2156-5.7383-6.1184-5.7383-10.494 0-4.3761 2.3023-8.279 5.7344-10.494a5.7933 5.7933 0 0 1 3.2969 -0.92383zm282.04 0a5.7933 5.7933 0 0 1 5.6348 5.791v11.252a5.7933 5.7933 0 0 1 -8.9297 4.8711c-3.4424-2.2168-5.7363-6.1252-5.7363-10.496 0-4.3729 2.2975-8.2798 5.7344-10.496a5.7933 5.7933 0 0 1 3.2969 -0.92188zm-190.5 0.17774a5.7933 5.7933 0 0 1 3.1953 1.0742c3.158 2.2549 5.248 5.9987 5.248 10.166s-2.0916 7.9101-5.248 10.162a5.7933 5.7933 0 0 1 -9.1582 -4.7148v-10.898a5.7933 5.7933 0 0 1 5.9629 -5.7891zm282.04 0.004a5.7933 5.7933 0 0 1 3.1953 1.0742c3.1569 2.2536 5.2461 5.9966 5.2461 10.162 0 4.1655-2.0892 7.9085-5.2461 10.162a5.7933 5.7933 0 0 1 -9.1582 -4.7148v-10.895a5.7933 5.7933 0 0 1 5.9629 -5.7891zm-199.62 33.168a5.7933 5.7933 0 0 1 0.7832 0.0781c2.4171 0.40329 4.8801 0.61914 7.3887 0.61914h9.2227c2.5062 0 4.9708-0.21717 7.3906-0.61914a5.7933 5.7933 0 0 1 6.7422 5.7148v8.7519a5.7933 5.7933 0 0 1 -1.6211 4.0195l-13.246 13.746a5.7933 5.7933 0 0 1 -8.2129 0.13086l-12.658-12.328a5.7933 5.7933 0 0 1 -1.752 -4.1504v-10.172a5.7933 5.7933 0 0 1 5.9629 -5.791zm-119.73 23.803a5.7933 5.7933 0 0 1 5.9102 5.791v4.4824a5.7933 5.7933 0 0 1 -1.6211 4.0195l-9.0059 9.3457a5.7933 5.7933 0 0 1 -8.2129 0.13086l-8.4648-8.2441a5.7933 5.7933 0 0 1 -1.752 -4.1504v-5.582a5.7933 5.7933 0 0 1 6.4844 -5.752c1.4552 0.17476 2.9038 0.27149 4.3574 0.27149h7.375c1.4492 0 2.8982-0.096 4.3516-0.27149a5.7933 5.7933 0 0 1 0.57813 -0.041zm264.85 0a5.7933 5.7933 0 0 1 0.52149 0.0391c1.4596 0.1753 2.9082 0.27344 4.3574 0.27344h7.373a5.7933 5.7933 0 0 1 0.004 0c1.4448 0.00084 2.8944-0.0978 4.3574-0.27344a5.7933 5.7933 0 0 1 6.4824 5.752v4.4824a5.7933 5.7933 0 0 1 -1.623 4.0195l-9.0098 9.3457a5.7933 5.7933 0 0 1 -8.2109 0.13086l-8.4629-8.2422a5.7933 5.7933 0 0 1 -1.752 -4.1504v-5.5859a5.7933 5.7933 0 0 1 5.9629 -5.791zm-252.46 15.018a5.7933 5.7933 0 0 1 2.1777 0.41601l18.916 7.5859a5.7933 5.7933 0 0 1 3.0488 7.9199c-3.2153 6.5804-5.3496 14.545-5.3496 24.283v28.154a5.7933 5.7933 0 0 1 -5.793 5.793h-105.12a5.7933 5.7933 0 0 1 -5.793 -5.79v-20.891c0-12.779 5.2309-21.764 10.598-27.119 5.3668-5.3552 10.555-7.2968 11.562-7.6543a5.7933 5.7933 0 0 1 0.0918 -0.0312c0.02752-0.009 0.05431-0.0194 0.07422-0.0273a5.7933 5.7933 0 0 1 0.0332 -0.0137l30.49-11.939a5.7933 5.7933 0 0 1 6.1523 1.2441l16.201 15.779a5.7933 5.7933 0 0 1 0.002 0.002c0.42874 0.41767 0.99892 0.64844 1.5976 0.64844a5.7933 5.7933 0 0 1 0.041 -0.002c0.61074-0.009 1.1853-0.25851 1.6055-0.69531a5.7933 5.7933 0 0 1 0.002 -0.004l15.305-15.883a5.7933 5.7933 0 0 1 4.1504 -1.7734zm282.04 0a5.7933 5.7933 0 0 1 2.1777 0.41601l30.426 12.201a5.7933 5.7933 0 0 1 0.0332 0.0137c0.0553 0.0226-0.0696-0.0233 0.0449 0.0156a5.7933 5.7933 0 0 1 0.0703 0.0254c0.98407 0.34902 6.2438 2.3133 11.621 7.6719 5.3773 5.3585 10.609 14.346 10.609 27.125v20.891a5.7933 5.7933 0 0 1 -5.793 5.793h-105.11a5.7933 5.7933 0 0 1 -5.793 -5.793v-28.154c0-9.6998-2.1148-17.639-5.3086-24.201a5.7933 5.7933 0 0 1 3.0957 -7.9297l18.875-7.3926a5.7933 5.7933 0 0 1 6.1543 1.2441l16.201 15.779a5.7933 5.7933 0 0 1 0.002 0.002c0.43104 0.41991 0.99951 0.6499 1.5957 0.65039h0.002a5.7933 5.7933 0 0 1 0.0391 -0.002c0.61077-0.009 1.1863-0.25974 1.6074-0.69726a5.7933 5.7933 0 0 1 0.002 -0.002l15.305-15.883a5.7933 5.7933 0 0 1 4.1504 -1.7734z" fill="#fff"/></g></g></svg>
