<svg id="Solutions" xmlns="http://www.w3.org/2000/svg" xml:space="preserve" viewBox="0 0 92.429688 92.429682" height="92.43" width="92.43" version="1.1" y="0px" x="0px"><g fill="#fff" transform="matrix(1.1283 0 0 1.1283 -5.6321 -4.9049)"><g transform="matrix(1.3655 0 0 1.3655 12.311 -3.1191)"><g fill="#fff" transform="translate(-29.188 -.40823)"><g transform="matrix(.064576 0 0 .064576 50.739 4.0964)"><g fill="#fff"><path d="m76.865 38.33c-2.1447 0-4.1573 0.83315-5.6738 2.3496-0.10258 0.10262-0.10254 0.26269 0 0.36523 0.1026 0.10257 0.26269 0.10251 0.36524 0 1.4166-1.4167 3.3052-2.1992 5.3086-2.1992s3.8901 0.78269 5.3066 2.1992c0.05003 0.05 0.11566 0.07422 0.18359 0.07422 0.06783 0 0.13054-0.02315 0.18164-0.07422 0.10258-0.10262 0.10254-0.26269 0-0.36523-1.5166-1.5165-3.5272-2.3496-5.6719-2.3496zm0 3.1094c-1.2597 0-2.5193 0.47834-3.4785 1.4375-0.10313 0.10317-0.10309 0.26019 0 0.36328 0.1026 0.10254 0.26271 0.10249 0.36523 0 1.7144-1.7146 4.5102-1.7146 6.2246 0 0.05224 0.05217 0.11627 0.07617 0.18164 0.07617 0.06546 0 0.13249-0.0251 0.18359-0.07617 0.10314-0.10317 0.10309-0.26019 0-0.36328-0.95933-0.95926-2.2169-1.4375-3.4766-1.4375zm0 3.1035c-0.46427 0-0.92757 0.17567-1.2812 0.5293-0.10254 0.1025-0.10248 0.26279 0 0.36523 0.10251 0.10247 0.26283 0.10244 0.36524 0 0.50327-0.50311 1.3268-0.50311 1.8301 0 0.04987 0.04987 0.11576 0.07422 0.18359 0.07422 0.06791 0 0.13058-0.02316 0.18164-0.07422 0.10252-0.10252 0.10249-0.26281 0-0.36523-0.35391-0.35388-0.81502-0.5293-1.2793-0.5293zm0 3.1055c-0.1453 0-0.25781 0.11251-0.25781 0.25781v6.7617a0.22625 0.22625 0 0 1 -0.22656 0.22656h-1.1035a0.22625 0.22625 0 0 1 -0.22656 -0.22656v-3.6562c0-0.1453-0.11251-0.25781-0.25781-0.25781s-0.25781 0.11251-0.25781 0.25781v2.3867a0.22625 0.22625 0 0 1 -0.06641 0.16016l-3.4805 3.4824c-0.04937 0.04941-0.07617 0.11391-0.07617 0.18164v4.6934a0.22625 0.22625 0 0 1 -0.22656 0.22656h-1.1016a0.22625 0.22625 0 0 1 -0.22656 -0.22656v-3.6582c0-0.08056-0.03841-0.15793-0.10352-0.20703-0.06482-0.04886-0.14586-0.06358-0.22461-0.04102l-7.248 2.0703c-0.11215 0.03208-0.18555 0.13058-0.18555 0.24805v6.7637a0.22625 0.22625 0 0 1 -0.22656 0.22656h-0.55274c-0.1453 0-0.25781 0.11251-0.25781 0.25781s0.11251 0.25781 0.25781 0.25781h32.096c0.1453 0 0.25781-0.11251 0.25781-0.25781s-0.11251-0.25781-0.25781-0.25781h-0.55078a0.22625 0.22625 0 0 1 -0.22656 -0.22656v-5.7266c0-0.1453-0.11251-0.25781-0.25781-0.25781h-3.653a0.22625 0.22625 0 0 1 -0.22656 -0.22656v-2.623c0-0.1453-0.11251-0.25781-0.25781-0.25781s-0.25781 0.11251-0.25781 0.25781v2.623a0.22625 0.22625 0 0 1 -0.226 0.227h-1.102a0.22625 0.22625 0 0 1 -0.226 -0.226v-4.693c0-0.1453-0.11251-0.25781-0.25781-0.25781h-3.6562a0.22625 0.22625 0 0 1 -0.227 -0.227v-0.55078c0-0.06764-0.02674-0.13214-0.07617-0.18164l-4.517-4.517a0.22625 0.22625 0 0 1 -0.06641 -0.16016v-2.387c0-0.1464-0.11056-0.25781-0.25586-0.25781zm0.4668 3.7871a0.22625 0.22625 0 0 1 0.17578 0.06641l3.6914 3.6914a0.22625 0.22625 0 0 1 0.06641 0.16016v11.738a0.22625 0.22625 0 0 1 -0.22656 0.22656h-3.69a0.22625 0.22625 0 0 1 -0.227 -0.225v-15.43a0.22625 0.22625 0 0 1 0.21094 -0.22656zm-3.02 3.108a0.22625 0.22625 0 0 1 0.22266 0.22656v12.322a0.22625 0.22625 0 0 1 -0.22656 0.22656h-1.6191a0.22625 0.22625 0 0 1 -0.22656 -0.22656v-4.6914c0-0.1453-0.11251-0.25781-0.25781-0.25781h-0.55078a0.22625 0.22625 0 0 1 -0.22656 -0.22656v-4.4922a0.22625 0.22625 0 0 1 0.06641 -0.16016l2.6543-2.6543a0.22625 0.22625 0 0 1 0.16406 -0.06641zm0.94922 0.86719a0.22625 0.22625 0 0 1 0.01563 0h1.1035a0.22625 0.22625 0 0 1 0.22656 0.22656v9.3848a0.22625 0.22625 0 0 1 -0.22656 0.22656h-1.1035a0.22625 0.22625 0 0 1 -0.22656 -0.22656v-9.3848a0.22625 0.22625 0 0 1 0.21094 -0.22656zm6.7305 1.0352a0.22625 0.22625 0 0 1 0.01562 0h3.1719a0.22625 0.22625 0 0 1 0.22656 0.22656v4.209a0.22625 0.22625 0 0 1 -0.22656 0.22656h-0.55078c-0.1453 0-0.25781 0.11251-0.25781 0.25781v5.7266a0.22625 0.22625 0 0 1 -0.22656 0.22656h-2.136a0.22625 0.22625 0 0 1 -0.227 -0.228v-10.42a0.22625 0.22625 0 0 1 0.21094 -0.22656zm-13.371 2.2285a0.22625 0.22625 0 0 1 0.2207 0.22656v3.0156a0.22625 0.22625 0 0 1 -0.22656 0.22656h-4.6914c-0.1453 0-0.25781 0.11251-0.25781 0.25781v4.6914a0.22625 0.22625 0 0 1 -0.22656 0.22656h-1.1035a0.22625 0.22625 0 0 1 -0.22656 -0.22656v-6.3965a0.22625 0.22625 0 0 1 0.16406 -0.2168l6.2793-1.7949a0.22625 0.22625 0 0 1 0.06836 -0.0098zm16.477 2.9492a0.22625 0.22625 0 0 1 0.01563 0h6.2793a0.22625 0.22625 0 0 1 0.22656 0.22656v3.1719a0.22625 0.22625 0 0 1 -0.22656 0.22656h-0.55273c-0.1453 0-0.25781 0.11251-0.25781 0.25781s0.11251 0.25781 0.25781 0.25781h0.55273a0.22625 0.22625 0 0 1 0.22656 0.22656v1.1016a0.22625 0.22625 0 0 1 -0.22656 0.22656h-6.2793a0.22625 0.22625 0 0 1 -0.22656 -0.22656v-1.1016a0.22625 0.22625 0 0 1 0.22656 -0.22656h3.6562c0.1453 0 0.25781-0.11251 0.25781-0.25781s-0.11251-0.25781-0.25781-0.25781h-3.6562a0.22625 0.22625 0 0 1 -0.22656 -0.22656v-3.1719a0.22625 0.22625 0 0 1 0.21094 -0.22656zm-20.705 1.0352a0.22625 0.22625 0 0 1 0.01563 0h7.3125a0.22625 0.22625 0 0 1 0.22656 0.22656v2.1367a0.22625 0.22625 0 0 1 -0.22656 0.22656h-0.55078c-0.1453 0-0.25781 0.11251-0.25781 0.25781s0.11251 0.25781 0.25781 0.25781h0.55078a0.22625 0.22625 0 0 1 0.22656 0.22656v1.1016a0.22625 0.22625 0 0 1 -0.22656 0.22656h-7.3125a0.22625 0.22625 0 0 1 -0.22656 -0.22656v-1.1016a0.22625 0.22625 0 0 1 0.22656 -0.22656h4.6914c0.1453 0 0.25781-0.11251 0.25781-0.25781s-0.11251-0.25781-0.25781-0.25781h-4.6914a0.22625 0.22625 0 0 1 -0.22656 -0.22656v-2.1367a0.22625 0.22625 0 0 1 0.21094 -0.22656zm10.869 3.1055a0.22625 0.22625 0 0 1 0.01563 0h1.1035a0.22625 0.22625 0 0 1 0.22656 0.22656v1.1016a0.22625 0.22625 0 0 1 -0.22656 0.22656h-1.1035a0.22625 0.22625 0 0 1 -0.22656 -0.22656v-1.1016a0.22625 0.22625 0 0 1 0.21094 -0.22656z" transform="matrix(15.486 0 0 15.486 -934.29 -566.01)" stroke-width=".064576" fill="#fff"/></g></g><g transform="matrix(.064576 0 0 .064576 50.739 4.0964)"/><g transform="matrix(.064576 0 0 .064576 50.739 4.0964)"/><g transform="matrix(.064576 0 0 .064576 50.739 4.0964)"/></g></g><g transform="matrix(.072186 0 0 .072186 1.9204 51.927)"><g fill="#fff" transform="translate(10.915 -38.202)"><path d="m13.654 47.094c-1.6659 0-3.2263 0.64797-4.4043 1.8262-0.070366 0.07037-0.070367 0.17573 0 0.24609 0.070378 0.0704 0.17572 0.0704 0.24609 0 1.1093-1.1095 2.5893-1.7227 4.1582-1.7227 1.569 0 3.0488 0.61327 4.1582 1.7227 0.03475 0.03473 0.07677 0.05078 0.12305 0.05078 0.04627 0 0.0883-0.01605 0.12305-0.05078 0.0704-0.07038 0.07043-0.17564 0-0.24609-1.1782-1.1782-2.7384-1.8262-4.4043-1.8262zm0 1.6543c-1.1729 0-2.3429 0.44642-3.2363 1.3398-0.07038 0.07038-0.07042 0.17566 0 0.24609 0.07045 0.07042 0.17566 0.07042 0.24609 0 1.6473-1.6473 4.3331-1.6473 5.9805 0 0.03474 0.03474 0.07665 0.05078 0.12305 0.05078 0.04634 0 0.08827-0.01602 0.12305-0.05078 0.07038-0.07038 0.07042-0.17566 0-0.24609-0.89348-0.89344-2.0634-1.3398-3.2363-1.3398zm0 1.6602c-0.78122 0-1.5107 0.30144-2.0625 0.85352-0.06968 0.06967-0.06968 0.17837 0 0.24805 0.03475 0.03473 0.07677 0.05078 0.12305 0.05078 0.04348 0 0.09039-0.01809 0.125-0.05273 0.48348-0.48362 1.131-0.75 1.8145-0.75 0.68402 0 1.3328 0.26826 1.8164 0.75195 0.07045 0.07042 0.17559 0.07045 0.24609 0 0.06971-0.06969 0.06974-0.17829 0-0.24805-0.5521-0.5521-1.2813-0.85352-2.0625-0.85352zm0 1.7656c-0.20775 0-0.41376 0.05224-0.59766 0.1582l-7.9492 4.5801c-0.27882 0.16058-0.47305 0.41555-0.55664 0.72656-0.083667 0.3112-0.043202 0.63209 0.11719 0.91016 0.21272 0.36944 0.61198 0.59961 1.0391 0.59961 0.20797 0 0.41513-0.05524 0.59766-0.16016l0.41211-0.23633a0.24811 0.24811 0 0 1 0.37109 0.21484v8.7656c0 0.09856 0.075797 0.17383 0.17578 0.17383h12.784c0.09992 0 0.17383-0.07391 0.17383-0.17383v-8.7656a0.24811 0.24811 0 0 1 0.37109 -0.21484l0.41211 0.23633c0.57434 0.33078 1.3061 0.13449 1.6367-0.43945 0.16101-0.27897 0.20262-0.5995 0.11914-0.91016-0.08357-0.31079-0.2787-0.56648-0.55664-0.72656a0.24811 0.24811 0 0 1 -0.002 0l-2.4238-1.4023c-0.08607-0.04979-0.18851-0.02153-0.23828 0.06445-0.05 0.08636-0.02248 0.186 0.06445 0.23633l2.4219 1.4043c0.19497 0.11232 0.33984 0.29763 0.39844 0.51562 0.0585 0.21759 0.02595 0.44858-0.08594 0.64258-0.11278 0.19577-0.29945 0.33836-0.51562 0.39648-0.21609 0.05808-0.44741 0.02842-0.64258-0.08398l-1.054-0.608a0.24811 0.24811 0 0 1 -0.04102 -0.0293l0.0098 0.01172-4.8066-2.7695-0.002-0.002c-0.0059-0.0034-0.01492-0.0069-0.0059-0.002a0.24811 0.24811 0 0 1 -0.0039 -0.0039l-1.4883-0.85742a0.24811 0.24811 0 0 1 -0.0039 -0.002l-0.04101-0.02344c-0.05372-0.0313-0.1204-0.03194-0.17578 0l-6.3516 3.6602 0.021484-0.02148a0.24811 0.24811 0 0 1 -0.052734 0.03906l-1.0547 0.60742c-0.12856 0.07386-0.27417 0.11328-0.42188 0.11328-0.30331 0-0.58479-0.16258-0.73633-0.42578-0.11271-0.19538-0.14202-0.42668-0.083984-0.64258 0.058085-0.21608 0.20057-0.4028 0.39648-0.51562l7.9492-4.5801c0.26199-0.15106 0.58378-0.15083 0.8457 0l3.1699 1.8281c0.08587 0.04953 0.18814 0.02258 0.23828-0.06445 0.04978-0.08637 0.0229-0.19104-0.0625-0.24024l-3.1699-1.8262c-0.18342-0.10567-0.39186-0.1582-0.59961-0.1582zm4.8203 2.7324c-0.07174 0-0.09345 0.01728-0.11719 0.04492s-0.04294 0.07839-0.04297 0.13086c-0.000027 0.05247 0.01932 0.10135 0.04297 0.12891 0.02365 0.02755 0.04512 0.04492 0.11719 0.04492 0.07175 0 0.09345-0.01727 0.11719-0.04492s0.04294-0.07839 0.04297-0.13086c0.000028-0.05247-0.01737-0.10136-0.04102-0.12891s-0.04706-0.04492-0.11914-0.04492zm-5.248 0.12891a0.24811 0.24811 0 0 1 0.25391 0.24805v3.7422a0.24811 0.24811 0 0 1 -0.24805 0.24805h-0.69922a0.24811 0.24811 0 0 1 -0.24805 -0.24805v-1.9023c0-0.09857-0.0758-0.17383-0.17578-0.17383h-1.3379a0.24811 0.24811 0 0 1 -0.12305 -0.46289l2.4609-1.418a0.24811 0.24811 0 0 1 0.11719 -0.0332zm0.83398 0a0.24811 0.24811 0 0 1 0.14062 0.0332l0.69727 0.40234a0.24811 0.24811 0 0 1 0.125 0.21484v3.3398a0.24811 0.24811 0 0 1 -0.24805 0.24805h-0.69727a0.24811 0.24811 0 0 1 -0.24805 -0.24805v-3.7422a0.24811 0.24811 0 0 1 0.23047 -0.24805zm1.543 0.88867a0.24811 0.24811 0 0 1 0.14062 0.0332l2.0742 1.1953a0.24811 0.24811 0 0 1 0.125 0.21484v2.6484a0.24811 0.24811 0 0 1 -0.24805 0.24805h-1.0859a0.24811 0.24811 0 0 1 -0.24805 -0.23047c-0.02885-0.40473-0.35236-0.72693-0.75781-0.75586a0.24811 0.24811 0 0 1 -0.23047 -0.24805v-2.8574a0.24811 0.24811 0 0 1 0.23047 -0.24805zm-6.3047 1.373a0.24811 0.24811 0 0 1 0.00586 0h2.3838a0.24811 0.24811 0 0 1 0.24805 0.24805v1.4844a0.24811 0.24811 0 0 1 -0.23047 0.24805c-0.40539 0.02889-0.72696 0.35047-0.75586 0.75586a0.24811 0.24811 0 0 1 -0.24805 0.23047h-3.0165a0.24811 0.24811 0 0 1 -0.248 -0.247v-1.5371a0.24811 0.24811 0 0 1 0.125 -0.21484l1.6191-0.93359a0.24811 0.24811 0 0 1 0.11719 -0.0332zm9.2246 0.31055a0.24811 0.24811 0 0 1 0.14062 0.0332l1.082 0.62305a0.24811 0.24811 0 0 1 0.125 0.21484v4.627a0.24811 0.24811 0 0 1 -0.24805 0.24805h-3.012a0.24811 0.24811 0 0 1 -0.248 -0.249v-0.699a0.24811 0.24811 0 0 1 0.24805 -0.24805h1.5059c0.09853 0 0.17578-0.07725 0.17578-0.17578s-0.07587-0.17383-0.17578-0.17383h-1.5059a0.24811 0.24811 0 0 1 -0.24805 -0.24805v-0.69922a0.24811 0.24811 0 0 1 0.24805 -0.24805h1.5059c0.10002-0.000035 0.17578-0.0753 0.17578-0.17383v-2.584a0.24811 0.24811 0 0 1 0.23047 -0.24805zm-6.7598 2.0156h3.7812c0.25595 0 0.46875 0.21285 0.46875 0.46875v3.7812c0 0.25596-0.2102 0.4707-0.46875 0.4707h-3.7812c-0.2586 0-0.46875-0.2148-0.46875-0.4707v-3.7812c0-0.25589 0.21285-0.46875 0.46875-0.46875zm0.66797 0.96094c-0.0986 0-0.17578 0.07722-0.17578 0.17578v2.4473c0 0.09857 0.0758 0.17383 0.17578 0.17383h2.4473c0.09992 0 0.17383-0.07391 0.17383-0.17383v-2.4473c0.000018-0.0999-0.07523-0.17578-0.17383-0.17578zm-4.7637 0.0293a0.24811 0.24811 0 0 1 0.017578 0h3.0117a0.24811 0.24811 0 0 1 0.24805 0.24805v0.69922a0.24811 0.24811 0 0 1 -0.24805 0.24805h-1.5056c-0.099984 0-0.17383 0.07388-0.17383 0.17383 0 0.09998 0.075162 0.17578 0.17383 0.17578h1.5059a0.24811 0.24811 0 0 1 0.24805 0.24805v0.69922a0.24811 0.24811 0 0 1 -0.24805 0.24805h-1.5056c-0.099984 0-0.17383 0.07388-0.17383 0.17383v2.1738a0.24811 0.24811 0 0 1 -0.2481 0.247h-1.084a0.24811 0.24811 0 0 1 -0.248 -0.248v-4.8398a0.24811 0.24811 0 0 1 0.23047 -0.24805zm5.168 0.32031a0.24811 0.24811 0 0 1 0.01758 0h1.6016a0.24811 0.24811 0 0 1 0.24805 0.24805v1.6035a0.24811 0.24811 0 0 1 -0.24805 0.24805h-1.6016a0.24811 0.24811 0 0 1 -0.24805 -0.24805v-1.6035a0.24811 0.24811 0 0 1 0.23047 -0.24805zm-3.2402 2.7695a0.24811 0.24811 0 0 1 0.017578 0h1.0879a0.24811 0.24811 0 0 1 0.24805 0.23047c0.02889 0.40539 0.35047 0.72696 0.75586 0.75586a0.24811 0.24811 0 0 1 0.23047 0.24805v2.3711a0.24811 0.24811 0 0 1 -0.246 0.248h-4.0025a0.24811 0.24811 0 0 1 -0.248 -0.248v-0.76172a0.24811 0.24811 0 0 1 0.24805 -0.24805h1.5059c0.10005 0 0.17383-0.07385 0.17383-0.17383v-2.1738a0.24811 0.24811 0 0 1 0.23047 -0.24805zm7.0137 0h3.0137a0.24811 0.24811 0 0 1 0.24805 0.24805v1.75a0.24811 0.24811 0 0 1 -0.24805 0.24805h-4.001a0.24811 0.24811 0 0 1 -0.248 -0.249v-0.763a0.24811 0.24811 0 0 1 0.23047 -0.24805c0.40545-0.02893 0.72896-0.35113 0.75781-0.75586a0.24811 0.24811 0 0 1 0.24805 -0.23047zm-4.0938 0.99023a0.24811 0.24811 0 0 1 0.01758 0h0.69922a0.24811 0.24811 0 0 1 0.24805 0.24805v2.3672a0.24811 0.24811 0 0 1 -0.24805 0.24805h-0.69922a0.24811 0.24811 0 0 1 -0.24805 -0.24805v-2.3672a0.24811 0.24811 0 0 1 0.23047 -0.24805zm1.5449 0a0.24811 0.24811 0 0 1 0.01758 0h0.69727a0.24811 0.24811 0 0 1 0.24805 0.24805v1.183c0 0.09854 0.07586 0.17383 0.17578 0.17383h4.4238a0.24811 0.24811 0 0 1 0.24805 0.24805v0.76172a0.24811 0.24811 0 0 1 -0.24805 0.24805h-5.5449a0.24811 0.24811 0 0 1 -0.24805 -0.24805v-2.3672a0.24811 0.24811 0 0 1 0.23047 -0.24805z" transform="matrix(24.028 0 0 24.028 -72.095 -1125.6)" stroke-width=".041618" fill="#fff"/></g></g><g transform="matrix(.07258 0 0 .07258 45.715 49.519)"><path d="m218.22 14.174-6.2461 31.129a9.9642 9.9642 0 0 1 -7.1113 7.6426c-16.892 4.6726-33.084 11.412-48.402 20.104a9.9642 9.9642 0 0 1 -10.439 -0.375l-26.43-17.609-62.42 62.384 17.605 26.43a9.9642 9.9642 0 0 1 0.375 10.439c-8.6818 15.302-15.385 31.534-20.062 48.443a9.9642 9.9642 0 0 1 -7.6523 7.1152l-31.119 6.2109v88.268l31.127 6.2441a9.9642 9.9642 0 0 1 7.6445 7.1133c4.6753 16.905 11.378 33.098 20.062 48.404a9.9642 9.9642 0 0 1 -0.375 10.439l-17.607 26.428 62.426 62.424 26.428-17.607a9.9642 9.9642 0 0 1 10.439 -0.375c15.309 8.6858 31.499 15.389 48.402 20.064a9.9642 9.9642 0 0 1 7.1113 7.6426l6.2461 31.129h88.238l6.2461-31.129a9.9642 9.9642 0 0 1 7.1113 -7.6426c16.908-4.6773 33.141-11.382 48.443-20.064a9.9642 9.9642 0 0 1 10.439 0.375l26.426 17.605 62.385-62.42-17.607-26.43a9.9642 9.9642 0 0 1 -0.375 -10.439c8.6846-15.308 15.389-31.501 20.064-48.404a9.9642 9.9642 0 0 1 7.6445 -7.1133l31.127-6.2441v-88.268l-31.119-6.2109a9.9642 9.9642 0 0 1 -7.6523 -7.1152c-4.6774-16.91-11.382-33.141-20.064-48.443a9.9642 9.9642 0 0 1 0.375 -10.439l17.607-26.428-62.383-62.385-26.428 17.607a9.9642 9.9642 0 0 1 -10.439 0.375c-15.31-8.698-31.55-15.44-48.44-20.114a9.9642 9.9642 0 0 1 -7.1113 -7.6426l-6.2461-31.129zm16.4 10.1h55.438a9.9642 9.9642 0 0 1 9.7695 8.0098l5.498 27.488 3.168 0.73438c22.09 5.0834 43.124 13.769 62.441 25.861l2.7598 1.7285 23.336-15.535a9.9642 9.9642 0 0 1 12.566 1.248l39.172 39.17a9.9642 9.9642 0 0 1 1.248 12.566l-15.535 23.338 1.7266 2.7598c12.095 19.323 20.784 40.36 25.867 62.455l0.73242 3.1543 27.486 5.4961a9.9642 9.9642 0 0 1 8.0098 9.7695v55.398a9.9642 9.9642 0 0 1 -8.0098 9.7695l-27.48 5.4961-0.74023 3.2012c-5.0833 22.095-13.771 43.131-25.865 62.451l-1.7266 2.7598 15.535 23.336a9.9642 9.9642 0 0 1 -1.248 12.566l-39.172 39.172a9.9642 9.9642 0 0 1 -12.574 1.2422l-23.334-15.566-2.7578 1.7246c-19.313 12.088-40.347 20.821-62.453 25.906l0.0137-0.002-3.166 0.73242-5.498 27.486a9.9642 9.9642 0 0 1 -9.7695 8.0098h-55.438a9.9642 9.9642 0 0 1 -9.7695 -8.0098l-5.498-27.486-3.168-0.73242 0.0156 0.002c-22.107-5.0846-43.14-13.818-62.453-25.906l-0.004-0.002-2.7539-1.7227-23.336 15.568a9.9642 9.9642 0 0 1 -12.574 -1.2441l-39.2-39.18a9.9642 9.9642 0 0 1 -1.2422 -12.574l15.566-23.334-1.7246-2.7539v-0.002c-12.088-19.32-20.818-40.35-25.904-62.46l-0.002-0.006-0.73828-3.1953-27.48-5.4961a9.9642 9.9642 0 0 1 -8.01 -9.76v-55.398a9.9642 9.9642 0 0 1 8.0098 -9.7695l27.486-5.4961 0.73242-3.1543 0.002-0.006 0.002-0.01c5.0861-22.102 13.816-43.131 25.902-62.439v-0.002l1.7246-2.7539-15.568-23.334a9.9642 9.9642 0 0 1 1.2441 -12.574l39.17-39.171a9.9642 9.9642 0 0 1 12.566 -1.248l23.338 15.535 2.7598-1.7285c19.31-12.094 40.35-20.78 62.44-25.863l3.1934-0.73828 5.4629-27.473a9.9642 9.9642 0 0 1 9.7715 -8.0195zm27.719 80.908c-85.576 0-155.02 69.478-155.02 155.06 0 85.579 69.437 155.02 155.02 155.02 85.579 0 155.06-69.44 155.06-155.02 0-85.576-69.481-155.06-155.06-155.06zm0 10.1c79.842 0 144.96 65.115 144.96 144.96-0.00001 74.403-56.462 136.01-128.85 144.04a9.9642 9.9642 0 0 1 -11.062 -9.9023v-30.23a9.9642 9.9642 0 0 1 8.5469 -9.8613c45.976-6.6056 81.449-46.178 81.449-94.055v-5.0508h-5.0488c-34.587 0-64.816 18.539-81.463 46.166a9.9642 9.9642 0 0 1 -17.066 0c-16.65-27.63-46.88-46.17-81.47-46.17h-5.0508v5.0508c0 47.876 35.473 87.449 81.449 94.055a9.9642 9.9642 0 0 1 8.5469 9.8613v30.227a9.9642 9.9642 0 0 1 -11.062 9.9023c-72.383-8.0388-128.84-69.642-128.84-144.04 0-79.842 65.115-144.96 144.96-144.96zm-5.0508 49.91v10.061h10.1v-10.061zm-58.596 24.273-7.1211 7.1191 7.1211 7.1211 7.1348-7.1191zm127.29 0-7.1348 7.1211 7.1348 7.1191 7.1211-7.1211zm-136.71 77.725a9.9642 9.9642 0 0 1 2.2285 0.25586c31.517 7.2967 56.33 32.107 63.627 63.625a9.9642 9.9642 0 0 1 -11.955 11.955c-31.517-7.2967-56.33-32.107-63.627-63.625a9.9642 9.9642 0 0 1 9.7266 -12.211zm145.87 0.004a9.9642 9.9642 0 0 1 9.9805 12.207c-7.2967 31.517-32.108 56.328-63.625 63.625a9.9642 9.9642 0 0 1 -11.955 -11.955c7.2967-31.517 32.108-56.328 63.625-63.625a9.9642 9.9642 0 0 1 1.9746 -0.25195z" fill="#fff"/></g><path d="m13.934 4.2715c-0.95708 0-1.7266 0.77116-1.7266 1.7285v5.8457a0.30584 0.30584 0 0 1 -0.30664 0.30664h-3.482c-0.19781 0-0.34766 0.1507-0.34766 0.34961v7.8828c0 0.1989 0.15095 0.35156 0.34766 0.35156 2.7937 0 5.0723 2.2765 5.0723 5.0703v1.8027c0 0.19671 0.15485 0.35156 0.35156 0.35156h1.2305a0.30584 0.30584 0 0 1 0.30664 0.30664v5.4629a0.30584 0.30584 0 0 1 -0.08984 0.2168l-1.6484 1.6523a0.30584 0.30584 0 0 1 -0.3418 0.0625c-0.18093-0.081-0.38159-0.12695-0.58984-0.12695-0.79989 0-1.4453 0.64543-1.4453 1.4453 0 0.79989 0.64501 1.4434 1.4453 1.4434 0.8003 0 1.4434-0.64306 1.4434-1.4434 0-0.19201-0.03506-0.37407-0.10156-0.53906a0.30584 0.30584 0 0 1 0.06641 -0.33203l1.862-1.861c0.06634-0.06634 0.10156-0.1517 0.10156-0.24609v-5.7363a0.30584 0.30584 0 0 1 0.30664 -0.30664h1.3691a0.30584 0.30584 0 0 1 0.30664 0.30664v13.439a0.30584 0.30584 0 0 1 -0.19141 0.2832c-0.52836 0.2148-0.90234 0.73244-0.90234 1.3398 0 0.8003 0.64306 1.4434 1.4434 1.4434 0.8003 0 1.4473-0.64388 1.4473-1.4434 0-0.60728-0.37546-1.1251-0.9043-1.3398a0.30584 0.30584 0 0 1 -0.193 -0.283v-13.439a0.30584 0.30584 0 0 1 0.30664 -0.30664h1.367a0.30584 0.30584 0 0 1 0.30664 0.30664v8.043c0 0.0921 0.03618 0.1788 0.10352 0.24609l1.8594 1.8633a0.30584 0.30584 0 0 1 0.065 0.33c-0.06684 0.16597-0.10156 0.34556-0.10156 0.53711 0 0.79989 0.64584 1.4473 1.4453 1.4473 0.79948 0 1.4434-0.64697 1.4434-1.4473 0-0.8003-0.64347-1.4453-1.4434-1.4453-0.20873 0-0.40602 0.04553-0.58789 0.12695a0.30584 0.30584 0 0 1 -0.341 -0.063l-1.6523-1.6523a0.30584 0.30584 0 0 1 -0.08984 -0.2168v-7.7695a0.30584 0.30584 0 0 1 0.30664 -0.30664h1.0781c0.19671 0 0.35156-0.15485 0.35156-0.35156v-1.8027c0-2.794 2.2805-5.0703 5.0742-5.0703 0.19671 0 0.34766-0.15266 0.34766-0.35156v-7.8828c0-0.19891-0.14985-0.34961-0.34766-0.34961h-3.4844a0.30584 0.30584 0 0 1 -0.30664 -0.30664v-5.844c0.000074-0.95697-0.77143-1.7285-1.7285-1.7285-0.95699 0-1.7285 0.77153-1.7285 1.7285v5.8457a0.30584 0.30584 0 0 1 -0.30664 0.30664h-4.731a0.30584 0.30584 0 0 1 -0.307 -0.307v-5.846c0.000075-0.9566-0.77348-1.7285-1.7305-1.7285zm0 0.69922c0.56432 0 1.0332 0.46297 1.0332 1.0293v5.8457a0.30584 0.30584 0 0 1 -0.30664 0.30664h-1.447a0.30584 0.30584 0 0 1 -0.307 -0.307v-5.846c0-0.56328 0.46297-1.0293 1.0273-1.0293zm8.8027 0c0.56438 0 1.0312 0.46402 1.0312 1.0293v5.8457a0.30584 0.30584 0 0 1 -0.30664 0.30664h-1.447a0.30584 0.30584 0 0 1 -0.307 -0.307v-5.846c0-0.56433 0.46497-1.0293 1.0293-1.0293zm-13.663 7.8833h18.524a0.30584 0.30584 0 0 1 0.30664 0.30664v1.0508a0.30584 0.30584 0 0 1 -0.30664 0.30664h-18.524a0.30584 0.30584 0 0 1 -0.30664 -0.30664v-1.0508a0.30584 0.30584 0 0 1 0.30664 -0.30664zm0 2.3652h18.524a0.30584 0.30584 0 0 1 0.30664 0.30664v4.2383a0.30584 0.30584 0 0 1 -0.27344 0.30469c-2.8915 0.3119-5.1504 2.7627-5.1504 5.7383v1.1465a0.30584 0.30584 0 0 1 -0.30664 0.30664h-7.675a0.30584 0.30584 0 0 1 -0.30664 -0.30664v-1.1465c0-2.9755-2.2608-5.4264-5.1523-5.7383a0.30584 0.30584 0 0 1 -0.2731 -0.306v-4.239a0.30584 0.30584 0 0 1 0.3066 -0.306zm6.1094 1.7949c-0.19891 0-0.34961 0.14985-0.34961 0.34766s0.1529 0.35156 0.34961 0.35156h6.3047c0.19671 0 0.35156-0.15485 0.35156-0.35156s-0.15266-0.34766-0.35156-0.34766zm0 2.1016c-0.19671 0-0.34961 0.15375-0.34961 0.35156s0.1507 0.34766 0.34961 0.34766h6.3047c0.19891 0 0.35156-0.15095 0.35156-0.34766s-0.15485-0.35156-0.35156-0.35156zm0 2.1016c-0.19671 0-0.34961 0.15376-0.34961 0.35156 0 0.19781 0.1518 0.34961 0.34961 0.34961h6.3047c0.19781 0 0.35156-0.1529 0.35156-0.34961s-0.15485-0.35156-0.35156-0.35156zm-2.4746 15.02c0.40698 0 0.74609 0.33551 0.74609 0.74414 0 0.40871-0.33749 0.74609-0.74609 0.74609-0.40863 0-0.74414-0.33911-0.74414-0.74609 0-0.40699 0.33716-0.74414 0.74414-0.74414zm11.408 2.3066c0.40698 0 0.74609 0.33551 0.74609 0.74414 0 0.40864-0.33746 0.74609-0.74609 0.74609s-0.74414-0.33911-0.74414-0.74609 0.33716-0.74414 0.74414-0.74414zm-5.7051 4.043c0.40698 0 0.74414 0.33716 0.74414 0.74414 0 0.40706-0.33718 0.74414-0.74414 0.74414-0.40699 0-0.74414-0.33716-0.74414-0.74414s0.33716-0.74414 0.74414-0.74414z" transform="matrix(.98585 0 0 .98585 3.0215 .94403)" stroke-width=".087580"/></g></svg>
