<svg id="Solutions" xmlns="http://www.w3.org/2000/svg" xml:space="preserve" viewBox="0 0 92.429688 92.429682" height="92.43" width="92.43" version="1.1" y="0px" x="0px"><g fill="#fff" transform="matrix(.18053 0 0 .18053 -.00036677 .00074199)"><g fill="#fff"><path d="m134.38 4.7324c-6.6068 0-11.963 5.3561-11.963 11.963v11.486c0 0.309 0.2242 0.5332 0.5332 0.5332 0.30885 0 0.53515-0.2261 0.53515-0.5332v-11.486c0-5.9976 4.8971-10.895 10.895-10.895h21.688a1.1367 1.1367 0 0 1 1.14 1.1375v3.7441a1.1367 1.1367 0 0 1 -1.1152 1.1367c-3.7796 0.07042-6.8644 2.9696-7.2363 6.6621-0.087 0.86266-0.0233 1.7444 0.18946 2.5801 0.80478 3.1579 3.6449 5.5185 7.0469 5.582a1.1367 1.1367 0 0 1 1.1152 1.1367v10.604a1.1367 1.1367 0 0 1 -1.1367 1.1367h-9.9785a1.1367 1.1367 0 0 1 -1.1152 -0.92188c-0.68099-3.5345-3.7958-6.2188-7.541-6.2188s-6.8578 2.684-7.5391 6.2188a1.1367 1.1367 0 0 1 -1.1152 0.92188h-4.1562a1.1367 1.1367 0 0 1 -1.1367 -1.1367v-4.2988c0-0.3074-0.22615-0.5332-0.53515-0.5332-0.30885 0-0.5332 0.2245-0.5332 0.5332v5.9688c0 0.309 0.2242 0.5332 0.5332 0.5332h7.3398c0.30885 0 0.5332-0.2245 0.5332-0.5332 0-3.6331 2.9753-6.6074 6.6094-6.6074s6.6113 2.9739 6.6113 6.6074c0 0.309 0.2242 0.5332 0.5332 0.5332h11.49a1.1367 1.1367 0 0 1 1.1367 1.1367v7.151a1.1367 1.1367 0 0 1 -1.4726 1.0859c-0.74722-0.23175-1.5325-0.35156-2.3379-0.35156-4.3515 0-7.873 3.5214-7.873 7.873 0 4.3517 3.5214 7.873 7.873 7.873 0.80582 0 1.5906-0.11978 2.3379-0.35156a1.1367 1.1367 0 0 1 1.4726 1.0859v8.75c0 0.309 0.22421 0.5332 0.53321 0.5332h23.357c6.6066 0 11.961-5.3563 11.961-11.963v-23.348a1.1367 1.1367 0 0 1 0 -0.0293v-13.075c0-0.30739-0.22777-0.53516-0.53516-0.53516-0.30724 0-0.5332 0.22646-0.5332 0.53516v11.426a1.1367 1.1367 0 0 1 -1.1367 1.1367h-6.2832a1.1367 1.1367 0 0 1 -1.1094 -1.3887c0.1227-0.54094 0.1875-1.0962 0.1875-1.6543 0-2.572-1.3051-4.8319-3.2871-6.1719-1.1889-0.80417-2.6143-1.2715-4.1582-1.2715-2.4443 0-4.605 1.1766-5.9648 2.9941-0.93117 1.244-1.4824 2.7783-1.4824 4.4492 0 0.55804 0.0628 1.114 0.18555 1.6543a1.1367 1.1367 0 0 1 -1.1074 1.3887h-8.4219a1.1367 1.1367 0 0 1 -1.1367 -1.1367v-12.44c0-0.16175-0.0726-0.31331-0.20117-0.41602-0.095-0.07588-0.21377-0.11684-0.33398-0.11719-0.0423-0.000123-0.079 0.003-0.11719 0.01172-0.45309 0.10287-0.91996 0.15625-1.3906 0.15625-3.4897 0-6.3477-2.858-6.3477-6.3477s2.8581-6.3477 6.3477-6.3477c0.46559 0.000001 0.93217 0.05389 1.3926 0.15625 0.31796 0.0703 0.65039-0.19599 0.65039-0.52148v-5.5795a1.1367 1.1367 0 0 1 1.1367 -1.1367h21.686c5.9962 0 10.893 4.8972 10.893 10.895v4.248c0 0.3074 0.22616 0.5332 0.53515 0.5332 0.30887 0 0.53321-0.2245 0.53321-0.5332v-4.248c0-6.6069-5.3555-11.963-11.961-11.963h-23.357zm-3.2539 7.9688c-0.30885 0-0.53516 0.22611-0.53516 0.5332s0.22631 0.5332 0.53516 0.5332h6.0879c0.30885 0 0.5332-0.2245 0.5332-0.5332 0-0.30855-0.22465-0.5332-0.5332-0.5332zm0 5.9375c-0.30725 0-0.53516 0.22807-0.53516 0.53516s0.22631 0.5332 0.53516 0.5332h6.0879c0.30885 0 0.5332-0.2245 0.5332-0.5332 0-0.30855-0.22626-0.53516-0.5332-0.53516zm0 5.9395c-0.30739 0-0.53516 0.22777-0.53516 0.53516 0 0.30709 0.22631 0.5332 0.53516 0.5332h6.0879c0.30885 0 0.5332-0.2245 0.5332-0.5332 0-0.30855-0.22626-0.53516-0.5332-0.53516zm45.074 5.5215c1.205 0 2.3408 0.33931 3.3047 0.92578a1.1367 1.1367 0 0 1 0.002 0c1.8395 1.1195 3.0703 3.1504 3.0703 5.4512 0 1.1661-0.31851 2.3083-0.91992 3.3008-0.1001 0.16522-0.10407 0.36624-0.008 0.53711a1.1367 1.1367 0 0 1 0 0.002c0.0954 0.16958 0.27162 0.27148 0.46484 0.27148h8.7383a1.1367 1.1367 0 0 1 1.1367 1.1367v21.686c0 5.9974-4.8992 10.895-10.896 10.895h-21.686a1.1367 1.1367 0 0 1 -1.1367 -1.1367v-9.7695c0-0.20438-0.11103-0.38457-0.29297-0.47656-0.18211-0.09208-0.39391-0.07294-0.55664 0.04687-1.1691 0.86-2.574 1.3203-4.0273 1.3203-3.7426 0-6.8066-3.064-6.8066-6.8066 0-3.7425 3.0644-6.8047 6.8066-6.8047 1.4536 0 2.8584 0.46054 4.0273 1.3203 0.1646 0.12099 0.37414 0.13924 0.55664 0.04687 0.18194-0.09199 0.29297-0.27219 0.29297-0.47656v-9.8457a1.1367 1.1367 0 0 1 1.1367 -1.1367h10.877c0.19597 0 0.36993-0.10086 0.46485-0.26953a1.1367 1.1367 0 0 1 0 -0.002c0.0953-0.16928 0.0916-0.37173-0.01-0.53906-0.60181-0.99354-0.91797-2.1343-0.91797-3.2988 0-1.4442 0.48838-2.7878 1.3027-3.8574 1.1645-1.5287 3.0127-2.5195 5.0762-2.5195zm-58.74 14.619c-0.66769-0.0031-1.3451 0.08152-2.0234 0.26367-3.6163 0.97147-5.9273 4.372-5.668 7.9629a1.1367 1.1367 0 0 1 -0.84 1.179l-5.627 1.5117c-0.13593 0.03648-0.2536 0.12544-0.32422 0.24805a1.1367 1.1367 0 0 1 0 0.002c-0.0706 0.12236-0.0898 0.26632-0.0527 0.4043l6.0586 22.557c0.8312 3.0947 2.8025 5.6615 5.5781 7.2617 1.8464 1.0644 3.8846 1.6035 5.9531 1.6035 1.0414 0 2.0901-0.13604 3.125-0.41406l22.559-6.0605c0.13903-0.03729 0.25351-0.12551 0.32421-0.24805 0.071-0.12322 0.0897-0.26653 0.0527-0.4043l-2.9688-11.049c-0.0527-0.1963-0.20577-0.34084-0.40625-0.38281-0.1993-0.04173-0.39696 0.0289-0.52539 0.18945-0.90768 1.1345-2.1449 1.9416-3.5469 2.3184-1.8958 0.50899-3.9222 0.17424-5.5547-0.91797-0.25477-0.17063-0.56621-0.10871-0.73829 0.14844-0.17174 0.25664-0.11005 0.56661 0.14649 0.73828 1.8902 1.2646 4.23 1.6516 6.4238 1.0625 0.77759-0.20885 1.502-0.52722 2.1641-0.94531a1.1367 1.1367 0 0 1 1.7051 0.66602l1.82 6.836a1.1367 1.1367 0 0 1 -0.80274 1.3926l-20.943 5.625c-2.8032 0.75301-5.7556 0.36496-8.2695-1.084-2.5138-1.4492-4.3273-3.8086-5.0801-6.6113l-5.627-20.945a1.1367 1.1367 0 0 1 0.80273 -1.3926l5.4746-1.4707c0.29954-0.08047 0.45862-0.3557 0.37891-0.65234-0.94247-3.5093 1.1584-7.1547 4.668-8.0977 3.5089-0.9425 7.1529 1.1588 8.0957 4.668 0.0798 0.29695 0.35895 0.45647 0.6543 0.37695l11.098-2.9805a1.1367 1.1367 0 0 1 1.3926 0.80273l1.8555 6.9062a1.1367 1.1367 0 0 1 -1.1406 1.4316c-0.77901-0.0296-1.5697 0.05676-2.3477 0.26562-2.039 0.54789-3.7244 1.8428-4.7793 3.6719-1.0552 1.8294-1.3311 3.9354-0.7832 5.9746 0.0799 0.29765 0.35608 0.45711 0.6543 0.37695 0.29756-0.07995 0.45699-0.35633 0.37695-0.6543-0.97098-3.6139 1.1938-7.3667 4.8086-8.3379 1.4043-0.37667 2.8812-0.29783 4.2324 0.23047 0.19045 0.07439 0.39658 0.03667 0.54883-0.09961 0.15226-0.13633 0.21262-0.33995 0.16016-0.53516l-2.9883-11.121c-0.0373-0.13896-0.12632-0.25404-0.24805-0.32422-0.12295-0.0709-0.26712-0.0896-0.4043-0.05273l-11.252 3.0215a1.1367 1.1367 0 0 1 -1.3164 -0.59961c-1.2797-2.6304-3.9768-4.3027-6.8711-4.3164zm59.258 4.3105c-0.30899 0-0.53515 0.2258-0.53515 0.5332 0 0.3071 0.2263 0.5332 0.53515 0.5332h6.0859c0.30885 0 0.53516-0.22611 0.53516-0.5332-0.00006-0.30721-0.22661-0.5332-0.53516-0.5332zm0 5.9395c-0.30885 0-0.53515 0.2261-0.53515 0.5332s0.2263 0.5332 0.53515 0.5332h6.0859c0.30885 0 0.53516-0.22611 0.53516-0.5332-0.00006-0.30721-0.22661-0.5332-0.53516-0.5332zm0 5.9395c-0.30899 0-0.53515 0.2258-0.53515 0.5332 0 0.3071 0.2263 0.5332 0.53515 0.5332h6.0859c0.30885 0 0.53516-0.22611 0.53516-0.5332-0.00006-0.30721-0.22661-0.5332-0.53516-0.5332z" transform="matrix(5.5393 0 0 5.5393 -563.73 -.047383)" stroke-width=".18053" fill="#fff"/></g></g><g transform="matrix(.18053 0 0 .18053 101.77 .0085539)"/><g transform="matrix(.18053 0 0 .18053 101.77 .0085539)"/><g transform="matrix(.18053 0 0 .18053 101.77 .0085539)"/><g transform="matrix(.18053 0 0 .18053 101.77 .0085539)"/><g transform="matrix(.18053 0 0 .18053 101.77 .0085539)"/><g transform="matrix(.18053 0 0 .18053 101.77 .0085539)"/><g transform="matrix(.18053 0 0 .18053 101.77 .0085539)"/></svg>
