<svg width="24" height="24" viewBox="0 0 24 24" fill="none" xmlns="http://www.w3.org/2000/svg">
<path d="M13.8544 2.34578L12.5104 3.68983C12.2683 3.93185 12.1669 4.28083 12.2415 4.61487L13.2464 9.11492C13.307 9.38651 13.4781 9.62055 13.7185 9.76077L17.1599 11.7682L17.9554 10.9728L15.9451 8.10708C15.6662 7.70952 15.7133 7.16908 16.0567 6.82569L16.9903 5.89208C17.3337 5.54869 17.8741 5.50164 18.2717 5.78052L21.1373 7.79077L21.9328 6.99528L19.9254 3.55388C19.7851 3.31351 19.5511 3.14244 19.2795 3.08179L14.7795 2.07692C14.4454 2.00233 14.0964 2.10376 13.8544 2.34578Z" fill="#2A7DEC"/>
<path fill-rule="evenodd" clip-rule="evenodd" d="M11.217 4.35547L4.64278 8.07135C3.73679 8.58343 3.41993 9.73459 3.93626 10.6382C4.49964 11.6241 5.80228 11.8884 6.70539 11.2001L11.8167 7.3043L11.2647 4.83228C11.2294 4.67394 11.2138 4.51392 11.217 4.35547ZM7.00007 9.99984C7.00007 10.5521 6.55236 10.9998 6.00007 10.9998C5.44779 10.9998 5.00007 10.5521 5.00007 9.99984C5.00007 9.44755 5.44779 8.99984 6.00007 8.99984C6.55236 8.99984 7.00007 9.44755 7.00007 9.99984Z" fill="#2A7DEC"/>
<path d="M4 21C4 19.8954 4.89543 19 6 19H18C19.1046 19 20 19.8954 20 21V21C20 21.5523 19.5523 22 19 22H5C4.44772 22 4 21.5523 4 21V21Z" fill="#2A7DEC"/>
<path fill-rule="evenodd" clip-rule="evenodd" d="M4.50315 8.83347C3.67617 9.47564 3.53345 10.6698 4.1858 11.4888L9 17.5326V18H15V17C15 15.693 14.1642 14.5812 12.9978 14.1699L6.88348 8.89487C6.20587 8.31026 5.21001 8.28457 4.50315 8.83347ZM6.0003 11.0005C6.55259 11.0005 7.0003 10.5528 7.0003 10.0005C7.0003 9.44819 6.55259 9.00048 6.0003 9.00048C5.44802 9.00048 5.0003 9.44819 5.0003 10.0005C5.0003 10.5528 5.44802 11.0005 6.0003 11.0005Z" fill="#2A7DEC"/>
</svg>
