<svg width="65" height="64" viewBox="0 0 65 64" fill="none" xmlns="http://www.w3.org/2000/svg">
<g clip-path="url(#clip0_14019_36919)">
<path d="M56.9669 35.1333C57.1039 34.1333 57.1725 33.1 57.1725 32C57.1725 30.9333 57.1039 29.8667 56.9326 28.8667L63.8889 23.6C64.1886 23.3597 64.3934 23.0257 64.4684 22.6549C64.5434 22.2841 64.4839 21.8995 64.3001 21.5667L57.7207 10.5C57.526 10.1662 57.2167 9.90972 56.847 9.77562C56.4773 9.64152 56.0708 9.63836 55.699 9.76667L47.5091 12.9667C45.7957 11.7 43.9795 10.6333 41.9578 9.83334L40.7242 1.36668C40.6635 0.98511 40.4641 0.637367 40.1623 0.386597C39.8605 0.135827 39.4762 -0.00133835 39.0793 9.84466e-06H25.9207C25.0983 9.84466e-06 24.4472 0.566676 24.3101 1.36668L23.0765 9.83334C21.0547 10.6333 19.2043 11.7333 17.5252 12.9667L9.33529 9.76667C8.58141 9.50001 7.72473 9.76667 7.31352 10.5L0.768461 21.5667C0.357253 22.2667 0.494322 23.1333 1.17967 23.6L8.13593 28.8667C7.9646 29.8667 7.82753 30.9667 7.82753 32C7.82753 33.0333 7.89606 34.1333 8.0674 35.1333L1.11113 40.4C0.811377 40.6403 0.60656 40.9743 0.531579 41.3451C0.456598 41.7159 0.516093 42.1005 0.699926 42.4333L7.27925 53.5C7.69046 54.2333 8.54714 54.4667 9.30102 54.2333L17.4909 51.0333C19.2043 52.3 21.0204 53.3667 23.0422 54.1667L24.2758 62.6333C24.4472 63.4333 25.0983 64 25.9207 64H39.0793C39.9017 64 40.5871 63.4333 40.6899 62.6333L41.9235 54.1667C43.9453 53.3667 45.7957 52.3 47.4748 51.0333L55.6647 54.2333C56.4186 54.5 57.2753 54.2333 57.6865 53.5L64.2658 42.4333C64.677 41.7 64.5057 40.8667 63.8546 40.4L56.9669 35.1333ZM32.5 44C25.7151 44 20.1638 38.6 20.1638 32C20.1638 25.4 25.7151 20 32.5 20C39.2849 20 44.8362 25.4 44.8362 32C44.8362 38.6 39.2849 44 32.5 44Z" fill="#D4E5FB"/>
<path d="M6.66406 55.8593C6.66406 52.9137 9.05188 50.526 11.9974 50.526H43.9974C46.943 50.526 49.3307 52.9137 49.3307 55.8593C49.3307 57.3321 48.1369 58.526 46.6641 58.526H9.33073C7.85798 58.526 6.66406 57.3321 6.66406 55.8593Z" fill="#2A7DEC"/>
<path fill-rule="evenodd" clip-rule="evenodd" d="M25.9091 11.474L8.37782 21.383C5.96184 22.7486 5.11688 25.8183 6.49376 28.2279C7.99611 30.857 11.4698 31.5618 13.8781 29.7263L27.5083 19.3375L26.0363 12.7455C25.9421 12.3233 25.9005 11.8965 25.9091 11.474ZM14.6639 26.5257C14.6639 27.9983 13.47 29.1922 11.9973 29.1922C10.5245 29.1922 9.33059 27.9983 9.33059 26.5257C9.33059 25.0529 10.5245 23.859 11.9973 23.859C13.47 23.859 14.6639 25.0529 14.6639 26.5257Z" fill="#2A7DEC"/>
<path d="M32.9434 6.11448L29.3594 9.69861C28.7138 10.344 28.4434 11.2746 28.6423 12.1654L31.322 24.1655C31.4836 24.8898 31.9399 25.5139 32.581 25.8878L41.758 31.2409L43.8794 29.1199L38.5186 21.4779C37.7748 20.4178 37.9004 18.9766 38.8162 18.0609L41.3058 15.5713C42.2215 14.6556 43.6626 14.5301 44.7228 15.2738L52.3644 20.6345L54.4858 18.5131L49.1327 9.33608C48.7586 8.69509 48.1346 8.23891 47.4103 8.07717L35.4103 5.39752C34.5194 5.19861 33.5887 5.46909 32.9434 6.11448Z" fill="#2A7DEC"/>
<path fill-rule="evenodd" clip-rule="evenodd" d="M8.00548 23.4153C5.8002 25.1277 5.41961 28.3121 7.15921 30.4961L19.9971 46.6129V47.8593H35.9971V45.1927C35.9971 41.7073 33.7683 38.7425 30.6579 37.6457L14.353 23.579C12.5461 22.02 9.89044 21.9515 8.00548 23.4153ZM11.9979 29.194C13.4707 29.194 14.6645 28.0001 14.6645 26.5273C14.6645 25.0545 13.4707 23.8606 11.9979 23.8606C10.5251 23.8606 9.33121 25.0545 9.33121 26.5273C9.33121 28.0001 10.5251 29.194 11.9979 29.194Z" fill="#2A7DEC"/>
</g>
<defs>
<clipPath id="clip0_14019_36919">
<rect width="64" height="64" fill="white" transform="translate(0.5)"/>
</clipPath>
</defs>
</svg>
