<svg style="image-rendering:optimizeQuality;text-rendering:geometricPrecision;shape-rendering:geometricPrecision" xmlns="http://www.w3.org/2000/svg" version="1.1" space="preserve" viewBox="0 0 5.5887798 5.5887798" height="16.434mm" fill-rule="evenodd" width="16.434mm" clip-rule="evenodd">
 <path style="image-rendering:optimizeQuality;shape-rendering:geometricPrecision" d="m2.7944-3.6583e-8c1.543 0 2.7944 1.2513 2.7944 2.7944s-1.2513 2.7944-2.7944 2.7944-2.7944-1.2514-2.7944-2.7944c0-1.5431 1.2513-2.7944 2.7944-2.7944zm0.4199 2.0018v2.4842h0.33122v0.29574h-1.5023v-0.29574h0.33124v-2.1885h-0.33124v-0.29574h1.1712l8e-7 0.0000016zm-0.8635-0.7807c0-0.10647 0.038459-0.20209 0.11535-0.28688 0.076888-0.084783 0.17646-0.12717 0.29869-0.12717h0.059153c0.10252 0 0.19716 0.037463 0.2839 0.11239 0.08676 0.074911 0.13012 0.17547 0.13012 0.30165 0 0.10646-0.037448 0.20208-0.11237 0.28686-0.074926 0.084783-0.17547 0.12717-0.30165 0.12717h-0.059153c-0.1025 0-0.1971-0.0375-0.2839-0.1124-0.0867-0.0749-0.1301-0.1755-0.1301-0.3016h4e-7z" fill-rule="evenodd" clip-rule="evenodd" class="fil0" fill="#fff"/>
</svg>
