<svg width="92" height="92" viewBox="0 0 92 92" fill="none" xmlns="http://www.w3.org/2000/svg">
<g clip-path="url(#clip0)">
<g filter="url(#filter0_d)">
<path fill-rule="evenodd" clip-rule="evenodd" d="M39.9055 35.3481C38.5626 34.7733 37.1328 34.3848 35.6563 34.2073C34.502 32.4637 32.3234 31.5681 30.1923 32.1391L28.2025 32.6723C26.0707 33.2435 24.6316 35.1093 24.5045 37.1973C23.3158 38.0888 22.2727 39.1395 21.398 40.308C19.3097 40.4347 17.4432 41.8739 16.8719 44.006L16.3387 45.9958C15.7674 48.1282 16.6644 50.3081 18.41 51.4619C18.4974 52.1824 18.6363 52.9041 18.8288 53.6224C19.0216 54.342 19.2627 55.0378 19.548 55.7066C18.6142 57.5783 18.9275 59.9137 20.4881 61.4743L21.9447 62.9309C23.5058 64.492 25.8425 64.805 27.7146 63.8699C29.0554 64.4436 30.4828 64.8315 31.9569 65.0091C33.1109 66.7537 35.2901 67.65 37.4219 67.0788L39.4117 66.5457C41.5428 65.9746 42.9817 64.1096 43.1095 62.0224C44.2981 61.1315 45.3411 60.0816 46.2159 58.9139C48.3057 58.7885 50.1738 57.3489 50.7454 55.2156L51.2786 53.2258C51.8499 51.0938 50.9532 48.9143 49.2082 47.7604C49.1209 47.0381 48.9818 46.3147 48.7888 45.5946C48.5963 44.8762 48.3557 44.1815 48.0711 43.5138C49.0063 41.6416 48.6934 39.3049 47.1322 37.7437L45.6756 36.287C44.1144 34.7258 41.7776 34.4129 39.9055 35.3481ZM40.9762 39.5721C40.6339 39.9144 40.0978 39.9582 39.6815 39.7112C37.8923 38.6497 35.8182 38.071 33.6721 38.0981C33.1874 38.1042 32.7439 37.7982 32.6185 37.33L32.4523 36.7099C32.3094 36.1764 31.761 35.8598 31.2276 36.0028L29.2378 36.536C28.7043 36.6789 28.3877 37.2272 28.5307 37.7607L28.6971 38.3817C28.8225 38.8498 28.5916 39.3364 28.1689 39.5735C26.2981 40.6232 24.7921 42.161 23.7739 43.9741C23.5369 44.3962 23.0507 44.6264 22.5831 44.5011L21.9604 44.3342C21.4269 44.1913 20.8785 44.5078 20.7356 45.0413L20.2024 47.0311C20.0595 47.5646 20.3761 48.1129 20.9095 48.2559L21.53 48.4221C21.9977 48.5474 22.3036 48.99 22.2982 49.4742C22.2867 50.501 22.4136 51.5465 22.6925 52.5871C22.9716 53.6287 23.3849 54.5985 23.909 55.4827C24.1559 55.8994 24.1124 56.4357 23.7699 56.7782L23.3165 57.2316C22.926 57.6221 22.926 58.2553 23.3165 58.6458L24.7731 60.1025C25.1636 60.493 25.7968 60.493 26.1873 60.1025L26.6436 59.6462C26.9859 59.3039 27.5218 59.2601 27.9382 59.507C29.7259 60.5671 31.7981 61.1453 33.9421 61.119C34.4267 61.113 34.87 61.4189 34.9955 61.8871L35.1618 62.508C35.3048 63.0415 35.8531 63.3581 36.3866 63.2151L38.3764 62.682C38.9099 62.539 39.2264 61.9907 39.0835 61.4572L38.9173 60.8371C38.7919 60.3689 39.0229 59.8822 39.4457 59.6451C41.3167 58.5961 42.8228 57.0591 43.8416 55.2467C44.0787 54.8248 44.5647 54.5948 45.0322 54.72L45.657 54.8874C46.1905 55.0304 46.7388 54.7138 46.8817 54.1803L47.4149 52.1905C47.5579 51.6571 47.2413 51.1087 46.7078 50.9658L46.0876 50.7996C45.6197 50.6742 45.3138 50.2315 45.3194 49.7471C45.3312 48.7189 45.2043 47.6719 44.9251 46.6299C44.6463 45.5891 44.2333 44.62 43.7098 43.7363C43.463 43.3197 43.5066 42.7834 43.849 42.441L44.3038 41.9863C44.6943 41.5958 44.6943 40.9626 44.3038 40.5721L42.8471 39.1155C42.4566 38.7249 41.8234 38.7249 41.4329 39.1155L40.9762 39.5721Z" fill="#305680"/>
<path fill-rule="evenodd" clip-rule="evenodd" d="M26.815 51.483C27.8501 55.3462 31.821 57.6388 35.6842 56.6036C39.5473 55.5685 41.8399 51.5976 40.8048 47.7344C39.7696 43.8712 35.7988 41.5786 31.9356 42.6138C28.0724 43.6489 25.7798 47.6198 26.815 51.483ZM30.8644 50.3981C31.3004 52.0253 32.973 52.991 34.6002 52.555C36.2274 52.119 37.1931 50.4464 36.7571 48.8192C36.3211 47.1919 34.6485 46.2263 33.0213 46.6623C31.394 47.0983 30.4284 48.7709 30.8644 50.3981Z" fill="#2A7DEC"/>
<path fill-rule="evenodd" clip-rule="evenodd" d="M57.8974 11.0218C57.6813 11.8283 56.9834 12.4014 56.1648 12.5666C55.6292 12.6747 55.0989 12.816 54.5772 12.9905C53.7859 13.2553 52.8956 13.1077 52.3056 12.5177L52.2271 12.4392C51.4461 11.6582 50.1798 11.6582 49.3987 12.4392L45.641 16.1969C44.86 16.978 44.86 18.2443 45.641 19.0254L45.7188 19.1032C46.309 19.6933 46.4564 20.5837 46.1916 21.3751C46.017 21.8967 45.8756 22.427 45.7675 22.9626C45.6022 23.781 45.0292 24.4788 44.2227 24.6949L44.1118 24.7246C43.0448 25.0105 42.4117 26.1072 42.6976 27.1741L44.073 32.3072C44.3589 33.3742 45.4555 34.0073 46.5225 33.7214L46.6333 33.6917C47.4386 33.4759 48.2828 33.7924 48.8353 34.4168C49.0163 34.6214 49.2047 34.8217 49.4004 35.0175C49.596 35.213 49.7962 35.4012 50.0005 35.5821C50.6249 36.1346 50.9413 36.9788 50.7255 37.7841L50.6961 37.894C50.4102 38.961 51.0433 40.0577 52.1103 40.3435L57.2434 41.719C58.3103 42.0048 59.407 41.3717 59.6929 40.3047L59.7222 40.1954C59.9383 39.3889 60.6361 38.8158 61.4546 38.6506C61.9905 38.5424 62.521 38.401 63.0428 38.2263C63.8343 37.9614 64.7246 38.1089 65.3148 38.6991L65.394 38.7782C66.175 39.5593 67.4413 39.5593 68.2224 38.7782L71.9801 35.0205C72.7612 34.2395 72.7612 32.9732 71.9801 32.1921L71.9003 32.1123C71.3102 31.5222 71.1627 30.632 71.4274 29.8406C71.6018 29.3191 71.7431 28.789 71.8512 28.2535C72.0164 27.435 72.5895 26.7371 73.396 26.521L73.504 26.4921C74.5709 26.2062 75.2041 25.1095 74.9182 24.0426L73.5428 18.9095C73.2569 17.8425 72.1602 17.2094 71.0933 17.4953L70.9842 17.5245C70.1789 17.7403 69.3347 17.4239 68.7822 16.7996C68.6015 16.5954 68.4134 16.3954 68.218 16.1999C68.0226 16.0046 67.8228 15.8166 67.6187 15.636C66.9944 15.0835 66.678 14.2393 66.8938 13.4341L66.9238 13.3223C67.2096 12.2553 66.5765 11.1587 65.5095 10.8728L60.3764 9.49736C59.3095 9.21147 58.2128 9.84464 57.9269 10.9116L57.8974 11.0218ZM55.5174 28.9C57.3352 30.7178 60.2824 30.7178 62.1002 28.9C63.918 27.0822 63.918 24.1349 62.1002 22.3171C60.2824 20.4993 57.3352 20.4993 55.5174 22.3171C53.6996 24.1349 53.6996 27.0822 55.5174 28.9Z" fill="#2A7DEC"/>
</g>
</g>
<defs>
<filter id="filter0_d" x="-4" y="-2" width="100" height="100" filterUnits="userSpaceOnUse" color-interpolation-filters="sRGB">
<feFlood flood-opacity="0" result="BackgroundImageFix"/>
<feColorMatrix in="SourceAlpha" type="matrix" values="0 0 0 0 0 0 0 0 0 0 0 0 0 0 0 0 0 0 127 0"/>
<feOffset dy="10"/>
<feGaussianBlur stdDeviation="10"/>
<feColorMatrix type="matrix" values="0 0 0 0 0 0 0 0 0 0 0 0 0 0 0 0 0 0 0.1 0"/>
<feBlend mode="normal" in2="BackgroundImageFix" result="effect1_dropShadow"/>
<feBlend mode="normal" in="SourceGraphic" in2="effect1_dropShadow" result="shape"/>
</filter>
<clipPath id="clip0">
<rect width="92" height="92" fill="white"/>
</clipPath>
</defs>
</svg>
