<svg xmlns="http://www.w3.org/2000/svg" height="59.697mm" width="59.697mm" version="1.1" viewBox="0 0 211.52606 211.52604">
 <g transform="translate(-206.84 -294.46)">
  <rect stroke-linejoin="round" height="196.53" width="196.53" stroke="#305680" stroke-linecap="round" y="301.96" x="214.34" stroke-width="15" fill="none"/>
  <g transform="matrix(1.1012 0 0 1.1012 -334.96 -296.64)">
   <path d="m643.49 666.23h-3.6422c-1.8084 0-3.3172-1.5091-3.3172-3.3171 0-1.8085 1.5088-3.3172 3.3172-3.3172h3.6422c1.8084 0 3.3172 1.5087 3.3172 3.3172 0 1.808-1.5088 3.3171-3.3172 3.3171zm-18.309 0h-3.6422c-1.8084 0-3.3172-1.5091-3.3172-3.3171 0-1.8085 1.5088-3.3172 3.3172-3.3172h3.6422c1.8081 0 3.3172 1.5087 3.3172 3.3172 0 1.808-1.509 3.3171-3.3172 3.3171zm-17.591 0h-3.6425c-1.8084 0-3.3172-1.5091-3.3172-3.3171 0-1.8085 1.5088-3.3172 3.3172-3.3172h3.6425c1.8081 0 3.3172 1.5087 3.3172 3.3172 0 1.808-1.509 3.3171-3.3172 3.3171zm-17.831 0h-3.6425c-1.8084 0-3.3172-1.5091-3.3172-3.3171 0-1.8085 1.5088-3.3172 3.3172-3.3172h3.6425c1.8084 0 3.3172 1.5087 3.3172 3.3172 0 1.808-1.5088 3.3171-3.3172 3.3171zm-18.371 0h-3.6428c-1.8081 0-3.3172-1.5091-3.3172-3.3171 0-1.8085 1.509-3.3172 3.3172-3.3172h3.6428c1.8081 0 3.3172 1.5087 3.3172 3.3172 0 1.808-1.509 3.3171-3.3172 3.3171zm-18.31 0h-3.6422c-1.8081 0-3.3172-1.5091-3.3172-3.3171 0-1.8085 1.509-3.3172 3.3172-3.3172h3.6422c1.8084 0 3.3172 1.5087 3.3172 3.3172 0 1.808-1.5088 3.3171-3.3172 3.3171zm-17.591 0h-3.6425c-1.8081 0-3.3172-1.5091-3.3172-3.3171 0-1.8085 1.509-3.3172 3.3172-3.3172h3.6425c1.8084 0 3.3172 1.5087 3.3172 3.3172 0 1.808-1.5088 3.3171-3.3172 3.3171zm121.86-16.362c-0.10864-0.16446-0.14596-0.24024-0.1125-0.22888-0.20457-0.16032-0.58548-0.45196-0.29468-0.29799-0.14237-0.0755-0.21064-0.11969-0.24188-0.14568-0.034 0.007-0.11997 0.007-0.31319-0.0194 0.31098 0.0421 0.18216 0.0515 0.13379 0.0515h-136.98c-0.46468 0-0.84781 0.39001-0.84781 1.0716v25.283c0 0.4144-0.15508 0.4072 0.24298 0.7726 0.11334 0.1042 0.16862 0.1636 0.19461 0.1976 0.0362 0 0.11831 0.027 0.28832 0.099-0.44202-0.1868 0.59487-0.053 0.10338-0.053h136.87 0.0168c-0.1736-0.015 0.58714-0.1457 0.21064 0.053 0.2604-0.1379 0.31237-0.1283 0.31071-0.099 0.0287-0.037 0.0807-0.098 0.17249-0.1979 0.10421-0.1133 0.16337-0.1689 0.19765-0.1946 0.003-0.027 0.0171-0.082 0.0555-0.1813-0.00022-0.01-0.00044-0.013-0.001-0.02-0.099 0.1476-0.0229-0.4119-0.009-0.3151v-25.135c0-0.06-0.0183-0.4401 0.0136-0.4254-0.0763-0.22968-0.0818-0.30045-0.0174-0.21504" fill="#51a7ff"/>
   <g fill="#305680">
    <path d="m542.17 686.62h-16.765c-4.2786 0-4.2786 6.6343 0 6.6343h16.765c4.2783 0 4.2783-6.6343 0-6.6343"/>
    <path d="m652.27 686.62h-16.765c-4.2786 0-4.2786 6.6343 0 6.6343h16.765c4.2783 0 4.2783-6.6343 0-6.6343"/>
    <path d="m550.76 584.07c-6.2078 0.007-12.403 2.5791-16.555 7.2273-1.2033 1.3473-1.3316 3.3594 0 4.6913 1.2243 1.2241 3.4863 1.349 4.6913 0 3.054-3.4186 7.1095-5.1203 11.485-5.2773 2.5763-0.0926 4.5843 0.28716 7.1114 1.1472 2.1785 0.74112 4.4502 2.0973 6.3023 3.6878 1.3703 1.177 3.3406 1.3504 4.6913 0 1.2052-1.2052 1.3725-3.512 0-4.691-4.9735-4.2717-11.129-6.7891-17.726-6.7853"/>
    <path d="m623.04 584.07c-6.2081 0.007-12.403 2.5791-16.555 7.2273-1.2038 1.3473-1.3318 3.3594 0 4.6913 1.224 1.2241 3.4861 1.349 4.6913 0 3.0537-3.4186 7.1087-5.1203 11.485-5.2773 2.5763-0.0926 4.584 0.28716 7.1109 1.1472 2.1788 0.74112 4.4505 2.0973 6.3023 3.6878 1.3705 1.177 3.3409 1.3504 4.6913 0 1.2055-1.2052 1.3728-3.512 0-4.691-4.9738-4.2717-11.129-6.7891-17.726-6.7853"/>
    <path d="m530.83 587.6c4.9592-5.593 11.799-8.4068 19.072-8.5812 7.6991-0.18465 15.426 2.7096 21.439 7.9056 1.3672 1.1809 3.3437 1.3473 4.6913 0 1.2083-1.2085 1.3692-3.5081 0-4.6912-7.2704-6.2824-16.469-9.9689-26.131-9.8486-8.9397 0.11107-17.797 3.7959-23.764 10.524-1.1983 1.3518-1.3354 3.3559 0 4.6913 1.2204 1.2207 3.491 1.3537 4.6913 0"/>
    <path d="m603.11 587.6c4.9594-5.593 11.799-8.4068 19.072-8.5812 7.6997-0.18465 15.427 2.7096 21.44 7.9056 1.3667 1.1809 3.3437 1.3473 4.6913 0 1.2083-1.2085 1.3689-3.5081 0-4.6912-7.2704-6.2824-16.469-9.9689-26.131-9.8486-8.9392 0.11107-17.797 3.7959-23.763 10.524-1.1986 1.3518-1.3354 3.3559 0 4.6913 1.2207 1.2207 3.4908 1.3537 4.691 0"/>
    <path d="m657.36 650.51v25.135c-0.0138-0.097-0.0898 0.4627 0.009 0.3151 0.00066 0.01 0.00066 0.013 0.001 0.02-0.0384 0.099-0.0531 0.1537-0.0555 0.1813-0.0343 0.025-0.0934 0.081-0.19765 0.1946-0.0918 0.1-0.14374 0.1612-0.17249 0.198 0.001-0.029-0.0503-0.04-0.31071 0.099 0.3765-0.1993-0.38423-0.069-0.21064-0.053h-0.0168-136.87c0.49149 0-0.5454-0.1333-0.10339 0.053-0.17-0.072-0.2521-0.096-0.28832-0.099-0.026-0.034-0.0813-0.093-0.1946-0.1977-0.39806-0.3654-0.24298-0.3582-0.24298-0.7726v-25.283c0-0.68164 0.38313-1.0717 0.84781-1.0717h136.98c0.0484 0 0.17719-0.009-0.13379-0.0515 0.19322 0.0261 0.27919 0.0267 0.31319 0.0194 0.0312 0.0261 0.0995 0.0702 0.24187 0.14575-0.2908-0.15404 0.0901 0.13766 0.29468 0.29798-0.0334-0.0114 0.004 0.0642 0.1125 0.22889-0.0644-0.0855-0.0589-0.0147 0.0174 0.2151-0.0318-0.015-0.0136 0.3654-0.0136 0.4254zm4.9041-5.188c-1.6329-2.1122-4.1464-2.727-6.665-2.727h-28.912v-33.344c1.3341-0.9398 2.2706-2.4558 2.6139-4.082 0.1045-0.32204 0.15509-0.664 0.13629-1.0178 0.0185-0.34637-0.0293-0.68165-0.12909-0.99761-0.56448-2.895-2.8564-4.9034-5.9377-5.0695-3.4183-0.18404-5.8976 2.918-6.0674 6.0671-0.11583 2.1506 1.0698 3.9295 2.7496 4.9954v33.449h-65.468v-33.861c1.0949-0.86108 1.8706-2.1484 2.1863-3.5305 0.1125-0.332 0.1689-0.68559 0.14927-1.0527 0.0188-0.35412-0.0321-0.69601-0.13656-1.0184-0.55507-2.6498-2.6764-4.4812-5.5162-4.6343-3.185-0.17168-5.4952 2.7184-5.6533 5.6527-0.10284 1.9063 0.89204 3.4982 2.3361 4.5039v33.94h-28.371c-2.7751 0-5.363 1.564-6.6586 4.0118-0.77484 1.464-0.85224 3.019-0.85224 4.6178v22.841c0 1.1485 0.0293 2.1816 0.18549 3.332 0.45804 3.3819 4.0649 5.8366 7.29 5.8366h136.94c4.0066 0 7.0238-3.0642 7.4622-6.8823 0.029-0.1849 0.0487-0.3768 0.0487-0.5813v-20.614c0-3.3959 0.48015-6.9746-1.7302-9.834"/>
   </g>
   <g fill-opacity="0">
    <path d="m535.49 659.6h-3.6425c-1.8081 0-3.3172 1.5087-3.3172 3.3172 0 1.808 1.509 3.3171 3.3172 3.3171h3.6425c1.8084 0 3.3172-1.5091 3.3172-3.3171 0-1.8085-1.5088-3.3172-3.3172-3.3172"/>
    <path d="m643.5 659.6h-3.6422c-1.8084 0-3.3172 1.5087-3.3172 3.3172 0 1.808 1.5088 3.3171 3.3172 3.3171h3.6422c1.8084 0 3.3172-1.5091 3.3172-3.3171 0-1.8085-1.5088-3.3172-3.3172-3.3172"/>
    <path d="m553.09 659.6h-3.6422c-1.8081 0-3.3172 1.5087-3.3172 3.3172 0 1.808 1.509 3.3171 3.3172 3.3171h3.6422c1.8084 0 3.3172-1.5091 3.3172-3.3171 0-1.8085-1.5088-3.3172-3.3172-3.3172"/>
    <path d="m625.19 659.6h-3.6422c-1.8084 0-3.3172 1.5087-3.3172 3.3172 0 1.808 1.5088 3.3171 3.3172 3.3171h3.6422c1.8081 0 3.3172-1.5091 3.3172-3.3171 0-1.8085-1.509-3.3172-3.3172-3.3172"/>
    <path d="m607.6 659.6h-3.6425c-1.8084 0-3.3172 1.5087-3.3172 3.3172 0 1.808 1.5088 3.3171 3.3172 3.3171h3.6425c1.8081 0 3.3172-1.5091 3.3172-3.3171 0-1.8085-1.509-3.3172-3.3172-3.3172"/>
    <path d="m571.4 659.6h-3.6428c-1.8081 0-3.3172 1.5087-3.3172 3.3172 0 1.808 1.509 3.3171 3.3172 3.3171h3.6428c1.8081 0 3.3172-1.5091 3.3172-3.3171 0-1.8085-1.509-3.3172-3.3172-3.3172"/>
    <path d="m589.77 659.6h-3.6425c-1.8084 0-3.3172 1.5087-3.3172 3.3172 0 1.808 1.5088 3.3171 3.3172 3.3171h3.6425c1.8084 0 3.3172-1.5091 3.3172-3.3171 0-1.8085-1.5088-3.3172-3.3172-3.3172"/>
   </g>
  </g>
 </g>
</svg>
