<svg width="18" height="17" viewBox="0 0 18 17" fill="none" xmlns="http://www.w3.org/2000/svg">
<path fill-rule="evenodd" clip-rule="evenodd" d="M0 8.5C0 3.80558 3.80558 0 8.5 0C11.3798 0 13.9252 1.43217 15.4627 3.62314L16.2929 2.79289C16.6834 2.40237 17.3166 2.40237 17.7071 2.79289C18.0976 3.18342 18.0976 3.81658 17.7071 4.20711L16.4441 5.47011C16.8033 6.41127 17 7.43266 17 8.5C17 13.1944 13.1944 17 8.5 17C3.80558 17 0 13.1944 0 8.5ZM14.0198 5.06594C12.8721 3.22504 10.8291 2 8.5 2C4.91015 2 2 4.91015 2 8.5C2 12.0899 4.91015 15 8.5 15C12.0899 15 15 12.0899 15 8.5C15 8.00928 14.9456 7.53127 14.8426 7.07165L10.2071 11.7071C9.81658 12.0976 9.18342 12.0976 8.79289 11.7071L5.79289 8.70711C5.40237 8.31658 5.40237 7.68342 5.79289 7.29289C6.18342 6.90237 6.81658 6.90237 7.20711 7.29289L9.5 9.58579L14.0198 5.06594Z" fill="#2A7DEC"/>
</svg>
