<svg width="54" height="54" viewBox="0 0 54 54" fill="none" xmlns="http://www.w3.org/2000/svg">
<path fill-rule="evenodd" clip-rule="evenodd" d="M8 10C6.89543 10 6 10.8954 6 12V16C6 17.1046 6.89543 18 8 18H17.8713L18.0075 16.4934L23.2512 16.9361L27.0001 13.1621L30.7489 16.9361L35.9926 16.4934L36.1289 18H46C47.1046 18 48 17.1046 48 16V12C48 10.8954 47.1046 10 46 10H8ZM17.6904 20H8C6.89543 20 6 20.8954 6 22V26C6 27.1046 6.89543 28 8 28H15.373L13.2461 24.887L17.5261 21.8158L17.6904 20ZM38.6271 28H46C47.1046 28 48 27.1046 48 26V22C48 20.8954 47.1046 20 46 20H36.3097L36.474 21.8158L36.9029 22.1236C37.0858 22.0441 37.2878 22 37.5 22C38.3284 22 39 22.6716 39 23.5C39 23.542 38.9983 23.5836 38.9949 23.6247L40.754 24.887L38.6271 28ZM16.042 30H8C6.89543 30 6 30.8954 6 32V36C6 37.1046 6.89543 38 8 38H20.9746L20.0458 36H9.5C9.22386 36 9 35.7761 9 35.5C9 35.2239 9.22386 35 9.5 35H17.0081L14.8969 34.4157L16.042 30ZM36.992 35L39.1032 34.4157L37.9581 30H46C47.1046 30 48 30.8954 48 32V36C48 37.1046 47.1046 38 46 38H33.0255L33.9543 36H37.5C37.7761 36 38 35.7761 38 35.5C38 35.2239 37.7761 35 37.5 35H36.992ZM30.3753 40L31.7892 40.662L32.0967 40H47C47.5523 40 48 40.4477 48 41C48 41.5523 47.5523 42 47 42H7C6.44772 42 6 41.5523 6 41C6 40.4477 6.44772 40 7 40H21.9035L22.2109 40.662L23.6248 40H30.3753ZM11.5 15C12.3284 15 13 14.3284 13 13.5C13 12.6716 12.3284 12 11.5 12C10.6716 12 10 12.6716 10 13.5C10 14.3284 10.6716 15 11.5 15ZM18 13.5C18 14.3284 17.3284 15 16.5 15C15.6716 15 15 14.3284 15 13.5C15 12.6716 15.6716 12 16.5 12C17.3284 12 18 12.6716 18 13.5ZM42.5 25C43.3284 25 44 24.3284 44 23.5C44 22.6716 43.3284 22 42.5 22C41.6716 22 41 22.6716 41 23.5C41 24.3284 41.6716 25 42.5 25Z" fill="#CFE5D8"/>
<path fill-rule="evenodd" clip-rule="evenodd" d="M22 40.208L22.2109 40.6621L27.0001 38.4199L31.7892 40.6621L32 40.2083V48.0001L27 45.5557L22 48.0001V40.208Z" fill="#1F8B4D"/>
<path fill-rule="evenodd" clip-rule="evenodd" d="M29.9874 19.0074L27 16L24.0126 19.0074L19.8203 18.6535L19.4355 22.9073L16 25.3725L18.398 28.8822L17.3268 33.013L21.3854 34.1364L23.1797 38L27 36.2115L30.82 37.9999L32.6146 34.1364L36.6732 33.013L35.602 28.8822L38 25.3725L34.5645 22.9073L34.1797 18.6535L29.9874 19.0074ZM31.4606 21.8938L28.8453 22.1145L27 20.2569L25.1547 22.1145L22.5394 21.8938L22.2997 24.5445L20.1309 26.1007L21.6442 28.3155L20.9716 30.9091L23.5222 31.615L24.6331 34.0071L27 32.8989L29.3669 34.0071L30.4778 31.615L33.0284 30.9091L32.3558 28.3155L33.8691 26.1007L31.7003 24.5445L31.4606 21.8938Z" fill="#1F8B4D"/>
</svg>
