<svg width="42" height="42" viewBox="0 0 42 42" fill="none" xmlns="http://www.w3.org/2000/svg">
<path fill-rule="evenodd" clip-rule="evenodd" d="M11 7C11 5.89543 11.8954 5 13 5H35C36.1046 5 37 5.89543 37 7V9C37 10.1046 36.1046 11 35 11H13C11.8954 11 11 10.1046 11 9V7ZM16 8C16 8.55228 15.5523 9 15 9C14.4477 9 14 8.55228 14 8C14 7.44772 14.4477 7 15 7C15.5523 7 16 7.44772 16 8ZM18 9C18.5523 9 19 8.55228 19 8C19 7.44772 18.5523 7 18 7C17.4477 7 17 7.44772 17 8C17 8.55228 17.4477 9 18 9ZM12.1778 12.1763C12.4286 12.063 12.7069 12 13 12H35C36.1046 12 37 12.8954 37 14V16C37 17.1046 36.1046 18 35 18H18.8295L18.0951 17.481L17.7851 14.1056L14.4071 14.3864L12.1778 12.1763ZM15.7654 28H36C36.5523 28 37 27.5523 37 27C37 26.4477 36.5523 26 36 26H17.9599L16.5239 26.3914L15.7654 28ZM19.6626 25H35C36.1046 25 37 24.1046 37 23V21C37 19.8954 36.1046 19 35 19H20.2446L20.8633 19.4372L19.0852 22H25.5C25.7761 22 26 22.2239 26 22.5C26 22.7761 25.7761 23 25.5 23H19.1359L19.6626 25ZM31 15C31 15.5523 30.5523 16 30 16C29.4477 16 29 15.5523 29 15C29 14.4477 29.4477 14 30 14C30.5523 14 31 14.4477 31 15ZM33 16C33.5523 16 34 15.5523 34 15C34 14.4477 33.5523 14 33 14C32.4477 14 32 14.4477 32 15C32 15.5523 32.4477 16 33 16Z" fill="#212529"/>
<path fill-rule="evenodd" clip-rule="evenodd" d="M9 25H7V36L12 33.5556L17 36V25H15V26V29V32.796L12 31.3293L9 32.796V29V26V25Z" fill="#212529"/>
<path fill-rule="evenodd" clip-rule="evenodd" d="M14.4071 14.3864L12 12L9.59285 14.3864L6.2149 14.1056L5.9049 17.481L3.13672 19.4372L5.06891 22.2221L4.20576 25.5L7.47605 26.3914L8.92181 29.4572L12 28.038L15.0782 29.4572L16.5239 26.3914L19.7942 25.5L18.9311 22.2221L20.8633 19.4372L18.0951 17.481L17.7851 14.1056L14.4071 14.3864ZM15.9748 16.263L13.6539 16.456L12 14.8163L10.3461 16.456L8.02518 16.263L7.81219 18.5822L5.91023 19.9262L7.2378 21.8397L6.64474 24.0919L8.89169 24.7043L9.88504 26.8108L12 25.8357L14.1149 26.8108L15.1083 24.7043L17.3552 24.0919L16.7622 21.8397L18.0897 19.9262L16.1878 18.5822L15.9748 16.263Z" fill="#212529"/>
</svg>
