<svg width="38" height="38" viewBox="0 0 38 38" fill="none" xmlns="http://www.w3.org/2000/svg">
<path fill-rule="evenodd" clip-rule="evenodd" d="M11.5 7C9.01472 7 7 9.01472 7 11.5V20.5C7 22.9853 9.01472 25 11.5 25H26.5C28.9853 25 31 22.9853 31 20.5V11.5C31 9.01472 28.9853 7 26.5 7H11.5ZM10 11.5C10 10.6716 10.6716 10 11.5 10H26.5C27.3284 10 28 10.6716 28 11.5V20.5C28 21.3284 27.3284 22 26.5 22H11.5C10.6716 22 10 21.3284 10 20.5V11.5ZM13 30C12.4477 30 12 30.4477 12 31C12 31.5523 12.4477 32 13 32H25C25.5523 32 26 31.5523 26 31C26 30.4477 25.5523 30 25 30H23L21.2764 26.5528C21.107 26.214 20.7607 26 20.382 26H17.618C17.2393 26 16.893 26.214 16.7236 26.5528L15 30H13ZM17 19.4641L23 16L17 12.5359V19.4641Z" fill="black"/>
</svg>
