<svg width="268" height="218" viewBox="0 0 268 218" fill="none" xmlns="http://www.w3.org/2000/svg">
    <g clip-path="url(#clip0_18837_22865)">
        <path d="M259.842 133.35C260.843 133.35 261.762 133.6 262.68 133.933C263.598 134.266 264.432 134.849 265.1 135.514C265.767 136.18 266.352 137.012 266.686 137.927C267.019 138.842 267.187 139.758 267.187 140.756C267.186 164.554 260.426 186.854 248.907 205.826C253.248 211.151 255.668 217.892 255.668 224.881C255.668 241.69 241.895 255.419 225.034 255.419C217.939 255.419 211.178 253.006 205.753 248.596C186.805 259.913 164.686 266.486 140.98 266.486C139.979 266.486 139.061 266.319 138.143 266.07C137.224 265.737 136.389 265.154 135.722 264.489C135.054 263.74 134.47 262.991 134.136 262.076C133.718 261.16 133.552 260.245 133.552 259.247C133.552 258.248 133.802 257.333 134.136 256.417C134.47 255.502 135.054 254.67 135.722 254.004C136.389 253.339 137.224 252.756 138.143 252.423C139.061 252.091 139.979 251.924 140.98 251.924C161.431 251.924 180.545 246.432 196.988 236.863C195.319 233.119 194.401 229.042 194.401 224.881C194.401 208.073 208.173 194.343 225.034 194.343C229.208 194.426 233.298 195.341 237.138 197.005C246.903 180.447 252.496 161.309 252.496 140.756C252.496 139.758 252.663 138.842 252.997 137.927C253.331 137.012 253.915 136.18 254.583 135.514C255.334 134.848 256.086 134.266 257.004 133.933C257.922 133.517 258.84 133.35 259.842 133.35ZM225.034 208.905C216.187 208.905 209.092 215.894 209.092 224.797C209.092 228.375 210.26 231.871 212.514 234.7C212.597 234.783 212.598 234.783 212.681 234.866C215.686 238.693 220.11 240.774 225.034 240.774C233.882 240.774 240.977 233.785 240.978 224.881C240.978 220.055 238.807 215.478 235.051 212.483C232.213 210.153 228.707 208.905 225.034 208.905ZM183.467 46.812C187.39 46.6457 190.645 49.7245 190.645 53.6353C190.644 55.4657 190.061 57.2962 188.726 58.6274C183.3 64.119 173.952 73.438 172.198 75.186L188.809 91.7456C189.727 90.8303 200.16 80.4287 205.586 75.02C206.838 73.8551 208.507 73.1892 210.177 73.106C214.1 72.9395 217.355 76.0184 217.355 79.9292C217.355 81.7598 216.771 83.591 215.436 84.9224C209.676 90.6636 199.661 100.648 198.658 101.647L214.351 117.041C217.689 120.369 217.689 125.695 214.351 129.023L193.649 149.659C193.9 149.908 204.918 160.809 210.511 166.467C211.679 167.715 212.347 169.38 212.431 171.044C212.597 174.955 209.509 178.2 205.586 178.2C203.75 178.2 201.914 177.618 200.578 176.287C194.652 170.462 184.134 159.977 183.717 159.561L161.932 181.279C161.978 181.325 173.128 192.358 178.792 198.087C179.961 199.336 180.628 200.999 180.712 202.664C180.879 206.574 177.79 209.82 173.867 209.82C172.031 209.82 170.195 209.237 168.859 207.906C162.85 201.915 151.998 191.097 151.998 191.097L131.298 211.734C127.959 215.062 122.617 215.062 119.278 211.734L103.753 196.256C102.918 197.172 92.4846 207.656 86.9756 213.065C85.7236 214.23 84.0541 214.896 82.3848 214.979C78.4617 215.145 75.2061 212.067 75.2061 208.156C75.2061 206.325 75.7905 204.494 77.126 203.163C82.8851 197.421 92.9843 187.354 93.9033 186.438L77.293 169.879C76.4572 170.713 65.9403 181.196 60.4316 186.604C59.1796 187.769 57.5102 188.435 55.8408 188.518C51.9179 188.684 48.6631 185.606 48.6631 181.695C48.6631 179.864 49.2475 178.034 50.583 176.703C56.3424 170.961 66.5257 160.809 67.3604 159.977L52.085 144.917C48.7462 141.588 48.7463 136.262 52.085 132.934L72.7852 112.298C71.7 111.217 61.3498 100.981 56.0078 95.5728C54.8394 94.3247 54.1714 92.6606 54.0879 90.9966C54.0044 88.9996 54.7559 87.1686 56.0078 85.9204C57.2599 84.6723 59.0133 83.8403 61.0166 83.8403C62.8529 83.8404 64.689 84.4231 66.0244 85.7544C71.7837 91.4125 81.7162 101.314 82.8018 102.396L104.504 80.7612C103.168 79.4291 93.0684 69.3618 87.7266 64.0366C86.558 62.7885 85.8901 61.2069 85.8066 59.4595C85.6399 55.5487 88.7284 52.3032 92.6514 52.3032C94.4876 52.3032 96.3237 52.8862 97.6592 54.2173C103.252 59.7923 113.101 69.6117 114.354 70.8599L135.054 50.1401C138.392 46.8118 143.734 46.812 147.073 50.1401L162.266 65.2847L178.876 48.7261C180.128 47.5611 181.797 46.8952 183.467 46.812ZM145.487 82.5923C143.568 82.5092 141.648 83.3411 140.229 84.7554C139.562 85.421 138.977 86.2534 138.644 87.0854L131.882 103.311C130.546 106.39 131.549 109.968 134.387 111.632C137.225 113.296 140.897 112.714 143.234 110.134L146.656 123.532L109.346 134.848C105.673 135.93 103.419 139.757 104.337 143.418L112.852 176.536C113.77 180.197 117.525 182.277 121.281 181.113C125.037 179.948 127.292 176.12 126.29 172.458L119.361 145.915L156.673 134.598C160.345 133.516 162.599 129.606 161.681 126.028L156.589 106.057C159.761 106.972 163.267 105.475 164.853 102.396C166.438 99.3172 165.687 95.6561 163.1 93.9087L149.327 83.8403C148.242 83.0083 146.906 82.5923 145.487 82.5923ZM126.123 0.214355C127.124 0.214377 128.043 0.380804 129.044 0.630371C129.962 0.963208 130.797 1.54575 131.465 2.21143C132.133 2.96031 132.717 3.7092 133.051 4.62451C133.468 5.53981 133.635 6.4551 133.635 7.45361C133.635 8.45213 133.385 9.36741 133.051 10.2827C132.717 11.198 132.133 12.0301 131.465 12.6958C130.797 13.3615 129.962 13.944 129.044 14.2769C128.126 14.6096 127.208 14.7759 126.206 14.7759C105.756 14.7759 86.6417 20.2683 70.1982 29.8374C71.8675 33.5816 72.7861 37.6586 72.7861 41.8188C72.7861 58.6272 59.0132 72.3569 42.1523 72.3569C37.9789 72.2737 33.8884 71.359 30.0488 69.6948C20.2831 86.2534 14.6905 105.391 14.6904 125.944C14.7739 126.942 14.5233 127.858 14.1895 128.773C13.8556 129.688 13.2713 130.52 12.6035 131.186C11.8524 131.852 11.1016 132.434 10.1836 132.767C9.26554 133.183 8.3472 133.35 7.3457 133.35C6.34416 133.35 5.42589 133.1 4.50781 132.767C3.58964 132.434 2.75467 131.852 2.08691 131.186C1.41922 130.52 0.834831 129.688 0.500977 128.773C0.167187 127.858 0 126.942 0 125.944C8.41349e-05 102.146 6.67762 79.9294 18.1963 60.8745C13.8559 55.5491 11.4355 48.8085 11.4355 41.8188C11.4358 25.0108 25.2078 11.282 42.0684 11.2817C49.1633 11.2817 55.9251 13.6939 61.3506 18.104C80.2981 6.78763 102.418 0.214355 126.123 0.214355ZM42.0684 25.9263C33.2209 25.9265 26.1262 32.9157 26.126 41.8188C26.126 46.645 28.2966 51.2217 32.0527 54.2173C34.8906 56.547 38.3959 57.7953 42.0684 57.7954C50.916 57.7954 58.0115 50.8061 58.0117 41.9028C58.0117 38.3248 56.8426 34.8296 54.5889 32.0005C54.5056 31.9175 54.5053 31.9176 54.4219 31.8345C51.417 28.0068 46.9931 25.9263 42.0684 25.9263Z" fill="url(#paint0_linear_18837_22865)" fill-opacity="0.2"/>
    </g>
    <defs>
        <linearGradient id="paint0_linear_18837_22865" x1="225.682" y1="18.862" x2="225.826" y2="308.112" gradientUnits="userSpaceOnUse">
            <stop stop-color="#3E9AF8"/>
            <stop offset="1" stop-color="#3E9AF8" stop-opacity="0"/>
        </linearGradient>
        <clipPath id="clip0_18837_22865">
            <rect width="267.103" height="267.103" fill="white" transform="translate(0 0.214355)"/>
        </clipPath>
    </defs>
</svg>
