<svg width="24" height="24" viewBox="0 0 24 24" fill="none" xmlns="http://www.w3.org/2000/svg">
<path fill-rule="evenodd" clip-rule="evenodd" d="M3 12V21H7V15H10V21H21V12L3 12ZM13 15H18V18H13V15Z" fill="#2A7DEC"/>
<path d="M2.10557 7.78885L4.72361 2.55279C4.893 2.214 5.23926 2 5.61803 2H18.382C18.7607 2 19.107 2.214 19.2764 2.55279L21.8944 7.78885C21.9639 7.92771 22 8.08082 22 8.23607V10C22 10.8333 21.5 12 19.5 12C17.5 12 17 10.8333 17 10C17 10.8333 16.5 12 14.5 12C12.5 12 12 10.8333 12 10C12 10.8333 11.5 12 9.5 12C7.5 12 7 10.8333 7 10C7 10.8333 6.5 12 4.5 12C2.5 12 2 10.5556 2 10V8.23607C2 8.08082 2.03614 7.92771 2.10557 7.78885Z" fill="#2A7DEC" stroke="#F9FBFF" stroke-width="2" stroke-linejoin="bevel"/>
</svg>
