<svg width="24" height="24" fill="none" xmlns="http://www.w3.org/2000/svg"><rect x="5" y="1.5" width="19" height="16" rx="5" fill="#D4E5FB"/><path d="M4.5 6H13c4.5 0 6.5 1.212 6.5 6.5v5" stroke="#fff" stroke-linecap="round" stroke-linejoin="round"/><rect y="6.5" width="19" height="16" rx="5" fill="#fff"/><path d="M16.791 11.338c0 .738-.625 1.337-1.396 1.337-.771 0-1.395-.599-1.395-1.337 0-.739.625-1.338 1.395-1.338s1.396.599 1.396 1.338Z" fill="#2A7DEC"/><path fill-rule="evenodd" clip-rule="evenodd" d="M15.234 6.64c-1.007-.14-2.293-.14-3.917-.14H7.683c-1.625 0-2.911 0-3.917.14-1.036.143-1.875.448-2.537 1.132-.66.684-.954 1.551-1.094 2.624C0 11.436 0 12.768 0 14.448v.103c0 1.682 0 3.011.135 4.053.14 1.073.433 1.94 1.094 2.625.661.683 1.501.987 2.537 1.131 1.007.14 2.293.14 3.917.14h3.634c1.625 0 2.911 0 3.917-.14 1.036-.143 1.876-.448 2.537-1.131.66-.684.954-1.553 1.094-2.625.135-1.041.135-2.372.135-4.052v-.103c0-1.681 0-3.011-.135-4.053-.14-1.073-.433-1.94-1.094-2.624-.662-.684-1.501-.988-2.537-1.132ZM3.943 8c-.89.122-1.402.354-1.777.742-.373.386-.598.916-.717 1.836-.095.739-.117 1.66-.122 2.866l.447-.405a2.632 2.632 0 0 1 3.68.127l3.791 3.923a1.077 1.077 0 0 0 1.416.127l.265-.192a3.24 3.24 0 0 1 2.101-.618 3.293 3.293 0 0 1 2.022.875l2.287 2.13a5.05 5.05 0 0 0 .215-.99c.122-.938.124-2.177.124-3.92 0-1.744-.002-2.983-.124-3.923-.12-.92-.344-1.45-.718-1.836-.373-.388-.886-.62-1.775-.743-.909-.127-2.106-.128-3.791-.128H7.733c-1.685 0-2.882.001-3.79.128Z" fill="#2A7DEC"/></svg>