<svg xmlns="http://www.w3.org/2000/svg" xml:space="preserve" viewBox="0 0 16 16" height="16" width="16" version="1.1" y="0px" x="0px"><path d="m8 0-1.4766 1.4785-1.9726-0.6953-0.5508 1.5586h-1.6582v2.0918l-1.8848 0.9023 0.7149 1.4942-1.1719 1.1699 1.4785 1.4824-0.69725 1.9686 1.5606 0.551v1.6562h2.0918l0.9062 1.895 1.4864-0.723 1.1738 1.17 1.4805-1.4766 1.9707 0.69531 0.55274-1.5645h1.6543v-2.09l1.885-0.9-0.715-1.4941 1.172-1.1699-1.479-1.4766 0.696-1.9726-1.561-0.5508v-1.6582h-2.09l-0.906-1.8926-1.4901 0.7207zm0.76758 6.3867h0.7793l0.24219 1.3301c0.071 0.383 0.13841 0.79705 0.19141 1.123h0.00977c0.053-0.349 0.12894-0.73581 0.21094-1.1328l0.27148-1.3203h0.77344l0.25977 1.3594c0.073 0.379 0.12483 0.72208 0.17383 1.0801h0.0078c0.048-0.359 0.11855-0.73714 0.18555-1.1191l0.266-1.3204h0.742l-0.832 3.2246h-0.789l-0.274-1.3886c-0.062-0.325-0.11239-0.62419-0.15039-0.99219h-0.01172c-0.057 0.364-0.10955 0.66719-0.18555 0.99219l-0.308 1.3886h-0.7968zm-5.6465 0.00195h0.85156l0.66797 1.1816c0.192 0.339 0.38434 0.74152 0.52734 1.1035h0.013672c-0.048-0.425-0.0625-0.86175-0.0625-1.3438l0.0019-0.9412h0.668v3.2226h-0.7657l-0.6875-1.2422c-0.192-0.345-0.4035-0.7606-0.5605-1.1386l-0.013672 0.00391c0.019 0.426 0.027344 0.88025 0.027344 1.4062v0.9707h-0.6679zm3.3008 0h1.9883v0.5977h-1.2579v0.66992h1.1875v0.5918h-1.1875v0.76562h1.3262v0.5977h-2.0566z" fill="#83d2fb"/></svg>
