<svg width="200" height="200" viewBox="0 0 200 200" fill="none" xmlns="http://www.w3.org/2000/svg">
    <g clip-path="url(#clip0_15922_44989)">
        <path opacity="0.04" d="M113.282 4.19349C137.029 6.17088 152.461 27.5241 167.643 46.6646C183.352 66.4702 204.931 87.3127 198.99 112.255C193.1 136.982 163.144 141.274 142.044 154.13C116.573 169.65 95.2861 200.096 66.5978 192.923C33.4545 184.635 4.88156 153.943 0.424561 118.716C-3.76706 85.5822 23.85 59.9172 46.8216 36.6068C65.2605 17.8959 87.6319 2.05819 113.282 4.19349ZM57.3233 51.1078C55.134 50.8145 53.1209 52.3514 52.8272 54.5407L41.3968 139.778C41.1032 141.967 42.6404 143.98 44.8297 144.274L130.067 155.704C132.256 155.998 134.269 154.461 134.563 152.271L145.993 67.0343C146.287 64.8448 144.75 62.8317 142.56 62.5381L57.3233 51.1078Z" fill="#2A7DEC"/>
        <path opacity="0.7" d="M126.512 41.5024C127.65 41.655 128.456 42.6559 128.311 43.7379L126.086 60.3296L142.56 62.5387C144.749 62.8323 146.286 64.8453 145.993 67.0349L143.703 84.1125L163.649 86.7873C164.857 86.9493 165.713 88.0023 165.56 89.1403C165.408 90.2786 164.304 91.0705 163.096 90.9086L143.15 88.2338L140.544 107.667L160.434 110.335C161.673 110.501 162.554 111.559 162.401 112.697C162.248 113.835 161.12 114.622 159.882 114.456L139.991 111.789L137.385 131.222L157.243 133.885C158.5 134.054 159.395 135.114 159.243 136.252C159.09 137.39 157.947 138.177 156.69 138.008L136.832 135.345L134.562 152.272C134.268 154.461 132.256 155.998 130.066 155.705L113.593 153.496L111.24 171.04C111.087 172.178 110.04 172.978 108.902 172.825C107.764 172.672 106.966 171.625 107.119 170.487L109.471 152.943L90.0379 150.337L87.6852 167.881C87.5325 169.019 86.4854 169.819 85.3471 169.666C84.209 169.513 83.4095 168.466 83.562 167.328L85.9147 149.784L66.4831 147.178L64.1304 164.722C63.9776 165.86 62.9305 166.66 61.7924 166.507C60.6542 166.355 59.8548 165.308 60.0072 164.169L62.3599 146.625L44.8293 144.274L44.4276 144.199C42.4559 143.728 41.1216 141.831 41.3964 139.778L43.6058 123.303L24.7628 120.776C23.6247 120.623 22.8251 119.578 22.9774 118.44C23.13 117.301 24.1771 116.502 25.3154 116.655L44.1585 119.181L46.7645 99.7479L27.9215 97.221C26.7832 97.0684 25.9837 96.0213 26.1363 94.8829C26.2893 93.745 27.3361 92.9471 28.4741 93.0997L47.3172 95.6266L49.9232 76.1931L31.0802 73.6663C29.9419 73.5136 29.1424 72.4665 29.295 71.3282C29.4477 70.1899 30.4948 69.3904 31.6331 69.543L50.4762 72.0699L52.8268 54.5412C53.102 52.4886 54.8892 51.0104 56.9155 51.0754L57.3229 51.1084L74.8535 53.4592L77.0766 36.8811C77.2227 35.7917 78.2645 35.0323 79.4028 35.185C80.541 35.3377 81.346 36.3447 81.1999 37.434L78.9767 54.0122L98.4083 56.6179L100.631 40.0417C100.777 38.9517 101.819 38.1911 102.958 38.3437C104.096 38.4963 104.901 39.5046 104.754 40.5946L102.532 57.1709L121.965 59.7769L124.19 43.1852C124.335 42.1036 125.375 41.3502 126.512 41.5024ZM45.3609 140.31L130.598 151.74L142.028 66.5032L56.7913 55.0729L45.3609 140.31Z" fill="#2A7DEC"/>
        <path opacity="0.6" d="M84.096 115.252C87.2126 113.604 95.3272 111.976 104.015 117.617C104.493 117.928 104.628 118.567 104.318 119.045C104.007 119.524 103.368 119.661 102.889 119.35C94.8793 114.149 87.5712 115.756 85.0639 117.081C84.5593 117.348 83.9335 117.154 83.6666 116.649C83.3999 116.145 83.5916 115.519 84.096 115.252Z" fill="#2A7DEC"/>
        <circle opacity="0.2" cx="67" cy="35" r="3" fill="#2A7DEC"/>
        <circle opacity="0.2" cx="115" cy="37" r="3" fill="#2A7DEC"/>
        <circle opacity="0.2" cx="177" cy="107" r="3" fill="#2A7DEC"/>
        <circle opacity="0.2" cx="90" cy="22" r="2" fill="#2A7DEC"/>
        <circle opacity="0.2" cx="46" cy="54" r="2" fill="#2A7DEC"/>
        <circle opacity="0.2" cx="20" cy="102" r="2" fill="#2A7DEC"/>
        <circle opacity="0.2" cx="114" cy="18" r="2" fill="#2A7DEC"/>
        <circle opacity="0.2" cx="142" cy="38" r="2" fill="#2A7DEC"/>
        <circle opacity="0.2" cx="156" cy="70" r="2" fill="#2A7DEC"/>
        <path opacity="0.56" d="M111.815 91.6206C116.186 92.2481 119.212 96.3499 118.577 100.781L118.507 101.191C117.687 105.399 113.746 108.274 109.511 107.666C105.277 107.058 102.304 103.192 102.701 98.9224L102.749 98.5095C103.385 94.0788 107.444 90.9936 111.815 91.6206ZM110.138 92.6892C108.031 92.3868 106.073 93.8105 105.651 95.8988C105.059 96.7131 104.65 97.6837 104.496 98.7589C103.996 102.247 106.379 105.434 109.762 105.92C113.146 106.405 116.329 104.018 116.83 100.529C117.312 97.1719 115.123 94.095 111.941 93.4352C111.427 93.0512 110.815 92.7864 110.138 92.6892Z" fill="#2A7DEC"/>
        <path opacity="0.56" d="M80.1562 87.0774C84.5273 87.7045 87.5551 91.8067 86.9193 96.2375L86.8501 96.6476C86.0299 100.856 82.0885 103.731 77.854 103.123C73.62 102.515 70.6471 98.6486 71.0434 94.3794L71.0921 93.9666C71.7278 89.5361 75.7856 86.4509 80.1562 87.0774ZM78.4807 88.1462C76.3735 87.8439 74.4162 89.2677 73.9934 91.3558C73.402 92.1701 72.9931 93.1407 72.8387 94.2159C72.3385 97.7044 74.7213 100.891 78.1051 101.377C81.4891 101.862 84.672 99.4749 85.173 95.9865C85.6546 92.6296 83.4665 89.553 80.2857 88.8924C79.7717 88.508 79.1585 88.2435 78.4807 88.1462Z" fill="#2A7DEC"/>
        <path opacity="0.4" d="M111.815 91.6206C116.186 92.2478 119.214 96.3484 118.579 100.779C117.943 105.21 113.884 108.293 109.513 107.666C105.142 107.039 102.114 102.939 102.75 98.5079C103.386 94.0773 107.445 90.9934 111.815 91.6206ZM110.138 92.6892C107.953 92.3756 105.923 93.9175 105.605 96.1329C105.288 98.3483 106.802 100.399 108.987 100.713C111.172 101.026 113.202 99.4843 113.52 97.2693C113.838 95.0539 112.324 93.0029 110.138 92.6892Z" fill="#2A7DEC"/>
        <path opacity="0.4" d="M80.1582 87.0776C84.529 87.7049 87.5571 91.8055 86.9216 96.2361C86.2858 100.667 82.2269 103.75 77.856 103.123C73.485 102.496 70.4569 98.3958 71.0927 93.9649C71.7286 89.5342 75.7873 86.4505 80.1582 87.0776ZM78.481 88.1463C76.2957 87.8329 74.2663 89.3747 73.9483 91.5899C73.6304 93.8053 75.1444 95.8563 77.3298 96.17C79.5152 96.4836 81.5445 94.9415 81.8626 92.7264C82.1805 90.5109 80.6666 88.4599 78.481 88.1463Z" fill="#2A7DEC"/>
    </g>
    <defs>
        <clipPath id="clip0_15922_44989">
            <rect width="200" height="200" rx="16" fill="white"/>
        </clipPath>
    </defs>
</svg>
