<svg xmlns="http://www.w3.org/2000/svg" height="84.868mm" width="84.868mm" version="1.1" viewBox="0 0 300.71429 300.71429">
 <g transform="translate(-138.21 -290.58)">
  <circle stroke-linejoin="round" stroke-width="15" stroke-linecap="round" stroke="#305680" cy="440.93" cx="288.57" r="142.86" fill="none"/>
  <g fill="#237de0">
   <g transform="matrix(.052891 0 0 -.052891 246.4 395.96)">
    <path d="m1403 1241q17-41-14-70l-493-493v-742q0-42-39-59-13-5-25-5-27 0-45 19l-256 256q-19 19-19 45v486l-493 493q-31 29-14 70 17 39 59 39h1280q42 0 59-39z" fill="#237de0"/>
   </g>
   <g fill-rule="evenodd" transform="matrix(-.74014 -.38191 -.38191 .74014 574.91 534.49)" clip-rule="evenodd">
    <path d="m417.45 156.43c-4.4484-1.1922-5.4565-11.623-1.8074-13.729 1.1962-0.69331 2.1238-1.6767 2.7366-2.8107-0.94913-3.461-4.1878-8.4473-6.0151-10.665-1.3356-0.0622-2.7015 0.24306-3.9447 0.96107-3.9806 2.2999-12.21-3.8515-10.984-8.4298 0.38331-1.4305 0.1809-3.1654-0.13149-4.179-2.2624-1.1699-7.6201-2.7438-11.599-3.1335-0.85748 0.62397-1.8393 2.1326-2.2218 3.5726-1.2982 4.8413-11.571 5.545-13.775 1.7293-0.73555-1.275-2.0903-2.4625-3.0267-2.853-2.574 0.78017-8.1676 4.0228-10.43 5.8948 0.15619 1.3261 0.18648 2.8665 0.94673 4.1814 2.2019 3.8164-3.7614 12.303-8.4704 11.041-1.5492-0.4144-3.1749-0.29645-4.501 0.24943-1.0926 2.4194-2.7462 8.8004-2.9024 11.374 0.31239 0.70208 2.1748 1.9349 3.6642 2.3334 6.4096 1.7181 6.4598 11.118 1.8162 13.799-1.3117 0.75787-2.4354 1.8098-2.9032 3.1366 0.78017 2.496 3.9152 7.9835 5.9434 10.324 1.3261 0.1554 2.8665-0.18489 4.1822-0.94594 4.1472-2.3963 12.441 3.2387 11.04 8.472-0.36419 1.3619-0.16257 2.7948 0.0709 4.1997 3.1207 1.3261 8.7661 3.1916 11.887 3.1136 1.0137-0.93637 1.6393-2.2409 1.9955-3.5726 1.2272-4.5807 11.358-6.0422 13.752-1.8951 0.6686 1.1595 1.605 2.2601 2.6968 2.884 3.2761-0.93637 9.0354-4.1591 10.988-6.1872 0.0765-1.4815-0.48133-2.7191-1.1746-3.9224-2.5876-4.4779 3.457-12.319 8.4274-10.986 1.3611 0.3634 2.8434 0.24067 4.0922-0.0709 1.0918-2.731 2.9024-7.6098 3.2132-11.666-1.0918-1.248-2.1278-1.8337-3.5654-2.2194zm-15.145 3.0259c-3.0339 11.33-14.677 18.051-26.005 15.016-11.327-3.0362-18.048-14.682-15.013-26.011 3.0347-11.329 14.678-18.051 26.004-15.015 11.327 3.0355 18.049 14.679 15.014 26.01z"/>
    <path d="m428.65 92.547c-2.3993-0.0221-4.2661-5.1529-2.6996-6.6906 0.51315-0.50551 0.85302-1.1224 1.0145-1.7743-0.92949-1.6224-3.2126-3.716-4.4232-4.5969-0.68187 0.14257-1.3312 0.4744-1.8648 0.9985-1.7086 1.6786-6.6608-0.35303-6.6387-2.8222 0.007-0.77153-0.32092-1.6204-0.61051-2.091-1.2937-0.29555-4.2014-0.39186-6.2594-0.07031-0.35131 0.42644-0.65016 1.3153-0.6556 2.0915-0.0245 2.6113-5.1152 4.304-6.7236 2.6661-0.53709-0.54744-1.3752-0.97003-1.8984-1.0451-1.1969 0.72876-3.5964 3.0929-4.494 4.3319 0.25147 0.64862 0.46733 1.4218 1.0221 1.9861 1.6077 1.6385-0.29548 6.6961-2.8352 6.6729-0.83548-0.007-1.6402 0.26388-2.2381 0.71193-0.23611 1.3628-0.23938 4.7971 0.017 6.1159 0.24901 0.3135 1.3491 0.6929 2.1523 0.69995 3.4571 0.0321 4.7065 4.7673 2.713 6.7244-0.56303 0.55312-0.9929 1.2301-1.0561 1.9604 0.71858 1.1575 3.0147 3.5176 4.3426 4.4342 0.68919-0.0943 1.422-0.46653 1.9866-1.0218 1.78-1.7489 6.698 0.0137 6.6723 2.8362-0.006 0.73448 0.28192 1.431 0.58263 2.1094 1.747 0.26257 4.8378 0.46856 6.4019 0.0228 0.38943-0.60437 0.53513-1.3439 0.54142-2.0621 0.0226-2.4706 4.9431-4.5272 6.6908-2.7468 0.48828 0.49786 1.104 0.93111 1.736 1.1037 1.5307-0.89898 4.0164-3.2747 4.7373-4.5521-0.1543-0.7573-0.59689-1.309-1.1033-1.8258-1.8884-1.922 0.13981-6.6645 2.8207-6.6396 0.73396 0.006 1.4657-0.24886 2.0551-0.56864 0.19513-1.5199 0.47321-4.2168 0.10179-6.3035-0.71326-0.48738-1.3122-0.64796-2.0876-0.65533zm-7.2459 3.4986c-0.0551 6.1105-5.0533 11.017-11.163 10.961-6.1092-0.0567-11.016-5.0562-10.961-11.166 0.0556-6.1102 5.0538-11.017 11.163-10.961 6.1095 0.05623 11.017 5.0548 10.961 11.166z"/>
    <path d="m472.97 138.55c-3.1258-0.91929-3.6603-8.3139-1.0434-9.7411 0.85787-0.4699 1.5308-1.1496 1.9836-1.9411-0.61207-2.4641-2.8174-6.0461-4.0718-7.646-0.94357-0.0668-1.9148 0.12568-2.8064 0.61225-2.8547 1.5585-8.5695-2.9329-7.6243-6.15 0.29562-1.0051 0.18211-2.2356-0.0215-2.9579-1.5801-0.86611-5.3425-2.0709-8.15-2.4146-0.61715 0.42665-1.3373 1.4768-1.6325 2.4887-1.001 3.4018-8.2788 3.7238-9.7719 0.98744-0.49842-0.91438-1.4363-1.7774-2.0918-2.0696-1.8339 0.50776-5.8455 2.7055-7.4776 3.9907 0.0878 0.94055 0.0829 2.0306 0.59807 2.9736 1.492 2.7369-2.8708 8.637-6.1797 7.6642-1.0886-0.31957-2.2404-0.26399-3.1876 0.0994-0.81412 1.6925-2.0928 6.1772-2.2474 7.995 0.20893 0.5019 1.505 1.4057 2.5516 1.713 4.5039 1.3248 4.3786 7.9737 1.0485 9.7903-0.94071 0.51358-1.7534 1.2384-2.107 2.1688 0.5091 1.7786 2.6325 5.7134 4.027 7.4035 0.9352 0.1326 2.0305-0.0817 2.9741-0.59749 2.9741-1.6239 8.744 2.5034 7.663 6.1808-0.28088 0.95701-0.16282 1.9739-0.0217 2.9715 2.1845 0.99126 6.1453 2.4073 8.3538 2.4055 0.73296-0.64492 1.1977-1.5569 1.4724-2.4926 0.94636-3.2187 8.1368-4.0791 9.759-1.105 0.45304 0.83152 1.0965 1.6259 1.858 2.0859 2.3331-0.60622 6.4616-2.787 7.8772-4.188 0.0796-1.0465-0.29393-1.9313-0.7637-2.7943-1.7535-3.2113 2.6558-8.6534 6.1483-7.626 0.95642 0.2804 2.0069 0.21886 2.8954 0.0199 0.81887-1.9129 2.1829-5.3324 2.4721-8.196-0.75082-0.90132-1.4735-1.3333-2.4837-1.6307zm-10.763 1.881c-2.3396 7.9612-10.689 12.516-18.649 10.176-7.9589-2.3412-12.513-10.692-10.173-18.653 2.3401-7.9606 10.69-12.516 18.649-10.175 7.9595 2.3406 12.515 10.691 10.174 18.653z"/>
   </g>
   <g transform="matrix(.21449 .072238 -.072238 .21449 327.31 413.21)">
    <path fill="#237de0" d="m362.3 125.06c-2.851-2.853-6.092-4.28-9.706-4.287-0.77 0-1.902 0.193-3.432 0.572l-113.06 27.98 48.82-132.19c0.951-1.903 1.431-3.614 1.431-5.139 0-3.234-1.242-6.04-3.713-8.42-2.48-2.383-5.52-3.571-9.14-3.571h-93.645c-3.045 0-5.708 0.855-7.994 2.568-2.284 1.715-3.809 3.905-4.568 6.567l-57.386 235.55c-0.953 4.564 0.284 8.277 3.711 11.135 2.473 2.099 5.421 3.139 8.848 3.139 1.524 0 2.666-0.089 3.427-0.281l115.91-28.838-56.244 230.69c-0.76 3.045-0.333 5.899 1.287 8.562 1.619 2.669 4.047 4.476 7.281 5.427 1.903 0.377 3.239 0.568 3.999 0.568 5.52 0 9.514-2.375 11.991-7.136l154.16-330.32c2.095-4.567 1.434-8.756-1.998-12.561z"/>
   </g>
  </g>
  <g stroke-linejoin="round" stroke="#305680" stroke-linecap="round" stroke-width="15" fill="none">
   <path d="m308.6 427.84 57.074-50.255"/>
   <path d="m267.95 426.42-57.074-50.255"/>
   <path d="m288.52 542.47 0.0158-76.046"/>
  </g>
 </g>
</svg>
