<svg width="28" height="28" viewBox="0 0 28 28" fill="none" xmlns="http://www.w3.org/2000/svg">
<path d="M8 10L20 13V17L19 20V22H10V20L8 18V10Z" fill="#D4E5FB"/>
<path fill-rule="evenodd" clip-rule="evenodd" d="M27.328 18.6781C26.1151 20.779 23.4287 21.4988 21.3278 20.2858C19.9199 19.473 19.1323 17.9985 19.1308 16.482L6.70006 9.30505C5.38586 10.0624 3.71479 10.1176 2.30673 9.30471C0.898724 8.49179 0.111045 7.01706 0.109771 5.50031L2.45385 6.85366C3.50429 7.46014 4.84748 7.10023 5.45396 6.04979C6.06043 4.99935 5.70052 3.65615 4.65008 3.04968L2.306 1.69632C3.62018 0.939049 5.29118 0.883829 6.69919 1.69674C8.10715 2.50963 8.89482 3.9843 8.89615 5.50099L21.3266 12.6777C22.6408 11.9202 24.3121 11.8649 25.7202 12.6779C27.8211 13.8908 28.5409 16.5772 27.328 18.6781ZM25.4262 17.58C24.8197 18.6305 23.4765 18.9904 22.4261 18.3839C21.3756 17.7774 21.0157 16.4342 21.6222 15.3838C22.2287 14.3334 23.5719 13.9734 24.6223 14.5799C25.6727 15.1864 26.0326 16.5296 25.4262 17.58ZM0.701436 3.30025L0.698981 3.3045L0.69653 3.30875L0.701436 3.30025Z" fill="#2A7DEC"/>
<path d="M18 10C18 9.44772 18.4477 9 19 9V9C19.5523 9 20 9.44772 20 10V17L19 20L18 17V10Z" fill="#D4E5FB"/>
<path d="M15 8.5C15 7.67157 15.6716 7 16.5 7V7C17.3284 7 18 7.67157 18 8.5V16.5C18 17.3284 17.3284 18 16.5 18V18C15.6716 18 15 17.3284 15 16.5V8.5Z" fill="#D4E5FB"/>
<path d="M12 7.5C12 6.67157 12.6716 6 13.5 6V6C14.3284 6 15 6.67157 15 7.5V14.5C15 15.3284 14.3284 16 13.5 16V16C12.6716 16 12 15.3284 12 14.5V7.5Z" fill="#D4E5FB"/>
<path d="M9 7.5C9 6.67157 9.67157 6 10.5 6V6C11.3284 6 12 6.67157 12 7.5V14.5C12 15.3284 11.3284 16 10.5 16V16C9.67157 16 9 15.3284 9 14.5V7.5Z" fill="#D4E5FB"/>
<path d="M9 24C9 23.4477 9.44772 23 10 23H19C19.5523 23 20 23.4477 20 24V27C20 27.5523 19.5523 28 19 28H10C9.44771 28 9 27.5523 9 27V24Z" fill="#2A7DEC"/>
</svg>
