<svg width="228" height="140" viewBox="0 0 228 140" fill="none" xmlns="http://www.w3.org/2000/svg">
<path d="M167 89H219V121H167V89Z" fill="#0D2743"/>
<path fill-rule="evenodd" clip-rule="evenodd" d="M163 86.75C163 84.6789 164.679 83 166.75 83H219.25C221.321 83 223 84.6789 223 86.75V91.2502C223 93.3213 221.321 95.0002 219.25 95.0002H166.75C164.679 95.0002 163 93.3213 163 91.2502V86.75Z" fill="#305680"/>
<path fill-rule="evenodd" clip-rule="evenodd" d="M163 118.75C163 116.679 164.679 115 166.75 115H219.25C221.321 115 223 116.679 223 118.75V123.25C223 125.321 221.321 127 219.25 127H166.75C164.679 127 163 125.321 163 123.25C163 121.179 163 118.75 163 118.75Z" fill="#305680"/>
<path fill-rule="evenodd" clip-rule="evenodd" d="M163 102.75C163 100.679 164.679 99 166.75 99H219.25C221.321 99 223 100.679 223 102.75V107.25C223 109.321 221.321 111 219.25 111H166.75C164.679 111 163 109.321 163 107.25L163 102.75Z" fill="#305680"/>
<path d="M175 121C175 120.448 175.448 120 176 120H206C206.552 120 207 120.448 207 121V121C207 121.552 206.552 122 206 122H176C175.448 122 175 121.552 175 121V121Z" fill="white"/>
<path d="M173 89C173 90.1046 172.105 91 171 91C169.895 91 169 90.1046 169 89C169 87.8954 169.895 87 171 87C172.105 87 173 87.8954 173 89Z" fill="white"/>
<path d="M173 121C173 122.105 172.105 123 171 123C169.895 123 169 122.105 169 121C169 119.895 169.895 119 171 119C172.105 119 173 119.895 173 121Z" fill="white"/>
<path d="M211 105C211 106.105 210.105 107 209 107C207.895 107 207 106.105 207 105C207 103.895 207.895 103 209 103C210.105 103 211 103.895 211 105Z" fill="white"/>
<path d="M179 89C179 90.1046 178.105 91 177 91C175.895 91 175 90.1046 175 89C175 87.8954 175.895 87 177 87C178.105 87 179 87.8954 179 89Z" fill="white"/>
<path d="M217 105C217 106.105 216.105 107 215 107C213.895 107 213 106.105 213 105C213 103.895 213.895 103 215 103C216.105 103 217 103.895 217 105Z" fill="white"/>
<path d="M36.8378 31C29.9243 31 23.4522 32.9291 17.9196 36.2489C16.3419 34.9664 14.3596 34.2525 12.297 34.252C12.2967 34.252 12.2964 34.252 12.2961 34.252C7.38354 34.2522 3.35555 38.2802 3.3558 43.1921C3.3558 43.1929 3.3558 43.1938 3.3558 43.1946C3.35821 45.2455 4.06918 47.2118 5.33099 48.7824C1.95991 54.3464 0.000146262 60.8659 0.000146262 67.8338C-0.00316135 68.1164 0.0496604 68.3969 0.155551 68.659C0.261442 68.9211 0.418296 69.1596 0.617026 69.3606C0.815756 69.5617 1.05241 69.7213 1.31328 69.8302C1.57415 69.9392 1.85404 69.9953 2.13675 69.9953C2.41945 69.9953 2.69935 69.9392 2.96022 69.8302C3.22109 69.7213 3.45774 69.5617 3.65647 69.3606C3.8552 69.1596 4.01205 68.9211 4.11795 68.659C4.22384 68.3969 4.27666 68.1164 4.27335 67.8338C4.27335 61.8135 5.91119 56.1968 8.75301 51.3648C9.86605 51.8485 11.062 52.1324 12.292 52.1343C12.293 52.1343 12.2941 52.1343 12.2951 52.1343C17.2079 52.1344 21.2366 48.1064 21.2363 43.1942C21.2363 43.1939 21.2363 43.1936 21.2363 43.1933C21.236 41.9748 20.9588 40.7895 20.4849 39.6845C25.291 36.8856 30.8651 35.2744 36.837 35.2744C37.1196 35.2777 37.4002 35.2249 37.6623 35.119C37.9244 35.0131 38.1629 34.8563 38.364 34.6576C38.5651 34.4589 38.7247 34.2222 38.8337 33.9614C38.9426 33.7006 38.9987 33.4207 38.9987 33.1381C38.9987 32.8554 38.9426 32.5755 38.8337 32.3147C38.7247 32.0539 38.5651 31.8173 38.364 31.6185C38.1629 31.4198 37.9244 31.263 37.6623 31.1571C37.4002 31.0513 37.1196 30.9984 36.837 31.0018L36.8378 31ZM12.2945 38.526C13.7358 38.5265 15.0223 39.1383 15.9108 40.2508C15.9254 40.2684 15.9402 40.2859 15.9553 40.3031C16.6065 41.1268 16.9627 42.1439 16.963 43.1943C16.9627 45.7965 14.8989 47.86 12.2966 47.861C11.2314 47.859 10.2001 47.4933 9.37163 46.8241C9.37062 46.8233 9.36961 46.8226 9.3686 46.8219C8.26831 45.9364 7.62924 44.6046 7.62719 43.1922C7.6278 40.59 9.69179 38.5265 12.2945 38.526L12.2945 38.526Z" fill="#305680"/>
<path fill-rule="evenodd" clip-rule="evenodd" d="M16.3292 56.0621C15.9655 56.4418 15.7524 56.9663 15.7789 57.5417C15.8023 58.0401 16.0015 58.5216 16.3486 58.8865C18.0073 60.5574 21.278 63.8152 21.278 63.8152L24.165 60.932C24.165 60.932 21.0028 57.7732 19.247 56.016C18.8561 55.6181 18.333 55.452 17.7816 55.4495C17.2068 55.4468 16.6927 55.682 16.329 56.0618L16.3292 56.0621ZM24.1651 60.9323L15.2343 69.8618C14.2653 70.8309 14.2653 72.4016 15.2343 73.3706L19.6598 77.7956L27.3996 85.5344L34.8287 92.9624C35.7978 93.9314 37.3691 93.9315 38.3382 92.9624L44.3811 86.9204L53.6226 77.6801L62.5534 68.7505C63.5225 67.7814 63.5224 66.2105 62.5533 65.2414L58.0122 60.701L50.2731 52.9605L42.9581 45.649C41.989 44.6802 40.418 44.6802 39.4488 45.649L33.4062 51.6907L24.1656 60.9301L24.1651 60.9323ZM33.4059 51.6929C33.4059 51.6929 30.2437 48.5341 28.488 46.7769C28.097 46.379 27.574 46.2129 27.0226 46.2104C25.8729 46.2049 24.9667 47.1515 25.0197 48.3023C25.0431 48.8007 25.2423 49.2822 25.5894 49.6471C27.2481 51.318 30.5187 54.5758 30.5187 54.5758L33.4057 51.6926L33.4059 51.6929ZM50.2718 52.9635C50.2718 52.9635 53.4311 49.8017 55.1885 48.0462C55.5864 47.6553 55.7526 47.1323 55.7551 46.581C55.7605 45.4315 54.8138 44.5254 53.6628 44.5784C53.1644 44.6018 52.6829 44.801 52.3179 45.148C50.6468 46.8065 47.3885 50.0767 47.3885 50.0767L50.2721 52.9633L50.2718 52.9635ZM58.0116 60.7022C58.0116 60.7022 61.1709 57.5405 62.9283 55.785C63.3263 55.3941 63.4924 54.8711 63.4949 54.3198C63.5004 53.1702 62.5536 52.2642 61.4027 52.3172C60.9043 52.3406 60.4227 52.5397 60.0577 52.8868C58.3866 54.5453 55.1283 57.8155 55.1283 57.8155L58.0119 60.7021L58.0116 60.7022ZM53.6219 77.6813C53.6219 77.6813 56.7841 80.8402 58.5403 82.5969C58.9313 82.9947 59.4543 83.1609 60.0058 83.1634C61.1554 83.1688 62.0616 82.2222 62.0086 81.0714L62.0082 81.0719C61.9847 80.5736 61.7853 80.0918 61.4382 79.7269C59.7795 78.056 56.5091 74.7985 56.5091 74.7985L53.6221 77.6817L53.6219 77.6813ZM44.3803 86.9216C44.3803 86.9216 47.5425 90.0805 49.2987 91.8372C49.6897 92.235 50.2128 92.4012 50.7642 92.4037C51.9138 92.4093 52.82 91.4625 52.7671 90.3117H52.7666C52.7431 89.8134 52.544 89.3318 52.1969 88.967C50.5381 87.296 47.2675 84.0383 47.2675 84.0383L44.3805 86.9214L44.3803 86.9216ZM27.3989 85.5356C27.3989 85.5356 24.2396 88.6974 22.4827 90.4533C22.0848 90.8443 21.9186 91.3672 21.9161 91.9186C21.9106 93.0681 22.8574 93.9742 24.0083 93.9212H24.0079C24.5063 93.8978 24.9879 93.6986 25.3528 93.3515C27.024 91.6931 30.2822 88.4228 30.2822 88.4228L27.4011 85.5372L27.3989 85.5356ZM19.6615 77.8C19.6615 77.8 16.5022 80.9618 14.7453 82.7177C14.3474 83.1087 14.1812 83.6316 14.1787 84.183C14.1732 85.3325 15.12 86.2385 16.2709 86.1856H16.2705C16.7689 86.1621 17.2505 85.963 17.6154 85.616C19.2866 83.9575 22.5448 80.6873 22.5448 80.6873L19.6615 77.7992L19.6615 77.8ZM40.9256 55.7304C41.335 55.3145 41.8926 55.0821 42.4606 55.0904C42.8659 55.0962 43.2535 55.2245 43.5727 55.4583L47.5943 58.4073C48.3746 58.9671 48.6046 60.0302 48.1381 60.9205C47.6716 61.8108 46.6455 62.2669 45.7126 61.9984L47.2054 67.835C47.4766 68.8955 46.8241 70.0206 45.7469 70.3494L34.8654 73.6715L36.8752 81.442C37.1611 82.5069 36.5092 83.6463 35.4238 83.9784C34.3384 84.3104 33.236 83.7077 32.9697 82.6368L30.4635 72.9443C30.1889 71.8828 30.8411 70.7546 31.9201 70.4248L42.8063 67.1012L41.8016 63.173C41.128 63.9198 40.0384 64.1011 39.2212 63.6023C38.4039 63.1034 38.0964 62.0694 38.4933 61.1536L40.4718 56.4124C40.5774 56.1595 40.732 55.9276 40.9258 55.7306L40.9256 55.7304Z" fill="#305680"/>
<path d="M41.1625 109C48.076 109 54.5481 107.07 60.081 103.75C61.6587 105.033 63.641 105.747 65.7037 105.747C65.704 105.747 65.7043 105.747 65.7046 105.747C70.6174 105.747 74.6454 101.719 74.6452 96.8073C74.6452 96.8064 74.6452 96.8055 74.6452 96.8046C74.6427 94.7537 73.9318 92.7871 72.67 91.2169C76.0398 85.6552 77.9998 79.1353 77.9998 72.1674C78.0034 71.8846 77.9508 71.6039 77.845 71.3415C77.7392 71.0792 77.5824 70.8405 77.3837 70.6392C77.1849 70.438 76.9482 70.2782 76.6872 70.1691C76.4262 70.0601 76.1461 70.0039 75.8632 70.0039C75.5804 70.0039 75.3003 70.0601 75.0393 70.1691C74.7783 70.2782 74.5415 70.438 74.3428 70.6392C74.144 70.8405 73.9872 71.0792 73.8815 71.3415C73.7757 71.6039 73.7231 71.8846 73.7266 72.1674C73.7266 78.188 72.0888 83.8047 69.247 88.6366C68.1339 88.1529 66.938 87.869 65.7079 87.8671C65.7069 87.8671 65.7059 87.8671 65.7049 87.8671C60.7921 87.867 56.7634 91.8951 56.7636 96.8072C56.7641 98.0256 57.0412 99.2109 57.5151 100.316C52.7091 103.115 47.1347 104.726 41.1628 104.726C40.8799 104.722 40.5992 104.775 40.3368 104.881C40.0745 104.987 39.8357 105.143 39.6344 105.342C39.4332 105.541 39.2733 105.778 39.1643 106.039C39.0552 106.3 38.999 106.58 38.999 106.862C38.999 107.145 39.0552 107.425 39.1643 107.686C39.2733 107.947 39.4332 108.184 39.6344 108.383C39.8357 108.581 40.0745 108.738 40.3368 108.844C40.5992 108.95 40.8799 109.002 41.1628 108.999L41.1625 109ZM65.7058 101.475C64.2645 101.475 62.978 100.862 62.0896 99.75C62.075 99.7323 62.0602 99.7149 62.045 99.6977C61.3939 98.8739 61.0377 97.8568 61.0373 96.8064C61.0378 94.2043 63.1015 92.1407 65.7037 92.1397C66.7689 92.1417 67.8003 92.5074 68.6287 93.1767C68.6297 93.1774 68.6308 93.1781 68.6318 93.1789C69.7321 94.0643 70.3711 95.3962 70.3732 96.8086C70.3725 99.4107 68.3086 101.475 65.7058 101.475V101.475Z" fill="#305680"/>
<path fill-rule="evenodd" clip-rule="evenodd" d="M165.906 29.3423C167.507 20.049 175.705 13 185.5 13C190.333 13 194.886 14.7121 198.46 17.7944C200.299 17.075 202.253 16.7 204.25 16.7C211.956 16.7 218.455 22.0837 220.018 29.3038C224.704 31.6281 228 36.421 228 41.9C228 49.7582 221.404 56 213.625 56H172.375C164.596 56 158 49.7582 158 41.9C158 36.4484 161.264 31.6797 165.906 29.3423ZM185.5 19C178.162 19 172.184 24.6234 171.661 31.6477L171.514 33.6175L169.647 34.2613C166.316 35.4094 164 38.5204 164 41.9C164 46.2836 167.747 50 172.375 50H213.625C218.253 50 222 46.2836 222 41.9C222 38.5172 219.681 35.4025 216.343 34.2573L214.515 33.6301L214.33 31.7061C213.849 26.6965 209.536 22.7 204.25 22.7C202.539 22.7 200.869 23.1416 199.343 24.0014L197.28 25.1629L195.671 23.4274C193.045 20.5956 189.422 19 185.5 19Z" fill="#305680"/>
<path fill-rule="evenodd" clip-rule="evenodd" d="M165.906 29.3423C167.507 20.049 175.705 13 185.5 13C190.333 13 194.886 14.7121 198.46 17.7944C200.299 17.075 202.253 16.7 204.25 16.7C211.956 16.7 218.455 22.0837 220.018 29.3038C224.704 31.6281 228 36.421 228 41.9C228 49.7582 221.404 56 213.625 56H172.375C164.596 56 158 49.7582 158 41.9C158 36.4484 161.264 31.6797 165.906 29.3423ZM185.5 19C178.162 19 172.184 24.6234 171.661 31.6477L171.514 33.6175L169.647 34.2613C166.316 35.4094 164 38.5204 164 41.9C164 46.2836 167.747 50 172.375 50H213.625C218.253 50 222 46.2836 222 41.9C222 38.5172 219.681 35.4025 216.343 34.2573L214.515 33.6301L214.33 31.7061C213.849 26.6965 209.536 22.7 204.25 22.7C202.539 22.7 200.869 23.1416 199.343 24.0014L197.28 25.1629L195.671 23.4274C193.045 20.5956 189.422 19 185.5 19Z" fill="#4CA1EF"/>
<path fill-rule="evenodd" clip-rule="evenodd" d="M121 60H115V67L108 67V73H115V80H121V73H128V67L121 67V60Z" fill="#BFCAD6"/>
</svg>
