<svg width="60" height="60" viewBox="0 0 60 60" fill="none" xmlns="http://www.w3.org/2000/svg">
<path fill-rule="evenodd" clip-rule="evenodd" d="M31.1395 6.02635L31.4744 5.44631C33.1312 2.57656 36.8008 1.59331 39.6705 3.25016L48.3308 8.25016C51.2005 9.90702 52.1838 13.5766 50.5269 16.4463L50.1931 17.0245C50.6037 17.6625 50.9851 18.3214 51.3352 18.9993H52C55.3137 18.9993 58 21.6856 58 24.9993V34.9993C58 38.313 55.3137 40.9993 52 40.9993H51.3356C50.9855 41.6772 50.6042 42.3361 50.1936 42.9741L50.5269 43.5514C52.1838 46.4212 51.2005 50.0907 48.3308 51.7476L39.6705 56.7476C36.8008 58.4044 33.1312 57.4212 31.4744 54.5514L31.1404 53.973C30.7622 53.9907 30.382 53.9997 30 53.9997C29.6184 53.9997 29.2386 53.9908 28.8609 53.9731L28.5269 54.5514C26.8701 57.4212 23.2005 58.4044 20.3308 56.7476L11.6705 51.7476C8.80077 50.0907 7.81752 46.4212 9.47438 43.5514L9.80708 42.9752C9.39623 42.3369 9.01467 41.6776 8.66437 40.9993H8C4.6863 40.9993 2 38.313 2 34.9993V24.9993C2 21.6856 4.68629 18.9993 8 18.9993H8.66477C9.0151 18.321 9.39669 17.6617 9.80758 17.0234L9.47437 16.4463C7.81752 13.5766 8.80077 9.90702 11.6705 8.25016L20.3308 3.25016C23.2005 1.59331 26.8701 2.57656 28.5269 5.44632L28.8618 6.02629C29.2392 6.00861 29.6187 5.99969 30 5.99969C30.3817 5.99969 30.7616 6.00863 31.1395 6.02635ZM34.0002 9.07146C33.5833 9.79349 32.763 10.1715 31.9331 10.0919C31.297 10.0309 30.6521 9.99969 30 9.99969C29.3483 9.99969 28.7038 10.0309 28.068 10.0918C27.2381 10.1714 26.4179 9.79333 26.001 9.07134L25.0628 7.44632C24.5105 6.48973 23.2874 6.16198 22.3308 6.71427L13.6705 11.7143C12.7139 12.2666 12.3862 13.4897 12.9385 14.4463L13.8763 16.0707C14.2939 16.7939 14.2101 17.6948 13.7242 18.3739C12.977 19.418 12.3279 20.537 11.7901 21.7174C11.4442 22.4768 10.7062 22.9993 9.87167 22.9993H8C6.89543 22.9993 6 23.8947 6 24.9993V34.9993C6 36.1039 6.89543 36.9993 8 36.9993H9.87132C10.7059 36.9993 11.4439 37.5218 11.7898 38.2813C12.3275 39.4617 12.9766 40.5807 13.7237 41.6248C14.2096 42.3039 14.2933 43.2048 13.8758 43.9279L12.9385 45.5514C12.3862 46.508 12.7139 47.7312 13.6705 48.2835L22.3308 53.2835C23.2874 53.8358 24.5105 53.508 25.0628 52.5514L26.0001 50.928C26.417 50.2059 27.2373 49.8279 28.0672 49.9075C28.7033 49.9685 29.348 49.9997 30 49.9997C30.6524 49.9997 31.2975 49.9685 31.9339 49.9074C32.7638 49.8278 33.5842 50.2058 34.0011 50.9278L34.9385 52.5514C35.4908 53.508 36.7139 53.8358 37.6705 53.2835L46.3308 48.2835C47.2874 47.7312 47.6151 46.508 47.0628 45.5514L46.1249 43.9269C45.7074 43.2038 45.7911 42.303 46.277 41.6239C47.0238 40.5801 47.6726 39.4614 48.2102 38.2813C48.5561 37.5218 49.2941 36.9993 50.1287 36.9993H52C53.1046 36.9993 54 36.1039 54 34.9993V24.9993C54 23.8947 53.1046 22.9993 52 22.9993H50.1283C49.2938 22.9993 48.5558 22.4768 48.2099 21.7174C47.6723 20.5373 47.0233 19.4186 46.2765 18.3748C45.7906 17.6957 45.7069 16.7949 46.1244 16.0718L47.0628 14.4463C47.6151 13.4897 47.2874 12.2665 46.3308 11.7143L37.6705 6.71426C36.7139 6.16198 35.4908 6.48973 34.9385 7.44631L34.0002 9.07146Z" fill="#0D2743"/>
<path fill-rule="evenodd" clip-rule="evenodd" d="M30 44C37.732 44 44 37.732 44 30C44 22.268 37.732 16 30 16C22.268 16 16 22.268 16 30C16 37.732 22.268 44 30 44ZM30 36C33.3137 36 36 33.3137 36 30C36 26.6863 33.3137 24 30 24C26.6863 24 24 26.6863 24 30C24 33.3137 26.6863 36 30 36Z" fill="#305680"/>
</svg>
