<svg width="715" height="230" viewBox="0 0 715 230" fill="none" xmlns="http://www.w3.org/2000/svg">
<path fill-rule="evenodd" clip-rule="evenodd" d="M152 24L121 24L121 27L152 27L152 24Z" fill="#7B8C9E"/>
<path d="M156.604 24.6467C157.242 25.0366 157.242 25.9634 156.604 26.3533L150.521 30.0702C149.855 30.4774 149 29.9979 149 29.2169L149 21.7831C149 21.0021 149.855 20.5226 150.521 20.9298L156.604 24.6467Z" fill="#7B8C9E"/>
<path fill-rule="evenodd" clip-rule="evenodd" d="M531 24L365 24L365 27L531 27L531 24Z" fill="#7B8C9E"/>
<path d="M535.604 24.6467C536.242 25.0366 536.242 25.9634 535.604 26.3533L529.521 30.0702C528.855 30.4774 528 29.9979 528 29.2169L528 21.7831C528 21.0021 528.855 20.5226 529.521 20.9298L535.604 24.6467Z" fill="#7B8C9E"/>
<path d="M535.604 204.647C536.242 205.037 536.242 205.963 535.604 206.353L529.521 210.07C528.855 210.477 528 209.998 528 209.217L528 201.783C528 201.002 528.855 200.523 529.521 200.93L535.604 204.647Z" fill="#7B8C9E"/>
<path fill-rule="evenodd" clip-rule="evenodd" d="M529.241 207L529.5 207L529.5 204C490.381 204 449.786 203.949 418.874 181.781C388.087 159.702 366.5 115.32 366.5 25.5L363.5 25.5C363.5 115.679 385.163 161.297 417.126 184.219C448.893 207 490.434 207 529.241 207Z" fill="#7B8C9E"/>
<path d="M535.604 114.647C536.242 115.037 536.242 115.963 535.604 116.353L529.521 120.07C528.855 120.477 528 119.998 528 119.217L528 111.783C528 111.002 528.855 110.523 529.521 110.93L535.604 114.647Z" fill="#7B8C9E"/>
<path fill-rule="evenodd" clip-rule="evenodd" d="M530.5 115.5C530.5 114.672 529.828 114 529 114C490.166 114 449.46 113.982 418.445 102.839C402.983 97.2833 390.031 88.9941 380.934 76.6419C371.843 64.2967 366.5 47.7532 366.5 25.5C366.5 24.6716 365.828 24 365 24C364.172 24 363.5 24.6716 363.5 25.5C363.5 48.2469 368.969 65.4536 378.519 78.4209C388.063 91.3813 401.58 99.9671 417.43 105.662C448.989 117 490.199 117 528.811 117L529 117C529.828 117 530.5 116.329 530.5 115.5Z" fill="#7B8C9E"/>
<rect x="165.5" y="0.5" width="197" height="49" rx="4.5" fill="white"/>
<rect x="165.5" y="0.5" width="197" height="49" rx="4.5" fill="#305680" fill-opacity="0.78"/>
<path d="M189 31H193V29H189V31ZM182 19V21H200V19H182ZM185 26H197V24H185V26Z" fill="white"/>
<path d="M212.993 14.1318L213.025 14.8936C213.528 14.3011 214.208 14.0049 215.062 14.0049C216.023 14.0049 216.677 14.373 217.024 15.1094C217.252 14.7793 217.549 14.5127 217.913 14.3096C218.281 14.1064 218.715 14.0049 219.214 14.0049C220.72 14.0049 221.486 14.8026 221.512 16.3979V21H220.337V16.4678C220.337 15.9769 220.225 15.6108 220.001 15.3696C219.777 15.1242 219.4 15.0015 218.871 15.0015C218.435 15.0015 218.073 15.1326 217.786 15.395C217.498 15.6532 217.331 16.0023 217.284 16.4424V21H216.104V16.4995C216.104 15.5008 215.615 15.0015 214.637 15.0015C213.867 15.0015 213.34 15.3294 213.057 15.9854V21H211.882V14.1318H212.993ZM226.139 21.127C225.208 21.127 224.451 20.8223 223.867 20.2129C223.283 19.5993 222.991 18.7804 222.991 17.7563V17.5405C222.991 16.8592 223.12 16.252 223.378 15.7188C223.64 15.1813 224.004 14.7624 224.47 14.4619C224.939 14.1572 225.447 14.0049 225.993 14.0049C226.886 14.0049 227.58 14.299 228.075 14.8872C228.57 15.4754 228.818 16.3175 228.818 17.4136V17.9023H224.165C224.182 18.5794 224.379 19.1274 224.755 19.5464C225.136 19.9611 225.619 20.1685 226.203 20.1685C226.617 20.1685 226.969 20.0838 227.256 19.9146C227.544 19.7453 227.796 19.521 228.012 19.2417L228.729 19.8003C228.153 20.6847 227.29 21.127 226.139 21.127ZM225.993 14.9697C225.519 14.9697 225.121 15.1432 224.8 15.4902C224.478 15.833 224.279 16.3154 224.203 16.9375H227.644V16.8486C227.61 16.252 227.449 15.7907 227.161 15.4648C226.873 15.1348 226.484 14.9697 225.993 14.9697ZM234.182 19.1782C234.182 18.8608 234.061 18.6154 233.82 18.4419C233.583 18.2642 233.166 18.1118 232.569 17.9849C231.977 17.8579 231.505 17.7056 231.154 17.5278C230.807 17.3501 230.549 17.1385 230.379 16.8931C230.214 16.6476 230.132 16.3556 230.132 16.0171C230.132 15.4543 230.369 14.9782 230.843 14.5889C231.321 14.1995 231.93 14.0049 232.671 14.0049C233.45 14.0049 234.08 14.2059 234.562 14.6079C235.049 15.0099 235.292 15.5241 235.292 16.1504H234.112C234.112 15.8288 233.974 15.5516 233.699 15.3188C233.428 15.0861 233.086 14.9697 232.671 14.9697C232.243 14.9697 231.909 15.0628 231.668 15.249C231.427 15.4352 231.306 15.6785 231.306 15.979C231.306 16.2625 231.418 16.4762 231.643 16.6201C231.867 16.764 232.271 16.9015 232.855 17.0327C233.443 17.1639 233.919 17.3205 234.283 17.5024C234.647 17.6844 234.916 17.9045 235.089 18.1626C235.267 18.4165 235.356 18.7275 235.356 19.0957C235.356 19.7093 235.111 20.2023 234.62 20.5747C234.129 20.9429 233.492 21.127 232.709 21.127C232.159 21.127 231.672 21.0296 231.249 20.835C230.826 20.6403 230.494 20.3695 230.252 20.0225C230.015 19.6712 229.897 19.2925 229.897 18.8862H231.071C231.092 19.2798 231.249 19.5929 231.541 19.8257C231.837 20.0542 232.227 20.1685 232.709 20.1685C233.153 20.1685 233.509 20.0796 233.775 19.9019C234.046 19.7199 234.182 19.4787 234.182 19.1782ZM240.885 19.1782C240.885 18.8608 240.764 18.6154 240.523 18.4419C240.286 18.2642 239.869 18.1118 239.272 17.9849C238.68 17.8579 238.208 17.7056 237.857 17.5278C237.51 17.3501 237.252 17.1385 237.083 16.8931C236.917 16.6476 236.835 16.3556 236.835 16.0171C236.835 15.4543 237.072 14.9782 237.546 14.5889C238.024 14.1995 238.633 14.0049 239.374 14.0049C240.153 14.0049 240.783 14.2059 241.266 14.6079C241.752 15.0099 241.996 15.5241 241.996 16.1504H240.815C240.815 15.8288 240.677 15.5516 240.402 15.3188C240.132 15.0861 239.789 14.9697 239.374 14.9697C238.947 14.9697 238.612 15.0628 238.371 15.249C238.13 15.4352 238.009 15.6785 238.009 15.979C238.009 16.2625 238.121 16.4762 238.346 16.6201C238.57 16.764 238.974 16.9015 239.558 17.0327C240.146 17.1639 240.622 17.3205 240.986 17.5024C241.35 17.6844 241.619 17.9045 241.792 18.1626C241.97 18.4165 242.059 18.7275 242.059 19.0957C242.059 19.7093 241.814 20.2023 241.323 20.5747C240.832 20.9429 240.195 21.127 239.412 21.127C238.862 21.127 238.375 21.0296 237.952 20.835C237.529 20.6403 237.197 20.3695 236.956 20.0225C236.719 19.6712 236.6 19.2925 236.6 18.8862H237.774C237.796 19.2798 237.952 19.5929 238.244 19.8257C238.54 20.0542 238.93 20.1685 239.412 20.1685C239.856 20.1685 240.212 20.0796 240.479 19.9019C240.749 19.7199 240.885 19.4787 240.885 19.1782ZM247.829 21C247.761 20.8646 247.706 20.6234 247.664 20.2764C247.118 20.8434 246.466 21.127 245.709 21.127C245.032 21.127 244.475 20.9365 244.04 20.5557C243.608 20.1706 243.392 19.6839 243.392 19.0957C243.392 18.3805 243.663 17.8262 244.205 17.4326C244.75 17.0348 245.516 16.8359 246.502 16.8359H247.645V16.2964C247.645 15.8859 247.522 15.5601 247.277 15.3188C247.031 15.0734 246.67 14.9507 246.191 14.9507C245.772 14.9507 245.421 15.0565 245.138 15.2681C244.854 15.4797 244.712 15.7357 244.712 16.0361H243.532C243.532 15.6934 243.652 15.3633 243.894 15.0459C244.139 14.7243 244.469 14.4704 244.884 14.2842C245.303 14.098 245.762 14.0049 246.261 14.0049C247.053 14.0049 247.673 14.2038 248.121 14.6016C248.57 14.9951 248.802 15.5389 248.819 16.2329V19.394C248.819 20.0246 248.9 20.526 249.061 20.8984V21H247.829ZM245.88 20.105C246.249 20.105 246.598 20.0098 246.928 19.8193C247.258 19.6289 247.497 19.3813 247.645 19.0767V17.6675H246.725C245.286 17.6675 244.566 18.0885 244.566 18.9307C244.566 19.2988 244.689 19.5866 244.935 19.7939C245.18 20.0013 245.495 20.105 245.88 20.105ZM250.381 17.5088C250.381 16.4382 250.628 15.5876 251.124 14.957C251.619 14.3223 252.275 14.0049 253.091 14.0049C253.929 14.0049 254.583 14.3011 255.053 14.8936L255.11 14.1318H256.183V20.835C256.183 21.7236 255.918 22.424 255.389 22.936C254.864 23.4481 254.158 23.7041 253.269 23.7041C252.774 23.7041 252.289 23.5983 251.815 23.3867C251.341 23.1751 250.98 22.8853 250.73 22.5171L251.339 21.8125C251.843 22.4346 252.459 22.7456 253.187 22.7456C253.758 22.7456 254.202 22.5848 254.52 22.2632C254.841 21.9416 255.002 21.4888 255.002 20.9048V20.3145C254.532 20.8561 253.891 21.127 253.079 21.127C252.275 21.127 251.623 20.8032 251.124 20.1558C250.628 19.5083 250.381 18.626 250.381 17.5088ZM251.562 17.6421C251.562 18.4165 251.72 19.0259 252.038 19.4702C252.355 19.9103 252.799 20.1304 253.371 20.1304C254.111 20.1304 254.655 19.7939 255.002 19.1211V15.9854C254.642 15.3294 254.103 15.0015 253.383 15.0015C252.812 15.0015 252.366 15.2236 252.044 15.668C251.722 16.1123 251.562 16.7703 251.562 17.6421ZM260.81 21.127C259.879 21.127 259.122 20.8223 258.538 20.2129C257.954 19.5993 257.662 18.7804 257.662 17.7563V17.5405C257.662 16.8592 257.791 16.252 258.049 15.7188C258.311 15.1813 258.675 14.7624 259.141 14.4619C259.61 14.1572 260.118 14.0049 260.664 14.0049C261.557 14.0049 262.251 14.299 262.746 14.8872C263.241 15.4754 263.489 16.3175 263.489 17.4136V17.9023H258.836C258.853 18.5794 259.05 19.1274 259.426 19.5464C259.807 19.9611 260.29 20.1685 260.874 20.1685C261.288 20.1685 261.639 20.0838 261.927 19.9146C262.215 19.7453 262.467 19.521 262.683 19.2417L263.4 19.8003C262.824 20.6847 261.961 21.127 260.81 21.127ZM260.664 14.9697C260.19 14.9697 259.792 15.1432 259.471 15.4902C259.149 15.833 258.95 16.3154 258.874 16.9375H262.314V16.8486C262.281 16.252 262.12 15.7907 261.832 15.4648C261.544 15.1348 261.155 14.9697 260.664 14.9697ZM269.671 12.4688V14.1318H270.954V15.0396H269.671V19.2988C269.671 19.5739 269.729 19.7812 269.843 19.9209C269.957 20.0563 270.152 20.124 270.427 20.124C270.562 20.124 270.748 20.0986 270.985 20.0479V21C270.676 21.0846 270.376 21.127 270.084 21.127C269.559 21.127 269.164 20.9683 268.897 20.6509C268.63 20.3335 268.497 19.8828 268.497 19.2988V15.0396H267.247V14.1318H268.497V12.4688H269.671ZM274.578 19.2798L276.178 14.1318H277.435L274.673 22.0601C274.246 23.2026 273.567 23.7739 272.636 23.7739L272.414 23.7549L271.976 23.6724V22.7202L272.293 22.7456C272.691 22.7456 273 22.6652 273.22 22.5044C273.444 22.3436 273.628 22.0495 273.772 21.6221L274.032 20.9238L271.582 14.1318H272.864L274.578 19.2798ZM284.29 17.6421C284.29 18.6873 284.051 19.5295 283.573 20.1685C283.095 20.8075 282.447 21.127 281.63 21.127C280.797 21.127 280.141 20.8625 279.663 20.3335V23.6406H278.488V14.1318H279.561L279.618 14.8936C280.096 14.3011 280.761 14.0049 281.611 14.0049C282.437 14.0049 283.088 14.3159 283.566 14.938C284.049 15.5601 284.29 16.4255 284.29 17.5342V17.6421ZM283.116 17.5088C283.116 16.7344 282.951 16.1229 282.621 15.6743C282.291 15.2257 281.838 15.0015 281.262 15.0015C280.551 15.0015 280.018 15.3167 279.663 15.9473V19.229C280.014 19.8553 280.551 20.1685 281.275 20.1685C281.838 20.1685 282.284 19.9463 282.614 19.502C282.949 19.0534 283.116 18.389 283.116 17.5088ZM288.638 21.127C287.707 21.127 286.95 20.8223 286.366 20.2129C285.782 19.5993 285.49 18.7804 285.49 17.7563V17.5405C285.49 16.8592 285.619 16.252 285.877 15.7188C286.139 15.1813 286.503 14.7624 286.969 14.4619C287.438 14.1572 287.946 14.0049 288.492 14.0049C289.385 14.0049 290.079 14.299 290.574 14.8872C291.069 15.4754 291.317 16.3175 291.317 17.4136V17.9023H286.664C286.681 18.5794 286.878 19.1274 287.254 19.5464C287.635 19.9611 288.118 20.1685 288.702 20.1685C289.116 20.1685 289.468 20.0838 289.755 19.9146C290.043 19.7453 290.295 19.521 290.511 19.2417L291.228 19.8003C290.653 20.6847 289.789 21.127 288.638 21.127ZM288.492 14.9697C288.018 14.9697 287.62 15.1432 287.299 15.4902C286.977 15.833 286.778 16.3154 286.702 16.9375H290.143V16.8486C290.109 16.252 289.948 15.7907 289.66 15.4648C289.372 15.1348 288.983 14.9697 288.492 14.9697ZM299.905 19.1782C299.905 18.8608 299.785 18.6154 299.543 18.4419C299.306 18.2642 298.89 18.1118 298.293 17.9849C297.701 17.8579 297.229 17.7056 296.877 17.5278C296.53 17.3501 296.272 17.1385 296.103 16.8931C295.938 16.6476 295.855 16.3556 295.855 16.0171C295.855 15.4543 296.092 14.9782 296.566 14.5889C297.045 14.1995 297.654 14.0049 298.395 14.0049C299.173 14.0049 299.804 14.2059 300.286 14.6079C300.773 15.0099 301.016 15.5241 301.016 16.1504H299.835C299.835 15.8288 299.698 15.5516 299.423 15.3188C299.152 15.0861 298.809 14.9697 298.395 14.9697C297.967 14.9697 297.633 15.0628 297.392 15.249C297.15 15.4352 297.03 15.6785 297.03 15.979C297.03 16.2625 297.142 16.4762 297.366 16.6201C297.59 16.764 297.995 16.9015 298.579 17.0327C299.167 17.1639 299.643 17.3205 300.007 17.5024C300.371 17.6844 300.639 17.9045 300.813 18.1626C300.991 18.4165 301.08 18.7275 301.08 19.0957C301.08 19.7093 300.834 20.2023 300.343 20.5747C299.852 20.9429 299.215 21.127 298.433 21.127C297.882 21.127 297.396 21.0296 296.973 20.835C296.549 20.6403 296.217 20.3695 295.976 20.0225C295.739 19.6712 295.621 19.2925 295.621 18.8862H296.795C296.816 19.2798 296.973 19.5929 297.265 19.8257C297.561 20.0542 297.95 20.1685 298.433 20.1685C298.877 20.1685 299.232 20.0796 299.499 19.9019C299.77 19.7199 299.905 19.4787 299.905 19.1782ZM308.69 19.3813L310.011 14.1318H311.185L309.186 21H308.233L306.564 15.7949L304.939 21H303.987L301.994 14.1318H303.162L304.514 19.2734L306.113 14.1318H307.059L308.69 19.3813ZM313.661 21H312.486V14.1318H313.661V21ZM312.391 12.3101C312.391 12.1196 312.448 11.9588 312.562 11.8276C312.681 11.6965 312.854 11.6309 313.083 11.6309C313.312 11.6309 313.485 11.6965 313.604 11.8276C313.722 11.9588 313.781 12.1196 313.781 12.3101C313.781 12.5005 313.722 12.6592 313.604 12.7861C313.485 12.9131 313.312 12.9766 313.083 12.9766C312.854 12.9766 312.681 12.9131 312.562 12.7861C312.448 12.6592 312.391 12.5005 312.391 12.3101ZM317.139 12.4688V14.1318H318.421V15.0396H317.139V19.2988C317.139 19.5739 317.196 19.7812 317.311 19.9209C317.425 20.0563 317.619 20.124 317.895 20.124C318.03 20.124 318.216 20.0986 318.453 20.0479V21C318.144 21.0846 317.844 21.127 317.552 21.127C317.027 21.127 316.631 20.9683 316.365 20.6509C316.098 20.3335 315.965 19.8828 315.965 19.2988V15.0396H314.714V14.1318H315.965V12.4688H317.139ZM322.554 20.1685C322.973 20.1685 323.339 20.0415 323.652 19.7876C323.965 19.5337 324.139 19.2163 324.172 18.8354H325.283C325.262 19.229 325.127 19.6035 324.877 19.959C324.627 20.3145 324.293 20.598 323.874 20.8096C323.459 21.0212 323.019 21.127 322.554 21.127C321.618 21.127 320.874 20.8159 320.319 20.1938C319.769 19.5675 319.494 18.7127 319.494 17.6294V17.4326C319.494 16.764 319.617 16.1694 319.862 15.6489C320.108 15.1284 320.459 14.7243 320.916 14.4365C321.377 14.1488 321.921 14.0049 322.547 14.0049C323.318 14.0049 323.957 14.2355 324.464 14.6968C324.976 15.158 325.249 15.7568 325.283 16.4932H324.172C324.139 16.0488 323.969 15.6849 323.665 15.4014C323.364 15.1136 322.992 14.9697 322.547 14.9697C321.951 14.9697 321.487 15.1855 321.157 15.6172C320.831 16.0446 320.668 16.6646 320.668 17.4771V17.6992C320.668 18.4906 320.831 19.0999 321.157 19.5273C321.483 19.9548 321.949 20.1685 322.554 20.1685ZM327.778 14.9634C328.298 14.3244 328.975 14.0049 329.809 14.0049C331.261 14.0049 331.993 14.8237 332.005 16.4614V21H330.831V16.4551C330.827 15.96 330.713 15.5939 330.488 15.3569C330.268 15.12 329.923 15.0015 329.454 15.0015C329.073 15.0015 328.738 15.103 328.451 15.3062C328.163 15.5093 327.939 15.7759 327.778 16.106V21H326.604V11.25H327.778V14.9634Z" fill="white"/>
<path d="M214.021 28.7578L216.688 35.8418L219.347 28.7578H221.423V38H219.823V34.9531L219.982 30.8779L217.252 38H216.104L213.38 30.8843L213.539 34.9531V38H211.939V28.7578H214.021ZM226.203 38.127C225.225 38.127 224.432 37.8201 223.822 37.2065C223.217 36.5887 222.915 35.7677 222.915 34.7437V34.5532C222.915 33.8677 223.046 33.2562 223.308 32.7188C223.575 32.1771 223.947 31.756 224.425 31.4556C224.903 31.1551 225.437 31.0049 226.025 31.0049C226.96 31.0049 227.682 31.3032 228.189 31.8999C228.701 32.4966 228.958 33.3408 228.958 34.4326V35.0547H224.47C224.516 35.6217 224.705 36.0703 225.035 36.4004C225.369 36.7305 225.788 36.8955 226.292 36.8955C226.998 36.8955 227.574 36.6099 228.018 36.0386L228.85 36.832C228.575 37.2425 228.206 37.562 227.745 37.7905C227.288 38.0148 226.774 38.127 226.203 38.127ZM226.019 32.2427C225.595 32.2427 225.253 32.3908 224.99 32.687C224.732 32.9832 224.567 33.3958 224.495 33.9248H227.434V33.8105C227.4 33.2943 227.263 32.9049 227.021 32.6426C226.78 32.376 226.446 32.2427 226.019 32.2427ZM234.01 36.1338C234.01 35.8587 233.896 35.6493 233.667 35.5054C233.443 35.3615 233.069 35.2345 232.544 35.1245C232.019 35.0145 231.581 34.8748 231.23 34.7056C230.46 34.3332 230.075 33.7936 230.075 33.0869C230.075 32.4945 230.324 31.9993 230.824 31.6016C231.323 31.2038 231.958 31.0049 232.728 31.0049C233.549 31.0049 234.211 31.208 234.715 31.6143C235.223 32.0205 235.477 32.5474 235.477 33.1948H233.934C233.934 32.8986 233.824 32.6532 233.604 32.4585C233.384 32.2596 233.092 32.1602 232.728 32.1602C232.389 32.1602 232.112 32.2384 231.896 32.395C231.685 32.5516 231.579 32.7611 231.579 33.0234C231.579 33.2604 231.679 33.4445 231.877 33.5757C232.076 33.7069 232.478 33.8402 233.083 33.9756C233.689 34.1068 234.163 34.2655 234.505 34.4517C234.852 34.6336 235.108 34.8537 235.273 35.1118C235.443 35.37 235.527 35.6831 235.527 36.0513C235.527 36.6691 235.271 37.1706 234.759 37.5557C234.247 37.9365 233.576 38.127 232.747 38.127C232.184 38.127 231.683 38.0254 231.243 37.8223C230.803 37.6191 230.46 37.3398 230.214 36.9844C229.969 36.6289 229.846 36.2459 229.846 35.8354H231.344C231.365 36.1994 231.503 36.4808 231.757 36.6797C232.011 36.8743 232.347 36.9717 232.766 36.9717C233.172 36.9717 233.481 36.8955 233.693 36.7432C233.904 36.5866 234.01 36.3835 234.01 36.1338ZM240.726 36.1338C240.726 35.8587 240.612 35.6493 240.383 35.5054C240.159 35.3615 239.785 35.2345 239.26 35.1245C238.735 35.0145 238.297 34.8748 237.946 34.7056C237.176 34.3332 236.791 33.7936 236.791 33.0869C236.791 32.4945 237.04 31.9993 237.54 31.6016C238.039 31.2038 238.674 31.0049 239.444 31.0049C240.265 31.0049 240.927 31.208 241.431 31.6143C241.938 32.0205 242.192 32.5474 242.192 33.1948H240.65C240.65 32.8986 240.54 32.6532 240.32 32.4585C240.1 32.2596 239.808 32.1602 239.444 32.1602C239.105 32.1602 238.828 32.2384 238.612 32.395C238.401 32.5516 238.295 32.7611 238.295 33.0234C238.295 33.2604 238.394 33.4445 238.593 33.5757C238.792 33.7069 239.194 33.8402 239.799 33.9756C240.404 34.1068 240.878 34.2655 241.221 34.4517C241.568 34.6336 241.824 34.8537 241.989 35.1118C242.159 35.37 242.243 35.6831 242.243 36.0513C242.243 36.6691 241.987 37.1706 241.475 37.5557C240.963 37.9365 240.292 38.127 239.463 38.127C238.9 38.127 238.399 38.0254 237.958 37.8223C237.518 37.6191 237.176 37.3398 236.93 36.9844C236.685 36.6289 236.562 36.2459 236.562 35.8354H238.06C238.081 36.1994 238.219 36.4808 238.473 36.6797C238.727 36.8743 239.063 36.9717 239.482 36.9717C239.888 36.9717 240.197 36.8955 240.409 36.7432C240.62 36.5866 240.726 36.3835 240.726 36.1338ZM247.696 38C247.628 37.8688 247.569 37.6551 247.518 37.3589C247.027 37.8709 246.426 38.127 245.715 38.127C245.026 38.127 244.463 37.9302 244.027 37.5366C243.591 37.1431 243.373 36.6564 243.373 36.0767C243.373 35.3446 243.644 34.7839 244.186 34.3945C244.731 34.001 245.51 33.8042 246.521 33.8042H247.467V33.3535C247.467 32.998 247.368 32.7145 247.169 32.5029C246.97 32.2871 246.667 32.1792 246.261 32.1792C245.91 32.1792 245.622 32.2681 245.398 32.4458C245.174 32.6193 245.062 32.8415 245.062 33.1123H243.519C243.519 32.7357 243.644 32.3844 243.894 32.0586C244.143 31.7285 244.482 31.4704 244.909 31.2842C245.341 31.098 245.821 31.0049 246.35 31.0049C247.154 31.0049 247.795 31.208 248.273 31.6143C248.752 32.0163 248.997 32.5833 249.01 33.3154V36.4131C249.01 37.0309 249.097 37.5239 249.27 37.8921V38H247.696ZM246.001 36.8892C246.306 36.8892 246.591 36.8151 246.858 36.667C247.129 36.5189 247.332 36.32 247.467 36.0703V34.7754H246.636C246.064 34.7754 245.635 34.8748 245.347 35.0737C245.059 35.2726 244.916 35.554 244.916 35.918C244.916 36.2142 245.013 36.4512 245.208 36.6289C245.406 36.8024 245.671 36.8892 246.001 36.8892ZM250.355 34.5151C250.355 33.4487 250.605 32.5981 251.104 31.9634C251.608 31.3244 252.275 31.0049 253.104 31.0049C253.887 31.0049 254.503 31.2778 254.951 31.8237L255.021 31.1318H256.411V37.7905C256.411 38.6919 256.13 39.4028 255.567 39.9233C255.008 40.4438 254.253 40.7041 253.301 40.7041C252.797 40.7041 252.304 40.5983 251.822 40.3867C251.344 40.1794 250.98 39.9064 250.73 39.5679L251.46 38.6411C251.934 39.2039 252.518 39.4854 253.212 39.4854C253.724 39.4854 254.128 39.3457 254.424 39.0664C254.721 38.7913 254.869 38.3851 254.869 37.8477V37.3843C254.424 37.8794 253.832 38.127 253.091 38.127C252.287 38.127 251.629 37.8075 251.117 37.1685C250.609 36.5295 250.355 35.645 250.355 34.5151ZM251.892 34.6484C251.892 35.3382 252.031 35.882 252.311 36.2798C252.594 36.6733 252.986 36.8701 253.485 36.8701C254.107 36.8701 254.568 36.6035 254.869 36.0703V33.0488C254.577 32.5283 254.12 32.2681 253.498 32.2681C252.99 32.2681 252.594 32.4691 252.311 32.8711C252.031 33.2731 251.892 33.8656 251.892 34.6484ZM261.026 38.127C260.048 38.127 259.255 37.8201 258.646 37.2065C258.04 36.5887 257.738 35.7677 257.738 34.7437V34.5532C257.738 33.8677 257.869 33.2562 258.131 32.7188C258.398 32.1771 258.77 31.756 259.249 31.4556C259.727 31.1551 260.26 31.0049 260.848 31.0049C261.783 31.0049 262.505 31.3032 263.013 31.8999C263.525 32.4966 263.781 33.3408 263.781 34.4326V35.0547H259.293C259.34 35.6217 259.528 36.0703 259.858 36.4004C260.192 36.7305 260.611 36.8955 261.115 36.8955C261.821 36.8955 262.397 36.6099 262.841 36.0386L263.673 36.832C263.398 37.2425 263.03 37.562 262.568 37.7905C262.111 38.0148 261.597 38.127 261.026 38.127ZM260.842 32.2427C260.419 32.2427 260.076 32.3908 259.813 32.687C259.555 32.9832 259.39 33.3958 259.318 33.9248H262.257V33.8105C262.223 33.2943 262.086 32.9049 261.845 32.6426C261.604 32.376 261.269 32.2427 260.842 32.2427ZM274.667 30.0527H271.785V38H270.192V30.0527H267.335V28.7578H274.667V30.0527ZM277.619 35.791L279.015 31.1318H280.659L277.93 39.041C277.511 40.1963 276.8 40.7739 275.797 40.7739C275.573 40.7739 275.325 40.7358 275.054 40.6597V39.4663L275.346 39.4854C275.736 39.4854 276.028 39.4134 276.222 39.2695C276.421 39.1299 276.578 38.8929 276.692 38.5586L276.914 37.9683L274.502 31.1318H276.165L277.619 35.791ZM287.565 34.6357C287.565 35.6979 287.324 36.5464 286.842 37.1812C286.359 37.8117 285.712 38.127 284.899 38.127C284.146 38.127 283.543 37.8794 283.09 37.3843V40.6406H281.548V31.1318H282.97L283.033 31.8301C283.486 31.2799 284.102 31.0049 284.88 31.0049C285.718 31.0049 286.374 31.318 286.848 31.9443C287.326 32.5664 287.565 33.4318 287.565 34.5405V34.6357ZM286.029 34.5024C286.029 33.8169 285.892 33.2731 285.617 32.8711C285.346 32.4691 284.957 32.2681 284.449 32.2681C283.818 32.2681 283.365 32.5283 283.09 33.0488V36.0957C283.37 36.6289 283.827 36.8955 284.461 36.8955C284.952 36.8955 285.335 36.6987 285.61 36.3052C285.89 35.9074 286.029 35.3065 286.029 34.5024ZM291.901 38.127C290.923 38.127 290.13 37.8201 289.521 37.2065C288.915 36.5887 288.613 35.7677 288.613 34.7437V34.5532C288.613 33.8677 288.744 33.2562 289.006 32.7188C289.273 32.1771 289.645 31.756 290.124 31.4556C290.602 31.1551 291.135 31.0049 291.723 31.0049C292.658 31.0049 293.38 31.3032 293.888 31.8999C294.4 32.4966 294.656 33.3408 294.656 34.4326V35.0547H290.168C290.215 35.6217 290.403 36.0703 290.733 36.4004C291.067 36.7305 291.486 36.8955 291.99 36.8955C292.696 36.8955 293.272 36.6099 293.716 36.0386L294.548 36.832C294.273 37.2425 293.905 37.562 293.443 37.7905C292.986 38.0148 292.472 38.127 291.901 38.127ZM291.717 32.2427C291.294 32.2427 290.951 32.3908 290.688 32.687C290.43 32.9832 290.265 33.3958 290.193 33.9248H293.132V33.8105C293.098 33.2943 292.961 32.9049 292.72 32.6426C292.479 32.376 292.144 32.2427 291.717 32.2427ZM304.076 35.6196C304.076 35.2134 303.932 34.9002 303.644 34.6802C303.361 34.4601 302.846 34.238 302.102 34.0137C301.357 33.7894 300.764 33.5397 300.324 33.2646C299.482 32.7357 299.061 32.0459 299.061 31.1953C299.061 30.4505 299.364 29.8369 299.969 29.3545C300.578 28.8721 301.367 28.6309 302.336 28.6309C302.98 28.6309 303.553 28.7493 304.057 28.9863C304.56 29.2233 304.956 29.5618 305.244 30.002C305.531 30.4378 305.675 30.9224 305.675 31.4556H304.076C304.076 30.9731 303.923 30.5965 303.619 30.3257C303.318 30.0506 302.887 29.9131 302.324 29.9131C301.799 29.9131 301.391 30.0252 301.099 30.2495C300.811 30.4738 300.667 30.7869 300.667 31.189C300.667 31.5275 300.824 31.811 301.137 32.0396C301.45 32.2638 301.966 32.4839 302.686 32.6997C303.405 32.9113 303.983 33.1546 304.418 33.4297C304.854 33.7005 305.174 34.0137 305.377 34.3691C305.58 34.7204 305.682 35.133 305.682 35.6069C305.682 36.3771 305.385 36.9907 304.793 37.4478C304.205 37.9006 303.405 38.127 302.394 38.127C301.725 38.127 301.109 38.0042 300.546 37.7588C299.988 37.5091 299.552 37.1663 299.239 36.7305C298.93 36.2946 298.775 35.7868 298.775 35.207H300.381C300.381 35.7318 300.555 36.138 300.902 36.4258C301.249 36.7135 301.746 36.8574 302.394 36.8574C302.952 36.8574 303.371 36.7453 303.65 36.521C303.934 36.2925 304.076 35.992 304.076 35.6196ZM312.975 35.8735L314.067 31.1318H315.571L313.699 38H312.429L310.957 33.2837L309.509 38H308.24L306.361 31.1318H307.865L308.976 35.8228L310.385 31.1318H311.547L312.975 35.8735ZM318.244 38H316.701V31.1318H318.244V38ZM316.606 29.3481C316.606 29.1112 316.68 28.9144 316.828 28.7578C316.98 28.6012 317.196 28.5229 317.476 28.5229C317.755 28.5229 317.971 28.6012 318.123 28.7578C318.275 28.9144 318.352 29.1112 318.352 29.3481C318.352 29.5809 318.275 29.7756 318.123 29.9321C317.971 30.0845 317.755 30.1606 317.476 30.1606C317.196 30.1606 316.98 30.0845 316.828 29.9321C316.68 29.7756 316.606 29.5809 316.606 29.3481ZM321.862 29.4624V31.1318H323.074V32.2744H321.862V36.1084C321.862 36.3708 321.913 36.5612 322.014 36.6797C322.12 36.7939 322.306 36.8511 322.573 36.8511C322.75 36.8511 322.93 36.8299 323.112 36.7876V37.981C322.761 38.0783 322.423 38.127 322.097 38.127C320.912 38.127 320.319 37.4731 320.319 36.1655V32.2744H319.189V31.1318H320.319V29.4624H321.862ZM327.08 36.8955C327.465 36.8955 327.784 36.7834 328.038 36.5591C328.292 36.3348 328.427 36.0576 328.444 35.7275H329.898C329.881 36.1549 329.748 36.5549 329.498 36.9272C329.248 37.2954 328.91 37.5874 328.482 37.8032C328.055 38.019 327.594 38.127 327.099 38.127C326.138 38.127 325.376 37.8159 324.813 37.1938C324.251 36.5718 323.969 35.7127 323.969 34.6167V34.458C323.969 33.4128 324.249 32.577 324.807 31.9507C325.366 31.3201 326.127 31.0049 327.092 31.0049C327.909 31.0049 328.573 31.244 329.085 31.7222C329.602 32.1961 329.873 32.8203 329.898 33.5947H328.444C328.427 33.2012 328.292 32.8774 328.038 32.6235C327.788 32.3696 327.469 32.2427 327.08 32.2427C326.58 32.2427 326.195 32.4246 325.924 32.7886C325.653 33.1483 325.516 33.6963 325.512 34.4326V34.6802C325.512 35.425 325.645 35.9814 325.912 36.3496C326.182 36.7135 326.572 36.8955 327.08 36.8955ZM332.583 31.8809C333.087 31.2969 333.723 31.0049 334.494 31.0049C335.958 31.0049 336.701 31.8407 336.722 33.5122V38H335.179V33.5693C335.179 33.0954 335.076 32.7611 334.868 32.5664C334.665 32.3675 334.365 32.2681 333.967 32.2681C333.349 32.2681 332.888 32.5431 332.583 33.0933V38H331.041V28.25H332.583V31.8809Z" fill="white"/>
<rect x="165.5" y="0.5" width="197" height="49" rx="4.5" stroke="#202020"/>
<rect x="158" y="18" width="14" height="14" rx="4" fill="#5E7B9C" stroke="#202020" stroke-width="2"/>
<rect x="355" y="18" width="14" height="14" rx="4" fill="#5E7B9C" stroke="#202020" stroke-width="2"/>
<rect x="401.5" y="9.5" width="109" height="32" rx="9.5" fill="white"/>
<rect x="401.5" y="9.5" width="109" height="32" rx="9.5" fill="white"/>
<path d="M415.545 26.5659V30H413.939V20.7578H417.475C418.508 20.7578 419.326 21.0265 419.932 21.564C420.541 22.1014 420.846 22.8123 420.846 23.6968C420.846 24.6024 420.547 25.307 419.951 25.8105C419.358 26.3141 418.527 26.5659 417.456 26.5659H415.545ZM415.545 25.2773H417.475C418.046 25.2773 418.482 25.144 418.783 24.8774C419.083 24.6066 419.233 24.2173 419.233 23.7095C419.233 23.2101 419.081 22.8123 418.776 22.5161C418.472 22.2157 418.053 22.0612 417.52 22.0527H415.545V25.2773ZM421.728 26.5024C421.728 25.8296 421.861 25.2244 422.128 24.687C422.395 24.1453 422.769 23.7306 423.251 23.4429C423.734 23.1509 424.288 23.0049 424.915 23.0049C425.841 23.0049 426.592 23.3032 427.168 23.8999C427.748 24.4966 428.061 25.2879 428.107 26.2739L428.114 26.6357C428.114 27.3128 427.983 27.918 427.72 28.4512C427.462 28.9844 427.09 29.397 426.603 29.689C426.121 29.981 425.562 30.127 424.927 30.127C423.958 30.127 423.182 29.8053 422.598 29.1621C422.018 28.5146 421.728 27.6535 421.728 26.5786V26.5024ZM423.271 26.6357C423.271 27.3424 423.417 27.8968 423.708 28.2988C424 28.6966 424.407 28.8955 424.927 28.8955C425.448 28.8955 425.852 28.6924 426.14 28.2861C426.432 27.8799 426.578 27.2853 426.578 26.5024C426.578 25.8084 426.427 25.2583 426.127 24.8521C425.831 24.4458 425.427 24.2427 424.915 24.2427C424.411 24.2427 424.011 24.4437 423.715 24.8457C423.419 25.2435 423.271 25.8402 423.271 26.6357ZM433.268 28.1338C433.268 27.8587 433.154 27.6493 432.925 27.5054C432.701 27.3615 432.326 27.2345 431.802 27.1245C431.277 27.0145 430.839 26.8748 430.488 26.7056C429.718 26.3332 429.333 25.7936 429.333 25.0869C429.333 24.4945 429.582 23.9993 430.082 23.6016C430.581 23.2038 431.216 23.0049 431.986 23.0049C432.807 23.0049 433.469 23.208 433.973 23.6143C434.48 24.0205 434.734 24.5474 434.734 25.1948H433.192C433.192 24.8986 433.082 24.6532 432.862 24.4585C432.642 24.2596 432.35 24.1602 431.986 24.1602C431.647 24.1602 431.37 24.2384 431.154 24.395C430.943 24.5516 430.837 24.7611 430.837 25.0234C430.837 25.2604 430.936 25.4445 431.135 25.5757C431.334 25.7069 431.736 25.8402 432.341 25.9756C432.946 26.1068 433.42 26.2655 433.763 26.4517C434.11 26.6336 434.366 26.8537 434.531 27.1118C434.701 27.37 434.785 27.6831 434.785 28.0513C434.785 28.6691 434.529 29.1706 434.017 29.5557C433.505 29.9365 432.834 30.127 432.005 30.127C431.442 30.127 430.941 30.0254 430.5 29.8223C430.06 29.6191 429.718 29.3398 429.472 28.9844C429.227 28.6289 429.104 28.2459 429.104 27.8354H430.602C430.623 28.1994 430.761 28.4808 431.015 28.6797C431.269 28.8743 431.605 28.9717 432.024 28.9717C432.43 28.9717 432.739 28.8955 432.951 28.7432C433.162 28.5866 433.268 28.3835 433.268 28.1338ZM438.067 21.4624V23.1318H439.279V24.2744H438.067V28.1084C438.067 28.3708 438.118 28.5612 438.219 28.6797C438.325 28.7939 438.511 28.8511 438.778 28.8511C438.956 28.8511 439.135 28.8299 439.317 28.7876V29.981C438.966 30.0783 438.628 30.127 438.302 30.127C437.117 30.127 436.524 29.4731 436.524 28.1655V24.2744H435.395V23.1318H436.524V21.4624H438.067ZM445.633 21.4624V23.1318H446.846V24.2744H445.633V28.1084C445.633 28.3708 445.684 28.5612 445.786 28.6797C445.891 28.7939 446.078 28.8511 446.344 28.8511C446.522 28.8511 446.702 28.8299 446.884 28.7876V29.981C446.533 30.0783 446.194 30.127 445.868 30.127C444.683 30.127 444.091 29.4731 444.091 28.1655V24.2744H442.961V23.1318H444.091V21.4624H445.633ZM451.054 30.127C450.077 30.127 449.283 29.8201 448.674 29.2065C448.069 28.5887 447.766 27.7677 447.766 26.7437V26.5532C447.766 25.8677 447.897 25.2562 448.16 24.7188C448.426 24.1771 448.799 23.756 449.277 23.4556C449.755 23.1551 450.288 23.0049 450.876 23.0049C451.812 23.0049 452.533 23.3032 453.041 23.8999C453.553 24.4966 453.809 25.3408 453.809 26.4326V27.0547H449.321C449.368 27.6217 449.556 28.0703 449.886 28.4004C450.221 28.7305 450.639 28.8955 451.143 28.8955C451.85 28.8955 452.425 28.6099 452.87 28.0386L453.701 28.832C453.426 29.2425 453.058 29.562 452.597 29.7905C452.14 30.0148 451.625 30.127 451.054 30.127ZM450.87 24.2427C450.447 24.2427 450.104 24.3908 449.842 24.687C449.584 24.9832 449.419 25.3958 449.347 25.9248H452.286V25.8105C452.252 25.2943 452.114 24.9049 451.873 24.6426C451.632 24.376 451.298 24.2427 450.87 24.2427ZM456.653 30H455.11V20.25H456.653V30ZM461.363 30.127C460.385 30.127 459.592 29.8201 458.982 29.2065C458.377 28.5887 458.075 27.7677 458.075 26.7437V26.5532C458.075 25.8677 458.206 25.2562 458.468 24.7188C458.735 24.1771 459.107 23.756 459.585 23.4556C460.064 23.1551 460.597 23.0049 461.185 23.0049C462.12 23.0049 462.842 23.3032 463.35 23.8999C463.862 24.4966 464.118 25.3408 464.118 26.4326V27.0547H459.63C459.676 27.6217 459.865 28.0703 460.195 28.4004C460.529 28.7305 460.948 28.8955 461.452 28.8955C462.158 28.8955 462.734 28.6099 463.178 28.0386L464.01 28.832C463.735 29.2425 463.367 29.562 462.905 29.7905C462.448 30.0148 461.934 30.127 461.363 30.127ZM461.179 24.2427C460.756 24.2427 460.413 24.3908 460.15 24.687C459.892 24.9832 459.727 25.3958 459.655 25.9248H462.594V25.8105C462.56 25.2943 462.423 24.9049 462.182 24.6426C461.94 24.376 461.606 24.2427 461.179 24.2427ZM466.771 23.1318L466.815 23.8491C467.298 23.2863 467.958 23.0049 468.796 23.0049C469.714 23.0049 470.343 23.3561 470.681 24.0586C471.181 23.3561 471.883 23.0049 472.789 23.0049C473.546 23.0049 474.109 23.2144 474.477 23.6333C474.849 24.0522 475.04 24.6701 475.048 25.4868V30H473.506V25.5312C473.506 25.0954 473.411 24.7759 473.22 24.5728C473.03 24.3696 472.715 24.2681 472.274 24.2681C471.923 24.2681 471.635 24.3633 471.411 24.5537C471.191 24.7399 471.037 24.9854 470.948 25.29L470.954 30H469.412V25.4805C469.39 24.6722 468.978 24.2681 468.174 24.2681C467.556 24.2681 467.118 24.5199 466.86 25.0234V30H465.317V23.1318H466.771ZM479.657 30.127C478.679 30.127 477.886 29.8201 477.276 29.2065C476.671 28.5887 476.369 27.7677 476.369 26.7437V26.5532C476.369 25.8677 476.5 25.2562 476.762 24.7188C477.029 24.1771 477.401 23.756 477.879 23.4556C478.358 23.1551 478.891 23.0049 479.479 23.0049C480.414 23.0049 481.136 23.3032 481.644 23.8999C482.156 24.4966 482.412 25.3408 482.412 26.4326V27.0547H477.924C477.97 27.6217 478.159 28.0703 478.489 28.4004C478.823 28.7305 479.242 28.8955 479.746 28.8955C480.452 28.8955 481.028 28.6099 481.472 28.0386L482.304 28.832C482.029 29.2425 481.66 29.562 481.199 29.7905C480.742 30.0148 480.228 30.127 479.657 30.127ZM479.473 24.2427C479.049 24.2427 478.707 24.3908 478.444 24.687C478.186 24.9832 478.021 25.3958 477.949 25.9248H480.888V25.8105C480.854 25.2943 480.717 24.9049 480.476 24.6426C480.234 24.376 479.9 24.2427 479.473 24.2427ZM485.547 21.4624V23.1318H486.76V24.2744H485.547V28.1084C485.547 28.3708 485.598 28.5612 485.7 28.6797C485.806 28.7939 485.992 28.8511 486.258 28.8511C486.436 28.8511 486.616 28.8299 486.798 28.7876V29.981C486.447 30.0783 486.108 30.127 485.782 30.127C484.597 30.127 484.005 29.4731 484.005 28.1655V24.2744H482.875V23.1318H484.005V21.4624H485.547ZM491.54 24.541C491.336 24.5072 491.127 24.4902 490.911 24.4902C490.204 24.4902 489.728 24.7611 489.483 25.3027V30H487.94V23.1318H489.413L489.451 23.8999C489.824 23.3032 490.34 23.0049 491 23.0049C491.22 23.0049 491.402 23.0345 491.546 23.0938L491.54 24.541ZM495.031 27.791L496.427 23.1318H498.071L495.342 31.041C494.923 32.1963 494.212 32.7739 493.209 32.7739C492.985 32.7739 492.737 32.7358 492.466 32.6597V31.4663L492.758 31.4854C493.148 31.4854 493.44 31.4134 493.634 31.2695C493.833 31.1299 493.99 30.8929 494.104 30.5586L494.326 29.9683L491.914 23.1318H493.577L495.031 27.791Z" fill="#305680"/>
<rect x="401.5" y="9.5" width="109" height="32" rx="9.5" stroke="#305680"/>
<rect x="408.5" y="95.5" width="99" height="32" rx="9.5" fill="white"/>
<rect x="408.5" y="95.5" width="99" height="32" rx="9.5" fill="white"/>
<path d="M424.335 112.439H422.545V116H420.939V106.758H424.189C425.256 106.758 426.079 106.997 426.659 107.475C427.238 107.953 427.528 108.645 427.528 109.551C427.528 110.169 427.378 110.687 427.078 111.106C426.781 111.521 426.367 111.84 425.833 112.064L427.909 115.917V116H426.189L424.335 112.439ZM422.545 111.15H424.196C424.737 111.15 425.161 111.015 425.465 110.744C425.77 110.469 425.922 110.095 425.922 109.621C425.922 109.125 425.781 108.743 425.497 108.472C425.218 108.201 424.799 108.061 424.24 108.053H422.545V111.15ZM430.658 112.566V116H429.052V106.758H432.587C433.62 106.758 434.439 107.027 435.044 107.564C435.653 108.101 435.958 108.812 435.958 109.697C435.958 110.602 435.66 111.307 435.063 111.811C434.471 112.314 433.639 112.566 432.568 112.566H430.658ZM430.658 111.277H432.587C433.159 111.277 433.595 111.144 433.895 110.877C434.195 110.607 434.346 110.217 434.346 109.709C434.346 109.21 434.193 108.812 433.889 108.516C433.584 108.216 433.165 108.061 432.632 108.053H430.658V111.277ZM444.419 112.991C444.326 113.977 443.962 114.747 443.328 115.302C442.693 115.852 441.849 116.127 440.795 116.127C440.059 116.127 439.409 115.953 438.846 115.606C438.288 115.255 437.856 114.758 437.551 114.115C437.247 113.472 437.088 112.725 437.075 111.874V111.011C437.075 110.139 437.23 109.371 437.539 108.707C437.847 108.042 438.29 107.53 438.865 107.17C439.445 106.811 440.114 106.631 440.871 106.631C441.891 106.631 442.712 106.908 443.334 107.462C443.956 108.017 444.318 108.8 444.419 109.811H442.82C442.744 109.147 442.549 108.668 442.236 108.376C441.927 108.08 441.472 107.932 440.871 107.932C440.173 107.932 439.635 108.188 439.259 108.7C438.886 109.208 438.696 109.955 438.688 110.941V111.76C438.688 112.758 438.865 113.52 439.221 114.045C439.58 114.57 440.105 114.832 440.795 114.832C441.425 114.832 441.899 114.69 442.217 114.407C442.534 114.123 442.735 113.651 442.82 112.991H444.419ZM452.494 112.439H450.704V116H449.098V106.758H452.348C453.414 106.758 454.237 106.997 454.817 107.475C455.397 107.953 455.687 108.645 455.687 109.551C455.687 110.169 455.536 110.687 455.236 111.106C454.94 111.521 454.525 111.84 453.992 112.064L456.067 115.917V116H454.347L452.494 112.439ZM450.704 111.15H452.354C452.896 111.15 453.319 111.015 453.624 110.744C453.928 110.469 454.081 110.095 454.081 109.621C454.081 109.125 453.939 108.743 453.655 108.472C453.376 108.201 452.957 108.061 452.398 108.053H450.704V111.15ZM460.085 116.127C459.108 116.127 458.314 115.82 457.705 115.207C457.1 114.589 456.797 113.768 456.797 112.744V112.553C456.797 111.868 456.929 111.256 457.191 110.719C457.458 110.177 457.83 109.756 458.308 109.456C458.786 109.155 459.319 109.005 459.908 109.005C460.843 109.005 461.564 109.303 462.072 109.9C462.584 110.497 462.84 111.341 462.84 112.433V113.055H458.353C458.399 113.622 458.587 114.07 458.917 114.4C459.252 114.73 459.671 114.896 460.174 114.896C460.881 114.896 461.457 114.61 461.901 114.039L462.732 114.832C462.457 115.243 462.089 115.562 461.628 115.791C461.171 116.015 460.657 116.127 460.085 116.127ZM459.901 110.243C459.478 110.243 459.135 110.391 458.873 110.687C458.615 110.983 458.45 111.396 458.378 111.925H461.317V111.811C461.283 111.294 461.146 110.905 460.904 110.643C460.663 110.376 460.329 110.243 459.901 110.243ZM463.754 112.509C463.754 111.434 464 110.581 464.491 109.951C464.982 109.32 465.646 109.005 466.484 109.005C467.25 109.005 467.857 109.274 468.306 109.811L468.395 109.132H469.766V118.641H468.223V115.416C467.775 115.89 467.191 116.127 466.471 116.127C465.65 116.127 464.992 115.807 464.497 115.168C464.002 114.525 463.754 113.639 463.754 112.509ZM465.297 112.642C465.297 113.345 465.434 113.897 465.709 114.299C465.989 114.697 466.374 114.896 466.865 114.896C467.474 114.896 467.927 114.635 468.223 114.115V110.992C467.927 110.492 467.478 110.243 466.877 110.243C466.387 110.243 465.999 110.439 465.716 110.833C465.437 111.227 465.297 111.83 465.297 112.642ZM475.593 115.327C475.14 115.86 474.497 116.127 473.663 116.127C472.918 116.127 472.353 115.909 471.968 115.473C471.587 115.037 471.397 114.407 471.397 113.582V109.132H472.939V113.562C472.939 114.434 473.301 114.87 474.025 114.87C474.774 114.87 475.28 114.601 475.542 114.064V109.132H477.084V116H475.631L475.593 115.327ZM481.68 116.127C480.703 116.127 479.909 115.82 479.3 115.207C478.695 114.589 478.392 113.768 478.392 112.744V112.553C478.392 111.868 478.523 111.256 478.786 110.719C479.052 110.177 479.425 109.756 479.903 109.456C480.381 109.155 480.914 109.005 481.502 109.005C482.438 109.005 483.159 109.303 483.667 109.9C484.179 110.497 484.435 111.341 484.435 112.433V113.055H479.947C479.994 113.622 480.182 114.07 480.512 114.4C480.847 114.73 481.265 114.896 481.769 114.896C482.476 114.896 483.051 114.61 483.496 114.039L484.327 114.832C484.052 115.243 483.684 115.562 483.223 115.791C482.766 116.015 482.251 116.127 481.68 116.127ZM481.496 110.243C481.073 110.243 480.73 110.391 480.468 110.687C480.21 110.983 480.045 111.396 479.973 111.925H482.912V111.811C482.878 111.294 482.74 110.905 482.499 110.643C482.258 110.376 481.924 110.243 481.496 110.243ZM489.488 114.134C489.488 113.859 489.374 113.649 489.145 113.505C488.921 113.361 488.546 113.235 488.021 113.125C487.497 113.014 487.059 112.875 486.708 112.706C485.937 112.333 485.552 111.794 485.552 111.087C485.552 110.494 485.802 109.999 486.301 109.602C486.801 109.204 487.435 109.005 488.206 109.005C489.027 109.005 489.689 109.208 490.192 109.614C490.7 110.021 490.954 110.547 490.954 111.195H489.412C489.412 110.899 489.302 110.653 489.082 110.458C488.861 110.26 488.569 110.16 488.206 110.16C487.867 110.16 487.59 110.238 487.374 110.395C487.162 110.552 487.057 110.761 487.057 111.023C487.057 111.26 487.156 111.444 487.355 111.576C487.554 111.707 487.956 111.84 488.561 111.976C489.166 112.107 489.64 112.265 489.983 112.452C490.33 112.634 490.586 112.854 490.751 113.112C490.92 113.37 491.005 113.683 491.005 114.051C491.005 114.669 490.749 115.171 490.237 115.556C489.725 115.937 489.054 116.127 488.225 116.127C487.662 116.127 487.16 116.025 486.72 115.822C486.28 115.619 485.937 115.34 485.692 114.984C485.446 114.629 485.324 114.246 485.324 113.835H486.822C486.843 114.199 486.98 114.481 487.234 114.68C487.488 114.874 487.825 114.972 488.244 114.972C488.65 114.972 488.959 114.896 489.17 114.743C489.382 114.587 489.488 114.383 489.488 114.134ZM494.287 107.462V109.132H495.499V110.274H494.287V114.108C494.287 114.371 494.337 114.561 494.439 114.68C494.545 114.794 494.731 114.851 494.998 114.851C495.175 114.851 495.355 114.83 495.537 114.788V115.981C495.186 116.078 494.847 116.127 494.521 116.127C493.337 116.127 492.744 115.473 492.744 114.166V110.274H491.614V109.132H492.744V107.462H494.287Z" fill="#305680"/>
<rect x="408.5" y="95.5" width="99" height="32" rx="9.5" stroke="#305680"/>
<rect x="429.5" y="182.5" width="56" height="32" rx="9.5" fill="white"/>
<rect x="429.5" y="182.5" width="56" height="32" rx="9.5" fill="white"/>
<path d="M449.315 198.62C449.315 199.526 449.159 200.321 448.846 201.007C448.533 201.688 448.084 202.213 447.5 202.581C446.92 202.945 446.252 203.127 445.494 203.127C444.745 203.127 444.076 202.945 443.488 202.581C442.904 202.213 442.451 201.69 442.13 201.013C441.812 200.336 441.652 199.555 441.647 198.671V198.15C441.647 197.249 441.806 196.453 442.124 195.764C442.445 195.074 442.896 194.547 443.476 194.183C444.06 193.815 444.728 193.631 445.481 193.631C446.235 193.631 446.901 193.813 447.481 194.177C448.065 194.536 448.516 195.057 448.833 195.738C449.15 196.415 449.311 197.205 449.315 198.106V198.62ZM447.709 198.138C447.709 197.114 447.515 196.329 447.125 195.783C446.74 195.237 446.192 194.964 445.481 194.964C444.787 194.964 444.244 195.237 443.85 195.783C443.461 196.324 443.262 197.092 443.253 198.087V198.62C443.253 199.636 443.45 200.421 443.844 200.975C444.242 201.529 444.792 201.807 445.494 201.807C446.205 201.807 446.751 201.536 447.132 200.994C447.517 200.452 447.709 199.661 447.709 198.62V198.138ZM452.699 194.462V196.132H453.911V197.274H452.699V201.108C452.699 201.371 452.75 201.561 452.851 201.68C452.957 201.794 453.143 201.851 453.41 201.851C453.587 201.851 453.767 201.83 453.949 201.788V202.981C453.598 203.078 453.259 203.127 452.934 203.127C451.749 203.127 451.156 202.473 451.156 201.166V197.274H450.026V196.132H451.156V194.462H452.699ZM456.615 196.881C457.119 196.297 457.756 196.005 458.526 196.005C459.99 196.005 460.733 196.841 460.754 198.512V203H459.211V198.569C459.211 198.095 459.108 197.761 458.9 197.566C458.697 197.368 458.397 197.268 457.999 197.268C457.381 197.268 456.92 197.543 456.615 198.093V203H455.073V193.25H456.615V196.881ZM465.343 203.127C464.366 203.127 463.572 202.82 462.963 202.207C462.358 201.589 462.055 200.768 462.055 199.744V199.553C462.055 198.868 462.186 198.256 462.449 197.719C462.715 197.177 463.088 196.756 463.566 196.456C464.044 196.155 464.577 196.005 465.166 196.005C466.101 196.005 466.822 196.303 467.33 196.9C467.842 197.497 468.098 198.341 468.098 199.433V200.055H463.61C463.657 200.622 463.845 201.07 464.175 201.4C464.51 201.73 464.929 201.896 465.432 201.896C466.139 201.896 466.714 201.61 467.159 201.039L467.99 201.832C467.715 202.243 467.347 202.562 466.886 202.791C466.429 203.015 465.915 203.127 465.343 203.127ZM465.159 197.243C464.736 197.243 464.393 197.391 464.131 197.687C463.873 197.983 463.708 198.396 463.636 198.925H466.575V198.811C466.541 198.294 466.403 197.905 466.162 197.643C465.921 197.376 465.587 197.243 465.159 197.243ZM472.897 197.541C472.694 197.507 472.484 197.49 472.269 197.49C471.562 197.49 471.086 197.761 470.84 198.303V203H469.298V196.132H470.771L470.809 196.9C471.181 196.303 471.697 196.005 472.357 196.005C472.577 196.005 472.759 196.035 472.903 196.094L472.897 197.541Z" fill="#305680"/>
<rect x="429.5" y="182.5" width="56" height="32" rx="9.5" stroke="#305680"/>
<rect x="544.5" y="0.5" width="158" height="49" rx="4.5" fill="white"/>
<rect x="544.5" y="0.5" width="158" height="49" rx="4.5" fill="#305680" fill-opacity="0.78"/>
<path d="M563 33H577V31H563V33ZM563 23H567V29H573V23H577L570 16L563 23Z" fill="white"/>
<path d="M594.888 19.1782C594.888 18.8608 594.767 18.6154 594.526 18.4419C594.289 18.2642 593.872 18.1118 593.275 17.9849C592.683 17.8579 592.211 17.7056 591.86 17.5278C591.513 17.3501 591.255 17.1385 591.085 16.8931C590.92 16.6476 590.838 16.3556 590.838 16.0171C590.838 15.4543 591.075 14.9782 591.549 14.5889C592.027 14.1995 592.636 14.0049 593.377 14.0049C594.156 14.0049 594.786 14.2059 595.269 14.6079C595.755 15.0099 595.999 15.5241 595.999 16.1504H594.818C594.818 15.8288 594.68 15.5516 594.405 15.3188C594.134 15.0861 593.792 14.9697 593.377 14.9697C592.95 14.9697 592.615 15.0628 592.374 15.249C592.133 15.4352 592.012 15.6785 592.012 15.979C592.012 16.2625 592.124 16.4762 592.349 16.6201C592.573 16.764 592.977 16.9015 593.561 17.0327C594.149 17.1639 594.625 17.3205 594.989 17.5024C595.353 17.6844 595.622 17.9045 595.795 18.1626C595.973 18.4165 596.062 18.7275 596.062 19.0957C596.062 19.7093 595.817 20.2023 595.326 20.5747C594.835 20.9429 594.198 21.127 593.415 21.127C592.865 21.127 592.378 21.0296 591.955 20.835C591.532 20.6403 591.2 20.3695 590.958 20.0225C590.722 19.6712 590.603 19.2925 590.603 18.8862H591.777C591.799 19.2798 591.955 19.5929 592.247 19.8257C592.543 20.0542 592.933 20.1685 593.415 20.1685C593.859 20.1685 594.215 20.0796 594.481 19.9019C594.752 19.7199 594.888 19.4787 594.888 19.1782ZM601.832 21C601.764 20.8646 601.709 20.6234 601.667 20.2764C601.121 20.8434 600.469 21.127 599.712 21.127C599.035 21.127 598.478 20.9365 598.042 20.5557C597.611 20.1706 597.395 19.6839 597.395 19.0957C597.395 18.3805 597.666 17.8262 598.208 17.4326C598.753 17.0348 599.519 16.8359 600.505 16.8359H601.648V16.2964C601.648 15.8859 601.525 15.5601 601.28 15.3188C601.034 15.0734 600.673 14.9507 600.194 14.9507C599.775 14.9507 599.424 15.0565 599.141 15.2681C598.857 15.4797 598.715 15.7357 598.715 16.0361H597.535C597.535 15.6934 597.655 15.3633 597.896 15.0459C598.142 14.7243 598.472 14.4704 598.887 14.2842C599.306 14.098 599.765 14.0049 600.264 14.0049C601.056 14.0049 601.675 14.2038 602.124 14.6016C602.573 14.9951 602.805 15.5389 602.822 16.2329V19.394C602.822 20.0246 602.903 20.526 603.063 20.8984V21H601.832ZM599.883 20.105C600.251 20.105 600.601 20.0098 600.931 19.8193C601.261 19.6289 601.5 19.3813 601.648 19.0767V17.6675H600.728C599.289 17.6675 598.569 18.0885 598.569 18.9307C598.569 19.2988 598.692 19.5866 598.938 19.7939C599.183 20.0013 599.498 20.105 599.883 20.105ZM606.828 19.4067L608.529 14.1318H609.729L607.266 21H606.371L603.882 14.1318H605.082L606.828 19.4067ZM613.62 21.127C612.689 21.127 611.931 20.8223 611.347 20.2129C610.763 19.5993 610.471 18.7804 610.471 17.7563V17.5405C610.471 16.8592 610.6 16.252 610.858 15.7188C611.121 15.1813 611.485 14.7624 611.95 14.4619C612.42 14.1572 612.928 14.0049 613.474 14.0049C614.367 14.0049 615.061 14.299 615.556 14.8872C616.051 15.4754 616.298 16.3175 616.298 17.4136V17.9023H611.646C611.662 18.5794 611.859 19.1274 612.236 19.5464C612.617 19.9611 613.099 20.1685 613.683 20.1685C614.098 20.1685 614.449 20.0838 614.737 19.9146C615.025 19.7453 615.276 19.521 615.492 19.2417L616.209 19.8003C615.634 20.6847 614.771 21.127 613.62 21.127ZM613.474 14.9697C613 14.9697 612.602 15.1432 612.28 15.4902C611.959 15.833 611.76 16.3154 611.684 16.9375H615.124V16.8486C615.09 16.252 614.929 15.7907 614.642 15.4648C614.354 15.1348 613.965 14.9697 613.474 14.9697ZM622.481 12.4688V14.1318H623.763V15.0396H622.481V19.2988C622.481 19.5739 622.538 19.7812 622.652 19.9209C622.767 20.0563 622.961 20.124 623.236 20.124C623.372 20.124 623.558 20.0986 623.795 20.0479V21C623.486 21.0846 623.186 21.127 622.894 21.127C622.369 21.127 621.973 20.9683 621.707 20.6509C621.44 20.3335 621.307 19.8828 621.307 19.2988V15.0396H620.056V14.1318H621.307V12.4688H622.481ZM626.417 21H625.242V14.1318H626.417V21ZM625.147 12.3101C625.147 12.1196 625.204 11.9588 625.318 11.8276C625.437 11.6965 625.61 11.6309 625.839 11.6309C626.067 11.6309 626.241 11.6965 626.359 11.8276C626.478 11.9588 626.537 12.1196 626.537 12.3101C626.537 12.5005 626.478 12.6592 626.359 12.7861C626.241 12.9131 626.067 12.9766 625.839 12.9766C625.61 12.9766 625.437 12.9131 625.318 12.7861C625.204 12.6592 625.147 12.5005 625.147 12.3101ZM629.406 14.1318L629.438 14.8936C629.942 14.3011 630.621 14.0049 631.476 14.0049C632.436 14.0049 633.09 14.373 633.437 15.1094C633.666 14.7793 633.962 14.5127 634.326 14.3096C634.694 14.1064 635.128 14.0049 635.627 14.0049C637.133 14.0049 637.899 14.8026 637.925 16.3979V21H636.75V16.4678C636.75 15.9769 636.638 15.6108 636.414 15.3696C636.19 15.1242 635.813 15.0015 635.284 15.0015C634.848 15.0015 634.486 15.1326 634.199 15.395C633.911 15.6532 633.744 16.0023 633.697 16.4424V21H632.517V16.4995C632.517 15.5008 632.028 15.0015 631.05 15.0015C630.28 15.0015 629.753 15.3294 629.47 15.9854V21H628.295V14.1318H629.406ZM642.552 21.127C641.621 21.127 640.864 20.8223 640.28 20.2129C639.696 19.5993 639.404 18.7804 639.404 17.7563V17.5405C639.404 16.8592 639.533 16.252 639.791 15.7188C640.053 15.1813 640.417 14.7624 640.883 14.4619C641.353 14.1572 641.86 14.0049 642.406 14.0049C643.299 14.0049 643.993 14.299 644.488 14.8872C644.983 15.4754 645.231 16.3175 645.231 17.4136V17.9023H640.578C640.595 18.5794 640.792 19.1274 641.168 19.5464C641.549 19.9611 642.032 20.1685 642.616 20.1685C643.03 20.1685 643.382 20.0838 643.669 19.9146C643.957 19.7453 644.209 19.521 644.425 19.2417L645.142 19.8003C644.567 20.6847 643.703 21.127 642.552 21.127ZM642.406 14.9697C641.932 14.9697 641.535 15.1432 641.213 15.4902C640.891 15.833 640.692 16.3154 640.616 16.9375H644.057V16.8486C644.023 16.252 643.862 15.7907 643.574 15.4648C643.286 15.1348 642.897 14.9697 642.406 14.9697ZM650.595 19.1782C650.595 18.8608 650.474 18.6154 650.233 18.4419C649.996 18.2642 649.579 18.1118 648.982 17.9849C648.39 17.8579 647.918 17.7056 647.567 17.5278C647.22 17.3501 646.962 17.1385 646.792 16.8931C646.627 16.6476 646.545 16.3556 646.545 16.0171C646.545 15.4543 646.782 14.9782 647.256 14.5889C647.734 14.1995 648.343 14.0049 649.084 14.0049C649.863 14.0049 650.493 14.2059 650.976 14.6079C651.462 15.0099 651.706 15.5241 651.706 16.1504H650.525C650.525 15.8288 650.387 15.5516 650.112 15.3188C649.841 15.0861 649.499 14.9697 649.084 14.9697C648.657 14.9697 648.322 15.0628 648.081 15.249C647.84 15.4352 647.719 15.6785 647.719 15.979C647.719 16.2625 647.831 16.4762 648.056 16.6201C648.28 16.764 648.684 16.9015 649.268 17.0327C649.856 17.1639 650.332 17.3205 650.696 17.5024C651.06 17.6844 651.329 17.9045 651.502 18.1626C651.68 18.4165 651.769 18.7275 651.769 19.0957C651.769 19.7093 651.524 20.2023 651.033 20.5747C650.542 20.9429 649.905 21.127 649.122 21.127C648.572 21.127 648.085 21.0296 647.662 20.835C647.239 20.6403 646.907 20.3695 646.666 20.0225C646.429 19.6712 646.31 19.2925 646.31 18.8862H647.484C647.506 19.2798 647.662 19.5929 647.954 19.8257C648.25 20.0542 648.64 20.1685 649.122 20.1685C649.566 20.1685 649.922 20.0796 650.188 19.9019C650.459 19.7199 650.595 19.4787 650.595 19.1782ZM656.149 21.127C655.218 21.127 654.46 20.8223 653.876 20.2129C653.292 19.5993 653 18.7804 653 17.7563V17.5405C653 16.8592 653.13 16.252 653.388 15.7188C653.65 15.1813 654.014 14.7624 654.479 14.4619C654.949 14.1572 655.457 14.0049 656.003 14.0049C656.896 14.0049 657.59 14.299 658.085 14.8872C658.58 15.4754 658.828 16.3175 658.828 17.4136V17.9023H654.175C654.192 18.5794 654.389 19.1274 654.765 19.5464C655.146 19.9611 655.628 20.1685 656.212 20.1685C656.627 20.1685 656.978 20.0838 657.266 19.9146C657.554 19.7453 657.806 19.521 658.021 19.2417L658.739 19.8003C658.163 20.6847 657.3 21.127 656.149 21.127ZM656.003 14.9697C655.529 14.9697 655.131 15.1432 654.81 15.4902C654.488 15.833 654.289 16.3154 654.213 16.9375H657.653V16.8486C657.619 16.252 657.459 15.7907 657.171 15.4648C656.883 15.1348 656.494 14.9697 656.003 14.9697ZM663.512 15.1855C663.334 15.1559 663.142 15.1411 662.935 15.1411C662.164 15.1411 661.642 15.4691 661.367 16.125V21H660.192V14.1318H661.335L661.354 14.9253C661.739 14.3117 662.285 14.0049 662.992 14.0049C663.22 14.0049 663.394 14.0345 663.512 14.0938V15.1855ZM665.874 21H664.699V14.1318H665.874V21ZM664.604 12.3101C664.604 12.1196 664.661 11.9588 664.775 11.8276C664.894 11.6965 665.067 11.6309 665.296 11.6309C665.524 11.6309 665.698 11.6965 665.816 11.8276C665.935 11.9588 665.994 12.1196 665.994 12.3101C665.994 12.5005 665.935 12.6592 665.816 12.7861C665.698 12.9131 665.524 12.9766 665.296 12.9766C665.067 12.9766 664.894 12.9131 664.775 12.7861C664.661 12.6592 664.604 12.5005 664.604 12.3101ZM670.609 21.127C669.678 21.127 668.92 20.8223 668.336 20.2129C667.752 19.5993 667.46 18.7804 667.46 17.7563V17.5405C667.46 16.8592 667.59 16.252 667.848 15.7188C668.11 15.1813 668.474 14.7624 668.939 14.4619C669.409 14.1572 669.917 14.0049 670.463 14.0049C671.356 14.0049 672.05 14.299 672.545 14.8872C673.04 15.4754 673.288 16.3175 673.288 17.4136V17.9023H668.635C668.652 18.5794 668.848 19.1274 669.225 19.5464C669.606 19.9611 670.088 20.1685 670.672 20.1685C671.087 20.1685 671.438 20.0838 671.726 19.9146C672.014 19.7453 672.266 19.521 672.481 19.2417L673.199 19.8003C672.623 20.6847 671.76 21.127 670.609 21.127ZM670.463 14.9697C669.989 14.9697 669.591 15.1432 669.27 15.4902C668.948 15.833 668.749 16.3154 668.673 16.9375H672.113V16.8486C672.079 16.252 671.919 15.7907 671.631 15.4648C671.343 15.1348 670.954 14.9697 670.463 14.9697ZM678.651 19.1782C678.651 18.8608 678.531 18.6154 678.29 18.4419C678.053 18.2642 677.636 18.1118 677.039 17.9849C676.447 17.8579 675.975 17.7056 675.624 17.5278C675.277 17.3501 675.018 17.1385 674.849 16.8931C674.684 16.6476 674.602 16.3556 674.602 16.0171C674.602 15.4543 674.839 14.9782 675.312 14.5889C675.791 14.1995 676.4 14.0049 677.141 14.0049C677.919 14.0049 678.55 14.2059 679.032 14.6079C679.519 15.0099 679.762 15.5241 679.762 16.1504H678.582C678.582 15.8288 678.444 15.5516 678.169 15.3188C677.898 15.0861 677.555 14.9697 677.141 14.9697C676.713 14.9697 676.379 15.0628 676.138 15.249C675.896 15.4352 675.776 15.6785 675.776 15.979C675.776 16.2625 675.888 16.4762 676.112 16.6201C676.337 16.764 676.741 16.9015 677.325 17.0327C677.913 17.1639 678.389 17.3205 678.753 17.5024C679.117 17.6844 679.386 17.9045 679.559 18.1626C679.737 18.4165 679.826 18.7275 679.826 19.0957C679.826 19.7093 679.58 20.2023 679.089 20.5747C678.598 20.9429 677.962 21.127 677.179 21.127C676.629 21.127 676.142 21.0296 675.719 20.835C675.296 20.6403 674.963 20.3695 674.722 20.0225C674.485 19.6712 674.367 19.2925 674.367 18.8862H675.541C675.562 19.2798 675.719 19.5929 676.011 19.8257C676.307 20.0542 676.696 20.1685 677.179 20.1685C677.623 20.1685 677.979 20.0796 678.245 19.9019C678.516 19.7199 678.651 19.4787 678.651 19.1782Z" fill="white"/>
<path d="M595.77 35.6196C595.77 35.2134 595.626 34.9002 595.338 34.6802C595.055 34.4601 594.541 34.238 593.796 34.0137C593.051 33.7894 592.459 33.5397 592.019 33.2646C591.176 32.7357 590.755 32.0459 590.755 31.1953C590.755 30.4505 591.058 29.8369 591.663 29.3545C592.272 28.8721 593.062 28.6309 594.031 28.6309C594.674 28.6309 595.247 28.7493 595.751 28.9863C596.255 29.2233 596.65 29.5618 596.938 30.002C597.226 30.4378 597.37 30.9224 597.37 31.4556H595.77C595.77 30.9731 595.618 30.5965 595.313 30.3257C595.013 30.0506 594.581 29.9131 594.018 29.9131C593.493 29.9131 593.085 30.0252 592.793 30.2495C592.505 30.4738 592.361 30.7869 592.361 31.189C592.361 31.5275 592.518 31.811 592.831 32.0396C593.144 32.2638 593.66 32.4839 594.38 32.6997C595.099 32.9113 595.677 33.1546 596.113 33.4297C596.549 33.7005 596.868 34.0137 597.071 34.3691C597.274 34.7204 597.376 35.133 597.376 35.6069C597.376 36.3771 597.08 36.9907 596.487 37.4478C595.899 37.9006 595.099 38.127 594.088 38.127C593.419 38.127 592.804 38.0042 592.241 37.7588C591.682 37.5091 591.246 37.1663 590.933 36.7305C590.624 36.2946 590.47 35.7868 590.47 35.207H592.076C592.076 35.7318 592.249 36.138 592.596 36.4258C592.943 36.7135 593.44 36.8574 594.088 36.8574C594.646 36.8574 595.065 36.7453 595.345 36.521C595.628 36.2925 595.77 35.992 595.77 35.6196ZM602.74 38C602.672 37.8688 602.613 37.6551 602.562 37.3589C602.071 37.8709 601.47 38.127 600.759 38.127C600.069 38.127 599.507 37.9302 599.071 37.5366C598.635 37.1431 598.417 36.6564 598.417 36.0767C598.417 35.3446 598.688 34.7839 599.229 34.3945C599.775 34.001 600.554 33.8042 601.565 33.8042H602.511V33.3535C602.511 32.998 602.412 32.7145 602.213 32.5029C602.014 32.2871 601.711 32.1792 601.305 32.1792C600.954 32.1792 600.666 32.2681 600.442 32.4458C600.218 32.6193 600.105 32.8415 600.105 33.1123H598.563C598.563 32.7357 598.688 32.3844 598.938 32.0586C599.187 31.7285 599.526 31.4704 599.953 31.2842C600.385 31.098 600.865 31.0049 601.394 31.0049C602.198 31.0049 602.839 31.208 603.317 31.6143C603.796 32.0163 604.041 32.5833 604.054 33.3154V36.4131C604.054 37.0309 604.14 37.5239 604.314 37.8921V38H602.74ZM601.045 36.8892C601.35 36.8892 601.635 36.8151 601.902 36.667C602.173 36.5189 602.376 36.32 602.511 36.0703V34.7754H601.68C601.108 34.7754 600.679 34.8748 600.391 35.0737C600.103 35.2726 599.959 35.554 599.959 35.918C599.959 36.2142 600.057 36.4512 600.251 36.6289C600.45 36.8024 600.715 36.8892 601.045 36.8892ZM607.989 36.0449L609.443 31.1318H611.036L608.656 38H607.316L604.917 31.1318H606.517L607.989 36.0449ZM614.94 38.127C613.962 38.127 613.169 37.8201 612.56 37.2065C611.954 36.5887 611.652 35.7677 611.652 34.7437V34.5532C611.652 33.8677 611.783 33.2562 612.045 32.7188C612.312 32.1771 612.684 31.756 613.163 31.4556C613.641 31.1551 614.174 31.0049 614.762 31.0049C615.697 31.0049 616.419 31.3032 616.927 31.8999C617.439 32.4966 617.695 33.3408 617.695 34.4326V35.0547H613.207C613.254 35.6217 613.442 36.0703 613.772 36.4004C614.106 36.7305 614.525 36.8955 615.029 36.8955C615.736 36.8955 616.311 36.6099 616.755 36.0386L617.587 36.832C617.312 37.2425 616.944 37.562 616.482 37.7905C616.025 38.0148 615.511 38.127 614.94 38.127ZM614.756 32.2427C614.333 32.2427 613.99 32.3908 613.728 32.687C613.469 32.9832 613.304 33.3958 613.232 33.9248H616.171V33.8105C616.138 33.2943 616 32.9049 615.759 32.6426C615.518 32.376 615.183 32.2427 614.756 32.2427ZM628.581 30.0527H625.699V38H624.106V30.0527H621.25V28.7578H628.581V30.0527ZM634.529 35.6196C634.529 35.2134 634.385 34.9002 634.097 34.6802C633.814 34.4601 633.299 34.238 632.555 34.0137C631.81 33.7894 631.217 33.5397 630.777 33.2646C629.935 32.7357 629.514 32.0459 629.514 31.1953C629.514 30.4505 629.817 29.8369 630.422 29.3545C631.031 28.8721 631.82 28.6309 632.79 28.6309C633.433 28.6309 634.006 28.7493 634.51 28.9863C635.013 29.2233 635.409 29.5618 635.697 30.002C635.985 30.4378 636.128 30.9224 636.128 31.4556H634.529C634.529 30.9731 634.376 30.5965 634.072 30.3257C633.771 30.0506 633.34 29.9131 632.777 29.9131C632.252 29.9131 631.844 30.0252 631.552 30.2495C631.264 30.4738 631.12 30.7869 631.12 31.189C631.12 31.5275 631.277 31.811 631.59 32.0396C631.903 32.2638 632.419 32.4839 633.139 32.6997C633.858 32.9113 634.436 33.1546 634.872 33.4297C635.307 33.7005 635.627 34.0137 635.83 34.3691C636.033 34.7204 636.135 35.133 636.135 35.6069C636.135 36.3771 635.839 36.9907 635.246 37.4478C634.658 37.9006 633.858 38.127 632.847 38.127C632.178 38.127 631.562 38.0042 631 37.7588C630.441 37.5091 630.005 37.1663 629.692 36.7305C629.383 36.2946 629.229 35.7868 629.229 35.207H630.834C630.834 35.7318 631.008 36.138 631.355 36.4258C631.702 36.7135 632.199 36.8574 632.847 36.8574C633.405 36.8574 633.824 36.7453 634.104 36.521C634.387 36.2925 634.529 35.992 634.529 35.6196Z" fill="white"/>
<rect x="544.5" y="0.5" width="158" height="49" rx="4.5" stroke="#202020"/>
<rect x="537" y="18" width="14" height="14" rx="4" fill="#5E7B9C" stroke="#202020" stroke-width="2"/>
<rect x="696" y="18" width="14" height="14" rx="4" fill="#5E7B9C" stroke="#202020" stroke-width="2"/>
<rect x="544.5" y="90.5" width="158" height="49" rx="4.5" fill="white"/>
<rect x="544.5" y="90.5" width="158" height="49" rx="4.5" fill="#305680" fill-opacity="0.78"/>
<path d="M561 121H579V119H561V121ZM561 116H579V114H561V116ZM561 109V111H579V109H561Z" fill="white"/>
<path d="M592.165 111H590.99V101.25H592.165V111ZM593.739 107.502C593.739 106.83 593.87 106.224 594.132 105.687C594.399 105.15 594.767 104.735 595.237 104.443C595.711 104.151 596.25 104.005 596.855 104.005C597.791 104.005 598.546 104.329 599.122 104.976C599.701 105.624 599.991 106.485 599.991 107.56V107.642C599.991 108.311 599.862 108.912 599.604 109.445C599.35 109.974 598.984 110.386 598.506 110.683C598.032 110.979 597.486 111.127 596.868 111.127C595.937 111.127 595.182 110.803 594.602 110.156C594.027 109.508 593.739 108.651 593.739 107.585V107.502ZM594.919 107.642C594.919 108.404 595.095 109.015 595.446 109.477C595.802 109.938 596.276 110.168 596.868 110.168C597.465 110.168 597.939 109.936 598.29 109.47C598.641 109 598.817 108.345 598.817 107.502C598.817 106.749 598.637 106.14 598.277 105.674C597.922 105.205 597.448 104.97 596.855 104.97C596.276 104.97 595.808 105.2 595.453 105.662C595.097 106.123 594.919 106.783 594.919 107.642ZM601.185 107.509C601.185 106.438 601.432 105.588 601.927 104.957C602.422 104.322 603.078 104.005 603.895 104.005C604.733 104.005 605.387 104.301 605.856 104.894L605.914 104.132H606.986V110.835C606.986 111.724 606.722 112.424 606.193 112.936C605.668 113.448 604.961 113.704 604.073 113.704C603.578 113.704 603.093 113.598 602.619 113.387C602.145 113.175 601.783 112.885 601.534 112.517L602.143 111.812C602.647 112.435 603.262 112.746 603.99 112.746C604.562 112.746 605.006 112.585 605.323 112.263C605.645 111.942 605.806 111.489 605.806 110.905V110.314C605.336 110.856 604.695 111.127 603.882 111.127C603.078 111.127 602.427 110.803 601.927 110.156C601.432 109.508 601.185 108.626 601.185 107.509ZM602.365 107.642C602.365 108.417 602.524 109.026 602.841 109.47C603.159 109.91 603.603 110.13 604.174 110.13C604.915 110.13 605.459 109.794 605.806 109.121V105.985C605.446 105.329 604.906 105.001 604.187 105.001C603.616 105.001 603.169 105.224 602.848 105.668C602.526 106.112 602.365 106.77 602.365 107.642Z" fill="white"/>
<path d="M592.545 126.718H596.741V128H590.939V118.758H592.545V126.718ZM597.535 124.502C597.535 123.83 597.668 123.224 597.935 122.687C598.201 122.145 598.576 121.731 599.058 121.443C599.541 121.151 600.095 121.005 600.721 121.005C601.648 121.005 602.399 121.303 602.975 121.9C603.554 122.497 603.868 123.288 603.914 124.274L603.92 124.636C603.92 125.313 603.789 125.918 603.527 126.451C603.269 126.984 602.896 127.397 602.41 127.689C601.927 127.981 601.369 128.127 600.734 128.127C599.765 128.127 598.988 127.805 598.404 127.162C597.825 126.515 597.535 125.653 597.535 124.579V124.502ZM599.077 124.636C599.077 125.342 599.223 125.897 599.515 126.299C599.807 126.697 600.213 126.896 600.734 126.896C601.254 126.896 601.659 126.692 601.946 126.286C602.238 125.88 602.384 125.285 602.384 124.502C602.384 123.808 602.234 123.258 601.934 122.852C601.637 122.446 601.233 122.243 600.721 122.243C600.218 122.243 599.818 122.444 599.521 122.846C599.225 123.243 599.077 123.84 599.077 124.636ZM604.955 124.515C604.955 123.449 605.205 122.598 605.704 121.963C606.208 121.324 606.874 121.005 607.704 121.005C608.486 121.005 609.102 121.278 609.551 121.824L609.621 121.132H611.011V127.791C611.011 128.692 610.729 129.403 610.167 129.923C609.608 130.444 608.853 130.704 607.9 130.704C607.397 130.704 606.904 130.598 606.421 130.387C605.943 130.179 605.579 129.906 605.33 129.568L606.06 128.641C606.534 129.204 607.118 129.485 607.812 129.485C608.324 129.485 608.728 129.346 609.024 129.066C609.32 128.791 609.468 128.385 609.468 127.848V127.384C609.024 127.879 608.431 128.127 607.691 128.127C606.887 128.127 606.229 127.807 605.717 127.168C605.209 126.529 604.955 125.645 604.955 124.515ZM606.491 124.648C606.491 125.338 606.631 125.882 606.91 126.28C607.194 126.673 607.585 126.87 608.084 126.87C608.707 126.87 609.168 126.604 609.468 126.07V123.049C609.176 122.528 608.719 122.268 608.097 122.268C607.589 122.268 607.194 122.469 606.91 122.871C606.631 123.273 606.491 123.866 606.491 124.648ZM619.383 124.439H617.593V128H615.987V118.758H619.237C620.304 118.758 621.127 118.997 621.707 119.475C622.286 119.953 622.576 120.645 622.576 121.551C622.576 122.169 622.426 122.687 622.125 123.106C621.829 123.521 621.415 123.84 620.881 124.064L622.957 127.917V128H621.237L619.383 124.439ZM617.593 123.15H619.244C619.785 123.15 620.208 123.015 620.513 122.744C620.818 122.469 620.97 122.095 620.97 121.621C620.97 121.125 620.828 120.743 620.545 120.472C620.266 120.201 619.847 120.061 619.288 120.053H617.593V123.15ZM625.706 124.566V128H624.1V118.758H627.635C628.668 118.758 629.487 119.027 630.092 119.564C630.701 120.101 631.006 120.812 631.006 121.697C631.006 122.602 630.708 123.307 630.111 123.811C629.518 124.314 628.687 124.566 627.616 124.566H625.706ZM625.706 123.277H627.635C628.207 123.277 628.642 123.144 628.943 122.877C629.243 122.607 629.394 122.217 629.394 121.709C629.394 121.21 629.241 120.812 628.937 120.516C628.632 120.216 628.213 120.061 627.68 120.053H625.706V123.277ZM639.467 124.991C639.374 125.977 639.01 126.747 638.375 127.302C637.741 127.852 636.896 128.127 635.843 128.127C635.106 128.127 634.457 127.953 633.894 127.606C633.335 127.255 632.904 126.758 632.599 126.115C632.294 125.472 632.136 124.725 632.123 123.874V123.011C632.123 122.139 632.278 121.371 632.586 120.707C632.895 120.042 633.338 119.53 633.913 119.17C634.493 118.811 635.161 118.631 635.919 118.631C636.939 118.631 637.76 118.908 638.382 119.462C639.004 120.017 639.366 120.8 639.467 121.811H637.868C637.792 121.147 637.597 120.668 637.284 120.376C636.975 120.08 636.52 119.932 635.919 119.932C635.221 119.932 634.683 120.188 634.307 120.7C633.934 121.208 633.744 121.955 633.735 122.941V123.76C633.735 124.758 633.913 125.52 634.269 126.045C634.628 126.57 635.153 126.832 635.843 126.832C636.473 126.832 636.947 126.69 637.265 126.407C637.582 126.123 637.783 125.651 637.868 124.991H639.467Z" fill="white"/>
<rect x="544.5" y="90.5" width="158" height="49" rx="4.5" stroke="#202020"/>
<rect x="537" y="108" width="14" height="14" rx="4" fill="#5E7B9C" stroke="#202020" stroke-width="2"/>
<rect x="696" y="108" width="14" height="14" rx="4" fill="#5E7B9C" stroke="#202020" stroke-width="2"/>
<rect x="544.5" y="180.5" width="158" height="49" rx="4.5" fill="white"/>
<rect x="544.5" y="180.5" width="158" height="49" rx="4.5" fill="#305680" fill-opacity="0.78"/>
<path d="M561 211H579V209H561V211ZM561 206H579V204H561V206ZM561 199V201H579V199H561Z" fill="white"/>
<path d="M592.165 201H590.99V191.25H592.165V201ZM593.739 197.502C593.739 196.83 593.87 196.224 594.132 195.687C594.399 195.15 594.767 194.735 595.237 194.443C595.711 194.151 596.25 194.005 596.855 194.005C597.791 194.005 598.546 194.329 599.122 194.976C599.701 195.624 599.991 196.485 599.991 197.56V197.642C599.991 198.311 599.862 198.912 599.604 199.445C599.35 199.974 598.984 200.386 598.506 200.683C598.032 200.979 597.486 201.127 596.868 201.127C595.937 201.127 595.182 200.803 594.602 200.156C594.027 199.508 593.739 198.651 593.739 197.585V197.502ZM594.919 197.642C594.919 198.404 595.095 199.015 595.446 199.477C595.802 199.938 596.276 200.168 596.868 200.168C597.465 200.168 597.939 199.936 598.29 199.47C598.641 199 598.817 198.345 598.817 197.502C598.817 196.749 598.637 196.14 598.277 195.674C597.922 195.205 597.448 194.97 596.855 194.97C596.276 194.97 595.808 195.2 595.453 195.662C595.097 196.123 594.919 196.783 594.919 197.642ZM601.185 197.509C601.185 196.438 601.432 195.588 601.927 194.957C602.422 194.322 603.078 194.005 603.895 194.005C604.733 194.005 605.387 194.301 605.856 194.894L605.914 194.132H606.986V200.835C606.986 201.724 606.722 202.424 606.193 202.936C605.668 203.448 604.961 203.704 604.073 203.704C603.578 203.704 603.093 203.598 602.619 203.387C602.145 203.175 601.783 202.885 601.534 202.517L602.143 201.812C602.647 202.435 603.262 202.746 603.99 202.746C604.562 202.746 605.006 202.585 605.323 202.263C605.645 201.942 605.806 201.489 605.806 200.905V200.314C605.336 200.856 604.695 201.127 603.882 201.127C603.078 201.127 602.427 200.803 601.927 200.156C601.432 199.508 601.185 198.626 601.185 197.509ZM602.365 197.642C602.365 198.417 602.524 199.026 602.841 199.47C603.159 199.91 603.603 200.13 604.174 200.13C604.915 200.13 605.459 199.794 605.806 199.121V195.985C605.446 195.329 604.906 195.001 604.187 195.001C603.616 195.001 603.169 195.224 602.848 195.668C602.526 196.112 602.365 196.77 602.365 197.642Z" fill="white"/>
<path d="M592.545 216.718H596.741V218H590.939V208.758H592.545V216.718ZM597.535 214.502C597.535 213.83 597.668 213.224 597.935 212.687C598.201 212.145 598.576 211.731 599.058 211.443C599.541 211.151 600.095 211.005 600.721 211.005C601.648 211.005 602.399 211.303 602.975 211.9C603.554 212.497 603.868 213.288 603.914 214.274L603.92 214.636C603.92 215.313 603.789 215.918 603.527 216.451C603.269 216.984 602.896 217.397 602.41 217.689C601.927 217.981 601.369 218.127 600.734 218.127C599.765 218.127 598.988 217.805 598.404 217.162C597.825 216.515 597.535 215.653 597.535 214.579V214.502ZM599.077 214.636C599.077 215.342 599.223 215.897 599.515 216.299C599.807 216.697 600.213 216.896 600.734 216.896C601.254 216.896 601.659 216.692 601.946 216.286C602.238 215.88 602.384 215.285 602.384 214.502C602.384 213.808 602.234 213.258 601.934 212.852C601.637 212.446 601.233 212.243 600.721 212.243C600.218 212.243 599.818 212.444 599.521 212.846C599.225 213.243 599.077 213.84 599.077 214.636ZM604.955 214.515C604.955 213.449 605.205 212.598 605.704 211.963C606.208 211.324 606.874 211.005 607.704 211.005C608.486 211.005 609.102 211.278 609.551 211.824L609.621 211.132H611.011V217.791C611.011 218.692 610.729 219.403 610.167 219.923C609.608 220.444 608.853 220.704 607.9 220.704C607.397 220.704 606.904 220.598 606.421 220.387C605.943 220.179 605.579 219.906 605.33 219.568L606.06 218.641C606.534 219.204 607.118 219.485 607.812 219.485C608.324 219.485 608.728 219.346 609.024 219.066C609.32 218.791 609.468 218.385 609.468 217.848V217.384C609.024 217.879 608.431 218.127 607.691 218.127C606.887 218.127 606.229 217.807 605.717 217.168C605.209 216.529 604.955 215.645 604.955 214.515ZM606.491 214.648C606.491 215.338 606.631 215.882 606.91 216.28C607.194 216.673 607.585 216.87 608.084 216.87C608.707 216.87 609.168 216.604 609.468 216.07V213.049C609.176 212.528 608.719 212.268 608.097 212.268C607.589 212.268 607.194 212.469 606.91 212.871C606.631 213.273 606.491 213.866 606.491 214.648ZM623.363 213.62C623.363 214.526 623.207 215.321 622.894 216.007C622.58 216.688 622.132 217.213 621.548 217.581C620.968 217.945 620.299 218.127 619.542 218.127C618.793 218.127 618.124 217.945 617.536 217.581C616.952 217.213 616.499 216.69 616.178 216.013C615.86 215.336 615.7 214.555 615.695 213.671V213.15C615.695 212.249 615.854 211.453 616.171 210.764C616.493 210.074 616.944 209.547 617.523 209.183C618.107 208.815 618.776 208.631 619.529 208.631C620.283 208.631 620.949 208.813 621.529 209.177C622.113 209.536 622.563 210.057 622.881 210.738C623.198 211.415 623.359 212.205 623.363 213.106V213.62ZM621.757 213.138C621.757 212.114 621.563 211.329 621.173 210.783C620.788 210.237 620.24 209.964 619.529 209.964C618.835 209.964 618.292 210.237 617.898 210.783C617.509 211.324 617.31 212.092 617.301 213.087V213.62C617.301 214.636 617.498 215.421 617.892 215.975C618.289 216.529 618.84 216.807 619.542 216.807C620.253 216.807 620.799 216.536 621.18 215.994C621.565 215.452 621.757 214.661 621.757 213.62V213.138ZM626.747 209.462V211.132H627.959V212.274H626.747V216.108C626.747 216.371 626.797 216.561 626.899 216.68C627.005 216.794 627.191 216.851 627.458 216.851C627.635 216.851 627.815 216.83 627.997 216.788V217.981C627.646 218.078 627.307 218.127 626.981 218.127C625.797 218.127 625.204 217.473 625.204 216.166V212.274H624.074V211.132H625.204V209.462H626.747ZM630.663 211.881C631.167 211.297 631.804 211.005 632.574 211.005C634.038 211.005 634.781 211.841 634.802 213.512V218H633.259V213.569C633.259 213.095 633.156 212.761 632.948 212.566C632.745 212.368 632.445 212.268 632.047 212.268C631.429 212.268 630.968 212.543 630.663 213.093V218H629.121V208.25H630.663V211.881ZM639.391 218.127C638.414 218.127 637.62 217.82 637.011 217.207C636.406 216.589 636.103 215.768 636.103 214.744V214.553C636.103 213.868 636.234 213.256 636.497 212.719C636.763 212.177 637.136 211.756 637.614 211.456C638.092 211.155 638.625 211.005 639.213 211.005C640.149 211.005 640.87 211.303 641.378 211.9C641.89 212.497 642.146 213.341 642.146 214.433V215.055H637.658C637.705 215.622 637.893 216.07 638.223 216.4C638.557 216.73 638.976 216.896 639.48 216.896C640.187 216.896 640.762 216.61 641.207 216.039L642.038 216.832C641.763 217.243 641.395 217.562 640.934 217.791C640.477 218.015 639.962 218.127 639.391 218.127ZM639.207 212.243C638.784 212.243 638.441 212.391 638.179 212.687C637.921 212.983 637.756 213.396 637.684 213.925H640.623V213.811C640.589 213.294 640.451 212.905 640.21 212.643C639.969 212.376 639.634 212.243 639.207 212.243ZM646.945 212.541C646.742 212.507 646.532 212.49 646.316 212.49C645.61 212.49 645.134 212.761 644.888 213.303V218H643.346V211.132H644.818L644.856 211.9C645.229 211.303 645.745 211.005 646.405 211.005C646.625 211.005 646.807 211.035 646.951 211.094L646.945 212.541Z" fill="white"/>
<rect x="544.5" y="180.5" width="158" height="49" rx="4.5" stroke="#202020"/>
<rect x="537" y="198" width="14" height="14" rx="4" fill="#5E7B9C" stroke="#202020" stroke-width="2"/>
<rect x="696" y="198" width="14" height="14" rx="4" fill="#5E7B9C" stroke="#202020" stroke-width="2"/>
<rect x="0.5" y="0.5" width="112" height="49" rx="4.5" fill="white"/>
<rect x="0.5" y="0.5" width="112" height="49" rx="4.5" fill="#305680" fill-opacity="0.78"/>
<path d="M25 20L23.6 21.4L26.2 24H16V26H26.2L23.6 28.6L25 30L30 25L25 20ZM34 32H26V34H34C35.1 34 36 33.1 36 32V18C36 16.9 35.1 16 34 16H26V18H34V32Z" fill="white"/>
<path d="M48.3804 29H47.1616V19.7578H48.3804V29ZM51.5415 22.1318L51.5796 22.9951C52.1043 22.335 52.7899 22.0049 53.6362 22.0049C55.0877 22.0049 55.8198 22.8237 55.8325 24.4614V29H54.6582V24.4551C54.654 23.96 54.5397 23.5939 54.3154 23.3569C54.0954 23.12 53.7505 23.0015 53.2808 23.0015C52.8999 23.0015 52.5656 23.103 52.2778 23.3062C51.9901 23.5093 51.7658 23.7759 51.605 24.106V29H50.4307V22.1318H51.5415ZM63.4053 25.6421C63.4053 26.6873 63.1662 27.5295 62.688 28.1685C62.2098 28.8075 61.5623 29.127 60.7456 29.127C59.9119 29.127 59.256 28.8625 58.7778 28.3335V31.6406H57.6035V22.1318H58.6763L58.7334 22.8936C59.2116 22.3011 59.876 22.0049 60.7266 22.0049C61.5518 22.0049 62.2035 22.3159 62.6816 22.938C63.1641 23.5601 63.4053 24.4255 63.4053 25.5342V25.6421ZM62.231 25.5088C62.231 24.7344 62.0659 24.1229 61.7358 23.6743C61.4058 23.2257 60.953 23.0015 60.3774 23.0015C59.6665 23.0015 59.1333 23.3167 58.7778 23.9473V27.229C59.1291 27.8553 59.6665 28.1685 60.3901 28.1685C60.953 28.1685 61.3994 27.9463 61.7295 27.502C62.0638 27.0534 62.231 26.389 62.231 25.5088ZM69.1436 28.3208C68.6865 28.8582 68.0158 29.127 67.1313 29.127C66.3993 29.127 65.8407 28.9154 65.4556 28.4922C65.0747 28.0648 64.8822 27.4342 64.8779 26.6006V22.1318H66.0522V26.5688C66.0522 27.6099 66.4754 28.1304 67.3218 28.1304C68.2189 28.1304 68.8156 27.7961 69.1118 27.1274V22.1318H70.2861V29H69.1689L69.1436 28.3208ZM73.6694 20.4688V22.1318H74.9517V23.0396H73.6694V27.2988C73.6694 27.5739 73.7266 27.7812 73.8408 27.9209C73.9551 28.0563 74.1497 28.124 74.4248 28.124C74.5602 28.124 74.7464 28.0986 74.9834 28.0479V29C74.6745 29.0846 74.374 29.127 74.082 29.127C73.5573 29.127 73.1616 28.9683 72.895 28.6509C72.6284 28.3335 72.4951 27.8828 72.4951 27.2988V23.0396H71.2446V22.1318H72.4951V20.4688H73.6694Z" fill="white"/>
<rect x="0.5" y="0.5" width="112" height="49" rx="4.5" stroke="#202020"/>
<rect x="106" y="18" width="14" height="14" rx="4" fill="#5E7B9C" stroke="#202020" stroke-width="2"/>
</svg>
