<svg width="37" height="37" viewBox="0 0 37 37" fill="none" xmlns="http://www.w3.org/2000/svg">
<path fill-rule="evenodd" clip-rule="evenodd" d="M11.7076 10.293C11.3171 9.90249 10.6839 9.90249 10.2934 10.293C9.90286 10.6835 9.90286 11.3167 10.2934 11.7072L17.0863 18.5001L10.2937 25.2927C9.9032 25.6832 9.9032 26.3164 10.2937 26.7069C10.6842 27.0974 11.3174 27.0974 11.7079 26.7069L18.5005 19.9143L25.293 26.7069C25.6836 27.0974 26.3167 27.0974 26.7073 26.7069C27.0978 26.3164 27.0978 25.6832 26.7073 25.2927L19.9147 18.5001L26.7076 11.7072C27.0981 11.3167 27.0981 10.6835 26.7076 10.293C26.3171 9.90249 25.6839 9.90249 25.2934 10.293L18.5005 17.0859L11.7076 10.293Z" fill="#212529"/>
</svg>
