<svg width="24" height="24" fill="none" xmlns="http://www.w3.org/2000/svg"><path fill-rule="evenodd" clip-rule="evenodd" d="M14 8.194a1 1 0 0 0-1 1v11a1 1 0 0 0 1 1h7a1 1 0 0 0 1-1v-11a1 1 0 0 0-1-1h-7Zm1.5 5a.5.5 0 0 0 0 1h4a.5.5 0 0 0 0-1h-4Zm-.5 2.5a.5.5 0 0 1 .5-.5h4a.5.5 0 0 1 0 1h-4a.5.5 0 0 1-.5-.5Zm.5 1.5a.5.5 0 0 0 0 1h4a.5.5 0 0 0 0-1h-4Z" fill="#D4E5FB"/><path fill-rule="evenodd" clip-rule="evenodd" d="M2 7.39a1 1 0 0 1 .469-.848l7-4.388A1 1 0 0 1 11 3.002v17.193a1 1 0 0 1-1 1H3a1 1 0 0 1-1-1V7.389Zm2 4.305a.5.5 0 0 1 .5-.5h4a.5.5 0 0 1 0 1h-4a.5.5 0 0 1-.5-.5Zm.5 1.5a.5.5 0 0 0 0 1h4a.5.5 0 1 0 0-1h-4Zm-.5 2.5a.5.5 0 0 1 .5-.5h4a.5.5 0 0 1 0 1h-4a.5.5 0 0 1-.5-.5Zm.5 1.5a.5.5 0 0 0 0 1h4a.5.5 0 1 0 0-1h-4Z" fill="#2A7DEC"/></svg>