<svg width="24" height="24" fill="none" xmlns="http://www.w3.org/2000/svg"><path d="M14 12.434a1 1 0 0 0-.38-.785l-3-2.37a1 1 0 0 0-1.62.785V21a1 1 0 0 0 1 1h3a1 1 0 0 0 1-1v-8.566Z" fill="#D4E5FB"/><path d="M8 6a1 1 0 0 0-1-1H4a1 1 0 0 0-1 1v15a1 1 0 0 0 1 1h3a1 1 0 0 0 1-1V6ZM15 8.073a1 1 0 0 1 .315-.728l4-3.761c.638-.6 1.685-.148 1.685.729V21a1 1 0 0 1-1 1h-4a1 1 0 0 1-1-1V8.073Z" fill="#2A7DEC"/><path d="M22 20a1 1 0 0 0-1-1h-4a1 1 0 0 0-1 1v1a1 1 0 0 0 1 1h4a1 1 0 0 0 1-1v-1Z" fill="#D4E5FB"/><path d="M13 20a1 1 0 0 0-1-1H3a1 1 0 0 0-1 1v1a1 1 0 0 0 1 1h9a1 1 0 0 0 1-1v-1Z" fill="#2A7DEC"/></svg>