<svg width="92" height="92" viewBox="0 0 92 92" fill="none" xmlns="http://www.w3.org/2000/svg">
<g clip-path="url(#clip0)">
<g filter="url(#filter0_d)">
<path fill-rule="evenodd" clip-rule="evenodd" d="M72.0008 14.0005L72.0004 13.9996L71.9995 13.9992L72.0008 14.0005ZM74.6134 11.3866C74.4177 10.9139 74.0416 10.5158 73.5317 10.3043C73.0573 10.1076 72.5387 10 72 10L67.6667 10C66.5621 10 65.6667 10.8954 65.6667 12C65.6667 13.1046 66.5621 14 67.6667 14L72.0008 14.0005L72 18.3333C72 19.4379 72.8954 20.3333 74 20.3333C75.1046 20.3333 76 19.4379 76 18.3333L76 14C76 13.4613 75.8924 12.9427 75.6957 12.4683C75.4842 11.9584 75.0861 11.5823 74.6134 11.3866ZM74 25C75.1046 25 76 25.8954 76 27L76 33.6667C76 34.7712 75.1046 35.6667 74 35.6667C72.8954 35.6667 72 34.7712 72 33.6667L72 27C72 25.8954 72.8954 25 74 25ZM74 40.3333C75.1046 40.3333 76 41.2288 76 42.3333L76 49C76 50.1046 75.1046 51 74 51C72.8954 51 72 50.1046 72 49L72 42.3333C72 41.2288 72.8954 40.3333 74 40.3333ZM74 55.6667C75.1046 55.6667 76 56.5621 76 57.6667L76 62C76 62.5387 75.8924 63.0573 75.6957 63.5317C75.4842 64.0417 75.0861 64.4177 74.6134 64.6134C74.4177 65.0861 74.0416 65.4842 73.5317 65.6957C73.0573 65.8924 72.5387 66 72 66L67.6667 66C66.5621 66 65.6667 65.1046 65.6667 64C65.6667 62.8954 66.5621 62 67.6667 62L72 62L72 57.6667C72 56.5621 72.8954 55.6667 74 55.6667ZM61 12C61 13.1046 60.1046 14 59 14L50.3333 14C49.2288 14 48.3333 13.1046 48.3333 12C48.3333 10.8954 49.2288 10 50.3333 10L59 10C60.1046 10 61 10.8954 61 12ZM61 64C61 65.1046 60.1046 66 59 66L55.3333 66C54.2288 66 53.3333 65.1046 53.3333 64C53.3333 62.8954 54.2288 62 55.3333 62L59 62C60.1046 62 61 62.8954 61 64ZM43.6667 12C43.6667 13.1046 42.7712 14 41.6667 14L33 14C31.8954 14 31 13.1046 31 12C31 10.8954 31.8954 10 33 10L41.6667 10C42.7712 10 43.6667 10.8954 43.6667 12ZM26.3333 12C26.3333 13.1046 25.4379 14 24.3333 14L20 14L20 18.3333C20 19.4379 19.1046 20.3333 18 20.3333C16.8954 20.3333 16 19.4379 16 18.3333L16 14C16 13.4613 16.1076 12.9427 16.3043 12.4683C16.5158 11.9584 16.9139 11.5823 17.3866 11.3866C17.5823 10.9139 17.9584 10.5158 18.4683 10.3043C18.9427 10.1076 19.4613 10 20 10L24.3333 10C25.4379 10 26.3333 10.8954 26.3333 12ZM18 25C19.1046 25 20 25.8954 20 27L20 33.6667C20 34.7712 19.1046 35.6667 18 35.6667C16.8954 35.6667 16 34.7712 16 33.6667L16 27C16 25.8954 16.8954 25 18 25Z" fill="#305680"/>
<path fill-rule="evenodd" clip-rule="evenodd" d="M16 45C16 43.3431 17.3431 42 19 42H45C46.6569 42 48 43.3431 48 45V47C48 48.6569 46.6569 50 45 50H19C17.3431 50 16 48.6569 16 47V45ZM21 46C21 46.5523 20.5523 47 20 47C19.4477 47 19 46.5523 19 46C19 45.4477 19.4477 45 20 45C20.5523 45 21 45.4477 21 46ZM24 47C24.5523 47 25 46.5523 25 46C25 45.4477 24.5523 45 24 45C23.4477 45 23 45.4477 23 46C23 46.5523 23.4477 47 24 47Z" fill="#2A7DEC"/>
<path fill-rule="evenodd" clip-rule="evenodd" d="M16 53C16 51.3431 17.3431 50 19 50H45C46.6569 50 48 51.3431 48 53V55C48 56.6569 46.6569 58 45 58H19C17.3431 58 16 56.6569 16 55V53ZM33 54C33 53.4477 33.4477 53 34 53H40C40.5523 53 41 53.4477 41 54C41 54.5523 40.5523 55 40 55H34C33.4477 55 33 54.5523 33 54ZM44 55C44.5523 55 45 54.5523 45 54C45 53.4477 44.5523 53 44 53C43.4477 53 43 53.4477 43 54C43 54.5523 43.4477 55 44 55Z" fill="#2A7DEC"/>
<path fill-rule="evenodd" clip-rule="evenodd" d="M19 58C17.3431 58 16 59.3431 16 61V63C16 64.6569 17.3431 66 19 66H45C46.6569 66 48 64.6569 48 63V61C48 59.3431 46.6569 58 45 58H19ZM24 61C23.4477 61 23 61.4477 23 62C23 62.5523 23.4477 63 24 63H40C40.5523 63 41 62.5523 41 62C41 61.4477 40.5523 61 40 61H24ZM21 62C21 62.5523 20.5523 63 20 63C19.4477 63 19 62.5523 19 62C19 61.4477 19.4477 61 20 61C20.5523 61 21 61.4477 21 62ZM44 63C44.5523 63 45 62.5523 45 62C45 61.4477 44.5523 61 44 61C43.4477 61 43 61.4477 43 62C43 62.5523 43.4477 63 44 63Z" fill="#2A7DEC"/>
<path d="M67.001 18.0005C67.5533 18.0005 68.001 18.4482 68.001 19.0005L68.0009 24.5865C68.0009 25.4774 66.9238 25.9235 66.2938 25.2936L60.7074 19.7073C60.0774 19.0773 60.5236 18.0001 61.4145 18.0002L67.001 18.0005Z" fill="#2A7DEC"/>
<rect x="50" y="33" width="18" height="4" transform="rotate(-45 50 33)" fill="#2A7DEC"/>
<path d="M48.9994 38.0002C48.4471 38.0001 47.9994 37.5524 47.9994 37.0001L47.9995 31.4142C47.9995 30.5233 49.0766 30.0771 49.7065 30.7071L55.293 36.2934C55.923 36.9234 55.4768 38.0005 54.5858 38.0005L48.9994 38.0002Z" fill="#2A7DEC"/>
</g>
</g>
<defs>
<filter id="filter0_d" x="-4" y="-2" width="100" height="100" filterUnits="userSpaceOnUse" color-interpolation-filters="sRGB">
<feFlood flood-opacity="0" result="BackgroundImageFix"/>
<feColorMatrix in="SourceAlpha" type="matrix" values="0 0 0 0 0 0 0 0 0 0 0 0 0 0 0 0 0 0 127 0"/>
<feOffset dy="10"/>
<feGaussianBlur stdDeviation="10"/>
<feColorMatrix type="matrix" values="0 0 0 0 0 0 0 0 0 0 0 0 0 0 0 0 0 0 0.1 0"/>
<feBlend mode="normal" in2="BackgroundImageFix" result="effect1_dropShadow"/>
<feBlend mode="normal" in="SourceGraphic" in2="effect1_dropShadow" result="shape"/>
</filter>
<clipPath id="clip0">
<rect width="92" height="92" fill="white"/>
</clipPath>
</defs>
</svg>
