<svg width="24" height="24" fill="none" xmlns="http://www.w3.org/2000/svg"><path d="M12.09 6.09c-2.337-.259-6.456 2.163-4.545 6.69 1.234 2.921 1.819 3.376 2.078 5.843l2.338-.065m-2.467 1.819h5M10.662 22h2.403m5.52-11.429h2.337m-4.35-4.74 1.623-1.623m-6.364 0V2M7.286 5.831 5.662 4.208m-.39 6.363H3" stroke="#2A7DEC" stroke-width="1.5" stroke-linecap="round" stroke-linejoin="round"/><path fill-rule="evenodd" clip-rule="evenodd" d="M12 7h1.028c.128 0 .23.089.252.214l.192 1.322c.316.125.606.297.868.49l1.28-.5a.259.259 0 0 1 .315.115l1.023 1.729c.064.11.043.245-.064.318l-1.087.822c.027.157.048.329.048.49 0 .162-.01.333-.037.49l1.086.822a.25.25 0 0 1 .064.318l-1.027 1.73c-.065.114-.198.15-.316.114l-1.28-.5a3.81 3.81 0 0 1-.867.49l-.193 1.322a.261.261 0 0 1-.257.214H12v-3.125c1.06 0 1.928-.844 1.928-1.875 0-1.031-.868-1.875-1.928-1.875V7Z" fill="#D4E5FB"/></svg>