<svg width="24" height="24" viewBox="0 0 24 24" fill="none" xmlns="http://www.w3.org/2000/svg">
<path opacity="0.05" d="M2 2H22V22H2V2Z" fill="#C4C4C4"/>
<path d="M7 20C7 19.4477 7.44772 19 8 19H16C16.5523 19 17 19.4477 17 20V20C17 20.5523 16.5523 21 16 21H8C7.44772 21 7 20.5523 7 20V20Z" fill="#2A7DEC"/>
<path d="M7 17C7 16.4477 7.44772 16 8 16H16C16.5523 16 17 16.4477 17 17V17C17 17.5523 16.5523 18 16 18H8C7.44772 18 7 17.5523 7 17V17Z" fill="#2A7DEC"/>
<path d="M9 21H15V21C15 21.5523 14.5523 22 14 22H10C9.44772 22 9 21.5523 9 21V21Z" fill="#2A7DEC"/>
<path fill-rule="evenodd" clip-rule="evenodd" d="M20 10C20 14.4183 16.4183 18 12 18C7.58172 18 4 14.4183 4 10C4 5.58172 7.58172 2 12 2C16.4183 2 20 5.58172 20 10ZM13 6.65139V9H14.0657C14.4651 9 14.7033 9.44507 14.4818 9.77735L11.916 13.626C11.6416 14.0376 11 13.8433 11 13.3486L11 11H9.93426C9.53491 11 9.29671 10.5549 9.51823 10.2227L12.084 6.37404C12.3584 5.96242 13 6.15668 13 6.65139Z" fill="#2A7DEC"/>
</svg>
