<svg width="24" height="24" viewBox="0 0 24 24" fill="none" xmlns="http://www.w3.org/2000/svg">
<path d="M8.21777 14.3682L10.1598 12.4261L11.574 13.8403L9.63199 15.7824L8.21777 14.3682Z" fill="#212529"/>
<path d="M4.72825 19.272C4.05368 18.5974 4.05368 17.5037 4.72825 16.8291L6.85264 14.7047C7.52721 14.0302 8.6209 14.0302 9.29547 14.7047C9.97004 15.3793 9.97004 16.473 9.29547 17.1476L7.17108 19.2719C6.49651 19.9465 5.40282 19.9465 4.72825 19.272Z" fill="#212529"/>
<path fill-rule="evenodd" clip-rule="evenodd" d="M14 14.2857C16.3669 14.2857 18.2857 12.3669 18.2857 10C18.2857 7.63307 16.3669 5.71429 14 5.71429C11.6331 5.71429 9.71429 7.63307 9.71429 10C9.71429 12.3669 11.6331 14.2857 14 14.2857ZM14 16C17.3137 16 20 13.3137 20 10C20 6.68629 17.3137 4 14 4C10.6863 4 8 6.68629 8 10C8 13.3137 10.6863 16 14 16Z" fill="#212529"/>
</svg>
