<svg width="30" height="22" viewBox="0 0 30 22" fill="none" xmlns="http://www.w3.org/2000/svg">
<path fill-rule="evenodd" clip-rule="evenodd" d="M0 1.87499C0 0.839468 0.839466 1.52588e-05 1.875 1.52588e-05H28.125C29.1605 1.52588e-05 30 0.839468 30 1.87499V4.12505C30 5.16056 29.1605 6.00002 28.125 6.00002H1.875C0.839465 6.00002 0 5.16056 0 4.12505V1.87499Z" fill="#305680"/>
<rect x="2" y="6.00002" width="26" height="2" fill="#0D2743"/>
<rect x="2" y="14" width="26" height="2" fill="#0D2743"/>
<path fill-rule="evenodd" clip-rule="evenodd" d="M0 17.875C0 16.8395 0.839466 16 1.875 16H28.125C29.1605 16 30 16.8395 30 17.875V20.125C30 21.1605 29.1605 22 28.125 22H1.875C0.839465 22 0 21.1605 0 20.125C0 19.0895 0 17.875 0 17.875Z" fill="#305680"/>
<path fill-rule="evenodd" clip-rule="evenodd" d="M0 9.87502C0 8.83948 0.839466 8.00002 1.875 8.00002H28.125C29.1605 8.00002 30 8.83948 30 9.87502V12.125C30 13.1605 29.1605 14 28.125 14H1.875C0.839465 14 0 13.1605 0 12.125L0 9.87502Z" fill="#305680"/>
<path d="M9 19.5C9 19.2239 9.22386 19 9.5 19H24.5C24.7761 19 25 19.2239 25 19.5C25 19.7762 24.7761 20 24.5 20H9.5C9.22386 20 9 19.7762 9 19.5Z" fill="white"/>
<circle cx="4" cy="3.00002" r="1" fill="white"/>
<circle cx="4" cy="19" r="1" fill="white"/>
<circle cx="23" cy="11" r="1" fill="white"/>
<circle cx="7" cy="3.00002" r="1" fill="white"/>
<circle cx="26" cy="11" r="1" fill="white"/>
</svg>
