<svg width="64" height="64" viewBox="0 0 64 64" fill="none" xmlns="http://www.w3.org/2000/svg">
<path d="M37.3333 33.1562C37.3333 32.3402 36.9597 31.5693 36.3195 31.0634L28.3195 24.7455C26.5707 23.3645 24 24.61 24 26.8384V56.001C24 57.4738 25.1939 58.6677 26.6667 58.6677H34.6667C36.1395 58.6677 37.3333 57.4738 37.3333 56.001V33.1562Z" fill="#D4E5FB"/>
<path d="M21.3333 16C21.3333 14.5273 20.1394 13.3334 18.6667 13.3334H10.6667C9.19392 13.3334 8 14.5273 8 16V56C8 57.4728 9.19392 58.6667 10.6667 58.6667H18.6667C20.1394 58.6667 21.3333 57.4728 21.3333 56V16Z" fill="#2A7DEC"/>
<path d="M40 21.5286C40 20.7928 40.304 20.0897 40.84 19.5857L51.5067 9.55725C53.2088 7.95693 56 9.16375 56 11.5001V55.9995C56 57.4723 54.8061 58.6661 53.3333 58.6661H42.6667C41.1939 58.6661 40 57.4723 40 55.9995V21.5286Z" fill="#2A7DEC"/>
<path d="M58.6665 53.3333C58.6665 51.8605 57.4726 50.6666 55.9998 50.6666H45.3332C43.8604 50.6666 42.6665 51.8605 42.6665 53.3333V56C42.6665 57.4728 43.8604 58.6666 45.3332 58.6666H55.9998C57.4726 58.6666 58.6665 57.4728 58.6665 56V53.3333Z" fill="#D4E5FB"/>
<path d="M34.6668 53.3333C34.6668 51.8605 33.473 50.6666 32.0002 50.6666H8.00016C6.52742 50.6666 5.3335 51.8605 5.3335 53.3333V56C5.3335 57.4728 6.52742 58.6666 8.00016 58.6666H32.0002C33.473 58.6666 34.6668 57.4728 34.6668 56V53.3333Z" fill="#2A7DEC"/>
</svg>
