<svg width="20" height="20" viewBox="0 0 20 20" fill="none" xmlns="http://www.w3.org/2000/svg">
<path d="M20 10.232C20 15.9493 16.0892 20 10.202 20C4.56505 20 0 15.5253 0 10C0 4.47467 4.56505 0 10.202 0C12.9579 0 15.254 0.982667 17.0373 2.61867L14.2678 5.224C13.5156 4.51467 12.1934 3.68267 10.2034 3.68267C6.7238 3.68267 3.88492 6.508 3.88492 10C3.88492 13.492 6.72516 16.316 10.2034 16.316C14.2406 16.316 15.7573 13.4653 15.994 12.0053H10.2034V8.568H19.834C19.9306 9.072 20 9.57733 20 10.232Z" fill="#847989"/>
</svg>
