<svg width="20" height="20" viewBox="0 0 20 20" fill="none" xmlns="http://www.w3.org/2000/svg">
<path fill-rule="evenodd" clip-rule="evenodd" d="M9.9994 0C7.62473 0.000372858 5.32769 0.838221 3.51927 2.36363C1.71085 3.88903 0.509071 6.00245 0.12897 8.32573C-0.251131 10.649 0.215249 13.0305 1.44466 15.0442C2.67407 17.0578 4.58629 18.5722 6.83915 19.3163C7.33917 19.4072 7.52167 19.1012 7.52167 18.8385C7.52167 18.6032 7.51302 17.9799 7.50817 17.1528C4.7265 17.7518 4.13957 15.8242 4.13957 15.8242C3.9558 15.2251 3.56201 14.7109 3.02928 14.3744C2.12133 13.7594 3.09797 13.7719 3.09797 13.7719C3.41491 13.8153 3.71766 13.9299 3.98311 14.1069C4.24857 14.2839 4.46972 14.5187 4.62969 14.7933C4.76515 15.0378 4.94819 15.2533 5.1682 15.4273C5.38822 15.6012 5.64085 15.7302 5.91149 15.8068C6.18212 15.8834 6.4654 15.9061 6.74492 15.8734C7.02444 15.8408 7.29467 15.7536 7.53997 15.6168C7.58558 15.1143 7.81072 14.6444 8.17485 14.2918C5.95428 14.0417 3.61984 13.1914 3.61984 9.39329C3.6053 8.40858 3.97391 7.45614 4.64915 6.73368C4.34406 5.8788 4.37912 4.94081 4.74719 4.11064C4.74719 4.11064 5.58681 3.84414 7.49712 5.1267C9.13595 4.68188 10.8653 4.68188 12.5041 5.1267C14.4133 3.84414 15.2514 4.11064 15.2514 4.11064C15.6204 4.94051 15.656 5.87869 15.3509 6.73368C16.0262 7.456 16.3944 8.40865 16.3788 9.39329C16.3788 13.2009 14.0407 14.0387 11.813 14.2841C12.0516 14.5244 12.2356 14.8125 12.3527 15.1291C12.4697 15.4456 12.5172 15.7833 12.4919 16.1195C12.4919 17.4446 12.4796 18.5136 12.4796 18.8385C12.4796 19.1036 12.6597 19.4119 13.1672 19.3151C15.4191 18.5696 17.33 17.0543 18.5581 15.0404C19.7862 13.0264 20.2513 10.6451 19.8704 8.32241C19.4895 5.99969 18.2873 3.88704 16.4788 2.36231C14.6704 0.837576 12.3736 0.000219144 9.9994 0V0Z" fill="#847989"/>
</svg>
