<svg width="34" height="44" viewBox="0 0 34 44" fill="none" xmlns="http://www.w3.org/2000/svg">
<path d="M24.7071 22.7071L22 20V24.5858C22 24.851 22.1054 25.1054 22.2929 25.2929L24.1464 27.1464C24.4614 27.4614 25 27.2383 25 26.7929V23.4142C25 23.149 24.8946 22.8946 24.7071 22.7071Z" fill="#2A7DEC"/>
<path d="M13.2929 22.7071L16 20V24.5858C16 24.851 15.8946 25.1054 15.7071 25.2929L13.8536 27.1464C13.5386 27.4614 13 27.2383 13 26.7929V23.4142C13 23.149 13.1054 22.8946 13.2929 22.7071Z" fill="#2A7DEC"/>
<path d="M17 26H21V32H17V26Z" fill="#D4E5FB"/>
<path d="M6 16C6 15.4477 6.44772 15 7 15H10C10.5523 15 11 15.4477 11 16C11 16.5523 10.5523 17 10 17H7C6.44772 17 6 16.5523 6 16Z" fill="#D4E5FB"/>
<path d="M5 14C5 13.4477 5.44772 13 6 13C6.55228 13 7 13.4477 7 14V34C7 34.5523 6.55228 35 6 35C5.44772 35 5 34.5523 5 34V14Z" fill="#2A7DEC"/>
<path fill-rule="evenodd" clip-rule="evenodd" d="M16.5 36C17.4049 36 18.2295 35.6566 18.8508 35.0931C19.3957 35.6525 20.1573 36 21 36C21.9697 36 22.8319 35.5399 23.3803 34.8262C23.8224 35.5312 24.6064 36 25.5 36C26.1726 36 26.7831 35.7344 27.2324 35.3024C27.4984 35.7217 27.9667 36 28.5 36C29.3284 36 30 35.3284 30 34.5C30 33.6716 29.3284 33 28.5 33C28.3126 33 28.1331 33.0344 27.9677 33.0972C27.7751 31.908 26.7436 31 25.5 31C24.8053 31 24.1768 31.2834 23.7237 31.7408C23.2478 30.713 22.2071 30 21 30C20.3959 30 19.8335 30.1786 19.3627 30.4858C18.7292 29.5871 17.6831 29 16.5 29C15.1017 29 13.8949 29.82 13.3343 31.0054C12.5846 31.0545 11.925 31.434 11.5 31.9998C11.0439 31.3927 10.3178 31 9.5 31C8.50198 31 7.64054 31.5848 7.23969 32.4304C6.8989 32.1609 6.46824 32 6 32C4.89543 32 4 32.8954 4 34C4 35.1046 4.89543 36 6 36C6.67245 36 7.26739 35.6681 7.62996 35.1592C8.08792 35.675 8.75601 36 9.5 36C10.3178 36 11.0439 35.6073 11.5 35.0002C11.9561 35.6073 12.6822 36 13.5 36C14.0034 36 14.4721 35.8512 14.8645 35.5951C15.3526 35.8536 15.9092 36 16.5 36Z" fill="#D4E5FB"/>
<path d="M16 13.5722C16 12.9998 16.1637 12.4394 16.4719 11.957L18.1573 9.31903C18.5505 8.70355 19.4495 8.70355 19.8427 9.31903L21.5281 11.957C21.8363 12.4394 22 12.9998 22 13.5722V25C22 25.5523 21.5523 26 21 26H17C16.4477 26 16 25.5523 16 25V13.5722Z" fill="#2A7DEC"/>
</svg>
