<svg width="28" height="28" viewBox="0 0 28 28" fill="none" xmlns="http://www.w3.org/2000/svg">
<path d="M21.7071 14.7071L19 12V16.5858C19 16.851 19.1054 17.1054 19.2929 17.2929L21.1464 19.1464C21.4614 19.4614 22 19.2383 22 18.7929V15.4142C22 15.149 21.8946 14.8946 21.7071 14.7071Z" fill="#2A7DEC"/>
<path d="M10.2929 14.7071L13 12V16.5858C13 16.851 12.8946 17.1054 12.7071 17.2929L10.8536 19.1464C10.5386 19.4614 10 19.2383 10 18.7929V15.4142C10 15.149 10.1054 14.8946 10.2929 14.7071Z" fill="#2A7DEC"/>
<path d="M14 18H18V24H14V18Z" fill="#D4E5FB"/>
<path d="M3 8C3 7.44772 3.44772 7 4 7H7C7.55228 7 8 7.44772 8 8V8C8 8.55228 7.55228 9 7 9H4C3.44772 9 3 8.55228 3 8V8Z" fill="#D4E5FB"/>
<path d="M2 6C2 5.44772 2.44772 5 3 5V5C3.55228 5 4 5.44772 4 6V26C4 26.5523 3.55228 27 3 27V27C2.44772 27 2 26.5523 2 26V6Z" fill="#2A7DEC"/>
<path fill-rule="evenodd" clip-rule="evenodd" d="M13.5 28C14.4049 28 15.2295 27.6566 15.8508 27.0931C16.3957 27.6525 17.1573 28 18 28C18.9697 28 19.8319 27.5399 20.3803 26.8262C20.8224 27.5312 21.6064 28 22.5 28C23.1726 28 23.7831 27.7344 24.2324 27.3024C24.4984 27.7217 24.9667 28 25.5 28C26.3284 28 27 27.3284 27 26.5C27 25.6716 26.3284 25 25.5 25C25.3126 25 25.1331 25.0344 24.9677 25.0972C24.7751 23.908 23.7436 23 22.5 23C21.8053 23 21.1768 23.2834 20.7237 23.7408C20.2478 22.713 19.2071 22 18 22C17.3959 22 16.8335 22.1786 16.3627 22.4858C15.7292 21.5871 14.6831 21 13.5 21C12.1017 21 10.8949 21.82 10.3343 23.0054C9.58455 23.0545 8.92505 23.434 8.5 23.9998C8.04388 23.3927 7.3178 23 6.5 23C5.50198 23 4.64054 23.5848 4.23969 24.4304C3.8989 24.1609 3.46824 24 3 24C1.89543 24 1 24.8954 1 26C1 27.1046 1.89543 28 3 28C3.67245 28 4.26739 27.6681 4.62996 27.1592C5.08792 27.675 5.75601 28 6.5 28C7.3178 28 8.04388 27.6073 8.5 27.0002C8.95611 27.6073 9.6822 28 10.5 28C11.0034 28 11.4721 27.8512 11.8645 27.5951C12.3526 27.8536 12.9092 28 13.5 28Z" fill="#D4E5FB"/>
<path d="M13 5.57221C13 4.99982 13.1637 4.43938 13.4719 3.95704L15.1573 1.31903C15.5505 0.703552 16.4495 0.703551 16.8427 1.31903L18.5281 3.95704C18.8363 4.43938 19 4.99982 19 5.57221V17C19 17.5523 18.5523 18 18 18H14C13.4477 18 13 17.5523 13 17V5.57221Z" fill="#2A7DEC"/>
</svg>
