<svg width="28" height="28" viewBox="0 0 28 28" fill="none" xmlns="http://www.w3.org/2000/svg">
<path d="M6 13C6 8.58172 9.58172 5 14 5V5C18.4183 5 22 8.58172 22 13V19C22 23.4183 18.4183 27 14 27V27C9.58172 27 6 23.4183 6 19V13Z" fill="#D4E5FB"/>
<path d="M1 12C1 10.3431 2.34315 9 4 9V9C4.55228 9 5 9.44772 5 10V17C5 17.5523 4.55228 18 4 18V18C2.34315 18 1 16.6569 1 15V12Z" fill="#2A7DEC"/>
<path d="M27 12C27 10.3431 25.6569 9 24 9V9C23.4477 9 23 9.44772 23 10V17C23 17.5523 23.4477 18 24 18V18C25.6569 18 27 16.6569 27 15V12Z" fill="#2A7DEC"/>
<path fill-rule="evenodd" clip-rule="evenodd" d="M14 0C8.47715 0 4 4.47715 4 10V16H5V12C5 7.02944 9.02944 3 14 3C18.9706 3 23 7.02944 23 12V16H24V10C24 4.47715 19.5228 0 14 0Z" fill="#2A7DEC"/>
<path d="M10 22.5C10 21.6716 10.6716 21 11.5 21H14.5C15.3284 21 16 21.6716 16 22.5V22.5C16 23.3284 15.3284 24 14.5 24H11.5C10.6716 24 10 23.3284 10 22.5V22.5Z" fill="#2A7DEC"/>
<path fill-rule="evenodd" clip-rule="evenodd" d="M4 17C4 19.7614 6.23858 22 9 22H12V23H9C5.68629 23 3 20.3137 3 17H4Z" fill="#2A7DEC"/>
</svg>
