<svg width="34" height="44" viewBox="0 0 34 44" fill="none" xmlns="http://www.w3.org/2000/svg">
<path d="M9 21C9 16.5817 12.5817 13 17 13C21.4183 13 25 16.5817 25 21V27C25 31.4183 21.4183 35 17 35C12.5817 35 9 31.4183 9 27V21Z" fill="#D4E5FB"/>
<path d="M4 20C4 18.3431 5.34315 17 7 17C7.55228 17 8 17.4477 8 18V25C8 25.5523 7.55228 26 7 26C5.34315 26 4 24.6569 4 23V20Z" fill="#2A7DEC"/>
<path d="M30 20C30 18.3431 28.6569 17 27 17C26.4477 17 26 17.4477 26 18V25C26 25.5523 26.4477 26 27 26C28.6569 26 30 24.6569 30 23V20Z" fill="#2A7DEC"/>
<path fill-rule="evenodd" clip-rule="evenodd" d="M17 8C11.4772 8 7 12.4772 7 18V24H8V20C8 15.0294 12.0294 11 17 11C21.9706 11 26 15.0294 26 20V24H27V18C27 12.4772 22.5228 8 17 8Z" fill="#2A7DEC"/>
<path d="M13 30.5C13 29.6716 13.6716 29 14.5 29H17.5C18.3284 29 19 29.6716 19 30.5C19 31.3284 18.3284 32 17.5 32H14.5C13.6716 32 13 31.3284 13 30.5Z" fill="#2A7DEC"/>
<path fill-rule="evenodd" clip-rule="evenodd" d="M7 25C7 27.7614 9.23858 30 12 30H15V31H12C8.68629 31 6 28.3137 6 25H7Z" fill="#2A7DEC"/>
</svg>
