<svg width="100" height="100" viewBox="0 0 100 100" fill="none" xmlns="http://www.w3.org/2000/svg">
	<path fill-rule="evenodd" clip-rule="evenodd" d="M49.3037 70.0406C60.046 70.0406 68.7545 61.0681 68.7545 50.0001C68.7545 38.9321 60.046 29.9596 49.3037 29.9596C38.5614 29.9596 29.8529 38.9321 29.8529 50.0001C29.8529 61.0681 38.5614 70.0406 49.3037 70.0406ZM49.3037 73.6843C61.9992 73.6843 72.291 63.0806 72.291 50.0001C72.291 36.9197 61.9992 26.3159 49.3037 26.3159C36.6082 26.3159 26.3164 36.9197 26.3164 50.0001C26.3164 63.0806 36.6082 73.6843 49.3037 73.6843Z" fill="#B7E4CA"/>
	<path fill-rule="evenodd" clip-rule="evenodd" d="M64.7763 64.5734C64.0439 64.5734 63.4501 65.1852 63.4501 65.9398C63.4501 66.6944 64.0439 67.3062 64.7763 67.3062C65.5087 67.3062 66.1025 66.6944 66.1025 65.9398C66.1025 65.1852 65.5087 64.5734 64.7763 64.5734ZM59.9136 65.9398C59.9136 63.1728 62.0906 60.9297 64.7763 60.9297C67.4619 60.9297 69.639 63.1728 69.639 65.9398C69.639 68.7069 67.4619 70.9499 64.7763 70.9499C62.0906 70.9499 59.9136 68.7069 59.9136 65.9398Z" fill="#1F8B4D"/>
	<path fill-rule="evenodd" clip-rule="evenodd" d="M33.8329 32.6921C33.1005 32.6921 32.5067 33.3038 32.5067 34.0585C32.5067 34.8131 33.1005 35.4249 33.8329 35.4249C34.5653 35.4249 35.1591 34.8131 35.1591 34.0585C35.1591 33.3038 34.5653 32.6921 33.8329 32.6921ZM28.9702 34.0585C28.9702 31.2914 31.1473 29.0483 33.8329 29.0483C36.5185 29.0483 38.6956 31.2914 38.6956 34.0585C38.6956 36.8255 36.5185 39.0686 33.8329 39.0686C31.1473 39.0686 28.9702 36.8255 28.9702 34.0585Z" fill="#1F8B4D"/>
	<path fill-rule="evenodd" clip-rule="evenodd" d="M36.8856 34.5748C40.2545 31.6926 44.5826 29.9596 49.3037 29.9596C50.2803 29.9596 51.072 29.144 51.072 28.1378C51.072 27.1316 50.2803 26.3159 49.3037 26.3159C44.0216 26.3159 39.1555 28.1514 35.2738 31.2373C36.2563 31.7717 36.9259 32.8347 36.9259 34.0588C36.9259 34.2345 36.9121 34.4068 36.8856 34.5748ZM34.3323 37.2056C34.1692 37.2329 34.0019 37.2471 33.8315 37.2471C32.6434 37.2471 31.6116 36.5572 31.093 35.5449C28.0979 39.5443 26.3164 44.5579 26.3164 50.0001C26.3164 51.0063 27.1081 51.822 28.0847 51.822C29.0613 51.822 29.8529 51.0063 29.8529 50.0001C29.8529 45.1359 31.5349 40.6766 34.3323 37.2056Z" fill="#1F8B4D"/>
	<path fill-rule="evenodd" clip-rule="evenodd" d="M61.7215 65.4225C58.3526 68.3047 54.0245 70.0376 49.3034 70.0376C48.3268 70.0376 47.5352 70.8533 47.5352 71.8595C47.5352 72.8657 48.3268 73.6814 49.3034 73.6814C54.5855 73.6814 59.4516 71.8458 63.3333 68.76C62.3508 68.2256 61.6812 67.1626 61.6812 65.9385C61.6812 65.7628 61.695 65.5905 61.7215 65.4225ZM64.2749 62.7917C64.4379 62.7644 64.6052 62.7502 64.7756 62.7502C65.9637 62.7502 66.9955 63.4401 67.5141 64.4524C70.5092 60.453 72.2907 55.4394 72.2907 49.9972C72.2907 48.9909 71.4991 48.1753 70.5225 48.1753C69.5458 48.1753 68.7542 48.9909 68.7542 49.9972C68.7542 54.8613 67.0722 59.3207 64.2749 62.7917Z" fill="#1F8B4D"/>
	<path fill-rule="evenodd" clip-rule="evenodd" d="M35.4246 51.0137L50.4592 36.0568C51.1497 35.3697 52.2694 35.3697 52.96 36.0568L63.6622 46.7032C64.3527 47.3901 64.3527 48.5039 63.6622 49.1908L48.6276 64.1477C47.9371 64.8346 46.8175 64.8346 46.127 64.1477L35.4246 53.5013C34.7341 52.8142 34.7341 51.7006 35.4246 51.0137ZM53.8214 43.5241C53.6438 42.8171 52.9238 42.3874 52.2131 42.5642C51.5026 42.7408 51.0705 43.4571 51.2482 44.164L52.0216 47.2416L44.7214 50.8728C44.1653 51.1493 43.877 51.7729 44.0279 52.3727L45.0593 56.4772C45.237 57.184 45.957 57.6137 46.6675 57.4371C47.3782 57.2604 47.8102 56.5441 47.6325 55.8373L46.859 52.7595L54.1594 49.1283C54.7154 48.8518 55.0036 48.2283 54.8528 47.6284L53.8214 43.5241Z" fill="#1F8B4D"/>
	<path d="M42.2182 64.3599L44.2812 62.3076V60.2554H42.2182L40.1553 62.3076C39.5856 62.8744 39.5856 63.7931 40.1553 64.3599C40.7249 64.9265 41.6486 64.9265 42.2182 64.3599Z" fill="#1F8B4D"/>
	<path d="M55.6288 59.2285L53.5658 57.1763H51.5029V59.2285L53.5658 61.2806C54.1355 61.8474 55.0591 61.8474 55.6288 61.2806C56.1985 60.714 56.1985 59.7951 55.6288 59.2285Z" fill="#1F8B4D"/>
	<path d="M37.0619 59.2416L39.1249 57.1893V55.1372H37.0619L34.9991 57.1893C34.4293 57.7561 34.4293 58.6748 34.9991 59.2416C35.5686 59.8083 36.4924 59.8083 37.0619 59.2416Z" fill="#1F8B4D"/>
	<path d="M60.7862 54.1104L58.7232 52.0581H56.6602V54.1104L58.7232 56.1625C59.2929 56.7292 60.2165 56.7292 60.7862 56.1625C61.3558 55.5959 61.3558 54.677 60.7862 54.1104Z" fill="#1F8B4D"/>
	<path d="M38.0932 45.8898L40.1562 47.942H42.2192V45.8898L40.1562 43.8377C39.5865 43.2709 38.6629 43.2709 38.0932 43.8377C37.5236 44.4043 37.5236 45.3232 38.0932 45.8898Z" fill="#1F8B4D"/>
	<path d="M61.8189 40.7586L59.7559 42.8108V44.8629H61.8189L63.8817 42.8108C64.4515 42.2441 64.4515 41.3253 63.8817 40.7586C63.3122 40.1918 62.3884 40.1918 61.8189 40.7586Z" fill="#1F8B4D"/>
	<path d="M43.2525 40.7818L45.3155 42.8341H47.3784V40.7818L45.3155 38.7298C44.7458 38.163 43.8222 38.163 43.2525 38.7298C42.6828 39.2963 42.6828 40.2153 43.2525 40.7818Z" fill="#1F8B4D"/>
	<path d="M56.6612 35.6403L54.5981 37.6925V39.7448H56.6612L58.724 37.6925C59.2937 37.1258 59.2937 36.207 58.724 35.6403C58.1545 35.0737 57.2307 35.0737 56.6612 35.6403Z" fill="#1F8B4D"/>
	<path fill-rule="evenodd" clip-rule="evenodd" d="M97.0585 50.966C97.4325 50.4385 97.483 49.7324 97.1268 49.1439L85.4223 29.8063C84.9249 28.9848 83.8237 28.7034 82.9624 29.1776L79.8478 30.8928C78.9866 31.3672 78.6916 32.4177 79.1888 33.2392L89.3329 49.9985L79.1887 66.758C78.6916 67.5795 78.9867 68.63 79.848 69.1044L82.9625 70.8195C83.8236 71.2938 84.9249 71.0124 85.4222 70.1909L97.0585 50.966Z" fill="#B7E4CA"/>
	<path fill-rule="evenodd" clip-rule="evenodd" d="M5.56782 50.9588C5.19849 50.4321 5.15011 49.7297 5.50471 49.1439L17.2087 29.8063C17.7059 28.9848 18.8071 28.7034 19.6683 29.1776L22.7828 30.8928C23.644 31.3672 23.9389 32.4177 23.4418 33.2392L13.2977 49.9992L23.4426 66.7606C23.9398 67.5821 23.6446 68.6326 22.7834 69.107L19.6691 70.8222C18.8079 71.2964 17.7067 71.015 17.2095 70.1935L5.56782 50.9588Z" fill="#B7E4CA"/>
</svg>
