<svg width="1141" height="756" viewBox="0 0 1141 756" fill="none" xmlns="http://www.w3.org/2000/svg">
<g opacity="0.3">
<path d="M997.621 329.212H860.644L784.39 511.62H581" stroke="#305680" stroke-width="1.19808"/>
<path d="M1062.33 670.366H875.376L802.109 780.59H615.159C591.466 818.23 542.608 893.509 536.715 893.509" stroke="#305680" stroke-width="1.19808"/>
<path d="M89.5462 680.25H-33.0967" stroke="#305680" stroke-width="1.19808"/>
<path d="M98.7045 502.635H-34.8887" stroke="#305680" stroke-width="2.39617"/>
<path d="M233.294 750.937H-34.0918" stroke="#305680" stroke-width="2.39617"/>
<path d="M141.112 505.33L115.23 542.77H-34.0918" stroke="#305680" stroke-width="1.19808"/>
<path d="M352.153 579.012L293.221 449.919H-33.0967" stroke="#305680" stroke-width="2.39617"/>
<path d="M585.494 764.715H325.475L275.701 650.897H194.669L129.167 714.695H-34.0918" stroke="#305680" stroke-width="1.19808"/>
<path d="M805.892 567.929H648.208L594.652 624.539H329.257L282.072 511.021H190.886L123.592 576.017H-33.0967" stroke="#305680" stroke-width="2.39617"/>
<path d="M888.716 634.424H648.208L592.86 694.028H324.479L275.7 581.708H194.669L126.379 646.704H-31.7031" stroke="#305680" stroke-width="2.39617"/>
<path d="M1129.62 45.2663H995.431L964.372 91.9915H838.544L797.729 30.5897H544.679L496.697 -20.6283H188.696L111.049 -137.441H-35.8838" stroke="#305680" stroke-width="1.19808"/>
<path d="M497.692 304.052H179.537" stroke="#305680" stroke-width="1.19808"/>
<path d="M433.185 12.9175H169.782L91.338 -102.997H-34.6895" stroke="#305680" stroke-width="2.39617"/>
<path d="M488.534 50.6572H194.271" stroke="#305680" stroke-width="1.19808"/>
<path d="M649.204 157.287H436.569L385.601 80.0108H171.175L94.1251 -37.4014H-35.0879" stroke="#305680" stroke-width="1.19808"/>
<path d="M598.235 243.25H421.837L350.959 136.62H153.058L82.1797 22.5029H-33.0967" stroke="#305680" stroke-width="1.19808"/>
<path d="M206.217 191.433H119.61L74.2162 256.728H-34.0918" stroke="#305680" stroke-width="2.39617"/>
<path d="M346.976 244.747H150.071L105.673 310.043H-32.1016" stroke="#305680" stroke-width="2.39617"/>
<path d="M534.724 585.901H401.131L326.47 404.092H-34.8887" stroke="#305680" stroke-width="2.39617"/>
<path d="M587.286 449.918H440.751L399.339 355.569H-34.0918" stroke="#305680" stroke-width="1.19808"/>
<path d="M508.045 513.717H424.226L375.248 393.01" stroke="#305680" stroke-width="2.39617"/>
<path d="M57.2928 77.3145H-32.8975" stroke="#305680" stroke-width="2.39617"/>
<path d="M98.1069 146.504H-33.6943" stroke="#305680" stroke-width="2.39617"/>
<path d="M25.0395 198.92H-31.1055" stroke="#305680" stroke-width="2.39617"/>
<g filter="url(#filter0_d_6134_8628)">
<ellipse cx="517.56" cy="-40.0826" rx="8.385" ry="8.38716" fill="#305680"/>
</g>
<ellipse cx="445.692" cy="13.371" rx="11.3789" ry="11.3818" fill="#305680"/>
<ellipse cx="64.6894" cy="77.9238" rx="11.3789" ry="11.3818" fill="#305680"/>
<ellipse cx="104.216" cy="145.016" rx="11.3789" ry="11.3818" fill="#305680"/>
<ellipse cx="34.1455" cy="197.133" rx="11.3789" ry="11.3818" fill="#305680"/>
<ellipse cx="217.517" cy="191.143" rx="11.3789" ry="11.3818" fill="#305680"/>
<ellipse cx="358.255" cy="243.259" rx="11.3789" ry="11.3818" fill="#305680"/>
<ellipse cx="606.791" cy="244.457" rx="8.38442" ry="8.38658" fill="#305680"/>
<ellipse cx="505.581" cy="303.762" rx="8.38442" ry="8.38658" fill="#305680"/>
<ellipse cx="513.966" cy="514.17" rx="11.3789" ry="11.3818" fill="#305680"/>
<ellipse cx="349.87" cy="575.727" rx="11.3789" ry="11.3818" fill="#305680"/>
<ellipse cx="533.729" cy="586.51" rx="8.38442" ry="8.38658" fill="#305680"/>
<ellipse cx="817" cy="566.741" rx="11.3789" ry="11.3818" fill="#305680"/>
<ellipse cx="102.419" cy="502.045" rx="11.3789" ry="11.3818" fill="#305680"/>
<ellipse cx="240.873" cy="751.846" rx="8.38442" ry="8.38658" fill="#305680"/>
<ellipse cx="895.455" cy="634.432" rx="8.38442" ry="8.38658" fill="#305680"/>
<ellipse cx="492.106" cy="50.7651" rx="5.68943" ry="5.69089" fill="#305680"/>
<g filter="url(#filter1_d_6134_8628)">
<ellipse cx="799.934" cy="-22.3179" rx="5.68943" ry="5.69089" fill="#305680"/>
</g>
<ellipse cx="643.625" cy="156.795" rx="5.68943" ry="5.69089" fill="#305680"/>
<g filter="url(#filter2_d_6134_8628)">
<ellipse cx="584.934" cy="450.326" rx="5.68943" ry="5.69089" fill="#305680"/>
</g>
<g filter="url(#filter3_d_6134_8628)">
<ellipse cx="996.369" cy="329.32" rx="5.68943" ry="5.69089" fill="#305680"/>
</g>
<g filter="url(#filter4_d_6134_8628)">
<ellipse cx="584.335" cy="764.823" rx="5.68943" ry="5.69089" fill="#305680"/>
</g>
<ellipse cx="92.6484" cy="680.259" rx="5.68943" ry="5.69089" fill="#305680"/>
<g filter="url(#filter5_d_6134_8628)">
<ellipse cx="1108.36" cy="755.238" rx="5.68943" ry="5.69089" fill="#305680"/>
</g>
<g filter="url(#filter6_d_6134_8628)">
<ellipse cx="1062.25" cy="668.976" rx="5.68943" ry="5.69089" fill="#305680"/>
</g>
<ellipse cx="1135.31" cy="45.3735" rx="5.68943" ry="5.69089" fill="#305680"/>
<ellipse cx="1019.88" cy="81.3942" rx="2.39555" ry="2.39617" fill="#305680"/>
<ellipse cx="935.437" cy="338.982" rx="2.39555" ry="2.39617" fill="#305680"/>
<ellipse cx="686.898" cy="663.064" rx="2.39555" ry="2.39617" fill="#305680"/>
<ellipse cx="873.898" cy="736.746" rx="2.39555" ry="2.39617" fill="#305680"/>
<ellipse cx="915.22" cy="515.7" rx="2.39555" ry="2.39617" fill="#305680"/>
<ellipse cx="510.227" cy="375.524" rx="2.39555" ry="2.39617" fill="#305680"/>
<ellipse cx="74.2373" cy="240.74" rx="2.39555" ry="2.39617" fill="#305680"/>
<ellipse cx="59.2647" cy="621.131" rx="2.39555" ry="2.39617" fill="#305680"/>
<ellipse cx="672.671" cy="497.728" rx="2.39555" ry="2.39617" fill="#305680"/>
<ellipse cx="346.73" cy="115.54" rx="2.39555" ry="2.39617" fill="#305680"/>
</g>
<defs>
<filter id="filter0_d_6134_8628" x="464.247" y="-93.3978" width="106.626" height="106.631" filterUnits="userSpaceOnUse" color-interpolation-filters="sRGB">
<feFlood flood-opacity="0" result="BackgroundImageFix"/>
<feColorMatrix in="SourceAlpha" type="matrix" values="0 0 0 0 0 0 0 0 0 0 0 0 0 0 0 0 0 0 127 0" result="hardAlpha"/>
<feMorphology radius="14.976" operator="dilate" in="SourceAlpha" result="effect1_dropShadow_6134_8628"/>
<feOffset/>
<feGaussianBlur stdDeviation="14.976"/>
<feComposite in2="hardAlpha" operator="out"/>
<feColorMatrix type="matrix" values="0 0 0 0 1 0 0 0 0 1 0 0 0 0 1 0 0 0 0.25 0"/>
<feBlend mode="normal" in2="BackgroundImageFix" result="effect1_dropShadow_6134_8628"/>
<feBlend mode="normal" in="SourceGraphic" in2="effect1_dropShadow_6134_8628" result="shape"/>
</filter>
<filter id="filter1_d_6134_8628" x="773.278" y="-48.9752" width="53.3118" height="53.3147" filterUnits="userSpaceOnUse" color-interpolation-filters="sRGB">
<feFlood flood-opacity="0" result="BackgroundImageFix"/>
<feColorMatrix in="SourceAlpha" type="matrix" values="0 0 0 0 0 0 0 0 0 0 0 0 0 0 0 0 0 0 127 0" result="hardAlpha"/>
<feOffset/>
<feGaussianBlur stdDeviation="10.4832"/>
<feComposite in2="hardAlpha" operator="out"/>
<feColorMatrix type="matrix" values="0 0 0 0 1 0 0 0 0 1 0 0 0 0 1 0 0 0 1 0"/>
<feBlend mode="normal" in2="BackgroundImageFix" result="effect1_dropShadow_6134_8628"/>
<feBlend mode="normal" in="SourceGraphic" in2="effect1_dropShadow_6134_8628" result="shape"/>
</filter>
<filter id="filter2_d_6134_8628" x="558.278" y="423.668" width="53.3118" height="53.3147" filterUnits="userSpaceOnUse" color-interpolation-filters="sRGB">
<feFlood flood-opacity="0" result="BackgroundImageFix"/>
<feColorMatrix in="SourceAlpha" type="matrix" values="0 0 0 0 0 0 0 0 0 0 0 0 0 0 0 0 0 0 127 0" result="hardAlpha"/>
<feOffset/>
<feGaussianBlur stdDeviation="10.4832"/>
<feComposite in2="hardAlpha" operator="out"/>
<feColorMatrix type="matrix" values="0 0 0 0 1 0 0 0 0 1 0 0 0 0 1 0 0 0 1 0"/>
<feBlend mode="normal" in2="BackgroundImageFix" result="effect1_dropShadow_6134_8628"/>
<feBlend mode="normal" in="SourceGraphic" in2="effect1_dropShadow_6134_8628" result="shape"/>
</filter>
<filter id="filter3_d_6134_8628" x="969.713" y="302.662" width="53.3118" height="53.3147" filterUnits="userSpaceOnUse" color-interpolation-filters="sRGB">
<feFlood flood-opacity="0" result="BackgroundImageFix"/>
<feColorMatrix in="SourceAlpha" type="matrix" values="0 0 0 0 0 0 0 0 0 0 0 0 0 0 0 0 0 0 127 0" result="hardAlpha"/>
<feOffset/>
<feGaussianBlur stdDeviation="10.4832"/>
<feComposite in2="hardAlpha" operator="out"/>
<feColorMatrix type="matrix" values="0 0 0 0 1 0 0 0 0 1 0 0 0 0 1 0 0 0 1 0"/>
<feBlend mode="normal" in2="BackgroundImageFix" result="effect1_dropShadow_6134_8628"/>
<feBlend mode="normal" in="SourceGraphic" in2="effect1_dropShadow_6134_8628" result="shape"/>
</filter>
<filter id="filter4_d_6134_8628" x="557.679" y="738.165" width="53.3118" height="53.3147" filterUnits="userSpaceOnUse" color-interpolation-filters="sRGB">
<feFlood flood-opacity="0" result="BackgroundImageFix"/>
<feColorMatrix in="SourceAlpha" type="matrix" values="0 0 0 0 0 0 0 0 0 0 0 0 0 0 0 0 0 0 127 0" result="hardAlpha"/>
<feOffset/>
<feGaussianBlur stdDeviation="10.4832"/>
<feComposite in2="hardAlpha" operator="out"/>
<feColorMatrix type="matrix" values="0 0 0 0 1 0 0 0 0 1 0 0 0 0 1 0 0 0 1 0"/>
<feBlend mode="normal" in2="BackgroundImageFix" result="effect1_dropShadow_6134_8628"/>
<feBlend mode="normal" in="SourceGraphic" in2="effect1_dropShadow_6134_8628" result="shape"/>
</filter>
<filter id="filter5_d_6134_8628" x="1081.71" y="728.58" width="53.3118" height="53.3147" filterUnits="userSpaceOnUse" color-interpolation-filters="sRGB">
<feFlood flood-opacity="0" result="BackgroundImageFix"/>
<feColorMatrix in="SourceAlpha" type="matrix" values="0 0 0 0 0 0 0 0 0 0 0 0 0 0 0 0 0 0 127 0" result="hardAlpha"/>
<feOffset/>
<feGaussianBlur stdDeviation="10.4832"/>
<feComposite in2="hardAlpha" operator="out"/>
<feColorMatrix type="matrix" values="0 0 0 0 1 0 0 0 0 1 0 0 0 0 1 0 0 0 1 0"/>
<feBlend mode="normal" in2="BackgroundImageFix" result="effect1_dropShadow_6134_8628"/>
<feBlend mode="normal" in="SourceGraphic" in2="effect1_dropShadow_6134_8628" result="shape"/>
</filter>
<filter id="filter6_d_6134_8628" x="1035.59" y="642.319" width="53.3118" height="53.3147" filterUnits="userSpaceOnUse" color-interpolation-filters="sRGB">
<feFlood flood-opacity="0" result="BackgroundImageFix"/>
<feColorMatrix in="SourceAlpha" type="matrix" values="0 0 0 0 0 0 0 0 0 0 0 0 0 0 0 0 0 0 127 0" result="hardAlpha"/>
<feOffset/>
<feGaussianBlur stdDeviation="10.4832"/>
<feComposite in2="hardAlpha" operator="out"/>
<feColorMatrix type="matrix" values="0 0 0 0 1 0 0 0 0 1 0 0 0 0 1 0 0 0 1 0"/>
<feBlend mode="normal" in2="BackgroundImageFix" result="effect1_dropShadow_6134_8628"/>
<feBlend mode="normal" in="SourceGraphic" in2="effect1_dropShadow_6134_8628" result="shape"/>
</filter>
</defs>
</svg>
