<svg width="24" height="24" fill="none" xmlns="http://www.w3.org/2000/svg"><circle cx="12" cy="10" r="5" stroke="#D4E5FB" stroke-width="2"/><circle cx="12" cy="10" r="9" stroke="#D4E5FB" stroke-width="2"/><path fill-rule="evenodd" clip-rule="evenodd" d="M17.657 2.929a1 1 0 0 1 1.414 0c3.906 3.905 3.906 10.236 0 14.142a1 1 0 0 1-1.414-1.415 8 8 0 0 0 0-11.313 1 1 0 0 1 0-1.414Zm-4.614 8.778A1.999 1.999 0 0 0 12 8a2 2 0 0 0-1.043 3.707c-.02.064-.034.132-.04.202l-.818 9a1 1 0 0 0 .996 1.09h1.81a1 1 0 0 0 .996-1.09l-.819-9a1.001 1.001 0 0 0-.04-.202Zm3.2-5.95a1 1 0 0 0-1.415 1.415 4 4 0 0 1 0 5.657 1 1 0 0 0 1.414 1.414 6 6 0 0 0 0-8.485Zm-9.9 11.314a1 1 0 0 1-1.414 0c-3.905-3.905-3.905-10.237 0-14.142a1 1 0 1 1 1.414 1.414 8 8 0 0 0 0 11.314 1 1 0 0 1 0 1.414Zm1.414-2.829a1 1 0 0 0 1.415-1.414 4 4 0 0 1 0-5.657 1 1 0 1 0-1.415-1.414 6 6 0 0 0 0 8.485Z" fill="#2A7DEC"/></svg>