<svg width="24" height="24" viewBox="0 0 24 24" fill="none" xmlns="http://www.w3.org/2000/svg">
<g clip-path="url(#clip0)">
<path d="M14 10C14 11.1046 13.1046 12 12 12C10.8954 12 10 11.1046 10 10C10 8.89543 10.8954 8 12 8C13.1046 8 14 8.89543 14 10Z" fill="#2A7DEC"/>
<path d="M10.9171 11.9095C10.9639 11.3944 11.3958 11 11.913 11H12.0866C12.6038 11 13.0356 11.3944 13.0825 11.9095L13.9006 20.9095C13.9539 21.4951 13.4928 22 12.9047 22H11.0948C10.5068 22 10.0457 21.4951 10.0989 20.9095L10.9171 11.9095Z" fill="#2A7DEC"/>
<path fill-rule="evenodd" clip-rule="evenodd" d="M17.6572 2.92879C18.0477 2.53826 18.6808 2.53826 19.0714 2.92879C22.9766 6.83403 22.9766 13.1657 19.0714 17.0709C18.6808 17.4614 18.0477 17.4614 17.6571 17.0709C17.2666 16.6804 17.2666 16.0472 17.6571 15.6567C20.7813 12.5325 20.7813 7.46719 17.6572 4.343C17.2666 3.95248 17.2666 3.31931 17.6572 2.92879Z" fill="#2A7DEC"/>
<path fill-rule="evenodd" clip-rule="evenodd" d="M14.828 5.75789C15.2186 5.36736 15.8517 5.36736 16.2423 5.75789C18.5854 8.10103 18.5854 11.9 16.2423 14.2432C15.8517 14.6337 15.2186 14.6337 14.828 14.2432C14.4375 13.8526 14.4375 13.2195 14.828 12.829C16.3901 11.2669 16.3901 8.7342 14.828 7.1721C14.4375 6.78158 14.4375 6.14841 14.828 5.75789Z" fill="#2A7DEC"/>
<path fill-rule="evenodd" clip-rule="evenodd" d="M6.34285 17.0712C5.95232 17.4617 5.31916 17.4617 4.92864 17.0712C1.02339 13.166 1.02339 6.83432 4.92864 2.92908C5.31916 2.53855 5.95233 2.53855 6.34285 2.92908C6.73338 3.3196 6.73338 3.95277 6.34285 4.34329C3.21866 7.46749 3.21866 12.5328 6.34285 15.657C6.73337 16.0475 6.73337 16.6807 6.34285 17.0712Z" fill="#2A7DEC"/>
<path fill-rule="evenodd" clip-rule="evenodd" d="M9.17195 14.2421C8.78143 14.6326 8.14826 14.6326 7.75774 14.2421C5.41459 11.899 5.41459 8.09998 7.75774 5.75683C8.14826 5.36631 8.78143 5.36631 9.17195 5.75683C9.56248 6.14736 9.56248 6.78052 9.17195 7.17104C7.60985 8.73314 7.60985 11.2658 9.17195 12.8279C9.56248 13.2184 9.56248 13.8516 9.17195 14.2421Z" fill="#2A7DEC"/>
</g>
<defs>
<clipPath id="clip0">
<rect width="24" height="24" fill="white"/>
</clipPath>
</defs>
</svg>
