<svg width="64" height="64" viewBox="0 0 64 64" fill="none" xmlns="http://www.w3.org/2000/svg">
<circle cx="32" cy="26.6666" r="13.3333" stroke="#D4E5FB" stroke-width="5.33333"/>
<circle cx="31.9997" cy="26.6667" r="24" stroke="#D4E5FB" stroke-width="5.33333"/>
<path d="M32.0007 21.3337C34.9463 21.3337 37.3337 23.7212 37.3337 26.6667C37.3337 28.5942 36.3112 30.2824 34.779 31.2194C34.8319 31.3922 34.8704 31.572 34.8874 31.7585L37.069 55.7585C37.2112 57.3201 35.9811 58.6667 34.4128 58.6667H29.5866C28.0187 58.6666 26.7895 57.32 26.9314 55.7585L29.113 31.7585C29.13 31.5717 29.1675 31.3914 29.2204 31.2184C27.6893 30.2812 26.6677 28.5935 26.6677 26.6667C26.6677 23.7212 29.0551 21.3337 32.0007 21.3337ZM13.1442 7.81121C14.1856 6.7698 15.8743 6.7698 16.9157 7.81121C17.9571 8.8526 17.9571 10.5413 16.9157 11.5827C8.58477 19.9139 8.58463 33.4215 16.9157 41.7526C17.9569 42.7939 17.9569 44.4819 16.9157 45.5231C15.8743 46.5645 14.1856 46.5645 13.1442 45.5231C2.73058 35.1093 2.73055 18.2251 13.1442 7.81121ZM47.0866 7.81023C48.128 6.76882 49.8165 6.76882 50.8581 7.81023C61.2717 18.2241 61.2717 35.1083 50.8581 45.5221C49.8165 46.5635 48.1282 46.5635 47.0866 45.5221C46.0453 44.4809 46.0454 42.793 47.0866 41.7516C55.4178 33.4205 55.4174 19.9129 47.0866 11.5817C46.0451 10.5404 46.0451 8.85163 47.0866 7.81023ZM39.5417 15.3542C40.5832 14.3129 42.2716 14.313 43.3132 15.3542C49.5615 21.6026 49.5615 31.7336 43.3132 37.9821C42.2716 39.0231 40.5832 39.0233 39.5417 37.9821C38.5005 36.9406 38.5006 35.2519 39.5417 34.2106C43.7073 30.045 43.7073 23.2913 39.5417 19.1257C38.5006 18.0843 38.5005 16.3955 39.5417 15.3542ZM20.6872 15.3513C21.7286 14.3102 23.4174 14.31 24.4587 15.3513C25.5 16.3925 25.4998 18.0813 24.4587 19.1227C20.2931 23.2883 20.2931 30.0421 24.4587 34.2077C25.4999 35.249 25.4999 36.9379 24.4587 37.9792C23.4174 39.0205 21.7286 39.0204 20.6872 37.9792C14.4388 31.7309 14.4388 21.5997 20.6872 15.3513Z" fill="#2A7DEC"/>
</svg>
