<svg width="92" height="92" viewBox="0 0 92 92" fill="none" xmlns="http://www.w3.org/2000/svg">
<g clip-path="url(#clip0)">
<g filter="url(#filter0_d)">
<rect x="16" y="59" width="60" height="4" rx="2" fill="#305680"/>
<path d="M70 53L58 53L58 21L70 21L70 53Z" fill="#2A7DEC"/>
<path d="M39 35C39 33.8954 39.8954 33 41 33H48C49.1046 33 50 33.8954 50 35V53H39V35Z" fill="#2A7DEC"/>
<path d="M20 45C20 43.8954 20.8954 43 22 43H29C30.1046 43 31 43.8954 31 45V53H20V45Z" fill="#2A7DEC"/>
<path d="M64.9997 13.3478C64.4073 12.8841 63.5927 12.8841 63.0003 13.3478L54.6697 19.8696C53.3887 20.8724 54.0682 23 55.6694 23L72.3306 23C73.9318 23 74.6113 20.8724 73.3303 19.8696L64.9997 13.3478Z" fill="#2A7DEC"/>
</g>
</g>
<defs>
<filter id="filter0_d" x="-4" y="-2" width="100" height="100" filterUnits="userSpaceOnUse" color-interpolation-filters="sRGB">
<feFlood flood-opacity="0" result="BackgroundImageFix"/>
<feColorMatrix in="SourceAlpha" type="matrix" values="0 0 0 0 0 0 0 0 0 0 0 0 0 0 0 0 0 0 127 0"/>
<feOffset dy="10"/>
<feGaussianBlur stdDeviation="10"/>
<feColorMatrix type="matrix" values="0 0 0 0 0 0 0 0 0 0 0 0 0 0 0 0 0 0 0.1 0"/>
<feBlend mode="normal" in2="BackgroundImageFix" result="effect1_dropShadow"/>
<feBlend mode="normal" in="SourceGraphic" in2="effect1_dropShadow" result="shape"/>
</filter>
<clipPath id="clip0">
<rect width="92" height="92" fill="white"/>
</clipPath>
</defs>
</svg>
