<svg width="42" height="42" viewBox="0 0 42 42" fill="none" xmlns="http://www.w3.org/2000/svg">
<path d="M20.0802 4.42125C17.1414 4.42125 14.3901 5.24142 12.0381 6.65291C11.3674 6.10764 10.5247 5.80412 9.64789 5.80389C9.64777 5.80389 9.64764 5.80389 9.64752 5.80389C7.55917 5.80397 5.8469 7.51647 5.84696 9.60483C5.84696 9.6052 5.84696 9.60556 5.84696 9.60592C5.84799 10.4778 6.15022 11.3139 6.68661 11.9816C5.25411 14.3461 4.42097 17.1181 4.42097 20.0806C4.41948 20.2008 4.44187 20.3201 4.48685 20.4316C4.53183 20.5431 4.59849 20.6446 4.68298 20.7301C4.76747 20.8156 4.8681 20.8835 4.97903 20.9299C5.08996 20.9763 5.209 21.0001 5.32923 21.0001C5.44946 21.0001 5.56849 20.9763 5.67942 20.9299C5.79036 20.8835 5.89099 20.8156 5.97547 20.7301C6.05996 20.6446 6.12663 20.5431 6.1716 20.4316C6.21658 20.3201 6.23897 20.2008 6.23749 20.0806C6.23749 17.5209 6.93373 15.1329 8.14181 13.0786C8.61496 13.2842 9.12335 13.405 9.64623 13.4058C9.64666 13.4058 9.64709 13.4058 9.64752 13.4058C11.736 13.4058 13.4485 11.6933 13.4484 9.60483C13.4484 9.60469 13.4484 9.60455 13.4484 9.60441C13.4483 9.08638 13.3305 8.58245 13.129 8.11266C15.172 6.92275 17.5416 6.23773 20.0802 6.23773C20.2005 6.23922 20.3198 6.21683 20.4313 6.17185C20.5428 6.12687 20.6442 6.0602 20.7298 5.97572C20.8153 5.89123 20.8832 5.7906 20.9296 5.67967C20.9759 5.56873 20.9998 5.4497 20.9998 5.32947C20.9998 5.20925 20.9759 5.09021 20.9296 4.97927C20.8832 4.86834 20.8153 4.76771 20.7298 4.68322C20.6442 4.59874 20.5428 4.53207 20.4313 4.48709C20.3198 4.44212 20.2005 4.41973 20.0802 4.42121V4.42125ZM9.64734 7.62041C10.26 7.62062 10.8069 7.88071 11.1846 8.35371C11.1908 8.36122 11.1971 8.36863 11.2036 8.37594C11.4804 8.72615 11.6318 9.15858 11.6319 9.6052C11.6318 10.7115 10.7545 11.5889 9.64825 11.5892C9.19544 11.5884 8.75702 11.4329 8.40485 11.1484C8.40442 11.1481 8.40399 11.1478 8.40357 11.1475C7.93583 10.771 7.66417 10.2047 7.66329 9.60426C7.66355 8.49793 8.54095 7.62054 9.64734 7.6204L9.64734 7.62041Z" fill="#212529"/>
<path fill-rule="evenodd" clip-rule="evenodd" d="M11.3621 15.0769C11.2075 15.2384 11.1169 15.4613 11.1282 15.706C11.1381 15.9179 11.2228 16.1226 11.3703 16.2777C12.0755 16.9881 13.4658 18.3732 13.4658 18.3732L14.6931 17.1475C14.6931 17.1475 13.3489 15.8045 12.6025 15.0574C12.4363 14.8883 12.214 14.8176 11.9796 14.8166C11.7352 14.8154 11.5167 14.9154 11.3621 15.0769ZM14.6931 17.1475L10.8966 20.944C10.4847 21.356 10.4847 22.0238 10.8966 22.4358L12.778 24.3172L16.0682 27.6074L19.2262 30.7654C19.6381 31.1774 20.3061 31.1774 20.7181 30.7654L23.2869 28.1965L27.2155 24.268L31.0121 20.4714C31.424 20.0594 31.4239 19.3915 31.012 18.9795L29.0816 17.0492L25.7914 13.759L22.6824 10.65C22.2704 10.2381 21.6026 10.2381 21.1906 10.65L18.6217 13.2189L14.6931 17.1475ZM18.6217 13.2189C18.6217 13.2189 17.2775 11.8759 16.5311 11.1288C16.3649 10.9597 16.1426 10.889 15.9082 10.888C15.4194 10.8856 15.0342 11.2881 15.0568 11.7774C15.0667 11.9893 15.1514 12.194 15.2989 12.3491C16.0041 13.0595 17.3944 14.4446 17.3944 14.4446L18.6217 13.2189V13.2189ZM25.7914 13.759C25.7914 13.759 27.1344 12.4148 27.8815 11.6684C28.0506 11.5022 28.1212 11.2799 28.1223 11.0455C28.1246 10.5567 27.7222 10.1715 27.2329 10.1941C27.021 10.204 26.8163 10.2887 26.6612 10.4362C25.9508 11.1414 24.5657 12.5317 24.5657 12.5317L25.7914 13.759V13.759ZM29.0816 17.0492C29.0816 17.0492 30.4246 15.705 31.1717 14.9586C31.3408 14.7924 31.4114 14.5701 31.4125 14.3357C31.4148 13.8469 31.0124 13.4617 30.5231 13.4843C30.3112 13.4942 30.1065 13.5789 29.9513 13.7264C29.241 14.4316 27.8558 15.8219 27.8558 15.8219L29.0816 17.0492V17.0492ZM27.2155 24.268C27.2155 24.268 28.5598 25.611 29.3063 26.3579C29.4725 26.527 29.6949 26.5977 29.9293 26.5987C30.418 26.6011 30.8032 26.1986 30.7807 25.7093L30.7805 25.7095C30.7705 25.4977 30.6858 25.2928 30.5382 25.1377C29.8331 24.4273 28.4428 23.0423 28.4428 23.0423L27.2155 24.2681L27.2155 24.268ZM23.2869 28.1966C23.2869 28.1966 24.6312 29.5396 25.3777 30.2865C25.5439 30.4556 25.7663 30.5263 26.0007 30.5273C26.4894 30.5297 26.8746 30.1272 26.8521 29.6379H26.8519C26.8419 29.4261 26.7573 29.2213 26.6097 29.0662C25.9046 28.3558 24.5142 26.9707 24.5142 26.9707L23.2869 28.1964L23.2869 28.1966ZM16.0682 27.6074C16.0682 27.6074 14.7252 28.9516 13.9783 29.6982C13.8092 29.8644 13.7385 30.0867 13.7375 30.3211C13.7351 30.8098 14.1376 31.195 14.6269 31.1725H14.6267C14.8385 31.1626 15.0433 31.0779 15.1984 30.9303C15.9088 30.2252 17.2939 28.8348 17.2939 28.8348L16.0682 27.6074V27.6074ZM12.778 24.3172C12.778 24.3172 11.435 25.6614 10.6881 26.408C10.519 26.5742 10.4483 26.7965 10.4473 27.0309C10.4449 27.5196 10.8474 27.9049 11.3367 27.8823H11.3365C11.5483 27.8724 11.7531 27.7877 11.9082 27.6402C12.6186 26.9351 14.0037 25.5447 14.0037 25.5447L12.778 24.3172ZM21.8173 14.9341C21.9913 14.7573 22.2283 14.6585 22.4698 14.662C22.6421 14.6644 22.8068 14.719 22.9425 14.8184L24.6521 16.0722C24.9837 16.3102 25.0815 16.7622 24.8832 17.1406C24.6849 17.5191 24.2487 17.7131 23.8522 17.5989L24.4867 20.0804C24.602 20.5313 24.3247 21.0096 23.8667 21.1494L19.241 22.5618L20.0954 25.8655C20.217 26.3182 19.9398 26.8027 19.4784 26.9438C19.017 27.085 18.5484 26.8287 18.4352 26.3734L17.3698 22.2526C17.2531 21.8013 17.5303 21.3216 17.989 21.1815L22.6167 19.7684L22.1896 18.0982C21.9033 18.4158 21.4401 18.4929 21.0926 18.2808C20.7452 18.0687 20.6145 17.629 20.7832 17.2397L21.6243 15.2239C21.6692 15.1164 21.7349 15.0178 21.8173 14.9341V14.9341Z" fill="#212529"/>
<path d="M21.9194 37.5791C24.8583 37.5791 27.6096 36.7589 29.9616 35.3474C30.6323 35.8927 31.475 36.1962 32.3518 36.1964C32.352 36.1964 32.3521 36.1964 32.3523 36.1964C34.4406 36.1964 36.1529 34.4838 36.1529 32.3954C36.1529 32.3951 36.1529 32.3947 36.1529 32.3943C36.1518 31.5224 35.8496 30.6863 35.3132 30.0186C36.7457 27.6541 37.5789 24.882 37.5789 21.9196C37.5804 21.7993 37.558 21.68 37.513 21.5685C37.468 21.457 37.4013 21.3556 37.3169 21.27C37.2324 21.1845 37.1317 21.1166 37.0208 21.0702C36.9099 21.0239 36.7908 21 36.6706 21C36.5504 21 36.4313 21.0239 36.3204 21.0702C36.2095 21.1166 36.1088 21.1845 36.0244 21.27C35.9399 21.3556 35.8732 21.457 35.8282 21.5685C35.7832 21.68 35.7608 21.7993 35.7623 21.9196C35.7623 24.4792 35.0661 26.8672 33.858 28.9216C33.3848 28.7159 32.8764 28.5952 32.3536 28.5944C32.3531 28.5944 32.3527 28.5944 32.3523 28.5944C30.2638 28.5944 28.5512 30.3069 28.5513 32.3954C28.5515 32.9134 28.6693 33.4174 28.8707 33.8872C26.8277 35.0771 24.4581 35.7621 21.9194 35.7621C21.7992 35.7607 21.6799 35.7831 21.5684 35.828C21.457 35.873 21.3555 35.9397 21.27 36.0242C21.1845 36.1087 21.1166 36.2093 21.0702 36.3202C21.0239 36.4312 21 36.5502 21 36.6704C21 36.7906 21.0239 36.9096 21.0702 37.0206C21.1166 37.1315 21.1845 37.2321 21.27 37.3166C21.3555 37.4011 21.457 37.4678 21.5684 37.5127C21.6799 37.5577 21.7992 37.5801 21.9194 37.5787L21.9194 37.5791ZM32.3524 34.3799C31.7397 34.3799 31.1928 34.1196 30.8151 33.6466C30.8089 33.6391 30.8026 33.6317 30.7962 33.6243C30.5193 33.2741 30.3679 32.8417 30.3678 32.3951C30.368 31.2888 31.2452 30.4114 32.3515 30.411C32.8043 30.4118 33.2427 30.5673 33.5949 30.8519C33.5953 30.8522 33.5958 30.8525 33.5962 30.8528C34.0639 31.2293 34.3356 31.7955 34.3365 32.396C34.3362 33.5024 33.4588 34.3798 32.3524 34.3799V34.3799Z" fill="#212529"/>
</svg>
