<svg width="390" height="151" viewBox="0 0 390 151" fill="none" xmlns="http://www.w3.org/2000/svg">
    <rect width="356" height="117" transform="translate(17 17.2142)" fill="white"/>
    <g clip-path="url(#clip0_18837_22663)">
        <path d="M101.11 75.1273C101.32 75.1273 101.513 75.1796 101.705 75.2494C101.898 75.3192 102.073 75.4409 102.213 75.5804C102.353 75.7199 102.475 75.8945 102.545 76.0863C102.615 76.2782 102.65 76.4707 102.65 76.6801C102.65 81.6693 101.232 86.3442 98.8174 90.3217C99.7273 91.4381 100.235 92.8515 100.235 94.3168C100.235 97.8408 97.3475 100.719 93.8125 100.719C92.3252 100.719 90.9079 100.214 89.7705 99.2894C85.798 101.662 81.1604 103.039 76.1904 103.039C75.9806 103.039 75.7881 103.005 75.5957 102.953C75.4033 102.883 75.2279 102.761 75.0879 102.621C74.9479 102.465 74.8249 102.307 74.7549 102.116C74.6674 101.924 74.6328 101.731 74.6328 101.522C74.6328 101.313 74.685 101.121 74.7549 100.929C74.8249 100.737 74.9479 100.563 75.0879 100.423C75.2279 100.284 75.4032 100.161 75.5957 100.091C75.7881 100.022 75.9806 99.9867 76.1904 99.9867C80.4778 99.9867 84.4852 98.8356 87.9326 96.8295C87.5826 96.0444 87.3906 95.189 87.3906 94.3168C87.3908 90.793 90.2777 87.9146 93.8125 87.9144C94.6875 87.9319 95.5456 88.1241 96.3506 88.473C98.398 85.0015 99.5702 80.9889 99.5703 76.6801C99.5703 76.4707 99.6058 76.2782 99.6758 76.0863C99.7458 75.8945 99.8679 75.7199 100.008 75.5804C100.165 75.4409 100.323 75.3192 100.516 75.2494C100.708 75.1622 100.9 75.1273 101.11 75.1273ZM93.8125 90.9672C91.9578 90.9673 90.4709 92.4328 90.4707 94.2992C90.4707 95.0492 90.7152 95.7823 91.1875 96.3754C91.205 96.3928 91.2052 96.3932 91.2227 96.4105C91.8526 97.2129 92.7801 97.6487 93.8125 97.6488C95.6675 97.6488 97.1553 96.1834 97.1553 94.3168C97.1552 93.3052 96.7003 92.3461 95.9131 91.7181C95.3181 91.2297 94.5825 90.9672 93.8125 90.9672ZM85.0977 56.9838C85.9202 56.9489 86.6025 57.5945 86.6025 58.4144C86.6025 58.7982 86.4801 59.1822 86.2002 59.4613C85.0627 60.6127 83.1028 62.5667 82.7354 62.933L86.2178 66.4047C86.4103 66.2128 88.5978 64.0318 89.7354 62.8978C89.9979 62.6536 90.3482 62.5139 90.6982 62.4965C91.5205 62.4618 92.2031 63.1073 92.2031 63.9271C92.2031 64.3108 92.0807 64.6949 91.8008 64.974C90.594 66.177 88.4955 68.2683 88.2832 68.4799L91.5732 71.7074C92.2731 72.4052 92.2731 73.5223 91.5732 74.2201L87.2324 78.5463C87.2849 78.5986 89.5951 80.8844 90.7676 82.0707C91.0125 82.3323 91.1524 82.6808 91.1699 83.0297C91.2049 83.8496 90.5578 84.5296 89.7354 84.5297C89.3505 84.5297 88.9655 84.4082 88.6855 84.1293C87.4435 82.9086 85.2395 80.7113 85.1504 80.6224L80.583 85.1752C80.583 85.1752 82.9282 87.4958 84.1182 88.6996C84.3631 88.9612 84.503 89.3107 84.5205 89.6595C84.5552 90.4793 83.9073 91.1595 83.085 91.1595C82.7001 91.1595 82.3151 91.0372 82.0352 90.7582C80.7751 89.5021 78.5 87.2338 78.5 87.2338L74.1602 91.5609C73.4602 92.2584 72.3406 92.2584 71.6406 91.5609L68.3857 88.3158C68.2107 88.5077 66.0232 90.7063 64.8682 91.8402C64.6057 92.0844 64.2553 92.2232 63.9053 92.2406C63.0829 92.2755 62.4006 91.6306 62.4004 90.8109C62.4004 90.4272 62.5229 90.0432 62.8027 89.764C64.0102 88.5603 66.1278 86.4491 66.3203 86.2572L62.8379 82.7855C62.6629 82.96 60.4577 85.1584 59.3027 86.2924C59.0403 86.5365 58.6898 86.6763 58.3398 86.6937C57.5176 86.7283 56.8351 86.0827 56.835 85.2631C56.835 84.8793 56.9583 84.4953 57.2383 84.2162C58.4456 83.0127 60.5791 80.8846 60.7549 80.7094L57.5527 77.5521C56.8527 76.8543 56.8527 75.7372 57.5527 75.0394L61.8926 70.7133C61.6644 70.4858 59.4948 68.3402 58.375 67.2064C58.1302 66.9448 57.9902 66.5961 57.9727 66.2474C57.9552 65.8288 58.1126 65.4447 58.375 65.183C58.6375 64.9213 59.0058 64.7465 59.4258 64.7465C59.8106 64.7466 60.1957 64.8688 60.4756 65.1478C61.6831 66.3341 63.7657 68.4103 63.9932 68.6371L68.543 64.1019C68.263 63.8228 66.1454 61.7116 65.0254 60.5951C64.7804 60.3334 64.6405 60.0015 64.623 59.6351C64.5882 58.8154 65.2353 58.1352 66.0576 58.1351C66.4426 58.1351 66.8274 58.2574 67.1074 58.5365C68.2799 59.7053 70.3448 61.764 70.6074 62.0258L74.9482 57.681C75.6482 56.9838 76.7679 56.9836 77.4678 57.681L80.6523 60.8568C81.0198 60.4905 83.0507 58.4668 84.1357 57.3851C84.3982 57.141 84.7478 57.0012 85.0977 56.9838ZM77.1357 64.4857C76.7333 64.4683 76.3307 64.6424 76.0332 64.9388C75.8932 65.0784 75.7702 65.2527 75.7002 65.4271L74.2832 68.8295C74.0033 69.4749 74.2128 70.2247 74.8076 70.5736C75.4026 70.9225 76.1731 70.8009 76.6631 70.2601L77.3799 73.0687L69.5576 75.4408C68.7878 75.6676 68.3155 76.4702 68.5078 77.2377L70.293 84.181C70.4855 84.9486 71.273 85.3852 72.0605 85.141C72.8479 84.8967 73.3202 84.094 73.1104 83.3265L71.6582 77.7611L79.4805 75.389C80.2503 75.1623 80.7225 74.3422 80.5303 73.5922L79.4629 69.4047C80.1279 69.5965 80.8628 69.2826 81.1953 68.6371C81.5277 67.9917 81.3704 67.2242 80.8281 66.8578L77.9404 64.7465C77.7131 64.5722 77.433 64.4858 77.1357 64.4857ZM73.0752 47.2142C73.2851 47.2142 73.4776 47.2489 73.6875 47.3011C73.88 47.3709 74.0553 47.4936 74.1953 47.6332C74.3353 47.7901 74.4574 47.9472 74.5273 48.139C74.6148 48.3309 74.6504 48.5225 74.6504 48.7318C74.6504 48.9412 74.5973 49.1337 74.5273 49.3256C74.4573 49.5173 74.3352 49.692 74.1953 49.8314C74.0553 49.9709 73.8799 50.0927 73.6875 50.1625C73.4951 50.2322 73.3027 50.267 73.0928 50.267C68.8053 50.267 64.7981 51.419 61.3506 53.4252C61.7005 54.2101 61.8926 55.0648 61.8926 55.9369C61.8926 59.4607 59.0055 62.339 55.4707 62.3392C54.5957 62.3218 53.7376 62.1305 52.9326 61.7816C50.8853 65.2532 49.7129 69.2657 49.7129 73.5746C49.7303 73.7838 49.6774 73.9755 49.6074 74.1674C49.5374 74.3592 49.4153 74.5337 49.2754 74.6732C49.1179 74.8128 48.9601 74.9355 48.7676 75.0052C48.5752 75.0924 48.3827 75.1273 48.1729 75.1273C47.963 75.1273 47.7705 75.075 47.5781 75.0052C47.3856 74.9355 47.2103 74.8128 47.0703 74.6732C46.9304 74.5337 46.8083 74.3592 46.7383 74.1674C46.6683 73.9755 46.6328 73.7838 46.6328 73.5746C46.6328 68.5852 48.0332 63.927 50.4482 59.932C49.5382 58.8155 49.0303 57.4023 49.0303 55.9369C49.0303 52.4129 51.9182 49.5345 55.4531 49.5345C56.9405 49.5346 58.3577 50.0407 59.4951 50.9652C63.4676 48.5926 68.1052 47.2143 73.0752 47.2142ZM55.4531 52.6049C53.5982 52.6049 52.1104 54.0703 52.1104 55.9369C52.1104 56.9487 52.5651 57.9085 53.3525 58.5365C53.9475 59.025 54.6831 59.2865 55.4531 59.2865C57.308 59.2863 58.7949 57.821 58.7949 55.9545C58.7949 55.2043 58.5506 54.4714 58.0781 53.8783C58.0606 53.8609 58.0605 53.8606 58.043 53.8431C57.413 53.0408 56.4854 52.6049 55.4531 52.6049Z" fill="black"/>
    </g>
    <path d="M135.438 62.6238H125.94V88.9656H122.064V62.6238H112.587V59.4174H135.438V62.6238Z" fill="#2B7DEC"/>
    <path d="M143.028 69.6659C144.692 67.6229 146.857 66.6015 149.522 66.6015C154.163 66.6015 156.503 69.2194 156.544 74.4553V88.9656H152.79V74.435C152.776 72.8521 152.411 71.6818 151.694 70.9241C150.99 70.1665 149.888 69.7876 148.386 69.7876C147.168 69.7876 146.099 70.1124 145.179 70.7618C144.259 71.4112 143.542 72.2635 143.028 73.3188V88.9656H139.274V57.7938H143.028V69.6659Z" fill="black"/>
    <path d="M166.245 88.9656H162.49V67.0074H166.245V88.9656ZM162.186 61.1829C162.186 60.5741 162.368 60.06 162.734 59.6406C163.113 59.2212 163.667 59.0115 164.398 59.0115C165.128 59.0115 165.683 59.2212 166.062 59.6406C166.441 60.06 166.63 60.5741 166.63 61.1829C166.63 61.7918 166.441 62.2991 166.062 62.705C165.683 63.1109 165.128 63.3138 164.398 63.3138C163.667 63.3138 163.113 63.1109 162.734 62.705C162.368 62.2991 162.186 61.7918 162.186 61.1829Z" fill="black"/>
    <path d="M175.783 67.0074L175.904 69.7674C177.582 67.6569 179.774 66.6016 182.48 66.6016C187.12 66.6016 189.461 69.2195 189.501 74.4554V88.9657H185.747V74.4351C185.734 72.8522 185.368 71.6819 184.651 70.9242C183.948 70.1666 182.845 69.7877 181.343 69.7877C180.126 69.7877 179.057 70.1124 178.137 70.7619C177.217 71.4113 176.5 72.2636 175.986 73.3189V88.9657H172.231V67.0074H175.783Z" fill="black"/>
    <path d="M194.311 77.8039C194.311 74.381 195.103 71.6616 196.686 69.6457C198.269 67.6163 200.366 66.6016 202.977 66.6016C205.656 66.6016 207.746 67.5486 209.248 69.4427L209.43 67.0074H212.86V88.438C212.86 91.2792 212.015 93.5183 210.323 95.1554C208.646 96.7924 206.386 97.611 203.545 97.611C201.962 97.611 200.413 97.2727 198.898 96.5963C197.382 95.9198 196.226 94.993 195.427 93.816L197.376 91.5633C198.986 93.5521 200.954 94.5466 203.281 94.5466C205.108 94.5466 206.528 94.0324 207.543 93.0042C208.571 91.976 209.085 90.5283 209.085 88.6613V86.7739C207.584 88.5057 205.534 89.3716 202.936 89.3716C200.366 89.3716 198.282 88.3366 196.686 86.2666C195.103 84.1966 194.311 81.3757 194.311 77.8039ZM198.086 78.2301C198.086 80.706 198.593 82.6542 199.608 84.0748C200.623 85.4819 202.043 86.1854 203.87 86.1854C206.237 86.1854 207.976 85.1098 209.085 82.9586V72.9333C207.935 70.8363 206.21 69.7877 203.91 69.7877C202.084 69.7877 200.657 70.498 199.628 71.9186C198.6 73.3392 198.086 75.443 198.086 78.2301Z" fill="black"/>
    <path d="M231.287 83.1413C231.287 82.1266 230.901 81.3419 230.13 80.7872C229.373 80.2189 228.04 79.7319 226.132 79.326C224.238 78.9201 222.73 78.433 221.607 77.8648C220.497 77.2966 219.672 76.6201 219.131 75.8354C218.603 75.0507 218.339 74.1172 218.339 73.0348C218.339 71.2354 219.097 69.7133 220.612 68.4686C222.141 67.2239 224.089 66.6016 226.457 66.6016C228.946 66.6016 230.962 67.2442 232.505 68.5295C234.061 69.8148 234.839 71.4586 234.839 73.461H231.064C231.064 72.4327 230.624 71.5466 229.745 70.8024C228.879 70.0583 227.783 69.6863 226.457 69.6863C225.091 69.6863 224.022 69.9839 223.251 70.5792C222.479 71.1745 222.094 71.9524 222.094 72.913C222.094 73.8195 222.452 74.5027 223.169 74.9627C223.886 75.4227 225.179 75.8624 227.046 76.2819C228.926 76.7013 230.448 77.2019 231.612 77.7836C232.775 78.3654 233.634 79.0689 234.189 79.8942C234.757 80.706 235.041 81.7004 235.041 82.8774C235.041 84.8392 234.257 86.4154 232.687 87.606C231.118 88.783 229.082 89.3716 226.579 89.3716C224.82 89.3716 223.264 89.0604 221.911 88.438C220.558 87.8157 219.496 86.9498 218.725 85.8404C217.967 84.7174 217.589 83.5066 217.589 82.2077H221.343C221.411 83.466 221.911 84.4672 222.845 85.2113C223.792 85.9419 225.036 86.3072 226.579 86.3072C227.999 86.3072 229.136 86.023 229.988 85.4548C230.854 84.873 231.287 84.1019 231.287 83.1413Z" fill="black"/>
    <path d="M240.521 88.9656V59.4174H250.181C253.388 59.4174 255.796 60.0803 257.406 61.4062C259.029 62.7321 259.841 64.6938 259.841 67.2915C259.841 68.6715 259.449 69.8959 258.664 70.9647C257.879 72.02 256.811 72.8385 255.458 73.4203C257.054 73.8668 258.312 74.7191 259.232 75.9774C260.166 77.2221 260.633 78.7103 260.633 80.4421C260.633 83.0938 259.773 85.1774 258.055 86.6926C256.337 88.2079 253.908 88.9656 250.77 88.9656H240.521ZM244.418 75.1453V85.7794H250.851C252.664 85.7794 254.091 85.3127 255.133 84.3791C256.188 83.4321 256.716 82.1332 256.716 80.4827C256.716 76.9244 254.781 75.1453 250.912 75.1453H244.418ZM244.418 72.02H250.303C252.008 72.02 253.367 71.5938 254.382 70.7415C255.41 69.8891 255.924 68.7324 255.924 67.2712C255.924 65.6477 255.451 64.4706 254.504 63.74C253.557 62.9959 252.116 62.6238 250.181 62.6238H244.418V72.02Z" fill="black"/>
    <path d="M264.833 77.7836C264.833 75.6324 265.253 73.6977 266.092 71.9795C266.944 70.2613 268.121 68.9354 269.623 68.0019C271.138 67.0683 272.863 66.6016 274.798 66.6016C277.788 66.6016 280.203 67.6366 282.043 69.7066C283.896 71.7766 284.823 74.5298 284.823 77.9663V78.2301C284.823 80.3677 284.41 82.2889 283.585 83.9936C282.773 85.6848 281.603 87.0039 280.074 87.951C278.559 88.898 276.814 89.3716 274.838 89.3716C271.862 89.3716 269.447 88.3366 267.593 86.2666C265.753 84.1966 264.833 81.4569 264.833 78.0474V77.7836ZM268.608 78.2301C268.608 80.6654 269.17 82.6204 270.292 84.0951C271.429 85.5698 272.944 86.3072 274.838 86.3072C276.746 86.3072 278.261 85.563 279.384 84.0748C280.507 82.573 281.069 80.476 281.069 77.7836C281.069 75.3754 280.494 73.4271 279.344 71.9389C278.207 70.4371 276.692 69.6863 274.798 69.6863C272.944 69.6863 271.449 70.4236 270.313 71.8983C269.176 73.373 268.608 75.4836 268.608 78.2301Z" fill="black"/>
    <path d="M303.088 88.9657C302.871 88.5327 302.695 87.7616 302.56 86.6522C300.815 88.4651 298.731 89.3716 296.309 89.3716C294.145 89.3716 292.365 88.7627 290.972 87.5451C289.592 86.3139 288.902 84.758 288.902 82.8774C288.902 80.591 289.768 78.8186 291.5 77.5604C293.245 76.2886 295.694 75.6527 298.846 75.6527H302.499V73.9277C302.499 72.6154 302.107 71.5736 301.322 70.8024C300.537 70.0177 299.381 69.6254 297.852 69.6254C296.512 69.6254 295.389 69.9636 294.483 70.6401C293.576 71.3166 293.123 72.1351 293.123 73.0957H289.348C289.348 71.9998 289.734 70.9445 290.505 69.9298C291.29 68.9016 292.345 68.0898 293.671 67.4945C295.011 66.8992 296.478 66.6016 298.075 66.6016C300.605 66.6016 302.587 67.2374 304.021 68.5092C305.455 69.7674 306.199 71.506 306.253 73.7248V83.8313C306.253 85.8472 306.511 87.4504 307.025 88.641V88.9657H303.088ZM296.857 86.1042C298.034 86.1042 299.151 85.7998 300.206 85.191C301.261 84.5822 302.026 83.7907 302.499 82.8166V78.3113H299.556C294.956 78.3113 292.656 79.6574 292.656 82.3498C292.656 83.5269 293.049 84.4469 293.833 85.1098C294.618 85.7727 295.626 86.1042 296.857 86.1042Z" fill="black"/>
    <path d="M322.793 70.3763C322.225 70.2816 321.61 70.2342 320.947 70.2342C318.484 70.2342 316.813 71.2827 315.934 73.3798V88.9657H312.18V67.0074H315.833L315.893 69.5442C317.125 67.5824 318.87 66.6016 321.129 66.6016C321.86 66.6016 322.415 66.6963 322.793 66.8857V70.3763Z" fill="black"/>
    <path d="M325.31 77.8038C325.31 74.435 326.108 71.7291 327.704 69.6862C329.301 67.6297 331.391 66.6015 333.975 66.6015C336.546 66.6015 338.582 67.4809 340.084 69.2397V57.7938H343.838V88.9656H340.388L340.205 86.6115C338.704 88.4515 336.613 89.3715 333.935 89.3715C331.391 89.3715 329.314 88.3297 327.704 86.2462C326.108 84.1626 325.31 81.4432 325.31 78.0879V77.8038ZM329.064 78.23C329.064 80.7194 329.578 82.6676 330.606 84.0747C331.635 85.4818 333.055 86.1853 334.868 86.1853C337.249 86.1853 338.988 85.1165 340.084 82.9788V72.8926C338.961 70.8226 337.236 69.7876 334.909 69.7876C333.069 69.7876 331.635 70.4979 330.606 71.9185C329.578 73.3391 329.064 75.4429 329.064 78.23Z" fill="black"/>
    <path d="M79.6333 20.4697H70.0738V47.2142H66.1724V20.4697H56.6333V17.2142H79.6333V20.4697Z" fill="#2B7DEC" fill-opacity="0.5"/>
    <path d="M79.6333 129.959H70.0738V103.214H66.1724V129.959H56.6333V133.214H79.6333V129.959Z" fill="#2B7DEC" fill-opacity="0.5"/>
    <path d="M19.8888 62.2142V71.7737H46.6333V75.6752H19.8888V85.2142H16.6333V62.2142H19.8888Z" fill="#2B7DEC" fill-opacity="0.5"/>
    <path d="M370.378 63.2142V72.7737H343.633V76.6752H370.378V86.2142H373.633V63.2142H370.378Z" fill="#2B7DEC" fill-opacity="0.5"/>
    <line x1="4.37114e-08" y1="46.7142" x2="390" y2="46.7143" stroke="#949494" stroke-dasharray="12 8"/>
    <line x1="4.37114e-08" y1="16.7142" x2="390" y2="16.7143" stroke="#949494" stroke-dasharray="12 8"/>
    <line x1="-4.37114e-08" y1="133.714" x2="390" y2="133.714" stroke="#949494" stroke-dasharray="12 8"/>
    <line x1="46.5" y1="150.214" x2="46.5" y2="0.214233" stroke="#949494" stroke-dasharray="12 8"/>
    <line x1="16.5" y1="150.214" x2="16.5" y2="0.214233" stroke="#949494" stroke-dasharray="12 8"/>
    <line x1="373.5" y1="150.214" x2="373.5" y2="0.214233" stroke="#949494" stroke-dasharray="12 8"/>
    <line x1="344.5" y1="150.214" x2="344.5" y2="0.214233" stroke="#949494" stroke-dasharray="12 8"/>
    <line x1="-4.37114e-08" y1="103.714" x2="390" y2="103.714" stroke="#949494" stroke-dasharray="12 8"/>
    <defs>
        <clipPath id="clip0_18837_22663">
            <rect width="56" height="56" fill="white" transform="translate(46.6328 47.2142)"/>
        </clipPath>
    </defs>
</svg>
