<svg width="40" height="36" viewBox="0 0 40 36" fill="none" xmlns="http://www.w3.org/2000/svg">
<path fill-rule="evenodd" clip-rule="evenodd" d="M7.81034 6.68934C8.3477 6.12785 8.49208 5.27997 8.10278 4.60722L7.80265 4.08857C7.34946 3.30541 7.61802 2.30311 8.4021 1.85147L11.2371 0.218405C12.019 -0.231967 13.0179 0.0356822 13.4698 0.816651L13.7642 1.32549C14.1536 1.99837 14.9609 2.29546 15.7159 2.10999C16.9708 1.80168 18.2826 1.63818 19.6326 1.63818C21.0119 1.63818 22.3512 1.80885 23.6308 2.13022C24.3479 2.31035 25.1176 2.05426 25.527 1.43848L25.9561 0.793141C26.4338 0.0746611 27.3873 -0.149371 28.135 0.281204L30.6393 1.72344C31.4581 2.19499 31.7084 3.26016 31.1852 4.04701L31.0146 4.30365C30.5551 4.9948 30.6927 5.91451 31.2758 6.50504C33.1597 8.41341 34.578 10.7827 35.3462 13.4283C35.5631 14.1756 36.225 14.7266 37.0031 14.7266H37.6283C38.5319 14.7266 39.2644 15.4591 39.2644 16.3626V19.634C39.2644 20.5376 38.5319 21.2701 37.6283 21.2701H37.0034C36.2252 21.2701 35.5633 21.8211 35.3464 22.5683C34.6026 25.1303 33.2493 27.4331 31.4538 29.3091C30.9164 29.8706 30.7719 30.7186 31.1612 31.3913L31.4619 31.9109C31.9151 32.6941 31.6465 33.6964 30.8625 34.1481L28.0274 35.7811C27.2456 36.2315 26.2467 35.9638 25.7948 35.1829L25.4993 34.6723C25.1099 33.9994 24.3028 33.7023 23.5478 33.8877C22.2934 34.1958 20.9821 34.3592 19.6326 34.3592C18.2334 34.3592 16.8751 34.1835 15.5788 33.853C14.8197 33.6595 14.0038 33.9555 13.6115 34.6335L13.3367 35.1085C12.8847 35.8896 11.8857 36.1573 11.1038 35.7068L8.59392 34.2608C7.80993 33.8092 7.54145 32.807 7.99447 32.0238L8.26483 31.5566C8.6583 30.8765 8.50615 30.0188 7.95578 29.4581C6.08856 27.5556 4.68255 25.1989 3.91896 22.5688C3.702 21.8216 3.04012 21.2706 2.262 21.2706H1.63605C0.732484 21.2706 0 20.5381 0 19.6346V16.3631C0 15.4596 0.732484 14.7271 1.63605 14.7271H2.2619C3.04003 14.7271 3.70191 14.1762 3.91885 13.4289C4.66247 10.8675 6.01543 8.56515 7.81034 6.68934ZM19.6326 30.2691C21.7378 30.2691 23.7191 29.7389 25.4505 28.8048C25.8682 28.9583 26.3195 29.042 26.7903 29.042C28.9363 29.042 30.6759 27.3024 30.6759 25.1564C30.6759 24.6856 30.5922 24.2343 30.4387 23.8166C31.3728 22.0852 31.903 20.1039 31.903 17.9987C31.903 11.2219 26.4094 5.72833 19.6326 5.72833C17.5274 5.72833 15.5461 6.25849 13.8147 7.19259C13.397 7.03913 12.9457 6.95536 12.4749 6.95536C10.3289 6.95536 8.58926 8.69497 8.58926 10.841C8.58926 11.3118 8.67303 11.7631 8.82649 12.1808C7.89239 13.9122 7.36222 15.8935 7.36222 17.9987C7.36222 24.7755 12.8558 30.2691 19.6326 30.2691Z" fill="#CFE5D8"/>
<path fill-rule="evenodd" clip-rule="evenodd" d="M19.6382 27C24.6078 27 28.6365 22.9713 28.6365 18.0018C28.6365 13.0322 24.6078 9.00348 19.6382 9.00348C14.6686 9.00348 10.64 13.0322 10.64 18.0018C10.64 22.9713 14.6686 27 19.6382 27ZM19.6382 28.6361C25.5114 28.6361 30.2726 23.8749 30.2726 18.0018C30.2726 12.1286 25.5114 7.36743 19.6382 7.36743C13.7651 7.36743 9.00391 12.1286 9.00391 18.0018C9.00391 23.8749 13.7651 28.6361 19.6382 28.6361Z" fill="#CFE5D8"/>
<path fill-rule="evenodd" clip-rule="evenodd" d="M26.7925 24.5423C26.4537 24.5423 26.179 24.817 26.179 25.1558C26.179 25.4946 26.4537 25.7693 26.7925 25.7693C27.1314 25.7693 27.4061 25.4946 27.4061 25.1558C27.4061 24.817 27.1314 24.5423 26.7925 24.5423ZM24.543 25.1558C24.543 23.9134 25.5501 22.9062 26.7925 22.9062C28.035 22.9062 29.0421 23.9134 29.0421 25.1558C29.0421 26.3982 28.035 27.4054 26.7925 27.4054C25.5501 27.4054 24.543 26.3982 24.543 25.1558Z" fill="#00695C"/>
<path fill-rule="evenodd" clip-rule="evenodd" d="M12.4722 10.2303C12.1334 10.2303 11.8587 10.505 11.8587 10.8438C11.8587 11.1826 12.1334 11.4573 12.4722 11.4573C12.8111 11.4573 13.0857 11.1826 13.0857 10.8438C13.0857 10.505 12.8111 10.2303 12.4722 10.2303ZM10.2227 10.8438C10.2227 9.60139 11.2298 8.59424 12.4722 8.59424C13.7146 8.59424 14.7218 9.60139 14.7218 10.8438C14.7218 12.0862 13.7146 13.0934 12.4722 13.0934C11.2298 13.0934 10.2227 12.0862 10.2227 10.8438Z" fill="#00695C"/>
<path fill-rule="evenodd" clip-rule="evenodd" d="M13.8934 11.0757C15.4519 9.78159 17.4542 9.00348 19.6382 9.00348C20.09 9.00348 20.4563 8.63725 20.4563 8.18546C20.4563 7.73366 20.09 7.36743 19.6382 7.36743C17.1946 7.36743 14.9435 8.19159 13.1478 9.57716C13.6023 9.81709 13.9121 10.2944 13.9121 10.844C13.9121 10.9229 13.9057 11.0003 13.8934 11.0757ZM12.7122 12.2569C12.6368 12.2692 12.5594 12.2756 12.4805 12.2756C11.9309 12.2756 11.4536 11.9658 11.2136 11.5113C9.82807 13.307 9.00391 15.5582 9.00391 18.0018C9.00391 18.4536 9.37014 18.8198 9.82193 18.8198C10.2737 18.8198 10.64 18.4536 10.64 18.0018C10.64 15.8177 11.4181 13.8154 12.7122 12.2569Z" fill="#00695C"/>
<path fill-rule="evenodd" clip-rule="evenodd" d="M25.3754 24.9223C23.8168 26.2164 21.8146 26.9945 19.6305 26.9945C19.1787 26.9945 18.8125 27.3608 18.8125 27.8125C18.8125 28.2643 19.1787 28.6306 19.6305 28.6306C22.0741 28.6306 24.3253 27.8064 26.121 26.4208C25.6665 26.1809 25.3567 25.7036 25.3567 25.154C25.3567 25.0751 25.3631 24.9977 25.3754 24.9223ZM26.5566 23.7411C26.632 23.7288 26.7094 23.7224 26.7882 23.7224C27.3379 23.7224 27.8152 24.0322 28.0551 24.4867C29.4407 22.691 30.2648 20.4399 30.2648 17.9962C30.2648 17.5445 29.8986 17.1782 29.4468 17.1782C28.995 17.1782 28.6288 17.5445 28.6288 17.9962C28.6288 20.1803 27.8507 22.1826 26.5566 23.7411Z" fill="#00695C"/>
<path fill-rule="evenodd" clip-rule="evenodd" d="M13.1497 18.4657L20.105 11.5101C20.4244 11.1906 20.9424 11.1906 21.2619 11.5101L26.2129 16.4612C26.5324 16.7806 26.5324 17.2986 26.2129 17.618L19.2577 24.5736C18.9382 24.893 18.4203 24.893 18.1008 24.5736L13.1497 19.6226C12.8303 19.3031 12.8303 18.7852 13.1497 18.4657ZM21.6604 14.9827C21.5783 14.654 21.2452 14.4541 20.9164 14.5363C20.5877 14.6185 20.3878 14.9516 20.47 15.2803L20.8278 16.7116L17.4506 18.4002C17.1933 18.5288 17.06 18.8188 17.1298 19.0977L17.6069 21.0065C17.6891 21.3352 18.0222 21.535 18.3509 21.4529C18.6797 21.3707 18.8795 21.0376 18.7973 20.7089L18.4395 19.2776L21.8168 17.589C22.074 17.4604 22.2073 17.1704 22.1375 16.8914L21.6604 14.9827Z" fill="#00695C"/>
<path d="M16.2887 24.6827L17.2431 23.7283V22.7739H16.2887L15.3344 23.7283C15.0708 23.9919 15.0708 24.4191 15.3344 24.6827C15.5979 24.9462 16.0252 24.9462 16.2887 24.6827Z" fill="#00695C"/>
<path d="M22.4946 22.295L21.5402 21.3406H20.5859V22.295L21.5402 23.2493C21.8038 23.5128 22.2311 23.5128 22.4946 23.2493C22.7582 22.9858 22.7582 22.5585 22.4946 22.295Z" fill="#00695C"/>
<path d="M13.9098 22.2974L14.8642 21.343V20.3887H13.9098L12.9555 21.343C12.6919 21.6065 12.6919 22.0338 12.9555 22.2974C13.219 22.5609 13.6463 22.5609 13.9098 22.2974Z" fill="#00695C"/>
<path d="M24.8853 19.9151L23.931 18.9607H22.9766V19.9151L23.931 20.8694C24.1945 21.133 24.6218 21.133 24.8853 20.8694C25.1488 20.6059 25.1488 20.1786 24.8853 19.9151Z" fill="#00695C"/>
<path d="M14.3812 16.0878L15.3356 17.0422H16.29V16.0878L15.3356 15.1335C15.072 14.8699 14.6448 14.8699 14.3812 15.1335C14.1177 15.397 14.1177 15.8243 14.3812 16.0878Z" fill="#00695C"/>
<path d="M25.3567 13.7055L24.4023 14.6599V15.6142H25.3567L26.311 14.6599C26.5746 14.3963 26.5746 13.9691 26.311 13.7055C26.0476 13.4419 25.6202 13.4419 25.3567 13.7055Z" fill="#00695C"/>
<path d="M16.768 13.7025L17.7224 14.6569H18.6767V13.7025L17.7224 12.7482C17.4588 12.4846 17.0316 12.4846 16.768 12.7482C16.5044 13.0117 16.5044 13.439 16.768 13.7025Z" fill="#00695C"/>
<path d="M22.9739 11.3202L22.0195 12.2746V13.229H22.9739L23.9282 12.2746C24.1918 12.011 24.1918 11.5837 23.9282 11.3202C23.6647 11.0567 23.2374 11.0567 22.9739 11.3202Z" fill="#00695C"/>
</svg>
