<svg width="54" height="54" viewBox="0 0 54 54" fill="none" xmlns="http://www.w3.org/2000/svg">
<path d="M41 9C41 6.79086 42.7909 5 45 5C47.2091 5 49 6.79086 49 9C49 11.2091 47.2091 13 45 13C44.2582 13 43.5636 12.7981 42.9681 12.4462L39.7073 15.7071L39.7093 15.7093L42.7063 18.7063L42.7071 18.7071L43.7071 19.7071C43.8946 19.8946 44 20.149 44 20.4142V24.9996C43.1643 24.3719 42.1256 24 41 24V21.6036C40.861 21.2431 40.7084 20.8893 40.5429 20.5429L33.4571 13.4571C33.1107 13.2916 32.7569 13.139 32.3964 13H30C30 11.8744 29.6281 10.8357 29.0004 10H33.5858C33.8179 10 34.0416 10.0807 34.2195 10.2265C34.245 10.2473 34.2695 10.2695 34.2929 10.2929L38.2907 14.2907L38.2931 14.2928L41.5539 11.0321C41.202 10.4365 41 9.74185 41 9Z" fill="#97E3DC"/>
<path d="M20.9996 10H20.4142C20.3976 10 20.3811 10.0004 20.3646 10.0012C20.1175 10.0135 19.8829 10.1171 19.7071 10.2929L15.7093 14.2907L15.707 14.2928L12.4462 11.032C12.7981 10.4365 13 9.74181 13 9C13 6.79086 11.2091 5 9 5C6.79086 5 5 6.79086 5 9C5 11.2091 6.79086 13 9 13C9.74181 13 10.4365 12.7981 11.032 12.4462L14.2928 15.707L14.2907 15.7093L10.2929 19.7071C10.1054 19.8946 10 20.149 10 20.4142V20.9996C10.8357 20.3719 11.8744 20 13 20C13.313 20 13.6192 20.0288 13.9162 20.0838L20.0838 13.9162C20.0288 13.6192 20 13.313 20 13C20 11.8744 20.3719 10.8357 20.9996 10Z" fill="#97E3DC"/>
<path d="M10 29.0004C10.8357 29.6281 11.8744 30 13 30V32.3964C13.139 32.7569 13.2916 33.1107 13.4571 33.4571L20.5429 40.5429C20.8893 40.7084 21.2431 40.861 21.6036 41H24C24 42.1256 24.3719 43.1643 24.9996 44H20.4142C20.149 44 19.8947 43.8947 19.7071 43.7071L18.7071 42.7071L18.7059 42.7059L15.7093 39.7093L15.7071 39.7073L12.4462 42.9681C12.7981 43.5636 13 44.2582 13 45C13 47.2091 11.2091 49 9 49C6.79086 49 5 47.2091 5 45C5 42.7909 6.79086 41 9 41C9.74185 41 10.4365 41.202 11.0321 41.5539L14.2928 38.2931L14.2907 38.2907L10.2929 34.2929C10.2695 34.2695 10.2473 34.245 10.2265 34.2195C10.0807 34.0416 10 33.8179 10 33.5858V29.0004Z" fill="#97E3DC"/>
<path d="M33.0004 44H33.5858C33.851 44 34.1054 43.8946 34.2929 43.7071L38.2907 39.7093L38.293 39.7072L41.5538 42.968C41.2019 43.5635 41 44.2582 41 45C41 47.2091 42.7909 49 45 49C47.2091 49 49 47.2091 49 45C49 42.7909 47.2091 41 45 41C44.2582 41 43.5635 41.2019 42.968 41.5538L39.7072 38.293L39.7093 38.2907L43.7071 34.2929C43.8946 34.1054 44 33.851 44 33.5858V33.0004C43.1643 33.6281 42.1256 34 41 34C40.687 34 40.3808 33.9712 40.0838 33.9162L33.9162 40.0838C33.9712 40.3808 34 40.687 34 41C34 42.1256 33.6281 43.1643 33.0004 44Z" fill="#97E3DC"/>
<path fill-rule="evenodd" clip-rule="evenodd" d="M25 16C26.6569 16 28 14.6569 28 13C28 11.3431 26.6569 10 25 10C23.3431 10 22 11.3431 22 13C22 13.5564 22.1514 14.0773 22.4154 14.524L19.9697 16.9697C19.6768 17.2626 19.6768 17.7374 19.9697 18.0303L24.2945 22.3552L22.3552 24.2946L18.0303 19.9697C17.7374 19.6768 17.2626 19.6768 16.9697 19.9697L14.524 22.4154C14.0773 22.1514 13.5564 22 13 22C11.3431 22 10 23.3431 10 25C10 26.6569 11.3431 28 13 28C14.6569 28 16 26.6569 16 25C16 24.4436 15.8486 23.9227 15.5846 23.476L17.5 21.5607L21.2946 25.3553L19.0739 27.5761C18.6834 27.9666 18.6834 28.5997 19.0739 28.9903L20.0003 29.9167L18.8333 31.0833C18.5111 31.4055 18.5111 31.9278 18.8333 32.25C19.1554 32.5722 19.6778 32.5722 19.9999 32.25L21.1666 31.0833L22.917 32.8333L21.7499 34C21.4278 34.3222 21.4278 34.8445 21.7499 35.1667C22.0721 35.4888 22.5944 35.4888 22.9166 35.1667L24.0833 34L25.1264 35.0427C25.5169 35.4332 26.1501 35.4332 26.5406 35.0427L28.7613 32.8219L32.4393 36.5L30.524 38.4154C30.0773 38.1514 29.5564 38 29 38C27.3431 38 26 39.3431 26 41C26 42.6569 27.3431 44 29 44C30.6569 44 32 42.6569 32 41C32 40.4436 31.8486 39.9227 31.5846 39.476L34.0303 37.0303C34.3232 36.7374 34.3232 36.2626 34.0303 35.9697L29.8219 31.7612L31.7612 29.8219L35.9697 34.0303C36.2626 34.3232 36.7374 34.3232 37.0303 34.0303L39.476 31.5846C39.9227 31.8486 40.4436 32 41 32C42.6569 32 44 30.6569 44 29C44 27.3431 42.6569 26 41 26C39.3431 26 38 27.3431 38 29C38 29.5564 38.1514 30.0773 38.4154 30.524L36.5 32.4393L32.8218 28.7612L35.0431 26.5398C35.4336 26.1493 35.4336 25.5161 35.0431 25.1256L34.0003 24.0828L35.1666 22.9165C35.4888 22.5943 35.4888 22.072 35.1666 21.7498C34.8444 21.4277 34.3221 21.4277 33.9999 21.7498L32.8336 22.9162L31.0838 21.1663L32.2501 20C32.5722 19.6778 32.5722 19.1555 32.2501 18.8333C31.9279 18.5112 31.4056 18.5112 31.0834 18.8333L29.9171 19.9997L28.9906 19.0732C28.6001 18.6826 27.9669 18.6826 27.5764 19.0732L25.3552 21.2945L21.5607 17.5L23.476 15.5846C23.9227 15.8486 24.4436 16 25 16ZM25 14.5C25.8284 14.5 26.5 13.8284 26.5 13C26.5 12.1716 25.8284 11.5 25 11.5C24.1716 11.5 23.5 12.1716 23.5 13C23.5 13.8284 24.1716 14.5 25 14.5ZM29.4778 23.3179C29.3773 22.9161 28.9701 22.6718 28.5683 22.7722C28.1664 22.8727 27.9221 23.2799 28.0226 23.6817L28.46 25.4314L24.3314 27.4957C24.017 27.6529 23.854 28.0074 23.9392 28.3484L24.5226 30.6817C24.623 31.0836 25.0302 31.3279 25.4321 31.2274C25.8339 31.127 26.0783 30.7198 25.9778 30.3179L25.5404 28.5683L29.6689 26.504C29.9833 26.3468 30.1464 25.9923 30.0611 25.6513L29.4778 23.3179ZM14.5 25C14.5 25.8284 13.8284 26.5 13 26.5C12.1716 26.5 11.5 25.8284 11.5 25C11.5 24.1716 12.1716 23.5 13 23.5C13.8284 23.5 14.5 24.1716 14.5 25ZM41 30.5C41.8284 30.5 42.5 29.8284 42.5 29C42.5 28.1716 41.8284 27.5 41 27.5C40.1716 27.5 39.5 28.1716 39.5 29C39.5 29.8284 40.1716 30.5 41 30.5ZM30.5 41C30.5 41.8284 29.8284 42.5 29 42.5C28.1716 42.5 27.5 41.8284 27.5 41C27.5 40.1716 28.1716 39.5 29 39.5C29.8284 39.5 30.5 40.1716 30.5 41Z" fill="#009688"/>
</svg>
