<svg width="436" height="200" viewBox="0 0 436 200" fill="none" xmlns="http://www.w3.org/2000/svg">
    <rect width="436" height="199.214" fill="#F4F8FE"/>
    <path d="M164.27 140.944H158.769V156.215H156.525V140.944H151.036V139.086H164.27V140.944Z" fill="#305680"/>
    <path d="M168.668 144.999C169.632 143.815 170.886 143.222 172.429 143.222C175.117 143.222 176.473 144.74 176.496 147.775V156.187H174.322V147.764C174.314 146.846 174.102 146.167 173.687 145.728C173.28 145.289 172.641 145.069 171.771 145.069C171.066 145.069 170.447 145.258 169.914 145.634C169.381 146.011 168.966 146.505 168.668 147.117V156.187H166.494V138.116H168.668V144.999Z" fill="#305680"/>
    <path d="M182.111 156.258H179.937V143.528H182.111V156.258ZM179.76 140.152C179.76 139.799 179.866 139.501 180.078 139.258C180.297 139.014 180.618 138.893 181.042 138.893C181.465 138.893 181.786 139.014 182.005 139.258C182.225 139.501 182.334 139.799 182.334 140.152C182.334 140.505 182.225 140.799 182.005 141.034C181.786 141.269 181.465 141.387 181.042 141.387C180.618 141.387 180.297 141.269 180.078 141.034C179.866 140.799 179.76 140.505 179.76 140.152Z" fill="#305680"/>
    <path d="M187.637 143.475L187.708 145.075C188.679 143.851 189.949 143.24 191.516 143.24C194.203 143.24 195.559 144.757 195.582 147.793V156.204H193.408V147.781C193.4 146.863 193.189 146.185 192.773 145.746C192.366 145.306 191.727 145.087 190.858 145.087C190.152 145.087 189.533 145.275 189.001 145.651C188.468 146.028 188.053 146.522 187.755 147.134V156.204H185.58V143.475H187.637Z" fill="#305680"/>
    <path d="M198.357 149.732C198.357 147.747 198.815 146.171 199.732 145.002C200.648 143.826 201.863 143.238 203.375 143.238C204.927 143.238 206.137 143.787 207.007 144.885L207.113 143.473H209.099V155.896C209.099 157.544 208.609 158.842 207.63 159.791C206.658 160.74 205.35 161.214 203.704 161.214C202.788 161.214 201.89 161.018 201.013 160.626C200.135 160.234 199.465 159.696 199.003 159.014L200.131 157.708C201.064 158.861 202.204 159.438 203.551 159.438C204.609 159.438 205.432 159.14 206.02 158.544C206.615 157.947 206.913 157.108 206.913 156.026V154.932C206.043 155.936 204.856 156.438 203.352 156.438C201.863 156.438 200.656 155.838 199.732 154.638C198.815 153.438 198.357 151.802 198.357 149.732ZM200.543 149.979C200.543 151.414 200.837 152.543 201.424 153.367C202.012 154.183 202.835 154.591 203.892 154.591C205.264 154.591 206.27 153.967 206.913 152.72V146.908C206.247 145.692 205.248 145.085 203.916 145.085C202.858 145.085 202.031 145.496 201.436 146.32C200.84 147.143 200.543 148.363 200.543 149.979Z" fill="#305680"/>
    <path d="M219.779 152.851C219.779 152.262 219.556 151.807 219.109 151.486C218.671 151.156 217.899 150.874 216.794 150.639C215.697 150.404 214.823 150.121 214.173 149.792C213.531 149.462 213.053 149.07 212.739 148.615C212.434 148.16 212.281 147.619 212.281 146.992C212.281 145.949 212.72 145.066 213.597 144.345C214.483 143.623 215.611 143.262 216.982 143.262C218.424 143.262 219.591 143.635 220.485 144.38C221.386 145.125 221.836 146.078 221.836 147.239H219.65C219.65 146.643 219.395 146.129 218.886 145.698C218.385 145.266 217.75 145.051 216.982 145.051C216.191 145.051 215.572 145.223 215.125 145.568C214.678 145.913 214.455 146.364 214.455 146.921C214.455 147.447 214.663 147.843 215.078 148.109C215.493 148.376 216.242 148.631 217.323 148.874C218.412 149.117 219.294 149.407 219.967 149.745C220.641 150.082 221.139 150.49 221.46 150.968C221.789 151.439 221.954 152.015 221.954 152.698C221.954 153.835 221.499 154.749 220.59 155.439C219.681 156.121 218.502 156.462 217.053 156.462C216.034 156.462 215.133 156.282 214.349 155.921C213.566 155.56 212.951 155.058 212.504 154.415C212.065 153.764 211.846 153.062 211.846 152.309H214.02C214.059 153.039 214.349 153.619 214.89 154.051C215.439 154.474 216.159 154.686 217.053 154.686C217.875 154.686 218.534 154.521 219.027 154.192C219.529 153.855 219.779 153.407 219.779 152.851Z" fill="#305680"/>
    <path d="M225.127 156.303V139.174H230.722C232.579 139.174 233.973 139.558 234.906 140.327C235.846 141.095 236.316 142.233 236.316 143.739C236.316 144.539 236.089 145.248 235.635 145.868C235.18 146.48 234.561 146.954 233.778 147.292C234.702 147.55 235.431 148.045 235.964 148.774C236.504 149.496 236.775 150.358 236.775 151.362C236.775 152.899 236.277 154.107 235.282 154.986C234.287 155.864 232.88 156.303 231.063 156.303H225.127ZM227.384 148.292V154.456H231.11C232.16 154.456 232.986 154.186 233.59 153.645C234.201 153.096 234.506 152.343 234.506 151.386C234.506 149.323 233.386 148.292 231.145 148.292H227.384ZM227.384 146.48H230.792C231.78 146.48 232.567 146.233 233.155 145.739C233.75 145.244 234.048 144.574 234.048 143.727C234.048 142.786 233.774 142.103 233.225 141.68C232.677 141.248 231.842 141.033 230.722 141.033H227.384V146.48Z" fill="#305680"/>
    <path d="M239.208 149.64C239.208 148.393 239.451 147.271 239.937 146.275C240.431 145.279 241.113 144.511 241.982 143.969C242.86 143.428 243.859 143.158 244.979 143.158C246.711 143.158 248.11 143.758 249.175 144.958C250.249 146.158 250.785 147.754 250.785 149.746V149.899C250.785 151.138 250.546 152.252 250.068 153.24C249.598 154.221 248.921 154.985 248.035 155.534C247.158 156.083 246.147 156.358 245.003 156.358C243.279 156.358 241.88 155.758 240.807 154.558C239.741 153.358 239.208 151.77 239.208 149.793V149.64ZM241.395 149.899C241.395 151.311 241.72 152.444 242.37 153.299C243.028 154.154 243.906 154.581 245.003 154.581C246.108 154.581 246.985 154.15 247.636 153.287C248.286 152.417 248.611 151.201 248.611 149.64C248.611 148.244 248.278 147.115 247.612 146.252C246.954 145.381 246.076 144.946 244.979 144.946C243.906 144.946 243.04 145.373 242.382 146.228C241.724 147.083 241.395 148.307 241.395 149.899Z" fill="#305680"/>
    <path d="M261.364 156.109C261.239 155.858 261.137 155.411 261.059 154.768C260.048 155.819 258.841 156.345 257.439 156.345C256.185 156.345 255.155 155.992 254.348 155.286C253.548 154.572 253.149 153.67 253.149 152.58C253.149 151.255 253.65 150.227 254.653 149.498C255.664 148.76 257.082 148.392 258.908 148.392H261.023V147.392C261.023 146.631 260.796 146.027 260.342 145.58C259.887 145.125 259.217 144.898 258.332 144.898C257.556 144.898 256.906 145.094 256.381 145.486C255.856 145.878 255.593 146.353 255.593 146.909H253.407C253.407 146.274 253.631 145.662 254.077 145.074C254.532 144.478 255.143 144.007 255.911 143.662C256.686 143.317 257.537 143.145 258.461 143.145C259.926 143.145 261.074 143.513 261.905 144.251C262.735 144.98 263.166 145.988 263.198 147.274V153.133C263.198 154.302 263.347 155.231 263.644 155.921V156.109H261.364ZM257.756 154.451C258.438 154.451 259.084 154.274 259.695 153.921C260.306 153.568 260.749 153.109 261.023 152.545V149.933H259.319C256.655 149.933 255.323 150.713 255.323 152.274C255.323 152.957 255.55 153.49 256.005 153.874C256.459 154.258 257.043 154.451 257.756 154.451Z" fill="#305680"/>
    <path d="M272.773 145.373C272.444 145.318 272.088 145.29 271.704 145.29C270.278 145.29 269.31 145.898 268.801 147.114V156.149H266.626V143.42H268.742L268.777 144.89C269.49 143.753 270.501 143.185 271.809 143.185C272.233 143.185 272.554 143.239 272.773 143.349V145.373Z" fill="#305680"/>
    <path d="M274.234 149.598C274.234 147.645 274.696 146.076 275.62 144.892C276.545 143.699 277.756 143.103 279.252 143.103C280.741 143.103 281.92 143.613 282.79 144.633V137.997H284.964V156.068H282.966L282.86 154.703C281.991 155.77 280.78 156.303 279.229 156.303C277.756 156.303 276.553 155.7 275.62 154.492C274.696 153.284 274.234 151.707 274.234 149.762V149.598ZM276.408 149.845C276.408 151.288 276.706 152.417 277.301 153.233C277.897 154.049 278.719 154.456 279.769 154.456C281.148 154.456 282.155 153.837 282.79 152.598V146.75C282.14 145.55 281.14 144.95 279.793 144.95C278.727 144.95 277.897 145.362 277.301 146.186C276.706 147.009 276.408 148.229 276.408 149.845Z" fill="#305680"/>
    <g clip-path="url(#clip0_18837_22626)">
        <path d="M260.215 82.5039C260.549 82.5039 260.856 82.5871 261.163 82.6982C261.47 82.8095 261.749 83.0041 261.973 83.2266C262.196 83.449 262.391 83.7274 262.503 84.0332C262.614 84.3392 262.67 84.6457 262.67 84.9795C262.67 92.9345 260.41 100.389 256.559 106.73C258.01 108.511 258.819 110.764 258.819 113.101C258.819 118.719 254.216 123.308 248.58 123.309C246.208 123.309 243.948 122.501 242.135 121.027C235.801 124.81 228.406 127.008 220.482 127.008C220.148 127.008 219.841 126.952 219.534 126.868C219.227 126.757 218.948 126.562 218.724 126.34C218.501 126.09 218.306 125.839 218.194 125.533C218.055 125.227 217.999 124.921 217.999 124.588C217.999 124.254 218.083 123.948 218.194 123.642C218.306 123.336 218.501 123.057 218.724 122.835C218.948 122.613 219.227 122.418 219.534 122.307C219.841 122.195 220.148 122.14 220.482 122.14C227.318 122.14 233.708 120.304 239.205 117.105C238.647 115.854 238.34 114.491 238.34 113.101C238.34 107.482 242.944 102.893 248.58 102.893C249.975 102.92 251.342 103.226 252.625 103.782C255.889 98.2471 257.76 91.8497 257.76 84.9795C257.76 84.6457 257.815 84.3392 257.927 84.0332C258.038 83.7274 258.234 83.449 258.457 83.2266C258.708 83.0042 258.959 82.8095 259.266 82.6982C259.572 82.5592 259.88 82.5039 260.215 82.5039ZM248.58 107.76C245.622 107.76 243.25 110.096 243.25 113.072C243.25 114.268 243.641 115.437 244.394 116.383C244.422 116.41 244.423 116.41 244.45 116.438C245.455 117.717 246.934 118.413 248.58 118.413C251.537 118.413 253.909 116.076 253.909 113.101C253.909 111.487 253.183 109.957 251.928 108.956C250.979 108.177 249.807 107.76 248.58 107.76ZM234.684 53.5762C235.996 53.5206 237.084 54.5501 237.084 55.8574C237.084 56.4692 236.889 57.0814 236.442 57.5264C234.629 59.3622 231.504 62.4774 230.918 63.0615L236.471 68.5967C236.778 68.2905 240.264 64.8138 242.078 63.0059C242.497 62.6165 243.055 62.394 243.613 62.3662C244.924 62.3107 246.013 63.3393 246.013 64.6465C246.013 65.2584 245.817 65.8704 245.371 66.3154C243.446 68.2346 240.098 71.5723 239.763 71.9062L245.008 77.0518C246.124 78.1644 246.124 79.945 245.008 81.0576L238.089 87.9551C238.172 88.0385 241.855 91.6828 243.724 93.5742C244.115 93.9913 244.338 94.5474 244.366 95.1035C244.422 96.4108 243.389 97.4961 242.078 97.4961C241.464 97.496 240.851 97.3013 240.404 96.8564C238.424 94.9105 234.912 91.4086 234.768 91.2656L227.486 98.5254C227.528 98.5671 231.235 102.235 233.122 104.144C233.513 104.561 233.736 105.118 233.764 105.674C233.819 106.981 232.787 108.065 231.475 108.065C230.862 108.065 230.248 107.871 229.802 107.426C227.805 105.435 224.209 101.851 224.166 101.808L217.246 108.705C216.13 109.818 214.344 109.818 213.228 108.705L208.038 103.532C207.757 103.841 204.27 107.343 202.43 109.15C202.011 109.54 201.453 109.762 200.895 109.79C199.584 109.846 198.496 108.817 198.496 107.51C198.496 106.898 198.691 106.286 199.138 105.841C201.063 103.922 204.438 100.557 204.746 100.25L199.193 94.7148C198.912 94.9948 195.398 98.4982 193.557 100.306C193.139 100.695 192.58 100.917 192.022 100.945C190.711 101.001 189.623 99.9713 189.623 98.6641C189.623 98.0522 189.818 97.4401 190.265 96.9951C192.19 95.0759 195.594 91.6824 195.873 91.4043L190.767 86.3701C189.651 85.2575 189.651 83.4769 190.767 82.3643L197.686 75.4668C197.324 75.1051 193.864 71.6839 192.078 69.876C191.687 69.4588 191.464 68.902 191.436 68.3457C191.409 67.6784 191.66 67.0666 192.078 66.6494C192.497 66.2322 193.083 65.9541 193.753 65.9541C194.367 65.9542 194.98 66.1488 195.427 66.5938C197.352 68.485 200.672 71.7941 201.035 72.1562L208.289 64.9248C207.842 64.4791 204.467 61.114 202.682 59.334C202.291 58.9168 202.067 58.3878 202.039 57.8037C201.983 56.4967 203.016 55.4123 204.327 55.4121C204.941 55.4121 205.555 55.6067 206.002 56.0518C207.871 57.9154 211.163 61.198 211.582 61.6152L218.502 54.6885C219.618 53.5763 221.403 53.5761 222.519 54.6885L227.598 59.751C228.184 59.1664 231.421 55.9402 233.15 54.2158C233.569 53.8266 234.127 53.604 234.684 53.5762ZM221.989 65.5371C221.347 65.5093 220.706 65.787 220.231 66.2598C220.008 66.4823 219.813 66.7609 219.701 67.0391L217.441 72.4629C216.995 73.492 217.33 74.6879 218.278 75.2441C219.227 75.8004 220.455 75.6054 221.236 74.7432L222.38 79.2217L209.908 83.0049C208.68 83.3665 207.927 84.6454 208.233 85.8691L211.08 96.9395C211.387 98.1632 212.642 98.8589 213.897 98.4697C215.153 98.0804 215.907 96.8008 215.572 95.5771L213.256 86.7041L225.728 82.9209C226.956 82.5591 227.709 81.2516 227.402 80.0557L225.7 73.3809C226.76 73.6867 227.933 73.1854 228.463 72.1562C228.993 71.1273 228.741 69.9034 227.877 69.3193L223.272 65.9541C222.91 65.676 222.463 65.5371 221.989 65.5371ZM215.516 38C215.85 38 216.157 38.0553 216.492 38.1387C216.799 38.2499 217.078 38.4454 217.302 38.668C217.525 38.9182 217.72 39.1687 217.832 39.4746C217.971 39.7804 218.027 40.0863 218.027 40.4199C218.027 40.7536 217.943 41.0594 217.832 41.3652C217.72 41.6711 217.525 41.9494 217.302 42.1719C217.078 42.3944 216.799 42.5899 216.492 42.7012C216.185 42.8123 215.878 42.8672 215.544 42.8672C208.708 42.8672 202.319 44.7037 196.822 47.9023C197.38 49.1539 197.686 50.5167 197.686 51.9072C197.686 57.5257 193.083 62.115 187.447 62.1152C186.052 62.0874 184.685 61.7818 183.401 61.2256C180.137 66.7607 178.267 73.1581 178.267 80.0283C178.295 80.362 178.211 80.6678 178.099 80.9736C177.988 81.2796 177.792 81.5578 177.569 81.7803C177.318 82.0027 177.067 82.1973 176.761 82.3086C176.454 82.4477 176.146 82.5039 175.811 82.5039C175.477 82.5039 175.17 82.4198 174.863 82.3086C174.556 82.1973 174.277 82.0028 174.054 81.7803C173.83 81.5578 173.635 81.2795 173.523 80.9736C173.412 80.6678 173.356 80.3619 173.356 80.0283C173.356 72.0733 175.589 64.6469 179.439 58.2773C177.988 56.4972 177.179 54.2437 177.179 51.9072C177.179 46.2887 181.783 41.6992 187.419 41.6992C189.79 41.6992 192.051 42.5063 193.864 43.9805C200.198 40.1977 207.592 38.0001 215.516 38ZM187.419 46.5947C184.461 46.5947 182.09 48.9311 182.09 51.9072C182.09 53.5204 182.815 55.0504 184.07 56.0518C185.019 56.8306 186.191 57.248 187.419 57.248C190.376 57.248 192.748 54.9116 192.748 51.9355C192.748 50.7395 192.358 49.5707 191.604 48.625C191.576 48.5972 191.577 48.5971 191.549 48.5693C190.544 47.2899 189.065 46.5947 187.419 46.5947Z" fill="#305680"/>
    </g>
    <defs>
        <clipPath id="clip0_18837_22626">
            <rect width="89.2857" height="89.2857" fill="white" transform="translate(173.356 38)"/>
        </clipPath>
    </defs>
</svg>
