<svg width="54" height="54" viewBox="0 0 54 54" fill="none" xmlns="http://www.w3.org/2000/svg">
<path fill-rule="evenodd" clip-rule="evenodd" d="M12.5478 13.1748C13.2047 12.4884 13.3812 11.4519 12.9053 10.6295L12.5384 9.99547C11.9844 9.03809 12.3127 7.81282 13.2712 7.26071L16.7369 5.26436C17.6927 4.7138 18.9138 5.04099 19.4662 5.99569L19.8262 6.61773C20.3022 7.44029 21.2891 7.80347 22.212 7.57674C23.7461 7.19985 25.3497 6.99997 27 6.99997C28.6861 6.99997 30.3234 7.20861 31.8876 7.60147C32.7643 7.82167 33.7052 7.50861 34.2057 6.75585L34.7302 5.96695C35.3142 5.08864 36.4798 4.81477 37.3938 5.34113L40.4552 7.1042C41.4562 7.68065 41.7621 8.98277 41.1226 9.94466L40.914 10.2584C40.3523 11.1033 40.5205 12.2276 41.2333 12.9495C43.5363 15.2824 45.2701 18.1787 46.2092 21.4129C46.4744 22.3264 47.2835 23 48.2347 23H48.999C50.1036 23 50.999 23.8954 50.999 25V28.9991C50.999 30.1037 50.1036 30.9991 48.999 30.9991H48.235C47.2837 30.9991 46.4746 31.6727 46.2094 32.5862C45.3002 35.7181 43.6458 38.5331 41.4509 40.8265C40.794 41.5129 40.6173 42.5495 41.0932 43.3719L41.4608 44.0071C42.0148 44.9645 41.6865 46.1898 40.7281 46.7419L37.2623 48.7382C36.3066 49.2888 35.0855 48.9616 34.533 48.0069L34.1718 47.3827C33.6958 46.5602 32.7091 46.197 31.7862 46.4236C30.2527 46.8002 28.6497 47 27 47C25.2895 47 23.6291 46.7852 22.0444 46.3812C21.1165 46.1447 20.119 46.5065 19.6395 47.3353L19.3035 47.916C18.751 48.8709 17.5298 49.1981 16.5739 48.6474L13.5057 46.8797C12.5473 46.3276 12.2191 45.1025 12.7729 44.1451L13.1034 43.574C13.5844 42.7426 13.3984 41.694 12.7256 41.0086C10.443 38.6829 8.72422 35.8019 7.79076 32.5868C7.52554 31.6733 6.71641 30.9998 5.7652 30.9998H5C3.89543 30.9998 3 30.1043 3 28.9998V25.0006C3 23.8961 3.89543 23.0006 5 23.0006H5.76507C6.7163 23.0006 7.52542 22.3271 7.79063 21.4136C8.69967 18.2824 10.3536 15.4679 12.5478 13.1748ZM27 42C29.5735 42 31.9956 41.3519 34.1121 40.21C34.6227 40.3976 35.1744 40.5 35.75 40.5C38.3734 40.5 40.5 38.3734 40.5 35.75C40.5 35.1744 40.3976 34.6227 40.21 34.1121C41.3519 31.9956 42 29.5735 42 27C42 18.7157 35.2843 12 27 12C24.4265 12 22.0044 12.6481 19.8879 13.79C19.3773 13.6024 18.8256 13.5 18.25 13.5C15.6266 13.5 13.5 15.6266 13.5 18.25C13.5 18.8256 13.6024 19.3773 13.79 19.8879C12.6481 22.0044 12 24.4265 12 27C12 35.2843 18.7157 42 27 42Z" fill="#CFE5D8"/>
<path fill-rule="evenodd" clip-rule="evenodd" d="M27 38C33.0751 38 38 33.0751 38 27C38 20.9249 33.0751 16 27 16C20.9249 16 16 20.9249 16 27C16 33.0751 20.9249 38 27 38ZM27 40C34.1797 40 40 34.1797 40 27C40 19.8203 34.1797 14 27 14C19.8203 14 14 19.8203 14 27C14 34.1797 19.8203 40 27 40Z" fill="#CFE5D8"/>
<path fill-rule="evenodd" clip-rule="evenodd" d="M18.25 17.5C17.8358 17.5 17.5 17.8358 17.5 18.25C17.5 18.6642 17.8358 19 18.25 19C18.6642 19 19 18.6642 19 18.25C19 17.8358 18.6642 17.5 18.25 17.5ZM15.5 18.25C15.5 16.7312 16.7312 15.5 18.25 15.5C19.7688 15.5 21 16.7312 21 18.25C21 19.7688 19.7688 21 18.25 21C16.7312 21 15.5 19.7688 15.5 18.25Z" fill="#1F8B4D"/>
<path fill-rule="evenodd" clip-rule="evenodd" d="M19.9772 18.5332C21.8824 16.9512 24.3301 16 27 16C27.5523 16 28 15.5523 28 15C28 14.4477 27.5523 14 27 14C24.0128 14 21.2609 15.0075 19.0657 16.7013C19.6213 16.9946 20 17.5781 20 18.25C20 18.3464 19.9922 18.441 19.9772 18.5332ZM18.5332 19.9772C18.441 19.9922 18.3464 20 18.25 20C17.5781 20 16.9946 19.6213 16.7013 19.0657C15.0075 21.2609 14 24.0128 14 27C14 27.5523 14.4477 28 15 28C15.5523 28 16 27.5523 16 27C16 24.3301 16.9512 21.8824 18.5332 19.9772Z" fill="#1F8B4D"/>
<path fill-rule="evenodd" clip-rule="evenodd" d="M35.75 35C35.3358 35 35 35.3358 35 35.75C35 36.1642 35.3358 36.5 35.75 36.5C36.1642 36.5 36.5 36.1642 36.5 35.75C36.5 35.3358 36.1642 35 35.75 35ZM33 35.75C33 34.2312 34.2312 33 35.75 33C37.2688 33 38.5 34.2312 38.5 35.75C38.5 37.2688 37.2688 38.5 35.75 38.5C34.2312 38.5 33 37.2688 33 35.75Z" fill="#1F8B4D"/>
<path fill-rule="evenodd" clip-rule="evenodd" d="M34.0228 35.4668C32.1176 37.0488 29.6699 38 27 38C26.4477 38 26 38.4477 26 39C26 39.5523 26.4477 40 27 40C29.9872 40 32.7391 38.9925 34.9343 37.2987C34.3787 37.0054 34 36.4219 34 35.75C34 35.6536 34.0078 35.559 34.0228 35.4668ZM35.4668 34.0228C35.559 34.0078 35.6536 34 35.75 34C36.4219 34 37.0054 34.3787 37.2987 34.9343C38.9925 32.7391 40 29.9872 40 27C40 26.4477 39.5523 26 39 26C38.4477 26 38 26.4477 38 27C38 29.6699 37.0488 32.1176 35.4668 34.0228Z" fill="#1F8B4D"/>
<path fill-rule="evenodd" clip-rule="evenodd" d="M19.0741 27.5761L27.5766 19.0732C27.9671 18.6826 28.6003 18.6826 28.9909 19.0732L35.0433 25.1256C35.4338 25.5161 35.4338 26.1493 35.0433 26.5398L26.5408 35.0427C26.1503 35.4332 25.5171 35.4332 25.1266 35.0427L19.0741 28.9903C18.6836 28.5997 18.6836 27.9666 19.0741 27.5761ZM29.478 23.3183C29.3776 22.9164 28.9704 22.6721 28.5685 22.7726C28.1667 22.873 27.9223 23.2802 28.0228 23.6821L28.4602 25.4317L24.3317 27.496C24.0172 27.6532 23.8542 28.0077 23.9395 28.3487L24.5228 30.6821C24.6233 31.0839 25.0305 31.3282 25.4323 31.2278C25.8342 31.1273 26.0785 30.7201 25.978 30.3183L25.5406 28.5686L29.6692 26.5043C29.9836 26.3471 30.1466 25.9926 30.0613 25.6516L29.478 23.3183Z" fill="#1F8B4D"/>
<path d="M33.9997 21.7504L32.833 22.9171V24.0837H33.9997L35.1663 22.9171C35.4885 22.5949 35.4885 22.0726 35.1663 21.7504C34.8442 21.4282 34.3218 21.4282 33.9997 21.7504Z" fill="#1F8B4D"/>
<path d="M31.0837 18.8334L29.917 20.0001V21.1668H31.0837L32.2503 20.0001C32.5725 19.6779 32.5725 19.1556 32.2503 18.8334C31.9282 18.5113 31.4058 18.5113 31.0837 18.8334Z" fill="#1F8B4D"/>
<path d="M19.9993 32.2496L21.166 31.0829L21.166 29.9163L19.9993 29.9163L18.8327 31.0829C18.5105 31.4051 18.5105 31.9274 18.8327 32.2496C19.1548 32.5718 19.6772 32.5718 19.9993 32.2496Z" fill="#1F8B4D"/>
<path d="M22.9163 35.1666L24.083 33.9999L24.083 32.8332L22.9163 32.8332L21.7497 33.9999C21.4275 34.3221 21.4275 34.8444 21.7497 35.1666C22.0718 35.4887 22.5942 35.4887 22.9163 35.1666Z" fill="#1F8B4D"/>
<path d="M23.5004 21.7503L24.6671 22.917L25.8337 22.917L25.8337 21.7503L24.6671 20.5837C24.3449 20.2615 23.8226 20.2615 23.5004 20.5837C23.1782 20.9058 23.1782 21.4282 23.5004 21.7503Z" fill="#1F8B4D"/>
<path d="M20.5834 24.6663L21.7501 25.833L22.9168 25.833L22.9168 24.6663L21.7501 23.4997C21.4279 23.1775 20.9056 23.1775 20.5834 23.4997C20.2613 23.8218 20.2613 24.3442 20.5834 24.6663Z" fill="#1F8B4D"/>
<path d="M30.4996 32.2497L29.3329 31.083L28.1663 31.083L28.1663 32.2497L29.3329 33.4163C29.6551 33.7385 30.1774 33.7385 30.4996 33.4163C30.8218 33.0942 30.8218 32.5718 30.4996 32.2497Z" fill="#1F8B4D"/>
<path d="M33.4166 29.3337L32.2499 28.167L31.0832 28.167L31.0832 29.3337L32.2499 30.5003C32.5721 30.8225 33.0944 30.8225 33.4166 30.5003C33.7387 30.1782 33.7387 29.6558 33.4166 29.3337Z" fill="#1F8B4D"/>
</svg>
