<svg width="168" height="44" viewBox="0 0 168 44" fill="none" xmlns="http://www.w3.org/2000/svg">
<path d="M21.2752 6.00049C18.4084 6.00049 15.7247 6.79201 13.4305 8.15415C12.7763 7.62793 11.9543 7.33502 11.0991 7.3348C11.0992 7.3348 11.0989 7.3348 11.0991 7.3348C9.06201 7.33487 7.39141 8.98757 7.39151 11.0029C7.39151 11.0033 7.39151 11.0036 7.39151 11.004C7.39251 11.8454 7.68733 12.6523 8.21055 13.2967C6.81269 15.5796 6.00006 18.2546 6.00006 21.1135C5.99869 21.2295 6.02059 21.3446 6.0645 21.4521C6.10841 21.5596 6.17345 21.6575 6.25586 21.74C6.33826 21.8225 6.43639 21.888 6.54456 21.9327C6.65274 21.9774 6.7688 22.0004 6.88602 22.0004C7.00325 22.0004 7.11931 21.9774 7.22748 21.9327C7.33565 21.888 7.43379 21.8225 7.51619 21.74C7.5986 21.6575 7.66364 21.5596 7.70755 21.4521C7.75145 21.3446 7.77336 21.2295 7.77199 21.1135C7.77199 18.6434 8.45113 16.3388 9.62952 14.3562C10.0911 14.5547 10.587 14.6712 11.097 14.672C11.0974 14.672 11.0978 14.672 11.0983 14.672C13.1354 14.672 14.806 13.0193 14.8059 11.0038C14.8059 11.004 14.8059 11.0037 14.8059 11.0038C14.8057 10.5039 14.6908 10.0172 14.4943 9.56375C16.4871 8.41537 18.7985 7.75428 21.2748 7.75428C21.392 7.75564 21.5083 7.73397 21.617 7.69053C21.7257 7.64708 21.8246 7.58274 21.908 7.50121C21.9914 7.41968 22.0576 7.32259 22.1028 7.21557C22.1479 7.10855 22.1712 6.99373 22.1712 6.87775C22.1712 6.76177 22.1479 6.64694 22.1028 6.53992C22.0576 6.4329 21.9914 6.33581 21.908 6.25428C21.8246 6.17276 21.7257 6.10841 21.617 6.06497C21.5083 6.02153 21.392 5.99986 21.2748 6.00121L21.2752 6.00049ZM11.098 9.08844C11.6957 9.08864 12.2292 9.33964 12.5976 9.79612C12.6036 9.80336 12.6098 9.81052 12.616 9.81757C12.886 10.1555 13.0337 10.5729 13.0339 11.0038C13.0337 12.0715 12.178 12.9182 11.0989 12.9186C10.6572 12.9178 10.2296 12.7677 9.88604 12.4932C9.88562 12.4929 9.8852 12.4926 9.88478 12.4923C9.42853 12.129 9.16354 11.5825 9.16269 11.003C9.16294 9.9353 10.0188 9.08864 11.098 9.08844Z" fill="#212529"/>
<path fill-rule="evenodd" clip-rule="evenodd" d="M12.7709 16.2832C12.6201 16.439 12.5318 16.6542 12.5427 16.8903C12.5525 17.0948 12.635 17.2923 12.779 17.4421C13.4668 18.1277 14.823 19.4643 14.823 19.4643L16.0201 18.2814C16.0201 18.2814 14.7089 16.9853 13.9808 16.2643C13.8187 16.101 13.6018 16.0329 13.3732 16.0319C13.1348 16.0307 12.9217 16.1274 12.7709 16.2832ZM16.0201 18.2814L12.3169 21.9453C11.9151 22.3429 11.9151 22.9874 12.3169 23.385L17.3614 28.3758L20.4419 31.4235C20.8438 31.8211 21.4953 31.8212 21.8972 31.4235L24.4029 28.9445L28.235 25.1531L31.9383 21.4893C32.3401 21.0917 32.34 20.4471 31.9382 20.0495L30.0552 18.1866L23.8129 12.0107C23.411 11.6132 22.7596 11.6132 22.3577 12.0107L16.0204 18.2806L16.0201 18.2814ZM19.852 14.4905C19.852 14.4905 18.5407 13.1944 17.8127 12.4735C17.6506 12.3102 17.4337 12.2421 17.205 12.241C16.7283 12.2388 16.3526 12.6272 16.3745 13.0994C16.3842 13.3038 16.4668 13.5014 16.6108 13.6511C17.2986 14.3367 18.6548 15.6734 18.6548 15.6734L19.852 14.4905ZM26.8456 15.0118C26.8456 15.0118 28.1556 13.7146 28.8843 12.9943C29.0493 12.8339 29.1182 12.6193 29.1193 12.3931C29.1215 11.9214 28.7289 11.5497 28.2517 11.5714C28.045 11.581 27.8453 11.6627 27.694 11.8051C27.001 12.4856 25.65 13.8274 25.65 13.8274L26.8456 15.0118ZM30.0552 18.1866C30.0552 18.1866 31.365 16.8898 32.0937 16.1695C32.2587 16.0091 32.3276 15.7945 32.3287 15.5683C32.3309 15.0967 31.9383 14.7249 31.4611 14.7466C31.2544 14.7563 31.0547 14.838 30.9034 14.9804C30.2104 15.6609 28.8594 17.0026 28.8594 17.0026L30.0552 18.1866ZM28.235 25.1531C28.235 25.1531 29.546 26.4497 30.2742 27.1705C30.4363 27.3338 30.6532 27.4019 30.8818 27.403C31.3586 27.4052 31.7343 27.0168 31.7124 26.5446C31.7026 26.3402 31.6198 26.1427 31.4758 25.993C30.788 25.3074 29.4319 23.9708 29.4319 23.9708L28.235 25.1531ZM24.4029 28.9445C24.4029 28.9445 25.7138 30.2411 26.4421 30.9619C26.6042 31.1251 26.8211 31.1933 27.0497 31.1943C27.5265 31.1966 27.9022 30.8081 27.8802 30.3359C27.8705 30.1315 27.7877 29.9339 27.6438 29.7842C26.956 29.0986 25.5998 27.7619 25.5998 27.7619L24.4029 28.9445ZM17.3614 28.3758C17.3614 28.3758 16.0511 29.6736 15.3225 30.3941C15.1575 30.5545 15.0887 30.769 15.0876 30.9953C15.0853 31.4669 15.4779 31.8387 15.9552 31.8169C16.1618 31.8073 16.3613 31.7256 16.5127 31.5832C17.2056 30.9027 18.5567 29.5609 18.5567 29.5609L17.362 28.377L17.3614 28.3758ZM14.1527 25.2024C14.1527 25.2024 12.8427 26.4996 12.1142 27.2201C11.9492 27.3805 11.8803 27.5951 11.8792 27.8213C11.8769 28.293 12.2695 28.6647 12.7468 28.643C12.9534 28.6334 13.1529 28.5517 13.3043 28.4093C13.9973 27.7288 15.3483 26.387 15.3483 26.387L14.1527 25.2024ZM22.9701 16.1471C23.1398 15.9765 23.371 15.8811 23.6066 15.8845C23.7746 15.8869 23.9354 15.9395 24.0677 16.0355L25.7353 17.2455C26.0589 17.4752 26.1542 17.9113 25.9608 18.2766C25.7674 18.6419 25.3419 18.8291 24.9551 18.7189L25.574 21.1137C25.6865 21.5488 25.416 22.0104 24.9693 22.1453L20.4571 23.5084L21.2906 26.6967C21.4091 27.1336 21.1388 27.6011 20.6887 27.7373C20.2386 27.8736 19.7815 27.6263 19.6711 27.1869L18.6318 23.2101C18.518 22.7745 18.7884 22.3116 19.2359 22.1763L23.7499 20.8126L23.3333 19.2008C23.054 19.5072 22.6022 19.5817 22.2633 19.377C21.9244 19.1723 21.7969 18.748 21.9615 18.3723L22.7819 16.4269C22.8257 16.3232 22.8897 16.228 22.9701 16.1471Z" fill="#212529"/>
<path d="M23.0681 38.0038C25.9349 38.0038 28.6186 37.2123 30.9129 35.85C31.567 36.3763 32.389 36.6692 33.2443 36.6694C33.2442 36.6694 33.2445 36.6694 33.2443 36.6694C35.2815 36.6693 36.9521 35.0166 36.952 33.0013C36.952 33.0009 36.952 33.0005 36.952 33.0002C36.951 32.1587 36.6562 31.3518 36.133 30.7075C37.5303 28.4256 38.3431 25.7504 38.3431 22.8915C38.3445 22.7754 38.3227 22.6602 38.2789 22.5526C38.235 22.445 38.17 22.347 38.0876 22.2645C38.0051 22.1819 37.907 22.1163 37.7987 22.0716C37.6905 22.0268 37.5744 22.0038 37.4571 22.0038C37.3398 22.0038 37.2237 22.0268 37.1154 22.0716C37.0072 22.1163 36.909 22.1819 36.8266 22.2645C36.7442 22.347 36.6792 22.445 36.6353 22.5526C36.5915 22.6602 36.5697 22.7754 36.5711 22.8915C36.5711 25.3617 35.892 27.6663 34.7136 29.6488C34.2521 29.4504 33.7561 29.3339 33.2461 29.3331C33.2457 29.3331 33.2453 29.3331 33.2449 29.3331C31.2077 29.333 29.5372 30.9858 29.5373 33.0012C29.5375 33.5012 29.6524 33.9875 29.8489 34.4409C27.856 35.5893 25.5445 36.2504 23.0682 36.2504C22.9509 36.2489 22.8345 36.2705 22.7257 36.3139C22.6169 36.3573 22.518 36.4216 22.4345 36.5032C22.351 36.5847 22.2848 36.6818 22.2395 36.7889C22.1943 36.896 22.171 37.0109 22.171 37.1269C22.171 37.243 22.1943 37.3579 22.2395 37.4649C22.2848 37.572 22.351 37.6691 22.4345 37.7507C22.518 37.8322 22.6169 37.8965 22.7257 37.9399C22.8345 37.9833 22.9508 38.0053 23.0681 38.0038ZM33.2452 34.9163C32.6476 34.9163 32.1141 34.6651 31.7457 34.2087C31.7397 34.2014 31.7335 34.1943 31.7273 34.1872C31.4572 33.8492 31.3095 33.4319 31.3094 33.0009C31.3096 31.9332 32.1653 31.0866 33.2444 31.0862C33.6861 31.087 34.1137 31.237 34.4572 31.5116C34.4577 31.5119 34.4581 31.5122 34.4585 31.5125C34.9148 31.8758 35.1797 32.4223 35.1806 33.0018C35.1803 34.0695 34.3245 34.9162 33.2452 34.9163Z" fill="#212529"/>
<path d="M54.3051 15.3231H49.3969V28.7909H47.3938V15.3231H42.4962V13.6837H54.3046L54.3051 15.3231Z" fill="#212529"/>
<path d="M58.2267 18.9231C59.0867 17.8786 60.2053 17.3564 61.5827 17.3564C63.9808 17.3564 65.1904 18.6948 65.2113 21.3718V28.7905H63.2711V21.3614C63.2641 20.5521 63.0754 19.9538 62.7048 19.5664C62.3413 19.1791 61.7714 18.9854 60.9954 18.9854C60.3661 18.9854 59.8138 19.1514 59.3384 19.4834C58.8629 19.8155 58.4924 20.2513 58.2266 20.7908V28.7906H56.2864V12.8528H58.2266L58.2267 18.9231Z" fill="#212529"/>
<path d="M70.2252 28.791H68.285V17.5642H70.2252V28.791ZM68.1269 14.5862C68.1269 14.2749 68.2213 14.0121 68.41 13.7977C68.6058 13.5832 68.8925 13.476 69.27 13.476C69.6475 13.476 69.9342 13.5832 70.13 13.7977C70.3257 14.0121 70.4236 14.2749 70.4236 14.5862C70.4236 14.8975 70.3257 15.1569 70.13 15.3644C69.9342 15.5719 69.6475 15.6757 69.27 15.6757C68.8925 15.6757 68.6058 15.5719 68.41 15.3644C68.2213 15.1569 68.1269 14.8975 68.1269 14.5862Z" fill="#212529"/>
<path d="M75.1536 17.5642L75.2165 18.9752C76.0834 17.8961 77.2161 17.3566 78.6144 17.3566C81.0125 17.3566 82.2221 18.695 82.243 21.372V28.7907H80.3028V21.3616C80.2958 20.5523 80.1071 19.954 79.7365 19.5666C79.373 19.1793 78.8031 18.9856 78.0271 18.9856C77.3978 18.9856 76.8455 19.1516 76.3701 19.4836C75.8946 19.8157 75.524 20.2514 75.2583 20.791V28.7908H73.3181V17.564L75.1536 17.5642Z" fill="#212529"/>
<path d="M84.7282 23.0841C84.7282 21.334 85.1373 19.9437 85.9553 18.913C86.7733 17.8755 87.857 17.3567 89.2064 17.3567C90.5907 17.3567 91.6709 17.8409 92.4471 18.8092L92.5414 17.5642H94.3138V28.521C94.3138 29.9736 93.8768 31.1184 93.0028 31.9553C92.1359 32.7923 90.9683 33.2108 89.5 33.2108C88.682 33.2108 87.8815 33.0379 87.0984 32.692C86.3154 32.3461 85.7176 31.8723 85.3051 31.2705L86.3119 30.1189C87.1438 31.1357 88.1611 31.6441 89.3637 31.6441C90.3076 31.6441 91.0417 31.3813 91.5661 30.8556C92.0974 30.3299 92.3631 29.5897 92.3631 28.6351V27.6702C91.5871 28.5555 90.5278 28.9982 89.1854 28.9982C87.8571 28.9982 86.7804 28.4691 85.9553 27.4108C85.1373 26.3524 84.7282 24.9102 84.7282 23.0841ZM86.6789 23.302C86.6789 24.5678 86.9411 25.5639 87.4654 26.2902C87.9898 27.0096 88.7239 27.3693 89.6678 27.3693C90.8914 27.3693 91.7898 26.8194 92.3631 25.7195V20.5939C91.7688 19.5217 90.8773 18.9856 89.6887 18.9856C88.7449 18.9856 88.0072 19.3488 87.4759 20.0751C86.9446 20.8014 86.6789 21.8771 86.6789 23.302Z" fill="#212529"/>
<path d="M103.837 25.813C103.837 25.2942 103.638 24.893 103.239 24.6094C102.848 24.3189 102.159 24.0699 101.173 23.8624C100.195 23.6549 99.4151 23.4058 98.8348 23.1153C98.2614 22.8248 97.8349 22.4789 97.5553 22.0777C97.2826 21.6765 97.1463 21.1993 97.1463 20.6459C97.1463 19.7259 97.5378 18.9477 98.3208 18.3113C99.1109 17.6749 100.118 17.3567 101.341 17.3567C102.628 17.3567 103.669 17.6853 104.466 18.3424C105.27 18.9996 105.672 19.84 105.672 20.8638H103.722C103.722 20.3381 103.495 19.885 103.04 19.5045C102.593 19.1241 102.026 18.9339 101.341 18.9339C100.635 18.9339 100.083 19.086 99.6842 19.3904C99.2857 19.6947 99.0864 20.0925 99.0864 20.5836C99.0864 21.047 99.2717 21.3963 99.6422 21.6315C100.013 21.8667 100.68 22.0915 101.645 22.306C102.617 22.5204 103.404 22.7763 104.005 23.0738C104.606 23.3712 105.05 23.7309 105.337 24.1529C105.63 24.5679 105.777 25.0763 105.777 25.6781C105.777 26.6811 105.372 27.487 104.561 28.0957C103.75 28.6975 102.698 28.9984 101.404 28.9984C100.495 28.9984 99.6911 28.8393 98.9919 28.5211C98.2927 28.2029 97.7439 27.7602 97.3454 27.193C96.9539 26.6189 96.7581 25.9998 96.7581 25.3357H98.6983C98.7333 25.979 98.992 26.4909 99.4744 26.8713C99.9638 27.2448 100.607 27.4316 101.404 27.4316C102.138 27.4316 102.726 27.2863 103.166 26.9958C103.613 26.6984 103.837 26.3042 103.837 25.813Z" fill="#212529"/>
<path d="M108.61 28.791V13.6842H113.602C115.259 13.6842 116.504 14.0232 117.336 14.701C118.175 15.3789 118.594 16.3819 118.594 17.71C118.594 18.4155 118.391 19.0415 117.986 19.588C117.58 20.1276 117.028 20.5461 116.329 20.8435C117.154 21.0718 117.804 21.5076 118.279 22.1509C118.762 22.7873 119.003 23.5482 119.003 24.4335C119.003 25.7893 118.559 26.8546 117.671 27.6293C116.783 28.404 115.528 28.7914 113.906 28.7914L108.61 28.791ZM110.624 21.7251V27.162H113.948C114.885 27.162 115.623 26.9234 116.161 26.4461C116.706 25.9619 116.979 25.2978 116.979 24.4539C116.979 22.6347 115.979 21.7251 113.98 21.7251L110.624 21.7251ZM110.624 20.1272H113.665C114.546 20.1272 115.249 19.9093 115.773 19.4735C116.304 19.0378 116.57 18.4463 116.57 17.6993C116.57 16.8692 116.325 16.2674 115.836 15.8939C115.346 15.5135 114.602 15.3232 113.602 15.3232H110.624L110.624 20.1272Z" fill="#212529"/>
<path d="M121.173 23.0741C121.173 21.9742 121.39 20.9851 121.824 20.1066C122.264 19.2282 122.872 18.5503 123.648 18.073C124.431 17.5957 125.323 17.357 126.323 17.357C127.868 17.357 129.116 17.8862 130.067 18.9445C131.025 20.0028 131.503 21.4105 131.503 23.1674V23.3023C131.503 24.3952 131.29 25.3775 130.864 26.2491C130.444 27.1137 129.839 27.7881 129.049 28.2723C128.266 28.7565 127.365 28.9986 126.344 28.9986C124.806 28.9986 123.558 28.4695 122.6 27.4112C121.65 26.3525 121.175 24.9519 121.175 23.2092V23.0744L121.173 23.0741ZM123.124 23.3023C123.124 24.5475 123.414 25.547 123.995 26.301C124.582 27.055 125.365 27.432 126.344 27.432C127.329 27.432 128.113 27.0515 128.693 26.2906C129.273 25.5228 129.563 24.4506 129.563 23.074C129.563 21.8428 129.266 20.8467 128.672 20.0858C128.085 19.318 127.301 18.9341 126.323 18.9341C125.365 18.9341 124.592 19.3111 124.005 20.0651C123.418 20.8191 123.124 21.8982 123.124 23.3023Z" fill="#212529"/>
<path d="M140.944 28.791C140.832 28.5696 140.741 28.1753 140.671 27.6081C139.769 28.535 138.692 28.9985 137.441 28.9985C136.322 28.9985 135.403 28.6872 134.683 28.0646C133.969 27.4352 133.613 26.6397 133.613 25.6782C133.613 24.5092 134.06 23.6031 134.955 22.9597C135.857 22.3095 137.123 21.9844 138.752 21.9844H140.639V21.1025C140.639 20.4315 140.437 19.8989 140.031 19.5046C139.626 19.1034 139.028 18.9028 138.238 18.9028C137.546 18.9028 136.965 19.0757 136.497 19.4216C136.028 19.7674 135.794 20.1859 135.794 20.6771H133.844C133.844 20.1168 134.043 19.5772 134.441 19.0584C134.847 18.5327 135.392 18.1177 136.077 17.8133C136.77 17.509 137.528 17.3568 138.353 17.3568C139.661 17.3568 140.685 17.6819 141.426 18.3321C142.167 18.9754 142.552 19.8643 142.58 20.9987V26.1658C142.58 27.1964 142.713 28.0161 142.978 28.6248V28.7908L140.944 28.791ZM137.724 27.328C138.332 27.328 138.909 27.1724 139.454 26.8611C140 26.5498 140.395 26.1451 140.639 25.6471V23.3436H139.119C136.742 23.3436 135.553 24.0319 135.553 25.4084C135.553 26.0102 135.756 26.4806 136.161 26.8195C136.567 27.1584 137.088 27.328 137.724 27.328Z" fill="#212529"/>
<path d="M151.122 19.2871C150.828 19.2387 150.51 19.2145 150.167 19.2145C148.895 19.2145 148.031 19.7506 147.577 20.8228V28.7914H145.637V17.5646H147.525L147.556 18.8616C148.192 17.8586 149.094 17.3571 150.262 17.3571C150.639 17.3571 150.926 17.4056 151.122 17.5024L151.122 19.2871Z" fill="#212529"/>
<path d="M152.426 23.0841C152.426 21.3617 152.838 19.9783 153.663 18.9337C154.488 17.8824 155.568 17.3567 156.904 17.3567C158.232 17.3567 159.284 17.8063 160.061 18.7055V12.8535H162.001V28.7913H160.218L160.123 27.5877C159.347 28.5284 158.267 28.9988 156.883 28.9988C155.568 28.9988 154.495 28.4661 153.663 27.4009C152.838 26.3356 152.426 24.9453 152.426 23.2299L152.426 23.0841ZM154.366 23.302C154.366 24.5747 154.632 25.5708 155.163 26.2902C155.694 27.0096 156.428 27.3693 157.365 27.3693C158.596 27.3693 159.494 26.8228 160.06 25.7299V20.5731C159.48 19.5148 158.589 18.9856 157.386 18.9856C156.435 18.9856 155.694 19.3488 155.163 20.0751C154.632 20.8014 154.366 21.8771 154.366 23.302Z" fill="#212529"/>
</svg>
