<svg width="34" height="44" viewBox="0 0 34 44" fill="none" xmlns="http://www.w3.org/2000/svg">
<path d="M8 21L17 26L26 21V25.9341C26 26.3147 25.784 26.6622 25.4428 26.8307L21.4278 28.8134C18.6368 30.1917 15.3632 30.1917 12.5722 28.8134L8.55722 26.8307C8.216 26.6622 8 26.3147 8 25.9341V21Z" fill="#2A7DEC"/>
<path d="M8 20.5L16.1056 24.5528C16.6686 24.8343 17.3314 24.8343 17.8944 24.5528L26 20.5V23.9341C26 24.3147 25.784 24.6622 25.4428 24.8307L21.4278 26.8134C18.6368 28.1917 15.3632 28.1917 12.5722 26.8134L8.55722 24.8307C8.216 24.6622 8 24.3147 8 23.9341V20.5Z" fill="#D4E5FB"/>
<path d="M16.1057 9.44723L3.89456 15.5528C3.52603 15.7371 3.52603 16.263 3.89456 16.4472L16.1057 22.5528C16.6688 22.8343 17.3315 22.8343 17.8946 22.5528L30.1057 16.4472C30.4742 16.263 30.4742 15.7371 30.1057 15.5528L17.8946 9.44723C17.3315 9.1657 16.6688 9.1657 16.1057 9.44723Z" fill="#2A7DEC"/>
<path d="M22 31.5C22 30.6716 22.6716 30 23.5 30C24.3284 30 25 30.6716 25 31.5V34.5C25 35.3284 24.3284 36 23.5 36C22.6716 36 22 35.3284 22 34.5V31.5Z" fill="#2A7DEC"/>
<path d="M23 19H24V32H23V19Z" fill="#2A7DEC"/>
</svg>
