<svg width="42" height="42" viewBox="0 0 42 42" fill="none" xmlns="http://www.w3.org/2000/svg">
<path fill-rule="evenodd" clip-rule="evenodd" d="M27.3862 6.63159L29.7809 9.02225L26.5785 12.2193L29.7661 15.4124L32.9739 12.21L35.3687 14.6007L32.1567 17.8071L35.3442 21L32.181 24.1686L35.3687 27.3509L32.9739 29.7416L29.7903 26.5633L26.6028 29.7563L29.7811 32.9291L27.3864 35.3196L24.2122 32.1511L21.0003 35.3684L17.7883 32.1511L14.6143 35.3196L12.2195 32.9291L15.3977 29.7563L12.2101 26.5631L9.02657 29.7412L6.63184 27.3505L9.81942 24.1684L6.65643 21L9.84383 17.8071L6.63185 14.6007L9.02659 12.21L12.2345 15.4124L15.422 12.2195L12.2195 9.02252L14.6143 6.63186L17.8126 9.82473L21.0003 6.63159L24.1878 9.82458L27.3862 6.63159ZM21.0003 11.413L23.395 13.8037L13.8161 23.3663L11.4213 20.9756L21.0003 11.413ZM23.0082 16.6052L25.403 18.9958L17.4205 26.9646L15.0258 24.574L23.0082 16.6052ZM26.5879 24.9599L24.1932 22.5693L18.6055 28.1474L21.0002 30.5382L26.5879 24.9599Z" fill="#212529"/>
</svg>
