<svg width="54" height="54" viewBox="0 0 54 54" fill="none" xmlns="http://www.w3.org/2000/svg">
<path fill-rule="evenodd" clip-rule="evenodd" d="M14 1H26V13.5384L24.4166 15.1245L21.8299 12.5422L14 20.3587V1ZM14 23.2795V25.5589L15.1397 24.4173L14 23.2795ZM14 28.4401V30.68L15.1199 29.562L14 28.4401ZM40 30.6812V28.4393L38.879 29.5622L40 30.6812ZM40 25.5598V23.2786L38.8594 24.4173L40 25.5598ZM40 20.3596V8H28V13.5393L29.5823 15.1243L32.1691 12.5419L36.9385 17.3032L40 20.3596ZM54 3H42V32H54V3ZM0 13H12V32H0V13Z" fill="#D1EAFF"/>
<path fill-rule="evenodd" clip-rule="evenodd" d="M32.1693 15.3682L34.1079 17.3035L31.5154 19.8916L34.0959 22.4764L36.6927 19.884L38.6313 21.8193L36.0311 24.415L38.6115 26.9997L36.0508 29.5648L38.6313 32.1409L36.6927 34.0762L34.1155 31.5033L31.5351 34.0882L34.108 36.6566L32.1694 38.5918L29.5999 36.0268L26.9998 38.6313L24.3996 36.0268L21.8301 38.5918L19.8915 36.6566L22.4643 34.0882L19.8839 31.5032L17.3068 34.0759L15.3682 32.1406L17.9486 29.5646L15.3881 26.9997L17.9683 24.415L15.3682 21.8193L17.3068 19.884L19.9036 22.4764L22.484 19.8917L19.8915 17.3037L21.8301 15.3684L24.4193 17.9531L26.9998 15.3682L29.5801 17.953L32.1693 15.3682ZM26.9998 19.2388L28.9384 21.1741L21.184 28.9153L19.2454 26.98L26.9998 19.2388ZM28.6252 23.442L30.5638 25.3773L24.1018 31.8282L22.1632 29.893L28.6252 23.442ZM31.523 30.2054L29.5845 28.2701L25.0611 32.7858L26.9997 34.7211L31.523 30.2054Z" fill="#2696F3"/>
</svg>
