<svg width="60" height="60" viewBox="0 0 60 60" fill="none" xmlns="http://www.w3.org/2000/svg">
<path fill-rule="evenodd" clip-rule="evenodd" d="M60 11L60 49C60 52.3137 57.3137 55 54 55L6 55C2.6863 55 -2.06815e-06 52.3137 -1.9233e-06 49L-2.62268e-07 11C-1.17422e-07 7.68629 2.68629 5 6 5L54 5C57.3137 5 60 7.68629 60 11ZM56 11C56 9.89543 55.1046 9 54 9L6 9C4.89543 9 4 9.89543 4 11L4 49C4 50.1046 4.89543 51 6 51L54 51C55.1046 51 56 50.1046 56 49L56 11Z" fill="#0D2743"/>
<path d="M4 18H56V16H4V18Z" fill="#0D2743"/>
<path d="M10 31H17V46H10V31Z" fill="#305680"/>
<path d="M21 25H28V46H21V25Z" fill="#305680"/>
<path d="M32 36H39V46H32V36Z" fill="#305680"/>
<path d="M43 27H50V46H43V27Z" fill="#305680"/>
<path d="M9 12.5C9 13.3284 8.32843 14 7.5 14C6.67157 14 6 13.3284 6 12.5C6 11.6716 6.67157 11 7.5 11C8.32843 11 9 11.6716 9 12.5Z" fill="#305680"/>
<path d="M14 12.5C14 13.3284 13.3284 14 12.5 14C11.6716 14 11 13.3284 11 12.5C11 11.6716 11.6716 11 12.5 11C13.3284 11 14 11.6716 14 12.5Z" fill="#305680"/>
</svg>
