<svg width="161" height="311" fill="none" xmlns="http://www.w3.org/2000/svg"><path fill="#fff" d="M0 0h161v311H0z"/><rect width="161" height="116" rx="6" fill="#fff"/><g opacity=".82" fill="#000"><path d="M52.082 77.969h1.805c.86 0 1.496-.215 1.91-.645.414-.43.621-1 .621-1.71 0-.688-.207-1.223-.621-1.606-.406-.383-.969-.574-1.688-.574-.648 0-1.191.18-1.629.539-.437.351-.656.812-.656 1.383h-3.386c0-.891.238-1.688.714-2.391.485-.711 1.157-1.266 2.016-1.664.867-.399 1.82-.598 2.86-.598 1.804 0 3.218.434 4.242 1.3 1.023.86 1.535 2.048 1.535 3.563 0 .782-.239 1.5-.715 2.157a4.644 4.644 0 0 1-1.875 1.511c.96.344 1.676.86 2.144 1.547.477.688.715 1.5.715 2.438 0 1.515-.554 2.73-1.664 3.644-1.101.914-2.562 1.371-4.383 1.371-1.703 0-3.097-.449-4.183-1.347-1.078-.899-1.617-2.086-1.617-3.563h3.386c0 .64.239 1.164.715 1.57.484.407 1.078.61 1.781.61.805 0 1.434-.211 1.887-.633.461-.43.691-.996.691-1.7 0-1.702-.937-2.554-2.812-2.554h-1.793V77.97ZM74.02 72.836 67.421 88h-3.574l6.609-14.32h-8.484v-2.743h12.046v1.899ZM76.516 86.336c0-.54.18-.977.539-1.313.367-.335.824-.504 1.37-.504.556 0 1.013.168 1.372.504.367.336.55.774.55 1.313 0 .531-.179.965-.538 1.3-.36.329-.82.493-1.383.493-.555 0-1.012-.164-1.371-.492-.36-.336-.54-.77-.54-1.301ZM94.305 75.473c0 .828-.207 1.562-.621 2.203-.415.64-.985 1.152-1.711 1.535.828.398 1.484.95 1.968 1.652.485.696.727 1.516.727 2.461 0 1.516-.516 2.715-1.547 3.598-1.031.875-2.433 1.312-4.207 1.312-1.773 0-3.18-.441-4.219-1.324-1.039-.883-1.558-2.078-1.558-3.586 0-.945.242-1.77.726-2.472.485-.704 1.137-1.25 1.957-1.641-.726-.383-1.297-.895-1.71-1.535-.407-.64-.61-1.375-.61-2.203 0-1.454.484-2.61 1.453-3.47.969-.866 2.285-1.3 3.95-1.3 1.656 0 2.968.43 3.937 1.29.976.85 1.465 2.01 1.465 3.48Zm-3.036 7.605c0-.742-.214-1.336-.644-1.781-.43-.445-1.008-.668-1.734-.668-.72 0-1.293.223-1.723.668-.43.437-.645 1.031-.645 1.781 0 .727.211 1.313.633 1.758.422.445 1.008.668 1.758.668.734 0 1.309-.215 1.723-.645.422-.43.632-1.023.632-1.78Zm-.351-7.441c0-.664-.176-1.196-.527-1.594-.352-.406-.848-.61-1.489-.61-.633 0-1.125.196-1.476.586-.352.391-.528.93-.528 1.618 0 .68.176 1.226.528 1.64.351.414.847.621 1.488.621.64 0 1.133-.207 1.477-.62.351-.415.527-.962.527-1.641ZM96.918 74.219c0-1.047.34-1.895 1.02-2.543.68-.657 1.57-.985 2.671-.985 1.118 0 2.016.325 2.696.973.679.64 1.019 1.512 1.019 2.613v.844c0 1.055-.34 1.902-1.019 2.543-.68.64-1.571.961-2.672.961-1.11 0-2.008-.32-2.695-.96-.68-.65-1.02-1.52-1.02-2.614v-.832Zm2.25.902c0 .469.133.848.398 1.137.274.281.629.422 1.067.422.437 0 .785-.145 1.043-.434.258-.289.386-.676.386-1.16v-.867c0-.469-.128-.848-.386-1.137-.258-.289-.614-.434-1.067-.434-.429 0-.777.145-1.043.434-.265.281-.398.676-.398 1.184v.855Zm5.906 8.695c0-1.054.344-1.902 1.031-2.543.688-.648 1.579-.972 2.672-.972 1.11 0 2.004.32 2.684.96.687.633 1.031 1.508 1.031 2.626v.844c0 1.046-.336 1.894-1.008 2.542-.672.641-1.566.961-2.683.961-1.125 0-2.028-.324-2.707-.972-.68-.649-1.02-1.508-1.02-2.578v-.868Zm2.25.915c0 .43.141.796.422 1.101.281.305.633.457 1.055.457.953 0 1.429-.527 1.429-1.582v-.89c0-.47-.132-.844-.398-1.126-.266-.289-.617-.433-1.055-.433-.437 0-.789.144-1.054.433-.266.282-.399.668-.399 1.16v.88Zm-6.023 1.992-1.653-.891 8.332-13.336 1.653.89-8.332 13.337Z"/></g><g opacity=".82" fill="#000"><path d="M47.176 54h-2.262v-7.887h-8.602V54h-2.25V36.937h2.25v7.336h8.602v-7.336h2.262V54ZM58.66 52.746c-.844.992-2.082 1.488-3.715 1.488-1.351 0-2.383-.39-3.093-1.172-.704-.789-1.059-1.953-1.067-3.492v-8.25h2.168v8.192c0 1.922.781 2.883 2.344 2.883 1.656 0 2.758-.618 3.305-1.852V41.32h2.168V54h-2.063l-.047-1.254ZM66.113 41.32l.059 1.407c.93-1.094 2.184-1.641 3.762-1.641 1.773 0 2.98.68 3.62 2.039a4.82 4.82 0 0 1 1.641-1.477c.68-.375 1.48-.562 2.403-.562 2.78 0 4.195 1.473 4.242 4.418V54h-2.168v-8.367c0-.906-.207-1.582-.621-2.028-.414-.453-1.11-.68-2.086-.68-.805 0-1.473.243-2.004.727-.531.477-.84 1.121-.926 1.934V54h-2.18v-8.309c0-1.843-.902-2.765-2.707-2.765-1.421 0-2.394.605-2.917 1.816V54h-2.168V41.32h2.05ZM87.477 54h-2.168V41.32h2.168V54Zm-2.344-16.043c0-.352.105-.648.316-.89.219-.243.54-.364.961-.364.422 0 .742.121.961.363.219.243.328.54.328.891 0 .352-.11.645-.328.879-.219.234-.539.352-.96.352-.423 0-.743-.118-.962-.352-.21-.234-.316-.527-.316-.879ZM90.43 47.555c0-1.946.46-3.508 1.382-4.688.922-1.187 2.13-1.781 3.622-1.781 1.484 0 2.66.508 3.527 1.523V36h2.168v18h-1.992l-.106-1.36c-.867 1.063-2.074 1.594-3.62 1.594-1.47 0-2.669-.601-3.599-1.804-.921-1.203-1.382-2.774-1.382-4.711v-.164Zm2.168.246c0 1.437.296 2.562.89 3.375.594.812 1.414 1.218 2.461 1.218 1.375 0 2.38-.617 3.012-1.851v-5.824c-.648-1.196-1.645-1.793-2.988-1.793-1.063 0-1.891.41-2.485 1.23-.594.82-.89 2.035-.89 3.645ZM106.859 54h-2.168V41.32h2.168V54Zm-2.343-16.043c0-.352.105-.648.316-.89.219-.243.539-.364.961-.364.422 0 .742.121.961.363.219.243.328.54.328.891 0 .352-.109.645-.328.879-.219.234-.539.352-.961.352-.422 0-.742-.118-.961-.352-.211-.234-.316-.527-.316-.879ZM113.281 38.25v3.07h2.367v1.676h-2.367v7.863c0 .508.106.891.317 1.149.211.25.57.375 1.078.375.25 0 .594-.047 1.031-.14V54a6.285 6.285 0 0 1-1.664.234c-.969 0-1.699-.293-2.191-.879-.493-.585-.739-1.417-.739-2.496v-7.863h-2.308V41.32h2.308v-3.07h2.168ZM122.34 50.824l2.953-9.504h2.32l-5.097 14.637c-.789 2.11-2.043 3.164-3.762 3.164l-.41-.035-.809-.152v-1.758l.586.047c.734 0 1.305-.149 1.711-.446.414-.297.754-.84 1.02-1.629l.48-1.289-4.523-12.539h2.367l3.164 9.504Z"/></g><path d="M46 113h69v2H46v-2ZM46 117h69v2H46v-2ZM46 121h69v2H46v-2ZM46 125h69v2H46v-2ZM46 129h69v2H46v-2ZM46 133h69v2H46v-2ZM46 137h69v2H46v-2ZM46 141h69v2H46v-2ZM46 145h69v2H46v-2ZM46 149h69v2H46v-2ZM46 153h69v2H46v-2ZM46 157h69v2H46v-2ZM46 161h69v2H46v-2ZM46 165h69v2H46v-2ZM46 169h69v2H46v-2ZM46 173h69v2H46v-2ZM46 177h69v2H46v-2ZM46 181h69v2H46v-2ZM46 185h69v2H46v-2ZM46 189h69v2H46v-2ZM46 193h69v2H46v-2ZM46 197h69v2H46v-2ZM46 201h69v2H46v-2ZM46 205h69v2H46v-2ZM46 209h69v2H46v-2Z" fill="#E0E1E2"/><path d="M46 213h69v2H46v-2ZM46 217h69v2H46v-2ZM46 221h69v2H46v-2ZM46 225h69v2H46v-2ZM46 229h69v2H46v-2ZM46 233h69v2H46v-2ZM46 237h69v2H46v-2ZM46 241h69v2H46v-2ZM46 245h69v2H46v-2ZM46 249h69v2H46v-2ZM46 253h69v2H46v-2ZM46 257h69v2H46v-2ZM46 261h69v2H46v-2ZM46 265h69v2H46v-2ZM46 269h69v2H46v-2ZM46 273h69v2H46v-2ZM46 277h69v2H46v-2Z" fill="#2A7DEC"/></svg>