<svg width="626" height="209" fill="none" xmlns="http://www.w3.org/2000/svg"><path fill="#fff" d="M0 0h626v209H0z"/><g clip-path="url(#a)"><rect width="626" height="309.865" rx="6" fill="#fff"/><g opacity=".82" fill="#000"><path d="M39.008 46.395c-1.93-.555-3.336-1.235-4.219-2.04-.875-.812-1.312-1.812-1.312-3 0-1.343.535-2.453 1.605-3.328 1.078-.883 2.477-1.324 4.195-1.324 1.172 0 2.215.227 3.13.68.921.453 1.632 1.078 2.132 1.875.508.797.762 1.668.762 2.613h-2.262c0-1.031-.328-1.84-.984-2.426-.657-.593-1.582-.89-2.778-.89-1.109 0-1.976.246-2.601.738-.617.484-.926 1.16-.926 2.027 0 .696.293 1.285.879 1.77.594.476 1.598.914 3.012 1.312 1.422.399 2.53.84 3.328 1.325.804.476 1.398 1.035 1.781 1.675.39.641.586 1.395.586 2.262 0 1.383-.54 2.492-1.617 3.328-1.078.828-2.52 1.242-4.325 1.242a8.08 8.08 0 0 1-3.28-.668c-1.016-.453-1.801-1.07-2.356-1.851-.547-.781-.82-1.668-.82-2.66h2.261c0 1.03.38 1.847 1.137 2.449.766.594 1.785.89 3.059.89 1.187 0 2.097-.242 2.73-.726s.95-1.145.95-1.98c0-.836-.294-1.481-.88-1.934-.586-.461-1.648-.914-3.187-1.36ZM50.246 54h-2.168V41.32h2.168V54Zm-2.344-16.043c0-.352.106-.648.317-.89.218-.243.539-.364.96-.364.423 0 .743.121.962.363.218.243.328.54.328.891 0 .352-.11.645-.328.879-.22.234-.54.352-.961.352-.422 0-.742-.118-.961-.352-.211-.234-.317-.527-.317-.879ZM56.082 54h-2.168V36h2.168v18ZM58.988 47.543c0-1.242.242-2.36.727-3.352.492-.992 1.172-1.757 2.039-2.297.875-.538 1.871-.808 2.988-.808 1.727 0 3.121.598 4.184 1.793 1.07 1.195 1.605 2.785 1.605 4.77v.152c0 1.234-.238 2.343-.715 3.328-.468.977-1.144 1.738-2.027 2.285-.875.547-1.883.82-3.023.82-1.72 0-3.114-.597-4.184-1.793-1.063-1.195-1.594-2.777-1.594-4.746v-.152Zm2.18.258c0 1.406.324 2.535.973 3.386.656.852 1.53 1.278 2.625 1.278 1.101 0 1.976-.43 2.625-1.29.648-.866.972-2.077.972-3.632 0-1.39-.332-2.516-.996-3.375-.656-.867-1.531-1.3-2.625-1.3-1.07 0-1.933.425-2.59 1.276-.656.852-.984 2.07-.984 3.657ZM80.633 50.637c0-.586-.223-1.04-.668-1.36-.438-.328-1.207-.609-2.309-.843-1.094-.235-1.965-.516-2.613-.844-.64-.328-1.117-.719-1.43-1.172-.304-.453-.457-.992-.457-1.617 0-1.04.438-1.918 1.313-2.637.883-.719 2.008-1.078 3.375-1.078 1.437 0 2.601.371 3.492 1.113.898.742 1.348 1.692 1.348 2.848h-2.18c0-.594-.254-1.106-.762-1.535-.5-.43-1.133-.645-1.898-.645-.79 0-1.406.172-1.852.516-.445.344-.668.793-.668 1.347 0 .524.207.918.621 1.184.414.266 1.16.52 2.239.762 1.085.242 1.964.531 2.636.867.672.336 1.168.742 1.489 1.219.328.468.492 1.043.492 1.722 0 1.133-.453 2.043-1.36 2.73-.906.68-2.082 1.02-3.527 1.02-1.016 0-1.914-.18-2.695-.539-.781-.36-1.395-.86-1.84-1.5a3.679 3.679 0 0 1-.656-2.097h2.168c.039.726.328 1.304.867 1.734.547.422 1.265.633 2.156.633.82 0 1.477-.164 1.969-.492.5-.336.75-.782.75-1.336ZM102.805 51.012l2.437-9.692h2.168L103.719 54h-1.758l-3.082-9.61-3 9.61H94.12l-3.68-12.68h2.157l2.496 9.492 2.953-9.492h1.746l3.012 9.692ZM114.887 54.234c-1.719 0-3.117-.562-4.196-1.687-1.078-1.133-1.617-2.645-1.617-4.535v-.399c0-1.258.238-2.379.715-3.363.484-.992 1.156-1.766 2.016-2.32a5.068 5.068 0 0 1 2.812-.844c1.649 0 2.93.543 3.844 1.629.914 1.086 1.371 2.64 1.371 4.664v.902h-8.59c.031 1.25.395 2.262 1.09 3.035.703.766 1.594 1.149 2.672 1.149.766 0 1.414-.156 1.945-.469a4.9 4.9 0 0 0 1.395-1.242l1.324 1.031c-1.063 1.633-2.656 2.45-4.781 2.45Zm-.27-11.367c-.875 0-1.609.32-2.203.961-.594.633-.961 1.524-1.102 2.672h6.352v-.164c-.062-1.102-.359-1.953-.891-2.555-.531-.61-1.25-.914-2.156-.914ZM124.707 54h-2.168V41.32h2.168V54Zm-2.344-16.043c0-.352.106-.648.317-.89.218-.243.539-.364.961-.364.421 0 .742.121.961.363.218.243.328.54.328.891 0 .352-.11.645-.328.879-.219.234-.54.352-.961.352-.422 0-.743-.118-.961-.352-.211-.234-.317-.527-.317-.879ZM127.672 47.555c0-1.977.457-3.547 1.371-4.711.914-1.172 2.125-1.758 3.633-1.758 1.547 0 2.754.547 3.621 1.64l.105-1.406h1.981v12.375c0 1.64-.488 2.934-1.465 3.88-.969.944-2.273 1.417-3.914 1.417a6.522 6.522 0 0 1-2.684-.586c-.875-.39-1.543-.925-2.004-1.605l1.125-1.301c.93 1.148 2.067 1.723 3.411 1.723 1.054 0 1.875-.297 2.46-.891.594-.594.891-1.43.891-2.508v-1.09c-.867 1-2.051 1.5-3.551 1.5-1.484 0-2.687-.597-3.609-1.793-.914-1.195-1.371-2.824-1.371-4.886Zm2.18.246c0 1.43.293 2.554.878 3.375.586.812 1.407 1.218 2.461 1.218 1.368 0 2.371-.62 3.012-1.863v-5.789c-.664-1.21-1.66-1.816-2.988-1.816-1.055 0-1.879.41-2.473 1.23-.594.82-.89 2.035-.89 3.645ZM143.832 42.855c.961-1.18 2.211-1.77 3.75-1.77 2.68 0 4.031 1.513 4.055 4.536V54h-2.168v-8.39c-.008-.915-.219-1.59-.633-2.028-.406-.438-1.043-.656-1.91-.656-.703 0-1.321.187-1.852.562a3.823 3.823 0 0 0-1.242 1.477V54h-2.168V36h2.168v6.855ZM157.824 38.25v3.07h2.367v1.676h-2.367v7.863c0 .508.106.891.317 1.149.211.25.57.375 1.078.375.25 0 .593-.047 1.031-.14V54a6.285 6.285 0 0 1-1.664.234c-.969 0-1.699-.293-2.191-.879-.493-.585-.739-1.417-.739-2.496v-7.863h-2.308V41.32h2.308v-3.07h2.168ZM170.117 50.637c0-.586-.222-1.04-.668-1.36-.437-.328-1.207-.609-2.308-.843-1.094-.235-1.965-.516-2.614-.844-.64-.328-1.117-.719-1.429-1.172-.305-.453-.457-.992-.457-1.617 0-1.04.437-1.918 1.312-2.637.883-.719 2.008-1.078 3.375-1.078 1.438 0 2.602.371 3.492 1.113.899.742 1.348 1.692 1.348 2.848h-2.18c0-.594-.254-1.106-.761-1.535-.5-.43-1.133-.645-1.899-.645-.789 0-1.406.172-1.851.516-.446.344-.668.793-.668 1.347 0 .524.207.918.621 1.184.414.266 1.16.52 2.238.762 1.086.242 1.965.531 2.637.867.672.336 1.168.742 1.488 1.219.328.468.492 1.043.492 1.722 0 1.133-.453 2.043-1.359 2.73-.906.68-2.082 1.02-3.528 1.02-1.015 0-1.914-.18-2.695-.539-.781-.36-1.394-.86-1.84-1.5a3.682 3.682 0 0 1-.656-2.097h2.168c.039.726.328 1.304.867 1.734.547.422 1.266.633 2.156.633.821 0 1.477-.164 1.969-.492.5-.336.75-.782.75-1.336Z"/></g><path d="M577 46h-2v5h5v-2h-3v-3Zm-2-4h2v-3h3v-2h-5v5Zm12 7h-3v2h5v-5h-2v3Zm-3-12v2h3v3h2v-5h-5Z" fill="#000" opacity=".54"/><path fill="#fff" d="M57 92h537v67H57z"/><path d="M25.797 91.606h.747c.468-.007.837-.13 1.106-.37.269-.24.403-.564.403-.972 0-.917-.457-1.375-1.37-1.375-.43 0-.773.123-1.031.37-.254.244-.382.568-.382.972h-.993c0-.619.225-1.133.677-1.541.454-.412 1.03-.618 1.73-.618.737 0 1.315.195 1.734.586.419.39.628.933.628 1.627 0 .34-.11.67-.333.988a1.978 1.978 0 0 1-.897.715c.43.136.761.361.994.677.236.315.355.7.355 1.154 0 .702-.23 1.259-.688 1.67-.458.412-1.055.618-1.788.618-.735 0-1.333-.198-1.794-.596-.459-.397-.688-.922-.688-1.573h1c0 .411.133.74.402.988.268.247.628.37 1.08.37.48 0 .846-.125 1.1-.376.255-.25.382-.61.382-1.08 0-.454-.14-.803-.419-1.047-.28-.243-.682-.368-1.208-.376h-.747v-.81ZM35.543 92.665c0 1.163-.2 2.028-.597 2.594-.397.566-1.018.848-1.863.848-.835 0-1.452-.275-1.853-.827-.401-.555-.61-1.382-.623-2.481v-1.327c0-1.15.198-2.003.596-2.562.397-.558 1.02-.838 1.869-.838.841 0 1.46.27 1.858.811.398.537.602 1.368.613 2.493v1.289Zm-.994-1.36c0-.84-.118-1.453-.355-1.836-.236-.387-.61-.58-1.122-.58-.509 0-.88.191-1.112.574-.233.384-.353.973-.36 1.768v1.59c0 .844.122 1.47.365 1.874.247.4.62.601 1.118.601.49 0 .854-.19 1.09-.569.24-.38.365-.978.376-1.794v-1.627ZM41.83 92.665c0 1.163-.2 2.028-.597 2.594-.397.566-1.018.848-1.864.848-.834 0-1.452-.275-1.853-.827-.4-.555-.608-1.382-.623-2.481v-1.327c0-1.15.2-2.003.596-2.562.398-.558 1.021-.838 1.87-.838.841 0 1.46.27 1.858.811.398.537.602 1.368.612 2.493v1.289Zm-.994-1.36c0-.84-.118-1.453-.355-1.836-.236-.387-.61-.58-1.122-.58-.509 0-.88.191-1.112.574-.233.384-.353.973-.36 1.768v1.59c0 .844.122 1.47.365 1.874.247.4.62.601 1.117.601.491 0 .854-.19 1.09-.569.24-.38.366-.978.377-1.794v-1.627ZM47.501 88.781v1.407h1.085v.769h-1.085v3.604c0 .232.048.408.145.526.097.114.261.172.494.172.115 0 .272-.022.473-.065V96a2.882 2.882 0 0 1-.763.107c-.444 0-.779-.134-1.004-.402-.226-.269-.339-.65-.339-1.144v-3.605H45.45v-.767h1.058V88.78h.994ZM29.476 118.333h-5.124v-.714l2.707-3.008c.4-.455.676-.824.827-1.107.154-.286.23-.581.23-.886 0-.408-.123-.743-.37-1.004-.247-.262-.576-.392-.988-.392-.494 0-.88.141-1.155.424-.272.279-.408.67-.408 1.171H24.2c0-.72.231-1.302.693-1.746.466-.444 1.087-.666 1.864-.666.727 0 1.301.192 1.724.575.422.38.634.886.634 1.52 0 .77-.49 1.687-1.472 2.75l-2.095 2.272h3.927v.811ZM35.542 114.998c0 1.163-.199 2.028-.596 2.594-.398.566-1.019.848-1.864.848-.834 0-1.452-.275-1.853-.827-.4-.555-.609-1.382-.623-2.481v-1.327c0-1.149.199-2.003.596-2.562.398-.558 1.02-.838 1.87-.838.84 0 1.46.271 1.858.811.397.537.601 1.368.612 2.492v1.29Zm-.994-1.359c0-.842-.118-1.454-.354-1.837-.236-.387-.61-.58-1.123-.58-.508 0-.879.191-1.111.574-.233.384-.353.973-.36 1.767v1.59c0 .845.121 1.47.365 1.875.247.401.62.601 1.117.601.49 0 .854-.189 1.09-.569.24-.379.366-.977.377-1.794v-1.627ZM41.829 114.998c0 1.163-.199 2.028-.596 2.594-.398.566-1.019.848-1.864.848-.834 0-1.452-.275-1.853-.827-.401-.555-.609-1.382-.623-2.481v-1.327c0-1.149.199-2.003.596-2.562.398-.558 1.02-.838 1.87-.838.84 0 1.46.271 1.858.811.397.537.601 1.368.612 2.492v1.29Zm-.994-1.359c0-.842-.118-1.454-.354-1.837-.237-.387-.61-.58-1.123-.58-.508 0-.879.191-1.112.574-.232.384-.352.973-.36 1.767v1.59c0 .845.122 1.47.366 1.875.247.401.62.601 1.117.601.49 0 .854-.189 1.09-.569.24-.379.365-.977.376-1.794v-1.627ZM47.5 111.114v1.407h1.086v.769H47.5v3.604c0 .232.048.408.145.526.096.115.261.172.494.172.114 0 .272-.022.472-.065v.806a2.864 2.864 0 0 1-.762.107c-.444 0-.78-.134-1.005-.402-.225-.269-.338-.65-.338-1.144v-3.604h-1.058v-.769h1.058v-1.407h.994ZM27.618 140.667h-1v-6.623l-2.003.736v-.902l2.847-1.069h.156v7.858ZM35.543 137.332c0 1.163-.2 2.028-.597 2.594-.397.566-1.018.848-1.863.848-.835 0-1.452-.275-1.853-.827-.401-.555-.61-1.382-.623-2.481v-1.327c0-1.149.198-2.003.596-2.562.397-.558 1.02-.838 1.869-.838.841 0 1.46.271 1.858.811.398.537.602 1.368.613 2.492v1.29Zm-.994-1.359c0-.842-.118-1.454-.355-1.837-.236-.387-.61-.58-1.122-.58-.509 0-.88.191-1.112.574-.233.384-.353.973-.36 1.767v1.59c0 .845.122 1.47.365 1.875.247.401.62.601 1.118.601.49 0 .854-.189 1.09-.569.24-.38.365-.977.376-1.794v-1.627ZM41.83 137.332c0 1.163-.2 2.028-.597 2.594-.397.566-1.018.848-1.864.848-.834 0-1.452-.275-1.853-.827-.4-.555-.608-1.382-.623-2.481v-1.327c0-1.149.2-2.003.596-2.562.398-.558 1.021-.838 1.87-.838.841 0 1.46.271 1.858.811.398.537.602 1.368.612 2.492v1.29Zm-.994-1.359c0-.842-.118-1.454-.355-1.837-.236-.387-.61-.58-1.122-.58-.509 0-.88.191-1.112.574-.233.384-.353.973-.36 1.767v1.59c0 .845.122 1.47.365 1.875.247.401.62.601 1.117.601.491 0 .854-.189 1.09-.569.24-.38.366-.977.377-1.794v-1.627ZM47.501 133.448v1.407h1.085v.769h-1.085v3.604c0 .232.048.408.145.526.097.114.261.172.494.172.115 0 .272-.022.473-.065v.806a2.864 2.864 0 0 1-.763.107c-.444 0-.779-.134-1.004-.402-.226-.269-.339-.65-.339-1.144v-3.604H45.45v-.769h1.058v-1.407h.994ZM41.83 159.665c0 1.163-.198 2.028-.596 2.594-.397.566-1.018.848-1.863.848-.835 0-1.452-.275-1.853-.827-.401-.555-.61-1.382-.623-2.481v-1.327c0-1.149.198-2.003.596-2.562.397-.558 1.02-.838 1.869-.838.841 0 1.46.271 1.858.811.398.537.602 1.368.613 2.492v1.29Zm-.993-1.359c0-.842-.118-1.454-.355-1.837-.236-.387-.61-.58-1.122-.58-.509 0-.88.191-1.112.574-.233.384-.353.973-.36 1.767v1.59c0 .845.122 1.47.365 1.875.248.401.62.601 1.118.601.49 0 .854-.189 1.09-.569.24-.38.365-.977.376-1.794v-1.627ZM47.502 155.781v1.407h1.085v.769h-1.085v3.604c0 .232.049.408.145.526.097.114.262.172.494.172.115 0 .273-.022.473-.065V163a2.863 2.863 0 0 1-.763.107c-.444 0-.779-.134-1.004-.402-.226-.269-.338-.65-.338-1.144v-3.604H45.45v-.769h1.059v-1.407h.993Z" fill="#000" fill-opacity=".6"/><path d="M58 113.667h535v1H58v-1ZM58 135.333h535v1H58v-1ZM58 157h535v1H58v-1Z" fill="#D9D9D9"/><path d="M94.75 158V93h1v65h-1ZM171.5 158V93h1v65h-1ZM248.25 158V93h1v65h-1ZM325 158V93h1v65h-1ZM401.75 158V93h1v65h-1ZM478.5 158V93h1v65h-1ZM555.25 158V93h1v65h-1Z" fill="#D9D9D9"/><path d="M78.938 174v-7.82h2.207c.68 0 1.282.15 1.805.451.522.301.925.729 1.208 1.284.287.555.432 1.192.435 1.912v.499c0 .738-.143 1.384-.43 1.939a2.98 2.98 0 0 1-1.219 1.278c-.526.298-1.14.45-1.842.457h-2.165Zm1.03-6.972v6.129h1.086c.795 0 1.412-.247 1.853-.741.444-.495.666-1.198.666-2.111v-.457c0-.888-.21-1.577-.629-2.068-.415-.494-1.006-.745-1.772-.752h-1.203ZM88.522 174.107c-.788 0-1.429-.257-1.923-.773-.494-.519-.741-1.212-.741-2.079v-.182c0-.577.11-1.091.328-1.542.222-.455.53-.809.923-1.063a2.323 2.323 0 0 1 1.29-.387c.755 0 1.342.249 1.761.747.42.497.629 1.21.629 2.137v.414h-3.937c.014.573.18 1.037.5 1.391.322.351.73.526 1.224.526.35 0 .648-.071.891-.214.244-.144.457-.333.64-.57l.606.473c-.486.748-1.217 1.122-2.19 1.122Zm-.123-5.21a1.32 1.32 0 0 0-1.01.441c-.272.29-.44.698-.505 1.224h2.911v-.075c-.029-.505-.165-.895-.408-1.171-.244-.279-.573-.419-.988-.419ZM94.385 173.296c.354 0 .664-.107.929-.322.265-.215.412-.483.44-.806h.94c-.018.333-.132.65-.344.951a2.258 2.258 0 0 1-.848.72c-.351.179-.724.268-1.117.268-.792 0-1.422-.263-1.891-.789-.466-.53-.698-1.253-.698-2.17v-.167c0-.565.103-1.068.311-1.509.208-.44.505-.782.892-1.026.39-.243.85-.365 1.38-.365.652 0 1.193.195 1.622.586.433.39.664.896.693 1.52h-.94a1.355 1.355 0 0 0-.43-.924 1.312 1.312 0 0 0-.945-.366c-.505 0-.897.183-1.176.548-.276.362-.414.887-.414 1.574v.188c0 .67.138 1.185.414 1.547.276.362.67.542 1.182.542ZM105.782 174h-5.124v-.714l2.707-3.008c.401-.455.677-.824.827-1.107.154-.286.231-.581.231-.886 0-.408-.124-.743-.371-1.004-.247-.262-.576-.392-.988-.392-.494 0-.879.141-1.155.424-.272.279-.408.67-.408 1.171h-.994c0-.72.231-1.302.693-1.746.466-.444 1.087-.666 1.864-.666.727 0 1.302.192 1.724.575.423.38.634.886.634 1.52 0 .77-.491 1.687-1.472 2.75l-2.094 2.272h3.926V174ZM112.069 174h-5.124v-.714l2.707-3.008c.401-.455.676-.824.827-1.107.154-.286.231-.581.231-.886 0-.408-.124-.743-.371-1.004-.247-.262-.576-.392-.988-.392-.494 0-.879.141-1.155.424-.272.279-.408.67-.408 1.171h-.994c0-.72.231-1.302.693-1.746.466-.444 1.087-.666 1.864-.666.727 0 1.301.192 1.724.575.422.38.634.886.634 1.52 0 .77-.491 1.687-1.472 2.75l-2.095 2.272h3.927V174ZM155.688 174v-7.82h2.207c.68 0 1.282.15 1.805.451.522.301.925.729 1.208 1.284.287.555.432 1.192.435 1.912v.499c0 .738-.143 1.384-.429 1.939-.283.555-.69.981-1.22 1.278-.526.298-1.14.45-1.842.457h-2.164Zm1.031-6.972v6.129h1.085c.795 0 1.412-.247 1.853-.741.444-.495.666-1.198.666-2.111v-.457c0-.888-.21-1.577-.629-2.068-.415-.494-1.006-.745-1.772-.752h-1.203ZM165.272 174.107c-.788 0-1.429-.257-1.923-.773-.494-.519-.741-1.212-.741-2.079v-.182c0-.577.109-1.091.328-1.542.222-.455.53-.809.924-1.063a2.321 2.321 0 0 1 1.289-.387c.755 0 1.342.249 1.761.747.419.497.629 1.21.629 2.137v.414h-3.937c.014.573.181 1.037.499 1.391a1.59 1.59 0 0 0 1.225.526c.351 0 .648-.071.891-.214.244-.144.457-.333.64-.57l.607.473c-.487.748-1.218 1.122-2.192 1.122Zm-.123-5.21c-.401 0-.738.147-1.01.441-.272.29-.441.698-.505 1.224h2.911v-.075c-.029-.505-.165-.895-.408-1.171-.244-.279-.573-.419-.988-.419ZM171.135 173.296c.354 0 .664-.107.929-.322a1.13 1.13 0 0 0 .44-.806h.94c-.018.333-.132.65-.344.951a2.257 2.257 0 0 1-.848.72 2.427 2.427 0 0 1-1.117.268c-.792 0-1.422-.263-1.891-.789-.466-.53-.698-1.253-.698-2.17v-.167c0-.565.104-1.068.311-1.509.208-.44.505-.782.892-1.026.39-.243.85-.365 1.38-.365.652 0 1.193.195 1.622.586.434.39.664.896.693 1.52h-.94a1.351 1.351 0 0 0-.43-.924 1.31 1.31 0 0 0-.945-.366c-.505 0-.897.183-1.176.548-.276.362-.414.887-.414 1.574v.188c0 .67.138 1.185.414 1.547.276.362.67.542 1.182.542ZM182.532 174h-5.124v-.714l2.707-3.008c.401-.455.677-.824.827-1.107.154-.286.231-.581.231-.886 0-.408-.124-.743-.371-1.004-.247-.262-.576-.392-.988-.392-.494 0-.879.141-1.155.424-.272.279-.408.67-.408 1.171h-.994c0-.72.231-1.302.693-1.746.466-.444 1.087-.666 1.864-.666.727 0 1.302.192 1.724.575.423.38.634.886.634 1.52 0 .77-.491 1.687-1.472 2.75l-2.094 2.272h3.926V174ZM188.743 166.738 185.505 174h-1.042l3.228-7.004h-4.233v-.816h5.285v.558ZM239.2 166.18h1.037v5.538c0 .748-.226 1.334-.677 1.756-.448.423-1.046.634-1.794.634-.777 0-1.382-.199-1.815-.596-.434-.398-.65-.955-.65-1.671h1.031c0 .448.122.797.365 1.048.247.25.604.376 1.069.376.426 0 .77-.135 1.031-.403.265-.269.4-.645.403-1.128v-5.554ZM245.535 174c-.057-.114-.104-.318-.139-.612-.462.48-1.014.72-1.655.72-.573 0-1.043-.161-1.412-.483a1.586 1.586 0 0 1-.548-1.236c0-.605.229-1.074.687-1.407.462-.337 1.11-.505 1.945-.505h.967v-.456c0-.348-.104-.624-.312-.828-.208-.207-.514-.311-.918-.311-.355 0-.652.089-.892.268-.24.179-.36.396-.36.65h-.999c0-.29.102-.569.306-.838a2.12 2.12 0 0 1 .838-.644 2.832 2.832 0 0 1 1.166-.236c.669 0 1.194.168 1.573.504.38.333.577.794.591 1.381v2.675c0 .533.068.957.204 1.273V174h-1.042Zm-1.649-.757c.312 0 .607-.08.887-.242.279-.161.481-.37.607-.628v-1.192h-.779c-1.218 0-1.826.356-1.826 1.069 0 .311.103.555.311.73.208.175.475.263.8.263ZM248.981 168.189l.032.73c.444-.558 1.024-.837 1.74-.837 1.228 0 1.848.692 1.859 2.078V174h-.994v-3.845c-.004-.419-.1-.729-.29-.929-.186-.201-.478-.301-.876-.301a1.43 1.43 0 0 0-.848.258 1.75 1.75 0 0 0-.57.676V174h-.993v-5.811h.94ZM260.222 174h-.999v-6.622l-2.003.736v-.903l2.846-1.068h.156V174ZM315.95 166.179h1.037v5.538c0 .748-.226 1.334-.677 1.756-.448.423-1.046.634-1.794.634-.777 0-1.382-.199-1.815-.596-.434-.398-.65-.955-.65-1.671h1.031c0 .448.122.797.365 1.048.247.25.604.376 1.069.376.426 0 .77-.135 1.031-.403.265-.269.4-.645.403-1.128v-5.554ZM322.285 174c-.057-.115-.104-.319-.139-.613-.462.48-1.014.72-1.655.72-.573 0-1.043-.161-1.412-.483a1.586 1.586 0 0 1-.548-1.236c0-.605.229-1.074.687-1.407.462-.337 1.11-.505 1.945-.505h.967v-.456c0-.348-.104-.624-.312-.828-.208-.207-.514-.311-.918-.311-.355 0-.652.089-.892.268-.24.179-.36.396-.36.65h-.999c0-.29.102-.569.306-.838a2.12 2.12 0 0 1 .838-.644 2.832 2.832 0 0 1 1.166-.236c.669 0 1.194.168 1.573.504.38.333.577.794.591 1.381v2.675c0 .533.068.957.204 1.273V174h-1.042Zm-1.649-.758c.312 0 .607-.08.887-.242.279-.161.481-.37.607-.628v-1.192h-.779c-1.218 0-1.826.356-1.826 1.069 0 .311.103.555.311.73.208.175.475.263.8.263ZM325.731 168.188l.032.73c.444-.558 1.024-.837 1.74-.837 1.228 0 1.848.692 1.859 2.078V174h-.994v-3.846c-.004-.419-.1-.729-.29-.929-.186-.201-.478-.301-.876-.301a1.43 1.43 0 0 0-.848.258 1.757 1.757 0 0 0-.57.676V174h-.993v-5.812h.94ZM337.606 166.174v.843h-.183c-.773.014-1.389.244-1.847.688-.459.444-.724 1.068-.795 1.874.412-.473.974-.709 1.686-.709.681 0 1.223.24 1.628.72.408.48.612 1.099.612 1.858 0 .806-.22 1.45-.661 1.934-.436.483-1.024.725-1.761.725-.749 0-1.356-.287-1.821-.859-.466-.577-.698-1.318-.698-2.224v-.381c0-1.44.306-2.539.918-3.298.616-.763 1.531-1.153 2.745-1.171h.177Zm-1.305 3.523c-.34 0-.654.102-.94.306a1.6 1.6 0 0 0-.596.768v.366c0 .644.145 1.163.435 1.557.29.394.651.591 1.085.591.447 0 .798-.165 1.052-.494.258-.329.387-.761.387-1.294 0-.538-.131-.971-.392-1.3a1.238 1.238 0 0 0-1.031-.5ZM389.558 166.18h1.036v5.538c0 .748-.225 1.334-.677 1.756-.447.423-1.045.634-1.793.634-.777 0-1.383-.199-1.816-.596-.433-.398-.65-.955-.65-1.671h1.031c0 .448.122.797.366 1.048.247.25.603.376 1.069.376.426 0 .769-.135 1.031-.403.265-.269.399-.645.403-1.128v-5.554ZM395.893 174c-.058-.114-.104-.318-.14-.612-.462.48-1.013.72-1.654.72-.573 0-1.044-.161-1.413-.483a1.586 1.586 0 0 1-.548-1.236c0-.605.229-1.074.688-1.407.462-.337 1.11-.505 1.944-.505h.967v-.456c0-.348-.104-.624-.312-.828-.207-.207-.513-.311-.918-.311-.355 0-.652.089-.892.268-.24.179-.359.396-.359.65h-1c0-.29.103-.569.307-.838.207-.272.487-.487.838-.644a2.828 2.828 0 0 1 1.165-.236c.67 0 1.194.168 1.574.504.379.333.576.794.591 1.381v2.675c0 .533.068.957.204 1.273V174h-1.042Zm-1.649-.757c.311 0 .607-.08.886-.242a1.46 1.46 0 0 0 .607-.628v-1.192h-.779c-1.217 0-1.826.356-1.826 1.069 0 .311.104.555.311.73.208.175.475.263.801.263ZM399.338 168.189l.032.73c.444-.558 1.024-.837 1.741-.837 1.228 0 1.847.692 1.858 2.078V174h-.994v-3.845c-.003-.419-.1-.729-.29-.929-.186-.201-.478-.301-.875-.301-.322 0-.605.086-.849.258a1.747 1.747 0 0 0-.569.676V174h-.994v-5.811h.94ZM410.58 174h-.999v-6.622l-2.004.736v-.903l2.847-1.068h.156V174ZM416.866 174h-.999v-6.622l-2.003.736v-.903l2.847-1.068h.155V174ZM466.308 166.18h1.036v5.538c0 .748-.225 1.334-.677 1.756-.447.423-1.045.634-1.793.634-.777 0-1.383-.199-1.816-.596-.433-.398-.65-.955-.65-1.671h1.031c0 .448.122.797.366 1.048.247.25.603.376 1.069.376.426 0 .769-.135 1.031-.403.265-.269.399-.645.403-1.128v-5.554ZM472.643 174c-.058-.114-.104-.318-.14-.612-.462.48-1.013.72-1.654.72-.573 0-1.044-.161-1.413-.483a1.586 1.586 0 0 1-.548-1.236c0-.605.229-1.074.688-1.407.462-.337 1.11-.505 1.944-.505h.967v-.456c0-.348-.104-.624-.312-.828-.207-.207-.513-.311-.918-.311-.355 0-.652.089-.892.268-.24.179-.359.396-.359.65h-1c0-.29.103-.569.307-.838.207-.272.487-.487.838-.644a2.828 2.828 0 0 1 1.165-.236c.67 0 1.194.168 1.574.504.379.333.576.794.591 1.381v2.675c0 .533.068.957.204 1.273V174h-1.042Zm-1.649-.757c.311 0 .607-.08.886-.242a1.46 1.46 0 0 0 .607-.628v-1.192h-.779c-1.217 0-1.826.356-1.826 1.069 0 .311.104.555.311.73.208.175.475.263.801.263ZM476.088 168.189l.032.73c.444-.558 1.024-.837 1.741-.837 1.228 0 1.847.692 1.858 2.078V174h-.994v-3.845c-.003-.419-.1-.729-.29-.929-.186-.201-.478-.301-.875-.301-.322 0-.605.086-.849.258a1.747 1.747 0 0 0-.569.676V174h-.994v-5.811h.94ZM487.33 174h-.999v-6.622l-2.004.736v-.903l2.847-1.068h.156V174ZM494.25 166.175v.843h-.182c-.774.014-1.39.244-1.848.688-.458.444-.723 1.068-.795 1.874.412-.473.974-.709 1.687-.709.68 0 1.222.24 1.627.72.408.48.612 1.099.612 1.858 0 .806-.22 1.45-.66 1.934-.437.483-1.024.725-1.762.725-.748 0-1.355-.287-1.821-.859-.465-.577-.698-1.318-.698-2.224v-.381c0-1.44.306-2.539.918-3.298.616-.763 1.531-1.153 2.745-1.171h.177Zm-1.305 3.523c-.34 0-.653.102-.94.306a1.601 1.601 0 0 0-.596.768v.366c0 .644.145 1.163.435 1.557.29.394.652.591 1.085.591.447 0 .798-.165 1.053-.494.257-.329.386-.761.386-1.294 0-.538-.13-.971-.392-1.3a1.238 1.238 0 0 0-1.031-.5ZM543.058 166.18h1.036v5.537c0 .749-.225 1.334-.677 1.757-.447.422-1.045.633-1.793.633-.777 0-1.383-.198-1.816-.596-.433-.397-.65-.954-.65-1.67h1.031c0 .447.122.797.366 1.047.247.251.603.376 1.069.376.426 0 .769-.134 1.031-.403.265-.268.399-.644.403-1.128v-5.553ZM549.393 174c-.058-.115-.104-.319-.14-.612-.462.48-1.013.719-1.654.719-.573 0-1.044-.161-1.413-.483a1.586 1.586 0 0 1-.548-1.235c0-.605.229-1.075.688-1.408.462-.336 1.11-.504 1.944-.504h.967v-.457c0-.347-.104-.623-.312-.827-.207-.208-.513-.312-.918-.312-.355 0-.652.09-.892.269-.24.179-.359.396-.359.65h-1c0-.29.103-.57.307-.838.207-.272.487-.487.838-.645a2.844 2.844 0 0 1 1.165-.236c.67 0 1.194.168 1.574.505.379.333.576.793.591 1.38v2.675c0 .534.068.958.204 1.273V174h-1.042Zm-1.649-.757c.311 0 .607-.081.886-.242.279-.161.482-.371.607-.628v-1.193h-.779c-1.217 0-1.826.356-1.826 1.069 0 .312.104.555.311.73.208.176.475.264.801.264ZM552.838 168.188l.032.731c.444-.559 1.024-.838 1.741-.838 1.228 0 1.847.693 1.858 2.079V174h-.994v-3.846c-.003-.419-.1-.728-.29-.929-.186-.2-.478-.301-.875-.301-.322 0-.605.086-.849.258a1.757 1.757 0 0 0-.569.677V174h-.994v-5.812h.94ZM565.938 174h-5.124v-.714l2.707-3.008c.401-.455.677-.824.827-1.107.154-.286.231-.581.231-.886 0-.408-.123-.743-.37-1.004-.248-.262-.577-.392-.989-.392-.494 0-.879.141-1.155.424-.272.279-.408.67-.408 1.171h-.993c0-.72.231-1.302.693-1.746.465-.444 1.086-.666 1.863-.666.727 0 1.302.192 1.724.575.423.38.634.886.634 1.52 0 .77-.49 1.687-1.471 2.75l-2.095 2.272h3.926V174ZM570.366 174h-.999v-6.623l-2.003.736v-.902l2.847-1.069h.155V174Z" fill="#000" fill-opacity=".6"/><mask id="b" mask-type="alpha" maskUnits="userSpaceOnUse" x="58" y="93" width="535" height="65"><path d="M58 93h535v65H58V93Z" fill="#C4C4C4"/></mask><g mask="url(#b)"><path d="M81 118h8v40h-8v-40Z" fill="#B5C9DE"/><path d="M91 125h8v33h-8v-33Z" fill="#2F80EC"/><path d="M101 113h8v45h-8v-45Z" fill="#305680"/><path d="M158 116h8v42h-8v-42Z" fill="#B5C9DE"/><path d="M168 133.8h8V158h-8v-24.2Z" fill="#2F80EC"/><path d="M178 125h8v33h-8v-33Z" fill="#305680"/><path d="M235 132h8v26h-8v-26Z" fill="#B5C9DE"/><path d="M245 120.6h8V158h-8v-37.4Z" fill="#2F80EC"/><path d="M255 107h8v51h-8v-51Z" fill="#305680"/><path d="M311 119h8v39h-8v-39Z" fill="#B5C9DE"/><path d="M321 125h8v33h-8v-33Z" fill="#2F80EC"/><path d="M331 113h8v45h-8v-45Z" fill="#305680"/><path d="M388 117h8v41h-8v-41Z" fill="#B5C9DE"/><path d="M398 133.8h8V158h-8v-24.2Z" fill="#2F80EC"/><path d="M408 125h8v33h-8v-33Z" fill="#305680"/><path d="M465 101h8v57h-8v-57Z" fill="#B5C9DE"/><path d="M475 120.6h8V158h-8v-37.4Z" fill="#2F80EC"/><path d="M485 107h8v51h-8v-51Z" fill="#305680"/><path d="M542 127h8v31h-8v-31Z" fill="#B5C9DE"/><path d="M552 131.6h8V158h-8v-26.4Z" fill="#2F80EC"/><path d="M562 122h8v36h-8v-36Z" fill="#305680"/></g><path stroke="#000" stroke-opacity=".87" d="M57.5 92.5h536v66h-536z"/></g><defs><clipPath id="a"><rect width="626" height="209" rx="6" fill="#fff"/></clipPath></defs></svg>