<svg width="449" height="311" fill="none" xmlns="http://www.w3.org/2000/svg"><path fill="#fff" d="M0 0h449v311H0z"/><rect width="449" height="311" rx="6" fill="#fff"/><g opacity=".82" fill="#000"><path d="M45.77 38.79h-5.485V54h-2.238V38.79h-5.473v-1.852H45.77v1.851ZM52.05 54.234c-1.718 0-3.116-.562-4.194-1.687-1.079-1.133-1.618-2.645-1.618-4.535v-.399c0-1.258.239-2.379.715-3.363.484-.992 1.156-1.766 2.016-2.32a5.07 5.07 0 0 1 2.812-.844c1.649 0 2.93.543 3.844 1.629.914 1.086 1.371 2.64 1.371 4.664v.902h-8.59c.032 1.25.395 2.262 1.09 3.035.703.766 1.594 1.149 2.672 1.149.766 0 1.414-.156 1.945-.469a4.888 4.888 0 0 0 1.395-1.242l1.324 1.031c-1.063 1.633-2.656 2.45-4.781 2.45Zm-.269-11.367c-.875 0-1.61.32-2.203.961-.594.633-.96 1.524-1.101 2.672h6.351v-.164c-.062-1.102-.36-1.953-.89-2.555-.532-.61-1.25-.914-2.157-.914ZM61.555 41.32l.058 1.407c.93-1.094 2.184-1.641 3.762-1.641 1.773 0 2.98.68 3.621 2.039a4.82 4.82 0 0 1 1.64-1.477c.68-.375 1.481-.562 2.403-.562 2.781 0 4.195 1.473 4.242 4.418V54h-2.168v-8.367c0-.906-.207-1.582-.62-2.028-.415-.453-1.11-.68-2.087-.68-.804 0-1.472.243-2.004.727-.53.477-.84 1.121-.925 1.934V54h-2.18v-8.309c0-1.843-.903-2.765-2.707-2.765-1.422 0-2.395.605-2.918 1.816V54h-2.168V41.32h2.05ZM91.273 47.8c0 1.93-.441 3.485-1.324 4.665-.883 1.18-2.078 1.77-3.586 1.77-1.539 0-2.75-.489-3.632-1.465v6.105h-2.168V41.32h1.98l.105 1.407c.883-1.094 2.11-1.641 3.68-1.641 1.524 0 2.727.574 3.61 1.723.89 1.148 1.335 2.746 1.335 4.793v.199Zm-2.167-.245c0-1.43-.305-2.559-.915-3.387-.609-.828-1.445-1.242-2.507-1.242-1.313 0-2.297.582-2.953 1.746v6.059c.648 1.156 1.64 1.734 2.976 1.734 1.04 0 1.863-.41 2.473-1.23.617-.829.925-2.055.925-3.68ZM99.3 54.234c-1.718 0-3.116-.562-4.194-1.687-1.079-1.133-1.618-2.645-1.618-4.535v-.399c0-1.258.239-2.379.715-3.363.484-.992 1.156-1.766 2.016-2.32a5.07 5.07 0 0 1 2.812-.844c1.649 0 2.93.543 3.844 1.629.914 1.086 1.371 2.64 1.371 4.664v.902h-8.59c.031 1.25.395 2.262 1.09 3.035.703.766 1.594 1.149 2.672 1.149.766 0 1.414-.156 1.945-.469a4.887 4.887 0 0 0 1.395-1.242l1.324 1.031c-1.062 1.633-2.656 2.45-4.781 2.45Zm-.269-11.367c-.875 0-1.61.32-2.203.961-.594.633-.96 1.524-1.101 2.672h6.351v-.164c-.062-1.102-.359-1.953-.89-2.555-.532-.61-1.25-.914-2.157-.914ZM112.895 43.266a6.509 6.509 0 0 0-1.067-.082c-1.422 0-2.387.605-2.894 1.816v9h-2.168V41.32h2.109l.035 1.465c.711-1.133 1.719-1.7 3.024-1.7.421 0 .742.056.961.165v2.016ZM122.258 54c-.125-.25-.227-.695-.305-1.336-1.008 1.047-2.211 1.57-3.609 1.57-1.25 0-2.278-.351-3.082-1.054-.797-.711-1.196-1.61-1.196-2.696 0-1.32.5-2.343 1.5-3.07 1.008-.734 2.422-1.102 4.243-1.102h2.109v-.996c0-.757-.227-1.359-.68-1.804-.453-.453-1.121-.68-2.004-.68-.773 0-1.422.195-1.945.586-.523.39-.785.863-.785 1.418h-2.18c0-.633.223-1.242.668-1.828.453-.594 1.063-1.063 1.828-1.406.774-.344 1.621-.516 2.543-.516 1.461 0 2.606.367 3.434 1.102.828.726 1.258 1.73 1.289 3.011v5.836c0 1.164.148 2.09.445 2.778V54h-2.273Zm-3.598-1.652c.68 0 1.324-.176 1.934-.528.609-.351 1.051-.808 1.324-1.37v-2.602h-1.699c-2.657 0-3.985.777-3.985 2.332 0 .68.227 1.21.68 1.593.453.383 1.035.575 1.746.575ZM130.426 38.25v3.07h2.367v1.676h-2.367v7.863c0 .508.105.891.316 1.149.211.25.57.375 1.078.375.25 0 .594-.047 1.032-.14V54a6.291 6.291 0 0 1-1.664.234c-.969 0-1.7-.293-2.192-.879-.492-.585-.738-1.417-.738-2.496v-7.863h-2.309V41.32h2.309v-3.07h2.168ZM143.164 52.746c-.844.992-2.082 1.488-3.715 1.488-1.351 0-2.383-.39-3.094-1.172-.703-.789-1.058-1.953-1.066-3.492v-8.25h2.168v8.192c0 1.922.781 2.883 2.344 2.883 1.656 0 2.758-.618 3.304-1.852V41.32h2.168V54h-2.062l-.047-1.254ZM154.707 43.266a6.496 6.496 0 0 0-1.066-.082c-1.422 0-2.387.605-2.895 1.816v9h-2.168V41.32h2.11l.035 1.465c.711-1.133 1.718-1.7 3.023-1.7.422 0 .742.056.961.165v2.016ZM161.738 54.234c-1.718 0-3.117-.562-4.195-1.687-1.078-1.133-1.617-2.645-1.617-4.535v-.399c0-1.258.238-2.379.715-3.363.484-.992 1.156-1.766 2.015-2.32a5.071 5.071 0 0 1 2.813-.844c1.648 0 2.929.543 3.843 1.629.915 1.086 1.372 2.64 1.372 4.664v.902h-8.59c.031 1.25.394 2.262 1.09 3.035.703.766 1.593 1.149 2.671 1.149.766 0 1.415-.156 1.946-.469a4.884 4.884 0 0 0 1.394-1.242l1.325 1.031c-1.063 1.633-2.657 2.45-4.782 2.45Zm-.269-11.367c-.875 0-1.61.32-2.203.961-.594.633-.961 1.524-1.102 2.672h6.352v-.164c-.063-1.102-.36-1.953-.891-2.555-.531-.61-1.25-.914-2.156-.914ZM183.078 37.84c-.969-.156-1.75-.235-2.344-.235-1.562 0-2.343.82-2.343 2.461v1.254h2.707v1.676h-2.707V54h-2.168V42.996h-2.004V41.32h2.004v-1.383c.007-1.351.386-2.386 1.136-3.105.75-.719 1.817-1.078 3.2-1.078.789 0 2.351.238 4.687.715V54h-2.168V37.84ZM196.625 52.746c-.844.992-2.082 1.488-3.715 1.488-1.351 0-2.383-.39-3.094-1.172-.703-.789-1.058-1.953-1.066-3.492v-8.25h2.168v8.192c0 1.922.781 2.883 2.344 2.883 1.656 0 2.758-.618 3.304-1.852V41.32h2.168V54h-2.062l-.047-1.254ZM207.125 52.465c.773 0 1.449-.235 2.027-.703.578-.469.899-1.055.961-1.758h2.051c-.039.727-.289 1.418-.75 2.074-.461.656-1.078 1.18-1.852 1.57a5.287 5.287 0 0 1-2.437.586c-1.727 0-3.102-.574-4.125-1.722-1.016-1.157-1.523-2.735-1.523-4.735v-.363c0-1.234.226-2.332.679-3.293.453-.96 1.102-1.707 1.946-2.238.851-.531 1.855-.797 3.011-.797 1.422 0 2.602.426 3.539 1.277.946.852 1.45 1.957 1.512 3.317h-2.051c-.062-.82-.375-1.492-.937-2.016-.555-.531-1.242-.797-2.063-.797-1.101 0-1.957.399-2.566 1.196-.602.789-.902 1.933-.902 3.433v.41c0 1.461.3 2.586.902 3.375.601.79 1.461 1.184 2.578 1.184ZM217.543 38.25v3.07h2.367v1.676h-2.367v7.863c0 .508.105.891.316 1.149.211.25.571.375 1.079.375.25 0 .593-.047 1.031-.14V54a6.291 6.291 0 0 1-1.664.234c-.969 0-1.7-.293-2.192-.879-.492-.585-.738-1.417-.738-2.496v-7.863h-2.309V41.32h2.309v-3.07h2.168ZM230.281 52.746c-.843.992-2.082 1.488-3.715 1.488-1.351 0-2.382-.39-3.093-1.172-.703-.789-1.059-1.953-1.067-3.492v-8.25h2.168v8.192c0 1.922.781 2.883 2.344 2.883 1.656 0 2.758-.618 3.305-1.852V41.32h2.168V54h-2.063l-.047-1.254ZM243.523 54c-.125-.25-.226-.695-.304-1.336-1.008 1.047-2.211 1.57-3.61 1.57-1.25 0-2.277-.351-3.082-1.054-.797-.711-1.195-1.61-1.195-2.696 0-1.32.5-2.343 1.5-3.07 1.008-.734 2.422-1.102 4.242-1.102h2.11v-.996c0-.757-.227-1.359-.68-1.804-.453-.453-1.121-.68-2.004-.68-.773 0-1.422.195-1.945.586-.524.39-.785.863-.785 1.418h-2.18c0-.633.222-1.242.668-1.828.453-.594 1.062-1.063 1.828-1.406.773-.344 1.621-.516 2.543-.516 1.461 0 2.605.367 3.433 1.102.829.726 1.258 1.73 1.29 3.011v5.836c0 1.164.148 2.09.445 2.778V54h-2.274Zm-3.597-1.652c.679 0 1.324-.176 1.933-.528.61-.351 1.051-.808 1.325-1.37v-2.602h-1.7c-2.656 0-3.984.777-3.984 2.332 0 .68.227 1.21.68 1.593.453.383 1.035.575 1.746.575ZM251.691 38.25v3.07h2.368v1.676h-2.368v7.863c0 .508.106.891.317 1.149.211.25.57.375 1.078.375.25 0 .594-.047 1.031-.14V54a6.285 6.285 0 0 1-1.664.234c-.969 0-1.699-.293-2.191-.879-.492-.585-.739-1.417-.739-2.496v-7.863h-2.308V41.32h2.308v-3.07h2.168ZM258.957 54h-2.168V41.32h2.168V54Zm-2.344-16.043c0-.352.106-.648.317-.89.218-.243.539-.364.961-.364.421 0 .742.121.961.363.218.243.328.54.328.891 0 .352-.11.645-.328.879-.219.234-.54.352-.961.352-.422 0-.743-.118-.961-.352-.211-.234-.317-.527-.317-.879ZM261.863 47.543c0-1.242.242-2.36.727-3.352.492-.992 1.172-1.757 2.039-2.297.875-.538 1.871-.808 2.988-.808 1.727 0 3.121.598 4.184 1.793 1.07 1.195 1.605 2.785 1.605 4.77v.152c0 1.234-.238 2.343-.715 3.328-.468.977-1.144 1.738-2.027 2.285-.875.547-1.883.82-3.023.82-1.719 0-3.114-.597-4.184-1.793-1.062-1.195-1.594-2.777-1.594-4.746v-.152Zm2.18.258c0 1.406.324 2.535.973 3.386.656.852 1.531 1.278 2.625 1.278 1.101 0 1.976-.43 2.625-1.29.648-.866.972-2.077.972-3.632 0-1.39-.332-2.516-.996-3.375-.656-.867-1.531-1.3-2.625-1.3-1.07 0-1.933.425-2.59 1.276-.656.852-.984 2.07-.984 3.657ZM278.176 41.32l.07 1.594c.969-1.219 2.234-1.828 3.797-1.828 2.68 0 4.031 1.512 4.055 4.535V54h-2.168v-8.39c-.008-.915-.219-1.59-.633-2.028-.406-.438-1.043-.656-1.91-.656-.703 0-1.321.187-1.852.562a3.823 3.823 0 0 0-1.242 1.477V54h-2.168V41.32h2.051ZM296.75 50.637c0-.586-.223-1.04-.668-1.36-.437-.328-1.207-.609-2.309-.843-1.093-.235-1.964-.516-2.613-.844-.64-.328-1.117-.719-1.43-1.172-.304-.453-.457-.992-.457-1.617 0-1.04.438-1.918 1.313-2.637.883-.719 2.008-1.078 3.375-1.078 1.437 0 2.601.371 3.492 1.113.899.742 1.348 1.692 1.348 2.848h-2.18c0-.594-.254-1.106-.762-1.535-.5-.43-1.132-.645-1.898-.645-.789 0-1.406.172-1.852.516-.445.344-.668.793-.668 1.347 0 .524.207.918.621 1.184.415.266 1.161.52 2.239.762 1.086.242 1.965.531 2.637.867.671.336 1.167.742 1.488 1.219.328.468.492 1.043.492 1.722 0 1.133-.453 2.043-1.359 2.73-.907.68-2.082 1.02-3.528 1.02-1.015 0-1.914-.18-2.695-.539-.781-.36-1.395-.86-1.84-1.5a3.682 3.682 0 0 1-.656-2.097h2.168c.039.726.328 1.304.867 1.734.547.422 1.266.633 2.156.633.821 0 1.477-.164 1.969-.492.5-.336.75-.782.75-1.336Z"/></g><path d="M400 46h-2v5h5v-2h-3v-3Zm-2-4h2v-3h3v-2h-5v5Zm12 7h-3v2h5v-5h-2v3Zm-3-12v2h3v3h2v-5h-5Z" fill="#000" opacity=".54"/><path fill="#fff" d="M57 92h360v169H57z"/><path d="M28.954 96h-1v-6.623l-2.003.736v-.902l2.847-1.069h.156V96ZM32.431 92.08l.398-3.9h4.007v.918h-3.164l-.236 2.133a2.523 2.523 0 0 1 1.305-.339c.712 0 1.278.236 1.697.71.42.468.628 1.104.628 1.906 0 .806-.218 1.441-.655 1.907-.433.461-1.04.692-1.82.692-.692 0-1.256-.191-1.692-.574-.437-.383-.686-.913-.747-1.59h.94c.06.448.22.786.478 1.015.258.226.598.338 1.02.338.462 0 .824-.157 1.085-.472.265-.315.398-.75.398-1.305 0-.523-.143-.942-.43-1.257-.283-.319-.66-.478-1.133-.478-.433 0-.773.095-1.02.284l-.264.215-.795-.204ZM38.31 89.469c0-.373.132-.698.397-.978a1.3 1.3 0 0 1 .972-.419c.373 0 .69.14.951.42.265.275.398.6.398.977 0 .38-.133.703-.398.972a1.277 1.277 0 0 1-.95.403c-.377 0-.699-.134-.967-.403a1.324 1.324 0 0 1-.403-.972Zm1.37.687a.684.684 0 0 0 .488-.188.666.666 0 0 0 .199-.5.69.69 0 0 0-.688-.714.662.662 0 0 0-.499.215.7.7 0 0 0-.199.5c0 .193.066.356.199.489a.689.689 0 0 0 .5.198ZM48.496 93.519c-.097.827-.403 1.466-.918 1.917-.513.448-1.195.671-2.047.671-.924 0-1.665-.33-2.224-.993-.555-.663-.832-1.549-.832-2.659v-.752c0-.727.129-1.366.387-1.917.261-.552.63-.974 1.106-1.268.476-.297 1.028-.446 1.654-.446.831 0 1.497.233 1.998.698.502.462.794 1.103.876 1.923h-1.037c-.09-.623-.284-1.074-.585-1.353-.297-.28-.714-.42-1.252-.42-.658 0-1.176.244-1.552.731-.372.487-.558 1.18-.558 2.079v.757c0 .849.177 1.524.531 2.025.355.501.85.752 1.488.752.573 0 1.012-.129 1.316-.387.308-.261.512-.714.612-1.358h1.037ZM28.954 124.167h-1v-6.623l-2.003.736v-.902l2.847-1.069h.156v7.858ZM36.879 120.832c0 1.163-.2 2.028-.597 2.594-.397.566-1.018.848-1.863.848-.835 0-1.452-.275-1.853-.827-.402-.555-.61-1.382-.624-2.481v-1.327c0-1.149.2-2.003.597-2.562.397-.558 1.02-.838 1.869-.838.841 0 1.46.271 1.858.811.398.537.602 1.368.613 2.492v1.29Zm-.994-1.359c0-.842-.118-1.454-.355-1.837-.236-.387-.61-.58-1.122-.58-.509 0-.88.191-1.112.574-.233.384-.353.973-.36 1.767v1.59c0 .845.122 1.47.365 1.875.247.401.62.601 1.118.601.49 0 .854-.189 1.09-.569.24-.38.365-.977.376-1.794v-1.627ZM38.31 117.636c0-.373.132-.698.397-.978a1.3 1.3 0 0 1 .972-.419c.373 0 .69.14.951.419.265.276.398.602.398.978 0 .379-.133.703-.398.972a1.28 1.28 0 0 1-.95.403 1.32 1.32 0 0 1-.967-.403 1.326 1.326 0 0 1-.403-.972Zm1.37.687a.681.681 0 0 0 .488-.188.665.665 0 0 0 .199-.499.693.693 0 0 0-.199-.511.655.655 0 0 0-.489-.204.663.663 0 0 0-.499.215.701.701 0 0 0-.199.5c0 .193.066.356.199.489a.69.69 0 0 0 .5.198ZM48.496 121.686c-.097.827-.403 1.466-.918 1.917-.513.448-1.195.671-2.047.671-.924 0-1.665-.331-2.224-.993-.555-.663-.832-1.549-.832-2.659v-.752c0-.727.129-1.366.387-1.917.261-.552.63-.974 1.106-1.268.476-.297 1.028-.446 1.654-.446.831 0 1.497.233 1.998.699.502.461.794 1.102.876 1.922h-1.037c-.09-.623-.284-1.074-.585-1.353-.297-.279-.714-.419-1.252-.419-.658 0-1.176.243-1.552.73-.372.487-.558 1.18-.558 2.079v.757c0 .849.177 1.524.531 2.025.355.502.85.752 1.488.752.573 0 1.012-.129 1.316-.387.308-.261.512-.714.612-1.358h1.037ZM32.43 148.412l.397-3.899h4.007v.918H33.67l-.236 2.132a2.529 2.529 0 0 1 1.305-.338c.713 0 1.279.236 1.698.709.419.469.628 1.105.628 1.907 0 .805-.218 1.441-.655 1.907-.434.461-1.04.692-1.821.692-.691 0-1.255-.191-1.692-.574-.437-.383-.686-.913-.747-1.59h.94c.061.447.22.786.478 1.015.258.226.598.338 1.02.338.463 0 .824-.157 1.086-.472.265-.315.397-.75.397-1.305 0-.523-.143-.942-.43-1.257-.282-.319-.66-.478-1.133-.478-.433 0-.773.095-1.02.284l-.263.215-.795-.204ZM38.308 145.802c0-.373.133-.698.398-.978a1.3 1.3 0 0 1 .972-.419c.372 0 .69.14.95.419.266.276.398.602.398.978 0 .379-.133.703-.397.972a1.28 1.28 0 0 1-.951.403 1.32 1.32 0 0 1-.967-.403 1.326 1.326 0 0 1-.403-.972Zm1.37.687a.681.681 0 0 0 .489-.188.665.665 0 0 0 .198-.499.689.689 0 0 0-.198-.51.653.653 0 0 0-.49-.205.663.663 0 0 0-.499.215.701.701 0 0 0-.198.5c0 .193.066.356.198.489a.69.69 0 0 0 .5.198ZM48.494 149.852c-.096.827-.402 1.466-.918 1.917-.512.448-1.194.671-2.046.671-.924 0-1.666-.331-2.224-.993-.555-.663-.833-1.549-.833-2.659v-.752c0-.727.13-1.366.387-1.917.261-.552.63-.974 1.107-1.268.476-.297 1.027-.446 1.654-.446.83 0 1.497.233 1.998.699.501.461.793 1.102.875 1.922h-1.036c-.09-.623-.285-1.074-.586-1.353-.297-.279-.714-.419-1.251-.419-.659 0-1.176.243-1.552.73-.373.487-.559 1.18-.559 2.079v.757c0 .849.177 1.524.532 2.025.354.502.85.752 1.488.752.572 0 1.011-.129 1.316-.387.307-.261.512-.714.612-1.358h1.036ZM36.877 177.165c0 1.163-.198 2.028-.596 2.594-.397.566-1.018.848-1.864.848-.834 0-1.452-.275-1.852-.827-.402-.555-.61-1.382-.624-2.481v-1.327c0-1.149.2-2.003.597-2.562.397-.558 1.02-.838 1.869-.838.841 0 1.46.271 1.858.811.398.537.602 1.368.612 2.492v1.29Zm-.993-1.359c0-.842-.118-1.454-.355-1.837-.236-.387-.61-.58-1.122-.58-.509 0-.88.191-1.112.574-.233.384-.353.973-.36 1.767v1.59c0 .845.122 1.47.365 1.875.247.401.62.601 1.117.601.491 0 .855-.189 1.09-.569.24-.38.366-.977.377-1.794v-1.627ZM38.309 173.969c0-.373.132-.698.397-.978a1.3 1.3 0 0 1 .972-.419c.373 0 .69.14.951.419.265.276.398.602.398.978 0 .379-.133.703-.398.972a1.28 1.28 0 0 1-.95.403 1.32 1.32 0 0 1-.967-.403 1.326 1.326 0 0 1-.403-.972Zm1.37.687a.681.681 0 0 0 .488-.188.665.665 0 0 0 .199-.499.693.693 0 0 0-.199-.511.656.656 0 0 0-.489-.204.664.664 0 0 0-.5.215.702.702 0 0 0-.198.5c0 .193.066.356.199.489a.69.69 0 0 0 .5.198ZM48.495 178.019c-.097.827-.403 1.466-.919 1.917-.512.448-1.194.671-2.046.671-.924 0-1.665-.331-2.224-.993-.555-.663-.832-1.549-.832-2.659v-.752c0-.727.129-1.366.387-1.917.261-.552.63-.974 1.106-1.268.476-.297 1.028-.446 1.654-.446.831 0 1.497.233 1.998.699.502.461.794 1.102.876 1.922h-1.037c-.09-.623-.284-1.074-.585-1.353-.297-.279-.715-.419-1.252-.419-.659 0-1.176.243-1.552.73-.372.487-.559 1.18-.559 2.079v.757c0 .849.178 1.524.532 2.025.355.502.85.752 1.488.752.573 0 1.012-.129 1.316-.387.308-.261.512-.714.612-1.358h1.037ZM30.994 205.75h-2.621v-.811h2.621v.811ZM32.43 204.746l.398-3.899h4.007v.918h-3.163l-.237 2.132a2.529 2.529 0 0 1 1.305-.338c.713 0 1.279.236 1.698.709.419.469.628 1.105.628 1.907 0 .805-.218 1.441-.655 1.907-.434.461-1.04.692-1.821.692-.691 0-1.255-.191-1.692-.574-.437-.383-.686-.913-.747-1.59h.94c.061.447.22.786.478 1.015.258.226.598.338 1.021.338.462 0 .823-.157 1.085-.472.265-.315.397-.75.397-1.305 0-.523-.143-.942-.43-1.257-.282-.319-.66-.478-1.133-.478-.433 0-.773.095-1.02.284l-.263.215-.795-.204ZM38.31 202.136c0-.373.132-.698.397-.978a1.3 1.3 0 0 1 .972-.419c.372 0 .69.14.95.419.266.276.398.602.398.978 0 .379-.132.703-.397.972a1.28 1.28 0 0 1-.951.403 1.32 1.32 0 0 1-.967-.403 1.326 1.326 0 0 1-.403-.972Zm1.369.687a.682.682 0 0 0 .489-.188.666.666 0 0 0 .199-.499.693.693 0 0 0-.2-.511.656.656 0 0 0-.488-.204.663.663 0 0 0-.5.215.701.701 0 0 0-.198.5c0 .193.066.356.198.489a.69.69 0 0 0 .5.198ZM48.495 206.186c-.096.827-.402 1.466-.918 1.917-.512.448-1.194.671-2.046.671-.924 0-1.665-.331-2.224-.993-.555-.663-.833-1.549-.833-2.659v-.752c0-.727.13-1.366.387-1.917.262-.552.63-.974 1.107-1.268.476-.297 1.027-.446 1.654-.446.83 0 1.497.233 1.998.699.501.461.793 1.102.876 1.922h-1.037c-.09-.623-.285-1.074-.586-1.353-.297-.279-.714-.419-1.251-.419-.659 0-1.176.243-1.552.73-.373.487-.559 1.18-.559 2.079v.757c0 .849.177 1.524.532 2.025.354.502.85.752 1.488.752.573 0 1.011-.129 1.316-.387.307-.261.512-.714.612-1.358h1.036ZM24.707 233.917h-2.621v-.812h2.621v.812ZM28.953 236.833h-1v-6.623l-2.003.736v-.902l2.847-1.069h.156v7.858ZM36.878 233.498c0 1.163-.199 2.028-.596 2.594-.398.566-1.02.848-1.864.848-.835 0-1.452-.275-1.853-.827-.401-.555-.609-1.382-.623-2.481v-1.327c0-1.149.198-2.003.596-2.562.397-.558 1.02-.838 1.869-.838.842 0 1.46.271 1.858.811.398.537.602 1.368.613 2.492v1.29Zm-.994-1.359c0-.842-.118-1.454-.354-1.837-.237-.387-.61-.58-1.123-.58-.508 0-.88.191-1.112.574-.233.384-.352.973-.36 1.767v1.59c0 .845.122 1.47.366 1.875.247.401.619.601 1.117.601.49 0 .854-.189 1.09-.569.24-.379.365-.977.376-1.794v-1.627ZM38.309 230.302c0-.373.133-.698.398-.978a1.3 1.3 0 0 1 .972-.419c.372 0 .689.14.95.419.265.276.398.602.398.978 0 .379-.133.703-.398.972a1.28 1.28 0 0 1-.95.403c-.376 0-.699-.135-.967-.403a1.326 1.326 0 0 1-.403-.972Zm1.37.687a.682.682 0 0 0 .488-.188.665.665 0 0 0 .2-.499.689.689 0 0 0-.2-.51.653.653 0 0 0-.488-.205.664.664 0 0 0-.5.215.701.701 0 0 0-.199.5c0 .193.067.356.2.489a.69.69 0 0 0 .499.198ZM48.495 234.352c-.096.827-.403 1.466-.918 1.917-.512.448-1.194.671-2.047.671-.924 0-1.665-.331-2.223-.993-.555-.663-.833-1.549-.833-2.659v-.752c0-.727.13-1.366.387-1.917.261-.552.63-.974 1.106-1.268.477-.297 1.028-.446 1.655-.446.83 0 1.496.233 1.998.699.501.461.793 1.102.875 1.922H47.46c-.09-.623-.285-1.074-.586-1.353-.297-.279-.714-.419-1.251-.419-.66 0-1.177.243-1.553.73-.372.487-.558 1.18-.558 2.079v.757c0 .849.177 1.524.531 2.025.355.502.851.752 1.488.752.573 0 1.012-.129 1.316-.387.308-.261.512-.714.613-1.358h1.036ZM21.87 262.083h-2.622v-.811h2.621v.811ZM26.115 265h-1v-6.623l-2.003.736v-.902l2.847-1.069h.156V265ZM29.593 261.079l.397-3.899h4.007v.918h-3.164l-.236 2.132a2.529 2.529 0 0 1 1.305-.338c.713 0 1.278.236 1.697.709.42.469.629 1.105.629 1.907 0 .805-.219 1.441-.656 1.907-.433.461-1.04.692-1.82.692-.691 0-1.255-.191-1.692-.574-.437-.383-.686-.913-.747-1.59h.94c.061.447.22.786.478 1.015.258.226.598.338 1.02.338.463 0 .824-.157 1.086-.472.265-.315.397-.75.397-1.305 0-.523-.143-.942-.43-1.257-.282-.319-.66-.478-1.133-.478-.433 0-.773.095-1.02.284l-.264.215-.794-.204ZM38.31 258.469c0-.373.132-.698.397-.978a1.3 1.3 0 0 1 .972-.419c.373 0 .69.14.95.419.266.276.398.602.398.978 0 .379-.132.703-.397.972a1.28 1.28 0 0 1-.95.403 1.32 1.32 0 0 1-.968-.403 1.326 1.326 0 0 1-.402-.972Zm1.37.687a.681.681 0 0 0 .488-.188.665.665 0 0 0 .199-.499.693.693 0 0 0-.199-.511.656.656 0 0 0-.489-.204.664.664 0 0 0-.5.215.702.702 0 0 0-.198.5c0 .193.066.356.199.489a.69.69 0 0 0 .5.198ZM48.496 262.519c-.097.827-.403 1.466-.919 1.917-.512.448-1.194.671-2.046.671-.924 0-1.665-.331-2.224-.993-.555-.663-.832-1.549-.832-2.659v-.752c0-.727.129-1.366.386-1.917.262-.552.63-.974 1.107-1.268.476-.297 1.028-.446 1.654-.446.831 0 1.497.233 1.998.699.502.461.793 1.102.876 1.922h-1.037c-.09-.623-.285-1.074-.585-1.353-.297-.279-.715-.419-1.252-.419-.659 0-1.176.243-1.552.73-.372.487-.559 1.18-.559 2.079v.757c0 .849.178 1.524.532 2.025.355.502.85.752 1.488.752.573 0 1.011-.129 1.316-.387.308-.261.512-.714.612-1.358h1.037Z" fill="#000" fill-opacity=".6"/><path d="M58 119.833h358v1H58v-1ZM58 147.667h358v1H58v-1ZM58 175.5h358v1H58v-1ZM58 203.333h358v1H58v-1ZM58 231.167h358v1H58v-1ZM58 259h358v1H58v-1Z" fill="#D9D9D9"/><path d="M72.625 260V93h1v167h-1ZM127.25 260V93h1v167h-1ZM181.875 260V93h1v167h-1ZM236.5 260V93h1v167h-1ZM291.125 260V93h1v167h-1ZM345.75 260V93h1v167h-1ZM400.375 260V93h1v167h-1Z" fill="#D9D9D9"/><path d="M56.813 276v-7.82h2.207c.68 0 1.282.15 1.805.451.522.301.925.729 1.208 1.284.287.555.432 1.192.435 1.912v.499c0 .738-.143 1.384-.43 1.939a2.98 2.98 0 0 1-1.219 1.278c-.526.298-1.14.45-1.842.457h-2.164Zm1.03-6.972v6.129h1.086c.795 0 1.412-.247 1.853-.741.444-.495.666-1.198.666-2.111v-.457c0-.888-.21-1.577-.629-2.068-.415-.494-1.006-.745-1.772-.752h-1.203ZM66.397 276.107c-.788 0-1.429-.257-1.923-.773-.494-.519-.741-1.212-.741-2.079v-.182c0-.577.11-1.091.328-1.542.222-.455.53-.809.923-1.063a2.323 2.323 0 0 1 1.29-.387c.755 0 1.342.249 1.761.747.42.497.629 1.21.629 2.137v.414h-3.937c.014.573.18 1.037.5 1.391.322.351.73.526 1.224.526.35 0 .648-.071.891-.214.244-.144.457-.333.64-.57l.606.473c-.486.748-1.217 1.122-2.19 1.122Zm-.123-5.21a1.32 1.32 0 0 0-1.01.441c-.272.29-.44.698-.505 1.224h2.911v-.075c-.029-.505-.165-.895-.408-1.171-.244-.279-.573-.419-.988-.419ZM72.26 275.296c.354 0 .664-.107.929-.322.265-.215.412-.483.44-.806h.94c-.018.333-.132.65-.344.951a2.258 2.258 0 0 1-.848.72c-.351.179-.724.268-1.117.268-.792 0-1.422-.263-1.891-.789-.466-.53-.698-1.253-.698-2.17v-.167c0-.565.103-1.068.311-1.509.208-.44.505-.782.892-1.026.39-.243.85-.365 1.38-.365.652 0 1.193.195 1.622.586.433.39.664.896.693 1.52h-.94a1.355 1.355 0 0 0-.43-.924 1.312 1.312 0 0 0-.945-.366c-.505 0-.897.183-1.176.548-.276.362-.414.887-.414 1.574v.188c0 .67.138 1.185.414 1.547.276.362.67.542 1.182.542ZM83.657 276h-5.124v-.714l2.707-3.008c.4-.455.677-.824.827-1.107.154-.286.23-.581.23-.886 0-.408-.123-.743-.37-1.004-.247-.262-.576-.392-.988-.392-.494 0-.879.141-1.155.424-.272.279-.408.67-.408 1.171h-.994c0-.72.231-1.302.693-1.746.466-.444 1.087-.666 1.864-.666.727 0 1.302.192 1.724.575.423.38.634.886.634 1.52 0 .77-.49 1.687-1.472 2.75l-2.094 2.272h3.926V276ZM89.944 276H84.82v-.714l2.707-3.008c.4-.455.676-.824.827-1.107.154-.286.23-.581.23-.886 0-.408-.123-.743-.37-1.004-.247-.262-.576-.392-.988-.392-.494 0-.88.141-1.155.424-.272.279-.408.67-.408 1.171h-.994c0-.72.231-1.302.693-1.746.466-.444 1.087-.666 1.864-.666.727 0 1.301.192 1.724.575.422.38.634.886.634 1.52 0 .77-.49 1.687-1.472 2.75l-2.095 2.272h3.927V276ZM111.438 276v-7.82h2.207c.68 0 1.282.15 1.805.451.522.301.925.729 1.208 1.284.287.555.432 1.192.435 1.912v.499c0 .738-.143 1.384-.429 1.939-.283.555-.69.981-1.22 1.278-.526.298-1.14.45-1.842.457h-2.164Zm1.031-6.972v6.129h1.085c.795 0 1.412-.247 1.853-.741.444-.495.666-1.198.666-2.111v-.457c0-.888-.21-1.577-.629-2.068-.415-.494-1.006-.745-1.772-.752h-1.203ZM121.022 276.107c-.788 0-1.429-.257-1.923-.773-.494-.519-.741-1.212-.741-2.079v-.182c0-.577.109-1.091.328-1.542.222-.455.53-.809.924-1.063a2.321 2.321 0 0 1 1.289-.387c.755 0 1.342.249 1.761.747.419.497.629 1.21.629 2.137v.414h-3.937c.014.573.181 1.037.499 1.391a1.59 1.59 0 0 0 1.225.526c.351 0 .648-.071.891-.214.244-.144.457-.333.64-.57l.607.473c-.487.748-1.218 1.122-2.192 1.122Zm-.123-5.21c-.401 0-.738.147-1.01.441-.272.29-.441.698-.505 1.224h2.911v-.075c-.029-.505-.165-.895-.408-1.171-.244-.279-.573-.419-.988-.419ZM126.885 275.296c.354 0 .664-.107.929-.322a1.13 1.13 0 0 0 .44-.806h.94c-.018.333-.132.65-.344.951a2.257 2.257 0 0 1-.848.72 2.427 2.427 0 0 1-1.117.268c-.792 0-1.422-.263-1.891-.789-.466-.53-.698-1.253-.698-2.17v-.167c0-.565.104-1.068.311-1.509.208-.44.505-.782.892-1.026.39-.243.85-.365 1.38-.365.652 0 1.193.195 1.622.586.434.39.664.896.693 1.52h-.94a1.351 1.351 0 0 0-.43-.924 1.31 1.31 0 0 0-.945-.366c-.505 0-.897.183-1.176.548-.276.362-.414.887-.414 1.574v.188c0 .67.138 1.185.414 1.547.276.362.67.542 1.182.542ZM138.282 276h-5.124v-.714l2.707-3.008c.401-.455.677-.824.827-1.107.154-.286.231-.581.231-.886 0-.408-.124-.743-.371-1.004-.247-.262-.576-.392-.988-.392-.494 0-.879.141-1.155.424-.272.279-.408.67-.408 1.171h-.994c0-.72.231-1.302.693-1.746.466-.444 1.087-.666 1.864-.666.727 0 1.302.192 1.724.575.423.38.634.886.634 1.52 0 .77-.491 1.687-1.472 2.75l-2.094 2.272h3.926V276ZM144.493 268.738 141.255 276h-1.042l3.228-7.004h-4.233v-.816h5.285v.558ZM172.825 268.18h1.037v5.538c0 .748-.226 1.334-.677 1.756-.448.423-1.046.634-1.794.634-.777 0-1.382-.199-1.815-.596-.434-.398-.65-.955-.65-1.671h1.031c0 .448.122.797.365 1.048.247.25.604.376 1.069.376.426 0 .77-.135 1.031-.403.265-.269.4-.645.403-1.128v-5.554ZM179.16 276c-.057-.114-.104-.318-.139-.612-.462.48-1.014.72-1.655.72-.573 0-1.043-.161-1.412-.483a1.586 1.586 0 0 1-.548-1.236c0-.605.229-1.074.687-1.407.462-.337 1.11-.505 1.945-.505h.967v-.456c0-.348-.104-.624-.312-.828-.208-.207-.514-.311-.918-.311-.355 0-.652.089-.892.268-.24.179-.36.396-.36.65h-.999c0-.29.102-.569.306-.838a2.12 2.12 0 0 1 .838-.644 2.832 2.832 0 0 1 1.166-.236c.669 0 1.194.168 1.573.504.38.333.577.794.591 1.381v2.675c0 .533.068.957.204 1.273V276h-1.042Zm-1.649-.757c.312 0 .607-.08.887-.242.279-.161.481-.37.607-.628v-1.192h-.779c-1.218 0-1.826.356-1.826 1.069 0 .311.103.555.311.73.208.175.475.263.8.263ZM182.606 270.189l.032.73c.444-.558 1.024-.837 1.74-.837 1.228 0 1.848.692 1.859 2.078V276h-.994v-3.845c-.004-.419-.1-.729-.29-.929-.186-.201-.478-.301-.876-.301a1.43 1.43 0 0 0-.848.258 1.75 1.75 0 0 0-.57.676V276h-.993v-5.811h.94ZM193.847 276h-.999v-6.622l-2.003.736v-.903l2.846-1.068h.156V276ZM227.45 268.179h1.037v5.538c0 .748-.226 1.334-.677 1.756-.448.423-1.046.634-1.794.634-.777 0-1.382-.199-1.815-.596-.434-.398-.65-.955-.65-1.671h1.031c0 .448.122.797.365 1.048.247.25.604.376 1.069.376.426 0 .77-.135 1.031-.403.265-.269.4-.645.403-1.128v-5.554ZM233.785 276c-.057-.115-.104-.319-.139-.613-.462.48-1.014.72-1.655.72-.573 0-1.043-.161-1.412-.483a1.586 1.586 0 0 1-.548-1.236c0-.605.229-1.074.687-1.407.462-.337 1.11-.505 1.945-.505h.967v-.456c0-.348-.104-.624-.312-.828-.208-.207-.514-.311-.918-.311-.355 0-.652.089-.892.268-.24.179-.36.396-.36.65h-.999c0-.29.102-.569.306-.838a2.12 2.12 0 0 1 .838-.644 2.832 2.832 0 0 1 1.166-.236c.669 0 1.194.168 1.573.504.38.333.577.794.591 1.381v2.675c0 .533.068.957.204 1.273V276h-1.042Zm-1.649-.758c.312 0 .607-.08.887-.242.279-.161.481-.37.607-.628v-1.192h-.779c-1.218 0-1.826.356-1.826 1.069 0 .311.103.555.311.73.208.175.475.263.8.263ZM237.231 270.188l.032.73c.444-.558 1.024-.837 1.74-.837 1.228 0 1.848.692 1.859 2.078V276h-.994v-3.846c-.004-.419-.1-.729-.29-.929-.186-.201-.478-.301-.876-.301a1.43 1.43 0 0 0-.848.258 1.757 1.757 0 0 0-.57.676V276h-.993v-5.812h.94ZM249.106 268.174v.843h-.183c-.773.014-1.389.244-1.847.688-.459.444-.724 1.068-.795 1.874.412-.473.974-.709 1.686-.709.681 0 1.223.24 1.628.72.408.48.612 1.099.612 1.858 0 .806-.22 1.45-.661 1.934-.436.483-1.024.725-1.761.725-.749 0-1.356-.287-1.821-.859-.466-.577-.698-1.318-.698-2.224v-.381c0-1.44.306-2.539.918-3.298.616-.763 1.531-1.153 2.745-1.171h.177Zm-1.305 3.523c-.34 0-.654.102-.94.306a1.6 1.6 0 0 0-.596.768v.366c0 .644.145 1.163.435 1.557.29.394.651.591 1.085.591.447 0 .798-.165 1.052-.494.258-.329.387-.761.387-1.294 0-.538-.131-.971-.392-1.3a1.238 1.238 0 0 0-1.031-.5ZM278.933 268.18h1.036v5.538c0 .748-.225 1.334-.677 1.756-.447.423-1.045.634-1.793.634-.777 0-1.383-.199-1.816-.596-.433-.398-.65-.955-.65-1.671h1.031c0 .448.122.797.366 1.048.247.25.603.376 1.069.376.426 0 .769-.135 1.031-.403.265-.269.399-.645.403-1.128v-5.554ZM285.268 276c-.058-.114-.104-.318-.14-.612-.462.48-1.013.72-1.654.72-.573 0-1.044-.161-1.413-.483a1.586 1.586 0 0 1-.548-1.236c0-.605.229-1.074.688-1.407.462-.337 1.11-.505 1.944-.505h.967v-.456c0-.348-.104-.624-.312-.828-.207-.207-.513-.311-.918-.311-.355 0-.652.089-.892.268-.24.179-.359.396-.359.65h-1c0-.29.103-.569.307-.838.207-.272.487-.487.838-.644a2.828 2.828 0 0 1 1.165-.236c.67 0 1.194.168 1.574.504.379.333.576.794.591 1.381v2.675c0 .533.068.957.204 1.273V276h-1.042Zm-1.649-.757c.311 0 .607-.08.886-.242a1.46 1.46 0 0 0 .607-.628v-1.192h-.779c-1.217 0-1.826.356-1.826 1.069 0 .311.104.555.311.73.208.175.475.263.801.263ZM288.713 270.189l.032.73c.444-.558 1.024-.837 1.741-.837 1.228 0 1.847.692 1.858 2.078V276h-.994v-3.845c-.003-.419-.1-.729-.29-.929-.186-.201-.478-.301-.875-.301-.322 0-.605.086-.849.258a1.747 1.747 0 0 0-.569.676V276h-.994v-5.811h.94ZM299.955 276h-.999v-6.622l-2.004.736v-.903l2.847-1.068h.156V276ZM306.241 276h-.999v-6.622l-2.003.736v-.903l2.847-1.068h.155V276ZM333.558 268.18h1.036v5.538c0 .748-.225 1.334-.677 1.756-.447.423-1.045.634-1.793.634-.777 0-1.383-.199-1.816-.596-.433-.398-.65-.955-.65-1.671h1.031c0 .448.122.797.366 1.048.247.25.603.376 1.069.376.426 0 .769-.135 1.031-.403.265-.269.399-.645.403-1.128v-5.554ZM339.893 276c-.058-.114-.104-.318-.14-.612-.462.48-1.013.72-1.654.72-.573 0-1.044-.161-1.413-.483a1.586 1.586 0 0 1-.548-1.236c0-.605.229-1.074.688-1.407.462-.337 1.11-.505 1.944-.505h.967v-.456c0-.348-.104-.624-.312-.828-.207-.207-.513-.311-.918-.311-.355 0-.652.089-.892.268-.24.179-.359.396-.359.65h-1c0-.29.103-.569.307-.838.207-.272.487-.487.838-.644a2.828 2.828 0 0 1 1.165-.236c.67 0 1.194.168 1.574.504.379.333.576.794.591 1.381v2.675c0 .533.068.957.204 1.273V276h-1.042Zm-1.649-.757c.311 0 .607-.08.886-.242a1.46 1.46 0 0 0 .607-.628v-1.192h-.779c-1.217 0-1.826.356-1.826 1.069 0 .311.104.555.311.73.208.175.475.263.801.263ZM343.338 270.189l.032.73c.444-.558 1.024-.837 1.741-.837 1.228 0 1.847.692 1.858 2.078V276h-.994v-3.845c-.003-.419-.1-.729-.29-.929-.186-.201-.478-.301-.875-.301-.322 0-.605.086-.849.258a1.747 1.747 0 0 0-.569.676V276h-.994v-5.811h.94ZM354.58 276h-.999v-6.622l-2.004.736v-.903l2.847-1.068h.156V276ZM361.5 268.175v.843h-.182c-.774.014-1.39.244-1.848.688-.458.444-.723 1.068-.795 1.874.412-.473.974-.709 1.687-.709.68 0 1.222.24 1.627.72.408.48.612 1.099.612 1.858 0 .806-.22 1.45-.66 1.934-.437.483-1.024.725-1.762.725-.748 0-1.355-.287-1.821-.859-.465-.577-.698-1.318-.698-2.224v-.381c0-1.44.306-2.539.918-3.298.616-.763 1.531-1.153 2.745-1.171h.177Zm-1.305 3.523c-.34 0-.653.102-.94.306a1.601 1.601 0 0 0-.596.768v.366c0 .644.145 1.163.435 1.557.29.394.652.591 1.085.591.447 0 .798-.165 1.053-.494.257-.329.386-.761.386-1.294 0-.538-.13-.971-.392-1.3a1.238 1.238 0 0 0-1.031-.5ZM388.183 268.18h1.036v5.537c0 .749-.225 1.334-.677 1.757-.447.422-1.045.633-1.793.633-.777 0-1.383-.198-1.816-.596-.433-.397-.65-.954-.65-1.67h1.031c0 .447.122.797.366 1.047.247.251.603.376 1.069.376.426 0 .769-.134 1.031-.403.265-.268.399-.644.403-1.128v-5.553ZM394.518 276c-.058-.115-.104-.319-.14-.612-.462.48-1.013.719-1.654.719-.573 0-1.044-.161-1.413-.483a1.586 1.586 0 0 1-.548-1.235c0-.605.229-1.075.688-1.408.462-.336 1.11-.504 1.944-.504h.967v-.457c0-.347-.104-.623-.312-.827-.207-.208-.513-.312-.918-.312-.355 0-.652.09-.892.269-.24.179-.359.396-.359.65h-1c0-.29.103-.57.307-.838.207-.272.487-.487.838-.645a2.844 2.844 0 0 1 1.165-.236c.67 0 1.194.168 1.574.505.379.333.576.793.591 1.38v2.675c0 .534.068.958.204 1.273V276h-1.042Zm-1.649-.757c.311 0 .607-.081.886-.242.279-.161.482-.371.607-.628v-1.193h-.779c-1.217 0-1.826.356-1.826 1.069 0 .312.104.555.311.73.208.176.475.264.801.264ZM397.963 270.188l.032.731c.444-.559 1.024-.838 1.741-.838 1.228 0 1.847.693 1.858 2.079V276h-.994v-3.846c-.003-.419-.1-.728-.29-.929-.186-.2-.478-.301-.875-.301-.322 0-.605.086-.849.258a1.757 1.757 0 0 0-.569.677V276h-.994v-5.812h.94ZM411.063 276h-5.124v-.714l2.707-3.008c.401-.455.677-.824.827-1.107.154-.286.231-.581.231-.886 0-.408-.123-.743-.37-1.004-.248-.262-.577-.392-.989-.392-.494 0-.879.141-1.155.424-.272.279-.408.67-.408 1.171h-.993c0-.72.231-1.302.693-1.746.465-.444 1.086-.666 1.863-.666.727 0 1.302.192 1.724.575.423.38.634.886.634 1.52 0 .77-.49 1.687-1.471 2.75l-2.095 2.272h3.926V276ZM415.491 276h-.999v-6.623l-2.003.736v-.902l2.847-1.069h.155V276Z" fill="#000" fill-opacity=".6"/><mask id="a" mask-type="alpha" maskUnits="userSpaceOnUse" x="58" y="93" width="358" height="167"><path d="M58 93h358v167H58V93Z" fill="#C4C4C4"/></mask><g mask="url(#a)"><path fill-rule="evenodd" clip-rule="evenodd" d="M181.542 129h55.421l54.8 64.339 53.906 28.487 54.646-39.503 55.185 31.811-.999 1.732-54.064-31.164-54.604 39.472-55.344-29.246L236.039 131H182.21l-54.766 41.228-54.446-16.829-54.202 71.207-1.59-1.212 55.047-72.319 54.805 16.94L181.542 129Z" fill="#2F80EC"/><path d="M77 154.5a3.5 3.5 0 1 1-7 0 3.5 3.5 0 0 1 7 0ZM131 170.5a3.5 3.5 0 1 1-7 0 3.5 3.5 0 0 1 7 0ZM186 130a3.5 3.5 0 1 1-7 0 3.5 3.5 0 0 1 7 0ZM240 130a3.5 3.5 0 1 1-7 0 3.5 3.5 0 0 1 7 0ZM295 194a3.5 3.5 0 1 1-7 0 3.5 3.5 0 0 1 7 0ZM350 223a3.5 3.5 0 1 1-7 0 3.5 3.5 0 0 1 7 0ZM404 184a3.5 3.5 0 1 1-7 0 3.5 3.5 0 0 1 7 0Z" fill="#2F80EC"/><path fill-rule="evenodd" clip-rule="evenodd" d="m17.137 160.505 1.726-1.01 54.033 92.313 54.246-44.55 54.433 30.429 54.4-77.37 55.29-.773 54.494 16.442 55.03-15.504 55.032 79.174-1.642 1.141-54.219-78.004-54.22 15.276-54.756-16.521-53.96.755-54.85 78.01-54.817-30.644-55.003 45.172-55.217-94.336Z" fill="#305680"/><path d="M77 252.5a3.5 3.5 0 1 1-7 0 3.5 3.5 0 0 1 7 0ZM130.834 209.5a3.5 3.5 0 1 1-7 0 3.5 3.5 0 0 1 7 0ZM185.664 238.5a3.5 3.5 0 1 1-7 0 3.5 3.5 0 0 1 7 0ZM240.498 161.5a3.5 3.5 0 1 1-7 0 3.5 3.5 0 0 1 7 0ZM295.33 160.5a3.5 3.5 0 1 1-7 0 3.5 3.5 0 0 1 7 0ZM350.164 176.5a3.5 3.5 0 1 1-7 0 3.5 3.5 0 0 1 7 0ZM404.994 162.5a3.5 3.5 0 1 1-7 0 3.5 3.5 0 0 1 7 0Z" fill="#305680"/><path opacity=".1" d="m345.966 223-55.016-29.171L275 175h181v39.916l-55.017-31.819L345.966 223ZM126.863 171.573l-54.66-17.069L56 176h219l-38.815-46h-54.661l-54.661 41.573Z" fill="#2F80EC"/></g><path stroke="#000" stroke-opacity=".87" d="M57.5 92.5h359v168h-359z"/></svg>