<svg xmlns="http://www.w3.org/2000/svg" width="668" height="263" fill="none"><g filter="url(#a)"><g clip-path="url(#b)"><rect width="668" height="263" fill="#fff" rx="8"/><path fill="#000" fill-opacity=".87" d="M31.14 34.07a1.67 1.67 0 0 0-.109-.625 1.22 1.22 0 0 0-.367-.5c-.177-.15-.427-.297-.75-.437a9.958 9.958 0 0 0-1.219-.446 13.517 13.517 0 0 1-1.5-.554 5.71 5.71 0 0 1-1.187-.719 3.074 3.074 0 0 1-.79-.945 2.646 2.646 0 0 1-.28-1.242c0-.464.096-.886.289-1.266.197-.38.476-.708.835-.984a4 4 0 0 1 1.29-.649 5.43 5.43 0 0 1 1.64-.234c.844 0 1.57.156 2.18.468.614.313 1.086.732 1.414 1.258.333.526.5 1.107.5 1.742H31.14c0-.375-.081-.705-.243-.992a1.642 1.642 0 0 0-.718-.687c-.318-.167-.722-.25-1.211-.25-.464 0-.85.07-1.157.21-.307.141-.536.331-.687.571-.151.24-.227.51-.227.813 0 .213.05.408.149.585.099.172.25.334.453.485.203.146.458.284.766.414.307.13.669.255 1.086.375.63.187 1.18.396 1.648.625.469.224.86.48 1.172.766.312.286.547.612.703.976.156.36.234.768.234 1.227 0 .479-.096.911-.289 1.297-.192.38-.468.705-.828.976a3.961 3.961 0 0 1-1.281.617c-.495.14-1.047.211-1.656.211a6.084 6.084 0 0 1-1.617-.218A4.769 4.769 0 0 1 26 36.273a3.43 3.43 0 0 1-1.031-1.125c-.256-.453-.383-.981-.383-1.586h1.96c0 .37.063.685.188.946.13.26.31.474.54.64.229.162.494.282.796.36.308.078.636.117.985.117.458 0 .84-.065 1.148-.195.313-.13.547-.313.703-.547a1.43 1.43 0 0 0 .235-.813Zm5.782-5.523V37h-1.89v-8.453h1.89Zm-2.016-2.219c0-.286.094-.523.282-.71.192-.194.458-.29.796-.29.334 0 .597.096.79.29a.95.95 0 0 1 .288.71.94.94 0 0 1-.289.703c-.192.188-.455.282-.789.282-.338 0-.604-.094-.797-.282a.954.954 0 0 1-.28-.703ZM41.25 25v12h-1.89V25h1.89Zm1.953 7.867v-.18c0-.609.089-1.174.266-1.695.177-.526.432-.982.765-1.367.339-.39.75-.693 1.235-.906.49-.219 1.041-.328 1.656-.328.62 0 1.172.109 1.656.328.49.213.904.515 1.242.906.339.385.597.841.774 1.367.177.521.266 1.086.266 1.695v.18c0 .61-.089 1.175-.266 1.696-.177.52-.435.976-.774 1.367-.338.385-.75.687-1.234.906-.484.214-1.034.32-1.648.32-.62 0-1.175-.106-1.664-.32a3.582 3.582 0 0 1-1.235-.906 4.054 4.054 0 0 1-.773-1.367 5.234 5.234 0 0 1-.266-1.696Zm1.883-.18v.18c0 .38.039.74.117 1.078.078.339.2.636.367.89.167.256.38.457.64.602.261.146.571.22.93.22.35 0 .652-.074.907-.22.26-.145.474-.346.64-.601.167-.255.29-.552.368-.89a4.5 4.5 0 0 0 .125-1.079v-.18c0-.374-.042-.729-.125-1.062a2.728 2.728 0 0 0-.375-.898 1.792 1.792 0 0 0-.64-.61 1.762 1.762 0 0 0-.915-.226c-.354 0-.661.075-.922.226a1.813 1.813 0 0 0-.633.61c-.166.26-.289.56-.367.898a4.646 4.646 0 0 0-.117 1.063Zm12.547 2.024a.944.944 0 0 0-.14-.508c-.095-.156-.274-.297-.54-.422-.26-.125-.646-.24-1.156-.343a9.969 9.969 0 0 1-1.234-.352c-.37-.14-.688-.31-.954-.508a2.137 2.137 0 0 1-.617-.703 1.947 1.947 0 0 1-.219-.938c0-.343.076-.669.227-.976.151-.307.367-.578.648-.813.282-.234.623-.419 1.024-.554a4.28 4.28 0 0 1 1.36-.203c.708 0 1.314.12 1.82.359.51.234.9.555 1.171.96.271.402.407.855.407 1.36h-1.883c0-.224-.057-.432-.172-.625a1.196 1.196 0 0 0-.5-.476c-.224-.125-.505-.188-.844-.188-.323 0-.59.052-.804.157-.209.099-.365.229-.47.39a.998.998 0 0 0-.148.531c0 .141.026.269.078.383a.9.9 0 0 0 .282.305c.13.088.307.172.531.25.23.078.516.154.86.226.645.136 1.2.31 1.663.524.47.208.829.479 1.079.812.25.328.375.745.375 1.25 0 .375-.081.72-.243 1.032a2.34 2.34 0 0 1-.687.804 3.452 3.452 0 0 1-1.086.524 4.888 4.888 0 0 1-1.406.187c-.766 0-1.414-.135-1.946-.406-.53-.276-.934-.628-1.21-1.055a2.497 2.497 0 0 1-.407-1.343h1.82c.021.349.118.627.29.836.177.203.395.351.656.445.265.088.539.133.82.133.339 0 .622-.045.852-.133.229-.094.403-.219.523-.375a.895.895 0 0 0 .18-.547Zm10.273.414 1.953-6.578h1.204l-.329 1.969L68.766 37h-1.079l.22-1.875Zm-1.148-6.578 1.523 6.61.125 1.843h-1.203l-2.289-8.453h1.844Zm6.133 6.531 1.476-6.531h1.836L73.922 37h-1.203l.172-1.922Zm-1.625-6.531 1.93 6.5.242 1.953h-1.079l-1.992-6.492-.328-1.961h1.227Zm10.195 8.61c-.625 0-1.19-.102-1.695-.305a3.743 3.743 0 0 1-1.282-.868 3.844 3.844 0 0 1-.804-1.304 4.569 4.569 0 0 1-.282-1.617v-.313c0-.661.097-1.26.29-1.797.192-.536.46-.995.804-1.375.344-.385.75-.68 1.219-.883a3.79 3.79 0 0 1 1.523-.304c.605 0 1.133.101 1.586.304.453.203.828.49 1.125.86.302.364.526.8.672 1.304.151.506.227 1.063.227 1.672v.805h-6.531v-1.352h4.671v-.148a2.644 2.644 0 0 0-.203-.953 1.619 1.619 0 0 0-.554-.719c-.25-.182-.584-.273-1-.273-.313 0-.592.067-.836.203-.24.13-.44.32-.602.57a3 3 0 0 0-.375.906 5.09 5.09 0 0 0-.125 1.18v.313c0 .37.05.713.148 1.03.105.313.256.587.454.821.197.234.437.42.718.555.282.13.602.195.961.195.453 0 .857-.091 1.211-.273.354-.183.662-.44.922-.774l.992.961c-.182.266-.419.521-.71.766-.292.24-.65.435-1.07.586-.418.15-.902.226-1.454.226Zm7.117-8.61V37h-1.89v-8.453h1.89Zm-2.016-2.219c0-.286.094-.523.282-.71.193-.194.458-.29.797-.29.333 0 .596.096.789.29a.95.95 0 0 1 .289.71.94.94 0 0 1-.29.703c-.192.188-.455.282-.788.282-.339 0-.605-.094-.797-.282a.953.953 0 0 1-.281-.703Zm9.743 2.219h1.71v8.219c0 .76-.16 1.406-.484 1.937a3.113 3.113 0 0 1-1.351 1.211c-.578.281-1.248.422-2.008.422-.323 0-.682-.047-1.078-.14a4.417 4.417 0 0 1-1.14-.454 2.828 2.828 0 0 1-.915-.804l.883-1.11c.302.36.635.622 1 .79.365.166.747.25 1.148.25.433 0 .8-.082 1.102-.243.307-.156.544-.388.71-.695.167-.308.25-.683.25-1.125V30.46l.173-1.914Zm-5.743 4.32v-.164c0-.64.079-1.224.235-1.75a4.14 4.14 0 0 1 .672-1.367 2.93 2.93 0 0 1 1.062-.883 3.12 3.12 0 0 1 1.414-.312c.547 0 1.013.099 1.399.297.39.197.716.481.976.851.26.365.464.802.61 1.313.15.505.263 1.067.336 1.687v.523a8.457 8.457 0 0 1-.344 1.657c-.162.5-.375.932-.64 1.297a2.734 2.734 0 0 1-.985.843c-.385.198-.841.297-1.367.297a3.02 3.02 0 0 1-1.399-.32 3.182 3.182 0 0 1-1.062-.898 4.253 4.253 0 0 1-.672-1.36 5.983 5.983 0 0 1-.234-1.71Zm1.883-.164v.164c0 .386.037.745.11 1.078.078.334.195.628.351.883.162.25.365.448.61.594.25.14.544.21.882.21.443 0 .805-.093 1.086-.28a1.82 1.82 0 0 0 .657-.758c.156-.323.265-.683.328-1.078v-1.414a3.453 3.453 0 0 0-.196-.86 2.297 2.297 0 0 0-.382-.695 1.598 1.598 0 0 0-.61-.469 2.028 2.028 0 0 0-.867-.172c-.338 0-.633.073-.883.219-.25.146-.456.346-.617.602a2.972 2.972 0 0 0-.352.89c-.078.339-.117.7-.117 1.086ZM102.078 25v12h-1.875V25h1.875Zm-.328 7.46-.609-.007a5.513 5.513 0 0 1 .242-1.617c.161-.495.385-.924.672-1.29.291-.369.64-.653 1.047-.85a2.976 2.976 0 0 1 1.351-.305c.417 0 .792.057 1.125.172.339.114.63.299.875.554.245.25.43.578.555.985.13.4.195.89.195 1.468V37h-1.891v-5.445c0-.407-.059-.73-.179-.97a1.044 1.044 0 0 0-.508-.515c-.224-.11-.497-.164-.82-.164-.339 0-.638.068-.899.203-.255.136-.468.32-.64.555a2.564 2.564 0 0 0-.391.813 3.761 3.761 0 0 0-.125.984Zm11.484-3.913v1.375h-4.765v-1.375h4.765Zm-3.39-2.07h1.883v8.187c0 .26.036.461.109.602a.585.585 0 0 0 .32.273c.136.047.295.07.477.07.13 0 .255-.007.375-.023a3.75 3.75 0 0 0 .289-.047l.008 1.438a4.888 4.888 0 0 1-.547.125 4.025 4.025 0 0 1-.703.054c-.433 0-.815-.075-1.149-.226a1.69 1.69 0 0 1-.781-.758c-.187-.35-.281-.813-.281-1.39v-8.305Zm9.836 8.234a.942.942 0 0 0-.141-.508c-.094-.156-.273-.297-.539-.422-.26-.125-.646-.24-1.156-.343a9.974 9.974 0 0 1-1.235-.352 3.937 3.937 0 0 1-.953-.508 2.146 2.146 0 0 1-.617-.703 1.945 1.945 0 0 1-.219-.938c0-.343.076-.669.227-.976.151-.307.367-.578.648-.813a3.17 3.17 0 0 1 1.024-.554 4.276 4.276 0 0 1 1.359-.203c.708 0 1.315.12 1.82.359.511.234.901.555 1.172.96.271.402.407.855.407 1.36h-1.883c0-.224-.058-.432-.172-.625a1.2 1.2 0 0 0-.5-.476c-.224-.125-.505-.188-.844-.188-.323 0-.591.052-.805.157a1.1 1.1 0 0 0-.468.39.998.998 0 0 0-.149.531c0 .141.026.269.078.383.058.11.151.211.282.305.13.088.307.172.531.25a7.6 7.6 0 0 0 .859.226c.646.136 1.201.31 1.664.524.469.208.828.479 1.078.812.25.328.375.745.375 1.25 0 .375-.08.72-.242 1.032a2.336 2.336 0 0 1-.687.804 3.45 3.45 0 0 1-1.086.524 4.893 4.893 0 0 1-1.406.187c-.766 0-1.414-.135-1.946-.406-.531-.276-.935-.628-1.211-1.055a2.495 2.495 0 0 1-.406-1.343h1.82c.021.349.118.627.289.836.178.203.396.351.657.445.265.088.539.133.82.133.339 0 .622-.045.852-.133.229-.094.403-.219.523-.375a.894.894 0 0 0 .18-.547Z"/><path stroke="#CFCFCF" stroke-width=".953" d="M107.625 238.07V59.93M176.875 238.07V59.93M246.125 238.07V59.93M315.375 238.07V59.93M384.625 238.07V59.93M453.875 238.07V59.93M523.125 237.356V60.644M592.375 237.713V60.287M61 59h582M61 117.667h582M61 176.333h582"/><path stroke="#757575" stroke-width=".953" d="M61 234.515V59.232M642.556 234.789V59.506M57 234.524l585.556-.211M57 59l587 .506"/><g clip-path="url(#c)"><path fill="#000" fill-opacity=".54" d="M97.584 246.293V247h-4.433v-.619l2.22-2.47c.272-.303.483-.561.632-.772a2.4 2.4 0 0 0 .316-.572c.062-.17.093-.344.093-.521 0-.223-.046-.425-.14-.605a1.053 1.053 0 0 0-.4-.437 1.209 1.209 0 0 0-.641-.163c-.301 0-.552.059-.754.177a1.089 1.089 0 0 0-.446.484c-.1.208-.15.446-.15.716h-.86c0-.381.084-.73.251-1.046.168-.317.416-.568.745-.754.328-.189.733-.284 1.214-.284.428 0 .794.076 1.098.228.303.149.536.36.697.633.165.27.247.586.247.949 0 .198-.034.4-.103.605a3.06 3.06 0 0 1-.274.604c-.115.202-.25.4-.405.596a9.342 9.342 0 0 1-.488.576l-1.814 1.968h3.395Zm5.626 0V247h-4.432v-.619l2.218-2.47c.273-.303.484-.561.633-.772.152-.214.257-.404.316-.572.062-.17.093-.344.093-.521a1.3 1.3 0 0 0-.139-.605 1.059 1.059 0 0 0-.4-.437 1.21 1.21 0 0 0-.642-.163c-.301 0-.552.059-.754.177a1.09 1.09 0 0 0-.446.484c-.1.208-.15.446-.15.716h-.86c0-.381.084-.73.251-1.046.168-.317.416-.568.745-.754.328-.189.733-.284 1.214-.284.428 0 .794.076 1.097.228.304.149.537.36.698.633.165.27.247.586.247.949 0 .198-.034.4-.103.605a3.045 3.045 0 0 1-.274.604c-.115.202-.25.4-.405.596a9.196 9.196 0 0 1-.488.576l-1.814 1.968h3.395Zm5.875.707h-1.414l.01-.73h1.404c.484 0 .887-.101 1.21-.303.322-.204.564-.49.725-.856.165-.369.247-.8.247-1.293v-.414c0-.387-.047-.731-.14-1.032a2.09 2.09 0 0 0-.409-.768c-.18-.211-.4-.37-.661-.479a2.276 2.276 0 0 0-.888-.163h-1.526v-.735h1.526c.443 0 .848.075 1.214.224.366.145.681.358.944.637.267.276.472.611.614 1.005.143.39.214.831.214 1.321v.404c0 .49-.071.932-.214 1.326a2.696 2.696 0 0 1-1.586 1.637 3.477 3.477 0 0 1-1.27.219Zm-.935-6.773V247h-.897v-6.773h.897Zm7.58 6.866c-.35 0-.668-.059-.954-.177a2.168 2.168 0 0 1-.73-.507 2.267 2.267 0 0 1-.465-.772 2.821 2.821 0 0 1-.163-.977v-.195c0-.409.061-.774.182-1.093.121-.323.285-.596.493-.819.207-.223.443-.392.707-.507.263-.115.536-.172.818-.172.36 0 .67.062.931.186.263.124.479.298.646.521.168.22.292.481.372.782.081.297.121.623.121.976v.386h-3.758v-.702h2.898v-.065a2.155 2.155 0 0 0-.14-.651 1.16 1.16 0 0 0-.372-.521c-.171-.137-.403-.205-.698-.205a1.166 1.166 0 0 0-.963.488 1.856 1.856 0 0 0-.274.591 3.002 3.002 0 0 0-.098.805v.195c0 .239.033.464.098.675.068.208.166.39.293.549.13.158.287.282.47.372.186.09.397.135.632.135.304 0 .562-.062.773-.186.21-.124.395-.29.553-.498l.521.414a2.388 2.388 0 0 1-.414.47 1.967 1.967 0 0 1-.619.362c-.241.094-.528.14-.86.14Zm5.245-.707c.204 0 .393-.042.567-.126a1.16 1.16 0 0 0 .428-.344.96.96 0 0 0 .191-.507h.818a1.533 1.533 0 0 1-.302.833 2.082 2.082 0 0 1-1.702.851 2.3 2.3 0 0 1-.991-.2 1.957 1.957 0 0 1-.698-.549 2.443 2.443 0 0 1-.414-.8 3.375 3.375 0 0 1-.135-.963v-.195c0-.338.045-.658.135-.958.093-.304.231-.572.414-.805.186-.233.419-.416.698-.549a2.3 2.3 0 0 1 .991-.2c.393 0 .738.081 1.032.242.295.158.526.375.693.651.171.273.264.583.279.93h-.818a1.248 1.248 0 0 0-.177-.562 1.098 1.098 0 0 0-.409-.4 1.14 1.14 0 0 0-.6-.154c-.264 0-.486.053-.666.158a1.18 1.18 0 0 0-.423.419 1.95 1.95 0 0 0-.223.581 3.163 3.163 0 0 0-.065.647v.195c0 .22.021.437.065.651.043.214.116.408.218.582.106.174.247.313.424.419.18.102.403.153.67.153Z"/></g><g clip-path="url(#d)"><path fill="#000" fill-opacity=".54" d="M167.459 246.293V247h-4.432v-.619l2.218-2.47c.273-.303.484-.561.633-.772.152-.214.257-.404.316-.572.062-.17.093-.344.093-.521a1.3 1.3 0 0 0-.139-.605 1.059 1.059 0 0 0-.4-.437 1.21 1.21 0 0 0-.642-.163c-.301 0-.552.059-.754.177a1.089 1.089 0 0 0-.446.484c-.1.208-.149.446-.149.716h-.861c0-.381.084-.73.251-1.046.168-.317.416-.568.745-.754.328-.189.733-.284 1.214-.284.428 0 .794.076 1.097.228.304.149.537.36.698.633.165.27.247.586.247.949 0 .198-.034.4-.103.605a3.045 3.045 0 0 1-.274.604c-.115.202-.25.4-.405.596a9.196 9.196 0 0 1-.488.576l-1.814 1.968h3.395Zm5.566-6.066v.484L170.22 247h-.907l2.8-6.066h-3.665v-.707h4.577ZM178.96 247h-1.414l.01-.73h1.404c.484 0 .887-.101 1.21-.303.322-.204.564-.49.725-.856.165-.369.247-.8.247-1.293v-.414c0-.387-.047-.731-.14-1.032a2.09 2.09 0 0 0-.409-.768c-.18-.211-.4-.37-.661-.479a2.276 2.276 0 0 0-.888-.163h-1.526v-.735h1.526c.443 0 .848.075 1.214.224.366.145.681.358.944.637.267.276.472.611.614 1.005.143.39.214.831.214 1.321v.404c0 .49-.071.932-.214 1.326a2.696 2.696 0 0 1-1.586 1.637 3.477 3.477 0 0 1-1.27.219Zm-.935-6.773V247h-.897v-6.773h.897Zm7.58 6.866c-.35 0-.668-.059-.954-.177a2.168 2.168 0 0 1-.73-.507 2.267 2.267 0 0 1-.465-.772 2.821 2.821 0 0 1-.163-.977v-.195c0-.409.061-.774.182-1.093.121-.323.285-.596.493-.819.207-.223.443-.392.707-.507.263-.115.536-.172.818-.172.36 0 .67.062.931.186.263.124.479.298.646.521.168.22.292.481.372.782.081.297.121.623.121.976v.386h-3.758v-.702h2.898v-.065a2.155 2.155 0 0 0-.14-.651 1.16 1.16 0 0 0-.372-.521c-.171-.137-.403-.205-.698-.205a1.166 1.166 0 0 0-.963.488 1.856 1.856 0 0 0-.274.591 3.002 3.002 0 0 0-.098.805v.195c0 .239.033.464.098.675.068.208.166.39.293.549.13.158.287.282.47.372.186.09.397.135.632.135.304 0 .562-.062.773-.186.21-.124.395-.29.553-.498l.521.414a2.388 2.388 0 0 1-.414.47 1.967 1.967 0 0 1-.619.362c-.241.094-.528.14-.86.14Zm5.245-.707c.204 0 .393-.042.567-.126a1.16 1.16 0 0 0 .428-.344.96.96 0 0 0 .191-.507h.818a1.533 1.533 0 0 1-.302.833 2.082 2.082 0 0 1-1.702.851 2.3 2.3 0 0 1-.991-.2 1.957 1.957 0 0 1-.698-.549 2.443 2.443 0 0 1-.414-.8 3.375 3.375 0 0 1-.135-.963v-.195c0-.338.045-.658.135-.958.093-.304.231-.572.414-.805.186-.233.419-.416.698-.549a2.3 2.3 0 0 1 .991-.2c.393 0 .738.081 1.032.242.295.158.526.375.693.651.171.273.264.583.279.93h-.818a1.248 1.248 0 0 0-.177-.562 1.098 1.098 0 0 0-.409-.4 1.14 1.14 0 0 0-.6-.154c-.264 0-.486.053-.666.158a1.18 1.18 0 0 0-.423.419 1.95 1.95 0 0 0-.223.581 3.163 3.163 0 0 0-.065.647v.195c0 .22.021.437.065.651.043.214.116.408.218.582.106.174.247.313.424.419.18.102.403.153.67.153Z"/></g><g clip-path="url(#e)"><path fill="#000" fill-opacity=".54" d="M237.441 243.074v1.033c0 .555-.049 1.023-.148 1.405-.1.381-.242.688-.428.921a1.637 1.637 0 0 1-.675.507c-.26.102-.555.153-.884.153-.26 0-.5-.033-.721-.098a1.72 1.72 0 0 1-.595-.311 1.885 1.885 0 0 1-.447-.568 3.04 3.04 0 0 1-.283-.846 6.114 6.114 0 0 1-.098-1.163v-1.033c0-.555.05-1.02.149-1.395.102-.376.246-.676.432-.903a1.58 1.58 0 0 1 .67-.493c.264-.099.558-.149.884-.149.264 0 .505.033.726.098.223.062.421.163.595.302.174.137.321.32.442.549.124.227.219.504.284.833.065.329.097.715.097 1.158Zm-.865 1.172v-1.316c0-.304-.018-.571-.056-.8a2.507 2.507 0 0 0-.153-.595 1.172 1.172 0 0 0-.261-.401.922.922 0 0 0-.358-.223 1.3 1.3 0 0 0-.451-.074c-.205 0-.386.039-.544.116a.975.975 0 0 0-.4.358c-.106.165-.186.38-.242.647a4.808 4.808 0 0 0-.084.972v1.316c0 .304.017.572.051.805.038.233.092.434.163.605.071.167.158.305.261.414.102.108.22.189.353.242.137.049.287.074.451.074a1.2 1.2 0 0 0 .554-.121.995.995 0 0 0 .395-.377 1.95 1.95 0 0 0 .242-.665c.053-.273.079-.598.079-.977Zm5.068-4.056V247h-.861v-5.735l-1.735.632v-.776l2.461-.931h.135Zm8.494 4.833v-4.796h.893v4.796c0 .447-.092.823-.275 1.13a1.8 1.8 0 0 1-.758.703 2.454 2.454 0 0 1-1.102.237c-.416 0-.785-.071-1.107-.214a1.676 1.676 0 0 1-.759-.651c-.182-.292-.274-.659-.274-1.103h.898c0 .286.053.52.158.703a.967.967 0 0 0 .437.405c.189.086.405.13.647.13.235 0 .446-.05.632-.149.19-.102.338-.253.447-.451a1.55 1.55 0 0 0 .163-.74Zm5.519 1.116v-2.59a1.06 1.06 0 0 0-.121-.517.796.796 0 0 0-.354-.344 1.274 1.274 0 0 0-.586-.121c-.217 0-.408.037-.572.112a.992.992 0 0 0-.381.293.642.642 0 0 0-.135.391h-.861c0-.18.047-.359.14-.535.093-.177.226-.337.4-.479a2 2 0 0 1 .632-.345c.248-.087.524-.13.828-.13.366 0 .689.062.968.186.282.124.502.312.66.563.162.248.242.56.242.935v2.344c0 .168.014.346.042.535a2.1 2.1 0 0 0 .135.489V247h-.898a1.635 1.635 0 0 1-.102-.395 3.173 3.173 0 0 1-.037-.466Zm.149-2.19.009.604h-.87c-.245 0-.464.02-.656.061a1.494 1.494 0 0 0-.484.172.781.781 0 0 0-.4.698c0 .158.036.302.107.432.072.13.179.234.321.312.146.074.324.111.535.111.264 0 .496-.055.698-.167.202-.112.361-.248.479-.409a.88.88 0 0 0 .195-.47l.368.414c-.022.13-.081.274-.177.432a2.07 2.07 0 0 1-.953.814c-.217.094-.462.14-.735.14a1.93 1.93 0 0 1-.898-.2 1.53 1.53 0 0 1-.595-.535 1.411 1.411 0 0 1-.21-.758c0-.27.053-.507.158-.712.106-.208.258-.38.456-.516a2.15 2.15 0 0 1 .717-.316 3.74 3.74 0 0 1 .934-.107h1.001Zm3.193-.907V247h-.861v-5.033h.814l.047 1.075Zm-.205 1.251-.358-.014c.003-.344.054-.662.154-.954.099-.294.238-.55.418-.767a1.872 1.872 0 0 1 1.475-.684c.248 0 .471.034.669.102.199.066.368.171.507.317.143.145.252.335.326.567.075.23.112.51.112.842V247h-.865v-3.307c0-.264-.039-.475-.117-.633a.715.715 0 0 0-.339-.349 1.226 1.226 0 0 0-.549-.111c-.214 0-.41.045-.586.135-.174.09-.324.214-.451.372a1.858 1.858 0 0 0-.293.544 1.964 1.964 0 0 0-.103.642Z"/></g><g clip-path="url(#f)"><path fill="#000" fill-opacity=".54" d="M307.316 243.074v1.033c0 .555-.049 1.023-.148 1.405-.1.381-.242.688-.428.921a1.637 1.637 0 0 1-.675.507c-.26.102-.555.153-.884.153-.26 0-.5-.033-.721-.098a1.72 1.72 0 0 1-.595-.311 1.885 1.885 0 0 1-.447-.568 3.04 3.04 0 0 1-.283-.846 6.114 6.114 0 0 1-.098-1.163v-1.033c0-.555.05-1.02.149-1.395.102-.376.246-.676.432-.903a1.58 1.58 0 0 1 .67-.493c.264-.099.558-.149.884-.149.264 0 .505.033.726.098.223.062.421.163.595.302.174.137.321.32.442.549.124.227.219.504.284.833.065.329.097.715.097 1.158Zm-.865 1.172v-1.316c0-.304-.018-.571-.056-.8a2.507 2.507 0 0 0-.153-.595 1.172 1.172 0 0 0-.261-.401.922.922 0 0 0-.358-.223 1.3 1.3 0 0 0-.451-.074c-.205 0-.386.039-.544.116a.975.975 0 0 0-.4.358c-.106.165-.186.38-.242.647a4.808 4.808 0 0 0-.084.972v1.316c0 .304.017.572.051.805.038.233.092.434.163.605.071.167.158.305.261.414.102.108.22.189.353.242.137.049.287.074.451.074a1.2 1.2 0 0 0 .554-.121.995.995 0 0 0 .395-.377 1.95 1.95 0 0 0 .242-.665c.053-.273.079-.598.079-.977Zm5.542-4.028h.075v.73h-.075c-.455 0-.837.075-1.144.224-.307.145-.55.342-.73.59a2.43 2.43 0 0 0-.391.828 3.831 3.831 0 0 0-.116.935v.996c0 .301.036.567.107.8.071.229.169.423.293.581.124.158.264.278.419.358.158.081.322.121.493.121.198 0 .375-.037.53-.111.155-.078.285-.185.391-.321.108-.14.19-.304.246-.493a2.19 2.19 0 0 0 .084-.624 2.23 2.23 0 0 0-.075-.581 1.535 1.535 0 0 0-.227-.502 1.095 1.095 0 0 0-.931-.479c-.239 0-.462.058-.67.176a1.541 1.541 0 0 0-.507.456c-.13.186-.204.389-.223.609l-.456-.004a2.88 2.88 0 0 1 .242-.889c.121-.248.27-.449.447-.604.18-.158.38-.273.6-.345.223-.074.459-.111.707-.111.338 0 .629.063.874.191.245.127.447.297.605.511.158.211.274.45.349.717.077.263.116.534.116.814 0 .319-.045.618-.135.897-.09.279-.225.524-.404.735a1.83 1.83 0 0 1-.656.493 2.181 2.181 0 0 1-.907.177c-.366 0-.686-.074-.959-.223a2.066 2.066 0 0 1-.679-.605 2.751 2.751 0 0 1-.404-.837 3.309 3.309 0 0 1-.135-.935v-.405c0-.477.048-.946.144-1.405.096-.459.262-.874.498-1.246.238-.372.569-.668.99-.889.422-.22.96-.33 1.614-.33Zm8.02 4.805v-4.796h.893v4.796c0 .447-.092.823-.275 1.13a1.8 1.8 0 0 1-.758.703 2.454 2.454 0 0 1-1.102.237c-.416 0-.785-.071-1.107-.214a1.676 1.676 0 0 1-.759-.651c-.182-.292-.274-.659-.274-1.103h.898c0 .286.053.52.158.703a.967.967 0 0 0 .437.405c.189.086.405.13.647.13.235 0 .446-.05.632-.149.19-.102.338-.253.447-.451a1.55 1.55 0 0 0 .163-.74Zm5.519 1.116v-2.59a1.06 1.06 0 0 0-.121-.517.796.796 0 0 0-.354-.344 1.274 1.274 0 0 0-.586-.121c-.217 0-.408.037-.572.112a.992.992 0 0 0-.381.293.642.642 0 0 0-.135.391h-.861c0-.18.047-.359.14-.535.093-.177.226-.337.4-.479a2 2 0 0 1 .632-.345c.248-.087.524-.13.828-.13.366 0 .689.062.968.186.282.124.502.312.66.563.162.248.242.56.242.935v2.344c0 .168.014.346.042.535a2.1 2.1 0 0 0 .135.489V247h-.898a1.635 1.635 0 0 1-.102-.395 3.173 3.173 0 0 1-.037-.466Zm.149-2.19.009.604h-.87c-.245 0-.464.02-.656.061a1.494 1.494 0 0 0-.484.172.781.781 0 0 0-.4.698c0 .158.036.302.107.432.072.13.179.234.321.312.146.074.324.111.535.111.264 0 .496-.055.698-.167.202-.112.361-.248.479-.409a.88.88 0 0 0 .195-.47l.368.414c-.022.13-.081.274-.177.432a2.07 2.07 0 0 1-.953.814c-.217.094-.462.14-.735.14a1.93 1.93 0 0 1-.898-.2 1.53 1.53 0 0 1-.595-.535 1.411 1.411 0 0 1-.21-.758c0-.27.053-.507.158-.712.106-.208.258-.38.456-.516a2.15 2.15 0 0 1 .717-.316 3.74 3.74 0 0 1 .934-.107h1.001Zm3.193-.907V247h-.861v-5.033h.814l.047 1.075Zm-.205 1.251-.358-.014c.003-.344.054-.662.154-.954.099-.294.238-.55.418-.767a1.872 1.872 0 0 1 1.475-.684c.248 0 .471.034.669.102.199.066.368.171.507.317.143.145.252.335.326.567.075.23.112.51.112.842V247h-.865v-3.307c0-.264-.039-.475-.117-.633a.715.715 0 0 0-.339-.349 1.226 1.226 0 0 0-.549-.111c-.214 0-.41.045-.586.135-.174.09-.324.214-.451.372a1.858 1.858 0 0 0-.293.544 1.964 1.964 0 0 0-.103.642Z"/></g><g clip-path="url(#g)"><path fill="#000" fill-opacity=".54" d="M375.768 240.19V247h-.861v-5.735l-1.735.632v-.776l2.461-.931h.135Zm5.626 0V247h-.861v-5.735l-1.735.632v-.776l2.461-.931h.135Zm8.494 4.833v-4.796h.893v4.796c0 .447-.092.823-.275 1.13a1.8 1.8 0 0 1-.758.703 2.454 2.454 0 0 1-1.102.237c-.416 0-.785-.071-1.107-.214a1.676 1.676 0 0 1-.759-.651c-.182-.292-.274-.659-.274-1.103h.898c0 .286.053.52.158.703a.967.967 0 0 0 .437.405c.189.086.405.13.647.13.235 0 .446-.05.632-.149.19-.102.338-.253.447-.451a1.55 1.55 0 0 0 .163-.74Zm5.519 1.116v-2.59a1.06 1.06 0 0 0-.121-.517.796.796 0 0 0-.354-.344 1.274 1.274 0 0 0-.586-.121c-.217 0-.408.037-.572.112a.992.992 0 0 0-.381.293.642.642 0 0 0-.135.391h-.861c0-.18.047-.359.14-.535.093-.177.226-.337.4-.479a2 2 0 0 1 .632-.345c.248-.087.524-.13.828-.13.366 0 .689.062.968.186.282.124.502.312.66.563.162.248.242.56.242.935v2.344c0 .168.014.346.042.535a2.1 2.1 0 0 0 .135.489V247h-.898a1.635 1.635 0 0 1-.102-.395 3.173 3.173 0 0 1-.037-.466Zm.149-2.19.009.604h-.87c-.245 0-.464.02-.656.061a1.494 1.494 0 0 0-.484.172.781.781 0 0 0-.4.698c0 .158.036.302.107.432.072.13.179.234.321.312.146.074.324.111.535.111.264 0 .496-.055.698-.167.202-.112.361-.248.479-.409a.88.88 0 0 0 .195-.47l.368.414c-.022.13-.081.274-.177.432a2.07 2.07 0 0 1-.953.814c-.217.094-.462.14-.735.14a1.93 1.93 0 0 1-.898-.2 1.53 1.53 0 0 1-.595-.535 1.411 1.411 0 0 1-.21-.758c0-.27.053-.507.158-.712.106-.208.258-.38.456-.516a2.15 2.15 0 0 1 .717-.316 3.74 3.74 0 0 1 .934-.107h1.001Zm3.193-.907V247h-.861v-5.033h.814l.047 1.075Zm-.205 1.251-.358-.014c.003-.344.054-.662.154-.954.099-.294.238-.55.418-.767a1.872 1.872 0 0 1 1.475-.684c.248 0 .471.034.669.102.199.066.368.171.507.317.143.145.252.335.326.567.075.23.112.51.112.842V247h-.865v-3.307c0-.264-.039-.475-.117-.633a.715.715 0 0 0-.339-.349 1.226 1.226 0 0 0-.549-.111c-.214 0-.41.045-.586.135-.174.09-.324.214-.451.372a1.858 1.858 0 0 0-.293.544 1.964 1.964 0 0 0-.103.642Z"/></g><g clip-path="url(#h)"><path fill="#000" fill-opacity=".54" d="M445.643 240.19V247h-.861v-5.735l-1.735.632v-.776l2.461-.931h.135Zm6.1.028h.075v.73h-.075c-.455 0-.837.075-1.144.224-.307.145-.55.342-.73.59a2.43 2.43 0 0 0-.391.828 3.831 3.831 0 0 0-.116.935v.996c0 .301.036.567.107.8.071.229.169.423.293.581.124.158.264.278.419.358.158.081.322.121.493.121.198 0 .375-.037.53-.111.155-.078.285-.185.391-.321.108-.14.19-.304.246-.493a2.19 2.19 0 0 0 .084-.624 2.23 2.23 0 0 0-.075-.581 1.535 1.535 0 0 0-.227-.502 1.095 1.095 0 0 0-.931-.479c-.239 0-.462.058-.67.176a1.541 1.541 0 0 0-.507.456c-.13.186-.204.389-.223.609l-.456-.004a2.88 2.88 0 0 1 .242-.889c.121-.248.27-.449.447-.604.18-.158.38-.273.6-.345.223-.074.459-.111.707-.111.338 0 .629.063.874.191.245.127.447.297.605.511.158.211.274.45.349.717.077.263.116.534.116.814 0 .319-.045.618-.135.897-.09.279-.225.524-.404.735a1.83 1.83 0 0 1-.656.493 2.181 2.181 0 0 1-.907.177c-.366 0-.686-.074-.959-.223a2.066 2.066 0 0 1-.679-.605 2.751 2.751 0 0 1-.404-.837 3.309 3.309 0 0 1-.135-.935v-.405c0-.477.048-.946.144-1.405.096-.459.262-.874.498-1.246.238-.372.569-.668.99-.889.422-.22.96-.33 1.614-.33Zm8.02 4.805v-4.796h.893v4.796c0 .447-.092.823-.275 1.13a1.8 1.8 0 0 1-.758.703 2.454 2.454 0 0 1-1.102.237c-.416 0-.785-.071-1.107-.214a1.676 1.676 0 0 1-.759-.651c-.182-.292-.274-.659-.274-1.103h.898c0 .286.053.52.158.703a.967.967 0 0 0 .437.405c.189.086.405.13.647.13.235 0 .446-.05.632-.149.19-.102.338-.253.447-.451a1.55 1.55 0 0 0 .163-.74Zm5.519 1.116v-2.59a1.06 1.06 0 0 0-.121-.517.796.796 0 0 0-.354-.344 1.274 1.274 0 0 0-.586-.121c-.217 0-.408.037-.572.112a.992.992 0 0 0-.381.293.642.642 0 0 0-.135.391h-.861c0-.18.047-.359.14-.535.093-.177.226-.337.4-.479a2 2 0 0 1 .632-.345c.248-.087.524-.13.828-.13.366 0 .689.062.968.186.282.124.502.312.66.563.162.248.242.56.242.935v2.344c0 .168.014.346.042.535a2.1 2.1 0 0 0 .135.489V247h-.898a1.635 1.635 0 0 1-.102-.395 3.173 3.173 0 0 1-.037-.466Zm.149-2.19.009.604h-.87c-.245 0-.464.02-.656.061a1.494 1.494 0 0 0-.484.172.781.781 0 0 0-.4.698c0 .158.036.302.107.432.072.13.179.234.321.312.146.074.324.111.535.111.264 0 .496-.055.698-.167.202-.112.361-.248.479-.409a.88.88 0 0 0 .195-.47l.368.414c-.022.13-.081.274-.177.432a2.07 2.07 0 0 1-.953.814c-.217.094-.462.14-.735.14a1.93 1.93 0 0 1-.898-.2 1.53 1.53 0 0 1-.595-.535 1.411 1.411 0 0 1-.21-.758c0-.27.053-.507.158-.712.106-.208.258-.38.456-.516a2.15 2.15 0 0 1 .717-.316 3.74 3.74 0 0 1 .934-.107h1.001Zm3.193-.907V247h-.861v-5.033h.814l.047 1.075Zm-.205 1.251-.358-.014c.003-.344.054-.662.154-.954.099-.294.238-.55.418-.767a1.872 1.872 0 0 1 1.475-.684c.248 0 .471.034.669.102.199.066.368.171.507.317.143.145.252.335.326.567.075.23.112.51.112.842V247h-.865v-3.307c0-.264-.039-.475-.117-.633a.715.715 0 0 0-.339-.349 1.226 1.226 0 0 0-.549-.111c-.214 0-.41.045-.586.135-.174.09-.324.214-.451.372a1.858 1.858 0 0 0-.293.544 1.964 1.964 0 0 0-.103.642Z"/></g><g clip-path="url(#i)"><path fill="#000" fill-opacity=".54" d="M517.127 246.293V247h-4.432v-.619l2.218-2.47c.273-.303.484-.561.633-.772.152-.214.257-.404.316-.572.062-.17.093-.344.093-.521a1.3 1.3 0 0 0-.139-.605 1.059 1.059 0 0 0-.4-.437 1.21 1.21 0 0 0-.642-.163c-.301 0-.552.059-.754.177a1.089 1.089 0 0 0-.446.484c-.1.208-.149.446-.149.716h-.861c0-.381.084-.73.251-1.046.168-.317.416-.568.745-.754.328-.189.733-.284 1.214-.284.428 0 .794.076 1.098.228.303.149.536.36.697.633.165.27.247.586.247.949 0 .198-.034.4-.103.605a3.045 3.045 0 0 1-.274.604c-.115.202-.25.4-.405.596a9.196 9.196 0 0 1-.488.576l-1.814 1.968h3.395Zm4.017-6.103V247h-.861v-5.735l-1.735.632v-.776l2.461-.931h.135Zm8.494 4.833v-4.796h.893v4.796c0 .447-.092.823-.275 1.13a1.8 1.8 0 0 1-.758.703 2.454 2.454 0 0 1-1.102.237c-.416 0-.785-.071-1.107-.214a1.676 1.676 0 0 1-.759-.651c-.182-.292-.274-.659-.274-1.103h.898c0 .286.053.52.158.703a.967.967 0 0 0 .437.405c.189.086.405.13.647.13.235 0 .446-.05.632-.149.19-.102.338-.253.447-.451a1.55 1.55 0 0 0 .163-.74Zm5.519 1.116v-2.59a1.06 1.06 0 0 0-.121-.517.796.796 0 0 0-.354-.344 1.274 1.274 0 0 0-.586-.121c-.217 0-.408.037-.572.112a.992.992 0 0 0-.381.293.642.642 0 0 0-.135.391h-.861c0-.18.047-.359.14-.535.093-.177.226-.337.4-.479a2 2 0 0 1 .632-.345c.248-.087.524-.13.828-.13.366 0 .689.062.968.186.282.124.502.312.66.563.162.248.242.56.242.935v2.344c0 .168.014.346.042.535a2.1 2.1 0 0 0 .135.489V247h-.898a1.635 1.635 0 0 1-.102-.395 3.173 3.173 0 0 1-.037-.466Zm.149-2.19.009.604h-.87c-.245 0-.464.02-.656.061a1.494 1.494 0 0 0-.484.172.781.781 0 0 0-.4.698c0 .158.036.302.107.432.072.13.179.234.321.312.146.074.324.111.535.111.264 0 .496-.055.698-.167.202-.112.361-.248.479-.409a.88.88 0 0 0 .195-.47l.368.414c-.022.13-.081.274-.177.432a2.07 2.07 0 0 1-.953.814c-.217.094-.462.14-.735.14a1.93 1.93 0 0 1-.898-.2 1.53 1.53 0 0 1-.595-.535 1.411 1.411 0 0 1-.21-.758c0-.27.053-.507.158-.712.106-.208.258-.38.456-.516a2.15 2.15 0 0 1 .717-.316 3.74 3.74 0 0 1 .934-.107h1.001Zm3.193-.907V247h-.861v-5.033h.814l.047 1.075Zm-.205 1.251-.358-.014c.003-.344.054-.662.154-.954.099-.294.238-.55.418-.767a1.872 1.872 0 0 1 1.475-.684c.248 0 .471.034.669.102.199.066.368.171.507.317.143.145.252.335.326.567.075.23.112.51.112.842V247h-.865v-3.307c0-.264-.039-.475-.117-.633a.715.715 0 0 0-.339-.349 1.226 1.226 0 0 0-.549-.111c-.214 0-.41.045-.586.135-.174.09-.324.214-.451.372a1.858 1.858 0 0 0-.293.544 1.964 1.964 0 0 0-.103.642Z"/></g><g clip-path="url(#j)"><path fill="#000" fill-opacity=".54" d="M587.002 246.293V247h-4.432v-.619l2.218-2.47c.273-.303.484-.561.633-.772.152-.214.257-.404.316-.572.062-.17.093-.344.093-.521a1.3 1.3 0 0 0-.139-.605 1.059 1.059 0 0 0-.4-.437 1.21 1.21 0 0 0-.642-.163c-.301 0-.552.059-.754.177a1.089 1.089 0 0 0-.446.484c-.1.208-.149.446-.149.716h-.861c0-.381.084-.73.251-1.046.168-.317.416-.568.745-.754.328-.189.733-.284 1.214-.284.428 0 .794.076 1.098.228.303.149.536.36.697.633.165.27.247.586.247.949 0 .198-.034.4-.103.605a3.045 3.045 0 0 1-.274.604c-.115.202-.25.4-.405.596a9.196 9.196 0 0 1-.488.576l-1.814 1.968h3.395Zm4.491-6.075h.075v.73h-.075c-.455 0-.837.075-1.144.224-.307.145-.55.342-.73.59a2.43 2.43 0 0 0-.391.828 3.831 3.831 0 0 0-.116.935v.996c0 .301.036.567.107.8.071.229.169.423.293.581.124.158.264.278.419.358.158.081.322.121.493.121.198 0 .375-.037.53-.111.155-.078.285-.185.391-.321.108-.14.19-.304.246-.493a2.19 2.19 0 0 0 .084-.624 2.23 2.23 0 0 0-.075-.581 1.535 1.535 0 0 0-.227-.502 1.095 1.095 0 0 0-.931-.479c-.239 0-.462.058-.67.176a1.541 1.541 0 0 0-.507.456c-.13.186-.204.389-.223.609l-.456-.004a2.88 2.88 0 0 1 .242-.889c.121-.248.27-.449.447-.604.18-.158.38-.273.6-.345.223-.074.459-.111.707-.111.338 0 .629.063.874.191.245.127.447.297.605.511.158.211.274.45.349.717.077.263.116.534.116.814 0 .319-.045.618-.135.897-.09.279-.225.524-.404.735a1.83 1.83 0 0 1-.656.493 2.181 2.181 0 0 1-.907.177c-.366 0-.686-.074-.959-.223a2.066 2.066 0 0 1-.679-.605 2.751 2.751 0 0 1-.404-.837 3.309 3.309 0 0 1-.135-.935v-.405c0-.477.048-.946.144-1.405.096-.459.262-.874.498-1.246.238-.372.569-.668.99-.889.422-.22.96-.33 1.614-.33Zm8.02 4.805v-4.796h.893v4.796c0 .447-.092.823-.275 1.13a1.8 1.8 0 0 1-.758.703 2.454 2.454 0 0 1-1.102.237c-.416 0-.785-.071-1.107-.214a1.676 1.676 0 0 1-.759-.651c-.182-.292-.274-.659-.274-1.103h.898c0 .286.053.52.158.703a.967.967 0 0 0 .437.405c.189.086.405.13.647.13.235 0 .446-.05.632-.149.19-.102.338-.253.447-.451a1.55 1.55 0 0 0 .163-.74Zm5.519 1.116v-2.59a1.06 1.06 0 0 0-.121-.517.796.796 0 0 0-.354-.344 1.274 1.274 0 0 0-.586-.121c-.217 0-.408.037-.572.112a.992.992 0 0 0-.381.293.642.642 0 0 0-.135.391h-.861c0-.18.047-.359.14-.535.093-.177.226-.337.4-.479a2 2 0 0 1 .632-.345c.248-.087.524-.13.828-.13.366 0 .689.062.968.186.282.124.502.312.66.563.162.248.242.56.242.935v2.344c0 .168.014.346.042.535a2.1 2.1 0 0 0 .135.489V247h-.898a1.635 1.635 0 0 1-.102-.395 3.173 3.173 0 0 1-.037-.466Zm.149-2.19.009.604h-.87c-.245 0-.464.02-.656.061a1.494 1.494 0 0 0-.484.172.781.781 0 0 0-.4.698c0 .158.036.302.107.432.072.13.179.234.321.312.146.074.324.111.535.111.264 0 .496-.055.698-.167.202-.112.361-.248.479-.409a.88.88 0 0 0 .195-.47l.368.414c-.022.13-.081.274-.177.432a2.07 2.07 0 0 1-.953.814c-.217.094-.462.14-.735.14a1.93 1.93 0 0 1-.898-.2 1.53 1.53 0 0 1-.595-.535 1.411 1.411 0 0 1-.21-.758c0-.27.053-.507.158-.712.106-.208.258-.38.456-.516a2.15 2.15 0 0 1 .717-.316 3.74 3.74 0 0 1 .934-.107h1.001Zm3.193-.907V247h-.861v-5.033h.814l.047 1.075Zm-.205 1.251-.358-.014c.003-.344.054-.662.154-.954.099-.294.238-.55.418-.767a1.872 1.872 0 0 1 1.475-.684c.248 0 .471.034.669.102.199.066.368.171.507.317.143.145.252.335.326.567.075.23.112.51.112.842V247h-.865v-3.307c0-.264-.039-.475-.117-.633a.715.715 0 0 0-.339-.349 1.226 1.226 0 0 0-.549-.111c-.214 0-.41.045-.586.135-.174.09-.324.214-.451.372a1.858 1.858 0 0 0-.293.544 1.964 1.964 0 0 0-.103.642Z"/></g><path fill="#000" fill-opacity=".54" d="M25.91 62.233h.644c.316 0 .576-.052.781-.156.208-.108.363-.253.464-.435.104-.186.156-.394.156-.625 0-.273-.045-.503-.137-.688a.916.916 0 0 0-.41-.42c-.182-.095-.413-.142-.693-.142-.254 0-.479.05-.674.151a1.108 1.108 0 0 0-.454.42 1.247 1.247 0 0 0-.161.645h-.903c0-.361.09-.69.273-.986.182-.297.438-.533.767-.708a2.426 2.426 0 0 1 1.152-.264c.43 0 .805.076 1.128.23.322.15.573.374.752.673.179.296.268.666.268 1.109 0 .179-.042.37-.127.576-.081.202-.21.39-.385.566-.173.176-.398.32-.674.435-.277.11-.609.166-.996.166h-.772v-.547Zm0 .742v-.542h.77c.453 0 .828.054 1.124.161.296.108.529.25.698.43.172.179.293.376.361.59a2.163 2.163 0 0 1-.063 1.519c-.11.258-.269.476-.474.655-.202.179-.44.314-.713.405a2.812 2.812 0 0 1-.893.137c-.31 0-.6-.044-.874-.132a2.265 2.265 0 0 1-.718-.381 1.784 1.784 0 0 1-.488-.62 1.952 1.952 0 0 1-.176-.845h.903c0 .247.054.464.161.65.111.185.267.33.47.434.204.1.445.151.722.151.276 0 .514-.047.713-.141.201-.098.356-.244.463-.44.111-.195.166-.44.166-.737 0-.296-.061-.539-.185-.728a1.088 1.088 0 0 0-.527-.424 2.045 2.045 0 0 0-.796-.142h-.645Zm9.169-.864v1.084c0 .583-.052 1.074-.157 1.474-.104.4-.253.723-.449.967a1.71 1.71 0 0 1-.708.532 2.52 2.52 0 0 1-.928.162c-.273 0-.525-.035-.756-.103a1.797 1.797 0 0 1-.625-.327 1.984 1.984 0 0 1-.47-.596c-.13-.244-.229-.54-.297-.889a6.4 6.4 0 0 1-.102-1.22V62.11c0-.583.052-1.071.156-1.465.107-.394.259-.71.454-.947.195-.241.43-.414.703-.518.277-.104.586-.156.928-.156.276 0 .53.034.761.102.235.066.443.171.626.318.182.143.336.335.463.576.13.238.23.529.298.874.069.345.103.75.103 1.216Zm-.909 1.23V61.96c0-.319-.019-.599-.058-.84a2.641 2.641 0 0 0-.161-.624 1.236 1.236 0 0 0-.274-.42.967.967 0 0 0-.376-.235 1.35 1.35 0 0 0-.473-.078c-.215 0-.406.04-.572.122a1.026 1.026 0 0 0-.42.376c-.11.173-.195.399-.253.679-.059.28-.088.62-.088 1.02v1.382c0 .32.018.6.053.845a2.8 2.8 0 0 0 .171.635c.075.176.166.32.274.434.107.114.23.199.37.254.144.052.302.078.474.078.222 0 .415-.042.582-.127.166-.084.304-.216.415-.395a2.06 2.06 0 0 0 .253-.698c.056-.287.083-.629.083-1.026Zm6.934-1.23v1.084c0 .583-.052 1.074-.157 1.474-.104.4-.253.723-.449.967a1.71 1.71 0 0 1-.708.532 2.52 2.52 0 0 1-.928.162c-.273 0-.525-.035-.756-.103a1.797 1.797 0 0 1-.625-.327 1.984 1.984 0 0 1-.47-.596c-.13-.244-.229-.54-.297-.889a6.4 6.4 0 0 1-.102-1.22V62.11c0-.583.052-1.071.156-1.465.107-.394.259-.71.454-.947.195-.241.43-.414.703-.518.277-.104.586-.156.928-.156.276 0 .53.034.761.102.235.066.443.171.626.318.182.143.336.335.463.576.13.238.23.529.298.874.069.345.103.75.103 1.216Zm-.908 1.23V61.96c0-.319-.02-.599-.06-.84a2.641 2.641 0 0 0-.16-.624 1.236 1.236 0 0 0-.274-.42.967.967 0 0 0-.376-.235 1.35 1.35 0 0 0-.473-.078c-.215 0-.406.04-.572.122a1.026 1.026 0 0 0-.42.376c-.11.173-.195.399-.253.679-.059.28-.088.62-.088 1.02v1.382c0 .32.018.6.053.845a2.8 2.8 0 0 0 .171.635c.075.176.166.32.274.434.107.114.23.199.37.254.144.052.302.078.474.078.222 0 .416-.042.582-.127.166-.084.304-.216.415-.395a2.06 2.06 0 0 0 .253-.698c.056-.287.084-.629.084-1.026Zm7.66-2.392v.693h-2.857v-.693h2.857Zm-1.89-1.284h.904v5.258c0 .18.027.314.083.406a.397.397 0 0 0 .214.18.89.89 0 0 0 .284.044c.075 0 .153-.006.234-.02a5.72 5.72 0 0 0 .19-.038l.005.737a2.103 2.103 0 0 1-.283.063 2.153 2.153 0 0 1-.415.035c-.221 0-.425-.044-.61-.132a.982.982 0 0 1-.445-.44c-.107-.208-.16-.488-.16-.84v-5.253ZM29.249 122.156v.743h-4.653v-.65l2.329-2.593c.286-.319.508-.589.664-.81.16-.225.27-.425.332-.601.065-.179.098-.361.098-.547 0-.234-.05-.446-.147-.634a1.098 1.098 0 0 0-.42-.459 1.263 1.263 0 0 0-.674-.171c-.315 0-.58.062-.79.185-.209.121-.365.29-.47.508a1.725 1.725 0 0 0-.156.752h-.903c0-.4.088-.767.264-1.099.175-.332.436-.595.78-.791.346-.198.77-.297 1.275-.297.45 0 .834.079 1.153.239.319.156.563.377.732.664.173.283.259.615.259.996 0 .208-.036.42-.108.635a3.218 3.218 0 0 1-.288.634c-.12.212-.262.42-.424.625-.16.206-.33.407-.513.606l-1.904 2.065h3.564Zm5.83-3.379v1.084c0 .583-.052 1.075-.157 1.475-.104.4-.253.723-.449.967a1.713 1.713 0 0 1-.708.532 2.508 2.508 0 0 1-.928.161c-.273 0-.525-.034-.756-.102a1.819 1.819 0 0 1-.625-.327 1.987 1.987 0 0 1-.47-.596 3.199 3.199 0 0 1-.297-.889 6.397 6.397 0 0 1-.102-1.221v-1.084c0-.582.052-1.07.156-1.464.107-.394.259-.71.454-.948a1.65 1.65 0 0 1 .703-.517 2.62 2.62 0 0 1 .928-.156c.276 0 .53.034.761.102.235.065.443.171.626.317.182.144.336.336.463.577.13.237.23.529.298.874.069.345.103.75.103 1.215Zm-.909 1.231v-1.382c0-.319-.019-.599-.058-.84a2.648 2.648 0 0 0-.161-.625 1.247 1.247 0 0 0-.274-.42.972.972 0 0 0-.376-.234 1.353 1.353 0 0 0-.473-.078c-.215 0-.406.041-.572.122a1.023 1.023 0 0 0-.42.376c-.11.172-.195.399-.253.679-.059.28-.088.62-.088 1.02v1.382c0 .319.018.601.053.845.04.244.097.455.171.634.075.176.166.321.274.435.107.114.23.199.37.254.144.052.302.078.474.078.222 0 .415-.042.582-.127.166-.085.304-.216.415-.395.113-.183.198-.415.253-.699a5.48 5.48 0 0 0 .083-1.025Zm6.934-1.231v1.084c0 .583-.052 1.075-.157 1.475-.104.4-.253.723-.449.967a1.713 1.713 0 0 1-.708.532 2.508 2.508 0 0 1-.928.161c-.273 0-.525-.034-.756-.102a1.819 1.819 0 0 1-.625-.327 1.987 1.987 0 0 1-.47-.596 3.199 3.199 0 0 1-.297-.889 6.397 6.397 0 0 1-.102-1.221v-1.084c0-.582.052-1.07.156-1.464.107-.394.259-.71.454-.948a1.65 1.65 0 0 1 .703-.517 2.62 2.62 0 0 1 .928-.156c.276 0 .53.034.761.102.235.065.443.171.626.317.182.144.336.336.463.577.13.237.23.529.298.874.069.345.103.75.103 1.215Zm-.908 1.231v-1.382c0-.319-.02-.599-.06-.84a2.648 2.648 0 0 0-.16-.625 1.247 1.247 0 0 0-.274-.42.972.972 0 0 0-.376-.234 1.353 1.353 0 0 0-.473-.078c-.215 0-.406.041-.572.122a1.023 1.023 0 0 0-.42.376c-.11.172-.195.399-.253.679-.059.28-.088.62-.088 1.02v1.382c0 .319.018.601.053.845.04.244.096.455.171.634.075.176.166.321.274.435.107.114.23.199.37.254.144.052.302.078.474.078.222 0 .416-.042.582-.127.166-.085.304-.216.415-.395.113-.183.198-.415.253-.699a5.48 5.48 0 0 0 .084-1.025Zm7.66-2.393v.694h-2.857v-.694h2.857Zm-1.89-1.284h.904v5.259c0 .179.027.314.083.405a.397.397 0 0 0 .214.181.899.899 0 0 0 .284.044c.075 0 .153-.007.234-.02.085-.016.148-.029.19-.039l.005.738a2.161 2.161 0 0 1-.283.063 2.139 2.139 0 0 1-.415.034c-.221 0-.425-.044-.61-.132a.982.982 0 0 1-.445-.439c-.107-.208-.16-.488-.16-.84v-5.254ZM27.56 172.417v7.148h-.904v-6.02l-1.821.664v-.816l2.583-.976h.142Zm7.519 3.027v1.084c0 .583-.052 1.074-.157 1.475-.104.4-.253.722-.449.967a1.713 1.713 0 0 1-.708.532 2.529 2.529 0 0 1-.928.161c-.273 0-.525-.034-.756-.103a1.785 1.785 0 0 1-.625-.327 1.982 1.982 0 0 1-.47-.595 3.21 3.21 0 0 1-.297-.889 6.397 6.397 0 0 1-.102-1.221v-1.084c0-.582.052-1.071.156-1.465.107-.394.259-.709.454-.947a1.65 1.65 0 0 1 .703-.517c.277-.105.586-.157.928-.157.276 0 .53.034.761.103.235.065.443.171.626.317.182.143.336.335.463.576.13.238.23.529.298.874.069.345.103.751.103 1.216Zm-.909 1.231v-1.382c0-.319-.019-.599-.058-.84a2.648 2.648 0 0 0-.161-.625 1.237 1.237 0 0 0-.274-.42.972.972 0 0 0-.376-.234 1.353 1.353 0 0 0-.473-.078c-.215 0-.406.04-.572.122a1.023 1.023 0 0 0-.42.376c-.11.172-.195.398-.253.678-.059.28-.088.62-.088 1.021v1.382c0 .319.018.6.053.844.04.245.097.456.171.635.075.176.166.321.274.435.107.114.23.198.37.254.144.052.302.078.474.078.222 0 .415-.043.582-.127.166-.085.304-.217.415-.396.113-.182.198-.415.253-.698a5.48 5.48 0 0 0 .083-1.025Zm6.934-1.231v1.084c0 .583-.052 1.074-.157 1.475-.104.4-.253.722-.449.967a1.713 1.713 0 0 1-.708.532 2.529 2.529 0 0 1-.928.161c-.273 0-.525-.034-.756-.103a1.785 1.785 0 0 1-.625-.327 1.982 1.982 0 0 1-.47-.595 3.21 3.21 0 0 1-.297-.889 6.397 6.397 0 0 1-.102-1.221v-1.084c0-.582.052-1.071.156-1.465.107-.394.259-.709.454-.947a1.65 1.65 0 0 1 .703-.517c.277-.105.586-.157.928-.157.276 0 .53.034.761.103.235.065.443.171.626.317.182.143.336.335.463.576.13.238.23.529.298.874.069.345.103.751.103 1.216Zm-.908 1.231v-1.382c0-.319-.02-.599-.06-.84a2.648 2.648 0 0 0-.16-.625 1.237 1.237 0 0 0-.274-.42.972.972 0 0 0-.376-.234 1.353 1.353 0 0 0-.473-.078c-.215 0-.406.04-.572.122a1.023 1.023 0 0 0-.42.376c-.11.172-.195.398-.253.678-.059.28-.088.62-.088 1.021v1.382c0 .319.018.6.053.844.04.245.096.456.171.635.075.176.166.321.274.435.107.114.23.198.37.254.144.052.302.078.474.078.222 0 .416-.043.582-.127.166-.085.304-.217.415-.396.113-.182.198-.415.253-.698a5.48 5.48 0 0 0 .084-1.025Zm7.66-2.393v.693h-2.857v-.693h2.857Zm-1.89-1.284h.904v5.259c0 .179.027.314.083.405a.401.401 0 0 0 .214.181.899.899 0 0 0 .284.044c.075 0 .153-.007.234-.02.085-.016.148-.029.19-.039l.005.737a2.14 2.14 0 0 1-.283.064 2.139 2.139 0 0 1-.415.034c-.221 0-.425-.044-.61-.132a.982.982 0 0 1-.445-.439c-.107-.209-.16-.489-.16-.84v-5.254ZM41.054 232.111v1.084c0 .583-.052 1.074-.157 1.474-.104.401-.253.723-.449.967a1.705 1.705 0 0 1-.708.532 2.508 2.508 0 0 1-.928.162c-.273 0-.525-.035-.756-.103a1.785 1.785 0 0 1-.625-.327 1.987 1.987 0 0 1-.47-.596c-.13-.244-.229-.54-.297-.888a6.412 6.412 0 0 1-.102-1.221v-1.084c0-.583.052-1.071.156-1.465.107-.394.259-.71.454-.947.195-.241.43-.414.703-.518a2.62 2.62 0 0 1 .928-.156c.276 0 .53.034.762.102.234.066.442.171.625.318.182.143.336.335.463.576.13.238.23.529.298.874.069.345.103.75.103 1.216Zm-.909 1.23v-1.382c0-.319-.019-.598-.058-.839a2.622 2.622 0 0 0-.161-.625 1.227 1.227 0 0 0-.274-.42.962.962 0 0 0-.376-.235 1.353 1.353 0 0 0-.473-.078c-.215 0-.405.041-.572.122a1.03 1.03 0 0 0-.42.376c-.11.173-.195.399-.253.679-.059.28-.088.62-.088 1.02v1.382c0 .319.018.601.053.845.04.244.096.456.171.635.075.176.166.32.274.434.107.114.23.199.37.254.144.052.302.078.474.078.222 0 .416-.042.582-.127.166-.084.304-.216.415-.395.114-.182.198-.415.254-.698a5.5 5.5 0 0 0 .082-1.026Zm7.66-2.392v.693H44.95v-.693h2.857Zm-1.889-1.284h.904v5.258c0 .179.027.314.083.406a.395.395 0 0 0 .214.18.87.87 0 0 0 .284.044c.074 0 .153-.006.234-.019l.19-.039.005.737a2.009 2.009 0 0 1-.283.063 2.13 2.13 0 0 1-.415.035c-.221 0-.425-.044-.61-.132a.984.984 0 0 1-.445-.44c-.107-.208-.16-.488-.16-.84v-5.253Z"/><g clip-path="url(#k)"><path fill="#305680" d="M90 147h12.375v87H90v-87Z"/></g><g clip-path="url(#l)"><path fill="#2A7DEC" d="M102.375 109h12.375v125h-12.375V109Z"/></g><g clip-path="url(#m)"><path fill="#C0DEFF" d="M114.75 128h12.375v106H114.75V128Z"/></g><g clip-path="url(#n)"><path fill="#305680" d="M159.125 131H171.5v103h-12.375V131Z"/></g><g clip-path="url(#o)"><path fill="#2A7DEC" d="M171.5 162h12.375v72H171.5v-72Z"/></g><g clip-path="url(#p)"><path fill="#C0DEFF" d="M183.875 173h12.375v61h-12.375v-61Z"/></g><g clip-path="url(#q)"><path fill="#305680" d="M228.25 122h12.375v112H228.25V122Z"/></g><g clip-path="url(#r)"><path fill="#2A7DEC" d="M240.625 95H253v139h-12.375V95Z"/></g><g clip-path="url(#s)"><path fill="#C0DEFF" d="M253 151h12.375v83H253v-83Z"/></g><g clip-path="url(#t)"><path fill="#305680" d="M297.375 195h12.375v39h-12.375v-39Z"/></g><g clip-path="url(#u)"><path fill="#2A7DEC" d="M309.75 146h12.375v88H309.75v-88Z"/></g><g clip-path="url(#v)"><path fill="#C0DEFF" d="M322.125 179H334.5v55h-12.375v-55Z"/></g><g clip-path="url(#w)"><path fill="#305680" d="M366.5 134h12.375v100H366.5V134Z"/></g><g clip-path="url(#x)"><path fill="#2A7DEC" d="M378.875 154h12.375v80h-12.375v-80Z"/></g><g clip-path="url(#y)"><path fill="#C0DEFF" d="M391.25 96h12.375v138H391.25V96Z"/></g><g clip-path="url(#z)"><path fill="#305680" d="M435.625 134H448v100h-12.375V134Z"/></g><g clip-path="url(#A)"><path fill="#2A7DEC" d="M448 154h12.375v80H448v-80Z"/></g><g clip-path="url(#B)"><path fill="#C0DEFF" d="M460.375 96h12.375v138h-12.375V96Z"/></g><g clip-path="url(#C)"><path fill="#305680" d="M504.75 134h12.375v100H504.75V134Z"/></g><g clip-path="url(#D)"><path fill="#2A7DEC" d="M517.125 154H529.5v80h-12.375v-80Z"/></g><g clip-path="url(#E)"><path fill="#C0DEFF" d="M529.5 96h12.375v138H529.5V96Z"/></g><g clip-path="url(#F)"><path fill="#305680" d="M573.875 134h12.375v100h-12.375V134Z"/></g><g clip-path="url(#G)"><path fill="#2A7DEC" d="M586.25 154h12.375v80H586.25v-80Z"/></g><g clip-path="url(#H)"><path fill="#C0DEFF" d="M598.625 96H611v138h-12.375V96Z"/></g></g></g><defs><clipPath id="b"><rect width="668" height="263" fill="#fff" rx="8"/></clipPath><clipPath id="c"><path fill="#fff" d="M73 238h69.875v11H73z"/></clipPath><clipPath id="d"><path fill="#fff" d="M142.875 238h69.875v11h-69.875z"/></clipPath><clipPath id="e"><path fill="#fff" d="M212.75 238h69.875v11H212.75z"/></clipPath><clipPath id="f"><path fill="#fff" d="M282.625 238H352.5v11h-69.875z"/></clipPath><clipPath id="g"><path fill="#fff" d="M352.5 238h69.875v11H352.5z"/></clipPath><clipPath id="h"><path fill="#fff" d="M422.375 238h69.875v11h-69.875z"/></clipPath><clipPath id="i"><path fill="#fff" d="M492.25 238h69.875v11H492.25z"/></clipPath><clipPath id="j"><path fill="#fff" d="M562.125 238H632v11h-69.875z"/></clipPath><clipPath id="k"><path fill="#fff" d="M90 147h12.375v87H90v-87Z"/></clipPath><clipPath id="l"><path fill="#fff" d="M102.375 109h12.375v125h-12.375V109Z"/></clipPath><clipPath id="m"><path fill="#fff" d="M114.75 128h12.375v106H114.75V128Z"/></clipPath><clipPath id="n"><path fill="#fff" d="M159.125 131H171.5v103h-12.375V131Z"/></clipPath><clipPath id="o"><path fill="#fff" d="M171.5 162h12.375v72H171.5v-72Z"/></clipPath><clipPath id="p"><path fill="#fff" d="M183.875 173h12.375v61h-12.375v-61Z"/></clipPath><clipPath id="q"><path fill="#fff" d="M228.25 122h12.375v112H228.25V122Z"/></clipPath><clipPath id="r"><path fill="#fff" d="M240.625 95H253v139h-12.375V95Z"/></clipPath><clipPath id="s"><path fill="#fff" d="M253 151h12.375v83H253v-83Z"/></clipPath><clipPath id="t"><path fill="#fff" d="M297.375 195h12.375v39h-12.375v-39Z"/></clipPath><clipPath id="u"><path fill="#fff" d="M309.75 146h12.375v88H309.75v-88Z"/></clipPath><clipPath id="v"><path fill="#fff" d="M322.125 179H334.5v55h-12.375v-55Z"/></clipPath><clipPath id="w"><path fill="#fff" d="M366.5 134h12.375v100H366.5V134Z"/></clipPath><clipPath id="x"><path fill="#fff" d="M378.875 154h12.375v80h-12.375v-80Z"/></clipPath><clipPath id="y"><path fill="#fff" d="M391.25 96h12.375v138H391.25V96Z"/></clipPath><clipPath id="z"><path fill="#fff" d="M435.625 134H448v100h-12.375V134Z"/></clipPath><clipPath id="A"><path fill="#fff" d="M448 154h12.375v80H448v-80Z"/></clipPath><clipPath id="B"><path fill="#fff" d="M460.375 96h12.375v138h-12.375V96Z"/></clipPath><clipPath id="C"><path fill="#fff" d="M504.75 134h12.375v100H504.75V134Z"/></clipPath><clipPath id="D"><path fill="#fff" d="M517.125 154H529.5v80h-12.375v-80Z"/></clipPath><clipPath id="E"><path fill="#fff" d="M529.5 96h12.375v138H529.5V96Z"/></clipPath><clipPath id="F"><path fill="#fff" d="M573.875 134h12.375v100h-12.375V134Z"/></clipPath><clipPath id="G"><path fill="#fff" d="M586.25 154h12.375v80H586.25v-80Z"/></clipPath><clipPath id="H"><path fill="#fff" d="M598.625 96H611v138h-12.375V96Z"/></clipPath><filter id="a" width="728" height="373" x="-30" y="-30" color-interpolation-filters="sRGB" filterUnits="userSpaceOnUse"><feFlood flood-opacity="0" result="BackgroundImageFix"/><feColorMatrix in="SourceAlpha" result="hardAlpha" values="0 0 0 0 0 0 0 0 0 0 0 0 0 0 0 0 0 0 127 0"/><feOffset/><feGaussianBlur stdDeviation="15"/><feComposite in2="hardAlpha" operator="out"/><feColorMatrix values="0 0 0 0 0 0 0 0 0 0 0 0 0 0 0 0 0 0 0.04 0"/><feBlend in2="BackgroundImageFix" result="effect1_dropShadow_7176_175854"/><feColorMatrix in="SourceAlpha" result="hardAlpha" values="0 0 0 0 0 0 0 0 0 0 0 0 0 0 0 0 0 0 127 0"/><feMorphology in="SourceAlpha" radius="20" result="effect2_dropShadow_7176_175854"/><feOffset dy="50"/><feGaussianBlur stdDeviation="25"/><feComposite in2="hardAlpha" operator="out"/><feColorMatrix values="0 0 0 0 0 0 0 0 0 0 0 0 0 0 0 0 0 0 0.15 0"/><feBlend in2="effect1_dropShadow_7176_175854" result="effect2_dropShadow_7176_175854"/><feBlend in="SourceGraphic" in2="effect2_dropShadow_7176_175854" result="shape"/></filter></defs></svg>