<svg width="626" height="209" viewBox="0 0 626 209" fill="none" xmlns="http://www.w3.org/2000/svg">
<rect width="626" height="209" fill="white"/>
<g clip-path="url(#clip0)">
<rect width="626" height="309.865" rx="6" fill="white"/>
<g opacity="0.82">
<path d="M39.0078 46.3945C37.0781 45.8398 35.6719 45.1602 34.7891 44.3555C33.9141 43.543 33.4766 42.543 33.4766 41.3555C33.4766 40.0117 34.0117 38.9023 35.082 38.0273C36.1602 37.1445 37.5586 36.7031 39.2773 36.7031C40.4492 36.7031 41.4922 36.9297 42.4062 37.3828C43.3281 37.8359 44.0391 38.4609 44.5391 39.2578C45.0469 40.0547 45.3008 40.9258 45.3008 41.8711H43.0391C43.0391 40.8398 42.7109 40.0312 42.0547 39.4453C41.3984 38.8516 40.4727 38.5547 39.2773 38.5547C38.168 38.5547 37.3008 38.8008 36.6758 39.293C36.0586 39.7773 35.75 40.4531 35.75 41.3203C35.75 42.0156 36.043 42.6055 36.6289 43.0898C37.2227 43.5664 38.2266 44.0039 39.6406 44.4023C41.0625 44.8008 42.1719 45.2422 42.9688 45.7266C43.7734 46.2031 44.3672 46.7617 44.75 47.4023C45.1406 48.043 45.3359 48.7969 45.3359 49.6641C45.3359 51.0469 44.7969 52.1562 43.7188 52.9922C42.6406 53.8203 41.1992 54.2344 39.3945 54.2344C38.2227 54.2344 37.1289 54.0117 36.1133 53.5664C35.0977 53.1133 34.3125 52.4961 33.7578 51.7148C33.2109 50.9336 32.9375 50.0469 32.9375 49.0547H35.1992C35.1992 50.0859 35.5781 50.9023 36.3359 51.5039C37.1016 52.0977 38.1211 52.3945 39.3945 52.3945C40.582 52.3945 41.4922 52.1523 42.125 51.668C42.7578 51.1836 43.0742 50.5234 43.0742 49.6875C43.0742 48.8516 42.7812 48.207 42.1953 47.7539C41.6094 47.293 40.5469 46.8398 39.0078 46.3945Z" fill="black"/>
<path d="M50.2461 54H48.0781V41.3203H50.2461V54ZM47.9023 37.957C47.9023 37.6055 48.0078 37.3086 48.2188 37.0664C48.4375 36.8242 48.7578 36.7031 49.1797 36.7031C49.6016 36.7031 49.9219 36.8242 50.1406 37.0664C50.3594 37.3086 50.4688 37.6055 50.4688 37.957C50.4688 38.3086 50.3594 38.6016 50.1406 38.8359C49.9219 39.0703 49.6016 39.1875 49.1797 39.1875C48.7578 39.1875 48.4375 39.0703 48.2188 38.8359C48.0078 38.6016 47.9023 38.3086 47.9023 37.957Z" fill="black"/>
<path d="M56.082 54H53.9141V36H56.082V54Z" fill="black"/>
<path d="M58.9883 47.543C58.9883 46.3008 59.2305 45.1836 59.7148 44.1914C60.207 43.1992 60.8867 42.4336 61.7539 41.8945C62.6289 41.3555 63.625 41.0859 64.7422 41.0859C66.4688 41.0859 67.8633 41.6836 68.9258 42.8789C69.9961 44.0742 70.5312 45.6641 70.5312 47.6484V47.8008C70.5312 49.0352 70.293 50.1445 69.8164 51.1289C69.3477 52.1055 68.6719 52.8672 67.7891 53.4141C66.9141 53.9609 65.9062 54.2344 64.7656 54.2344C63.0469 54.2344 61.6523 53.6367 60.582 52.4414C59.5195 51.2461 58.9883 49.6641 58.9883 47.6953V47.543ZM61.168 47.8008C61.168 49.207 61.4922 50.3359 62.1406 51.1875C62.7969 52.0391 63.6719 52.4648 64.7656 52.4648C65.8672 52.4648 66.7422 52.0352 67.3906 51.1758C68.0391 50.3086 68.3633 49.0977 68.3633 47.543C68.3633 46.1523 68.0312 45.0273 67.3672 44.168C66.7109 43.3008 65.8359 42.8672 64.7422 42.8672C63.6719 42.8672 62.8086 43.293 62.1523 44.1445C61.4961 44.9961 61.168 46.2148 61.168 47.8008Z" fill="black"/>
<path d="M80.6328 50.6367C80.6328 50.0508 80.4102 49.5977 79.9648 49.2773C79.5273 48.9492 78.7578 48.668 77.6562 48.4336C76.5625 48.1992 75.6914 47.918 75.043 47.5898C74.4023 47.2617 73.9258 46.8711 73.6133 46.418C73.3086 45.9648 73.1562 45.4258 73.1562 44.8008C73.1562 43.7617 73.5938 42.8828 74.4688 42.1641C75.3516 41.4453 76.4766 41.0859 77.8438 41.0859C79.2812 41.0859 80.4453 41.457 81.3359 42.1992C82.2344 42.9414 82.6836 43.8906 82.6836 45.0469H80.5039C80.5039 44.4531 80.25 43.9414 79.7422 43.5117C79.2422 43.082 78.6094 42.8672 77.8438 42.8672C77.0547 42.8672 76.4375 43.0391 75.9922 43.3828C75.5469 43.7266 75.3242 44.1758 75.3242 44.7305C75.3242 45.2539 75.5312 45.6484 75.9453 45.9141C76.3594 46.1797 77.1055 46.4336 78.1836 46.6758C79.2695 46.918 80.1484 47.207 80.8203 47.543C81.4922 47.8789 81.9883 48.2852 82.3086 48.7617C82.6367 49.2305 82.8008 49.8047 82.8008 50.4844C82.8008 51.6172 82.3477 52.5273 81.4414 53.2148C80.5352 53.8945 79.3594 54.2344 77.9141 54.2344C76.8984 54.2344 76 54.0547 75.2188 53.6953C74.4375 53.3359 73.8242 52.8359 73.3789 52.1953C72.9414 51.5469 72.7227 50.8477 72.7227 50.0977H74.8906C74.9297 50.8242 75.2188 51.4023 75.7578 51.832C76.3047 52.2539 77.0234 52.4648 77.9141 52.4648C78.7344 52.4648 79.3906 52.3008 79.8828 51.9727C80.3828 51.6367 80.6328 51.1914 80.6328 50.6367Z" fill="black"/>
<path d="M102.805 51.0117L105.242 41.3203H107.41L103.719 54H101.961L98.8789 44.3906L95.8789 54H94.1211L90.4414 41.3203H92.5977L95.0938 50.8125L98.0469 41.3203H99.793L102.805 51.0117Z" fill="black"/>
<path d="M114.887 54.2344C113.168 54.2344 111.77 53.6719 110.691 52.5469C109.613 51.4141 109.074 49.9023 109.074 48.0117V47.6133C109.074 46.3555 109.312 45.2344 109.789 44.25C110.273 43.2578 110.945 42.4844 111.805 41.9297C112.672 41.3672 113.609 41.0859 114.617 41.0859C116.266 41.0859 117.547 41.6289 118.461 42.7148C119.375 43.8008 119.832 45.3555 119.832 47.3789V48.2812H111.242C111.273 49.5312 111.637 50.543 112.332 51.3164C113.035 52.082 113.926 52.4648 115.004 52.4648C115.77 52.4648 116.418 52.3086 116.949 51.9961C117.48 51.6836 117.945 51.2695 118.344 50.7539L119.668 51.7852C118.605 53.418 117.012 54.2344 114.887 54.2344ZM114.617 42.8672C113.742 42.8672 113.008 43.1875 112.414 43.8281C111.82 44.4609 111.453 45.3516 111.312 46.5H117.664V46.3359C117.602 45.2344 117.305 44.3828 116.773 43.7812C116.242 43.1719 115.523 42.8672 114.617 42.8672Z" fill="black"/>
<path d="M124.707 54H122.539V41.3203H124.707V54ZM122.363 37.957C122.363 37.6055 122.469 37.3086 122.68 37.0664C122.898 36.8242 123.219 36.7031 123.641 36.7031C124.062 36.7031 124.383 36.8242 124.602 37.0664C124.82 37.3086 124.93 37.6055 124.93 37.957C124.93 38.3086 124.82 38.6016 124.602 38.8359C124.383 39.0703 124.062 39.1875 123.641 39.1875C123.219 39.1875 122.898 39.0703 122.68 38.8359C122.469 38.6016 122.363 38.3086 122.363 37.957Z" fill="black"/>
<path d="M127.672 47.5547C127.672 45.5781 128.129 44.0078 129.043 42.8438C129.957 41.6719 131.168 41.0859 132.676 41.0859C134.223 41.0859 135.43 41.6328 136.297 42.7266L136.402 41.3203H138.383V53.6953C138.383 55.3359 137.895 56.6289 136.918 57.5742C135.949 58.5195 134.645 58.9922 133.004 58.9922C132.09 58.9922 131.195 58.7969 130.32 58.4062C129.445 58.0156 128.777 57.4805 128.316 56.8008L129.441 55.5C130.371 56.6484 131.508 57.2227 132.852 57.2227C133.906 57.2227 134.727 56.9258 135.312 56.332C135.906 55.7383 136.203 54.9023 136.203 53.8242V52.7344C135.336 53.7344 134.152 54.2344 132.652 54.2344C131.168 54.2344 129.965 53.6367 129.043 52.4414C128.129 51.2461 127.672 49.6172 127.672 47.5547ZM129.852 47.8008C129.852 49.2305 130.145 50.3555 130.73 51.1758C131.316 51.9883 132.137 52.3945 133.191 52.3945C134.559 52.3945 135.562 51.7734 136.203 50.5312V44.7422C135.539 43.5312 134.543 42.9258 133.215 42.9258C132.16 42.9258 131.336 43.3359 130.742 44.1562C130.148 44.9766 129.852 46.1914 129.852 47.8008Z" fill="black"/>
<path d="M143.832 42.8555C144.793 41.6758 146.043 41.0859 147.582 41.0859C150.262 41.0859 151.613 42.5977 151.637 45.6211V54H149.469V45.6094C149.461 44.6953 149.25 44.0195 148.836 43.582C148.43 43.1445 147.793 42.9258 146.926 42.9258C146.223 42.9258 145.605 43.1133 145.074 43.4883C144.543 43.8633 144.129 44.3555 143.832 44.9648V54H141.664V36H143.832V42.8555Z" fill="black"/>
<path d="M157.824 38.25V41.3203H160.191V42.9961H157.824V50.8594C157.824 51.3672 157.93 51.75 158.141 52.0078C158.352 52.2578 158.711 52.3828 159.219 52.3828C159.469 52.3828 159.812 52.3359 160.25 52.2422V54C159.68 54.1562 159.125 54.2344 158.586 54.2344C157.617 54.2344 156.887 53.9414 156.395 53.3555C155.902 52.7695 155.656 51.9375 155.656 50.8594V42.9961H153.348V41.3203H155.656V38.25H157.824Z" fill="black"/>
<path d="M170.117 50.6367C170.117 50.0508 169.895 49.5977 169.449 49.2773C169.012 48.9492 168.242 48.668 167.141 48.4336C166.047 48.1992 165.176 47.918 164.527 47.5898C163.887 47.2617 163.41 46.8711 163.098 46.418C162.793 45.9648 162.641 45.4258 162.641 44.8008C162.641 43.7617 163.078 42.8828 163.953 42.1641C164.836 41.4453 165.961 41.0859 167.328 41.0859C168.766 41.0859 169.93 41.457 170.82 42.1992C171.719 42.9414 172.168 43.8906 172.168 45.0469H169.988C169.988 44.4531 169.734 43.9414 169.227 43.5117C168.727 43.082 168.094 42.8672 167.328 42.8672C166.539 42.8672 165.922 43.0391 165.477 43.3828C165.031 43.7266 164.809 44.1758 164.809 44.7305C164.809 45.2539 165.016 45.6484 165.43 45.9141C165.844 46.1797 166.59 46.4336 167.668 46.6758C168.754 46.918 169.633 47.207 170.305 47.543C170.977 47.8789 171.473 48.2852 171.793 48.7617C172.121 49.2305 172.285 49.8047 172.285 50.4844C172.285 51.6172 171.832 52.5273 170.926 53.2148C170.02 53.8945 168.844 54.2344 167.398 54.2344C166.383 54.2344 165.484 54.0547 164.703 53.6953C163.922 53.3359 163.309 52.8359 162.863 52.1953C162.426 51.5469 162.207 50.8477 162.207 50.0977H164.375C164.414 50.8242 164.703 51.4023 165.242 51.832C165.789 52.2539 166.508 52.4648 167.398 52.4648C168.219 52.4648 168.875 52.3008 169.367 51.9727C169.867 51.6367 170.117 51.1914 170.117 50.6367Z" fill="black"/>
</g>
<g opacity="0.54">
<path d="M577 46H575V51H580V49H577V46ZM575 42H577V39H580V37H575V42ZM587 49H584V51H589V46H587V49ZM584 37V39H587V42H589V37H584Z" fill="black"/>
</g>
<rect x="57" y="92" width="537" height="67" fill="white"/>
<path d="M25.7969 91.6064H26.5435C27.0125 91.5993 27.3813 91.4757 27.6499 91.2358C27.9185 90.9959 28.0527 90.6719 28.0527 90.2637C28.0527 89.347 27.5962 88.8887 26.6831 88.8887C26.2534 88.8887 25.9097 89.0122 25.6519 89.2593C25.3976 89.5028 25.2705 89.8268 25.2705 90.2314H24.2769C24.2769 89.612 24.5024 89.0981 24.9536 88.6899C25.4084 88.2782 25.9849 88.0723 26.6831 88.0723C27.4207 88.0723 27.999 88.2674 28.418 88.6577C28.8369 89.048 29.0464 89.5905 29.0464 90.2852C29.0464 90.6253 28.9354 90.9548 28.7134 91.2734C28.495 91.5921 28.196 91.8302 27.8164 91.9878C28.2461 92.1239 28.5773 92.3494 28.8101 92.6646C29.0464 92.9797 29.1646 93.3646 29.1646 93.8193C29.1646 94.5212 28.9354 95.078 28.4771 95.4897C28.0187 95.9015 27.4225 96.1074 26.6885 96.1074C25.9544 96.1074 25.3564 95.9087 24.8945 95.5112C24.4362 95.1138 24.207 94.5892 24.207 93.9375H25.2061C25.2061 94.3493 25.3403 94.6787 25.6089 94.9258C25.8774 95.1729 26.2373 95.2964 26.6885 95.2964C27.1683 95.2964 27.5353 95.1711 27.7896 94.9204C28.0438 94.6698 28.1709 94.3099 28.1709 93.8408C28.1709 93.3861 28.0312 93.0369 27.752 92.7935C27.4727 92.55 27.0698 92.4246 26.5435 92.4175H25.7969V91.6064Z" fill="black" fill-opacity="0.6"/>
<path d="M35.5426 92.6646C35.5426 93.8283 35.3439 94.693 34.9464 95.2588C34.549 95.8245 33.9277 96.1074 33.0827 96.1074C32.2483 96.1074 31.6307 95.8317 31.2296 95.2803C30.8286 94.7253 30.6209 93.8981 30.6066 92.7988V91.4722C30.6066 90.3228 30.8053 89.4688 31.2028 88.9102C31.6002 88.3516 32.2233 88.0723 33.0719 88.0723C33.9134 88.0723 34.5329 88.3426 34.9303 88.8833C35.3278 89.4204 35.5319 90.2511 35.5426 91.3755V92.6646ZM34.549 91.3057C34.549 90.4642 34.4308 89.8519 34.1945 89.4688C33.9581 89.082 33.584 88.8887 33.0719 88.8887C32.5635 88.8887 32.1928 89.0802 31.9601 89.4634C31.7274 89.8465 31.6074 90.4355 31.6002 91.2305V92.8203C31.6002 93.6654 31.722 94.2902 31.9655 94.6948C32.2125 95.0959 32.5849 95.2964 33.0827 95.2964C33.5732 95.2964 33.9367 95.1066 34.173 94.7271C34.4129 94.3475 34.5382 93.7495 34.549 92.9331V91.3057Z" fill="black" fill-opacity="0.6"/>
<path d="M41.8294 92.6646C41.8294 93.8283 41.6306 94.693 41.2332 95.2588C40.8357 95.8245 40.2145 96.1074 39.3694 96.1074C38.5351 96.1074 37.9174 95.8317 37.5164 95.2803C37.1153 94.7253 36.9077 93.8981 36.8933 92.7988V91.4722C36.8933 90.3228 37.0921 89.4688 37.4895 88.9102C37.887 88.3516 38.51 88.0723 39.3587 88.0723C40.2001 88.0723 40.8196 88.3426 41.2171 88.8833C41.6145 89.4204 41.8186 90.2511 41.8294 91.3755V92.6646ZM40.8357 91.3057C40.8357 90.4642 40.7176 89.8519 40.4812 89.4688C40.2449 89.082 39.8707 88.8887 39.3587 88.8887C38.8502 88.8887 38.4796 89.0802 38.2469 89.4634C38.0141 89.8465 37.8942 90.4355 37.887 91.2305V92.8203C37.887 93.6654 38.0087 94.2902 38.2522 94.6948C38.4993 95.0959 38.8717 95.2964 39.3694 95.2964C39.86 95.2964 40.2234 95.1066 40.4597 94.7271C40.6997 94.3475 40.825 93.7495 40.8357 92.9331V91.3057Z" fill="black" fill-opacity="0.6"/>
<path d="M47.501 88.7812V90.1885H48.586V90.9565H47.501V94.5605C47.501 94.7933 47.5494 94.9688 47.6461 95.0869C47.7427 95.2015 47.9074 95.2588 48.1402 95.2588C48.2548 95.2588 48.4123 95.2373 48.6129 95.1943V96C48.3515 96.0716 48.0972 96.1074 47.8502 96.1074C47.4061 96.1074 47.0713 95.9731 46.8458 95.7046C46.6202 95.436 46.5074 95.0547 46.5074 94.5605V90.9565H45.4493V90.1885H46.5074V88.7812H47.501Z" fill="black" fill-opacity="0.6"/>
<path d="M29.4756 118.333H24.3516V117.619L27.0586 114.611C27.4596 114.156 27.7354 113.787 27.8857 113.504C28.0397 113.218 28.1167 112.923 28.1167 112.618C28.1167 112.21 27.9932 111.875 27.7461 111.614C27.499 111.352 27.1696 111.222 26.7578 111.222C26.2637 111.222 25.8787 111.363 25.603 111.646C25.3309 111.925 25.1948 112.316 25.1948 112.817H24.2012C24.2012 112.097 24.4321 111.515 24.894 111.071C25.3595 110.627 25.9808 110.405 26.7578 110.405C27.4847 110.405 28.0594 110.597 28.4819 110.98C28.9045 111.36 29.1157 111.866 29.1157 112.5C29.1157 113.27 28.6252 114.187 27.644 115.25L25.5493 117.522H29.4756V118.333Z" fill="black" fill-opacity="0.6"/>
<path d="M35.5421 114.998C35.5421 116.161 35.3434 117.026 34.9459 117.592C34.5485 118.158 33.9272 118.44 33.0822 118.44C32.2479 118.44 31.6302 118.165 31.2291 117.613C30.8281 117.058 30.6204 116.231 30.6061 115.132V113.805C30.6061 112.656 30.8048 111.802 31.2023 111.243C31.5997 110.685 32.2228 110.405 33.0714 110.405C33.9129 110.405 34.5324 110.676 34.9298 111.216C35.3273 111.753 35.5314 112.584 35.5421 113.708V114.998ZM34.5485 113.639C34.5485 112.797 34.4303 112.185 34.194 111.802C33.9577 111.415 33.5835 111.222 33.0714 111.222C32.563 111.222 32.1924 111.413 31.9596 111.796C31.7269 112.18 31.6069 112.769 31.5997 113.563V115.153C31.5997 115.998 31.7215 116.623 31.965 117.028C32.2121 117.429 32.5844 117.629 33.0822 117.629C33.5727 117.629 33.9362 117.44 34.1725 117.06C34.4124 116.681 34.5377 116.083 34.5485 115.266V113.639Z" fill="black" fill-opacity="0.6"/>
<path d="M41.8289 114.998C41.8289 116.161 41.6302 117.026 41.2327 117.592C40.8352 118.158 40.214 118.44 39.3689 118.44C38.5346 118.44 37.9169 118.165 37.5159 117.613C37.1149 117.058 36.9072 116.231 36.8929 115.132V113.805C36.8929 112.656 37.0916 111.802 37.489 111.243C37.8865 110.685 38.5096 110.405 39.3582 110.405C40.1997 110.405 40.8191 110.676 41.2166 111.216C41.614 111.753 41.8181 112.584 41.8289 113.708V114.998ZM40.8352 113.639C40.8352 112.797 40.7171 112.185 40.4807 111.802C40.2444 111.415 39.8702 111.222 39.3582 111.222C38.8497 111.222 38.4791 111.413 38.2464 111.796C38.0136 112.18 37.8937 112.769 37.8865 113.563V115.153C37.8865 115.998 38.0082 116.623 38.2517 117.028C38.4988 117.429 38.8712 117.629 39.3689 117.629C39.8595 117.629 40.2229 117.44 40.4593 117.06C40.6992 116.681 40.8245 116.083 40.8352 115.266V113.639Z" fill="black" fill-opacity="0.6"/>
<path d="M47.5005 111.114V112.521H48.5855V113.29H47.5005V116.894C47.5005 117.126 47.5489 117.302 47.6456 117.42C47.7422 117.535 47.907 117.592 48.1397 117.592C48.2543 117.592 48.4118 117.57 48.6124 117.527V118.333C48.351 118.405 48.0967 118.44 47.8497 118.44C47.4057 118.44 47.0709 118.306 46.8453 118.038C46.6197 117.769 46.5069 117.388 46.5069 116.894V113.29H45.4488V112.521H46.5069V111.114H47.5005Z" fill="black" fill-opacity="0.6"/>
<path d="M27.6177 140.667H26.6187V134.044L24.6152 134.78V133.878L27.4619 132.809H27.6177V140.667Z" fill="black" fill-opacity="0.6"/>
<path d="M35.5426 137.332C35.5426 138.495 35.3439 139.36 34.9464 139.926C34.549 140.492 33.9277 140.774 33.0827 140.774C32.2483 140.774 31.6307 140.499 31.2296 139.947C30.8286 139.392 30.6209 138.565 30.6066 137.466V136.139C30.6066 134.99 30.8053 134.136 31.2028 133.577C31.6002 133.019 32.2233 132.739 33.0719 132.739C33.9134 132.739 34.5329 133.01 34.9303 133.55C35.3278 134.087 35.5319 134.918 35.5426 136.042V137.332ZM34.549 135.973C34.549 135.131 34.4308 134.519 34.1945 134.136C33.9581 133.749 33.584 133.556 33.0719 133.556C32.5635 133.556 32.1928 133.747 31.9601 134.13C31.7274 134.514 31.6074 135.103 31.6002 135.897V137.487C31.6002 138.332 31.722 138.957 31.9655 139.362C32.2125 139.763 32.5849 139.963 33.0827 139.963C33.5732 139.963 33.9367 139.774 34.173 139.394C34.4129 139.014 34.5382 138.417 34.549 137.6V135.973Z" fill="black" fill-opacity="0.6"/>
<path d="M41.8294 137.332C41.8294 138.495 41.6306 139.36 41.2332 139.926C40.8357 140.492 40.2145 140.774 39.3694 140.774C38.5351 140.774 37.9174 140.499 37.5164 139.947C37.1153 139.392 36.9077 138.565 36.8933 137.466V136.139C36.8933 134.99 37.0921 134.136 37.4895 133.577C37.887 133.019 38.51 132.739 39.3587 132.739C40.2001 132.739 40.8196 133.01 41.2171 133.55C41.6145 134.087 41.8186 134.918 41.8294 136.042V137.332ZM40.8357 135.973C40.8357 135.131 40.7176 134.519 40.4812 134.136C40.2449 133.749 39.8707 133.556 39.3587 133.556C38.8502 133.556 38.4796 133.747 38.2469 134.13C38.0141 134.514 37.8942 135.103 37.887 135.897V137.487C37.887 138.332 38.0087 138.957 38.2522 139.362C38.4993 139.763 38.8717 139.963 39.3694 139.963C39.86 139.963 40.2234 139.774 40.4597 139.394C40.6997 139.014 40.825 138.417 40.8357 137.6V135.973Z" fill="black" fill-opacity="0.6"/>
<path d="M47.501 133.448V134.855H48.586V135.624H47.501V139.228C47.501 139.46 47.5494 139.636 47.6461 139.754C47.7427 139.868 47.9074 139.926 48.1402 139.926C48.2548 139.926 48.4123 139.904 48.6129 139.861V140.667C48.3515 140.739 48.0972 140.774 47.8502 140.774C47.4061 140.774 47.0713 140.64 46.8458 140.372C46.6202 140.103 46.5074 139.722 46.5074 139.228V135.624H45.4493V134.855H46.5074V133.448H47.501Z" fill="black" fill-opacity="0.6"/>
<path d="M41.8306 159.665C41.8306 160.828 41.6318 161.693 41.2344 162.259C40.8369 162.825 40.2157 163.107 39.3706 163.107C38.5363 163.107 37.9186 162.832 37.5176 162.28C37.1165 161.725 36.9089 160.898 36.8945 159.799V158.472C36.8945 157.323 37.0933 156.469 37.4907 155.91C37.8882 155.352 38.5112 155.072 39.3599 155.072C40.2013 155.072 40.8208 155.343 41.2183 155.883C41.6157 156.42 41.8198 157.251 41.8306 158.375V159.665ZM40.8369 158.306C40.8369 157.464 40.7188 156.852 40.4824 156.469C40.2461 156.082 39.8719 155.889 39.3599 155.889C38.8514 155.889 38.4808 156.08 38.248 156.463C38.0153 156.847 37.8953 157.436 37.8882 158.23V159.82C37.8882 160.665 38.0099 161.29 38.2534 161.695C38.5005 162.096 38.8729 162.296 39.3706 162.296C39.8612 162.296 40.2246 162.107 40.4609 161.727C40.7008 161.347 40.8262 160.75 40.8369 159.933V158.306Z" fill="black" fill-opacity="0.6"/>
<path d="M47.5022 155.781V157.188H48.5872V157.957H47.5022V161.561C47.5022 161.793 47.5506 161.969 47.6472 162.087C47.7439 162.201 47.9086 162.259 48.1414 162.259C48.256 162.259 48.4135 162.237 48.614 162.194V163C48.3527 163.072 48.0984 163.107 47.8513 163.107C47.4073 163.107 47.0725 162.973 46.847 162.705C46.6214 162.436 46.5086 162.055 46.5086 161.561V157.957H45.4505V157.188H46.5086V155.781H47.5022Z" fill="black" fill-opacity="0.6"/>
<path d="M58 113.667H593V114.667H58V113.667Z" fill="#D9D9D9"/>
<path d="M58 135.333H593V136.333H58V135.333Z" fill="#D9D9D9"/>
<path d="M58 157H593V158H58V157Z" fill="#D9D9D9"/>
<path d="M94.75 158L94.75 93L95.75 93L95.75 158L94.75 158Z" fill="#D9D9D9"/>
<path d="M171.5 158L171.5 93L172.5 93L172.5 158L171.5 158Z" fill="#D9D9D9"/>
<path d="M248.25 158L248.25 93L249.25 93L249.25 158L248.25 158Z" fill="#D9D9D9"/>
<path d="M325 158L325 93L326 93L326 158L325 158Z" fill="#D9D9D9"/>
<path d="M401.75 158L401.75 93L402.75 93L402.75 158L401.75 158Z" fill="#D9D9D9"/>
<path d="M478.5 158L478.5 93L479.5 93L479.5 158L478.5 158Z" fill="#D9D9D9"/>
<path d="M555.25 158L555.25 93L556.25 93L556.25 158L555.25 158Z" fill="#D9D9D9"/>
<path d="M78.9375 174V166.18H81.145C81.8254 166.18 82.4269 166.33 82.9497 166.631C83.4725 166.932 83.8753 167.36 84.1582 167.915C84.4447 168.47 84.5897 169.107 84.5933 169.827V170.326C84.5933 171.064 84.45 171.71 84.1636 172.265C83.8807 172.82 83.4743 173.246 82.9443 173.543C82.418 173.841 81.8039 173.993 81.1021 174H78.9375ZM79.9688 167.028V173.157H81.0537C81.8486 173.157 82.4663 172.91 82.9067 172.416C83.3507 171.921 83.5728 171.218 83.5728 170.305V169.848C83.5728 168.96 83.3633 168.271 82.9443 167.78C82.529 167.286 81.9382 167.035 81.1719 167.028H79.9688Z" fill="black" fill-opacity="0.6"/>
<path d="M88.5221 174.107C87.7343 174.107 87.0934 173.85 86.5993 173.334C86.1051 172.815 85.858 172.122 85.858 171.255V171.073C85.858 170.496 85.9673 169.982 86.1857 169.531C86.4077 169.076 86.7156 168.722 87.1095 168.468C87.507 168.21 87.9367 168.081 88.3986 168.081C89.1541 168.081 89.7413 168.33 90.1603 168.828C90.5792 169.325 90.7887 170.038 90.7887 170.965V171.379H86.8517C86.866 171.952 87.0325 172.416 87.3512 172.77C87.6735 173.121 88.0817 173.296 88.5758 173.296C88.9267 173.296 89.2239 173.225 89.4674 173.082C89.7109 172.938 89.924 172.749 90.1066 172.512L90.7135 172.985C90.2265 173.733 89.4961 174.107 88.5221 174.107ZM88.3986 168.897C87.9975 168.897 87.6609 169.044 87.3888 169.338C87.1167 169.628 86.9484 170.036 86.8839 170.562H89.7951V170.487C89.7664 169.982 89.6303 169.592 89.3869 169.316C89.1434 169.037 88.8139 168.897 88.3986 168.897Z" fill="black" fill-opacity="0.6"/>
<path d="M94.3846 173.296C94.739 173.296 95.0488 173.189 95.3137 172.974C95.5787 172.759 95.7255 172.491 95.7542 172.168H96.6941C96.6762 172.501 96.5616 172.818 96.3504 173.119C96.1391 173.42 95.8562 173.66 95.5017 173.839C95.1508 174.018 94.7784 174.107 94.3846 174.107C93.5932 174.107 92.963 173.844 92.4939 173.318C92.0284 172.788 91.7957 172.065 91.7957 171.148V170.981C91.7957 170.416 91.8995 169.913 92.1072 169.472C92.3149 169.032 92.6121 168.69 92.9988 168.446C93.3891 168.203 93.8492 168.081 94.3792 168.081C95.0309 168.081 95.5716 168.276 96.0012 168.667C96.4345 169.057 96.6655 169.563 96.6941 170.187H95.7542C95.7255 169.811 95.5823 169.503 95.3245 169.263C95.0703 169.019 94.7552 168.897 94.3792 168.897C93.8743 168.897 93.4822 169.08 93.2029 169.445C92.9272 169.807 92.7893 170.332 92.7893 171.019V171.207C92.7893 171.877 92.9272 172.392 93.2029 172.754C93.4786 173.116 93.8725 173.296 94.3846 173.296Z" fill="black" fill-opacity="0.6"/>
<path d="M105.782 174H100.658V173.286L103.365 170.278C103.766 169.823 104.042 169.454 104.192 169.171C104.346 168.885 104.423 168.59 104.423 168.285C104.423 167.877 104.299 167.542 104.052 167.281C103.805 167.019 103.476 166.889 103.064 166.889C102.57 166.889 102.185 167.03 101.909 167.313C101.637 167.592 101.501 167.983 101.501 168.484H100.507C100.507 167.764 100.738 167.182 101.2 166.738C101.666 166.294 102.287 166.072 103.064 166.072C103.791 166.072 104.366 166.264 104.788 166.647C105.211 167.027 105.422 167.533 105.422 168.167C105.422 168.937 104.931 169.854 103.95 170.917L101.856 173.189H105.782V174Z" fill="black" fill-opacity="0.6"/>
<path d="M112.069 174H106.945V173.286L109.652 170.278C110.053 169.823 110.328 169.454 110.479 169.171C110.633 168.885 110.71 168.59 110.71 168.285C110.71 167.877 110.586 167.542 110.339 167.281C110.092 167.019 109.763 166.889 109.351 166.889C108.857 166.889 108.472 167.03 108.196 167.313C107.924 167.592 107.788 167.983 107.788 168.484H106.794C106.794 167.764 107.025 167.182 107.487 166.738C107.953 166.294 108.574 166.072 109.351 166.072C110.078 166.072 110.652 166.264 111.075 166.647C111.497 167.027 111.709 167.533 111.709 168.167C111.709 168.937 111.218 169.854 110.237 170.917L108.142 173.189H112.069V174Z" fill="black" fill-opacity="0.6"/>
<path d="M155.688 174V166.18H157.895C158.575 166.18 159.177 166.33 159.7 166.631C160.222 166.932 160.625 167.36 160.908 167.915C161.195 168.47 161.34 169.107 161.343 169.827V170.326C161.343 171.064 161.2 171.71 160.914 172.265C160.631 172.82 160.224 173.246 159.694 173.543C159.168 173.841 158.554 173.993 157.852 174H155.688ZM156.719 167.028V173.157H157.804C158.599 173.157 159.216 172.91 159.657 172.416C160.101 171.921 160.323 171.218 160.323 170.305V169.848C160.323 168.96 160.113 168.271 159.694 167.78C159.279 167.286 158.688 167.035 157.922 167.028H156.719Z" fill="black" fill-opacity="0.6"/>
<path d="M165.272 174.107C164.484 174.107 163.843 173.85 163.349 173.334C162.855 172.815 162.608 172.122 162.608 171.255V171.073C162.608 170.496 162.717 169.982 162.936 169.531C163.158 169.076 163.466 168.722 163.86 168.468C164.257 168.21 164.687 168.081 165.149 168.081C165.904 168.081 166.491 168.33 166.91 168.828C167.329 169.325 167.539 170.038 167.539 170.965V171.379H163.602C163.616 171.952 163.783 172.416 164.101 172.77C164.423 173.121 164.832 173.296 165.326 173.296C165.677 173.296 165.974 173.225 166.217 173.082C166.461 172.938 166.674 172.749 166.857 172.512L167.464 172.985C166.977 173.733 166.246 174.107 165.272 174.107ZM165.149 168.897C164.748 168.897 164.411 169.044 164.139 169.338C163.867 169.628 163.698 170.036 163.634 170.562H166.545V170.487C166.516 169.982 166.38 169.592 166.137 169.316C165.893 169.037 165.564 168.897 165.149 168.897Z" fill="black" fill-opacity="0.6"/>
<path d="M171.135 173.296C171.489 173.296 171.799 173.189 172.064 172.974C172.329 172.759 172.476 172.491 172.504 172.168H173.444C173.426 172.501 173.312 172.818 173.1 173.119C172.889 173.42 172.606 173.66 172.252 173.839C171.901 174.018 171.528 174.107 171.135 174.107C170.343 174.107 169.713 173.844 169.244 173.318C168.778 172.788 168.546 172.065 168.546 171.148V170.981C168.546 170.416 168.65 169.913 168.857 169.472C169.065 169.032 169.362 168.69 169.749 168.446C170.139 168.203 170.599 168.081 171.129 168.081C171.781 168.081 172.322 168.276 172.751 168.667C173.185 169.057 173.415 169.563 173.444 170.187H172.504C172.476 169.811 172.332 169.503 172.074 169.263C171.82 169.019 171.505 168.897 171.129 168.897C170.624 168.897 170.232 169.08 169.953 169.445C169.677 169.807 169.539 170.332 169.539 171.019V171.207C169.539 171.877 169.677 172.392 169.953 172.754C170.229 173.116 170.623 173.296 171.135 173.296Z" fill="black" fill-opacity="0.6"/>
<path d="M182.532 174H177.408V173.286L180.115 170.278C180.516 169.823 180.792 169.454 180.942 169.171C181.096 168.885 181.173 168.59 181.173 168.285C181.173 167.877 181.049 167.542 180.802 167.281C180.555 167.019 180.226 166.889 179.814 166.889C179.32 166.889 178.935 167.03 178.659 167.313C178.387 167.592 178.251 167.983 178.251 168.484H177.257C177.257 167.764 177.488 167.182 177.95 166.738C178.416 166.294 179.037 166.072 179.814 166.072C180.541 166.072 181.116 166.264 181.538 166.647C181.961 167.027 182.172 167.533 182.172 168.167C182.172 168.937 181.681 169.854 180.7 170.917L178.606 173.189H182.532V174Z" fill="black" fill-opacity="0.6"/>
<path d="M188.743 166.738L185.505 174H184.463L187.691 166.996H183.458V166.18H188.743V166.738Z" fill="black" fill-opacity="0.6"/>
<path d="M239.2 166.18H240.237V171.718C240.237 172.466 240.011 173.052 239.56 173.474C239.112 173.897 238.514 174.108 237.766 174.108C236.989 174.108 236.384 173.909 235.951 173.512C235.517 173.114 235.301 172.557 235.301 171.841H236.332C236.332 172.289 236.454 172.638 236.697 172.889C236.944 173.139 237.301 173.265 237.766 173.265C238.192 173.265 238.536 173.13 238.797 172.862C239.062 172.593 239.197 172.217 239.2 171.734V166.18Z" fill="black" fill-opacity="0.6"/>
<path d="M245.535 174C245.478 173.886 245.431 173.682 245.396 173.388C244.934 173.868 244.382 174.108 243.741 174.108C243.168 174.108 242.698 173.947 242.329 173.625C241.964 173.299 241.781 172.887 241.781 172.389C241.781 171.784 242.01 171.315 242.468 170.982C242.93 170.645 243.578 170.477 244.413 170.477H245.38V170.021C245.38 169.673 245.276 169.397 245.068 169.193C244.86 168.986 244.554 168.882 244.15 168.882C243.795 168.882 243.498 168.971 243.258 169.15C243.018 169.329 242.898 169.546 242.898 169.8H241.899C241.899 169.51 242.001 169.231 242.205 168.962C242.413 168.69 242.692 168.475 243.043 168.318C243.398 168.16 243.786 168.082 244.209 168.082C244.878 168.082 245.403 168.25 245.782 168.586C246.162 168.919 246.359 169.38 246.373 169.967V172.642C246.373 173.175 246.441 173.599 246.577 173.915V174H245.535ZM243.886 173.243C244.198 173.243 244.493 173.163 244.773 173.001C245.052 172.84 245.254 172.631 245.38 172.373V171.181H244.601C243.383 171.181 242.775 171.537 242.775 172.25C242.775 172.561 242.878 172.805 243.086 172.98C243.294 173.155 243.561 173.243 243.886 173.243Z" fill="black" fill-opacity="0.6"/>
<path d="M248.981 168.189L249.013 168.919C249.457 168.361 250.037 168.082 250.753 168.082C251.981 168.082 252.601 168.774 252.612 170.16V174H251.618V170.155C251.614 169.736 251.518 169.426 251.328 169.226C251.142 169.025 250.85 168.925 250.452 168.925C250.13 168.925 249.847 169.011 249.604 169.183C249.36 169.354 249.171 169.58 249.034 169.859V174H248.041V168.189H248.981Z" fill="black" fill-opacity="0.6"/>
<path d="M260.222 174H259.223V167.378L257.22 168.114V167.211L260.066 166.143H260.222V174Z" fill="black" fill-opacity="0.6"/>
<path d="M315.95 166.179H316.987V171.717C316.987 172.465 316.761 173.051 316.31 173.473C315.862 173.896 315.264 174.107 314.516 174.107C313.739 174.107 313.134 173.908 312.701 173.511C312.267 173.113 312.051 172.556 312.051 171.84H313.082C313.082 172.288 313.204 172.637 313.447 172.888C313.694 173.138 314.051 173.264 314.516 173.264C314.942 173.264 315.286 173.129 315.547 172.861C315.812 172.592 315.947 172.216 315.95 171.733V166.179Z" fill="black" fill-opacity="0.6"/>
<path d="M322.285 174C322.228 173.885 322.181 173.681 322.146 173.387C321.684 173.867 321.132 174.107 320.491 174.107C319.918 174.107 319.448 173.946 319.079 173.624C318.714 173.298 318.531 172.886 318.531 172.388C318.531 171.783 318.76 171.314 319.218 170.981C319.68 170.644 320.328 170.476 321.163 170.476H322.13V170.02C322.13 169.672 322.026 169.396 321.818 169.192C321.61 168.985 321.304 168.881 320.9 168.881C320.545 168.881 320.248 168.97 320.008 169.149C319.768 169.328 319.648 169.545 319.648 169.799H318.649C318.649 169.509 318.751 169.23 318.955 168.961C319.163 168.689 319.442 168.474 319.793 168.317C320.148 168.159 320.536 168.081 320.959 168.081C321.628 168.081 322.153 168.249 322.532 168.585C322.912 168.918 323.109 169.379 323.123 169.966V172.641C323.123 173.174 323.191 173.598 323.327 173.914V174H322.285ZM320.636 173.242C320.948 173.242 321.243 173.162 321.523 173C321.802 172.839 322.004 172.63 322.13 172.372V171.18H321.351C320.133 171.18 319.525 171.536 319.525 172.249C319.525 172.56 319.628 172.804 319.836 172.979C320.044 173.154 320.311 173.242 320.636 173.242Z" fill="black" fill-opacity="0.6"/>
<path d="M325.731 168.188L325.763 168.918C326.207 168.36 326.787 168.081 327.503 168.081C328.731 168.081 329.351 168.773 329.362 170.159V174H328.368V170.154C328.364 169.735 328.268 169.425 328.078 169.225C327.892 169.024 327.6 168.924 327.202 168.924C326.88 168.924 326.597 169.01 326.354 169.182C326.11 169.354 325.921 169.579 325.784 169.858V174H324.791V168.188H325.731Z" fill="black" fill-opacity="0.6"/>
<path d="M337.606 166.174V167.017H337.423C336.65 167.031 336.034 167.261 335.576 167.705C335.117 168.149 334.852 168.773 334.781 169.579C335.193 169.106 335.755 168.87 336.467 168.87C337.148 168.87 337.69 169.11 338.095 169.59C338.503 170.07 338.707 170.689 338.707 171.448C338.707 172.254 338.487 172.898 338.046 173.382C337.61 173.865 337.022 174.107 336.285 174.107C335.536 174.107 334.929 173.82 334.464 173.248C333.998 172.671 333.766 171.93 333.766 171.024V170.643C333.766 169.203 334.072 168.104 334.684 167.345C335.3 166.582 336.215 166.192 337.429 166.174H337.606ZM336.301 169.697C335.961 169.697 335.647 169.799 335.361 170.003C335.074 170.208 334.876 170.464 334.765 170.771V171.137C334.765 171.781 334.91 172.3 335.2 172.694C335.49 173.088 335.851 173.285 336.285 173.285C336.732 173.285 337.083 173.12 337.337 172.791C337.595 172.462 337.724 172.03 337.724 171.497C337.724 170.959 337.593 170.526 337.332 170.197C337.074 169.864 336.731 169.697 336.301 169.697Z" fill="black" fill-opacity="0.6"/>
<path d="M389.558 166.18H390.594V171.718C390.594 172.466 390.369 173.052 389.917 173.474C389.47 173.897 388.872 174.108 388.124 174.108C387.347 174.108 386.741 173.909 386.308 173.512C385.875 173.114 385.658 172.557 385.658 171.841H386.689C386.689 172.289 386.811 172.638 387.055 172.889C387.302 173.139 387.658 173.265 388.124 173.265C388.55 173.265 388.893 173.13 389.155 172.862C389.42 172.593 389.554 172.217 389.558 171.734V166.18Z" fill="black" fill-opacity="0.6"/>
<path d="M395.893 174C395.835 173.886 395.789 173.682 395.753 173.388C395.291 173.868 394.74 174.108 394.099 174.108C393.526 174.108 393.055 173.947 392.686 173.625C392.321 173.299 392.138 172.887 392.138 172.389C392.138 171.784 392.367 171.315 392.826 170.982C393.288 170.645 393.936 170.477 394.77 170.477H395.737V170.021C395.737 169.673 395.633 169.397 395.425 169.193C395.218 168.986 394.912 168.882 394.507 168.882C394.152 168.882 393.855 168.971 393.615 169.15C393.375 169.329 393.256 169.546 393.256 169.8H392.256C392.256 169.51 392.359 169.231 392.563 168.962C392.77 168.69 393.05 168.475 393.401 168.318C393.755 168.16 394.144 168.082 394.566 168.082C395.236 168.082 395.76 168.25 396.14 168.586C396.519 168.919 396.716 169.38 396.731 169.967V172.642C396.731 173.175 396.799 173.599 396.935 173.915V174H395.893ZM394.244 173.243C394.555 173.243 394.851 173.163 395.13 173.001C395.409 172.84 395.612 172.631 395.737 172.373V171.181H394.958C393.741 171.181 393.132 171.537 393.132 172.25C393.132 172.561 393.236 172.805 393.443 172.98C393.651 173.155 393.918 173.243 394.244 173.243Z" fill="black" fill-opacity="0.6"/>
<path d="M399.338 168.189L399.37 168.919C399.814 168.361 400.394 168.082 401.111 168.082C402.339 168.082 402.958 168.774 402.969 170.16V174H401.975V170.155C401.972 169.736 401.875 169.426 401.685 169.226C401.499 169.025 401.207 168.925 400.81 168.925C400.488 168.925 400.205 169.011 399.961 169.183C399.718 169.354 399.528 169.58 399.392 169.859V174H398.398V168.189H399.338Z" fill="black" fill-opacity="0.6"/>
<path d="M410.58 174H409.581V167.378L407.577 168.114V167.211L410.424 166.143H410.58V174Z" fill="black" fill-opacity="0.6"/>
<path d="M416.866 174H415.867V167.378L413.864 168.114V167.211L416.711 166.143H416.866V174Z" fill="black" fill-opacity="0.6"/>
<path d="M466.308 166.18H467.344V171.718C467.344 172.466 467.119 173.052 466.667 173.474C466.22 173.897 465.622 174.108 464.874 174.108C464.097 174.108 463.491 173.909 463.058 173.512C462.625 173.114 462.408 172.557 462.408 171.841H463.439C463.439 172.289 463.561 172.638 463.805 172.889C464.052 173.139 464.408 173.265 464.874 173.265C465.3 173.265 465.643 173.13 465.905 172.862C466.17 172.593 466.304 172.217 466.308 171.734V166.18Z" fill="black" fill-opacity="0.6"/>
<path d="M472.643 174C472.585 173.886 472.539 173.682 472.503 173.388C472.041 173.868 471.49 174.108 470.849 174.108C470.276 174.108 469.805 173.947 469.436 173.625C469.071 173.299 468.888 172.887 468.888 172.389C468.888 171.784 469.117 171.315 469.576 170.982C470.038 170.645 470.686 170.477 471.52 170.477H472.487V170.021C472.487 169.673 472.383 169.397 472.175 169.193C471.968 168.986 471.662 168.882 471.257 168.882C470.902 168.882 470.605 168.971 470.365 169.15C470.125 169.329 470.006 169.546 470.006 169.8H469.006C469.006 169.51 469.109 169.231 469.313 168.962C469.52 168.69 469.8 168.475 470.151 168.318C470.505 168.16 470.894 168.082 471.316 168.082C471.986 168.082 472.51 168.25 472.89 168.586C473.269 168.919 473.466 169.38 473.481 169.967V172.642C473.481 173.175 473.549 173.599 473.685 173.915V174H472.643ZM470.994 173.243C471.305 173.243 471.601 173.163 471.88 173.001C472.159 172.84 472.362 172.631 472.487 172.373V171.181H471.708C470.491 171.181 469.882 171.537 469.882 172.25C469.882 172.561 469.986 172.805 470.193 172.98C470.401 173.155 470.668 173.243 470.994 173.243Z" fill="black" fill-opacity="0.6"/>
<path d="M476.088 168.189L476.12 168.919C476.564 168.361 477.144 168.082 477.861 168.082C479.089 168.082 479.708 168.774 479.719 170.16V174H478.725V170.155C478.722 169.736 478.625 169.426 478.435 169.226C478.249 169.025 477.957 168.925 477.56 168.925C477.238 168.925 476.955 169.011 476.711 169.183C476.468 169.354 476.278 169.58 476.142 169.859V174H475.148V168.189H476.088Z" fill="black" fill-opacity="0.6"/>
<path d="M487.33 174H486.331V167.378L484.327 168.114V167.211L487.174 166.143H487.33V174Z" fill="black" fill-opacity="0.6"/>
<path d="M494.25 166.175V167.018H494.068C493.294 167.032 492.678 167.262 492.22 167.706C491.762 168.15 491.497 168.774 491.425 169.58C491.837 169.107 492.399 168.871 493.112 168.871C493.792 168.871 494.334 169.111 494.739 169.591C495.147 170.071 495.351 170.69 495.351 171.449C495.351 172.255 495.131 172.899 494.691 173.383C494.254 173.866 493.667 174.108 492.929 174.108C492.181 174.108 491.574 173.821 491.108 173.249C490.643 172.672 490.41 171.931 490.41 171.025V170.644C490.41 169.204 490.716 168.105 491.328 167.346C491.944 166.583 492.859 166.193 494.073 166.175H494.25ZM492.945 169.698C492.605 169.698 492.292 169.8 492.005 170.004C491.719 170.208 491.52 170.465 491.409 170.772V171.138C491.409 171.782 491.554 172.301 491.844 172.695C492.134 173.089 492.496 173.286 492.929 173.286C493.376 173.286 493.727 173.121 493.982 172.792C494.239 172.463 494.368 172.031 494.368 171.498C494.368 170.96 494.238 170.527 493.976 170.198C493.718 169.865 493.375 169.698 492.945 169.698Z" fill="black" fill-opacity="0.6"/>
<path d="M543.058 166.18H544.094V171.717C544.094 172.466 543.869 173.051 543.417 173.474C542.97 173.896 542.372 174.107 541.624 174.107C540.847 174.107 540.241 173.909 539.808 173.511C539.375 173.114 539.158 172.557 539.158 171.841H540.189C540.189 172.288 540.311 172.638 540.555 172.888C540.802 173.139 541.158 173.264 541.624 173.264C542.05 173.264 542.393 173.13 542.655 172.861C542.92 172.593 543.054 172.217 543.058 171.733V166.18Z" fill="black" fill-opacity="0.6"/>
<path d="M549.393 174C549.335 173.885 549.289 173.681 549.253 173.388C548.791 173.868 548.24 174.107 547.599 174.107C547.026 174.107 546.555 173.946 546.186 173.624C545.821 173.298 545.638 172.886 545.638 172.389C545.638 171.784 545.867 171.314 546.326 170.981C546.788 170.645 547.436 170.477 548.27 170.477H549.237V170.02C549.237 169.673 549.133 169.397 548.925 169.193C548.718 168.985 548.412 168.881 548.007 168.881C547.652 168.881 547.355 168.971 547.115 169.15C546.875 169.329 546.756 169.546 546.756 169.8H545.756C545.756 169.51 545.859 169.23 546.063 168.962C546.27 168.69 546.55 168.475 546.901 168.317C547.255 168.16 547.644 168.081 548.066 168.081C548.736 168.081 549.26 168.249 549.64 168.586C550.019 168.919 550.216 169.379 550.231 169.966V172.641C550.231 173.175 550.299 173.599 550.435 173.914V174H549.393ZM547.744 173.243C548.055 173.243 548.351 173.162 548.63 173.001C548.909 172.84 549.112 172.63 549.237 172.373V171.18H548.458C547.241 171.18 546.632 171.536 546.632 172.249C546.632 172.561 546.736 172.804 546.943 172.979C547.151 173.155 547.418 173.243 547.744 173.243Z" fill="black" fill-opacity="0.6"/>
<path d="M552.838 168.188L552.87 168.919C553.314 168.36 553.894 168.081 554.611 168.081C555.839 168.081 556.458 168.774 556.469 170.16V174H555.475V170.154C555.472 169.735 555.375 169.426 555.185 169.225C554.999 169.025 554.707 168.924 554.31 168.924C553.988 168.924 553.705 169.01 553.461 169.182C553.218 169.354 553.028 169.58 552.892 169.859V174H551.898V168.188H552.838Z" fill="black" fill-opacity="0.6"/>
<path d="M565.938 174H560.814V173.286L563.521 170.278C563.922 169.823 564.198 169.454 564.348 169.171C564.502 168.885 564.579 168.59 564.579 168.285C564.579 167.877 564.456 167.542 564.209 167.281C563.961 167.019 563.632 166.889 563.22 166.889C562.726 166.889 562.341 167.03 562.065 167.313C561.793 167.592 561.657 167.983 561.657 168.484H560.664C560.664 167.764 560.895 167.182 561.357 166.738C561.822 166.294 562.443 166.072 563.22 166.072C563.947 166.072 564.522 166.264 564.944 166.647C565.367 167.027 565.578 167.533 565.578 168.167C565.578 168.937 565.088 169.854 564.107 170.917L562.012 173.189H565.938V174Z" fill="black" fill-opacity="0.6"/>
<path d="M570.366 174H569.367V167.377L567.364 168.113V167.211L570.211 166.142H570.366V174Z" fill="black" fill-opacity="0.6"/>
<mask id="mask0" mask-type="alpha" maskUnits="userSpaceOnUse" x="58" y="93" width="535" height="65">
<path d="M58 93H593V158H58V93Z" fill="#C4C4C4"/>
</mask>
<g mask="url(#mask0)">
<path d="M81 118H89V158H81V118Z" fill="#B5C9DE"/>
<path d="M91 125H99V158H91V125Z" fill="#2F80EC"/>
<path d="M101 113H109V158H101V113Z" fill="#305680"/>
<path d="M158 116H166V158H158V116Z" fill="#B5C9DE"/>
<path d="M168 133.8H176V158H168V133.8Z" fill="#2F80EC"/>
<path d="M178 125H186V158H178V125Z" fill="#305680"/>
<path d="M235 132H243V158H235V132Z" fill="#B5C9DE"/>
<path d="M245 120.6H253V158H245V120.6Z" fill="#2F80EC"/>
<path d="M255 107H263V158H255V107Z" fill="#305680"/>
<path d="M311 119H319V158H311V119Z" fill="#B5C9DE"/>
<path d="M321 125H329V158H321V125Z" fill="#2F80EC"/>
<path d="M331 113H339V158H331V113Z" fill="#305680"/>
<path d="M388 117H396V158H388V117Z" fill="#B5C9DE"/>
<path d="M398 133.8H406V158H398V133.8Z" fill="#2F80EC"/>
<path d="M408 125H416V158H408V125Z" fill="#305680"/>
<path d="M465 101H473V158H465V101Z" fill="#B5C9DE"/>
<path d="M475 120.6H483V158H475V120.6Z" fill="#2F80EC"/>
<path d="M485 107H493V158H485V107Z" fill="#305680"/>
<path d="M542 127H550V158H542V127Z" fill="#B5C9DE"/>
<path d="M552 131.6H560V158H552V131.6Z" fill="#2F80EC"/>
<path d="M562 122H570V158H562V122Z" fill="#305680"/>
</g>
<rect x="57.5" y="92.5" width="536" height="66" stroke="black" stroke-opacity="0.87"/>
</g>
<defs>
<clipPath id="clip0">
<rect width="626" height="209" rx="6" fill="white"/>
</clipPath>
</defs>
</svg>
