<svg width="449" height="311" viewBox="0 0 449 311" fill="none" xmlns="http://www.w3.org/2000/svg">
<rect width="449" height="311" fill="white"/>
<rect width="449" height="311" rx="6" fill="white"/>
<g opacity="0.82">
<path d="M45.7695 38.7891H40.2852V54H38.0469V38.7891H32.5742V36.9375H45.7695V38.7891Z" fill="black"/>
<path d="M52.0508 54.2344C50.332 54.2344 48.9336 53.6719 47.8555 52.5469C46.7773 51.4141 46.2383 49.9023 46.2383 48.0117V47.6133C46.2383 46.3555 46.4766 45.2344 46.9531 44.25C47.4375 43.2578 48.1094 42.4844 48.9688 41.9297C49.8359 41.3672 50.7734 41.0859 51.7812 41.0859C53.4297 41.0859 54.7109 41.6289 55.625 42.7148C56.5391 43.8008 56.9961 45.3555 56.9961 47.3789V48.2812H48.4062C48.4375 49.5312 48.8008 50.543 49.4961 51.3164C50.1992 52.082 51.0898 52.4648 52.168 52.4648C52.9336 52.4648 53.582 52.3086 54.1133 51.9961C54.6445 51.6836 55.1094 51.2695 55.5078 50.7539L56.832 51.7852C55.7695 53.418 54.1758 54.2344 52.0508 54.2344ZM51.7812 42.8672C50.9062 42.8672 50.1719 43.1875 49.5781 43.8281C48.9844 44.4609 48.6172 45.3516 48.4766 46.5H54.8281V46.3359C54.7656 45.2344 54.4688 44.3828 53.9375 43.7812C53.4062 43.1719 52.6875 42.8672 51.7812 42.8672Z" fill="black"/>
<path d="M61.5547 41.3203L61.6133 42.7266C62.543 41.6328 63.7969 41.0859 65.375 41.0859C67.1484 41.0859 68.3555 41.7656 68.9961 43.125C69.418 42.5156 69.9648 42.0234 70.6367 41.6484C71.3164 41.2734 72.1172 41.0859 73.0391 41.0859C75.8203 41.0859 77.2344 42.5586 77.2812 45.5039V54H75.1133V45.6328C75.1133 44.7266 74.9062 44.0508 74.4922 43.6055C74.0781 43.1523 73.3828 42.9258 72.4062 42.9258C71.6016 42.9258 70.9336 43.168 70.4023 43.6523C69.8711 44.1289 69.5625 44.7734 69.4766 45.5859V54H67.2969V45.6914C67.2969 43.8477 66.3945 42.9258 64.5898 42.9258C63.168 42.9258 62.1953 43.5312 61.6719 44.7422V54H59.5039V41.3203H61.5547Z" fill="black"/>
<path d="M91.2734 47.8008C91.2734 49.7305 90.832 51.2852 89.9492 52.4648C89.0664 53.6445 87.8711 54.2344 86.3633 54.2344C84.8242 54.2344 83.6133 53.7461 82.7305 52.7695V58.875H80.5625V41.3203H82.543L82.6484 42.7266C83.5312 41.6328 84.7578 41.0859 86.3281 41.0859C87.8516 41.0859 89.0547 41.6602 89.9375 42.8086C90.8281 43.957 91.2734 45.5547 91.2734 47.6016V47.8008ZM89.1055 47.5547C89.1055 46.125 88.8008 44.9961 88.1914 44.168C87.582 43.3398 86.7461 42.9258 85.6836 42.9258C84.3711 42.9258 83.3867 43.5078 82.7305 44.6719V50.7305C83.3789 51.8867 84.3711 52.4648 85.707 52.4648C86.7461 52.4648 87.5703 52.0547 88.1797 51.2344C88.7969 50.4062 89.1055 49.1797 89.1055 47.5547Z" fill="black"/>
<path d="M99.3008 54.2344C97.582 54.2344 96.1836 53.6719 95.1055 52.5469C94.0273 51.4141 93.4883 49.9023 93.4883 48.0117V47.6133C93.4883 46.3555 93.7266 45.2344 94.2031 44.25C94.6875 43.2578 95.3594 42.4844 96.2188 41.9297C97.0859 41.3672 98.0234 41.0859 99.0312 41.0859C100.68 41.0859 101.961 41.6289 102.875 42.7148C103.789 43.8008 104.246 45.3555 104.246 47.3789V48.2812H95.6562C95.6875 49.5312 96.0508 50.543 96.7461 51.3164C97.4492 52.082 98.3398 52.4648 99.418 52.4648C100.184 52.4648 100.832 52.3086 101.363 51.9961C101.895 51.6836 102.359 51.2695 102.758 50.7539L104.082 51.7852C103.02 53.418 101.426 54.2344 99.3008 54.2344ZM99.0312 42.8672C98.1562 42.8672 97.4219 43.1875 96.8281 43.8281C96.2344 44.4609 95.8672 45.3516 95.7266 46.5H102.078V46.3359C102.016 45.2344 101.719 44.3828 101.188 43.7812C100.656 43.1719 99.9375 42.8672 99.0312 42.8672Z" fill="black"/>
<path d="M112.895 43.2656C112.566 43.2109 112.211 43.1836 111.828 43.1836C110.406 43.1836 109.441 43.7891 108.934 45V54H106.766V41.3203H108.875L108.91 42.7852C109.621 41.6523 110.629 41.0859 111.934 41.0859C112.355 41.0859 112.676 41.1406 112.895 41.25V43.2656Z" fill="black"/>
<path d="M122.258 54C122.133 53.75 122.031 53.3047 121.953 52.6641C120.945 53.7109 119.742 54.2344 118.344 54.2344C117.094 54.2344 116.066 53.8828 115.262 53.1797C114.465 52.4688 114.066 51.5703 114.066 50.4844C114.066 49.1641 114.566 48.1406 115.566 47.4141C116.574 46.6797 117.988 46.3125 119.809 46.3125H121.918V45.3164C121.918 44.5586 121.691 43.957 121.238 43.5117C120.785 43.0586 120.117 42.832 119.234 42.832C118.461 42.832 117.812 43.0273 117.289 43.418C116.766 43.8086 116.504 44.2812 116.504 44.8359H114.324C114.324 44.2031 114.547 43.5938 114.992 43.0078C115.445 42.4141 116.055 41.9453 116.82 41.6016C117.594 41.2578 118.441 41.0859 119.363 41.0859C120.824 41.0859 121.969 41.4531 122.797 42.1875C123.625 42.9141 124.055 43.918 124.086 45.1992V51.0352C124.086 52.1992 124.234 53.125 124.531 53.8125V54H122.258ZM118.66 52.3477C119.34 52.3477 119.984 52.1719 120.594 51.8203C121.203 51.4688 121.645 51.0117 121.918 50.4492V47.8477H120.219C117.562 47.8477 116.234 48.625 116.234 50.1797C116.234 50.8594 116.461 51.3906 116.914 51.7734C117.367 52.1562 117.949 52.3477 118.66 52.3477Z" fill="black"/>
<path d="M130.426 38.25V41.3203H132.793V42.9961H130.426V50.8594C130.426 51.3672 130.531 51.75 130.742 52.0078C130.953 52.2578 131.312 52.3828 131.82 52.3828C132.07 52.3828 132.414 52.3359 132.852 52.2422V54C132.281 54.1562 131.727 54.2344 131.188 54.2344C130.219 54.2344 129.488 53.9414 128.996 53.3555C128.504 52.7695 128.258 51.9375 128.258 50.8594V42.9961H125.949V41.3203H128.258V38.25H130.426Z" fill="black"/>
<path d="M143.164 52.7461C142.32 53.7383 141.082 54.2344 139.449 54.2344C138.098 54.2344 137.066 53.8438 136.355 53.0625C135.652 52.2734 135.297 51.1094 135.289 49.5703V41.3203H137.457V49.5117C137.457 51.4336 138.238 52.3945 139.801 52.3945C141.457 52.3945 142.559 51.7773 143.105 50.543V41.3203H145.273V54H143.211L143.164 52.7461Z" fill="black"/>
<path d="M154.707 43.2656C154.379 43.2109 154.023 43.1836 153.641 43.1836C152.219 43.1836 151.254 43.7891 150.746 45V54H148.578V41.3203H150.688L150.723 42.7852C151.434 41.6523 152.441 41.0859 153.746 41.0859C154.168 41.0859 154.488 41.1406 154.707 41.25V43.2656Z" fill="black"/>
<path d="M161.738 54.2344C160.02 54.2344 158.621 53.6719 157.543 52.5469C156.465 51.4141 155.926 49.9023 155.926 48.0117V47.6133C155.926 46.3555 156.164 45.2344 156.641 44.25C157.125 43.2578 157.797 42.4844 158.656 41.9297C159.523 41.3672 160.461 41.0859 161.469 41.0859C163.117 41.0859 164.398 41.6289 165.312 42.7148C166.227 43.8008 166.684 45.3555 166.684 47.3789V48.2812H158.094C158.125 49.5312 158.488 50.543 159.184 51.3164C159.887 52.082 160.777 52.4648 161.855 52.4648C162.621 52.4648 163.27 52.3086 163.801 51.9961C164.332 51.6836 164.797 51.2695 165.195 50.7539L166.52 51.7852C165.457 53.418 163.863 54.2344 161.738 54.2344ZM161.469 42.8672C160.594 42.8672 159.859 43.1875 159.266 43.8281C158.672 44.4609 158.305 45.3516 158.164 46.5H164.516V46.3359C164.453 45.2344 164.156 44.3828 163.625 43.7812C163.094 43.1719 162.375 42.8672 161.469 42.8672Z" fill="black"/>
<path d="M183.078 37.8398C182.109 37.6836 181.328 37.6055 180.734 37.6055C179.172 37.6055 178.391 38.4258 178.391 40.0664V41.3203H181.098V42.9961H178.391V54H176.223V42.9961H174.219V41.3203H176.223V39.9375C176.23 38.5859 176.609 37.5508 177.359 36.832C178.109 36.1133 179.176 35.7539 180.559 35.7539C181.348 35.7539 182.91 35.9922 185.246 36.4688V54H183.078V37.8398Z" fill="black"/>
<path d="M196.625 52.7461C195.781 53.7383 194.543 54.2344 192.91 54.2344C191.559 54.2344 190.527 53.8438 189.816 53.0625C189.113 52.2734 188.758 51.1094 188.75 49.5703V41.3203H190.918V49.5117C190.918 51.4336 191.699 52.3945 193.262 52.3945C194.918 52.3945 196.02 51.7773 196.566 50.543V41.3203H198.734V54H196.672L196.625 52.7461Z" fill="black"/>
<path d="M207.125 52.4648C207.898 52.4648 208.574 52.2305 209.152 51.7617C209.73 51.293 210.051 50.707 210.113 50.0039H212.164C212.125 50.7305 211.875 51.4219 211.414 52.0781C210.953 52.7344 210.336 53.2578 209.562 53.6484C208.797 54.0391 207.984 54.2344 207.125 54.2344C205.398 54.2344 204.023 53.6602 203 52.5117C201.984 51.3555 201.477 49.7773 201.477 47.7773V47.4141C201.477 46.1797 201.703 45.082 202.156 44.1211C202.609 43.1602 203.258 42.4141 204.102 41.8828C204.953 41.3516 205.957 41.0859 207.113 41.0859C208.535 41.0859 209.715 41.5117 210.652 42.3633C211.598 43.2148 212.102 44.3203 212.164 45.6797H210.113C210.051 44.8594 209.738 44.1875 209.176 43.6641C208.621 43.1328 207.934 42.8672 207.113 42.8672C206.012 42.8672 205.156 43.2656 204.547 44.0625C203.945 44.8516 203.645 45.9961 203.645 47.4961V47.9062C203.645 49.3672 203.945 50.4922 204.547 51.2812C205.148 52.0703 206.008 52.4648 207.125 52.4648Z" fill="black"/>
<path d="M217.543 38.25V41.3203H219.91V42.9961H217.543V50.8594C217.543 51.3672 217.648 51.75 217.859 52.0078C218.07 52.2578 218.43 52.3828 218.938 52.3828C219.188 52.3828 219.531 52.3359 219.969 52.2422V54C219.398 54.1562 218.844 54.2344 218.305 54.2344C217.336 54.2344 216.605 53.9414 216.113 53.3555C215.621 52.7695 215.375 51.9375 215.375 50.8594V42.9961H213.066V41.3203H215.375V38.25H217.543Z" fill="black"/>
<path d="M230.281 52.7461C229.438 53.7383 228.199 54.2344 226.566 54.2344C225.215 54.2344 224.184 53.8438 223.473 53.0625C222.77 52.2734 222.414 51.1094 222.406 49.5703V41.3203H224.574V49.5117C224.574 51.4336 225.355 52.3945 226.918 52.3945C228.574 52.3945 229.676 51.7773 230.223 50.543V41.3203H232.391V54H230.328L230.281 52.7461Z" fill="black"/>
<path d="M243.523 54C243.398 53.75 243.297 53.3047 243.219 52.6641C242.211 53.7109 241.008 54.2344 239.609 54.2344C238.359 54.2344 237.332 53.8828 236.527 53.1797C235.73 52.4688 235.332 51.5703 235.332 50.4844C235.332 49.1641 235.832 48.1406 236.832 47.4141C237.84 46.6797 239.254 46.3125 241.074 46.3125H243.184V45.3164C243.184 44.5586 242.957 43.957 242.504 43.5117C242.051 43.0586 241.383 42.832 240.5 42.832C239.727 42.832 239.078 43.0273 238.555 43.418C238.031 43.8086 237.77 44.2812 237.77 44.8359H235.59C235.59 44.2031 235.812 43.5938 236.258 43.0078C236.711 42.4141 237.32 41.9453 238.086 41.6016C238.859 41.2578 239.707 41.0859 240.629 41.0859C242.09 41.0859 243.234 41.4531 244.062 42.1875C244.891 42.9141 245.32 43.918 245.352 45.1992V51.0352C245.352 52.1992 245.5 53.125 245.797 53.8125V54H243.523ZM239.926 52.3477C240.605 52.3477 241.25 52.1719 241.859 51.8203C242.469 51.4688 242.91 51.0117 243.184 50.4492V47.8477H241.484C238.828 47.8477 237.5 48.625 237.5 50.1797C237.5 50.8594 237.727 51.3906 238.18 51.7734C238.633 52.1562 239.215 52.3477 239.926 52.3477Z" fill="black"/>
<path d="M251.691 38.25V41.3203H254.059V42.9961H251.691V50.8594C251.691 51.3672 251.797 51.75 252.008 52.0078C252.219 52.2578 252.578 52.3828 253.086 52.3828C253.336 52.3828 253.68 52.3359 254.117 52.2422V54C253.547 54.1562 252.992 54.2344 252.453 54.2344C251.484 54.2344 250.754 53.9414 250.262 53.3555C249.77 52.7695 249.523 51.9375 249.523 50.8594V42.9961H247.215V41.3203H249.523V38.25H251.691Z" fill="black"/>
<path d="M258.957 54H256.789V41.3203H258.957V54ZM256.613 37.957C256.613 37.6055 256.719 37.3086 256.93 37.0664C257.148 36.8242 257.469 36.7031 257.891 36.7031C258.312 36.7031 258.633 36.8242 258.852 37.0664C259.07 37.3086 259.18 37.6055 259.18 37.957C259.18 38.3086 259.07 38.6016 258.852 38.8359C258.633 39.0703 258.312 39.1875 257.891 39.1875C257.469 39.1875 257.148 39.0703 256.93 38.8359C256.719 38.6016 256.613 38.3086 256.613 37.957Z" fill="black"/>
<path d="M261.863 47.543C261.863 46.3008 262.105 45.1836 262.59 44.1914C263.082 43.1992 263.762 42.4336 264.629 41.8945C265.504 41.3555 266.5 41.0859 267.617 41.0859C269.344 41.0859 270.738 41.6836 271.801 42.8789C272.871 44.0742 273.406 45.6641 273.406 47.6484V47.8008C273.406 49.0352 273.168 50.1445 272.691 51.1289C272.223 52.1055 271.547 52.8672 270.664 53.4141C269.789 53.9609 268.781 54.2344 267.641 54.2344C265.922 54.2344 264.527 53.6367 263.457 52.4414C262.395 51.2461 261.863 49.6641 261.863 47.6953V47.543ZM264.043 47.8008C264.043 49.207 264.367 50.3359 265.016 51.1875C265.672 52.0391 266.547 52.4648 267.641 52.4648C268.742 52.4648 269.617 52.0352 270.266 51.1758C270.914 50.3086 271.238 49.0977 271.238 47.543C271.238 46.1523 270.906 45.0273 270.242 44.168C269.586 43.3008 268.711 42.8672 267.617 42.8672C266.547 42.8672 265.684 43.293 265.027 44.1445C264.371 44.9961 264.043 46.2148 264.043 47.8008Z" fill="black"/>
<path d="M278.176 41.3203L278.246 42.9141C279.215 41.6953 280.48 41.0859 282.043 41.0859C284.723 41.0859 286.074 42.5977 286.098 45.6211V54H283.93V45.6094C283.922 44.6953 283.711 44.0195 283.297 43.582C282.891 43.1445 282.254 42.9258 281.387 42.9258C280.684 42.9258 280.066 43.1133 279.535 43.4883C279.004 43.8633 278.59 44.3555 278.293 44.9648V54H276.125V41.3203H278.176Z" fill="black"/>
<path d="M296.75 50.6367C296.75 50.0508 296.527 49.5977 296.082 49.2773C295.645 48.9492 294.875 48.668 293.773 48.4336C292.68 48.1992 291.809 47.918 291.16 47.5898C290.52 47.2617 290.043 46.8711 289.73 46.418C289.426 45.9648 289.273 45.4258 289.273 44.8008C289.273 43.7617 289.711 42.8828 290.586 42.1641C291.469 41.4453 292.594 41.0859 293.961 41.0859C295.398 41.0859 296.562 41.457 297.453 42.1992C298.352 42.9414 298.801 43.8906 298.801 45.0469H296.621C296.621 44.4531 296.367 43.9414 295.859 43.5117C295.359 43.082 294.727 42.8672 293.961 42.8672C293.172 42.8672 292.555 43.0391 292.109 43.3828C291.664 43.7266 291.441 44.1758 291.441 44.7305C291.441 45.2539 291.648 45.6484 292.062 45.9141C292.477 46.1797 293.223 46.4336 294.301 46.6758C295.387 46.918 296.266 47.207 296.938 47.543C297.609 47.8789 298.105 48.2852 298.426 48.7617C298.754 49.2305 298.918 49.8047 298.918 50.4844C298.918 51.6172 298.465 52.5273 297.559 53.2148C296.652 53.8945 295.477 54.2344 294.031 54.2344C293.016 54.2344 292.117 54.0547 291.336 53.6953C290.555 53.3359 289.941 52.8359 289.496 52.1953C289.059 51.5469 288.84 50.8477 288.84 50.0977H291.008C291.047 50.8242 291.336 51.4023 291.875 51.832C292.422 52.2539 293.141 52.4648 294.031 52.4648C294.852 52.4648 295.508 52.3008 296 51.9727C296.5 51.6367 296.75 51.1914 296.75 50.6367Z" fill="black"/>
</g>
<g opacity="0.54">
<path d="M400 46H398V51H403V49H400V46ZM398 42H400V39H403V37H398V42ZM410 49H407V51H412V46H410V49ZM407 37V39H410V42H412V37H407Z" fill="black"/>
</g>
<rect x="57" y="92" width="360" height="169" fill="white"/>
<path d="M28.9536 96H27.9546V89.3774L25.9512 90.1133V89.2109L28.7979 88.1421H28.9536V96Z" fill="black" fill-opacity="0.6"/>
<path d="M32.4313 92.0791L32.8288 88.1797H36.8356V89.0981H33.672L33.4357 91.2305C33.8188 91.0049 34.2539 90.8921 34.7409 90.8921C35.4534 90.8921 36.0192 91.1284 36.4381 91.6011C36.8571 92.0701 37.0665 92.7057 37.0665 93.5078C37.0665 94.3135 36.8481 94.9491 36.4113 95.4146C35.978 95.8765 35.3711 96.1074 34.5905 96.1074C33.8994 96.1074 33.3354 95.9159 32.8986 95.5327C32.4617 95.1496 32.2129 94.6196 32.152 93.9429H33.0919C33.1528 94.3905 33.3121 94.7288 33.57 94.958C33.8278 95.1836 34.1679 95.2964 34.5905 95.2964C35.0524 95.2964 35.414 95.1388 35.6754 94.8237C35.9404 94.5086 36.0729 94.0736 36.0729 93.5186C36.0729 92.9958 35.9297 92.5768 35.6432 92.2617C35.3603 91.943 34.9826 91.7837 34.5099 91.7837C34.0766 91.7837 33.7365 91.8786 33.4894 92.0684L33.2262 92.2832L32.4313 92.0791Z" fill="black" fill-opacity="0.6"/>
<path d="M38.3098 89.4688C38.3098 89.0964 38.4423 88.7705 38.7073 88.4912C38.9759 88.2119 39.2999 88.0723 39.6795 88.0723C40.0519 88.0723 40.3688 88.2119 40.6302 88.4912C40.8951 88.7669 41.0276 89.0928 41.0276 89.4688C41.0276 89.8483 40.8951 90.1724 40.6302 90.4409C40.3688 90.7095 40.0519 90.8438 39.6795 90.8438C39.3035 90.8438 38.9812 90.7095 38.7127 90.4409C38.4441 90.1724 38.3098 89.8483 38.3098 89.4688ZM39.6795 90.1562C39.8728 90.1562 40.0358 90.0936 40.1682 89.9683C40.3007 89.8394 40.367 89.6729 40.367 89.4688C40.367 89.2611 40.3007 89.091 40.1682 88.9585C40.0358 88.8224 39.8728 88.7544 39.6795 88.7544C39.4825 88.7544 39.316 88.826 39.18 88.9692C39.0475 89.1089 38.9812 89.2754 38.9812 89.4688C38.9812 89.6621 39.0475 89.825 39.18 89.9575C39.316 90.09 39.4825 90.1562 39.6795 90.1562Z" fill="black" fill-opacity="0.6"/>
<path d="M48.496 93.5186C48.3993 94.3457 48.0932 94.9849 47.5776 95.436C47.0655 95.8836 46.3834 96.1074 45.5312 96.1074C44.6073 96.1074 43.8661 95.7762 43.3075 95.1138C42.7525 94.4513 42.475 93.5651 42.475 92.4551V91.7031C42.475 90.9762 42.6039 90.3371 42.8617 89.7856C43.1231 89.2342 43.4919 88.8117 43.9682 88.5181C44.4444 88.2209 44.9959 88.0723 45.6225 88.0723C46.4532 88.0723 47.1192 88.305 47.6205 88.7705C48.1218 89.2324 48.4137 89.8734 48.496 90.6934H47.4594C47.3699 90.0703 47.1747 89.6191 46.8739 89.3398C46.5767 89.0605 46.1596 88.9209 45.6225 88.9209C44.9636 88.9209 44.4462 89.1644 44.0702 89.6514C43.6978 90.1383 43.5116 90.8312 43.5116 91.73V92.4873C43.5116 93.3359 43.6889 94.0109 44.0434 94.5122C44.3979 95.0135 44.8938 95.2642 45.5312 95.2642C46.1041 95.2642 46.5427 95.1353 46.8471 94.8774C47.155 94.616 47.3591 94.1631 47.4594 93.5186H48.496Z" fill="black" fill-opacity="0.6"/>
<path d="M28.9536 124.167H27.9546V117.544L25.9512 118.28V117.378L28.7979 116.309H28.9536V124.167Z" fill="black" fill-opacity="0.6"/>
<path d="M36.8786 120.832C36.8786 121.995 36.6798 122.86 36.2824 123.426C35.8849 123.992 35.2636 124.274 34.4186 124.274C33.5843 124.274 32.9666 123.999 32.5656 123.447C32.1645 122.892 31.9568 122.065 31.9425 120.966V119.639C31.9425 118.49 32.1413 117.636 32.5387 117.077C32.9362 116.519 33.5592 116.239 34.4079 116.239C35.2493 116.239 35.8688 116.51 36.2663 117.05C36.6637 117.587 36.8678 118.418 36.8786 119.542V120.832ZM35.8849 119.473C35.8849 118.631 35.7667 118.019 35.5304 117.636C35.2941 117.249 34.9199 117.056 34.4079 117.056C33.8994 117.056 33.5288 117.247 33.296 117.63C33.0633 118.014 32.9433 118.603 32.9362 119.397V120.987C32.9362 121.832 33.0579 122.457 33.3014 122.862C33.5485 123.263 33.9209 123.463 34.4186 123.463C34.9092 123.463 35.2726 123.274 35.5089 122.894C35.7488 122.514 35.8742 121.917 35.8849 121.1V119.473Z" fill="black" fill-opacity="0.6"/>
<path d="M38.3098 117.636C38.3098 117.263 38.4423 116.938 38.7073 116.658C38.9759 116.379 39.2999 116.239 39.6795 116.239C40.0519 116.239 40.3688 116.379 40.6302 116.658C40.8951 116.934 41.0276 117.26 41.0276 117.636C41.0276 118.015 40.8951 118.339 40.6302 118.608C40.3688 118.876 40.0519 119.011 39.6795 119.011C39.3035 119.011 38.9812 118.876 38.7127 118.608C38.4441 118.339 38.3098 118.015 38.3098 117.636ZM39.6795 118.323C39.8728 118.323 40.0358 118.261 40.1682 118.135C40.3007 118.006 40.367 117.84 40.367 117.636C40.367 117.428 40.3007 117.258 40.1682 117.125C40.0358 116.989 39.8728 116.921 39.6795 116.921C39.4825 116.921 39.316 116.993 39.18 117.136C39.0475 117.276 38.9812 117.442 38.9812 117.636C38.9812 117.829 39.0475 117.992 39.18 118.125C39.316 118.257 39.4825 118.323 39.6795 118.323Z" fill="black" fill-opacity="0.6"/>
<path d="M48.496 121.686C48.3993 122.513 48.0932 123.152 47.5776 123.603C47.0655 124.051 46.3834 124.274 45.5312 124.274C44.6073 124.274 43.8661 123.943 43.3075 123.281C42.7525 122.618 42.475 121.732 42.475 120.622V119.87C42.475 119.143 42.6039 118.504 42.8617 117.953C43.1231 117.401 43.4919 116.979 43.9682 116.685C44.4444 116.388 44.9959 116.239 45.6225 116.239C46.4532 116.239 47.1192 116.472 47.6205 116.938C48.1218 117.399 48.4137 118.04 48.496 118.86H47.4594C47.3699 118.237 47.1747 117.786 46.8739 117.507C46.5767 117.228 46.1596 117.088 45.6225 117.088C44.9636 117.088 44.4462 117.331 44.0702 117.818C43.6978 118.305 43.5116 118.998 43.5116 119.897V120.654C43.5116 121.503 43.6889 122.178 44.0434 122.679C44.3979 123.181 44.8938 123.431 45.5312 123.431C46.1041 123.431 46.5427 123.302 46.8471 123.044C47.155 122.783 47.3591 122.33 47.4594 121.686H48.496Z" fill="black" fill-opacity="0.6"/>
<path d="M32.4297 148.412L32.8271 144.513H36.834V145.431H33.6704L33.4341 147.563C33.8172 147.338 34.2523 147.225 34.7393 147.225C35.4518 147.225 36.0176 147.461 36.4365 147.934C36.8555 148.403 37.0649 149.039 37.0649 149.841C37.0649 150.646 36.8465 151.282 36.4097 151.748C35.9764 152.209 35.3695 152.44 34.5889 152.44C33.8978 152.44 33.3338 152.249 32.897 151.866C32.4601 151.483 32.2113 150.953 32.1504 150.276H33.0903C33.1512 150.723 33.3105 151.062 33.5684 151.291C33.8262 151.517 34.1663 151.629 34.5889 151.629C35.0508 151.629 35.4124 151.472 35.6738 151.157C35.9388 150.842 36.0713 150.407 36.0713 149.852C36.0713 149.329 35.9281 148.91 35.6416 148.595C35.3587 148.276 34.981 148.117 34.5083 148.117C34.075 148.117 33.7349 148.212 33.4878 148.401L33.2246 148.616L32.4297 148.412Z" fill="black" fill-opacity="0.6"/>
<path d="M38.3082 145.802C38.3082 145.429 38.4407 145.104 38.7057 144.824C38.9743 144.545 39.2983 144.405 39.6779 144.405C40.0503 144.405 40.3672 144.545 40.6286 144.824C40.8935 145.1 41.026 145.426 41.026 145.802C41.026 146.181 40.8935 146.505 40.6286 146.774C40.3672 147.042 40.0503 147.177 39.6779 147.177C39.3019 147.177 38.9796 147.042 38.7111 146.774C38.4425 146.505 38.3082 146.181 38.3082 145.802ZM39.6779 146.489C39.8712 146.489 40.0342 146.427 40.1666 146.301C40.2991 146.172 40.3654 146.006 40.3654 145.802C40.3654 145.594 40.2991 145.424 40.1666 145.292C40.0342 145.155 39.8712 145.087 39.6779 145.087C39.4809 145.087 39.3144 145.159 39.1784 145.302C39.0459 145.442 38.9796 145.608 38.9796 145.802C38.9796 145.995 39.0459 146.158 39.1784 146.291C39.3144 146.423 39.4809 146.489 39.6779 146.489Z" fill="black" fill-opacity="0.6"/>
<path d="M48.4944 149.852C48.3977 150.679 48.0916 151.318 47.576 151.769C47.0639 152.217 46.3818 152.44 45.5296 152.44C44.6057 152.44 43.8645 152.109 43.3059 151.447C42.7509 150.784 42.4734 149.898 42.4734 148.788V148.036C42.4734 147.309 42.6023 146.67 42.8601 146.119C43.1215 145.567 43.4903 145.145 43.9666 144.851C44.4428 144.554 44.9943 144.405 45.6209 144.405C46.4516 144.405 47.1176 144.638 47.6189 145.104C48.1202 145.565 48.4121 146.206 48.4944 147.026H47.4578C47.3683 146.403 47.1731 145.952 46.8723 145.673C46.5751 145.394 46.158 145.254 45.6209 145.254C44.962 145.254 44.4446 145.497 44.0686 145.984C43.6962 146.471 43.51 147.164 43.51 148.063V148.82C43.51 149.669 43.6873 150.344 44.0418 150.845C44.3963 151.347 44.8922 151.597 45.5296 151.597C46.1025 151.597 46.5411 151.468 46.8455 151.21C47.1534 150.949 47.3575 150.496 47.4578 149.852H48.4944Z" fill="black" fill-opacity="0.6"/>
<path d="M36.8774 177.165C36.8774 178.328 36.6787 179.193 36.2812 179.759C35.8838 180.325 35.2625 180.607 34.4175 180.607C33.5832 180.607 32.9655 180.332 32.5645 179.78C32.1634 179.225 31.9557 178.398 31.9414 177.299V175.972C31.9414 174.823 32.1401 173.969 32.5376 173.41C32.9351 172.852 33.5581 172.572 34.4067 172.572C35.2482 172.572 35.8677 172.843 36.2651 173.383C36.6626 173.92 36.8667 174.751 36.8774 175.875V177.165ZM35.8838 175.806C35.8838 174.964 35.7656 174.352 35.5293 173.969C35.293 173.582 34.9188 173.389 34.4067 173.389C33.8983 173.389 33.5277 173.58 33.2949 173.963C33.0622 174.347 32.9422 174.936 32.9351 175.73V177.32C32.9351 178.165 33.0568 178.79 33.3003 179.195C33.5474 179.596 33.9198 179.796 34.4175 179.796C34.908 179.796 35.2715 179.607 35.5078 179.227C35.7477 178.847 35.873 178.25 35.8838 177.433V175.806Z" fill="black" fill-opacity="0.6"/>
<path d="M38.3087 173.969C38.3087 173.596 38.4412 173.271 38.7062 172.991C38.9747 172.712 39.2988 172.572 39.6784 172.572C40.0508 172.572 40.3677 172.712 40.629 172.991C40.894 173.267 41.0265 173.593 41.0265 173.969C41.0265 174.348 40.894 174.672 40.629 174.941C40.3677 175.209 40.0508 175.344 39.6784 175.344C39.3024 175.344 38.9801 175.209 38.7116 174.941C38.443 174.672 38.3087 174.348 38.3087 173.969ZM39.6784 174.656C39.8717 174.656 40.0346 174.594 40.1671 174.468C40.2996 174.339 40.3659 174.173 40.3659 173.969C40.3659 173.761 40.2996 173.591 40.1671 173.458C40.0346 173.322 39.8717 173.254 39.6784 173.254C39.4814 173.254 39.3149 173.326 39.1788 173.469C39.0464 173.609 38.9801 173.775 38.9801 173.969C38.9801 174.162 39.0464 174.325 39.1788 174.458C39.3149 174.59 39.4814 174.656 39.6784 174.656Z" fill="black" fill-opacity="0.6"/>
<path d="M48.4949 178.019C48.3982 178.846 48.0921 179.485 47.5764 179.936C47.0644 180.384 46.3823 180.607 45.5301 180.607C44.6062 180.607 43.865 180.276 43.3064 179.614C42.7514 178.951 42.4739 178.065 42.4739 176.955V176.203C42.4739 175.476 42.6028 174.837 42.8606 174.286C43.122 173.734 43.4908 173.312 43.9671 173.018C44.4433 172.721 44.9947 172.572 45.6214 172.572C46.4521 172.572 47.1181 172.805 47.6194 173.271C48.1207 173.732 48.4125 174.373 48.4949 175.193H47.4583C47.3688 174.57 47.1736 174.119 46.8728 173.84C46.5756 173.561 46.1585 173.421 45.6214 173.421C44.9625 173.421 44.4451 173.664 44.0691 174.151C43.6967 174.638 43.5105 175.331 43.5105 176.23V176.987C43.5105 177.836 43.6878 178.511 44.0423 179.012C44.3968 179.514 44.8927 179.764 45.5301 179.764C46.103 179.764 46.5416 179.635 46.846 179.377C47.1539 179.116 47.358 178.663 47.4583 178.019H48.4949Z" fill="black" fill-opacity="0.6"/>
<path d="M30.9941 205.75H28.373V204.939H30.9941V205.75Z" fill="black" fill-opacity="0.6"/>
<path d="M32.4308 204.746L32.8283 200.847H36.8351V201.765H33.6715L33.4352 203.897C33.8183 203.672 34.2534 203.559 34.7404 203.559C35.4529 203.559 36.0187 203.795 36.4376 204.268C36.8566 204.737 37.0661 205.373 37.0661 206.175C37.0661 206.98 36.8476 207.616 36.4108 208.082C35.9775 208.543 35.3706 208.774 34.59 208.774C33.8989 208.774 33.3349 208.583 32.8981 208.2C32.4612 207.817 32.2124 207.287 32.1515 206.61H33.0914C33.1523 207.057 33.3117 207.396 33.5695 207.625C33.8273 207.851 34.1675 207.963 34.59 207.963C35.0519 207.963 35.4135 207.806 35.6749 207.491C35.9399 207.176 36.0724 206.741 36.0724 206.186C36.0724 205.663 35.9292 205.244 35.6427 204.929C35.3598 204.61 34.9821 204.451 34.5094 204.451C34.0761 204.451 33.736 204.546 33.4889 204.735L33.2257 204.95L32.4308 204.746Z" fill="black" fill-opacity="0.6"/>
<path d="M38.3094 202.136C38.3094 201.763 38.4418 201.438 38.7068 201.158C38.9754 200.879 39.2994 200.739 39.679 200.739C40.0514 200.739 40.3683 200.879 40.6297 201.158C40.8946 201.434 41.0271 201.76 41.0271 202.136C41.0271 202.515 40.8946 202.839 40.6297 203.108C40.3683 203.376 40.0514 203.511 39.679 203.511C39.303 203.511 38.9807 203.376 38.7122 203.108C38.4436 202.839 38.3094 202.515 38.3094 202.136ZM39.679 202.823C39.8723 202.823 40.0353 202.761 40.1678 202.635C40.3002 202.506 40.3665 202.34 40.3665 202.136C40.3665 201.928 40.3002 201.758 40.1678 201.625C40.0353 201.489 39.8723 201.421 39.679 201.421C39.482 201.421 39.3155 201.493 39.1795 201.636C39.047 201.776 38.9807 201.942 38.9807 202.136C38.9807 202.329 39.047 202.492 39.1795 202.625C39.3155 202.757 39.482 202.823 39.679 202.823Z" fill="black" fill-opacity="0.6"/>
<path d="M48.4955 206.186C48.3988 207.013 48.0927 207.652 47.5771 208.103C47.065 208.551 46.3829 208.774 45.5307 208.774C44.6069 208.774 43.8656 208.443 43.3071 207.781C42.752 207.118 42.4745 206.232 42.4745 205.122V204.37C42.4745 203.643 42.6034 203.004 42.8612 202.453C43.1226 201.901 43.4915 201.479 43.9677 201.185C44.4439 200.888 44.9954 200.739 45.622 200.739C46.4527 200.739 47.1187 200.972 47.62 201.438C48.1213 201.899 48.4132 202.54 48.4955 203.36H47.4589C47.3694 202.737 47.1742 202.286 46.8735 202.007C46.5763 201.728 46.1591 201.588 45.622 201.588C44.9631 201.588 44.4457 201.831 44.0697 202.318C43.6974 202.805 43.5112 203.498 43.5112 204.397V205.154C43.5112 206.003 43.6884 206.678 44.0429 207.179C44.3974 207.681 44.8933 207.931 45.5307 207.931C46.1036 207.931 46.5422 207.802 46.8466 207.544C47.1545 207.283 47.3586 206.83 47.4589 206.186H48.4955Z" fill="black" fill-opacity="0.6"/>
<path d="M24.707 233.917H22.0859V233.105H24.707V233.917Z" fill="black" fill-opacity="0.6"/>
<path d="M28.9528 236.833H27.9537V230.21L25.9503 230.946V230.044L28.797 228.975H28.9528V236.833Z" fill="black" fill-opacity="0.6"/>
<path d="M36.8777 233.498C36.8777 234.661 36.679 235.526 36.2815 236.092C35.8841 236.658 35.2628 236.94 34.4178 236.94C33.5834 236.94 32.9658 236.665 32.5647 236.113C32.1637 235.558 31.956 234.731 31.9417 233.632V232.305C31.9417 231.156 32.1404 230.302 32.5379 229.743C32.9353 229.185 33.5584 228.905 34.407 228.905C35.2485 228.905 35.8679 229.176 36.2654 229.716C36.6629 230.253 36.867 231.084 36.8777 232.208V233.498ZM35.8841 232.139C35.8841 231.297 35.7659 230.685 35.5296 230.302C35.2932 229.915 34.9191 229.722 34.407 229.722C33.8985 229.722 33.5279 229.913 33.2952 230.296C33.0624 230.68 32.9425 231.269 32.9353 232.063V233.653C32.9353 234.498 33.0571 235.123 33.3006 235.528C33.5476 235.929 33.92 236.129 34.4178 236.129C34.9083 236.129 35.2718 235.94 35.5081 235.56C35.748 235.181 35.8733 234.583 35.8841 233.766V232.139Z" fill="black" fill-opacity="0.6"/>
<path d="M38.309 230.302C38.309 229.929 38.4415 229.604 38.7065 229.324C38.975 229.045 39.2991 228.905 39.6786 228.905C40.051 228.905 40.3679 229.045 40.6293 229.324C40.8943 229.6 41.0268 229.926 41.0268 230.302C41.0268 230.681 40.8943 231.005 40.6293 231.274C40.3679 231.542 40.051 231.677 39.6786 231.677C39.3027 231.677 38.9804 231.542 38.7118 231.274C38.4433 231.005 38.309 230.681 38.309 230.302ZM39.6786 230.989C39.872 230.989 40.0349 230.927 40.1674 230.801C40.2999 230.672 40.3661 230.506 40.3661 230.302C40.3661 230.094 40.2999 229.924 40.1674 229.792C40.0349 229.655 39.872 229.587 39.6786 229.587C39.4817 229.587 39.3152 229.659 39.1791 229.802C39.0466 229.942 38.9804 230.108 38.9804 230.302C38.9804 230.495 39.0466 230.658 39.1791 230.791C39.3152 230.923 39.4817 230.989 39.6786 230.989Z" fill="black" fill-opacity="0.6"/>
<path d="M48.4952 234.352C48.3985 235.179 48.0923 235.818 47.5767 236.269C47.0647 236.717 46.3825 236.94 45.5303 236.94C44.6065 236.94 43.8653 236.609 43.3067 235.947C42.7517 235.284 42.4742 234.398 42.4742 233.288V232.536C42.4742 231.809 42.6031 231.17 42.8609 230.619C43.1223 230.067 43.4911 229.645 43.9673 229.351C44.4436 229.054 44.995 228.905 45.6216 228.905C46.4524 228.905 47.1184 229.138 47.6197 229.604C48.121 230.065 48.4128 230.706 48.4952 231.526H47.4586C47.369 230.903 47.1739 230.452 46.8731 230.173C46.5759 229.894 46.1588 229.754 45.6216 229.754C44.9628 229.754 44.4454 229.997 44.0694 230.484C43.697 230.971 43.5108 231.664 43.5108 232.563V233.32C43.5108 234.169 43.688 234.844 44.0425 235.345C44.397 235.847 44.893 236.097 45.5303 236.097C46.1032 236.097 46.5419 235.968 46.8463 235.71C47.1542 235.449 47.3583 234.996 47.4586 234.352H48.4952Z" fill="black" fill-opacity="0.6"/>
<path d="M21.8691 262.083H19.248V261.272H21.8691V262.083Z" fill="black" fill-opacity="0.6"/>
<path d="M26.1149 265H25.1159V258.377L23.1124 259.113V258.211L25.9591 257.142H26.1149V265Z" fill="black" fill-opacity="0.6"/>
<path d="M29.5926 261.079L29.99 257.18H33.9969V258.098H30.8333L30.597 260.23C30.9801 260.005 31.4152 259.892 31.9021 259.892C32.6147 259.892 33.1804 260.128 33.5994 260.601C34.0183 261.07 34.2278 261.706 34.2278 262.508C34.2278 263.313 34.0094 263.949 33.5725 264.415C33.1393 264.876 32.5323 265.107 31.7517 265.107C31.0607 265.107 30.4967 264.916 30.0598 264.533C29.623 264.15 29.3741 263.62 29.3133 262.943H30.2532C30.3141 263.39 30.4734 263.729 30.7312 263.958C30.989 264.184 31.3292 264.296 31.7517 264.296C32.2137 264.296 32.5753 264.139 32.8367 263.824C33.1017 263.509 33.2342 263.074 33.2342 262.519C33.2342 261.996 33.0909 261.577 32.8045 261.262C32.5216 260.943 32.1438 260.784 31.6712 260.784C31.2379 260.784 30.8977 260.879 30.6507 261.068L30.3875 261.283L29.5926 261.079Z" fill="black" fill-opacity="0.6"/>
<path d="M38.3096 258.469C38.3096 258.096 38.4421 257.771 38.7071 257.491C38.9756 257.212 39.2997 257.072 39.6793 257.072C40.0517 257.072 40.3685 257.212 40.6299 257.491C40.8949 257.767 41.0274 258.093 41.0274 258.469C41.0274 258.848 40.8949 259.172 40.6299 259.441C40.3685 259.709 40.0517 259.844 39.6793 259.844C39.3033 259.844 38.981 259.709 38.7125 259.441C38.4439 259.172 38.3096 258.848 38.3096 258.469ZM39.6793 259.156C39.8726 259.156 40.0355 259.094 40.168 258.968C40.3005 258.839 40.3668 258.673 40.3668 258.469C40.3668 258.261 40.3005 258.091 40.168 257.958C40.0355 257.822 39.8726 257.754 39.6793 257.754C39.4823 257.754 39.3158 257.826 39.1797 257.969C39.0473 258.109 38.981 258.275 38.981 258.469C38.981 258.662 39.0473 258.825 39.1797 258.958C39.3158 259.09 39.4823 259.156 39.6793 259.156Z" fill="black" fill-opacity="0.6"/>
<path d="M48.4958 262.519C48.3991 263.346 48.093 263.985 47.5773 264.436C47.0653 264.884 46.3832 265.107 45.531 265.107C44.6071 265.107 43.8659 264.776 43.3073 264.114C42.7523 263.451 42.4748 262.565 42.4748 261.455V260.703C42.4748 259.976 42.6037 259.337 42.8615 258.786C43.1229 258.234 43.4917 257.812 43.968 257.518C44.4442 257.221 44.9956 257.072 45.6223 257.072C46.453 257.072 47.119 257.305 47.6203 257.771C48.1216 258.232 48.4134 258.873 48.4958 259.693H47.4592C47.3697 259.07 47.1745 258.619 46.8737 258.34C46.5765 258.061 46.1594 257.921 45.6223 257.921C44.9634 257.921 44.446 258.164 44.07 258.651C43.6976 259.138 43.5114 259.831 43.5114 260.73V261.487C43.5114 262.336 43.6887 263.011 44.0432 263.512C44.3977 264.014 44.8936 264.264 45.531 264.264C46.1039 264.264 46.5425 264.135 46.8469 263.877C47.1548 263.616 47.3589 263.163 47.4592 262.519H48.4958Z" fill="black" fill-opacity="0.6"/>
<path d="M58 119.833H416V120.833H58V119.833Z" fill="#D9D9D9"/>
<path d="M58 147.667H416V148.667H58V147.667Z" fill="#D9D9D9"/>
<path d="M58 175.5H416V176.5H58V175.5Z" fill="#D9D9D9"/>
<path d="M58 203.333H416V204.333H58V203.333Z" fill="#D9D9D9"/>
<path d="M58 231.167H416V232.167H58V231.167Z" fill="#D9D9D9"/>
<path d="M58 259H416V260H58V259Z" fill="#D9D9D9"/>
<path d="M72.625 260L72.625 93L73.625 93L73.625 260L72.625 260Z" fill="#D9D9D9"/>
<path d="M127.25 260L127.25 93L128.25 93L128.25 260L127.25 260Z" fill="#D9D9D9"/>
<path d="M181.875 260L181.875 93L182.875 93L182.875 260L181.875 260Z" fill="#D9D9D9"/>
<path d="M236.5 260L236.5 93L237.5 93L237.5 260L236.5 260Z" fill="#D9D9D9"/>
<path d="M291.125 260L291.125 93L292.125 93L292.125 260L291.125 260Z" fill="#D9D9D9"/>
<path d="M345.75 260L345.75 93L346.75 93L346.75 260L345.75 260Z" fill="#D9D9D9"/>
<path d="M400.375 260L400.375 93L401.375 93L401.375 260L400.375 260Z" fill="#D9D9D9"/>
<path d="M56.8125 276V268.18H59.02C59.7004 268.18 60.3019 268.33 60.8247 268.631C61.3475 268.932 61.7503 269.36 62.0332 269.915C62.3197 270.47 62.4647 271.107 62.4683 271.827V272.326C62.4683 273.064 62.325 273.71 62.0386 274.265C61.7557 274.82 61.3493 275.246 60.8193 275.543C60.293 275.841 59.6789 275.993 58.9771 276H56.8125ZM57.8438 269.028V275.157H58.9287C59.7236 275.157 60.3413 274.91 60.7817 274.416C61.2257 273.921 61.4478 273.218 61.4478 272.305V271.848C61.4478 270.96 61.2383 270.271 60.8193 269.78C60.404 269.286 59.8132 269.035 59.0469 269.028H57.8438Z" fill="black" fill-opacity="0.6"/>
<path d="M66.3971 276.107C65.6093 276.107 64.9684 275.85 64.4743 275.334C63.9801 274.815 63.733 274.122 63.733 273.255V273.073C63.733 272.496 63.8423 271.982 64.0607 271.531C64.2827 271.076 64.5906 270.722 64.9845 270.468C65.382 270.21 65.8117 270.081 66.2736 270.081C67.0291 270.081 67.6163 270.33 68.0353 270.828C68.4542 271.325 68.6637 272.038 68.6637 272.965V273.379H64.7267C64.741 273.952 64.9075 274.416 65.2262 274.77C65.5485 275.121 65.9567 275.296 66.4508 275.296C66.8017 275.296 67.0989 275.225 67.3424 275.082C67.5859 274.938 67.799 274.749 67.9816 274.512L68.5885 274.985C68.1015 275.733 67.3711 276.107 66.3971 276.107ZM66.2736 270.897C65.8725 270.897 65.5359 271.044 65.2638 271.338C64.9917 271.628 64.8234 272.036 64.7589 272.562H67.6701V272.487C67.6414 271.982 67.5053 271.592 67.2619 271.316C67.0184 271.037 66.6889 270.897 66.2736 270.897Z" fill="black" fill-opacity="0.6"/>
<path d="M72.2596 275.296C72.614 275.296 72.9238 275.189 73.1887 274.974C73.4537 274.759 73.6005 274.491 73.6292 274.168H74.5691C74.5512 274.501 74.4366 274.818 74.2254 275.119C74.0141 275.42 73.7312 275.66 73.3767 275.839C73.0258 276.018 72.6534 276.107 72.2596 276.107C71.4682 276.107 70.838 275.844 70.3689 275.318C69.9034 274.788 69.6707 274.065 69.6707 273.148V272.981C69.6707 272.416 69.7745 271.913 69.9822 271.472C70.1899 271.032 70.4871 270.69 70.8738 270.446C71.2641 270.203 71.7242 270.081 72.2542 270.081C72.9059 270.081 73.4466 270.276 73.8762 270.667C74.3095 271.057 74.5405 271.563 74.5691 272.187H73.6292C73.6005 271.811 73.4573 271.503 73.1995 271.263C72.9453 271.019 72.6302 270.897 72.2542 270.897C71.7493 270.897 71.3572 271.08 71.0779 271.445C70.8022 271.807 70.6643 272.332 70.6643 273.019V273.207C70.6643 273.877 70.8022 274.392 71.0779 274.754C71.3536 275.116 71.7475 275.296 72.2596 275.296Z" fill="black" fill-opacity="0.6"/>
<path d="M83.6568 276H78.5328V275.286L81.2398 272.278C81.6408 271.823 81.9166 271.454 82.067 271.171C82.2209 270.885 82.2979 270.59 82.2979 270.285C82.2979 269.877 82.1744 269.542 81.9273 269.281C81.6802 269.019 81.3508 268.889 80.939 268.889C80.4449 268.889 80.06 269.03 79.7842 269.313C79.5121 269.592 79.376 269.983 79.376 270.484H78.3824C78.3824 269.764 78.6133 269.182 79.0753 268.738C79.5407 268.294 80.162 268.072 80.939 268.072C81.6659 268.072 82.2406 268.264 82.6631 268.647C83.0857 269.027 83.2969 269.533 83.2969 270.167C83.2969 270.937 82.8064 271.854 81.8253 272.917L79.7305 275.189H83.6568V276Z" fill="black" fill-opacity="0.6"/>
<path d="M89.9436 276H84.8195V275.286L87.5266 272.278C87.9276 271.823 88.2033 271.454 88.3537 271.171C88.5077 270.885 88.5847 270.59 88.5847 270.285C88.5847 269.877 88.4611 269.542 88.2141 269.281C87.967 269.019 87.6376 268.889 87.2258 268.889C86.7316 268.889 86.3467 269.03 86.071 269.313C85.7989 269.592 85.6628 269.983 85.6628 270.484H84.6691C84.6691 269.764 84.9001 269.182 85.362 268.738C85.8275 268.294 86.4488 268.072 87.2258 268.072C87.9527 268.072 88.5274 268.264 88.9499 268.647C89.3724 269.027 89.5837 269.533 89.5837 270.167C89.5837 270.937 89.0931 271.854 88.112 272.917L86.0173 275.189H89.9436V276Z" fill="black" fill-opacity="0.6"/>
<path d="M111.438 276V268.18H113.645C114.325 268.18 114.927 268.33 115.45 268.631C115.972 268.932 116.375 269.36 116.658 269.915C116.945 270.47 117.09 271.107 117.093 271.827V272.326C117.093 273.064 116.95 273.71 116.664 274.265C116.381 274.82 115.974 275.246 115.444 275.543C114.918 275.841 114.304 275.993 113.602 276H111.438ZM112.469 269.028V275.157H113.554C114.349 275.157 114.966 274.91 115.407 274.416C115.851 273.921 116.073 273.218 116.073 272.305V271.848C116.073 270.96 115.863 270.271 115.444 269.78C115.029 269.286 114.438 269.035 113.672 269.028H112.469Z" fill="black" fill-opacity="0.6"/>
<path d="M121.022 276.107C120.234 276.107 119.593 275.85 119.099 275.334C118.605 274.815 118.358 274.122 118.358 273.255V273.073C118.358 272.496 118.467 271.982 118.686 271.531C118.908 271.076 119.216 270.722 119.61 270.468C120.007 270.21 120.437 270.081 120.899 270.081C121.654 270.081 122.241 270.33 122.66 270.828C123.079 271.325 123.289 272.038 123.289 272.965V273.379H119.352C119.366 273.952 119.533 274.416 119.851 274.77C120.173 275.121 120.582 275.296 121.076 275.296C121.427 275.296 121.724 275.225 121.967 275.082C122.211 274.938 122.424 274.749 122.607 274.512L123.214 274.985C122.727 275.733 121.996 276.107 121.022 276.107ZM120.899 270.897C120.498 270.897 120.161 271.044 119.889 271.338C119.617 271.628 119.448 272.036 119.384 272.562H122.295V272.487C122.266 271.982 122.13 271.592 121.887 271.316C121.643 271.037 121.314 270.897 120.899 270.897Z" fill="black" fill-opacity="0.6"/>
<path d="M126.885 275.296C127.239 275.296 127.549 275.189 127.814 274.974C128.079 274.759 128.226 274.491 128.254 274.168H129.194C129.176 274.501 129.062 274.818 128.85 275.119C128.639 275.42 128.356 275.66 128.002 275.839C127.651 276.018 127.278 276.107 126.885 276.107C126.093 276.107 125.463 275.844 124.994 275.318C124.528 274.788 124.296 274.065 124.296 273.148V272.981C124.296 272.416 124.4 271.913 124.607 271.472C124.815 271.032 125.112 270.69 125.499 270.446C125.889 270.203 126.349 270.081 126.879 270.081C127.531 270.081 128.072 270.276 128.501 270.667C128.935 271.057 129.165 271.563 129.194 272.187H128.254C128.226 271.811 128.082 271.503 127.824 271.263C127.57 271.019 127.255 270.897 126.879 270.897C126.374 270.897 125.982 271.08 125.703 271.445C125.427 271.807 125.289 272.332 125.289 273.019V273.207C125.289 273.877 125.427 274.392 125.703 274.754C125.979 275.116 126.373 275.296 126.885 275.296Z" fill="black" fill-opacity="0.6"/>
<path d="M138.282 276H133.158V275.286L135.865 272.278C136.266 271.823 136.542 271.454 136.692 271.171C136.846 270.885 136.923 270.59 136.923 270.285C136.923 269.877 136.799 269.542 136.552 269.281C136.305 269.019 135.976 268.889 135.564 268.889C135.07 268.889 134.685 269.03 134.409 269.313C134.137 269.592 134.001 269.983 134.001 270.484H133.007C133.007 269.764 133.238 269.182 133.7 268.738C134.166 268.294 134.787 268.072 135.564 268.072C136.291 268.072 136.866 268.264 137.288 268.647C137.711 269.027 137.922 269.533 137.922 270.167C137.922 270.937 137.431 271.854 136.45 272.917L134.356 275.189H138.282V276Z" fill="black" fill-opacity="0.6"/>
<path d="M144.493 268.738L141.255 276H140.213L143.441 268.996H139.208V268.18H144.493V268.738Z" fill="black" fill-opacity="0.6"/>
<path d="M172.825 268.18H173.862V273.718C173.862 274.466 173.636 275.052 173.185 275.474C172.737 275.897 172.139 276.108 171.391 276.108C170.614 276.108 170.009 275.909 169.576 275.512C169.142 275.114 168.926 274.557 168.926 273.841H169.957C169.957 274.289 170.079 274.638 170.322 274.889C170.569 275.139 170.926 275.265 171.391 275.265C171.817 275.265 172.161 275.13 172.422 274.862C172.687 274.593 172.822 274.217 172.825 273.734V268.18Z" fill="black" fill-opacity="0.6"/>
<path d="M179.16 276C179.103 275.886 179.056 275.682 179.021 275.388C178.559 275.868 178.007 276.108 177.366 276.108C176.793 276.108 176.323 275.947 175.954 275.625C175.589 275.299 175.406 274.887 175.406 274.389C175.406 273.784 175.635 273.315 176.093 272.982C176.555 272.645 177.203 272.477 178.038 272.477H179.005V272.021C179.005 271.673 178.901 271.397 178.693 271.193C178.485 270.986 178.179 270.882 177.775 270.882C177.42 270.882 177.123 270.971 176.883 271.15C176.643 271.329 176.523 271.546 176.523 271.8H175.524C175.524 271.51 175.626 271.231 175.83 270.962C176.038 270.69 176.317 270.475 176.668 270.318C177.023 270.16 177.411 270.082 177.834 270.082C178.503 270.082 179.028 270.25 179.407 270.586C179.787 270.919 179.984 271.38 179.998 271.967V274.642C179.998 275.175 180.066 275.599 180.202 275.915V276H179.16ZM177.511 275.243C177.823 275.243 178.118 275.163 178.398 275.001C178.677 274.84 178.879 274.631 179.005 274.373V273.181H178.226C177.008 273.181 176.4 273.537 176.4 274.25C176.4 274.561 176.503 274.805 176.711 274.98C176.919 275.155 177.186 275.243 177.511 275.243Z" fill="black" fill-opacity="0.6"/>
<path d="M182.606 270.189L182.638 270.919C183.082 270.361 183.662 270.082 184.378 270.082C185.606 270.082 186.226 270.774 186.237 272.16V276H185.243V272.155C185.239 271.736 185.143 271.426 184.953 271.226C184.767 271.025 184.475 270.925 184.077 270.925C183.755 270.925 183.472 271.011 183.229 271.183C182.985 271.354 182.796 271.58 182.659 271.859V276H181.666V270.189H182.606Z" fill="black" fill-opacity="0.6"/>
<path d="M193.847 276H192.848V269.378L190.845 270.114V269.211L193.691 268.143H193.847V276Z" fill="black" fill-opacity="0.6"/>
<path d="M227.45 268.179H228.487V273.717C228.487 274.465 228.261 275.051 227.81 275.473C227.362 275.896 226.764 276.107 226.016 276.107C225.239 276.107 224.634 275.908 224.201 275.511C223.767 275.113 223.551 274.556 223.551 273.84H224.582C224.582 274.288 224.704 274.637 224.947 274.888C225.194 275.138 225.551 275.264 226.016 275.264C226.442 275.264 226.786 275.129 227.047 274.861C227.312 274.592 227.447 274.216 227.45 273.733V268.179Z" fill="black" fill-opacity="0.6"/>
<path d="M233.785 276C233.728 275.885 233.681 275.681 233.646 275.387C233.184 275.867 232.632 276.107 231.991 276.107C231.418 276.107 230.948 275.946 230.579 275.624C230.214 275.298 230.031 274.886 230.031 274.388C230.031 273.783 230.26 273.314 230.718 272.981C231.18 272.644 231.828 272.476 232.663 272.476H233.63V272.02C233.63 271.672 233.526 271.396 233.318 271.192C233.11 270.985 232.804 270.881 232.4 270.881C232.045 270.881 231.748 270.97 231.508 271.149C231.268 271.328 231.148 271.545 231.148 271.799H230.149C230.149 271.509 230.251 271.23 230.455 270.961C230.663 270.689 230.942 270.474 231.293 270.317C231.648 270.159 232.036 270.081 232.459 270.081C233.128 270.081 233.653 270.249 234.032 270.585C234.412 270.918 234.609 271.379 234.623 271.966V274.641C234.623 275.174 234.691 275.598 234.827 275.914V276H233.785ZM232.136 275.242C232.448 275.242 232.743 275.162 233.023 275C233.302 274.839 233.504 274.63 233.63 274.372V273.18H232.851C231.633 273.18 231.025 273.536 231.025 274.249C231.025 274.56 231.128 274.804 231.336 274.979C231.544 275.154 231.811 275.242 232.136 275.242Z" fill="black" fill-opacity="0.6"/>
<path d="M237.231 270.188L237.263 270.918C237.707 270.36 238.287 270.081 239.003 270.081C240.231 270.081 240.851 270.773 240.862 272.159V276H239.868V272.154C239.864 271.735 239.768 271.425 239.578 271.225C239.392 271.024 239.1 270.924 238.702 270.924C238.38 270.924 238.097 271.01 237.854 271.182C237.61 271.354 237.421 271.579 237.284 271.858V276H236.291V270.188H237.231Z" fill="black" fill-opacity="0.6"/>
<path d="M249.106 268.174V269.017H248.923C248.15 269.031 247.534 269.261 247.076 269.705C246.617 270.149 246.352 270.773 246.281 271.579C246.693 271.106 247.255 270.87 247.967 270.87C248.648 270.87 249.19 271.11 249.595 271.59C250.003 272.07 250.207 272.689 250.207 273.448C250.207 274.254 249.987 274.898 249.546 275.382C249.11 275.865 248.522 276.107 247.785 276.107C247.036 276.107 246.429 275.82 245.964 275.248C245.498 274.671 245.266 273.93 245.266 273.024V272.643C245.266 271.203 245.572 270.104 246.184 269.345C246.8 268.582 247.715 268.192 248.929 268.174H249.106ZM247.801 271.697C247.461 271.697 247.147 271.799 246.861 272.003C246.574 272.208 246.376 272.464 246.265 272.771V273.137C246.265 273.781 246.41 274.3 246.7 274.694C246.99 275.088 247.351 275.285 247.785 275.285C248.232 275.285 248.583 275.12 248.837 274.791C249.095 274.462 249.224 274.03 249.224 273.497C249.224 272.959 249.093 272.526 248.832 272.197C248.574 271.864 248.231 271.697 247.801 271.697Z" fill="black" fill-opacity="0.6"/>
<path d="M278.933 268.18H279.969V273.718C279.969 274.466 279.744 275.052 279.292 275.474C278.845 275.897 278.247 276.108 277.499 276.108C276.722 276.108 276.116 275.909 275.683 275.512C275.25 275.114 275.033 274.557 275.033 273.841H276.064C276.064 274.289 276.186 274.638 276.43 274.889C276.677 275.139 277.033 275.265 277.499 275.265C277.925 275.265 278.268 275.13 278.53 274.862C278.795 274.593 278.929 274.217 278.933 273.734V268.18Z" fill="black" fill-opacity="0.6"/>
<path d="M285.268 276C285.21 275.886 285.164 275.682 285.128 275.388C284.666 275.868 284.115 276.108 283.474 276.108C282.901 276.108 282.43 275.947 282.061 275.625C281.696 275.299 281.513 274.887 281.513 274.389C281.513 273.784 281.742 273.315 282.201 272.982C282.663 272.645 283.311 272.477 284.145 272.477H285.112V272.021C285.112 271.673 285.008 271.397 284.8 271.193C284.593 270.986 284.287 270.882 283.882 270.882C283.527 270.882 283.23 270.971 282.99 271.15C282.75 271.329 282.631 271.546 282.631 271.8H281.631C281.631 271.51 281.734 271.231 281.938 270.962C282.145 270.69 282.425 270.475 282.776 270.318C283.13 270.16 283.519 270.082 283.941 270.082C284.611 270.082 285.135 270.25 285.515 270.586C285.894 270.919 286.091 271.38 286.106 271.967V274.642C286.106 275.175 286.174 275.599 286.31 275.915V276H285.268ZM283.619 275.243C283.93 275.243 284.226 275.163 284.505 275.001C284.784 274.84 284.987 274.631 285.112 274.373V273.181H284.333C283.116 273.181 282.507 273.537 282.507 274.25C282.507 274.561 282.611 274.805 282.818 274.98C283.026 275.155 283.293 275.243 283.619 275.243Z" fill="black" fill-opacity="0.6"/>
<path d="M288.713 270.189L288.745 270.919C289.189 270.361 289.769 270.082 290.486 270.082C291.714 270.082 292.333 270.774 292.344 272.16V276H291.35V272.155C291.347 271.736 291.25 271.426 291.06 271.226C290.874 271.025 290.582 270.925 290.185 270.925C289.863 270.925 289.58 271.011 289.336 271.183C289.093 271.354 288.903 271.58 288.767 271.859V276H287.773V270.189H288.713Z" fill="black" fill-opacity="0.6"/>
<path d="M299.955 276H298.956V269.378L296.952 270.114V269.211L299.799 268.143H299.955V276Z" fill="black" fill-opacity="0.6"/>
<path d="M306.241 276H305.242V269.378L303.239 270.114V269.211L306.086 268.143H306.241V276Z" fill="black" fill-opacity="0.6"/>
<path d="M333.558 268.18H334.594V273.718C334.594 274.466 334.369 275.052 333.917 275.474C333.47 275.897 332.872 276.108 332.124 276.108C331.347 276.108 330.741 275.909 330.308 275.512C329.875 275.114 329.658 274.557 329.658 273.841H330.689C330.689 274.289 330.811 274.638 331.055 274.889C331.302 275.139 331.658 275.265 332.124 275.265C332.55 275.265 332.893 275.13 333.155 274.862C333.42 274.593 333.554 274.217 333.558 273.734V268.18Z" fill="black" fill-opacity="0.6"/>
<path d="M339.893 276C339.835 275.886 339.789 275.682 339.753 275.388C339.291 275.868 338.74 276.108 338.099 276.108C337.526 276.108 337.055 275.947 336.686 275.625C336.321 275.299 336.138 274.887 336.138 274.389C336.138 273.784 336.367 273.315 336.826 272.982C337.288 272.645 337.936 272.477 338.77 272.477H339.737V272.021C339.737 271.673 339.633 271.397 339.425 271.193C339.218 270.986 338.912 270.882 338.507 270.882C338.152 270.882 337.855 270.971 337.615 271.15C337.375 271.329 337.256 271.546 337.256 271.8H336.256C336.256 271.51 336.359 271.231 336.563 270.962C336.77 270.69 337.05 270.475 337.401 270.318C337.755 270.16 338.144 270.082 338.566 270.082C339.236 270.082 339.76 270.25 340.14 270.586C340.519 270.919 340.716 271.38 340.731 271.967V274.642C340.731 275.175 340.799 275.599 340.935 275.915V276H339.893ZM338.244 275.243C338.555 275.243 338.851 275.163 339.13 275.001C339.409 274.84 339.612 274.631 339.737 274.373V273.181H338.958C337.741 273.181 337.132 273.537 337.132 274.25C337.132 274.561 337.236 274.805 337.443 274.98C337.651 275.155 337.918 275.243 338.244 275.243Z" fill="black" fill-opacity="0.6"/>
<path d="M343.338 270.189L343.37 270.919C343.814 270.361 344.394 270.082 345.111 270.082C346.339 270.082 346.958 270.774 346.969 272.16V276H345.975V272.155C345.972 271.736 345.875 271.426 345.685 271.226C345.499 271.025 345.207 270.925 344.81 270.925C344.488 270.925 344.205 271.011 343.961 271.183C343.718 271.354 343.528 271.58 343.392 271.859V276H342.398V270.189H343.338Z" fill="black" fill-opacity="0.6"/>
<path d="M354.58 276H353.581V269.378L351.577 270.114V269.211L354.424 268.143H354.58V276Z" fill="black" fill-opacity="0.6"/>
<path d="M361.5 268.175V269.018H361.318C360.544 269.032 359.928 269.262 359.47 269.706C359.012 270.15 358.747 270.774 358.675 271.58C359.087 271.107 359.649 270.871 360.362 270.871C361.042 270.871 361.584 271.111 361.989 271.591C362.397 272.071 362.601 272.69 362.601 273.449C362.601 274.255 362.381 274.899 361.941 275.383C361.504 275.866 360.917 276.108 360.179 276.108C359.431 276.108 358.824 275.821 358.358 275.249C357.893 274.672 357.66 273.931 357.66 273.025V272.644C357.66 271.204 357.966 270.105 358.578 269.346C359.194 268.583 360.109 268.193 361.323 268.175H361.5ZM360.195 271.698C359.855 271.698 359.542 271.8 359.255 272.004C358.969 272.208 358.77 272.465 358.659 272.772V273.138C358.659 273.782 358.804 274.301 359.094 274.695C359.384 275.089 359.746 275.286 360.179 275.286C360.626 275.286 360.977 275.121 361.232 274.792C361.489 274.463 361.618 274.031 361.618 273.498C361.618 272.96 361.488 272.527 361.226 272.198C360.968 271.865 360.625 271.698 360.195 271.698Z" fill="black" fill-opacity="0.6"/>
<path d="M388.183 268.18H389.219V273.717C389.219 274.466 388.994 275.051 388.542 275.474C388.095 275.896 387.497 276.107 386.749 276.107C385.972 276.107 385.366 275.909 384.933 275.511C384.5 275.114 384.283 274.557 384.283 273.841H385.314C385.314 274.288 385.436 274.638 385.68 274.888C385.927 275.139 386.283 275.264 386.749 275.264C387.175 275.264 387.518 275.13 387.78 274.861C388.045 274.593 388.179 274.217 388.183 273.733V268.18Z" fill="black" fill-opacity="0.6"/>
<path d="M394.518 276C394.46 275.885 394.414 275.681 394.378 275.388C393.916 275.868 393.365 276.107 392.724 276.107C392.151 276.107 391.68 275.946 391.311 275.624C390.946 275.298 390.763 274.886 390.763 274.389C390.763 273.784 390.992 273.314 391.451 272.981C391.913 272.645 392.561 272.477 393.395 272.477H394.362V272.02C394.362 271.673 394.258 271.397 394.05 271.193C393.843 270.985 393.537 270.881 393.132 270.881C392.777 270.881 392.48 270.971 392.24 271.15C392 271.329 391.881 271.546 391.881 271.8H390.881C390.881 271.51 390.984 271.23 391.188 270.962C391.395 270.69 391.675 270.475 392.026 270.317C392.38 270.16 392.769 270.081 393.191 270.081C393.861 270.081 394.385 270.249 394.765 270.586C395.144 270.919 395.341 271.379 395.356 271.966V274.641C395.356 275.175 395.424 275.599 395.56 275.914V276H394.518ZM392.869 275.243C393.18 275.243 393.476 275.162 393.755 275.001C394.034 274.84 394.237 274.63 394.362 274.373V273.18H393.583C392.366 273.18 391.757 273.536 391.757 274.249C391.757 274.561 391.861 274.804 392.068 274.979C392.276 275.155 392.543 275.243 392.869 275.243Z" fill="black" fill-opacity="0.6"/>
<path d="M397.963 270.188L397.995 270.919C398.439 270.36 399.019 270.081 399.736 270.081C400.964 270.081 401.583 270.774 401.594 272.16V276H400.6V272.154C400.597 271.735 400.5 271.426 400.31 271.225C400.124 271.025 399.832 270.924 399.435 270.924C399.113 270.924 398.83 271.01 398.586 271.182C398.343 271.354 398.153 271.58 398.017 271.859V276H397.023V270.188H397.963Z" fill="black" fill-opacity="0.6"/>
<path d="M411.063 276H405.939V275.286L408.646 272.278C409.047 271.823 409.323 271.454 409.473 271.171C409.627 270.885 409.704 270.59 409.704 270.285C409.704 269.877 409.581 269.542 409.334 269.281C409.086 269.019 408.757 268.889 408.345 268.889C407.851 268.889 407.466 269.03 407.19 269.313C406.918 269.592 406.782 269.983 406.782 270.484H405.789C405.789 269.764 406.02 269.182 406.482 268.738C406.947 268.294 407.568 268.072 408.345 268.072C409.072 268.072 409.647 268.264 410.069 268.647C410.492 269.027 410.703 269.533 410.703 270.167C410.703 270.937 410.213 271.854 409.232 272.917L407.137 275.189H411.063V276Z" fill="black" fill-opacity="0.6"/>
<path d="M415.491 276H414.492V269.377L412.489 270.113V269.211L415.336 268.142H415.491V276Z" fill="black" fill-opacity="0.6"/>
<mask id="mask0" mask-type="alpha" maskUnits="userSpaceOnUse" x="58" y="93" width="358" height="167">
<path d="M58 93H416V260H58V93Z" fill="#C4C4C4"/>
</mask>
<g mask="url(#mask0)">
<path fill-rule="evenodd" clip-rule="evenodd" d="M181.542 129H236.963L291.763 193.339L345.669 221.826L400.315 182.323L455.5 214.134L454.501 215.866L400.437 184.702L345.833 224.174L290.489 194.928L236.039 131H182.21L127.444 172.228L72.9982 155.399L18.7965 226.606L17.2051 225.394L72.2534 153.075L127.058 170.015L181.542 129Z" fill="#2F80EC"/>
<path d="M77 154.5C77 156.433 75.433 158 73.5 158C71.567 158 70 156.433 70 154.5C70 152.567 71.567 151 73.5 151C75.433 151 77 152.567 77 154.5Z" fill="#2F80EC"/>
<path d="M131 170.5C131 172.433 129.433 174 127.5 174C125.567 174 124 172.433 124 170.5C124 168.567 125.567 167 127.5 167C129.433 167 131 168.567 131 170.5Z" fill="#2F80EC"/>
<path d="M186 130C186 131.933 184.433 133.5 182.5 133.5C180.567 133.5 179 131.933 179 130C179 128.067 180.567 126.5 182.5 126.5C184.433 126.5 186 128.067 186 130Z" fill="#2F80EC"/>
<path d="M240 130C240 131.933 238.433 133.5 236.5 133.5C234.567 133.5 233 131.933 233 130C233 128.067 234.567 126.5 236.5 126.5C238.433 126.5 240 128.067 240 130Z" fill="#2F80EC"/>
<path d="M295 194C295 195.933 293.433 197.5 291.5 197.5C289.567 197.5 288 195.933 288 194C288 192.067 289.567 190.5 291.5 190.5C293.433 190.5 295 192.067 295 194Z" fill="#2F80EC"/>
<path d="M350 223C350 224.933 348.433 226.5 346.5 226.5C344.567 226.5 343 224.933 343 223C343 221.067 344.567 219.5 346.5 219.5C348.433 219.5 350 221.067 350 223Z" fill="#2F80EC"/>
<path d="M404 184C404 185.933 402.433 187.5 400.5 187.5C398.567 187.5 397 185.933 397 184C397 182.067 398.567 180.5 400.5 180.5C402.433 180.5 404 182.067 404 184Z" fill="#2F80EC"/>
<path fill-rule="evenodd" clip-rule="evenodd" d="M17.1367 160.505L18.8628 159.495L72.8958 251.808L127.142 207.258L181.575 237.687L235.975 160.317L291.265 159.544L345.759 175.986L400.789 160.482L455.821 239.656L454.179 240.797L399.96 162.793L345.74 178.069L290.984 161.548L237.024 162.303L182.174 240.313L127.357 209.669L72.3537 254.841L17.1367 160.505Z" fill="#305680"/>
<path d="M77 252.5C77 254.433 75.433 256 73.5 256C71.567 256 70 254.433 70 252.5C70 250.567 71.567 249 73.5 249C75.433 249 77 250.567 77 252.5Z" fill="#305680"/>
<path d="M130.834 209.5C130.834 211.433 129.267 213 127.334 213C125.401 213 123.834 211.433 123.834 209.5C123.834 207.567 125.401 206 127.334 206C129.267 206 130.834 207.567 130.834 209.5Z" fill="#305680"/>
<path d="M185.664 238.5C185.664 240.433 184.097 242 182.164 242C180.231 242 178.664 240.433 178.664 238.5C178.664 236.567 180.231 235 182.164 235C184.097 235 185.664 236.567 185.664 238.5Z" fill="#305680"/>
<path d="M240.498 161.5C240.498 163.433 238.931 165 236.998 165C235.065 165 233.498 163.433 233.498 161.5C233.498 159.567 235.065 158 236.998 158C238.931 158 240.498 159.567 240.498 161.5Z" fill="#305680"/>
<path d="M295.33 160.5C295.33 162.433 293.763 164 291.83 164C289.897 164 288.33 162.433 288.33 160.5C288.33 158.567 289.897 157 291.83 157C293.763 157 295.33 158.567 295.33 160.5Z" fill="#305680"/>
<path d="M350.164 176.5C350.164 178.433 348.597 180 346.664 180C344.731 180 343.164 178.433 343.164 176.5C343.164 174.567 344.731 173 346.664 173C348.597 173 350.164 174.567 350.164 176.5Z" fill="#305680"/>
<path d="M404.994 162.5C404.994 164.433 403.427 166 401.494 166C399.561 166 397.994 164.433 397.994 162.5C397.994 160.567 399.561 159 401.494 159C403.427 159 404.994 160.567 404.994 162.5Z" fill="#305680"/>
<path opacity="0.1" d="M345.966 223L290.95 193.829L275 175H456V214.916L400.983 183.097L345.966 223Z" fill="#2F80EC"/>
<path opacity="0.1" d="M126.863 171.573L72.2025 154.504L56 176H275L236.185 130H181.524L126.863 171.573Z" fill="#2F80EC"/>
</g>
<rect x="57.5" y="92.5" width="359" height="168" stroke="black" stroke-opacity="0.87"/>
</svg>
