<svg xmlns="http://www.w3.org/2000/svg" height="59.697mm" width="59.697mm" version="1.1" viewBox="0 0 211.52606 211.52604">
 <g transform="translate(-206.84 -294.46)">
  <rect stroke-linejoin="round" height="196.53" width="196.53" stroke="#305680" stroke-linecap="round" y="301.96" x="214.34" stroke-width="15" fill="none"/>
  <g transform="matrix(.96372 0 0 .96372 9.1937 16.32)">
   <g fill="#305680" transform="translate(572,260)">
    <path d="m-333.96 113.84v12.615c0 0.76745 0.62355 1.407 1.407 1.407h9.753c0.76745 0 1.407-0.62356 1.407-1.407v-22.192l-7.0829 7.0829c-1.5029 1.4869-3.4216 2.3503-5.4841 2.4942z"/>
    <path d="m-316.54 104.11v22.352c0 0.76745 0.62355 1.407 1.407 1.407h9.753c0.76746 0 1.407-0.62356 1.407-1.407v-13.159c-2.2224-0.048-4.3009-0.92734-5.8678-2.4942z"/>
    <path d="m-299.11 111.91v14.55c0 0.76745 0.62355 1.407 1.407 1.407h9.753c0.76745 0 1.407-0.62356 1.407-1.407v-26.845l-11.176 11.176c-0.43169 0.43169-0.89536 0.79943-1.391 1.1192z"/>
    <path d="m-270.06 83.114-11.624 11.624v31.721c0 0.76745 0.62356 1.407 1.407 1.407h9.753c0.76745 0 1.407-0.62356 1.407-1.407v-42.466c-0.31977-0.2718-0.5596-0.51163-0.73547-0.67152z"/>
   </g>
   <path d="m309.92 322.52c-0.46367-0.49565-1.1672-0.75147-2.0625-0.75147h-0.25582c-4.5408 0.20786-9.0655 0.4317-13.606 0.63955-0.60757 0.032-1.439 0.064-2.0945 0.71948-0.20785 0.20786-0.36773 0.44768-0.49564 0.73548-0.67152 1.455 0.2718 2.3983 0.71948 2.846l1.1352 1.1512c0.78344 0.79943 1.5829 1.5989 2.3823 2.3823l-27.436 27.452-12.327-12.327c-0.73547-0.73547-1.7268-1.1512-2.782-1.1512s-2.0306 0.4157-2.766 1.1512l-16.42 16.404c-1.5349 1.5349-1.5349 4.0131 0 5.548l0.73547 0.73547c0.73548 0.73548 1.7268 1.1512 2.782 1.1512s2.0306-0.4157 2.766-1.1512l12.903-12.903 12.327 12.327c0.73548 0.73548 1.7268 1.1512 2.782 1.1512s2.0306-0.4157 2.782-1.1512l30.954-30.954 3.5015 3.4855c0.4157 0.4157 0.99129 0.99129 1.8707 0.99129 0.36774 0 0.73547-0.0959 1.1192-0.30378 0.25582-0.1439 0.47966-0.30378 0.67152-0.49565 0.68751-0.68751 0.81542-1.5669 0.84739-2.2544 0.12791-2.9419 0.27181-5.8838 0.41571-8.8417l0.20785-4.4288c0.048-0.92734-0.15989-1.6468-0.65553-2.1585z" fill="#237de0"/>
  </g>
  <g transform="matrix(1.0092 0 0 1.0092 -3.9587 -3.5472)">
   <path d="m384.67 442.38 11.443 23.507c0.46533 0.95604-0.0238 1.7382-1.0871 1.7382h-71.791c-1.0633 0-1.5525-0.78215-1.0871-1.7382l11.443-23.507c0.18203-0.37389 0.67128-0.6799 1.0871-0.6799h9.8119c0.30237 0 0.71075 0.18931 0.90869 0.41797 0.66569 0.76928 1.3438 1.5208 2.0199 2.2647 0.64214 0.70613 1.2877 1.4215 1.9281 2.1536h-11.644c-0.4159 0-0.90516 0.30589-1.0871 0.6799l-7.5806 15.573h60.191l-7.58-15.573c-0.18191-0.37401-0.67116-0.6799-1.0872-0.6799h-11.671c0.64031-0.73212 1.2861-1.4475 1.9282-2.1536 0.67821-0.74608 1.3601-1.4962 2.0273-2.2657 0.19769-0.22805 0.60522-0.417 0.90711-0.417h9.8326c0.41567 0 0.9048 0.30577 1.0868 0.6799z" fill="#305680"/>
   <path d="m359.34 409.48c-0.61306-0.008-1.2341 0.0169-1.8613 0.0762-9.8674 0.93273-16.624 10.493-14.902 20.254 1.749 9.9148 10.889 12.966 15.426 24.096 0.40875 1.0029 1.8218 1.0089 2.2305 0.006 5.029-12.344 15.723-14.753 15.723-27.598 0-9.2241-7.4192-16.715-16.615-16.834zm-0.2207 7.9434c4.9104 0 8.8906 3.9804 8.8906 8.8906 0 4.9104-3.9802 8.8906-8.8906 8.8906s-8.8906-3.9802-8.8906-8.8906c0-4.9103 3.9802-8.8906 8.8906-8.8906z" fill="#237de0"/>
  </g>
  <g transform="matrix(.92743 0 0 .92743 17.571 36.091)">
   <path d="m273.85 427.41c6.1897 0.24454 12.02 1.8791 17.193 4.6002l-5.6034 9.7052c-3.5149-1.7806-7.4368-2.8736-11.589-3.1008zm20.002 6.2251c5.0687 3.2108 9.3741 7.5172 12.585 12.585l-9.7071 5.6041c-2.2134-3.3772-5.105-6.2691-8.4816-8.4822zm14.21 15.395c2.7211 5.1713 4.3544 11.003 4.5999 17.192h-11.205c-0.22716-4.1523-1.3189-8.0748-3.0998-11.589zm-76.269 17.192c0.24486-6.1893 1.8784-12.021 4.5999-17.192l9.7049 5.6031c-1.7809 3.5142-2.8733 7.4368-3.1001 11.589zm6.2251-20.002c3.2105-5.0687 7.5169-9.3735 12.585-12.585l5.6038 9.7065c-3.3772 2.213-6.2691 5.105-8.4825 8.4825zm15.394-14.21c5.1716-2.7221 11.003-4.3553 17.193-4.6002v11.205c-4.1523 0.22749-8.0748 1.3192-11.589 3.1005l-5.6031-9.7049" fill="#237de0"/>
   <path d="m272.18 469.64c0.90237 0.36855 2.0049-0.0438 2.3099-0.96911l7.8016-23.762-11.081 22.421c-0.4317 0.87417 0.0668 1.9414 0.96911 2.3104" fill-rule="evenodd" fill="#305680"/>
  </g>
  <g transform="matrix(1.0393 0 0 1.0393 -13.249 -14.828)">
   <path d="m361.97 326.49c13.47 0.84189 23.994 11.786 25.256 25.256h-25.256zm-2.1047-4.2094h-2.1047v33.675h33.675v-2.1047c0-17.259-14.312-31.571-31.571-31.571z" fill="#237de0"/>
   <path d="m353.55 360.16v-33.675c-16.417 1.2628-29.466 14.733-29.466 31.571 0 17.259 14.312 31.571 31.571 31.571 16.838 0 30.308-13.049 31.571-29.466z" fill="#305680"/>
  </g>
 </g>
</svg>
