<svg width="65" height="64" viewBox="0 0 65 64" fill="none" xmlns="http://www.w3.org/2000/svg">
<path fill-rule="evenodd" clip-rule="evenodd" d="M27.185 10.0586L11.185 24.2799C10.3407 25.0304 9.66483 25.9512 9.20199 26.9816C8.73915 28.0121 8.49979 29.1289 8.49967 30.2586V56.6666H5.83301C5.30257 56.6666 4.79387 56.8773 4.41879 57.2524C4.04372 57.6275 3.83301 58.1362 3.83301 58.6666C3.83301 59.197 4.04372 59.7057 4.41879 60.0808C4.79387 60.4559 5.30257 60.6666 5.83301 60.6666H59.1663C59.6968 60.6666 60.2055 60.4559 60.5806 60.0808C60.9556 59.7057 61.1663 59.197 61.1663 58.6666C61.1663 58.1362 60.9556 57.6275 60.5806 57.2524C60.2055 56.8773 59.6968 56.6666 59.1663 56.6666H56.4997V30.2586C56.4996 29.1289 56.2602 28.0121 55.7974 26.9816C55.3345 25.9512 54.6587 25.0304 53.8143 24.2799L37.8143 10.0586C36.35 8.75703 34.4589 8.03809 32.4997 8.03809C30.5405 8.03809 28.6494 8.75703 27.185 10.0586ZM37.9717 29.9999C40.369 29.9999 42.3663 29.9999 43.9503 30.2133C45.625 30.4373 47.137 30.9333 48.3503 32.1493C49.5663 33.3626 50.0623 34.8746 50.2863 36.5493C50.4997 38.1333 50.4997 40.1333 50.4997 42.5279V56.6666H14.4997V42.5279C14.4997 40.1333 14.4997 38.1333 14.713 36.5493C14.937 34.8746 15.433 33.3626 16.6463 32.1493C17.8623 30.9333 19.3743 30.4373 21.0463 30.2133C22.633 29.9999 24.633 29.9999 27.0277 29.9999H37.9717Z" fill="#2A7DEC"/>
<path d="M37.972 30H27.028C24.6333 30 22.6333 30 21.0493 30.2133C19.3747 30.4373 17.8627 30.9333 16.6493 32.1493C15.4333 33.3627 14.9373 34.8747 14.7133 36.5493C14.5 38.1333 14.5 40.1333 14.5 42.528V56.6667H50.5V42.528C50.5 40.1333 50.5 38.1333 50.2867 36.5493C50.0627 34.8747 49.5667 33.3627 48.3507 32.1493C47.1373 30.9333 45.6253 30.4373 43.9507 30.2133C42.3667 30 40.3667 30 37.972 30Z" fill="#D4E5FB"/>
<path d="M24.5 39.3334C23.9696 39.3334 23.4609 39.5441 23.0858 39.9192C22.7107 40.2942 22.5 40.8029 22.5 41.3334C22.5 41.8638 22.7107 42.3725 23.0858 42.7476C23.4609 43.1227 23.9696 43.3334 24.5 43.3334H40.5C41.0304 43.3334 41.5391 43.1227 41.9142 42.7476C42.2893 42.3725 42.5 41.8638 42.5 41.3334C42.5 40.8029 42.2893 40.2942 41.9142 39.9192C41.5391 39.5441 41.0304 39.3334 40.5 39.3334H24.5ZM24.5 47.3334C23.9696 47.3334 23.4609 47.5441 23.0858 47.9192C22.7107 48.2942 22.5 48.8029 22.5 49.3334C22.5 49.8638 22.7107 50.3725 23.0858 50.7476C23.4609 51.1227 23.9696 51.3334 24.5 51.3334H40.5C41.0304 51.3334 41.5391 51.1227 41.9142 50.7476C42.2893 50.3725 42.5 49.8638 42.5 49.3334C42.5 48.8029 42.2893 48.2942 41.9142 47.9192C41.5391 47.5441 41.0304 47.3334 40.5 47.3334H24.5Z" fill="#2A7DEC"/>
</svg>
