<svg width="36" height="36" viewBox="0 0 36 36" fill="none" xmlns="http://www.w3.org/2000/svg">
<path opacity="0.16" d="M1 18C1 13.4913 2.79107 9.1673 5.97918 5.97918C9.1673 2.79107 13.4913 1 18 1C22.5087 1 26.8327 2.79107 30.0208 5.97918C33.2089 9.1673 35 13.4913 35 18C35 22.5087 33.2089 26.8327 30.0208 30.0208C26.8327 33.2089 22.5087 35 18 35C13.4913 35 9.1673 33.2089 5.97918 30.0208C2.79107 26.8327 1 22.5087 1 18Z" fill="#000"/>
<path d="M25.5 18.0269L23.0699 20.6785M23.0699 20.6785L20.6398 23.3302M23.0699 20.6785L20.6398 18.0269M23.0699 20.6785L25.5 23.3302" stroke="#000" stroke-width="2" stroke-linecap="round"/>
<path d="M9 18.375H11.6803L14.7732 24.75L19.2408 12H27" stroke="#000" stroke-width="2" stroke-linecap="round"/>
</svg>
