<svg width="36" height="36" viewBox="0 0 36 36" fill="none" xmlns="http://www.w3.org/2000/svg">
<rect opacity="0.16" width="36" height="36" rx="18" fill="black"/>
<path d="M24.875 11.2812H18.4688V9.875C18.4688 9.75068 18.4194 9.63145 18.3315 9.54354C18.2435 9.45564 18.1243 9.40625 18 9.40625C17.8757 9.40625 17.7565 9.45564 17.6685 9.54354C17.5806 9.63145 17.5312 9.75068 17.5312 9.875V11.2812H11.125C10.8349 11.2812 10.5567 11.3965 10.3516 11.6016C10.1465 11.8067 10.0312 12.0849 10.0312 12.375V21.75C10.0312 22.0401 10.1465 22.3183 10.3516 22.5234C10.5567 22.7285 10.8349 22.8438 11.125 22.8438H14.525L12.6336 25.207C12.5951 25.2551 12.5665 25.3104 12.5494 25.3695C12.5322 25.4287 12.5269 25.4907 12.5338 25.5519C12.5475 25.6756 12.6099 25.7887 12.707 25.8664C12.8042 25.9441 12.9283 25.98 13.0519 25.9662C13.1756 25.9525 13.2887 25.8901 13.3664 25.793L15.725 22.8438H20.275L22.6336 25.793C22.6721 25.8411 22.7196 25.8812 22.7736 25.9109C22.8276 25.9406 22.8868 25.9594 22.9481 25.9662C23.0093 25.9731 23.0713 25.9678 23.1305 25.9506C23.1896 25.9335 23.2449 25.9049 23.293 25.8664C23.3411 25.8279 23.3812 25.7804 23.4109 25.7264C23.4406 25.6724 23.4594 25.6132 23.4662 25.5519C23.4731 25.4907 23.4678 25.4287 23.4506 25.3695C23.4335 25.3104 23.4049 25.2551 23.3664 25.207L21.475 22.8438H24.875C25.1651 22.8438 25.4433 22.7285 25.6484 22.5234C25.8535 22.3183 25.9688 22.0401 25.9688 21.75V12.375C25.9688 12.0849 25.8535 11.8067 25.6484 11.6016C25.4433 11.3965 25.1651 11.2812 24.875 11.2812ZM25.0312 21.75C25.0312 21.7914 25.0148 21.8312 24.9855 21.8605C24.9562 21.8898 24.9164 21.9062 24.875 21.9062H11.125C11.0836 21.9062 11.0438 21.8898 11.0145 21.8605C10.9852 21.8312 10.9688 21.7914 10.9688 21.75V12.375C10.9688 12.3336 10.9852 12.2938 11.0145 12.2645C11.0438 12.2352 11.0836 12.2188 11.125 12.2188H24.875C24.9164 12.2188 24.9562 12.2352 24.9855 12.2645C25.0148 12.2938 25.0312 12.3336 25.0312 12.375V21.75ZM15.9688 17.375V19.25C15.9688 19.3743 15.9194 19.4935 15.8315 19.5815C15.7435 19.6694 15.6243 19.7188 15.5 19.7188C15.3757 19.7188 15.2565 19.6694 15.1685 19.5815C15.0806 19.4935 15.0312 19.3743 15.0312 19.25V17.375C15.0312 17.2507 15.0806 17.1315 15.1685 17.0435C15.2565 16.9556 15.3757 16.9062 15.5 16.9062C15.6243 16.9062 15.7435 16.9556 15.8315 17.0435C15.9194 17.1315 15.9688 17.2507 15.9688 17.375ZM18.4688 16.125V19.25C18.4688 19.3743 18.4194 19.4935 18.3315 19.5815C18.2435 19.6694 18.1243 19.7188 18 19.7188C17.8757 19.7188 17.7565 19.6694 17.6685 19.5815C17.5806 19.4935 17.5312 19.3743 17.5312 19.25V16.125C17.5312 16.0007 17.5806 15.8815 17.6685 15.7935C17.7565 15.7056 17.8757 15.6562 18 15.6562C18.1243 15.6562 18.2435 15.7056 18.3315 15.7935C18.4194 15.8815 18.4688 16.0007 18.4688 16.125ZM20.9688 14.875V19.25C20.9688 19.3743 20.9194 19.4935 20.8315 19.5815C20.7435 19.6694 20.6243 19.7188 20.5 19.7188C20.3757 19.7188 20.2565 19.6694 20.1685 19.5815C20.0806 19.4935 20.0312 19.3743 20.0312 19.25V14.875C20.0312 14.7507 20.0806 14.6315 20.1685 14.5435C20.2565 14.4556 20.3757 14.4062 20.5 14.4062C20.6243 14.4062 20.7435 14.4556 20.8315 14.5435C20.9194 14.6315 20.9688 14.7507 20.9688 14.875Z" fill="black"/>
</svg>
