<svg xmlns="http://www.w3.org/2000/svg" width="200" height="160" fill="none"><rect width="200" height="160" fill="#fff" rx="4"/><rect width="199" height="159" x=".5" y=".5" stroke="#000" stroke-opacity=".1" rx="3.5"/><g clip-path="url(#a)"><path fill="url(#b)" d="m64.9 50.4-23 52.7-7.9 16.1v18h154v-23.7l-.4-24.7-11 37.5-6.3-23.4-2.8 6.9-11.8 25.8c-7.8-28-14.4-38.6-23-66.2l-8.7 41.3h-11.4l-2.1-67-4.5-26.4L85 83l-5-2L65 50.3Z"/><path stroke="url(#c)" stroke-width=".9" d="m34 119.3 8-16.2 23-52.6L80.3 81l5 2 21.1-65.8 4.8 33.2 1.9 60.2h12l7.5-42.1 23.8 66.7 11.9-26 2.7-6.9 6.4 24L188 88.9"/></g><path fill="#000" fill-opacity=".5" d="M16.3 17v.7h-4v-.4l2.5-4h.5l-.6 1.2L13 17h3.3Zm-.8-3.7V19h-.7v-5.7h.7Zm5.2 2.4v.9c0 .4 0 .8-.2 1.1 0 .4-.2.6-.3.8-.2.2-.4.4-.6.4a2 2 0 0 1-.7.2l-.6-.1c-.2 0-.4-.1-.5-.3-.2 0-.3-.2-.4-.4l-.3-.8v-3l.5-.7c.1-.2.3-.4.5-.4l.8-.2.6.1a1.4 1.4 0 0 1 .8.7l.3.7v1Zm-.8 1v-1.8l-.1-.5a1 1 0 0 0-.3-.3c0-.1-.1-.2-.3-.2a1 1 0 0 0-.3 0 1 1 0 0 0-.5 0l-.3.3-.2.6-.1.8v1.8l.2.5.2.3.3.2h.8c.2 0 .3-.2.4-.3l.2-.6v-.8Zm1.8-2.5c0-.1 0-.3.2-.5l.3-.3.5-.2c.2 0 .4 0 .5.2a1 1 0 0 1 0 1.7 1 1 0 0 1-.5.2 1 1 0 0 1-.5-.2 1 1 0 0 1-.3-.3 1 1 0 0 1-.2-.6Zm.5 0c0 .2 0 .3.2.4l.3.2.4-.2.1-.4-.1-.3-.4-.2c-.1 0-.2 0-.3.2l-.2.3Zm6.2 3h.8c0 .4-.2.7-.3 1-.2.2-.4.5-.7.6-.3.2-.7.3-1.2.3-.3 0-.6 0-.9-.2a2 2 0 0 1-.7-.5l-.4-.9-.2-1v-.6c0-.4 0-.8.2-1.1 0-.3.2-.6.4-.8.2-.3.5-.5.8-.6l.9-.2c.4 0 .8.1 1 .3.4.1.6.4.8.6l.3 1h-.8a2 2 0 0 0-.2-.6 1 1 0 0 0-.4-.5l-.7-.1-.7.1c-.2 0-.3.2-.4.4a2 2 0 0 0-.3.6l-.1.9v1.3l.3.7.5.4.6.2c.4 0 .6 0 .8-.2.2 0 .3-.2.4-.4l.2-.7ZM13.5 31.7h.5l.7-.1.3-.4.2-.5-.1-.5-.4-.4-.5-.1-.6.1a.9.9 0 0 0-.5.9h-.7c0-.3 0-.6.2-.8l.7-.6a2 2 0 0 1 .9-.2c.3 0 .6 0 .9.2l.6.5.2 1-.1.4-.3.4-.6.4-.8.1h-.6v-.4Zm0 .6v-.5h.6c.4 0 .7 0 1 .2.2 0 .4.2.5.3l.3.5V34l-.4.5-.6.3-.7.2c-.3 0-.5 0-.7-.2l-.6-.3a1.4 1.4 0 0 1-.5-1.1h.7l.1.5c.1.1.2.3.4.3l.6.2c.2 0 .4 0 .5-.2.2 0 .3-.1.4-.3l.2-.6-.2-.6a.9.9 0 0 0-.4-.3l-.7-.1h-.5Zm4.5-.1-.6-.2.3-2.8h3v.7h-2.4l-.1 1.5.3-.2H19.8l.5.5c.2.1.3.3.4.6l.1.8-.1.7-.3.6-.6.4a2.2 2.2 0 0 1-1.4 0l-.6-.2-.4-.5a2 2 0 0 1-.2-.7h.7l.2.5c0 .2.2.3.4.4h1l.3-.3.2-.4a1.8 1.8 0 0 0 0-1l-.2-.4a1 1 0 0 0-.4-.3l-.5-.1-.5.1-.4.3Zm3.7-2c0-.3 0-.4.2-.6l.3-.4h1a1 1 0 0 1 0 1.8 1 1 0 0 1-.5.1 1 1 0 0 1-.5-.1 1 1 0 0 1-.3-.4 1 1 0 0 1-.2-.5Zm.5 0s0 .2.2.3l.3.1.4-.1.1-.4-.1-.3-.4-.2c-.1 0-.2 0-.3.2l-.2.3Zm6.2 2.9h.8l-.3 1-.7.6c-.3.2-.7.3-1.2.3l-.9-.2a2 2 0 0 1-.7-.6l-.4-.8-.2-1v-.6c0-.4 0-.8.2-1.1 0-.4.2-.6.4-.9l.8-.5.9-.2c.4 0 .8 0 1 .3.4.1.6.3.8.6.1.3.3.6.3 1h-.8a2 2 0 0 0-.2-.7 1 1 0 0 0-.4-.4l-.7-.2c-.3 0-.5 0-.7.2-.2 0-.3.2-.4.4a2 2 0 0 0-.3.6l-.1.8v1.4l.3.6.5.5.6.1.8-.1.4-.5.2-.6ZM13.5 47.6h.5c.3 0 .5 0 .7-.2l.3-.3.2-.5-.1-.6-.4-.3-.5-.1-.6.1a.9.9 0 0 0-.5.9h-.7c0-.3 0-.6.2-.8.2-.3.4-.5.7-.6a2 2 0 0 1 .9-.2c.3 0 .6 0 .9.2.2 0 .4.3.6.5l.2.9-.1.5-.3.4-.6.4h-1.4v-.3Zm0 .5v-.4h.6l1 .1.5.4.3.5v1.2l-.4.5-.6.3-.7.1h-.7l-.6-.4a1.4 1.4 0 0 1-.5-1.2h.7l.1.6.4.3.6.1h.5l.4-.4.2-.6-.2-.6a.9.9 0 0 0-.4-.3L14 48h-.5Zm7.2-.6v.8c0 .5 0 .9-.2 1.2 0 .3-.2.6-.3.8l-.6.4a2 2 0 0 1-.7.1h-.6l-.5-.3-.4-.5-.3-.7v-3l.5-.8.5-.4.8-.1h.6a1.4 1.4 0 0 1 .8.8l.3.7v1Zm-.8 1V46.6l-.1-.5a1 1 0 0 0-.3-.4l-.3-.2a1 1 0 0 0-.3 0 1 1 0 0 0-.5 0l-.3.4-.2.5-.1.8v1.8l.2.5.2.4.3.2h.8l.4-.4.2-.5v-.9Zm1.8-2.5c0-.2 0-.4.2-.5 0-.2.2-.3.3-.4l.5-.1.5.1a1 1 0 0 1 0 1.8 1 1 0 0 1-.5.1 1 1 0 0 1-.5-.1 1 1 0 0 1-.3-.4 1 1 0 0 1-.2-.5Zm.5 0c0 .1 0 .3.2.4l.3.1.4-.1.1-.4-.1-.4-.4-.1-.3.1-.2.4Zm6.2 3h.8l-.3 1-.7.6-1.2.2c-.3 0-.6 0-.9-.2a2 2 0 0 1-.7-.5l-.4-.8-.2-1.1v-.6c0-.4 0-.7.2-1 0-.4.2-.7.4-.9l.8-.5c.2-.2.5-.2.9-.2s.8 0 1 .2c.4.2.6.4.8.7.1.3.3.6.3 1h-.8a2 2 0 0 0-.2-.7 1 1 0 0 0-.4-.4l-.7-.2-.7.1-.4.5a2 2 0 0 0-.3.6l-.1.8V49l.3.6.5.5.6.1.8-.1.4-.5.2-.7ZM16.2 66v.6h-3.7v-.5l1.8-2 .6-.7.2-.5.1-.4-.1-.5c0-.2-.2-.3-.3-.4a1 1 0 0 0-.6-.1l-.6.1a1 1 0 0 0-.4.4l-.1.6h-.7c0-.3 0-.6.2-.9l.6-.6a2 2 0 0 1 1-.2c.4 0 .7 0 1 .2.2 0 .4.3.5.5.2.2.2.5.2.8v.5l-.3.5a7.8 7.8 0 0 1-.8 1L13.4 66h2.9Zm1.8-2-.6-.2.3-2.9h3v.7h-2.4l-.1 1.6.3-.2H19.8l.5.4.4.6.1.8-.1.8-.3.6-.6.4a2.2 2.2 0 0 1-1.4 0c-.3 0-.4-.2-.6-.3l-.4-.5a2 2 0 0 1-.2-.7h.7l.2.6.4.3.5.1h.5l.3-.3.2-.4a1.8 1.8 0 0 0 0-1l-.2-.5a1 1 0 0 0-.4-.2l-.5-.1h-.5l-.4.3Zm3.7-2.1c0-.2 0-.4.2-.5 0-.2.2-.3.3-.4l.5-.1.5.1a1 1 0 0 1 0 1.7 1 1 0 0 1-.5.2 1 1 0 0 1-.5-.2 1 1 0 0 1-.3-.3 1 1 0 0 1-.2-.5Zm.5 0c0 .1 0 .2.2.3l.3.2c.2 0 .3 0 .4-.2l.1-.3-.1-.4-.4-.1-.3.1-.2.4Zm6.2 3h.8l-.3.9-.7.7-1.2.2c-.3 0-.6 0-.9-.2a2 2 0 0 1-.7-.5l-.4-.8-.2-1.1v-.6c0-.4 0-.8.2-1 0-.4.2-.7.4-1l.8-.5.9-.1c.4 0 .8 0 1 .2.4.2.6.4.8.7.1.3.3.6.3 1h-.8a2 2 0 0 0-.2-.7 1 1 0 0 0-.4-.5l-.7-.1-.7.1-.4.4a2 2 0 0 0-.3.7l-.1.8v1.4l.3.6.5.4.6.2c.4 0 .6 0 .8-.2.2 0 .3-.2.4-.4l.2-.7ZM16.2 82v.5h-3.7V82l1.8-2 .6-.7.2-.5.1-.5-.1-.5-.3-.3a1 1 0 0 0-.6-.2c-.2 0-.4 0-.6.2a1 1 0 0 0-.4.4l-.1.6h-.7c0-.3 0-.6.2-.9.1-.3.3-.5.6-.6a2 2 0 0 1 1-.3l1 .2c.2.2.4.3.5.6.2.2.2.4.2.8v.5l-.3.5a7.8 7.8 0 0 1-.8 1l-1.5 1.6h2.9Zm4.5-2.8v.9c0 .4 0 .8-.2 1.2 0 .3-.2.5-.3.7-.2.2-.4.4-.6.4a2 2 0 0 1-.7.2l-.6-.1c-.2 0-.4-.1-.5-.3-.2 0-.3-.2-.4-.4L17 81v-3l.5-.7c.1-.2.3-.4.5-.4l.8-.2.6.1a1.4 1.4 0 0 1 .8.7l.3.7v1Zm-.8 1v-1.8l-.1-.5a1 1 0 0 0-.3-.3c0-.1-.1-.2-.3-.2a1 1 0 0 0-.3 0 1 1 0 0 0-.5 0l-.3.3-.2.6-.1.8v1.8l.2.5.2.3.3.2h.8c.2 0 .3-.2.4-.3l.2-.6v-.8Zm1.8-2.5c0-.1 0-.3.2-.5l.3-.3.5-.2c.2 0 .4 0 .5.2a1 1 0 0 1 0 1.7 1 1 0 0 1-.5.2 1 1 0 0 1-.5-.2 1 1 0 0 1-.3-.3 1 1 0 0 1-.2-.6Zm.5 0c0 .2 0 .3.2.4l.3.2.4-.2.1-.4-.1-.3-.4-.2c-.1 0-.2 0-.3.2l-.2.3Zm6.2 3h.8c0 .4-.2.7-.3 1-.2.2-.4.5-.7.6-.3.2-.7.3-1.2.3-.3 0-.6 0-.9-.2a2 2 0 0 1-.7-.5L25 81l-.2-1v-.6c0-.4 0-.8.2-1.1 0-.3.2-.6.4-.8.2-.3.5-.5.8-.6l.9-.2c.4 0 .8.1 1 .3.4.1.6.4.8.6l.3 1h-.8a2 2 0 0 0-.2-.6 1 1 0 0 0-.4-.5l-.7-.1-.7.1c-.2 0-.3.2-.4.4a2 2 0 0 0-.3.6l-.1.9v1.3l.3.7.5.4.6.2c.4 0 .6 0 .8-.2.2 0 .3-.2.4-.4l.2-.7ZM14.8 92.7v5.7h-.7v-4.8l-1.4.5v-.7l2-.7h.1Zm3.2 3-.6-.2.3-2.8h3v.7h-2.4l-.1 1.5.3-.2H19.8l.5.5c.2.1.3.3.4.6l.1.8-.1.7-.3.6-.6.4a2.2 2.2 0 0 1-1.4 0l-.6-.2-.4-.5a2 2 0 0 1-.2-.7h.7l.2.5c0 .2.2.3.4.3l.5.2.5-.1.3-.3.2-.4a1.8 1.8 0 0 0 0-1l-.2-.4a1 1 0 0 0-.4-.3l-.5-.1-.5.1-.4.3Zm3.7-2c0-.3 0-.4.2-.6l.3-.4h1a1 1 0 0 1 0 1.8 1 1 0 0 1-.5.1 1 1 0 0 1-.5-.1 1 1 0 0 1-.3-.4 1 1 0 0 1-.2-.5Zm.5 0s0 .2.2.3l.3.1.4-.1.1-.4-.1-.3-.4-.2c-.1 0-.2 0-.3.2l-.2.3Zm6.2 2.9h.8l-.3 1-.7.6c-.3.2-.7.3-1.2.3l-.9-.2a2 2 0 0 1-.7-.6L25 97l-.2-1v-.7c0-.3 0-.7.2-1 0-.4.2-.6.4-.9l.8-.5.9-.2c.4 0 .8 0 1 .3.4.1.6.3.8.6.1.3.3.6.3 1h-.8a2 2 0 0 0-.2-.7 1 1 0 0 0-.4-.4l-.7-.2c-.3 0-.5 0-.7.2-.2 0-.3.2-.4.4a2 2 0 0 0-.3.6l-.1.8v1.4l.3.6.5.5.6.1.8-.1.4-.5.2-.6ZM14.8 108.5v5.8h-.7v-4.9l-1.4.6v-.7l2-.8h.1Zm5.9 2.5v.8c0 .5 0 .9-.2 1.2 0 .3-.2.6-.3.8l-.6.4a2 2 0 0 1-.7.1h-.6l-.5-.3-.4-.5-.3-.7v-3l.5-.8.5-.4.8-.1h.6a1.4 1.4 0 0 1 .8.8l.3.7v1Zm-.8 1V110.1l-.1-.5a1 1 0 0 0-.3-.4l-.3-.2a1 1 0 0 0-.3 0 1 1 0 0 0-.5 0l-.3.4-.2.5-.1.8v1.8l.2.5.2.4.3.2h.8l.4-.4.2-.5v-.9Zm1.8-2.5c0-.2 0-.4.2-.5 0-.2.2-.3.3-.4l.5-.1.5.1a1 1 0 0 1 0 1.8 1 1 0 0 1-.5.1 1 1 0 0 1-.5-.1 1 1 0 0 1-.3-.4 1 1 0 0 1-.2-.5Zm.5 0c0 .1 0 .3.2.4l.3.1.4-.1.1-.4a.5.5 0 0 0-.5-.5l-.3.1-.2.4Zm6.2 3h.8l-.3 1-.7.6-1.2.2c-.3 0-.6 0-.9-.2a2 2 0 0 1-.7-.5l-.4-.8-.2-1.1v-.6c0-.4 0-.7.2-1 0-.4.2-.7.4-.9l.8-.5c.2-.2.5-.2.9-.2s.8 0 1 .2c.4.2.6.4.8.7.1.3.3.6.3 1h-.8a2 2 0 0 0-.2-.7 1 1 0 0 0-.4-.4l-.7-.2-.7.1-.4.5a2 2 0 0 0-.3.6l-.1.8v1.4l.3.6.5.5.6.1.8-.1.4-.5.2-.7ZM18.4 127.4l-.6-.1.3-2.9h3v.7h-2.4l-.2 1.6.4-.2H20.2l.5.4.4.6v1.6l-.4.6-.5.4a2 2 0 0 1-.8.1h-.7l-.5-.4-.4-.5a2 2 0 0 1-.2-.7h.7c0 .2 0 .4.2.6l.3.3.6.1h.4l.4-.3.2-.4a1.8 1.8 0 0 0 0-1l-.2-.5a1 1 0 0 0-.4-.2l-.5-.1h-.5l-.4.3Zm3.7-2c0-.2 0-.4.2-.5 0-.2.2-.3.3-.4l.5-.1.5.1a1 1 0 0 1 0 1.7 1 1 0 0 1-.5.2 1 1 0 0 1-.5-.2 1 1 0 0 1-.3-.3 1 1 0 0 1-.2-.5Zm.5 0c0 .1 0 .2.2.3l.3.2c.2 0 .3 0 .4-.2l.1-.3a.5.5 0 0 0-.5-.5l-.3.1-.2.4Zm6.2 3h.8l-.3.9-.7.7-1.2.2c-.3 0-.6 0-.9-.2a2 2 0 0 1-.7-.5l-.4-.8c-.2-.4-.2-.7-.2-1.1v-.6c0-.4 0-.8.2-1 0-.4.2-.7.4-1l.7-.5 1-.1c.4 0 .8 0 1 .2.4.2.6.4.8.7l.3 1h-.8a2 2 0 0 0-.2-.7 1 1 0 0 0-.4-.5l-.7-.1-.7.1-.5.4a2 2 0 0 0-.3.7v2.2l.3.6.5.4.6.2c.3 0 .6 0 .8-.2.2 0 .3-.2.4-.4l.2-.7ZM28.6 142v.8l-.1 1c0 .4-.2.6-.3.8l-.5.4H27a2 2 0 0 1-.5 0l-.5-.2-.3-.5-.2-.6-.1-.9v-.7l.1-1c0-.4.2-.6.3-.8.2-.1.3-.3.5-.3l.7-.1h.5a1.2 1.2 0 0 1 .8.7l.2.6.1.9Zm-.6 1v-1.6l-.2-.5-.2-.3-.3-.2a1 1 0 0 0-.3 0 1 1 0 0 0-.4 0l-.3.3-.2.5v2.3l.1.5.2.3.3.2h.7l.3-.3.2-.5v-.8ZM38.8 141.3v5.7h-.7v-4.8l-1.5.5v-.6l2.1-.8h.1Zm4.5 0v5.7h-.7v-4.8l-1.5.5v-.6l2.1-.8h.1Zm8.7 0v5.7h-.8l-2.8-4.4v4.4h-.8v-5.7h.8l2.8 4.4v-4.4h.8Zm1 3.6c0-.4 0-.6.2-.9 0-.3.2-.5.3-.7l.6-.4c.3-.2.5-.2.8-.2.3 0 .6 0 .8.2.3 0 .5.2.6.4l.4.7.2.8v.1c0 .3 0 .6-.2.9l-.4.7a1.8 1.8 0 0 1-1.4.6 1.8 1.8 0 0 1-1.8-1.3v-.9Zm.7 0 .1.6.2.5.4.4h1.1l.3-.4.3-.5v-1.2c0-.2-.2-.4-.3-.5a1 1 0 0 0-.9-.5 1 1 0 0 0-.5.1l-.4.4-.2.5v.5Zm5.3 1.4 1.2-3.5h.7l-1.5 4.2h-.5l.1-.7Zm-1-3.5 1.2 3.6.1.6h-.5l-1.5-4.2h.7ZM70 141.3v5.7h-.7v-4.8l-1.4.5v-.6l2-.8h.2Zm6 5.1v.6h-3.8v-.5l1.9-2 .5-.7.3-.5v-1l-.4-.3a1 1 0 0 0-.6-.2c-.2 0-.4 0-.6.2a1 1 0 0 0-.4.4l-.1.6h-.7c0-.3 0-.6.2-.9.1-.3.3-.5.6-.6a2 2 0 0 1 1-.3l1 .2c.2.2.4.3.5.6.2.2.3.4.3.8l-.1.5-.3.5a7.8 7.8 0 0 1-.8 1l-1.4 1.6h2.8Zm7.2-5v5.6h-.7l-2.9-4.4v4.4H79v-5.7h.7l2.9 4.4v-4.4h.7Zm1 3.5.2-.9c0-.3.2-.5.4-.7l.6-.4c.2-.2.5-.2.8-.2.3 0 .6 0 .8.2.2 0 .4.2.6.4l.4.7.1.8v.1l-.1.9-.4.7a1.8 1.8 0 0 1-1.4.6 1.8 1.8 0 0 1-1.8-1.3l-.1-.9Zm.8 0v.6l.3.5c0 .2.2.3.4.4h1l.4-.4.2-.5v-1.2l-.2-.5a1 1 0 0 0-.9-.5 1 1 0 0 0-.5.1l-.4.4-.2.5-.1.5Zm5.2 1.4 1.2-3.5h.7l-1.5 4.2h-.5l.1-.7Zm-1-3.5 1.3 3.6v.6h-.4l-1.6-4.2h.8ZM101.3 141.3v5.7h-.7v-4.8l-1.5.5v-.6l2.1-.8h.1Zm3.2 2.5h.5l.6-.1.4-.4.1-.5v-.5l-.4-.4h-1.1a.9.9 0 0 0-.5.9h-.7c0-.3 0-.6.2-.8l.6-.6a2 2 0 0 1 1-.2l.8.2c.3.1.5.3.6.6.2.2.3.5.3.8l-.1.5-.4.5-.5.3-.8.1h-.6v-.4Zm0 .6v-.4h1.6l.5.4.3.5v1.2l-.5.5-.5.4h-1.5l-.5-.3a1.4 1.4 0 0 1-.6-1.2h.8v.5l.5.4h1.1l.4-.4.1-.6-.1-.6a.9.9 0 0 0-.5-.3l-.6-.1h-.5Zm10-3v5.6h-.8l-2.8-4.4v4.4h-.8v-5.7h.8l2.8 4.4v-4.4h.8Zm1 3.5c0-.4 0-.6.2-.9 0-.3.2-.5.3-.7l.6-.4c.3-.2.5-.2.8-.2.3 0 .6 0 .8.2.3 0 .5.2.6.4l.4.7.2.8v.1c0 .3 0 .6-.2.9l-.4.7a1.8 1.8 0 0 1-1.4.6 1.8 1.8 0 0 1-1.8-1.3v-.9Zm.7 0 .1.6.2.5.4.4h1.1l.3-.4.3-.5v-1.2c0-.2-.2-.4-.3-.5a1 1 0 0 0-.9-.5 1 1 0 0 0-.5.1l-.4.4-.2.5v.5Zm5.3 1.4 1.2-3.5h.7l-1.5 4.2h-.5l.1-.7Zm-1-3.5 1.2 3.6.1.6h-.5l-1.5-4.2h.7ZM132.6 141.3v5.7h-.8v-4.8l-1.4.5v-.6l2-.8h.2Zm6 3.8v.6h-4.2v-.4l2.6-4h.6l-.7 1.2-1.7 2.6h3.3Zm-.9-3.8v5.7h-.7v-5.7h.7Zm8 0v5.7h-.7l-2.9-4.4v4.4h-.7v-5.7h.7l2.9 4.4v-4.4h.7Zm1 3.6.2-.9c0-.3.2-.5.4-.7l.6-.4c.2-.2.5-.2.8-.2.3 0 .6 0 .8.2.2 0 .4.2.6.4l.4.7.1.8v.1l-.1.9-.4.7a1.8 1.8 0 0 1-1.4.6 1.8 1.8 0 0 1-1.8-1.3l-.1-.9Zm.8 0v.6l.3.5c0 .2.2.3.4.4h1l.4-.4.2-.5v-1.2l-.2-.5a1 1 0 0 0-.9-.5 1 1 0 0 0-.5.1l-.4.4-.2.5-.1.5Zm5.2 1.4 1.2-3.5h.7l-1.5 4.2h-.5l.1-.7Zm-1-3.5 1.3 3.6v.6h-.4l-1.6-4.2h.8ZM163.8 141.3v5.7h-.7v-4.8l-1.5.5v-.6l2.1-.8h.1Zm3 3-.5-.2.3-2.8h2.9v.7h-2.3l-.2 1.5.4-.1.5-.1.8.1.5.4.3.6a2.5 2.5 0 0 1 0 1.5c0 .3-.2.5-.3.6-.1.2-.3.3-.6.4a2 2 0 0 1-.8.2l-.6-.1-.6-.3-.3-.5a2 2 0 0 1-.2-.7h.7l.1.5.4.4h1l.3-.3.2-.4a1.8 1.8 0 0 0 0-1c0-.2 0-.3-.2-.4a1 1 0 0 0-.3-.3h-1.1l-.3.3Zm10.2-3v5.7h-.8l-2.8-4.4v4.4h-.8v-5.7h.8l2.8 4.4v-4.4h.8Zm1 3.6c0-.4 0-.6.2-.9 0-.3.2-.5.3-.7l.6-.4c.3-.2.5-.2.8-.2.3 0 .6 0 .8.2.3 0 .5.2.6.4l.4.7.2.8v.1c0 .3 0 .6-.2.9l-.4.7a1.8 1.8 0 0 1-1.4.6 1.8 1.8 0 0 1-1.8-1.3v-.9Zm.7 0 .1.6.2.5.4.4h1.1l.3-.4.3-.5v-1.2c0-.2-.2-.4-.3-.5a1 1 0 0 0-.9-.5 1 1 0 0 0-.5.1l-.4.4-.2.5v.5Zm5.3 1.4 1.2-3.5h.7l-1.5 4.2h-.5l.1-.7Zm-1-3.5 1.2 3.6.1.6h-.5l-1.5-4.2h.7Z"/><path stroke="#000" stroke-opacity=".5" stroke-width=".4" d="M34 16h154M34 33.3h154M34 50.6h154M34 67.9h154M34 85.1h154M34 102.4h154M34 119.7h154M34 137h154"/><defs><linearGradient id="b" x1="107.3" x2="107.3" y1="151.1" y2="-14.2" gradientUnits="userSpaceOnUse"><stop offset=".4" stop-color="#4764BB"/><stop offset=".4" stop-color="#53BD2D"/><stop offset=".5" stop-color="#53BD2D"/><stop offset=".5" stop-color="#D33E57"/></linearGradient><linearGradient id="c" x1="106" x2="106.2" y1="136.8" y2="-14.2" gradientUnits="userSpaceOnUse"><stop offset=".4" stop-color="#224AC2"/><stop offset=".4" stop-color="#3FA71A"/><stop offset=".5" stop-color="#3FA71A"/><stop offset=".5" stop-color="#D81838"/></linearGradient><clipPath id="a"><path fill="#fff" d="M34 8h154v137H34z"/></clipPath></defs></svg>