<svg xmlns="http://www.w3.org/2000/svg" width="200" height="160" fill="none"><rect width="200" height="160" fill="#fff" rx="4"/><rect width="199" height="159" x=".5" y=".5" stroke="#000" stroke-opacity=".1" rx="3.5"/><g filter="url(#a)"><rect width="188" height="148" x="6" y="6" fill="#fff" fill-opacity=".8" rx="4"/></g><path fill="#000" fill-opacity=".9" d="M21.1 15v10h-1.7V15h1.7Zm3.1 0v1.4h-7.9V15h8Zm4 10.1c-.5 0-1 0-1.4-.2a3.3 3.3 0 0 1-1.9-2 4 4 0 0 1-.2-1.3v-.3c0-.6 0-1.1.2-1.6s.4-.9.7-1.2a3 3 0 0 1 1.1-.8l1.3-.2c.6 0 1 0 1.4.2l1 .8c.3.3.5.7.6 1.1l.2 1.5v.7h-5.7v-1.2h4v-.1l-.1-.9-.5-.6-.9-.2c-.2 0-.5 0-.7.2-.2 0-.4.2-.5.5l-.4.7v2.3l.5.7.6.5.8.1a2.3 2.3 0 0 0 1.9-.9l.9.9-.7.6c-.2.2-.5.4-.9.5-.4.2-.8.2-1.3.2Zm6.2-6V25h-1.7v-7.4h1.6v1.5Zm-.3 2h-.6l.2-1.5.6-1.1c.2-.3.6-.6 1-.8a3 3 0 0 1 1.2-.2l1 .1.6.5c.3.2.4.5.5.8l.2 1.2V25h-1.6v-4.8l-.2-.8a1 1 0 0 0-.5-.5l-.7-.1c-.3 0-.5 0-.8.2-.2 0-.4.3-.5.5l-.3.7v.8Zm4.6-.5-.8.2c0-.5 0-1 .2-1.3.1-.4.3-.8.6-1a2.6 2.6 0 0 1 2.1-1l1 .1.8.5c.2.2.4.5.5.9l.1 1.2V25h-1.6v-4.8c0-.4 0-.7-.2-.9a.9.9 0 0 0-.4-.4l-.7-.1-.7.1-.5.4-.3.6-.1.7Zm8.1-1.6v8.8h-1.6V17.6h1.5l.1 1.4Zm4.8 2.2v.2l-.1 1.5-.6 1.2c-.2.3-.5.6-.9.8l-1.2.2c-.5 0-.9 0-1.2-.2-.4-.2-.7-.4-.9-.7a4 4 0 0 1-.6-1.2l-.3-1.4v-.5c0-.6.2-1 .3-1.5l.6-1.1a2.5 2.5 0 0 1 2-1c.5 0 1 0 1.3.2l1 .8.5 1.2.1 1.5Zm-1.6.2v-.2l-.1-1-.3-.7a1.5 1.5 0 0 0-1.3-.7l-.7.1-.6.4a2 2 0 0 0-.3.7l-.2.7V22l.3 1 .6.6 1 .2c.2 0 .5 0 .7-.2.2 0 .4-.3.5-.5l.3-.8.1-1Zm6.6 3.7c-.6 0-1 0-1.5-.2a3.3 3.3 0 0 1-1.8-2 4 4 0 0 1-.3-1.3v-.3c0-.6 0-1.1.3-1.6.1-.5.4-.9.7-1.2a3 3 0 0 1 1-.8l1.4-.2c.5 0 1 0 1.3.2a3.1 3.1 0 0 1 1.6 1.9c.2.5.2 1 .2 1.5v.7h-5.7v-1.2h4v-1l-.6-.6-.8-.2c-.3 0-.6 0-.8.2-.2 0-.4.2-.5.5-.1.2-.3.4-.3.7l-.1 1v1.3l.5.7.6.5.9.1a2.3 2.3 0 0 0 1.8-.9l.9.9-.6.6-1 .5c-.3.2-.8.2-1.2.2Zm6.1-6V25h-1.6v-7.4h1.5l.1 1.4Zm2.3-1.5V19a3.2 3.2 0 0 0-1.5 0 1.4 1.4 0 0 0-.8 1l-.2.6h-.3l.1-1.2c0-.4.2-.8.4-1 .2-.4.4-.6.7-.8a1.9 1.9 0 0 1 1.3-.2h.3Zm5.2 6V20c0-.3 0-.5-.2-.7a1 1 0 0 0-.4-.4l-.7-.2-.7.1-.5.4-.1.5h-1.7c0-.3 0-.5.2-.8l.6-.7a3 3 0 0 1 1-.5 4 4 0 0 1 1.3-.2c.5 0 1 0 1.4.2.5.2.8.5 1 .9.3.4.4.8.4 1.4v3.3l.1.9.2.7v.1h-1.7a3 3 0 0 1-.2-.7v-.8Zm.2-3.1v1h-1.2l-.8.1c-.2 0-.4.1-.5.3a1 1 0 0 0-.5.9l.1.5.4.4.7.1a1.8 1.8 0 0 0 1.5-.7l.2-.6.5.8-.3.6a3 3 0 0 1-.5.6 2.6 2.6 0 0 1-1.8.6c-.4 0-.9 0-1.2-.3-.4-.1-.7-.4-1-.7a2.4 2.4 0 0 1-.1-2.2l.7-.8 1-.4 1.5-.2h1.3Zm6.8-2.9v1.2H73v-1.2h4.2Zm-3-1.8H76v7.7l.4.2h.4a2.5 2.5 0 0 0 .5 0V25a4.2 4.2 0 0 1-1 .1c-.4 0-.8 0-1-.2-.3-.1-.6-.3-.7-.6-.2-.3-.3-.7-.3-1.2v-7.3Zm9 7.5v-5.7h1.6V25h-1.5l-.1-1.7Zm.2-1.6h.6l-.2 1.4-.5 1c-.2.4-.5.6-.9.8a3 3 0 0 1-1.3.2 3 3 0 0 1-1-.1 2 2 0 0 1-.7-.5c-.3-.2-.4-.5-.5-.9a4 4 0 0 1-.2-1.2v-4.8h1.6v4.8l.1.7.3.4.4.2.4.1c.5 0 .9 0 1.1-.3.3-.2.5-.4.6-.7l.2-1Zm5-2.7v6h-1.6v-7.4h1.5l.1 1.4Zm2.3-1.4V19a3.2 3.2 0 0 0-1.5 0 1.4 1.4 0 0 0-.8 1l-.2.6H88l.1-1.2c.1-.4.2-.8.4-1 .2-.4.4-.6.7-.8a1.9 1.9 0 0 1 1.3-.2h.3ZM95 25c-.6 0-1 0-1.5-.2a3.3 3.3 0 0 1-1.8-2 4 4 0 0 1-.3-1.3v-.3c0-.6.1-1.1.3-1.6.1-.5.4-.9.7-1.2a3 3 0 0 1 1-.8l1.4-.2c.5 0 1 0 1.4.2l1 .8.5 1.1c.2.5.2 1 .2 1.5v.7h-5.7v-1.2h4.1v-.1c0-.3 0-.6-.2-.9 0-.2-.2-.4-.4-.6l-1-.2c-.2 0-.4 0-.7.2-.2 0-.3.2-.5.5l-.3.7-.1 1v.4l.1.9.4.7.6.5.9.1A2.3 2.3 0 0 0 97 23l1 .9-.7.6-1 .5c-.3.2-.7.2-1.2.2Z"/><g clip-path="url(#b)"><rect width="26.2" height="12.7" x="86.9" y="130" fill="#F3F3F3" rx="3.2"/><path fill="#000" fill-opacity=".5" d="M97.6 136v1.2c0 .5 0 1-.2 1.3 0 .4-.2.7-.4 1l-.7.5-1 .1h-.7a1.8 1.8 0 0 1-1-1l-.4-.8V136l.1-1.4.4-.9.7-.5 1-.2c.2 0 .5 0 .7.2a1.8 1.8 0 0 1 1 .8l.4.8v1.2Zm-1.1 1.3V135.2l-.2-.5a1 1 0 0 0-.2-.4l-.4-.2a1 1 0 0 0-.3 0 1 1 0 0 0-.5 0c-.1.1-.3.2-.3.4l-.3.5V138.1c0 .2 0 .3.2.5 0 .1 0 .3.2.4l.3.2h.8l.4-.4.2-.6v-.9Zm5.4-4v6.7h-1.2v-5.4l-1.6.5v-1l2.6-.9h.2Zm7 0v.6l-2.7 6.1H105l2.7-5.9h-3.5v-.9h4.7Z"/></g><path fill="#234CC7" d="M143 131.4a55.6 55.6 0 1 0-86.7.2l7.4-6a46.1 46.1 0 1 1 72-.1l7.4 6Z"/><path fill="#3FA71A" d="M143.2 131.2a55.6 55.6 0 0 0-56-88.8l2.1 9.3a46.1 46.1 0 0 1 46.5 73.6l7.4 6Z"/><path fill="#D81838" d="M143.1 131.4a55.6 55.6 0 0 0-19.5-85l-4 8.6a46.2 46.2 0 0 1 16 70.4l7.5 6Z"/><path fill="#636363" fill-rule="evenodd" d="m135.6 125.6.4-.4 3.7 2.9 3.7 2.9-.4.5-7.4-5.9ZM154.9 103.3l-4.6-.6-4.8-.5v-.7l4.8.5 4.7.5-.1.8ZM150 73l-.4-.8-4.2 2-4.2 2.2.2.6 4.3-2 4.3-2ZM129.7 49.8l-2.6 4-2.6 4-.5-.4 2.5-4 2.5-4 .7.4ZM100.1 45.8V41a56.7 56.7 0 0 0-.7 0v9.6a50.7 50.7 0 0 1 .7 0v-4.8ZM73 53.4l-2.5-4c-.3 0-.5.2-.7.4l2.6 4 2.5 4 .6-.4-2.5-4ZM54 74.3l-4.2-2.1-.4.7 4.3 2 4.4 2 .2-.5-4.2-2.1ZM49.1 102l-4.7.5v.8l4.8-.6 4.8-.5-.1-.7-4.8.5ZM59.7 128.1l-3.7 3 .5.6 3.7-3 3.7-3-.4-.5-3.8 2.9Z" clip-rule="evenodd"/><path fill="#636363" fill-rule="evenodd" d="M155 103a55.6 55.6 0 0 1-12 28.5l-.6-.4a54.8 54.8 0 1 0-85.4 0l-.5.5a55.6 55.6 0 1 1 98.4-28.6Z" clip-rule="evenodd"/><path fill="#000" fill-opacity=".5" d="m56.5 101.4-.7-.2.3-2.8h3v.8H57l-.2 1.4a1.8 1.8 0 0 1 1-.3c.2 0 .4 0 .7.2.2 0 .3.2.5.3l.3.6a2.5 2.5 0 0 1 0 1.6l-.3.6-.6.4-.8.1h-.7l-.6-.4a1.6 1.6 0 0 1-.6-1.2h1l.1.5.3.3h.9l.3-.2.1-.4a1.8 1.8 0 0 0 0-1 1 1 0 0 0-.2-.3c0-.1-.1-.2-.3-.2a1 1 0 0 0-.4-.1h-.5l-.4.3ZM68 122.2v1l-.1 1-.4.8-.6.5a2.2 2.2 0 0 1-1.4 0 1.5 1.5 0 0 1-.9-.7l-.2-.7-.1-1v-1l.1-1 .4-.8.6-.4.7-.2.7.1a1.5 1.5 0 0 1 .9.8l.2.7.1.9Zm-1 1V121l-.3-.3-.2-.2h-.7l-.3.3-.2.5v3l.3.3.2.2h.7l.3-.3.2-.5v-.7ZM62.1 76v5.8h-1v-4.6l-1.3.5v-.8l2.2-.8h.1Zm5.7 2.5v.9l-.1 1.1-.4.8-.6.4a2.2 2.2 0 0 1-1.4 0 1.5 1.5 0 0 1-1-.7l-.2-.7v-2.9l.5-.8c.1-.2.3-.4.6-.4l.7-.2.6.1a1.5 1.5 0 0 1 1 .7l.2.7v1Zm-1 1V77.7l-.1-.4-.2-.3-.3-.2a1 1 0 0 0-.3 0h-.4l-.3.3-.1.5-.1.7V80.1l.2.5.1.3.3.2h.7l.3-.3.2-.5v-.8ZM76.4 58.6v5.7h-1v-4.6l-1.3.5v-.8l2.2-.8h.1Zm3 3-.8-.1.3-2.9H82v.8h-2.3l-.1 1.4a1.8 1.8 0 0 1 .9-.2l.7.1.5.4.4.6a2.5 2.5 0 0 1 0 1.5c-.1.3-.2.5-.4.6-.1.2-.3.3-.6.4l-.8.2-.7-.1-.6-.3a1.6 1.6 0 0 1-.5-1.2h.9l.1.4.3.3.5.1h.4l.3-.3.2-.4a1.8 1.8 0 0 0 0-.9 1 1 0 0 0-.2-.4l-.3-.2a1 1 0 0 0-.5 0h-.5l-.3.3ZM129.3 123.5v.7h-4l-.1-.5 2.4-3.9h.8l-.8 1.4-1.4 2.3h3.1Zm-.7-3.7v5.7h-1v-5.7h1Zm5 2.4v2l-.4.8-.6.5a2.2 2.2 0 0 1-1.4 0 1.5 1.5 0 0 1-1-.7l-.2-.7v-3l.4-.8.6-.4.8-.2.6.1a1.5 1.5 0 0 1 1 .8l.2.7v.9Zm-.9 1v-1.7l-.1-.5-.2-.3-.3-.2h-.7l-.3.3-.2.5v2.6l.1.4.2.3.3.2h.7l.3-.3.2-.5v-.7ZM136.8 100.8h.6l.6-.1.3-.3v-1l-.3-.3a1 1 0 0 0-.5 0 1 1 0 0 0-.4 0 .8.8 0 0 0-.5.7h-1c0-.3.2-.5.3-.8l.7-.5a2 2 0 0 1 .9-.2c.4 0 .7 0 1 .2.2 0 .4.3.6.5.2.2.2.5.2.9v.5l-.4.4-.6.4-.7.1h-.8v-.5Zm0 .7v-.5h.8l.8.1.6.3.3.5.1.6-.1.7-.4.5-.6.3a2.5 2.5 0 0 1-1.5 0 2 2 0 0 1-.6-.3l-.4-.5-.2-.7h1v.5c.2 0 .3.2.4.3h1l.4-.3v-1.1l-.4-.3h-1.2Zm4.5 0-.8-.3.3-2.8h3.1v.8h-2.3l-.1 1.4a1.8 1.8 0 0 1 .9-.3c.2 0 .5 0 .7.2.2 0 .4.2.5.3l.4.6a2.5 2.5 0 0 1 0 1.6l-.4.6-.6.4-.8.1h-.7l-.6-.4-.4-.5-.1-.7h.9l.1.5.3.3h.9l.3-.2.2-.4a1.8 1.8 0 0 0 0-1 1 1 0 0 0-.2-.3l-.3-.2a1 1 0 0 0-.5-.1h-.5l-.3.3ZM132.9 78.5h1.1l.3-.4.1-.5v-.4c-.2-.1-.2-.3-.4-.3a1 1 0 0 0-.5-.1 1 1 0 0 0-.4 0 .8.8 0 0 0-.5.8h-.9c0-.3 0-.6.2-.8l.7-.6a2 2 0 0 1 1-.2c.3 0 .6 0 .9.2.3.1.5.3.6.6.2.2.3.5.3.8 0 .2 0 .4-.2.5 0 .2-.1.4-.3.5l-.5.3-.8.1h-.7v-.5Zm0 .8v-.6h.7c.3 0 .6 0 .8.2.3 0 .5.1.6.3.2.1.3.3.3.4l.1.6-.1.7-.4.5-.6.4a2.5 2.5 0 0 1-1.5 0 2 2 0 0 1-.6-.3l-.4-.5-.2-.7h1l.1.4.3.3.5.1h.6c0-.2.2-.3.3-.4v-1c-.1-.2-.2-.3-.4-.3l-.6-.1h-.5Zm7.1-.8v.9l-.1 1.1-.4.8c-.1.2-.3.3-.6.4a2.2 2.2 0 0 1-1.4 0 1.5 1.5 0 0 1-.9-.7l-.2-.7-.1-.9v-1l.1-1 .4-.8c.2-.2.4-.4.6-.4l.8-.2.6.1a1.5 1.5 0 0 1 .9.7l.2.7.1 1Zm-1 1V77.3l-.3-.3-.2-.2a1 1 0 0 0-.3 0h-.4l-.3.3-.2.5v3l.3.3.2.2h.8l.2-.3.2-.5v-.8ZM118.9 63.6v.7H115v-.6l1.8-2 .5-.7.3-.4a1.1 1.1 0 0 0 0-.9l-.4-.3a.9.9 0 0 0-.4-.1 1 1 0 0 0-.6.1l-.3.4v.6h-1c0-.4 0-.7.2-1 .1-.2.4-.5.7-.6a2 2 0 0 1 1-.3l1 .2.6.6.2.8-.1.5-.3.6-.3.5-.5.5-1.2 1.4h2.6Zm1.7-2-.7-.1.3-2.9h3v.8H121l-.2 1.4a1.8 1.8 0 0 1 .9-.2l.7.1.6.4.3.6a2.5 2.5 0 0 1 0 1.5c0 .3-.2.5-.3.6l-.6.4-.9.2-.6-.1c-.3 0-.4-.2-.6-.3a1.6 1.6 0 0 1-.6-1.2h1v.4c.1.2.3.3.4.3l.4.1h.5l.2-.3.2-.4a1.8 1.8 0 0 0 0-.9 1 1 0 0 0-.2-.4l-.3-.2a1 1 0 0 0-.4 0h-.6l-.3.3ZM99.4 58v.7h-3.8v-.6l1.9-2 .4-.6.3-.5a1.1 1.1 0 0 0 0-.8l-.3-.4a.9.9 0 0 0-.5 0 1 1 0 0 0-.5 0l-.4.4v.6h-1c0-.3 0-.6.2-1l.7-.6a2 2 0 0 1 1-.2c.4 0 .7 0 1 .2l.6.5.2.8v.6l-.3.5-.4.5-.5.5-1.2 1.4h2.6Zm4.5-2.6v1c0 .4 0 .8-.2 1 0 .4-.2.7-.4.9l-.5.4a2.2 2.2 0 0 1-1.4 0 1.5 1.5 0 0 1-1-.7l-.2-.7v-3l.4-.8.6-.4.8-.1h.6a1.5 1.5 0 0 1 1 .8l.2.7v1Zm-1 1V54.8l-.1-.5-.2-.3-.3-.1a1 1 0 0 0-.3 0h-.4l-.3.3-.2.5V57l.1.4c0 .2.1.3.2.3l.3.2h.7l.3-.3.2-.5v-.7ZM95.4 114l.1-.6a1.2 1.2 0 0 1 1-.6c.3 0 .5 0 .6.2.2 0 .4.2.5.4l.1.6-.1.6-.5.4-.5.2a1.2 1.2 0 0 1-1.2-1.2Zm.6 0 .1.4.5.2.4-.2.1-.4-.1-.4a.5.5 0 0 0-.4-.2c-.2 0-.3 0-.5.2l-.1.4Zm7 3.3h1.1c0 .4-.1.8-.3 1.1-.2.4-.5.6-.9.8-.4.2-.8.3-1.3.3-.4 0-.8 0-1.1-.2l-.8-.6c-.3-.3-.4-.6-.6-1l-.1-1.3v-.5l.1-1.3c.2-.4.3-.7.6-1l.8-.6 1.1-.2c.5 0 1 .1 1.3.3.4.2.7.4.9.8.2.3.3.7.3 1.1h-1l-.3-.7a1 1 0 0 0-.4-.4l-.8-.2-.7.1-.4.5a2 2 0 0 0-.3.6l-.1 1v1.5l.3.6.5.4.7.2.7-.1.5-.5.2-.7Z"/><path fill="#E65100" d="M103.1 98.8 84 50.8l13.5 49.5 4.8 10.7c0 .2.2.3.4.2l2.5-.8c.2 0 .3-.2.3-.4L103 98.8Z"/><g filter="url(#c)"><circle cx="99.6" cy="98.2" r="4.8" fill="#fff"/></g><defs><filter id="a" width="200" height="160" x="0" y="0" color-interpolation-filters="sRGB" filterUnits="userSpaceOnUse"><feFlood flood-opacity="0" result="BackgroundImageFix"/><feGaussianBlur in="BackgroundImageFix" stdDeviation="3"/><feComposite in2="SourceAlpha" operator="in" result="effect1_backgroundBlur_4650_9921"/><feBlend in="SourceGraphic" in2="effect1_backgroundBlur_4650_9921" result="shape"/></filter><filter id="c" width="38.2" height="38.2" x="80.6" y="79.2" color-interpolation-filters="sRGB" filterUnits="userSpaceOnUse"><feFlood flood-opacity="0" result="BackgroundImageFix"/><feColorMatrix in="SourceAlpha" result="hardAlpha" values="0 0 0 0 0 0 0 0 0 0 0 0 0 0 0 0 0 0 127 0"/><feMorphology in="SourceAlpha" operator="dilate" radius="1.6" result="effect1_dropShadow_4650_9921"/><feOffset/><feGaussianBlur stdDeviation="6.4"/><feComposite in2="hardAlpha" operator="out"/><feColorMatrix values="0 0 0 0 1 0 0 0 0 0.241667 0 0 0 0 0.241667 0 0 0 0.15 0"/><feBlend in2="BackgroundImageFix" result="effect1_dropShadow_4650_9921"/><feBlend in="SourceGraphic" in2="effect1_dropShadow_4650_9921" result="shape"/></filter><clipPath id="b"><rect width="26.2" height="12.7" x="86.9" y="130" fill="#fff" rx="3.2"/></clipPath></defs></svg>