<svg width="273" height="219" viewBox="0 0 273 219" fill="none" xmlns="http://www.w3.org/2000/svg">
    <path fill-rule="evenodd" clip-rule="evenodd" d="M83.5113 38.3627V0.779785L84.8398 0.779785V38.3627H83.5113Z" fill="#91A3BE"/>
    <path d="M83.5117 37.9788C96.3059 37.9788 108.975 40.4988 120.795 45.3949C132.615 50.291 143.355 57.4674 152.402 66.5142C161.449 75.561 168.625 86.3012 173.522 98.1215C178.418 109.942 180.938 122.611 180.938 135.405H179.61C179.61 122.785 177.125 110.289 172.295 98.6295C167.466 86.9703 160.387 76.3765 151.464 67.4529C142.54 58.5293 131.946 51.4508 120.287 46.6214C108.628 41.792 96.1316 39.3063 83.5117 39.3063V37.9788Z" fill="#91A3BE"/>
    <path fill-rule="evenodd" clip-rule="evenodd" d="M179.608 134.962L252.234 134.962L252.234 136.291L179.608 136.291L179.608 134.962Z" fill="#91A3BE"/>
    <path d="M262.421 146.033C256.551 146.033 251.792 141.275 251.792 135.405C251.792 129.535 256.551 124.777 262.421 124.777C268.29 124.777 273.049 129.535 273.049 135.405C273.049 141.275 268.29 146.033 262.421 146.033Z" fill="#F4F8FE"/>
    <path fill-rule="evenodd" clip-rule="evenodd" d="M253.121 135.405C253.121 140.541 257.284 144.705 262.421 144.705C267.557 144.705 271.72 140.541 271.72 135.405C271.72 130.269 267.557 126.105 262.421 126.105C257.284 126.105 253.121 130.269 253.121 135.405ZM251.792 135.405C251.792 141.275 256.551 146.033 262.421 146.033C268.29 146.033 273.049 141.275 273.049 135.405C273.049 129.535 268.29 124.777 262.421 124.777C256.551 124.777 251.792 129.535 251.792 135.405Z" fill="#91A3BE"/>
    <rect x="166.101" y="52.8142" width="164.698" height="164.698" rx="82.3489" transform="rotate(90 166.101 52.8142)" stroke="#91A3BE" stroke-width="1.32854"/>
    <g clip-path="url(#clip0_13778_9519)">
        <mask id="mask0_13778_9519" style="mask-type:luminance" maskUnits="userSpaceOnUse" x="43" y="94" width="82" height="82">
            <path d="M43.252 94.6628H124.252V175.663H43.252V94.6628Z" fill="white"/>
        </mask>
        <g mask="url(#mask0_13778_9519)">
            <path d="M69.2333 143.677H44.8335V174.081H69.2333V143.677Z" stroke="#305680" stroke-width="3.16406" stroke-miterlimit="10" stroke-linecap="round" stroke-linejoin="round"/>
        </g>
        <path d="M69.2338 143.677H50.3711V136.717H69.2338V143.677Z" stroke="#305680" stroke-width="3.16406" stroke-miterlimit="10" stroke-linecap="round" stroke-linejoin="round"/>
        <path d="M115.202 149.084H102.44V129.784H115.202V149.084Z" stroke="#305680" stroke-width="3.16406" stroke-miterlimit="10" stroke-linecap="round" stroke-linejoin="round"/>
        <mask id="mask1_13778_9519" style="mask-type:luminance" maskUnits="userSpaceOnUse" x="43" y="94" width="82" height="82">
            <path d="M43.252 94.6628H124.252V175.663H43.252V94.6628Z" fill="white"/>
        </mask>
        <g mask="url(#mask1_13778_9519)">
            <path d="M83.7715 112.63V96.2445" stroke="#305680" stroke-width="3.16406" stroke-miterlimit="10" stroke-linecap="round" stroke-linejoin="round"/>
            <path d="M122.669 174.08H97.6733V149.084H122.669V174.08Z" stroke="#305680" stroke-width="3.16406" stroke-miterlimit="10" stroke-linecap="round" stroke-linejoin="round"/>
        </g>
        <path d="M69.2339 134.065H77.7769" stroke="#305680" stroke-width="3.16406" stroke-miterlimit="10" stroke-linecap="round" stroke-linejoin="round"/>
        <path d="M69.2339 142.208H77.7769" stroke="#305680" stroke-width="3.16406" stroke-miterlimit="10" stroke-linecap="round" stroke-linejoin="round"/>
        <path d="M69.2339 150.35H77.7769" stroke="#305680" stroke-width="3.16406" stroke-miterlimit="10" stroke-linecap="round" stroke-linejoin="round"/>
        <path d="M69.2339 158.493H77.7769" stroke="#305680" stroke-width="3.16406" stroke-miterlimit="10" stroke-linecap="round" stroke-linejoin="round"/>
        <path d="M69.2339 166.635H77.7769" stroke="#305680" stroke-width="3.16406" stroke-miterlimit="10" stroke-linecap="round" stroke-linejoin="round"/>
        <mask id="mask2_13778_9519" style="mask-type:luminance" maskUnits="userSpaceOnUse" x="43" y="94" width="82" height="82">
            <path d="M43.252 94.6628H124.252V175.663H43.252V94.6628Z" fill="white"/>
        </mask>
        <g mask="url(#mask2_13778_9519)">
            <path d="M86.3198 157.469V174.081H69.2339V126.62H86.3198V143.231" stroke="#305680" stroke-width="3.16406" stroke-miterlimit="10" stroke-linecap="round" stroke-linejoin="round"/>
        </g>
        <path d="M108.842 129.784V148.451" stroke="#305680" stroke-width="3.16406" stroke-miterlimit="10" stroke-linecap="round" stroke-linejoin="round"/>
        <mask id="mask3_13778_9519" style="mask-type:luminance" maskUnits="userSpaceOnUse" x="37" y="94" width="90" height="86">
            <path d="M37.9697 94.6628H126.894V179.185H37.9697V94.6628Z" fill="white"/>
        </mask>
        <g mask="url(#mask3_13778_9519)">
            <path d="M52.5566 120.789C55.0279 118.318 59.0347 118.318 61.506 120.789" stroke="#305680" stroke-width="3.52174" stroke-miterlimit="10" stroke-linecap="round" stroke-linejoin="round"/>
            <path d="M48.082 116.314C53.0246 111.372 61.0382 111.372 65.9807 116.314" stroke="#305680" stroke-width="3.52174" stroke-miterlimit="10" stroke-linecap="round" stroke-linejoin="round"/>
            <path d="M57.031 125.264H57.0151" stroke="#305680" stroke-width="3.52174" stroke-miterlimit="10" stroke-linecap="round" stroke-linejoin="round"/>
            <path d="M109.246 109.455C111.717 106.984 115.724 106.984 118.195 109.455" stroke="#305680" stroke-width="3.52174" stroke-miterlimit="10" stroke-linecap="round" stroke-linejoin="round"/>
            <path d="M104.771 104.98C109.714 100.038 117.728 100.038 122.67 104.98" stroke="#305680" stroke-width="3.52174" stroke-miterlimit="10" stroke-linecap="round" stroke-linejoin="round"/>
            <path d="M113.721 113.929H113.705" stroke="#305680" stroke-width="3.52174" stroke-miterlimit="10" stroke-linecap="round" stroke-linejoin="round"/>
            <path d="M102.439 174.08H83.7715" stroke="#305680" stroke-width="3.08152" stroke-miterlimit="10" stroke-linecap="round" stroke-linejoin="round"/>
            <path d="M83.9287 125.739V107.648L102.597 114.294V148.204" stroke="#305680" stroke-width="3.52174" stroke-miterlimit="10" stroke-linecap="round" stroke-linejoin="round"/>
        </g>
        <circle cx="86.3937" cy="150.13" r="1.76087" fill="#305680"/>
    </g>
    <defs>
        <clipPath id="clip0_13778_9519">
            <rect width="81" height="81" fill="white" transform="translate(43.2524 94.6631)"/>
        </clipPath>
    </defs>
</svg>
