<svg width="246" height="308" viewBox="0 0 246 308" fill="none" xmlns="http://www.w3.org/2000/svg">
<path fill-rule="evenodd" clip-rule="evenodd" d="M42.4334 214H0V212.5H42.4334V214Z" fill="#91A3BE"/>
<path d="M42 214C42 199.555 44.8452 185.251 50.3732 171.905C55.9013 158.559 64.0038 146.433 74.2183 136.218C84.4327 126.004 96.559 117.901 109.905 112.373C123.251 106.845 137.555 104 152 104V105.499C137.751 105.499 123.642 108.305 110.478 113.758C97.3144 119.211 85.3533 127.203 75.2781 137.278C65.2028 147.353 57.2107 159.314 51.758 172.478C46.3053 185.642 43.4988 199.751 43.4988 214H42Z" fill="#91A3BE"/>
<path fill-rule="evenodd" clip-rule="evenodd" d="M151.5 105.5L151.5 23.5L153 23.5L153 105.5L151.5 105.5Z" fill="#91A3BE"/>
<path d="M164 12C164 18.6274 158.627 24 152 24C145.373 24 140 18.6274 140 12C140 5.37258 145.373 0 152 0C158.627 0 164 5.37258 164 12Z" fill="#F4F8FE"/>
<path fill-rule="evenodd" clip-rule="evenodd" d="M152 22.5C157.799 22.5 162.5 17.799 162.5 12C162.5 6.20101 157.799 1.5 152 1.5C146.201 1.5 141.5 6.20101 141.5 12C141.5 17.799 146.201 22.5 152 22.5ZM152 24C158.627 24 164 18.6274 164 12C164 5.37258 158.627 0 152 0C145.373 0 140 5.37258 140 12C140 18.6274 145.373 24 152 24Z" fill="#91A3BE"/>
<rect x="58.75" y="120.75" width="186.5" height="186.5" rx="93.25" stroke="#91A3BE" stroke-width="1.5"/>
<g clip-path="url(#clip0_13778_8314)">
<path d="M108 258H145M196 258H191M145 258V209C145 207.895 145.895 207 147 207L170 207C171.105 207 172 207.895 172 209V226C172 227.105 172.895 228 174 228H180C181.105 228 182 227.105 182 226V221C182 219.895 182.895 219 184 219H189C190.105 219 191 219.895 191 221V258M145 258H191" stroke="#305680" stroke-width="4" stroke-linecap="round"/>
<path d="M162 184H184.49C184.825 184 185.154 184.084 185.448 184.244L194.958 189.431C195.6 189.782 196 190.455 196 191.187V191.5C196 192.605 195.105 193.5 194 193.5H187M141 193.5H187M187 193.5V207" stroke="#305680" stroke-width="4" stroke-linecap="round"/>
<path d="M122 193.5H110C108.895 193.5 108 192.605 108 191.5V186C108 184.895 108.895 184 110 184H146" stroke="#305680" stroke-width="4" stroke-linecap="round"/>
<path d="M122 257.5V202M122 202V172C122 170.895 122.895 170 124 170H124.303C125.04 170 125.717 170.406 126.065 171.056L133 184L140.317 190.402C140.751 190.782 141 191.331 141 191.908V200C141 201.105 140.105 202 139 202H131.5M122 202H131.5M131.5 202V257.5" stroke="#305680" stroke-width="4" stroke-linecap="round"/>
<circle cx="154" cy="184" r="2" fill="#305680"/>
<path d="M155 214H163" stroke="#305680" stroke-width="4" stroke-linecap="round"/>
<path d="M155 226H163" stroke="#305680" stroke-width="4" stroke-linecap="round"/>
<path d="M155 238H163" stroke="#305680" stroke-width="4" stroke-linecap="round"/>
<path d="M173 238H181" stroke="#305680" stroke-width="4" stroke-linecap="round"/>
<path d="M155 250H163" stroke="#305680" stroke-width="4" stroke-linecap="round"/>
<path d="M173 250H181" stroke="#305680" stroke-width="4" stroke-linecap="round"/>
</g>
<defs>
<clipPath id="clip0_13778_8314">
<rect width="92" height="92" fill="white" transform="translate(106 168)"/>
</clipPath>
</defs>
</svg>
