<svg width="273" height="232" viewBox="0 0 273 232" fill="none" xmlns="http://www.w3.org/2000/svg">
    <g clip-path="url(#clip0_13778_9635)">
        <path fill-rule="evenodd" clip-rule="evenodd" d="M83.462 38.4677V0.884766L84.7905 0.884766V38.4677H83.462Z" fill="#91A3BE"/>
        <path d="M83.4624 38.0838C96.2566 38.0838 108.925 40.6038 120.746 45.4999C132.566 50.396 143.306 57.5723 152.353 66.6192C161.4 75.666 168.576 86.4062 173.472 98.2265C178.368 110.047 180.888 122.716 180.888 135.51H179.561C179.561 122.89 177.075 110.394 172.246 98.7345C167.416 87.0753 160.338 76.4814 151.414 67.5579C142.491 58.6343 131.897 51.5557 120.238 46.7263C108.578 41.8969 96.0822 39.4113 83.4624 39.4113V38.0838Z" fill="#91A3BE"/>
        <path fill-rule="evenodd" clip-rule="evenodd" d="M179.559 135.067L252.186 135.067L252.186 136.395L179.559 136.396L179.559 135.067Z" fill="#91A3BE"/>
        <path d="M262.372 146.138C256.502 146.138 251.743 141.379 251.743 135.51C251.743 129.64 256.502 124.881 262.372 124.881C268.242 124.881 273 129.64 273 135.51C273 141.379 268.242 146.138 262.372 146.138Z" fill="#F4F8FE"/>
        <path fill-rule="evenodd" clip-rule="evenodd" d="M253.072 135.51C253.072 140.646 257.236 144.809 262.372 144.809C267.508 144.809 271.671 140.646 271.671 135.51C271.671 130.374 267.508 126.21 262.372 126.21C257.236 126.21 253.072 130.374 253.072 135.51ZM251.743 135.51C251.743 141.379 256.502 146.138 262.372 146.138C268.242 146.138 273 141.379 273 135.51C273 129.64 268.242 124.881 262.372 124.881C256.502 124.881 251.743 129.64 251.743 135.51Z" fill="#91A3BE"/>
        <rect x="166.053" y="52.9192" width="164.698" height="164.698" rx="82.3489" transform="rotate(90 166.053 52.9192)" stroke="#91A3BE" stroke-width="1.32854"/>
        <g clip-path="url(#clip1_13778_9635)">
            <path d="M44.9648 174.007H77.5409M122.443 174.007H118.041M77.5409 174.007L77.5409 130.866C77.5409 129.893 78.3293 129.105 79.3018 129.105H99.5518C100.524 129.105 101.313 129.893 101.313 130.866V145.833C101.313 146.806 102.101 147.594 103.074 147.594H108.356C109.329 147.594 110.117 146.806 110.117 145.833V141.431C110.117 140.459 110.905 139.67 111.878 139.67H116.28C117.253 139.67 118.041 140.459 118.041 141.431L118.041 174.007M77.5409 174.007L118.041 174.007" stroke="#305680" stroke-width="3.52174" stroke-linecap="round"/>
            <path d="M92.5087 108.855H112.31C112.604 108.855 112.894 108.929 113.153 109.07L121.526 113.637C122.091 113.946 122.443 114.539 122.443 115.183V115.458C122.443 116.431 121.655 117.219 120.683 117.219H114.52M74.0195 117.219H114.52M114.52 117.219V129.105" stroke="#305680" stroke-width="3.52174" stroke-linecap="round"/>
            <path d="M57.2909 117.219H46.7257C45.7532 117.219 44.9648 116.431 44.9648 115.458V110.616C44.9648 109.643 45.7532 108.855 46.7257 108.855H78.4214" stroke="#305680" stroke-width="3.52174" stroke-linecap="round"/>
            <path d="M57.291 173.567V124.703M57.291 124.703V98.2897C57.291 97.3172 58.0794 96.5288 59.0519 96.5288H59.3182C59.9674 96.5288 60.5639 96.886 60.8704 97.4582L66.9758 108.855L73.4179 114.492C73.8001 114.826 74.0193 115.309 74.0193 115.817V122.942C74.0193 123.914 73.2309 124.703 72.2584 124.703H65.6551M57.291 124.703H65.6551M65.6551 124.703V173.567" stroke="#305680" stroke-width="3.52174" stroke-linecap="round"/>
            <circle cx="85.465" cy="108.855" r="1.76087" fill="#305680"/>
            <path d="M86.3452 135.268H93.3887" stroke="#305680" stroke-width="3.52174" stroke-linecap="round"/>
            <path d="M86.3452 145.833H93.3887" stroke="#305680" stroke-width="3.52174" stroke-linecap="round"/>
            <path d="M86.3452 156.398H93.3887" stroke="#305680" stroke-width="3.52174" stroke-linecap="round"/>
            <path d="M102.193 156.398H109.237" stroke="#305680" stroke-width="3.52174" stroke-linecap="round"/>
            <path d="M86.3452 166.964H93.3887" stroke="#305680" stroke-width="3.52174" stroke-linecap="round"/>
            <path d="M102.193 166.964H109.237" stroke="#305680" stroke-width="3.52174" stroke-linecap="round"/>
        </g>
    </g>
    <defs>
        <clipPath id="clip0_13778_9635">
            <rect width="232" height="273" fill="white" transform="matrix(0 1 -1 0 273 0)"/>
        </clipPath>
        <clipPath id="clip1_13778_9635">
            <rect width="81" height="81" fill="white" transform="translate(43.2041 94.7681)"/>
        </clipPath>
    </defs>
</svg>
