<svg width="273" height="232" viewBox="0 0 273 232" fill="none" xmlns="http://www.w3.org/2000/svg">
    <g clip-path="url(#clip0_13778_9608)">
        <path fill-rule="evenodd" clip-rule="evenodd" d="M189.538 38.4677V0.884766L188.209 0.884766V38.4677H189.538Z" fill="#3E9AF8"/>
        <path d="M189.538 38.0838C176.744 38.0838 164.075 40.6038 152.255 45.4999C140.435 50.396 129.694 57.5723 120.647 66.6192C111.601 75.666 104.424 86.4062 99.5282 98.2265C94.6321 110.047 92.1121 122.716 92.1121 135.51H93.4396C93.4396 122.89 95.9253 110.394 100.755 98.7345C105.584 87.0753 112.663 76.4814 121.586 67.5579C130.51 58.6343 141.104 51.5557 152.763 46.7263C164.422 41.8969 176.918 39.4113 189.538 39.4113V38.0838Z" fill="#3E9AF8"/>
        <path fill-rule="evenodd" clip-rule="evenodd" d="M93.4406 135.067L20.814 135.067L20.814 136.395L93.4406 136.396L93.4406 135.067Z" fill="#3E9AF8"/>
        <path d="M10.6283 146.138C16.4981 146.138 21.2566 141.379 21.2566 135.51C21.2566 129.64 16.4981 124.881 10.6283 124.881C4.75845 124.881 0 129.64 0 135.51C0 141.379 4.75845 146.138 10.6283 146.138Z" fill="#F4F8FE"/>
        <path fill-rule="evenodd" clip-rule="evenodd" d="M19.928 135.51C19.928 140.646 15.7644 144.809 10.6283 144.809C5.49218 144.809 1.32854 140.646 1.32854 135.51C1.32854 130.374 5.49218 126.21 10.6283 126.21C15.7644 126.21 19.928 130.374 19.928 135.51ZM21.2566 135.51C21.2566 141.379 16.4981 146.138 10.6283 146.138C4.75845 146.138 0 141.379 0 135.51C0 129.64 4.75845 124.881 10.6283 124.881C16.4981 124.881 21.2566 129.64 21.2566 135.51Z" fill="#3E9AF8"/>
        <rect x="0.664268" y="0.664268" width="164.698" height="164.698" rx="82.3489" transform="matrix(0 1 1 0 106.283 52.2549)" stroke="#3E9AF8" stroke-width="1.32854"/>
        <g clip-path="url(#clip1_13778_9608)">
            <path d="M198.98 133.507H203.383" stroke="#3E9AF8" stroke-width="3.52174" stroke-linecap="round"/>
            <path d="M214.829 140.551H220.111" stroke="#3E9AF8" stroke-width="3.52174" stroke-linecap="round"/>
            <path d="M214.829 151.116H220.111" stroke="#3E9AF8" stroke-width="3.52174" stroke-linecap="round"/>
            <path d="M158.48 140.551H163.763" stroke="#3E9AF8" stroke-width="3.52174" stroke-linecap="round"/>
            <path d="M158.48 151.116H163.763" stroke="#3E9AF8" stroke-width="3.52174" stroke-linecap="round"/>
            <path d="M187.535 133.507H191.937" stroke="#3E9AF8" stroke-width="3.52174" stroke-linecap="round"/>
            <path d="M176.089 133.507H180.492" stroke="#3E9AF8" stroke-width="3.52174" stroke-linecap="round"/>
            <path d="M153.198 129.985V173.127C153.198 173.613 153.592 174.007 154.079 174.007H175.209M209.546 128.225H224.513C225 128.225 225.394 128.619 225.394 129.105V173.127C225.394 173.613 225 174.007 224.513 174.007H203.383M175.209 174.007V149.402C175.209 148.916 175.603 148.521 176.09 148.521H189.076M175.209 174.007H189.296M203.383 174.007V149.402C203.383 148.916 202.989 148.521 202.503 148.521H189.076M203.383 174.007H189.296M189.076 148.521L189.296 174.007" stroke="#3E9AF8" stroke-width="3.52174" stroke-linecap="round"/>
            <path d="M170.807 172.687C170.807 173.659 170.018 174.447 169.046 174.447C168.073 174.447 167.285 173.659 167.285 172.687V129.985H150.557C149.584 129.985 148.796 129.197 148.796 128.225C148.796 127.252 149.584 126.464 150.557 126.464H167.285V111.496H165.084C164.112 111.496 163.323 110.708 163.323 109.735C163.323 108.763 164.112 107.975 165.084 107.975H170.807V172.687ZM213.688 107.983C214.576 108.073 215.269 108.824 215.269 109.735C215.269 110.647 214.576 111.397 213.688 111.487L213.508 111.496H211.307V126.464H228.035L228.215 126.473C229.103 126.563 229.796 127.313 229.796 128.225C229.796 129.136 229.103 129.886 228.215 129.977L228.035 129.985H211.307V172.687C211.307 173.659 210.518 174.447 209.546 174.447C208.573 174.447 207.785 173.659 207.785 172.687V107.975H213.508L213.688 107.983Z" fill="#3E9AF8"/>
            <circle cx="204.263" cy="115.899" r="1.76087" fill="#3E9AF8"/>
            <path d="M178.203 105.318V114.115C178.203 114.354 178.298 114.583 178.475 114.743C181.797 117.733 189.926 121.527 198.308 114.753C198.51 114.589 198.629 114.338 198.629 114.078V105.088M204.264 102.643V109.735M204.264 102.643L188.692 97.5004C188.512 97.4411 188.319 97.4411 188.14 97.5004L174.761 101.919C173.993 102.172 173.944 103.24 174.686 103.562L188.065 109.369C188.289 109.466 188.543 109.466 188.766 109.369L204.264 102.643Z" stroke="#3E9AF8" stroke-width="3.52174" stroke-linecap="round"/>
        </g>
    </g>
    <defs>
        <clipPath id="clip0_13778_9608">
            <rect width="232" height="273" fill="white" transform="matrix(0 1 1 0 0 0)"/>
        </clipPath>
        <clipPath id="clip1_13778_9608">
            <rect width="81" height="81" fill="white" transform="translate(148.796 94.7681)"/>
        </clipPath>
    </defs>
</svg>
