<svg width="273" height="232" viewBox="0 0 273 232" fill="none" xmlns="http://www.w3.org/2000/svg">
<g clip-path="url(#clip0_13778_9548)">
<path fill-rule="evenodd" clip-rule="evenodd" d="M189.538 38.4677V0.884766L188.209 0.884766V38.4677H189.538Z" fill="#3E9AF8"/>
<path d="M189.538 38.0838C176.744 38.0838 164.075 40.6038 152.255 45.4999C140.435 50.396 129.694 57.5723 120.647 66.6192C111.601 75.666 104.424 86.4062 99.5282 98.2265C94.6321 110.047 92.1121 122.716 92.1121 135.51H93.4396C93.4396 122.89 95.9253 110.394 100.755 98.7345C105.584 87.0753 112.663 76.4814 121.586 67.5579C130.51 58.6343 141.104 51.5557 152.763 46.7263C164.422 41.8969 176.918 39.4113 189.538 39.4113V38.0838Z" fill="#3E9AF8"/>
<path fill-rule="evenodd" clip-rule="evenodd" d="M93.4406 135.067L20.814 135.067L20.814 136.395L93.4406 136.396L93.4406 135.067Z" fill="#3E9AF8"/>
<path d="M10.6283 146.138C16.4981 146.138 21.2566 141.38 21.2566 135.51C21.2566 129.64 16.4981 124.882 10.6283 124.882C4.75845 124.882 0 129.64 0 135.51C0 141.38 4.75845 146.138 10.6283 146.138Z" fill="#F4F8FE"/>
<path fill-rule="evenodd" clip-rule="evenodd" d="M19.928 135.51C19.928 140.646 15.7644 144.81 10.6283 144.81C5.49218 144.81 1.32854 140.646 1.32854 135.51C1.32854 130.374 5.49218 126.21 10.6283 126.21C15.7644 126.21 19.928 130.374 19.928 135.51ZM21.2566 135.51C21.2566 141.38 16.4981 146.138 10.6283 146.138C4.75845 146.138 0 141.38 0 135.51C0 129.64 4.75845 124.882 10.6283 124.882C16.4981 124.882 21.2566 129.64 21.2566 135.51Z" fill="#3E9AF8"/>
<rect x="0.664268" y="0.664268" width="164.698" height="164.698" rx="82.3489" transform="matrix(0 1 1 0 106.283 52.2549)" stroke="#3E9AF8" stroke-width="1.32854"/>
<g clip-path="url(#clip1_13778_9548)">
<path d="M152.693 163.043C153.663 163.043 154.449 162.253 154.449 161.279C154.449 160.305 153.663 159.516 152.693 159.516C151.723 159.516 150.937 160.305 150.937 161.279C150.937 162.253 151.723 163.043 152.693 163.043Z" fill="#3E9AF8"/>
<path fill-rule="evenodd" clip-rule="evenodd" d="M210.107 149.262C209.757 148.547 208.947 148.187 208.184 148.407C206.099 149.01 204.19 150.123 202.614 151.648C202.107 152.138 201.969 152.899 202.272 153.537C202.421 153.854 202.492 154.208 202.475 154.565C202.458 154.922 202.354 155.266 202.176 155.563C201.998 155.86 201.755 156.098 201.474 156.26C201.193 156.422 200.881 156.505 200.568 156.505H200.518C199.797 156.505 199.161 156.978 198.951 157.671C198.552 158.99 198.339 160.39 198.339 161.837C198.338 162.776 198.429 163.713 198.61 164.633C198.774 165.467 199.543 166.037 200.385 165.95C200.75 165.912 201.12 165.988 201.451 166.173C201.782 166.358 202.062 166.647 202.246 167.011C202.431 167.376 202.509 167.794 202.465 168.211C202.422 168.628 202.261 169.015 202.01 169.324C201.494 169.96 201.524 170.88 202.079 171.481C203.685 173.219 205.702 174.5 207.936 175.194C208.8 175.462 209.716 174.977 209.984 174.11C210.114 173.688 210.367 173.33 210.695 173.081C211.021 172.833 211.408 172.705 211.798 172.705C212.189 172.705 212.575 172.833 212.902 173.081C213.23 173.33 213.483 173.688 213.613 174.11C213.88 174.977 214.797 175.462 215.661 175.194C217.895 174.5 219.911 173.219 221.517 171.482C222.073 170.881 222.103 169.961 221.587 169.325C221.336 169.015 221.175 168.628 221.131 168.212C221.088 167.795 221.166 167.377 221.35 167.012C221.535 166.648 221.815 166.359 222.146 166.173C222.476 165.989 222.847 165.913 223.212 165.951C224.054 166.038 224.823 165.467 224.987 164.633C225.165 163.729 225.258 162.794 225.258 161.839C225.259 160.427 225.053 159.022 224.646 157.673C224.435 156.971 223.785 156.494 223.054 156.505C222.739 156.51 222.424 156.43 222.14 156.27C221.856 156.11 221.609 155.873 221.428 155.575C221.247 155.278 221.14 154.932 221.122 154.573C221.103 154.213 221.174 153.856 221.325 153.538C221.627 152.899 221.489 152.138 220.982 151.648C219.407 150.123 217.497 149.01 215.413 148.407C214.65 148.187 213.84 148.547 213.49 149.262C213.323 149.602 213.073 149.879 212.775 150.07C212.477 150.26 212.138 150.357 211.798 150.357C211.458 150.357 211.12 150.26 210.822 150.07C210.523 149.879 210.273 149.602 210.107 149.262ZM205.747 154.723C205.769 154.262 205.732 153.803 205.64 153.354C206.366 152.777 207.162 152.305 208.006 151.95C208.317 152.294 208.673 152.596 209.067 152.847C209.749 153.281 210.522 153.547 211.321 153.623L211.799 153.646C212.767 153.646 213.712 153.367 214.53 152.847C214.923 152.596 215.28 152.294 215.591 151.95C216.434 152.305 217.23 152.777 217.957 153.354C217.863 153.809 217.827 154.275 217.851 154.741C217.897 155.642 218.165 156.519 218.632 157.289C219.101 158.059 219.755 158.698 220.538 159.139C220.926 159.357 221.338 159.523 221.764 159.633C221.91 160.356 221.983 161.095 221.983 161.836V161.838C221.983 162.152 221.97 162.463 221.944 162.771C221.46 162.877 220.991 163.055 220.552 163.3C219.64 163.81 218.905 164.586 218.431 165.521C217.958 166.455 217.765 167.511 217.874 168.553C217.929 169.078 218.059 169.59 218.258 170.073C217.557 170.675 216.782 171.176 215.957 171.563C215.654 171.145 215.291 170.772 214.876 170.457C213.989 169.784 212.911 169.416 211.798 169.416C210.686 169.416 209.608 169.784 208.72 170.457C208.305 170.772 207.943 171.145 207.64 171.563C206.814 171.176 206.04 170.675 205.339 170.072C205.538 169.59 205.668 169.078 205.723 168.553C205.831 167.51 205.639 166.455 205.166 165.52C204.692 164.586 203.956 163.81 203.044 163.3C202.606 163.054 202.136 162.876 201.652 162.77C201.626 162.461 201.614 162.15 201.614 161.839L201.614 161.838C201.614 161.08 201.689 160.343 201.832 159.633C202.276 159.518 202.705 159.343 203.107 159.111C203.879 158.665 204.524 158.025 204.983 157.257C205.442 156.49 205.704 155.618 205.747 154.723Z" fill="#3E9AF8"/>
<path fill-rule="evenodd" clip-rule="evenodd" d="M207.964 157.703C208.982 156.682 210.362 156.108 211.8 156.108C212.513 156.108 213.218 156.249 213.876 156.522C214.534 156.796 215.132 157.197 215.636 157.703C216.14 158.209 216.54 158.809 216.812 159.47C217.085 160.131 217.225 160.84 217.225 161.555C217.225 162.27 217.085 162.979 216.812 163.64C216.54 164.3 216.14 164.901 215.636 165.407C215.132 165.913 214.534 166.314 213.876 166.588C213.218 166.861 212.513 167.002 211.8 167.002C210.362 167.002 208.982 166.428 207.964 165.407C206.947 164.385 206.375 163 206.375 161.555C206.375 160.11 206.947 158.725 207.964 157.703ZM211.8 159.396C211.23 159.396 210.683 159.624 210.28 160.029C209.877 160.433 209.651 160.982 209.651 161.555C209.651 162.127 209.877 162.676 210.28 163.081C210.683 163.486 211.23 163.713 211.8 163.713C212.083 163.713 212.362 163.658 212.623 163.549C212.884 163.441 213.121 163.282 213.32 163.081C213.52 162.881 213.678 162.643 213.786 162.381C213.894 162.119 213.95 161.838 213.95 161.555C213.95 161.271 213.894 160.991 213.786 160.729C213.678 160.467 213.52 160.229 213.32 160.029C213.121 159.828 212.884 159.669 212.623 159.561C212.362 159.452 212.083 159.396 211.8 159.396Z" fill="#3E9AF8"/>
<path fill-rule="evenodd" clip-rule="evenodd" d="M162.384 154.555V169.678H169.773V154.555H162.384ZM173.285 169.678V153.603C173.285 152.181 172.137 151.028 170.721 151.028H161.435C160.019 151.028 158.871 152.181 158.871 153.603V169.678H154.449V168.333C154.449 167.359 153.663 166.57 152.693 166.57C151.723 166.57 150.937 167.359 150.937 168.333V170.631C150.937 172.053 152.085 173.205 153.501 173.205H194.947C195.917 173.205 196.703 172.416 196.703 171.442C196.703 170.468 195.917 169.678 194.947 169.678H173.285Z" fill="#3E9AF8"/>
<path fill-rule="evenodd" clip-rule="evenodd" d="M167.316 113.06L162.77 135.886H174.385L169.314 113.06H167.316ZM177.983 135.886H187.077L183.058 118.736H180.207L177.204 132.377L177.983 135.886ZM175.397 124.244L172.576 111.547C172.315 110.37 171.275 109.533 170.074 109.533H166.538C165.316 109.533 164.264 110.399 164.024 111.602L159.188 135.886H158.609C157.193 135.886 156.045 137.039 156.045 138.46V141.186H153.501C152.085 141.186 150.937 142.339 150.937 143.761V154.225C150.937 155.199 151.723 155.989 152.693 155.989C153.663 155.989 154.449 155.199 154.449 154.225V144.713H157.801L222.262 145.079V146.164C222.262 147.137 223.048 147.927 224.018 147.927C224.988 147.927 225.774 147.137 225.774 146.164V144.132C225.774 142.716 224.635 141.566 223.225 141.558L194.281 141.393V138.46C194.281 137.039 193.133 135.886 191.717 135.886H190.685L186.305 117.194C186.033 116.031 184.999 115.209 183.81 115.209H179.445C178.242 115.209 177.201 116.048 176.942 117.228L175.397 124.244ZM190.768 141.373V139.413H159.557V141.196L190.768 141.373Z" fill="#3E9AF8"/>
<path fill-rule="evenodd" clip-rule="evenodd" d="M190.105 98.9543C191.208 99.4269 192.466 99.2819 193.443 98.5696C194.02 98.1481 194.72 97.9013 195.486 97.9013C197.313 97.9013 198.823 99.3331 199.028 101.175C199.193 102.654 200.209 103.879 201.592 104.266C203.485 104.794 204.874 106.596 204.874 108.725C204.874 111.275 202.887 113.342 200.435 113.342C198.679 113.342 197.155 112.283 196.433 110.73C195.985 109.765 195.15 109.055 194.152 108.79C193.153 108.525 192.094 108.732 191.256 109.355C190.315 110.055 189.167 110.466 187.917 110.466C185.974 110.466 184.255 109.468 183.209 107.921C182.125 106.318 180.014 105.899 178.438 106.972C178.005 107.267 177.491 107.439 176.927 107.439C175.4 107.439 174.161 106.151 174.161 104.562C174.161 102.974 175.4 101.686 176.927 101.686C177.478 101.686 177.981 101.85 178.407 102.131C179.997 103.183 182.102 102.735 183.166 101.117C184.207 99.5336 185.947 98.5068 187.917 98.5068C188.698 98.5068 189.435 98.6671 190.105 98.9543ZM180.282 99.066C181.947 96.5347 184.745 94.8736 187.917 94.8736C189.163 94.8736 190.352 95.1301 191.436 95.5952C192.583 94.7589 193.979 94.2681 195.486 94.2681C199.107 94.2681 202.092 97.1038 202.498 100.757C205.879 101.701 208.368 104.911 208.368 108.725C208.368 113.282 204.816 116.976 200.435 116.976C198.26 116.976 196.29 116.066 194.857 114.592C194.217 113.934 193.684 113.163 193.288 112.311C192.442 112.94 191.49 113.424 190.465 113.73C189.655 113.97 188.8 114.099 187.917 114.099C184.789 114.099 182.024 112.484 180.352 110.012C179.368 110.682 178.191 111.072 176.927 111.072C173.47 111.072 170.668 108.157 170.668 104.562C170.668 100.967 173.47 98.0527 176.927 98.0527C178.161 98.0527 179.312 98.4244 180.282 99.066Z" fill="#3E9AF8"/>
</g>
</g>
<defs>
<clipPath id="clip0_13778_9548">
<rect width="232" height="273" fill="white" transform="matrix(0 1 1 0 0 0)"/>
</clipPath>
<clipPath id="clip1_13778_9548">
<rect width="81" height="81" fill="white" transform="translate(148.796 94.7681)"/>
</clipPath>
</defs>
</svg>
