<svg width="273" height="232" viewBox="0 0 273 232" fill="none" xmlns="http://www.w3.org/2000/svg">
    <g clip-path="url(#clip0_13778_9576)">
        <path fill-rule="evenodd" clip-rule="evenodd" d="M83.462 38.4677V0.884766L84.7905 0.884766V38.4677H83.462Z" fill="#91A3BE"/>
        <path d="M83.4624 38.0838C96.2566 38.0838 108.925 40.6038 120.746 45.4999C132.566 50.396 143.306 57.5723 152.353 66.6192C161.4 75.666 168.576 86.4062 173.472 98.2265C178.368 110.047 180.888 122.716 180.888 135.51H179.561C179.561 122.89 177.075 110.394 172.246 98.7345C167.416 87.0753 160.338 76.4814 151.414 67.5579C142.491 58.6343 131.897 51.5557 120.238 46.7263C108.578 41.8969 96.0822 39.4113 83.4624 39.4113V38.0838Z" fill="#91A3BE"/>
        <path fill-rule="evenodd" clip-rule="evenodd" d="M179.559 135.067L252.186 135.067L252.186 136.395L179.559 136.396L179.559 135.067Z" fill="#91A3BE"/>
        <path d="M262.372 146.138C256.502 146.138 251.743 141.38 251.743 135.51C251.743 129.64 256.502 124.882 262.372 124.882C268.242 124.882 273 129.64 273 135.51C273 141.38 268.242 146.138 262.372 146.138Z" fill="#F4F8FE"/>
        <path fill-rule="evenodd" clip-rule="evenodd" d="M253.072 135.51C253.072 140.646 257.236 144.81 262.372 144.81C267.508 144.81 271.671 140.646 271.671 135.51C271.671 130.374 267.508 126.21 262.372 126.21C257.236 126.21 253.072 130.374 253.072 135.51ZM251.743 135.51C251.743 141.38 256.502 146.138 262.372 146.138C268.242 146.138 273 141.38 273 135.51C273 129.64 268.242 124.882 262.372 124.882C256.502 124.882 251.743 129.64 251.743 135.51Z" fill="#91A3BE"/>
        <rect x="166.053" y="52.9192" width="164.698" height="164.698" rx="82.3489" transform="rotate(90 166.053 52.9192)" stroke="#91A3BE" stroke-width="1.32854"/>
        <g clip-path="url(#clip1_13778_9576)">
            <path d="M123.242 135.04L110.006 121.771C109.709 121.474 109.306 121.307 108.886 121.307H100.755C98.9286 121.307 97.4424 122.792 97.4424 124.619V142.802H92.2316V126.982C92.2316 125.237 90.8121 123.818 89.0675 123.818H82.7394V107.997C82.7394 106.253 81.3199 104.833 79.5753 104.833H63.755C62.0104 104.833 60.5909 106.253 60.5909 107.997V114.958H54.243C53.3692 114.958 52.661 115.666 52.661 116.54C52.661 117.414 53.3692 118.122 54.243 118.122H60.5909V123.818H44.2861C43.4123 123.818 42.7041 124.526 42.7041 125.4C42.7041 126.273 43.4123 126.982 44.2861 126.982H51.079V142.802H44.2861C43.4123 142.802 42.7041 143.51 42.7041 144.384V153.243C42.7041 154.117 43.4123 154.825 44.2861 154.825H50.9764C50.9393 155.137 50.9177 155.453 50.9177 155.775C50.9177 157.554 51.5085 159.198 52.504 160.521H44.2861C43.4123 160.521 42.7041 161.229 42.7041 162.103C42.7041 162.977 43.4123 163.685 44.2861 163.685H71.4841C75.8458 163.685 79.3942 160.136 79.3942 155.775C79.3942 155.453 79.3726 155.137 79.3349 154.825H102.247C102.21 155.137 102.188 155.453 102.188 155.775C102.188 157.554 102.779 159.198 103.775 160.521H88.8203C87.9465 160.521 87.2383 161.229 87.2383 162.103C87.2383 162.977 87.9465 163.685 88.8203 163.685H110.099C114.46 163.685 118.009 160.136 118.009 155.775C118.009 155.453 117.987 155.137 117.95 154.825H120.392C122.218 154.825 123.704 153.34 123.704 151.513V136.157C123.704 135.738 123.538 135.337 123.242 135.04ZM120.54 140.271H112.336L115.254 137.354L118.171 134.436L120.54 136.812V140.271ZM106.935 138.689V134.058L112.37 128.622L115.936 132.196L107.963 140.169C107.363 139.944 106.935 139.366 106.935 138.689ZM110.136 126.382L106.935 129.583V124.471H108.229L110.136 126.382ZM89.0694 142.802H89.0675H73.2472V126.982H76.4113V131.728C76.4113 132.602 77.1195 133.31 77.9933 133.31H84.3214C85.1952 133.31 85.9034 132.602 85.9034 131.728V126.982H89.0675L89.0694 142.802ZM79.5753 126.982H82.7394V130.146H79.5753V126.982ZM73.2274 107.997V111.161H70.0634V107.997H73.2274ZM63.755 107.997H66.8993V112.743C66.8993 113.617 67.6075 114.325 68.4813 114.325H74.8094C75.6827 114.325 76.3915 113.617 76.3915 112.743V107.997H79.5753L79.5772 123.818H79.5753H63.755V107.997ZM63.755 126.982V130.146H60.5909V126.982H63.755ZM54.243 126.982H57.4269V131.728C57.4269 132.602 58.1357 133.31 59.0089 133.31H65.337C66.2109 133.31 66.9191 132.602 66.9191 131.728V126.982H70.0634L70.0652 142.802H70.0634H54.243V126.982ZM54.0817 155.775C54.0817 153.158 56.2107 151.029 58.8278 151.029C61.445 151.029 63.5739 153.158 63.5739 155.775C63.5739 158.392 61.445 160.521 58.8278 160.521C56.2107 160.521 54.0817 158.392 54.0817 155.775ZM65.156 160.515C65.1572 160.517 65.1591 160.519 65.1603 160.521H65.1516C65.1529 160.519 65.1541 160.517 65.156 160.515ZM71.4841 160.521C68.8669 160.521 66.738 158.392 66.738 155.775C66.738 153.158 68.8669 151.029 71.4841 151.029C74.1012 151.029 76.2302 153.158 76.2302 155.775C76.2302 158.392 74.1012 160.521 71.4841 160.521ZM78.238 151.661C76.8469 149.386 74.3398 147.865 71.4841 147.865C68.8991 147.865 66.6002 149.111 65.156 151.034C63.7111 149.111 61.4129 147.865 58.8278 147.865C55.9715 147.865 53.4644 149.386 52.0739 151.661H45.8682V145.966H97.4424V151.661H78.238ZM110.099 160.521C107.481 160.521 105.353 158.392 105.353 155.775C105.353 153.158 107.481 151.029 110.099 151.029C112.716 151.029 114.845 153.158 114.845 155.775C114.845 158.392 112.716 160.521 110.099 160.521ZM120.392 151.661H116.853C115.461 149.386 112.955 147.865 110.099 147.865C107.242 147.865 104.735 149.386 103.345 151.661H100.606V124.619C100.606 124.537 100.673 124.47 100.755 124.47H103.771V138.689C103.771 141.306 105.899 143.435 108.517 143.435H120.54V151.513C120.54 151.595 120.473 151.661 120.392 151.661Z" fill="#305680"/>
            <path d="M82.4922 160.521C82.0763 160.521 81.6678 160.69 81.3736 160.984C81.0795 161.279 80.9102 161.687 80.9102 162.103C80.9102 162.519 81.0795 162.927 81.3736 163.222C81.6678 163.516 82.0763 163.685 82.4922 163.685C82.9081 163.685 83.3166 163.516 83.6107 163.222C83.9049 162.927 84.0742 162.519 84.0742 162.103C84.0742 161.687 83.9049 161.279 83.6107 160.984C83.3166 160.69 82.9081 160.521 82.4922 160.521Z" fill="#305680"/>
            <path d="M47.8081 118.122C48.2246 118.122 48.6325 117.953 48.9267 117.659C49.2208 117.365 49.3901 116.956 49.3901 116.54C49.3901 116.124 49.2214 115.716 48.9267 115.422C48.6325 115.128 48.2246 114.958 47.8081 114.958C47.391 114.958 46.9825 115.128 46.6883 115.422C46.3942 115.716 46.2261 116.124 46.2261 116.54C46.2261 116.956 46.3942 117.365 46.6883 117.659C46.9825 117.953 47.391 118.122 47.8081 118.122Z" fill="#305680"/>
        </g>
    </g>
    <defs>
        <clipPath id="clip0_13778_9576">
            <rect width="232" height="273" fill="white" transform="matrix(0 1 -1 0 273 0)"/>
        </clipPath>
        <clipPath id="clip1_13778_9576">
            <rect width="81" height="81" fill="white" transform="translate(43.2041 94.7681)"/>
        </clipPath>
    </defs>
</svg>
