<svg width="80" height="80" viewBox="0 0 80 80" fill="none" xmlns="http://www.w3.org/2000/svg">
<path d="M29.1589 40H50.5601C55.7736 40 60 35.7736 60 30.5601C60 28.2742 59.0919 26.0819 57.4756 24.4655L54.9533 21.9432C51.1337 18.1237 44.941 18.1237 41.1215 21.9432L37.757 25.3077C35.7956 27.2691 32.6156 27.2691 30.6542 25.3077C28.6928 23.3463 25.5128 23.3464 23.5514 25.3077L22.0804 26.7788C20.7483 28.1108 20 29.9174 20 31.8012V31.9163C20 36.3808 23.6192 40 28.0836 40H29.1589Z" stroke="#305680" stroke-width="3.2"/>
<path d="M39.5 44.5435V49.2517M39.5 49.2517H52.6158V53.5146M39.5 49.2517H26.3841V53.5146M39.5 49.2517V53.5146" stroke="#237DE0" stroke-linecap="round" stroke-linejoin="round"/>
<circle cx="39.5" cy="56.4819" r="1.5046" stroke="#237DE0"/>
<circle cx="52.6158" cy="56.4819" r="1.5046" stroke="#237DE0"/>
<circle cx="26.3842" cy="56.4819" r="1.5046" stroke="#237DE0"/>
</svg>
