<svg width="51" height="60" viewBox="0 0 51 60" fill="none" xmlns="http://www.w3.org/2000/svg">
<g opacity="0.15" clip-path="url(#clip0)">
<path d="M50.0323 19.4594L49.2339 19.446L25.1989 12.3302L25.1846 12.0009V0.00280762L50.034 12.43L50.0323 19.4594Z" fill="#0D2743"/>
<path d="M50.0323 19.4594L49.2339 19.446L25.1989 12.3302L25.1846 12.0009V0.00280762L50.034 12.43L50.0323 19.4594Z" fill="white" fill-opacity="0.3"/>
<path d="M25.1821 12.72L25.1846 0.00280762L0.333379 12.4251L0.330078 47.5703L0.342504 47.5765V47.5769L25.1796 59.9977L25.2621 59.8829L25.23 48.0644L25.1813 47.9986L23.6288 46.8915L4.40736 41.1639L4.50444 18.933L25.1821 12.72Z" fill="#0D2743"/>
<path d="M28.8986 37.9211L3.50488 41.4934L3.50663 18.5021L28.9003 22.0792L28.8986 37.9211Z" fill="#0D2743"/>
<path d="M28.8986 37.9211L3.50488 41.4934L3.50663 18.5021L28.9003 22.0792L28.8986 37.9211Z" fill="white" fill-opacity="0.3"/>
<path d="M16.0299 36.4679L25.1808 37.6328L25.1824 22.361L16.0316 23.5249L16.0299 36.4679ZM6.81152 35.2948L12.7502 36.0497L12.7519 23.9416L6.81152 24.6982V35.2948Z" fill="#0D2743"/>
<path d="M3.50684 18.5021L25.1849 12.001L50.0326 19.4595L28.9162 22.081L3.50684 18.5021Z" fill="#0D2743"/>
<path d="M3.50684 18.5021L25.1849 12.001L50.0326 19.4595L28.9162 22.081L3.50684 18.5021Z" fill="black" fill-opacity="0.3"/>
<path d="M50.02 34.4416L25.1814 37.5762L25.183 22.361L50.02 25.5249V34.4416ZM50.0183 40.5493L49.4838 40.5724L25.2577 47.9057L25.1814 47.9987L25.1797 59.9978L50.0183 47.5813V40.5493Z" fill="#0D2743"/>
<path d="M50.02 34.4416L25.1814 37.5762L25.183 22.361L50.02 25.5249V34.4416ZM50.0183 40.5493L49.4838 40.5724L25.2577 47.9057L25.1814 47.9987L25.1797 59.9978L50.0183 47.5813V40.5493Z" fill="white" fill-opacity="0.3"/>
<path d="M3.50488 41.4934L25.1815 47.9987L50.0183 40.5492L28.8986 37.9211L3.50488 41.4934Z" fill="#0D2743"/>
<path d="M3.50488 41.4934L25.1815 47.9987L50.0183 40.5492L28.8986 37.9211L3.50488 41.4934Z" fill="white" fill-opacity="0.6"/>
</g>
<defs>
<clipPath id="clip0">
<rect width="49.704" height="60" fill="white" transform="translate(0.330078)"/>
</clipPath>
</defs>
</svg>
