<svg width="91" height="60" viewBox="0 0 91 60" fill="none" xmlns="http://www.w3.org/2000/svg" xmlns:xlink="http://www.w3.org/1999/xlink">
<style>
svg .img {
opacity: 0;
transition-duration: 0.5s;
}
svg .img:hover {
opacity: 1;
transition-duration: 0.3s;
}
</style>
<g opacity="0.15">
<path fill-rule="evenodd" clip-rule="evenodd" d="M27.3555 14.231C19.7886 17.141 11.4736 22.2825 1.82324 32.0429C5.53439 30.018 8.62378 27.7295 11.6877 25.4599C19.6447 19.5656 27.4302 13.7984 45.4883 13.1058C59.3588 12.5843 67.7988 17.1916 72.4609 19.7365C74.1512 20.6592 75.3448 21.3108 76.1207 21.3486C85.0083 21.7394 90.5937 13.0348 90.5937 13.0348C90.5937 13.0348 85.0083 19.5366 80.9333 17.9733C84.5867 15.8061 87.3619 10.5477 87.3619 10.5477C87.3619 10.5477 80.2659 17.9733 75.3478 16.8719C79.7741 13.319 81.9521 7.20799 81.9521 7.20799C81.9521 7.20799 76.2963 16.0192 72.7834 16.3745C76.8584 12.715 78.5446 7.56329 78.5446 7.56329C78.5446 7.56329 73.9076 14.456 70.3244 14.9178C75.1722 10.5122 75.3478 7.74093 75.3478 7.74093C75.3478 7.74093 70.6873 13.7873 67.5891 15.0199C67.3301 14.8464 67.0622 14.6769 66.7856 14.5115C66.6081 14.7405 66.426 14.969 66.2396 15.1955C66.1452 15.1722 66.0547 15.1391 65.9684 15.0955C69.1652 11.5781 71.3783 7.06588 71.3783 7.06588C71.3783 7.06588 67.0592 12.9727 64.99 13.5524C64.6816 13.4052 64.3653 13.2623 64.0415 13.1238C64.0757 12.2177 65.9684 9.83715 65.9684 9.83715C65.9684 9.83715 62.561 12.8927 61.6125 12.2176C63.3338 11.1517 66.2495 6 66.2495 6C66.2495 6 62.1071 10.8103 60.018 11.7374C59.778 11.6719 59.5353 11.6083 59.2902 11.5467L61.8935 6.21318C61.8935 6.21318 59.6934 10.7207 56.5821 10.9673C56.2865 10.9144 55.988 10.8642 55.6868 10.8167C55.6764 10.8329 55.6659 10.849 55.6554 10.8652C55.6466 10.8788 55.6377 10.8924 55.6288 10.906C55.5744 10.8946 55.5198 10.8818 55.4649 10.8675C57.1511 8.66469 57.8186 6.63953 57.8186 6.63953C57.8186 6.63953 55.0083 11.2228 51.4954 9.97927C50.6874 9.65951 52.5141 7.56329 52.5141 7.56329C52.5141 7.56329 50.1605 9.87268 48.5446 9.58845C46.9638 9.26869 48.6499 6.31976 48.6499 6.31976C48.6499 6.31976 46.7966 9.23556 45.786 10.2674C45.5468 10.2764 45.3069 10.287 45.0663 10.2991C44.9435 9.48533 45.5235 7.4567 45.5235 7.4567C45.5235 7.4567 44.1976 9.62465 43.0882 10.433L42.9924 10.4412C42.6557 10.4703 42.3206 10.5022 41.9873 10.5368C41.4378 9.82025 42.2151 7.40472 42.2864 7.18803C42.1991 7.44874 41.0263 10.8923 40.1136 10.6188C39.1652 10.3346 38.9895 8.13175 38.9895 8.13175C38.9895 8.13175 38.7884 10.2932 37.9182 11.1095C34.0225 11.8051 30.4445 12.8808 27.3555 14.231ZM15.9081 26.9978C15.7729 25.421 16.1627 23.8589 17.0005 22.3589C19.315 20.8445 21.8051 19.4287 24.6842 18.2134C24.5298 19.0704 24.4453 19.9513 24.4453 20.8512C24.4453 30.0888 32.7006 37.5854 42.8879 37.5854C53.0753 37.5854 61.3657 30.1243 61.3657 20.8512C61.3657 19.168 61.0843 17.5322 60.5689 15.9918C65.6411 17.4407 69.3161 19.4468 71.8633 20.8373L71.8687 20.8402L71.8735 20.8429L71.8852 20.8492C72.0288 20.9276 72.1689 21.0041 72.3054 21.0783C72.3825 21.4118 72.4361 21.7508 72.4655 22.0948C72.559 23.1848 72.4016 24.2678 72.0187 25.3281C72.4049 24.733 72.7653 24.1172 73.0986 23.4803C74.4687 19.7142 80.0541 24.333 80.0541 24.333C80.0541 24.333 78.7656 23.7938 77.6564 23.4607C79.1195 24.1513 80.3705 25.1858 80.3705 25.1858C80.3705 25.1858 77.6293 24.0386 76.7016 24.0573C78.2549 25.1913 82.197 27.0333 82.197 27.0333C82.197 27.0333 80.7273 26.573 79.3643 26.31C80.9229 27.1429 82.5134 27.886 82.5134 27.886C82.5134 27.886 77.9378 26.4529 77.4461 27.1995C78.8469 29.0254 83.9183 33.0733 83.9183 33.0733C83.9183 33.0733 81.6869 31.3563 79.5843 29.9465C81.5825 31.8091 84.2347 33.926 84.2347 33.926C84.2347 33.926 76.8225 28.3124 76.2253 29.094C76.2177 29.1035 76.2107 29.1132 76.2044 29.1233C76.9909 30.3229 79.1057 32.0784 79.1057 32.0784C79.1057 32.0784 78.3517 31.6062 77.2776 31.0399C78.1989 32.0187 79.3518 32.9667 79.3518 32.9667C79.3518 32.9667 73.1691 29.094 70.9911 30.231C70.9284 30.2634 70.8808 30.3029 70.8472 30.3488C71.5789 31.3489 73.4714 32.8274 74.9971 33.9362C74.1449 33.3936 73.1769 32.8434 72.3568 32.5471C73.219 33.3141 74.3011 34.1397 75.2433 34.8244C73.6645 33.8193 71.6888 32.7883 70.9911 33.3931C70.8826 33.4872 70.8389 33.64 70.8496 33.8404C71.982 36.5592 76.6115 42.1687 76.6115 42.1687C76.6115 42.1687 75.4835 40.9332 74.0298 39.4099C75.471 41.3768 76.8577 43.057 76.8577 43.057C76.8577 43.057 68.778 34.2458 67.9701 34.6721C67.8958 34.7113 67.8538 34.7827 67.839 34.88C68.4211 36.2675 69.9722 38.4382 69.9722 38.4382C69.9722 38.4382 69.5084 37.9321 68.8536 37.2938C69.4879 38.3534 70.1832 39.3265 70.1832 39.3265C70.1832 39.3265 66.2488 34.9208 65.1598 35.6669C64.9958 35.7846 65.0102 36.1431 65.153 36.6672C66.4539 40.1012 70.5342 47.0007 70.5342 47.0007C70.5342 47.0007 70.0296 46.1949 69.2306 45.0411C70.1476 46.6708 70.8506 47.8535 70.8506 47.8535C70.8506 47.8535 63.6507 36.3905 60.5428 38.0653C61.6454 40.5801 62.355 42.5441 62.8005 44.0745C64.4771 49.2805 63.4385 50.1629 63.4385 50.1629C63.4385 50.1629 63.414 49.7214 63.3256 49.0196C63.2421 49.2394 63.1572 49.3101 63.1572 49.3101C63.1572 49.3101 63.0266 46.9565 62.2807 44.4792C61.3658 41.9433 59.7474 39.5456 56.9045 39.6817C55.6398 39.7419 55.6985 41.1916 56.1864 42.8429C56.9106 44.8508 58.0284 46.8586 58.0284 46.8586C58.0284 46.8586 57.7147 46.2965 57.2037 45.49C57.7737 46.7487 58.3096 47.7113 58.3096 47.7113C58.3096 47.7113 54.4356 40.7948 51.7348 40.6415C52.9007 42.987 53.6459 44.9659 54.1109 46.6089C55.7673 51.8031 54.7616 54 54.7616 54C54.7616 54 54.8336 53.275 54.7562 52.1379C54.6677 52.8502 54.5155 53.1828 54.5155 53.1828C54.5155 53.1828 54.7369 50.9532 53.9854 48.1811C53.2477 45.9606 51.8545 43.5116 49.2478 41.6224C49.287 41.7552 49.32 41.8948 49.347 42.0406C50.7897 45.2307 47.2441 54 47.2441 54C47.2441 54 47.5703 52.6389 47.8582 50.8079C47.3888 52.2161 46.9979 53.1828 46.9979 53.1828C46.9979 53.1828 48.6267 46.3876 47.8165 42.7387C47.3034 41.4563 46.3092 40.8603 44.5392 41.6714C43.5204 42.1333 44.4689 49.2746 44.4689 49.2746C44.4689 49.2746 44.331 48.3834 44.0766 47.205C44.1558 47.9536 44.2227 48.4574 44.2227 48.4574C44.2227 48.4574 43.904 46.398 43.3422 44.4008C42.8062 42.7442 42.1006 41.3465 41.2722 41.5293C40.1481 41.778 34.1762 52.8631 34.1762 52.8631C34.1762 52.8631 34.9684 50.9205 35.8182 48.6327C34.7394 50.5436 33.93 52.0459 33.93 52.0459C33.93 52.0459 37.1986 44.031 37.5792 41.3886C36.4892 41.7558 34.4572 46.681 34.4572 46.681C34.4572 46.681 34.6609 45.6727 34.7902 44.5471C34.4421 45.3037 34.211 45.8638 34.211 45.8638C34.211 45.8638 34.7631 43.1321 34.6265 41.642C34.578 41.5864 34.5218 41.5479 34.4572 41.5293C33.4736 41.245 27.9232 46.681 27.9232 46.681C27.9232 46.681 29.4022 44.9294 30.4341 43.3053C28.9794 44.5883 27.6771 45.8638 27.6771 45.8638C27.6771 45.8638 30.8065 42.1577 31.1372 40.5287C30.0962 39.2494 28.9234 39.2198 27.5017 39.7883C25.3237 40.641 22.408 44.6558 22.408 44.6558C22.408 44.6558 23.734 42.7977 24.4467 41.13C23.1717 42.4481 22.1619 43.8386 22.1619 43.8386C22.1619 43.8386 24.538 40.5088 24.6384 38.7633C23.1458 37.3769 15.6281 43.8031 15.6281 43.8031C15.6281 43.8031 17.497 42.0202 18.6783 40.4059C16.8839 41.7021 15.382 42.9859 15.382 42.9859C15.382 42.9859 18.9026 39.6272 19.3339 37.9557C18.1583 37.2084 13.8048 37.2818 11.372 37.3228H11.372C10.923 37.3304 10.5395 37.3368 10.2534 37.3368C4.5977 37.4079 2.63049 36.0578 0.90918 34.6721C2.14404 35.2966 3.36152 35.6983 4.5725 35.9452C2.69205 35.4293 1.60029 34.6304 0.592773 33.8194C4.61692 35.8544 8.45644 35.5242 12.4882 35.1774C15.9179 34.8825 19.4866 34.5756 23.4265 35.7024C23.5145 35.7273 23.6028 35.7523 23.6914 35.7773C23.8993 35.8362 24.1087 35.8954 24.3196 35.9549C19.3948 33.8432 16.2267 30.7119 15.9081 26.9978ZM77.4197 36.342C77.4197 36.342 76.4469 35.5907 75.2433 34.8244C76.4453 35.6979 77.4197 36.342 77.4197 36.342ZM74.9971 33.9362C76.1991 34.8097 77.1736 35.4537 77.1736 35.4537C77.1736 35.4537 76.2007 34.7025 74.9971 33.9362ZM28.1195 18.0376C28.177 17.609 28.2777 17.2082 28.4164 16.833C29.5933 16.4562 30.8333 16.1115 32.1467 15.8038C32.4772 17.5384 33.1624 19.191 34.0705 20.5314C34.0217 20.7123 33.9504 20.8475 33.8809 20.9792L33.8569 21.0248L33.8596 21.0288C33.8245 21.1591 33.7855 21.2893 33.7465 21.4196L33.7464 21.4196L33.7464 21.4196L33.7464 21.4196L33.7464 21.4197C33.6901 21.6078 33.6337 21.7958 33.5891 21.9839C33.3778 23.2999 33.4231 24.9138 33.5787 26.1095C33.4911 26.1538 33.4073 26.1993 33.3274 26.2461L33.3327 26.2872C32.8954 26.5083 32.5398 26.8808 32.3335 27.3363C32.3119 27.3988 32.2937 27.4636 32.2789 27.5307C31.9979 28.7032 33.2274 29.698 34.4218 29.698C34.4745 29.698 34.5272 29.6891 34.5799 29.6802C34.6326 29.6713 34.6853 29.6625 34.7379 29.6625C34.8924 29.9651 35.0495 30.316 35.2143 30.6842L35.2144 30.6844L35.2144 30.6844L35.2144 30.6845C35.5778 31.4962 35.9788 32.392 36.4721 33.0405C36.5712 33.1476 36.6723 33.2533 36.7753 33.3575C36.7753 33.3752 36.7753 33.3841 36.771 33.3885L36.7754 33.393V33.4286C36.3477 33.2356 35.9314 33.0177 35.5275 32.7768C30.987 30.1983 27.9229 25.264 27.9229 19.6077C27.9229 19.0427 27.9915 18.5205 28.1195 18.0376ZM34.3165 19.8565C33.4228 18.6261 32.7396 17.236 32.3289 15.7615C34.2902 15.3095 36.4145 14.9397 38.7358 14.6682C38.4615 14.8466 38.1943 15.0366 37.9348 15.2377C37.7592 15.1666 37.5484 15.1311 37.3376 15.1311C36.6882 15.1311 36.1156 15.5197 35.8613 16.0957C35.864 16.2797 36.0025 16.8738 36.0721 17.0497C35.9785 17.1666 35.8849 17.2756 35.792 17.38C35.2106 18.1477 34.7298 18.9509 34.3165 19.8565ZM38.6365 15.6285C39.1364 15.2214 39.6808 14.8458 40.2582 14.5072C41.7241 14.368 43.2657 14.2666 44.8907 14.2066C48.8089 14.0593 52.2938 14.3212 55.3826 14.8303C55.1707 15.8413 54.8237 16.8179 54.3751 17.7603C54.2346 17.7247 54.1292 17.7248 54.0238 17.7248C53.3786 17.7248 52.823 18.1553 52.6253 18.7449C52.6647 19.1281 52.852 19.7421 53.0394 19.9631C52.993 20.0231 52.9459 20.0816 52.898 20.1387L52.8997 20.1407C52.8435 20.2129 52.7867 20.2844 52.7294 20.3553L49.2169 21.6283L49.1967 21.5897L49.1818 21.5618L51.9517 17.6536L48.1256 20.2219C48.0953 20.1947 48.0647 20.168 48.0337 20.1416L49.3521 15.6284L46.7521 19.3509C46.7164 19.3358 46.6805 19.3212 46.6444 19.307L46.5769 14.598L44.7853 18.9681L43.3099 14.5625L43.3727 19.2006C43.2894 19.2274 43.207 19.2565 43.1256 19.2877L40.8158 15.0954L42.1522 19.7925C42.1069 19.8228 42.0622 19.8539 42.0179 19.8857L38.6701 17.4386C38.851 17.2645 38.9526 17.0043 38.9526 16.6233C38.9526 16.4421 38.822 16.1099 38.724 15.8605C38.6875 15.7677 38.6555 15.6863 38.6365 15.6285ZM55.6243 15.0058C55.6325 14.9618 55.6402 14.9181 55.6474 14.8748C55.9309 14.9231 56.2109 14.9735 56.4876 15.0259C57.3756 16.0305 57.9235 17.2976 57.9235 18.8971C57.9235 19.5955 57.8607 20.328 57.7467 21.0678C57.541 23.1918 56.8941 25.1952 55.9202 26.9624C55.8875 26.9349 55.8546 26.9076 55.8216 26.8805L55.8157 26.8912C55.6191 26.7225 55.4156 26.5612 55.2059 26.4074C53.7058 25.3297 51.9714 24.6082 50.1591 24.3332L50.195 24.3101C50.1039 24.2935 50.0126 24.2779 49.921 24.2631L54.1648 23.2317L51.3549 23.0786C52.3375 22.1345 53.2694 20.9781 53.8837 19.9985C53.9539 20.034 54.0593 20.034 54.1296 20.034C54.7853 20.034 55.3985 19.6257 55.4569 19.1099C55.4222 18.7395 55.2523 18.4033 54.9717 18.1511L54.983 18.1191C54.9198 18.0506 54.8472 17.979 54.7619 17.9023C54.8234 17.7089 54.8954 17.4953 54.972 17.2687L54.9723 17.2677L54.9723 17.2677L54.9723 17.2676C55.1905 16.6214 55.4445 15.8689 55.5909 15.1734C55.5957 15.1121 55.6001 15.0506 55.604 14.989L55.6243 15.0058ZM49.6731 22.9257L52.1268 21.0527C51.4422 21.7937 50.6862 22.4456 49.8471 22.9965L49.6851 22.9877C49.6812 22.967 49.6772 22.9463 49.6731 22.9257ZM39.797 32.8601L41.0952 27.9286C39.7145 29.3095 38.5087 31.2546 37.8644 33.0022C37.9062 33.0486 37.9464 33.0941 37.9856 33.1387L37.9697 33.1798C38.321 33.5706 38.7074 33.9259 39.0938 34.2812L39.0938 34.2812C40.2882 34.601 41.5528 34.7787 42.8526 34.7787C47.7789 34.7787 52.1761 32.3553 54.9022 28.6046C55.1624 28.2723 55.4085 27.926 55.6396 27.5662C54.8058 26.9824 53.9135 26.4134 52.9894 25.9505L49.5278 25.6832L52.9704 29.094L48.4739 27.3176L51.1086 31.4034L47.0336 28.2058L48.3685 33.1088L46.1202 28.8098L45.769 33.855L44.2584 28.8453L42.502 33.6418L42.9235 28.3834L39.797 32.8601ZM39.4924 24.0171L39.9372 23.92C39.9375 23.8588 39.9389 23.7978 39.9413 23.737L37.9624 23.2268C38.453 23.5301 38.9641 23.7959 39.4924 24.0171ZM40.9057 20.9871C40.9514 20.9249 40.9985 20.8638 41.047 20.8039L38.5012 17.5646C38.245 17.7126 37.8926 17.7603 37.4772 17.7603C37.2664 17.7603 37.0908 17.7247 36.88 17.6537C36.2828 18.4709 35.51 20.0697 35.1587 21.0645C35.4787 21.3506 35.7909 21.5983 36.1008 21.8176C36.3183 22.0152 36.5421 22.2057 36.7716 22.3882L40.1834 22.2724L36.1085 19.2169L40.9057 20.9871ZM35.0547 21.6684C35.2952 21.9295 35.5466 22.1806 35.808 22.4209L34.9492 22.45L36.2102 22.7751C36.884 23.3437 37.6181 23.8419 38.4026 24.2548L34.9492 25.0081L40.2537 25.399L36.4266 27.8677C36.271 26.9733 35.5684 26.2661 34.7024 26.1097C34.5618 24.9372 34.597 23.6937 34.878 22.4857C34.878 22.4679 34.8868 22.4413 34.8956 22.4146L34.9009 22.3983L34.904 22.3883C34.9365 22.1951 34.975 22.0023 35.0196 21.8105C35.0196 21.7927 35.0284 21.7661 35.0372 21.7394C35.0459 21.7128 35.0547 21.6862 35.0547 21.6684ZM40.3942 26.607L36.4494 28.0384C36.4548 28.0961 36.4579 28.1544 36.4586 28.2132C36.2646 28.7132 35.9073 29.2265 35.6168 29.5203C35.667 29.6304 35.7157 29.7344 35.7635 29.8334L35.7562 29.8403C36.1075 30.6574 36.5993 31.4391 37.1262 32.1497C37.4169 31.3378 37.7893 30.5646 38.2392 29.8408L37.1975 30.6928L40.3942 26.607Z" fill="#0D2743"/>
</g>
<a xlink:href="https://cassandra.apache.org/" target="_blank" xlink:title="Apache Cassandra" xlink:alt="Apache Cassandra">
<g class="img">
<rect width="91" height="60" fill="white" opacity="0"/>
<path d="M72.4655 22.0948C73.133 29.8757 61.0135 37.3013 45.3812 38.6514C29.7489 40.0015 16.5756 34.7787 15.9081 26.9978C15.2407 19.2169 27.3601 11.7913 42.9924 10.4412C58.5896 9.09106 71.7981 14.2783 72.4655 22.0948" fill="#BBE6FB"/>
<path d="M43.4149 11.3293C37.443 11.2227 30.4875 13.6387 25.2884 15.8771C24.7615 17.4404 24.4453 19.1102 24.4453 20.8512C24.4453 30.0888 32.7006 37.5854 42.8879 37.5854C53.0753 37.5854 61.3657 30.1243 61.3657 20.8512C61.3657 17.9378 60.5226 15.1665 59.0823 12.786C54.9371 12.1465 49.2111 11.4359 43.4149 11.3293" fill="white"/>
<path d="M42.923 11.3294C39.6209 11.1162 33.93 12.8572 29.1876 14.5981C28.4499 16.3035 28.0635 18.1866 28.0635 20.1762C28.0635 28.2769 35.3352 34.8498 42.9932 34.8498C50.6162 34.8498 57.361 28.2769 57.923 20.1762C58.0987 17.547 57.2204 15.06 55.9558 12.9282C51.0729 12.0755 45.8738 11.5426 42.923 11.3294" fill="white"/>
<path d="M34.4561 19.1459C34.8777 18.2222 35.4749 17.7958 36.0721 17.0497C36.0018 16.872 35.8613 16.268 35.8613 16.0904C35.8613 15.1666 36.599 14.456 37.4772 14.456C37.688 14.456 37.8988 14.4916 38.0744 14.5626C40.7793 12.4664 44.3274 11.5782 47.9105 12.3953C48.2267 12.4664 48.5428 12.573 48.859 12.644C45.3461 12.1466 41.3414 13.4257 38.6365 15.6285C38.7067 15.8417 38.9526 16.3746 38.9526 16.6233C38.9526 17.5471 38.3554 17.7603 37.4772 17.7603C37.2664 17.7603 37.0908 17.7247 36.88 17.6537C36.2828 18.4709 35.51 20.0697 35.1587 21.0645C36.6693 22.4146 38.0042 22.912 39.7606 23.5871C39.7606 23.516 39.8309 23.4094 39.8309 23.3384C39.8309 20.6026 42.2196 18.3643 44.9246 18.3643C47.3485 18.3643 49.3859 20.1407 49.7724 22.4857C51.0019 21.704 52.1611 21.1 53.0394 19.9631C52.8286 19.7144 52.6178 18.9683 52.6178 18.613C52.6178 17.7958 53.2853 17.1207 54.0932 17.1207C54.1986 17.1207 54.304 17.1207 54.4445 17.1563C54.9012 16.197 55.2525 15.2022 55.4633 14.1718C51.2126 10.9742 42.9925 11.436 42.9925 11.436C42.9925 11.436 36.4585 11.0808 32.0322 13.2836C32.3484 15.3443 33.1915 17.405 34.4561 19.1459" fill="#373535"/>
<path d="M54.7619 17.9023C55.078 18.1865 55.2186 18.3997 55.3591 18.6484C55.7455 19.359 54.9727 20.034 54.1296 20.034C54.0593 20.034 53.9539 20.034 53.8837 19.9985C52.9703 21.4552 51.3544 23.3027 49.9141 24.262C52.1272 24.6173 54.1998 25.5055 55.8157 26.8912C57.0101 24.7239 57.9235 21.5618 57.9235 18.8971C57.9235 16.8719 57.0452 15.3797 55.7104 14.2783C55.6752 15.3797 55.078 16.9075 54.7619 17.9023ZM36.9165 31.6876C37.6542 29.6269 39.4458 28.0636 41.1671 26.678C40.9212 26.3227 40.5348 25.47 40.3943 25.0792C38.3217 24.4397 36.495 23.2317 35.0547 21.6684C35.0547 21.7039 35.0196 21.775 35.0196 21.8105C34.7386 23.0185 34.7034 24.262 34.844 25.4345C35.8276 25.6121 36.6004 26.5004 36.6004 27.5662C36.6004 28.2058 36.0383 29.094 35.6168 29.5203C36.0383 30.4441 36.3545 30.9415 36.9165 31.6876" fill="#373535"/>
<path d="M36.7754 33.393C35.8972 32.5048 35.3 30.7639 34.7379 29.6625C34.6326 29.6625 34.5272 29.698 34.4218 29.698C33.2274 29.698 31.9979 28.7032 32.2789 27.5307C32.4194 26.8912 32.8761 26.4648 33.5787 26.1095C33.4031 24.7594 33.3679 22.8764 33.6841 21.4907C33.7543 21.0999 33.9651 20.9223 34.0705 20.5314C32.7707 18.6128 31.9276 16.0547 31.9276 13.5322V13.2479C29.7145 14.3849 28.0635 16.1258 28.0635 18.8971C28.0635 25.0436 31.5764 31.0836 36.7754 33.4286V33.393V33.393ZM49.5974 24.9015C48.93 26.8201 47.1033 28.2413 44.9604 28.2413C43.8012 28.2413 42.7473 27.8505 41.9394 27.1754C40.218 28.5255 38.6372 30.906 37.8644 33.0022C38.2157 33.393 38.4616 33.7128 38.8831 34.0681C40.0775 34.3879 41.7637 34.0681 43.0635 34.0681C48.2977 34.0681 52.9698 31.7232 55.6396 27.5662C53.8129 26.2872 51.7052 25.0792 49.5974 24.9015" fill="#373535"/>
<path d="M34.3165 19.8565C34.7381 18.9327 35.2299 18.1156 35.8271 17.3339C35.7568 17.1563 35.7217 16.9431 35.7217 16.7655C35.7217 15.8417 36.4594 15.1311 37.3376 15.1311C37.5484 15.1311 37.7592 15.1666 37.9348 15.2377C40.6397 13.1415 44.1877 12.2532 47.7709 13.0704C48.087 13.1415 48.4032 13.248 48.7194 13.3191C45.2065 12.8217 41.5531 13.9231 38.8482 16.1259C38.9184 16.3391 38.9887 16.5523 38.9887 16.7655C38.9887 17.6892 38.251 18.3998 37.3727 18.3998C37.162 18.3998 36.9863 18.3643 36.7755 18.2932C36.1784 19.1104 35.6514 20.0342 35.3001 21.029C36.5999 22.4146 38.1807 23.5516 39.9371 24.1911V23.9424C39.9371 21.2066 42.1503 18.9683 44.8552 18.9683C47.2791 18.9683 49.3166 20.7447 49.703 23.0897C50.9325 22.308 51.9864 21.3132 52.8997 20.1407C52.6889 19.892 52.5484 19.5723 52.5484 19.217C52.5484 18.3998 53.2159 17.7248 54.0238 17.7248C54.1292 17.7248 54.2346 17.7247 54.3751 17.7603C54.8318 16.801 55.1831 15.8062 55.3939 14.7758C51.1433 11.5782 42.9231 12.04 42.9231 12.04C42.9231 12.04 36.3891 11.6848 31.9629 13.8876C32.2088 16.0549 33.0519 18.1156 34.3165 19.8565" fill="#1287B1"/>
<path d="M54.9717 18.1511C55.2879 18.4354 55.4635 18.8262 55.4635 19.2525C55.4635 20.0697 54.7961 20.7448 53.9881 20.7448C53.9179 20.7448 53.8125 20.7448 53.7422 20.7092C52.8289 22.1659 51.5993 23.4095 50.1591 24.3332C52.2668 24.653 54.2691 25.5767 55.9202 26.9624C57.1146 24.7951 57.8172 22.2725 57.8172 19.6078C57.8172 17.5827 56.9389 16.0904 55.604 14.989C55.5338 16.0904 55.323 17.1563 54.9717 18.1511V18.1511ZM37.1262 32.1497C37.864 30.089 39.1286 28.277 40.8499 26.8913C40.604 26.536 40.3932 26.1807 40.2527 25.7544C38.1801 25.1149 36.3534 23.9069 34.9131 22.3436C34.9131 22.3791 34.878 22.4502 34.878 22.4857C34.597 23.6937 34.5618 24.9372 34.7023 26.1097C35.686 26.2873 36.4588 27.1756 36.4588 28.2414C36.4588 28.881 36.1778 29.4494 35.7562 29.8403C36.1075 30.6574 36.5993 31.4391 37.1262 32.1497Z" fill="#1287B1"/>
<path d="M36.7753 33.3575C35.8971 32.4693 35.1594 31.4744 34.5973 30.373C34.4919 30.373 34.3866 30.4086 34.2812 30.4086C33.0868 30.4086 32.1383 29.4493 32.1383 28.2413C32.1383 27.3886 32.6301 26.6424 33.3327 26.2872C33.157 24.937 33.2273 23.5869 33.5435 22.2013C33.6137 21.8105 33.7542 21.4196 33.8596 21.0288C32.5599 19.1102 31.787 16.7653 31.787 14.2427V13.9585C29.5739 15.0954 27.9229 16.8364 27.9229 19.6077C27.9229 25.7542 31.5411 31.0481 36.7402 33.393C36.7753 33.393 36.7753 33.393 36.7753 33.3575V33.3575ZM49.4568 25.6121C48.7894 27.5307 46.9627 28.9519 44.8198 28.9519C43.6606 28.9519 42.6067 28.561 41.7987 27.886C40.0774 29.2361 38.7777 31.0836 37.9697 33.1798C38.321 33.5707 38.7074 33.926 39.0938 34.2812C40.2882 34.601 41.5528 34.7787 42.8526 34.7787C48.0868 34.7787 52.7238 32.0429 55.3936 27.886C53.6371 26.6069 51.5645 25.7897 49.4568 25.6121" fill="#1287B1"/>
<path d="M49.6332 24.3331L54.1648 23.2317L49.598 22.983L53.3217 20.1406L49.1062 21.6684L51.9517 17.6536L47.9821 20.3183L49.3521 15.6284L46.6472 19.5011L46.5769 14.598L44.7853 18.9681L43.3099 14.5625L43.3802 19.7498L40.8158 15.0954L42.2209 20.034L38.0406 16.9785L41.3076 21.1354L36.1085 19.2169L40.1834 22.2724L34.9492 22.45L40.324 23.8357L34.9492 25.0081L40.2537 25.399L35.7923 28.2768L40.3942 26.607L37.1975 30.6928L41.2373 27.3886L39.797 32.8601L42.9235 28.3834L42.502 33.6418L44.2584 28.8453L45.769 33.855L46.1202 28.8098L48.3685 33.1088L47.0336 28.2058L51.1086 31.4034L48.4739 27.3176L52.9704 29.094L49.5278 25.6832L54.1297 26.0385L49.6332 24.3331V24.3331Z" fill="white"/>
<path d="M1.26074 33.1082C15.3474 18.8609 26.5886 14.4553 36.8111 12.4657C38.146 12.2169 38.427 9.19696 38.427 9.19696C38.427 9.19696 38.6027 11.3998 39.5511 11.684C40.4996 11.9682 41.7291 8.23767 41.7291 8.23767C41.7291 8.23767 40.605 11.5774 41.7291 11.7906C42.8532 11.9682 44.961 8.5219 44.961 8.5219C44.961 8.5219 44.1179 11.4708 44.6799 11.684C45.242 11.8617 48.0874 7.38496 48.0874 7.38496C48.0874 7.38496 46.4013 10.3339 47.982 10.6537C49.598 10.9379 51.9516 8.62849 51.9516 8.62849C51.9516 8.62849 50.1249 10.7247 50.9329 11.0445C54.4457 12.288 57.2561 7.70473 57.2561 7.70473C57.2561 7.70473 56.5886 9.7299 54.9024 11.9327C58.5909 12.892 61.331 7.27837 61.331 7.27837L58.5909 12.892C59.9961 13.6026 65.6518 6.99414 65.6518 6.99414C65.6518 6.99414 62.7361 12.1459 61.0148 13.2118C61.9633 13.9934 65.3708 10.9024 65.3708 10.9024C65.3708 10.9024 62.6308 14.3487 63.6846 14.5263C65.1952 15.7699 70.7806 8.13108 70.7806 8.13108C70.7806 8.13108 68.6027 12.6433 65.4059 16.1607C68.0757 17.5463 74.7502 8.84166 74.7502 8.84166C74.7502 8.84166 74.5746 11.6129 69.7268 16.0186C73.3099 15.5567 77.9469 8.66402 77.9469 8.66402C77.9469 8.66402 76.2607 13.8158 72.1858 17.4753C75.6987 17.12 81.3544 8.30872 81.3544 8.30872C81.3544 8.30872 79.1764 14.4198 74.7502 17.9727C79.6682 19.0741 86.7642 11.6485 86.7642 11.6485C86.7642 11.6485 83.9891 16.9068 80.3357 19.0741C84.4106 20.6374 89.9961 14.1355 89.9961 14.1355C89.9961 14.1355 84.4106 22.8402 75.523 22.4494C72.6073 22.3073 63.79 13.496 44.8907 14.2066C19.879 15.1303 14.6097 25.8602 1.26074 33.1082Z" fill="#373535" fill-opacity="0.35"/>
<path d="M1.82324 32.0429C15.9099 17.7957 27.1511 13.3901 37.3736 11.4004C38.7085 11.1517 38.9895 8.13175 38.9895 8.13175C38.9895 8.13175 39.1652 10.3346 40.1136 10.6188C41.0621 10.903 42.2916 7.17246 42.2916 7.17246C42.2916 7.17246 41.1675 10.5122 42.2916 10.7254C43.4157 10.903 45.5235 7.4567 45.5235 7.4567C45.5235 7.4567 44.6804 10.4056 45.2424 10.6188C45.8045 10.7964 48.6499 6.31976 48.6499 6.31976C48.6499 6.31976 46.9638 9.26869 48.5446 9.58845C50.1605 9.87268 52.5141 7.56329 52.5141 7.56329C52.5141 7.56329 50.6874 9.65951 51.4954 9.97927C55.0083 11.2228 57.8186 6.63953 57.8186 6.63953C57.8186 6.63953 57.1511 8.66469 55.4649 10.8675C59.1535 11.8268 61.8935 6.21318 61.8935 6.21318L59.1535 11.8268C60.5586 12.6084 66.2495 6 66.2495 6C66.2495 6 63.3338 11.1517 61.6125 12.2176C62.561 12.8927 65.9684 9.83715 65.9684 9.83715C65.9684 9.83715 63.2284 13.2835 64.2823 13.4611C65.7928 14.7047 71.3783 7.06588 71.3783 7.06588C71.3783 7.06588 69.1652 11.5781 65.9684 15.0955C68.6382 16.4456 75.3478 7.74093 75.3478 7.74093C75.3478 7.74093 75.1722 10.5122 70.3244 14.9178C73.9076 14.456 78.5446 7.56329 78.5446 7.56329C78.5446 7.56329 76.8584 12.715 72.7834 16.3745C76.2963 16.0192 81.9521 7.20799 81.9521 7.20799C81.9521 7.20799 79.7741 13.319 75.3478 16.8719C80.2659 17.9733 87.3619 10.5477 87.3619 10.5477C87.3619 10.5477 84.5867 15.8061 80.9333 17.9733C85.0083 19.5366 90.5937 13.0348 90.5937 13.0348C90.5937 13.0348 85.0083 21.7394 76.1207 21.3486C73.205 21.2065 64.3876 12.3953 45.4883 13.1058C20.4766 14.0651 15.1722 24.7594 1.82324 32.0429Z" fill="#373535"/>
<path d="M0.90918 34.6721C8.35649 38.4382 15.1715 34.1037 23.7429 36.5552C30.2769 38.4027 38.216 40.7121 49.0005 39.1133C59.7851 37.55 68.9888 32.7891 73.415 24.3331C74.7851 20.567 80.3705 25.1858 80.3705 25.1858C80.3705 25.1858 76.2956 23.4804 76.401 24.2621C76.5064 25.0792 82.5134 27.886 82.5134 27.886C82.5134 27.886 77.0684 26.1806 77.4197 27.4597C77.7359 28.7387 84.2347 33.926 84.2347 33.926C84.2347 33.926 76.8225 28.3124 76.2253 29.094C75.593 29.8757 79.3518 32.9667 79.3518 32.9667C79.3518 32.9667 73.1691 29.094 70.9911 30.231C69.4103 31.0481 77.4197 36.342 77.4197 36.342C77.4197 36.342 72.2207 32.3272 70.9911 33.3931C69.7616 34.459 76.8577 43.057 76.8577 43.057C76.8577 43.057 68.778 34.2458 67.9701 34.6721C67.1621 35.0985 70.1832 39.3265 70.1832 39.3265C70.1832 39.3265 66.2488 34.9208 65.1598 35.6669C64.0708 36.4486 70.8506 47.8535 70.8506 47.8535C70.8506 47.8535 63.5087 36.1644 60.4525 38.1185C65.1949 48.6706 63.4385 50.1629 63.4385 50.1629C63.4385 50.1629 62.8413 39.3975 56.9045 39.6817C53.9185 39.8239 58.3096 47.7114 58.3096 47.7114C58.3096 47.7114 54.2698 40.4989 51.5649 40.641C56.5181 50.1629 54.7616 54 54.7616 54C54.7616 54 55.5696 45.8638 48.86 41.3516C51.4244 43.661 47.2441 54 47.2441 54C47.2441 54 50.8975 38.758 44.5392 41.6714C43.5204 42.1333 44.4689 49.2746 44.4689 49.2746C44.4689 49.2746 43.2043 41.1029 41.2722 41.5293C40.1481 41.778 34.1762 52.8631 34.1762 52.8631C34.1762 52.8631 39.0591 40.8897 37.5837 41.3872C36.4947 41.7424 34.4572 46.681 34.4572 46.681C34.4572 46.681 35.4408 41.8135 34.4572 41.5293C33.4736 41.245 27.9232 46.681 27.9232 46.681C27.9232 46.681 32.0333 41.8135 31.3307 40.7832C30.2417 39.2554 29.0122 39.1843 27.5017 39.7883C25.3237 40.641 22.408 44.6558 22.408 44.6558C22.408 44.6558 25.3237 40.57 24.8319 39.0778C24.0239 36.6262 15.6281 43.8031 15.6281 43.8031C15.6281 43.8031 20.5813 39.0778 19.4572 38.0474C18.3331 37.0526 12.1504 37.3368 10.2534 37.3368C4.5977 37.4079 2.63049 36.0578 0.90918 34.6721" fill="#373535" fill-opacity="0.35"/>
<path d="M0.592773 33.8194C8.04008 37.5855 14.8551 33.2509 23.4265 35.7024C29.9605 37.5499 37.8996 39.8593 48.6841 38.2605C59.4687 36.6972 68.6724 31.9363 73.0986 23.4803C74.4687 19.7142 80.0541 24.333 80.0541 24.333C80.0541 24.333 75.9792 22.6276 76.0846 23.4093C76.19 24.2265 82.197 27.0333 82.197 27.0333C82.197 27.0333 76.752 25.3279 77.1033 26.6069C77.4195 27.886 83.9183 33.0733 83.9183 33.0733C83.9183 33.0733 76.5764 27.4241 75.9792 28.2057C75.382 28.9874 79.1057 32.0784 79.1057 32.0784C79.1057 32.0784 72.923 28.2057 70.745 29.3427C69.1642 30.1599 77.1736 35.4537 77.1736 35.4537C77.1736 35.4537 71.9745 31.4389 70.745 32.5048C69.5155 33.5707 76.6115 42.1687 76.6115 42.1687C76.6115 42.1687 68.567 33.3575 67.7591 33.7838C66.9511 34.2102 69.9722 38.4382 69.9722 38.4382C69.9722 38.4382 65.9675 34.0681 64.8785 34.8142C63.7895 35.5958 70.5342 47.0007 70.5342 47.0007C70.5342 47.0007 63.1923 35.2761 60.1712 37.2302C64.9487 47.8179 63.1572 49.3101 63.1572 49.3101C63.1572 49.3101 62.56 38.5448 56.6232 38.829C53.6373 38.9711 58.0284 46.8586 58.0284 46.8586C58.0284 46.8586 54.0237 39.6817 51.3188 39.8238C56.2719 49.3457 54.5155 53.1828 54.5155 53.1828C54.5155 53.1828 55.3235 45.0466 48.6139 40.5344C51.1783 42.8438 46.9979 53.1828 46.9979 53.1828C46.9979 53.1828 50.6513 37.9408 44.293 40.8542C43.2743 41.316 44.2227 48.4574 44.2227 48.4574C44.2227 48.4574 42.9581 40.2857 41.026 40.712C39.9019 40.9608 33.93 52.0459 33.93 52.0459C33.93 52.0459 38.8129 40.0725 37.3375 40.5699C36.2485 40.9252 34.211 45.8638 34.211 45.8638C34.211 45.8638 35.1946 40.9963 34.211 40.712C33.2274 40.4278 27.6771 45.8638 27.6771 45.8638C27.6771 45.8638 31.7872 40.9963 31.0846 39.9659C29.9956 38.4382 28.7661 38.3671 27.2555 38.9711C25.0776 39.8238 22.1619 43.8386 22.1619 43.8386C22.1619 43.8386 25.0775 39.7528 24.5857 38.2605C23.7778 35.809 15.382 42.9859 15.382 42.9859C15.382 42.9859 20.3352 38.2605 19.211 37.2302C18.0869 36.2354 11.9042 36.5196 10.0073 36.5196C4.2813 36.5551 2.31408 35.205 0.592773 33.8194" fill="#373535"/>
</g></a>
</svg>
