<svg width="90" height="60" viewBox="0 0 90 60" fill="none" xmlns="http://www.w3.org/2000/svg">
<g opacity="0.15" clip-path="url(#clip0)">
<path d="M65.0592 9.87134C65.0592 9.87134 64.2319 10.6985 63.6805 11.25C62.3018 12.6287 60.3717 14.8346 58.993 15.386C58.7172 15.386 58.7172 15.386 58.4415 15.1103L60.9231 9.87134C60.9231 10.1471 58.1658 15.1103 54.857 14.2831C54.857 14.2831 54.857 14.2831 54.5812 14.2831C56.2356 12.0772 56.7871 10.1471 56.7871 10.1471C56.7871 10.1471 54.0297 14.5588 50.4452 13.4559C50.4452 13.4559 50.1695 13.4559 50.1695 13.1802V12.9044C50.1695 12.6287 50.4452 12.6287 50.4452 12.353C50.7209 11.8015 51.2724 10.9743 51.2724 10.9743C51.2724 10.9743 51.2724 12.0772 50.4452 12.6287C49.8937 12.9044 49.0665 13.4559 48.515 13.4559C48.2393 13.4559 48.2393 13.4559 47.9636 13.4559C47.1364 13.1802 47.1364 12.6287 47.4121 11.8015C47.6878 10.9743 47.9636 10.4228 47.9636 10.4228C47.9636 10.4228 47.1364 11.5257 46.5849 12.6287C46.0334 13.4559 45.482 14.0074 44.9305 14.2831H44.379C44.1033 13.7316 44.6547 11.5258 44.6547 11.5258C44.379 12.0772 43.8275 12.6287 43.5518 13.1802C43.2761 13.7316 42.7246 14.0074 42.1731 14.2831C41.8974 14.2831 41.6217 14.2831 41.3459 14.2831C41.3459 14.2831 41.0702 14.0074 41.0702 13.7316C40.7945 12.6287 41.6217 10.9743 41.6217 10.9743C41.6217 10.9743 41.3459 11.8015 40.7945 12.9044C40.7945 13.1802 40.5187 13.4559 40.5187 13.4559C40.243 14.0074 39.9673 14.2831 39.6915 14.2831C39.14 14.0074 38.8643 13.4559 38.8643 12.9044C38.5886 12.353 38.5886 11.8015 38.5886 11.8015C38.5886 11.8015 38.5886 12.6287 38.0371 13.7316C38.0371 14.0074 37.7614 14.2831 37.4856 14.5588L37.2099 14.8346C33.9011 15.386 30.5923 16.489 27.5592 17.5919C26.732 17.8677 25.9048 18.1434 25.0775 18.4191C22.3202 19.5221 19.5628 21.1765 16.5298 23.1066C13.2209 25.3125 10.1878 27.5184 7.15475 30.2758C5.50034 31.6544 3.84593 33.3088 2.19152 34.9632C15.1511 27.7941 20.39 17.5919 44.9305 16.489C63.4047 15.6618 72.2283 24.2096 74.9856 24.4853C82.1547 24.761 86.8422 19.2463 88.4967 17.3162C88.7724 16.7647 89.0481 16.489 89.0481 16.489C89.0481 16.489 87.9452 17.8677 86.2908 19.2463C84.6364 20.625 82.4305 21.728 80.5003 21.4522C80.2246 21.4522 79.9489 21.4522 79.6731 21.4522C82.4305 19.7978 84.0849 17.0405 85.1878 15.6618C85.4636 15.1103 86.015 14.2831 86.015 14.2831C86.015 14.2831 79.6731 20.9008 74.7099 20.3493C74.4342 20.3493 74.4342 20.3493 74.1584 20.3493C76.3643 18.6949 77.743 16.489 78.8459 14.5588C79.9489 12.6287 80.5003 10.9743 80.5003 10.9743C80.5003 10.9743 79.3974 12.9044 77.743 14.8346C76.0886 16.7647 74.1584 18.9706 72.2283 19.5221C71.9525 19.5221 71.6768 19.7978 71.4011 19.7978C75.2614 16.2133 77.1915 11.25 77.1915 11.25C77.1915 11.25 73.0555 17.0405 69.7467 18.1434C69.4709 18.1434 69.1952 18.4191 69.1952 18.4191C71.4011 16.489 72.504 15.1103 73.0555 13.7316C73.8827 12.353 74.1584 11.25 74.1584 11.25C73.8827 11.8015 73.6069 12.0772 73.0555 12.353C72.2283 13.4559 70.5739 15.1103 69.1952 16.2133C68.9194 16.489 68.368 16.7647 68.0922 17.0405L67.8165 17.3162C67.5408 17.5919 67.265 17.5919 66.7136 17.8677H66.4378C66.1621 17.5919 65.8864 17.5919 65.6106 17.3162C65.3349 17.5919 65.3349 17.8677 65.0592 17.8677H64.7834C67.8165 14.5588 70.0224 10.1471 70.0224 10.1471C70.0224 10.1471 65.6106 15.9375 63.6805 16.489C63.4047 16.489 63.129 16.2133 62.8533 16.2133C62.8533 15.9375 62.8533 15.9375 63.129 15.6618C63.6805 14.5588 64.7834 12.9044 64.7834 12.9044C64.7834 12.9044 64.5077 13.1802 64.2319 13.1802C63.9562 13.4559 63.4047 13.7316 63.129 14.0074C62.8533 14.2831 62.5775 14.2831 62.5775 14.2831C62.3018 14.5588 62.0261 14.5588 61.7503 14.5588C61.4746 14.8346 61.1989 14.8346 60.9231 14.8346C60.6474 14.8346 60.6474 14.8346 60.6474 14.8346C62.3018 14.8346 65.0592 9.87134 65.0592 9.87134ZM47.6878 17.8677C46.5849 17.8677 45.482 17.8677 44.379 17.8677C43.2761 17.8677 42.4489 17.8677 41.3459 18.1434C40.243 18.6949 39.4158 19.2463 38.5886 19.7978C38.5886 20.0735 38.5886 20.0735 38.5886 20.3493C38.5886 20.625 38.5886 20.9008 38.3128 20.9008L41.6217 23.3824L40.243 18.6949L42.4489 22.8309H42.7246V18.4191L44.1033 22.8309L45.7577 18.6949V23.3824L48.2393 19.7978L46.8606 24.2096L50.7209 21.728L47.9636 25.5883L51.5481 24.2096C51.5481 24.2096 51.5481 24.2096 51.8239 23.9338C50.9967 22.8309 51.8239 21.4522 53.2025 21.728C53.754 20.9008 54.0297 19.7978 54.3055 18.9706C52.0996 18.1434 49.8937 17.8677 47.6878 17.8677ZM38.3128 18.4191C37.2099 18.4191 36.107 18.6949 35.004 18.9706C33.9011 19.2463 32.7981 19.2463 31.9709 19.5221C32.5224 20.9008 33.0739 22.2794 33.9011 23.3824C34.1768 22.5552 34.7283 21.728 35.2798 20.9008C34.7283 19.5221 36.107 18.4191 37.4856 18.9706C37.7614 18.6949 38.0371 18.4191 38.3128 18.4191ZM54.857 18.6949C54.857 19.7978 54.5812 20.625 54.3055 21.728C55.4084 22.5552 54.5812 24.4853 53.2025 24.2096C52.6511 25.0368 51.8239 25.864 51.2724 26.4155H53.754L50.1695 27.2427L49.8937 27.5184C52.0996 27.7941 54.0297 28.6213 55.6842 30C56.7871 27.7941 57.6143 25.5883 57.6143 22.8309C57.0628 21.1765 55.9599 19.7978 54.857 18.6949ZM31.4195 19.5221C30.3165 19.7978 29.2136 20.0735 28.3864 20.3493C27.8349 21.1765 27.5592 22.2794 27.5592 23.1066C27.5592 29.1728 31.1437 34.136 36.107 36.6177C35.2798 35.7905 34.4525 34.6875 33.9011 33.5846C31.4195 33.8603 30.5923 30.5515 32.7981 29.7243C32.5224 28.0699 32.7981 26.1397 33.3496 24.4853C32.5224 23.1066 31.6952 21.4522 31.4195 19.5221ZM59.5444 19.5221C60.0959 20.9008 60.3717 22.5552 60.3717 24.2096C60.3717 33.3088 52.3753 40.478 42.1731 40.478C32.2467 40.478 23.9746 33.3088 23.9746 24.2096C23.9746 23.3824 23.9746 22.5552 24.2503 21.728C21.493 22.8309 19.0114 24.2096 16.5298 25.864C15.7025 27.2427 15.4268 28.8971 15.4268 30.2758C15.7025 33.8603 19.0114 36.8934 23.6989 39.0993L22.8717 38.8235C14.3239 36.3419 7.70623 40.7537 0.537109 36.8934C2.19152 38.2721 4.12167 39.6508 9.63637 39.6508C11.5665 39.6508 17.6327 39.375 18.7356 40.2022C19.8386 41.0294 14.8753 45.7169 14.8753 45.7169C14.8753 45.7169 23.1474 38.8235 23.9746 41.0294C24.5261 42.4081 21.493 46.5441 21.493 46.5441C21.493 46.5441 24.2503 42.6838 26.4562 41.8566C27.8349 41.3052 29.2136 41.3052 30.3165 42.9596C30.868 43.7868 27.0077 48.75 27.0077 48.75C27.0077 48.75 32.5224 43.511 33.3496 43.7868C34.4525 44.0625 33.3496 48.75 33.3496 48.75C33.3496 48.75 35.2798 44.0625 36.3827 43.511C37.7614 42.9596 33.0739 54.5405 33.0739 54.5405C33.0739 54.5405 38.8643 43.7868 39.9672 43.511C41.8974 42.9596 43.0003 50.9559 43.0003 50.9559C43.0003 50.9559 42.1731 44.0625 43.0003 43.511C49.3422 40.7537 45.7577 55.3677 45.7577 55.3677C45.7577 55.3677 49.8937 45.4412 47.4121 43.2353C54.0297 47.6471 53.2025 55.3677 53.2025 55.3677C53.2025 55.3677 54.857 51.5074 50.1695 42.4081C52.9268 42.4081 56.7871 49.3015 56.7871 49.3015C56.7871 49.3015 52.3753 41.5809 55.4084 41.5809C61.1989 41.3052 61.7503 51.7831 61.7503 51.7831C61.7503 51.7831 63.4047 50.4044 58.7172 40.2022C61.7503 38.2721 68.9194 49.5772 68.9194 49.5772C68.9194 49.5772 62.3018 38.5478 63.4047 37.7206C64.5077 36.8934 68.368 41.3052 68.368 41.3052C68.368 41.3052 65.3349 37.1691 66.1621 36.8934C66.9893 36.3419 74.9856 44.8897 74.9856 44.8897C74.9856 44.8897 68.0922 36.6177 69.1952 35.5147C70.2981 34.4118 75.5371 38.2721 75.5371 38.2721C75.5371 38.2721 67.8165 33.0331 69.1952 32.2059C71.4011 31.103 77.4672 34.9632 77.4672 34.9632C77.4672 34.9632 73.8827 31.9302 74.4342 31.103C74.9856 30.2757 82.1547 35.7905 82.1547 35.7905C82.1547 35.7905 75.8128 30.8272 75.5371 29.4485C75.2614 28.0699 80.5003 30 80.5003 30C80.5003 30 74.7099 27.2427 74.4342 26.4155C74.4342 25.5883 78.2944 27.2427 78.2944 27.2427C78.2944 27.2427 72.7797 22.8309 71.4011 26.4155C71.1253 26.9669 70.8496 27.5184 70.2981 28.0699C70.5739 26.9669 70.8496 26.1397 70.5739 25.0368C70.5739 24.761 70.5739 24.4853 70.2981 23.9338C68.6437 23.1066 64.7834 21.1765 59.5444 19.5221ZM38.0371 21.1765C37.7614 21.728 36.9342 22.0037 36.107 21.728C35.8312 22.0037 35.8312 22.2794 35.5555 22.5552L40.243 24.2096C40.243 24.2096 40.243 24.2096 40.243 23.9338L38.0371 21.1765ZM35.8312 22.8309C35.5555 23.3824 35.2798 23.9338 35.004 24.761C35.5555 25.3125 35.8312 25.5883 36.3827 26.1397H39.6915L35.8312 22.8309ZM50.9967 24.761L48.7908 26.4155H49.0665C49.8937 25.864 50.4452 25.3125 50.9967 24.761ZM34.4525 25.864C34.1768 27.2427 34.1768 28.3456 34.1768 29.4485C35.004 29.7243 35.8312 30.2757 35.8312 31.103L39.14 28.8971C38.8643 28.8971 38.5886 28.6213 38.3128 28.6213L34.4525 28.3456L36.6584 27.7941C36.107 27.2427 35.2798 26.6912 34.4525 25.864ZM37.4856 26.6912C38.0371 26.9669 38.5886 27.2427 39.14 27.5184H39.6915C39.6915 27.5184 39.6915 27.5184 39.6915 27.2427L37.4856 26.6912ZM48.7908 29.1728L52.0996 32.4816L47.6878 30.5515L50.1695 34.4118L46.3092 31.3787L47.6878 36.0662L45.482 31.9302L45.2062 36.8934L43.8275 31.9302L42.1731 36.6177L42.7246 31.6544L39.4158 36.0662L40.5187 31.9302C39.14 33.0331 38.3128 34.6875 37.4856 36.3419C37.7614 36.6177 38.3128 37.1691 38.5886 37.4449C44.6547 39.0993 51.2724 36.6177 54.5812 31.103C53.2025 30.2757 51.5481 29.4485 49.8937 29.1728H48.7908ZM39.9672 30L36.107 31.3787C36.107 31.3787 36.107 31.3787 36.107 31.6544C36.107 32.2059 35.8312 32.7574 35.5555 33.3088C35.8312 34.136 36.3827 34.9633 36.9342 35.5147C37.2099 34.6875 37.7614 33.8603 38.0371 33.3088L36.6584 33.8603L39.9672 30ZM53.2025 40.2022C52.6511 40.478 51.8239 40.478 50.9967 40.7537C51.8239 40.478 52.6511 40.2022 53.2025 40.2022ZM49.3422 41.0294C48.7908 41.0294 48.515 41.3052 47.9636 41.3052C47.1364 41.3052 46.5849 41.5809 45.7577 41.5809C47.1364 41.3052 48.2393 41.3052 49.3422 41.0294ZM44.379 41.5809C44.1033 41.5809 43.5518 41.5809 43.2761 41.5809C43.5518 41.5809 43.8275 41.5809 44.379 41.5809Z" fill="#0D2743"/>
</g>
<defs>
<clipPath id="clip0">
<rect width="88.2353" height="60" fill="white" transform="translate(0.8125)"/>
</clipPath>
</defs>
</svg>
