<svg width="85" height="60" viewBox="0 0 85 60" fill="none" xmlns="http://www.w3.org/2000/svg" xmlns:xlink="http://www.w3.org/1999/xlink">
<style>
svg .img {
opacity: 0;
transition-duration: 0.5s;
}
svg .img:hover {
opacity: 1;
transition-duration: 0.3s;
}
</style>
<g opacity="0.15">
<path d="M15.6851 26.8004H8.31597C7.96691 26.8004 7.69542 26.5289 7.65663 26.141L7.65663 19.5476C7.65663 19.1598 7.96691 18.8883 8.31597 18.8883L15.6851 18.8883C16.0729 18.8883 16.3444 19.1986 16.3444 19.5476V26.141C16.3444 26.5289 16.0341 26.8004 15.6851 26.8004Z" fill="#0D2743"/>
<path d="M25.8467 26.8004L18.4776 26.8004C18.1285 26.8004 17.857 26.5289 17.8182 26.141V19.5476C17.8182 19.1598 18.1285 18.8883 18.4776 18.8883L25.8467 18.8883C26.2345 18.8883 26.506 19.1986 26.506 19.5476V26.141C26.506 26.5289 26.1957 26.8004 25.8467 26.8004Z" fill="#0D2743"/>
<path d="M36.2022 26.8004H28.8331C28.4453 26.8004 28.1738 26.5289 28.1738 26.141V19.5476C28.1738 19.1598 28.484 18.8883 28.8331 18.8883H36.2022C36.59 18.8883 36.8615 19.1986 36.8615 19.5476V26.141C36.8615 26.5289 36.5513 26.8004 36.2022 26.8004Z" fill="#0D2743"/>
<path d="M46.4026 26.8004L39.0335 26.8004C38.6844 26.8004 38.3742 26.5289 38.3742 26.141V19.5476C38.3742 19.1598 38.6844 18.8883 39.0335 18.8883H46.4026C46.7904 18.8883 47.0619 19.1986 47.0619 19.5476V26.141C47.0619 26.5289 46.7517 26.8004 46.4026 26.8004Z" fill="#0D2743"/>
<path d="M25.8467 17.3757L18.4776 17.3757C18.1285 17.3757 17.857 17.0654 17.8182 16.7163L17.8182 10.1229C17.8182 9.73509 18.1285 9.4636 18.4776 9.4636L25.8467 9.4636C26.2345 9.4636 26.506 9.77388 26.506 10.1229V16.7163C26.506 17.0654 26.1957 17.3757 25.8467 17.3757Z" fill="#0D2743"/>
<path d="M36.2022 17.3757H28.8331C28.4453 17.3757 28.1738 17.0654 28.1738 16.7163V10.1229C28.1738 9.73509 28.484 9.4636 28.8331 9.4636L36.2022 9.4636C36.59 9.4636 36.8615 9.77388 36.8615 10.1229V16.7163C36.8615 17.0654 36.5513 17.3757 36.2022 17.3757Z" fill="#0D2743"/>
<path d="M46.4026 17.3757H39.0335C38.6844 17.3757 38.3742 17.0654 38.3742 16.7163V10.1229C38.3742 9.73509 38.6844 9.4636 39.0335 9.4636L46.4026 9.4636C46.7517 9.4636 47.0619 9.77388 47.0619 10.1229V16.7164C47.0619 17.0654 46.7517 17.3757 46.4026 17.3757Z" fill="#0D2743"/>
<path d="M46.4026 7.91221L39.0335 7.91221C38.6844 7.91221 38.3742 7.60194 38.3742 7.25287L38.3742 0.659467C38.3742 0.27162 38.6844 0.00012204 39.0335 0.00012207L46.4026 0.000122715C46.7517 0.000122745 47.0619 0.310406 47.0619 0.659468V7.25287C47.0619 7.64072 46.7517 7.91221 46.4026 7.91221Z" fill="#0D2743"/>
<path d="M56.6806 26.8004H49.3114C48.9624 26.8004 48.6909 26.5289 48.6521 26.141V19.5476C48.6521 19.1598 48.9624 18.8883 49.3114 18.8883L56.6806 18.8883C57.0684 18.8883 57.3399 19.1986 57.3399 19.5476V26.141C57.3399 26.5289 57.0296 26.8004 56.6806 26.8004Z" fill="#0D2743"/>
<path d="M76.5771 20.9051C81.0762 20.9051 83.1705 22.4953 83.4033 22.6892L84.2177 23.271L83.8687 24.2794C83.2869 25.6756 82.4724 26.9167 81.3865 27.9251C79.7575 29.5541 76.8099 31.4545 72.0393 31.4545H71.2636C69.3632 36.3414 66.7646 41.8489 62.3819 46.7745C59.7833 49.7222 56.7194 52.2432 53.3063 54.2212C49.1563 56.5871 44.6573 58.216 39.9643 59.0693C36.5901 59.6898 33.177 60.0001 29.764 60.0001C22.2009 60.0001 15.4912 58.5651 11.38 56.0441C7.73423 53.7945 4.90294 50.11 3.00249 45.1455C1.33474 40.6077 0.520266 35.7984 0.597836 30.9891C0.597836 29.5541 1.76138 28.3905 3.19641 28.3905L58.2708 28.3905C58.9689 28.3518 62.3044 28.0803 64.36 26.9167C62.6534 24.2018 62.1492 21.0214 62.9637 17.6472C63.3903 15.9019 64.1272 14.1953 65.0969 12.6827L65.8726 11.558L67.0749 12.2561C67.0878 12.2664 67.1214 12.2886 67.1734 12.3229C67.9045 12.8055 72.2511 15.675 73.0477 21.2154C74.2113 21.0214 75.4136 20.9051 76.5771 20.9051Z" fill="#0D2743"/>
</g>
<a xlink:href="https://www.docker.com/" target="_blank" xlink:title="Docker" xlink:alt="Docker">
<g class="img">
<rect width="76" height="60" fill="white" opacity="0"/>
<path d="M15.6851 26.8004H8.31597C7.96691 26.8004 7.69542 26.5289 7.65663 26.141L7.65663 19.5476C7.65663 19.1598 7.96691 18.8883 8.31597 18.8883L15.6851 18.8883C16.0729 18.8883 16.3444 19.1986 16.3444 19.5476V26.141C16.3444 26.5289 16.0341 26.8004 15.6851 26.8004Z" fill="#2496EE"/>
<path d="M25.8467 26.8004L18.4776 26.8004C18.1285 26.8004 17.857 26.5289 17.8182 26.141V19.5476C17.8182 19.1598 18.1285 18.8883 18.4776 18.8883L25.8467 18.8883C26.2345 18.8883 26.506 19.1986 26.506 19.5476V26.141C26.506 26.5289 26.1957 26.8004 25.8467 26.8004Z" fill="#2496EE"/>
<path d="M36.2022 26.8004H28.8331C28.4453 26.8004 28.1738 26.5289 28.1738 26.141V19.5476C28.1738 19.1598 28.484 18.8883 28.8331 18.8883H36.2022C36.59 18.8883 36.8615 19.1986 36.8615 19.5476V26.141C36.8615 26.5289 36.5513 26.8004 36.2022 26.8004Z" fill="#2496EE"/>
<path d="M46.4026 26.8004L39.0335 26.8004C38.6844 26.8004 38.3742 26.5289 38.3742 26.141V19.5476C38.3742 19.1598 38.6844 18.8883 39.0335 18.8883H46.4026C46.7904 18.8883 47.0619 19.1986 47.0619 19.5476V26.141C47.0619 26.5289 46.7517 26.8004 46.4026 26.8004Z" fill="#2496EE"/>
<path d="M25.8467 17.3757L18.4776 17.3757C18.1285 17.3757 17.857 17.0654 17.8182 16.7163L17.8182 10.1229C17.8182 9.73509 18.1285 9.4636 18.4776 9.4636L25.8467 9.4636C26.2345 9.4636 26.506 9.77388 26.506 10.1229V16.7163C26.506 17.0654 26.1957 17.3757 25.8467 17.3757Z" fill="#2496EE"/>
<path d="M36.2022 17.3757H28.8331C28.4453 17.3757 28.1738 17.0654 28.1738 16.7163V10.1229C28.1738 9.73509 28.484 9.4636 28.8331 9.4636L36.2022 9.4636C36.59 9.4636 36.8615 9.77388 36.8615 10.1229V16.7163C36.8615 17.0654 36.5513 17.3757 36.2022 17.3757Z" fill="#2496EE"/>
<path d="M46.4026 17.3757H39.0335C38.6844 17.3757 38.3742 17.0654 38.3742 16.7163V10.1229C38.3742 9.73509 38.6844 9.4636 39.0335 9.4636L46.4026 9.4636C46.7517 9.4636 47.0619 9.77388 47.0619 10.1229V16.7164C47.0619 17.0654 46.7517 17.3757 46.4026 17.3757Z" fill="#2496EE"/>
<path d="M46.4026 7.91221L39.0335 7.91221C38.6844 7.91221 38.3742 7.60194 38.3742 7.25287L38.3742 0.659467C38.3742 0.27162 38.6844 0.00012204 39.0335 0.00012207L46.4026 0.000122715C46.7517 0.000122745 47.0619 0.310406 47.0619 0.659468V7.25287C47.0619 7.64072 46.7517 7.91221 46.4026 7.91221Z" fill="#2496EE"/>
<path d="M56.6806 26.8004H49.3114C48.9624 26.8004 48.6909 26.5289 48.6521 26.141V19.5476C48.6521 19.1598 48.9624 18.8883 49.3114 18.8883L56.6806 18.8883C57.0684 18.8883 57.3399 19.1986 57.3399 19.5476V26.141C57.3399 26.5289 57.0296 26.8004 56.6806 26.8004Z" fill="#2496EE"/>
<path d="M76.5771 20.9051C81.0762 20.9051 83.1705 22.4953 83.4033 22.6892L84.2177 23.271L83.8687 24.2794C83.2869 25.6756 82.4724 26.9167 81.3865 27.9251C79.7575 29.5541 76.8099 31.4545 72.0393 31.4545H71.2636C69.3632 36.3414 66.7646 41.8489 62.3819 46.7745C59.7833 49.7222 56.7194 52.2432 53.3063 54.2212C49.1563 56.5871 44.6573 58.216 39.9643 59.0693C36.5901 59.6898 33.177 60.0001 29.764 60.0001C22.2009 60.0001 15.4912 58.5651 11.38 56.0441C7.73423 53.7945 4.90294 50.11 3.00249 45.1455C1.33474 40.6077 0.520266 35.7984 0.597836 30.9891C0.597836 29.5541 1.76138 28.3905 3.19641 28.3905L58.2708 28.3905C58.9689 28.3518 62.3044 28.0803 64.36 26.9167C62.6534 24.2018 62.1492 21.0214 62.9637 17.6472C63.3903 15.9019 64.1272 14.1953 65.0969 12.6827L65.8726 11.558L67.0749 12.2561C67.0878 12.2664 67.1214 12.2886 67.1734 12.3229C67.9045 12.8055 72.2511 15.675 73.0477 21.2154C74.2113 21.0214 75.4136 20.9051 76.5771 20.9051Z" fill="#2496EE"/>
</g></a>
</svg>
