<svg width="84" height="60" viewBox="0 0 84 60" fill="none" xmlns="http://www.w3.org/2000/svg">
<g opacity="0.15">
<path d="M15.1402 26.8004H7.77105C7.42199 26.8004 7.1505 26.5289 7.11171 26.141L7.11171 19.5476C7.11171 19.1598 7.42199 18.8883 7.77105 18.8883L15.1402 18.8883C15.528 18.8883 15.7995 19.1986 15.7995 19.5476V26.141C15.7995 26.5289 15.4892 26.8004 15.1402 26.8004Z" fill="#0D2743"/>
<path d="M25.3018 26.8004L17.9327 26.8004C17.5836 26.8004 17.3121 26.5289 17.2733 26.141V19.5476C17.2733 19.1598 17.5836 18.8883 17.9327 18.8883H25.3018C25.6896 18.8883 25.9611 19.1986 25.9611 19.5476V26.141C25.9611 26.5289 25.6508 26.8004 25.3018 26.8004Z" fill="#0D2743"/>
<path d="M35.6573 26.8004H28.2882C27.9003 26.8004 27.6288 26.5289 27.6288 26.141V19.5476C27.6288 19.1598 27.9391 18.8883 28.2882 18.8883H35.6573C36.0451 18.8883 36.3166 19.1986 36.3166 19.5476V26.141C36.3166 26.5289 36.0063 26.8004 35.6573 26.8004Z" fill="#0D2743"/>
<path d="M45.8577 26.8004L38.4886 26.8004C38.1395 26.8004 37.8292 26.5289 37.8292 26.141V19.5476C37.8292 19.1598 38.1395 18.8883 38.4886 18.8883H45.8577C46.2455 18.8883 46.517 19.1986 46.517 19.5476V26.141C46.517 26.5289 46.2067 26.8004 45.8577 26.8004Z" fill="#0D2743"/>
<path d="M25.3018 17.3757H17.9327C17.5836 17.3757 17.3121 17.0654 17.2733 16.7163L17.2733 10.1229C17.2733 9.73509 17.5836 9.4636 17.9327 9.4636H25.3018C25.6896 9.4636 25.9611 9.77388 25.9611 10.1229V16.7163C25.9611 17.0654 25.6508 17.3757 25.3018 17.3757Z" fill="#0D2743"/>
<path d="M35.6573 17.3757H28.2882C27.9003 17.3757 27.6288 17.0654 27.6288 16.7163V10.1229C27.6288 9.7351 27.9391 9.4636 28.2882 9.4636L35.6573 9.4636C36.0451 9.4636 36.3166 9.77388 36.3166 10.1229V16.7163C36.3166 17.0654 36.0063 17.3757 35.6573 17.3757Z" fill="#0D2743"/>
<path d="M45.8577 17.3757H38.4886C38.1395 17.3757 37.8292 17.0654 37.8292 16.7163V10.1229C37.8292 9.7351 38.1395 9.4636 38.4886 9.4636H45.8577C46.2067 9.4636 46.517 9.77388 46.517 10.1229V16.7164C46.517 17.0654 46.2067 17.3757 45.8577 17.3757Z" fill="#0D2743"/>
<path d="M45.8577 7.91221L38.4886 7.91221C38.1395 7.91221 37.8292 7.60194 37.8292 7.25287L37.8292 0.659467C37.8292 0.27162 38.1395 0.00012204 38.4886 0.00012207L45.8577 0.000122715C46.2067 0.000122745 46.517 0.310405 46.517 0.659468V7.25287C46.517 7.64072 46.2067 7.91221 45.8577 7.91221Z" fill="#0D2743"/>
<path d="M56.1356 26.8004H48.7665C48.4175 26.8004 48.146 26.5289 48.1072 26.141V19.5476C48.1072 19.1598 48.4175 18.8883 48.7665 18.8883L56.1356 18.8883C56.5235 18.8883 56.795 19.1986 56.795 19.5476V26.141C56.795 26.5289 56.4847 26.8004 56.1356 26.8004Z" fill="#0D2743"/>
<path d="M76.0322 20.9051C80.5313 20.9051 82.6256 22.4953 82.8583 22.6892L83.6728 23.271L83.3238 24.2794C82.742 25.6756 81.9275 26.9167 80.8415 27.9251C79.2126 29.5541 76.2649 31.4545 71.4944 31.4545H70.7187C68.8183 36.3414 66.2197 41.8489 61.837 46.7745C59.2384 49.7222 56.1744 52.2432 52.7614 54.2212C48.6114 56.5871 44.1124 58.216 39.4194 59.0693C36.0452 59.6898 32.6321 60.0001 29.219 60.0001C21.656 60.0001 14.9463 58.5651 10.8351 56.0441C7.1893 53.7945 4.35802 50.11 2.45757 45.1455C0.789823 40.6077 -0.0246562 35.7984 0.0529137 30.9891C0.0529138 29.5541 1.21646 28.3905 2.65149 28.3905L57.7258 28.3905C58.424 28.3518 61.7594 28.0803 63.815 26.9167C62.1085 24.2018 61.6043 21.0214 62.4188 17.6472C62.8454 15.9019 63.5823 14.1953 64.5519 12.6827L65.3276 11.558L66.53 12.2561C66.5428 12.2664 66.5765 12.2886 66.6285 12.3229C67.3596 12.8055 71.7062 15.675 72.5028 21.2154C73.6664 21.0214 74.8687 20.9051 76.0322 20.9051Z" fill="#0D2743"/>
</g>
</svg>
