<svg width="62" height="60" viewBox="0 0 62 60" fill="none" xmlns="http://www.w3.org/2000/svg">
<g opacity="0.15" clip-path="url(#clip0)">
<path d="M30.8732 0C14.0458 0 0.416992 13.6288 0.416992 30.4562C0.416992 44.7693 10.2381 56.6485 23.4885 59.9974C23.3356 59.6164 23.2604 59.0824 23.2604 58.5511V53.3722H19.4528C17.3973 53.3722 15.4922 52.4598 14.6549 50.7828C13.6648 48.9554 13.5119 46.1379 11.0002 44.3857C10.2381 43.7766 10.8473 43.1674 11.6845 43.2426C13.2838 43.6988 14.5772 44.7667 15.7954 46.3634C17.0137 47.9627 17.5476 48.3437 19.8312 48.3437C20.8965 48.3437 22.571 48.2685 24.0951 48.0378C24.9323 45.9046 26.3786 44.0021 28.1308 43.0897C17.9287 41.8714 13.0557 36.8455 13.0557 29.9922C13.0557 27.0218 14.3491 24.2043 16.4823 21.7678C15.798 19.4064 14.883 14.5334 16.7882 12.6309C21.3579 12.6309 24.0977 15.6013 24.7819 16.3608C27.0655 15.5988 29.5798 15.1426 32.1666 15.1426C34.8312 15.1426 37.2677 15.5988 39.5513 16.3608C40.2356 15.5988 42.9779 12.6309 47.545 12.6309C49.3724 14.4583 48.5352 19.4064 47.7731 21.7678C49.9064 24.1291 51.1246 27.0218 51.1246 29.9922C51.1246 36.8455 46.3268 41.8714 36.2024 42.9368C39.0199 44.3831 41.0002 48.494 41.0002 51.5397V58.4759C41.0002 58.704 40.925 58.9321 40.925 59.1602C52.8016 55.0492 61.3294 43.7817 61.3294 30.4562C61.3294 13.6288 47.7006 0 30.8732 0Z" fill="#0D2743"/>
</g>
<defs>
<clipPath id="clip0">
<rect width="60.9124" height="60" fill="white" transform="translate(0.416992)"/>
</clipPath>
</defs>
</svg>
