<svg width="45" height="60" viewBox="0 0 45 60" fill="none" xmlns="http://www.w3.org/2000/svg" xmlns:xlink="http://www.w3.org/1999/xlink">
<style>
svg .img {
opacity: 0;
transition-duration: 0.5s;
}
svg .img:hover {
opacity: 1;
transition-duration: 0.3s;
}
</style>
<g opacity="0.15">
<path d="M14.7636 46.3825C14.7636 46.3825 12.4749 47.7134 16.3925 48.1638C21.1385 48.7052 23.564 48.6276 28.7943 47.6376C28.7943 47.6376 30.1694 48.4998 32.0896 49.2467C20.3651 54.2716 5.55448 48.9556 14.7636 46.3825V46.3825ZM13.3309 39.8252C13.3309 39.8252 10.7639 41.7254 14.6844 42.1308C19.7542 42.6539 23.7579 42.6967 30.686 41.3626C30.686 41.3626 31.6443 42.3341 33.151 42.8654C18.9752 47.0106 3.18604 43.1923 13.3309 39.8252" fill="#0D2743"/>
<path d="M25.4096 28.702C28.2986 32.028 24.6505 35.0211 24.6505 35.0211C24.6505 35.0211 31.986 31.2343 28.6171 26.4923C25.4708 22.0703 23.0578 19.8728 36.1203 12.2972C36.1203 12.2972 15.6166 17.4181 25.4096 28.7019" fill="#0D2743"/>
<path d="M40.9162 51.2328C40.9162 51.2328 42.6099 52.6282 39.0508 53.7079C32.2833 55.7581 10.8834 56.3772 4.93858 53.7896C2.80165 52.8601 6.80916 51.5699 8.06968 51.299C9.3843 51.014 10.1357 51.0672 10.1357 51.0672C7.7591 49.3929 -5.22552 54.3545 3.5402 55.7753C27.4453 59.6521 47.1168 54.0297 40.9162 51.2328ZM15.8647 33.0313C15.8647 33.0313 4.97951 35.6168 12.0101 36.5555C14.9785 36.9529 20.8962 36.8631 26.4083 36.4011C30.9132 36.0214 35.4366 35.2133 35.4366 35.2133C35.4366 35.2133 33.8482 35.8936 32.699 36.6783C21.6451 39.5855 0.291011 38.2331 6.43858 35.2592C11.6376 32.7462 15.8648 33.0313 15.8648 33.0313H15.8647ZM35.3917 43.9461C46.6287 38.107 41.4331 32.4958 37.8068 33.2518C36.9179 33.4367 36.5216 33.5969 36.5216 33.5969C36.5216 33.5969 36.8516 33.0802 37.4818 32.8565C44.6558 30.3342 50.1732 40.2953 35.1659 44.2404C35.1659 44.2405 35.3398 44.0852 35.3917 43.9461" fill="#0D2743"/>
<path d="M28.6172 0.0643824C28.6172 0.0643824 34.8404 6.28981 22.7148 15.8622C12.9915 23.5412 20.4976 27.9195 22.7108 32.9218C17.0351 27.801 12.8698 23.293 15.6643 19.0976C19.7656 12.9385 31.128 9.95259 28.6172 0.064209" fill="#0D2743"/>
<path d="M16.9684 59.7684C27.7544 60.4589 44.3173 59.3853 44.7096 54.2817C44.7096 54.2817 43.9556 56.2166 35.7956 57.753C26.5896 59.4854 15.2354 59.2832 8.50098 58.1729C8.50115 58.1729 9.87959 59.3139 16.9686 59.7684" fill="#0D2743"/>
</g>
<a xlink:href="https://www.java.com/en/" target="_blank" xlink:title="Java" xlink:alt="Java">
<g class="img">
<rect width="45" height="60" fill="white" opacity="0"/>
<path d="M14.7636 46.3825C14.7636 46.3825 12.4749 47.7134 16.3925 48.1638C21.1385 48.7052 23.564 48.6276 28.7943 47.6376C28.7943 47.6376 30.1694 48.4998 32.0896 49.2467C20.3651 54.2716 5.55448 48.9556 14.7636 46.3825V46.3825ZM13.3309 39.8252C13.3309 39.8252 10.7639 41.7254 14.6844 42.1308C19.7542 42.6539 23.7579 42.6967 30.686 41.3626C30.686 41.3626 31.6443 42.3341 33.151 42.8654C18.9752 47.0106 3.18604 43.1923 13.3309 39.8252" fill="#5382A1"/>
<path d="M40.9162 51.2328C40.9162 51.2328 42.6099 52.6282 39.0508 53.7079C32.2833 55.7581 10.8834 56.3772 4.93858 53.7896C2.80165 52.8601 6.80916 51.5699 8.06968 51.299C9.3843 51.014 10.1357 51.0672 10.1357 51.0672C7.7591 49.3929 -5.22552 54.3545 3.5402 55.7753C27.4453 59.6521 47.1168 54.0297 40.9162 51.2328ZM15.8647 33.0313C15.8647 33.0313 4.97951 35.6168 12.0101 36.5555C14.9785 36.9529 20.8962 36.8631 26.4083 36.4011C30.9132 36.0214 35.4366 35.2133 35.4366 35.2133C35.4366 35.2133 33.8482 35.8936 32.699 36.6783C21.6451 39.5855 0.291011 38.2331 6.43858 35.2592C11.6376 32.7462 15.8648 33.0313 15.8648 33.0313H15.8647ZM35.3917 43.9461C46.6287 38.107 41.4331 32.4958 37.8068 33.2518C36.9179 33.4367 36.5216 33.5969 36.5216 33.5969C36.5216 33.5969 36.8516 33.0802 37.4818 32.8565C44.6558 30.3342 50.1732 40.2953 35.1659 44.2404C35.1659 44.2405 35.3398 44.0852 35.3917 43.9461" fill="#5382A1"/>
<path d="M16.9684 59.7684C27.7544 60.4589 44.3173 59.3853 44.7096 54.2817C44.7096 54.2817 43.9556 56.2166 35.7956 57.753C26.5896 59.4854 15.2354 59.2832 8.50098 58.1729C8.50115 58.1729 9.87959 59.3139 16.9686 59.7684" fill="#5382A1"/>
<path d="M25.4096 28.702C28.2986 32.028 24.6505 35.0211 24.6505 35.0211C24.6505 35.0211 31.986 31.2343 28.6171 26.4923C25.4708 22.0703 23.0578 19.8728 36.1203 12.2972C36.1203 12.2972 15.6166 17.4181 25.4096 28.7019" fill="#E76F00"/>
<path d="M28.6172 0.0643824C28.6172 0.0643824 34.8404 6.28981 22.7148 15.8622C12.9915 23.5412 20.4976 27.9195 22.7108 32.9218C17.0351 27.801 12.8698 23.293 15.6643 19.0976C19.7656 12.9385 31.128 9.95259 28.6172 0.064209" fill="#E76F00"/>
</g></a>
</svg>
