<svg width="38" height="60" viewBox="0 0 38 60" fill="none" xmlns="http://www.w3.org/2000/svg" xmlns:xlink="http://www.w3.org/1999/xlink">
<style>
svg .img {
opacity: 0;
transition-duration: 0.5s;
}
svg .img:hover {
opacity: 1;
transition-duration: 0.3s;
}
</style>
<g opacity="0.15">
<path d="M29.947 33.2033C27.6132 33.2033 25.5209 34.2373 24.0881 35.8652L20.4166 33.266C20.8064 32.193 21.0302 31.0408 21.0302 29.8348C21.0302 28.6497 20.8142 27.5168 20.4373 26.4597L24.1005 23.8881C25.5331 25.5077 27.62 26.5361 29.947 26.5361C34.2546 26.5361 37.7597 23.0316 37.7597 18.7234C37.7597 14.4152 34.2546 10.9108 29.947 10.9108C25.6394 10.9108 22.1343 14.4152 22.1343 18.7234C22.1343 19.4945 22.2508 20.2381 22.4599 20.9423L18.7942 23.5152C17.263 21.6155 15.0582 20.2892 12.5462 19.8843V15.4664C16.0851 14.7231 18.7516 11.5788 18.7516 7.82169C18.7516 3.51351 15.2465 0.0090332 10.9389 0.0090332C6.6313 0.0090332 3.12625 3.51351 3.12625 7.82169C3.12625 11.5285 5.72364 14.634 9.19179 15.4303V19.9056C4.45869 20.7364 0.847656 24.8671 0.847656 29.8348C0.847656 34.8267 4.49445 38.9725 9.26172 39.7751V44.5007C5.75811 45.2708 3.12625 48.3953 3.12625 52.1273C3.12625 56.4355 6.6313 59.94 10.9389 59.94C15.2465 59.94 18.7516 56.4355 18.7516 52.1273C18.7516 48.3953 16.1197 45.2708 12.6161 44.5007V39.7749C15.0291 39.3685 17.212 38.0989 18.7585 36.2026L22.4544 38.8185C22.2493 39.5164 22.1343 40.2526 22.1343 41.016C22.1343 45.3241 25.6394 48.8286 29.947 48.8286C34.2546 48.8286 37.7597 45.3241 37.7597 41.016C37.7597 36.7078 34.2546 33.2033 29.947 33.2033V33.2033ZM29.947 14.9355C32.0358 14.9355 33.7348 16.6352 33.7348 18.7234C33.7348 20.8117 32.0358 22.5112 29.947 22.5112C27.8582 22.5112 26.1592 20.8117 26.1592 18.7234C26.1592 16.6352 27.8582 14.9355 29.947 14.9355V14.9355ZM7.15096 7.82169C7.15096 5.73342 8.85006 4.03388 10.9389 4.03388C13.0278 4.03388 14.7267 5.73342 14.7267 7.82169C14.7267 9.90996 13.0278 11.6095 10.9389 11.6095C8.85006 11.6095 7.15096 9.90996 7.15096 7.82169ZM14.7267 52.1273C14.7267 54.2156 13.0278 55.9151 10.9389 55.9151C8.85006 55.9151 7.15096 54.2156 7.15096 52.1273C7.15096 50.0391 8.85006 48.3395 10.9389 48.3395C13.0278 48.3395 14.7267 50.0391 14.7267 52.1273ZM10.9386 35.1175C8.02531 35.1175 5.6553 32.748 5.6553 29.8348C5.6553 26.9215 8.02531 24.5515 10.9386 24.5515C13.8518 24.5515 16.2218 26.9215 16.2218 29.8348C16.2218 32.748 13.8518 35.1175 10.9386 35.1175ZM29.947 44.8039C27.8582 44.8039 26.1592 43.1042 26.1592 41.016C26.1592 38.9277 27.8582 37.2282 29.947 37.2282C32.0358 37.2282 33.7348 38.9277 33.7348 41.016C33.7348 43.1042 32.0358 44.8039 29.947 44.8039Z" fill="#0D2743"/>
</g>
<a xlink:href="https://kafka.apache.org/" target="_blank" xlink:title="Apache Kafka" xlink:alt="Apache Kafka">
<g class="img">
<rect width="38" height="60" fill="white" opacity="0"/>
<path d="M29.947 33.2033C27.6132 33.2033 25.5209 34.2373 24.0881 35.8652L20.4166 33.266C20.8064 32.193 21.0302 31.0408 21.0302 29.8348C21.0302 28.6497 20.8142 27.5168 20.4373 26.4597L24.1005 23.8881C25.5331 25.5077 27.62 26.5361 29.947 26.5361C34.2546 26.5361 37.7597 23.0316 37.7597 18.7234C37.7597 14.4152 34.2546 10.9108 29.947 10.9108C25.6394 10.9108 22.1343 14.4152 22.1343 18.7234C22.1343 19.4945 22.2508 20.2381 22.4599 20.9423L18.7942 23.5152C17.263 21.6155 15.0582 20.2892 12.5462 19.8843V15.4664C16.0851 14.7231 18.7516 11.5788 18.7516 7.82169C18.7516 3.51351 15.2465 0.0090332 10.9389 0.0090332C6.6313 0.0090332 3.12625 3.51351 3.12625 7.82169C3.12625 11.5285 5.72364 14.634 9.19179 15.4303V19.9056C4.45869 20.7364 0.847656 24.8671 0.847656 29.8348C0.847656 34.8267 4.49445 38.9725 9.26172 39.7751V44.5007C5.75811 45.2708 3.12625 48.3953 3.12625 52.1273C3.12625 56.4355 6.6313 59.94 10.9389 59.94C15.2465 59.94 18.7516 56.4355 18.7516 52.1273C18.7516 48.3953 16.1197 45.2708 12.6161 44.5007V39.7749C15.0291 39.3685 17.212 38.0989 18.7585 36.2026L22.4544 38.8185C22.2493 39.5164 22.1343 40.2526 22.1343 41.016C22.1343 45.3241 25.6394 48.8286 29.947 48.8286C34.2546 48.8286 37.7597 45.3241 37.7597 41.016C37.7597 36.7078 34.2546 33.2033 29.947 33.2033V33.2033ZM29.947 14.9355C32.0358 14.9355 33.7348 16.6352 33.7348 18.7234C33.7348 20.8117 32.0358 22.5112 29.947 22.5112C27.8582 22.5112 26.1592 20.8117 26.1592 18.7234C26.1592 16.6352 27.8582 14.9355 29.947 14.9355V14.9355ZM7.15096 7.82169C7.15096 5.73342 8.85006 4.03388 10.9389 4.03388C13.0278 4.03388 14.7267 5.73342 14.7267 7.82169C14.7267 9.90996 13.0278 11.6095 10.9389 11.6095C8.85006 11.6095 7.15096 9.90996 7.15096 7.82169ZM14.7267 52.1273C14.7267 54.2156 13.0278 55.9151 10.9389 55.9151C8.85006 55.9151 7.15096 54.2156 7.15096 52.1273C7.15096 50.0391 8.85006 48.3395 10.9389 48.3395C13.0278 48.3395 14.7267 50.0391 14.7267 52.1273ZM10.9386 35.1175C8.02531 35.1175 5.6553 32.748 5.6553 29.8348C5.6553 26.9215 8.02531 24.5515 10.9386 24.5515C13.8518 24.5515 16.2218 26.9215 16.2218 29.8348C16.2218 32.748 13.8518 35.1175 10.9386 35.1175ZM29.947 44.8039C27.8582 44.8039 26.1592 43.1042 26.1592 41.016C26.1592 38.9277 27.8582 37.2282 29.947 37.2282C32.0358 37.2282 33.7348 38.9277 33.7348 41.016C33.7348 43.1042 32.0358 44.8039 29.947 44.8039Z" fill="black"/>
</g></a>
</svg>