<svg width="37" height="60" viewBox="0 0 37 60" fill="none" xmlns="http://www.w3.org/2000/svg">
<g opacity="0.15" clip-path="url(#clip0)">
<path d="M29.1667 33.2033C26.8329 33.2033 24.7406 34.2373 23.3078 35.8652L19.6364 33.266C20.0261 32.193 20.2499 31.0408 20.2499 29.8348C20.2499 28.6497 20.0339 27.5168 19.657 26.4597L23.3202 23.8881C24.7529 25.5077 26.8397 26.5361 29.1667 26.5361C33.4743 26.5361 36.9794 23.0316 36.9794 18.7234C36.9794 14.4152 33.4743 10.9108 29.1667 10.9108C24.8591 10.9108 21.3541 14.4152 21.3541 18.7234C21.3541 19.4945 21.4706 20.2381 21.6796 20.9423L18.014 23.5152C16.4827 21.6155 14.2779 20.2892 11.7659 19.8843V15.4664C15.3048 14.7231 17.9713 11.5788 17.9713 7.82169C17.9713 3.51351 14.4662 0.0090332 10.1586 0.0090332C5.85103 0.0090332 2.34598 3.51351 2.34598 7.82169C2.34598 11.5285 4.94337 14.634 8.41151 15.4303V19.9056C3.67841 20.7364 0.0673828 24.8671 0.0673828 29.8348C0.0673828 34.8267 3.71417 38.9725 8.48144 39.7751V44.5007C4.97783 45.2708 2.34598 48.3953 2.34598 52.1273C2.34598 56.4355 5.85103 59.94 10.1586 59.94C14.4662 59.94 17.9713 56.4355 17.9713 52.1273C17.9713 48.3953 15.3394 45.2708 11.8358 44.5007V39.7749C14.2488 39.3685 16.4318 38.0989 17.9782 36.2026L21.6742 38.8185C21.469 39.5164 21.3541 40.2526 21.3541 41.016C21.3541 45.3241 24.8591 48.8286 29.1667 48.8286C33.4743 48.8286 36.9794 45.3241 36.9794 41.016C36.9794 36.7078 33.4743 33.2033 29.1667 33.2033ZM29.1667 14.9355C31.2556 14.9355 32.9545 16.6352 32.9545 18.7234C32.9545 20.8117 31.2556 22.5112 29.1667 22.5112C27.0779 22.5112 25.3789 20.8117 25.3789 18.7234C25.3789 16.6352 27.0779 14.9355 29.1667 14.9355ZM6.37068 7.82169C6.37068 5.73342 8.06979 4.03388 10.1586 4.03388C12.2475 4.03388 13.9464 5.73342 13.9464 7.82169C13.9464 9.90996 12.2475 11.6095 10.1586 11.6095C8.06979 11.6095 6.37068 9.90996 6.37068 7.82169ZM13.9464 52.1273C13.9464 54.2156 12.2475 55.9151 10.1586 55.9151C8.06979 55.9151 6.37068 54.2156 6.37068 52.1273C6.37068 50.0391 8.06979 48.3395 10.1586 48.3395C12.2475 48.3395 13.9464 50.0391 13.9464 52.1273ZM10.1583 35.1175C7.24504 35.1175 4.87503 32.748 4.87503 29.8348C4.87503 26.9215 7.24504 24.5515 10.1583 24.5515C13.0715 24.5515 15.4415 26.9215 15.4415 29.8348C15.4415 32.748 13.0715 35.1175 10.1583 35.1175ZM29.1667 44.8039C27.0779 44.8039 25.3789 43.1042 25.3789 41.016C25.3789 38.9277 27.0779 37.2282 29.1667 37.2282C31.2556 37.2282 32.9545 38.9277 32.9545 41.016C32.9545 43.1042 31.2556 44.8039 29.1667 44.8039Z" fill="#0D2743"/>
</g>
<defs>
<clipPath id="clip0">
<rect width="36.912" height="60" fill="white" transform="translate(0.0673828)"/>
</clipPath>
</defs>
</svg>
