<svg width="62" height="60" viewBox="0 0 62 60" fill="none" xmlns="http://www.w3.org/2000/svg" xmlns:xlink="http://www.w3.org/1999/xlink">
<style>
svg .img {
opacity: 0;
transition-duration: 0.5s;
}
svg .img:hover {
opacity: 1;
transition-duration: 0.3s;
}
</style>
<g opacity="0.15">
<path d="M19.5095 60C18.03 60 16.6329 59.3426 15.6876 58.1507L1.30438 40.274C0.359105 39.0822 -0.0106462 37.5619 0.359105 36.0821L5.49606 13.7671C5.82476 12.2876 6.81109 11.0958 8.16743 10.4384L28.9618 0.492919C29.6195 0.164472 30.3592 0 31.099 0C31.8387 0 32.5782 0.164223 33.2359 0.493168L54.0305 10.3973C55.3866 11.0547 56.373 12.2466 56.7017 13.7261L61.8386 36.0411C62.1676 37.5206 61.8386 39.0411 60.8936 40.233L46.5099 58.1097C45.5646 59.2603 44.1674 59.9589 42.6879 59.9589L19.51 60H19.5095Z" fill="#0D2743"/>
<path d="M51.8935 34.5205C51.8524 34.5205 51.8524 34.5205 51.8935 34.5205H51.8524C51.8113 34.5205 51.7703 34.5205 51.7703 34.4794C51.6882 34.4794 51.6061 34.4384 51.5237 34.4384C51.2361 34.3973 50.9895 34.3563 50.7429 34.3563C50.6195 34.3563 50.4963 34.3563 50.3318 34.3149H50.2908C49.4279 34.2328 48.7292 34.1507 48.0715 33.9452C47.7839 33.8218 47.7018 33.6576 47.6194 33.4931C47.6194 33.452 47.5784 33.452 47.5784 33.411L47.0441 33.2467C47.2965 31.3135 47.1991 29.3506 46.7565 27.4519C46.3078 25.5374 45.529 23.7156 44.4551 22.0684L44.8662 21.6986V21.6165C44.8662 21.411 44.9072 21.2054 45.0715 20.9999C45.5646 20.5478 46.1812 20.1781 46.921 19.7259C47.0441 19.6438 47.1673 19.6028 47.2907 19.5204C47.5373 19.3972 47.7428 19.2741 47.9894 19.1096C48.0305 19.0686 48.1126 19.0275 48.1949 18.9454C48.236 18.9041 48.2771 18.9041 48.2771 18.863C48.8523 18.3699 48.9758 17.548 48.5647 17.0135C48.3592 16.7259 47.9894 16.5617 47.6194 16.5617C47.291 16.5617 47.0031 16.6848 46.7154 16.8904L46.6333 16.9725C46.5512 17.0135 46.5099 17.0959 46.4278 17.1369C46.2223 17.3425 46.0578 17.5067 45.8936 17.7122C45.8115 17.7943 45.7294 17.9177 45.6059 17.9999C45.0304 18.6164 44.4962 19.1096 43.962 19.4794C43.8388 19.5615 43.7156 19.6028 43.5922 19.6028C43.5101 19.6028 43.4277 19.6028 43.3456 19.5615H43.2635L42.7701 19.8904C42.2359 19.3151 41.6606 18.822 41.0853 18.3288C38.6081 16.3925 35.6269 15.2085 32.4962 14.9177L32.4551 14.3835L32.373 14.3013C32.2496 14.1779 32.0854 14.0548 32.0441 13.7671C32.003 13.1095 32.0854 12.3697 32.1675 11.5479V11.5068C32.1675 11.3834 32.2086 11.2192 32.2496 11.0958C32.2907 10.8494 32.3317 10.6026 32.373 10.3149V9.9452C32.373 9.20545 31.7975 8.58911 31.0991 8.58911C30.7701 8.58911 30.4414 8.75333 30.1948 8.99992C29.9485 9.2465 29.8251 9.5752 29.8251 9.9452V10.2739C29.8251 10.5615 29.8661 10.8081 29.9482 11.0547C29.9893 11.1781 29.9893 11.3013 30.0304 11.4658V11.5068C30.1125 12.3287 30.2359 13.0684 30.1538 13.7261C30.1127 14.0137 29.9482 14.1369 29.8251 14.2603L29.743 14.3424L29.7017 14.8766C28.9619 14.9587 28.2222 15.0408 27.4824 15.2053C24.3181 15.904 21.5236 17.5069 19.3456 19.8081L18.9346 19.5204H18.8525C18.7704 19.5204 18.688 19.5615 18.6059 19.5615C18.4825 19.5615 18.3593 19.5204 18.2359 19.4383C17.7017 19.0686 17.1674 18.5341 16.5922 17.9177C16.5101 17.8356 16.4279 17.7122 16.3045 17.6301C16.1401 17.4246 15.9756 17.2601 15.7701 17.0548C15.729 17.0135 15.6469 16.9727 15.5648 16.8904C15.5237 16.8493 15.4827 16.8493 15.4827 16.8082C15.228 16.5979 14.9087 16.4817 14.5784 16.4793C14.2084 16.4793 13.8387 16.6438 13.6332 16.9314C13.2221 17.4656 13.3455 18.2875 13.9208 18.7807C13.9619 18.7807 13.9619 18.822 14.0029 18.822C14.085 18.863 14.1263 18.9451 14.2084 18.9862C14.455 19.1504 14.6606 19.2738 14.9071 19.3972C15.0306 19.4383 15.1537 19.5204 15.2771 19.6028C16.0166 20.0546 16.6332 20.4246 17.1264 20.8767C17.3319 21.082 17.3319 21.2876 17.3319 21.4931V21.5752L17.7427 21.9452C17.6606 22.0684 17.5785 22.1507 17.5372 22.2739C15.4824 25.5205 14.7016 29.3425 15.2358 33.1233L14.7016 33.2876C14.7016 33.3289 14.6606 33.3289 14.6606 33.3697C14.5784 33.5341 14.455 33.6986 14.2084 33.8218C13.5921 34.0273 12.8524 34.1097 11.9894 34.1918H11.9481C11.825 34.1918 11.6605 34.1918 11.5373 34.2328C11.2907 34.2328 11.0442 34.2739 10.7565 34.3149C10.6744 34.3149 10.5923 34.3563 10.5099 34.3563C10.4689 34.3563 10.4278 34.3563 10.3865 34.3973C9.64677 34.5615 9.19465 35.2602 9.31807 35.9176C9.44149 36.4931 9.97571 36.8631 10.6331 36.8631C10.7565 36.8631 10.8386 36.8631 10.962 36.8218C11.0031 36.8218 11.0442 36.8218 11.0442 36.7808C11.1263 36.7808 11.2084 36.7397 11.2905 36.7397C11.5784 36.6576 11.7839 36.5755 12.0305 36.4521C12.1537 36.411 12.2768 36.3287 12.4002 36.2879H12.4413C13.2221 36 13.9208 35.7534 14.5784 35.6713H14.6606C14.9071 35.6713 15.0716 35.7945 15.1948 35.8768C15.2358 35.8768 15.2358 35.9179 15.2769 35.9179L15.8524 35.8358C16.8388 38.8766 18.7291 41.589 21.236 43.5617C21.8112 44.0136 22.3865 44.3836 23.0031 44.7536L22.7565 45.2876C22.7565 45.3289 22.7976 45.3289 22.7976 45.3697C22.8797 45.5341 22.9618 45.7397 22.8797 46.0273C22.6333 46.6439 22.2633 47.2602 21.8112 47.9589V48C21.7291 48.1234 21.647 48.2055 21.5649 48.3287C21.4004 48.5342 21.277 48.7397 21.1125 48.9863C21.0715 49.0274 21.0304 49.1095 20.9894 49.1918C20.9894 49.2329 20.9483 49.274 20.9483 49.274C20.6196 49.9727 20.8662 50.7535 21.4825 51.0411C21.6468 51.1232 21.8112 51.1645 21.9757 51.1645C22.4689 51.1645 22.962 50.8356 23.2086 50.3835C23.2086 50.3424 23.2497 50.3013 23.2497 50.3013C23.2907 50.2192 23.3318 50.1371 23.3728 50.0958C23.4963 49.8082 23.5373 49.6026 23.6194 49.3561L23.7428 48.9863C24.0305 48.1645 24.236 47.5068 24.6058 46.9315C24.77 46.6849 24.9758 46.6439 25.14 46.5615C25.181 46.5615 25.181 46.5615 25.2221 46.5205L25.51 45.9863C27.3182 46.6849 29.2909 47.0547 31.2633 47.0547C32.4551 47.0547 33.6881 46.9315 34.8389 46.6439C35.563 46.482 36.2767 46.2761 36.9758 46.0273L37.2221 46.4794C37.2634 46.4794 37.2634 46.4794 37.3045 46.5205C37.51 46.5615 37.6742 46.6439 37.8387 46.8905C38.1674 47.4658 38.414 48.1644 38.7016 48.9453V48.9863L38.825 49.3561C38.9071 49.6026 38.9482 49.8492 39.0713 50.0958C39.1127 50.1779 39.1537 50.2192 39.1948 50.3013C39.1948 50.3424 39.2361 50.3835 39.2361 50.3835C39.4824 50.8766 39.9756 51.1645 40.4687 51.1645C40.6332 51.1645 40.7977 51.1232 40.9619 51.0411C41.2495 50.8769 41.4961 50.63 41.5785 50.3013C41.6606 49.9727 41.6606 49.6027 41.4964 49.274C41.4964 49.2329 41.4551 49.2329 41.4551 49.1918C41.414 49.1097 41.373 49.0276 41.3319 48.9863C41.2085 48.7397 41.0443 48.5342 40.8798 48.3287C40.7977 48.2055 40.7156 48.1234 40.6335 48.0002V47.9589C40.1811 47.2602 39.77 46.6439 39.5648 46.0273C39.4827 45.7397 39.5648 45.5754 39.6058 45.3699C39.6058 45.3289 39.6469 45.3289 39.6469 45.2878L39.4413 44.7946C41.6195 43.5207 43.4688 41.7122 44.8662 39.4932C45.6059 38.3424 46.1812 37.0684 46.592 35.7945L47.0852 35.8766C47.1265 35.8766 47.1265 35.8355 47.1673 35.8355C47.3318 35.7534 47.4552 35.6302 47.7018 35.6302H47.7839C48.4415 35.7123 49.14 35.9587 49.921 36.2466H49.9621C50.0853 36.2876 50.2084 36.3697 50.3318 36.4108C50.5784 36.5342 50.7839 36.6163 51.0716 36.6987C51.1537 36.6987 51.2358 36.7397 51.3182 36.7397C51.3592 36.7397 51.4003 36.7397 51.4413 36.7808C51.5648 36.8218 51.6469 36.8218 51.7703 36.8218C52.3866 36.8218 52.9208 36.411 53.0853 35.8768C53.0853 35.3836 52.6332 34.726 51.8935 34.5207V34.5205ZM32.8659 32.5067L31.0577 33.3699L29.2496 32.5067L28.7977 30.5754L30.0304 29.0138H32.0441L33.277 30.5754L32.8662 32.5067H32.8659ZM43.5922 28.233C43.911 29.5919 44.0081 30.9934 43.8799 32.3833L37.5921 30.5754C37.0168 30.4112 36.6881 29.8356 36.8113 29.2604C36.8523 29.0959 36.9347 28.9314 37.0579 28.8082L42.0306 24.3287C42.729 25.4795 43.2633 26.7945 43.5922 28.2327V28.233ZM40.0579 21.8631L34.6744 25.685C34.2223 25.9727 33.6057 25.8903 33.2359 25.4384C33.1128 25.315 33.0717 25.1505 33.0304 24.9863L32.6607 18.2875C35.4595 18.6098 38.0667 19.87 40.0579 21.8631V21.8631ZM28.14 18.4928C28.5922 18.4107 29.003 18.3286 29.4551 18.2464L29.0853 24.8216C29.0443 25.3969 28.5922 25.89 27.9756 25.89C27.8114 25.89 27.6058 25.849 27.4824 25.7669L22.0168 21.8631C23.7018 20.1781 25.7976 19.0272 28.14 18.493V18.4928ZM20.0441 24.3284L24.9345 28.6846C25.3866 29.0546 25.4276 29.753 25.0579 30.2051C24.9345 30.3694 24.7702 30.4928 24.5647 30.5341L18.1948 32.3833C17.9483 29.5888 18.5646 26.7532 20.0441 24.3284V24.3284ZM18.9343 35.4655L25.4689 34.3558C26.0032 34.3147 26.4963 34.6847 26.6195 35.2189C26.6605 35.4653 26.6605 35.671 26.5784 35.8766L24.0715 41.9175C21.7702 40.438 19.9209 38.1777 18.9346 35.4655H18.9343ZM33.9346 43.6436C32.9894 43.8491 32.0441 43.9723 31.0577 43.9723C29.6196 43.9723 28.2222 43.7259 26.9074 43.3149L30.1538 37.4382C30.4825 37.0682 31.0167 36.904 31.4688 37.1505C31.6607 37.2681 31.8281 37.4215 31.962 37.6024L35.1263 43.3149C34.7565 43.4381 34.3455 43.5204 33.9344 43.6436H33.9346ZM41.9482 37.9313C40.9208 39.5751 39.5645 40.8901 38.0032 41.9175L35.4141 35.7118C35.2907 35.2189 35.4963 34.6847 35.9894 34.4379C36.1536 34.3558 36.3592 34.3147 36.5647 34.3147L43.1401 35.4245C42.8935 36.3284 42.4825 37.1505 41.9482 37.9313V37.9313Z" fill="white"/>
</g>
<a xlink:href="https://kubernetes.io/" target="_blank" xlink:title="Kubernetes" xlink:alt="Kubernetes">
<g class="img">
<rect width="62" height="60" fill="white" opacity="0"/>
<path d="M19.5095 60C18.03 60 16.6329 59.3426 15.6876 58.1507L1.30438 40.274C0.359105 39.0822 -0.0106462 37.5619 0.359105 36.0821L5.49606 13.7671C5.82476 12.2876 6.81109 11.0958 8.16743 10.4384L28.9618 0.492919C29.6195 0.164472 30.3592 0 31.099 0C31.8387 0 32.5782 0.164223 33.2359 0.493168L54.0305 10.3973C55.3866 11.0547 56.373 12.2466 56.7017 13.7261L61.8386 36.0411C62.1676 37.5206 61.8386 39.0411 60.8936 40.233L46.5099 58.1097C45.5646 59.2603 44.1674 59.9589 42.6879 59.9589L19.51 60H19.5095Z" fill="#336EE5"/>
<path d="M51.8935 34.5205C51.8524 34.5205 51.8524 34.5205 51.8935 34.5205H51.8524C51.8113 34.5205 51.7703 34.5205 51.7703 34.4794C51.6882 34.4794 51.6061 34.4384 51.5237 34.4384C51.2361 34.3973 50.9895 34.3563 50.7429 34.3563C50.6195 34.3563 50.4963 34.3563 50.3318 34.3149H50.2908C49.4279 34.2328 48.7292 34.1507 48.0715 33.9452C47.7839 33.8218 47.7018 33.6576 47.6194 33.4931C47.6194 33.452 47.5784 33.452 47.5784 33.411L47.0441 33.2467C47.2965 31.3135 47.1991 29.3506 46.7565 27.4519C46.3078 25.5374 45.529 23.7156 44.4551 22.0684L44.8662 21.6986V21.6165C44.8662 21.411 44.9072 21.2054 45.0715 20.9999C45.5646 20.5478 46.1812 20.1781 46.921 19.7259C47.0441 19.6438 47.1673 19.6028 47.2907 19.5204C47.5373 19.3972 47.7428 19.2741 47.9894 19.1096C48.0305 19.0686 48.1126 19.0275 48.1949 18.9454C48.236 18.9041 48.2771 18.9041 48.2771 18.863C48.8523 18.3699 48.9758 17.548 48.5647 17.0135C48.3592 16.7259 47.9894 16.5617 47.6194 16.5617C47.291 16.5617 47.0031 16.6848 46.7154 16.8904L46.6333 16.9725C46.5512 17.0135 46.5099 17.0959 46.4278 17.1369C46.2223 17.3425 46.0578 17.5067 45.8936 17.7122C45.8115 17.7943 45.7294 17.9177 45.6059 17.9999C45.0304 18.6164 44.4962 19.1096 43.962 19.4794C43.8388 19.5615 43.7156 19.6028 43.5922 19.6028C43.5101 19.6028 43.4277 19.6028 43.3456 19.5615H43.2635L42.7701 19.8904C42.2359 19.3151 41.6606 18.822 41.0853 18.3288C38.6081 16.3925 35.6269 15.2085 32.4962 14.9177L32.4551 14.3835L32.373 14.3013C32.2496 14.1779 32.0854 14.0548 32.0441 13.7671C32.003 13.1095 32.0854 12.3697 32.1675 11.5479V11.5068C32.1675 11.3834 32.2086 11.2192 32.2496 11.0958C32.2907 10.8494 32.3317 10.6026 32.373 10.3149V9.9452C32.373 9.20545 31.7975 8.58911 31.0991 8.58911C30.7701 8.58911 30.4414 8.75333 30.1948 8.99992C29.9485 9.2465 29.8251 9.5752 29.8251 9.9452V10.2739C29.8251 10.5615 29.8661 10.8081 29.9482 11.0547C29.9893 11.1781 29.9893 11.3013 30.0304 11.4658V11.5068C30.1125 12.3287 30.2359 13.0684 30.1538 13.7261C30.1127 14.0137 29.9482 14.1369 29.8251 14.2603L29.743 14.3424L29.7017 14.8766C28.9619 14.9587 28.2222 15.0408 27.4824 15.2053C24.3181 15.904 21.5236 17.5069 19.3456 19.8081L18.9346 19.5204H18.8525C18.7704 19.5204 18.688 19.5615 18.6059 19.5615C18.4825 19.5615 18.3593 19.5204 18.2359 19.4383C17.7017 19.0686 17.1674 18.5341 16.5922 17.9177C16.5101 17.8356 16.4279 17.7122 16.3045 17.6301C16.1401 17.4246 15.9756 17.2601 15.7701 17.0548C15.729 17.0135 15.6469 16.9727 15.5648 16.8904C15.5237 16.8493 15.4827 16.8493 15.4827 16.8082C15.228 16.5979 14.9087 16.4817 14.5784 16.4793C14.2084 16.4793 13.8387 16.6438 13.6332 16.9314C13.2221 17.4656 13.3455 18.2875 13.9208 18.7807C13.9619 18.7807 13.9619 18.822 14.0029 18.822C14.085 18.863 14.1263 18.9451 14.2084 18.9862C14.455 19.1504 14.6606 19.2738 14.9071 19.3972C15.0306 19.4383 15.1537 19.5204 15.2771 19.6028C16.0166 20.0546 16.6332 20.4246 17.1264 20.8767C17.3319 21.082 17.3319 21.2876 17.3319 21.4931V21.5752L17.7427 21.9452C17.6606 22.0684 17.5785 22.1507 17.5372 22.2739C15.4824 25.5205 14.7016 29.3425 15.2358 33.1233L14.7016 33.2876C14.7016 33.3289 14.6606 33.3289 14.6606 33.3697C14.5784 33.5341 14.455 33.6986 14.2084 33.8218C13.5921 34.0273 12.8524 34.1097 11.9894 34.1918H11.9481C11.825 34.1918 11.6605 34.1918 11.5373 34.2328C11.2907 34.2328 11.0442 34.2739 10.7565 34.3149C10.6744 34.3149 10.5923 34.3563 10.5099 34.3563C10.4689 34.3563 10.4278 34.3563 10.3865 34.3973C9.64677 34.5615 9.19465 35.2602 9.31807 35.9176C9.44149 36.4931 9.97571 36.8631 10.6331 36.8631C10.7565 36.8631 10.8386 36.8631 10.962 36.8218C11.0031 36.8218 11.0442 36.8218 11.0442 36.7808C11.1263 36.7808 11.2084 36.7397 11.2905 36.7397C11.5784 36.6576 11.7839 36.5755 12.0305 36.4521C12.1537 36.411 12.2768 36.3287 12.4002 36.2879H12.4413C13.2221 36 13.9208 35.7534 14.5784 35.6713H14.6606C14.9071 35.6713 15.0716 35.7945 15.1948 35.8768C15.2358 35.8768 15.2358 35.9179 15.2769 35.9179L15.8524 35.8358C16.8388 38.8766 18.7291 41.589 21.236 43.5617C21.8112 44.0136 22.3865 44.3836 23.0031 44.7536L22.7565 45.2876C22.7565 45.3289 22.7976 45.3289 22.7976 45.3697C22.8797 45.5341 22.9618 45.7397 22.8797 46.0273C22.6333 46.6439 22.2633 47.2602 21.8112 47.9589V48C21.7291 48.1234 21.647 48.2055 21.5649 48.3287C21.4004 48.5342 21.277 48.7397 21.1125 48.9863C21.0715 49.0274 21.0304 49.1095 20.9894 49.1918C20.9894 49.2329 20.9483 49.274 20.9483 49.274C20.6196 49.9727 20.8662 50.7535 21.4825 51.0411C21.6468 51.1232 21.8112 51.1645 21.9757 51.1645C22.4689 51.1645 22.962 50.8356 23.2086 50.3835C23.2086 50.3424 23.2497 50.3013 23.2497 50.3013C23.2907 50.2192 23.3318 50.1371 23.3728 50.0958C23.4963 49.8082 23.5373 49.6026 23.6194 49.3561L23.7428 48.9863C24.0305 48.1645 24.236 47.5068 24.6058 46.9315C24.77 46.6849 24.9758 46.6439 25.14 46.5615C25.181 46.5615 25.181 46.5615 25.2221 46.5205L25.51 45.9863C27.3182 46.6849 29.2909 47.0547 31.2633 47.0547C32.4551 47.0547 33.6881 46.9315 34.8389 46.6439C35.563 46.482 36.2767 46.2761 36.9758 46.0273L37.2221 46.4794C37.2634 46.4794 37.2634 46.4794 37.3045 46.5205C37.51 46.5615 37.6742 46.6439 37.8387 46.8905C38.1674 47.4658 38.414 48.1644 38.7016 48.9453V48.9863L38.825 49.3561C38.9071 49.6026 38.9482 49.8492 39.0713 50.0958C39.1127 50.1779 39.1537 50.2192 39.1948 50.3013C39.1948 50.3424 39.2361 50.3835 39.2361 50.3835C39.4824 50.8766 39.9756 51.1645 40.4687 51.1645C40.6332 51.1645 40.7977 51.1232 40.9619 51.0411C41.2495 50.8769 41.4961 50.63 41.5785 50.3013C41.6606 49.9727 41.6606 49.6027 41.4964 49.274C41.4964 49.2329 41.4551 49.2329 41.4551 49.1918C41.414 49.1097 41.373 49.0276 41.3319 48.9863C41.2085 48.7397 41.0443 48.5342 40.8798 48.3287C40.7977 48.2055 40.7156 48.1234 40.6335 48.0002V47.9589C40.1811 47.2602 39.77 46.6439 39.5648 46.0273C39.4827 45.7397 39.5648 45.5754 39.6058 45.3699C39.6058 45.3289 39.6469 45.3289 39.6469 45.2878L39.4413 44.7946C41.6195 43.5207 43.4688 41.7122 44.8662 39.4932C45.6059 38.3424 46.1812 37.0684 46.592 35.7945L47.0852 35.8766C47.1265 35.8766 47.1265 35.8355 47.1673 35.8355C47.3318 35.7534 47.4552 35.6302 47.7018 35.6302H47.7839C48.4415 35.7123 49.14 35.9587 49.921 36.2466H49.9621C50.0853 36.2876 50.2084 36.3697 50.3318 36.4108C50.5784 36.5342 50.7839 36.6163 51.0716 36.6987C51.1537 36.6987 51.2358 36.7397 51.3182 36.7397C51.3592 36.7397 51.4003 36.7397 51.4413 36.7808C51.5648 36.8218 51.6469 36.8218 51.7703 36.8218C52.3866 36.8218 52.9208 36.411 53.0853 35.8768C53.0853 35.3836 52.6332 34.726 51.8935 34.5207V34.5205ZM32.8659 32.5067L31.0577 33.3699L29.2496 32.5067L28.7977 30.5754L30.0304 29.0138H32.0441L33.277 30.5754L32.8662 32.5067H32.8659ZM43.5922 28.233C43.911 29.5919 44.0081 30.9934 43.8799 32.3833L37.5921 30.5754C37.0168 30.4112 36.6881 29.8356 36.8113 29.2604C36.8523 29.0959 36.9347 28.9314 37.0579 28.8082L42.0306 24.3287C42.729 25.4795 43.2633 26.7945 43.5922 28.2327V28.233ZM40.0579 21.8631L34.6744 25.685C34.2223 25.9727 33.6057 25.8903 33.2359 25.4384C33.1128 25.315 33.0717 25.1505 33.0304 24.9863L32.6607 18.2875C35.4595 18.6098 38.0667 19.87 40.0579 21.8631V21.8631ZM28.14 18.4928C28.5922 18.4107 29.003 18.3286 29.4551 18.2464L29.0853 24.8216C29.0443 25.3969 28.5922 25.89 27.9756 25.89C27.8114 25.89 27.6058 25.849 27.4824 25.7669L22.0168 21.8631C23.7018 20.1781 25.7976 19.0272 28.14 18.493V18.4928ZM20.0441 24.3284L24.9345 28.6846C25.3866 29.0546 25.4276 29.753 25.0579 30.2051C24.9345 30.3694 24.7702 30.4928 24.5647 30.5341L18.1948 32.3833C17.9483 29.5888 18.5646 26.7532 20.0441 24.3284V24.3284ZM18.9343 35.4655L25.4689 34.3558C26.0032 34.3147 26.4963 34.6847 26.6195 35.2189C26.6605 35.4653 26.6605 35.671 26.5784 35.8766L24.0715 41.9175C21.7702 40.438 19.9209 38.1777 18.9346 35.4655H18.9343ZM33.9346 43.6436C32.9894 43.8491 32.0441 43.9723 31.0577 43.9723C29.6196 43.9723 28.2222 43.7259 26.9074 43.3149L30.1538 37.4382C30.4825 37.0682 31.0167 36.904 31.4688 37.1505C31.6607 37.2681 31.8281 37.4215 31.962 37.6024L35.1263 43.3149C34.7565 43.4381 34.3455 43.5204 33.9344 43.6436H33.9346ZM41.9482 37.9313C40.9208 39.5751 39.5645 40.8901 38.0032 41.9175L35.4141 35.7118C35.2907 35.2189 35.4963 34.6847 35.9894 34.4379C36.1536 34.3558 36.3592 34.3147 36.5647 34.3147L43.1401 35.4245C42.8935 36.3284 42.4825 37.1505 41.9482 37.9313V37.9313Z" fill="white"/>
</g></a>
</svg>
