<svg width="63" height="60" viewBox="0 0 63 60" fill="none" xmlns="http://www.w3.org/2000/svg">
<g opacity="0.15">
<path d="M19.9646 60C18.4851 60 17.088 59.3426 16.1427 58.1507L1.75946 40.274C0.814183 39.0822 0.444432 37.5619 0.814183 36.0821L5.95114 13.7671C6.27984 12.2876 7.26617 11.0958 8.62251 10.4384L29.4169 0.492919C30.0746 0.164472 30.8143 0 31.5541 0C32.2938 0 33.0333 0.164223 33.691 0.493168L54.4856 10.3973C55.8417 11.0547 56.828 12.2466 57.1567 13.7261L62.2937 36.0411C62.6226 37.5206 62.2937 39.0411 61.3487 40.233L46.9649 58.1097C46.0196 59.2603 44.6225 59.9589 43.143 59.9589L19.9651 60H19.9646Z" fill="#0D2743"/>
<path d="M52.3485 34.5205C52.3075 34.5205 52.3075 34.5205 52.3485 34.5205H52.3075C52.2664 34.5205 52.2254 34.5205 52.2254 34.4794C52.1432 34.4794 52.0611 34.4384 51.9788 34.4384C51.6911 34.3973 51.4446 34.3563 51.198 34.3563C51.0746 34.3563 50.9514 34.3563 50.7869 34.3149H50.7459C49.8829 34.2328 49.1842 34.1507 48.5266 33.9452C48.239 33.8218 48.1569 33.6576 48.0745 33.4931C48.0745 33.452 48.0334 33.452 48.0334 33.411L47.4992 33.2467C47.7516 31.3135 47.6542 29.3506 47.2116 27.4519C46.7629 25.5374 45.9841 23.7156 44.9102 22.0684L45.3213 21.6986V21.6165C45.3213 21.411 45.3623 21.2054 45.5265 20.9999C46.0197 20.5478 46.6363 20.1781 47.376 19.7259C47.4992 19.6438 47.6224 19.6028 47.7458 19.5204C47.9924 19.3972 48.1979 19.2741 48.4445 19.1096C48.4856 19.0686 48.5677 19.0275 48.65 18.9454C48.6911 18.9041 48.7321 18.9041 48.7321 18.863C49.3074 18.3699 49.4308 17.548 49.0198 17.0135C48.8142 16.7259 48.4445 16.5617 48.0745 16.5617C47.746 16.5617 47.4582 16.6848 47.1705 16.8904L47.0884 16.9725C47.0063 17.0135 46.965 17.0959 46.8829 17.1369C46.6774 17.3425 46.5129 17.5067 46.3487 17.7122C46.2665 17.7943 46.1844 17.9177 46.061 17.9999C45.4855 18.6164 44.9513 19.1096 44.417 19.4794C44.2939 19.5615 44.1707 19.6028 44.0473 19.6028C43.9652 19.6028 43.8828 19.6028 43.8007 19.5615H43.7186L43.2252 19.8904C42.691 19.3151 42.1157 18.822 41.5404 18.3288C39.0632 16.3925 36.082 15.2085 32.9513 14.9177L32.9102 14.3835L32.8281 14.3013C32.7047 14.1779 32.5405 14.0548 32.4992 13.7671C32.4581 13.1095 32.5405 12.3697 32.6226 11.5479V11.5068C32.6226 11.3834 32.6636 11.2192 32.7047 11.0958C32.7457 10.8494 32.7868 10.6026 32.8281 10.3149V9.9452C32.8281 9.20545 32.2526 8.58911 31.5541 8.58911C31.2252 8.58911 30.8965 8.75333 30.6499 8.99992C30.4036 9.2465 30.2802 9.5752 30.2802 9.9452V10.2739C30.2802 10.5615 30.3212 10.8081 30.4033 11.0547C30.4444 11.1781 30.4444 11.3013 30.4854 11.4658V11.5068C30.5675 12.3287 30.691 13.0684 30.6089 13.7261C30.5678 14.0137 30.4033 14.1369 30.2802 14.2603L30.198 14.3424L30.1567 14.8766C29.417 14.9587 28.6772 15.0408 27.9375 15.2053C24.7732 15.904 21.9787 17.5069 19.8007 19.8081L19.3897 19.5204H19.3076C19.2254 19.5204 19.1431 19.5615 19.061 19.5615C18.9376 19.5615 18.8144 19.5204 18.691 19.4383C18.1567 19.0686 17.6225 18.5341 17.0472 17.9177C16.9651 17.8356 16.883 17.7122 16.7596 17.6301C16.5951 17.4246 16.4307 17.2601 16.2251 17.0548C16.1841 17.0135 16.102 16.9727 16.0199 16.8904C15.9788 16.8493 15.9377 16.8493 15.9377 16.8082C15.6831 16.5979 15.3638 16.4817 15.0335 16.4793C14.6635 16.4793 14.2938 16.6438 14.0882 16.9314C13.6772 17.4656 13.8006 18.2875 14.3759 18.7807C14.4169 18.7807 14.4169 18.822 14.458 18.822C14.5401 18.863 14.5814 18.9451 14.6635 18.9862C14.9101 19.1504 15.1156 19.2738 15.3622 19.3972C15.4856 19.4383 15.6088 19.5204 15.7322 19.6028C16.4717 20.0546 17.0883 20.4246 17.5815 20.8767C17.787 21.082 17.787 21.2876 17.787 21.4931V21.5752L18.1978 21.9452C18.1157 22.0684 18.0336 22.1507 17.9923 22.2739C15.9375 25.5205 15.1567 29.3425 15.6909 33.1233L15.1567 33.2876C15.1567 33.3289 15.1156 33.3289 15.1156 33.3697C15.0335 33.5341 14.9101 33.6986 14.6635 33.8218C14.0472 34.0273 13.3074 34.1097 12.4445 34.1918H12.4032C12.28 34.1918 12.1156 34.1918 11.9924 34.2328C11.7458 34.2328 11.4992 34.2739 11.2116 34.3149C11.1295 34.3149 11.0474 34.3563 10.965 34.3563C10.924 34.3563 10.8829 34.3563 10.8416 34.3973C10.1018 34.5615 9.64973 35.2602 9.77315 35.9176C9.89656 36.4931 10.4308 36.8631 11.0882 36.8631C11.2116 36.8631 11.2937 36.8631 11.4171 36.8218C11.4582 36.8218 11.4992 36.8218 11.4992 36.7808C11.5813 36.7808 11.6635 36.7397 11.7456 36.7397C12.0335 36.6576 12.239 36.5755 12.4856 36.4521C12.6087 36.411 12.7319 36.3287 12.8553 36.2879H12.8964C13.6772 36 14.3759 35.7534 15.0335 35.6713H15.1156C15.3622 35.6713 15.5267 35.7945 15.6499 35.8768C15.6909 35.8768 15.6909 35.9179 15.732 35.9179L16.3075 35.8358C17.2938 38.8766 19.1841 41.5891 21.691 43.5617C22.2663 44.0136 22.8416 44.3836 23.4582 44.7536L23.2116 45.2876C23.2116 45.3289 23.2526 45.3289 23.2526 45.3697C23.3348 45.5341 23.4169 45.7397 23.3348 46.0273C23.0884 46.6439 22.7184 47.2602 22.2663 47.9589V48C22.1842 48.1234 22.1021 48.2055 22.02 48.3287C21.8555 48.5342 21.7321 48.7397 21.5676 48.9863C21.5266 49.0274 21.4855 49.1095 21.4444 49.1918C21.4444 49.2329 21.4034 49.274 21.4034 49.274C21.0747 49.9727 21.3213 50.7535 21.9376 51.0411C22.1018 51.1232 22.2663 51.1645 22.4308 51.1645C22.924 51.1645 23.4171 50.8356 23.6637 50.3835C23.6637 50.3424 23.7048 50.3013 23.7048 50.3013C23.7458 50.2192 23.7869 50.1371 23.8279 50.0958C23.9513 49.8082 23.9924 49.6026 24.0745 49.3561L24.1979 48.9863C24.4856 48.1645 24.6911 47.5068 25.0608 46.9315C25.2251 46.6849 25.4308 46.6439 25.5951 46.5615C25.6361 46.5615 25.6361 46.5615 25.6772 46.5205L25.9651 45.9863C27.7733 46.6849 29.7459 47.0547 31.7184 47.0547C32.9102 47.0547 34.1431 46.9315 35.2939 46.6439C36.0181 46.482 36.7317 46.2761 37.4308 46.0273L37.6772 46.4794C37.7185 46.4794 37.7185 46.4794 37.7595 46.5205C37.9651 46.5615 38.1293 46.6439 38.2938 46.8905C38.6224 47.4658 38.869 48.1644 39.1567 48.9453V48.9863L39.2801 49.3561C39.3622 49.6026 39.4033 49.8492 39.5264 50.0958C39.5677 50.1779 39.6088 50.2192 39.6498 50.3013C39.6498 50.3424 39.6911 50.3835 39.6911 50.3835C39.9375 50.8766 40.4307 51.1645 40.9238 51.1645C41.0883 51.1645 41.2528 51.1232 41.417 51.0411C41.7046 50.8769 41.9512 50.63 42.0336 50.3013C42.1157 49.9727 42.1157 49.6027 41.9515 49.274C41.9515 49.2329 41.9102 49.2329 41.9102 49.1918C41.8691 49.1097 41.828 49.0276 41.787 48.9863C41.6636 48.7397 41.4993 48.5342 41.3349 48.3287C41.2528 48.2055 41.1707 48.1234 41.0885 48.0002V47.9589C40.6362 47.2602 40.2251 46.6439 40.0198 46.0273C39.9377 45.7397 40.0198 45.5754 40.0609 45.3699C40.0609 45.3289 40.102 45.3289 40.102 45.2878L39.8964 44.7946C42.0746 43.5207 43.9239 41.7122 45.3213 39.4932C46.061 38.3424 46.6363 37.0684 47.0471 35.7945L47.5403 35.8766C47.5816 35.8766 47.5816 35.8355 47.6224 35.8355C47.7869 35.7534 47.9103 35.6302 48.1569 35.6302H48.239C48.8966 35.7123 49.5951 35.9587 50.3761 36.2466H50.4172C50.5403 36.2876 50.6635 36.3697 50.7869 36.4108C51.0335 36.5342 51.239 36.6163 51.5267 36.6987C51.6088 36.6987 51.6909 36.7397 51.7733 36.7397C51.8143 36.7397 51.8554 36.7397 51.8964 36.7808C52.0198 36.8218 52.1019 36.8218 52.2254 36.8218C52.8417 36.8218 53.3759 36.411 53.5404 35.8768C53.5404 35.3836 53.0883 34.726 52.3485 34.5207V34.5205ZM33.321 32.5067L31.5128 33.3699L29.7046 32.5067L29.2528 30.5754L30.4854 29.0138H32.4992L33.7321 30.5754L33.3213 32.5067H33.321ZM44.0473 28.233C44.3661 29.5919 44.4632 30.9934 44.3349 32.3833L38.0472 30.5754C37.4719 30.4112 37.1432 29.8356 37.2664 29.2604C37.3074 29.0959 37.3898 28.9314 37.5129 28.8082L42.4857 24.3287C43.1841 25.4795 43.7183 26.7945 44.0473 28.2327V28.233ZM40.513 21.8631L35.1295 25.685C34.6774 25.9727 34.0608 25.8903 33.691 25.4384C33.5679 25.315 33.5268 25.1505 33.4855 24.9863L33.1157 18.2875C35.9145 18.6098 38.5218 19.87 40.513 21.8631ZM28.5951 18.4928C29.0472 18.4107 29.458 18.3286 29.9102 18.2464L29.5404 24.8216C29.4994 25.3969 29.0472 25.89 28.4307 25.89C28.2664 25.89 28.0609 25.849 27.9375 25.7669L22.4718 21.8631C24.1569 20.1781 26.2527 19.0272 28.5951 18.493V18.4928ZM20.4992 24.3284L25.3895 28.6846C25.8417 29.0546 25.8827 29.753 25.513 30.2051C25.3895 30.3694 25.2253 30.4928 25.0198 30.5341L18.6499 32.3833C18.4033 29.5888 19.0197 26.7532 20.4992 24.3284ZM19.3894 35.4655L25.924 34.3558C26.4582 34.3147 26.9514 34.6847 27.0746 35.2189C27.1156 35.4653 27.1156 35.671 27.0335 35.8766L24.5266 41.9175C22.2253 40.438 20.376 38.1777 19.3897 35.4655H19.3894ZM34.3897 43.6436C33.4444 43.8491 32.4992 43.9723 31.5128 43.9723C30.0746 43.9723 28.6772 43.7259 27.3625 43.3149L30.6089 37.4382C30.9375 37.0682 31.4718 36.904 31.9239 37.1505C32.1158 37.2681 32.2832 37.4215 32.4171 37.6024L35.5813 43.3149C35.2116 43.4381 34.8005 43.5204 34.3895 43.6436H34.3897ZM42.4033 37.9313C41.3759 39.5751 40.0196 40.8901 38.4582 41.9175L35.8692 35.7118C35.7458 35.2189 35.9513 34.6847 36.4445 34.4379C36.6087 34.3558 36.8143 34.3147 37.0198 34.3147L43.5952 35.4245C43.3486 36.3284 42.9375 37.1505 42.4033 37.9313Z" fill="white"/>
</g>
</svg>
