<svg width="86" height="86" viewBox="0 0 86 86" fill="none" xmlns="http://www.w3.org/2000/svg">
<path fill-rule="evenodd" clip-rule="evenodd" d="M49.9785 13.1667L61.1545 17.0205C62.5158 17.4899 63.3516 18.8603 63.1457 20.2855L61.848 29.2697C60.8485 36.1891 56.4923 42.1668 50.2114 45.2374C49.4473 45.611 48.5536 45.611 47.7896 45.2374C41.5087 42.1668 37.1524 36.1891 36.153 29.2697L34.8552 20.2855C34.6494 18.8603 35.4852 17.4899 36.8465 17.0205L48.0225 13.1667C48.6562 12.9482 49.3448 12.9482 49.9785 13.1667ZM49.0005 21C47.8959 21 47.0005 21.8954 47.0005 23V25H45.0005C43.8959 25 43.0005 25.8954 43.0005 27C43.0005 28.1046 43.8959 29 45.0005 29H47.0005V31C47.0005 32.1046 47.8959 33 49.0005 33C50.1051 33 51.0005 32.1046 51.0005 31V29H53.0005C54.1051 29 55.0005 28.1046 55.0005 27C55.0005 25.8954 54.1051 25 53.0005 25H51.0005V23C51.0005 21.8954 50.1051 21 49.0005 21Z" fill="#2A7DEC"/>
<path d="M11.5 52.5C9.84315 52.5 8.5 53.8431 8.5 55.5V70.5C8.5 72.1569 9.84315 73.5 11.5 73.5H16.5C18.1569 73.5 19.5 72.1569 19.5 70.5V55.5C19.5 53.8431 18.1569 52.5 16.5 52.5H11.5Z" fill="#2A7DEC"/>
<path d="M50.4554 8.24197C49.5118 7.91934 48.4876 7.91934 47.544 8.24197L32.8796 13.2554C30.8244 13.9581 29.5643 16.0284 29.8844 18.1767L31.761 30.7707C31.9419 31.985 32.2121 33.1741 32.5658 34.33C32.8081 35.1222 33.6468 35.5678 34.439 35.3255C35.2312 35.0831 35.6769 34.2444 35.4345 33.4522C35.1242 32.4381 34.887 31.3946 34.7282 30.3286L32.8517 17.7345C32.745 17.0184 33.165 16.3283 33.8501 16.0941L48.5145 11.0807C48.829 10.9731 49.1704 10.9731 49.4849 11.0807L64.1493 16.0941C64.8344 16.3283 65.2544 17.0184 65.1477 17.7345C65.0256 18.5539 65.5909 19.3171 66.4103 19.4392C67.2297 19.5613 67.9929 18.996 68.115 18.1767C68.435 16.0284 67.175 13.9581 65.1198 13.2554L50.4554 8.24197Z" fill="#305680"/>
<path d="M66.8672 26.5505C66.9893 25.7311 66.4241 24.9679 65.6047 24.8458C64.7853 24.7238 64.0221 25.289 63.9 26.1084L63.2712 30.3286C62.2244 37.3539 57.7754 43.409 51.3837 46.5071L49.654 47.3455C49.2408 47.5457 48.7586 47.5457 48.3454 47.3455L46.6157 46.5071C45.204 45.8228 43.8873 44.9944 42.6811 44.0434C41.3761 43.0144 40.2003 41.8415 39.1736 40.552C38.6576 39.9039 37.7139 39.7967 37.0658 40.3127C36.4177 40.8287 36.3106 41.7724 36.8266 42.4205C37.9964 43.8898 39.3363 45.2263 40.8236 46.3991C42.1984 47.4831 43.699 48.4271 45.3072 49.2067L47.0369 50.0451C48.2765 50.6459 49.7229 50.6459 50.9625 50.0451L52.6922 49.2067C59.9757 45.6762 65.0456 38.7764 66.2384 30.7707L66.8672 26.5505Z" fill="#305680"/>
<path d="M11.5 51C9.01472 51 7 53.0147 7 55.5V62.5C7 63.3284 7.67157 64 8.5 64C9.32843 64 10 63.3284 10 62.5V55.5C10 54.6716 10.6716 54 11.5 54H16.5C17.3284 54 18 54.6716 18 55.5V57.5C18 58.3284 18.6716 59 19.5 59C20.3284 59 21 58.3284 21 57.5V57H23.4101C23.9944 57 24.5731 56.8862 25.1139 56.665L27.7738 55.5769C32.0557 53.8252 36.955 54.5817 40.509 57.5434L42.293 59.0301C43.0451 59.6568 43.993 60 44.972 60H53.5C54.8807 60 56 61.1193 56 62.5C56 63.8807 54.8807 65 53.5 65H39.5C38.6716 65 38 65.6716 38 66.5C38 67.3285 38.6716 68 39.5 68H53.5C56.5376 68 59 65.5376 59 62.5C59 62.1497 58.9672 61.807 58.9046 61.4748L71.4549 55.1996C72.4159 54.7192 73.5815 54.9685 74.2619 55.8C75.1052 56.8308 74.8988 58.3602 73.8124 59.1306L54.2689 72.9887C51.701 74.8096 48.4516 75.3823 45.4159 74.5489L25.7869 69.1606C25.3988 69.0541 24.9982 69.0001 24.5957 69.0001H21V66.5C21 65.6716 20.3284 65 19.5 65C18.6716 65 18 65.6716 18 66.5V70.5C18 71.3284 17.3284 72 16.5 72H11.5C10.6716 72 10 71.3284 10 70.5V69.5C10 68.6716 9.32843 68 8.5 68C7.67157 68 7 68.6716 7 69.5V70.5C7 72.9853 9.01472 75 11.5 75H16.5C18.4593 75 20.1261 73.7478 20.7439 72.0001H24.5957C24.7299 72.0001 24.8634 72.0181 24.9928 72.0536L44.6218 77.4419C48.5248 78.5133 52.7026 77.777 56.0042 75.4359L75.5477 61.5778C78.052 59.802 78.5278 56.2763 76.5837 53.9003C75.0154 51.9835 72.3285 51.4088 70.1133 52.5164L57.5621 58.792C56.5563 57.6908 55.1088 57 53.5 57H44.972C44.6948 57 44.4265 56.9029 44.2136 56.7255L42.4296 55.2388C38.0225 51.5662 31.9475 50.6281 26.6379 52.8002L23.978 53.8884C23.7978 53.9621 23.6049 54 23.4101 54H20.744C20.1262 52.2522 18.4593 51 16.5 51H11.5Z" fill="#305680"/>
</svg>
