<svg width="61" height="60" viewBox="0 0 61 60" fill="none" xmlns="http://www.w3.org/2000/svg" xmlns:xlink="http://www.w3.org/1999/xlink">
<style>
svg .img {
opacity: 0;
transition-duration: 0.5s;
}
svg .img:hover {
opacity: 1;
transition-duration: 0.3s;
}
</style>
<g opacity="0.15">
<path fill-rule="evenodd" clip-rule="evenodd" d="M47.4939 43.6668C47.4884 43.7135 47.4837 43.7534 47.4802 43.7884C47.3257 50.0533 46.3203 53.6516 44.7447 55.8917C42.9374 58.491 40.6849 59.1796 38.1525 59.7225C31.6375 61.1191 30.2649 56.9098 29.501 54.5434C29.486 54.5011 29.4719 54.4606 29.4582 54.4212C29.4279 54.3342 29.3994 54.2521 29.3663 54.1653C29.0375 53.2637 28.8248 52.1288 28.6796 50.8486C28.5442 49.6269 28.477 48.3662 28.4281 47.0954C28.4171 46.883 28.4094 46.6187 28.401 46.3326C28.3948 46.1227 28.3883 45.9011 28.38 45.6797C28.3706 45.3112 28.3897 44.9619 28.4188 44.6421C27.6966 44.964 26.9366 45.1921 26.1569 45.321C24.1656 45.6602 22.3769 45.3404 21.3041 45.0686C20.4054 44.8458 19.265 44.322 18.5593 43.6525C18.4432 43.5458 18.3276 43.42 18.2305 43.3036C17.6316 43.7982 17.0128 44.1471 16.3844 44.3703C14.0457 45.2143 11.9864 44.3317 10.1985 42.3338C8.90284 40.8986 7.74299 38.7846 6.71824 36.3501C3.7604 29.3094 1.80791 19.1554 1.68252 16.6531C0.638725 -4.27617 19.4008 0.728029 24.5138 2.47397C25.4113 1.93771 26.3728 1.51739 27.3754 1.22302C28.7673 0.806284 30.3134 0.582752 32.0245 0.611957C32.8943 0.621692 33.7549 0.680102 34.6248 0.767343C35.2271 0.832716 35.8268 0.920015 36.4228 1.02907C38.5107 0.42774 43.4017 -0.648733 48.312 0.524716C51.6758 1.32973 55.117 3.11424 57.9009 6.67353C59.7373 9.03016 59.7183 14.3931 58.017 20.5613C56.7896 25.0226 54.721 30.056 51.908 34.7401C52.5364 34.5851 53.5321 34.372 55.1076 34.0422C56.335 33.7898 57.2922 33.877 57.9882 34.2166C59.1962 34.7985 59.7183 35.7585 59.6313 37.0098C59.5925 37.6501 59.3317 38.2806 58.9062 38.8816C58.2006 39.8416 56.6638 41.054 54.8367 41.9073C53.9474 42.3147 52.7973 42.6348 51.6083 42.8385C50.4096 43.0418 49.1625 43.1291 48.0896 43.0808H47.9832L47.5675 43.0418C47.5578 43.1388 47.5481 43.2358 47.5287 43.3425C47.5162 43.4789 47.5038 43.5836 47.4939 43.6668ZM47.1675 35.2465C46.0881 35.5527 44.5407 36.1165 44.703 39.2509C44.6267 40.1784 44.3401 42.787 44.0156 45.3292C43.7479 47.4124 43.4613 49.5147 43.2607 50.719C42.9742 52.3628 42.5254 53.5479 41.7133 54.3796C40.9109 55.2208 39.6884 55.7746 37.8828 56.1665C35.8199 56.6063 34.5207 56.176 33.6803 55.4595C32.8111 54.7234 32.3523 53.6626 32.0658 52.9461C31.7984 52.258 31.5978 50.4231 31.4831 47.9669C31.3688 45.5011 31.3496 42.4716 31.4163 39.404C31.4171 39.3547 31.4179 39.3057 31.4187 39.2569C31.4288 38.6544 31.4383 38.0953 31.2349 37.5116C30.9864 36.833 30.5471 36.2213 30.0028 35.8295C29.4965 35.4664 28.7707 35.2181 28.1497 35.2753C28.0339 35.2855 27.919 35.3046 27.806 35.3325C27.9119 34.9126 28.0638 34.4551 28.2368 33.9691C28.4536 33.3588 28.5056 33.1763 28.5705 32.9985C28.6475 32.7879 28.7426 32.5839 29.1521 31.6819C30.1843 29.3788 31.5023 26.4352 30.0316 19.602C29.6112 17.6908 28.5414 16.6872 27.1946 16.2665C26.3346 15.9994 25.3795 15.9802 24.4339 16.1234C23.5264 16.2669 22.6188 16.5444 21.8171 16.8691C21.314 17.0786 20.8284 17.3278 20.3648 17.6144C20.6798 13.6196 22.4186 4.12021 31.9607 4.28256C39.8698 4.4069 44.3114 9.59602 46.3562 13.3133C46.8721 14.2402 47.2254 15.0718 47.4452 15.7024L47.4473 15.7078C47.4655 15.754 47.4836 15.8001 47.4928 15.8459C42.8219 15.3585 40.9496 16.9834 40.5579 19.4393C40.004 22.8895 42.8123 27.9258 44.2354 30.4776C44.2684 30.5371 44.3006 30.5951 44.3321 30.6517C44.6188 31.1679 44.8361 31.5592 44.9136 31.7487C45.4767 33.115 46.1744 33.9946 46.7283 34.6731C46.7637 34.7185 46.7984 34.7627 46.8321 34.8057C46.9614 34.9708 47.0765 35.1177 47.1675 35.2465ZM26.755 38.42C25.7424 39.7102 25.4267 40.1017 22.2843 40.7518C21.7212 40.8662 21.3384 40.9905 21.1094 41.1053C21.396 41.306 21.8355 41.4875 22.2172 41.5835C22.9916 41.7746 24.2809 42.0133 25.6465 41.7746C26.9932 41.5451 28.4359 40.8573 29.6108 39.2228C29.8502 38.8885 29.8018 38.4299 29.6779 38.0569C29.5441 37.6938 29.3151 37.3688 29.0477 37.1777C28.8467 37.0341 28.5218 36.9098 28.2928 36.929C28.1515 36.938 28.0187 36.9994 27.9203 37.1013C27.5068 37.518 27.1177 37.9583 26.755 38.42ZM20.6507 34.0713C20.8787 34.3181 21.1211 34.5511 21.3768 34.7691C19.8446 36.4012 18.3634 38.0807 16.9356 39.8051C16.4097 40.436 15.9133 40.8182 15.4546 40.9809C14.6141 41.2868 13.7449 40.8278 12.8949 39.8818C11.873 38.7447 10.9076 36.9766 10.0391 34.9122C7.26885 28.3465 5.44452 18.9331 5.32983 16.63C4.54618 0.841953 18.9034 4.34934 23.3446 5.81155C18.4258 10.6476 18.6449 19.2965 18.6548 19.3633C18.6464 19.5419 18.659 19.7624 18.675 20.042C18.6778 20.091 18.6807 20.1418 18.6836 20.1946C18.7695 21.542 18.9222 24.1322 18.521 27.0086C18.4194 27.7082 18.4034 28.4175 18.4734 29.1209C18.6548 31.0418 19.4573 32.7619 20.6507 34.0713ZM47.7981 12.5208C46.2508 9.69159 43.4233 6.08901 38.9243 4.10102C41.0831 3.66122 44.5599 3.27897 48.0463 4.28292C50.5016 4.99982 52.9658 6.40447 54.9812 8.97542C56.1465 10.4756 55.9267 14.6427 54.5132 19.7555C53.2907 24.1993 51.1511 29.274 48.2185 33.8902C48.1536 33.8159 48.0884 33.7322 48.0234 33.6489L48.0179 33.6419C47.9895 33.6131 47.9608 33.5747 47.932 33.5363C49.6321 30.7458 49.3075 28.0509 49.0018 25.5184C48.8775 24.5244 48.7629 23.5687 48.7916 22.6607C48.8283 21.7479 48.9429 20.9658 49.0531 20.2145C49.0583 20.1793 49.0634 20.1441 49.0686 20.109C49.2312 19.0958 49.3747 18.1306 49.3363 16.955C49.3363 16.9409 49.3386 16.9266 49.3409 16.9123C49.3432 16.8979 49.3455 16.8835 49.3455 16.8691C49.3935 16.592 49.2884 15.961 49.0018 15.1585C48.6766 14.2465 48.2739 13.3641 47.7981 12.5208ZM20.3241 19.8415C20.3157 19.6789 20.3073 19.5162 20.3073 19.3537C20.3165 19.3153 21.2333 18.8951 22.4381 18.3977C23.1355 18.1206 23.9092 17.8723 24.6733 17.7575C25.3994 17.652 26.106 17.652 26.7074 17.8435C27.5003 18.0918 28.1501 18.7227 28.4079 19.9459C29.7734 26.2633 28.5801 28.9198 27.6438 31.0034C27.1669 32.053 27.0243 32.4574 26.8445 32.9672C26.8004 33.0922 26.7541 33.2235 26.7001 33.3721C26.5006 33.9204 26.3261 34.4444 26.2015 34.9502L26.1836 34.9495C25.9406 34.9402 25.6892 34.9305 25.4466 34.893C24.0707 34.7015 22.8194 33.9946 21.8739 32.953C20.8682 31.8527 20.2508 30.4528 20.1163 28.9678C20.0588 28.4136 20.0691 27.8307 20.1546 27.2381C20.5846 24.1705 20.4216 21.4848 20.3361 20.099C20.3329 20.0132 20.3285 19.9274 20.3241 19.8415ZM27.1946 18.9427C26.6455 18.6471 25.8165 18.5349 25.2073 18.6656C24.7821 18.7718 24.6006 18.9795 24.587 19.2279C24.5733 19.4762 24.729 19.7647 24.9782 20.0322C25.236 20.2997 25.5993 20.5388 26.0097 20.596H26.0197C26.4397 20.6535 26.8317 20.51 27.1183 20.3189C27.4236 20.1086 27.6246 19.8219 27.6526 19.6212C27.6814 19.3633 27.5095 19.1242 27.1946 18.9427ZM42.1813 19.6979C42.4391 18.0826 43.9005 17.0502 47.6831 17.5188C47.6739 18.3501 47.5592 19.0958 47.4345 19.8695C47.4303 19.8979 47.426 19.9264 47.4218 19.9549C47.3016 20.7608 47.1754 21.6064 47.1384 22.6124C47.1106 23.5964 47.2291 24.6081 47.3509 25.6471L47.3582 25.7091C47.6064 27.7543 47.8641 29.9142 46.871 32.0166C46.7184 31.7491 46.5749 31.4432 46.4318 31.1181C46.3075 30.8222 46.0398 30.3252 45.6769 29.6847C44.3401 27.2861 41.7225 22.584 42.1813 19.6979ZM48.0026 36.7244C48.0542 36.7094 48.1042 36.6949 48.1514 36.6803C50.0976 38.1505 53.353 37.5438 55.5053 37.1427L55.5255 37.1389C55.0099 37.6359 54.1695 38.1997 53.1664 38.6683C52.1917 39.1169 50.6635 39.4232 49.2308 39.5088C48.4092 39.5475 47.6355 39.5283 47.0528 39.404C46.6804 39.3368 46.4322 39.2605 46.3555 39.1841C46.2604 37.2244 47.1591 36.9693 47.7326 36.8065L47.7406 36.8043C47.8293 36.7747 47.9182 36.7489 48.0026 36.7244ZM45.7924 19.3825C46.031 19.1338 46.1744 18.8375 46.1457 18.6656C46.1165 18.4648 45.9259 18.3217 45.6305 18.2545C45.3727 18.1874 45.0286 18.1778 44.6658 18.2258C44.3025 18.2829 43.978 18.3881 43.7486 18.5124C43.4735 18.67 43.3625 18.8471 43.3654 19.0235C43.3699 19.2814 43.6188 19.5378 43.9584 19.7263C44.2468 19.8817 44.5356 19.9374 44.8122 19.9064C45.1677 19.8665 45.5032 19.6832 45.7924 19.3825ZM55.1434 35.5335C50.8162 36.432 49.5266 35.8682 49.1445 35.5048C52.4019 30.5544 54.771 25.0114 56.0986 20.1938C57.6459 14.5937 57.7702 9.87238 56.28 7.96114C54.0161 5.07509 51.2554 3.49814 48.5047 2.70486C44.3401 1.50093 40.2327 2.09312 37.9879 2.61889C37.947 2.62801 37.9083 2.63656 37.8715 2.64469C37.7534 2.67078 37.655 2.69251 37.5675 2.71445C37.5196 2.73364 36.6696 2.97273 36.0677 3.13507C34.8165 2.82883 33.4505 2.6473 31.9891 2.62848C28.971 2.58089 26.64 3.34538 24.8344 4.5781C21.7972 3.45054 2.70267 -2.86652 3.67661 16.706C3.80125 19.0858 5.67316 28.8051 8.51974 35.5524C9.46529 37.7883 10.5163 39.7095 11.6621 40.9902C12.9801 42.4428 14.4231 43.1021 15.9989 42.5383C16.7435 42.2709 17.4891 41.7355 18.2049 40.8658C20.221 38.4384 22.0642 36.4412 22.7519 35.7147C23.5195 36.1282 24.3539 36.4031 25.2168 36.5268C25.486 36.5641 25.7569 36.5865 26.0285 36.594C26.0285 36.6323 26.0285 36.6703 26.0377 36.7087C25.8362 36.9317 25.6418 37.1612 25.4551 37.3968C24.7293 38.324 24.5003 38.6107 21.9591 39.1361C20.8133 39.3752 20.1255 39.6903 19.7531 40.0441C19.3614 40.4072 19.2375 40.8179 19.2943 41.2389C19.3518 41.6019 19.5429 41.9166 19.8294 42.1845C20.3165 42.6431 21.1478 43.0162 21.8167 43.1881C22.7335 43.4176 24.2621 43.6947 25.933 43.4084C27.1942 43.1881 28.5215 42.6531 29.7251 41.5635C29.7063 43.8958 29.7447 46.1417 29.8302 48.0433C29.9541 50.6526 30.1839 52.6882 30.5372 53.5575C30.8908 54.4367 31.4447 55.7462 32.6101 56.7306C33.7942 57.725 35.5522 58.3555 38.2265 57.7821C40.3662 57.3232 41.8465 56.6254 42.9071 55.5267C43.9677 54.4279 44.5404 52.9749 44.8844 50.9969C45.0847 49.8309 45.3808 47.6902 45.6485 45.5303C45.868 43.8098 46.0689 42.1089 46.2024 40.8953C46.3651 40.9429 46.5465 40.9905 46.7279 41.0289C47.4633 41.1721 48.3708 41.2104 49.3164 41.1628C50.9309 41.0673 52.6981 40.7039 53.8538 40.1689C55.4108 39.4424 56.6809 38.4676 57.2351 37.7031C57.4741 37.368 57.6172 37.0434 57.6364 36.7279C57.6747 36.2121 57.4549 35.8202 56.9582 35.5815C56.5761 35.4 55.9839 35.3616 55.1434 35.5335Z" fill="#0D2743"/>
</g>
<a xlink:href="https://www.postgresql.org/" target="_blank" xlink:title="PostgreSQL" xlink:alt="PostgreSQL">
<g class="img">
<rect width="61" height="60" fill="white" opacity="0"/><path fill-rule="evenodd" clip-rule="evenodd" d="M47.4802 43.7884C47.4899 43.6911 47.5093 43.5556 47.5287 43.3425C47.5481 43.2358 47.5578 43.1388 47.5675 43.0418L47.9832 43.0808H48.0896C49.1625 43.1291 50.4096 43.0418 51.6083 42.8385C52.7973 42.6348 53.9474 42.3147 54.8367 41.9073C56.6638 41.054 58.2006 39.8416 58.9062 38.8816C59.3317 38.2806 59.5925 37.6501 59.6313 37.0098C59.7183 35.7585 59.1962 34.7985 57.9882 34.2166C57.2922 33.877 56.335 33.7898 55.1076 34.0422C53.5321 34.372 52.5364 34.5851 51.908 34.7401C54.721 30.056 56.7896 25.0226 58.017 20.5613C59.7183 14.3931 59.7373 9.03016 57.9009 6.67353C55.117 3.11424 51.6758 1.32973 48.312 0.524716C43.4017 -0.648733 38.5107 0.42774 36.4228 1.02907C35.8268 0.920015 35.2271 0.832716 34.6248 0.767343C33.7549 0.680102 32.8943 0.621692 32.0245 0.611957C30.3134 0.582752 28.7673 0.806284 27.3754 1.22302C26.3728 1.51739 25.4113 1.93771 24.5138 2.47397C19.4008 0.728029 0.638726 -4.27617 1.68252 16.6531C1.80791 19.1554 3.7604 29.3094 6.71824 36.3501C7.74299 38.7846 8.90285 40.8986 10.1985 42.3338C11.9864 44.3317 14.0457 45.2143 16.3844 44.3703C17.0128 44.1471 17.6316 43.7982 18.2305 43.3036C18.3276 43.42 18.4432 43.5458 18.5593 43.6525C19.265 44.322 20.4054 44.8458 21.3041 45.0686C22.377 45.3404 24.1656 45.6602 26.1569 45.321C26.9366 45.1921 27.6966 44.964 28.4188 44.6421C28.3897 44.9619 28.3706 45.3112 28.38 45.6797C28.3997 46.2031 28.4091 46.7273 28.4281 47.0954C28.477 48.3662 28.5442 49.6269 28.6796 50.8486C28.8248 52.1288 29.0375 53.2637 29.3663 54.1653C29.4144 54.2914 29.4529 54.4075 29.501 54.5434C30.2649 56.9098 31.6375 61.1191 38.1525 59.7225C40.6849 59.1796 42.9374 58.491 44.7447 55.8917C46.3203 53.6516 47.3257 50.0533 47.4802 43.7884V43.7884Z" fill="black"/>
<path d="M47.1674 35.2464C46.088 35.5527 44.5406 36.1164 44.7029 39.2508C44.6265 40.1784 44.34 42.787 44.0155 45.3291C43.7477 47.4123 43.4612 49.5147 43.2606 50.719C42.974 52.3627 42.5252 53.5478 41.7132 54.3795C40.9107 55.2207 39.6882 55.7745 37.8827 56.1664C35.8198 56.6062 34.5206 56.176 33.6801 55.4594C32.8109 54.7234 32.3522 53.6626 32.0656 52.9461C31.7983 52.2579 31.5977 50.4231 31.483 47.9669C31.3686 45.5011 31.3495 42.4715 31.4162 39.4039C31.4169 39.3546 31.4178 39.3056 31.4186 39.2569C31.4287 38.6543 31.4381 38.0952 31.2348 37.5115C30.9862 36.833 30.547 36.2212 30.0027 35.8294C29.4964 35.4663 28.7706 35.218 28.1496 35.2752C28.0337 35.2855 27.9188 35.3046 27.8059 35.3324C27.9117 34.9125 28.0637 34.455 28.2366 33.9691C28.4535 33.3587 28.5055 33.1762 28.5704 32.9985C28.6473 32.7878 28.7425 32.5838 29.1519 31.6819C30.1841 29.3788 31.5021 26.4352 30.0315 19.6019C29.6111 17.6907 28.5412 16.6871 27.1945 16.2665C26.3345 15.9994 25.3793 15.9802 24.4338 16.1233C23.5262 16.2669 22.6187 16.5443 21.817 16.869C21.3139 17.0785 20.8283 17.3278 20.3647 17.6143C20.6797 13.6195 22.4184 4.12015 31.9605 4.28249C39.8697 4.40684 44.3112 9.59596 46.3561 13.3133C46.872 14.2401 47.2253 15.0718 47.4451 15.7023L47.4472 15.7078C47.4653 15.7539 47.4834 15.8001 47.4927 15.8459C42.8217 15.3585 40.9495 16.9834 40.5578 19.4392C40.0039 22.8894 42.8122 27.9258 44.2353 30.4776C44.2683 30.537 44.3005 30.5951 44.3319 30.6517C44.6187 31.1679 44.836 31.5591 44.9134 31.7486C45.4766 33.1149 46.1743 33.9945 46.7282 34.6731C46.7636 34.7185 46.7983 34.7627 46.8319 34.8057C46.9613 34.9707 47.0764 35.1176 47.1674 35.2464Z" fill="#336791"/>
<path d="M26.7549 38.4199C25.7422 39.7102 25.4265 40.1016 22.2842 40.7518C21.7211 40.8661 21.3383 40.9905 21.1093 41.1052C21.3958 41.3059 21.8354 41.4875 22.2171 41.5834C22.9915 41.7745 24.2808 42.0132 25.6463 41.7745C26.9931 41.545 28.4358 40.8573 29.6107 39.2228C29.85 38.8885 29.8017 38.4299 29.6778 38.0568C29.5439 37.6938 29.3149 37.3687 29.0476 37.1776C28.8466 37.0341 28.5217 36.9097 28.2927 36.9289C28.1514 36.9379 28.0186 36.9993 27.9202 37.1012C27.5067 37.5179 27.1176 37.9582 26.7549 38.4199Z" fill="#336791"/>
<path d="M20.6505 34.0713C20.8785 34.318 21.121 34.551 21.3766 34.769C19.8444 36.4012 18.3633 38.0807 16.9355 39.805C16.4096 40.4359 15.9132 40.8182 15.4545 40.9809C14.614 41.2868 13.7448 40.8278 12.8948 39.8817C11.8729 38.7446 10.9074 36.9765 10.039 34.9121C7.26872 28.3464 5.44439 18.933 5.3297 16.6299C4.54605 0.841892 18.9033 4.34928 23.3444 5.81149C18.4257 10.6475 18.6447 19.2964 18.6547 19.3632C18.6462 19.5418 18.6589 19.7624 18.6748 20.0419C18.6777 20.0909 18.6806 20.1418 18.6835 20.1945C18.7694 21.542 18.9221 24.1321 18.5208 27.0085C18.4193 27.7081 18.4033 28.4174 18.4733 29.1209C18.6547 31.0417 19.4572 32.7618 20.6505 34.0713Z" fill="#336791"/>
<path d="M47.798 12.5208C46.2506 9.69153 43.4232 6.08895 38.9241 4.10096C41.083 3.66116 44.5598 3.27891 48.0462 4.28286C50.5015 4.99976 52.9657 6.40441 54.981 8.97536C56.1464 10.4756 55.9266 14.6427 54.5131 19.7554C53.2906 24.1992 51.1509 29.274 48.2184 33.8901C48.1535 33.8158 48.0882 33.7321 48.0233 33.6488L48.0178 33.6418C47.9894 33.613 47.9606 33.5746 47.9319 33.5363C49.6319 30.7458 49.3074 28.0509 49.0017 25.5183C48.8774 24.5243 48.7627 23.5687 48.7915 22.6607C48.8281 21.7479 48.9428 20.9657 49.053 20.2145C49.0581 20.1792 49.0633 20.144 49.0684 20.1089C49.2311 19.0957 49.3745 18.1305 49.3362 16.955C49.3362 16.9408 49.3385 16.9266 49.3408 16.9123C49.3431 16.8979 49.3454 16.8834 49.3454 16.869C49.3933 16.5919 49.2882 15.961 49.0017 15.1585C48.6764 14.2465 48.2737 13.364 47.798 12.5208Z" fill="#336791"/>
<path fill-rule="evenodd" clip-rule="evenodd" d="M20.3239 19.8415C20.3156 19.6788 20.3072 19.5161 20.3072 19.3536C20.3164 19.3152 21.2332 18.895 22.438 18.3976C23.1353 18.1205 23.909 17.8722 24.6731 17.7575C25.3993 17.652 26.1058 17.652 26.7073 17.8434C27.5002 18.0918 28.15 18.7227 28.4077 19.9458C29.7733 26.2632 28.58 28.9198 27.6436 31.0033C27.1668 32.0529 27.0241 32.4573 26.8443 32.9671C26.8003 33.0921 26.7539 33.2234 26.6999 33.3721C26.5004 33.9204 26.326 34.4443 26.2013 34.9501L26.1834 34.9495C25.9404 34.9401 25.6891 34.9304 25.4465 34.893C24.0706 34.7015 22.8193 33.9945 21.8738 32.9529C20.868 31.8526 20.2506 30.4527 20.1162 28.9677C20.0586 28.4136 20.069 27.8306 20.1545 27.238C20.5845 24.1705 20.4215 21.4848 20.336 20.0989C20.3328 20.0131 20.3284 19.9273 20.3239 19.8415ZM27.1945 18.9426C26.6454 18.6471 25.8163 18.5349 25.2071 18.6655C24.7819 18.7718 24.6005 18.9795 24.5868 19.2278C24.5732 19.4761 24.7288 19.7646 24.9781 20.0321C25.2359 20.2996 25.5991 20.5387 26.0096 20.5959H26.0195C26.4396 20.6535 26.8316 20.51 27.1181 20.3188C27.4235 20.1085 27.6245 19.8218 27.6525 19.6211C27.6812 19.3632 27.5094 19.1241 27.1945 18.9426Z" fill="#336791"/>
<path fill-rule="evenodd" clip-rule="evenodd" d="M42.1812 19.6979C42.4389 18.0825 43.9004 17.0502 47.683 17.5188C47.6737 18.35 47.559 19.0957 47.4344 19.8694C47.4302 19.8979 47.4259 19.9263 47.4217 19.9548C47.3014 20.7607 47.1753 21.6063 47.1383 22.6123C47.1104 23.5963 47.229 24.608 47.3508 25.647L47.3581 25.709C47.6062 27.7542 47.864 29.9141 46.8709 32.0165C46.7182 31.749 46.5748 31.4431 46.4317 31.1181C46.3074 30.8222 46.0397 30.3252 45.6768 29.6846C44.34 27.286 41.7224 22.5839 42.1812 19.6979ZM45.7922 19.3824C46.0308 19.1337 46.1743 18.8374 46.1455 18.6655C46.1164 18.4648 45.9257 18.3216 45.6303 18.2545C45.3726 18.1873 45.0285 18.1777 44.6656 18.2257C44.3024 18.2829 43.9779 18.388 43.7485 18.5124C43.4734 18.6699 43.3624 18.847 43.3653 19.0234C43.3697 19.2813 43.6187 19.5377 43.9583 19.7263C44.2467 19.8816 44.5354 19.9373 44.812 19.9063C45.1675 19.8665 45.5031 19.6831 45.7922 19.3824Z" fill="#336791"/>
<path d="M48.0024 36.7243C48.0541 36.7093 48.1041 36.6948 48.1513 36.6802C50.0975 38.1504 53.3528 37.5437 55.5052 37.1426L55.5254 37.1389C55.0098 37.6358 54.1694 38.1996 53.1663 38.6682C52.1916 39.1169 50.6634 39.4231 49.2307 39.5087C48.4091 39.5475 47.6354 39.5283 47.0527 39.4039C46.6802 39.3368 46.4321 39.2604 46.3554 39.184C46.2603 37.2244 47.159 36.9693 47.7325 36.8065L47.7405 36.8042C47.8292 36.7747 47.9181 36.7489 48.0024 36.7243Z" fill="#336791"/>
<path fill-rule="evenodd" clip-rule="evenodd" d="M44.703 39.2509C44.5407 36.1165 46.0881 35.5527 47.1675 35.2465C47.0528 35.0841 46.8998 34.893 46.7283 34.6731C46.1744 33.9946 45.4767 33.115 44.9136 31.7487C44.8276 31.5384 44.5695 31.0798 44.2354 30.4776C42.8123 27.9258 40.004 22.8895 40.5579 19.4393C40.9496 16.9834 42.8219 15.3585 47.4928 15.8459C47.4832 15.7983 47.464 15.7504 47.4452 15.7024C47.2254 15.0718 46.8721 14.2402 46.3562 13.3133C44.3114 9.59602 39.8698 4.4069 31.9607 4.28256C22.4186 4.12021 20.6798 13.6196 20.3649 17.6144C20.8284 17.3278 21.314 17.0786 21.8171 16.8691C22.6188 16.5444 23.5264 16.2669 24.4339 16.1234C25.3795 15.9802 26.3346 15.9994 27.1946 16.2665C28.5414 16.6872 29.6112 17.6908 30.0316 19.602C31.5023 26.4352 30.1843 29.3788 29.1521 31.6819C28.3972 33.3448 28.7106 32.6353 28.2368 33.9691C28.0638 34.4551 27.9119 34.9126 27.806 35.3325C27.919 35.3046 28.0339 35.2855 28.1497 35.2753C28.7707 35.2181 29.4965 35.4664 30.0028 35.8295C30.5471 36.2213 30.9864 36.833 31.2349 37.5116C31.4547 38.1425 31.4259 38.7446 31.4163 39.404C31.3496 42.4716 31.3688 45.5011 31.4831 47.9669C31.5978 50.4231 31.7984 52.258 32.0658 52.9461C32.3523 53.6626 32.8111 54.7234 33.6803 55.4595C34.5207 56.176 35.8199 56.6063 37.8828 56.1665C39.6884 55.7746 40.9109 55.2208 41.7133 54.3796C42.5254 53.5479 42.9742 52.3628 43.2607 50.719C43.4613 49.5147 43.7479 47.4124 44.0156 45.3292C44.3401 42.787 44.6267 40.1784 44.703 39.2509V39.2509ZM22.2843 40.7518C25.4267 40.1017 25.7424 39.7102 26.755 38.42C27.1177 37.9583 27.5068 37.518 27.9203 37.1013C28.0187 36.9994 28.1515 36.938 28.2928 36.929C28.5218 36.9098 28.8467 37.0341 29.0477 37.1777C29.3151 37.3688 29.5441 37.6938 29.6779 38.0569C29.8018 38.4299 29.8502 38.8885 29.6108 39.2228C28.4359 40.8573 26.9932 41.5451 25.6465 41.7746C24.2809 42.0133 22.9916 41.7746 22.2172 41.5835C21.8355 41.4875 21.396 41.306 21.1094 41.1053C21.3384 40.9905 21.7212 40.8662 22.2843 40.7518V40.7518ZM21.3768 34.769C21.1211 34.5511 20.8787 34.3181 20.6507 34.0713C19.4573 32.7619 18.6548 31.0418 18.4734 29.1209C18.4034 28.4175 18.4194 27.7082 18.521 27.0086C18.9222 24.1322 18.7695 21.542 18.6836 20.1946C18.6641 19.8411 18.6449 19.5732 18.6548 19.3633C18.6449 19.2965 18.4258 10.6476 23.3446 5.81155C18.9034 4.34934 4.54618 0.841953 5.32983 16.63C5.44451 18.9331 7.26885 28.3465 10.0391 34.9122C10.9076 36.9766 11.873 38.7447 12.8949 39.8818C13.7449 40.8278 14.6141 41.2868 15.4546 40.9809C15.9133 40.8182 16.4097 40.436 16.9356 39.8051C18.3634 38.0807 19.8446 36.4012 21.3768 34.769V34.769ZM38.9243 4.10102C43.4233 6.08901 46.2508 9.69159 47.7981 12.5208C48.2739 13.3641 48.6766 14.2465 49.0018 15.1585C49.2884 15.961 49.3935 16.592 49.3455 16.8691C49.3455 16.8978 49.3363 16.9266 49.3363 16.955C49.3747 18.1306 49.2312 19.0958 49.0686 20.109C48.9539 20.8926 48.83 21.7051 48.7916 22.6607C48.7629 23.5687 48.8775 24.5244 49.0018 25.5184C49.3075 28.0509 49.6321 30.7459 47.932 33.5363C47.9608 33.5747 47.9895 33.6131 48.0179 33.6419C48.0847 33.7275 48.1518 33.8138 48.2185 33.8902C51.1511 29.274 53.2907 24.1993 54.5132 19.7555C55.9267 14.6427 56.1465 10.4756 54.9812 8.97542C52.9658 6.40447 50.5016 4.99982 48.0463 4.28292C44.5599 3.27897 41.0831 3.66122 38.9243 4.10102V4.10102ZM20.3073 19.3537C20.3073 19.602 20.3269 19.8507 20.3361 20.099C20.4216 21.4848 20.5846 24.1705 20.1546 27.2381C20.0691 27.8307 20.0588 28.4136 20.1163 28.9678C20.2508 30.4528 20.8682 31.8527 21.8739 32.953C22.8194 33.9946 24.0707 34.7015 25.4466 34.893C25.6951 34.9314 25.9529 34.9406 26.2015 34.9502C26.3261 34.4444 26.5006 33.9204 26.7001 33.3721C26.9744 32.6169 27.05 32.3103 27.6438 31.0034C28.5801 28.9198 29.7734 26.2633 28.4079 19.9459C28.1501 18.7227 27.5003 18.0918 26.7074 17.8435C26.106 17.652 25.3994 17.652 24.6733 17.7575C23.9092 17.8723 23.1355 18.1206 22.4381 18.3977C21.2333 18.8951 20.3165 19.3153 20.3073 19.3537V19.3537ZM25.2073 18.6656C25.8165 18.5349 26.6455 18.6471 27.1946 18.9427C27.5095 19.1242 27.6814 19.3633 27.6526 19.6212C27.6246 19.8219 27.4236 20.1086 27.1183 20.3189C26.8317 20.51 26.4397 20.6535 26.0197 20.596H26.0097C25.5993 20.5388 25.236 20.2997 24.9782 20.0322C24.729 19.7647 24.5733 19.4762 24.587 19.2279C24.6006 18.9795 24.7821 18.7718 25.2073 18.6656V18.6656ZM47.6831 17.5188C43.9005 17.0502 42.4391 18.0826 42.1813 19.6979C41.7225 22.584 44.3401 27.2861 45.6769 29.6847C46.0398 30.3252 46.3075 30.8222 46.4318 31.1181C46.5749 31.4432 46.7184 31.7491 46.871 32.0166C47.8641 29.9142 47.6064 27.7543 47.3582 25.7091C47.2339 24.6483 47.11 23.616 47.1384 22.6124C47.1767 21.5708 47.3106 20.7011 47.4345 19.8695C47.5592 19.0958 47.6739 18.3501 47.6831 17.5188ZM48.1514 36.6803C48.0271 36.7187 47.8837 36.7567 47.7406 36.8043C47.1675 36.967 46.26 37.2153 46.3555 39.1841C46.4322 39.2605 46.6804 39.3368 47.0528 39.404C47.6355 39.5283 48.4092 39.5475 49.2308 39.5088C50.6635 39.4232 52.1917 39.1169 53.1664 38.6683C54.1695 38.1997 55.0099 37.6359 55.5255 37.1389C53.3733 37.54 50.1037 38.155 48.1514 36.6803V36.6803ZM46.1457 18.6656C46.1744 18.8375 46.031 19.1338 45.7924 19.3825C45.5032 19.6832 45.1677 19.8665 44.8122 19.9064C44.5356 19.9374 44.2468 19.8817 43.9584 19.7263C43.6188 19.5378 43.3699 19.2814 43.3654 19.0235C43.3625 18.8471 43.4735 18.67 43.7486 18.5124C43.978 18.3881 44.3025 18.2829 44.6658 18.2258C45.0286 18.1778 45.3727 18.1874 45.6305 18.2545C45.9259 18.3217 46.1165 18.4648 46.1457 18.6656V18.6656ZM49.1445 35.5048C49.5266 35.8682 50.8162 36.432 55.1434 35.5335C55.9839 35.3616 56.5761 35.4 56.9582 35.5815C57.4549 35.8202 57.6747 36.2121 57.6364 36.7279C57.6172 37.0434 57.4741 37.368 57.2351 37.7031C56.6809 38.4676 55.4108 39.4424 53.8538 40.1689C52.6981 40.7039 50.9309 41.0673 49.3164 41.1628C48.3708 41.2104 47.4633 41.1721 46.7279 41.0289C46.5465 40.9905 46.3651 40.9429 46.2024 40.8953C46.0689 42.1089 45.868 43.8098 45.6485 45.5303C45.3808 47.6902 45.0847 49.8309 44.8844 50.9969C44.5404 52.9749 43.9677 54.4279 42.9071 55.5267C41.8465 56.6254 40.3662 57.3232 38.2265 57.7821C35.5522 58.3555 33.7942 57.725 32.6101 56.7306C31.4447 55.7462 30.8908 54.4367 30.5372 53.5575C30.1839 52.6882 29.9541 50.6526 29.8302 48.0433C29.7447 46.1417 29.7063 43.8958 29.7251 41.5635C28.5215 42.6531 27.1942 43.1881 25.933 43.4084C24.2621 43.6947 22.7335 43.4176 21.8167 43.1881C21.1478 43.0162 20.3165 42.6431 19.8294 42.1845C19.5428 41.9166 19.3518 41.6019 19.2943 41.2389C19.2375 40.8179 19.3614 40.4072 19.7531 40.0441C20.1255 39.6903 20.8133 39.3752 21.9591 39.1361C24.5003 38.6107 24.7293 38.324 25.4551 37.3968C25.6418 37.1612 25.8362 36.9317 26.0377 36.7087C26.0285 36.6703 26.0285 36.6323 26.0285 36.594C25.7569 36.5865 25.486 36.5641 25.2168 36.5268C24.3539 36.4031 23.5195 36.1282 22.7519 35.7147C22.0642 36.4412 20.221 38.4384 18.2049 40.8658C17.4891 41.7355 16.7435 42.2709 15.9989 42.5384C14.4231 43.1021 12.9801 42.4428 11.6621 40.9902C10.5163 39.7095 9.46529 37.7883 8.51975 35.5524C5.67316 28.8051 3.80125 19.0858 3.6766 16.706C2.70267 -2.86652 21.7972 3.45054 24.8344 4.5781C26.64 3.34538 28.971 2.58089 31.9891 2.62848C33.4505 2.6473 34.8165 2.82883 36.0677 3.13507C36.6696 2.97273 37.5196 2.73364 37.5675 2.71445C37.6822 2.68567 37.8157 2.65726 37.9879 2.61889C40.2327 2.09312 44.3401 1.50093 48.5047 2.70486C51.2554 3.49814 54.0161 5.07509 56.28 7.96114C57.7702 9.87238 57.6459 14.5937 56.0986 20.1938C54.771 25.0114 52.4019 30.5544 49.1445 35.5048V35.5048Z" fill="white"/>
</g></a>
</svg>
