<svg width="61" height="60" viewBox="0 0 61 60" fill="none" xmlns="http://www.w3.org/2000/svg">
<g opacity="0.15" clip-path="url(#clip0)">
<path fill-rule="evenodd" clip-rule="evenodd" d="M0.0478516 0H60.0478V60H0.0478516V0Z" fill="white"/>
<path fill-rule="evenodd" clip-rule="evenodd" d="M13.1605 43.7884C13.1508 43.6911 13.1314 43.5556 13.1119 43.3425C13.0925 43.2358 13.0828 43.1388 13.0731 43.0418L12.6574 43.0808H12.5511C11.4782 43.1291 10.231 43.0418 9.03232 42.8385C7.84337 42.6348 6.69322 42.3147 5.80393 41.9073C3.97683 41.054 2.44006 39.8416 1.73438 38.8816C1.30895 38.2806 1.04809 37.6501 1.00928 37.0098C0.922331 35.7585 1.44441 34.7985 2.6524 34.2166C3.34839 33.877 4.3056 33.7898 5.533 34.0422C7.10857 34.372 8.10422 34.5851 8.73266 34.7401C5.91961 30.056 3.85106 25.0226 2.62367 20.5613C0.922331 14.3931 0.903299 9.03016 2.73973 6.67353C5.52367 3.11424 8.96478 1.32973 12.3286 0.524716C17.239 -0.648733 22.1299 0.42774 24.2178 1.02907C24.8138 0.920015 25.4135 0.832716 26.0158 0.767343C26.8857 0.680102 27.7463 0.621692 28.6162 0.611957C30.3272 0.582752 31.8733 0.806284 33.2653 1.22302C34.2678 1.51739 35.2293 1.93771 36.1268 2.47397C41.2398 0.728029 60.0019 -4.27617 58.9581 16.6531C58.8327 19.1554 56.8802 29.3094 53.9224 36.3501C52.8976 38.7846 51.7378 40.8986 50.4421 42.3338C48.6542 44.3317 46.595 45.2143 44.2562 44.3703C43.6278 44.1471 43.0091 43.7982 42.4101 43.3036C42.3131 43.42 42.1974 43.5458 42.0813 43.6525C41.3756 44.322 40.2352 44.8458 39.3366 45.0686C38.2637 45.3404 36.475 45.6602 34.4837 45.321C33.7041 45.1921 32.944 44.964 32.2219 44.6421C32.251 44.9619 32.27 45.3112 32.2607 45.6797C32.2409 46.2031 32.2316 46.7273 32.2125 47.0954C32.1636 48.3662 32.0965 49.6269 31.961 50.8486C31.8158 52.1288 31.6031 53.2637 31.2743 54.1653C31.2262 54.2915 31.1878 54.4075 31.1396 54.5434C30.3757 56.9098 29.0032 61.1191 22.4881 59.7225C19.9557 59.1796 17.7032 58.491 15.8959 55.8917C14.3203 53.6516 13.315 50.0533 13.1605 43.7884Z" fill="#0D2743"/>
<path fill-rule="evenodd" clip-rule="evenodd" d="M15.9376 39.2509C16.0999 36.1165 14.5525 35.5527 13.4731 35.2465C13.5878 35.0841 13.7408 34.893 13.9123 34.6731C14.4662 33.9946 15.1639 33.115 15.7271 31.7487C15.813 31.5384 16.0711 31.0798 16.4052 30.4776C17.8283 27.9258 20.6366 22.8895 20.0827 19.4393C19.691 16.9834 17.8188 15.3585 13.1478 15.8459C13.1574 15.7983 13.1766 15.7504 13.1954 15.7024C13.4152 15.0718 13.7685 14.2402 14.2844 13.3133C16.3293 9.59602 20.7708 4.4069 28.68 4.28256C38.2221 4.12021 39.9608 13.6196 40.2758 17.6144C39.8122 17.3278 39.3266 17.0786 38.8235 16.8691C38.0218 16.5444 37.1143 16.2669 36.2067 16.1234C35.2612 15.9802 34.306 15.9994 33.446 16.2665C32.0993 16.6872 31.0294 17.6908 30.609 19.602C29.1384 26.4352 30.4564 29.3788 31.4886 31.6819C32.2435 33.3448 31.93 32.6353 32.4039 33.9691C32.5768 34.4551 32.7288 34.9126 32.8346 35.3325C32.7217 35.3046 32.6068 35.2855 32.4909 35.2753C31.8699 35.2181 31.1441 35.4664 30.6378 35.8295C30.0935 36.2213 29.6543 36.833 29.4057 37.5116C29.1859 38.1425 29.2147 38.7446 29.2243 39.404C29.291 42.4716 29.2719 45.5011 29.1575 47.9669C29.0428 50.4231 28.8422 52.258 28.5749 52.9461C28.2883 53.6626 27.8296 54.7234 26.9604 55.4595C26.1199 56.176 24.8207 56.6063 22.7578 56.1665C20.9523 55.7746 19.7298 55.2208 18.9273 54.3796C18.1153 53.5479 17.6665 52.3628 17.3799 50.719C17.1793 49.5147 16.8928 47.4124 16.625 45.3292C16.3005 42.787 16.014 40.1784 15.9376 39.2509ZM38.3563 40.7518C35.2139 40.1017 34.8983 39.7102 33.8856 38.42C33.5229 37.9583 33.1338 37.518 32.7203 37.1013C32.6219 36.9994 32.4891 36.938 32.3478 36.929C32.1188 36.9098 31.7939 37.0341 31.5929 37.1777C31.3256 37.3688 31.0966 37.6938 30.9627 38.0569C30.8388 38.4299 30.7905 38.8885 31.0298 39.2228C32.2047 40.8573 33.6474 41.5451 34.9942 41.7746C36.3597 42.0133 37.649 41.7746 38.4234 41.5835C38.8051 41.4875 39.2447 41.306 39.5312 41.1053C39.3022 40.9905 38.9194 40.8662 38.3563 40.7518ZM39.2639 34.7691C39.5195 34.5511 39.762 34.3181 39.99 34.0713C41.1833 32.7619 41.9858 31.0418 42.1672 29.1209C42.2372 28.4175 42.2212 27.7082 42.1197 27.0086C41.7184 24.1322 41.8711 21.542 41.957 20.1946C41.9766 19.8411 41.9957 19.5732 41.9858 19.3633C41.9957 19.2965 42.2148 10.6476 37.2961 5.81155C41.7372 4.34934 56.0944 0.841953 55.3108 16.63C55.1961 18.9331 53.3718 28.3465 50.6015 34.9122C49.7331 36.9766 48.7676 38.7447 47.7457 39.8818C46.8957 40.8278 46.0265 41.2868 45.186 40.9809C44.7273 40.8182 44.2309 40.436 43.705 39.8051C42.2772 38.0807 40.7961 36.4012 39.2639 34.7691ZM21.7164 4.10102C17.2173 6.08901 14.3899 9.69159 12.8425 12.5208C12.3668 13.3641 11.9641 14.2465 11.6388 15.1585C11.3523 15.961 11.2472 16.592 11.2951 16.8691C11.2951 16.8978 11.3043 16.9266 11.3043 16.955C11.266 18.1306 11.4094 19.0958 11.5721 20.109C11.6867 20.8926 11.8106 21.7051 11.849 22.6607C11.8778 23.5687 11.7631 24.5244 11.6388 25.5184C11.3331 28.0509 11.0086 30.7458 12.7086 33.5363C12.6799 33.5747 12.6511 33.6131 12.6227 33.6419C12.5559 33.7275 12.4888 33.8138 12.4221 33.8902C9.48957 29.274 7.34993 24.1993 6.12743 19.7555C4.71391 14.6427 4.49412 10.4756 5.65946 8.97542C7.67482 6.40447 10.139 4.99982 12.5943 4.28292C16.0807 3.27897 19.5575 3.66122 21.7164 4.10102ZM40.3333 19.3537C40.3333 19.602 40.3138 19.8507 40.3045 20.099C40.219 21.4848 40.056 24.1705 40.486 27.2381C40.5715 27.8307 40.5819 28.4136 40.5243 28.9678C40.3899 30.4528 39.7725 31.8527 38.7667 32.953C37.8212 33.9946 36.5699 34.7015 35.194 34.893C34.9455 34.9314 34.6877 34.9406 34.4391 34.9502C34.3145 34.4444 34.1401 33.9204 33.9406 33.3721C33.6662 32.6169 33.5906 32.3103 32.9969 31.0034C32.0605 28.9198 30.8672 26.2633 32.2328 19.9459C32.4905 18.7227 33.1403 18.0918 33.9332 17.8435C34.5347 17.652 35.2412 17.652 35.9674 17.7575C36.7315 17.8723 37.5052 18.1206 38.2025 18.3977C39.4073 18.8951 40.3241 19.3153 40.3333 19.3537ZM35.4334 18.6656C34.8242 18.5349 33.9951 18.6471 33.446 18.9427C33.1311 19.1242 32.9592 19.3633 32.988 19.6212C33.016 19.8219 33.217 20.1086 33.5224 20.3189C33.8089 20.51 34.2009 20.6535 34.621 20.596H34.6309C35.0414 20.5388 35.4046 20.2997 35.6624 20.0322C35.9117 19.7647 36.0673 19.4762 36.0536 19.2279C36.04 18.9795 35.8586 18.7718 35.4334 18.6656ZM12.9575 17.5188C16.7401 17.0502 18.2015 18.0826 18.4593 19.6979C18.9181 22.584 16.3005 27.2861 14.9637 29.6847C14.6008 30.3252 14.3331 30.8222 14.2088 31.1181C14.0657 31.4432 13.9223 31.7491 13.7696 32.0166C12.7765 29.9142 13.0343 27.7543 13.2824 25.7091C13.4067 24.6483 13.5306 23.616 13.5022 22.6124C13.4639 21.5708 13.33 20.7011 13.2061 19.8695C13.0815 19.0958 12.9668 18.3501 12.9575 17.5188ZM12.4892 36.6803C12.6135 36.7187 12.7569 36.7567 12.9 36.8043C13.4731 36.967 14.3807 37.2153 14.2851 39.1841C14.2084 39.2605 13.9602 39.3368 13.5878 39.404C13.0051 39.5283 12.2314 39.5475 11.4098 39.5088C9.97709 39.4232 8.44888 39.1169 7.47421 38.6683C6.47113 38.1997 5.63069 37.6359 5.11514 37.1389C7.26732 37.54 10.5369 38.155 12.4892 36.6803ZM14.495 18.6656C14.4662 18.8375 14.6097 19.1338 14.8483 19.3825C15.1374 19.6832 15.473 19.8665 15.8285 19.9064C16.1051 19.9374 16.3938 19.8817 16.6822 19.7263C17.0218 19.5378 17.2708 19.2814 17.2752 19.0235C17.2781 18.8471 17.1671 18.67 16.892 18.5124C16.6626 18.3881 16.3381 18.2829 15.9749 18.2258C15.612 18.1778 15.2679 18.1874 15.0102 18.2545C14.7148 18.3217 14.5241 18.4648 14.495 18.6656ZM11.4961 35.5048C11.114 35.8682 9.82442 36.432 5.4972 35.5335C4.65675 35.3616 4.0645 35.4 3.68245 35.5815C3.1857 35.8202 2.96591 36.2121 3.00427 36.7279C3.02344 37.0434 3.16653 37.368 3.40549 37.7031C3.95977 38.4676 5.22983 39.4424 6.78681 40.1689C7.94255 40.7039 9.70973 41.0673 11.3242 41.1628C12.2698 41.2104 13.1773 41.1721 13.9127 41.0289C14.0941 40.9905 14.2756 40.9429 14.4382 40.8953C14.5717 42.1089 14.7727 43.8098 14.9921 45.5303C15.2598 47.6902 15.5559 49.8309 15.7562 50.9969C16.1003 52.9749 16.673 54.4279 17.7336 55.5267C18.7942 56.6254 20.2744 57.3232 22.4141 57.7821C25.0884 58.3555 26.8464 57.725 28.0305 56.7306C29.1959 55.7462 29.7498 54.4367 30.1034 53.5575C30.4567 52.6882 30.6865 50.6526 30.8104 48.0433C30.8959 46.1417 30.9343 43.8958 30.9155 41.5635C32.1192 42.6531 33.4464 43.1881 34.7076 43.4084C36.3785 43.6947 37.9071 43.4176 38.8239 43.1881C39.4929 43.0162 40.3241 42.6431 40.8112 42.1845C41.0978 41.9166 41.2888 41.6019 41.3463 41.2389C41.4031 40.8179 41.2792 40.4072 40.8876 40.0441C40.5151 39.6903 39.8273 39.3752 38.6816 39.1361C36.1403 38.6107 35.9113 38.324 35.1856 37.3968C34.9988 37.1612 34.8045 36.9317 34.6029 36.7087C34.6121 36.6703 34.6121 36.6323 34.6121 36.594C34.8837 36.5865 35.1547 36.5641 35.4238 36.5268C36.2867 36.4031 37.1211 36.1282 37.8887 35.7147C38.5765 36.4412 40.4196 38.4384 42.4357 40.8658C43.1515 41.7355 43.8972 42.2709 44.6417 42.5383C46.2175 43.1021 47.6605 42.4428 48.9785 40.9902C50.1243 39.7095 51.1753 37.7883 52.1209 35.5524C54.9675 28.8051 56.8394 19.0858 56.964 16.706C57.938 -2.86652 38.8434 3.45054 35.8062 4.5781C34.0007 3.34538 31.6696 2.58089 28.6516 2.62848C27.1901 2.6473 25.8242 2.82883 24.5729 3.13507C23.9711 2.97273 23.121 2.73364 23.0731 2.71445C22.9584 2.68567 22.8249 2.65726 22.6527 2.61889C20.4079 2.09312 16.3005 1.50093 12.1359 2.70486C9.38521 3.49814 6.62455 5.07509 4.36063 7.96114C2.8704 9.87238 2.99468 14.5937 4.54206 20.1938C5.86966 25.0114 8.23868 30.5544 11.4961 35.5048Z" fill="white"/>
</g>
<defs>
<clipPath id="clip0">
<rect width="60" height="60" fill="white" transform="translate(0.0478516)"/>
</clipPath>
</defs>
</svg>
