<svg width="71" height="60" viewBox="0 0 71 60" fill="none" xmlns="http://www.w3.org/2000/svg">
<g opacity="0.15" clip-path="url(#clip0)">
<path d="M68.0622 46.0754C64.3362 48.0175 45.0348 55.9536 40.9256 58.0958C36.8164 60.2384 34.5337 60.2177 31.2874 58.6658C28.0414 57.114 7.50122 48.8171 3.80113 47.0485C1.95204 46.1648 0.979492 45.4187 0.979492 44.7139V37.6568C0.979492 37.6568 27.7204 31.8355 32.0374 30.2867C36.3541 28.7378 37.852 28.6819 41.5256 30.0276C45.1998 31.3738 67.1669 35.337 70.7977 36.6668L70.7961 43.6241C70.7966 44.3218 69.9588 45.087 68.0622 46.0754Z" fill="#0D2743"/>
<path d="M68.0608 39.0599C64.3351 41.0012 45.0342 48.9376 40.925 51.0796C36.8161 53.2224 34.5333 53.2014 31.2873 51.6496C28.0411 50.0988 7.5017 41.8006 3.80189 40.033C0.102067 38.2644 0.0246127 37.0472 3.65898 35.6241C7.29334 34.2005 27.7201 26.1864 32.0376 24.6376C36.3543 23.0893 37.8519 23.0329 41.5255 24.379C45.1994 25.7247 64.3853 33.3613 68.0155 34.6908C71.6472 36.022 71.7865 37.1181 68.0608 39.0599Z" fill="#0D2743"/>
<path d="M68.0608 27.6412C64.3351 29.5831 45.0342 37.5189 40.925 39.6617C36.8161 41.8037 34.5333 41.7827 31.2873 40.2309C28.0411 38.6801 7.5017 30.3821 3.80189 28.6143C0.102067 26.8462 0.0246127 25.6288 3.65898 24.2051C7.29334 22.7823 27.7203 14.7677 32.0376 13.2191C36.3543 11.6706 37.8519 11.6144 41.5255 12.9603C45.1994 14.306 64.3853 21.9421 68.0155 23.2721C71.6472 24.6031 71.7865 25.6994 68.0608 27.6412Z" fill="#0D2743"/>
<path d="M68.0607 15.7991C64.3349 17.7409 45.034 25.6773 40.9248 27.8193C36.8159 29.9613 34.5332 29.9403 31.2872 28.3893C28.0412 26.8375 7.50157 18.54 3.80202 16.7719C0.101931 15.0041 0.0247494 13.7864 3.65884 12.363C7.2932 10.9399 27.7202 2.92639 32.0375 1.3773C36.3542 -0.171522 37.8517 -0.227159 41.5254 1.11875C45.1993 2.46466 64.3851 10.1008 68.0154 11.4308C71.647 12.7607 71.7864 13.8573 68.0607 15.7991Z" fill="#0D2743"/>
<path opacity="0.2" d="M68.0608 39.0599C64.3351 41.0012 45.0342 48.9376 40.925 51.0796C36.8161 53.2224 34.5333 53.2014 31.2873 51.6496C28.0411 50.0988 7.5017 41.8006 3.80189 40.033C0.102067 38.2644 0.0246127 37.0472 3.65898 35.6241C7.29334 34.2005 27.7201 26.1864 32.0376 24.6376C36.3543 23.0893 37.8519 23.0329 41.5255 24.379C45.1994 25.7247 64.3853 33.3613 68.0155 34.6908C71.6472 36.022 71.7865 37.1181 68.0608 39.0599Z" fill="white"/>
<path d="M68.0622 34.6565C64.3362 36.5989 45.0348 44.5347 40.9256 46.6778C36.8164 48.8195 34.5337 48.7988 31.2874 47.247C28.0411 45.696 7.50122 37.3982 3.80113 35.6296C1.95204 34.746 0.979492 34.0009 0.979492 33.2959V26.238C0.979492 26.238 27.7204 20.4169 32.0374 18.8681C36.3541 17.3193 37.852 17.2631 41.5256 18.609C45.2 19.9549 67.1671 23.9173 70.7977 25.2474L70.7961 32.2055C70.7966 32.9029 69.9588 33.6682 68.0622 34.6565Z" fill="#0D2743"/>
<path opacity="0.2" d="M68.0608 27.6412C64.3351 29.5831 45.0342 37.5189 40.925 39.6617C36.8161 41.8037 34.5333 41.7827 31.2873 40.2309C28.0411 38.6801 7.5017 30.3821 3.80189 28.6143C0.102067 26.8462 0.0246127 25.6288 3.65898 24.2051C7.29334 22.7823 27.7203 14.7677 32.0376 13.2191C36.3543 11.6706 37.8519 11.6144 41.5255 12.9603C45.1994 14.306 64.3853 21.9421 68.0155 23.2721C71.6472 24.6031 71.7865 25.6994 68.0608 27.6412Z" fill="white"/>
<path d="M68.0622 22.8144C64.3362 24.7563 45.0348 32.6926 40.9256 34.8357C36.8164 36.9777 34.5337 36.9567 31.2874 35.4049C28.0411 33.8539 7.50122 25.5559 3.80113 23.7881C1.95204 22.9036 0.979492 22.1582 0.979492 21.4541V14.3959C0.979492 14.3959 27.7204 8.57505 32.0374 7.02651C36.3541 5.47741 37.852 5.42178 41.5256 6.76742C45.2 8.11333 67.1671 12.0758 70.7977 13.4059L70.7961 20.3637C70.7966 21.0605 69.9588 21.8258 68.0622 22.8144Z" fill="#0D2743"/>
<path opacity="0.2" d="M68.0607 15.7991C64.3349 17.7409 45.034 25.6773 40.9248 27.8193C36.8159 29.9613 34.5332 29.9403 31.2872 28.3893C28.0412 26.8375 7.50157 18.54 3.80202 16.7719C0.101931 15.0041 0.0247494 13.7864 3.65884 12.363C7.2932 10.9399 27.7202 2.92639 32.0375 1.3773C36.3542 -0.171522 37.8517 -0.227159 41.5254 1.11875C45.1993 2.46466 64.3851 10.1008 68.0154 11.4308C71.647 12.7607 71.7864 13.8573 68.0607 15.7991Z" fill="white"/>
<path d="M44.4202 8.93377L38.4174 9.55696L37.0737 12.7904L34.9033 9.18223L27.972 8.55932L33.144 6.69414L31.5922 3.83105L36.4344 5.72487L40.9993 4.23033L39.7655 7.19078L44.4202 8.93377ZM36.7153 24.6205L25.5125 19.974L41.5652 17.5099L36.7153 24.6205ZM21.1835 10.731C25.9222 10.731 29.7635 12.2201 29.7635 14.0567C29.7635 15.8938 25.9222 17.3826 21.1835 17.3826C16.4449 17.3826 12.6035 15.8935 12.6035 14.0567C12.6035 12.2201 16.4449 10.731 21.1835 10.731Z" fill="white"/>
<path d="M51.5146 9.81766L61.0153 13.572L51.5228 17.3229L51.5146 9.81738" fill="#0D2743"/>
<path opacity="0.2" d="M41.0039 13.9754L51.5148 9.81763L51.523 17.3228L50.4924 17.7259L41.0039 13.9754Z" fill="white"/>
</g>
<defs>
<clipPath id="clip0">
<rect width="69.8324" height="60" fill="white" transform="translate(0.979492)"/>
</clipPath>
</defs>
</svg>
