<svg width="71" height="60" viewBox="0 0 71 60" fill="none" xmlns="http://www.w3.org/2000/svg" xmlns:xlink="http://www.w3.org/1999/xlink">
<style>
svg .img {
opacity: 0;
transition-duration: 0.5s;
}
svg .img:hover {
opacity: 1;
transition-duration: 0.3s;
}
</style>
<g opacity="0.15">
<path d="M67.8425 46.0754C64.1165 48.0175 44.815 55.9536 40.7059 58.0959C36.5967 60.2384 34.314 60.2177 31.0677 58.6658C27.8217 57.114 7.28149 48.8171 3.5814 47.0485C1.73231 46.1648 0.759766 45.4187 0.759766 44.7139V37.6568C0.759766 37.6568 27.5007 31.8355 31.8177 30.2867C36.1344 28.7378 37.6322 28.6819 41.3059 30.0276C44.98 31.3738 66.9471 35.337 70.578 36.6668L70.5763 43.6241C70.5769 44.3218 69.739 45.087 67.8425 46.0754" fill="#0D2743"/>
<path d="M67.8411 39.0599C64.1153 41.0012 44.8144 48.9376 40.7052 51.0796C36.5963 53.2224 34.3136 53.2014 31.0676 51.6496C27.8213 50.0988 7.28198 41.8006 3.58216 40.033C-0.117659 38.2644 -0.195114 37.0472 3.43925 35.6241C7.07361 34.2005 27.5003 26.1864 31.8179 24.6376C36.1346 23.0893 37.6322 23.0329 41.3058 24.379C44.9797 25.7247 64.1655 33.3613 67.7958 34.6908C71.4274 36.022 71.5668 37.1181 67.8411 39.0599" fill="#0D2743"/>
<path d="M67.8411 27.6412C64.1153 29.5831 44.8144 37.5189 40.7052 39.6617C36.5963 41.8037 34.3136 41.7827 31.0676 40.2309C27.8213 38.6801 7.28198 30.3821 3.58216 28.6143C-0.117659 26.8462 -0.195114 25.6288 3.43925 24.2051C7.07361 22.7823 27.5006 14.7677 31.8179 13.2191C36.1346 11.6706 37.6322 11.6144 41.3058 12.9603C44.9797 14.306 64.1655 21.9421 67.7958 23.2721C71.4274 24.6031 71.5668 25.6994 67.8411 27.6412" fill="#0D2743"/>
<path d="M67.8409 15.7991C64.1152 17.7409 44.8143 25.6773 40.7051 27.8193C36.5962 29.9613 34.3135 29.9403 31.0675 28.3893C27.8215 26.8375 7.28184 18.54 3.5823 16.7719C-0.117795 15.0041 -0.194977 13.7864 3.43911 12.363C7.07348 10.9399 27.5005 2.92639 31.8177 1.3773C36.1345 -0.171522 37.632 -0.227159 41.3057 1.11875C44.9796 2.46466 64.1654 10.1008 67.7957 11.4308C71.4273 12.7607 71.5667 13.8573 67.8409 15.7991" fill="#0D2743"/>
<path opacity="0.2" d="M67.8411 39.0599C64.1153 41.0012 44.8144 48.9376 40.7052 51.0796C36.5963 53.2224 34.3136 53.2014 31.0676 51.6496C27.8213 50.0988 7.28198 41.8006 3.58216 40.033C-0.117659 38.2644 -0.195114 37.0472 3.43925 35.6241C7.07361 34.2005 27.5003 26.1864 31.8179 24.6376C36.1346 23.0893 37.6322 23.0329 41.3058 24.379C44.9797 25.7247 64.1655 33.3613 67.7958 34.6908C71.4274 36.022 71.5668 37.1181 67.8411 39.0599" fill="white"/>
<path d="M67.8425 34.6565C64.1165 36.5989 44.815 44.5347 40.7059 46.6778C36.5967 48.8195 34.314 48.7988 31.0677 47.247C27.8214 45.696 7.28149 37.3982 3.5814 35.6296C1.73231 34.746 0.759766 34.0009 0.759766 33.2959V26.238C0.759766 26.238 27.5007 20.4169 31.8177 18.8681C36.1344 17.3193 37.6322 17.2631 41.3059 18.609C44.9803 19.9549 66.9474 23.9173 70.578 25.2474L70.5763 32.2055C70.5769 32.9029 69.739 33.6682 67.8425 34.6565Z" fill="#0D2743"/>
<path opacity="0.2" d="M67.8411 27.6412C64.1153 29.5831 44.8144 37.5189 40.7052 39.6617C36.5963 41.8037 34.3136 41.7827 31.0676 40.2309C27.8213 38.6801 7.28198 30.3821 3.58216 28.6143C-0.117659 26.8462 -0.195114 25.6288 3.43925 24.2051C7.07361 22.7823 27.5006 14.7677 31.8179 13.2191C36.1346 11.6706 37.6322 11.6144 41.3058 12.9603C44.9797 14.306 64.1655 21.9421 67.7958 23.2721C71.4274 24.6031 71.5668 25.6994 67.8411 27.6412" fill="white"/>
<path d="M67.8425 22.8144C64.1165 24.7563 44.815 32.6926 40.7059 34.8357C36.5967 36.9777 34.314 36.9567 31.0677 35.4049C27.8214 33.8539 7.28149 25.5559 3.5814 23.7881C1.73231 22.9036 0.759766 22.1582 0.759766 21.4541V14.3959C0.759766 14.3959 27.5007 8.57505 31.8177 7.02651C36.1344 5.47741 37.6322 5.42178 41.3059 6.76742C44.9803 8.11333 66.9474 12.0758 70.578 13.4059L70.5763 20.3637C70.5769 21.0605 69.739 21.8258 67.8425 22.8144Z" fill="#0D2743"/>
<path opacity="0.2" d="M67.8409 15.7991C64.1152 17.7409 44.8143 25.6773 40.7051 27.8193C36.5962 29.9613 34.3135 29.9403 31.0675 28.3893C27.8215 26.8375 7.28184 18.54 3.5823 16.7719C-0.117795 15.0041 -0.194977 13.7864 3.43911 12.363C7.07348 10.9399 27.5005 2.92639 31.8177 1.3773C36.1345 -0.171522 37.632 -0.227159 41.3057 1.11875C44.9796 2.46466 64.1654 10.1008 67.7957 11.4308C71.4273 12.7607 71.5667 13.8573 67.8409 15.7991" fill="white"/>
<path d="M44.2004 8.93378L38.1977 9.55696L36.854 12.7904L34.6836 9.18223L27.7522 8.55932L32.9242 6.69414L31.3724 3.83105L36.2147 5.72487L40.7796 4.23033L39.5458 7.19078L44.2004 8.93378V8.93378ZM36.4956 24.6205L25.2928 19.974L41.3455 17.5099L36.4956 24.6205V24.6205ZM20.9638 10.731C25.7024 10.731 29.5438 12.2201 29.5438 14.0567C29.5438 15.8938 25.7024 17.3826 20.9638 17.3826C16.2252 17.3826 12.3838 15.8935 12.3838 14.0567C12.3838 12.2201 16.2252 10.731 20.9638 10.731Z" fill="white"/>
<path d="M51.2949 9.81766L60.7956 13.572L51.3031 17.3229L51.2949 9.81738" fill="#0D2743"/>
<path opacity="0.2" d="M40.7842 13.9754L51.2951 9.81763L51.3033 17.3228L50.2726 17.7259L40.7842 13.9754Z" fill="white"/>
</g>
<a xlink:href="https://redis.io/" target="_blank" xlink:title="Redis" xlink:alt="Redis">
<g class="img">
<rect width="71" height="60" fill="white" opacity="0"/>
<path d="M67.8425 46.0754C64.1165 48.0175 44.815 55.9536 40.7059 58.0959C36.5967 60.2384 34.314 60.2177 31.0677 58.6658C27.8217 57.114 7.28149 48.8171 3.5814 47.0485C1.73231 46.1648 0.759766 45.4187 0.759766 44.7139V37.6568C0.759766 37.6568 27.5007 31.8355 31.8177 30.2867C36.1344 28.7378 37.6322 28.6819 41.3059 30.0276C44.98 31.3738 66.9471 35.337 70.578 36.6668L70.5763 43.6241C70.5769 44.3218 69.739 45.087 67.8425 46.0754" fill="#A41E11"/>
<path d="M67.8411 39.0599C64.1153 41.0012 44.8144 48.9376 40.7052 51.0796C36.5963 53.2224 34.3136 53.2014 31.0676 51.6496C27.8213 50.0988 7.28198 41.8006 3.58216 40.033C-0.117659 38.2644 -0.195114 37.0472 3.43925 35.6241C7.07361 34.2005 27.5003 26.1864 31.8179 24.6376C36.1346 23.0893 37.6322 23.0329 41.3058 24.379C44.9797 25.7247 64.1655 33.3613 67.7958 34.6908C71.4274 36.022 71.5668 37.1181 67.8411 39.0599" fill="#D82C20"/>
<path d="M67.8411 27.6412C64.1153 29.5831 44.8144 37.5189 40.7052 39.6617C36.5963 41.8037 34.3136 41.7827 31.0676 40.2309C27.8213 38.6801 7.28198 30.3821 3.58216 28.6143C-0.117659 26.8462 -0.195114 25.6288 3.43925 24.2051C7.07361 22.7823 27.5006 14.7677 31.8179 13.2191C36.1346 11.6706 37.6322 11.6144 41.3058 12.9603C44.9797 14.306 64.1655 21.9421 67.7958 23.2721C71.4274 24.6031 71.5668 25.6994 67.8411 27.6412" fill="#D82C20"/>
<path d="M67.8409 15.7991C64.1152 17.7409 44.8143 25.6773 40.7051 27.8193C36.5962 29.9613 34.3135 29.9403 31.0675 28.3893C27.8215 26.8375 7.28184 18.54 3.5823 16.7719C-0.117795 15.0041 -0.194977 13.7864 3.43911 12.363C7.07348 10.9399 27.5005 2.92639 31.8177 1.3773C36.1345 -0.171522 37.632 -0.227159 41.3057 1.11875C44.9796 2.46466 64.1654 10.1008 67.7957 11.4308C71.4273 12.7607 71.5667 13.8573 67.8409 15.7991" fill="#D82C20"/>
<path d="M67.8411 39.0599C64.1153 41.0012 44.8144 48.9376 40.7052 51.0796C36.5963 53.2224 34.3136 53.2014 31.0676 51.6496C27.8213 50.0988 7.28198 41.8006 3.58216 40.033C-0.117659 38.2644 -0.195114 37.0472 3.43925 35.6241C7.07361 34.2005 27.5003 26.1864 31.8179 24.6376C36.1346 23.0893 37.6322 23.0329 41.3058 24.379C44.9797 25.7247 64.1655 33.3613 67.7958 34.6908C71.4274 36.022 71.5668 37.1181 67.8411 39.0599" fill="#D82C20"/>
<path d="M67.8425 34.6565C64.1165 36.5989 44.815 44.5347 40.7059 46.6778C36.5967 48.8195 34.314 48.7988 31.0677 47.247C27.8214 45.696 7.28149 37.3982 3.5814 35.6296C1.73231 34.746 0.759766 34.0009 0.759766 33.2959V26.238C0.759766 26.238 27.5007 20.4169 31.8177 18.8681C36.1344 17.3193 37.6322 17.2631 41.3059 18.609C44.9803 19.9549 66.9474 23.9173 70.578 25.2474L70.5763 32.2055C70.5769 32.9029 69.739 33.6682 67.8425 34.6565Z" fill="#A41E11"/>
<path d="M67.8411 27.6412C64.1153 29.5831 44.8144 37.5189 40.7052 39.6617C36.5963 41.8037 34.3136 41.7827 31.0676 40.2309C27.8213 38.6801 7.28198 30.3821 3.58216 28.6143C-0.117659 26.8462 -0.195114 25.6288 3.43925 24.2051C7.07361 22.7823 27.5006 14.7677 31.8179 13.2191C36.1346 11.6706 37.6322 11.6144 41.3058 12.9603C44.9797 14.306 64.1655 21.9421 67.7958 23.2721C71.4274 24.6031 71.5668 25.6994 67.8411 27.6412" fill="#D82C20"/>
<path d="M67.8425 22.8144C64.1165 24.7563 44.815 32.6926 40.7059 34.8357C36.5967 36.9777 34.314 36.9567 31.0677 35.4049C27.8214 33.8539 7.28149 25.5559 3.5814 23.7881C1.73231 22.9036 0.759766 22.1582 0.759766 21.4541V14.3959C0.759766 14.3959 27.5007 8.57505 31.8177 7.02651C36.1344 5.47741 37.6322 5.42178 41.3059 6.76742C44.9803 8.11333 66.9474 12.0758 70.578 13.4059L70.5763 20.3637C70.5769 21.0605 69.739 21.8258 67.8425 22.8144Z" fill="#A41E11"/>
<path d="M67.8409 15.7991C64.1152 17.7409 44.8143 25.6773 40.7051 27.8193C36.5962 29.9613 34.3135 29.9403 31.0675 28.3893C27.8215 26.8375 7.28184 18.54 3.5823 16.7719C-0.117795 15.0041 -0.194977 13.7864 3.43911 12.363C7.07348 10.9399 27.5005 2.92639 31.8177 1.3773C36.1345 -0.171522 37.632 -0.227159 41.3057 1.11875C44.9796 2.46466 64.1654 10.1008 67.7957 11.4308C71.4273 12.7607 71.5667 13.8573 67.8409 15.7991" fill="#D82C20"/>
<path d="M44.2004 8.93378L38.1977 9.55696L36.854 12.7904L34.6836 9.18223L27.7522 8.55932L32.9242 6.69414L31.3724 3.83105L36.2147 5.72487L40.7796 4.23033L39.5458 7.19078L44.2004 8.93378V8.93378ZM36.4956 24.6205L25.2928 19.974L41.3455 17.5099L36.4956 24.6205V24.6205ZM20.9638 10.731C25.7024 10.731 29.5438 12.2201 29.5438 14.0567C29.5438 15.8938 25.7024 17.3826 20.9638 17.3826C16.2252 17.3826 12.3838 15.8935 12.3838 14.0567C12.3838 12.2201 16.2252 10.731 20.9638 10.731Z" fill="white"/>
<path d="M51.2949 9.81766L60.7956 13.572L51.3031 17.3229L51.2949 9.81738" fill="#7A0C00"/>
<path d="M40.7842 13.9754L51.2951 9.81763L51.3033 17.3228L50.2726 17.7259L40.7842 13.9754Z" fill="#AD2115"/>
</g></a>
</svg>
