<svg width="61" height="60" viewBox="0 0 61 60" fill="none" xmlns="http://www.w3.org/2000/svg" xmlns:xlink="http://www.w3.org/1999/xlink">
<style>
svg .img {
opacity: 0;
transition-duration: 0.5s;
}
svg .img:hover {
opacity: 1;
transition-duration: 0.3s;
}
</style>
<g opacity="0.15">
<path d="M55.0188 3.12871C54.1751 5.14406 53.105 7.05785 51.8161 8.81542C46.1762 3.17558 38.5211 0.00415039 30.5456 0.00415039C14.0479 0.00415039 0.47168 13.596 0.47168 30.1171C0.47168 38.3582 3.84621 46.2477 9.81413 51.9344L10.9233 52.9186C16.3445 57.4883 23.2107 60.0036 30.2956 60.0036C45.981 60.0036 59.1666 47.7084 60.2836 32.0387C61.1038 24.3679 58.8542 14.6662 55.0188 3.12871ZM14.087 52.1062C13.6027 52.7077 12.8606 53.0592 12.0872 53.0592C10.6734 53.0592 9.51729 51.8953 9.51729 50.4815C9.51729 49.0676 10.6812 47.9037 12.0872 47.9037C12.6731 47.9037 13.2511 48.1068 13.7042 48.4817C14.8056 49.3723 14.9775 51.0048 14.087 52.1062ZM54.8938 43.0919C47.4729 52.9889 31.6236 49.6535 21.4609 50.13C21.4609 50.13 19.6565 50.2393 17.8443 50.5362C17.8443 50.5362 18.5238 50.2471 19.4065 49.9112C26.5384 47.4272 29.9129 46.9429 34.2482 44.7167C42.4111 40.561 50.4803 31.4685 52.1598 22.0089C49.0508 31.1092 39.6303 38.9284 31.0455 42.1076C25.1635 44.2792 14.54 46.3883 14.54 46.3883L14.1104 46.1618C6.87704 42.6388 6.65832 26.9613 19.8049 21.8995C25.5619 19.6811 31.069 20.8997 37.2869 19.4155C43.9266 17.8376 51.6052 12.8539 54.7297 6.35483C58.2292 16.7518 62.4396 33.0308 54.8938 43.0919V43.0919Z" fill="#0D2743"/>
</g>
<a xlink:href="https://spring.io/" target="_blank" xlink:title="Spring Boot" xlink:alt="Spring Boot">
<g class="img">
<rect width="61" height="60" fill="white" opacity="0"/>
<path d="M55.0188 3.12871C54.1751 5.14406 53.105 7.05785 51.8161 8.81542C46.1762 3.17558 38.5211 0.00415039 30.5456 0.00415039C14.0479 0.00415039 0.47168 13.596 0.47168 30.1171C0.47168 38.3582 3.84621 46.2477 9.81413 51.9344L10.9233 52.9186C16.3445 57.4883 23.2107 60.0036 30.2956 60.0036C45.981 60.0036 59.1666 47.7084 60.2836 32.0387C61.1038 24.3679 58.8542 14.6662 55.0188 3.12871ZM14.087 52.1062C13.6027 52.7077 12.8606 53.0592 12.0872 53.0592C10.6734 53.0592 9.51729 51.8953 9.51729 50.4815C9.51729 49.0676 10.6812 47.9037 12.0872 47.9037C12.6731 47.9037 13.2511 48.1068 13.7042 48.4817C14.8056 49.3723 14.9775 51.0048 14.087 52.1062ZM54.8938 43.0919C47.4729 52.9889 31.6236 49.6535 21.4609 50.13C21.4609 50.13 19.6565 50.2393 17.8443 50.5362C17.8443 50.5362 18.5238 50.2471 19.4065 49.9112C26.5384 47.4272 29.9129 46.9429 34.2482 44.7167C42.4111 40.561 50.4803 31.4685 52.1598 22.0089C49.0508 31.1092 39.6303 38.9284 31.0455 42.1076C25.1635 44.2792 14.54 46.3883 14.54 46.3883L14.1104 46.1618C6.87704 42.6388 6.65832 26.9613 19.8049 21.8995C25.5619 19.6811 31.069 20.8997 37.2869 19.4155C43.9266 17.8376 51.6052 12.8539 54.7297 6.35483C58.2292 16.7518 62.4396 33.0308 54.8938 43.0919V43.0919Z" fill="#6DB33F"/>
</g></a>
</svg>