<svg width="61" height="60" viewBox="0 0 61 60" fill="none" xmlns="http://www.w3.org/2000/svg">
<g opacity="0.15" clip-path="url(#clip0)">
<path d="M55.2385 3.12871C54.3948 5.14406 53.3247 7.05785 52.0358 8.81542C46.396 3.17558 38.7408 0.00415039 30.7653 0.00415039C14.2676 0.00415039 0.691406 13.596 0.691406 30.1171C0.691406 38.3582 4.06594 46.2477 10.0339 51.9344L11.1431 52.9186C16.5642 57.4883 23.4304 60.0036 30.5154 60.0036C46.2007 60.0036 59.3863 47.7084 60.5034 32.0387C61.3236 24.3679 59.0739 14.6662 55.2385 3.12871ZM14.3067 52.1062C13.8224 52.7077 13.0803 53.0592 12.307 53.0592C10.8931 53.0592 9.73702 51.8953 9.73702 50.4815C9.73702 49.0676 10.9009 47.9037 12.307 47.9037C12.8928 47.9037 13.4709 48.1068 13.9239 48.4818C15.0253 49.3722 15.1972 51.0048 14.3067 52.1062ZM55.1135 43.0919C47.6927 52.9889 31.8433 49.6535 21.6807 50.13C21.6807 50.13 19.8762 50.2393 18.064 50.5362C18.064 50.5362 18.7436 50.2471 19.6263 49.9112C26.7581 47.4272 30.1326 46.9429 34.4679 44.7167C42.6309 40.561 50.7001 31.4685 52.3795 22.0089C49.2706 31.1092 39.85 38.9284 31.2653 42.1076C25.3833 44.2792 14.7598 46.3883 14.7598 46.3883L14.3301 46.1618C7.09676 42.6388 6.87804 26.9613 20.0246 21.8995C25.7817 19.6811 31.2887 20.8997 37.5066 19.4155C44.1463 17.8376 51.8249 12.8539 54.9495 6.35483C58.449 16.7518 62.6593 33.0308 55.1135 43.0919Z" fill="#0D2743"/>
</g>
<defs>
<clipPath id="clip0">
<rect width="59.976" height="60" fill="white" transform="translate(0.691406)"/>
</clipPath>
</defs>
</svg>
