<svg width="86" height="86" viewBox="0 0 86 86" fill="none" xmlns="http://www.w3.org/2000/svg">
<path d="M54.4146 25.0402C54.9294 23.4654 54.07 21.7714 52.4952 21.2566L43.3706 18.274C41.7957 17.7592 40.1017 18.6185 39.5869 20.1934L39.4316 20.6685C38.9168 22.2434 39.7762 23.9374 41.351 24.4521L50.4756 27.4348C52.0505 27.9496 53.7445 27.0902 54.2593 25.5154L54.4146 25.0402Z" fill="#305680"/>
<path fill-rule="evenodd" clip-rule="evenodd" d="M56.9106 42.3036C54.7627 40.1558 54.7627 36.6733 56.9106 34.5255L60.0217 31.4143C62.1696 29.2664 65.652 29.2664 67.7999 31.4143L68.1534 31.7678C70.3012 33.9157 70.3012 37.3981 68.1534 39.546L65.0422 42.6571C62.8943 44.805 59.4119 44.805 57.264 42.6571L56.9106 42.3036ZM60.4461 38.061C60.2508 38.2563 60.2508 38.5728 60.4461 38.7681L60.7996 39.1216C60.9948 39.3168 61.3114 39.3168 61.5067 39.1216L64.6178 36.0104C64.8131 35.8152 64.8131 35.4986 64.6178 35.3033L64.2643 34.9499C64.0691 34.7546 63.7525 34.7546 63.5572 34.9499L60.4461 38.061Z" fill="#305680"/>
<path fill-rule="evenodd" clip-rule="evenodd" d="M52.3149 37.7074C50.167 35.5596 50.167 32.0772 52.3149 29.9293L58.1837 24.0605C60.3316 21.9126 63.814 21.9126 65.9618 24.0605L66.3153 24.4139C68.4632 26.5618 68.4632 30.0442 66.3153 32.1921L60.4465 38.0609C58.2986 40.2088 54.8162 40.2088 52.6683 38.0609L52.3149 37.7074ZM55.8504 33.4648C55.6551 33.6601 55.6551 33.9767 55.8504 34.1719L56.2039 34.5254C56.3991 34.7206 56.7157 34.7206 56.911 34.5254L62.7798 28.6566C62.975 28.4613 62.975 28.1447 62.7798 27.9495L62.4263 27.596C62.2311 27.4007 61.9145 27.4007 61.7192 27.596L55.8504 33.4648Z" fill="#305680"/>
<path fill-rule="evenodd" clip-rule="evenodd" d="M47.7182 33.1115C45.5703 30.9636 45.5703 27.4812 47.7182 25.3333L54.5062 18.5453C56.6541 16.3974 60.1365 16.3974 62.2844 18.5453L62.6379 18.8988C64.7857 21.0466 64.7857 24.5291 62.6379 26.6769L55.8498 33.465C53.7019 35.6129 50.2195 35.6129 48.0717 33.465L47.7182 33.1115ZM51.2537 28.8689C51.0585 29.0641 51.0585 29.3807 51.2537 29.576L51.6072 29.9294C51.8025 30.1247 52.119 30.1247 52.3143 29.9294L59.1023 23.1414C59.2976 22.9461 59.2976 22.6296 59.1023 22.4343L58.7489 22.0808C58.5536 21.8856 58.237 21.8856 58.0418 22.0808L51.2537 28.8689Z" fill="#305680"/>
<path fill-rule="evenodd" clip-rule="evenodd" d="M43.1225 28.5153C40.9746 26.3674 40.9746 22.885 43.1225 20.7371L48.0721 15.7876C50.2199 13.6397 53.7024 13.6397 55.8502 15.7875L56.2037 16.141C58.3516 18.2889 58.3516 21.7713 56.2037 23.9192L51.2541 28.8688C49.1063 31.0167 45.6238 31.0167 43.476 28.8688L43.1225 28.5153ZM46.658 24.2727C46.4628 24.4679 46.4628 24.7845 46.658 24.9798L47.0115 25.3332C47.2068 25.5285 47.5233 25.5285 47.7186 25.3332L52.6682 20.3837C52.8634 20.1884 52.8634 19.8718 52.6682 19.6766L52.3147 19.3231C52.1194 19.1278 51.8029 19.1278 51.6076 19.3231L46.658 24.2727Z" fill="#305680"/>
<path d="M78.4129 56.3749C79.194 55.5939 79.194 54.3275 78.4129 53.5465L73.8876 49.0211C73.1065 48.2401 71.8402 48.2401 71.0592 49.0211L53.6647 66.4156C52.8836 67.1966 52.8836 68.463 53.6647 69.244L58.19 73.7694C58.9711 74.5504 60.2374 74.5504 61.0185 73.7694L78.4129 56.3749Z" fill="#2A7DEC"/>
<path fill-rule="evenodd" clip-rule="evenodd" d="M38.1612 19.7276C38.9333 17.3653 41.4743 16.0763 43.8366 16.8484L52.9612 19.8311L52.4952 21.2569L52.9612 19.8311C55.3235 20.6033 56.6125 23.1443 55.8403 25.5065L55.685 25.9817C55.4338 26.7502 54.9954 27.4051 54.4369 27.9124L60.1341 28.1837C60.5068 28.2014 60.8595 28.3575 61.1234 28.6213L63.1286 30.6266C65.371 32.869 66.5563 35.9578 66.3896 39.1247C66.2638 41.5163 67.1589 43.8491 68.8524 45.5426L70.7167 47.4069C72.056 46.6289 73.8009 46.8135 74.9479 47.9604L79.4732 52.4858C80.8401 53.8526 80.8401 56.0687 79.4732 57.4355L62.0788 74.83C60.7119 76.1968 58.4958 76.1968 57.129 74.83L52.6037 70.3046C51.457 69.1579 51.2723 67.4136 52.0496 66.0744L48.7813 62.8061C46.5053 60.5301 43.9421 58.5609 41.1565 56.9482L41.9081 55.65L41.1565 56.9482L38.8804 55.6304C37.3799 54.7617 35.9993 53.701 34.7733 52.475C34.492 52.1937 34.334 51.8122 34.334 51.4144C34.334 51.0166 34.492 50.635 34.7733 50.3537L52.0971 33.0299L49.3502 30.283C48.912 29.8448 48.7884 29.1823 49.0391 28.6156C49.0484 28.5945 49.0582 28.5737 49.0684 28.5532L40.885 25.8782C38.5227 25.106 37.2337 22.565 38.0059 20.2027L38.1612 19.7276ZM54.2151 30.9052L55.2791 31.9693C55.5604 32.2506 55.7184 32.6321 55.7184 33.0299C55.7184 33.4278 55.5604 33.8093 55.2791 34.0906L38.0024 51.3673C38.7461 51.9895 39.5427 52.5473 40.3835 53.0341L42.6596 54.3519C45.671 56.0953 48.4421 58.2243 50.9026 60.6848L55.1488 64.931C55.4301 65.2123 55.5882 65.5939 55.5882 65.9917C55.5882 66.3895 55.4301 66.771 55.1488 67.0523L54.725 67.4762C54.5297 67.6715 54.5297 67.988 54.725 68.1833L59.2503 72.7086C59.4456 72.9039 59.7622 72.9039 59.9574 72.7086L77.3519 55.3142C77.5472 55.1189 77.5472 54.8023 77.3519 54.6071L72.8266 50.0817C72.6313 49.8865 72.3147 49.8865 72.1194 50.0817L71.6948 50.5063C71.4135 50.7876 71.032 50.9457 70.6342 50.9457C70.2364 50.9457 69.8548 50.7876 69.5735 50.5063L66.7311 47.6639C64.4362 45.369 63.2232 42.208 63.3938 38.967C63.5158 36.6494 62.6483 34.3889 61.0073 32.7479L59.4121 31.1527L54.2151 30.9052ZM42.9045 19.7C42.1171 19.4426 41.2701 19.8722 41.0127 20.6597L40.8574 21.1348C40.6 21.9222 41.0297 22.7692 41.8171 23.0266L50.9417 26.0093C51.7291 26.2667 52.5761 25.837 52.8335 25.0496L52.9888 24.5744C53.2462 23.787 52.8165 22.94 52.0291 22.6826L42.9045 19.7Z" fill="#305680"/>
<path d="M58.678 40.5359C57.5064 39.3643 57.5064 37.4648 58.678 36.2932L61.7891 33.1821C62.9607 32.0105 64.8602 32.0105 66.0317 33.1821L66.3852 33.5356C67.5568 34.7071 67.5568 36.6066 66.3852 37.7782L63.2741 40.8893C62.1025 42.0609 60.203 42.0609 59.0314 40.8893L58.678 40.5359Z" fill="white"/>
<path d="M54.0823 35.9397C52.9107 34.7681 52.9107 32.8686 54.0823 31.697L59.9511 25.8282C61.1226 24.6567 63.0221 24.6567 64.1937 25.8282L64.5472 26.1817C65.7187 27.3533 65.7187 29.2528 64.5472 30.4243L58.6784 36.2932C57.5068 37.4647 55.6073 37.4647 54.4357 36.2932L54.0823 35.9397Z" fill="white"/>
<path d="M49.4856 31.3437C48.314 30.1722 48.314 28.2727 49.4856 27.1011L56.2736 20.3131C57.4452 19.1415 59.3447 19.1415 60.5162 20.3131L60.8697 20.6665C62.0413 21.8381 62.0413 23.7376 60.8697 24.9092L54.0817 31.6972C52.9101 32.8688 51.0106 32.8688 49.839 31.6972L49.4856 31.3437Z" fill="white"/>
<path d="M44.8899 26.7473C43.7183 25.5757 43.7183 23.6762 44.8899 22.5047L49.8395 17.5551C51.011 16.3835 52.9105 16.3835 54.0821 17.5551L54.4356 17.9085C55.6071 19.0801 55.6071 20.9796 54.4356 22.1512L49.486 27.1008C48.3144 28.2723 46.4149 28.2723 45.2433 27.1008L44.8899 26.7473Z" fill="white"/>
<path d="M28.345 34.1011C27.1734 32.9295 27.1734 31.03 28.345 29.8584L35.133 23.0704C36.3046 21.8988 38.204 21.8988 39.3756 23.0704L39.7291 23.4239C40.9007 24.5954 40.9007 26.4949 39.7291 27.6665L32.9411 34.4545C31.7695 35.6261 29.87 35.6261 28.6984 34.4545L28.345 34.1011Z" fill="white"/>
<path d="M17.9506 49.4452L20.7926 46.6032C22.7868 44.609 23.8409 41.8621 23.6927 39.0458C23.5484 36.3035 24.5747 33.6289 26.5164 31.6872L28.5217 29.682L38.1735 29.2223L47.3657 20.0301L65.7502 38.4146L54.6102 49.5546C52.2419 51.9228 49.5748 53.9719 46.6763 55.65C43.7778 57.3281 41.1107 59.3772 38.7425 61.7454L34.4966 65.9912L17.9506 49.4452Z" fill="white"/>
<path d="M10.172 56.3747C9.39098 55.5936 9.39098 54.3273 10.172 53.5462L14.6974 49.0209C15.4784 48.2398 16.7448 48.2398 17.5258 49.0209L34.9203 66.4153C35.7013 67.1964 35.7013 68.4627 34.9203 69.2438L30.3949 73.7691C29.6139 74.5502 28.3475 74.5502 27.5665 73.7691L10.172 56.3747Z" fill="#2A7DEC"/>
<path d="M29.905 40.5359C31.0766 39.3643 31.0766 37.4648 29.905 36.2932L26.7939 33.1821C25.6223 32.0105 23.7228 32.0105 22.5513 33.1821L22.1978 33.5356C21.0262 34.7071 21.0262 36.6066 22.1978 37.7782L25.3089 40.8893C26.4805 42.0609 28.38 42.0609 29.5516 40.8893L29.905 40.5359Z" fill="#305680"/>
<path d="M34.5007 35.9397C35.6723 34.7681 35.6723 32.8686 34.5008 31.697L28.6319 25.8282C27.4604 24.6567 25.5609 24.6567 24.3893 25.8282L24.0358 26.1817C22.8643 27.3533 22.8643 29.2528 24.0358 30.4243L29.9046 36.2932C31.0762 37.4647 32.9757 37.4647 34.1473 36.2932L34.5007 35.9397Z" fill="#305680"/>
<path d="M39.0974 31.3437C40.269 30.1722 40.269 28.2727 39.0974 27.1011L32.3094 20.3131C31.1378 19.1415 29.2383 19.1415 28.0668 20.3131L27.7133 20.6665C26.5417 21.8381 26.5417 23.7376 27.7133 24.9092L34.5013 31.6972C35.6729 32.8688 37.5724 32.8688 38.744 31.6972L39.0974 31.3437Z" fill="#305680"/>
<path d="M43.6931 26.7475C44.8647 25.576 44.8647 23.6765 43.6931 22.5049L38.7436 17.5553C37.572 16.3837 35.6725 16.3837 34.5009 17.5553L34.1474 17.9088C32.9759 19.0804 32.9759 20.9799 34.1474 22.1514L39.097 27.101C40.2686 28.2726 42.1681 28.2726 43.3397 27.101L43.6931 26.7475Z" fill="#305680"/>
<path fill-rule="evenodd" clip-rule="evenodd" d="M33.4357 67.0519C32.8499 66.4661 32.8499 65.5163 33.4357 64.9306L41.249 57.1172C41.3413 57.0249 41.4452 56.9451 41.5582 56.8797L45.641 54.5159C48.6147 52.7943 51.3511 50.692 53.7808 48.2623L55.6038 46.4393C56.1895 45.8536 57.1393 45.8536 57.7251 46.4393C58.3109 47.0251 58.3109 47.9749 57.7251 48.5607L55.9021 50.3836C53.2879 52.9979 50.3437 55.2598 47.1441 57.1122L43.2314 59.3775L35.557 67.0519C34.9712 67.6377 34.0214 67.6377 33.4357 67.0519Z" fill="#305680"/>
<path fill-rule="evenodd" clip-rule="evenodd" d="M13.2364 59.4393C13.8222 58.8536 14.772 58.8536 15.3578 59.4393L27.9199 72.0015C28.5057 72.5873 29.4554 72.5873 30.0412 72.0015L33.1524 68.8903C33.7381 68.3046 33.7381 67.3548 33.1524 66.769L30.4392 64.0559C29.8534 63.4701 29.8534 62.5203 30.4392 61.9345C31.025 61.3488 31.9747 61.3488 32.5605 61.9345L35.2737 64.6477C37.031 66.4051 37.031 69.2543 35.2737 71.0117L32.1625 74.1228C30.4052 75.8802 27.5559 75.8802 25.7986 74.1228L13.2364 61.5607C12.6507 60.9749 12.6507 60.0251 13.2364 59.4393Z" fill="#305680"/>
<path fill-rule="evenodd" clip-rule="evenodd" d="M9.8187 58.1424C8.06134 56.3851 8.06134 53.5358 9.8187 51.7785L12.9298 48.6673C14.6872 46.91 17.5364 46.91 19.2938 48.6673L23.0657 52.4392C23.6515 53.025 23.6515 53.9748 23.0657 54.5605C22.4799 55.1463 21.5302 55.1463 20.9444 54.5605L17.1725 50.7887C16.5867 50.2029 15.6369 50.2029 15.0512 50.7887L11.94 53.8998C11.3542 54.4856 11.3542 55.4353 11.94 56.0211L12.0609 56.142C12.6467 56.7278 12.6467 57.6775 12.0609 58.2633C11.4751 58.8491 10.5254 58.8491 9.93957 58.2633L9.8187 58.1424Z" fill="#305680"/>
<path fill-rule="evenodd" clip-rule="evenodd" d="M23.3873 33.2398C24.2146 33.1962 24.9206 33.8316 24.9641 34.6588L25.3535 42.0572C25.4205 43.3311 24.9437 44.5737 24.0417 45.4757L19.0115 50.5059C18.4257 51.0917 17.476 51.0917 16.8902 50.5059C16.3044 49.9201 16.3044 48.9704 16.8902 48.3846L21.9204 43.3544C22.2211 43.0537 22.38 42.6395 22.3576 42.2149L21.9682 34.8165C21.9247 33.9892 22.5601 33.2833 23.3873 33.2398Z" fill="#305680"/>
</svg>
