<svg width="86" height="86" viewBox="0 0 86 86" fill="none" xmlns="http://www.w3.org/2000/svg">
<path fill-rule="evenodd" clip-rule="evenodd" d="M12 60C10.8954 60 10 60.8954 10 62V75C10 76.1046 10.8954 77 12 77H29C30.1046 77 31 76.1046 31 75V72C31 73.1046 30.1046 74 29 74H16C14.8954 74 14 73.1046 14 72V62C14 60.8954 14.8954 60 16 60H12Z" fill="#2A7DEC"/>
<path fill-rule="evenodd" clip-rule="evenodd" d="M34 51C32.8954 51 32 51.8954 32 53V75C32 76.1046 32.8954 77 34 77H51C52.1046 77 53 76.1046 53 75V72C53 73.1046 52.1046 74 51 74H38C36.8954 74 36 73.1046 36 72V53C36 51.8954 36.8954 51 38 51H34Z" fill="#2A7DEC"/>
<path fill-rule="evenodd" clip-rule="evenodd" d="M56 42C54.8954 42 54 42.8954 54 44V75C54 76.1046 54.8954 77 56 77H73C74.1046 77 75 76.1046 75 75V72C75 73.1046 74.1046 74 73 74H60C58.8954 74 58 73.1046 58 72V44C58 42.8954 58.8954 42 60 42H56Z" fill="#2A7DEC"/>
<path fill-rule="evenodd" clip-rule="evenodd" d="M12.5 61C11.6716 61 11 61.6716 11 62.5V74.5C11 75.3284 11.6716 76 12.5 76H28.5C29.3284 76 30 75.3284 30 74.5V61.5C30 60.6716 30.6716 60 31.5 60C32.3284 60 33 60.6716 33 61.5V74.5C33 76.9853 30.9853 79 28.5 79H12.5C10.0147 79 8 76.9853 8 74.5V62.5C8 60.0147 10.0147 58 12.5 58H25C25.8284 58 26.5 58.6716 26.5 59.5C26.5 60.3284 25.8284 61 25 61H12.5Z" fill="#305680"/>
<path fill-rule="evenodd" clip-rule="evenodd" d="M30 53.5C30 51.0147 32.0147 49 34.5 49H50.5C52.9853 49 55 51.0147 55 53.5V54.5C55 55.3284 54.3284 56 53.5 56C52.6716 56 52 55.3284 52 54.5V53.5C52 52.6716 51.3284 52 50.5 52H34.5C33.6716 52 33 52.6716 33 53.5V74.5C33 75.3284 33.6716 76 34.5 76H41.25C42.0784 76 42.75 76.6716 42.75 77.5C42.75 78.3284 42.0784 79 41.25 79H34.5C32.0147 79 30 76.9853 30 74.5V53.5ZM53.5 65C54.3284 65 55 65.6716 55 66.5V74.5C55 76.9853 52.9853 79 50.5 79H47C46.1716 79 45.5 78.3284 45.5 77.5C45.5 76.6716 46.1716 76 47 76H50.5C51.3284 76 52 75.3284 52 74.5V66.5C52 65.6716 52.6716 65 53.5 65Z" fill="#305680"/>
<path fill-rule="evenodd" clip-rule="evenodd" d="M52 44.5C52 42.0147 54.0147 40 56.5 40H72.5C74.9853 40 77 42.0147 77 44.5V74.5C77 76.9853 74.9853 79 72.5 79H56.5C54.0147 79 52 76.9853 52 74.5V66.5C52 65.6716 52.6716 65 53.5 65C54.3284 65 55 65.6716 55 66.5V74.5C55 75.3284 55.6716 76 56.5 76H72.5C73.3284 76 74 75.3284 74 74.5V44.5C74 43.6716 73.3284 43 72.5 43H56.5C55.6716 43 55 43.6716 55 44.5V45C55 45.8284 54.3284 46.5 53.5 46.5C52.6716 46.5 52 45.8284 52 45V44.5Z" fill="#305680"/>
<path d="M66 9.5C66 8.67157 66.6716 8 67.5 8C68.3284 8 69 8.67157 69 9.5V40H66V9.5Z" fill="#305680"/>
<path d="M84 23L66 23L66 10L84 10L79.0909 16.5L84 23Z" fill="#2A7DEC"/>
<path d="M43.5365 29.4446C43.9904 27.8511 45.6502 26.9273 47.2436 27.3812L47.4076 27.4279C49.0011 27.8818 49.9249 29.5415 49.471 31.135L47.7867 37.0479C47.3328 38.6414 45.6731 39.5652 44.0796 39.1113L43.9156 39.0645C42.3221 38.6106 41.3983 36.9509 41.8522 35.3574L43.5365 29.4446Z" fill="#305680"/>
<path d="M40.239 35.6916C39.5903 36.2058 38.6317 35.9815 38.2785 35.2328C38.0447 34.7373 38.1509 34.148 38.5428 33.7651L44.4654 27.9802C45.1925 27.27 46.3745 27.3451 47.0059 28.1417C47.5938 28.8835 47.4691 29.9613 46.7273 30.5492L40.239 35.6916Z" fill="#305680"/>
<path d="M56.3183 24.4788C57.22 24.2371 58.1055 24.9166 58.1055 25.8501C58.1056 26.4454 57.7342 26.9776 57.1753 27.1829L46.8117 30.99C45.7532 31.3788 44.5891 30.7751 44.2973 29.6858C44.023 28.6624 44.6304 27.6105 45.6537 27.3363L56.3183 24.4788Z" fill="#305680"/>
<path d="M49.4097 41.9635C49.7216 43.1274 48.9211 44.295 47.7231 44.4237C46.8736 44.515 46.0626 44.0465 45.7174 43.265L42.973 37.0525C42.3562 35.6563 43.1305 34.0391 44.6048 33.644C45.932 33.2884 47.2963 34.076 47.6519 35.4032L49.4097 41.9635Z" fill="#305680"/>
<path d="M42.5398 44.2235C41.9659 45.2175 40.6403 45.4648 39.7466 44.7446C39.1129 44.2339 38.8823 43.372 39.1761 42.6131L41.5121 36.58C42.0371 35.2241 43.648 34.6563 44.9071 35.3833C46.0406 36.0378 46.429 37.4872 45.7746 38.6207L42.5398 44.2235Z" fill="#305680"/>
<path d="M38.5293 49.5587C37.9858 50.2715 36.9304 50.3203 36.3233 49.6608C35.8995 49.2004 35.8213 48.5191 36.1298 47.9746L39.1592 42.6276C39.7149 41.6467 41.0085 41.3819 41.9049 42.0655C42.7216 42.6884 42.8788 43.8553 42.256 44.672L38.5293 49.5587Z" fill="#305680"/>
<path d="M48.1046 48.8365C47.9217 49.6619 47.0357 50.12 46.2565 49.792C45.7148 49.564 45.382 49.0128 45.4324 48.4273L45.9518 42.3946C46.0428 41.3373 47.044 40.6019 48.0802 40.8315C49.0266 41.0411 49.6239 41.9783 49.4142 42.9248L48.1046 48.8365Z" fill="#305680"/>
<path d="M51.8008 23C51.8008 25.2091 50.0099 27 47.8008 27C45.5916 27 43.8008 25.2091 43.8008 23C43.8008 20.7909 45.5916 19 47.8008 19C50.0099 19 51.8008 20.7909 51.8008 23Z" fill="#305680"/>
</svg>
