<svg width="61" height="60" viewBox="0 0 61 60" fill="none" xmlns="http://www.w3.org/2000/svg" xmlns:xlink="http://www.w3.org/1999/xlink">
<style>
svg .img {
opacity: 0;
transition-duration: 0.5s;
}
svg .img:hover {
opacity: 1;
transition-duration: 0.3s;
}
</style>
<g opacity="0.15">
<path fill-rule="evenodd" clip-rule="evenodd" d="M0.847656 0V30V60H60.8477V0H0.847656ZM14.0027 32.55V30.105L14.0477 30.12V27.66L24.5477 27.615C30.3227 27.615 35.0777 27.63 35.0777 27.675C35.1377 27.705 35.1377 28.8 35.1377 30.15V32.55H27.3377V54.7501H21.8027V32.55H14.0027ZM52.8078 29.745C51.7578 28.65 50.5877 27.96 49.0577 27.6L49.0877 27.57C48.0527 27.3 45.5777 27.21 44.5277 27.42C41.2877 28.02 39.0227 30.12 38.3777 33.12C38.1677 33.975 38.2427 36.105 38.4677 36.975C38.7677 37.98 39.4127 39.195 40.1177 39.975C41.3477 41.265 42.6677 42.105 45.7727 43.4251C48.4727 44.6251 49.4327 45.1651 49.9127 45.8251C50.2577 46.3501 50.3627 46.6651 50.3627 47.3551C50.3627 48.1051 50.1227 48.6451 49.5677 49.1551C48.2777 50.3251 45.6677 50.4601 43.7177 49.4551C43.0727 49.0951 41.9627 48.0451 41.4677 47.2651L41.0777 46.7401L39.3827 47.7301L37.1327 49.0351L36.5627 49.3951C36.5027 49.5001 37.5677 51.1051 38.1227 51.7051C39.5327 53.2501 41.8277 54.4501 44.2277 54.9001C45.3527 55.0951 47.7527 55.1251 48.8027 54.9451C52.1478 54.3901 54.4878 52.6951 55.4478 50.1901C56.3028 47.8951 56.0178 44.8351 54.7428 42.885C53.6177 41.145 51.7577 39.93 47.4677 38.085C45.1427 37.065 44.3927 36.57 43.9877 35.745C43.8077 35.355 43.7177 35.085 43.7177 34.605C43.7177 33.03 44.9177 32.085 46.7177 32.205C47.9627 32.295 48.7577 32.775 49.5377 33.885C49.7777 34.275 50.0177 34.53 50.0777 34.485C51.6528 33.51 54.2478 31.755 54.2478 31.665C54.1878 31.395 53.3628 30.345 52.8078 29.745Z" fill="#0D2743"/>
</g>
<a xlink:href="https://www.typescriptlang.org/" target="_blank" xlink:title="TypeScript" xlink:alt="TypeScript">
<g class="img">
<rect width="61" height="60" fill="white" opacity="0"/>
<path fill-rule="evenodd" clip-rule="evenodd" d="M0.847656 0V30V60H60.8477V0H0.847656ZM14.0027 32.55V30.105L14.0477 30.12V27.66L24.5477 27.615C30.3227 27.615 35.0777 27.63 35.0777 27.675C35.1377 27.705 35.1377 28.8 35.1377 30.15V32.55H27.3377V54.7501H21.8027V32.55H14.0027ZM52.8078 29.745C51.7578 28.65 50.5877 27.96 49.0577 27.6L49.0877 27.57C48.0527 27.3 45.5777 27.21 44.5277 27.42C41.2877 28.02 39.0227 30.12 38.3777 33.12C38.1677 33.975 38.2427 36.105 38.4677 36.975C38.7677 37.98 39.4127 39.195 40.1177 39.975C41.3477 41.265 42.6677 42.105 45.7727 43.4251C48.4727 44.6251 49.4327 45.1651 49.9127 45.8251C50.2577 46.3501 50.3627 46.6651 50.3627 47.3551C50.3627 48.1051 50.1227 48.6451 49.5677 49.1551C48.2777 50.3251 45.6677 50.4601 43.7177 49.4551C43.0727 49.0951 41.9627 48.0451 41.4677 47.2651L41.0777 46.7401L39.3827 47.7301L37.1327 49.0351L36.5627 49.3951C36.5027 49.5001 37.5677 51.1051 38.1227 51.7051C39.5327 53.2501 41.8277 54.4501 44.2277 54.9001C45.3527 55.0951 47.7527 55.1251 48.8027 54.9451C52.1478 54.3901 54.4878 52.6951 55.4478 50.1901C56.3028 47.8951 56.0178 44.8351 54.7428 42.885C53.6177 41.145 51.7577 39.93 47.4677 38.085C45.1427 37.065 44.3927 36.57 43.9877 35.745C43.8077 35.355 43.7177 35.085 43.7177 34.605C43.7177 33.03 44.9177 32.085 46.7177 32.205C47.9627 32.295 48.7577 32.775 49.5377 33.885C49.7777 34.275 50.0177 34.53 50.0777 34.485C51.6528 33.51 54.2478 31.755 54.2478 31.665C54.1878 31.395 53.3628 30.345 52.8078 29.745Z" fill="#3178C6"/>
</g></a>
</svg>
