<svg width="61" height="60" viewBox="0 0 61 60" fill="none" xmlns="http://www.w3.org/2000/svg">
<g opacity="0.15" clip-path="url(#clip0)">
<path fill-rule="evenodd" clip-rule="evenodd" d="M0.0673828 0V30V60H60.0674V0H0.0673828ZM13.2224 32.55V30.105L13.2674 30.12V27.66L23.7674 27.615C29.5424 27.615 34.2974 27.63 34.2974 27.675C34.3574 27.705 34.3574 28.8 34.3574 30.15V32.55H26.5574V54.7501H21.0224V32.55H13.2224ZM52.0275 29.745C50.9775 28.65 49.8075 27.96 48.2775 27.6L48.3075 27.57C47.2725 27.3 44.7975 27.21 43.7475 27.42C40.5075 28.02 38.2425 30.12 37.5975 33.12C37.3875 33.975 37.4625 36.105 37.6875 36.975C37.9875 37.98 38.6325 39.195 39.3375 39.975C40.5675 41.265 41.8875 42.105 44.9925 43.4251C47.6925 44.6251 48.6525 45.1651 49.1325 45.8251C49.4775 46.3501 49.5825 46.6651 49.5825 47.3551C49.5825 48.1051 49.3425 48.6451 48.7875 49.1551C47.4975 50.3251 44.8875 50.4601 42.9375 49.4551C42.2925 49.0951 41.1825 48.0451 40.6875 47.2651L40.2975 46.7401L38.6025 47.7301L36.3525 49.0351L35.7825 49.3951C35.7225 49.5001 36.7875 51.1051 37.3425 51.7051C38.7525 53.2501 41.0475 54.4501 43.4475 54.9001C44.5725 55.0951 46.9725 55.1251 48.0225 54.9451C51.3675 54.3901 53.7075 52.6951 54.6675 50.1901C55.5225 47.8951 55.2375 44.8351 53.9625 42.885C52.8375 41.145 50.9775 39.93 46.6875 38.085C44.3625 37.065 43.6125 36.57 43.2075 35.745C43.0275 35.355 42.9375 35.085 42.9375 34.605C42.9375 33.03 44.1375 32.085 45.9375 32.205C47.1825 32.295 47.9775 32.775 48.7575 33.885C48.9975 34.275 49.2375 34.53 49.2975 34.485C50.8725 33.51 53.4675 31.755 53.4675 31.665C53.4075 31.395 52.5825 30.345 52.0275 29.745Z" fill="#0D2743"/>
</g>
<defs>
<clipPath id="clip0">
<rect width="60" height="60" fill="white" transform="translate(0.0673828)"/>
</clipPath>
</defs>
</svg>
