<svg width="86" height="86" viewBox="0 0 86 86" fill="none" xmlns="http://www.w3.org/2000/svg">
<path fill-rule="evenodd" clip-rule="evenodd" d="M36.8314 35.5526L33.9336 36.3291L38.4014 53.0034L41.5073 53.0034L36.8314 35.5526ZM45.5265 68.0034L42.4207 68.0034L44.6746 76.415C44.889 77.2152 45.7115 77.6901 46.5117 77.4757C47.3119 77.2613 47.7868 76.4388 47.5724 75.6386L45.5265 68.0034Z" fill="#2A7DEC"/>
<path fill-rule="evenodd" clip-rule="evenodd" d="M12.2404 24.2625C11.0327 26.2899 10.199 28.4477 9.79123 30.6573C10.353 28.4046 11.1955 26.2493 12.2404 24.2625ZM22.5358 39.3832L41.6609 34.2586C38.5444 22.6278 34.4668 13.3129 27.6593 12.6785C28.1135 12.5353 28.5744 12.4008 29.0415 12.2757C42.6449 8.63066 55.5072 14.4544 58.366 25.1237L47.1031 33.318L23.9209 39.5296L22.5358 39.3832Z" fill="#2A7DEC"/>
<path fill-rule="evenodd" clip-rule="evenodd" d="M29.4292 13.7246C26.66 14.4666 24.1326 15.5461 21.8976 16.879C21.1861 17.3033 20.2653 17.0705 19.841 16.359C19.4167 15.6475 19.6495 14.7267 20.361 14.3024C22.8381 12.8251 25.6219 11.6389 28.6527 10.8268C42.7491 7.04971 56.6672 12.9901 59.8143 24.7355C60.0288 25.5357 59.5539 26.3582 58.7537 26.5727C57.9535 26.7871 57.131 26.3122 56.9166 25.512C54.3461 15.9188 42.5395 10.2117 29.4292 13.7246ZM12.4788 23.7714C13.2088 24.1629 13.4833 25.0721 13.0918 25.8022C11.0729 29.5666 10.4525 33.6999 11.5181 37.6765C11.7325 38.4767 11.2576 39.2992 10.4574 39.5136C9.65719 39.728 8.83469 39.2532 8.62027 38.453C7.33437 33.6539 8.11252 28.7392 10.4479 24.3844C10.8395 23.6543 11.7487 23.3798 12.4788 23.7714Z" fill="#305680"/>
<path fill-rule="evenodd" clip-rule="evenodd" d="M24.7115 21.7458C23.696 26.1392 23.5298 31.8098 24.8714 37.7219L45.3757 32.2278C43.5815 26.437 40.6023 21.6092 37.5261 18.3122C35.8603 16.5267 34.2033 15.2299 32.7364 14.462C31.2342 13.6755 30.1224 13.5389 29.4295 13.7245C28.7366 13.9102 27.8422 14.5844 26.9345 16.0166C26.0481 17.4151 25.2614 19.3667 24.7115 21.7458ZM48.0734 30.8105L52.0081 27.9254C52.6762 27.4355 53.6149 27.58 54.1048 28.2481C54.5946 28.9161 54.4502 29.8548 53.7821 30.3447L48.1279 34.4906C47.9779 34.6006 47.8088 34.6817 47.6291 34.7299L24.1709 41.0155C23.9913 41.0636 23.8043 41.0779 23.6194 41.0577L9.90624 39.5557C9.08274 39.4655 8.48827 38.7248 8.57847 37.9013C8.66866 37.0778 9.40936 36.4833 10.2329 36.5735L21.8264 37.8433C20.5147 31.6859 20.7027 25.768 21.7886 21.0702C22.3927 18.4564 23.2871 16.1673 24.4006 14.4106C25.4927 12.6875 26.9168 11.292 28.6531 10.8267C30.3894 10.3615 32.3204 10.858 34.1278 11.8041C35.9704 12.7688 37.8896 14.3041 39.7197 16.2656C43.0089 19.7911 46.1307 24.8221 48.0734 30.8105Z" fill="#305680"/>
<path d="M60.75 68.7859C60.3358 68.0684 60.5816 67.151 61.299 66.7368C62.0165 66.3226 62.9339 66.5684 63.3481 67.2859L67.3481 74.2141C67.7623 74.9315 67.5165 75.8489 66.799 76.2631C66.0816 76.6773 65.1642 76.4315 64.75 75.7141L60.75 68.7859Z" fill="#305680"/>
<path d="M63.2853 66.7352C62.5043 67.5162 61.2379 67.5162 60.4569 66.7352L58.7737 65.0521C58.0652 64.3435 58.0652 63.1946 58.7737 62.486L70.7555 50.5043C72.9955 48.2643 76.6273 48.2643 78.8673 50.5043C79.0465 50.6835 79.0465 50.974 78.8673 51.1532L63.2853 66.7352Z" fill="#2A7DEC"/>
<path d="M19 67C17.8954 67 17 66.1046 17 65L17 63C17 61.8954 17.8954 61 19 61L63 61C64.1046 61 65 61.8954 65 63L65 65C65 66.1046 64.1046 67 63 67L19 67Z" fill="#2A7DEC"/>
<path d="M22.3477 68.7859C22.7619 68.0684 22.5161 67.151 21.7986 66.7368C21.0812 66.3226 20.1638 66.5684 19.7496 67.2859L15.7496 74.2141C15.3354 74.9315 15.5812 75.8489 16.2986 76.2631C17.0161 76.6773 17.9334 76.4315 18.3477 75.7141L22.3477 68.7859Z" fill="#305680"/>
<path fill-rule="evenodd" clip-rule="evenodd" d="M65.7462 49.1325C68.4106 46.4681 72.2983 45.4357 75.9335 46.4271L78.5698 47.1461C81.1624 47.8532 82.024 51.0974 80.1237 52.9976L67.1967 65.9246C65.2276 67.8938 62.5569 69 59.7721 69H19C16.7909 69 15 67.2092 15 65C15 60.0295 19.0294 56 24 56H27C27.8284 56 28.5 56.6716 28.5 57.5C28.5 58.3284 27.8284 59 27 59H24C20.6863 59 18 61.6863 18 65C18 65.5523 18.4477 66 19 66H59.7721C61.7612 66 63.6689 65.2098 65.0754 63.8033L78.0024 50.8763C78.2739 50.6048 78.1508 50.1414 77.7804 50.0404L75.1442 49.3214C72.5476 48.6132 69.7706 49.3507 67.8675 51.2538L60.8536 58.2678C60.3847 58.7366 59.7488 59 59.0858 59H36C35.1716 59 34.5 58.3284 34.5 57.5C34.5 56.6716 35.1716 56 36 56H58.8787L65.7462 49.1325Z" fill="#305680"/>
</svg>
