<svg xmlns="http://www.w3.org/2000/svg" viewBox="0 0 834.8166 283.74897" height="80.08mm" width="235.6mm" version="1.1">
 <g transform="translate(2768 -176.04)">
  <flowRoot style="word-spacing:0px;letter-spacing:0px" xml:space="preserve" transform="matrix(.85745 0 0 .85745 -2633.8 144.22)" line-height="0.01%" font-family="sans-serif" fill="#000000"><flowRegion><rect y="247.59" x="817" width="244" height="128"/></flowRegion><flowPara font-size="40px" line-height="1.25"> </flowPara></flowRoot>
  <g transform="matrix(.89834 0 0 .89834 -1624.2 142.16)" fill="#305680">
   <g transform="matrix(.096863 0 0 .096863 -562.95 -20.348)">
    <path style="color-rendering:auto;text-decoration-color:#000000;color:#000000;isolation:auto;mix-blend-mode:normal;shape-rendering:auto;solid-color:#000000;text-decoration-line:none;text-decoration-style:solid;image-rendering:auto;white-space:normal;text-indent:0;text-transform:none" d="m151.13 732.36c-28.363 0-54.915 7.9153-77.613 21.537-6.4723-5.2623-14.605-8.1915-23.067-8.1937a8.7661 8.7661 0 0 0 -0.0035 0c-20.154 0.00073-36.679 16.528-36.678 36.682a8.7661 8.7661 0 0 0 0 0.0106c0.0099 8.4147 2.9267 16.483 8.1033 22.927-13.83 22.83-21.87 49.58-21.87 78.17a8.7661 8.7661 0 1 0 17.531 0c0-24.702 6.7193-47.748 18.378-67.574 4.5663 1.9846 9.4727 3.1496 14.519 3.1573a8.7661 8.7661 0 0 0 0.01241 0c20.155 0.00062 36.683-16.527 36.682-36.682a8.7661 8.7661 0 0 0 0 -0.004c-0.0016-4.9994-1.1387-9.8628-3.0828-14.397 19.717-11.484 42.585-18.095 67.085-18.095a8.7661 8.7661 0 1 0 0 -17.531zm-100.69 30.88c5.9129 0.002 11.191 2.5121 14.836 7.0769a8.7661 8.7661 0 0 0 0.1826 0.21451c2.6715 3.3798 4.1326 7.5531 4.1341 11.863-0.0015 10.677-8.468 19.144-19.144 19.148-4.37-0.008-8.6011-1.5088-12-4.2546a8.7661 8.7661 0 0 0 -0.01241 -0.009c-4.514-3.6331-7.1358-9.0979-7.1442-14.893 0.0025-10.677 8.4701-19.144 19.148-19.146z"/>
    <path style="color-rendering:auto;text-decoration-color:#000000;color:#000000;isolation:auto;mix-blend-mode:normal;shape-rendering:auto;solid-color:#000000;text-decoration-line:none;text-decoration-style:solid;image-rendering:auto;white-space:normal;text-indent:0;text-transform:none" d="m66.992 835.19c-1.492 1.5583-2.3663 3.7103-2.2576 6.0713 0.0962 2.0447 0.91322 4.0204 2.3372 5.5177 6.8051 6.8559 20.223 20.223 20.223 20.223l11.844-11.83s-12.973-12.961-20.176-20.171c-1.604-1.6325-3.7498-2.3141-6.012-2.3243-2.3583-0.0112-4.4673 0.95389-5.9592 2.5122zm32.147 19.983-36.639 36.639c-3.9751 3.976-3.9751 10.421 0 14.397l18.156 18.156 31.753 31.753 30.478 30.478c3.9758 3.9759 10.422 3.9763 14.398 0l24.791-24.791 37.914-37.914 36.639-36.639c3.9754-3.9764 3.975-10.422-0.00067-14.398l-18.63-18.63-31.75-31.76-30.01-30c-3.976-3.9751-10.421-3.9751-14.397 0l-24.79 24.79zm37.911-37.91s-12.973-12.961-20.176-20.171c-1.604-1.6325-3.7498-2.3141-6.012-2.3243-4.7166-0.0226-8.4341 3.8616-8.2169 8.5834 0.0962 2.0447 0.91322 4.0204 2.3372 5.5177 6.8051 6.8559 20.223 20.223 20.223 20.223zm69.193 5.2132s12.961-12.973 20.171-20.176c1.6325-1.604 2.3141-3.7498 2.3243-6.012 0.0225-4.7166-3.8616-8.4341-8.5834-8.2169-2.0447 0.0962-4.0204 0.91322-5.5177 2.3372-6.8559 6.8051-20.223 20.223-20.223 20.223zm31.753 31.753s12.961-12.973 20.171-20.176c1.6325-1.604 2.314-3.7498 2.3243-6.012 0.0225-4.7166-3.8616-8.4341-8.5834-8.2169-2.0447 0.0962-4.0204 0.91323-5.5177 2.3372-6.8559 6.8051-20.223 20.223-20.223 20.223zm-18.009 69.667s12.973 12.961 20.178 20.169c1.604 1.6324 3.7498 2.314 6.012 2.3243 4.7166 0.0225 8.4342-3.8615 8.2169-8.5834l-0.002 0.002c-0.0962-2.0447-0.91415-4.0214-2.3382-5.5186-6.8051-6.8559-20.222-20.222-20.222-20.222l-11.844 11.83zm-37.914 37.914s12.973 12.961 20.178 20.169c1.604 1.6324 3.7498 2.314 6.012 2.3242 4.7166 0.023 8.4342-3.8615 8.2169-8.5834h-0.002c-0.0962-2.0447-0.91323-4.0205-2.3372-5.5177-6.8051-6.8559-20.223-20.223-20.223-20.223l-11.844 11.83zm-69.667-5.6871s-12.961 12.973-20.169 20.178c-1.6324 1.604-2.314 3.7498-2.3243 6.012-0.02251 4.7166 3.8615 8.4342 8.5834 8.2169h-0.0019c2.0447-0.096 4.0204-0.9132 5.5177-2.3373 6.8561-6.8048 20.223-20.223 20.223-20.223zm-31.743-31.74s-12.961 12.973-20.169 20.178c-1.6324 1.604-2.314 3.7498-2.3243 6.012-0.02251 4.7167 3.8615 8.4342 8.5834 8.2169h-0.0019c2.0447-0.0962 4.0204-0.91322 5.5177-2.3372 6.8561-6.8047 20.223-20.223 20.223-20.223zm87.237-90.554c1.6794-1.7064 3.9669-2.6599 6.2971-2.626 1.6628 0.0237 3.253 0.55012 4.5625 1.5097l16.499 12.1c3.2009 2.297 4.1445 6.6589 2.2308 10.312-1.9137 3.6528-6.1234 5.5243-9.9506 4.4227l6.124 23.948c1.1128 4.3517-1.564 8.9677-5.9833 10.317l-44.642 13.631 8.2456 31.883c1.1728 4.3696-1.5017 9.0445-5.9546 10.407s-8.9756-1.1106-10.068-5.5047l-10.282-39.769c-1.1265-4.3556 1.5493-8.9847 5.9759-10.338l44.661-13.637-4.1219-16.118c-2.7634 3.0643-7.2335 3.8084-10.586 1.7615-3.3531-2.0469-4.6144-6.2896-2.9861-10.047l8.1169-19.454c0.43322-1.0376 1.0673-1.9888 1.8624-2.7973z" fill-rule="evenodd"/>
    <path style="color-rendering:auto;text-decoration-color:#000000;color:#000000;isolation:auto;mix-blend-mode:normal;shape-rendering:auto;solid-color:#000000;text-decoration-line:none;text-decoration-style:solid;image-rendering:auto;white-space:normal;text-indent:0;text-transform:none" d="m168.87 1052.4c28.363 0 54.915-7.9155 77.614-21.538 6.4724 5.2624 14.605 8.1917 23.067 8.1939a8.7662 8.7662 0 0 0 0.004 0c20.155-0.0007 36.68-16.528 36.679-36.682a8.7662 8.7662 0 0 0 0 -0.011c-0.01-8.4149-2.9267-16.484-8.1034-22.927 13.825-22.82 21.866-49.572 21.866-78.162a8.7662 8.7662 0 1 0 -17.531 0c0 24.703-6.7194 47.749-18.378 67.575-4.5664-1.9846-9.4728-3.1496-14.519-3.1573a8.7662 8.7662 0 0 0 -0.0124 0c-20.155-0.00062-36.683 16.527-36.682 36.682 0.002 4.9994 1.1387 9.8628 3.0829 14.397-19.717 11.484-42.586 18.095-67.086 18.095a8.7662 8.7662 0 1 0 0 17.531zm100.69-30.875c-5.913 0-11.191-2.5122-14.836-7.0769a8.7662 8.7662 0 0 0 -0.18261 -0.2146c-2.6715-3.3799-4.1327-7.5531-4.1341-11.863 0.002-10.677 8.4681-19.144 19.144-19.148 4.37 0.008 8.6012 1.5088 12 4.2547a8.7662 8.7662 0 0 0 0.0124 0.009c4.5141 3.6332 7.1359 9.098 7.1443 14.893-0.003 10.677-8.4702 19.145-19.148 19.146z"/>
   </g>
   <g aria-label="ThingsBoard">
    <path d="m-511.19 58.005h-5.1416v14.26h-2.0984v-14.26h-5.1306v-1.7358h12.371z"/>
    <path d="m-507.08 61.817q1.3513-1.6589 3.5156-1.6589 3.7683 0 3.8013 4.2517v7.855h-2.0325v-7.8662q-0.011-1.2854-0.59326-1.9006-0.57129-0.61524-1.7908-0.61524-0.98877 0-1.7358 0.52734-0.74707 0.52734-1.1646 1.3843v8.47h-2.0325v-16.875h2.0325z"/>
    <path d="m-494.51 72.265h-2.0325v-11.887h2.0325zm-2.1973-15.04q0-0.49438 0.29663-0.83496 0.30762-0.34058 0.90088-0.34058t0.90088 0.34058 0.30762 0.83496-0.30762 0.82398q-0.30762 0.32959-0.90088 0.32959t-0.90088-0.32959q-0.29663-0.32959-0.29663-0.82398z"/>
    <path d="m-489.34 60.378 0.0659 1.4941q1.3623-1.7139 3.5596-1.7139 3.7683 0 3.8013 4.2517v7.855h-2.0325v-7.8662q-0.011-1.2854-0.59326-1.9006-0.57129-0.61524-1.7908-0.61524-0.98877 0-1.7358 0.52734-0.74707 0.52734-1.1646 1.3843v8.47h-2.0325v-11.887z"/>
    <path d="m-479.31 66.222q0-2.7795 1.2854-4.4165 1.2854-1.6479 3.4058-1.6479 2.1753 0 3.3948 1.5381l0.0989-1.3184h1.8567v11.602q0 2.3071-1.3733 3.6365-1.3623 1.3293-3.6694 1.3293-1.2854 0-2.5159-0.54932t-1.8787-1.5051l1.0547-1.2195q1.3074 1.615 3.197 1.615 1.4832 0 2.3071-0.83496 0.83496-0.83496 0.83496-2.3511v-1.0217q-1.2195 1.4062-3.3288 1.4062-2.0874 0-3.3838-1.6809-1.2854-1.6809-1.2854-4.5813zm2.0434 0.23071q0 2.0105 0.82398 3.1641 0.82397 1.1426 2.3071 1.1426 1.9226 0 2.8235-1.7468v-5.4272q-0.93383-1.7029-2.8015-1.7029-1.4832 0-2.3181 1.1536-0.83497 1.1536-0.83497 3.4167z"/>
    <path d="m-459.3 69.112q0-0.82398-0.62622-1.2744-0.61524-0.46143-2.1643-0.79102-1.5381-0.32959-2.45-0.79102-0.90088-0.46143-1.3403-1.0986-0.42847-0.63721-0.42847-1.5161 0-1.4612 1.2305-2.4719 1.2414-1.0107 3.1641-1.0107 2.0215 0 3.2739 1.0437 1.2634 1.0437 1.2634 2.6697h-2.0435q0-0.83496-0.71411-1.4392-0.70313-0.60425-1.7798-0.60425-1.1096 0-1.7358 0.4834-0.62622 0.4834-0.62622 1.2634 0 0.73608 0.58228 1.1096 0.58227 0.37354 2.0984 0.71411 1.5271 0.34058 2.4719 0.81299 0.94482 0.47241 1.3953 1.1426 0.46143 0.65918 0.46143 1.615 0 1.593-1.2744 2.5598-1.2744 0.95581-3.3069 0.95581-1.4282 0-2.5269-0.50537-1.0986-0.50537-1.7248-1.4062-0.61523-0.91187-0.61523-1.9666h2.0325q0.0549 1.0217 0.81299 1.626 0.76904 0.59326 2.0215 0.59326 1.1536 0 1.8457-0.46143 0.70313-0.47241 0.70313-1.2524z"/>
    <path d="m-454.3 72.265v-15.996h5.2295q2.6038 0 3.9111 1.0767 1.3184 1.0767 1.3184 3.186 0 1.1206-0.63721 1.9885-0.6372 0.85693-1.7358 1.3293 1.2964 0.36255 2.0435 1.3843 0.75806 1.0107 0.75806 2.417 0 2.1533-1.3953 3.3838t-3.9441 1.2305zm2.1094-7.4817v5.7568h3.4827q1.4722 0 2.3181-0.75806 0.85694-0.76904 0.85694-2.1094 0-2.8894-3.1421-2.8894zm0-1.6919h3.186q1.3843 0 2.2082-0.69214 0.83496-0.69214 0.83496-1.8787 0-1.3184-0.76904-1.9116-0.76905-0.60425-2.3401-0.60425h-3.1201z"/>
    <path d="m-441.14 66.211q0-1.7468 0.68115-3.1421 0.69214-1.3953 1.9116-2.1533 1.2305-0.75806 2.8015-0.75806 2.428 0 3.9221 1.6809 1.5051 1.6809 1.5051 4.4714v0.14282q0 1.7358-0.67016 3.1201-0.65918 1.3733-1.9006 2.1423-1.2305 0.76904-2.8345 0.76904-2.417 0-3.9221-1.6809-1.4941-1.6809-1.4941-4.4495zm2.0435 0.2417q0 1.9775 0.91186 3.175 0.92285 1.1975 2.4609 1.1975 1.5491 0 2.4609-1.2085 0.91186-1.2195 0.91186-3.4058 0-1.9556-0.93384-3.1641-0.92285-1.2195-2.4609-1.2195-1.5051 0-2.428 1.1975-0.92285 1.1975-0.92285 3.4277z"/>
    <path d="m-420.43 72.265q-0.17578-0.35156-0.28565-1.2524-1.4172 1.4722-3.3838 1.4722-1.7578 0-2.8894-0.98877-1.1206-0.99976-1.1206-2.5269 0-1.8567 1.4062-2.8784 1.4172-1.0327 3.977-1.0327h1.9775v-0.93384q0-1.0657-0.6372-1.6919-0.63721-0.63721-1.8787-0.63721-1.0876 0-1.8237 0.54932-0.73608 0.54932-0.73608 1.3293h-2.0435q0-0.88989 0.62622-1.7139 0.63721-0.83496 1.7139-1.3184 1.0876-0.4834 2.384-0.4834 2.0544 0 3.219 1.0327 1.1646 1.0217 1.2085 2.8235v5.4712q0 1.637 0.41748 2.6038v0.176zm-3.3728-1.5491q0.95581 0 1.8128-0.49438 0.85693-0.49438 1.2414-1.2854v-2.439h-1.593q-3.7354 0-3.7354 2.1863 0 0.95581 0.63721 1.4941 0.63721 0.53833 1.637 0.53833z"/>
    <path d="m-409.76 62.201q-0.46142-0.07691-0.99975-0.07691-1.9995 0-2.7136 1.7029v8.4375h-2.0325v-11.886h1.9775l0.033 1.3733q0.99976-1.593 2.8345-1.593 0.59326 0 0.90088 0.15381z"/>
    <path d="m-408.4 66.222q0-2.7356 1.2964-4.3945 1.2964-1.6699 3.3948-1.6699 2.0874 0 3.3069 1.4282v-6.196h2.0325v16.875h-1.8677l-0.0989-1.2744q-1.2195 1.4941-3.3948 1.4941-2.0654 0-3.3728-1.6919-1.2964-1.6919-1.2964-4.4165zm2.0325 0.23071q0 2.0215 0.83496 3.1641t2.3071 1.1426q1.9336 0 2.8235-1.7358v-5.4602q-0.91186-1.6809-2.8015-1.6809-1.4941 0-2.3291 1.1536-0.83496 1.1536-0.83496 3.4167z"/>
   </g>
  </g>
  <rect stroke-linejoin="round" height="279.36" width="197.43" stroke="#305680" stroke-linecap="round" y="178.23" x="-2138.7" stroke-width="4.3933" fill="none"/>
  <g transform="matrix(.91384 0 0 .91384 -1139 171.33)">
   <g transform="matrix(1.2195 0 0 1.2195 -1762.3 -944.14)">
    <g transform="matrix(.32105 0 0 .32105 533.31 749.25)">
     <g fill="#305680" transform="translate(572,260)">
      <path d="m-333.96 113.84v12.615c0 0.76745 0.62355 1.407 1.407 1.407h9.753c0.76745 0 1.407-0.62356 1.407-1.407v-22.192l-7.0829 7.0829c-1.5029 1.4869-3.4216 2.3503-5.4841 2.4942z"/>
      <path d="m-316.54 104.11v22.352c0 0.76745 0.62355 1.407 1.407 1.407h9.753c0.76746 0 1.407-0.62356 1.407-1.407v-13.159c-2.2224-0.048-4.3009-0.92734-5.8678-2.4942z"/>
      <path d="m-299.11 111.91v14.55c0 0.76745 0.62355 1.407 1.407 1.407h9.753c0.76745 0 1.407-0.62356 1.407-1.407v-26.845l-11.176 11.176c-0.43169 0.43169-0.89536 0.79943-1.391 1.1192z"/>
      <path d="m-270.06 83.114-11.624 11.624v31.721c0 0.76745 0.62356 1.407 1.407 1.407h9.753c0.76745 0 1.407-0.62356 1.407-1.407v-42.466c-0.31977-0.2718-0.5596-0.51163-0.73547-0.67152z"/>
     </g>
     <path d="m309.92 322.52c-0.46367-0.49565-1.1672-0.75147-2.0625-0.75147h-0.25582c-4.5408 0.20786-9.0655 0.4317-13.606 0.63955-0.60757 0.032-1.439 0.064-2.0945 0.71948-0.20785 0.20786-0.36773 0.44768-0.49564 0.73548-0.67152 1.455 0.2718 2.3983 0.71948 2.846l1.1352 1.1512c0.78344 0.79943 1.5829 1.5989 2.3823 2.3823l-27.436 27.452-12.327-12.327c-0.73547-0.73547-1.7268-1.1512-2.782-1.1512s-2.0306 0.4157-2.766 1.1512l-16.42 16.404c-1.5349 1.5349-1.5349 4.0131 0 5.548l0.73547 0.73547c0.73548 0.73548 1.7268 1.1512 2.782 1.1512s2.0306-0.4157 2.766-1.1512l12.903-12.903 12.327 12.327c0.73548 0.73548 1.7268 1.1512 2.782 1.1512s2.0306-0.4157 2.782-1.1512l30.954-30.954 3.5015 3.4855c0.4157 0.4157 0.99129 0.99129 1.8707 0.99129 0.36774 0 0.73547-0.0959 1.1192-0.30378 0.25582-0.1439 0.47966-0.30378 0.67152-0.49565 0.68751-0.68751 0.81542-1.5669 0.84739-2.2544 0.12791-2.9419 0.27181-5.8838 0.41571-8.8417l0.20785-4.4288c0.048-0.92734-0.15989-1.6468-0.65553-2.1585z" fill="#237de0"/>
    </g>
    <g transform="matrix(.33620 0 0 .33620 499.69 745.02)">
     <path d="m384.67 442.38 11.443 23.507c0.46533 0.95604-0.0238 1.7382-1.0871 1.7382h-71.791c-1.0633 0-1.5525-0.78215-1.0871-1.7382l11.443-23.507c0.18203-0.37389 0.67128-0.6799 1.0871-0.6799h9.8119c0.30237 0 0.71075 0.18931 0.90869 0.41797 0.66569 0.76928 1.3438 1.5208 2.0199 2.2647 0.64214 0.70613 1.2877 1.4215 1.9281 2.1536h-11.644c-0.4159 0-0.90516 0.30589-1.0871 0.6799l-7.5806 15.573h60.191l-7.58-15.573c-0.18191-0.37401-0.67116-0.6799-1.0872-0.6799h-11.671c0.64031-0.73212 1.2861-1.4475 1.9282-2.1536 0.67821-0.74608 1.3601-1.4962 2.0273-2.2657 0.19769-0.22805 0.60522-0.417 0.90711-0.417h9.8326c0.41567 0 0.9048 0.30577 1.0868 0.6799z" fill="#305680"/>
     <path d="m359.34 409.48c-0.61306-0.008-1.2341 0.0169-1.8613 0.0762-9.8674 0.93273-16.624 10.493-14.902 20.254 1.749 9.9148 10.889 12.966 15.426 24.096 0.40875 1.0029 1.8218 1.0089 2.2305 0.006 5.029-12.344 15.723-14.753 15.723-27.598 0-9.2241-7.4192-16.715-16.615-16.834zm-0.2207 7.9434c4.9104 0 8.8906 3.9804 8.8906 8.8906 0 4.9104-3.9802 8.8906-8.8906 8.8906s-8.8906-3.9802-8.8906-8.8906c0-4.9103 3.9802-8.8906 8.8906-8.8906z" fill="#237de0"/>
    </g>
    <g transform="matrix(.30896 0 0 .30896 564.55 727.74)">
     <path d="m273.85 427.41c6.1897 0.24454 12.02 1.8791 17.193 4.6002l-5.6034 9.7052c-3.5149-1.7806-7.4368-2.8736-11.589-3.1008zm20.002 6.2251c5.0687 3.2108 9.3741 7.5172 12.585 12.585l-9.7071 5.6041c-2.2134-3.3772-5.105-6.2691-8.4816-8.4822zm14.21 15.395c2.7211 5.1713 4.3544 11.003 4.5999 17.192h-11.205c-0.22716-4.1523-1.3189-8.0748-3.0998-11.589zm-76.269 17.192c0.24486-6.1893 1.8784-12.021 4.5999-17.192l9.7049 5.6031c-1.7809 3.5142-2.8733 7.4368-3.1001 11.589zm6.2251-20.002c3.2105-5.0687 7.5169-9.3735 12.585-12.585l5.6038 9.7065c-3.3772 2.213-6.2691 5.105-8.4825 8.4825zm15.394-14.21c5.1716-2.7221 11.003-4.3553 17.193-4.6002v11.205c-4.1523 0.22749-8.0748 1.3192-11.589 3.1005l-5.6031-9.7049" fill="#237de0"/>
     <path d="m272.18 469.64c0.90237 0.36855 2.0049-0.0438 2.3099-0.96911l7.8016-23.762-11.081 22.421c-0.4317 0.87417 0.0668 1.9414 0.96911 2.3104" fill-rule="evenodd" fill="#305680"/>
    </g>
    <g transform="matrix(.34624 0 0 .34624 525.05 769)">
     <path d="m361.97 326.49c13.47 0.84189 23.994 11.786 25.256 25.256h-25.256zm-2.1047-4.2094h-2.1047v33.675h33.675v-2.1047c0-17.259-14.312-31.571-31.571-31.571z" fill="#237de0"/>
     <path d="m353.55 360.16v-33.675c-16.417 1.2628-29.466 14.733-29.466 31.571 0 17.259 14.312 31.571 31.571 31.571 16.838 0 30.308-13.049 31.571-29.466z" fill="#305680"/>
    </g>
   </g>
   <g aria-label="Real-time dashboards" fill="#237de0">
    <path d="m-1058.1 86.463h-1.7505v3.9038h-2.1973v-10.665h3.9624q1.8897 0 2.9151 0.84228t1.0254 2.3804q0 1.0913-0.4761 1.8237-0.4688 0.7251-1.4282 1.1572l2.3071 4.3579v0.10254h-2.3584zm-1.7505-1.7798h1.7725q0.8276 0 1.2817-0.41748 0.4541-0.4248 0.4541-1.1646 0-0.75439-0.4321-1.1865-0.4248-0.43213-1.3111-0.43213h-1.7651z"/>
    <path d="m-1049 90.513q-1.7431 0-2.8418-1.0693-1.0913-1.0693-1.0913-2.8491v-0.20508q0-1.1938 0.4614-2.1313 0.4615-0.94482 1.3038-1.4502 0.8496-0.5127 1.9335-0.5127 1.626 0 2.5562 1.0254 0.9375 1.0254 0.9375 2.9077v0.86426h-5.0464q0.1025 0.77637 0.6152 1.2451 0.5201 0.46875 1.3111 0.46875 1.2231 0 1.9116-0.88623l1.04 1.1646q-0.476 0.67383-1.289 1.0547-0.813 0.37354-1.8018 0.37354zm-0.2417-6.5039q-0.6299 0-1.0254 0.4248-0.3882 0.4248-0.498 1.2158h2.9443v-0.16846q-0.015-0.70312-0.3808-1.084-0.3663-0.38818-1.0401-0.38818z"/>
    <path d="m-1039.9 90.366q-0.1465-0.28564-0.2124-0.71045-0.7691 0.85693-1.9995 0.85693-1.1646 0-1.9336-0.67383-0.7617-0.67383-0.7617-1.6992 0-1.2598 0.9301-1.9336 0.9375-0.67383 2.7027-0.68115h0.9741v-0.4541q0-0.54932-0.2857-0.87891-0.2783-0.32959-0.8862-0.32959-0.5347 0-0.8423 0.25635-0.3003 0.25635-0.3003 0.70312h-2.1167q0-0.68848 0.4248-1.2744 0.4248-0.58594 1.2012-0.91553 0.7764-0.33691 1.7432-0.33691 1.4648 0 2.3218 0.73975 0.8642 0.73242 0.8642 2.0654v3.4351q0.01 1.1279 0.3149 1.7065v0.12451zm-1.7505-1.4722q0.4687 0 0.8642-0.20508 0.3956-0.2124 0.586-0.56396v-1.3623h-0.791q-1.5894 0-1.6919 1.0986l-0.01 0.12451q0 0.39551 0.2783 0.65186t0.7617 0.25635z"/>
    <path d="m-1034.2 90.366h-2.124v-11.25h2.124z"/>
    <path d="m-1028.4 86.653h-4.1235v-1.7065h4.1235z"/>
    <path d="m-1024.1 80.493v1.9482h1.3549v1.5527h-1.3549v3.9551q0 0.43945 0.1684 0.62988 0.1685 0.19043 0.6446 0.19043 0.3515 0 0.6225-0.05127v1.604q-0.6225 0.19043-1.2817 0.19043-2.2266 0-2.2705-2.2485v-4.27h-1.1573v-1.5527h1.1573v-1.948z"/>
    <path d="m-1019.4 90.366h-2.124v-7.9248h2.124zm-2.2485-9.9756q0-0.47607 0.3149-0.78369 0.3223-0.30762 0.8716-0.30762 0.542 0 0.8643 0.30762 0.3222 0.30762 0.3222 0.78369 0 0.4834-0.3295 0.79102-0.3223 0.30762-0.857 0.30762-0.5346 0-0.8642-0.30762-0.3223-0.30762-0.3223-0.79102z"/>
    <path d="m-1015.6 82.442 0.066 0.88623q0.8423-1.0327 2.2778-1.0327 1.5308 0 2.1021 1.2085 0.8349-1.2085 2.3804-1.2085 1.289 0 1.9189 0.7544 0.6299 0.74707 0.6299 2.2559v5.061h-2.124v-5.0537q0-0.67383-0.2637-0.98144-0.2637-0.31494-0.9302-0.31494-0.9521 0-1.3183 0.9082l0.01 5.4419h-2.1167v-5.047q0-0.68848-0.271-0.99609-0.271-0.30762-0.9229-0.30762-0.9008 0-1.3037 0.74707v5.603h-2.1167v-7.9248z"/>
    <path d="m-1001 90.513q-1.7432 0-2.8418-1.0693-1.0913-1.0693-1.0913-2.8491v-0.20508q0-1.1938 0.4614-2.1313 0.4614-0.94482 1.3037-1.4502 0.8496-0.5127 1.9336-0.5127 1.626 0 2.5562 1.0254 0.9375 1.0254 0.9375 2.9077v0.86426h-5.0464q0.1025 0.77637 0.6152 1.2451 0.52 0.46875 1.3111 0.46875 1.2231 0 1.9116-0.88623l1.04 1.1646q-0.47608 0.67383-1.2891 1.0547-0.81299 0.37354-1.8018 0.37354zm-0.2417-6.5039q-0.6299 0-1.0254 0.4248-0.3882 0.4248-0.498 1.2158h2.9443v-0.16846q-0.0147-0.70312-0.3809-1.084-0.3662-0.38818-1.04-0.38818z"/>
    <path d="m-993.09 86.345q0-1.853 0.82764-2.9517 0.83496-1.0986 2.2778-1.0986 1.1572 0 1.9116 0.86426v-4.043h2.124v11.25h-1.9116l-0.10254-0.84228q-0.79101 0.98877-2.0361 0.98877-1.3989 0-2.2485-1.0986-0.84229-1.106-0.84229-3.0688zm2.1167 0.15381q0 1.1133 0.38818 1.7065 0.38819 0.59326 1.1279 0.59326 0.98145 0 1.3843-0.82764v-3.1274q-0.39551-0.82764-1.3696-0.82764-1.5308 0-1.5308 2.4829z"/>
    <path d="m-979.7 90.366q-0.14648-0.28564-0.2124-0.71045-0.76904 0.85693-1.9995 0.85693-1.1646 0-1.9336-0.67383-0.76172-0.67383-0.76172-1.6992 0-1.2598 0.93017-1.9336 0.9375-0.67383 2.7026-0.68115h0.97412v-0.4541q0-0.54932-0.28564-0.87891-0.27832-0.32959-0.88624-0.32959-0.53466 0-0.84228 0.25635-0.30029 0.25635-0.30029 0.70312h-2.1167q0-0.68848 0.4248-1.2744 0.42481-0.58594 1.2012-0.91553 0.77637-0.33691 1.7432-0.33691 1.4648 0 2.3218 0.73975 0.86425 0.73242 0.86425 2.0654v3.4351q0.007 1.1279 0.31494 1.7065v0.12451zm-1.7505-1.4722q0.46875 0 0.86426-0.20508 0.39551-0.2124 0.58594-0.56396v-1.3623h-0.79102q-1.5894 0-1.6919 1.0986l-0.007 0.12451q0 0.39551 0.27832 0.65186t0.76171 0.25635z"/>
    <path d="m-971.95 88.176q0-0.38818-0.38818-0.60791-0.38086-0.22705-1.2305-0.40283-2.8272-0.59326-2.8272-2.4023 0-1.0547 0.87158-1.7578 0.87891-0.71045 2.2925-0.71045 1.5088 0 2.4097 0.71045 0.9082 0.71045 0.9082 1.8457h-2.1167q0-0.4541-0.29296-0.74707-0.29297-0.30029-0.91553-0.30029-0.53467 0-0.82764 0.2417t-0.29297 0.61523q0 0.35156 0.32959 0.57129 0.33692 0.2124 1.1279 0.37354 0.79102 0.15381 1.333 0.35156 1.6772 0.61523 1.6772 2.1313 0 1.084-0.93018 1.7578-0.93018 0.6665-2.4023 0.6665-0.9961 0-1.7725-0.35156-0.76905-0.35889-1.2085-0.97412-0.43945-0.62256-0.43945-1.3403h2.0068q0.0293 0.56396 0.41748 0.86426 0.38819 0.30029 1.04 0.30029 0.60791 0 0.91553-0.22705 0.31494-0.23438 0.31494-0.60791z"/>
    <path d="m-966.47 83.306q0.84228-1.0107 2.1167-1.0107 2.5781 0 2.6147 2.9956v5.0757h-2.1167v-5.0171q0-0.68115-0.29297-1.0034-0.29297-0.32959-0.97412-0.32959-0.93017 0-1.3476 0.71777v5.6323h-2.1167v-11.25h2.1167z"/>
    <path d="m-952.98 86.477q0 1.9043-0.81299 2.9736-0.81298 1.062-2.2705 1.062-1.2891 0-2.0581-0.98877l-0.0952 0.84228h-1.9043v-11.25h2.1167v4.0356q0.73242-0.85693 1.9263-0.85693 1.4502 0 2.2705 1.0693 0.82763 1.062 0.82763 2.9956zm-2.1167-0.15381q0-1.2012-0.38086-1.7505-0.38086-0.55664-1.1352-0.55664-1.0107 0-1.3916 0.82764v3.1274q0.38818 0.83496 1.4062 0.83496 1.0254 0 1.3477-1.0107 0.1538-0.4834 0.1538-1.4722z"/>
    <path d="m-952.02 86.331q0-1.1792 0.4541-2.1021 0.4541-0.92285 1.3037-1.4282 0.85694-0.50537 1.9849-0.50537 1.604 0 2.6147 0.98145 1.0181 0.98144 1.1353 2.666l0.0146 0.54199q0 1.8237-1.0181 2.9297-1.0181 1.0986-2.7319 1.0986-1.7139 0-2.7392-1.0986-1.0181-1.0986-1.0181-2.9883zm2.1167 0.15381q0 1.1279 0.4248 1.7285 0.42481 0.59326 1.2158 0.59326 0.76905 0 1.2012-0.58594 0.43212-0.59326 0.43212-1.8896 0-1.106-0.43212-1.7139-0.43213-0.60791-1.2158-0.60791-0.77637 0-1.2012 0.60791-0.4248 0.60059-0.4248 1.8677z"/>
    <path d="m-938.6 90.366q-0.14649-0.28564-0.2124-0.71045-0.76905 0.85693-1.9995 0.85693-1.1646 0-1.9336-0.67383-0.76172-0.67383-0.76172-1.6992 0-1.2598 0.93018-1.9336 0.9375-0.67383 2.7026-0.68115h0.97413v-0.4541q0-0.54932-0.28565-0.87891-0.27832-0.32959-0.88623-0.32959-0.53467 0-0.84228 0.25635-0.3003 0.25635-0.3003 0.70312h-2.1167q0-0.68848 0.42481-1.2744 0.4248-0.58594 1.2012-0.91553 0.77637-0.33691 1.7432-0.33691 1.4648 0 2.3218 0.73975 0.86426 0.73242 0.86426 2.0654v3.4351q0.007 1.1279 0.31494 1.7065v0.12451zm-1.7505-1.4722q0.46875 0 0.86426-0.20508 0.39551-0.2124 0.58594-0.56396v-1.3623h-0.79102q-1.5894 0-1.6919 1.0986l-0.007 0.12451q0 0.39551 0.27832 0.65186t0.76172 0.25635z"/>
    <path d="m-930.68 84.426q-0.43213-0.05859-0.76172-0.05859-1.2012 0-1.5747 0.81299v5.1855h-2.1167v-7.9248h1.9995l0.0586 0.94482q0.63721-1.0913 1.7651-1.0913 0.35156 0 0.65918 0.09521z"/>
    <path d="m-929.99 86.345q0-1.853 0.82764-2.9517 0.83496-1.0986 2.2778-1.0986 1.1572 0 1.9116 0.86426v-4.043h2.124v11.25h-1.9116l-0.10254-0.84228q-0.79101 0.98877-2.0361 0.98877-1.3989 0-2.2485-1.0986-0.84228-1.106-0.84228-3.0688zm2.1167 0.15381q0 1.1133 0.38818 1.7065 0.38819 0.59326 1.1279 0.59326 0.98145 0 1.3843-0.82764v-3.1274q-0.39551-0.82764-1.3696-0.82764-1.5308 0-1.5308 2.4829z"/>
    <path d="m-916.9 88.176q0-0.38818-0.38818-0.60791-0.38086-0.22705-1.2305-0.40283-2.8272-0.59326-2.8272-2.4023 0-1.0547 0.87158-1.7578 0.87891-0.71045 2.2925-0.71045 1.5088 0 2.4097 0.71045 0.9082 0.71045 0.9082 1.8457h-2.1167q0-0.4541-0.29297-0.74707-0.29297-0.30029-0.91552-0.30029-0.53467 0-0.82764 0.2417t-0.29297 0.61523q0 0.35156 0.32959 0.57129 0.33691 0.2124 1.1279 0.37354 0.79102 0.15381 1.333 0.35156 1.6772 0.61523 1.6772 2.1313 0 1.084-0.93017 1.7578-0.93018 0.6665-2.4024 0.6665-0.99609 0-1.7725-0.35156-0.76904-0.35889-1.2085-0.97412-0.43946-0.62256-0.43946-1.3403h2.0068q0.0293 0.56396 0.41748 0.86426 0.38818 0.30029 1.04 0.30029 0.60791 0 0.91553-0.22705 0.31494-0.23438 0.31494-0.60791z"/>
   </g>
   <rect stroke-linejoin="round" height="96.878" width="163.86" stroke="#305680" stroke-linecap="round" y="70.169" x="-1070.4" stroke-width="5.2" fill="none"/>
  </g>
  <path d="m-2406.8 313.4c-4.4146 1.5197-8.8233 3.0468-13.234 4.5709 4.5712 1.2705 9.157 2.516 13.739 3.7681-0.5888-0.92452-1.2003-1.842-1.7953-2.7649 15.503-0.0908 40.61-0.16692 56.113-0.24733-0.4795 0.95519-0.978 1.9062-1.4542 2.8634 4.4144-1.5197 8.8225-3.0461 13.234-4.5702-4.571-1.2704-9.1572-2.5168-13.739-3.7688 0.5889 0.92452 1.2011 1.8427 1.796 2.7656-15.502 0.0916-40.61 0.16674-56.113 0.24659 0.4793-0.95518 0.978-1.9062 1.4542-2.8634z" stroke-width=".59347" fill="#305680"/>
  <g aria-label="json /  binary /  text" style="font-variant-ligatures:normal;font-variant-numeric:normal;font-variant-caps:normal;font-feature-settings:normal" transform="matrix(.59347 0 0 .59347 -1171.2 213.47)" stroke-width="1.8845px" fill="#237de0">
   <path style="font-variant-ligatures:normal;font-variant-numeric:normal;font-variant-caps:normal;font-feature-settings:normal" d="m-2062.3 92.535v12.599q0 1.9766-1.049 3.0698-1.049 1.1042-3.0256 1.1042-0.8281 0-1.579-0.18772v-2.5287q0.5742 0.0994 1.0048 0.0994 1.4466 0 1.4466-1.5349v-12.615zm-3.4562-3.0918q0-0.71775 0.4748-1.1815 0.4859-0.46378 1.314-0.46378 0.8282 0 1.303 0.46378 0.4859 0.46378 0.4859 1.1815 0 0.72879-0.4969 1.1926-0.4859 0.46378-1.292 0.46378-0.806 0-1.303-0.46378-0.4858-0.46378-0.4858-1.1926z"/>
   <path style="font-variant-ligatures:normal;font-variant-numeric:normal;font-variant-caps:normal;font-feature-settings:normal" d="m-2053.3 101.18q0-0.58524-0.5852-0.9165-0.5742-0.34232-1.8551-0.60733-4.2623-0.89442-4.2623-3.6219 0-1.5901 1.314-2.6501 1.3251-1.0711 3.4562-1.0711 2.2748 0 3.633 1.0711 1.3692 1.0711 1.3692 2.7827h-3.1912q0-0.68462-0.4417-1.1263-0.4417-0.45273-1.3803-0.45273-0.8061 0-1.2478 0.3644t-0.4417 0.92755q0 0.53003 0.4969 0.8613 0.508 0.32022 1.7006 0.56316 1.1925 0.23189 2.0096 0.53003 2.5287 0.92755 2.5287 3.2133 0 1.6342-1.4023 2.6501-1.4024 1.0048-3.6219 1.0048-1.5018 0-2.6722-0.53003-1.1595-0.54107-1.822-1.4686-0.6626-0.9386-0.6626-2.0207h3.0256q0.044 0.85026 0.6294 1.303 0.5853 0.45273 1.568 0.45273 0.9166 0 1.3803-0.34231 0.4748-0.35335 0.4748-0.91651z"/>
   <path style="font-variant-ligatures:normal;font-variant-numeric:normal;font-variant-caps:normal;font-feature-settings:normal" d="m-2048.7 98.398q0-1.7778 0.6847-3.1691 0.6846-1.3913 1.9655-2.1532 1.2919-0.76192 2.9924-0.76192 2.4183 0 3.9421 1.4797 1.5349 1.4797 1.7116 4.0194l0.022 0.81713q0 2.7495-1.5349 4.4169-1.5349 1.6563-4.1188 1.6563t-4.1298-1.6563q-1.5349-1.6563-1.5349-4.5052zm3.1913 0.23189q0 1.7005 0.6404 2.606 0.6405 0.89442 1.833 0.89442 1.1595 0 1.811-0.88338 0.6515-0.89443 0.6515-2.8489 0-1.6674-0.6515-2.5839-0.6515-0.91651-1.8331-0.91651-1.1704 0-1.8109 0.91651-0.6404 0.90547-0.6404 2.8158z"/>
   <path style="font-variant-ligatures:normal;font-variant-numeric:normal;font-variant-caps:normal;font-feature-settings:normal" d="m-2032.4 92.535 0.099 1.3803q1.2809-1.6011 3.4342-1.6011 1.8992 0 2.8268 1.1153 0.9275 1.1153 0.9496 3.3348v7.7185h-3.1912v-7.6412q0-1.0159-0.4417-1.4686-0.4417-0.46378-1.4686-0.46378-1.3472 0-2.0208 1.1484v8.4252h-3.1912v-11.945z"/>
   <path style="font-variant-ligatures:normal;font-variant-numeric:normal;font-variant-caps:normal;font-feature-settings:normal" d="m-2016 105.86h-2.3741l5.9187-17.458h2.3741z"/>
   <path style="font-variant-ligatures:normal;font-variant-numeric:normal;font-variant-caps:normal;font-feature-settings:normal" d="m-2065 126.89q0 2.871-1.2257 4.4832-1.2257 1.6011-3.4231 1.6011-1.9435 0-3.1029-1.4907l-0.1436 1.2699h-2.871v-16.961h3.1913v6.0843q1.1042-1.2919 2.9041-1.2919 2.1864 0 3.4231 1.6122 1.2478 1.6011 1.2478 4.5163zm-3.1913-0.23188q0-1.8109-0.5742-2.6391-0.5741-0.83921-1.7115-0.83921-1.5238 0-2.098 1.2478v4.715q0.5852 1.2588 2.1201 1.2588 1.5459 0 2.0318-1.5238 0.2318-0.72879 0.2318-2.2195z"/>
   <path style="font-variant-ligatures:normal;font-variant-numeric:normal;font-variant-caps:normal;font-feature-settings:normal" d="m-2059.7 132.75h-3.2022v-11.948h3.2022zm-3.3899-15.04q0-0.71775 0.4748-1.1815 0.4858-0.46377 1.314-0.46377 0.8171 0 1.303 0.46377 0.4859 0.46378 0.4859 1.1815 0 0.72879-0.4969 1.1926-0.4859 0.46378-1.292 0.46378t-1.303-0.46378q-0.4858-0.46377-0.4858-1.1926z"/>
   <path style="font-variant-ligatures:normal;font-variant-numeric:normal;font-variant-caps:normal;font-feature-settings:normal" d="m-2054.1 120.8 0.099 1.3803q1.2809-1.6011 3.4341-1.6011 1.8993 0 2.8268 1.1153 0.9276 1.1153 0.9497 3.3348v7.7186h-3.1912v-7.6412q0-1.0159-0.4417-1.4686-0.4417-0.46378-1.4687-0.46378-1.3471 0-2.0207 1.1484v8.4252h-3.1912v-11.948z"/>
   <path style="font-variant-ligatures:normal;font-variant-numeric:normal;font-variant-caps:normal;font-feature-settings:normal" d="m-2037.4 132.75q-0.2209-0.43065-0.3202-1.0711-1.1595 1.292-3.0146 1.292-1.7557 0-2.9151-1.0159-1.1484-1.0159-1.1484-2.5618 0-1.8993 1.4023-2.9152 1.4134-1.0159 4.0746-1.0269h1.4686v-0.68462q0-0.82817-0.4306-1.3251-0.4196-0.49691-1.3361-0.49691-0.8061 0-1.2699 0.38648-0.4527 0.38648-0.4527 1.0601h-3.1912q0-1.038 0.6404-1.9214 0.6405-0.88339 1.811-1.3803 1.1704-0.50794 2.628-0.50794 2.2085 0 3.5004 1.1153 1.303 1.1042 1.303 3.1139v5.1788q0.011 1.7005 0.4748 2.5728v0.18772zm-2.6391-2.2195q0.7067 0 1.303-0.30918 0.5962-0.32022 0.8833-0.85025v-2.0539h-1.1925q-2.3962 0-2.5508 1.6563l-0.011 0.18772q0 0.59629 0.4196 0.98277 0.4196 0.38647 1.1484 0.38647z"/>
   <path style="font-variant-ligatures:normal;font-variant-numeric:normal;font-variant-caps:normal;font-feature-settings:normal" d="m-2025.5 123.8q-0.6515-0.0883-1.1484-0.0883-1.811 0-2.3741 1.2257v7.8179h-3.1912v-11.948h3.0145l0.088 1.4245q0.9606-1.6453 2.6611-1.6453 0.5301 0 0.9938 0.14355z"/>
   <path style="font-variant-ligatures:normal;font-variant-numeric:normal;font-variant-caps:normal;font-feature-settings:normal" d="m-2019.5 128.23 2.2084-7.4314h3.4231l-4.8034 13.803-0.265 0.62941q-1.0711 2.341-3.5335 2.341-0.6957 0-1.4134-0.2098v-2.4183l0.4858 0.0111q0.9055 0 1.3472-0.27606 0.4527-0.27606 0.7067-0.91651l0.3754-0.98276-4.185-11.981h3.4342z"/>
   <path style="font-variant-ligatures:normal;font-variant-numeric:normal;font-variant-caps:normal;font-feature-settings:normal" d="m-2005.9 134.13h-2.374l5.9186-17.458h2.3741z"/>
   <path style="font-variant-ligatures:normal;font-variant-numeric:normal;font-variant-caps:normal;font-feature-settings:normal" d="m-2052.8 146.13v2.9372h2.0428v2.341h-2.0428v5.9628q0 0.66254 0.254 0.94964 0.254 0.28709 0.9717 0.28709 0.53 0 0.9386-0.0773v2.4183q-0.9386 0.2871-1.9324 0.2871-3.3569 0-3.4231-3.39v-6.4376h-1.7447v-2.341h1.7447v-2.9372z"/>
   <path style="font-variant-ligatures:normal;font-variant-numeric:normal;font-variant-caps:normal;font-feature-settings:normal" d="m-2043.5 161.24q-2.6281 0-4.2844-1.6122-1.6453-1.6122-1.6453-4.2954v-0.30918q0-1.7999 0.6956-3.2133 0.6957-1.4244 1.9656-2.1864 1.2809-0.77295 2.9151-0.77295 2.4514 0 3.8538 1.5459 1.4134 1.5459 1.4134 4.3838v1.303h-7.6081q0.1546 1.1705 0.9275 1.8772 0.784 0.70671 1.9766 0.70671 1.844 0 2.882-1.3361l1.568 1.7557q-0.7177 1.0159-1.9434 1.5901-1.2257 0.56316-2.7164 0.56316zm-0.3644-9.8055q-0.9496 0-1.5459 0.64045-0.5853 0.64045-0.7509 1.833h4.439v-0.25398q-0.022-1.06-0.5742-1.6342-0.5521-0.58524-1.568-0.58524z"/>
   <path style="font-variant-ligatures:normal;font-variant-numeric:normal;font-variant-caps:normal;font-feature-settings:normal" d="m-2032.2 152.64 2.0097-3.5666h3.412l-3.401 5.8524 3.5446 6.0953h-3.4231l-2.1312-3.7544-2.1201 3.7544h-3.4341l3.5445-6.0953-3.3899-5.8524h3.4231z"/>
   <path style="font-variant-ligatures:normal;font-variant-numeric:normal;font-variant-caps:normal;font-feature-settings:normal" d="m-2021.4 146.13v2.9372h2.0429v2.341h-2.0429v5.9628q0 0.66254 0.254 0.94964 0.254 0.28709 0.9717 0.28709 0.5301 0 0.9386-0.0773v2.4183q-0.9386 0.2871-1.9324 0.2871-3.3568 0-3.4231-3.39v-6.4376h-1.7447v-2.341h1.7447v-2.9372z"/>
  </g>
  <path d="m-2221.1 294.84s51.337-0.16692 66.84-0.24733c-0.4795 0.95519-0.978 1.9062-1.4542 2.8634 4.4144-1.5197 8.8225-3.0461 13.234-4.5702-4.571-1.2704-9.1572-2.5168-13.739-3.7689 0.5888 0.92451 1.2011 1.8427 1.796 2.7656-15.503 0.0916-66.84 0.2466-66.84 0.2466z" stroke-width=".59347" fill="#305680"/>
  <g stroke-width="1px" fill="#237de0">
   <g aria-label="telemetry" transform="matrix(.59347 0 0 .59347 -1199.3 222.85)">
    <path d="m-1709.3 89.386v2.7215h1.8928v2.169h-1.8928v5.5249q0 0.61388 0.2353 0.8799 0.2354 0.26601 0.9004 0.26601 0.4911 0 0.8697-0.0716v2.2407q-0.8697 0.26601-1.7905 0.26601-3.1103 0-3.1717-3.141v-5.9649h-1.6166v-2.169h1.6166v-2.7215z"/>
    <path d="m-1700.6 103.38q-2.435 0-3.9697-1.4938-1.5245-1.4938-1.5245-3.98v-0.28648q0-1.6677 0.6446-2.9773 0.6446-1.3198 1.8212-2.0258 1.1868-0.71619 2.701-0.71619 2.2714 0 3.5708 1.4324 1.3096 1.4324 1.3096 4.0618v1.2073h-7.0494q0.1432 1.0845 0.8594 1.7393 0.7265 0.65481 1.8314 0.65481 1.7087 0 2.6704-1.238l1.4529 1.6268q-0.6651 0.94128-1.8008 1.4733-1.1356 0.52179-2.5169 0.52179zm-0.3376-9.0854q-0.8799 0-1.4324 0.59342-0.5422 0.59342-0.6957 1.6984h4.113v-0.23532q-0.021-0.9822-0.532-1.5142-0.5116-0.54226-1.4529-0.54226z"/>
    <path d="m-1691.3 103.18h-2.9671v-15.717h2.9671z"/>
    <path d="m-1683.7 103.38q-2.4351 0-3.9698-1.4938-1.5245-1.4938-1.5245-3.98v-0.28648q0-1.6677 0.6446-2.9773 0.6446-1.3198 1.8212-2.0258 1.1868-0.71619 2.7011-0.71619 2.2713 0 3.5707 1.4324 1.3096 1.4324 1.3096 4.0618v1.2073h-7.0494q0.1433 1.0845 0.8595 1.7393 0.7264 0.65481 1.8314 0.65481 1.7086 0 2.6703-1.238l1.4529 1.6268q-0.6651 0.94128-1.8007 1.4733-1.1357 0.52179-2.5169 0.52179zm-0.3377-9.0854q-0.8799 0-1.4324 0.59342-0.5422 0.59342-0.6957 1.6984h4.113v-0.23532q-0.021-0.9822-0.532-1.5142-0.5116-0.54226-1.4529-0.54226z"/>
    <path d="m-1674.7 92.108 0.092 1.238q1.1766-1.4426 3.182-1.4426 2.1383 0 2.9363 1.6882 1.1664-1.6882 3.3252-1.6882 1.8007 0 2.6806 1.0538 0.8799 1.0436 0.8799 3.1512v7.0698h-2.9671v-7.0596q0-0.94128-0.3683-1.371-0.3683-0.43995-1.2994-0.43995-1.33 0-1.8416 1.2687l0.01 7.6019h-2.9568v-7.0494q0-0.96174-0.3786-1.3915-0.3785-0.42972-1.2891-0.42972-1.2585 0-1.8212 1.0436v7.827h-2.9568v-11.072z"/>
    <path d="m-1654.3 103.38q-2.435 0-3.9697-1.4938-1.5245-1.4938-1.5245-3.98v-0.28648q0-1.6677 0.6446-2.9773 0.6446-1.3198 1.8212-2.0258 1.1868-0.71619 2.701-0.71619 2.2714 0 3.5708 1.4324 1.3096 1.4324 1.3096 4.0618v1.2073h-7.0494q0.1432 1.0845 0.8594 1.7393 0.7264 0.65481 1.8314 0.65481 1.7087 0 2.6704-1.238l1.4528 1.6268q-0.665 0.94128-1.8007 1.4733-1.1356 0.52179-2.5169 0.52179zm-0.3376-9.0854q-0.8799 0-1.4324 0.59342-0.5422 0.59342-0.6957 1.6984h4.113v-0.23532q-0.02-0.9822-0.5321-1.5142-0.5115-0.54226-1.4528-0.54226z"/>
    <path d="m-1644.5 89.386v2.7215h1.8927v2.169h-1.8927v5.5249q0 0.61388 0.2353 0.8799 0.2353 0.26601 0.9003 0.26601 0.4911 0 0.8697-0.0716v2.2407q-0.8697 0.26601-1.7905 0.26601-3.1103 0-3.1717-3.141v-5.9649h-1.6165v-2.169h1.6165v-2.7215z"/>
    <path d="m-1634.7 94.88q-0.6036-0.08185-1.064-0.08185-1.678 0-2.1998 1.1357v7.2438h-2.9568v-11.072h2.7931l0.082 1.3198q0.8901-1.5245 2.4657-1.5245 0.4911 0 0.9209 0.13301z"/>
    <path d="m-1629.1 98.993 2.0462-6.8857h3.1717l-4.4506 12.789-0.2455 0.58318q-0.9925 2.169-3.2741 2.169-0.6445 0-1.3096-0.1944v-2.2406l0.4502 0.0102q0.839 0 1.2482-0.25578 0.4195-0.25579 0.6548-0.8492l0.3479-0.91059-3.8777-11.101h3.182z"/>
   </g>
   <g aria-label="attributes" transform="matrix(.59347 0 0 .59347 -1199.3 222.85)">
    <path d="m-1705 144.43q-0.2046-0.39902-0.2967-0.99244-1.0743 1.1971-2.7932 1.1971-1.6267 0-2.701-0.94128-1.0641-0.94128-1.0641-2.3737 0-1.7598 1.2994-2.7011 1.3096-0.94128 3.7754-0.95151h1.3607v-0.63434q0-0.76735-0.399-1.2278-0.3888-0.4604-1.238-0.4604-0.7469 0-1.1766 0.35809-0.4195 0.3581-0.4195 0.98221h-2.9568q0-0.96175 0.5934-1.7802 0.5934-0.81851 1.6779-1.2789 1.0845-0.47064 2.4351-0.47064 2.0462 0 3.2433 1.0334 1.2073 1.0231 1.2073 2.8852v4.7985q0.01 1.5756 0.4399 2.3839v0.17394zm-2.4453-2.0565q0.6548 0 1.2073-0.28647 0.5525-0.29671 0.8185-0.78781v-1.903h-1.105q-2.2202 0-2.3634 1.5347l-0.01 0.17393q0 0.55249 0.3888 0.91059 0.3888 0.35809 1.064 0.35809z"/>
    <path d="m-1696.6 130.64v2.7215h1.8928v2.169h-1.8928v5.5249q0 0.61388 0.2354 0.8799 0.2353 0.26601 0.9003 0.26601 0.4911 0 0.8697-0.0716v2.2407q-0.8697 0.26601-1.7905 0.26601-3.1103 0-3.1717-3.141v-5.9648h-1.6166v-2.169h1.6166v-2.7215z"/>
    <path d="m-1689.5 130.64v2.7215h1.8928v2.169h-1.8928v5.5249q0 0.61388 0.2353 0.8799 0.2353 0.26601 0.9004 0.26601 0.4911 0 0.8696-0.0716v2.2407q-0.8696 0.26601-1.7904 0.26601-3.1104 0-3.1717-3.141v-5.9648h-1.6166v-2.169h1.6166v-2.7215z"/>
    <path d="m-1679.8 136.13q-0.6037-0.0819-1.0641-0.0819-1.6779 0-2.1997 1.1357v7.2438h-2.9569v-11.07h2.7932l0.082 1.3198q0.8902-1.5245 2.4658-1.5245 0.4911 0 0.9208 0.133z"/>
    <path d="m-1675.2 144.43h-2.9671v-11.07h2.9671zm-3.141-13.935q0-0.66504 0.4399-1.0948 0.4502-0.42972 1.2176-0.42972 0.7571 0 1.2073 0.42972 0.4501 0.42971 0.4501 1.0948 0 0.67526-0.4604 1.105-0.4502 0.42971-1.197 0.42971-0.7469 0-1.2073-0.42971-0.4502-0.42972-0.4502-1.105z"/>
    <path d="m-1662.8 139q0 2.6601-1.1357 4.1539-1.1356 1.4835-3.1717 1.4835-1.8007 0-2.875-1.3812l-0.133 1.1766h-2.6601v-15.715h2.9568v5.6374q1.0232-1.1971 2.6909-1.1971 2.0258 0 3.1717 1.4938 1.1561 1.4835 1.1561 4.1846zm-2.9568-0.21486q0-1.6779-0.5321-2.4453-0.532-0.77758-1.5858-0.77758-1.4119 0-1.944 1.1561v4.3688q0.5423 1.1664 1.9644 1.1664 1.4324 0 1.8826-1.4119 0.2149-0.67527 0.2149-2.0565z"/>
    <path d="m-1654.4 143.3q-1.0947 1.3301-3.0284 1.3301-1.7803 0-2.7216-1.0231-0.931-1.0231-0.9515-2.9978v-7.254h2.9569v7.1517q0 1.7291 1.5756 1.7291 1.504 0 2.0667-1.0436v-7.8372h2.9671v11.07h-2.7829z"/>
    <path d="m-1645.7 130.64v2.7215h1.8928v2.169h-1.8928v5.5249q0 0.61388 0.2353 0.8799 0.2354 0.26601 0.9004 0.26601 0.4911 0 0.8697-0.0716v2.2407q-0.8697 0.26601-1.7905 0.26601-3.1103 0-3.1717-3.141v-5.9648h-1.6166v-2.169h1.6166v-2.7215z"/>
    <path d="m-1637.1 144.63q-2.4351 0-3.9698-1.4938-1.5245-1.4938-1.5245-3.98v-0.28647q0-1.6677 0.6446-2.9773 0.6446-1.3198 1.8212-2.0258 1.1868-0.71619 2.7011-0.71619 2.2713 0 3.5707 1.4324 1.3096 1.4324 1.3096 4.0618v1.2073h-7.0494q0.1433 1.0845 0.8594 1.7393 0.7265 0.65481 1.8314 0.65481 1.7087 0 2.6704-1.238l1.4529 1.6268q-0.6651 0.94128-1.8007 1.4733-1.1357 0.52179-2.5169 0.52179zm-0.3377-9.0854q-0.8799 0-1.4324 0.59342-0.5422 0.59341-0.6957 1.6984h4.113v-0.23532q-0.02-0.9822-0.532-1.5142-0.5116-0.54226-1.4529-0.54226z"/>
    <path d="m-1624.8 141.37q0-0.54226-0.5423-0.8492-0.532-0.31717-1.7188-0.56273-3.9493-0.82873-3.9493-3.3559 0-1.4733 1.2175-2.4555 1.2278-0.99243 3.2024-0.99243 2.1077 0 3.3661 0.99243 1.2687 0.99244 1.2687 2.5783h-2.9568q0-0.63434-0.4093-1.0436-0.4093-0.41949-1.2789-0.41949-0.7469 0-1.1562 0.33764-0.4092 0.33763-0.4092 0.85943 0 0.4911 0.4604 0.79804 0.4706 0.29671 1.5756 0.5218 1.105 0.21485 1.8621 0.4911 2.343 0.85943 2.343 2.9773 0 1.5142-1.2994 2.4555-1.2994 0.93105-3.3559 0.93105-1.3914 0-2.4759-0.4911-1.0743-0.50133-1.6882-1.3608-0.6139-0.86967-0.6139-1.8723h2.8034q0.041 0.78781 0.5832 1.2073 0.5422 0.41948 1.4528 0.41948 0.8492 0 1.2789-0.31717 0.44-0.3274 0.44-0.84919z"/>
   </g>
   <g aria-label="downlink" transform="matrix(.59347 0 0 .59347 -1194.8 222.85)">
    <path d="m-1699 207.8q0-2.5885 1.1561-4.1232 1.1664-1.5347 3.1819-1.5347 1.6166 0 2.6704 1.2073v-5.6477h2.9671v15.715h-2.6704l-0.1432-1.1766q-1.105 1.3812-2.8443 1.3812-1.9542 0-3.141-1.5347-1.1766-1.5449-1.1766-4.2869zm2.9568 0.21486q0 1.5552 0.5423 2.3839 0.5422 0.82874 1.5756 0.82874 1.371 0 1.9337-1.1561v-4.3688q-0.5525-1.1561-1.9132-1.1561-2.1384 0-2.1384 3.4684z"/>
    <path d="m-1687.2 207.78q0-1.6472 0.6343-2.9364 0.6343-1.2891 1.8212-1.9951 1.197-0.70596 2.7727-0.70596 2.2406 0 3.6525 1.371 1.4222 1.371 1.5859 3.7242l0.021 0.75711q0 2.5476-1.4222 4.0925-1.4221 1.5347-3.8163 1.5347-2.3941 0-3.8265-1.5347-1.4221-1.5347-1.4221-4.1744zm2.9568 0.21485q0 1.5756 0.5934 2.4146 0.5934 0.82874 1.6984 0.82874 1.0743 0 1.678-0.81851 0.6036-0.82873 0.6036-2.6397 0-1.5449-0.6036-2.3941-0.6037-0.8492-1.6984-0.8492-1.0846 0-1.678 0.8492-0.5934 0.83897-0.5934 2.609z"/>
    <path d="m-1665.2 209.4 1.4528-7.0494h2.8545l-2.8238 11.07h-2.476l-2.0974-6.9675-2.0974 6.9675h-2.4658l-2.8238-11.07h2.8545l1.4426 7.0391 2.0258-7.0391h2.1384z"/>
    <path d="m-1656.7 202.35 0.092 1.2789q1.1868-1.4835 3.1819-1.4835 1.7598 0 2.6192 1.0334 0.8595 1.0334 0.8799 3.0898v7.1517h-2.9568v-7.08q0-0.94128-0.4093-1.3608-0.4092-0.42972-1.3607-0.42972-1.2483 0-1.8724 1.0641v7.8065h-2.9568v-11.07z"/>
    <path d="m-1644.6 213.42h-2.9671v-15.715h2.9671z"/>
    <path d="m-1639 213.42h-2.9671v-11.07h2.9671zm-3.141-13.935q0-0.66504 0.4399-1.0948 0.4502-0.42972 1.2176-0.42972 0.7571 0 1.2073 0.42972 0.4501 0.42971 0.4501 1.0948 0 0.67526-0.4604 1.105-0.4502 0.42971-1.197 0.42971-0.7469 0-1.2073-0.42971-0.4502-0.42972-0.4502-1.105z"/>
    <path d="m-1633.8 202.35 0.092 1.2789q1.1868-1.4835 3.1819-1.4835 1.7598 0 2.6192 1.0334 0.8595 1.0334 0.8799 3.0898v7.1517h-2.9568v-7.08q0-0.94128-0.4093-1.3608-0.4092-0.42972-1.3607-0.42972-1.2482 0-1.8724 1.0641v7.8065h-2.9568v-11.07z"/>
    <path d="m-1620.8 208.98-1.064 1.0641v3.3763h-2.9569v-15.715h2.9569v8.7068l0.5729-0.73665 2.8341-3.3252h3.5503l-4.0005 4.6143 4.3483 6.456h-3.3968z"/>
   </g>
  </g>
  <g transform="translate(-26.25 3.2813)">
   <rect stroke-linejoin="round" height="116.53" width="110.39" stroke="#305680" stroke-linecap="round" y="259.35" x="-2310.1" stroke-width="2.1029" fill="#fff"/>
   <g fill="#237de0" transform="translate(3.75)">
    <path d="m-2285.3 274.39q-0.1309 1.8099-1.34 2.8496-1.2015 1.0397-3.1732 1.0397-2.1565 0-3.3965-1.4479-1.2322-1.4556-1.2322-3.9895v-0.68546q0-1.6174 0.5699-2.8496 0.5699-1.2323 1.6251-1.8869 1.0628-0.66235 2.4645-0.66235 1.9409 0 3.1269 1.0397 1.1861 1.0397 1.3709 2.919h-2.3105q-0.085-1.086-0.6084-1.5712-0.5161-0.49291-1.5789-0.49291-1.1553 0-1.7329 0.83179-0.5699 0.82409-0.5853 2.5647v0.84719q0 1.8176 0.5468 2.6571 0.5545 0.83949 1.7406 0.83949 1.0705 0 1.5943-0.48521 0.5314-0.49291 0.6084-1.5172z"/>
    <path d="m-2284.3 273.88q0-1.24 0.4776-2.2104 0.4775-0.97042 1.3709-1.5018 0.9011-0.53142 2.0872-0.53142 1.6867 0 2.7495 1.032 1.0705 1.032 1.1938 2.8034l0.015 0.56994q0 1.9177-1.0705 3.0807-1.0706 1.1553-2.8728 1.1553-1.8021 0-2.8804-1.1553-1.0706-1.1553-1.0706-3.1423zm2.2259 0.16174q0 1.1861 0.4467 1.8176 0.4467 0.62384 1.2785 0.62384 0.8087 0 1.2631-0.61614 0.4544-0.62384 0.4544-1.987 0-1.163-0.4544-1.8022-0.4544-0.63925-1.2785-0.63925-0.8164 0-1.2631 0.63925-0.4467 0.63154-0.4467 1.964z"/>
    <path d="m-2273 269.79 0.069 0.96272q0.8934-1.1168 2.3952-1.1168 1.3247 0 1.9717 0.77787 0.6469 0.77788 0.6623 2.3259v5.3835h-2.2258v-5.3296q0-0.70856-0.308-1.0243-0.3081-0.32348-1.0244-0.32348-0.9396 0-1.4094 0.80098v5.8764h-2.2258v-8.3333z"/>
    <path d="m-2263.1 275.41 1.5481-5.6146h2.3259l-2.8111 8.3333h-2.1257l-2.8112-8.3333h2.326z"/>
    <path d="m-2254.4 278.28q-1.8331 0-2.9884-1.1245-1.1475-1.1245-1.1475-2.996v-0.21565q0-1.2554 0.4852-2.2412 0.4852-0.99353 1.3709-1.525 0.8934-0.53912 2.0333-0.53912 1.7098 0 2.6879 1.0782 0.9858 1.0782 0.9858 3.0576v0.90881h-5.3065q0.1078 0.81639 0.647 1.3093 0.5468 0.49291 1.3785 0.49291 1.2863 0 2.0102-0.93191l1.0936 1.2246q-0.5005 0.70856-1.3554 1.1091-0.8549 0.39279-1.8946 0.39279zm-0.2542-6.8392q-0.6624 0-1.0783 0.4467-0.4082 0.4467-0.5237 1.2785h3.0961v-0.17714q-0.015-0.73937-0.4005-1.1399-0.3851-0.40819-1.0936-0.40819z"/>
    <path d="m-2245 271.88q-0.4544-0.0616-0.801-0.0616-1.2631 0-1.6559 0.85489v5.4528h-2.2258v-8.3333h2.1026l0.062 0.99353q0.67-1.1476 1.8561-1.1476 0.3697 0 0.6932 0.10012z"/>
    <path d="m-2240.9 267.75v2.0487h1.4248v1.6328h-1.4248v4.159q0 0.4621 0.1772 0.66235 0.1771 0.20025 0.6777 0.20025 0.3697 0 0.6547-0.0539v1.6867q-0.6547 0.20025-1.3478 0.20025-2.3414 0-2.3876-2.3644v-4.4901h-1.2168v-1.6328h1.2168v-2.0487z"/>
    <path d="m-2234.4 278.28q-1.833 0-2.9883-1.1245-1.1475-1.1245-1.1475-2.996v-0.21565q0-1.2554 0.4851-2.2412 0.4853-0.99353 1.371-1.525 0.8934-0.53912 2.0333-0.53912 1.7098 0 2.6879 1.0782 0.9858 1.0782 0.9858 3.0576v0.90881h-5.3065q0.1078 0.81639 0.6469 1.3093 0.5469 0.49291 1.3786 0.49291 1.2863 0 2.0102-0.93191l1.0937 1.2246q-0.5007 0.70856-1.3556 1.1091-0.8549 0.39279-1.8946 0.39279zm-0.2542-6.8392q-0.6623 0-1.0782 0.4467-0.4082 0.4467-0.5237 1.2785h3.0961v-0.17714q-0.015-0.73937-0.4005-1.1399-0.3851-0.40819-1.0937-0.40819z"/>
    <path d="m-2225 271.88q-0.4544-0.0616-0.8009-0.0616-1.2631 0-1.6559 0.85489v5.4528h-2.2258v-8.3333h2.1026l0.062 0.99353q0.67-1.1476 1.8561-1.1476 0.3697 0 0.6932 0.10012z"/>
   </g>
   <g transform="matrix(.56091 0 0 .56091 -1254.8 234.34)">
    <g fill="#305680" transform="matrix(.55159 0 0 .55159 -1917.6 80.676)">
     <g fill="#305680">
      <path d="m373.23 68.177-61.8-41.6c-3.4-2.3-7.9 0.1-7.9 4.2v22.5h-153.6c-10.6 0-19.1 8.6-19.1 19.1v106.5c0 2.3 2.6 3.7 4.5 2.4l30-20.2c2.3-1.5 3.7-4.1 3.7-6.9v-62.7h134.4v22.5c0 4.1 4.5 6.5 7.9 4.2l61.8-41.6c3.1-2 3.1-6.4 0.1-8.4z" fill="#305680"/>
     </g>
    </g>
    <g fill="#237de0" transform="matrix(.55159 0 0 .55159 -1917.6 80.676)">
     <g fill="#237de0">
      <path d="m354.13 117.98-30 20.2c-2.3 1.5-3.7 4.1-3.7 6.9v62.6h-134.5v-22.5c0-4.1-4.5-6.5-7.9-4.2l-61.8 41.6c-3 2-3 6.4 0 8.4l61.8 41.6c3.4 2.3 7.9-0.1 7.9-4.2v-22.5h153.5c10.6 0.1 19.2-8.5 19.2-19.1v-106.4c0-2.3-2.6-3.7-4.5-2.4z" fill="#237de0"/>
     </g>
    </g>
   </g>
  </g>
  <path d="m-2608 313.85c-4.4146 1.5197-8.8234 3.0468-13.234 4.5709 4.5711 1.2704 9.157 2.516 13.739 3.7681-0.5886-0.9246-1.2004-1.842-1.7952-2.7649 15.503-0.0907 44.04-0.16695 59.543-0.24734-0.4798 0.95501-0.9779 1.9062-1.4541 2.8634 4.4145-1.5197 8.8224-3.0461 13.234-4.5702-4.571-1.2704-9.1572-2.5168-13.739-3.7688 0.5886 0.92455 1.201 1.8426 1.7958 2.7655-15.502 0.0917-44.04 0.16676-59.543 0.24663 0.4797-0.95497 0.978-1.9062 1.4542-2.8634z" stroke-width=".59347" fill="#305680"/>
  <g aria-label="HTTP" style="font-variant-ligatures:normal;font-variant-numeric:normal;font-variant-caps:normal;font-feature-settings:normal" transform="translate(20.625)" stroke-width=".83860px" fill="#237de0">
   <path style="font-variant-ligatures:normal;font-variant-numeric:normal;font-variant-caps:normal;font-feature-settings:normal" d="m-2608.2 312.58h-1.6379v-3.4068h-3.1939v3.4068h-1.6379v-7.9492h1.6379v3.2212h3.1939v-3.2212h1.6379z"/>
   <path style="font-variant-ligatures:normal;font-variant-numeric:normal;font-variant-caps:normal;font-feature-settings:normal" d="m-2601 305.96h-2.435v6.6225h-1.6379v-6.6225h-2.4022v-1.3267h6.4751z"/>
   <path style="font-variant-ligatures:normal;font-variant-numeric:normal;font-variant-caps:normal;font-feature-settings:normal" d="m-2594 305.96h-2.435v6.6225h-1.6378v-6.6225h-2.4023v-1.3267h6.4751z"/>
   <path style="font-variant-ligatures:normal;font-variant-numeric:normal;font-variant-caps:normal;font-feature-settings:normal" d="m-2591.4 309.78v2.8008h-1.6379v-7.9492h3.1011q0.8953 0 1.5723 0.32757 0.6825 0.32758 1.0483 0.9336 0.3658 0.60056 0.3658 1.3704 0 1.1684-0.8026 1.8454-0.7971 0.67154-2.2111 0.67154zm0-1.3267h1.4632q0.6497 0 0.9882-0.30574 0.3439-0.30574 0.3439-0.87354 0-0.58418-0.3439-0.94452-0.344-0.36033-0.95-0.37125h-1.5014z"/>
  </g>
  <g transform="matrix(.50747 0 0 .50747 -3017.9 -44.68)">
   <g aria-label="OceanConnect" style="font-variant-ligatures:normal;font-variant-numeric:normal;font-variant-caps:normal;font-feature-settings:normal" transform="matrix(.33729 0 0 .33729 482 437.88)" stroke-width="2.004px" fill="#393b3f">
    <path style="font-variant-ligatures:normal;font-variant-numeric:normal;font-variant-caps:normal;font-feature-settings:normal" d="m181.67 800.59q-6.1841 0-9.6284 5.0882-3.4052 5.0882-3.4052 14.325 0 9.1979 3.4052 14.286 3.4443 5.0882 9.6284 5.0882 6.2233 0 9.6284-5.0882 3.4443-5.0882 3.4443-14.286 0-9.237-3.4443-14.325-3.4052-5.0882-9.6284-5.0882zm0-10.92q12.681 0 19.844 8.0628 7.2018 8.0628 7.2018 22.271 0 14.169-7.2018 22.232-7.1626 8.0628-19.844 8.0628-12.642 0-19.844-8.0628-7.2018-8.0628-7.2018-22.232 0-14.208 7.2018-22.271 7.2018-8.0628 19.844-8.0628z"/>
    <path style="font-variant-ligatures:normal;font-variant-numeric:normal;font-variant-caps:normal;font-feature-settings:normal" d="m250.32 806.7v11.429q-2.5441-1.957-5.1665-2.8964-2.5832-0.93936-5.3622-0.93936-5.2839 0-8.2194 3.4443-2.9355 3.4052-2.9355 9.5502t2.9355 9.5893q2.9355 3.4052 8.2194 3.4052 2.9746 0 5.6362-0.9785 2.6615-0.9785 4.8925-2.8964v11.468q-2.9355 1.2133-5.9884 1.8004-3.0529 0.62624-6.1058 0.62624-10.685 0-16.713-6.0667-6.0276-6.1058-6.0276-16.948t6.0276-16.908q6.0276-6.1058 16.713-6.1058 3.0921 0 6.1058 0.62624 3.0138 0.58711 5.9884 1.8004z"/>
    <path style="font-variant-ligatures:normal;font-variant-numeric:normal;font-variant-caps:normal;font-feature-settings:normal" d="m300.58 827.13v3.9923h-29.472q0.43054 4.9316 3.1703 7.3975 2.779 2.4658 7.7106 2.4658 3.9923 0 8.1411-1.2916 4.188-1.3308 8.5717-3.9923v10.803q-4.462 1.8787-8.9631 2.8181-4.462 0.9785-8.9239 0.9785-10.724 0-16.674-6.0276-5.9101-6.0667-5.9101-16.987 0-10.724 5.8319-16.869t16.047-6.145q9.3153 0 14.873 6.2233 5.597 6.2233 5.597 16.634zm-12.955-4.6577q0-3.9923-2.1136-6.419-2.0744-2.4658-5.4796-2.4658-3.64 0-5.9493 2.3093-2.2701 2.2701-2.8572 6.5755z"/>
    <path style="font-variant-ligatures:normal;font-variant-numeric:normal;font-variant-caps:normal;font-feature-settings:normal" d="m327.9 829.44q-3.9531 0-5.9493 1.4873-1.9961 1.4873-1.9961 4.3837 0 2.6615 1.6047 4.188 1.6047 1.4873 4.462 1.4873 3.5617 0 5.9884-2.8181 2.4267-2.8572 2.4267-7.1235v-1.6048zm19.257-5.2839v25.01h-12.721v-6.4972q-2.5441 3.9923-5.7144 5.8319-3.1703 1.8004-7.7106 1.8004-6.145 0-9.9807-3.9531-3.7966-3.9923-3.7966-10.333 0-7.7106 4.7751-11.311 4.7751-3.6009 14.991-3.6009h7.4366v-1.0959q0-3.3269-2.3875-4.8534-2.3484-1.5656-7.3192-1.5656-4.0706 0-7.554 0.90022-3.4835 0.90022-6.4972 2.7007v-10.685q4.0706-1.0959 8.1411-1.6439 4.1097-0.5871 8.1803-0.5871 10.685 0 15.421 4.6968 4.7359 4.6577 4.7359 15.186z"/>
    <path style="font-variant-ligatures:normal;font-variant-numeric:normal;font-variant-caps:normal;font-feature-settings:normal" d="m398.54 822.47v26.693h-12.681v-20.432q0-5.6753-0.23484-7.828t-0.7828-3.1703q-0.74366-1.3699-2.0353-2.1136-1.2525-0.7828-2.8572-0.7828-3.9531 0-6.2233 3.4052-2.231 3.366-2.231 9.3545v21.566h-12.603v-43.837h12.603v6.419q2.8572-3.8357 6.0667-5.6362 3.2095-1.8396 7.0843-1.8396 6.8104 0 10.333 4.6577 3.5618 4.6577 3.5618 13.542z"/>
    <path style="font-variant-ligatures:normal;font-variant-numeric:normal;font-variant-caps:normal;font-feature-settings:normal" d="m452.52 845.95q-3.7574 2.1527-7.828 3.2486-4.0314 1.0959-8.4151 1.0959-13.151 0-20.822-8.1411-7.6714-8.1803-7.6714-22.153 0-14.012 7.6714-22.153 7.6714-8.1803 20.822-8.1803 4.3837 0 8.4151 1.0959 4.0706 1.0959 7.828 3.2486v12.094q-3.7966-2.8572-7.4758-4.188-3.64-1.3308-7.6714-1.3308-7.28 0-11.429 5.1665-4.1488 5.1665-4.1488 14.247 0 9.0413 4.1488 14.208 4.1488 5.1665 11.429 5.1665 4.0314 0 7.6714-1.3308 3.6792-1.3308 7.4758-4.188z"/>
    <path style="font-variant-ligatures:normal;font-variant-numeric:normal;font-variant-caps:normal;font-feature-settings:normal" d="m481.91 814.29q-4.188 0-6.3798 3.366-2.1918 3.3269-2.1918 9.6284 0 6.3016 2.1918 9.6676 2.1918 3.3269 6.3798 3.3269 4.1488 0 6.3015-3.3269 2.1918-3.366 2.1918-9.6676 0-6.3015-2.1918-9.6284-2.1527-3.366-6.3015-3.366zm0-10.02q10.216 0 15.93 6.1058 5.7144 6.1058 5.7144 16.908 0 10.803-5.7144 16.908-5.7144 6.1058-15.93 6.1058-10.176 0-15.969-6.1058-5.7536-6.1058-5.7536-16.908 0-10.803 5.7536-16.908 5.7927-6.1058 15.969-6.1058z"/>
    <path style="font-variant-ligatures:normal;font-variant-numeric:normal;font-variant-caps:normal;font-feature-settings:normal" d="m552.44 822.47v26.693h-12.681v-20.432q0-5.6753-0.23484-7.828t-0.7828-3.1703q-0.74367-1.3699-2.0353-2.1136-1.2525-0.7828-2.8572-0.7828-3.9531 0-6.2233 3.4052-2.231 3.366-2.231 9.3545v21.566h-12.603v-43.837h12.603v6.419q2.8572-3.8357 6.0667-5.6362 3.2095-1.8396 7.0844-1.8396 6.8104 0 10.333 4.6577 3.5617 4.6577 3.5617 13.542z"/>
    <path style="font-variant-ligatures:normal;font-variant-numeric:normal;font-variant-caps:normal;font-feature-settings:normal" d="m603.79 822.47v26.693h-12.681v-20.432q0-5.6753-0.23484-7.828t-0.7828-3.1703q-0.74366-1.3699-2.0353-2.1136-1.2525-0.7828-2.8572-0.7828-3.9531 0-6.2233 3.4052-2.231 3.366-2.231 9.3545v21.566h-12.603v-43.837h12.603v6.419q2.8572-3.8357 6.0667-5.6362 3.2095-1.8396 7.0843-1.8396 6.8104 0 10.333 4.6577 3.5618 4.6577 3.5618 13.542z"/>
    <path style="font-variant-ligatures:normal;font-variant-numeric:normal;font-variant-caps:normal;font-feature-settings:normal" d="m654.87 827.13v3.9923h-29.472q0.43054 4.9316 3.1703 7.3975 2.7789 2.4658 7.7106 2.4658 3.9923 0 8.1411-1.2916 4.188-1.3308 8.5717-3.9923v10.803q-4.462 1.8787-8.9631 2.8181-4.462 0.9785-8.9239 0.9785-10.724 0-16.674-6.0276-5.9102-6.0667-5.9102-16.987 0-10.724 5.8319-16.869t16.047-6.145q9.3153 0 14.873 6.2233 5.597 6.2233 5.597 16.634zm-12.955-4.6577q0-3.9923-2.1136-6.419-2.0744-2.4658-5.4796-2.4658-3.64 0-5.9493 2.3093-2.2701 2.2701-2.8572 6.5755z"/>
    <path style="font-variant-ligatures:normal;font-variant-numeric:normal;font-variant-caps:normal;font-feature-settings:normal" d="m696.36 806.7v11.429q-2.5441-1.957-5.1665-2.8964-2.5832-0.93936-5.3622-0.93936-5.2839 0-8.2194 3.4443-2.9355 3.4052-2.9355 9.5502t2.9355 9.5893q2.9355 3.4052 8.2194 3.4052 2.9746 0 5.6362-0.9785 2.6615-0.9785 4.8925-2.8964v11.468q-2.9355 1.2133-5.9884 1.8004-3.0529 0.62624-6.1058 0.62624-10.685 0-16.713-6.0667-6.0276-6.1058-6.0276-16.948t6.0276-16.908q6.0276-6.1058 16.713-6.1058 3.0921 0 6.1058 0.62624 3.0138 0.58711 5.9884 1.8004z"/>
    <path style="font-variant-ligatures:normal;font-variant-numeric:normal;font-variant-caps:normal;font-feature-settings:normal" d="m721.02 792.88v12.447h12.99v10.02h-12.994v18.592q0 3.0529 1.0568 4.1488 1.0959 1.0568 4.3445 1.0568h6.4972v10.02h-10.803q-7.4757 0-10.607-3.4443-3.1312-3.4835-3.1312-11.781v-18.592h-6.2624v-10.02h6.2624v-12.447z"/>
   </g>
   <path stroke-linejoin="round" d="m516.23 673.03h231.28v82.84h-231.28z" stroke="#393b3f" stroke-linecap="round" stroke-width="3.5433" fill="none"/>
  </g>
  <rect stroke-linejoin="round" height="104.92" width="142.04" stroke="#305680" stroke-linecap="round" y="266.74" x="-2767" stroke-width="2.1012" fill="none"/>
  <g>
   <rect stroke-linejoin="round" height="116.53" width="110.39" stroke="#305680" stroke-linecap="round" y="261.22" x="-2532.7" stroke-width="2.1012" fill="#fff"/>
   <g fill="#237de0" transform="matrix(1.0401 0 0 1.0401 101.44 -9.2695)">
    <path d="m-2506.7 286.87h-1.7683v-8.5821h1.7683z"/>
    <path d="m-2503.6 280.5 0.053 0.73679q0.6837-0.85468 1.8331-0.85468 1.0138 0 1.5089 0.59533 0.4952 0.59533 0.507 1.7801v4.1201h-1.7035v-4.0789q0-0.54227-0.2358-0.78394-0.2357-0.24756-0.7839-0.24756-0.7191 0-1.0787 0.61301v4.4974h-1.7034v-6.3776z"/>
    <path d="m-2496.3 278.93v1.5679h1.0905v1.2496h-1.0905v3.1829q0 0.35366 0.1356 0.50691t0.5187 0.15325q0.2829 0 0.501-0.0413v1.2909q-0.501 0.15325-1.0315 0.15325-1.7918 0-1.8272-1.8096v-3.4364h-0.9313v-1.2496h0.9313v-1.5679z"/>
    <path d="m-2491.4 286.99q-1.4028 0-2.287-0.86057-0.8782-0.86057-0.8782-2.2929v-0.16504q0-0.96078 0.3713-1.7152 0.3714-0.76037 1.0492-1.1671 0.6837-0.41261 1.5561-0.41261 1.3086 0 2.0571 0.82521 0.7545 0.8252 0.7545 2.34v0.69553h-4.0612q0.083 0.6248 0.4952 1.002 0.4185 0.37723 1.0551 0.37723 0.9843 0 1.5384-0.71321l0.837 0.9372q-0.3832 0.54228-1.0375 0.84878-0.6542 0.30061-1.45 0.30061zm-0.1945-5.2342q-0.5069 0-0.8252 0.34188-0.3124 0.34187-0.4008 0.97845h2.3695v-0.13557q-0.012-0.56585-0.3065-0.87236-0.2947-0.3124-0.837-0.3124z"/>
    <path d="m-2488 283.64q0-1.4677 0.6955-2.3636 0.7014-0.89594 1.8862-0.89594 1.0492 0 1.6328 0.71911l0.071-0.60122h1.5443v6.1655q0 0.83699-0.3831 1.4559-0.3773 0.61891-1.0669 0.9431-0.6896 0.32418-1.6151 0.32418-0.7014 0-1.3675-0.28292-0.666-0.27704-1.0079-0.71911l0.7545-1.0374q0.6366 0.71321 1.5443 0.71321 0.6779 0 1.0551-0.36545 0.3772-0.35955 0.3772-1.0256v-0.34q-0.5894 0.66606-1.5501 0.66606-1.1494 0-1.8627-0.89594-0.7073-0.90183-0.7073-2.3872zm1.7035 0.12378q0 0.86647 0.3477 1.3616 0.3478 0.48923 0.9549 0.48923 0.7781 0 1.114-0.58354v-2.6819q-0.3418-0.58354-1.1022-0.58354-0.613 0-0.9667 0.50102-0.3477 0.50101-0.3477 1.4972z"/>
    <path d="m-2477.3 282.09q-0.3478-0.0471-0.613-0.0471-0.9667 0-1.2673 0.65427v4.1732h-1.7035v-6.3776h1.6092l0.047 0.76037q0.5128-0.87826 1.4206-0.87826 0.2829 0 0.5304 0.0766z"/>
    <path d="m-2473 286.87q-0.1179-0.22988-0.171-0.57175-0.6188 0.68964-1.6091 0.68964-0.9372 0-1.5561-0.54228-0.613-0.54227-0.613-1.3675 0-1.0138 0.7486-1.5561 0.7544-0.54228 2.175-0.54817h0.7839v-0.36545q0-0.44207-0.2298-0.70732-0.2241-0.26524-0.7133-0.26524-0.4303 0-0.6778 0.2063-0.2417 0.2063-0.2417 0.56585h-1.7035q0-0.55406 0.3419-1.0256t0.9667-0.73679q0.6248-0.27114 1.4029-0.27114 1.1788 0 1.8684 0.59533 0.6956 0.58943 0.6956 1.6622v2.7644q0.01 0.90773 0.2534 1.3734v0.1002zm-1.4087-1.1848q0.3772 0 0.6955-0.16505 0.3183-0.17093 0.4715-0.45386v-1.0963h-0.6366q-1.279 0-1.3616 0.88415l-0.01 0.1002q0 0.31829 0.224 0.52459 0.224 0.20631 0.613 0.20631z"/>
    <path d="m-2468.1 278.93v1.5679h1.0905v1.2496h-1.0905v3.1829q0 0.35366 0.1356 0.50691t0.5187 0.15325q0.2829 0 0.501-0.0413v1.2909q-0.501 0.15325-1.0315 0.15325-1.7919 0-1.8272-1.8096v-3.4364h-0.9313v-1.2496h0.9313v-1.5679z"/>
    <path d="m-2464.3 286.87h-1.7093v-6.3776h1.7093zm-1.8095-8.0281q0-0.38313 0.2534-0.63069 0.2594-0.24756 0.7015-0.24756 0.4361 0 0.6955 0.24756t0.2594 0.63069q0 0.38903-0.2653 0.63659-0.2593 0.24756-0.6896 0.24756t-0.6956-0.24756q-0.2593-0.24756-0.2593-0.63659z"/>
    <path d="m-2463.1 283.63q0-0.94898 0.3655-1.6917 0.3654-0.74268 1.0492-1.1494 0.6896-0.40671 1.5973-0.40671 1.2909 0 2.1043 0.78984 0.8193 0.78984 0.9136 2.1455l0.012 0.43618q0 1.4677-0.8193 2.3577-0.8193 0.88415-2.1986 0.88415-1.3792 0-2.2045-0.88415-0.8193-0.88415-0.8193-2.4049zm1.7035 0.12378q0 0.90773 0.3419 1.3911 0.3418 0.47744 0.9784 0.47744 0.6189 0 0.9667-0.47154 0.3478-0.47744 0.3478-1.5207 0-0.89004-0.3478-1.3793-0.3478-0.48923-0.9785-0.48923-0.6248 0-0.9666 0.48923-0.3419 0.48334-0.3419 1.503z"/>
    <path d="m-2454.5 280.5 0.053 0.73679q0.6838-0.85468 1.8331-0.85468 1.0139 0 1.509 0.59533t0.5069 1.7801v4.1201h-1.7035v-4.0789q0-0.54227-0.2357-0.78394-0.2358-0.24756-0.784-0.24756-0.7191 0-1.0786 0.61301v4.4974h-1.7035v-6.3776z"/>
   </g>
   <g transform="matrix(.59347 0 0 .59347 -1144.1 230.35)">
    <g fill="#305680" transform="matrix(-.31273 0 0 -.31273 -2167.6 243.68)">
     <g fill="#305680">
      <path fill="#305680" d="m465.3 145.05h-43.5c-17.7 0-21.8-14.7-12.6-25.3 15.2-17.2 7.1-43-20.2-44.5-27.3 1-35.4 27.3-20.2 44 9.1 10.1 5.1 25.3-12.6 25.3h-42.5c-12.6 0-23.3 10.1-23.3 23.3v55.1h-1-78.4v-21.8c0-2-2.5-3-4.6-1.5l-51.1 42c-1.5 1.5-1.5 4 0 5.6l51.1 42c2 1.5 4.6 0 4.6-2v-21.8h78.2 1v55.6c0 12.6 10.1 23.3 23.3 23.3h42.5c17.7 0 21.8 14.7 12.6 24.8-15.2 17.2-7.1 43 20.2 44 27.3-1 35.4-27.3 20.2-44-9.1-10.1-5.1-24.8 12.6-24.8h43c13.2 0 23.8-10.6 23.8-23.8v-43.6c-0.5-17.2-15.2-21.2-25.3-12.1-17.2 15.2-43.5 7.1-44.5-20.2 1-27.3 27.3-35.4 44.5-20.2 10.1 9.1 24.8 5.1 25.3-12.1v-44c0.1-12.7-10-23.3-23.1-23.3z"/>
     </g>
    </g>
    <g fill="#237de0" transform="matrix(-.31273 0 0 -.31273 -2167.6 243.68)">
     <g fill="#237de0">
      <path fill="#237de0" d="m244.7 145.45h-43.5c-17.7 0-21.8-15.2-12.6-25.3 15.2-17.2 7.1-43.5-20.2-44.5-27.3 1-35.4 26.8-20.2 44 9.1 10.1 5.1 25.3-12.6 25.3h-42.5c-13.2 0-23.3 10.6-23.3 23.3v43.5c0 17.7-15.2 21.8-25.3 12.6-17.2-15.2-43.5-7.1-44.5 20.2 1 27.3 27.3 35.4 44 20.2 10.1-9.1 25.3-5.1 25.3 12.6v43c0 13.2 10.6 23.3 23.3 23.3h42.5c17.7 0 21.8 14.7 12.6 24.8-15.2 16.7-7.1 43 20.2 44 27.3-1 35.4-26.8 20.2-44-9.1-10.1-5.1-24.8 12.6-24.8h43c13.2 0 23.8-10.6 23.8-23.8v-32.7h-34.4c-0.5 13.7-11.7 24.8-25.3 24.8-6.1 0-11.6-2-16.2-5.6l-51.1-42c-6.1-5.1-9.6-12.1-9.6-20.2s3.5-15.2 9.6-20.2l51.6-42c4.6-3.5 10.1-5.6 16.2-5.6 13.7 0 24.8 11.1 25.3 24.8h34.4v-32.4c0-13.2-10.6-23.3-23.3-23.3z"/>
     </g>
    </g>
   </g>
   <g aria-label="OceanConnect" style="font-variant-ligatures:normal;font-variant-numeric:normal;font-variant-caps:normal;font-feature-settings:normal" fill="#237de0" stroke-width=".30225px">
    <path style="font-variant-ligatures:normal;font-variant-numeric:normal;font-variant-caps:normal;font-feature-settings:normal" d="m-2509.7 272.61q0 1.2692-0.4486 2.2256-0.4487 0.95634-1.2869 1.4758-0.8324 0.51949-1.9127 0.51949-1.0685 0-1.9068-0.51359t-1.2987-1.464q-0.4605-0.95634-0.4664-2.196v-0.42504q0-1.2692 0.4546-2.2314 0.4604-0.96815 1.2928-1.4817 0.8383-0.51949 1.9127-0.51949t1.9068 0.51949q0.8382 0.51359 1.2928 1.4817 0.4604 0.96224 0.4604 2.2256zm-1.7946-0.38962q0-1.3519-0.484-2.0544-0.4841-0.70249-1.3814-0.70249-0.8914 0-1.3755 0.69659-0.4841 0.69069-0.49 2.0307v0.41914q0 1.3164 0.4841 2.0425 0.4841 0.72611 1.3932 0.72611 0.8914 0 1.3696-0.69659 0.4781-0.70249 0.484-2.0426z"/>
    <path style="font-variant-ligatures:normal;font-variant-numeric:normal;font-variant-caps:normal;font-feature-settings:normal" d="m-2505.8 275.45q0.4723 0 0.7674-0.25975 0.2952-0.25975 0.307-0.69069h1.5998q-0.01 0.64937-0.3542 1.1925-0.3483 0.5372-0.9563 0.83827-0.6022 0.29517-1.3342 0.29517-1.3695 0-2.1606-0.86779-0.791-0.87369-0.791-2.4086v-0.11217q0-1.4758 0.7851-2.3554t2.1547-0.8796q1.1984 0 1.9186 0.68479 0.7261 0.67888 0.7379 1.8123h-1.5998q-0.012-0.49588-0.307-0.80285-0.2951-0.31288-0.7792-0.31288-0.5962 0-0.9032 0.43685-0.3011 0.43094-0.3011 1.405v0.1771q0 0.98585 0.3011 1.4168t0.915 0.43095z"/>
    <path style="font-variant-ligatures:normal;font-variant-numeric:normal;font-variant-caps:normal;font-feature-settings:normal" d="m-2499.2 276.83q-1.405 0-2.2905-0.86188-0.8796-0.86189-0.8796-2.2964v-0.16529q0-0.96224 0.3719-1.7179 0.3719-0.76152 1.0508-1.1688 0.6848-0.41324 1.5585-0.41324 1.3105 0 2.0603 0.82647 0.7556 0.82646 0.7556 2.3436v0.69659h-4.0674q0.083 0.62575 0.4959 1.0036 0.4191 0.37782 1.0567 0.37782 0.9858 0 1.5407-0.71431l0.8383 0.93863q-0.3837 0.54311-1.039 0.85008-0.6552 0.30107-1.4522 0.30107zm-0.1948-5.2422q-0.5077 0-0.8265 0.34239-0.3128 0.3424-0.4014 0.97996h2.3731v-0.13578q-0.012-0.56672-0.3069-0.87369-0.2952-0.31288-0.8383-0.31288z"/>
    <path style="font-variant-ligatures:normal;font-variant-numeric:normal;font-variant-caps:normal;font-feature-settings:normal" d="m-2491.9 276.71q-0.118-0.23023-0.1712-0.57262-0.6198 0.69069-1.6116 0.69069-0.9386 0-1.5585-0.54311-0.6139-0.5431-0.6139-1.3696 0-1.0154 0.7497-1.5585 0.7556-0.54311 2.1783-0.54901h0.7852v-0.36601q0-0.44275-0.2302-0.7084-0.2244-0.26564-0.7143-0.26564-0.431 0-0.6789 0.20661-0.2421 0.20662-0.2421 0.56672h-1.706q0-0.55491 0.3424-1.0272 0.3424-0.47226 0.9681-0.73791 0.6258-0.27156 1.405-0.27156 1.1807 0 1.8714 0.59624 0.6965 0.59033 0.6965 1.6647v2.7686q0.01 0.90911 0.2539 1.3755v0.10035zm-1.4109-1.1866q0.3778 0 0.6966-0.1653 0.3188-0.17119 0.4723-0.45455v-1.098h-0.6376q-1.281 0-1.3636 0.8855l-0.01 0.10035q0 0.31878 0.2243 0.5254t0.6139 0.20662z"/>
    <path style="font-variant-ligatures:normal;font-variant-numeric:normal;font-variant-caps:normal;font-feature-settings:normal" d="m-2487.6 270.32 0.053 0.73792q0.6848-0.85599 1.8359-0.85599 1.0154 0 1.5113 0.59624t0.5077 1.7828v4.1264h-1.7061v-4.0851q0-0.54311-0.2361-0.78515-0.2362-0.24794-0.7852-0.24794-0.7202 0-1.0803 0.61395v4.5042h-1.706v-6.3874z"/>
    <path style="font-variant-ligatures:normal;font-variant-numeric:normal;font-variant-caps:normal;font-feature-settings:normal" d="m-2475.5 273.85q-0.1004 1.3873-1.0272 2.1842-0.9209 0.79695-2.4322 0.79695-1.6529 0-2.6034-1.1098-0.9445-1.1157-0.9445-3.0579v-0.5254q0-1.2397 0.4369-2.1842 0.4368-0.94453 1.2456-1.4463 0.8146-0.50769 1.889-0.50769 1.4877 0 2.3968 0.79695t1.0508 2.2374h-1.771q-0.065-0.83237-0.4664-1.2043-0.3955-0.37781-1.2102-0.37781-0.8855 0-1.3282 0.63756-0.4369 0.63165-0.4487 1.9658v0.64937q0 1.3932 0.4192 2.0366 0.425 0.64347 1.3341 0.64347 0.8206 0 1.222-0.37191 0.4073-0.37782 0.4664-1.163z"/>
    <path style="font-variant-ligatures:normal;font-variant-numeric:normal;font-variant-caps:normal;font-feature-settings:normal" d="m-2474.7 273.46q0-0.95043 0.366-1.6942 0.366-0.74382 1.0508-1.1512 0.6907-0.40733 1.5998-0.40733 1.2928 0 2.1075 0.79105 0.8205 0.79104 0.915 2.1488l0.012 0.43684q0 1.4699-0.8206 2.3613-0.8205 0.8855-2.2019 0.8855t-2.2078-0.8855q-0.8206-0.8855-0.8206-2.4086zm1.7061 0.12397q0 0.90912 0.3424 1.3932 0.3423 0.47817 0.9799 0.47817 0.6199 0 0.9681-0.47227 0.3483-0.47817 0.3483-1.5231 0-0.8914-0.3483-1.3814-0.3482-0.48998-0.9799-0.48998-0.6258 0-0.9681 0.48998-0.3424 0.48407-0.3424 1.5053z"/>
    <path style="font-variant-ligatures:normal;font-variant-numeric:normal;font-variant-caps:normal;font-feature-settings:normal" d="m-2466 270.32 0.053 0.73792q0.6848-0.85599 1.8359-0.85599 1.0154 0 1.5113 0.59624t0.5077 1.7828v4.1264h-1.7061v-4.0851q0-0.54311-0.2361-0.78515-0.2361-0.24794-0.7852-0.24794-0.7202 0-1.0803 0.61395v4.5042h-1.706v-6.3874z"/>
    <path style="font-variant-ligatures:normal;font-variant-numeric:normal;font-variant-caps:normal;font-feature-settings:normal" d="m-2459.2 270.32 0.053 0.73792q0.6848-0.85599 1.836-0.85599 1.0153 0 1.5112 0.59624t0.5077 1.7828v4.1264h-1.7061v-4.0851q0-0.54311-0.2361-0.78515-0.2361-0.24794-0.7851-0.24794-0.7202 0-1.0803 0.61395v4.5042h-1.7061v-6.3874z"/>
    <path style="font-variant-ligatures:normal;font-variant-numeric:normal;font-variant-caps:normal;font-feature-settings:normal" d="m-2451.1 276.83q-1.405 0-2.2905-0.86188-0.8796-0.86189-0.8796-2.2964v-0.16529q0-0.96224 0.3719-1.7179 0.3719-0.76152 1.0508-1.1688 0.6848-0.41324 1.5585-0.41324 1.3105 0 2.0602 0.82647 0.7557 0.82646 0.7557 2.3436v0.69659h-4.0674q0.083 0.62575 0.4958 1.0036 0.4192 0.37782 1.0567 0.37782 0.9859 0 1.5408-0.71431l0.8383 0.93863q-0.3837 0.54311-1.039 0.85008-0.6553 0.30107-1.4522 0.30107zm-0.1948-5.2422q-0.5077 0-0.8265 0.34239-0.3129 0.3424-0.4014 0.97996h2.3731v-0.13578q-0.012-0.56672-0.307-0.87369-0.2951-0.31288-0.8382-0.31288z"/>
    <path style="font-variant-ligatures:normal;font-variant-numeric:normal;font-variant-caps:normal;font-feature-settings:normal" d="m-2444.8 275.45q0.4723 0 0.7674-0.25975 0.2952-0.25975 0.307-0.69069h1.5998q-0.01 0.64937-0.3542 1.1925-0.3483 0.5372-0.9563 0.83827-0.6022 0.29517-1.3342 0.29517-1.3696 0-2.1606-0.86779-0.791-0.87369-0.791-2.4086v-0.11217q0-1.4758 0.7851-2.3554t2.1547-0.8796q1.1984 0 1.9186 0.68479 0.7261 0.67888 0.7379 1.8123h-1.5998q-0.012-0.49588-0.307-0.80285-0.2951-0.31288-0.7792-0.31288-0.5962 0-0.9032 0.43685-0.3011 0.43094-0.3011 1.405v0.1771q0 0.98585 0.3011 1.4168t0.915 0.43095z"/>
    <path style="font-variant-ligatures:normal;font-variant-numeric:normal;font-variant-caps:normal;font-feature-settings:normal" d="m-2439.1 268.75v1.5703h1.0921v1.2515h-1.0921v3.1878q0 0.3542 0.1358 0.50768 0.1357 0.15349 0.5195 0.15349 0.2833 0 0.5017-0.0413v1.2928q-0.5017 0.15349-1.033 0.15349-1.7946 0-1.8301-1.8123v-3.4416h-0.9327v-1.2515h0.9327v-1.5703z"/>
   </g>
  </g>
  <path d="m-2144.1 355.64s-51.337 0.16692-66.84 0.24733c0.4795-0.95519 0.978-1.9062 1.4542-2.8634-4.4144 1.5197-8.8225 3.0461-13.234 4.5702 4.571 1.2704 9.1572 2.5168 13.739 3.7689-0.5888-0.92451-1.2011-1.8427-1.796-2.7656 15.503-0.0916 66.84-0.2466 66.84-0.2466z" stroke-width=".59347" fill="#305680"/>
  <g transform="translate(-53.906 -5.5378)">
   <rect stroke-linejoin="round" height="88.924" width="148.4" stroke="#305680" stroke-linecap="round" y="353.36" x="-2062.6" stroke-width="4.6714" fill="none"/>
   <g style="font-variant-ligatures:normal;font-variant-numeric:normal;font-variant-caps:normal;font-feature-settings:normal" transform="matrix(.89834 0 0 .89834 -1582.8 161.46)" stroke-width=".40990px" fill="#237de0">
    <path style="font-variant-ligatures:normal;font-variant-numeric:normal;font-variant-caps:normal;font-feature-settings:normal" d="m-489.45 229.53h-2.2577v4.4914h-2.0255v-11.657h4.099q2.0175 0 3.1143 0.90467 1.0968 0.90468 1.0968 2.618 0 1.1689-0.56842 1.9615-0.56042 0.78458-1.5692 1.2089l2.618 4.8596v0.10408h-2.1696zm-2.2577-1.6252h2.0816q1.0248 0 1.6012-0.51238 0.57643-0.52039 0.57643-1.4171 0-0.9367-0.5364-1.4491-0.52839-0.51238-1.5852-0.52839h-2.1376z"/>
    <path style="font-variant-ligatures:normal;font-variant-numeric:normal;font-variant-caps:normal;font-feature-settings:normal" d="m-478.43 233.17q-0.85664 1.0088-2.4338 1.0088-1.409 0-2.1376-0.82462-0.72053-0.82461-0.72053-2.3858v-5.6122h1.9454v5.5882q0 1.6492 1.369 1.6492 1.417 0 1.9134-1.0168v-6.2206h1.9454v8.6625h-1.8334z"/>
    <path style="font-variant-ligatures:normal;font-variant-numeric:normal;font-variant-caps:normal;font-feature-settings:normal" d="m-472.48 234.02h-1.9454v-12.297h1.9454z"/>
    <path style="font-variant-ligatures:normal;font-variant-numeric:normal;font-variant-caps:normal;font-feature-settings:normal" d="m-466.54 234.18q-1.8494 0-3.0022-1.1609-1.1448-1.1689-1.1448-3.1063v-0.24018q0-1.297 0.49637-2.3137 0.50437-1.0248 1.409-1.5932 0.90467-0.56843 2.0175-0.56843 1.7693 0 2.73 1.1288 0.96872 1.1288 0.96872 3.1944v0.78458h-5.6602q0.0881 1.0728 0.71253 1.6973 0.63247 0.62446 1.5852 0.62446 1.337 0 2.1776-1.0808l1.0488 1.0007q-0.52039 0.77658-1.393 1.2089-0.86465 0.42432-1.9454 0.42432zm-0.23218-7.4215q-0.80059 0-1.297 0.56041-0.48837 0.56042-0.62447 1.5612h3.7068v-0.14411q-0.0641-0.97673-0.52039-1.4731-0.45634-0.50437-1.265-0.50437z"/>
    <path style="font-variant-ligatures:normal;font-variant-numeric:normal;font-variant-caps:normal;font-feature-settings:normal" d="m-450.45 228.82h-4.7876v3.5867h5.5962v1.6172h-7.6217v-11.657h7.5656v1.6332h-5.5401v3.2184h4.7876z"/>
    <path style="font-variant-ligatures:normal;font-variant-numeric:normal;font-variant-caps:normal;font-feature-settings:normal" d="m-446.35 225.36 0.056 1.0008q0.96072-1.1609 2.5219-1.1609 2.706 0 2.7541 3.0983v5.7243h-1.9454v-5.6122q0-0.82462-0.36027-1.2169-0.35227-0.4003-1.1609-0.4003-1.1769 0-1.7533 1.0648v6.1646h-1.9454v-8.6625z"/>
    <path style="font-variant-ligatures:normal;font-variant-numeric:normal;font-variant-caps:normal;font-feature-settings:normal" d="m-439.37 229.63q0-2.0175 0.94471-3.2184 0.95271-1.2089 2.5219-1.2089 1.4811 0 2.3297 1.0328l0.0881-0.87265h1.7533v8.3983q0 1.7053-1.0648 2.69-1.0568 0.98473-2.8581 0.98473-0.95271 0-1.8654-0.40029-0.90467-0.3923-1.377-1.0328l0.92068-1.1689q0.89667 1.0648 2.2096 1.0648 0.96872 0 1.5291-0.5284 0.56042-0.52038 0.56042-1.5371v-0.58444q-0.84063 0.9367-2.2417 0.9367-1.5211 0-2.4899-1.2089-0.96072-1.2089-0.96072-3.3465zm1.9374 0.16813q0 1.305 0.52839 2.0575 0.5364 0.74456 1.4811 0.74456 1.1769 0 1.7453-1.0088v-3.8108q-0.55241-0.98473-1.7293-0.98473-0.96072 0-1.4971 0.76057-0.52839 0.76056-0.52839 2.2417z"/>
    <path style="font-variant-ligatures:normal;font-variant-numeric:normal;font-variant-caps:normal;font-feature-settings:normal" d="m-427.68 234.02h-1.9454v-8.6625h1.9454zm-2.0655-10.912q0-0.44833 0.28021-0.74455 0.28821-0.29622 0.81661-0.29622 0.52839 0 0.8166 0.29622 0.28822 0.29622 0.28822 0.74455 0 0.44033-0.28822 0.73655-0.28821 0.28822-0.8166 0.28822-0.5284 0-0.81661-0.28822-0.28021-0.29622-0.28021-0.73655z"/>
    <path style="font-variant-ligatures:normal;font-variant-numeric:normal;font-variant-caps:normal;font-feature-settings:normal" d="m-423.75 225.36 0.056 1.0008q0.96072-1.1609 2.5219-1.1609 2.706 0 2.7541 3.0983v5.7243h-1.9454v-5.6122q0-0.82462-0.36027-1.2169-0.35227-0.4003-1.1609-0.4003-1.1769 0-1.7533 1.0648v6.1646h-1.9454v-8.6625z"/>
    <path style="font-variant-ligatures:normal;font-variant-numeric:normal;font-variant-caps:normal;font-feature-settings:normal" d="m-412.61 234.18q-1.8494 0-3.0022-1.1609-1.1449-1.1689-1.1449-3.1063v-0.24018q0-1.297 0.49637-2.3137 0.50438-1.0248 1.4091-1.5932 0.90467-0.56843 2.0175-0.56843 1.7693 0 2.73 1.1288 0.96872 1.1288 0.96872 3.1944v0.78458h-5.6602q0.0881 1.0728 0.71253 1.6973 0.63247 0.62446 1.5852 0.62446 1.337 0 2.1776-1.0808l1.0488 1.0007q-0.52039 0.77658-1.393 1.2089-0.86465 0.42432-1.9454 0.42432zm-0.23218-7.4215q-0.80059 0-1.297 0.56041-0.48837 0.56042-0.62447 1.5612h3.7068v-0.14411q-0.064-0.97673-0.52038-1.4731-0.45634-0.50437-1.265-0.50437z"/>
   </g>
   <g transform="matrix(.81135 0 0 .81135 -2231.6 -346.1)">
    <g fill-rule="evenodd" transform="matrix(.97318 -1.2702 1.2702 .97318 -1152.1 594.01)" clip-rule="evenodd" fill="#237de0">
     <path d="m363.34 833.96c1.6957 0.36941 3.8357-2.9495 2.9776-4.2854-0.28078-0.43886-0.42149-0.92847-0.43076-1.4141 0.91589-0.99503 2.8621-2.1052 3.8572-2.5322 0.45803 0.20996 0.8627 0.54821 1.155 1.0035 0.93562 1.458 4.7543 0.81995 5.1349-0.92501 0.11881-0.54527 0.48638-1.0913 0.76615-1.3768 0.95979-0.00083 3.0259 0.39787 4.4258 0.95493 0.17933 0.35712 0.24744 1.032 0.12672 1.5803-0.40182 1.8456 2.9168 3.8563 4.3141 2.9593 0.46665-0.2999 1.1255-0.46344 1.5066-0.43241 0.72718 0.70605 2.04 2.7585 2.4742 3.7763-0.28144 0.41708-0.55777 0.92771-1.0396 1.2367-1.3968 0.89757-0.86622 4.7699 0.9287 5.1612 0.59041 0.12892 1.1144 0.44934 1.4642 0.86128-0.0522 0.99901-0.60101 3.4216-0.99349 4.3106-0.22593 0.18113-1.0626 0.27217-1.6303 0.14824-2.4433-0.53217-4.0844 2.6069-2.9925 4.3071 0.30832 0.48046 0.50284 1.0269 0.43021 1.5521-0.69255 0.70104-2.6906 1.997-3.7743 2.4303-0.47093-0.17709-0.92799-0.55723-1.2371-1.0394-0.97473-1.5191-4.726-1.0652-5.1609 0.92952-0.11338 0.51901-0.42849 0.96401-0.74944 1.3942-1.2742-0.0952-3.4871-0.44591-4.5187-1.0113-0.17766-0.48873-0.16174-1.0337-0.0509-1.5412 0.38053-1.746-2.7597-3.9861-4.278-3.011-0.42426 0.27277-0.928 0.47952-1.4014 0.49982-0.93531-0.87967-2.3071-2.9541-2.6105-3.9706 0.23037-0.50933 0.63103-0.82739 1.0711-1.1106 1.6403-1.0524 0.97092-4.7227-0.9238-5.1353-0.51861-0.1135-0.99378-0.41073-1.3581-0.73085 0.10629-1.1032 0.34297-3.0499 0.9398-4.462 0.58126-0.22927 1.0294-0.2464 1.5775-0.12715zm4.5488 3.6302c-0.94174 4.3184 1.7959 8.581 6.1138 9.5222 4.3177 0.94039 8.5808-1.798 9.5221-6.1162 0.94133-4.3182-1.7961-8.5811-6.1137-9.5218-4.3178-0.94079-8.5809 1.797-9.5222 6.1158z"/>
     <path d="m370.63 810.63c0.80729 0.40719 2.319-0.98843 2.0601-1.7741-0.0845-0.25795-0.0917-0.52326-0.0332-0.76946 0.5916-0.38269 1.7179-0.68931 2.2756-0.77511 0.20371 0.16557 0.36382 0.38889 0.45196 0.65661 0.28212 0.85735 2.2916 1.0327 2.7108 0.20203 0.13097-0.25958 0.38746-0.48717 0.56577-0.59476 0.48429 0.12457 1.4747 0.59475 2.1083 1.058 0.044 0.20351-0.01 0.55282-0.14186 0.81371-0.44301 0.8787 0.96927 2.3252 1.7909 2.0546 0.27446-0.0905 0.62813-0.0872 0.81631-0.022 0.2749 0.45087 0.66993 1.6572 0.75642 2.2272-0.19629 0.17375-0.40218 0.39537-0.68547 0.48849-0.82153 0.2709-1.0581 2.2935-0.20358 2.7246 0.281 0.14202 0.50369 0.37179 0.62648 0.62514-0.15641 0.49718-0.74874 1.6478-1.0625 2.0452-0.13756 0.062-0.5715-0.001-0.84171-0.1375-1.1633-0.58663-2.3999 0.78323-2.0705 1.7831 0.093 0.28252 0.11995 0.58351 0.0149 0.83898-0.44066 0.26346-1.6174 0.65704-2.2205 0.73453-0.2145-0.15066-0.39557-0.40194-0.48871-0.68545-0.2939-0.89325-2.2454-1.1528-2.7245-0.20313-0.12491 0.247-0.34169 0.43051-0.55961 0.60572-0.6304-0.21394-1.701-0.67903-2.1478-1.0986-0.026-0.26968 0.053-0.54252 0.17501-0.78411 0.41933-0.83125-0.87309-2.3702-1.766-2.076-0.24954 0.0824-0.53058 0.12105-0.77206 0.0696-0.35727-0.56555-0.77918-1.7906-0.79985-2.343 0.18253-0.22695 0.42608-0.33522 0.68497-0.42076 0.96451-0.31732 1.1048-2.256 0.20269-2.7109-0.24683-0.12481-0.44784-0.33661-0.58996-0.54554 0.19728-0.54269 0.57016-1.4939 1.0551-2.1285 0.32308-0.04 0.55138 0.01 0.81234 0.14127zm1.822 2.4236c-1.0374 2.0558-0.21145 4.5626 1.8442 5.5997 2.0556 1.0366 4.5628 0.21034 5.6-1.8455s0.21133-4.5628-1.8442-5.5995c-2.0557-1.0369-4.5627-0.2109-5.6 1.8452z"/>
     <path d="m347.84 818.38c1.2056 0.23226 2.6624-2.1517 2.0326-3.0818-0.20608-0.30559-0.31398-0.64947-0.32885-0.99278 0.63076-0.71942 1.9882-1.5379 2.6848-1.8569 0.32753 0.14068 0.61953 0.37297 0.83402 0.68997 0.68666 1.0152 3.3765 0.49859 3.6159-0.74207 0.0747-0.38768 0.32533-0.78014 0.51832-0.98683 0.67881-0.017 2.1469 0.22964 3.1465 0.59967 0.13295 0.24952 0.19266 0.72564 0.11665 1.1155-0.2526 1.3122 2.129 2.6776 3.1018 2.0192 0.32491-0.22009 0.7881-0.34703 1.0581-0.3316 0.5264 0.48692 1.49 1.9161 1.8145 2.6285-0.19193 0.2998-0.37863 0.66567-0.7141 0.89244-0.97257 0.65872-0.53105 3.3884 0.74513 3.6344 0.41977 0.0811 0.79589 0.29873 1.0503 0.58409-0.0198 0.70746-0.36655 2.4302-0.62891 3.0657-0.15669 0.13198-0.7469 0.21068-1.1505 0.13274-1.7372-0.33459-2.8441 1.9136-2.0428 3.0974 0.22628 0.33453 0.37321 0.71768 0.33083 1.0904-0.47783 0.50766-1.8688 1.4584-2.6278 1.7834-0.3361-0.11719-0.66587-0.37822-0.89273-0.714-0.71537-1.0577-3.3608-0.67257-3.6342 0.74571-0.0713 0.36901-0.28654 0.68914-0.50619 0.99885-0.90283-0.0455-2.4739-0.25572-3.2132-0.63794-0.13402-0.34262-0.13207-0.72833-0.0624-1.0892 0.23926-1.2414-2.02-2.772-3.0771-2.0564-0.2954 0.20018-0.64814 0.35503-0.98264 0.37748-0.67656-0.60616-1.6823-2.0498-1.9142-2.7636 0.15416-0.36419 0.43215-0.59597 0.73858-0.80378 1.1421-0.7724 0.60591-3.3568-0.74121-3.6162-0.36874-0.0714-0.7099-0.27349-0.97307-0.49365 0.0563-0.78208 0.1904-2.1629 0.58836-3.1718 0.40718-0.1721 0.72384-0.19189 1.1135-0.11693zm3.2793 2.4897c-0.59218 3.0703 1.4169 6.0383 4.487 6.6301 3.0698 0.59125 6.0381-1.4185 6.63-4.4887 0.59191-3.0702-1.4171-6.0384-4.4869-6.6298-3.0699-0.59153-6.0382 1.4177-6.6301 4.4884z"/>
    </g>
    <path stroke-linejoin="round" d="m323.43 949.36 0.01-42.659v0" stroke="#305680" stroke-linecap="round" stroke-width="8.4145" fill="none"/>
    <g fill="#237de0" transform="matrix(.10005 .033696 -.033696 .10005 345 899.17)">
     <path d="m362.3 125.06c-2.851-2.853-6.092-4.28-9.706-4.287-0.77 0-1.902 0.193-3.432 0.572l-113.06 27.98 48.82-132.19c0.951-1.903 1.431-3.614 1.431-5.139 0-3.234-1.242-6.04-3.713-8.42-2.48-2.383-5.52-3.571-9.14-3.571h-93.645c-3.045 0-5.708 0.855-7.994 2.568-2.284 1.715-3.809 3.905-4.568 6.567l-57.386 235.55c-0.953 4.564 0.284 8.277 3.711 11.135 2.473 2.099 5.421 3.139 8.848 3.139 1.524 0 2.666-0.089 3.427-0.281l115.91-28.838-56.244 230.69c-0.76 3.045-0.333 5.899 1.287 8.562 1.619 2.669 4.047 4.476 7.281 5.427 1.903 0.377 3.239 0.568 3.999 0.568 5.52 0 9.514-2.375 11.991-7.136l154.16-330.32c2.095-4.567 1.434-8.756-1.998-12.561z" fill="#237de0"/>
    </g>
   </g>
  </g>
 </g>
</svg>
