<?xml version="1.0" encoding="UTF-8" standalone="no"?>
<!-- Created with Inkscape (http://www.inkscape.org/) -->

<svg
   xmlns:dc="http://purl.org/dc/elements/1.1/"
   xmlns:cc="http://creativecommons.org/ns#"
   xmlns:rdf="http://www.w3.org/1999/02/22-rdf-syntax-ns#"
   xmlns:svg="http://www.w3.org/2000/svg"
   xmlns="http://www.w3.org/2000/svg"
   xmlns:sodipodi="http://sodipodi.sourceforge.net/DTD/sodipodi-0.dtd"
   xmlns:inkscape="http://www.inkscape.org/namespaces/inkscape"
   width="260mm"
   height="90mm"
   viewBox="30 0 260 110"
   version="1.1"
   id="svg8"
   inkscape:version="0.92.3 (2405546, 2018-03-11)"
   sodipodi:docname="tcp-integration.svg">
  <defs
     id="defs2" />
  <sodipodi:namedview
     id="base"
     pagecolor="#ffffff"
     bordercolor="#666666"
     borderopacity="1.0"
     inkscape:pageopacity="0.0"
     inkscape:pageshadow="2"
     inkscape:zoom="0.7"
     inkscape:cx="608.90813"
     inkscape:cy="585.7916"
     inkscape:document-units="mm"
     inkscape:current-layer="g4612"
     showgrid="false"
     inkscape:snap-text-baseline="true"
     inkscape:window-width="1853"
     inkscape:window-height="1025"
     inkscape:window-x="67"
     inkscape:window-y="27"
     inkscape:window-maximized="1"
     showguides="false" />
  <metadata
     id="metadata5">
    <rdf:RDF>
      <cc:Work
         rdf:about="">
        <dc:format>image/svg+xml</dc:format>
        <dc:type
           rdf:resource="http://purl.org/dc/dcmitype/StillImage" />
        <dc:title />
      </cc:Work>
    </rdf:RDF>
  </metadata>
  <g
     inkscape:label="Layer 1"
     inkscape:groupmode="layer"
     id="layer1"
     transform="translate(0,-87)">
    <g
       id="g4612"
       transform="matrix(0.40432365,0,0,0.38930579,1101.9272,56.014608)">
      <flowRoot
         id="flowRoot4202"
         line-height="0.01%"
         transform="matrix(0.7465395,0,0,0.76019968,-2600.0169,58.798901)"
         xml:space="preserve"
         style="line-height:0.01%;font-family:sans-serif;letter-spacing:0px;word-spacing:0px;fill:#000000"><flowRegion
           id="flowRegion4198"><rect
             id="rect4196"
             height="128"
             width="244"
             x="817"
             y="247.59" /></flowRegion><flowPara
           id="flowPara4200"
           line-height="1.25"
           font-size="40px"
           style="font-size:40px;line-height:1.25"> </flowPara></flowRoot>      <g
         id="g4236"
         transform="matrix(0.7821404,0,0,0.79645201,-1721.0079,56.972537)"
         style="fill:#305680">
        <g
           id="g4210"
           transform="matrix(0.096863,0,0,0.096863,-562.95,-20.348)">
          <path
             id="path4204"
             d="m 151.13,732.36 c -28.363,0 -54.915,7.9153 -77.613,21.537 -6.4723,-5.2623 -14.605,-8.1915 -23.067,-8.1937 a 8.7661,8.7661 0 0 0 -0.0035,0 c -20.154,7.3e-4 -36.679,16.528 -36.678,36.682 a 8.7661,8.7661 0 0 0 0,0.0106 c 0.0099,8.4147 2.9267,16.483 8.1033,22.927 -13.83,22.83 -21.87,49.58 -21.87,78.17 a 8.7661,8.7661 0 1 0 17.531,0 c 0,-24.702 6.7193,-47.748 18.378,-67.574 4.5663,1.9846 9.4727,3.1496 14.519,3.1573 a 8.7661,8.7661 0 0 0 0.01241,0 c 20.155,6.2e-4 36.683,-16.527 36.682,-36.682 a 8.7661,8.7661 0 0 0 0,-0.004 c -0.0016,-4.9994 -1.1387,-9.8628 -3.0828,-14.397 19.717,-11.484 42.585,-18.095 67.085,-18.095 a 8.7661,8.7661 0 1 0 0,-17.531 z M 50.44,763.24 c 5.9129,0.002 11.191,2.5121 14.836,7.0769 a 8.7661,8.7661 0 0 0 0.1826,0.21451 c 2.6715,3.3798 4.1326,7.5531 4.1341,11.863 -0.0015,10.677 -8.468,19.144 -19.144,19.148 -4.37,-0.008 -8.6011,-1.5088 -12,-4.2546 a 8.7661,8.7661 0 0 0 -0.01241,-0.009 c -4.514,-3.6331 -7.1358,-9.0979 -7.1442,-14.893 0.0025,-10.677 8.4701,-19.144 19.148,-19.146 z"
             style="color:#000000;text-indent:0;text-decoration:none;text-decoration-line:none;text-decoration-style:solid;text-decoration-color:#000000;text-transform:none;white-space:normal;isolation:auto;mix-blend-mode:normal;solid-color:#000000;color-rendering:auto;image-rendering:auto;shape-rendering:auto"
             inkscape:connector-curvature="0" />
          <path
             id="path4206"
             d="m 66.992,835.19 c -1.492,1.5583 -2.3663,3.7103 -2.2576,6.0713 0.0962,2.0447 0.91322,4.0204 2.3372,5.5177 6.8051,6.8559 20.223,20.223 20.223,20.223 l 11.844,-11.83 c 0,0 -12.973,-12.961 -20.176,-20.171 -1.604,-1.6325 -3.7498,-2.3141 -6.012,-2.3243 -2.3583,-0.0112 -4.4673,0.95389 -5.9592,2.5122 z M 99.139,855.173 62.5,891.812 c -3.9751,3.976 -3.9751,10.421 0,14.397 l 18.156,18.156 31.753,31.753 30.478,30.478 c 3.9758,3.9759 10.422,3.9763 14.398,0 l 24.791,-24.791 37.914,-37.914 36.639,-36.639 c 3.9754,-3.9764 3.975,-10.422 -6.7e-4,-14.398 l -18.63,-18.63 -31.75,-31.76 -30.01,-30 c -3.976,-3.9751 -10.421,-3.9751 -14.397,0 l -24.79,24.79 z m 37.911,-37.91 c 0,0 -12.973,-12.961 -20.176,-20.171 -1.604,-1.6325 -3.7498,-2.3141 -6.012,-2.3243 -4.7166,-0.0226 -8.4341,3.8616 -8.2169,8.5834 0.0962,2.0447 0.91322,4.0204 2.3372,5.5177 6.8051,6.8559 20.223,20.223 20.223,20.223 z m 69.193,5.2132 c 0,0 12.961,-12.973 20.171,-20.176 1.6325,-1.604 2.3141,-3.7498 2.3243,-6.012 0.0225,-4.7166 -3.8616,-8.4341 -8.5834,-8.2169 -2.0447,0.0962 -4.0204,0.91322 -5.5177,2.3372 -6.8559,6.8051 -20.223,20.223 -20.223,20.223 z m 31.753,31.753 c 0,0 12.961,-12.973 20.171,-20.176 1.6325,-1.604 2.314,-3.7498 2.3243,-6.012 0.0225,-4.7166 -3.8616,-8.4341 -8.5834,-8.2169 -2.0447,0.0962 -4.0204,0.91323 -5.5177,2.3372 -6.8559,6.8051 -20.223,20.223 -20.223,20.223 z m -18.009,69.667 c 0,0 12.973,12.961 20.178,20.169 1.604,1.6324 3.7498,2.314 6.012,2.3243 4.7166,0.0225 8.4342,-3.8615 8.2169,-8.5834 l -0.002,0.002 c -0.0962,-2.0447 -0.91415,-4.0214 -2.3382,-5.5186 -6.8051,-6.8559 -20.222,-20.222 -20.222,-20.222 l -11.844,11.83 z m -37.914,37.914 c 0,0 12.973,12.961 20.178,20.169 1.604,1.6324 3.7498,2.314 6.012,2.3242 4.7166,0.023 8.4342,-3.8615 8.2169,-8.5834 h -0.002 c -0.0962,-2.0447 -0.91323,-4.0205 -2.3372,-5.5177 -6.8051,-6.8559 -20.223,-20.223 -20.223,-20.223 l -11.844,11.83 z m -69.667,-5.6871 c 0,0 -12.961,12.973 -20.169,20.178 -1.6324,1.604 -2.314,3.7498 -2.3243,6.012 -0.02251,4.7166 3.8615,8.4342 8.5834,8.2169 h -0.0019 c 2.0447,-0.096 4.0204,-0.9132 5.5177,-2.3373 6.8561,-6.8048 20.223,-20.223 20.223,-20.223 z m -31.743,-31.74 c 0,0 -12.961,12.973 -20.169,20.178 -1.6324,1.604 -2.314,3.7498 -2.3243,6.012 -0.02251,4.7167 3.8615,8.4342 8.5834,8.2169 h -0.0019 c 2.0447,-0.0962 4.0204,-0.91322 5.5177,-2.3372 6.8561,-6.8047 20.223,-20.223 20.223,-20.223 z m 87.237,-90.554 c 1.6794,-1.7064 3.9669,-2.6599 6.2971,-2.626 1.6628,0.0237 3.253,0.55012 4.5625,1.5097 l 16.499,12.1 c 3.2009,2.297 4.1445,6.6589 2.2308,10.312 -1.9137,3.6528 -6.1234,5.5243 -9.9506,4.4227 l 6.124,23.948 c 1.1128,4.3517 -1.564,8.9677 -5.9833,10.317 l -44.642,13.631 8.2456,31.883 c 1.1728,4.3696 -1.5017,9.0445 -5.9546,10.407 -4.4529,1.3625 -8.9756,-1.1106 -10.068,-5.5047 l -10.282,-39.769 c -1.1265,-4.3556 1.5493,-8.9847 5.9759,-10.338 l 44.661,-13.637 -4.1219,-16.118 c -2.7634,3.0643 -7.2335,3.8084 -10.586,1.7615 -3.3531,-2.0469 -4.6144,-6.2896 -2.9861,-10.047 l 8.1169,-19.454 c 0.43322,-1.0376 1.0673,-1.9888 1.8624,-2.7973 z"
             style="color:#000000;text-indent:0;text-decoration:none;text-decoration-line:none;text-decoration-style:solid;text-decoration-color:#000000;text-transform:none;white-space:normal;isolation:auto;mix-blend-mode:normal;solid-color:#000000;fill-rule:evenodd;color-rendering:auto;image-rendering:auto;shape-rendering:auto"
             inkscape:connector-curvature="0" />
          <path
             id="path4208"
             d="m 168.87,1052.4 c 28.363,0 54.915,-7.9155 77.614,-21.538 6.4724,5.2624 14.605,8.1917 23.067,8.1939 a 8.7662,8.7662 0 0 0 0.004,0 c 20.155,-7e-4 36.68,-16.528 36.679,-36.682 a 8.7662,8.7662 0 0 0 0,-0.011 c -0.01,-8.4149 -2.9267,-16.484 -8.1034,-22.927 13.825,-22.82 21.866,-49.572 21.866,-78.162 a 8.7662,8.7662 0 1 0 -17.531,0 c 0,24.703 -6.7194,47.749 -18.378,67.575 -4.5664,-1.9846 -9.4728,-3.1496 -14.519,-3.1573 a 8.7662,8.7662 0 0 0 -0.0124,0 c -20.155,-6.2e-4 -36.683,16.527 -36.682,36.682 0.002,4.9994 1.1387,9.8628 3.0829,14.397 -19.717,11.484 -42.586,18.095 -67.086,18.095 a 8.7662,8.7662 0 1 0 0,17.531 z m 100.69,-30.875 c -5.913,0 -11.191,-2.5122 -14.836,-7.0769 a 8.7662,8.7662 0 0 0 -0.18261,-0.2146 c -2.6715,-3.3799 -4.1327,-7.5531 -4.1341,-11.863 0.002,-10.677 8.4681,-19.144 19.144,-19.148 4.37,0.008 8.6012,1.5088 12,4.2547 a 8.7662,8.7662 0 0 0 0.0124,0.009 c 4.5141,3.6332 7.1359,9.098 7.1443,14.893 -0.003,10.677 -8.4702,19.145 -19.148,19.146 z"
             style="color:#000000;text-indent:0;text-decoration:none;text-decoration-line:none;text-decoration-style:solid;text-decoration-color:#000000;text-transform:none;white-space:normal;isolation:auto;mix-blend-mode:normal;solid-color:#000000;color-rendering:auto;image-rendering:auto;shape-rendering:auto"
             inkscape:connector-curvature="0" />
        </g>
        <g
           id="g4234"
           aria-label="ThingsBoard">
          <path
             id="path4212"
             d="m -511.19,58.005 h -5.1416 v 14.26 h -2.0984 v -14.26 h -5.1306 v -1.7358 h 12.371 z"
             inkscape:connector-curvature="0" />
          <path
             id="path4214"
             d="m -507.08,61.817 q 1.3513,-1.6589 3.5156,-1.6589 3.7683,0 3.8013,4.2517 v 7.855 h -2.0325 v -7.8662 q -0.011,-1.2854 -0.59326,-1.9006 -0.57129,-0.61524 -1.7908,-0.61524 -0.98877,0 -1.7358,0.52734 -0.74707,0.52734 -1.1646,1.3843 v 8.47 h -2.0325 v -16.875 h 2.0325 z"
             inkscape:connector-curvature="0" />
          <path
             id="path4216"
             d="m -494.51,72.265 h -2.0325 V 60.378 h 2.0325 z m -2.1973,-15.04 q 0,-0.49438 0.29663,-0.83496 0.30762,-0.34058 0.90088,-0.34058 0.59326,0 0.90088,0.34058 0.30762,0.34058 0.30762,0.83496 0,0.49438 -0.30762,0.82398 -0.30762,0.32959 -0.90088,0.32959 -0.59326,0 -0.90088,-0.32959 -0.29663,-0.32959 -0.29663,-0.82398 z"
             inkscape:connector-curvature="0" />
          <path
             id="path4218"
             d="m -489.34,60.378 0.0659,1.4941 q 1.3623,-1.7139 3.5596,-1.7139 3.7683,0 3.8013,4.2517 v 7.855 h -2.0325 v -7.8662 q -0.011,-1.2854 -0.59326,-1.9006 -0.57129,-0.61524 -1.7908,-0.61524 -0.98877,0 -1.7358,0.52734 -0.74707,0.52734 -1.1646,1.3843 v 8.47 h -2.0325 v -11.887 z"
             inkscape:connector-curvature="0" />
          <path
             id="path4220"
             d="m -479.31,66.222 q 0,-2.7795 1.2854,-4.4165 1.2854,-1.6479 3.4058,-1.6479 2.1753,0 3.3948,1.5381 l 0.0989,-1.3184 h 1.8567 v 11.602 q 0,2.3071 -1.3733,3.6365 -1.3623,1.3293 -3.6694,1.3293 -1.2854,0 -2.5159,-0.54932 -1.2305,-0.54932 -1.8787,-1.5051 l 1.0547,-1.2195 q 1.3074,1.615 3.197,1.615 1.4832,0 2.3071,-0.83496 0.83496,-0.83496 0.83496,-2.3511 v -1.0217 q -1.2195,1.4062 -3.3288,1.4062 -2.0874,0 -3.3838,-1.6809 -1.2854,-1.6809 -1.2854,-4.5813 z m 2.0434,0.23071 q 0,2.0105 0.82398,3.1641 0.82397,1.1426 2.3071,1.1426 1.9226,0 2.8235,-1.7468 v -5.4272 q -0.93383,-1.7029 -2.8015,-1.7029 -1.4832,0 -2.3181,1.1536 -0.83497,1.1536 -0.83497,3.4167 z"
             inkscape:connector-curvature="0" />
          <path
             id="path4222"
             d="m -459.3,69.112 q 0,-0.82398 -0.62622,-1.2744 -0.61524,-0.46143 -2.1643,-0.79102 -1.5381,-0.32959 -2.45,-0.79102 -0.90088,-0.46143 -1.3403,-1.0986 -0.42847,-0.63721 -0.42847,-1.5161 0,-1.4612 1.2305,-2.4719 1.2414,-1.0107 3.1641,-1.0107 2.0215,0 3.2739,1.0437 1.2634,1.0437 1.2634,2.6697 h -2.0435 q 0,-0.83496 -0.71411,-1.4392 -0.70313,-0.60425 -1.7798,-0.60425 -1.1096,0 -1.7358,0.4834 -0.62622,0.4834 -0.62622,1.2634 0,0.73608 0.58228,1.1096 0.58227,0.37354 2.0984,0.71411 1.5271,0.34058 2.4719,0.81299 0.94482,0.47241 1.3953,1.1426 0.46143,0.65918 0.46143,1.615 0,1.593 -1.2744,2.5598 -1.2744,0.95581 -3.3069,0.95581 -1.4282,0 -2.5269,-0.50537 -1.0986,-0.50537 -1.7248,-1.4062 -0.61523,-0.91187 -0.61523,-1.9666 h 2.0325 q 0.0549,1.0217 0.81299,1.626 0.76904,0.59326 2.0215,0.59326 1.1536,0 1.8457,-0.46143 0.70313,-0.47241 0.70313,-1.2524 z"
             inkscape:connector-curvature="0" />
          <path
             id="path4224"
             d="M -454.3,72.265 V 56.269 h 5.2295 q 2.6038,0 3.9111,1.0767 1.3184,1.0767 1.3184,3.186 0,1.1206 -0.63721,1.9885 -0.6372,0.85693 -1.7358,1.3293 1.2964,0.36255 2.0435,1.3843 0.75806,1.0107 0.75806,2.417 0,2.1533 -1.3953,3.3838 -1.3953,1.2305 -3.9441,1.2305 z m 2.1094,-7.4817 v 5.7568 h 3.4827 q 1.4722,0 2.3181,-0.75806 0.85694,-0.76904 0.85694,-2.1094 0,-2.8894 -3.1421,-2.8894 z m 0,-1.6919 h 3.186 q 1.3843,0 2.2082,-0.69214 0.83496,-0.69214 0.83496,-1.8787 0,-1.3184 -0.76904,-1.9116 -0.76905,-0.60425 -2.3401,-0.60425 h -3.1201 z"
             inkscape:connector-curvature="0" />
          <path
             id="path4226"
             d="m -441.14,66.211 q 0,-1.7468 0.68115,-3.1421 0.69214,-1.3953 1.9116,-2.1533 1.2305,-0.75806 2.8015,-0.75806 2.428,0 3.9221,1.6809 1.5051,1.6809 1.5051,4.4714 v 0.14282 q 0,1.7358 -0.67016,3.1201 -0.65918,1.3733 -1.9006,2.1423 -1.2305,0.76904 -2.8345,0.76904 -2.417,0 -3.9221,-1.6809 -1.4941,-1.6809 -1.4941,-4.4495 z m 2.0435,0.2417 q 0,1.9775 0.91186,3.175 0.92285,1.1975 2.4609,1.1975 1.5491,0 2.4609,-1.2085 0.91186,-1.2195 0.91186,-3.4058 0,-1.9556 -0.93384,-3.1641 -0.92285,-1.2195 -2.4609,-1.2195 -1.5051,0 -2.428,1.1975 -0.92285,1.1975 -0.92285,3.4277 z"
             inkscape:connector-curvature="0" />
          <path
             id="path4228"
             d="m -420.43,72.265 q -0.17578,-0.35156 -0.28565,-1.2524 -1.4172,1.4722 -3.3838,1.4722 -1.7578,0 -2.8894,-0.98877 -1.1206,-0.99976 -1.1206,-2.5269 0,-1.8567 1.4062,-2.8784 1.4172,-1.0327 3.977,-1.0327 h 1.9775 v -0.93384 q 0,-1.0657 -0.6372,-1.6919 -0.63721,-0.63721 -1.8787,-0.63721 -1.0876,0 -1.8237,0.54932 -0.73608,0.54932 -0.73608,1.3293 h -2.0435 q 0,-0.88989 0.62622,-1.7139 0.63721,-0.83496 1.7139,-1.3184 1.0876,-0.4834 2.384,-0.4834 2.0544,0 3.219,1.0327 1.1646,1.0217 1.2085,2.8235 v 5.4712 q 0,1.637 0.41748,2.6038 v 0.176 z m -3.3728,-1.5491 q 0.95581,0 1.8128,-0.49438 0.85693,-0.49438 1.2414,-1.2854 v -2.439 h -1.593 q -3.7354,0 -3.7354,2.1863 0,0.95581 0.63721,1.4941 0.63721,0.53833 1.637,0.53833 z"
             inkscape:connector-curvature="0" />
          <path
             id="path4230"
             d="m -409.76,62.201 q -0.46142,-0.07691 -0.99975,-0.07691 -1.9995,0 -2.7136,1.7029 v 8.4375 h -2.0325 v -11.886 h 1.9775 l 0.033,1.3733 q 0.99976,-1.593 2.8345,-1.593 0.59326,0 0.90088,0.15381 z"
             inkscape:connector-curvature="0" />
          <path
             id="path4232"
             d="m -408.4,66.222 q 0,-2.7356 1.2964,-4.3945 1.2964,-1.6699 3.3948,-1.6699 2.0874,0 3.3069,1.4282 v -6.196 h 2.0325 v 16.875 h -1.8677 l -0.0989,-1.2744 q -1.2195,1.4941 -3.3948,1.4941 -2.0654,0 -3.3728,-1.6919 -1.2964,-1.6919 -1.2964,-4.4165 z m 2.0325,0.23071 q 0,2.0215 0.83496,3.1641 0.83496,1.1426 2.3071,1.1426 1.9336,0 2.8235,-1.7358 v -5.4602 q -0.91186,-1.6809 -2.8015,-1.6809 -1.4941,0 -2.3291,1.1536 -0.83496,1.1536 -0.83496,3.4167 z"
             inkscape:connector-curvature="0" />
        </g>
      </g>
      <rect
         id="rect4238"
         x="-2168.9578"
         y="88.95153"
         width="171.89258"
         height="247.67552"
         style="fill:none;stroke:#305680;stroke-width:3.85986662;stroke-linecap:round;stroke-linejoin:round" />
      <g
         id="g4316"
         transform="matrix(0.79563549,0,0,0.81019404,-1298.5682,82.834126)">
        <g
           id="g4272"
           transform="matrix(1.2195,0,0,1.2195,-1762.3,-944.14)">
          <g
             id="g4252"
             transform="matrix(0.32105,0,0,0.32105,533.31,749.25)">
            <g
               id="g4248"
               transform="translate(572,260)"
               style="fill:#305680">
              <path
                 id="path4240"
                 d="m -333.96,113.84 v 12.615 c 0,0.76745 0.62355,1.407 1.407,1.407 h 9.753 c 0.76745,0 1.407,-0.62356 1.407,-1.407 v -22.192 l -7.0829,7.0829 c -1.5029,1.4869 -3.4216,2.3503 -5.4841,2.4942 z"
                 inkscape:connector-curvature="0" />
              <path
                 id="path4242"
                 d="m -316.54,104.11 v 22.352 c 0,0.76745 0.62355,1.407 1.407,1.407 h 9.753 c 0.76746,0 1.407,-0.62356 1.407,-1.407 v -13.159 c -2.2224,-0.048 -4.3009,-0.92734 -5.8678,-2.4942 z"
                 inkscape:connector-curvature="0" />
              <path
                 id="path4244"
                 d="m -299.11,111.91 v 14.55 c 0,0.76745 0.62355,1.407 1.407,1.407 h 9.753 c 0.76745,0 1.407,-0.62356 1.407,-1.407 V 99.615 l -11.176,11.176 c -0.43169,0.43169 -0.89536,0.79943 -1.391,1.1192 z"
                 inkscape:connector-curvature="0" />
              <path
                 id="path4246"
                 d="m -270.06,83.114 -11.624,11.624 v 31.721 c 0,0.76745 0.62356,1.407 1.407,1.407 h 9.753 c 0.76745,0 1.407,-0.62356 1.407,-1.407 V 83.993 c -0.31977,-0.2718 -0.5596,-0.51163 -0.73547,-0.67152 z"
                 inkscape:connector-curvature="0" />
            </g>
            <path
               id="path4250"
               d="m 309.92,322.52 c -0.46367,-0.49565 -1.1672,-0.75147 -2.0625,-0.75147 h -0.25582 c -4.5408,0.20786 -9.0655,0.4317 -13.606,0.63955 -0.60757,0.032 -1.439,0.064 -2.0945,0.71948 -0.20785,0.20786 -0.36773,0.44768 -0.49564,0.73548 -0.67152,1.455 0.2718,2.3983 0.71948,2.846 l 1.1352,1.1512 c 0.78344,0.79943 1.5829,1.5989 2.3823,2.3823 l -27.436,27.452 -12.327,-12.327 c -0.73547,-0.73547 -1.7268,-1.1512 -2.782,-1.1512 -1.0552,0 -2.0306,0.4157 -2.766,1.1512 l -16.42,16.404 c -1.5349,1.5349 -1.5349,4.0131 0,5.548 l 0.73547,0.73547 c 0.73548,0.73548 1.7268,1.1512 2.782,1.1512 1.0552,0 2.0306,-0.4157 2.766,-1.1512 l 12.903,-12.903 12.327,12.327 c 0.73548,0.73548 1.7268,1.1512 2.782,1.1512 1.0552,0 2.0306,-0.4157 2.782,-1.1512 l 30.954,-30.954 3.5015,3.4855 c 0.4157,0.4157 0.99129,0.99129 1.8707,0.99129 0.36774,0 0.73547,-0.0959 1.1192,-0.30378 0.25582,-0.1439 0.47966,-0.30378 0.67152,-0.49565 0.68751,-0.68751 0.81542,-1.5669 0.84739,-2.2544 0.12791,-2.9419 0.27181,-5.8838 0.41571,-8.8417 l 0.20785,-4.4288 c 0.048,-0.92734 -0.15989,-1.6468 -0.65553,-2.1585 z"
               inkscape:connector-curvature="0"
               style="fill:#237de0" />
          </g>
          <g
             id="g4258"
             transform="matrix(0.3362,0,0,0.3362,499.69,745.02)">
            <path
               id="path4254"
               d="m 384.67,442.38 11.443,23.507 c 0.46533,0.95604 -0.0238,1.7382 -1.0871,1.7382 h -71.791 c -1.0633,0 -1.5525,-0.78215 -1.0871,-1.7382 l 11.443,-23.507 c 0.18203,-0.37389 0.67128,-0.6799 1.0871,-0.6799 h 9.8119 c 0.30237,0 0.71075,0.18931 0.90869,0.41797 0.66569,0.76928 1.3438,1.5208 2.0199,2.2647 0.64214,0.70613 1.2877,1.4215 1.9281,2.1536 h -11.644 c -0.4159,0 -0.90516,0.30589 -1.0871,0.6799 l -7.5806,15.573 h 60.191 l -7.58,-15.573 c -0.18191,-0.37401 -0.67116,-0.6799 -1.0872,-0.6799 h -11.671 c 0.64031,-0.73212 1.2861,-1.4475 1.9282,-2.1536 0.67821,-0.74608 1.3601,-1.4962 2.0273,-2.2657 0.19769,-0.22805 0.60522,-0.417 0.90711,-0.417 h 9.8326 c 0.41567,0 0.9048,0.30577 1.0868,0.6799 z"
               inkscape:connector-curvature="0"
               style="fill:#305680" />
            <path
               id="path4256"
               d="m 359.34,409.48 c -0.61306,-0.008 -1.2341,0.0169 -1.8613,0.0762 -9.8674,0.93273 -16.624,10.493 -14.902,20.254 1.749,9.9148 10.889,12.966 15.426,24.096 0.40875,1.0029 1.8218,1.0089 2.2305,0.006 5.029,-12.344 15.723,-14.753 15.723,-27.598 0,-9.2241 -7.4192,-16.715 -16.615,-16.834 z m -0.2207,7.9434 c 4.9104,0 8.8906,3.9804 8.8906,8.8906 0,4.9104 -3.9802,8.8906 -8.8906,8.8906 -4.9104,0 -8.8906,-3.9802 -8.8906,-8.8906 0,-4.9103 3.9802,-8.8906 8.8906,-8.8906 z"
               inkscape:connector-curvature="0"
               style="fill:#237de0" />
          </g>
          <g
             id="g4264"
             transform="matrix(0.30896,0,0,0.30896,564.55,727.74)">
            <path
               id="path4260"
               d="m 273.85,427.41 c 6.1897,0.24454 12.02,1.8791 17.193,4.6002 l -5.6034,9.7052 c -3.5149,-1.7806 -7.4368,-2.8736 -11.589,-3.1008 z m 20.002,6.2251 c 5.0687,3.2108 9.3741,7.5172 12.585,12.585 l -9.7071,5.6041 c -2.2134,-3.3772 -5.105,-6.2691 -8.4816,-8.4822 z m 14.21,15.395 c 2.7211,5.1713 4.3544,11.003 4.5999,17.192 h -11.205 c -0.22716,-4.1523 -1.3189,-8.0748 -3.0998,-11.589 z m -76.269,17.192 c 0.24486,-6.1893 1.8784,-12.021 4.5999,-17.192 l 9.7049,5.6031 c -1.7809,3.5142 -2.8733,7.4368 -3.1001,11.589 z m 6.2251,-20.002 c 3.2105,-5.0687 7.5169,-9.3735 12.585,-12.585 l 5.6038,9.7065 c -3.3772,2.213 -6.2691,5.105 -8.4825,8.4825 z m 15.394,-14.21 c 5.1716,-2.7221 11.003,-4.3553 17.193,-4.6002 v 11.205 c -4.1523,0.22749 -8.0748,1.3192 -11.589,3.1005 l -5.6031,-9.7049"
               inkscape:connector-curvature="0"
               style="fill:#237de0" />
            <path
               id="path4262"
               d="m 272.18,469.64 c 0.90237,0.36855 2.0049,-0.0438 2.3099,-0.96911 l 7.8016,-23.762 -11.081,22.421 c -0.4317,0.87417 0.0668,1.9414 0.96911,2.3104"
               inkscape:connector-curvature="0"
               style="fill:#305680;fill-rule:evenodd" />
          </g>
          <g
             id="g4270"
             transform="matrix(0.34624,0,0,0.34624,525.05,769)">
            <path
               id="path4266"
               d="m 361.97,326.49 c 13.47,0.84189 23.994,11.786 25.256,25.256 H 361.97 Z m -2.1047,-4.2094 h -2.1047 v 33.675 h 33.675 v -2.1047 c 0,-17.259 -14.312,-31.571 -31.571,-31.571 z"
               inkscape:connector-curvature="0"
               style="fill:#237de0" />
            <path
               id="path4268"
               d="m 353.55,360.16 v -33.675 c -16.417,1.2628 -29.466,14.733 -29.466,31.571 0,17.259 14.312,31.571 31.571,31.571 16.838,0 30.308,-13.049 31.571,-29.466 z"
               inkscape:connector-curvature="0"
               style="fill:#305680" />
          </g>
        </g>
        <rect
           id="rect4314"
           x="-1070.4"
           y="70.168999"
           width="163.86"
           height="96.877998"
           style="fill:none;stroke:#305680;stroke-width:5.19999981;stroke-linecap:round;stroke-linejoin:round" />
      </g>
      <path
         id="path4354"
         d="m -2240.6994,214.08403 c 0,0 44.6967,-0.14799 58.1944,-0.21928 -0.4175,0.84685 -0.8515,1.69 -1.2661,2.53864 3.8434,-1.34734 7.6812,-2.70062 11.5221,-4.05186 -3.9797,-1.12631 -7.9727,-2.23135 -11.9618,-3.34143 0.5127,0.81965 1.0458,1.6337 1.5637,2.45192 -13.4977,0.0813 -58.1943,0.21863 -58.1943,0.21863 z"
         inkscape:connector-curvature="0"
         style="fill:#305680;stroke-width:0.521411" />
      <g
         id="g4454"
         transform="matrix(0.87065076,0,0,0.88658193,-329.7515,-66.154808)">
        <rect
           id="rect4418"
           x="-2310.1001"
           y="259.35001"
           width="110.39"
           height="116.53"
           style="fill:#ffffff;stroke:#305680;stroke-width:2.10290003;stroke-linecap:round;stroke-linejoin:round" />
        <g
           id="g4452"
           transform="matrix(0.56091,0,0,0.56091,-1254.8,234.34)">
          <g
             id="g4444"
             transform="matrix(0.55159,0,0,0.55159,-1917.6,80.676)"
             style="fill:#305680">
            <g
               id="g4442"
               style="fill:#305680">
              <path
                 id="path4440"
                 d="m 373.23,68.177 -61.8,-41.6 c -3.4,-2.3 -7.9,0.1 -7.9,4.2 v 22.5 h -153.6 c -10.6,0 -19.1,8.6 -19.1,19.1 v 106.5 c 0,2.3 2.6,3.7 4.5,2.4 l 30,-20.2 c 2.3,-1.5 3.7,-4.1 3.7,-6.9 v -62.7 h 134.4 v 22.5 c 0,4.1 4.5,6.5 7.9,4.2 l 61.8,-41.6 c 3.1,-2 3.1,-6.4 0.1,-8.4 z"
                 inkscape:connector-curvature="0"
                 style="fill:#305680" />
            </g>
          </g>
          <g
             id="g4450"
             transform="matrix(0.55159,0,0,0.55159,-1917.6,80.676)"
             style="fill:#237de0">
            <g
               id="g4448"
               style="fill:#237de0">
              <path
                 id="path4446"
                 d="m 354.13,117.98 -30,20.2 c -2.3,1.5 -3.7,4.1 -3.7,6.9 v 62.6 h -134.5 v -22.5 c 0,-4.1 -4.5,-6.5 -7.9,-4.2 l -61.8,41.6 c -3,2 -3,6.4 0,8.4 l 61.8,41.6 c 3.4,2.3 7.9,-0.1 7.9,-4.2 v -22.5 h 153.5 c 10.6,0.1 19.2,-8.5 19.2,-19.1 v -106.4 c 0,-2.3 -2.6,-3.7 -4.5,-2.4 z"
                 inkscape:connector-curvature="0"
                 style="fill:#237de0" />
            </g>
          </g>
        </g>
      </g>
      <g
         id="g4566"
         transform="matrix(0.87065076,0,0,0.88658193,-306.89692,-69.06395)">
        <rect
           id="rect4500"
           x="-2532.7"
           y="261.22"
           width="110.39"
           height="116.53"
           style="fill:#ffffff;stroke:#305680;stroke-width:2.1012001;stroke-linecap:round;stroke-linejoin:round" />
        <g
           id="g4538"
           transform="matrix(0.59347,0,0,0.59347,-1144.1,230.35)">
          <g
             id="g4530"
             transform="matrix(-0.31273,0,0,-0.31273,-2167.6,243.68)"
             style="fill:#305680">
            <g
               id="g4528"
               style="fill:#305680">
              <path
                 id="path4526"
                 d="m 465.3,145.05 h -43.5 c -17.7,0 -21.8,-14.7 -12.6,-25.3 15.2,-17.2 7.1,-43 -20.2,-44.5 -27.3,1 -35.4,27.3 -20.2,44 9.1,10.1 5.1,25.3 -12.6,25.3 h -42.5 c -12.6,0 -23.3,10.1 -23.3,23.3 v 55.1 h -1 -78.4 v -21.8 c 0,-2 -2.5,-3 -4.6,-1.5 l -51.1,42 c -1.5,1.5 -1.5,4 0,5.6 l 51.1,42 c 2,1.5 4.6,0 4.6,-2 v -21.8 h 78.2 1 v 55.6 c 0,12.6 10.1,23.3 23.3,23.3 H 356 c 17.7,0 21.8,14.7 12.6,24.8 -15.2,17.2 -7.1,43 20.2,44 27.3,-1 35.4,-27.3 20.2,-44 -9.1,-10.1 -5.1,-24.8 12.6,-24.8 h 43 c 13.2,0 23.8,-10.6 23.8,-23.8 v -43.6 c -0.5,-17.2 -15.2,-21.2 -25.3,-12.1 -17.2,15.2 -43.5,7.1 -44.5,-20.2 1,-27.3 27.3,-35.4 44.5,-20.2 10.1,9.1 24.8,5.1 25.3,-12.1 v -44 c 0.1,-12.7 -10,-23.3 -23.1,-23.3 z"
                 inkscape:connector-curvature="0"
                 style="fill:#305680" />
            </g>
          </g>
          <g
             id="g4536"
             transform="matrix(-0.31273,0,0,-0.31273,-2167.6,243.68)"
             style="fill:#237de0">
            <g
               id="g4534"
               style="fill:#237de0">
              <path
                 id="path4532"
                 d="m 244.7,145.45 h -43.5 c -17.7,0 -21.8,-15.2 -12.6,-25.3 15.2,-17.2 7.1,-43.5 -20.2,-44.5 -27.3,1 -35.4,26.8 -20.2,44 9.1,10.1 5.1,25.3 -12.6,25.3 H 93.1 c -13.2,0 -23.3,10.6 -23.3,23.3 v 43.5 c 0,17.7 -15.2,21.8 -25.3,12.6 -17.2,-15.2 -43.5,-7.1 -44.5,20.2 1,27.3 27.3,35.4 44,20.2 10.1,-9.1 25.3,-5.1 25.3,12.6 v 43 c 0,13.2 10.6,23.3 23.3,23.3 h 42.5 c 17.7,0 21.8,14.7 12.6,24.8 -15.2,16.7 -7.1,43 20.2,44 27.3,-1 35.4,-26.8 20.2,-44 -9.1,-10.1 -5.1,-24.8 12.6,-24.8 h 43 c 13.2,0 23.8,-10.6 23.8,-23.8 v -32.7 h -34.4 c -0.5,13.7 -11.7,24.8 -25.3,24.8 -6.1,0 -11.6,-2 -16.2,-5.6 l -51.1,-42 c -6.1,-5.1 -9.6,-12.1 -9.6,-20.2 0,-8.1 3.5,-15.2 9.6,-20.2 l 51.6,-42 c 4.6,-3.5 10.1,-5.6 16.2,-5.6 13.7,0 24.8,11.1 25.3,24.8 H 268 v -32.4 c 0,-13.2 -10.6,-23.3 -23.3,-23.3 z"
                 inkscape:connector-curvature="0"
                 style="fill:#237de0" />
            </g>
          </g>
        </g>
        <g
           id="g4564"
           style="font-variant-ligatures:normal;font-variant-caps:normal;font-variant-numeric:normal;font-feature-settings:normal;fill:#237de0;stroke-width:0.30225px"
           aria-label="OceanConnect" />
      </g>
      <g
         id="g4610"
         transform="matrix(0.87065076,0,0,0.88658193,-353.83022,-73.973663)">
        <rect
           id="rect4570"
           x="-2062.6001"
           y="353.35999"
           width="148.39999"
           height="88.924004"
           style="fill:none;stroke:#305680;stroke-width:4.67140007;stroke-linecap:round;stroke-linejoin:round" />
        <g
           id="g4608"
           transform="matrix(0.81135,0,0,0.81135,-2231.6,-346.1)">
          <g
             id="g4600"
             transform="matrix(0.97318,-1.2702,1.2702,0.97318,-1152.1,594.01)"
             style="clip-rule:evenodd;fill:#237de0;fill-rule:evenodd">
            <path
               id="path4594"
               d="m 363.34,833.96 c 1.6957,0.36941 3.8357,-2.9495 2.9776,-4.2854 -0.28078,-0.43886 -0.42149,-0.92847 -0.43076,-1.4141 0.91589,-0.99503 2.8621,-2.1052 3.8572,-2.5322 0.45803,0.20996 0.8627,0.54821 1.155,1.0035 0.93562,1.458 4.7543,0.81995 5.1349,-0.92501 0.11881,-0.54527 0.48638,-1.0913 0.76615,-1.3768 0.95979,-8.3e-4 3.0259,0.39787 4.4258,0.95493 0.17933,0.35712 0.24744,1.032 0.12672,1.5803 -0.40182,1.8456 2.9168,3.8563 4.3141,2.9593 0.46665,-0.2999 1.1255,-0.46344 1.5066,-0.43241 0.72718,0.70605 2.04,2.7585 2.4742,3.7763 -0.28144,0.41708 -0.55777,0.92771 -1.0396,1.2367 -1.3968,0.89757 -0.86622,4.7699 0.9287,5.1612 0.59041,0.12892 1.1144,0.44934 1.4642,0.86128 -0.0522,0.99901 -0.60101,3.4216 -0.99349,4.3106 -0.22593,0.18113 -1.0626,0.27217 -1.6303,0.14824 -2.4433,-0.53217 -4.0844,2.6069 -2.9925,4.3071 0.30832,0.48046 0.50284,1.0269 0.43021,1.5521 -0.69255,0.70104 -2.6906,1.997 -3.7743,2.4303 -0.47093,-0.17709 -0.92799,-0.55723 -1.2371,-1.0394 -0.97473,-1.5191 -4.726,-1.0652 -5.1609,0.92952 -0.11338,0.51901 -0.42849,0.96401 -0.74944,1.3942 -1.2742,-0.0952 -3.4871,-0.44591 -4.5187,-1.0113 -0.17766,-0.48873 -0.16174,-1.0337 -0.0509,-1.5412 0.38053,-1.746 -2.7597,-3.9861 -4.278,-3.011 -0.42426,0.27277 -0.928,0.47952 -1.4014,0.49982 -0.93531,-0.87967 -2.3071,-2.9541 -2.6105,-3.9706 0.23037,-0.50933 0.63103,-0.82739 1.0711,-1.1106 1.6403,-1.0524 0.97092,-4.7227 -0.9238,-5.1353 -0.51861,-0.1135 -0.99378,-0.41073 -1.3581,-0.73085 0.10629,-1.1032 0.34297,-3.0499 0.9398,-4.462 0.58126,-0.22927 1.0294,-0.2464 1.5775,-0.12715 z m 4.5488,3.6302 c -0.94174,4.3184 1.7959,8.581 6.1138,9.5222 4.3177,0.94039 8.5808,-1.798 9.5221,-6.1162 0.94133,-4.3182 -1.7961,-8.5811 -6.1137,-9.5218 -4.3178,-0.94079 -8.5809,1.797 -9.5222,6.1158 z"
               inkscape:connector-curvature="0" />
            <path
               id="path4596"
               d="m 370.63,810.63 c 0.80729,0.40719 2.319,-0.98843 2.0601,-1.7741 -0.0845,-0.25795 -0.0917,-0.52326 -0.0332,-0.76946 0.5916,-0.38269 1.7179,-0.68931 2.2756,-0.77511 0.20371,0.16557 0.36382,0.38889 0.45196,0.65661 0.28212,0.85735 2.2916,1.0327 2.7108,0.20203 0.13097,-0.25958 0.38746,-0.48717 0.56577,-0.59476 0.48429,0.12457 1.4747,0.59475 2.1083,1.058 0.044,0.20351 -0.01,0.55282 -0.14186,0.81371 -0.44301,0.8787 0.96927,2.3252 1.7909,2.0546 0.27446,-0.0905 0.62813,-0.0872 0.81631,-0.022 0.2749,0.45087 0.66993,1.6572 0.75642,2.2272 -0.19629,0.17375 -0.40218,0.39537 -0.68547,0.48849 -0.82153,0.2709 -1.0581,2.2935 -0.20358,2.7246 0.281,0.14202 0.50369,0.37179 0.62648,0.62514 -0.15641,0.49718 -0.74874,1.6478 -1.0625,2.0452 -0.13756,0.062 -0.5715,-10e-4 -0.84171,-0.1375 -1.1633,-0.58663 -2.3999,0.78323 -2.0705,1.7831 0.093,0.28252 0.11995,0.58351 0.0149,0.83898 -0.44066,0.26346 -1.6174,0.65704 -2.2205,0.73453 -0.2145,-0.15066 -0.39557,-0.40194 -0.48871,-0.68545 -0.2939,-0.89325 -2.2454,-1.1528 -2.7245,-0.20313 -0.12491,0.247 -0.34169,0.43051 -0.55961,0.60572 -0.6304,-0.21394 -1.701,-0.67903 -2.1478,-1.0986 -0.026,-0.26968 0.053,-0.54252 0.17501,-0.78411 0.41933,-0.83125 -0.87309,-2.3702 -1.766,-2.076 -0.24954,0.0824 -0.53058,0.12105 -0.77206,0.0696 -0.35727,-0.56555 -0.77918,-1.7906 -0.79985,-2.343 0.18253,-0.22695 0.42608,-0.33522 0.68497,-0.42076 0.96451,-0.31732 1.1048,-2.256 0.20269,-2.7109 -0.24683,-0.12481 -0.44784,-0.33661 -0.58996,-0.54554 0.19728,-0.54269 0.57016,-1.4939 1.0551,-2.1285 0.32308,-0.04 0.55138,0.01 0.81234,0.14127 z m 1.822,2.4236 c -1.0374,2.0558 -0.21145,4.5626 1.8442,5.5997 2.0556,1.0366 4.5628,0.21034 5.6,-1.8455 1.0372,-2.05584 0.21133,-4.5628 -1.8442,-5.5995 -2.0557,-1.0369 -4.5627,-0.2109 -5.6,1.8452 z"
               inkscape:connector-curvature="0" />
            <path
               id="path4598"
               d="m 347.84,818.38 c 1.2056,0.23226 2.6624,-2.1517 2.0326,-3.0818 -0.20608,-0.30559 -0.31398,-0.64947 -0.32885,-0.99278 0.63076,-0.71942 1.9882,-1.5379 2.6848,-1.8569 0.32753,0.14068 0.61953,0.37297 0.83402,0.68997 0.68666,1.0152 3.3765,0.49859 3.6159,-0.74207 0.0747,-0.38768 0.32533,-0.78014 0.51832,-0.98683 0.67881,-0.017 2.1469,0.22964 3.1465,0.59967 0.13295,0.24952 0.19266,0.72564 0.11665,1.1155 -0.2526,1.3122 2.129,2.6776 3.1018,2.0192 0.32491,-0.22009 0.7881,-0.34703 1.0581,-0.3316 0.5264,0.48692 1.49,1.9161 1.8145,2.6285 -0.19193,0.2998 -0.37863,0.66567 -0.7141,0.89244 -0.97257,0.65872 -0.53105,3.3884 0.74513,3.6344 0.41977,0.0811 0.79589,0.29873 1.0503,0.58409 -0.0198,0.70746 -0.36655,2.4302 -0.62891,3.0657 -0.15669,0.13198 -0.7469,0.21068 -1.1505,0.13274 -1.7372,-0.33459 -2.8441,1.9136 -2.0428,3.0974 0.22628,0.33453 0.37321,0.71768 0.33083,1.0904 -0.47783,0.50766 -1.8688,1.4584 -2.6278,1.7834 -0.3361,-0.11719 -0.66587,-0.37822 -0.89273,-0.714 -0.71537,-1.0577 -3.3608,-0.67257 -3.6342,0.74571 -0.0713,0.36901 -0.28654,0.68914 -0.50619,0.99885 -0.90283,-0.0455 -2.4739,-0.25572 -3.2132,-0.63794 -0.13402,-0.34262 -0.13207,-0.72833 -0.0624,-1.0892 0.23926,-1.2414 -2.02,-2.772 -3.0771,-2.0564 -0.2954,0.20018 -0.64814,0.35503 -0.98264,0.37748 -0.67656,-0.60616 -1.6823,-2.0498 -1.9142,-2.7636 0.15416,-0.36419 0.43215,-0.59597 0.73858,-0.80378 1.1421,-0.7724 0.60591,-3.3568 -0.74121,-3.6162 -0.36874,-0.0714 -0.7099,-0.27349 -0.97307,-0.49365 0.0563,-0.78208 0.1904,-2.1629 0.58836,-3.1718 0.40718,-0.1721 0.72384,-0.19189 1.1135,-0.11693 z m 3.2793,2.4897 c -0.59218,3.0703 1.4169,6.0383 4.487,6.6301 3.0698,0.59125 6.0381,-1.4185 6.63,-4.4887 0.59191,-3.0702 -1.4171,-6.0384 -4.4869,-6.6298 -3.0699,-0.59153 -6.0382,1.4177 -6.6301,4.4884 z"
               inkscape:connector-curvature="0" />
          </g>
          <path
             id="path4602"
             d="m 323.43,949.36 0.01,-42.659 v 0"
             inkscape:connector-curvature="0"
             style="fill:none;stroke:#305680;stroke-width:8.41450024;stroke-linecap:round;stroke-linejoin:round" />
          <g
             id="g4606"
             transform="matrix(0.10005,0.033696,-0.033696,0.10005,345,899.17)"
             style="fill:#237de0">
            <path
               id="path4604"
               d="m 362.3,125.06 c -2.851,-2.853 -6.092,-4.28 -9.706,-4.287 -0.77,0 -1.902,0.193 -3.432,0.572 l -113.06,27.98 48.82,-132.19 c 0.951,-1.903 1.431,-3.614 1.431,-5.139 0,-3.234 -1.242,-6.04 -3.713,-8.42 -2.48,-2.383 -5.52,-3.571 -9.14,-3.571 h -93.645 c -3.045,0 -5.708,0.855 -7.994,2.568 -2.284,1.715 -3.809,3.905 -4.568,6.567 l -57.386,235.55 c -0.953,4.564 0.284,8.277 3.711,11.135 2.473,2.099 5.421,3.139 8.848,3.139 1.524,0 2.666,-0.089 3.427,-0.281 l 115.91,-28.838 -56.244,230.69 c -0.76,3.045 -0.333,5.899 1.287,8.562 1.619,2.669 4.047,4.476 7.281,5.427 1.903,0.377 3.239,0.568 3.999,0.568 5.52,0 9.514,-2.375 11.991,-7.136 l 154.16,-330.32 c 2.095,-4.567 1.434,-8.756 -1.998,-12.561 z"
               inkscape:connector-curvature="0"
               style="fill:#237de0" />
          </g>
        </g>
      </g>
      <text
         xml:space="preserve"
         style="font-style:normal;font-weight:normal;font-size:16.7619381px;line-height:7.56155729px;font-family:sans-serif;text-align:center;letter-spacing:-0.53350985px;word-spacing:0px;text-anchor:middle;fill:#237de0;fill-opacity:1;stroke:none;stroke-width:0.78571588"
         x="-2607.9199"
         y="167.96902"
         id="text4837-6"
         transform="scale(0.94529716,1.0578684)"><tspan
           sodipodi:role="line"
           id="tspan4835-2"
           x="-2608.1868"
           y="167.96902"
           style="font-style:normal;font-variant:normal;font-weight:bold;font-stretch:normal;font-size:10.98242855px;line-height:7.56155729px;font-family:Waree;-inkscape-font-specification:'Waree Bold';text-align:center;letter-spacing:-0.53350985px;text-anchor:middle;fill:#237de0;fill-opacity:1;stroke-width:0.78571588">TCP</tspan><tspan
           sodipodi:role="line"
           x="-2608.1868"
           y="176.59218"
           style="font-style:normal;font-variant:normal;font-weight:bold;font-stretch:normal;font-size:10.98242855px;line-height:7.56155729px;font-family:Waree;-inkscape-font-specification:'Waree Bold';text-align:center;letter-spacing:-0.53350985px;text-anchor:middle;fill:#237de0;fill-opacity:1;stroke-width:0.78571588"
           id="tspan8640">Integration</tspan><tspan
           sodipodi:role="line"
           x="-2607.9199"
           y="185.21532"
           style="font-style:normal;font-variant:normal;font-weight:normal;font-stretch:normal;font-size:10.98242855px;line-height:7.56155729px;font-family:Vemana2000;-inkscape-font-specification:Vemana2000;text-align:center;letter-spacing:-0.53350985px;text-anchor:middle;fill:#237de0;fill-opacity:1;stroke-width:0.78571588"
           id="tspan8638" /></text>
      <g
         transform="matrix(1.0000256,0,0,1.0000256,72.114093,-241.61936)"
         style="fill:#ffffff;stroke:#305680;stroke-width:2.6645999;stroke-linecap:round;stroke-linejoin:round"
         id="g6655">
        <rect
           height="106.8"
           width="102.08"
           y="407.75"
           x="-2766.3999"
           id="rect6649" />
        <rect
           height="106.8"
           width="102.08"
           y="397.66"
           x="-2777.8999"
           id="rect6651" />
        <rect
           height="106.8"
           width="102.08"
           y="387.67001"
           x="-2790.5"
           id="rect6653" />
      </g>
      <g
         style="fill:#305680"
         transform="matrix(0.46955201,0,0,0.46955201,-2753.2513,21.199927)"
         id="g6723">
        <path
           inkscape:connector-curvature="0"
           style="color:#000000;text-indent:0;text-decoration:none;text-decoration-line:none;text-decoration-style:solid;text-decoration-color:#000000;text-transform:none;white-space:normal;isolation:auto;mix-blend-mode:normal;solid-color:#000000;color-rendering:auto;image-rendering:auto;shape-rendering:auto"
           d="m 146.6,366.65 c -2.065,2e-4 -3.739,1.6742 -3.7392,3.7392 v 72.522 c 2.1e-4,2.065 1.6742,3.739 3.7392,3.7392 h 72.522 c 2.065,-2.1e-4 3.739,-1.6742 3.7392,-3.7392 v -72.522 c -2.1e-4,-2.065 -1.6742,-3.739 -3.7392,-3.7392 z"
           id="path6689" />
        <g
           style="fill-rule:evenodd"
           transform="translate(-257.14,294.29)"
           id="g6697">
          <path
             inkscape:connector-curvature="0"
             style="color:#000000;text-indent:0;text-decoration:none;text-decoration-line:none;text-decoration-style:solid;text-decoration-color:#000000;text-transform:none;white-space:normal;isolation:auto;mix-blend-mode:normal;solid-color:#000000;color-rendering:auto;image-rendering:auto;shape-rendering:auto"
             d="m 419.92,49.559 a 5,5 0 0 0 -4.9233,5.0698 v 13.733 h 9.999 V 54.6288 A 5,5 0 0 0 419.92,49.559 Z"
             id="path6691" />
          <path
             inkscape:connector-curvature="0"
             style="color:#000000;text-indent:0;text-decoration:none;text-decoration-line:none;text-decoration-style:solid;text-decoration-color:#000000;text-transform:none;white-space:normal;isolation:auto;mix-blend-mode:normal;solid-color:#000000;color-rendering:auto;image-rendering:auto;shape-rendering:auto"
             d="m 439.92,49.559 a 5,5 0 0 0 -4.9233,5.0698 v 13.733 h 9.999 V 54.6288 A 5,5 0 0 0 439.92,49.559 Z"
             id="path6693" />
          <path
             inkscape:connector-curvature="0"
             style="color:#000000;text-indent:0;text-decoration:none;text-decoration-line:none;text-decoration-style:solid;text-decoration-color:#000000;text-transform:none;white-space:normal;isolation:auto;mix-blend-mode:normal;solid-color:#000000;color-rendering:auto;image-rendering:auto;shape-rendering:auto"
             d="m 459.92,49.559 a 5,5 0 0 0 -4.9233,5.0698 v 13.733 h 9.999 V 54.6288 A 5,5 0 0 0 459.92,49.559 Z"
             id="path6695" />
        </g>
        <g
           style="fill-rule:evenodd"
           transform="rotate(180,311.43,259.5)"
           id="g6705">
          <path
             inkscape:connector-curvature="0"
             style="color:#000000;text-indent:0;text-decoration:none;text-decoration-line:none;text-decoration-style:solid;text-decoration-color:#000000;text-transform:none;white-space:normal;isolation:auto;mix-blend-mode:normal;solid-color:#000000;color-rendering:auto;image-rendering:auto;shape-rendering:auto"
             d="m 419.92,49.559 a 5,5 0 0 0 -4.9233,5.0698 v 13.733 h 9.999 V 54.6288 A 5,5 0 0 0 419.92,49.559 Z"
             id="path6699" />
          <path
             inkscape:connector-curvature="0"
             style="color:#000000;text-indent:0;text-decoration:none;text-decoration-line:none;text-decoration-style:solid;text-decoration-color:#000000;text-transform:none;white-space:normal;isolation:auto;mix-blend-mode:normal;solid-color:#000000;color-rendering:auto;image-rendering:auto;shape-rendering:auto"
             d="m 439.92,49.559 a 5,5 0 0 0 -4.9233,5.0698 v 13.733 h 9.999 V 54.6288 A 5,5 0 0 0 439.92,49.559 Z"
             id="path6701" />
          <path
             inkscape:connector-curvature="0"
             style="color:#000000;text-indent:0;text-decoration:none;text-decoration-line:none;text-decoration-style:solid;text-decoration-color:#000000;text-transform:none;white-space:normal;isolation:auto;mix-blend-mode:normal;solid-color:#000000;color-rendering:auto;image-rendering:auto;shape-rendering:auto"
             d="m 459.92,49.559 a 5,5 0 0 0 -4.9233,5.0698 v 13.733 h 9.999 V 54.6288 A 5,5 0 0 0 459.92,49.559 Z"
             id="path6703" />
        </g>
        <g
           style="fill-rule:evenodd"
           transform="rotate(-90,458.57,388.07)"
           id="g6713">
          <path
             inkscape:connector-curvature="0"
             style="color:#000000;text-indent:0;text-decoration:none;text-decoration-line:none;text-decoration-style:solid;text-decoration-color:#000000;text-transform:none;white-space:normal;isolation:auto;mix-blend-mode:normal;solid-color:#000000;color-rendering:auto;image-rendering:auto;shape-rendering:auto"
             d="m 419.92,49.559 a 5,5 0 0 0 -4.9233,5.0698 v 13.733 h 9.999 V 54.6288 A 5,5 0 0 0 419.92,49.559 Z"
             id="path6707" />
          <path
             inkscape:connector-curvature="0"
             style="color:#000000;text-indent:0;text-decoration:none;text-decoration-line:none;text-decoration-style:solid;text-decoration-color:#000000;text-transform:none;white-space:normal;isolation:auto;mix-blend-mode:normal;solid-color:#000000;color-rendering:auto;image-rendering:auto;shape-rendering:auto"
             d="m 439.92,49.559 a 5,5 0 0 0 -4.9233,5.0698 v 13.733 h 9.999 V 54.6288 A 5,5 0 0 0 439.92,49.559 Z"
             id="path6709" />
          <path
             inkscape:connector-curvature="0"
             style="color:#000000;text-indent:0;text-decoration:none;text-decoration-line:none;text-decoration-style:solid;text-decoration-color:#000000;text-transform:none;white-space:normal;isolation:auto;mix-blend-mode:normal;solid-color:#000000;color-rendering:auto;image-rendering:auto;shape-rendering:auto"
             d="m 459.92,49.559 a 5,5 0 0 0 -4.9233,5.0698 v 13.733 h 9.999 V 54.6288 A 5,5 0 0 0 459.92,49.559 Z"
             id="path6711" />
        </g>
        <g
           style="fill-rule:evenodd"
           transform="rotate(90,164.29,130.93)"
           id="g6721">
          <path
             inkscape:connector-curvature="0"
             style="color:#000000;text-indent:0;text-decoration:none;text-decoration-line:none;text-decoration-style:solid;text-decoration-color:#000000;text-transform:none;white-space:normal;isolation:auto;mix-blend-mode:normal;solid-color:#000000;color-rendering:auto;image-rendering:auto;shape-rendering:auto"
             d="m 419.92,49.559 a 5,5 0 0 0 -4.9233,5.0698 v 13.733 h 9.999 V 54.6288 A 5,5 0 0 0 419.92,49.559 Z"
             id="path6715" />
          <path
             inkscape:connector-curvature="0"
             style="color:#000000;text-indent:0;text-decoration:none;text-decoration-line:none;text-decoration-style:solid;text-decoration-color:#000000;text-transform:none;white-space:normal;isolation:auto;mix-blend-mode:normal;solid-color:#000000;color-rendering:auto;image-rendering:auto;shape-rendering:auto"
             d="m 439.92,49.559 a 5,5 0 0 0 -4.9233,5.0698 v 13.733 h 9.999 V 54.6288 A 5,5 0 0 0 439.92,49.559 Z"
             id="path6717" />
          <path
             inkscape:connector-curvature="0"
             style="color:#000000;text-indent:0;text-decoration:none;text-decoration-line:none;text-decoration-style:solid;text-decoration-color:#000000;text-transform:none;white-space:normal;isolation:auto;mix-blend-mode:normal;solid-color:#000000;color-rendering:auto;image-rendering:auto;shape-rendering:auto"
             d="m 459.92,49.559 a 5,5 0 0 0 -4.9233,5.0698 v 13.733 h 9.999 V 54.6288 A 5,5 0 0 0 459.92,49.559 Z"
             id="path6719" />
        </g>
      </g>
      <flowRoot
         xml:space="preserve"
         id="flowRoot8602"
         style="fill:black;fill-opacity:1;stroke:none;font-family:sans-serif;font-style:normal;font-weight:normal;font-size:21.33333333px;line-height:1.25;letter-spacing:0px;word-spacing:0px"><flowRegion
           id="flowRegion8604"><rect
             id="rect8606"
             width="109.60155"
             height="38.385796"
             x="216.67772"
             y="39.116852" /></flowRegion><flowPara
           id="flowPara8608" /></flowRoot>      <text
         xml:space="preserve"
         style="font-style:normal;font-weight:normal;font-size:16.7619381px;line-height:7.56155729px;font-family:sans-serif;text-align:center;letter-spacing:-0.53350985px;word-spacing:0px;text-anchor:middle;fill:#237de0;fill-opacity:1;stroke:none;stroke-width:0.78571588"
         x="-2820.7253"
         y="159.91135"
         id="text4837-6-7"
         transform="scale(0.94529716,1.0578684)"><tspan
           sodipodi:role="line"
           x="-2820.9922"
           y="159.91135"
           style="font-style:normal;font-variant:normal;font-weight:bold;font-stretch:normal;font-size:11.55938053px;line-height:7.56155729px;font-family:Waree;-inkscape-font-specification:'Waree Bold';text-align:center;letter-spacing:-0.53350985px;text-anchor:middle;fill:#237de0;fill-opacity:1;stroke-width:0.78571588"
           id="tspan8640-7">Devices</tspan><tspan
           sodipodi:role="line"
           x="-2820.7253"
           y="168.36153"
           style="font-style:normal;font-variant:normal;font-weight:normal;font-stretch:normal;font-size:10.98242855px;line-height:7.56155729px;font-family:Vemana2000;-inkscape-font-specification:Vemana2000;text-align:center;letter-spacing:-0.53350985px;text-anchor:middle;fill:#237de0;fill-opacity:1;stroke-width:0.78571588"
           id="tspan8638-1" /></text>
      <text
         xml:space="preserve"
         style="font-style:normal;font-weight:normal;font-size:16.7619381px;line-height:25.20519066px;font-family:sans-serif;text-align:center;letter-spacing:-0.53350985px;word-spacing:0px;text-anchor:middle;fill:#237de0;fill-opacity:1;stroke:none;stroke-width:0.78571588"
         x="-2700.9785"
         y="191.437"
         id="text4837-6-9"
         transform="scale(0.94529716,1.0578684)"><tspan
           sodipodi:role="line"
           id="tspan4835-2-6"
           x="-2701.2454"
           y="191.437"
           style="font-style:normal;font-variant:normal;font-weight:bold;font-stretch:normal;font-size:12.44856358px;line-height:25.20519066px;font-family:Waree;-inkscape-font-specification:'Waree Bold';text-align:center;letter-spacing:-0.53350985px;text-anchor:middle;fill:#237de0;fill-opacity:1;stroke-width:0.78571588">TCP</tspan><tspan
           sodipodi:role="line"
           x="-2701.2454"
           y="217.26422"
           style="font-style:normal;font-variant:normal;font-weight:bold;font-stretch:normal;font-size:8.8918314px;line-height:25.20519066px;font-family:Waree;-inkscape-font-specification:'Waree Bold';text-align:center;letter-spacing:-0.53350985px;text-anchor:middle;fill:#237de0;fill-opacity:1;stroke-width:0.78571588"
           id="tspan8640-3">text / binary</tspan><tspan
           sodipodi:role="line"
           x="-2700.9785"
           y="244.15778"
           style="font-style:normal;font-variant:normal;font-weight:normal;font-stretch:normal;font-size:10.98242855px;line-height:25.20519066px;font-family:Vemana2000;-inkscape-font-specification:Vemana2000;text-align:center;letter-spacing:-0.53350985px;text-anchor:middle;fill:#237de0;fill-opacity:1;stroke-width:0.78571588"
           id="tspan8638-0" /></text>
      <text
         xml:space="preserve"
         style="font-style:normal;font-weight:normal;font-size:16.7619381px;line-height:13.21770763px;font-family:sans-serif;text-align:center;letter-spacing:-0.53350985px;word-spacing:0px;text-anchor:middle;fill:#237de0;fill-opacity:1;stroke:none;stroke-width:0.78571588"
         x="-2518.0369"
         y="163.55008"
         id="text4837-6-9-6"
         transform="scale(0.94529716,1.0578684)"><tspan
           sodipodi:role="line"
           x="-2518.3037"
           y="163.55008"
           style="font-style:normal;font-variant:normal;font-weight:bold;font-stretch:normal;font-size:9.78101444px;line-height:13.21770763px;font-family:Waree;-inkscape-font-specification:'Waree Bold';text-align:center;letter-spacing:-0.53350985px;text-anchor:middle;fill:#237de0;fill-opacity:1;stroke-width:0.78571588"
           id="tspan8752">json /</tspan><tspan
           sodipodi:role="line"
           x="-2518.3037"
           y="178.18958"
           style="font-style:normal;font-variant:normal;font-weight:bold;font-stretch:normal;font-size:9.78101444px;line-height:13.21770763px;font-family:Waree;-inkscape-font-specification:'Waree Bold';text-align:center;letter-spacing:-0.53350985px;text-anchor:middle;fill:#237de0;fill-opacity:1;stroke-width:0.78571588"
           id="tspan652">text /</tspan><tspan
           sodipodi:role="line"
           x="-2518.3037"
           y="192.82906"
           style="font-style:normal;font-variant:normal;font-weight:bold;font-stretch:normal;font-size:9.78101444px;line-height:13.21770763px;font-family:Waree;-inkscape-font-specification:'Waree Bold';text-align:center;letter-spacing:-0.53350985px;text-anchor:middle;fill:#237de0;fill-opacity:1;stroke-width:0.78571588"
           id="tspan654">binary</tspan><tspan
           sodipodi:role="line"
           x="-2518.0369"
           y="207.46855"
           style="font-style:normal;font-variant:normal;font-weight:normal;font-stretch:normal;font-size:10.98242855px;line-height:13.21770763px;font-family:Vemana2000;-inkscape-font-specification:Vemana2000;text-align:center;letter-spacing:-0.53350985px;text-anchor:middle;fill:#237de0;fill-opacity:1;stroke-width:0.78571588"
           id="tspan8638-0-6" /></text>
      <text
         xml:space="preserve"
         style="font-style:normal;font-weight:normal;font-size:16.7619381px;line-height:27.72570992px;font-family:sans-serif;text-align:center;letter-spacing:-0.53350985px;word-spacing:0px;text-anchor:middle;fill:#237de0;fill-opacity:1;stroke:none;stroke-width:0.78571588"
         x="-2335.1785"
         y="189.50925"
         id="text4837-6-9-1"
         transform="scale(0.94529716,1.0578684)"><tspan
           sodipodi:role="line"
           x="-2335.4453"
           y="189.50925"
           style="font-style:normal;font-variant:normal;font-weight:bold;font-stretch:normal;font-size:9.78101444px;line-height:27.72570992px;font-family:Waree;-inkscape-font-specification:'Waree Bold';text-align:center;letter-spacing:-0.53350985px;text-anchor:middle;fill:#237de0;fill-opacity:1;stroke-width:0.78571588"
           id="tspan8640-3-8">telemetry</tspan><tspan
           sodipodi:role="line"
           x="-2335.4453"
           y="218.65674"
           style="font-style:normal;font-variant:normal;font-weight:bold;font-stretch:normal;font-size:9.78101444px;line-height:27.72570992px;font-family:Waree;-inkscape-font-specification:'Waree Bold';text-align:center;letter-spacing:-0.53350985px;text-anchor:middle;fill:#237de0;fill-opacity:1;stroke-width:0.78571588"
           id="tspan8799">attributes</tspan><tspan
           sodipodi:role="line"
           x="-2335.1785"
           y="247.80423"
           style="font-style:normal;font-variant:normal;font-weight:normal;font-stretch:normal;font-size:10.98242855px;line-height:27.72570992px;font-family:Vemana2000;-inkscape-font-specification:Vemana2000;text-align:center;letter-spacing:-0.53350985px;text-anchor:middle;fill:#237de0;fill-opacity:1;stroke-width:0.78571588"
           id="tspan8638-0-2" /></text>
      <text
         xml:space="preserve"
         style="font-style:normal;font-weight:normal;font-size:16.7619381px;line-height:27.72570992px;font-family:sans-serif;text-align:center;letter-spacing:-0.53350985px;word-spacing:0px;text-anchor:middle;fill:#237de0;fill-opacity:1;stroke:none;stroke-width:0.78571588"
         x="-2205.9233"
         y="146.00365"
         id="text4837-6-9-1-9"
         transform="scale(0.94529716,1.0578684)"><tspan
           sodipodi:role="line"
           x="-2206.1902"
           y="146.00365"
           style="font-style:normal;font-variant:normal;font-weight:bold;font-stretch:normal;font-size:11.11478901px;line-height:27.72570992px;font-family:Waree;-inkscape-font-specification:'Waree Bold';text-align:center;letter-spacing:-0.53350985px;text-anchor:middle;fill:#237de0;fill-opacity:1;stroke-width:0.78571588"
           id="tspan8799-9">Real-time dashboards</tspan><tspan
           sodipodi:role="line"
           x="-2205.9233"
           y="174.75127"
           style="font-style:normal;font-variant:normal;font-weight:normal;font-stretch:normal;font-size:10.98242855px;line-height:27.72570992px;font-family:Vemana2000;-inkscape-font-specification:Vemana2000;text-align:center;letter-spacing:-0.53350985px;text-anchor:middle;fill:#237de0;fill-opacity:1;stroke-width:0.78571588"
           id="tspan8638-0-2-4" /></text>
      <text
         xml:space="preserve"
         style="font-style:normal;font-weight:normal;font-size:16.7619381px;line-height:27.72570992px;font-family:sans-serif;text-align:center;letter-spacing:-0.53350985px;word-spacing:0px;text-anchor:middle;fill:#237de0;fill-opacity:1;stroke:none;stroke-width:0.78571588"
         x="-2203.5232"
         y="241.63713"
         id="text4837-6-9-1-9-3"
         transform="scale(0.94529716,1.0578684)"><tspan
           sodipodi:role="line"
           x="-2203.79"
           y="241.63713"
           style="font-style:normal;font-variant:normal;font-weight:bold;font-stretch:normal;font-size:11.55938053px;line-height:27.72570992px;font-family:Waree;-inkscape-font-specification:'Waree Bold';text-align:center;letter-spacing:-0.53350985px;text-anchor:middle;fill:#237de0;fill-opacity:1;stroke-width:0.78571588"
           id="tspan8799-9-7">Rule Engine</tspan><tspan
           sodipodi:role="line"
           x="-2203.5232"
           y="270.25146"
           style="font-style:normal;font-variant:normal;font-weight:normal;font-stretch:normal;font-size:10.98242855px;line-height:27.72570992px;font-family:Vemana2000;-inkscape-font-specification:Vemana2000;text-align:center;letter-spacing:-0.53350985px;text-anchor:middle;fill:#237de0;fill-opacity:1;stroke-width:0.78571588"
           id="tspan8638-0-2-4-8" /></text>
      <text
         xml:space="preserve"
         style="font-style:normal;font-weight:normal;font-size:16.7619381px;line-height:27.72570992px;font-family:sans-serif;text-align:center;letter-spacing:-0.53350985px;word-spacing:0px;text-anchor:middle;fill:#237de0;fill-opacity:1;stroke:none;stroke-width:0.78571588"
         x="-2425.2515"
         y="170.24307"
         id="text4837-6-9-1-9-3-2"
         transform="scale(0.94529716,1.0578684)"><tspan
           sodipodi:role="line"
           x="-2425.5183"
           y="170.24307"
           style="font-style:normal;font-variant:normal;font-weight:bold;font-stretch:normal;font-size:12.44856358px;line-height:27.72570992px;font-family:Waree;-inkscape-font-specification:'Waree Bold';text-align:center;letter-spacing:-0.53350985px;text-anchor:middle;fill:#237de0;fill-opacity:1;stroke-width:0.78571588"
           id="tspan8799-9-7-8">Converter</tspan><tspan
           sodipodi:role="line"
           x="-2425.2515"
           y="198.59082"
           style="font-style:normal;font-variant:normal;font-weight:normal;font-stretch:normal;font-size:10.98242855px;line-height:27.72570992px;font-family:Vemana2000;-inkscape-font-specification:Vemana2000;text-align:center;letter-spacing:-0.53350985px;text-anchor:middle;fill:#237de0;fill-opacity:1;stroke-width:0.78571588"
           id="tspan8638-0-2-4-8-8" /></text>
      <path
         id="path4354-7"
         d="m -2585.8281,213.96552 c 0,0 44.6967,-0.14799 58.1944,-0.21928 -0.4175,0.84685 -0.8515,1.69 -1.2661,2.53864 3.8434,-1.34734 7.6812,-2.70062 11.5221,-4.05186 -3.9796,-1.12631 -7.9727,-2.23135 -11.9618,-3.34143 0.5127,0.81965 1.0458,1.6337 1.5637,2.45192 -13.4977,0.0813 -58.1943,0.21863 -58.1943,0.21863 z"
         inkscape:connector-curvature="0"
         style="fill:#305680;stroke-width:0.521411" />
      <path
         id="path4354-7-6"
         d="m -2411.7904,214.00691 c 0,0 44.6967,-0.14799 58.1944,-0.21928 -0.4175,0.84685 -0.8515,1.69 -1.2661,2.53864 3.8434,-1.34734 7.6812,-2.70062 11.5221,-4.05186 -3.9796,-1.12631 -7.9727,-2.23135 -11.9618,-3.34143 0.5127,0.81965 1.0458,1.6337 1.5637,2.45192 -13.4977,0.0813 -58.1943,0.21863 -58.1943,0.21863 z"
         inkscape:connector-curvature="0"
         style="fill:#305680;stroke-width:0.521411" />
    </g>
  </g>
</svg>
