<svg width="753" height="127" viewBox="0 0 753 127" fill="none" xmlns="http://www.w3.org/2000/svg">
<rect x="417" y="43" width="124" height="37" rx="6" fill="#305680"/>
<path d="M454.895 61.2363H455.48C456.055 61.2363 456.479 61.1406 456.752 60.9492C457.025 60.7578 457.162 60.457 457.162 60.0469C457.162 59.6406 457.021 59.3516 456.74 59.1797C456.463 59.0078 456.031 58.9219 455.445 58.9219H454.895V61.2363ZM454.895 62.7129V66H453.078V57.4336H455.574C456.738 57.4336 457.6 57.6465 458.158 58.0723C458.717 58.4941 458.996 59.1367 458.996 60C458.996 60.5039 458.857 60.9531 458.58 61.3477C458.303 61.7383 457.91 62.0449 457.402 62.2676C458.691 64.1934 459.531 65.4375 459.922 66H457.906L455.861 62.7129H454.895ZM465.5 66L465.26 65.1621H465.166C464.975 65.4668 464.703 65.7031 464.352 65.8711C464 66.0352 463.6 66.1172 463.15 66.1172C462.381 66.1172 461.801 65.9121 461.41 65.502C461.02 65.0879 460.824 64.4941 460.824 63.7207V59.4492H462.611V63.2754C462.611 63.748 462.695 64.1035 462.863 64.3418C463.031 64.5762 463.299 64.6934 463.666 64.6934C464.166 64.6934 464.527 64.5273 464.75 64.1953C464.973 63.8594 465.084 63.3047 465.084 62.5312V59.4492H466.871V66H465.5ZM470.533 66H468.746V56.8828H470.533V66ZM475.127 60.5977C474.748 60.5977 474.451 60.7188 474.236 60.9609C474.021 61.1992 473.898 61.5391 473.867 61.9805H476.375C476.367 61.5391 476.252 61.1992 476.029 60.9609C475.807 60.7188 475.506 60.5977 475.127 60.5977ZM475.379 66.1172C474.324 66.1172 473.5 65.8262 472.906 65.2441C472.312 64.6621 472.016 63.8379 472.016 62.7715C472.016 61.6738 472.289 60.8262 472.836 60.2285C473.387 59.627 474.146 59.3262 475.115 59.3262C476.041 59.3262 476.762 59.5898 477.277 60.1172C477.793 60.6445 478.051 61.373 478.051 62.3027V63.1699H473.826C473.846 63.6777 473.996 64.0742 474.277 64.3594C474.559 64.6445 474.953 64.7871 475.461 64.7871C475.855 64.7871 476.229 64.7461 476.58 64.6641C476.932 64.582 477.299 64.4512 477.682 64.2715V65.6543C477.369 65.8105 477.035 65.9258 476.68 66C476.324 66.0781 475.891 66.1172 475.379 66.1172ZM487.695 66H482.762V57.4336H487.695V58.9219H484.578V60.8027H487.479V62.291H484.578V64.5H487.695V66ZM495.395 66H493.607V62.1738C493.607 61.7012 493.523 61.3477 493.355 61.1133C493.188 60.875 492.92 60.7559 492.553 60.7559C492.053 60.7559 491.691 60.9238 491.469 61.2598C491.246 61.5918 491.135 62.1445 491.135 62.918V66H489.348V59.4492H490.713L490.953 60.2871H491.053C491.252 59.9707 491.525 59.7324 491.873 59.5723C492.225 59.4082 492.623 59.3262 493.068 59.3262C493.83 59.3262 494.408 59.5332 494.803 59.9473C495.197 60.3574 495.395 60.9512 495.395 61.7285V66ZM502.936 59.4492V60.3574L501.91 60.6211C502.098 60.9141 502.191 61.2422 502.191 61.6055C502.191 62.3086 501.945 62.8574 501.453 63.252C500.965 63.6426 500.285 63.8379 499.414 63.8379L499.092 63.8203L498.828 63.791C498.645 63.9316 498.553 64.0879 498.553 64.2598C498.553 64.5176 498.881 64.6465 499.537 64.6465H500.65C501.369 64.6465 501.916 64.8008 502.291 65.1094C502.67 65.418 502.859 65.8711 502.859 66.4688C502.859 67.2344 502.539 67.8281 501.898 68.25C501.262 68.6719 500.346 68.8828 499.15 68.8828C498.236 68.8828 497.537 68.7227 497.053 68.4023C496.572 68.0859 496.332 67.6406 496.332 67.0664C496.332 66.6719 496.455 66.3418 496.701 66.0762C496.947 65.8105 497.309 65.6211 497.785 65.5078C497.602 65.4297 497.441 65.3027 497.305 65.127C497.168 64.9473 497.1 64.7578 497.1 64.5586C497.1 64.3086 497.172 64.1016 497.316 63.9375C497.461 63.7695 497.67 63.6055 497.943 63.4453C497.6 63.2969 497.326 63.0586 497.123 62.7305C496.924 62.4023 496.824 62.0156 496.824 61.5703C496.824 60.8555 497.057 60.3027 497.521 59.9121C497.986 59.5215 498.65 59.3262 499.514 59.3262C499.697 59.3262 499.914 59.3438 500.164 59.3789C500.418 59.4102 500.58 59.4336 500.65 59.4492H502.936ZM497.879 66.9258C497.879 67.1719 497.996 67.3652 498.23 67.5059C498.469 67.6465 498.801 67.7168 499.227 67.7168C499.867 67.7168 500.369 67.6289 500.732 67.4531C501.096 67.2773 501.277 67.0371 501.277 66.7324C501.277 66.4863 501.17 66.3164 500.955 66.2227C500.74 66.1289 500.408 66.082 499.959 66.082H499.033C498.705 66.082 498.43 66.1582 498.207 66.3105C497.988 66.4668 497.879 66.6719 497.879 66.9258ZM498.529 61.5938C498.529 61.9492 498.609 62.2305 498.77 62.4375C498.934 62.6445 499.182 62.748 499.514 62.748C499.85 62.748 500.096 62.6445 500.252 62.4375C500.408 62.2305 500.486 61.9492 500.486 61.5938C500.486 60.8047 500.162 60.4102 499.514 60.4102C498.857 60.4102 498.529 60.8047 498.529 61.5938ZM503.943 57.7559C503.943 57.1738 504.268 56.8828 504.916 56.8828C505.564 56.8828 505.889 57.1738 505.889 57.7559C505.889 58.0332 505.807 58.25 505.643 58.4062C505.482 58.5586 505.24 58.6348 504.916 58.6348C504.268 58.6348 503.943 58.3418 503.943 57.7559ZM505.807 66H504.02V59.4492H505.807V66ZM513.734 66H511.947V62.1738C511.947 61.7012 511.863 61.3477 511.695 61.1133C511.527 60.875 511.26 60.7559 510.893 60.7559C510.393 60.7559 510.031 60.9238 509.809 61.2598C509.586 61.5918 509.475 62.1445 509.475 62.918V66H507.688V59.4492H509.053L509.293 60.2871H509.393C509.592 59.9707 509.865 59.7324 510.213 59.5723C510.564 59.4082 510.963 59.3262 511.408 59.3262C512.17 59.3262 512.748 59.5332 513.143 59.9473C513.537 60.3574 513.734 60.9512 513.734 61.7285V66ZM518.287 60.5977C517.908 60.5977 517.611 60.7188 517.396 60.9609C517.182 61.1992 517.059 61.5391 517.027 61.9805H519.535C519.527 61.5391 519.412 61.1992 519.189 60.9609C518.967 60.7188 518.666 60.5977 518.287 60.5977ZM518.539 66.1172C517.484 66.1172 516.66 65.8262 516.066 65.2441C515.473 64.6621 515.176 63.8379 515.176 62.7715C515.176 61.6738 515.449 60.8262 515.996 60.2285C516.547 59.627 517.307 59.3262 518.275 59.3262C519.201 59.3262 519.922 59.5898 520.438 60.1172C520.953 60.6445 521.211 61.373 521.211 62.3027V63.1699H516.986C517.006 63.6777 517.156 64.0742 517.438 64.3594C517.719 64.6445 518.113 64.7871 518.621 64.7871C519.016 64.7871 519.389 64.7461 519.74 64.6641C520.092 64.582 520.459 64.4512 520.842 64.2715V65.6543C520.529 65.8105 520.195 65.9258 519.84 66C519.484 66.0781 519.051 66.1172 518.539 66.1172Z" fill="white"/>
<path fill-rule="evenodd" clip-rule="evenodd" d="M429.611 58.2594C429.508 58.3671 429.448 58.5159 429.455 58.6792C429.462 58.8206 429.518 58.9572 429.617 59.0608C430.088 59.5349 431.016 60.4593 431.016 60.4593L431.836 59.6412C431.836 59.6412 430.938 58.7449 430.44 58.2463C430.329 58.1334 430.18 58.0863 430.024 58.0856C429.861 58.0848 429.715 58.1516 429.611 58.2593L429.611 58.2594ZM431.836 59.6412L429.301 62.175C429.026 62.4499 429.026 62.8956 429.301 63.1706L430.557 64.4262L432.754 66.622L434.863 68.7297C435.138 69.0046 435.584 69.0046 435.859 68.7297L437.574 67.0153L440.198 64.3934L442.733 61.8596C443.008 61.5847 443.008 61.1389 442.733 60.864L441.443 59.5771L439.246 57.3814L437.17 55.3065C436.895 55.0316 436.449 55.0316 436.174 55.3065L434.459 57.0209L431.836 59.6428L431.836 59.6412ZM434.459 57.0193C434.459 57.0193 433.561 56.123 433.063 55.6245C432.952 55.5116 432.804 55.4645 432.647 55.4638C432.321 55.4622 432.063 55.7308 432.079 56.0573C432.085 56.1987 432.142 56.3353 432.24 56.4389C432.711 56.913 433.639 57.8374 433.639 57.8374L434.459 57.0193L434.459 57.0193ZM439.247 57.3799C439.247 57.3799 440.143 56.4827 440.642 55.9846C440.755 55.8737 440.802 55.7253 440.803 55.5688C440.805 55.2427 440.536 54.9856 440.209 55.0006C440.068 55.0073 439.931 55.0638 439.827 55.1623C439.353 55.6329 438.428 56.5608 438.428 56.5608L439.247 57.3798L439.247 57.3799ZM441.444 59.5757C441.444 59.5757 442.34 58.6785 442.839 58.1804C442.952 58.0695 442.999 57.9211 443 57.7647C443.002 57.4385 442.733 57.1814 442.406 57.1965C442.265 57.2031 442.128 57.2596 442.024 57.3581C441.55 57.8287 440.625 58.7566 440.625 58.7566L441.444 59.5757L441.444 59.5757ZM440.197 64.3933C440.197 64.3933 441.095 65.2896 441.594 65.788C441.705 65.9009 441.853 65.948 442.01 65.9487C442.336 65.9503 442.593 65.6817 442.578 65.3552L442.578 65.3553C442.571 65.2139 442.515 65.0772 442.416 64.9737C441.945 64.4996 441.017 63.5752 441.017 63.5752L440.197 64.3933L440.197 64.3933ZM437.574 67.0151C437.574 67.0151 438.472 67.9114 438.97 68.4099C439.081 68.5227 439.23 68.5699 439.386 68.5706C439.713 68.5722 439.97 68.3035 439.955 67.977H439.955C439.948 67.8356 439.891 67.699 439.793 67.5955C439.322 67.1214 438.394 66.1969 438.394 66.1969L437.574 67.015L437.574 67.0151ZM432.753 66.62C432.753 66.62 431.857 67.5171 431.358 68.0154C431.245 68.1263 431.198 68.2747 431.197 68.4311C431.196 68.7573 431.464 69.0144 431.791 68.9994H431.791C431.932 68.9927 432.069 68.9362 432.173 68.8377C432.647 68.3672 433.572 67.4392 433.572 67.4392L432.754 66.6241L432.753 66.62ZM430.556 64.4242C430.556 64.4242 429.66 65.3213 429.161 65.8196C429.048 65.9303 429.001 66.0786 429 66.2353C428.998 66.5612 429.267 66.8181 429.594 66.805H429.594C429.735 66.7983 429.872 66.7418 429.976 66.6433C430.45 66.1728 431.375 65.2448 431.375 65.2448L430.556 64.4244L430.556 64.4242ZM436.592 58.1618C436.708 58.0438 436.866 57.9778 437.028 57.9802C437.143 57.9818 437.253 58.0182 437.343 58.0846L438.485 58.9213C438.706 59.0802 438.772 59.3818 438.639 59.6344C438.507 59.887 438.216 60.0165 437.951 59.9403L438.374 61.5964C438.451 61.8973 438.266 62.2165 437.961 62.3098L434.872 63.2525L435.442 65.4573C435.523 65.7594 435.338 66.0827 435.03 66.1769C434.722 66.2711 434.409 66.1001 434.334 65.7962L433.622 63.0461C433.544 62.7449 433.729 62.4247 434.036 62.3312L437.126 61.3881L436.841 60.2735C436.649 60.4854 436.34 60.5369 436.108 60.3953C435.876 60.2538 435.789 59.9604 435.901 59.7005L436.463 58.3552C436.493 58.2835 436.537 58.2177 436.592 58.1618L436.592 58.1618Z" fill="white"/>
<rect x="633.5" y="4.5" width="100" height="36" rx="5.5" fill="white" stroke="#05172A"/>
<path d="M673.977 27H669.131V18.4336H673.977V19.6172H670.531V21.9492H673.76V23.1211H670.531V25.8105H673.977V27ZM681.389 27H680.006V23.0156C680.006 22.5156 679.904 22.1426 679.701 21.8965C679.502 21.6504 679.184 21.5273 678.746 21.5273C678.164 21.5273 677.738 21.6992 677.469 22.043C677.199 22.3867 677.064 22.9629 677.064 23.7715V27H675.688V20.5195H676.766L676.959 21.3691H677.029C677.225 21.0605 677.502 20.8223 677.861 20.6543C678.221 20.4863 678.619 20.4023 679.057 20.4023C680.611 20.4023 681.389 21.1934 681.389 22.7754V27ZM685.49 27.1172C684.682 27.1172 684.051 26.8242 683.598 26.2383C683.145 25.6523 682.918 24.8301 682.918 23.7715C682.918 22.709 683.146 21.8828 683.604 21.293C684.064 20.6992 684.701 20.4023 685.514 20.4023C686.365 20.4023 687.014 20.7168 687.459 21.3457H687.529C687.463 20.8809 687.43 20.5137 687.43 20.2441V17.8828H688.812V27H687.734L687.494 26.1504H687.43C686.988 26.7949 686.342 27.1172 685.49 27.1172ZM685.859 26.0039C686.426 26.0039 686.838 25.8457 687.096 25.5293C687.354 25.209 687.486 24.6914 687.494 23.9766V23.7832C687.494 22.9668 687.361 22.3867 687.096 22.043C686.83 21.6992 686.414 21.5273 685.848 21.5273C685.363 21.5273 684.99 21.7246 684.729 22.1191C684.467 22.5098 684.336 23.0684 684.336 23.7949C684.336 24.5137 684.463 25.0625 684.717 25.4414C684.971 25.8164 685.352 26.0039 685.859 26.0039ZM700.76 18.4336V23.9766C700.76 24.6094 700.623 25.1641 700.35 25.6406C700.08 26.1133 699.688 26.4785 699.172 26.7363C698.66 26.9902 698.047 27.1172 697.332 27.1172C696.27 27.1172 695.443 26.8359 694.854 26.2734C694.264 25.7109 693.969 24.9375 693.969 23.9531V18.4336H695.375V23.8535C695.375 24.5605 695.539 25.082 695.867 25.418C696.195 25.7539 696.699 25.9219 697.379 25.9219C698.699 25.9219 699.359 25.2285 699.359 23.8418V18.4336H700.76ZM707.158 25.1543C707.158 25.7871 706.928 26.2734 706.467 26.6133C706.006 26.9492 705.346 27.1172 704.486 27.1172C703.623 27.1172 702.93 26.9863 702.406 26.7246V25.5352C703.168 25.8867 703.877 26.0625 704.533 26.0625C705.381 26.0625 705.805 25.8066 705.805 25.2949C705.805 25.1309 705.758 24.9941 705.664 24.8848C705.57 24.7754 705.416 24.6621 705.201 24.5449C704.986 24.4277 704.688 24.2949 704.305 24.1465C703.559 23.8574 703.053 23.5684 702.787 23.2793C702.525 22.9902 702.395 22.6152 702.395 22.1543C702.395 21.5996 702.617 21.1699 703.062 20.8652C703.512 20.5566 704.121 20.4023 704.891 20.4023C705.652 20.4023 706.373 20.5566 707.053 20.8652L706.607 21.9023C705.908 21.6133 705.32 21.4688 704.844 21.4688C704.117 21.4688 703.754 21.6758 703.754 22.0898C703.754 22.293 703.848 22.4648 704.035 22.6055C704.227 22.7461 704.641 22.9395 705.277 23.1855C705.812 23.3926 706.201 23.582 706.443 23.7539C706.686 23.9258 706.865 24.125 706.982 24.3516C707.1 24.5742 707.158 24.8418 707.158 25.1543ZM711.482 27.1172C710.475 27.1172 709.686 26.8242 709.115 26.2383C708.549 25.6484 708.266 24.8379 708.266 23.8066C708.266 22.748 708.529 21.916 709.057 21.3105C709.584 20.7051 710.309 20.4023 711.23 20.4023C712.086 20.4023 712.762 20.6621 713.258 21.1816C713.754 21.7012 714.002 22.416 714.002 23.3262V24.0703H709.684C709.703 24.6992 709.873 25.1836 710.193 25.5234C710.514 25.8594 710.965 26.0273 711.547 26.0273C711.93 26.0273 712.285 25.9922 712.613 25.9219C712.945 25.8477 713.301 25.7266 713.68 25.5586V26.6777C713.344 26.8379 713.004 26.9512 712.66 27.0176C712.316 27.084 711.924 27.1172 711.482 27.1172ZM711.23 21.4453C710.793 21.4453 710.441 21.584 710.176 21.8613C709.914 22.1387 709.758 22.543 709.707 23.0742H712.648C712.641 22.5391 712.512 22.1348 712.262 21.8613C712.012 21.584 711.668 21.4453 711.23 21.4453ZM718.854 20.4023C719.131 20.4023 719.359 20.4219 719.539 20.4609L719.404 21.7441C719.209 21.6973 719.006 21.6738 718.795 21.6738C718.244 21.6738 717.797 21.8535 717.453 22.2129C717.113 22.5723 716.943 23.0391 716.943 23.6133V27H715.566V20.5195H716.645L716.826 21.6621H716.896C717.111 21.2754 717.391 20.9688 717.734 20.7422C718.082 20.5156 718.455 20.4023 718.854 20.4023Z" fill="#05172A"/>
<path fill-rule="evenodd" clip-rule="evenodd" d="M652 23C653.656 23 655 21.6569 655 20C655 18.3431 653.656 17 652 17C650.343 17 649 18.3431 649 20C649 21.6569 650.343 23 652 23ZM652 23C654.626 23 656.858 24.6869 657.671 27.0362C658.032 28.08 657.104 29 656 29H648C646.895 29 645.967 28.08 646.328 27.0362C647.142 24.6869 649.374 23 652 23Z" fill="#305680"/>
<rect x="639.5" y="68.5" width="113" height="52" rx="5.5" fill="white" stroke="#05172A"/>
<rect x="636.5" y="71.5" width="113" height="52" rx="5.5" fill="white" stroke="#05172A"/>
<rect x="633.5" y="74.5" width="113" height="52" rx="5.5" fill="white" stroke="#05172A"/>
<path d="M674.07 94.6738C674.07 95.4355 673.795 96.0332 673.244 96.4668C672.693 96.9004 671.934 97.1172 670.965 97.1172C669.996 97.1172 669.203 96.9668 668.586 96.666V95.3418C668.977 95.5254 669.391 95.6699 669.828 95.7754C670.27 95.8809 670.68 95.9336 671.059 95.9336C671.613 95.9336 672.021 95.8281 672.283 95.6172C672.549 95.4062 672.682 95.123 672.682 94.7676C672.682 94.4473 672.561 94.1758 672.318 93.9531C672.076 93.7305 671.576 93.4668 670.818 93.1621C670.037 92.8457 669.486 92.4844 669.166 92.0781C668.846 91.6719 668.686 91.1836 668.686 90.6133C668.686 89.8984 668.939 89.3359 669.447 88.9258C669.955 88.5156 670.637 88.3105 671.492 88.3105C672.312 88.3105 673.129 88.4902 673.941 88.8496L673.496 89.9922C672.734 89.6719 672.055 89.5117 671.457 89.5117C671.004 89.5117 670.66 89.6113 670.426 89.8105C670.191 90.0059 670.074 90.2656 670.074 90.5898C670.074 90.8125 670.121 91.0039 670.215 91.1641C670.309 91.3203 670.463 91.4688 670.678 91.6094C670.893 91.75 671.279 91.9355 671.838 92.166C672.467 92.4277 672.928 92.6719 673.221 92.8984C673.514 93.125 673.729 93.3809 673.865 93.666C674.002 93.9512 674.07 94.2871 674.07 94.6738ZM678.412 97.1172C677.404 97.1172 676.615 96.8242 676.045 96.2383C675.479 95.6484 675.195 94.8379 675.195 93.8066C675.195 92.748 675.459 91.916 675.986 91.3105C676.514 90.7051 677.238 90.4023 678.16 90.4023C679.016 90.4023 679.691 90.6621 680.188 91.1816C680.684 91.7012 680.932 92.416 680.932 93.3262V94.0703H676.613C676.633 94.6992 676.803 95.1836 677.123 95.5234C677.443 95.8594 677.895 96.0273 678.477 96.0273C678.859 96.0273 679.215 95.9922 679.543 95.9219C679.875 95.8477 680.23 95.7266 680.609 95.5586V96.6777C680.273 96.8379 679.934 96.9512 679.59 97.0176C679.246 97.084 678.854 97.1172 678.412 97.1172ZM678.16 91.4453C677.723 91.4453 677.371 91.584 677.105 91.8613C676.844 92.1387 676.688 92.543 676.637 93.0742H679.578C679.57 92.5391 679.441 92.1348 679.191 91.8613C678.941 91.584 678.598 91.4453 678.16 91.4453ZM685.783 90.4023C686.061 90.4023 686.289 90.4219 686.469 90.4609L686.334 91.7441C686.139 91.6973 685.936 91.6738 685.725 91.6738C685.174 91.6738 684.727 91.8535 684.383 92.2129C684.043 92.5723 683.873 93.0391 683.873 93.6133V97H682.496V90.5195H683.574L683.756 91.6621H683.826C684.041 91.2754 684.32 90.9688 684.664 90.7422C685.012 90.5156 685.385 90.4023 685.783 90.4023ZM689.152 97L686.691 90.5195H688.145L689.463 94.2871C689.689 94.9199 689.826 95.4316 689.873 95.8223H689.92C689.955 95.541 690.092 95.0293 690.33 94.2871L691.648 90.5195H693.113L690.641 97H689.152ZM696.928 97.1172C695.92 97.1172 695.131 96.8242 694.561 96.2383C693.994 95.6484 693.711 94.8379 693.711 93.8066C693.711 92.748 693.975 91.916 694.502 91.3105C695.029 90.7051 695.754 90.4023 696.676 90.4023C697.531 90.4023 698.207 90.6621 698.703 91.1816C699.199 91.7012 699.447 92.416 699.447 93.3262V94.0703H695.129C695.148 94.6992 695.318 95.1836 695.639 95.5234C695.959 95.8594 696.41 96.0273 696.992 96.0273C697.375 96.0273 697.73 95.9922 698.059 95.9219C698.391 95.8477 698.746 95.7266 699.125 95.5586V96.6777C698.789 96.8379 698.449 96.9512 698.105 97.0176C697.762 97.084 697.369 97.1172 696.928 97.1172ZM696.676 91.4453C696.238 91.4453 695.887 91.584 695.621 91.8613C695.359 92.1387 695.203 92.543 695.152 93.0742H698.094C698.086 92.5391 697.957 92.1348 697.707 91.8613C697.457 91.584 697.113 91.4453 696.676 91.4453ZM704.299 90.4023C704.576 90.4023 704.805 90.4219 704.984 90.4609L704.85 91.7441C704.654 91.6973 704.451 91.6738 704.24 91.6738C703.689 91.6738 703.242 91.8535 702.898 92.2129C702.559 92.5723 702.389 93.0391 702.389 93.6133V97H701.012V90.5195H702.09L702.271 91.6621H702.342C702.557 91.2754 702.836 90.9688 703.18 90.7422C703.527 90.5156 703.9 90.4023 704.299 90.4023ZM705.629 94.3691V93.1973H708.641V94.3691H705.629ZM714.412 95.1543C714.412 95.7871 714.182 96.2734 713.721 96.6133C713.26 96.9492 712.6 97.1172 711.74 97.1172C710.877 97.1172 710.184 96.9863 709.66 96.7246V95.5352C710.422 95.8867 711.131 96.0625 711.787 96.0625C712.635 96.0625 713.059 95.8066 713.059 95.2949C713.059 95.1309 713.012 94.9941 712.918 94.8848C712.824 94.7754 712.67 94.6621 712.455 94.5449C712.24 94.4277 711.941 94.2949 711.559 94.1465C710.812 93.8574 710.307 93.5684 710.041 93.2793C709.779 92.9902 709.648 92.6152 709.648 92.1543C709.648 91.5996 709.871 91.1699 710.316 90.8652C710.766 90.5566 711.375 90.4023 712.145 90.4023C712.906 90.4023 713.627 90.5566 714.307 90.8652L713.861 91.9023C713.162 91.6133 712.574 91.4688 712.098 91.4688C711.371 91.4688 711.008 91.6758 711.008 92.0898C711.008 92.293 711.102 92.4648 711.289 92.6055C711.48 92.7461 711.895 92.9395 712.531 93.1855C713.066 93.3926 713.455 93.582 713.697 93.7539C713.939 93.9258 714.119 94.125 714.236 94.3516C714.354 94.5742 714.412 94.8418 714.412 95.1543ZM717.283 97H715.906V90.5195H717.283V97ZM715.824 88.8027C715.824 88.5566 715.891 88.3672 716.023 88.2344C716.16 88.1016 716.354 88.0352 716.604 88.0352C716.846 88.0352 717.033 88.1016 717.166 88.2344C717.303 88.3672 717.371 88.5566 717.371 88.8027C717.371 89.0371 717.303 89.2227 717.166 89.3594C717.033 89.4922 716.846 89.5586 716.604 89.5586C716.354 89.5586 716.16 89.4922 716.023 89.3594C715.891 89.2227 715.824 89.0371 715.824 88.8027ZM721.443 97.1172C720.635 97.1172 720.004 96.8242 719.551 96.2383C719.098 95.6523 718.871 94.8301 718.871 93.7715C718.871 92.709 719.1 91.8828 719.557 91.293C720.018 90.6992 720.654 90.4023 721.467 90.4023C722.318 90.4023 722.967 90.7168 723.412 91.3457H723.482C723.416 90.8809 723.383 90.5137 723.383 90.2441V87.8828H724.766V97H723.688L723.447 96.1504H723.383C722.941 96.7949 722.295 97.1172 721.443 97.1172ZM721.812 96.0039C722.379 96.0039 722.791 95.8457 723.049 95.5293C723.307 95.209 723.439 94.6914 723.447 93.9766V93.7832C723.447 92.9668 723.314 92.3867 723.049 92.043C722.783 91.6992 722.367 91.5273 721.801 91.5273C721.316 91.5273 720.943 91.7246 720.682 92.1191C720.42 92.5098 720.289 93.0684 720.289 93.7949C720.289 94.5137 720.416 95.0625 720.67 95.4414C720.924 95.8164 721.305 96.0039 721.812 96.0039ZM729.564 97.1172C728.557 97.1172 727.768 96.8242 727.197 96.2383C726.631 95.6484 726.348 94.8379 726.348 93.8066C726.348 92.748 726.611 91.916 727.139 91.3105C727.666 90.7051 728.391 90.4023 729.312 90.4023C730.168 90.4023 730.844 90.6621 731.34 91.1816C731.836 91.7012 732.084 92.416 732.084 93.3262V94.0703H727.766C727.785 94.6992 727.955 95.1836 728.275 95.5234C728.596 95.8594 729.047 96.0273 729.629 96.0273C730.012 96.0273 730.367 95.9922 730.695 95.9219C731.027 95.8477 731.383 95.7266 731.762 95.5586V96.6777C731.426 96.8379 731.086 96.9512 730.742 97.0176C730.398 97.084 730.006 97.1172 729.564 97.1172ZM729.312 91.4453C728.875 91.4453 728.523 91.584 728.258 91.8613C727.996 92.1387 727.84 92.543 727.789 93.0742H730.73C730.723 92.5391 730.594 92.1348 730.344 91.8613C730.094 91.584 729.75 91.4453 729.312 91.4453ZM673.039 113L672.764 112.098H672.717C672.404 112.492 672.09 112.762 671.773 112.906C671.457 113.047 671.051 113.117 670.555 113.117C669.918 113.117 669.42 112.945 669.061 112.602C668.705 112.258 668.527 111.771 668.527 111.143C668.527 110.475 668.775 109.971 669.271 109.631C669.768 109.291 670.523 109.105 671.539 109.074L672.658 109.039V108.693C672.658 108.279 672.561 107.971 672.365 107.768C672.174 107.561 671.875 107.457 671.469 107.457C671.137 107.457 670.818 107.506 670.514 107.604C670.209 107.701 669.916 107.816 669.635 107.949L669.189 106.965C669.541 106.781 669.926 106.643 670.344 106.549C670.762 106.451 671.156 106.402 671.527 106.402C672.352 106.402 672.973 106.582 673.391 106.941C673.812 107.301 674.023 107.865 674.023 108.635V113H673.039ZM670.988 112.062C671.488 112.062 671.889 111.924 672.189 111.646C672.494 111.365 672.646 110.973 672.646 110.469V109.906L671.814 109.941C671.166 109.965 670.693 110.074 670.396 110.27C670.104 110.461 669.957 110.756 669.957 111.154C669.957 111.443 670.043 111.668 670.215 111.828C670.387 111.984 670.645 112.062 670.988 112.062ZM679.232 113.117C678.412 113.117 677.775 112.822 677.322 112.232H677.24C677.295 112.779 677.322 113.111 677.322 113.229V115.883H675.945V106.52H677.059C677.09 106.641 677.154 106.93 677.252 107.387H677.322C677.752 106.73 678.396 106.402 679.256 106.402C680.064 106.402 680.693 106.695 681.143 107.281C681.596 107.867 681.822 108.689 681.822 109.748C681.822 110.807 681.592 111.633 681.131 112.227C680.674 112.82 680.041 113.117 679.232 113.117ZM678.898 107.527C678.352 107.527 677.951 107.688 677.697 108.008C677.447 108.328 677.322 108.84 677.322 109.543V109.748C677.322 110.537 677.447 111.109 677.697 111.465C677.947 111.816 678.355 111.992 678.922 111.992C679.398 111.992 679.766 111.797 680.023 111.406C680.281 111.016 680.41 110.459 680.41 109.736C680.41 109.01 680.281 108.461 680.023 108.09C679.77 107.715 679.395 107.527 678.898 107.527ZM686.709 113.117C685.889 113.117 685.252 112.822 684.799 112.232H684.717C684.771 112.779 684.799 113.111 684.799 113.229V115.883H683.422V106.52H684.535C684.566 106.641 684.631 106.93 684.729 107.387H684.799C685.229 106.73 685.873 106.402 686.732 106.402C687.541 106.402 688.17 106.695 688.619 107.281C689.072 107.867 689.299 108.689 689.299 109.748C689.299 110.807 689.068 111.633 688.607 112.227C688.15 112.82 687.518 113.117 686.709 113.117ZM686.375 107.527C685.828 107.527 685.428 107.688 685.174 108.008C684.924 108.328 684.799 108.84 684.799 109.543V109.748C684.799 110.537 684.924 111.109 685.174 111.465C685.424 111.816 685.832 111.992 686.398 111.992C686.875 111.992 687.242 111.797 687.5 111.406C687.758 111.016 687.887 110.459 687.887 109.736C687.887 109.01 687.758 108.461 687.5 108.09C687.246 107.715 686.871 107.527 686.375 107.527ZM695.252 111.154C695.252 111.787 695.021 112.273 694.561 112.613C694.1 112.949 693.439 113.117 692.58 113.117C691.717 113.117 691.023 112.986 690.5 112.725V111.535C691.262 111.887 691.971 112.062 692.627 112.062C693.475 112.062 693.898 111.807 693.898 111.295C693.898 111.131 693.852 110.994 693.758 110.885C693.664 110.775 693.51 110.662 693.295 110.545C693.08 110.428 692.781 110.295 692.398 110.146C691.652 109.857 691.146 109.568 690.881 109.279C690.619 108.99 690.488 108.615 690.488 108.154C690.488 107.6 690.711 107.17 691.156 106.865C691.605 106.557 692.215 106.402 692.984 106.402C693.746 106.402 694.467 106.557 695.146 106.865L694.701 107.902C694.002 107.613 693.414 107.469 692.938 107.469C692.211 107.469 691.848 107.676 691.848 108.09C691.848 108.293 691.941 108.465 692.129 108.605C692.32 108.746 692.734 108.939 693.371 109.186C693.906 109.393 694.295 109.582 694.537 109.754C694.779 109.926 694.959 110.125 695.076 110.352C695.193 110.574 695.252 110.842 695.252 111.154Z" fill="#05172A"/>
<path fill-rule="evenodd" clip-rule="evenodd" d="M647 95C646.448 95 646 95.4477 646 96V100H658V96C658 95.4477 657.552 95 657 95H647ZM646 101H658V103H646V101ZM646 104H658V106C658 106.552 657.552 107 657 107H647C646.448 107 646 106.552 646 106V104ZM649 97.5C649 97.7761 648.776 98 648.5 98C648.224 98 648 97.7761 648 97.5C648 97.2239 648.224 97 648.5 97C648.776 97 649 97.2239 649 97.5ZM650.5 98C650.776 98 651 97.7761 651 97.5C651 97.2239 650.776 97 650.5 97C650.224 97 650 97.2239 650 97.5C650 97.7761 650.224 98 650.5 98Z" fill="#305680"/>
<rect x="151" width="84" height="37" rx="6" fill="#305680"/>
<path fill-rule="evenodd" clip-rule="evenodd" d="M163.611 15.2594C163.508 15.3671 163.448 15.5159 163.455 15.6792C163.462 15.8206 163.518 15.9572 163.617 16.0608C164.088 16.5349 165.016 17.4593 165.016 17.4593L165.836 16.6412C165.836 16.6412 164.938 15.7449 164.44 15.2463C164.329 15.1334 164.18 15.0863 164.024 15.0856C163.861 15.0848 163.715 15.1516 163.611 15.2593L163.611 15.2594ZM165.836 16.6412L163.301 19.175C163.026 19.4499 163.026 19.8956 163.301 20.1706L164.557 21.4262L166.754 23.622L168.863 25.7297C169.138 26.0046 169.584 26.0046 169.859 25.7297L171.574 24.0153L174.198 21.3934L176.733 18.8596C177.008 18.5847 177.008 18.1389 176.733 17.864L175.443 16.5771L173.246 14.3814L171.17 12.3065C170.895 12.0316 170.449 12.0316 170.174 12.3065L168.459 14.0209L165.836 16.6428L165.836 16.6412ZM168.459 14.0193C168.459 14.0193 167.561 13.123 167.063 12.6245C166.952 12.5116 166.804 12.4645 166.647 12.4638C166.321 12.4622 166.063 12.7308 166.079 13.0573C166.085 13.1987 166.142 13.3353 166.24 13.4389C166.711 13.913 167.639 14.8374 167.639 14.8374L168.459 14.0193L168.459 14.0193ZM173.247 14.3799C173.247 14.3799 174.143 13.4827 174.642 12.9846C174.755 12.8737 174.802 12.7253 174.803 12.5688C174.805 12.2427 174.536 11.9856 174.209 12.0006C174.068 12.0073 173.931 12.0638 173.827 12.1623C173.353 12.6329 172.428 13.5608 172.428 13.5608L173.247 14.3798L173.247 14.3799ZM175.444 16.5757C175.444 16.5757 176.34 15.6785 176.839 15.1804C176.952 15.0695 176.999 14.9211 177 14.7647C177.002 14.4385 176.733 14.1814 176.406 14.1965C176.265 14.2031 176.128 14.2596 176.024 14.3581C175.55 14.8287 174.625 15.7566 174.625 15.7566L175.444 16.5757L175.444 16.5757ZM174.197 21.3933C174.197 21.3933 175.095 22.2896 175.594 22.788C175.705 22.9009 175.853 22.948 176.01 22.9487C176.336 22.9503 176.593 22.6817 176.578 22.3552L176.578 22.3553C176.571 22.2139 176.515 22.0772 176.416 21.9737C175.945 21.4996 175.017 20.5752 175.017 20.5752L174.197 21.3933L174.197 21.3933ZM171.574 24.0151C171.574 24.0151 172.472 24.9114 172.97 25.4099C173.081 25.5227 173.23 25.5699 173.386 25.5706C173.713 25.5722 173.97 25.3035 173.955 24.977H173.955C173.948 24.8356 173.891 24.699 173.793 24.5955C173.322 24.1214 172.394 23.1969 172.394 23.1969L171.574 24.015L171.574 24.0151ZM166.753 23.62C166.753 23.62 165.857 24.5171 165.358 25.0154C165.245 25.1263 165.198 25.2747 165.197 25.4311C165.196 25.7573 165.464 26.0144 165.791 25.9994H165.791C165.932 25.9927 166.069 25.9362 166.173 25.8377C166.647 25.3672 167.572 24.4392 167.572 24.4392L166.754 23.6241L166.753 23.62ZM164.556 21.4242C164.556 21.4242 163.66 22.3213 163.161 22.8196C163.048 22.9303 163.001 23.0786 163 23.2353C162.998 23.5612 163.267 23.8181 163.594 23.805H163.594C163.735 23.7983 163.872 23.7418 163.976 23.6433C164.45 23.1728 165.375 22.2448 165.375 22.2448L164.556 21.4244L164.556 21.4242ZM170.592 15.1618C170.708 15.0438 170.866 14.9778 171.028 14.9802C171.143 14.9818 171.253 15.0182 171.343 15.0846L172.485 15.9213C172.706 16.0802 172.772 16.3818 172.639 16.6344C172.507 16.887 172.216 17.0165 171.951 16.9403L172.374 18.5964C172.451 18.8973 172.266 19.2165 171.961 19.3098L168.872 20.2525L169.442 22.4573C169.523 22.7594 169.338 23.0827 169.03 23.1769C168.722 23.2711 168.409 23.1001 168.334 22.7962L167.622 20.0461C167.544 19.7449 167.729 19.4247 168.036 19.3312L171.126 18.3881L170.841 17.2735C170.649 17.4854 170.34 17.5369 170.108 17.3953C169.876 17.2538 169.789 16.9604 169.901 16.7005L170.463 15.3552C170.493 15.2835 170.537 15.2177 170.592 15.1618L170.592 15.1618Z" fill="white"/>
<path d="M194.098 23H192.287V19.3027H188.895V23H187.078V14.4336H188.895V17.791H192.287V14.4336H194.098V23ZM199.57 23H197.754V15.9453H195.428V14.4336H201.896V15.9453H199.57V23ZM206.52 23H204.703V15.9453H202.377V14.4336H208.846V15.9453H206.52V23ZM211.98 18.4648H212.578C213.137 18.4648 213.555 18.3555 213.832 18.1367C214.109 17.9141 214.248 17.5918 214.248 17.1699C214.248 16.7441 214.131 16.4297 213.896 16.2266C213.666 16.0234 213.303 15.9219 212.807 15.9219H211.98V18.4648ZM216.082 17.1055C216.082 18.0273 215.793 18.7324 215.215 19.2207C214.641 19.709 213.822 19.9531 212.76 19.9531H211.98V23H210.164V14.4336H212.9C213.939 14.4336 214.729 14.6582 215.268 15.1074C215.811 15.5527 216.082 16.2188 216.082 17.1055Z" fill="white"/>
<rect x="151" y="43" width="84" height="37" rx="6" fill="#305680"/>
<path d="M190.705 66L188.643 59.2793H188.59C188.664 60.6465 188.701 61.5586 188.701 62.0156V66H187.078V57.4336H189.551L191.578 63.9844H191.613L193.764 57.4336H196.236V66H194.543V61.9453C194.543 61.7539 194.545 61.5332 194.549 61.2832C194.557 61.0332 194.584 60.3691 194.631 59.291H194.578L192.369 66H190.705ZM206.174 61.7051C206.174 62.7129 205.994 63.5586 205.635 64.2422C205.279 64.9219 204.756 65.4199 204.064 65.7363L206.127 68.0391H203.801L202.23 66.1172H202.096C200.783 66.1172 199.775 65.7363 199.072 64.9746C198.369 64.2129 198.018 63.1191 198.018 61.6934C198.018 60.2676 198.369 59.1797 199.072 58.4297C199.779 57.6758 200.791 57.2988 202.107 57.2988C203.424 57.2988 204.43 57.6777 205.125 58.4355C205.824 59.1934 206.174 60.2832 206.174 61.7051ZM199.922 61.7051C199.922 62.6621 200.104 63.3828 200.467 63.8672C200.83 64.3516 201.373 64.5938 202.096 64.5938C203.545 64.5938 204.27 63.6309 204.27 61.7051C204.27 59.7754 203.549 58.8105 202.107 58.8105C201.385 58.8105 200.84 59.0547 200.473 59.543C200.105 60.0273 199.922 60.748 199.922 61.7051ZM211.254 66H209.438V58.9453H207.111V57.4336H213.58V58.9453H211.254V66ZM218.203 66H216.387V58.9453H214.061V57.4336H220.529V58.9453H218.203V66Z" fill="white"/>
<path fill-rule="evenodd" clip-rule="evenodd" d="M163.611 58.2594C163.508 58.3671 163.448 58.5159 163.455 58.6792C163.462 58.8206 163.518 58.9572 163.617 59.0608C164.088 59.5349 165.016 60.4593 165.016 60.4593L165.836 59.6412C165.836 59.6412 164.938 58.7449 164.44 58.2463C164.329 58.1334 164.18 58.0863 164.024 58.0856C163.861 58.0848 163.715 58.1516 163.611 58.2593L163.611 58.2594ZM165.836 59.6412L163.301 62.175C163.026 62.4499 163.026 62.8956 163.301 63.1706L164.557 64.4262L166.754 66.622L168.863 68.7297C169.138 69.0046 169.584 69.0046 169.859 68.7297L171.574 67.0153L174.198 64.3934L176.733 61.8596C177.008 61.5847 177.008 61.1389 176.733 60.864L175.443 59.5771L173.246 57.3814L171.17 55.3065C170.895 55.0316 170.449 55.0316 170.174 55.3065L168.459 57.0209L165.836 59.6428L165.836 59.6412ZM168.459 57.0193C168.459 57.0193 167.561 56.123 167.063 55.6245C166.952 55.5116 166.804 55.4645 166.647 55.4638C166.321 55.4622 166.063 55.7308 166.079 56.0573C166.085 56.1987 166.142 56.3353 166.24 56.4389C166.711 56.913 167.639 57.8374 167.639 57.8374L168.459 57.0193L168.459 57.0193ZM173.247 57.3799C173.247 57.3799 174.143 56.4827 174.642 55.9846C174.755 55.8737 174.802 55.7253 174.803 55.5688C174.805 55.2427 174.536 54.9856 174.209 55.0006C174.068 55.0073 173.931 55.0638 173.827 55.1623C173.353 55.6329 172.428 56.5608 172.428 56.5608L173.247 57.3798L173.247 57.3799ZM175.444 59.5757C175.444 59.5757 176.34 58.6785 176.839 58.1804C176.952 58.0695 176.999 57.9211 177 57.7647C177.002 57.4385 176.733 57.1814 176.406 57.1965C176.265 57.2031 176.128 57.2596 176.024 57.3581C175.55 57.8287 174.625 58.7566 174.625 58.7566L175.444 59.5757L175.444 59.5757ZM174.197 64.3933C174.197 64.3933 175.095 65.2896 175.594 65.788C175.705 65.9009 175.853 65.948 176.01 65.9487C176.336 65.9503 176.593 65.6817 176.578 65.3552L176.578 65.3553C176.571 65.2139 176.515 65.0772 176.416 64.9737C175.945 64.4996 175.017 63.5752 175.017 63.5752L174.197 64.3933L174.197 64.3933ZM171.574 67.0151C171.574 67.0151 172.472 67.9114 172.97 68.4099C173.081 68.5227 173.23 68.5699 173.386 68.5706C173.713 68.5722 173.97 68.3035 173.955 67.977H173.955C173.948 67.8356 173.891 67.699 173.793 67.5955C173.322 67.1214 172.394 66.1969 172.394 66.1969L171.574 67.015L171.574 67.0151ZM166.753 66.62C166.753 66.62 165.857 67.5171 165.358 68.0154C165.245 68.1263 165.198 68.2747 165.197 68.4311C165.196 68.7573 165.464 69.0144 165.791 68.9994H165.791C165.932 68.9927 166.069 68.9362 166.173 68.8377C166.647 68.3672 167.572 67.4392 167.572 67.4392L166.754 66.6241L166.753 66.62ZM164.556 64.4242C164.556 64.4242 163.66 65.3213 163.161 65.8196C163.048 65.9303 163.001 66.0786 163 66.2353C162.998 66.5612 163.267 66.8181 163.594 66.805H163.594C163.735 66.7983 163.872 66.7418 163.976 66.6433C164.45 66.1728 165.375 65.2448 165.375 65.2448L164.556 64.4244L164.556 64.4242ZM170.592 58.1618C170.708 58.0438 170.866 57.9778 171.028 57.9802C171.143 57.9818 171.253 58.0182 171.343 58.0846L172.485 58.9213C172.706 59.0802 172.772 59.3818 172.639 59.6344C172.507 59.887 172.216 60.0165 171.951 59.9403L172.374 61.5964C172.451 61.8973 172.266 62.2165 171.961 62.3098L168.872 63.2525L169.442 65.4573C169.523 65.7594 169.338 66.0827 169.03 66.1769C168.722 66.2711 168.409 66.1001 168.334 65.7962L167.622 63.0461C167.544 62.7449 167.729 62.4247 168.036 62.3312L171.126 61.3881L170.841 60.2735C170.649 60.4854 170.34 60.5369 170.108 60.3953C169.876 60.2538 169.789 59.9604 169.901 59.7005L170.463 58.3552C170.493 58.2835 170.537 58.2177 170.592 58.1618L170.592 58.1618Z" fill="white"/>
<rect x="151" y="86" width="84" height="37" rx="6" fill="#305680"/>
<path d="M190.717 101.822C190.033 101.822 189.504 102.08 189.129 102.596C188.754 103.107 188.566 103.822 188.566 104.74C188.566 106.65 189.283 107.605 190.717 107.605C191.318 107.605 192.047 107.455 192.902 107.154V108.678C192.199 108.971 191.414 109.117 190.547 109.117C189.301 109.117 188.348 108.74 187.688 107.986C187.027 107.229 186.697 106.143 186.697 104.729C186.697 103.838 186.859 103.059 187.184 102.391C187.508 101.719 187.973 101.205 188.578 100.85C189.188 100.49 189.9 100.311 190.717 100.311C191.549 100.311 192.385 100.512 193.225 100.914L192.639 102.391C192.318 102.238 191.996 102.105 191.672 101.992C191.348 101.879 191.029 101.822 190.717 101.822ZM196.014 105.713C196.014 106.361 196.119 106.852 196.33 107.184C196.545 107.516 196.893 107.682 197.373 107.682C197.85 107.682 198.191 107.518 198.398 107.189C198.609 106.857 198.715 106.365 198.715 105.713C198.715 105.064 198.609 104.578 198.398 104.254C198.188 103.93 197.842 103.768 197.361 103.768C196.885 103.768 196.541 103.93 196.33 104.254C196.119 104.574 196.014 105.061 196.014 105.713ZM200.543 105.713C200.543 106.779 200.262 107.613 199.699 108.215C199.137 108.816 198.354 109.117 197.35 109.117C196.721 109.117 196.166 108.98 195.686 108.707C195.205 108.43 194.836 108.033 194.578 107.518C194.32 107.002 194.191 106.4 194.191 105.713C194.191 104.643 194.471 103.811 195.029 103.217C195.588 102.623 196.373 102.326 197.385 102.326C198.014 102.326 198.568 102.463 199.049 102.736C199.529 103.01 199.898 103.402 200.156 103.914C200.414 104.426 200.543 105.025 200.543 105.713ZM207.404 109L206.783 106.961H203.66L203.039 109H201.082L204.105 100.398H206.326L209.361 109H207.404ZM206.35 105.438C205.775 103.59 205.451 102.545 205.377 102.303C205.307 102.061 205.256 101.869 205.225 101.729C205.096 102.229 204.727 103.465 204.117 105.438H206.35ZM212.262 104.465H212.859C213.418 104.465 213.836 104.355 214.113 104.137C214.391 103.914 214.529 103.592 214.529 103.17C214.529 102.744 214.412 102.43 214.178 102.227C213.947 102.023 213.584 101.922 213.088 101.922H212.262V104.465ZM216.363 103.105C216.363 104.027 216.074 104.732 215.496 105.221C214.922 105.709 214.104 105.953 213.041 105.953H212.262V109H210.445V100.434H213.182C214.221 100.434 215.01 100.658 215.549 101.107C216.092 101.553 216.363 102.219 216.363 103.105Z" fill="white"/>
<path fill-rule="evenodd" clip-rule="evenodd" d="M163.611 101.259C163.508 101.367 163.448 101.516 163.455 101.679C163.462 101.821 163.518 101.957 163.617 102.061C164.088 102.535 165.016 103.459 165.016 103.459L165.836 102.641C165.836 102.641 164.938 101.745 164.44 101.246C164.329 101.133 164.18 101.086 164.024 101.086C163.861 101.085 163.715 101.152 163.611 101.259L163.611 101.259ZM165.836 102.641L163.301 105.175C163.026 105.45 163.026 105.896 163.301 106.171L164.557 107.426L166.754 109.622L168.863 111.73C169.138 112.005 169.584 112.005 169.859 111.73L171.574 110.015L174.198 107.393L176.733 104.86C177.008 104.585 177.008 104.139 176.733 103.864L175.443 102.577L173.246 100.381L171.17 98.3065C170.895 98.0316 170.449 98.0316 170.174 98.3065L168.459 100.021L165.836 102.643L165.836 102.641ZM168.459 100.019C168.459 100.019 167.561 99.123 167.063 98.6245C166.952 98.5116 166.804 98.4645 166.647 98.4638C166.321 98.4622 166.063 98.7308 166.079 99.0573C166.085 99.1987 166.142 99.3353 166.24 99.4389C166.711 99.913 167.639 100.837 167.639 100.837L168.459 100.019L168.459 100.019ZM173.247 100.38C173.247 100.38 174.143 99.4827 174.642 98.9846C174.755 98.8737 174.802 98.7253 174.803 98.5688C174.805 98.2427 174.536 97.9856 174.209 98.0006C174.068 98.0073 173.931 98.0638 173.827 98.1623C173.353 98.6329 172.428 99.5608 172.428 99.5608L173.247 100.38L173.247 100.38ZM175.444 102.576C175.444 102.576 176.34 101.679 176.839 101.18C176.952 101.07 176.999 100.921 177 100.765C177.002 100.438 176.733 100.181 176.406 100.196C176.265 100.203 176.128 100.26 176.024 100.358C175.55 100.829 174.625 101.757 174.625 101.757L175.444 102.576L175.444 102.576ZM174.197 107.393C174.197 107.393 175.095 108.29 175.594 108.788C175.705 108.901 175.853 108.948 176.01 108.949C176.336 108.95 176.593 108.682 176.578 108.355L176.578 108.355C176.571 108.214 176.515 108.077 176.416 107.974C175.945 107.5 175.017 106.575 175.017 106.575L174.197 107.393L174.197 107.393ZM171.574 110.015C171.574 110.015 172.472 110.911 172.97 111.41C173.081 111.523 173.23 111.57 173.386 111.571C173.713 111.572 173.97 111.304 173.955 110.977H173.955C173.948 110.836 173.891 110.699 173.793 110.595C173.322 110.121 172.394 109.197 172.394 109.197L171.574 110.015L171.574 110.015ZM166.753 109.62C166.753 109.62 165.857 110.517 165.358 111.015C165.245 111.126 165.198 111.275 165.197 111.431C165.196 111.757 165.464 112.014 165.791 111.999H165.791C165.932 111.993 166.069 111.936 166.173 111.838C166.647 111.367 167.572 110.439 167.572 110.439L166.754 109.624L166.753 109.62ZM164.556 107.424C164.556 107.424 163.66 108.321 163.161 108.82C163.048 108.93 163.001 109.079 163 109.235C162.998 109.561 163.267 109.818 163.594 109.805H163.594C163.735 109.798 163.872 109.742 163.976 109.643C164.45 109.173 165.375 108.245 165.375 108.245L164.556 107.424L164.556 107.424ZM170.592 101.162C170.708 101.044 170.866 100.978 171.028 100.98C171.143 100.982 171.253 101.018 171.343 101.085L172.485 101.921C172.706 102.08 172.772 102.382 172.639 102.634C172.507 102.887 172.216 103.016 171.951 102.94L172.374 104.596C172.451 104.897 172.266 105.217 171.961 105.31L168.872 106.252L169.442 108.457C169.523 108.759 169.338 109.083 169.03 109.177C168.722 109.271 168.409 109.1 168.334 108.796L167.622 106.046C167.544 105.745 167.729 105.425 168.036 105.331L171.126 104.388L170.841 103.273C170.649 103.485 170.34 103.537 170.108 103.395C169.876 103.254 169.789 102.96 169.901 102.701L170.463 101.355C170.493 101.283 170.537 101.218 170.592 101.162L170.592 101.162Z" fill="white"/>
<path d="M242 62L262 62" stroke="#28232D"/>
<path d="M238.429 62.8575C237.782 62.4691 237.782 61.5309 238.429 61.1425L240.486 59.9087C241.152 59.5088 242 59.9889 242 60.7662L242 63.2338C242 64.0111 241.152 64.4912 240.486 64.0913L238.429 62.8575Z" fill="#28232D"/>
<path d="M265.571 61.1425C266.218 61.5309 266.218 62.4691 265.571 62.8575L263.514 64.0913C262.848 64.4912 262 64.0111 262 63.2338L262 60.7662C262 59.9889 262.848 59.5088 263.514 59.9087L265.571 61.1425Z" fill="#28232D"/>
<path d="M410 62L400 62" stroke="#28232D"/>
<path d="M413.571 61.1425C414.218 61.5309 414.218 62.4691 413.571 62.8575L411.514 64.0913C410.848 64.4912 410 64.0111 410 63.2338L410 60.7662C410 59.9889 410.848 59.5088 411.514 59.9087L413.571 61.1425Z" fill="#28232D"/>
<path d="M396.429 62.8575C395.782 62.4691 395.782 61.5309 396.429 61.1425L398.486 59.9087C399.152 59.5088 400 59.9889 400 60.7662L400 63.2338C400 64.0111 399.152 64.4912 398.486 64.0913L396.429 62.8575Z" fill="#28232D"/>
<path d="M561 62L548 62" stroke="#28232D"/>
<path d="M544.429 62.8575C543.782 62.4691 543.782 61.5309 544.429 61.1425L546.486 59.9087C547.152 59.5088 548 59.9889 548 60.7662L548 63.2338C548 64.0111 547.152 64.4912 546.486 64.0913L544.429 62.8575Z" fill="#28232D"/>
<rect x="269" y="43" width="124" height="37" rx="6" fill="#305680"/>
<path d="M310.012 66H305.078V57.4336H310.012V58.9219H306.895V60.8027H309.795V62.291H306.895V64.5H310.012V66ZM313.738 66.1172C312.969 66.1172 312.363 65.8184 311.922 65.2207C311.484 64.623 311.266 63.7949 311.266 62.7363C311.266 61.6621 311.488 60.8262 311.934 60.2285C312.383 59.627 313 59.3262 313.785 59.3262C314.609 59.3262 315.238 59.6465 315.672 60.2871H315.73C315.641 59.7988 315.596 59.3633 315.596 58.9805V56.8828H317.389V66H316.018L315.672 65.1504H315.596C315.189 65.7949 314.57 66.1172 313.738 66.1172ZM314.365 64.6934C314.822 64.6934 315.156 64.5605 315.367 64.2949C315.582 64.0293 315.699 63.5781 315.719 62.9414V62.748C315.719 62.0449 315.609 61.541 315.391 61.2363C315.176 60.9316 314.824 60.7793 314.336 60.7793C313.938 60.7793 313.627 60.9492 313.404 61.2891C313.186 61.625 313.076 62.1152 313.076 62.7598C313.076 63.4043 313.188 63.8887 313.41 64.2129C313.633 64.5332 313.951 64.6934 314.365 64.6934ZM324.959 59.4492V60.3574L323.934 60.6211C324.121 60.9141 324.215 61.2422 324.215 61.6055C324.215 62.3086 323.969 62.8574 323.477 63.252C322.988 63.6426 322.309 63.8379 321.438 63.8379L321.115 63.8203L320.852 63.791C320.668 63.9316 320.576 64.0879 320.576 64.2598C320.576 64.5176 320.904 64.6465 321.561 64.6465H322.674C323.393 64.6465 323.939 64.8008 324.314 65.1094C324.693 65.418 324.883 65.8711 324.883 66.4688C324.883 67.2344 324.562 67.8281 323.922 68.25C323.285 68.6719 322.369 68.8828 321.174 68.8828C320.26 68.8828 319.561 68.7227 319.076 68.4023C318.596 68.0859 318.355 67.6406 318.355 67.0664C318.355 66.6719 318.479 66.3418 318.725 66.0762C318.971 65.8105 319.332 65.6211 319.809 65.5078C319.625 65.4297 319.465 65.3027 319.328 65.127C319.191 64.9473 319.123 64.7578 319.123 64.5586C319.123 64.3086 319.195 64.1016 319.34 63.9375C319.484 63.7695 319.693 63.6055 319.967 63.4453C319.623 63.2969 319.35 63.0586 319.146 62.7305C318.947 62.4023 318.848 62.0156 318.848 61.5703C318.848 60.8555 319.08 60.3027 319.545 59.9121C320.01 59.5215 320.674 59.3262 321.537 59.3262C321.721 59.3262 321.938 59.3438 322.188 59.3789C322.441 59.4102 322.604 59.4336 322.674 59.4492H324.959ZM319.902 66.9258C319.902 67.1719 320.02 67.3652 320.254 67.5059C320.492 67.6465 320.824 67.7168 321.25 67.7168C321.891 67.7168 322.393 67.6289 322.756 67.4531C323.119 67.2773 323.301 67.0371 323.301 66.7324C323.301 66.4863 323.193 66.3164 322.979 66.2227C322.764 66.1289 322.432 66.082 321.982 66.082H321.057C320.729 66.082 320.453 66.1582 320.23 66.3105C320.012 66.4668 319.902 66.6719 319.902 66.9258ZM320.553 61.5938C320.553 61.9492 320.633 62.2305 320.793 62.4375C320.957 62.6445 321.205 62.748 321.537 62.748C321.873 62.748 322.119 62.6445 322.275 62.4375C322.432 62.2305 322.51 61.9492 322.51 61.5938C322.51 60.8047 322.186 60.4102 321.537 60.4102C320.881 60.4102 320.553 60.8047 320.553 61.5938ZM328.756 60.5977C328.377 60.5977 328.08 60.7188 327.865 60.9609C327.65 61.1992 327.527 61.5391 327.496 61.9805H330.004C329.996 61.5391 329.881 61.1992 329.658 60.9609C329.436 60.7188 329.135 60.5977 328.756 60.5977ZM329.008 66.1172C327.953 66.1172 327.129 65.8262 326.535 65.2441C325.941 64.6621 325.645 63.8379 325.645 62.7715C325.645 61.6738 325.918 60.8262 326.465 60.2285C327.016 59.627 327.775 59.3262 328.744 59.3262C329.67 59.3262 330.391 59.5898 330.906 60.1172C331.422 60.6445 331.68 61.373 331.68 62.3027V63.1699H327.455C327.475 63.6777 327.625 64.0742 327.906 64.3594C328.188 64.6445 328.582 64.7871 329.09 64.7871C329.484 64.7871 329.857 64.7461 330.209 64.6641C330.561 64.582 330.928 64.4512 331.311 64.2715V65.6543C330.998 65.8105 330.664 65.9258 330.309 66C329.953 66.0781 329.52 66.1172 329.008 66.1172ZM340.029 58.8223C339.346 58.8223 338.816 59.0801 338.441 59.5957C338.066 60.1074 337.879 60.8223 337.879 61.7402C337.879 63.6504 338.596 64.6055 340.029 64.6055C340.631 64.6055 341.359 64.4551 342.215 64.1543V65.6777C341.512 65.9707 340.727 66.1172 339.859 66.1172C338.613 66.1172 337.66 65.7402 337 64.9863C336.34 64.2285 336.01 63.1426 336.01 61.7285C336.01 60.8379 336.172 60.0586 336.496 59.3906C336.82 58.7188 337.285 58.2051 337.891 57.8496C338.5 57.4902 339.213 57.3105 340.029 57.3105C340.861 57.3105 341.697 57.5117 342.537 57.9141L341.951 59.3906C341.631 59.2383 341.309 59.1055 340.984 58.9922C340.66 58.8789 340.342 58.8223 340.029 58.8223ZM345.326 62.7129C345.326 63.3613 345.432 63.8516 345.643 64.1836C345.857 64.5156 346.205 64.6816 346.686 64.6816C347.162 64.6816 347.504 64.5176 347.711 64.1895C347.922 63.8574 348.027 63.3652 348.027 62.7129C348.027 62.0645 347.922 61.5781 347.711 61.2539C347.5 60.9297 347.154 60.7676 346.674 60.7676C346.197 60.7676 345.854 60.9297 345.643 61.2539C345.432 61.5742 345.326 62.0605 345.326 62.7129ZM349.855 62.7129C349.855 63.7793 349.574 64.6133 349.012 65.2148C348.449 65.8164 347.666 66.1172 346.662 66.1172C346.033 66.1172 345.479 65.9805 344.998 65.707C344.518 65.4297 344.148 65.0332 343.891 64.5176C343.633 64.002 343.504 63.4004 343.504 62.7129C343.504 61.6426 343.783 60.8105 344.342 60.2168C344.9 59.623 345.686 59.3262 346.697 59.3262C347.326 59.3262 347.881 59.4629 348.361 59.7363C348.842 60.0098 349.211 60.4023 349.469 60.9141C349.727 61.4258 349.855 62.0254 349.855 62.7129ZM354.988 59.3262C355.23 59.3262 355.432 59.3438 355.592 59.3789L355.457 61.0547C355.312 61.0156 355.137 60.9961 354.93 60.9961C354.359 60.9961 353.914 61.1426 353.594 61.4355C353.277 61.7285 353.119 62.1387 353.119 62.666V66H351.332V59.4492H352.686L352.949 60.5508H353.037C353.24 60.1836 353.514 59.8887 353.857 59.666C354.205 59.4395 354.582 59.3262 354.988 59.3262ZM359.494 60.5977C359.115 60.5977 358.818 60.7188 358.604 60.9609C358.389 61.1992 358.266 61.5391 358.234 61.9805H360.742C360.734 61.5391 360.619 61.1992 360.396 60.9609C360.174 60.7188 359.873 60.5977 359.494 60.5977ZM359.746 66.1172C358.691 66.1172 357.867 65.8262 357.273 65.2441C356.68 64.6621 356.383 63.8379 356.383 62.7715C356.383 61.6738 356.656 60.8262 357.203 60.2285C357.754 59.627 358.514 59.3262 359.482 59.3262C360.408 59.3262 361.129 59.5898 361.645 60.1172C362.16 60.6445 362.418 61.373 362.418 62.3027V63.1699H358.193C358.213 63.6777 358.363 64.0742 358.645 64.3594C358.926 64.6445 359.32 64.7871 359.828 64.7871C360.223 64.7871 360.596 64.7461 360.947 64.6641C361.299 64.582 361.666 64.4512 362.049 64.2715V65.6543C361.736 65.8105 361.402 65.9258 361.047 66C360.691 66.0781 360.258 66.1172 359.746 66.1172Z" fill="white"/>
<path fill-rule="evenodd" clip-rule="evenodd" d="M281.611 58.2594C281.508 58.3671 281.448 58.5159 281.455 58.6792C281.462 58.8206 281.518 58.9572 281.617 59.0608C282.088 59.5349 283.016 60.4593 283.016 60.4593L283.836 59.6412C283.836 59.6412 282.938 58.7449 282.44 58.2463C282.329 58.1334 282.18 58.0863 282.024 58.0856C281.861 58.0848 281.715 58.1516 281.611 58.2593L281.611 58.2594ZM283.836 59.6412L281.301 62.175C281.026 62.4499 281.026 62.8956 281.301 63.1706L282.557 64.4262L284.754 66.622L286.863 68.7297C287.138 69.0046 287.584 69.0046 287.859 68.7297L289.574 67.0153L292.198 64.3934L294.733 61.8596C295.008 61.5847 295.008 61.1389 294.733 60.864L293.443 59.5771L291.246 57.3814L289.17 55.3065C288.895 55.0316 288.449 55.0316 288.174 55.3065L286.459 57.0209L283.836 59.6428L283.836 59.6412ZM286.459 57.0193C286.459 57.0193 285.561 56.123 285.063 55.6245C284.952 55.5116 284.804 55.4645 284.647 55.4638C284.321 55.4622 284.063 55.7308 284.079 56.0573C284.085 56.1987 284.142 56.3353 284.24 56.4389C284.711 56.913 285.639 57.8374 285.639 57.8374L286.459 57.0193L286.459 57.0193ZM291.247 57.3799C291.247 57.3799 292.143 56.4827 292.642 55.9846C292.755 55.8737 292.802 55.7253 292.803 55.5688C292.805 55.2427 292.536 54.9856 292.209 55.0006C292.068 55.0073 291.931 55.0638 291.827 55.1623C291.353 55.6329 290.428 56.5608 290.428 56.5608L291.247 57.3798L291.247 57.3799ZM293.444 59.5757C293.444 59.5757 294.34 58.6785 294.839 58.1804C294.952 58.0695 294.999 57.9211 295 57.7647C295.002 57.4385 294.733 57.1814 294.406 57.1965C294.265 57.2031 294.128 57.2596 294.024 57.3581C293.55 57.8287 292.625 58.7566 292.625 58.7566L293.444 59.5757L293.444 59.5757ZM292.197 64.3933C292.197 64.3933 293.095 65.2896 293.594 65.788C293.705 65.9009 293.853 65.948 294.01 65.9487C294.336 65.9503 294.593 65.6817 294.578 65.3552L294.578 65.3553C294.571 65.2139 294.515 65.0772 294.416 64.9737C293.945 64.4996 293.017 63.5752 293.017 63.5752L292.197 64.3933L292.197 64.3933ZM289.574 67.0151C289.574 67.0151 290.472 67.9114 290.97 68.4099C291.081 68.5227 291.23 68.5699 291.386 68.5706C291.713 68.5722 291.97 68.3035 291.955 67.977H291.955C291.948 67.8356 291.891 67.699 291.793 67.5955C291.322 67.1214 290.394 66.1969 290.394 66.1969L289.574 67.015L289.574 67.0151ZM284.753 66.62C284.753 66.62 283.857 67.5171 283.358 68.0154C283.245 68.1263 283.198 68.2747 283.197 68.4311C283.196 68.7573 283.464 69.0144 283.791 68.9994H283.791C283.932 68.9927 284.069 68.9362 284.173 68.8377C284.647 68.3672 285.572 67.4392 285.572 67.4392L284.754 66.6241L284.753 66.62ZM282.556 64.4242C282.556 64.4242 281.66 65.3213 281.161 65.8196C281.048 65.9303 281.001 66.0786 281 66.2353C280.998 66.5612 281.267 66.8181 281.594 66.805H281.594C281.735 66.7983 281.872 66.7418 281.976 66.6433C282.45 66.1728 283.375 65.2448 283.375 65.2448L282.556 64.4244L282.556 64.4242ZM288.592 58.1618C288.708 58.0438 288.866 57.9778 289.028 57.9802C289.143 57.9818 289.253 58.0182 289.343 58.0846L290.485 58.9213C290.706 59.0802 290.772 59.3818 290.639 59.6344C290.507 59.887 290.216 60.0165 289.951 59.9403L290.374 61.5964C290.451 61.8973 290.266 62.2165 289.961 62.3098L286.872 63.2525L287.442 65.4573C287.523 65.7594 287.338 66.0827 287.03 66.1769C286.722 66.2711 286.409 66.1001 286.334 65.7962L285.622 63.0461C285.544 62.7449 285.729 62.4247 286.036 62.3312L289.126 61.3881L288.841 60.2735C288.649 60.4854 288.34 60.5369 288.108 60.3953C287.876 60.2538 287.789 59.9604 287.901 59.7005L288.463 58.3552C288.493 58.2835 288.537 58.2177 288.592 58.1618L288.592 58.1618Z" fill="white"/>
<rect x="6.5" y="37.5" width="100" height="36" rx="5.5" fill="white" stroke="#05172A"/>
<rect x="3.5" y="40.5" width="100" height="36" rx="5.5" fill="white" stroke="#05172A"/>
<rect x="0.5" y="43.5" width="100" height="36" rx="5.5" fill="white" stroke="#05172A"/>
<path d="M43.0977 61.6348C43.0977 63.0488 42.7051 64.1309 41.9199 64.8809C41.1348 65.627 40.0039 66 38.5273 66H36.1309V57.4336H38.7793C40.1426 57.4336 41.2031 57.8008 41.9609 58.5352C42.7188 59.2695 43.0977 60.3027 43.0977 61.6348ZM41.6211 61.6816C41.6211 59.6309 40.6621 58.6055 38.7441 58.6055H37.5312V64.8223H38.5273C40.5898 64.8223 41.6211 63.7754 41.6211 61.6816ZM47.627 66.1172C46.6191 66.1172 45.8301 65.8242 45.2598 65.2383C44.6934 64.6484 44.4102 63.8379 44.4102 62.8066C44.4102 61.748 44.6738 60.916 45.2012 60.3105C45.7285 59.7051 46.4531 59.4023 47.375 59.4023C48.2305 59.4023 48.9062 59.6621 49.4023 60.1816C49.8984 60.7012 50.1465 61.416 50.1465 62.3262V63.0703H45.8281C45.8477 63.6992 46.0176 64.1836 46.3379 64.5234C46.6582 64.8594 47.1094 65.0273 47.6914 65.0273C48.0742 65.0273 48.4297 64.9922 48.7578 64.9219C49.0898 64.8477 49.4453 64.7266 49.8242 64.5586V65.6777C49.4883 65.8379 49.1484 65.9512 48.8047 66.0176C48.4609 66.084 48.0684 66.1172 47.627 66.1172ZM47.375 60.4453C46.9375 60.4453 46.5859 60.584 46.3203 60.8613C46.0586 61.1387 45.9023 61.543 45.8516 62.0742H48.793C48.7852 61.5391 48.6562 61.1348 48.4062 60.8613C48.1562 60.584 47.8125 60.4453 47.375 60.4453ZM53.1875 66L50.7266 59.5195H52.1797L53.498 63.2871C53.7246 63.9199 53.8613 64.4316 53.9082 64.8223H53.9551C53.9902 64.541 54.127 64.0293 54.3652 63.2871L55.6836 59.5195H57.1484L54.6758 66H53.1875ZM59.5098 66H58.1328V59.5195H59.5098V66ZM58.0508 57.8027C58.0508 57.5566 58.1172 57.3672 58.25 57.2344C58.3867 57.1016 58.5801 57.0352 58.8301 57.0352C59.0723 57.0352 59.2598 57.1016 59.3926 57.2344C59.5293 57.3672 59.5977 57.5566 59.5977 57.8027C59.5977 58.0371 59.5293 58.2227 59.3926 58.3594C59.2598 58.4922 59.0723 58.5586 58.8301 58.5586C58.5801 58.5586 58.3867 58.4922 58.25 58.3594C58.1172 58.2227 58.0508 58.0371 58.0508 57.8027ZM64.0977 66.1172C63.1172 66.1172 62.3711 65.832 61.8594 65.2617C61.3516 64.6875 61.0977 63.8652 61.0977 62.7949C61.0977 61.7051 61.3633 60.8672 61.8945 60.2812C62.4297 59.6953 63.2012 59.4023 64.209 59.4023C64.8926 59.4023 65.5078 59.5293 66.0547 59.7832L65.6387 60.8906C65.0566 60.6641 64.5762 60.5508 64.1973 60.5508C63.0762 60.5508 62.5156 61.2949 62.5156 62.7832C62.5156 63.5098 62.6543 64.0566 62.9316 64.4238C63.2129 64.7871 63.623 64.9688 64.1621 64.9688C64.7754 64.9688 65.3555 64.8164 65.9023 64.5117V65.7129C65.6562 65.8574 65.3926 65.9609 65.1113 66.0234C64.834 66.0859 64.4961 66.1172 64.0977 66.1172ZM70.2559 66.1172C69.248 66.1172 68.459 65.8242 67.8887 65.2383C67.3223 64.6484 67.0391 63.8379 67.0391 62.8066C67.0391 61.748 67.3027 60.916 67.8301 60.3105C68.3574 59.7051 69.082 59.4023 70.0039 59.4023C70.8594 59.4023 71.5352 59.6621 72.0312 60.1816C72.5273 60.7012 72.7754 61.416 72.7754 62.3262V63.0703H68.457C68.4766 63.6992 68.6465 64.1836 68.9668 64.5234C69.2871 64.8594 69.7383 65.0273 70.3203 65.0273C70.7031 65.0273 71.0586 64.9922 71.3867 64.9219C71.7188 64.8477 72.0742 64.7266 72.4531 64.5586V65.6777C72.1172 65.8379 71.7773 65.9512 71.4336 66.0176C71.0898 66.084 70.6973 66.1172 70.2559 66.1172ZM70.0039 60.4453C69.5664 60.4453 69.2148 60.584 68.9492 60.8613C68.6875 61.1387 68.5312 61.543 68.4805 62.0742H71.4219C71.4141 61.5391 71.2852 61.1348 71.0352 60.8613C70.7852 60.584 70.4414 60.4453 70.0039 60.4453ZM78.6934 64.1543C78.6934 64.7871 78.4629 65.2734 78.002 65.6133C77.541 65.9492 76.8809 66.1172 76.0215 66.1172C75.1582 66.1172 74.4648 65.9863 73.9414 65.7246V64.5352C74.7031 64.8867 75.4121 65.0625 76.0684 65.0625C76.916 65.0625 77.3398 64.8066 77.3398 64.2949C77.3398 64.1309 77.293 63.9941 77.1992 63.8848C77.1055 63.7754 76.9512 63.6621 76.7363 63.5449C76.5215 63.4277 76.2227 63.2949 75.8398 63.1465C75.0938 62.8574 74.5879 62.5684 74.3223 62.2793C74.0605 61.9902 73.9297 61.6152 73.9297 61.1543C73.9297 60.5996 74.1523 60.1699 74.5977 59.8652C75.0469 59.5566 75.6562 59.4023 76.4258 59.4023C77.1875 59.4023 77.9082 59.5566 78.5879 59.8652L78.1426 60.9023C77.4434 60.6133 76.8555 60.4688 76.3789 60.4688C75.6523 60.4688 75.2891 60.6758 75.2891 61.0898C75.2891 61.293 75.3828 61.4648 75.5703 61.6055C75.7617 61.7461 76.1758 61.9395 76.8125 62.1855C77.3477 62.3926 77.7363 62.582 77.9785 62.7539C78.2207 62.9258 78.4004 63.125 78.5176 63.3516C78.6348 63.5742 78.6934 63.8418 78.6934 64.1543Z" fill="#05172A"/>
<path fill-rule="evenodd" clip-rule="evenodd" d="M17 55.5C17 55.2239 17.2239 55 17.5 55C17.7761 55 18 55.2239 18 55.5V57H20V55.5C20 55.2239 20.2239 55 20.5 55C20.7761 55 21 55.2239 21 55.5V57H22C23.1046 57 24 57.8954 24 59V60H25.5C25.7761 60 26 60.2239 26 60.5C26 60.7761 25.7761 61 25.5 61H24V63H25.5C25.7761 63 26 63.2239 26 63.5C26 63.7761 25.7761 64 25.5 64H24V65C24 66.1046 23.1046 67 22 67H21V68.5C21 68.7761 20.7761 69 20.5 69C20.2239 69 20 68.7761 20 68.5V67H18V68.5C18 68.7761 17.7761 69 17.5 69C17.2239 69 17 68.7761 17 68.5V67H16C14.8954 67 14 66.1046 14 65V64H12.5C12.2239 64 12 63.7761 12 63.5C12 63.2239 12.2239 63 12.5 63H14V61H12.5C12.2239 61 12 60.7761 12 60.5C12 60.2239 12.2239 60 12.5 60H14V59C14 57.8954 14.8954 57 16 57H17V55.5ZM17 62C17 60.8954 17.8954 60 19 60C20.1046 60 21 60.8954 21 62C21 63.1046 20.1046 64 19 64C17.8954 64 17 63.1046 17 62ZM19 61C18.4477 61 18 61.4477 18 62C18 62.5523 18.4477 63 19 63C19.5523 63 20 62.5523 20 62C20 61.4477 19.5523 61 19 61Z" fill="#305680"/>
<path d="M119.348 85.8008C118.72 85.8008 118.224 86.0104 117.859 86.4297C117.497 86.8464 117.316 87.418 117.316 88.1445C117.316 88.8919 117.491 89.4701 117.84 89.8789C118.191 90.2852 118.691 90.4883 119.34 90.4883C119.738 90.4883 120.193 90.4167 120.703 90.2734V90.8555C120.307 91.0039 119.819 91.0781 119.238 91.0781C118.397 91.0781 117.747 90.8229 117.289 90.3125C116.833 89.8021 116.605 89.0768 116.605 88.1367C116.605 87.5482 116.715 87.0326 116.934 86.5898C117.155 86.1471 117.473 85.806 117.887 85.5664C118.303 85.3268 118.793 85.207 119.355 85.207C119.954 85.207 120.478 85.3164 120.926 85.5352L120.645 86.1055C120.212 85.9023 119.78 85.8008 119.348 85.8008ZM125.547 88.8555C125.547 89.5534 125.371 90.099 125.02 90.4922C124.668 90.8828 124.182 91.0781 123.562 91.0781C123.18 91.0781 122.84 90.9883 122.543 90.8086C122.246 90.6289 122.017 90.3711 121.855 90.0352C121.694 89.6992 121.613 89.306 121.613 88.8555C121.613 88.1576 121.788 87.6146 122.137 87.2266C122.486 86.8359 122.97 86.6406 123.59 86.6406C124.189 86.6406 124.664 86.8398 125.016 87.2383C125.37 87.6367 125.547 88.1758 125.547 88.8555ZM122.285 88.8555C122.285 89.4023 122.395 89.819 122.613 90.1055C122.832 90.3919 123.154 90.5352 123.578 90.5352C124.003 90.5352 124.324 90.3932 124.543 90.1094C124.764 89.8229 124.875 89.4049 124.875 88.8555C124.875 88.3112 124.764 87.8984 124.543 87.6172C124.324 87.3333 124 87.1914 123.57 87.1914C123.146 87.1914 122.826 87.3307 122.609 87.6094C122.393 87.888 122.285 88.3034 122.285 88.8555ZM130.375 91L129.664 89.1836H127.375L126.672 91H126L128.258 85.2656H128.816L131.062 91H130.375ZM129.457 88.5859L128.793 86.8164C128.707 86.5924 128.618 86.3177 128.527 85.9922C128.47 86.2422 128.388 86.5169 128.281 86.8164L127.609 88.5859H129.457ZM135.469 86.9531C135.469 87.5312 135.271 87.9766 134.875 88.2891C134.482 88.599 133.918 88.7539 133.184 88.7539H132.512V91H131.848V85.2891H133.328C134.755 85.2891 135.469 85.8438 135.469 86.9531ZM132.512 88.1836H133.109C133.698 88.1836 134.124 88.0885 134.387 87.8984C134.65 87.7083 134.781 87.4036 134.781 86.9844C134.781 86.6068 134.658 86.3255 134.41 86.1406C134.163 85.9557 133.777 85.8633 133.254 85.8633H132.512V88.1836Z" fill="#05172A"/>
<path fill-rule="evenodd" clip-rule="evenodd" d="M139 61.5L144 61.5L144 62.5L139 62.5L139 61.5ZM114 61.5L108 61.5L108 62.5L114 62.5L114 61.5Z" fill="#28232D"/>
<path d="M104.429 62.8575C103.782 62.4691 103.782 61.5309 104.429 61.1425L106.486 59.9087C107.152 59.5088 108 59.9889 108 60.7662L108 63.2338C108 64.0111 107.152 64.4912 106.486 64.0913L104.429 62.8575Z" fill="#28232D"/>
<path d="M147.571 61.1425C148.218 61.5309 148.218 62.4691 147.571 62.8575L145.514 64.0913C144.848 64.4912 144 64.0111 144 63.2338L144 60.7662C144 59.9889 144.848 59.5088 145.514 59.9087L147.571 61.1425Z" fill="#28232D"/>
<path d="M118.652 65L116.715 59.9375H116.684C116.72 60.3385 116.738 60.8151 116.738 61.3672V65H116.125V59.2891H117.125L118.934 64H118.965L120.789 59.2891H121.781V65H121.117V61.3203C121.117 60.8984 121.135 60.4401 121.172 59.9453H121.141L119.188 65H118.652ZM128.309 62.1367C128.309 62.8685 128.161 63.4766 127.867 63.9609C127.573 64.4453 127.158 64.7734 126.621 64.9453L127.98 66.3594H127.016L125.902 65.0703L125.688 65.0781C124.846 65.0781 124.197 64.8216 123.738 64.3086C123.283 63.793 123.055 63.0664 123.055 62.1289C123.055 61.1992 123.284 60.4792 123.742 59.9688C124.201 59.4557 124.852 59.1992 125.695 59.1992C126.516 59.1992 127.156 59.4596 127.617 59.9805C128.078 60.5013 128.309 61.2201 128.309 62.1367ZM123.758 62.1367C123.758 62.9102 123.922 63.4974 124.25 63.8984C124.581 64.2969 125.06 64.4961 125.688 64.4961C126.32 64.4961 126.798 64.2969 127.121 63.8984C127.444 63.5 127.605 62.9128 127.605 62.1367C127.605 61.3685 127.444 60.7865 127.121 60.3906C126.801 59.9922 126.326 59.793 125.695 59.793C125.062 59.793 124.581 59.9935 124.25 60.3945C123.922 60.793 123.758 61.3737 123.758 62.1367ZM131.344 65H130.68V59.8789H128.871V59.2891H133.152V59.8789H131.344V65ZM135.773 65H135.109V59.8789H133.301V59.2891H137.582V59.8789H135.773V65Z" fill="#05172A"/>
<path d="M568.281 56.625V59H567.617V53.2891H569.184C569.884 53.2891 570.401 53.4232 570.734 53.6914C571.07 53.9596 571.238 54.3633 571.238 54.9023C571.238 55.6576 570.855 56.168 570.09 56.4336L571.641 59H570.855L569.473 56.625H568.281ZM568.281 56.0547H569.191C569.66 56.0547 570.004 55.9622 570.223 55.7773C570.441 55.5898 570.551 55.3099 570.551 54.9375C570.551 54.5599 570.439 54.2878 570.215 54.1211C569.993 53.9544 569.637 53.8711 569.145 53.8711H568.281V56.0547ZM575.746 59H572.562V53.2891H575.746V53.8789H573.227V55.7188H575.594V56.3047H573.227V58.4062H575.746V59ZM580.238 57.4805C580.238 57.9831 580.056 58.375 579.691 58.6562C579.327 58.9375 578.832 59.0781 578.207 59.0781C577.53 59.0781 577.009 58.9909 576.645 58.8164V58.1758C576.879 58.2747 577.134 58.3529 577.41 58.4102C577.686 58.4674 577.96 58.4961 578.23 58.4961C578.673 58.4961 579.007 58.4128 579.23 58.2461C579.454 58.0768 579.566 57.8424 579.566 57.543C579.566 57.3451 579.526 57.1836 579.445 57.0586C579.367 56.931 579.234 56.8138 579.047 56.707C578.862 56.6003 578.579 56.4792 578.199 56.3438C577.668 56.1536 577.288 55.9284 577.059 55.668C576.832 55.4076 576.719 55.0677 576.719 54.6484C576.719 54.2083 576.884 53.8581 577.215 53.5977C577.546 53.3372 577.983 53.207 578.527 53.207C579.095 53.207 579.617 53.3112 580.094 53.5195L579.887 54.0977C579.415 53.8997 578.957 53.8008 578.512 53.8008C578.16 53.8008 577.885 53.8763 577.688 54.0273C577.49 54.1784 577.391 54.388 577.391 54.6562C577.391 54.8542 577.427 55.0169 577.5 55.1445C577.573 55.2695 577.695 55.3854 577.867 55.4922C578.042 55.5964 578.307 55.7122 578.664 55.8398C579.263 56.0534 579.674 56.2826 579.898 56.5273C580.125 56.7721 580.238 57.0898 580.238 57.4805ZM583.164 59H582.5V53.8789H580.691V53.2891H584.973V53.8789H583.164V59ZM591.504 59L590.793 57.1836H588.504L587.801 59H587.129L589.387 53.2656H589.945L592.191 59H591.504ZM590.586 56.5859L589.922 54.8164C589.836 54.5924 589.747 54.3177 589.656 53.9922C589.599 54.2422 589.517 54.5169 589.41 54.8164L588.738 56.5859H590.586ZM596.598 54.9531C596.598 55.5312 596.4 55.9766 596.004 56.2891C595.611 56.599 595.047 56.7539 594.312 56.7539H593.641V59H592.977V53.2891H594.457C595.884 53.2891 596.598 53.8438 596.598 54.9531ZM593.641 56.1836H594.238C594.827 56.1836 595.253 56.0885 595.516 55.8984C595.779 55.7083 595.91 55.4036 595.91 54.9844C595.91 54.6068 595.786 54.3255 595.539 54.1406C595.292 53.9557 594.906 53.8633 594.383 53.8633H593.641V56.1836ZM597.797 59V53.2891H598.461V59H597.797ZM602.941 54.4258C602.941 54.6055 602.988 54.7773 603.082 54.9414C603.176 55.1029 603.336 55.2982 603.562 55.5273C603.898 55.332 604.132 55.1523 604.262 54.9883C604.395 54.8216 604.461 54.6302 604.461 54.4141C604.461 54.2135 604.393 54.0508 604.258 53.9258C604.125 53.7982 603.947 53.7344 603.723 53.7344C603.491 53.7344 603.302 53.7969 603.156 53.9219C603.013 54.0469 602.941 54.2148 602.941 54.4258ZM603.547 58.4961C604.174 58.4961 604.695 58.2956 605.109 57.8945L603.402 56.2383C603.113 56.4154 602.909 56.5625 602.789 56.6797C602.669 56.7943 602.581 56.918 602.523 57.0508C602.466 57.1836 602.438 57.3346 602.438 57.5039C602.438 57.8086 602.538 58.0508 602.738 58.2305C602.941 58.4076 603.211 58.4961 603.547 58.4961ZM601.766 57.5195C601.766 57.181 601.855 56.8815 602.035 56.6211C602.217 56.3607 602.543 56.0977 603.012 55.832C602.79 55.5846 602.639 55.3971 602.559 55.2695C602.48 55.1419 602.418 55.0091 602.371 54.8711C602.324 54.7331 602.301 54.5898 602.301 54.4414C602.301 54.0508 602.428 53.7461 602.684 53.5273C602.939 53.3086 603.294 53.1992 603.75 53.1992C604.172 53.1992 604.504 53.3086 604.746 53.5273C604.988 53.7435 605.109 54.0456 605.109 54.4336C605.109 54.7122 605.021 54.9701 604.844 55.207C604.667 55.4414 604.374 55.6797 603.965 55.9219L605.555 57.4492C605.701 57.2878 605.816 57.099 605.902 56.8828C605.991 56.6641 606.065 56.4258 606.125 56.168H606.781C606.604 56.9128 606.337 57.4779 605.98 57.8633L607.148 59H606.254L605.531 58.3047C605.224 58.5807 604.911 58.7786 604.594 58.8984C604.276 59.0182 603.922 59.0781 603.531 59.0781C602.971 59.0781 602.536 58.9401 602.227 58.6641C601.919 58.388 601.766 58.0065 601.766 57.5195ZM570.176 70H569.52L568.367 66.1758C568.312 66.0065 568.251 65.793 568.184 65.5352C568.116 65.2773 568.081 65.1224 568.078 65.0703C568.021 65.4141 567.93 65.7904 567.805 66.1992L566.688 70H566.031L564.512 64.2891H565.215L566.117 67.8164C566.242 68.3112 566.333 68.7591 566.391 69.1602C566.461 68.6836 566.565 68.2174 566.703 67.7617L567.727 64.2891H568.43L569.504 67.793C569.629 68.1966 569.734 68.6523 569.82 69.1602C569.87 68.7904 569.964 68.3398 570.102 67.8086L571 64.2891H571.703L570.176 70ZM574.309 70.0781C573.676 70.0781 573.176 69.8854 572.809 69.5C572.444 69.1146 572.262 68.5794 572.262 67.8945C572.262 67.2044 572.431 66.6562 572.77 66.25C573.111 65.8438 573.568 65.6406 574.141 65.6406C574.677 65.6406 575.102 65.8177 575.414 66.1719C575.727 66.5234 575.883 66.9883 575.883 67.5664V67.9766H572.934C572.947 68.4792 573.073 68.8607 573.312 69.1211C573.555 69.3815 573.895 69.5117 574.332 69.5117C574.793 69.5117 575.249 69.4154 575.699 69.2227V69.8008C575.47 69.8997 575.253 69.9701 575.047 70.0117C574.844 70.056 574.598 70.0781 574.309 70.0781ZM574.133 66.1836C573.789 66.1836 573.514 66.2956 573.309 66.5195C573.105 66.7435 572.986 67.0534 572.949 67.4492H575.188C575.188 67.0404 575.096 66.7279 574.914 66.5117C574.732 66.293 574.471 66.1836 574.133 66.1836ZM578.984 65.6484C579.547 65.6484 579.983 65.8411 580.293 66.2266C580.605 66.6094 580.762 67.1523 580.762 67.8555C580.762 68.5586 580.604 69.1055 580.289 69.4961C579.977 69.8841 579.542 70.0781 578.984 70.0781C578.706 70.0781 578.451 70.0273 578.219 69.9258C577.99 69.8216 577.797 69.6628 577.641 69.4492H577.594L577.457 70H576.992V63.9219H577.641V65.3984C577.641 65.7292 577.63 66.026 577.609 66.2891H577.641C577.943 65.862 578.391 65.6484 578.984 65.6484ZM578.891 66.1914C578.448 66.1914 578.129 66.319 577.934 66.5742C577.738 66.8268 577.641 67.2539 577.641 67.8555C577.641 68.457 577.741 68.888 577.941 69.1484C578.142 69.4062 578.464 69.5352 578.906 69.5352C579.305 69.5352 579.602 69.3906 579.797 69.1016C579.992 68.8099 580.09 68.3919 580.09 67.8477C580.09 67.2904 579.992 66.875 579.797 66.6016C579.602 66.3281 579.299 66.1914 578.891 66.1914ZM585.219 68.4805C585.219 68.9831 585.036 69.375 584.672 69.6562C584.307 69.9375 583.812 70.0781 583.188 70.0781C582.51 70.0781 581.99 69.9909 581.625 69.8164V69.1758C581.859 69.2747 582.115 69.3529 582.391 69.4102C582.667 69.4674 582.94 69.4961 583.211 69.4961C583.654 69.4961 583.987 69.4128 584.211 69.2461C584.435 69.0768 584.547 68.8424 584.547 68.543C584.547 68.3451 584.507 68.1836 584.426 68.0586C584.348 67.931 584.215 67.8138 584.027 67.707C583.842 67.6003 583.56 67.4792 583.18 67.3438C582.648 67.1536 582.268 66.9284 582.039 66.668C581.812 66.4076 581.699 66.0677 581.699 65.6484C581.699 65.2083 581.865 64.8581 582.195 64.5977C582.526 64.3372 582.964 64.207 583.508 64.207C584.076 64.207 584.598 64.3112 585.074 64.5195L584.867 65.0977C584.396 64.8997 583.938 64.8008 583.492 64.8008C583.141 64.8008 582.866 64.8763 582.668 65.0273C582.47 65.1784 582.371 65.388 582.371 65.6562C582.371 65.8542 582.408 66.0169 582.48 66.1445C582.553 66.2695 582.676 66.3854 582.848 66.4922C583.022 66.5964 583.288 66.7122 583.645 66.8398C584.243 67.0534 584.655 67.2826 584.879 67.5273C585.105 67.7721 585.219 68.0898 585.219 68.4805ZM589.984 67.8555C589.984 68.5534 589.809 69.099 589.457 69.4922C589.105 69.8828 588.62 70.0781 588 70.0781C587.617 70.0781 587.277 69.9883 586.98 69.8086C586.684 69.6289 586.454 69.3711 586.293 69.0352C586.132 68.6992 586.051 68.306 586.051 67.8555C586.051 67.1576 586.225 66.6146 586.574 66.2266C586.923 65.8359 587.408 65.6406 588.027 65.6406C588.626 65.6406 589.102 65.8398 589.453 66.2383C589.807 66.6367 589.984 67.1758 589.984 67.8555ZM586.723 67.8555C586.723 68.4023 586.832 68.819 587.051 69.1055C587.27 69.3919 587.591 69.5352 588.016 69.5352C588.44 69.5352 588.762 69.3932 588.98 69.1094C589.202 68.8229 589.312 68.4049 589.312 67.8555C589.312 67.3112 589.202 66.8984 588.98 66.6172C588.762 66.3333 588.438 66.1914 588.008 66.1914C587.583 66.1914 587.263 66.3307 587.047 66.6094C586.831 66.888 586.723 67.3034 586.723 67.8555ZM592.836 70.0781C592.216 70.0781 591.736 69.888 591.395 69.5078C591.056 69.125 590.887 68.5846 590.887 67.8867C590.887 67.1706 591.059 66.6172 591.402 66.2266C591.749 65.8359 592.241 65.6406 592.879 65.6406C593.085 65.6406 593.29 65.6628 593.496 65.707C593.702 65.7513 593.863 65.8034 593.98 65.8633L593.781 66.4141C593.638 66.3568 593.482 66.3099 593.312 66.2734C593.143 66.2344 592.993 66.2148 592.863 66.2148C591.993 66.2148 591.559 66.7695 591.559 67.8789C591.559 68.4049 591.664 68.8086 591.875 69.0898C592.089 69.3711 592.404 69.5117 592.82 69.5117C593.177 69.5117 593.543 69.4349 593.918 69.2812V69.8555C593.632 70.0039 593.271 70.0781 592.836 70.0781ZM595.578 67.8086C595.69 67.6497 595.861 67.4414 596.09 67.1836L597.473 65.7188H598.242L596.508 67.543L598.363 70H597.578L596.066 67.9766L595.578 68.3984V70H594.938V63.9219H595.578V67.1445C595.578 67.2878 595.568 67.5091 595.547 67.8086H595.578ZM600.949 70.0781C600.316 70.0781 599.816 69.8854 599.449 69.5C599.085 69.1146 598.902 68.5794 598.902 67.8945C598.902 67.2044 599.072 66.6562 599.41 66.25C599.751 65.8438 600.208 65.6406 600.781 65.6406C601.318 65.6406 601.742 65.8177 602.055 66.1719C602.367 66.5234 602.523 66.9883 602.523 67.5664V67.9766H599.574C599.587 68.4792 599.714 68.8607 599.953 69.1211C600.195 69.3815 600.535 69.5117 600.973 69.5117C601.434 69.5117 601.889 69.4154 602.34 69.2227V69.8008C602.111 69.8997 601.893 69.9701 601.688 70.0117C601.484 70.056 601.238 70.0781 600.949 70.0781ZM600.773 66.1836C600.43 66.1836 600.155 66.2956 599.949 66.5195C599.746 66.7435 599.626 67.0534 599.59 67.4492H601.828C601.828 67.0404 601.737 66.7279 601.555 66.5117C601.372 66.293 601.112 66.1836 600.773 66.1836ZM605.016 69.543C605.13 69.543 605.241 69.5352 605.348 69.5195C605.454 69.5013 605.539 69.4831 605.602 69.4648V69.9609C605.531 69.9948 605.427 70.0221 605.289 70.043C605.154 70.0664 605.031 70.0781 604.922 70.0781C604.094 70.0781 603.68 69.6419 603.68 68.7695V66.2227H603.066V65.9102L603.68 65.6406L603.953 64.7266H604.328V65.7188H605.57V66.2227H604.328V68.7422C604.328 69 604.389 69.1979 604.512 69.3359C604.634 69.474 604.802 69.543 605.016 69.543ZM609.223 68.832C609.223 69.2305 609.074 69.5378 608.777 69.7539C608.48 69.9701 608.064 70.0781 607.527 70.0781C606.96 70.0781 606.517 69.9883 606.199 69.8086V69.207C606.405 69.3112 606.625 69.3932 606.859 69.4531C607.096 69.513 607.324 69.543 607.543 69.543C607.882 69.543 608.142 69.4896 608.324 69.3828C608.507 69.2734 608.598 69.1081 608.598 68.8867C608.598 68.7201 608.525 68.5781 608.379 68.4609C608.236 68.3411 607.954 68.2005 607.535 68.0391C607.137 67.8906 606.853 67.7617 606.684 67.6523C606.517 67.5404 606.392 67.4141 606.309 67.2734C606.228 67.1328 606.188 66.9648 606.188 66.7695C606.188 66.4206 606.329 66.1458 606.613 65.9453C606.897 65.7422 607.286 65.6406 607.781 65.6406C608.242 65.6406 608.693 65.7344 609.133 65.9219L608.902 66.4492C608.473 66.2721 608.083 66.1836 607.734 66.1836C607.427 66.1836 607.195 66.2318 607.039 66.3281C606.883 66.4245 606.805 66.5573 606.805 66.7266C606.805 66.8411 606.833 66.9388 606.891 67.0195C606.951 67.1003 607.046 67.1771 607.176 67.25C607.306 67.3229 607.556 67.4284 607.926 67.5664C608.434 67.7513 608.776 67.9375 608.953 68.125C609.133 68.3125 609.223 68.5482 609.223 68.832Z" fill="#05172A"/>
<path fill-rule="evenodd" clip-rule="evenodd" d="M108 53.5L120 53.5C123.59 53.5 126.5 50.5899 126.5 47L126.5 44L125.5 44L125.5 47C125.5 50.0376 123.038 52.5 120 52.5L108 52.5L108 53.5ZM125.5 28L125.5 25C125.5 21.4101 128.41 18.5 132 18.5L144 18.5L144 19.5L132 19.5C128.962 19.5 126.5 21.9624 126.5 25L126.5 28L125.5 28Z" fill="#28232D"/>
<path d="M104.429 52.1425C103.782 52.5309 103.782 53.4691 104.429 53.8575L106.486 55.0913C107.152 55.4912 108 55.0111 108 54.2338L108 51.7662C108 50.9889 107.152 50.5088 106.486 50.9087L104.429 52.1425Z" fill="#28232D"/>
<path d="M147.571 19.8575C148.218 19.4691 148.218 18.5309 147.571 18.1425L145.514 16.9087C144.848 16.5088 144 16.9889 144 17.7662L144 20.2338C144 21.0111 144.848 21.4912 145.514 21.0913L147.571 19.8575Z" fill="#28232D"/>
<path d="M120.328 39H119.664V36.3125H116.656V39H115.992V33.2891H116.656V35.7188H119.664V33.2891H120.328V39ZM123.656 39H122.992V33.8789H121.184V33.2891H125.465V33.8789H123.656V39ZM128.086 39H127.422V33.8789H125.613V33.2891H129.895V33.8789H128.086V39ZM134.379 34.9531C134.379 35.5312 134.181 35.9766 133.785 36.2891C133.392 36.599 132.828 36.7539 132.094 36.7539H131.422V39H130.758V33.2891H132.238C133.665 33.2891 134.379 33.8438 134.379 34.9531ZM131.422 36.1836H132.02C132.608 36.1836 133.034 36.0885 133.297 35.8984C133.56 35.7083 133.691 35.4036 133.691 34.9844C133.691 34.6068 133.568 34.3255 133.32 34.1406C133.073 33.9557 132.688 33.8633 132.164 33.8633H131.422V36.1836Z" fill="#05172A"/>
<path fill-rule="evenodd" clip-rule="evenodd" d="M258 53.5L262 53.5L262 52.5L258 52.5C254.962 52.5 252.5 50.0376 252.5 47L252.5 25C252.5 21.4101 249.59 18.5 246 18.5L242 18.5L242 19.5L246 19.5C249.038 19.5 251.5 21.9624 251.5 25L251.5 47C251.5 50.5899 254.41 53.5 258 53.5Z" fill="#28232D"/>
<path d="M265.571 52.1425C266.218 52.5309 266.218 53.4691 265.571 53.8575L263.514 55.0913C262.848 55.4912 262 55.0111 262 54.2338L262 51.7662C262 50.9889 262.848 50.5088 263.514 50.9087L265.571 52.1425Z" fill="#28232D"/>
<path d="M238.429 19.8575C237.782 19.4691 237.782 18.5309 238.429 18.1425L240.486 16.9087C241.152 16.5088 242 16.9889 242 17.7662L242 20.2338C242 21.0111 241.152 21.4912 240.486 21.0913L238.429 19.8575Z" fill="#28232D"/>
<path fill-rule="evenodd" clip-rule="evenodd" d="M621 96.5C621 99.2614 623.239 101.5 626 101.5L626 100.5C623.791 100.5 622 98.7091 622 96.5L622 68C622 64.4101 619.09 61.5 615.5 61.5L613 61.5L613 62.5L615.5 62.5C618.538 62.5 621 64.9624 621 68L621 96.5Z" fill="#28232D"/>
<path d="M629.571 100.143C630.218 100.531 630.218 101.469 629.571 101.857L627.514 103.091C626.848 103.491 626 103.011 626 102.234L626 99.7662C626 98.9889 626.848 98.5088 627.514 98.9087L629.571 100.143Z" fill="#28232D"/>
<path fill-rule="evenodd" clip-rule="evenodd" d="M108 70.5L120 70.5C123.59 70.5 126.5 73.4101 126.5 77L126.5 80L125.5 80L125.5 77C125.5 73.9624 123.038 71.5 120 71.5L108 71.5L108 70.5ZM125.5 96L125.5 99C125.5 102.59 128.41 105.5 132 105.5L144 105.5L144 104.5L132 104.5C128.962 104.5 126.5 102.038 126.5 99L126.5 96L125.5 96Z" fill="#28232D"/>
<path d="M104.429 71.8575C103.782 71.4691 103.782 70.5309 104.429 70.1425L106.486 68.9087C107.152 68.5088 108 68.9889 108 69.7662L108 72.2338C108 73.0111 107.152 73.4912 106.486 73.0913L104.429 71.8575Z" fill="#28232D"/>
<path d="M147.571 104.143C148.218 104.531 148.218 105.469 147.571 105.857L145.514 107.091C144.848 107.491 144 107.011 144 106.234L144 103.766C144 102.989 144.848 102.509 145.514 102.909L147.571 104.143Z" fill="#28232D"/>
<path fill-rule="evenodd" clip-rule="evenodd" d="M258 70.5L262 70.5L262 71.5L258 71.5C254.962 71.5 252.5 73.9624 252.5 77L252.5 99C252.5 102.59 249.59 105.5 246 105.5L242 105.5L242 104.5L246 104.5C249.038 104.5 251.5 102.038 251.5 99L251.5 77C251.5 73.4101 254.41 70.5 258 70.5Z" fill="#28232D"/>
<path d="M265.571 71.8575C266.218 71.4691 266.218 70.5309 265.571 70.1425L263.514 68.9087C262.848 68.5088 262 68.9889 262 69.7662L262 72.2338C262 73.0111 262.848 73.4912 263.514 73.0913L265.571 71.8575Z" fill="#28232D"/>
<path d="M238.429 104.143C237.782 104.531 237.782 105.469 238.429 105.857L240.486 107.091C241.152 107.491 242 107.011 242 106.234L242 103.766C242 102.989 241.152 102.509 240.486 102.909L238.429 104.143Z" fill="#28232D"/>
<path fill-rule="evenodd" clip-rule="evenodd" d="M621 27.5C621 24.7386 623.239 22.5 626 22.5L626 23.5C623.791 23.5 622 25.2909 622 27.5L622 56C622 59.5899 619.09 62.5 615.5 62.5L613 62.5L613 61.5L615.5 61.5C618.538 61.5 621 59.0376 621 56L621 27.5Z" fill="#28232D"/>
<path d="M629.571 23.8575C630.218 23.4691 630.218 22.5309 629.571 22.1425L627.514 20.9087C626.848 20.5088 626 20.9889 626 21.7662L626 24.2338C626 25.0111 626.848 25.4912 627.514 25.0913L629.571 23.8575Z" fill="#28232D"/>
</svg>
