<svg width="246" height="308" viewBox="0 0 246 308" fill="none" xmlns="http://www.w3.org/2000/svg">
<path fill-rule="evenodd" clip-rule="evenodd" d="M42.4334 214H0V212.5H42.4334V214Z" fill="#91A3BE"/>
<path d="M42 214C42 199.555 44.8452 185.251 50.3732 171.905C55.9013 158.559 64.0038 146.433 74.2183 136.218C84.4327 126.004 96.559 117.901 109.905 112.373C123.251 106.845 137.555 104 152 104V105.499C137.751 105.499 123.642 108.305 110.478 113.758C97.3144 119.211 85.3533 127.203 75.2781 137.278C65.2028 147.353 57.2107 159.314 51.758 172.478C46.3053 185.642 43.4988 199.751 43.4988 214H42Z" fill="#91A3BE"/>
<path fill-rule="evenodd" clip-rule="evenodd" d="M151.5 105.5L151.5 23.5L153 23.5L153 105.5L151.5 105.5Z" fill="#91A3BE"/>
<path d="M164 12C164 18.6274 158.627 24 152 24C145.373 24 140 18.6274 140 12C140 5.37258 145.373 0 152 0C158.627 0 164 5.37258 164 12Z" fill="#F4F8FE"/>
<path fill-rule="evenodd" clip-rule="evenodd" d="M152 22.5C157.799 22.5 162.5 17.799 162.5 12C162.5 6.20101 157.799 1.5 152 1.5C146.201 1.5 141.5 6.20101 141.5 12C141.5 17.799 146.201 22.5 152 22.5ZM152 24C158.627 24 164 18.6274 164 12C164 5.37258 158.627 0 152 0C145.373 0 140 5.37258 140 12C140 18.6274 145.373 24 152 24Z" fill="#91A3BE"/>
<rect x="58.75" y="120.75" width="186.5" height="186.5" rx="93.2499" stroke="#91A3BE" stroke-width="1.5"/>
<path fill-rule="evenodd" clip-rule="evenodd" d="M165.008 202.474H161.651C161.008 202.474 160.463 203.024 160.463 203.733C160.463 204.442 161.008 204.992 161.651 204.992H165.008C165.651 204.992 166.196 204.442 166.196 203.733C166.196 203.024 165.651 202.474 165.008 202.474ZM161.651 202.17H165.008C165.832 202.17 166.5 202.87 166.5 203.733C166.5 204.596 165.832 205.296 165.008 205.296H161.651C160.827 205.296 160.159 204.596 160.159 203.733C160.159 202.87 160.827 202.17 161.651 202.17Z" fill="#305680"/>
<path fill-rule="evenodd" clip-rule="evenodd" d="M178.065 202.474H174.707C174.065 202.474 173.519 203.024 173.519 203.733C173.519 204.442 174.065 204.992 174.707 204.992H178.065C178.707 204.992 179.252 204.442 179.252 203.733C179.252 203.024 178.707 202.474 178.065 202.474ZM174.707 202.17H178.065C178.889 202.17 179.557 202.87 179.557 203.733C179.557 204.596 178.889 205.296 178.065 205.296H174.707C173.883 205.296 173.215 204.596 173.215 203.733C173.215 202.87 173.883 202.17 174.707 202.17Z" fill="#305680"/>
<path fill-rule="evenodd" clip-rule="evenodd" d="M165.008 215.957H161.651C161.008 215.957 160.463 216.508 160.463 217.216C160.463 217.925 161.008 218.475 161.651 218.475H165.008C165.651 218.475 166.196 217.925 166.196 217.216C166.196 216.508 165.651 215.957 165.008 215.957ZM161.651 215.653H165.008C165.832 215.653 166.5 216.353 166.5 217.216C166.5 218.08 165.832 218.78 165.008 218.78H161.651C160.827 218.78 160.159 218.08 160.159 217.216C160.159 216.353 160.827 215.653 161.651 215.653Z" fill="#305680"/>
<path fill-rule="evenodd" clip-rule="evenodd" d="M178.065 215.957H174.707C174.065 215.957 173.519 216.508 173.519 217.216C173.519 217.925 174.065 218.475 174.707 218.475H178.065C178.707 218.475 179.252 217.925 179.252 217.216C179.252 216.508 178.707 215.957 178.065 215.957ZM174.707 215.653H178.065C178.889 215.653 179.557 216.353 179.557 217.216C179.557 218.08 178.889 218.78 178.065 218.78H174.707C173.883 218.78 173.215 218.08 173.215 217.216C173.215 216.353 173.883 215.653 174.707 215.653Z" fill="#305680"/>
<path fill-rule="evenodd" clip-rule="evenodd" d="M165.008 229.441H161.651C161.008 229.441 160.463 229.991 160.463 230.7C160.463 231.408 161.008 231.959 161.651 231.959H165.008C165.651 231.959 166.196 231.408 166.196 230.7C166.196 229.991 165.651 229.441 165.008 229.441ZM161.651 229.136H165.008C165.832 229.136 166.5 229.836 166.5 230.7C166.5 231.563 165.832 232.263 165.008 232.263H161.651C160.827 232.263 160.159 231.563 160.159 230.7C160.159 229.836 160.827 229.136 161.651 229.136Z" fill="#305680"/>
<path fill-rule="evenodd" clip-rule="evenodd" d="M178.065 229.441H174.707C174.065 229.441 173.519 229.991 173.519 230.7C173.519 231.408 174.065 231.959 174.707 231.959H178.065C178.707 231.959 179.252 231.408 179.252 230.7C179.252 229.991 178.707 229.441 178.065 229.441ZM174.707 229.136H178.065C178.889 229.136 179.557 229.836 179.557 230.7C179.557 231.563 178.889 232.263 178.065 232.263H174.707C173.883 232.263 173.215 231.563 173.215 230.7C173.215 229.836 173.883 229.136 174.707 229.136Z" fill="#305680"/>
<path fill-rule="evenodd" clip-rule="evenodd" d="M129.009 220.841H125.839C125.196 220.841 124.651 221.391 124.651 222.1C124.651 222.809 125.196 223.359 125.839 223.359H129.009C129.652 223.359 130.197 222.809 130.197 222.1C130.197 221.391 129.652 220.841 129.009 220.841ZM125.839 220.537H129.009C129.834 220.537 130.502 221.237 130.502 222.1C130.502 222.963 129.834 223.663 129.009 223.663H125.839C125.015 223.663 124.346 222.963 124.346 222.1C124.346 221.237 125.015 220.537 125.839 220.537Z" fill="#305680"/>
<path fill-rule="evenodd" clip-rule="evenodd" d="M141.507 220.841H138.336C137.693 220.841 137.148 221.391 137.148 222.1C137.148 222.809 137.693 223.359 138.336 223.359H141.507C142.149 223.359 142.694 222.809 142.694 222.1C142.694 221.391 142.149 220.841 141.507 220.841ZM138.336 220.537H141.507C142.331 220.537 142.999 221.237 142.999 222.1C142.999 222.963 142.331 223.663 141.507 223.663H138.336C137.512 223.663 136.844 222.963 136.844 222.1C136.844 221.237 137.512 220.537 138.336 220.537Z" fill="#305680"/>
<path fill-rule="evenodd" clip-rule="evenodd" d="M129.009 234.326H125.839C125.196 234.326 124.651 234.876 124.651 235.584C124.651 236.293 125.196 236.843 125.839 236.843H129.009C129.652 236.843 130.197 236.293 130.197 235.584C130.197 234.876 129.652 234.326 129.009 234.326ZM125.839 234.021H129.009C129.834 234.021 130.502 234.721 130.502 235.584C130.502 236.448 129.834 237.148 129.009 237.148H125.839C125.015 237.148 124.346 236.448 124.346 235.584C124.346 234.721 125.015 234.021 125.839 234.021Z" fill="#305680"/>
<path fill-rule="evenodd" clip-rule="evenodd" d="M141.507 234.326H138.336C137.693 234.326 137.148 234.876 137.148 235.584C137.148 236.293 137.693 236.843 138.336 236.843H141.507C142.149 236.843 142.694 236.293 142.694 235.584C142.694 234.876 142.149 234.326 141.507 234.326ZM138.336 234.021H141.507C142.331 234.021 142.999 234.721 142.999 235.584C142.999 236.448 142.331 237.148 141.507 237.148H138.336C137.512 237.148 136.844 236.448 136.844 235.584C136.844 234.721 137.512 234.021 138.336 234.021Z" fill="#305680"/>
<path fill-rule="evenodd" clip-rule="evenodd" d="M129.009 247.808H125.839C125.196 247.808 124.651 248.358 124.651 249.067C124.651 249.776 125.196 250.326 125.839 250.326H129.009C129.652 250.326 130.197 249.776 130.197 249.067C130.197 248.358 129.652 247.808 129.009 247.808ZM125.839 247.504H129.009C129.834 247.504 130.502 248.204 130.502 249.067C130.502 249.93 129.834 250.63 129.009 250.63H125.839C125.015 250.63 124.346 249.93 124.346 249.067C124.346 248.204 125.015 247.504 125.839 247.504Z" fill="#305680"/>
<path fill-rule="evenodd" clip-rule="evenodd" d="M141.507 247.808H138.336C137.693 247.808 137.148 248.358 137.148 249.067C137.148 249.776 137.693 250.326 138.336 250.326H141.507C142.149 250.326 142.694 249.776 142.694 249.067C142.694 248.358 142.149 247.808 141.507 247.808ZM138.336 247.504H141.507C142.331 247.504 142.999 248.204 142.999 249.067C142.999 249.93 142.331 250.63 141.507 250.63H138.336C137.512 250.63 136.844 249.93 136.844 249.067C136.844 248.204 137.512 247.504 138.336 247.504Z" fill="#305680"/>
<path fill-rule="evenodd" clip-rule="evenodd" d="M181.226 180.818C178.821 180.818 176.534 181.717 175.064 183.359C174.328 184.182 173.063 184.252 172.24 183.515C171.417 182.778 171.347 181.514 172.084 180.691C174.441 178.057 177.892 176.818 181.226 176.818C184.56 176.818 188.012 178.057 190.369 180.691C191.105 181.514 191.035 182.779 190.212 183.515C189.389 184.252 188.124 184.182 187.388 183.358C185.919 181.717 183.631 180.818 181.226 180.818Z" fill="#305680"/>
<path fill-rule="evenodd" clip-rule="evenodd" d="M181.846 172C177.417 172 173.177 173.691 170.521 176.889C169.816 177.739 168.555 177.856 167.705 177.15C166.855 176.444 166.738 175.184 167.444 174.334C171.001 170.05 176.469 168 181.846 168C187.225 168 192.76 170.049 196.5 174.288C197.231 175.117 197.152 176.38 196.323 177.111C195.495 177.842 194.231 177.763 193.5 176.935C190.639 173.692 186.272 172 181.846 172Z" fill="#305680"/>
<path fill-rule="evenodd" clip-rule="evenodd" d="M181.5 184.788C182.605 184.788 183.5 185.683 183.5 186.788V190.55H188C189.657 190.55 191 191.893 191 193.55V242C191 243.104 190.105 244 189 244C187.895 244 187 243.104 187 242V194.55H154V255.999H160V242.264C160 240.607 161.343 239.264 163 239.264H176C177.657 239.264 179 240.607 179 242.264V255.999L196 256C197.105 256 198 256.895 198 258C198 259.104 197.105 260 196 260L108 259.999C106.895 259.999 106 259.104 106 257.999C106 256.895 106.895 255.999 108 255.999H113V213.455C113 211.798 114.343 210.455 116 210.455H123.5V206.169C123.5 205.064 124.395 204.169 125.5 204.169C126.605 204.169 127.5 205.064 127.5 206.169V210.455H150V193.55C150 191.893 151.343 190.55 153 190.55H179.5V186.788C179.5 185.683 180.395 184.788 181.5 184.788ZM150 214.455H117V255.999H150V214.455ZM175 255.999V243.264H164V255.999H175Z" fill="#305680"/>
<path fill-rule="evenodd" clip-rule="evenodd" d="M123 222.407C123 221.302 123.895 220.407 125 220.407H130C131.105 220.407 132 221.302 132 222.407C132 223.512 131.105 224.407 130 224.407H125C123.895 224.407 123 223.512 123 222.407Z" fill="#305680"/>
<path fill-rule="evenodd" clip-rule="evenodd" d="M123 236.026C123 234.922 123.895 234.026 125 234.026H130C131.105 234.026 132 234.922 132 236.026C132 237.131 131.105 238.026 130 238.026H125C123.895 238.026 123 237.131 123 236.026Z" fill="#305680"/>
<path fill-rule="evenodd" clip-rule="evenodd" d="M123 248.598C123 247.493 123.895 246.598 125 246.598H130C131.105 246.598 132 247.493 132 248.598C132 249.702 131.105 250.598 130 250.598H125C123.895 250.598 123 249.702 123 248.598Z" fill="#305680"/>
<path fill-rule="evenodd" clip-rule="evenodd" d="M135 248.598C135 247.493 135.895 246.598 137 246.598H142C143.105 246.598 144 247.493 144 248.598C144 249.702 143.105 250.598 142 250.598H137C135.895 250.598 135 249.702 135 248.598Z" fill="#305680"/>
<path fill-rule="evenodd" clip-rule="evenodd" d="M135 236.026C135 234.922 135.895 234.026 137 234.026H142C143.105 234.026 144 234.922 144 236.026C144 237.131 143.105 238.026 142 238.026H137C135.895 238.026 135 237.131 135 236.026Z" fill="#305680"/>
<path fill-rule="evenodd" clip-rule="evenodd" d="M135 222.407C135 221.302 135.895 220.407 137 220.407H142C143.105 220.407 144 221.302 144 222.407C144 223.512 143.105 224.407 142 224.407H137C135.895 224.407 135 223.512 135 222.407Z" fill="#305680"/>
<path fill-rule="evenodd" clip-rule="evenodd" d="M160 203.551C160 202.446 160.895 201.551 162 201.551H167C168.105 201.551 169 202.446 169 203.551C169 204.655 168.105 205.551 167 205.551H162C160.895 205.551 160 204.655 160 203.551Z" fill="#305680"/>
<path fill-rule="evenodd" clip-rule="evenodd" d="M160 217.17C160 216.065 160.895 215.17 162 215.17H167C168.105 215.17 169 216.065 169 217.17C169 218.274 168.105 219.17 167 219.17H162C160.895 219.17 160 218.274 160 217.17Z" fill="#305680"/>
<path fill-rule="evenodd" clip-rule="evenodd" d="M160 230.788C160 229.683 160.895 228.788 162 228.788H167C168.105 228.788 169 229.683 169 230.788C169 231.892 168.105 232.788 167 232.788H162C160.895 232.788 160 231.892 160 230.788Z" fill="#305680"/>
<path fill-rule="evenodd" clip-rule="evenodd" d="M172 230.788C172 229.683 172.895 228.788 174 228.788H179C180.105 228.788 181 229.683 181 230.788C181 231.892 180.105 232.788 179 232.788H174C172.895 232.788 172 231.892 172 230.788Z" fill="#305680"/>
<path fill-rule="evenodd" clip-rule="evenodd" d="M172 217.17C172 216.065 172.895 215.17 174 215.17H179C180.105 215.17 181 216.065 181 217.17C181 218.274 180.105 219.17 179 219.17H174C172.895 219.17 172 218.274 172 217.17Z" fill="#305680"/>
<path fill-rule="evenodd" clip-rule="evenodd" d="M172 203.551C172 202.446 172.895 201.551 174 201.551H179C180.105 201.551 181 202.446 181 203.551C181 204.655 180.105 205.551 179 205.551H174C172.895 205.551 172 204.655 172 203.551Z" fill="#305680"/>
<path d="M191 250C191 251.105 190.105 252 189 252C187.895 252 187 251.105 187 250C187 248.895 187.895 248 189 248C190.105 248 191 248.895 191 250Z" fill="#305680"/>
<path fill-rule="evenodd" clip-rule="evenodd" d="M189 250.751C189.415 250.751 189.751 250.415 189.751 250C189.751 249.585 189.415 249.249 189 249.249C188.585 249.249 188.249 249.585 188.249 250C188.249 250.415 188.585 250.751 189 250.751ZM189 252C190.105 252 191 251.105 191 250C191 248.895 190.105 248 189 248C187.895 248 187 248.895 187 250C187 251.105 187.895 252 189 252Z" fill="#305680"/>
<path fill-rule="evenodd" clip-rule="evenodd" d="M125.365 198.765C122.96 198.765 120.673 199.664 119.203 201.306C118.467 202.129 117.202 202.199 116.379 201.462C115.556 200.726 115.486 199.461 116.223 198.638C118.58 196.005 122.031 194.765 125.365 194.765C128.699 194.765 132.151 196.004 134.508 198.638C135.244 199.462 135.174 200.726 134.351 201.462C133.528 202.199 132.264 202.129 131.527 201.306C130.058 199.664 127.77 198.765 125.365 198.765Z" fill="#305680"/>
<path fill-rule="evenodd" clip-rule="evenodd" d="M125.985 189.946C121.557 189.946 117.316 191.637 114.661 194.835C113.955 195.685 112.694 195.802 111.844 195.096C110.994 194.391 110.878 193.13 111.583 192.28C115.141 187.996 120.608 185.946 125.985 185.946C131.364 185.946 136.899 187.995 140.639 192.235C141.37 193.063 141.291 194.327 140.462 195.057C139.634 195.788 138.37 195.709 137.64 194.881C134.778 191.638 130.411 189.946 125.985 189.946Z" fill="#305680"/>
</svg>
