<svg width="273" height="232" viewBox="0 0 273 232" fill="none" xmlns="http://www.w3.org/2000/svg">
<g clip-path="url(#clip0_13778_7729)">
<path fill-rule="evenodd" clip-rule="evenodd" d="M83.462 38.4677V0.884766L84.7905 0.884766V38.4677H83.462Z" fill="#91A3BE"/>
<path d="M83.4624 38.0838C96.2566 38.0838 108.925 40.6038 120.746 45.4999C132.566 50.396 143.306 57.5723 152.353 66.6192C161.4 75.666 168.576 86.4062 173.472 98.2265C178.368 110.047 180.888 122.716 180.888 135.51H179.561C179.561 122.89 177.075 110.394 172.246 98.7345C167.416 87.0753 160.338 76.4814 151.414 67.5579C142.491 58.6343 131.897 51.5557 120.238 46.7263C108.578 41.8969 96.0822 39.4113 83.4624 39.4113V38.0838Z" fill="#91A3BE"/>
<path fill-rule="evenodd" clip-rule="evenodd" d="M179.559 135.067L252.186 135.067L252.186 136.395L179.559 136.396L179.559 135.067Z" fill="#91A3BE"/>
<path d="M262.372 146.138C256.502 146.138 251.743 141.38 251.743 135.51C251.743 129.64 256.502 124.882 262.372 124.882C268.242 124.882 273 129.64 273 135.51C273 141.38 268.242 146.138 262.372 146.138Z" fill="#F4F8FE"/>
<path fill-rule="evenodd" clip-rule="evenodd" d="M253.072 135.51C253.072 140.646 257.236 144.81 262.372 144.81C267.508 144.81 271.671 140.646 271.671 135.51C271.671 130.374 267.508 126.21 262.372 126.21C257.236 126.21 253.072 130.374 253.072 135.51ZM251.743 135.51C251.743 141.38 256.502 146.138 262.372 146.138C268.242 146.138 273 141.38 273 135.51C273 129.64 268.242 124.882 262.372 124.882C256.502 124.882 251.743 129.64 251.743 135.51Z" fill="#91A3BE"/>
<rect x="166.053" y="52.9192" width="164.698" height="164.698" rx="82.3488" transform="rotate(90 166.053 52.9192)" stroke="#91A3BE" stroke-width="1.32854"/>
<path fill-rule="evenodd" clip-rule="evenodd" d="M95.1569 125.121H92.201C91.6351 125.121 91.1552 125.605 91.1552 126.229C91.1552 126.853 91.6351 127.337 92.201 127.337H95.1569C95.7228 127.337 96.2027 126.853 96.2027 126.229C96.2027 125.605 95.7228 125.121 95.1569 125.121ZM92.201 124.853H95.1569C95.8825 124.853 96.4707 125.469 96.4707 126.229C96.4707 126.989 95.8825 127.605 95.1569 127.605H92.201C91.4754 127.605 90.8872 126.989 90.8872 126.229C90.8872 125.469 91.4754 124.853 92.201 124.853Z" fill="#305680"/>
<path fill-rule="evenodd" clip-rule="evenodd" d="M106.653 125.121H103.697C103.131 125.121 102.651 125.605 102.651 126.229C102.651 126.853 103.131 127.337 103.697 127.337H106.653C107.218 127.337 107.698 126.853 107.698 126.229C107.698 125.605 107.218 125.121 106.653 125.121ZM103.697 124.853H106.653C107.378 124.853 107.966 125.469 107.966 126.229C107.966 126.989 107.378 127.605 106.653 127.605H103.697C102.971 127.605 102.383 126.989 102.383 126.229C102.383 125.469 102.971 124.853 103.697 124.853Z" fill="#305680"/>
<path fill-rule="evenodd" clip-rule="evenodd" d="M95.1569 136.992H92.201C91.6351 136.992 91.1552 137.476 91.1552 138.1C91.1552 138.724 91.6351 139.208 92.201 139.208H95.1569C95.7228 139.208 96.2027 138.724 96.2027 138.1C96.2027 137.476 95.7228 136.992 95.1569 136.992ZM92.201 136.724H95.1569C95.8825 136.724 96.4707 137.34 96.4707 138.1C96.4707 138.86 95.8825 139.476 95.1569 139.476H92.201C91.4754 139.476 90.8872 138.86 90.8872 138.1C90.8872 137.34 91.4754 136.724 92.201 136.724Z" fill="#305680"/>
<path fill-rule="evenodd" clip-rule="evenodd" d="M106.653 136.992H103.697C103.131 136.992 102.651 137.476 102.651 138.1C102.651 138.724 103.131 139.208 103.697 139.208H106.653C107.218 139.208 107.698 138.724 107.698 138.1C107.698 137.476 107.218 136.992 106.653 136.992ZM103.697 136.724H106.653C107.378 136.724 107.966 137.34 107.966 138.1C107.966 138.86 107.378 139.476 106.653 139.476H103.697C102.971 139.476 102.383 138.86 102.383 138.1C102.383 137.34 102.971 136.724 103.697 136.724Z" fill="#305680"/>
<path fill-rule="evenodd" clip-rule="evenodd" d="M95.1569 148.863H92.201C91.6351 148.863 91.1552 149.347 91.1552 149.971C91.1552 150.595 91.6351 151.08 92.201 151.08H95.1569C95.7228 151.08 96.2027 150.595 96.2027 149.971C96.2027 149.347 95.7228 148.863 95.1569 148.863ZM92.201 148.595H95.1569C95.8825 148.595 96.4707 149.211 96.4707 149.971C96.4707 150.731 95.8825 151.348 95.1569 151.348H92.201C91.4754 151.348 90.8872 150.731 90.8872 149.971C90.8872 149.211 91.4754 148.595 92.201 148.595Z" fill="#305680"/>
<path fill-rule="evenodd" clip-rule="evenodd" d="M106.653 148.863H103.697C103.131 148.863 102.651 149.347 102.651 149.971C102.651 150.595 103.131 151.08 103.697 151.08H106.653C107.218 151.08 107.698 150.595 107.698 149.971C107.698 149.347 107.218 148.863 106.653 148.863ZM103.697 148.595H106.653C107.378 148.595 107.966 149.211 107.966 149.971C107.966 150.731 107.378 151.348 106.653 151.348H103.697C102.971 151.348 102.383 150.731 102.383 149.971C102.383 149.211 102.971 148.595 103.697 148.595Z" fill="#305680"/>
<path fill-rule="evenodd" clip-rule="evenodd" d="M63.4624 141.292H60.6707C60.1048 141.292 59.6249 141.776 59.6249 142.4C59.6249 143.024 60.1048 143.508 60.6707 143.508H63.4624C64.0283 143.508 64.5082 143.024 64.5082 142.4C64.5082 141.776 64.0283 141.292 63.4624 141.292ZM60.6707 141.024H63.4624C64.188 141.024 64.7762 141.64 64.7762 142.4C64.7762 143.16 64.188 143.776 63.4624 143.776H60.6707C59.9452 143.776 59.3569 143.16 59.3569 142.4C59.3569 141.64 59.9452 141.024 60.6707 141.024Z" fill="#305680"/>
<path fill-rule="evenodd" clip-rule="evenodd" d="M74.4654 141.292H71.6736C71.1077 141.292 70.6279 141.776 70.6279 142.4C70.6279 143.024 71.1077 143.508 71.6736 143.508H74.4654C75.0313 143.508 75.5111 143.024 75.5111 142.4C75.5111 141.776 75.0313 141.292 74.4654 141.292ZM71.6736 141.024H74.4654C75.1909 141.024 75.7791 141.64 75.7791 142.4C75.7791 143.16 75.1909 143.776 74.4654 143.776H71.6736C70.9481 143.776 70.3599 143.16 70.3599 142.4C70.3599 141.64 70.9481 141.024 71.6736 141.024Z" fill="#305680"/>
<path fill-rule="evenodd" clip-rule="evenodd" d="M63.4624 153.164H60.6707C60.1048 153.164 59.6249 153.648 59.6249 154.272C59.6249 154.896 60.1048 155.38 60.6707 155.38H63.4624C64.0283 155.38 64.5082 154.896 64.5082 154.272C64.5082 153.648 64.0283 153.164 63.4624 153.164ZM60.6707 152.896H63.4624C64.188 152.896 64.7762 153.512 64.7762 154.272C64.7762 155.032 64.188 155.648 63.4624 155.648H60.6707C59.9452 155.648 59.3569 155.032 59.3569 154.272C59.3569 153.512 59.9452 152.896 60.6707 152.896Z" fill="#305680"/>
<path fill-rule="evenodd" clip-rule="evenodd" d="M74.4654 153.164H71.6736C71.1077 153.164 70.6279 153.648 70.6279 154.272C70.6279 154.896 71.1077 155.38 71.6736 155.38H74.4654C75.0313 155.38 75.5111 154.896 75.5111 154.272C75.5111 153.648 75.0313 153.164 74.4654 153.164ZM71.6736 152.896H74.4654C75.1909 152.896 75.7791 153.512 75.7791 154.272C75.7791 155.032 75.1909 155.648 74.4654 155.648H71.6736C70.9481 155.648 70.3599 155.032 70.3599 154.272C70.3599 153.512 70.9481 152.896 71.6736 152.896Z" fill="#305680"/>
<path fill-rule="evenodd" clip-rule="evenodd" d="M63.4624 165.034H60.6707C60.1048 165.034 59.6249 165.518 59.6249 166.142C59.6249 166.766 60.1048 167.251 60.6707 167.251H63.4624C64.0283 167.251 64.5082 166.766 64.5082 166.142C64.5082 165.518 64.0283 165.034 63.4624 165.034ZM60.6707 164.766H63.4624C64.188 164.766 64.7762 165.382 64.7762 166.142C64.7762 166.903 64.188 167.519 63.4624 167.519H60.6707C59.9452 167.519 59.3569 166.903 59.3569 166.142C59.3569 165.382 59.9452 164.766 60.6707 164.766Z" fill="#305680"/>
<path fill-rule="evenodd" clip-rule="evenodd" d="M74.4654 165.034H71.6736C71.1077 165.034 70.6279 165.518 70.6279 166.142C70.6279 166.766 71.1077 167.251 71.6736 167.251H74.4654C75.0313 167.251 75.5111 166.766 75.5111 166.142C75.5111 165.518 75.0313 165.034 74.4654 165.034ZM71.6736 164.766H74.4654C75.1909 164.766 75.7791 165.382 75.7791 166.142C75.7791 166.903 75.1909 167.519 74.4654 167.519H71.6736C70.9481 167.519 70.3599 166.903 70.3599 166.142C70.3599 165.382 70.9481 164.766 71.6736 164.766Z" fill="#305680"/>
<path fill-rule="evenodd" clip-rule="evenodd" d="M109.436 106.054C107.318 106.054 105.304 106.845 104.011 108.29C103.362 109.015 102.249 109.077 101.524 108.428C100.799 107.78 100.738 106.666 101.386 105.942C103.461 103.623 106.5 102.532 109.436 102.532C112.371 102.532 115.41 103.623 117.485 105.942C118.134 106.667 118.072 107.78 117.347 108.428C116.622 109.077 115.509 109.015 114.861 108.29C113.567 106.845 111.553 106.054 109.436 106.054Z" fill="#305680"/>
<path fill-rule="evenodd" clip-rule="evenodd" d="M109.982 98.2898C106.083 98.2898 102.349 99.7787 100.011 102.594C99.3898 103.343 98.2796 103.445 97.5315 102.824C96.7833 102.203 96.6805 101.093 97.3017 100.345C100.434 96.5729 105.248 94.7681 109.982 94.7681C114.718 94.7681 119.59 96.5722 122.883 100.304C123.527 101.034 123.457 102.146 122.728 102.79C121.999 103.433 120.886 103.364 120.243 102.634C117.723 99.7793 113.878 98.2898 109.982 98.2898Z" fill="#305680"/>
<path fill-rule="evenodd" clip-rule="evenodd" d="M109.677 109.549C110.649 109.549 111.438 110.337 111.438 111.31V114.622H115.4C116.859 114.622 118.041 115.804 118.041 117.263V159.92C118.041 160.893 117.253 161.681 116.28 161.681C115.308 161.681 114.519 160.893 114.519 159.92V118.144H85.465V172.246H90.7476V160.153C90.7476 158.694 91.9301 157.512 93.3889 157.512H104.835C106.293 157.512 107.476 158.694 107.476 160.153V172.246L122.443 172.246C123.416 172.246 124.204 173.035 124.204 174.007C124.204 174.98 123.416 175.768 122.443 175.768L44.965 175.768C43.9925 175.768 43.2041 174.979 43.2041 174.007C43.2041 173.034 43.9925 172.246 44.965 172.246H49.3671V134.788C49.3671 133.329 50.5497 132.147 52.0084 132.147H58.6117V128.373C58.6117 127.401 59.4001 126.612 60.3726 126.612C61.3451 126.612 62.1334 127.401 62.1334 128.373V132.147H81.9432V117.263C81.9432 115.804 83.1258 114.622 84.5845 114.622H107.916V111.31C107.916 110.337 108.704 109.549 109.677 109.549ZM81.9432 135.668H52.8889V172.246H81.9432V135.668ZM103.954 172.246V161.033H94.2693V172.246H103.954Z" fill="#305680"/>
<path fill-rule="evenodd" clip-rule="evenodd" d="M58.1714 142.67C58.1714 141.698 58.9598 140.909 59.9323 140.909H64.3344C65.3069 140.909 66.0953 141.698 66.0953 142.67C66.0953 143.643 65.3069 144.431 64.3344 144.431H59.9323C58.9598 144.431 58.1714 143.643 58.1714 142.67Z" fill="#305680"/>
<path fill-rule="evenodd" clip-rule="evenodd" d="M58.1714 154.661C58.1714 153.688 58.9598 152.9 59.9323 152.9H64.3344C65.3069 152.9 66.0953 153.688 66.0953 154.661C66.0953 155.633 65.3069 156.422 64.3344 156.422H59.9323C58.9598 156.422 58.1714 155.633 58.1714 154.661Z" fill="#305680"/>
<path fill-rule="evenodd" clip-rule="evenodd" d="M58.1714 165.729C58.1714 164.757 58.9598 163.968 59.9323 163.968H64.3344C65.3069 163.968 66.0953 164.757 66.0953 165.729C66.0953 166.702 65.3069 167.49 64.3344 167.49H59.9323C58.9598 167.49 58.1714 166.702 58.1714 165.729Z" fill="#305680"/>
<path fill-rule="evenodd" clip-rule="evenodd" d="M68.7368 165.729C68.7368 164.757 69.5252 163.968 70.4977 163.968H74.8999C75.8724 163.968 76.6607 164.757 76.6607 165.729C76.6607 166.702 75.8724 167.49 74.8999 167.49H70.4977C69.5252 167.49 68.7368 166.702 68.7368 165.729Z" fill="#305680"/>
<path fill-rule="evenodd" clip-rule="evenodd" d="M68.7368 154.661C68.7368 153.688 69.5252 152.9 70.4977 152.9H74.8999C75.8724 152.9 76.6607 153.688 76.6607 154.661C76.6607 155.633 75.8724 156.422 74.8999 156.422H70.4977C69.5252 156.422 68.7368 155.633 68.7368 154.661Z" fill="#305680"/>
<path fill-rule="evenodd" clip-rule="evenodd" d="M68.7368 142.67C68.7368 141.698 69.5252 140.909 70.4977 140.909H74.8999C75.8724 140.909 76.6607 141.698 76.6607 142.67C76.6607 143.643 75.8724 144.431 74.8999 144.431H70.4977C69.5252 144.431 68.7368 143.643 68.7368 142.67Z" fill="#305680"/>
<path fill-rule="evenodd" clip-rule="evenodd" d="M90.7476 126.068C90.7476 125.096 91.5359 124.307 92.5084 124.307H96.9106C97.8831 124.307 98.6715 125.096 98.6715 126.068C98.6715 127.041 97.8831 127.829 96.9106 127.829H92.5084C91.5359 127.829 90.7476 127.041 90.7476 126.068Z" fill="#305680"/>
<path fill-rule="evenodd" clip-rule="evenodd" d="M90.7476 138.059C90.7476 137.086 91.5359 136.298 92.5084 136.298H96.9106C97.8831 136.298 98.6715 137.086 98.6715 138.059C98.6715 139.031 97.8831 139.82 96.9106 139.82H92.5084C91.5359 139.82 90.7476 139.031 90.7476 138.059Z" fill="#305680"/>
<path fill-rule="evenodd" clip-rule="evenodd" d="M90.7476 150.049C90.7476 149.076 91.5359 148.288 92.5084 148.288H96.9106C97.8831 148.288 98.6715 149.076 98.6715 150.049C98.6715 151.021 97.8831 151.81 96.9106 151.81H92.5084C91.5359 151.81 90.7476 151.021 90.7476 150.049Z" fill="#305680"/>
<path fill-rule="evenodd" clip-rule="evenodd" d="M101.313 150.049C101.313 149.076 102.101 148.288 103.074 148.288H107.476C108.449 148.288 109.237 149.076 109.237 150.049C109.237 151.021 108.449 151.81 107.476 151.81H103.074C102.101 151.81 101.313 151.021 101.313 150.049Z" fill="#305680"/>
<path fill-rule="evenodd" clip-rule="evenodd" d="M101.313 138.059C101.313 137.086 102.101 136.298 103.074 136.298H107.476C108.449 136.298 109.237 137.086 109.237 138.059C109.237 139.031 108.449 139.82 107.476 139.82H103.074C102.101 139.82 101.313 139.031 101.313 138.059Z" fill="#305680"/>
<path fill-rule="evenodd" clip-rule="evenodd" d="M101.313 126.068C101.313 125.096 102.101 124.307 103.074 124.307H107.476C108.449 124.307 109.237 125.096 109.237 126.068C109.237 127.041 108.449 127.829 107.476 127.829H103.074C102.101 127.829 101.313 127.041 101.313 126.068Z" fill="#305680"/>
<path d="M118.041 166.964C118.041 167.936 117.253 168.725 116.28 168.725C115.308 168.725 114.52 167.936 114.52 166.964C114.52 165.991 115.308 165.203 116.28 165.203C117.253 165.203 118.041 165.991 118.041 166.964Z" fill="#305680"/>
<path fill-rule="evenodd" clip-rule="evenodd" d="M116.28 167.625C116.646 167.625 116.942 167.329 116.942 166.964C116.942 166.598 116.646 166.302 116.28 166.302C115.915 166.302 115.619 166.598 115.619 166.964C115.619 167.329 115.915 167.625 116.28 167.625ZM116.28 168.725C117.253 168.725 118.041 167.936 118.041 166.964C118.041 165.991 117.253 165.203 116.28 165.203C115.308 165.203 114.52 165.991 114.52 166.964C114.52 167.936 115.308 168.725 116.28 168.725Z" fill="#305680"/>
<path fill-rule="evenodd" clip-rule="evenodd" d="M60.254 121.855C58.1365 121.855 56.1224 122.647 54.8289 124.092C54.1803 124.817 53.0671 124.878 52.3425 124.23C51.6178 123.581 51.5561 122.468 52.2046 121.743C54.2797 119.425 57.3185 118.334 60.2539 118.333C63.1894 118.333 66.2283 119.424 68.3034 121.743C68.9519 122.468 68.8901 123.581 68.1654 124.23C67.4407 124.878 66.3275 124.817 65.679 124.092C64.3855 122.646 62.3715 121.855 60.254 121.855Z" fill="#305680"/>
<path fill-rule="evenodd" clip-rule="evenodd" d="M60.7994 114.09C56.9005 114.09 53.1672 115.579 50.829 118.395C50.2077 119.143 49.0975 119.246 48.3493 118.625C47.6012 118.003 47.4983 116.893 48.1196 116.145C51.2517 112.373 56.0656 110.569 60.7994 110.569C65.5355 110.569 70.4083 112.373 73.7013 116.105C74.3447 116.834 74.2751 117.947 73.5459 118.59C72.8167 119.234 71.7039 119.164 71.0605 118.435C68.5414 115.58 64.696 114.09 60.7994 114.09Z" fill="#305680"/>
</g>
<defs>
<clipPath id="clip0_13778_7729">
<rect width="232" height="273" fill="white" transform="matrix(0 1 -1 0 273 0)"/>
</clipPath>
</defs>
</svg>
