<svg width="273" height="232" viewBox="0 0 273 232" fill="none" xmlns="http://www.w3.org/2000/svg">
<g clip-path="url(#clip0_13778_7650)">
<path fill-rule="evenodd" clip-rule="evenodd" d="M83.462 38.4677V0.884766L84.7905 0.884766V38.4677H83.462Z" fill="#91A3BE"/>
<path d="M83.4624 38.0838C96.2566 38.0838 108.925 40.6038 120.746 45.4999C132.566 50.396 143.306 57.5723 152.353 66.6192C161.4 75.666 168.576 86.4062 173.472 98.2265C178.368 110.047 180.888 122.716 180.888 135.51H179.561C179.561 122.89 177.075 110.394 172.246 98.7345C167.416 87.0753 160.338 76.4814 151.414 67.5579C142.491 58.6343 131.897 51.5557 120.238 46.7263C108.578 41.8969 96.0822 39.4113 83.4624 39.4113V38.0838Z" fill="#91A3BE"/>
<path fill-rule="evenodd" clip-rule="evenodd" d="M179.559 135.067L252.186 135.067L252.186 136.395L179.559 136.396L179.559 135.067Z" fill="#91A3BE"/>
<path d="M262.372 146.138C256.502 146.138 251.743 141.38 251.743 135.51C251.743 129.64 256.502 124.882 262.372 124.882C268.242 124.882 273 129.64 273 135.51C273 141.38 268.242 146.138 262.372 146.138Z" fill="#F4F8FE"/>
<path fill-rule="evenodd" clip-rule="evenodd" d="M253.072 135.51C253.072 140.646 257.236 144.81 262.372 144.81C267.508 144.81 271.671 140.646 271.671 135.51C271.671 130.374 267.508 126.21 262.372 126.21C257.236 126.21 253.072 130.374 253.072 135.51ZM251.743 135.51C251.743 141.38 256.502 146.138 262.372 146.138C268.242 146.138 273 141.38 273 135.51C273 129.64 268.242 124.882 262.372 124.882C256.502 124.882 251.743 129.64 251.743 135.51Z" fill="#91A3BE"/>
<rect x="166.053" y="52.9192" width="164.698" height="164.698" rx="82.3489" transform="rotate(90 166.053 52.9192)" stroke="#91A3BE" stroke-width="1.32854"/>
<g clip-path="url(#clip1_13778_7650)">
<path d="M93.3887 133.507H97.7908" stroke="#305680" stroke-width="3.52174" stroke-linecap="round"/>
<path d="M109.237 140.551H114.519" stroke="#305680" stroke-width="3.52174" stroke-linecap="round"/>
<path d="M109.237 151.116H114.519" stroke="#305680" stroke-width="3.52174" stroke-linecap="round"/>
<path d="M52.8887 140.551H58.1713" stroke="#305680" stroke-width="3.52174" stroke-linecap="round"/>
<path d="M52.8887 151.116H58.1713" stroke="#305680" stroke-width="3.52174" stroke-linecap="round"/>
<path d="M81.9434 133.507H86.3455" stroke="#305680" stroke-width="3.52174" stroke-linecap="round"/>
<path d="M70.4976 133.507H74.8997" stroke="#305680" stroke-width="3.52174" stroke-linecap="round"/>
<path d="M47.6064 129.985V173.127C47.6064 173.613 48.0006 174.007 48.4869 174.007H69.6173M103.954 128.225H118.922C119.408 128.225 119.802 128.619 119.802 129.105V173.127C119.802 173.613 119.408 174.007 118.922 174.007H97.7912M69.6173 174.007V149.402C69.6173 148.916 70.0115 148.521 70.4978 148.521H83.4842M69.6173 174.007H83.7043M97.7912 174.007V149.402C97.7912 148.916 97.397 148.521 96.9108 148.521H83.4842M97.7912 174.007H83.7043M83.4842 148.521L83.7043 174.007" stroke="#305680" stroke-width="3.52174" stroke-linecap="round"/>
<path d="M65.2148 172.687C65.2148 173.659 64.4265 174.447 63.4541 174.447C62.4817 174.447 61.6934 173.659 61.6934 172.687V129.985H44.9648C43.9924 129.985 43.2042 129.197 43.2041 128.225C43.2042 127.252 43.9924 126.464 44.9648 126.464H61.6934V111.496H59.4922C58.5197 111.496 57.7314 110.708 57.7314 109.735C57.7315 108.763 58.5198 107.975 59.4922 107.975H65.2148V172.687ZM108.096 107.983C108.984 108.073 109.677 108.824 109.677 109.735C109.677 110.647 108.984 111.397 108.096 111.487L107.916 111.496H105.715V126.464H122.443L122.623 126.473C123.511 126.563 124.204 127.313 124.204 128.225C124.204 129.136 123.511 129.886 122.623 129.977L122.443 129.985H105.715V172.687C105.715 173.659 104.927 174.447 103.954 174.447C102.982 174.447 102.193 173.659 102.193 172.687V107.975H107.916L108.096 107.983Z" fill="#305680"/>
<circle cx="98.6715" cy="115.899" r="1.76087" fill="#305680"/>
<path d="M72.6109 105.318V114.115C72.6109 114.354 72.7059 114.583 72.8835 114.743C76.2056 117.734 84.3345 121.528 92.7163 114.753C92.9186 114.59 93.0369 114.339 93.0369 114.079V105.089M98.6717 102.643V109.736M98.6717 102.643L83.1 97.5006C82.9207 97.4414 82.7271 97.4414 82.5478 97.5006L69.169 101.919C68.401 102.172 68.3527 103.24 69.0946 103.562L82.4734 109.369C82.697 109.466 82.9508 109.466 83.1744 109.369L98.6717 102.643Z" stroke="#305680" stroke-width="3.52174" stroke-linecap="round"/>
</g>
</g>
<defs>
<clipPath id="clip0_13778_7650">
<rect width="232" height="273" fill="white" transform="matrix(0 1 -1 0 273 0)"/>
</clipPath>
<clipPath id="clip1_13778_7650">
<rect width="81" height="81" fill="white" transform="translate(43.2041 94.7681)"/>
</clipPath>
</defs>
</svg>
