<svg width="273" height="219" viewBox="0 0 273 219" fill="none" xmlns="http://www.w3.org/2000/svg">
<path fill-rule="evenodd" clip-rule="evenodd" d="M83.5113 38.3627V0.779785L84.8398 0.779785V38.3627H83.5113Z" fill="#91A3BE"/>
<path d="M83.5117 37.9788C96.3059 37.9788 108.975 40.4988 120.795 45.3949C132.615 50.291 143.355 57.4674 152.402 66.5142C161.449 75.561 168.625 86.3012 173.522 98.1215C178.418 109.942 180.938 122.611 180.938 135.405H179.61C179.61 122.785 177.125 110.289 172.295 98.6295C167.466 86.9703 160.387 76.3765 151.464 67.4529C142.54 58.5293 131.946 51.4508 120.287 46.6214C108.628 41.792 96.1316 39.3063 83.5117 39.3063V37.9788Z" fill="#91A3BE"/>
<path fill-rule="evenodd" clip-rule="evenodd" d="M179.608 134.962L252.234 134.962L252.234 136.291L179.608 136.291L179.608 134.962Z" fill="#91A3BE"/>
<path d="M262.421 146.033C256.551 146.033 251.792 141.275 251.792 135.405C251.792 129.535 256.551 124.777 262.421 124.777C268.29 124.777 273.049 129.535 273.049 135.405C273.049 141.275 268.29 146.033 262.421 146.033Z" fill="#F4F8FE"/>
<path fill-rule="evenodd" clip-rule="evenodd" d="M253.121 135.405C253.121 140.541 257.284 144.705 262.421 144.705C267.557 144.705 271.72 140.541 271.72 135.405C271.72 130.269 267.557 126.105 262.421 126.105C257.284 126.105 253.121 130.269 253.121 135.405ZM251.792 135.405C251.792 141.275 256.551 146.033 262.421 146.033C268.29 146.033 273.049 141.275 273.049 135.405C273.049 129.535 268.29 124.777 262.421 124.777C256.551 124.777 251.792 129.535 251.792 135.405Z" fill="#91A3BE"/>
<rect x="166.101" y="52.8142" width="164.698" height="164.698" rx="82.3489" transform="rotate(90 166.101 52.8142)" stroke="#91A3BE" stroke-width="1.32854"/>
<path d="M87.2661 159.769H53.8091V133.165" stroke="#305680" stroke-width="3.66778" stroke-miterlimit="22.926" stroke-linecap="round" stroke-linejoin="round"/>
<path d="M104.688 140.51V133.175" stroke="#305680" stroke-width="3.66778" stroke-miterlimit="22.926" stroke-linecap="round" stroke-linejoin="round"/>
<path d="M71.6982 158.854V138.807H86.3295V158.854" stroke="#305680" stroke-width="3.66778" stroke-miterlimit="22.926" stroke-linecap="round" stroke-linejoin="round"/>
<path d="M109.731 150.141C109.731 151.66 106.344 152.892 102.166 152.892C97.9879 152.892 94.6011 151.66 94.6011 150.141M109.731 150.141C109.731 148.622 106.344 147.39 102.166 147.39C97.9879 147.39 94.6011 148.622 94.6011 150.141M109.731 150.141V152.204M94.6011 150.141V166.646C94.6011 168.165 96.435 169.397 100.332 169.397M100.332 158.393C100.1 158.393 99.8708 158.39 99.6443 158.382C96.435 158.277 94.6011 157.078 94.6011 155.643M100.332 163.895C96.435 163.895 94.6011 162.664 94.6011 161.144M121.192 159.998C121.192 161.517 117.806 162.749 113.628 162.749C109.45 162.749 106.063 161.517 106.063 159.998M121.192 159.998C121.192 158.479 117.806 157.247 113.628 157.247C109.45 157.247 106.063 158.479 106.063 159.998M121.192 159.998V170.314C121.192 171.833 117.806 173.065 113.628 173.065C109.45 173.065 106.063 171.833 106.063 170.314V159.998M121.192 165.156C121.192 166.675 117.806 167.907 113.628 167.907C109.45 167.907 106.063 166.675 106.063 165.156" stroke="#305680" stroke-width="3.66778" stroke-linecap="round" stroke-linejoin="round"/>
<path d="M68.927 105.666C68.927 105.666 74.8872 101.769 76.2626 100.852C77.638 99.9358 79.9303 99.9355 81.7642 100.852C83.5981 101.769 106.98 117.357 108.814 118.733C110.648 120.108 112.023 122.401 112.023 125.151C112.023 127.902 109.993 130.293 107.439 131.57C105.146 132.716 102.395 132.028 100.103 130.653C98.0355 129.413 82.5412 118.848 79.5223 116.788C79.2119 116.576 78.8152 116.574 78.5037 116.784C75.5236 118.796 60.4012 129.001 57.9237 130.653C55.1728 132.487 52.8298 132.317 50.5881 131.57C47.8373 130.653 46.0034 127.444 46.0034 125.151C46.0034 122.401 47.3788 120.12 49.2127 118.733C51.0466 117.346 55.6313 114.377 55.6313 114.377" stroke="#305680" stroke-width="3.66778" stroke-linecap="round"/>
<path d="M64.3426 110.251C64.3426 111.264 63.5214 112.085 62.5087 112.085C61.496 112.085 60.6748 111.264 60.6748 110.251C60.6748 109.239 61.496 108.417 62.5087 108.417C63.5214 108.417 64.3426 109.239 64.3426 110.251Z" fill="#305680"/>
</svg>
