<svg width="246" height="308" viewBox="0 0 246 308" fill="none" xmlns="http://www.w3.org/2000/svg">
<path fill-rule="evenodd" clip-rule="evenodd" d="M42.4334 214H0V212.5H42.4334V214Z" fill="#91A3BE"/>
<path d="M42 214C42 199.555 44.8452 185.251 50.3732 171.905C55.9013 158.559 64.0038 146.433 74.2183 136.218C84.4327 126.004 96.559 117.901 109.905 112.373C123.251 106.845 137.555 104 152 104V105.499C137.751 105.499 123.642 108.305 110.478 113.758C97.3144 119.211 85.3533 127.203 75.2781 137.278C65.2028 147.353 57.2107 159.314 51.758 172.478C46.3053 185.642 43.4988 199.751 43.4988 214H42Z" fill="#91A3BE"/>
<path fill-rule="evenodd" clip-rule="evenodd" d="M151.5 105.5L151.5 23.5L153 23.5L153 105.5L151.5 105.5Z" fill="#91A3BE"/>
<path d="M164 12C164 18.6274 158.627 24 152 24C145.373 24 140 18.6274 140 12C140 5.37258 145.373 0 152 0C158.627 0 164 5.37258 164 12Z" fill="#F4F8FE"/>
<path fill-rule="evenodd" clip-rule="evenodd" d="M152 22.5C157.799 22.5 162.5 17.799 162.5 12C162.5 6.20101 157.799 1.5 152 1.5C146.201 1.5 141.5 6.20101 141.5 12C141.5 17.799 146.201 22.5 152 22.5ZM152 24C158.627 24 164 18.6274 164 12C164 5.37258 158.627 0 152 0C145.373 0 140 5.37258 140 12C140 18.6274 145.373 24 152 24Z" fill="#91A3BE"/>
<rect x="58.75" y="120.75" width="186.5" height="186.5" rx="93.25" stroke="#91A3BE" stroke-width="1.5"/>
<path d="M156.145 240.171H117.879V209.744" stroke="#305680" stroke-width="4.195" stroke-miterlimit="22.926" stroke-linecap="round" stroke-linejoin="round"/>
<path d="M176.071 218.145V209.755" stroke="#305680" stroke-width="4.195" stroke-miterlimit="22.926" stroke-linecap="round" stroke-linejoin="round"/>
<path d="M138.339 239.125V216.196H155.074V239.125" stroke="#305680" stroke-width="4.195" stroke-miterlimit="22.926" stroke-linecap="round" stroke-linejoin="round"/>
<path d="M181.839 229.159C181.839 230.897 177.966 232.305 173.187 232.305C168.409 232.305 164.535 230.897 164.535 229.159M181.839 229.159C181.839 227.422 177.966 226.013 173.187 226.013C168.409 226.013 164.535 227.422 164.535 229.159M181.839 229.159V231.519M164.535 229.159V248.037C164.535 249.774 166.632 251.183 171.09 251.183M171.09 238.598C170.824 238.598 170.562 238.594 170.303 238.585C166.632 238.465 164.535 237.093 164.535 235.452M171.09 244.89C166.632 244.89 164.535 243.482 164.535 241.744M194.949 240.433C194.949 242.171 191.075 243.579 186.296 243.579C181.518 243.579 177.644 242.171 177.644 240.433M194.949 240.433C194.949 238.696 191.075 237.287 186.296 237.287C181.518 237.287 177.644 238.696 177.644 240.433M194.949 240.433V252.232C194.949 253.969 191.075 255.378 186.296 255.378C181.518 255.378 177.644 253.969 177.644 252.232V240.433M194.949 246.332C194.949 248.07 191.075 249.479 186.296 249.479C181.518 249.479 177.644 248.07 177.644 246.332" stroke="#305680" stroke-width="4.195" stroke-linecap="round" stroke-linejoin="round"/>
<path d="M135.17 178.293C135.17 178.293 141.987 173.835 143.56 172.787C145.133 171.738 147.755 171.738 149.852 172.787C151.95 173.835 178.693 191.664 180.79 193.237C182.888 194.81 184.461 197.432 184.461 200.579C184.461 203.725 182.139 206.459 179.217 207.92C176.595 209.231 173.449 208.444 170.827 206.871C168.463 205.452 150.741 193.369 147.288 191.013C146.933 190.77 146.479 190.768 146.123 191.009C142.715 193.309 125.419 204.982 122.585 206.871C119.439 208.969 116.759 208.774 114.195 207.92C111.049 206.871 108.951 203.2 108.951 200.579C108.951 197.432 110.524 194.824 112.622 193.237C114.719 191.651 119.963 188.256 119.963 188.256" stroke="#305680" stroke-width="4.195" stroke-linecap="round"/>
<path d="M129.926 183.537C129.926 184.695 128.987 185.634 127.829 185.634C126.67 185.634 125.731 184.695 125.731 183.537C125.731 182.378 126.67 181.439 127.829 181.439C128.987 181.439 129.926 182.378 129.926 183.537Z" fill="#305680"/>
</svg>
