<svg width="346" height="221" viewBox="0 0 346 221" fill="none" xmlns="http://www.w3.org/2000/svg">
<path d="M201 50C201 44.4771 205.477 40 211 40H336C341.523 40 346 44.4772 346 50V171C346 176.523 341.523 181 336 181H211C205.477 181 201 176.523 201 171V50Z" fill="#F4F4F4"/>
<path d="M201 50C201 44.4771 205.477 40 211 40H336C341.523 40 346 44.4772 346 50V171C346 176.523 341.523 181 336 181H211C205.477 181 201 176.523 201 171V50Z" fill="white"/>
<path fill-rule="evenodd" clip-rule="evenodd" d="M336 41H211C206.029 41 202 45.0294 202 50V171C202 175.971 206.029 180 211 180H336C340.971 180 345 175.971 345 171V50C345 45.0294 340.971 41 336 41ZM211 40C205.477 40 201 44.4771 201 50V171C201 176.523 205.477 181 211 181H336C341.523 181 346 176.523 346 171V50C346 44.4772 341.523 40 336 40H211Z" fill="#B7B7B7"/>
<path d="M211 83C211 79.6863 213.686 77 217 77H330C333.314 77 336 79.6863 336 83V108C336 111.314 333.314 114 330 114H217C213.686 114 211 111.314 211 108V83Z" fill="#305680"/>
<path fill-rule="evenodd" clip-rule="evenodd" d="M223.611 92.2594C223.508 92.3671 223.448 92.5159 223.455 92.6792C223.462 92.8206 223.518 92.9572 223.617 93.0608C224.088 93.5349 225.016 94.4593 225.016 94.4593L225.836 93.6412C225.836 93.6412 224.938 92.7449 224.44 92.2463C224.329 92.1334 224.18 92.0863 224.024 92.0856C223.861 92.0848 223.715 92.1516 223.611 92.2593L223.611 92.2594ZM225.836 93.6412L223.301 96.175C223.026 96.4499 223.026 96.8956 223.301 97.1706L224.557 98.4262L226.754 100.622L228.863 102.73C229.138 103.005 229.584 103.005 229.859 102.73L231.574 101.015L234.198 98.3934L236.733 95.8596C237.008 95.5847 237.008 95.1389 236.733 94.864L235.443 93.5771L233.246 91.3814L231.17 89.3065C230.895 89.0316 230.449 89.0316 230.174 89.3065L228.459 91.0209L225.836 93.6428L225.836 93.6412ZM228.459 91.0193C228.459 91.0193 227.561 90.123 227.063 89.6245C226.952 89.5116 226.804 89.4645 226.647 89.4638C226.321 89.4622 226.063 89.7308 226.079 90.0573C226.085 90.1987 226.142 90.3353 226.24 90.4389C226.711 90.913 227.639 91.8374 227.639 91.8374L228.459 91.0193L228.459 91.0193ZM233.247 91.3799C233.247 91.3799 234.143 90.4827 234.642 89.9846C234.755 89.8737 234.802 89.7253 234.803 89.5688C234.805 89.2427 234.536 88.9856 234.209 89.0006C234.068 89.0073 233.931 89.0638 233.827 89.1623C233.353 89.6329 232.428 90.5608 232.428 90.5608L233.247 91.3798L233.247 91.3799ZM235.444 93.5757C235.444 93.5757 236.34 92.6785 236.839 92.1804C236.952 92.0695 236.999 91.9211 237 91.7647C237.002 91.4385 236.733 91.1814 236.406 91.1965C236.265 91.2031 236.128 91.2596 236.024 91.3581C235.55 91.8287 234.625 92.7566 234.625 92.7566L235.444 93.5757L235.444 93.5757ZM234.197 98.3933C234.197 98.3933 235.095 99.2896 235.594 99.788C235.705 99.9009 235.853 99.948 236.01 99.9487C236.336 99.9503 236.593 99.6817 236.578 99.3552L236.578 99.3553C236.571 99.2139 236.515 99.0772 236.416 98.9737C235.945 98.4996 235.017 97.5752 235.017 97.5752L234.197 98.3933L234.197 98.3933ZM231.574 101.015C231.574 101.015 232.472 101.911 232.97 102.41C233.081 102.523 233.23 102.57 233.386 102.571C233.713 102.572 233.97 102.304 233.955 101.977H233.955C233.948 101.836 233.891 101.699 233.793 101.595C233.322 101.121 232.394 100.197 232.394 100.197L231.574 101.015L231.574 101.015ZM226.753 100.62C226.753 100.62 225.857 101.517 225.358 102.015C225.245 102.126 225.198 102.275 225.197 102.431C225.196 102.757 225.464 103.014 225.791 102.999H225.791C225.932 102.993 226.069 102.936 226.173 102.838C226.647 102.367 227.572 101.439 227.572 101.439L226.754 100.624L226.753 100.62ZM224.556 98.4242C224.556 98.4242 223.66 99.3213 223.161 99.8196C223.048 99.9303 223.001 100.079 223 100.235C222.998 100.561 223.267 100.818 223.594 100.805H223.594C223.735 100.798 223.872 100.742 223.976 100.643C224.45 100.173 225.375 99.2448 225.375 99.2448L224.556 98.4244L224.556 98.4242ZM230.592 92.1618C230.708 92.0438 230.866 91.9778 231.028 91.9802C231.143 91.9818 231.253 92.0182 231.343 92.0846L232.485 92.9213C232.706 93.0802 232.772 93.3818 232.639 93.6344C232.507 93.887 232.216 94.0165 231.951 93.9403L232.374 95.5964C232.451 95.8973 232.266 96.2165 231.961 96.3098L228.872 97.2525L229.442 99.4573C229.523 99.7594 229.338 100.083 229.03 100.177C228.722 100.271 228.409 100.1 228.334 99.7962L227.622 97.0461C227.544 96.7449 227.729 96.4247 228.036 96.3312L231.126 95.3881L230.841 94.2735C230.649 94.4854 230.34 94.5369 230.108 94.3953C229.876 94.2538 229.789 93.9604 229.901 93.7005L230.463 92.3552C230.493 92.2835 230.537 92.2177 230.592 92.1618L230.592 92.1618Z" fill="white"/>
<path d="M249.598 100.117C248.617 100.117 247.871 99.832 247.359 99.2617C246.852 98.6875 246.598 97.8652 246.598 96.7949C246.598 95.7051 246.863 94.8672 247.395 94.2812C247.93 93.6953 248.701 93.4023 249.709 93.4023C250.393 93.4023 251.008 93.5293 251.555 93.7832L251.139 94.8906C250.557 94.6641 250.076 94.5508 249.697 94.5508C248.576 94.5508 248.016 95.2949 248.016 96.7832C248.016 97.5098 248.154 98.0566 248.432 98.4238C248.713 98.7871 249.123 98.9688 249.662 98.9688C250.275 98.9688 250.855 98.8164 251.402 98.5117V99.7129C251.156 99.8574 250.893 99.9609 250.611 100.023C250.334 100.086 249.996 100.117 249.598 100.117Z" fill="white"/>
<path d="M258.58 98.1309H257.426V100H256.084V98.1309H252.17V97.0703L256.084 91.4102H257.426V96.9883H258.58V98.1309ZM256.084 96.9883V94.8379C256.084 94.0723 256.104 93.4453 256.143 92.957H256.096C255.986 93.2148 255.814 93.5273 255.58 93.8945L253.453 96.9883H256.084Z" fill="white"/>
<path d="M259.576 99.2676C259.576 98.9824 259.65 98.7637 259.799 98.6113C259.947 98.459 260.162 98.3828 260.443 98.3828C260.729 98.3828 260.945 98.4629 261.094 98.623C261.242 98.7793 261.316 98.9941 261.316 99.2676C261.316 99.5449 261.24 99.7656 261.088 99.9297C260.939 100.09 260.725 100.17 260.443 100.17C260.162 100.17 259.947 100.09 259.799 99.9297C259.65 99.7695 259.576 99.5488 259.576 99.2676Z" fill="white"/>
<path d="M268.436 100H262.629V98.957L264.838 96.7363C265.49 96.0684 265.922 95.5957 266.133 95.3184C266.348 95.0371 266.504 94.7734 266.602 94.5273C266.699 94.2812 266.748 94.0176 266.748 93.7363C266.748 93.3496 266.631 93.0449 266.396 92.8223C266.166 92.5996 265.846 92.4883 265.436 92.4883C265.107 92.4883 264.789 92.5488 264.48 92.6699C264.176 92.791 263.822 93.0098 263.42 93.3262L262.676 92.418C263.152 92.0156 263.615 91.7305 264.064 91.5625C264.514 91.3945 264.992 91.3105 265.5 91.3105C266.297 91.3105 266.936 91.5195 267.416 91.9375C267.896 92.3516 268.137 92.9102 268.137 93.6133C268.137 94 268.066 94.3672 267.926 94.7148C267.789 95.0625 267.576 95.4219 267.287 95.793C267.002 96.1602 266.525 96.6582 265.857 97.2871L264.369 98.7285V98.7871H268.436V100Z" fill="white"/>
<path d="M271.383 96.6895L269.209 93.5195H270.779L272.256 95.7871L273.744 93.5195H275.303L273.123 96.6895L275.414 100H273.855L272.256 97.5742L270.662 100H269.104L271.383 96.6895Z" fill="white"/>
<path d="M277.928 100H276.551V90.8828H277.928V100Z" fill="white"/>
<path d="M283.957 100L283.682 99.0977H283.635C283.322 99.4922 283.008 99.7617 282.691 99.9062C282.375 100.047 281.969 100.117 281.473 100.117C280.836 100.117 280.338 99.9453 279.979 99.6016C279.623 99.2578 279.445 98.7715 279.445 98.1426C279.445 97.4746 279.693 96.9707 280.189 96.6309C280.686 96.291 281.441 96.1055 282.457 96.0742L283.576 96.0391V95.6934C283.576 95.2793 283.479 94.9707 283.283 94.7676C283.092 94.5605 282.793 94.457 282.387 94.457C282.055 94.457 281.736 94.5059 281.432 94.6035C281.127 94.7012 280.834 94.8164 280.553 94.9492L280.107 93.9648C280.459 93.7812 280.844 93.6426 281.262 93.5488C281.68 93.4512 282.074 93.4023 282.445 93.4023C283.27 93.4023 283.891 93.582 284.309 93.9414C284.73 94.3008 284.941 94.8652 284.941 95.6348V100H283.957ZM281.906 99.0625C282.406 99.0625 282.807 98.9238 283.107 98.6465C283.412 98.3652 283.564 97.9727 283.564 97.4688V96.9062L282.732 96.9414C282.084 96.9648 281.611 97.0742 281.314 97.2695C281.021 97.4609 280.875 97.7559 280.875 98.1543C280.875 98.4434 280.961 98.668 281.133 98.8281C281.305 98.9844 281.562 99.0625 281.906 99.0625Z" fill="white"/>
<path d="M290.15 93.4023C290.428 93.4023 290.656 93.4219 290.836 93.4609L290.701 94.7441C290.506 94.6973 290.303 94.6738 290.092 94.6738C289.541 94.6738 289.094 94.8535 288.75 95.2129C288.41 95.5723 288.24 96.0391 288.24 96.6133V100H286.863V93.5195H287.941L288.123 94.6621H288.193C288.408 94.2754 288.688 93.9688 289.031 93.7422C289.379 93.5156 289.752 93.4023 290.15 93.4023Z" fill="white"/>
<path d="M297.516 93.5195V94.2754L296.408 94.4805C296.51 94.6172 296.594 94.7852 296.66 94.9844C296.727 95.1836 296.76 95.3945 296.76 95.6172C296.76 96.2852 296.529 96.8105 296.068 97.1934C295.607 97.5762 294.973 97.7676 294.164 97.7676C293.957 97.7676 293.77 97.752 293.602 97.7207C293.305 97.9043 293.156 98.1191 293.156 98.3652C293.156 98.5137 293.225 98.625 293.361 98.6992C293.502 98.7734 293.758 98.8105 294.129 98.8105H295.26C295.975 98.8105 296.518 98.9629 296.889 99.2676C297.26 99.5723 297.445 100.012 297.445 100.586C297.445 101.32 297.143 101.887 296.537 102.285C295.932 102.684 295.057 102.883 293.912 102.883C293.029 102.883 292.355 102.727 291.891 102.414C291.426 102.102 291.193 101.656 291.193 101.078C291.193 100.68 291.318 100.344 291.568 100.07C291.822 99.8008 292.176 99.6133 292.629 99.5078C292.445 99.4297 292.293 99.3047 292.172 99.1328C292.055 98.957 291.996 98.7734 291.996 98.582C291.996 98.3398 292.064 98.1348 292.201 97.9668C292.338 97.7988 292.541 97.6328 292.811 97.4688C292.475 97.3242 292.201 97.0898 291.99 96.7656C291.783 96.4375 291.68 96.0547 291.68 95.6172C291.68 94.9141 291.9 94.3691 292.342 93.9824C292.787 93.5957 293.42 93.4023 294.24 93.4023C294.424 93.4023 294.615 93.416 294.814 93.4434C295.018 93.4668 295.17 93.4922 295.271 93.5195H297.516ZM292.424 101.008C292.424 101.305 292.557 101.533 292.822 101.693C293.092 101.854 293.469 101.934 293.953 101.934C294.703 101.934 295.262 101.826 295.629 101.611C295.996 101.396 296.18 101.111 296.18 100.756C296.18 100.475 296.078 100.273 295.875 100.152C295.676 100.035 295.303 99.9766 294.756 99.9766H293.713C293.318 99.9766 293.004 100.068 292.77 100.252C292.539 100.439 292.424 100.691 292.424 101.008ZM293.016 95.6172C293.016 96.0234 293.119 96.3359 293.326 96.5547C293.537 96.7734 293.838 96.8828 294.229 96.8828C295.025 96.8828 295.424 96.457 295.424 95.6055C295.424 95.1836 295.324 94.8594 295.125 94.6328C294.93 94.4023 294.631 94.2871 294.229 94.2871C293.83 94.2871 293.527 94.4004 293.32 94.627C293.117 94.8535 293.016 95.1836 293.016 95.6172Z" fill="white"/>
<path d="M301.553 100.117C300.545 100.117 299.756 99.8242 299.186 99.2383C298.619 98.6484 298.336 97.8379 298.336 96.8066C298.336 95.748 298.6 94.916 299.127 94.3105C299.654 93.7051 300.379 93.4023 301.301 93.4023C302.156 93.4023 302.832 93.6621 303.328 94.1816C303.824 94.7012 304.072 95.416 304.072 96.3262V97.0703H299.754C299.773 97.6992 299.943 98.1836 300.264 98.5234C300.584 98.8594 301.035 99.0273 301.617 99.0273C302 99.0273 302.355 98.9922 302.684 98.9219C303.016 98.8477 303.371 98.7266 303.75 98.5586V99.6777C303.414 99.8379 303.074 99.9512 302.73 100.018C302.387 100.084 301.994 100.117 301.553 100.117ZM301.301 94.4453C300.863 94.4453 300.512 94.584 300.246 94.8613C299.984 95.1387 299.828 95.543 299.777 96.0742H302.719C302.711 95.5391 302.582 95.1348 302.332 94.8613C302.082 94.584 301.738 94.4453 301.301 94.4453Z" fill="white"/>
<path d="M211 140C211 136.686 213.686 134 217 134H330C333.314 134 336 136.686 336 140V165C336 168.314 333.314 171 330 171H217C213.686 171 211 168.314 211 165V140Z" fill="#F7F8FA"/>
<path fill-rule="evenodd" clip-rule="evenodd" d="M330 135H217C214.239 135 212 137.239 212 140V165C212 167.761 214.239 170 217 170H330C332.761 170 335 167.761 335 165V140C335 137.239 332.761 135 330 135ZM217 134C213.686 134 211 136.686 211 140V165C211 168.314 213.686 171 217 171H330C333.314 171 336 168.314 336 165V140C336 136.686 333.314 134 330 134H217Z" fill="#305680" fill-opacity="0.4"/>
<path d="M250.846 149.201C249.904 149.201 249.16 149.516 248.613 150.145C248.07 150.77 247.799 151.627 247.799 152.717C247.799 153.838 248.061 154.705 248.584 155.318C249.111 155.928 249.861 156.232 250.834 156.232C251.432 156.232 252.113 156.125 252.879 155.91V156.783C252.285 157.006 251.553 157.117 250.682 157.117C249.42 157.117 248.445 156.734 247.758 155.969C247.074 155.203 246.732 154.115 246.732 152.705C246.732 151.822 246.896 151.049 247.225 150.385C247.557 149.721 248.033 149.209 248.654 148.85C249.279 148.49 250.014 148.311 250.857 148.311C251.756 148.311 252.541 148.475 253.213 148.803L252.791 149.658C252.143 149.354 251.494 149.201 250.846 149.201Z" fill="#28232D"/>
<path d="M258.551 157L258.357 156.086H258.311C257.99 156.488 257.67 156.762 257.35 156.906C257.033 157.047 256.637 157.117 256.16 157.117C255.523 157.117 255.023 156.953 254.66 156.625C254.301 156.297 254.121 155.83 254.121 155.225C254.121 153.928 255.158 153.248 257.232 153.186L258.322 153.15V152.752C258.322 152.248 258.213 151.877 257.994 151.639C257.779 151.396 257.434 151.275 256.957 151.275C256.422 151.275 255.816 151.439 255.141 151.768L254.842 151.023C255.158 150.852 255.504 150.717 255.879 150.619C256.258 150.521 256.637 150.473 257.016 150.473C257.781 150.473 258.348 150.643 258.715 150.982C259.086 151.322 259.271 151.867 259.271 152.617V157H258.551ZM256.354 156.314C256.959 156.314 257.434 156.148 257.777 155.816C258.125 155.484 258.299 155.02 258.299 154.422V153.842L257.326 153.883C256.553 153.91 255.994 154.031 255.65 154.246C255.311 154.457 255.141 154.787 255.141 155.236C255.141 155.588 255.246 155.855 255.457 156.039C255.672 156.223 255.971 156.314 256.354 156.314Z" fill="#28232D"/>
<path d="M265.424 155.248C265.424 155.846 265.201 156.307 264.756 156.631C264.311 156.955 263.686 157.117 262.881 157.117C262.029 157.117 261.365 156.982 260.889 156.713V155.811C261.197 155.967 261.527 156.09 261.879 156.18C262.234 156.27 262.576 156.314 262.904 156.314C263.412 156.314 263.803 156.234 264.076 156.074C264.35 155.91 264.486 155.662 264.486 155.33C264.486 155.08 264.377 154.867 264.158 154.691C263.943 154.512 263.521 154.301 262.893 154.059C262.295 153.836 261.869 153.643 261.615 153.479C261.365 153.311 261.178 153.121 261.053 152.91C260.932 152.699 260.871 152.447 260.871 152.154C260.871 151.631 261.084 151.219 261.51 150.918C261.936 150.613 262.52 150.461 263.262 150.461C263.953 150.461 264.629 150.602 265.289 150.883L264.943 151.674C264.299 151.408 263.715 151.275 263.191 151.275C262.73 151.275 262.383 151.348 262.148 151.492C261.914 151.637 261.797 151.836 261.797 152.09C261.797 152.262 261.84 152.408 261.926 152.529C262.016 152.65 262.158 152.766 262.354 152.875C262.549 152.984 262.924 153.143 263.479 153.35C264.24 153.627 264.754 153.906 265.02 154.188C265.289 154.469 265.424 154.822 265.424 155.248Z" fill="#28232D"/>
<path d="M271.154 155.248C271.154 155.846 270.932 156.307 270.486 156.631C270.041 156.955 269.416 157.117 268.611 157.117C267.76 157.117 267.096 156.982 266.619 156.713V155.811C266.928 155.967 267.258 156.09 267.609 156.18C267.965 156.27 268.307 156.314 268.635 156.314C269.143 156.314 269.533 156.234 269.807 156.074C270.08 155.91 270.217 155.662 270.217 155.33C270.217 155.08 270.107 154.867 269.889 154.691C269.674 154.512 269.252 154.301 268.623 154.059C268.025 153.836 267.6 153.643 267.346 153.479C267.096 153.311 266.908 153.121 266.783 152.91C266.662 152.699 266.602 152.447 266.602 152.154C266.602 151.631 266.814 151.219 267.24 150.918C267.666 150.613 268.25 150.461 268.992 150.461C269.684 150.461 270.359 150.602 271.02 150.883L270.674 151.674C270.029 151.408 269.445 151.275 268.922 151.275C268.461 151.275 268.113 151.348 267.879 151.492C267.645 151.637 267.527 151.836 267.527 152.09C267.527 152.262 267.57 152.408 267.656 152.529C267.746 152.65 267.889 152.766 268.084 152.875C268.279 152.984 268.654 153.143 269.209 153.35C269.971 153.627 270.484 153.906 270.75 154.188C271.02 154.469 271.154 154.822 271.154 155.248Z" fill="#28232D"/>
<path d="M276.691 157L276.498 156.086H276.451C276.131 156.488 275.811 156.762 275.49 156.906C275.174 157.047 274.777 157.117 274.301 157.117C273.664 157.117 273.164 156.953 272.801 156.625C272.441 156.297 272.262 155.83 272.262 155.225C272.262 153.928 273.299 153.248 275.373 153.186L276.463 153.15V152.752C276.463 152.248 276.354 151.877 276.135 151.639C275.92 151.396 275.574 151.275 275.098 151.275C274.562 151.275 273.957 151.439 273.281 151.768L272.982 151.023C273.299 150.852 273.645 150.717 274.02 150.619C274.398 150.521 274.777 150.473 275.156 150.473C275.922 150.473 276.488 150.643 276.855 150.982C277.227 151.322 277.412 151.867 277.412 152.617V157H276.691ZM274.494 156.314C275.1 156.314 275.574 156.148 275.918 155.816C276.266 155.484 276.439 155.02 276.439 154.422V153.842L275.467 153.883C274.693 153.91 274.135 154.031 273.791 154.246C273.451 154.457 273.281 154.787 273.281 155.236C273.281 155.588 273.387 155.855 273.598 156.039C273.812 156.223 274.111 156.314 274.494 156.314Z" fill="#28232D"/>
<path d="M283.816 157V152.846C283.816 152.322 283.697 151.932 283.459 151.674C283.221 151.416 282.848 151.287 282.34 151.287C281.668 151.287 281.176 151.469 280.863 151.832C280.551 152.195 280.395 152.795 280.395 153.631V157H279.422V150.578H280.213L280.371 151.457H280.418C280.617 151.141 280.896 150.896 281.256 150.725C281.615 150.549 282.016 150.461 282.457 150.461C283.23 150.461 283.812 150.648 284.203 151.023C284.594 151.395 284.789 151.99 284.789 152.811V157H283.816Z" fill="#28232D"/>
<path d="M291.164 156.139H291.111C290.662 156.791 289.99 157.117 289.096 157.117C288.256 157.117 287.602 156.83 287.133 156.256C286.668 155.682 286.436 154.865 286.436 153.807C286.436 152.748 286.67 151.926 287.139 151.34C287.607 150.754 288.26 150.461 289.096 150.461C289.967 150.461 290.635 150.777 291.1 151.41H291.176L291.135 150.947L291.111 150.496V147.883H292.084V157H291.293L291.164 156.139ZM289.219 156.303C289.883 156.303 290.363 156.123 290.66 155.764C290.961 155.4 291.111 154.816 291.111 154.012V153.807C291.111 152.896 290.959 152.248 290.654 151.861C290.354 151.471 289.871 151.275 289.207 151.275C288.637 151.275 288.199 151.498 287.895 151.943C287.594 152.385 287.443 153.01 287.443 153.818C287.443 154.639 287.594 155.258 287.895 155.676C288.195 156.094 288.637 156.303 289.219 156.303Z" fill="#28232D"/>
<path d="M297.082 150.461C297.367 150.461 297.623 150.484 297.85 150.531L297.715 151.434C297.449 151.375 297.215 151.346 297.012 151.346C296.492 151.346 296.047 151.557 295.676 151.979C295.309 152.4 295.125 152.926 295.125 153.555V157H294.152V150.578H294.955L295.066 151.768H295.113C295.352 151.35 295.639 151.027 295.975 150.801C296.311 150.574 296.68 150.461 297.082 150.461Z" fill="#28232D"/>
<path d="M303 157L302.807 156.086H302.76C302.439 156.488 302.119 156.762 301.799 156.906C301.482 157.047 301.086 157.117 300.609 157.117C299.973 157.117 299.473 156.953 299.109 156.625C298.75 156.297 298.57 155.83 298.57 155.225C298.57 153.928 299.607 153.248 301.682 153.186L302.771 153.15V152.752C302.771 152.248 302.662 151.877 302.443 151.639C302.229 151.396 301.883 151.275 301.406 151.275C300.871 151.275 300.266 151.439 299.59 151.768L299.291 151.023C299.607 150.852 299.953 150.717 300.328 150.619C300.707 150.521 301.086 150.473 301.465 150.473C302.23 150.473 302.797 150.643 303.164 150.982C303.535 151.322 303.721 151.867 303.721 152.617V157H303ZM300.803 156.314C301.408 156.314 301.883 156.148 302.227 155.816C302.574 155.484 302.748 155.02 302.748 154.422V153.842L301.775 153.883C301.002 153.91 300.443 154.031 300.1 154.246C299.76 154.457 299.59 154.787 299.59 155.236C299.59 155.588 299.695 155.855 299.906 156.039C300.121 156.223 300.42 156.314 300.803 156.314Z" fill="#28232D"/>
<path fill-rule="evenodd" clip-rule="evenodd" d="M224.348 148.355C227.965 146.848 232.035 146.848 235.652 148.355C235.863 148.443 236 148.649 236 148.877V151.123C236 151.351 235.863 151.557 235.652 151.645C232.035 153.152 227.965 153.152 224.348 151.645C224.137 151.557 224 151.351 224 151.123V148.877C224 148.649 224.137 148.443 224.348 148.355ZM224.73 152.804C228.103 154.209 231.897 154.209 235.27 152.804C235.617 152.659 236 152.914 236 153.291V154.123C236 154.351 235.863 154.557 235.652 154.645C232.035 156.152 227.965 156.152 224.348 154.645C224.137 154.557 224 154.351 224 154.123V153.291C224 152.914 224.383 152.659 224.73 152.804ZM235.27 155.804C231.897 157.209 228.103 157.209 224.73 155.804C224.383 155.659 224 155.914 224 156.291V157.123C224 157.351 224.137 157.557 224.348 157.645C227.965 159.152 232.035 159.152 235.652 157.645C235.863 157.557 236 157.351 236 157.123V156.291C236 155.914 235.617 155.659 235.27 155.804Z" fill="#305680"/>
<path fill-rule="evenodd" clip-rule="evenodd" d="M274 131L274 121H273L273 131H274Z" fill="#28232D"/>
<path d="M272.681 117.17C273.079 116.602 273.921 116.602 274.319 117.17L275.899 119.427C276.363 120.089 275.888 121 275.079 121H271.921C271.112 121 270.638 120.089 271.101 119.427L272.681 117.17Z" fill="#28232D"/>
<path d="M274.319 130.83C273.921 131.398 273.079 131.398 272.681 130.83L271.101 128.573C270.637 127.911 271.112 127 271.921 127L275.079 127C275.888 127 276.362 127.911 275.899 128.573L274.319 130.83Z" fill="#28232D"/>
<path d="M219.09 64H217.689V56.6348H215.17V55.4336H221.609V56.6348H219.09V64Z" fill="#28232D"/>
<path d="M228.482 64H227.1V60.0156C227.1 59.5156 226.998 59.1426 226.795 58.8965C226.596 58.6504 226.277 58.5273 225.84 58.5273C225.262 58.5273 224.836 58.7012 224.562 59.0488C224.293 59.3926 224.158 59.9707 224.158 60.7832V64H222.781V54.8828H224.158V57.1973C224.158 57.5684 224.135 57.9648 224.088 58.3867H224.176C224.363 58.0742 224.623 57.832 224.955 57.6602C225.291 57.4883 225.682 57.4023 226.127 57.4023C227.697 57.4023 228.482 58.1934 228.482 59.7754V64Z" fill="#28232D"/>
<path d="M231.775 64H230.398V57.5195H231.775V64ZM230.316 55.8027C230.316 55.5566 230.383 55.3672 230.516 55.2344C230.652 55.1016 230.846 55.0352 231.096 55.0352C231.338 55.0352 231.525 55.1016 231.658 55.2344C231.795 55.3672 231.863 55.5566 231.863 55.8027C231.863 56.0371 231.795 56.2227 231.658 56.3594C231.525 56.4922 231.338 56.5586 231.096 56.5586C230.846 56.5586 230.652 56.4922 230.516 56.3594C230.383 56.2227 230.316 56.0371 230.316 55.8027Z" fill="#28232D"/>
<path d="M239.451 64H238.068V60.0156C238.068 59.5156 237.967 59.1426 237.764 58.8965C237.564 58.6504 237.246 58.5273 236.809 58.5273C236.227 58.5273 235.801 58.6992 235.531 59.043C235.262 59.3867 235.127 59.9629 235.127 60.7715V64H233.75V57.5195H234.828L235.021 58.3691H235.092C235.287 58.0605 235.564 57.8223 235.924 57.6543C236.283 57.4863 236.682 57.4023 237.119 57.4023C238.674 57.4023 239.451 58.1934 239.451 59.7754V64Z" fill="#28232D"/>
<path d="M246.84 57.5195V58.2754L245.732 58.4805C245.834 58.6172 245.918 58.7852 245.984 58.9844C246.051 59.1836 246.084 59.3945 246.084 59.6172C246.084 60.2852 245.854 60.8105 245.393 61.1934C244.932 61.5762 244.297 61.7676 243.488 61.7676C243.281 61.7676 243.094 61.752 242.926 61.7207C242.629 61.9043 242.48 62.1191 242.48 62.3652C242.48 62.5137 242.549 62.625 242.686 62.6992C242.826 62.7734 243.082 62.8105 243.453 62.8105H244.584C245.299 62.8105 245.842 62.9629 246.213 63.2676C246.584 63.5723 246.77 64.0117 246.77 64.5859C246.77 65.3203 246.467 65.8867 245.861 66.2852C245.256 66.6836 244.381 66.8828 243.236 66.8828C242.354 66.8828 241.68 66.7266 241.215 66.4141C240.75 66.1016 240.518 65.6562 240.518 65.0781C240.518 64.6797 240.643 64.3438 240.893 64.0703C241.146 63.8008 241.5 63.6133 241.953 63.5078C241.77 63.4297 241.617 63.3047 241.496 63.1328C241.379 62.957 241.32 62.7734 241.32 62.582C241.32 62.3398 241.389 62.1348 241.525 61.9668C241.662 61.7988 241.865 61.6328 242.135 61.4688C241.799 61.3242 241.525 61.0898 241.314 60.7656C241.107 60.4375 241.004 60.0547 241.004 59.6172C241.004 58.9141 241.225 58.3691 241.666 57.9824C242.111 57.5957 242.744 57.4023 243.564 57.4023C243.748 57.4023 243.939 57.416 244.139 57.4434C244.342 57.4668 244.494 57.4922 244.596 57.5195H246.84ZM241.748 65.0078C241.748 65.3047 241.881 65.5332 242.146 65.6934C242.416 65.8535 242.793 65.9336 243.277 65.9336C244.027 65.9336 244.586 65.8262 244.953 65.6113C245.32 65.3965 245.504 65.1113 245.504 64.7559C245.504 64.4746 245.402 64.2734 245.199 64.1523C245 64.0352 244.627 63.9766 244.08 63.9766H243.037C242.643 63.9766 242.328 64.0684 242.094 64.252C241.863 64.4395 241.748 64.6914 241.748 65.0078ZM242.34 59.6172C242.34 60.0234 242.443 60.3359 242.65 60.5547C242.861 60.7734 243.162 60.8828 243.553 60.8828C244.35 60.8828 244.748 60.457 244.748 59.6055C244.748 59.1836 244.648 58.8594 244.449 58.6328C244.254 58.4023 243.955 58.2871 243.553 58.2871C243.154 58.2871 242.852 58.4004 242.645 58.627C242.441 58.8535 242.34 59.1836 242.34 59.6172Z" fill="#28232D"/>
<path d="M252.4 62.1543C252.4 62.7871 252.17 63.2734 251.709 63.6133C251.248 63.9492 250.588 64.1172 249.729 64.1172C248.865 64.1172 248.172 63.9863 247.648 63.7246V62.5352C248.41 62.8867 249.119 63.0625 249.775 63.0625C250.623 63.0625 251.047 62.8066 251.047 62.2949C251.047 62.1309 251 61.9941 250.906 61.8848C250.812 61.7754 250.658 61.6621 250.443 61.5449C250.229 61.4277 249.93 61.2949 249.547 61.1465C248.801 60.8574 248.295 60.5684 248.029 60.2793C247.768 59.9902 247.637 59.6152 247.637 59.1543C247.637 58.5996 247.859 58.1699 248.305 57.8652C248.754 57.5566 249.363 57.4023 250.133 57.4023C250.895 57.4023 251.615 57.5566 252.295 57.8652L251.85 58.9023C251.15 58.6133 250.562 58.4688 250.086 58.4688C249.359 58.4688 248.996 58.6758 248.996 59.0898C248.996 59.293 249.09 59.4648 249.277 59.6055C249.469 59.7461 249.883 59.9395 250.52 60.1855C251.055 60.3926 251.443 60.582 251.686 60.7539C251.928 60.9258 252.107 61.125 252.225 61.3516C252.342 61.5742 252.4 61.8418 252.4 62.1543Z" fill="#28232D"/>
<path d="M254.041 55.4336H256.584C257.764 55.4336 258.615 55.6055 259.139 55.9492C259.666 56.293 259.93 56.8359 259.93 57.5781C259.93 58.0781 259.801 58.4941 259.543 58.8262C259.285 59.1582 258.914 59.3672 258.43 59.4531V59.5117C259.031 59.625 259.473 59.8496 259.754 60.1855C260.039 60.5176 260.182 60.9688 260.182 61.5391C260.182 62.3086 259.912 62.9121 259.373 63.3496C258.838 63.7832 258.092 64 257.135 64H254.041V55.4336ZM255.441 58.9727H256.789C257.375 58.9727 257.803 58.8809 258.072 58.6973C258.342 58.5098 258.477 58.1934 258.477 57.748C258.477 57.3457 258.33 57.0547 258.037 56.875C257.748 56.6953 257.287 56.6055 256.654 56.6055H255.441V58.9727ZM255.441 60.1094V62.8223H256.93C257.516 62.8223 257.957 62.7109 258.254 62.4883C258.555 62.2617 258.705 61.9062 258.705 61.4219C258.705 60.9766 258.553 60.6465 258.248 60.4316C257.943 60.2168 257.48 60.1094 256.859 60.1094H255.441Z" fill="#28232D"/>
<path d="M267.564 60.748C267.564 61.8066 267.293 62.6328 266.75 63.2266C266.207 63.8203 265.451 64.1172 264.482 64.1172C263.877 64.1172 263.342 63.9805 262.877 63.707C262.412 63.4336 262.055 63.041 261.805 62.5293C261.555 62.0176 261.43 61.4238 261.43 60.748C261.43 59.6973 261.699 58.877 262.238 58.2871C262.777 57.6973 263.537 57.4023 264.518 57.4023C265.455 57.4023 266.197 57.7051 266.744 58.3105C267.291 58.9121 267.564 59.7246 267.564 60.748ZM262.848 60.748C262.848 62.2441 263.4 62.9922 264.506 62.9922C265.6 62.9922 266.146 62.2441 266.146 60.748C266.146 59.2676 265.596 58.5273 264.494 58.5273C263.916 58.5273 263.496 58.7188 263.234 59.1016C262.977 59.4844 262.848 60.0332 262.848 60.748Z" fill="#28232D"/>
<path d="M273.207 64L272.932 63.0977H272.885C272.572 63.4922 272.258 63.7617 271.941 63.9062C271.625 64.0469 271.219 64.1172 270.723 64.1172C270.086 64.1172 269.588 63.9453 269.229 63.6016C268.873 63.2578 268.695 62.7715 268.695 62.1426C268.695 61.4746 268.943 60.9707 269.439 60.6309C269.936 60.291 270.691 60.1055 271.707 60.0742L272.826 60.0391V59.6934C272.826 59.2793 272.729 58.9707 272.533 58.7676C272.342 58.5605 272.043 58.457 271.637 58.457C271.305 58.457 270.986 58.5059 270.682 58.6035C270.377 58.7012 270.084 58.8164 269.803 58.9492L269.357 57.9648C269.709 57.7812 270.094 57.6426 270.512 57.5488C270.93 57.4512 271.324 57.4023 271.695 57.4023C272.52 57.4023 273.141 57.582 273.559 57.9414C273.98 58.3008 274.191 58.8652 274.191 59.6348V64H273.207ZM271.156 63.0625C271.656 63.0625 272.057 62.9238 272.357 62.6465C272.662 62.3652 272.814 61.9727 272.814 61.4688V60.9062L271.982 60.9414C271.334 60.9648 270.861 61.0742 270.564 61.2695C270.271 61.4609 270.125 61.7559 270.125 62.1543C270.125 62.4434 270.211 62.668 270.383 62.8281C270.555 62.9844 270.812 63.0625 271.156 63.0625Z" fill="#28232D"/>
<path d="M279.4 57.4023C279.678 57.4023 279.906 57.4219 280.086 57.4609L279.951 58.7441C279.756 58.6973 279.553 58.6738 279.342 58.6738C278.791 58.6738 278.344 58.8535 278 59.2129C277.66 59.5723 277.49 60.0391 277.49 60.6133V64H276.113V57.5195H277.191L277.373 58.6621H277.443C277.658 58.2754 277.938 57.9688 278.281 57.7422C278.629 57.5156 279.002 57.4023 279.4 57.4023Z" fill="#28232D"/>
<path d="M283.479 64.1172C282.67 64.1172 282.039 63.8242 281.586 63.2383C281.133 62.6523 280.906 61.8301 280.906 60.7715C280.906 59.709 281.135 58.8828 281.592 58.293C282.053 57.6992 282.689 57.4023 283.502 57.4023C284.354 57.4023 285.002 57.7168 285.447 58.3457H285.518C285.451 57.8809 285.418 57.5137 285.418 57.2441V54.8828H286.801V64H285.723L285.482 63.1504H285.418C284.977 63.7949 284.33 64.1172 283.479 64.1172ZM283.848 63.0039C284.414 63.0039 284.826 62.8457 285.084 62.5293C285.342 62.209 285.475 61.6914 285.482 60.9766V60.7832C285.482 59.9668 285.35 59.3867 285.084 59.043C284.818 58.6992 284.402 58.5273 283.836 58.5273C283.352 58.5273 282.979 58.7246 282.717 59.1191C282.455 59.5098 282.324 60.0684 282.324 60.7949C282.324 61.5137 282.451 62.0625 282.705 62.4414C282.959 62.8164 283.34 63.0039 283.848 63.0039Z" fill="#28232D"/>
<path d="M132.699 102L130.277 95.6719H130.238C130.284 96.1732 130.307 96.7689 130.307 97.459V102H129.54V94.8613H130.79L133.051 100.75H133.09L135.37 94.8613H136.61V102H135.78V97.4004C135.78 96.873 135.803 96.3001 135.849 95.6816H135.81L133.368 102H132.699Z" fill="#28232D"/>
<path d="M144.77 98.4209C144.77 99.3356 144.586 100.096 144.218 100.701C143.85 101.307 143.331 101.717 142.66 101.932L144.359 103.699H143.153L141.762 102.088L141.493 102.098C140.442 102.098 139.63 101.777 139.057 101.136C138.487 100.491 138.202 99.583 138.202 98.4111C138.202 97.249 138.489 96.349 139.062 95.7109C139.634 95.0697 140.448 94.749 141.503 94.749C142.528 94.749 143.329 95.0745 143.905 95.7256C144.481 96.3766 144.77 97.2751 144.77 98.4209ZM139.081 98.4209C139.081 99.3877 139.286 100.122 139.696 100.623C140.11 101.121 140.709 101.37 141.493 101.37C142.284 101.37 142.882 101.121 143.285 100.623C143.689 100.125 143.891 99.391 143.891 98.4209C143.891 97.4606 143.689 96.7331 143.285 96.2383C142.885 95.7402 142.291 95.4912 141.503 95.4912C140.712 95.4912 140.11 95.7419 139.696 96.2432C139.286 96.7412 139.081 97.4671 139.081 98.4209Z" fill="#28232D"/>
<path d="M148.563 102H147.733V95.5986H145.473V94.8613H150.824V95.5986H148.563V102Z" fill="#28232D"/>
<path d="M154.101 102H153.271V95.5986H151.01V94.8613H156.361V95.5986H154.101V102Z" fill="#28232D"/>
<path d="M162.406 102.098C162.058 102.098 161.739 102.034 161.449 101.907C161.163 101.777 160.922 101.578 160.727 101.312H160.668C160.707 101.624 160.727 101.92 160.727 102.2V104.402H159.916V96.6484H160.575L160.688 97.3809H160.727C160.935 97.0879 161.177 96.8763 161.454 96.7461C161.731 96.6159 162.048 96.5508 162.406 96.5508C163.116 96.5508 163.663 96.7933 164.047 97.2783C164.434 97.7633 164.628 98.4437 164.628 99.3193C164.628 100.198 164.431 100.882 164.037 101.37C163.646 101.855 163.103 102.098 162.406 102.098ZM162.289 97.2393C161.742 97.2393 161.347 97.3906 161.103 97.6934C160.858 97.9961 160.733 98.4779 160.727 99.1387V99.3193C160.727 100.071 160.852 100.61 161.103 100.936C161.353 101.258 161.755 101.419 162.309 101.419C162.771 101.419 163.132 101.232 163.393 100.857C163.656 100.483 163.788 99.9671 163.788 99.3096C163.788 98.6423 163.656 98.1312 163.393 97.7764C163.132 97.4183 162.764 97.2393 162.289 97.2393Z" fill="#28232D"/>
<path d="M166.811 96.6484V100.12C166.811 100.556 166.91 100.882 167.108 101.097C167.307 101.312 167.618 101.419 168.041 101.419C168.601 101.419 169.009 101.266 169.267 100.96C169.527 100.654 169.657 100.154 169.657 99.4609V96.6484H170.468V102H169.799L169.682 101.282H169.638C169.472 101.546 169.241 101.748 168.944 101.888C168.651 102.028 168.316 102.098 167.938 102.098C167.287 102.098 166.799 101.943 166.474 101.634C166.151 101.325 165.99 100.83 165.99 100.149V96.6484H166.811Z" fill="#28232D"/>
<path d="M174.682 96.5605C175.385 96.5605 175.93 96.8014 176.317 97.2832C176.708 97.7617 176.903 98.4404 176.903 99.3193C176.903 100.198 176.706 100.882 176.312 101.37C175.922 101.855 175.378 102.098 174.682 102.098C174.333 102.098 174.014 102.034 173.725 101.907C173.438 101.777 173.197 101.578 173.002 101.312H172.943L172.772 102H172.191V94.4023H173.002V96.248C173.002 96.6615 172.989 97.0326 172.963 97.3613H173.002C173.38 96.8275 173.939 96.5605 174.682 96.5605ZM174.564 97.2393C174.011 97.2393 173.612 97.3988 173.368 97.7178C173.124 98.0335 173.002 98.5674 173.002 99.3193C173.002 100.071 173.127 100.61 173.378 100.936C173.629 101.258 174.031 101.419 174.584 101.419C175.082 101.419 175.453 101.238 175.697 100.877C175.941 100.512 176.063 99.9899 176.063 99.3096C176.063 98.613 175.941 98.0938 175.697 97.752C175.453 97.4102 175.076 97.2393 174.564 97.2393Z" fill="#28232D"/>
<path d="M179.135 102H178.324V94.4023H179.135V102Z" fill="#28232D"/>
<path d="M181.664 102H180.854V96.6484H181.664V102ZM180.785 95.1982C180.785 95.0127 180.831 94.8776 180.922 94.793C181.013 94.7051 181.127 94.6611 181.264 94.6611C181.394 94.6611 181.506 94.7051 181.601 94.793C181.695 94.8809 181.742 95.016 181.742 95.1982C181.742 95.3805 181.695 95.5173 181.601 95.6084C181.506 95.6963 181.394 95.7402 181.264 95.7402C181.127 95.7402 181.013 95.6963 180.922 95.6084C180.831 95.5173 180.785 95.3805 180.785 95.1982Z" fill="#28232D"/>
<path d="M186.835 100.54C186.835 101.038 186.649 101.422 186.278 101.692C185.907 101.963 185.386 102.098 184.716 102.098C184.006 102.098 183.453 101.985 183.056 101.761V101.009C183.313 101.139 183.588 101.242 183.881 101.316C184.177 101.391 184.462 101.429 184.735 101.429C185.159 101.429 185.484 101.362 185.712 101.229C185.94 101.092 186.054 100.885 186.054 100.608C186.054 100.4 185.963 100.223 185.78 100.076C185.601 99.9264 185.25 99.7507 184.726 99.5488C184.228 99.3633 183.873 99.2021 183.661 99.0654C183.453 98.9255 183.297 98.7676 183.192 98.5918C183.091 98.416 183.041 98.2061 183.041 97.9619C183.041 97.5257 183.218 97.1823 183.573 96.9316C183.928 96.6777 184.415 96.5508 185.033 96.5508C185.609 96.5508 186.173 96.668 186.723 96.9023L186.435 97.5615C185.897 97.3402 185.411 97.2295 184.975 97.2295C184.59 97.2295 184.301 97.2897 184.105 97.4102C183.91 97.5306 183.812 97.6966 183.812 97.9082C183.812 98.0514 183.848 98.1735 183.92 98.2744C183.995 98.3753 184.114 98.4714 184.276 98.5625C184.439 98.6536 184.752 98.7855 185.214 98.958C185.849 99.1891 186.277 99.4219 186.498 99.6562C186.723 99.8906 186.835 100.185 186.835 100.54Z" fill="#28232D"/>
<path d="M191.82 102V98.5381C191.82 98.1019 191.721 97.7764 191.522 97.5615C191.324 97.3467 191.013 97.2393 190.59 97.2393C190.027 97.2393 189.615 97.3923 189.354 97.6982C189.097 98.0042 188.969 98.5055 188.969 99.2021V102H188.158V94.4023H188.969V96.7021C188.969 96.9788 188.956 97.2083 188.93 97.3906H188.979C189.138 97.1335 189.364 96.9316 189.657 96.7852C189.953 96.6354 190.29 96.5605 190.668 96.5605C191.322 96.5605 191.812 96.7168 192.138 97.0293C192.466 97.3385 192.631 97.8317 192.631 98.5088V102H191.82Z" fill="#28232D"/>
<path d="M145.727 116V112.519C145.727 112.092 145.635 111.773 145.453 111.562C145.271 111.347 144.988 111.239 144.604 111.239C144.099 111.239 143.726 111.384 143.485 111.674C143.244 111.964 143.124 112.41 143.124 113.012V116H142.313V112.519C142.313 112.092 142.222 111.773 142.04 111.562C141.858 111.347 141.573 111.239 141.186 111.239C140.678 111.239 140.305 111.392 140.067 111.698C139.833 112.001 139.716 112.499 139.716 113.192V116H138.905V110.648H139.564L139.696 111.381H139.735C139.888 111.12 140.103 110.917 140.38 110.771C140.66 110.624 140.972 110.551 141.317 110.551C142.154 110.551 142.701 110.854 142.958 111.459H142.997C143.157 111.179 143.388 110.958 143.69 110.795C143.993 110.632 144.338 110.551 144.726 110.551C145.331 110.551 145.784 110.707 146.083 111.02C146.386 111.329 146.537 111.825 146.537 112.509V116H145.727Z" fill="#28232D"/>
<path d="M150.473 116.098C149.682 116.098 149.057 115.857 148.598 115.375C148.142 114.893 147.914 114.224 147.914 113.368C147.914 112.506 148.126 111.82 148.549 111.312C148.975 110.805 149.547 110.551 150.263 110.551C150.933 110.551 151.464 110.772 151.854 111.215C152.245 111.654 152.44 112.235 152.44 112.958V113.471H148.754C148.77 114.099 148.928 114.576 149.228 114.901C149.53 115.227 149.955 115.39 150.502 115.39C151.078 115.39 151.648 115.269 152.211 115.028V115.751C151.924 115.875 151.653 115.963 151.396 116.015C151.142 116.07 150.834 116.098 150.473 116.098ZM150.253 111.229C149.823 111.229 149.48 111.369 149.223 111.649C148.969 111.929 148.819 112.317 148.773 112.812H151.571C151.571 112.3 151.457 111.91 151.229 111.64C151.002 111.366 150.676 111.229 150.253 111.229Z" fill="#28232D"/>
<path d="M157.279 114.54C157.279 115.038 157.094 115.422 156.723 115.692C156.352 115.963 155.831 116.098 155.16 116.098C154.451 116.098 153.897 115.985 153.5 115.761V115.009C153.757 115.139 154.032 115.242 154.325 115.316C154.621 115.391 154.906 115.429 155.18 115.429C155.603 115.429 155.928 115.362 156.156 115.229C156.384 115.092 156.498 114.885 156.498 114.608C156.498 114.4 156.407 114.223 156.225 114.076C156.046 113.926 155.694 113.751 155.17 113.549C154.672 113.363 154.317 113.202 154.105 113.065C153.897 112.925 153.741 112.768 153.637 112.592C153.536 112.416 153.485 112.206 153.485 111.962C153.485 111.526 153.663 111.182 154.018 110.932C154.372 110.678 154.859 110.551 155.478 110.551C156.054 110.551 156.617 110.668 157.167 110.902L156.879 111.562C156.342 111.34 155.855 111.229 155.419 111.229C155.035 111.229 154.745 111.29 154.55 111.41C154.354 111.531 154.257 111.697 154.257 111.908C154.257 112.051 154.293 112.174 154.364 112.274C154.439 112.375 154.558 112.471 154.721 112.562C154.883 112.654 155.196 112.785 155.658 112.958C156.293 113.189 156.721 113.422 156.942 113.656C157.167 113.891 157.279 114.185 157.279 114.54Z" fill="#28232D"/>
<path d="M162.055 114.54C162.055 115.038 161.869 115.422 161.498 115.692C161.127 115.963 160.606 116.098 159.936 116.098C159.226 116.098 158.673 115.985 158.275 115.761V115.009C158.533 115.139 158.808 115.242 159.101 115.316C159.397 115.391 159.682 115.429 159.955 115.429C160.378 115.429 160.704 115.362 160.932 115.229C161.16 115.092 161.273 114.885 161.273 114.608C161.273 114.4 161.182 114.223 161 114.076C160.821 113.926 160.469 113.751 159.945 113.549C159.447 113.363 159.092 113.202 158.881 113.065C158.673 112.925 158.516 112.768 158.412 112.592C158.311 112.416 158.261 112.206 158.261 111.962C158.261 111.526 158.438 111.182 158.793 110.932C159.148 110.678 159.634 110.551 160.253 110.551C160.829 110.551 161.392 110.668 161.942 110.902L161.654 111.562C161.117 111.34 160.631 111.229 160.194 111.229C159.81 111.229 159.521 111.29 159.325 111.41C159.13 111.531 159.032 111.697 159.032 111.908C159.032 112.051 159.068 112.174 159.14 112.274C159.215 112.375 159.333 112.471 159.496 112.562C159.659 112.654 159.971 112.785 160.434 112.958C161.068 113.189 161.496 113.422 161.718 113.656C161.942 113.891 162.055 114.185 162.055 114.54Z" fill="#28232D"/>
<path d="M166.669 116L166.508 115.238H166.469C166.202 115.574 165.935 115.801 165.668 115.922C165.404 116.039 165.074 116.098 164.677 116.098C164.146 116.098 163.729 115.961 163.427 115.688C163.127 115.414 162.978 115.025 162.978 114.521C162.978 113.44 163.842 112.873 165.57 112.821L166.479 112.792V112.46C166.479 112.04 166.387 111.731 166.205 111.532C166.026 111.33 165.738 111.229 165.341 111.229C164.895 111.229 164.39 111.366 163.827 111.64L163.578 111.02C163.842 110.876 164.13 110.764 164.442 110.683C164.758 110.601 165.074 110.561 165.39 110.561C166.028 110.561 166.5 110.702 166.806 110.985C167.115 111.269 167.27 111.723 167.27 112.348V116H166.669ZM164.838 115.429C165.342 115.429 165.738 115.29 166.024 115.014C166.314 114.737 166.459 114.35 166.459 113.852V113.368L165.648 113.402C165.004 113.425 164.538 113.526 164.252 113.705C163.969 113.881 163.827 114.156 163.827 114.53C163.827 114.823 163.915 115.046 164.091 115.199C164.27 115.352 164.519 115.429 164.838 115.429Z" fill="#28232D"/>
<path d="M173.324 110.648V111.161L172.333 111.278C172.424 111.392 172.506 111.542 172.577 111.728C172.649 111.91 172.685 112.117 172.685 112.348C172.685 112.872 172.506 113.29 172.147 113.603C171.789 113.915 171.298 114.071 170.673 114.071C170.513 114.071 170.364 114.058 170.224 114.032C169.879 114.215 169.706 114.444 169.706 114.721C169.706 114.867 169.766 114.976 169.887 115.048C170.007 115.116 170.214 115.15 170.507 115.15H171.454C172.034 115.15 172.478 115.272 172.787 115.517C173.1 115.761 173.256 116.116 173.256 116.581C173.256 117.174 173.018 117.624 172.543 117.934C172.068 118.246 171.374 118.402 170.463 118.402C169.763 118.402 169.223 118.272 168.842 118.012C168.464 117.751 168.275 117.383 168.275 116.908C168.275 116.583 168.38 116.301 168.588 116.063C168.796 115.826 169.089 115.665 169.467 115.58C169.33 115.518 169.215 115.422 169.12 115.292C169.029 115.162 168.983 115.01 168.983 114.838C168.983 114.643 169.035 114.472 169.14 114.325C169.244 114.179 169.408 114.037 169.633 113.9C169.356 113.786 169.13 113.593 168.954 113.319C168.782 113.046 168.695 112.733 168.695 112.382C168.695 111.796 168.871 111.345 169.223 111.029C169.574 110.71 170.072 110.551 170.717 110.551C170.997 110.551 171.249 110.583 171.474 110.648H173.324ZM169.057 116.898C169.057 117.188 169.179 117.408 169.423 117.558C169.667 117.707 170.017 117.782 170.473 117.782C171.153 117.782 171.656 117.68 171.981 117.475C172.31 117.273 172.475 116.998 172.475 116.649C172.475 116.36 172.385 116.158 172.206 116.044C172.027 115.933 171.69 115.878 171.195 115.878H170.224C169.856 115.878 169.569 115.966 169.364 116.142C169.159 116.317 169.057 116.57 169.057 116.898ZM169.496 112.362C169.496 112.737 169.602 113.02 169.813 113.212C170.025 113.404 170.32 113.5 170.697 113.5C171.488 113.5 171.884 113.116 171.884 112.348C171.884 111.544 171.483 111.142 170.683 111.142C170.302 111.142 170.009 111.244 169.804 111.449C169.599 111.654 169.496 111.959 169.496 112.362Z" fill="#28232D"/>
<path d="M176.684 116.098C175.893 116.098 175.268 115.857 174.809 115.375C174.353 114.893 174.125 114.224 174.125 113.368C174.125 112.506 174.337 111.82 174.76 111.312C175.186 110.805 175.757 110.551 176.474 110.551C177.144 110.551 177.675 110.772 178.065 111.215C178.456 111.654 178.651 112.235 178.651 112.958V113.471H174.965C174.981 114.099 175.139 114.576 175.438 114.901C175.741 115.227 176.166 115.39 176.713 115.39C177.289 115.39 177.859 115.269 178.422 115.028V115.751C178.135 115.875 177.864 115.963 177.606 116.015C177.353 116.07 177.045 116.098 176.684 116.098ZM176.464 111.229C176.034 111.229 175.691 111.369 175.434 111.649C175.18 111.929 175.03 112.317 174.984 112.812H177.782C177.782 112.3 177.668 111.91 177.44 111.64C177.213 111.366 176.887 111.229 176.464 111.229Z" fill="#28232D"/>
<path d="M183.49 114.54C183.49 115.038 183.305 115.422 182.934 115.692C182.562 115.963 182.042 116.098 181.371 116.098C180.661 116.098 180.108 115.985 179.711 115.761V115.009C179.968 115.139 180.243 115.242 180.536 115.316C180.832 115.391 181.117 115.429 181.391 115.429C181.814 115.429 182.139 115.362 182.367 115.229C182.595 115.092 182.709 114.885 182.709 114.608C182.709 114.4 182.618 114.223 182.436 114.076C182.257 113.926 181.905 113.751 181.381 113.549C180.883 113.363 180.528 113.202 180.316 113.065C180.108 112.925 179.952 112.768 179.848 112.592C179.747 112.416 179.696 112.206 179.696 111.962C179.696 111.526 179.874 111.182 180.229 110.932C180.583 110.678 181.07 110.551 181.688 110.551C182.265 110.551 182.828 110.668 183.378 110.902L183.09 111.562C182.553 111.34 182.066 111.229 181.63 111.229C181.246 111.229 180.956 111.29 180.761 111.41C180.565 111.531 180.468 111.697 180.468 111.908C180.468 112.051 180.504 112.174 180.575 112.274C180.65 112.375 180.769 112.471 180.932 112.562C181.094 112.654 181.407 112.785 181.869 112.958C182.504 113.189 182.932 113.422 183.153 113.656C183.378 113.891 183.49 114.185 183.49 114.54Z" fill="#28232D"/>
<path fill-rule="evenodd" clip-rule="evenodd" d="M198 123L128 123L128 124L198 124L198 123Z" fill="#28232D"/>
<path d="M124.17 124.319C123.602 123.921 123.602 123.079 124.17 122.681L126.427 121.101C127.089 120.637 128 121.112 128 121.921L128 125.079C128 125.888 127.089 126.362 126.427 125.899L124.17 124.319Z" fill="#28232D"/>
<path d="M197.83 122.681C198.398 123.079 198.398 123.921 197.83 124.319L195.573 125.899C194.911 126.363 194 125.888 194 125.079L194 121.921C194 121.112 194.911 120.638 195.573 121.101L197.83 122.681Z" fill="#28232D"/>
<path d="M0 62C0 56.4772 4.47715 52 10 52H111C116.523 52 121 56.4772 121 62V142C121 147.523 116.523 152 111 152H10C4.47715 152 0 147.523 0 142V62Z" fill="#F4F4F4"/>
<path d="M0 62C0 56.4772 4.47715 52 10 52H111C116.523 52 121 56.4772 121 62V142C121 147.523 116.523 152 111 152H10C4.47715 152 0 147.523 0 142V62Z" fill="white"/>
<path fill-rule="evenodd" clip-rule="evenodd" d="M111 53H10C5.02944 53 1 57.0294 1 62V142C1 146.971 5.02944 151 10 151H111C115.971 151 120 146.971 120 142V62C120 57.0294 115.971 53 111 53ZM10 52C4.47715 52 0 56.4772 0 62V142C0 147.523 4.47715 152 10 152H111C116.523 152 121 147.523 121 142V62C121 56.4772 116.523 52 111 52H10Z" fill="#B7B7B7"/>
<path d="M15.1309 76V67.4336H16.5312V74.7988H20.1582V76H15.1309Z" fill="#28232D"/>
<path d="M27.2363 72.748C27.2363 73.8066 26.9648 74.6328 26.4219 75.2266C25.8789 75.8203 25.123 76.1172 24.1543 76.1172C23.5488 76.1172 23.0137 75.9805 22.5488 75.707C22.084 75.4336 21.7266 75.041 21.4766 74.5293C21.2266 74.0176 21.1016 73.4238 21.1016 72.748C21.1016 71.6973 21.3711 70.877 21.9102 70.2871C22.4492 69.6973 23.209 69.4023 24.1895 69.4023C25.127 69.4023 25.8691 69.7051 26.416 70.3105C26.9629 70.9121 27.2363 71.7246 27.2363 72.748ZM22.5195 72.748C22.5195 74.2441 23.0723 74.9922 24.1777 74.9922C25.2715 74.9922 25.8184 74.2441 25.8184 72.748C25.8184 71.2676 25.2676 70.5273 24.166 70.5273C23.5879 70.5273 23.168 70.7188 22.9062 71.1016C22.6484 71.4844 22.5195 72.0332 22.5195 72.748Z" fill="#28232D"/>
<path d="M32.8789 76L32.6035 75.0977H32.5566C32.2441 75.4922 31.9297 75.7617 31.6133 75.9062C31.2969 76.0469 30.8906 76.1172 30.3945 76.1172C29.7578 76.1172 29.2598 75.9453 28.9004 75.6016C28.5449 75.2578 28.3672 74.7715 28.3672 74.1426C28.3672 73.4746 28.6152 72.9707 29.1113 72.6309C29.6074 72.291 30.3633 72.1055 31.3789 72.0742L32.498 72.0391V71.6934C32.498 71.2793 32.4004 70.9707 32.2051 70.7676C32.0137 70.5605 31.7148 70.457 31.3086 70.457C30.9766 70.457 30.6582 70.5059 30.3535 70.6035C30.0488 70.7012 29.7559 70.8164 29.4746 70.9492L29.0293 69.9648C29.3809 69.7812 29.7656 69.6426 30.1836 69.5488C30.6016 69.4512 30.9961 69.4023 31.3672 69.4023C32.1914 69.4023 32.8125 69.582 33.2305 69.9414C33.6523 70.3008 33.8633 70.8652 33.8633 71.6348V76H32.8789ZM30.8281 75.0625C31.3281 75.0625 31.7285 74.9238 32.0293 74.6465C32.334 74.3652 32.4863 73.9727 32.4863 73.4688V72.9062L31.6543 72.9414C31.0059 72.9648 30.5332 73.0742 30.2363 73.2695C29.9434 73.4609 29.7969 73.7559 29.7969 74.1543C29.7969 74.4434 29.8828 74.668 30.0547 74.8281C30.2266 74.9844 30.4844 75.0625 30.8281 75.0625Z" fill="#28232D"/>
<path d="M37.9707 76.1172C37.1621 76.1172 36.5312 75.8242 36.0781 75.2383C35.625 74.6523 35.3984 73.8301 35.3984 72.7715C35.3984 71.709 35.627 70.8828 36.084 70.293C36.5449 69.6992 37.1816 69.4023 37.9941 69.4023C38.8457 69.4023 39.4941 69.7168 39.9395 70.3457H40.0098C39.9434 69.8809 39.9102 69.5137 39.9102 69.2441V66.8828H41.293V76H40.2148L39.9746 75.1504H39.9102C39.4688 75.7949 38.8223 76.1172 37.9707 76.1172ZM38.3398 75.0039C38.9062 75.0039 39.3184 74.8457 39.5762 74.5293C39.834 74.209 39.9668 73.6914 39.9746 72.9766V72.7832C39.9746 71.9668 39.8418 71.3867 39.5762 71.043C39.3105 70.6992 38.8945 70.5273 38.3281 70.5273C37.8438 70.5273 37.4707 70.7246 37.209 71.1191C36.9473 71.5098 36.8164 72.0684 36.8164 72.7949C36.8164 73.5137 36.9434 74.0625 37.1973 74.4414C37.4512 74.8164 37.832 75.0039 38.3398 75.0039Z" fill="#28232D"/>
<path d="M48.793 75.0039C49.1289 75.0039 49.4648 74.9512 49.8008 74.8457V75.8828C49.6484 75.9492 49.4512 76.0039 49.209 76.0469C48.9707 76.0938 48.7227 76.1172 48.4648 76.1172C47.1602 76.1172 46.5078 75.4297 46.5078 74.0547V70.5625H45.623V69.9531L46.5723 69.4492L47.041 68.0781H47.8906V69.5195H49.7363V70.5625H47.8906V74.0312C47.8906 74.3633 47.9727 74.6094 48.1367 74.7695C48.3047 74.9258 48.5234 75.0039 48.793 75.0039Z" fill="#28232D"/>
<path d="M53.9316 76.1172C52.9238 76.1172 52.1348 75.8242 51.5645 75.2383C50.998 74.6484 50.7148 73.8379 50.7148 72.8066C50.7148 71.748 50.9785 70.916 51.5059 70.3105C52.0332 69.7051 52.7578 69.4023 53.6797 69.4023C54.5352 69.4023 55.2109 69.6621 55.707 70.1816C56.2031 70.7012 56.4512 71.416 56.4512 72.3262V73.0703H52.1328C52.1523 73.6992 52.3223 74.1836 52.6426 74.5234C52.9629 74.8594 53.4141 75.0273 53.9961 75.0273C54.3789 75.0273 54.7344 74.9922 55.0625 74.9219C55.3945 74.8477 55.75 74.7266 56.1289 74.5586V75.6777C55.793 75.8379 55.4531 75.9512 55.1094 76.0176C54.7656 76.084 54.373 76.1172 53.9316 76.1172ZM53.6797 70.4453C53.2422 70.4453 52.8906 70.584 52.625 70.8613C52.3633 71.1387 52.207 71.543 52.1562 72.0742H55.0977C55.0898 71.5391 54.9609 71.1348 54.7109 70.8613C54.4609 70.584 54.1172 70.4453 53.6797 70.4453Z" fill="#28232D"/>
<path d="M62.3691 74.1543C62.3691 74.7871 62.1387 75.2734 61.6777 75.6133C61.2168 75.9492 60.5566 76.1172 59.6973 76.1172C58.834 76.1172 58.1406 75.9863 57.6172 75.7246V74.5352C58.3789 74.8867 59.0879 75.0625 59.7441 75.0625C60.5918 75.0625 61.0156 74.8066 61.0156 74.2949C61.0156 74.1309 60.9688 73.9941 60.875 73.8848C60.7812 73.7754 60.627 73.6621 60.4121 73.5449C60.1973 73.4277 59.8984 73.2949 59.5156 73.1465C58.7695 72.8574 58.2637 72.5684 57.998 72.2793C57.7363 71.9902 57.6055 71.6152 57.6055 71.1543C57.6055 70.5996 57.8281 70.1699 58.2734 69.8652C58.7227 69.5566 59.332 69.4023 60.1016 69.4023C60.8633 69.4023 61.584 69.5566 62.2637 69.8652L61.8184 70.9023C61.1191 70.6133 60.5312 70.4688 60.0547 70.4688C59.3281 70.4688 58.9648 70.6758 58.9648 71.0898C58.9648 71.293 59.0586 71.4648 59.2461 71.6055C59.4375 71.7461 59.8516 71.9395 60.4883 72.1855C61.0234 72.3926 61.4121 72.582 61.6543 72.7539C61.8965 72.9258 62.0762 73.125 62.1934 73.3516C62.3105 73.5742 62.3691 73.8418 62.3691 74.1543Z" fill="#28232D"/>
<path d="M66.2773 75.0039C66.6133 75.0039 66.9492 74.9512 67.2852 74.8457V75.8828C67.1328 75.9492 66.9355 76.0039 66.6934 76.0469C66.4551 76.0938 66.207 76.1172 65.9492 76.1172C64.6445 76.1172 63.9922 75.4297 63.9922 74.0547V70.5625H63.1074V69.9531L64.0566 69.4492L64.5254 68.0781H65.375V69.5195H67.2207V70.5625H65.375V74.0312C65.375 74.3633 65.457 74.6094 65.6211 74.7695C65.7891 74.9258 66.0078 75.0039 66.2773 75.0039Z" fill="#28232D"/>
<path d="M74.3164 76.1172C73.3359 76.1172 72.5898 75.832 72.0781 75.2617C71.5703 74.6875 71.3164 73.8652 71.3164 72.7949C71.3164 71.7051 71.582 70.8672 72.1133 70.2812C72.6484 69.6953 73.4199 69.4023 74.4277 69.4023C75.1113 69.4023 75.7266 69.5293 76.2734 69.7832L75.8574 70.8906C75.2754 70.6641 74.7949 70.5508 74.416 70.5508C73.2949 70.5508 72.7344 71.2949 72.7344 72.7832C72.7344 73.5098 72.873 74.0566 73.1504 74.4238C73.4316 74.7871 73.8418 74.9688 74.3809 74.9688C74.9941 74.9688 75.5742 74.8164 76.1211 74.5117V75.7129C75.875 75.8574 75.6113 75.9609 75.3301 76.0234C75.0527 76.0859 74.7148 76.1172 74.3164 76.1172Z" fill="#28232D"/>
<path d="M79.0215 76H77.6445V66.8828H79.0215V76Z" fill="#28232D"/>
<path d="M82.373 76H80.9961V69.5195H82.373V76ZM80.9141 67.8027C80.9141 67.5566 80.9805 67.3672 81.1133 67.2344C81.25 67.1016 81.4434 67.0352 81.6934 67.0352C81.9355 67.0352 82.123 67.1016 82.2559 67.2344C82.3926 67.3672 82.4609 67.5566 82.4609 67.8027C82.4609 68.0371 82.3926 68.2227 82.2559 68.3594C82.123 68.4922 81.9355 68.5586 81.6934 68.5586C81.4434 68.5586 81.25 68.4922 81.1133 68.3594C80.9805 68.2227 80.9141 68.0371 80.9141 67.8027Z" fill="#28232D"/>
<path d="M87.1777 76.1172C86.1699 76.1172 85.3809 75.8242 84.8105 75.2383C84.2441 74.6484 83.9609 73.8379 83.9609 72.8066C83.9609 71.748 84.2246 70.916 84.752 70.3105C85.2793 69.7051 86.0039 69.4023 86.9258 69.4023C87.7812 69.4023 88.457 69.6621 88.9531 70.1816C89.4492 70.7012 89.6973 71.416 89.6973 72.3262V73.0703H85.3789C85.3984 73.6992 85.5684 74.1836 85.8887 74.5234C86.209 74.8594 86.6602 75.0273 87.2422 75.0273C87.625 75.0273 87.9805 74.9922 88.3086 74.9219C88.6406 74.8477 88.9961 74.7266 89.375 74.5586V75.6777C89.0391 75.8379 88.6992 75.9512 88.3555 76.0176C88.0117 76.084 87.6191 76.1172 87.1777 76.1172ZM86.9258 70.4453C86.4883 70.4453 86.1367 70.584 85.8711 70.8613C85.6094 71.1387 85.4531 71.543 85.4023 72.0742H88.3438C88.3359 71.5391 88.207 71.1348 87.957 70.8613C87.707 70.584 87.3633 70.4453 86.9258 70.4453Z" fill="#28232D"/>
<path d="M96.9629 76H95.5801V72.0156C95.5801 71.5156 95.4785 71.1426 95.2754 70.8965C95.0762 70.6504 94.7578 70.5273 94.3203 70.5273C93.7383 70.5273 93.3125 70.6992 93.043 71.043C92.7734 71.3867 92.6387 71.9629 92.6387 72.7715V76H91.2617V69.5195H92.3398L92.5332 70.3691H92.6035C92.7988 70.0605 93.0762 69.8223 93.4355 69.6543C93.7949 69.4863 94.1934 69.4023 94.6309 69.4023C96.1855 69.4023 96.9629 70.1934 96.9629 71.7754V76Z" fill="#28232D"/>
<path d="M101.293 75.0039C101.629 75.0039 101.965 74.9512 102.301 74.8457V75.8828C102.148 75.9492 101.951 76.0039 101.709 76.0469C101.471 76.0938 101.223 76.1172 100.965 76.1172C99.6602 76.1172 99.0078 75.4297 99.0078 74.0547V70.5625H98.123V69.9531L99.0723 69.4492L99.541 68.0781H100.391V69.5195H102.236V70.5625H100.391V74.0312C100.391 74.3633 100.473 74.6094 100.637 74.7695C100.805 74.9258 101.023 75.0039 101.293 75.0039Z" fill="#28232D"/>
<path d="M20.457 85.5195V86.2754L19.3496 86.4805C19.4512 86.6172 19.5352 86.7852 19.6016 86.9844C19.668 87.1836 19.7012 87.3945 19.7012 87.6172C19.7012 88.2852 19.4707 88.8105 19.0098 89.1934C18.5488 89.5762 17.9141 89.7676 17.1055 89.7676C16.8984 89.7676 16.7109 89.752 16.543 89.7207C16.2461 89.9043 16.0977 90.1191 16.0977 90.3652C16.0977 90.5137 16.166 90.625 16.3027 90.6992C16.4434 90.7734 16.6992 90.8105 17.0703 90.8105H18.2012C18.916 90.8105 19.459 90.9629 19.8301 91.2676C20.2012 91.5723 20.3867 92.0117 20.3867 92.5859C20.3867 93.3203 20.084 93.8867 19.4785 94.2852C18.873 94.6836 17.998 94.8828 16.8535 94.8828C15.9707 94.8828 15.2969 94.7266 14.832 94.4141C14.3672 94.1016 14.1348 93.6562 14.1348 93.0781C14.1348 92.6797 14.2598 92.3438 14.5098 92.0703C14.7637 91.8008 15.1172 91.6133 15.5703 91.5078C15.3867 91.4297 15.2344 91.3047 15.1133 91.1328C14.9961 90.957 14.9375 90.7734 14.9375 90.582C14.9375 90.3398 15.0059 90.1348 15.1426 89.9668C15.2793 89.7988 15.4824 89.6328 15.752 89.4688C15.416 89.3242 15.1426 89.0898 14.9316 88.7656C14.7246 88.4375 14.6211 88.0547 14.6211 87.6172C14.6211 86.9141 14.8418 86.3691 15.2832 85.9824C15.7285 85.5957 16.3613 85.4023 17.1816 85.4023C17.3652 85.4023 17.5566 85.416 17.7559 85.4434C17.959 85.4668 18.1113 85.4922 18.2129 85.5195H20.457ZM15.3652 93.0078C15.3652 93.3047 15.498 93.5332 15.7637 93.6934C16.0332 93.8535 16.4102 93.9336 16.8945 93.9336C17.6445 93.9336 18.2031 93.8262 18.5703 93.6113C18.9375 93.3965 19.1211 93.1113 19.1211 92.7559C19.1211 92.4746 19.0195 92.2734 18.8164 92.1523C18.6172 92.0352 18.2441 91.9766 17.6973 91.9766H16.6543C16.2598 91.9766 15.9453 92.0684 15.7109 92.252C15.4805 92.4395 15.3652 92.6914 15.3652 93.0078ZM15.957 87.6172C15.957 88.0234 16.0605 88.3359 16.2676 88.5547C16.4785 88.7734 16.7793 88.8828 17.1699 88.8828C17.9668 88.8828 18.3652 88.457 18.3652 87.6055C18.3652 87.1836 18.2656 86.8594 18.0664 86.6328C17.8711 86.4023 17.5723 86.2871 17.1699 86.2871C16.7715 86.2871 16.4688 86.4004 16.2617 86.627C16.0586 86.8535 15.957 87.1836 15.957 87.6172Z" fill="#28232D"/>
<path d="M25.7188 92L25.4434 91.0977H25.3965C25.084 91.4922 24.7695 91.7617 24.4531 91.9062C24.1367 92.0469 23.7305 92.1172 23.2344 92.1172C22.5977 92.1172 22.0996 91.9453 21.7402 91.6016C21.3848 91.2578 21.207 90.7715 21.207 90.1426C21.207 89.4746 21.4551 88.9707 21.9512 88.6309C22.4473 88.291 23.2031 88.1055 24.2188 88.0742L25.3379 88.0391V87.6934C25.3379 87.2793 25.2402 86.9707 25.0449 86.7676C24.8535 86.5605 24.5547 86.457 24.1484 86.457C23.8164 86.457 23.498 86.5059 23.1934 86.6035C22.8887 86.7012 22.5957 86.8164 22.3145 86.9492L21.8691 85.9648C22.2207 85.7812 22.6055 85.6426 23.0234 85.5488C23.4414 85.4512 23.8359 85.4023 24.207 85.4023C25.0312 85.4023 25.6523 85.582 26.0703 85.9414C26.4922 86.3008 26.7031 86.8652 26.7031 87.6348V92H25.7188ZM23.668 91.0625C24.168 91.0625 24.5684 90.9238 24.8691 90.6465C25.1738 90.3652 25.3262 89.9727 25.3262 89.4688V88.9062L24.4941 88.9414C23.8457 88.9648 23.373 89.0742 23.0762 89.2695C22.7832 89.4609 22.6367 89.7559 22.6367 90.1543C22.6367 90.4434 22.7227 90.668 22.8945 90.8281C23.0664 90.9844 23.3242 91.0625 23.668 91.0625Z" fill="#28232D"/>
<path d="M31.0391 91.0039C31.375 91.0039 31.7109 90.9512 32.0469 90.8457V91.8828C31.8945 91.9492 31.6973 92.0039 31.4551 92.0469C31.2168 92.0938 30.9688 92.1172 30.7109 92.1172C29.4062 92.1172 28.7539 91.4297 28.7539 90.0547V86.5625H27.8691V85.9531L28.8184 85.4492L29.2871 84.0781H30.1367V85.5195H31.9824V86.5625H30.1367V90.0312C30.1367 90.3633 30.2188 90.6094 30.3828 90.7695C30.5508 90.9258 30.7695 91.0039 31.0391 91.0039Z" fill="#28232D"/>
<path d="M34.7246 92H33.3477V82.8828H34.7246V92Z" fill="#28232D"/>
<path d="M38.0762 92H36.6992V85.5195H38.0762V92ZM36.6172 83.8027C36.6172 83.5566 36.6836 83.3672 36.8164 83.2344C36.9531 83.1016 37.1465 83.0352 37.3965 83.0352C37.6387 83.0352 37.8262 83.1016 37.959 83.2344C38.0957 83.3672 38.1641 83.5566 38.1641 83.8027C38.1641 84.0371 38.0957 84.2227 37.959 84.3594C37.8262 84.4922 37.6387 84.5586 37.3965 84.5586C37.1465 84.5586 36.9531 84.4922 36.8164 84.3594C36.6836 84.2227 36.6172 84.0371 36.6172 83.8027Z" fill="#28232D"/>
<path d="M45.752 92H44.3691V88.0156C44.3691 87.5156 44.2676 87.1426 44.0645 86.8965C43.8652 86.6504 43.5469 86.5273 43.1094 86.5273C42.5273 86.5273 42.1016 86.6992 41.832 87.043C41.5625 87.3867 41.4277 87.9629 41.4277 88.7715V92H40.0508V85.5195H41.1289L41.3223 86.3691H41.3926C41.5879 86.0605 41.8652 85.8223 42.2246 85.6543C42.584 85.4863 42.9824 85.4023 43.4199 85.4023C44.9746 85.4023 45.752 86.1934 45.752 87.7754V92Z" fill="#28232D"/>
<path d="M53.1406 85.5195V86.2754L52.0332 86.4805C52.1348 86.6172 52.2188 86.7852 52.2852 86.9844C52.3516 87.1836 52.3848 87.3945 52.3848 87.6172C52.3848 88.2852 52.1543 88.8105 51.6934 89.1934C51.2324 89.5762 50.5977 89.7676 49.7891 89.7676C49.582 89.7676 49.3945 89.752 49.2266 89.7207C48.9297 89.9043 48.7812 90.1191 48.7812 90.3652C48.7812 90.5137 48.8496 90.625 48.9863 90.6992C49.127 90.7734 49.3828 90.8105 49.7539 90.8105H50.8848C51.5996 90.8105 52.1426 90.9629 52.5137 91.2676C52.8848 91.5723 53.0703 92.0117 53.0703 92.5859C53.0703 93.3203 52.7676 93.8867 52.1621 94.2852C51.5566 94.6836 50.6816 94.8828 49.5371 94.8828C48.6543 94.8828 47.9805 94.7266 47.5156 94.4141C47.0508 94.1016 46.8184 93.6562 46.8184 93.0781C46.8184 92.6797 46.9434 92.3438 47.1934 92.0703C47.4473 91.8008 47.8008 91.6133 48.2539 91.5078C48.0703 91.4297 47.918 91.3047 47.7969 91.1328C47.6797 90.957 47.6211 90.7734 47.6211 90.582C47.6211 90.3398 47.6895 90.1348 47.8262 89.9668C47.9629 89.7988 48.166 89.6328 48.4355 89.4688C48.0996 89.3242 47.8262 89.0898 47.6152 88.7656C47.4082 88.4375 47.3047 88.0547 47.3047 87.6172C47.3047 86.9141 47.5254 86.3691 47.9668 85.9824C48.4121 85.5957 49.0449 85.4023 49.8652 85.4023C50.0488 85.4023 50.2402 85.416 50.4395 85.4434C50.6426 85.4668 50.7949 85.4922 50.8965 85.5195H53.1406ZM48.0488 93.0078C48.0488 93.3047 48.1816 93.5332 48.4473 93.6934C48.7168 93.8535 49.0938 93.9336 49.5781 93.9336C50.3281 93.9336 50.8867 93.8262 51.2539 93.6113C51.6211 93.3965 51.8047 93.1113 51.8047 92.7559C51.8047 92.4746 51.7031 92.2734 51.5 92.1523C51.3008 92.0352 50.9277 91.9766 50.3809 91.9766H49.3379C48.9434 91.9766 48.6289 92.0684 48.3945 92.252C48.1641 92.4395 48.0488 92.6914 48.0488 93.0078ZM48.6406 87.6172C48.6406 88.0234 48.7441 88.3359 48.9512 88.5547C49.1621 88.7734 49.4629 88.8828 49.8535 88.8828C50.6504 88.8828 51.0488 88.457 51.0488 87.6055C51.0488 87.1836 50.9492 86.8594 50.75 86.6328C50.5547 86.4023 50.2559 86.2871 49.8535 86.2871C49.4551 86.2871 49.1523 86.4004 48.9453 86.627C48.7422 86.8535 48.6406 87.1836 48.6406 87.6172Z" fill="#28232D"/>
<path d="M53.7852 89.3691V88.1973H56.7969V89.3691H53.7852Z" fill="#28232D"/>
<path d="M62.0645 92L59.5801 84.8457H59.5332C59.5996 85.9082 59.6328 86.9043 59.6328 87.834V92H58.3613V83.4336H60.3359L62.7148 90.248H62.75L65.1992 83.4336H67.1797V92H65.832V87.7637C65.832 87.3379 65.8418 86.7832 65.8613 86.0996C65.8848 85.416 65.9043 85.002 65.9199 84.8574H65.873L63.3008 92H62.0645Z" fill="#28232D"/>
<path d="M77.041 87.7051C77.041 88.7441 76.8418 89.6191 76.4434 90.3301C76.0488 91.041 75.4727 91.541 74.7148 91.8301L76.7656 94.0391H74.8789L73.2617 92.1172H73.0332C71.7402 92.1172 70.7461 91.7344 70.0508 90.9688C69.3594 90.1992 69.0137 89.1074 69.0137 87.6934C69.0137 86.2793 69.3613 85.1934 70.0566 84.4355C70.7559 83.6777 71.752 83.2988 73.0449 83.2988C74.3184 83.2988 75.3027 83.6836 75.998 84.4531C76.6934 85.2227 77.041 86.3066 77.041 87.7051ZM70.502 87.7051C70.502 88.7598 70.7148 89.5605 71.1406 90.1074C71.5664 90.6504 72.1973 90.9219 73.0332 90.9219C73.8652 90.9219 74.4922 90.6523 74.9141 90.1133C75.3398 89.5742 75.5527 88.7715 75.5527 87.7051C75.5527 86.6543 75.3418 85.8574 74.9199 85.3145C74.502 84.7715 73.877 84.5 73.0449 84.5C72.2051 84.5 71.5703 84.7715 71.1406 85.3145C70.7148 85.8574 70.502 86.6543 70.502 87.7051Z" fill="#28232D"/>
<path d="M81.8398 92H80.4395V84.6348H77.9199V83.4336H84.3594V84.6348H81.8398V92Z" fill="#28232D"/>
<path d="M88.6367 92H87.2363V84.6348H84.7168V83.4336H91.1562V84.6348H88.6367V92Z" fill="#28232D"/>
<path d="M10 111C10 107.686 12.6863 105 16 105H105C108.314 105 111 107.686 111 111V136C111 139.314 108.314 142 105 142H16C12.6863 142 10 139.314 10 136V111Z" fill="#305680"/>
<path fill-rule="evenodd" clip-rule="evenodd" d="M22.6114 120.259C22.5082 120.367 22.4477 120.516 22.4552 120.679C22.4618 120.821 22.5184 120.957 22.6169 121.061C23.0878 121.535 24.0162 122.459 24.0162 122.459L24.8357 121.641C24.8357 121.641 23.9381 120.745 23.4397 120.246C23.3287 120.133 23.1802 120.086 23.0237 120.086C22.8605 120.085 22.7146 120.152 22.6114 120.259L22.6114 120.259ZM24.8357 121.641L22.3006 124.175C22.0255 124.45 22.0255 124.896 22.3006 125.171L23.5568 126.426L25.7538 128.622L27.8626 130.73C28.1377 131.005 28.5837 131.005 28.8589 130.73L30.5742 129.015L33.1976 126.393L35.7327 123.86C36.0078 123.585 36.0078 123.139 35.7327 122.864L34.4434 121.577L32.2463 119.381L30.1705 117.306C29.8953 117.032 29.4494 117.032 29.1743 117.306L27.4589 119.021L24.8356 121.643L24.8357 121.641ZM27.4591 119.019C27.4591 119.019 26.5614 118.123 26.063 117.624C25.9521 117.512 25.8036 117.464 25.6471 117.464C25.3207 117.462 25.0635 117.731 25.0785 118.057C25.0852 118.199 25.1417 118.335 25.2402 118.439C25.7111 118.913 26.6395 119.837 26.6395 119.837L27.459 119.019L27.4591 119.019ZM32.2465 119.38C32.2465 119.38 33.1433 118.483 33.6421 117.985C33.7551 117.874 33.8023 117.725 33.803 117.569C33.8045 117.243 33.5358 116.986 33.2091 117.001C33.0676 117.007 32.9309 117.064 32.8273 117.162C32.3529 117.633 31.428 118.561 31.428 118.561L32.2465 119.38L32.2465 119.38ZM34.4435 121.576C34.4435 121.576 35.3403 120.679 35.8392 120.18C35.9521 120.07 35.9993 119.921 36 119.765C36.0016 119.438 35.7328 119.181 35.4061 119.196C35.2646 119.203 35.1279 119.26 35.0243 119.358C34.55 119.829 33.6251 120.757 33.6251 120.757L34.4436 121.576L34.4435 121.576ZM33.1974 126.393C33.1974 126.393 34.0951 127.29 34.5936 127.788C34.7046 127.901 34.853 127.948 35.0096 127.949C35.3359 127.95 35.5931 127.682 35.5781 127.355L35.578 127.355C35.5714 127.214 35.5148 127.077 35.4162 126.974C34.9454 126.5 34.017 125.575 34.017 125.575L33.1975 126.393L33.1974 126.393ZM30.5741 129.015C30.5741 129.015 31.4717 129.911 31.9702 130.41C32.0812 130.523 32.2297 130.57 32.3862 130.571C32.7126 130.572 32.9698 130.304 32.9548 129.977H32.9546C32.948 129.836 32.8915 129.699 32.7929 129.595C32.3221 129.121 31.3937 128.197 31.3937 128.197L30.5741 129.015L30.5741 129.015ZM25.7534 128.62C25.7534 128.62 24.8566 129.517 24.3579 130.015C24.2449 130.126 24.1978 130.275 24.1971 130.431C24.1955 130.757 24.4643 131.014 24.791 130.999H24.7908C24.9323 130.993 25.069 130.936 25.1726 130.838C25.647 130.367 26.5719 129.439 26.5719 129.439L25.7535 128.624L25.7534 128.62ZM23.5564 126.424C23.5564 126.424 22.6596 127.321 22.1609 127.82C22.0479 127.93 22.0007 128.079 22 128.235C21.9984 128.561 22.2672 128.818 22.5939 128.805H22.5938C22.7352 128.798 22.8719 128.742 22.9755 128.643C23.4499 128.173 24.3748 127.245 24.3748 127.245L23.5563 126.424L23.5564 126.424ZM29.592 120.162C29.7082 120.044 29.8664 119.978 30.0277 119.98C30.1427 119.982 30.2527 120.018 30.3434 120.085L31.4849 120.921C31.7064 121.08 31.7717 121.382 31.6393 121.634C31.5069 121.887 31.2156 122.016 30.9508 121.94L31.3745 123.596C31.4515 123.897 31.2663 124.217 30.9605 124.31L27.8717 125.252L28.4422 127.457C28.5233 127.759 28.3383 128.083 28.0302 128.177C27.7221 128.271 27.4092 128.1 27.3336 127.796L26.6221 125.046C26.5442 124.745 26.7293 124.425 27.0356 124.331L30.1258 123.388L29.8406 122.273C29.6494 122.485 29.3401 122.537 29.1081 122.395C28.8761 122.254 28.7888 121.96 28.9015 121.701L29.4631 120.355C29.493 120.283 29.5369 120.218 29.5919 120.162L29.592 120.162Z" fill="white"/>
<path d="M48.5977 128.117C47.6172 128.117 46.8711 127.832 46.3594 127.262C45.8516 126.688 45.5977 125.865 45.5977 124.795C45.5977 123.705 45.8633 122.867 46.3945 122.281C46.9297 121.695 47.7012 121.402 48.709 121.402C49.3926 121.402 50.0078 121.529 50.5547 121.783L50.1387 122.891C49.5566 122.664 49.0762 122.551 48.6973 122.551C47.5762 122.551 47.0156 123.295 47.0156 124.783C47.0156 125.51 47.1543 126.057 47.4316 126.424C47.7129 126.787 48.123 126.969 48.6621 126.969C49.2754 126.969 49.8555 126.816 50.4023 126.512V127.713C50.1562 127.857 49.8926 127.961 49.6113 128.023C49.334 128.086 48.9961 128.117 48.5977 128.117Z" fill="white"/>
<path d="M57.5801 126.131H56.4258V128H55.084V126.131H51.1699V125.07L55.084 119.41H56.4258V124.988H57.5801V126.131ZM55.084 124.988V122.838C55.084 122.072 55.1035 121.445 55.1426 120.957H55.0957C54.9863 121.215 54.8145 121.527 54.5801 121.895L52.4531 124.988H55.084Z" fill="white"/>
<path d="M58.5762 127.268C58.5762 126.982 58.6504 126.764 58.7988 126.611C58.9473 126.459 59.1621 126.383 59.4434 126.383C59.7285 126.383 59.9453 126.463 60.0938 126.623C60.2422 126.779 60.3164 126.994 60.3164 127.268C60.3164 127.545 60.2402 127.766 60.0879 127.93C59.9395 128.09 59.7246 128.17 59.4434 128.17C59.1621 128.17 58.9473 128.09 58.7988 127.93C58.6504 127.77 58.5762 127.549 58.5762 127.268Z" fill="white"/>
<path d="M63.5273 124.689L61.3535 121.52H62.9238L64.4004 123.787L65.8887 121.52H67.4473L65.2676 124.689L67.5586 128H66L64.4004 125.574L62.8066 128H61.248L63.5273 124.689Z" fill="white"/>
<path d="M70.0723 128H68.6953V118.883H70.0723V128Z" fill="white"/>
<path d="M76.1016 128L75.8262 127.098H75.7793C75.4668 127.492 75.1523 127.762 74.8359 127.906C74.5195 128.047 74.1133 128.117 73.6172 128.117C72.9805 128.117 72.4824 127.945 72.123 127.602C71.7676 127.258 71.5898 126.771 71.5898 126.143C71.5898 125.475 71.8379 124.971 72.334 124.631C72.8301 124.291 73.5859 124.105 74.6016 124.074L75.7207 124.039V123.693C75.7207 123.279 75.623 122.971 75.4277 122.768C75.2363 122.561 74.9375 122.457 74.5312 122.457C74.1992 122.457 73.8809 122.506 73.5762 122.604C73.2715 122.701 72.9785 122.816 72.6973 122.949L72.252 121.965C72.6035 121.781 72.9883 121.643 73.4062 121.549C73.8242 121.451 74.2188 121.402 74.5898 121.402C75.4141 121.402 76.0352 121.582 76.4531 121.941C76.875 122.301 77.0859 122.865 77.0859 123.635V128H76.1016ZM74.0508 127.062C74.5508 127.062 74.9512 126.924 75.252 126.646C75.5566 126.365 75.709 125.973 75.709 125.469V124.906L74.877 124.941C74.2285 124.965 73.7559 125.074 73.459 125.27C73.166 125.461 73.0195 125.756 73.0195 126.154C73.0195 126.443 73.1055 126.668 73.2773 126.828C73.4492 126.984 73.707 127.062 74.0508 127.062Z" fill="white"/>
<path d="M82.2949 121.402C82.5723 121.402 82.8008 121.422 82.9805 121.461L82.8457 122.744C82.6504 122.697 82.4473 122.674 82.2363 122.674C81.6855 122.674 81.2383 122.854 80.8945 123.213C80.5547 123.572 80.3848 124.039 80.3848 124.613V128H79.0078V121.52H80.0859L80.2676 122.662H80.3379C80.5527 122.275 80.832 121.969 81.1758 121.742C81.5234 121.516 81.8965 121.402 82.2949 121.402Z" fill="white"/>
<path d="M89.6602 121.52V122.275L88.5527 122.48C88.6543 122.617 88.7383 122.785 88.8047 122.984C88.8711 123.184 88.9043 123.395 88.9043 123.617C88.9043 124.285 88.6738 124.811 88.2129 125.193C87.752 125.576 87.1172 125.768 86.3086 125.768C86.1016 125.768 85.9141 125.752 85.7461 125.721C85.4492 125.904 85.3008 126.119 85.3008 126.365C85.3008 126.514 85.3691 126.625 85.5059 126.699C85.6465 126.773 85.9023 126.811 86.2734 126.811H87.4043C88.1191 126.811 88.6621 126.963 89.0332 127.268C89.4043 127.572 89.5898 128.012 89.5898 128.586C89.5898 129.32 89.2871 129.887 88.6816 130.285C88.0762 130.684 87.2012 130.883 86.0566 130.883C85.1738 130.883 84.5 130.727 84.0352 130.414C83.5703 130.102 83.3379 129.656 83.3379 129.078C83.3379 128.68 83.4629 128.344 83.7129 128.07C83.9668 127.801 84.3203 127.613 84.7734 127.508C84.5898 127.43 84.4375 127.305 84.3164 127.133C84.1992 126.957 84.1406 126.773 84.1406 126.582C84.1406 126.34 84.209 126.135 84.3457 125.967C84.4824 125.799 84.6855 125.633 84.9551 125.469C84.6191 125.324 84.3457 125.09 84.1348 124.766C83.9277 124.438 83.8242 124.055 83.8242 123.617C83.8242 122.914 84.0449 122.369 84.4863 121.982C84.9316 121.596 85.5645 121.402 86.3848 121.402C86.5684 121.402 86.7598 121.416 86.959 121.443C87.1621 121.467 87.3145 121.492 87.416 121.52H89.6602ZM84.5684 129.008C84.5684 129.305 84.7012 129.533 84.9668 129.693C85.2363 129.854 85.6133 129.934 86.0977 129.934C86.8477 129.934 87.4062 129.826 87.7734 129.611C88.1406 129.396 88.3242 129.111 88.3242 128.756C88.3242 128.475 88.2227 128.273 88.0195 128.152C87.8203 128.035 87.4473 127.977 86.9004 127.977H85.8574C85.4629 127.977 85.1484 128.068 84.9141 128.252C84.6836 128.439 84.5684 128.691 84.5684 129.008ZM85.1602 123.617C85.1602 124.023 85.2637 124.336 85.4707 124.555C85.6816 124.773 85.9824 124.883 86.373 124.883C87.1699 124.883 87.5684 124.457 87.5684 123.605C87.5684 123.184 87.4688 122.859 87.2695 122.633C87.0742 122.402 86.7754 122.287 86.373 122.287C85.9746 122.287 85.6719 122.4 85.4648 122.627C85.2617 122.854 85.1602 123.184 85.1602 123.617Z" fill="white"/>
<path d="M93.6973 128.117C92.6895 128.117 91.9004 127.824 91.3301 127.238C90.7637 126.648 90.4805 125.838 90.4805 124.807C90.4805 123.748 90.7441 122.916 91.2715 122.311C91.7988 121.705 92.5234 121.402 93.4453 121.402C94.3008 121.402 94.9766 121.662 95.4727 122.182C95.9688 122.701 96.2168 123.416 96.2168 124.326V125.07H91.8984C91.918 125.699 92.0879 126.184 92.4082 126.523C92.7285 126.859 93.1797 127.027 93.7617 127.027C94.1445 127.027 94.5 126.992 94.8281 126.922C95.1602 126.848 95.5156 126.727 95.8945 126.559V127.678C95.5586 127.838 95.2188 127.951 94.875 128.018C94.5312 128.084 94.1387 128.117 93.6973 128.117ZM93.4453 122.445C93.0078 122.445 92.6562 122.584 92.3906 122.861C92.1289 123.139 91.9727 123.543 91.9219 124.074H94.8633C94.8555 123.539 94.7266 123.135 94.4766 122.861C94.2266 122.584 93.8828 122.445 93.4453 122.445Z" fill="white"/>
</svg>
