<svg width="40" height="40" viewBox="0 0 40 40" fill="none" xmlns="http://www.w3.org/2000/svg">
    <g clip-path="url(#clip0_3949_11976)">
        <path d="M26.6667 15.2333C26.5667 13.25 24.9167 11.6667 22.9167 11.6667H21.6667V8.33333C21.6667 3.73833 17.9283 0 13.3333 0C8.73833 0 5 3.73833 5 8.33333V11.6667H3.75C1.68333 11.6667 0 13.35 0 15.4167V29.5833C0 31.65 1.68333 33.3333 3.75 33.3333H15.6167C15.2167 32.0167 15 30.6167 15 29.1667C15 22.2 20.0333 16.4 26.6667 15.2333ZM8.33333 11.6667V8.33333C8.33333 5.57667 10.5767 3.33333 13.3333 3.33333C16.09 3.33333 18.3333 5.57667 18.3333 8.33333V11.6667H8.33333Z" fill="#1F8B4D"/>
        <path d="M29.1663 18.334C23.193 18.334 18.333 23.194 18.333 29.1673C18.333 35.1407 23.193 40.0007 29.1663 40.0007C35.1397 40.0007 39.9997 35.1407 39.9997 29.1673C39.9997 23.194 35.1397 18.334 29.1663 18.334ZM29.1663 21.6673C30.6313 21.6673 31.988 22.1057 33.143 22.834L22.833 33.144C22.1047 31.9873 21.6663 30.6307 21.6663 29.1673C21.6663 25.0323 25.0313 21.6673 29.1663 21.6673ZM29.1663 36.6673C27.7013 36.6673 26.3447 36.229 25.1897 35.5006L35.5013 25.1907C36.2297 26.3457 36.668 27.7023 36.668 29.1673C36.6663 33.3023 33.3013 36.6673 29.1663 36.6673Z" fill="#1F8B4D"/>
    </g>
    <defs>
        <clipPath id="clip0_3949_11976">
            <rect width="40" height="40" fill="white"/>
        </clipPath>
    </defs>
</svg>
