<svg width="40" height="41" viewBox="0 0 40 41" fill="none" xmlns="http://www.w3.org/2000/svg">
    <path d="M8.88889 31.6111H13.3333V20.5H8.88889V31.6111ZM26.6667 31.6111H31.1111V9.38889H26.6667V31.6111ZM17.7778 31.6111H22.2222V24.9444H17.7778V31.6111ZM17.7778 20.5H22.2222V16.0556H17.7778V20.5ZM4.44444 40.5C3.22222 40.5 2.17593 40.0648 1.30556 39.1944C0.435185 38.3241 0 37.2778 0 36.0556V4.94444C0 3.72222 0.435185 2.67593 1.30556 1.80556C2.17593 0.935185 3.22222 0.5 4.44444 0.5H35.5556C36.7778 0.5 37.8241 0.935185 38.6944 1.80556C39.5648 2.67593 40 3.72222 40 4.94444V36.0556C40 37.2778 39.5648 38.3241 38.6944 39.1944C37.8241 40.0648 36.7778 40.5 35.5556 40.5H4.44444ZM4.44444 36.0556H35.5556V4.94444H4.44444V36.0556Z" fill="#1F8B4D"/>
</svg>
