<svg width="49" height="48" viewBox="0 0 49 48" fill="none" xmlns="http://www.w3.org/2000/svg">
<mask id="mask0_1907_2959" style="mask-type:alpha" maskUnits="userSpaceOnUse" x="0" y="0" width="49" height="48">
<rect x="0.5" width="48" height="48" fill="#D9D9D9"/>
</mask>
<g mask="url(#mask0_1907_2959)">
<path d="M21.2 34L32.5 22.7L29.6 19.8L21.15 28.25L16.95 24.05L14.1 26.9L21.2 34ZM13.5 40C10.4667 40 7.875 38.95 5.725 36.85C3.575 34.75 2.5 32.1833 2.5 29.15C2.5 26.55 3.28333 24.2333 4.85 22.2C6.41667 20.1667 8.46667 18.8667 11 18.3C11.8333 15.2333 13.5 12.75 16 10.85C18.5 8.95 21.3333 8 24.5 8C28.4 8 31.7083 9.35833 34.425 12.075C37.1417 14.7917 38.5 18.1 38.5 22C40.8 22.2667 42.7083 23.2583 44.225 24.975C45.7417 26.6917 46.5 28.7 46.5 31C46.5 33.5 45.625 35.625 43.875 37.375C42.125 39.125 40 40 37.5 40H13.5ZM13.5 36H37.5C38.9 36 40.0833 35.5167 41.05 34.55C42.0167 33.5833 42.5 32.4 42.5 31C42.5 29.6 42.0167 28.4167 41.05 27.45C40.0833 26.4833 38.9 26 37.5 26H34.5V22C34.5 19.2333 33.525 16.875 31.575 14.925C29.625 12.975 27.2667 12 24.5 12C21.7333 12 19.375 12.975 17.425 14.925C15.475 16.875 14.5 19.2333 14.5 22H13.5C11.5667 22 9.91667 22.6833 8.55 24.05C7.18333 25.4167 6.5 27.0667 6.5 29C6.5 30.9333 7.18333 32.5833 8.55 33.95C9.91667 35.3167 11.5667 36 13.5 36Z" fill="#1F8B4D"/>
</g>
</svg>
