<svg width="49" height="48" viewBox="0 0 49 48" fill="none" xmlns="http://www.w3.org/2000/svg">
<path d="M16.3652 4.876C16.4591 4.68829 16.725 4.40671 16.9597 4.25029C17.2569 4.06257 17.5698 4 18.0078 4.04693C18.3989 4.09386 18.7743 4.28157 19.0246 4.53186C19.4149 4.92218 19.4157 4.96968 19.4623 7.9249L19.4626 7.942C19.5095 10.4292 19.4782 11.0236 19.2749 11.4147C19.1341 11.6806 18.8525 11.9779 18.6335 12.0717C18.4145 12.1812 17.9921 12.2751 17.6949 12.2751C17.2882 12.2751 17.0222 12.1499 16.2088 11.3365V8.28614C16.2088 6.53414 16.2714 5.07936 16.3652 4.876Z" fill="#1F8B4D"/>
<path d="M33.1818 4.56314C33.6042 4.40671 34.2455 4.219 34.5897 4.14079C34.9339 4.07821 35.6378 4.01564 36.154 4C36.6703 4 37.5306 4.09386 38.0625 4.219C38.61 4.34414 39.4861 4.67264 40.0179 4.93857C40.6124 5.23579 41.4102 5.84586 42.0359 6.47157C42.6617 7.09729 43.2717 7.89507 43.569 8.47386C43.8349 9.02136 44.1634 9.92864 44.3042 10.5074C44.4763 11.2583 44.5232 11.9466 44.4763 12.8226C44.4294 13.5109 44.2573 14.4651 44.0852 14.9344C43.9288 15.4036 43.6003 16.1389 43.35 16.5769C43.0684 17.0774 40.8627 19.4239 37.1083 23.1938C33.917 26.4006 30.9135 29.2945 30.4442 29.6074C29.9749 29.9202 29.1302 30.3426 28.567 30.5459C27.9726 30.7493 27.0183 30.9526 26.2987 30.9996C25.4384 31.0465 24.7188 30.9996 23.9835 30.8275C23.4047 30.6867 22.5131 30.3582 21.9968 30.1079C21.4806 29.842 20.7141 29.3101 20.2761 28.8878C19.5721 28.2308 19.4939 28.09 19.4939 27.4486C19.4782 26.8855 19.5721 26.6665 19.9163 26.3067C20.1509 26.0721 20.5576 25.8374 20.8236 25.7905C21.1052 25.7279 21.4962 25.7905 21.7935 25.9469C22.075 26.0877 22.341 26.2598 22.3879 26.3536C22.4348 26.4475 22.7477 26.6821 23.0919 26.9011C23.436 27.1201 24.1556 27.4017 24.6875 27.5425C25.3289 27.6989 25.9233 27.7615 26.377 27.6833C26.768 27.6364 27.472 27.4017 27.9413 27.1984C28.6609 26.8699 29.6933 25.9156 34.5428 21.0664C39.5799 16.0294 40.3308 15.2159 40.7062 14.3869C41.0348 13.6673 41.1443 13.198 41.1443 12.3533C41.1599 11.4304 41.0817 11.1019 40.6593 10.2415C40.3934 9.67836 39.9084 8.99007 39.5643 8.69286C39.2358 8.39564 38.5788 7.97328 38.1095 7.75429C37.4368 7.45707 36.9988 7.36321 36.154 7.36321C35.2937 7.36321 34.8556 7.47271 34.1204 7.80121C33.3382 8.161 32.6343 8.77107 29.8967 11.4929C27.5815 13.8081 26.4708 14.7936 26.1423 14.8718C25.8607 14.9344 25.4696 14.8874 25.1411 14.7623C24.8596 14.6371 24.5154 14.3556 24.4059 14.1053C24.2807 13.8706 24.1869 13.417 24.1869 13.0885C24.1869 12.541 24.3746 12.322 27.4407 9.256C29.224 7.47271 31.07 5.752 31.5393 5.4235C32.0086 5.11064 32.7438 4.71957 33.1818 4.56314Z" fill="#1F8B4D"/>
<path d="M7.9804 8.31743C8.10555 8.0515 8.4497 7.69171 8.73128 7.55093C9.01286 7.3945 9.34137 7.26936 9.43523 7.26936C9.54473 7.26936 9.87324 7.37886 10.1392 7.504C10.4208 7.62914 11.8599 8.94314 13.3304 10.4292C15.3797 12.4941 16.0367 13.2606 16.1149 13.636C16.1775 13.9801 16.1149 14.3399 15.9272 14.7154C15.7708 15.0439 15.4579 15.3567 15.145 15.4975C14.8478 15.6226 14.4411 15.6852 14.1282 15.6226C13.7371 15.5444 12.9863 14.8874 10.7962 12.6818C8.59049 10.4918 7.93347 9.74093 7.85525 9.33421C7.79268 9.037 7.85525 8.63029 7.9804 8.31743Z" fill="#1F8B4D"/>
<path d="M4.72659 16.5612C4.88302 16.2796 5.1646 15.9824 5.33668 15.9042C5.5244 15.8104 6.9323 15.7321 11.8287 15.7165L12.298 16.1858C12.6421 16.5299 12.7673 16.7959 12.7673 17.2026C12.7673 17.4998 12.6734 17.9221 12.5639 18.1411C12.47 18.3601 12.1728 18.6417 11.9069 18.7825C11.5158 18.9859 10.9213 19.0171 8.43406 18.9702L8.41693 18.9699C5.47729 18.9233 5.42978 18.9225 5.03946 18.5322C4.80481 18.3132 4.5858 17.8909 4.52323 17.5936C4.46065 17.2026 4.52323 16.9054 4.72659 16.5612Z" fill="#1F8B4D"/>
<path d="M19.181 18.5166C19.6503 18.3289 20.323 18.1411 20.6671 18.0629C21.0113 18.0004 21.7152 17.9378 22.2315 17.9221C22.7477 17.9221 23.6081 18.016 24.14 18.1411C24.6875 18.2663 25.5479 18.5791 26.0641 18.8451C26.5803 19.111 27.3468 19.6429 27.7849 20.0652C28.4888 20.7222 28.567 20.863 28.567 21.5044C28.5827 22.0675 28.4888 22.2865 28.1446 22.6463C27.91 22.8809 27.4876 23.1156 27.2373 23.1625C26.9558 23.2251 26.5647 23.1625 26.2518 23.0061C25.9859 22.8653 25.7199 22.6932 25.673 22.5994C25.6261 22.5055 25.3132 22.2709 24.9691 22.0519C24.6249 21.8329 23.9053 21.5513 23.3578 21.4105C22.7321 21.2541 22.1376 21.1915 21.684 21.2697C21.2929 21.3166 20.5889 21.5513 20.1196 21.7546C19.4 22.0831 18.4145 22.9904 13.9874 27.4174C9.3883 32.0164 8.66871 32.8141 8.29327 33.6276C7.96476 34.3628 7.85525 34.8164 7.85525 35.6611C7.85525 36.5059 7.94911 36.9439 8.24634 37.6165C8.46534 38.0858 8.88771 38.7428 9.18494 39.0713C9.48216 39.4154 10.1705 39.9003 10.7336 40.1663C11.594 40.5886 11.9225 40.6669 12.8455 40.6512C13.6902 40.6512 14.1595 40.5417 14.8791 40.2132C15.6456 39.8534 16.3183 39.2746 18.6335 36.9751C20.9174 34.7069 21.5588 34.1594 21.9968 34.0812C22.3879 34.003 22.6851 34.0499 23.0449 34.2689C23.3265 34.4254 23.6237 34.7226 23.7176 34.9103C23.7958 35.1136 23.874 35.536 23.874 35.8489C23.874 36.412 23.6863 36.6153 21.0895 39.2277C19.5721 40.7607 17.9296 42.2781 17.4603 42.5909C16.991 42.9038 16.1462 43.3261 15.5831 43.5295C14.9886 43.7328 14.0344 43.9362 13.3148 43.9831C12.4544 44.0301 11.7348 43.9831 10.9996 43.8111C10.4208 43.6703 9.51345 43.3418 8.96593 43.0759C8.38713 42.7786 7.58932 42.1686 6.96359 41.5429C6.30657 40.8858 5.74341 40.1194 5.38361 39.4154C5.07074 38.7741 4.75788 37.8355 4.63273 37.1472C4.52323 36.4746 4.4763 35.536 4.52323 34.9572C4.5858 34.3941 4.75788 33.5494 4.91431 33.0801C5.07074 32.6108 5.4149 31.8599 5.64955 31.4376C5.93113 30.937 7.9804 28.747 11.2655 25.4307C14.1126 22.5681 16.8658 19.9088 17.382 19.5177C17.8983 19.1423 18.7117 18.6886 19.181 18.5166Z" fill="#1F8B4D"/>
<path d="M36.3887 29.9202C36.4825 29.7169 36.7485 29.4353 36.9831 29.2789C37.3586 29.0442 37.7653 29.0129 40.4872 29.0442L40.5044 29.0445C43.5222 29.0911 43.5697 29.0919 43.9601 29.4822C44.1947 29.7012 44.4137 30.1236 44.4763 30.4208C44.5389 30.7806 44.4763 31.1247 44.3042 31.4376C44.1791 31.7035 43.8818 32.0007 43.6628 32.1102C43.3969 32.2354 42.3488 32.2979 37.1708 32.2979L36.7015 31.8286C36.3574 31.4845 36.2323 31.2186 36.2323 30.8119C36.2323 30.5146 36.3105 30.1079 36.3887 29.9202Z" fill="#1F8B4D"/>
<path d="M33.0097 33.346C33.1349 33.0801 33.479 32.7203 33.7606 32.5795C34.0422 32.4231 34.3707 32.2979 34.4646 32.2979C34.5741 32.2979 34.9026 32.4074 35.1685 32.5326C35.4501 32.6577 36.8893 33.9717 38.3597 35.4578C40.409 37.5226 41.066 38.2891 41.1443 38.6646C41.2068 39.0087 41.1443 39.3685 40.9565 39.7439C40.8001 40.0724 40.4872 40.3853 40.1744 40.5261C39.8771 40.6512 39.4704 40.7138 39.1576 40.6512C38.7665 40.573 38.0156 39.916 35.8255 37.7104C33.6198 35.5204 32.9628 34.7695 32.8846 34.3628C32.822 34.0656 32.8846 33.6589 33.0097 33.346Z" fill="#1F8B4D"/>
<path d="M29.7716 36.5841C29.928 36.3025 30.1939 36.0053 30.366 35.9271C30.5381 35.8332 30.9448 35.755 31.2577 35.755C31.7113 35.7394 31.9616 35.8489 32.7907 36.6779V39.7283C32.7907 41.8557 32.7281 42.9038 32.5874 43.1697C32.4935 43.3887 32.1806 43.6859 31.9303 43.8111C31.6175 43.9831 31.2733 44.0457 30.9135 43.9831C30.6163 43.9206 30.1939 43.7016 29.9749 43.4669C29.5846 43.0766 29.5838 43.0291 29.5372 40.0895L29.5369 40.0724C29.49 37.3975 29.5056 37.0221 29.7716 36.5841Z" fill="#1F8B4D"/>
<path d="M16.3652 4.876C16.4591 4.68829 16.725 4.40671 16.9597 4.25029C17.2569 4.06257 17.5698 4 18.0078 4.04693C18.3989 4.09386 18.7743 4.28157 19.0246 4.53186C19.4149 4.92218 19.4157 4.96968 19.4623 7.9249L19.4626 7.942C19.5095 10.4292 19.4782 11.0236 19.2749 11.4147C19.1341 11.6806 18.8525 11.9779 18.6335 12.0717C18.4145 12.1812 17.9921 12.2751 17.6949 12.2751C17.2882 12.2751 17.0222 12.1499 16.2088 11.3365V8.28614C16.2088 6.53414 16.2714 5.07936 16.3652 4.876Z" stroke="#1F8B4D"/>
<path d="M33.1818 4.56314C33.6042 4.40671 34.2455 4.219 34.5897 4.14079C34.9339 4.07821 35.6378 4.01564 36.154 4C36.6703 4 37.5306 4.09386 38.0625 4.219C38.61 4.34414 39.4861 4.67264 40.0179 4.93857C40.6124 5.23579 41.4102 5.84586 42.0359 6.47157C42.6617 7.09729 43.2717 7.89507 43.569 8.47386C43.8349 9.02136 44.1634 9.92864 44.3042 10.5074C44.4763 11.2583 44.5232 11.9466 44.4763 12.8226C44.4294 13.5109 44.2573 14.4651 44.0852 14.9344C43.9288 15.4036 43.6003 16.1389 43.35 16.5769C43.0684 17.0774 40.8627 19.4239 37.1083 23.1938C33.917 26.4006 30.9135 29.2945 30.4442 29.6074C29.9749 29.9202 29.1302 30.3426 28.567 30.5459C27.9726 30.7493 27.0183 30.9526 26.2987 30.9996C25.4384 31.0465 24.7188 30.9996 23.9835 30.8275C23.4047 30.6867 22.5131 30.3582 21.9968 30.1079C21.4806 29.842 20.7141 29.3101 20.2761 28.8878C19.5721 28.2308 19.4939 28.09 19.4939 27.4486C19.4782 26.8855 19.5721 26.6665 19.9163 26.3067C20.1509 26.0721 20.5576 25.8374 20.8236 25.7905C21.1052 25.7279 21.4962 25.7905 21.7935 25.9469C22.075 26.0877 22.341 26.2598 22.3879 26.3536C22.4348 26.4475 22.7477 26.6821 23.0919 26.9011C23.436 27.1201 24.1556 27.4017 24.6875 27.5425C25.3289 27.6989 25.9233 27.7615 26.377 27.6833C26.768 27.6364 27.472 27.4017 27.9413 27.1984C28.6609 26.8699 29.6933 25.9156 34.5428 21.0664C39.5799 16.0294 40.3308 15.2159 40.7062 14.3869C41.0348 13.6673 41.1443 13.198 41.1443 12.3533C41.1599 11.4304 41.0817 11.1019 40.6593 10.2415C40.3934 9.67836 39.9084 8.99007 39.5643 8.69286C39.2358 8.39564 38.5788 7.97328 38.1095 7.75429C37.4368 7.45707 36.9988 7.36321 36.154 7.36321C35.2937 7.36321 34.8556 7.47271 34.1204 7.80121C33.3382 8.161 32.6343 8.77107 29.8967 11.4929C27.5815 13.8081 26.4708 14.7936 26.1423 14.8718C25.8607 14.9344 25.4696 14.8874 25.1411 14.7623C24.8596 14.6371 24.5154 14.3556 24.4059 14.1053C24.2807 13.8706 24.1869 13.417 24.1869 13.0885C24.1869 12.541 24.3746 12.322 27.4407 9.256C29.224 7.47271 31.07 5.752 31.5393 5.4235C32.0086 5.11064 32.7438 4.71957 33.1818 4.56314Z" stroke="#1F8B4D"/>
<path d="M7.9804 8.31743C8.10555 8.0515 8.4497 7.69171 8.73128 7.55093C9.01286 7.3945 9.34137 7.26936 9.43523 7.26936C9.54473 7.26936 9.87324 7.37886 10.1392 7.504C10.4208 7.62914 11.8599 8.94314 13.3304 10.4292C15.3797 12.4941 16.0367 13.2606 16.1149 13.636C16.1775 13.9801 16.1149 14.3399 15.9272 14.7154C15.7708 15.0439 15.4579 15.3567 15.145 15.4975C14.8478 15.6226 14.4411 15.6852 14.1282 15.6226C13.7371 15.5444 12.9863 14.8874 10.7962 12.6818C8.59049 10.4918 7.93347 9.74093 7.85525 9.33421C7.79268 9.037 7.85525 8.63029 7.9804 8.31743Z" stroke="#1F8B4D"/>
<path d="M4.72659 16.5612C4.88302 16.2796 5.1646 15.9824 5.33668 15.9042C5.5244 15.8104 6.9323 15.7321 11.8287 15.7165L12.298 16.1858C12.6421 16.5299 12.7673 16.7959 12.7673 17.2026C12.7673 17.4998 12.6734 17.9221 12.5639 18.1411C12.47 18.3601 12.1728 18.6417 11.9069 18.7825C11.5158 18.9859 10.9213 19.0171 8.43406 18.9702L8.41693 18.9699C5.47729 18.9233 5.42978 18.9225 5.03946 18.5322C4.80481 18.3132 4.5858 17.8909 4.52323 17.5936C4.46065 17.2026 4.52323 16.9054 4.72659 16.5612Z" stroke="#1F8B4D"/>
<path d="M19.181 18.5166C19.6503 18.3289 20.323 18.1411 20.6671 18.0629C21.0113 18.0004 21.7152 17.9378 22.2315 17.9221C22.7477 17.9221 23.6081 18.016 24.14 18.1411C24.6875 18.2663 25.5479 18.5791 26.0641 18.8451C26.5803 19.111 27.3468 19.6429 27.7849 20.0652C28.4888 20.7222 28.567 20.863 28.567 21.5044C28.5827 22.0675 28.4888 22.2865 28.1446 22.6463C27.91 22.8809 27.4876 23.1156 27.2373 23.1625C26.9558 23.2251 26.5647 23.1625 26.2518 23.0061C25.9859 22.8653 25.7199 22.6932 25.673 22.5994C25.6261 22.5055 25.3132 22.2709 24.9691 22.0519C24.6249 21.8329 23.9053 21.5513 23.3578 21.4105C22.7321 21.2541 22.1376 21.1915 21.684 21.2697C21.2929 21.3166 20.5889 21.5513 20.1196 21.7546C19.4 22.0831 18.4145 22.9904 13.9874 27.4174C9.3883 32.0164 8.66871 32.8141 8.29327 33.6276C7.96476 34.3628 7.85525 34.8164 7.85525 35.6611C7.85525 36.5059 7.94911 36.9439 8.24634 37.6165C8.46534 38.0858 8.88771 38.7428 9.18494 39.0713C9.48216 39.4154 10.1705 39.9003 10.7336 40.1663C11.594 40.5886 11.9225 40.6669 12.8455 40.6512C13.6902 40.6512 14.1595 40.5417 14.8791 40.2132C15.6456 39.8534 16.3183 39.2746 18.6335 36.9751C20.9174 34.7069 21.5588 34.1594 21.9968 34.0812C22.3879 34.003 22.6851 34.0499 23.0449 34.2689C23.3265 34.4254 23.6237 34.7226 23.7176 34.9103C23.7958 35.1136 23.874 35.536 23.874 35.8489C23.874 36.412 23.6863 36.6153 21.0895 39.2277C19.5721 40.7607 17.9296 42.2781 17.4603 42.5909C16.991 42.9038 16.1462 43.3261 15.5831 43.5295C14.9886 43.7328 14.0344 43.9362 13.3148 43.9831C12.4544 44.0301 11.7348 43.9831 10.9996 43.8111C10.4208 43.6703 9.51345 43.3418 8.96593 43.0759C8.38713 42.7786 7.58932 42.1686 6.96359 41.5429C6.30657 40.8858 5.74341 40.1194 5.38361 39.4154C5.07074 38.7741 4.75788 37.8355 4.63273 37.1472C4.52323 36.4746 4.4763 35.536 4.52323 34.9572C4.5858 34.3941 4.75788 33.5494 4.91431 33.0801C5.07074 32.6108 5.4149 31.8599 5.64955 31.4376C5.93113 30.937 7.9804 28.747 11.2655 25.4307C14.1126 22.5681 16.8658 19.9088 17.382 19.5177C17.8983 19.1423 18.7117 18.6886 19.181 18.5166Z" stroke="#1F8B4D"/>
<path d="M36.3887 29.9202C36.4825 29.7169 36.7485 29.4353 36.9831 29.2789C37.3586 29.0442 37.7653 29.0129 40.4872 29.0442L40.5044 29.0445C43.5222 29.0911 43.5697 29.0919 43.9601 29.4822C44.1947 29.7012 44.4137 30.1236 44.4763 30.4208C44.5389 30.7806 44.4763 31.1247 44.3042 31.4376C44.1791 31.7035 43.8818 32.0007 43.6628 32.1102C43.3969 32.2354 42.3488 32.2979 37.1708 32.2979L36.7015 31.8286C36.3574 31.4845 36.2323 31.2186 36.2323 30.8119C36.2323 30.5146 36.3105 30.1079 36.3887 29.9202Z" stroke="#1F8B4D"/>
<path d="M33.0097 33.346C33.1349 33.0801 33.479 32.7203 33.7606 32.5795C34.0422 32.4231 34.3707 32.2979 34.4646 32.2979C34.5741 32.2979 34.9026 32.4074 35.1685 32.5326C35.4501 32.6577 36.8893 33.9717 38.3597 35.4578C40.409 37.5226 41.066 38.2891 41.1443 38.6646C41.2068 39.0087 41.1443 39.3685 40.9565 39.7439C40.8001 40.0724 40.4872 40.3853 40.1744 40.5261C39.8771 40.6512 39.4704 40.7138 39.1576 40.6512C38.7665 40.573 38.0156 39.916 35.8255 37.7104C33.6198 35.5204 32.9628 34.7695 32.8846 34.3628C32.822 34.0656 32.8846 33.6589 33.0097 33.346Z" stroke="#1F8B4D"/>
<path d="M29.7716 36.5841C29.928 36.3025 30.1939 36.0053 30.366 35.9271C30.5381 35.8332 30.9448 35.755 31.2577 35.755C31.7113 35.7394 31.9616 35.8489 32.7907 36.6779V39.7283C32.7907 41.8557 32.7281 42.9038 32.5874 43.1697C32.4935 43.3887 32.1806 43.6859 31.9303 43.8111C31.6175 43.9831 31.2733 44.0457 30.9135 43.9831C30.6163 43.9206 30.1939 43.7016 29.9749 43.4669C29.5846 43.0766 29.5838 43.0291 29.5372 40.0895L29.5369 40.0724C29.49 37.3975 29.5056 37.0221 29.7716 36.5841Z" stroke="#1F8B4D"/>
</svg>
