<svg width="48" height="48" viewBox="0 0 48 48" fill="none" xmlns="http://www.w3.org/2000/svg">
<g clip-path="url(#clip0_1907_3060)">
<path fill-rule="evenodd" clip-rule="evenodd" d="M22.665 0C18.405 0 14.43 1.18131 11.025 3.21495C10.05 2.42243 8.835 1.98879 7.56 1.98879C4.53 1.98879 2.055 4.45607 2.055 7.47664C2.055 8.73271 2.49 9.94392 3.27 10.9009C1.2 14.3252 0 18.3178 0 22.5944C0 22.7738 0.03 22.9383 0.09 23.1028C0.15 23.2673 0.255 23.4168 0.375 23.5364C0.495 23.6561 0.645 23.7607 0.81 23.8206C0.975 23.8804 1.14 23.9252 1.32 23.9252C1.5 23.9252 1.665 23.8953 1.83 23.8206C1.995 23.7607 2.13 23.6561 2.265 23.5364C2.385 23.4168 2.49 23.2673 2.55 23.1028C2.61 22.9383 2.655 22.7738 2.64 22.5944C2.64 18.9009 3.645 15.4617 5.4 12.486C6.09 12.785 6.825 12.9495 7.575 12.9645C10.605 12.9645 13.08 10.4972 13.08 7.47664C13.08 6.72897 12.915 5.99626 12.615 5.32336C15.57 3.60374 19.005 2.61682 22.68 2.61682C22.86 2.61682 23.025 2.58692 23.19 2.5271C23.355 2.46729 23.505 2.36262 23.625 2.24299C23.745 2.12336 23.85 1.97383 23.91 1.80935C23.97 1.64486 24.015 1.48037 24.015 1.30093C24.015 1.1215 23.985 0.957009 23.91 0.792523C23.85 0.628037 23.745 0.493458 23.625 0.358878C23.505 0.239252 23.355 0.134579 23.19 0.0747664C23.01 0.0299065 22.845 0 22.665 0ZM7.56 4.62056C8.445 4.62056 9.24 4.99439 9.78 5.68224L9.81 5.71215C10.215 6.22056 10.425 6.8486 10.425 7.49159C10.425 9.09159 9.15 10.3477 7.56 10.3477C6.9 10.3477 6.27 10.1234 5.76 9.70467C5.085 9.16636 4.695 8.34392 4.695 7.47664C4.695 5.87664 5.97 4.62056 7.56 4.62056ZM35.7 18.228L38.715 15.2224C38.955 14.9832 39.06 14.6542 39.06 14.3252C39.06 13.6224 38.475 13.0691 37.77 13.099C37.47 13.114 37.17 13.2336 36.945 13.443L33.93 16.4486L30.945 13.4729L30.9453 13.4726C31.2611 13.1577 32.9403 11.4838 33.915 10.4972C34.155 10.2579 34.26 9.92895 34.26 9.59998C34.26 8.89718 33.675 8.34391 32.97 8.37381C32.67 8.38877 32.37 8.50839 32.145 8.71774L29.16 11.6934L26.43 8.97194C25.83 8.37381 24.87 8.37381 24.27 8.97194L20.55 12.6953L17.55 9.70465C17.31 9.4654 16.98 9.36073 16.65 9.36073C15.945 9.36073 15.39 9.94391 15.42 10.6467C15.435 10.9607 15.555 11.2448 15.765 11.4691L18.78 14.4747L14.88 18.3626L14.8799 18.3626C14.6848 18.168 12.8999 16.3887 11.865 15.3719C11.625 15.1327 11.295 15.028 10.965 15.028C10.605 15.028 10.29 15.1776 10.065 15.4019C9.83999 15.6262 9.70499 15.9551 9.71999 16.314C9.73499 16.6131 9.85499 16.9121 10.065 17.1364C10.8451 17.9262 12.2194 19.2887 12.8118 19.8759C12.9484 20.0114 13.0434 20.1056 13.08 20.142L9.35999 23.8505C8.75999 24.4486 8.75999 25.4056 9.35999 26.0037L12.105 28.7103L9.08999 31.7159C8.84999 31.9551 8.74499 32.2841 8.74499 32.6131C8.74499 33.3159 9.32999 33.8691 10.035 33.8392C10.335 33.8243 10.635 33.7047 10.86 33.4953C11.85 32.5233 13.74 30.6392 13.89 30.4897L16.875 33.4654L13.86 36.471C13.62 36.7103 13.515 37.0392 13.515 37.3682C13.515 38.071 14.1 38.6243 14.805 38.5944C15.105 38.5794 15.405 38.4598 15.63 38.2505C16.62 37.2785 18.495 35.3944 18.645 35.2299L21.435 38.0112C22.035 38.6093 22.995 38.6093 23.595 38.0112L27.315 34.3028L30.345 37.3233C30.585 37.5626 30.915 37.6673 31.245 37.6673C31.95 37.6673 32.505 37.0841 32.475 36.3813C32.46 36.0822 32.34 35.7832 32.13 35.5589C31.11 34.5271 29.1 32.5383 29.1 32.5383L33.015 28.6355L33.0154 28.6359C33.0963 28.7165 34.9818 30.5961 36.045 31.6411C36.285 31.8804 36.615 31.985 36.945 31.985C37.65 31.985 38.205 31.4019 38.175 30.699C38.16 30.4 38.04 30.1009 37.83 29.8766C36.9299 28.9659 35.2476 27.2995 34.874 26.9294L34.8735 26.9289L34.8 26.8561L38.52 23.1476C39.12 22.5495 39.12 21.5925 38.52 20.9944L35.7 18.228ZM29.625 18.3626C29.34 18.9159 28.71 19.185 28.14 19.0205L29.055 22.6093C29.22 23.2523 28.815 23.9551 28.155 24.1495L21.45 26.1832L22.695 30.9533C22.875 31.6112 22.47 32.299 21.795 32.5084C21.12 32.7177 20.445 32.3439 20.28 31.686L18.75 25.7346C18.585 25.0766 18.99 24.3888 19.65 24.1944L26.355 22.1607L25.74 19.7533C25.32 20.2168 24.66 20.3215 24.15 20.0224C23.64 19.7233 23.46 19.0804 23.7 18.5271L24.915 15.6112C24.975 15.4617 25.08 15.3121 25.2 15.1925C25.455 14.9383 25.8 14.7888 26.145 14.8037C26.4 14.8037 26.64 14.8785 26.835 15.028L29.31 16.8374C29.775 17.1514 29.91 17.8093 29.625 18.3626ZM36.975 44.6355C33.57 46.6692 29.595 47.8505 25.335 47.8505C25.155 47.8505 24.99 47.8206 24.825 47.7757C24.66 47.7159 24.51 47.6112 24.39 47.4916C24.27 47.357 24.165 47.2225 24.105 47.058C24.03 46.8935 24 46.729 24 46.5496C24 46.3701 24.045 46.2056 24.105 46.0411C24.165 45.8767 24.27 45.7271 24.39 45.6075C24.51 45.4879 24.66 45.3832 24.825 45.3234C24.99 45.2636 25.155 45.2337 25.335 45.2337C29.01 45.2337 32.445 44.2468 35.4 42.5271C35.1 41.8542 34.935 41.1215 34.935 40.3739C34.935 37.3533 37.41 34.886 40.44 34.886C41.19 34.901 41.925 35.0654 42.615 35.3645C44.37 32.3888 45.375 28.9496 45.375 25.2561C45.375 25.0767 45.405 24.9122 45.465 24.7477C45.525 24.5832 45.63 24.4337 45.75 24.314C45.885 24.1944 46.02 24.0897 46.185 24.0299C46.35 23.9552 46.515 23.9253 46.695 23.9253C46.875 23.9253 47.04 23.9701 47.205 24.0299C47.37 24.0897 47.52 24.1944 47.64 24.314C47.76 24.4337 47.865 24.5832 47.925 24.7477C47.985 24.9122 48.015 25.0767 48.015 25.2561C48.015 29.5327 46.8 33.5402 44.73 36.9496C45.51 37.9066 45.945 39.1178 45.945 40.3739C45.945 43.3944 43.47 45.8617 40.44 45.8617C39.165 45.8617 37.95 45.4281 36.975 44.6355ZM38.22 42.1683C38.76 42.8561 39.555 43.2299 40.44 43.2299C42.03 43.2299 43.305 41.9739 43.305 40.3739C43.305 39.5066 42.915 38.6841 42.24 38.1458C41.73 37.7271 41.1 37.5028 40.44 37.5028C38.85 37.5028 37.575 38.7589 37.575 40.3589C37.575 41.0019 37.785 41.6299 38.19 42.1383L38.22 42.1683Z" fill="#1F8B4D"/>
</g>
<defs>
<clipPath id="clip0_1907_3060">
<rect width="48" height="48" fill="white"/>
</clipPath>
</defs>
</svg>
