<svg width="49" height="48" viewBox="0 0 49 48" fill="none" xmlns="http://www.w3.org/2000/svg">
<path d="M27.938 17.5619C28.2197 17.8436 28.6017 18.0018 29 18.0018C29.3983 18.0018 29.7803 17.8436 30.062 17.5619C30.3437 17.2803 30.5019 16.8983 30.5019 16.4999C30.5019 16.1016 30.3437 15.7196 30.062 15.4379L26.621 11.9999H32C33.1935 11.9999 34.3381 12.474 35.182 13.318C36.0259 14.1619 36.5 15.3065 36.5 16.4999V30.1499C34.6789 30.5217 33.0608 31.5563 31.9592 33.0533C30.8576 34.5503 30.3512 36.403 30.538 38.2522C30.7248 40.1014 31.5916 41.8154 32.9703 43.0618C34.349 44.3083 36.1414 44.9984 38 44.9984C39.8586 44.9984 41.651 44.3083 43.0297 43.0618C44.4084 41.8154 45.2752 40.1014 45.462 38.2522C45.6488 36.403 45.1424 34.5503 44.0408 33.0533C42.9392 31.5563 41.3211 30.5217 39.5 30.1499V16.4999C39.5 14.5108 38.7098 12.6032 37.3033 11.1966C35.8968 9.79012 33.9891 8.99994 32 8.99994H26.621L30.062 5.56194C30.3437 5.28028 30.5019 4.89827 30.5019 4.49994C30.5019 4.10161 30.3437 3.7196 30.062 3.43794C29.7803 3.15628 29.3983 2.99805 29 2.99805C28.6017 2.99805 28.2197 3.15628 27.938 3.43794L21.938 9.43794C21.7983 9.57728 21.6875 9.74281 21.6119 9.92504C21.5362 10.1073 21.4973 10.3026 21.4973 10.4999C21.4973 10.6972 21.5362 10.8926 21.6119 11.0748C21.6875 11.2571 21.7983 11.4226 21.938 11.5619L27.938 17.5619ZM18.5 10.4999C18.5004 12.2289 17.9033 13.9049 16.81 15.2443C15.7166 16.5837 14.194 17.5041 12.5 17.8499V31.4999C12.5 32.6934 12.9741 33.838 13.818 34.6819C14.6619 35.5258 15.8065 35.9999 17 35.9999H22.379L18.938 32.5619C18.6563 32.2803 18.4981 31.8983 18.4981 31.4999C18.4981 31.1016 18.6563 30.7196 18.938 30.4379C19.2197 30.1563 19.6017 29.998 20 29.998C20.3983 29.998 20.7803 30.1563 21.062 30.4379L27.062 36.4379C27.2017 36.5773 27.3125 36.7428 27.3881 36.925C27.4638 37.1073 27.5027 37.3026 27.5027 37.4999C27.5027 37.6972 27.4638 37.8926 27.3881 38.0748C27.3125 38.2571 27.2017 38.4226 27.062 38.5619L21.062 44.5619C20.7803 44.8436 20.3983 45.0018 20 45.0018C19.6017 45.0018 19.2197 44.8436 18.938 44.5619C18.6563 44.2803 18.4981 43.8983 18.4981 43.4999C18.4981 43.1016 18.6563 42.7196 18.938 42.4379L22.379 38.9999H17C15.0109 38.9999 13.1032 38.2098 11.6967 36.8032C10.2902 35.3967 9.5 33.4891 9.5 31.4999V17.8499C8.10963 17.5661 6.8283 16.8937 5.80483 15.9107C4.78136 14.9278 4.05776 13.6746 3.71806 12.2969C3.37837 10.9191 3.43652 9.47318 3.88576 8.12712C4.335 6.78107 5.1569 5.59008 6.25599 4.69248C7.35509 3.79489 8.68628 3.22752 10.095 3.05628C11.5036 2.88504 12.932 3.11695 14.2141 3.72508C15.4962 4.33321 16.5795 5.2926 17.3382 6.49183C18.0968 7.69105 18.4997 9.0809 18.5 10.4999Z" fill="#1F8B4D"/>
</svg>
