<svg width="49" height="48" viewBox="0 0 49 48" fill="none" xmlns="http://www.w3.org/2000/svg">
<mask id="mask0_1907_2952" style="mask-type:alpha" maskUnits="userSpaceOnUse" x="0" y="0" width="49" height="48">
<rect x="0.5" width="48" height="48" fill="#D9D9D9"/>
</mask>
<g mask="url(#mask0_1907_2952)">
<path d="M24.5 44C19.8667 42.8333 16.0417 40.175 13.025 36.025C10.0083 31.875 8.5 27.2667 8.5 22.2V10L24.5 4L40.5 10V22.2C40.5 27.2667 38.9917 31.875 35.975 36.025C32.9583 40.175 29.1333 42.8333 24.5 44ZM24.5 39.8C27.7333 38.8 30.4333 36.825 32.6 33.875C34.7667 30.925 36.0333 27.6333 36.4 24H24.5V8.25L12.5 12.75V23.1C12.5 23.3333 12.5333 23.6333 12.6 24H24.5V39.8Z" fill="#1F8B4D"/>
</g>
</svg>
