<svg width="40" height="41" viewBox="0 0 40 41" fill="none" xmlns="http://www.w3.org/2000/svg">
    <path fill-rule="evenodd" clip-rule="evenodd" d="M33.4987 28.2358C34.8073 25.9573 35.5556 23.316 35.5556 20.5C35.5556 11.9089 28.5911 4.94444 20 4.94444C17.184 4.94444 14.5427 5.69273 12.2642 7.0013L9.03434 3.77144C12.1832 1.70315 15.9511 0.5 20 0.5C31.0457 0.5 40 9.4543 40 20.5C40 24.5489 38.7968 28.3168 36.7286 31.4657L33.4987 28.2358ZM34.0376 34.7459L5.75414 6.46235C2.19585 10.0731 0 15.0301 0 20.5C0 31.5457 8.9543 40.5 20 40.5C25.4699 40.5 30.4269 38.3041 34.0376 34.7459ZM19.0995 26.0755L6.24765 13.2237C5.09648 15.3949 4.44444 17.8713 4.44444 20.5C4.44444 24.0792 5.6533 27.3762 7.685 30.0047C8.31423 29.5713 9.14859 29.0473 10.1609 28.5249C12.3492 27.3954 15.4303 26.2416 19.0995 26.0755ZM26.1202 20.8563L15.2002 9.93628C15.7557 9.50059 16.369 9.14164 17.0239 8.87037C17.9676 8.4795 18.979 8.27832 20.0004 8.27832C21.0218 8.27832 22.0332 8.4795 22.9768 8.87037C23.9204 9.26124 24.7779 9.83415 25.5001 10.5564C26.2223 11.2786 26.7952 12.136 27.1861 13.0797C27.577 14.0233 27.7781 15.0347 27.7781 16.0561C27.7781 17.0775 27.577 18.0889 27.1861 19.0325C26.9148 19.6874 26.5559 20.3008 26.1202 20.8563Z" fill="#1F8B4D"/>
</svg>
