<svg width="802" height="248" viewBox="0 0 802 248" fill="none" xmlns="http://www.w3.org/2000/svg">
<rect width="802" height="248" rx="12" fill="#E7E9EB"/>
<rect x="0.5" y="0.5" width="801" height="247" rx="11.5" stroke="black" stroke-opacity="0.05"/>
<g filter="url(#filter0_d_4354_239382)">
<rect x="166" y="44" width="221.625" height="67.5" rx="4.5" fill="white"/>
<rect x="166.562" y="44.5625" width="220.5" height="66.375" rx="3.9375" stroke="#3F52DD" stroke-width="1.125"/>
<path d="M247.812 86.75V80H252.312V86.75H257.938V77.75H261.312L250.062 67.625L238.812 77.75H242.188V86.75H247.812Z" fill="#3F52DD"/>
<path d="M273.833 78.1897H270.98L270.964 76.7823H273.456C273.877 76.7823 274.233 76.7208 274.525 76.5978C274.823 76.4696 275.048 76.2876 275.202 76.0518C275.356 75.8108 275.433 75.5211 275.433 75.1827C275.433 74.8085 275.361 74.5034 275.217 74.2676C275.074 74.0317 274.853 73.86 274.556 73.7523C274.264 73.6447 273.889 73.5908 273.433 73.5908H271.564V83.25H269.634V72.0527H273.433C274.048 72.0527 274.597 72.1117 275.079 72.2296C275.566 72.3475 275.979 72.5321 276.317 72.7833C276.661 73.0294 276.919 73.3422 277.094 73.7216C277.273 74.101 277.363 74.5521 277.363 75.0751C277.363 75.5365 277.253 75.9595 277.032 76.344C276.812 76.7234 276.486 77.0336 276.056 77.2745C275.625 77.5155 275.089 77.6591 274.448 77.7052L273.833 78.1897ZM273.748 83.25H270.372L271.241 81.7196H273.748C274.184 81.7196 274.548 81.6478 274.84 81.5043C275.133 81.3556 275.351 81.1531 275.494 80.8967C275.643 80.6353 275.717 80.3302 275.717 79.9816C275.717 79.6176 275.653 79.3022 275.525 79.0356C275.397 78.7639 275.194 78.5563 274.917 78.4127C274.641 78.264 274.279 78.1897 273.833 78.1897H271.664L271.68 76.7823H274.502L274.94 77.313C275.556 77.3335 276.061 77.4694 276.455 77.7206C276.855 77.9718 277.153 78.2974 277.348 78.6973C277.542 79.0972 277.64 79.5278 277.64 79.9893C277.64 80.7019 277.483 81.2992 277.171 81.7811C276.863 82.2631 276.42 82.6296 275.84 82.8809C275.261 83.127 274.564 83.25 273.748 83.25ZM284.689 81.2889V74.929H286.55V83.25H284.796L284.689 81.2889ZM284.95 79.5586L285.573 79.5432C285.573 80.1021 285.511 80.6173 285.388 81.089C285.265 81.5555 285.076 81.9631 284.819 82.3118C284.563 82.6553 284.235 82.9244 283.835 83.1193C283.435 83.309 282.956 83.4038 282.397 83.4038C281.992 83.4038 281.62 83.3448 281.282 83.2269C280.943 83.109 280.651 82.927 280.405 82.6809C280.164 82.4348 279.977 82.1144 279.844 81.7196C279.71 81.3248 279.644 80.8531 279.644 80.3046V74.929H281.497V80.3199C281.497 80.6224 281.533 80.8762 281.605 81.0813C281.677 81.2812 281.774 81.4427 281.897 81.5658C282.02 81.6888 282.164 81.776 282.328 81.8273C282.492 81.8785 282.666 81.9042 282.851 81.9042C283.379 81.9042 283.794 81.8016 284.096 81.5966C284.404 81.3864 284.622 81.1044 284.75 80.7506C284.883 80.3969 284.95 79.9995 284.95 79.5586ZM292.545 74.929V76.2825H287.854V74.929H292.545ZM289.207 72.891H291.061V80.9506C291.061 81.2069 291.097 81.4043 291.168 81.5427C291.245 81.676 291.35 81.7657 291.484 81.8119C291.617 81.858 291.773 81.8811 291.953 81.8811C292.081 81.8811 292.204 81.8734 292.322 81.858C292.44 81.8427 292.535 81.8273 292.606 81.8119L292.614 83.2269C292.46 83.2731 292.281 83.3141 292.076 83.35C291.876 83.3859 291.645 83.4038 291.384 83.4038C290.958 83.4038 290.581 83.3295 290.253 83.1808C289.925 83.027 289.669 82.7783 289.484 82.4348C289.3 82.0913 289.207 81.635 289.207 81.0659V72.891ZM298.071 74.929V76.2825H293.38V74.929H298.071ZM294.733 72.891H296.587V80.9506C296.587 81.2069 296.623 81.4043 296.694 81.5427C296.771 81.676 296.876 81.7657 297.01 81.8119C297.143 81.858 297.299 81.8811 297.479 81.8811C297.607 81.8811 297.73 81.8734 297.848 81.858C297.966 81.8427 298.061 81.8273 298.133 81.8119L298.14 83.2269C297.986 83.2731 297.807 83.3141 297.602 83.35C297.402 83.3859 297.171 83.4038 296.91 83.4038C296.484 83.4038 296.107 83.3295 295.779 83.1808C295.451 83.027 295.195 82.7783 295.01 82.4348C294.826 82.0913 294.733 81.635 294.733 81.0659V72.891ZM299.244 79.1818V79.0049C299.244 78.405 299.332 77.8488 299.506 77.3361C299.68 76.8182 299.931 76.3696 300.26 75.9902C300.593 75.6057 300.998 75.3083 301.475 75.0981C301.957 74.8828 302.5 74.7751 303.105 74.7751C303.715 74.7751 304.259 74.8828 304.735 75.0981C305.217 75.3083 305.625 75.6057 305.958 75.9902C306.291 76.3696 306.545 76.8182 306.719 77.3361C306.894 77.8488 306.981 78.405 306.981 79.0049V79.1818C306.981 79.7816 306.894 80.3379 306.719 80.8506C306.545 81.3633 306.291 81.8119 305.958 82.1964C305.625 82.5758 305.22 82.8732 304.743 83.0885C304.266 83.2987 303.725 83.4038 303.12 83.4038C302.51 83.4038 301.964 83.2987 301.482 83.0885C301.005 82.8732 300.6 82.5758 300.267 82.1964C299.934 81.8119 299.68 81.3633 299.506 80.8506C299.332 80.3379 299.244 79.7816 299.244 79.1818ZM301.098 79.0049V79.1818C301.098 79.556 301.136 79.9098 301.213 80.243C301.29 80.5763 301.411 80.8685 301.575 81.1198C301.739 81.371 301.949 81.5684 302.205 81.7119C302.462 81.8555 302.767 81.9272 303.12 81.9272C303.464 81.9272 303.761 81.8555 304.012 81.7119C304.269 81.5684 304.479 81.371 304.643 81.1198C304.807 80.8685 304.928 80.5763 305.005 80.243C305.087 79.9098 305.128 79.556 305.128 79.1818V79.0049C305.128 78.6357 305.087 78.2871 305.005 77.959C304.928 77.6257 304.805 77.3309 304.635 77.0746C304.471 76.8182 304.261 76.6183 304.005 76.4747C303.754 76.326 303.454 76.2517 303.105 76.2517C302.756 76.2517 302.454 76.326 302.198 76.4747C301.946 76.6183 301.739 76.8182 301.575 77.0746C301.411 77.3309 301.29 77.6257 301.213 77.959C301.136 78.2871 301.098 78.6357 301.098 79.0049ZM310.654 76.7054V83.25H308.8V74.929H310.546L310.654 76.7054ZM310.323 78.7819L309.723 78.7742C309.728 78.1846 309.81 77.6437 309.969 77.1515C310.133 76.6593 310.359 76.2363 310.646 75.8826C310.938 75.5288 311.287 75.2571 311.692 75.0674C312.097 74.8726 312.548 74.7751 313.045 74.7751C313.445 74.7751 313.807 74.8315 314.13 74.9443C314.458 75.052 314.737 75.2289 314.968 75.475C315.204 75.7211 315.383 76.0415 315.506 76.4363C315.629 76.8259 315.691 77.3053 315.691 77.8744V83.25H313.83V77.8667C313.83 77.4668 313.771 77.1515 313.653 76.9208C313.54 76.6849 313.374 76.5183 313.153 76.4209C312.938 76.3184 312.669 76.2671 312.346 76.2671C312.028 76.2671 311.743 76.3337 311.492 76.467C311.241 76.6003 311.028 76.7823 310.854 77.0131C310.684 77.2438 310.554 77.5104 310.461 77.8129C310.369 78.1154 310.323 78.4384 310.323 78.7819Z" fill="#3F52DD"/>
</g>
<g filter="url(#filter1_d_4354_239382)">
<mask id="path-7-inside-1_4354_239382" fill="white">
<path d="M414.625 48.5C414.625 46.0147 416.64 44 419.125 44H631.75C634.235 44 636.25 46.0147 636.25 48.5V107C636.25 109.485 634.235 111.5 631.75 111.5H419.125C416.64 111.5 414.625 109.485 414.625 107V48.5Z"/>
</mask>
<path d="M414.625 48.5C414.625 46.0147 416.64 44 419.125 44H631.75C634.235 44 636.25 46.0147 636.25 48.5V107C636.25 109.485 634.235 111.5 631.75 111.5H419.125C416.64 111.5 414.625 109.485 414.625 107V48.5Z" fill="white"/>
<path d="M414.625 44H636.25H414.625ZM636.25 107C636.25 110.728 633.228 113.75 629.5 113.75H421.375C417.647 113.75 414.625 110.728 414.625 107C414.625 108.243 416.64 109.25 419.125 109.25H631.75C634.235 109.25 636.25 108.243 636.25 107ZM414.625 111.5V44V111.5ZM636.25 44V111.5V44Z" fill="#3F52DD" mask="url(#path-7-inside-1_4354_239382)"/>
<path d="M496.438 86.75V80H500.938V86.75H506.562V77.75H509.938L498.688 67.625L487.438 77.75H490.812V86.75H496.438Z" fill="#3F52DD"/>
<path d="M522.458 78.1897H519.605L519.589 76.7823H522.081C522.502 76.7823 522.858 76.7208 523.15 76.5978C523.448 76.4696 523.673 76.2876 523.827 76.0518C523.981 75.8108 524.058 75.5211 524.058 75.1827C524.058 74.8085 523.986 74.5034 523.842 74.2676C523.699 74.0317 523.478 73.86 523.181 73.7523C522.889 73.6447 522.514 73.5908 522.058 73.5908H520.189V83.25H518.259V72.0527H522.058C522.673 72.0527 523.222 72.1117 523.704 72.2296C524.191 72.3475 524.604 72.5321 524.942 72.7833C525.286 73.0294 525.544 73.3422 525.719 73.7216C525.898 74.101 525.988 74.5521 525.988 75.0751C525.988 75.5365 525.878 75.9595 525.657 76.344C525.437 76.7234 525.111 77.0336 524.681 77.2745C524.25 77.5155 523.714 77.6591 523.073 77.7052L522.458 78.1897ZM522.373 83.25H518.997L519.866 81.7196H522.373C522.809 81.7196 523.173 81.6478 523.465 81.5043C523.758 81.3556 523.976 81.1531 524.119 80.8967C524.268 80.6353 524.342 80.3302 524.342 79.9816C524.342 79.6176 524.278 79.3022 524.15 79.0356C524.022 78.7639 523.819 78.5563 523.542 78.4127C523.266 78.264 522.904 78.1897 522.458 78.1897H520.289L520.305 76.7823H523.127L523.565 77.313C524.181 77.3335 524.686 77.4694 525.08 77.7206C525.48 77.9718 525.778 78.2974 525.973 78.6973C526.167 79.0972 526.265 79.5278 526.265 79.9893C526.265 80.7019 526.108 81.2992 525.796 81.7811C525.488 82.2631 525.045 82.6296 524.465 82.8809C523.886 83.127 523.189 83.25 522.373 83.25ZM533.314 81.2889V74.929H535.175V83.25H533.421L533.314 81.2889ZM533.575 79.5586L534.198 79.5432C534.198 80.1021 534.136 80.6173 534.013 81.089C533.89 81.5555 533.701 81.9631 533.444 82.3118C533.188 82.6553 532.86 82.9244 532.46 83.1193C532.06 83.309 531.581 83.4038 531.022 83.4038C530.617 83.4038 530.245 83.3448 529.907 83.2269C529.568 83.109 529.276 82.927 529.03 82.6809C528.789 82.4348 528.602 82.1144 528.469 81.7196C528.335 81.3248 528.269 80.8531 528.269 80.3046V74.929H530.122V80.3199C530.122 80.6224 530.158 80.8762 530.23 81.0813C530.302 81.2812 530.399 81.4427 530.522 81.5658C530.645 81.6888 530.789 81.776 530.953 81.8273C531.117 81.8785 531.291 81.9042 531.476 81.9042C532.004 81.9042 532.419 81.8016 532.721 81.5966C533.029 81.3864 533.247 81.1044 533.375 80.7506C533.508 80.3969 533.575 79.9995 533.575 79.5586ZM541.17 74.929V76.2825H536.479V74.929H541.17ZM537.832 72.891H539.686V80.9506C539.686 81.2069 539.722 81.4043 539.793 81.5427C539.87 81.676 539.975 81.7657 540.109 81.8119C540.242 81.858 540.398 81.8811 540.578 81.8811C540.706 81.8811 540.829 81.8734 540.947 81.858C541.065 81.8427 541.16 81.8273 541.231 81.8119L541.239 83.2269C541.085 83.2731 540.906 83.3141 540.701 83.35C540.501 83.3859 540.27 83.4038 540.009 83.4038C539.583 83.4038 539.206 83.3295 538.878 83.1808C538.55 83.027 538.294 82.7783 538.109 82.4348C537.925 82.0913 537.832 81.635 537.832 81.0659V72.891ZM546.696 74.929V76.2825H542.005V74.929H546.696ZM543.358 72.891H545.212V80.9506C545.212 81.2069 545.248 81.4043 545.319 81.5427C545.396 81.676 545.501 81.7657 545.635 81.8119C545.768 81.858 545.924 81.8811 546.104 81.8811C546.232 81.8811 546.355 81.8734 546.473 81.858C546.591 81.8427 546.686 81.8273 546.758 81.8119L546.765 83.2269C546.611 83.2731 546.432 83.3141 546.227 83.35C546.027 83.3859 545.796 83.4038 545.535 83.4038C545.109 83.4038 544.732 83.3295 544.404 83.1808C544.076 83.027 543.82 82.7783 543.635 82.4348C543.451 82.0913 543.358 81.635 543.358 81.0659V72.891ZM547.869 79.1818V79.0049C547.869 78.405 547.957 77.8488 548.131 77.3361C548.305 76.8182 548.556 76.3696 548.885 75.9902C549.218 75.6057 549.623 75.3083 550.1 75.0981C550.582 74.8828 551.125 74.7751 551.73 74.7751C552.34 74.7751 552.884 74.8828 553.36 75.0981C553.842 75.3083 554.25 75.6057 554.583 75.9902C554.916 76.3696 555.17 76.8182 555.344 77.3361C555.519 77.8488 555.606 78.405 555.606 79.0049V79.1818C555.606 79.7816 555.519 80.3379 555.344 80.8506C555.17 81.3633 554.916 81.8119 554.583 82.1964C554.25 82.5758 553.845 82.8732 553.368 83.0885C552.891 83.2987 552.35 83.4038 551.745 83.4038C551.135 83.4038 550.589 83.2987 550.107 83.0885C549.63 82.8732 549.225 82.5758 548.892 82.1964C548.559 81.8119 548.305 81.3633 548.131 80.8506C547.957 80.3379 547.869 79.7816 547.869 79.1818ZM549.723 79.0049V79.1818C549.723 79.556 549.761 79.9098 549.838 80.243C549.915 80.5763 550.036 80.8685 550.2 81.1198C550.364 81.371 550.574 81.5684 550.83 81.7119C551.087 81.8555 551.392 81.9272 551.745 81.9272C552.089 81.9272 552.386 81.8555 552.637 81.7119C552.894 81.5684 553.104 81.371 553.268 81.1198C553.432 80.8685 553.553 80.5763 553.63 80.243C553.712 79.9098 553.753 79.556 553.753 79.1818V79.0049C553.753 78.6357 553.712 78.2871 553.63 77.959C553.553 77.6257 553.43 77.3309 553.26 77.0746C553.096 76.8182 552.886 76.6183 552.63 76.4747C552.379 76.326 552.079 76.2517 551.73 76.2517C551.381 76.2517 551.079 76.326 550.823 76.4747C550.571 76.6183 550.364 76.8182 550.2 77.0746C550.036 77.3309 549.915 77.6257 549.838 77.959C549.761 78.2871 549.723 78.6357 549.723 79.0049ZM559.279 76.7054V83.25H557.425V74.929H559.171L559.279 76.7054ZM558.948 78.7819L558.348 78.7742C558.353 78.1846 558.435 77.6437 558.594 77.1515C558.758 76.6593 558.984 76.2363 559.271 75.8826C559.563 75.5288 559.912 75.2571 560.317 75.0674C560.722 74.8726 561.173 74.7751 561.67 74.7751C562.07 74.7751 562.432 74.8315 562.755 74.9443C563.083 75.052 563.362 75.2289 563.593 75.475C563.829 75.7211 564.008 76.0415 564.131 76.4363C564.254 76.8259 564.316 77.3053 564.316 77.8744V83.25H562.455V77.8667C562.455 77.4668 562.396 77.1515 562.278 76.9208C562.165 76.6849 561.999 76.5183 561.778 76.4209C561.563 76.3184 561.294 76.2671 560.971 76.2671C560.653 76.2671 560.368 76.3337 560.117 76.467C559.866 76.6003 559.653 76.7823 559.479 77.0131C559.309 77.2438 559.179 77.5104 559.086 77.8129C558.994 78.1154 558.948 78.4384 558.948 78.7819Z" fill="#3F52DD"/>
</g>
<g filter="url(#filter2_d_4354_239382)">
<path d="M166 140C166 137.515 168.015 135.5 170.5 135.5H383.125C385.61 135.5 387.625 137.515 387.625 140V198.5C387.625 200.985 385.61 203 383.125 203H170.5C168.015 203 166 200.985 166 198.5V140Z" fill="#3F52DD"/>
<path d="M247.812 178.25V171.5H252.312V178.25H257.938V169.25H261.312L250.062 159.125L238.812 169.25H242.188V178.25H247.812Z" fill="white"/>
<path d="M273.833 169.69H270.98L270.964 168.282H273.456C273.877 168.282 274.233 168.221 274.525 168.098C274.823 167.97 275.048 167.788 275.202 167.552C275.356 167.311 275.433 167.021 275.433 166.683C275.433 166.308 275.361 166.003 275.217 165.768C275.074 165.532 274.853 165.36 274.556 165.252C274.264 165.145 273.889 165.091 273.433 165.091H271.564V174.75H269.634V163.553H273.433C274.048 163.553 274.597 163.612 275.079 163.73C275.566 163.848 275.979 164.032 276.317 164.283C276.661 164.529 276.919 164.842 277.094 165.222C277.273 165.601 277.363 166.052 277.363 166.575C277.363 167.036 277.253 167.459 277.032 167.844C276.812 168.223 276.486 168.534 276.056 168.775C275.625 169.016 275.089 169.159 274.448 169.205L273.833 169.69ZM273.748 174.75H270.372L271.241 173.22H273.748C274.184 173.22 274.548 173.148 274.84 173.004C275.133 172.856 275.351 172.653 275.494 172.397C275.643 172.135 275.717 171.83 275.717 171.482C275.717 171.118 275.653 170.802 275.525 170.536C275.397 170.264 275.194 170.056 274.917 169.913C274.641 169.764 274.279 169.69 273.833 169.69H271.664L271.68 168.282H274.502L274.94 168.813C275.556 168.833 276.061 168.969 276.455 169.221C276.855 169.472 277.153 169.797 277.348 170.197C277.542 170.597 277.64 171.028 277.64 171.489C277.64 172.202 277.483 172.799 277.171 173.281C276.863 173.763 276.42 174.13 275.84 174.381C275.261 174.627 274.564 174.75 273.748 174.75ZM284.689 172.789V166.429H286.55V174.75H284.796L284.689 172.789ZM284.95 171.059L285.573 171.043C285.573 171.602 285.511 172.117 285.388 172.589C285.265 173.056 285.076 173.463 284.819 173.812C284.563 174.155 284.235 174.424 283.835 174.619C283.435 174.809 282.956 174.904 282.397 174.904C281.992 174.904 281.62 174.845 281.282 174.727C280.943 174.609 280.651 174.427 280.405 174.181C280.164 173.935 279.977 173.614 279.844 173.22C279.71 172.825 279.644 172.353 279.644 171.805V166.429H281.497V171.82C281.497 172.122 281.533 172.376 281.605 172.581C281.677 172.781 281.774 172.943 281.897 173.066C282.02 173.189 282.164 173.276 282.328 173.327C282.492 173.379 282.666 173.404 282.851 173.404C283.379 173.404 283.794 173.302 284.096 173.097C284.404 172.886 284.622 172.604 284.75 172.251C284.883 171.897 284.95 171.5 284.95 171.059ZM292.545 166.429V167.782H287.854V166.429H292.545ZM289.207 164.391H291.061V172.451C291.061 172.707 291.097 172.904 291.168 173.043C291.245 173.176 291.35 173.266 291.484 173.312C291.617 173.358 291.773 173.381 291.953 173.381C292.081 173.381 292.204 173.373 292.322 173.358C292.44 173.343 292.535 173.327 292.606 173.312L292.614 174.727C292.46 174.773 292.281 174.814 292.076 174.85C291.876 174.886 291.645 174.904 291.384 174.904C290.958 174.904 290.581 174.829 290.253 174.681C289.925 174.527 289.669 174.278 289.484 173.935C289.3 173.591 289.207 173.135 289.207 172.566V164.391ZM298.071 166.429V167.782H293.38V166.429H298.071ZM294.733 164.391H296.587V172.451C296.587 172.707 296.623 172.904 296.694 173.043C296.771 173.176 296.876 173.266 297.01 173.312C297.143 173.358 297.299 173.381 297.479 173.381C297.607 173.381 297.73 173.373 297.848 173.358C297.966 173.343 298.061 173.327 298.133 173.312L298.14 174.727C297.986 174.773 297.807 174.814 297.602 174.85C297.402 174.886 297.171 174.904 296.91 174.904C296.484 174.904 296.107 174.829 295.779 174.681C295.451 174.527 295.195 174.278 295.01 173.935C294.826 173.591 294.733 173.135 294.733 172.566V164.391ZM299.244 170.682V170.505C299.244 169.905 299.332 169.349 299.506 168.836C299.68 168.318 299.931 167.87 300.26 167.49C300.593 167.106 300.998 166.808 301.475 166.598C301.957 166.383 302.5 166.275 303.105 166.275C303.715 166.275 304.259 166.383 304.735 166.598C305.217 166.808 305.625 167.106 305.958 167.49C306.291 167.87 306.545 168.318 306.719 168.836C306.894 169.349 306.981 169.905 306.981 170.505V170.682C306.981 171.282 306.894 171.838 306.719 172.351C306.545 172.863 306.291 173.312 305.958 173.696C305.625 174.076 305.22 174.373 304.743 174.589C304.266 174.799 303.725 174.904 303.12 174.904C302.51 174.904 301.964 174.799 301.482 174.589C301.005 174.373 300.6 174.076 300.267 173.696C299.934 173.312 299.68 172.863 299.506 172.351C299.332 171.838 299.244 171.282 299.244 170.682ZM301.098 170.505V170.682C301.098 171.056 301.136 171.41 301.213 171.743C301.29 172.076 301.411 172.369 301.575 172.62C301.739 172.871 301.949 173.068 302.205 173.212C302.462 173.355 302.767 173.427 303.12 173.427C303.464 173.427 303.761 173.355 304.012 173.212C304.269 173.068 304.479 172.871 304.643 172.62C304.807 172.369 304.928 172.076 305.005 171.743C305.087 171.41 305.128 171.056 305.128 170.682V170.505C305.128 170.136 305.087 169.787 305.005 169.459C304.928 169.126 304.805 168.831 304.635 168.575C304.471 168.318 304.261 168.118 304.005 167.975C303.754 167.826 303.454 167.752 303.105 167.752C302.756 167.752 302.454 167.826 302.198 167.975C301.946 168.118 301.739 168.318 301.575 168.575C301.411 168.831 301.29 169.126 301.213 169.459C301.136 169.787 301.098 170.136 301.098 170.505ZM310.654 168.205V174.75H308.8V166.429H310.546L310.654 168.205ZM310.323 170.282L309.723 170.274C309.728 169.685 309.81 169.144 309.969 168.651C310.133 168.159 310.359 167.736 310.646 167.383C310.938 167.029 311.287 166.757 311.692 166.567C312.097 166.373 312.548 166.275 313.045 166.275C313.445 166.275 313.807 166.332 314.13 166.444C314.458 166.552 314.737 166.729 314.968 166.975C315.204 167.221 315.383 167.542 315.506 167.936C315.629 168.326 315.691 168.805 315.691 169.374V174.75H313.83V169.367C313.83 168.967 313.771 168.651 313.653 168.421C313.54 168.185 313.374 168.018 313.153 167.921C312.938 167.818 312.669 167.767 312.346 167.767C312.028 167.767 311.743 167.834 311.492 167.967C311.241 168.1 311.028 168.282 310.854 168.513C310.684 168.744 310.554 169.01 310.461 169.313C310.369 169.615 310.323 169.938 310.323 170.282Z" fill="white"/>
</g>
<g filter="url(#filter3_d_4354_239382)">
<path d="M506.708 169.69H503.855L503.839 168.282H506.331C506.752 168.282 507.108 168.221 507.4 168.098C507.698 167.97 507.923 167.788 508.077 167.552C508.231 167.311 508.308 167.021 508.308 166.683C508.308 166.308 508.236 166.003 508.092 165.768C507.949 165.532 507.728 165.36 507.431 165.252C507.139 165.145 506.764 165.091 506.308 165.091H504.439V174.75H502.509V163.553H506.308C506.923 163.553 507.472 163.612 507.954 163.73C508.441 163.848 508.854 164.032 509.192 164.283C509.536 164.529 509.794 164.842 509.969 165.222C510.148 165.601 510.238 166.052 510.238 166.575C510.238 167.036 510.128 167.459 509.907 167.844C509.687 168.223 509.361 168.534 508.931 168.775C508.5 169.016 507.964 169.159 507.323 169.205L506.708 169.69ZM506.623 174.75H503.247L504.116 173.22H506.623C507.059 173.22 507.423 173.148 507.715 173.004C508.008 172.856 508.226 172.653 508.369 172.397C508.518 172.135 508.592 171.83 508.592 171.482C508.592 171.118 508.528 170.802 508.4 170.536C508.272 170.264 508.069 170.056 507.792 169.913C507.516 169.764 507.154 169.69 506.708 169.69H504.539L504.555 168.282H507.377L507.815 168.813C508.431 168.833 508.936 168.969 509.33 169.221C509.73 169.472 510.028 169.797 510.223 170.197C510.417 170.597 510.515 171.028 510.515 171.489C510.515 172.202 510.358 172.799 510.046 173.281C509.738 173.763 509.295 174.13 508.715 174.381C508.136 174.627 507.439 174.75 506.623 174.75ZM517.564 172.789V166.429H519.425V174.75H517.671L517.564 172.789ZM517.825 171.059L518.448 171.043C518.448 171.602 518.386 172.117 518.263 172.589C518.14 173.056 517.951 173.463 517.694 173.812C517.438 174.155 517.11 174.424 516.71 174.619C516.31 174.809 515.831 174.904 515.272 174.904C514.867 174.904 514.495 174.845 514.157 174.727C513.818 174.609 513.526 174.427 513.28 174.181C513.039 173.935 512.852 173.614 512.719 173.22C512.585 172.825 512.519 172.353 512.519 171.805V166.429H514.372V171.82C514.372 172.122 514.408 172.376 514.48 172.581C514.552 172.781 514.649 172.943 514.772 173.066C514.895 173.189 515.039 173.276 515.203 173.327C515.367 173.379 515.541 173.404 515.726 173.404C516.254 173.404 516.669 173.302 516.971 173.097C517.279 172.886 517.497 172.604 517.625 172.251C517.758 171.897 517.825 171.5 517.825 171.059ZM525.42 166.429V167.782H520.729V166.429H525.42ZM522.082 164.391H523.936V172.451C523.936 172.707 523.972 172.904 524.043 173.043C524.12 173.176 524.225 173.266 524.359 173.312C524.492 173.358 524.648 173.381 524.828 173.381C524.956 173.381 525.079 173.373 525.197 173.358C525.315 173.343 525.41 173.327 525.481 173.312L525.489 174.727C525.335 174.773 525.156 174.814 524.951 174.85C524.751 174.886 524.52 174.904 524.259 174.904C523.833 174.904 523.456 174.829 523.128 174.681C522.8 174.527 522.544 174.278 522.359 173.935C522.175 173.591 522.082 173.135 522.082 172.566V164.391ZM530.946 166.429V167.782H526.255V166.429H530.946ZM527.608 164.391H529.462V172.451C529.462 172.707 529.498 172.904 529.569 173.043C529.646 173.176 529.751 173.266 529.885 173.312C530.018 173.358 530.174 173.381 530.354 173.381C530.482 173.381 530.605 173.373 530.723 173.358C530.841 173.343 530.936 173.327 531.008 173.312L531.015 174.727C530.861 174.773 530.682 174.814 530.477 174.85C530.277 174.886 530.046 174.904 529.785 174.904C529.359 174.904 528.982 174.829 528.654 174.681C528.326 174.527 528.07 174.278 527.885 173.935C527.701 173.591 527.608 173.135 527.608 172.566V164.391ZM532.119 170.682V170.505C532.119 169.905 532.207 169.349 532.381 168.836C532.555 168.318 532.806 167.87 533.135 167.49C533.468 167.106 533.873 166.808 534.35 166.598C534.832 166.383 535.375 166.275 535.98 166.275C536.59 166.275 537.134 166.383 537.61 166.598C538.092 166.808 538.5 167.106 538.833 167.49C539.166 167.87 539.42 168.318 539.594 168.836C539.769 169.349 539.856 169.905 539.856 170.505V170.682C539.856 171.282 539.769 171.838 539.594 172.351C539.42 172.863 539.166 173.312 538.833 173.696C538.5 174.076 538.095 174.373 537.618 174.589C537.141 174.799 536.6 174.904 535.995 174.904C535.385 174.904 534.839 174.799 534.357 174.589C533.88 174.373 533.475 174.076 533.142 173.696C532.809 173.312 532.555 172.863 532.381 172.351C532.207 171.838 532.119 171.282 532.119 170.682ZM533.973 170.505V170.682C533.973 171.056 534.011 171.41 534.088 171.743C534.165 172.076 534.286 172.369 534.45 172.62C534.614 172.871 534.824 173.068 535.08 173.212C535.337 173.355 535.642 173.427 535.995 173.427C536.339 173.427 536.636 173.355 536.887 173.212C537.144 173.068 537.354 172.871 537.518 172.62C537.682 172.369 537.803 172.076 537.88 171.743C537.962 171.41 538.003 171.056 538.003 170.682V170.505C538.003 170.136 537.962 169.787 537.88 169.459C537.803 169.126 537.68 168.831 537.51 168.575C537.346 168.318 537.136 168.118 536.88 167.975C536.629 167.826 536.329 167.752 535.98 167.752C535.631 167.752 535.329 167.826 535.073 167.975C534.821 168.118 534.614 168.318 534.45 168.575C534.286 168.831 534.165 169.126 534.088 169.459C534.011 169.787 533.973 170.136 533.973 170.505ZM543.529 168.205V174.75H541.675V166.429H543.421L543.529 168.205ZM543.198 170.282L542.598 170.274C542.603 169.685 542.685 169.144 542.844 168.651C543.008 168.159 543.234 167.736 543.521 167.383C543.813 167.029 544.162 166.757 544.567 166.567C544.972 166.373 545.423 166.275 545.92 166.275C546.32 166.275 546.682 166.332 547.005 166.444C547.333 166.552 547.612 166.729 547.843 166.975C548.079 167.221 548.258 167.542 548.381 167.936C548.504 168.326 548.566 168.805 548.566 169.374V174.75H546.705V169.367C546.705 168.967 546.646 168.651 546.528 168.421C546.415 168.185 546.249 168.018 546.028 167.921C545.813 167.818 545.544 167.767 545.221 167.767C544.903 167.767 544.618 167.834 544.367 167.967C544.116 168.1 543.903 168.282 543.729 168.513C543.559 168.744 543.429 169.01 543.336 169.313C543.244 169.615 543.198 169.938 543.198 170.282Z" fill="#3F52DD"/>
</g>
<defs>
<filter id="filter0_d_4354_239382" x="157" y="39.5" width="239.625" height="85.5" filterUnits="userSpaceOnUse" color-interpolation-filters="sRGB">
<feFlood flood-opacity="0" result="BackgroundImageFix"/>
<feColorMatrix in="SourceAlpha" type="matrix" values="0 0 0 0 0 0 0 0 0 0 0 0 0 0 0 0 0 0 127 0" result="hardAlpha"/>
<feOffset dy="4.5"/>
<feGaussianBlur stdDeviation="4.5"/>
<feComposite in2="hardAlpha" operator="out"/>
<feColorMatrix type="matrix" values="0 0 0 0 0 0 0 0 0 0 0 0 0 0 0 0 0 0 0.08 0"/>
<feBlend mode="normal" in2="BackgroundImageFix" result="effect1_dropShadow_4354_239382"/>
<feBlend mode="normal" in="SourceGraphic" in2="effect1_dropShadow_4354_239382" result="shape"/>
</filter>
<filter id="filter1_d_4354_239382" x="405.625" y="39.5" width="239.625" height="85.5" filterUnits="userSpaceOnUse" color-interpolation-filters="sRGB">
<feFlood flood-opacity="0" result="BackgroundImageFix"/>
<feColorMatrix in="SourceAlpha" type="matrix" values="0 0 0 0 0 0 0 0 0 0 0 0 0 0 0 0 0 0 127 0" result="hardAlpha"/>
<feOffset dy="4.5"/>
<feGaussianBlur stdDeviation="4.5"/>
<feComposite in2="hardAlpha" operator="out"/>
<feColorMatrix type="matrix" values="0 0 0 0 0 0 0 0 0 0 0 0 0 0 0 0 0 0 0.08 0"/>
<feBlend mode="normal" in2="BackgroundImageFix" result="effect1_dropShadow_4354_239382"/>
<feBlend mode="normal" in="SourceGraphic" in2="effect1_dropShadow_4354_239382" result="shape"/>
</filter>
<filter id="filter2_d_4354_239382" x="157" y="131" width="239.625" height="85.5" filterUnits="userSpaceOnUse" color-interpolation-filters="sRGB">
<feFlood flood-opacity="0" result="BackgroundImageFix"/>
<feColorMatrix in="SourceAlpha" type="matrix" values="0 0 0 0 0 0 0 0 0 0 0 0 0 0 0 0 0 0 127 0" result="hardAlpha"/>
<feOffset dy="4.5"/>
<feGaussianBlur stdDeviation="4.5"/>
<feComposite in2="hardAlpha" operator="out"/>
<feColorMatrix type="matrix" values="0 0 0 0 0 0 0 0 0 0 0 0 0 0 0 0 0 0 0.08 0"/>
<feBlend mode="normal" in2="BackgroundImageFix" result="effect1_dropShadow_4354_239382"/>
<feBlend mode="normal" in="SourceGraphic" in2="effect1_dropShadow_4354_239382" result="shape"/>
</filter>
<filter id="filter3_d_4354_239382" x="405.625" y="131" width="239.625" height="85.5" filterUnits="userSpaceOnUse" color-interpolation-filters="sRGB">
<feFlood flood-opacity="0" result="BackgroundImageFix"/>
<feColorMatrix in="SourceAlpha" type="matrix" values="0 0 0 0 0 0 0 0 0 0 0 0 0 0 0 0 0 0 127 0" result="hardAlpha"/>
<feOffset dy="4.5"/>
<feGaussianBlur stdDeviation="4.5"/>
<feComposite in2="hardAlpha" operator="out"/>
<feColorMatrix type="matrix" values="0 0 0 0 0 0 0 0 0 0 0 0 0 0 0 0 0 0 0.08 0"/>
<feBlend mode="normal" in2="BackgroundImageFix" result="effect1_dropShadow_4354_239382"/>
<feBlend mode="normal" in="SourceGraphic" in2="effect1_dropShadow_4354_239382" result="shape"/>
</filter>
</defs>
</svg>
