<svg width="802" height="305" viewBox="0 0 802 305" fill="none" xmlns="http://www.w3.org/2000/svg">
<rect width="802" height="305" rx="12" fill="#E7E9EB"/>
<rect x="0.5" y="0.5" width="801" height="304" rx="11.5" stroke="black" stroke-opacity="0.05"/>
<g filter="url(#filter0_d_4354_239993)">
<rect x="229" y="40" width="301" height="66.7632" rx="4.52632" fill="white" shape-rendering="crispEdges"/>
<path d="M264.236 76.0664C264.236 75.8012 264.195 75.5655 264.113 75.3592C264.036 75.1529 263.898 74.9643 263.697 74.7934C263.497 74.6225 263.214 74.4575 262.848 74.2983C262.489 74.1333 262.029 73.9653 261.469 73.7944C260.856 73.6058 260.291 73.3966 259.772 73.1667C259.259 72.931 258.811 72.6599 258.428 72.3534C258.045 72.0411 257.748 71.6845 257.535 71.2837C257.323 70.8771 257.217 70.4085 257.217 69.8781C257.217 69.3536 257.326 68.8762 257.544 68.4459C257.768 68.0157 258.083 67.6444 258.49 67.332C258.903 67.0138 259.389 66.7692 259.949 66.5983C260.509 66.4215 261.128 66.3331 261.805 66.3331C262.76 66.3331 263.582 66.5099 264.272 66.8635C264.967 67.2171 265.501 67.6916 265.872 68.2868C266.249 68.8821 266.438 69.5392 266.438 70.2582H264.236C264.236 69.8339 264.145 69.4596 263.962 69.1355C263.786 68.8055 263.514 68.5461 263.149 68.3575C262.79 68.1689 262.333 68.0746 261.779 68.0746C261.254 68.0746 260.818 68.1542 260.47 68.3133C260.123 68.4725 259.863 68.6876 259.692 68.9587C259.522 69.2298 259.436 69.5363 259.436 69.8781C259.436 70.1197 259.492 70.3407 259.604 70.5411C259.716 70.7356 259.887 70.9183 260.117 71.0892C260.347 71.2543 260.635 71.4104 260.983 71.5578C261.331 71.7051 261.74 71.8466 262.212 71.9821C262.925 72.1943 263.547 72.43 264.077 72.6894C264.608 72.9428 265.05 73.2316 265.403 73.5557C265.757 73.8799 266.022 74.2482 266.199 74.6608C266.376 75.0674 266.464 75.5301 266.464 76.0487C266.464 76.591 266.355 77.0801 266.137 77.5163C265.919 77.9465 265.607 78.3148 265.2 78.6213C264.799 78.9219 264.316 79.1547 263.75 79.3197C263.19 79.4788 262.566 79.5584 261.876 79.5584C261.257 79.5584 260.647 79.4759 260.046 79.3109C259.451 79.1458 258.909 78.8954 258.419 78.5594C257.93 78.2176 257.541 77.7933 257.252 77.2864C256.964 76.7737 256.819 76.1755 256.819 75.4918H259.038C259.038 75.9102 259.109 76.2668 259.25 76.5615C259.398 76.8562 259.601 77.0978 259.86 77.2864C260.12 77.4691 260.42 77.6047 260.762 77.6931C261.11 77.7815 261.481 77.8257 261.876 77.8257C262.395 77.8257 262.828 77.752 263.176 77.6047C263.529 77.4573 263.794 77.251 263.971 76.9858C264.148 76.7206 264.236 76.4141 264.236 76.0664ZM271.097 77.2599L273.307 69.8162H274.668L274.297 72.044L272.069 79.3816H270.849L271.097 77.2599ZM269.797 69.8162L271.521 77.2952L271.662 79.3816H270.301L267.711 69.8162H269.797ZM276.737 77.2068L278.408 69.8162H280.485L277.904 79.3816H276.542L276.737 77.2068ZM274.898 69.8162L277.082 77.1715L277.356 79.3816H276.136L273.881 72.0352L273.51 69.8162H274.898ZM284.499 69.8162V79.3816H282.359V69.8162H284.499ZM282.218 67.3055C282.218 66.9814 282.324 66.7132 282.536 66.501C282.754 66.283 283.055 66.1739 283.438 66.1739C283.815 66.1739 284.113 66.283 284.331 66.501C284.549 66.7132 284.658 66.9814 284.658 67.3055C284.658 67.6238 284.549 67.889 284.331 68.1012C284.113 68.3133 283.815 68.4194 283.438 68.4194C283.055 68.4194 282.754 68.3133 282.536 68.1012C282.324 67.889 282.218 67.6238 282.218 67.3055ZM291.5 69.8162V71.3721H286.108V69.8162H291.5ZM287.664 67.4735H289.794V76.7383C289.794 77.033 289.835 77.2599 289.918 77.419C290.006 77.5722 290.127 77.6754 290.28 77.7284C290.434 77.7815 290.613 77.808 290.82 77.808C290.967 77.808 291.108 77.7991 291.244 77.7815C291.38 77.7638 291.489 77.7461 291.571 77.7284L291.58 79.3551C291.403 79.4081 291.197 79.4553 290.961 79.4965C290.731 79.5378 290.466 79.5584 290.166 79.5584C289.676 79.5584 289.243 79.4729 288.866 79.302C288.489 79.1252 288.194 78.8394 287.982 78.4445C287.77 78.0496 287.664 77.5251 287.664 76.8709V67.4735ZM297.335 77.861C297.683 77.861 297.995 77.7933 298.272 77.6577C298.555 77.5163 298.782 77.3218 298.953 77.0742C299.13 76.8267 299.227 76.5409 299.245 76.2167H301.251C301.24 76.8355 301.057 77.3984 300.703 77.9052C300.35 78.4121 299.881 78.8158 299.298 79.1164C298.714 79.4111 298.069 79.5584 297.362 79.5584C296.631 79.5584 295.994 79.4346 295.452 79.1871C294.91 78.9337 294.459 78.586 294.1 78.1439C293.74 77.7019 293.469 77.1921 293.286 76.6145C293.109 76.037 293.021 75.4181 293.021 74.758V74.4486C293.021 73.7885 293.109 73.1697 293.286 72.5921C293.469 72.0086 293.74 71.4959 294.1 71.0539C294.459 70.6119 294.91 70.2671 295.452 70.0195C295.994 69.7661 296.628 69.6394 297.353 69.6394C298.119 69.6394 298.791 69.7926 299.368 70.0991C299.946 70.3997 300.4 70.8211 300.73 71.3633C301.066 71.8996 301.24 72.5243 301.251 73.2375H299.245C299.227 72.8839 299.139 72.5656 298.979 72.2827C298.826 71.9939 298.608 71.7641 298.325 71.5931C298.048 71.4222 297.715 71.3368 297.326 71.3368C296.896 71.3368 296.539 71.4252 296.257 71.602C295.974 71.7729 295.753 72.0086 295.594 72.3092C295.434 72.6039 295.319 72.9369 295.249 73.3082C295.184 73.6736 295.152 74.0537 295.152 74.4486V74.758C295.152 75.1529 295.184 75.536 295.249 75.9073C295.314 76.2786 295.426 76.6116 295.585 76.9063C295.75 77.1951 295.974 77.4279 296.257 77.6047C296.539 77.7756 296.899 77.861 297.335 77.861ZM305.274 65.8026V79.3816H303.152V65.8026H305.274ZM304.903 74.2453L304.213 74.2364C304.219 73.5764 304.31 72.9664 304.487 72.4065C304.67 71.8466 304.923 71.3603 305.247 70.9478C305.577 70.5293 305.972 70.2081 306.432 69.9842C306.892 69.7543 307.401 69.6394 307.961 69.6394C308.433 69.6394 308.857 69.7042 309.234 69.8339C309.617 69.9636 309.948 70.1728 310.225 70.4616C310.502 70.7445 310.711 71.1158 310.852 71.5755C311 72.0293 311.073 72.5833 311.073 73.2375V79.3816H308.934V73.2198C308.934 72.7601 308.866 72.3947 308.73 72.1236C308.601 71.8525 308.409 71.658 308.156 71.5401C307.902 71.4163 307.593 71.3545 307.228 71.3545C306.845 71.3545 306.506 71.4311 306.211 71.5843C305.922 71.7375 305.681 71.9468 305.486 72.212C305.292 72.4772 305.144 72.7837 305.044 73.1314C304.95 73.4791 304.903 73.8504 304.903 74.2453Z" fill="black" fill-opacity="0.76"/>
<rect x="455.312" y="60.9342" width="47.5263" height="24.8947" rx="12.4474" fill="#5469FF"/>
<circle cx="490.391" cy="73.3816" r="10.1842" fill="white"/>
</g>
<g filter="url(#filter1_d_4354_239993)">
<rect x="229" y="119" width="301" height="66.7632" rx="4.52632" fill="white" shape-rendering="crispEdges"/>
<rect x="256.156" y="139.934" width="47.5263" height="24.8947" rx="12.4474" fill="#5469FF"/>
<circle cx="291.235" cy="152.382" r="10.1842" fill="white"/>
<path d="M320.815 155.066C320.815 154.801 320.773 154.565 320.691 154.359C320.614 154.153 320.476 153.964 320.275 153.793C320.075 153.622 319.792 153.457 319.427 153.298C319.067 153.133 318.607 152.965 318.047 152.794C317.435 152.606 316.869 152.397 316.35 152.167C315.837 151.931 315.389 151.66 315.006 151.353C314.623 151.041 314.326 150.684 314.113 150.284C313.901 149.877 313.795 149.409 313.795 148.878C313.795 148.354 313.904 147.876 314.122 147.446C314.346 147.016 314.662 146.644 315.068 146.332C315.481 146.014 315.967 145.769 316.527 145.598C317.087 145.421 317.706 145.333 318.383 145.333C319.338 145.333 320.16 145.51 320.85 145.863C321.545 146.217 322.079 146.692 322.45 147.287C322.827 147.882 323.016 148.539 323.016 149.258H320.815C320.815 148.834 320.723 148.46 320.541 148.135C320.364 147.805 320.093 147.546 319.727 147.358C319.368 147.169 318.911 147.075 318.357 147.075C317.832 147.075 317.396 147.154 317.049 147.313C316.701 147.472 316.441 147.688 316.271 147.959C316.1 148.23 316.014 148.536 316.014 148.878C316.014 149.12 316.07 149.341 316.182 149.541C316.294 149.736 316.465 149.918 316.695 150.089C316.925 150.254 317.214 150.41 317.561 150.558C317.909 150.705 318.319 150.847 318.79 150.982C319.503 151.194 320.125 151.43 320.655 151.689C321.186 151.943 321.628 152.232 321.981 152.556C322.335 152.88 322.6 153.248 322.777 153.661C322.954 154.067 323.042 154.53 323.042 155.049C323.042 155.591 322.933 156.08 322.715 156.516C322.497 156.946 322.185 157.315 321.778 157.621C321.377 157.922 320.894 158.155 320.328 158.32C319.768 158.479 319.144 158.558 318.454 158.558C317.835 158.558 317.225 158.476 316.624 158.311C316.029 158.146 315.487 157.895 314.998 157.559C314.508 157.218 314.119 156.793 313.831 156.286C313.542 155.774 313.397 155.175 313.397 154.492H315.616C315.616 154.91 315.687 155.267 315.829 155.561C315.976 155.856 316.179 156.098 316.439 156.286C316.698 156.469 316.998 156.605 317.34 156.693C317.688 156.781 318.059 156.826 318.454 156.826C318.973 156.826 319.406 156.752 319.754 156.605C320.107 156.457 320.373 156.251 320.549 155.986C320.726 155.721 320.815 155.414 320.815 155.066ZM327.675 156.26L329.885 148.816H331.246L330.875 151.044L328.647 158.382H327.427L327.675 156.26ZM326.375 148.816L328.099 156.295L328.241 158.382H326.879L324.289 148.816H326.375ZM333.315 156.207L334.986 148.816H337.063L334.482 158.382H333.12L333.315 156.207ZM331.476 148.816L333.66 156.171L333.934 158.382H332.714L330.459 151.035L330.088 148.816H331.476ZM341.077 148.816V158.382H338.937V148.816H341.077ZM338.796 146.306C338.796 145.981 338.902 145.713 339.114 145.501C339.332 145.283 339.633 145.174 340.016 145.174C340.393 145.174 340.691 145.283 340.909 145.501C341.127 145.713 341.236 145.981 341.236 146.306C341.236 146.624 341.127 146.889 340.909 147.101C340.691 147.313 340.393 147.419 340.016 147.419C339.633 147.419 339.332 147.313 339.114 147.101C338.902 146.889 338.796 146.624 338.796 146.306ZM348.079 148.816V150.372H342.686V148.816H348.079ZM344.242 146.473H346.372V155.738C346.372 156.033 346.414 156.26 346.496 156.419C346.584 156.572 346.705 156.675 346.859 156.728C347.012 156.781 347.192 156.808 347.398 156.808C347.545 156.808 347.687 156.799 347.822 156.781C347.958 156.764 348.067 156.746 348.149 156.728L348.158 158.355C347.981 158.408 347.775 158.455 347.539 158.497C347.309 158.538 347.044 158.558 346.744 158.558C346.254 158.558 345.821 158.473 345.444 158.302C345.067 158.125 344.772 157.839 344.56 157.445C344.348 157.05 344.242 156.525 344.242 155.871V146.473ZM353.913 156.861C354.261 156.861 354.573 156.793 354.85 156.658C355.133 156.516 355.36 156.322 355.531 156.074C355.708 155.827 355.805 155.541 355.823 155.217H357.83C357.818 155.836 357.635 156.398 357.281 156.905C356.928 157.412 356.459 157.816 355.876 158.116C355.292 158.411 354.647 158.558 353.94 158.558C353.209 158.558 352.572 158.435 352.03 158.187C351.488 157.934 351.037 157.586 350.678 157.144C350.318 156.702 350.047 156.192 349.864 155.615C349.687 155.037 349.599 154.418 349.599 153.758V153.449C349.599 152.789 349.687 152.17 349.864 151.592C350.047 151.009 350.318 150.496 350.678 150.054C351.037 149.612 351.488 149.267 352.03 149.02C352.572 148.766 353.206 148.639 353.931 148.639C354.697 148.639 355.369 148.793 355.947 149.099C356.524 149.4 356.978 149.821 357.308 150.363C357.644 150.9 357.818 151.524 357.83 152.237H355.823C355.805 151.884 355.717 151.566 355.558 151.283C355.404 150.994 355.186 150.764 354.903 150.593C354.626 150.422 354.293 150.337 353.904 150.337C353.474 150.337 353.118 150.425 352.835 150.602C352.552 150.773 352.331 151.009 352.172 151.309C352.013 151.604 351.898 151.937 351.827 152.308C351.762 152.674 351.73 153.054 351.73 153.449V153.758C351.73 154.153 351.762 154.536 351.827 154.907C351.892 155.279 352.004 155.612 352.163 155.906C352.328 156.195 352.552 156.428 352.835 156.605C353.118 156.776 353.477 156.861 353.913 156.861ZM361.852 144.803V158.382H359.73V144.803H361.852ZM361.481 153.245L360.791 153.236C360.797 152.576 360.888 151.966 361.065 151.406C361.248 150.847 361.501 150.36 361.825 149.948C362.155 149.529 362.55 149.208 363.01 148.984C363.47 148.754 363.98 148.639 364.539 148.639C365.011 148.639 365.435 148.704 365.812 148.834C366.196 148.964 366.526 149.173 366.803 149.462C367.08 149.744 367.289 150.116 367.43 150.575C367.578 151.029 367.651 151.583 367.651 152.237V158.382H365.512V152.22C365.512 151.76 365.444 151.395 365.309 151.124C365.179 150.852 364.987 150.658 364.734 150.54C364.481 150.416 364.171 150.354 363.806 150.354C363.423 150.354 363.084 150.431 362.789 150.584C362.5 150.738 362.259 150.947 362.064 151.212C361.87 151.477 361.722 151.784 361.622 152.131C361.528 152.479 361.481 152.85 361.481 153.245Z" fill="black" fill-opacity="0.76"/>
</g>
<g filter="url(#filter2_d_4354_239993)">
<rect x="229" y="197.763" width="301" height="66.7632" rx="4.52632" fill="white" shape-rendering="crispEdges"/>
<path d="M331.287 233.83C331.287 233.564 331.246 233.329 331.163 233.122C331.087 232.916 330.948 232.727 330.748 232.557C330.548 232.386 330.265 232.221 329.899 232.062C329.54 231.896 329.08 231.729 328.52 231.558C327.907 231.369 327.341 231.16 326.823 230.93C326.31 230.694 325.862 230.423 325.479 230.117C325.096 229.804 324.798 229.448 324.586 229.047C324.374 228.64 324.268 228.172 324.268 227.641C324.268 227.117 324.377 226.639 324.595 226.209C324.819 225.779 325.134 225.408 325.541 225.095C325.953 224.777 326.44 224.532 327 224.361C327.559 224.185 328.178 224.096 328.856 224.096C329.811 224.096 330.633 224.273 331.323 224.627C332.018 224.98 332.551 225.455 332.923 226.05C333.3 226.645 333.488 227.302 333.488 228.021H331.287C331.287 227.597 331.196 227.223 331.013 226.899C330.836 226.569 330.565 226.309 330.2 226.121C329.84 225.932 329.384 225.838 328.83 225.838C328.305 225.838 327.869 225.917 327.521 226.077C327.173 226.236 326.914 226.451 326.743 226.722C326.572 226.993 326.487 227.299 326.487 227.641C326.487 227.883 326.543 228.104 326.655 228.304C326.767 228.499 326.938 228.682 327.168 228.852C327.397 229.017 327.686 229.174 328.034 229.321C328.382 229.468 328.791 229.61 329.263 229.745C329.976 229.957 330.598 230.193 331.128 230.453C331.659 230.706 332.101 230.995 332.454 231.319C332.808 231.643 333.073 232.011 333.25 232.424C333.427 232.831 333.515 233.293 333.515 233.812C333.515 234.354 333.406 234.843 333.188 235.279C332.97 235.71 332.657 236.078 332.251 236.384C331.85 236.685 331.367 236.918 330.801 237.083C330.241 237.242 329.616 237.322 328.927 237.322C328.308 237.322 327.698 237.239 327.097 237.074C326.502 236.909 325.959 236.659 325.47 236.323C324.981 235.981 324.592 235.556 324.303 235.05C324.014 234.537 323.87 233.939 323.87 233.255H326.089C326.089 233.673 326.16 234.03 326.301 234.325C326.449 234.619 326.652 234.861 326.911 235.05C327.171 235.232 327.471 235.368 327.813 235.456C328.161 235.545 328.532 235.589 328.927 235.589C329.445 235.589 329.879 235.515 330.226 235.368C330.58 235.221 330.845 235.014 331.022 234.749C331.199 234.484 331.287 234.177 331.287 233.83ZM338.147 235.023L340.358 227.579H341.719L341.348 229.807L339.12 237.145H337.9L338.147 235.023ZM336.848 227.579L338.572 235.058L338.713 237.145H337.352L334.762 227.579H336.848ZM343.788 234.97L345.458 227.579H347.536L344.955 237.145H343.593L343.788 234.97ZM341.949 227.579L344.132 234.935L344.406 237.145H343.186L340.932 229.798L340.561 227.579H341.949ZM351.55 227.579V237.145H349.41V227.579H351.55ZM349.269 225.069C349.269 224.745 349.375 224.476 349.587 224.264C349.805 224.046 350.106 223.937 350.489 223.937C350.866 223.937 351.164 224.046 351.382 224.264C351.6 224.476 351.709 224.745 351.709 225.069C351.709 225.387 351.6 225.652 351.382 225.864C351.164 226.077 350.866 226.183 350.489 226.183C350.106 226.183 349.805 226.077 349.587 225.864C349.375 225.652 349.269 225.387 349.269 225.069ZM358.551 227.579V229.135H353.159V227.579H358.551ZM354.714 225.237H356.845V234.501C356.845 234.796 356.886 235.023 356.969 235.182C357.057 235.335 357.178 235.439 357.331 235.492C357.484 235.545 357.664 235.571 357.87 235.571C358.018 235.571 358.159 235.562 358.295 235.545C358.43 235.527 358.539 235.509 358.622 235.492L358.631 237.118C358.454 237.171 358.248 237.218 358.012 237.26C357.782 237.301 357.517 237.322 357.216 237.322C356.727 237.322 356.294 237.236 355.917 237.065C355.54 236.888 355.245 236.603 355.033 236.208C354.821 235.813 354.714 235.288 354.714 234.634V225.237ZM364.386 235.624C364.734 235.624 365.046 235.556 365.323 235.421C365.606 235.279 365.833 235.085 366.004 234.837C366.181 234.59 366.278 234.304 366.295 233.98H368.302C368.29 234.599 368.108 235.162 367.754 235.668C367.4 236.175 366.932 236.579 366.348 236.88C365.765 237.174 365.12 237.322 364.412 237.322C363.682 237.322 363.045 237.198 362.503 236.95C361.961 236.697 361.51 236.349 361.15 235.907C360.791 235.465 360.52 234.955 360.337 234.378C360.16 233.8 360.072 233.181 360.072 232.521V232.212C360.072 231.552 360.16 230.933 360.337 230.355C360.52 229.772 360.791 229.259 361.15 228.817C361.51 228.375 361.961 228.03 362.503 227.783C363.045 227.529 363.679 227.403 364.404 227.403C365.17 227.403 365.842 227.556 366.419 227.862C366.997 228.163 367.451 228.584 367.781 229.126C368.117 229.663 368.29 230.288 368.302 231.001H366.295C366.278 230.647 366.189 230.329 366.03 230.046C365.877 229.757 365.659 229.527 365.376 229.356C365.099 229.185 364.766 229.1 364.377 229.1C363.947 229.1 363.59 229.188 363.307 229.365C363.024 229.536 362.803 229.772 362.644 230.072C362.485 230.367 362.37 230.7 362.3 231.071C362.235 231.437 362.202 231.817 362.202 232.212V232.521C362.202 232.916 362.235 233.299 362.3 233.67C362.364 234.042 362.476 234.375 362.635 234.669C362.801 234.958 363.024 235.191 363.307 235.368C363.59 235.539 363.95 235.624 364.386 235.624ZM372.325 223.566V237.145H370.203V223.566H372.325ZM371.953 232.008L371.264 232C371.27 231.34 371.361 230.73 371.538 230.17C371.721 229.61 371.974 229.124 372.298 228.711C372.628 228.293 373.023 227.971 373.483 227.747C373.942 227.518 374.452 227.403 375.012 227.403C375.484 227.403 375.908 227.467 376.285 227.597C376.668 227.727 376.998 227.936 377.275 228.225C377.552 228.508 377.762 228.879 377.903 229.339C378.05 229.792 378.124 230.346 378.124 231.001V237.145H375.985V230.983C375.985 230.523 375.917 230.158 375.781 229.887C375.652 229.616 375.46 229.421 375.207 229.303C374.953 229.18 374.644 229.118 374.278 229.118C373.895 229.118 373.556 229.194 373.262 229.347C372.973 229.501 372.731 229.71 372.537 229.975C372.342 230.24 372.195 230.547 372.095 230.895C372 231.242 371.953 231.614 371.953 232.008Z" fill="black" fill-opacity="0.76"/>
<rect x="388.262" y="218.697" width="47.5263" height="24.8947" rx="12.4474" fill="#5469FF"/>
<circle cx="423.34" cy="231.145" r="10.1842" fill="white"/>
</g>
<defs>
<filter id="filter0_d_4354_239993" x="219.947" y="35.4737" width="319.105" height="84.8684" filterUnits="userSpaceOnUse" color-interpolation-filters="sRGB">
<feFlood flood-opacity="0" result="BackgroundImageFix"/>
<feColorMatrix in="SourceAlpha" type="matrix" values="0 0 0 0 0 0 0 0 0 0 0 0 0 0 0 0 0 0 127 0" result="hardAlpha"/>
<feOffset dy="4.52632"/>
<feGaussianBlur stdDeviation="4.52632"/>
<feComposite in2="hardAlpha" operator="out"/>
<feColorMatrix type="matrix" values="0 0 0 0 0 0 0 0 0 0 0 0 0 0 0 0 0 0 0.04 0"/>
<feBlend mode="normal" in2="BackgroundImageFix" result="effect1_dropShadow_4354_239993"/>
<feBlend mode="normal" in="SourceGraphic" in2="effect1_dropShadow_4354_239993" result="shape"/>
</filter>
<filter id="filter1_d_4354_239993" x="219.947" y="114.474" width="319.105" height="84.8684" filterUnits="userSpaceOnUse" color-interpolation-filters="sRGB">
<feFlood flood-opacity="0" result="BackgroundImageFix"/>
<feColorMatrix in="SourceAlpha" type="matrix" values="0 0 0 0 0 0 0 0 0 0 0 0 0 0 0 0 0 0 127 0" result="hardAlpha"/>
<feOffset dy="4.52632"/>
<feGaussianBlur stdDeviation="4.52632"/>
<feComposite in2="hardAlpha" operator="out"/>
<feColorMatrix type="matrix" values="0 0 0 0 0 0 0 0 0 0 0 0 0 0 0 0 0 0 0.04 0"/>
<feBlend mode="normal" in2="BackgroundImageFix" result="effect1_dropShadow_4354_239993"/>
<feBlend mode="normal" in="SourceGraphic" in2="effect1_dropShadow_4354_239993" result="shape"/>
</filter>
<filter id="filter2_d_4354_239993" x="219.947" y="193.237" width="319.105" height="84.8684" filterUnits="userSpaceOnUse" color-interpolation-filters="sRGB">
<feFlood flood-opacity="0" result="BackgroundImageFix"/>
<feColorMatrix in="SourceAlpha" type="matrix" values="0 0 0 0 0 0 0 0 0 0 0 0 0 0 0 0 0 0 127 0" result="hardAlpha"/>
<feOffset dy="4.52632"/>
<feGaussianBlur stdDeviation="4.52632"/>
<feComposite in2="hardAlpha" operator="out"/>
<feColorMatrix type="matrix" values="0 0 0 0 0 0 0 0 0 0 0 0 0 0 0 0 0 0 0.04 0"/>
<feBlend mode="normal" in2="BackgroundImageFix" result="effect1_dropShadow_4354_239993"/>
<feBlend mode="normal" in="SourceGraphic" in2="effect1_dropShadow_4354_239993" result="shape"/>
</filter>
</defs>
</svg>
