<svg width="802" height="248" viewBox="0 0 802 248" fill="none" xmlns="http://www.w3.org/2000/svg">
<rect width="802" height="248" rx="12" fill="#E7E9EB"/>
<rect x="0.5" y="0.5" width="801" height="247" rx="11.5" stroke="black" stroke-opacity="0.05"/>
<g clip-path="url(#clip0_4354_239357)">
<path d="M383.875 40H45.25C42.3505 40 40 42.3505 40 45.25V202.75C40 205.649 42.3505 208 45.25 208H383.875C386.775 208 389.125 205.649 389.125 202.75V45.25C389.125 42.3505 386.775 40 383.875 40Z" fill="white"/>
<path d="M77.3569 89.25H74.1679L74.1884 87.2095H77.3569C78.2797 87.2095 79.0522 87.0078 79.6743 86.6045C80.3032 86.2012 80.7748 85.6235 81.0893 84.8716C81.4106 84.1196 81.5712 83.2241 81.5712 82.1851V81.375C81.5712 80.5684 81.479 79.854 81.2944 79.2319C81.1166 78.6099 80.85 78.0869 80.4946 77.6631C80.1459 77.2393 79.7153 76.918 79.2026 76.6992C78.6967 76.4805 78.1123 76.3711 77.4492 76.3711H74.1064V74.3203H77.4492C78.4404 74.3203 79.3461 74.4878 80.1665 74.8228C80.9868 75.1509 81.6943 75.626 82.289 76.248C82.8906 76.8701 83.352 77.6152 83.6733 78.4834C83.9946 79.3516 84.1552 80.3223 84.1552 81.3955V82.1851C84.1552 83.2583 83.9946 84.229 83.6733 85.0972C83.352 85.9653 82.8906 86.7104 82.289 87.3325C81.6874 87.9478 80.9697 88.4229 80.1357 88.7578C79.3085 89.0859 78.3823 89.25 77.3569 89.25ZM75.5932 74.3203V89.25H73.0195V74.3203H75.5932ZM86.3496 83.8257V83.5898C86.3496 82.79 86.4658 82.0483 86.6982 81.3647C86.9306 80.6743 87.2656 80.0762 87.7031 79.5703C88.1474 79.0576 88.6874 78.6611 89.3232 78.3809C89.9658 78.0938 90.6904 77.9502 91.497 77.9502C92.3105 77.9502 93.0351 78.0938 93.6708 78.3809C94.3134 78.6611 94.8569 79.0576 95.3012 79.5703C95.7456 80.0762 96.0839 80.6743 96.3164 81.3647C96.5488 82.0483 96.665 82.79 96.665 83.5898V83.8257C96.665 84.6255 96.5488 85.3672 96.3164 86.0508C96.0839 86.7344 95.7456 87.3325 95.3012 87.8452C94.8569 88.3511 94.3168 88.7476 93.6811 89.0347C93.0454 89.3149 92.3242 89.4551 91.5175 89.4551C90.704 89.4551 89.976 89.3149 89.3334 89.0347C88.6977 88.7476 88.1577 88.3511 87.7133 87.8452C87.269 87.3325 86.9306 86.7344 86.6982 86.0508C86.4658 85.3672 86.3496 84.6255 86.3496 83.8257ZM88.8207 83.5898V83.8257C88.8207 84.3247 88.872 84.7964 88.9746 85.2407C89.0771 85.6851 89.2377 86.0747 89.4565 86.4097C89.6752 86.7446 89.9555 87.0078 90.2973 87.1992C90.6391 87.3906 91.0458 87.4863 91.5175 87.4863C91.9755 87.4863 92.372 87.3906 92.707 87.1992C93.0488 87.0078 93.329 86.7446 93.5478 86.4097C93.7665 86.0747 93.9272 85.6851 94.0297 85.2407C94.1391 84.7964 94.1938 84.3247 94.1938 83.8257V83.5898C94.1938 83.0977 94.1391 82.6328 94.0297 82.1953C93.9272 81.751 93.7631 81.3579 93.5375 81.0161C93.3188 80.6743 93.0385 80.4077 92.6967 80.2163C92.3618 80.0181 91.9619 79.9189 91.497 79.9189C91.0322 79.9189 90.6289 80.0181 90.2871 80.2163C89.9521 80.4077 89.6752 80.6743 89.4565 81.0161C89.2377 81.3579 89.0771 81.751 88.9746 82.1953C88.872 82.6328 88.8207 83.0977 88.8207 83.5898ZM98.5927 83.8257V83.5898C98.5927 82.79 98.7089 82.0483 98.9414 81.3647C99.1738 80.6743 99.5087 80.0762 99.9462 79.5703C100.391 79.0576 100.931 78.6611 101.566 78.3809C102.209 78.0938 102.934 77.9502 103.74 77.9502C104.554 77.9502 105.278 78.0938 105.914 78.3809C106.557 78.6611 107.1 79.0576 107.544 79.5703C107.989 80.0762 108.327 80.6743 108.56 81.3647C108.792 82.0483 108.908 82.79 108.908 83.5898V83.8257C108.908 84.6255 108.792 85.3672 108.56 86.0508C108.327 86.7344 107.989 87.3325 107.544 87.8452C107.1 88.3511 106.56 88.7476 105.924 89.0347C105.289 89.3149 104.567 89.4551 103.761 89.4551C102.947 89.4551 102.219 89.3149 101.577 89.0347C100.941 88.7476 100.401 88.3511 99.9565 87.8452C99.5122 87.3325 99.1738 86.7344 98.9414 86.0508C98.7089 85.3672 98.5927 84.6255 98.5927 83.8257ZM101.064 83.5898V83.8257C101.064 84.3247 101.115 84.7964 101.218 85.2407C101.32 85.6851 101.481 86.0747 101.7 86.4097C101.918 86.7446 102.199 87.0078 102.541 87.1992C102.882 87.3906 103.289 87.4863 103.761 87.4863C104.219 87.4863 104.615 87.3906 104.95 87.1992C105.292 87.0078 105.572 86.7446 105.791 86.4097C106.01 86.0747 106.17 85.6851 106.273 85.2407C106.382 84.7964 106.437 84.3247 106.437 83.8257V83.5898C106.437 83.0977 106.382 82.6328 106.273 82.1953C106.17 81.751 106.006 81.3579 105.781 81.0161C105.562 80.6743 105.282 80.4077 104.94 80.2163C104.605 80.0181 104.205 79.9189 103.74 79.9189C103.275 79.9189 102.872 80.0181 102.53 80.2163C102.195 80.4077 101.918 80.6743 101.7 81.0161C101.481 81.3579 101.32 81.751 101.218 82.1953C101.115 82.6328 101.064 83.0977 101.064 83.5898ZM113.789 80.2676V89.25H111.318V78.1553H113.676L113.789 80.2676ZM117.183 78.0835L117.163 80.3804C117.012 80.353 116.848 80.3325 116.67 80.3188C116.5 80.3052 116.329 80.2983 116.158 80.2983C115.734 80.2983 115.361 80.3599 115.04 80.4829C114.719 80.5991 114.449 80.77 114.23 80.9956C114.018 81.2144 113.854 81.481 113.738 81.7954C113.622 82.1099 113.553 82.4619 113.533 82.8516L112.969 82.8926C112.969 82.1953 113.037 81.5493 113.174 80.9546C113.311 80.3599 113.516 79.8369 113.789 79.3857C114.069 78.9346 114.418 78.5825 114.835 78.3296C115.259 78.0767 115.748 77.9502 116.301 77.9502C116.452 77.9502 116.612 77.9639 116.783 77.9912C116.961 78.0186 117.094 78.0493 117.183 78.0835Z" fill="black" fill-opacity="0.87"/>
<g filter="url(#filter0_d_4354_239357)">
<path d="M352.375 108.906H76.75C74.2129 108.906 72.1562 110.963 72.1562 113.5V171.25C72.1562 173.787 74.2129 175.844 76.75 175.844H352.375C354.912 175.844 356.968 173.787 356.968 171.25V113.5C356.968 110.963 354.912 108.906 352.375 108.906Z" stroke="#198038" stroke-width="1.3125"/>
<path d="M187.312 127.938C183.691 127.938 180.751 130.878 180.751 134.5V137.125H168.939C168.242 137.125 167.575 137.402 167.082 137.894C166.59 138.386 166.312 139.054 166.312 139.75V152.875C166.312 153.571 166.59 154.239 167.082 154.731C167.575 155.223 168.242 155.5 168.939 155.5H184.689C186.145 155.5 187.312 154.332 187.312 152.875V139.75C187.312 139.054 187.037 138.386 186.545 137.894C186.052 137.402 185.385 137.125 184.689 137.125H183.376V134.5C183.376 132.321 185.135 130.562 187.312 130.562C189.491 130.562 191.251 132.321 191.251 134.5V137.125H193.876V134.5C193.876 130.878 190.935 127.938 187.312 127.938ZM176.812 143.688C177.51 143.688 178.177 143.964 178.67 144.456C179.162 144.949 179.439 145.616 179.439 146.312C179.439 147.769 178.27 148.938 176.812 148.938C176.117 148.938 175.449 148.661 174.956 148.169C174.464 147.676 174.189 147.009 174.189 146.312C174.189 145.616 174.464 144.949 174.956 144.456C175.449 143.964 176.117 143.688 176.812 143.688Z" fill="#198038"/>
<path d="M212.217 140.984V141.702C212.217 142.689 212.088 143.574 211.831 144.358C211.574 145.141 211.206 145.808 210.728 146.359C210.255 146.909 209.687 147.331 209.023 147.624C208.359 147.911 207.623 148.054 206.816 148.054C206.014 148.054 205.281 147.911 204.617 147.624C203.96 147.331 203.388 146.909 202.904 146.359C202.419 145.808 202.042 145.141 201.773 144.358C201.51 143.574 201.379 142.689 201.379 141.702V140.984C201.379 139.997 201.51 139.115 201.773 138.338C202.036 137.554 202.407 136.887 202.886 136.337C203.37 135.78 203.942 135.359 204.6 135.072C205.263 134.779 205.996 134.632 206.798 134.632C207.605 134.632 208.341 134.779 209.005 135.072C209.669 135.359 210.24 135.78 210.719 136.337C211.197 136.887 211.565 137.554 211.822 138.338C212.085 139.115 212.217 139.997 212.217 140.984ZM209.965 141.702V140.966C209.965 140.237 209.893 139.594 209.75 139.037C209.612 138.475 209.406 138.006 209.13 137.629C208.861 137.246 208.529 136.959 208.135 136.767C207.74 136.57 207.294 136.471 206.798 136.471C206.301 136.471 205.859 136.57 205.47 136.767C205.081 136.959 204.749 137.246 204.474 137.629C204.205 138.006 203.998 138.475 203.855 139.037C203.711 139.594 203.64 140.237 203.64 140.966V141.702C203.64 142.432 203.711 143.078 203.855 143.64C203.998 144.202 204.208 144.678 204.483 145.067C204.764 145.45 205.099 145.74 205.488 145.937C205.877 146.128 206.319 146.224 206.816 146.224C207.318 146.224 207.764 146.128 208.153 145.937C208.541 145.74 208.87 145.45 209.139 145.067C209.409 144.678 209.612 144.202 209.75 143.64C209.893 143.078 209.965 142.432 209.965 141.702ZM216.753 140.033V151.607H214.591V138.167H216.583L216.753 140.033ZM223.078 142.931V143.12C223.078 143.826 222.995 144.481 222.827 145.085C222.666 145.683 222.423 146.206 222.1 146.655C221.783 147.097 221.392 147.441 220.925 147.687C220.458 147.932 219.92 148.054 219.31 148.054C218.706 148.054 218.177 147.944 217.722 147.722C217.273 147.495 216.894 147.175 216.583 146.762C216.271 146.35 216.02 145.865 215.829 145.309C215.643 144.747 215.512 144.131 215.434 143.461V142.734C215.512 142.022 215.643 141.376 215.829 140.796C216.02 140.216 216.271 139.716 216.583 139.298C216.894 138.879 217.273 138.556 217.722 138.329C218.171 138.101 218.694 137.988 219.292 137.988C219.902 137.988 220.444 138.107 220.916 138.347C221.389 138.58 221.786 138.915 222.109 139.351C222.432 139.782 222.675 140.302 222.836 140.913C222.998 141.517 223.078 142.19 223.078 142.931ZM220.916 143.12V142.931C220.916 142.483 220.874 142.067 220.79 141.684C220.707 141.295 220.575 140.954 220.396 140.661C220.216 140.368 219.986 140.141 219.705 139.979C219.43 139.812 219.098 139.728 218.709 139.728C218.326 139.728 217.997 139.794 217.722 139.926C217.447 140.051 217.217 140.228 217.031 140.455C216.846 140.682 216.702 140.948 216.6 141.254C216.499 141.553 216.427 141.879 216.385 142.232V143.972C216.457 144.403 216.58 144.798 216.753 145.156C216.926 145.515 217.172 145.802 217.489 146.018C217.812 146.227 218.224 146.332 218.727 146.332C219.116 146.332 219.448 146.248 219.723 146.081C219.998 145.913 220.222 145.683 220.396 145.39C220.575 145.091 220.707 144.747 220.79 144.358C220.874 143.969 220.916 143.556 220.916 143.12ZM229.526 148.054C228.808 148.054 228.159 147.938 227.579 147.705C227.004 147.465 226.514 147.133 226.107 146.709C225.706 146.284 225.398 145.784 225.183 145.21C224.968 144.636 224.86 144.017 224.86 143.353V142.994C224.86 142.234 224.971 141.547 225.192 140.931C225.413 140.314 225.721 139.788 226.116 139.351C226.511 138.909 226.977 138.571 227.516 138.338C228.054 138.104 228.637 137.988 229.265 137.988C229.959 137.988 230.566 138.104 231.087 138.338C231.607 138.571 232.038 138.9 232.379 139.324C232.726 139.743 232.983 140.243 233.15 140.823C233.324 141.403 233.41 142.043 233.41 142.743V143.667H225.91V142.115H231.275V141.944C231.263 141.556 231.185 141.191 231.042 140.85C230.904 140.509 230.692 140.234 230.405 140.024C230.118 139.815 229.735 139.71 229.256 139.71C228.897 139.71 228.577 139.788 228.296 139.944C228.021 140.093 227.791 140.311 227.605 140.599C227.42 140.886 227.276 141.233 227.175 141.639C227.079 142.04 227.031 142.492 227.031 142.994V143.353C227.031 143.778 227.088 144.172 227.202 144.537C227.321 144.896 227.495 145.21 227.722 145.479C227.949 145.749 228.225 145.961 228.548 146.116C228.871 146.266 229.238 146.341 229.651 146.341C230.172 146.341 230.635 146.236 231.042 146.027C231.449 145.817 231.801 145.521 232.101 145.138L233.24 146.242C233.031 146.547 232.758 146.84 232.424 147.121C232.089 147.396 231.679 147.621 231.194 147.794C230.716 147.968 230.16 148.054 229.526 148.054ZM237.57 140.24V147.875H235.407V138.167H237.444L237.57 140.24ZM237.184 142.662L236.484 142.653C236.49 141.965 236.586 141.334 236.771 140.76C236.963 140.186 237.226 139.692 237.561 139.28C237.902 138.867 238.308 138.55 238.781 138.329C239.253 138.101 239.78 137.988 240.36 137.988C240.827 137.988 241.248 138.053 241.625 138.185C242.008 138.311 242.334 138.517 242.603 138.804C242.878 139.091 243.088 139.465 243.231 139.926C243.375 140.38 243.446 140.94 243.446 141.603V147.875H241.275V141.594C241.275 141.128 241.206 140.76 241.069 140.491C240.937 140.216 240.743 140.021 240.486 139.908C240.234 139.788 239.92 139.728 239.544 139.728C239.173 139.728 238.841 139.806 238.548 139.961C238.255 140.117 238.006 140.329 237.803 140.599C237.606 140.868 237.453 141.179 237.345 141.532C237.238 141.885 237.184 142.261 237.184 142.662ZM250.261 148.054C249.544 148.054 248.895 147.938 248.315 147.705C247.74 147.465 247.25 147.133 246.843 146.709C246.442 146.284 246.134 145.784 245.919 145.21C245.704 144.636 245.596 144.017 245.596 143.353V142.994C245.596 142.234 245.707 141.547 245.928 140.931C246.149 140.314 246.457 139.788 246.852 139.351C247.247 138.909 247.713 138.571 248.252 138.338C248.79 138.104 249.373 137.988 250.001 137.988C250.695 137.988 251.302 138.104 251.823 138.338C252.343 138.571 252.774 138.9 253.115 139.324C253.462 139.743 253.719 140.243 253.886 140.823C254.06 141.403 254.146 142.043 254.146 142.743V143.667H246.646V142.115H252.011V141.944C251.999 141.556 251.921 141.191 251.778 140.85C251.64 140.509 251.428 140.234 251.141 140.024C250.854 139.815 250.471 139.71 249.992 139.71C249.633 139.71 249.313 139.788 249.032 139.944C248.757 140.093 248.527 140.311 248.341 140.599C248.156 140.886 248.012 141.233 247.911 141.639C247.815 142.04 247.767 142.492 247.767 142.994V143.353C247.767 143.778 247.824 144.172 247.938 144.537C248.057 144.896 248.231 145.21 248.458 145.479C248.685 145.749 248.961 145.961 249.284 146.116C249.607 146.266 249.974 146.341 250.387 146.341C250.907 146.341 251.371 146.236 251.778 146.027C252.185 145.817 252.537 145.521 252.836 145.138L253.976 146.242C253.767 146.547 253.494 146.84 253.159 147.121C252.825 147.396 252.415 147.621 251.93 147.794C251.452 147.968 250.896 148.054 250.261 148.054ZM262.083 145.865V134.094H264.254V147.875H262.289L262.083 145.865ZM255.767 143.129V142.94C255.767 142.205 255.853 141.535 256.027 140.931C256.2 140.32 256.451 139.797 256.78 139.36C257.109 138.918 257.51 138.58 257.983 138.347C258.455 138.107 258.988 137.988 259.58 137.988C260.166 137.988 260.68 138.101 261.123 138.329C261.566 138.556 261.942 138.882 262.253 139.307C262.564 139.725 262.813 140.228 262.998 140.814C263.184 141.394 263.315 142.04 263.393 142.752V143.353C263.315 144.047 263.184 144.681 262.998 145.255C262.813 145.829 262.564 146.326 262.253 146.745C261.942 147.163 261.563 147.486 261.114 147.714C260.671 147.941 260.154 148.054 259.562 148.054C258.976 148.054 258.446 147.932 257.974 147.687C257.507 147.441 257.109 147.097 256.78 146.655C256.451 146.212 256.2 145.692 256.027 145.094C255.853 144.49 255.767 143.835 255.767 143.129ZM257.929 142.94V143.129C257.929 143.571 257.968 143.984 258.045 144.367C258.129 144.75 258.258 145.088 258.431 145.381C258.605 145.668 258.829 145.895 259.104 146.063C259.385 146.224 259.72 146.305 260.109 146.305C260.6 146.305 261.003 146.197 261.32 145.982C261.637 145.767 261.886 145.476 262.065 145.112C262.25 144.741 262.376 144.328 262.442 143.873V142.249C262.406 141.897 262.331 141.568 262.218 141.263C262.11 140.957 261.963 140.691 261.778 140.464C261.592 140.231 261.362 140.051 261.087 139.926C260.818 139.794 260.498 139.728 260.127 139.728C259.732 139.728 259.397 139.812 259.122 139.979C258.847 140.147 258.62 140.377 258.44 140.67C258.267 140.963 258.138 141.304 258.054 141.693C257.971 142.082 257.929 142.498 257.929 142.94Z" fill="#198038"/>
</g>
</g>
<rect x="411" y="40" width="351" height="168" rx="5.28125" fill="white"/>
<path d="M448.577 88.9062H445.369L445.39 86.8536H448.577C449.506 86.8536 450.283 86.6507 450.909 86.245C451.541 85.8393 452.016 85.2582 452.332 84.5018C452.655 83.7453 452.817 82.8445 452.817 81.7993V80.9844C452.817 80.1729 452.724 79.4543 452.538 78.8286C452.359 78.2028 452.091 77.6767 451.734 77.2504C451.383 76.824 450.95 76.5008 450.434 76.2808C449.925 76.0607 449.337 75.9507 448.67 75.9507H445.307V73.8877H448.67C449.667 73.8877 450.578 74.0562 451.404 74.3931C452.229 74.7232 452.941 75.2011 453.539 75.8269C454.144 76.4527 454.608 77.2022 454.931 78.0756C455.255 78.9489 455.416 79.9254 455.416 81.005V81.7993C455.416 82.8789 455.255 83.8554 454.931 84.7287C454.608 85.602 454.144 86.3516 453.539 86.9774C452.934 87.5963 452.212 88.0742 451.373 88.4111C450.541 88.7412 449.609 88.9062 448.577 88.9062ZM446.803 73.8877V88.9062H444.214V73.8877H446.803ZM457.624 83.4496V83.2124C457.624 82.4078 457.74 81.6617 457.974 80.9741C458.208 80.2795 458.545 79.6778 458.985 79.1689C459.432 78.6532 459.975 78.2544 460.615 77.9724C461.261 77.6836 461.99 77.5392 462.802 77.5392C463.62 77.5392 464.349 77.6836 464.988 77.9724C465.635 78.2544 466.182 78.6532 466.628 79.1689C467.075 79.6778 467.416 80.2795 467.65 80.9741C467.883 81.6617 468 82.4078 468 83.2124V83.4496C468 84.2542 467.883 85.0003 467.65 85.688C467.416 86.3757 467.075 86.9774 466.628 87.4931C466.182 88.002 465.638 88.4008 464.999 88.6896C464.359 88.9716 463.634 89.1125 462.822 89.1125C462.004 89.1125 461.272 88.9716 460.625 88.6896C459.986 88.4008 459.442 88.002 458.995 87.4931C458.548 86.9774 458.208 86.3757 457.974 85.688C457.74 85.0003 457.624 84.2542 457.624 83.4496ZM460.109 83.2124V83.4496C460.109 83.9516 460.161 84.4261 460.264 84.8731C460.367 85.3201 460.529 85.7121 460.749 86.049C460.969 86.386 461.251 86.6507 461.595 86.8433C461.939 87.0358 462.348 87.1321 462.822 87.1321C463.283 87.1321 463.682 87.0358 464.019 86.8433C464.363 86.6507 464.645 86.386 464.865 86.049C465.085 85.7121 465.246 85.3201 465.349 84.8731C465.459 84.4261 465.514 83.9516 465.514 83.4496V83.2124C465.514 82.7173 465.459 82.2497 465.349 81.8096C465.246 81.3626 465.081 80.9672 464.854 80.6234C464.634 80.2795 464.352 80.0113 464.008 79.8188C463.672 79.6194 463.269 79.5197 462.802 79.5197C462.334 79.5197 461.928 79.6194 461.584 79.8188C461.248 80.0113 460.969 80.2795 460.749 80.6234C460.529 80.9672 460.367 81.3626 460.264 81.8096C460.161 82.2497 460.109 82.7173 460.109 83.2124ZM469.94 83.4496V83.2124C469.94 82.4078 470.056 81.6617 470.29 80.9741C470.524 80.2795 470.861 79.6778 471.301 79.1689C471.748 78.6532 472.291 78.2544 472.931 77.9724C473.577 77.6836 474.306 77.5392 475.118 77.5392C475.936 77.5392 476.665 77.6836 477.304 77.9724C477.951 78.2544 478.498 78.6532 478.945 79.1689C479.392 79.6778 479.732 80.2795 479.966 80.9741C480.2 81.6617 480.316 82.4078 480.316 83.2124V83.4496C480.316 84.2542 480.2 85.0003 479.966 85.688C479.732 86.3757 479.392 86.9774 478.945 87.4931C478.498 88.002 477.954 88.4008 477.315 88.6896C476.675 88.9716 475.95 89.1125 475.138 89.1125C474.32 89.1125 473.588 88.9716 472.941 88.6896C472.302 88.4008 471.758 88.002 471.311 87.4931C470.864 86.9774 470.524 86.3757 470.29 85.688C470.056 85.0003 469.94 84.2542 469.94 83.4496ZM472.425 83.2124V83.4496C472.425 83.9516 472.477 84.4261 472.58 84.8731C472.683 85.3201 472.845 85.7121 473.065 86.049C473.285 86.386 473.567 86.6507 473.911 86.8433C474.255 87.0358 474.664 87.1321 475.138 87.1321C475.599 87.1321 475.998 87.0358 476.335 86.8433C476.679 86.6507 476.961 86.386 477.181 86.049C477.401 85.7121 477.562 85.3201 477.665 84.8731C477.775 84.4261 477.831 83.9516 477.831 83.4496V83.2124C477.831 82.7173 477.775 82.2497 477.665 81.8096C477.562 81.3626 477.397 80.9672 477.17 80.6234C476.95 80.2795 476.668 80.0113 476.325 79.8188C475.988 79.6194 475.585 79.5197 475.118 79.5197C474.65 79.5197 474.244 79.6194 473.901 79.8188C473.564 80.0113 473.285 80.2795 473.065 80.6234C472.845 80.9672 472.683 81.3626 472.58 81.8096C472.477 82.2497 472.425 82.7173 472.425 83.2124ZM485.226 79.8704V88.9062H482.74V77.7455H485.113L485.226 79.8704ZM488.641 77.6733L488.62 79.9838C488.469 79.9563 488.304 79.9357 488.125 79.9219C487.953 79.9082 487.781 79.9013 487.609 79.9013C487.183 79.9013 486.808 79.9632 486.485 80.087C486.162 80.2039 485.89 80.3758 485.67 80.6027C485.457 80.8228 485.292 81.091 485.175 81.4073C485.058 81.7236 484.989 82.0778 484.968 82.4697L484.401 82.511C484.401 81.8096 484.47 81.1597 484.607 80.5615C484.745 79.9632 484.951 79.4371 485.226 78.9833C485.508 78.5294 485.859 78.1753 486.278 77.9208C486.705 77.6664 487.196 77.5392 487.753 77.5392C487.905 77.5392 488.066 77.5529 488.238 77.5804C488.417 77.6079 488.551 77.6389 488.641 77.6733Z" fill="black" fill-opacity="0.87"/>
<mask id="path-10-inside-1_4354_239357" fill="white">
<path d="M442.688 113.438C442.688 110.521 445.052 108.156 447.969 108.156H725.234C728.151 108.156 730.516 110.521 730.516 113.438V171.531C730.516 174.448 728.151 176.813 725.234 176.813H447.969C445.052 176.813 442.688 174.448 442.688 171.531V113.438Z"/>
</mask>
<path d="M442.688 113.438C442.688 110.521 445.052 108.156 447.969 108.156H725.234C728.151 108.156 730.516 110.521 730.516 113.438V171.531C730.516 174.448 728.151 176.813 725.234 176.813H447.969C445.052 176.813 442.688 174.448 442.688 171.531V113.438Z" fill="#D12730"/>
<path d="M442.688 108.156H730.516H442.688ZM730.516 171.531C730.516 175.906 726.969 179.453 722.594 179.453H450.609C446.234 179.453 442.688 175.906 442.688 171.531V171.531C442.688 172.99 445.052 174.172 447.969 174.172H725.234C728.151 174.172 730.516 172.99 730.516 171.531V171.531ZM442.688 176.813V108.156V176.813ZM730.516 108.156V176.813V108.156Z" fill="#D12730" mask="url(#path-10-inside-1_4354_239357)"/>
<g clip-path="url(#clip1_4354_239357)">
<path d="M562.383 137.203H561.063V134.563C561.063 130.918 558.105 127.961 554.461 127.961C550.817 127.961 547.859 130.918 547.859 134.563V137.203H546.539C545.087 137.203 543.898 138.391 543.898 139.844V153.047C543.898 154.499 545.087 155.688 546.539 155.688H562.383C563.835 155.688 565.023 154.499 565.023 153.047V139.844C565.023 138.391 563.835 137.203 562.383 137.203ZM554.461 149.086C553.009 149.086 551.82 147.898 551.82 146.445C551.82 144.993 553.009 143.805 554.461 143.805C555.913 143.805 557.102 144.993 557.102 146.445C557.102 147.898 555.913 149.086 554.461 149.086ZM558.554 137.203H550.368V134.563C550.368 132.305 552.203 130.47 554.461 130.47C556.719 130.47 558.554 132.305 558.554 134.563V137.203Z" fill="white"/>
</g>
<path d="M584.802 144.706H587.058C586.986 145.567 586.745 146.334 586.336 147.008C585.927 147.676 585.352 148.202 584.612 148.587C583.872 148.972 582.972 149.165 581.913 149.165C581.101 149.165 580.37 149.02 579.72 148.732C579.07 148.437 578.514 148.022 578.05 147.486C577.587 146.945 577.232 146.292 576.985 145.528C576.745 144.763 576.624 143.909 576.624 142.964V141.872C576.624 140.928 576.748 140.073 576.994 139.309C577.247 138.545 577.608 137.892 578.078 137.35C578.547 136.803 579.109 136.385 579.765 136.096C580.427 135.807 581.17 135.663 581.995 135.663C583.042 135.663 583.926 135.855 584.648 136.24C585.37 136.625 585.93 137.158 586.327 137.838C586.73 138.518 586.977 139.297 587.067 140.175H584.811C584.75 139.61 584.618 139.125 584.414 138.722C584.215 138.319 583.92 138.012 583.529 137.802C583.138 137.585 582.626 137.477 581.995 137.477C581.477 137.477 581.026 137.573 580.641 137.766C580.256 137.958 579.934 138.241 579.675 138.614C579.416 138.987 579.221 139.447 579.088 139.995C578.962 140.536 578.899 141.156 578.899 141.854V142.964C578.899 143.626 578.956 144.228 579.07 144.769C579.191 145.305 579.371 145.765 579.612 146.15C579.859 146.535 580.171 146.833 580.551 147.044C580.93 147.254 581.384 147.36 581.913 147.36C582.557 147.36 583.078 147.257 583.475 147.053C583.878 146.848 584.182 146.55 584.386 146.159C584.597 145.762 584.735 145.278 584.802 144.706ZM591.558 135.121V148.984H589.374V135.121H591.558ZM593.856 144.21V144.002C593.856 143.298 593.958 142.645 594.162 142.044C594.367 141.436 594.662 140.909 595.047 140.464C595.438 140.013 595.913 139.664 596.473 139.417C597.039 139.165 597.676 139.038 598.386 139.038C599.102 139.038 599.74 139.165 600.3 139.417C600.865 139.664 601.344 140.013 601.735 140.464C602.126 140.909 602.424 141.436 602.628 142.044C602.833 142.645 602.935 143.298 602.935 144.002V144.21C602.935 144.914 602.833 145.567 602.628 146.168C602.424 146.77 602.126 147.297 601.735 147.748C601.344 148.193 600.868 148.542 600.309 148.795C599.749 149.042 599.114 149.165 598.404 149.165C597.688 149.165 597.048 149.042 596.482 148.795C595.922 148.542 595.447 148.193 595.056 147.748C594.665 147.297 594.367 146.77 594.162 146.168C593.958 145.567 593.856 144.914 593.856 144.21ZM596.031 144.002V144.21C596.031 144.649 596.076 145.064 596.166 145.455C596.256 145.846 596.398 146.189 596.59 146.484C596.783 146.779 597.03 147.011 597.33 147.179C597.631 147.348 597.989 147.432 598.404 147.432C598.808 147.432 599.157 147.348 599.451 147.179C599.752 147.011 599.999 146.779 600.191 146.484C600.384 146.189 600.525 145.846 600.616 145.455C600.712 145.064 600.76 144.649 600.76 144.21V144.002C600.76 143.569 600.712 143.16 600.616 142.775C600.525 142.384 600.381 142.038 600.182 141.737C599.99 141.436 599.743 141.201 599.442 141.033C599.148 140.858 598.796 140.771 598.386 140.771C597.977 140.771 597.622 140.858 597.321 141.033C597.027 141.201 596.783 141.436 596.59 141.737C596.398 142.038 596.256 142.384 596.166 142.775C596.076 143.16 596.031 143.569 596.031 144.002ZM610.567 146.34C610.567 146.123 610.513 145.928 610.405 145.753C610.296 145.573 610.089 145.41 609.782 145.266C609.481 145.121 609.036 144.989 608.446 144.869C607.929 144.754 607.453 144.619 607.02 144.463C606.593 144.3 606.226 144.105 605.919 143.876C605.612 143.647 605.374 143.376 605.206 143.064C605.037 142.751 604.953 142.39 604.953 141.981C604.953 141.583 605.04 141.207 605.215 140.852C605.389 140.497 605.639 140.184 605.964 139.914C606.289 139.643 606.683 139.429 607.146 139.273C607.616 139.116 608.139 139.038 608.717 139.038C609.535 139.038 610.236 139.177 610.82 139.453C611.409 139.724 611.861 140.094 612.174 140.564C612.486 141.027 612.643 141.55 612.643 142.134H610.468C610.468 141.875 610.402 141.635 610.269 141.412C610.143 141.183 609.95 141 609.692 140.861C609.433 140.717 609.108 140.645 608.717 140.645C608.344 140.645 608.034 140.705 607.787 140.825C607.546 140.94 607.366 141.09 607.246 141.277C607.131 141.463 607.074 141.668 607.074 141.89C607.074 142.053 607.104 142.2 607.164 142.333C607.231 142.459 607.339 142.576 607.489 142.685C607.64 142.787 607.844 142.883 608.103 142.973C608.368 143.064 608.699 143.151 609.096 143.235C609.842 143.392 610.483 143.593 611.018 143.84C611.56 144.08 611.975 144.393 612.264 144.778C612.553 145.158 612.697 145.639 612.697 146.223C612.697 146.656 612.604 147.053 612.417 147.414C612.237 147.769 611.972 148.079 611.623 148.344C611.274 148.602 610.856 148.804 610.368 148.948C609.887 149.093 609.346 149.165 608.744 149.165C607.859 149.165 607.11 149.008 606.497 148.696C605.883 148.377 605.416 147.971 605.098 147.477C604.785 146.978 604.628 146.46 604.628 145.925H606.731C606.755 146.328 606.867 146.65 607.065 146.89C607.27 147.125 607.522 147.297 607.823 147.405C608.13 147.507 608.446 147.558 608.771 147.558C609.162 147.558 609.49 147.507 609.755 147.405C610.019 147.297 610.221 147.152 610.359 146.972C610.498 146.785 610.567 146.575 610.567 146.34ZM619.237 149.165C618.515 149.165 617.862 149.048 617.278 148.813C616.701 148.572 616.207 148.238 615.798 147.811C615.395 147.384 615.085 146.881 614.868 146.304C614.652 145.726 614.543 145.103 614.543 144.435V144.074C614.543 143.31 614.655 142.618 614.877 141.999C615.1 141.379 615.41 140.849 615.807 140.41C616.204 139.965 616.673 139.625 617.215 139.39C617.757 139.156 618.343 139.038 618.975 139.038C619.673 139.038 620.284 139.156 620.807 139.39C621.331 139.625 621.764 139.956 622.107 140.383C622.456 140.804 622.715 141.307 622.883 141.89C623.058 142.474 623.145 143.118 623.145 143.822V144.751H615.599V143.19H620.997V143.018C620.985 142.627 620.906 142.26 620.762 141.917C620.624 141.574 620.41 141.298 620.121 141.087C619.832 140.876 619.447 140.771 618.966 140.771C618.605 140.771 618.283 140.849 618 141.006C617.723 141.156 617.492 141.376 617.305 141.665C617.119 141.953 616.974 142.302 616.872 142.712C616.776 143.115 616.728 143.569 616.728 144.074V144.435C616.728 144.863 616.785 145.26 616.899 145.627C617.019 145.988 617.194 146.304 617.423 146.575C617.651 146.845 617.928 147.059 618.253 147.215C618.578 147.366 618.948 147.441 619.363 147.441C619.887 147.441 620.353 147.336 620.762 147.125C621.171 146.915 621.526 146.617 621.827 146.232L622.973 147.342C622.763 147.649 622.489 147.943 622.152 148.226C621.815 148.503 621.403 148.729 620.916 148.903C620.434 149.078 619.875 149.165 619.237 149.165ZM631.129 146.963V135.121H633.313V148.984H631.336L631.129 146.963ZM624.775 144.21V144.02C624.775 143.28 624.862 142.606 625.036 141.999C625.211 141.385 625.464 140.858 625.794 140.419C626.125 139.974 626.529 139.634 627.004 139.399C627.479 139.159 628.015 139.038 628.61 139.038C629.2 139.038 629.718 139.153 630.163 139.381C630.608 139.61 630.987 139.938 631.3 140.365C631.613 140.786 631.863 141.292 632.049 141.881C632.236 142.465 632.368 143.115 632.446 143.831V144.435C632.368 145.133 632.236 145.771 632.049 146.349C631.863 146.927 631.613 147.426 631.3 147.847C630.987 148.268 630.605 148.593 630.154 148.822C629.709 149.051 629.188 149.165 628.592 149.165C628.003 149.165 627.47 149.042 626.995 148.795C626.526 148.548 626.125 148.202 625.794 147.757C625.464 147.312 625.211 146.788 625.036 146.186C624.862 145.579 624.775 144.92 624.775 144.21ZM626.95 144.02V144.21C626.95 144.655 626.989 145.07 627.067 145.455C627.151 145.84 627.281 146.18 627.455 146.475C627.63 146.764 627.855 146.993 628.132 147.161C628.415 147.324 628.752 147.405 629.143 147.405C629.636 147.405 630.043 147.297 630.361 147.08C630.68 146.863 630.93 146.572 631.111 146.204C631.297 145.831 631.423 145.416 631.49 144.959V143.325C631.454 142.97 631.378 142.639 631.264 142.333C631.156 142.026 631.008 141.758 630.822 141.529C630.635 141.295 630.404 141.114 630.127 140.988C629.856 140.855 629.534 140.789 629.161 140.789C628.764 140.789 628.427 140.873 628.15 141.042C627.873 141.21 627.645 141.442 627.464 141.737C627.29 142.032 627.16 142.375 627.076 142.766C626.992 143.157 626.95 143.575 626.95 144.02Z" fill="white"/>
<defs>
<filter id="filter0_d_4354_239357" x="61" y="103" width="307.125" height="89.25" filterUnits="userSpaceOnUse" color-interpolation-filters="sRGB">
<feFlood flood-opacity="0" result="BackgroundImageFix"/>
<feColorMatrix in="SourceAlpha" type="matrix" values="0 0 0 0 0 0 0 0 0 0 0 0 0 0 0 0 0 0 127 0" result="hardAlpha"/>
<feOffset dy="5.25"/>
<feGaussianBlur stdDeviation="5.25"/>
<feComposite in2="hardAlpha" operator="out"/>
<feColorMatrix type="matrix" values="0 0 0 0 0 0 0 0 0 0 0 0 0 0 0 0 0 0 0.08 0"/>
<feBlend mode="normal" in2="BackgroundImageFix" result="effect1_dropShadow_4354_239357"/>
<feBlend mode="normal" in="SourceGraphic" in2="effect1_dropShadow_4354_239357" result="shape"/>
</filter>
<clipPath id="clip0_4354_239357">
<rect width="350" height="168" fill="white" transform="translate(40 40)"/>
</clipPath>
<clipPath id="clip1_4354_239357">
<rect width="31.6875" height="31.6875" fill="white" transform="translate(538.617 126.641)"/>
</clipPath>
</defs>
</svg>
