<svg width="246" height="308" viewBox="0 0 246 308" fill="none" xmlns="http://www.w3.org/2000/svg">
    <path fill-rule="evenodd" clip-rule="evenodd" d="M42.4334 214H0V212.5H42.4334V214Z" fill="#91A3BE"/>
    <path d="M42 214C42 199.555 44.8452 185.251 50.3732 171.905C55.9013 158.559 64.0038 146.433 74.2183 136.218C84.4327 126.004 96.559 117.901 109.905 112.373C123.251 106.845 137.555 104 152 104V105.499C137.751 105.499 123.642 108.305 110.478 113.758C97.3144 119.211 85.3533 127.203 75.2781 137.278C65.2028 147.353 57.2107 159.314 51.758 172.478C46.3053 185.642 43.4988 199.751 43.4988 214H42Z" fill="#91A3BE"/>
    <path fill-rule="evenodd" clip-rule="evenodd" d="M151.5 105.5L151.5 23.5L153 23.5L153 105.5L151.5 105.5Z" fill="#91A3BE"/>
    <path d="M164 12C164 18.6274 158.627 24 152 24C145.373 24 140 18.6274 140 12C140 5.37258 145.373 0 152 0C158.627 0 164 5.37258 164 12Z" fill="#F4F8FE"/>
    <path fill-rule="evenodd" clip-rule="evenodd" d="M152 22.5C157.799 22.5 162.5 17.799 162.5 12C162.5 6.20101 157.799 1.5 152 1.5C146.201 1.5 141.5 6.20101 141.5 12C141.5 17.799 146.201 22.5 152 22.5ZM152 24C158.627 24 164 18.6274 164 12C164 5.37258 158.627 0 152 0C145.373 0 140 5.37258 140 12C140 18.6274 145.373 24 152 24Z" fill="#91A3BE"/>
    <rect x="58.75" y="120.75" width="186.5" height="186.5" rx="93.25" stroke="#91A3BE" stroke-width="1.5"/>
    <g clip-path="url(#clip0_13857_82497)">
        <path fill-rule="evenodd" clip-rule="evenodd" d="M184.36 170.698C184.989 170.518 185.665 170.628 186.204 170.997C191.718 174.772 200.875 186.546 196.051 204.364C195.849 205.113 195.267 205.699 194.52 205.906L192.284 206.528V215.363C192.284 216.576 191.301 217.559 190.088 217.559C188.875 217.559 187.892 216.576 187.892 215.363V207.75L184.362 208.731C183.196 209.056 181.987 208.374 181.66 207.209L172.966 176.228C172.64 175.064 173.315 173.855 174.477 173.523L184.36 170.698ZM177.786 177.145L185.297 203.912L192.115 202.016C195.434 187.917 188.775 178.647 184.523 175.219L177.786 177.145ZM162.705 199.788C163.913 199.674 164.983 200.561 165.097 201.769L166.543 217.156L170.395 256.996H195.304C196.517 256.996 197.5 257.979 197.5 259.192C197.5 260.405 196.517 261.388 195.304 261.388H108.922C107.709 261.388 106.725 260.405 106.725 259.192V236.958C106.725 236.595 106.815 236.238 106.987 235.918L112.478 225.712C112.861 225.001 113.604 224.557 114.412 224.557H117.066V214.72C117.066 213.507 118.049 212.523 119.262 212.523C120.475 212.523 121.458 213.507 121.458 214.72V224.557H129.419C130.632 224.557 131.615 225.54 131.615 226.753V234.762H135.092C136.305 234.762 137.289 235.745 137.289 236.958V256.996H144.617L148.235 217.169C148.235 217.161 148.236 217.153 148.237 217.145L149.47 205.032C149.593 203.825 150.671 202.947 151.878 203.07C153.084 203.193 153.963 204.27 153.84 205.477L152.853 215.171H161.945L160.724 202.18C160.61 200.972 161.497 199.901 162.705 199.788ZM162.363 219.564H155.771L163.059 226.763L162.363 219.564ZM160.48 230.388L152.188 222.199L151.444 230.388H160.48ZM150.698 238.597L149.027 256.996H164.087L150.698 238.597ZM165.44 251.391L153.354 234.781H163.834L165.44 251.391ZM132.896 256.996V239.155H121.458V256.996H132.896ZM117.066 256.996V236.958C117.066 235.745 118.049 234.762 119.262 234.762H127.223V228.949H115.724L111.118 237.512V256.996H117.066ZM190.088 228.657C191.301 228.657 192.284 229.64 192.284 230.853V242.152C192.284 243.365 191.301 244.348 190.088 244.348C188.875 244.348 187.892 243.365 187.892 242.152V230.853C187.892 229.64 188.875 228.657 190.088 228.657Z" fill="#305680"/>
        <path d="M192.193 223.321C192.193 224.534 191.209 225.517 189.996 225.517C188.784 225.517 187.8 224.534 187.8 223.321C187.8 222.108 188.784 221.125 189.996 221.125C191.209 221.125 192.193 222.108 192.193 223.321Z" fill="#305680"/>
        <path fill-rule="evenodd" clip-rule="evenodd" d="M175.903 187.376L114.792 204.5C112.65 205.1 111.401 207.323 112.001 209.464C112.601 211.605 114.823 212.854 116.964 212.254L178.076 195.13L175.903 187.376ZM113.606 200.271C109.129 201.526 106.517 206.172 107.771 210.649C109.026 215.126 113.672 217.738 118.149 216.484L183.491 198.175L178.948 181.962L113.606 200.271Z" fill="#305680"/>
        <path fill-rule="evenodd" clip-rule="evenodd" d="M193.108 256.996V249.401C193.108 247.43 191.51 245.832 189.539 245.832C187.568 245.832 185.97 247.43 185.97 249.401V256.996H193.108ZM197.5 249.401C197.5 245.004 193.936 241.439 189.539 241.439C185.142 241.439 181.578 245.004 181.578 249.401V261.388H197.5V249.401Z" fill="#305680"/>
    </g>
    <defs>
        <clipPath id="clip0_13857_82497">
            <rect width="92" height="92" fill="white" transform="matrix(1 0 0 -1 106 260)"/>
        </clipPath>
    </defs>
</svg>
