<svg width="273" height="219" viewBox="0 0 273 219" fill="none" xmlns="http://www.w3.org/2000/svg">
    <path fill-rule="evenodd" clip-rule="evenodd" d="M83.5113 38.3627V0.779785L84.8398 0.779785V38.3627H83.5113Z" fill="#91A3BE"/>
    <path d="M83.5117 37.9788C96.3059 37.9788 108.975 40.4988 120.795 45.3949C132.615 50.291 143.355 57.4674 152.402 66.5142C161.449 75.561 168.625 86.3012 173.522 98.1215C178.418 109.942 180.938 122.611 180.938 135.405H179.61C179.61 122.785 177.125 110.289 172.295 98.6295C167.466 86.9703 160.387 76.3765 151.464 67.4529C142.54 58.5293 131.946 51.4508 120.287 46.6214C108.628 41.792 96.1316 39.3063 83.5117 39.3063V37.9788Z" fill="#91A3BE"/>
    <path fill-rule="evenodd" clip-rule="evenodd" d="M179.608 134.962L252.234 134.962L252.234 136.291L179.608 136.291L179.608 134.962Z" fill="#91A3BE"/>
    <path d="M262.421 146.033C256.551 146.033 251.792 141.274 251.792 135.405C251.792 129.535 256.551 124.776 262.421 124.776C268.29 124.776 273.049 129.535 273.049 135.405C273.049 141.274 268.29 146.033 262.421 146.033Z" fill="#F4F8FE"/>
    <path fill-rule="evenodd" clip-rule="evenodd" d="M253.121 135.405C253.121 140.541 257.284 144.704 262.421 144.704C267.557 144.704 271.72 140.541 271.72 135.405C271.72 130.269 267.557 126.105 262.421 126.105C257.284 126.105 253.121 130.269 253.121 135.405ZM251.792 135.405C251.792 141.274 256.551 146.033 262.421 146.033C268.29 146.033 273.049 141.274 273.049 135.405C273.049 129.535 268.29 124.776 262.421 124.776C256.551 124.776 251.792 129.535 251.792 135.405Z" fill="#91A3BE"/>
    <rect x="166.101" y="52.8142" width="164.698" height="164.698" rx="82.3489" transform="rotate(90 166.101 52.8142)" stroke="#91A3BE" stroke-width="1.32854"/>
    <g clip-path="url(#clip0_13971_3151)">
        <path fill-rule="evenodd" clip-rule="evenodd" d="M112.243 97.0383C112.797 96.8801 113.392 96.9768 113.867 97.3019C118.722 100.625 126.783 110.992 122.537 126.679C122.358 127.338 121.846 127.854 121.188 128.037L119.22 128.584V136.363C119.22 137.431 118.354 138.296 117.286 138.296C116.219 138.296 115.353 137.431 115.353 136.363V129.66L112.245 130.524C111.218 130.81 110.154 130.21 109.866 129.184L102.212 101.907C101.924 100.882 102.519 99.8178 103.542 99.5253L112.243 97.0383ZM106.455 102.715L113.068 126.281L119.071 124.612C121.994 112.199 116.131 104.037 112.387 101.019L106.455 102.715ZM93.1775 122.65C94.2407 122.55 95.1836 123.331 95.2835 124.394L96.5568 137.942L99.948 173.018H121.879C122.947 173.018 123.812 173.884 123.812 174.951C123.812 176.019 122.947 176.885 121.879 176.885H45.8247C44.7568 176.885 43.8911 176.019 43.8911 174.951V155.376C43.8911 155.057 43.9704 154.742 44.1219 154.46L48.9558 145.475C49.293 144.848 49.947 144.458 50.6586 144.458H52.995V135.797C52.995 134.729 53.8607 133.863 54.9286 133.863C55.9965 133.863 56.8622 134.729 56.8622 135.797V144.458H63.8714C64.9393 144.458 65.805 145.323 65.805 146.391V153.443H68.8665C69.9344 153.443 70.8001 154.309 70.8001 155.376V173.018H77.2519L80.4373 137.953C80.4379 137.946 80.4386 137.939 80.4393 137.932L81.5252 127.267C81.6334 126.205 82.5824 125.431 83.6447 125.54C84.7071 125.648 85.4807 126.597 85.3725 127.659L84.5034 136.194H92.5084L91.4334 124.756C91.3334 123.693 92.1143 122.75 93.1775 122.65ZM92.8766 140.061H87.0722L93.4894 146.4L92.8766 140.061ZM91.2183 149.592L83.9181 142.382L83.2631 149.592H91.2183ZM82.6065 156.819L81.1349 173.018H94.3941L82.6065 156.819ZM95.5858 168.083L84.9442 153.459H94.1719L95.5858 168.083ZM66.9329 173.018V157.31H56.8622V173.018H66.9329ZM52.995 173.018V155.376C52.995 154.309 53.8607 153.443 54.9286 153.443H61.9378V148.325H51.814L47.7583 155.863V173.018H52.995ZM117.286 148.068C118.354 148.068 119.22 148.933 119.22 150.001V159.949C119.22 161.017 118.354 161.883 117.286 161.883C116.219 161.883 115.353 161.017 115.353 159.949V150.001C115.353 148.933 116.219 148.068 117.286 148.068Z" fill="#305680"/>
        <path d="M119.139 143.37C119.139 144.437 118.274 145.303 117.206 145.303C116.138 145.303 115.272 144.437 115.272 143.37C115.272 142.302 116.138 141.436 117.206 141.436C118.274 141.436 119.139 142.302 119.139 143.37Z" fill="#305680"/>
        <path fill-rule="evenodd" clip-rule="evenodd" d="M104.798 111.723L50.9928 126.8C49.1076 127.328 48.0076 129.284 48.5359 131.169C49.0641 133.055 51.0206 134.155 52.9057 133.626L106.711 118.55L104.798 111.723ZM49.9494 123.076C46.0077 124.18 43.7076 128.271 44.8121 132.213C45.9166 136.155 50.0074 138.455 53.9492 137.35L111.478 121.23L107.478 106.956L49.9494 123.076Z" fill="#305680"/>
        <path fill-rule="evenodd" clip-rule="evenodd" d="M119.945 173.018V166.331C119.945 164.596 118.538 163.189 116.803 163.189C115.068 163.189 113.661 164.596 113.661 166.331V173.018H119.945ZM123.812 166.331C123.812 162.46 120.674 159.322 116.803 159.322C112.932 159.322 109.794 162.46 109.794 166.331V176.885H123.812V166.331Z" fill="#305680"/>
    </g>
    <defs>
        <clipPath id="clip0_13971_3151">
            <rect width="81" height="81" fill="white" transform="matrix(1 0 0 -1 43.2524 175.663)"/>
        </clipPath>
    </defs>
</svg>
