<svg width="273" height="232" viewBox="0 0 273 232" fill="none" xmlns="http://www.w3.org/2000/svg">
    <g clip-path="url(#clip0_13971_3198)">
        <path fill-rule="evenodd" clip-rule="evenodd" d="M189.538 38.4677V0.884766L188.209 0.884766V38.4677H189.538Z" fill="#3E9AF8"/>
        <path d="M189.538 38.0838C176.744 38.0838 164.075 40.6038 152.255 45.4999C140.434 50.396 129.694 57.5723 120.647 66.6192C111.6 75.666 104.424 86.4062 99.528 98.2265C94.6318 110.047 92.1119 122.716 92.1119 135.51H93.4394C93.4394 122.89 95.925 110.394 100.754 98.7345C105.584 87.0753 112.662 76.4814 121.586 67.5579C130.51 58.6343 141.103 51.5557 152.763 46.7263C164.422 41.8969 176.918 39.4113 189.538 39.4113V38.0838Z" fill="#3E9AF8"/>
        <path fill-rule="evenodd" clip-rule="evenodd" d="M93.4404 135.067L20.8137 135.067L20.8137 136.395L93.4404 136.396L93.4404 135.067Z" fill="#3E9AF8"/>
        <path d="M10.6283 146.138C16.4981 146.138 21.2566 141.379 21.2566 135.51C21.2566 129.64 16.4981 124.881 10.6283 124.881C4.75845 124.881 0 129.64 0 135.51C0 141.379 4.75845 146.138 10.6283 146.138Z" fill="#F4F8FE"/>
        <path fill-rule="evenodd" clip-rule="evenodd" d="M19.928 135.51C19.928 140.646 15.7644 144.809 10.6283 144.809C5.49218 144.809 1.32854 140.646 1.32854 135.51C1.32854 130.374 5.49218 126.21 10.6283 126.21C15.7644 126.21 19.928 130.374 19.928 135.51ZM21.2566 135.51C21.2566 141.379 16.4981 146.138 10.6283 146.138C4.75845 146.138 0 141.379 0 135.51C0 129.64 4.75845 124.881 10.6283 124.881C16.4981 124.881 21.2566 129.64 21.2566 135.51Z" fill="#3E9AF8"/>
        <rect x="0.664268" y="0.664268" width="164.698" height="164.698" rx="82.3489" transform="matrix(0 1 1 0 106.283 52.2549)" stroke="#3E9AF8" stroke-width="1.32854"/>
        <g clip-path="url(#clip1_13971_3198)">
            <path d="M216.719 157.564V142.244C216.719 141.414 216.042 140.741 215.207 140.741H202.651C201.815 140.741 201.138 141.414 201.138 142.244V157.564L204.163 157.576V143.748H213.694V157.576L216.719 157.564Z" fill="#2A7DEC"/>
            <path fill-rule="evenodd" clip-rule="evenodd" d="M188.128 157.564V137.735C188.128 135.092 187.282 132.585 185.68 130.483C184.209 128.552 182.148 127.087 179.847 126.325L169.918 116.94L200.829 113.204C201.373 113.806 201.982 114.34 202.65 114.803V119.698H201.138C200.565 119.698 200.041 120.02 199.785 120.529L196.759 126.541C196.468 127.12 196.582 127.819 197.042 128.276L203.093 134.288C203.684 134.875 204.642 134.875 205.233 134.288C205.824 133.701 205.824 132.75 205.233 132.163L199.953 126.916L202.073 122.704H215.331L217.451 126.916L212.17 132.163C211.58 132.75 211.58 133.701 212.17 134.288C212.466 134.582 212.853 134.729 213.24 134.729C213.627 134.729 214.014 134.582 214.31 134.288L220.361 128.276C220.821 127.819 220.935 127.12 220.644 126.541L217.618 120.529C217.362 120.02 216.838 119.698 216.265 119.698H214.753V114.803C217.572 112.847 219.291 109.616 219.291 106.17C219.291 100.368 214.541 95.6484 208.702 95.6484C204.771 95.6484 201.212 97.791 199.377 101.182L162.513 101.962C162.381 101.965 162.253 101.986 162.131 102.021C161.238 101.783 160.317 101.661 159.386 101.661C153.547 101.661 148.796 106.381 148.796 112.183C148.796 117.788 153.231 122.383 158.797 122.687L165.675 131.507C164.527 133.379 163.924 135.51 163.924 137.735V157.564L166.949 157.576V145.676C169.169 148.177 172.414 149.76 176.026 149.76C179.638 149.76 182.883 148.177 185.103 145.676V157.576L188.128 157.564ZM205.676 119.698H211.727L211.727 116.253C210.75 116.542 209.731 116.692 208.702 116.692C207.673 116.692 206.653 116.542 205.676 116.253V119.698ZM208.702 98.6548C205.653 98.6548 202.916 100.459 201.73 103.25C201.337 104.173 201.138 105.156 201.138 106.17C201.138 107.824 201.668 109.392 202.67 110.705C203.283 111.51 204.041 112.175 204.921 112.681C206.064 113.338 207.372 113.686 208.702 113.686C210.032 113.686 211.339 113.338 212.482 112.681C214.816 111.34 216.265 108.845 216.265 106.17C216.265 102.026 212.872 98.6548 208.702 98.6548ZM178.622 129.092L178.619 129.091C177.785 128.842 176.913 128.717 176.026 128.717C173.136 128.717 170.484 130.038 168.751 132.343C167.572 133.909 166.949 135.773 166.949 137.735C166.949 142.708 171.021 146.754 176.026 146.754C181.031 146.754 185.103 142.708 185.103 137.735C185.103 133.774 182.438 130.219 178.622 129.092ZM198.112 106.17C198.112 105.506 198.176 104.853 198.297 104.211L167.006 104.874C168.868 106.792 169.975 109.389 169.975 112.183C169.975 112.771 169.924 113.351 169.828 113.922L199.001 110.396C198.416 109.077 198.112 107.648 198.112 106.17ZM151.822 112.183C151.822 116.224 155.05 119.53 159.079 119.69C159.34 119.615 159.615 119.613 159.874 119.678C162.432 119.51 164.751 118.062 166.001 115.83C166.133 115.592 166.254 115.347 166.357 115.103C166.75 114.18 166.949 113.197 166.949 112.183C166.949 108.957 164.885 106.096 161.814 105.062C161.032 104.8 160.215 104.667 159.385 104.667C155.215 104.667 151.822 108.039 151.822 112.183ZM167.564 118.863C166.199 120.507 164.362 121.703 162.316 122.291L167.619 129.092C169.582 127.214 172.147 126.031 174.868 125.767L167.564 118.863Z" fill="#2A7DEC"/>
            <path fill-rule="evenodd" clip-rule="evenodd" d="M219.671 159.42H158.921C155.426 159.42 152.593 162.235 152.593 165.708C152.593 169.18 155.426 171.995 158.921 171.995H219.671C223.166 171.995 225.999 169.18 225.999 165.708C225.999 162.235 223.166 159.42 219.671 159.42ZM158.921 155.647C153.329 155.647 148.796 160.152 148.796 165.708C148.796 171.264 153.329 175.768 158.921 175.768H219.671C225.263 175.768 229.796 171.264 229.796 165.708C229.796 160.152 225.263 155.647 219.671 155.647H158.921Z" fill="#2A7DEC"/>
            <path d="M165.882 165.708C165.882 166.75 165.032 167.594 163.984 167.594C162.935 167.594 162.085 166.75 162.085 165.708C162.085 164.666 162.935 163.822 163.984 163.822C165.032 163.822 165.882 164.666 165.882 165.708Z" fill="#2A7DEC"/>
            <path d="M176.007 165.708C176.007 166.75 175.157 167.594 174.109 167.594C173.06 167.594 172.21 166.75 172.21 165.708C172.21 164.666 173.06 163.822 174.109 163.822C175.157 163.822 176.007 164.666 176.007 165.708Z" fill="#2A7DEC"/>
            <path d="M186.132 165.708C186.132 166.75 185.282 167.594 184.234 167.594C183.185 167.594 182.335 166.75 182.335 165.708C182.335 164.666 183.185 163.822 184.234 163.822C185.282 163.822 186.132 164.666 186.132 165.708Z" fill="#2A7DEC"/>
            <path d="M196.257 165.708C196.257 166.75 195.407 167.594 194.359 167.594C193.31 167.594 192.46 166.75 192.46 165.708C192.46 164.666 193.31 163.822 194.359 163.822C195.407 163.822 196.257 164.666 196.257 165.708Z" fill="#2A7DEC"/>
            <path d="M206.382 165.708C206.382 166.75 205.532 167.594 204.484 167.594C203.435 167.594 202.585 166.75 202.585 165.708C202.585 164.666 203.435 163.822 204.484 163.822C205.532 163.822 206.382 164.666 206.382 165.708Z" fill="#2A7DEC"/>
            <path d="M216.507 165.708C216.507 166.75 215.657 167.594 214.609 167.594C213.56 167.594 212.71 166.75 212.71 165.708C212.71 164.666 213.56 163.822 214.609 163.822C215.657 163.822 216.507 164.666 216.507 165.708Z" fill="#2A7DEC"/>
        </g>
    </g>
    <defs>
        <clipPath id="clip0_13971_3198">
            <rect width="232" height="273" fill="white" transform="matrix(0 1 1 0 0 0)"/>
        </clipPath>
        <clipPath id="clip1_13971_3198">
            <rect width="81" height="81" fill="white" transform="translate(148.796 94.7681)"/>
        </clipPath>
    </defs>
</svg>
