<?xml version="1.0" encoding="UTF-8"?>
<svg xmlns="http://www.w3.org/2000/svg" width="100" height="100" version="1.1" viewBox="0 0 100 100">
 <rect width="100" height="100" rx="0" fill="none" stroke="#ccc" stroke-width="2"></rect>
 <path d="M66.868 25.074a1.752 1.752 0 0 0-.645-1.072c-2.852-2.356-6.806-2.198-11.864.476-.33-.33-.688-.61-1.088-.85 3.486-3.127 6.663-4.44 9.533-3.939.846.148 1.431-.821.907-1.502a16.52 16.52 0 0 0-4.079-3.787 1.753 1.753 0 0 0-1.213-.302c-3.683.35-6.368 3.258-8.054 8.725-.467 0-.917.056-1.37.169.254-4.677 1.573-7.852 3.956-9.526.703-.494.431-1.593-.42-1.704a16.519 16.519 0 0 0-5.563.206 1.752 1.752 0 0 0-1.071.645c-2.357 2.852-2.199 6.806.475 11.864-.33.33-.61.688-.85 1.088-3.127-3.486-4.44-6.664-3.939-9.533.148-.846-.821-1.432-1.501-.907a16.517 16.517 0 0 0-3.788 4.079 1.753 1.753 0 0 0-.302 1.213c.35 3.683 3.259 6.368 8.726 8.054 0 .467.055.916.168 1.37-4.676-.254-7.851-1.573-9.526-3.956-.493-.703-1.593-.431-1.704.42a16.519 16.519 0 0 0 .207 5.563c.093.453.288.777.644 1.071 2.852 2.357 6.807 2.199 11.865-.475.33.33.687.61 1.087.85-3.486 3.127-6.663 4.44-9.532 3.939-.846-.148-1.432.821-.908 1.501a16.52 16.52 0 0 0 4.08 3.788c.386.255.752.346 1.213.302 3.683-.35 6.367-3.259 8.053-8.725a5.58 5.58 0 0 0 1.37-.17c-.254 4.677-1.572 7.853-3.956 9.527-.702.494-.431 1.593.42 1.704 1.89.245 3.696.178 5.563-.207a1.752 1.752 0 0 0 1.072-.644c2.356-2.852 2.198-6.806-.476-11.865.33-.33.61-.687.85-1.087 3.127 3.486 4.44 6.663 3.939 9.533-.148.845.821 1.431 1.501.907a16.518 16.518 0 0 0 3.788-4.08c.255-.386.346-.752.302-1.213-.35-3.683-3.259-6.367-8.725-8.053 0-.467-.056-.917-.169-1.37 4.676.254 7.852 1.572 9.526 3.956.494.702 1.593.431 1.704-.42.245-1.89.178-3.696-.206-5.563zm-16.503 8.103a4.706 4.706 0 1 1 0-9.412 4.706 4.706 0 0 1 0 9.412z" fill="#7d081e"></path>
 <text x="49.434" y="59.465" dominant-baseline="middle" fill="#000000" text-anchor="middle" xml:space="preserve"><tspan>30 RPM</tspan></text>
 <g transform="matrix(1.61104 0 0 1.60957 -72.338 -20.652)">
  <rect x="54.702" y="60.372" width="14.263" height="7.426" rx="1.5" fill="#12ed19" stroke="#000"></rect>
  <text x="61.856" y="64.491" dominant-baseline="middle" fill="#000000" font-family="Roboto" font-size="4.446" stroke-width=".741" text-anchor="middle" xml:space="preserve"><tspan stroke-width=".741">On</tspan></text>
 </g>
 <g transform="matrix(1.61253 0 0 1.61566 -58.441 -20.942)">
 <rect x="74.367" y="60.311" width="14.263" height="7.426" rx="1.5" fill="#ed121f" stroke="#000"></rect>
 <text x="81.366" y="64.518" dominant-baseline="middle" fill="#000000" font-family="Roboto" font-size="4.446" stroke-width=".741" text-anchor="middle" xml:space="preserve"><tspan stroke-width=".741">Off</tspan></text>
 </g>
</svg>

