<svg xmlns="http://www.w3.org/2000/svg" width="200" height="160" fill="none"><rect width="200" height="160" fill="#fff" rx="4"/><rect width="199" height="159" x=".5" y=".5" stroke="#000" stroke-opacity=".1" rx="3.5"/><g clip-path="url(#a)"><path fill="url(#b)" d="m66.5 49.2-22.7 52.6-7.8 16.1V136h152v-23.8l-.4-24.7-10.8 37.5-6.3-23.4-2.7 6.9-11.7 25.8c-7.7-28-14.2-38.6-22.6-66.2l-8.7 41.3h-11.2l-2.1-67L107 16 86.4 81.8l-5-2-15-30.6Z"/><path stroke="url(#c)" stroke-width=".9" d="m36 118 7.9-16.2 22.7-52.6 15.1 30.6 5 2L107.5 16l4 26c.8 26.2 1.7 41.3 2.6 67.4H125l8.4-42 22.5 66.6 14.8-32.8 6 23.4 11.3-37"/></g><path fill="#000" fill-opacity=".5" d="M14.8 13.3V19h-.7v-4.8l-1.4.5v-.6l2-.8h.1Zm5.9 2.4v.9c0 .4 0 .8-.2 1.1 0 .4-.2.6-.3.8-.2.2-.4.4-.6.4a2 2 0 0 1-.7.2l-.6-.1c-.2 0-.4-.1-.5-.3-.2 0-.3-.2-.4-.4l-.3-.8v-3l.5-.7c.1-.2.3-.4.5-.4l.8-.2.6.1a1.4 1.4 0 0 1 .8.7l.3.7v1Zm-.8 1v-1.8l-.1-.5a1 1 0 0 0-.3-.3c0-.1-.1-.2-.3-.2a1 1 0 0 0-.3 0 1 1 0 0 0-.5 0l-.3.3-.2.6-.1.8v1.8l.2.5.2.3.3.2h.8c.2 0 .3-.2.4-.3l.2-.6v-.8Zm5.4-1v.9l-.1 1.1-.4.8c-.2.2-.4.4-.6.4a2 2 0 0 1-.7.2l-.6-.1c-.2 0-.4-.1-.5-.3-.2 0-.3-.2-.4-.4l-.2-.8-.1-1v-.8l.1-1.2.4-.7c.1-.2.3-.4.5-.4l.8-.2.6.1a1.4 1.4 0 0 1 .9.7l.2.7v1Zm-.7 1v-1.8l-.2-.5a1 1 0 0 0-.2-.3l-.3-.2a1 1 0 0 0-.4 0 1 1 0 0 0-.5 0l-.3.3-.2.6v3.1l.3.3.3.2h.9l.3-.3.2-.6v-.8Zm1.7-2v-.3l.1-.6.4-.4.6-.2c.3 0 .5 0 .7.2l.4.4.1.6v.3l-.1.6-.4.4-.7.2c-.2 0-.4 0-.6-.2a1 1 0 0 1-.4-.4l-.1-.6Zm.5-.3v.6l.3.3.3.1h.4l.2-.4V14.1a.6.6 0 0 0-.6-.4.6.6 0 0 0-.5.4v.3ZM29 18v-.3c0-.2 0-.4.2-.6 0-.2.2-.3.4-.4l.6-.2c.2 0 .5 0 .6.2l.4.4.2.6v.3c0 .2 0 .4-.2.6 0 .2-.2.3-.4.4l-.6.2c-.2 0-.4 0-.6-.2-.2 0-.3-.2-.4-.4l-.2-.6Zm.6-.3v.7l.3.2.3.1h.4c0-.2.1-.2.2-.3v-1a.6.6 0 0 0-.6-.4.6.6 0 0 0-.6.4v.3Zm.8-3.5-2.8 4.5-.4-.3L30 14l.4.2ZM20 41.6c0 .3 0 .6-.2.8-.1.3-.4.5-.6.6l-1 .2c-.3 0-.6 0-.9-.2-.2-.1-.5-.3-.6-.6-.2-.2-.3-.5-.3-.8a1.5 1.5 0 0 1 1.1-1.5l.7-.1c.4 0 .7 0 1 .2l.6.5.3.9Zm-.7 0-.1-.6a1 1 0 0 0-.4-.4l-.6-.1-.5.1a1 1 0 0 0-.4.4l-.1.5v.6l.5.4h1.1l.4-.4.1-.6Zm.6-2.7c0 .3 0 .5-.2.7-.1.3-.3.4-.6.6l-.9.1a2 2 0 0 1-.8-.1c-.3-.2-.5-.3-.6-.6-.2-.2-.2-.4-.2-.7 0-.3 0-.6.2-.9.1-.2.3-.4.6-.5l.8-.2c.4 0 .7 0 1 .2l.5.5c.2.3.2.6.2.9Zm-.7 0-.1-.5-.4-.4a1 1 0 0 0-.5 0 1 1 0 0 0-.5 0l-.3.4-.1.5.1.5c0 .2.2.3.4.3l.4.2c.2 0 .4 0 .5-.2.2 0 .3-.1.4-.3l.1-.5Zm5.5.9v.9c0 .4 0 .8-.2 1.1 0 .4-.2.6-.3.8-.2.2-.4.4-.6.4a2 2 0 0 1-.7.2l-.6-.1c-.2 0-.4-.2-.5-.3l-.4-.4-.3-.8v-3l.5-.7c.1-.2.3-.4.5-.4l.8-.2.6.1a1.4 1.4 0 0 1 .8.7l.3.7v1Zm-.8 1V39l-.1-.5a1 1 0 0 0-.3-.3c0-.1-.1-.2-.3-.2a1 1 0 0 0-.3 0 1 1 0 0 0-.5 0l-.3.3-.2.6-.1.8v1.8l.2.5.2.3.3.2h.8c.2 0 .3-.2.4-.3l.2-.6v-.8Zm1.7-2v-.3c0-.2 0-.4.2-.6 0-.2.2-.3.4-.4l.6-.2c.3 0 .5 0 .6.2.2 0 .3.2.4.4l.2.6v.3c0 .2 0 .4-.2.6 0 .2-.2.3-.4.4l-.6.2c-.2 0-.4 0-.6-.2a1 1 0 0 1-.4-.4l-.2-.6Zm.6-.3v.6l.3.3.3.1.4-.1.2-.3V38.2a.6.6 0 0 0-.6-.4.6.6 0 0 0-.5.4l-.1.3Zm2.2 3.5v-.3c0-.2 0-.4.2-.6 0-.2.2-.3.4-.4l.6-.2c.2 0 .4 0 .6.2.2 0 .3.2.4.4l.1.6V42.6l-.5.4-.6.2c-.3 0-.5 0-.6-.2-.2 0-.3-.2-.4-.4l-.2-.6Zm.6-.3v.6c0 .2.1.2.2.3l.4.1h.3l.2-.4.1-.3v-.6a.6.6 0 0 0-.6-.4.6.6 0 0 0-.6.4v.3Zm.8-3.5L27 42.7l-.4-.3 2.8-4.4.4.2ZM19.2 61.5h.1v.6c-.4 0-.8 0-1 .2-.3.1-.5.3-.6.5a2 2 0 0 0-.4.7v2.3l.3.5.3.3h.9l.3-.3.2-.4a1.8 1.8 0 0 0 0-1c0-.2 0-.3-.2-.4a1 1 0 0 0-.7-.4l-.6.1-.4.4a1 1 0 0 0-.2.5h-.4l.2-.8.4-.5.5-.3a1.9 1.9 0 0 1 1.3.1l.5.4.3.6a2.4 2.4 0 0 1 0 1.5l-.3.6-.6.4-.8.2-.8-.2-.5-.5-.4-.7V63.6l.5-1c.2-.4.4-.6.8-.8a3 3 0 0 1 1.3-.3Zm5.5 2.4v.9c0 .4 0 .8-.2 1.1 0 .4-.2.6-.3.8l-.6.4a2 2 0 0 1-.7.2l-.6-.1c-.2 0-.4-.2-.5-.3l-.4-.5-.3-.7v-3c.2-.3.3-.6.5-.7l.5-.5h1.4a1.4 1.4 0 0 1 .8.7l.3.7v1Zm-.8 1V63l-.1-.5a1 1 0 0 0-.3-.3c0-.1-.1-.2-.3-.2a1 1 0 0 0-.3 0 1 1 0 0 0-.5 0l-.3.3-.2.6-.1.8v1.7l.2.6.2.3.3.2h.8l.4-.3.2-.6v-.8Zm1.7-2v-.3c0-.2 0-.4.2-.6 0-.2.2-.3.4-.4l.6-.2c.3 0 .5 0 .6.2.2 0 .3.2.4.4l.2.6v.3c0 .2 0 .4-.2.6 0 .2-.2.3-.4.4l-.6.2c-.2 0-.4 0-.6-.2a1 1 0 0 1-.4-.4l-.2-.6Zm.6-.3v.6l.3.3h.7l.2-.3v-1a.6.6 0 0 0-.6-.3.6.6 0 0 0-.5.3l-.1.4Zm2.2 3.5v-.3c0-.2 0-.4.2-.6 0-.2.2-.3.4-.4l.6-.2c.2 0 .4 0 .6.2.2 0 .3.2.4.4l.1.6V66.7l-.5.4-.6.2c-.3 0-.5 0-.6-.2l-.4-.4-.2-.6Zm.6-.3v.6l.2.3.4.1.3-.1.2-.3.1-.3v-.7a.6.6 0 0 0-.6-.3.6.6 0 0 0-.6.3v.4Zm.8-3.5L27 66.8l-.4-.3 2.8-4.5.4.3ZM20.3 89.4v.6h-4v-.5l2.5-4h.5l-.6 1.2-1.7 2.7h3.3Zm-.8-3.8v5.7h-.7v-5.7h.7Zm5.2 2.4v.8c0 .5 0 1-.2 1.2 0 .3-.2.6-.3.8l-.6.4a2 2 0 0 1-.7.2l-.6-.1c-.2 0-.4-.2-.5-.3l-.4-.5-.3-.7v-3c.2-.3.3-.6.5-.7l.5-.5h1.4a1.4 1.4 0 0 1 .8.7l.3.7v1Zm-.8 1v-1.8l-.1-.5a1 1 0 0 0-.3-.3c0-.1-.1-.2-.3-.2a1 1 0 0 0-.3-.1 1 1 0 0 0-.5.1l-.3.3-.2.5-.1.9v1.7l.2.5.2.4.3.2h.8l.4-.4.2-.5V89Zm1.7-2v-.3c0-.2 0-.4.2-.6 0-.2.2-.3.4-.4l.6-.2c.3 0 .5 0 .6.2.2 0 .3.2.4.4l.2.6v.3c0 .2 0 .4-.2.6l-.4.4-.6.2-.6-.2a1 1 0 0 1-.4-.4l-.2-.6Zm.6-.3v.6l.3.3h.7l.2-.3v-1a.6.6 0 0 0-.6-.3.6.6 0 0 0-.5.3l-.1.4Zm2.2 3.5v-.3c0-.2 0-.4.2-.6 0-.2.2-.3.4-.4l.6-.2c.2 0 .4 0 .6.2.2 0 .3.2.4.4l.1.6V90.8l-.5.4-.6.2c-.3 0-.5 0-.6-.2l-.4-.4-.2-.6Zm.6-.3v.6l.2.3h.7l.2-.3.1-.3v-.7a.6.6 0 0 0-.6-.3.6.6 0 0 0-.6.3v.4Zm.8-3.5L27 90.8l-.4-.2 2.8-4.5.4.3ZM20.2 114.8v.6h-3.7v-.5l1.8-2.1.6-.7.2-.5.1-.4-.1-.5c0-.2-.2-.3-.3-.4a1 1 0 0 0-.6-.1l-.6.1a1 1 0 0 0-.4.5l-.1.6h-.7c0-.4 0-.7.2-1l.6-.6a2 2 0 0 1 1-.2c.4 0 .7 0 1 .2l.5.5c.2.3.2.5.2.8v.5l-.3.5a7.6 7.6 0 0 1-.8 1l-1.5 1.7h2.9Zm4.5-2.7v.8c0 .5 0 .9-.2 1.2 0 .3-.2.6-.3.8l-.6.4a2.2 2.2 0 0 1-1.3 0c-.2 0-.4 0-.5-.2l-.4-.5-.3-.7v-3l.5-.8.5-.4h1.4a1.4 1.4 0 0 1 .8.7l.3.7v1Zm-.8 1v-1.8l-.1-.5a1 1 0 0 0-.3-.4l-.3-.1-.3-.1a1 1 0 0 0-.5 0l-.3.4-.2.5-.1.9v1.7l.2.5.2.4.3.2h.8l.4-.4.2-.5v-.8Zm1.7-2v-.3c0-.2 0-.4.2-.6a1 1 0 0 1 1-.6c.3 0 .5 0 .6.2.2 0 .3.2.4.4l.2.6v.3c0 .2 0 .4-.2.6l-.4.4-.6.1-.6-.1a1 1 0 0 1-.4-.4l-.2-.6Zm.6-.3v.6l.3.3h.7l.2-.3v-1a.6.6 0 0 0-.6-.3h-.3l-.2.3-.1.4Zm2.2 3.5v-.3c0-.2 0-.4.2-.6a1 1 0 0 1 1-.6c.2 0 .4 0 .6.2.2 0 .3.2.4.4l.1.6V114.9l-.5.4-.6.2-.6-.2-.4-.4-.2-.6Zm.6-.3v.6l.2.3h.7l.2-.3.1-.3v-.7a.6.6 0 0 0-.6-.3h-.4l-.2.3v.4Zm.8-3.5-2.8 4.4-.4-.2 2.8-4.5.4.3ZM25 136.2v2l-.4.8-.6.4a2 2 0 0 1-.8.1h-.6l-.5-.3-.3-.5-.3-.7v-3l.4-.8.6-.4.7-.1h.7a1.4 1.4 0 0 1 .8.8l.3.7v1Zm-.7 1V135.4l-.2-.5a1 1 0 0 0-.2-.4l-.3-.2a1 1 0 0 0-.4 0 1 1 0 0 0-.4 0l-.4.4-.2.5v2.6l.2.5c0 .2 0 .3.2.4l.3.2h.8c.1-.1.3-.2.3-.4l.3-.5v-.8Zm1.7-2v-.3c0-.2 0-.4.2-.6 0-.2.2-.3.4-.4.1-.2.4-.2.6-.2.2 0 .4 0 .6.2.2 0 .3.2.4.4l.2.6v.3c0 .2 0 .4-.2.6l-.4.4-.6.1-.6-.1a1 1 0 0 1-.4-.4l-.2-.6Zm.6-.3v.6l.2.3h.7l.3-.3v-1a.6.6 0 0 0-.6-.3.6.6 0 0 0-.6.3v.4Zm2.2 3.5v-.3l.1-.6a1 1 0 0 1 1-.6c.3 0 .5 0 .7.2.2 0 .3.2.4.4l.1.6v.3l-.1.6-.4.4-.6.1-.7-.1-.4-.4-.1-.6Zm.5-.3v.3l.1.3.2.3h.7l.2-.3v-1a.6.6 0 0 0-.5-.3.6.6 0 0 0-.6.3v.4Zm.8-3.5-2.7 4.4-.4-.2 2.7-4.5.4.3Z"/><path stroke="#000" stroke-opacity=".5" stroke-width=".4" d="M36 16h152M36 40.3h152M36 64.5h152M36 88.8h152M36 113h152"/><path fill="#000" fill-opacity=".5" d="M40.8 141.3v5.7h-.7v-4.8l-1.5.5v-.6l2.1-.8h.1Zm4.5 0v5.7h-.7v-4.8l-1.5.5v-.6l2.1-.8h.1Zm8.7 0v5.7h-.8l-2.8-4.4v4.4h-.8v-5.7h.8l2.8 4.4v-4.4h.8Zm1 3.6c0-.4 0-.6.2-.9 0-.3.2-.5.3-.7l.6-.4c.3-.2.5-.2.8-.2.3 0 .6 0 .8.2.3 0 .5.2.6.4l.4.7.2.8v.1c0 .3 0 .6-.2.9l-.4.7a1.8 1.8 0 0 1-1.4.6 1.8 1.8 0 0 1-1.8-1.3v-.9Zm.7 0 .1.6.2.5.4.4h1.1l.3-.4.3-.5v-1.2c0-.2-.2-.4-.3-.5a1 1 0 0 0-.9-.5 1 1 0 0 0-.5.1l-.4.4-.2.5v.5Zm5.3 1.4 1.2-3.5h.7l-1.5 4.2h-.5l.1-.7Zm-1-3.5 1.2 3.6.1.6h-.5l-1.5-4.2h.7ZM71.6 141.3v5.7h-.8v-4.8l-1.4.5v-.6l2-.8h.2Zm5.8 5.1v.6h-3.7v-.5l1.9-2 .5-.7.3-.5v-1l-.4-.3a1 1 0 0 0-.6-.2c-.2 0-.4 0-.6.2a1 1 0 0 0-.4.4l-.1.6h-.7c0-.3 0-.6.2-.9.1-.3.3-.5.6-.6a2 2 0 0 1 1-.3l1 .2c.2.2.4.3.5.6.2.2.3.4.3.8l-.1.5-.3.5a7.8 7.8 0 0 1-.8 1l-1.4 1.6h2.8Zm7.3-5v5.6H84l-2.9-4.4v4.4h-.7v-5.7h.7l2.9 4.4v-4.4h.7Zm1 3.5.2-.9c0-.3.2-.5.4-.7l.6-.4c.2-.2.5-.2.8-.2.3 0 .6 0 .8.2.2 0 .4.2.6.4l.4.7.1.8v.1l-.1.9-.4.7a1.8 1.8 0 0 1-1.4.6 1.8 1.8 0 0 1-1.8-1.3l-.1-.9Zm.8 0v.6l.3.5c0 .2.2.3.4.4h1l.4-.4.2-.5v-1.2l-.2-.5a1 1 0 0 0-.9-.5 1 1 0 0 0-.5.1l-.4.4-.2.5-.1.5Zm5.2 1.4 1.2-3.5h.7l-1.5 4.2h-.5l.1-.7Zm-1-3.5 1.3 3.6v.6h-.4l-1.6-4.2h.8ZM102.3 141.3v5.7h-.7v-4.8l-1.5.5v-.6l2.1-.8h.1Zm3.2 2.5h.5l.6-.1.4-.4.1-.5v-.5l-.4-.4h-1.1a.9.9 0 0 0-.5.9h-.7c0-.3 0-.6.2-.8l.6-.6a2 2 0 0 1 1-.2l.8.2c.3.1.5.3.6.6.2.2.3.5.3.8l-.1.5-.4.5-.5.3-.8.1h-.6v-.4Zm0 .6v-.4h1.6l.5.4.3.5v1.2l-.5.5-.5.4h-1.5l-.5-.3a1.4 1.4 0 0 1-.6-1.2h.8v.5l.5.4h1.1l.4-.4.1-.6-.1-.6a.9.9 0 0 0-.5-.3l-.6-.1h-.5Zm10-3v5.6h-.8l-2.8-4.4v4.4h-.8v-5.7h.8l2.8 4.4v-4.4h.8Zm1 3.5c0-.4 0-.6.2-.9 0-.3.2-.5.3-.7l.6-.4c.3-.2.5-.2.8-.2.3 0 .6 0 .8.2.3 0 .5.2.6.4l.4.7.2.8v.1c0 .3 0 .6-.2.9l-.4.7a1.8 1.8 0 0 1-1.4.6 1.8 1.8 0 0 1-1.8-1.3v-.9Zm.7 0 .1.6.2.5.4.4h1.1l.3-.4.3-.5v-1.2c0-.2-.2-.4-.3-.5a1 1 0 0 0-.9-.5 1 1 0 0 0-.5.1l-.4.4-.2.5v.5Zm5.3 1.4 1.2-3.5h.7l-1.5 4.2h-.5l.1-.7Zm-1-3.5 1.2 3.6.1.6h-.5l-1.5-4.2h.7ZM133 141.3v5.7h-.7v-4.8l-1.4.5v-.6l2-.8h.2Zm6 3.8v.6h-4v-.4l2.5-4h.6l-.7 1.2-1.7 2.6h3.3Zm-.8-3.8v5.7h-.7v-5.7h.7Zm8 0v5.7h-.7l-2.9-4.4v4.4h-.7v-5.7h.7l2.9 4.4v-4.4h.7Zm1 3.6.2-.9c0-.3.2-.5.4-.7l.6-.4c.2-.2.5-.2.8-.2.3 0 .6 0 .8.2.2 0 .4.2.6.4l.4.7.1.8v.1l-.1.9-.4.7a1.8 1.8 0 0 1-1.4.6 1.8 1.8 0 0 1-1.8-1.3l-.1-.9Zm.8 0v.6l.3.5c0 .2.2.3.4.4h1l.4-.4.2-.5v-1.2l-.2-.5a1 1 0 0 0-.9-.5 1 1 0 0 0-.5.1l-.4.4-.2.5-.1.5Zm5.2 1.4 1.2-3.5h.7l-1.5 4.2h-.5l.1-.7Zm-1-3.5 1.3 3.6v.6h-.4l-1.6-4.2h.8ZM163.8 141.3v5.7h-.7v-4.8l-1.5.5v-.6l2.1-.8h.1Zm3 3-.5-.2.3-2.8h2.9v.7h-2.3l-.2 1.5.4-.1.5-.1.8.1.5.4.3.6a2.5 2.5 0 0 1 0 1.5c0 .3-.2.5-.3.6-.1.2-.3.3-.6.4a2 2 0 0 1-.8.2l-.6-.1-.6-.3-.3-.5a2 2 0 0 1-.2-.7h.7l.1.5.4.4h1l.3-.3.2-.4a1.8 1.8 0 0 0 0-1c0-.2 0-.3-.2-.4a1 1 0 0 0-.3-.3h-1.1l-.3.3Zm10.2-3v5.7h-.8l-2.8-4.4v4.4h-.8v-5.7h.8l2.8 4.4v-4.4h.8Zm1 3.6c0-.4 0-.6.2-.9 0-.3.2-.5.3-.7l.6-.4c.3-.2.5-.2.8-.2.3 0 .6 0 .8.2.3 0 .5.2.6.4l.4.7.2.8v.1c0 .3 0 .6-.2.9l-.4.7a1.8 1.8 0 0 1-1.4.6 1.8 1.8 0 0 1-1.8-1.3v-.9Zm.7 0 .1.6.2.5.4.4h1.1l.3-.4.3-.5v-1.2c0-.2-.2-.4-.3-.5a1 1 0 0 0-.9-.5 1 1 0 0 0-.5.1l-.4.4-.2.5v.5Zm5.3 1.4 1.2-3.5h.7l-1.5 4.2h-.5l.1-.7Zm-1-3.5 1.2 3.6.1.6h-.5l-1.5-4.2h.7Z"/><defs><linearGradient id="b" x1="108.4" x2="108.4" y1="149.8" y2="-15.5" gradientUnits="userSpaceOnUse"><stop offset=".4" stop-color="#F46047"/><stop offset=".4" stop-color="#FEBA3D"/><stop offset=".5" stop-color="#FEBA3D"/><stop offset=".5" stop-color="#6FCC4C"/><stop offset=".7" stop-color="#6FCC4C"/><stop offset=".7" stop-color="#516FC9"/></linearGradient><linearGradient id="c" x1="107.3" x2="107.3" y1="121.6" y2="-15.5" gradientUnits="userSpaceOnUse"><stop offset=".2" stop-color="#F04022"/><stop offset=".2" stop-color="#FFA600"/><stop offset=".4" stop-color="#FFA600"/><stop offset=".4" stop-color="#3FA71A"/><stop offset=".6" stop-color="#3FA71A"/><stop offset=".6" stop-color="#305AD7"/></linearGradient><clipPath id="a"><path fill="#fff" d="M36 7h152v129H36z"/></clipPath></defs></svg>