<svg xmlns="http://www.w3.org/2000/svg" width="200" height="160" fill="none"><rect width="200" height="160" fill="#fff" rx="4"/><rect width="199" height="159" x=".5" y=".5" stroke="#000" stroke-opacity=".1" rx="3.5"/><path fill="#3B911C" d="m32 22.5 2.9 2.9-6.1 6-5-5-9.3 9.3 1.8 1.8 7.5-7.5 5 5 7.8-7.9 2.9 2.9v-7.5H32Z"/><path fill="#000" fill-opacity=".9" d="M55.5 27.1v1.4h-5.3v-1.4h5.3Zm-4.8-8.6v10H49v-10h1.7Zm4.1 4.2V24h-4.6v-1.3h4.6Zm.7-4.2V20h-5.3v-1.4h5.3Zm3.7 10h-1.6v-8.1c0-.6.1-1 .3-1.4.2-.4.5-.7.9-.8a3.4 3.4 0 0 1 2.3-.2v1.3l-.3-.1a4 4 0 0 0-.4 0l-.6.1a1 1 0 0 0-.4.4l-.2.7v8.1Zm1.6-7.4v1.2h-4.3v-1.2h4.3Zm2.7 7.4h-1.7v-7.9c0-.6.2-1 .4-1.5.2-.4.6-.7 1-1l1.6-.2h1l1.1.4-.2 1.3-.8-.2-1-.1c-.5 0-.8 0-1 .3-.3.2-.4.6-.4 1v7.9Zm1.5-7.4v1.2h-4.3v-1.2H65Zm2.7 0v7.4h-1.6v-7.4h1.6Zm5.1 6.2.7-.1c.3-.1.4-.3.6-.5l.2-.6h1.5c0 .4-.1.9-.4 1.3a3 3 0 0 1-1 .9c-.5.2-1 .3-1.6.3-.5 0-1 0-1.4-.3a3 3 0 0 1-1-.8c-.4-.3-.6-.7-.7-1.1-.2-.5-.2-1-.2-1.5v-.2c0-.5 0-1 .2-1.4.1-.5.3-.9.6-1.2.3-.4.6-.6 1-.8l1.5-.3c.6 0 1.1 0 1.6.3.4.3.8.6 1 1 .3.4.4.9.4 1.4h-1.5L74 23l-.5-.5c-.2-.2-.5-.2-.8-.2-.3 0-.6 0-.8.2l-.5.5c-.2.3-.3.5-.3.8v2.1c0 .2.1.5.3.7 0 .2.3.4.5.5.2.2.5.2.8.2Zm6.3-6.2v7.4h-1.6v-7.4H79Zm-1.7-2c0-.2 0-.4.2-.6l.7-.2c.3 0 .5 0 .7.2.2.2.2.4.2.7 0 .2 0 .4-.2.6a1 1 0 0 1-.7.2 1 1 0 0 1-.7-.2.8.8 0 0 1-.2-.6Zm7 9.5c-.5 0-1 0-1.5-.2a3.3 3.3 0 0 1-1.8-2 4 4 0 0 1-.2-1.3v-.3c0-.6 0-1.1.2-1.6s.4-.9.7-1.2a3 3 0 0 1 1.1-.8l1.3-.2c.6 0 1 0 1.4.2l1 .8c.3.3.5.7.6 1.1l.2 1.5v.7h-5.7V24h4V24l-.1-.9-.5-.6-.9-.2c-.2 0-.5 0-.7.2-.2 0-.4.2-.5.5l-.4.7V26l.5.7.6.5.8.1a2.3 2.3 0 0 0 1.9-.9l.9.9-.7.6c-.2.2-.5.4-.9.5-.4.2-.8.2-1.3.2Zm6.2-6v5.9h-1.7v-7.4h1.6v1.6Zm-.3 2h-.6c0-.6.1-1 .3-1.5.1-.5.3-.8.6-1.1a2.7 2.7 0 0 1 2-1l1 .1.8.5.5.8.1 1.3v4.8h-1.6v-4.8c0-.3 0-.6-.2-.8a.9.9 0 0 0-.4-.5l-.7-.1a1.6 1.6 0 0 0-1.4.7l-.3.7-.1.8Zm9.7 2.7.7-.1.5-.5.3-.6h1.5c0 .4-.1.9-.4 1.3a3 3 0 0 1-1 .9c-.5.2-1 .3-1.6.3-.6 0-1 0-1.5-.3a3 3 0 0 1-1-.8c-.3-.3-.5-.7-.6-1.1-.2-.5-.2-1-.2-1.5v-.2c0-.5 0-1 .2-1.4.1-.5.3-.9.6-1.2.3-.4.6-.6 1-.8l1.5-.3c.6 0 1.1 0 1.6.3.4.3.8.6 1 1 .3.4.4.9.4 1.4h-1.5l-.2-.7-.5-.5c-.3-.2-.5-.2-.8-.2-.3 0-.6 0-.8.2-.3.1-.4.3-.6.5l-.2.8-.1.9v1.2l.3.7c.2.2.3.4.6.5.2.2.5.2.8.2Zm6.7.4 2-6.6h1.8l-3 8.5-.3.6c0 .2-.2.4-.4.6a2 2 0 0 1-.7.5l-.9.2h-.4a7 7 0 0 1-.4-.1V30a6 6 0 0 0 .3 0h.7l.4-.4c.2-.1.3-.3.3-.6l.6-1.4Zm-1.2-6.6 1.8 5.5.3 1.8-1.1.3-2.7-7.6h1.7Z"/><path fill="#000" fill-opacity=".4" d="M52.9 41.6v.9h-3.4v-1H53Zm-3-5.8v6.7h-1.2v-6.7h1.1Zm6.8 5.7v-2.4l-.1-.4-.3-.3a1 1 0 0 0-.5-.1h-.5l-.3.3-.1.4h-1.1l.1-.6.4-.5c.2-.1.4-.3.7-.3l.8-.2 1 .2c.3.1.6.3.7.6.2.2.3.6.3 1V42l.2.4v.1h-1.2l-.1-.5v-.5Zm.1-2v.7h-1.3l-.4.2a.7.7 0 0 0-.3.6v.4l.3.2.5.1a1.2 1.2 0 0 0 1-.5l.1-.4.4.5-.2.4c0 .2-.2.3-.3.5a1.7 1.7 0 0 1-1.2.4c-.4 0-.7 0-1-.2l-.5-.5c-.2-.3-.2-.5-.2-.8l.1-.7.5-.5.7-.3 1-.1h.8Zm5.1 1.7v-.3l-.4-.3a3 3 0 0 0-.7-.2l-.7-.2-.6-.3-.3-.4-.1-.6v-.5l.5-.5c.1-.2.3-.3.6-.3l.8-.2 1 .2.7.6c.2.2.3.5.3.8h-1.1l-.1-.4-.3-.2a1 1 0 0 0-.5-.1 1 1 0 0 0-.5 0l-.3.3a.6.6 0 0 0 0 .5l.1.2.4.1.5.2 1 .3.6.5.2.7a1.3 1.3 0 0 1-.5 1 2 2 0 0 1-.7.4H61l-1.2-.1-.7-.7-.2-.8h1l.2.5c.1.2.3.2.4.3h1l.3-.2.1-.3Zm4.5-3.7v.8h-2.8v-.8h2.8Zm-2-1.2h1.2v5.2l.2.1h.3a1.7 1.7 0 0 0 .4 0v.9a2.8 2.8 0 0 1-.7 0H65a1 1 0 0 1-.5-.5l-.1-.8v-4.9Zm8.6 5v-3.8h1.1v5h-1v-1.2Zm.2-1h.4l-.1 1-.4.6c-.1.2-.3.4-.6.5a2 2 0 0 1-.8.2 2 2 0 0 1-.7-.1c-.2 0-.4-.2-.5-.3l-.4-.6V37.5h1v3.7l.3.3.2.1.3.1c.3 0 .6 0 .8-.2l.4-.5v-.7Zm3.4-1.8v6h-1.1v-7h1v1Zm3.2 1.5-.1 1c0 .4-.2.6-.4.9-.1.2-.3.4-.6.5l-.8.2c-.3 0-.6 0-.8-.2-.2 0-.4-.3-.6-.5l-.4-.7-.2-1V40l.2-1 .4-.8a1.7 1.7 0 0 1 1.4-.7c.3 0 .6 0 .8.2.3.1.5.3.6.5l.4.8.1 1Zm-1 0-.1-.7-.2-.5a1 1 0 0 0-1-.5l-.4.1a1 1 0 0 0-.4.3l-.2.4-.1.5v.9l.2.6c0 .2.2.3.4.4.1.2.3.2.6.2l.5-.1.4-.4.2-.5v-.6Zm5.2 1.5v-6h1.1v7h-1v-1ZM80.8 40V40l.1-1c0-.4.2-.6.4-.9a1.7 1.7 0 0 1 1.4-.7c.3 0 .6 0 .8.2l.6.5.4.8.2 1v.3l-.2 1-.4.7a1.6 1.6 0 0 1-1.4.7 1.7 1.7 0 0 1-1.4-.7l-.4-.8-.1-1Zm1-.1.1.7.2.5.4.4.5.1c.2 0 .5 0 .6-.2.2 0 .3-.2.4-.4l.2-.7v-.8l-.1-.5-.3-.4a1 1 0 0 0-.3-.3H83a1 1 0 0 0-.5 0 1 1 0 0 0-.4.4l-.2.5v.7Zm7.5 1.5v-2.4l-.1-.4c0-.2-.2-.3-.3-.3a1 1 0 0 0-.5-.1h-.5l-.3.3v.4h-1.2c0-.2 0-.4.2-.6 0-.2.2-.4.4-.5l.6-.3.9-.2 1 .2c.2.1.5.3.6.6.2.2.3.6.3 1V42l.2.4v.1h-1.2V42l-.1-.5Zm.1-2v.7H88.1l-.4.2a.7.7 0 0 0-.3.6l.1.4s.1.2.3.2l.4.1a1.2 1.2 0 0 0 1-.5l.2-.4.3.5c0 .2 0 .3-.2.4 0 .2-.2.3-.3.5a1.7 1.7 0 0 1-1.2.4c-.3 0-.6 0-.9-.2l-.6-.5-.2-.8.1-.7.5-.5.7-.3 1-.1h.8Zm4.6-2v.8h-2.8v-.8H94Zm-2-1.2h1.1v4.8l.1.4.2.1h.3a1.7 1.7 0 0 0 .4 0v.9a2.8 2.8 0 0 1-.8 0h-.6a1 1 0 0 1-.5-.5l-.2-.8v-4.9Zm5.3 6.3c-.4 0-.7 0-1-.2a2.2 2.2 0 0 1-1.3-1.3l-.1-1V40l.1-1 .5-.9.7-.5 1-.2c.3 0 .6 0 .9.2l.6.5.4.8.2 1v.4h-3.9v-.8h2.8c0-.2 0-.4-.2-.6a1 1 0 0 0-.3-.4 1 1 0 0 0-.6-.2 1 1 0 0 0-.8.5l-.2.5-.1.7v.8l.3.5.5.3.5.1a1.5 1.5 0 0 0 1.3-.6l.6.6-.4.4-.7.4h-.8Zm8.5-6.8v6.7h-1v-5.4l-1.7.6v-1l2.6-1h.1Zm5.6 5.7v-6h1.2v7h-1l-.2-1Zm-3.2-1.4V40l.1-1 .4-.9.6-.5.9-.2c.3 0 .5 0 .8.2l.5.5.4.8.2 1v.3c0 .3 0 .7-.2 1 0 .3-.2.5-.4.7a1.6 1.6 0 0 1-1.3.7 1.7 1.7 0 0 1-1.5-.7l-.4-.8v-1Zm1.1-.1v.7l.3.5c0 .2.2.3.3.4l.5.1c.3 0 .5 0 .7-.2l.3-.4.2-.7v-1.3l-.3-.4a1 1 0 0 0-.4-.3h-.5a1 1 0 0 0-.5 0 1 1 0 0 0-.3.4l-.2.5v.7Zm10 1.5v-2.4l-.1-.4-.3-.3a1 1 0 0 0-.5-.1h-.5l-.3.3-.1.4h-1.1l.1-.6.4-.5c.2-.1.4-.3.7-.3l.8-.2 1 .2c.3.1.6.3.7.6.2.2.3.6.3 1V42l.2.4v.1h-1.2l-.1-.5v-.5Zm.1-2v.7h-1.3l-.4.2a.7.7 0 0 0-.3.6v.4l.3.2.5.1a1.2 1.2 0 0 0 1-.5l.1-.4.4.5-.2.4c0 .2-.2.3-.3.5a1.7 1.7 0 0 1-1.2.4c-.4 0-.7 0-1-.2l-.5-.5-.2-.8.1-.7.5-.5.7-.3 1-.1h.8Zm5.5-2h1v4.9c0 .4 0 .8-.3 1.1-.2.3-.4.6-.8.7a2.7 2.7 0 0 1-1.8.2l-.6-.3c-.3-.1-.4-.3-.6-.5l.5-.6.6.5a1.6 1.6 0 0 0 1.3 0l.5-.5.1-.6v-3.7l.1-1.2Zm-3.4 2.6V40c0-.4 0-.7.2-1 0-.4.2-.6.4-.9.1-.2.3-.4.6-.5l.8-.2c.3 0 .6 0 .8.2.3.1.5.3.6.5l.4.8.2 1v.3l-.2 1-.4.7a1.6 1.6 0 0 1-1.4.7 1.8 1.8 0 0 1-1.4-.7l-.4-.8-.2-1Zm1.1-.1.1.7.2.5.4.4.5.1c.3 0 .5 0 .6-.2.2 0 .3-.2.4-.4l.2-.7v-.8l-.1-.5-.2-.4a1 1 0 0 0-.4-.3h-.5a1 1 0 0 0-.9.4l-.2.5v.7Zm4.5 0 .1-1 .5-.8.7-.6 1-.2 1 .2.7.6.4.8.2 1c0 .4 0 .8-.2 1 0 .4-.2.6-.4.9a2.1 2.1 0 0 1-1.7.7c-.4 0-.7 0-1-.2l-.7-.5-.5-.8a3 3 0 0 1-.1-1Zm1 0 .1.7.2.5.4.4.6.1a1 1 0 0 0 .9-.5l.2-.5v-1.4l-.2-.5a1 1 0 0 0-1-.5 1 1 0 0 0-.5.1 1 1 0 0 0-.4.4l-.2.5v.7Z"/><path fill="#3B911C" d="M76.3 82.7v2.9L63.8 114h-5.5l12.5-27.2H54.6v-4h21.7Zm24.7 13v5.2c0 2.4-.2 4.5-.7 6.2a11 11 0 0 1-2 4.2 8 8 0 0 1-3.3 2.4c-1.3.5-2.7.7-4.2.7a12 12 0 0 1-3.4-.4 8.4 8.4 0 0 1-5-4.1c-.6-1.1-1.1-2.4-1.4-3.9-.3-1.5-.5-3.2-.5-5.1v-5.2c0-2.4.2-4.5.7-6.2a11 11 0 0 1 2.1-4.1 8 8 0 0 1 3.2-2.4c1.3-.5 2.7-.7 4.2-.7 1.3 0 2.4.1 3.5.5a8 8 0 0 1 5 4c.6 1 1 2.3 1.3 3.8.4 1.5.5 3.2.5 5.1Zm-5.2 5.9V95c0-1.3 0-2.4-.2-3.3-.1-1-.3-1.8-.6-2.5-.3-.6-.6-1.2-1-1.6l-1.5-1a5 5 0 0 0-1.8-.2c-.8 0-1.5.2-2.1.5-.6.3-1.2.8-1.6 1.4a8 8 0 0 0-1 2.7c-.2 1-.3 2.4-.3 4v6.6c0 1.2 0 2.4.2 3.3.2 1 .4 1.8.7 2.5a6 6 0 0 0 1 1.7c.4.4.9.7 1.4.9.6.2 1.1.3 1.8.3.8 0 1.5-.2 2.2-.5a4 4 0 0 0 1.6-1.5c.4-.7.7-1.6 1-2.7l.2-4Zm20.8-11.2v-1.7c0-1.2.3-2.2.8-3.2a6 6 0 0 1 2.2-2.4c1-.5 2.2-.8 3.6-.8s2.6.3 3.6.8c1 .6 1.7 1.4 2.3 2.4.5 1 .7 2 .7 3.2v1.7c0 1.1-.2 2.2-.7 3.2-.5 1-1.3 1.7-2.3 2.3-1 .6-2.1 1-3.6 1a7 7 0 0 1-3.6-1 6 6 0 0 1-2.2-2.3c-.5-1-.8-2-.8-3.2Zm3.6-1.7v1.7c0 .6.1 1.1.3 1.6.2.5.6 1 1 1.3.5.3 1 .4 1.7.4s1.3-.1 1.7-.4c.5-.3.8-.8 1-1.3.2-.5.3-1 .3-1.6v-1.7a4 4 0 0 0-.3-1.6c-.2-.5-.6-1-1-1.3-.5-.3-1-.5-1.7-.5s-1.2.2-1.7.5a3 3 0 0 0-1 1.3c-.2.5-.3 1-.3 1.6Zm11.5 19.3v-1.7c0-1.1.2-2.2.8-3.2a6 6 0 0 1 2.2-2.3c1-.6 2.2-1 3.6-1s2.6.4 3.6 1 1.7 1.3 2.2 2.3c.6 1 .8 2 .8 3.2v1.7c0 1.2-.2 2.3-.8 3.2-.5 1-1.2 1.8-2.2 2.4-1 .6-2.1.9-3.5.9a7 7 0 0 1-3.7-1 6 6 0 0 1-2.2-2.3c-.6-1-.8-2-.8-3.2Zm3.6-1.7v1.7c0 .6.1 1.1.3 1.6.3.6.6 1 1 1.3.5.3 1.1.5 1.7.5a3 3 0 0 0 1.8-.5c.4-.3.8-.7 1-1.2.2-.6.3-1.1.3-1.7v-1.7a4 4 0 0 0-.4-1.6 2.8 2.8 0 0 0-2.7-1.7c-.7 0-1.2.1-1.7.4a3 3 0 0 0-1 1.3c-.2.5-.3 1-.3 1.6Zm4.3-19.1-15.3 24.4-2.6-1.5 15.2-24.4 2.7 1.5Z"/></svg>