<svg xmlns="http://www.w3.org/2000/svg" width="200" height="160" fill="none"><rect width="200" height="160" fill="#fff" rx="4"/><rect width="199" height="159" x=".5" y=".5" stroke="#000" stroke-opacity=".1" rx="3.5"/><g clip-path="url(#a)"><path fill="url(#b)" d="m76 51.3-21.9 56-7.6 17v19.3H194v-25.3l-.5-26.3-10.5 40-6-25-2.7 7.3-11.2 27.5c-7.6-29.9-13.8-41-22-70.4l-8.4 43.9h-10.9L119.7 44l-4.2-28-20.1 70-4.8-2.2-14.5-32.5Z"/><path stroke="url(#c)" stroke-width=".9" d="m46.8 124.4 7.6-17.2 22-56 14.5 32.6 4.8 2.1 20-70 4.6 35.3 1.8 64h11.4l7.2-44.7 22.6 70.9 11.3-27.6 2.6-7.4 6.1 25.5 10-39.9"/></g><path fill="#000" fill-opacity=".5" d="M12.4 26.9h.1l1-.2c.3-.1.5-.3.6-.5.2-.2.3-.4.3-.7l.1-.7v-1.6l-.3-.5a1 1 0 0 0-.4-.3.9.9 0 0 0-.4-.1 1 1 0 0 0-.8.4l-.2.4a1.9 1.9 0 0 0 .2 1.4c0 .2.2.3.3.4h.9a1.3 1.3 0 0 0 .7-.7l.1-.4h.3v.6a2 2 0 0 1-1 1l-.6.2c-.3 0-.6 0-.8-.2L12 25a2 2 0 0 1-.3-.6 2.6 2.6 0 0 1 0-1.5l.4-.6.5-.4.8-.2c.3 0 .6 0 .8.2.3.1.5.3.6.5l.3.8.1.8v1.2c0 .3-.1.6-.3.8 0 .3-.2.6-.4.8l-.8.5-1.2.2v-.6Zm7.5-2.7v.8l-.1 1.2-.4.8-.5.4a2 2 0 0 1-.8.1h-.6c-.2 0-.3-.2-.5-.3l-.4-.5-.2-.7v-3l.4-.8.6-.4.7-.1h.6a1.4 1.4 0 0 1 .9.8l.2.7.1 1Zm-.7 1V23.4l-.2-.5a1 1 0 0 0-.2-.4l-.3-.1a1 1 0 0 0-.4-.1 1 1 0 0 0-.4 0l-.4.4-.2.5v2.6l.1.5.2.4.3.2h.9l.3-.4.2-.5v-.8Zm2.6-1.1v3.4H21v-4.3h.7v.9Zm-.2 1h-.3v-.7l.4-.7.5-.4.8-.1h.5a1.1 1.1 0 0 1 .8.8v3.5h-.7v-3.3l-.4-.3-.5-.1h-.5l-.4.4-.1.5v.5Zm2.7-.3-.4.1v-.6l.4-.6.5-.4.7-.1h.6l.5.3.3.5v3.5h-.7V24l-.4-.2a1.2 1.2 0 0 0-.9 0c-.1 0-.2 0-.3.2l-.2.3v.4Zm4.4-1.7h.6l.2-.2v-.5l-.5-.2-.3.1-.2.3H28c0-.2 0-.3.2-.5l.4-.3h1.1l.4.3.2.5c0 .1 0 .3-.2.4l-.3.3h-1v-.2Zm0 .4v-.3h.4l.6.1c.2 0 .3.2.4.3l.1.4-.1.5a1 1 0 0 1-.5.3l-.6.1h-.5a1 1 0 0 1-.5-.4.8.8 0 0 1-.1-.5h.6l.1.3.4.1.5-.1.1-.3v-.3l-.3-.1h-.6Zm5-1.7L31.4 28h-.7l2.4-6.2h.6Zm1.7-.3v6h-.8v-6h.8Zm-.2 3.7h-.3l.1-.8.4-.7a1.6 1.6 0 0 1 1.2-.5h.6l.4.3.3.5v3.5h-.7v-3.3l-.3-.3a1 1 0 0 0-.5-.1 1 1 0 0 0-.9.4 1.6 1.6 0 0 0-.3 1Zm4.7-1.3v3.6h-.7v-4.3h.7v.7Zm1.3-.7v.7h-.8a1 1 0 0 0-.3.3l-.2.3-.1.4-.2.1v-.7l.3-.6.4-.4a1.1 1.1 0 0 1 1 0ZM15.4 48.3v.4L13 54h-.7l2.3-5.1h-3v-.6h3.8Zm4.5 2.4v.8l-.1 1.2-.4.8-.5.4a2 2 0 0 1-.8.1h-.6c-.2 0-.3-.2-.5-.3l-.4-.5-.2-.7v-3l.4-.8.6-.4.7-.1h.6a1.4 1.4 0 0 1 .9.8l.2.7.1 1Zm-.7 1V49.9l-.2-.5a1 1 0 0 0-.2-.4l-.3-.1a1 1 0 0 0-.4-.1 1 1 0 0 0-.4 0l-.4.4-.2.5v2.6l.1.5.2.4.3.2h.9l.3-.4.2-.5v-.8Zm2.6-1.1V54H21v-4.3h.7v.9Zm-.2 1h-.3V51l.4-.7.5-.4.8-.1h.5a1.1 1.1 0 0 1 .8.8V54h-.7v-3.3l-.4-.3-.5-.1h-.5l-.4.4-.1.5v.5Zm2.7-.3-.4.1v-.6l.4-.6.5-.4.7-.1h.6l.5.3.3.5V54h-.7v-3.4l-.4-.2a1.2 1.2 0 0 0-.9 0c-.1 0-.2 0-.3.2l-.2.3v.4Zm4.4-1.7h.6l.2-.2v-.5l-.5-.2-.3.1-.2.3H28c0-.2 0-.3.2-.5l.4-.3h1.1l.4.3.2.5c0 .1 0 .3-.2.4l-.3.3h-1v-.2Zm0 .4v-.3h.4l.6.1c.2 0 .3.2.4.3l.1.4-.1.5a1 1 0 0 1-.5.3l-.6.1h-.5a1 1 0 0 1-.5-.4.8.8 0 0 1-.1-.5h.6l.1.3.4.1.5-.1.1-.3v-.3l-.3-.1h-.6Zm5-1.7-2.3 6.2h-.7l2.4-6.2h.6Zm1.7-.3v6h-.8v-6h.8Zm-.2 3.7h-.3l.1-.8.4-.7a1.6 1.6 0 0 1 1.2-.5h.6l.4.3.3.5V54h-.7v-3.3l-.3-.3a1 1 0 0 0-.5-.1 1 1 0 0 0-.9.4 1.6 1.6 0 0 0-.3 1Zm4.7-1.3V54h-.7v-4.3h.7v.7Zm1.3-.7v.7h-.8a1 1 0 0 0-.3.3l-.2.3-.1.4-.2.1v-.7l.3-.6.4-.4a1.1 1.1 0 0 1 1 0ZM12.6 77.8l-.5-.2.2-2.8h3v.6H13l-.2 1.6.4-.2h1.2l.6.5.3.6.1.8v.7l-.4.6-.6.4a2.2 2.2 0 0 1-1.4 0l-.6-.2-.4-.5a2 2 0 0 1-.1-.7h.6l.2.5c.1.2.2.3.4.3l.5.2.5-.1.3-.3.2-.4a1.8 1.8 0 0 0 0-1c0-.2 0-.3-.2-.4a1 1 0 0 0-.3-.3l-.5-.1H13l-.4.4Zm7.3-.6v.8l-.1 1.2-.4.8-.5.4a2 2 0 0 1-.8.1h-.6c-.2 0-.3-.2-.5-.3l-.4-.5-.2-.7v-3l.4-.8.6-.4.7-.1h.6a1.4 1.4 0 0 1 .9.8l.2.7.1 1Zm-.7 1V76.4l-.2-.5a1 1 0 0 0-.2-.4l-.3-.1a1 1 0 0 0-.4-.1 1 1 0 0 0-.4 0l-.4.4-.2.5v2.6l.1.5.2.4.3.2h.9l.3-.4.2-.5v-.8Zm2.6-1.1v3.4H21v-4.3h.7v.9Zm-.2 1h-.3v-.7l.4-.7.5-.4.8-.1h.5a1.1 1.1 0 0 1 .8.8v3.5h-.7v-3.3l-.4-.3-.5-.1h-.5l-.4.4-.1.5v.5Zm2.7-.3-.4.1v-.6l.4-.6.5-.4.7-.1h.6l.5.3.3.5v3.5h-.7V77l-.4-.2a1.2 1.2 0 0 0-.9 0c-.1 0-.2 0-.3.2l-.2.3v.4Zm4.4-1.7h.6l.2-.2v-.5l-.5-.2-.3.1-.2.3H28c0-.2 0-.3.2-.5l.4-.3h1.1l.4.3.2.5c0 .1 0 .3-.2.4l-.3.3h-1v-.2Zm0 .4v-.3h.4l.6.1c.2 0 .3.2.4.3l.1.4-.1.5a1 1 0 0 1-.5.3l-.6.1h-.5a1 1 0 0 1-.5-.4.8.8 0 0 1-.1-.5h.6l.1.3.4.1.5-.1.1-.3v-.3l-.3-.1h-.6Zm5-1.7L31.4 81h-.7l2.4-6.2h.6Zm1.7-.3v6h-.8v-6h.8Zm-.2 3.7h-.3l.1-.8.4-.7a1.6 1.6 0 0 1 1.2-.5h.6l.4.3.3.5v3.5h-.7v-3.3l-.3-.3a1 1 0 0 0-.5-.1 1 1 0 0 0-.9.4 1.6 1.6 0 0 0-.3 1Zm4.7-1.3v3.6h-.7v-4.3h.7v.7Zm1.3-.7v.7h-.8a1 1 0 0 0-.3.3l-.2.3-.1.4-.2.1v-.7l.3-.6.4-.4a1.1 1.1 0 0 1 1 0ZM12.8 103.8h.5c.2 0 .5 0 .6-.2.2 0 .3-.2.4-.3l.1-.5-.1-.6-.3-.3-.6-.1-.5.1a.9.9 0 0 0-.5.9h-.7c0-.3 0-.6.2-.8.1-.3.3-.4.6-.6a2 2 0 0 1 1-.2c.3 0 .6 0 .8.2.3.1.5.3.6.5.2.3.2.6.2 1v.4l-.4.4-.5.4-.8.1h-.6v-.4Zm0 .6v-.5h.6c.4 0 .7 0 .9.2l.6.3.2.5.1.5-.1.7-.4.5c-.2.2-.3.3-.6.3l-.7.1h-.7l-.5-.4a1.4 1.4 0 0 1-.6-1.1h.7c0 .2 0 .3.2.5l.3.3.6.2c.2 0 .4 0 .6-.2.2 0 .3-.2.4-.3l.1-.6-.1-.6a.9.9 0 0 0-.5-.3l-.6-.1h-.5Zm7.1-.7v.8l-.1 1.2-.4.8-.5.4a2 2 0 0 1-.8.1h-.6c-.2 0-.3-.2-.5-.3l-.4-.5-.2-.7v-3l.4-.8.6-.4.7-.1h.6a1.4 1.4 0 0 1 .9.8l.2.7.1 1Zm-.7 1V102.9l-.2-.5a1 1 0 0 0-.2-.4l-.3-.1a1 1 0 0 0-.4-.1 1 1 0 0 0-.4 0l-.4.4-.2.5v2.6l.1.5.2.4.3.2h.9l.3-.4.2-.5v-.8Zm2.6-1.1v3.4H21v-4.3h.7v.9Zm-.2 1h-.3v-.7l.4-.7.5-.4.8-.1h.5a1 1 0 0 1 .8.8v3.5h-.7v-3.3l-.4-.3-.5-.1h-.5a1 1 0 0 0-.4.4l-.1.5v.5Zm2.7-.3-.4.1v-.6l.4-.6.5-.4.7-.1h.6l.5.3.3.5v3.5h-.7v-3.4l-.4-.2a1.2 1.2 0 0 0-.9 0c-.1 0-.2 0-.3.2l-.2.3v.4Zm4.4-1.7h.6l.2-.2v-.5l-.5-.2-.3.1-.2.3H28c0-.2 0-.3.2-.5l.4-.3h1.1l.4.3.2.5c0 .1 0 .3-.2.4l-.3.3h-1v-.2Zm0 .4v-.3h.4l.6.1c.2 0 .3.2.4.3l.1.4-.1.5a1 1 0 0 1-.5.3l-.6.1h-.5a1 1 0 0 1-.5-.4.8.8 0 0 1-.1-.5h.6l.1.3.4.1.5-.1.1-.3v-.3l-.3-.1h-.6Zm5-1.7-2.3 6.2h-.7l2.4-6.2h.6Zm1.7-.3v6h-.8v-6h.8Zm-.2 3.7h-.3l.1-.8.4-.7a1.6 1.6 0 0 1 1.2-.5h.6l.4.3.3.5v3.5h-.7v-3.3l-.3-.3a1 1 0 0 0-.5-.1 1 1 0 0 0-.9.4 1.6 1.6 0 0 0-.3 1Zm4.7-1.3v3.6h-.7v-4.3h.7v.7Zm1.3-.7v.7h-.8a1 1 0 0 0-.3.3l-.2.3-.1.4-.2.1v-.7l.3-.6.4-.4a1.1 1.1 0 0 1 1 0ZM14.1 127.7v5.8h-.7v-4.8l-1.5.5v-.7l2-.8h.2Zm5.8 2.5v.8l-.1 1.2-.4.8-.5.4a2 2 0 0 1-.8.1h-.6c-.2 0-.3-.2-.5-.3l-.4-.5-.2-.7v-3l.4-.8.6-.4.7-.1h.6a1.4 1.4 0 0 1 .9.8l.2.7.1 1Zm-.7 1V129.4l-.2-.5a1 1 0 0 0-.2-.4l-.3-.1a1 1 0 0 0-.4-.1 1 1 0 0 0-.4 0l-.4.4-.2.5v2.6l.1.5.2.4.3.2h.9l.3-.4.2-.5v-.8Zm2.6-1.1v3.4H21v-4.3h.7v.9Zm-.2 1h-.3v-.7l.4-.7.5-.4.8-.1h.5a1 1 0 0 1 .8.8v3.5h-.7v-3.3l-.4-.3-.5-.1h-.5a1 1 0 0 0-.4.4l-.1.5v.5Zm2.7-.3-.4.1v-.6l.4-.6.5-.4.7-.1h.6l.5.3.3.5v3.5h-.7V130l-.4-.2a1.2 1.2 0 0 0-.9 0c-.1 0-.2 0-.3.2l-.2.3v.4Zm4.4-1.7h.6l.2-.2v-.5l-.5-.2-.3.1-.2.3H28c0-.2 0-.3.2-.5l.4-.3h1.1l.4.3.2.5c0 .1 0 .3-.2.4l-.3.3h-1v-.2Zm0 .4v-.3h.4l.6.1c.2 0 .3.2.4.3l.1.4-.1.5a1 1 0 0 1-.5.3l-.6.1h-.5a1 1 0 0 1-.5-.4.8.8 0 0 1-.1-.5h.6l.1.3.4.1.5-.1.1-.3v-.3l-.3-.1h-.6Zm5-1.7-2.3 6.2h-.7l2.4-6.2h.6Zm1.7-.3v6h-.8v-6h.8Zm-.2 3.7h-.3l.1-.8.4-.7a1.6 1.6 0 0 1 1.2-.5h.6l.4.3.3.5v3.5h-.7v-3.3l-.3-.3a1 1 0 0 0-.5-.1 1 1 0 0 0-.9.4 1.6 1.6 0 0 0-.3 1Zm4.7-1.3v3.6h-.7v-4.3h.7v.7Zm1.3-.7v.7h-.8a1 1 0 0 0-.3.3l-.2.3-.1.4-.2.1v-.7l.3-.6.4-.4a1.1 1.1 0 0 1 1 0Z"/><g clip-path="url(#d)"><path fill="#000" fill-opacity=".4" d="M45.4 26a1 1 0 1 0 2.2 0 1 1 0 0 0-2.2 0Zm1.1.2h147v-.4h-147v.4Z"/><path fill="#000" fill-opacity=".5" d="M45.4 52.5a1 1 0 1 0 2.2 0 1 1 0 0 0-2.2 0Zm1.1.2h147v-.4h-147v.4ZM45.4 79a1 1 0 1 0 2.2 0 1 1 0 0 0-2.2 0Zm1.1.2h147v-.4h-147v.4ZM45.4 105.5a1 1 0 1 0 2.2 0 1 1 0 0 0-2.2 0Zm1.1.2h147v-.4h-147v.4ZM45.4 132a1 1 0 1 0 2.2 0 1 1 0 0 0-2.2 0Zm1.1.2h147v-.4h-147v.4Z"/><path stroke="#000" stroke-linecap="square" stroke-opacity=".7" stroke-width=".3" d="M46.6 143.9h145.5"/><g clip-path="url(#e)"><path stroke="#000" stroke-linecap="square" stroke-opacity=".5" stroke-width=".3" d="M61 145.2v-.8"/><path fill="#000" fill-opacity=".5" d="M51.2 145.4v5.8h-.7v-4.9l-1.4.6v-.7l2-.8h.1Zm4.6 0v5.8h-.7v-4.9l-1.5.6v-.7l2.1-.8h.1Zm8.8 0v5.8H64l-2.9-4.4v4.4h-.8v-5.7h.8l2.9 4.4v-4.4h.7Zm1.1 3.7v-.1c0-.3 0-.6.2-.8 0-.3.2-.5.3-.7l.6-.5.8-.2.8.2c.3.1.5.3.6.5l.4.7.2.8c0 .4 0 .7-.2 1 0 .2-.2.4-.4.6a1.8 1.8 0 0 1-1.4.6 1.8 1.8 0 0 1-1.8-1.3v-.8Zm.7-.1.1.7.2.5.4.3.5.1h.6l.3-.4.3-.5V148.4c0-.2-.2-.3-.3-.5a1 1 0 0 0-.9-.5 1 1 0 0 0-.9.5l-.2.5v.6Zm5.4 1.5 1.1-3.6h.8l-1.6 4.3h-.4v-.7Zm-1-3.6 1.2 3.6v.7h-.4l-1.5-4.3h.7Z"/></g><g clip-path="url(#f)"><path stroke="#000" stroke-linecap="square" stroke-opacity=".5" stroke-width=".3" d="M90.2 143.6v-.8"/><path fill="#000" fill-opacity=".5" d="M80.4 145.9v5.7h-.7v-4.8l-1.4.5v-.7l2-.7h.1Zm6 5v.7h-3.8v-.5l1.9-2.1.5-.7c.2-.1.3-.3.3-.4v-1l-.4-.4a1 1 0 0 0-.5 0h-.6a1 1 0 0 0-.4.5l-.1.6h-.8l.2-1 .7-.5a2 2 0 0 1 1-.3c.3 0 .7 0 1 .2l.5.5.2.8v.5l-.3.6-.4.5-.4.4-1.5 1.7h2.9Zm7.4-5v5.7h-.7l-2.9-4.4v4.4h-.8v-5.7h.8l2.9 4.4v-4.4h.7Zm1.1 3.6c0-.4 0-.7.2-1l.3-.6.6-.5.8-.1.8.1.6.5.4.7.2.8v.1c0 .3 0 .6-.2.9 0 .2-.2.5-.4.6a1.8 1.8 0 0 1-1.4.7 1.8 1.8 0 0 1-1.8-1.3v-.9Zm.7 0 .1.6.2.5c.1.2.3.3.4.3l.5.2c.2 0 .4 0 .6-.2l.3-.3.3-.5V148.8c0-.2-.2-.3-.3-.5a1 1 0 0 0-.9-.5 1 1 0 0 0-.9.5l-.2.5v.6Zm5.4 1.4 1.1-3.5h.8l-1.6 4.2h-.4v-.7Zm-1-3.5 1.2 3.6v.6h-.4l-1.5-4.2h.7Z"/></g><g clip-path="url(#g)"><path stroke="#000" stroke-linecap="square" stroke-opacity=".5" stroke-width=".3" d="M119.4 143.6v-.8"/><path fill="#000" fill-opacity=".5" d="M109.6 145.9v5.7h-.7v-4.8l-1.4.5v-.7l2-.7h.1Zm3.3 2.5h.5l.6-.1.4-.4.1-.5v-.5l-.4-.4H113l-.4.4v.5h-.8c0-.3 0-.6.2-.8l.6-.6a2 2 0 0 1 1-.2c.3 0 .6 0 .8.2.3.1.5.3.6.5.2.3.3.6.3 1l-.1.4-.4.4c0 .2-.3.3-.5.4l-.8.1h-.6v-.4Zm0 .6v-.5h.6c.4 0 .7 0 1 .2l.5.3.3.5v.5l-.1.7c0 .2-.2.4-.4.5l-.5.4h-1.5l-.5-.3a1.4 1.4 0 0 1-.6-1.2h.8v.5c.2.1.3.3.5.3l.5.2.6-.1.4-.4.1-.6-.1-.6a.9.9 0 0 0-.5-.3l-.6-.1h-.5Zm10.1-3.1v5.7h-.7l-2.9-4.4v4.4h-.8v-5.7h.8l2.9 4.4v-4.4h.7Zm1.1 3.6c0-.4 0-.7.2-1l.3-.6.6-.5.8-.1.8.1.6.5.4.7.2.8v.1c0 .3 0 .6-.2.9 0 .2-.2.5-.4.6a1.8 1.8 0 0 1-1.4.7 1.8 1.8 0 0 1-1.8-1.3v-.9Zm.7 0 .1.6.2.5c.1.2.3.3.4.3l.5.2c.2 0 .4 0 .6-.2l.3-.3.3-.5V148.8c0-.2-.2-.3-.3-.5a1 1 0 0 0-.9-.5 1 1 0 0 0-.9.5l-.2.5v.6Zm5.4 1.4 1.1-3.5h.8l-1.6 4.2h-.4v-.7Zm-1-3.5 1.2 3.6v.6h-.4l-1.5-4.2h.7Z"/></g><g clip-path="url(#h)"><path stroke="#000" stroke-linecap="square" stroke-opacity=".5" stroke-width=".3" d="M148.6 143.6v-.8"/><path fill="#000" fill-opacity=".5" d="M138.8 145.9v5.7h-.7v-4.8l-1.4.5v-.7l2-.7h.1Zm6 3.8v.6h-4v-.5l2.5-3.9h.6l-.6 1.1-1.7 2.7h3.3Zm-.7-3.8v5.7h-.7v-5.7h.7Zm8.1 0v5.7h-.7l-2.9-4.4v4.4h-.8v-5.7h.8l2.9 4.4v-4.4h.7Zm1.1 3.6c0-.4 0-.7.2-1l.3-.6.6-.5.8-.1.8.1.6.5.4.7.2.8v.1c0 .3 0 .6-.2.9 0 .2-.2.5-.4.6a1.8 1.8 0 0 1-1.4.7 1.8 1.8 0 0 1-1.8-1.3v-.9Zm.7 0 .1.6.2.5c.1.2.3.3.4.3l.5.2c.2 0 .4 0 .6-.2l.3-.3.3-.5V148.8c0-.2-.2-.3-.3-.5a1 1 0 0 0-.9-.5 1 1 0 0 0-.9.5l-.2.5v.6Zm5.4 1.4 1.1-3.5h.8l-1.6 4.2h-.4v-.7Zm-1-3.5 1.2 3.6v.6h-.4l-1.5-4.2h.7Z"/></g><g clip-path="url(#i)"><path stroke="#000" stroke-linecap="square" stroke-opacity=".5" stroke-width=".3" d="M177.8 143.6v-.8"/><path fill="#000" fill-opacity=".5" d="M168 145.9v5.7h-.7v-4.8l-1.4.5v-.7l2-.7h.1Zm3.2 3-.6-.2.3-2.8h2.9v.7h-2.3l-.2 1.5.4-.2h.5l.8.1c.2 0 .3.2.5.4l.3.6.1.8v.7l-.4.6-.6.4a2 2 0 0 1-.8.2l-.6-.1-.6-.3-.3-.5a2 2 0 0 1-.2-.7h.7l.1.5.4.4h1l.3-.3.2-.4a1.8 1.8 0 0 0 0-1c0-.2 0-.3-.2-.4a1 1 0 0 0-.3-.3h-1.1l-.3.3Zm10.2-3v5.7h-.7l-2.9-4.4v4.4h-.8v-5.7h.8l2.9 4.4v-4.4h.7Zm1.1 3.6c0-.4 0-.7.2-1l.3-.6.6-.5.8-.1.8.1.6.5.4.7.2.8v.1c0 .3 0 .6-.2.9 0 .2-.2.5-.4.6a1.8 1.8 0 0 1-1.4.7 1.8 1.8 0 0 1-1.8-1.3v-.9Zm.7 0 .1.6.2.5c.1.2.3.3.4.3l.5.2c.2 0 .4 0 .6-.2l.3-.3.3-.5V148.8c0-.2-.2-.3-.3-.5a1 1 0 0 0-.9-.5 1 1 0 0 0-.9.5l-.2.5v.6Zm5.4 1.4 1.1-3.5h.8l-1.6 4.2h-.4v-.7Zm-1-3.5 1.2 3.6v.6h-.4l-1.5-4.2h.7Z"/></g></g><defs><clipPath id="a"><path fill="#fff" d="M46.5 12h147v132h-147z"/></clipPath><clipPath id="d"><path fill="#fff" d="M45.2 11.5h148v142h-148z"/></clipPath><clipPath id="e"><path fill="#fff" d="M46.5 143.6h29.2v8H46.5z"/></clipPath><clipPath id="f"><path fill="#fff" d="M75.7 142.7h29.2v9.9H75.7z"/></clipPath><clipPath id="g"><path fill="#fff" d="M104.9 142.7h29.2v9.9h-29.2z"/></clipPath><clipPath id="h"><path fill="#fff" d="M134.1 142.7h29.2v9.9h-29.2z"/></clipPath><clipPath id="i"><path fill="#fff" d="M163.3 142.7h29.2v9.9h-29.2z"/></clipPath><linearGradient id="b" x1="116.7" x2="116.7" y1="158.3" y2="-17.5" gradientUnits="userSpaceOnUse"><stop offset=".1" stop-color="#436ADF"/><stop offset=".1" stop-color="#53BD2E"/><stop offset=".3" stop-color="#53BD2E"/><stop offset=".3" stop-color="#FC8F3C"/><stop offset=".5" stop-color="#FC8F3C"/><stop offset=".5" stop-color="#D33E57"/></linearGradient><linearGradient id="c" x1="116.5" x2="115.6" y1="141" y2="-17.5" gradientUnits="userSpaceOnUse"><stop offset=".1" stop-color="#305AD7"/><stop offset=".1" stop-color="#3FA71A"/><stop offset=".2" stop-color="#3FA71A"/><stop offset=".2" stop-color="#F36900"/><stop offset=".4" stop-color="#F36900"/><stop offset=".4" stop-color="#D81838"/></linearGradient></defs></svg>