<svg xmlns="http://www.w3.org/2000/svg" width="200" height="160" fill="none"><g clip-path="url(#a)"><rect width="200" height="160" fill="#fff" rx="4"/><path fill="#000" fill-opacity=".9" d="M32.3 18.5a1.6 1.6 0 0 0-1.6 1l-.6 2c-.3 0-.6.1-.8.3l-1.5-1.6-1-1.1a1.6 1.6 0 0 0 0 2.2l1.3 1.5a2.4 2.4 0 0 0-.2.8l-2 .5-1.6.3a1.6 1.6 0 0 0 1.9 1.2l2-.4.6.6-.6 2-.5 1.5a1.6 1.6 0 0 0 2-1l.6-2 .8-.2 1.4 1.5 1 1.2a1.6 1.6 0 0 0 .2-2.2L32.3 25l.1-.4.1-.4 2-.5 1.6-.3a1.6 1.6 0 0 0-1.9-1.2l-2 .5-.6-.7.6-2 .5-1.5h-.4Zm-2 4.2a1.2 1.2 0 0 1 .4 2.3 1.2 1.2 0 1 1-.5-2.3m-5.1 3.7c-1 .7-2 1-3.1 1h-1.6V29H22c1 0 2.1-.3 3.1-.8.6.3 1.2.6 1.9.7l.4-1.3v-.2c-.8-.2-1.6-.5-2.3-1Zm9.8 1c0 .6-.1 1.2-.5 1.6h1.7v-1.5h-1.2ZM25 29.6c-1 .7-2 1-3.1 1h-1.6v1.7H22c1 0 2.1-.3 3.1-.8 2 1 4.3 1 6.3 0 1 .5 2 .8 3.1.8h1.6v-1.6h-1.6c-1 0-2.2-.4-3.1-1a5.4 5.4 0 0 1-6.3 0ZM46.4 20.8v8.9h-1.6v-9h1.6Zm3.6 3.9v1.2h-4v-1.2h4Zm.5-4V22H46v-1.2h4.5Zm2.9-.4v9.4h-1.5v-9.4h1.5Zm1.5 6.1v-.1c0-.5 0-1 .2-1.3.1-.4.3-.8.6-1.1l1-.7a3.1 3.1 0 0 1 2.6 0l1 .7.6 1 .2 1.4v.1l-.2 1.4-.6 1a2.8 2.8 0 0 1-2.3 1c-.5 0-1 0-1.3-.2l-1-.8c-.2-.3-.5-.6-.6-1l-.2-1.4Zm1.5-.1v1l.4.7c0 .2.3.3.5.5l.7.1a1.4 1.4 0 0 0 1.2-.6l.3-.7v-1.8c0-.3-.2-.5-.3-.7A1.4 1.4 0 0 0 58 24c-.3 0-.5 0-.7.2l-.5.5c-.2.2-.3.4-.3.7l-.1.8Zm7.9 2 1.5-5.2h1l-.3 1.5-1.5 5H64l.2-1.4Zm-.9-5.2 1.2 5.1v1.5h-.8L62 23h1.4Zm4.8 5 1.2-5h1.4L69 29.7h-1l.2-1.5Zm-1.3-5 1.5 5 .2 1.6h-.8l-1.6-5.1L66 23h1Zm10 1.2v5.4h-1.6V23h1.4l.1 1.2Zm2-1.3v1.4a2.9 2.9 0 0 0-1.3 0 1.3 1.3 0 0 0-.8.8l-.1.7h-.4l.1-1.2.4-1 .6-.5a1.7 1.7 0 0 1 1.2-.2h.2Zm4.6 5.4v-3.2l-.1-.6-.4-.4-.7-.2c-.2 0-.4 0-.6.2a1 1 0 0 0-.4.3l-.2.5h-1.4l.1-.8.6-.6c.2-.2.5-.4.9-.5l1-.2c.6 0 1 .1 1.4.3l1 .7c.2.4.3.8.3 1.3V29l.2.6h-1.5l-.2-.5v-.7Zm.2-2.7v.9h-1a3 3 0 0 0-.8 0l-.5.3a1 1 0 0 0-.4.8l.1.5.4.3.5.1a1.6 1.6 0 0 0 1.4-.6l.2-.5.5.6-.3.6-.5.5a2.3 2.3 0 0 1-1.5.6c-.5 0-.9 0-1.2-.2a2 2 0 0 1-.8-.8c-.2-.3-.3-.6-.3-1 0-.3 0-.6.2-.9.1-.3.3-.5.6-.7l1-.4 1.2-.1h1.2Zm6-2.6v1H86v-1h3.7Zm-2.6-1.7h1.5v6.9l.3.2.4.1a2.3 2.3 0 0 0 .5 0v1a3.8 3.8 0 0 1-1 .2c-.3 0-.6 0-.9-.2-.2 0-.4-.3-.6-.6l-.2-1v-6.6Zm6.9 8.4c-.5 0-1 0-1.3-.2a3 3 0 0 1-1.7-1.7l-.2-1.3v-.2c0-.6 0-1 .2-1.5l.7-1c.2-.3.6-.6 1-.7a3 3 0 0 1 1.1-.3c.5 0 1 .1 1.3.3l.8.6c.3.3.5.7.6 1l.2 1.4v.6h-5.2v-1h3.7v-.2c0-.2 0-.5-.2-.7 0-.2-.2-.4-.4-.6l-.8-.2c-.2 0-.4 0-.6.2-.2 0-.4.2-.5.4l-.3.7-.1 1v.2l.1.8.4.7.5.4.8.1a2 2 0 0 0 1.7-.8l.7.8a2.8 2.8 0 0 1-1.4 1l-1.1.2Z"/><g clip-path="url(#b)"><rect width="26.6" height="12.9" x="87.6" y="130.9" fill="#F3F3F3" rx="3.2"/><path fill="#000" fill-opacity=".5" d="M97.5 136.9v1.1l-.1 1.4-.5 1-.7.4-1 .2-.7-.1a1.9 1.9 0 0 1-1-.9l-.4-.8V135.5l.5-.9.7-.5 1-.2c.2 0 .5 0 .7.2a1.8 1.8 0 0 1 1.1.8l.3.9.1 1.1Zm-1.1 1.3V136l-.2-.5a1 1 0 0 0-.2-.4l-.4-.2h-.3a1 1 0 0 0-.5 0l-.4.4-.2.6v3l.1.6.3.3.3.2.4.1.4-.1c.2 0 .3-.2.4-.3l.2-.6v-1Zm7 1.8v1h-4.7v-.9l2.3-2.4.5-.7.3-.6.1-.4v-.6l-.4-.4a1 1 0 0 0-.6-.2l-.6.2a1 1 0 0 0-.4.5l-.2.6h-1.1c0-.4 0-.7.3-1 .2-.4.4-.7.8-.9.3-.2.7-.3 1.2-.3s.9.1 1.2.3c.3.1.5.4.7.6.2.3.3.7.3 1l-.1.7-.3.6-.5.6-.6.7-1.4 1.6h3.1Zm5.5-3.1v1.1c0 .6 0 1-.2 1.4 0 .4-.2.7-.4 1l-.7.4-1 .2-.7-.1a1.9 1.9 0 0 1-1.1-.9l-.3-.8-.1-1.2V137l.1-1.4.5-.9.7-.5 1-.2c.2 0 .5 0 .7.2a1.8 1.8 0 0 1 1 .8l.4.9v1.1Zm-1.1 1.3V136l-.2-.5a1 1 0 0 0-.3-.4l-.3-.2h-.4a1 1 0 0 0-.4 0l-.4.4-.2.6v3l.1.6.2.3.4.2.3.1.5-.1c.2 0 .3-.2.4-.3l.2-.6v-1Z"/></g><path fill="#305AD7" d="M140.3 135.3a56.3 56.3 0 1 0-79.6 0l6.8-6.8a46.7 46.7 0 1 1 66 0l6.8 6.8Z"/><path fill="#3FA71A" d="M140.3 135.3A56.3 56.3 0 1 0 46 110l9.3-2.4a46.7 46.7 0 1 1 78.2 21l6.8 6.8Z"/><path fill="#F36900" d="M140.3 135.3a56.3 56.3 0 0 0-79.6-79.6l6.8 6.8a46.7 46.7 0 1 1 66 66l6.8 6.8Z"/><path fill="#D81838" d="M140.3 135.3a56.3 56.3 0 0 0-25.2-94.2l-2.5 9.3a46.7 46.7 0 0 1 21 78.1l6.7 6.8Z"/><path fill="#848484" fill-rule="evenodd" d="m140.5 135.1-.2.2-3.3-3.3.2-.2 1.7 1.7 1.6 1.6Zm2.5-2.7-.2.3-1.8-1.5-1.8-1.6.2-.2 1.9 1.5 1.7 1.5Zm2.4-2.8-.3.3-1.8-1.4-2-1.5.3-.3 2 1.5 1.8 1.4Zm2-3-.1.3-2-1.3-2-1.3.2-.3 2 1.3 2 1.3Zm2-3.2-.2.4-2-1.2-2-1.2.1-.3 2.1 1.2 2 1.1Zm1.7-3.2-.1.4-2.1-1-2.2-1.2.2-.3 2.2 1 2 1Zm1.5-3.4-.1.4-2.1-.9-2.3-1 .2-.3 2.2 1 2.1.8Zm1.3-3.4-.1.4-2.2-.8-2.3-.8.1-.3 2.3.7 2.2.8Zm1-3.5v.4l-2.3-.7-2.3-.6.1-.4 2.3.7 2.3.6Zm.9-3.6v.4l-2.3-.5-2.4-.5v-.3l2.4.4 2.3.5Zm.6-3.7v.4l-2.3-.3-2.4-.3v-.4l2.4.3 2.3.3Zm.3-3.6v.4l-2.3-.2-2.4-.1v-.4l2.4.1 2.3.2Zm.1-3.7v.4H152.1v-.4H156.8Zm-.1-3.7v.4l-2.3.2-2.4.1V92l2.4-.2 2.3-.2Zm-.4-3.6v.4l-2.2.3-2.4.3v-.4l2.3-.3 2.3-.3Zm-.6-3.7.1.4-2.3.5-2.3.4-.1-.3 2.4-.5 2.2-.5Zm-.8-3.6v.4l-2.2.6-2.3.7V82l2.2-.6 2.3-.7Zm-1.1-3.5.1.4-2.2.7-2.3.8v-.3l2.2-.8 2.2-.8Zm-1.3-3.4v.1l.1.3-2.1.8-2.2 1-.2-.4 2.3-1 2-.8Zm-1.5-3.4.1.4-2 1-2.2 1-.2-.3 2.2-1 2-1Zm-1.8-3.2.2.4-2 1.1-2 1.2-.2-.3 2-1.2 2-1.2Zm-2-3.1.3.3-2 1.3-2 1.3s0-.2-.2-.3l2-1.3 2-1.3Zm-2-3c0 .1 0 .2.2.3l-1.9 1.4-1.9 1.5-.2-.3 1.9-1.5 1.8-1.4Zm-2.4-2.8.2.3-1.7 1.5-1.8 1.6-.3-.3 1.8-1.6 1.8-1.5Zm-2.6-2.7.3.3-1.6 1.6-1.7 1.7-.2-.2 1.6-1.8 1.6-1.6Zm-2.6-2.5.3.2-1.6 1.8-1.6 1.8-.3-.2 1.6-1.9 1.6-1.7Zm-2.9-2.4.3.3-1.4 1.8-1.5 2-.3-.3 1.5-1.9 1.4-1.9Zm-3-2.1a9.2 9.2 0 0 0 .3.2l-1.3 2-1.3 2-.3-.2 1.3-2 1.3-2Zm-3.1-2 .3.3-1.2 2-1.2 2-.3-.1 1.2-2 1.2-2.1Zm-3.3-1.7.4.2-1 2.1-1.1 2.2-.4-.2 1-2.1 1.1-2.2Zm-3.3-1.5.3.2-.9 2.2-1 2.2-.3-.2 1-2.2.9-2.2Zm-3.5-1.3.4.2-.8 2.2-.8 2.3-.3-.1.8-2.3.7-2.3Zm-3.1-1-.6 2.4-.7 2.3-.3-.1.6-2.3.6-2.3h.4Zm-4-.9.4.1-.5 2.3-.5 2.4h-.3l.4-2.4.5-2.4Zm-3.6-.6h.4l-.4 2.5-.3 2.3h-.4l.4-2.4.3-2.4Zm-3.7-.3h.4l-.2 2.4-.1 2.4h-.4l.1-2.4.2-2.4Zm-3.7-.1h.4V44h-.4v-4.8Zm-3.7 0h.4l.2 2.5.1 2.4h-.3l-.2-2.4-.2-2.4ZM64.1 132l-3.4 3.4v-.1l1.6-1.7 1.7-1.7h.1ZM93.8 42l-.3-2.4H93l.3 2.5.3 2.4.4-.1-.3-2.4Zm-3.5.6-.5-2.4h-.4l.5 2.5.5 2.3h.4l-.5-2.4Zm-3.5.8-.6-2.4a48.7 48.7 0 0 0-.4.1l.7 2.4.6 2.3h.2l.2-.1-.7-2.3Zm-3.3 1-.8-2.3-.4.1.8 2.3.8 2.3.3-.1-.7-2.3ZM80 45.6l-.9-2.2-.3.1.9 2.3 1 2.2.3-.2-1-2.2ZM77 47 76 45l-.4.2 1 2.1 1.1 2.2.4-.2-1-2.2Zm-3 1.7-1.3-2.1-.3.2 1.2 2 1.2 2.2.3-.2-1.2-2.1Zm-3 1.8-1.4-2-.4.3 1.4 2 1.3 2 .3-.2-1.3-2Zm-3 2-1.4-1.8-.4.2 1.5 2 1.5 1.8.3-.2-1.5-2Zm-2.7 2.3L63.6 53l-.3.3 1.6 1.8 1.6 1.8.3-.3-1.6-1.8Zm-2.6 2.4L61 55.5l-.3.3 1.7 1.7 1.8 1.7.2-.3-1.7-1.7Zm-2.4 2.6-1.8-1.6-.3.3 1.8 1.6 1.9 1.6.2-.3-1.8-1.6ZM58 62.5 56 61l-.2.4 2 1.4 1.8 1.5.3-.3-2-1.5Zm-2.1 2.9-2-1.4-.2.4 2 1.3 2 1.3.2-.3-2-1.3Zm-1.9 3-2-1.2-.3.3 2.1 1.2L56 70l.2-.3-2-1.2Zm-1.7 3-2.1-1-.2.4 2.2 1 2.1 1 .2-.2-2.2-1.1ZM51 74.8l-2.3-1-.1.4 2.2 1 2.2.9.2-.4-2.2-1ZM49.6 78l-2.3-.8-.1.4 2.3.8 2.3.7v-.3l-2.2-.8Zm-1 3.4-2.4-.7v.4l2.3.6 2.3.7.1-.4-2.3-.6Zm-.8 3.4-2.4-.5v.4l2.3.5 2.3.4.1-.3-2.3-.5Zm-.6 3.5-2.4-.4v.4l2.3.4 2.4.3v-.4l-2.3-.3Zm-.4 3.5-2.4-.2v.4l2.4.2 2.4.1V92l-2.4-.1Zm-.1 3.5h-2.4v.4H49v-.4h-2.4Zm0 3.5-2.3.2v.4l2.4-.2 2.4-.2v-.3l-2.4.1Zm.4 3.5-2.4.3v.5l2.5-.4 2.4-.3v-.4l-2.5.3Zm.6 3.5-2.4.5.1.4 2.4-.5 2.3-.5v-.3l-2.4.4Zm-1.5 4.3v-.2l2.3-.6 2.3-.7v.2l.1.2-2.3.6-2.4.7v-.2Zm3.3 2.6-2.3.7.1.4 2.3-.8 2.3-.8-.1-.3-2.3.8Zm1.2 3.3-2.2.9.1.4 2.3-1 2.2-1-.1-.3-2.3 1Zm1.5 3.2-2.2 1 .2.4 2.1-1 2.2-1.1-.2-.4-2.1 1Zm1.6 3.1-2 1.2.1.4 2.1-1.3 2-1.2-.1-.3-2.1 1.2Zm1.9 3-2 1.3c0 .2 0 .3.2.4l2-1.4 2-1.3-.2-.3-2 1.3Zm2 2.9-2 1.4c.2.1.2.3.3.4l2-1.5 1.8-1.5-.2-.3-1.9 1.5Zm2.2 2.7-1.8 1.6.3.3 1.8-1.6 1.8-1.6-.3-.3L60 131Z" clip-rule="evenodd"/><path fill="#636363" fill-rule="evenodd" d="m140.7 135-.4.3-6.7-6.7.3-.3 3.4 3.3 3.4 3.4Zm14.3-25.4-.2.9-4.5-1.3-4.7-1.3.2-.7 4.7 1.2 4.5 1.2Zm-.2-29 .2.8-4.5 1.2-4.7 1.2v-.2l-.1-.2-.1-.3 4.7-1.3 4.5-1.3Zm-14.7-25.2.6.6-3.4 3.4-3.4 3.4-.5-.6 3.3-3.4 3.4-3.4Zm-24.5-14.2-1.3 4.6-1.3 4.7-.7-.2 1.2-4.7 1.2-4.6 1 .2Zm-48.3 87.1s0 .2.2.2l-6.8 6.8-.2-.3 3.4-3.4 3.4-3.3Zm-12-21 .2.7-4.5 1.2-4.7 1.3a69.6 69.6 0 0 1-.2-.9l4.7-1.2 4.5-1.1Zm.2-24.3-.2.7-4.6-1.1-4.6-1.2.2-1 4.7 1.4 4.5 1.2Zm12.3-20.9-.5.6-3.4-3.3-3.4-3.4.6-.7 3.4 3.5 3.3 3.3Zm21-11.8-.7.1L87 46l-1.3-4.7a60 60 0 0 1 .9-.2l1.2 4.6 1.2 4.7Z" clip-rule="evenodd"/><path fill="#636363" fill-rule="evenodd" d="M155.8 106.5c-2.2 11-7.6 21-15.5 28.8l-.5-.5a55.5 55.5 0 1 0-78.5 0l-.6.5a56.3 56.3 0 1 1 95-28.8Z" clip-rule="evenodd"/><path fill="#636363" d="M60.5 86v.8h-3.8v-.6l1.8-2 .5-.7.2-.4a1.1 1.1 0 0 0 0-.9L59 82a.9.9 0 0 0-.4-.1 1 1 0 0 0-.6.1l-.3.4-.1.5h-1l.3-.9.6-.6a2 2 0 0 1 1-.3c.5 0 .8 0 1 .2.3.1.5.3.7.6l.2.8-.1.5c0 .2-.2.4-.3.5l-.3.6-.5.5-1.2 1.3h2.6Zm4.4-2.5v.9l-.1 1.1-.4.8-.6.4a2.2 2.2 0 0 1-1.4 0 1.5 1.5 0 0 1-.9-.7l-.2-.7-.1-.9v-1l.1-1 .4-.8.6-.4.8-.2.6.1a1.5 1.5 0 0 1 .9.7l.2.7.1 1Zm-1 1V82.3l-.3-.3-.2-.2a1 1 0 0 0-.3 0h-.4l-.3.3-.2.5v3l.3.3.2.2h.8l.2-.3.2-.5v-.8ZM71.6 124.5v2c-.2.4-.3.7-.5.8-.1.2-.3.4-.6.5a2.2 2.2 0 0 1-1.4 0 1.5 1.5 0 0 1-.9-.7l-.2-.7v-3l.4-.8.6-.4.8-.1h.6a1.5 1.5 0 0 1 1 .8l.2.7v1Zm-.9 1V123.9l-.2-.5-.1-.3-.3-.1a1 1 0 0 0-.3 0h-.4l-.3.3-.2.5v2.5l.1.4c0 .2.1.3.2.3l.3.2h.7l.3-.3.1-.5.1-.7ZM59.2 104.4v5.7h-.9v-4.6l-1.4.5v-.8l2.2-.8h.1Zm5.7 2.4v1l-.1 1c-.1.4-.2.7-.4.8-.2.2-.3.4-.6.5a2.2 2.2 0 0 1-1.4 0 1.5 1.5 0 0 1-.9-.7l-.2-.7-.1-1v-.9l.1-1.1.4-.8.6-.4.8-.1h.6a1.5 1.5 0 0 1 .9.8l.2.7.1 1Zm-1 1v-2.2l-.3-.3-.2-.1a1 1 0 0 0-.3 0h-.4c-.2 0-.2.1-.3.3-.1 0-.2.2-.2.5v2.9l.3.3.2.2h.8l.2-.3.2-.5v-.7ZM69 65.8h1.1l.4-.4v-.9c0-.2-.2-.3-.3-.3a1 1 0 0 0-.5-.1 1 1 0 0 0-.5 0 .8.8 0 0 0-.4.8h-1c0-.3.1-.6.3-.8l.7-.6a2 2 0 0 1 .9-.2c.4 0 .7 0 1 .2l.6.5.2 1v.4l-.4.5-.6.3-.8.1H69v-.5Zm0 .8V66h.7c.4 0 .7 0 .9.2l.6.3.3.4.1.6-.1.7-.4.5-.7.4a2.5 2.5 0 0 1-1.4 0 2 2 0 0 1-.6-.3l-.4-.5-.2-.7h1v.4l.4.3.5.1h.5l.3-.4.2-.5c0-.2 0-.4-.2-.5 0-.2-.2-.3-.3-.3l-.6-.1H69Zm7.2-.8v.9l-.1 1.1-.4.8-.6.4a2.2 2.2 0 0 1-1.4 0 1.5 1.5 0 0 1-1-.7l-.2-.7v-2.9l.5-.8c.1-.2.3-.4.6-.4l.7-.2.6.1a1.5 1.5 0 0 1 1 .7l.2.7v1Zm-1 1V65l-.1-.4-.2-.3-.3-.2a1 1 0 0 0-.3 0H74l-.3.3-.1.5-.1.7V67.4l.2.5.1.3.3.2h.7l.3-.3.2-.5v-.8ZM89.6 56.6v.8h-4.1v-.6l2.4-3.9h.7l-.8 1.4-1.4 2.3h3.2Zm-.8-3.7v5.7H88V53h1Zm5 2.4v2l-.4.8-.6.5a2.2 2.2 0 0 1-1.4 0 1.5 1.5 0 0 1-.9-.7l-.3-.7v-1.9l.1-1.1c0-.3.2-.6.4-.8.1-.2.3-.3.6-.4l.7-.1h.7a1.5 1.5 0 0 1 .9.8l.2.7v1Zm-.8 1V54.7l-.2-.5-.2-.3-.2-.1a1 1 0 0 0-.4 0h-.4l-.3.3-.1.4v3l.3.3.2.2h.7l.3-.3.2-.5v-.7ZM125.7 127.1h.1l1-.1a1.4 1.4 0 0 0 .8-1v-2.4c0-.2 0-.3-.2-.4l-.3-.3h-.7l-.3.3-.2.4a1.8 1.8 0 0 0 .2 1.3s.1.2.3.2l.4.1a1 1 0 0 0 .7-.3l.2-.3v-.4l.4.1v.6a1.8 1.8 0 0 1-1 1h-1.3l-.5-.5-.3-.6a2.5 2.5 0 0 1 0-1.5c.1-.2.2-.5.4-.6l.6-.5.8-.1c.3 0 .5 0 .8.2.2 0 .4.2.6.4l.3.8.1.9v1.3l-.4.8c0 .3-.3.5-.5.7l-.8.5-1 .2h-.2v-.8Zm7.5-2.6v1l-.1 1c0 .4-.2.7-.4.8-.1.2-.3.4-.6.5a2.2 2.2 0 0 1-1.4 0 1.5 1.5 0 0 1-.9-.7l-.2-.7-.1-1v-.9l.1-1.1.4-.8.6-.4.8-.1h.6a1.5 1.5 0 0 1 .9.8l.2.7.1 1Zm-1 1v-2.2l-.3-.3-.2-.1a1 1 0 0 0-.3 0h-.4l-.3.3-.2.5v2.5l.1.4c0 .2.1.3.2.3l.2.2h.8l.3-.3.1-.5v-.7ZM139.2 108.6l-.3.9-.7.5c-.2.2-.6.2-1 .2-.3 0-.6 0-.9-.2-.3-.1-.5-.3-.6-.5-.2-.3-.3-.6-.3-1a1.5 1.5 0 0 1 .5-1l.6-.4h.8l1 .1c.2.1.5.3.6.6.2.2.3.5.3.8Zm-1 0-.1-.6-.3-.3a1 1 0 0 0-.5-.1 1 1 0 0 0-.5.1l-.3.3-.1.5v.5l.4.4h1l.3-.4.1-.5Zm.8-2.7c0 .3 0 .6-.2.8l-.6.5a2 2 0 0 1-1 .2c-.3 0-.6 0-.8-.2-.3-.1-.5-.3-.6-.5-.2-.2-.3-.5-.3-.8 0-.3.1-.6.3-.8.1-.2.3-.4.6-.5.2-.2.5-.2.9-.2.3 0 .6 0 .9.2a1.4 1.4 0 0 1 .8 1.3Zm-1 0v-.4a.7.7 0 0 0-.7-.4l-.4.1c-.2 0-.3.2-.3.3l-.1.5v.4a.7.7 0 0 0 .8.4h.4l.3-.4v-.4Zm5.7 1v.8l-.1 1.2-.4.7-.6.5a2.2 2.2 0 0 1-1.4 0 1.5 1.5 0 0 1-.9-.7l-.3-.7v-1.9l.1-1.1c0-.3.2-.6.4-.8.1-.2.3-.3.6-.4l.7-.1h.7a1.5 1.5 0 0 1 .9.8l.2.7v1Zm-1 1V106l-.1-.5-.2-.3-.2-.1a1 1 0 0 0-.4 0h-.4l-.3.3-.1.5v2.9l.3.3.2.2h.7l.3-.3.2-.5v-.7ZM140 81.1v.5l-2.3 5.2h-1l2.3-5h-3v-.7h4Zm4.5 2.4v.9l-.1 1.1-.4.8-.6.4a2.2 2.2 0 0 1-1.4 0 1.5 1.5 0 0 1-.9-.7l-.2-.7-.1-.9v-1l.1-1c0-.4.2-.6.4-.8.1-.2.3-.3.6-.4l.7-.2.7.1a1.5 1.5 0 0 1 .9.7l.2.7.1 1Zm-1 1V82.7l-.1-.4-.2-.3-.2-.2a1 1 0 0 0-.4 0h-.4l-.2.3-.2.5v3l.3.3.2.2h.7l.3-.3.2-.5v-.8ZM127.8 63.4h.1v.7c-.4 0-.7 0-.9.2l-.6.4c-.2.2-.3.4-.3.7l-.2.7v1l.1.5.2.5.3.2.4.1h.4l.3-.3.2-.4a1.7 1.7 0 0 0 0-1l-.2-.3-.3-.2-.4-.1a1 1 0 0 0-.5.1 1 1 0 0 0-.4.4l-.1.4-.4-.1c0-.3 0-.5.2-.7 0-.2.2-.3.3-.5l.5-.3h1.4l.5.5.3.6a2.5 2.5 0 0 1 0 1.5l-.4.6-.6.4a2 2 0 0 1-.8.2c-.3 0-.6 0-.8-.2l-.6-.5-.4-.7-.1-.9v-.3c0-.5 0-.9.2-1.3 0-.4.2-.7.5-1l.8-.7a3 3 0 0 1 1.3-.2Zm5.4 2.4v.9l-.1 1.1c0 .4-.2.6-.4.8-.1.2-.3.3-.6.4a2.2 2.2 0 0 1-1.4 0 1.5 1.5 0 0 1-.9-.7l-.2-.7-.1-.9v-1l.1-1 .4-.8c.2-.2.4-.4.6-.4l.8-.2.6.1a1.5 1.5 0 0 1 .9.7l.2.7.1 1Zm-1 1V64.6l-.3-.3-.2-.2a1 1 0 0 0-.3 0h-.4l-.3.3-.2.5v2.5l.1.5.2.3.2.2h.8l.3-.3.1-.5v-.8ZM110.7 56l-.8-.2.3-2.9h3.1v.8H111l-.1 1.4a1.8 1.8 0 0 1 .9-.2l.7.1.5.4.4.6a2.5 2.5 0 0 1 0 1.5l-.4.7-.6.4-.8.1-.7-.1-.6-.3a1.6 1.6 0 0 1-.5-1.2h.9l.1.5.3.3h.9l.3-.3.2-.3a1.8 1.8 0 0 0 0-1 1 1 0 0 0-.2-.3l-.3-.3a1 1 0 0 0-.5 0h-.5l-.3.3Zm7.2-.7v2l-.5.8c-.1.2-.3.4-.6.5a2.2 2.2 0 0 1-1.4 0 1.5 1.5 0 0 1-.9-.7l-.2-.7v-3l.4-.8.6-.4.8-.1h.6a1.5 1.5 0 0 1 1 .8l.2.7v1Zm-.9 1V54.7l-.2-.5-.1-.3-.3-.1a1 1 0 0 0-.3 0h-.4l-.3.3-.2.4V57l.1.4.2.3.3.2h.7l.3-.3.1-.5.1-.7Z"/><path fill="#000" fill-opacity=".5" d="M88.4 115.5v4h-1v-5h1v1Zm-.1 1.3h-.4l.1-1 .4-.8.6-.5 1-.2.5.1.6.3.3.6.1.8v3.4h-1.1v-3.3l-.1-.6-.4-.3h-1a1 1 0 0 0-.4.4l-.2.5v.6Zm3.1-.3-.5.1.1-.9.4-.7a1.8 1.8 0 0 1 1.5-.7l.7.1.5.4c.2.1.3.3.3.6l.2.8v3.3h-1.2v-3.3l-.1-.6-.3-.3h-.5a1 1 0 0 0-.5 0 1 1 0 0 0-.3.3l-.2.4v.5Zm5.2-2.3h.8l.2-.2v-.3l-.1-.3-.4-.1h-.4l-.2.4h-.8c0-.3 0-.5.2-.6 0-.2.2-.3.5-.4h1.4l.5.4.2.6c0 .1 0 .3-.2.4a1 1 0 0 1-.4.4H96.6v-.3Zm0 .6v-.4H98l.5.4.2.5-.2.6-.6.4a2.2 2.2 0 0 1-1.4 0c-.3 0-.4-.2-.6-.4a1 1 0 0 1-.2-.6h.9l.1.3.5.1h.4l.2-.4v-.3l-.3-.2a1 1 0 0 0-.4 0h-.4Zm6-2.1L100 120h-.9l2.7-7.4h.9Zm2.2-.4v7.2h-1.1v-7.2h1.1Zm-.2 4.5h-.4c0-.4 0-.7.2-1 0-.3.2-.6.4-.8a1.8 1.8 0 0 1 1.4-.7l.7.1.5.4c.2.1.3.3.4.6v4.1h-1v-3.3c0-.2 0-.4-.2-.5 0-.2-.1-.3-.3-.4h-1l-.4.4-.2.5-.1.6Zm5.8-1.4v4.1h-1.2v-5h1.1v.9Zm1.5-1v1a2.3 2.3 0 0 0-1 0 1 1 0 0 0-.5.7l-.1.5h-.3l.1-.9c0-.3.2-.5.3-.7l.5-.5a1.3 1.3 0 0 1 .9-.2h.1Z"/><path fill="#E65100" d="M102.3 95.3 51.2 82.6l49 17.3 11.6 2.5c.2 0 .4 0 .5-.2l.8-2c0-.2 0-.4-.2-.5l-10.6-4.4Z"/><g filter="url(#c)"><circle cx="100.5" cy="97.1" r="4.8" fill="#fff"/></g><g filter="url(#d)"><circle cx="100.5" cy="97.1" r="3.2" fill="#fff"/></g></g><rect width="199.2" height="159.2" x=".4" y=".4" stroke="#000" stroke-opacity=".1" stroke-width=".8" rx="3.6"/><defs><clipPath id="a"><rect width="200" height="160" fill="#fff" rx="4"/></clipPath><clipPath id="b"><rect width="26.6" height="12.9" x="87.6" y="130.9" fill="#fff" rx="3.2"/></clipPath><filter id="c" width="38.6" height="38.6" x="81.2" y="77.8" color-interpolation-filters="sRGB" filterUnits="userSpaceOnUse"><feFlood flood-opacity="0" result="BackgroundImageFix"/><feColorMatrix in="SourceAlpha" result="hardAlpha" values="0 0 0 0 0 0 0 0 0 0 0 0 0 0 0 0 0 0 127 0"/><feMorphology in="SourceAlpha" operator="dilate" radius="1.6" result="effect1_dropShadow_1492_3705"/><feOffset/><feGaussianBlur stdDeviation="6.4"/><feComposite in2="hardAlpha" operator="out"/><feColorMatrix values="0 0 0 0 1 0 0 0 0 0.241667 0 0 0 0 0.241667 0 0 0 0.15 0"/><feBlend in2="BackgroundImageFix" result="effect1_dropShadow_1492_3705"/><feBlend in="SourceGraphic" in2="effect1_dropShadow_1492_3705" result="shape"/></filter><filter id="d" width="12.9" height="12.9" x="94.1" y="93.9" color-interpolation-filters="sRGB" filterUnits="userSpaceOnUse"><feFlood flood-opacity="0" result="BackgroundImageFix"/><feColorMatrix in="SourceAlpha" result="hardAlpha" values="0 0 0 0 0 0 0 0 0 0 0 0 0 0 0 0 0 0 127 0"/><feOffset dy="3.2"/><feGaussianBlur stdDeviation="1.6"/><feComposite in2="hardAlpha" operator="out"/><feColorMatrix values="0 0 0 0 0 0 0 0 0 0 0 0 0 0 0 0 0 0 0.25 0"/><feBlend in2="BackgroundImageFix" result="effect1_dropShadow_1492_3705"/><feBlend in="SourceGraphic" in2="effect1_dropShadow_1492_3705" result="shape"/></filter></defs></svg>