<svg xmlns="http://www.w3.org/2000/svg" width="200" height="160" fill="none"><rect width="200" height="160" fill="#fff" rx="4"/><rect width="199" height="159" x=".5" y=".5" stroke="#000" stroke-opacity=".1" rx="3.5"/><g clip-path="url(#a)"><path fill="#F36900" d="M33.1 48.2V44l-2 2.1-2-2 5.4-5.5L40 44l-2 2-2-2v4H33Zm-9-10.9v-2.6H45v2.6H24Zm0-3.9v-2.6H45v2.6H24Zm10.4-3.9L29 24l2-2 2.1 2.1V20H36V24l2-2.1 2 2-5.5 5.5Z"/></g><path fill="#000" fill-opacity=".9" d="M60.8 29.5h-2.3v-1.2h2.3c.4 0 .7 0 1-.2.2-.1.4-.3.5-.6l.2-.7c0-.3 0-.6-.2-.8 0-.3-.3-.5-.5-.6-.3-.2-.6-.3-1-.3h-1.9v7.7h-1.5V24h3.4c.7 0 1.3.1 1.8.4.4.2.8.6 1 1 .3.4.4.9.4 1.4 0 .6 0 1.1-.3 1.5-.3.4-.7.8-1.1 1-.5.2-1.1.3-1.8.3Zm6.2-2v5.3h-1.5v-6.6h1.4v1.3Zm2-1.3v1.3a2.9 2.9 0 0 0-1.3 0 1.3 1.3 0 0 0-.8.9v.6h-.4V28l.5-1 .6-.6a1.7 1.7 0 0 1 1.1-.2h.3Zm4 6.8c-.6 0-1-.1-1.4-.3a3 3 0 0 1-1.7-1.7l-.2-1.3v-.2c0-.5.1-1 .3-1.4.1-.4.3-.8.6-1 .3-.4.6-.6 1-.8a3 3 0 0 1 1.1-.2c.5 0 1 0 1.3.2l.9.7.5 1 .2 1.3v.7h-5.2v-1.1h3.7v-.1c0-.3 0-.5-.2-.8 0-.2-.2-.4-.4-.5-.2-.2-.4-.2-.8-.2l-.6.1-.5.5-.3.7v2l.4.6.5.4.8.2a2 2 0 0 0 1.7-.8l.7.7a2.8 2.8 0 0 1-1.4 1c-.3.2-.7.3-1 .3Zm7.6-2v-.4a1 1 0 0 0-.5-.3l-.9-.3-1-.2a3 3 0 0 1-.7-.4l-.5-.6-.2-.7c0-.3 0-.5.2-.8l.5-.6.8-.5 1-.1c.6 0 1.1 0 1.5.3.4.1.7.4 1 .7l.2 1h-1.4c0-.1 0-.3-.2-.4a1 1 0 0 0-.4-.4l-.6-.1h-.7l-.3.4a.8.8 0 0 0 0 .7l.1.3c.1 0 .3 0 .5.2l.6.1 1.3.4c.4.2.7.4.9.7.2.2.3.6.3 1a1.7 1.7 0 0 1-.7 1.4l-.9.4-1.1.2c-.6 0-1.1-.2-1.5-.4-.4-.2-.8-.5-1-.8a2 2 0 0 1-.3-1H78l.3.6.5.4H80l.4-.3.1-.5Zm6.7 0-.1-.4a1 1 0 0 0-.4-.3l-1-.3-1-.2a3 3 0 0 1-.7-.4l-.4-.6c-.2-.2-.2-.4-.2-.7 0-.3 0-.5.2-.8 0-.2.2-.4.5-.6l.8-.5 1-.1c.6 0 1 0 1.5.3.4.1.7.4.9.7.2.3.3.7.3 1h-1.5l-.1-.4a1 1 0 0 0-.4-.4l-.7-.1h-.6l-.4.4a.8.8 0 0 0 0 .7l.2.3.4.2.7.1 1.3.4c.4.2.7.4.8.7.2.2.3.6.3 1a1.7 1.7 0 0 1-.7 1.4l-.8.4-1.1.2c-.6 0-1.2-.2-1.6-.4l-1-.8a2 2 0 0 1-.2-1h1.4c0 .2 0 .4.2.6l.5.4H86.7l.5-.3V31Zm7 .3v-5.1h1.4v6.6h-1.4v-1.5Zm.1-1.4h.5l-.1 1.2-.5 1c-.2.3-.4.5-.8.6-.3.2-.7.3-1.1.3-.3 0-.6 0-.9-.2-.3 0-.5-.2-.7-.4a2 2 0 0 1-.4-.8l-.2-1.1v-4.3h1.5V31.1l.3.4.3.2h.5c.4 0 .7 0 1-.2l.5-.7.1-1Zm4.5-2.4v5.3h-1.5v-6.6h1.4l.1 1.3Zm2-1.3v1.3a3 3 0 0 0-1.3 0 1.3 1.3 0 0 0-.7.9l-.2.6h-.3l.1-1.1.4-1 .6-.6a1.7 1.7 0 0 1 1.2-.2h.2Zm4 6.8c-.5 0-1-.1-1.4-.3A3 3 0 0 1 102 31c-.2-.4-.2-.8-.2-1.3v-.2c0-.5 0-1 .2-1.4.1-.4.4-.8.6-1 .3-.4.6-.6 1-.8a3 3 0 0 1 1.2-.2c.4 0 .9 0 1.2.2.4.2.7.4.9.7l.5 1 .2 1.3v.7h-5.1v-1.1h3.6v-.1l-.1-.8-.4-.5c-.2-.2-.5-.2-.8-.2l-.7.1-.5.5-.3.7v2l.4.6.6.4.7.2a2 2 0 0 0 1.7-.8l.8.7a2.8 2.8 0 0 1-1.4 1c-.3.2-.7.3-1.1.3Z"/><path fill="#000" fill-opacity=".4" d="M61.4 46v.8H58V46h3.4Zm-3-5.9v6.7h-1.2v-6.7h1.1Zm6.8 5.7v-2.3L65 43l-.3-.3a1 1 0 0 0-.5-.1h-.5l-.3.3-.1.4h-1.1l.1-.6.4-.5.7-.3.8-.1c.4 0 .7 0 1 .2.3 0 .6.3.7.5.2.3.3.6.3 1V46.3l.2.5h-1.2l-.1-.4v-.6Zm.1-2v.7H64l-.4.2a.7.7 0 0 0-.3.6v.4l.3.3h.5a1.2 1.2 0 0 0 1-.4l.1-.4.4.5-.2.4-.3.4a1.7 1.7 0 0 1-1.2.4c-.4 0-.7 0-1-.2l-.5-.5c-.2-.2-.2-.5-.2-.8l.1-.7.5-.5.7-.3h1.8Zm5.1 1.7v-.3l-.4-.3a3 3 0 0 0-.7-.2c-.2 0-.5 0-.7-.2l-.6-.3-.3-.4-.1-.5v-.6l.5-.5.6-.3.8-.1c.4 0 .7 0 1 .2.3.1.6.3.7.5.2.3.3.5.3.8h-1.1l-.1-.3-.3-.3a1 1 0 0 0-.5-.1 1 1 0 0 0-.5 0l-.3.3a.6.6 0 0 0 0 .5l.1.2.4.2.5.1 1 .3.6.5.2.7a1.3 1.3 0 0 1-.5 1.1 2 2 0 0 1-.7.3l-.8.1c-.5 0-.8 0-1.2-.2l-.7-.6-.2-.8h1l.2.5.4.2.5.1h.5l.3-.3.1-.3Zm4.5-3.6v.8h-2.8v-.8H75Zm-2-1.3h1.2v5.2l.2.2h.3a1.7 1.7 0 0 0 .4 0v.8a2.8 2.8 0 0 1-.7.1l-.7-.1a1 1 0 0 1-.5-.5l-.1-.8v-4.9Zm8.6 5V42h1.1v5h-1v-1.2Zm.2-1h.4l-.1 1-.4.7-.6.5a2 2 0 0 1-.8.1 2 2 0 0 1-.7 0l-.5-.4-.4-.6v-4h1v3.6l.3.3.2.2h.3c.3 0 .6 0 .8-.2.2 0 .3-.2.4-.5v-.7Zm3.4-1.8v6H84v-7h1v1Zm3.2 1.5v.1l-.1 1c0 .3-.2.6-.4.8-.1.2-.3.4-.6.5-.2.2-.5.2-.8.2l-.8-.1-.6-.5-.4-.8-.2-1v-.3l.2-1 .4-.8a1.6 1.6 0 0 1 1.4-.6c.3 0 .6 0 .8.2.3 0 .5.2.6.5l.4.8.1 1Zm-1 .1v-.1l-.1-.6-.2-.6a1 1 0 0 0-1-.4h-.4a1 1 0 0 0-.4.3l-.2.4-.1.5v1l.2.5c0 .2.2.4.4.5l.6.1h.5l.4-.4.2-.6v-.6Zm5.2 1.4v-6h1.1v7h-1v-1Zm-3.2-1.4v-.1l.1-1c0-.3.2-.6.4-.8.2-.3.4-.4.6-.5.2-.2.5-.2.8-.2l.8.1.6.5.4.8.2 1v.3l-.2 1-.4.8a1.6 1.6 0 0 1-1.4.6 1.7 1.7 0 0 1-1.4-.7l-.4-.8-.1-1Zm1-.1v.1l.1.6.2.6.4.3.5.1.6-.1.4-.5.2-.6V44l-.1-.6-.3-.4a1 1 0 0 0-.3-.2l-.5-.1a1 1 0 0 0-.5 0 1 1 0 0 0-.4.4l-.2.6v.6Zm7.5 1.5v-2.3l-.1-.5-.3-.3a1 1 0 0 0-.5-.1h-.5l-.3.3v.4h-1.2c0-.2 0-.4.2-.6 0-.2.2-.3.4-.5l.6-.3.9-.1c.3 0 .7 0 1 .2.2 0 .5.3.6.5.2.3.3.6.3 1V46.3l.2.5h-1.2v-.4l-.1-.6Zm.1-2v.7H96.6l-.4.2a.7.7 0 0 0-.3.6l.1.4.3.3h.4a1.2 1.2 0 0 0 1-.4l.2-.4.3.5-.2.4-.3.4a1.7 1.7 0 0 1-1.2.4c-.3 0-.6 0-.9-.2l-.6-.5-.2-.8.1-.7.5-.5.7-.3h1.8Zm4.6-2v.9h-2.8v-.8h2.8Zm-2-1.2h1.1v4.9l.1.3.2.2h.3a1.7 1.7 0 0 0 .4 0v.8a2.8 2.8 0 0 1-.8.1l-.6-.1a1 1 0 0 1-.5-.5l-.2-.8v-4.9Zm5.3 6.3c-.4 0-.7 0-1-.2a2.2 2.2 0 0 1-1.3-1.2l-.1-1v-.2l.1-1 .5-.8.7-.6 1-.1.9.1c.2.2.5.3.6.6l.4.7.2 1v.5h-3.9v-.8h2.8v-.1c0-.2 0-.4-.2-.6a1 1 0 0 0-.3-.4 1 1 0 0 0-.6-.2 1 1 0 0 0-.8.5l-.2.5-.1.7v.8l.3.5c.2.1.3.3.5.3l.5.1a1.5 1.5 0 0 0 1.3-.6l.6.6-.4.4-.7.4-.8.1Zm8.5-6.8v6.7h-1v-5.4l-1.7.6v-1l2.6-.9h.1Zm5.6 5.7v-6h1.2v7h-1l-.2-1Zm-3.2-1.4v-.1l.1-1 .4-.8c.2-.3.4-.4.6-.5.3-.2.6-.2.9-.2l.8.1.5.5.4.8.2 1v.3c0 .4 0 .7-.2 1 0 .3-.2.5-.4.8a1.6 1.6 0 0 1-1.3.6 1.7 1.7 0 0 1-1.5-.7l-.4-.8v-1Zm1.1-.1v.7l.3.6.3.3.5.1.7-.1.3-.5.2-.6v-1.4l-.3-.4a1 1 0 0 0-.4-.2l-.5-.1a1 1 0 0 0-.5 0 1 1 0 0 0-.3.4l-.2.6v.6Zm10 1.5v-2.3l-.1-.5-.3-.3a1 1 0 0 0-.5-.1h-.5l-.3.3-.1.4h-1.1l.1-.6.4-.5.7-.3.8-.1c.4 0 .7 0 1 .2.3 0 .6.3.7.5.2.3.3.6.3 1V46.3l.2.5h-1.2l-.1-.4v-.6Zm.1-2v.7h-1.3l-.4.2a.7.7 0 0 0-.3.6v.4l.3.3h.5a1.2 1.2 0 0 0 1-.4l.1-.4.4.5-.2.4-.3.4a1.7 1.7 0 0 1-1.2.4c-.4 0-.7 0-1-.2l-.5-.5-.2-.8.1-.7.5-.5.7-.3h1.8Zm5.5-2h1v4.9c0 .4 0 .8-.3 1.1-.2.3-.4.6-.8.7a2.7 2.7 0 0 1-1.8.2l-.6-.3c-.3 0-.4-.2-.6-.4l.5-.7.6.5a1.6 1.6 0 0 0 1.3 0l.5-.4.1-.7V43l.1-1.1Zm-3.4 2.6v-.1c0-.4 0-.7.2-1 0-.3.2-.6.4-.8.1-.3.3-.4.6-.5.2-.2.5-.2.8-.2l.8.1.6.5.4.8.2 1v.3l-.2 1-.4.8a1.6 1.6 0 0 1-1.4.6 1.8 1.8 0 0 1-1.4-.7l-.4-.8-.2-1Zm1.1-.1v.1l.1.6.2.6.4.3.5.1.6-.1.4-.5.2-.6V44l-.1-.6-.2-.4a1 1 0 0 0-.4-.2l-.5-.1a1 1 0 0 0-.5 0 1 1 0 0 0-.4.4l-.2.6v.6Zm4.5.1v-.1l.1-1 .5-.8.7-.5c.3-.2.6-.2 1-.2.3 0 .7 0 1 .2.2 0 .5.3.7.5l.4.8.2 1v.1c0 .4 0 .7-.2 1 0 .3-.2.6-.4.8a2.1 2.1 0 0 1-1.7.7c-.4 0-.7 0-1-.2-.3 0-.5-.3-.7-.5l-.5-.8a3 3 0 0 1-.1-1Zm1-.1v.1l.1.6.2.6.4.3.6.1a1 1 0 0 0 .9-.4l.2-.6V43.7l-.2-.6a1 1 0 0 0-1-.5 1 1 0 0 0-.5.2 1 1 0 0 0-.4.3l-.2.6v.6Z"/><path fill="#F36900" d="M62.1 82.2v25.6H58V87.2l-6.3 2.1v-3.5l10-3.6h.5Zm26.2 22.3v3.3H71V105l8.4-9 2.1-2.7c.5-.8 1-1.5 1.1-2a5.2 5.2 0 0 0-.1-4c-.3-.6-.7-1-1.3-1.4-.6-.4-1.3-.6-2-.6-1 0-1.8.3-2.5.7-.6.4-1.1 1-1.4 1.7-.4.7-.5 1.5-.5 2.4h-4.3c0-1.5.4-2.8 1-4a7.5 7.5 0 0 1 3-3 9.2 9.2 0 0 1 4.7-1.1c1.7 0 3.1.3 4.3.8 1.2.6 2.1 1.4 2.7 2.5a7.6 7.6 0 0 1 .6 6.1c-.2.8-.6 1.6-1.1 2.4L84.1 96a42 42 0 0 1-2 2.4l-5.6 6h11.8ZM101 80.8h4.2v23l-.4 4H101v-27Zm16.6 17.3v.4a15 15 0 0 1-.4 3.9 9 9 0 0 1-1.4 3c-.7 1-1.4 1.6-2.4 2-.9.6-2 .8-3.1.8-1.2 0-2.3-.2-3.1-.7-1-.4-1.7-1-2.3-1.9-.5-.8-1-1.8-1.4-3-.3-1-.6-2.3-.7-3.7v-1.2c.1-1.3.4-2.6.7-3.7.4-1.2.9-2.1 1.4-3a6.1 6.1 0 0 1 5.3-2.5 7 7 0 0 1 3.2.7c1 .4 1.8 1.1 2.4 2a9 9 0 0 1 1.4 3c.3 1.2.4 2.5.4 4Zm-4.2.4v-.4c0-.8 0-1.6-.2-2.4-.1-.7-.4-1.4-.7-2a3.7 3.7 0 0 0-3.3-1.9c-.8 0-1.4.2-2 .5-.5.2-1 .6-1.3 1-.4.5-.7 1-.9 1.6l-.4 1.9v3.1c.1 1 .3 1.7.7 2.5.3.7.8 1.3 1.5 1.7.6.5 1.4.7 2.4.7.8 0 1.5-.2 2-.5s1-.8 1.3-1.3l.7-2 .2-2.5ZM132 104v-9c0-.7 0-1.3-.3-1.8s-.7-.9-1.2-1.2c-.4-.2-1-.4-1.8-.4-.7 0-1.3.2-1.8.4s-1 .5-1.2 1c-.3.3-.4.8-.4 1.3H121c0-.8.2-1.5.5-2.2.4-.7 1-1.3 1.6-1.9.7-.5 1.5-1 2.5-1.3 1-.3 2-.4 3.2-.4 1.4 0 2.7.2 3.8.7 1.1.5 2 1.2 2.6 2.2.7 1 1 2.1 1 3.6v8.4c0 1 0 1.7.2 2.4l.5 1.8v.2h-4.3c-.2-.4-.4-1-.5-1.7l-.2-2Zm.7-7.7v2.6h-3c-.8 0-1.5 0-2.1.2l-1.5.6a2.7 2.7 0 0 0-1.2 2.4c0 .5.1 1 .3 1.4l1 1c.5.2 1 .3 1.7.3a4.7 4.7 0 0 0 3.8-1.8c.4-.5.6-1 .6-1.5l1.4 1.9-.7 1.5-1.4 1.6a6.6 6.6 0 0 1-4.5 1.7c-1.3 0-2.4-.3-3.3-.8a6 6 0 0 1-2.3-2c-.6-.8-.9-1.8-.9-2.9 0-1 .2-1.9.6-2.6.4-.8 1-1.5 1.7-2s1.7-1 2.7-1.2c1.1-.3 2.4-.4 3.7-.4h3.4Zm12.4-3.9v15.4h-4.3v-19h4l.3 3.6Zm5.8-3.7v4a8.3 8.3 0 0 0-3.7.1 3.6 3.6 0 0 0-2.2 2.3l-.4 1.8h-1c0-1.2.2-2.3.4-3.3s.6-1.9 1-2.7c.5-.8 1.1-1.4 1.9-1.8a4.8 4.8 0 0 1 3.3-.6l.7.2Z"/><defs><clipPath id="a"><path fill="#fff" d="M18.8 19.1h31.4v31.4H18.8z"/></clipPath></defs></svg>