<svg xmlns="http://www.w3.org/2000/svg" width="200" height="160" fill="none"><rect width="200" height="160" fill="#fff" rx="4"/><rect width="199" height="159" x=".5" y=".5" stroke="#000" stroke-opacity=".1" rx="3.5"/><g clip-path="url(#a)"><path fill="#000" fill-opacity=".9" d="M19.3 26.8v-2.1l-1 1-1.1-1L20 22l2.8 2.8-1 1-1-1v2h-1.5Zm-4.6-5.5v-1.4h10.6v1.4H14.7Zm0-2v-1.4h10.6v1.4H14.7Zm5.3-2-2.8-2.8 1-1 1 1v-2h1.5v2l1-1 1.1 1-2.8 2.8Z"/></g><path fill="#000" fill-opacity=".9" d="M36.8 21.3h-2.6v-1.4h2.6c.4 0 .8 0 1-.2.4-.1.6-.3.7-.6l.2-.9c0-.3 0-.6-.2-.9-.1-.2-.3-.5-.6-.6a2 2 0 0 0-1.1-.3h-2V25H33V15h3.8c.8 0 1.4.2 2 .5.5.2 1 .6 1.2 1 .3.6.4 1 .4 1.7 0 .6-.1 1.2-.4 1.7a3 3 0 0 1-1.2 1c-.6.3-1.2.4-2 .4Zm6.9-2.3v6H42v-7.4h1.6V19Zm2.3-1.4V19a3.2 3.2 0 0 0-1.5 0 1.4 1.4 0 0 0-.8 1l-.2.6h-.4c0-.4 0-.8.2-1.2 0-.4.2-.8.4-1 .2-.4.4-.6.7-.8a1.9 1.9 0 0 1 1.3-.2h.3Zm4.4 7.5c-.6 0-1 0-1.5-.2a3.3 3.3 0 0 1-1.8-2 4 4 0 0 1-.3-1.3v-.3c0-.6 0-1.1.3-1.6.1-.5.4-.9.7-1.2a3 3 0 0 1 1-.8l1.4-.2c.5 0 1 0 1.4.2l1 .8.5 1.1c.2.5.2 1 .2 1.5v.7h-5.7v-1.2h4.1v-.1c0-.3 0-.6-.2-.9 0-.2-.2-.4-.5-.6l-.8-.2c-.3 0-.6 0-.8.2-.2 0-.4.2-.5.5-.1.2-.3.4-.3.7l-.1 1v1.3l.5.7.6.5.9.1a2.3 2.3 0 0 0 1.8-.9l.9.9-.6.6-1 .5c-.3.2-.8.2-1.2.2ZM59 23l-.1-.4a1 1 0 0 0-.5-.4l-1-.3-1-.3-1-.5-.5-.6-.1-.8c0-.3 0-.6.2-.9 0-.2.3-.5.5-.7l1-.5 1.1-.1c.6 0 1.2 0 1.6.3.4.2.8.5 1 .8.3.4.4.8.4 1.2h-1.7l-.1-.5a1 1 0 0 0-.5-.5l-.7-.1-.7.1a1 1 0 0 0-.4.4.9.9 0 0 0 0 .8l.2.2.4.2.8.2 1.4.5c.5.2.8.4 1 .7.2.3.3.7.3 1.1a2 2 0 0 1-.8 1.6 3 3 0 0 1-1 .5l-1.2.1c-.6 0-1.2 0-1.7-.3-.4-.3-.8-.6-1-1-.3-.3-.4-.7-.4-1.1h1.6c0 .3.1.5.3.7l.5.4.7.1.8-.1c.2 0 .3-.2.4-.3.2-.2.2-.3.2-.5Zm7.5 0c0-.2 0-.3-.2-.4a1 1 0 0 0-.4-.4l-1-.3-1.1-.3-.9-.5a1 1 0 0 1-.5-.6l-.2-.8c0-.3 0-.6.2-.9l.6-.7.9-.5 1.2-.1c.6 0 1.1 0 1.6.3l1 .8.3 1.2h-1.6c0-.2 0-.4-.2-.5a1 1 0 0 0-.4-.5l-.7-.1-.7.1a1 1 0 0 0-.5.4.9.9 0 0 0 0 .8l.2.2.5.2.7.2 1.5.5 1 .7c.2.3.3.7.3 1.1a2 2 0 0 1-.8 1.6 3 3 0 0 1-1 .5l-1.2.1c-.7 0-1.3 0-1.7-.3-.5-.3-.8-.6-1-1-.3-.3-.4-.7-.4-1.1h1.6c0 .3 0 .5.2.7l.6.4.7.1.7-.1c.2 0 .4-.2.5-.3l.2-.5Zm7.7.3v-5.7H76V25h-1.6v-1.7Zm.3-1.6h.5c0 .5 0 1-.2 1.4 0 .4-.2.8-.5 1-.2.4-.5.6-.8.8a3 3 0 0 1-1.3.2 3 3 0 0 1-1-.1 2 2 0 0 1-.8-.5 2 2 0 0 1-.5-.9 4 4 0 0 1-.2-1.2v-4.8h1.7v5.5l.3.4.4.2.5.1c.5 0 .8 0 1-.3.4-.2.6-.4.7-.7l.2-1Zm5-2.7v6h-1.7v-7.4h1.6V19Zm2.2-1.4V19a3.2 3.2 0 0 0-1.4 0 1.4 1.4 0 0 0-.9 1l-.1.6h-.4c0-.4 0-.8.2-1.2 0-.4.2-.8.4-1 .2-.4.4-.6.7-.8a1.9 1.9 0 0 1 1.3-.2h.2Zm4.4 7.5c-.5 0-1 0-1.4-.2a3.3 3.3 0 0 1-1.9-2 4 4 0 0 1-.2-1.3v-.3c0-.6 0-1.1.2-1.6s.4-.9.7-1.2a3 3 0 0 1 1.1-.8l1.3-.2c.6 0 1 0 1.4.2l1 .8c.3.3.5.7.6 1.1l.2 1.5v.7h-5.7v-1.2h4v-.1l-.1-.9-.5-.6-.9-.2c-.2 0-.5 0-.7.2-.2 0-.4.2-.5.5l-.4.7v2.3l.5.7.6.5.8.1a2.3 2.3 0 0 0 1.9-.9l.9.9-.7.6a2 2 0 0 1-.9.5c-.4.2-.8.2-1.3.2Z"/><path fill="#F77410" d="M83.5 58.3V84h-4.2V63.3L73 65.5V62l10-3.7h.5Zm26.1 22.3V84H92.5v-2.9l8.3-9c1-1.1 1.7-2 2.2-2.8.5-.7.9-1.4 1-2a5.2 5.2 0 0 0 0-3.9c-.3-.6-.8-1-1.3-1.4-.6-.4-1.3-.6-2.1-.6-1 0-1.8.2-2.4.6-.7.4-1.2 1-1.5 1.7-.3.7-.5 1.6-.5 2.5H92c0-1.5.3-2.9 1-4a7.5 7.5 0 0 1 3-3 9.2 9.2 0 0 1 4.6-1.1c1.7 0 3.2.2 4.4.8 1.2.6 2 1.4 2.7 2.5a7.6 7.6 0 0 1 .6 6.1l-1.1 2.3a41.5 41.5 0 0 1-3.8 4.7l-5.6 6.1h11.8Zm5.4-7.1h1.2V84H115V73.5Zm6.2 6.7v.2c0 .5 0 1-.2 1.5 0 .4-.3.8-.5 1.2l-1 .8-1.2.2a3 3 0 0 1-1.2-.2l-.9-.7-.6-1.1-.3-1.5V80l.3-1.5.6-1c.3-.4.6-.6 1-.8.3-.2.7-.2 1.1-.2.5 0 1 0 1.3.2l.9.8.5 1.2c.2.5.2 1 .2 1.5Zm-1.2.2v-.2l-.1-1-.4-.9a1.6 1.6 0 0 0-1.5-.8 1.8 1.8 0 0 0-1.4.6l-.4.7-.2.7v1.6c0 .4.2.7.3 1l.7.7c.3.2.6.3 1 .3l1-.2.5-.6.3-.9.2-1Zm7.4 2.3V79c0-.3 0-.5-.2-.7l-.5-.5c-.2-.2-.5-.2-.9-.2a2 2 0 0 0-.8.1l-.6.5a1 1 0 0 0-.2.6H123c0-.3 0-.6.2-.8.1-.3.3-.5.6-.7a3 3 0 0 1 .9-.5c.4-.2.8-.2 1.2-.2.5 0 1 0 1.4.2.4.2.8.5 1 .9.2.3.4.8.4 1.3v4.3l.2.7v.1h-1.3l-.2-.6v-.7Zm.2-3.2v.9h-2.3l-.6.3-.5.5-.1.6.1.6.5.5.8.1a2 2 0 0 0 1.7-.8l.3-.7.6.6-.3.6a3 3 0 0 1-1.4 1.2c-.3.2-.7.2-1 .2-.6 0-1 0-1.4-.3-.4-.2-.7-.4-.9-.7a2 2 0 0 1-.3-1.2c0-.4 0-.7.2-1l.7-.8 1-.4 1.4-.2h1.5Zm4.5-1.7V84h-1.3v-7.4h1.3v1.2Zm2.3-1.2v1.1h-.6a2 2 0 0 0-.8.1l-.5.4-.4.6-.2.7-.3.2v-1.2l.5-1c.2-.4.4-.6.7-.8a2 2 0 0 1 1.6-.1Z"/><path fill="url(#b)" fill-opacity=".3" d="M147.4 71.8h7.2v8.9l-3.6 2.6-3.6-2.6v-9Z"/><path fill="#000" fill-opacity=".9" fill-rule="evenodd" d="M150.7 83.9c.2.2.4.2.6 0l3.3-3.2-.7-.7-1.4 1.4c-.4.4-1 .1-1-.4v-3.9h-1v4c0 .4-.6.7-1 .3l-1.4-1.4-.7.7 3.3 3.2Z" clip-rule="evenodd"/><path fill="#000" fill-opacity=".9" d="M162.6 79.8v1.1h-3.1v-1.1h3Zm5.2-4.4V84h-1.4v-6.9l-2 .7v-1.1l3.3-1.3h.1Zm7.5 0h.2v1.2h-.1c-.5 0-1 0-1.3.2l-1 .6-.4 1c-.2.4-.2.8-.2 1.2v1.3l.1 1 .3.6.5.4h1.1l.5-.4.2-.6a2.5 2.5 0 0 0-.2-2l-.5-.3-.6-.1c-.3 0-.5 0-.7.2-.3.1-.4.3-.6.5l-.2.7-.5-.2c0-.4 0-.7.2-1l.5-.7.8-.5.9-.2c.4 0 .8.1 1 .3.4.1.6.3.8.6l.5 1a3.7 3.7 0 0 1 0 2.1l-.6 1-.9.6-1.1.2c-.5 0-.9 0-1.3-.2l-.9-.8-.5-1c-.2-.4-.2-.9-.2-1.3v-.6c0-.7 0-1.3.2-1.8.2-.6.4-1.1.8-1.6.3-.4.8-.8 1.3-1a4 4 0 0 1 2-.4Zm3.3 2.2V77c0-.3 0-.6.2-.9.1-.2.3-.5.6-.6.3-.2.6-.3 1-.3s.7.1 1 .3l.6.6.2 1v.4c0 .3 0 .6-.2.8l-.6.7-1 .2a2 2 0 0 1-1-.2c-.3-.2-.5-.4-.6-.7l-.2-.8Zm1-.5v.9l.3.3.5.2c.2 0 .3 0 .5-.2l.2-.3.1-.4v-.9l-.4-.4a.8.8 0 0 0-.4-.1l-.5.1-.2.4-.1.4Zm3.1 5.3v-.5c0-.3 0-.6.2-.9l.6-.6c.3-.2.6-.2 1-.2s.7 0 1 .2l.6.6.2 1v.4c0 .3 0 .6-.2.8-.1.3-.3.5-.6.7l-1 .2a2 2 0 0 1-1-.2l-.6-.7-.2-.8Zm1-.5v.9l.4.4h.9l.3-.4v-1.3a.8.8 0 0 0-.8-.5l-.5.1-.2.4-.1.4Zm1.2-5.2-4.2 6.7-.7-.5 4.1-6.6.8.4Z"/><g clip-path="url(#c)"><path fill="#000" fill-opacity=".1" fill-rule="evenodd" d="M188 125H12v-1h176v1Z" clip-rule="evenodd"/><path stroke="#000" stroke-opacity=".9" stroke-width="1.5" d="M12 133.8h9.3l13.3 9.2L45 112.2l21.6 22.6 23.7-22.6 7.2 1 14.4 29.8h14.4l12.4-26.7h9.3l9-14.3 12.4 4.1 18.5 10.3"/></g><defs><clipPath id="a"><path fill="#fff" d="M12 12h16v16H12z"/></clipPath><clipPath id="c"><path fill="#fff" d="M12 90h176v60H12z"/></clipPath><linearGradient id="b" x1="150.7" x2="150.7" y1="84" y2="71.8" gradientUnits="userSpaceOnUse"><stop offset="0" style="stop-color:#fff;stop-opacity:1"/><stop offset="1" style="stop-color:#fff;stop-opacity:0"/></linearGradient></defs></svg>