<svg xmlns="http://www.w3.org/2000/svg" width="200" height="160" fill="none"><rect width="200" height="160" fill="#fff" rx="4"/><rect width="199" height="159" x=".5" y=".5" stroke="#000" stroke-opacity=".1" rx="3.5"/><g clip-path="url(#a)"><path fill="url(#b)" d="m67.3 50.3-22.1 56-7.7 17v19.3H186v-25.3l-.5-26.3-10.5 40-6.2-25-2.6 7.3-11.4 27.5c-7.5-29.9-13.8-41-22-70.4l-8.6 43.9h-10.9L111.2 43l-4.3-28-20.2 70-4.8-2.2-14.6-32.5Z"/><path stroke="url(#c)" stroke-width=".9" d="m37.8 123.4 7.7-17.2 22-56 14.7 32.6 4.8 2.1 20.2-70 4.6 35.3 1.8 64h11.5l7.2-44.7 22.8 70.9 11.4-27.6 2.6-7.4 6.2 25.5 10-39.9"/></g><path fill="#000" fill-opacity=".5" d="M15.4 17.2v.6h-3.7v-.5l1.9-2.1.5-.7.3-.4v-1l-.4-.4a1 1 0 0 0-.5 0h-.7a1 1 0 0 0-.3.5l-.2.6h-.7c0-.4 0-.6.2-1l.7-.5a2 2 0 0 1 1-.3c.3 0 .6 0 .9.2l.6.5.2.8-.1.5-.2.6a7.8 7.8 0 0 1-.8 1l-1.5 1.6h2.8Zm1.9-2.1-.6-.2.3-2.8h2.9v.7h-2.3l-.2 1.5.4-.2h.6l.7.1c.2 0 .3.2.5.4l.3.6.1.8v.7c-.1.3-.2.5-.4.6-.1.2-.3.3-.6.4a2.2 2.2 0 0 1-1.4 0c-.2 0-.4 0-.6-.2l-.3-.5a2 2 0 0 1-.2-.7h.7l.1.5.4.4h1l.3-.3.2-.4a1.8 1.8 0 0 0 0-1c0-.2 0-.3-.2-.4a1 1 0 0 0-.3-.3h-1.1l-.3.3Zm3.7-3.3h.8V17l-.1.8H21v-6Zm3.6 3.8v1l-.4.7-.5.4-.7.2c-.3 0-.5 0-.7-.2-.2 0-.4-.2-.5-.4a2 2 0 0 1-.4-.6 4 4 0 0 1-.1-.8v-.4l.1-.8.4-.7c0-.2.3-.3.5-.4l.7-.1.7.1.5.5.3.7.1.8Zm-.7.1V15l-.3-.5a1 1 0 0 0-.8-.4h-.5a1 1 0 0 0-.3.3l-.3.4v1.4l.1.5.4.4.6.1h.5l.3-.4.2-.5v-.6Zm4.2 1.4v-2.6c-.1-.2-.2-.3-.4-.3a1 1 0 0 0-.5-.1h-.4l-.4.3v.3h-.8l.1-.4.4-.4.5-.3.7-.1.8.1.6.5.2.8v2.4l.1.4h-.7l-.1-.2V17Zm.2-1.9v.5H27l-.4.2-.3.3v.7l.3.2.5.1a1.2 1.2 0 0 0 1-.5l.1-.3.3.3-.1.4a1.7 1.7 0 0 1-.8.6l-.6.2c-.3 0-.6 0-.8-.2l-.5-.5-.2-.6c0-.2 0-.4.2-.6 0-.2.2-.3.3-.4l.6-.3H28.3Zm2.5-1v3.6h-.7v-4.2h.7v.6Zm1.4-.7v.7h-.8a1 1 0 0 0-.4.3l-.2.3v.4l-.3.1.1-.7.2-.6.4-.4a1.1 1.1 0 0 1 1 0ZM15.4 42.9v.6h-3.7V43l1.9-2.1.5-.7.3-.4v-1l-.4-.4a1 1 0 0 0-.5 0h-.7a1 1 0 0 0-.3.5l-.2.6h-.7c0-.4 0-.7.2-1l.7-.5a2 2 0 0 1 1-.3c.3 0 .6 0 .9.2l.6.5.2.8-.1.5-.2.5a7.8 7.8 0 0 1-.8 1L12.6 43h2.8Zm4.5-2.7v.8l-.1 1.2-.4.8-.5.4a2 2 0 0 1-.8.2l-.6-.1c-.2 0-.3-.2-.5-.3l-.4-.5-.2-.7v-3c.1-.3.2-.6.4-.7.2-.2.3-.4.6-.5H18.7a1.4 1.4 0 0 1 .9.7l.2.7.1 1Zm-.7 1v-1.8l-.2-.5a1 1 0 0 0-.2-.3l-.3-.2a1 1 0 0 0-.4-.1 1 1 0 0 0-.4.1c-.2 0-.3.2-.4.3l-.2.5V41.8l.1.5.2.4.3.2h.9l.3-.4.2-.5v-.8Zm1.8-3.7h.8v5.2l-.1.8H21v-6Zm3.6 3.8v1l-.4.6-.5.5-.7.2c-.3 0-.5 0-.7-.2-.2 0-.4-.2-.5-.4a2 2 0 0 1-.4-.6 4 4 0 0 1-.1-.9v-.3l.1-.9.4-.6c0-.2.3-.3.5-.4l.7-.1.7.1.5.5.3.7.1.8Zm-.7.1v-.7l-.3-.5a1 1 0 0 0-.8-.4h-.5a1 1 0 0 0-.3.3l-.3.4v1.4l.1.5.4.4.6.1h.5l.3-.4.2-.5v-.6Zm4.2 1.4V40l-.4-.2a1 1 0 0 0-.5-.1h-.4l-.4.3v.3h-.8l.1-.4.4-.4c.1-.2.3-.2.5-.3l.7-.1.8.1.6.5.2.8V43l.1.4h-.7l-.1-.3v-.3Zm.2-1.9v.5H27l-.4.2-.3.3v.7l.3.2.5.1a1.2 1.2 0 0 0 1-.5l.1-.4.3.4-.1.4a1.7 1.7 0 0 1-.8.6l-.6.2-.8-.2-.5-.5-.2-.6c0-.2 0-.4.2-.6 0-.2.2-.3.3-.4l.6-.3H28.3Zm2.5-1v3.6h-.7v-4.2h.7v.6Zm1.4-.7v.7h-.8a1 1 0 0 0-.4.3l-.2.3v.4l-.3.1.1-.7.2-.6.4-.4a1.1 1.1 0 0 1 1 0ZM14.1 63.5v5.7h-.7v-4.8l-1.5.5v-.7l2-.7h.2Zm3.2 3-.6-.2.3-2.8h2.9v.7h-2.3l-.2 1.5.4-.2H19.1l.5.5c.1.1.3.3.3.6l.1.8v.7l-.4.6c-.1.2-.3.3-.6.4a2 2 0 0 1-.8.2l-.6-.1-.6-.3-.3-.5a2 2 0 0 1-.2-.7h.7l.1.5c.1.2.3.3.4.3l.5.2.5-.1.3-.3.2-.4a1.8 1.8 0 0 0 0-1c0-.2 0-.3-.2-.4a1 1 0 0 0-.3-.3l-.5-.1-.6.1-.3.3Zm3.7-3.3h.8v5.2l-.1.8H21v-6Zm3.6 3.8v1l-.4.6-.5.5-.7.2-.7-.2c-.2 0-.4-.2-.5-.4a2 2 0 0 1-.4-.6 4 4 0 0 1-.1-.9V67l.1-.9.4-.6c0-.2.3-.3.5-.4l.7-.1.7.1.5.5.3.6.1 1Zm-.7.1v-.7l-.3-.5a1 1 0 0 0-.8-.4h-.5a1 1 0 0 0-.3.3l-.3.4v1.4l.1.5.4.4.6.1h.5l.3-.4.2-.5v-.6Zm4.2 1.3v-2.6l-.4-.2a1 1 0 0 0-.5-.2l-.4.1-.4.3v.3h-.8l.1-.4.4-.4c.1-.2.3-.3.5-.3l.7-.1.8.1.6.5.2.8v2.4l.1.4h-.7l-.1-.3v-.4Zm.2-1.8v.5H27l-.4.2-.3.3v.7l.3.2.5.1a1.2 1.2 0 0 0 1-.5l.1-.4.3.4-.1.3a1.7 1.7 0 0 1-.8.7l-.6.2-.8-.2-.5-.5-.2-.6c0-.2 0-.4.2-.6 0-.2.2-.3.3-.4l.6-.3H28.3Zm2.5-1v3.6h-.7v-4.3h.7v.7Zm1.4-.7v.7h-.8a1 1 0 0 0-.4.3l-.2.3v.4l-.3.1.1-.7.2-.6.4-.4a1.1 1.1 0 0 1 1 0ZM14.1 89.1V95h-.7V90l-1.5.6v-.7l2-.8h.2Zm5.8 2.5v.8l-.1 1.2-.4.8-.5.4a2 2 0 0 1-.8.1h-.6c-.2 0-.3-.2-.5-.3l-.4-.5-.2-.7v-3l.4-.8.6-.4.7-.1h.6a1.4 1.4 0 0 1 .9.8l.2.7.1 1Zm-.7 1V90.8l-.2-.5a1 1 0 0 0-.2-.4l-.3-.1a1 1 0 0 0-.4-.1 1 1 0 0 0-.4 0l-.4.4-.2.5v2.6l.1.5.2.4.3.2h.9l.3-.4.2-.5v-.8Zm1.8-3.7h.8V94l-.1.9H21v-6Zm3.6 3.8v1l-.4.6-.5.5-.7.1h-.7l-.5-.5a2 2 0 0 1-.4-.6 4 4 0 0 1-.1-.9v-.3l.1-.9.4-.6c0-.2.3-.3.5-.4l.7-.1.7.1.5.5.3.6.1 1Zm-.7.1V92l-.3-.5a1 1 0 0 0-.8-.4h-.5a1 1 0 0 0-.3.3l-.3.4v1.4l.1.5.4.4.6.1h.5l.3-.4.2-.5v-.6Zm4.2 1.3v-2.6l-.4-.3a1 1 0 0 0-.5 0h-.4l-.4.3v.3h-.8l.1-.4.4-.4c.1-.2.3-.3.5-.3l.7-.1.8.1.6.5.2.8v2.4l.1.4h-.7l-.1-.3v-.4Zm.2-1.8v.5H27l-.4.2-.3.3v.7l.3.2.5.1a1.2 1.2 0 0 0 1-.5l.1-.4.3.4-.1.3a1.7 1.7 0 0 1-.8.7l-.6.1-.8-.1-.5-.5-.2-.6c0-.2 0-.4.2-.6 0-.2.2-.3.3-.4l.6-.3.8-.1h.9Zm2.5-1v3.6h-.7v-4.3h.7v.7Zm1.4-.7v.7h-.8a1 1 0 0 0-.4.3l-.2.3v.4l-.3.1.1-.7.2-.6.4-.4a1.1 1.1 0 0 1 1 0ZM17.6 117.9l-.5-.2.2-2.8h3v.6H18l-.2 1.6.4-.2h1.2l.6.5.3.6.1.7v.8l-.4.6-.6.4a2 2 0 0 1-.8.1H18l-.6-.3-.4-.5a2 2 0 0 1-.1-.7h.6l.2.5c.1.1.2.3.4.3l.5.1h.5l.3-.3.2-.4a1.8 1.8 0 0 0 0-1c0-.2 0-.3-.2-.4a1 1 0 0 0-.3-.3l-.5-.1H18l-.4.4Zm3.8-3.3h.7v6h-.7v-6Zm3.6 3.8-.1 1-.3.6-.5.5-.7.1-.8-.1c-.2 0-.3-.2-.5-.4a2 2 0 0 1-.3-.6 4 4 0 0 1-.2-.9v-.3l.2-.9.3-.6.5-.4.7-.1.8.1.5.4.3.7.1 1Zm-.7 0v-.6l-.3-.5a1 1 0 0 0-.3-.3 1 1 0 0 0-.5-.1h-.5a1 1 0 0 0-.4.3l-.2.4-.1.4v1l.2.5.4.4.6.1h.5l.3-.4.2-.5v-.6Zm4.2 1.4v-2.6l-.4-.3a1 1 0 0 0-.5 0h-.5l-.3.3v.3H26l.1-.4c0-.2.2-.3.3-.4l.6-.3.7-.1.8.1.5.5c.2.2.2.5.2.8v2.4l.2.4h-.8v-.7Zm.1-1.8v.5h-1.2l-.4.2-.3.2v.8l.3.2.4.1a1.2 1.2 0 0 0 1-.5l.2-.4.3.4-.1.3a1.7 1.7 0 0 1-.8.7l-.7.1-.7-.1-.5-.5-.2-.6.1-.6.4-.4.6-.3.8-.1h.8Zm2.6-1v3.6h-.7v-4.3h.7v.7Zm1.3-.7v.7h-.8a1 1 0 0 0-.3.2l-.2.4v.4l-.3.1v-.7l.3-.6.4-.4a1.1 1.1 0 0 1 1 0ZM20.3 143v.8l-.1 1.2-.4.8c-.1.2-.3.3-.6.4a2 2 0 0 1-.7.1h-.6l-.5-.3-.4-.5-.2-.7-.1-1v-.8l.1-1.2.4-.8c.1-.2.3-.3.6-.4l.7-.1h.6a1.4 1.4 0 0 1 .9.8l.2.7v1Zm-.7 1V142.1l-.2-.5a1 1 0 0 0-.2-.4l-.3-.2a1 1 0 0 0-.4 0 1 1 0 0 0-.5 0l-.3.4-.2.5v2.6l.1.5.2.4.3.2h.9l.3-.4.2-.5v-.9Zm1.8-3.7h.7v6h-.7v-6ZM25 144l-.1 1-.3.6-.5.5-.7.1-.8-.1-.5-.4a2 2 0 0 1-.3-.6 4 4 0 0 1-.2-.9v-.3l.2-.9.3-.6.5-.4.7-.2.8.2.5.4.3.7.1 1Zm-.7 0v-.6l-.3-.5a1 1 0 0 0-.8-.4h-.5a1 1 0 0 0-.4.3l-.2.4-.1.4v1l.2.4c0 .2.2.4.4.5l.6.1.5-.1.3-.3.2-.5v-.6Zm4.2 1.4V143l-.4-.3a1 1 0 0 0-.5 0h-.5l-.3.3v.3H26l.1-.4c0-.2.2-.3.3-.5l.6-.2.7-.2.8.2.5.5c.2.2.2.4.2.8v2.4l.2.4h-.8v-.7Zm.1-1.8v.5h-1.2l-.4.2-.3.2v.7c0 .2.2.2.3.3l.4.1a1.2 1.2 0 0 0 1-.5l.2-.4.3.4-.1.3a1.7 1.7 0 0 1-.8.7l-.7.1-.7-.1-.5-.5-.2-.6.1-.6.4-.5.6-.2.8-.1h.8Zm2.6-1v3.6h-.7V142h.7v.7Zm1.3-.7v.7h-.8a1 1 0 0 0-.3.2l-.2.4v.4l-.3.1v-.7l.3-.6.4-.4a1.1 1.1 0 0 1 1-.1Z"/><g clip-path="url(#d)"><path fill="#000" fill-opacity=".5" d="M36.4 15a1 1 0 1 0 2.2 0 1 1 0 0 0-2.2 0Zm1.1.2h148v-.4h-148v.4ZM36.4 40.8a1 1 0 1 0 2.2 0 1 1 0 0 0-2.2 0Zm1.1.2h148v-.5h-148v.5ZM36.4 66.5a1 1 0 1 0 2.2 0 1 1 0 0 0-2.2 0Zm1.1.2h148v-.4h-148v.4ZM36.4 92.3a1 1 0 1 0 2.2 0 1 1 0 0 0-2.2 0Zm1.1.2h148V92h-148v.5ZM36.4 118a1 1 0 1 0 2.2 0 1 1 0 0 0-2.2 0Zm1.1.2h148v-.4h-148v.4Z"/><path stroke="#000" stroke-linecap="square" stroke-opacity=".7" stroke-width=".3" d="M37.6 142.9h147.8"/><g clip-path="url(#e)"><path stroke="#000" stroke-linecap="square" stroke-opacity=".5" stroke-width=".3" d="M52.2 144.2v-.8"/><path fill="#000" fill-opacity=".5" d="M42.4 144.4v5.8h-.7v-4.9l-1.4.6v-.7l2-.8h.1Zm4.6 0v5.8h-.7v-4.9l-1.5.6v-.7l2.1-.8h.1Zm8.8 0v5.8h-.7l-2.9-4.4v4.4h-.8v-5.7h.8l2.9 4.4v-4.4h.7Zm1.1 3.7v-.1c0-.3 0-.6.2-.8 0-.3.2-.5.3-.7l.6-.5.8-.2.8.2c.3.1.5.3.6.5l.4.7.2.8c0 .4 0 .7-.2 1 0 .2-.2.4-.4.6a1.8 1.8 0 0 1-1.4.6A1.8 1.8 0 0 1 57 149v-.8Zm.7-.1.1.7.2.5.4.3.5.1h.6l.3-.4.3-.5V147.4c0-.2-.2-.3-.3-.5a1 1 0 0 0-.9-.5 1 1 0 0 0-.9.5l-.2.5v.6Zm5.4 1.5 1.1-3.6h.8l-1.6 4.3H63v-.7Zm-1-3.6 1.2 3.6v.7h-.4l-1.5-4.3h.7Z"/></g><g clip-path="url(#f)"><path stroke="#000" stroke-linecap="square" stroke-opacity=".5" stroke-width=".3" d="M81.8 142.6v-.8"/><path fill="#000" fill-opacity=".5" d="M72 144.9v5.7h-.7v-4.8l-1.4.5v-.7l2-.7h.1Zm6 5v.7h-3.8v-.5l1.9-2.1.5-.7c.2-.1.3-.3.3-.4v-1l-.4-.4a1 1 0 0 0-.5 0h-.6a1 1 0 0 0-.4.5l-.1.6H74l.2-1 .7-.5a2 2 0 0 1 1-.3c.3 0 .7 0 1 .2l.5.5.2.8v.5l-.3.6-.4.5-.4.4-1.5 1.7H78Zm7.4-5v5.7h-.7l-2.9-4.4v4.4H81v-5.7h.8l2.9 4.4v-4.4h.7Zm1.1 3.6c0-.4 0-.7.2-1l.3-.6.6-.5.8-.1.8.1.6.5.4.7.2.8v.1c0 .3 0 .6-.2.9 0 .2-.2.5-.4.6a1.8 1.8 0 0 1-1.4.7 1.8 1.8 0 0 1-1.8-1.3v-.9Zm.7 0 .1.6.2.5c.1.2.3.3.4.3l.5.2c.2 0 .4 0 .6-.2l.3-.3.3-.5V147.8c0-.2-.2-.3-.3-.5a1 1 0 0 0-.9-.5 1 1 0 0 0-.9.5l-.2.5v.6Zm5.4 1.4 1.1-3.5h.8l-1.6 4.2h-.4v-.7Zm-1-3.5 1.2 3.6v.6h-.4l-1.5-4.2h.7Z"/></g><g clip-path="url(#g)"><path stroke="#000" stroke-linecap="square" stroke-opacity=".5" stroke-width=".3" d="M111.4 142.6v-.8"/><path fill="#000" fill-opacity=".5" d="M101.6 144.9v5.7h-.7v-4.8l-1.4.5v-.7l2-.7h.1Zm3.3 2.5h.5l.6-.1.4-.4.1-.5v-.5l-.4-.4H105a.9.9 0 0 0-.5.9h-.7a1.5 1.5 0 0 1 .8-1.4 2 2 0 0 1 1-.2c.3 0 .6 0 .8.2.3.1.5.3.6.5.2.3.3.6.3 1l-.1.4-.4.4c0 .2-.3.3-.5.4l-.8.1h-.6v-.4Zm0 .6v-.5h.6c.4 0 .7 0 1 .2l.5.3.3.5v1.2l-.5.5-.5.4h-1.5l-.5-.3a1.4 1.4 0 0 1-.6-1.2h.8v.5c.2.1.3.3.5.3l.5.2.6-.1.4-.4.1-.6-.1-.6a.9.9 0 0 0-.5-.3l-.6-.1h-.5Zm10.1-3.1v5.7h-.7l-2.9-4.4v4.4h-.8v-5.7h.8l2.9 4.4v-4.4h.7Zm1.1 3.6c0-.4 0-.7.2-1l.3-.6.6-.5.8-.1.8.1.6.5.4.7.2.8v.1c0 .3 0 .6-.2.9 0 .2-.2.5-.4.6a1.8 1.8 0 0 1-1.4.7 1.8 1.8 0 0 1-1.8-1.3v-.9Zm.7 0 .1.6.2.5c.1.2.3.3.4.3l.5.2c.2 0 .4 0 .6-.2l.3-.3.3-.5V147.8c0-.2-.2-.3-.3-.5a1 1 0 0 0-.9-.4 1 1 0 0 0-.9.4l-.2.5v.6Zm5.4 1.4 1.1-3.5h.8l-1.6 4.2h-.4v-.7Zm-1-3.5 1.2 3.6v.6h-.4l-1.5-4.2h.7Z"/></g><g clip-path="url(#h)"><path stroke="#000" stroke-linecap="square" stroke-opacity=".5" stroke-width=".3" d="M141 142.6v-.8"/><path fill="#000" fill-opacity=".5" d="M131.2 144.9v5.7h-.7v-4.8l-1.4.5v-.7l2-.7h.1Zm6 3.8v.6h-4v-.5l2.5-3.9h.6l-.6 1.1-1.7 2.7h3.3Zm-.7-3.8v5.7h-.7v-5.7h.7Zm8.1 0v5.7h-.7l-2.9-4.4v4.4h-.8v-5.7h.8l2.9 4.4v-4.4h.7Zm1.1 3.6c0-.4 0-.7.2-1l.3-.6.6-.5.8-.1.8.1.6.5.4.7.2.8v.1c0 .3 0 .6-.2.9 0 .2-.2.5-.4.6a1.8 1.8 0 0 1-1.4.7 1.8 1.8 0 0 1-1.8-1.3v-.9Zm.7 0 .1.6.2.5c.1.2.3.3.4.3l.5.2c.2 0 .4 0 .6-.2l.3-.3.3-.5V147.8c0-.2-.2-.3-.3-.5a1 1 0 0 0-.9-.5 1 1 0 0 0-.9.5l-.2.5v.6Zm5.4 1.4 1.1-3.5h.8l-1.6 4.2h-.4v-.7Zm-1-3.5 1.2 3.6v.6h-.4l-1.5-4.2h.7Z"/></g><g clip-path="url(#i)"><path stroke="#000" stroke-linecap="square" stroke-opacity=".5" stroke-width=".3" d="M170.6 142.6v-.8"/><path fill="#000" fill-opacity=".5" d="M160.8 144.9v5.7h-.7v-4.8l-1.4.5v-.7l2-.7h.1Zm3.2 3-.6-.2.3-2.8h2.9v.7h-2.3l-.2 1.5.4-.2h.5l.8.1c.2 0 .3.2.5.4l.3.6.1.8v.7l-.4.6-.6.4a2 2 0 0 1-.8.2l-.6-.1-.6-.3-.3-.5a2 2 0 0 1-.2-.7h.7l.1.5.4.4h1l.3-.3.2-.4a1.8 1.8 0 0 0 0-1c0-.2 0-.3-.2-.4a1 1 0 0 0-.3-.3h-1.1l-.3.3Zm10.2-3v5.7h-.7l-2.9-4.4v4.4h-.8v-5.7h.8l2.9 4.4v-4.4h.7Zm1.1 3.6c0-.4 0-.7.2-1l.3-.6.6-.5.8-.1.8.1.6.5.4.7.2.8v.1c0 .3 0 .6-.2.9 0 .2-.2.5-.4.6a1.8 1.8 0 0 1-1.4.7 1.8 1.8 0 0 1-1.8-1.3v-.9Zm.7 0 .1.6.2.5c.1.2.3.3.4.3l.5.2c.2 0 .4 0 .6-.2l.3-.3.3-.5V147.8c0-.2-.2-.3-.3-.5a1 1 0 0 0-.9-.5 1 1 0 0 0-.9.5l-.2.5v.6Zm5.4 1.4 1.1-3.5h.8l-1.6 4.2h-.4v-.7Zm-1-3.5 1.2 3.6v.6h-.4l-1.5-4.2h.7Z"/></g></g><defs><clipPath id="a"><path fill="#fff" d="M37.5 6h148v137h-148z"/></clipPath><clipPath id="d"><path fill="#fff" d="M36.2 10.8h152v143h-152z"/></clipPath><clipPath id="e"><path fill="#fff" d="M37.5 142.6h29.6v8H37.5z"/></clipPath><clipPath id="f"><path fill="#fff" d="M67.1 141.7h29.6v9.9H67.1z"/></clipPath><clipPath id="g"><path fill="#fff" d="M96.7 141.7h29.6v9.9H96.7z"/></clipPath><clipPath id="h"><path fill="#fff" d="M126.3 141.7h29.6v9.9h-29.6z"/></clipPath><clipPath id="i"><path fill="#fff" d="M155.9 141.7h29.6v9.9h-29.6z"/></clipPath><linearGradient id="b" x1="108.2" x2="108.2" y1="157.3" y2="-18.5" gradientUnits="userSpaceOnUse"><stop offset=".2" stop-color="#436ADF"/><stop offset=".2" stop-color="#53BD2D"/><stop offset=".4" stop-color="#53BD2D"/><stop offset=".4" stop-color="#FD8F3C"/><stop offset=".5" stop-color="#FD8F3C"/><stop offset=".5" stop-color="#D33E57"/></linearGradient><linearGradient id="c" x1="107.1" x2="107.1" y1="127.1" y2="-18.5" gradientUnits="userSpaceOnUse"><stop offset=".1" stop-color="#305AD7"/><stop offset=".1" stop-color="#3FA71A"/><stop offset=".2" stop-color="#3FA71A"/><stop offset=".2" stop-color="#F36900"/><stop offset=".4" stop-color="#F36900"/><stop offset=".4" stop-color="#D81838"/></linearGradient></defs></svg>