<svg xmlns="http://www.w3.org/2000/svg" width="200" height="160" fill="none"><rect width="200" height="160" fill="#fff" rx="4"/><rect width="199.2" height="159.2" x=".4" y=".4" stroke="#000" stroke-opacity=".1" stroke-width=".8" rx="3.6"/><path fill="#000" fill-opacity=".9" d="M27.4 33v-2.4L26 31.9 25 30.7l3.3-3.3 3.3 3.3-1.2 1.2-1.2-1.3v2.5h-1.7ZM22 26.7V25h12.5v1.6H22Zm0-2.4v-1.5h12.5v1.5H22Zm6.2-2.3L25 18.6l1.2-1.2 1.3 1.3v-2.5H29v2.5l1.2-1.3 1.2 1.2-3.3 3.3ZM48.2 26.4H46V25h2.3c.4 0 .7 0 1-.2.2 0 .4-.3.5-.5.2-.2.2-.5.2-.8 0-.3 0-.5-.2-.8 0-.2-.3-.4-.5-.6l-1-.2h-1.8v7.7h-1.6v-9h3.4c.7 0 1.3.2 1.8.4.5.3.8.6 1 1 .3.5.5 1 .5 1.5 0 .6-.2 1-.4 1.5-.3.4-.6.7-1.1 1-.5.1-1 .3-1.8.3Zm6.2-2v5.3h-1.5V23h1.4v1.2Zm2-1.4v1.4a2.9 2.9 0 0 0-1.3 0 1.3 1.3 0 0 0-.8.8v.7h-.4l.1-1.2c0-.3.2-.6.4-1l.6-.5a1.7 1.7 0 0 1 1.2-.2h.2Zm4 6.8c-.6 0-1 0-1.4-.2a3 3 0 0 1-1.6-1.7c-.2-.4-.3-.8-.3-1.3v-.2c0-.6.1-1 .3-1.5.1-.4.3-.7.6-1 .3-.3.6-.6 1-.7a3 3 0 0 1 1.1-.3c.5 0 1 .1 1.3.3l.9.6.5 1 .2 1.4v.6h-5.1v-1h3.6v-.2l-.1-.7-.5-.6-.8-.2c-.2 0-.4 0-.6.2-.2 0-.4.2-.5.4l-.3.7v2l.4.7.6.4.7.1a2 2 0 0 0 1.7-.8l.8.8a2.8 2.8 0 0 1-1.4 1l-1.2.2Zm7.6-2v-.3a1 1 0 0 0-.5-.3l-.9-.3-1-.3a3 3 0 0 1-.7-.4l-.5-.5-.2-.8c0-.2 0-.5.2-.7l.5-.7.8-.4 1-.2c.6 0 1.1.1 1.5.3l1 .8c.1.3.3.6.3 1H68c0-.1 0-.3-.2-.5a1 1 0 0 0-.3-.3l-.7-.2-.6.1-.4.4a.8.8 0 0 0 0 .7l.2.2.4.2.6.2c.6 0 1 .2 1.4.4l.8.6c.2.3.3.6.3 1a1.7 1.7 0 0 1-.7 1.5l-.9.4-1 .1c-.7 0-1.2-.1-1.6-.3-.4-.2-.8-.5-1-.8a2 2 0 0 1-.3-1h1.4l.3.6.5.3.6.1h.7l.4-.4.1-.4Zm7 .3v-5h1.5v6.6H75L75 28Zm.2-1.4h.5c0 .5 0 .9-.2 1.3a2.1 2.1 0 0 1-1.2 1.6l-1.2.2-.8-.1-.7-.5a2 2 0 0 1-.5-.7l-.1-1.2v-4.2h1.4v4.3l.1.6.2.3.4.3h.4c.4 0 .8 0 1-.2l.5-.7.2-1Zm4.4-2.4v5.4h-1.4V23h1.4v1.2Zm2-1.3v1.4a2.9 2.9 0 0 0-1.2 0 1.3 1.3 0 0 0-.8.8l-.1.7h-.3v-1.2l.4-1 .7-.5a1.7 1.7 0 0 1 1.1-.2h.3Zm4 6.8c-.5 0-1 0-1.3-.2a3 3 0 0 1-1.7-1.7l-.2-1.3v-.2c0-.6 0-1 .2-1.5l.7-1c.2-.3.6-.6 1-.7a3 3 0 0 1 1.1-.3c.5 0 1 .1 1.3.3l.8.6c.3.3.5.7.6 1l.1 1.4v.6h-5v-1h3.6v-.2c0-.2 0-.5-.2-.7 0-.2-.2-.4-.4-.6l-.8-.2c-.2 0-.5 0-.6.2-.2 0-.4.2-.5.4l-.3.7-.1 1v.2l.1.8c0 .3.2.5.4.7l.5.4.8.1a2 2 0 0 0 1.7-.8l.7.8a2.8 2.8 0 0 1-1.4 1l-1.1.2Z"/><g clip-path="url(#a)"><rect width="26.2" height="12.7" x="86.9" y="130" fill="#F3F3F3" rx="3.2"/><path fill="#000" fill-opacity=".5" d="M97.6 136v1.2c0 .5 0 1-.2 1.3 0 .4-.2.7-.4 1l-.7.5-1 .1h-.7a1.8 1.8 0 0 1-1-1l-.4-.8V136l.1-1.4.4-.9.7-.5 1-.2c.2 0 .5 0 .7.2a1.8 1.8 0 0 1 1 .8l.4.8v1.2Zm-1.1 1.3V135.2l-.2-.5a1 1 0 0 0-.2-.4l-.4-.2a1 1 0 0 0-.3 0 1 1 0 0 0-.5 0c-.1.1-.3.2-.3.4l-.3.5V138.1c0 .2 0 .3.2.5 0 .1 0 .3.2.4l.3.2h.8l.4-.4.2-.6v-.9Zm5.4-4v6.7h-1.2v-5.4l-1.6.5v-1l2.6-.9h.2Zm7 5.8v1h-4.5v-.8l2.2-2.5.6-.7.3-.5a1.4 1.4 0 0 0 0-1l-.4-.4a1 1 0 0 0-.6-.2c-.2 0-.4 0-.6.2a1 1 0 0 0-.4.5l-.1.6h-1.1c0-.4 0-.8.2-1 .2-.4.5-.7.8-.9.4-.2.8-.3 1.3-.3.4 0 .8.1 1.1.3.3.1.6.3.7.6.2.3.3.6.3 1l-.1.6c0 .3-.2.5-.3.7l-.4.6-.6.6-1.5 1.6h3.2Z"/></g><path fill="#305AD7" d="M143 131.4a55.6 55.6 0 1 0-86.7.2l7.4-6a46.1 46.1 0 1 1 72-.1l7.4 6Z"/><path fill="#3FA71A" d="M143.2 131.2a55.6 55.6 0 1 0-97.3-49l9.2 2.5a46.1 46.1 0 1 1 80.7 40.6l7.4 6Z"/><path fill="#F36900" d="M143.2 131.2a55.6 55.6 0 0 0-65-85.9l3.6 8.8a46.1 46.1 0 0 1 54 71.2l7.4 6Z"/><path fill="#D81838" d="M143.1 131.4a55.6 55.6 0 0 0-14-82l-5 8a46.2 46.2 0 0 1 11.6 68l7.4 6Z"/><path fill="#636363" fill-rule="evenodd" d="m135.6 125.6.4-.4 3.7 2.9 3.7 2.9-.4.5-7.4-5.9ZM154.9 103.3l-4.6-.6-4.8-.5v-.7l4.8.5 4.7.5-.1.8ZM150 73l-.4-.8-4.2 2-4.2 2.2.2.6 4.3-2 4.3-2ZM129.7 49.8l-2.6 4-2.6 4-.5-.4 2.5-4 2.5-4 .7.4ZM100.1 45.8V41a56.7 56.7 0 0 0-.7 0v9.6a50.7 50.7 0 0 1 .7 0v-4.8ZM73 53.4l-2.5-4c-.3 0-.5.2-.7.4l2.6 4 2.5 4 .6-.4-2.5-4ZM54 74.3l-4.2-2.1-.4.7 4.3 2 4.4 2 .2-.5-4.2-2.1ZM49.1 102l-4.7.5v.8l4.8-.6 4.8-.5-.1-.7-4.8.5ZM59.7 128.1l-3.7 3 .5.6 3.7-3 3.7-3a47 47 0 0 1-.4-.5l-3.8 2.9Z" clip-rule="evenodd"/><path fill="#636363" fill-rule="evenodd" d="M155 103a55.6 55.6 0 0 1-12 28.5l-.6-.4a54.8 54.8 0 1 0-85.4 0l-.5.5a55.6 55.6 0 1 1 98.4-28.6Z" clip-rule="evenodd"/><path fill="#000" fill-opacity=".5" d="M56.7 100.8h.5l.6-.1.3-.3.1-.5-.1-.5-.3-.3a1 1 0 0 0-.5 0 1 1 0 0 0-.4 0 .8.8 0 0 0-.5.7h-1c0-.3.2-.5.3-.8l.7-.5a2 2 0 0 1 1-.2c.3 0 .6 0 .9.2.2 0 .5.3.6.5.2.2.2.5.2.9v.5l-.4.4-.6.4-.7.1h-.7v-.5Zm0 .7v-.5h.7l.8.1c.3 0 .5.2.6.3.1.2.3.3.3.5l.1.6-.1.7-.4.5-.6.3a2.5 2.5 0 0 1-1.5 0 2 2 0 0 1-.6-.3l-.4-.5-.2-.7h1v.5c.2 0 .3.2.4.3h1l.4-.3v-1.1l-.4-.3h-1.1ZM68 122.2v1l-.1 1-.4.8-.6.5a2.2 2.2 0 0 1-1.4 0 1.5 1.5 0 0 1-.9-.7l-.2-.7-.1-1v-1l.1-1 .4-.8.6-.4.7-.2.7.1a1.5 1.5 0 0 1 .9.8l.2.7.1.9Zm-1 1V121l-.3-.3-.2-.2h-.7l-.3.3-.2.5v3l.3.3.2.2h.7l.3-.3.2-.5v-.7ZM62.4 76v.8c-.3 0-.6 0-.8.2-.3.1-.5.2-.6.4l-.4.7-.1.7v1.5l.3.5.3.2.4.1h.3l.3-.3.2-.4a1.7 1.7 0 0 0 0-.9c0-.1 0-.3-.2-.4L62 79l-.4-.1a1 1 0 0 0-.6.1 1 1 0 0 0-.3.4l-.2.4-.3-.1.1-.7.4-.5.5-.3H62.4l.5.5.3.6a2.5 2.5 0 0 1 0 1.5c0 .2-.2.4-.4.6l-.5.4a2 2 0 0 1-.8.2c-.3 0-.6 0-.8-.2-.3-.1-.5-.3-.6-.5l-.4-.7-.1-.9v-.3l.1-1.3.5-1c.2-.3.5-.5.9-.7a3 3 0 0 1 1.3-.2ZM74.6 63.6c.4 0 .7 0 1-.2a1.4 1.4 0 0 0 .9-1v-2.3l-.2-.4-.3-.3-.4-.1h-.4c0 .2-.2.2-.3.4l-.1.3a1.8 1.8 0 0 0 0 1l.1.3.3.3.4.1a1 1 0 0 0 .7-.3 1.1 1.1 0 0 0 .3-.7l.4.1-.1.6a1.8 1.8 0 0 1-.9.9l-.6.1-.7-.1-.5-.4-.3-.6a2.5 2.5 0 0 1 0-1.5c0-.3.2-.5.4-.7l.5-.4.8-.2.8.2c.3.1.5.3.6.5l.4.8v2.2c0 .3-.2.6-.3.8l-.5.7-.8.5-1.1.1h-.1v-.7ZM129.2 124.8v.7h-3.8v-.6l1.9-2 .4-.6.3-.5v-.9l-.3-.3a.9.9 0 0 0-.5-.1 1 1 0 0 0-.5.1c-.2.1-.3.2-.3.4l-.2.6h-.9c0-.4 0-.7.2-1l.7-.6a2 2 0 0 1 1-.3l1 .2c.3.2.5.3.6.6l.2.8v.5l-.3.6-.4.5-.5.5-1.2 1.4h2.6Zm4.7-1.3v.7h-4.1v-.5l2.4-3.9h.7l-.8 1.4-1.4 2.3h3.2Zm-.7-3.7v5.7h-1v-5.7h1ZM139.6 103.3v.7h-3.9v-.6l1.9-2 .5-.6.2-.5a1.1 1.1 0 0 0 0-.8c0-.2-.2-.3-.3-.3a.9.9 0 0 0-.5-.2 1 1 0 0 0-.5.2l-.3.3-.1.6h-1l.3-1 .6-.6a2 2 0 0 1 1-.2c.4 0 .8 0 1 .2.3.1.5.3.6.5.2.3.2.5.2.9v.5l-.3.5-.4.5-.4.5-1.3 1.4h2.7Zm3.3-5v5.7h-1v-4.5l-1.4.4v-.7l2.2-.9h.2ZM134.3 76v5.8h-.9v-4.6l-1.4.5v-.8l2.2-.8h.1Zm5.7 4.2c0 .4 0 .7-.2 1l-.7.5-1 .2c-.3 0-.6 0-.9-.2-.3-.1-.5-.3-.7-.6l-.2-.9a1.5 1.5 0 0 1 .5-1l.6-.4.8-.1c.3 0 .6 0 1 .2l.6.5c.2.3.2.5.2.8Zm-1 0v-.5c-.1-.1-.2-.3-.4-.3a1 1 0 0 0-.4-.2 1 1 0 0 0-.5.2c-.2 0-.3.2-.4.3v1l.4.3.5.1h.5c0-.2.2-.3.3-.4v-.5Zm1-2.6c0 .3-.2.5-.3.8l-.6.5a2 2 0 0 1-1 .2c-.3 0-.6 0-.8-.2l-.7-.5-.2-.8c0-.3 0-.6.2-.9l.7-.5.9-.2c.3 0 .6 0 .9.2a1.4 1.4 0 0 1 .8 1.4Zm-1 0-.1-.4-.3-.3a.8.8 0 0 0-.4-.1h-.5l-.2.4-.1.4v.5a.7.7 0 0 0 .8.4l.4-.1.3-.3v-.5ZM117.6 58.6v5.7h-.9v-4.6l-1.4.5v-.8l2.2-.8h.1Zm3 3-.7-.1.3-2.9h3v.8H121l-.2 1.4a1.8 1.8 0 0 1 .9-.2l.7.1.6.4.3.6a2.5 2.5 0 0 1 0 1.5c0 .3-.2.5-.3.6l-.6.4-.9.2-.6-.1c-.3 0-.4-.2-.6-.3a1.6 1.6 0 0 1-.6-1.2h1v.4c.1.2.3.3.4.3l.4.1h.5l.2-.3.2-.4a1.8 1.8 0 0 0 0-.9 1 1 0 0 0-.2-.4l-.3-.2a1 1 0 0 0-.4 0h-.6l-.3.3ZM98.2 53v5.7h-1v-4.5l-1.4.4v-.8l2.3-.8Zm5.8 5v.7h-3.8v-.6l1.8-2 .5-.6.2-.5a1.1 1.1 0 0 0 0-.8c0-.2-.2-.3-.3-.4a.9.9 0 0 0-.5 0 1 1 0 0 0-.5 0l-.3.4-.1.6h-1l.3-1 .6-.6a2 2 0 0 1 1-.2c.4 0 .8 0 1 .2.3.1.5.3.6.5.2.2.2.5.2.8v.6l-.3.5a4.6 4.6 0 0 1-.8 1l-1.3 1.4h2.7ZM93 113.3h1.2v6l-.1 1.1h-1v-7.1Zm4.5 4.5v.1l-.1 1-.4.9-.6.5-.9.2c-.3 0-.5 0-.8-.2-.2 0-.4-.3-.6-.5-.1-.2-.3-.5-.3-.8l-.3-1v-.3l.3-1c0-.3.2-.5.3-.7a1.6 1.6 0 0 1 1.4-.7c.4 0 .6 0 .9.2.2 0 .4.3.6.5l.4.8v1Zm-1.1.1v-.7l-.3-.5a1 1 0 0 0-.3-.4 1 1 0 0 0-.6-.1h-.5a1 1 0 0 0-.3.4l-.3.4v1.3l.1.7.4.4.7.2.5-.1.3-.4.2-.5v-.7Zm5 1.5v-2.9l-.3-.3a1 1 0 0 0-.5 0h-.5l-.3.3-.1.3h-1.1l.1-.6.4-.5.7-.3.9-.1c.3 0 .7 0 1 .2.3 0 .5.3.7.5l.2 1V119.9l.2.4v.1h-1.1l-.2-.5v-.5Zm.2-2v.6h-.8l-.5.1c-.2 0-.3 0-.4.2a.7.7 0 0 0-.3.6v.4l.4.2.4.1a1.2 1.2 0 0 0 1-.5l.2-.4.3.5c0 .2 0 .3-.2.4 0 .2-.2.3-.3.5a1.7 1.7 0 0 1-1.2.4 2 2 0 0 1-1-.2l-.5-.5c-.2-.3-.2-.5-.2-.8l.1-.7.5-.5c.2-.2.4-.3.7-.3a4 4 0 0 1 1-.2h.8Zm3.5-1v4H104v-5h1l.1 1Zm1.6-1v1a2.6 2.6 0 0 0-.5 0h-.5a1 1 0 0 0-.6.6l-.1.5h-.3l.1-.9.3-.7.5-.5a1.3 1.3 0 0 1 .9-.1h.2Z"/><path fill="#E65100" d="m102.7 98.9-2.9-51.5L97 98.6l1.1 11.6c0 .2.2.4.4.4h2.6c.2 0 .4-.1.4-.3l1.3-11.4Z"/><g filter="url(#b)"><circle cx="99.6" cy="98.2" r="4.8" fill="#fff"/></g><circle cx="99.6" cy="98.2" r="3.2" fill="#fff"/><defs><clipPath id="a"><rect width="26.2" height="12.7" x="86.9" y="130" fill="#fff" rx="3.2"/></clipPath><filter id="b" width="38.2" height="38.2" x="80.6" y="79.2" color-interpolation-filters="sRGB" filterUnits="userSpaceOnUse"><feFlood flood-opacity="0" result="BackgroundImageFix"/><feColorMatrix in="SourceAlpha" result="hardAlpha" values="0 0 0 0 0 0 0 0 0 0 0 0 0 0 0 0 0 0 127 0"/><feMorphology in="SourceAlpha" operator="dilate" radius="1.6" result="effect1_dropShadow_1501_7746"/><feOffset/><feGaussianBlur stdDeviation="6.4"/><feComposite in2="hardAlpha" operator="out"/><feColorMatrix values="0 0 0 0 1 0 0 0 0 0.241667 0 0 0 0 0.241667 0 0 0 0.15 0"/><feBlend in2="BackgroundImageFix" result="effect1_dropShadow_1501_7746"/><feBlend in="SourceGraphic" in2="effect1_dropShadow_1501_7746" result="shape"/></filter></defs></svg>