<svg xmlns="http://www.w3.org/2000/svg" width="200" height="160" fill="none"><rect width="200" height="56" y="52" fill="#fff" rx="4"/><rect width="199" height="55" x=".5" y="52.5" stroke="#000" stroke-opacity=".1" rx="3.5"/><g filter="url(#a)"><rect width="184" height="40" x="8" y="60" fill="#fff" fill-opacity=".8" rx="4"/><path fill="#3FA71A" d="M29.1 71.5a2 2 0 0 0-1.9 1.5l-.8 2.5a3 3 0 0 0-1 .2l-1.9-2-1.3-1.4A2 2 0 0 0 22 75l1.8 2a3 3 0 0 0-.4 1l-2.6.6-2 .5a2 2 0 0 0 2.5 1.5L24 80l.7.8-.8 2.5-.6 2a2 2 0 0 0 2.5-1.4l.8-2.5c.4 0 .7 0 1-.2l1.9 2 1.3 1.4a2 2 0 0 0 .2-2.8l-1.9-2 .3-.5.1-.5 2.6-.6 2-.5a2 2 0 0 0-2.4-1.5L29 77a3 3 0 0 0-.8-.8l.8-2.5.6-2a2 2 0 0 0-.6 0ZM26.6 77a1.5 1.5 0 0 1 1.2.8 1.5 1.5 0 1 1-1.3-.8M20 81.7a7 7 0 0 1-4 1.3h-2v2h2c1.4 0 2.7-.3 4-1 .8.4 1.6.7 2.4.8l.5-1.7.1-.2a7 7 0 0 1-3-1.2ZM32.5 83a3 3 0 0 1-.6 2H34v-2h-1.5ZM20 85.7a7 7 0 0 1-4 1.3h-2v2h2c1.4 0 2.7-.3 4-1a8.7 8.7 0 0 0 8 0c1.3.7 2.6 1 4 1h2v-2h-2a7 7 0 0 1-4-1.3 6.9 6.9 0 0 1-8 0Z"/><path fill="#000" fill-opacity=".9" d="M41.7 75v10H40V75h1.7Zm4 4.4v1.4h-4.4v-1.4h4.5Zm.7-4.4v1.4h-5.1V75h5Zm3.2-.5V85h-1.7V74.5h1.7Zm1.7 6.9v-.2c0-.5 0-1 .2-1.5l.7-1.2a3 3 0 0 1 1-.7l1.5-.3c.6 0 1 0 1.5.3.4.1.8.4 1 .7.4.4.6.8.8 1.2l.2 1.5v.2c0 .5 0 1-.2 1.5l-.7 1.2a3.1 3.1 0 0 1-2.5 1c-.6 0-1 0-1.5-.2a3.6 3.6 0 0 1-1.8-2l-.2-1.5Zm1.7-.2v1.2l.4.7.5.5c.3.2.5.2.9.2a1.6 1.6 0 0 0 1.3-.7c.2-.2.3-.5.3-.8l.1-1v-1l-.4-.8a1.6 1.6 0 0 0-1.4-.7c-.3 0-.5 0-.8.2l-.5.5c-.2.2-.3.5-.3.8l-.1 1Zm8.8 2.2 1.7-5.8h1l-.2 1.7-1.7 5.7h-1l.2-1.6Zm-1-5.8 1.4 5.8V85h-1l-2-7.4h1.6Zm5.4 5.7 1.3-5.7H69L67 85h-1v-1.7Zm-1.4-5.7 1.7 5.7.2 1.7h-1L64 79.3l-.3-1.7h1Zm11 1.4v6h-1.6v-7.4h1.6V79Zm2.3-1.4V79a3.2 3.2 0 0 0-1.4 0 1.4 1.4 0 0 0-.9 1l-.1.6h-.4l.1-1.2.5-1c.1-.4.4-.6.6-.8a1.9 1.9 0 0 1 1.3-.2h.3Zm5.2 6V80l-.1-.7a1 1 0 0 0-.5-.4l-.7-.2-.7.1-.4.4c-.2.2-.2.3-.2.5h-1.6c0-.3 0-.5.2-.8.1-.3.3-.5.6-.7a3 3 0 0 1 1-.5 4 4 0 0 1 1.2-.2c.6 0 1 0 1.5.2.4.2.8.5 1 .9.2.4.4.8.4 1.4v4.2c0 .3.2.5.3.7v.1h-1.7a3 3 0 0 1-.2-.7v-.8Zm.3-3.1v1h-1.2l-.8.1-.6.3a1 1 0 0 0-.5.9c0 .2 0 .4.2.5 0 .2.2.3.4.4l.6.1a1.8 1.8 0 0 0 1.5-.7l.2-.6.6.8-.3.6a3 3 0 0 1-.5.6 2.6 2.6 0 0 1-1.8.6c-.5 0-1 0-1.3-.3-.4-.1-.7-.4-.9-.7a2.4 2.4 0 0 1-.1-2.2l.7-.8 1-.4 1.5-.2h1.3Zm6.7-2.9v1.2h-4.1v-1.2h4.1Zm-3-1.8H89V83l.1.5.3.2h.4a2.5 2.5 0 0 0 .6 0V85a4.2 4.2 0 0 1-1 .1c-.5 0-.8 0-1.1-.2-.3-.1-.5-.3-.7-.6l-.2-1.2v-7.3Zm7.8 9.3c-.5 0-1 0-1.5-.2a3.3 3.3 0 0 1-1.8-2 4 4 0 0 1-.2-1.3v-.3c0-.6 0-1.1.2-1.6s.4-.9.7-1.2a3 3 0 0 1 1-.8l1.4-.2c.6 0 1 0 1.4.2l1 .8c.3.3.5.7.6 1.1l.2 1.5v.7h-5.7v-1.2h4v-.1l-.1-.9-.5-.6-.9-.2c-.3 0-.5 0-.7.2-.2 0-.4.2-.5.5l-.4.7v2.3l.4.7.7.5.8.1a2.3 2.3 0 0 0 1.9-.9l.9.9-.7.6c-.2.2-.5.4-1 .5-.3.2-.7.2-1.2.2Z"/><path fill="#3FA71A" d="M114.6 85.1V87h-9.5v-1.6l4.6-5 1.2-1.5.6-1.2a2.9 2.9 0 0 0 0-2.1c-.2-.4-.5-.7-.8-.8-.3-.2-.7-.3-1.1-.3-.6 0-1 0-1.4.3-.3.2-.6.5-.8 1-.2.3-.2.8-.2 1.3h-2.4c0-.8.2-1.6.6-2.3.3-.6.9-1.2 1.6-1.6.7-.4 1.6-.6 2.6-.6s1.8.1 2.4.5c.7.3 1.2.7 1.5 1.3.4.6.6 1.3.6 2.1 0 .4-.1.9-.3 1.3-.1.5-.3.9-.6 1.3a23.2 23.2 0 0 1-2.1 2.6l-3 3.4h6.5Zm11.2-6.4V81c0 1.1-.1 2-.3 2.9a5 5 0 0 1-1 1.9c-.4.5-.9.8-1.4 1a5.5 5.5 0 0 1-3.5.1 3.8 3.8 0 0 1-2.3-1.8c-.2-.5-.5-1-.6-1.7l-.2-2.4v-2.3c0-1.1 0-2 .3-2.8a5 5 0 0 1 1-2c.4-.4.9-.8 1.4-1 .6-.2 1.2-.3 2-.3.5 0 1 0 1.5.2a3.7 3.7 0 0 1 2.3 1.8c.2.5.5 1 .6 1.8l.2 2.3Zm-2.3 2.7v-3l-.1-1.5-.3-1.2-.5-.7-.6-.4-.9-.1c-.3 0-.6 0-1 .2l-.7.6-.4 1.2-.2 1.8v3l.1 1.6.3 1 .5.9.6.4.9.1c.3 0 .7 0 1-.2l.7-.7.4-1.2.2-1.8Zm12-2.8V87h-2.3V76.4h2.2l.2 2.2Zm-.3 2.7h-.8c0-.7 0-1.4.3-2 .2-.6.4-1.2.8-1.6.3-.5.8-.8 1.3-1 .5-.3 1.1-.5 1.8-.5.5 0 1 .1 1.3.3.4 0 .8.3 1 .6.4.3.6.7.8 1.2l.2 1.7v7h-2.4v-6.8c0-.6 0-1-.2-1.2-.1-.3-.4-.5-.6-.7l-1-.2c-.5 0-.9.1-1.2.3l-.7.7-.5 1-.1 1.2Zm6.6-.6-1.2.2.3-1.8.8-1.5a3.7 3.7 0 0 1 3-1.4c.6 0 1 .1 1.5.3.4.1.8.3 1.1.6l.7 1.3.2 1.8V87H146v-6.8c0-.6-.1-1-.3-1.3-.1-.3-.3-.5-.6-.6l-1-.2-1 .2a2 2 0 0 0-.7.6l-.4.8-.1 1Zm10.4-4.8h1.5l.4-.4a.9.9 0 0 0-.1-1.1c-.2-.2-.5-.3-.9-.3-.3 0-.6 0-.8.2-.2.1-.3.3-.3.6h-1.8c0-.5.1-.9.4-1.2.3-.4.6-.6 1-.8a4.4 4.4 0 0 1 3 0c.5.2.8.4 1 .8.3.3.5.7.5 1.2 0 .3-.2.7-.4 1-.2.2-.5.5-1 .6a4 4 0 0 1-1.4.3h-1.1v-.9Zm0 1.3v-.8h1.1a5 5 0 0 1 1.6.2c.4.1.7.3 1 .6.2.3.3.7.3 1.1 0 .5-.1 1-.4 1.3-.3.3-.7.6-1.1.7a4.5 4.5 0 0 1-3 0c-.5-.1-.9-.4-1.2-.7a2 2 0 0 1-.4-1.4h1.8c0 .3 0 .5.3.7.2.2.6.3 1 .3s.7-.1.9-.3c.2-.2.3-.4.3-.7 0-.3 0-.5-.2-.6a1 1 0 0 0-.4-.3l-.8-.1h-.8Zm12.2-4.4L159 88.2H157l5.6-15.4h1.8Zm4-.8v15h-2.3V72h2.4Zm-.3 9.3h-.8c0-.7.1-1.4.3-2 .2-.6.5-1.2.9-1.6a3.7 3.7 0 0 1 3-1.5c.5 0 1 .1 1.4.3.4.1.7.3 1 .6.4.4.6.8.7 1.3.2.5.3 1 .3 1.8V87h-2.4v-6.8c0-.5 0-1-.2-1.2-.1-.3-.4-.5-.6-.7l-1-.2c-.5 0-.9.1-1.2.3l-.8.7-.5 1-.1 1.2Zm11.6-2.9V87h-2.3V76.4h2.2l.1 2Zm3.3-2v2.2a4.6 4.6 0 0 0-2 0 2 2 0 0 0-1.3 1.3l-.2 1h-.5c0-.6 0-1.2.2-1.8 0-.6.3-1 .5-1.5a2.7 2.7 0 0 1 2.9-1.3h.4Z"/></g><defs><filter id="a" width="196" height="52" x="2" y="54" color-interpolation-filters="sRGB" filterUnits="userSpaceOnUse"><feFlood flood-opacity="0" result="BackgroundImageFix"/><feGaussianBlur in="BackgroundImageFix" stdDeviation="3"/><feComposite in2="SourceAlpha" operator="in" result="effect1_backgroundBlur_1476_3195"/><feBlend in="SourceGraphic" in2="effect1_backgroundBlur_1476_3195" result="shape"/></filter></defs></svg>