<svg xmlns="http://www.w3.org/2000/svg" width="200" height="160" fill="none"><rect width="200" height="56" y="52" fill="#fff" rx="4"/><rect width="199" height="55" x=".5" y="52.5" stroke="#000" stroke-opacity=".1" rx="3.5"/><g filter="url(#a)"><rect width="184" height="40" x="8" y="60" fill="#fff" fill-opacity=".8" rx="4"/><path fill="#FFA600" d="M29 85a6 6 0 0 0-3 .8c-.6.3-1.1.6-2 .6-.9 0-1.4-.3-2-.6-.8-.4-1.6-.8-3-.8s-2.2.4-3 .8c-.6.3-1.1.6-2 .6v2a6 6 0 0 0 3-.9c.6-.3 1.1-.6 2-.6.9 0 1.4.3 2 .6.8.4 1.6.8 3 .8s2.2-.4 3-.8c.6-.3 1.1-.6 2-.6.9 0 1.4.3 2 .6.8.4 1.6.8 3 .8v-2c-.9 0-1.4-.2-2-.5a6 6 0 0 0-3-.8Zm0-4.5c-1.4 0-2.2.5-3 .8-.6.4-1.1.6-2 .6-.9 0-1.4-.2-2-.6-.8-.3-1.6-.8-3-.8s-2.2.5-3 .8c-.6.4-1.1.6-2 .6v2c1.3 0 2.2-.4 3-.8a3.8 3.8 0 0 1 4 0c.8.4 1.6.8 3 .8s2.2-.4 3-.8a3.8 3.8 0 0 1 4 0c.8.4 1.6.8 3 .8v-2c-.9 0-1.4-.2-2-.6a6 6 0 0 0-3-.8Zm3-8a5.9 5.9 0 0 0-6 0c-.6.3-1.1.6-2 .6-.9 0-1.4-.3-2-.6-.8-.4-1.6-.8-3-.8s-2.2.4-3 .8c-.6.3-1.1.6-2 .6V75c1.3 0 2.2-.4 3-.8.6-.3 1.1-.6 2-.6.9 0 1.4.2 2 .6.8.4 1.6.8 3 .8s2.2-.4 3-.8c.6-.3 1.1-.6 2-.6.9 0 1.4.2 2 .6.8.4 1.6.8 3 .8v-2a4 4 0 0 1-2-.5ZM29 76c-1.4 0-2.2.4-3 .8a3.8 3.8 0 0 1-4 0c-.8-.4-1.6-.8-3-.8s-2.2.4-3 .8c-.6.3-1.1.6-2 .6v2c1.3 0 2.2-.5 3-.9.6-.3 1.1-.6 2-.6.9 0 1.4.3 2 .6.8.4 1.6.8 3 .8s2.2-.4 3-.8c.6-.3 1.1-.6 2-.6.9 0 1.4.3 2 .6.8.4 1.6.8 3 .8v-2c-.9 0-1.4-.2-2-.5a6 6 0 0 0-3-.8Z"/><path fill="#000" fill-opacity=".9" d="M43.4 83.2 46 75h2l-3.6 10H43l.3-1.8ZM41 75l2.6 8.2.4 1.8h-1.3L39 75H41Zm9.9 2.6V85h-1.7v-7.4H51Zm-1.8-2 .3-.6.7-.2c.3 0 .5 0 .7.2l.2.7c0 .2 0 .4-.2.6a1 1 0 0 1-.7.2 1 1 0 0 1-.7-.2.8.8 0 0 1-.3-.6Zm3.9-1.1h1.6v9l-.1 1.5H53V74.5Zm6.4 6.7v.2c0 .5 0 1-.2 1.5 0 .4-.3.8-.5 1.2-.2.3-.5.6-.9.8l-1.2.2c-.5 0-.9 0-1.2-.2-.4-.2-.7-.4-.9-.8l-.6-1.1-.3-1.5v-.4l.3-1.5.6-1.1a2.4 2.4 0 0 1 2-1c.5 0 1 0 1.3.2l1 .8.4 1.2c.2.5.2 1 .2 1.5Zm-1.6.2v-.2l-.1-.9c0-.3-.1-.6-.3-.8 0-.2-.3-.4-.5-.5l-.8-.2-.7.1-.5.5a2 2 0 0 0-.4.6l-.1.7v1.2l.2 1 .6.7 1 .2c.3 0 .5 0 .7-.2l.5-.5c.2-.2.2-.5.3-.8v-1Zm5-2.4v6H61v-7.4h1.6V79Zm2.2-1.4V79a3.2 3.2 0 0 0-1.4 0 1.4 1.4 0 0 0-.9 1l-.1.6h-.4l.1-1.2.4-1c.2-.4.5-.6.7-.8a1.9 1.9 0 0 1 1.3-.2h.3Zm5.2 6V80l-.1-.7a1 1 0 0 0-.5-.4l-.7-.2-.7.1-.5.4-.1.5h-1.7l.2-.8.7-.7a3 3 0 0 1 1-.5 4 4 0 0 1 1.2-.2c.5 0 1 0 1.5.2.4.2.7.5 1 .9.2.4.4.8.4 1.4v4.2l.2.7v.1h-1.7a3 3 0 0 1-.1-.7l-.1-.8Zm.2-3.1v1h-1.1l-.8.1c-.3 0-.5.1-.6.3a1 1 0 0 0-.5.9c0 .2 0 .4.2.5 0 .2.2.3.4.4l.6.1a1.8 1.8 0 0 0 1.5-.7l.2-.6.5.8-.2.6a3 3 0 0 1-.6.6 2.6 2.6 0 0 1-1.7.6c-.5 0-1 0-1.3-.3-.4-.1-.7-.4-1-.7a2.4 2.4 0 0 1-.1-2.2l.7-.8 1.1-.4 1.4-.2h1.3Zm6.8-2.9v1.2H73v-1.2h4.2Zm-3-1.8H76V83l.1.5.3.2h.4a2.5 2.5 0 0 0 .6 0V85a4.2 4.2 0 0 1-1.1.1c-.4 0-.7 0-1-.2-.3-.1-.5-.3-.7-.6-.2-.3-.2-.7-.2-1.2v-7.3Zm6.3 1.8V85h-1.7v-7.4h1.7Zm-1.8-2 .3-.6.7-.2c.3 0 .5 0 .7.2l.2.7c0 .2 0 .4-.2.6a1 1 0 0 1-.7.2 1 1 0 0 1-.7-.2.8.8 0 0 1-.3-.6Zm3.5 5.8v-.2l.3-1.5.6-1.2a3 3 0 0 1 1.1-.7l1.5-.3c.5 0 1 0 1.4.3.5.1.8.4 1.1.7l.7 1.2.2 1.5v.2c0 .5 0 1-.2 1.5l-.7 1.2a3.1 3.1 0 0 1-2.5 1c-.6 0-1 0-1.5-.2a3.5 3.5 0 0 1-1.8-2l-.2-1.5Zm1.7-.2v1.2l.4.7c.2.2.3.4.6.5.2.2.5.2.8.2a1.6 1.6 0 0 0 1.3-.7l.4-.8v-2l-.4-.8a1.6 1.6 0 0 0-1.3-.7c-.3 0-.6 0-.8.2-.3.1-.4.3-.6.5l-.3.8-.1 1Zm8.5-2V85h-1.7v-7.4h1.6v1.6ZM92 81h-.5c0-.5 0-1 .2-1.4.1-.5.3-.8.6-1.1a2.7 2.7 0 0 1 2.1-1l1 .1.7.5.5.8.2 1.3V85h-1.7v-4.8l-.1-.8a.9.9 0 0 0-.5-.5l-.7-.1a1.6 1.6 0 0 0-1.3.7l-.4.7-.1.8Z"/><path fill="#FFA600" d="M124.9 82v1.8h-10.3v-1.4l6-9.6h2l-2 3.5-3.6 5.6h7.9Zm-1.8-9.2V87h-2.4V72.8h2.4Zm11 5.8V87h-2.3V76.4h2.2l.1 2.2Zm-.4 2.7h-.8c0-.7.1-1.4.3-2l.8-1.6c.4-.5.8-.8 1.3-1 .5-.3 1.1-.5 1.8-.5.5 0 1 .1 1.4.3.4 0 .7.3 1 .6.3.3.5.7.7 1.2l.2 1.7v7h-2.3v-6.8c0-.6-.1-1-.3-1.2-.1-.3-.3-.5-.6-.7l-1-.2c-.5 0-.8.1-1.1.3-.4.2-.6.4-.8.7a3 3 0 0 0-.4 1l-.2 1.2Zm6.6-.6-1.1.2c0-.6 0-1.2.2-1.8l.8-1.5a3.7 3.7 0 0 1 3.1-1.4c.5 0 1 .1 1.4.3.5.1.8.3 1.1.6.3.4.6.8.7 1.3.2.5.3 1 .3 1.8V87h-2.4v-6.8c0-.6 0-1-.2-1.3-.2-.3-.4-.5-.7-.6l-1-.2-1 .2a2 2 0 0 0-.7.6l-.4.8-.1 1Zm11.3-2.1V87h-2.3V76.4h2.2l.1 2.2Zm-.3 2.7h-.8c0-.7 0-1.4.2-2l.8-1.6c.4-.5.8-.8 1.3-1 .6-.3 1.2-.5 1.9-.5.4 0 .9.1 1.3.3.4 0 .7.3 1 .6.3.3.6.7.7 1.2.2.4.3 1 .3 1.7v7h-2.4v-6.8c0-.6 0-1-.2-1.2l-.7-.7-1-.2c-.4 0-.8.1-1.1.3l-.8.7a3 3 0 0 0-.4 1l-.1 1.2Zm6.5-.6-1.1.2c0-.6 0-1.2.3-1.8.1-.5.4-1 .8-1.5a3.7 3.7 0 0 1 3-1.4c.6 0 1 .1 1.5.3.4.1.8.3 1 .6.4.4.6.8.7 1.3.2.5.3 1 .3 1.8V87h-2.4v-6.8c0-.6 0-1-.2-1.3-.2-.3-.4-.5-.7-.6l-1-.2-1 .2a2 2 0 0 0-.6.6l-.5.8v1Zm15.2-8-5.6 15.5h-1.8l5.5-15.4h1.9Zm7.6 11.4-.1-.6-.7-.5-1.5-.5c-.5 0-1-.2-1.5-.4l-1.2-.6-.8-1-.2-1c0-.5 0-1 .3-1.3.1-.4.4-.7.8-1a4 4 0 0 1 1.2-.7c.5-.2 1.1-.3 1.7-.3 1 0 1.7.2 2.3.5.7.3 1.1.7 1.5 1.2.3.5.5 1 .5 1.7h-2.4c0-.3 0-.6-.2-.8l-.6-.6-1-.2c-.5 0-.8 0-1 .2l-.7.5a1.2 1.2 0 0 0 0 1.1l.3.4.7.3 1 .3c.9.1 1.6.4 2.1.6.6.3 1 .6 1.4 1 .3.5.4 1 .4 1.6a2.8 2.8 0 0 1-1.1 2.3l-1.4.7-1.7.2c-1 0-1.8-.2-2.5-.5-.6-.4-1.1-.8-1.5-1.3-.3-.6-.5-1.1-.5-1.7h2.3c0 .4.1.8.4 1 .2.3.4.5.8.6l1 .2 1-.2c.4-.1.6-.3.7-.5.2-.2.2-.4.2-.7Z"/></g><defs><filter id="a" width="196" height="52" x="2" y="54" color-interpolation-filters="sRGB" filterUnits="userSpaceOnUse"><feFlood flood-opacity="0" result="BackgroundImageFix"/><feGaussianBlur in="BackgroundImageFix" stdDeviation="3"/><feComposite in2="SourceAlpha" operator="in" result="effect1_backgroundBlur_1509_12296"/><feBlend in="SourceGraphic" in2="effect1_backgroundBlur_1509_12296" result="shape"/></filter></defs></svg>