<svg xmlns="http://www.w3.org/2000/svg" width="200" height="160" fill="none"><rect width="200" height="56" y="52" fill="#fff" rx="4"/><rect width="199" height="55" x=".5" y="52.5" stroke="#000" stroke-opacity=".1" rx="3.5"/><g filter="url(#a)"><rect width="184" height="48" x="8" y="56" fill="#fff" fill-opacity=".8" rx="4"/><path fill="#3FA71A" d="M23 89h-1l1-7h-3.5c-.6 0-.6-.3-.4-.7.2-.3 0 0 0 0L25 71h1l-1 7h3.5c.5 0 .6.3.5.5l-.1.2L23 89Z"/><path fill="#000" fill-opacity=".9" d="M43.8 73.3h-2.6v-1.4h2.6c.4 0 .8 0 1-.2.4-.1.6-.3.7-.6l.2-.9c0-.3 0-.6-.2-.9-.1-.2-.3-.5-.6-.6a2 2 0 0 0-1.1-.3h-2V77H40V67h3.8c.8 0 1.4.2 2 .5.5.2 1 .6 1.2 1 .3.6.4 1 .4 1.7 0 .6-.1 1.2-.4 1.7-.3.4-.7.8-1.2 1-.6.3-1.2.4-2 .4Zm4.8 0c0-.6.1-1.1.3-1.6l.6-1.2a3 3 0 0 1 1.1-.7c.4-.2 1-.3 1.5-.3s1 0 1.4.3c.4.1.8.4 1.1.7l.7 1.2.2 1.5v.2c0 .5 0 1-.2 1.5l-.7 1.2a3.1 3.1 0 0 1-2.5 1c-.6 0-1 0-1.5-.2a3.6 3.6 0 0 1-1.8-2l-.2-1.5Zm1.7 0v1l.4.8c.1.2.3.4.6.5.2.2.5.2.8.2a1.6 1.6 0 0 0 1.3-.7c.2-.2.3-.5.3-.8l.2-1c0-.4 0-.7-.2-1 0-.3-.1-.6-.3-.8a1.6 1.6 0 0 0-1.3-.7c-.3 0-.6 0-.8.2-.3.1-.5.3-.6.5-.1.2-.3.5-.3.8l-.1 1Zm8.8 2 1.8-5.7h1l-.3 1.7L60 77h-1l.2-1.6Zm-1-5.7 1.4 5.8V77h-1l-2-7.4h1.6Zm5.4 5.7 1.3-5.7h1.6l-2 7.4h-1l.1-1.7Zm-1.4-5.7 1.7 5.7.2 1.7h-1l-1.7-5.7-.3-1.7h1Zm9 7.5c-.6 0-1.1 0-1.5-.2a3.3 3.3 0 0 1-1.9-2 4 4 0 0 1-.2-1.3v-.3c0-.6 0-1.1.2-1.6s.4-.9.7-1.2a3 3 0 0 1 1.1-.8l1.3-.2c.6 0 1 0 1.4.2a3.1 3.1 0 0 1 1.6 1.9l.2 1.5v.7h-5.7v-1.2h4v-.1l-.1-.9-.5-.6-.9-.2c-.2 0-.5 0-.7.2-.2 0-.4.2-.5.5l-.4.7v2.3l.5.7.6.5.8.1A2.3 2.3 0 0 0 73 75l.9.9-.7.6c-.2.2-.5.4-.9.5-.4.2-.8.2-1.3.2Zm6-6V77h-1.6v-7.4h1.6V71Zm2.4-1.5V71a3.2 3.2 0 0 0-1.5 0 1.4 1.4 0 0 0-.8 1l-.2.6h-.4c0-.4 0-.8.2-1.2 0-.4.2-.8.4-1 .2-.4.4-.6.7-.8a1.9 1.9 0 0 1 1.3-.2h.3ZM42.9 91.8l.7-.1.5-.5c.2-.2.2-.4.2-.6H46c0 .4-.2.9-.4 1.3a3 3 0 0 1-1.1.9l-1.5.3c-.6 0-1 0-1.5-.3a3 3 0 0 1-1-.8l-.7-1.1-.2-1.5v-.2l.2-1.5.7-1.1c.2-.4.6-.6 1-.8.4-.2 1-.3 1.5-.3.6 0 1 0 1.5.3s.8.6 1 1c.4.4.5.9.5 1.4h-1.6c0-.2 0-.5-.2-.7 0-.2-.2-.4-.5-.5-.2-.2-.4-.2-.7-.2-.4 0-.6 0-.9.2l-.5.5-.2.8-.1.9v1.2l.3.7.5.5c.3.2.5.2.9.2Zm4.2-2.4v-.2c0-.5 0-1 .2-1.5l.7-1.2a3 3 0 0 1 1-.7l1.5-.3c.6 0 1 0 1.5.3.4.1.8.4 1 .7.4.4.6.8.7 1.2l.3 1.5v.2l-.3 1.5-.6 1.2a3.1 3.1 0 0 1-2.6 1c-.5 0-1 0-1.4-.2a3.5 3.5 0 0 1-1.8-2l-.2-1.5Zm1.6-.2v.2l.1 1 .4.7.5.5c.3.2.5.2.8.2a1.6 1.6 0 0 0 1.4-.7l.3-.8.1-1v-1l-.4-.8a1.6 1.6 0 0 0-1.4-.7c-.3 0-.5 0-.8.2l-.5.5-.4.8v1Zm8.5-2V93h-1.6v-7.4H57l.1 1.6ZM57 89h-.5c0-.5 0-1 .2-1.4l.6-1.1a2.7 2.7 0 0 1 2.2-1l1 .1.7.5.5.8.1 1.3V93h-1.6v-4.8c0-.3 0-.6-.2-.8a.9.9 0 0 0-.4-.5l-.8-.1a1.6 1.6 0 0 0-1.3.7l-.3.7-.2.8Zm10.9 2-.1-.4a1 1 0 0 0-.5-.4l-1-.3-1-.3-1-.5-.5-.6-.2-.8.2-.9.6-.7 1-.5 1.1-.1c.6 0 1.1 0 1.6.3.4.2.8.5 1 .8.3.4.4.8.4 1.2h-1.7l-.1-.5a1 1 0 0 0-.5-.5l-.7-.1-.7.1a1 1 0 0 0-.4.4.9.9 0 0 0 0 .8l.2.2.4.2.8.2 1.4.5c.4.2.8.4 1 .7.2.3.3.7.3 1.1a2 2 0 0 1-.8 1.6 3 3 0 0 1-1 .5l-1.2.1c-.7 0-1.2 0-1.7-.3s-.8-.6-1-1c-.3-.3-.4-.7-.4-1.1h1.6l.2.7.6.4.7.1.8-.1c.2 0 .3-.2.4-.3l.2-.5Zm7.8.3v-5.7h1.6V93h-1.6v-1.7Zm.2-1.6h.5l-.1 1.4-.5 1c-.3.4-.5.6-1 .8a3 3 0 0 1-1.2.2 3 3 0 0 1-1-.1 2 2 0 0 1-.8-.5l-.5-.9a4 4 0 0 1-.1-1.2v-4.8h1.6v4.8l.1.7c0 .2.2.3.3.4l.4.2.4.1c.5 0 .9 0 1.1-.3.3-.2.5-.4.6-.7l.2-1Zm5-2.6V93H79v-7.4h1.6v1.5Zm-.3 2H80c0-.6 0-1 .2-1.5 0-.4.3-.8.5-1.1l1-.8a3 3 0 0 1 1.2-.2l1 .1.7.5.4.8c.2.3.2.7.2 1.2V93h-1.6v-4.8c0-.3 0-.6-.2-.8a1 1 0 0 0-.5-.5l-.7-.1c-.3 0-.5 0-.7.2-.3 0-.4.3-.6.5l-.3.7v.8Zm4.6-.5-.8.2.2-1.3c.2-.4.3-.8.6-1a2.6 2.6 0 0 1 2.1-1l1 .1.8.5c.2.2.4.5.5.9l.1 1.2V93H88v-4.8c0-.4 0-.7-.2-.9a.9.9 0 0 0-.4-.4l-.7-.1-.7.1-.5.4-.3.6v.7Zm8.1-1.6v8.8h-1.6V85.6h1.5l.1 1.4Zm4.9 2.2v.2l-.2 1.5-.6 1.2c-.2.3-.5.6-.9.8l-1.2.2c-.5 0-.9 0-1.2-.2l-.9-.7a4 4 0 0 1-.6-1.2l-.3-1.4v-.5l.3-1.5.6-1.1a2.5 2.5 0 0 1 2-1c.5 0 1 0 1.3.2l1 .8.5 1.2.2 1.5Zm-1.7.2v-1.2l-.4-.7a1.5 1.5 0 0 0-1.3-.7l-.7.1-.5.4a2 2 0 0 0-.4.7l-.1.7V90l.2 1 .6.6 1 .2c.2 0 .5 0 .7-.2.2 0 .4-.3.5-.5.2-.2.3-.5.3-.8l.1-1Zm6.7-3.8v1.2H99v-1.2h4.2Zm-3-1.8h1.7v7.7l.4.2h.4a2.5 2.5 0 0 0 .6 0V93a4.2 4.2 0 0 1-1.1.1c-.4 0-.7 0-1-.2-.3-.1-.5-.3-.7-.6-.2-.3-.3-.7-.3-1.2v-7.3Zm6.3 1.8V93h-1.7v-7.4h1.7Zm-1.8-2 .3-.6.7-.2c.3 0 .5 0 .7.2l.2.7c0 .2 0 .4-.2.6a1 1 0 0 1-.7.2 1 1 0 0 1-.7-.2.8.8 0 0 1-.3-.6Zm3.5 5.8v-.2l.3-1.5.6-1.2a3 3 0 0 1 1.1-.7c.4-.2 1-.3 1.5-.3s1 0 1.4.3c.4.1.8.4 1.1.7l.7 1.2.2 1.5v.2c0 .5 0 1-.2 1.5L114 92a3.2 3.2 0 0 1-2.5 1c-.6 0-1 0-1.5-.2a3.6 3.6 0 0 1-1.8-2l-.2-1.5Zm1.7-.2v1.2l.4.7c.1.2.3.4.6.5.2.2.5.2.8.2a1.6 1.6 0 0 0 1.3-.7l.4-.8v-2l-.4-.8a1.6 1.6 0 0 0-1.3-.7c-.3 0-.6 0-.8.2-.3.1-.5.3-.6.5l-.3.8-.1 1Zm8.5-2V93h-1.7v-7.4h1.6v1.6ZM118 89h-.6c0-.5.1-1 .3-1.4.1-.5.3-.8.6-1.1a2.6 2.6 0 0 1 2.1-1l1 .1.7.5.5.8.2 1.3V93H121v-4.8c0-.3 0-.6-.2-.8a.9.9 0 0 0-.4-.5l-.7-.1a1.6 1.6 0 0 0-1.3.7l-.4.7-.1.8Z"/><path fill="#3FA71A" d="M146.5 72.7V87h-2.4V75.5l-3.4 1.2v-2l5.5-2h.3Zm12.6-.7v15h-2.3V72h2.3Zm6.6 4.4-4.6 5.1-2.5 2.6-.6-2 1.9-2.3 3-3.4h2.8ZM163.4 87l-3.5-5 1.5-1.6 4.7 6.6h-2.7Zm7.7-3.2 2.8-11h1.5l-.2 2.8-3 11.4h-1.5l.4-3.2Zm-2.1-11 2.3 11 .2 3.2h-1.7l-3.3-14.2h2.5Zm9.6 10.9 2.3-11h2.4L180 87h-1.6l.2-3.3Zm-2.6-11 2.8 11.1.4 3.2h-1.5l-3-11.4-.2-2.8h1.5Z"/></g><defs><filter id="a" width="196" height="60" x="2" y="50" color-interpolation-filters="sRGB" filterUnits="userSpaceOnUse"><feFlood flood-opacity="0" result="BackgroundImageFix"/><feGaussianBlur in="BackgroundImageFix" stdDeviation="3"/><feComposite in2="SourceAlpha" operator="in" result="effect1_backgroundBlur_1511_43958"/><feBlend in="SourceGraphic" in2="effect1_backgroundBlur_1511_43958" result="shape"/></filter></defs></svg>