<svg xmlns="http://www.w3.org/2000/svg" width="200" height="160" fill="none"><rect width="200" height="56" y="52" fill="#fff" rx="4"/><rect width="199" height="55" x=".5" y="52.5" stroke="#000" stroke-opacity=".1" rx="3.5"/><g filter="url(#a)"><path fill="#2B54CE" d="M22 75c-5.5 0-10 2.2-10 5 0 2.2 3 4.1 7 4.8V88l4-4-4-4v2.7c-3.2-.5-5-1.9-5-2.7 0-1 3-3 8-3s8 2 8 3c0 .7-1.5 1.9-4 2.5v2c3.5-.7 6-2.5 6-4.5 0-2.8-4.5-5-10-5Z"/><path fill="#000" fill-opacity=".9" d="M39 65h3.5a5 5 0 0 1 2 .4c.5.2 1 .6 1.2 1 .3.4.4 1 .4 1.6 0 .5 0 1-.3 1.4l-.7 1-1.2.5-.5.3h-3.2v-1.4h2.4c.4 0 .7 0 1-.2l.6-.6.2-.9c0-.3 0-.6-.2-.9l-.6-.6-1-.2h-1.9V75H39V65Zm5.7 10-2.3-4.5h1.8l2.3 4.4v.1h-1.8Zm2.9-3.6v-.2c0-.5 0-1 .2-1.5l.7-1.2a3 3 0 0 1 1-.7l1.5-.3c.6 0 1 0 1.5.3.4.1.8.4 1 .7.4.4.6.8.7 1.2l.3 1.5v.2l-.3 1.5-.6 1.2a3.1 3.1 0 0 1-2.6 1c-.5 0-1 0-1.4-.2a3.5 3.5 0 0 1-1.8-2l-.2-1.5Zm1.6-.2v.2c0 .3 0 .6.2 1 0 .2.1.5.3.7l.5.5c.3.2.5.2.8.2a1.6 1.6 0 0 0 1.4-.7c.1-.2.3-.5.3-.8l.1-1v-1l-.4-.8a1.6 1.6 0 0 0-1.4-.7c-.3 0-.5 0-.8.2l-.5.5c-.2.2-.3.5-.3.8l-.2 1Zm10.3-3.6v1.2h-4.2v-1.2h4.2Zm-3-1.8h1.7v7.7l.4.2h.4a2.5 2.5 0 0 0 .6 0V75a4.2 4.2 0 0 1-1.1.1c-.4 0-.7 0-1-.2-.3-.1-.6-.3-.7-.6-.2-.3-.3-.7-.3-1.2v-7.3Zm8.7 7.7V70c0-.3 0-.5-.2-.7a1 1 0 0 0-.4-.4l-.7-.2-.7.1-.5.4-.1.5h-1.7l.2-.8.7-.7a3 3 0 0 1 1-.5 4 4 0 0 1 1.2-.2c.5 0 1 0 1.5.2.4.2.7.5 1 .9.2.4.3.8.3 1.4v3.3l.1.9.2.7v.1h-1.7a3 3 0 0 1-.1-.7l-.1-.8Zm.2-3v1h-1.1l-.8.1c-.3 0-.5.1-.6.3a1 1 0 0 0-.5.9l.1.5.4.4.7.1a1.8 1.8 0 0 0 1.5-.7l.2-.6.5.8-.2.6a3 3 0 0 1-.6.6 2.6 2.6 0 0 1-1.7.6c-.5 0-1 0-1.3-.3-.4-.1-.7-.4-1-.7a2.4 2.4 0 0 1-.1-2.2l.7-.8 1.1-.4 1.4-.2h1.3Zm6.8-2.9v1.2H68v-1.2h4.2Zm-3-1.8H71v7.7l.4.2h.4a2.5 2.5 0 0 0 .6 0V75a4.2 4.2 0 0 1-1.1.1c-.4 0-.7 0-1-.2-.3-.1-.5-.3-.7-.6-.2-.3-.3-.7-.3-1.2v-7.3Zm6.3 1.8V75h-1.7v-7.4h1.7Zm-1.8-2 .3-.6.7-.2c.3 0 .5 0 .7.2l.2.7c0 .2 0 .4-.2.6a1 1 0 0 1-.7.2 1 1 0 0 1-.7-.2.8.8 0 0 1-.3-.6Zm3.5 5.8v-.2l.3-1.5.6-1.2a3 3 0 0 1 1.1-.7c.4-.2 1-.3 1.5-.3s1 0 1.4.3c.4.1.8.4 1.1.7l.7 1.2.2 1.5v.2c0 .5 0 1-.2 1.5l-.7 1.2a3.1 3.1 0 0 1-2.5 1c-.6 0-1 0-1.5-.2a3.5 3.5 0 0 1-1.8-2l-.2-1.5Zm1.7-.2v1.2l.4.7c.2.2.3.4.6.5.2.2.5.2.8.2a1.6 1.6 0 0 0 1.3-.7l.4-.8v-2l-.4-.8a1.6 1.6 0 0 0-1.3-.7c-.3 0-.6 0-.8.2-.3.1-.4.3-.6.5l-.3.8-.1 1Zm8.5-2V75h-1.7v-7.4h1.6v1.6ZM87 71h-.6c0-.5.1-1 .3-1.4.1-.5.3-.8.6-1.1a2.7 2.7 0 0 1 2.1-1l1 .1.7.5.5.8.2 1.3V75h-1.7v-4.8c0-.3 0-.6-.2-.8a.9.9 0 0 0-.4-.5l-.7-.1a1.6 1.6 0 0 0-1.3.7l-.4.7-.1.8ZM98 73.5V70c0-.3 0-.5-.2-.7a1 1 0 0 0-.4-.4l-.8-.2-.6.1-.5.4-.2.5h-1.6c0-.3 0-.5.2-.8.1-.3.3-.5.6-.7a3 3 0 0 1 1-.5 4 4 0 0 1 1.2-.2c.6 0 1 0 1.5.2.4.2.8.5 1 .9.3.4.4.8.4 1.4v4.2l.3.7v.1h-1.7a3 3 0 0 1-.2-.7v-.8Zm.2-3v1H97l-.8.1-.6.3a1 1 0 0 0-.4.9l.1.5.4.4.6.1a1.8 1.8 0 0 0 1.5-.7l.3-.6.5.8-.3.6a3 3 0 0 1-.5.6 2.6 2.6 0 0 1-1.8.6c-.5 0-.9 0-1.3-.3-.3-.1-.6-.4-.9-.7a2.4 2.4 0 0 1-.1-2.2l.7-.8 1-.4 1.5-.2h1.3Zm5.1-6V75h-1.6V64.5h1.6ZM43 93l-.1-.4a1 1 0 0 0-.5-.4l-1-.3-1-.3-1-.5-.5-.6-.2-.8.2-.9.6-.7 1-.5 1.1-.1c.6 0 1.1 0 1.6.3.4.2.8.5 1 .8.3.4.4.8.4 1.2h-1.7l-.1-.5a1 1 0 0 0-.5-.5l-.7-.1-.7.1a1 1 0 0 0-.4.4.9.9 0 0 0 0 .8l.2.2.4.2.8.2 1.4.5c.4.2.8.4 1 .7.2.3.3.7.3 1.1a2 2 0 0 1-.8 1.6 3 3 0 0 1-1 .5l-1.2.1c-.7 0-1.2 0-1.7-.3s-.8-.6-1-1c-.3-.3-.4-.7-.4-1.1h1.6c0 .3 0 .5.2.7l.6.4.7.1.8-.1c.2 0 .3-.2.4-.3l.2-.5Zm5-4v8.8h-1.7V87.6h1.5L48 89Zm4.8 2.2v.2c0 .5 0 1-.2 1.5L52 94c-.2.3-.5.6-.9.8L50 95c-.5 0-.9 0-1.2-.2l-.9-.7a4 4 0 0 1-.5-1.2c-.2-.4-.3-.9-.3-1.4v-.5c0-.6.1-1 .3-1.5l.5-1.1a2.5 2.5 0 0 1 2-1c.6 0 1 0 1.3.2l1 .8.5 1.2.2 1.5Zm-1.7.2v-1.2l-.4-.7a1.5 1.5 0 0 0-1.3-.7l-.7.1-.5.4a2 2 0 0 0-.4.7l-.1.7V92c0 .4.1.7.3 1 0 .2.3.4.5.6l1 .2c.3 0 .5 0 .7-.2.2 0 .4-.3.5-.5.2-.2.3-.5.3-.8l.1-1Zm6.6 3.7c-.6 0-1 0-1.5-.2a3.3 3.3 0 0 1-1.8-2 4 4 0 0 1-.3-1.3v-.3c0-.6.1-1.1.3-1.6.2-.5.4-.9.7-1.2a3 3 0 0 1 1-.8l1.4-.2c.5 0 1 0 1.4.2l1 .8.6 1.1.1 1.5v.7H55v-1.2H59v-.1c0-.3 0-.6-.2-.9 0-.2-.2-.4-.4-.6l-1-.2c-.2 0-.4 0-.6.2-.3 0-.4.2-.6.5l-.3.7-.1 1v.4l.1.9.4.7.6.5.9.1a2.3 2.3 0 0 0 1.9-.9l.8.9-.6.6-1 .5c-.3.2-.7.2-1.2.2Zm7.7 0c-.5 0-1 0-1.4-.2a3.3 3.3 0 0 1-1.9-2 4 4 0 0 1-.2-1.3v-.3c0-.6 0-1.1.2-1.6s.4-.9.7-1.2a3 3 0 0 1 1.1-.8l1.3-.2c.6 0 1 0 1.4.2a3.1 3.1 0 0 1 1.6 1.9l.2 1.5v.7h-5.7v-1.2h4v-.1l-.1-.9-.5-.6-.9-.2c-.2 0-.5 0-.7.2-.2 0-.4.2-.5.5-.2.2-.3.4-.3.7l-.2 1v.4c0 .3 0 .6.2.9l.4.7.6.5.8.1a2.3 2.3 0 0 0 2-.9l.8.9-.6.6-1 .5c-.3.2-.8.2-1.3.2Zm9-1.6v-9h1.7V95h-1.5l-.1-1.5Zm-4.8-2.1v-.2l.2-1.5.6-1.2a2.5 2.5 0 0 1 2.1-1c.5 0 .9 0 1.2.2.4.2.6.4.9.8l.5 1.1.3 1.5v.5c0 .5-.1 1-.3 1.4 0 .4-.3.8-.5 1.1a2.5 2.5 0 0 1-2 1 2.6 2.6 0 0 1-2.2-1l-.6-1.2-.2-1.5Zm1.7-.2v1.2l.4.7.5.5.7.2c.4 0 .7 0 1-.2l.5-.7c.2-.3.3-.6.3-1v-1.2l-.1-.7a2 2 0 0 0-.4-.6l-.5-.5-.7-.1c-.3 0-.6 0-.8.2l-.5.5c-.2.2-.3.5-.3.8l-.1 1Z"/><path fill="#2B54CE" d="M114.5 78.6h1.2c.5 0 1 0 1.2-.2.4-.2.6-.4.8-.7l.2-1c0-.4 0-.8-.2-1-.2-.4-.4-.6-.7-.8l-1-.2c-.4 0-.8 0-1 .2a1.7 1.7 0 0 0-1 1.6h-2.2c0-.6.2-1.2.6-1.8.3-.5.8-1 1.4-1.2a5.3 5.3 0 0 1 4.3 0c.6.2 1 .6 1.4 1.2.4.5.5 1.2.5 2 0 .3 0 .7-.2 1-.2.4-.4.8-.8 1a4 4 0 0 1-1.2.8c-.5.2-1.1.3-1.8.3h-1.5v-1.2Zm0 1.7v-1.2h1.5c.8 0 1.4.1 2 .3.5.2 1 .4 1.3.7l.7 1 .2 1.3c0 .6 0 1.2-.3 1.6-.2.5-.5.9-.9 1.2a4 4 0 0 1-1.4.7 5.7 5.7 0 0 1-3.3 0c-.5-.1-1-.3-1.3-.6-.4-.3-.7-.7-1-1.2-.2-.4-.3-1-.3-1.5h2.1c0 .3 0 .7.3 1 .1.3.4.5.7.6.4.2.7.3 1.1.3.5 0 .9 0 1.2-.2.3-.2.6-.4.7-.8.2-.3.3-.6.3-1 0-.6 0-1-.3-1.3l-.8-.7-1.3-.2h-1.2Zm16.1-1.8v2.1c0 1 0 1.9-.3 2.6-.2.7-.4 1.3-.8 1.7-.4.4-.8.8-1.3 1a5 5 0 0 1-3.1.1 3.4 3.4 0 0 1-2.1-1.7 6 6 0 0 1-.6-1.6l-.2-2v-2.2c0-1 .1-1.8.3-2.5.2-.7.5-1.3.9-1.7.4-.5.8-.8 1.3-1a4.9 4.9 0 0 1 3.1-.1 3.3 3.3 0 0 1 2 1.7c.3.4.5 1 .6 1.5.2.6.2 1.3.2 2.1Zm-2 2.4v-2.7l-.2-1.3a4 4 0 0 0-.2-1 2 2 0 0 0-.5-.7l-.5-.4a2 2 0 0 0-.8 0 2 2 0 0 0-.8.1c-.3.1-.5.3-.7.6l-.4 1-.1 1.7v4.1l.3 1 .4.7.6.4h.8l.8-.1c.3-.1.5-.3.7-.6l.4-1.1.1-1.7Zm12.4-2.4v2.1c0 1-.1 1.9-.3 2.6-.2.7-.5 1.3-.9 1.7-.3.4-.8.8-1.3 1a5 5 0 0 1-3.1.1 3.4 3.4 0 0 1-2-1.7 6 6 0 0 1-.6-1.6c-.2-.6-.2-1.3-.2-2v-2.2c0-1 0-1.8.3-2.5.2-.7.5-1.3.8-1.7.4-.5.8-.8 1.3-1 .6-.2 1.1-.3 1.8-.3.5 0 1 0 1.4.2a3.3 3.3 0 0 1 2 1.7c.3.4.4 1 .6 1.5l.2 2.1Zm-2.2 2.4v-4a4 4 0 0 0-.3-1 2 2 0 0 0-.4-.7l-.6-.4a2 2 0 0 0-.7 0 2 2 0 0 0-1 .1l-.6.6-.4 1-.1 1.7v4.1l.4 1c0 .3.2.5.4.7.1.2.3.3.6.4h.7l.9-.1.6-.6.4-1.1.2-1.7Zm9-7.7h4.6c1 0 1.8.1 2.5.4.7.3 1.2.8 1.6 1.3.3.6.5 1.3.5 2.2 0 .6-.1 1.2-.3 1.6-.3.5-.6 1-1 1.3-.5.3-1 .6-1.6.7l-.6.4h-4.1v-1.8h3c.6 0 1 0 1.4-.3.3-.2.6-.4.7-.7a2.4 2.4 0 0 0 0-2.3c-.1-.3-.4-.6-.7-.8a3 3 0 0 0-1.4-.2h-2.3v11h-2.2V73.2Zm7.4 12.8-3-5.7h2.3l3 5.6v.1h-2.3Zm9-4.8h-3.4v-1.7h3.4c.6 0 1-.1 1.4-.3.3-.2.6-.4.8-.8l.2-1.1c0-.4 0-.8-.2-1.2a2 2 0 0 0-.8-.8c-.4-.2-.8-.3-1.4-.3h-2.7v11h-2.2V73.2h4.9c1 0 1.8.2 2.5.5.7.4 1.2.9 1.6 1.5.3.6.5 1.3.5 2a4 4 0 0 1-.5 2.2c-.4.6-1 1-1.6 1.4a6 6 0 0 1-2.5.4Zm7.6-8h2l3.7 9.9 3.7-9.9h2l-5 12.8h-1.5l-4.9-12.8Zm-.9 0h1.9l.3 8.5V86H171V73.2Zm11.3 0h1.8V86h-2.2v-4.3l.4-8.5Z"/></g><defs><filter id="a" width="200" height="56" x="0" y="52" color-interpolation-filters="sRGB" filterUnits="userSpaceOnUse"><feFlood flood-opacity="0" result="BackgroundImageFix"/><feGaussianBlur in="BackgroundImageFix" stdDeviation="3"/><feComposite in2="SourceAlpha" operator="in" result="effect1_backgroundBlur_1518_4983"/><feBlend in="SourceGraphic" in2="effect1_backgroundBlur_1518_4983" result="shape"/></filter></defs></svg>