<svg xmlns="http://www.w3.org/2000/svg" width="200" height="160" fill="none"><rect width="200" height="56" y="52" fill="#fff" rx="4"/><rect width="199" height="55" x=".5" y="52.5" stroke="#000" stroke-opacity=".1" rx="3.5"/><g filter="url(#a)"><rect width="184" height="40" x="8" y="60" fill="#fff" fill-opacity=".8" rx="4"/><path fill="#F36900" d="M23 90.2V87l-1.7 1.6-1.5-1.5 4.2-4.2 4.2 4.2-1.5 1.5-1.6-1.5v3h-2.2Zm-7-8.3v-2h16v2H16Zm0-3v-2h16v2H16Zm8-3-4.2-4.2 1.5-1.5 1.6 1.6v-3.2h2.2v3.2l1.6-1.6 1.5 1.5L24 76Z"/><path fill="#000" fill-opacity=".9" d="M43.8 81.3h-2.6v-1.4h2.6c.4 0 .8 0 1-.2.4-.1.6-.3.7-.6l.2-.9c0-.3 0-.6-.2-.9-.1-.2-.3-.5-.6-.6a2 2 0 0 0-1.1-.3h-2V85H40V75h3.8c.8 0 1.4.2 2 .5.5.2 1 .6 1.2 1 .3.6.4 1 .4 1.7 0 .6-.1 1.2-.4 1.7-.3.4-.7.8-1.2 1-.6.3-1.2.4-2 .4Zm6.9-2.3v6H49v-7.4h1.6V79Zm2.3-1.4V79a3.2 3.2 0 0 0-1.5 0 1.4 1.4 0 0 0-.8 1l-.2.6h-.4c0-.4 0-.8.2-1.2 0-.4.2-.8.4-1 .2-.4.4-.6.7-.8a1.9 1.9 0 0 1 1.3-.2h.3Zm4.4 7.5c-.6 0-1 0-1.5-.2a3.3 3.3 0 0 1-1.8-2 4 4 0 0 1-.3-1.3v-.3c0-.6 0-1.1.3-1.6.1-.5.4-.9.7-1.2a3 3 0 0 1 1-.8l1.4-.2c.5 0 1 0 1.4.2l1 .8.5 1.1c.2.5.2 1 .2 1.5v.7h-5.7v-1.2h4.1v-.1c0-.3 0-.6-.2-.9 0-.2-.2-.4-.5-.6l-.8-.2c-.3 0-.6 0-.8.2-.2 0-.4.2-.5.5-.1.2-.3.4-.3.7l-.1 1v1.3l.5.7.6.5.9.1a2.3 2.3 0 0 0 1.8-.9l.9.9-.6.6-1 .5c-.3.2-.8.2-1.2.2ZM66 83l-.1-.4a1 1 0 0 0-.5-.4l-1-.3-1-.3-1-.5-.5-.6-.1-.8c0-.3 0-.6.2-.9 0-.2.3-.5.5-.7l1-.5 1.1-.1c.6 0 1.2 0 1.6.3.4.2.8.5 1 .8.3.4.4.8.4 1.2h-1.7l-.1-.5a1 1 0 0 0-.5-.5l-.7-.1-.7.1a1 1 0 0 0-.4.4.9.9 0 0 0 0 .8l.2.2.4.2.8.2 1.4.5c.5.2.8.4 1 .7.2.3.3.7.3 1.1a2 2 0 0 1-.8 1.6 3 3 0 0 1-1 .5l-1.2.1c-.6 0-1.2 0-1.7-.3-.4-.3-.8-.6-1-1-.3-.3-.4-.7-.4-1.1h1.6c0 .3.1.5.3.7l.5.4.7.1.8-.1c.2 0 .3-.2.4-.3.2-.2.2-.3.2-.5Zm7.5 0c0-.2 0-.3-.2-.4a1 1 0 0 0-.4-.4l-1-.3-1.1-.3-.9-.5c-.2-.1-.4-.3-.5-.6l-.2-.8c0-.3 0-.6.2-.9l.6-.7.9-.5 1.2-.1c.6 0 1.1 0 1.6.3l1 .8.3 1.2h-1.6c0-.2 0-.4-.2-.5a1 1 0 0 0-.4-.5l-.7-.1-.7.1a1 1 0 0 0-.5.4.9.9 0 0 0 0 .8l.2.2.5.2.7.2 1.5.5 1 .7c.2.3.3.7.3 1.1a2 2 0 0 1-.8 1.6 3 3 0 0 1-1 .5l-1.2.1c-.7 0-1.3 0-1.7-.3-.5-.3-.8-.6-1-1-.3-.3-.4-.7-.4-1.1h1.6c0 .3 0 .5.2.7l.6.4.7.1.7-.1c.2 0 .4-.2.5-.3l.2-.5Zm7.7.3v-5.7H83V85h-1.6v-1.7Zm.3-1.6h.5c0 .5 0 1-.2 1.4 0 .4-.2.8-.5 1-.2.4-.5.6-.8.8a3 3 0 0 1-1.3.2 3 3 0 0 1-1-.1 2 2 0 0 1-.8-.5c-.2-.2-.4-.5-.5-.9a4 4 0 0 1-.2-1.2v-4.8h1.7v5.5l.3.4.4.2.5.1c.5 0 .8 0 1-.3.4-.2.6-.4.7-.7l.2-1Zm5-2.7v6h-1.7v-7.4h1.6V79Zm2.2-1.4V79a3.2 3.2 0 0 0-1.4 0 1.4 1.4 0 0 0-.9 1l-.1.6h-.4c0-.4 0-.8.2-1.2 0-.4.2-.8.4-1 .2-.4.4-.6.7-.8a1.9 1.9 0 0 1 1.3-.2h.2Zm4.4 7.5c-.5 0-1 0-1.4-.2a3.3 3.3 0 0 1-1.9-2 4 4 0 0 1-.2-1.3v-.3c0-.6 0-1.1.2-1.6s.4-.9.7-1.2a3 3 0 0 1 1.1-.8l1.3-.2c.6 0 1 0 1.4.2l1 .8c.3.3.5.7.6 1.1l.2 1.5v.7h-5.7v-1.2h4v-.1l-.1-.9-.5-.6-.9-.2c-.2 0-.5 0-.7.2-.2 0-.4.2-.5.5l-.4.7v2.3l.5.7.6.5.8.1a2.3 2.3 0 0 0 1.9-.9l.9.9-.7.6c-.2.2-.5.4-.9.5-.4.2-.8.2-1.3.2Z"/><path fill="#F36900" d="M133.5 72.7V87h-2.4V75.5l-3.4 1.2v-2l5.5-2h.3Zm14.6 12.4V87h-9.6v-1.6l4.7-5 1.2-1.5.6-1.2a2.9 2.9 0 0 0 0-2.1c-.2-.4-.5-.7-.8-.8-.3-.2-.7-.3-1.2-.3s-1 0-1.3.3c-.4.2-.6.5-.8 1-.2.3-.3.8-.3 1.3h-2.3c0-.8.2-1.6.5-2.3.4-.6 1-1.2 1.7-1.6.7-.4 1.6-.6 2.6-.6s1.7.1 2.4.5c.6.3 1.2.7 1.5 1.3.3.6.5 1.3.5 2.1 0 .4 0 .9-.2 1.3-.1.5-.3.9-.6 1.3l-1 1.3-1.1 1.3-3 3.4h6.5Zm7.1-13.1h2.4v12.7l-.2 2.3h-2.2V72Zm9.3 9.6v.2c0 .8-.1 1.5-.3 2.2a5 5 0 0 1-.8 1.7c-.3.5-.7.8-1.3 1.1-.5.3-1 .4-1.7.4s-1.2-.1-1.7-.4c-.5-.2-1-.6-1.3-1-.3-.5-.6-1-.8-1.7l-.4-2v-.7l.4-2.1.8-1.6a3.4 3.4 0 0 1 3-1.5 4 4 0 0 1 1.8.4c.5.3.9.7 1.2 1.1.4.5.7 1 .8 1.7.2.7.3 1.4.3 2.2Zm-2.4.2v-1.5l-.5-1.1a2 2 0 0 0-.7-.8 2 2 0 0 0-1.1-.3l-1.1.2-.8.6a3 3 0 0 0-.4.9l-.3 1v1.8l.4 1.4.8 1c.4.2.8.3 1.4.3.4 0 .8 0 1.1-.3.3-.1.5-.4.7-.7l.4-1.1.1-1.4Zm10.4 3v-5c0-.3 0-.7-.2-1l-.6-.6-1-.2c-.4 0-.7 0-1 .2l-.7.5-.2.8h-2.4l.3-1.2c.2-.4.5-.8 1-1 .3-.4.8-.6 1.3-.8.5-.2 1.1-.3 1.8-.3.8 0 1.5.2 2.1.4.6.3 1.1.7 1.5 1.2.3.6.5 1.3.5 2V86l.4 1v.1h-2.4l-.3-1V85Zm.4-4.2V82h-1.7c-.4 0-.8 0-1.1.2-.4 0-.7.2-.9.3a1.5 1.5 0 0 0-.6 1.3c0 .3 0 .6.2.8 0 .2.3.4.5.5.3.2.6.2 1 .2a2.6 2.6 0 0 0 2-1c.3-.3.4-.6.4-.8l.8 1-.4.9-.8.9a3.7 3.7 0 0 1-2.5.9 4 4 0 0 1-1.9-.4c-.5-.3-1-.7-1.2-1.1a3.4 3.4 0 0 1-.1-3.1 3 3 0 0 1 .9-1.1c.4-.3.9-.5 1.5-.7l2-.2h1.9Zm7-2.2V87h-2.4V76.4h2.2l.1 2Zm3.2-2v2.2a4.6 4.6 0 0 0-2 0 2 2 0 0 0-1.3 1.3l-.2 1h-.6l.2-1.8.6-1.5a2.7 2.7 0 0 1 2.9-1.3h.4Z"/></g><defs><filter id="a" width="196" height="52" x="2" y="54" color-interpolation-filters="sRGB" filterUnits="userSpaceOnUse"><feFlood flood-opacity="0" result="BackgroundImageFix"/><feGaussianBlur in="BackgroundImageFix" stdDeviation="3"/><feComposite in2="SourceAlpha" operator="in" result="effect1_backgroundBlur_1501_7709"/><feBlend in="SourceGraphic" in2="effect1_backgroundBlur_1501_7709" result="shape"/></filter></defs></svg>