<svg xmlns="http://www.w3.org/2000/svg" width="200" height="160" fill="none"><rect width="200" height="160" fill="#fff" rx="4"/><rect width="199" height="159" x=".5" y=".5" stroke="#000" stroke-opacity=".1" rx="3.5"/><g filter="url(#a)"><rect width="186" height="146" fill="#fff" fill-opacity=".8" rx="4" transform="matrix(1 0 0 -1 7 153)"/></g><path fill="#000" fill-opacity=".9" d="M21.7 29H21l.7-4.7h-2.4c-.4 0-.4-.2-.2-.5.1-.2 0 0 0 0l3.9-6.9h.7l-.7 4.7h2.3c.4 0 .4.2.3.3v.1l-4 7Zm18.1-5.8h-2.6V22h2.6c.4 0 .8-.1 1-.3.4-.1.6-.3.7-.6l.2-.8c0-.4 0-.6-.2-1l-.6-.6a2 2 0 0 0-1.1-.2h-2V27H36V17h3.8c.8 0 1.4.2 2 .5.5.3 1 .6 1.2 1.1.3.5.4 1 .4 1.6a3 3 0 0 1-.4 1.7c-.3.5-.7.8-1.2 1-.6.3-1.2.4-2 .4Zm4.8.1v-.1c0-.6.1-1 .3-1.5.1-.5.3-.9.6-1.2a3 3 0 0 1 1.1-.8 3.7 3.7 0 0 1 2.9 0c.4.2.8.4 1.1.8.3.3.5.7.7 1.2l.2 1.5v.1c0 .6 0 1-.2 1.5s-.4.9-.7 1.2a3.1 3.1 0 0 1-2.5 1c-.6 0-1 0-1.5-.2a3.6 3.6 0 0 1-1.8-2l-.2-1.5Zm1.7-.1v1.1l.4.7c.1.3.3.4.6.6l.8.2a1.6 1.6 0 0 0 1.3-.8c.2-.2.3-.4.3-.7l.2-1v-.1c0-.4 0-.7-.2-1a1 1 0 0 0-.3-.7 1.6 1.6 0 0 0-1.3-.8c-.3 0-.6 0-.8.2-.3.1-.5.3-.6.6-.1.2-.3.4-.3.7l-.1 1Zm8.8 2.1 1.8-5.8h1l-.3 1.8-1.7 5.6h-1l.2-1.6Zm-1-5.8 1.4 5.8V27h-1l-2-7.4h1.6Zm5.4 5.8 1.3-5.8h1.6l-2 7.4h-1l.1-1.6Zm-1.4-5.8 1.7 5.7.2 1.7h-1l-1.7-5.6-.3-1.8h1Zm9 7.6c-.6 0-1.1-.1-1.5-.3a3.3 3.3 0 0 1-1.9-1.9 4 4 0 0 1-.2-1.4v-.3c0-.6 0-1 .2-1.6l.7-1.2a3 3 0 0 1 1.1-.7 3.4 3.4 0 0 1 2.7 0c.4.2.8.4 1 .7.3.3.5.7.6 1.2L70 23v.7h-5.7v-1.1h4v-.2l-.1-.8a1 1 0 0 0-.5-.6c-.2-.2-.5-.3-.9-.3-.2 0-.5 0-.7.2l-.5.5-.4.8v2.2l.5.7c.1.2.3.4.6.5l.8.2a2.3 2.3 0 0 0 1.9-1l.9.9-.7.7-.9.5-1.3.2Zm6-6.1v6h-1.6v-7.5h1.6V21Zm2.4-1.5V21a3.2 3.2 0 0 0-1.5.1 1.4 1.4 0 0 0-.8.9l-.2.7h-.4c0-.5 0-.9.2-1.3 0-.4.2-.7.4-1 .2-.3.4-.6.7-.7a1.9 1.9 0 0 1 1.3-.3l.3.1Zm8 6.3c.3 0 .5 0 .7-.2l.5-.4c.2-.2.3-.5.3-.7h1.5c0 .5-.1 1-.4 1.3a3 3 0 0 1-1 1 4.1 4.1 0 0 1-3.1 0 3 3 0 0 1-1-.8l-.6-1.2c-.2-.4-.2-1-.2-1.4V23c0-.5 0-1 .2-1.4.1-.5.3-.9.6-1.2l1-.8 1.5-.3a3 3 0 0 1 1.6.4c.4.2.8.5 1 1 .3.4.4.8.4 1.4H85l-.2-.7-.5-.6-.8-.2c-.3 0-.6 0-.8.2l-.6.6-.2.7-.1 1v1.1l.3.7.6.6.8.2Zm4.2-2.5v-.1c0-.6.1-1 .3-1.5.1-.5.3-.9.6-1.2a3 3 0 0 1 1.1-.8 3.7 3.7 0 0 1 2.9 0c.4.2.8.4 1 .8.4.3.6.7.8 1.2l.2 1.5v.1c0 .6 0 1-.2 1.5s-.4.9-.7 1.2a3.1 3.1 0 0 1-2.5 1c-.6 0-1 0-1.5-.2a3.5 3.5 0 0 1-1.8-2l-.2-1.5Zm1.7-.1v1.1l.4.7c.1.3.3.4.6.6l.8.2a1.6 1.6 0 0 0 1.3-.8c.2-.2.3-.4.3-.7l.1-1v-1.1l-.4-.7a1.6 1.6 0 0 0-1.3-.8c-.4 0-.6 0-.9.2a1 1 0 0 0-.5.6 1 1 0 0 0-.3.7l-.1 1Zm8.5-2v5.7h-1.7v-7.4h1.6v1.6Zm-.3 1.8H97c0-.6.1-1 .3-1.5.1-.4.3-.8.6-1.1a2.7 2.7 0 0 1 2-1c.4 0 .8 0 1 .2.3 0 .6.2.8.4.2.2.4.5.5.9l.1 1.3v4.7h-1.6v-4.7c0-.4 0-.7-.2-.9a.9.9 0 0 0-.4-.4l-.7-.2a1.6 1.6 0 0 0-1.4.7l-.3.7-.1.9Zm10.8 2-.1-.5a1 1 0 0 0-.5-.4l-1-.3c-.4 0-.7-.2-1-.3l-.9-.4-.5-.6c-.2-.3-.2-.6-.2-.9 0-.3 0-.6.2-.8l.5-.7 1-.5 1.1-.2c.6 0 1.2.1 1.6.3.5.2.8.5 1 .9.3.3.4.7.4 1.2h-1.7l-.1-.6a1 1 0 0 0-.4-.4l-.8-.2c-.3 0-.5 0-.7.2a1 1 0 0 0-.4.3.9.9 0 0 0 0 .8c0 .1 0 .2.2.3l.5.2.7.2 1.5.4c.4.2.7.5.9.8.2.2.3.6.3 1a2 2 0 0 1-.8 1.7 3 3 0 0 1-1 .4l-1.2.2c-.6 0-1.2-.1-1.7-.4-.4-.2-.8-.5-1-.9a2 2 0 0 1-.4-1.2h1.6c0 .3.1.6.3.8.1.1.3.3.5.3l.8.2c.3 0 .5 0 .7-.2.2 0 .4-.1.5-.3l.1-.5Zm7.8.2v-5.7h1.6V27h-1.5l-.1-1.7Zm.2-1.5h.6c0 .4 0 .9-.2 1.3l-.5 1.1c-.2.3-.5.6-.9.7a3 3 0 0 1-1.3.3 3 3 0 0 1-1-.2 2 2 0 0 1-.7-.5l-.5-.8a4 4 0 0 1-.2-1.3v-4.8h1.6v4.8l.1.7.3.4c.1.2.2.2.4.3h.4c.5 0 .9 0 1.1-.2.3-.2.5-.5.6-.8l.2-1Zm5-2.7v6h-1.6v-7.5h1.5l.1 1.5Zm-.3 2h-.5c0-.5 0-1 .2-1.5l.5-1c.3-.4.6-.7 1-.8a3 3 0 0 1 1.2-.3c.4 0 .7 0 1 .2l.7.4.5.8.1 1.2v5h-1.6v-4.8c0-.4 0-.7-.2-.9a.9.9 0 0 0-.4-.4l-.7-.2c-.3 0-.6 0-.8.2l-.6.5-.3.7v.9Zm4.6-.5-.7.2.1-1.3.6-1a2.6 2.6 0 0 1 2.1-1c.4 0 .8 0 1 .2.4 0 .6.2.8.4.2.3.4.5.5.9l.2 1.3v4.7h-1.7v-4.8c0-.3 0-.6-.2-.8a.9.9 0 0 0-.4-.4l-.7-.2c-.3 0-.5 0-.7.2-.2 0-.3.2-.5.4l-.3.5v.7ZM134 21v8.8h-1.7V19.5h1.5l.2 1.5Zm4.8 2.2v.1c0 .6 0 1-.2 1.5-.1.5-.3.9-.6 1.2-.2.3-.5.6-.9.8-.3.2-.7.3-1.2.3l-1.2-.3c-.3-.1-.6-.4-.9-.7a4 4 0 0 1-.5-1.1c-.2-.4-.3-1-.3-1.4V23l.3-1.5.5-1a2.5 2.5 0 0 1 2.1-1c.5 0 .9 0 1.2.2l1 .7.5 1.2.2 1.6Zm-1.7.1v-1.1l-.4-.8c0-.2-.3-.4-.5-.5l-.7-.2c-.3 0-.6 0-.8.2-.2 0-.4.2-.5.4l-.3.6-.2.7V24l.3.9.5.6c.3.2.6.3 1 .3l.7-.2c.2-.2.4-.3.5-.6.2-.2.3-.4.3-.7l.1-1Zm6.7-3.8v1.2h-4.1v-1.2h4.1Zm-3-1.8h1.7V25l.1.5.3.3h.4a2.5 2.5 0 0 0 .6 0V27a4.2 4.2 0 0 1-1.1.2c-.4 0-.7 0-1-.2l-.7-.7c-.2-.3-.2-.7-.2-1.2v-7.3Zm6.3 1.8V27h-1.6v-7.4h1.6Zm-1.8-1.9c0-.2.1-.5.3-.6.2-.2.4-.3.7-.3.3 0 .5.1.7.3.2.1.2.4.2.6 0 .2 0 .5-.2.6a1 1 0 0 1-.7.3 1 1 0 0 1-.7-.3.8.8 0 0 1-.3-.6Zm3.6 5.7v-.1c0-.6 0-1 .2-1.5.1-.5.4-.9.7-1.2a3 3 0 0 1 1-.8l1.5-.3c.5 0 1 .1 1.4.3.5.2.8.4 1.1.8.3.3.5.7.7 1.2.2.4.2 1 .2 1.5v.1c0 .6 0 1-.2 1.5s-.4.9-.7 1.2a3.2 3.2 0 0 1-2.5 1c-.5 0-1 0-1.5-.2l-1-.8c-.3-.3-.6-.7-.7-1.2-.2-.4-.2-1-.2-1.5Zm1.6-.1v.1l.1 1c0 .3.2.5.3.7l.6.6.8.2a1.6 1.6 0 0 0 1.4-.8l.3-.7v-2.1c0-.3-.2-.5-.4-.7a1.6 1.6 0 0 0-1.3-.8c-.3 0-.6 0-.8.2l-.6.6-.3.7-.1 1Zm8.5-2v5.7h-1.7v-7.4h1.6l.1 1.6Zm-.3 1.8h-.5c0-.6 0-1 .2-1.5.1-.4.3-.8.6-1.1a2.6 2.6 0 0 1 2.1-1c.4 0 .7 0 1 .2.3 0 .5.2.7.4.2.2.4.5.5.9l.2 1.3v4.7h-1.7v-4.7l-.1-.9a.9.9 0 0 0-.5-.4l-.7-.2a1.6 1.6 0 0 0-1.3.7l-.4.7-.1.9Z"/><path fill="#3B911C" d="M91 64.1V87h-3.8V68.6l-5.6 1.9v-3.1l9-3.3h.4Zm7.6 12.3V87h-1.3V76.4h1.3Zm4.5 3.1L99.9 83 98 84.9l-.2-1.4 1.3-1.5 2.3-2.5h1.6Zm-1.2 7.4-2.6-3.5.6-1.1 3.5 4.6H102Zm5.5-3 2-7h1l-.6 2.8-2.1 7.2h-1l.7-3Zm-2-7 1.5 6.9.5 3.1h-1L104 77h1.4Zm7.5 6.9 1.5-6.8h1.3l-2.4 10h-1l.6-3.2Zm-2.4-6.8 1.9 7 .7 3h-1l-2-7.3-.6-2.7h1Z"/><path fill="url(#b)" fill-opacity=".3" d="M144.8 75.2h7v9l-3.5 2.6-3.5-2.7v-8.9Z"/><path fill="#000" fill-opacity=".9" fill-rule="evenodd" d="M148 87.3c.2.2.5.2.7 0l3.2-3.2-.7-.6-1.4 1.4c-.4.4-1 0-1-.5v-3.8h-1v3.8c0 .6-.6.9-1 .5l-1.4-1.4-.6.6 3.2 3.2Z" clip-rule="evenodd"/><path fill="#000" fill-opacity=".9" d="M159.9 81.2v1.2h-3.1v-1.2h3.1Zm5.3-4.3v8.5h-1.5v-6.8l-2 .7V78l3.3-1.2h.2Zm7.4 0h.2V78c-.6 0-1 0-1.4.2-.4.2-.7.4-.9.7l-.5 1-.2 1.1v1.4l.1.9.3.6.5.4.6.1.5-.1c.2 0 .4-.2.5-.4l.3-.5a2.5 2.5 0 0 0 0-1.4l-.3-.6-.4-.3-.6-.2c-.3 0-.6 0-.8.2l-.6.5-.2.7-.5-.2c0-.3 0-.7.2-1l.5-.7.8-.4c.3-.2.6-.2 1-.2.3 0 .7 0 1 .2l.8.7c.2.2.3.5.4.9a3.7 3.7 0 0 1 0 2.2l-.6 1a2 2 0 0 1-.9.5 2 2 0 0 1-1.1.3c-.5 0-.9-.1-1.2-.3l-1-.7-.5-1.1-.2-1.3v-.6c0-.6 0-1.2.2-1.8.2-.6.5-1 .8-1.5.3-.5.8-.8 1.3-1 .6-.3 1.2-.4 2-.4Zm3.9 2.1v-.5c0-.3 0-.6.2-.8l.6-.7 1-.2c.4 0 .7 0 1 .2.3.2.5.4.6.7.2.2.2.5.2.8v.5c0 .3 0 .6-.2.9-.1.2-.3.5-.6.6-.3.2-.6.3-1 .3a2 2 0 0 1-1-.3l-.6-.6-.2-.9Zm1-.5v.9l.4.4.4.1.5-.1.2-.4.1-.4v-.9l-.3-.3a.8.8 0 0 0-.5-.2c-.2 0-.3 0-.4.2-.2 0-.3.2-.3.3l-.1.4Zm3.1 5.3v-.5c0-.3 0-.6.2-.8l.7-.7 1-.2c.3 0 .6 0 1 .2l.5.7c.2.2.2.5.2.8v.5c0 .3 0 .6-.2.9-.1.3-.3.5-.6.6-.2.2-.6.3-1 .3a2 2 0 0 1-1-.3l-.6-.6-.2-.9Zm1-.5v.5l.1.5.3.3.4.1.5-.1.3-.3v-1.4a.8.8 0 0 0-.8-.5c-.2 0-.3 0-.4.2l-.3.3v.4Zm1.2-5.2-4.2 6.7-.7-.4 4.2-6.7.7.4Z"/><g stroke="#000" clip-path="url(#c)"><path stroke-opacity=".1" stroke-width=".6" d="M14.3 129.3h170.8"/><path stroke-opacity=".9" d="M17 138.9h9l12 8.4 10.2-30.4 19.7 22 22.8-22 6.6.7c4.4 8.1 13.3 29.7 13.8 29.7h13.2l11.4-26.6h9.5l8.4-14.4L165 110l18 10.6"/></g><path fill="#000" fill-opacity=".4" fill-rule="evenodd" d="M14.2 94h-.9v3.5h1v-2.8h2.6V94h-2.7Zm0 52v-2.7h-.9v3.7H17v-1h-2.7ZM187 97.6v-3.7h-3.7v1h2.7v2.7h1Zm0 49.4v-3.7h-1v2.7h-2.7v1h3.6Z" clip-rule="evenodd"/><defs><linearGradient id="b" x1="148" x2="148" y1="87.5" y2="75.2" gradientUnits="userSpaceOnUse"><stop offset="0" style="stop-color:#fff;stop-opacity:1"/><stop offset="1" style="stop-color:#fff;stop-opacity:0"/></linearGradient><clipPath id="c"><path fill="#fff" d="M14.3 92h171v60h-171z"/></clipPath><filter id="a" width="193.2" height="153.2" x="3.4" y="3.4" color-interpolation-filters="sRGB" filterUnits="userSpaceOnUse"><feFlood flood-opacity="0" result="BackgroundImageFix"/><feGaussianBlur in="BackgroundImageFix" stdDeviation="1.8"/><feComposite in2="SourceAlpha" operator="in" result="effect1_backgroundBlur_1511_43836"/><feBlend in="SourceGraphic" in2="effect1_backgroundBlur_1511_43836" result="shape"/></filter></defs></svg>