<svg xmlns="http://www.w3.org/2000/svg" width="200" height="160" fill="none"><rect width="200" height="160" fill="#fff" rx="4"/><rect width="199" height="159" x=".5" y=".5" stroke="#000" stroke-opacity=".1" rx="3.5"/><path fill="#3FA71A" d="M33.2 50.5H32l1.3-9h-4.5c-.8 0-.7-.5-.5-1 .2-.4 0 0 0 0l7.6-13.3H37l-1.3 9h4.5c.6 0 .7.5.6.7v.2l-7.7 13.4Z"/><path fill="#000" fill-opacity=".9" d="M60.6 33.5h-2.3v-1.2h2.3c.4 0 .7 0 1-.2.2-.1.4-.3.5-.6l.2-.7c0-.3 0-.6-.2-.8-.1-.3-.3-.5-.5-.6-.3-.2-.6-.3-1-.3h-1.9v7.7h-1.5V28h3.4c.7 0 1.3.1 1.7.4.5.2.9.6 1.1 1 .3.4.4.9.4 1.4 0 .6-.1 1.1-.4 1.5-.2.4-.6.8-1 1-.5.2-1.1.3-1.8.3Zm4.3 0c0-.5 0-1 .2-1.4.1-.4.3-.8.6-1 .3-.4.6-.6 1-.8l1.3-.2c.4 0 .9 0 1.3.2l1 .7.5 1.1c.2.4.3.9.3 1.3v.2c0 .5-.1 1-.3 1.3 0 .4-.3.8-.6 1a2.8 2.8 0 0 1-2.2 1c-.5 0-1 0-1.3-.2l-1-.7c-.3-.3-.5-.7-.6-1l-.2-1.4Zm1.5 0v1l.3.6.5.5.8.2a1.4 1.4 0 0 0 1.2-.7l.3-.7v-1.8c0-.3-.2-.5-.3-.7a1.4 1.4 0 0 0-1.2-.6l-.8.1-.5.5-.2.7-.1.8Zm7.9 1.9 1.5-5.2h1l-.3 1.5-1.5 5.1H74l.2-1.4Zm-1-5.2 1.3 5.2v1.4h-.9L72 30.2h1.5Zm4.9 5.1 1.2-5.1h1.4L79 36.8h-1l.2-1.5Zm-1.3-5.1 1.5 5.1.2 1.5h-.8l-1.6-5-.2-1.6h1Zm8 6.8c-.5 0-1-.1-1.3-.3A3 3 0 0 1 82 35c-.2-.4-.3-.8-.3-1.3v-.2c0-.5.1-1 .3-1.4.1-.4.3-.8.6-1 .3-.4.6-.6 1-.8a3 3 0 0 1 1.1-.2c.5 0 1 0 1.3.2l.9.7.5 1 .2 1.3v.7h-5.1v-1.1H86v-.1L86 32l-.5-.5c-.2-.2-.4-.2-.8-.2l-.6.1-.5.5-.3.7v2l.4.6c.1.2.3.3.6.4l.7.2a2 2 0 0 0 1.7-.8l.8.7a2.8 2.8 0 0 1-1.4 1c-.4.2-.7.3-1.2.3Zm5.5-5.5v5.3H89v-6.6h1.4l.1 1.3Zm2-1.3v1.3a2.9 2.9 0 0 0-1.2 0 1.3 1.3 0 0 0-.8.9l-.1.6h-.4L90 32l.4-1 .6-.6a1.7 1.7 0 0 1 1.2-.2h.2Zm7.2 5.6c.2 0 .5 0 .6-.2.2 0 .4-.2.5-.4l.2-.6h1.4c0 .5-.1.9-.4 1.2-.2.4-.5.6-1 .8a3 3 0 0 1-1.3.4c-.5 0-1-.1-1.3-.3l-1-.7-.5-1-.2-1.4v-.2c0-.4 0-.9.2-1.3.1-.4.3-.7.6-1 .2-.3.5-.6.9-.8a3 3 0 0 1 1.3-.2c.5 0 1 0 1.4.3.4.2.7.5 1 .9.2.3.3.8.3 1.3H101c0-.3 0-.5-.2-.7 0-.2-.2-.3-.4-.5l-.7-.1-.8.1-.4.5-.2.7-.1.8v1l.3.7.4.5.8.2Zm3.8-2.2v-.2c0-.4 0-.9.2-1.3.1-.4.3-.8.6-1 .2-.4.6-.6 1-.8l1.2-.2c.5 0 1 0 1.3.2l1 .7c.3.3.5.7.6 1.1.2.4.2.9.2 1.3v.2c0 .5 0 1-.2 1.3-.1.4-.3.8-.6 1-.3.4-.6.6-1 .8-.3.2-.8.3-1.2.3-.5 0-1-.1-1.4-.3l-1-.7-.5-1c-.2-.5-.2-1-.2-1.4Zm1.4-.2v.2l.1.8c0 .3.2.5.3.7l.5.5.8.2a1.4 1.4 0 0 0 1.2-.7l.3-.7v-1.8l-.3-.7a1.4 1.4 0 0 0-1.3-.6l-.7.1-.5.5-.3.7v.8Zm7.6-1.8v5.2H111v-6.6h1.3l.1 1.4Zm-.2 1.7h-.5c0-.5 0-1 .2-1.3l.5-1a2.4 2.4 0 0 1 2-1l.8.2.7.4.4.8.1 1.1v4.3H115v-4.3c0-.3 0-.5-.2-.7 0-.2-.2-.3-.4-.4l-.6-.1a1.4 1.4 0 0 0-1.2.6l-.3.6-.1.8Zm9.7 1.7-.1-.4a1 1 0 0 0-.5-.3l-.9-.3-1-.2a3 3 0 0 1-.7-.4l-.5-.6-.1-.7.1-.8.5-.6.8-.5 1.1-.1c.6 0 1 0 1.4.3.4.1.7.4 1 .7.2.3.3.7.3 1h-1.5l-.1-.4a1 1 0 0 0-.4-.4l-.7-.1h-.6l-.4.4a.8.8 0 0 0 0 .7c0 .1 0 .2.2.3l.4.2.7.1 1.3.4.8.7c.2.2.3.6.3 1a1.7 1.7 0 0 1-.7 1.4l-.9.4-1 .2c-.7 0-1.2-.2-1.6-.4l-1-.8a2 2 0 0 1-.3-1h1.5c0 .2 0 .4.2.6l.5.4H121.3l.4-.3.2-.5Zm6.9.3v-5.1h1.5v6.6h-1.4l-.1-1.5Zm.2-1.4h.5l-.1 1.2-.5 1c-.2.3-.5.5-.8.6-.3.2-.7.3-1.1.3-.4 0-.6 0-1-.2-.2 0-.4-.2-.6-.4a2 2 0 0 1-.5-.8l-.1-1.1v-4.3h1.5V35.1l.3.4.3.2h.4c.5 0 .8 0 1-.2.3-.2.4-.4.5-.7.2-.2.2-.6.2-1Zm4.5-2.4v5.3H132v-6.6h1.4v1.3Zm-.3 1.8h-.5c0-.5 0-1 .2-1.3l.5-1 .8-.7 1.2-.2.8.1.7.4.4.7.1 1.1v4.4H136v-4.3c0-.3 0-.5-.2-.7 0-.2-.2-.3-.4-.4l-.6-.1-.7.1-.5.5a2 2 0 0 0-.3.6v.8Zm4.1-.4-.6.1.1-1.1.5-1 .8-.6 1.1-.2 1 .1.6.4.5.8.1 1.1v4.3H140v-4.3l-.1-.7-.4-.4-.7-.1-.6.1-.4.3-.3.6v.6Zm7.3-1.4v7.9h-1.5v-9.2h1.4l.1 1.3Zm4.3 2-.1 1.4-.5 1.1-.8.7a2.5 2.5 0 0 1-2.2 0c-.3-.1-.6-.3-.8-.6l-.5-1c-.2-.4-.2-.8-.3-1.3v-.5c0-.5.2-1 .3-1.3l.5-1a2.2 2.2 0 0 1 1.8-1c.5 0 .8.2 1.2.3l.8.7.5 1 .1 1.5Zm-1.4 0-.1-.9c0-.3-.2-.5-.3-.7a1.3 1.3 0 0 0-1.2-.6l-.6.1c-.2 0-.4.2-.5.4l-.3.5-.1.7v1.2c0 .3 0 .5.2.8l.5.6.9.2c.2 0 .4 0 .6-.2l.5-.5.3-.7v-.8Zm6-3.3v1h-3.8v-1h3.7Zm-2.7-1.6h1.4V35l.1.5.3.2h.4a2.3 2.3 0 0 0 .5 0v1.1a3.7 3.7 0 0 1-1 .2l-.9-.2c-.3-.1-.5-.3-.6-.6-.2-.3-.2-.7-.2-1.1v-6.5Zm5.5 1.6v6.6H155v-6.6h1.4Zm-1.5-1.7c0-.3 0-.5.2-.6.1-.2.3-.2.6-.2s.5 0 .6.2c.2.1.3.3.3.6 0 .2-.1.4-.3.5-.1.2-.3.2-.6.2s-.5 0-.6-.2a.7.7 0 0 1-.2-.5Zm3 5c0-.5.1-1 .3-1.4.1-.4.3-.8.6-1 .3-.4.6-.6 1-.8l1.3-.2c.4 0 .9 0 1.3.2l1 .7.5 1.1c.2.4.2.9.2 1.3v.2c0 .5 0 1-.2 1.3-.1.4-.3.8-.6 1a2.8 2.8 0 0 1-2.2 1c-.5 0-1 0-1.3-.2l-1-.7c-.3-.3-.5-.7-.6-1-.2-.5-.2-1-.2-1.4Zm1.6 0v1l.3.6.5.5.8.2a1.4 1.4 0 0 0 1.2-.7l.3-.7v-1.8c0-.3-.2-.5-.3-.7a1.4 1.4 0 0 0-1.2-.6l-.8.1-.5.5-.3.7v.8Zm7.5-1.9v5.2h-1.4v-6.6h1.4v1.4Zm-.2 1.7h-.5c0-.5 0-1 .2-1.3l.5-1a2.4 2.4 0 0 1 2-1l.8.2.7.4.4.8.2 1.1v4.3h-1.5v-4.3c0-.3 0-.5-.2-.7 0-.2-.2-.3-.4-.4l-.6-.1a1.4 1.4 0 0 0-1.2.6l-.3.6-.1.8Z"/><path fill="#000" fill-opacity=".4" d="M61.2 50v.8h-3.4V50h3.4Zm-3-5.9v6.7H57v-6.7H58Zm6.7 5.7V47l-.4-.3a1 1 0 0 0-.4-.1h-.5l-.3.3-.1.4H62l.1-.6.4-.5.7-.3.8-.1c.4 0 .7 0 1 .2.3 0 .5.3.7.5.2.3.2.6.2 1V50.3l.2.5h-1.1l-.1-.4v-.6Zm.2-2v.7h-1.3l-.4.2a.7.7 0 0 0-.3.6v.4l.3.3h.5a1.2 1.2 0 0 0 1-.4l.1-.4.4.5-.2.4-.4.4a1.7 1.7 0 0 1-1.2.4c-.3 0-.6 0-.8-.2-.3-.1-.5-.3-.6-.5-.2-.2-.2-.5-.2-.8l.1-.7.4-.5.8-.3H65Zm5 1.7v-.3l-.3-.3a3 3 0 0 0-.7-.2c-.3 0-.5 0-.7-.2l-.6-.3c-.1 0-.3-.2-.3-.4l-.2-.5c0-.2 0-.4.2-.6 0-.2.2-.3.3-.5l.7-.3.8-.1c.4 0 .7 0 1 .2.3.1.6.3.7.5.2.3.3.5.3.8H70V47l-.4-.3a1 1 0 0 0-.4-.1 1 1 0 0 0-.5 0l-.3.3a.6.6 0 0 0 0 .5l.1.2.3.2.5.1c.4 0 .7.2 1 .3l.7.5.2.7a1.3 1.3 0 0 1-.6 1.1 2 2 0 0 1-.6.3l-.8.1c-.5 0-.9 0-1.2-.2l-.7-.6c-.2-.3-.2-.6-.2-.8h1l.2.5.4.2.5.1h.5l.3-.3v-.3Zm4.6-3.6v.8H72v-.8h2.8Zm-2-1.3h1.1v4.9l.1.3.2.2h.3a1.7 1.7 0 0 0 .4 0v.8a2.8 2.8 0 0 1-.8.1l-.6-.1a1 1 0 0 1-.5-.5l-.2-.8v-4.9Zm8.6 5V46h1.1v5h-1v-1.2Zm.2-1h.3v1l-.4.7-.6.5a2 2 0 0 1-.9.1 2 2 0 0 1-.6 0l-.6-.4-.3-.6-.1-.8v-3.2h1.1v3.6l.2.3.3.2h.3c.3 0 .6 0 .8-.2.1 0 .3-.2.3-.5l.2-.7Zm3.4-1.8v6h-1.1v-7h1v1Zm3.2 1.5v.1l-.1 1-.4.8-.6.5c-.2.2-.5.2-.8.2l-.8-.1-.6-.5-.4-.8-.2-1v-.3l.2-1c0-.3.2-.5.4-.8a1.6 1.6 0 0 1 1.4-.6c.3 0 .6 0 .8.2.2 0 .4.2.6.5l.4.8.1 1Zm-1.1.1v-.7l-.3-.6a1 1 0 0 0-.8-.4h-.5a1 1 0 0 0-.4.3l-.2.4-.1.5v1c0 .2 0 .4.2.5 0 .2.2.4.3.5l.7.1h.5l.3-.4.2-.6.1-.6Zm5.3 1.4v-6h1.1v7h-1l-.1-1ZM89 48.4v-.1c0-.4 0-.7.2-1 0-.3.2-.6.4-.8a1.7 1.7 0 0 1 1.4-.7l.8.1.6.5.4.8.2 1v.3l-.2 1-.4.8a1.6 1.6 0 0 1-1.4.6 1.7 1.7 0 0 1-1.4-.7l-.4-.8-.2-1Zm1.2-.1v.7l.2.6.4.3.5.1.6-.1.4-.5.2-.6V48l-.1-.6-.3-.4a1 1 0 0 0-.3-.2l-.5-.1a1 1 0 0 0-.5 0 1 1 0 0 0-.4.4l-.2.6v.6Zm7.4 1.5v-2.3l-.1-.5-.3-.3a1 1 0 0 0-.5-.1h-.5l-.3.3-.1.4h-1.1l.1-.6.4-.5.7-.3.8-.1c.4 0 .7 0 1 .2.3 0 .5.3.7.5.2.3.3.6.3 1V50.3l.2.5h-1.2l-.1-.4v-.6Zm.1-2v.7h-1.3l-.4.2a.7.7 0 0 0-.3.6v.4l.3.3h.5a1.2 1.2 0 0 0 1-.4l.1-.4.4.5-.2.4-.4.4a1.7 1.7 0 0 1-1.1.4c-.4 0-.7 0-1-.2l-.5-.5c-.2-.2-.2-.5-.2-.8l.1-.7.5-.5.7-.3h1.8Zm4.6-2v.9h-2.8v-.8h2.8Zm-2-1.2h1.1v5.2l.3.2h.3a1.7 1.7 0 0 0 .3 0v.8a2.8 2.8 0 0 1-.7.1l-.7-.1a1 1 0 0 1-.4-.5l-.2-.8v-4.9Zm5.2 6.3c-.3 0-.7 0-1-.2a2.2 2.2 0 0 1-1.2-1.2l-.1-1v-.2l.1-1 .5-.8.7-.6 1-.1.8.1.7.6.4.7.1 1v.5h-3.8v-.8h2.7v-.7a1 1 0 0 0-.4-.4 1 1 0 0 0-.6-.2 1 1 0 0 0-.8.5l-.3.5v1.5l.3.5.4.3.6.1a1.5 1.5 0 0 0 1.3-.6l.6.6-.5.4a2 2 0 0 1-.6.4l-.9.1Zm8.6-6.8v6.7H113v-5.4l-1.6.6v-1l2.6-.9h.1Zm5.6 5.7v-6h1.1v7h-1v-1Zm-3.2-1.4v-.1l.1-1 .4-.8c.2-.3.4-.4.6-.5.3-.2.5-.2.8-.2l.8.1.6.5.4.8.2 1v.3l-.2 1-.4.8a1.6 1.6 0 0 1-1.4.6 1.7 1.7 0 0 1-1.4-.7l-.4-.8-.1-1Zm1-.1v.1l.2.6c0 .2 0 .4.2.6l.3.3.5.1.6-.1.4-.5.2-.6V48l-.1-.6-.2-.4a1 1 0 0 0-.4-.2l-.5-.1a1 1 0 0 0-.5 0 1 1 0 0 0-.3.4l-.2.6-.1.6Zm10 1.5V47l-.4-.3a1 1 0 0 0-.4-.1h-.5l-.3.3-.1.4h-1.1l.1-.6.4-.5.7-.3.8-.1c.4 0 .7 0 1 .2.3 0 .5.3.7.5.2.3.3.6.3 1V50.3l.1.5h-1.1l-.1-.4v-.6Zm.2-2v.7h-1.3l-.4.2a.7.7 0 0 0-.3.6v.4l.3.3h.5a1.2 1.2 0 0 0 1-.4l.1-.4.4.5-.2.4-.4.4a1.7 1.7 0 0 1-1.2.4c-.3 0-.6 0-.8-.2-.3-.1-.5-.3-.6-.5-.2-.2-.2-.5-.2-.8l.1-.7.4-.5.8-.3h1.8Zm5.5-2h1v4.9c0 .4-.1.8-.3 1.1-.2.3-.4.6-.8.7a2.7 2.7 0 0 1-1.8.2c-.2 0-.5-.1-.7-.3-.2 0-.4-.2-.5-.4l.5-.7.6.5a1.6 1.6 0 0 0 1.3 0l.4-.4.2-.7V46Zm-3.4 2.6v-.1l.1-1 .4-.8c.2-.3.4-.4.7-.5.2-.2.5-.2.8-.2l.8.1.6.5.4.8.2 1v.3l-.2 1-.4.8a1.6 1.6 0 0 1-1.4.6 1.8 1.8 0 0 1-1.5-.7l-.4-.8v-1Zm1.1-.1v.7l.3.6.4.3.5.1.6-.1.4-.5.2-.6V48l-.1-.6-.3-.4a1 1 0 0 0-.3-.2l-.5-.1a1 1 0 0 0-.9.4l-.2.6v.6Zm4.4.1v-.1c0-.4 0-.7.2-1 0-.3.2-.6.4-.8l.8-.5c.3-.2.6-.2 1-.2.3 0 .6 0 1 .2.2 0 .4.3.6.5l.5.8.2 1v.1c0 .4 0 .7-.2 1l-.5.8a2.1 2.1 0 0 1-1.7.7c-.3 0-.6 0-1-.2-.2 0-.5-.3-.7-.5l-.4-.8a3 3 0 0 1-.2-1Zm1.1-.1v.1l.1.6.2.6.4.3.6.1a1 1 0 0 0 .9-.4l.2-.6V47.7l-.2-.6a1 1 0 0 0-1-.5 1 1 0 0 0-.5.2 1 1 0 0 0-.4.3l-.2.6v.6Z"/><path fill="#3FA71A" d="M64.1 81v37.2H58V88.3l-9 3.1v-5L63.3 81h.7Zm26.7-1.8v39h-6.1v-39h6.1ZM108 90.7l-12 13.2-6.5 6.8-1.6-5.2 5-6.1 7.7-8.7h7.4Zm-6 27.5-9-13 3.9-4.2 12.1 17.2h-7Zm18.8-8.3 7.4-28.7h3.9l-.5 7.4-7.8 29.6h-4l1-8.3Zm-5.5-28.7 6 28.4.5 8.6h-4.2l-8.6-37h6.3Zm25.1 28.4 6-28.4h6.3l-8.6 37h-4.3l.6-8.6Zm-6.8-28.4 7.3 28.7 1 8.3h-4l-7.7-29.6-.4-7.4h3.8Z"/></svg>