<svg xmlns="http://www.w3.org/2000/svg" width="200" height="160" fill="none"><rect width="200" height="160" fill="#fff" rx="4"/><rect width="199" height="159" x=".5" y=".5" stroke="#000" stroke-opacity=".1" rx="3.5"/><g clip-path="url(#a)"><path fill="url(#b)" d="m71.8 49.3-21.4 56-7.4 17v19.3h143.5v-25.3L186 90l-10.2 40-5.9-25-2.5 7.3-11 27.5C149 110 143 98.8 135 69.4l-8.2 43.9h-10.5l-2-71.3-4.2-28-19.5 70-4.7-2.2-14.1-32.5Z"/><path stroke="url(#c)" stroke-width=".9" d="m43.3 122.4 7.4-17.2 21.4-56 14.1 32.6 4.7 2.1 19.5-70 4.4 35.3 1.7 64h11.1l7-44.7 22 70.9 11-27.6 2.6-7.4L176 130l9.8-39.9"/></g><path fill="#000" fill-opacity=".5" d="M12.2 29.4c.5 0 .8 0 1-.2l.7-.5.3-.6V25.8l-.3-.6a1 1 0 0 0-.3-.3.9.9 0 0 0-.4 0 1 1 0 0 0-.8.3l-.2.4a1.9 1.9 0 0 0 .2 1.5l.3.3.4.1.5-.1a1.3 1.3 0 0 0 .6-.6l.1-.5h.4l-.1.7a2 2 0 0 1-1 1l-.6.1c-.3 0-.5 0-.7-.2-.2 0-.4-.2-.5-.4a2 2 0 0 1-.3-.6 2.6 2.6 0 0 1 0-1.5l.3-.6.6-.4.8-.2.8.2c.2.2.4.3.5.6l.4.7v2l-.2.9-.5.7-.7.5-1.2.2h-.1v-.6Zm4.7-2.8V30h-.7v-4.2h.6v.8Zm-.2 1.1h-.3l.1-.8.3-.6.6-.5.7-.1h.6a1.1 1.1 0 0 1 .7.8V30h-.6v-2.8c0-.2 0-.4-.2-.5l-.3-.3-.4-.1-.6.1-.3.3-.2.5v.5Zm2.8-.4-.5.2.1-.7.3-.6.6-.4.7-.1h.6l.4.4.3.4V30h-.6v-2.8l-.1-.5c-.1-.2-.2-.3-.4-.3a1.2 1.2 0 0 0-.9 0l-.3.2-.2.3v.4Zm4.5-.7V30h-.7v-4.2h.7v.8Zm-.1 1.1h-.4l.1-.8.4-.6.5-.5.8-.1h.5a1.1 1.1 0 0 1 .7.8l.1.7V30H26v-2.8l-.1-.5-.3-.3-.5-.1-.5.1c-.2 0-.3.2-.4.3l-.2.5v.5Zm2.7-.4-.5.2.1-.7.4-.6.5-.4.7-.1h.6l.5.4.2.4.1.7V30h-.7v-2.8l-.1-.5c0-.2-.2-.3-.3-.3a1.2 1.2 0 0 0-1 0l-.2.2-.2.3v.4Zm6.4-3-2.4 6.2H30l2.3-6.2h.7Zm3.3 4.6v-.3l-.3-.3-.7-.2a5 5 0 0 1-.6-.1 2 2 0 0 1-.5-.3 1 1 0 0 1-.4-.8l.1-.4.3-.4.5-.3.7-.1c.3 0 .6 0 .9.2.2 0 .4.3.5.5l.2.6h-.7l-.1-.3-.3-.3a1 1 0 0 0-.5-.1 1 1 0 0 0-.5 0l-.3.3a.6.6 0 0 0 0 .5l.1.2.3.1.5.2.9.2.5.4.1.6a1.1 1.1 0 0 1-.4 1l-.5.2h-.7a2 2 0 0 1-1-.1l-.5-.5c-.2-.2-.2-.5-.2-.7h.7c0 .2 0 .4.2.5l.4.2a1.5 1.5 0 0 0 1 0l.2-.2.1-.3ZM15.1 50v.5l-2.3 5.3H12l2.4-5.1h-3.1V50h3.8Zm1.8 2.4v3.4h-.7v-4.3h.6v.9Zm-.2 1h-.3l.1-.7c0-.3.2-.5.3-.7l.6-.4.7-.2.6.1a1.1 1.1 0 0 1 .7.8v3.5h-.6V53c0-.3 0-.4-.2-.6l-.3-.3h-1l-.3.4-.2.4v.6Zm2.8-.3-.5.1.1-.6c0-.3.2-.4.3-.6l.6-.4.7-.2.6.1.4.3.3.5v3.5h-.6V53l-.1-.6-.4-.3a1.2 1.2 0 0 0-.9 0l-.3.3-.2.3v.4Zm4.5-.7v3.4h-.7v-4.3h.7v.9Zm-.1 1h-.4l.1-.7.4-.7.5-.4.8-.2.5.1a1.1 1.1 0 0 1 .7.8l.1.6v2.9H26V53l-.1-.6-.3-.3h-1l-.4.4-.2.4v.6Zm2.7-.3-.5.1.1-.6.4-.6.5-.4.7-.2.6.1.5.3.2.5.1.7v2.8h-.7V53l-.1-.6-.3-.3a1.2 1.2 0 0 0-1 0l-.2.3-.2.3v.4Zm6.4-3-2.4 6.1H30l2.3-6.1h.7Zm3.3 4.5v-.3l-.3-.2-.7-.2a5 5 0 0 1-.6-.2 2 2 0 0 1-.5-.2 1 1 0 0 1-.4-.8l.1-.5.3-.4.5-.3h.7l.9.1.5.5.2.7h-.7l-.1-.4-.3-.3a1 1 0 0 0-.5 0 1 1 0 0 0-.5 0l-.3.3a.6.6 0 0 0 0 .5l.1.1.3.2.5.1c.4 0 .7.2.9.3l.5.4.1.6a1.1 1.1 0 0 1-.4.9l-.5.2-.7.1a2 2 0 0 1-1-.2l-.5-.5c-.2-.2-.2-.4-.2-.7h.7c0 .2 0 .4.2.5l.4.3a1.5 1.5 0 0 0 1 0l.2-.3.1-.3ZM12.4 78.8l-.6-.2.3-2.8h3v.7h-2.4l-.2 1.5.4-.1.6-.1.7.1.5.4.4.6v1.5c-.1.3-.2.5-.4.6l-.5.4a2.2 2.2 0 0 1-1.4 0c-.3 0-.5 0-.6-.2l-.4-.5a2 2 0 0 1-.2-.7h.7c0 .2 0 .4.2.5 0 .2.2.3.3.4h1c.2 0 .3-.2.4-.3l.2-.4a1.8 1.8 0 0 0 0-1l-.2-.4a1 1 0 0 0-.4-.3h-1c-.2 0-.3.2-.4.3Zm4.5-.7v3.4h-.7v-4.2h.6v.8Zm-.2 1.1h-.3l.1-.8.3-.6.6-.5.7-.1h.6a1.1 1.1 0 0 1 .7.8v3.5h-.6v-2.8c0-.2 0-.4-.2-.5l-.3-.3-.4-.1-.6.1-.3.3-.2.5v.5Zm2.8-.4-.5.2.1-.7.3-.6.6-.4.7-.1h.6l.4.4.3.4v3.5h-.6v-2.8l-.1-.5c-.1-.2-.2-.3-.4-.3a1.2 1.2 0 0 0-.9 0l-.3.2-.2.3v.4Zm4.5-.7v3.4h-.7v-4.2h.7v.8Zm-.1 1.1h-.4l.1-.8.4-.6.5-.5.8-.1h.5a1.1 1.1 0 0 1 .7.8l.1.7v2.8H26v-2.8l-.1-.5-.3-.3-.5-.1-.5.1c-.2 0-.3.2-.4.3l-.2.5v.5Zm2.7-.4-.5.2.1-.7.4-.6.5-.4.7-.1h.6l.5.4.2.4.1.7v2.8h-.7v-2.8l-.1-.5c0-.2-.2-.3-.3-.3a1.2 1.2 0 0 0-1 0l-.2.2-.2.3v.4Zm6.4-3L30.6 82H30l2.3-6.2h.7Zm3.3 4.6V80l-.3-.3-.7-.2a5 5 0 0 1-.6-.1 2 2 0 0 1-.5-.3 1 1 0 0 1-.4-.8l.1-.4.3-.4.5-.3.7-.1c.3 0 .6 0 .9.2.2 0 .4.3.5.5l.2.6h-.7l-.1-.3-.3-.3a1 1 0 0 0-.5-.1 1 1 0 0 0-.5 0l-.3.3a.6.6 0 0 0 0 .5l.1.2.3.1.5.2.9.2.5.4.1.6a1.1 1.1 0 0 1-.4 1l-.5.2h-.7a2 2 0 0 1-1-.1l-.5-.5c-.2-.2-.2-.5-.2-.7h.7c0 .2 0 .4.2.5l.4.2a1.5 1.5 0 0 0 1 0l.2-.2.1-.3ZM12.5 104h1.2l.3-.4.2-.5-.1-.6-.4-.3-.5-.1-.6.1a.9.9 0 0 0-.5.9h-.7c0-.3 0-.6.2-.8.2-.3.4-.5.7-.6a2 2 0 0 1 .9-.2c.3 0 .6 0 .9.2.2 0 .4.3.6.5l.2.9-.1.5-.3.4-.6.4h-1.4v-.3Zm0 .6v-.4h.6l1 .1.5.4.3.5v1.2l-.4.5-.6.3-.7.1h-.7l-.6-.4a1.4 1.4 0 0 1-.5-1.2h.7l.1.6.4.3.6.1h.5l.4-.4.2-.6-.2-.6a.9.9 0 0 0-.4-.3l-.7-.2h-.5Zm4.4-.7v3.3h-.7V103h.6v.9Zm-.2 1h-.3l.1-.7c0-.3.2-.5.3-.7l.6-.4.7-.2.6.1a1.1 1.1 0 0 1 .7.8v3.4h-.6v-2.7c0-.3 0-.4-.2-.6l-.3-.3h-1l-.3.4-.2.4v.6Zm2.8-.3-.5.1.1-.6c0-.3.2-.4.3-.6l.6-.4.7-.2.6.1a1.1 1.1 0 0 1 .7.8v3.5h-.6v-2.8l-.1-.6-.4-.3a1.2 1.2 0 0 0-.9 0l-.3.3-.2.3v.4Zm4.5-.7v3.3h-.7V103h.7v.9Zm-.1 1h-.4l.1-.7.4-.7.5-.4.8-.2.5.1a1.1 1.1 0 0 1 .7.8l.1.6v2.8H26v-2.7l-.1-.6-.3-.3h-1l-.4.4-.2.4v.6Zm2.7-.3-.5.1.1-.6.4-.6.5-.4.7-.2.6.1a1.1 1.1 0 0 1 .7.8l.1.7v2.8h-.7v-2.8l-.1-.6-.3-.3a1.2 1.2 0 0 0-1 0l-.2.3-.2.3v.4Zm6.4-3-2.4 6.1H30l2.3-6.1h.7Zm3.3 4.5v-.3l-.3-.2-.7-.2a5 5 0 0 1-.6-.2 2 2 0 0 1-.5-.2 1 1 0 0 1-.4-.8l.1-.5.3-.4.5-.3h.7l.9.1.5.5.2.7h-.7l-.1-.4-.3-.3a1 1 0 0 0-.5 0 1 1 0 0 0-.5 0l-.3.3a.6.6 0 0 0 0 .5l.1.1.3.2.5.1c.4 0 .7.2.9.3l.5.4.1.6a1.1 1.1 0 0 1-.4.9l-.5.2-.7.1a2 2 0 0 1-1-.2l-.5-.5c-.2-.2-.2-.4-.2-.7h.7c0 .2 0 .4.2.5l.4.3a1.5 1.5 0 0 0 1 0l.2-.3.1-.3ZM13.8 127.3v5.7h-.7v-4.8l-1.4.5v-.6l2-.8h.1Zm3 2.3v3.4h-.6v-4.2h.6v.8Zm0 1.1h-.4l.1-.8.3-.6.6-.5.7-.1h.6a1.1 1.1 0 0 1 .7.8v3.5h-.6v-2.8c0-.2 0-.4-.2-.5l-.3-.3h-1l-.3.3-.2.5v.5Zm2.7-.4-.5.2.1-.7.3-.6.6-.4.7-.1h.6a1.1 1.1 0 0 1 .7.8v3.5h-.6v-2.8l-.1-.5c-.1-.2-.2-.3-.4-.3a1.2 1.2 0 0 0-.9 0l-.3.2-.2.3v.4Zm4.5-.7v3.4h-.7v-4.2h.7v.8Zm-.1 1.1h-.4l.1-.8.4-.6.5-.5.8-.1h.5a1.1 1.1 0 0 1 .7.8l.1.7v2.8H26v-2.8l-.1-.5-.3-.3h-1c-.2 0-.3.2-.4.3l-.2.5v.5Zm2.7-.4-.5.2.1-.7.4-.6.5-.4.7-.1h.6a1.1 1.1 0 0 1 .7.8l.1.7v2.8h-.7v-2.8l-.1-.5c0-.2-.2-.3-.3-.3a1.2 1.2 0 0 0-1 0l-.2.2-.2.3v.4Zm6.4-3-2.4 6.2H30l2.3-6.2h.7Zm3.3 4.6v-.3l-.3-.3-.7-.2a5 5 0 0 1-.6-.1 2 2 0 0 1-.5-.3 1 1 0 0 1-.4-.8l.1-.4.3-.4.5-.3.7-.1c.3 0 .6 0 .9.2.2 0 .4.3.5.5l.2.6h-.7l-.1-.3-.3-.3a1 1 0 0 0-.5-.1 1 1 0 0 0-.5 0l-.3.3a.6.6 0 0 0 0 .5l.1.2.3.1.5.2.9.2.5.4.1.6a1.1 1.1 0 0 1-.4 1l-.5.2h-.7a2 2 0 0 1-1-.1l-.5-.5c-.2-.2-.2-.5-.2-.7h.7c0 .2 0 .4.2.5l.4.2a1.5 1.5 0 0 0 1 0l.2-.2.1-.3Z"/><path stroke="#000" stroke-opacity=".5" stroke-width=".4" d="M42 26h144M42 52.3h144M42 78.5h144M42 104.8h144M42 131h144"/><path stroke="#000" stroke-linecap="square" stroke-opacity=".5" stroke-width=".3" d="M56.3 143v-.8"/><path fill="#000" fill-opacity=".5" d="M46.6 143.2v5.7h-.7v-4.8l-1.5.5v-.6l2-.8h.2Zm4.6 0v5.7h-.8v-4.8l-1.4.5v-.6l2-.8h.2Zm8.8 0v5.7h-.8l-2.9-4.4v4.4h-.7v-5.7h.7l3 4.4v-4.4h.7Zm1 3.6.2-.9c0-.3.2-.5.4-.7.1-.2.4-.3.6-.4l.8-.2c.3 0 .5 0 .8.2.2 0 .4.2.6.4l.4.7.1.8v.1l-.1.9-.4.7a1.8 1.8 0 0 1-1.4.6 1.8 1.8 0 0 1-1.8-1.3l-.1-.9Zm.8 0v.6l.3.5c0 .2.2.3.4.4h1l.4-.4.2-.5v-1.2l-.2-.5a1 1 0 0 0-.9-.5 1 1 0 0 0-.5.1l-.4.4-.2.5-.1.5Zm5.3 1.5 1.2-3.6h.7l-1.5 4.2H67l.1-.6Zm-1-3.6 1.2 3.6.1.6H67l-1.5-4.2h.7Z"/><g clip-path="url(#d)"><path stroke="#000" stroke-linecap="square" stroke-opacity=".5" stroke-width=".3" d="M85.3 141.4v-.8"/><path fill="#000" fill-opacity=".5" d="M75.6 143.6v5.7h-.7v-4.8l-1.5.5v-.6l2-.8h.2Zm6 5.1v.6h-3.8v-.5l1.9-2 .5-.7.2-.5.1-.4v-.6l-.4-.3a1 1 0 0 0-.6-.2c-.2 0-.4 0-.6.2a1 1 0 0 0-.4.4l-.1.6h-.7c0-.3 0-.6.2-.9.1-.3.3-.5.6-.6a2 2 0 0 1 1-.3l1 .2c.2.2.4.3.5.6.2.2.2.5.2.8v.5l-.3.5a7.8 7.8 0 0 1-.8 1l-1.4 1.6h2.8Zm7.4-5v5.6h-.8l-2.9-4.4v4.4h-.7v-5.7h.7l3 4.4v-4.4h.7Zm1 3.5.2-.9c0-.3.2-.5.4-.7.1-.2.4-.3.6-.4l.8-.2c.3 0 .5 0 .8.2.2 0 .4.2.6.4l.4.7.1.9-.1.9-.4.7a1.8 1.8 0 0 1-1.4.6 1.8 1.8 0 0 1-1.8-1.3l-.1-.9Zm.8 0v.6l.3.5c0 .2.2.3.4.4h1l.4-.4.2-.5v-1.2l-.2-.5a1 1 0 0 0-.9-.5 1 1 0 0 0-1 .5l-.1.5-.1.6Zm5.3 1.5 1.2-3.6h.7l-1.5 4.2H96l.1-.6Zm-1-3.6 1.2 3.6.1.6H96l-1.5-4.2h.7Z"/></g><g clip-path="url(#e)"><path stroke="#000" stroke-linecap="square" stroke-opacity=".5" stroke-width=".3" d="M114.3 141.4v-.8"/><path fill="#000" fill-opacity=".5" d="M104.6 143.6v5.7h-.7v-4.8l-1.5.5v-.6l2-.8h.2Zm3.2 2.5h.6l.6-.1.4-.4v-1c-.1-.2-.2-.3-.4-.3l-.5-.2c-.2 0-.4 0-.6.2a.9.9 0 0 0-.4.8h-.8a1.5 1.5 0 0 1 .9-1.3 2 2 0 0 1 .9-.3l.9.2.6.6.2.9-.1.4c0 .2-.2.3-.3.5l-.5.3-.8.1h-.7v-.4Zm0 .6v-.4h.7l.9.1c.2 0 .4.2.5.3l.3.5v1.2l-.4.6-.6.3h-1.4l-.6-.3a1.4 1.4 0 0 1-.5-1.2h.7l.1.5.4.4h1.2l.3-.4.2-.6c0-.2 0-.4-.2-.5a.9.9 0 0 0-.4-.4l-.6-.1h-.6Zm10.2-3v5.6h-.8l-2.9-4.4v4.4h-.7v-5.7h.7l3 4.4v-4.4h.7Zm1 3.5.2-.9c0-.3.2-.5.4-.7.1-.2.4-.3.6-.4l.8-.2c.3 0 .5 0 .8.2.2 0 .4.2.6.4l.4.7.1.9-.1.9-.4.7a1.8 1.8 0 0 1-1.4.6 1.8 1.8 0 0 1-1.8-1.3l-.1-.9Zm.8 0v.6l.3.5c0 .2.2.3.4.4h1l.4-.4.2-.5v-1.2l-.2-.5a1 1 0 0 0-.9-.5 1 1 0 0 0-1 .5l-.1.5-.1.6Zm5.3 1.5 1.2-3.6h.7l-1.5 4.2h-.5l.1-.6Zm-1-3.6 1.2 3.6.1.6h-.5l-1.5-4.2h.7Z"/></g><g clip-path="url(#f)"><path stroke="#000" stroke-linecap="square" stroke-opacity=".5" stroke-width=".3" d="M143.3 141.4v-.8"/><path fill="#000" fill-opacity=".5" d="M133.6 143.6v5.7h-.7v-4.8l-1.5.5v-.6l2-.8h.2Zm6 3.8v.6h-4v-.4l2.5-4h.6l-.7 1.2-1.7 2.6h3.3Zm-.8-3.8v5.7h-.7v-5.7h.7Zm8.2 0v5.7h-.8l-2.9-4.4v4.4h-.7v-5.7h.7l3 4.4v-4.4h.7Zm1 3.6.2-.9c0-.3.2-.5.4-.7.1-.2.4-.3.6-.4l.8-.2c.3 0 .5 0 .8.2.2 0 .4.2.6.4l.4.7.1.9-.1.9-.4.7a1.8 1.8 0 0 1-1.4.6 1.8 1.8 0 0 1-1.8-1.3l-.1-.9Zm.8 0v.6l.3.5c0 .2.2.3.4.4h1l.4-.4.2-.5v-1.2l-.2-.5a1 1 0 0 0-.9-.5 1 1 0 0 0-1 .5l-.1.5-.1.6Zm5.3 1.5 1.2-3.6h.7l-1.5 4.2h-.5l.1-.6Zm-1-3.6 1.2 3.6.1.6h-.5l-1.5-4.2h.7Z"/></g><g clip-path="url(#g)"><path stroke="#000" stroke-linecap="square" stroke-opacity=".5" stroke-width=".3" d="M171.8 141.4v-.8"/><path fill="#000" fill-opacity=".5" d="M162 143.6v5.7h-.6v-4.8l-1.5.5v-.6l2-.8h.2Zm3.2 3-.6-.1.3-2.9h3v.7h-2.4l-.2 1.5.4-.1.6-.1.7.1.5.4.4.6v1.6c0 .2-.2.4-.4.6-.1.1-.3.3-.5.3a2 2 0 0 1-.8.2l-.7-.1c-.2 0-.3-.2-.5-.3l-.4-.5a2 2 0 0 1-.2-.7h.7c0 .2 0 .4.2.6l.4.3h.9c.2 0 .3-.1.4-.3l.2-.4a1.8 1.8 0 0 0 0-1l-.2-.4a1 1 0 0 0-.4-.3h-1l-.4.3Zm10.3-3v5.7h-.8l-2.9-4.4v4.4h-.7v-5.7h.7l3 4.4v-4.4h.7Zm1 3.6.2-.9c0-.3.2-.5.4-.7.1-.2.4-.3.6-.4l.8-.2c.3 0 .5 0 .8.2.2 0 .4.2.6.4l.4.7.1.9-.1.9-.4.7a1.8 1.8 0 0 1-1.4.6 1.8 1.8 0 0 1-1.8-1.3l-.1-.9Zm.8 0v.6l.3.5c0 .2.2.3.4.4h1l.4-.4.2-.5v-1.2l-.2-.5a1 1 0 0 0-.9-.5 1 1 0 0 0-1 .5l-.1.5-.1.6Zm5.3 1.5 1.2-3.6h.7l-1.5 4.2h-.5l.1-.6Zm-1-3.6 1.2 3.6.1.6h-.5l-1.5-4.2h.7Z"/></g><defs><clipPath id="a"><path fill="#fff" d="M43 5h143v137H43z"/></clipPath><clipPath id="d"><path fill="#fff" d="M71 140.5h29v10H71z"/></clipPath><clipPath id="e"><path fill="#fff" d="M100 140.5h29v10h-29z"/></clipPath><clipPath id="f"><path fill="#fff" d="M129 140.5h29v10h-29z"/></clipPath><clipPath id="g"><path fill="#fff" d="M158 140.5h28v10h-28z"/></clipPath><linearGradient id="b" x1="111.3" x2="111.3" y1="156.3" y2="-19.5" gradientUnits="userSpaceOnUse"><stop offset=".3" stop-color="#6FCC4C"/><stop offset=".3" stop-color="#FEBA3D"/><stop offset=".4" stop-color="#FEBA3D"/><stop offset=".4" stop-color="#FD8F3C"/><stop offset=".6" stop-color="#FD8F3C"/><stop offset=".6" stop-color="#F46047"/></linearGradient><linearGradient id="c" x1="110.2" x2="110.2" y1="139" y2="-19.5" gradientUnits="userSpaceOnUse"><stop offset=".2" stop-color="#3FA71A"/><stop offset=".2" stop-color="#FFA600"/><stop offset=".4" stop-color="#FFA600"/><stop offset=".4" stop-color="#F36900"/><stop offset=".5" stop-color="#F36900"/><stop offset=".6" stop-color="#F04022"/></linearGradient></defs></svg>