<svg xmlns="http://www.w3.org/2000/svg" width="200" height="160" fill="none"><rect width="200" height="160" fill="#fff" rx="4"/><rect width="199" height="159" x=".5" y=".5" stroke="#000" stroke-opacity=".1" rx="3.5"/><path fill="#FFA600" d="M41 45.3c-1.8 0-2.9.5-3.9 1-.8.4-1.5.8-2.6.8a5 5 0 0 1-2.6-.8c-1-.5-2-1-3.9-1-1.7 0-2.8.5-3.8 1-.8.4-1.5.8-2.6.8v2.5c1.7 0 2.8-.5 3.8-1 .8-.5 1.5-.8 2.6-.8a5 5 0 0 1 2.7.8c1 .5 2 1 3.8 1 1.8 0 2.8-.5 3.8-1a5 5 0 0 1 5.3 0c1 .5 2 1 3.8 1v-2.5a5 5 0 0 1-2.6-.8c-1-.5-2.1-1-3.8-1Zm0-5.8c-1.8 0-2.9.6-3.9 1-.8.5-1.5.8-2.6.8a5 5 0 0 1-2.6-.7c-1-.5-2-1-3.9-1-1.7 0-2.8.5-3.8 1-.8.4-1.5.7-2.6.7V44c1.7 0 2.8-.6 3.8-1a5 5 0 0 1 5.3 0c1 .4 2 1 3.8 1 1.8 0 2.8-.6 3.8-1a5 5 0 0 1 5.3 0c1 .4 2 1 3.8 1v-2.6a5 5 0 0 1-2.6-.7c-1-.5-2.1-1-3.8-1Zm3.8-10.4a7.6 7.6 0 0 0-7.7 0c-.8.4-1.5.8-2.6.8a5 5 0 0 1-2.6-.8c-1-.5-2-1-3.9-1-1.7 0-2.8.5-3.8 1-.8.4-1.5.8-2.6.8v2.5c1.7 0 2.8-.6 3.8-1 .8-.5 1.5-.8 2.6-.8a5 5 0 0 1 2.7.7c1 .5 2 1 3.8 1 1.8 0 2.8-.5 3.8-1 .8-.4 1.5-.7 2.7-.7a5 5 0 0 1 2.6.7c1 .5 2 1 3.8 1v-2.5c-1.1 0-1.8-.3-2.6-.7ZM41 33.8c-1.8 0-2.9.5-3.9 1a5 5 0 0 1-5.2 0c-1-.5-2-1-3.9-1-1.7 0-2.8.5-3.8 1a5 5 0 0 1-2.6.8V38c1.7 0 2.8-.5 3.8-1 .8-.4 1.5-.8 2.6-.8a5 5 0 0 1 2.7.8c1 .5 2 1 3.8 1 1.8 0 2.8-.5 3.8-1 .8-.4 1.5-.8 2.7-.8a5 5 0 0 1 2.6.8c1 .5 2 1 3.8 1v-2.5a5 5 0 0 1-2.6-.8c-1-.5-2.1-1-3.8-1Z"/><path fill="#000" fill-opacity=".9" d="m60.2 35.2 2.4-7.3h1.7L61 37h-1.2l.3-1.7Zm-2.1-7.3 2.3 7.3.3 1.6h-1.1L56.4 28H58Zm8.8 2.3v6.6h-1.5v-6.6H67Zm-1.6-1.7c0-.3.1-.5.3-.6.1-.2.3-.2.6-.2.2 0 .5 0 .6.2.2.1.2.3.2.6 0 .2 0 .4-.2.5-.1.2-.4.2-.6.2-.3 0-.5 0-.6-.2a.7.7 0 0 1-.3-.5Zm3.4-1h1.5v8l-.1 1.3h-1.4v-9.4Zm5.8 6-.1 1.4-.5 1.1-.8.7c-.3.2-.7.3-1.1.3-.4 0-.8-.1-1.1-.3l-.8-.6-.5-1-.2-1.4v-.4l.2-1.3.5-1a2.1 2.1 0 0 1 1.9-1c.4 0 .8.2 1 .3.4.2.7.4.9.7l.5 1 .1 1.5Zm-1.4 0-.1-.9-.2-.7-.5-.5-.7-.1-.7.1c-.2 0-.3.2-.5.4l-.3.5-.1.7v1l.2 1c.2.2.3.4.6.5.2.2.5.3.8.3.3 0 .5 0 .7-.2l.4-.5c.2-.2.2-.4.3-.7v-.8Zm4.4-2v5.3H76v-6.6h1.4v1.3Zm2-1.3v1.3a2.9 2.9 0 0 0-1.3 0 1.3 1.3 0 0 0-.8.9v.6H77L77 32c0-.4.2-.7.4-1l.6-.6a1.7 1.7 0 0 1 1.2-.2h.2Zm4.6 5.3V31.7l-.5-.4-.6-.1-.6.1a1 1 0 0 0-.5.3l-.1.5h-1.5c0-.2 0-.5.2-.7.1-.3.3-.5.6-.7l.8-.5 1.2-.1c.5 0 .9 0 1.3.2s.7.4.9.8c.2.3.3.7.3 1.3V36l.3.6v.1h-1.5l-.2-.6v-.7Zm.3-2.7v1h-1a3 3 0 0 0-.8 0l-.5.2a1 1 0 0 0-.4.8v.5l.4.4h.6a1.6 1.6 0 0 0 1.3-.6c.2-.1.2-.3.2-.5l.5.7-.2.5-.5.6a2.3 2.3 0 0 1-1.6.6c-.4 0-.8-.1-1.1-.3a2 2 0 0 1-.8-.7c-.2-.3-.3-.6-.3-1s0-.7.2-1c.1-.2.3-.5.6-.6.2-.2.5-.4 1-.5l1.2-.1h1.2Zm6-2.6v1h-3.7v-1h3.7Zm-2.6-1.6h1.4V35l.1.5.3.2h.3a2.3 2.3 0 0 0 .6 0v1.1a3.8 3.8 0 0 1-1 .2l-1-.2c-.2-.1-.4-.3-.5-.6-.2-.3-.2-.7-.2-1.1v-6.5Zm5.5 1.6v6.6h-1.5v-6.6h1.5Zm-1.6-1.7c0-.3.1-.5.3-.6.1-.2.3-.2.6-.2s.5 0 .6.2c.2.1.2.3.2.6 0 .2 0 .4-.2.5-.1.2-.3.2-.6.2s-.5 0-.6-.2a.7.7 0 0 1-.3-.5Zm3.2 5c0-.5 0-1 .2-1.4.1-.4.3-.8.6-1 .2-.4.6-.6 1-.8l1.2-.2c.5 0 1 0 1.3.2.4.2.8.4 1 .7.3.3.5.7.6 1.1.2.4.2.9.2 1.3v.2c0 .5 0 1-.2 1.3-.1.4-.3.8-.6 1a2.8 2.8 0 0 1-2.2 1c-.5 0-1 0-1.4-.2l-1-.7-.5-1c-.2-.5-.2-1-.2-1.4Zm1.4 0 .1 1 .3.6.5.5.8.2a1.4 1.4 0 0 0 1.2-.7l.3-.7v-1.8l-.3-.7a1.4 1.4 0 0 0-1.3-.6l-.7.1-.5.5-.3.7v.8Zm7.6-1.9v5.2h-1.4v-6.6h1.3l.1 1.4Zm-.2 1.7h-.5c0-.5 0-1 .2-1.3l.5-1a2.4 2.4 0 0 1 2-1l.8.2.7.4.4.8.1 1.1v4.3h-1.4v-4.3c0-.3 0-.5-.2-.7 0-.2-.2-.3-.4-.4l-.6-.1a1.4 1.4 0 0 0-1.2.6l-.3.6-.1.8Z"/><path fill="#000" fill-opacity=".4" d="M61.2 50v.8h-3.4V50h3.4Zm-3-5.9v6.7H57v-6.7H58Zm6.7 5.7V47l-.4-.3a1 1 0 0 0-.4-.1h-.5l-.3.3-.1.4H62l.1-.6.4-.5.7-.3.8-.1c.4 0 .7 0 1 .2.3 0 .5.3.7.5.2.3.2.6.2 1V50.3l.2.5h-1.1l-.1-.4v-.6Zm.2-2v.7h-1.3l-.4.2a.7.7 0 0 0-.3.6v.4l.3.3h.5a1.2 1.2 0 0 0 1-.4l.1-.4.4.5-.2.4-.4.4a1.7 1.7 0 0 1-1.2.4c-.3 0-.6 0-.8-.2-.3-.1-.5-.3-.6-.5-.2-.2-.2-.5-.2-.8l.1-.7.4-.5.8-.3H65Zm5 1.7v-.3l-.3-.3a3 3 0 0 0-.7-.2c-.3 0-.5 0-.7-.2l-.6-.3c-.1 0-.3-.2-.3-.4l-.2-.5c0-.2 0-.4.2-.6 0-.2.2-.3.3-.5l.7-.3.8-.1c.4 0 .7 0 1 .2.3.1.6.3.7.5.2.3.3.5.3.8H70V47l-.4-.3a1 1 0 0 0-.4-.1 1 1 0 0 0-.5 0l-.3.3a.6.6 0 0 0 0 .5l.1.2.3.2.5.1c.4 0 .7.2 1 .3l.7.5.2.7a1.3 1.3 0 0 1-.6 1.1 2 2 0 0 1-.6.3l-.8.1c-.5 0-.9 0-1.2-.2l-.7-.6c-.2-.3-.2-.6-.2-.8h1l.2.5.4.2.5.1h.5l.3-.3v-.3Zm4.6-3.6v.8H72v-.8h2.8Zm-2-1.3h1.1v4.9l.1.3.2.2h.3a1.7 1.7 0 0 0 .4 0v.8a2.8 2.8 0 0 1-.8.1l-.6-.1a1 1 0 0 1-.5-.5l-.2-.8v-4.9Zm8.6 5V46h1.1v5h-1v-1.2Zm.2-1h.3v1l-.4.7-.6.5a2 2 0 0 1-.9.1 2 2 0 0 1-.6 0l-.6-.4-.3-.6-.1-.8v-3.2h1.1v3.6l.2.3.3.2h.3c.3 0 .6 0 .8-.2.1 0 .3-.2.3-.5l.2-.7Zm3.4-1.8v6h-1.1v-7h1v1Zm3.2 1.5v.1l-.1 1-.4.8-.6.5c-.2.2-.5.2-.8.2l-.8-.1-.6-.5-.4-.8-.2-1v-.3l.2-1c0-.3.2-.5.4-.8a1.6 1.6 0 0 1 1.4-.6c.3 0 .6 0 .8.2.2 0 .4.2.6.5l.4.8.1 1Zm-1.1.1v-.7l-.3-.6a1 1 0 0 0-.8-.4h-.5a1 1 0 0 0-.4.3l-.2.4-.1.5v1c0 .2 0 .4.2.5 0 .2.2.4.3.5l.7.1h.5l.3-.4.2-.6.1-.6Zm5.3 1.4v-6h1.1v7h-1l-.1-1ZM89 48.4v-.1c0-.4 0-.7.2-1 0-.3.2-.6.4-.8a1.7 1.7 0 0 1 1.4-.7l.8.1.6.5.4.8.2 1v.3l-.2 1-.4.8a1.6 1.6 0 0 1-1.4.6 1.7 1.7 0 0 1-1.4-.7l-.4-.8-.2-1Zm1.2-.1v.7l.2.6.4.3.5.1.6-.1.4-.5.2-.6V48l-.1-.6-.3-.4a1 1 0 0 0-.3-.2l-.5-.1a1 1 0 0 0-.5 0 1 1 0 0 0-.4.4l-.2.6v.6Zm7.4 1.5v-2.3l-.1-.5-.3-.3a1 1 0 0 0-.5-.1h-.5l-.3.3-.1.4h-1.1l.1-.6.4-.5.7-.3.8-.1c.4 0 .7 0 1 .2.3 0 .5.3.7.5.2.3.3.6.3 1V50.3l.2.5h-1.2l-.1-.4v-.6Zm.1-2v.7h-1.3l-.4.2a.7.7 0 0 0-.3.6v.4l.3.3h.5a1.2 1.2 0 0 0 1-.4l.1-.4.4.5-.2.4-.4.4a1.7 1.7 0 0 1-1.1.4c-.4 0-.7 0-1-.2l-.5-.5c-.2-.2-.2-.5-.2-.8l.1-.7.5-.5.7-.3h1.8Zm4.6-2v.9h-2.8v-.8h2.8Zm-2-1.2h1.1v5.2l.3.2h.3a1.7 1.7 0 0 0 .3 0v.8a2.8 2.8 0 0 1-.7.1l-.7-.1a1 1 0 0 1-.4-.5l-.2-.8v-4.9Zm5.2 6.3c-.3 0-.7 0-1-.2a2.2 2.2 0 0 1-1.2-1.2l-.1-1v-.2l.1-1 .5-.8.7-.6 1-.1.8.1.7.6.4.7.1 1v.5h-3.8v-.8h2.7v-.7a1 1 0 0 0-.4-.4 1 1 0 0 0-.6-.2 1 1 0 0 0-.8.5l-.3.5v1.5l.3.5.4.3.6.1a1.5 1.5 0 0 0 1.3-.6l.6.6-.5.4a2 2 0 0 1-.6.4l-.9.1Zm8.6-6.8v6.7H113v-5.4l-1.6.6v-1l2.6-.9h.1Zm5.6 5.7v-6h1.1v7h-1v-1Zm-3.2-1.4v-.1l.1-1 .4-.8c.2-.3.4-.4.6-.5.3-.2.5-.2.8-.2l.8.1.6.5.4.8.2 1v.3l-.2 1-.4.8a1.6 1.6 0 0 1-1.4.6 1.7 1.7 0 0 1-1.4-.7l-.4-.8-.1-1Zm1-.1v.1l.2.6c0 .2 0 .4.2.6l.3.3.5.1.6-.1.4-.5.2-.6V48l-.1-.6-.2-.4a1 1 0 0 0-.4-.2l-.5-.1a1 1 0 0 0-.5 0 1 1 0 0 0-.3.4l-.2.6-.1.6Zm10 1.5V47l-.4-.3a1 1 0 0 0-.4-.1h-.5l-.3.3-.1.4h-1.1l.1-.6.4-.5.7-.3.8-.1c.4 0 .7 0 1 .2.3 0 .5.3.7.5.2.3.3.6.3 1V50.3l.1.5h-1.1l-.1-.4v-.6Zm.2-2v.7h-1.3l-.4.2a.7.7 0 0 0-.3.6v.4l.3.3h.5a1.2 1.2 0 0 0 1-.4l.1-.4.4.5-.2.4-.4.4a1.7 1.7 0 0 1-1.2.4c-.3 0-.6 0-.8-.2-.3-.1-.5-.3-.6-.5-.2-.2-.2-.5-.2-.8l.1-.7.4-.5.8-.3h1.8Zm5.5-2h1v4.9c0 .4-.1.8-.3 1.1-.2.3-.4.6-.8.7a2.7 2.7 0 0 1-1.8.2c-.2 0-.5-.1-.7-.3-.2 0-.4-.2-.5-.4l.5-.7.6.5a1.6 1.6 0 0 0 1.3 0l.4-.4.2-.7V46Zm-3.4 2.6v-.1l.1-1 .4-.8c.2-.3.4-.4.7-.5.2-.2.5-.2.8-.2l.8.1.6.5.4.8.2 1v.3l-.2 1-.4.8a1.6 1.6 0 0 1-1.4.6 1.8 1.8 0 0 1-1.5-.7l-.4-.8v-1Zm1.1-.1v.7l.3.6.4.3.5.1.6-.1.4-.5.2-.6V48l-.1-.6-.3-.4a1 1 0 0 0-.3-.2l-.5-.1a1 1 0 0 0-.9.4l-.2.6v.6Zm4.4.1v-.1c0-.4 0-.7.2-1 0-.3.2-.6.4-.8l.8-.5c.3-.2.6-.2 1-.2.3 0 .6 0 1 .2.2 0 .4.3.6.5l.5.8.2 1v.1c0 .4 0 .7-.2 1l-.5.8a2.1 2.1 0 0 1-1.7.7c-.3 0-.6 0-1-.2-.2 0-.5-.3-.7-.5l-.4-.8a3 3 0 0 1-.2-1Zm1.1-.1v.1l.1.6.2.6.4.3.6.1a1 1 0 0 0 .9-.4l.2-.6V47.7l-.2-.6a1 1 0 0 0-1-.5 1 1 0 0 0-.5.2 1 1 0 0 0-.4.3l-.2.6v.6Z"/><path fill="#FFA600" d="M57 103v3.4H38.5l-.1-2.5 11-17.3h3.4l-3.7 6.3-6.3 10.1H57Zm-3.2-16.4v25.6h-4.3V86.6h4.3ZM73.4 97v15.2h-4.2v-19h4l.2 3.8Zm-.7 5h-1.4c0-1.4.2-2.6.5-3.7s.8-2 1.4-2.9c.7-.8 1.5-1.5 2.4-2 1-.4 2-.6 3.3-.6a7 7 0 0 1 2.4.4c.7.2 1.3.6 1.8 1.2.6.5 1 1.2 1.3 2 .3.9.4 1.9.4 3v12.8h-4.2V99.9c0-1-.2-1.7-.5-2.2-.2-.5-.6-1-1.1-1.1-.5-.3-1.1-.4-1.8-.4-.8 0-1.5.2-2 .5-.6.3-1 .7-1.4 1.2-.4.5-.6 1.1-.8 1.8-.2.7-.3 1.5-.3 2.3Zm11.8-1.2-2 .5c0-1.2.2-2.3.5-3.3.4-1 .8-2 1.5-2.7a6.7 6.7 0 0 1 5.5-2.5c1 0 1.8.1 2.6.4.7.3 1.4.7 2 1.2.5.6.9 1.3 1.2 2.2.3 1 .4 2 .4 3.3v12.3h-4.3V99.8c0-1-.1-1.7-.4-2.2-.3-.5-.6-.9-1.1-1-.5-.3-1.2-.4-1.9-.4a4 4 0 0 0-1.7.4c-.5.2-.9.5-1.2 1-.4.4-.6.9-.8 1.4l-.3 1.8ZM105 97v15.2h-4.3v-19h4l.3 3.8Zm-.7 5h-1.4c0-1.4.1-2.6.4-3.7.4-1.1.9-2 1.5-2.9.6-.8 1.4-1.5 2.3-2 1-.4 2-.6 3.3-.6a7 7 0 0 1 2.4.4c.7.2 1.4.6 1.9 1.2.5.5 1 1.2 1.2 2 .3.9.5 1.9.5 3v12.8H112V99.9c0-1-.1-1.7-.4-2.2-.3-.5-.7-1-1.2-1.1-.5-.3-1-.4-1.8-.4s-1.5.2-2 .5c-.6.3-1 .7-1.4 1.2-.3.5-.6 1.1-.8 1.8l-.2 2.3Zm11.8-1.2-2 .5c0-1.2.2-2.3.5-3.3s.8-2 1.4-2.7a6.7 6.7 0 0 1 5.5-2.5c1 0 1.9.1 2.6.4.8.3 1.5.7 2 1.2.5.6 1 1.3 1.2 2.2.3 1 .4 2 .4 3.3v12.3h-4.2V99.8c0-1-.2-1.7-.4-2.2-.3-.5-.7-.9-1.2-1-.5-.3-1.1-.4-1.8-.4a4 4 0 0 0-1.7.4c-.5.2-1 .5-1.3 1l-.8 1.4-.2 1.8Zm27.2-14.2-10 27.8H130l10-27.8h3.3ZM157 107c0-.4 0-.8-.3-1.1-.2-.4-.6-.7-1.2-1-.6-.3-1.5-.5-2.6-.7l-2.8-.8c-.8-.4-1.5-.7-2.1-1.2a4.4 4.4 0 0 1-1.9-3.7c0-.7.2-1.5.5-2.2.3-.7.8-1.3 1.4-1.8.7-.5 1.4-1 2.4-1.2.9-.4 1.9-.5 3-.5 1.6 0 3 .3 4.1.8 1.2.5 2 1.3 2.6 2.2.7.9 1 1.9 1 3h-4.3c0-.5-.1-1-.4-1.4-.2-.4-.6-.8-1-1-.6-.3-1.2-.5-2-.5-.7 0-1.3.1-1.8.4-.5.2-.8.5-1 .9a2.2 2.2 0 0 0-.2 2c.1.3.3.5.6.7l1.2.6 2 .5c1.4.3 2.7.7 3.7 1.1a6 6 0 0 1 2.4 1.9c.6.7.9 1.7.9 2.8a5 5 0 0 1-2.1 4.1c-.7.5-1.5 1-2.5 1.2-1 .3-2 .4-3.1.4-1.8 0-3.2-.3-4.4-.9a7 7 0 0 1-2.7-2.4c-.6-1-1-2-1-3h4.1c0 .8.3 1.4.7 1.9.4.4.9.8 1.5 1l1.8.3c.8 0 1.4-.1 2-.3.4-.2.8-.5 1.1-.9.3-.3.4-.7.4-1.2Z"/></svg>