<svg xmlns="http://www.w3.org/2000/svg" width="200" height="160" fill="none"><g clip-path="url(#a)"><rect width="200" height="160" fill="#fff" rx="4"/><path fill="#000" fill-opacity=".9" d="M28.5 21.2c-4.4 0-8 1.8-8 4 0 1.8 2.4 3.3 5.6 3.8v2.5l3.2-3.1-3.2-3.2v2.1c-2.5-.4-4-1.5-4-2.1 0-.9 2.5-2.4 6.4-2.4 4 0 6.3 1.5 6.3 2.4 0 .6-1.1 1.5-3.1 2v1.6c2.8-.6 4.7-2 4.7-3.6 0-2.2-3.5-4-7.9-4ZM45.2 20.8h3.1c.7 0 1.3 0 1.8.3.4.2.8.5 1 .9.3.4.5.9.5 1.4 0 .5-.1.9-.3 1.2l-.7.9-1 .5-.5.2h-2.9V25h2.2c.3 0 .6 0 .9-.2l.5-.5c.2-.2.2-.5.2-.8 0-.3 0-.6-.2-.8 0-.2-.3-.4-.5-.5a2 2 0 0 0-1-.2h-1.6v7.7h-1.5v-9Zm5 8.9-2-4h1.6l2.1 4h-1.6Zm2.7-3.3v-.1c0-.5 0-1 .2-1.3.1-.4.3-.8.6-1.1.2-.3.5-.5 1-.7.3-.2.7-.3 1.2-.3s1 .1 1.3.3l1 .7c.3.3.5.7.6 1l.2 1.4v.1c0 .5 0 1-.2 1.4-.1.4-.3.7-.6 1a2.8 2.8 0 0 1-2.3 1c-.4 0-.9 0-1.3-.2l-1-.8-.5-1c-.2-.4-.2-.9-.2-1.4Zm1.4-.1v.1l.1.9c0 .3.2.5.3.7l.5.5.7.1a1.4 1.4 0 0 0 1.3-.6l.2-.7.1-.9v-.9l-.4-.7A1.4 1.4 0 0 0 56 24c-.2 0-.5 0-.7.2l-.5.5-.3.7v.8Zm9.2-3.2v1h-3.7v-1h3.7Zm-2.7-1.7h1.5v6.9l.3.2.4.1a2.3 2.3 0 0 0 .5 0v1a3.8 3.8 0 0 1-1 .2c-.3 0-.6 0-.8-.2-.3 0-.5-.3-.6-.6-.2-.2-.3-.6-.3-1v-6.6Zm7.8 7v-3.2c0-.2 0-.4-.2-.6 0-.2-.2-.3-.4-.4l-.6-.2c-.2 0-.5 0-.6.2a1 1 0 0 0-.4.3l-.2.5h-1.5l.2-.8c.2-.2.3-.5.6-.6l.8-.5 1.2-.2c.5 0 1 .1 1.3.3l1 .7.2 1.3v3l.1.8.2.6h-1.5l-.2-.5v-.7Zm.2-2.7v.9h-1a3 3 0 0 0-.8 0l-.5.3a1 1 0 0 0-.4.8v.5l.4.3.6.1a1.6 1.6 0 0 0 1.4-.6l.2-.5.4.6c0 .2 0 .4-.2.6l-.5.5a2.3 2.3 0 0 1-1.6.6c-.4 0-.8 0-1.1-.2a2 2 0 0 1-.8-.8c-.2-.3-.3-.6-.3-1 0-.3 0-.6.2-.9.1-.3.3-.5.6-.7.2-.2.6-.3 1-.4l1.2-.1h1.2Zm6-2.6v1h-3.7v-1h3.7Zm-2.6-1.7h1.4V28l.1.4.3.2.4.1a2.3 2.3 0 0 0 .5 0v1a3.8 3.8 0 0 1-1 .2c-.3 0-.6 0-.9-.2-.3 0-.5-.3-.6-.6-.2-.2-.2-.6-.2-1v-6.6Zm5.5 1.7v6.6h-1.4V23h1.4Zm-1.5-1.8c0-.2 0-.4.2-.5.1-.2.3-.3.6-.3s.5.1.6.3c.2.1.3.3.3.5l-.3.6-.6.2c-.3 0-.5 0-.6-.2a.7.7 0 0 1-.2-.6Zm3 5.1v-.1c0-.5.1-1 .3-1.3.1-.4.3-.8.6-1.1a3.2 3.2 0 0 1 2.3-1c.4 0 .9.1 1.2.3.4.2.8.4 1 .7.3.3.5.7.6 1 .2.5.2 1 .2 1.4v.1c0 .5 0 1-.2 1.4-.1.4-.3.7-.6 1a2.8 2.8 0 0 1-2.2 1c-.5 0-1 0-1.3-.2l-1-.8c-.3-.3-.5-.6-.6-1-.2-.4-.2-.9-.2-1.4Zm1.6-.1v1l.3.7.5.5.8.1a1.4 1.4 0 0 0 1.2-.6l.3-.7v-1.8l-.3-.7a1.4 1.4 0 0 0-1.2-.7c-.3 0-.6 0-.8.2l-.5.5-.3.7v.8Zm7.5-1.8v5.2H87V23h1.4v1.4Zm-.2 1.6h-.5c0-.4 0-.9.2-1.3l.5-1a2.4 2.4 0 0 1 2-.9c.3 0 .5 0 .8.2.3 0 .5.2.7.4l.4.8.2 1.1v4.3h-1.5v-4.3c0-.3 0-.6-.2-.8l-.4-.4h-.6a1.4 1.4 0 0 0-1.2.5l-.3.7-.1.7Zm9.7 2.3v-3.2l-.1-.6-.4-.4-.7-.2c-.2 0-.4 0-.6.2a1 1 0 0 0-.4.3l-.2.5H94c0-.3 0-.5.2-.8 0-.2.3-.5.5-.6.3-.2.5-.4.9-.5l1.1-.2c.5 0 1 .1 1.3.3l1 .7c.2.4.3.8.3 1.3V29l.2.6H98l-.2-.5v-.7Zm.2-2.7v.9h-1a3 3 0 0 0-.8 0l-.5.3a1 1 0 0 0-.4.8l.1.5.4.3.6.1a1.6 1.6 0 0 0 1.3-.6l.2-.5.5.6-.3.6-.4.5a2.3 2.3 0 0 1-1.6.6c-.5 0-.9 0-1.2-.2a2 2 0 0 1-.8-.8c-.2-.3-.3-.6-.3-1 0-.3 0-.6.2-.9l.6-.7 1-.4 1.2-.1H98Zm4.6-5.4v9.4H101v-9.4h1.5Zm8.9 7.6c0-.2 0-.3-.2-.4a1 1 0 0 0-.4-.3l-.9-.3-1-.3a3 3 0 0 1-.7-.4l-.5-.5-.2-.8.2-.7.5-.7.8-.4 1-.2c.6 0 1.1.1 1.5.3l1 .8c.2.3.3.6.3 1h-1.5c0-.1 0-.3-.2-.5a1 1 0 0 0-.3-.3l-.7-.2-.6.1-.4.4a.8.8 0 0 0 0 .7l.2.2.4.2.7.2c.5 0 .9.2 1.3.4l.8.6c.2.3.3.6.3 1a1.7 1.7 0 0 1-.7 1.5l-.9.4-1 .1c-.7 0-1.2-.1-1.6-.3l-1-.8a2 2 0 0 1-.3-1h1.4l.3.6.5.3.6.1h.7l.4-.4.2-.4Zm4.4-3.6v8h-1.5V23h1.4v1.2Zm4.3 2v.1c0 .5 0 1-.2 1.4 0 .4-.3.7-.5 1-.2.4-.5.6-.8.8l-1 .2c-.5 0-.9 0-1.2-.2l-.7-.7c-.3-.3-.4-.6-.6-1l-.2-1.2v-.5l.2-1.3c.2-.4.3-.8.6-1a2.2 2.2 0 0 1 1.8-1c.4 0 .8.1 1.1.3.3.1.6.4.8.7l.5 1 .2 1.4Zm-1.5.1v-1l-.3-.6a1.3 1.3 0 0 0-1.2-.7c-.3 0-.5 0-.7.2-.2 0-.3.2-.4.3l-.3.6-.2.6V27c0 .3.1.6.3.8 0 .3.3.5.5.6.2.2.5.2.8.2l.7-.1.5-.5.2-.7.1-.9Zm5.9 3.4c-.5 0-1 0-1.4-.2a3 3 0 0 1-1.6-1.7l-.2-1.3v-.2c0-.6 0-1 .2-1.5l.6-1c.3-.3.6-.6 1-.7a3 3 0 0 1 1.2-.3c.5 0 .9.1 1.2.3.4.1.7.4 1 .6l.4 1c.2.5.2.9.2 1.4v.6h-5.1v-1h3.7v-.2l-.2-.7-.4-.6-.8-.2c-.3 0-.5 0-.7.2-.2 0-.3.2-.4.4-.2.2-.3.4-.3.7l-.1 1v1l.4.7.6.4.7.1a2 2 0 0 0 1.7-.8l.8.8a2.8 2.8 0 0 1-1.4 1l-1.1.2Zm6.9 0c-.5 0-1 0-1.3-.2a3 3 0 0 1-1.7-1.7l-.2-1.3v-.2c0-.6 0-1 .2-1.5l.7-1c.2-.3.5-.6 1-.7a3 3 0 0 1 1.1-.3c.5 0 .9.1 1.3.3l.8.6c.3.3.4.7.6 1l.1 1.4v.6h-5v-1h3.6v-.2c0-.2 0-.5-.2-.7 0-.2-.2-.4-.4-.6l-.8-.2c-.2 0-.5 0-.7.2l-.4.4c-.2.2-.3.4-.3.7l-.1 1v.2l.1.8c0 .3.2.5.4.7l.5.4.8.1a2 2 0 0 0 1.6-.8l.8.8a2.8 2.8 0 0 1-1.4 1l-1.1.2Zm8-1.5v-8h1.5v9.4h-1.3l-.2-1.4Zm-4.3-1.9c0-.6 0-1 .2-1.5l.5-1a2.3 2.3 0 0 1 2-1c.3 0 .7.1 1 .3.3.1.5.3.7.6.3.3.4.7.6 1l.2 1.4v.4l-.2 1.3c-.2.4-.3.7-.6 1a2.2 2.2 0 0 1-1.8 1 2.3 2.3 0 0 1-1.9-1l-.5-1.1-.2-1.4Zm1.5 0v.9l.3.7.5.4c.2.2.4.2.7.2.3 0 .6 0 .8-.2l.5-.6.3-.8v-1.2l-.2-.6-.3-.6-.4-.3-.7-.2c-.3 0-.5 0-.7.2l-.5.5-.2.7-.1.8Z"/><g clip-path="url(#b)"><rect width="26" height="13" x="87" y="130" fill="#F3F3F3" rx="3.1"/><path fill="#000" fill-opacity=".5" d="M94.6 138.6v.9h-4.8v-.7l2.8-4.5h1l-1 1.6-1.7 2.7h3.7Zm-.8-4.3v6.7h-1.1v-6.7h1Zm6.1 2.8v1l-.1 1.4-.5 1-.7.4-.9.2-.7-.1a1.8 1.8 0 0 1-1-.9l-.4-.8v-3.5l.5-1 .7-.4 1-.2.7.1a1.7 1.7 0 0 1 1 .9c.2.2.2.5.3.8l.1 1Zm-1 1.2V137l-.1-.7-.2-.5a1 1 0 0 0-.2-.4l-.3-.2a1 1 0 0 0-.4 0 1 1 0 0 0-.4 0l-.4.4-.2.6v3l.1.5.2.3.3.2.4.1h.5l.3-.4.2-.6.1-.9Zm6.6-1.2v1c0 .6 0 1-.2 1.4 0 .4-.2.7-.4 1l-.7.4-1 .2-.7-.1a1.8 1.8 0 0 1-1-.9c-.2-.2-.3-.5-.3-.8l-.1-1.1V137l.1-1.3.5-1 .7-.4.9-.2.7.1a1.7 1.7 0 0 1 1 .9l.4.8v1Zm-1.1 1.2V136.2l-.2-.5a1 1 0 0 0-.2-.4l-.3-.2a1 1 0 0 0-.4 0 1 1 0 0 0-.5 0l-.3.4-.2.6-.1.8v2.2l.2.5.2.3.3.2.4.1h.4l.4-.4.2-.6v-.9Zm6.6-1.2v1l-.1 1.4-.5 1-.7.4-.9.2-.7-.1a1.8 1.8 0 0 1-1-.9 3 3 0 0 1-.4-.8v-3.5l.5-1 .7-.4 1-.2.7.1a1.7 1.7 0 0 1 1 .9c.2.2.3.5.3.8l.1 1Zm-1 1.2V137l-.1-.7-.2-.5a1 1 0 0 0-.2-.4l-.3-.2a1 1 0 0 0-.4 0 1 1 0 0 0-.4 0l-.4.4-.2.6v3l.1.5.3.3c0 .1.1.2.3.2l.3.1h.5l.3-.4.3-.6v-.9Z"/></g><path fill="#305AD7" d="M138.9 134.9a55 55 0 1 0-77.8 0l6.6-6.6a45.6 45.6 0 1 1 64.6 0l6.6 6.6Z"/><path fill="#3FA71A" d="M138.9 134.9a55 55 0 1 0-92-24.6l9-2.4a45.6 45.6 0 1 1 76.4 20.4l6.6 6.6Z"/><path fill="#FFA600" d="M138.9 134.9A55 55 0 0 0 61 57l6.6 6.6a45.6 45.6 0 0 1 64.6 64.6l6.6 6.6Z"/><path fill="#D81838" d="M138.9 134.9a55 55 0 0 0 0-77.8l-6.6 6.6a45.6 45.6 0 0 1 0 64.6l6.6 6.6Z"/><path fill="#636363" fill-rule="evenodd" d="m138.8 134-.4.4-6.6-6.6.3-.3 3.3 3.3 3.3 3.2Zm14-24.7-.3.8-4.4-1.2-4.6-1.3.2-.7 4.6 1.2 4.4 1.2Zm-.3-28.4.2.8-4.4 1.2-4.6 1.2v-.4l-.1-.2v-.1L148 82l4.4-1.2Zm-14.4-24.5.7.6-3.3 3.2-3.4 3.3-.5-.5 3.3-3.3 3.2-3.3Zm-24.7-14.1.9.2L113 47l-1.3 4.6-.7-.2 1.2-4.6 1.2-4.5ZM67 127.5l.2.3-6.5 6.5-.3-.2 3.4-3.3 3.2-3.3ZM55.4 107l.1.7-4.4 1.2-4.5 1.3a48.4 48.4 0 0 1-.2-.9l4.5-1.2 4.5-1.1Zm.1-23.7-.1.7-4.5-1.1-4.5-1.2.2-.9 4.5 1.3 4.4 1.2Zm12-20.4-.5.5-3.2-3.2-3.4-3.3.6-.6 3.3 3.4 3.3 3.2Zm20.6-11.6-.7.2-1.2-4.5-1.3-4.5a58.5 58.5 0 0 1 .9-.2l1.2 4.5 1.1 4.5Z" clip-rule="evenodd"/><path fill="#636363" fill-rule="evenodd" d="M153.4 106.2a55 55 0 0 1-15 28.2l-.5-.5a54.2 54.2 0 1 0-76.7-.1l-.5.5a55 55 0 1 1 92.8-28.1Z" clip-rule="evenodd"/><path fill="#636363" d="M59 81.3V87h-1v-4.6l-1.3.5V82l2.2-.8h.1Zm5.7 2.4v1l-.1 1-.4.8c-.2.2-.4.4-.6.4a2.2 2.2 0 0 1-1.4 0 1.5 1.5 0 0 1-1-.6l-.2-.7v-3l.5-.8c.1-.2.3-.3.6-.4l.7-.2.6.1a1.5 1.5 0 0 1 1 .8l.2.6v1Zm-1 1V83l-.1-.4-.2-.3-.3-.2a1 1 0 0 0-.3 0h-.4l-.3.3-.1.5-.1.7V85.3l.2.5.1.3.3.2h.7l.3-.3.2-.5v-.8Zm5.5-1v1l-.1 1c0 .4-.2.6-.4.8-.1.2-.3.4-.6.4a2.2 2.2 0 0 1-1.4 0 1.5 1.5 0 0 1-.9-.6l-.2-.7-.1-1v-1l.1-1 .4-.8.6-.4.8-.2.6.1a1.5 1.5 0 0 1 .9.8l.2.6.1 1Zm-1 1V82.5l-.3-.3-.2-.2a1 1 0 0 0-.3 0H67l-.3.3-.2.5v2.5l.1.5.2.3.2.2h.8l.3-.3.1-.5v-.8Zm5.6-1v1c0 .4 0 .7-.2 1 0 .4-.2.6-.3.8-.2.2-.4.4-.6.4a2.2 2.2 0 0 1-1.4 0 1.5 1.5 0 0 1-1-.6l-.2-.7v-3l.5-.8.5-.4.8-.2.6.1a1.5 1.5 0 0 1 1 .8l.2.6v1Zm-1 1V83l-.1-.4-.2-.3-.3-.2a1 1 0 0 0-.3 0h-.4l-.3.3-.1.5-.1.7V85.3l.1.5.2.3.3.2h.7l.3-.3.2-.5v-.8ZM71.1 123.7v1l-.1 1c0 .4-.2.6-.4.8-.1.2-.3.3-.6.4a2.2 2.2 0 0 1-1.4 0 1.5 1.5 0 0 1-.9-.6l-.2-.7v-3l.4-.8.6-.4.8-.2.6.1a1.5 1.5 0 0 1 .9.8l.3.6v1Zm-.9 1V123l-.2-.4-.1-.3-.3-.2a1 1 0 0 0-.3 0h-.4l-.3.3-.2.5v2.5l.1.5.2.3.3.2h.7l.3-.3.1-.5.1-.8ZM81.2 61.3v.7h-3.8v-.6l1.9-2 .5-.7.2-.4a1.1 1.1 0 0 0 0-.9l-.3-.3a.9.9 0 0 0-.5-.1 1 1 0 0 0-.5.1c-.1.1-.3.2-.3.4l-.1.5h-1l.2-.9c.2-.2.4-.5.7-.6a2 2 0 0 1 1-.3l1 .2c.3.2.5.3.6.6.2.2.2.5.2.8v.5l-.3.6-.4.5-.5.5-1.2 1.4h2.6Zm4.5-2.6v1l-.1 1-.4.8c-.2.2-.4.4-.6.4a2.2 2.2 0 0 1-1.4 0 1.5 1.5 0 0 1-1-.6l-.2-.7v-3l.5-.8c.1-.2.3-.3.6-.4l.7-.2.6.1a1.5 1.5 0 0 1 1 .8l.2.6v1Zm-1 1V58l-.1-.4-.2-.3-.3-.2a1 1 0 0 0-.3 0h-.4l-.3.3-.1.5-.1.7V60.3l.2.5.1.3.3.2h.7l.3-.3.2-.5v-.8Zm5.5-1v1l-.1 1c0 .4-.2.6-.4.8-.1.2-.3.4-.6.4a2.2 2.2 0 0 1-1.4 0 1.5 1.5 0 0 1-.9-.6l-.2-.7-.1-1v-1l.1-1 .4-.8.6-.4.8-.2.6.1a1.5 1.5 0 0 1 .9.8l.2.6.1 1Zm-1 1V57.5l-.3-.3-.2-.2a1 1 0 0 0-.3 0H88l-.3.3-.2.5v2.5l.1.5.2.3.2.2h.8l.3-.3.1-.5v-.8Zm5.6-1v1c0 .4 0 .7-.2 1 0 .4-.2.6-.3.8-.2.2-.4.4-.6.4a2.2 2.2 0 0 1-1.4 0 1.5 1.5 0 0 1-1-.6l-.2-.7v-3l.5-.8.5-.4.8-.2.6.1a1.5 1.5 0 0 1 1 .8l.2.6v1Zm-1 1V58l-.1-.4-.2-.3-.3-.2a1 1 0 0 0-.3 0h-.4l-.3.3-.1.5-.1.7V60.3l.1.5.2.3.3.2h.7l.3-.3.2-.5v-.8ZM117.2 125v.7H113v-.5l2.4-3.9h.7l-.8 1.4-1.4 2.3h3.2Zm-.8-3.7v5.7h-.9v-5.7h1Zm2.4 3-.8-.1.3-2.9h3.1v.8h-2.3l-.1 1.4a1.8 1.8 0 0 1 .9-.2l.7.1c.2 0 .4.2.5.4.2.1.3.4.4.6a2.5 2.5 0 0 1 0 1.5l-.4.6c-.1.2-.3.3-.6.4l-.8.2-.7-.1-.6-.3-.4-.5-.1-.7h.9l.1.4.3.3.5.1h.4l.3-.3.2-.4a1.8 1.8 0 0 0 0-1 1 1 0 0 0-.2-.3l-.3-.2a1 1 0 0 0-.5 0h-.5l-.3.3Zm7.2-.6v2l-.5.8c-.1.2-.3.3-.6.4a2.2 2.2 0 0 1-1.4 0 1.5 1.5 0 0 1-.9-.6l-.2-.7v-3l.4-.8.6-.4.8-.2.6.1a1.5 1.5 0 0 1 1 .8l.2.6v1Zm-.9 1V123l-.2-.4-.1-.3-.3-.2a1 1 0 0 0-.3 0h-.4l-.3.3-.2.5v2.5l.1.5.2.3.3.2h.7l.3-.3.1-.5.1-.8Zm5.5-1v1l-.1 1-.4.8-.6.4a2.2 2.2 0 0 1-1.4 0 1.5 1.5 0 0 1-1-.6c0-.2 0-.5-.2-.7v-3l.5-.8c.1-.2.3-.3.6-.4l.7-.2.6.1a1.5 1.5 0 0 1 1 .8l.2.6v1Zm-1 1V123l-.1-.4-.2-.3-.3-.2a1 1 0 0 0-.3 0h-.4l-.3.3-.1.5v3l.2.3.3.2h.7l.3-.3.2-.5v-.8ZM125.3 83.7h1.2l.3-.4v-.9l-.3-.3a1 1 0 0 0-.5-.1 1 1 0 0 0-.4 0 .8.8 0 0 0-.5.8h-1c0-.3.2-.6.3-.8l.7-.6a2 2 0 0 1 .9-.2l1 .2.6.6c.2.2.2.5.2.8v.5l-.4.5-.6.3-.7.2h-.8v-.6Zm0 .8v-.6h.8c.3 0 .6 0 .8.2l.6.3.3.5.1.5-.1.7-.4.5-.6.4a2.5 2.5 0 0 1-1.5 0 2 2 0 0 1-.6-.3l-.4-.5-.2-.7h1v.4l.4.3.5.1h.5l.4-.4v-1c-.1-.2-.3-.3-.4-.3l-.6-.1h-.6Zm4.5-.1-.8-.2.3-2.9h3.1v.8h-2.3l-.1 1.4a1.8 1.8 0 0 1 .9-.2l.7.1c.2 0 .4.2.5.4.2.1.3.3.4.6a2.5 2.5 0 0 1 0 1.5l-.4.6c-.1.2-.3.3-.6.4l-.8.2-.7-.1-.6-.3a1.6 1.6 0 0 1-.5-1.2h.9l.1.4.3.3.5.1h.4l.3-.3.2-.4a1.8 1.8 0 0 0 0-.9 1 1 0 0 0-.2-.4l-.3-.2a1 1 0 0 0-.5 0h-.5l-.3.3Zm7.2-.7v2l-.5.8c-.1.2-.3.4-.6.4a2.2 2.2 0 0 1-1.4 0 1.5 1.5 0 0 1-.9-.6l-.2-.7v-3l.4-.8.6-.4.8-.2.6.1a1.5 1.5 0 0 1 1 .8l.2.6v1Zm-.9 1V83l-.2-.4-.1-.3-.3-.2a1 1 0 0 0-.3 0h-.4l-.3.3-.2.5v2.5l.1.5.2.3.3.2h.7l.3-.3.1-.5.1-.8Zm5.5-1v1l-.1 1-.4.8c-.2.2-.4.4-.6.4a2.2 2.2 0 0 1-1.4 0 1.5 1.5 0 0 1-1-.6c0-.2 0-.5-.2-.7v-3l.5-.8c.1-.2.3-.3.6-.4l.7-.2.6.1a1.5 1.5 0 0 1 1 .8l.2.6v1Zm-1 1V83l-.1-.4-.2-.3-.3-.2a1 1 0 0 0-.3 0h-.4l-.3.3-.1.5v3l.2.3.3.2h.7l.3-.3.2-.5v-.8ZM108 61.3v.7h-3.8v-.6l1.9-2 .5-.7.2-.4a1.1 1.1 0 0 0 0-.9l-.3-.3a.9.9 0 0 0-.5-.1 1 1 0 0 0-.5.1l-.3.4-.1.5h-1l.3-.9c.1-.2.3-.5.6-.6a2 2 0 0 1 1-.3l1 .2c.3.2.5.3.6.6.2.2.2.5.2.8v.5l-.3.6-.4.5-.4.5-1.3 1.4h2.7Zm1.8-2-.8-.1.3-2.9h3.1v.8h-2.3l-.1 1.4a1.8 1.8 0 0 1 .9-.2l.7.1c.2 0 .4.2.5.4.2.1.3.3.4.6a2.5 2.5 0 0 1 0 1.5l-.4.6c-.1.2-.3.3-.6.4l-.8.2-.7-.1-.6-.3a1.6 1.6 0 0 1-.5-1.2h.9l.1.4.3.3.5.1h.4l.3-.3.2-.4a1.8 1.8 0 0 0 0-.9 1 1 0 0 0-.2-.4l-.3-.2a1 1 0 0 0-.5 0h-.5l-.3.3Zm7.2-.6v2l-.5.8c-.1.2-.3.4-.6.4a2.2 2.2 0 0 1-1.4 0 1.5 1.5 0 0 1-.9-.6l-.2-.7v-3l.4-.8.6-.4.8-.2.6.1a1.5 1.5 0 0 1 1 .8l.2.6v1Zm-.9 1V58l-.2-.4-.1-.3-.3-.2a1 1 0 0 0-.3 0h-.4l-.3.3-.2.5v2.5l.1.5.2.3.3.2h.7l.3-.3.1-.5.1-.8Zm5.5-1v1l-.1 1-.4.8c-.2.2-.4.4-.6.4a2.2 2.2 0 0 1-1.4 0 1.5 1.5 0 0 1-1-.6c0-.2 0-.5-.2-.7v-3l.5-.8c.1-.2.3-.3.6-.4l.7-.2.6.1a1.5 1.5 0 0 1 1 .8l.2.6v1Zm-1 1V58l-.1-.4-.2-.3-.3-.2a1 1 0 0 0-.3 0h-.4l-.3.3-.1.5v3l.2.3.3.2h.7l.3-.3.2-.5v-.8Z"/><path fill="#000" fill-opacity=".5" d="M88.9 112.8h2.4c.5 0 .9 0 1.3.2l.8.7c.2.3.3.7.3 1.1 0 .3 0 .6-.2.9-.1.3-.3.5-.5.6l-.8.4-.4.2h-2.1v-.9h1.6c.2 0 .5 0 .7-.2l.4-.4.1-.5-.1-.6-.4-.4-.7-.2H90v5.8H89v-6.7Zm3.8 6.7-1.6-3h1.2l1.6 3h-1.2Zm4.9-2.5h-1.8v-1h2.5l.4-.5.1-.6v-.6a1 1 0 0 0-.5-.4l-.7-.2h-1.4v5.8H95v-6.7h2.6c.5 0 1 0 1.3.3l.8.7c.2.3.3.7.3 1.1 0 .5 0 .8-.3 1.1l-.8.8-1.3.2Zm4.1-4.2h1l2 5.2 2-5.2h1l-2.6 6.7h-.8l-2.6-6.7Zm-.5 0h1l.2 4.5v2.2h-1.2v-6.7Zm6 0h1v6.7H107v-2.2l.1-4.5Z"/><path fill="#E65100" d="m97.8 99.5 50.3 8.8L99.4 94 88 92.5c-.2 0-.4 0-.5.3l-.6 2.4c0 .2 0 .4.3.5l10.6 3.8Z"/><g filter="url(#c)"><circle cx="99.5" cy="96.5" r="4.5" fill="#fff"/></g></g><rect width="199.2" height="159.2" x=".4" y=".4" stroke="#000" stroke-opacity=".1" stroke-width=".8" rx="3.6"/><defs><clipPath id="a"><rect width="200" height="160" fill="#fff" rx="4"/></clipPath><clipPath id="b"><rect width="26" height="13" x="87" y="130" fill="#fff" rx="3.1"/></clipPath><filter id="c" width="37.3" height="37.3" x="80.9" y="77.9" color-interpolation-filters="sRGB" filterUnits="userSpaceOnUse"><feFlood flood-opacity="0" result="BackgroundImageFix"/><feColorMatrix in="SourceAlpha" result="hardAlpha" values="0 0 0 0 0 0 0 0 0 0 0 0 0 0 0 0 0 0 127 0"/><feMorphology in="SourceAlpha" operator="dilate" radius="1.6" result="effect1_dropShadow_1518_6404"/><feOffset/><feGaussianBlur stdDeviation="6.3"/><feComposite in2="hardAlpha" operator="out"/><feColorMatrix values="0 0 0 0 1 0 0 0 0 0.241667 0 0 0 0 0.241667 0 0 0 0.15 0"/><feBlend in2="BackgroundImageFix" result="effect1_dropShadow_1518_6404"/><feBlend in="SourceGraphic" in2="effect1_dropShadow_1518_6404" result="shape"/></filter></defs></svg>