<svg xmlns="http://www.w3.org/2000/svg" width="200" height="160" fill="none"><rect width="200" height="160" fill="#fff" rx="4"/><rect width="199" height="159" x=".5" y=".5" stroke="#000" stroke-opacity=".1" rx="3.5"/><path fill="#000" fill-opacity=".9" d="M20 16.7c-3.7 0-6.7 1.5-6.7 3.3 0 1.5 2 2.8 4.7 3.2v2.1l2.7-2.6L18 20v1.8c-2.1-.4-3.3-1.2-3.3-1.8 0-.7 2-2 5.3-2s5.3 1.3 5.3 2c0 .5-1 1.3-2.6 1.7V23c2.3-.6 4-1.7 4-3.1 0-1.8-3-3.3-6.7-3.3ZM33 15h3.5a5 5 0 0 1 2 .4c.5.2 1 .6 1.2 1 .3.4.4 1 .4 1.6 0 .5 0 1-.3 1.4l-.7 1-1.2.5-.5.3h-3.2v-1.4h2.4c.4 0 .7 0 1-.2l.6-.6.2-.9c0-.3 0-.6-.2-.9l-.6-.6-1-.2h-1.9V25H33V15Zm5.7 10-2.3-4.5h1.8l2.3 4.4v.1h-1.8Zm2.9-3.6v-.2c0-.5 0-1 .2-1.5l.7-1.2a3 3 0 0 1 1-.7l1.5-.3c.6 0 1 0 1.5.3.4.1.8.4 1 .7.4.4.6.8.7 1.2l.3 1.5v.2l-.3 1.5-.6 1.2a3.1 3.1 0 0 1-2.6 1c-.5 0-1 0-1.4-.2a3.5 3.5 0 0 1-1.8-2l-.2-1.5Zm1.6-.2v.2c0 .3 0 .6.2 1 0 .2.1.5.3.7l.5.5c.3.2.5.2.8.2a1.6 1.6 0 0 0 1.4-.7c.1-.2.3-.5.3-.8l.1-1v-1l-.4-.8a1.6 1.6 0 0 0-1.4-.7c-.3 0-.5 0-.8.2l-.5.5c-.2.2-.3.5-.3.8l-.2 1Zm10.3-3.6v1.2h-4.2v-1.2h4.2Zm-3-1.8h1.7v7.7l.4.2h.4a2.5 2.5 0 0 0 .6 0V25a4.2 4.2 0 0 1-1.1.1c-.4 0-.7 0-1-.2-.3-.1-.6-.3-.7-.6-.2-.3-.3-.7-.3-1.2v-7.3Zm8.7 7.7V20c0-.3 0-.5-.2-.7a1 1 0 0 0-.4-.4l-.7-.2-.7.1-.5.4-.1.5h-1.7l.2-.8.7-.7a3 3 0 0 1 1-.5 4 4 0 0 1 1.2-.2c.5 0 1 0 1.5.2.4.2.7.5 1 .9.2.4.3.8.3 1.4v3.3l.1.9.2.7v.1h-1.7a3 3 0 0 1-.1-.7l-.1-.8Zm.2-3v1h-1.1l-.8.1c-.3 0-.5.1-.6.3a1 1 0 0 0-.5.9l.1.5.4.4.7.1a1.8 1.8 0 0 0 1.5-.7l.2-.6.5.8-.2.6a3 3 0 0 1-.6.6 2.6 2.6 0 0 1-1.7.6c-.5 0-1 0-1.3-.3-.4-.1-.7-.4-1-.7a2.4 2.4 0 0 1-.1-2.2l.7-.8 1.1-.4 1.4-.2h1.3Zm6.8-2.9v1.2H62v-1.2h4.2Zm-3-1.8H65v7.7l.4.2h.4a2.5 2.5 0 0 0 .6 0V25a4.2 4.2 0 0 1-1.1.1c-.4 0-.7 0-1-.2-.3-.1-.5-.3-.7-.6-.2-.3-.3-.7-.3-1.2v-7.3Zm6.3 1.8V25h-1.7v-7.4h1.7Zm-1.8-2 .3-.6.7-.2c.3 0 .5 0 .7.2l.2.7c0 .2 0 .4-.2.6a1 1 0 0 1-.7.2 1 1 0 0 1-.7-.2.8.8 0 0 1-.3-.6Zm3.5 5.8v-.2l.3-1.5.6-1.2a3 3 0 0 1 1.1-.7c.4-.2 1-.3 1.5-.3s1 0 1.4.3c.4.1.8.4 1.1.7l.7 1.2.2 1.5v.2c0 .5 0 1-.2 1.5l-.7 1.2a3.1 3.1 0 0 1-2.5 1c-.6 0-1 0-1.5-.2a3.5 3.5 0 0 1-1.8-2l-.2-1.5Zm1.7-.2v1.2l.4.7c.2.2.3.4.6.5.2.2.5.2.8.2a1.6 1.6 0 0 0 1.3-.7l.4-.8v-2l-.4-.8a1.6 1.6 0 0 0-1.3-.7c-.3 0-.6 0-.8.2-.3.1-.4.3-.6.5l-.3.8-.1 1Zm8.5-2V25h-1.7v-7.4h1.6v1.6ZM81 21h-.6c0-.5.1-1 .3-1.4.1-.5.3-.8.6-1.1a2.7 2.7 0 0 1 2.1-1l1 .1.7.5.5.8.2 1.3V25h-1.7v-4.8c0-.3 0-.6-.2-.8a.9.9 0 0 0-.4-.5l-.7-.1a1.6 1.6 0 0 0-1.3.7l-.4.7-.1.8Zm11 2.5V20c0-.3 0-.5-.2-.7a1 1 0 0 0-.4-.4l-.8-.2-.6.1-.5.4-.2.5h-1.6c0-.3 0-.5.2-.8.1-.3.3-.5.6-.7a3 3 0 0 1 1-.5 4 4 0 0 1 1.2-.2c.6 0 1 0 1.5.2.4.2.8.5 1 .9.3.4.4.8.4 1.4v4.2l.3.7v.1h-1.7a3 3 0 0 1-.2-.7v-.8Zm.2-3v1H91l-.8.1-.6.3a1 1 0 0 0-.4.9l.1.5.4.4.6.1a1.8 1.8 0 0 0 1.5-.7l.3-.6.5.8-.3.6a3 3 0 0 1-.5.6 2.6 2.6 0 0 1-1.8.6c-.5 0-.9 0-1.3-.3-.3-.1-.6-.4-.9-.7a2.4 2.4 0 0 1-.1-2.2l.7-.8 1-.4 1.5-.2h1.3Zm5.1-6V25h-1.6V14.5h1.6Zm10 8.5-.1-.4a1 1 0 0 0-.5-.4l-1-.3-1.1-.3-.8-.5c-.3-.1-.4-.3-.6-.6l-.2-.8.2-.9.6-.7.9-.5 1.2-.1c.6 0 1.1 0 1.6.3.4.2.8.5 1 .8.2.4.4.8.4 1.2h-1.7l-.1-.5a1 1 0 0 0-.5-.5l-.7-.1-.7.1a1 1 0 0 0-.4.4.9.9 0 0 0 0 .8l.2.2.4.2.8.2 1.4.5c.4.2.8.4 1 .7.2.3.3.7.3 1.1a2 2 0 0 1-.8 1.6 3 3 0 0 1-1 .5l-1.2.1c-.7 0-1.2 0-1.7-.3s-.8-.6-1-1c-.3-.3-.4-.7-.4-1.1h1.6c0 .3 0 .5.2.7l.6.4.7.1.8-.1c.2 0 .3-.2.4-.3l.2-.5Zm5-4v8.8h-1.7V17.6h1.5l.1 1.4Zm4.8 2.2v.2l-.2 1.5-.6 1.2c-.2.3-.5.6-.9.8l-1.2.2c-.5 0-.9 0-1.2-.2l-.9-.7a4 4 0 0 1-.6-1.2l-.3-1.4v-.5l.3-1.5.6-1.1a2.5 2.5 0 0 1 2-1c.5 0 1 0 1.3.2l1 .8.5 1.2.2 1.5Zm-1.7.2v-1.2l-.4-.7a1.5 1.5 0 0 0-1.3-.7l-.7.1-.5.4-.4.7-.1.7V22l.2 1 .6.6 1 .2c.2 0 .5 0 .7-.2.2 0 .4-.3.5-.5.2-.2.3-.5.3-.8l.1-1ZM122 25c-.6 0-1 0-1.5-.2a3.3 3.3 0 0 1-1.8-2 4 4 0 0 1-.3-1.3v-.3c0-.6.1-1.1.3-1.6.1-.5.4-.9.7-1.2a3 3 0 0 1 1-.8l1.4-.2c.5 0 1 0 1.4.2l1 .8.5 1.1c.2.5.2 1 .2 1.5v.7h-5.7v-1.2h4.1v-.1c0-.3 0-.6-.2-.9 0-.2-.2-.4-.5-.6l-.8-.2c-.3 0-.5 0-.8.2-.2 0-.3.2-.5.5l-.3.7-.1 1v.4l.1.9.4.7.6.5.9.1a2.3 2.3 0 0 0 1.8-.9l1 .9-.7.6-1 .5c-.3.2-.7.2-1.2.2Zm7.7 0c-.5 0-1 0-1.4-.2a3.3 3.3 0 0 1-1.9-2 4 4 0 0 1-.2-1.3v-.3c0-.6 0-1.1.2-1.6s.4-.9.7-1.2a3 3 0 0 1 1.1-.8l1.3-.2c.6 0 1 0 1.4.2l1 .8c.3.3.5.7.6 1.1l.2 1.5v.7H127v-1.2h4v-.1l-.1-.9-.5-.6-.9-.2c-.2 0-.5 0-.7.2-.2 0-.4.2-.5.5l-.4.7v2.3l.5.7.6.5.8.1a2.3 2.3 0 0 0 1.9-.9l.9.9-.7.6a2 2 0 0 1-.9.5c-.4.2-.8.2-1.3.2Zm9-1.6v-9h1.7V25h-1.5l-.2-1.5Zm-4.8-2.1v-.2c0-.5 0-1 .2-1.5s.3-.9.6-1.2a2.5 2.5 0 0 1 2.1-1c.5 0 .9 0 1.2.2l.9.8.5 1.1.3 1.5v.5c0 .5-.1 1-.3 1.4a4 4 0 0 1-.5 1.1 2.5 2.5 0 0 1-2 1 2.6 2.6 0 0 1-2.2-1l-.6-1.2-.2-1.5Zm1.7-.2v1.2l.4.7c0 .2.3.4.5.5l.7.2c.4 0 .7 0 1-.2l.5-.7c.2-.3.3-.6.3-1v-1.2c0-.3 0-.5-.2-.7a2 2 0 0 0-.3-.6l-.5-.5-.8-.1c-.3 0-.5 0-.7.2l-.5.5c-.2.2-.3.5-.3.8l-.1 1Z"/><path fill="#305AD7" d="M51 69.3h2.4c1 0 1.8-.2 2.5-.5.6-.4 1.1-.8 1.4-1.4.4-.6.5-1.3.5-2 0-.9-.1-1.6-.4-2.2A3 3 0 0 0 56 62a4.8 4.8 0 0 0-4.2 0 3.5 3.5 0 0 0-2 3.2h-4.3c0-1.4.4-2.6 1.1-3.7.7-1 1.7-1.8 3-2.4 1.2-.6 2.6-1 4.1-1 1.7 0 3.1.3 4.3.9 1.3.5 2.2 1.3 3 2.4.6 1 1 2.4 1 4a5.3 5.3 0 0 1-2.1 4.2c-.6.7-1.5 1.2-2.4 1.6-1 .4-2.2.5-3.5.5h-3.2v-2.3Zm0 3.3v-2.3h3c1.6 0 2.9.1 4 .5 1 .4 1.9.8 2.5 1.5.7.6 1.2 1.3 1.5 2a7.5 7.5 0 0 1-.2 5.7c-.4 1-1 1.8-1.8 2.4a8 8 0 0 1-2.8 1.5 11.3 11.3 0 0 1-6.5 0c-1-.3-2-.8-2.7-1.4a6.7 6.7 0 0 1-2-2.2 7 7 0 0 1-.6-3.2h4.2c0 .8.2 1.4.5 2 .4.6.9 1 1.5 1.4a5 5 0 0 0 2.3.5c.9 0 1.7-.2 2.3-.5a4 4 0 0 0 1.5-1.4c.3-.6.5-1.4.5-2.3 0-1-.2-1.8-.6-2.4-.4-.6-1-1-1.6-1.4-.7-.3-1.6-.4-2.6-.4H51ZM83.1 69v4.1c0 2-.2 3.8-.6 5.2a9 9 0 0 1-1.7 3.4c-.8.9-1.6 1.5-2.7 2a9.8 9.8 0 0 1-6.2.2 6.9 6.9 0 0 1-4.1-3.4c-.5-.9-.9-1.9-1.1-3.1-.3-1.2-.4-2.7-.4-4.3V69c0-2 .2-3.8.6-5.1a9 9 0 0 1 1.7-3.4c.7-1 1.6-1.5 2.6-2 1-.3 2.2-.5 3.5-.5 1 0 2 0 2.8.3a6.6 6.6 0 0 1 4 3.3c.5.9 1 2 1.2 3.1.2 1.2.4 2.7.4 4.3Zm-4.3 4.7v-5.4l-.1-2.7a8 8 0 0 0-.6-2 4 4 0 0 0-.8-1.3 3 3 0 0 0-1.2-.7 3.9 3.9 0 0 0-3.2.1c-.5.2-1 .6-1.3 1.2-.3.5-.6 1.3-.8 2.2-.2.9-.3 2-.3 3.2v5.4c0 1 0 2 .2 2.8l.5 2 .9 1.4c.3.3.7.6 1.1.7l1.5.3a4 4 0 0 0 1.8-.4c.5-.3 1-.7 1.3-1.2.3-.6.6-1.4.8-2.3l.2-3.3Zm24.8-4.7v4.1c0 2-.2 3.8-.6 5.2a9 9 0 0 1-1.7 3.4c-.7.9-1.6 1.5-2.6 2-1 .3-2.2.6-3.5.6-1 0-1.9-.2-2.8-.4a6.9 6.9 0 0 1-4-3.4c-.5-.9-1-1.9-1.2-3.1-.2-1.2-.4-2.7-.4-4.3V69c0-2 .2-3.8.6-5.1a9 9 0 0 1 1.7-3.4c.8-1 1.6-1.5 2.7-2 1-.3 2.1-.5 3.4-.5 1 0 2 0 2.8.3a6.6 6.6 0 0 1 4.1 3.3c.5.9.9 2 1.1 3.1.3 1.2.4 2.7.4 4.3Zm-4.2 4.7v-5.4c0-1 0-1.9-.2-2.7a8 8 0 0 0-.5-2 4 4 0 0 0-.9-1.3 3 3 0 0 0-1.1-.7l-1.5-.3c-.6 0-1.2.1-1.7.4-.6.2-1 .6-1.3 1.2-.4.5-.7 1.3-.9 2.2l-.2 3.2v5.4c0 1 0 2 .2 2.8 0 .7.3 1.4.5 2l.8 1.4c.4.3.8.6 1.2.7a4 4 0 0 0 3.2-.1c.5-.3 1-.7 1.3-1.2.4-.6.6-1.4.8-2.3.2-.9.3-2 .3-3.3Zm9.8.3h3.3c.7 0 1.3.2 1.8.4.6.2 1 .6 1.2 1 .3.4.4 1 .4 1.6 0 .5 0 1-.2 1.3l-.8 1-1.3.5-.3.2h-3.1v-1.1h2.3c.5 0 .9 0 1.2-.3a1.7 1.7 0 0 0 1-1.6l-.3-1c-.2-.3-.4-.5-.7-.6-.3-.2-.7-.3-1.3-.3h-2V84h-1.2V74Zm5.8 10-2.4-4.5h1.3l2.5 4.4v.1H115Zm6.7-3.9H119v-1h2.7c.5 0 .9-.2 1.2-.3.3-.2.6-.4.7-.7.2-.3.2-.6.2-1 0-.3 0-.7-.2-1-.1-.3-.4-.5-.7-.7-.3-.2-.7-.3-1.2-.3h-2.4V84H118V74h3.7c.7 0 1.3.2 1.9.4a3 3 0 0 1 1.6 2.6c0 .7-.2 1.3-.5 1.7-.2.5-.6.8-1.1 1-.6.3-1.2.4-2 .4Zm5.7-6h1.3l3.3 8 3.2-8h1.3l-4 9.9h-1l-4-10Zm-.4 0h1.1l.2 6V84H127V74Zm8.8 0h1.1V84h-1.3v-3.9l.2-6Z"/><path fill="url(#a)" fill-opacity=".3" d="M147.4 71.8h7.2v8.9l-3.6 2.6-3.6-2.6v-9Z"/><path fill="#000" fill-opacity=".9" fill-rule="evenodd" d="M150.7 83.9c.2.2.4.2.6 0l3.3-3.2-.7-.7-1.4 1.4c-.4.4-1 .1-1-.4v-3.9h-1v4c0 .4-.6.7-1 .3l-1.4-1.4-.7.7 3.3 3.2Z" clip-rule="evenodd"/><path fill="#000" fill-opacity=".9" d="M162.6 79.8v1.1h-3.1v-1.1h3Zm5.2-4.4V84h-1.4v-6.9l-2 .7v-1.1l3.3-1.3h.1Zm7.5 0h.2v1.2h-.1c-.5 0-1 0-1.3.2l-1 .6-.4 1c-.2.4-.2.8-.2 1.2v1.3l.1 1 .3.6.5.4h1.1l.5-.4.2-.6a2.5 2.5 0 0 0-.2-2l-.5-.3-.6-.1c-.3 0-.5 0-.7.2-.3.1-.4.3-.6.5l-.2.7-.5-.2c0-.4 0-.7.2-1l.5-.7.8-.5.9-.2c.4 0 .8.1 1 .3.4.1.6.3.8.6l.5 1a3.7 3.7 0 0 1 0 2.1l-.6 1-.9.6-1.1.2c-.5 0-.9 0-1.3-.2l-.9-.8-.5-1c-.2-.4-.2-.9-.2-1.3v-.6c0-.7 0-1.3.2-1.8.2-.6.4-1.1.8-1.6.3-.4.8-.8 1.3-1a4 4 0 0 1 2-.4Zm3.3 2.2V77c0-.3 0-.6.2-.9.1-.2.3-.5.6-.6.3-.2.6-.3 1-.3s.7.1 1 .3l.6.6.2 1v.4c0 .3 0 .6-.2.8l-.6.7-1 .2a2 2 0 0 1-1-.2c-.3-.2-.5-.4-.6-.7l-.2-.8Zm1-.5v.9l.3.3.5.2c.2 0 .3 0 .5-.2l.2-.3.1-.4v-.9l-.4-.4a.8.8 0 0 0-.4-.1l-.5.1-.2.4-.1.4Zm3.1 5.3v-.5c0-.3 0-.6.2-.9l.6-.6c.3-.2.6-.2 1-.2s.7 0 1 .2l.6.6.2 1v.4c0 .3 0 .6-.2.8-.1.3-.3.5-.6.7l-1 .2a2 2 0 0 1-1-.2l-.6-.7-.2-.8Zm1-.5v.9l.4.4h.9l.3-.4v-1.3a.8.8 0 0 0-.8-.5l-.5.1-.2.4-.1.4Zm1.2-5.2-4.2 6.7-.7-.5 4.1-6.6.8.4Z"/><g clip-path="url(#b)"><path fill="#000" fill-opacity=".1" fill-rule="evenodd" d="M188 125H12v-1h176v1Z" clip-rule="evenodd"/><path stroke="#000" stroke-opacity=".9" stroke-width="1.5" d="M12 133.8h9.3l13.3 9.2L45 112.2l21.6 22.6 23.7-22.6 7.2 1 14.4 29.8h14.4l12.4-26.7h9.3l9-14.3 12.4 4.1 18.5 10.3"/></g><defs><linearGradient id="a" x1="150.7" x2="150.7" y1="84" y2="71.8" gradientUnits="userSpaceOnUse"><stop offset="0" style="stop-color:#fff;stop-opacity:1"/><stop offset="1" style="stop-color:#fff;stop-opacity:0"/></linearGradient><clipPath id="b"><path fill="#fff" d="M12 90h176v60H12z"/></clipPath></defs></svg>