<svg xmlns="http://www.w3.org/2000/svg" width="200" height="160" fill="none"><rect width="200" height="160" fill="#fff" rx="4"/><rect width="199" height="159" x=".5" y=".5" stroke="#000" stroke-opacity=".1" rx="3.5"/><g filter="url(#a)"><rect width="188" height="148" x="6" y="6" fill="#fff" fill-opacity=".8" rx="4"/></g><path fill="#305AD7" d="M27 23.8c-6.9 0-12.5 2.8-12.5 6.2 0 2.8 3.7 5.2 8.8 6v4l5-5-5-5v3.4c-4-.7-6.3-2.4-6.3-3.4 0-1.3 3.8-3.8 10-3.8s10 2.5 10 3.8c0 1-1.8 2.4-5 3.2v2.5c4.4-1 7.5-3.1 7.5-5.7 0-3.4-5.6-6.3-12.5-6.3Z"/><path fill="#000" fill-opacity=".9" d="M49 18.5h3.5a5 5 0 0 1 2 .4c.5.2 1 .6 1.2 1 .3.4.4 1 .4 1.6 0 .5 0 1-.3 1.4l-.7 1-1.2.5-.5.3h-3.2v-1.4h2.4c.4 0 .7 0 1-.2l.6-.6.2-.9c0-.3 0-.6-.2-.9l-.6-.6-1-.2h-1.9v8.6H49v-10Zm5.7 10L52.4 24h1.8l2.3 4.4v.1h-1.8Zm2.9-3.6v-.2c0-.5 0-1 .2-1.5l.7-1.2a3 3 0 0 1 1-.7L61 21c.6 0 1 0 1.5.3.4.1.8.4 1 .7.4.4.6.8.7 1.2l.3 1.5v.2l-.3 1.5-.6 1.2a3.1 3.1 0 0 1-2.6 1c-.5 0-1 0-1.4-.2a3.5 3.5 0 0 1-1.8-2l-.2-1.5Zm1.6-.2v.2c0 .3 0 .6.2 1 0 .2.1.5.3.7l.5.5c.3.2.5.2.8.2a1.6 1.6 0 0 0 1.4-.7c.1-.2.3-.5.3-.8l.1-1v-1l-.4-.8a1.6 1.6 0 0 0-1.4-.7c-.3 0-.5 0-.8.2l-.5.5c-.2.2-.3.5-.3.8l-.2 1Zm10.3-3.6v1.2h-4.2v-1.2h4.2Zm-3-1.8h1.7V27l.4.2h.4a2.5 2.5 0 0 0 .6 0v1.3a4.2 4.2 0 0 1-1.1.1c-.4 0-.7 0-1-.2-.3-.1-.6-.3-.7-.6-.2-.3-.3-.7-.3-1.2v-7.3Zm8.7 7.7v-3.5c0-.3 0-.5-.2-.7a1 1 0 0 0-.4-.4l-.7-.2-.7.1-.5.4-.1.5h-1.7l.2-.8.7-.7a3 3 0 0 1 1-.5A4 4 0 0 1 74 21c.5 0 1 0 1.5.2.4.2.7.5 1 .9.2.4.3.8.3 1.4v3.3l.1.9.2.7v.1h-1.7a3 3 0 0 1-.1-.7l-.1-.8Zm.2-3v1h-1.1l-.8.1c-.3 0-.5.1-.6.3a1 1 0 0 0-.5.9l.1.5.4.4.7.1a1.8 1.8 0 0 0 1.5-.7l.2-.6.5.8-.2.6a3 3 0 0 1-.6.6 2.6 2.6 0 0 1-1.7.6c-.5 0-1 0-1.3-.3-.4-.1-.7-.4-1-.7a2.4 2.4 0 0 1-.1-2.2l.7-.8 1.1-.4 1.4-.2h1.3Zm6.8-2.9v1.2H78v-1.2h4.2Zm-3-1.8H81V27l.4.2h.4a2.5 2.5 0 0 0 .6 0v1.3a4.2 4.2 0 0 1-1.1.1c-.4 0-.7 0-1-.2-.3-.1-.5-.3-.7-.6-.2-.3-.3-.7-.3-1.2v-7.3Zm6.3 1.8v7.4h-1.7v-7.4h1.7Zm-1.8-2 .3-.6.7-.2c.3 0 .5 0 .7.2l.2.7c0 .2 0 .4-.2.6a1 1 0 0 1-.7.2 1 1 0 0 1-.7-.2.8.8 0 0 1-.3-.6Zm3.5 5.8v-.2l.3-1.5.6-1.2a3 3 0 0 1 1.1-.7c.4-.2 1-.3 1.5-.3s1 0 1.4.3c.4.1.8.4 1.1.7l.7 1.2.2 1.5v.2c0 .5 0 1-.2 1.5l-.7 1.2a3.1 3.1 0 0 1-2.5 1c-.6 0-1 0-1.5-.2a3.5 3.5 0 0 1-1.8-2l-.2-1.5Zm1.7-.2V26l.4.7c.2.2.3.4.6.5.2.2.5.2.8.2a1.6 1.6 0 0 0 1.3-.7l.4-.8v-2L92 23a1.6 1.6 0 0 0-1.3-.7c-.3 0-.6 0-.8.2-.3.1-.4.3-.6.5l-.3.8-.1 1Zm8.5-2v5.8h-1.7v-7.4h1.6v1.6Zm-.3 1.8h-.6c0-.5.1-1 .3-1.4.1-.5.3-.8.6-1.1a2.7 2.7 0 0 1 2.1-1l1 .1.7.5.5.8.2 1.3v4.8h-1.7v-4.8c0-.3 0-.6-.2-.8a.9.9 0 0 0-.4-.5l-.7-.1a1.6 1.6 0 0 0-1.3.7l-.4.7-.1.8ZM108 27v-3.5c0-.3 0-.5-.2-.7a1 1 0 0 0-.4-.4l-.8-.2-.6.1-.5.4-.2.5h-1.6c0-.3 0-.5.2-.8.1-.3.3-.5.6-.7a3 3 0 0 1 1-.5 4 4 0 0 1 1.2-.2c.6 0 1 0 1.5.2.4.2.8.5 1 .9.3.4.4.8.4 1.4v4.2l.3.7v.1h-1.7a3 3 0 0 1-.2-.7V27Zm.2-3v1H107l-.8.1-.6.3a1 1 0 0 0-.4.9l.1.5.4.4.6.1a1.8 1.8 0 0 0 1.5-.7l.3-.6.5.8-.3.6a2.6 2.6 0 0 1-2.3 1.3c-.5 0-.9-.2-1.3-.4-.3-.1-.6-.4-.9-.7a2.4 2.4 0 0 1-.1-2.2l.7-.8 1-.4 1.5-.2h1.3Zm5.1-6v10.5h-1.6V18h1.6Zm10 8.5-.1-.4a1 1 0 0 0-.5-.4l-1-.3-1.1-.3-.8-.5c-.3-.1-.4-.3-.6-.6l-.2-.8.2-.9.6-.7.9-.5 1.2-.1c.6 0 1.1 0 1.6.3.4.2.8.5 1 .8.2.4.4.8.4 1.2h-1.7l-.1-.5a1 1 0 0 0-.5-.5l-.7-.1-.7.1a1 1 0 0 0-.4.4.9.9 0 0 0 0 .8l.2.2.4.2.8.2 1.4.5c.4.2.8.4 1 .7.2.3.3.7.3 1.1a2 2 0 0 1-.8 1.6 3 3 0 0 1-1 .5l-1.2.1c-.7 0-1.2 0-1.7-.3s-.8-.6-1-1c-.3-.3-.4-.7-.4-1.1h1.6c0 .3 0 .5.2.7l.6.4.7.1.8-.1c.2 0 .3-.2.4-.3l.2-.5Zm5-4v8.8h-1.7V21.1h1.5l.1 1.4Zm4.8 2.2v.2l-.2 1.5-.6 1.2c-.2.3-.5.6-.9.8l-1.2.2c-.5 0-.9 0-1.2-.2l-.9-.7a4 4 0 0 1-.6-1.2l-.3-1.4v-.5l.3-1.5.6-1.1a2.5 2.5 0 0 1 2-1c.5 0 1 0 1.3.2l1 .8.5 1.2.2 1.5Zm-1.7.2v-1.2l-.4-.7a1.5 1.5 0 0 0-1.3-.7l-.7.1-.5.4-.4.7-.1.7v1.3l.2 1 .6.6 1 .2c.2 0 .5 0 .7-.2.2 0 .4-.3.5-.5.2-.2.3-.5.3-.8l.1-1Zm6.6 3.7c-.6 0-1 0-1.5-.2a3.3 3.3 0 0 1-1.8-2 4 4 0 0 1-.3-1.3v-.3c0-.6.1-1.1.3-1.6.1-.5.4-.9.7-1.2a3 3 0 0 1 1-.8l1.4-.2c.5 0 1 0 1.4.2l1 .8.5 1.1c.2.5.2 1 .2 1.5v.7h-5.7V24h4.1V24c0-.3 0-.6-.2-.9 0-.2-.2-.4-.5-.6l-.8-.2c-.3 0-.5 0-.8.2-.2 0-.3.2-.5.5l-.3.7-.1 1v.4l.1.9.4.7.6.5.9.1a2.3 2.3 0 0 0 1.8-.9l1 .9-.7.6-1 .5c-.3.2-.7.2-1.2.2Zm7.7 0c-.5 0-1 0-1.4-.2a3.3 3.3 0 0 1-1.9-2 4 4 0 0 1-.2-1.3v-.3c0-.6 0-1.1.2-1.6s.4-.9.7-1.2a3 3 0 0 1 1.1-.8l1.3-.2c.6 0 1 0 1.4.2l1 .8c.3.3.5.7.6 1.1l.2 1.5v.7H143V24h4V24l-.1-.9-.5-.6-.9-.2c-.2 0-.5 0-.7.2-.2 0-.4.2-.5.5l-.4.7V26l.5.7.6.5.8.1a2.3 2.3 0 0 0 1.9-.9l.9.9-.7.6c-.2.2-.5.4-.9.5-.4.2-.8.2-1.3.2Zm9-1.6v-9h1.7v10.5h-1.5l-.2-1.5Zm-4.8-2.1v-.2c0-.5 0-1 .2-1.5s.3-.9.6-1.2a2.5 2.5 0 0 1 2.1-1c.5 0 .9 0 1.2.2l.9.8.5 1.1.3 1.5v.5c0 .5-.1 1-.3 1.4a4 4 0 0 1-.5 1.1 2.5 2.5 0 0 1-2 1 2.6 2.6 0 0 1-2.2-1l-.6-1.2-.2-1.5Zm1.7-.2V26l.4.7c0 .2.3.4.5.5l.7.2c.4 0 .7 0 1-.2l.5-.7c.2-.3.3-.6.3-1v-1.2c0-.3 0-.5-.2-.7a2 2 0 0 0-.3-.6l-.5-.5-.8-.1c-.3 0-.5 0-.7.2l-.5.5c-.2.2-.3.5-.3.8l-.1 1Z"/><path fill="#000" fill-opacity=".4" d="M52.9 41.6v.9h-3.4v-1H53Zm-3-5.8v6.7h-1.2v-6.7h1.1Zm6.8 5.7v-2.4l-.1-.4-.3-.3a1 1 0 0 0-.5-.1h-.5l-.3.3-.1.4h-1.1l.1-.6.4-.5c.2-.1.4-.3.7-.3l.8-.2 1 .2c.3.1.6.3.7.6.2.2.3.6.3 1V42l.2.4v.1h-1.2l-.1-.5v-.5Zm.1-2v.7h-1.3l-.4.2a.7.7 0 0 0-.3.6v.4l.3.2.5.1a1.2 1.2 0 0 0 1-.5l.1-.4.4.5-.2.4c0 .2-.2.3-.3.5a1.7 1.7 0 0 1-1.2.4c-.4 0-.7 0-1-.2l-.5-.5c-.2-.3-.2-.5-.2-.8l.1-.7.5-.5.7-.3 1-.1h.8Zm5.1 1.7v-.3l-.4-.3a3 3 0 0 0-.7-.2l-.7-.2-.6-.3-.3-.4-.1-.6v-.5l.5-.5c.1-.2.3-.3.6-.3l.8-.2 1 .2.7.6c.2.2.3.5.3.8h-1.1l-.1-.4-.3-.2a1 1 0 0 0-.5-.1 1 1 0 0 0-.5 0l-.3.3a.6.6 0 0 0 0 .5l.1.2.4.1.5.2 1 .3.6.5.2.7a1.3 1.3 0 0 1-.5 1 2 2 0 0 1-.7.4H61l-1.2-.1-.7-.7-.2-.8h1l.2.5c.1.2.3.2.4.3h1l.3-.2.1-.3Zm4.5-3.7v.8h-2.8v-.8h2.8Zm-2-1.2h1.2v5.2l.2.1h.3a1.7 1.7 0 0 0 .4 0v.9a2.8 2.8 0 0 1-.7 0H65a1 1 0 0 1-.5-.5l-.1-.8v-4.9Zm8.6 5v-3.8h1.1v5h-1v-1.2Zm.2-1h.4l-.1 1-.4.6c-.1.2-.3.4-.6.5a2 2 0 0 1-.8.2 2 2 0 0 1-.7-.1c-.2 0-.4-.2-.5-.3l-.4-.6V37.5h1v3.7l.3.3.2.1.3.1c.3 0 .6 0 .8-.2l.4-.5v-.7Zm3.4-1.8v6h-1.1v-7h1v1Zm3.2 1.5-.1 1c0 .4-.2.6-.4.9-.1.2-.3.4-.6.5l-.8.2c-.3 0-.6 0-.8-.2-.2 0-.4-.3-.6-.5l-.4-.7-.2-1V40l.2-1 .4-.8a1.7 1.7 0 0 1 1.4-.7c.3 0 .6 0 .8.2.3.1.5.3.6.5l.4.8.1 1Zm-1 0-.1-.7-.2-.5a1 1 0 0 0-1-.5l-.4.1a1 1 0 0 0-.4.3l-.2.4-.1.5v.9l.2.6c0 .2.2.3.4.4.1.2.3.2.6.2l.5-.1.4-.4.2-.5v-.6Zm5.2 1.5v-6h1.1v7h-1v-1ZM80.8 40V40l.1-1c0-.4.2-.6.4-.9a1.7 1.7 0 0 1 1.4-.7c.3 0 .6 0 .8.2l.6.5.4.8.2 1v.3l-.2 1-.4.7a1.6 1.6 0 0 1-1.4.7 1.7 1.7 0 0 1-1.4-.7l-.4-.8-.1-1Zm1-.1.1.7.2.5.4.4.5.1c.2 0 .5 0 .6-.2.2 0 .3-.2.4-.4l.2-.7v-.8l-.1-.5-.3-.4a1 1 0 0 0-.3-.3H83a1 1 0 0 0-.5 0 1 1 0 0 0-.4.4l-.2.5v.7Zm7.5 1.5v-2.4l-.1-.4c0-.2-.2-.3-.3-.3a1 1 0 0 0-.5-.1h-.5l-.3.3v.4h-1.2c0-.2 0-.4.2-.6 0-.2.2-.4.4-.5l.6-.3.9-.2 1 .2c.2.1.5.3.6.6.2.2.3.6.3 1V42l.2.4v.1h-1.2V42l-.1-.5Zm.1-2v.7H88.1l-.4.2a.7.7 0 0 0-.3.6l.1.4s.1.2.3.2l.4.1a1.2 1.2 0 0 0 1-.5l.2-.4.3.5c0 .2 0 .3-.2.4 0 .2-.2.3-.3.5a1.7 1.7 0 0 1-1.2.4c-.3 0-.6 0-.9-.2l-.6-.5-.2-.8.1-.7.5-.5.7-.3 1-.1h.8Zm4.6-2v.8h-2.8v-.8H94Zm-2-1.2h1.1v4.8l.1.4.2.1h.3a1.7 1.7 0 0 0 .4 0v.9a2.8 2.8 0 0 1-.8 0h-.6a1 1 0 0 1-.5-.5l-.2-.8v-4.9Zm5.3 6.3c-.4 0-.7 0-1-.2a2.2 2.2 0 0 1-1.3-1.3l-.1-1V40l.1-1 .5-.9.7-.5 1-.2c.3 0 .6 0 .9.2l.6.5.4.8.2 1v.4h-3.9v-.8h2.8c0-.2 0-.4-.2-.6a1 1 0 0 0-.3-.4 1 1 0 0 0-.6-.2 1 1 0 0 0-.8.5l-.2.5-.1.7v.8l.3.5.5.3.5.1a1.5 1.5 0 0 0 1.3-.6l.6.6-.4.4-.7.4h-.8Zm8.5-6.8v6.7h-1v-5.4l-1.7.6v-1l2.6-1h.1Zm5.6 5.7v-6h1.2v7h-1l-.2-1Zm-3.2-1.4V40l.1-1 .4-.9.6-.5.9-.2c.3 0 .5 0 .8.2l.5.5.4.8.2 1v.3c0 .3 0 .7-.2 1 0 .3-.2.5-.4.7a1.6 1.6 0 0 1-1.3.7 1.7 1.7 0 0 1-1.5-.7l-.4-.8v-1Zm1.1-.1v.7l.3.5c0 .2.2.3.3.4l.5.1c.3 0 .5 0 .7-.2l.3-.4.2-.7v-1.3l-.3-.4a1 1 0 0 0-.4-.3h-.5a1 1 0 0 0-.5 0 1 1 0 0 0-.3.4l-.2.5v.7Zm10 1.5v-2.4l-.1-.4-.3-.3a1 1 0 0 0-.5-.1h-.5l-.3.3-.1.4h-1.1l.1-.6.4-.5c.2-.1.4-.3.7-.3l.8-.2 1 .2c.3.1.6.3.7.6.2.2.3.6.3 1V42l.2.4v.1h-1.2l-.1-.5v-.5Zm.1-2v.7h-1.3l-.4.2a.7.7 0 0 0-.3.6v.4l.3.2.5.1a1.2 1.2 0 0 0 1-.5l.1-.4.4.5-.2.4c0 .2-.2.3-.3.5a1.7 1.7 0 0 1-1.2.4c-.4 0-.7 0-1-.2l-.5-.5-.2-.8.1-.7.5-.5.7-.3 1-.1h.8Zm5.5-2h1v4.9c0 .4 0 .8-.3 1.1-.2.3-.4.6-.8.7a2.7 2.7 0 0 1-1.8.2l-.6-.3c-.3-.1-.4-.3-.6-.5l.5-.6.6.5a1.6 1.6 0 0 0 1.3 0l.5-.5.1-.6v-3.7l.1-1.2Zm-3.4 2.6V40c0-.4 0-.7.2-1 0-.4.2-.6.4-.9.1-.2.3-.4.6-.5l.8-.2c.3 0 .6 0 .8.2.3.1.5.3.6.5l.4.8.2 1v.3l-.2 1-.4.7a1.6 1.6 0 0 1-1.4.7 1.8 1.8 0 0 1-1.4-.7l-.4-.8-.2-1Zm1.1-.1.1.7.2.5.4.4.5.1c.3 0 .5 0 .6-.2.2 0 .3-.2.4-.4l.2-.7v-.8l-.1-.5-.2-.4a1 1 0 0 0-.4-.3h-.5a1 1 0 0 0-.9.4l-.2.5v.7Zm4.5 0 .1-1 .5-.8.7-.6 1-.2 1 .2.7.6.4.8.2 1c0 .4 0 .8-.2 1 0 .4-.2.6-.4.9a2.1 2.1 0 0 1-1.7.7c-.4 0-.7 0-1-.2l-.7-.5-.5-.8a3 3 0 0 1-.1-1Zm1 0 .1.7.2.5.4.4.6.1a1 1 0 0 0 .9-.5l.2-.5v-1.4l-.2-.5a1 1 0 0 0-1-.5 1 1 0 0 0-.5.1 1 1 0 0 0-.4.4l-.2.5v.7Z"/><path fill="#305AD7" d="M32.9 96.3h2.5c1 0 1.8-.2 2.5-.5.6-.4 1.1-.8 1.4-1.4.3-.6.5-1.3.5-2 0-.9-.2-1.6-.5-2.2A3 3 0 0 0 38 89c-.5-.3-1.3-.5-2.1-.5s-1.5.2-2 .5a3.5 3.5 0 0 0-2 3.2h-4.3c0-1.4.4-2.6 1-3.7.8-1 1.8-1.8 3-2.4a10.5 10.5 0 0 1 8.5 0c1.2.4 2.2 1.2 3 2.3.6 1 1 2.4 1 4 0 .7-.2 1.5-.6 2.2-.3.8-.8 1.5-1.5 2-.6.7-1.5 1.2-2.5 1.6-1 .4-2.1.5-3.4.5h-3.2v-2.3Zm0 3.3v-2.3H36c1.5 0 2.7.1 3.8.5 1 .4 2 .8 2.6 1.5.7.6 1.1 1.3 1.5 2 .3.8.4 1.7.4 2.5 0 1.2-.2 2.3-.6 3.2-.4 1-1 1.8-1.8 2.4a8 8 0 0 1-2.8 1.5 11.3 11.3 0 0 1-6.6 0c-1-.3-1.9-.8-2.7-1.4a6.7 6.7 0 0 1-1.9-2.2 7 7 0 0 1-.7-3.2h4.3c0 .8.2 1.4.5 2 .4.6.9 1 1.5 1.4a5 5 0 0 0 2.3.5c.9 0 1.6-.2 2.3-.5.6-.3 1.1-.8 1.4-1.4.4-.6.6-1.4.6-2.3 0-1-.2-1.8-.6-2.4-.4-.6-1-1-1.7-1.4-.7-.3-1.5-.4-2.5-.4H33ZM65 96v4.1c0 2-.2 3.8-.6 5.2a9 9 0 0 1-1.6 3.4c-.8.9-1.7 1.5-2.7 2a9.8 9.8 0 0 1-6.2.2 6.9 6.9 0 0 1-4.1-3.4c-.5-.9-.9-1.9-1.2-3.1-.2-1.2-.3-2.7-.3-4.3v-4.1c0-2 .2-3.8.5-5.1a9 9 0 0 1 1.8-3.4c.7-1 1.6-1.5 2.6-2 1-.3 2.2-.5 3.4-.5 1 0 2 0 2.8.3a6.6 6.6 0 0 1 4.1 3.3c.5.9.9 2 1.2 3.1.2 1.2.3 2.7.3 4.3Zm-4.2 4.7v-5.4c0-1 0-1.9-.2-2.7a8 8 0 0 0-.5-2 4 4 0 0 0-.8-1.3 3 3 0 0 0-1.2-.7c-.4-.2-1-.3-1.5-.3-.6 0-1.2.1-1.7.4-.5.2-1 .6-1.3 1.2-.4.5-.6 1.3-.8 2.2-.2.9-.3 2-.3 3.2v5.4c0 1 0 2 .2 2.8l.5 2c.2.5.5 1 .9 1.4.3.3.7.6 1.1.7l1.5.3a4 4 0 0 0 1.7-.4c.6-.3 1-.7 1.3-1.2.4-.6.7-1.4.8-2.3.2-.9.3-2 .3-3.3Zm24.8-4.7v4.1c0 2-.2 3.8-.6 5.2a9 9 0 0 1-1.7 3.4c-.7.9-1.6 1.5-2.7 2a9.8 9.8 0 0 1-6.2.2 6.9 6.9 0 0 1-4-3.4c-.6-.9-1-1.9-1.2-3.1-.3-1.2-.4-2.7-.4-4.3v-4.1c0-2 .2-3.8.6-5.1a9 9 0 0 1 1.7-3.4c.7-1 1.6-1.5 2.6-2 1-.3 2.2-.5 3.5-.5 1 0 2 0 2.8.3a6.6 6.6 0 0 1 4 3.3c.6.9 1 2 1.2 3.1.3 1.2.4 2.7.4 4.3Zm-4.2 4.7v-5.4l-.2-2.7a8 8 0 0 0-.6-2 4 4 0 0 0-.8-1.3 3 3 0 0 0-1.2-.7 3.9 3.9 0 0 0-3.2.1c-.5.2-1 .6-1.3 1.2-.3.5-.6 1.3-.8 2.2-.2.9-.2 2-.2 3.2v5.4l.1 2.8c.1.8.3 1.4.6 2l.8 1.4c.3.3.7.6 1.2.7a4 4 0 0 0 3.2-.1c.5-.3 1-.7 1.3-1.2.3-.6.6-1.4.8-2.3.2-.9.3-2 .3-3.3Zm17.8-15.4h9c2 0 3.6.3 5 .9 1.4.6 2.4 1.4 3.2 2.6a7.6 7.6 0 0 1 1 4.2c0 1.3-.2 2.4-.6 3.4-.5 1-1.2 1.8-2 2.4-.9.7-1.9 1.2-3 1.6l-1.4.6h-8.2v-3.5h6.1c1 0 2-.2 2.6-.5.7-.4 1.3-1 1.6-1.6a4.9 4.9 0 0 0 0-4.5c-.3-.7-.8-1.2-1.5-1.5a6 6 0 0 0-2.8-.6h-4.6V111h-4.4V85.4Zm14.6 25.6-6-11.5h4.6l6.1 11.3v.2h-4.7Zm17.9-9.5H125V98h6.7a6 6 0 0 0 2.8-.6c.7-.4 1.2-.9 1.5-1.6a5 5 0 0 0 .6-2.2c0-.8-.2-1.6-.6-2.3-.3-.7-.8-1.3-1.5-1.7-.7-.5-1.7-.7-2.8-.7h-5.3V111H122V85.4h9.8c2 0 3.6.4 5 1 1.4.8 2.5 1.7 3.2 3a8 8 0 0 1 1 4.1 8 8 0 0 1-1 4.3 7 7 0 0 1-3.2 2.7c-1.4.6-3 1-5 1Zm15.1-16h4l7.4 19.6 7.3-19.7h4l-9.8 25.6h-3.1l-9.8-25.6Zm-1.8 0h3.8l.6 17v8.5h-4.4V85.4Zm22.5 0h3.8V111H167v-8.5l.6-17Z"/><defs><filter id="a" width="197.4" height="157.4" x="1.3" y="1.3" color-interpolation-filters="sRGB" filterUnits="userSpaceOnUse"><feFlood flood-opacity="0" result="BackgroundImageFix"/><feGaussianBlur in="BackgroundImageFix" stdDeviation="2.4"/><feComposite in2="SourceAlpha" operator="in" result="effect1_backgroundBlur_1518_6340"/><feBlend in="SourceGraphic" in2="effect1_backgroundBlur_1518_6340" result="shape"/></filter></defs></svg>