<svg xmlns="http://www.w3.org/2000/svg" width="200" height="160" fill="none"><rect width="200" height="160" fill="#fff" rx="4"/><rect width="199" height="159" x=".5" y=".5" stroke="#000" stroke-opacity=".1" rx="3.5"/><path fill="#000" fill-opacity=".9" d="M17 15h3.5a5 5 0 0 1 2 .4c.5.2 1 .6 1.2 1 .3.4.4 1 .4 1.6 0 .5 0 1-.3 1.4l-.7 1-1.2.5-.5.3h-3.2v-1.4h2.4c.4 0 .7 0 1-.2l.6-.6.2-.9c0-.3 0-.6-.2-.9l-.6-.6-1-.2h-1.9V25H17V15Zm5.7 10-2.3-4.5h1.8l2.3 4.4v.1h-1.8Zm2.9-3.6v-.2c0-.5 0-1 .2-1.5l.7-1.2a3 3 0 0 1 1-.7l1.5-.3c.6 0 1 0 1.5.3.4.1.8.4 1 .7.4.4.6.8.7 1.2l.3 1.5v.2l-.3 1.5-.6 1.2a3.1 3.1 0 0 1-2.6 1c-.5 0-1 0-1.4-.2a3.5 3.5 0 0 1-1.8-2l-.2-1.5Zm1.6-.2v.2c0 .3 0 .6.2 1 0 .2.1.5.3.7l.5.5c.3.2.5.2.8.2a1.6 1.6 0 0 0 1.4-.7c.1-.2.3-.5.3-.8l.1-1v-1l-.4-.8a1.6 1.6 0 0 0-1.4-.7c-.3 0-.5 0-.8.2l-.5.5c-.2.2-.3.5-.3.8l-.2 1Zm10.3-3.6v1.2h-4.2v-1.2h4.2Zm-3-1.8h1.7v7.7l.4.2h.4a2.5 2.5 0 0 0 .6 0V25a4.2 4.2 0 0 1-1.1.1c-.4 0-.7 0-1-.2-.3-.1-.6-.3-.7-.6-.2-.3-.3-.7-.3-1.2v-7.3Zm8.7 7.7V20c0-.3 0-.5-.2-.7a1 1 0 0 0-.4-.4l-.7-.2-.7.1-.5.4-.1.5h-1.7l.2-.8.7-.7a3 3 0 0 1 1-.5 4 4 0 0 1 1.2-.2c.5 0 1 0 1.5.2.4.2.7.5 1 .9.2.4.3.8.3 1.4v3.3l.1.9.2.7v.1h-1.7a3 3 0 0 1-.1-.7l-.1-.8Zm.2-3v1h-1.1l-.8.1c-.3 0-.5.1-.6.3a1 1 0 0 0-.5.9l.1.5.4.4.7.1a1.8 1.8 0 0 0 1.5-.7l.2-.6.5.8-.2.6a3 3 0 0 1-.6.6 2.6 2.6 0 0 1-1.7.6c-.5 0-1 0-1.3-.3-.4-.1-.7-.4-1-.7a2.4 2.4 0 0 1-.1-2.2l.7-.8 1.1-.4 1.4-.2h1.3Zm6.8-2.9v1.2H46v-1.2h4.2Zm-3-1.8H49v7.7l.4.2h.4a2.5 2.5 0 0 0 .6 0V25a4.2 4.2 0 0 1-1.1.1c-.4 0-.7 0-1-.2-.3-.1-.5-.3-.7-.6-.2-.3-.3-.7-.3-1.2v-7.3Zm6.3 1.8V25h-1.7v-7.4h1.7Zm-1.8-2 .3-.6.7-.2c.3 0 .5 0 .7.2l.2.7c0 .2 0 .4-.2.6a1 1 0 0 1-.7.2 1 1 0 0 1-.7-.2.8.8 0 0 1-.3-.6Zm3.5 5.8v-.2l.3-1.5.6-1.2a3 3 0 0 1 1.1-.7c.4-.2 1-.3 1.5-.3s1 0 1.4.3c.4.1.8.4 1.1.7l.7 1.2.2 1.5v.2c0 .5 0 1-.2 1.5l-.7 1.2a3.1 3.1 0 0 1-2.5 1c-.6 0-1 0-1.5-.2a3.5 3.5 0 0 1-1.8-2l-.2-1.5Zm1.7-.2v1.2l.4.7c.2.2.3.4.6.5.2.2.5.2.8.2a1.6 1.6 0 0 0 1.3-.7l.4-.8v-2l-.4-.8a1.6 1.6 0 0 0-1.3-.7c-.3 0-.6 0-.8.2-.3.1-.4.3-.6.5l-.3.8-.1 1Zm8.5-2V25h-1.7v-7.4h1.6v1.6ZM65 21h-.6c0-.5.1-1 .3-1.4.1-.5.3-.8.6-1.1a2.7 2.7 0 0 1 2.1-1l1 .1.7.5.5.8.2 1.3V25h-1.7v-4.8c0-.3 0-.6-.2-.8a.9.9 0 0 0-.4-.5l-.7-.1a1.6 1.6 0 0 0-1.3.7l-.4.7-.1.8ZM76 23.5V20c0-.3 0-.5-.2-.7a1 1 0 0 0-.4-.4l-.8-.2-.6.1-.5.4-.2.5h-1.6c0-.3 0-.5.2-.8.1-.3.3-.5.6-.7a3 3 0 0 1 1-.5 4 4 0 0 1 1.2-.2c.6 0 1 0 1.5.2.4.2.8.5 1 .9.3.4.4.8.4 1.4v4.2l.3.7v.1h-1.7a3 3 0 0 1-.2-.7v-.8Zm.2-3v1H75l-.8.1-.6.3a1 1 0 0 0-.4.9l.1.5.4.4.6.1a1.8 1.8 0 0 0 1.5-.7l.3-.6.5.8-.3.6a3 3 0 0 1-.5.6 2.6 2.6 0 0 1-1.8.6c-.5 0-.9 0-1.3-.3-.3-.1-.6-.4-.9-.7a2.4 2.4 0 0 1-.1-2.2l.7-.8 1-.4 1.5-.2h1.3Zm5.1-6V25h-1.6V14.5h1.6Zm10 8.5-.1-.4a1 1 0 0 0-.5-.4l-1-.3-1.1-.3-.8-.5c-.3-.1-.4-.3-.6-.6l-.2-.8.2-.9.6-.7.9-.5 1.2-.1c.6 0 1.1 0 1.6.3.4.2.8.5 1 .8.2.4.4.8.4 1.2h-1.7l-.1-.5a1 1 0 0 0-.5-.5l-.7-.1-.7.1a1 1 0 0 0-.4.4.9.9 0 0 0 0 .8l.2.2.4.2.8.2 1.4.5c.4.2.8.4 1 .7.2.3.3.7.3 1.1a2 2 0 0 1-.8 1.6 3 3 0 0 1-1 .5L90 25c-.7 0-1.2 0-1.7-.3s-.8-.6-1-1c-.3-.3-.4-.7-.4-1.1h1.6c0 .3 0 .5.2.7l.6.4.7.1.8-.1c.2 0 .3-.2.4-.3l.2-.5Zm5-4v8.8h-1.7V17.6h1.5l.1 1.4Zm4.8 2.2v.2l-.2 1.5-.6 1.2a2.5 2.5 0 0 1-2.1 1c-.5 0-.9 0-1.2-.2l-.9-.7a4 4 0 0 1-.6-1.2l-.3-1.4v-.5l.3-1.5.6-1.1a2.5 2.5 0 0 1 2-1c.5 0 1 0 1.3.2l1 .8.5 1.2.2 1.5Zm-1.7.2v-1.2l-.4-.7a1.5 1.5 0 0 0-1.3-.7l-.7.1-.5.4a2 2 0 0 0-.4.7l-.1.7V22l.2 1 .6.6 1 .2c.2 0 .5 0 .7-.2.2 0 .4-.3.5-.5.2-.2.3-.5.3-.8l.1-1ZM106 25c-.6 0-1 0-1.5-.2a3.3 3.3 0 0 1-1.8-2 4 4 0 0 1-.3-1.3v-.3c0-.6.1-1.1.3-1.6.1-.5.4-.9.7-1.2a3 3 0 0 1 1-.8l1.4-.2c.5 0 1 0 1.4.2l1 .8.5 1.1c.2.5.2 1 .2 1.5v.7h-5.7v-1.2h4.1v-.1c0-.3 0-.6-.2-.9 0-.2-.2-.4-.5-.6l-.8-.2c-.3 0-.5 0-.8.2-.2 0-.3.2-.5.5l-.3.7-.1 1v.4l.1.9.4.7.6.5.9.1a2.3 2.3 0 0 0 1.8-.9l1 .9-.7.6-1 .5c-.3.2-.7.2-1.2.2Zm7.7 0c-.5 0-1 0-1.5-.2a3.3 3.3 0 0 1-1.8-2 4 4 0 0 1-.2-1.3v-.3c0-.6 0-1.1.2-1.6s.4-.9.7-1.2a3 3 0 0 1 1.1-.8l1.3-.2c.6 0 1 0 1.4.2l1 .8c.3.3.5.7.6 1.1l.2 1.5v.7H111v-1.2h4v-.1l-.1-.9-.5-.6-.9-.2c-.2 0-.5 0-.7.2-.2 0-.4.2-.5.5l-.4.7v2.3l.5.7.6.5.8.1a2.3 2.3 0 0 0 1.9-.9l.9.9-.7.6c-.2.2-.5.4-.9.5-.4.2-.8.2-1.3.2Zm9-1.6v-9h1.7V25h-1.5l-.2-1.5Zm-4.8-2.1v-.2c0-.5 0-1 .2-1.5l.6-1.2a2.5 2.5 0 0 1 2.1-1c.5 0 .9 0 1.2.2l.9.8.5 1.1.3 1.5v.5c0 .5-.1 1-.3 1.4a4 4 0 0 1-.5 1.1 2.5 2.5 0 0 1-2 1 2.6 2.6 0 0 1-2.2-1l-.6-1.2-.2-1.5Zm1.7-.2v1.2l.4.7c0 .2.3.4.5.5l.7.2c.4 0 .7 0 1-.2l.5-.7c.2-.3.3-.6.3-1v-1.2c0-.3 0-.5-.2-.7a2 2 0 0 0-.3-.6l-.5-.5-.8-.1c-.3 0-.5 0-.7.2l-.5.5c-.2.2-.3.5-.3.8l-.1 1Z"/><path fill="#224AC2" d="M23 91.3h2.4c1 0 1.8-.2 2.5-.5.6-.4 1.1-.8 1.4-1.4.4-.6.5-1.3.5-2 0-.9-.1-1.6-.4-2.2A3 3 0 0 0 28 84c-.6-.3-1.3-.5-2.2-.5-.8 0-1.5.2-2 .5a3.5 3.5 0 0 0-2 3.2h-4.3c0-1.4.4-2.6 1.1-3.7.7-1 1.7-1.8 3-2.4 1.2-.6 2.6-1 4.1-1 1.7 0 3.1.3 4.3.9 1.3.5 2.2 1.3 3 2.4.6 1 1 2.4 1 4 0 .7-.2 1.5-.5 2.2-.4.8-.9 1.5-1.6 2-.6.7-1.5 1.2-2.4 1.6-1 .4-2.2.5-3.5.5h-3.2v-2.3Zm0 3.3v-2.3h3c1.6 0 2.9.1 4 .5 1 .4 1.9.8 2.5 1.5.7.6 1.2 1.3 1.5 2a7.5 7.5 0 0 1-.2 5.7c-.4 1-1 1.8-1.8 2.4a8 8 0 0 1-2.8 1.5 11.3 11.3 0 0 1-6.5 0c-1-.3-2-.8-2.7-1.4a6.7 6.7 0 0 1-2-2.2 7 7 0 0 1-.6-3.2h4.2c0 .8.2 1.4.5 2 .4.6.9 1 1.5 1.4a5 5 0 0 0 2.3.5c.9 0 1.7-.2 2.3-.5.6-.3 1.1-.8 1.5-1.4.3-.6.5-1.4.5-2.3 0-1-.2-1.8-.6-2.4-.4-.6-1-1-1.6-1.4-.7-.3-1.6-.4-2.6-.4H23ZM55.1 91v4.1c0 2-.2 3.8-.6 5.2a9 9 0 0 1-1.7 3.4c-.8.9-1.6 1.5-2.7 2a9.8 9.8 0 0 1-6.2.2 6.9 6.9 0 0 1-4.1-3.4c-.5-.9-.9-1.9-1.1-3.1-.3-1.2-.4-2.7-.4-4.3v-4.1c0-2 .2-3.8.6-5.1a9 9 0 0 1 1.7-3.4c.7-1 1.6-1.5 2.6-2 1-.3 2.2-.5 3.5-.5 1 0 2 0 2.8.3a6.6 6.6 0 0 1 4 3.3c.5.9 1 2 1.2 3.1.2 1.2.4 2.7.4 4.3Zm-4.3 4.7v-5.4l-.1-2.7a8 8 0 0 0-.6-2 4 4 0 0 0-.8-1.3 3 3 0 0 0-1.2-.7 3.9 3.9 0 0 0-3.2.1c-.5.2-1 .6-1.3 1.2-.3.5-.6 1.3-.8 2.2-.2.9-.3 2-.3 3.2v5.4c0 1 0 2 .2 2.8l.5 2 .9 1.4c.3.3.7.6 1.1.7l1.5.3a4 4 0 0 0 1.8-.4c.5-.3 1-.7 1.3-1.2.3-.6.6-1.4.8-2.3l.2-3.3Zm24.8-4.7v4.1c0 2-.2 3.8-.6 5.2a9 9 0 0 1-1.7 3.4c-.7.9-1.6 1.5-2.6 2-1 .3-2.2.6-3.5.6-1 0-1.9-.2-2.8-.4a6.9 6.9 0 0 1-4-3.4c-.5-.9-1-1.9-1.2-3.1-.2-1.2-.4-2.7-.4-4.3v-4.1c0-2 .2-3.8.6-5.1a9 9 0 0 1 1.7-3.4c.8-1 1.6-1.5 2.7-2 1-.3 2.1-.5 3.4-.5 1 0 2 0 2.8.3a6.6 6.6 0 0 1 4.1 3.3c.5.9.9 2 1.1 3.1.3 1.2.4 2.7.4 4.3Zm-4.2 4.7v-5.4c0-1 0-1.9-.2-2.7a8 8 0 0 0-.5-2 4 4 0 0 0-.9-1.3 3 3 0 0 0-1.1-.7l-1.5-.3c-.6 0-1.2.1-1.7.4-.6.2-1 .6-1.3 1.2-.4.5-.7 1.3-.9 2.2l-.2 3.2v5.4c0 1 0 2 .2 2.8 0 .7.3 1.4.5 2l.8 1.4a4.2 4.2 0 0 0 2.6 1 4 4 0 0 0 1.8-.4c.5-.3 1-.7 1.3-1.2.4-.6.6-1.4.8-2.3.2-.9.3-2 .3-3.3ZM82.7 89h6c1.4 0 2.5.1 3.4.5.9.4 1.6 1 2 1.8.6.7.8 1.7.8 2.8 0 .8-.1 1.6-.4 2.2-.4.7-.8 1.2-1.4 1.7-.5.4-1.2.7-2 1l-.9.4h-5.4v-2.3h4c.7 0 1.3-.1 1.8-.4.4-.2.8-.6 1-1 .3-.5.4-1 .4-1.5 0-.6-.1-1.1-.4-1.5-.2-.5-.5-.8-1-1a4 4 0 0 0-1.8-.4h-3.1V106h-3V89Zm9.8 17-4-7.7h3l4.1 7.5v.2h-3.1Zm11.8-6.4H100v-2.3h4.4a4 4 0 0 0 2-.4c.4-.2.7-.6 1-1 .2-.4.3-1 .3-1.5 0-.6-.1-1-.3-1.5-.3-.5-.6-.9-1-1.2-.6-.3-1.2-.4-2-.4h-3.5V106h-3V89h6.5c1.4 0 2.5.2 3.4.6a5 5 0 0 1 2.1 2c.5.8.7 1.7.7 2.8 0 1-.2 2-.7 2.8-.5.8-1.2 1.4-2.1 1.8a8 8 0 0 1-3.4.6Zm10-10.7h2.7l5 13.2 4.9-13.2h2.6L123 106h-2.1l-6.5-17Zm-1.1 0h2.5l.4 11.4v5.7h-3V89Zm15 0h2.5V106h-3v-5.7l.5-11.4Z"/><rect width="168" height="6" x="16" y="122" fill="none" rx="3"/><rect width="18" height="6" fill="#234CC7" rx="3" transform="matrix(-1 0 0 1 34 122)"/><path fill="#000" fill-opacity=".5" d="M21.6 139.5v1.2l-.2 1.6-.5 1c-.2.3-.5.5-.8.6l-1 .2a3 3 0 0 1-.8-.1 2 2 0 0 1-.7-.4l-.5-.6-.4-1a7 7 0 0 1 0-1.3v-2.8l.6-1c.2-.4.5-.5.8-.7l1-.1h.8a1.9 1.9 0 0 1 1.2 1c.2.3.3.7.3 1l.2 1.4Zm-1 1.3v-1.5l-.1-1a3 3 0 0 0-.2-.6c0-.2-.2-.4-.3-.5a1 1 0 0 0-.4-.2l-.5-.1-.6.1-.5.4-.3.8v3.6c0 .2 0 .5.2.6 0 .2.1.4.3.5 0 .2.2.2.4.3h1.1l.5-.5.3-.8v-1ZM160 140.3l-.9-.2.4-4h4v1h-3.2l-.2 2.1.6-.2.7-.1c.4 0 .7 0 1 .2l.7.5.5.8.1 1.1-.1 1c-.1.4-.3.6-.5.9a2 2 0 0 1-.7.5l-1.1.2-1-.1-.7-.4-.5-.7c-.2-.3-.2-.6-.3-1h1l.2.8.5.4.8.2.6-.1.5-.4.2-.5a2.5 2.5 0 0 0 0-1.5c0-.2-.1-.4-.3-.5 0-.2-.3-.3-.4-.4l-.7-.1-.8.1-.5.4Zm10-.8v1.2c0 .6 0 1.1-.2 1.6 0 .4-.3.8-.5 1-.2.3-.4.5-.7.6l-1 .2a3 3 0 0 1-.9-.1 2 2 0 0 1-.7-.4l-.5-.6c-.1-.3-.3-.6-.3-1a7 7 0 0 1-.1-1.3v-1.2l.1-1.6c.1-.5.3-.8.5-1 .2-.4.5-.5.8-.7l1-.1h.9a2 2 0 0 1 1.2 1l.3 1 .1 1.4Zm-1 1.3v-2.5l-.2-.6-.3-.5a1 1 0 0 0-.5-.2l-.5-.1-.6.1-.5.4-.2.8-.1 1.1v2.5l.2.6c0 .2.2.4.3.5.1.2.3.2.4.3h1.2l.4-.5c.2-.2.2-.4.3-.8l.1-1Zm7.4-1.3v1.2l-.1 1.6-.5 1c-.2.3-.5.5-.8.6l-1 .2a3 3 0 0 1-.9-.1 2 2 0 0 1-.7-.4l-.5-.6-.3-1a7 7 0 0 1-.1-1.3v-1.2c0-.7 0-1.2.2-1.6 0-.5.2-.8.5-1 .2-.4.4-.5.7-.7l1-.1h.9a1.9 1.9 0 0 1 1.2 1l.3 1 .1 1.4Zm-1 1.3v-2.5a3 3 0 0 0-.2-.6c0-.2-.2-.4-.3-.5a1 1 0 0 0-.4-.2l-.5-.1-.7.1-.4.4c-.2.2-.2.5-.3.8l-.1 1.1v2.5l.2.6.3.5.4.3h1.2l.5-.5.2-.8.1-1Zm7.5-1.3v1.2c0 .6 0 1.1-.2 1.6l-.5 1c-.2.3-.5.5-.8.6l-1 .2a3 3 0 0 1-.8-.1 2 2 0 0 1-.7-.4l-.5-.6-.4-1a7 7 0 0 1 0-1.3v-1.2l.1-1.6c.1-.5.3-.8.5-1 .2-.4.5-.5.8-.7l1-.1h.8a2 2 0 0 1 1.2 1l.4 1v1.4Zm-1 1.3v-2.5l-.3-.6c0-.2-.1-.4-.3-.5a1 1 0 0 0-.4-.2l-.5-.1-.6.1-.5.4-.3.8v3.6c0 .2 0 .5.2.6 0 .2.2.4.3.5 0 .2.2.2.4.3h1.1l.5-.5.3-.8v-1Z"/></svg>