<svg xmlns="http://www.w3.org/2000/svg" width="200" height="160" fill="none"><rect width="200" height="112" y="24" fill="#fff" rx="4"/><rect width="199" height="111" x=".5" y="24.5" stroke="#000" stroke-opacity=".1" rx="3.5"/><path fill="#000" fill-opacity=".9" d="M18.7 39v10H17V39h1.7Zm4 4.4v1.4h-4.4v-1.4h4.5Zm.7-4.4v1.4h-5.1V39h5Zm3.2-.5V49h-1.7V38.5h1.7Zm1.7 6.9v-.2c0-.5 0-1 .2-1.5l.7-1.2a3 3 0 0 1 1-.7l1.5-.3c.6 0 1 0 1.5.3.4.1.8.4 1 .7.4.4.6.8.8 1.2l.2 1.5v.2c0 .5 0 1-.2 1.5l-.7 1.2a3.1 3.1 0 0 1-2.5 1c-.6 0-1 0-1.5-.2a3.6 3.6 0 0 1-1.8-2l-.2-1.5Zm1.7-.2v1.2l.4.7.5.5c.3.2.5.2.9.2a1.6 1.6 0 0 0 1.3-.7c.2-.2.3-.5.3-.8l.1-1v-1l-.4-.8a1.6 1.6 0 0 0-1.4-.7c-.3 0-.5 0-.8.2l-.5.5c-.2.2-.3.5-.3.8l-.1 1Zm8.8 2.2 1.7-5.8h1l-.2 1.7-1.7 5.7h-1l.2-1.6Zm-1-5.8 1.4 5.8V49h-1l-2-7.4h1.6Zm5.4 5.7 1.3-5.7H46L44 49h-1v-1.7Zm-1.4-5.7 1.7 5.7.2 1.7h-1L41 43.3l-.3-1.7h1Zm11 1.4v6h-1.6v-7.4h1.6V43Zm2.3-1.4V43a3.2 3.2 0 0 0-1.4 0 1.4 1.4 0 0 0-.9 1l-.1.6h-.4l.1-1.2.5-1c.1-.4.4-.6.6-.8a1.9 1.9 0 0 1 1.3-.2h.3Zm5.2 6V44l-.1-.7a1 1 0 0 0-.5-.4l-.7-.2-.7.1-.4.4-.2.5h-1.6c0-.3 0-.5.2-.8.1-.3.3-.5.6-.7a3 3 0 0 1 1-.5 4 4 0 0 1 1.2-.2c.6 0 1 0 1.5.2.4.2.8.5 1 .9.2.4.4.8.4 1.4v4.2c0 .3.2.5.3.7v.1h-1.7a3 3 0 0 1-.2-.7v-.8Zm.3-3.1v1h-1.2l-.8.1-.6.3a1 1 0 0 0-.5.9c0 .2 0 .4.2.5 0 .2.2.3.4.4l.6.1a1.8 1.8 0 0 0 1.5-.7l.2-.6.6.8-.3.6a3 3 0 0 1-.5.6 2.6 2.6 0 0 1-1.8.6c-.5 0-1 0-1.3-.3-.4-.1-.7-.4-.9-.7a2.4 2.4 0 0 1-.1-2.2l.7-.8 1-.4 1.5-.2h1.3Zm6.7-2.9v1.2h-4.1v-1.2h4.1Zm-3-1.8H66V47l.1.5.3.2h.4a2.5 2.5 0 0 0 .6 0V49a4.2 4.2 0 0 1-1 .1c-.5 0-.8 0-1.1-.2-.3-.1-.5-.3-.7-.6l-.2-1.2v-7.3Zm7.8 9.3c-.5 0-1 0-1.5-.2a3.3 3.3 0 0 1-1.8-2 4 4 0 0 1-.2-1.3v-.3c0-.6 0-1.1.2-1.6s.4-.9.7-1.2a3 3 0 0 1 1-.8l1.4-.2c.6 0 1 0 1.4.2l1 .8c.3.3.5.7.6 1.1l.2 1.5v.7h-5.7v-1.2h4v-.1l-.1-.9-.5-.6-.9-.2c-.3 0-.5 0-.7.2-.2 0-.4.2-.5.5l-.4.7v2.3l.4.7.7.5.8.1a2.3 2.3 0 0 0 1.9-.9l.9.9-.7.6c-.2.2-.5.4-1 .5-.3.2-.7.2-1.2.2Z"/><path fill="#3FA71A" d="M30.8 113.4v2.6H17.5v-2.3l6.5-7 1.7-2.1c.4-.6.7-1.1.8-1.6a4 4 0 0 0 0-3c-.3-.5-.6-.9-1-1.1a3 3 0 0 0-1.7-.5c-.7 0-1.4.2-1.9.5a3 3 0 0 0-1.1 1.3c-.3.6-.4 1.2-.4 2h-3.3c0-1.2.3-2.3.8-3.2.5-1 1.3-1.8 2.3-2.3 1-.6 2.2-.9 3.6-.9s2.5.2 3.4.7c1 .4 1.7 1 2.1 1.9.5.8.8 1.8.8 2.9l-.3 1.8c-.2.7-.5 1.3-.9 1.9-.3.6-.8 1.2-1.3 1.8l-1.6 1.8-4.3 4.8h9.1Zm15.9-9v3.2a15 15 0 0 1-.5 4 7 7 0 0 1-1.3 2.7c-.6.7-1.3 1.2-2 1.5a7.7 7.7 0 0 1-4.9.2 5.3 5.3 0 0 1-3.2-2.6c-.4-.7-.7-1.5-.9-2.5-.2-1-.3-2-.3-3.3v-3.2c0-1.6.2-3 .5-4s.7-2 1.3-2.6a5 5 0 0 1 2-1.5 7.6 7.6 0 0 1 4.9-.2 5.1 5.1 0 0 1 3.2 2.6c.4.6.7 1.5.9 2.4.2 1 .3 2 .3 3.3Zm-3.3 3.7v-4.2c0-.8 0-1.5-.2-2.1 0-.6-.2-1.1-.4-1.5a3 3 0 0 0-.6-1c-.3-.4-.6-.6-1-.7l-1-.2a3 3 0 0 0-1.4.3c-.4.2-.8.5-1 1a5 5 0 0 0-.7 1.7l-.2 2.5v4.2c0 .8 0 1.5.2 2.1 0 .6.2 1.2.4 1.6.1.4.4.8.6 1l1 .7 1 .1c.6 0 1 0 1.4-.3.4-.2.8-.5 1-1 .3-.4.5-1 .7-1.6l.2-2.6ZM56.3 105.9V116h-2.8v-12.7H56l.2 2.6Zm-.5 3.3h-1c0-.9.2-1.7.4-2.4.2-.8.5-1.4 1-2 .4-.5.9-1 1.5-1.3a5 5 0 0 1 2.2-.4c.6 0 1.1 0 1.6.2s.9.5 1.2.8c.4.4.7.8.9 1.4.2.6.3 1.3.3 2v8.5H61v-8.2c0-.6 0-1.1-.2-1.5-.2-.3-.5-.6-.8-.7-.4-.2-.8-.2-1.2-.2-.6 0-1 0-1.4.3-.4.2-.7.4-.9.8l-.5 1.2-.2 1.5Zm7.9-.8-1.3.3c0-.7 0-1.5.3-2.1.2-.7.5-1.3 1-1.8a4.5 4.5 0 0 1 3.6-1.7c.7 0 1.2 0 1.7.3.6.1 1 .4 1.4.8.3.4.6.8.8 1.4.2.6.3 1.4.3 2.2v8.2h-2.9v-8.2c0-.7 0-1.2-.3-1.5-.1-.4-.4-.6-.7-.7a3.1 3.1 0 0 0-2.4 0l-.8.7a3 3 0 0 0-.6 1l-.1 1.1Zm12.4-5.7h1l.8-.1.5-.4a1 1 0 0 0-.1-1.4c-.2-.2-.6-.3-1.1-.3-.4 0-.7 0-1 .3-.2.1-.4.3-.4.6h-2.1c0-.5.2-1 .5-1.4a3 3 0 0 1 1.2-.9 5.3 5.3 0 0 1 3.6 0c.6.2 1 .5 1.3.9.3.4.4.9.4 1.4 0 .5-.1.9-.4 1.2-.3.4-.7.6-1.1.8-.5.2-1.1.3-1.8.3h-1.3v-1Zm0 1.5v-1h1.3a6 6 0 0 1 1.9.3c.5.2 1 .4 1.2.8.3.3.4.7.4 1.3 0 .6-.2 1-.5 1.5a3 3 0 0 1-1.4.9 5.4 5.4 0 0 1-3.6 0c-.5-.2-1-.5-1.3-.9-.4-.4-.5-1-.5-1.6h2.1c0 .3.1.6.4.8.3.2.7.3 1.2.3s.8-.1 1-.3c.3-.3.5-.5.5-.9 0-.3-.1-.5-.3-.7a1 1 0 0 0-.5-.4l-1-.1h-1Zm14.6-5.3L84 117.5h-2.2l6.7-18.6h2.2Zm4.7-.9v18h-2.8V98h2.8Zm-.5 11.2H94c0-.9.1-1.7.4-2.4.2-.8.5-1.4 1-2a4.5 4.5 0 0 1 3.6-1.7c.6 0 1.2 0 1.7.2s.9.5 1.3.9c.3.4.6.8.8 1.5.2.6.3 1.3.3 2.2v8.1h-2.8v-8.2c0-.6-.1-1-.3-1.4-.2-.4-.4-.6-.8-.8-.3-.2-.7-.2-1.2-.2s-1 0-1.4.3c-.3.2-.7.4-1 .8l-.5 1.2-.2 1.5Zm13.9-3.5V116H106v-12.7h2.7v2.4Zm3.9-2.5v2.7a5.7 5.7 0 0 0-2.5 0 2.4 2.4 0 0 0-1.5 1.6l-.2 1.2h-.6c0-.8 0-1.5.2-2.2a6 6 0 0 1 .7-1.8c.3-.5.7-.9 1.2-1.2a3.2 3.2 0 0 1 2.2-.4l.5.1Z"/><path stroke="#000" stroke-opacity=".9" stroke-width="1.5" d="M187 54c-9.5 0-8.4 56.1-18.2 56.1-8.3 0-9.7-23.8-16.1-23.8-6.5 0-9.3 32.7-17.6 32.7-6.9 0-10.7-6.6-17.1-6.6"/></svg>