<svg xmlns="http://www.w3.org/2000/svg" width="200" height="160" fill="none"><rect width="200" height="112" y="24" fill="#fff" rx="4"/><rect width="199" height="111" x=".5" y="24.5" stroke="#000" stroke-opacity=".1" rx="3.5"/><path fill="#000" fill-opacity=".9" d="M20.4 47.2 23 39h2l-3.6 10H20l.3-1.8ZM18 39l2.6 8.2.4 1.8h-1.3L16 39H18Zm9.9 2.6V49h-1.7v-7.4H28Zm-1.8-2 .3-.6.7-.2c.3 0 .5 0 .7.2l.2.7c0 .2 0 .4-.2.6a1 1 0 0 1-.7.2 1 1 0 0 1-.7-.2.8.8 0 0 1-.3-.6Zm3.9-1.1h1.6v9l-.1 1.5H30V38.5Zm6.4 6.7v.2c0 .5 0 1-.2 1.5 0 .4-.3.8-.5 1.2-.2.3-.5.6-.9.8l-1.2.2c-.5 0-.9 0-1.2-.2-.4-.2-.7-.4-.9-.8l-.6-1.1-.3-1.5v-.4l.3-1.5.6-1.1a2.4 2.4 0 0 1 2-1c.5 0 1 0 1.3.2l1 .8.4 1.2c.2.5.2 1 .2 1.5Zm-1.6.2v-.2l-.1-.9c0-.3-.1-.6-.3-.8 0-.2-.3-.4-.5-.5l-.8-.2-.7.1-.5.5a2 2 0 0 0-.4.6l-.1.7v1.2l.2 1 .6.7 1 .2c.3 0 .5 0 .7-.2l.5-.5c.2-.2.2-.5.3-.8v-1Zm5-2.4v6H38v-7.4h1.6V43Zm2.2-1.4V43a3.2 3.2 0 0 0-1.4 0 1.4 1.4 0 0 0-.9 1l-.1.6h-.4l.1-1.2.4-1c.2-.4.5-.6.7-.8a1.9 1.9 0 0 1 1.3-.2h.3Zm5.2 6V44l-.1-.7a1 1 0 0 0-.5-.4l-.7-.2-.7.1-.5.4-.1.5h-1.7l.2-.8.7-.7a3 3 0 0 1 1-.5 4 4 0 0 1 1.2-.2c.5 0 1 0 1.5.2.4.2.7.5 1 .9.2.4.4.8.4 1.4v4.2l.2.7v.1h-1.7a3 3 0 0 1-.1-.7l-.1-.8Zm.2-3.1v1h-1.1l-.8.1c-.3 0-.5.1-.6.3a1 1 0 0 0-.5.9c0 .2 0 .4.2.5 0 .2.2.3.4.4l.6.1a1.8 1.8 0 0 0 1.5-.7l.2-.6.5.8-.2.6a3 3 0 0 1-.6.6 2.6 2.6 0 0 1-1.7.6c-.5 0-1 0-1.3-.3-.4-.1-.7-.4-1-.7a2.4 2.4 0 0 1-.1-2.2l.7-.8 1.1-.4 1.4-.2h1.3Zm6.8-2.9v1.2H50v-1.2h4.2Zm-3-1.8H53V47l.1.5.3.2h.4a2.5 2.5 0 0 0 .6 0V49a4.2 4.2 0 0 1-1.1.1c-.4 0-.7 0-1-.2-.3-.1-.5-.3-.7-.6-.2-.3-.2-.7-.2-1.2v-7.3Zm6.3 1.8V49h-1.7v-7.4h1.7Zm-1.8-2 .3-.6.7-.2c.3 0 .5 0 .7.2l.2.7c0 .2 0 .4-.2.6a1 1 0 0 1-.7.2 1 1 0 0 1-.7-.2.8.8 0 0 1-.3-.6Zm3.5 5.8v-.2l.3-1.5.6-1.2a3 3 0 0 1 1.1-.7l1.5-.3c.5 0 1 0 1.4.3.5.1.8.4 1.1.7l.7 1.2.2 1.5v.2c0 .5 0 1-.2 1.5l-.7 1.2a3.1 3.1 0 0 1-2.5 1c-.6 0-1 0-1.5-.2a3.5 3.5 0 0 1-1.8-2l-.2-1.5Zm1.7-.2v1.2l.4.7c.2.2.3.4.6.5.2.2.5.2.8.2a1.6 1.6 0 0 0 1.3-.7l.4-.8v-2l-.4-.8a1.6 1.6 0 0 0-1.3-.7c-.3 0-.6 0-.8.2-.3.1-.4.3-.6.5l-.3.8-.1 1Zm8.5-2V49h-1.7v-7.4h1.6v1.6ZM69 45h-.5c0-.5 0-1 .2-1.4.1-.5.3-.8.6-1.1a2.7 2.7 0 0 1 2.1-1l1 .1.7.5.5.8.2 1.3V49h-1.7v-4.8l-.1-.8a.9.9 0 0 0-.5-.5l-.7-.1a1.6 1.6 0 0 0-1.3.7l-.4.7-.1.8Z"/><path fill="#FFA600" d="M31.2 108.9v2.6H17l-.1-2 8.5-13.4H28L25 101l-5 7.9h11.1Zm-2.5-12.8V116h-3.3V96h3.3ZM39.3 105.9V116h-2.8v-12.7H39l.2 2.6Zm-.5 3.3h-1c0-.9.2-1.7.4-2.4.2-.8.5-1.4 1-2 .4-.5.9-1 1.5-1.3a5 5 0 0 1 2.2-.4c.6 0 1.1 0 1.6.2s.9.5 1.2.8c.4.4.7.8.9 1.4.2.6.3 1.3.3 2v8.5H44v-8.2c0-.6 0-1.1-.2-1.5-.2-.3-.5-.6-.8-.7-.4-.2-.8-.2-1.2-.2-.6 0-1 0-1.4.3-.4.2-.7.4-.9.8l-.5 1.2-.2 1.5Zm7.9-.8-1.3.3c0-.7 0-1.5.3-2.1.2-.7.5-1.3 1-1.8a4.5 4.5 0 0 1 3.6-1.7c.7 0 1.2 0 1.7.3.6.1 1 .4 1.4.8.3.4.6.8.8 1.4.2.6.3 1.4.3 2.2v8.2h-2.9v-8.2c0-.7 0-1.2-.3-1.5-.1-.4-.4-.6-.7-.7a3.1 3.1 0 0 0-2.4 0l-.8.7a3 3 0 0 0-.6 1l-.1 1.1Zm13.5-2.5V116h-2.8v-12.7H60l.2 2.6Zm-.5 3.3h-1c0-.9.2-1.7.4-2.4.2-.8.5-1.4 1-2 .4-.5.9-1 1.5-1.3a5 5 0 0 1 2.2-.4c.6 0 1.1 0 1.6.2l1.3.8c.3.4.6.8.8 1.4.2.6.3 1.3.3 2v8.5h-2.9v-8.2c0-.6 0-1.1-.2-1.5-.2-.3-.5-.6-.8-.7-.4-.2-.8-.2-1.2-.2-.6 0-1 0-1.4.3-.4.2-.7.4-.9.8l-.5 1.2-.2 1.5Zm7.9-.8-1.3.3c0-.7 0-1.5.3-2.1.2-.7.5-1.3 1-1.8a4.5 4.5 0 0 1 3.6-1.7c.7 0 1.2 0 1.7.3.6.1 1 .4 1.4.8.3.4.6.8.8 1.4.2.6.3 1.4.3 2.2v8.2h-2.9v-8.2c0-.7 0-1.2-.3-1.5-.1-.4-.4-.6-.7-.7a3.1 3.1 0 0 0-2.4 0l-.8.7a3 3 0 0 0-.5 1c-.2.3-.2.7-.2 1.1Zm18-9.5L79 117.5h-2.2l6.7-18.6h2.2Zm9.2 13.7c0-.3-.1-.6-.3-.8-.1-.2-.4-.4-.8-.6-.4-.2-1-.4-1.7-.5a15 15 0 0 1-1.9-.6l-1.4-.7-1-1a3.3 3.3 0 0 1 0-2.9l1-1.3 1.6-.8c.6-.2 1.3-.3 2-.3 1.1 0 2 .2 2.8.5.7.4 1.3.9 1.7 1.5.4.6.6 1.2.6 2h-2.8c0-.3 0-.6-.2-1-.2-.2-.4-.5-.8-.6-.3-.2-.7-.3-1.2-.3s-1 0-1.3.2l-.7.6a1.5 1.5 0 0 0 0 1.4l.4.4.8.4 1.2.3c1 .2 1.8.5 2.5.8a4 4 0 0 1 1.7 1.2c.3.5.5 1.2.5 2a3.3 3.3 0 0 1-1.4 2.7l-1.6.8-2.1.2c-1.2 0-2.1-.2-3-.6-.7-.4-1.3-1-1.7-1.6-.5-.6-.7-1.3-.7-2h2.8c0 .6.1 1 .4 1.3.3.3.6.5 1 .6.4.2.8.2 1.2.2.5 0 1 0 1.3-.2.3 0 .6-.3.8-.5.2-.3.3-.5.3-.8Z"/><path stroke="#000" stroke-opacity=".9" stroke-width="1.5" d="M187 54c-11.4 0-10 56.1-21.9 56.1-10 0-11.6-23.8-19.4-23.8-7.7 0-11.2 32.7-21.2 32.7-8.2 0-12.7-6.6-20.5-6.6"/></svg>