<svg xmlns="http://www.w3.org/2000/svg" width="200" height="160" fill="none"><rect width="200" height="112" y="24" fill="#fff" rx="4"/><rect width="199" height="111" x=".5" y="24.5" stroke="#000" stroke-opacity=".1" rx="3.5"/><g filter="url(#a)"><rect width="188" height="100" x="6" y="30" fill="#fff" fill-opacity=".8" rx="3"/></g><path fill="#000" fill-opacity=".9" d="M20.8 45.3h-2.6v-1.4h2.6c.4 0 .8 0 1-.2.4-.1.6-.3.7-.6l.2-.9c0-.3 0-.6-.2-.9-.1-.2-.3-.5-.6-.6a2 2 0 0 0-1.1-.3h-2V49H17V39h3.8c.8 0 1.4.2 2 .5.5.2 1 .6 1.2 1 .3.6.4 1 .4 1.7 0 .6-.1 1.2-.4 1.7-.3.4-.7.8-1.2 1-.6.3-1.2.4-2 .4Zm6.9-2.3v6H26v-7.4h1.6V43Zm2.3-1.4V43a3.2 3.2 0 0 0-1.5 0 1.4 1.4 0 0 0-.8 1l-.2.6h-.4c0-.4 0-.8.2-1.2 0-.4.2-.8.4-1 .2-.4.4-.6.7-.8a1.9 1.9 0 0 1 1.3-.2h.3Zm4.4 7.5c-.6 0-1 0-1.5-.2a3.3 3.3 0 0 1-1.8-2 4 4 0 0 1-.3-1.3v-.3c0-.6 0-1.1.3-1.6.1-.5.4-.9.7-1.2a3 3 0 0 1 1-.8l1.4-.2c.5 0 1 0 1.4.2l1 .8.5 1.1c.2.5.2 1 .2 1.5v.7h-5.7v-1.2h4.1v-.1c0-.3 0-.6-.2-.9 0-.2-.2-.4-.5-.6l-.8-.2c-.3 0-.6 0-.8.2-.2 0-.4.2-.5.5-.1.2-.3.4-.3.7l-.1 1v1.3l.5.7.6.5.9.1a2.3 2.3 0 0 0 1.8-.9l.9.9-.6.6-1 .5c-.3.2-.8.2-1.2.2ZM43 47l-.1-.4a1 1 0 0 0-.5-.4l-1-.3-1-.3-1-.5-.5-.6-.1-.8c0-.3 0-.6.2-.9 0-.2.3-.5.5-.7l1-.5 1.1-.1c.6 0 1.2 0 1.6.3.4.2.8.5 1 .8.3.4.4.8.4 1.2h-1.7l-.1-.5a1 1 0 0 0-.5-.5l-.7-.1-.7.1a1 1 0 0 0-.4.4.9.9 0 0 0 0 .8l.2.2.4.2.8.2 1.4.5c.5.2.8.4 1 .7.2.3.3.7.3 1.1a2 2 0 0 1-.8 1.6 3 3 0 0 1-1 .5l-1.2.1c-.6 0-1.2 0-1.7-.3-.4-.3-.8-.6-1-1-.3-.3-.4-.7-.4-1.1h1.6c0 .3.1.5.3.7l.5.4.7.1.8-.1c.2 0 .3-.2.4-.3.2-.2.2-.3.2-.5Zm7.5 0c0-.2 0-.3-.2-.4a1 1 0 0 0-.4-.4l-1-.3-1.1-.3-.9-.5c-.2-.1-.4-.3-.5-.6l-.2-.8c0-.3 0-.6.2-.9l.6-.7.9-.5 1.2-.1c.6 0 1.1 0 1.6.3l1 .8.3 1.2h-1.6c0-.2 0-.4-.2-.5a1 1 0 0 0-.4-.5l-.7-.1-.7.1a1 1 0 0 0-.5.4.9.9 0 0 0 0 .8l.2.2.5.2.7.2 1.5.5 1 .7c.2.3.3.7.3 1.1a2 2 0 0 1-.8 1.6 3 3 0 0 1-1 .5l-1.2.1c-.7 0-1.3 0-1.7-.3-.5-.3-.8-.6-1-1-.3-.3-.4-.7-.4-1.1h1.6c0 .3 0 .5.2.7l.6.4.7.1.7-.1c.2 0 .4-.2.5-.3l.2-.5Zm7.7.3v-5.7H60V49h-1.6v-1.7Zm.3-1.6h.5c0 .5 0 1-.2 1.4 0 .4-.2.8-.5 1-.2.4-.5.6-.8.8a3 3 0 0 1-1.3.2 3 3 0 0 1-1-.1 2 2 0 0 1-.8-.5c-.2-.2-.4-.5-.5-.9a4 4 0 0 1-.2-1.2v-4.8h1.7v5.5l.3.4.4.2.5.1c.5 0 .8 0 1-.3.4-.2.6-.4.7-.7l.2-1Zm5-2.7v6h-1.7v-7.4h1.6V43Zm2.2-1.4V43a3.2 3.2 0 0 0-1.4 0 1.4 1.4 0 0 0-.9 1l-.1.6h-.4c0-.4 0-.8.2-1.2 0-.4.2-.8.4-1 .2-.4.4-.6.7-.8a1.9 1.9 0 0 1 1.3-.2h.2Zm4.4 7.5c-.5 0-1 0-1.4-.2a3.3 3.3 0 0 1-1.9-2 4 4 0 0 1-.2-1.3v-.3c0-.6 0-1.1.2-1.6s.4-.9.7-1.2a3 3 0 0 1 1.1-.8l1.3-.2c.6 0 1 0 1.4.2l1 .8c.3.3.5.7.6 1.1l.2 1.5v.7h-5.7v-1.2h4v-.1l-.1-.9-.5-.6-.9-.2c-.2 0-.5 0-.7.2-.2 0-.4.2-.5.5l-.4.7v2.3l.5.7.6.5.8.1a2.3 2.3 0 0 0 1.9-.9l.9.9-.7.6c-.2.2-.5.4-.9.5-.4.2-.8.2-1.3.2Z"/><path fill="#F36900" d="M25.5 96v20h-3.3v-16l-4.9 1.6v-2.7l7.8-2.9h.4Zm18.2 17.4v2.6H30.4v-2.3l6.5-7 1.6-2.1c.5-.6.7-1.1 1-1.6a4 4 0 0 0-.2-3c-.2-.5-.6-.9-1-1.1a3 3 0 0 0-1.6-.5c-.8 0-1.4.2-1.9.5a3 3 0 0 0-1.1 1.3c-.3.6-.4 1.2-.4 2H30c0-1.2.3-2.3.8-3.2.5-1 1.3-1.8 2.3-2.3 1-.6 2.2-.9 3.6-.9 1.3 0 2.5.2 3.4.7 1 .4 1.6 1 2.1 1.9.5.8.8 1.8.8 2.9l-.3 1.8c-.2.7-.5 1.3-.9 1.9l-1.3 1.8-1.7 1.8-4.3 4.8h9.2ZM49.5 98h2.8v15.3L52 116h-2.5V98Zm11 11.5v.3c0 1 0 1.8-.3 2.6a6 6 0 0 1-.9 2c-.4.6-1 1-1.5 1.4-.6.3-1.4.4-2.2.4-.7 0-1.4-.1-2-.4-.6-.3-1.1-.7-1.5-1.3a7 7 0 0 1-1-2 13 13 0 0 1-.5-2.4v-.8c.1-1 .3-1.8.6-2.5a7 7 0 0 1 .9-2c.4-.5.9-1 1.5-1.3.6-.3 1.2-.4 2-.4s1.5.1 2.2.5c.6.3 1.1.7 1.5 1.3a6 6 0 0 1 1 2c.2.8.3 1.7.3 2.6Zm-2.8.3v-.3l-.1-1.6-.5-1.3c-.2-.4-.5-.7-.8-.9-.4-.2-.8-.3-1.4-.3-.5 0-1 0-1.3.2l-.9.7-.6 1-.2 1.3v2.1c0 .6.2 1.2.4 1.7l1 1.1c.4.3 1 .5 1.6.5.6 0 1-.1 1.4-.4l.8-.8.5-1.4.1-1.6Zm12.4 3.7v-6c0-.5 0-1-.2-1.3l-.8-.7c-.3-.2-.7-.3-1.2-.3s-.9 0-1.2.2a2 2 0 0 0-.8.7c-.2.2-.3.5-.3.9h-2.8c0-.5.1-1 .4-1.5.2-.4.5-.9 1-1.2.5-.4 1-.7 1.7-.9.6-.2 1.3-.3 2.1-.3 1 0 1.8.1 2.5.5.8.3 1.4.8 1.8 1.4.4.7.6 1.5.6 2.4v5.7c0 .5 0 1 .2 1.5 0 .5.2.9.3 1.2v.2h-2.9a5 5 0 0 1-.3-1.2l-.1-1.3Zm.4-5.2v1.7h-2c-.5 0-1 0-1.4.2-.4 0-.7.2-1 .4a1.8 1.8 0 0 0-.8 1.6l.3 1 .6.6 1.1.2a3.1 3.1 0 0 0 2.6-1.2c.2-.4.4-.7.4-1l.9 1.2c0 .3-.3.7-.5 1a5 5 0 0 1-.9 1.1 4.4 4.4 0 0 1-3 1.1c-.8 0-1.6-.1-2.2-.5a4 4 0 0 1-1.5-1.3 4 4 0 0 1-.2-3.7c.2-.5.6-1 1.1-1.3.5-.4 1.1-.7 1.8-.8.8-.2 1.6-.3 2.5-.3h2.2Zm8.2-2.6V116H76v-12.7h2.7l.1 2.4Zm4-2.5-.1 2.7a5.7 5.7 0 0 0-2.4 0 2.4 2.4 0 0 0-1.5 1.6 4 4 0 0 0-.3 1.2h-.6c0-.8 0-1.5.2-2.2a6 6 0 0 1 .7-1.8c.3-.5.7-.9 1.2-1.2a3.2 3.2 0 0 1 2.2-.4l.5.1Z"/><path stroke="#000" stroke-opacity=".9" stroke-width="1.5" d="M187 54c-13.6 0-12 56.1-26.1 56.1-12 0-14-23.8-23.2-23.8S124.4 119 112.5 119c-9.8 0-15.3-6.6-24.5-6.6"/><defs><filter id="a" width="197" height="109" x="1.5" y="25.5" color-interpolation-filters="sRGB" filterUnits="userSpaceOnUse"><feFlood flood-opacity="0" result="BackgroundImageFix"/><feGaussianBlur in="BackgroundImageFix" stdDeviation="2.3"/><feComposite in2="SourceAlpha" operator="in" result="effect1_backgroundBlur_1028_16447"/><feBlend in="SourceGraphic" in2="effect1_backgroundBlur_1028_16447" result="shape"/></filter></defs></svg>