<svg width="200" height="160" viewBox="0 0 200 160" fill="none" xmlns="http://www.w3.org/2000/svg">
<rect x="0.75" y="50.75" width="198.5" height="58.5" rx="3.25" fill="white"/>
<rect x="0.75" y="50.75" width="198.5" height="58.5" rx="3.25" stroke="#00695C" stroke-width="1.5"/>
<path d="M62.1673 89.3333V82.3333H66.834V89.3333H72.6673V80H76.1673L64.5007 69.5L52.834 80H56.334V89.3333H62.1673Z" fill="#00695C"/>
<path d="M90.1953 80.9316H86.21L86.1885 78.9658H89.6689C90.2562 78.9658 90.7539 78.8799 91.1621 78.708C91.5775 78.529 91.8926 78.2747 92.1074 77.9453C92.3223 77.6087 92.4297 77.2041 92.4297 76.7314C92.4297 76.2087 92.3294 75.7826 92.1289 75.4531C91.9284 75.1237 91.6204 74.8838 91.2051 74.7334C90.7969 74.583 90.2741 74.5078 89.6367 74.5078H87.0264V88H84.3301V72.3594H89.6367C90.4961 72.3594 91.2624 72.4417 91.9355 72.6064C92.6159 72.7712 93.1924 73.029 93.665 73.3799C94.1449 73.7236 94.5065 74.1605 94.75 74.6904C95.0007 75.2204 95.126 75.8506 95.126 76.5811C95.126 77.2256 94.972 77.8164 94.6641 78.3535C94.3561 78.8835 93.9014 79.3167 93.2998 79.6533C92.6982 79.9899 91.9499 80.1904 91.0547 80.2549L90.1953 80.9316ZM90.0771 88H85.3613L86.5752 85.8623H90.0771C90.6859 85.8623 91.1943 85.762 91.6025 85.5615C92.0107 85.3538 92.3151 85.071 92.5156 84.7129C92.7233 84.3477 92.8271 83.9215 92.8271 83.4346C92.8271 82.9261 92.7376 82.4857 92.5586 82.1133C92.3796 81.7337 92.0967 81.4437 91.71 81.2432C91.3232 81.0355 90.8184 80.9316 90.1953 80.9316H87.166L87.1875 78.9658H91.1299L91.7422 79.707C92.6016 79.7357 93.307 79.9255 93.8584 80.2764C94.417 80.6273 94.8324 81.082 95.1045 81.6406C95.3766 82.1992 95.5127 82.8008 95.5127 83.4453C95.5127 84.4408 95.2943 85.2751 94.8574 85.9482C94.4277 86.6214 93.8083 87.1335 92.999 87.4844C92.1898 87.8281 91.2158 88 90.0771 88ZM105.216 85.2607V76.377H107.815V88H105.366L105.216 85.2607ZM105.581 82.8438L106.451 82.8223C106.451 83.6029 106.365 84.3226 106.193 84.9814C106.021 85.6331 105.757 86.2025 105.398 86.6895C105.04 87.1693 104.582 87.5452 104.023 87.8174C103.465 88.0824 102.795 88.2148 102.015 88.2148C101.449 88.2148 100.93 88.1325 100.457 87.9678C99.9844 87.8031 99.5762 87.5488 99.2324 87.2051C98.8958 86.8613 98.6344 86.4137 98.4482 85.8623C98.262 85.3109 98.1689 84.652 98.1689 83.8857V76.377H100.758V83.9072C100.758 84.3298 100.808 84.6842 100.908 84.9707C101.008 85.25 101.145 85.4756 101.316 85.6475C101.488 85.8193 101.689 85.9411 101.918 86.0127C102.147 86.0843 102.391 86.1201 102.648 86.1201C103.386 86.1201 103.966 85.9769 104.389 85.6904C104.818 85.3968 105.123 85.0029 105.302 84.5088C105.488 84.0146 105.581 83.4596 105.581 82.8438ZM116.047 76.377V78.2676H109.494V76.377H116.047ZM111.385 73.5303H113.974V84.7881C113.974 85.1462 114.024 85.4219 114.124 85.6152C114.231 85.8014 114.378 85.9268 114.564 85.9912C114.751 86.0557 114.969 86.0879 115.22 86.0879C115.399 86.0879 115.571 86.0771 115.735 86.0557C115.9 86.0342 116.033 86.0127 116.133 85.9912L116.144 87.9678C115.929 88.0322 115.678 88.0895 115.392 88.1396C115.112 88.1898 114.79 88.2148 114.425 88.2148C113.83 88.2148 113.304 88.111 112.846 87.9033C112.387 87.6885 112.029 87.3411 111.771 86.8613C111.514 86.3815 111.385 85.7441 111.385 84.9492V73.5303ZM123.623 76.377V78.2676H117.07V76.377H123.623ZM118.961 73.5303H121.55V84.7881C121.55 85.1462 121.6 85.4219 121.7 85.6152C121.808 85.8014 121.954 85.9268 122.141 85.9912C122.327 86.0557 122.545 86.0879 122.796 86.0879C122.975 86.0879 123.147 86.0771 123.312 86.0557C123.476 86.0342 123.609 86.0127 123.709 85.9912L123.72 87.9678C123.505 88.0322 123.254 88.0895 122.968 88.1396C122.688 88.1898 122.366 88.2148 122.001 88.2148C121.407 88.2148 120.88 88.111 120.422 87.9033C119.964 87.6885 119.605 87.3411 119.348 86.8613C119.09 86.3815 118.961 85.7441 118.961 84.9492V73.5303ZM125.119 82.3174V82.0703C125.119 81.2324 125.241 80.4554 125.484 79.7393C125.728 79.016 126.079 78.3893 126.537 77.8594C127.003 77.3223 127.568 76.9069 128.234 76.6133C128.908 76.3125 129.667 76.1621 130.512 76.1621C131.364 76.1621 132.123 76.3125 132.789 76.6133C133.462 76.9069 134.032 77.3223 134.497 77.8594C134.963 78.3893 135.317 79.016 135.561 79.7393C135.804 80.4554 135.926 81.2324 135.926 82.0703V82.3174C135.926 83.1553 135.804 83.9323 135.561 84.6484C135.317 85.3646 134.963 85.9912 134.497 86.5283C134.032 87.0583 133.466 87.4736 132.8 87.7744C132.134 88.068 131.378 88.2148 130.533 88.2148C129.681 88.2148 128.918 88.068 128.245 87.7744C127.579 87.4736 127.013 87.0583 126.548 86.5283C126.082 85.9912 125.728 85.3646 125.484 84.6484C125.241 83.9323 125.119 83.1553 125.119 82.3174ZM127.708 82.0703V82.3174C127.708 82.8402 127.762 83.3343 127.869 83.7998C127.977 84.2653 128.145 84.6735 128.374 85.0244C128.603 85.3753 128.897 85.651 129.255 85.8516C129.613 86.0521 130.039 86.1523 130.533 86.1523C131.013 86.1523 131.428 86.0521 131.779 85.8516C132.137 85.651 132.431 85.3753 132.66 85.0244C132.889 84.6735 133.058 84.2653 133.165 83.7998C133.28 83.3343 133.337 82.8402 133.337 82.3174V82.0703C133.337 81.5547 133.28 81.0677 133.165 80.6094C133.058 80.1439 132.886 79.7321 132.649 79.374C132.42 79.016 132.127 78.7367 131.769 78.5361C131.418 78.3285 130.999 78.2246 130.512 78.2246C130.025 78.2246 129.602 78.3285 129.244 78.5361C128.893 78.7367 128.603 79.016 128.374 79.374C128.145 79.7321 127.977 80.1439 127.869 80.6094C127.762 81.0677 127.708 81.5547 127.708 82.0703ZM140.913 78.8584V88H138.324V76.377H140.763L140.913 78.8584ZM140.451 81.7588L139.613 81.748C139.62 80.9245 139.735 80.1689 139.957 79.4814C140.186 78.7939 140.501 78.2031 140.902 77.709C141.311 77.2148 141.798 76.8353 142.363 76.5703C142.929 76.2982 143.559 76.1621 144.254 76.1621C144.812 76.1621 145.317 76.2409 145.769 76.3984C146.227 76.5488 146.617 76.7959 146.939 77.1396C147.269 77.4834 147.52 77.931 147.691 78.4824C147.863 79.0267 147.949 79.6963 147.949 80.4912V88H145.35V80.4805C145.35 79.9219 145.267 79.4814 145.103 79.1592C144.945 78.8298 144.712 78.597 144.404 78.4609C144.104 78.3177 143.728 78.2461 143.276 78.2461C142.832 78.2461 142.435 78.3392 142.084 78.5254C141.733 78.7116 141.436 78.9658 141.192 79.2881C140.956 79.6104 140.773 79.9827 140.645 80.4053C140.516 80.8278 140.451 81.279 140.451 81.7588Z" fill="#00695C"/>
</svg>
