<svg width="200" height="160" viewBox="0 0 200 160" fill="none" xmlns="http://www.w3.org/2000/svg">
<rect x="0.75" y="50.75" width="198.5" height="58.5" rx="3.25" fill="white"/>
<rect x="0.75" y="50.75" width="198.5" height="58.5" rx="3.25" stroke="#00695C" stroke-width="1.5"/>
<path d="M65.4997 73V75.3333H75.5213L64.333 86.5217L65.978 88.1667L77.1663 76.9783V87H79.4997V73H65.4997Z" fill="#00695C"/>
<path d="M100.564 83.9717C100.564 83.6494 100.514 83.363 100.414 83.1123C100.321 82.8617 100.153 82.6325 99.9092 82.4248C99.6657 82.2171 99.3219 82.0166 98.8779 81.8232C98.4411 81.6227 97.8825 81.4186 97.2021 81.2109C96.4574 80.9818 95.7699 80.7275 95.1396 80.4482C94.5166 80.1618 93.9723 79.8324 93.5068 79.46C93.0413 79.0804 92.6797 78.6471 92.4219 78.1602C92.1641 77.666 92.0352 77.0967 92.0352 76.4521C92.0352 75.8148 92.1676 75.2347 92.4326 74.7119C92.7048 74.1891 93.0879 73.738 93.582 73.3584C94.0833 72.9717 94.6742 72.6745 95.3545 72.4668C96.0348 72.252 96.7868 72.1445 97.6104 72.1445C98.7705 72.1445 99.7695 72.3594 100.607 72.7891C101.452 73.2188 102.101 73.7952 102.552 74.5186C103.01 75.2419 103.239 76.0404 103.239 76.9141H100.564C100.564 76.3984 100.453 75.9437 100.231 75.5498C100.017 75.1488 99.6872 74.8337 99.2432 74.6045C98.8063 74.3753 98.2513 74.2607 97.5781 74.2607C96.9408 74.2607 96.4108 74.3574 95.9883 74.5508C95.5658 74.7441 95.2507 75.0055 95.043 75.335C94.8353 75.6644 94.7314 76.0368 94.7314 76.4521C94.7314 76.7458 94.7995 77.0143 94.9355 77.2578C95.0716 77.4941 95.2793 77.7161 95.5586 77.9238C95.8379 78.1243 96.1888 78.3141 96.6113 78.4932C97.0339 78.6722 97.5316 78.8441 98.1045 79.0088C98.971 79.2666 99.7266 79.5531 100.371 79.8682C101.016 80.1761 101.553 80.527 101.982 80.9209C102.412 81.3148 102.734 81.7624 102.949 82.2637C103.164 82.7578 103.271 83.32 103.271 83.9502C103.271 84.609 103.139 85.2035 102.874 85.7334C102.609 86.2562 102.229 86.7038 101.735 87.0762C101.248 87.4414 100.661 87.7243 99.9736 87.9248C99.2933 88.1182 98.5342 88.2148 97.6963 88.2148C96.9443 88.2148 96.2031 88.1146 95.4727 87.9141C94.7493 87.7135 94.0905 87.4092 93.4961 87.001C92.9017 86.5856 92.429 86.07 92.0781 85.4541C91.7272 84.8311 91.5518 84.1042 91.5518 83.2734H94.248C94.248 83.7819 94.334 84.2152 94.5059 84.5732C94.6849 84.9313 94.932 85.2249 95.2471 85.4541C95.5622 85.6761 95.9274 85.8408 96.3428 85.9482C96.7653 86.0557 97.2165 86.1094 97.6963 86.1094C98.3265 86.1094 98.8529 86.0199 99.2754 85.8408C99.7051 85.6618 100.027 85.4111 100.242 85.0889C100.457 84.7666 100.564 84.3942 100.564 83.9717ZM110.772 88.2148C109.913 88.2148 109.136 88.0752 108.441 87.7959C107.754 87.5094 107.167 87.112 106.68 86.6035C106.2 86.0951 105.831 85.4971 105.573 84.8096C105.315 84.1221 105.187 83.3809 105.187 82.5859V82.1562C105.187 81.2467 105.319 80.4232 105.584 79.6855C105.849 78.9479 106.218 78.3177 106.69 77.7949C107.163 77.265 107.722 76.8604 108.366 76.5811C109.011 76.3018 109.709 76.1621 110.461 76.1621C111.292 76.1621 112.019 76.3018 112.642 76.5811C113.265 76.8604 113.78 77.2542 114.188 77.7627C114.604 78.264 114.912 78.862 115.112 79.5566C115.32 80.2513 115.424 81.0176 115.424 81.8555V82.9619H106.443V81.1035H112.867V80.8994C112.853 80.4339 112.76 79.9971 112.588 79.5889C112.423 79.1807 112.169 78.8512 111.825 78.6006C111.481 78.3499 111.023 78.2246 110.45 78.2246C110.021 78.2246 109.637 78.3177 109.301 78.5039C108.971 78.6829 108.696 78.9443 108.474 79.2881C108.252 79.6318 108.08 80.0472 107.958 80.5342C107.843 81.014 107.786 81.5547 107.786 82.1562V82.5859C107.786 83.0944 107.854 83.5671 107.99 84.0039C108.133 84.4336 108.341 84.8096 108.613 85.1318C108.885 85.4541 109.215 85.7083 109.602 85.8945C109.988 86.0736 110.429 86.1631 110.923 86.1631C111.546 86.1631 112.101 86.0378 112.588 85.7871C113.075 85.5365 113.497 85.182 113.855 84.7236L115.22 86.0449C114.969 86.4102 114.643 86.7611 114.242 87.0977C113.841 87.4271 113.351 87.6956 112.771 87.9033C112.198 88.111 111.532 88.2148 110.772 88.2148ZM120.261 78.8584V88H117.672V76.377H120.11L120.261 78.8584ZM119.799 81.7588L118.961 81.748C118.968 80.9245 119.083 80.1689 119.305 79.4814C119.534 78.7939 119.849 78.2031 120.25 77.709C120.658 77.2148 121.145 76.8353 121.711 76.5703C122.277 76.2982 122.907 76.1621 123.602 76.1621C124.16 76.1621 124.665 76.2409 125.116 76.3984C125.575 76.5488 125.965 76.7959 126.287 77.1396C126.617 77.4834 126.867 77.931 127.039 78.4824C127.211 79.0267 127.297 79.6963 127.297 80.4912V88H124.697V80.4805C124.697 79.9219 124.615 79.4814 124.45 79.1592C124.293 78.8298 124.06 78.597 123.752 78.4609C123.451 78.3177 123.075 78.2461 122.624 78.2461C122.18 78.2461 121.783 78.3392 121.432 78.5254C121.081 78.7116 120.784 78.9658 120.54 79.2881C120.304 79.6104 120.121 79.9827 119.992 80.4053C119.863 80.8278 119.799 81.279 119.799 81.7588ZM137.279 85.5938V71.5H139.879V88H137.526L137.279 85.5938ZM129.717 82.3174V82.0918C129.717 81.2109 129.821 80.4089 130.028 79.6855C130.236 78.9551 130.537 78.3285 130.931 77.8057C131.325 77.2757 131.804 76.8711 132.37 76.5918C132.936 76.3053 133.573 76.1621 134.282 76.1621C134.984 76.1621 135.6 76.2982 136.13 76.5703C136.66 76.8424 137.111 77.2327 137.483 77.7412C137.856 78.2425 138.153 78.8441 138.375 79.5459C138.597 80.2406 138.755 81.014 138.848 81.8662V82.5859C138.755 83.4167 138.597 84.1758 138.375 84.8633C138.153 85.5508 137.856 86.1452 137.483 86.6465C137.111 87.1478 136.656 87.5345 136.119 87.8066C135.589 88.0788 134.97 88.2148 134.261 88.2148C133.559 88.2148 132.925 88.068 132.359 87.7744C131.801 87.4808 131.325 87.069 130.931 86.5391C130.537 86.0091 130.236 85.3861 130.028 84.6699C129.821 83.9466 129.717 83.1624 129.717 82.3174ZM132.306 82.0918V82.3174C132.306 82.8473 132.352 83.3415 132.445 83.7998C132.546 84.2581 132.7 84.6628 132.907 85.0137C133.115 85.3574 133.383 85.6296 133.713 85.8301C134.049 86.0234 134.451 86.1201 134.916 86.1201C135.503 86.1201 135.987 85.9912 136.366 85.7334C136.746 85.4756 137.043 85.1283 137.258 84.6914C137.48 84.2474 137.63 83.7533 137.709 83.209V81.2646C137.666 80.8421 137.576 80.4482 137.44 80.083C137.312 79.7178 137.136 79.3991 136.914 79.127C136.692 78.8477 136.416 78.6328 136.087 78.4824C135.765 78.3249 135.382 78.2461 134.938 78.2461C134.465 78.2461 134.064 78.3464 133.734 78.5469C133.405 78.7474 133.133 79.0231 132.918 79.374C132.71 79.7249 132.556 80.1331 132.456 80.5986C132.356 81.0641 132.306 81.5618 132.306 82.0918Z" fill="#00695C"/>
</svg>
