<svg width="545" height="164" viewBox="0 0 545 164" fill="none" xmlns="http://www.w3.org/2000/svg">
<path d="M131 50C131 44.4772 135.477 40 141 40H535C540.523 40 545 44.4772 545 50V114C545 119.523 540.523 124 535 124H141C135.477 124 131 119.523 131 114V50Z" fill="#F4F4F4"/>
<path d="M131 50C131 44.4772 135.477 40 141 40H535C540.523 40 545 44.4772 545 50V114C545 119.523 540.523 124 535 124H141C135.477 124 131 119.523 131 114V50Z" fill="white"/>
<path fill-rule="evenodd" clip-rule="evenodd" d="M141 124C140.332 124 139.68 123.935 139.048 123.81C138.884 123.777 138.722 123.741 138.56 123.7C138.398 123.66 138.237 123.615 138.078 123.566C138.207 123.053 138.717 122.725 139.242 122.829C139.81 122.941 140.398 123 141 123H143.526C144.078 123 144.526 123.448 144.526 124H141ZM154.628 124C154.628 123.448 154.181 123 153.628 123H148.577C148.025 123 147.577 123.448 147.577 124H154.628ZM164.731 124C164.731 123.448 164.283 123 163.731 123H158.68C158.127 123 157.68 123.448 157.68 124H164.731ZM174.833 124C174.833 123.448 174.386 123 173.833 123H168.782C168.23 123 167.782 123.448 167.782 124H174.833ZM184.936 124C184.936 123.448 184.488 123 183.936 123H178.885C178.332 123 177.885 123.448 177.885 124H184.936ZM195.039 124C195.039 123.448 194.591 123 194.039 123H188.987C188.435 123 187.987 123.448 187.987 124H195.039ZM205.141 124C205.141 123.448 204.693 123 204.141 123H199.09C198.538 123 198.09 123.448 198.09 124H205.141ZM215.244 124C215.244 123.448 214.796 123 214.244 123H209.192C208.64 123 208.192 123.448 208.192 124H215.244ZM225.346 124C225.346 123.448 224.898 123 224.346 123H219.295C218.743 123 218.295 123.448 218.295 124H225.346ZM235.449 124C235.449 123.448 235.001 123 234.449 123H229.397C228.845 123 228.397 123.448 228.397 124H235.449ZM245.551 124C245.551 123.448 245.104 123 244.551 123H239.5C238.948 123 238.5 123.448 238.5 124H245.551ZM255.654 124C255.654 123.448 255.206 123 254.654 123H249.603C249.05 123 248.603 123.448 248.603 124H255.654ZM265.756 124C265.756 123.448 265.309 123 264.756 123H259.705C259.153 123 258.705 123.448 258.705 124H265.756ZM275.859 124C275.859 123.448 275.411 123 274.859 123H269.808C269.255 123 268.808 123.448 268.808 124H275.859ZM285.961 124C285.961 123.448 285.514 123 284.961 123H279.91C279.358 123 278.91 123.448 278.91 124H285.961ZM296.064 124C296.064 123.448 295.616 123 295.064 123H290.013C289.46 123 289.013 123.448 289.013 124H296.064ZM306.167 124C306.167 123.448 305.719 123 305.167 123H300.115C299.563 123 299.115 123.448 299.115 124H306.167ZM316.269 124C316.269 123.448 315.821 123 315.269 123H310.218C309.666 123 309.218 123.448 309.218 124H316.269ZM326.372 124C326.372 123.448 325.924 123 325.372 123H320.32C319.768 123 319.32 123.448 319.32 124H326.372ZM336.474 124C336.474 123.448 336.027 123 335.474 123H330.423C329.871 123 329.423 123.448 329.423 124H336.474ZM346.577 124C346.577 123.448 346.129 123 345.577 123H340.526C339.973 123 339.526 123.448 339.526 124H346.577ZM356.679 124C356.679 123.448 356.232 123 355.679 123H350.628C350.076 123 349.628 123.448 349.628 124H356.679ZM366.782 124C366.782 123.448 366.334 123 365.782 123H360.731C360.178 123 359.731 123.448 359.731 124H366.782ZM376.885 124C376.885 123.448 376.437 123 375.885 123H370.833C370.281 123 369.833 123.448 369.833 124H376.885ZM386.987 124C386.987 123.448 386.539 123 385.987 123H380.936C380.384 123 379.936 123.448 379.936 124H386.987ZM397.09 124C397.09 123.448 396.642 123 396.09 123H391.038C390.486 123 390.038 123.448 390.038 124H397.09ZM407.192 124C407.192 123.448 406.745 123 406.192 123H401.141C400.589 123 400.141 123.448 400.141 124H407.192ZM417.295 124C417.295 123.448 416.847 123 416.295 123H411.244C410.691 123 410.244 123.448 410.244 124H417.295ZM427.397 124C427.397 123.448 426.95 123 426.397 123H421.346C420.794 123 420.346 123.448 420.346 124H427.397ZM437.5 124C437.5 123.448 437.052 123 436.5 123H431.449C430.896 123 430.449 123.448 430.449 124H437.5ZM447.603 124C447.603 123.448 447.155 123 446.603 123H441.551C440.999 123 440.551 123.448 440.551 124H447.603ZM457.705 124C457.705 123.448 457.257 123 456.705 123H451.654C451.102 123 450.654 123.448 450.654 124H457.705ZM467.808 124C467.808 123.448 467.36 123 466.808 123H461.756C461.204 123 460.756 123.448 460.756 124H467.808ZM477.91 124C477.91 123.448 477.463 123 476.91 123H471.859C471.307 123 470.859 123.448 470.859 124H477.91ZM488.013 124C488.013 123.448 487.565 123 487.013 123H481.962C481.409 123 480.962 123.448 480.962 124H488.013ZM498.115 124C498.115 123.448 497.668 123 497.115 123H492.064C491.512 123 491.064 123.448 491.064 124H498.115ZM508.218 124C508.218 123.448 507.77 123 507.218 123H502.167C501.614 123 501.167 123.448 501.167 124H508.218ZM518.321 124C518.321 123.448 517.873 123 517.321 123H512.269C511.717 123 511.269 123.448 511.269 124H518.321ZM528.423 124C528.423 123.448 527.975 123 527.423 123H522.372C521.82 123 521.372 123.448 521.372 124H528.423ZM537.922 123.566C537.793 123.053 537.283 122.725 536.758 122.829C536.19 122.941 535.602 123 535 123H532.474C531.922 123 531.474 123.448 531.474 124H535C535.668 124 536.32 123.935 536.952 123.81C537.116 123.777 537.278 123.741 537.44 123.7C537.602 123.66 537.763 123.615 537.922 123.566ZM543.83 118.698C543.376 118.426 542.783 118.555 542.485 119C541.827 119.982 540.982 120.827 540 121.485C539.555 121.783 539.426 122.376 539.698 122.83C539.846 122.751 539.991 122.669 540.134 122.583C540.277 122.498 540.418 122.408 540.556 122.316C541.647 121.586 542.586 120.647 543.316 119.556C543.408 119.418 543.498 119.277 543.583 119.134C543.669 118.991 543.751 118.846 543.83 118.698ZM545 110.333C544.448 110.333 544 110.781 544 111.333V114C544 114.602 543.941 115.19 543.829 115.758C543.725 116.283 544.053 116.793 544.566 116.922C544.615 116.763 544.66 116.602 544.7 116.44C544.741 116.278 544.777 116.116 544.81 115.952C544.935 115.32 545 114.668 545 114V110.333ZM545 99.6667C544.448 99.6667 544 100.114 544 100.667V106C544 106.552 544.448 107 545 107V99.6667ZM545 89C544.448 89 544 89.4477 544 90V95.3333C544 95.8856 544.448 96.3333 545 96.3333V89ZM545 78.3333C544.448 78.3333 544 78.781 544 79.3333V84.6667C544 85.2189 544.448 85.6667 545 85.6667V78.3333ZM545 67.6667C544.448 67.6667 544 68.1144 544 68.6667V74C544 74.5523 544.448 75 545 75V67.6667ZM545 57C544.448 57 544 57.4477 544 58V63.3333C544 63.8856 544.448 64.3333 545 64.3333V57ZM544.566 47.0784C544.053 47.2067 543.725 47.7172 543.829 48.2424C543.941 48.8101 544 49.3977 544 50V52.6667C544 53.219 544.448 53.6667 545 53.6667V50C545 49.3321 544.935 48.6796 544.81 48.0484C544.777 47.8843 544.741 47.7216 544.7 47.5605C544.66 47.3982 544.615 47.2374 544.566 47.0784ZM539.698 41.1702C539.426 41.6244 539.555 42.2174 540 42.5153C540.982 43.1727 541.827 44.0183 542.485 45.0002C542.783 45.4452 543.376 45.5743 543.83 45.3016C543.751 45.1542 543.669 45.009 543.583 44.8661C543.498 44.723 543.408 44.5822 543.316 44.4438C542.586 43.3533 541.647 42.4144 540.556 41.6843C540.418 41.5917 540.277 41.5024 540.134 41.4166C539.991 41.331 539.846 41.2488 539.698 41.1702ZM531.474 40C531.474 40.5523 531.922 41 532.474 41H535C535.602 41 536.19 41.059 536.758 41.1713C537.283 41.2752 537.793 40.9473 537.922 40.4335C537.763 40.385 537.602 40.3404 537.44 40.2997C537.278 40.2593 537.116 40.2228 536.952 40.1903C536.32 40.0655 535.668 40 535 40H531.474ZM521.372 40C521.372 40.5523 521.819 41 522.372 41H527.423C527.975 41 528.423 40.5523 528.423 40H521.372ZM511.269 40C511.269 40.5523 511.717 41 512.269 41H517.32C517.873 41 518.32 40.5523 518.32 40H511.269ZM501.167 40C501.167 40.5523 501.614 41 502.167 41H507.218C507.77 41 508.218 40.5523 508.218 40H501.167ZM491.064 40C491.064 40.5523 491.512 41 492.064 41H497.115C497.668 41 498.115 40.5523 498.115 40H491.064ZM480.961 40C480.961 40.5523 481.409 41 481.961 41H487.013C487.565 41 488.013 40.5523 488.013 40H480.961ZM470.859 40C470.859 40.5523 471.307 41 471.859 41H476.91C477.462 41 477.91 40.5523 477.91 40H470.859ZM460.756 40C460.756 40.5523 461.204 41 461.756 41H466.808C467.36 41 467.808 40.5523 467.808 40H460.756ZM450.654 40C450.654 40.5523 451.102 41 451.654 41H456.705C457.257 41 457.705 40.5523 457.705 40H450.654ZM440.551 40C440.551 40.5523 440.999 41 441.551 41H446.603C447.155 41 447.603 40.5523 447.603 40H440.551ZM430.449 40C430.449 40.5523 430.896 41 431.449 41H436.5C437.052 41 437.5 40.5523 437.5 40H430.449ZM420.346 40C420.346 40.5523 420.794 41 421.346 41H426.397C426.95 41 427.397 40.5523 427.397 40H420.346ZM410.244 40C410.244 40.5523 410.691 41 411.244 41H416.295C416.847 41 417.295 40.5523 417.295 40H410.244ZM400.141 40C400.141 40.5523 400.589 41 401.141 41H406.192C406.745 41 407.192 40.5523 407.192 40H400.141ZM390.039 40C390.039 40.5523 390.486 41 391.039 41H396.09C396.642 41 397.09 40.5523 397.09 40H390.039ZM379.936 40C379.936 40.5523 380.384 41 380.936 41H385.987C386.54 41 386.987 40.5523 386.987 40H379.936ZM369.833 40C369.833 40.5523 370.281 41 370.833 41H375.885C376.437 41 376.885 40.5523 376.885 40H369.833ZM359.731 40C359.731 40.5523 360.179 41 360.731 41H365.782C366.334 41 366.782 40.5523 366.782 40H359.731ZM349.628 40C349.628 40.5523 350.076 41 350.628 41H355.68C356.232 41 356.68 40.5523 356.68 40H349.628ZM339.526 40C339.526 40.5523 339.973 41 340.526 41H345.577C346.129 41 346.577 40.5523 346.577 40H339.526ZM329.423 40C329.423 40.5523 329.871 41 330.423 41H335.474C336.027 41 336.474 40.5523 336.474 40H329.423ZM319.321 40C319.321 40.5523 319.768 41 320.321 41H325.372C325.924 41 326.372 40.5523 326.372 40H319.321ZM309.218 40C309.218 40.5523 309.666 41 310.218 41H315.269C315.822 41 316.269 40.5523 316.269 40H309.218ZM299.115 40C299.115 40.5523 299.563 41 300.115 41H305.167C305.719 41 306.167 40.5523 306.167 40H299.115ZM289.013 40C289.013 40.5523 289.461 41 290.013 41H295.064C295.616 41 296.064 40.5523 296.064 40H289.013ZM278.91 40C278.91 40.5523 279.358 41 279.91 41H284.962C285.514 41 285.962 40.5523 285.962 40H278.91ZM268.808 40C268.808 40.5523 269.255 41 269.808 41H274.859C275.411 41 275.859 40.5523 275.859 40H268.808ZM258.705 40C258.705 40.5523 259.153 41 259.705 41H264.756C265.309 41 265.756 40.5523 265.756 40H258.705ZM248.603 40C248.603 40.5523 249.05 41 249.603 41H254.654C255.206 41 255.654 40.5523 255.654 40H248.603ZM238.5 40C238.5 40.5523 238.948 41 239.5 41H244.551C245.104 41 245.551 40.5523 245.551 40H238.5ZM228.397 40C228.397 40.5523 228.845 41 229.397 41H234.449C235.001 41 235.449 40.5523 235.449 40H228.397ZM218.295 40C218.295 40.5523 218.743 41 219.295 41H224.346C224.898 41 225.346 40.5523 225.346 40H218.295ZM208.192 40C208.192 40.5523 208.64 41 209.192 41H214.244C214.796 41 215.244 40.5523 215.244 40H208.192ZM198.09 40C198.09 40.5523 198.537 41 199.09 41H204.141C204.693 41 205.141 40.5523 205.141 40H198.09ZM187.987 40C187.987 40.5523 188.435 41 188.987 41H194.038C194.591 41 195.038 40.5523 195.038 40H187.987ZM177.885 40C177.885 40.5523 178.332 41 178.885 41H183.936C184.488 41 184.936 40.5523 184.936 40H177.885ZM167.782 40C167.782 40.5523 168.23 41 168.782 41H173.833C174.386 41 174.833 40.5523 174.833 40H167.782ZM157.679 40C157.679 40.5523 158.127 41 158.679 41H163.731C164.283 41 164.731 40.5523 164.731 40H157.679ZM147.577 40C147.577 40.5523 148.025 41 148.577 41H153.628C154.18 41 154.628 40.5523 154.628 40H147.577ZM144.526 40C144.526 40.5523 144.078 41 143.526 41H141C140.398 41 139.81 41.059 139.242 41.1713C138.717 41.2752 138.207 40.9473 138.078 40.4335C138.237 40.385 138.398 40.3404 138.56 40.2997C138.722 40.2593 138.884 40.2228 139.048 40.1903C139.68 40.0655 140.332 40 141 40H144.526ZM132.17 45.3016C132.624 45.5743 133.217 45.4452 133.515 45.0002C134.173 44.0183 135.018 43.1727 136 42.5153C136.445 42.2174 136.574 41.6244 136.302 41.1702C136.154 41.2488 136.009 41.331 135.866 41.4166C135.723 41.5024 135.582 41.5917 135.444 41.6843C134.353 42.4144 133.414 43.3533 132.684 44.4438C132.592 44.5822 132.502 44.723 132.417 44.8661C132.331 45.009 132.249 45.1542 132.17 45.3016ZM131 53.6667C131.552 53.6667 132 53.219 132 52.6667V50C132 49.3977 132.059 48.8101 132.171 48.2425C132.275 47.7172 131.947 47.2067 131.434 47.0784C131.385 47.2374 131.34 47.3982 131.3 47.5605C131.259 47.7216 131.223 47.8843 131.19 48.0484C131.065 48.6796 131 49.3321 131 50V53.6667ZM131 64.3333C131.552 64.3333 132 63.8856 132 63.3333V58C132 57.4477 131.552 57 131 57V64.3333ZM131 75C131.552 75 132 74.5523 132 74V68.6667C132 68.1144 131.552 67.6667 131 67.6667V75ZM131 85.6667C131.552 85.6667 132 85.219 132 84.6667V79.3333C132 78.7811 131.552 78.3333 131 78.3333V85.6667ZM131 96.3333C131.552 96.3333 132 95.8856 132 95.3333V90C132 89.4477 131.552 89 131 89V96.3333ZM131 107C131.552 107 132 106.552 132 106V100.667C132 100.114 131.552 99.6667 131 99.6667V107ZM131.434 116.922C131.947 116.793 132.275 116.283 132.171 115.758C132.059 115.19 132 114.602 132 114V111.333C132 110.781 131.552 110.333 131 110.333V114C131 114.668 131.065 115.32 131.19 115.952C131.223 116.116 131.259 116.278 131.3 116.44C131.34 116.602 131.385 116.763 131.434 116.922ZM136.302 122.83C136.574 122.376 136.445 121.783 136 121.485C135.018 120.827 134.173 119.982 133.515 119C133.217 118.555 132.624 118.426 132.17 118.698C132.249 118.846 132.331 118.991 132.417 119.134C132.502 119.277 132.592 119.418 132.684 119.556C133.414 120.647 134.353 121.586 135.444 122.316C135.582 122.408 135.723 122.498 135.866 122.583C136.009 122.669 136.154 122.751 136.302 122.83Z" fill="#B7B7B7"/>
<path d="M151.07 61.6738C151.07 62.4355 150.795 63.0332 150.244 63.4668C149.693 63.9004 148.934 64.1172 147.965 64.1172C146.996 64.1172 146.203 63.9668 145.586 63.666V62.3418C145.977 62.5254 146.391 62.6699 146.828 62.7754C147.27 62.8809 147.68 62.9336 148.059 62.9336C148.613 62.9336 149.021 62.8281 149.283 62.6172C149.549 62.4062 149.682 62.123 149.682 61.7676C149.682 61.4473 149.561 61.1758 149.318 60.9531C149.076 60.7305 148.576 60.4668 147.818 60.1621C147.037 59.8457 146.486 59.4844 146.166 59.0781C145.846 58.6719 145.686 58.1836 145.686 57.6133C145.686 56.8984 145.939 56.3359 146.447 55.9258C146.955 55.5156 147.637 55.3105 148.492 55.3105C149.312 55.3105 150.129 55.4902 150.941 55.8496L150.496 56.9922C149.734 56.6719 149.055 56.5117 148.457 56.5117C148.004 56.5117 147.66 56.6113 147.426 56.8105C147.191 57.0059 147.074 57.2656 147.074 57.5898C147.074 57.8125 147.121 58.0039 147.215 58.1641C147.309 58.3203 147.463 58.4688 147.678 58.6094C147.893 58.75 148.279 58.9355 148.838 59.166C149.467 59.4277 149.928 59.6719 150.221 59.8984C150.514 60.125 150.729 60.3809 150.865 60.666C151.002 60.9512 151.07 61.2871 151.07 61.6738Z" fill="#28232D"/>
<path d="M153.959 64H152.582V57.5195H153.959V64ZM152.5 55.8027C152.5 55.5566 152.566 55.3672 152.699 55.2344C152.836 55.1016 153.029 55.0352 153.279 55.0352C153.521 55.0352 153.709 55.1016 153.842 55.2344C153.979 55.3672 154.047 55.5566 154.047 55.8027C154.047 56.0371 153.979 56.2227 153.842 56.3594C153.709 56.4922 153.521 56.5586 153.279 56.5586C153.029 56.5586 152.836 56.4922 152.699 56.3594C152.566 56.2227 152.5 56.0371 152.5 55.8027Z" fill="#28232D"/>
<path d="M161.635 64H160.252V60.0156C160.252 59.5156 160.15 59.1426 159.947 58.8965C159.748 58.6504 159.43 58.5273 158.992 58.5273C158.41 58.5273 157.984 58.6992 157.715 59.043C157.445 59.3867 157.311 59.9629 157.311 60.7715V64H155.934V57.5195H157.012L157.205 58.3691H157.275C157.471 58.0605 157.748 57.8223 158.107 57.6543C158.467 57.4863 158.865 57.4023 159.303 57.4023C160.857 57.4023 161.635 58.1934 161.635 59.7754V64Z" fill="#28232D"/>
<path d="M169.023 57.5195V58.2754L167.916 58.4805C168.018 58.6172 168.102 58.7852 168.168 58.9844C168.234 59.1836 168.268 59.3945 168.268 59.6172C168.268 60.2852 168.037 60.8105 167.576 61.1934C167.115 61.5762 166.48 61.7676 165.672 61.7676C165.465 61.7676 165.277 61.752 165.109 61.7207C164.812 61.9043 164.664 62.1191 164.664 62.3652C164.664 62.5137 164.732 62.625 164.869 62.6992C165.01 62.7734 165.266 62.8105 165.637 62.8105H166.768C167.482 62.8105 168.025 62.9629 168.396 63.2676C168.768 63.5723 168.953 64.0117 168.953 64.5859C168.953 65.3203 168.65 65.8867 168.045 66.2852C167.439 66.6836 166.564 66.8828 165.42 66.8828C164.537 66.8828 163.863 66.7266 163.398 66.4141C162.934 66.1016 162.701 65.6562 162.701 65.0781C162.701 64.6797 162.826 64.3438 163.076 64.0703C163.33 63.8008 163.684 63.6133 164.137 63.5078C163.953 63.4297 163.801 63.3047 163.68 63.1328C163.562 62.957 163.504 62.7734 163.504 62.582C163.504 62.3398 163.572 62.1348 163.709 61.9668C163.846 61.7988 164.049 61.6328 164.318 61.4688C163.982 61.3242 163.709 61.0898 163.498 60.7656C163.291 60.4375 163.188 60.0547 163.188 59.6172C163.188 58.9141 163.408 58.3691 163.85 57.9824C164.295 57.5957 164.928 57.4023 165.748 57.4023C165.932 57.4023 166.123 57.416 166.322 57.4434C166.525 57.4668 166.678 57.4922 166.779 57.5195H169.023ZM163.932 65.0078C163.932 65.3047 164.064 65.5332 164.33 65.6934C164.6 65.8535 164.977 65.9336 165.461 65.9336C166.211 65.9336 166.77 65.8262 167.137 65.6113C167.504 65.3965 167.688 65.1113 167.688 64.7559C167.688 64.4746 167.586 64.2734 167.383 64.1523C167.184 64.0352 166.811 63.9766 166.264 63.9766H165.221C164.826 63.9766 164.512 64.0684 164.277 64.252C164.047 64.4395 163.932 64.6914 163.932 65.0078ZM164.523 59.6172C164.523 60.0234 164.627 60.3359 164.834 60.5547C165.045 60.7734 165.346 60.8828 165.736 60.8828C166.533 60.8828 166.932 60.457 166.932 59.6055C166.932 59.1836 166.832 58.8594 166.633 58.6328C166.438 58.4023 166.139 58.2871 165.736 58.2871C165.338 58.2871 165.035 58.4004 164.828 58.627C164.625 58.8535 164.523 59.1836 164.523 59.6172Z" fill="#28232D"/>
<path d="M171.607 64H170.23V54.8828H171.607V64Z" fill="#28232D"/>
<path d="M176.412 64.1172C175.404 64.1172 174.615 63.8242 174.045 63.2383C173.479 62.6484 173.195 61.8379 173.195 60.8066C173.195 59.748 173.459 58.916 173.986 58.3105C174.514 57.7051 175.238 57.4023 176.16 57.4023C177.016 57.4023 177.691 57.6621 178.188 58.1816C178.684 58.7012 178.932 59.416 178.932 60.3262V61.0703H174.613C174.633 61.6992 174.803 62.1836 175.123 62.5234C175.443 62.8594 175.895 63.0273 176.477 63.0273C176.859 63.0273 177.215 62.9922 177.543 62.9219C177.875 62.8477 178.23 62.7266 178.609 62.5586V63.6777C178.273 63.8379 177.934 63.9512 177.59 64.0176C177.246 64.084 176.854 64.1172 176.412 64.1172ZM176.16 58.4453C175.723 58.4453 175.371 58.584 175.105 58.8613C174.844 59.1387 174.688 59.543 174.637 60.0742H177.578C177.57 59.5391 177.441 59.1348 177.191 58.8613C176.941 58.584 176.598 58.4453 176.16 58.4453Z" fill="#28232D"/>
<path d="M187.967 62.1543C187.967 62.7871 187.736 63.2734 187.275 63.6133C186.814 63.9492 186.154 64.1172 185.295 64.1172C184.432 64.1172 183.738 63.9863 183.215 63.7246V62.5352C183.977 62.8867 184.686 63.0625 185.342 63.0625C186.189 63.0625 186.613 62.8066 186.613 62.2949C186.613 62.1309 186.566 61.9941 186.473 61.8848C186.379 61.7754 186.225 61.6621 186.01 61.5449C185.795 61.4277 185.496 61.2949 185.113 61.1465C184.367 60.8574 183.861 60.5684 183.596 60.2793C183.334 59.9902 183.203 59.6152 183.203 59.1543C183.203 58.5996 183.426 58.1699 183.871 57.8652C184.32 57.5566 184.93 57.4023 185.699 57.4023C186.461 57.4023 187.182 57.5566 187.861 57.8652L187.416 58.9023C186.717 58.6133 186.129 58.4688 185.652 58.4688C184.926 58.4688 184.562 58.6758 184.562 59.0898C184.562 59.293 184.656 59.4648 184.844 59.6055C185.035 59.7461 185.449 59.9395 186.086 60.1855C186.621 60.3926 187.01 60.582 187.252 60.7539C187.494 60.9258 187.674 61.125 187.791 61.3516C187.908 61.5742 187.967 61.8418 187.967 62.1543Z" fill="#28232D"/>
<path d="M192.291 64.1172C191.283 64.1172 190.494 63.8242 189.924 63.2383C189.357 62.6484 189.074 61.8379 189.074 60.8066C189.074 59.748 189.338 58.916 189.865 58.3105C190.393 57.7051 191.117 57.4023 192.039 57.4023C192.895 57.4023 193.57 57.6621 194.066 58.1816C194.562 58.7012 194.811 59.416 194.811 60.3262V61.0703H190.492C190.512 61.6992 190.682 62.1836 191.002 62.5234C191.322 62.8594 191.773 63.0273 192.355 63.0273C192.738 63.0273 193.094 62.9922 193.422 62.9219C193.754 62.8477 194.109 62.7266 194.488 62.5586V63.6777C194.152 63.8379 193.812 63.9512 193.469 64.0176C193.125 64.084 192.732 64.1172 192.291 64.1172ZM192.039 58.4453C191.602 58.4453 191.25 58.584 190.984 58.8613C190.723 59.1387 190.566 59.543 190.516 60.0742H193.457C193.449 59.5391 193.32 59.1348 193.07 58.8613C192.82 58.584 192.477 58.4453 192.039 58.4453Z" fill="#28232D"/>
<path d="M199.662 57.4023C199.939 57.4023 200.168 57.4219 200.348 57.4609L200.213 58.7441C200.018 58.6973 199.814 58.6738 199.604 58.6738C199.053 58.6738 198.605 58.8535 198.262 59.2129C197.922 59.5723 197.752 60.0391 197.752 60.6133V64H196.375V57.5195H197.453L197.635 58.6621H197.705C197.92 58.2754 198.199 57.9688 198.543 57.7422C198.891 57.5156 199.264 57.4023 199.662 57.4023Z" fill="#28232D"/>
<path d="M203.031 64L200.57 57.5195H202.023L203.342 61.2871C203.568 61.9199 203.705 62.4316 203.752 62.8223H203.799C203.834 62.541 203.971 62.0293 204.209 61.2871L205.527 57.5195H206.992L204.52 64H203.031Z" fill="#28232D"/>
<path d="M210.807 64.1172C209.799 64.1172 209.01 63.8242 208.439 63.2383C207.873 62.6484 207.59 61.8379 207.59 60.8066C207.59 59.748 207.854 58.916 208.381 58.3105C208.908 57.7051 209.633 57.4023 210.555 57.4023C211.41 57.4023 212.086 57.6621 212.582 58.1816C213.078 58.7012 213.326 59.416 213.326 60.3262V61.0703H209.008C209.027 61.6992 209.197 62.1836 209.518 62.5234C209.838 62.8594 210.289 63.0273 210.871 63.0273C211.254 63.0273 211.609 62.9922 211.938 62.9219C212.27 62.8477 212.625 62.7266 213.004 62.5586V63.6777C212.668 63.8379 212.328 63.9512 211.984 64.0176C211.641 64.084 211.248 64.1172 210.807 64.1172ZM210.555 58.4453C210.117 58.4453 209.766 58.584 209.5 58.8613C209.238 59.1387 209.082 59.543 209.031 60.0742H211.973C211.965 59.5391 211.836 59.1348 211.586 58.8613C211.336 58.584 210.992 58.4453 210.555 58.4453Z" fill="#28232D"/>
<path d="M218.178 57.4023C218.455 57.4023 218.684 57.4219 218.863 57.4609L218.729 58.7441C218.533 58.6973 218.33 58.6738 218.119 58.6738C217.568 58.6738 217.121 58.8535 216.777 59.2129C216.438 59.5723 216.268 60.0391 216.268 60.6133V64H214.891V57.5195H215.969L216.15 58.6621H216.221C216.436 58.2754 216.715 57.9688 217.059 57.7422C217.406 57.5156 217.779 57.4023 218.178 57.4023Z" fill="#28232D"/>
<path d="M6 77C6 73.6863 8.68629 71 12 71H101C104.314 71 107 73.6863 107 77V102C107 105.314 104.314 108 101 108H12C8.68629 108 6 105.314 6 102V77Z" fill="white"/>
<path fill-rule="evenodd" clip-rule="evenodd" d="M101 72H12C9.23858 72 7 74.2386 7 77V102C7 104.761 9.23857 107 12 107H101C103.761 107 106 104.761 106 102V77C106 74.2386 103.761 72 101 72ZM12 71C8.68629 71 6 73.6863 6 77V102C6 105.314 8.68629 108 12 108H101C104.314 108 107 105.314 107 102V77C107 73.6863 104.314 71 101 71H12Z" fill="#305680" fill-opacity="0.4"/>
<path d="M3 80C3 76.6863 5.68629 74 9 74H98C101.314 74 104 76.6863 104 80V105C104 108.314 101.314 111 98 111H9C5.68629 111 3 108.314 3 105V80Z" fill="white"/>
<path fill-rule="evenodd" clip-rule="evenodd" d="M98 75H9C6.23858 75 4 77.2386 4 80V105C4 107.761 6.23857 110 9 110H98C100.761 110 103 107.761 103 105V80C103 77.2386 100.761 75 98 75ZM9 74C5.68629 74 3 76.6863 3 80V105C3 108.314 5.68629 111 9 111H98C101.314 111 104 108.314 104 105V80C104 76.6863 101.314 74 98 74H9Z" fill="#305680" fill-opacity="0.4"/>
<path d="M0 83C0 79.6863 2.68629 77 6 77H95C98.3137 77 101 79.6863 101 83V108C101 111.314 98.3137 114 95 114H6C2.68629 114 0 111.314 0 108V83Z" fill="white"/>
<path fill-rule="evenodd" clip-rule="evenodd" d="M95 78H6C3.23858 78 1 80.2386 1 83V108C1 110.761 3.23857 113 6 113H95C97.7614 113 100 110.761 100 108V83C100 80.2386 97.7614 78 95 78ZM6 77C2.68629 77 0 79.6863 0 83V108C0 111.314 2.68629 114 6 114H95C98.3137 114 101 111.314 101 108V83C101 79.6863 98.3137 77 95 77H6Z" fill="#305680" fill-opacity="0.4"/>
<path d="M43.0977 95.6348C43.0977 97.0488 42.7051 98.1309 41.9199 98.8809C41.1348 99.627 40.0039 100 38.5273 100H36.1309V91.4336H38.7793C40.1426 91.4336 41.2031 91.8008 41.9609 92.5352C42.7188 93.2695 43.0977 94.3027 43.0977 95.6348ZM41.6211 95.6816C41.6211 93.6309 40.6621 92.6055 38.7441 92.6055H37.5312V98.8223H38.5273C40.5898 98.8223 41.6211 97.7754 41.6211 95.6816Z" fill="#28232D"/>
<path d="M47.627 100.117C46.6191 100.117 45.8301 99.8242 45.2598 99.2383C44.6934 98.6484 44.4102 97.8379 44.4102 96.8066C44.4102 95.748 44.6738 94.916 45.2012 94.3105C45.7285 93.7051 46.4531 93.4023 47.375 93.4023C48.2305 93.4023 48.9062 93.6621 49.4023 94.1816C49.8984 94.7012 50.1465 95.416 50.1465 96.3262V97.0703H45.8281C45.8477 97.6992 46.0176 98.1836 46.3379 98.5234C46.6582 98.8594 47.1094 99.0273 47.6914 99.0273C48.0742 99.0273 48.4297 98.9922 48.7578 98.9219C49.0898 98.8477 49.4453 98.7266 49.8242 98.5586V99.6777C49.4883 99.8379 49.1484 99.9512 48.8047 100.018C48.4609 100.084 48.0684 100.117 47.627 100.117ZM47.375 94.4453C46.9375 94.4453 46.5859 94.584 46.3203 94.8613C46.0586 95.1387 45.9023 95.543 45.8516 96.0742H48.793C48.7852 95.5391 48.6562 95.1348 48.4062 94.8613C48.1562 94.584 47.8125 94.4453 47.375 94.4453Z" fill="#28232D"/>
<path d="M53.1875 100L50.7266 93.5195H52.1797L53.498 97.2871C53.7246 97.9199 53.8613 98.4316 53.9082 98.8223H53.9551C53.9902 98.541 54.127 98.0293 54.3652 97.2871L55.6836 93.5195H57.1484L54.6758 100H53.1875Z" fill="#28232D"/>
<path d="M59.5098 100H58.1328V93.5195H59.5098V100ZM58.0508 91.8027C58.0508 91.5566 58.1172 91.3672 58.25 91.2344C58.3867 91.1016 58.5801 91.0352 58.8301 91.0352C59.0723 91.0352 59.2598 91.1016 59.3926 91.2344C59.5293 91.3672 59.5977 91.5566 59.5977 91.8027C59.5977 92.0371 59.5293 92.2227 59.3926 92.3594C59.2598 92.4922 59.0723 92.5586 58.8301 92.5586C58.5801 92.5586 58.3867 92.4922 58.25 92.3594C58.1172 92.2227 58.0508 92.0371 58.0508 91.8027Z" fill="#28232D"/>
<path d="M64.0977 100.117C63.1172 100.117 62.3711 99.832 61.8594 99.2617C61.3516 98.6875 61.0977 97.8652 61.0977 96.7949C61.0977 95.7051 61.3633 94.8672 61.8945 94.2812C62.4297 93.6953 63.2012 93.4023 64.209 93.4023C64.8926 93.4023 65.5078 93.5293 66.0547 93.7832L65.6387 94.8906C65.0566 94.6641 64.5762 94.5508 64.1973 94.5508C63.0762 94.5508 62.5156 95.2949 62.5156 96.7832C62.5156 97.5098 62.6543 98.0566 62.9316 98.4238C63.2129 98.7871 63.623 98.9688 64.1621 98.9688C64.7754 98.9688 65.3555 98.8164 65.9023 98.5117V99.7129C65.6562 99.8574 65.3926 99.9609 65.1113 100.023C64.834 100.086 64.4961 100.117 64.0977 100.117Z" fill="#28232D"/>
<path d="M70.2559 100.117C69.248 100.117 68.459 99.8242 67.8887 99.2383C67.3223 98.6484 67.0391 97.8379 67.0391 96.8066C67.0391 95.748 67.3027 94.916 67.8301 94.3105C68.3574 93.7051 69.082 93.4023 70.0039 93.4023C70.8594 93.4023 71.5352 93.6621 72.0312 94.1816C72.5273 94.7012 72.7754 95.416 72.7754 96.3262V97.0703H68.457C68.4766 97.6992 68.6465 98.1836 68.9668 98.5234C69.2871 98.8594 69.7383 99.0273 70.3203 99.0273C70.7031 99.0273 71.0586 98.9922 71.3867 98.9219C71.7188 98.8477 72.0742 98.7266 72.4531 98.5586V99.6777C72.1172 99.8379 71.7773 99.9512 71.4336 100.018C71.0898 100.084 70.6973 100.117 70.2559 100.117ZM70.0039 94.4453C69.5664 94.4453 69.2148 94.584 68.9492 94.8613C68.6875 95.1387 68.5312 95.543 68.4805 96.0742H71.4219C71.4141 95.5391 71.2852 95.1348 71.0352 94.8613C70.7852 94.584 70.4414 94.4453 70.0039 94.4453Z" fill="#28232D"/>
<path d="M78.6934 98.1543C78.6934 98.7871 78.4629 99.2734 78.002 99.6133C77.541 99.9492 76.8809 100.117 76.0215 100.117C75.1582 100.117 74.4648 99.9863 73.9414 99.7246V98.5352C74.7031 98.8867 75.4121 99.0625 76.0684 99.0625C76.916 99.0625 77.3398 98.8066 77.3398 98.2949C77.3398 98.1309 77.293 97.9941 77.1992 97.8848C77.1055 97.7754 76.9512 97.6621 76.7363 97.5449C76.5215 97.4277 76.2227 97.2949 75.8398 97.1465C75.0938 96.8574 74.5879 96.5684 74.3223 96.2793C74.0605 95.9902 73.9297 95.6152 73.9297 95.1543C73.9297 94.5996 74.1523 94.1699 74.5977 93.8652C75.0469 93.5566 75.6562 93.4023 76.4258 93.4023C77.1875 93.4023 77.9082 93.5566 78.5879 93.8652L78.1426 94.9023C77.4434 94.6133 76.8555 94.4688 76.3789 94.4688C75.6523 94.4688 75.2891 94.6758 75.2891 95.0898C75.2891 95.293 75.3828 95.4648 75.5703 95.6055C75.7617 95.7461 76.1758 95.9395 76.8125 96.1855C77.3477 96.3926 77.7363 96.582 77.9785 96.7539C78.2207 96.9258 78.4004 97.125 78.5176 97.3516C78.6348 97.5742 78.6934 97.8418 78.6934 98.1543Z" fill="#28232D"/>
<path fill-rule="evenodd" clip-rule="evenodd" d="M17 89.5C17 89.2239 17.2239 89 17.5 89C17.7761 89 18 89.2239 18 89.5V91H20V89.5C20 89.2239 20.2239 89 20.5 89C20.7761 89 21 89.2239 21 89.5V91H22C23.1046 91 24 91.8954 24 93V94H25.5C25.7761 94 26 94.2239 26 94.5C26 94.7761 25.7761 95 25.5 95H24V97H25.5C25.7761 97 26 97.2239 26 97.5C26 97.7761 25.7761 98 25.5 98H24V99C24 100.105 23.1046 101 22 101H21V102.5C21 102.776 20.7761 103 20.5 103C20.2239 103 20 102.776 20 102.5V101H18V102.5C18 102.776 17.7761 103 17.5 103C17.2239 103 17 102.776 17 102.5V101H16C14.8954 101 14 100.105 14 99V98H12.5C12.2239 98 12 97.7761 12 97.5C12 97.2239 12.2239 97 12.5 97H14V95H12.5C12.2239 95 12 94.7761 12 94.5C12 94.2239 12.2239 94 12.5 94H14V93C14 91.8954 14.8954 91 16 91H17V89.5ZM17 96C17 94.8954 17.8954 94 19 94C20.1046 94 21 94.8954 21 96C21 97.1046 20.1046 98 19 98C17.8954 98 17 97.1046 17 96ZM19 95C18.4477 95 18 95.4477 18 96C18 96.5523 18.4477 97 19 97C19.5523 97 20 96.5523 20 96C20 95.4477 19.5523 95 19 95Z" fill="#305680"/>
<path d="M139 83C139 79.6863 141.686 77 145 77H233C236.314 77 239 79.6863 239 83V108C239 111.314 236.314 114 233 114H145C141.686 114 139 111.314 139 108V83Z" fill="#F7F8FA"/>
<path fill-rule="evenodd" clip-rule="evenodd" d="M233 78H145C142.239 78 140 80.2386 140 83V108C140 110.761 142.239 113 145 113H233C235.761 113 238 110.761 238 108V83C238 80.2386 235.761 78 233 78ZM145 77C141.686 77 139 79.6863 139 83V108C139 111.314 141.686 114 145 114H233C236.314 114 239 111.314 239 108V83C239 79.6863 236.314 77 233 77H145Z" fill="#305680" fill-opacity="0.4"/>
<path d="M183.682 100H182.686V95.9688H178.174V100H177.178V91.4336H178.174V95.0781H182.686V91.4336H183.682V100Z" fill="#28232D"/>
<path d="M191.422 100L190.355 97.2754H186.922L185.867 100H184.859L188.246 91.3984H189.084L192.453 100H191.422ZM190.045 96.3789L189.049 93.7246C188.92 93.3887 188.787 92.9766 188.65 92.4883C188.564 92.8633 188.441 93.2754 188.281 93.7246L187.273 96.3789H190.045Z" fill="#28232D"/>
<path d="M199.062 93.9297C199.062 94.7969 198.766 95.4648 198.172 95.9336C197.582 96.3984 196.736 96.6309 195.635 96.6309H194.627V100H193.631V91.4336H195.852C197.992 91.4336 199.062 92.2656 199.062 93.9297ZM194.627 95.7754H195.523C196.406 95.7754 197.045 95.6328 197.439 95.3477C197.834 95.0625 198.031 94.6055 198.031 93.9766C198.031 93.4102 197.846 92.9883 197.475 92.7109C197.104 92.4336 196.525 92.2949 195.74 92.2949H194.627V95.7754Z" fill="#28232D"/>
<path d="M203.645 93.4609C203.93 93.4609 204.186 93.4844 204.412 93.5312L204.277 94.4336C204.012 94.375 203.777 94.3457 203.574 94.3457C203.055 94.3457 202.609 94.5566 202.238 94.9785C201.871 95.4004 201.688 95.9258 201.688 96.5547V100H200.715V93.5781H201.518L201.629 94.7676H201.676C201.914 94.3496 202.201 94.0273 202.537 93.8008C202.873 93.5742 203.242 93.4609 203.645 93.4609Z" fill="#28232D"/>
<path d="M211.156 96.7832C211.156 97.8301 210.893 98.6484 210.365 99.2383C209.838 99.8242 209.109 100.117 208.18 100.117C207.605 100.117 207.096 99.9824 206.65 99.7129C206.205 99.4434 205.861 99.0566 205.619 98.5527C205.377 98.0488 205.256 97.459 205.256 96.7832C205.256 95.7363 205.518 94.9219 206.041 94.3398C206.564 93.7539 207.291 93.4609 208.221 93.4609C209.119 93.4609 209.832 93.7598 210.359 94.3574C210.891 94.9551 211.156 95.7637 211.156 96.7832ZM206.264 96.7832C206.264 97.6035 206.428 98.2285 206.756 98.6582C207.084 99.0879 207.566 99.3027 208.203 99.3027C208.84 99.3027 209.322 99.0898 209.65 98.6641C209.982 98.2344 210.148 97.6074 210.148 96.7832C210.148 95.9668 209.982 95.3477 209.65 94.9258C209.322 94.5 208.836 94.2871 208.191 94.2871C207.555 94.2871 207.074 94.4961 206.75 94.9141C206.426 95.332 206.264 95.9551 206.264 96.7832Z" fill="#28232D"/>
<path d="M214.414 96.7129L212.182 93.5781H213.289L214.982 96.0391L216.67 93.5781H217.766L215.533 96.7129L217.883 100H216.781L214.982 97.3984L213.166 100H212.064L214.414 96.7129Z" fill="#28232D"/>
<path d="M218.141 93.5781H219.184L220.59 97.2402C220.898 98.0762 221.09 98.6797 221.164 99.0508H221.211C221.262 98.8516 221.367 98.5117 221.527 98.0312C221.691 97.5469 222.223 96.0625 223.121 93.5781H224.164L221.404 100.891C221.131 101.613 220.811 102.125 220.443 102.426C220.08 102.73 219.633 102.883 219.102 102.883C218.805 102.883 218.512 102.85 218.223 102.783V102.004C218.438 102.051 218.678 102.074 218.943 102.074C219.611 102.074 220.088 101.699 220.373 100.949L220.73 100.035L218.141 93.5781Z" fill="#28232D"/>
<path fill-rule="evenodd" clip-rule="evenodd" d="M163 89H161V91H158V89H156V91H158V94H155V92H153V94H155V97H153V99H155V97H158V100H156V102H158V100H161V102H163V100H161V97H164V99H166V97H164V94H166V92H164V94H161V91H163V89ZM161 94V97H158V94H161Z" fill="#305680"/>
<path fill-rule="evenodd" clip-rule="evenodd" d="M138 95L108 95V96L138 96V95Z" fill="#28232D"/>
<path d="M104.17 96.3192C103.602 95.9211 103.602 95.0789 104.17 94.6808L106.427 93.1014C107.089 92.6375 108 93.1116 108 93.9207V97.0793C108 97.8884 107.089 98.3625 106.427 97.8986L104.17 96.3192Z" fill="#28232D"/>
<path d="M137.83 94.6808C138.398 95.0789 138.398 95.9211 137.83 96.3192L135.574 97.8986C134.911 98.3625 134 97.8884 134 97.0793V93.9207C134 93.1116 134.911 92.6375 135.574 93.1014L137.83 94.6808Z" fill="#28232D"/>
<path d="M269 83C269 79.6863 271.686 77 275 77H385C388.314 77 391 79.6863 391 83V108C391 111.314 388.314 114 385 114H275C271.686 114 269 111.314 269 108V83Z" fill="#305680"/>
<path fill-rule="evenodd" clip-rule="evenodd" d="M281.611 92.2594C281.508 92.3671 281.448 92.5159 281.455 92.6792C281.462 92.8206 281.518 92.9572 281.617 93.0608C282.088 93.5349 283.016 94.4593 283.016 94.4593L283.836 93.6412C283.836 93.6412 282.938 92.7449 282.44 92.2463C282.329 92.1334 282.18 92.0863 282.024 92.0856C281.861 92.0848 281.715 92.1516 281.611 92.2593L281.611 92.2594ZM283.836 93.6412L281.301 96.175C281.026 96.4499 281.026 96.8956 281.301 97.1706L282.557 98.4262L284.754 100.622L286.863 102.73C287.138 103.005 287.584 103.005 287.859 102.73L289.574 101.015L292.198 98.3934L294.733 95.8596C295.008 95.5847 295.008 95.1389 294.733 94.864L293.443 93.5771L291.246 91.3814L289.17 89.3065C288.895 89.0316 288.449 89.0316 288.174 89.3065L286.459 91.0209L283.836 93.6428L283.836 93.6412ZM286.459 91.0193C286.459 91.0193 285.561 90.123 285.063 89.6245C284.952 89.5116 284.804 89.4645 284.647 89.4638C284.321 89.4622 284.063 89.7308 284.079 90.0573C284.085 90.1987 284.142 90.3353 284.24 90.4389C284.711 90.913 285.639 91.8374 285.639 91.8374L286.459 91.0193L286.459 91.0193ZM291.247 91.3799C291.247 91.3799 292.143 90.4827 292.642 89.9846C292.755 89.8737 292.802 89.7253 292.803 89.5688C292.805 89.2427 292.536 88.9856 292.209 89.0006C292.068 89.0073 291.931 89.0638 291.827 89.1623C291.353 89.6329 290.428 90.5608 290.428 90.5608L291.247 91.3798L291.247 91.3799ZM293.444 93.5757C293.444 93.5757 294.34 92.6785 294.839 92.1804C294.952 92.0695 294.999 91.9211 295 91.7647C295.002 91.4385 294.733 91.1814 294.406 91.1965C294.265 91.2031 294.128 91.2596 294.024 91.3581C293.55 91.8287 292.625 92.7566 292.625 92.7566L293.444 93.5757L293.444 93.5757ZM292.197 98.3933C292.197 98.3933 293.095 99.2896 293.594 99.788C293.705 99.9009 293.853 99.948 294.01 99.9487C294.336 99.9503 294.593 99.6817 294.578 99.3552L294.578 99.3553C294.571 99.2139 294.515 99.0772 294.416 98.9737C293.945 98.4996 293.017 97.5752 293.017 97.5752L292.197 98.3933L292.197 98.3933ZM289.574 101.015C289.574 101.015 290.472 101.911 290.97 102.41C291.081 102.523 291.23 102.57 291.386 102.571C291.713 102.572 291.97 102.304 291.955 101.977H291.955C291.948 101.836 291.891 101.699 291.793 101.595C291.322 101.121 290.394 100.197 290.394 100.197L289.574 101.015L289.574 101.015ZM284.753 100.62C284.753 100.62 283.857 101.517 283.358 102.015C283.245 102.126 283.198 102.275 283.197 102.431C283.196 102.757 283.464 103.014 283.791 102.999H283.791C283.932 102.993 284.069 102.936 284.173 102.838C284.647 102.367 285.572 101.439 285.572 101.439L284.754 100.624L284.753 100.62ZM282.556 98.4242C282.556 98.4242 281.66 99.3213 281.161 99.8196C281.048 99.9303 281.001 100.079 281 100.235C280.998 100.561 281.267 100.818 281.594 100.805H281.594C281.735 100.798 281.872 100.742 281.976 100.643C282.45 100.173 283.375 99.2448 283.375 99.2448L282.556 98.4244L282.556 98.4242ZM288.592 92.1618C288.708 92.0438 288.866 91.9778 289.028 91.9802C289.143 91.9818 289.253 92.0182 289.343 92.0846L290.485 92.9213C290.706 93.0802 290.772 93.3818 290.639 93.6344C290.507 93.887 290.216 94.0165 289.951 93.9403L290.374 95.5964C290.451 95.8973 290.266 96.2165 289.961 96.3098L286.872 97.2525L287.442 99.4573C287.523 99.7594 287.338 100.083 287.03 100.177C286.722 100.271 286.409 100.1 286.334 99.7962L285.622 97.0461C285.544 96.7449 285.729 96.4247 286.036 96.3312L289.126 95.3881L288.841 94.2735C288.649 94.4854 288.34 94.5369 288.108 94.3953C287.876 94.2538 287.789 93.9604 287.901 93.7005L288.463 92.3552C288.493 92.2835 288.537 92.2177 288.592 92.1618L288.592 92.1618Z" fill="white"/>
<path d="M308.09 100H306.689V92.6348H304.17V91.4336H310.609V92.6348H308.09V100Z" fill="white"/>
<path d="M317.482 100H316.1V96.0156C316.1 95.5156 315.998 95.1426 315.795 94.8965C315.596 94.6504 315.277 94.5273 314.84 94.5273C314.262 94.5273 313.836 94.7012 313.562 95.0488C313.293 95.3926 313.158 95.9707 313.158 96.7832V100H311.781V90.8828H313.158V93.1973C313.158 93.5684 313.135 93.9648 313.088 94.3867H313.176C313.363 94.0742 313.623 93.832 313.955 93.6602C314.291 93.4883 314.682 93.4023 315.127 93.4023C316.697 93.4023 317.482 94.1934 317.482 95.7754V100Z" fill="white"/>
<path d="M320.775 100H319.398V93.5195H320.775V100ZM319.316 91.8027C319.316 91.5566 319.383 91.3672 319.516 91.2344C319.652 91.1016 319.846 91.0352 320.096 91.0352C320.338 91.0352 320.525 91.1016 320.658 91.2344C320.795 91.3672 320.863 91.5566 320.863 91.8027C320.863 92.0371 320.795 92.2227 320.658 92.3594C320.525 92.4922 320.338 92.5586 320.096 92.5586C319.846 92.5586 319.652 92.4922 319.516 92.3594C319.383 92.2227 319.316 92.0371 319.316 91.8027Z" fill="white"/>
<path d="M328.451 100H327.068V96.0156C327.068 95.5156 326.967 95.1426 326.764 94.8965C326.564 94.6504 326.246 94.5273 325.809 94.5273C325.227 94.5273 324.801 94.6992 324.531 95.043C324.262 95.3867 324.127 95.9629 324.127 96.7715V100H322.75V93.5195H323.828L324.021 94.3691H324.092C324.287 94.0605 324.564 93.8223 324.924 93.6543C325.283 93.4863 325.682 93.4023 326.119 93.4023C327.674 93.4023 328.451 94.1934 328.451 95.7754V100Z" fill="white"/>
<path d="M335.84 93.5195V94.2754L334.732 94.4805C334.834 94.6172 334.918 94.7852 334.984 94.9844C335.051 95.1836 335.084 95.3945 335.084 95.6172C335.084 96.2852 334.854 96.8105 334.393 97.1934C333.932 97.5762 333.297 97.7676 332.488 97.7676C332.281 97.7676 332.094 97.752 331.926 97.7207C331.629 97.9043 331.48 98.1191 331.48 98.3652C331.48 98.5137 331.549 98.625 331.686 98.6992C331.826 98.7734 332.082 98.8105 332.453 98.8105H333.584C334.299 98.8105 334.842 98.9629 335.213 99.2676C335.584 99.5723 335.77 100.012 335.77 100.586C335.77 101.32 335.467 101.887 334.861 102.285C334.256 102.684 333.381 102.883 332.236 102.883C331.354 102.883 330.68 102.727 330.215 102.414C329.75 102.102 329.518 101.656 329.518 101.078C329.518 100.68 329.643 100.344 329.893 100.07C330.146 99.8008 330.5 99.6133 330.953 99.5078C330.77 99.4297 330.617 99.3047 330.496 99.1328C330.379 98.957 330.32 98.7734 330.32 98.582C330.32 98.3398 330.389 98.1348 330.525 97.9668C330.662 97.7988 330.865 97.6328 331.135 97.4688C330.799 97.3242 330.525 97.0898 330.314 96.7656C330.107 96.4375 330.004 96.0547 330.004 95.6172C330.004 94.9141 330.225 94.3691 330.666 93.9824C331.111 93.5957 331.744 93.4023 332.564 93.4023C332.748 93.4023 332.939 93.416 333.139 93.4434C333.342 93.4668 333.494 93.4922 333.596 93.5195H335.84ZM330.748 101.008C330.748 101.305 330.881 101.533 331.146 101.693C331.416 101.854 331.793 101.934 332.277 101.934C333.027 101.934 333.586 101.826 333.953 101.611C334.32 101.396 334.504 101.111 334.504 100.756C334.504 100.475 334.402 100.273 334.199 100.152C334 100.035 333.627 99.9766 333.08 99.9766H332.037C331.643 99.9766 331.328 100.068 331.094 100.252C330.863 100.439 330.748 100.691 330.748 101.008ZM331.34 95.6172C331.34 96.0234 331.443 96.3359 331.65 96.5547C331.861 96.7734 332.162 96.8828 332.553 96.8828C333.35 96.8828 333.748 96.457 333.748 95.6055C333.748 95.1836 333.648 94.8594 333.449 94.6328C333.254 94.4023 332.955 94.2871 332.553 94.2871C332.154 94.2871 331.852 94.4004 331.645 94.627C331.441 94.8535 331.34 95.1836 331.34 95.6172Z" fill="white"/>
<path d="M341.4 98.1543C341.4 98.7871 341.17 99.2734 340.709 99.6133C340.248 99.9492 339.588 100.117 338.729 100.117C337.865 100.117 337.172 99.9863 336.648 99.7246V98.5352C337.41 98.8867 338.119 99.0625 338.775 99.0625C339.623 99.0625 340.047 98.8066 340.047 98.2949C340.047 98.1309 340 97.9941 339.906 97.8848C339.812 97.7754 339.658 97.6621 339.443 97.5449C339.229 97.4277 338.93 97.2949 338.547 97.1465C337.801 96.8574 337.295 96.5684 337.029 96.2793C336.768 95.9902 336.637 95.6152 336.637 95.1543C336.637 94.5996 336.859 94.1699 337.305 93.8652C337.754 93.5566 338.363 93.4023 339.133 93.4023C339.895 93.4023 340.615 93.5566 341.295 93.8652L340.85 94.9023C340.15 94.6133 339.562 94.4688 339.086 94.4688C338.359 94.4688 337.996 94.6758 337.996 95.0898C337.996 95.293 338.09 95.4648 338.277 95.6055C338.469 95.7461 338.883 95.9395 339.52 96.1855C340.055 96.3926 340.443 96.582 340.686 96.7539C340.928 96.9258 341.107 97.125 341.225 97.3516C341.342 97.5742 341.4 97.8418 341.4 98.1543Z" fill="white"/>
<path d="M343.041 91.4336H345.584C346.764 91.4336 347.615 91.6055 348.139 91.9492C348.666 92.293 348.93 92.8359 348.93 93.5781C348.93 94.0781 348.801 94.4941 348.543 94.8262C348.285 95.1582 347.914 95.3672 347.43 95.4531V95.5117C348.031 95.625 348.473 95.8496 348.754 96.1855C349.039 96.5176 349.182 96.9688 349.182 97.5391C349.182 98.3086 348.912 98.9121 348.373 99.3496C347.838 99.7832 347.092 100 346.135 100H343.041V91.4336ZM344.441 94.9727H345.789C346.375 94.9727 346.803 94.8809 347.072 94.6973C347.342 94.5098 347.477 94.1934 347.477 93.748C347.477 93.3457 347.33 93.0547 347.037 92.875C346.748 92.6953 346.287 92.6055 345.654 92.6055H344.441V94.9727ZM344.441 96.1094V98.8223H345.93C346.516 98.8223 346.957 98.7109 347.254 98.4883C347.555 98.2617 347.705 97.9062 347.705 97.4219C347.705 96.9766 347.553 96.6465 347.248 96.4316C346.943 96.2168 346.48 96.1094 345.859 96.1094H344.441Z" fill="white"/>
<path d="M356.564 96.748C356.564 97.8066 356.293 98.6328 355.75 99.2266C355.207 99.8203 354.451 100.117 353.482 100.117C352.877 100.117 352.342 99.9805 351.877 99.707C351.412 99.4336 351.055 99.041 350.805 98.5293C350.555 98.0176 350.43 97.4238 350.43 96.748C350.43 95.6973 350.699 94.877 351.238 94.2871C351.777 93.6973 352.537 93.4023 353.518 93.4023C354.455 93.4023 355.197 93.7051 355.744 94.3105C356.291 94.9121 356.564 95.7246 356.564 96.748ZM351.848 96.748C351.848 98.2441 352.4 98.9922 353.506 98.9922C354.6 98.9922 355.146 98.2441 355.146 96.748C355.146 95.2676 354.596 94.5273 353.494 94.5273C352.916 94.5273 352.496 94.7188 352.234 95.1016C351.977 95.4844 351.848 96.0332 351.848 96.748Z" fill="white"/>
<path d="M362.207 100L361.932 99.0977H361.885C361.572 99.4922 361.258 99.7617 360.941 99.9062C360.625 100.047 360.219 100.117 359.723 100.117C359.086 100.117 358.588 99.9453 358.229 99.6016C357.873 99.2578 357.695 98.7715 357.695 98.1426C357.695 97.4746 357.943 96.9707 358.439 96.6309C358.936 96.291 359.691 96.1055 360.707 96.0742L361.826 96.0391V95.6934C361.826 95.2793 361.729 94.9707 361.533 94.7676C361.342 94.5605 361.043 94.457 360.637 94.457C360.305 94.457 359.986 94.5059 359.682 94.6035C359.377 94.7012 359.084 94.8164 358.803 94.9492L358.357 93.9648C358.709 93.7812 359.094 93.6426 359.512 93.5488C359.93 93.4512 360.324 93.4023 360.695 93.4023C361.52 93.4023 362.141 93.582 362.559 93.9414C362.98 94.3008 363.191 94.8652 363.191 95.6348V100H362.207ZM360.156 99.0625C360.656 99.0625 361.057 98.9238 361.357 98.6465C361.662 98.3652 361.814 97.9727 361.814 97.4688V96.9062L360.982 96.9414C360.334 96.9648 359.861 97.0742 359.564 97.2695C359.271 97.4609 359.125 97.7559 359.125 98.1543C359.125 98.4434 359.211 98.668 359.383 98.8281C359.555 98.9844 359.812 99.0625 360.156 99.0625Z" fill="white"/>
<path d="M368.4 93.4023C368.678 93.4023 368.906 93.4219 369.086 93.4609L368.951 94.7441C368.756 94.6973 368.553 94.6738 368.342 94.6738C367.791 94.6738 367.344 94.8535 367 95.2129C366.66 95.5723 366.49 96.0391 366.49 96.6133V100H365.113V93.5195H366.191L366.373 94.6621H366.443C366.658 94.2754 366.938 93.9688 367.281 93.7422C367.629 93.5156 368.002 93.4023 368.4 93.4023Z" fill="white"/>
<path d="M372.479 100.117C371.67 100.117 371.039 99.8242 370.586 99.2383C370.133 98.6523 369.906 97.8301 369.906 96.7715C369.906 95.709 370.135 94.8828 370.592 94.293C371.053 93.6992 371.689 93.4023 372.502 93.4023C373.354 93.4023 374.002 93.7168 374.447 94.3457H374.518C374.451 93.8809 374.418 93.5137 374.418 93.2441V90.8828H375.801V100H374.723L374.482 99.1504H374.418C373.977 99.7949 373.33 100.117 372.479 100.117ZM372.848 99.0039C373.414 99.0039 373.826 98.8457 374.084 98.5293C374.342 98.209 374.475 97.6914 374.482 96.9766V96.7832C374.482 95.9668 374.35 95.3867 374.084 95.043C373.818 94.6992 373.402 94.5273 372.836 94.5273C372.352 94.5273 371.979 94.7246 371.717 95.1191C371.455 95.5098 371.324 96.0684 371.324 96.7949C371.324 97.5137 371.451 98.0625 371.705 98.4414C371.959 98.8164 372.34 99.0039 372.848 99.0039Z" fill="white"/>
<path d="M421 83C421 79.6863 423.686 77 427 77H529C532.314 77 535 79.6863 535 83V108C535 111.314 532.314 114 529 114H427C423.686 114 421 111.314 421 108V83Z" fill="#F7F8FA"/>
<path fill-rule="evenodd" clip-rule="evenodd" d="M529 78H427C424.239 78 422 80.2386 422 83V108C422 110.761 424.239 113 427 113H529C531.761 113 534 110.761 534 108V83C534 80.2386 531.761 78 529 78ZM427 77C423.686 77 421 79.6863 421 83V108C421 111.314 423.686 114 427 114H529C532.314 114 535 111.314 535 108V83C535 79.6863 532.314 77 529 77H427Z" fill="#305680" fill-opacity="0.4"/>
<path d="M462.609 93.9297C462.609 94.7969 462.312 95.4648 461.719 95.9336C461.129 96.3984 460.283 96.6309 459.182 96.6309H458.174V100H457.178V91.4336H459.398C461.539 91.4336 462.609 92.2656 462.609 93.9297ZM458.174 95.7754H459.07C459.953 95.7754 460.592 95.6328 460.986 95.3477C461.381 95.0625 461.578 94.6055 461.578 93.9766C461.578 93.4102 461.393 92.9883 461.021 92.7109C460.65 92.4336 460.072 92.2949 459.287 92.2949H458.174V95.7754Z" fill="#28232D"/>
<path d="M469.805 96.7832C469.805 97.8301 469.541 98.6484 469.014 99.2383C468.486 99.8242 467.758 100.117 466.828 100.117C466.254 100.117 465.744 99.9824 465.299 99.7129C464.854 99.4434 464.51 99.0566 464.268 98.5527C464.025 98.0488 463.904 97.459 463.904 96.7832C463.904 95.7363 464.166 94.9219 464.689 94.3398C465.213 93.7539 465.939 93.4609 466.869 93.4609C467.768 93.4609 468.48 93.7598 469.008 94.3574C469.539 94.9551 469.805 95.7637 469.805 96.7832ZM464.912 96.7832C464.912 97.6035 465.076 98.2285 465.404 98.6582C465.732 99.0879 466.215 99.3027 466.852 99.3027C467.488 99.3027 467.971 99.0898 468.299 98.6641C468.631 98.2344 468.797 97.6074 468.797 96.7832C468.797 95.9668 468.631 95.3477 468.299 94.9258C467.971 94.5 467.484 94.2871 466.84 94.2871C466.203 94.2871 465.723 94.4961 465.398 94.9141C465.074 95.332 464.912 95.9551 464.912 96.7832Z" fill="#28232D"/>
<path d="M475.658 98.248C475.658 98.8457 475.436 99.3066 474.99 99.6309C474.545 99.9551 473.92 100.117 473.115 100.117C472.264 100.117 471.6 99.9824 471.123 99.7129V98.8105C471.432 98.9668 471.762 99.0898 472.113 99.1797C472.469 99.2695 472.811 99.3145 473.139 99.3145C473.646 99.3145 474.037 99.2344 474.311 99.0742C474.584 98.9102 474.721 98.6621 474.721 98.3301C474.721 98.0801 474.611 97.8672 474.393 97.6914C474.178 97.5117 473.756 97.3008 473.127 97.0586C472.529 96.8359 472.104 96.6426 471.85 96.4785C471.6 96.3105 471.412 96.1211 471.287 95.9102C471.166 95.6992 471.105 95.4473 471.105 95.1543C471.105 94.6309 471.318 94.2188 471.744 93.918C472.17 93.6133 472.754 93.4609 473.496 93.4609C474.188 93.4609 474.863 93.6016 475.523 93.8828L475.178 94.6738C474.533 94.4082 473.949 94.2754 473.426 94.2754C472.965 94.2754 472.617 94.3477 472.383 94.4922C472.148 94.6367 472.031 94.8359 472.031 95.0898C472.031 95.2617 472.074 95.4082 472.16 95.5293C472.25 95.6504 472.393 95.7656 472.588 95.875C472.783 95.9844 473.158 96.1426 473.713 96.3496C474.475 96.627 474.988 96.9062 475.254 97.1875C475.523 97.4688 475.658 97.8223 475.658 98.248Z" fill="#28232D"/>
<path d="M479.32 99.3145C479.492 99.3145 479.658 99.3027 479.818 99.2793C479.979 99.252 480.105 99.2246 480.199 99.1973V99.9414C480.094 99.9922 479.938 100.033 479.73 100.064C479.527 100.1 479.344 100.117 479.18 100.117C477.938 100.117 477.316 99.4629 477.316 98.1543V94.334H476.396V93.8652L477.316 93.4609L477.727 92.0898H478.289V93.5781H480.152V94.334H478.289V98.1133C478.289 98.5 478.381 98.7969 478.564 99.0039C478.748 99.2109 479 99.3145 479.32 99.3145Z" fill="#28232D"/>
<path d="M486.744 93.5781V94.1934L485.555 94.334C485.664 94.4707 485.762 94.6504 485.848 94.873C485.934 95.0918 485.977 95.3398 485.977 95.6172C485.977 96.2461 485.762 96.748 485.332 97.123C484.902 97.498 484.312 97.6855 483.562 97.6855C483.371 97.6855 483.191 97.6699 483.023 97.6387C482.609 97.8574 482.402 98.1328 482.402 98.4648C482.402 98.6406 482.475 98.7715 482.619 98.8574C482.764 98.9395 483.012 98.9805 483.363 98.9805H484.5C485.195 98.9805 485.729 99.127 486.1 99.4199C486.475 99.7129 486.662 100.139 486.662 100.697C486.662 101.408 486.377 101.949 485.807 102.32C485.236 102.695 484.404 102.883 483.311 102.883C482.471 102.883 481.822 102.727 481.365 102.414C480.912 102.102 480.686 101.66 480.686 101.09C480.686 100.699 480.811 100.361 481.061 100.076C481.311 99.791 481.662 99.5977 482.115 99.4961C481.951 99.4219 481.812 99.3066 481.699 99.1504C481.59 98.9941 481.535 98.8125 481.535 98.6055C481.535 98.3711 481.598 98.166 481.723 97.9902C481.848 97.8145 482.045 97.6445 482.314 97.4805C481.982 97.3438 481.711 97.1113 481.5 96.7832C481.293 96.4551 481.189 96.0801 481.189 95.6582C481.189 94.9551 481.4 94.4141 481.822 94.0352C482.244 93.6523 482.842 93.4609 483.615 93.4609C483.951 93.4609 484.254 93.5 484.523 93.5781H486.744ZM481.623 101.078C481.623 101.426 481.77 101.689 482.062 101.869C482.355 102.049 482.775 102.139 483.322 102.139C484.139 102.139 484.742 102.016 485.133 101.77C485.527 101.527 485.725 101.197 485.725 100.779C485.725 100.432 485.617 100.189 485.402 100.053C485.188 99.9199 484.783 99.8535 484.189 99.8535H483.023C482.582 99.8535 482.238 99.959 481.992 100.17C481.746 100.381 481.623 100.684 481.623 101.078ZM482.15 95.6348C482.15 96.084 482.277 96.4238 482.531 96.6543C482.785 96.8848 483.139 97 483.592 97C484.541 97 485.016 96.5391 485.016 95.6172C485.016 94.6523 484.535 94.1699 483.574 94.1699C483.117 94.1699 482.766 94.293 482.52 94.5391C482.273 94.7852 482.15 95.1504 482.15 95.6348Z" fill="#28232D"/>
<path d="M490.992 93.4609C491.277 93.4609 491.533 93.4844 491.76 93.5312L491.625 94.4336C491.359 94.375 491.125 94.3457 490.922 94.3457C490.402 94.3457 489.957 94.5566 489.586 94.9785C489.219 95.4004 489.035 95.9258 489.035 96.5547V100H488.062V93.5781H488.865L488.977 94.7676H489.023C489.262 94.3496 489.549 94.0273 489.885 93.8008C490.221 93.5742 490.59 93.4609 490.992 93.4609Z" fill="#28232D"/>
<path d="M495.674 100.117C494.725 100.117 493.975 99.8281 493.424 99.25C492.877 98.6719 492.604 97.8691 492.604 96.8418C492.604 95.8066 492.857 94.9844 493.365 94.375C493.877 93.7656 494.562 93.4609 495.422 93.4609C496.227 93.4609 496.863 93.7266 497.332 94.2578C497.801 94.7852 498.035 95.4824 498.035 96.3496V96.9648H493.611C493.631 97.7188 493.82 98.291 494.18 98.6816C494.543 99.0723 495.053 99.2676 495.709 99.2676C496.4 99.2676 497.084 99.123 497.76 98.834V99.7012C497.416 99.8496 497.09 99.9551 496.781 100.018C496.477 100.084 496.107 100.117 495.674 100.117ZM495.41 94.2754C494.895 94.2754 494.482 94.4434 494.174 94.7793C493.869 95.1152 493.689 95.5801 493.635 96.1738H496.992C496.992 95.5605 496.855 95.0918 496.582 94.7676C496.309 94.4395 495.918 94.2754 495.41 94.2754Z" fill="#28232D"/>
<path d="M504.68 97.7207C504.68 98.4746 504.406 99.0625 503.859 99.4844C503.312 99.9062 502.57 100.117 501.633 100.117C500.617 100.117 499.836 99.9863 499.289 99.7246V98.7637C499.641 98.9121 500.023 99.0293 500.438 99.1152C500.852 99.2012 501.262 99.2441 501.668 99.2441C502.332 99.2441 502.832 99.1191 503.168 98.8691C503.504 98.6152 503.672 98.2637 503.672 97.8145C503.672 97.5176 503.611 97.2754 503.49 97.0879C503.373 96.8965 503.174 96.7207 502.893 96.5605C502.615 96.4004 502.191 96.2188 501.621 96.0156C500.824 95.7305 500.254 95.3926 499.91 95.002C499.57 94.6113 499.4 94.1016 499.4 93.4727C499.4 92.8125 499.648 92.2871 500.145 91.8965C500.641 91.5059 501.297 91.3105 502.113 91.3105C502.965 91.3105 503.748 91.4668 504.463 91.7793L504.152 92.6465C503.445 92.3496 502.758 92.2012 502.09 92.2012C501.562 92.2012 501.15 92.3145 500.854 92.541C500.557 92.7676 500.408 93.082 500.408 93.4844C500.408 93.7812 500.463 94.0254 500.572 94.2168C500.682 94.4043 500.865 94.5781 501.123 94.7383C501.385 94.8945 501.783 95.0684 502.318 95.2598C503.217 95.5801 503.834 95.9238 504.17 96.291C504.51 96.6582 504.68 97.1348 504.68 97.7207Z" fill="#28232D"/>
<path d="M513.867 95.7051C513.867 96.8027 513.646 97.7148 513.205 98.4414C512.764 99.168 512.141 99.6602 511.336 99.918L513.375 102.039H511.928L510.258 100.105L509.936 100.117C508.674 100.117 507.699 99.7324 507.012 98.9629C506.328 98.1895 505.986 97.0996 505.986 95.6934C505.986 94.2988 506.33 93.2188 507.018 92.4531C507.705 91.6836 508.682 91.2988 509.947 91.2988C511.178 91.2988 512.139 91.6895 512.83 92.4707C513.521 93.252 513.867 94.3301 513.867 95.7051ZM507.041 95.7051C507.041 96.8652 507.287 97.7461 507.779 98.3477C508.275 98.9453 508.994 99.2441 509.936 99.2441C510.885 99.2441 511.602 98.9453 512.086 98.3477C512.57 97.75 512.812 96.8691 512.812 95.7051C512.812 94.5527 512.57 93.6797 512.086 93.0859C511.605 92.4883 510.893 92.1895 509.947 92.1895C508.998 92.1895 508.275 92.4902 507.779 93.0918C507.287 93.6895 507.041 94.5605 507.041 95.7051Z" fill="#28232D"/>
<path d="M515.783 100V91.4336H516.779V99.0977H520.559V100H515.783Z" fill="#28232D"/>
<path fill-rule="evenodd" clip-rule="evenodd" d="M434.348 91.355C437.965 89.8478 442.035 89.8478 445.652 91.355C445.863 91.4428 446 91.6486 446 91.8768V94.1232C446 94.3513 445.863 94.5571 445.652 94.6449C442.035 96.1521 437.965 96.1521 434.348 94.6449C434.137 94.5571 434 94.3513 434 94.1232V91.8768C434 91.6486 434.137 91.4428 434.348 91.355ZM434.73 95.804C438.103 97.2094 441.897 97.2094 445.27 95.804C445.617 95.6594 446 95.9144 446 96.2905V97.1232C446 97.3513 445.863 97.5571 445.652 97.6449C442.035 99.1521 437.965 99.1521 434.348 97.6449C434.137 97.5571 434 97.3513 434 97.1232V96.2905C434 95.9144 434.383 95.6594 434.73 95.804ZM445.27 98.804C441.897 100.209 438.103 100.209 434.73 98.804C434.383 98.6594 434 98.9144 434 99.2905V100.123C434 100.351 434.137 100.557 434.348 100.645C437.965 102.152 442.035 102.152 445.652 100.645C445.863 100.557 446 100.351 446 100.123V99.2905C446 98.9144 445.617 98.6594 445.27 98.804Z" fill="#305680"/>
<path fill-rule="evenodd" clip-rule="evenodd" d="M266 95L246 95V96L266 96L266 95Z" fill="#28232D"/>
<path d="M242.17 96.3192C241.602 95.9211 241.602 95.0789 242.17 94.6808L244.427 93.1014C245.089 92.6375 246 93.1116 246 93.9207V97.0793C246 97.8884 245.089 98.3625 244.427 97.8986L242.17 96.3192Z" fill="#28232D"/>
<path d="M265.83 94.6808C266.398 95.0789 266.398 95.9211 265.83 96.3192L263.574 97.8986C262.911 98.3625 262 97.8884 262 97.0793V93.9207C262 93.1116 262.911 92.6375 263.574 93.1014L265.83 94.6808Z" fill="#28232D"/>
<path fill-rule="evenodd" clip-rule="evenodd" d="M418 95L398 95V96L418 96L418 95Z" fill="#28232D"/>
<path d="M394.17 96.3192C393.602 95.9211 393.602 95.0789 394.17 94.6808L396.427 93.1014C397.089 92.6375 398 93.1116 398 93.9207V97.0793C398 97.8884 397.089 98.3625 396.427 97.8986L394.17 96.3192Z" fill="#28232D"/>
<path d="M417.83 94.6808C418.398 95.0789 418.398 95.9211 417.83 96.3192L415.574 97.8986C414.911 98.3625 414 97.8884 414 97.0793V93.9207C414 93.1116 414.911 92.6375 415.574 93.1014L417.83 94.6808Z" fill="#28232D"/>
</svg>
