<svg xmlns="http://www.w3.org/2000/svg" width="273" height="232" fill="none" viewBox="0 0 273 232">
  <g clip-path="url(#a)">
    <path fill="#91A3BE" fill-rule="evenodd" d="M83.462 38.468V.885h1.329v37.583h-1.329Z" clip-rule="evenodd"/>
    <path fill="#91A3BE" d="M83.462 38.084a97.423 97.423 0 0 1 90.01 60.142 97.43 97.43 0 0 1 7.416 37.284h-1.327a96.107 96.107 0 0 0-28.147-67.952A96.096 96.096 0 0 0 83.462 39.41v-1.327Z"/>
    <path fill="#91A3BE" fill-rule="evenodd" d="M179.56 135.067h72.626v1.328l-72.626.001v-1.329Z" clip-rule="evenodd"/>
    <path fill="#F4F8FE" d="M262.372 146.138c-5.87 0-10.629-4.759-10.629-10.628 0-5.87 4.759-10.629 10.629-10.629 5.87 0 10.628 4.759 10.628 10.629 0 5.869-4.758 10.628-10.628 10.628Z"/>
    <path fill="#91A3BE" fill-rule="evenodd" d="M253.072 135.51a9.3 9.3 0 0 0 9.3 9.299 9.299 9.299 0 0 0 9.299-9.299 9.3 9.3 0 1 0-18.599 0Zm-1.329 0c0 5.869 4.759 10.628 10.629 10.628 5.87 0 10.628-4.759 10.628-10.628 0-5.87-4.758-10.629-10.628-10.629s-10.629 4.759-10.629 10.629Z" clip-rule="evenodd"/>
    <rect width="165.178" height="165.178" x="166.053" y="52.919" stroke="#91A3BE" stroke-width="1.329" rx="82.589" transform="rotate(90 166.053 52.92)"/>
    <g clip-path="url(#b)">
      <path fill="#305680" d="M111.05 157.456v-15.41c0-.835-.682-1.512-1.522-1.512h-12.63c-.84 0-1.522.677-1.522 1.512v15.41l3.043.012v-13.91h9.587v13.91l3.044-.012Z"/>
      <path fill="#305680" fill-rule="evenodd" d="M82.289 157.456V137.51a11.94 11.94 0 0 0-2.463-7.295 12.265 12.265 0 0 0-5.867-4.182l-9.988-9.442 31.094-3.758a10.58 10.58 0 0 0 1.832 1.609v4.924h-1.521a1.52 1.52 0 0 0-1.361.836l-3.044 6.048a1.505 1.505 0 0 0 .285 1.745l6.087 6.048a1.53 1.53 0 0 0 2.152 0 1.507 1.507 0 0 0 0-2.139l-5.311-5.277 2.132-4.237h13.337l2.132 4.237-5.311 5.277a1.505 1.505 0 0 0 0 2.139c.297.295.686.443 1.076.443.389 0 .779-.148 1.076-.443l6.087-6.048c.463-.46.578-1.163.285-1.745l-3.044-6.048a1.522 1.522 0 0 0-1.361-.836h-1.522v-4.924c2.836-1.967 4.565-5.217 4.565-8.684 0-5.836-4.778-10.584-10.652-10.584a10.642 10.642 0 0 0-9.38 5.566l-37.082.785a1.52 1.52 0 0 0-.384.059 10.736 10.736 0 0 0-2.762-.362c-5.874 0-10.652 4.748-10.652 10.584 0 5.638 4.46 10.26 10.06 10.567l6.919 8.871a11.926 11.926 0 0 0-1.762 6.266v19.946l3.044.012v-11.97a12.18 12.18 0 0 0 9.13 4.108 12.18 12.18 0 0 0 9.13-4.108v11.97l3.044-.012Zm17.652-38.09h6.087v-3.465c-.983.29-2.008.441-3.043.441a10.76 10.76 0 0 1-3.044-.441v3.465Zm3.043-21.168a7.6 7.6 0 0 0-7.013 4.623 7.461 7.461 0 0 0-.595 2.937c0 1.663.533 3.24 1.541 4.561a7.567 7.567 0 0 0 2.264 1.988 7.643 7.643 0 0 0 3.803 1.011 7.63 7.63 0 0 0 3.803-1.011 7.579 7.579 0 0 0 3.806-6.549c0-4.169-3.413-7.56-7.609-7.56Zm-30.258 30.617-.003-.001a9.122 9.122 0 0 0-2.608-.376 9.075 9.075 0 0 0-7.318 3.648 8.948 8.948 0 0 0-1.812 5.424c0 5.002 4.096 9.072 9.13 9.072 5.035 0 9.13-4.07 9.13-9.072 0-3.985-2.68-7.56-6.519-8.695Zm19.606-23.057c0-.668.064-1.326.187-1.97l-31.477.666a10.543 10.543 0 0 1 2.839 9.102l29.345-3.547a10.458 10.458 0 0 1-.894-4.251Zm-46.565 6.048c0 4.066 3.248 7.391 7.3 7.552a1.54 1.54 0 0 1 .8-.012 7.645 7.645 0 0 0 6.164-3.871 7.46 7.46 0 0 0 .954-3.669 7.56 7.56 0 0 0-5.167-7.163 7.684 7.684 0 0 0-2.442-.397c-4.195 0-7.609 3.391-7.609 7.56Zm15.836 6.72a10.728 10.728 0 0 1-5.28 3.449l5.335 6.84a12.294 12.294 0 0 1 7.292-3.344l-7.347-6.945Z" clip-rule="evenodd"/>
      <path fill="#305680" fill-rule="evenodd" d="M114.019 159.323h-61.11c-3.516 0-6.366 2.832-6.366 6.325 0 3.493 2.85 6.325 6.366 6.325h61.11c3.516 0 6.366-2.832 6.366-6.325 0-3.493-2.85-6.325-6.366-6.325Zm-61.11-3.795c-5.625 0-10.185 4.531-10.185 10.12 0 5.589 4.56 10.12 10.185 10.12h61.11c5.625 0 10.185-4.531 10.185-10.12 0-5.589-4.56-10.12-10.185-10.12h-61.11Z" clip-rule="evenodd"/>
      <path fill="#305680" d="M59.911 165.648a1.904 1.904 0 0 1-1.91 1.898c-1.054 0-1.91-.85-1.91-1.898 0-1.047.856-1.897 1.91-1.897 1.055 0 1.91.85 1.91 1.897Zm10.185 0a1.904 1.904 0 0 1-1.91 1.898c-1.054 0-1.91-.85-1.91-1.898 0-1.047.856-1.897 1.91-1.897 1.055 0 1.91.85 1.91 1.897Zm10.185 0a1.904 1.904 0 0 1-1.91 1.898c-1.054 0-1.91-.85-1.91-1.898 0-1.047.856-1.897 1.91-1.897 1.055 0 1.91.85 1.91 1.897Zm10.185 0a1.904 1.904 0 0 1-1.91 1.898c-1.054 0-1.91-.85-1.91-1.898 0-1.047.856-1.897 1.91-1.897 1.055 0 1.91.85 1.91 1.897Zm10.185 0a1.904 1.904 0 0 1-1.91 1.898c-1.054 0-1.91-.85-1.91-1.898 0-1.047.856-1.897 1.91-1.897 1.055 0 1.91.85 1.91 1.897Zm10.185 0a1.904 1.904 0 0 1-1.91 1.898 1.904 1.904 0 0 1-1.909-1.898c0-1.047.855-1.897 1.909-1.897 1.055 0 1.91.85 1.91 1.897Z"/>
    </g>
  </g>
  <defs>
    <clipPath id="a">
      <path fill="#fff" d="M273 0v232H0V0z"/>
    </clipPath>
    <clipPath id="b">
      <path fill="#fff" d="M42.724 94.768h81.48v81.48h-81.48z"/>
    </clipPath>
  </defs>
</svg>
