<svg width="246" height="309" fill="none" xmlns="http://www.w3.org/2000/svg"><path fill-rule="evenodd" clip-rule="evenodd" d="M42.433 214.317H0v-1.5h42.433v1.5Z" fill="#91A3BE"/><path d="M42 214.317a110.002 110.002 0 0 1 110-110v1.499a108.515 108.515 0 0 0-76.722 31.779 108.511 108.511 0 0 0-31.78 76.722H42Z" fill="#91A3BE"/><path fill-rule="evenodd" clip-rule="evenodd" d="M151.5 105.817v-82h1.5v82h-1.5Z" fill="#91A3BE"/><path d="M164 12.317c0 6.628-5.373 12-12 12s-12-5.372-12-12c0-6.627 5.373-12 12-12s12 5.373 12 12Z" fill="#F4F8FE"/><path fill-rule="evenodd" clip-rule="evenodd" d="M152 22.817c5.799 0 10.5-4.7 10.5-10.5 0-5.799-4.701-10.5-10.5-10.5s-10.5 4.701-10.5 10.5c0 5.8 4.701 10.5 10.5 10.5Zm0 1.5c6.627 0 12-5.372 12-12 0-6.627-5.373-12-12-12s-12 5.373-12 12c0 6.628 5.373 12 12 12Z" fill="#91A3BE"/><rect x="58.75" y="121.067" width="186.5" height="186.5" rx="93.25" stroke="#91A3BE" stroke-width="1.5"/><g clip-path="url(#a)" fill="#305680"><path d="M183.147 239.641v-17.4c0-.943-.769-1.707-1.718-1.707h-14.261c-.949 0-1.718.764-1.718 1.707v17.4l3.436.014v-15.707h10.825v15.707l3.436-.014Z"/><path fill-rule="evenodd" clip-rule="evenodd" d="M150.673 239.641v-22.522c0-3.001-.961-5.849-2.78-8.237a13.856 13.856 0 0 0-6.625-4.722l-11.277-10.66 35.108-4.243c.618.684 1.31 1.291 2.069 1.816v5.56h-1.718c-.651 0-1.246.365-1.537.944l-3.437 6.828a1.7 1.7 0 0 0 .322 1.971l6.873 6.829a1.727 1.727 0 0 0 2.43 0 1.7 1.7 0 0 0 0-2.415l-5.997-5.959 2.408-4.784h15.058l2.408 4.784-5.997 5.959a1.7 1.7 0 0 0 0 2.415 1.722 1.722 0 0 0 2.43 0l6.872-6.829a1.7 1.7 0 0 0 .322-1.971l-3.436-6.828a1.719 1.719 0 0 0-1.537-.944h-1.718v-5.56c3.202-2.221 5.154-5.891 5.154-9.805 0-6.59-5.395-11.951-12.027-11.951a12.017 12.017 0 0 0-10.591 6.285l-41.87.886a1.725 1.725 0 0 0-.434.067 12.115 12.115 0 0 0-3.119-.409c-6.631 0-12.027 5.361-12.027 11.951 0 6.366 5.037 11.585 11.359 11.931l7.812 10.017a13.455 13.455 0 0 0-1.989 7.074v22.522l3.436.014v-13.516a13.753 13.753 0 0 0 10.31 4.638c4.102 0 7.788-1.797 10.309-4.638v13.516l3.436-.014Zm19.932-43.008h6.872v-3.913a12.085 12.085 0 0 1-6.872 0v3.913Zm3.436-23.901a8.581 8.581 0 0 0-7.919 5.219 8.43 8.43 0 0 0-.672 3.317 8.42 8.42 0 0 0 1.74 5.15 8.56 8.56 0 0 0 2.557 2.245 8.628 8.628 0 0 0 4.294 1.141c1.51 0 2.995-.394 4.294-1.141a8.56 8.56 0 0 0 4.297-7.395c0-4.707-3.854-8.536-8.591-8.536Zm-34.165 34.57-.003-.001a10.312 10.312 0 0 0-2.945-.425 10.248 10.248 0 0 0-8.263 4.119 10.106 10.106 0 0 0-2.047 6.125c0 5.648 4.625 10.243 10.31 10.243 5.684 0 10.309-4.595 10.309-10.243 0-4.5-3.027-8.537-7.361-9.818Zm22.138-26.034c0-.754.072-1.497.21-2.225l-35.541.752a11.906 11.906 0 0 1 3.206 10.278l33.133-4.005a11.816 11.816 0 0 1-1.008-4.8Zm-52.578 6.829c0 4.591 3.667 8.345 8.244 8.527.296-.085.608-.088.902-.013 2.905-.191 5.54-1.836 6.959-4.371a8.43 8.43 0 0 0 1.077-4.143 8.537 8.537 0 0 0-5.833-8.088 8.67 8.67 0 0 0-2.758-.448c-4.737 0-8.591 3.829-8.591 8.536Zm17.88 7.588a12.103 12.103 0 0 1-5.961 3.893l6.024 7.724a13.877 13.877 0 0 1 8.233-3.775l-8.296-7.842Z"/><path fill-rule="evenodd" clip-rule="evenodd" d="M186.5 241.749h-69c-3.97 0-7.188 3.198-7.188 7.142 0 3.944 3.218 7.141 7.188 7.141h69c3.97 0 7.188-3.197 7.188-7.141s-3.218-7.142-7.188-7.142Zm-69-4.285c-6.351 0-11.5 5.116-11.5 11.427 0 6.31 5.149 11.426 11.5 11.426h69c6.351 0 11.5-5.116 11.5-11.426 0-6.311-5.149-11.427-11.5-11.427h-69Z"/><path d="M125.406 248.891a2.149 2.149 0 0 1-2.156 2.142 2.149 2.149 0 0 1-2.156-2.142c0-1.183.965-2.142 2.156-2.142 1.191 0 2.156.959 2.156 2.142ZM136.906 248.891a2.149 2.149 0 0 1-2.156 2.142 2.149 2.149 0 0 1-2.156-2.142c0-1.183.965-2.142 2.156-2.142 1.191 0 2.156.959 2.156 2.142ZM148.406 248.891a2.149 2.149 0 0 1-2.156 2.142 2.149 2.149 0 0 1-2.156-2.142c0-1.183.965-2.142 2.156-2.142 1.191 0 2.156.959 2.156 2.142ZM159.906 248.891a2.149 2.149 0 0 1-2.156 2.142 2.149 2.149 0 0 1-2.156-2.142c0-1.183.965-2.142 2.156-2.142 1.191 0 2.156.959 2.156 2.142ZM171.406 248.891a2.149 2.149 0 0 1-2.156 2.142 2.149 2.149 0 0 1-2.156-2.142c0-1.183.965-2.142 2.156-2.142 1.191 0 2.156.959 2.156 2.142ZM182.906 248.891a2.149 2.149 0 0 1-2.156 2.142 2.149 2.149 0 0 1-2.156-2.142c0-1.183.965-2.142 2.156-2.142 1.191 0 2.156.959 2.156 2.142Z"/></g><defs><clipPath id="a"><path fill="#fff" transform="translate(106 168.317)" d="M0 0h92v92H0z"/></clipPath></defs></svg>