<svg width="246" height="309" fill="none" xmlns="http://www.w3.org/2000/svg"><path fill-rule="evenodd" clip-rule="evenodd" d="M42.433 214.317H0v-1.5h42.433v1.5Z" fill="#91A3BE"/><path d="M42 214.317a110.002 110.002 0 0 1 110-110v1.499a108.515 108.515 0 0 0-76.722 31.779 108.511 108.511 0 0 0-31.78 76.722H42Z" fill="#91A3BE"/><path fill-rule="evenodd" clip-rule="evenodd" d="M151.5 105.817v-82h1.5v82h-1.5Z" fill="#91A3BE"/><path d="M164 12.317c0 6.628-5.373 12-12 12s-12-5.372-12-12c0-6.627 5.373-12 12-12s12 5.373 12 12Z" fill="#F4F8FE"/><path fill-rule="evenodd" clip-rule="evenodd" d="M152 22.817c5.799 0 10.5-4.7 10.5-10.5 0-5.799-4.701-10.5-10.5-10.5s-10.5 4.701-10.5 10.5c0 5.8 4.701 10.5 10.5 10.5Zm0 1.5c6.627 0 12-5.372 12-12 0-6.627-5.373-12-12-12s-12 5.373-12 12c0 6.628 5.373 12 12 12Z" fill="#91A3BE"/><rect x="58.75" y="121.067" width="186.5" height="186.5" rx="93.25" stroke="#91A3BE" stroke-width="1.5"/><path d="M141.569 215.381a2.101 2.101 0 0 1-1.482-.613 2.107 2.107 0 0 1-.613-1.482V182.59a2.084 2.084 0 0 1 .714-1.575l10.476-9.177a2.101 2.101 0 0 1 2.762 0l10.476 9.177a2.085 2.085 0 0 1 .715 1.575v22.315a2.096 2.096 0 0 1-4.191 0V183.54l-8.381-7.342-8.381 7.342v29.746a2.082 2.082 0 0 1-.613 1.482 2.096 2.096 0 0 1-1.482.613Z" fill="#305680"/><path d="M126.902 209.032a2.098 2.098 0 0 1-1.963-1.369 2.1 2.1 0 0 1 .601-2.316l14.666-12.571a2.09 2.09 0 0 1 2.953.227 2.096 2.096 0 0 1-.227 2.952l-14.667 12.572a2.083 2.083 0 0 1-1.363.505Z" fill="#305680"/><path d="M131.093 220.764a2.101 2.101 0 0 1-1.482-.613 2.107 2.107 0 0 1-.613-1.482v-13.828a2.095 2.095 0 0 1 4.19 0v13.828a2.082 2.082 0 0 1-.613 1.482 2.107 2.107 0 0 1-1.482.613ZM177.187 209.032a2.08 2.08 0 0 1-1.362-.505l-14.667-12.572a2.084 2.084 0 0 1-.725-1.429 2.084 2.084 0 0 1 .498-1.523 2.08 2.08 0 0 1 1.429-.725 2.102 2.102 0 0 1 1.524.498l14.666 12.571a2.095 2.095 0 0 1-1.363 3.685Z" fill="#305680"/><path d="M172.997 220.764a2.101 2.101 0 0 1-1.482-.613 2.107 2.107 0 0 1-.613-1.482v-13.828a2.095 2.095 0 0 1 4.19 0v13.828a2.082 2.082 0 0 1-.613 1.482 2.107 2.107 0 0 1-1.482.613ZM168.807 190.175a2.08 2.08 0 0 1-1.379-.517l-15.383-13.46-15.383 13.46a2.1 2.1 0 0 1-2.312.305 2.084 2.084 0 0 1-1.057-1.21 2.091 2.091 0 0 1 .611-2.25l16.762-14.667a2.094 2.094 0 0 1 2.758 0l16.762 14.667a2.09 2.09 0 0 1 .582 2.314 2.1 2.1 0 0 1-.768.986 2.102 2.102 0 0 1-1.193.372ZM134.125 259.317a2.092 2.092 0 0 1-2.077-1.838 18.684 18.684 0 0 1-.143-2.353 19.906 19.906 0 0 1 19.904-19.904 19.905 19.905 0 0 1 19.905 19.904h15.714v-3.183a2.188 2.188 0 0 0-.647-1.582 2.21 2.21 0 0 0-1.616-.681 6.477 6.477 0 0 1-6.059-4.326 23.358 23.358 0 0 0-1.082-2.59 6.448 6.448 0 0 1 1.064-7.186c.053-.071.111-.139.174-.203a2.25 2.25 0 0 0 0-3.177l-4.524-4.524a2.282 2.282 0 0 0-3.198 0 6.441 6.441 0 0 1-7.346 1.248 23.904 23.904 0 0 0-2.598-1.087 6.468 6.468 0 0 1-3.13-2.345 6.471 6.471 0 0 1-1.21-3.719 2.267 2.267 0 0 0-2.263-2.263h-6.368a2.183 2.183 0 0 0-1.581.646 2.21 2.21 0 0 0-.682 1.617 6.466 6.466 0 0 1-4.325 6.058c-.884.31-1.749.671-2.591 1.083a6.527 6.527 0 0 1-7.386-1.257 2.27 2.27 0 0 0-3.18.019l-4.526 4.524a2.255 2.255 0 0 0 .002 3.177c.065.066.126.135.181.209a6.452 6.452 0 0 1 1.068 7.157 23.185 23.185 0 0 0-1.085 2.595 6.48 6.48 0 0 1-6.067 4.344 2.262 2.262 0 0 0-2.263 2.263v3.183h15.715c.555 0 3.011-.202 3.404.191.393.393.896 1.091.896 1.647s-.227 1.369-.62 1.761a2.026 2.026 0 0 1-1.46.592h-20.03a2.101 2.101 0 0 1-1.482-.613 2.107 2.107 0 0 1-.613-1.482v-5.279a6.462 6.462 0 0 1 6.453-6.454 2.25 2.25 0 0 0 2.114-1.543c.36-1.032.782-2.042 1.263-3.024a2.245 2.245 0 0 0-.426-2.551 2.263 2.263 0 0 1-.205-.233 6.457 6.457 0 0 1 .191-8.903l4.528-4.524a6.484 6.484 0 0 1 4.556-1.878 6.484 6.484 0 0 1 4.559 1.87 2.26 2.26 0 0 0 2.578.442 27.712 27.712 0 0 1 3.032-1.267 2.236 2.236 0 0 0 1.529-2.107 6.457 6.457 0 0 1 6.453-6.454h6.368a6.46 6.46 0 0 1 6.453 6.454 2.25 2.25 0 0 0 1.543 2.113c1.032.361 2.042.783 3.024 1.263a2.245 2.245 0 0 0 2.552-.424 6.584 6.584 0 0 1 9.135-.012l4.526 4.524a6.452 6.452 0 0 1 .185 8.911c-.06.08-.125.155-.197.225a2.245 2.245 0 0 0-.618 1.221c-.075.461-.004.934.203 1.353.479.981.9 1.989 1.26 3.02a2.24 2.24 0 0 0 2.106 1.524 6.463 6.463 0 0 1 4.564 1.89 6.448 6.448 0 0 1 1.889 4.564v5.279a2.105 2.105 0 0 1-.613 1.482 2.101 2.101 0 0 1-1.482.613h-20.032a2.092 2.092 0 0 1-1.569-.708 2.079 2.079 0 0 1-.431-.768 2.083 2.083 0 0 1-.078-.877 15.713 15.713 0 1 0-31.208 0 2.093 2.093 0 0 1-2.08 2.353ZM162.404 213.223a2.096 2.096 0 1 0 0-4.192 2.096 2.096 0 0 0 0 4.192Z" fill="#305680"/></svg>