<svg width="337" height="290" fill="none" xmlns="http://www.w3.org/2000/svg"><rect width="160" height="160" rx="40" transform="matrix(-1 0 0 1 257 0)" fill="#E4EFFD"/><rect x="-.75" y=".75" width="158.5" height="158.5" rx="39.25" transform="matrix(-1 0 0 1 158.5 70)" fill="#F4F8FE" stroke="#3E9AF8" stroke-width="1.5"/><g clip-path="url(#a)"><path fill="#F4F8FE" d="M30 85.16h100v120H30z"/><path d="M129.9 195.261H78.1v9.8h51.8v-9.8Z" fill="#fff" stroke="#1A1A1A" stroke-width=".6"/><path d="M85.964 195.261 34.439 85.435l34.188 22.197 53.894 87.629H85.964Z" stroke="#1A1A1A" stroke-width=".6"/><path d="M38.9 115.261h-8.8v3.8h8.8v-3.8ZM33.864 120.486c.182-.28.302-.517.358-.762.048-.211.047-.422.006-.663h2.277c.042.276.055.843-.246 1.743-.1.302-.325.592-.617.883-.245.243-.53.48-.82.721l-.171.142c-.345.289-.686.585-.947.897-.26.313-.448.651-.473 1.025-.048.713.153 1.219.459 1.576.303.354.702.554 1.038.671.263.091.797.154 1.291-.017.25-.087.491-.234.681-.469.19-.236.324-.554.366-.975.027-.266.047-.499.064-.7l.026-.293c.024-.259.046-.435.081-.55.035-.113.07-.129.095-.133a.256.256 0 0 1 .107.015c.051.015.115.042.194.081.862.427 1.183 1.122 1.252 1.803.07.686-.12 1.357-.278 1.71-.66 1.472-2.014 2.37-3.732 2.37-1.034 0-1.822-.182-2.456-.511-.633-.328-1.118-.806-1.54-1.41-.337-.483-.675-1.281-.76-2.172-.083-.888.087-1.862.756-2.708a5.216 5.216 0 0 1 1.772-1.456l.276-.141c.156-.079.303-.153.432-.229.207-.122.384-.258.509-.448Z" fill="#fff" stroke="#1A1A1A" stroke-width=".6"/><path d="M44.8 107.661h23.7M54.9 128.961h26.9M66.2 153.161h30.4M79.1 180.661h34.4M54.9 128.953l13.632-21.292M66.2 153.253l15.532-24.292M79.2 180.653l17.531-27.492M34.4 85.36v29.901" stroke="#1A1A1A" stroke-width=".6"/></g><rect x="-.75" y=".75" width="158.5" height="158.5" rx="39.25" transform="matrix(-1 0 0 1 335.5 130)" fill="#F4F8FE" stroke="#3E9AF8" stroke-width="1.5"/><path d="m210.01 244.665 9.987-12.8h28.67l9.925 12.8H210.01Z" fill="#fff" stroke="#1A1A1A" stroke-width=".4"/><rect x="201.954" y="244.736" width="64.763" height="4.93" rx=".73" fill="#fff" stroke="#1A1A1A" stroke-width=".4"/><path fill="#fff" stroke="#1A1A1A" stroke-width=".4" d="M234.6 170.065h66.6v50.4h-66.6zM301.2 170.065h15.6v79.6h-15.6z"/><circle cx="234.4" cy="207.265" r="37.2" fill="#fff" stroke="#1A1A1A" stroke-width=".4"/><mask id="b" fill="#fff"><path d="M258.4 207.265c0 13.255-10.745 24-24 24s-24-10.745-24-24 10.745-24 24-24 24 10.745 24 24Zm-44.261 0c0 11.19 9.071 20.262 20.261 20.262s20.261-9.072 20.261-20.262c0-11.19-9.071-20.261-20.261-20.261s-20.261 9.071-20.261 20.261Z"/></mask><path d="M258.4 207.265c0 13.255-10.745 24-24 24s-24-10.745-24-24 10.745-24 24-24 24 10.745 24 24Zm-44.261 0c0 11.19 9.071 20.262 20.261 20.262s20.261-9.072 20.261-20.262c0-11.19-9.071-20.261-20.261-20.261s-20.261 9.071-20.261 20.261Z" fill="#DEDEDE" stroke="#1A1A1A" stroke-width=".8" mask="url(#b)"/><path stroke="#1A1A1A" stroke-width=".4" d="M281.7 169.865v50.8M286.2 169.865v50.8M290.2 169.865v50.8M294.2 169.865v50.8M298.2 169.865v50.8"/><defs><clipPath id="a"><path fill="#fff" transform="translate(30 85.16)" d="M0 0h100v120H0z"/></clipPath></defs></svg>