<svg width="337" height="290" fill="none" xmlns="http://www.w3.org/2000/svg"><rect y="43" width="160" height="160" rx="40" fill="#E4EFFD"/><rect x="177.75" y=".75" width="158.5" height="158.5" rx="39.25" fill="#F4F8FE" stroke="#3E9AF8" stroke-width="1.5"/><g clip-path="url(#a)" stroke="#1A1A1A"><path d="M316.7 70.372v39.193H197.3V70.372a57.644 57.644 0 0 0 4.768 2.27c2.984 1.252 6.781 2.523 9.932 2.523 3.151 0 6.948-1.27 9.932-2.523a57.644 57.644 0 0 0 4.819-2.298l.249-.135.249.135a57.644 57.644 0 0 0 4.819 2.298c2.984 1.252 6.781 2.523 9.932 2.523 3.151 0 6.948-1.27 9.932-2.523a57.644 57.644 0 0 0 4.819-2.298l.249-.135.249.135a57.644 57.644 0 0 0 4.819 2.298c2.984 1.252 6.781 2.523 9.932 2.523 3.151 0 6.948-1.27 9.932-2.523a57.644 57.644 0 0 0 4.819-2.298l.249-.135.249.135a57.644 57.644 0 0 0 4.819 2.298c2.984 1.252 6.781 2.523 9.932 2.523 3.151 0 6.948-1.27 9.932-2.523a57.644 57.644 0 0 0 4.768-2.27ZM267 79.865h50M257 49.865v20M257 89.865v20" stroke-width=".6"/><g clip-path="url(#b)"><path d="M267 79.865h-8.5a1.5 1.5 0 0 0-1.5 1.5v8.5M267 79.865h-8.5a1.5 1.5 0 0 1-1.5-1.5v-8.5M257 69.865v20" stroke-width=".6"/><path d="M257 81.165v-2.6s0 1.3 1.4 1.3c-1.4 0-1.4 1.3-1.4 1.3Z" fill="#1A1A1A" stroke-width=".2"/></g><path stroke-width=".6" d="M304.6 59.965h4.4v45.8h-4.4zM300.9 106.165h11.8v3.4h-11.8zM205 59.965h4.4v45.8H205zM201.3 106.165h11.8v3.4h-11.8zM197.3 50.165h119.4v9.4H197.3z"/><path d="m257 59.765-59.9-9.8" stroke-width=".2"/><path d="m257 59.765-59.9-9.8M257 59.765l59.9-9.8M257 49.965l-59.9 9.8M257 49.965l59.9 9.8" stroke-width=".6"/></g><rect x="77.75" y="130.75" width="158.5" height="158.5" rx="39.25" fill="#F4F8FE" stroke="#3E9AF8" stroke-width="1.5"/><path d="M148.905 163.582a.1.1 0 0 1 .099-.084h15.992c.049 0 .09.036.099.084l18.216 105.983h-52.622l18.216-105.983-.295-.051.295.051ZM148.904 163.187l20 20M165.412 163.477l-19.933 19.934M145.504 183.053l28.2 28.2M168.455 183.187l-28.2 28.2M140.679 211.387l39.933 39.933M173.679 211.677l-39.934 39.934" stroke="#1A1A1A" stroke-width=".6"/><path d="M156.528 218.578c.164-.253.282-.484.339-.733.031-.138.042-.274.035-.413h1.54c.009.249-.026.657-.22 1.241-.072.216-.238.441-.484.687-.204.205-.443.404-.694.614l-.151.126c-.299.251-.608.521-.847.81-.24.289-.433.626-.459 1.015-.045.673.145 1.169.448 1.526.296.349.681.541.992.649.266.093.779.153 1.26-.015.247-.086.492-.235.686-.477.195-.242.323-.56.364-.962.023-.233.041-.441.056-.617l.021-.251c.016-.172.03-.29.046-.369l.06.028c.669.334.914.867.968 1.403a2.935 2.935 0 0 1-.223 1.384c-.538 1.207-1.635 1.941-3.04 1.941-.87 0-1.518-.154-2.029-.421-.511-.266-.907-.656-1.259-1.163-.271-.391-.552-1.052-.621-1.792-.069-.735.071-1.526.61-2.212a4.32 4.32 0 0 1 1.468-1.213c.073-.039.149-.077.225-.116a6.51 6.51 0 0 0 .398-.212c.191-.113.377-.252.511-.458ZM153.5 226.765h7.667v2.067H153.5v-2.067Z" fill="#DEDEDE" stroke="#1A1A1A" stroke-width=".6"/><path d="M153.5 215.498h7.667v2.067H153.5v-2.067ZM155.1 229.299h4.467v32H155.1v-32Z" fill="#DEDEDE" stroke="#1A1A1A" stroke-width=".6"/><path d="M155.1 163.498h4.467v51.534H155.1v-51.534Z" stroke="#1A1A1A" stroke-width=".6"/><path d="M146.167 261.765H168.5v5.6h-22.333v-5.6ZM140.3 267.765h34.067v1.8H140.3v-1.8Z" fill="#fff" stroke="#1A1A1A" stroke-width=".6"/><circle cx="157.089" cy="157.865" r="7.933" fill="#DEDEDE" stroke="#1A1A1A" stroke-width=".134"/><g clip-path="url(#c)" fill="#DEDEDE" stroke-width=".6"><path d="M156.841 152.869c-.605-1.554-1.342-2.237-1.758-2.78l-2.298.061-1.622 1.949c.133-.144.838-.007 2.595 1.698 1.756 1.704 2.384 3.258 2.479 3.821l1.234-.825c0-1.211-.025-2.371-.63-3.924ZM162.365 160.461c1.658.17 2.602-.175 3.275-.299l.993-2.072-.996-2.332c.068.184-.375.749-2.693 1.536-2.318.786-3.987.638-4.532.465l-.283 1.368c1.078.552 2.577 1.164 4.236 1.334ZM152.815 160.43c-1.167 1.191-1.875 2.157-2.199 2.76l1.001 2.069 2.445.676c-.187-.062-.352-.761.478-3.064.831-2.302 1.988-3.514 2.463-3.832l-1.005-.754c-1.103.498-2.016.954-3.183 2.145Z" stroke="#727171"/><circle cx="157.103" cy="157.88" r="1.658" stroke="#1A1A1A"/></g><circle cx="157.089" cy="157.865" r="7.7" stroke="#1A1A1A" stroke-width=".6"/><defs><clipPath id="a"><path fill="#fff" transform="translate(197 49.865)" d="M0 0h120v60H0z"/></clipPath><clipPath id="b"><path fill="#fff" transform="translate(247 69.865)" d="M0 0h20v20H0z"/></clipPath><clipPath id="c"><rect x="149.089" y="149.865" width="16" height="16" rx="8" fill="#fff"/></clipPath></defs></svg>