<svg width="337" height="290" fill="none" xmlns="http://www.w3.org/2000/svg"><rect x="177" y="38" width="160" height="160" rx="40" fill="#E4EFFD"/><rect width="160" height="160" rx="40" fill="#E4EFFD"/><rect x="113.75" y="130.75" width="158.5" height="158.5" rx="39.25" fill="#F4F8FE" stroke="#3E9AF8" stroke-width="1.5"/><path d="m170.286 198.465 6.439-48h32.55l6.439 48h-45.428ZM175 198.465h36v61.813c-.073.058-.164.131-.272.215a69.875 69.875 0 0 1-6.021 4.213c-1.855 1.152-3.923 2.297-5.968 3.153-2.053.858-4.038 1.406-5.739 1.406-1.701 0-3.686-.548-5.739-1.406-2.045-.856-4.113-2.001-5.968-3.153a69.875 69.875 0 0 1-6.021-4.213c-.108-.084-.199-.157-.272-.215v-61.813Z" fill="#fff" stroke="#1A1A1A" stroke-width="1.2"/><path d="m205.543 198.498.007-.033h14.802l9.248 13.981v36.419h-13.333l-.208-.476a403.353 403.353 0 0 1-4.127-9.89c-2.4-5.983-5.085-13.148-6.275-17.977-1.413-5.736-1.415-11.366-1.06-15.571.177-2.1.443-3.84.665-5.052.11-.606.209-1.08.281-1.401ZM180.457 198.498l-.007-.033h-14.802l-9.248 13.981v36.419h13.333l.208-.476a403.353 403.353 0 0 0 4.127-9.89c2.4-5.983 5.085-13.148 6.275-17.977 1.413-5.736 1.415-11.366 1.06-15.571-.177-2.1-.443-3.84-.665-5.052-.11-.606-.209-1.08-.281-1.401Z" fill="#fff" stroke="#1A1A1A" stroke-width="1.2"/><mask id="a" fill="#fff"><path fill-rule="evenodd" clip-rule="evenodd" d="M229 217.975v30.304h-12.3l-6.427-29.263c-8.095 3.882-13.673 12.061-13.673 21.523 0 13.214 10.879 23.926 24.3 23.926 13.42 0 24.3-10.712 24.3-23.926 0-10.417-6.762-19.28-16.2-22.564Z"/></mask><path fill-rule="evenodd" clip-rule="evenodd" d="M229 217.975v30.304h-12.3l-6.427-29.263c-8.095 3.882-13.673 12.061-13.673 21.523 0 13.214 10.879 23.926 24.3 23.926 13.42 0 24.3-10.712 24.3-23.926 0-10.417-6.762-19.28-16.2-22.564Z" fill="#fff"/><path d="m216.774 217.055.526 31.214-1.2.02-.525-31.214 1.199-.02Zm12.226.92h-1.2v-1.689l1.594.555-.394 1.134Zm0 30.304h1.2v1.2H229v-1.2Zm-12.3 0v1.2h-.965l-.207-.943 1.172-.257Zm-6.427-29.263-.519-1.082 1.366-.655.325 1.48-1.172.257Zm19.927-1.041v30.304h-2.4v-30.304h2.4Zm-1.2 31.504h-12.3v-2.4H229v2.4Zm-13.472-.943-6.427-29.262 2.344-.515 6.427 29.262-2.344.515Zm-4.736-28.438c-7.702 3.694-12.992 11.466-12.992 20.441h-2.4c0-9.948 5.866-18.534 14.354-22.605l1.038 2.164ZM197.8 240.539c0 12.534 10.325 22.726 23.1 22.726v2.4c-14.066 0-25.5-11.232-25.5-25.126h2.4Zm23.1 22.726c12.775 0 23.1-10.192 23.1-22.726h2.4c0 13.894-11.434 25.126-25.5 25.126v-2.4Zm23.1-22.726c0-9.881-6.414-18.306-15.394-21.431l.788-2.267c9.896 3.444 17.006 12.744 17.006 23.698H244Z" fill="#1A1A1A" mask="url(#a)"/><mask id="b" fill="#fff"><path fill-rule="evenodd" clip-rule="evenodd" d="M157 217.975v30.304h12.3l6.427-29.263c8.095 3.882 13.673 12.061 13.673 21.523 0 13.214-10.879 23.926-24.3 23.926-13.42 0-24.3-10.712-24.3-23.926 0-10.417 6.762-19.28 16.2-22.564Z"/></mask><path fill-rule="evenodd" clip-rule="evenodd" d="M157 217.975v30.304h12.3l6.427-29.263c8.095 3.882 13.673 12.061 13.673 21.523 0 13.214-10.879 23.926-24.3 23.926-13.42 0-24.3-10.712-24.3-23.926 0-10.417 6.762-19.28 16.2-22.564Z" fill="#fff"/><path d="M168.7 216.969v31.31h1.2v-31.31h-1.2Zm-11.7 1.006h1.2v-1.689l-1.594.555.394 1.134Zm0 30.304h-1.2v1.2h1.2v-1.2Zm12.3 0v1.2h.965l.207-.943-1.172-.257Zm6.427-29.263.519-1.082-1.366-.655-.325 1.48 1.172.257Zm-19.927-1.041v30.304h2.4v-30.304h-2.4Zm1.2 31.504h12.3v-2.4H157v2.4Zm13.472-.943 6.427-29.262-2.344-.515-6.427 29.262 2.344.515Zm4.736-28.438c7.702 3.694 12.992 11.466 12.992 20.441h2.4c0-9.948-5.866-18.534-14.354-22.605l-1.038 2.164Zm12.992 20.441c0 12.534-10.325 22.726-23.1 22.726v2.4c14.066 0 25.5-11.232 25.5-25.126h-2.4Zm-23.1 22.726c-12.775 0-23.1-10.192-23.1-22.726h-2.4c0 13.894 11.434 25.126 25.5 25.126v-2.4ZM142 240.539c0-9.881 6.414-18.306 15.394-21.431l-.788-2.267c-9.896 3.444-17.006 12.745-17.006 23.698h2.4Z" fill="#1A1A1A" mask="url(#b)"/></svg>