<svg width="337" height="290" fill="none" xmlns="http://www.w3.org/2000/svg"><rect width="160" height="160" rx="40" transform="matrix(-1 0 0 1 160 38)" fill="#E4EFFD"/><rect x="177.75" y=".75" width="158.5" height="158.5" rx="39.25" fill="#F4F8FE" stroke="#3E9AF8" stroke-width="1.5"/><path d="M252.194 103.801c.709-1.093 1.169-2.015 1.383-2.959.193-.847.184-1.694.005-2.677h9.063c.177 1.07.257 3.334-.948 6.967-.4 1.204-1.286 2.356-2.432 3.502-.956.957-2.073 1.89-3.204 2.835l-.667.559c-1.345 1.131-2.669 2.289-3.679 3.509-1.01 1.22-1.729 2.53-1.825 3.969-.185 2.773.593 4.735 1.768 6.117 1.168 1.375 2.707 2.153 4.01 2.608 1.009.352 3.072.597 4.978-.068.96-.335 1.887-.903 2.615-1.811.729-.908 1.245-2.139 1.409-3.777.105-1.043.183-1.957.249-2.745.036-.42.069-.805.101-1.153.093-1.015.181-1.716.319-2.175.138-.458.29-.564.442-.588.102-.016.246-.004.456.06.209.063.461.171.77.325 3.396 1.693 4.664 4.451 4.935 7.15.272 2.716-.469 5.364-1.091 6.76-2.591 5.812-7.905 9.356-14.639 9.356-4.041 0-7.131-.716-9.617-2.013-2.485-1.297-4.389-3.185-6.04-5.565-1.324-1.907-2.649-5.056-2.978-8.568-.328-3.507.338-7.356 2.967-10.698 2.466-3.135 4.898-4.66 6.939-5.74.369-.195.73-.378 1.079-.555a29.684 29.684 0 0 0 1.679-.894c.8-.475 1.478-1 1.953-1.731Z" fill="#fff" stroke="#1A1A1A" stroke-width=".6"/><path d="M244.424 98.28c-.6-.384-1.322-1.082-2.132-2.076-.806-.99-1.687-2.258-2.604-3.766-1.835-3.016-3.811-6.978-5.633-11.565-3.647-9.175-6.673-20.825-6.754-32.366-.129-18.422 8.995-25.538 15.356-27.168 3.216-.824 9.118-1.196 14.911-1.173 5.795.023 11.41.442 14.055 1.171 5.227 1.443 15.077 9.62 15.077 27.172 0 9.632-2.949 21.024-6.631 30.554-1.84 4.762-3.86 9.051-5.779 12.414-1.927 3.376-3.731 5.78-5.129 6.814-.336.249-.912.486-1.704.699-.785.21-1.753.388-2.849.532-2.191.288-4.872.437-7.576.443-2.704.006-5.424-.133-7.693-.418-1.134-.143-2.151-.322-2.995-.536-.849-.216-1.501-.463-1.92-.731Z" fill="#fff" stroke="#1A1A1A" stroke-width=".6"/><circle cx="257.24" cy="49.565" r="21.6" fill="#fff"/><circle cx="257.24" cy="49.565" r="21.3" stroke="#000" stroke-opacity=".12" stroke-width=".601"/><mask id="a" fill="#fff"><path d="M278.84 49.565c0 11.93-9.671 21.6-21.6 21.6-11.929 0-21.6-9.67-21.6-21.6 0-11.929 9.671-21.6 21.6-21.6 11.929 0 21.6 9.671 21.6 21.6Zm-39.835 0c0 10.071 8.164 18.236 18.235 18.236s18.235-8.165 18.235-18.236c0-10.07-8.164-18.235-18.235-18.235s-18.235 8.164-18.235 18.235Z"/></mask><path d="M278.84 49.565c0 11.93-9.671 21.6-21.6 21.6-11.929 0-21.6-9.67-21.6-21.6 0-11.929 9.671-21.6 21.6-21.6 11.929 0 21.6 9.671 21.6 21.6Zm-39.835 0c0 10.071 8.164 18.236 18.235 18.236s18.235-8.165 18.235-18.236c0-10.07-8.164-18.235-18.235-18.235s-18.235 8.164-18.235 18.235Z" fill="#DEDEDE" stroke="#1A1A1A" stroke-width="1.2" mask="url(#a)"/><rect x="64.75" y="130.75" width="158.5" height="158.5" rx="39.25" fill="#F4F8FE" stroke="#3E9AF8" stroke-width="1.5"/><path d="M132.6 185.865h22.8v72.6h-22.8v-72.6Z" fill="#fff"/><path d="M132.9 186.165h22.2v72h-22.2v-72Z" stroke="#000" stroke-opacity=".87" stroke-width=".6"/><circle cx="144" cy="179.865" r="30" fill="#fff"/><circle cx="144" cy="179.865" r="29.7" stroke="#000" stroke-opacity=".87" stroke-width=".6"/><g clip-path="url(#b)" stroke-width=".6"><path d="M143.167 161.167c-2.275-5.845-5.047-8.415-6.616-10.458l-8.643.227-6.105 7.335c.501-.544 3.155-.028 9.764 6.386s8.972 12.258 9.328 14.379l4.642-3.104c0-4.557-.094-8.92-2.37-14.765ZM163.949 189.732c6.24.638 9.791-.658 12.324-1.123l3.737-7.798-3.746-8.776c.255.694-1.414 2.821-10.135 5.78-8.721 2.96-15 2.4-17.049 1.75l-1.066 5.148c4.056 2.077 9.695 4.381 15.935 5.019ZM128.018 189.616c-4.39 4.48-7.055 8.113-8.27 10.383l3.765 7.784 9.197 2.544c-.702-.232-1.324-2.863 1.801-11.527 3.125-8.663 7.478-13.222 9.264-14.419l-3.778-2.838c-4.153 1.876-7.589 3.593-11.979 8.073Z" fill="#fff" stroke="#727171"/><circle cx="144.154" cy="180.019" r="6.239" fill="#DEDEDE" stroke="#000" stroke-opacity=".87"/></g><circle cx="144" cy="179.865" r="29.749" stroke="#000" stroke-opacity=".87" stroke-width=".502"/><path d="M125.4 257.865h37.2v12h-37.2v-12Z" fill="#DEDEDE"/><path d="M125.7 258.165h36.6v11.4h-36.6v-11.4Z" stroke="#000" stroke-opacity=".87" stroke-width=".6"/><defs><clipPath id="b"><rect x="114" y="149.865" width="60" height="60" rx="30" fill="#fff"/></clipPath></defs></svg>