<svg width="246" height="309" fill="none" xmlns="http://www.w3.org/2000/svg"><path fill-rule="evenodd" clip-rule="evenodd" d="M42.433 94.317H0v1.5h42.433v-1.5Z" fill="#3E9AF8"/><path d="M42 94.317a110.002 110.002 0 0 0 67.905 101.627A110.001 110.001 0 0 0 152 204.317v-1.498a108.497 108.497 0 0 1-76.722-31.78 108.496 108.496 0 0 1-31.78-76.722H42Z" fill="#3E9AF8"/><path fill-rule="evenodd" clip-rule="evenodd" d="M151.5 202.817v82h1.5v-82h-1.5Z" fill="#3E9AF8"/><path d="M164 296.317c0-6.627-5.373-12-12-12s-12 5.373-12 12c0 6.628 5.373 12 12 12s12-5.372 12-12Z" fill="#F4F8FE"/><path fill-rule="evenodd" clip-rule="evenodd" d="M152 285.817c5.799 0 10.5 4.701 10.5 10.5s-4.701 10.5-10.5 10.5-10.5-4.701-10.5-10.5 4.701-10.5 10.5-10.5Zm0-1.5c6.627 0 12 5.373 12 12 0 6.628-5.373 12-12 12s-12-5.372-12-12c0-6.627 5.373-12 12-12Z" fill="#3E9AF8"/><rect x=".75" y="-.75" width="186.5" height="186.5" rx="93.25" transform="matrix(1 0 0 -1 58 186.817)" stroke="#3E9AF8" stroke-width="1.5"/><g clip-path="url(#a)" fill="#3E9AF8"><path d="m196.475 95.626-15.033-15.07a1.8 1.8 0 0 0-1.273-.528h-9.235a3.766 3.766 0 0 0-3.762 3.762v20.652h-5.919V86.474a3.598 3.598 0 0 0-3.593-3.594h-7.188V64.91a3.598 3.598 0 0 0-3.594-3.594H128.91a3.598 3.598 0 0 0-3.594 3.594v7.906h-7.21a1.797 1.797 0 1 0 0 3.594h7.21v6.469h-18.519a1.797 1.797 0 1 0 0 3.594h7.715v17.968h-7.715c-.993 0-1.797.805-1.797 1.797v10.063c0 .992.804 1.797 1.797 1.797h7.599a8.932 8.932 0 0 0 1.735 6.468h-9.334a1.797 1.797 0 1 0 0 3.594h30.891c4.954 0 8.985-4.03 8.985-8.984 0-.365-.025-.725-.068-1.078h26.024a8.938 8.938 0 0 0 1.735 6.468h-16.985a1.797 1.797 0 1 0 0 3.594h24.168c4.954 0 8.984-4.03 8.984-8.984 0-.365-.024-.725-.066-1.078h2.773a3.767 3.767 0 0 0 3.762-3.763v-17.44c0-.476-.189-.933-.525-1.27Zm-3.069 5.941h-9.318l3.314-3.313 3.313-3.313 2.691 2.698v3.928Zm-15.453-1.796v-5.26l6.174-6.174 4.05 4.06-9.056 9.055a1.799 1.799 0 0 1-1.168-1.681Zm3.636-13.979-3.636 3.636v-5.806h1.471l2.165 2.17Zm-23.927 18.65h-17.971V86.474h3.594v5.39c0 .993.804 1.797 1.797 1.797h7.187c.993 0 1.797-.804 1.797-1.797v-5.39h3.594l.002 17.968Zm-10.784-17.968h3.594v3.593h-3.594v-3.593Zm-7.21-21.563v3.594h-3.593V64.91h3.593Zm-10.758 0h3.571v5.39c0 .993.804 1.798 1.797 1.798h7.187c.992 0 1.797-.805 1.797-1.797v-5.39h3.616l.003 17.968H128.91V64.91Zm0 21.563v3.593h-3.594v-3.593h3.594Zm-10.804 0h3.616v5.39c0 .993.805 1.797 1.797 1.797h7.188c.992 0 1.796-.804 1.796-1.797v-5.39h3.572l.002 17.968h-17.971V86.474Zm-.183 32.703a5.396 5.396 0 0 1 5.39-5.391 5.397 5.397 0 0 1 5.391 5.391 5.396 5.396 0 0 1-5.391 5.39 5.396 5.396 0 0 1-5.39-5.39Zm12.578 5.384a.027.027 0 0 0 .005.006h-.01a.027.027 0 0 1 .005-.006Zm7.187.006a5.396 5.396 0 0 1-5.39-5.39 5.396 5.396 0 0 1 5.39-5.391 5.397 5.397 0 0 1 5.391 5.391 5.396 5.396 0 0 1-5.391 5.39Zm7.671-10.062a8.975 8.975 0 0 0-14.858-.713 8.978 8.978 0 0 0-7.188-3.6 8.986 8.986 0 0 0-7.671 4.313h-7.048v-6.469h58.578v6.469h-21.813Zm36.188 10.062a5.396 5.396 0 0 1-5.391-5.39 5.397 5.397 0 0 1 5.391-5.391 5.397 5.397 0 0 1 5.391 5.391 5.397 5.397 0 0 1-5.391 5.39Zm11.691-10.062h-4.02a8.986 8.986 0 0 0-7.671-4.313 8.985 8.985 0 0 0-7.671 4.313h-3.11V83.79c0-.093.075-.169.168-.169h3.425v16.15a5.396 5.396 0 0 0 5.391 5.39h13.656v9.175a.17.17 0 0 1-.168.169Z"/><path d="M150.191 124.567c-.472 0-.936.193-1.27.527a1.81 1.81 0 0 0-.526 1.27c0 .473.192.937.526 1.271a1.81 1.81 0 0 0 1.27.526c.473 0 .937-.192 1.271-.526.334-.334.526-.798.526-1.271a1.81 1.81 0 0 0-.526-1.27 1.812 1.812 0 0 0-1.271-.527ZM110.918 76.411a1.81 1.81 0 0 0 1.271-.526c.334-.334.526-.798.526-1.27 0-.473-.191-.937-.526-1.271a1.81 1.81 0 0 0-1.271-.527c-.473 0-.937.193-1.271.527a1.806 1.806 0 0 0-.525 1.27c0 .473.19.937.525 1.27.334.335.798.527 1.271.527Z"/></g><defs><clipPath id="a"><path fill="#fff" transform="matrix(1 0 0 -1 106 140.317)" d="M0 0h92v92H0z"/></clipPath></defs></svg>