<svg xmlns="http://www.w3.org/2000/svg" width="273" height="232" fill="none" viewBox="0 0 273 232">
  <g clip-path="url(#a)">
    <path fill="#3E9AF8" fill-rule="evenodd" d="M189.538 38.468V.885h-1.329v37.583h1.329Z" clip-rule="evenodd"/>
    <path fill="#3E9AF8" d="M189.538 38.084a97.424 97.424 0 0 0-97.426 97.426h1.327a96.107 96.107 0 0 1 28.147-67.952 96.096 96.096 0 0 1 67.952-28.147v-1.327Z"/>
    <path fill="#3E9AF8" fill-rule="evenodd" d="M93.44 135.067H20.814v1.328l72.626.001v-1.329Z" clip-rule="evenodd"/>
    <path fill="#F4F8FE" d="M10.628 146.138c5.87 0 10.629-4.759 10.629-10.628 0-5.87-4.759-10.629-10.629-10.629C4.758 124.881 0 129.64 0 135.51c0 5.869 4.758 10.628 10.628 10.628Z"/>
    <path fill="#3E9AF8" fill-rule="evenodd" d="M19.928 135.51a9.3 9.3 0 0 1-9.3 9.299 9.3 9.3 0 1 1 9.3-9.299Zm1.329 0c0 5.869-4.759 10.628-10.629 10.628C4.758 146.138 0 141.379 0 135.51c0-5.87 4.758-10.629 10.628-10.629s10.629 4.759 10.629 10.629Z" clip-rule="evenodd"/>
    <rect width="165.178" height="165.178" x=".664" y=".664" stroke="#3E9AF8" stroke-width="1.329" rx="82.589" transform="matrix(0 1 1 0 106.283 52.255)"/>
    <g clip-path="url(#b)">
      <path fill="#3E9AF8" d="m230.071 136.042-13.314-13.348a1.595 1.595 0 0 0-1.127-.467h-8.179a3.335 3.335 0 0 0-3.332 3.331v18.292h-5.242v-15.915a3.187 3.187 0 0 0-3.183-3.182h-6.365v-15.914a3.187 3.187 0 0 0-3.183-3.183h-15.914a3.187 3.187 0 0 0-3.183 3.183v7.002h-6.386a1.59 1.59 0 1 0 0 3.183h6.386v5.729h-16.402a1.59 1.59 0 1 0 0 3.182h6.834v15.915h-6.834a1.59 1.59 0 0 0-1.591 1.591v8.912a1.59 1.59 0 0 0 1.591 1.591h6.73a7.917 7.917 0 0 0 1.537 5.729h-8.267a1.591 1.591 0 0 0 0 3.183h27.36c4.387 0 7.957-3.569 7.957-7.957 0-.323-.022-.641-.06-.955h23.048a7.91 7.91 0 0 0 1.537 5.729h-15.043a1.592 1.592 0 0 0 0 3.183h21.404c4.387 0 7.957-3.569 7.957-7.957 0-.323-.022-.641-.059-.955h2.456a3.335 3.335 0 0 0 3.332-3.332v-15.446c0-.422-.167-.826-.465-1.124Zm-2.718 5.261h-8.252l2.934-2.934 2.935-2.935 2.383 2.39v3.479Zm-13.686-1.591v-4.658l5.468-5.469 3.587 3.596-8.02 8.02a1.594 1.594 0 0 1-1.035-1.489Zm3.22-12.38-3.22 3.22v-5.142h1.302l1.918 1.922Zm-21.191 16.518H179.78v-15.915h3.183v4.775a1.59 1.59 0 0 0 1.591 1.591h6.366a1.59 1.59 0 0 0 1.591-1.591v-4.775h3.183l.002 15.915Zm-9.55-15.915h3.183v3.183h-3.183v-3.183Zm-6.386-19.096v3.182h-3.183v-3.182h3.183Zm-9.528 0h3.163v4.774a1.59 1.59 0 0 0 1.591 1.591h6.366c.878 0 1.591-.712 1.591-1.591v-4.774h3.203l.002 15.914h-15.916v-15.914Zm0 19.096v3.183h-3.183v-3.183h3.183Zm-9.569 0h3.203v4.775c0 .879.713 1.591 1.591 1.591h6.366a1.59 1.59 0 0 0 1.591-1.591v-4.775h3.163l.002 15.915h-15.916v-15.915Zm-.162 28.964a4.78 4.78 0 0 1 4.774-4.774 4.78 4.78 0 0 1 4.775 4.774 4.78 4.78 0 0 1-4.775 4.774 4.78 4.78 0 0 1-4.774-4.774Zm11.14 4.769.004.005h-.008a.018.018 0 0 1 .004-.005Zm6.366.005a4.78 4.78 0 0 1-4.775-4.774 4.78 4.78 0 0 1 4.775-4.774 4.78 4.78 0 0 1 4.774 4.774 4.78 4.78 0 0 1-4.774 4.774Zm6.794-8.912a7.963 7.963 0 0 0-6.794-3.819 7.95 7.95 0 0 0-6.366 3.188 7.95 7.95 0 0 0-13.16.631h-6.242v-5.729h51.88v5.729h-19.318Zm32.049 8.912a4.779 4.779 0 0 1-4.774-4.774 4.779 4.779 0 0 1 4.774-4.774 4.779 4.779 0 0 1 4.774 4.774 4.779 4.779 0 0 1-4.774 4.774Zm10.354-8.912h-3.56a7.96 7.96 0 0 0-6.794-3.819 7.96 7.96 0 0 0-6.794 3.819h-2.755v-27.203a.15.15 0 0 1 .15-.149h3.033v14.303a4.78 4.78 0 0 0 4.775 4.774h12.094v8.126a.15.15 0 0 1-.149.149Z"/>
      <path fill="#3E9AF8" d="M189.08 161.673c-.418 0-.829.171-1.125.467a1.601 1.601 0 0 0-.467 1.125c0 .418.171.829.467 1.125.296.296.707.466 1.125.466.418 0 .829-.17 1.125-.466.296-.296.466-.707.466-1.125a1.6 1.6 0 0 0-.466-1.125 1.605 1.605 0 0 0-1.125-.467Zm-34.89-42.649c.419 0 .829-.171 1.125-.467.296-.296.466-.706.466-1.125a1.6 1.6 0 0 0-.466-1.125 1.602 1.602 0 0 0-1.125-.466c-.42 0-.83.17-1.126.466a1.603 1.603 0 0 0-.465 1.125c0 .419.169.829.465 1.125.296.296.706.467 1.126.467Z"/>
    </g>
  </g>
  <defs>
    <clipPath id="a">
      <path fill="#fff" d="M0 0v232h273V0z"/>
    </clipPath>
    <clipPath id="b">
      <path fill="#fff" d="M148.796 94.768h81.48v81.48h-81.48z"/>
    </clipPath>
  </defs>
</svg>
