<svg width="273" height="219" viewBox="0 0 273 219" fill="none" xmlns="http://www.w3.org/2000/svg">
  <path fill-rule="evenodd" clip-rule="evenodd" d="M83.5113 38.3627V0.779785L84.8398 0.779785V38.3627H83.5113Z" fill="#91A3BE"/>
  <path d="M83.5117 37.9788C96.3059 37.9788 108.975 40.4988 120.795 45.3949C132.615 50.291 143.355 57.4674 152.402 66.5142C161.449 75.561 168.625 86.3012 173.522 98.1215C178.418 109.942 180.938 122.611 180.938 135.405H179.61C179.61 122.785 177.125 110.289 172.295 98.6295C167.466 86.9703 160.387 76.3765 151.464 67.4529C142.54 58.5293 131.946 51.4508 120.287 46.6214C108.628 41.792 96.1316 39.3063 83.5117 39.3063V37.9788Z" fill="#91A3BE"/>
  <path fill-rule="evenodd" clip-rule="evenodd" d="M179.608 134.962L252.234 134.962L252.234 136.291L179.608 136.291L179.608 134.962Z" fill="#91A3BE"/>
  <path d="M262.421 146.033C256.551 146.033 251.792 141.274 251.792 135.405C251.792 129.535 256.551 124.776 262.421 124.776C268.29 124.776 273.049 129.535 273.049 135.405C273.049 141.274 268.29 146.033 262.421 146.033Z" fill="#F4F8FE"/>
  <path fill-rule="evenodd" clip-rule="evenodd" d="M253.121 135.405C253.121 140.541 257.284 144.704 262.421 144.704C267.557 144.704 271.72 140.541 271.72 135.405C271.72 130.269 267.557 126.105 262.421 126.105C257.284 126.105 253.121 130.269 253.121 135.405ZM251.792 135.405C251.792 141.274 256.551 146.033 262.421 146.033C268.29 146.033 273.049 141.274 273.049 135.405C273.049 129.535 268.29 124.776 262.421 124.776C256.551 124.776 251.792 129.535 251.792 135.405Z" fill="#91A3BE"/>
  <rect x="166.101" y="52.8142" width="165.178" height="165.178" rx="82.5889" transform="rotate(90 166.101 52.8142)" stroke="#91A3BE" stroke-width="1.32854"/>
  <g clip-path="url(#clip0_12977_5615)">
    <path d="M122.162 171.069H117.279H107.73C108.564 169.807 109.051 168.293 109.051 166.667C109.051 165.04 108.564 163.527 107.73 162.265H109.882C110.7 162.265 111.412 161.698 111.602 160.895L118.131 133.231H119.2C121.986 133.231 124.252 130.947 124.252 128.14C124.252 125.333 121.986 123.048 119.2 123.048H91.3421L89.4422 113.293C90.4823 112.012 91.1066 110.377 91.1066 108.597C91.1066 108.475 91.1031 108.353 91.0976 108.232L97.9369 105.99C99.026 107.474 100.765 108.36 102.599 108.36C103.19 108.36 103.792 108.267 104.385 108.073C107.42 107.078 109.086 103.781 108.099 100.723C107.111 97.6647 103.838 95.9864 100.804 96.9807C99.3333 97.4622 98.1371 98.4921 97.4355 99.881C97.0004 100.741 96.789 101.676 96.8042 102.615L90.0789 104.819C88.793 102.634 86.4297 101.165 83.7307 101.165C79.6636 101.165 76.3548 104.499 76.3548 108.597C76.3548 108.835 76.3673 109.069 76.3894 109.302L69.6896 111.497C69.1495 110.699 68.4161 110.046 67.5383 109.596C66.1605 108.889 64.5914 108.765 63.1211 109.246C60.0864 110.241 58.42 113.539 59.4076 116.596C59.8855 118.078 60.9076 119.283 62.2854 119.99C63.1114 120.414 64.0051 120.628 64.9063 120.628C65.5079 120.628 66.1135 120.532 66.7026 120.339C68.173 119.857 69.3691 118.827 70.0701 117.439C70.4728 116.642 70.6841 115.781 70.7014 114.912L77.562 112.664C77.6767 112.84 77.7989 113.01 77.9274 113.175L76.004 123.049H47.8258C45.0391 123.049 42.7725 125.333 42.7725 128.14C42.7725 130.947 45.0391 133.231 47.8258 133.231H48.8935L55.4233 160.895C55.6126 161.698 56.3246 162.265 57.143 162.265H59.295C58.4614 163.527 57.9738 165.04 57.9738 166.667C57.9738 168.293 58.4614 169.808 59.295 171.069H44.8627C43.8862 171.069 43.1059 171.877 43.1059 172.86C43.1059 173.844 43.8862 174.632 44.8627 174.632H122.162C123.139 174.632 123.919 173.844 123.919 172.86C123.919 171.877 123.139 171.069 122.162 171.069ZM100.587 101.497C101.027 100.626 102.003 100.127 102.963 100.288C103.817 100.433 104.528 101.074 104.763 101.915C105.038 102.899 104.601 103.982 103.722 104.492C102.967 104.929 102.012 104.885 101.301 104.382C100.398 103.742 100.085 102.49 100.587 101.497ZM66.9188 115.823C66.4809 116.689 65.5113 117.19 64.5555 117.035C63.6307 116.884 62.8814 116.153 62.7012 115.228C62.5423 114.414 62.8531 113.555 63.4912 113.031C64.2633 112.398 65.3884 112.36 66.204 112.933C67.1129 113.572 67.4216 114.828 66.9188 115.823ZM105.515 166.667C105.515 169.094 103.555 171.069 101.146 171.069C98.7366 171.069 96.7766 169.094 96.7766 166.667C96.7766 164.239 98.7366 162.265 101.146 162.265C103.555 162.265 105.515 164.239 105.515 166.667ZM94.5625 171.069H72.4625C73.2967 169.807 73.7843 168.293 73.7843 166.667C73.7843 165.04 73.2967 163.527 72.4625 162.265H94.5625C93.7282 163.527 93.2406 165.04 93.2406 166.667C93.2406 168.293 93.7282 169.807 94.5625 171.069ZM83.7307 104.728C85.4234 104.728 86.8627 105.838 87.3724 107.373C87.3917 107.468 87.4193 107.558 87.4532 107.648C87.5298 107.952 87.5706 108.27 87.5706 108.597C87.5706 109.748 87.0685 110.782 86.275 111.492C84.8129 112.798 82.5456 112.769 81.116 111.427C80.3632 110.72 79.8908 109.714 79.8908 108.598C79.8908 106.464 81.6139 104.728 83.7307 104.728ZM81.0711 115.532C82.7307 116.177 84.614 116.191 86.2826 115.572L87.7391 123.049H79.6077L81.0711 115.532ZM52.5282 133.231H100.558C101.534 133.231 102.326 132.433 102.326 131.45C102.326 130.466 101.534 129.668 100.558 129.668H47.8258C46.9894 129.668 46.3085 128.982 46.3085 128.14C46.3085 127.297 46.9894 126.611 47.8258 126.611H77.4529H77.4591H89.8876H89.8938H119.2C120.036 126.611 120.716 127.297 120.716 128.14C120.716 128.982 120.036 129.668 119.2 129.668H116.735C115.928 129.668 115.201 130.247 115.015 131.038L108.485 158.702H58.5401L52.5282 133.231ZM61.5098 166.667C61.5098 164.239 63.4698 162.265 65.8787 162.265C68.2883 162.265 70.2483 164.239 70.2483 166.667C70.2483 169.094 68.2883 171.069 65.8787 171.069C63.4698 171.069 61.5098 169.094 61.5098 166.667Z" fill="#305680"/>
    <path d="M104.768 131.412C104.768 130.434 105.561 129.641 106.539 129.641C107.518 129.641 108.311 130.434 108.311 131.412C108.311 132.39 107.518 133.183 106.539 133.183C105.561 133.183 104.768 132.39 104.768 131.412Z" fill="#305680"/>
  </g>
  <defs>
    <clipPath id="clip0_12977_5615">
      <rect width="81.48" height="81.48" fill="white" transform="translate(42.7725 94.6631)"/>
    </clipPath>
  </defs>
</svg>
