<svg xmlns="http://www.w3.org/2000/svg" width="142" height="71" fill="none" viewBox="0 0 142 71">
  <g class="Health-Use-case" clip-path="url(#a)">
    <circle cx="70.602" cy="34.4" r="27.4" stroke="#91A3BE" stroke-dasharray="1.6 1.6" stroke-linecap="round" stroke-linejoin="round" stroke-opacity=".8" stroke-width=".15" class="Big-ellipse"><animate xmlns="http://www.w3.org/2000/svg" attributeName="opacity" values="0;0;1;1" dur="2.0016s" repeatCount="1" calcMode="spline" keyTimes="0;0.5;0.75;1" keySplines="0.5 0.35 0.15 1;0.5 0.35 0.15 1;0.5 0.35 0.15 1" additive="replace" fill="freeze"/></circle>
    <g class="lines">
      <path stroke="#91A3BE" stroke-linecap="round" stroke-linejoin="round" stroke-width=".15" d="M1.9 27.301h32.25l10.95 15.35h12.4" class="line-8"><animate xmlns="http://www.w3.org/2000/svg" attributeName="stroke-dasharray" values="0 64.1404;0 64.1404;0 64.1404;5.3599 58.7806;27.6566 36.4838;53.7636 10.3768;61.0922 3.0483;63.2958 0.8446;63.5054 0.6351;63.5054 0.6351;63.5054 0.6351" dur="2s" repeatCount="1" keyTimes="0;0.1;0.2;0.3;0.4;0.5;0.6;0.7;0.8;0.9;1" fill="freeze"/></path>
      <path stroke="#7D899B" stroke-linecap="round" stroke-linejoin="round" stroke-width=".15" d="M.9 39.301h30.95l10.1 6.75h13.2" class="line-7"><animate xmlns="http://www.w3.org/2000/svg" attributeName="stroke-dasharray" values="0 56.8609;0 56.8609;0 56.8609;4.7515 52.1094;24.5178 32.3432;47.6618 9.1991;54.1586 2.7023;56.1122 0.7488;56.2979 0.563;56.2979 0.563;56.2979 0.563" dur="2s" repeatCount="1" keyTimes="0;0.1;0.2;0.3;0.4;0.5;0.6;0.7;0.8;0.9;1" fill="freeze"/></path>
      <path stroke="#51627B" stroke-linecap="round" stroke-linejoin="round" stroke-width=".15" d="M1.752 51.2h35.25l2-2h16.1" class="line-6"><animate xmlns="http://www.w3.org/2000/svg" attributeName="stroke-dasharray" values="0 54.7202;0 54.7202;0 54.7202;4.5727 50.1476;23.5947 31.1255;45.8675 8.8528;52.1196 2.6006;53.9996 0.7206;54.1784 0.5418;54.1784 0.5418;54.1784 0.5418" dur="2s" repeatCount="1" keyTimes="0;0.1;0.2;0.3;0.4;0.5;0.6;0.7;0.8;0.9;1" fill="freeze"/></path>
      <path stroke="#3B475A" stroke-linecap="round" stroke-linejoin="round" stroke-width=".15" d="M1.202 63.2h31.15l9.3-10.65h16.05" class="line-5"><animate xmlns="http://www.w3.org/2000/svg" attributeName="stroke-dasharray" values="0 61.9524;0 61.9524;0 61.9524;5.177 56.7754;26.7132 35.2393;51.9296 10.0228;59.0082 2.9443;61.1366 0.8158;61.339 0.6134;61.339 0.6134;61.339 0.6134" dur="2s" repeatCount="1" keyTimes="0;0.1;0.2;0.3;0.4;0.5;0.6;0.7;0.8;0.9;1" fill="freeze"/></path>
      <path stroke="#18469D" stroke-linecap="round" stroke-linejoin="round" stroke-width=".15" d="M138.852 43.7h-29.85l-13.95-10.5h-4.55" class="line-4"><animate xmlns="http://www.w3.org/2000/svg" attributeName="stroke-dasharray" values="0 52.3786;0 52.3786;0 52.3786;4.377 48.0016;22.585 29.7936;43.9047 8.4739;49.8893 2.4893;51.6889 0.6897;51.86 0.5186;51.86 0.5186;51.86 0.5186" dur="2s" repeatCount="1" keyTimes="0;0.1;0.2;0.3;0.4;0.5;0.6;0.7;0.8;0.9;1" fill="freeze"/></path>
      <path stroke="#1568E5" stroke-linecap="round" stroke-linejoin="round" stroke-width=".15" d="M139.8 31.302h-35.05l-2.35-1.9H92.1" class="line-3"><animate xmlns="http://www.w3.org/2000/svg" attributeName="stroke-dasharray" values="0 52.3786;0 52.3786;0 52.3786;4.377 48.0016;22.585 29.7936;43.9047 8.4739;49.8893 2.4893;51.6889 0.6897;51.86 0.5186;51.86 0.5186;51.86 0.5186" dur="2s" repeatCount="1" keyTimes="0;0.1;0.2;0.3;0.4;0.5;0.6;0.7;0.8;0.9;1" fill="freeze"/></path>
      <path stroke="#3E9AF8" stroke-linecap="round" stroke-linejoin="round" stroke-width=".15" d="M140 19.601h-31.9l-5.05 6H92.1" class="line-2"><animate xmlns="http://www.w3.org/2000/svg" attributeName="stroke-dasharray" values="0 51.1993;0 51.1993;0 51.1993;4.2784 46.9208;22.0765 29.1228;42.9161 8.2831;48.766 2.4332;50.5251 0.6742;50.6924 0.5069;50.6924 0.5069;50.6924 0.5069" dur="2s" repeatCount="1" keyTimes="0;0.1;0.2;0.3;0.4;0.5;0.6;0.7;0.8;0.9;1" fill="freeze"/></path>
      <path stroke="#78C4FE" stroke-linecap="round" stroke-linejoin="round" stroke-width=".15" d="M140.001 7.601h-32.6l-11.4 14.2h-5.5" class="line-1"><animate xmlns="http://www.w3.org/2000/svg" attributeName="stroke-dasharray" values="0 56.873;0 56.873;0 56.873;4.7526 52.1204;24.523 32.35;47.672 9.201;54.1701 2.7029;56.1241 0.7489;56.3099 0.5631;56.3099 0.5631;56.3099 0.5631" dur="2s" repeatCount="1" keyTimes="0;0.1;0.2;0.3;0.4;0.5;0.6;0.7;0.8;0.9;1" fill="freeze"/></path>
    </g>
    <g class="tb-gateway">
      <animate xmlns="http://www.w3.org/2000/svg" attributeName="opacity" values="0;1;1" dur="2s" repeatCount="1" calcMode="spline" keyTimes="0;0.5;1" keySplines="0 0 0.15 1;0.5 0.35 0.15 1" additive="replace" fill="freeze"/>
      <animateTransform xmlns="http://www.w3.org/2000/svg" attributeName="transform" type="translate" values="0 -3;0 0;0 0" dur="2s" repeatCount="1" calcMode="spline" keyTimes="0;0.5;1" keySplines="0.5 0.35 0.15 1;0.5 0.35 0.15 1" additive="sum" fill="freeze"/>
      <g class="Group 121">
        <path stroke="#3E9AF8" stroke-width=".15" d="m84.886 21.139.004.048.046.016c2.606.906 4.487 3.389 4.487 6.203 0 3.622-3.02 6.57-6.643 6.57H58.417c-3.624 0-6.644-2.948-6.644-6.57 0-2.812 1.88-5.292 4.48-6.2l.046-.016.004-.05c.375-5.116 4.656-9.165 9.866-9.165a9.76 9.76 0 0 1 7.25 3.201l.041.045.052-.03a7.49 7.49 0 0 1 3.731-1c3.986 0 7.274 3.056 7.643 6.948Z" class="Vector"/>
        <g class="Vector">
          <path fill="#3E9AF8" d="M70.51 20.2c-.284 0-.55.08-.776.216a.368.368 0 0 0-.597.285c0 .084.028.165.08.229a1.504 1.504 0 0 0-.219.782.088.088 0 1 0 .176 0c0-.247.067-.478.183-.676a.368.368 0 0 0 .512-.335.366.366 0 0 0-.03-.144c.197-.115.426-.181.67-.181a.087.087 0 0 0 .083-.054.087.087 0 0 0-.048-.115.087.087 0 0 0-.034-.007Zm-1.007.31c.059 0 .112.024.148.07l.002.002a.191.191 0 0 1-.27.268.191.191 0 0 1 .12-.34Z"/>
          <path fill="#3E9AF8" fill-rule="evenodd" d="M69.668 21.228a.082.082 0 0 0-.022.061c0 .02.009.04.023.055l.202.203.119-.119-.202-.201a.082.082 0 0 0-.06-.024.082.082 0 0 0-.06.025Zm.322.2-.366.367a.102.102 0 0 0 0 .143l.499.5.304.304c.04.04.105.04.144 0l.248-.248.38-.379.366-.366a.102.102 0 0 0 0-.144l-.186-.186-.618-.618a.102.102 0 0 0-.144 0l-.248.248-.38.38Zm.379-.379-.202-.201a.082.082 0 0 0-.06-.024.082.082 0 0 0-.082.086c0 .02.01.04.023.055l.203.203.118-.119Zm.692.052.202-.201a.083.083 0 0 0 .023-.06.082.082 0 0 0-.086-.083.086.086 0 0 0-.055.024l-.202.202.118.118Zm.318.318.201-.202a.083.083 0 0 0 .023-.06.082.082 0 0 0-.085-.082.086.086 0 0 0-.055.023c-.07.068-.203.202-.203.202l.119.119Zm-.18.696.201.202a.083.083 0 0 0 .06.023.082.082 0 0 0 .083-.085.092.092 0 0 0-.024-.056 72.153 72.153 0 0 0-.202-.202l-.118.118Zm-.38.38.202.201a.082.082 0 0 0 .06.023.082.082 0 0 0 .082-.085.086.086 0 0 0-.023-.056l-.202-.202-.119.118Zm-.696-.057-.202.201a.082.082 0 0 0-.023.06c0 .048.038.085.086.083.02-.001.04-.01.055-.024l.202-.202-.118-.118Zm-.318-.318-.202.202a.082.082 0 0 0-.023.06c0 .047.039.084.086.082.02 0 .04-.009.055-.023l.202-.202-.118-.119Zm.872-.905a.087.087 0 0 1 .063-.026c.017 0 .033.005.046.015l.165.12a.08.08 0 0 1 .023.104.087.087 0 0 1-.1.044l.061.24a.087.087 0 0 1-.06.103l-.446.136.082.319a.087.087 0 0 1-.06.104.078.078 0 0 1-.1-.055l-.103-.398a.087.087 0 0 1 .06-.103l.447-.137-.041-.16a.085.085 0 0 1-.106.017.08.08 0 0 1-.03-.1l.08-.195a.09.09 0 0 1 .02-.028Z" clip-rule="evenodd"/>
          <path fill="#3E9AF8" d="M70.687 23.4c.284 0 .55-.079.776-.215a.368.368 0 0 0 .597-.285.367.367 0 0 0-.08-.23 1.5 1.5 0 0 0 .218-.78.089.089 0 0 0-.053-.083.087.087 0 0 0-.115.049.089.089 0 0 0-.007.033c0 .247-.067.478-.184.676a.367.367 0 0 0-.145-.032.368.368 0 0 0-.367.367c0 .05.012.099.031.144a1.325 1.325 0 0 1-.67.181.088.088 0 1 0 0 .175Zm1.007-.308a.186.186 0 0 1-.148-.071l-.002-.002a.19.19 0 0 1 .27-.268.191.191 0 0 1-.12.34ZM61.99 27.1h-.376v-1.965h-.669v-.319h1.713v.319h-.667V27.1Zm1.347-2.43v.61a2.68 2.68 0 0 1-.017.327h.02a.5.5 0 0 1 .135-.149.57.57 0 0 1 .178-.089.743.743 0 0 1 .213-.03.77.77 0 0 1 .337.068.454.454 0 0 1 .213.204c.05.093.075.213.075.361V27.1h-.368v-1.059c0-.134-.027-.235-.082-.302-.056-.067-.141-.101-.257-.101-.111 0-.2.023-.265.07a.379.379 0 0 0-.14.205 1.15 1.15 0 0 0-.041.328v.86h-.368v-2.432h.367Zm2.035.7v1.73h-.367v-1.73h.367Zm-.181-.662c.056 0 .104.015.145.046.042.03.062.082.062.156 0 .073-.02.125-.062.156a.237.237 0 0 1-.145.045.242.242 0 0 1-.149-.045c-.04-.031-.06-.083-.06-.156 0-.074.02-.126.06-.157.04-.03.09-.045.149-.045Zm1.609.63c.195 0 .346.05.455.151.11.1.164.261.164.483V27.1h-.367v-1.059c0-.134-.028-.235-.083-.302-.055-.067-.14-.101-.256-.101-.168 0-.285.051-.35.155-.065.103-.097.252-.097.448v.86h-.368v-1.73h.286l.052.234h.02a.5.5 0 0 1 .14-.148.623.623 0 0 1 .187-.09c.07-.02.142-.03.217-.03Zm1.627 2.532c-.235 0-.415-.043-.54-.127a.404.404 0 0 1-.187-.355.39.39 0 0 1 .1-.27.537.537 0 0 1 .286-.152.319.319 0 0 1-.122-.097.243.243 0 0 1-.05-.148c0-.065.018-.12.055-.166a.587.587 0 0 1 .164-.133.477.477 0 0 1-.219-.187.573.573 0 0 1-.081-.308c0-.125.026-.231.08-.319a.503.503 0 0 1 .232-.201.883.883 0 0 1 .472-.064 1.263 1.263 0 0 1 .177.026h.598v.205l-.294.054a.498.498 0 0 1 .093.3c0 .18-.062.32-.186.424-.123.102-.293.153-.51.153a1.777 1.777 0 0 1-.151-.012.282.282 0 0 0-.086.076.152.152 0 0 0-.03.092c0 .028.01.051.03.07a.2.2 0 0 0 .087.037c.04.008.088.012.144.012h.298c.19 0 .335.04.435.12.1.08.15.198.15.354a.512.512 0 0 1-.244.454c-.162.108-.396.161-.701.161Zm.014-.259c.128 0 .236-.012.323-.037a.433.433 0 0 0 .199-.108.226.226 0 0 0 .067-.164c0-.056-.014-.1-.043-.13a.23.23 0 0 0-.126-.062 1.068 1.068 0 0 0-.21-.017h-.271a.482.482 0 0 0-.18.03.28.28 0 0 0-.122.095.252.252 0 0 0-.042.146c0 .08.035.14.105.183.07.043.17.064.3.064Zm.072-1.346c.107 0 .186-.03.239-.088a.367.367 0 0 0 .078-.25c0-.117-.027-.204-.082-.262-.053-.059-.132-.088-.237-.088-.103 0-.182.03-.236.089-.053.06-.08.147-.08.264 0 .105.027.188.08.247.054.058.133.088.237.088Zm2.357.342a.48.48 0 0 1-.083.287.508.508 0 0 1-.242.178c-.105.04-.234.06-.387.06-.121 0-.225-.01-.313-.027a1.074 1.074 0 0 1-.245-.078v-.317c.082.038.175.072.277.1.103.028.2.042.292.042.12 0 .208-.019.26-.056a.18.18 0 0 0 .048-.253.338.338 0 0 0-.12-.093 2.276 2.276 0 0 0-.252-.115 2.109 2.109 0 0 1-.277-.132.481.481 0 0 1-.17-.157.45.45 0 0 1-.058-.24.39.39 0 0 1 .181-.348.866.866 0 0 1 .483-.12 1.433 1.433 0 0 1 .578.125l-.115.277a1.732 1.732 0 0 0-.236-.085.845.845 0 0 0-.24-.034.437.437 0 0 0-.217.044.138.138 0 0 0-.073.125c0 .04.012.075.036.103a.381.381 0 0 0 .123.084 5 5 0 0 0 .247.105c.103.04.192.08.267.125a.49.49 0 0 1 .175.157.438.438 0 0 1 .061.243Zm.435-1.791h.68c.294 0 .517.043.667.128.15.086.225.233.225.442a.583.583 0 0 1-.047.238.439.439 0 0 1-.349.264v.015a.723.723 0 0 1 .236.083.42.42 0 0 1 .164.17c.04.075.061.17.061.288 0 .14-.033.259-.1.356a.612.612 0 0 1-.283.224 1.12 1.12 0 0 1-.434.076h-.82v-2.284Zm.375.942h.36c.169 0 .287-.027.352-.083.066-.055.099-.136.099-.242 0-.108-.04-.186-.118-.234-.077-.048-.2-.072-.368-.072h-.325v.631Zm0 .303v.725h.395c.175 0 .298-.034.369-.101a.362.362 0 0 0 .106-.275.343.343 0 0 0-.048-.185.3.3 0 0 0-.155-.12.79.79 0 0 0-.29-.044h-.377Zm3.228.171a1.2 1.2 0 0 1-.056.383.767.767 0 0 1-.165.282.723.723 0 0 1-.259.175.931.931 0 0 1-.342.06.871.871 0 0 1-.327-.06.745.745 0 0 1-.257-.175.803.803 0 0 1-.168-.282 1.14 1.14 0 0 1-.059-.383c0-.191.033-.352.098-.485a.701.701 0 0 1 .285-.304.875.875 0 0 1 .439-.105c.16 0 .3.035.422.105a.72.72 0 0 1 .286.304c.068.134.103.295.103.485Zm-1.255 0c0 .126.015.233.045.323a.42.42 0 0 0 .144.206c.065.047.148.07.25.07a.415.415 0 0 0 .25-.07.411.411 0 0 0 .142-.206c.03-.09.046-.197.046-.323a.99.99 0 0 0-.046-.32.394.394 0 0 0-.142-.202.418.418 0 0 0-.251-.07c-.152 0-.263.05-.333.153-.07.102-.105.248-.105.439Zm2.355-.894c.219 0 .384.048.495.145.113.097.169.248.169.453V27.1h-.261l-.07-.245h-.013a.892.892 0 0 1-.151.155.53.53 0 0 1-.182.09.855.855 0 0 1-.248.032.653.653 0 0 1-.277-.057.44.44 0 0 1-.192-.175.57.57 0 0 1-.07-.296c0-.179.066-.312.198-.402.134-.09.335-.14.603-.149l.3-.01v-.091c0-.12-.028-.205-.084-.256a.333.333 0 0 0-.234-.077.85.85 0 0 0-.252.038c-.081.025-.16.055-.237.092l-.12-.26a1.33 1.33 0 0 1 .626-.151Zm.3.936-.224.008c-.183.006-.312.037-.386.093a.275.275 0 0 0-.11.232c0 .085.025.148.076.187a.326.326 0 0 0 .202.058.466.466 0 0 0 .315-.108c.085-.073.127-.18.127-.32v-.15Zm1.755-.936a1.067 1.067 0 0 1 .184.017l-.034.344a.862.862 0 0 0-.166-.019.537.537 0 0 0-.188.033.442.442 0 0 0-.266.258.6.6 0 0 0-.038.225v.904h-.37v-1.73h.288l.05.305h.018a.768.768 0 0 1 .128-.168.6.6 0 0 1 .175-.122.508.508 0 0 1 .219-.047Zm1.085 1.794a.614.614 0 0 1-.496-.225c-.124-.151-.186-.374-.186-.668 0-.296.063-.52.189-.673a.622.622 0 0 1 .501-.228.67.67 0 0 1 .23.036.53.53 0 0 1 .169.094.66.66 0 0 1 .122.132h.017a1.676 1.676 0 0 1-.028-.31v-.62h.368v2.43h-.287l-.066-.236h-.015a.551.551 0 0 1-.287.231.66.66 0 0 1-.23.037Zm.104-.299c.157 0 .268-.045.332-.136.065-.09.098-.226.1-.407v-.049c0-.194-.03-.342-.093-.445-.063-.104-.177-.156-.343-.156a.34.34 0 0 0-.303.16c-.068.107-.103.255-.103.446 0 .19.035.336.103.437.07.1.172.15.307.15Z"/>
        </g>
      </g>
      <g class="gateway">
        <path fill="#fff" stroke="#51627B" stroke-width=".15" d="M63.5 42.075h14a5.425 5.425 0 1 1 0 10.85h-14a5.425 5.425 0 0 1 0-10.85Z" class="Rectangle 2801"/>
        <g class="Vector">
          <path fill="#51627B" d="M64.679 49.058a.07.07 0 0 1 .07-.071c.04 0 .072.032.072.07v.072a.071.071 0 1 1-.142 0v-.071Zm-.213 0a.071.071 0 1 1 .142 0v.07c0 .04-.032.072-.07.072a.071.071 0 0 1-.072-.071v-.071Zm-.212 0a.07.07 0 0 1 .07-.071c.04 0 .072.032.072.07v.072a.071.071 0 1 1-.142 0v-.071Zm-.212 0a.07.07 0 0 1 .07-.071.07.07 0 0 1 .071.07v.072a.07.07 0 0 1-.07.071.071.071 0 0 1-.071-.071v-.071Zm.849-.213a.07.07 0 0 1 .071-.071h.07a.07.07 0 0 1 0 .142h-.07a.07.07 0 0 1-.07-.071Zm-1.133 0a.07.07 0 0 1 .071-.071h.071a.07.07 0 0 1 0 .142h-.07a.07.07 0 0 1-.072-.071Z"/>
          <path fill="#51627B" fill-rule="evenodd" d="M62.838 48.205h-.212v.213c0 .157.127.285.283.285h.142a.284.284 0 0 0 .283-.285v-.213h-.213v.142h-.283v-.142Zm-.591.402a.053.053 0 0 0-.053.053c0 .262.212.475.474.475a.053.053 0 0 0 0-.106.369.369 0 0 1-.368-.37.053.053 0 0 0-.053-.052Z" clip-rule="evenodd"/>
          <path fill="#51627B" fill-rule="evenodd" d="M62.451 48.587a.053.053 0 0 0-.052.052c0 .16.13.29.289.29a.052.052 0 0 0 .052-.052.053.053 0 0 0-.052-.053.184.184 0 0 1-.184-.185.053.053 0 0 0-.053-.052Z" clip-rule="evenodd"/>
          <path fill="#51627B" d="M64.891 48.631a.07.07 0 0 1 .071-.07h.07a.071.071 0 0 1 0 .142h-.07a.071.071 0 0 1-.07-.072Zm-1.133 0a.07.07 0 0 1 .071-.07h.071a.071.071 0 0 1 0 .142h-.07a.071.071 0 0 1-.072-.072Zm1.133-.213a.07.07 0 0 1 .071-.071h.07a.071.071 0 0 1 0 .142h-.07a.071.071 0 0 1-.07-.071Zm-1.133 0a.07.07 0 0 1 .071-.071h.071a.071.071 0 0 1 0 .142h-.07a.071.071 0 0 1-.072-.071Zm1.133-.213a.07.07 0 0 1 .071-.071h.07a.07.07 0 0 1 0 .142h-.07a.07.07 0 0 1-.07-.071Zm-1.133 0a.07.07 0 0 1 .071-.071h.071a.07.07 0 0 1 0 .142h-.07a.07.07 0 0 1-.072-.071Zm-1.132-.143a.07.07 0 0 1 .07-.07h.567c.04 0 .07.03.07.07v.071h-.707v-.07Zm2.053-.142a.07.07 0 0 1 .07-.071c.04 0 .072.032.072.071v.071a.07.07 0 1 1-.142 0v-.07Z"/>
          <path fill="#51627B" fill-rule="evenodd" d="M63.688 46.416v.153h.141v-.153a.247.247 0 0 1-.141 0Zm.212 1.149v-.285h.142v.285h.283c.078 0 .141.063.141.142v.142h-.141v-.142h-.283a.142.142 0 0 1-.142-.142Zm-.283-.285v.285a.142.142 0 0 1-.142.142h-.425v.142h-.141v-.142c0-.079.063-.142.142-.142h.424v-.285h.142Z" clip-rule="evenodd"/>
          <path fill="#51627B" d="M64.042 47.92a.07.07 0 1 1 .141 0v.071a.07.07 0 1 1-.141 0v-.07Z"/>
          <path fill="#51627B" fill-rule="evenodd" d="M64.041 47.991a.142.142 0 0 0-.141.142v.783c0 .078.063.142.142.142h.778a.142.142 0 0 0 .142-.142v-.783a.142.142 0 0 0-.142-.142h-.778Zm.071.142a.07.07 0 0 0-.07.071v.64c0 .04.031.072.07.072h.638a.07.07 0 0 0 .07-.072v-.64a.071.071 0 0 0-.07-.07h-.638Z" clip-rule="evenodd"/>
          <path fill="#51627B" d="M64.466 48.56h.213v.214h-.213v-.214Zm-.283 0h.213v.214h-.213v-.214Zm.283-.284h.213v.213h-.213v-.213Zm-.283 0h.213v.213h-.213v-.213Z"/>
          <path fill="#51627B" fill-rule="evenodd" d="M63.759 46.356c.097 0 .177-.08.177-.178a.177.177 0 1 0-.177.178Zm-.78.284a.142.142 0 0 0-.14.142v.285c0 .078.063.142.14.142h1.558a.142.142 0 0 0 .142-.142v-.285a.142.142 0 0 0-.142-.142H62.98Zm.072.285a.07.07 0 1 0 0-.142.07.07 0 0 0 0 .142Zm.283-.072a.07.07 0 1 1-.142 0 .07.07 0 0 1 .142 0Z" clip-rule="evenodd"/>
          <path fill="#51627B" d="M67.048 46.906V48.3h-.182v-1.394h.182Zm.788 1.412a.567.567 0 0 1-.28-.07.51.51 0 0 1-.196-.198.624.624 0 0 1-.07-.3c0-.112.024-.21.072-.296a.501.501 0 0 1 .2-.198.57.57 0 0 1 .282-.07.57.57 0 0 1 .282.07c.084.045.15.11.198.196.05.085.074.185.074.298a.583.583 0 0 1-.076.3.515.515 0 0 1-.202.198.582.582 0 0 1-.284.07Zm0-.16a.384.384 0 0 0 .184-.046.343.343 0 0 0 .138-.138.435.435 0 0 0 .054-.224.448.448 0 0 0-.052-.224.333.333 0 0 0-.136-.136.372.372 0 0 0-.182-.046.377.377 0 0 0-.184.046.326.326 0 0 0-.132.136.464.464 0 0 0-.05.224c0 .09.016.165.048.226a.34.34 0 0 0 .132.138c.055.03.115.044.18.044Zm1.66-1.252v.148h-.38V48.3h-.182v-1.246h-.382v-.148h.944Zm1.813.404a.428.428 0 0 0-.168-.188.477.477 0 0 0-.256-.068.52.52 0 0 0-.264.068.473.473 0 0 0-.184.192.604.604 0 0 0-.066.288c0 .11.022.205.066.288a.49.49 0 0 0 .184.192.531.531 0 0 0 .264.066c.136 0 .248-.04.336-.122a.504.504 0 0 0 .154-.33h-.556v-.148h.75v.14a.68.68 0 0 1-.35.542.685.685 0 0 1-.334.082.682.682 0 0 1-.608-.344.727.727 0 0 1-.092-.366c0-.136.03-.258.092-.366a.697.697 0 0 1 .608-.346c.148 0 .279.037.392.11a.628.628 0 0 1 .25.31h-.218Zm.433.438a.61.61 0 0 1 .068-.294.494.494 0 0 1 .452-.268.48.48 0 0 1 .25.062c.07.041.123.093.158.156v-.2h.184V48.3h-.184v-.204a.434.434 0 0 1-.162.16.483.483 0 0 1-.248.062.497.497 0 0 1-.45-.274.63.63 0 0 1-.068-.296Zm.928.002a.446.446 0 0 0-.05-.216.344.344 0 0 0-.136-.14.357.357 0 0 0-.186-.05.348.348 0 0 0-.32.188.446.446 0 0 0-.05.216c0 .084.016.157.05.22a.362.362 0 0 0 .134.142.368.368 0 0 0 .186.048.358.358 0 0 0 .322-.19.458.458 0 0 0 .05-.218Zm.713-.396V48c0 .053.011.091.034.114.023.021.062.032.118.032h.134v.154h-.164c-.101 0-.177-.023-.228-.07-.05-.047-.076-.123-.076-.23v-.646h-.142v-.15h.142v-.276h.182v.276h.286v.15h-.286Zm1.507.356c0 .035-.002.071-.006.11h-.876a.36.36 0 0 0 .11.254c.068.06.15.09.246.09a.337.337 0 0 0 .196-.054.295.295 0 0 0 .112-.148h.196a.477.477 0 0 1-.176.258.535.535 0 0 1-.328.098.559.559 0 0 1-.28-.07.499.499 0 0 1-.192-.198.623.623 0 0 1-.07-.3c0-.113.022-.213.068-.298a.472.472 0 0 1 .19-.196.567.567 0 0 1 .284-.07.55.55 0 0 1 .276.068c.08.045.141.108.184.188a.54.54 0 0 1 .066.268Zm-.188-.038a.331.331 0 0 0-.046-.178.29.29 0 0 0-.126-.114.375.375 0 0 0-.174-.04.34.34 0 0 0-.236.088.36.36 0 0 0-.11.244h.692Zm1.888-.468-.342 1.096h-.188l-.264-.87-.264.87h-.188L75 47.204h.186l.252.92.272-.92h.186l.266.922.248-.922h.18Zm.113.544a.61.61 0 0 1 .067-.294.495.495 0 0 1 .453-.268.48.48 0 0 1 .25.062c.07.041.123.093.157.156v-.2h.184V48.3h-.183v-.204a.434.434 0 0 1-.162.16.482.482 0 0 1-.248.062.497.497 0 0 1-.45-.274.63.63 0 0 1-.069-.296Zm.927.002a.445.445 0 0 0-.05-.216.344.344 0 0 0-.135-.14.357.357 0 0 0-.186-.05.349.349 0 0 0-.32.188.446.446 0 0 0-.05.216c0 .084.016.157.05.22a.363.363 0 0 0 .134.142.368.368 0 0 0 .186.048.357.357 0 0 0 .322-.19.457.457 0 0 0 .05-.218Zm1.436-.546-.66 1.612h-.188l.216-.528-.442-1.084h.202l.344.888.34-.888h.188Z"/>
        </g>
      </g>
    </g>
    <g class="TEXT-main">
      <animate xmlns="http://www.w3.org/2000/svg" attributeName="opacity" values="0;0;1;1" dur="2.0016s" repeatCount="1" calcMode="spline" keyTimes="0;0.5;1;1" keySplines="0 0 0.15 1;0 0 0.15 1;0.5 0.35 0.15 1" additive="replace" fill="freeze"/>
      <g class="dots">
        <circle cx="125.103" cy="8.9" r=".4" fill="#78C4FE" class="Ellipse 852"/>
        <circle cx="126.303" cy="8.9" r=".4" fill="#78C4FE" class="Ellipse 853"/>
        <circle cx="127.503" cy="8.9" r=".4" fill="#78C4FE" class="Ellipse 854"/>
      </g>
      <g class="dots">
        <circle cx="13.4" cy="28.4" r=".35" stroke="#91A3BE" stroke-width=".1" class="Ellipse 852"/>
        <circle cx="14.6" cy="28.4" r=".35" stroke="#91A3BE" stroke-width=".1" class="Ellipse 855"/>
        <circle cx="15.8" cy="28.4" r=".35" stroke="#91A3BE" stroke-width=".1" class="Ellipse 856"/>
      </g>
      <g class="dots">
        <circle cx="19.603" cy="40.4" r=".35" stroke="#7A8699" stroke-width=".1" class="Ellipse 852"/>
        <circle cx="20.803" cy="40.4" r=".35" stroke="#7A8699" stroke-width=".1" class="Ellipse 855"/>
        <circle cx="22.003" cy="40.4" r=".35" stroke="#7A8699" stroke-width=".1" class="Ellipse 856"/>
      </g>
      <g class="dots">
        <circle cx="13.4" cy="52.4" r=".35" stroke="#4C5D76" stroke-width=".1" class="Ellipse 852"/>
        <circle cx="14.6" cy="52.4" r=".35" stroke="#4C5D76" stroke-width=".1" class="Ellipse 855"/>
        <circle cx="15.8" cy="52.4" r=".35" stroke="#4C5D76" stroke-width=".1" class="Ellipse 856"/>
      </g>
      <g class="dots">
        <circle cx="19.603" cy="64.4" r=".35" stroke="#354154" stroke-width=".1" class="Ellipse 852"/>
        <circle cx="20.803" cy="64.4" r=".35" stroke="#354154" stroke-width=".1" class="Ellipse 855"/>
        <circle cx="22.003" cy="64.4" r=".35" stroke="#354154" stroke-width=".1" class="Ellipse 856"/>
      </g>
      <g class="dots">
        <circle cx="119.201" cy="20.9" r=".4" fill="#3E9AF8" class="Ellipse 852"/>
        <circle cx="120.401" cy="20.9" r=".4" fill="#3E9AF8" class="Ellipse 853"/>
        <circle cx="121.601" cy="20.9" r=".4" fill="#3E9AF8" class="Ellipse 854"/>
      </g>
      <g class="dots">
        <circle cx="125.103" cy="32.4" r=".4" fill="#1568E5" class="Ellipse 852"/>
        <circle cx="126.303" cy="32.4" r=".4" fill="#1568E5" class="Ellipse 853"/>
        <circle cx="127.503" cy="32.4" r=".4" fill="#1568E5" class="Ellipse 854"/>
      </g>
      <g class="dots">
        <circle cx="119.201" cy="44.9" r=".4" fill="#18469D" class="Ellipse 852"/>
        <circle cx="120.401" cy="44.9" r=".4" fill="#18469D" class="Ellipse 853"/>
        <circle cx="121.601" cy="44.9" r=".4" fill="#18469D" class="Ellipse 854"/>
      </g>
      <path fill="#4AA7FB" d="M110.546 17.111a.83.83 0 0 1 .388.086.593.593 0 0 1 .258.244.716.716 0 0 1 .092.37c0 .142-.03.264-.092.368a.6.6 0 0 1-.258.24.864.864 0 0 1-.388.082h-.454v-1.39h.454Zm0 1.204c.163 0 .288-.044.374-.132.087-.088.13-.212.13-.372a.523.523 0 0 0-.13-.378c-.086-.09-.211-.136-.374-.136h-.226v1.018h.226Zm.888-.37c0-.11.023-.208.068-.294a.516.516 0 0 1 .452-.27c.087 0 .162.018.226.052a.438.438 0 0 1 .156.126v-.16h.23v1.102h-.23v-.164a.483.483 0 0 1-.386.182.492.492 0 0 1-.448-.276.645.645 0 0 1-.068-.298Zm.902.004a.392.392 0 0 0-.048-.198.317.317 0 0 0-.286-.172.325.325 0 0 0-.288.17.402.402 0 0 0-.046.196c0 .076.016.143.046.2a.353.353 0 0 0 .124.132.33.33 0 0 0 .328 0 .316.316 0 0 0 .122-.128.404.404 0 0 0 .048-.2Zm.93.57a.57.57 0 0 1-.234-.046.422.422 0 0 1-.162-.128.319.319 0 0 1-.064-.182h.236a.165.165 0 0 0 .066.118.25.25 0 0 0 .154.046.259.259 0 0 0 .148-.036.113.113 0 0 0 .054-.096c0-.041-.02-.072-.06-.092a1.088 1.088 0 0 0-.186-.066 1.756 1.756 0 0 1-.202-.066.357.357 0 0 1-.136-.098.256.256 0 0 1-.056-.174c0-.058.017-.112.052-.16a.34.34 0 0 1 .148-.116.563.563 0 0 1 .224-.042c.125 0 .226.032.302.096a.34.34 0 0 1 .124.258h-.228a.163.163 0 0 0-.06-.118.225.225 0 0 0-.146-.044.237.237 0 0 0-.138.034.105.105 0 0 0-.048.09c0 .03.01.054.032.074.021.02.047.036.078.048.03.01.076.025.136.042.08.022.145.044.196.066a.362.362 0 0 1 .134.096.29.29 0 0 1 .006.338.345.345 0 0 1-.148.116.543.543 0 0 1-.222.042Zm1.238-1.138c.084 0 .159.018.224.054.067.036.119.09.156.16a.52.52 0 0 1 .058.256v.65h-.226v-.616c0-.098-.024-.174-.074-.226a.26.26 0 0 0-.202-.08.27.27 0 0 0-.204.08c-.049.052-.074.128-.074.226v.616h-.228v-1.48h.228v.506a.393.393 0 0 1 .146-.108.502.502 0 0 1 .196-.038Zm.957.182a.427.427 0 0 1 .158-.13.49.49 0 0 1 .226-.052.487.487 0 0 1 .45.27.621.621 0 0 1 .068.294c0 .11-.023.21-.068.298a.494.494 0 0 1-.45.276.504.504 0 0 1-.228-.05.444.444 0 0 1-.156-.128v.16h-.228v-1.48h.228v.542Zm.67.382a.381.381 0 0 0-.048-.196.307.307 0 0 0-.124-.126.322.322 0 0 0-.328 0 .335.335 0 0 0-.124.128.402.402 0 0 0-.046.198c0 .076.015.143.046.2a.33.33 0 0 0 .452.128.331.331 0 0 0 .124-.132.404.404 0 0 0 .048-.2Zm.935.574a.57.57 0 0 1-.282-.07.518.518 0 0 1-.198-.2.609.609 0 0 1-.072-.3c0-.112.025-.211.074-.298a.518.518 0 0 1 .202-.2.59.59 0 0 1 .286-.07.59.59 0 0 1 .286.07.505.505 0 0 1 .202.2c.05.087.074.186.074.298a.576.576 0 0 1-.076.298.527.527 0 0 1-.208.202.594.594 0 0 1-.288.07Zm0-.198a.33.33 0 0 0 .29-.168.405.405 0 0 0 .048-.204.404.404 0 0 0-.046-.202.303.303 0 0 0-.122-.126.336.336 0 0 0-.328 0 .307.307 0 0 0-.118.126.427.427 0 0 0-.044.202c0 .119.03.21.09.276a.306.306 0 0 0 .23.096Zm.722-.376c0-.11.023-.208.068-.294a.508.508 0 0 1 .452-.27c.087 0 .162.018.226.052a.456.456 0 0 1 .156.126v-.16h.23v1.102h-.23v-.164a.488.488 0 0 1-.386.182.49.49 0 0 1-.26-.072.534.534 0 0 1-.188-.204.645.645 0 0 1-.068-.298Zm.902.004a.392.392 0 0 0-.048-.198.323.323 0 0 0-.45-.128.32.32 0 0 0-.124.126.391.391 0 0 0-.046.196c0 .076.015.143.046.2a.345.345 0 0 0 .124.132.33.33 0 0 0 .328 0 .323.323 0 0 0 .122-.128.404.404 0 0 0 .048-.2Zm.757-.39a.363.363 0 0 1 .33-.178v.236h-.058c-.089 0-.157.023-.204.068-.045.046-.068.124-.068.236v.58h-.228V17.4h.228v.16Zm.464.386c0-.11.023-.208.068-.294a.508.508 0 0 1 .666-.222c.071.03.127.072.168.124v-.532h.23v1.48h-.23v-.166a.418.418 0 0 1-.156.132.475.475 0 0 1-.226.052.504.504 0 0 1-.452-.276.645.645 0 0 1-.068-.298Zm.902.004a.392.392 0 0 0-.048-.198.323.323 0 0 0-.45-.128.32.32 0 0 0-.124.126.391.391 0 0 0-.046.196c0 .076.015.143.046.2a.345.345 0 0 0 .124.132.33.33 0 0 0 .328 0 .323.323 0 0 0 .122-.128.404.404 0 0 0 .048-.2Zm.929.57a.577.577 0 0 1-.234-.046.422.422 0 0 1-.162-.128.326.326 0 0 1-.064-.182h.236a.165.165 0 0 0 .066.118c.042.03.093.046.154.046a.257.257 0 0 0 .148-.036.113.113 0 0 0 .054-.096c0-.041-.02-.072-.06-.092-.038-.02-.1-.042-.186-.066a1.823 1.823 0 0 1-.202-.066.365.365 0 0 1-.136-.098.262.262 0 0 1-.056-.174c0-.058.018-.112.052-.16a.346.346 0 0 1 .148-.116.566.566 0 0 1 .224-.042c.126 0 .226.032.302.096a.334.334 0 0 1 .124.258h-.228a.163.163 0 0 0-.06-.118.223.223 0 0 0-.146-.044.237.237 0 0 0-.138.034.105.105 0 0 0-.048.09c0 .03.011.054.032.074.022.02.048.036.078.048.031.01.076.025.136.042.08.022.146.044.196.066a.354.354 0 0 1 .134.096c.038.043.057.1.058.17a.283.283 0 0 1-.052.168.34.34 0 0 1-.148.116.536.536 0 0 1-.222.042Z" class="Dashboards"/>
      <path fill="#156BE7" d="M125.995 30.2h-.228l-.686-1.037V30.2h-.228v-1.392h.228l.686 1.036v-1.036h.228V30.2Zm.778.019a.57.57 0 0 1-.282-.07.52.52 0 0 1-.198-.2.61.61 0 0 1-.072-.3c0-.112.024-.212.074-.298a.505.505 0 0 1 .202-.2.583.583 0 0 1 .286-.07c.105 0 .2.023.286.07a.518.518 0 0 1 .202.2.595.595 0 0 1 .074.298.586.586 0 0 1-.076.298.533.533 0 0 1-.208.202.6.6 0 0 1-.288.07Zm0-.198a.336.336 0 0 0 .164-.042.318.318 0 0 0 .126-.126.405.405 0 0 0 .048-.204.415.415 0 0 0-.046-.202.315.315 0 0 0-.286-.168.33.33 0 0 0-.164.042.294.294 0 0 0-.118.126.415.415 0 0 0-.044.202c0 .118.03.21.09.276a.305.305 0 0 0 .23.096Zm1.063-.736v.61c0 .041.009.071.028.09.02.017.053.026.1.026h.14v.19h-.18c-.103 0-.181-.024-.236-.072-.055-.048-.082-.126-.082-.234v-.61h-.13v-.186h.13v-.274h.23v.274h.268v.186h-.268Zm.594-.332a.142.142 0 0 1-.104-.042.141.141 0 0 1-.042-.104c0-.041.014-.076.042-.104a.142.142 0 0 1 .104-.042c.04 0 .074.014.102.042a.141.141 0 0 1 .042.104.141.141 0 0 1-.042.104.139.139 0 0 1-.102.042Zm.112.146V30.2h-.228v-1.102h.228Zm.761.186h-.204v.916h-.23v-.916h-.13v-.186h.13v-.078c0-.127.034-.219.1-.276.068-.059.174-.088.318-.088v.19c-.069 0-.118.013-.146.04-.028.025-.042.07-.042.134v.078h.204v.186Zm.318-.332a.142.142 0 0 1-.104-.042.141.141 0 0 1-.042-.104c0-.041.014-.076.042-.104a.142.142 0 0 1 .104-.042c.04 0 .074.014.102.042a.141.141 0 0 1 .042.104.141.141 0 0 1-.042.104.139.139 0 0 1-.102.042Zm.112.146V30.2h-.228v-1.102h.228Zm.224.55c0-.114.022-.213.068-.298a.487.487 0 0 1 .192-.2.55.55 0 0 1 .28-.07c.133 0 .243.032.33.096a.463.463 0 0 1 .178.27h-.246a.26.26 0 0 0-.096-.128.285.285 0 0 0-.166-.046.277.277 0 0 0-.224.1.416.416 0 0 0-.082.276c0 .118.027.211.082.278.056.067.13.1.224.1.132 0 .219-.058.262-.174h.246a.498.498 0 0 1-.18.268.537.537 0 0 1-.328.098.504.504 0 0 1-.472-.27.63.63 0 0 1-.068-.3Zm1.199-.004a.62.62 0 0 1 .068-.294.508.508 0 0 1 .452-.27c.087 0 .162.017.226.052a.454.454 0 0 1 .156.126v-.16h.23V30.2h-.23v-.164a.488.488 0 0 1-.386.182.49.49 0 0 1-.26-.072.534.534 0 0 1-.188-.204.645.645 0 0 1-.068-.298Zm.902.004a.392.392 0 0 0-.048-.198.323.323 0 0 0-.45-.128.32.32 0 0 0-.124.126.391.391 0 0 0-.046.196c0 .076.015.143.046.2a.347.347 0 0 0 .124.132.33.33 0 0 0 .328 0 .323.323 0 0 0 .122-.128.404.404 0 0 0 .048-.2Zm.796-.364v.61c0 .041.009.071.028.09.02.017.053.026.1.026h.14v.19h-.18c-.103 0-.182-.024-.236-.072-.055-.048-.082-.126-.082-.234v-.61h-.13v-.186h.13v-.274h.23v.274h.268v.186h-.268Zm.594-.332a.14.14 0 0 1-.104-.042.141.141 0 0 1-.042-.104c0-.041.014-.076.042-.104a.14.14 0 0 1 .104-.042c.04 0 .074.014.102.042a.141.141 0 0 1 .042.104.141.141 0 0 1-.042.104.139.139 0 0 1-.102.042Zm.112.146V30.2h-.228v-1.102h.228Zm.777 1.12a.57.57 0 0 1-.282-.07.52.52 0 0 1-.198-.2.61.61 0 0 1-.072-.3c0-.112.025-.212.074-.298a.511.511 0 0 1 .202-.2.586.586 0 0 1 .286-.07c.105 0 .201.023.286.07a.511.511 0 0 1 .202.2.595.595 0 0 1 .074.298.576.576 0 0 1-.076.298.533.533 0 0 1-.208.202.6.6 0 0 1-.288.07Zm0-.198a.334.334 0 0 0 .29-.168.405.405 0 0 0 .048-.204.404.404 0 0 0-.046-.202.31.31 0 0 0-.122-.126.334.334 0 0 0-.164-.042.334.334 0 0 0-.164.042.3.3 0 0 0-.118.126.427.427 0 0 0-.044.202c0 .118.03.21.09.276a.305.305 0 0 0 .23.096Zm1.353-.94c.087 0 .164.018.232.054.07.036.124.09.162.16a.52.52 0 0 1 .058.256v.65h-.226v-.616c0-.099-.024-.174-.074-.226a.26.26 0 0 0-.202-.08.27.27 0 0 0-.204.08c-.049.052-.074.127-.074.226v.616h-.228v-1.102h.228v.126a.387.387 0 0 1 .142-.106.467.467 0 0 1 .186-.038Zm1.143 1.138a.577.577 0 0 1-.234-.046.423.423 0 0 1-.162-.128.326.326 0 0 1-.064-.182h.236a.165.165 0 0 0 .066.118c.042.03.093.046.154.046a.257.257 0 0 0 .148-.036c.036-.026.054-.058.054-.096 0-.041-.02-.072-.06-.092-.038-.02-.1-.042-.186-.066a1.867 1.867 0 0 1-.202-.066.365.365 0 0 1-.136-.098.262.262 0 0 1-.056-.174.27.27 0 0 1 .052-.16.346.346 0 0 1 .148-.116.566.566 0 0 1 .224-.042c.126 0 .226.032.302.096a.334.334 0 0 1 .124.258h-.228a.162.162 0 0 0-.06-.118.223.223 0 0 0-.146-.044.237.237 0 0 0-.138.034.105.105 0 0 0-.048.09c0 .03.011.054.032.074.022.02.048.036.078.048.031.01.076.025.136.042.08.021.146.043.196.066a.351.351 0 0 1 .134.096c.038.043.057.1.058.17a.283.283 0 0 1-.052.168.34.34 0 0 1-.148.116.536.536 0 0 1-.222.042Z" class="Notifications"/>
      <path fill="#78C4FE" d="M125.691 6.616h-.582l-.1.284h-.238l.498-1.392h.264l.498 1.392h-.24l-.1-.284Zm-.064-.186-.226-.646-.228.646h.454Zm.849-1.01V6.9h-.228V5.42h.228Zm.223.924c0-.11.023-.209.068-.294a.508.508 0 0 1 .452-.27c.087 0 .162.017.226.052a.455.455 0 0 1 .156.126v-.16h.23V6.9h-.23v-.164a.489.489 0 0 1-.386.182.49.49 0 0 1-.26-.072.534.534 0 0 1-.188-.204.645.645 0 0 1-.068-.298Zm.902.004a.392.392 0 0 0-.048-.198.323.323 0 0 0-.45-.128.32.32 0 0 0-.124.126.391.391 0 0 0-.046.196c0 .076.015.143.046.2a.346.346 0 0 0 .124.132.33.33 0 0 0 .328 0 .323.323 0 0 0 .122-.128.404.404 0 0 0 .048-.2Zm.757-.39a.363.363 0 0 1 .33-.178v.236h-.058c-.089 0-.157.023-.204.068-.045.045-.068.124-.068.236v.58h-.228V5.798h.228v.16Zm1.874-.178c.087 0 .164.018.232.054a.39.39 0 0 1 .162.16c.04.07.06.156.06.256v.65h-.226v-.616c0-.099-.025-.174-.074-.226a.262.262 0 0 0-.202-.08.27.27 0 0 0-.204.08c-.049.052-.074.127-.074.226V6.9h-.226v-.616c0-.099-.025-.174-.074-.226a.262.262 0 0 0-.202-.08.27.27 0 0 0-.204.08c-.049.052-.074.127-.074.226V6.9h-.228V5.798h.228v.126a.38.38 0 0 1 .142-.106.489.489 0 0 1 .42.018.383.383 0 0 1 .16.162.36.36 0 0 1 .156-.158.457.457 0 0 1 .228-.06Zm1.144 1.138a.577.577 0 0 1-.234-.046.423.423 0 0 1-.162-.128.326.326 0 0 1-.064-.182h.236a.165.165 0 0 0 .066.118c.042.03.093.046.154.046a.257.257 0 0 0 .148-.036.113.113 0 0 0 .054-.096c0-.041-.02-.072-.06-.092-.038-.02-.1-.042-.186-.066a1.85 1.85 0 0 1-.202-.066.365.365 0 0 1-.136-.098.262.262 0 0 1-.056-.174.27.27 0 0 1 .052-.16.346.346 0 0 1 .148-.116.566.566 0 0 1 .224-.042c.126 0 .226.032.302.096a.333.333 0 0 1 .124.258h-.228a.162.162 0 0 0-.06-.118.223.223 0 0 0-.146-.044.237.237 0 0 0-.138.034.105.105 0 0 0-.048.09c0 .03.011.054.032.074.022.02.048.036.078.048.031.01.076.025.136.042.08.021.146.043.196.066a.352.352 0 0 1 .134.096c.038.043.057.1.058.17a.283.283 0 0 1-.052.168.34.34 0 0 1-.148.116.536.536 0 0 1-.222.042Z" class="Alarms"/>
      <path fill="#1848A4" d="M111.982 41.211c.148 0 .277.029.388.086a.593.593 0 0 1 .258.244.725.725 0 0 1 .092.37.715.715 0 0 1-.092.368.6.6 0 0 1-.258.24.867.867 0 0 1-.388.082h-.454v-1.39h.454Zm0 1.204c.163 0 .287-.044.374-.132.087-.088.13-.212.13-.372a.523.523 0 0 0-.13-.378c-.087-.09-.211-.136-.374-.136h-.226v1.018h.226Zm.888-.37a.62.62 0 0 1 .068-.294.508.508 0 0 1 .452-.27c.087 0 .162.017.226.052a.454.454 0 0 1 .156.126v-.16h.23v1.102h-.23v-.164a.488.488 0 0 1-.386.182.49.49 0 0 1-.26-.072.534.534 0 0 1-.188-.204.645.645 0 0 1-.068-.298Zm.902.004a.392.392 0 0 0-.048-.198.323.323 0 0 0-.45-.128.32.32 0 0 0-.124.126.391.391 0 0 0-.046.196c0 .076.015.143.046.2a.347.347 0 0 0 .124.132.33.33 0 0 0 .328 0 .323.323 0 0 0 .122-.128.404.404 0 0 0 .048-.2Zm.796-.364v.61c0 .041.009.072.028.09.02.018.053.026.1.026h.14v.19h-.18c-.103 0-.182-.024-.236-.072-.055-.048-.082-.126-.082-.234v-.61h-.13V41.5h.13v-.274h.23v.274h.268v.186h-.268Zm.402.36a.61.61 0 0 1 .068-.294.501.501 0 0 1 .452-.27c.086 0 .162.017.226.052a.454.454 0 0 1 .156.126v-.16h.23v1.102h-.23v-.164a.488.488 0 0 1-.386.182.487.487 0 0 1-.26-.072.526.526 0 0 1-.188-.204.633.633 0 0 1-.068-.298Zm.902.004a.392.392 0 0 0-.048-.198.325.325 0 0 0-.45-.128.32.32 0 0 0-.124.126.391.391 0 0 0-.046.196c0 .076.015.143.046.2a.347.347 0 0 0 .124.132.328.328 0 0 0 .328 0 .33.33 0 0 0 .122-.128.404.404 0 0 0 .048-.2Zm1.277.368h.47v.184h-.698v-1.39h.228v1.206Zm.584-.372a.62.62 0 0 1 .068-.294.516.516 0 0 1 .452-.27c.087 0 .162.017.226.052a.436.436 0 0 1 .156.126v-.16h.23v1.102h-.23v-.164a.483.483 0 0 1-.386.182.492.492 0 0 1-.448-.276.645.645 0 0 1-.068-.298Zm.902.004a.392.392 0 0 0-.048-.198.316.316 0 0 0-.286-.172.325.325 0 0 0-.288.17.402.402 0 0 0-.046.196c0 .076.016.143.046.2a.355.355 0 0 0 .124.132.33.33 0 0 0 .328 0 .316.316 0 0 0 .122-.128.404.404 0 0 0 .048-.2Zm.966.002.508.55h-.308l-.408-.474v.474h-.228v-1.48h.228v.86l.4-.482h.316l-.508.552Zm1.681-.028a.64.64 0 0 1-.008.112h-.842a.31.31 0 0 0 .098.212.31.31 0 0 0 .216.08c.123 0 .21-.051.26-.154h.246a.498.498 0 0 1-.182.25.528.528 0 0 1-.324.096.575.575 0 0 1-.284-.07.528.528 0 0 1-.196-.2.63.63 0 0 1-.07-.3.63.63 0 0 1 .068-.298.498.498 0 0 1 .194-.2.583.583 0 0 1 .288-.07.56.56 0 0 1 .278.068c.082.045.145.11.19.192a.562.562 0 0 1 .068.282Zm-.238-.072a.257.257 0 0 0-.09-.202.32.32 0 0 0-.218-.076.292.292 0 0 0-.202.076.31.31 0 0 0-.1.202h.61Zm.863.668a.57.57 0 0 1-.234-.046.423.423 0 0 1-.162-.128.319.319 0 0 1-.064-.182h.236a.165.165 0 0 0 .066.118.25.25 0 0 0 .154.046.259.259 0 0 0 .148-.036.113.113 0 0 0 .054-.096c0-.041-.02-.072-.06-.092a1.088 1.088 0 0 0-.186-.066 1.796 1.796 0 0 1-.202-.066.357.357 0 0 1-.136-.098.256.256 0 0 1-.056-.174c0-.059.017-.112.052-.16a.34.34 0 0 1 .148-.116.563.563 0 0 1 .224-.042c.125 0 .226.032.302.096a.34.34 0 0 1 .124.258h-.228a.162.162 0 0 0-.06-.118.225.225 0 0 0-.146-.044.237.237 0 0 0-.138.034.105.105 0 0 0-.048.09c0 .03.01.054.032.074.021.02.047.036.078.048.03.01.076.025.136.042.08.022.145.044.196.066a.36.36 0 0 1 .134.096.29.29 0 0 1 .006.338.346.346 0 0 1-.148.116.543.543 0 0 1-.222.042Z" class="Data Lakes"/>
      <path fill="#4C5C75" d="M7.699 49.125a.42.42 0 0 1-.05.2.38.38 0 0 1-.16.154.602.602 0 0 1-.282.058h-.252v.564h-.228v-1.39h.48a.59.59 0 0 1 .27.056.37.37 0 0 1 .166.148.403.403 0 0 1 .056.21Zm-.492.226c.087 0 .151-.02.194-.058a.219.219 0 0 0 .064-.168c0-.152-.086-.228-.258-.228h-.252v.454h.252Zm.937-.192a.353.353 0 0 1 .132-.13.392.392 0 0 1 .198-.048v.236h-.058c-.089 0-.157.023-.204.068-.045.046-.068.124-.068.236v.58h-.228V49h.228v.16Zm1.55.364a.713.713 0 0 1-.008.112h-.842a.306.306 0 0 0 .314.292c.123 0 .21-.051.26-.154h.246a.5.5 0 0 1-.506.346.523.523 0 0 1-.48-.27.623.623 0 0 1-.07-.3c0-.113.023-.212.068-.298a.492.492 0 0 1 .194-.2.583.583 0 0 1 .288-.07c.104 0 .197.023.278.068a.48.48 0 0 1 .19.192.57.57 0 0 1 .068.282Zm-.238-.072a.26.26 0 0 0-.09-.202.322.322 0 0 0-.218-.076.29.29 0 0 0-.202.076.31.31 0 0 0-.1.202h.61Zm.888.446.312-.898h.242l-.42 1.102h-.272L9.788 49h.244l.312.898Zm1.737-.374a.717.717 0 0 1-.008.112h-.842a.301.301 0 0 0 .098.212.31.31 0 0 0 .216.08c.122 0 .209-.051.26-.154h.246a.5.5 0 0 1-.506.346.523.523 0 0 1-.48-.27.623.623 0 0 1-.07-.3c0-.113.022-.212.068-.298a.492.492 0 0 1 .194-.2.583.583 0 0 1 .288-.07c.104 0 .196.023.278.068.081.045.144.11.19.192a.57.57 0 0 1 .068.282Zm-.238-.072a.26.26 0 0 0-.09-.202.322.322 0 0 0-.218-.076.29.29 0 0 0-.202.076.31.31 0 0 0-.1.202h.61Zm1.018-.47c.087 0 .164.018.232.054.07.036.123.09.162.16a.52.52 0 0 1 .058.256v.65h-.226v-.616c0-.099-.025-.174-.074-.226a.262.262 0 0 0-.202-.08.268.268 0 0 0-.204.08c-.05.052-.074.127-.074.226v.616h-.228V49h.228v.126a.378.378 0 0 1 .142-.106.464.464 0 0 1 .186-.038Zm1.009.204v.61c0 .041.01.072.028.09.02.018.053.026.1.026h.14v.19h-.18c-.103 0-.181-.024-.236-.072-.055-.048-.082-.126-.082-.234v-.61h-.13V49h.13v-.274h.23V49h.268v.186h-.268Zm1.488.338a.705.705 0 0 1-.008.112h-.842a.31.31 0 0 0 .098.212.31.31 0 0 0 .216.08c.123 0 .21-.051.26-.154h.246a.5.5 0 0 1-.506.346.524.524 0 0 1-.48-.27.624.624 0 0 1-.07-.3c0-.113.023-.212.068-.298a.493.493 0 0 1 .194-.2.583.583 0 0 1 .288-.07c.104 0 .197.023.278.068a.48.48 0 0 1 .19.192.569.569 0 0 1 .068.282Zm-.238-.072a.26.26 0 0 0-.09-.202.321.321 0 0 0-.218-.076.29.29 0 0 0-.202.076.31.31 0 0 0-.1.202h.61Zm.69-.292a.354.354 0 0 1 .132-.13.392.392 0 0 1 .198-.048v.236h-.058c-.089 0-.157.023-.204.068-.045.046-.068.124-.068.236v.58h-.228V49h.228v.16Z" class="Preventer"/>
      <path fill="#354154" d="M19.806 60.711c.148 0 .277.029.388.086a.593.593 0 0 1 .258.244.722.722 0 0 1 .092.37.713.713 0 0 1-.092.368.6.6 0 0 1-.258.24.866.866 0 0 1-.388.082h-.454v-1.39h.454Zm0 1.204c.162 0 .287-.044.374-.132a.508.508 0 0 0 .13-.372.525.525 0 0 0-.13-.378c-.087-.09-.212-.136-.374-.136h-.226v1.018h.226Zm1.191-.756a.354.354 0 0 1 .133-.13.392.392 0 0 1 .198-.048v.236h-.058c-.09 0-.158.023-.204.068-.046.046-.069.124-.069.236v.58h-.227V61h.227v.16Zm.656-.306a.141.141 0 0 1-.104-.042.141.141 0 0 1-.042-.104c0-.041.014-.076.042-.104a.141.141 0 0 1 .104-.042c.04 0 .074.014.102.042a.141.141 0 0 1 .042.104.141.141 0 0 1-.042.104.139.139 0 0 1-.102.042Zm.112.146v1.102h-.228V61h.228Zm.527-.378v1.48h-.228v-1.48h.229Zm.528 0v1.48h-.228v-1.48h.228Z" class="Drill"/>
      <path fill="#7A8799" d="M20.462 36.811v1.39h-.228v-.608h-.654v.608h-.228v-1.39h.228v.596h.654v-.596h.228Zm.778 1.408a.571.571 0 0 1-.282-.07.52.52 0 0 1-.198-.2.61.61 0 0 1-.072-.3c0-.112.024-.211.074-.298a.511.511 0 0 1 .202-.2.586.586 0 0 1 .286-.07c.105 0 .2.023.286.07a.51.51 0 0 1 .202.2.59.59 0 0 1 .074.298.58.58 0 0 1-.076.298.531.531 0 0 1-.208.202.598.598 0 0 1-.288.07Zm0-.198a.333.333 0 0 0 .29-.168.405.405 0 0 0 .048-.204.407.407 0 0 0-.046-.202.308.308 0 0 0-.122-.126.333.333 0 0 0-.164-.042.301.301 0 0 0-.282.168.423.423 0 0 0-.044.202c0 .119.03.21.09.276a.306.306 0 0 0 .23.096Zm1.275.198a.571.571 0 0 1-.282-.07.52.52 0 0 1-.198-.2.61.61 0 0 1-.072-.3c0-.112.025-.211.074-.298a.51.51 0 0 1 .202-.2.586.586 0 0 1 .286-.07c.105 0 .2.023.286.07a.51.51 0 0 1 .202.2c.05.087.074.186.074.298a.58.58 0 0 1-.076.298.532.532 0 0 1-.208.202.599.599 0 0 1-.288.07Zm0-.198a.334.334 0 0 0 .29-.168.405.405 0 0 0 .048-.204.407.407 0 0 0-.046-.202.31.31 0 0 0-.122-.126.334.334 0 0 0-.164-.042.334.334 0 0 0-.164.042.3.3 0 0 0-.118.126.423.423 0 0 0-.044.202c0 .119.03.21.09.276a.305.305 0 0 0 .23.096Zm1.233-.37.508.55h-.308l-.407-.474v.474h-.229v-1.48h.229v.86l.4-.482h.316l-.509.552Z" class="Hook"/>
      <path fill="#91A3BE" d="M6.812 24.811c.148 0 .277.029.388.086a.593.593 0 0 1 .258.244.722.722 0 0 1 .092.37c0 .142-.03.264-.092.368a.6.6 0 0 1-.258.24.867.867 0 0 1-.388.082h-.454v-1.39h.454Zm0 1.204c.162 0 .287-.044.374-.132a.508.508 0 0 0 .13-.372.525.525 0 0 0-.13-.378c-.087-.09-.212-.136-.374-.136h-.226v1.018h.226Zm1.192-.756a.352.352 0 0 1 .132-.13.392.392 0 0 1 .198-.048v.236h-.058c-.09 0-.158.023-.204.068-.046.045-.068.124-.068.236v.58h-.228V25.1h.228v.16Zm.463.386c0-.11.023-.209.068-.294a.507.507 0 0 1 .452-.27c.087 0 .162.018.226.052a.448.448 0 0 1 .156.126v-.16h.23v1.102h-.23v-.164a.488.488 0 0 1-.386.182.49.49 0 0 1-.26-.072.535.535 0 0 1-.188-.204.641.641 0 0 1-.068-.298Zm.902.004a.392.392 0 0 0-.048-.198.323.323 0 0 0-.45-.128.322.322 0 0 0-.124.126.394.394 0 0 0-.046.196c0 .076.016.143.046.2a.35.35 0 0 0 .124.132.33.33 0 0 0 .328 0 .324.324 0 0 0 .122-.128.404.404 0 0 0 .048-.2Zm2.01-.55-.342 1.102h-.24l-.222-.814-.222.814h-.24L9.769 25.1H10l.23.886.234-.886h.238l.224.882.228-.882h.224Zm1.65 0-.342 1.102h-.24l-.222-.814-.222.814h-.24L11.42 25.1h.232l.23.886.234-.886h.238l.224.882.228-.882h.224Zm.649 1.12a.571.571 0 0 1-.282-.07.52.52 0 0 1-.198-.2.61.61 0 0 1-.072-.3c0-.112.024-.211.074-.298a.51.51 0 0 1 .202-.2.586.586 0 0 1 .286-.07c.105 0 .2.024.286.07a.51.51 0 0 1 .202.2.596.596 0 0 1 .074.298.58.58 0 0 1-.076.298.532.532 0 0 1-.208.202.599.599 0 0 1-.288.07Zm0-.198a.334.334 0 0 0 .29-.168.405.405 0 0 0 .048-.204.407.407 0 0 0-.046-.202.31.31 0 0 0-.122-.126.334.334 0 0 0-.164-.042.334.334 0 0 0-.164.042.3.3 0 0 0-.118.126.423.423 0 0 0-.044.202c0 .119.03.21.09.276a.305.305 0 0 0 .23.096Zm1.025-.762a.352.352 0 0 1 .132-.13.392.392 0 0 1 .198-.048v.236h-.058c-.09 0-.157.023-.204.068-.045.045-.068.124-.068.236v.58h-.228V25.1h.228v.16Zm.976.392.508.55h-.308l-.408-.474v.474h-.228v-1.48h.228v.86l.4-.482h.316l-.508.552Z" class="Drawwork"/>
    </g>
    <g class="Color-circles">
      <animate xmlns="http://www.w3.org/2000/svg" attributeName="opacity" values="0;0;1;1" dur="2s" repeatCount="1" calcMode="spline" keyTimes="0;0.6;0.68;1" keySplines="0 0 0.15 1;0 0 1 1;0.5 0.35 1 1" additive="replace" fill="freeze"/>
      <circle cx="90.503" cy="21.801" r=".8" fill="#78C4FE" class="Ellipse 839"/>
      <circle cx="92.103" cy="25.601" r=".8" fill="#3E9AF8" class="Ellipse 840"/>
      <circle cx="92.103" cy="29.401" r=".8" fill="#1568E5" class="Ellipse 842"/>
      <circle cx="90.503" cy="33.201" r=".8" fill="#18469D" class="Ellipse 841"/>
      <circle cx="57.403" cy="42.601" r=".8" fill="#91A3BE" class="Ellipse 856"/>
      <circle cx="55.803" cy="46.001" r=".8" fill="#7D899B" class="Ellipse 855"/>
      <circle cx="55.803" cy="49.201" r=".8" fill="#51627B" class="Ellipse 854"/>
      <circle cx="57.403" cy="52.501" r=".8" fill="#3B475A" class="Ellipse 853"/>
      <circle cx="70.803" cy="41.9" r=".8" fill="#51627B" class="Ellipse 906"/>
    </g>
    <g class="Minor-text">
      <animate xmlns="http://www.w3.org/2000/svg" attributeName="opacity" values="0;0;1;1" dur="2s" repeatCount="1" calcMode="spline" keyTimes="0;0.5;1;1" keySplines="0 0 0.15 1;0 0 0.15 1;0.5 0.35 0.15 1" additive="replace" fill="freeze"/>
      <path fill="#7D899B" d="M50.335 40.692v1.107h-.146v-.825l-.368.825h-.102l-.37-.827v.827h-.145v-1.107h.157l.41.915.409-.915h.155Zm.63 1.122a.454.454 0 0 1-.225-.056.407.407 0 0 1-.157-.159.499.499 0 0 1-.056-.24c0-.09.02-.168.058-.237a.402.402 0 0 1 .16-.158.457.457 0 0 1 .226-.056c.083 0 .158.019.225.056a.4.4 0 0 1 .159.157c.04.068.059.148.059.238s-.02.17-.061.24a.411.411 0 0 1-.162.159.466.466 0 0 1-.227.056Zm0-.128a.308.308 0 0 0 .146-.037.274.274 0 0 0 .11-.11.348.348 0 0 0 .044-.18.36.36 0 0 0-.042-.179.267.267 0 0 0-.108-.109.299.299 0 0 0-.146-.037.302.302 0 0 0-.147.037.26.26 0 0 0-.106.109.37.37 0 0 0-.04.18c0 .07.013.13.039.18a.27.27 0 0 0 .105.11.3.3 0 0 0 .144.036Zm.586-.328c0-.09.018-.168.054-.236a.395.395 0 0 1 .363-.214.391.391 0 0 1 .325.171v-.464h.147V41.8h-.147v-.165a.345.345 0 0 1-.128.13.385.385 0 0 1-.198.05.406.406 0 0 1-.213-.058.405.405 0 0 1-.149-.162.504.504 0 0 1-.054-.236Zm.742.001a.356.356 0 0 0-.04-.173.275.275 0 0 0-.109-.112.285.285 0 0 0-.148-.04.279.279 0 0 0-.256.15.357.357 0 0 0-.04.174.37.37 0 0 0 .04.176.29.29 0 0 0 .107.113.295.295 0 0 0 .149.039.286.286 0 0 0 .258-.152.366.366 0 0 0 .04-.175Zm.54-.273a.344.344 0 0 1 .13-.128.388.388 0 0 1 .197-.05.395.395 0 0 1 .362.214.489.489 0 0 1 .054.236.504.504 0 0 1-.054.236.4.4 0 0 1-.362.22.394.394 0 0 1-.2-.05.339.339 0 0 1-.128-.126v.161h-.145v-1.184h.145v.47Zm.594.272a.357.357 0 0 0-.04-.173.276.276 0 0 0-.108-.112.295.295 0 0 0-.15-.039.29.29 0 0 0-.257.154.353.353 0 0 0-.04.171c0 .066.013.124.04.175a.296.296 0 0 0 .109.113.3.3 0 0 0 .149.039.287.287 0 0 0 .258-.152.37.37 0 0 0 .04-.176Zm1.118-.436v.877H54.4v-.13a.287.287 0 0 1-.117.106.4.4 0 0 1-.347-.005.319.319 0 0 1-.13-.128.425.425 0 0 1-.046-.206v-.514h.144v.495c0 .086.022.153.065.2a.236.236 0 0 0 .18.069.24.24 0 0 0 .184-.072c.044-.048.067-.118.067-.21v-.482h.145Zm.557.892a.463.463 0 0 1-.181-.034.314.314 0 0 1-.127-.096.26.26 0 0 1-.05-.142h.15c.004.043.024.08.06.107a.238.238 0 0 0 .146.041c.055 0 .1-.012.131-.036a.112.112 0 0 0 .048-.093.09.09 0 0 0-.051-.085.686.686 0 0 0-.158-.056 1.302 1.302 0 0 1-.16-.051.303.303 0 0 1-.106-.079.21.21 0 0 1-.043-.137c0-.045.013-.086.04-.123a.265.265 0 0 1 .113-.088.4.4 0 0 1 .168-.034c.097 0 .176.024.236.074.06.049.091.116.096.201h-.146a.15.15 0 0 0-.056-.11.203.203 0 0 0-.134-.042.208.208 0 0 0-.125.034.104.104 0 0 0-.047.088.1.1 0 0 0 .028.072.234.234 0 0 0 .07.045c.029.01.068.022.118.036.063.018.114.035.154.052.04.016.073.04.1.073a.197.197 0 0 1 .046.13.222.222 0 0 1-.04.13.272.272 0 0 1-.114.09.407.407 0 0 1-.166.033Z" class="Modbus"/>
      <path fill="#7D899B" d="M48.072 45.21a.546.546 0 0 1-.56-.57c0-.108.024-.205.073-.292a.557.557 0 0 1 .486-.277c.105 0 .2.025.286.074a.524.524 0 0 1 .201.202.586.586 0 0 1 .074.294.59.59 0 0 1-.074.295.535.535 0 0 1-.486.275Zm0-.126a.407.407 0 0 0 .21-.054.376.376 0 0 0 .147-.155.485.485 0 0 0 .054-.234.48.48 0 0 0-.054-.233.38.38 0 0 0-.146-.156.41.41 0 0 0-.211-.054.39.39 0 0 0-.358.21.49.49 0 0 0-.053.233c0 .089.017.167.052.234a.39.39 0 0 0 .359.21Zm1.498-.673a.31.31 0 0 1-.096.232c-.063.06-.16.091-.29.091h-.214v.466h-.146v-1.116h.36c.126 0 .221.03.286.092.066.06.1.139.1.235Zm-.386.203c.081 0 .14-.018.18-.053.038-.035.057-.085.057-.15 0-.138-.08-.207-.237-.207h-.214v.41h.214Zm.512.027c0-.109.025-.206.074-.293a.536.536 0 0 1 .483-.278c.121 0 .228.03.318.088a.507.507 0 0 1 .199.25h-.175a.348.348 0 0 0-.134-.156.382.382 0 0 0-.208-.054.407.407 0 0 0-.21.054.38.38 0 0 0-.145.156.49.49 0 0 0-.053.233c0 .089.017.167.053.234a.383.383 0 0 0 .355.208.348.348 0 0 0 .342-.208h.175a.505.505 0 0 1-.199.248.58.58 0 0 1-.318.086.539.539 0 0 1-.483-.275.583.583 0 0 1-.074-.293Zm1.898-.09v.124h-.638v-.123h.638Zm.416-.467v.706c0 .1.024.173.072.22.05.049.117.073.203.073a.27.27 0 0 0 .2-.072c.05-.048.074-.122.074-.221v-.706h.146v.704a.46.46 0 0 1-.056.236.352.352 0 0 1-.153.14.476.476 0 0 1-.212.047.487.487 0 0 1-.215-.047.354.354 0 0 1-.15-.14.471.471 0 0 1-.054-.236v-.704h.145Zm1.597.868h-.487l-.09.248h-.153l.403-1.11h.168l.402 1.11h-.154l-.09-.248Zm-.042-.119-.202-.563-.201.563h.403Z" class="OPC-UA"/>
      <path fill="#7D899B" d="M50.72 47.284v1.115h-.145v-.506h-.568v.506h-.145v-1.115h.145v.49h.568v-.49h.146Zm.936 0v.118h-.304v.997h-.146v-.997H50.9v-.118h.756Zm.865 0v.118h-.304v.997h-.145v-.997h-.306v-.118h.755Zm.925.326a.31.31 0 0 1-.096.232c-.063.06-.16.091-.29.091h-.214v.466h-.145v-1.115h.36c.125 0 .22.03.286.09.066.062.1.14.1.236Zm-.386.203c.082 0 .141-.017.18-.053.038-.035.057-.085.057-.15 0-.138-.079-.206-.236-.206h-.215v.41h.215Z" class="HTTP"/>
      <path fill="#7D899B" d="M43.72 51.71a.547.547 0 0 1-.56-.57c0-.108.025-.205.074-.292a.557.557 0 0 1 .486-.277c.105 0 .2.025.285.074a.524.524 0 0 1 .202.202.583.583 0 0 1 .073.294.59.59 0 0 1-.073.295.535.535 0 0 1-.487.275Zm0-.126a.406.406 0 0 0 .21-.054.376.376 0 0 0 .147-.155.484.484 0 0 0 .054-.234.478.478 0 0 0-.054-.233.38.38 0 0 0-.146-.156.41.41 0 0 0-.21-.054.39.39 0 0 0-.358.21.49.49 0 0 0-.054.233c0 .089.018.167.053.234a.39.39 0 0 0 .358.21Zm.93-.641v.517c0 .042.01.073.027.09.018.018.05.026.095.026h.107v.124h-.131a.27.27 0 0 1-.183-.056c-.04-.038-.06-.1-.06-.184v-.517h-.114v-.12h.113v-.221h.146v.22h.229v.12h-.229Zm.84-.136a.37.37 0 0 1 .18.043.29.29 0 0 1 .124.126.424.424 0 0 1 .047.207v.517h-.144v-.496c0-.088-.022-.154-.066-.2a.233.233 0 0 0-.179-.07.243.243 0 0 0-.184.071c-.045.048-.067.118-.067.21v.485h-.146v-1.184h.146v.432a.288.288 0 0 1 .118-.104.392.392 0 0 1 .171-.037Zm1.389.42a.857.857 0 0 1-.005.089h-.7a.288.288 0 0 0 .087.203c.054.048.12.072.197.072a.27.27 0 0 0 .157-.043.236.236 0 0 0 .09-.119h.156a.38.38 0 0 1-.14.207.428.428 0 0 1-.263.078.448.448 0 0 1-.224-.056.398.398 0 0 1-.154-.158.497.497 0 0 1-.056-.24.5.5 0 0 1 .055-.239.378.378 0 0 1 .152-.157.454.454 0 0 1 .227-.056.44.44 0 0 1 .22.055.37.37 0 0 1 .148.15.432.432 0 0 1 .053.215Zm-.15-.03a.265.265 0 0 0-.038-.142.233.233 0 0 0-.1-.091.301.301 0 0 0-.14-.032.273.273 0 0 0-.188.07.288.288 0 0 0-.088.195h.553Zm.488-.232a.28.28 0 0 1 .108-.117.343.343 0 0 1 .175-.041v.15h-.039c-.163 0-.244.089-.244.266v.477h-.146v-.877h.146v.142Zm1.023.02a.344.344 0 0 1 .128-.125.385.385 0 0 1 .2-.052.406.406 0 0 1 .361.215.487.487 0 0 1 .055.235.503.503 0 0 1-.055.237.4.4 0 0 1-.361.219.37.37 0 0 1-.328-.176v.578h-.146v-1.293h.146v.161Zm.595.273a.356.356 0 0 0-.04-.173.275.275 0 0 0-.109-.112.295.295 0 0 0-.148-.038.29.29 0 0 0-.258.153.353.353 0 0 0-.04.172.36.36 0 0 0 .04.174.3.3 0 0 0 .109.114.3.3 0 0 0 .148.038.286.286 0 0 0 .258-.152.369.369 0 0 0 .04-.176Zm.486-.293a.281.281 0 0 1 .109-.117.344.344 0 0 1 .174-.041v.15h-.038c-.163 0-.245.089-.245.266v.477h-.145v-.877h.145v.142Zm.834.749a.454.454 0 0 1-.224-.056.407.407 0 0 1-.157-.158.499.499 0 0 1-.056-.24c0-.09.02-.169.058-.237a.402.402 0 0 1 .16-.159.457.457 0 0 1 .225-.056c.083 0 .159.02.226.056.067.037.12.089.158.157.04.069.06.148.06.239 0 .09-.02.17-.061.24a.41.41 0 0 1-.162.158.466.466 0 0 1-.227.056Zm0-.128a.308.308 0 0 0 .147-.037.274.274 0 0 0 .11-.11.348.348 0 0 0 .044-.18c0-.07-.014-.13-.042-.179a.267.267 0 0 0-.109-.108.299.299 0 0 0-.145-.037.302.302 0 0 0-.148.037.26.26 0 0 0-.105.108.372.372 0 0 0-.04.18c0 .071.013.131.038.18a.27.27 0 0 0 .106.11.3.3 0 0 0 .144.036Zm.819-.643v.517c0 .042.009.073.027.09.018.018.05.026.094.026h.107v.124h-.13c-.082 0-.143-.02-.183-.056-.04-.038-.061-.1-.061-.184v-.517h-.114v-.12h.114v-.221h.145v.22h.23v.12h-.23Zm.787.771a.454.454 0 0 1-.224-.056.406.406 0 0 1-.157-.158.497.497 0 0 1-.056-.24c0-.09.02-.169.058-.237a.4.4 0 0 1 .16-.159.457.457 0 0 1 .225-.056.47.47 0 0 1 .226.056c.067.037.12.089.158.157.04.069.06.148.06.239 0 .09-.02.17-.061.24a.412.412 0 0 1-.162.158.466.466 0 0 1-.227.056Zm0-.128a.308.308 0 0 0 .147-.037.275.275 0 0 0 .11-.11.348.348 0 0 0 .044-.18.36.36 0 0 0-.042-.179.267.267 0 0 0-.109-.108.299.299 0 0 0-.145-.037.302.302 0 0 0-.147.037.26.26 0 0 0-.106.108.37.37 0 0 0-.04.18c0 .071.013.131.038.18a.27.27 0 0 0 .25.146Zm.587-.326c0-.091.018-.17.054-.237a.392.392 0 0 1 .15-.159.44.44 0 0 1 .223-.056c.108 0 .196.026.266.079.07.052.116.125.139.217h-.157a.224.224 0 0 0-.088-.126.266.266 0 0 0-.16-.046.257.257 0 0 0-.202.086.353.353 0 0 0-.077.242c0 .105.026.187.077.244a.257.257 0 0 0 .202.087.272.272 0 0 0 .16-.045.227.227 0 0 0 .088-.128h.157a.39.39 0 0 1-.141.216.425.425 0 0 1-.264.08.44.44 0 0 1-.222-.056.392.392 0 0 1-.15-.158.504.504 0 0 1-.055-.24Zm1.408.454a.454.454 0 0 1-.224-.056.406.406 0 0 1-.156-.158.497.497 0 0 1-.056-.24c0-.09.019-.169.057-.237a.4.4 0 0 1 .16-.159.457.457 0 0 1 .226-.056c.083 0 .158.02.225.056a.4.4 0 0 1 .159.157c.04.069.059.148.059.239 0 .09-.02.17-.06.24a.412.412 0 0 1-.162.158.466.466 0 0 1-.228.056Zm0-.128a.308.308 0 0 0 .148-.037.275.275 0 0 0 .11-.11.348.348 0 0 0 .043-.18.36.36 0 0 0-.041-.179.267.267 0 0 0-.11-.108.299.299 0 0 0-.145-.037.302.302 0 0 0-.147.037.26.26 0 0 0-.106.108.37.37 0 0 0-.04.18.38.38 0 0 0 .039.18.27.27 0 0 0 .25.146Zm.787-1.07V51.7h-.146v-1.184h.146Zm.559 1.198a.463.463 0 0 1-.181-.034.314.314 0 0 1-.127-.096.26.26 0 0 1-.05-.142h.15c.004.044.024.08.06.107a.238.238 0 0 0 .146.042c.055 0 .1-.013.131-.037a.112.112 0 0 0 .048-.093.09.09 0 0 0-.051-.085.686.686 0 0 0-.158-.056 1.302 1.302 0 0 1-.16-.05.303.303 0 0 1-.106-.08.21.21 0 0 1-.043-.137c0-.045.013-.086.04-.123a.265.265 0 0 1 .113-.088.4.4 0 0 1 .168-.034c.097 0 .176.025.236.074.06.05.091.116.096.202h-.146a.15.15 0 0 0-.056-.11.203.203 0 0 0-.134-.042.208.208 0 0 0-.125.033.104.104 0 0 0-.047.088.1.1 0 0 0 .028.072.234.234 0 0 0 .07.045c.029.01.068.023.118.037.063.017.114.034.154.051.04.016.073.04.1.074a.197.197 0 0 1 .046.13.222.222 0 0 1-.04.129.272.272 0 0 1-.114.091.407.407 0 0 1-.166.032Z" class="Other protocols"/>
    </g>
    <g class="TB-connect">
      <path stroke="url(#b)" stroke-width=".15" d="M70.802 33.85v8.25" class="Line 196"><animate xmlns="http://www.w3.org/2000/svg" attributeName="stroke-dasharray" values="0 8.3325;0 8.3325;0 8.3325;0 8.3325;0 8.3325;1.5461 6.7865;6.704 1.6286;8.25 0.0825;8.25 0.0825;8.25 0.0825;8.25 0.0825" dur="2s" repeatCount="1" keyTimes="0;0.1;0.2;0.3;0.4;0.5;0.6;0.7;0.8;0.9;1" fill="freeze"/></path>
      <circle cx="70.802" cy="33.701" r="1.125" fill="#fff" stroke="#3E9AF8" stroke-width=".15" class="Ellipse 907"><animate xmlns="http://www.w3.org/2000/svg" attributeName="opacity" values="0;0;1;1" dur="2s" repeatCount="1" calcMode="spline" keyTimes="0;0.25;0.75;1" keySplines="0 0 0.15 1;0 0 0 1;0.5 0.35 0 1" additive="replace" fill="freeze"/></circle>
      <g class="mqtt">
        <animate xmlns="http://www.w3.org/2000/svg" attributeName="opacity" values="0;0;1;1" dur="2s" repeatCount="1" calcMode="spline" keyTimes="0;0.5;0.75;1" keySplines="0.5 0.35 0.15 1;0.5 0.35 0.15 1;0.5 0.35 0.15 1" additive="replace" fill="freeze"/>
        <path fill="#fff" d="M67.602 36.501h6v3h-6z" class="Rectangle 2800"/>
        <path fill="#7D899B" d="M72.892 37.415v.118h-.304v.997h-.146v-.997h-.305v-.118h.755Zm-.867 0v.118h-.304v.997h-.146v-.997h-.306v-.118h.756Zm-1.053 1.325-.222-.222a.627.627 0 0 1-.167.022.547.547 0 0 1-.56-.57c0-.108.025-.206.074-.292a.558.558 0 0 1 .486-.277c.105 0 .2.025.285.074a.522.522 0 0 1 .202.201.59.59 0 0 1 .073.295.587.587 0 0 1-.07.288.525.525 0 0 1-.194.201l.282.28h-.189Zm-.8-.77c0 .09.018.167.053.234a.39.39 0 0 0 .358.21.406.406 0 0 0 .21-.054.376.376 0 0 0 .147-.156.484.484 0 0 0 .055-.233.478.478 0 0 0-.055-.234.38.38 0 0 0-.145-.155.41.41 0 0 0-.212-.054.39.39 0 0 0-.358.21.49.49 0 0 0-.053.233Zm-.342-.547v1.107h-.145v-.826l-.368.826h-.103l-.37-.827v.827H68.7v-1.107h.157l.41.915.41-.915h.154Z" class="Vector"/>
      </g>
    </g>
    <g class="White-circles">
      <animate xmlns="http://www.w3.org/2000/svg" attributeName="opacity" values="0;1;1" dur="2.0016s" repeatCount="1" calcMode="spline" keyTimes="0;0.25;1" keySplines="0 0 0.15 1;0.5 0.35 0.15 1" additive="replace" fill="freeze"/>
      <circle cx="140.003" cy="19.6" r="1.125" fill="#fff" stroke="#3E9AF8" stroke-width=".15" class="Ellipse 844"/>
      <circle cx="140.003" cy="31.5" r="1.125" fill="#fff" stroke="#1568E5" stroke-width=".15" class="Ellipse 845"/>
      <circle cx="140.003" cy="43.5" r="1.125" fill="#fff" stroke="#18469D" stroke-width=".15" class="Ellipse 846"/>
      <circle cx="1.203" cy="27.4" r="1.125" fill="#fff" stroke="#96A7C2" stroke-width=".15" class="Ellipse 849"/>
      <circle cx="1.203" cy="39.3" r="1.125" fill="#fff" stroke="#7D899B" stroke-width=".15" class="Ellipse 850"/>
      <circle cx="1.203" cy="51.2" r="1.125" fill="#fff" stroke="#51627B" stroke-width=".15" class="Ellipse 851"/>
      <circle cx="1.203" cy="63.1" r="1.125" fill="#fff" stroke="#3B475A" stroke-width=".15" class="Ellipse 852"/>
      <circle cx="140.003" cy="7.6" r="1.125" fill="#fff" stroke="#78C4FE" stroke-width=".15" class="Ellipse 843"/>
    </g>
    <g class="Left-circles">
      <animateTransform xmlns="http://www.w3.org/2000/svg" attributeName="transform" type="translate" values="0 -3;0 -3;0 0;0 0" dur="2.0016s" repeatCount="1" calcMode="spline" keyTimes="0;0.5;1;1" keySplines="0 0 0.15 1;0 0 0.15 1;0.5 0.35 0.15 1" additive="sum" fill="freeze"/>
      <animate xmlns="http://www.w3.org/2000/svg" attributeName="opacity" values="0;0;1;1" dur="2.0016s" repeatCount="1" calcMode="spline" keyTimes="0;0.5;1;1" keySplines="0 0 0.15 1;0 0 0.15 1;0.5 0.35 0.15 1" additive="replace" fill="freeze"/>
      <g class="device">
        <circle cx="24.998" cy="27" r="7.524" fill="#fff" stroke="#91A3BE" stroke-width=".152" class="Ellipse 915"/>
        <g class="Group 427319671">
          <path fill="#91A3BE" stroke="#fff" stroke-width=".027" d="m21.867 29.287.666-.854h1.912l.661.854h-3.239Z" class="Rectangle 2412"/>
          <rect width="4.318" height=".329" x="21.33" y="29.291" fill="#91A3BE" stroke="#fff" stroke-width=".027" class="Rectangle 2416" rx=".049"/>
          <path fill="#91A3BE" stroke="#fff" stroke-width=".027" d="M23.507 24.313h4.44v3.36h-4.44z" class="Rectangle 2790"/>
          <path fill="#91A3BE" stroke="#fff" stroke-width=".027" d="M27.947 24.313h1.04v5.307h-1.04z" class="Rectangle 2791"/>
          <circle cx="23.493" cy="26.793" r="2.48" fill="#91A3BE" stroke="#fff" stroke-width=".027" class="Ellipse 743"/>
          <g class="Ellipse 2">
            <mask id="c" fill="#fff" class="c">
              <path d="M25.093 26.793a1.6 1.6 0 1 1-3.2 0 1.6 1.6 0 0 1 3.2 0Zm-2.95 0a1.35 1.35 0 1 0 2.701 0 1.35 1.35 0 0 0-2.702 0Z"/>
            </mask>
            <path fill="#fff" stroke="#fff" stroke-width=".053" d="M25.093 26.793a1.6 1.6 0 1 1-3.2 0 1.6 1.6 0 0 1 3.2 0Zm-2.95 0a1.35 1.35 0 1 0 2.701 0 1.35 1.35 0 0 0-2.702 0Z" mask="url(#c)"/>
          </g>
          <path stroke="#fff" stroke-width=".027" d="M26.88 24.3v3.387" class="Line 63"/>
          <path stroke="#fff" stroke-width=".027" d="M27.147 24.3v3.387" class="Line 62"/>
          <path stroke="#fff" stroke-width=".027" d="M27.413 24.3v3.387" class="Line 61"/>
          <path stroke="#fff" stroke-width=".027" d="M27.68 24.3v3.387" class="Line 60"/>
        </g>
        <circle cx="24.998" cy="27" r="6.6" stroke="#91A3BE" stroke-width=".4" class="Ellipse 917"/>
      </g>
      <g class="device">
        <circle cx="10.6" cy="39.1" r="7.524" fill="#fff" stroke="#7D899B" stroke-width=".152" class="Ellipse 915"/>
        <g class="Group 427319670">
          <path fill="#7D899B" stroke="#fff" stroke-width=".04" d="M10.402 40.596a.616.616 0 0 0 .092-.198.431.431 0 0 0 0-.178h.605c.011.071.017.222-.064.465a.63.63 0 0 1-.162.233c-.063.064-.138.126-.213.189l-.045.037c-.09.076-.178.153-.245.234a.471.471 0 0 0-.122.265.548.548 0 0 0 .118.408.61.61 0 0 0 .267.173.55.55 0 0 0 .332-.004.38.38 0 0 0 .175-.12.467.467 0 0 0 .094-.253l.016-.183.007-.077a.83.83 0 0 1 .021-.145c.01-.03.02-.037.03-.039a.069.069 0 0 1 .03.004l.051.022a.57.57 0 0 1 .33.477.951.951 0 0 1-.073.45 1.03 1.03 0 0 1-.976.624 1.36 1.36 0 0 1-.641-.134 1.117 1.117 0 0 1-.403-.371 1.254 1.254 0 0 1-.199-.571.981.981 0 0 1 .198-.714c.165-.209.327-.31.463-.382l.072-.037c.04-.02.078-.04.112-.06a.375.375 0 0 0 .13-.115Z" class="Vector 423"/>
          <path fill="#7D899B" stroke="#fff" stroke-width=".04" d="M9.662 40.228a.666.666 0 0 1-.143-.139 2.273 2.273 0 0 1-.173-.25 5.236 5.236 0 0 1-.376-.772c-.243-.611-.445-1.388-.45-2.158-.009-1.228.6-1.702 1.024-1.81.214-.056.608-.08.994-.079.386.002.76.03.937.078.348.096 1.005.642 1.005 1.812 0 .642-.197 1.401-.442 2.037a6.254 6.254 0 0 1-.385.827c-.129.225-.25.385-.342.454a.357.357 0 0 1-.114.047 1.521 1.521 0 0 1-.19.035c-.146.02-.325.03-.505.03s-.362-.009-.513-.028a1.68 1.68 0 0 1-.2-.036.458.458 0 0 1-.127-.048Z" class="Vector 424"/>
          <g class="Ellipse 1">
            <circle cx="10.516" cy="36.98" r="1.44" fill="#7D899B"/>
            <circle cx="10.516" cy="36.98" r="1.42" stroke="#000" stroke-opacity=".12" stroke-width=".04"/>
          </g>
          <g class="Ellipse 2">
            <mask id="d" fill="#fff" class="d">
              <path d="M11.956 36.98a1.44 1.44 0 1 1-2.88 0 1.44 1.44 0 0 1 2.88 0Zm-2.656 0a1.216 1.216 0 1 0 2.432 0 1.216 1.216 0 0 0-2.432 0Z"/>
            </mask>
            <path fill="#fff" stroke="#fff" stroke-width=".08" d="M11.956 36.98a1.44 1.44 0 1 1-2.88 0 1.44 1.44 0 0 1 2.88 0Zm-2.656 0a1.216 1.216 0 1 0 2.432 0 1.216 1.216 0 0 0-2.432 0Z" mask="url(#d)"/>
          </g>
        </g>
        <circle cx="10.601" cy="39.1" r="6.6" stroke="#7D899B" stroke-width=".4" class="Ellipse 917"/>
      </g>
      <g class="device">
        <circle cx="25" cy="51.1" r="7.524" fill="#fff" stroke="#51627B" stroke-width=".152" class="Ellipse 915"/>
        <path fill="#4C5C75" stroke="#fff" stroke-width=".04" d="M23.76 49.38v-.26h2.48v.28h.659l.921.098v.424l-.921.098H26.7v.48h.918l1.362.257v.646l-1.362.257H26.7v.5h.179l.941.118v.404l-.941.118h-.639v.28h-2.48v-.28h-.639l-.941-.118v-.404l.941-.118h.179v-.5h-.918l-1.362-.257v-.646l1.362-.257h.918v-.48h-.199l-.921-.098v-.424l.921-.098h.659v-.02Z" class="Vector 437"/>
        <circle cx="25.001" cy="51.1" r="6.6" stroke="#51627B" stroke-width=".4" class="Ellipse 917"/>
      </g>
      <g class="device">
        <circle cx="10.6" cy="63.1" r="7.524" fill="#fff" stroke="#354154" stroke-width=".152" class="Ellipse 915"/>
        <g class="Group 427319672">
          <path fill="#354154" stroke="#fff" stroke-width=".07" d="m9.275 62.335.376-2.8h1.898l.376 2.8h-2.65Z" class="Rectangle 2573"/>
          <path fill="#354154" stroke="#fff" stroke-width=".07" d="M9.55 62.335h2.1v3.606l-.016.012a3.972 3.972 0 0 1-.351.246 2.527 2.527 0 0 1-.348.184.908.908 0 0 1-.335.082.908.908 0 0 1-.335-.082c-.12-.05-.24-.117-.348-.184a4.069 4.069 0 0 1-.351-.246l-.016-.012v-3.606Z" class="Rectangle 2574"/>
          <path fill="#354154" d="M11.304 62.3h.91l.556.84v2.17h-.836s-.49-1.111-.63-1.68c-.167-.679 0-1.33 0-1.33Z" class="Vector 430"/>
          <path fill="#fff" fill-rule="evenodd" d="M11.952 63.105h.71l-.485-.735H11.4l.55.735Zm-.604-.805h.866l.556.84v2.17h-.836s-.012-.03-.035-.08c-.114-.266-.477-1.123-.595-1.6a3.056 3.056 0 0 1-.01-1.285l.01-.045m.047.12-.001.005c-.013.07-.028.17-.039.291-.02.243-.02.568.061.897.07.28.225.695.365 1.044.06.15.117.287.162.394v-1.9l-.548-.731Zm.63 2.82-.004-.007a1.292 1.292 0 0 0-.008-.018v-2.04h.731v2.065h-.72Zm-.677-2.94h.044Z" class="Vector 430 (Stroke)" clip-rule="evenodd"/>
          <path fill="#354154" d="M9.896 62.3h-.91l-.556.84v2.17h.836s.49-1.111.63-1.68c.167-.679 0-1.33 0-1.33Z" class="Vector 431"/>
          <path fill="#fff" fill-rule="evenodd" d="M9.3 63.152v1.9c.046-.108.103-.245.163-.395.14-.349.296-.765.365-1.044.08-.33.081-.654.06-.897a3.085 3.085 0 0 0-.039-.296l-.548.732Zm.606-.807c.033.158.13.711-.01 1.285-.118.477-.48 1.334-.595 1.6-.023.05-.035.08-.035.08H8.43v-2.17l.556-.84h.91l.01.045Zm-.107.025h-.776l-.486.735h.711l.551-.735Zm-1.299.805v2.065h.72l.003-.007.008-.018v-2.04H8.5Z" class="Vector 431 (Stroke)" clip-rule="evenodd"/>
          <path fill="#354154" stroke="#fff" stroke-width=".07" d="m11.583 63.585.365 1.663.006.028h.781v-1.753c.513.2.875.691.875 1.266 0 .751-.618 1.361-1.383 1.361-.764 0-1.382-.61-1.382-1.36 0-.523.299-.977.738-1.205Zm-3.118-.062v1.753h.781l.006-.028.365-1.663c.44.228.738.682.738 1.204 0 .751-.618 1.361-1.383 1.361-.764 0-1.382-.61-1.382-1.36 0-.576.362-1.068.875-1.267Z" class="Subtract"/>
        </g>
        <circle cx="10.601" cy="63.1" r="6.6" stroke="#354154" stroke-width=".4" class="Ellipse 917"/>
      </g>
    </g>
    <g class="Right-circles">
      <animateTransform xmlns="http://www.w3.org/2000/svg" attributeName="transform" type="translate" values="0 3;0 3;0 0;0 0" dur="2.0016s" repeatCount="1" calcMode="spline" keyTimes="0;0.5;1;1" keySplines="0 0 0.15 1;0 0 0.15 1;0.5 0.35 0.15 1" additive="sum" fill="freeze"/>
      <animate xmlns="http://www.w3.org/2000/svg" attributeName="opacity" values="0;0;1;1" dur="2.0016s" repeatCount="1" calcMode="spline" keyTimes="0;0.5;1;1" keySplines="0 0 0.15 1;0 0 0.15 1;0.5 0.35 0.15 1" additive="replace" fill="freeze"/>
      <g class="device">
        <circle cx="130.601" cy="43.599" r="7.524" fill="#fff" stroke="#18469D" stroke-width=".152" class="Ellipse 915"/>
        <g class="Vector">
          <path fill="#18469D" fill-rule="evenodd" d="M128.745 41.8a.417.417 0 0 0-.419.414l-.003.625a.416.416 0 0 0 .414.419l3.75.02a.417.417 0 0 0 .419-.415l.003-.625a.416.416 0 0 0-.414-.419l-3.75-.02Zm.31.522a.21.21 0 0 0-.21.207.21.21 0 0 0 .208.21l3.02.015a.209.209 0 0 0 .003-.416l-3.021-.016Z" clip-rule="evenodd"/>
          <path fill="#18469D" fill-rule="evenodd" d="M128.737 43.258a.417.417 0 0 0-.419.414l-.003.625a.417.417 0 0 0 .415.419l3.75.02a.416.416 0 0 0 .418-.415l.004-.625a.417.417 0 0 0-.415-.419l-3.75-.02Zm.31.522a.208.208 0 1 0-.002.417l3.021.016a.208.208 0 1 0 .002-.417l-3.021-.016Zm-.862 1.184a.209.209 0 0 1 .292.04c.081.108.157.192.248.217.067.018.216.022.483-.235a.208.208 0 0 1 .321.039.497.497 0 0 0 .345.201c.157.022.363-.02.583-.233a.208.208 0 0 1 .323.04c.121.2.547.377.919-.026a.21.21 0 0 1 .33.031c.061.098.17.183.286.202.098.016.246-.008.418-.218a.208.208 0 1 1 .322.265c-.247.3-.534.41-.809.364a.82.82 0 0 1-.412-.204.98.98 0 0 1-1.254-.014c-.256.184-.522.24-.763.206a.958.958 0 0 1-.483-.213c-.257.197-.497.258-.719.197-.245-.068-.396-.269-.47-.367h-.001a.209.209 0 0 1 .041-.292Z" clip-rule="evenodd"/>
        </g>
        <circle cx="130.601" cy="43.599" r="6.6" stroke="#18469D" stroke-width=".4" class="Ellipse 917"/>
      </g>
      <g class="device">
        <circle cx="116.101" cy="31.599" r="7.524" fill="#fff" stroke="#1568E5" stroke-width=".152" class="Ellipse 915"/>
        <path fill="#1568E5" d="M118.102 33.047v.238h-4v-.238l.445-.476v-1.429c0-.738.451-1.388 1.111-1.598v-.069c0-.126.047-.247.13-.336a.429.429 0 0 1 .314-.14.43.43 0 0 1 .315.14c.083.089.13.21.13.336v.07c.66.209 1.111.859 1.111 1.597v1.429l.444.476Zm-1.555.476a.495.495 0 0 1-.13.337.432.432 0 0 1-.315.14.429.429 0 0 1-.314-.14.495.495 0 0 1-.13-.337" class="Vector"/>
        <circle cx="116.102" cy="31.6" r="6.6" stroke="#1568E5" stroke-width=".4" class="Ellipse 917"/>
      </g>
      <g class="device">
        <circle cx="130.601" cy="19.599" r="7.524" fill="#fff" stroke="#3E9AF8" stroke-width=".152" class="Ellipse 915"/>
        <circle cx="130.601" cy="19.599" r="6.6" stroke="#3E9AF8" stroke-width=".4" class="Ellipse 917"/>
        <g class="Vector">
          <path fill="#3E9AF8" d="M128.217 20.66a.205.205 0 0 1 .201-.208l.511-.007a.205.205 0 0 1 .207.204l.014 1.135a.206.206 0 0 1-.202.209l-.511.006a.206.206 0 0 1-.207-.204l-.013-1.134Z"/>
          <path fill="#3E9AF8" fill-rule="evenodd" d="m128.931 20.549-.511.006a.102.102 0 0 0-.101.104l.014 1.135c0 .057.047.103.103.102l.511-.006a.103.103 0 0 0 .101-.105l-.014-1.134a.103.103 0 0 0-.103-.102Zm-.513-.097a.205.205 0 0 0-.201.209l.013 1.134a.206.206 0 0 0 .207.204l.511-.006a.206.206 0 0 0 .202-.209l-.014-1.135a.205.205 0 0 0-.207-.204l-.511.007Z" clip-rule="evenodd"/>
          <path fill="#3E9AF8" d="M129.428 19.408a.205.205 0 0 1 .201-.21l.511-.006a.205.205 0 0 1 .207.204l.029 2.373a.205.205 0 0 1-.202.209l-.51.006a.205.205 0 0 1-.207-.204l-.029-2.372Z"/>
          <path fill="#3E9AF8" fill-rule="evenodd" d="m130.142 19.296-.511.006a.102.102 0 0 0-.101.104l.029 2.373a.103.103 0 0 0 .103.102l.511-.006a.102.102 0 0 0 .101-.105l-.029-2.372a.103.103 0 0 0-.103-.102Zm-.513-.097a.205.205 0 0 0-.201.209l.029 2.372a.205.205 0 0 0 .207.204l.51-.006a.205.205 0 0 0 .202-.209l-.029-2.373a.205.205 0 0 0-.207-.204l-.511.007Z" clip-rule="evenodd"/>
          <path fill="#3E9AF8" d="M130.661 20.012a.206.206 0 0 1 .202-.21l.511-.005a.205.205 0 0 1 .207.203l.021 1.754a.205.205 0 0 1-.201.209l-.511.006a.205.205 0 0 1-.207-.204l-.022-1.753Z"/>
          <path fill="#3E9AF8" fill-rule="evenodd" d="m131.375 19.9-.511.006a.102.102 0 0 0-.1.104l.021 1.754a.103.103 0 0 0 .103.102l.511-.006a.102.102 0 0 0 .101-.105l-.021-1.753a.103.103 0 0 0-.104-.102Zm-.512-.097a.206.206 0 0 0-.202.209l.022 1.753a.205.205 0 0 0 .207.204l.511-.006a.205.205 0 0 0 .201-.209L131.581 20a.205.205 0 0 0-.207-.203l-.511.006Z" clip-rule="evenodd"/>
          <path fill="#3E9AF8" d="M131.872 18.759a.206.206 0 0 1 .202-.21l.511-.005a.205.205 0 0 1 .207.203l.037 2.992a.206.206 0 0 1-.202.209l-.511.006a.205.205 0 0 1-.207-.204l-.037-2.991Z"/>
          <path fill="#3E9AF8" fill-rule="evenodd" d="m132.586 18.647-.511.006a.102.102 0 0 0-.1.104l.036 2.992a.103.103 0 0 0 .104.102l.51-.006a.102.102 0 0 0 .101-.105l-.036-2.991a.103.103 0 0 0-.104-.102Zm-.512-.097a.206.206 0 0 0-.202.209l.037 2.991a.205.205 0 0 0 .207.204l.511-.006a.206.206 0 0 0 .202-.209l-.037-2.992a.205.205 0 0 0-.207-.203l-.511.006Z" clip-rule="evenodd"/>
          <path fill="#3E9AF8" d="M129.12 19.36a.461.461 0 0 1-.454.47.462.462 0 0 1-.465-.459.462.462 0 0 1 .454-.47.462.462 0 0 1 .465.459Z"/>
          <path fill="#3E9AF8" fill-rule="evenodd" d="M128.665 19.727a.359.359 0 0 0 .353-.366.359.359 0 0 0-.362-.357.36.36 0 0 0-.353.366.36.36 0 0 0 .362.357Zm.001.103a.461.461 0 0 0 .454-.47.462.462 0 0 0-.465-.459.462.462 0 0 0-.454.47.462.462 0 0 0 .465.459Z" clip-rule="evenodd"/>
          <path fill="#3E9AF8" d="M130.331 18.107a.461.461 0 0 1-.454.47.462.462 0 0 1-.465-.459.462.462 0 0 1 .454-.47.462.462 0 0 1 .465.459Z"/>
          <path fill="#3E9AF8" fill-rule="evenodd" d="M129.876 18.474a.358.358 0 0 0 .353-.366.359.359 0 0 0-.362-.357.36.36 0 0 0-.353.366.36.36 0 0 0 .362.357Zm.001.103a.461.461 0 0 0 .454-.47.462.462 0 0 0-.465-.459.462.462 0 0 0-.454.47.462.462 0 0 0 .465.459Z" clip-rule="evenodd"/>
          <path fill="#3E9AF8" d="M131.565 18.71a.462.462 0 0 1-.454.47.462.462 0 0 1-.465-.458.461.461 0 0 1 .454-.47.462.462 0 0 1 .465.459Z"/>
          <path fill="#3E9AF8" fill-rule="evenodd" d="M131.11 19.078a.36.36 0 0 0 .353-.366.36.36 0 0 0-.362-.357.358.358 0 0 0-.353.366c.002.2.164.359.362.357Zm.001.103a.462.462 0 0 0 .454-.47.462.462 0 0 0-.465-.459.461.461 0 0 0-.454.47.462.462 0 0 0 .465.459Z" clip-rule="evenodd"/>
          <path fill="#3E9AF8" d="M132.776 17.458a.462.462 0 0 1-.454.47.462.462 0 0 1-.465-.459.461.461 0 0 1 .454-.47.462.462 0 0 1 .465.459Z"/>
          <path fill="#3E9AF8" fill-rule="evenodd" d="M132.321 17.825a.36.36 0 0 0 .353-.366.36.36 0 0 0-.362-.357.358.358 0 0 0-.353.366c.002.2.164.359.362.357Zm.001.103a.462.462 0 0 0 .454-.47.462.462 0 0 0-.465-.459.461.461 0 0 0-.454.47.462.462 0 0 0 .465.459Z" clip-rule="evenodd"/>
          <path fill="#3E9AF8" fill-rule="evenodd" d="M132.46 17.367c.081.08.082.21.003.292l-1.211 1.253a.202.202 0 0 1-.238.04l-1.146-.584-1.055 1.187a.202.202 0 0 1-.288.015.208.208 0 0 1-.016-.29l1.159-1.305a.204.204 0 0 1 .245-.046l1.151.587 1.107-1.145a.203.203 0 0 1 .289-.004Z" clip-rule="evenodd"/>
        </g>
      </g>
      <g class="device">
        <circle cx="116.101" cy="7.599" r="7.524" fill="#fff" stroke="#3E9AF8" stroke-width=".152" class="Ellipse 915"/>
        <path fill="#3E9AF8" d="m114.223 9.405 3.763-.02c.384-.002.622-.436.428-.78l-1.899-3.362a.491.491 0 0 0-.865.004l-1.863 3.382c-.191.346.051.778.436.776Zm1.872-1.825a.254.254 0 0 1-.251-.257l-.003-.519a.255.255 0 0 1 .248-.26.255.255 0 0 1 .252.258l.002.518a.255.255 0 0 1-.248.26Zm.255 1.036-.5.002-.002-.518.499-.003.003.519Z" class="Vector"/>
        <circle cx="116.102" cy="7.6" r="6.6" stroke="#3E9AF8" stroke-width=".4" class="Ellipse 917"/>
      </g>
    </g>
  </g>
  <defs>
    <linearGradient id="b" x1="-179594" x2="-179594" y1="36.493" y2="41.593" class="b" gradientUnits="userSpaceOnUse">
      <stop stop-color="#3E9AF8"/>
      <stop offset="1" stop-color="#51627B"/>
    </linearGradient>
    <clipPath id="a" class="a">
      <path fill="#fff" d="M0 0h141.2v70.8H0z"/>
    </clipPath>
  </defs>
</svg>
