<svg width="337" height="291" fill="none" xmlns="http://www.w3.org/2000/svg"><rect x="83.75" y=".75" width="158.5" height="158.5" rx="39.25" fill="#F4F8FE" stroke="#3E9AF8" stroke-width="1.5"/><path d="m158.2 78.65-6.3-3.6v7.2l6.3-3.6Z" fill="#666"/><path d="M151.841 25.825v.378c0 .448-.056.85-.168 1.206a2.58 2.58 0 0 1-.484.906 2.09 2.09 0 0 1-.759.57c-.292.131-.62.197-.984.197-.353 0-.677-.066-.972-.197a2.182 2.182 0 0 1-.763-.57 2.65 2.65 0 0 1-.496-.906 3.819 3.819 0 0 1-.176-1.206v-.378c0-.448.057-.849.172-1.201a2.65 2.65 0 0 1 .496-.907 2.12 2.12 0 0 1 .759-.574c.295-.131.619-.197.972-.197.364 0 .692.066.984.197.296.131.549.323.759.574.213.249.376.551.488.907.115.352.172.753.172 1.201Zm-.783.378v-.386c0-.355-.037-.67-.111-.943a1.945 1.945 0 0 0-.316-.69 1.359 1.359 0 0 0-.512-.422 1.559 1.559 0 0 0-.681-.143 1.53 1.53 0 0 0-.669.143 1.41 1.41 0 0 0-.508.423c-.14.186-.248.415-.324.689a3.491 3.491 0 0 0-.115.943v.386c0 .358.038.675.115.951.076.274.186.505.328.694.145.185.316.326.513.422.199.096.422.143.668.143.257 0 .485-.047.685-.143.2-.096.368-.237.505-.422.139-.19.244-.42.315-.694.071-.276.107-.593.107-.951Zm4.753 1.772v-3.413h.763V29h-.726l-.037-1.025Zm.144-.936.316-.008c0 .296-.032.569-.095.82-.06.25-.158.465-.295.649a1.402 1.402 0 0 1-.537.43 1.94 1.94 0 0 1-.808.152c-.216 0-.415-.031-.595-.094a1.182 1.182 0 0 1-.459-.291 1.32 1.32 0 0 1-.3-.513 2.485 2.485 0 0 1-.102-.759v-2.863h.758v2.871c0 .2.022.365.066.497a.813.813 0 0 0 .185.307.678.678 0 0 0 .262.156c.098.03.2.045.304.045.322 0 .578-.061.767-.184.188-.126.324-.294.406-.505.084-.213.127-.45.127-.71Zm3.818-2.477v.582h-2.4v-.582h2.4Zm-1.588-1.079h.759v4.418c0 .15.023.264.07.34a.334.334 0 0 0 .18.152.753.753 0 0 0 .238.037c.063 0 .129-.006.197-.017.071-.013.125-.024.16-.032l.004.619c-.06.02-.139.037-.238.053-.095.02-.212.029-.348.029-.186 0-.357-.037-.513-.11a.824.824 0 0 1-.373-.37c-.09-.175-.136-.41-.136-.705v-4.414Zm5.459 4.656V22.7h.763V29h-.697l-.066-.861Zm-2.986-1.309v-.086c0-.339.041-.646.123-.923.085-.279.204-.518.357-.718a1.574 1.574 0 0 1 1.276-.623c.279 0 .522.05.73.148.21.095.388.236.533.422.148.183.264.405.349.665.084.26.143.553.176.881v.378a3.89 3.89 0 0 1-.176.878 2.07 2.07 0 0 1-.349.664 1.464 1.464 0 0 1-.533.423 1.773 1.773 0 0 1-.739.143c-.259 0-.497-.056-.713-.168a1.68 1.68 0 0 1-.554-.472 2.307 2.307 0 0 1-.357-.713 3.144 3.144 0 0 1-.123-.899Zm.763-.086v.086c0 .222.022.43.066.624.046.194.117.365.213.512.096.148.217.264.365.349.148.082.324.123.529.123.252 0 .458-.053.619-.16a1.19 1.19 0 0 0 .394-.422 2.43 2.43 0 0 0 .23-.57v-.989a2.198 2.198 0 0 0-.144-.435 1.322 1.322 0 0 0-.238-.377 1.02 1.02 0 0 0-.356-.267 1.158 1.158 0 0 0-.497-.098c-.208 0-.387.044-.537.131a1.045 1.045 0 0 0-.365.353c-.096.148-.167.32-.213.517a2.816 2.816 0 0 0-.066.623Zm4.15.086v-.094c0-.32.047-.617.14-.89.093-.276.227-.515.402-.718.175-.205.387-.363.635-.476.249-.114.528-.172.837-.172.312 0 .592.058.841.172.252.113.465.271.64.476.178.203.313.442.406.718.093.273.139.57.139.89v.094c0 .32-.046.617-.139.89a2.126 2.126 0 0 1-.406.718c-.175.202-.387.361-.636.476a1.997 1.997 0 0 1-.837.168c-.311 0-.592-.056-.84-.168a1.896 1.896 0 0 1-.64-.476 2.17 2.17 0 0 1-.402-.718 2.747 2.747 0 0 1-.14-.89Zm.759-.094v.094c0 .222.026.43.078.628.052.194.13.366.234.517.106.15.239.269.398.356.158.085.343.128.553.128.208 0 .39-.043.546-.128.158-.087.29-.206.394-.356.103-.15.181-.323.233-.517.055-.197.082-.406.082-.628v-.094c0-.219-.027-.425-.082-.62a1.588 1.588 0 0 0-.238-.52 1.126 1.126 0 0 0-.393-.361 1.105 1.105 0 0 0-.55-.131c-.208 0-.391.043-.549.13a1.174 1.174 0 0 0-.394.362c-.104.15-.182.324-.234.52-.052.195-.078.401-.078.62Zm4.216.094v-.094c0-.32.046-.617.139-.89.093-.276.227-.515.402-.718.175-.205.387-.363.636-.476.249-.114.528-.172.837-.172.311 0 .592.058.841.172.251.113.464.271.639.476.178.203.314.442.406.718.093.273.14.57.14.89v.094c0 .32-.047.617-.14.89a2.11 2.11 0 0 1-.406.718c-.175.202-.386.361-.635.476a1.997 1.997 0 0 1-.837.168c-.312 0-.592-.056-.841-.168a1.905 1.905 0 0 1-.64-.476 2.17 2.17 0 0 1-.402-.718 2.747 2.747 0 0 1-.139-.89Zm.759-.094v.094c0 .222.026.43.078.628.052.194.13.366.233.517.107.15.24.269.398.356.159.085.343.128.554.128.208 0 .39-.043.545-.128.159-.087.29-.206.394-.356a1.65 1.65 0 0 0 .234-.517c.055-.197.082-.406.082-.628v-.094c0-.219-.027-.425-.082-.62a1.588 1.588 0 0 0-.238-.52 1.101 1.101 0 0 0-.943-.492c-.208 0-.391.043-.55.13a1.183 1.183 0 0 0-.394.362c-.103.15-.181.324-.233.52-.052.195-.078.401-.078.62Zm5.175-1.477V29h-.758v-4.438h.738l.02.697Zm1.387-.721-.004.705a1.921 1.921 0 0 0-.37-.033c-.175 0-.329.027-.463.082a.962.962 0 0 0-.341.23 1.126 1.126 0 0 0-.221.353 1.717 1.717 0 0 0-.103.443l-.213.123c0-.268.026-.52.078-.755.055-.235.138-.443.25-.623.112-.184.255-.326.427-.427a1.199 1.199 0 0 1 .96-.098Z" fill="#000" fill-opacity=".87"/><path fill="#C8DFF7" d="M159.4 34.4h6.298v95.853H159.4z"/><path stroke="#000" stroke-opacity=".87" stroke-width=".15" d="M159.475 34.475h6.148v95.703h-6.148z"/><path fill="#EBEBEB" d="M159.4 105.408h6.298V130.4H159.4z"/><path stroke="#000" stroke-opacity=".87" stroke-width=".15" d="M159.475 105.483h6.148v24.842h-6.148z"/><path fill="#EBEBEB" d="M159.402 34.4h6.298v24.992h-6.298z"/><path stroke="#000" stroke-opacity=".87" stroke-width=".15" d="M159.477 34.475h6.148v24.842h-6.148z"/><path fill="#666" d="M159.4 117.022h6.298v13.231H159.4z"/><path stroke="#000" stroke-opacity=".87" stroke-width=".15" d="M159.475 117.097h6.148v13.081h-6.148z"/><path fill="#666" d="M159.4 34.4h6.298v13.231H159.4z"/><path stroke="#000" stroke-opacity=".87" stroke-width=".15" d="M159.475 34.475h6.148v13.081h-6.148z"/><path fill="#DEDEDE" d="m159.992 65.415 2.545-2.494 2.545 2.494-2.545 2.495z"/><path transform="scale(1.00991 .98999) rotate(-45 159.186 -158.19)" stroke="#000" stroke-opacity=".87" stroke-width=".3" d="M.214 0h3.264v3.264H.214z"/><path d="M159.434 136.235c0-.139.034-.266.103-.381a.779.779 0 0 1 .272-.275.688.688 0 0 1 .372-.106.67.67 0 0 1 .369.106.757.757 0 0 1 .367.656.755.755 0 0 1-.367.653.7.7 0 0 1-.369.1.718.718 0 0 1-.372-.1.787.787 0 0 1-.272-.272.729.729 0 0 1-.103-.381Zm.363 0a.38.38 0 0 0 .384.378.35.35 0 0 0 .264-.109.366.366 0 0 0 .108-.269.382.382 0 0 0-.108-.276.348.348 0 0 0-.264-.111.377.377 0 0 0-.272.111.377.377 0 0 0-.112.276Zm4.752 2.209h.562a1.784 1.784 0 0 1-.231.723 1.355 1.355 0 0 1-.53.507c-.229.123-.514.185-.856.185-.25 0-.477-.047-.682-.141a1.504 1.504 0 0 1-.525-.398 1.876 1.876 0 0 1-.34-.624 2.67 2.67 0 0 1-.117-.815v-.424c0-.299.039-.57.117-.812.08-.244.195-.453.343-.627.15-.174.331-.308.542-.401a1.73 1.73 0 0 1 .712-.141c.322 0 .595.061.817.182.223.121.396.289.519.504.125.213.202.46.231.741h-.562a1.572 1.572 0 0 0-.152-.513.799.799 0 0 0-.317-.334c-.137-.078-.315-.117-.536-.117-.189 0-.356.036-.501.108a1.005 1.005 0 0 0-.36.308 1.43 1.43 0 0 0-.217.478 2.414 2.414 0 0 0-.073.618v.43c0 .209.021.406.064.589.045.184.112.345.202.484.09.138.204.248.343.328a.99.99 0 0 0 .492.117c.24 0 .432-.038.574-.114a.758.758 0 0 0 .323-.328c.074-.143.127-.314.158-.513Z" fill="#000" fill-opacity=".87"/><path d="M171.625 81.132v.668h-4.188v-.585l2.096-2.333c.258-.287.457-.53.597-.73.144-.202.244-.382.299-.54a1.42 1.42 0 0 0 .088-.492c0-.211-.044-.402-.132-.572a.988.988 0 0 0-.378-.413 1.136 1.136 0 0 0-.606-.154c-.284 0-.522.056-.712.167-.188.109-.328.261-.422.458a1.549 1.549 0 0 0-.141.676h-.813c0-.36.08-.69.238-.989.158-.298.392-.536.703-.712.31-.178.693-.267 1.147-.267.404 0 .75.071 1.037.215.287.14.507.34.659.597.155.255.233.554.233.897 0 .187-.032.378-.097.571-.061.19-.148.381-.259.572-.108.19-.236.377-.382.562a8.924 8.924 0 0 1-.462.545l-1.713 1.859h3.208Zm4.174-5.74h.07v.69h-.07c-.431 0-.791.07-1.081.212a1.77 1.77 0 0 0-.69.558c-.17.231-.293.492-.369.782-.074.29-.11.584-.11.883v.94c0 .285.033.537.101.756.067.217.16.4.277.55.117.15.249.262.395.338.15.076.305.114.466.114.188 0 .355-.035.501-.105.146-.073.27-.174.369-.303.103-.132.18-.288.233-.466.053-.179.079-.375.079-.589 0-.19-.023-.374-.07-.55a1.48 1.48 0 0 0-.215-.474 1.042 1.042 0 0 0-.365-.33 1.021 1.021 0 0 0-.514-.123c-.226 0-.437.056-.633.167a1.433 1.433 0 0 0-.479.431 1.154 1.154 0 0 0-.211.576l-.431-.005c.041-.328.117-.608.229-.839.114-.234.255-.425.422-.571.169-.15.358-.258.566-.326a2.1 2.1 0 0 1 .668-.105c.32 0 .595.06.827.18.231.12.421.281.571.484.149.199.259.424.329.676.074.25.11.506.11.77 0 .301-.042.584-.127.848a2.003 2.003 0 0 1-.382.694c-.167.2-.374.354-.62.466a2.062 2.062 0 0 1-.857.167 1.86 1.86 0 0 1-.905-.211 1.94 1.94 0 0 1-.642-.572 2.604 2.604 0 0 1-.382-.79 3.126 3.126 0 0 1-.128-.884v-.382c0-.451.046-.894.137-1.327a3.51 3.51 0 0 1 .47-1.178c.225-.352.537-.631.936-.84.398-.207.907-.311 1.525-.311Z" fill="#002878"/><rect x="177.75" y="100.702" width="158.5" height="158.5" rx="39.25" fill="#F4F8FE" stroke="#3E9AF8" stroke-width="1.5"/><rect x="197" y="150" width="120" height="60" rx="2.4" fill="#DEDEDE"/><rect x="197.3" y="150.3" width="119.4" height="59.4" rx="2.1" stroke="#000" stroke-opacity=".87" stroke-width=".6"/><path d="M239.03 160.056h3.954c.897 0 1.655.137 2.273.41.623.274 1.096.679 1.419 1.214.328.531.492 1.184.492 1.961 0 .547-.112 1.047-.336 1.501a3.198 3.198 0 0 1-.952 1.149c-.41.311-.902.544-1.477.697l-.443.172h-3.716l-.016-1.288h2.805c.569 0 1.042-.098 1.42-.295a2.08 2.08 0 0 0 .853-.812c.191-.339.287-.714.287-1.124 0-.459-.09-.861-.271-1.206a1.81 1.81 0 0 0-.853-.796c-.383-.191-.878-.287-1.485-.287h-2.37V172h-1.584v-11.944ZM246.011 172l-2.904-5.414 1.649-.008 2.945 5.324V172h-1.69Zm3.108-4.339v-.189c0-.64.093-1.233.279-1.78a4.23 4.23 0 0 1 .804-1.436c.35-.41.774-.727 1.271-.951a3.946 3.946 0 0 1 1.674-.345c.623 0 1.184.115 1.681.345.504.224.93.541 1.28.951.356.405.626.883.812 1.436.186.547.279 1.14.279 1.78v.189c0 .639-.093 1.233-.279 1.78a4.255 4.255 0 0 1-.812 1.435c-.35.405-.774.722-1.271.952-.493.224-1.05.336-1.674.336-.623 0-1.184-.112-1.681-.336a3.8 3.8 0 0 1-1.28-.952 4.342 4.342 0 0 1-.804-1.435 5.499 5.499 0 0 1-.279-1.78Zm1.518-.189v.189c0 .443.052.861.156 1.255.103.388.259.732.467 1.033.213.301.479.539.796.714.317.169.686.254 1.107.254.416 0 .78-.085 1.091-.254.317-.175.58-.413.788-.714.208-.301.363-.645.467-1.033.11-.394.164-.812.164-1.255v-.189c0-.438-.054-.851-.164-1.239a3.197 3.197 0 0 0-.475-1.042 2.266 2.266 0 0 0-.788-.721c-.312-.175-.678-.263-1.099-.263-.416 0-.782.088-1.099.263a2.356 2.356 0 0 0-.788.721 3.27 3.27 0 0 0-.467 1.042 4.768 4.768 0 0 0-.156 1.239Zm12.549-4.348v1.165h-4.798v-1.165h4.798Zm-3.174-2.157h1.517v8.835c0 .3.047.527.14.68a.662.662 0 0 0 .361.304c.147.049.306.074.475.074.126 0 .258-.011.394-.033.142-.027.249-.049.32-.066l.008 1.239a3.62 3.62 0 0 1-.475.107 3.652 3.652 0 0 1-.698.057c-.372 0-.713-.074-1.025-.221-.312-.148-.561-.394-.747-.739-.18-.35-.27-.82-.27-1.411v-8.826Zm4.756 6.694v-.189c0-.64.093-1.233.279-1.78a4.23 4.23 0 0 1 .804-1.436c.35-.41.774-.727 1.272-.951a3.938 3.938 0 0 1 1.673-.345c.624 0 1.184.115 1.682.345.503.224.93.541 1.28.951.355.405.626.883.812 1.436.186.547.279 1.14.279 1.78v.189c0 .639-.093 1.233-.279 1.78a4.272 4.272 0 0 1-.812 1.435 3.72 3.72 0 0 1-1.272.952c-.492.224-1.05.336-1.673.336-.624 0-1.184-.112-1.682-.336a3.81 3.81 0 0 1-1.28-.952 4.342 4.342 0 0 1-.804-1.435 5.499 5.499 0 0 1-.279-1.78Zm1.518-.189v.189c0 .443.052.861.156 1.255.104.388.26.732.467 1.033.214.301.479.539.796.714.317.169.687.254 1.108.254.415 0 .779-.085 1.091-.254.317-.175.579-.413.787-.714.208-.301.364-.645.468-1.033.109-.394.164-.812.164-1.255v-.189c0-.438-.055-.851-.164-1.239a3.199 3.199 0 0 0-.476-1.042 2.257 2.257 0 0 0-.788-.721c-.311-.175-.678-.263-1.099-.263-.415 0-.782.088-1.099.263a2.366 2.366 0 0 0-.788.721 3.314 3.314 0 0 0-.467 1.042 4.768 4.768 0 0 0-.156 1.239Zm10.351-2.953V172h-1.517v-8.876h1.476l.041 1.395Zm2.773-1.444-.008 1.411a2.18 2.18 0 0 0-.361-.049 3.813 3.813 0 0 0-.378-.017c-.35 0-.659.055-.927.164-.267.11-.494.263-.68.46a2.207 2.207 0 0 0-.443.705 3.352 3.352 0 0 0-.205.886l-.427.246c0-.536.052-1.039.156-1.509.109-.47.276-.886.5-1.247.224-.366.509-.651.853-.853.35-.208.766-.312 1.247-.312.11 0 .235.014.378.041.142.022.24.047.295.074Z" fill="#000" fill-opacity=".87"/><g filter="url(#a)"><rect x="206.6" y="180" width="46.8" height="21.6" rx="2.944" fill="#999"/><path d="M230.103 189.957v.4c0 .551-.072 1.044-.215 1.481a3.205 3.205 0 0 1-.616 1.116c-.263.307-.58.542-.951.706-.37.16-.78.24-1.23.24-.447 0-.856-.08-1.226-.24a2.76 2.76 0 0 1-.956-.706 3.281 3.281 0 0 1-.631-1.116 4.657 4.657 0 0 1-.22-1.481v-.4c0-.551.074-1.043.22-1.476.147-.437.354-.809.621-1.116.27-.31.589-.546.956-.706a3.01 3.01 0 0 1 1.226-.245c.45 0 .86.082 1.23.245.371.16.689.396.956.706.267.307.472.679.616 1.116.146.433.22.925.22 1.476Zm-1.256.4v-.41c0-.407-.04-.766-.12-1.076a2.219 2.219 0 0 0-.345-.786 1.458 1.458 0 0 0-.556-.48 1.645 1.645 0 0 0-.745-.165c-.277 0-.524.055-.741.165a1.493 1.493 0 0 0-.555.48c-.151.21-.266.472-.346.786-.08.31-.12.669-.12 1.076v.41c0 .407.04.767.12 1.081.08.314.197.579.351.796.156.213.343.375.56.485.217.107.464.16.741.16.28 0 .528-.053.745-.16.217-.11.4-.272.551-.485.15-.217.263-.482.34-.796.08-.314.12-.674.12-1.081Zm3.712-.816v4.259h-1.206v-5.414h1.136l.07 1.155Zm-.215 1.352-.39-.005a3.49 3.49 0 0 1 .16-1.056c.107-.321.253-.596.44-.826.19-.23.417-.407.681-.53a2 2 0 0 1 .88-.191c.261 0 .496.037.706.111.213.07.395.185.545.345.154.16.271.368.351.625.08.254.12.566.12.936v3.498h-1.211v-3.503c0-.26-.039-.465-.115-.615a.647.647 0 0 0-.326-.326c-.14-.066-.315-.1-.525-.1a1.172 1.172 0 0 0-.971.486c-.11.15-.195.323-.255.52s-.09.407-.09.631Z" fill="#000" fill-opacity=".87"/></g><g filter="url(#b)"><path d="M260.9 182.944a2.644 2.644 0 0 1 2.644-2.644h40.912a2.644 2.644 0 0 1 2.644 2.644v15.712a2.644 2.644 0 0 1-2.644 2.644h-40.912a2.644 2.644 0 0 1-2.644-2.644v-15.712Z" stroke="#000" stroke-opacity=".38" stroke-width=".6" shape-rendering="crispEdges"/><path d="M283.27 189.957v.4c0 .551-.072 1.044-.215 1.481a3.205 3.205 0 0 1-.616 1.116c-.263.307-.58.542-.95.706-.371.16-.781.24-1.231.24-.447 0-.856-.08-1.226-.24a2.76 2.76 0 0 1-.956-.706 3.298 3.298 0 0 1-.631-1.116 4.657 4.657 0 0 1-.22-1.481v-.4c0-.551.074-1.043.22-1.476.147-.437.354-.809.621-1.116.27-.31.589-.546.956-.706a3.01 3.01 0 0 1 1.226-.245c.45 0 .86.082 1.231.245.37.16.689.396.955.706.267.307.472.679.616 1.116.147.433.22.925.22 1.476Zm-1.256.4v-.41c0-.407-.04-.766-.12-1.076a2.219 2.219 0 0 0-.345-.786 1.45 1.45 0 0 0-.556-.48 1.642 1.642 0 0 0-.745-.165c-.277 0-.524.055-.741.165a1.493 1.493 0 0 0-.555.48c-.15.21-.266.472-.346.786-.08.31-.12.669-.12 1.076v.41c0 .407.04.767.12 1.081.08.314.197.579.351.796.156.213.343.375.56.485.217.107.464.16.741.16.28 0 .528-.053.745-.16a1.5 1.5 0 0 0 .551-.485c.15-.217.263-.482.34-.796.08-.314.12-.674.12-1.081Zm4.148 3.443h-1.206v-5.935c0-.403.075-.742.225-1.016.153-.277.372-.485.655-.625.284-.144.619-.215 1.006-.215.12 0 .239.008.356.025.116.013.23.035.34.065l-.03.931a1.384 1.384 0 0 0-.22-.036 3.226 3.226 0 0 0-.251-.01.997.997 0 0 0-.475.106.69.69 0 0 0-.3.295c-.067.13-.1.29-.1.48v5.935Zm1.116-5.414v.88h-3.153v-.88h3.153Zm2.631 5.414h-1.206v-5.935c0-.403.075-.742.225-1.016.154-.277.372-.485.656-.625.283-.144.619-.215 1.006-.215.12 0 .238.008.355.025.117.013.23.035.34.065l-.03.931a1.384 1.384 0 0 0-.22-.036 3.2 3.2 0 0 0-.25-.01c-.184 0-.342.035-.476.106a.69.69 0 0 0-.3.295c-.067.13-.1.29-.1.48v5.935Zm1.116-5.414v.88h-3.153v-.88h3.153Z" fill="#000" fill-opacity=".76"/></g><rect x=".75" y="131.067" width="158.5" height="158.5" rx="39.25" fill="#F4F8FE" stroke="#3E9AF8" stroke-width="1.5"/><path d="M69.291 194.243v.377a4 4 0 0 1-.168 1.206 2.592 2.592 0 0 1-.484.907c-.21.248-.464.438-.759.57-.292.131-.62.197-.984.197a2.37 2.37 0 0 1-.972-.197 2.206 2.206 0 0 1-.763-.57 2.655 2.655 0 0 1-.496-.907 3.826 3.826 0 0 1-.177-1.206v-.377c0-.449.058-.849.172-1.202a2.65 2.65 0 0 1 .497-.906c.213-.252.466-.443.758-.575a2.37 2.37 0 0 1 .972-.196c.364 0 .692.065.985.196.295.132.548.323.759.575.213.248.376.551.488.906.115.353.172.753.172 1.202Zm-.783.377v-.385c0-.356-.037-.67-.111-.944a1.96 1.96 0 0 0-.316-.689 1.355 1.355 0 0 0-.513-.422 1.552 1.552 0 0 0-.68-.144c-.247 0-.47.048-.67.144a1.406 1.406 0 0 0-.508.422 2.07 2.07 0 0 0-.324.689 3.516 3.516 0 0 0-.114.944v.385c0 .358.038.676.114.952.077.273.186.504.329.693.144.186.315.327.512.422.2.096.423.144.669.144.257 0 .485-.048.685-.144.2-.095.367-.236.504-.422.14-.189.245-.42.316-.693.071-.276.107-.594.107-.952Zm4.753 1.772v-3.412h.763v4.437h-.726l-.037-1.025Zm.143-.935.316-.008c0 .295-.031.568-.094.82-.06.249-.159.465-.296.648a1.4 1.4 0 0 1-.537.431 1.94 1.94 0 0 1-.808.152c-.216 0-.414-.032-.594-.095a1.192 1.192 0 0 1-.46-.291 1.322 1.322 0 0 1-.3-.513 2.467 2.467 0 0 1-.102-.759v-2.862h.759v2.871c0 .199.022.365.066.496a.833.833 0 0 0 .184.308c.08.073.167.125.263.155.098.031.2.046.303.046.323 0 .579-.062.767-.185.189-.126.324-.294.406-.504.085-.214.127-.45.127-.71Zm3.818-2.477v.582h-2.4v-.582h2.4Zm-1.587-1.079h.759v4.417a.67.67 0 0 0 .07.341.332.332 0 0 0 .18.151.737.737 0 0 0 .238.037c.063 0 .128-.005.197-.016a6.55 6.55 0 0 0 .16-.033l.004.619c-.06.02-.14.037-.238.054a1.82 1.82 0 0 1-.349.029 1.18 1.18 0 0 1-.512-.111.827.827 0 0 1-.374-.369c-.09-.175-.135-.411-.135-.706v-4.413Zm5.459 4.655v-5.439h.763v6.3h-.698l-.065-.861Zm-2.986-1.308v-.086c0-.339.04-.647.123-.923.085-.279.204-.518.357-.718a1.567 1.567 0 0 1 1.276-.623c.278 0 .521.049.73.147.21.096.388.237.532.423.148.183.264.404.35.664.084.26.143.554.175.882v.377c-.03.326-.088.618-.176.878-.085.26-.2.481-.349.664a1.449 1.449 0 0 1-.533.423c-.21.096-.456.144-.738.144-.26 0-.498-.057-.714-.169a1.685 1.685 0 0 1-.553-.471 2.312 2.312 0 0 1-.357-.714 3.14 3.14 0 0 1-.123-.898Zm.763-.086v.086c0 .221.022.429.065.623.047.194.118.365.213.513.096.148.218.264.366.349.147.082.324.123.529.123.251 0 .458-.054.619-.16.164-.107.295-.248.394-.423.098-.175.175-.365.23-.57v-.988a2.168 2.168 0 0 0-.144-.435 1.356 1.356 0 0 0-.238-.378 1.021 1.021 0 0 0-.357-.266 1.15 1.15 0 0 0-.496-.099c-.208 0-.387.044-.537.132-.148.084-.27.202-.365.352-.096.148-.167.32-.214.517a2.835 2.835 0 0 0-.065.624Zm4.15.086v-.095c0-.32.046-.616.14-.89a2.11 2.11 0 0 1 .401-.717c.175-.205.387-.364.636-.476a1.97 1.97 0 0 1 .837-.172c.311 0 .592.057.84.172.252.112.465.271.64.476.178.202.314.441.406.717.093.274.14.57.14.89v.095c0 .32-.047.616-.14.89a2.143 2.143 0 0 1-.406.718 1.851 1.851 0 0 1-.635.475 1.999 1.999 0 0 1-.837.169c-.312 0-.592-.057-.84-.169a1.895 1.895 0 0 1-.64-.475 2.183 2.183 0 0 1-.403-.718 2.75 2.75 0 0 1-.14-.89Zm.759-.095v.095c0 .221.026.43.078.627.051.194.13.367.233.517.107.15.24.269.398.357.159.085.343.127.554.127.208 0 .39-.042.545-.127.159-.088.29-.207.394-.357.104-.15.182-.323.234-.517.055-.197.082-.406.082-.627v-.095c0-.218-.027-.425-.082-.619a1.602 1.602 0 0 0-.238-.521 1.137 1.137 0 0 0-.394-.361 1.11 1.11 0 0 0-.55-.131c-.207 0-.39.044-.549.131a1.187 1.187 0 0 0-.394.361 1.651 1.651 0 0 0-.233.521 2.386 2.386 0 0 0-.078.619Zm4.216.095v-.095c0-.32.046-.616.139-.89a2.11 2.11 0 0 1 .402-.717c.175-.205.387-.364.636-.476.248-.115.527-.172.836-.172.312 0 .592.057.841.172.252.112.465.271.64.476.178.202.313.441.406.717.093.274.14.57.14.89v.095c0 .32-.047.616-.14.89a2.143 2.143 0 0 1-.406.718 1.852 1.852 0 0 1-.636.475 1.999 1.999 0 0 1-.836.169c-.312 0-.592-.057-.841-.169a1.894 1.894 0 0 1-.64-.475 2.183 2.183 0 0 1-.402-.718 2.752 2.752 0 0 1-.14-.89Zm.758-.095v.095c0 .221.026.43.078.627.052.194.13.367.234.517.107.15.24.269.398.357.158.085.343.127.554.127.207 0 .39-.042.545-.127.159-.088.29-.207.394-.357.104-.15.182-.323.234-.517.054-.197.082-.406.082-.627v-.095c0-.218-.028-.425-.082-.619a1.6 1.6 0 0 0-.238-.521 1.136 1.136 0 0 0-.394-.361 1.11 1.11 0 0 0-.55-.131c-.207 0-.39.044-.55.131a1.187 1.187 0 0 0-.393.361 1.654 1.654 0 0 0-.234.521 2.39 2.39 0 0 0-.078.619Zm5.176-1.476v3.74h-.759v-4.437h.738l.02.697Zm1.386-.722-.004.705a1.202 1.202 0 0 0-.18-.024 1.772 1.772 0 0 0-.189-.008c-.175 0-.33.027-.463.082a.955.955 0 0 0-.34.229 1.11 1.11 0 0 0-.222.353 1.697 1.697 0 0 0-.103.443l-.213.123c0-.268.026-.519.078-.755.054-.235.138-.443.25-.623.112-.183.254-.325.426-.427a1.207 1.207 0 0 1 .813-.135c.07.011.12.023.147.037Z" fill="#000" fill-opacity=".87"/><path d="m75.35 207.318 3.6-6.3h-7.2l3.6 6.3Z" fill="#666"/><path fill="#C8DFF7" d="M128 207.917v6.3H32v-6.3z"/><path stroke="#000" stroke-opacity=".87" stroke-width=".15" d="M127.925 207.992v6.15h-95.85v-6.15z"/><path fill="#C8DFF7" d="M32.132 214.217v-6.3H128v6.3z"/><path stroke="#000" stroke-opacity=".87" stroke-width=".15" d="M32.207 214.142v-6.15h95.717v6.15z"/><path fill="#EBEBEB" d="M32 214.218v-6.3h22.51v6.3z"/><path stroke="#000" stroke-opacity=".87" stroke-width=".15" d="M32.075 214.143v-6.15h22.36v6.15z"/><path fill="#666" d="M32 214.217v-6.3h11.917v6.3z"/><path stroke="#000" stroke-opacity=".87" stroke-width=".15" d="M32.075 214.142v-6.15h11.767v6.15z"/><path fill="#DEDEDE" d="m100.064 208.518 2.247 2.546-2.247 2.546-2.247-2.546z"/><path transform="scale(.93592 1.06022) rotate(45 -183.933 227.614)" stroke="#000" stroke-opacity=".87" stroke-width=".3" d="M0 .225h3.096v3.096H0z"/><path fill="#EBEBEB" d="M105.49 214.217v-6.3H128v6.3z"/><path stroke="#000" stroke-opacity=".87" stroke-width=".15" d="M105.565 214.142v-6.15h22.36v6.15z"/><path fill="#666" d="M116.083 214.218v-6.3H128v6.3z"/><path stroke="#000" stroke-opacity=".87" stroke-width=".15" d="M116.158 214.143v-6.15h11.767v6.15z"/><path d="M74.674 223.15v.668h-4.188v-.585l2.096-2.333a8.24 8.24 0 0 0 .598-.73c.143-.202.243-.382.299-.54.058-.161.088-.325.088-.492 0-.211-.044-.402-.132-.572a.995.995 0 0 0-.378-.413 1.142 1.142 0 0 0-.607-.153c-.284 0-.521.055-.712.167-.187.108-.328.26-.421.457-.094.196-.141.421-.141.676h-.813c0-.36.08-.69.237-.988.159-.299.393-.537.704-.712.31-.179.692-.268 1.146-.268.405 0 .75.071 1.037.215.288.141.507.34.66.598.155.254.233.553.233.896 0 .188-.033.378-.097.571a2.911 2.911 0 0 1-.26.572c-.108.19-.235.378-.382.562a8.711 8.711 0 0 1-.461.545l-1.714 1.859h3.208Zm4.174-5.739h.07v.69h-.07c-.43 0-.79.07-1.08.211-.29.137-.52.323-.69.558-.17.231-.294.492-.37.782-.073.29-.11.584-.11.883v.941c0 .284.034.536.101.755.068.217.16.4.277.55.117.149.25.262.396.338.15.076.305.114.466.114.187 0 .354-.035.5-.105.147-.073.27-.174.37-.303.102-.132.18-.287.233-.466.052-.179.079-.375.079-.589 0-.19-.024-.374-.07-.549a1.469 1.469 0 0 0-.216-.475 1.028 1.028 0 0 0-.879-.453c-.225 0-.436.056-.633.167a1.444 1.444 0 0 0-.479.431 1.161 1.161 0 0 0-.21.576l-.431-.005c.04-.328.117-.608.228-.839.115-.234.255-.425.422-.571.17-.15.359-.258.567-.325a2.08 2.08 0 0 1 .668-.106c.32 0 .595.06.826.18.232.12.422.282.572.484.149.199.259.424.329.676.073.249.11.506.11.769 0 .302-.043.585-.127.849a2.006 2.006 0 0 1-.383.694 1.732 1.732 0 0 1-.62.466 2.066 2.066 0 0 1-.856.167c-.346 0-.648-.071-.906-.211a1.946 1.946 0 0 1-.641-.571 2.613 2.613 0 0 1-.383-.791 3.134 3.134 0 0 1-.127-.884v-.382c0-.451.045-.894.136-1.327.091-.434.248-.826.47-1.178.226-.352.538-.631.936-.839.399-.208.907-.312 1.525-.312Z" fill="#002878"/><path d="M76.884 230.853c0-.139.034-.266.102-.381a.784.784 0 0 1 .273-.276.694.694 0 0 1 .372-.105.68.68 0 0 1 .369.105.768.768 0 0 1 0 1.31.71.71 0 0 1-.37.099.726.726 0 0 1-.371-.099.784.784 0 0 1-.273-.273.731.731 0 0 1-.102-.38Zm.363 0a.36.36 0 0 0 .111.269.383.383 0 0 0 .273.108.353.353 0 0 0 .263-.108.365.365 0 0 0 .109-.269.38.38 0 0 0-.109-.276.349.349 0 0 0-.263-.111.378.378 0 0 0-.384.387ZM82 233.062h.562c-.03.269-.107.51-.232.723a1.353 1.353 0 0 1-.53.507c-.228.123-.513.185-.855.185a1.528 1.528 0 0 1-1.207-.539 1.863 1.863 0 0 1-.34-.625 2.66 2.66 0 0 1-.117-.814v-.425c0-.299.039-.569.117-.811.08-.244.194-.453.343-.627.15-.174.33-.308.542-.402.21-.093.448-.14.712-.14.322 0 .594.06.817.181a1.3 1.3 0 0 1 .518.504c.126.213.203.46.232.742h-.563a1.561 1.561 0 0 0-.152-.513.789.789 0 0 0-.316-.334c-.137-.078-.316-.117-.536-.117-.19 0-.357.036-.501.108a1.005 1.005 0 0 0-.36.308 1.426 1.426 0 0 0-.218.477 2.43 2.43 0 0 0-.073.618v.431c0 .209.022.405.065.589.045.183.112.345.202.483.09.139.204.248.343.328a.978.978 0 0 0 .492.118c.24 0 .431-.038.574-.115a.744.744 0 0 0 .322-.328 1.66 1.66 0 0 0 .159-.512Z" fill="#000" fill-opacity=".87"/><defs><filter id="a" x="194.823" y="174.111" width="70.354" height="45.154" filterUnits="userSpaceOnUse" color-interpolation-filters="sRGB"><feFlood flood-opacity="0" result="BackgroundImageFix"/><feColorMatrix in="SourceAlpha" values="0 0 0 0 0 0 0 0 0 0 0 0 0 0 0 0 0 0 127 0" result="hardAlpha"/><feOffset dy="5.889"/><feGaussianBlur stdDeviation="5.889"/><feComposite in2="hardAlpha" operator="out"/><feColorMatrix values="0 0 0 0 0 0 0 0 0 0 0 0 0 0 0 0 0 0 0.04 0"/><feBlend in2="BackgroundImageFix" result="effect1_dropShadow_11657_83678"/><feBlend in="SourceGraphic" in2="effect1_dropShadow_11657_83678" result="shape"/></filter><filter id="b" x="248.823" y="174.111" width="70.354" height="45.154" filterUnits="userSpaceOnUse" color-interpolation-filters="sRGB"><feFlood flood-opacity="0" result="BackgroundImageFix"/><feColorMatrix in="SourceAlpha" values="0 0 0 0 0 0 0 0 0 0 0 0 0 0 0 0 0 0 127 0" result="hardAlpha"/><feOffset dy="5.889"/><feGaussianBlur stdDeviation="5.889"/><feComposite in2="hardAlpha" operator="out"/><feColorMatrix values="0 0 0 0 0 0 0 0 0 0 0 0 0 0 0 0 0 0 0.04 0"/><feBlend in2="BackgroundImageFix" result="effect1_dropShadow_11657_83678"/><feBlend in="SourceGraphic" in2="effect1_dropShadow_11657_83678" result="shape"/></filter></defs></svg>