<svg xmlns="http://www.w3.org/2000/svg" width="273" height="232" fill="none" viewBox="0 0 273 232">
  <g clip-path="url(#a)">
    <path fill="#3E9AF8" fill-rule="evenodd" d="M189.538 38.468V.885h-1.329v37.583h1.329Z" clip-rule="evenodd"/>
    <path fill="#3E9AF8" d="M189.538 38.084a97.424 97.424 0 0 0-97.426 97.426h1.327a96.107 96.107 0 0 1 28.147-67.952 96.096 96.096 0 0 1 67.952-28.147v-1.327Z"/>
    <path fill="#3E9AF8" fill-rule="evenodd" d="M93.44 135.067H20.814v1.328l72.626.001v-1.329Z" clip-rule="evenodd"/>
    <path fill="#F4F8FE" d="M10.628 146.138c5.87 0 10.629-4.759 10.629-10.628 0-5.87-4.759-10.629-10.629-10.629C4.758 124.881 0 129.64 0 135.51c0 5.869 4.758 10.628 10.628 10.628Z"/>
    <path fill="#3E9AF8" fill-rule="evenodd" d="M19.928 135.51a9.3 9.3 0 0 1-9.3 9.299 9.3 9.3 0 1 1 9.3-9.299Zm1.329 0c0 5.869-4.759 10.628-10.629 10.628C4.758 146.138 0 141.379 0 135.51c0-5.87 4.758-10.629 10.628-10.629s10.629 4.759 10.629 10.629Z" clip-rule="evenodd"/>
    <rect width="165.178" height="165.178" x=".664" y=".664" stroke="#3E9AF8" stroke-width="1.329" rx="82.589" transform="matrix(0 1 1 0 106.283 52.255)"/>
    <g clip-path="url(#b)">
      <path fill="#3E9AF8" fill-rule="evenodd" d="M198.192 144.256c0-1.053.854-1.906 1.906-1.906h10.245a1.906 1.906 0 0 1 0 3.812h-10.245a1.907 1.907 0 0 1-1.906-1.906Z" clip-rule="evenodd"/>
      <path fill="#3E9AF8" d="M227.099 144.891a12.38 12.38 0 0 0-3.628-8.76 12.4 12.4 0 0 0-8.76-3.629v3.83a8.557 8.557 0 0 1 8.559 8.559h3.829Z"/>
      <path fill="#3E9AF8" fill-rule="evenodd" d="M216.934 134.408a1.906 1.906 0 0 0-1.906-1.906h-14.374a1.906 1.906 0 0 0 0 3.812h14.374a1.906 1.906 0 0 0 1.906-1.906Zm8.259 7.783a1.906 1.906 0 0 0-1.906 1.906v28.113c0 1.053.854 1.906 1.906 1.906h3.177a1.906 1.906 0 1 0 0-3.812h-1.271v-26.207a1.906 1.906 0 0 0-1.906-1.906Zm-10.165 4.844a1.907 1.907 0 0 0-1.906 1.906v23.269a1.906 1.906 0 0 0 3.812 0v-23.269a1.906 1.906 0 0 0-1.906-1.906Z" clip-rule="evenodd"/>
      <path fill="#3E9AF8" fill-rule="evenodd" d="M213.155 149.259c0-.405-.079-.807-.233-1.181l-.012-.029a3.068 3.068 0 0 0-.649-.972l-.031-.031a3.07 3.07 0 0 0-.958-.638 3.022 3.022 0 0 0-1.167-.235v-3.823a6.745 6.745 0 0 1 3.811 1.176 6.861 6.861 0 0 1 2.498 3.089l.012.028c.336.831.508 1.719.508 2.616h-3.779Zm-5.909-20.251c1.052 0 1.906.853 1.906 1.906v17.312a1.906 1.906 0 0 1-3.812 0v-17.312c0-1.053.853-1.906 1.906-1.906Zm-40.343 15.248c0-1.053.853-1.906 1.906-1.906h9.926a1.906 1.906 0 1 1 0 3.812h-9.926a1.906 1.906 0 0 1-1.906-1.906Zm-4.765-9.848c0-1.052.853-1.906 1.906-1.906h14.374a1.906 1.906 0 0 1 0 3.812h-14.374a1.906 1.906 0 0 1-1.906-1.906Zm-8.259 7.783c1.052 0 1.906.853 1.906 1.906v26.207h6.353v-21.363a1.906 1.906 0 0 1 3.812 0v21.363h62.42a1.906 1.906 0 1 1 0 3.812h-77.668a1.906 1.906 0 1 1 0-3.812h1.271v-26.207c0-1.053.853-1.906 1.906-1.906Z" clip-rule="evenodd"/>
      <path fill="#3E9AF8" d="M151.973 144.891a12.38 12.38 0 0 1 3.628-8.76 12.41 12.41 0 0 1 4.019-2.686 12.407 12.407 0 0 1 4.741-.943v3.83a8.557 8.557 0 0 0-8.559 8.559h-3.829Z"/>
      <path fill="#3E9AF8" fill-rule="evenodd" d="M165.918 149.259c0-.405.078-.807.232-1.181l.012-.029c.152-.363.373-.693.649-.972l.031-.031a3.07 3.07 0 0 1 .958-.638c.37-.155.767-.235 1.167-.235v-3.823a6.745 6.745 0 0 0-3.811 1.176 6.861 6.861 0 0 0-2.498 3.089l-.012.028a6.977 6.977 0 0 0-.508 2.616h3.78Zm6.703-51.699c0-1.053.853-1.906 1.906-1.906h30.495a1.906 1.906 0 1 1 0 3.812h-30.495a1.906 1.906 0 0 1-1.906-1.906Z" clip-rule="evenodd"/>
      <path fill="#3E9AF8" fill-rule="evenodd" d="M186.598 96.607c1.052 0 1.906.853 1.906 1.906v19.298h11.118c1.052 0 1.906.853 1.906 1.906v27.239a1.906 1.906 0 0 1-1.906 1.906h-20.331a1.906 1.906 0 0 1-1.906-1.906v-27.239c0-1.053.854-1.906 1.906-1.906h5.401V98.513c0-1.053.853-1.906 1.906-1.906Zm6.353 0c1.053 0 1.906.853 1.906 1.906v9.371a1.906 1.906 0 1 1-3.812 0v-9.371c0-1.053.853-1.906 1.906-1.906Zm-11.754 25.016v23.427h16.519v-23.427h-16.519Z" clip-rule="evenodd"/>
      <path fill="#3E9AF8" d="M194.698 113.76a1.906 1.906 0 1 1-3.811 0 1.906 1.906 0 0 1 3.811 0Z"/>
      <path fill="#3E9AF8" fill-rule="evenodd" d="M172.462 129.246c1.052 0 1.906.853 1.906 1.906v17.313a1.907 1.907 0 0 1-3.812 0v-17.313c0-1.053.853-1.906 1.906-1.906Zm23.334 6.39a6.363 6.363 0 0 1-1.067 5.243 6.36 6.36 0 0 1-4.694 2.569 6.35 6.35 0 0 1-6.424-4.263 6.349 6.349 0 0 1-.316-2.721l3.797.387v.001a2.546 2.546 0 0 0 .698 2.018 2.553 2.553 0 0 0 1.993.769 2.534 2.534 0 0 0 2.3-3.117v-.001l3.713-.885Z" clip-rule="evenodd"/>
      <path fill="#3E9AF8" fill-rule="evenodd" d="M189.84 122.816a1.906 1.906 0 0 1 1.997 1.81c.188 3.836.828 5.166 1.385 6.029.124.192.275.397.443.626.641.871 1.526 2.075 2.08 4.143a1.906 1.906 0 1 1-3.682.986c-.354-1.323-.744-1.857-1.303-2.623-.219-.3-.463-.635-.741-1.066-1.031-1.598-1.781-3.644-1.99-7.908a1.906 1.906 0 0 1 1.811-1.997Z" clip-rule="evenodd"/>
      <path fill="#3E9AF8" fill-rule="evenodd" d="M190.026 122.816a1.906 1.906 0 0 0-1.997 1.81c-.092 1.885-.365 3.139-.688 4.034-.318.876-.711 1.485-1.158 2.073a29.88 29.88 0 0 1-.426.537c-.905 1.123-2.053 2.546-2.472 5.226a1.906 1.906 0 1 0 3.766.589c.255-1.629.785-2.297 1.621-3.348.169-.212.35-.441.544-.696.595-.782 1.22-1.732 1.709-3.084.483-1.334.806-2.979.912-5.144a1.906 1.906 0 0 0-1.811-1.997Z" clip-rule="evenodd"/>
    </g>
  </g>
  <defs>
    <clipPath id="a">
      <path fill="#fff" d="M0 0v232h273V0z"/>
    </clipPath>
    <clipPath id="b">
      <path fill="#fff" d="M148.796 94.768h81.48v81.48h-81.48z"/>
    </clipPath>
  </defs>
</svg>
