<svg width="80" height="80" viewBox="0 0 80 80" fill="none" xmlns="http://www.w3.org/2000/svg">
<path d="M19.1161 58.8686C18.4912 59.4935 18.4912 60.5065 19.1161 61.1314C19.7409 61.7562 20.754 61.7562 21.3788 61.1314L19.1161 58.8686ZM24.166 56.0814L23.0346 54.95H23.0346L24.166 56.0814ZM58.1526 36.1835C58.1526 44.2378 51.6233 50.767 43.5691 50.767V53.967C53.3906 53.967 61.3526 46.0051 61.3526 36.1835H58.1526ZM28.9855 36.1835C28.9855 28.1293 35.5148 21.6 43.5691 21.6V18.4C33.7475 18.4 25.7855 26.3619 25.7855 36.1835H28.9855ZM43.5691 21.6C51.6233 21.6 58.1526 28.1293 58.1526 36.1835H61.3526C61.3526 26.3619 53.3906 18.4 43.5691 18.4V21.6ZM43.5691 50.767C39.6547 50.767 36.1034 49.2269 33.4825 46.7163L31.2689 49.0272C34.4615 52.0855 38.7973 53.967 43.5691 53.967V50.767ZM33.4825 46.7163C30.7092 44.0597 28.9855 40.3243 28.9855 36.1835H25.7855C25.7855 41.2324 27.8916 45.7921 31.2689 49.0272L33.4825 46.7163ZM31.2443 46.7404L23.0346 54.95L25.2974 57.2128L33.5071 49.0031L31.2443 46.7404ZM23.0346 54.95L19.1161 58.8686L21.3788 61.1314L25.2974 57.2128L23.0346 54.95Z" fill="#305680"/>
<path d="M40.0092 40H36.391V29.9998H40.0092V40ZM40.0092 40H42.5721M42.5721 40V32.0601H46.0396V40M42.5721 40H46.0396M46.0396 40H48.3009M48.3009 40V33.4672H51.7181V40H48.3009ZM37.4298 41.7767H38.7026M43.4573 41.7767H44.7301M49.3021 41.7767H50.5749" stroke="#237DE0" stroke-linecap="round" stroke-linejoin="round"/>
</svg>
