<svg width="528" height="126" viewBox="0 0 528 126" fill="none" xmlns="http://www.w3.org/2000/svg">
<path d="M330.17 76.3193C329.602 75.9212 329.602 75.0789 330.17 74.6808L332.427 73.1015C333.089 72.6375 334 73.1117 334 73.9207V75.0001L400 75.0001V73.9207C400 73.1117 400.911 72.6376 401.573 73.1015L403.83 74.6809C404.398 75.079 404.398 75.9212 403.83 76.3193L401.573 77.8987C400.911 78.3626 400 77.8885 400 77.0794V76.0001L334 76.0001V77.0794C334 77.8884 333.089 78.3625 332.427 77.8986L330.17 76.3193Z" fill="#28232D"/>
<path d="M135.17 76.3191C134.602 75.921 134.602 75.0788 135.17 74.6807L137.427 73.1013C138.089 72.6374 139 73.1115 139 73.9206V74.9999L205 74.9999V75.9999L139 75.9999V77.0793C139 77.8883 138.089 78.3624 137.427 77.8985L135.17 76.3191Z" fill="#28232D"/>

<circle r="4" stroke="white" stroke-width="1">
<animateMotion dur="1s" repeatCount="indefinite"
      path="M125 75.5L220 75.5"/>
</circle>
<circle r="4" stroke="white" stroke-width="1">
<animateMotion dur="0.3s" repeatCount="indefinite"
      path="M125 75.5L220 75.5"/>
</circle>
<circle r="4" stroke="white" stroke-width="1">
<animateMotion dur="0.7s" repeatCount="indefinite"
      path="M125 75.5L220 75.5"/>
</circle>
<circle r="6" stroke="white" stroke-width="1">
<animateMotion dur="2s" repeatCount="indefinite"
      path="M320 75.5L415 75.5"/>
</circle>

<circle r="3.5" fill="#305680">
<animateMotion dur="1s" repeatCount="indefinite"
      path="M125 75.5L220 75.5"/>
</circle>
<circle r="3.5" fill="#305680">
<animateMotion dur="0.3s" repeatCount="indefinite"
      path="M125 75.5L220 75.5"/>
</circle>
<circle r="3.5" fill="#305680">
<animateMotion dur="0.7s" repeatCount="indefinite"
      path="M125 75.5L220 75.5"/>
</circle>
<circle r="5.5" fill="#305680">
<animateMotion dur="2s" repeatCount="indefinite"
      path="M320 75.5L415 75.5"/>
</circle>

<path d="M206.573 77.8985L208.83 76.3192C209.398 75.9211 209.398 75.0788 208.83 74.6807L206.573 73.1014C205.911 72.6374 205 73.1116 205 73.9206V77.0793C205 77.8883 205.911 78.3625 206.573 77.8985Z" fill="#28232D"/>
<path d="M488.77 34.1C501.654 34.1 512.282 43.9908 513.473 56.589C521.906 59.5256 528 67.572 528 76.7C528 88.4455 518.223 98 506.494 98H428.506C416.777 98 407 88.4455 407 76.7C407 67.5789 413.087 59.5429 421.499 56.5994C422.711 40.0768 436.516 27 453.32 27C462.314 27 470.671 30.7303 476.709 37.3381C480.426 35.2128 484.539 34.1 488.77 34.1Z" fill="#305680"/>
<path d="M434.383 84H432.566V76.9453H430.24V75.4336H436.709V76.9453H434.383V84Z" fill="white"/>
<path d="M443.934 84H442.146V80.1738C442.146 79.2285 441.795 78.7559 441.092 78.7559C440.592 78.7559 440.23 78.9258 440.008 79.2656C439.785 79.6055 439.674 80.1562 439.674 80.918V84H437.887V74.8828H439.674V76.7402C439.674 76.8848 439.66 77.2246 439.633 77.7598L439.592 78.2871H439.686C440.084 77.6465 440.717 77.3262 441.584 77.3262C442.354 77.3262 442.938 77.5332 443.336 77.9473C443.734 78.3613 443.934 78.9551 443.934 79.7285V84Z" fill="white"/>
<path d="M445.697 75.7559C445.697 75.1738 446.021 74.8828 446.67 74.8828C447.318 74.8828 447.643 75.1738 447.643 75.7559C447.643 76.0332 447.561 76.25 447.396 76.4062C447.236 76.5586 446.994 76.6348 446.67 76.6348C446.021 76.6348 445.697 76.3418 445.697 75.7559ZM447.561 84H445.773V77.4492H447.561V84Z" fill="white"/>
<path d="M455.488 84H453.701V80.1738C453.701 79.7012 453.617 79.3477 453.449 79.1133C453.281 78.875 453.014 78.7559 452.646 78.7559C452.146 78.7559 451.785 78.9238 451.562 79.2598C451.34 79.5918 451.229 80.1445 451.229 80.918V84H449.441V77.4492H450.807L451.047 78.2871H451.146C451.346 77.9707 451.619 77.7324 451.967 77.5723C452.318 77.4082 452.717 77.3262 453.162 77.3262C453.924 77.3262 454.502 77.5332 454.896 77.9473C455.291 78.3574 455.488 78.9512 455.488 79.7285V84Z" fill="white"/>
<path d="M463.029 77.4492V78.3574L462.004 78.6211C462.191 78.9141 462.285 79.2422 462.285 79.6055C462.285 80.3086 462.039 80.8574 461.547 81.252C461.059 81.6426 460.379 81.8379 459.508 81.8379L459.186 81.8203L458.922 81.791C458.738 81.9316 458.646 82.0879 458.646 82.2598C458.646 82.5176 458.975 82.6465 459.631 82.6465H460.744C461.463 82.6465 462.01 82.8008 462.385 83.1094C462.764 83.418 462.953 83.8711 462.953 84.4688C462.953 85.2344 462.633 85.8281 461.992 86.25C461.355 86.6719 460.439 86.8828 459.244 86.8828C458.33 86.8828 457.631 86.7227 457.146 86.4023C456.666 86.0859 456.426 85.6406 456.426 85.0664C456.426 84.6719 456.549 84.3418 456.795 84.0762C457.041 83.8105 457.402 83.6211 457.879 83.5078C457.695 83.4297 457.535 83.3027 457.398 83.127C457.262 82.9473 457.193 82.7578 457.193 82.5586C457.193 82.3086 457.266 82.1016 457.41 81.9375C457.555 81.7695 457.764 81.6055 458.037 81.4453C457.693 81.2969 457.42 81.0586 457.217 80.7305C457.018 80.4023 456.918 80.0156 456.918 79.5703C456.918 78.8555 457.15 78.3027 457.615 77.9121C458.08 77.5215 458.744 77.3262 459.607 77.3262C459.791 77.3262 460.008 77.3438 460.258 77.3789C460.512 77.4102 460.674 77.4336 460.744 77.4492H463.029ZM457.973 84.9258C457.973 85.1719 458.09 85.3652 458.324 85.5059C458.562 85.6465 458.895 85.7168 459.32 85.7168C459.961 85.7168 460.463 85.6289 460.826 85.4531C461.189 85.2773 461.371 85.0371 461.371 84.7324C461.371 84.4863 461.264 84.3164 461.049 84.2227C460.834 84.1289 460.502 84.082 460.053 84.082H459.127C458.799 84.082 458.523 84.1582 458.301 84.3105C458.082 84.4668 457.973 84.6719 457.973 84.9258ZM458.623 79.5938C458.623 79.9492 458.703 80.2305 458.863 80.4375C459.027 80.6445 459.275 80.748 459.607 80.748C459.943 80.748 460.189 80.6445 460.346 80.4375C460.502 80.2305 460.58 79.9492 460.58 79.5938C460.58 78.8047 460.256 78.4102 459.607 78.4102C458.951 78.4102 458.623 78.8047 458.623 79.5938Z" fill="white"/>
<path d="M468.684 82.0547C468.684 82.7266 468.449 83.2383 467.98 83.5898C467.516 83.9414 466.818 84.1172 465.889 84.1172C465.412 84.1172 465.006 84.084 464.67 84.0176C464.334 83.9551 464.02 83.8613 463.727 83.7363V82.2598C464.059 82.416 464.432 82.5469 464.846 82.6523C465.264 82.7578 465.631 82.8105 465.947 82.8105C466.596 82.8105 466.92 82.623 466.92 82.248C466.92 82.1074 466.877 81.9941 466.791 81.9082C466.705 81.8184 466.557 81.7188 466.346 81.6094C466.135 81.4961 465.854 81.3652 465.502 81.2168C464.998 81.0059 464.627 80.8105 464.389 80.6309C464.154 80.4512 463.982 80.2461 463.873 80.0156C463.768 79.7812 463.715 79.4941 463.715 79.1543C463.715 78.5723 463.939 78.123 464.389 77.8066C464.842 77.4863 465.482 77.3262 466.311 77.3262C467.1 77.3262 467.867 77.498 468.613 77.8418L468.074 79.1309C467.746 78.9902 467.439 78.875 467.154 78.7852C466.869 78.6953 466.578 78.6504 466.281 78.6504C465.754 78.6504 465.49 78.793 465.49 79.0781C465.49 79.2383 465.574 79.377 465.742 79.4941C465.914 79.6113 466.287 79.7852 466.861 80.0156C467.373 80.2227 467.748 80.416 467.986 80.5957C468.225 80.7754 468.4 80.9824 468.514 81.2168C468.627 81.4512 468.684 81.7305 468.684 82.0547Z" fill="white"/>
<path d="M470.219 75.4336H472.885C474.1 75.4336 474.98 75.6074 475.527 75.9551C476.078 76.2988 476.354 76.8477 476.354 77.6016C476.354 78.1133 476.232 78.5332 475.99 78.8613C475.752 79.1895 475.434 79.3867 475.035 79.4531V79.5117C475.578 79.6328 475.969 79.8594 476.207 80.1914C476.449 80.5234 476.57 80.9648 476.57 81.5156C476.57 82.2969 476.287 82.9062 475.721 83.3438C475.158 83.7812 474.393 84 473.424 84H470.219V75.4336ZM472.035 78.8262H473.09C473.582 78.8262 473.938 78.75 474.156 78.5977C474.379 78.4453 474.49 78.1934 474.49 77.8418C474.49 77.5137 474.369 77.2793 474.127 77.1387C473.889 76.9941 473.51 76.9219 472.99 76.9219H472.035V78.8262ZM472.035 80.2676V82.5H473.219C473.719 82.5 474.088 82.4043 474.326 82.2129C474.564 82.0215 474.684 81.7285 474.684 81.334C474.684 80.623 474.176 80.2676 473.16 80.2676H472.035Z" fill="white"/>
<path d="M479.564 80.7129C479.564 81.3613 479.67 81.8516 479.881 82.1836C480.096 82.5156 480.443 82.6816 480.924 82.6816C481.4 82.6816 481.742 82.5176 481.949 82.1895C482.16 81.8574 482.266 81.3652 482.266 80.7129C482.266 80.0645 482.16 79.5781 481.949 79.2539C481.738 78.9297 481.393 78.7676 480.912 78.7676C480.436 78.7676 480.092 78.9297 479.881 79.2539C479.67 79.5742 479.564 80.0605 479.564 80.7129ZM484.094 80.7129C484.094 81.7793 483.812 82.6133 483.25 83.2148C482.688 83.8164 481.904 84.1172 480.9 84.1172C480.271 84.1172 479.717 83.9805 479.236 83.707C478.756 83.4297 478.387 83.0332 478.129 82.5176C477.871 82.002 477.742 81.4004 477.742 80.7129C477.742 79.6426 478.021 78.8105 478.58 78.2168C479.139 77.623 479.924 77.3262 480.936 77.3262C481.564 77.3262 482.119 77.4629 482.6 77.7363C483.08 78.0098 483.449 78.4023 483.707 78.9141C483.965 79.4258 484.094 80.0254 484.094 80.7129Z" fill="white"/>
<path d="M489.73 84L489.385 83.1094H489.338C489.037 83.4883 488.727 83.752 488.406 83.9004C488.09 84.0449 487.676 84.1172 487.164 84.1172C486.535 84.1172 486.039 83.9375 485.676 83.5781C485.316 83.2188 485.137 82.707 485.137 82.043C485.137 81.3477 485.379 80.8359 485.863 80.5078C486.352 80.1758 487.086 79.9922 488.066 79.957L489.203 79.9219V79.6348C489.203 78.9707 488.863 78.6387 488.184 78.6387C487.66 78.6387 487.045 78.7969 486.338 79.1133L485.746 77.9062C486.5 77.5117 487.336 77.3145 488.254 77.3145C489.133 77.3145 489.807 77.5059 490.275 77.8887C490.744 78.2715 490.979 78.8535 490.979 79.6348V84H489.73ZM489.203 80.9648L488.512 80.9883C487.992 81.0039 487.605 81.0977 487.352 81.2695C487.098 81.4414 486.971 81.7031 486.971 82.0547C486.971 82.5586 487.26 82.8105 487.838 82.8105C488.252 82.8105 488.582 82.6914 488.828 82.4531C489.078 82.2148 489.203 81.8984 489.203 81.5039V80.9648Z" fill="white"/>
<path d="M496.48 77.3262C496.723 77.3262 496.924 77.3438 497.084 77.3789L496.949 79.0547C496.805 79.0156 496.629 78.9961 496.422 78.9961C495.852 78.9961 495.406 79.1426 495.086 79.4355C494.77 79.7285 494.611 80.1387 494.611 80.666V84H492.824V77.4492H494.178L494.441 78.5508H494.529C494.732 78.1836 495.006 77.8887 495.35 77.666C495.697 77.4395 496.074 77.3262 496.48 77.3262Z" fill="white"/>
<path d="M500.348 84.1172C499.578 84.1172 498.973 83.8184 498.531 83.2207C498.094 82.623 497.875 81.7949 497.875 80.7363C497.875 79.6621 498.098 78.8262 498.543 78.2285C498.992 77.627 499.609 77.3262 500.395 77.3262C501.219 77.3262 501.848 77.6465 502.281 78.2871H502.34C502.25 77.7988 502.205 77.3633 502.205 76.9805V74.8828H503.998V84H502.627L502.281 83.1504H502.205C501.799 83.7949 501.18 84.1172 500.348 84.1172ZM500.975 82.6934C501.432 82.6934 501.766 82.5605 501.977 82.2949C502.191 82.0293 502.309 81.5781 502.328 80.9414V80.748C502.328 80.0449 502.219 79.541 502 79.2363C501.785 78.9316 501.434 78.7793 500.945 78.7793C500.547 78.7793 500.236 78.9492 500.014 79.2891C499.795 79.625 499.686 80.1152 499.686 80.7598C499.686 81.4043 499.797 81.8887 500.02 82.2129C500.242 82.5332 500.561 82.6934 500.975 82.6934Z" fill="white"/>
<path fill-rule="evenodd" clip-rule="evenodd" d="M466.617 47C465 47 463.486 47.4513 462.192 48.228C461.823 47.9279 461.359 47.7609 460.876 47.7608C459.727 47.7609 458.785 48.7032 458.785 49.8523C458.786 50.332 458.952 50.7927 459.247 51.1601C458.458 52.4617 458 53.9869 458 55.617C457.999 55.6831 458.012 55.7487 458.036 55.81C458.061 55.8714 458.098 55.9272 458.144 55.9742C458.191 56.0212 458.246 56.0586 458.307 56.084C458.368 56.1095 458.434 56.1226 458.5 56.1226C458.566 56.1226 458.631 56.1095 458.692 56.084C458.753 56.0586 458.809 56.0212 458.855 55.9742C458.902 55.9272 458.938 55.8714 458.963 55.81C458.988 55.7487 459 55.6831 459 55.617C459 54.2086 459.383 52.8946 460.047 51.7642C460.308 51.8774 460.588 51.9438 460.875 51.9442C462.024 51.9443 462.967 51.0019 462.967 49.8528C462.967 49.5677 462.902 49.2902 462.792 49.0317C463.916 48.3769 465.22 48 466.617 48C466.683 48.0008 466.748 47.9884 466.81 47.9636C466.871 47.9389 466.927 47.9022 466.974 47.8557C467.021 47.8092 467.058 47.7539 467.084 47.6928C467.109 47.6318 467.122 47.5663 467.122 47.5002C467.122 47.4341 467.109 47.3686 467.084 47.3076C467.058 47.2466 467.021 47.1912 466.974 47.1447C466.927 47.0983 466.871 47.0616 466.81 47.0368C466.748 47.012 466.683 46.9993 466.617 47ZM460.876 48.7607C461.213 48.7608 461.514 48.9039 461.722 49.1642L461.732 49.1764C461.884 49.3691 461.968 49.6071 461.968 49.8528C461.968 50.4615 461.485 50.9443 460.876 50.9445C460.627 50.9441 460.386 50.8585 460.192 50.7019C459.935 50.4948 459.785 50.1827 459.784 49.8523C459.784 49.2435 460.267 48.7608 460.876 48.7607Z" fill="white"/>
<path d="M461.82 52.863C461.735 52.9518 461.685 53.0745 461.691 53.2091C461.696 53.3257 461.743 53.4383 461.824 53.5237C462.212 53.9146 462.977 54.6767 462.977 54.6767L463.653 54.0023C463.653 54.0023 462.913 53.2633 462.502 52.8522C462.411 52.7591 462.288 52.7202 462.159 52.7197C462.025 52.719 461.905 52.7741 461.82 52.863Z" fill="white"/>
<path fill-rule="evenodd" clip-rule="evenodd" d="M463.653 54.0023L461.564 56.0913C461.337 56.318 461.337 56.6855 461.564 56.9122L464.409 59.7578L466.147 61.4955C466.374 61.7222 466.741 61.7222 466.968 61.4955L468.381 60.082L470.543 57.9203L472.632 55.8313C472.859 55.6046 472.859 55.2371 472.632 55.0104L471.57 53.9483C471.584 53.934 472.313 53.2048 472.72 52.7981C472.813 52.7067 472.852 52.5843 472.852 52.4554C472.853 52.1864 472.632 51.9745 472.363 51.9869C472.246 51.9924 472.134 52.0389 472.048 52.1201C471.657 52.5081 470.895 53.2732 470.895 53.2732L471.199 53.5769L469.76 52.1376C469.781 52.1159 470.504 51.3922 470.909 50.9877C471.002 50.8963 471.041 50.7739 471.042 50.6449C471.043 50.376 470.822 50.1641 470.552 50.1765C470.436 50.1819 470.323 50.2285 470.238 50.3097C469.847 50.6977 469.085 51.4627 469.085 51.4627L469.172 51.5502L468.048 50.4269C467.822 50.2003 467.454 50.2003 467.228 50.4269L465.814 51.8403C465.8 51.8259 465.07 51.0978 464.664 50.6908C464.572 50.5977 464.45 50.5588 464.321 50.5583C464.052 50.557 463.84 50.7784 463.852 51.0476C463.858 51.1642 463.905 51.2769 463.986 51.3622C464.374 51.7531 465.139 52.5153 465.139 52.5153L465.538 52.1169L463.653 54.0023ZM467.573 52.7854C467.669 52.6881 467.799 52.6337 467.932 52.6356C468.027 52.637 468.118 52.667 468.192 52.7217L469.133 53.4116C469.315 53.5426 469.369 53.7913 469.26 53.9996C469.151 54.2078 468.911 54.3145 468.693 54.2517L469.042 55.6171C469.105 55.8653 468.953 56.1284 468.701 56.2054L466.155 56.9826L466.626 58.8004C466.692 59.0495 466.54 59.3161 466.286 59.3937C466.032 59.4714 465.774 59.3304 465.712 59.0799L465.126 56.8124C465.062 56.5641 465.214 56.3002 465.467 56.223L468.013 55.4455L467.778 54.5265C467.62 54.7012 467.365 54.7436 467.174 54.6269C466.983 54.5102 466.911 54.2683 467.004 54.0541L467.467 52.9449C467.492 52.8858 467.528 52.8315 467.573 52.7854Z" fill="white"/>
<path d="M470.543 57.9203L471.218 57.2462C471.218 57.2462 471.983 58.0083 472.371 58.3992C472.452 58.4845 472.499 58.5972 472.504 58.7138C472.517 58.983 472.305 59.2044 472.036 59.2031C471.907 59.2025 471.785 59.1636 471.693 59.0706C471.285 58.6617 470.55 57.9278 470.543 57.9203Z" fill="white"/>
<path d="M468.381 60.082C468.381 60.082 469.121 60.8213 469.532 61.2323C469.623 61.3253 469.745 61.3642 469.874 61.3648C470.143 61.3661 470.355 61.1446 470.343 60.8754C470.337 60.7588 470.291 60.6462 470.209 60.5608C469.821 60.1699 469.056 59.4078 469.056 59.4078L468.381 60.082Z" fill="white"/>
<path d="M464.409 59.7578C464.409 59.7578 463.67 60.4977 463.259 60.9085C463.166 61 463.127 61.1223 463.127 61.2513C463.125 61.5202 463.347 61.7322 463.616 61.7198C463.732 61.7143 463.845 61.6677 463.93 61.5865C464.321 61.1985 465.083 60.4335 465.083 60.4335L464.409 59.7578Z" fill="white"/>
<path d="M462.599 57.9484C462.599 57.9484 461.86 58.688 461.449 59.0988C461.356 59.1903 461.317 59.3126 461.317 59.4416C461.315 59.7105 461.537 59.9225 461.806 59.9101C461.923 59.9046 462.035 59.858 462.121 59.7769C462.511 59.3889 463.274 58.6238 463.274 58.6238L462.599 57.9484Z" fill="white"/>
<path fill-rule="evenodd" clip-rule="evenodd" d="M472.053 64.0194C470.759 64.7961 469.245 65.2474 467.628 65.2474C467.562 65.2482 467.496 65.2357 467.435 65.211C467.374 65.1862 467.318 65.1495 467.271 65.103C467.224 65.0566 467.186 65.0012 467.161 64.9401C467.135 64.8791 467.122 64.8136 467.122 64.7474C467.122 64.6812 467.135 64.6157 467.161 64.5547C467.186 64.4936 467.224 64.4382 467.271 64.3918C467.318 64.3453 467.374 64.3086 467.435 64.2838C467.496 64.2591 467.562 64.2468 467.628 64.2476C469.025 64.2476 470.329 63.8707 471.453 63.2159C471.342 62.9574 471.277 62.6801 471.277 62.3951C471.277 61.2459 472.22 60.3036 473.369 60.3036C473.657 60.3041 473.937 60.3705 474.197 60.4836C474.862 59.3532 475.245 58.0393 475.245 56.6308C475.244 56.5646 475.257 56.499 475.281 56.4376C475.306 56.3762 475.343 56.3204 475.389 56.2733C475.436 56.2262 475.491 56.1888 475.552 56.1633C475.613 56.1378 475.679 56.1247 475.745 56.1247C475.811 56.1247 475.877 56.1378 475.938 56.1633C475.999 56.1888 476.054 56.2262 476.101 56.2733C476.147 56.3204 476.184 56.3762 476.209 56.4376C476.233 56.499 476.246 56.5646 476.245 56.6308C476.245 58.2609 475.786 59.7862 474.998 61.0873C475.293 61.4546 475.459 61.9147 475.46 62.3945C475.46 63.5436 474.518 64.4865 473.369 64.4865C472.886 64.4864 472.422 64.3194 472.053 64.0194ZM472.523 63.0835C472.731 63.3438 473.032 63.487 473.369 63.487C473.978 63.487 474.461 63.0041 474.461 62.3954C474.46 62.065 474.311 61.7534 474.053 61.5463C473.86 61.3897 473.618 61.3036 473.369 61.3032C472.76 61.3034 472.277 61.7861 472.277 62.3949C472.277 62.6406 472.36 62.8786 472.513 63.0713L472.523 63.0835Z" fill="white"/>
<path d="M212 38C212 32.4771 216.477 28 222 28L269.5 28.0001L317 28C322.523 28 327 32.4771 327 38V88C327 93.5228 322.523 98 317 98H222C216.477 98 212 93.5228 212 88V38Z" fill="#185B55"/>
<path d="M216 63C216 59.6863 218.686 57 222 57H317C320.314 57 323 59.6863 323 63V88C323 91.3137 320.314 94 317 94H222C218.686 94 216 91.3137 216 88V63Z" fill="#F7F8FA"/>
<path fill-rule="evenodd" clip-rule="evenodd" d="M216 63C216 59.6863 218.686 57 222 57H317C320.314 57 323 59.6863 323 63V88C323 91.3137 320.314 94 317 94H222C218.686 94 216 91.3137 216 88V63ZM315 58C312.239 58 310 60.2386 310 63V88C310 90.7614 312.239 93 315 93H317C319.761 93 322 90.7614 322 88V63C322 60.2386 319.761 58 317 58H315ZM311.682 93C310.066 91.9251 309 90.087 309 88V63C309 60.913 310.066 59.0749 311.682 58H222C219.239 58 217 60.2386 217 63V88C217 90.7614 219.239 93 222 93H311.682Z" fill="#05172A"/>
<path d="M238.736 75.7051C238.736 76.7441 238.537 77.6191 238.139 78.3301C237.744 79.041 237.168 79.541 236.41 79.8301L238.461 82.0391H236.574L234.957 80.1172H234.729C233.436 80.1172 232.441 79.7344 231.746 78.9688C231.055 78.1992 230.709 77.1074 230.709 75.6934C230.709 74.2793 231.057 73.1934 231.752 72.4355C232.451 71.6777 233.447 71.2988 234.74 71.2988C236.014 71.2988 236.998 71.6836 237.693 72.4531C238.389 73.2227 238.736 74.3066 238.736 75.7051ZM232.197 75.7051C232.197 76.7598 232.41 77.5605 232.836 78.1074C233.262 78.6504 233.893 78.9219 234.729 78.9219C235.561 78.9219 236.188 78.6523 236.609 78.1133C237.035 77.5742 237.248 76.7715 237.248 75.7051C237.248 74.6543 237.037 73.8574 236.615 73.3145C236.197 72.7715 235.572 72.5 234.74 72.5C233.9 72.5 233.266 72.7715 232.836 73.3145C232.41 73.8574 232.197 74.6543 232.197 75.7051Z" fill="#05172A"/>
<path d="M245 80L244.807 79.1504H244.736C244.545 79.4512 244.271 79.6875 243.916 79.8594C243.564 80.0312 243.162 80.1172 242.709 80.1172C241.924 80.1172 241.338 79.9219 240.951 79.5312C240.564 79.1406 240.371 78.5488 240.371 77.7559V73.5195H241.76V77.5156C241.76 78.0117 241.861 78.3848 242.064 78.6348C242.268 78.8809 242.586 79.0039 243.02 79.0039C243.598 79.0039 244.021 78.832 244.291 78.4883C244.564 78.1406 244.701 77.5605 244.701 76.748V73.5195H246.084V80H245Z" fill="#05172A"/>
<path d="M250.877 80.1172C249.869 80.1172 249.08 79.8242 248.51 79.2383C247.943 78.6484 247.66 77.8379 247.66 76.8066C247.66 75.748 247.924 74.916 248.451 74.3105C248.979 73.7051 249.703 73.4023 250.625 73.4023C251.48 73.4023 252.156 73.6621 252.652 74.1816C253.148 74.7012 253.396 75.416 253.396 76.3262V77.0703H249.078C249.098 77.6992 249.268 78.1836 249.588 78.5234C249.908 78.8594 250.359 79.0273 250.941 79.0273C251.324 79.0273 251.68 78.9922 252.008 78.9219C252.34 78.8477 252.695 78.7266 253.074 78.5586V79.6777C252.738 79.8379 252.398 79.9512 252.055 80.0176C251.711 80.084 251.318 80.1172 250.877 80.1172ZM250.625 74.4453C250.188 74.4453 249.836 74.584 249.57 74.8613C249.309 75.1387 249.152 75.543 249.102 76.0742H252.043C252.035 75.5391 251.906 75.1348 251.656 74.8613C251.406 74.584 251.062 74.4453 250.625 74.4453Z" fill="#05172A"/>
<path d="M259.531 80L259.338 79.1504H259.268C259.076 79.4512 258.803 79.6875 258.447 79.8594C258.096 80.0312 257.693 80.1172 257.24 80.1172C256.455 80.1172 255.869 79.9219 255.482 79.5312C255.096 79.1406 254.902 78.5488 254.902 77.7559V73.5195H256.291V77.5156C256.291 78.0117 256.393 78.3848 256.596 78.6348C256.799 78.8809 257.117 79.0039 257.551 79.0039C258.129 79.0039 258.553 78.832 258.822 78.4883C259.096 78.1406 259.232 77.5605 259.232 76.748V73.5195H260.615V80H259.531Z" fill="#05172A"/>
<path d="M265.408 80.1172C264.4 80.1172 263.611 79.8242 263.041 79.2383C262.475 78.6484 262.191 77.8379 262.191 76.8066C262.191 75.748 262.455 74.916 262.982 74.3105C263.51 73.7051 264.234 73.4023 265.156 73.4023C266.012 73.4023 266.688 73.6621 267.184 74.1816C267.68 74.7012 267.928 75.416 267.928 76.3262V77.0703H263.609C263.629 77.6992 263.799 78.1836 264.119 78.5234C264.439 78.8594 264.891 79.0273 265.473 79.0273C265.855 79.0273 266.211 78.9922 266.539 78.9219C266.871 78.8477 267.227 78.7266 267.605 78.5586V79.6777C267.27 79.8379 266.93 79.9512 266.586 80.0176C266.242 80.084 265.85 80.1172 265.408 80.1172ZM265.156 74.4453C264.719 74.4453 264.367 74.584 264.102 74.8613C263.84 75.1387 263.684 75.543 263.633 76.0742H266.574C266.566 75.5391 266.438 75.1348 266.188 74.8613C265.938 74.584 265.594 74.4453 265.156 74.4453Z" fill="#05172A"/>
<path d="M247.414 46H242.48V37.4336H247.414V38.9219H244.297V40.8027H247.197V42.291H244.297V44.5H247.414V46Z" fill="white"/>
<path d="M251.141 46.1172C250.371 46.1172 249.766 45.8184 249.324 45.2207C248.887 44.623 248.668 43.7949 248.668 42.7363C248.668 41.6621 248.891 40.8262 249.336 40.2285C249.785 39.627 250.402 39.3262 251.188 39.3262C252.012 39.3262 252.641 39.6465 253.074 40.2871H253.133C253.043 39.7988 252.998 39.3633 252.998 38.9805V36.8828H254.791V46H253.42L253.074 45.1504H252.998C252.592 45.7949 251.973 46.1172 251.141 46.1172ZM251.768 44.6934C252.225 44.6934 252.559 44.5605 252.77 44.2949C252.984 44.0293 253.102 43.5781 253.121 42.9414V42.748C253.121 42.0449 253.012 41.541 252.793 41.2363C252.578 40.9316 252.227 40.7793 251.738 40.7793C251.34 40.7793 251.029 40.9492 250.807 41.2891C250.588 41.625 250.479 42.1152 250.479 42.7598C250.479 43.4043 250.59 43.8887 250.812 44.2129C251.035 44.5332 251.354 44.6934 251.768 44.6934Z" fill="white"/>
<path d="M262.361 39.4492V40.3574L261.336 40.6211C261.523 40.9141 261.617 41.2422 261.617 41.6055C261.617 42.3086 261.371 42.8574 260.879 43.252C260.391 43.6426 259.711 43.8379 258.84 43.8379L258.518 43.8203L258.254 43.791C258.07 43.9316 257.979 44.0879 257.979 44.2598C257.979 44.5176 258.307 44.6465 258.963 44.6465H260.076C260.795 44.6465 261.342 44.8008 261.717 45.1094C262.096 45.418 262.285 45.8711 262.285 46.4688C262.285 47.2344 261.965 47.8281 261.324 48.25C260.688 48.6719 259.771 48.8828 258.576 48.8828C257.662 48.8828 256.963 48.7227 256.479 48.4023C255.998 48.0859 255.758 47.6406 255.758 47.0664C255.758 46.6719 255.881 46.3418 256.127 46.0762C256.373 45.8105 256.734 45.6211 257.211 45.5078C257.027 45.4297 256.867 45.3027 256.73 45.127C256.594 44.9473 256.525 44.7578 256.525 44.5586C256.525 44.3086 256.598 44.1016 256.742 43.9375C256.887 43.7695 257.096 43.6055 257.369 43.4453C257.025 43.2969 256.752 43.0586 256.549 42.7305C256.35 42.4023 256.25 42.0156 256.25 41.5703C256.25 40.8555 256.482 40.3027 256.947 39.9121C257.412 39.5215 258.076 39.3262 258.939 39.3262C259.123 39.3262 259.34 39.3438 259.59 39.3789C259.844 39.4102 260.006 39.4336 260.076 39.4492H262.361ZM257.305 46.9258C257.305 47.1719 257.422 47.3652 257.656 47.5059C257.895 47.6465 258.227 47.7168 258.652 47.7168C259.293 47.7168 259.795 47.6289 260.158 47.4531C260.521 47.2773 260.703 47.0371 260.703 46.7324C260.703 46.4863 260.596 46.3164 260.381 46.2227C260.166 46.1289 259.834 46.082 259.385 46.082H258.459C258.131 46.082 257.855 46.1582 257.633 46.3105C257.414 46.4668 257.305 46.6719 257.305 46.9258ZM257.955 41.5938C257.955 41.9492 258.035 42.2305 258.195 42.4375C258.359 42.6445 258.607 42.748 258.939 42.748C259.275 42.748 259.521 42.6445 259.678 42.4375C259.834 42.2305 259.912 41.9492 259.912 41.5938C259.912 40.8047 259.588 40.4102 258.939 40.4102C258.283 40.4102 257.955 40.8047 257.955 41.5938Z" fill="white"/>
<path d="M266.158 40.5977C265.779 40.5977 265.482 40.7188 265.268 40.9609C265.053 41.1992 264.93 41.5391 264.898 41.9805H267.406C267.398 41.5391 267.283 41.1992 267.061 40.9609C266.838 40.7188 266.537 40.5977 266.158 40.5977ZM266.41 46.1172C265.355 46.1172 264.531 45.8262 263.938 45.2441C263.344 44.6621 263.047 43.8379 263.047 42.7715C263.047 41.6738 263.32 40.8262 263.867 40.2285C264.418 39.627 265.178 39.3262 266.146 39.3262C267.072 39.3262 267.793 39.5898 268.309 40.1172C268.824 40.6445 269.082 41.373 269.082 42.3027V43.1699H264.857C264.877 43.6777 265.027 44.0742 265.309 44.3594C265.59 44.6445 265.984 44.7871 266.492 44.7871C266.887 44.7871 267.26 44.7461 267.611 44.6641C267.963 44.582 268.33 44.4512 268.713 44.2715V45.6543C268.4 45.8105 268.066 45.9258 267.711 46C267.355 46.0781 266.922 46.1172 266.41 46.1172Z" fill="white"/>
<path fill-rule="evenodd" clip-rule="evenodd" d="M222.82 38.8629C222.735 38.9518 222.685 39.0745 222.691 39.2091C222.696 39.3257 222.743 39.4383 222.824 39.5237C223.212 39.9146 223.977 40.6767 223.977 40.6767L224.653 40.0022C224.653 40.0022 223.913 39.2632 223.502 38.8522C223.411 38.7591 223.288 38.7202 223.159 38.7196C223.025 38.719 222.905 38.774 222.82 38.8629L222.82 38.8629ZM224.653 40.0023L222.564 42.0913C222.337 42.318 222.337 42.6854 222.564 42.9121L223.599 43.9473L225.409 45.7577L227.147 47.4955C227.374 47.7221 227.741 47.7222 227.968 47.4955L229.381 46.082L231.543 43.9203L233.632 41.8313C233.859 41.6046 233.859 41.2371 233.632 41.0104L232.57 39.9482L230.759 38.1373L229.048 36.4269C228.822 36.2002 228.454 36.2002 228.228 36.4269L226.814 37.8403L224.653 40.0018L224.653 40.0023ZM226.814 37.8408C226.814 37.8408 226.074 37.1018 225.664 36.6907C225.572 36.5977 225.45 36.5588 225.321 36.5582C225.052 36.5569 224.84 36.7784 224.852 37.0476C224.858 37.1642 224.905 37.2768 224.986 37.3622C225.374 37.7531 226.139 38.5152 226.139 38.5152L226.814 37.8407L226.814 37.8408ZM230.759 38.138C230.759 38.138 231.498 37.3984 231.909 36.9877C232.002 36.8962 232.041 36.7739 232.042 36.6449C232.043 36.376 231.822 36.164 231.552 36.1764C231.436 36.1819 231.323 36.2285 231.238 36.3097C230.847 36.6977 230.085 37.4627 230.085 37.4627L230.759 38.138L230.759 38.138ZM232.57 39.9485C232.57 39.9485 233.309 39.2088 233.72 38.7981C233.813 38.7067 233.852 38.5843 233.852 38.4553C233.853 38.1864 233.632 37.9745 233.363 37.9868C233.246 37.9923 233.134 38.0389 233.048 38.1201C232.657 38.5081 231.895 39.2731 231.895 39.2731L232.57 39.9484L232.57 39.9485ZM231.543 43.9206C231.543 43.9206 232.282 44.6596 232.693 45.0705C232.785 45.1636 232.907 45.2025 233.036 45.2031C233.305 45.2043 233.517 44.9829 233.505 44.7137L233.504 44.7138C233.499 44.5972 233.452 44.4845 233.371 44.3991C232.983 44.0082 232.218 43.2462 232.218 43.2462L231.543 43.9207L231.543 43.9206ZM229.381 46.0823C229.381 46.0823 230.121 46.8213 230.532 47.2322C230.623 47.3253 230.745 47.3642 230.874 47.3647C231.143 47.3661 231.355 47.1446 231.343 46.8754H231.343C231.337 46.7588 231.291 46.6461 231.209 46.5608C230.821 46.1699 230.056 45.4077 230.056 45.4077L229.381 46.0822L229.381 46.0823ZM225.409 45.758C225.409 45.758 224.67 46.4977 224.259 46.9085C224.166 46.9999 224.127 47.1223 224.127 47.2513C224.125 47.5202 224.347 47.7321 224.616 47.7198H224.616C224.732 47.7143 224.845 47.6677 224.93 47.5865C225.321 47.1985 226.083 46.4335 226.083 46.4335L225.409 45.7584L225.409 45.758ZM223.599 43.9483C223.599 43.9483 222.86 44.688 222.449 45.0988C222.356 45.1903 222.317 45.3126 222.317 45.4416C222.315 45.7105 222.537 45.9225 222.806 45.9101H222.806C222.923 45.9046 223.035 45.858 223.121 45.7768C223.511 45.3888 224.274 44.6238 224.274 44.6238L223.599 43.9482L223.599 43.9483ZM228.573 38.7853C228.669 38.688 228.799 38.6337 228.932 38.6356C229.027 38.637 229.118 38.667 229.192 38.7217L230.133 39.4116C230.315 39.5425 230.369 39.7912 230.26 39.9995C230.151 40.2078 229.911 40.3145 229.693 40.2517L230.042 41.6171C230.105 41.8652 229.953 42.1284 229.701 42.2053L227.155 42.9825L227.626 44.8004C227.692 45.0495 227.54 45.316 227.286 45.3937C227.032 45.4714 226.774 45.3304 226.712 45.0799L226.126 42.8124C226.062 42.5641 226.214 42.3001 226.467 42.223L229.013 41.4454L228.778 40.5265C228.62 40.7012 228.365 40.7436 228.174 40.6269C227.983 40.5102 227.911 40.2683 228.004 40.0541L228.467 38.9449C228.492 38.8857 228.528 38.8315 228.573 38.7854L228.573 38.7853Z" fill="white"/>
<path d="M0 10C0 4.47714 4.47717 -1.70361e-05 10 0L66 0.000172741L122 0C127.523 -1.70361e-05 132 4.47714 132 10V116C132 121.523 127.523 126 122 126H10C4.47715 126 0 121.523 0 116V10Z" fill="white"/>
<path fill-rule="evenodd" clip-rule="evenodd" d="M131 116V10C131 5.02943 126.971 0.999985 122 1H10C5.02945 0.999985 1 5.02942 1 10V116C1 120.971 5.02944 125 10 125H122C126.971 125 131 120.971 131 116ZM10 0C4.47717 -1.70361e-05 0 4.47714 0 10V116C0 121.523 4.47715 126 10 126H122C127.523 126 132 121.523 132 116V10C132 4.47714 127.523 -1.70361e-05 122 0H10Z" fill="#05172A"/>
<path fill-rule="evenodd" clip-rule="evenodd" d="M122 71H10C7.79086 71 6 72.7909 6 75V116C6 118.209 7.79086 120 10 120H122C124.209 120 126 118.209 126 116V75C126 72.7909 124.209 71 122 71ZM10 69C6.68629 69 4 71.6863 4 75V116C4 119.314 6.68629 122 10 122H122C125.314 122 128 119.314 128 116V75C128 71.6863 125.314 69 122 69H10Z" fill="#06BC7B"/>
<path d="M42.3984 91.0039C42.7344 91.0039 43.0703 90.9512 43.4062 90.8457V91.8828C43.2539 91.9492 43.0566 92.0039 42.8145 92.0469C42.5762 92.0938 42.3281 92.1172 42.0703 92.1172C40.7656 92.1172 40.1133 91.4297 40.1133 90.0547V86.5625H39.2285V85.9531L40.1777 85.4492L40.6465 84.0781H41.4961V85.5195H43.3418V86.5625H41.4961V90.0312C41.4961 90.3633 41.5781 90.6094 41.7422 90.7695C41.9102 90.9258 42.1289 91.0039 42.3984 91.0039Z" fill="#05172A"/>
<path d="M47.5371 92.1172C46.5293 92.1172 45.7402 91.8242 45.1699 91.2383C44.6035 90.6484 44.3203 89.8379 44.3203 88.8066C44.3203 87.748 44.584 86.916 45.1113 86.3105C45.6387 85.7051 46.3633 85.4023 47.2852 85.4023C48.1406 85.4023 48.8164 85.6621 49.3125 86.1816C49.8086 86.7012 50.0566 87.416 50.0566 88.3262V89.0703H45.7383C45.7578 89.6992 45.9277 90.1836 46.248 90.5234C46.5684 90.8594 47.0195 91.0273 47.6016 91.0273C47.9844 91.0273 48.3398 90.9922 48.668 90.9219C49 90.8477 49.3555 90.7266 49.7344 90.5586V91.6777C49.3984 91.8379 49.0586 91.9512 48.7148 92.0176C48.3711 92.084 47.9785 92.1172 47.5371 92.1172ZM47.2852 86.4453C46.8477 86.4453 46.4961 86.584 46.2305 86.8613C45.9688 87.1387 45.8125 87.543 45.7617 88.0742H48.7031C48.6953 87.5391 48.5664 87.1348 48.3164 86.8613C48.0664 86.584 47.7227 86.4453 47.2852 86.4453Z" fill="#05172A"/>
<path d="M57.082 92H55.6992V88.0039C55.6992 87.5078 55.6055 87.1387 55.418 86.8965C55.2305 86.6504 54.9375 86.5273 54.5391 86.5273C54.0078 86.5273 53.6172 86.7012 53.3672 87.0488C53.1211 87.3926 52.998 87.9668 52.998 88.7715V92H51.6211V85.5195H52.6992L52.8926 86.3691H52.9629C53.1426 86.0605 53.4023 85.8223 53.7422 85.6543C54.0859 85.4863 54.4629 85.4023 54.873 85.4023C55.8691 85.4023 56.5293 85.7422 56.8535 86.4219H56.9473C57.1387 86.1016 57.4082 85.8516 57.7559 85.6719C58.1035 85.4922 58.502 85.4023 58.9512 85.4023C59.7246 85.4023 60.2871 85.5977 60.6387 85.9883C60.9941 86.3789 61.1719 86.9746 61.1719 87.7754V92H59.7949V88.0039C59.7949 87.5078 59.6992 87.1387 59.5078 86.8965C59.3203 86.6504 59.0273 86.5273 58.6289 86.5273C58.0938 86.5273 57.7012 86.6953 57.4512 87.0312C57.2051 87.3633 57.082 87.875 57.082 88.5664V92Z" fill="#05172A"/>
<path d="M66.3809 92.1172C65.5605 92.1172 64.9238 91.8223 64.4707 91.2324H64.3887C64.4434 91.7793 64.4707 92.1113 64.4707 92.2285V94.8828H63.0938V85.5195H64.207C64.2383 85.6406 64.3027 85.9297 64.4004 86.3867H64.4707C64.9004 85.7305 65.5449 85.4023 66.4043 85.4023C67.2129 85.4023 67.8418 85.6953 68.291 86.2812C68.7441 86.8672 68.9707 87.6895 68.9707 88.748C68.9707 89.8066 68.7402 90.6328 68.2793 91.2266C67.8223 91.8203 67.1895 92.1172 66.3809 92.1172ZM66.0469 86.5273C65.5 86.5273 65.0996 86.6875 64.8457 87.0078C64.5957 87.3281 64.4707 87.8398 64.4707 88.543V88.748C64.4707 89.5371 64.5957 90.1094 64.8457 90.4648C65.0957 90.8164 65.5039 90.9922 66.0703 90.9922C66.5469 90.9922 66.9141 90.7969 67.1719 90.4062C67.4297 90.0156 67.5586 89.459 67.5586 88.7363C67.5586 88.0098 67.4297 87.4609 67.1719 87.0898C66.918 86.7148 66.543 86.5273 66.0469 86.5273Z" fill="#05172A"/>
<path d="M73.4004 92.1172C72.3926 92.1172 71.6035 91.8242 71.0332 91.2383C70.4668 90.6484 70.1836 89.8379 70.1836 88.8066C70.1836 87.748 70.4473 86.916 70.9746 86.3105C71.502 85.7051 72.2266 85.4023 73.1484 85.4023C74.0039 85.4023 74.6797 85.6621 75.1758 86.1816C75.6719 86.7012 75.9199 87.416 75.9199 88.3262V89.0703H71.6016C71.6211 89.6992 71.791 90.1836 72.1113 90.5234C72.4316 90.8594 72.8828 91.0273 73.4648 91.0273C73.8477 91.0273 74.2031 90.9922 74.5312 90.9219C74.8633 90.8477 75.2188 90.7266 75.5977 90.5586V91.6777C75.2617 91.8379 74.9219 91.9512 74.5781 92.0176C74.2344 92.084 73.8418 92.1172 73.4004 92.1172ZM73.1484 86.4453C72.7109 86.4453 72.3594 86.584 72.0938 86.8613C71.832 87.1387 71.6758 87.543 71.625 88.0742H74.5664C74.5586 87.5391 74.4297 87.1348 74.1797 86.8613C73.9297 86.584 73.5859 86.4453 73.1484 86.4453Z" fill="#05172A"/>
<path d="M80.7715 85.4023C81.0488 85.4023 81.2773 85.4219 81.457 85.4609L81.3223 86.7441C81.127 86.6973 80.9238 86.6738 80.7129 86.6738C80.1621 86.6738 79.7148 86.8535 79.3711 87.2129C79.0312 87.5723 78.8613 88.0391 78.8613 88.6133V92H77.4844V85.5195H78.5625L78.7441 86.6621H78.8145C79.0293 86.2754 79.3086 85.9688 79.6523 85.7422C80 85.5156 80.373 85.4023 80.7715 85.4023Z" fill="#05172A"/>
<path d="M86.7188 92L86.4434 91.0977H86.3965C86.084 91.4922 85.7695 91.7617 85.4531 91.9062C85.1367 92.0469 84.7305 92.1172 84.2344 92.1172C83.5977 92.1172 83.0996 91.9453 82.7402 91.6016C82.3848 91.2578 82.207 90.7715 82.207 90.1426C82.207 89.4746 82.4551 88.9707 82.9512 88.6309C83.4473 88.291 84.2031 88.1055 85.2188 88.0742L86.3379 88.0391V87.6934C86.3379 87.2793 86.2402 86.9707 86.0449 86.7676C85.8535 86.5605 85.5547 86.457 85.1484 86.457C84.8164 86.457 84.498 86.5059 84.1934 86.6035C83.8887 86.7012 83.5957 86.8164 83.3145 86.9492L82.8691 85.9648C83.2207 85.7812 83.6055 85.6426 84.0234 85.5488C84.4414 85.4512 84.8359 85.4023 85.207 85.4023C86.0312 85.4023 86.6523 85.582 87.0703 85.9414C87.4922 86.3008 87.7031 86.8652 87.7031 87.6348V92H86.7188ZM84.668 91.0625C85.168 91.0625 85.5684 90.9238 85.8691 90.6465C86.1738 90.3652 86.3262 89.9727 86.3262 89.4688V88.9062L85.4941 88.9414C84.8457 88.9648 84.373 89.0742 84.0762 89.2695C83.7832 89.4609 83.6367 89.7559 83.6367 90.1543C83.6367 90.4434 83.7227 90.668 83.8945 90.8281C84.0664 90.9844 84.3242 91.0625 84.668 91.0625Z" fill="#05172A"/>
<path d="M92.0391 91.0039C92.375 91.0039 92.7109 90.9512 93.0469 90.8457V91.8828C92.8945 91.9492 92.6973 92.0039 92.4551 92.0469C92.2168 92.0938 91.9688 92.1172 91.7109 92.1172C90.4062 92.1172 89.7539 91.4297 89.7539 90.0547V86.5625H88.8691V85.9531L89.8184 85.4492L90.2871 84.0781H91.1367V85.5195H92.9824V86.5625H91.1367V90.0312C91.1367 90.3633 91.2188 90.6094 91.3828 90.7695C91.5508 90.9258 91.7695 91.0039 92.0391 91.0039Z" fill="#05172A"/>
<path d="M98.918 92L98.7246 91.1504H98.6543C98.4629 91.4512 98.1895 91.6875 97.834 91.8594C97.4824 92.0312 97.0801 92.1172 96.627 92.1172C95.8418 92.1172 95.2559 91.9219 94.8691 91.5312C94.4824 91.1406 94.2891 90.5488 94.2891 89.7559V85.5195H95.6777V89.5156C95.6777 90.0117 95.7793 90.3848 95.9824 90.6348C96.1855 90.8809 96.5039 91.0039 96.9375 91.0039C97.5156 91.0039 97.9395 90.832 98.209 90.4883C98.4824 90.1406 98.6191 89.5605 98.6191 88.748V85.5195H100.002V92H98.918Z" fill="#05172A"/>
<path d="M105.252 85.4023C105.529 85.4023 105.758 85.4219 105.938 85.4609L105.803 86.7441C105.607 86.6973 105.404 86.6738 105.193 86.6738C104.643 86.6738 104.195 86.8535 103.852 87.2129C103.512 87.5723 103.342 88.0391 103.342 88.6133V92H101.965V85.5195H103.043L103.225 86.6621H103.295C103.51 86.2754 103.789 85.9688 104.133 85.7422C104.48 85.5156 104.854 85.4023 105.252 85.4023Z" fill="#05172A"/>
<path d="M109.975 92.1172C108.967 92.1172 108.178 91.8242 107.607 91.2383C107.041 90.6484 106.758 89.8379 106.758 88.8066C106.758 87.748 107.021 86.916 107.549 86.3105C108.076 85.7051 108.801 85.4023 109.723 85.4023C110.578 85.4023 111.254 85.6621 111.75 86.1816C112.246 86.7012 112.494 87.416 112.494 88.3262V89.0703H108.176C108.195 89.6992 108.365 90.1836 108.686 90.5234C109.006 90.8594 109.457 91.0273 110.039 91.0273C110.422 91.0273 110.777 90.9922 111.105 90.9219C111.438 90.8477 111.793 90.7266 112.172 90.5586V91.6777C111.836 91.8379 111.496 91.9512 111.152 92.0176C110.809 92.084 110.416 92.1172 109.975 92.1172ZM109.723 86.4453C109.285 86.4453 108.934 86.584 108.668 86.8613C108.406 87.1387 108.25 87.543 108.199 88.0742H111.141C111.133 87.5391 111.004 87.1348 110.754 86.8613C110.504 86.584 110.16 86.4453 109.723 86.4453Z" fill="#05172A"/>
<path d="M44.3379 106.154C44.3379 106.787 44.1074 107.273 43.6465 107.613C43.1855 107.949 42.5254 108.117 41.666 108.117C40.8027 108.117 40.1094 107.986 39.5859 107.725V106.535C40.3477 106.887 41.0566 107.062 41.7129 107.062C42.5605 107.062 42.9844 106.807 42.9844 106.295C42.9844 106.131 42.9375 105.994 42.8438 105.885C42.75 105.775 42.5957 105.662 42.3809 105.545C42.166 105.428 41.8672 105.295 41.4844 105.146C40.7383 104.857 40.2324 104.568 39.9668 104.279C39.7051 103.99 39.5742 103.615 39.5742 103.154C39.5742 102.6 39.7969 102.17 40.2422 101.865C40.6914 101.557 41.3008 101.402 42.0703 101.402C42.832 101.402 43.5527 101.557 44.2324 101.865L43.7871 102.902C43.0879 102.613 42.5 102.469 42.0234 102.469C41.2969 102.469 40.9336 102.676 40.9336 103.09C40.9336 103.293 41.0273 103.465 41.2148 103.605C41.4062 103.746 41.8203 103.939 42.457 104.186C42.9922 104.393 43.3809 104.582 43.623 104.754C43.8652 104.926 44.0449 105.125 44.1621 105.352C44.2793 105.574 44.3379 105.842 44.3379 106.154Z" fill="#05172A"/>
<path d="M48.6621 108.117C47.6543 108.117 46.8652 107.824 46.2949 107.238C45.7285 106.648 45.4453 105.838 45.4453 104.807C45.4453 103.748 45.709 102.916 46.2363 102.311C46.7637 101.705 47.4883 101.402 48.4102 101.402C49.2656 101.402 49.9414 101.662 50.4375 102.182C50.9336 102.701 51.1816 103.416 51.1816 104.326V105.07H46.8633C46.8828 105.699 47.0527 106.184 47.373 106.523C47.6934 106.859 48.1445 107.027 48.7266 107.027C49.1094 107.027 49.4648 106.992 49.793 106.922C50.125 106.848 50.4805 106.727 50.8594 106.559V107.678C50.5234 107.838 50.1836 107.951 49.8398 108.018C49.4961 108.084 49.1035 108.117 48.6621 108.117ZM48.4102 102.445C47.9727 102.445 47.6211 102.584 47.3555 102.861C47.0938 103.139 46.9375 103.543 46.8867 104.074H49.8281C49.8203 103.539 49.6914 103.135 49.4414 102.861C49.1914 102.584 48.8477 102.445 48.4102 102.445Z" fill="#05172A"/>
<path d="M58.4473 108H57.0645V104.016C57.0645 103.516 56.9629 103.143 56.7598 102.896C56.5605 102.65 56.2422 102.527 55.8047 102.527C55.2227 102.527 54.7969 102.699 54.5273 103.043C54.2578 103.387 54.123 103.963 54.123 104.771V108H52.7461V101.52H53.8242L54.0176 102.369H54.0879C54.2832 102.061 54.5605 101.822 54.9199 101.654C55.2793 101.486 55.6777 101.402 56.1152 101.402C57.6699 101.402 58.4473 102.193 58.4473 103.775V108Z" fill="#05172A"/>
<path d="M64.7168 106.154C64.7168 106.787 64.4863 107.273 64.0254 107.613C63.5645 107.949 62.9043 108.117 62.0449 108.117C61.1816 108.117 60.4883 107.986 59.9648 107.725V106.535C60.7266 106.887 61.4355 107.062 62.0918 107.062C62.9395 107.062 63.3633 106.807 63.3633 106.295C63.3633 106.131 63.3164 105.994 63.2227 105.885C63.1289 105.775 62.9746 105.662 62.7598 105.545C62.5449 105.428 62.2461 105.295 61.8633 105.146C61.1172 104.857 60.6113 104.568 60.3457 104.279C60.084 103.99 59.9531 103.615 59.9531 103.154C59.9531 102.6 60.1758 102.17 60.6211 101.865C61.0703 101.557 61.6797 101.402 62.4492 101.402C63.2109 101.402 63.9316 101.557 64.6113 101.865L64.166 102.902C63.4668 102.613 62.8789 102.469 62.4023 102.469C61.6758 102.469 61.3125 102.676 61.3125 103.09C61.3125 103.293 61.4062 103.465 61.5938 103.605C61.7852 103.746 62.1992 103.939 62.8359 104.186C63.3711 104.393 63.7598 104.582 64.002 104.754C64.2441 104.926 64.4238 105.125 64.541 105.352C64.6582 105.574 64.7168 105.842 64.7168 106.154Z" fill="#05172A"/>
<path d="M71.959 104.748C71.959 105.807 71.6875 106.633 71.1445 107.227C70.6016 107.82 69.8457 108.117 68.877 108.117C68.2715 108.117 67.7363 107.98 67.2715 107.707C66.8066 107.434 66.4492 107.041 66.1992 106.529C65.9492 106.018 65.8242 105.424 65.8242 104.748C65.8242 103.697 66.0938 102.877 66.6328 102.287C67.1719 101.697 67.9316 101.402 68.9121 101.402C69.8496 101.402 70.5918 101.705 71.1387 102.311C71.6855 102.912 71.959 103.725 71.959 104.748ZM67.2422 104.748C67.2422 106.244 67.7949 106.992 68.9004 106.992C69.9941 106.992 70.541 106.244 70.541 104.748C70.541 103.268 69.9902 102.527 68.8887 102.527C68.3105 102.527 67.8906 102.719 67.6289 103.102C67.3711 103.484 67.2422 104.033 67.2422 104.748Z" fill="#05172A"/>
<path d="M76.834 101.402C77.1113 101.402 77.3398 101.422 77.5195 101.461L77.3848 102.744C77.1895 102.697 76.9863 102.674 76.7754 102.674C76.2246 102.674 75.7773 102.854 75.4336 103.213C75.0938 103.572 74.9238 104.039 74.9238 104.613V108H73.5469V101.52H74.625L74.8066 102.662H74.877C75.0918 102.275 75.3711 101.969 75.7148 101.742C76.0625 101.516 76.4355 101.402 76.834 101.402Z" fill="#05172A"/>
<path d="M17 93H25V109C25 110.105 24.1046 111 23 111H19C17.8954 111 17 110.105 17 109V93Z" fill="#06BC7B"/>
<path d="M17 86H25V93H17V86Z" fill="#DADE1A"/>
<path d="M17 83C17 81.8954 17.8954 81 19 81H23C24.1046 81 25 81.8954 25 83V86H17V83Z" fill="#FF2727"/>
<path d="M16 100.5C16 100.224 16.2239 100 16.5 100H29.5C29.7761 100 30 100.224 30 100.5V100.5C30 100.776 29.7761 101 29.5 101H16.5C16.2239 101 16 100.776 16 100.5V100.5Z" fill="#05172A"/>
<path d="M4 35C4 31.6863 6.68629 29 10 29H122C125.314 29 128 31.6863 128 35V60C128 63.3137 125.314 66 122 66H10C6.68629 66 4 63.3137 4 60V35Z" fill="white"/>
<path fill-rule="evenodd" clip-rule="evenodd" d="M122 30H10C7.23858 30 5 32.2386 5 35V60C5 62.7614 7.23858 65 10 65H122C124.761 65 127 62.7614 127 60V35C127 32.2386 124.761 30 122 30ZM10 29C6.68629 29 4 31.6863 4 35V60C4 63.3137 6.68629 66 10 66H122C125.314 66 128 63.3137 128 60V35C128 31.6863 125.314 29 122 29H10Z" fill="#05172A"/>
<path d="M41.5195 52H40.1309V43.4336H44.9648V44.6172H41.5195V47.2949H44.748V48.4844H41.5195V52Z" fill="#05172A"/>
<path d="M50.4258 52L50.1504 51.0977H50.1035C49.791 51.4922 49.4766 51.7617 49.1602 51.9062C48.8438 52.0469 48.4375 52.1172 47.9414 52.1172C47.3047 52.1172 46.8066 51.9453 46.4473 51.6016C46.0918 51.2578 45.9141 50.7715 45.9141 50.1426C45.9141 49.4746 46.1621 48.9707 46.6582 48.6309C47.1543 48.291 47.9102 48.1055 48.9258 48.0742L50.0449 48.0391V47.6934C50.0449 47.2793 49.9473 46.9707 49.752 46.7676C49.5605 46.5605 49.2617 46.457 48.8555 46.457C48.5234 46.457 48.2051 46.5059 47.9004 46.6035C47.5957 46.7012 47.3027 46.8164 47.0215 46.9492L46.5762 45.9648C46.9277 45.7812 47.3125 45.6426 47.7305 45.5488C48.1484 45.4512 48.543 45.4023 48.9141 45.4023C49.7383 45.4023 50.3594 45.582 50.7773 45.9414C51.1992 46.3008 51.4102 46.8652 51.4102 47.6348V52H50.4258ZM48.375 51.0625C48.875 51.0625 49.2754 50.9238 49.5762 50.6465C49.8809 50.3652 50.0332 49.9727 50.0332 49.4688V48.9062L49.2012 48.9414C48.5527 48.9648 48.0801 49.0742 47.7832 49.2695C47.4902 49.4609 47.3438 49.7559 47.3438 50.1543C47.3438 50.4434 47.4297 50.668 47.6016 50.8281C47.7734 50.9844 48.0312 51.0625 48.375 51.0625Z" fill="#05172A"/>
<path d="M59.0332 52H57.6504V48.0156C57.6504 47.5156 57.5488 47.1426 57.3457 46.8965C57.1465 46.6504 56.8281 46.5273 56.3906 46.5273C55.8086 46.5273 55.3828 46.6992 55.1133 47.043C54.8438 47.3867 54.709 47.9629 54.709 48.7715V52H53.332V45.5195H54.4102L54.6035 46.3691H54.6738C54.8691 46.0605 55.1465 45.8223 55.5059 45.6543C55.8652 45.4863 56.2637 45.4023 56.7012 45.4023C58.2559 45.4023 59.0332 46.1934 59.0332 47.7754V52Z" fill="#05172A"/>
<path d="M20 44.5002C20 46.0321 20.8436 47.3342 22.0183 47.8086C22.0063 47.8705 22 47.9345 22 48H16C16 49.6569 17.567 51 19.5 51C21.0319 51 22.334 50.1564 22.8083 48.9816C22.8704 48.9937 22.9344 49 23 49V55.0002C24.6569 55.0002 26 53.4332 26 51.5002C26 49.9683 25.1564 48.6663 23.9816 48.1919C23.9937 48.1298 24 48.0656 24 48H30C30 46.3431 28.433 45 26.5 45C24.9681 45 23.666 45.8436 23.1917 47.0184C23.1296 47.0063 23.0656 47 23 47V41.0002C21.3431 41.0002 20 42.5672 20 44.5002Z" fill="#305680"/>
<path d="M61.4473 15.6211C61.4473 16.3945 61.168 17.0039 60.6094 17.4492C60.0547 17.8945 59.2812 18.1172 58.2891 18.1172C57.375 18.1172 56.5664 17.9453 55.8633 17.6016V15.9141C56.4414 16.1719 56.9297 16.3535 57.3281 16.459C57.7305 16.5645 58.0977 16.6172 58.4297 16.6172C58.8281 16.6172 59.1328 16.541 59.3438 16.3887C59.5586 16.2363 59.666 16.0098 59.666 15.709C59.666 15.541 59.6191 15.3926 59.5254 15.2637C59.4316 15.1309 59.293 15.0039 59.1094 14.8828C58.9297 14.7617 58.5605 14.5684 58.002 14.3027C57.4785 14.0566 57.0859 13.8203 56.8242 13.5938C56.5625 13.3672 56.3535 13.1035 56.1973 12.8027C56.041 12.502 55.9629 12.1504 55.9629 11.748C55.9629 10.9902 56.2188 10.3945 56.7305 9.96094C57.2461 9.52734 57.957 9.31055 58.8633 9.31055C59.3086 9.31055 59.7324 9.36328 60.1348 9.46875C60.541 9.57422 60.9648 9.72266 61.4062 9.91406L60.8203 11.3262C60.3633 11.1387 59.9844 11.0078 59.6836 10.9336C59.3867 10.8594 59.0938 10.8223 58.8047 10.8223C58.4609 10.8223 58.1973 10.9023 58.0137 11.0625C57.8301 11.2227 57.7383 11.4316 57.7383 11.6895C57.7383 11.8496 57.7754 11.9902 57.8496 12.1113C57.9238 12.2285 58.041 12.3438 58.2012 12.457C58.3652 12.5664 58.75 12.7656 59.3555 13.0547C60.1562 13.4375 60.7051 13.8223 61.002 14.209C61.2988 14.5918 61.4473 15.0625 61.4473 15.6211Z" fill="#05172A"/>
<path d="M62.7832 9.75586C62.7832 9.17383 63.1074 8.88281 63.7559 8.88281C64.4043 8.88281 64.7285 9.17383 64.7285 9.75586C64.7285 10.0332 64.6465 10.25 64.4824 10.4062C64.3223 10.5586 64.0801 10.6348 63.7559 10.6348C63.1074 10.6348 62.7832 10.3418 62.7832 9.75586ZM64.6465 18H62.8594V11.4492H64.6465V18Z" fill="#05172A"/>
<path d="M68.3145 18H66.5273V8.88281H68.3145V18Z" fill="#05172A"/>
<path d="M71.6191 14.7129C71.6191 15.3613 71.7246 15.8516 71.9355 16.1836C72.1504 16.5156 72.498 16.6816 72.9785 16.6816C73.4551 16.6816 73.7969 16.5176 74.0039 16.1895C74.2148 15.8574 74.3203 15.3652 74.3203 14.7129C74.3203 14.0645 74.2148 13.5781 74.0039 13.2539C73.793 12.9297 73.4473 12.7676 72.9668 12.7676C72.4902 12.7676 72.1465 12.9297 71.9355 13.2539C71.7246 13.5742 71.6191 14.0605 71.6191 14.7129ZM76.1484 14.7129C76.1484 15.7793 75.8672 16.6133 75.3047 17.2148C74.7422 17.8164 73.959 18.1172 72.9551 18.1172C72.3262 18.1172 71.7715 17.9805 71.291 17.707C70.8105 17.4297 70.4414 17.0332 70.1836 16.5176C69.9258 16.002 69.7969 15.4004 69.7969 14.7129C69.7969 13.6426 70.0762 12.8105 70.6348 12.2168C71.1934 11.623 71.9785 11.3262 72.9902 11.3262C73.6191 11.3262 74.1738 11.4629 74.6543 11.7363C75.1348 12.0098 75.5039 12.4023 75.7617 12.9141C76.0195 13.4258 76.1484 14.0254 76.1484 14.7129Z" fill="#05172A"/>
</svg>
