<svg width="92" height="92" viewBox="0 0 92 92" fill="none" xmlns="http://www.w3.org/2000/svg">
<g clip-path="url(#clip0)">
<g filter="url(#filter0_d)">
<path fill-rule="evenodd" clip-rule="evenodd" d="M47.1395 14.0266L47.4744 13.4466C49.1312 10.5768 52.8008 9.59355 55.6705 11.2504L64.3308 16.2504C67.2005 17.9073 68.1838 21.5768 66.5269 24.4466L66.1931 25.0248C66.6037 25.6627 66.9851 26.3216 67.3352 26.9995H68C71.3137 26.9995 74 29.6858 74 32.9995V42.9995C74 46.3133 71.3137 48.9995 68 48.9995H67.3356C66.9855 49.6775 66.6042 50.3364 66.1936 50.9743L66.5269 51.5517C68.1838 54.4214 67.2005 58.091 64.3308 59.7478L55.6705 64.7478C52.8008 66.4047 49.1312 65.4214 47.4744 62.5517L47.1404 61.9732C46.7622 61.991 46.382 61.9999 46 61.9999C45.6184 61.9999 45.2386 61.991 44.8609 61.9733L44.5269 62.5517C42.8701 65.4214 39.2005 66.4047 36.3308 64.7478L27.6705 59.7478C24.8008 58.091 23.8175 54.4214 25.4744 51.5517L25.8071 50.9754C25.3962 50.3371 25.0147 49.6779 24.6644 48.9995H24C20.6863 48.9995 18 46.3133 18 42.9995V32.9995C18 29.6858 20.6863 26.9995 24 26.9995H24.6648C25.0151 26.3212 25.3967 25.662 25.8076 25.0237L25.4744 24.4466C23.8175 21.5768 24.8008 17.9073 27.6705 16.2504L36.3308 11.2504C39.2005 9.59355 42.8701 10.5768 44.5269 13.4466L44.8618 14.0265C45.2392 14.0089 45.6187 13.9999 46 13.9999C46.3817 13.9999 46.7616 14.0089 47.1395 14.0266ZM50.0002 17.0717C49.5833 17.7937 48.763 18.1718 47.9331 18.0922C47.297 18.0311 46.6521 17.9999 46 17.9999C45.3483 17.9999 44.7038 18.0311 44.068 18.092C43.2381 18.1716 42.4179 17.7936 42.001 17.0716L41.0628 15.4466C40.5105 14.49 39.2874 14.1622 38.3308 14.7145L29.6705 19.7145C28.7139 20.2668 28.3862 21.49 28.9385 22.4466L29.8763 24.071C30.2939 24.7941 30.2101 25.6951 29.7242 26.3741C28.977 27.4182 28.3279 28.5372 27.7901 29.7177C27.4442 30.4771 26.7062 30.9995 25.8717 30.9995H24C22.8954 30.9995 22 31.895 22 32.9995V42.9995C22 44.1041 22.8954 44.9995 24 44.9995H25.8713C26.7059 44.9995 27.4439 45.522 27.7898 46.2815C28.3275 47.462 28.9766 48.581 29.7237 49.6251C30.2096 50.3041 30.2933 51.205 29.8758 51.9282L28.9385 53.5517C28.3862 54.5083 28.7139 55.7314 29.6705 56.2837L38.3308 61.2837C39.2874 61.836 40.5105 61.5083 41.0628 60.5517L42.0001 58.9282C42.417 58.2062 43.2373 57.8282 44.0672 57.9077C44.7033 57.9687 45.348 57.9999 46 57.9999C46.6524 57.9999 47.2975 57.9687 47.9339 57.9076C48.7638 57.828 49.5842 58.206 50.0011 58.9281L50.9385 60.5517C51.4908 61.5083 52.7139 61.836 53.6705 61.2837L62.3308 56.2837C63.2874 55.7314 63.6151 54.5083 63.0628 53.5517L62.1249 51.9271C61.7074 51.2041 61.7911 50.3032 62.277 49.6242C63.0238 48.5803 63.6726 47.4616 64.2102 46.2815C64.5561 45.522 65.2941 44.9995 66.1287 44.9995H68C69.1046 44.9995 70 44.1041 70 42.9995V32.9995C70 31.895 69.1046 30.9995 68 30.9995H66.1283C65.2938 30.9995 64.5558 30.4771 64.2099 29.7177C63.6723 28.5376 63.0233 27.4189 62.2765 26.3751C61.7906 25.696 61.7069 24.7951 62.1244 24.072L63.0628 22.4466C63.6151 21.49 63.2874 20.2668 62.3308 19.7145L53.6705 14.7145C52.7139 14.1622 51.4908 14.49 50.9385 15.4466L50.0002 17.0717Z" fill="#009688"/>
<path fill-rule="evenodd" clip-rule="evenodd" d="M46 52C53.732 52 60 45.732 60 38C60 30.268 53.732 24 46 24C38.268 24 32 30.268 32 38C32 45.732 38.268 52 46 52ZM46 44C49.3137 44 52 41.3137 52 38C52 34.6863 49.3137 32 46 32C42.6863 32 40 34.6863 40 38C40 41.3137 42.6863 44 46 44Z" fill="#009688"/>
</g>
</g>
<defs>
<filter id="filter0_d" x="-4" y="-2" width="100" height="100" filterUnits="userSpaceOnUse" color-interpolation-filters="sRGB">
<feFlood flood-opacity="0" result="BackgroundImageFix"/>
<feColorMatrix in="SourceAlpha" type="matrix" values="0 0 0 0 0 0 0 0 0 0 0 0 0 0 0 0 0 0 127 0"/>
<feOffset dy="10"/>
<feGaussianBlur stdDeviation="10"/>
<feColorMatrix type="matrix" values="0 0 0 0 0 0 0 0 0 0 0 0 0 0 0 0 0 0 0.1 0"/>
<feBlend mode="normal" in2="BackgroundImageFix" result="effect1_dropShadow"/>
<feBlend mode="normal" in="SourceGraphic" in2="effect1_dropShadow" result="shape"/>
</filter>
<clipPath id="clip0">
<rect width="92" height="92" fill="white"/>
</clipPath>
</defs>
</svg>
