<?xml version="1.0" encoding="UTF-8"?>
<svg xmlns="http://www.w3.org/2000/svg" xmlns:xlink="http://www.w3.org/1999/xlink" width="92px" height="119px" viewBox="0 0 92 119" version="1.1">
<g id="surface1">
<path style=" stroke:none;fill-rule:nonzero;fill:rgb(83%,91%,91%);fill-opacity:1;" d="M 29.765625 48.683594 L 62.234375 56.796875 L 62.234375 67.613281 L 59.53125 75.726562 L 59.53125 81.136719 L 35.175781 81.136719 L 35.175781 75.726562 L 29.765625 70.316406 Z M 29.765625 48.683594 "/>
<path style=" stroke:none;fill-rule:evenodd;fill:rgb(0%,58.823532%,53.333336%);fill-opacity:1;" d="M 82.0625 72.152344 C 78.78125 77.835938 71.511719 79.78125 65.828125 76.5 C 62.019531 74.300781 59.886719 70.3125 59.882812 66.210938 L 26.246094 46.800781 C 22.691406 48.851562 18.167969 49 14.359375 46.800781 C 10.550781 44.601562 8.417969 40.613281 8.414062 36.511719 L 14.757812 40.171875 C 17.601562 41.8125 21.234375 40.839844 22.875 38 C 24.515625 35.15625 23.542969 31.523438 20.699219 29.882812 L 14.355469 26.222656 C 17.914062 24.175781 22.433594 24.027344 26.246094 26.226562 C 30.054688 28.421875 32.1875 32.410156 32.191406 36.515625 L 65.824219 55.921875 C 69.382812 53.875 73.902344 53.726562 77.714844 55.925781 C 83.398438 59.203125 85.347656 66.46875 82.0625 72.152344 Z M 76.917969 69.183594 C 75.277344 72.023438 71.640625 72.996094 68.800781 71.355469 C 65.957031 69.714844 64.984375 66.082031 66.625 63.242188 C 68.265625 60.402344 71.902344 59.429688 74.742188 61.070312 C 77.585938 62.707031 78.558594 66.339844 76.917969 69.183594 Z M 10.015625 30.5625 L 10.007812 30.574219 L 10.003906 30.585938 Z M 10.015625 30.5625 "/>
<path style=" stroke:none;fill-rule:nonzero;fill:rgb(83%,91%,91%);fill-opacity:1;" d="M 56.824219 48.683594 C 56.824219 47.1875 58.035156 45.976562 59.53125 45.976562 C 61.023438 45.976562 62.234375 47.1875 62.234375 48.683594 L 62.234375 67.613281 L 59.53125 75.726562 L 56.824219 67.613281 Z M 56.824219 48.683594 "/>
<path style=" stroke:none;fill-rule:nonzero;fill:rgb(83%,91%,91%);fill-opacity:1;" d="M 48.707031 44.625 C 48.707031 42.382812 50.523438 40.566406 52.765625 40.566406 C 55.007812 40.566406 56.824219 42.382812 56.824219 44.625 L 56.824219 66.261719 C 56.824219 68.5 55.007812 70.316406 52.765625 70.316406 C 50.523438 70.316406 48.707031 68.5 48.707031 66.261719 Z M 48.707031 44.625 "/>
<path style=" stroke:none;fill-rule:nonzero;fill:rgb(83%,91%,91%);fill-opacity:1;" d="M 40.589844 41.921875 C 40.589844 39.679688 42.40625 37.863281 44.648438 37.863281 C 46.886719 37.863281 48.707031 39.679688 48.707031 41.921875 L 48.707031 60.851562 C 48.707031 63.09375 46.886719 64.910156 44.648438 64.910156 C 42.40625 64.910156 40.589844 63.09375 40.589844 60.851562 Z M 40.589844 41.921875 "/>
<path style=" stroke:none;fill-rule:nonzero;fill:rgb(83%,91%,91%);fill-opacity:1;" d="M 32.46875 41.921875 C 32.46875 39.679688 34.289062 37.863281 36.53125 37.863281 C 38.769531 37.863281 40.589844 39.679688 40.589844 41.921875 L 40.589844 60.851562 C 40.589844 63.09375 38.769531 64.910156 36.53125 64.910156 C 34.289062 64.910156 32.46875 63.09375 32.46875 60.851562 Z M 32.46875 41.921875 "/>
<path style=" stroke:none;fill-rule:nonzero;fill:rgb(0%,58.823532%,53.333336%);fill-opacity:1;" d="M 32.46875 86.546875 C 32.46875 85.050781 33.683594 83.839844 35.175781 83.839844 L 59.53125 83.839844 C 61.023438 83.839844 62.234375 85.050781 62.234375 86.546875 L 62.234375 94.660156 C 62.234375 96.152344 61.023438 97.363281 59.53125 97.363281 L 35.175781 97.363281 C 33.683594 97.363281 32.46875 96.152344 32.46875 94.660156 Z M 32.46875 86.546875 "/>
</g>
</svg>
