<?xml version="1.0" encoding="UTF-8"?>
<svg xmlns="http://www.w3.org/2000/svg" xmlns:xlink="http://www.w3.org/1999/xlink" width="92px" height="119px" viewBox="0 0 92 119" version="1.1">
<g id="surface1">
<path style=" stroke:none;fill-rule:nonzero;fill:rgb(81.176472%,89.803922%,84.705883%);fill-opacity:1;" d="M 46 42.070312 C 45.003906 42.070312 44.195312 41.261719 44.195312 40.269531 L 44.195312 33.054688 C 44.195312 30.734375 46.085938 28.847656 48.40625 28.847656 L 65.242188 28.847656 C 66.238281 28.847656 67.046875 29.65625 67.046875 30.652344 C 67.046875 31.648438 66.238281 32.453125 65.242188 32.453125 L 48.40625 32.453125 C 48.074219 32.453125 47.804688 32.722656 47.804688 33.054688 L 47.804688 40.269531 C 47.804688 41.261719 46.996094 42.070312 46 42.070312 Z M 46 42.070312 "/>
<path style=" stroke:none;fill-rule:nonzero;fill:rgb(81.176472%,89.803922%,84.705883%);fill-opacity:1;" d="M 26.757812 61.304688 L 19.542969 61.304688 C 17.222656 61.304688 15.332031 59.414062 15.332031 57.097656 L 15.332031 40.265625 C 15.332031 39.273438 16.140625 38.464844 17.136719 38.464844 C 18.132812 38.464844 18.941406 39.273438 18.941406 40.265625 L 18.941406 57.097656 C 18.941406 57.425781 19.210938 57.695312 19.542969 57.695312 L 26.757812 57.695312 C 27.753906 57.695312 28.5625 58.503906 28.5625 59.5 C 28.5625 60.496094 27.753906 61.304688 26.757812 61.304688 Z M 26.757812 61.304688 "/>
<path style=" stroke:none;fill-rule:nonzero;fill:rgb(81.176472%,89.803922%,84.705883%);fill-opacity:1;" d="M 43.59375 90.152344 L 26.757812 90.152344 C 25.761719 90.152344 24.953125 89.34375 24.953125 88.347656 C 24.953125 87.351562 25.761719 86.546875 26.757812 86.546875 L 43.59375 86.546875 C 43.925781 86.546875 44.195312 86.277344 44.195312 85.945312 L 44.195312 78.730469 C 44.195312 77.738281 45.003906 76.929688 46 76.929688 C 46.996094 76.929688 47.804688 77.738281 47.804688 78.730469 L 47.804688 85.945312 C 47.804688 88.265625 45.914062 90.152344 43.59375 90.152344 Z M 43.59375 90.152344 "/>
<path style=" stroke:none;fill-rule:nonzero;fill:rgb(81.176472%,89.803922%,84.705883%);fill-opacity:1;" d="M 74.863281 80.535156 C 73.867188 80.535156 73.058594 79.726562 73.058594 78.734375 L 73.058594 61.90625 C 73.058594 61.574219 72.789062 61.304688 72.457031 61.304688 L 65.242188 61.304688 C 64.246094 61.304688 63.4375 60.496094 63.4375 59.5 C 63.4375 58.503906 64.246094 57.695312 65.242188 57.695312 L 72.457031 57.695312 C 74.777344 57.695312 76.667969 59.585938 76.667969 61.90625 L 76.667969 78.734375 C 76.667969 79.726562 75.859375 80.535156 74.863281 80.535156 Z M 74.863281 80.535156 "/>
<path style=" stroke:none;fill-rule:nonzero;fill:rgb(0%,58.823532%,53.333336%);fill-opacity:1;" d="M 46 80.535156 C 34.394531 80.535156 24.953125 71.097656 24.953125 59.5 C 24.953125 47.902344 34.394531 38.464844 46 38.464844 C 57.605469 38.464844 67.046875 47.902344 67.046875 59.5 C 67.046875 71.097656 57.605469 80.535156 46 80.535156 Z M 46 42.070312 C 36.386719 42.070312 28.5625 49.890625 28.5625 59.5 C 28.5625 69.109375 36.386719 76.929688 46 76.929688 C 55.613281 76.929688 63.4375 69.109375 63.4375 59.5 C 63.4375 49.890625 55.613281 42.070312 46 42.070312 Z M 46 42.070312 "/>
<path style=" stroke:none;fill-rule:nonzero;fill:rgb(0%,58.823532%,53.333336%);fill-opacity:1;" d="M 46 80.535156 C 40.078125 80.535156 36.980469 69.953125 36.980469 59.5 C 36.980469 49.046875 40.078125 38.464844 46 38.464844 C 51.921875 38.464844 55.019531 49.046875 55.019531 59.5 C 55.019531 69.953125 51.921875 80.535156 46 80.535156 Z M 46 42.070312 C 43.847656 42.070312 40.589844 49.023438 40.589844 59.5 C 40.589844 69.976562 43.847656 76.929688 46 76.929688 C 48.152344 76.929688 51.410156 69.976562 51.410156 59.5 C 51.410156 49.023438 48.152344 42.070312 46 42.070312 Z M 46 42.070312 "/>
<path style=" stroke:none;fill-rule:nonzero;fill:rgb(0%,58.823532%,53.333336%);fill-opacity:1;" d="M 64.207031 67.480469 L 27.792969 67.480469 C 26.796875 67.480469 25.988281 66.671875 25.988281 65.679688 C 25.988281 64.683594 26.796875 63.875 27.792969 63.875 L 64.207031 63.875 C 65.203125 63.875 66.011719 64.683594 66.011719 65.679688 C 66.011719 66.671875 65.203125 67.480469 64.207031 67.480469 Z M 64.207031 67.480469 "/>
<path style=" stroke:none;fill-rule:nonzero;fill:rgb(0%,58.823532%,53.333336%);fill-opacity:1;" d="M 64.207031 55.125 L 27.792969 55.125 C 26.796875 55.125 25.988281 54.316406 25.988281 53.320312 C 25.988281 52.328125 26.796875 51.519531 27.792969 51.519531 L 64.207031 51.519531 C 65.203125 51.519531 66.011719 52.328125 66.011719 53.320312 C 66.011719 54.316406 65.203125 55.125 64.207031 55.125 Z M 64.207031 55.125 "/>
<path style=" stroke:none;fill-rule:nonzero;fill:rgb(0%,58.823532%,53.333336%);fill-opacity:1;" d="M 77.269531 39.667969 L 67.648438 39.667969 C 65.328125 39.667969 63.4375 37.777344 63.4375 35.460938 L 63.4375 25.84375 C 63.4375 23.523438 65.328125 21.636719 67.648438 21.636719 L 77.269531 21.636719 C 79.589844 21.636719 81.476562 23.523438 81.476562 25.84375 L 81.476562 35.460938 C 81.476562 37.777344 79.589844 39.667969 77.269531 39.667969 Z M 67.648438 25.242188 C 67.316406 25.242188 67.046875 25.511719 67.046875 25.84375 L 67.046875 35.460938 C 67.046875 35.789062 67.316406 36.0625 67.648438 36.0625 L 77.269531 36.0625 C 77.597656 36.0625 77.871094 35.789062 77.871094 35.460938 L 77.871094 25.84375 C 77.871094 25.511719 77.597656 25.242188 77.269531 25.242188 Z M 67.648438 25.242188 "/>
<path style=" stroke:none;fill-rule:nonzero;fill:rgb(0%,58.823532%,53.333336%);fill-opacity:1;" d="M 21.949219 42.070312 L 12.328125 42.070312 C 10.007812 42.070312 8.117188 40.183594 8.117188 37.863281 L 8.117188 28.246094 C 8.117188 25.929688 10.007812 24.039062 12.328125 24.039062 L 21.949219 24.039062 C 24.269531 24.039062 26.15625 25.929688 26.15625 28.246094 L 26.15625 37.863281 C 26.15625 40.183594 24.269531 42.070312 21.949219 42.070312 Z M 12.328125 27.644531 C 11.996094 27.644531 11.726562 27.917969 11.726562 28.246094 L 11.726562 37.863281 C 11.726562 38.195312 11.996094 38.464844 12.328125 38.464844 L 21.949219 38.464844 C 22.277344 38.464844 22.550781 38.195312 22.550781 37.863281 L 22.550781 28.246094 C 22.550781 27.917969 22.277344 27.644531 21.949219 27.644531 Z M 12.328125 27.644531 "/>
<path style=" stroke:none;fill-rule:nonzero;fill:rgb(0%,58.823532%,53.333336%);fill-opacity:1;" d="M 24.351562 97.363281 L 14.730469 97.363281 C 12.410156 97.363281 10.523438 95.476562 10.523438 93.15625 L 10.523438 83.539062 C 10.523438 81.222656 12.410156 79.332031 14.730469 79.332031 L 24.351562 79.332031 C 26.675781 79.332031 28.5625 81.222656 28.5625 83.539062 L 28.5625 93.15625 C 28.5625 95.476562 26.671875 97.363281 24.351562 97.363281 Z M 14.730469 82.941406 C 14.402344 82.941406 14.128906 83.210938 14.128906 83.539062 L 14.128906 93.15625 C 14.128906 93.488281 14.402344 93.757812 14.730469 93.757812 L 24.351562 93.757812 C 24.683594 93.757812 24.953125 93.488281 24.953125 93.15625 L 24.953125 83.539062 C 24.953125 83.210938 24.683594 82.941406 24.351562 82.941406 Z M 14.730469 82.941406 "/>
<path style=" stroke:none;fill-rule:nonzero;fill:rgb(0%,58.823532%,53.333336%);fill-opacity:1;" d="M 79.671875 94.960938 L 70.050781 94.960938 C 67.730469 94.960938 65.84375 93.070312 65.84375 90.753906 L 65.84375 81.136719 C 65.84375 78.816406 67.730469 76.929688 70.050781 76.929688 L 79.671875 76.929688 C 81.992188 76.929688 83.882812 78.816406 83.882812 81.136719 L 83.882812 90.753906 C 83.882812 93.070312 81.992188 94.960938 79.671875 94.960938 Z M 70.050781 80.535156 C 69.722656 80.535156 69.449219 80.804688 69.449219 81.136719 L 69.449219 90.753906 C 69.449219 91.082031 69.722656 91.355469 70.050781 91.355469 L 79.671875 91.355469 C 80.003906 91.355469 80.273438 91.082031 80.273438 90.753906 L 80.273438 81.136719 C 80.273438 80.804688 80.003906 80.535156 79.671875 80.535156 Z M 70.050781 80.535156 "/>
</g>
</svg>
