<?xml version="1.0" encoding="UTF-8"?>
<svg xmlns="http://www.w3.org/2000/svg" xmlns:xlink="http://www.w3.org/1999/xlink" width="92px" height="92px" viewBox="0 0 92 92" version="1.1">
<g id="surface1">
<path style=" stroke:none;fill-rule:nonzero;fill:rgb(59.215689%,89.019608%,86.274511%);fill-opacity:1;" d="M 69.851562 15.332031 C 69.851562 11.570312 72.902344 8.519531 76.667969 8.519531 C 80.429688 8.519531 83.480469 11.570312 83.480469 15.332031 C 83.480469 19.097656 80.429688 22.148438 76.667969 22.148438 C 75.402344 22.148438 74.21875 21.804688 73.203125 21.203125 L 67.648438 26.761719 L 72.757812 31.871094 L 72.761719 31.871094 L 74.464844 33.574219 C 74.785156 33.894531 74.964844 34.328125 74.964844 34.78125 L 74.964844 42.59375 C 73.539062 41.523438 71.769531 40.890625 69.851562 40.890625 L 69.851562 36.804688 C 69.613281 36.191406 69.355469 35.589844 69.074219 35 L 57 22.925781 C 56.410156 22.644531 55.808594 22.386719 55.195312 22.148438 L 51.109375 22.148438 C 51.109375 20.230469 50.476562 18.460938 49.40625 17.035156 L 57.21875 17.035156 C 57.617188 17.035156 57.996094 17.175781 58.300781 17.421875 C 58.34375 17.457031 58.386719 17.496094 58.425781 17.535156 L 65.234375 24.347656 L 65.238281 24.351562 L 70.796875 18.796875 C 70.195312 17.78125 69.851562 16.597656 69.851562 15.332031 Z M 69.851562 15.332031 "/>
<path style=" stroke:none;fill-rule:nonzero;fill:rgb(59.215689%,89.019608%,86.274511%);fill-opacity:1;" d="M 35.777344 17.035156 L 34.78125 17.035156 C 34.75 17.035156 34.722656 17.039062 34.695312 17.039062 C 34.273438 17.058594 33.875 17.238281 33.574219 17.535156 L 26.765625 24.347656 L 26.761719 24.351562 L 21.203125 18.796875 C 21.804688 17.78125 22.148438 16.597656 22.148438 15.332031 C 22.148438 11.570312 19.097656 8.519531 15.332031 8.519531 C 11.570312 8.519531 8.519531 11.570312 8.519531 15.332031 C 8.519531 19.097656 11.570312 22.148438 15.332031 22.148438 C 16.597656 22.148438 17.78125 21.804688 18.796875 21.203125 L 24.351562 26.761719 L 24.347656 26.765625 L 17.535156 33.574219 C 17.214844 33.894531 17.035156 34.328125 17.035156 34.78125 L 17.035156 35.777344 C 18.460938 34.707031 20.230469 34.074219 22.148438 34.074219 C 22.679688 34.074219 23.203125 34.125 23.710938 34.21875 L 34.21875 23.710938 C 34.125 23.203125 34.074219 22.679688 34.074219 22.148438 C 34.074219 20.230469 34.707031 18.460938 35.777344 17.035156 Z M 35.777344 17.035156 "/>
<path style=" stroke:none;fill-rule:nonzero;fill:rgb(59.215689%,89.019608%,86.274511%);fill-opacity:1;" d="M 17.035156 49.40625 C 18.460938 50.476562 20.230469 51.109375 22.148438 51.109375 L 22.148438 55.195312 C 22.386719 55.808594 22.644531 56.410156 22.925781 57 L 35 69.074219 C 35.589844 69.355469 36.191406 69.613281 36.804688 69.851562 L 40.890625 69.851562 C 40.890625 71.769531 41.523438 73.539062 42.59375 74.964844 L 34.78125 74.964844 C 34.328125 74.964844 33.894531 74.785156 33.574219 74.464844 L 31.871094 72.761719 L 31.871094 72.757812 L 26.761719 67.648438 L 21.203125 73.203125 C 21.804688 74.21875 22.148438 75.402344 22.148438 76.667969 C 22.148438 80.429688 19.097656 83.480469 15.332031 83.480469 C 11.570312 83.480469 8.519531 80.429688 8.519531 76.667969 C 8.519531 72.902344 11.570312 69.851562 15.332031 69.851562 C 16.597656 69.851562 17.78125 70.195312 18.796875 70.796875 L 24.351562 65.238281 L 24.347656 65.234375 L 17.535156 58.425781 C 17.496094 58.386719 17.457031 58.34375 17.421875 58.300781 C 17.175781 57.996094 17.035156 57.617188 17.035156 57.21875 Z M 17.035156 49.40625 "/>
<path style=" stroke:none;fill-rule:nonzero;fill:rgb(59.215689%,89.019608%,86.274511%);fill-opacity:1;" d="M 56.222656 74.964844 L 57.21875 74.964844 C 57.671875 74.964844 58.105469 74.785156 58.425781 74.464844 L 65.234375 67.652344 L 65.238281 67.648438 L 70.796875 73.203125 C 70.195312 74.21875 69.851562 75.402344 69.851562 76.667969 C 69.851562 80.429688 72.902344 83.480469 76.667969 83.480469 C 80.429688 83.480469 83.480469 80.429688 83.480469 76.667969 C 83.480469 72.902344 80.429688 69.851562 76.667969 69.851562 C 75.402344 69.851562 74.21875 70.195312 73.203125 70.796875 L 67.648438 65.238281 L 67.652344 65.234375 L 74.464844 58.425781 C 74.785156 58.105469 74.964844 57.671875 74.964844 57.21875 L 74.964844 56.222656 C 73.539062 57.292969 71.769531 57.925781 69.851562 57.925781 C 69.320312 57.925781 68.796875 57.875 68.289062 57.78125 L 57.78125 68.289062 C 57.875 68.796875 57.925781 69.320312 57.925781 69.851562 C 57.925781 71.769531 57.292969 73.539062 56.222656 74.964844 Z M 56.222656 74.964844 "/>
<path style=" stroke:none;fill-rule:evenodd;fill:rgb(0%,58.823532%,53.333336%);fill-opacity:1;" d="M 42.59375 27.257812 C 45.414062 27.257812 47.703125 24.972656 47.703125 22.148438 C 47.703125 19.324219 45.414062 17.035156 42.59375 17.035156 C 39.769531 17.035156 37.480469 19.324219 37.480469 22.148438 C 37.480469 23.097656 37.738281 23.984375 38.1875 24.746094 L 34.023438 28.910156 C 33.523438 29.410156 33.523438 30.21875 34.023438 30.71875 L 41.390625 38.085938 L 38.085938 41.390625 L 30.71875 34.023438 C 30.21875 33.523438 29.410156 33.523438 28.910156 34.023438 L 24.746094 38.1875 C 23.984375 37.738281 23.097656 37.480469 22.148438 37.480469 C 19.324219 37.480469 17.035156 39.769531 17.035156 42.59375 C 17.035156 45.414062 19.324219 47.703125 22.148438 47.703125 C 24.972656 47.703125 27.257812 45.414062 27.257812 42.59375 C 27.257812 41.644531 27 40.757812 26.550781 39.996094 L 29.816406 36.734375 L 36.28125 43.199219 L 32.496094 46.980469 C 31.832031 47.648438 31.832031 48.726562 32.496094 49.390625 L 34.074219 50.96875 L 32.085938 52.957031 C 31.539062 53.503906 31.539062 54.394531 32.085938 54.945312 C 32.636719 55.492188 33.523438 55.492188 34.074219 54.945312 L 36.0625 52.957031 L 39.042969 55.9375 L 37.054688 57.925781 C 36.507812 58.476562 36.507812 59.363281 37.054688 59.914062 C 37.605469 60.460938 38.496094 60.460938 39.042969 59.914062 L 41.03125 57.925781 L 42.808594 59.703125 C 43.472656 60.367188 44.550781 60.367188 45.21875 59.703125 L 49 55.917969 L 55.265625 62.183594 L 52.003906 65.449219 C 51.242188 65 50.355469 64.742188 49.40625 64.742188 C 46.585938 64.742188 44.296875 67.027344 44.296875 69.851562 C 44.296875 72.675781 46.585938 74.964844 49.40625 74.964844 C 52.230469 74.964844 54.519531 72.675781 54.519531 69.851562 C 54.519531 68.902344 54.261719 68.015625 53.8125 67.253906 L 57.976562 63.089844 C 58.476562 62.589844 58.476562 61.78125 57.976562 61.28125 L 50.808594 54.113281 L 54.113281 50.808594 L 61.28125 57.976562 C 61.78125 58.476562 62.589844 58.476562 63.089844 57.976562 L 67.253906 53.8125 C 68.015625 54.261719 68.902344 54.519531 69.851562 54.519531 C 72.675781 54.519531 74.964844 52.230469 74.964844 49.40625 C 74.964844 46.585938 72.675781 44.296875 69.851562 44.296875 C 67.027344 44.296875 64.742188 46.585938 64.742188 49.40625 C 64.742188 50.355469 65 51.242188 65.449219 52.003906 L 62.183594 55.265625 L 55.917969 49 L 59.703125 45.214844 C 60.367188 44.550781 60.367188 43.472656 59.703125 42.804688 L 57.925781 41.03125 L 59.914062 39.042969 C 60.460938 38.492188 60.460938 37.605469 59.914062 37.054688 C 59.363281 36.507812 58.476562 36.507812 57.925781 37.054688 L 55.9375 39.042969 L 52.957031 36.0625 L 54.945312 34.074219 C 55.492188 33.523438 55.492188 32.636719 54.945312 32.085938 C 54.394531 31.539062 53.503906 31.539062 52.957031 32.085938 L 50.96875 34.074219 L 49.390625 32.496094 C 48.726562 31.828125 47.648438 31.828125 46.980469 32.496094 L 43.199219 36.28125 L 36.734375 29.816406 L 39.996094 26.550781 C 40.757812 27 41.644531 27.257812 42.59375 27.257812 Z M 42.59375 24.703125 C 44.003906 24.703125 45.148438 23.558594 45.148438 22.148438 C 45.148438 20.738281 44.003906 19.59375 42.59375 19.59375 C 41.179688 19.59375 40.035156 20.738281 40.035156 22.148438 C 40.035156 23.558594 41.179688 24.703125 42.59375 24.703125 Z M 50.222656 39.726562 C 50.050781 39.042969 49.355469 38.625 48.671875 38.796875 C 47.988281 38.96875 47.570312 39.660156 47.742188 40.347656 L 48.488281 43.328125 L 41.453125 46.84375 C 40.917969 47.113281 40.640625 47.714844 40.785156 48.296875 L 41.777344 52.273438 C 41.949219 52.957031 42.644531 53.375 43.328125 53.203125 C 44.011719 53.03125 44.429688 52.335938 44.257812 51.652344 L 43.511719 48.671875 L 50.546875 45.15625 C 51.082031 44.886719 51.359375 44.28125 51.214844 43.703125 Z M 24.703125 42.59375 C 24.703125 44.003906 23.558594 45.148438 22.148438 45.148438 C 20.738281 45.148438 19.59375 44.003906 19.59375 42.59375 C 19.59375 41.179688 20.738281 40.035156 22.148438 40.035156 C 23.558594 40.035156 24.703125 41.179688 24.703125 42.59375 Z M 69.851562 51.964844 C 71.261719 51.964844 72.40625 50.820312 72.40625 49.40625 C 72.40625 47.996094 71.261719 46.851562 69.851562 46.851562 C 68.441406 46.851562 67.296875 47.996094 67.296875 49.40625 C 67.296875 50.820312 68.441406 51.964844 69.851562 51.964844 Z M 51.964844 69.851562 C 51.964844 71.261719 50.820312 72.40625 49.40625 72.40625 C 47.996094 72.40625 46.851562 71.261719 46.851562 69.851562 C 46.851562 68.441406 47.996094 67.296875 49.40625 67.296875 C 50.820312 67.296875 51.964844 68.441406 51.964844 69.851562 Z M 51.964844 69.851562 "/>
</g>
</svg>
