<svg width="80" height="80" viewBox="0 0 80 80" fill="none" xmlns="http://www.w3.org/2000/svg">
<path d="M40 22.7586C49.5069 22.7586 57.2414 30.4931 57.2414 40C57.2414 49.5069 49.5069 57.2414 40 57.2414C30.4931 57.2414 22.7586 49.5069 22.7586 40C22.7586 30.4931 30.4931 22.7586 40 22.7586ZM40 20C28.9545 20 20 28.9545 20 40C20 51.0455 28.9545 60 40 60C51.0455 60 60 51.0455 60 40C60 28.9545 51.0455 20 40 20Z" fill="#305680"/>
<path d="M40 24.0544C39.6193 24.0544 39.3103 24.3627 39.3103 24.7441V25.4338C39.3103 25.8151 39.6193 26.1234 40 26.1234C40.3807 26.1234 40.6897 25.8151 40.6897 25.4338V24.7441C40.6897 24.3627 40.3807 24.0544 40 24.0544Z" fill="#237DE0"/>
<path d="M40 53.7097C39.6193 53.7097 39.3103 54.018 39.3103 54.3994V55.089C39.3103 55.4704 39.6193 55.7787 40 55.7787C40.3807 55.7787 40.6897 55.4704 40.6897 55.089V54.3994C40.6897 54.018 40.3807 53.7097 40 53.7097Z" fill="#237DE0"/>
<path d="M55.1724 39.2268H54.4827C54.1021 39.2268 53.7931 39.5351 53.7931 39.9165C53.7931 40.2978 54.1021 40.6061 54.4827 40.6061H55.1724C55.5531 40.6061 55.8621 40.2978 55.8621 39.9165C55.8621 39.5351 55.5531 39.2268 55.1724 39.2268Z" fill="#237DE0"/>
<path d="M25.5172 39.2268H24.8276C24.4469 39.2268 24.1379 39.5351 24.1379 39.9165C24.1379 40.2978 24.4469 40.6061 24.8276 40.6061H25.5172C25.8979 40.6061 26.2069 40.2978 26.2069 39.9165C26.2069 39.5351 25.8979 39.2268 25.5172 39.2268Z" fill="#237DE0"/>
<path d="M50.2407 28.7L49.7531 29.1876C49.4834 29.4573 49.4834 29.8931 49.7531 30.1628C49.8876 30.2973 50.0641 30.3649 50.2407 30.3649C50.4172 30.3649 50.5938 30.2973 50.7283 30.1628L51.2159 29.6752C51.4855 29.4056 51.4855 28.9697 51.2159 28.7C50.9462 28.4304 50.5103 28.4304 50.2407 28.7Z" fill="#237DE0"/>
<path d="M29.2717 49.6695L28.7841 50.1571C28.5145 50.4268 28.5145 50.8626 28.7841 51.1323C28.9186 51.2668 29.0952 51.3343 29.2717 51.3343C29.4483 51.3343 29.6248 51.2668 29.7593 51.1323L30.2469 50.6447C30.5165 50.375 30.5165 49.9392 30.2469 49.6695C29.9772 49.3999 29.5407 49.4005 29.2717 49.6695Z" fill="#237DE0"/>
<path d="M50.7283 49.6695C50.4586 49.3999 50.0228 49.3999 49.7531 49.6695C49.4834 49.9392 49.4834 50.375 49.7531 50.6447L50.2407 51.1323C50.3752 51.2668 50.5517 51.3344 50.7283 51.3344C50.9048 51.3344 51.0814 51.2668 51.2159 51.1323C51.4855 50.8626 51.4855 50.4268 51.2159 50.1571L50.7283 49.6695Z" fill="#237DE0"/>
<path d="M29.7593 28.7C29.4897 28.4304 29.0538 28.4304 28.7841 28.7C28.5145 28.9697 28.5145 29.4056 28.7841 29.6752L29.2717 30.1628C29.4062 30.2973 29.5828 30.3649 29.7593 30.3649C29.9359 30.3649 30.1124 30.2973 30.2469 30.1628C30.5165 29.8931 30.5165 29.4573 30.2469 29.1876L29.7593 28.7Z" fill="#237DE0"/>
<path d="M37.931 39.9165H32.4138" stroke="#305680" stroke-width="2" stroke-miterlimit="10" stroke-linecap="round" stroke-linejoin="round"/>
<path d="M40 37.8477V30.2615" stroke="#305680" stroke-width="2" stroke-miterlimit="10" stroke-linecap="round" stroke-linejoin="round"/>
<path d="M40 41.9856C41.1427 41.9856 42.069 41.0593 42.069 39.9166C42.069 38.774 41.1427 37.8477 40 37.8477C38.8573 37.8477 37.931 38.774 37.931 39.9166C37.931 41.0593 38.8573 41.9856 40 41.9856Z" stroke="#305680" stroke-width="2" stroke-miterlimit="10" stroke-linecap="round" stroke-linejoin="round"/>
</svg>
