<svg width="100" height="104" viewBox="0 0 100 104" fill="none" xmlns="http://www.w3.org/2000/svg">
<g filter="url(#filter0_d)">
<path fill-rule="evenodd" clip-rule="evenodd" d="M76.0008 22.0005L76.0004 21.9996L75.9995 21.9992L76.0008 22.0005ZM78.6134 19.3866C78.4177 18.9139 78.0416 18.5158 77.5317 18.3043C77.0573 18.1076 76.5387 18 76 18L71.6667 18C70.5621 18 69.6667 18.8954 69.6667 20C69.6667 21.1046 70.5621 22 71.6667 22L76.0008 22.0005L76 26.3333C76 27.4379 76.8954 28.3333 78 28.3333C79.1046 28.3333 80 27.4379 80 26.3333L80 22C80 21.4613 79.8924 20.9427 79.6957 20.4683C79.4842 19.9584 79.0861 19.5823 78.6134 19.3866ZM78 33C79.1046 33 80 33.8954 80 35L80 41.6667C80 42.7712 79.1046 43.6667 78 43.6667C76.8954 43.6667 76 42.7712 76 41.6667L76 35C76 33.8954 76.8954 33 78 33ZM78 48.3333C79.1046 48.3333 80 49.2288 80 50.3333L80 57C80 58.1046 79.1046 59 78 59C76.8954 59 76 58.1046 76 57L76 50.3333C76 49.2288 76.8954 48.3333 78 48.3333ZM78 63.6667C79.1046 63.6667 80 64.5621 80 65.6667L80 70C80 70.5387 79.8924 71.0573 79.6957 71.5317C79.4842 72.0417 79.0861 72.4177 78.6134 72.6134C78.4177 73.0861 78.0416 73.4842 77.5317 73.6957C77.0573 73.8924 76.5387 74 76 74L71.6667 74C70.5621 74 69.6667 73.1046 69.6667 72C69.6667 70.8954 70.5621 70 71.6667 70L76 70L76 65.6667C76 64.5621 76.8954 63.6667 78 63.6667ZM65 20C65 21.1046 64.1046 22 63 22L54.3333 22C53.2288 22 52.3333 21.1046 52.3333 20C52.3333 18.8954 53.2288 18 54.3333 18L63 18C64.1046 18 65 18.8954 65 20ZM65 72C65 73.1046 64.1046 74 63 74L59.3333 74C58.2288 74 57.3333 73.1046 57.3333 72C57.3333 70.8954 58.2288 70 59.3333 70L63 70C64.1046 70 65 70.8954 65 72ZM47.6667 20C47.6667 21.1046 46.7712 22 45.6667 22L37 22C35.8954 22 35 21.1046 35 20C35 18.8954 35.8954 18 37 18L45.6667 18C46.7712 18 47.6667 18.8954 47.6667 20ZM30.3333 20C30.3333 21.1046 29.4379 22 28.3333 22L24 22L24 26.3333C24 27.4379 23.1046 28.3333 22 28.3333C20.8954 28.3333 20 27.4379 20 26.3333L20 22C20 21.4613 20.1076 20.9427 20.3043 20.4683C20.5158 19.9584 20.9139 19.5823 21.3866 19.3866C21.5823 18.9139 21.9584 18.5158 22.4683 18.3043C22.9427 18.1076 23.4613 18 24 18L28.3333 18C29.4379 18 30.3333 18.8954 30.3333 20ZM22 33C23.1046 33 24 33.8954 24 35L24 41.6667C24 42.7712 23.1046 43.6667 22 43.6667C20.8954 43.6667 20 42.7712 20 41.6667L20 35C20 33.8954 20.8954 33 22 33Z" fill="#184440"/>
<path fill-rule="evenodd" clip-rule="evenodd" d="M20 53C20 51.3431 21.3431 50 23 50H49C50.6569 50 52 51.3431 52 53V55C52 56.6569 50.6569 58 49 58H23C21.3431 58 20 56.6569 20 55V53ZM25 54C25 54.5523 24.5523 55 24 55C23.4477 55 23 54.5523 23 54C23 53.4477 23.4477 53 24 53C24.5523 53 25 53.4477 25 54ZM28 55C28.5523 55 29 54.5523 29 54C29 53.4477 28.5523 53 28 53C27.4477 53 27 53.4477 27 54C27 54.5523 27.4477 55 28 55Z" fill="#009688"/>
<path fill-rule="evenodd" clip-rule="evenodd" d="M20 61C20 59.3431 21.3431 58 23 58H49C50.6569 58 52 59.3431 52 61V63C52 64.6569 50.6569 66 49 66H23C21.3431 66 20 64.6569 20 63V61ZM37 62C37 61.4477 37.4477 61 38 61H44C44.5523 61 45 61.4477 45 62C45 62.5523 44.5523 63 44 63H38C37.4477 63 37 62.5523 37 62ZM48 63C48.5523 63 49 62.5523 49 62C49 61.4477 48.5523 61 48 61C47.4477 61 47 61.4477 47 62C47 62.5523 47.4477 63 48 63Z" fill="#009688"/>
<path fill-rule="evenodd" clip-rule="evenodd" d="M23 66C21.3431 66 20 67.3431 20 69V71C20 72.6569 21.3431 74 23 74H49C50.6569 74 52 72.6569 52 71V69C52 67.3431 50.6569 66 49 66H23ZM28 69C27.4477 69 27 69.4477 27 70C27 70.5523 27.4477 71 28 71H44C44.5523 71 45 70.5523 45 70C45 69.4477 44.5523 69 44 69H28ZM25 70C25 70.5523 24.5523 71 24 71C23.4477 71 23 70.5523 23 70C23 69.4477 23.4477 69 24 69C24.5523 69 25 69.4477 25 70ZM48 71C48.5523 71 49 70.5523 49 70C49 69.4477 48.5523 69 48 69C47.4477 69 47 69.4477 47 70C47 70.5523 47.4477 71 48 71Z" fill="#009688"/>
<path d="M71.0007 26.0005C71.5529 26.0005 72.0006 26.4482 72.0006 27.0005L72.0006 32.5865C72.0006 33.4774 70.9234 33.9235 70.2935 33.2936L64.707 27.7073C64.077 27.0773 64.5233 26.0001 65.4142 26.0002L71.0007 26.0005Z" fill="#009688"/>
<path d="M53.9996 41L66.7276 28.2721L69.556 31.1005L56.8281 43.8284L53.9996 41Z" fill="#009688"/>
<path d="M52.9993 46.0002C52.4471 46.0001 51.9994 45.5524 51.9994 45.0002L51.9994 39.4142C51.9994 38.5233 53.0766 38.0771 53.7065 38.7071L59.293 44.2934C59.923 44.9234 59.4767 46.0006 58.5858 46.0005L52.9993 46.0002Z" fill="#009688"/>
</g>
<defs>
<filter id="filter0_d" x="0" y="6" width="100" height="100" filterUnits="userSpaceOnUse" color-interpolation-filters="sRGB">
<feFlood flood-opacity="0" result="BackgroundImageFix"/>
<feColorMatrix in="SourceAlpha" type="matrix" values="0 0 0 0 0 0 0 0 0 0 0 0 0 0 0 0 0 0 127 0"/>
<feOffset dy="10"/>
<feGaussianBlur stdDeviation="10"/>
<feColorMatrix type="matrix" values="0 0 0 0 0 0 0 0 0 0 0 0 0 0 0 0 0 0 0.1 0"/>
<feBlend mode="normal" in2="BackgroundImageFix" result="effect1_dropShadow"/>
<feBlend mode="normal" in="SourceGraphic" in2="effect1_dropShadow" result="shape"/>
</filter>
</defs>
</svg>
