<svg width="28" height="28" viewBox="0 0 28 28" fill="none" xmlns="http://www.w3.org/2000/svg">
<path fill-rule="evenodd" clip-rule="evenodd" d="M5.41894 10.4233C5.95506 7.44086 8.54255 5.15771 11.6685 5.15771C13.1825 5.15771 14.607 5.69441 15.7352 6.65663C16.2962 6.44642 16.89 6.33666 17.497 6.33666C19.9709 6.33666 22.0306 8.08697 22.5538 10.4086C24.0323 11.1913 25.0525 12.7513 25.0525 14.5156C25.0525 16.9854 23.2575 19.1577 20.6315 19.1577V16.9472C21.8623 16.9472 22.842 15.9465 22.842 14.5156C22.842 13.4888 22.1552 12.5576 21.1921 12.2189L20.5243 11.984L20.4583 11.2792C20.3142 9.73934 19.0291 8.54719 17.497 8.54719C17.0008 8.54719 16.5145 8.67823 16.0665 8.93681L15.2933 9.38318L14.6944 8.72113C13.9078 7.85176 12.8299 7.36824 11.6685 7.36824C9.50052 7.36824 7.69724 9.0766 7.53884 11.258L7.48647 11.9791L6.80472 12.22C5.84372 12.5596 5.15779 13.4899 5.15779 14.5156C5.15779 15.9465 6.13744 16.9472 7.36832 16.9472V19.1577C4.74233 19.1577 2.94727 16.9854 2.94727 14.5156C2.94727 12.7614 3.95601 11.2103 5.41894 10.4233Z" fill="black"/>
<path fill-rule="evenodd" clip-rule="evenodd" d="M9.57864 19.1577C9.17169 19.1577 8.8418 19.4876 8.8418 19.8946V21.3682C8.8418 21.7752 9.17169 22.1051 9.57864 22.1051H18.4207C18.8277 22.1051 19.1576 21.7752 19.1576 21.3682V19.8946C19.1576 19.4876 18.8277 19.1577 18.4207 19.1577H9.57864ZM16.9471 19.8946C16.5401 19.8946 16.2102 20.2245 16.2102 20.6314C16.2102 21.0383 16.5401 21.3682 16.9471 21.3682C17.354 21.3682 17.6839 21.0383 17.6839 20.6314C17.6839 20.2245 17.354 19.8946 16.9471 19.8946Z" fill="black"/>
<path fill-rule="evenodd" clip-rule="evenodd" d="M9.57864 15.4736C9.17169 15.4736 8.8418 15.8035 8.8418 16.2105V17.6842C8.8418 18.0911 9.17169 18.421 9.57864 18.421H18.4207C18.8277 18.421 19.1576 18.0911 19.1576 17.6842V16.2105C19.1576 15.8035 18.8277 15.4736 18.4207 15.4736H9.57864ZM10.6839 16.9473C10.4804 16.9473 10.3155 17.1123 10.3155 17.3157C10.3155 17.5192 10.4804 17.6842 10.6839 17.6842H14.3681C14.5716 17.6842 14.7365 17.5192 14.7365 17.3157C14.7365 17.1123 14.5716 16.9473 14.3681 16.9473H10.6839Z" fill="black"/>
</svg>
