<svg width="28" height="28" viewBox="0 0 28 28" fill="none" xmlns="http://www.w3.org/2000/svg">
<path fill-rule="evenodd" clip-rule="evenodd" d="M4.68353 10.7169C5.2656 7.47884 8.07488 5 11.4688 5C13.1126 5 14.6592 5.5827 15.884 6.6274C16.4931 6.39917 17.1378 6.28 17.7969 6.28C20.4828 6.28 22.719 8.18033 23.287 10.701C24.8924 11.5507 26 13.2445 26 15.16C26 17.8415 23.8511 20.2 21 20.2V17.8C22.3364 17.8 23.6 16.7135 23.6 15.16C23.6 14.0452 22.8543 13.0341 21.8087 12.6664L21.0836 12.4114L21.012 11.6462C20.8555 9.97434 19.4603 8.68 17.7969 8.68C17.2581 8.68 16.7301 8.82227 16.2438 9.10302L15.4043 9.58765L14.754 8.86885C13.9 7.92496 12.7297 7.4 11.4688 7.4C9.11497 7.4 7.15711 9.25479 6.98514 11.6231L6.92828 12.4061L6.1881 12.6677C5.14472 13.0364 4.4 14.0464 4.4 15.16C4.4 16.7135 5.66362 17.8 7 17.8V20.2C4.14893 20.2 2 17.8415 2 15.16C2 13.2554 3.09521 11.5714 4.68353 10.7169Z" fill="black"/>
<path fill-rule="evenodd" clip-rule="evenodd" d="M8 20.8C8 20.3582 8.35817 20 8.8 20H19.2C19.6418 20 20 20.3582 20 20.8V22.2C20 22.6418 19.6418 23 19.2 23H8.8C8.35817 23 8 22.6418 8 22.2V20.8ZM17.5 22C17.7761 22 18 21.7761 18 21.5C18 21.2239 17.7761 21 17.5 21C17.2239 21 17 21.2239 17 21.5C17 21.7761 17.2239 22 17.5 22Z" fill="black"/>
<path fill-rule="evenodd" clip-rule="evenodd" d="M8.00039 16.8C8.00039 16.3582 8.35856 16 8.80039 16H19.2C19.6418 16 20 16.3582 20 16.8L19.9996 18.2C19.9996 18.6418 19.6414 19 19.1996 19H8.8C8.35817 19 8 18.6418 8 18.2L8.00039 16.8ZM10.5 17C10.2239 17 10 17.2239 10 17.5C10 17.7761 10.2239 18 10.5 18H13.5C13.7761 18 14 17.7761 14 17.5C14 17.2239 13.7761 17 13.5 17H10.5Z" fill="black"/>
</svg>
