<svg width="28" height="28" viewBox="0 0 28 28" fill="none" xmlns="http://www.w3.org/2000/svg">
    <path d="M14.0026 5.83333C13.5385 5.83333 13.0934 6.01771 12.7652 6.3459C12.437 6.67408 12.2526 7.1192 12.2526 7.58333C12.2526 8.04746 12.437 8.49258 12.7652 8.82077C13.0934 9.14896 13.5385 9.33333 14.0026 9.33333C14.4667 9.33333 14.9119 9.14896 15.2401 8.82077C15.5682 8.49258 15.7526 8.04746 15.7526 7.58333C15.7526 7.1192 15.5682 6.67408 15.2401 6.3459C14.9119 6.01771 14.4667 5.83333 14.0026 5.83333ZM9.91929 7.58333C9.91929 7.0471 10.0249 6.51612 10.2301 6.02071C10.4353 5.5253 10.7361 5.07515 11.1153 4.69598C11.4944 4.31681 11.9446 4.01603 12.44 3.81083C12.9354 3.60562 13.4664 3.5 14.0026 3.5C14.5389 3.5 15.0698 3.60562 15.5652 3.81083C16.0607 4.01603 16.5108 4.31681 16.89 4.69598C17.2691 5.07515 17.5699 5.5253 17.7751 6.02071C17.9803 6.51612 18.086 7.0471 18.086 7.58333C18.086 8.6663 17.6557 9.70491 16.89 10.4707C16.1242 11.2365 15.0856 11.6667 14.0026 11.6667C12.9197 11.6667 11.881 11.2365 11.1153 10.4707C10.3495 9.70491 9.91929 8.6663 9.91929 7.58333ZM5.83595 9.33333C5.52654 9.33333 5.22979 9.45625 5.011 9.67504C4.7922 9.89383 4.66929 10.1906 4.66929 10.5C4.66929 10.8094 4.7922 11.1062 5.011 11.325C5.22979 11.5437 5.52654 11.6667 5.83595 11.6667C6.14537 11.6667 6.44212 11.5437 6.66091 11.325C6.8797 11.1062 7.00262 10.8094 7.00262 10.5C7.00262 10.1906 6.8797 9.89383 6.66091 9.67504C6.44212 9.45625 6.14537 9.33333 5.83595 9.33333ZM2.33595 10.5C2.33595 9.57174 2.7047 8.6815 3.36108 8.02513C4.01746 7.36875 4.9077 7 5.83595 7C6.76421 7 7.65445 7.36875 8.31083 8.02513C8.96721 8.6815 9.33595 9.57174 9.33595 10.5C9.33595 11.4283 8.96721 12.3185 8.31083 12.9749C7.65445 13.6313 6.76421 14 5.83595 14C4.9077 14 4.01746 13.6313 3.36108 12.9749C2.7047 12.3185 2.33595 11.4283 2.33595 10.5ZM21.0026 10.5C21.0026 10.1906 21.1255 9.89383 21.3443 9.67504C21.5631 9.45625 21.8599 9.33333 22.1693 9.33333C22.4787 9.33333 22.7755 9.45625 22.9942 9.67504C23.213 9.89383 23.336 10.1906 23.336 10.5C23.336 10.8094 23.213 11.1062 22.9942 11.325C22.7755 11.5437 22.4787 11.6667 22.1693 11.6667C21.8599 11.6667 21.5631 11.5437 21.3443 11.325C21.1255 11.1062 21.0026 10.8094 21.0026 10.5ZM22.1693 7C21.241 7 20.3508 7.36875 19.6944 8.02513C19.038 8.6815 18.6693 9.57174 18.6693 10.5C18.6693 11.4283 19.038 12.3185 19.6944 12.9749C20.3508 13.6313 21.241 14 22.1693 14C23.0975 14 23.9878 13.6313 24.6442 12.9749C25.3005 12.3185 25.6693 11.4283 25.6693 10.5C25.6693 9.57174 25.3005 8.6815 24.6442 8.02513C23.9878 7.36875 23.0975 7 22.1693 7ZM9.33595 16.9167C9.33595 15.3067 10.6426 14 12.2526 14H15.7526C17.3626 14 18.6693 15.3067 18.6693 16.9167V19.8333C18.6693 21.071 18.1776 22.258 17.3025 23.1332C16.4273 24.0083 15.2403 24.5 14.0026 24.5C12.7649 24.5 11.578 24.0083 10.7028 23.1332C9.82762 22.258 9.33595 21.071 9.33595 19.8333V16.9167ZM12.2526 16.3333C12.0979 16.3333 11.9495 16.3948 11.8401 16.5042C11.7307 16.6136 11.6693 16.762 11.6693 16.9167V19.8333C11.6693 20.4522 11.9151 21.0457 12.3527 21.4832C12.7903 21.9208 13.3838 22.1667 14.0026 22.1667C14.6215 22.1667 15.215 21.9208 15.6525 21.4832C16.0901 21.0457 16.336 20.4522 16.336 19.8333V16.9167C16.336 16.762 16.2745 16.6136 16.1651 16.5042C16.0557 16.3948 15.9073 16.3333 15.7526 16.3333H12.2526ZM7.00262 16.9167C7.00262 16.2423 7.12862 15.5983 7.36196 15.008L4.48962 15.778C3.74286 15.9782 3.10613 16.4666 2.71936 17.1361C2.33258 17.8055 2.22741 18.6011 2.42695 19.348L2.87962 21.0397C3.03828 21.6317 3.31201 22.1867 3.68519 22.6729C4.05836 23.1592 4.52367 23.5671 5.05453 23.8735C5.58539 24.1799 6.1714 24.3787 6.7791 24.4585C7.3868 24.5384 8.00429 24.4978 8.59629 24.339L8.63595 24.3273C8.0977 23.6861 7.67885 22.9535 7.39929 22.1643C6.88367 22.167 6.3817 21.9987 5.9718 21.6859C5.5619 21.3731 5.26716 20.9334 5.13362 20.4353L4.68095 18.7437C4.64106 18.5942 4.66216 18.435 4.73961 18.3011C4.81706 18.1673 4.94452 18.0696 5.09395 18.0297L7.00262 17.5163V16.9167ZM19.4066 24.3367L19.3693 24.3297C19.9013 23.6927 20.3236 22.9623 20.606 22.1643C21.1212 22.1665 21.6226 21.998 22.032 21.6852C22.4415 21.3725 22.7359 20.933 22.8693 20.4353L23.3196 18.7437C23.3595 18.5942 23.3384 18.435 23.261 18.3011C23.1835 18.1673 23.0561 18.0696 22.9066 18.0297L21.0026 17.5187V16.9167C21.0026 16.2423 20.8766 15.6007 20.6456 15.008L23.511 15.778C24.2577 15.9782 24.8944 16.4666 25.2812 17.1361C25.668 17.8055 25.7732 18.6011 25.5736 19.348L25.121 21.0397C24.9623 21.6317 24.6886 22.1867 24.3154 22.6729C23.9422 23.1592 23.4769 23.5671 22.9461 23.8735C22.4152 24.1799 21.8292 24.3787 21.2215 24.4585C20.6138 24.5384 19.9963 24.4978 19.4043 24.339" fill="black"/>
</svg>
