<svg width="96" height="96" viewBox="0 0 96 96" fill="none" xmlns="http://www.w3.org/2000/svg">
    <rect width="96" height="96" rx="10.6667" fill="#2A7DEC" fill-opacity="0.12"/>
    <path d="M60.8012 52.5634C63.7665 47.9893 66.0781 43.288 66.0781 39.7455C66.0781 29.8581 58.0188 21.8438 48.0781 21.8438C38.1375 21.8438 30.0781 29.8581 30.0781 39.7455C30.0781 47.399 40.8659 60.4609 45.7385 65.9706C46.9785 67.3733 49.1778 67.3733 50.4178 65.9706C52.4477 63.6758 55.5045 60.0692 58.3794 56.0894" stroke="#2A7DEC" stroke-width="3" stroke-miterlimit="10" stroke-linecap="round" stroke-linejoin="round"/>
    <path d="M59.1013 42.9149L58.9261 42.8141C58.3993 42.5115 58.1106 41.9265 58.1775 41.3254C58.2585 40.5848 58.2584 39.868 58.1775 39.1298C58.1106 38.5277 58.3993 37.9428 58.9261 37.6402L59.1013 37.5393C59.8277 37.1218 60.0769 36.197 59.6575 35.4728L58.1258 32.8314C57.7065 32.1083 56.7765 31.8602 56.0502 32.2778L55.875 32.3786C55.3472 32.6822 54.6928 32.6378 54.2035 32.2788C53.614 31.8451 52.9738 31.476 52.2941 31.1794C51.7379 30.9374 51.3743 30.3948 51.3743 29.7907V29.59C51.3743 28.7549 50.6935 28.0771 49.8548 28.0771H46.7915C45.9527 28.0771 45.272 28.7549 45.272 29.59V29.7907C45.272 30.3948 44.9084 30.9374 44.3522 31.1794C43.6725 31.476 43.0323 31.8451 42.4417 32.2788C41.9524 32.6378 41.2981 32.6822 40.7713 32.3786L40.5961 32.2778C39.8697 31.8602 38.9398 32.1083 38.5204 32.8314L36.9888 35.4728C36.5694 36.197 36.8186 37.1218 37.5449 37.5393L37.7202 37.6402C38.2459 37.9428 38.5356 38.5277 38.4688 39.1288C38.3875 39.853 38.3878 40.6062 38.4688 41.3254C38.5356 41.9265 38.2459 42.5115 37.7202 42.8141L37.5449 42.9149C36.8186 43.3324 36.5694 44.2583 36.9888 44.9814L38.5204 47.6228C38.9398 48.3459 39.8697 48.594 40.5961 48.1765L40.7713 48.0757C41.2981 47.7731 41.9524 47.8165 42.4417 48.1755C43.0323 48.6092 43.6725 48.9793 44.3522 49.2748C44.9084 49.5169 45.272 50.0595 45.272 50.6646V50.8643C45.272 51.7004 45.9527 52.3771 46.7915 52.3771H49.8548C50.6935 52.3771 51.3743 51.7004 51.3743 50.8643V50.6646C51.3743 50.0595 51.7379 49.5169 52.2941 49.2748C52.9738 48.9793 53.614 48.6092 54.2035 48.1765C54.6928 47.8165 55.3472 47.7731 55.875 48.0757L56.0502 48.1765C56.7765 48.594 57.7065 48.347 58.1258 47.6228L59.6575 44.9814C60.0769 44.2582 59.8277 43.3324 59.1013 42.9149Z" stroke="#2A7DEC" stroke-width="3" stroke-miterlimit="10" stroke-linecap="round" stroke-linejoin="round"/>
    <circle cx="48.3239" cy="40.2272" r="3.23795" stroke="#2A7DEC" stroke-width="3"/>
    <path d="M41.5577 61.3228C36.4753 62.5295 32.9492 65.1702 32.9492 68.2335C32.9492 72.4365 39.5869 75.8437 47.775 75.8437C55.963 75.8437 62.6007 72.4365 62.6007 68.2335C62.6007 65.3682 59.5159 62.8728 54.9581 61.5746" stroke="#2A7DEC" stroke-width="3"/>
</svg>
