<svg width="18" height="18" viewBox="0 0 18 18" fill="none" xmlns="http://www.w3.org/2000/svg">
<path d="M16.3215 13.9883V7.67798L15.3049 8.18631V13.9876L14.627 15.7308H16.9992L16.3215 13.9883Z" fill="#2A7DEC"/>
<path d="M7.95692 10.9508L3.7832 8.86404V10.9468C3.7832 12.3505 6.05911 13.4884 8.86652 13.4884C11.674 13.4884 13.9498 12.3505 13.9498 10.9468V8.86401L9.7758 10.9509C9.06137 11.2339 8.67143 11.2339 7.95692 10.9508Z" fill="#2A7DEC"/>
<path opacity="0.16" d="M9.32083 10.0417L16.5448 6.42973C16.7949 6.30468 16.7949 6.10011 16.5448 5.97504L9.32083 2.36308C9.0708 2.23802 8.66159 2.23802 8.41148 2.36308L1.18752 5.97504C0.937494 6.1001 0.937494 6.30466 1.18752 6.42973L8.41148 10.0417C8.6616 10.1668 9.0708 10.1668 9.32083 10.0417Z" fill="#2A7DEC"/>
</svg>
