<svg width="24" height="24" viewBox="0 0 24 24" fill="none" xmlns="http://www.w3.org/2000/svg">
    <path d="M18.36 10.1436L20.6724 10.5216C20.764 10.5367 20.8472 10.5838 20.9072 10.6546C20.9672 10.7254 21.0001 10.8152 21 10.908V13.0596C21 13.1517 20.9674 13.2408 20.9082 13.3112C20.8489 13.3817 20.7667 13.429 20.676 13.4448L18.36 13.8516C18.2264 14.3172 18.0428 14.7616 17.8092 15.1848L19.1784 17.0856C19.233 17.1611 19.2589 17.2535 19.2514 17.3463C19.2439 17.4391 19.2036 17.5263 19.1376 17.592L17.616 19.1136C17.551 19.1789 17.4651 19.2191 17.3733 19.2272C17.2815 19.2354 17.1899 19.2108 17.1144 19.158L15.1944 17.8104C14.7693 18.0465 14.3193 18.2348 13.8528 18.372L13.4448 20.6772C13.4287 20.7679 13.3811 20.85 13.3104 20.909C13.2398 20.9681 13.1505 21.0003 13.0584 21H10.908C10.8155 21.0001 10.726 20.9673 10.6555 20.9075C10.5849 20.8478 10.5379 20.7648 10.5228 20.6736L10.14 18.3804C9.67156 18.2448 9.2196 18.0576 8.7924 17.8224L6.8868 19.158C6.81135 19.2108 6.71966 19.2354 6.62791 19.2272C6.53615 19.2191 6.4502 19.1789 6.3852 19.1136L4.8624 17.592C4.79773 17.5261 4.75813 17.4396 4.75046 17.3476C4.74279 17.2555 4.76753 17.1637 4.8204 17.088L6.168 15.204C5.93022 14.7748 5.74105 14.3204 5.604 13.8492L3.3228 13.4448C3.23232 13.4287 3.15039 13.3813 3.09136 13.3109C3.03234 13.2405 2.99999 13.1515 3 13.0596V10.908C3 10.716 3.138 10.5528 3.3276 10.5216L5.6088 10.1412C5.7472 9.6692 5.9352 9.218 6.1728 8.7876L4.8408 6.8844C4.78828 6.80905 4.76395 6.71762 4.77207 6.62613C4.78018 6.53464 4.82023 6.44893 4.8852 6.384L6.408 4.8636C6.47344 4.79808 6.56001 4.75789 6.6523 4.7502C6.74459 4.74251 6.83661 4.76781 6.912 4.8216L8.802 6.1716C9.2284 5.938 9.6768 5.754 10.1472 5.6196L10.5216 3.3276C10.5367 3.23604 10.5838 3.15282 10.6546 3.09281C10.7254 3.0328 10.8152 2.9999 10.908 3H13.0596C13.2504 3 13.4124 3.1368 13.446 3.324L13.8492 5.628C14.3172 5.7632 14.7652 5.9492 15.1932 6.186L17.0868 4.824C17.1621 4.76926 17.2545 4.74317 17.3473 4.75043C17.4401 4.75769 17.5273 4.79782 17.5932 4.8636L19.1148 6.3852C19.1799 6.45035 19.2199 6.53637 19.2278 6.62813C19.2357 6.71988 19.211 6.81148 19.158 6.8868L17.808 8.8104C18.04 9.2344 18.224 9.6784 18.36 10.1424V10.1436ZM9.2592 12C9.2592 12.7266 9.54784 13.4234 10.0616 13.9372C10.5754 14.451 11.2722 14.7396 11.9988 14.7396C12.7254 14.7396 13.4222 14.451 13.936 13.9372C14.4498 13.4234 14.7384 12.7266 14.7384 12C14.7384 11.2734 14.4498 10.5766 13.936 10.0628C13.4222 9.54904 12.7254 9.2604 11.9988 9.2604C11.2722 9.2604 10.5754 9.54904 10.0616 10.0628C9.54784 10.5766 9.2592 11.2734 9.2592 12Z" stroke="#2A7DEC" stroke-width="1.5"/>
</svg>
