<svg width="12" height="12" viewBox="0 0 12 12" fill="none" xmlns="http://www.w3.org/2000/svg">
<path d="M6.49976 4.5H5.49976V3.5H6.49976V4.5ZM6.49976 5.5H5.49976V8.5H6.49976V5.5ZM5.99976 2C3.79426 2 1.99976 3.7945 1.99976 6C1.99976 8.2055 3.79426 10 5.99976 10C8.20526 10 9.99976 8.2055 9.99976 6C9.99976 3.7945 8.20526 2 5.99976 2ZM5.99976 1C8.76126 1 10.9998 3.2385 10.9998 6C10.9998 8.7615 8.76126 11 5.99976 11C3.23826 11 0.999756 8.7615 0.999756 6C0.999756 3.2385 3.23826 1 5.99976 1Z" fill="black" fill-opacity="0.76"/>
</svg>
