<svg width="428" height="428" viewBox="0 0 428 428" fill="none" xmlns="http://www.w3.org/2000/svg">
    <g clip-path="url(#clip0_19926_55531)">
        <path d="M416.363 213.334C417.968 213.334 419.44 213.733 420.911 214.267C422.382 214.8 423.72 215.733 424.79 216.8C425.86 217.866 426.796 219.2 427.331 220.667C427.866 222.134 428.134 223.6 428.134 225.2C428.134 263.333 417.3 299.067 398.843 329.467C405.798 338 409.676 348.8 409.676 360C409.676 386.933 387.607 408.934 360.59 408.934C349.221 408.934 338.387 405.067 329.693 398C299.332 416.133 263.888 426.667 225.903 426.667C224.299 426.667 222.828 426.4 221.356 426C219.885 425.467 218.548 424.533 217.478 423.467C216.408 422.267 215.472 421.067 214.937 419.601C214.268 418.134 214 416.667 214 415.067C214 413.467 214.402 412 214.937 410.533C215.472 409.067 216.408 407.734 217.478 406.667C218.548 405.6 219.885 404.667 221.356 404.134C222.828 403.601 224.299 403.334 225.903 403.334C258.672 403.334 289.302 394.534 315.65 379.2C312.975 373.2 311.504 366.667 311.504 360C311.504 333.067 333.572 311.067 360.59 311.067C367.277 311.201 373.831 312.667 379.983 315.334C395.632 288.801 404.594 258.134 404.594 225.2C404.594 223.6 404.861 222.134 405.396 220.667C405.931 219.2 406.868 217.866 407.938 216.8C409.141 215.733 410.345 214.8 411.816 214.267C413.287 213.6 414.759 213.334 416.363 213.334ZM360.59 334.4C346.412 334.4 335.044 345.601 335.044 359.867C335.044 365.6 336.916 371.2 340.527 375.733C340.661 375.867 340.661 375.867 340.795 376C345.61 382.133 352.699 385.467 360.59 385.467C374.767 385.467 386.137 374.267 386.137 360C386.137 352.267 382.658 344.934 376.64 340.134C372.092 336.401 366.475 334.4 360.59 334.4ZM293.982 74.666C300.269 74.3994 305.485 79.3331 305.485 85.5996C305.485 88.5329 304.548 91.4663 302.408 93.5996C293.714 102.4 278.735 117.333 275.926 120.133L302.542 146.666C304.014 145.199 320.732 128.533 329.426 119.866C331.432 118 334.107 116.933 336.782 116.8C343.068 116.533 348.285 121.467 348.285 127.733C348.285 130.667 347.349 133.6 345.209 135.733C335.98 144.933 319.931 160.932 318.325 162.533L343.47 187.2C348.82 192.533 348.82 201.066 343.47 206.399L310.3 239.467C310.704 239.869 328.357 257.333 337.317 266.399C339.19 268.399 340.26 271.067 340.394 273.733C340.661 280 335.712 285.2 329.426 285.2C326.483 285.2 323.541 284.266 321.401 282.133C311.905 272.799 295.053 256 294.384 255.333L259.475 290.133C259.475 290.133 277.397 307.866 286.492 317.066C288.365 319.066 289.435 321.733 289.568 324.399C289.836 330.666 284.888 335.866 278.602 335.866C275.659 335.866 272.716 334.933 270.576 332.8C260.946 323.2 243.559 305.866 243.559 305.866L210.389 338.934C205.039 344.267 196.479 344.267 191.129 338.934L166.251 314.133C164.913 315.599 148.195 332.4 139.367 341.066C137.361 342.933 134.686 343.999 132.011 344.133C125.725 344.399 120.509 339.467 120.509 333.2C120.509 330.267 121.445 327.334 123.585 325.2C132.814 316 148.997 299.866 150.469 298.399L123.853 271.866C122.515 273.2 105.663 289.999 96.835 298.666C94.8287 300.533 92.1535 301.6 89.4785 301.733C83.1923 302 77.9766 297.066 77.9766 290.8C77.9766 287.866 78.9127 284.933 81.0527 282.8C90.2815 273.6 106.599 257.333 107.937 256L83.46 231.866C78.1101 226.533 78.1102 218 83.46 212.667L116.63 179.6C114.891 177.866 98.3059 161.466 89.7461 152.8C87.8737 150.8 86.8037 148.133 86.6699 145.467C86.5362 142.267 87.7398 139.333 89.7461 137.333C91.7523 135.333 94.5615 134 97.7715 134C100.714 134 103.656 134.933 105.796 137.066C115.025 146.133 130.941 162 132.68 163.733L167.455 129.066C165.315 126.933 149.131 110.8 140.571 102.267C138.699 100.267 137.629 97.7334 137.495 94.9336C137.228 88.6671 142.176 83.4671 148.462 83.4668C151.404 83.4668 154.347 84.3999 156.487 86.5332C165.449 95.4665 181.231 111.2 183.237 113.2L216.407 80C221.757 74.6667 230.317 74.6668 235.667 80L260.01 104.267C262.818 101.467 278.333 86.0001 286.626 77.7334C288.632 75.8667 291.307 74.7993 293.982 74.666ZM233.126 132C230.05 131.867 226.974 133.2 224.7 135.467C223.63 136.533 222.693 137.867 222.158 139.2L211.325 165.2C209.185 170.133 210.79 175.866 215.337 178.533C219.884 181.2 225.77 180.266 229.515 176.133L234.999 197.6L175.212 215.733C169.327 217.467 165.716 223.6 167.188 229.467L180.83 282.533C182.301 288.4 188.32 291.733 194.339 289.866C200.357 287.999 203.968 281.867 202.363 276L191.263 233.467L251.049 215.333C256.934 213.6 260.544 207.333 259.073 201.6L250.915 169.6C255.997 171.066 261.615 168.667 264.156 163.733C266.697 158.8 265.494 152.933 261.348 150.133L239.278 134C237.54 132.667 235.4 132 233.126 132ZM202.097 0C203.701 4.70837e-05 205.173 0.267038 206.777 0.666992C208.249 1.20033 209.586 2.13353 210.656 3.2002C211.726 4.40008 212.662 5.59992 213.197 7.06641C213.866 8.53295 214.134 9.99976 214.134 11.5996C214.134 13.1996 213.732 14.6671 213.197 16.1338C212.662 17.6003 211.726 18.9334 210.656 20C209.586 21.0667 208.249 21.9999 206.777 22.5332C205.306 23.0665 203.835 23.333 202.23 23.333C169.462 23.333 138.832 32.1335 112.483 47.4668C115.158 53.4668 116.63 60.0003 116.63 66.667C116.63 93.6001 94.5612 115.6 67.5439 115.6C60.8565 115.466 54.3028 114 48.1504 111.333C32.5016 137.866 23.54 168.533 23.54 201.467C23.6738 203.067 23.2723 204.533 22.7373 206C22.2023 207.467 21.2662 208.8 20.1963 209.866C18.9925 210.933 17.7886 211.867 16.3174 212.4C14.8462 213.067 13.3744 213.333 11.7695 213.333C10.1648 213.333 8.69368 212.934 7.22266 212.4C5.75141 211.867 4.41375 210.933 3.34375 209.866C2.27386 208.8 1.3377 207.467 0.802734 206C0.267747 204.533 1.29363e-05 203.067 0 201.467C0 163.334 10.6998 127.733 29.1572 97.2002C22.2023 88.6669 18.3243 77.8669 18.3242 66.667C18.3242 39.7337 40.3927 17.7334 67.4102 17.7334C78.7788 17.7334 89.6129 21.6004 98.3066 28.667C128.668 10.5337 164.112 0 202.097 0ZM67.4102 41.2002C53.2327 41.2002 41.8633 52.4003 41.8633 66.667C41.8634 74.4002 45.3417 81.7333 51.3604 86.5332C55.9078 90.2665 61.5252 92.2666 67.4102 92.2666C81.5876 92.2665 92.9561 81.0664 92.9561 66.7998C92.956 61.0666 91.0837 55.4668 87.4727 50.9336C87.339 50.8003 87.3386 50.8001 87.2051 50.667C82.3901 44.5337 75.3013 41.2002 67.4102 41.2002Z" fill="url(#paint0_linear_19926_55531)" fill-opacity="0.2"/>
    </g>
    <defs>
        <linearGradient id="paint0_linear_19926_55531" x1="361.627" y1="29.8805" x2="361.858" y2="493.368" gradientUnits="userSpaceOnUse">
            <stop stop-color="#3E9AF8"/>
            <stop offset="1" stop-color="#3E9AF8" stop-opacity="0"/>
        </linearGradient>
        <clipPath id="clip0_19926_55531">
            <rect width="428" height="428" fill="white"/>
        </clipPath>
    </defs>
</svg>
