<svg width="28" height="28" viewBox="0 0 28 28" fill="none" xmlns="http://www.w3.org/2000/svg">
<path fill-rule="evenodd" clip-rule="evenodd" d="M14 5C9.02944 5 5 9.02944 5 14C5 18.9706 9.02944 23 14 23C18.9706 23 23 18.9706 23 14C23 9.02944 18.9706 5 14 5ZM3 14C3 7.92487 7.92487 3 14 3C20.0751 3 25 7.92487 25 14C25 20.0751 20.0751 25 14 25C7.92487 25 3 20.0751 3 14Z" fill="black"/>
<path fill-rule="evenodd" clip-rule="evenodd" d="M15 13.5861V7H13V14.4146L17.7929 19.2071L19.2071 17.7929L15 13.5861Z" fill="black"/>
</svg>
