<svg width="28" height="28" viewBox="0 0 28 28" fill="none" xmlns="http://www.w3.org/2000/svg">
<path fill-rule="evenodd" clip-rule="evenodd" d="M10.8 11.3999C8.30137 8.0684 3 9.83553 3 13.9999C3 18.1643 8.30137 19.9314 10.8 16.5999L12.75 13.9999L10.8 11.3999ZM14 12.3332L12.4 10.1999C8.74815 5.33078 1 7.9135 1 13.9999C1 20.0863 8.74815 22.669 12.4 17.7999L14 15.6666L15.6 17.7999C19.2518 22.669 27 20.0863 27 13.9999C27 7.9135 19.2518 5.33078 15.6 10.1999L14 12.3332ZM15.25 13.9999L17.2 16.5999C19.6986 19.9314 25 18.1643 25 13.9999C25 9.83553 19.6986 8.0684 17.2 11.3999L15.25 13.9999Z" fill="black"/>
</svg>
