<svg width="28" height="29" viewBox="0 0 28 29" fill="none" xmlns="http://www.w3.org/2000/svg">
    <path fill-rule="evenodd" clip-rule="evenodd" d="M24.5 17.5V19.5H21.5H20.5H19.5H18.5H17.3C16.9 20.7 15.8 21.5 14.5 21.5C12.8 21.5 11.5 20.2 11.5 18.5C11.5 16.8 12.8 15.5 14.5 15.5C15.8 15.5 16.9 16.3 17.3 17.5H24.5ZM14.5 17.5C15.1 17.5 15.5 18 15.5 18.5C15.5 19 15.1 19.5 14.5 19.5C13.9 19.5 13.5 19 13.5 18.5C13.5 18 13.9 17.5 14.5 17.5Z" fill="black"/>
    <path d="M19.5 19.5H18.5V21.5H20.5V19.5H19.5Z" fill="black"/>
    <path d="M24.5 19.5H21.5V22H23.5V19.5H24.5Z" fill="black"/>
    <path d="M11.4688 5.5C13.1124 5.5 14.659 6.08244 15.8838 7.12695C16.4929 6.89873 17.1378 6.78028 17.7969 6.78027C20.4828 6.78027 22.7191 8.6805 23.2871 11.2012C24.8924 12.0509 26 13.7447 26 15.6602C26 15.7741 25.995 15.8874 25.9873 16H23.5771C23.5908 15.8894 23.5996 15.7762 23.5996 15.6602C23.5996 14.5454 22.8542 13.5337 21.8086 13.166L21.084 12.9111L21.0117 12.1465C20.8552 10.4746 19.4603 9.17969 17.7969 9.17969C17.2583 9.17969 16.7303 9.32197 16.2441 9.60254L15.4043 10.0879L14.7539 9.36914C13.8999 8.42525 12.7297 7.90039 11.4688 7.90039C9.11496 7.90042 7.15735 9.75479 6.98535 12.123L6.92871 12.9062L6.18848 13.168C5.1451 13.5367 4.40039 14.5466 4.40039 15.6602C4.40048 17.2136 5.66366 18.2998 7 18.2998H10.0049C10.002 18.3662 10 18.4329 10 18.5C10 19.2994 10.2097 20.0495 10.5752 20.7002H7C4.14899 20.7002 2.00008 18.3416 2 15.6602C2 13.7556 3.09527 12.0713 4.68359 11.2168C5.26571 7.97881 8.07489 5.50002 11.4688 5.5Z" fill="black"/>
</svg>
