<svg width="28" height="28" viewBox="0 0 28 28" fill="none" xmlns="http://www.w3.org/2000/svg">
<path d="M11.4688 5C13.1124 5 14.659 5.58244 15.8838 6.62695C16.4929 6.39873 17.1378 6.28028 17.7969 6.28027C20.4828 6.28027 22.7191 8.1805 23.2871 10.7012C24.8924 11.5509 26 13.2447 26 15.1602C25.9999 17.8416 23.851 20.2002 21 20.2002H20V17.7998H21C22.3364 17.7998 23.5995 16.7136 23.5996 15.1602C23.5996 14.0454 22.8542 13.0337 21.8086 12.666L21.084 12.4111L21.0117 11.6465C20.8552 9.97462 19.4603 8.67969 17.7969 8.67969C17.2583 8.67969 16.7303 8.82197 16.2441 9.10254L15.4043 9.58789L14.7539 8.86914C13.8999 7.92525 12.7297 7.40039 11.4688 7.40039C9.11496 7.40042 7.15735 9.25479 6.98535 11.623L6.92871 12.4062L6.18848 12.668C5.1451 13.0367 4.40039 14.0466 4.40039 15.1602C4.40048 16.7136 5.66366 17.7998 7 17.7998H8V20.2002H7C4.14899 20.2002 2.00008 17.8416 2 15.1602C2 13.2556 3.09527 11.5713 4.68359 10.7168C5.26571 7.47881 8.07489 5.00002 11.4688 5Z" fill="black"/>
<path d="M14 20.75C13.5359 20.75 13.0908 20.5656 12.7626 20.2374C12.4344 19.9092 12.25 19.4641 12.25 19C12.25 18.5359 12.4344 18.0908 12.7626 17.7626C13.0908 17.4344 13.5359 17.25 14 17.25C14.4641 17.25 14.9092 17.4344 15.2374 17.7626C15.5656 18.0908 15.75 18.5359 15.75 19C15.75 19.4641 15.5656 19.9092 15.2374 20.2374C14.9092 20.5656 14.4641 20.75 14 20.75ZM17.715 19.485C17.735 19.325 17.75 19.165 17.75 19C17.75 18.835 17.735 18.67 17.715 18.5L18.77 17.685C18.865 17.61 18.89 17.475 18.83 17.365L17.83 15.635C17.77 15.525 17.635 15.48 17.525 15.525L16.28 16.025C16.02 15.83 15.75 15.66 15.435 15.535L15.25 14.21C15.2398 14.1511 15.2092 14.0977 15.1634 14.0593C15.1176 14.0208 15.0598 13.9998 15 14H13C12.875 14 12.77 14.09 12.75 14.21L12.565 15.535C12.25 15.66 11.98 15.83 11.72 16.025L10.475 15.525C10.365 15.48 10.23 15.525 10.17 15.635L9.17 17.365C9.105 17.475 9.135 17.61 9.23 17.685L10.285 18.5C10.265 18.67 10.25 18.835 10.25 19C10.25 19.165 10.265 19.325 10.285 19.485L9.23 20.315C9.135 20.39 9.105 20.525 9.17 20.635L10.17 22.365C10.23 22.475 10.365 22.515 10.475 22.475L11.72 21.97C11.98 22.17 12.25 22.34 12.565 22.465L12.75 23.79C12.77 23.91 12.875 24 13 24H15C15.125 24 15.23 23.91 15.25 23.79L15.435 22.465C15.75 22.335 16.02 22.17 16.28 21.97L17.525 22.475C17.635 22.515 17.77 22.475 17.83 22.365L18.83 20.635C18.89 20.525 18.865 20.39 18.77 20.315L17.715 19.485Z" fill="black"/>
</svg>
