<svg width="28" height="28" viewBox="0 0 28 28" fill="none" xmlns="http://www.w3.org/2000/svg">
<path fill-rule="evenodd" clip-rule="evenodd" d="M3 19C3 18.4477 3.44771 18 4 18H23.9999C24.5522 18 24.9999 18.4477 24.9999 19V21C24.9999 21.5523 24.5522 22 23.9999 22H4C3.44771 22 3 21.5523 3 21V19ZM7.99998 20C7.99998 19.4477 8.44769 19 8.99997 19C9.55225 19 9.99997 19.4477 9.99997 20C9.99997 20.5523 9.55225 21 8.99997 21C8.44769 21 7.99998 20.5523 7.99998 20ZM5.99999 19C5.4477 19 4.99999 19.4477 4.99999 20C4.99999 20.5523 5.4477 21 5.99999 21C6.55227 21 6.99998 20.5523 6.99998 20C6.99998 19.4477 6.55227 19 5.99999 19Z" fill="black"/>
<path fill-rule="evenodd" clip-rule="evenodd" d="M4 6C3.44771 6 3 6.44771 3 7V8.99999C3 9.55227 3.44771 9.99998 4 9.99998H23.9999C24.5522 9.99998 24.9999 9.55227 24.9999 8.99999V7C24.9999 6.44771 24.5522 6 23.9999 6H4ZM5.49999 7.99999C5.22385 7.99999 4.99999 8.22385 4.99999 8.49999C4.99999 8.77613 5.22385 8.99999 5.49999 8.99999H10.5C10.7761 8.99999 11 8.77613 11 8.49999C11 8.22385 10.7761 7.99999 10.5 7.99999H5.49999Z" fill="black"/>
<path fill-rule="evenodd" clip-rule="evenodd" d="M4 11C3.44771 11 3 11.4477 3 12V16C3 16.5523 3.44771 17 4 17H23.9999C24.5522 17 24.9999 16.5523 24.9999 16V12C24.9999 11.4477 24.5522 11 23.9999 11H4ZM21.9999 13C21.4476 13 20.9999 13.4477 20.9999 14C20.9999 14.5523 21.4476 15 21.9999 15C22.5522 15 22.9999 14.5523 22.9999 14C22.9999 13.4477 22.5522 13 21.9999 13Z" fill="black"/>
</svg>
