<svg width="38" height="38" viewBox="0 0 38 38" fill="none" xmlns="http://www.w3.org/2000/svg">
<path fill-rule="evenodd" clip-rule="evenodd" d="M24.7777 6L26.9444 8.16297L24.0469 11.0556L26.931 13.9445L29.8333 11.0472L32 13.2101L29.0939 16.1112L31.9778 19L29.1159 21.8668L32 24.746L29.8333 26.909L26.9529 24.0334L24.069 26.9224L26.9446 29.7929L24.7779 31.9558L21.906 29.089L19 32L16.094 29.089L13.2222 31.9558L11.0555 29.7929L13.931 26.9224L11.047 24.0333L8.16667 26.9087L6 24.7457L8.88401 21.8667L6.02225 19L8.90609 16.1112L6.00002 13.2101L8.16668 11.0471L11.069 13.9445L13.953 11.0557L11.0555 8.16322L13.2222 6.00024L16.1159 8.88903L19 6L21.884 8.88889L24.7777 6ZM19 10.3261L21.1667 12.489L12.5 21.1409L10.3334 18.9779L19 10.3261ZM20.8167 15.0237L22.9834 17.1867L15.7612 24.3966L13.5945 22.2336L20.8167 15.0237ZM24.0554 22.5828L21.8888 20.4198L16.8333 25.4667L18.9999 27.6297L24.0554 22.5828Z" fill="black"/>
</svg>
