
<svg width="96" height="96" viewBox="0 0 96 96" fill="none" xmlns="http://www.w3.org/2000/svg">
    <rect width="96" height="96" rx="10.6667" fill="#2A7DEC" fill-opacity="0.12"/>
    <path d="M23.0654 63.2227C23.0655 65.1217 23.8193 66.9433 25.1621 68.2861C26.5049 69.6289 28.3266 70.3828 30.2256 70.3828H65.7812C67.6803 70.3828 69.5019 69.6289 70.8447 68.2861C72.1875 66.9433 72.9413 65.1217 72.9414 63.2227V32.1113C72.9414 30.2123 72.1875 28.3907 70.8447 27.0479C69.5019 25.705 67.6803 24.9512 65.7812 24.9512H30.2256C28.3265 24.9512 26.505 25.705 25.1621 27.0479C23.8193 28.3907 23.0654 30.2122 23.0654 32.1113V63.2227ZM19.6084 32.1113C19.6084 29.2954 20.7266 26.5946 22.7178 24.6035C24.7089 22.6124 27.4097 21.4941 30.2256 21.4941H65.7812C68.5971 21.4942 71.298 22.6124 73.2891 24.6035C75.2801 26.5946 76.3984 29.2955 76.3984 32.1113V63.2227C76.3984 66.0385 75.2801 68.7394 73.2891 70.7305C71.298 72.7215 68.5971 73.8398 65.7812 73.8398H30.2256C27.4098 73.8398 24.7089 72.7215 22.7178 70.7305C20.7267 68.7394 19.6085 66.0385 19.6084 63.2227V32.1113Z" fill="#2A7DEC"/>
    <path d="M34.0391 63.6055V58.3447C34.0392 57.5164 34.7107 56.8447 35.5391 56.8447C36.3674 56.8447 37.0389 57.5164 37.0391 58.3447V63.6055C37.0388 64.4337 36.3673 65.1055 35.5391 65.1055C34.7108 65.1055 34.0393 64.4337 34.0391 63.6055ZM47.1895 63.6055V55.7148C47.1896 54.8865 47.8611 54.2148 48.6895 54.2148C49.5176 54.2151 50.1893 54.8867 50.1895 55.7148V63.6055C50.1892 64.4335 49.5175 65.1052 48.6895 65.1055C47.8612 65.1055 47.1897 64.4337 47.1895 63.6055ZM60.3389 63.6055V50.4551C60.3389 49.6267 61.0105 48.9551 61.8389 48.9551C62.6673 48.9551 63.3389 49.6267 63.3389 50.4551V63.6055C63.3386 64.4337 62.6671 65.1055 61.8389 65.1055C61.0106 65.1054 60.3391 64.4337 60.3389 63.6055Z" fill="#2A7DEC"/>
    <path d="M58.6708 30.5202C59.3925 30.4284 60.0904 30.6635 60.5848 30.9392C61.0717 31.2106 61.6771 31.6978 61.9608 32.4323C61.9743 32.4672 61.9871 32.503 61.9979 32.5388L63.2997 36.8474C63.5391 37.6402 63.0906 38.4769 62.2977 38.7165C61.5047 38.9561 60.6673 38.5076 60.4276 37.7145L59.7284 35.402C51.9242 47.3426 38.5542 48.1624 32.8368 47.9714C32.0088 47.9437 31.3599 47.2505 31.3876 46.4226C31.4153 45.5947 32.1086 44.9458 32.9364 44.9733C38.4238 45.1567 50.2972 44.3086 57.1962 33.7946L54.1649 34.2829C53.3471 34.4146 52.577 33.8585 52.4452 33.0407C52.3135 32.2228 52.8705 31.4527 53.6884 31.321L58.6219 30.527C58.6382 30.5244 58.6545 30.5223 58.6708 30.5202Z" fill="#2A7DEC"/>
</svg>
