<svg width="96" height="96" viewBox="0 0 96 96" fill="none" xmlns="http://www.w3.org/2000/svg">
    <rect width="96" height="96" rx="10.6667" fill="#2A7DEC" fill-opacity="0.12"/>
    <path d="M71.1445 48.3335V29.0478C71.1445 27.0018 70.3368 25.0397 68.899 23.593C67.4612 22.1462 65.5112 21.3335 63.4779 21.3335H40.1445M71.1445 48.3335H25.1445M71.1445 48.3335V56.0478C71.1445 58.0937 70.3368 60.0559 68.899 61.5026C67.4612 62.9493 65.5112 63.7621 63.4779 63.7621H51.9779V71.4764C51.9779 72.4993 51.574 73.4804 50.8551 74.2038C50.1362 74.9271 49.1612 75.3335 48.1445 75.3335C47.1279 75.3335 46.1528 74.9271 45.434 74.2038C44.7151 73.4804 44.3112 72.4993 44.3112 71.4764V63.7621H32.8112C30.7779 63.7621 28.8278 62.9493 27.39 61.5026C25.9523 60.0559 25.1445 58.0937 25.1445 56.0478V48.3335M25.1445 48.3335V29.0478C25.1445 27.0018 25.9523 25.0397 27.39 23.593C28.8278 22.1462 30.7779 21.3335 32.8112 21.3335H40.1445M48.1445 21.3335V30.9764M40.1445 21.3335V37.3335" stroke="#2A7DEC" stroke-width="3" stroke-linecap="round"/>
</svg>
