<svg width="36" height="36" viewBox="0 0 36 36" fill="none" xmlns="http://www.w3.org/2000/svg">
    <g clip-path="url(#clip0_589_25852)">
        <rect x="10" width="16" height="12" rx="1" fill="#305680"/>
        <path opacity="0.16" d="M17.381 12.3809C17.7227 12.0396 18.2776 12.0395 18.6193 12.3809L21.6193 15.3809C21.9606 15.7225 21.9606 16.2775 21.6193 16.6192C21.2776 16.9606 20.7226 16.9606 20.381 16.6192L18.9073 15.1456C19.0641 17.8411 19.7798 19.4679 20.6896 20.5059C21.7297 21.6923 23.141 22.2474 24.7111 22.6368C25.5169 22.8366 26.2666 22.972 27.0773 23.1524C27.8499 23.3243 28.637 23.5292 29.3351 23.8506C30.0434 24.1768 30.6994 24.6415 31.17 25.3497C31.6418 26.0598 31.875 26.9374 31.8751 27.9991C31.8751 28.4823 31.4833 28.874 31.0001 28.8741C30.5169 28.8741 30.1251 28.4823 30.1251 27.9991C30.125 27.1966 29.9519 26.6769 29.713 26.3174C29.4728 25.9562 29.1126 25.6753 28.6027 25.4405C28.0823 25.2009 27.4468 25.0273 26.6964 24.8604C25.984 24.7019 25.108 24.5381 24.2892 24.335C22.6095 23.9185 20.7704 23.253 19.3732 21.6592C19.1983 21.4598 19.032 21.2477 18.8751 21.0225V31.9991C18.8751 32.4823 18.4833 32.874 18.0001 32.8741C17.5169 32.8741 17.1251 32.4823 17.1251 31.9991V21.0225C16.9683 21.2477 16.8019 21.4598 16.6271 21.6592C15.23 23.2529 13.3907 23.9185 11.7111 24.335C10.8924 24.538 10.0162 24.7019 9.30383 24.8604C8.55359 25.0273 7.91796 25.201 7.39758 25.4405C6.88772 25.6753 6.52746 25.9563 6.28723 26.3174C6.04838 26.6769 5.87526 27.1966 5.87512 27.9991C5.87512 28.4823 5.4833 28.874 5.00012 28.8741C4.51687 28.8741 4.12512 28.4823 4.12512 27.9991C4.12526 26.9374 4.3584 26.0598 4.8302 25.3497C5.30088 24.6416 5.95689 24.1768 6.66516 23.8506C7.36317 23.5293 8.15042 23.3243 8.92297 23.1524C9.73362 22.9721 10.4834 22.8366 11.2892 22.6368C12.8591 22.2474 14.2706 21.6922 15.3107 20.5059C16.2204 19.4679 16.9352 17.8409 17.0919 15.1456L15.6193 16.6192C15.2776 16.9606 14.7226 16.9606 14.381 16.6192C14.0395 16.2776 14.0396 15.7226 14.381 15.3809L17.381 12.3809Z" fill="#305680"/>
        <path d="M17.3256 26.2793C17.6981 25.9069 18.3019 25.9069 18.6744 26.2793L22.7207 30.3256C23.0931 30.6981 23.0931 31.3019 22.7207 31.6744L18.6744 35.7207C18.3019 36.0931 17.6981 36.0931 17.3256 35.7207L13.2793 31.6744C12.9069 31.3019 12.9069 30.6981 13.2793 30.3256L17.3256 26.2793Z" fill="#305680"/>
        <path d="M4.32562 26.2793C4.69807 25.9069 5.30193 25.9069 5.67438 26.2793L9.72066 30.3256C10.0931 30.6981 10.0931 31.3019 9.72066 31.6744L5.67438 35.7207C5.30193 36.0931 4.69807 36.0931 4.32562 35.7207L0.279337 31.6744C-0.0931125 31.3019 -0.0931125 30.6981 0.279337 30.3256L4.32562 26.2793Z" fill="#305680"/>
        <path d="M30.3256 26.2793C30.6981 25.9069 31.3019 25.9069 31.6744 26.2793L35.7207 30.3256C36.0931 30.6981 36.0931 31.3019 35.7207 31.6744L31.6744 35.7207C31.3019 36.0931 30.6981 36.0931 30.3256 35.7207L26.2793 31.6744C25.9069 31.3019 25.9069 30.6981 26.2793 30.3256L30.3256 26.2793Z" fill="#305680"/>
    </g>
    <defs>
        <clipPath id="clip0_589_25852">
            <rect width="36" height="36" fill="white"/>
        </clipPath>
    </defs>
</svg>
