<svg width="36" height="36" viewBox="0 0 36 36" fill="none" xmlns="http://www.w3.org/2000/svg">
    <g clip-path="url(#clip0_589_25872)">
        <path opacity="0.16" d="M16 7L7 16" stroke="#305680" stroke-width="2" stroke-linecap="round"/>
        <path opacity="0.16" d="M20 7L29 16" stroke="#305680" stroke-width="2" stroke-linecap="round"/>
        <path d="M4.32562 13.2793C4.69807 12.9069 5.30193 12.9069 5.67438 13.2793L9.72066 17.3256C10.0931 17.6981 10.0931 18.3019 9.72066 18.6744L5.67438 22.7207C5.30193 23.0931 4.69807 23.0931 4.32562 22.7207L0.279337 18.6744C-0.0931125 18.3019 -0.0931125 17.6981 0.279337 17.3256L4.32562 13.2793Z" fill="#305680"/>
        <path d="M30.3256 13.2793C30.6981 12.9069 31.3019 12.9069 31.6744 13.2793L35.7207 17.3256C36.0931 17.6981 36.0931 18.3019 35.7207 18.6744L31.6744 22.7207C31.3019 23.0931 30.6981 23.0931 30.3256 22.7207L26.2793 18.6744C25.9069 18.3019 25.9069 17.6981 26.2793 17.3256L30.3256 13.2793Z" fill="#305680"/>
        <path d="M17.3256 0.279337C17.6981 -0.0931125 18.3019 -0.0931125 18.6744 0.279337L22.7207 4.32562C23.0931 4.69807 23.0931 5.30193 22.7207 5.67438L18.6744 9.72066C18.3019 10.0931 17.6981 10.0931 17.3256 9.72066L13.2793 5.67438C12.9069 5.30193 12.9069 4.69807 13.2793 4.32562L17.3256 0.279337Z" fill="#305680"/>
        <path d="M18.7998 20C18.9997 20 19.1998 20.1332 19.2666 20.333L19.5664 21.2334C19.5997 21.4001 19.7337 21.5331 19.9004 21.5664C20.3669 21.6997 20.8003 21.8663 21.2002 22.0996C21.3335 22.1663 21.5337 22.1663 21.667 22.0996L22.5 21.7002C22.6999 21.6002 22.8998 21.6333 23.0664 21.7998L24.2002 22.9336C24.3666 23.067 24.3998 23.3001 24.2998 23.5L23.9004 24.333C23.8004 24.4997 23.8337 24.6665 23.9004 24.7998C24.1337 25.1997 24.3003 25.6331 24.4336 26.0996C24.5003 26.2663 24.5999 26.3669 24.7666 26.4336L25.667 26.7334C25.8668 26.8002 26 27.0003 26 27.2002V28.7998C26 28.9997 25.8668 29.1998 25.667 29.2666L24.7666 29.5664C24.5999 29.5997 24.4669 29.7337 24.4336 29.9004C24.3003 30.3669 24.1337 30.8003 23.9004 31.2002C23.8337 31.3335 23.8337 31.5337 23.9004 31.667L24.2666 32.5C24.3665 32.6999 24.3334 32.8998 24.167 33.0664L23.0332 34.2002C22.8998 34.3667 22.6667 34.3998 22.4668 34.2998L21.6338 33.9004C21.4672 33.8004 21.3003 33.8338 21.167 33.9004C20.767 34.1337 20.3329 34.3003 19.8662 34.4336C19.6998 34.5003 19.5998 34.6001 19.5332 34.7666L19.2334 35.667C19.1666 35.8668 18.9665 36 18.7666 36H17.167C16.9671 36 16.767 35.8668 16.7002 35.667L16.4004 34.7666C16.3671 34.5999 16.2331 34.4669 16.0664 34.4336C15.5999 34.3003 15.1665 34.1337 14.7666 33.9004C14.6333 33.8337 14.4331 33.8337 14.2998 33.9004L13.4668 34.2998C13.2669 34.3997 13.067 34.3666 12.9004 34.2002L11.7666 33.0664C11.6001 32.9331 11.567 32.6999 11.667 32.5L12.0996 31.667C12.1996 31.5003 12.1663 31.3335 12.0996 31.2002C11.8663 30.8003 11.6997 30.3669 11.5664 29.9004C11.4997 29.7337 11.4001 29.6331 11.2334 29.5664L10.333 29.2666C10.1332 29.1998 10 28.9997 10 28.7998V27.2002C10 27.0003 10.1332 26.8002 10.333 26.7334L11.2334 26.4336C11.4001 26.4003 11.5331 26.2663 11.5664 26.0996C11.6997 25.6331 11.8663 25.1997 12.0996 24.7998C12.1663 24.6665 12.1663 24.4663 12.0996 24.333L11.667 23.5C11.6004 23.3001 11.6334 23.067 11.7666 22.9004L12.9004 21.7666C13.067 21.6334 13.3001 21.6004 13.5 21.667L14.333 22.0996C14.4997 22.1996 14.6665 22.1663 14.7998 22.0996C15.1997 21.8663 15.6331 21.6997 16.0996 21.5664C16.2663 21.4997 16.3669 21.4001 16.4336 21.2334L16.7334 20.333C16.8002 20.1332 17.0003 20 17.2002 20H18.7998ZM18 24C15.7909 24 14 25.7909 14 28C14 30.2091 15.7909 32 18 32C20.2091 32 22 30.2091 22 28C22 25.7909 20.2091 24 18 24Z" fill="#305680"/>
    </g>
    <defs>
        <clipPath id="clip0_589_25872">
            <rect width="36" height="36" fill="white"/>
        </clipPath>
    </defs>
</svg>
