<svg xmlns="http://www.w3.org/2000/svg" width="36" height="36" viewBox="0 0 36 36" fill="none">
    <g clip-path="url(#clip0_589_25822)">
        <path opacity="0.16" d="M2.45455 16.3636H13.9091C14.5601 16.3636 15.1844 16.105 15.6447 15.6447C16.105 15.1844 16.3636 14.5601 16.3636 13.9091V2.45455C16.3636 1.80356 16.105 1.17924 15.6447 0.71892C15.1844 0.258603 14.5601 0 13.9091 0H2.45455C1.80356 0 1.17924 0.258603 0.71892 0.71892C0.258603 1.17924 0 1.80356 0 2.45455V13.9091C0 14.5601 0.258603 15.1844 0.71892 15.6447C1.17924 16.105 1.80356 16.3636 2.45455 16.3636Z" fill="#305680"/>
        <path d="M4.09092 7.36365H12.2727C12.4897 7.36365 12.6978 7.44985 12.8513 7.60329C13.0047 7.75673 13.0909 7.96483 13.0909 8.18183C13.0909 8.39882 13.0047 8.60693 12.8513 8.76037C12.6978 8.91381 12.4897 9.00001 12.2727 9.00001H4.09092C3.87392 9.00001 3.66581 8.91381 3.51238 8.76037C3.35894 8.60693 3.27274 8.39882 3.27274 8.18183C3.27274 7.96483 3.35894 7.75673 3.51238 7.60329C3.66581 7.44985 3.87392 7.36365 4.09092 7.36365Z" fill="#305680"/>
        <path opacity="0.16" d="M33.5454 0H22.0909C21.4399 0 20.8156 0.258603 20.3553 0.71892C19.895 1.17924 19.6364 1.80356 19.6364 2.45455V13.9091C19.6364 14.5601 19.895 15.1844 20.3553 15.6447C20.8156 16.105 21.4399 16.3636 22.0909 16.3636H33.5454C34.1964 16.3636 34.8208 16.105 35.2811 15.6447C35.7414 15.1844 36 14.5601 36 13.9091V2.45455C36 1.80356 35.7414 1.17924 35.2811 0.71892C34.8208 0.258603 34.1964 0 33.5454 0Z" fill="#305680"/>
        <path d="M31.9091 8.99998H28.6364V12.2727C28.6364 12.4897 28.5502 12.6978 28.3967 12.8512C28.2433 13.0047 28.0352 13.0909 27.8182 13.0909C27.6012 13.0909 27.3931 13.0047 27.2396 12.8512C27.0862 12.6978 27 12.4897 27 12.2727V8.99998H23.7273C23.5103 8.99998 23.3022 8.91378 23.1487 8.76034C22.9953 8.6069 22.9091 8.39879 22.9091 8.1818C22.9091 7.9648 22.9953 7.75669 23.1487 7.60325C23.3022 7.44982 23.5103 7.36361 23.7273 7.36361H27V4.09089C27 3.87389 27.0862 3.66578 27.2396 3.51235C27.3931 3.35891 27.6012 3.27271 27.8182 3.27271C28.0352 3.27271 28.2433 3.35891 28.3967 3.51235C28.5502 3.66578 28.6364 3.87389 28.6364 4.09089V7.36361H31.9091C32.1261 7.36361 32.3342 7.44982 32.4876 7.60325C32.6411 7.75669 32.7273 7.9648 32.7273 8.1818C32.7273 8.39879 32.6411 8.6069 32.4876 8.76034C32.3342 8.91378 32.1261 8.99998 31.9091 8.99998Z" fill="#305680"/>
        <path opacity="0.16" d="M13.9091 36C14.5601 36 15.1844 35.7414 15.6447 35.2811C16.105 34.8208 16.3636 34.1964 16.3636 33.5454V22.0909C16.3636 21.4399 16.105 20.8156 15.6447 20.3553C15.1844 19.895 14.5601 19.6364 13.9091 19.6364H2.45455C1.80356 19.6364 1.17924 19.895 0.71892 20.3553C0.258603 20.8156 0 21.4399 0 22.0909V33.5454C0 34.1964 0.258603 34.8208 0.71892 35.2811C1.17924 35.7414 1.80356 36 2.45455 36H13.9091Z" fill="#305680"/>
        <path d="M4.71271 25.5027C4.57867 25.3462 4.50863 25.1449 4.51659 24.9389C4.52454 24.733 4.6099 24.5377 4.75562 24.392C4.90133 24.2463 5.09666 24.1609 5.30258 24.153C5.5085 24.145 5.70983 24.215 5.86635 24.3491L8.1818 26.6645L10.4973 24.3491C10.6538 24.215 10.8551 24.145 11.061 24.153C11.2669 24.1609 11.4623 24.2463 11.608 24.392C11.7537 24.5377 11.8391 24.733 11.847 24.9389C11.855 25.1449 11.7849 25.3462 11.6509 25.5027L9.33544 27.8182L11.6509 30.1336C11.8033 30.2869 11.8888 30.4943 11.8888 30.7104C11.8888 30.9266 11.8033 31.134 11.6509 31.2873C11.4976 31.4397 11.2902 31.5252 11.0741 31.5252C10.8579 31.5252 10.6506 31.4397 10.4973 31.2873L8.1818 28.9718L5.86635 31.2873C5.71305 31.4397 5.50568 31.5252 5.28953 31.5252C5.07338 31.5252 4.86601 31.4397 4.71271 31.2873C4.56033 31.134 4.47479 30.9266 4.47479 30.7104C4.47479 30.4943 4.56033 30.2869 4.71271 30.1336L7.02817 27.8182L4.71271 25.5027Z" fill="#305680"/>
        <path opacity="0.16" d="M33.5454 19.6364H22.0909C21.4399 19.6364 20.8156 19.895 20.3553 20.3553C19.895 20.8156 19.6364 21.4399 19.6364 22.0909V33.5454C19.6364 34.1964 19.895 34.8208 20.3553 35.2811C20.8156 35.7414 21.4399 36 22.0909 36H33.5454C34.1964 36 34.8208 35.7414 35.2811 35.2811C35.7414 34.8208 36 34.1964 36 33.5454V22.0909C36 21.4399 35.7414 20.8156 35.2811 20.3553C34.8208 19.895 34.1964 19.6364 33.5454 19.6364Z" fill="#305680"/>
        <path fill-rule="evenodd" clip-rule="evenodd" d="M23.7273 28.6364H31.9091C32.1261 28.6364 32.3342 28.5502 32.4876 28.3967C32.6411 28.2433 32.7273 28.0352 32.7273 27.8182C32.7273 27.6012 32.6411 27.3931 32.4876 27.2397C32.3342 27.0862 32.1261 27 31.9091 27H23.7273C23.5103 27 23.3022 27.0862 23.1487 27.2397C22.9953 27.3931 22.9091 27.6012 22.9091 27.8182C22.9091 28.0352 22.9953 28.2433 23.1487 28.3967C23.3022 28.5502 23.5103 28.6364 23.7273 28.6364Z" fill="#305680"/>
        <path fill-rule="evenodd" clip-rule="evenodd" d="M28.2727 23.8652C28.1382 23.7753 27.98 23.7273 27.8182 23.7273C27.6012 23.7273 27.3931 23.8135 27.2396 23.9669C27.0862 24.1204 27 24.3285 27 24.5455C27 24.7073 27.048 24.8655 27.1379 25C27.2278 25.1346 27.3556 25.2395 27.5051 25.3014C27.6546 25.3633 27.8191 25.3795 27.9778 25.3479C28.1365 25.3164 28.2823 25.2384 28.3967 25.124C28.5111 25.0096 28.5891 24.8638 28.6206 24.7051C28.6522 24.5464 28.636 24.3819 28.5741 24.2324C28.5122 24.0829 28.4073 23.9551 28.2727 23.8652Z" fill="#305680"/>
        <path fill-rule="evenodd" clip-rule="evenodd" d="M27.2396 31.6695C27.3931 31.8229 27.6012 31.9091 27.8182 31.9091C28.0352 31.9091 28.2433 31.8229 28.3967 31.6695C28.5502 31.516 28.6364 31.3079 28.6364 31.0909C28.6364 30.8739 28.5502 30.6658 28.3967 30.5124C28.2433 30.359 28.0352 30.2727 27.8182 30.2727C27.6012 30.2727 27.3931 30.359 27.2396 30.5124C27.0862 30.6658 27 30.8739 27 31.0909C27 31.3079 27.0862 31.516 27.2396 31.6695Z" fill="#305680"/>
    </g>
    <defs>
        <clipPath id="clip0_589_25822">
            <rect width="36" height="36" fill="white"/>
        </clipPath>
    </defs>
</svg>