<svg width="36" height="36" viewBox="0 0 36 36" fill="none" xmlns="http://www.w3.org/2000/svg">
    <g clip-path="url(#clip0_589_25862)">
        <path d="M18.7998 10C18.9997 10 19.1998 10.1332 19.2666 10.333L19.5664 11.2334C19.5997 11.4001 19.7337 11.5331 19.9004 11.5664C20.3669 11.6997 20.8003 11.8663 21.2002 12.0996C21.3335 12.1663 21.5337 12.1663 21.667 12.0996L22.5 11.7002C22.6999 11.6002 22.8998 11.6333 23.0664 11.7998L24.2002 12.9336C24.3666 13.067 24.3998 13.3001 24.2998 13.5L23.9004 14.333C23.8004 14.4997 23.8337 14.6665 23.9004 14.7998C24.1337 15.1997 24.3003 15.6331 24.4336 16.0996C24.5003 16.2663 24.5999 16.3669 24.7666 16.4336L25.667 16.7334C25.8668 16.8002 26 17.0003 26 17.2002V18.7998C26 18.9997 25.8668 19.1998 25.667 19.2666L24.7666 19.5664C24.5999 19.5997 24.4669 19.7337 24.4336 19.9004C24.3003 20.3669 24.1337 20.8003 23.9004 21.2002C23.8337 21.3335 23.8337 21.5337 23.9004 21.667L24.2666 22.5C24.3665 22.6999 24.3334 22.8998 24.167 23.0664L23.0332 24.2002C22.8998 24.3667 22.6667 24.3998 22.4668 24.2998L21.6338 23.9004C21.4672 23.8004 21.3003 23.8338 21.167 23.9004C20.767 24.1337 20.3329 24.3003 19.8662 24.4336C19.6998 24.5003 19.5998 24.6001 19.5332 24.7666L19.2334 25.667C19.1666 25.8668 18.9665 26 18.7666 26H17.167C16.9671 26 16.767 25.8668 16.7002 25.667L16.4004 24.7666C16.3671 24.5999 16.2331 24.4669 16.0664 24.4336C15.5999 24.3003 15.1665 24.1337 14.7666 23.9004C14.6333 23.8337 14.4331 23.8337 14.2998 23.9004L13.4668 24.2998C13.2669 24.3997 13.067 24.3666 12.9004 24.2002L11.7666 23.0664C11.6001 22.9331 11.567 22.6999 11.667 22.5L12.0996 21.667C12.1996 21.5003 12.1663 21.3335 12.0996 21.2002C11.8663 20.8003 11.6997 20.3669 11.5664 19.9004C11.4997 19.7337 11.4001 19.6331 11.2334 19.5664L10.333 19.2666C10.1332 19.1998 10 18.9997 10 18.7998V17.2002C10 17.0003 10.1332 16.8002 10.333 16.7334L11.2334 16.4336C11.4001 16.4003 11.5331 16.2663 11.5664 16.0996C11.6997 15.6331 11.8663 15.1997 12.0996 14.7998C12.1663 14.6665 12.1663 14.4663 12.0996 14.333L11.667 13.5C11.6004 13.3001 11.6334 13.067 11.7666 12.9004L12.9004 11.7666C13.067 11.6334 13.3001 11.6004 13.5 11.667L14.333 12.0996C14.4997 12.1996 14.6665 12.1663 14.7998 12.0996C15.1997 11.8663 15.6331 11.6997 16.0996 11.5664C16.2663 11.4997 16.3669 11.4001 16.4336 11.2334L16.7334 10.333C16.8002 10.1332 17.0003 10 17.2002 10H18.7998ZM18 14C15.7909 14 14 15.7909 14 18C14 20.2091 15.7909 22 18 22C20.2091 22 22 20.2091 22 18C22 15.7909 20.2091 14 18 14Z" fill="#305680"/>
        <circle opacity="0.16" cx="18" cy="18" r="15" stroke="#305680" stroke-width="2"/>
        <circle cx="18" cy="3" r="3" fill="#305680"/>
        <circle cx="3" cy="18" r="3" fill="#305680"/>
        <circle cx="18" cy="33" r="3" fill="#305680"/>
        <circle cx="33" cy="18" r="3" fill="#305680"/>
    </g>
    <defs>
        <clipPath id="clip0_589_25862">
            <rect width="36" height="36" fill="white"/>
        </clipPath>
    </defs>
</svg>
