<svg width="262" height="308" viewBox="0 0 246 308" fill="none" xmlns="http://www.w3.org/2000/svg">
    <path fill-rule="evenodd" clip-rule="evenodd" d="M42.4334 94H0V95.5H42.4334V94Z" fill="#3E9AF8"/>
    <path d="M42 94C42 108.445 44.8452 122.749 50.3732 136.095C55.9013 149.441 64.0038 161.567 74.2183 171.782C84.4327 181.996 96.559 190.099 109.905 195.627C123.251 201.155 137.555 204 152 204V202.501C137.751 202.501 123.642 199.695 110.478 194.242C97.3144 188.789 85.3533 180.797 75.2781 170.722C65.2028 160.647 57.2107 148.686 51.758 135.522C46.3053 122.358 43.4988 108.249 43.4988 94H42Z" fill="#3E9AF8"/>
    <path fill-rule="evenodd" clip-rule="evenodd" d="M151.5 202.5L151.5 284.5L153 284.5L153 202.5L151.5 202.5Z" fill="#3E9AF8"/>
    <path d="M164 296C164 289.373 158.627 284 152 284C145.373 284 140 289.373 140 296C140 302.627 145.373 308 152 308C158.627 308 164 302.627 164 296Z" fill="#F4F8FE"/>
    <path fill-rule="evenodd" clip-rule="evenodd" d="M152 285.5C157.799 285.5 162.5 290.201 162.5 296C162.5 301.799 157.799 306.5 152 306.5C146.201 306.5 141.5 301.799 141.5 296C141.5 290.201 146.201 285.5 152 285.5ZM152 284C158.627 284 164 289.373 164 296C164 302.627 158.627 308 152 308C145.373 308 140 302.627 140 296C140 289.373 145.373 284 152 284Z" fill="#3E9AF8"/>
    <rect x="0.75" y="-0.75" width="186.5" height="186.5" rx="93.25" transform="matrix(1 0 0 -1 58 186.5)" stroke="#3E9AF8" stroke-width="1.5"/>
    <g clip-path="url(#clip0_13647_636)">
        <mask id="mask0_13647_636" style="mask-type:luminance" maskUnits="userSpaceOnUse" x="106" y="48" width="92" height="92">
            <path d="M198 48H106V140H198V48Z" fill="white"/>
        </mask>
        <g mask="url(#mask0_13647_636)">
            <path d="M117.365 90.5857V121.749H165.623V90.3462" stroke="#3E9AF8" stroke-width="4" stroke-miterlimit="10" stroke-linecap="round" stroke-linejoin="round"/>
            <mask id="mask1_13647_636" style="mask-type:luminance" maskUnits="userSpaceOnUse" x="105" y="48" width="93" height="92">
                <path d="M106 48H198V140H106V48Z" fill="white"/>
            </mask>
            <g mask="url(#mask1_13647_636)">
                <path d="M157.333 133.478H165.623V121.748H117.365V133.478H141.333" stroke="#3E9AF8" stroke-width="4" stroke-miterlimit="10" stroke-linecap="round" stroke-linejoin="round"/>
                <path d="M163.156 65.6434C161.195 65.6434 159.344 66.1145 157.708 66.9476C155.789 59.7908 149.257 54.5215 141.494 54.5215C133.732 54.5215 127.2 59.7899 125.279 66.9461C123.644 66.1136 121.793 65.6434 119.831 65.6434C113.184 65.6434 107.797 71.0315 107.797 77.6781C107.797 84.3248 113.184 89.7129 119.831 89.7129C124.263 89.7129 128.134 87.3157 130.222 83.7478C133.201 86.4492 137.155 88.0952 141.494 88.0952C145.832 88.0952 149.786 86.4492 152.766 83.7478C154.853 87.3157 158.724 89.7129 163.156 89.7129C169.803 89.7129 175.191 84.3248 175.191 77.6781C175.191 71.0315 169.803 65.6434 163.156 65.6434Z" stroke="#3E9AF8" stroke-width="4" stroke-miterlimit="10" stroke-linecap="round" stroke-linejoin="round"/>
                <path d="M144.436 121.749H138.551V100.123H144.436V121.749Z" stroke="#3E9AF8" stroke-width="4" stroke-miterlimit="10" stroke-linecap="round" stroke-linejoin="round"/>
                <path d="M157.197 121.749H151.312V100.123H157.197V121.749Z" stroke="#3E9AF8" stroke-width="4" stroke-miterlimit="10" stroke-linecap="round" stroke-linejoin="round"/>
                <path d="M131.676 121.749H125.791V100.123H131.676V121.749Z" stroke="#3E9AF8" stroke-width="4" stroke-miterlimit="10" stroke-linecap="round" stroke-linejoin="round"/>
                <path d="M183.576 114.243V129.787C183.576 131.825 185.228 133.478 187.267 133.478H187.267C189.306 133.478 190.959 131.825 190.959 129.787V114.243H183.576Z" stroke="#3E9AF8" stroke-width="4" stroke-miterlimit="10" stroke-linecap="round" stroke-linejoin="round"/>
                <path d="M187.267 100.303V113.817" stroke="#3E9AF8" stroke-width="4" stroke-miterlimit="10" stroke-linecap="round" stroke-linejoin="round"/>
                <path d="M196.203 88.6515C196.203 94.9105 192.202 99.9844 187.267 99.9844C182.332 99.9844 178.331 94.9105 178.331 88.6515C178.331 82.3924 182.332 77.3184 187.267 77.3184C192.202 77.3184 196.203 82.3924 196.203 88.6515Z" stroke="#3E9AF8" stroke-width="4" stroke-miterlimit="10" stroke-linecap="round" stroke-linejoin="round"/>
            </g>
        </g>
        <circle cx="149.333" cy="133.6" r="2" fill="#3E9AF8"/>
    </g>
    <defs>
        <clipPath id="clip0_13647_636">
            <rect width="92" height="92" fill="white" transform="translate(106 48)"/>
        </clipPath>
    </defs>
</svg>
