<svg width="261" height="308" viewBox="0 0 246 308" fill="none" xmlns="http://www.w3.org/2000/svg">
    <path fill-rule="evenodd" clip-rule="evenodd" d="M42.4334 214H0V212.5H42.4334V214Z" fill="#91A3BE"/>
    <path d="M42 214C42 199.555 44.8452 185.251 50.3732 171.905C55.9013 158.559 64.0038 146.433 74.2183 136.218C84.4327 126.004 96.559 117.901 109.905 112.373C123.251 106.845 137.555 104 152 104V105.499C137.751 105.499 123.642 108.305 110.478 113.758C97.3144 119.211 85.3533 127.203 75.2781 137.278C65.2028 147.353 57.2107 159.314 51.758 172.478C46.3053 185.642 43.4988 199.751 43.4988 214H42Z" fill="#91A3BE"/>
    <path fill-rule="evenodd" clip-rule="evenodd" d="M151.5 105.5L151.5 23.5L153 23.5L153 105.5L151.5 105.5Z" fill="#91A3BE"/>
    <path d="M164 12C164 18.6274 158.627 24 152 24C145.373 24 140 18.6274 140 12C140 5.37258 145.373 0 152 0C158.627 0 164 5.37258 164 12Z" fill="#F4F8FE"/>
    <path fill-rule="evenodd" clip-rule="evenodd" d="M152 22.5C157.799 22.5 162.5 17.799 162.5 12C162.5 6.20101 157.799 1.5 152 1.5C146.201 1.5 141.5 6.20101 141.5 12C141.5 17.799 146.201 22.5 152 22.5ZM152 24C158.627 24 164 18.6274 164 12C164 5.37258 158.627 0 152 0C145.373 0 140 5.37258 140 12C140 18.6274 145.373 24 152 24Z" fill="#91A3BE"/>
    <rect x="58.75" y="120.75" width="186.5" height="186.5" rx="93.25" stroke="#91A3BE" stroke-width="1.5"/>
    <g clip-path="url(#clip0_13647_636)">
        <mask id="mask0_13647_636" style="mask-type:luminance" maskUnits="userSpaceOnUse" x="105" y="168" width="93" height="92">
            <path d="M106 168H198V260H106V168Z" fill="white"/>
        </mask>
        <g mask="url(#mask0_13647_636)">
            <path d="M120.866 248.329L150.702 256.703C152.278 257.197 156.117 258.733 159.362 258.015L186.639 251.941C191.83 250.785 190.93 243.504 185.91 244.275L168.642 246.929C166.181 247.309 164.262 246.627 161.807 246.242L147.305 241.349C143.924 240.267 144.32 235.624 148.767 235.51L154.759 235.354C162.161 235.161 162.733 226.631 156.34 225.965L151.019 225.793C146.078 225.637 142.613 225.569 135.155 227.255L120.866 230.488" stroke="#305680" stroke-width="4" stroke-miterlimit="10" stroke-linecap="round" stroke-linejoin="round"/>
            <path d="M108.695 249.854C108.695 251.015 109.642 251.967 110.802 251.967H118.755C119.914 251.967 120.866 251.015 120.866 249.854V228.963C120.866 227.802 119.914 226.855 118.755 226.855H110.802C109.642 226.855 108.695 227.802 108.695 228.963V249.854Z" stroke="#305680" stroke-width="4" stroke-miterlimit="10" stroke-linecap="round" stroke-linejoin="round"/>
            <path d="M190.769 205.266C190.769 189.991 178.389 177.604 163.123 177.604C147.852 177.604 135.477 189.991 135.477 205.266" stroke="#305680" stroke-width="4" stroke-miterlimit="10" stroke-linecap="round" stroke-linejoin="round"/>
            <path d="M180.34 195.486C176.933 189.496 170.499 185.457 163.123 185.457" stroke="#305680" stroke-width="4" stroke-miterlimit="10" stroke-linecap="round" stroke-linejoin="round"/>
            <path d="M137.911 205.266L150.54 217.018C151.987 218.814 154.062 218.814 155.513 217.018L168.137 205.266" stroke="#305680" stroke-width="4" stroke-miterlimit="10" stroke-linecap="round" stroke-linejoin="round"/>
            <path d="M159.087 177.895C158.447 177.047 158.067 175.995 158.067 174.85C158.067 172.061 160.33 169.797 163.123 169.797C165.911 169.797 168.174 172.061 168.174 174.85C168.174 175.995 167.794 177.047 167.159 177.895" stroke="#305680" stroke-width="4" stroke-miterlimit="10" stroke-linecap="round" stroke-linejoin="round"/>
            <path d="M167.69 214.041H158.712M147.336 214.041H135.321C132.913 214.041 130.942 212.063 130.942 209.654C130.942 207.239 132.913 205.266 135.321 205.266H190.919C193.333 205.266 195.304 207.239 195.304 209.654C195.304 212.063 193.333 214.041 190.919 214.041H184.168M175.934 214.041H175.929" stroke="#305680" stroke-width="4" stroke-miterlimit="10" stroke-linecap="round" stroke-linejoin="round"/>
        </g>
    </g>
    <defs>
        <clipPath id="clip0_13647_636">
            <rect width="92" height="92" fill="white" transform="translate(106 168)"/>
        </clipPath>
    </defs>
</svg>
