<svg width="262" height="308" viewBox="0 0 246 308" fill="none" xmlns="http://www.w3.org/2000/svg">
    <path fill-rule="evenodd" clip-rule="evenodd" d="M42.4334 94H0V95.5H42.4334V94Z" fill="#3E9AF8"/>
    <path d="M42 94C42 108.445 44.8452 122.749 50.3732 136.095C55.9013 149.441 64.0038 161.567 74.2183 171.782C84.4327 181.996 96.559 190.099 109.905 195.627C123.251 201.155 137.555 204 152 204V202.501C137.751 202.501 123.642 199.695 110.478 194.242C97.3144 188.789 85.3533 180.797 75.2781 170.722C65.2028 160.647 57.2107 148.686 51.758 135.522C46.3053 122.358 43.4988 108.249 43.4988 94H42Z" fill="#3E9AF8"/>
    <path fill-rule="evenodd" clip-rule="evenodd" d="M151.5 202.5L151.5 284.5L153 284.5L153 202.5L151.5 202.5Z" fill="#3E9AF8"/>
    <path d="M164 296C164 289.373 158.627 284 152 284C145.373 284 140 289.373 140 296C140 302.627 145.373 308 152 308C158.627 308 164 302.627 164 296Z" fill="#F4F8FE"/>
    <path fill-rule="evenodd" clip-rule="evenodd" d="M152 285.5C157.799 285.5 162.5 290.201 162.5 296C162.5 301.799 157.799 306.5 152 306.5C146.201 306.5 141.5 301.799 141.5 296C141.5 290.201 146.201 285.5 152 285.5ZM152 284C158.627 284 164 289.373 164 296C164 302.627 158.627 308 152 308C145.373 308 140 302.627 140 296C140 289.373 145.373 284 152 284Z" fill="#3E9AF8"/>
    <rect x="0.75" y="-0.75" width="186.5" height="186.5" rx="93.25" transform="matrix(1 0 0 -1 58 186.5)" stroke="#3E9AF8" stroke-width="1.5"/>
    <g clip-path="url(#clip0_13647_636)">
        <mask id="mask0_13647_636" style="mask-type:luminance" maskUnits="userSpaceOnUse" x="106" y="48" width="93" height="92">
            <path d="M106 48H198V140H106V48Z" fill="white"/>
        </mask>
        <g mask="url(#mask0_13647_636)">
            <path d="M172.485 129.578H119.297C116.915 129.578 114.985 131.509 114.985 133.891C114.985 136.272 116.915 138.203 119.297 138.203H172.485C174.866 138.203 176.797 136.272 176.797 133.891C176.797 131.509 174.866 129.578 172.485 129.578Z" stroke="#3E9AF8" stroke-width="4" stroke-miterlimit="10" stroke-linecap="round" stroke-linejoin="round"/>
            <path d="M121.453 97.7734V129.578H170.328V56.9844C170.328 53.0149 167.11 49.7969 163.141 49.7969H128.641C124.672 49.7969 121.453 53.0149 121.453 56.9844V81.6016" stroke="#3E9AF8" stroke-width="4" stroke-miterlimit="10" stroke-linecap="round" stroke-linejoin="round"/>
            <path d="M162.396 71.374H129.334V58.4365H162.396V71.374Z" stroke="#3E9AF8" stroke-width="4" stroke-miterlimit="10" stroke-linecap="round" stroke-linejoin="round"/>
            <path d="M170.328 102.559H174.622C177.271 102.559 179.42 104.707 179.42 107.357V115.624C179.42 118.274 181.568 120.422 184.218 120.422C186.868 120.422 189.016 118.274 189.016 115.624V73.6052C189.016 68.3952 184.792 64.1716 179.582 64.1716H170.328" stroke="#3E9AF8" stroke-width="4" stroke-miterlimit="10" stroke-linecap="round" stroke-linejoin="round"/>
            <path d="M189.016 82.5596H183.133C180.446 82.5596 178.267 80.3814 178.267 77.6944V65.3434" stroke="#3E9AF8" stroke-width="4" stroke-miterlimit="10" stroke-linecap="round" stroke-linejoin="round"/>
        </g>
        <circle cx="121.333" cy="90" r="2" fill="#3E9AF8"/>
        <path d="M154.333 103.998C154.333 108.693 150.528 112.499 145.833 112.499C141.139 112.499 137.333 108.693 137.333 103.998C137.333 99.3041 145.833 89.9998 145.833 89.9998C145.833 89.9998 154.333 99.3041 154.333 103.998Z" stroke="#3E9AF8" stroke-width="4" stroke-miterlimit="10" stroke-linecap="round" stroke-linejoin="round"/>
    </g>
    <defs>
        <clipPath id="clip0_13647_636">
            <rect width="92" height="92" fill="white" transform="translate(106 48)"/>
        </clipPath>
    </defs>
</svg>
