<svg width="248" height="308" viewBox="0 0 246 308" fill="none" xmlns="http://www.w3.org/2000/svg">
    <path fill-rule="evenodd" clip-rule="evenodd" d="M42.4334 214H0V212.5H42.4334V214Z" fill="#91A3BE"/>
    <path d="M42 214C42 199.555 44.8452 185.251 50.3732 171.905C55.9013 158.559 64.0038 146.433 74.2183 136.218C84.4327 126.004 96.559 117.901 109.905 112.373C123.251 106.845 137.555 104 152 104V105.499C137.751 105.499 123.642 108.305 110.478 113.758C97.3144 119.211 85.3533 127.203 75.2781 137.278C65.2028 147.353 57.2107 159.314 51.758 172.478C46.3053 185.642 43.4988 199.751 43.4988 214H42Z" fill="#91A3BE"/>
    <path fill-rule="evenodd" clip-rule="evenodd" d="M151.5 105.5L151.5 23.5L153 23.5L153 105.5L151.5 105.5Z" fill="#91A3BE"/>
    <path d="M164 12C164 18.6274 158.627 24 152 24C145.373 24 140 18.6274 140 12C140 5.37258 145.373 0 152 0C158.627 0 164 5.37258 164 12Z" fill="#F4F8FE"/>
    <path fill-rule="evenodd" clip-rule="evenodd" d="M152 22.5C157.799 22.5 162.5 17.799 162.5 12C162.5 6.20101 157.799 1.5 152 1.5C146.201 1.5 141.5 6.20101 141.5 12C141.5 17.799 146.201 22.5 152 22.5ZM152 24C158.627 24 164 18.6274 164 12C164 5.37258 158.627 0 152 0C145.373 0 140 5.37258 140 12C140 18.6274 145.373 24 152 24Z" fill="#91A3BE"/>
    <rect x="58.75" y="120.75" width="186.5" height="186.5" rx="93.25" stroke="#91A3BE" stroke-width="1.5"/>
    <path d="M197.475 214.309L182.442 199.238C182.104 198.9 181.646 198.711 181.169 198.711H171.934C169.86 198.711 168.172 200.398 168.172 202.472V223.125H162.253V205.156C162.253 203.175 160.641 201.562 158.66 201.562H151.472V183.594C151.472 181.612 149.86 180 147.878 180H129.91C127.928 180 126.316 181.612 126.316 183.594V191.5H119.106C118.113 191.5 117.309 192.304 117.309 193.297C117.309 194.289 118.113 195.094 119.106 195.094H126.316V201.562H107.797C106.804 201.562 106 202.367 106 203.359C106 204.352 106.804 205.156 107.797 205.156H115.512V223.125H107.797C106.804 223.125 106 223.929 106 224.922V234.984C106 235.977 106.804 236.781 107.797 236.781H115.396C115.354 237.135 115.329 237.494 115.329 237.859C115.329 239.88 116 241.747 117.131 243.25H107.797C106.804 243.25 106 244.054 106 245.047C106 246.039 106.804 246.844 107.797 246.844H138.688C143.642 246.844 147.673 242.813 147.673 237.859C147.673 237.494 147.648 237.135 147.605 236.781H173.629C173.587 237.135 173.562 237.494 173.562 237.859C173.562 239.88 174.234 241.747 175.364 243.25H158.379C157.386 243.25 156.582 244.054 156.582 245.047C156.582 246.039 157.386 246.844 158.379 246.844H182.547C187.501 246.844 191.531 242.813 191.531 237.859C191.531 237.494 191.507 237.135 191.465 236.781H194.238C196.312 236.781 198 235.094 198 233.019V215.578C198 215.102 197.811 214.646 197.475 214.309ZM194.406 220.25H185.088L188.402 216.937L191.715 213.623L194.406 216.321V220.25ZM178.953 218.453V213.194L185.127 207.019L189.177 211.079L180.121 220.134C179.44 219.879 178.953 219.222 178.953 218.453ZM182.589 204.475L178.953 208.111V202.304H180.424L182.589 204.475ZM158.662 223.125H158.66H140.691V205.156H144.285V210.547C144.285 211.539 145.089 212.344 146.082 212.344H153.269C154.262 212.344 155.066 211.539 155.066 210.547V205.156H158.66L158.662 223.125ZM147.878 205.156H151.472V208.75H147.878V205.156ZM140.668 183.594V187.188H137.075V183.594H140.668ZM129.91 183.594H133.481V188.984C133.481 189.977 134.285 190.781 135.278 190.781H142.465C143.457 190.781 144.262 189.977 144.262 188.984V183.594H147.878L147.881 201.562H147.878H129.91V183.594ZM129.91 205.156V208.75H126.316V205.156H129.91ZM119.106 205.156H122.722V210.547C122.722 211.539 123.527 212.344 124.519 212.344H131.707C132.699 212.344 133.503 211.539 133.503 210.547V205.156H137.075L137.077 223.125H137.075H119.106V205.156ZM118.923 237.859C118.923 234.887 121.341 232.469 124.313 232.469C127.286 232.469 129.704 234.887 129.704 237.859C129.704 240.832 127.286 243.25 124.313 243.25C121.341 243.25 118.923 240.832 118.923 237.859ZM131.501 243.244C131.502 243.246 131.504 243.248 131.506 243.25H131.496C131.497 243.248 131.499 243.246 131.501 243.244ZM138.688 243.25C135.716 243.25 133.298 240.832 133.298 237.859C133.298 234.887 135.716 232.469 138.688 232.469C141.661 232.469 144.079 234.887 144.079 237.859C144.079 240.832 141.661 243.25 138.688 243.25ZM146.359 233.188C144.78 230.603 141.932 228.875 138.688 228.875C135.752 228.875 133.141 230.291 131.501 232.475C129.86 230.291 127.249 228.875 124.313 228.875C121.069 228.875 118.222 230.603 116.642 233.188H109.594V226.719H168.172V233.188H146.359ZM182.547 243.25C179.574 243.25 177.156 240.832 177.156 237.859C177.156 234.887 179.574 232.469 182.547 232.469C185.519 232.469 187.938 234.887 187.938 237.859C187.938 240.832 185.519 243.25 182.547 243.25ZM194.238 233.188H190.218C188.638 230.603 185.791 228.875 182.547 228.875C179.303 228.875 176.455 230.603 174.876 233.188H171.766V202.472C171.766 202.38 171.841 202.304 171.934 202.304H175.359V218.453C175.359 221.426 177.777 223.844 180.75 223.844H194.406V233.019C194.406 233.112 194.33 233.188 194.238 233.188Z" fill="#305680"/>
    <path d="M151.191 243.25C150.719 243.25 150.255 243.442 149.921 243.776C149.587 244.111 149.395 244.574 149.395 245.047C149.395 245.519 149.587 245.983 149.921 246.317C150.255 246.651 150.719 246.844 151.191 246.844C151.664 246.844 152.128 246.651 152.462 246.317C152.796 245.983 152.988 245.519 152.988 245.047C152.988 244.574 152.796 244.111 152.462 243.776C152.128 243.442 151.664 243.25 151.191 243.25Z" fill="#305680"/>
    <path d="M111.797 195.094C112.27 195.094 112.733 194.901 113.067 194.567C113.401 194.233 113.594 193.769 113.594 193.297C113.594 192.824 113.402 192.361 113.067 192.026C112.733 191.692 112.27 191.5 111.797 191.5C111.323 191.5 110.859 191.692 110.525 192.026C110.191 192.361 110 192.824 110 193.297C110 193.769 110.191 194.233 110.525 194.567C110.859 194.901 111.323 195.094 111.797 195.094Z" fill="#305680"/>
</svg>
