<svg width="24" height="24" viewBox="0 0 24 24" fill="none" xmlns="http://www.w3.org/2000/svg">
<path fill-rule="evenodd" clip-rule="evenodd" d="M12.9956 4.16429C12.3629 3.94524 11.6371 3.94524 11.0044 4.16429L1.87937 7.32362C1.48126 7.46146 1 7.84867 1 8.5C1 9.15133 1.48126 9.53854 1.87937 9.67638L5 10.7568V16.2778C5 17.6638 6.19209 18.5906 7.34419 19.1133C8.58722 19.6773 10.2342 20 12 20C13.7658 20 15.4128 19.6773 16.6558 19.1133C17.8079 18.5906 19 17.6638 19 16.2778V10.7568L21 10.0644V14.5H23V8.5C23 7.84867 22.5187 7.46146 22.1206 7.32362L12.9956 4.16429ZM11.6588 6.05422C11.8676 5.98193 12.1324 5.98193 12.3412 6.05422L19.4053 8.5L12.3412 10.9458C12.1324 11.0181 11.8676 11.0181 11.6588 10.9458L4.59467 8.5L11.6588 6.05422ZM7 16.2778V15.9451C7.11432 16.0052 7.22945 16.0613 7.34419 16.1133C8.58722 16.6773 10.2342 17 12 17C13.7658 17 15.4128 16.6773 16.6558 16.1133C16.7705 16.0613 16.8857 16.0052 17 15.9451V16.2778C17 16.3952 16.8489 16.8295 15.8295 17.292C14.9009 17.7133 13.5479 18 12 18C10.4521 18 9.09907 17.7133 8.17053 17.292C7.15105 16.8295 7 16.3952 7 16.2778ZM15.8295 14.292C16.8489 13.8295 17 13.3952 17 13.2778V11.4493L12.9956 12.8357C12.3629 13.0548 11.6371 13.0548 11.0044 12.8357L7 11.4493V13.2778C7 13.3952 7.15105 13.8295 8.17053 14.292C9.09907 14.7133 10.4521 15 12 15C13.5479 15 14.9009 14.7133 15.8295 14.292Z" fill="#212529"/>
</svg>
