<?xml version="1.0" encoding="UTF-8"?>
<svg width="1850" height="600" version="1.1" viewBox="0 0 1850 600" xmlns="http://www.w3.org/2000/svg" xmlns:cc="http://creativecommons.org/ns#" xmlns:dc="http://purl.org/dc/elements/1.1/" xmlns:rdf="http://www.w3.org/1999/02/22-rdf-syntax-ns#">
 <metadata>
  <rdf:RDF>
   <cc:Work rdf:about="">
    <dc:format>image/svg+xml</dc:format>
    <dc:type rdf:resource="http://purl.org/dc/dcmitype/StillImage"/>
    <dc:title/>
   </cc:Work>
  </rdf:RDF>
 </metadata>
 <g transform="translate(197.55 140)">
  <g transform="matrix(.9401 0 0 .9401 1.9628 -688.5)">
   <g transform="translate(0,732.36)" fill="#305680">
    <g fill="#fff">
     <g transform="translate(-6.1238e-5,-732.36)" shape-rendering="auto">
      <path d="m151.13 732.36c-28.363 0-54.915 7.9153-77.613 21.537-6.4723-5.2623-14.605-8.1915-23.067-8.1937a8.7661 8.7661 0 0 0-0.0035 0c-20.154 7.3e-4 -36.679 16.528-36.678 36.682a8.7661 8.7661 0 0 0 0 0.0106c0.0099 8.4147 2.9267 16.483 8.1033 22.927-13.83 22.83-21.87 49.58-21.87 78.17a8.7661 8.7661 0 1 0 17.531 0c0-24.702 6.7193-47.748 18.378-67.574 4.5663 1.9846 9.4727 3.1496 14.519 3.1573a8.7661 8.7661 0 0 0 0.01241 0c20.155 6.2e-4 36.683-16.527 36.682-36.682a8.7661 8.7661 0 0 0 0-4e-3c-0.0016-4.9994-1.1387-9.8628-3.0828-14.397 19.717-11.484 42.585-18.095 67.085-18.095a8.7661 8.7661 0 1 0 0-17.531zm-100.69 30.88c5.9129 2e-3 11.191 2.5121 14.836 7.0769a8.7661 8.7661 0 0 0 0.1826 0.21451c2.6715 3.3798 4.1326 7.5531 4.1341 11.863-0.0015 10.677-8.468 19.144-19.144 19.148-4.37-8e-3 -8.6011-1.5088-12-4.2546a8.7661 8.7661 0 0 0-0.01241-9e-3c-4.514-3.6331-7.1358-9.0979-7.1442-14.893 0.0025-10.677 8.4701-19.144 19.148-19.146z" color="#000000" color-rendering="auto" image-rendering="auto" solid-color="#000000" style="isolation:auto;mix-blend-mode:normal;text-decoration-color:#000000;text-decoration-line:none;text-decoration-style:solid;text-indent:0;text-transform:none;white-space:normal"/>
      <path d="m66.992 835.19c-1.492 1.5583-2.3663 3.7103-2.2576 6.0713 0.0962 2.0447 0.91322 4.0204 2.3372 5.5177 6.8051 6.8559 20.223 20.223 20.223 20.223l11.844-11.83s-12.973-12.961-20.176-20.171c-1.604-1.6325-3.7498-2.3141-6.012-2.3243-2.3583-0.0112-4.4673 0.95389-5.9592 2.5122zm32.147 19.98-36.639 36.64c-3.9751 3.976-3.9751 10.421 0 14.397l80.387 80.387c3.9758 3.9759 10.422 3.9763 14.398 0l99.344-99.344c3.9754-3.9764 3.975-10.422-6.7e-4 -14.398l-18.63-18.63-31.75-31.76-30.01-30c-3.976-3.9751-10.421-3.9751-14.397 0l-62.7 62.7zm37.911-37.91s-12.973-12.961-20.176-20.171c-1.604-1.6325-3.7498-2.3141-6.012-2.3243-4.7166-0.0226-8.4341 3.8616-8.2169 8.5834 0.0962 2.0447 0.91322 4.0204 2.3372 5.5177 6.8051 6.8559 20.223 20.223 20.223 20.223l11.844-11.83zm69.193 5.2132s12.961-12.973 20.171-20.176c1.6325-1.604 2.3141-3.7498 2.3243-6.012 0.0225-4.7166-3.8616-8.4341-8.5834-8.2169-2.0447 0.0962-4.0204 0.91322-5.5177 2.3372-6.8559 6.8051-20.223 20.223-20.223 20.223l11.83 11.844zm31.753 31.753s12.961-12.973 20.171-20.176c1.6325-1.604 2.314-3.7498 2.3243-6.012 0.0225-4.7166-3.8616-8.4341-8.5834-8.2169-2.0447 0.0962-4.0204 0.91323-5.5177 2.3372-6.8559 6.8051-20.223 20.223-20.223 20.223l11.83 11.844zm-18.009 69.667s12.973 12.961 20.178 20.169c1.604 1.6324 3.7498 2.314 6.012 2.3243 4.7166 0.0225 8.4342-3.8615 8.2169-8.5834l-2e-3 2e-3c-0.0962-2.0447-0.91415-4.0214-2.3382-5.5186-6.8051-6.8559-20.222-20.222-20.222-20.222l-11.844 11.83zm-37.914 37.914s12.973 12.961 20.178 20.169c1.604 1.6324 3.7498 2.314 6.012 2.3242 4.7166 0.023 8.4342-3.8615 8.2169-8.5834h-2e-3c-0.0962-2.0447-0.91323-4.0205-2.3372-5.5177-6.8051-6.8559-20.223-20.223-20.223-20.223l-11.844 11.83zm-69.667-5.6871s-12.961 12.973-20.169 20.178c-1.6324 1.604-2.314 3.7498-2.3243 6.012-0.02251 4.7166 3.8615 8.4342 8.5834 8.2169h-0.0019c2.0447-0.096 4.0204-0.9132 5.5177-2.3373 6.8561-6.8048 20.223-20.223 20.223-20.223l-11.82-11.84zm-31.743-31.74s-12.961 12.973-20.169 20.178c-1.6324 1.604-2.314 3.7498-2.3243 6.012-0.02251 4.7167 3.8615 8.4342 8.5834 8.2169h-0.0019c2.0447-0.0962 4.0204-0.91322 5.5177-2.3372 6.8561-6.8047 20.223-20.223 20.223-20.223l-11.829-11.85zm87.237-90.554c1.6794-1.7064 3.9669-2.6599 6.2971-2.626 1.6628 0.0237 3.253 0.55012 4.5625 1.5097l16.499 12.1c3.2009 2.297 4.1445 6.6589 2.2308 10.312-1.9137 3.6528-6.1234 5.5243-9.9506 4.4227l6.124 23.948c1.1128 4.3517-1.564 8.9677-5.9833 10.317l-44.642 13.631 8.2456 31.883c1.1728 4.3696-1.5017 9.0445-5.9546 10.407s-8.9756-1.1106-10.068-5.5047l-10.282-39.769c-1.1265-4.3556 1.5493-8.9847 5.9759-10.338l44.661-13.637-4.1219-16.118c-2.7634 3.0643-7.2335 3.8084-10.586 1.7615-3.3531-2.0469-4.6144-6.2896-2.9861-10.047l8.1169-19.454c0.43322-1.0376 1.0673-1.9888 1.8624-2.7973z" color="#000000" color-rendering="auto" fill-rule="evenodd" image-rendering="auto" solid-color="#000000" style="isolation:auto;mix-blend-mode:normal;text-decoration-color:#000000;text-decoration-line:none;text-decoration-style:solid;text-indent:0;text-transform:none;white-space:normal"/>
      <path d="m168.87 1052.4c28.363 0 54.915-7.9155 77.614-21.538 6.4724 5.2624 14.605 8.1917 23.067 8.1939a8.7662 8.7662 0 0 0 4e-3 0c20.155-7e-4 36.68-16.528 36.679-36.682a8.7662 8.7662 0 0 0 0-0.011c-0.01-8.4149-2.9267-16.484-8.1034-22.927 13.825-22.82 21.866-49.572 21.866-78.162a8.7662 8.7662 0 1 0-17.531 0c0 24.703-6.7194 47.749-18.378 67.575-4.5664-1.9846-9.4728-3.1496-14.519-3.1573a8.7662 8.7662 0 0 0-0.0124 0c-20.155-6.2e-4 -36.683 16.527-36.682 36.682 2e-3 4.9994 1.1387 9.8628 3.0829 14.397-19.717 11.484-42.586 18.095-67.086 18.095a8.7662 8.7662 0 1 0 0 17.531zm100.69-30.875c-5.913 0-11.191-2.5122-14.836-7.0769a8.7662 8.7662 0 0 0-0.18261-0.2146c-2.6715-3.3799-4.1327-7.5531-4.1341-11.863 2e-3 -10.677 8.4681-19.144 19.144-19.148 4.37 8e-3 8.6012 1.5088 12 4.2547a8.7662 8.7662 0 0 0 0.0124 9e-3c4.5141 3.6332 7.1359 9.098 7.1443 14.893-3e-3 10.677-8.4702 19.145-19.148 19.146z" color="#000000" color-rendering="auto" image-rendering="auto" solid-color="#000000" style="isolation:auto;mix-blend-mode:normal;text-decoration-color:#000000;text-decoration-line:none;text-decoration-style:solid;text-indent:0;text-transform:none;white-space:normal"/>
     </g>
     <path d="m477.92 93.229h-48.56v134.68h-19.82v-134.68h-48.45v-16.395h116.83v16.394z"/>
     <path d="m516.72 129.23q12.762-15.668 33.203-15.668 35.59 0 35.901 40.155v74.188h-19.196v-74.292q-0.10376-12.14-5.603-17.95-5.3955-5.8105-16.913-5.8105-9.3384 0-16.394 4.9805-7.0557 4.9805-10.999 13.074v79.999h-19.19v-159.38h19.196v60.699z"/>
     <path d="m635.43 227.91h-19.2v-112.27h19.2zm-20.76-142.05q0-4.6692 2.8015-7.8857 2.9053-3.2166 8.5083-3.2166t8.5083 3.2166 2.9053 7.8857q0 4.6692-2.9053 7.782t-8.5083 3.1128-8.5083-3.1128q-2.8-3.113-2.8-7.782z"/>
     <path d="m684.19 115.64 0.62256 14.111q12.866-16.187 33.618-16.187 35.59 0 35.901 40.155v74.188h-19.196v-74.292q-0.10376-12.14-5.603-17.95-5.3955-5.8105-16.913-5.8105-9.3384 0-16.394 4.9805-7.0557 4.9805-10.999 13.074v79.999h-19.196v-112.27h18.158z"/>
     <path d="m778.92 170.84q0-26.251 12.14-41.711 12.14-15.564 32.166-15.564 20.544 0 32.062 14.526l0.93384-12.451h17.535v109.57q0 21.79-12.97 34.344-12.866 12.555-34.656 12.555-12.14 0-23.761-5.188t-17.743-14.215l9.9609-11.517q12.347 15.253 30.194 15.253 14.008 0 21.79-7.8857 7.8857-7.8858 7.8857-22.205v-9.6497q-11.517 13.281-31.439 13.281-19.714 0-31.958-15.875-12.14-15.875-12.14-43.268zm19.299 2.179q0 18.988 7.782 29.883 7.782 10.791 21.79 10.791 18.158 0 26.666-16.498v-51.257q-8.8196-16.083-26.459-16.083-14.008 0-21.893 10.895-7.8858 10.895-7.8858 32.269z"/>
     <path d="m967.98 198.13q0-7.782-5.9143-12.036-5.8106-4.3579-20.441-7.4707-14.526-3.1128-23.138-7.4707-8.5083-4.3579-12.659-10.376-4.0466-6.0181-4.0466-14.319 0-13.8 11.621-23.346 11.725-9.5459 29.883-9.5459 19.092 0 30.92 9.8572 11.932 9.8572 11.932 25.214h-19.299q0-7.8858-6.7444-13.593-6.6406-5.7068-16.809-5.7068-10.48 0-16.394 4.5654-5.9143 4.5654-5.9143 11.932 0 6.9519 5.4993 10.48 5.4993 3.5278 19.818 6.7444 14.423 3.2166 23.346 7.6782 8.9233 4.4617 13.177 10.791 4.3579 6.2256 4.3579 15.253 0 15.045-12.036 24.176-12.036 9.0271-31.232 9.0271-13.489 0-23.865-4.773t-16.29-13.281q-5.8105-8.6121-5.8105-18.573h19.196q0.5188 9.6497 7.6782 15.356 7.2632 5.603 19.092 5.603 10.895 0 17.432-4.3579 6.6406-4.4617 6.6406-11.829z"/>
     <path d="m1015.2 227.91v-151.07h49.39q24.591 0 36.938 10.168 12.451 10.168 12.451 30.09 0 10.583-6.0181 18.781-6.018 8.0933-16.394 12.555 12.244 3.4241 19.299 13.074 7.1594 9.5459 7.1594 22.827 0 20.337-13.178 31.958t-37.25 11.621h-52.399zm19.922-70.66v54.37h32.892q13.904 0 21.893-7.1594 8.0933-7.2632 8.0933-19.922 0-27.289-29.675-27.289h-33.203zm0-15.979h30.09q13.074 0 20.856-6.5369 7.8858-6.5369 7.8858-17.743 0-12.451-7.2632-18.054-7.2632-5.7068-22.101-5.7068h-29.468v48.041z"/>
     <path d="m1139.5 170.74q0-16.498 6.4331-29.675 6.5369-13.177 18.054-20.337 11.621-7.1594 26.459-7.1594 22.931 0 37.042 15.875 14.215 15.875 14.215 42.23v1.3489q0 16.394-6.3294 29.468-6.2256 12.97-17.95 20.233-11.621 7.2632-26.77 7.2632-22.827 0-37.042-15.875-14.1-15.88-14.1-42.02v-1.3489zm19.299 2.2827q0 18.677 8.6121 29.987 8.7158 11.31 23.242 11.31 14.63 0 23.242-11.414 8.6121-11.517 8.6121-32.166 0-18.469-8.8196-29.883-8.7158-11.517-23.242-11.517-14.215 0-22.931 11.31-8.7158 11.31-8.7158 32.373z"/>
     <path d="m1335.1 227.91q-1.6602-3.3203-2.6978-11.829-13.385 13.904-31.958 13.904-16.602 0-27.289-9.3384-10.584-9.4421-10.584-23.865 0-17.535 13.281-27.185 13.385-9.7534 37.561-9.7534h18.677v-8.8196q0-10.065-6.018-15.979-6.0181-6.0181-17.743-6.0181-10.272 0-17.224 5.188-6.9519 5.188-6.9519 12.555h-19.299q0-8.4045 5.9143-16.187 6.0181-7.8858 16.186-12.451 10.272-4.5654 22.516-4.5654 19.403 0 30.402 9.7534 10.998 9.6497 11.414 26.666v51.672q0 15.46 3.9429 24.591v1.6602h-20.129zm-31.854-14.63q9.0271 0 17.12-4.6692 8.0932-4.6692 11.725-12.14v-23.035h-15.045q-35.278 0-35.278 20.648 0 9.0271 6.0181 14.111 6.0181 5.0842 15.46 5.0842z"/>
     <path d="m1435.8 132.87q-4.3579-0.72632-9.4422-0.72632-18.884 0-25.629 16.083v79.688h-19.196v-112.27h18.677l0.3113 12.97q9.4421-15.045 26.77-15.045 5.603 0 8.5083 1.4526v17.847z"/>
     <path d="m1448.7 170.84q0-25.836 12.244-41.504 12.244-15.771 32.062-15.771 19.714 0 31.232 13.489v-58.517h19.196v159.38h-17.639l-0.9339-12.036q-11.517 14.111-32.062 14.111-19.507 0-31.854-15.979-12.244-15.979-12.244-41.711v-1.4526zm19.196 2.179q0 19.092 7.8858 29.883 7.8857 10.791 21.79 10.791 18.262 0 26.666-16.394v-51.57q-8.6121-15.875-26.459-15.875-14.111 0-21.997 10.895-7.8858 10.895-7.8858 32.269z"/>
    </g>
   </g>
  </g>
  <g fill="#fff" stroke-width="1px" style="font-variant-caps:normal;font-variant-east-asian:normal;font-variant-ligatures:normal;font-variant-numeric:normal" aria-label="Cloud Platform">
   <path d="m881.05 297.99h8.75q-1.0026 9.4336-7.1094 15.723-6.1068 6.2891-18.047 6.2891-11.576 0-18.685-8.2487-7.0638-8.2943-7.2005-22.012v-7.1094q0-13.945 7.155-22.376 7.2005-8.431 19.505-8.431 11.256 0 17.318 6.1979 6.0612 6.1979 7.0638 15.996h-8.75q-1.0026-6.9271-4.4661-10.937-3.4635-4.056-11.165-4.056-8.7956 0-13.353 6.4714t-4.5573 17.044v6.6992q0 9.7982 4.1471 16.725 4.1471 6.8815 12.988 6.8815 8.3854 0 11.803-3.9193 3.4635-3.9193 4.6029-10.937z"/>
   <path d="m909.63 249.09v70h-8.4766v-70z"/>
   <path d="m920.93 293.93q0-10.71 6.0156-17.865 6.0156-7.2005 16.361-7.2005t16.361 7.0638q6.0156 7.0182 6.1523 17.546v1.5039q0 10.71-6.0612 17.865-6.0156 7.155-16.361 7.155-10.391 0-16.452-7.155-6.0156-7.1549-6.0156-17.865zm8.431 1.0482q0 7.3372 3.4635 12.715 3.5091 5.3776 10.573 5.3776 6.8815 0 10.391-5.2865 3.5091-5.332 3.5547-12.669v-1.1849q0-7.2461-3.5091-12.669-3.5091-5.4688-10.527-5.4688-6.9726 0-10.482 5.4688-3.4635 5.4232-3.4635 12.669z"/>
   <path d="m1007 319.09-0.1823-4.8763q-4.8307 5.7878-14.401 5.7878-7.2461 0-11.712-4.2838-4.4661-4.2839-4.4661-14.128v-31.81h8.431v31.901q0 6.6536 2.78 8.9323 2.8255 2.2331 6.2891 2.2331 9.5247 0 12.852-7.1549v-35.911h8.4765v49.31z"/>
   <path d="m1059.7 319.09-0.4102-5.2864q-5.0586 6.1979-14.082 6.1979-8.6589 0-13.991-7.0182-5.332-7.0182-5.4232-17.637v-1.3216q0-11.302 5.3321-18.229 5.3776-6.9271 14.173-6.9271 8.7045 0 13.672 5.8333v-25.612h8.4766v70zm-25.43-24.108q0 7.3372 3.099 12.624 3.0989 5.2409 9.9349 5.2409 7.8385 0 11.667-7.1549v-22.695q-3.7825-7.0182-11.576-7.0182-6.8815 0-10.026 5.3776-3.099 5.332-3.099 12.669z"/>
   <path d="m1113.7 293.07v26.022h-8.7955v-66.354h24.473q11.302 0 17.272 5.6966 6.0157 5.6966 6.0157 14.538 0 9.6159-6.0157 14.857-5.97 5.2409-17.272 5.2409zm0-33.132v25.977h15.677q7.7474 0 11.12-3.6003t3.3724-9.2513q0-5.1042-3.3724-9.1146t-11.12-4.0104z"/>
   <path d="m1171.7 249.09v70h-8.4766v-70z"/>
   <path d="m1215.6 319.09q-0.8203-1.7773-1.1849-5.1953-2.3698 2.5065-5.9244 4.3294-3.5547 1.7773-8.112 1.7773-7.5651 0-12.122-4.2383t-4.5573-10.391q0-7.9297 6.0156-12.031 6.0156-4.1471 16.178-4.1471h8.3398v-3.9193q0-4.375-2.6432-6.9726-2.5976-2.6432-7.7474-2.6432-4.7851 0-7.7474 2.3698-2.9166 2.3242-2.9166 5.4232h-8.431q0-5.2864 5.332-9.9349 5.332-4.6484 14.264-4.6484 8.0209 0 13.171 4.1016t5.1497 12.396v22.148q0 6.8359 1.7318 10.846v0.72916zm-13.991-6.4714q4.5573 0 7.8842-2.2786 3.3724-2.2786 4.7395-5.0586v-10.163h-7.8385q-14.219 0.27343-14.219 9.1146 0 3.5091 2.3697 5.97 2.3698 2.4154 7.0638 2.4154z"/>
   <path d="m1256.8 319.09q-2.8711 0.91146-6.5169 0.91146-4.694 0-8.0208-2.8711-3.3269-2.8711-3.3269-10.299v-30.579h-9.0234v-6.4714h9.0234v-11.986h8.431v11.986h9.2057v6.4714h-9.2057v30.625q0 3.7826 1.6406 4.8307 1.6407 1.0482 3.7826 1.0482 1.595 0 3.9648-0.54688z"/>
   <path d="m1289.6 276.25h-10.482v42.839h-8.431v-42.839h-7.793v-6.4714h7.793v-5.5143q0.091-7.8385 4.375-11.986 4.3294-4.1471 11.803-4.1471 2.7799 0 5.8333 0.72916l-0.4557 6.8815q-1.9141-0.41015-4.5573-0.41015-8.431 0-8.5677 8.9779v5.4687h10.482z"/>
   <path d="m1296.7 293.93q0-10.71 6.0156-17.865 6.0156-7.2005 16.361-7.2005 10.345 0 16.361 7.0638 6.0156 7.0182 6.1523 17.546v1.5039q0 10.71-6.0612 17.865-6.0156 7.155-16.361 7.155-10.391 0-16.452-7.155-6.0156-7.1549-6.0156-17.865zm8.431 1.0482q0 7.3372 3.4635 12.715 3.5091 5.3776 10.573 5.3776 6.8815 0 10.391-5.2865 3.5091-5.332 3.5546-12.669v-1.1849q0-7.2461-3.5091-12.669-3.5091-5.4688-10.527-5.4688-6.9727 0-10.482 5.4688-3.4635 5.4232-3.4635 12.669z"/>
   <path d="m1371.9 276.98q-8.2487 0-11.256 7.1094v35h-8.431v-49.31h8.2031l0.1823 5.651q4.056-6.5625 11.712-6.5625 2.3698 0 3.737 0.63802l-0.046 7.8385q-1.8684-0.36459-4.1015-0.36459z"/>
   <path d="m1403.5 275.98q-8.2943 0-11.348 6.9726v36.139h-8.4765v-49.31h8.0208l0.2279 5.3776q5.332-6.2891 14.583-6.2891 4.7396 0 8.431 1.9141 3.737 1.8685 5.6966 6.0156 2.4609-3.5547 6.3802-5.7422 3.9648-2.1875 9.2969-2.1875 7.9297 0 12.214 4.2383 4.3294 4.2383 4.3294 13.581v32.402h-8.4765v-32.493q0-6.1979-2.8711-8.3854-2.8255-2.2331-7.6563-2.2331-5.1041 0-8.0208 3.0534-2.9167 3.0078-3.3724 7.3372v32.721h-8.431v-32.448q0-5.7878-2.8711-8.2031-2.8711-2.4609-7.6562-2.4609z"/>
  </g>
 </g>
</svg>
