<svg xmlns="http://www.w3.org/2000/svg" width="78" height="82">
  <path d="M53.681 59.929a1759.16 1759.16 0 0 0 3.062-3.126c1.235-1.247 1.34-2.96.268-4.363l-1.553-2.042c.315-.652.595-1.333.83-2.03.87-.124 1.741-.252 2.611-.38 1.668-.245 2.788-1.538 2.788-3.218v-4.553c0-1.68-1.123-2.972-2.794-3.217l-2.607-.382a17.416 17.416 0 0 0-.988-2.353l1.518-2.082c1.049-1.422.9-3.136-.375-4.365-1.036-1.019-2.087-2.05-3.142-3.081-1.217-1.185-2.999-1.29-4.347-.258 0 0-1.415 1.072-2.049 1.556a17.349 17.349 0 0 0-2.03-.828c-.106-.74-.381-2.6-.381-2.6-.24-1.675-1.537-2.8-3.23-2.8h-4.526c-1.681 0-2.98 1.112-3.23 2.771 0 0-.31 2.128-.38 2.63-.806.27-1.598.602-2.358.986-.66-.485-1.354-.99-2.096-1.528-1.351-.98-3.107-.848-4.288.327-.729.734-3.131 3.191-3.131 3.191-1.23 1.251-1.334 2.964-.265 4.364l1.553 2.042c-.32.661-.599 1.342-.83 2.027L19.102 37c-1.668.242-2.79 1.546-2.79 3.245v4.5c0 1.702 1.128 3.006 2.807 3.245l2.592.379c.27.799.603 1.59.991 2.353-.343.466-1.52 2.084-1.52 2.084-1.054 1.43-.916 3.098.36 4.351.787.773 3.16 3.095 3.16 3.095.847.817 1.721.989 2.306.989.725 0 1.415-.248 2.047-.738l2.041-1.55c.659.32 1.34.598 2.03.828.085.604.378 2.593.378 2.593.25 1.68 1.55 2.808 3.232 2.808h4.529c1.679 0 2.975-1.113 3.227-2.772.13-.88.257-1.755.383-2.63a17.821 17.821 0 0 0 2.355-.987s2.064 1.51 2.066 1.51c1.403 1.028 3.18.876 4.385-.373zM39 52.265c-5.388 0-9.771-4.383-9.771-9.77 0-5.388 4.383-9.77 9.771-9.77 5.389 0 9.772 4.382 9.772 9.77 0 5.387-4.383 9.77-9.772 9.77zM72.261 37.71h-.488C70.424 20.667 56.248 7.21 39 7.21c-17.247 0-31.424 13.456-32.773 30.5H5.74c-2.769 0-5.012 2.142-5.012 4.784v9.568c0 2.642 2.243 4.785 5.012 4.785h8.144V37.71H8.63C9.971 21.988 23.072 9.604 39 9.604c15.928 0 29.03 12.384 30.371 28.107h-5.254v19.137h4.457c-.873 2.907-3.734 9.567-12.13 12.537a3.582 3.582 0 0 0-3.092-1.773 3.589 3.589 0 0 0 0 7.176 3.586 3.586 0 0 0 3.542-3.036c10.199-3.458 13.35-11.983 14.147-14.904h1.22c2.769 0 5.012-2.143 5.012-4.785v-9.568c0-2.642-2.243-4.784-5.012-4.784z" fill="#fff"/>
</svg>
