<?xml version="1.0" encoding="UTF-8" standalone="no"?>
<svg
   xmlns:dc="http://purl.org/dc/elements/1.1/"
   xmlns:cc="http://creativecommons.org/ns#"
   xmlns:rdf="http://www.w3.org/1999/02/22-rdf-syntax-ns#"
   xmlns:svg="http://www.w3.org/2000/svg"
   xmlns="http://www.w3.org/2000/svg"
   xmlns:sodipodi="http://sodipodi.sourceforge.net/DTD/sodipodi-0.dtd"
   xmlns:inkscape="http://www.inkscape.org/namespaces/inkscape"
   height="600"
   width="1850"
   version="1.1"
   id="svg116"
   sodipodi:docname="edge.svg"
   inkscape:version="1.0 (6e3e5246a0, 2020-05-07)">
  <metadata
     id="metadata122">
    <rdf:RDF>
      <cc:Work
         rdf:about="">
        <dc:format>image/svg+xml</dc:format>
        <dc:type
           rdf:resource="http://purl.org/dc/dcmitype/StillImage" />
        <dc:title></dc:title>
      </cc:Work>
    </rdf:RDF>
  </metadata>
  <defs
     id="defs120" />
  <sodipodi:namedview
     inkscape:document-rotation="0"
     pagecolor="#ffffff"
     bordercolor="#666666"
     borderopacity="1"
     objecttolerance="10"
     gridtolerance="10"
     guidetolerance="10"
     inkscape:pageopacity="0"
     inkscape:pageshadow="2"
     inkscape:window-width="1853"
     inkscape:window-height="1052"
     id="namedview118"
     showgrid="false"
     showguides="true"
     inkscape:guide-bbox="true"
     inkscape:zoom="0.48618368"
     inkscape:cx="691.3898"
     inkscape:cy="370.91604"
     inkscape:window-x="67"
     inkscape:window-y="0"
     inkscape:window-maximized="1"
     inkscape:current-layer="g144" />
  <g
     stroke-width="28"
     id="g114">
    <g
       id="g144"
       style="fill:#241c1c">
      <g
         color="#000000"
         white-space="normal"
         id="g100"
         style="fill:#ffffff">
        <path
           style="text-indent:0;text-decoration:none;text-decoration-line:none;text-decoration-style:solid;text-decoration-color:#000000;text-transform:none;isolation:auto;mix-blend-mode:normal;fill:#ffffff"
           d="m 304.423,131.05 c -28.362,0 -54.914,7.915 -77.612,21.536 a 36.577,36.577 0 0 0 -23.066,-8.193 8.766,8.766 0 0 0 -0.004,0 c -20.153,0 -36.678,16.527 -36.677,36.68 a 8.766,8.766 0 0 0 0,0.012 36.69,36.69 0 0 0 8.103,22.926 c -13.83,22.83 -21.87,49.58 -21.87,78.169 a 8.766,8.766 0 1 0 17.531,0 c 0,-24.702 6.72,-47.747 18.378,-67.573 4.566,1.985 9.472,3.15 14.519,3.157 a 8.766,8.766 0 0 0 0.012,0 c 20.155,0 36.682,-16.527 36.681,-36.681 a 8.766,8.766 0 0 0 0,-0.004 c -0.001,-5 -1.138,-9.863 -3.082,-14.397 19.716,-11.484 42.584,-18.095 67.084,-18.095 a 8.766,8.766 0 1 0 0,-17.53 z m -100.688,30.879 c 5.913,0.002 11.19,2.512 14.836,7.077 a 8.766,8.766 0 0 0 0.182,0.214 19.136,19.136 0 0 1 4.134,11.863 c -0.001,10.677 -8.468,19.144 -19.143,19.148 a 19.145,19.145 0 0 1 -12,-4.255 8.766,8.766 0 0 0 -0.013,-0.009 19.135,19.135 0 0 1 -7.144,-14.893 c 0.003,-10.676 8.47,-19.143 19.148,-19.145 z"
           id="path94" />
        <path
           style="text-indent:0;text-decoration:none;text-decoration-line:none;text-decoration-style:solid;text-decoration-color:#000000;text-transform:none;isolation:auto;mix-blend-mode:normal;fill:#ffffff"
           d="m 220.287,233.878 a 8.187,8.187 0 0 0 -2.258,6.07 8.603,8.603 0 0 0 2.337,5.519 c 6.805,6.855 20.223,20.222 20.223,20.222 l 11.844,-11.83 c 0,0 -12.973,-12.96 -20.176,-20.17 -1.604,-1.633 -3.75,-2.314 -6.012,-2.325 a 8.15,8.15 0 0 0 -5.959,2.513 z m 32.146,19.982 -36.638,36.64 c -3.975,3.976 -3.975,10.42 0,14.396 l 18.155,18.156 31.753,31.753 30.477,30.477 c 3.976,3.976 10.422,3.976 14.398,0 l 24.79,-24.79 37.914,-37.914 36.638,-36.638 c 3.976,-3.977 3.975,-10.422 0,-14.398 l -18.63,-18.63 -31.75,-31.76 -30.009,-29.999 c -3.976,-3.975 -10.42,-3.975 -14.397,0 l -24.79,24.79 -37.909,37.91 z m 37.91,-37.909 c 0,0 -12.972,-12.96 -20.175,-20.17 -1.604,-1.633 -3.75,-2.315 -6.012,-2.325 -4.717,-0.022 -8.434,3.862 -8.217,8.583 a 8.603,8.603 0 0 0 2.337,5.518 c 6.805,6.856 20.223,20.223 20.223,20.223 l 11.844,-11.83 z m 69.192,5.213 c 0,0 12.96,-12.973 20.17,-20.176 1.633,-1.603 2.315,-3.75 2.325,-6.011 0.023,-4.717 -3.861,-8.434 -8.583,-8.217 a 8.603,8.603 0 0 0 -5.518,2.337 c -6.856,6.805 -20.222,20.223 -20.222,20.223 l 11.83,11.843 z m 31.753,31.753 c 0,0 12.96,-12.973 20.17,-20.176 1.633,-1.604 2.314,-3.75 2.325,-6.012 0.022,-4.716 -3.862,-8.434 -8.584,-8.217 a 8.604,8.604 0 0 0 -5.517,2.337 c -6.856,6.805 -20.223,20.223 -20.223,20.223 l 11.83,11.844 z m -18.01,69.665 c 0,0 12.974,12.961 20.179,20.169 1.604,1.632 3.75,2.314 6.011,2.324 4.717,0.023 8.435,-3.861 8.217,-8.583 l -0.002,0.002 a 8.606,8.606 0 0 0 -2.338,-5.518 c -6.805,-6.856 -20.222,-20.222 -20.222,-20.222 l -11.843,11.83 z m -37.912,37.914 c 0,0 12.972,12.96 20.177,20.168 1.604,1.633 3.75,2.314 6.012,2.325 4.717,0.023 8.434,-3.862 8.217,-8.584 h -0.002 a 8.603,8.603 0 0 0 -2.337,-5.517 c -6.805,-6.856 -20.223,-20.223 -20.223,-20.223 l -11.844,11.83 z M 265.7,354.809 c 0,0 -12.961,12.972 -20.169,20.177 -1.632,1.604 -2.314,3.75 -2.324,6.012 -0.023,4.717 3.861,8.434 8.583,8.217 h -0.002 a 8.602,8.602 0 0 0 5.518,-2.337 c 6.856,-6.805 20.222,-20.223 20.222,-20.223 l -11.82,-11.84 z m -31.743,-31.74 c 0,0 -12.96,12.973 -20.168,20.178 -1.633,1.604 -2.314,3.75 -2.325,6.012 -0.022,4.716 3.862,8.434 8.584,8.217 h -0.002 a 8.603,8.603 0 0 0 5.517,-2.338 c 6.856,-6.804 20.223,-20.222 20.223,-20.222 l -11.829,-11.85 z m 87.236,-90.552 c 1.68,-1.707 3.967,-2.66 6.297,-2.626 a 7.89,7.89 0 0 1 4.562,1.51 l 16.499,12.1 c 3.2,2.296 4.144,6.658 2.23,10.311 -1.913,3.653 -6.123,5.524 -9.95,4.423 l 6.124,23.947 c 1.113,4.352 -1.564,8.968 -5.983,10.317 l -44.641,13.631 8.245,31.882 c 1.173,4.37 -1.501,9.045 -5.954,10.407 -4.453,1.363 -8.976,-1.11 -10.068,-5.504 l -10.282,-39.769 c -1.126,-4.355 1.55,-8.984 5.976,-10.338 l 44.66,-13.636 -4.122,-16.118 c -2.763,3.064 -7.233,3.808 -10.586,1.761 -3.353,-2.046 -4.614,-6.289 -2.986,-10.046 l 8.117,-19.454 a 8.872,8.872 0 0 1 1.863,-2.797 z"
           fill-rule="evenodd"
           id="path96" />
        <path
           style="text-indent:0;text-decoration:none;text-decoration-line:none;text-decoration-style:solid;text-decoration-color:#000000;text-transform:none;isolation:auto;mix-blend-mode:normal;fill:#ffffff"
           d="m 322.163,451.084 c 28.362,0 54.914,-7.915 77.612,-21.538 a 36.577,36.577 0 0 0 23.067,8.194 8.766,8.766 0 0 0 0.004,0 c 20.155,0 36.68,-16.528 36.678,-36.681 a 8.766,8.766 0 0 0 0,-0.011 36.688,36.688 0 0 0 -8.103,-22.927 c 13.825,-22.82 21.866,-49.571 21.866,-78.16 a 8.766,8.766 0 1 0 -17.53,0 c 0,24.702 -6.72,47.748 -18.379,67.573 -4.566,-1.984 -9.472,-3.15 -14.518,-3.157 a 8.766,8.766 0 0 0 -0.013,0 c -20.154,0 -36.682,16.527 -36.681,36.681 0.002,5 1.139,9.863 3.083,14.397 -19.717,11.484 -42.586,18.095 -67.085,18.095 a 8.766,8.766 0 1 0 0,17.53 z m 100.688,-30.875 c -5.913,0 -11.19,-2.512 -14.836,-7.076 a 8.766,8.766 0 0 0 -0.182,-0.215 19.136,19.136 0 0 1 -4.134,-11.863 c 0.002,-10.676 8.468,-19.143 19.143,-19.147 a 19.144,19.144 0 0 1 12,4.254 8.766,8.766 0 0 0 0.013,0.01 19.135,19.135 0 0 1 7.144,14.892 c -0.003,10.677 -8.47,19.145 -19.148,19.146 z"
           id="path98" />
      </g>
      <path
         d="m 631.208,224.277 h -48.56 V 358.955 H 562.831 V 224.277 h -48.455 v -16.394 h 116.828 v 16.394 z m 38.799,36 q 12.762,-15.667 33.202,-15.667 35.59,0 35.9,40.154 v 74.187 H 719.914 V 284.66 q -0.104,-12.14 -5.603,-17.95 -5.395,-5.81 -16.913,-5.81 -9.338,0 -16.393,4.98 -7.056,4.98 -11,13.074 v 79.998 H 650.81 V 199.574 h 19.196 v 60.698 z m 118.708,98.679 H 769.519 V 246.687 h 19.196 z m -20.76,-142.048 q 0,-4.67 2.802,-7.886 2.905,-3.216 8.508,-3.216 5.603,0 8.508,3.216 2.905,3.217 2.905,7.886 0,4.67 -2.905,7.782 -2.905,3.113 -8.508,3.113 -5.603,0 -8.508,-3.113 -2.802,-3.113 -2.802,-7.782 z m 69.519,29.779 0.622,14.111 q 12.866,-16.186 33.618,-16.186 35.59,0 35.9,40.154 v 74.187 H 888.42 v -74.291 q -0.104,-12.14 -5.603,-17.95 -5.396,-5.81 -16.913,-5.81 -9.338,0 -16.394,4.98 -7.055,4.98 -10.999,13.074 v 79.998 H 819.316 V 246.685 h 18.158 z m 94.728,55.2 q 0,-26.251 12.14,-41.71 12.14,-15.564 32.166,-15.564 20.543,0 32.061,14.525 l 0.934,-12.45 h 17.535 v 109.568 q 0,21.79 -12.97,34.343 -12.866,12.555 -34.656,12.555 -12.14,0 -23.76,-5.188 -11.621,-5.188 -17.743,-14.215 l 9.96,-11.517 q 12.348,15.253 30.194,15.253 14.008,0 21.79,-7.886 7.885,-7.885 7.885,-22.204 v -9.65 q -11.516,13.281 -31.438,13.281 -19.714,0 -31.957,-15.875 -12.14,-15.874 -12.14,-43.267 z m 19.299,2.178 q 0,18.988 7.782,29.883 7.782,10.79 21.79,10.79 18.157,0 26.665,-16.497 v -51.256 q -8.82,-16.083 -26.459,-16.083 -14.007,0 -21.892,10.895 -7.886,10.895 -7.886,32.268 z m 169.758,25.111 q 0,-7.782 -5.914,-12.036 -5.81,-4.358 -20.44,-7.47 -14.527,-3.113 -23.138,-7.47 -8.509,-4.359 -12.66,-10.377 -4.046,-6.018 -4.046,-14.318 0,-13.8 11.621,-23.346 11.725,-9.546 29.883,-9.546 19.091,0 30.919,9.857 11.932,9.857 11.932,25.214 h -19.299 q 0,-7.886 -6.744,-13.593 -6.64,-5.707 -16.809,-5.707 -10.48,0 -16.394,4.566 -5.914,4.565 -5.914,11.931 0,6.952 5.5,10.48 5.499,3.528 19.817,6.745 14.423,3.216 23.346,7.678 8.923,4.461 13.176,10.79 4.358,6.226 4.358,15.253 0,15.045 -12.035,24.176 -12.036,9.027 -31.232,9.027 -13.489,0 -23.865,-4.773 -10.375,-4.773 -16.29,-13.281 -5.81,-8.612 -5.81,-18.573 h 19.196 q 0.519,9.65 7.678,15.356 7.263,5.603 19.092,5.603 10.895,0 17.431,-4.358 6.64,-4.461 6.64,-11.829 z m 47.219,29.78 V 207.888 h 49.39 q 24.59,0 36.937,10.168 12.45,10.168 12.45,30.09 0,10.582 -6.018,18.78 -6.017,8.093 -16.393,12.555 12.244,3.424 19.298,13.074 7.16,9.545 7.16,22.826 0,20.337 -13.178,31.958 -13.178,11.62 -37.25,11.62 h -52.397 z m 19.922,-70.66 v 54.37 h 32.891 q 13.904,0 21.893,-7.16 8.093,-7.263 8.093,-19.921 0,-27.289 -29.674,-27.289 z m 0,-15.978 h 30.09 q 13.073,0 20.855,-6.537 7.886,-6.537 7.886,-17.742 0,-12.451 -7.263,-18.054 -7.264,-5.707 -22.101,-5.707 h -29.468 v 48.04 z m 104.376,29.469 q 0,-16.498 6.433,-29.675 6.537,-13.177 18.054,-20.337 11.62,-7.159 26.458,-7.159 22.93,0 37.042,15.875 14.214,15.875 14.214,42.23 v 1.348 q 0,16.394 -6.329,29.467 -6.225,12.97 -17.95,20.233 -11.62,7.263 -26.77,7.263 -22.826,0 -37.04,-15.875 -14.1,-15.88 -14.1,-42.019 v -1.349 z m 19.299,2.282 q 0,18.677 8.612,29.987 8.715,11.31 23.241,11.31 14.63,0 23.242,-11.414 8.612,-11.517 8.612,-32.166 0,-18.468 -8.82,-29.882 -8.715,-11.517 -23.241,-11.517 -14.215,0 -22.93,11.31 -8.716,11.31 -8.716,32.372 z m 176.298,54.887 q -1.66,-3.32 -2.698,-11.83 -13.385,13.905 -31.958,13.905 -16.601,0 -27.288,-9.339 -10.584,-9.442 -10.584,-23.864 0,-17.535 13.28,-27.185 13.386,-9.753 37.561,-9.753 h 18.677 v -8.82 q 0,-10.064 -6.018,-15.978 -6.018,-6.018 -17.743,-6.018 -10.271,0 -17.223,5.188 -6.952,5.188 -6.952,12.554 h -19.299 q 0,-8.404 5.914,-16.186 6.018,-7.886 16.186,-12.451 10.272,-4.565 22.516,-4.565 19.402,0 30.401,9.753 10.998,9.65 11.414,26.665 v 51.672 q 0,15.46 3.943,24.59 v 1.66 h -20.129 z m -31.854,-14.63 q 9.027,0 17.12,-4.67 8.093,-4.668 11.725,-12.14 v -23.034 h -15.045 q -35.277,0 -35.277,20.648 0,9.027 6.018,14.11 6.018,5.085 15.46,5.085 z m 132.551,-80.409 q -4.357,-0.726 -9.441,-0.726 -18.884,0 -25.629,16.083 v 79.686 h -19.195 V 246.692 h 18.676 l 0.312,12.97 q 9.442,-15.045 26.77,-15.045 5.602,0 8.507,1.453 v 17.846 z m 12.9,37.97 q 0,-25.836 12.244,-41.504 12.244,-15.77 32.062,-15.77 19.714,0 31.231,13.488 v -58.52 h 19.196 V 358.96 h -17.639 l -0.934,-12.036 q -11.516,14.11 -32.061,14.11 -19.507,0 -31.853,-15.978 -12.244,-15.979 -12.244,-41.71 v -1.453 z m 19.196,2.178 q 0,19.092 7.886,29.883 7.886,10.79 21.79,10.79 18.261,0 26.665,-16.393 v -51.568 q -8.612,-15.875 -26.458,-15.875 -14.111,0 -21.997,10.895 -7.886,10.895 -7.886,32.268 z"
         id="path102"
         style="fill:#ffffff" />
      <text
         y="462.28867"
         x="1489.3292"
         style="line-height:125%;fill:#ffffff;"
         font-weight="400"
         font-size="28.853px"
         font-family="sans-serif"
         letter-spacing="22.974"
         word-spacing="0"
         stroke-width="1"
         id="text110"><tspan
           style="-inkscape-font-specification:'Roboto Medium';fill:#ffffff;"
           y="462.28867"
           x="1489.3292"
           font-size="98.927px"
           font-family="Roboto"
           letter-spacing="0"
           id="tspan108">Edge</tspan></text>
    </g>
  </g>
</svg>
