<?xml version="1.0" encoding="UTF-8"?>
<svg width="1850" height="600" version="1.1" xmlns="http://www.w3.org/2000/svg" xmlns:cc="http://creativecommons.org/ns#" xmlns:dc="http://purl.org/dc/elements/1.1/" xmlns:rdf="http://www.w3.org/1999/02/22-rdf-syntax-ns#">
 <metadata>
  <rdf:RDF>
   <cc:Work rdf:about="">
    <dc:format>image/svg+xml</dc:format>
    <dc:type rdf:resource="http://purl.org/dc/dcmitype/StillImage"/>
    <dc:title/>
   </cc:Work>
  </rdf:RDF>
 </metadata>
 <g>
  <g fill="#fff">
   <g color="#000000" stroke-width="28" white-space="normal">
    <path d="m304.42 131.05c-28.362 0-54.914 7.915-77.612 21.536a36.577 36.577 0 0 0-23.066-8.193 8.766 8.766 0 0 0-4e-3 0c-20.153 0-36.678 16.527-36.677 36.68a8.766 8.766 0 0 0 0 0.012 36.69 36.69 0 0 0 8.103 22.926c-13.83 22.83-21.87 49.58-21.87 78.169a8.766 8.766 0 1 0 17.531 0c0-24.702 6.72-47.747 18.378-67.573 4.566 1.985 9.472 3.15 14.519 3.157a8.766 8.766 0 0 0 0.012 0c20.155 0 36.682-16.527 36.681-36.681a8.766 8.766 0 0 0 0-4e-3c-1e-3 -5-1.138-9.863-3.082-14.397 19.716-11.484 42.584-18.095 67.084-18.095a8.766 8.766 0 1 0 0-17.53zm-100.69 30.879c5.913 2e-3 11.19 2.512 14.836 7.077a8.766 8.766 0 0 0 0.182 0.214 19.136 19.136 0 0 1 4.134 11.863c-1e-3 10.677-8.468 19.144-19.143 19.148a19.145 19.145 0 0 1-12-4.255 8.766 8.766 0 0 0-0.013-9e-3 19.135 19.135 0 0 1-7.144-14.893c3e-3 -10.676 8.47-19.143 19.148-19.145z" style="isolation:auto;mix-blend-mode:normal;text-decoration-color:#000000;text-decoration-line:none;text-decoration-style:solid;text-indent:0;text-transform:none"/>
    <path d="m220.29 233.88a8.187 8.187 0 0 0-2.258 6.07 8.603 8.603 0 0 0 2.337 5.519c6.805 6.855 20.223 20.222 20.223 20.222l11.844-11.83s-12.973-12.96-20.176-20.17c-1.604-1.633-3.75-2.314-6.012-2.325a8.15 8.15 0 0 0-5.959 2.513zm32.146 19.982-36.638 36.64c-3.975 3.976-3.975 10.42 0 14.396l18.155 18.156 62.23 62.23c3.976 3.976 10.422 3.976 14.398 0l99.342-99.342c3.976-3.977 3.975-10.422 0-14.398l-18.63-18.63-31.75-31.76-30.009-29.999c-3.976-3.975-10.42-3.975-14.397 0l-62.699 62.7zm37.91-37.909s-12.972-12.96-20.175-20.17c-1.604-1.633-3.75-2.315-6.012-2.325-4.717-0.022-8.434 3.862-8.217 8.583a8.603 8.603 0 0 0 2.337 5.518c6.805 6.856 20.223 20.223 20.223 20.223l11.844-11.83zm69.192 5.213s12.96-12.973 20.17-20.176c1.633-1.603 2.315-3.75 2.325-6.011 0.023-4.717-3.861-8.434-8.583-8.217a8.603 8.603 0 0 0-5.518 2.337c-6.856 6.805-20.222 20.223-20.222 20.223l11.83 11.843zm31.753 31.753s12.96-12.973 20.17-20.176c1.633-1.604 2.314-3.75 2.325-6.012 0.022-4.716-3.862-8.434-8.584-8.217a8.604 8.604 0 0 0-5.517 2.337c-6.856 6.805-20.223 20.223-20.223 20.223l11.83 11.844zm-18.01 69.665s12.974 12.961 20.179 20.169c1.604 1.632 3.75 2.314 6.011 2.324 4.717 0.023 8.435-3.861 8.217-8.583l-2e-3 2e-3a8.606 8.606 0 0 0-2.338-5.518c-6.805-6.856-20.222-20.222-20.222-20.222l-11.843 11.83zm-37.912 37.914s12.972 12.96 20.177 20.168c1.604 1.633 3.75 2.314 6.012 2.325 4.717 0.023 8.434-3.862 8.217-8.584h-2e-3a8.603 8.603 0 0 0-2.337-5.517c-6.805-6.856-20.223-20.223-20.223-20.223l-11.844 11.83zm-69.666-5.687s-12.961 12.972-20.169 20.177c-1.632 1.604-2.314 3.75-2.324 6.012-0.023 4.717 3.861 8.434 8.583 8.217h-2e-3a8.602 8.602 0 0 0 5.518-2.337c6.856-6.805 20.222-20.223 20.222-20.223l-11.82-11.84zm-31.743-31.74s-12.96 12.973-20.168 20.178c-1.633 1.604-2.314 3.75-2.325 6.012-0.022 4.716 3.862 8.434 8.584 8.217h-2e-3a8.603 8.603 0 0 0 5.517-2.338c6.856-6.804 20.223-20.222 20.223-20.222l-11.829-11.85zm87.236-90.552c1.68-1.707 3.967-2.66 6.297-2.626a7.89 7.89 0 0 1 4.562 1.51l16.499 12.1c3.2 2.296 4.144 6.658 2.23 10.311-1.913 3.653-6.123 5.524-9.95 4.423l6.124 23.947c1.113 4.352-1.564 8.968-5.983 10.317l-44.641 13.631 8.245 31.882c1.173 4.37-1.501 9.045-5.954 10.407-4.453 1.363-8.976-1.11-10.068-5.504l-10.282-39.769c-1.126-4.355 1.55-8.984 5.976-10.338l44.66-13.636-4.122-16.118c-2.763 3.064-7.233 3.808-10.586 1.761-3.353-2.046-4.614-6.289-2.986-10.046l8.117-19.454a8.872 8.872 0 0 1 1.863-2.797z" fill-rule="evenodd" style="isolation:auto;mix-blend-mode:normal;text-decoration-color:#000000;text-decoration-line:none;text-decoration-style:solid;text-indent:0;text-transform:none"/>
    <path d="m322.16 451.08c28.362 0 54.914-7.915 77.612-21.538a36.577 36.577 0 0 0 23.067 8.194 8.766 8.766 0 0 0 4e-3 0c20.155 0 36.68-16.528 36.678-36.681a8.766 8.766 0 0 0 0-0.011 36.688 36.688 0 0 0-8.103-22.927c13.825-22.82 21.866-49.571 21.866-78.16a8.766 8.766 0 1 0-17.53 0c0 24.702-6.72 47.748-18.379 67.573-4.566-1.984-9.472-3.15-14.518-3.157a8.766 8.766 0 0 0-0.013 0c-20.154 0-36.682 16.527-36.681 36.681 2e-3 5 1.139 9.863 3.083 14.397-19.717 11.484-42.586 18.095-67.085 18.095a8.766 8.766 0 1 0 0 17.53zm100.69-30.875c-5.913 0-11.19-2.512-14.836-7.076a8.766 8.766 0 0 0-0.182-0.215 19.136 19.136 0 0 1-4.134-11.863c2e-3 -10.676 8.468-19.143 19.143-19.147a19.144 19.144 0 0 1 12 4.254 8.766 8.766 0 0 0 0.013 0.01 19.135 19.135 0 0 1 7.144 14.892c-3e-3 10.677-8.47 19.145-19.148 19.146z" style="isolation:auto;mix-blend-mode:normal;text-decoration-color:#000000;text-decoration-line:none;text-decoration-style:solid;text-indent:0;text-transform:none"/>
   </g>
   <path d="m631.21 224.28h-48.56v134.68h-19.817v-134.68h-48.455v-16.394h116.83v16.394zm38.799 36q12.762-15.667 33.202-15.667 35.59 0 35.9 40.154v74.187h-19.195v-74.291q-0.104-12.14-5.603-17.95-5.395-5.81-16.913-5.81-9.338 0-16.393 4.98-7.056 4.98-11 13.074v79.998h-19.195v-159.38h19.196v60.698zm118.71 98.679h-19.196v-112.27h19.196zm-20.76-142.05q0-4.67 2.802-7.886 2.905-3.216 8.508-3.216t8.508 3.216q2.905 3.217 2.905 7.886 0 4.67-2.905 7.782-2.905 3.113-8.508 3.113t-8.508-3.113q-2.802-3.113-2.802-7.782zm69.519 29.779 0.622 14.111q12.866-16.186 33.618-16.186 35.59 0 35.9 40.154v74.187h-19.194v-74.291q-0.104-12.14-5.603-17.95-5.396-5.81-16.913-5.81-9.338 0-16.394 4.98-7.055 4.98-10.999 13.074v79.998h-19.195v-112.27h18.158zm94.728 55.2q0-26.251 12.14-41.71 12.14-15.564 32.166-15.564 20.543 0 32.061 14.525l0.934-12.45h17.535v109.57q0 21.79-12.97 34.343-12.866 12.555-34.656 12.555-12.14 0-23.76-5.188-11.621-5.188-17.743-14.215l9.96-11.517q12.348 15.253 30.194 15.253 14.008 0 21.79-7.886 7.885-7.885 7.885-22.204v-9.65q-11.516 13.281-31.438 13.281-19.714 0-31.957-15.875-12.14-15.874-12.14-43.267zm19.299 2.178q0 18.988 7.782 29.883 7.782 10.79 21.79 10.79 18.157 0 26.665-16.497v-51.256q-8.82-16.083-26.459-16.083-14.007 0-21.892 10.895-7.886 10.895-7.886 32.268zm169.76 25.111q0-7.782-5.914-12.036-5.81-4.358-20.44-7.47-14.527-3.113-23.138-7.47-8.509-4.359-12.66-10.377-4.046-6.018-4.046-14.318 0-13.8 11.621-23.346 11.725-9.546 29.883-9.546 19.091 0 30.919 9.857 11.932 9.857 11.932 25.214h-19.299q0-7.886-6.744-13.593-6.64-5.707-16.809-5.707-10.48 0-16.394 4.566-5.914 4.565-5.914 11.931 0 6.952 5.5 10.48 5.499 3.528 19.817 6.745 14.423 3.216 23.346 7.678 8.923 4.461 13.176 10.79 4.358 6.226 4.358 15.253 0 15.045-12.035 24.176-12.036 9.027-31.232 9.027-13.489 0-23.865-4.773-10.375-4.773-16.29-13.281-5.81-8.612-5.81-18.573h19.196q0.519 9.65 7.678 15.356 7.263 5.603 19.092 5.603 10.895 0 17.431-4.358 6.64-4.461 6.64-11.829zm47.219 29.78v-151.07h49.39q24.59 0 36.937 10.168 12.45 10.168 12.45 30.09 0 10.582-6.018 18.78-6.017 8.093-16.393 12.555 12.244 3.424 19.298 13.074 7.16 9.545 7.16 22.826 0 20.337-13.178 31.958-13.178 11.62-37.25 11.62h-52.397zm19.922-70.66v54.37h32.891q13.904 0 21.893-7.16 8.093-7.263 8.093-19.921 0-27.289-29.674-27.289zm0-15.978h30.09q13.073 0 20.855-6.537 7.886-6.537 7.886-17.742 0-12.451-7.263-18.054-7.264-5.707-22.101-5.707h-29.468v48.04zm104.38 29.469q0-16.498 6.433-29.675 6.537-13.177 18.054-20.337 11.62-7.159 26.458-7.159 22.93 0 37.042 15.875 14.214 15.875 14.214 42.23v1.348q0 16.394-6.329 29.467-6.225 12.97-17.95 20.233-11.62 7.263-26.77 7.263-22.826 0-37.04-15.875-14.1-15.88-14.1-42.019v-1.349zm19.299 2.282q0 18.677 8.612 29.987 8.715 11.31 23.241 11.31 14.63 0 23.242-11.414 8.612-11.517 8.612-32.166 0-18.468-8.82-29.882-8.715-11.517-23.241-11.517-14.215 0-22.93 11.31-8.716 11.31-8.716 32.372zm176.3 54.887q-1.66-3.32-2.698-11.83-13.385 13.905-31.958 13.905-16.601 0-27.288-9.339-10.584-9.442-10.584-23.864 0-17.535 13.28-27.185 13.386-9.753 37.561-9.753h18.677v-8.82q0-10.064-6.018-15.978-6.018-6.018-17.743-6.018-10.271 0-17.223 5.188t-6.952 12.554h-19.299q0-8.404 5.914-16.186 6.018-7.886 16.186-12.451 10.272-4.565 22.516-4.565 19.402 0 30.401 9.753 10.998 9.65 11.414 26.665v51.672q0 15.46 3.943 24.59v1.66h-20.129zm-31.854-14.63q9.027 0 17.12-4.67 8.093-4.668 11.725-12.14v-23.034h-15.045q-35.277 0-35.277 20.648 0 9.027 6.018 14.11 6.018 5.085 15.46 5.085zm132.55-80.409q-4.357-0.726-9.441-0.726-18.884 0-25.629 16.083v79.686h-19.195v-112.27h18.676l0.312 12.97q9.442-15.045 26.77-15.045 5.602 0 8.507 1.453v17.846zm12.9 37.97q0-25.836 12.244-41.504 12.244-15.77 32.062-15.77 19.714 0 31.231 13.488v-58.52h19.196v159.38h-17.639l-0.934-12.036q-11.516 14.11-32.061 14.11-19.507 0-31.853-15.978-12.244-15.979-12.244-41.71v-1.453zm19.196 2.178q0 19.092 7.886 29.883 7.886 10.79 21.79 10.79 18.261 0 26.665-16.393v-51.568q-8.612-15.875-26.458-15.875-14.111 0-21.997 10.895t-7.886 32.268z" stroke-width="28"/>
   <g font-family="Roboto" font-size="98.927px" font-weight="400" letter-spacing="0" word-spacing="0">
    <path d="m1169.6 440.45v27.533h-9.274v-70.33h25.939q11.545 0 18.066 5.893 6.569 5.893 6.569 15.602 0 10.24-6.424 15.795-6.377 5.507-18.308 5.507zm0-7.584h16.665q7.439 0 11.4-3.477 3.96-3.527 3.96-10.144 0-6.28-3.96-10.048-3.961-3.767-10.869-3.912h-17.196zm76.997-9.129q-2.03-0.338-4.396-0.338-8.791 0-11.931 7.487v37.097h-8.936v-52.264h8.694l0.145 6.037q4.396-7.004 12.463-7.004 2.608 0 3.96 0.677v8.308zm4.83 17.631q0-7.68 2.995-13.815 3.043-6.135 8.405-9.468 5.41-3.333 12.317-3.333 10.675 0 17.245 7.39 6.617 7.391 6.617 19.66v0.629q0 7.632-2.946 13.718-2.898 6.038-8.357 9.42-5.41 3.38-12.462 3.38-10.627 0-17.245-7.39-6.57-7.39-6.57-19.563v-0.628zm8.985 1.063q0 8.694 4.009 13.96 4.057 5.265 10.82 5.265 6.81 0 10.82-5.314 4.01-5.362 4.01-14.974 0-8.598-4.107-13.912-4.057-5.361-10.82-5.361-6.617 0-10.675 5.265-4.057 5.265-4.057 15.07zm54.197 25.552v-45.357h-8.26v-6.907h8.26v-5.362q0-8.405 4.492-12.994t12.704-4.589q3.091 0 6.134 0.821l-0.483 7.246q-2.27-0.435-4.83-0.435-4.347 0-6.714 2.56-2.367 2.512-2.367 7.246v5.507h11.158v6.907h-11.158v45.357zm50.526 0.966q-10.627 0-17.293-6.955-6.666-7.004-6.666-18.694v-1.642q0-7.777 2.946-13.864 2.995-6.134 8.309-9.564 5.361-3.478 11.593-3.478 10.192 0 15.843 6.715 5.652 6.714 5.652 19.225v3.72h-35.407q0.193 7.728 4.492 12.51 4.348 4.734 11.014 4.734 4.733 0 8.018-1.933 3.285-1.932 5.748-5.12l5.459 4.251q-6.57 10.095-19.708 10.095zm-1.111-46.854q-5.41 0-9.082 3.96-3.67 3.913-4.54 11.014h26.18v-0.676q-0.386-6.811-3.67-10.53-3.285-3.768-8.888-3.768zm62.215 32.025q0-3.623-2.753-5.603-2.705-2.029-9.516-3.478-6.763-1.45-10.772-3.478-3.96-2.029-5.893-4.83-1.884-2.802-1.884-6.666 0-6.425 5.41-10.869 5.459-4.444 13.912-4.444 8.888 0 14.394 4.59 5.555 4.588 5.555 11.737h-8.984q0-3.67-3.14-6.328-3.091-2.656-7.825-2.656-4.879 0-7.632 2.125-2.754 2.125-2.754 5.555 0 3.236 2.56 4.879 2.56 1.642 9.227 3.14 6.714 1.497 10.868 3.574t6.135 5.024q2.028 2.898 2.028 7.1 0 7.004-5.603 11.255-5.603 4.202-14.54 4.202-6.279 0-11.11-2.222-4.83-2.222-7.583-6.182-2.705-4.01-2.705-8.647h8.936q0.242 4.492 3.575 7.15 3.38 2.608 8.888 2.608 5.072 0 8.115-2.03 3.091-2.076 3.091-5.506zm51.009 0q0-3.623-2.753-5.603-2.705-2.029-9.516-3.478-6.763-1.45-10.772-3.478-3.96-2.029-5.893-4.83-1.884-2.802-1.884-6.666 0-6.425 5.41-10.869 5.459-4.444 13.912-4.444 8.888 0 14.394 4.59 5.555 4.588 5.555 11.737h-8.984q0-3.67-3.14-6.328-3.091-2.656-7.825-2.656-4.879 0-7.632 2.125-2.754 2.125-2.754 5.555 0 3.236 2.56 4.879 2.56 1.642 9.227 3.14 6.714 1.497 10.868 3.574t6.135 5.024q2.028 2.898 2.028 7.1 0 7.004-5.603 11.255-5.603 4.202-14.54 4.202-6.279 0-11.11-2.222-4.83-2.222-7.583-6.182-2.705-4.01-2.705-8.647h8.936q0.242 4.492 3.575 7.15 3.38 2.608 8.888 2.608 5.072 0 8.115-2.03 3.091-2.076 3.091-5.506zm30.287 13.863h-8.936v-52.264h8.936zm-9.661-66.128q0-2.173 1.304-3.67 1.353-1.498 3.961-1.498 2.609 0 3.961 1.497 1.353 1.498 1.353 3.671 0 2.174-1.353 3.623-1.352 1.45-3.96 1.45-2.61 0-3.962-1.45-1.304-1.45-1.304-3.623zm21.544 39.513q0-7.68 2.994-13.815 3.044-6.135 8.405-9.468 5.41-3.333 12.318-3.333 10.675 0 17.244 7.39 6.618 7.391 6.618 19.66v0.629q0 7.632-2.947 13.718-2.898 6.038-8.356 9.42-5.41 3.38-12.463 3.38-10.626 0-17.244-7.39-6.57-7.39-6.57-19.563v-0.628zm8.984 1.063q0 8.694 4.01 13.96 4.057 5.265 10.82 5.265 6.81 0 10.82-5.314 4.009-5.362 4.009-14.974 0-8.598-4.106-13.912-4.058-5.361-10.82-5.361-6.618 0-10.675 5.265-4.058 5.265-4.058 15.07zm58.255-26.712 0.29 6.569q5.99-7.536 15.65-7.536 16.568 0 16.713 18.694v34.537h-8.936v-34.584q-0.048-5.652-2.608-8.357-2.512-2.705-7.874-2.705-4.347 0-7.632 2.319-3.285 2.318-5.12 6.086v37.242h-8.936v-52.265zm78.494 52.264q-0.773-1.545-1.256-5.506-6.231 6.472-14.878 6.472-7.728 0-12.704-4.347-4.927-4.396-4.927-11.11 0-8.163 6.183-12.655 6.231-4.541 17.486-4.541h8.695v-4.106q0-4.685-2.802-7.439-2.801-2.801-8.26-2.801-4.782 0-8.018 2.415-3.237 2.415-3.237 5.845h-8.984q0-3.913 2.753-7.536 2.802-3.67 7.536-5.796 4.782-2.126 10.482-2.126 9.032 0 14.153 4.541 5.12 4.492 5.313 12.414v24.055q0 7.198 1.836 11.449v0.772zm-14.83-6.81q4.203 0 7.97-2.174 3.768-2.174 5.459-5.652v-10.723h-7.004q-16.424 0-16.424 9.612 0 4.203 2.802 6.57t7.197 2.367zm46.179 6.81h-8.936v-74.194h8.936v74.195z"/>
   </g>
  </g>
 </g>
</svg>
