<svg xmlns="http://www.w3.org/2000/svg" data-name="Layer 1" width="79" height="82">
  <path d="M7.6 50.2c8.45-6.55 23.81-6.55 32.26 0 6.32 4.9 5.65 23.09 5.65 23.09H1.95s-.67-18.2 5.66-23.1zm32.54-21.02a16.4 16.14 0 0 1-16.4 16.14A16.4 16.14 0 0 1 7.31 29.18a16.4 16.14 0 0 1 16.41-16.13 16.4 16.14 0 0 1 16.4 16.13z" fill="none" stroke="#fff" stroke-width="2.9"/>
  <path d="M23.04 46.46h1.39l3.47 4.62-2.16 2.32 4.47 20.96H17.25l4.48-20.96-2.16-2.32zM49.4 44.18c0 .49.37.92.86 1.02l2.73.46c.26 1.02.69 1.97 1.21 2.9l-1.57 2.2c-.3.42-.27.98.1 1.35l.95.95.95.95c.36.37.92.4 1.35.1l2.23-1.61c.92.56 1.9.92 2.93 1.18l.46 2.67c.1.5.52.86 1.02.86H65.3c.5 0 .92-.37 1.02-.86l.46-2.73a11.2 11.2 0 0 0 2.82-1.19l2.24 1.58c.43.3.98.27 1.35-.1l.95-.95.95-.95c.36-.37.4-.92.1-1.35l-1.58-2.24c.56-.92.96-1.9 1.22-2.93l2.7-.46c.49-.1.85-.52.85-1.02v-2.7c0-.49-.36-.92-.86-1.02l-2.7-.46c-.25-1.02-.65-2-1.2-2.92l1.57-2.24c.3-.43.26-.99-.1-1.35l-.95-.96-.95-.95a1.09 1.09 0 0 0-1.32-.1l-2.23 1.58a10.8 10.8 0 0 0-2.93-1.22l-.46-2.7c-.1-.49-.52-.85-1.02-.85H62.55c-.5 0-.92.36-1.02.86l-.46 2.7c-1.02.26-2.04.68-2.96 1.24l-2.2-1.57c-.42-.3-.98-.27-1.34.1l-.96.95-.95 1.15c-.36.36-.4.92-.1 1.35l1.61 2.24c-.56.92-.92 1.9-1.18 2.92l-2.7.43c-.49.1-.85.53-.85 1.02v1.35zm10.13-5.93a6.3 6.3 0 1 1 8.9 8.92 6.3 6.3 0 0 1-8.9-8.92z" fill="#fff"/>
  <path style="line-height:normal;text-indent:0;text-align:start;text-decoration-line:none;text-decoration-style:solid;text-decoration-color:#000;text-transform:none;block-progression:tb;isolation:auto;mix-blend-mode:normal" d="M54.11 71.44v.02h-.01c-.02-.02.03.11.01-.02" color="#000" font-weight="400" font-family="sans-serif" white-space="normal" overflow="visible" fill="#3bffff" fill-rule="evenodd"/>
  <path d="M61.93 65.18c2.78-.42 4.22-.4 6.45-1.23 1.56-.58 1.85.8 1.95 2.44.1 1.65-.77 4.3-1.36 4.67-1.19.74-2.94 1.65-7.02 2.2-4.08.53-9 .15-9 .15v-4.98s1.26-.5 2.1-1.2c.85-.7.82-2.69 2.69-4.31 1.86-1.62 4.25-2.02 4.76-1.28.35.5-.76 1.74-1.51 3.1-.37.66-.46.92-.8 1.39" fill="none" stroke="#fff" stroke-width="2.9" stroke-linecap="round"/>
</svg>
