<svg xmlns="http://www.w3.org/2000/svg" width="78" height="82">
  <g fill="none" stroke="#fff" stroke-width="2.468">
    <path d="M7.54 66.69c3.577-2.819 10.085-2.819 13.662 0 2.68 2.11 2.397 9.947 2.397 9.947H5.143S4.86 68.8 7.54 66.689zm13.782-9.05a6.951 6.951 0 0 1-6.95 6.952 6.951 6.951 0 0 1-6.952-6.951 6.951 6.951 0 0 1 6.951-6.951 6.951 6.951 0 0 1 6.951 6.95zM32.169 66.69c3.577-2.819 10.085-2.819 13.662 0 2.68 2.11 2.397 9.947 2.397 9.947H29.772s-.283-7.837 2.397-9.948zm13.782-9.05A6.951 6.951 0 0 1 39 64.593a6.951 6.951 0 0 1-6.951-6.951A6.951 6.951 0 0 1 39 50.69a6.951 6.951 0 0 1 6.951 6.95zM56.798 66.69c3.577-2.819 10.085-2.819 13.662 0 2.68 2.11 2.397 9.947 2.397 9.947H54.401s-.283-7.837 2.397-9.948zm13.782-9.05a6.951 6.951 0 0 1-6.951 6.952 6.951 6.951 0 0 1-6.951-6.951 6.951 6.951 0 0 1 6.95-6.951 6.951 6.951 0 0 1 6.952 6.95zM42.486 27.649L32.3 29.147l.42-10.127M32.248 29.161l-9.407 2.307" stroke-width="2.89980128"/>
  </g>
  <path d="M41.57 8.102a2.627 2.627 0 1 1-5.254 0 2.627 2.627 0 0 1 5.254 0zm12.585 26.753h2.797m-11.653 0h6.695m2.161-16.346h2.797m-11.653 0h6.695m9.819-4.412l-20-6.016M16.4 14.097l20-6.016m.73 25.835l5.76 5.838h14.22M37.13 24.575l5.76-1.05h14.22m-14.354 5.72c0 5.804-4.705 10.51-10.509 10.51-5.803 0-10.508-4.706-10.508-10.51 0-5.803 4.705-10.508 10.508-10.508 5.804 0 10.509 4.705 10.509 10.509zM16.289 14.117H61.71v30.202H16.29z" fill="none" stroke="#fff" stroke-width="2.9"/>
</svg>
