<svg width="246" height="308" viewBox="0 0 246 308" fill="none" xmlns="http://www.w3.org/2000/svg">
    <path fill-rule="evenodd" clip-rule="evenodd" d="M42.4334 214H0V212.5H42.4334V214Z" fill="#91A3BE"/>
    <path d="M42 214C42 199.555 44.8452 185.251 50.3732 171.905C55.9013 158.559 64.0038 146.433 74.2183 136.218C84.4327 126.004 96.559 117.901 109.905 112.373C123.251 106.845 137.555 104 152 104V105.499C137.751 105.499 123.642 108.305 110.478 113.758C97.3144 119.211 85.3533 127.203 75.2781 137.278C65.2028 147.353 57.2107 159.314 51.758 172.478C46.3053 185.642 43.4988 199.751 43.4988 214H42Z" fill="#91A3BE"/>
    <path fill-rule="evenodd" clip-rule="evenodd" d="M151.5 105.5L151.5 23.5L153 23.5L153 105.5L151.5 105.5Z" fill="#91A3BE"/>
    <path d="M164 12C164 18.6274 158.627 24 152 24C145.373 24 140 18.6274 140 12C140 5.37258 145.373 0 152 0C158.627 0 164 5.37258 164 12Z" fill="#F4F8FE"/>
    <path fill-rule="evenodd" clip-rule="evenodd" d="M152 22.5C157.799 22.5 162.5 17.799 162.5 12C162.5 6.20101 157.799 1.5 152 1.5C146.201 1.5 141.5 6.20101 141.5 12C141.5 17.799 146.201 22.5 152 22.5ZM152 24C158.627 24 164 18.6274 164 12C164 5.37258 158.627 0 152 0C145.373 0 140 5.37258 140 12C140 18.6274 145.373 24 152 24Z" fill="#91A3BE"/>
    <rect x="58.75" y="120.75" width="186.5" height="186.5" rx="93.25" stroke="#91A3BE" stroke-width="1.5"/>
    <path d="M158 214C158 217.314 155.314 220 152 220C148.686 220 146 217.314 146 214C146 210.686 148.686 208 152 208C155.314 208 158 210.686 158 214Z" stroke="#305680" stroke-width="4"/>
    <circle cx="139" cy="198" r="2" fill="#305680"/>
    <path d="M118.475 258H108.5V223.491C108.5 222.603 109.085 221.822 109.936 221.572L127.759 216.331M118.475 258V219.42M118.475 258H127.759M185.699 258H195.5V223.487C195.5 222.601 194.918 221.821 194.069 221.569L176.415 216.331M185.699 258V219.086M185.699 258H176.415M127.759 258V216.331M127.759 258H142.038M132.918 201.917L128.511 205.435C128.036 205.815 127.759 206.39 127.759 206.998V216.331M176.415 258V216.331M176.415 258H161.639M152.087 189L175.562 205.438C176.096 205.813 176.415 206.424 176.415 207.077V216.331M152.087 189L145.132 193.68M152.087 189V183M142.038 258V239.517C142.038 234.104 146.425 229.716 151.838 229.716V229.716C157.251 229.716 161.639 234.104 161.639 239.517V258M142.038 258H161.639M164.251 174L164.226 170.992C164.221 170.443 163.775 170 163.226 170H153.087C152.535 170 152.087 170.448 152.087 171V183M164.251 174H174.732C175.49 174 175.973 174.812 175.61 175.478L173.261 179.791C173.091 180.104 173.1 180.483 173.284 180.787L175.496 184.441C175.899 185.107 175.419 185.959 174.64 185.959H165.218C164.666 185.959 164.218 185.511 164.218 184.959V183M164.251 174L164.218 183M164.218 183H152.087" stroke="#305680" stroke-width="4" stroke-linecap="round"/>
</svg>
