<svg width="273" height="219" viewBox="0 0 273 219" fill="none" xmlns="http://www.w3.org/2000/svg">
    <path fill-rule="evenodd" clip-rule="evenodd" d="M83.5113 38.3627V0.779785L84.8398 0.779785V38.3627H83.5113Z" fill="#91A3BE"/>
    <path d="M83.5117 37.9788C96.3059 37.9788 108.975 40.4988 120.795 45.3949C132.615 50.291 143.355 57.4674 152.402 66.5142C161.449 75.561 168.625 86.3012 173.522 98.1215C178.418 109.942 180.938 122.611 180.938 135.405H179.61C179.61 122.785 177.125 110.289 172.295 98.6295C167.466 86.9703 160.387 76.3765 151.464 67.4529C142.54 58.5293 131.946 51.4508 120.287 46.6214C108.628 41.792 96.1316 39.3063 83.5117 39.3063V37.9788Z" fill="#91A3BE"/>
    <path fill-rule="evenodd" clip-rule="evenodd" d="M179.608 134.962L252.234 134.962L252.234 136.291L179.608 136.291L179.608 134.962Z" fill="#91A3BE"/>
    <path d="M262.421 146.033C256.551 146.033 251.792 141.275 251.792 135.405C251.792 129.535 256.551 124.777 262.421 124.777C268.29 124.777 273.049 129.535 273.049 135.405C273.049 141.275 268.29 146.033 262.421 146.033Z" fill="#F4F8FE"/>
    <path fill-rule="evenodd" clip-rule="evenodd" d="M253.121 135.405C253.121 140.541 257.284 144.705 262.421 144.705C267.557 144.705 271.72 140.541 271.72 135.405C271.72 130.269 267.557 126.105 262.421 126.105C257.284 126.105 253.121 130.269 253.121 135.405ZM251.792 135.405C251.792 141.275 256.551 146.033 262.421 146.033C268.29 146.033 273.049 141.275 273.049 135.405C273.049 129.535 268.29 124.777 262.421 124.777C256.551 124.777 251.792 129.535 251.792 135.405Z" fill="#91A3BE"/>
    <rect x="166.101" y="52.8142" width="164.698" height="164.698" rx="82.3489" transform="rotate(90 166.101 52.8142)" stroke="#91A3BE" stroke-width="1.32854"/>
    <path d="M89.0349 135.163C89.0349 138.08 86.6698 140.446 83.7523 140.446C80.8348 140.446 78.4697 138.08 78.4697 135.163C78.4697 132.245 80.8348 129.88 83.7523 129.88C86.6698 129.88 89.0349 132.245 89.0349 135.163Z" stroke="#305680" stroke-width="3.52174"/>
    <circle cx="72.3068" cy="121.076" r="1.76087" fill="#305680"/>
    <path d="M54.2355 173.902H45.4536V143.519C45.4536 142.738 45.9683 142.05 46.7178 141.83L62.4102 137.216M54.2355 173.902V139.935M54.2355 173.902H62.4102M113.423 173.902H122.051V143.516C122.051 142.736 121.539 142.049 120.791 141.828L105.248 137.216M113.423 173.902V139.641M113.423 173.902H105.248M62.4102 173.902V137.216M62.4102 173.902H74.9812M66.9517 124.525L63.0724 127.622C62.6539 127.956 62.4102 128.463 62.4102 128.998V137.216M105.248 173.902V137.216M105.248 173.902H92.2388M83.8291 113.152L104.497 127.625C104.968 127.955 105.248 128.493 105.248 129.068V137.216M83.8291 113.152L77.7061 117.273M83.8291 113.152V107.87M74.9812 173.902V157.629C74.9812 152.863 78.8444 149 83.61 149V149C88.3755 149 92.2388 152.863 92.2388 157.629V173.902M74.9812 173.902H92.2388M94.5386 99.9458L94.5167 97.2972C94.5127 96.8138 94.1197 96.4241 93.6363 96.4241H84.7096C84.2233 96.4241 83.8291 96.8183 83.8291 97.3045V107.87M94.5386 99.9458H103.766C104.434 99.9458 104.859 100.661 104.539 101.247L102.472 105.045C102.322 105.32 102.33 105.654 102.492 105.922L104.439 109.138C104.794 109.725 104.372 110.475 103.686 110.475H95.39C94.9037 110.475 94.5095 110.08 94.5095 109.594V107.87M94.5386 99.9458L94.5095 107.87M94.5095 107.87H83.8291" stroke="#305680" stroke-width="3.52174" stroke-linecap="round"/>
</svg>
