<svg width="261" height="308" viewBox="0 0 246 308" fill="none" xmlns="http://www.w3.org/2000/svg">
    <path fill-rule="evenodd" clip-rule="evenodd" d="M42.4334 214H0V212.5H42.4334V214Z" fill="#91A3BE"/>
    <path d="M42 214C42 199.555 44.8452 185.251 50.3732 171.905C55.9013 158.559 64.0038 146.433 74.2183 136.218C84.4327 126.004 96.559 117.901 109.905 112.373C123.251 106.845 137.555 104 152 104V105.499C137.751 105.499 123.642 108.305 110.478 113.758C97.3144 119.211 85.3533 127.203 75.2781 137.278C65.2028 147.353 57.2107 159.314 51.758 172.478C46.3053 185.642 43.4988 199.751 43.4988 214H42Z" fill="#91A3BE"/>
    <path fill-rule="evenodd" clip-rule="evenodd" d="M151.5 105.5L151.5 23.5L153 23.5L153 105.5L151.5 105.5Z" fill="#91A3BE"/>
    <path d="M164 12C164 18.6274 158.627 24 152 24C145.373 24 140 18.6274 140 12C140 5.37258 145.373 0 152 0C158.627 0 164 5.37258 164 12Z" fill="#F4F8FE"/>
    <path fill-rule="evenodd" clip-rule="evenodd" d="M152 22.5C157.799 22.5 162.5 17.799 162.5 12C162.5 6.20101 157.799 1.5 152 1.5C146.201 1.5 141.5 6.20101 141.5 12C141.5 17.799 146.201 22.5 152 22.5ZM152 24C158.627 24 164 18.6274 164 12C164 5.37258 158.627 0 152 0C145.373 0 140 5.37258 140 12C140 18.6274 145.373 24 152 24Z" fill="#91A3BE"/>
    <rect x="58.75" y="120.75" width="186.5" height="186.5" rx="93.25" stroke="#91A3BE" stroke-width="1.5"/>
    <path d="M160.5 232H165.5C166.052 232 166.5 232.448 166.5 233V255.5C166.5 256.052 166.052 256.5 165.5 256.5H159.5M144.5 232H139.5C138.948 232 138.5 232.448 138.5 233V255.5C138.5 256.052 138.948 256.5 139.5 256.5H145.5M145.5 256.5V240.5C145.5 239.948 145.948 239.5 146.5 239.5H158.5C159.052 239.5 159.5 239.948 159.5 240.5V256.5M145.5 256.5H159.5" stroke="#305680" stroke-width="4" stroke-linecap="round"/>
    <path d="M195.5 198.5V242" stroke="#305680" stroke-width="4" stroke-linecap="round"/>
    <path d="M195.5 199V242.5" stroke="#305680" stroke-width="4" stroke-linecap="round"/>
    <path d="M195.5 199V242.5" stroke="#305680" stroke-width="4" stroke-linecap="round"/>
    <path d="M152.5 187.5L152.5 209.5" stroke="#305680" stroke-width="4" stroke-linecap="round"/>
    <path d="M108.5 198V241.5" stroke="#305680" stroke-width="4" stroke-linecap="round"/>
    <path d="M123.5 207.5L123.5 248.5" stroke="#305680" stroke-width="4" stroke-linecap="round"/>
    <path d="M181.5 209L181.5 250" stroke="#305680" stroke-width="4" stroke-linecap="round"/>
    <path d="M146.5 187C146.5 188.105 145.605 189 144.5 189C143.395 189 142.5 188.105 142.5 187C142.5 185.895 143.395 185 144.5 185C145.605 185 146.5 185.895 146.5 187Z" fill="#305680"/>
    <path d="M154.5 232C154.5 233.105 153.605 234 152.5 234C151.395 234 150.5 233.105 150.5 232C150.5 230.895 151.395 230 152.5 230C153.605 230 154.5 230.895 154.5 232Z" fill="#305680"/>
    <path d="M152.066 187C161.562 187 170.347 187.804 177.5 189.169M136.5 187.5C134.163 187.834 130.256 188.539 127.031 189.169M116.5 191.868C109.68 194.37 108.17 197.179 108.566 198.5C108.566 204.851 128.042 210 152.066 210C176.09 210 195.566 204.851 195.566 198.5C195.566 196.18 192.968 194.021 188.5 192.215M116.5 191.868C118.283 191.214 120.43 190.58 123 190C123.99 189.778 125.426 189.483 127.031 189.169M116.5 191.868V179M116.5 179V171.5H128.5V179H116.5ZM188.5 192.215V179M188.5 192.215C185.57 191.03 181.834 189.997 177.5 189.169M188.5 179V171.5H176.5V179H188.5ZM177.5 189.169L168.5 204M127.031 189.169L136.5 203.5" stroke="#305680" stroke-width="4" stroke-miterlimit="22.926" stroke-linecap="round" stroke-linejoin="round"/>
    <path d="M195.559 212.5C195.559 218.851 176.083 224 152.059 224C128.034 224 108.559 218.851 108.559 212.5" stroke="#305680" stroke-width="4" stroke-miterlimit="22.926" stroke-linecap="round" stroke-linejoin="round"/>
    <path d="M178.5 207.5C165 201.999 157.5 202 152.5 202C147 201.999 138 202.5 125.5 207.5" stroke="#305680" stroke-width="4" stroke-miterlimit="22.926" stroke-linecap="round" stroke-linejoin="round"/>
    <path d="M138 239C129 239 108.5 234.351 108.5 228" stroke="#305680" stroke-width="4" stroke-miterlimit="22.926" stroke-linecap="round" stroke-linejoin="round"/>
    <path d="M138 252C129 252 108.5 247.351 108.5 241" stroke="#305680" stroke-width="4" stroke-miterlimit="22.926" stroke-linecap="round" stroke-linejoin="round"/>
    <path d="M166.5 239C175.5 239 195.5 234.351 195.5 228" stroke="#305680" stroke-width="4" stroke-miterlimit="22.926" stroke-linecap="round" stroke-linejoin="round"/>
    <path d="M166.5 252C175.5 252 195.5 247.851 195.5 241.5" stroke="#305680" stroke-width="4" stroke-miterlimit="22.926" stroke-linecap="round" stroke-linejoin="round"/>
</svg>
