<svg width="273" height="232" viewBox="0 0 273 232" fill="none" xmlns="http://www.w3.org/2000/svg">
    <g clip-path="url(#clip0_13792_3322)">
        <path fill-rule="evenodd" clip-rule="evenodd" d="M83.462 38.4677V0.884766L84.7905 0.884766V38.4677H83.462Z" fill="#91A3BE"/>
        <path d="M83.4624 38.0838C96.2566 38.0838 108.925 40.6038 120.746 45.4999C132.566 50.396 143.306 57.5723 152.353 66.6192C161.4 75.666 168.576 86.4062 173.472 98.2265C178.368 110.047 180.888 122.716 180.888 135.51H179.561C179.561 122.89 177.075 110.394 172.246 98.7345C167.416 87.0753 160.338 76.4814 151.414 67.5579C142.491 58.6343 131.897 51.5557 120.238 46.7263C108.578 41.8969 96.0822 39.4113 83.4624 39.4113V38.0838Z" fill="#91A3BE"/>
        <path fill-rule="evenodd" clip-rule="evenodd" d="M179.559 135.067L252.186 135.067L252.186 136.395L179.559 136.396L179.559 135.067Z" fill="#91A3BE"/>
        <path d="M262.372 146.138C256.502 146.138 251.743 141.379 251.743 135.51C251.743 129.64 256.502 124.881 262.372 124.881C268.242 124.881 273 129.64 273 135.51C273 141.379 268.242 146.138 262.372 146.138Z" fill="#F4F8FE"/>
        <path fill-rule="evenodd" clip-rule="evenodd" d="M253.072 135.51C253.072 140.646 257.236 144.809 262.372 144.809C267.508 144.809 271.671 140.646 271.671 135.51C271.671 130.374 267.508 126.21 262.372 126.21C257.236 126.21 253.072 130.374 253.072 135.51ZM251.743 135.51C251.743 141.379 256.502 146.138 262.372 146.138C268.242 146.138 273 141.379 273 135.51C273 129.64 268.242 124.881 262.372 124.881C256.502 124.881 251.743 129.64 251.743 135.51Z" fill="#91A3BE"/>
        <rect x="166.053" y="52.9192" width="164.698" height="164.698" rx="82.3489" transform="rotate(90 166.053 52.9192)" stroke="#91A3BE" stroke-width="1.32854"/>
        <path d="M91.1879 151.116H95.5901C96.0763 151.116 96.4705 151.51 96.4705 151.996V171.806C96.4705 172.292 96.0763 172.686 95.5901 172.686H90.3075M77.101 151.116H72.6988C72.2125 151.116 71.8184 151.51 71.8184 151.996V171.806C71.8184 172.292 72.2125 172.686 72.6988 172.686H77.9814M77.9814 172.686V158.599C77.9814 158.113 78.3756 157.719 78.8618 157.719H89.4271C89.9133 157.719 90.3075 158.113 90.3075 158.599V172.686M77.9814 172.686H90.3075" stroke="#305680" stroke-width="3.52174" stroke-linecap="round"/>
        <path d="M122.003 121.621V159.92" stroke="#305680" stroke-width="3.52174" stroke-linecap="round"/>
        <path d="M122.003 122.062V160.36" stroke="#305680" stroke-width="3.52174" stroke-linecap="round"/>
        <path d="M122.003 122.062V160.36" stroke="#305680" stroke-width="3.52174" stroke-linecap="round"/>
        <path d="M84.1445 111.937L84.1445 131.306" stroke="#305680" stroke-width="3.52174" stroke-linecap="round"/>
        <path d="M45.4053 121.181V159.48" stroke="#305680" stroke-width="3.52174" stroke-linecap="round"/>
        <path d="M58.6118 129.545L58.6118 165.643" stroke="#305680" stroke-width="3.52174" stroke-linecap="round"/>
        <path d="M109.677 130.866L109.677 166.964" stroke="#305680" stroke-width="3.52174" stroke-linecap="round"/>
        <path d="M78.8616 111.496C78.8616 112.469 78.0732 113.257 77.1007 113.257C76.1282 113.257 75.3398 112.469 75.3398 111.496C75.3398 110.524 76.1282 109.735 77.1007 109.735C78.0732 109.735 78.8616 110.524 78.8616 111.496Z" fill="#305680"/>
        <path d="M85.905 151.116C85.905 152.088 85.1167 152.877 84.1442 152.877C83.1717 152.877 82.3833 152.088 82.3833 151.116C82.3833 150.143 83.1717 149.355 84.1442 149.355C85.1167 149.355 85.905 150.143 85.905 151.116Z" fill="#305680"/>
        <path d="M83.7625 111.496C92.1229 111.496 99.8576 112.204 106.155 113.406M70.0573 111.936C67.9999 112.23 64.5602 112.851 61.7208 113.406M52.4487 115.782C46.4441 117.985 45.1146 120.458 45.4636 121.621C45.4636 127.213 62.6105 131.746 83.7625 131.746C104.914 131.746 122.061 127.213 122.061 121.621C122.061 119.579 119.774 117.678 115.84 116.087M52.4487 115.782C54.0188 115.206 55.9086 114.648 58.1715 114.137C59.0429 113.942 60.3075 113.682 61.7208 113.406M52.4487 115.782V104.453M52.4487 104.453V97.8494H63.0139V104.453H52.4487ZM115.84 116.087V104.453M115.84 116.087C113.26 115.044 109.971 114.134 106.155 113.406M115.84 104.453V97.8494H105.275V104.453H115.84ZM106.155 113.406L98.2313 126.463M61.7208 113.406L70.0573 126.023" stroke="#305680" stroke-width="3.52174" stroke-miterlimit="22.926" stroke-linecap="round" stroke-linejoin="round"/>
        <path d="M122.054 133.947C122.054 139.539 104.907 144.072 83.7555 144.072C62.6035 144.072 45.4565 139.539 45.4565 133.947" stroke="#305680" stroke-width="3.52174" stroke-miterlimit="22.926" stroke-linecap="round" stroke-linejoin="round"/>
        <path d="M107.036 129.546C95.1497 124.703 88.5465 124.703 84.1442 124.703C79.3019 124.702 71.378 125.143 60.3726 129.545" stroke="#305680" stroke-width="3.52174" stroke-miterlimit="22.926" stroke-linecap="round" stroke-linejoin="round"/>
        <path d="M71.3781 157.279C63.4542 157.279 45.4053 153.186 45.4053 147.594" stroke="#305680" stroke-width="3.52174" stroke-miterlimit="22.926" stroke-linecap="round" stroke-linejoin="round"/>
        <path d="M71.3781 168.725C63.4542 168.725 45.4053 164.632 45.4053 159.04" stroke="#305680" stroke-width="3.52174" stroke-miterlimit="22.926" stroke-linecap="round" stroke-linejoin="round"/>
        <path d="M96.4703 157.279C104.394 157.279 122.003 153.186 122.003 147.594" stroke="#305680" stroke-width="3.52174" stroke-miterlimit="22.926" stroke-linecap="round" stroke-linejoin="round"/>
        <path d="M96.4703 168.725C104.394 168.725 122.003 165.072 122.003 159.48" stroke="#305680" stroke-width="3.52174" stroke-miterlimit="22.926" stroke-linecap="round" stroke-linejoin="round"/>
    </g>
    <defs>
        <clipPath id="clip0_13792_3322">
            <rect width="232" height="273" fill="white" transform="matrix(0 1 -1 0 273 0)"/>
        </clipPath>
    </defs>
</svg>
