<svg width="246" height="308" viewBox="0 0 246 308" fill="none" xmlns="http://www.w3.org/2000/svg">
    <path fill-rule="evenodd" clip-rule="evenodd" d="M42.4334 94H0V95.5H42.4334V94Z" fill="#3E9AF8"/>
    <path d="M42 94C42 108.445 44.8452 122.749 50.3732 136.095C55.9013 149.441 64.0038 161.567 74.2183 171.782C84.4327 181.996 96.559 190.099 109.905 195.627C123.251 201.155 137.555 204 152 204V202.501C137.751 202.501 123.642 199.695 110.478 194.242C97.3144 188.789 85.3533 180.797 75.2781 170.722C65.2028 160.647 57.2107 148.686 51.758 135.522C46.3053 122.358 43.4988 108.249 43.4988 94H42Z" fill="#3E9AF8"/>
    <path fill-rule="evenodd" clip-rule="evenodd" d="M151.5 202.5L151.5 284.5L153 284.5L153 202.5L151.5 202.5Z" fill="#3E9AF8"/>
    <path d="M164 296C164 289.373 158.627 284 152 284C145.373 284 140 289.373 140 296C140 302.627 145.373 308 152 308C158.627 308 164 302.627 164 296Z" fill="#F4F8FE"/>
    <path fill-rule="evenodd" clip-rule="evenodd" d="M152 285.5C157.799 285.5 162.5 290.201 162.5 296C162.5 301.799 157.799 306.5 152 306.5C146.201 306.5 141.5 301.799 141.5 296C141.5 290.201 146.201 285.5 152 285.5ZM152 284C158.627 284 164 289.373 164 296C164 302.627 158.627 308 152 308C145.373 308 140 302.627 140 296C140 289.373 145.373 284 152 284Z" fill="#3E9AF8"/>
    <rect x="0.75" y="-0.75" width="186.5" height="186.5" rx="93.25" transform="matrix(1 0 0 -1 58 186.5)" stroke="#3E9AF8" stroke-width="1.5"/>
    <g clip-path="url(#clip0_13792_2060)">
        <path d="M158 111V106C158 104.895 158.895 104 160 104H163M158 111H181M158 111H136M181 111H190.5C191.605 111 192.5 111.895 192.5 113V136C192.5 137.105 191.605 138 190.5 138H184M181 111V106C181 104.895 180.105 104 179 104V104M112 111H109C107.895 111 107 111.895 107 113V136C107 137.105 107.895 138 109 138H173M112 111V82.6621C112 81.7441 112.744 81 113.662 81V81C114.806 81 115.608 79.872 115.232 78.7919L112.111 69.8191C112.038 69.6079 112 69.3858 112 69.1621V65C112 63.8954 112.895 63 114 63H124M112 111H136M136 111V81.6319C136 80.7306 135.269 80 134.368 80V80C133.225 80 132.436 78.8553 132.843 77.7871L135.869 69.8439C135.956 69.6166 136 69.3753 136 69.1319V65C136 63.8954 135.105 63 134 63H124M124 63V57M173 138V121C173 119.895 173.895 119 175 119H182C183.105 119 184 119.895 184 121V138M173 138H184" stroke="#3E9AF8" stroke-width="4" stroke-linecap="round"/>
        <circle cx="171" cy="104" r="2" fill="#3E9AF8"/>
        <circle cx="124" cy="50" r="2" fill="#3E9AF8"/>
        <path d="M121 71H127" stroke="#3E9AF8" stroke-width="4" stroke-linecap="round"/>
        <path d="M121 81H127" stroke="#3E9AF8" stroke-width="4" stroke-linecap="round"/>
        <path d="M121 91H127" stroke="#3E9AF8" stroke-width="4" stroke-linecap="round"/>
        <path d="M121 101H127" stroke="#3E9AF8" stroke-width="4" stroke-linecap="round"/>
        <path d="M119 125H127" stroke="#3E9AF8" stroke-width="4" stroke-linecap="round"/>
        <path d="M137 125H145" stroke="#3E9AF8" stroke-width="4" stroke-linecap="round"/>
        <path d="M155 125H163" stroke="#3E9AF8" stroke-width="4" stroke-linecap="round"/>
        <path d="M156.028 88.7203L146.715 83.2015C145.803 82.6612 146.248 81.2598 147.305 81.3444L155.205 81.9764C155.397 81.9918 155.591 81.951 155.761 81.8588L166.119 76.248C166.762 75.8995 166.826 75.0007 166.238 74.5652L156.435 67.3036C155.66 66.7297 156.066 65.5 157.03 65.5H162.288C162.428 65.5 162.566 65.5294 162.694 65.5862L175.601 71.3227C175.855 71.4358 176.145 71.4377 176.401 71.3281L189.606 65.6688C189.858 65.561 190.142 65.561 190.394 65.6688L195.031 67.6561C195.811 67.9906 195.846 69.084 195.089 69.4675L156.989 88.7522C156.685 88.9066 156.322 88.8945 156.028 88.7203Z" stroke="#3E9AF8" stroke-width="4" stroke-linecap="round"/>
    </g>
    <defs>
        <clipPath id="clip0_13792_2060">
            <rect width="92" height="92" fill="white" transform="translate(106 48)"/>
        </clipPath>
    </defs>
</svg>
