<svg width="273" height="232" viewBox="0 0 273 232" fill="none" xmlns="http://www.w3.org/2000/svg">
    <g clip-path="url(#clip0_13792_3295)">
        <path fill-rule="evenodd" clip-rule="evenodd" d="M189.538 38.4677V0.884766L188.209 0.884766V38.4677H189.538Z" fill="#3E9AF8"/>
        <path d="M189.538 38.0838C176.744 38.0838 164.075 40.6038 152.255 45.4999C140.435 50.396 129.694 57.5723 120.647 66.6192C111.601 75.666 104.424 86.4062 99.5282 98.2265C94.6321 110.047 92.1121 122.716 92.1121 135.51H93.4396C93.4396 122.89 95.9253 110.394 100.755 98.7345C105.584 87.0753 112.663 76.4814 121.586 67.5579C130.51 58.6343 141.104 51.5557 152.763 46.7263C164.422 41.8969 176.918 39.4113 189.538 39.4113V38.0838Z" fill="#3E9AF8"/>
        <path fill-rule="evenodd" clip-rule="evenodd" d="M93.4406 135.067L20.814 135.067L20.814 136.395L93.4406 136.396L93.4406 135.067Z" fill="#3E9AF8"/>
        <path d="M10.6283 146.138C16.4981 146.138 21.2566 141.379 21.2566 135.51C21.2566 129.64 16.4981 124.881 10.6283 124.881C4.75845 124.881 0 129.64 0 135.51C0 141.379 4.75845 146.138 10.6283 146.138Z" fill="#F4F8FE"/>
        <path fill-rule="evenodd" clip-rule="evenodd" d="M19.928 135.51C19.928 140.646 15.7644 144.809 10.6283 144.809C5.49218 144.809 1.32854 140.646 1.32854 135.51C1.32854 130.374 5.49218 126.21 10.6283 126.21C15.7644 126.21 19.928 130.374 19.928 135.51ZM21.2566 135.51C21.2566 141.379 16.4981 146.138 10.6283 146.138C4.75845 146.138 0 141.379 0 135.51C0 129.64 4.75845 124.881 10.6283 124.881C16.4981 124.881 21.2566 129.64 21.2566 135.51Z" fill="#3E9AF8"/>
        <rect x="0.664268" y="0.664268" width="164.698" height="164.698" rx="82.3489" transform="matrix(0 1 1 0 106.283 52.2549)" stroke="#3E9AF8" stroke-width="1.32854"/>
        <g clip-path="url(#clip1_13792_3295)">
            <path d="M194.578 150.235V145.833C194.578 144.861 195.367 144.072 196.339 144.072H198.981M194.578 150.235H214.828M194.578 150.235H175.209M214.828 150.235H223.193C224.165 150.235 224.953 151.024 224.953 151.996V172.246C224.953 173.219 224.165 174.007 223.193 174.007H217.47M214.828 150.235V145.833C214.828 144.861 214.04 144.072 213.068 144.072V144.072M154.078 150.235H151.437C150.465 150.235 149.676 151.024 149.676 151.996V172.246C149.676 173.219 150.465 174.007 151.437 174.007H207.785M154.078 150.235V125.286C154.078 124.478 154.734 123.822 155.542 123.822V123.822C156.549 123.822 157.255 122.829 156.924 121.878L154.176 113.978C154.111 113.792 154.078 113.597 154.078 113.4V109.735C154.078 108.763 154.867 107.975 155.839 107.975H164.644M154.078 150.235H175.209M175.209 150.235V124.379C175.209 123.585 174.566 122.942 173.772 122.942V122.942C172.766 122.942 172.071 121.934 172.429 120.994L175.094 114C175.17 113.8 175.209 113.588 175.209 113.373V109.735C175.209 108.763 174.421 107.975 173.448 107.975H164.644M164.644 107.975V102.692M207.785 174.007V159.04C207.785 158.067 208.573 157.279 209.546 157.279H215.709C216.681 157.279 217.47 158.067 217.47 159.04V174.007M207.785 174.007H217.47" stroke="#3E9AF8" stroke-width="3.52174" stroke-linecap="round"/>
            <circle cx="206.024" cy="143.572" r="1.76087" fill="#3E9AF8"/>
            <circle cx="164.644" cy="96.0289" r="1.76087" fill="#3E9AF8"/>
            <path d="M162.002 115.018H167.285" stroke="#3E9AF8" stroke-width="3.52174" stroke-linecap="round"/>
            <path d="M162.002 123.822H167.285" stroke="#3E9AF8" stroke-width="3.52174" stroke-linecap="round"/>
            <path d="M162.002 132.627H167.285" stroke="#3E9AF8" stroke-width="3.52174" stroke-linecap="round"/>
            <path d="M162.002 141.431H167.285" stroke="#3E9AF8" stroke-width="3.52174" stroke-linecap="round"/>
            <path d="M160.242 162.562H167.285" stroke="#3E9AF8" stroke-width="3.52174" stroke-linecap="round"/>
            <path d="M176.089 162.562H183.133" stroke="#3E9AF8" stroke-width="3.52174" stroke-linecap="round"/>
            <path d="M191.937 162.562H198.98" stroke="#3E9AF8" stroke-width="3.52174" stroke-linecap="round"/>
            <path d="M192.842 130.62L184.643 125.761C183.84 125.285 184.232 124.051 185.162 124.126L192.117 124.682C192.287 124.696 192.457 124.66 192.607 124.579L201.727 119.639C202.293 119.332 202.349 118.541 201.832 118.157L193.201 111.764C192.519 111.258 192.876 110.176 193.725 110.176H198.354C198.477 110.176 198.599 110.202 198.711 110.252L210.075 115.302C210.299 115.402 210.554 115.404 210.78 115.307L222.406 110.324C222.627 110.23 222.878 110.23 223.099 110.324L227.182 112.074C227.869 112.369 227.9 113.331 227.233 113.669L193.689 130.648C193.42 130.784 193.101 130.773 192.842 130.62Z" stroke="#3E9AF8" stroke-width="3.52174" stroke-linecap="round"/>
        </g>
    </g>
    <defs>
        <clipPath id="clip0_13792_3295">
            <rect width="232" height="273" fill="white" transform="matrix(0 1 1 0 0 0)"/>
        </clipPath>
        <clipPath id="clip1_13792_3295">
            <rect width="81" height="81" fill="white" transform="translate(148.796 94.7681)"/>
        </clipPath>
    </defs>
</svg>
