<svg width="306" height="428" viewBox="0 0 306 428" fill="none" xmlns="http://www.w3.org/2000/svg">
<path fill-rule="evenodd" clip-rule="evenodd" d="M43.4334 214H1V212.5H43.4334V214Z" fill="#91A3BE"/>
<path d="M43 214C43 199.555 45.8452 185.251 51.3732 171.905C56.9013 158.559 65.0038 146.433 75.2183 136.218C85.4327 126.004 97.559 117.901 110.905 112.373C124.251 106.845 138.555 104 153 104V105.499C138.751 105.499 124.642 108.305 111.478 113.758C98.3144 119.211 86.3533 127.203 76.2781 137.278C66.2028 147.353 58.2107 159.314 52.758 172.478C47.3053 185.642 44.4988 199.751 44.4988 214H43Z" fill="#91A3BE"/>
<path fill-rule="evenodd" clip-rule="evenodd" d="M152.5 105.5L152.5 23.5L154 23.5L154 105.5L152.5 105.5Z" fill="#91A3BE"/>
<path d="M165 12C165 18.6274 159.627 24 153 24C146.373 24 141 18.6274 141 12C141 5.37258 146.373 0 153 0C159.627 0 165 5.37258 165 12Z" fill="#F4F8FE"/>
<path fill-rule="evenodd" clip-rule="evenodd" d="M153 22.5C158.799 22.5 163.5 17.799 163.5 12C163.5 6.20101 158.799 1.5 153 1.5C147.201 1.5 142.5 6.20101 142.5 12C142.5 17.799 147.201 22.5 153 22.5ZM153 24C159.627 24 165 18.6274 165 12C165 5.37258 159.627 0 153 0C146.373 0 141 5.37258 141 12C141 18.6274 146.373 24 153 24Z" fill="#91A3BE"/>
<rect x="59.75" y="120.75" width="186.5" height="186.5" rx="93.25" stroke="#91A3BE" stroke-width="1.5"/>
<g clip-path="url(#clip0_13367_1906)">
<path d="M161.269 258.124H187.785C188.879 258.124 189.738 257.16 189.582 256.077C188.59 249.165 182.644 243.853 175.454 243.853C171.908 243.853 168.666 245.149 166.171 247.291C164.017 242.139 158.931 238.52 153 238.52C147.069 238.52 141.983 242.139 139.829 247.291C137.334 245.149 134.092 243.853 130.546 243.853C123.356 243.853 117.41 249.165 116.417 256.077C116.262 257.16 117.12 258.124 118.214 258.124H144.76" stroke="#305680" stroke-width="4" stroke-miterlimit="10" stroke-linecap="round" stroke-linejoin="round"/>
<circle cx="153" cy="258" r="2" fill="#305680"/>
<path d="M153.096 207.678V237.86" stroke="#305680" stroke-width="4" stroke-miterlimit="10" stroke-linecap="round" stroke-linejoin="round"/>
<path d="M149.153 219.612C151.856 222.315 153.15 225.954 153.094 229.763C149.285 229.818 145.646 228.524 142.943 225.821C140.241 223.119 138.946 219.479 139.002 215.67C142.811 215.615 146.45 216.909 149.153 219.612Z" stroke="#305680" stroke-width="4" stroke-miterlimit="10" stroke-linecap="round" stroke-linejoin="round"/>
<path d="M157.039 211.46C154.336 214.163 153.042 217.802 153.098 221.611C156.907 221.667 160.546 220.373 163.249 217.67C165.951 214.968 167.246 211.328 167.19 207.519C163.381 207.463 159.741 208.758 157.039 211.46Z" stroke="#305680" stroke-width="4" stroke-miterlimit="10" stroke-linecap="round" stroke-linejoin="round"/>
<path d="M127.77 224.223V244.153" stroke="#305680" stroke-width="4" stroke-miterlimit="10" stroke-linecap="round" stroke-linejoin="round"/>
<path d="M124.129 226.284C126.625 228.78 127.82 232.14 127.768 235.657C124.251 235.708 120.891 234.514 118.395 232.018C115.9 229.523 114.705 226.162 114.756 222.645C118.273 222.593 121.634 223.789 124.129 226.284Z" stroke="#305680" stroke-width="4" stroke-miterlimit="10" stroke-linecap="round" stroke-linejoin="round"/>
<path d="M178.64 224.799V243.834" stroke="#305680" stroke-width="4" stroke-miterlimit="10" stroke-linecap="round" stroke-linejoin="round"/>
<path d="M182.166 226.796C179.749 229.213 178.592 232.467 178.642 235.873C182.048 235.923 185.302 234.766 187.719 232.349C190.136 229.932 191.294 226.677 191.244 223.271C187.838 223.221 184.583 224.379 182.166 226.796Z" stroke="#305680" stroke-width="4" stroke-miterlimit="10" stroke-linecap="round" stroke-linejoin="round"/>
<path d="M195.399 177.078H110.601C109.606 177.078 108.8 176.272 108.8 175.277V171.676C108.8 170.682 109.606 169.876 110.601 169.876H195.399C196.394 169.876 197.2 170.682 197.2 171.676V175.277C197.2 176.272 196.394 177.078 195.399 177.078Z" stroke="#305680" stroke-width="4" stroke-miterlimit="10" stroke-linecap="round" stroke-linejoin="round"/>
<path d="M158.86 192.032C158.86 195.031 156.429 197.462 153.43 197.462C150.431 197.462 148 195.031 148 192.032C148 189.033 153.43 183.089 153.43 183.089C153.43 183.089 158.86 189.033 158.86 192.032Z" stroke="#305680" stroke-width="4" stroke-miterlimit="10" stroke-linecap="round" stroke-linejoin="round"/>
<path d="M186.864 197.512C186.864 200.511 184.433 202.942 181.434 202.942C178.435 202.942 176.004 200.511 176.004 197.512C176.004 194.513 181.434 188.569 181.434 188.569C181.434 188.569 186.864 194.513 186.864 197.512Z" stroke="#305680" stroke-width="4" stroke-miterlimit="10" stroke-linecap="round" stroke-linejoin="round"/>
<path d="M131.856 197.512C131.856 200.511 129.425 202.942 126.426 202.942C123.427 202.942 120.996 200.511 120.996 197.512C120.996 194.513 126.426 188.569 126.426 188.569C126.426 188.569 131.856 194.513 131.856 197.512Z" stroke="#305680" stroke-width="4" stroke-miterlimit="10" stroke-linecap="round" stroke-linejoin="round"/>
</g>
<defs>
<clipPath id="clip0_13367_1906">
<rect width="92" height="92" fill="white" transform="translate(107 168)"/>
</clipPath>
</defs>
</svg>
