<svg width="273" height="232" viewBox="0 0 273 232" fill="none" xmlns="http://www.w3.org/2000/svg">
<g clip-path="url(#clip0_13473_2884)">
<path fill-rule="evenodd" clip-rule="evenodd" d="M83.4622 38.4677V0.884766L84.7908 0.884766V38.4677H83.4622Z" fill="#91A3BE"/>
<path d="M83.4622 38.0838C96.2563 38.0838 108.925 40.6038 120.745 45.4999C132.566 50.396 143.306 57.5723 152.353 66.6192C161.4 75.666 168.576 86.4062 173.472 98.2265C178.368 110.047 180.888 122.716 180.888 135.51H179.561C179.561 122.89 177.075 110.394 172.246 98.7345C167.416 87.0753 160.338 76.4814 151.414 67.5579C142.49 58.6343 131.897 51.5557 120.237 46.7263C108.578 41.8969 96.082 39.4113 83.4622 39.4113V38.0838Z" fill="#91A3BE"/>
<path fill-rule="evenodd" clip-rule="evenodd" d="M179.56 135.067L252.186 135.067L252.186 136.395L179.56 136.396L179.56 135.067Z" fill="#91A3BE"/>
<path d="M262.372 146.138C256.502 146.138 251.743 141.379 251.743 135.51C251.743 129.64 256.502 124.881 262.372 124.881C268.242 124.881 273 129.64 273 135.51C273 141.379 268.242 146.138 262.372 146.138Z" fill="#F4F8FE"/>
<path fill-rule="evenodd" clip-rule="evenodd" d="M253.072 135.51C253.072 140.646 257.236 144.809 262.372 144.809C267.508 144.809 271.671 140.646 271.671 135.51C271.671 130.374 267.508 126.21 262.372 126.21C257.236 126.21 253.072 130.374 253.072 135.51ZM251.743 135.51C251.743 141.379 256.502 146.138 262.372 146.138C268.242 146.138 273 141.379 273 135.51C273 129.64 268.242 124.881 262.372 124.881C256.502 124.881 251.743 129.64 251.743 135.51Z" fill="#91A3BE"/>
<rect x="0.409386" y="53.4094" width="165.181" height="165.181" rx="82.5907" stroke="#91A3BE" stroke-width="1.32854"/>
<g clip-path="url(#clip1_13473_2884)">
<path d="M90.3241 175.08H113.809C114.778 175.08 115.538 174.227 115.401 173.267C114.521 167.145 109.255 162.44 102.887 162.44C99.7469 162.44 96.8753 163.589 94.6651 165.486C92.7578 160.923 88.2529 157.717 82.9998 157.717C77.7468 157.717 73.2421 160.923 71.3348 165.486C69.1245 163.589 66.253 162.44 63.1127 162.44C56.7447 162.44 51.4784 167.145 50.5992 173.267C50.4614 174.226 51.2217 175.08 52.1906 175.08H75.7019" stroke="#305680" stroke-width="3.54277" stroke-miterlimit="10" stroke-linecap="round" stroke-linejoin="round"/>
<circle cx="83.0001" cy="174.971" r="1.77138" fill="#305680"/>
<path d="M83.0852 130.4V157.133" stroke="#305680" stroke-width="3.54277" stroke-miterlimit="10" stroke-linecap="round" stroke-linejoin="round"/>
<path d="M79.5926 140.97C81.9866 143.364 83.1326 146.588 83.0835 149.961C79.71 150.01 76.4865 148.864 74.0927 146.47C71.6994 144.077 70.5527 140.853 70.6019 137.48C73.9754 137.43 77.1992 138.577 79.5926 140.97Z" stroke="#305680" stroke-width="3.54277" stroke-miterlimit="10" stroke-linecap="round" stroke-linejoin="round"/>
<path d="M86.5776 133.751C84.1836 136.145 83.0376 139.368 83.0867 142.741C86.4602 142.791 89.6837 141.645 92.0775 139.251C94.4708 136.857 95.6175 133.633 95.5684 130.26C92.1949 130.211 88.9709 131.357 86.5776 133.751Z" stroke="#305680" stroke-width="3.54277" stroke-miterlimit="10" stroke-linecap="round" stroke-linejoin="round"/>
<path d="M60.6541 145.054V162.706" stroke="#305680" stroke-width="3.54277" stroke-miterlimit="10" stroke-linecap="round" stroke-linejoin="round"/>
<path d="M57.4291 146.88C59.6396 149.09 60.6979 152.067 60.6524 155.182C57.5374 155.227 54.5611 154.169 52.3507 151.958C50.1407 149.748 49.0819 146.772 49.1274 143.657C52.2424 143.611 55.2192 144.67 57.4291 146.88Z" stroke="#305680" stroke-width="3.54277" stroke-miterlimit="10" stroke-linecap="round" stroke-linejoin="round"/>
<path d="M105.709 145.565V162.423" stroke="#305680" stroke-width="3.54277" stroke-miterlimit="10" stroke-linecap="round" stroke-linejoin="round"/>
<path d="M108.833 147.333C106.692 149.474 105.667 152.356 105.711 155.373C108.728 155.417 111.61 154.392 113.751 152.251C115.891 150.111 116.917 147.228 116.873 144.211C113.856 144.167 110.973 145.193 108.833 147.333Z" stroke="#305680" stroke-width="3.54277" stroke-miterlimit="10" stroke-linecap="round" stroke-linejoin="round"/>
<path d="M120.553 103.298H45.4474C44.5667 103.298 43.8528 102.584 43.8528 101.704V98.5145C43.8528 97.6338 44.5667 96.9199 45.4474 96.9199H120.553C121.433 96.9199 122.147 97.6338 122.147 98.5145V101.704C122.147 102.584 121.433 103.298 120.553 103.298Z" stroke="#305680" stroke-width="3.54277" stroke-miterlimit="10" stroke-linecap="round" stroke-linejoin="round"/>
<path d="M88.1906 116.543C88.1906 119.199 86.0373 121.353 83.381 121.353C80.7248 121.353 78.5715 119.199 78.5715 116.543C78.5715 113.887 83.381 108.622 83.381 108.622C83.381 108.622 88.1906 113.887 88.1906 116.543Z" stroke="#305680" stroke-width="3.54277" stroke-miterlimit="10" stroke-linecap="round" stroke-linejoin="round"/>
<path d="M112.994 121.396C112.994 124.053 110.84 126.206 108.184 126.206C105.528 126.206 103.375 124.053 103.375 121.396C103.375 118.74 108.184 113.476 108.184 113.476C108.184 113.476 112.994 118.74 112.994 121.396Z" stroke="#305680" stroke-width="3.54277" stroke-miterlimit="10" stroke-linecap="round" stroke-linejoin="round"/>
<path d="M64.2733 121.396C64.2733 124.053 62.1201 126.206 59.4637 126.206C56.8076 126.206 54.6543 124.053 54.6543 121.396C54.6543 118.74 59.4637 113.476 59.4637 113.476C59.4637 113.476 64.2733 118.74 64.2733 121.396Z" stroke="#305680" stroke-width="3.54277" stroke-miterlimit="10" stroke-linecap="round" stroke-linejoin="round"/>
</g>
</g>
<defs>
<clipPath id="clip0_13473_2884">
<rect width="232" height="273" fill="white" transform="matrix(0 1 -1 0 273 0)"/>
</clipPath>
<clipPath id="clip1_13473_2884">
<rect width="81.4836" height="81.4836" fill="white" transform="translate(42.2583 95.2583)"/>
</clipPath>
</defs>
</svg>
