<svg width="273" height="232" viewBox="0 0 273 232" fill="none" xmlns="http://www.w3.org/2000/svg">
<g clip-path="url(#clip0_13473_2856)">
<path fill-rule="evenodd" clip-rule="evenodd" d="M83.4622 38.4677V0.884766L84.7908 0.884766V38.4677H83.4622Z" fill="#91A3BE"/>
<path d="M83.4622 38.0838C96.2563 38.0838 108.925 40.6038 120.745 45.4999C132.566 50.396 143.306 57.5723 152.353 66.6192C161.4 75.666 168.576 86.4062 173.472 98.2265C178.368 110.047 180.888 122.716 180.888 135.51H179.561C179.561 122.89 177.075 110.394 172.246 98.7345C167.416 87.0753 160.338 76.4814 151.414 67.5579C142.49 58.6343 131.897 51.5557 120.237 46.7263C108.578 41.8969 96.082 39.4113 83.4622 39.4113V38.0838Z" fill="#91A3BE"/>
<path fill-rule="evenodd" clip-rule="evenodd" d="M179.56 135.067L252.186 135.067L252.186 136.395L179.56 136.396L179.56 135.067Z" fill="#91A3BE"/>
<path d="M262.372 146.138C256.502 146.138 251.743 141.379 251.743 135.51C251.743 129.64 256.502 124.881 262.372 124.881C268.242 124.881 273 129.64 273 135.51C273 141.379 268.242 146.138 262.372 146.138Z" fill="#F4F8FE"/>
<path fill-rule="evenodd" clip-rule="evenodd" d="M253.072 135.51C253.072 140.646 257.236 144.809 262.372 144.809C267.508 144.809 271.671 140.646 271.671 135.51C271.671 130.374 267.508 126.21 262.372 126.21C257.236 126.21 253.072 130.374 253.072 135.51ZM251.743 135.51C251.743 141.379 256.502 146.138 262.372 146.138C268.242 146.138 273 141.379 273 135.51C273 129.64 268.242 124.881 262.372 124.881C256.502 124.881 251.743 129.64 251.743 135.51Z" fill="#91A3BE"/>
<rect x="0.409386" y="53.4094" width="165.181" height="165.181" rx="82.5907" stroke="#91A3BE" stroke-width="1.32854"/>
<path fill-rule="evenodd" clip-rule="evenodd" d="M94.5213 125.792H91.5477C90.9784 125.792 90.4957 126.279 90.4957 126.907C90.4957 127.535 90.9784 128.022 91.5477 128.022H94.5213C95.0906 128.022 95.5733 127.535 95.5733 126.907C95.5733 126.279 95.0906 125.792 94.5213 125.792ZM91.5477 125.522H94.5213C95.2511 125.522 95.8429 126.142 95.8429 126.907C95.8429 127.672 95.2511 128.292 94.5213 128.292H91.5477C90.8178 128.292 90.2261 127.672 90.2261 126.907C90.2261 126.142 90.8178 125.522 91.5477 125.522Z" fill="#305680"/>
<path fill-rule="evenodd" clip-rule="evenodd" d="M106.085 125.792H103.112C102.542 125.792 102.06 126.279 102.06 126.907C102.06 127.535 102.542 128.022 103.112 128.022H106.085C106.655 128.022 107.137 127.535 107.137 126.907C107.137 126.279 106.655 125.792 106.085 125.792ZM103.112 125.522H106.085C106.815 125.522 107.407 126.142 107.407 126.907C107.407 127.672 106.815 128.292 106.085 128.292H103.112C102.382 128.292 101.79 127.672 101.79 126.907C101.79 126.142 102.382 125.522 103.112 125.522Z" fill="#305680"/>
<path fill-rule="evenodd" clip-rule="evenodd" d="M94.5213 137.734H91.5477C90.9784 137.734 90.4957 138.221 90.4957 138.849C90.4957 139.477 90.9784 139.964 91.5477 139.964H94.5213C95.0906 139.964 95.5733 139.477 95.5733 138.849C95.5733 138.221 95.0906 137.734 94.5213 137.734ZM91.5477 137.464H94.5213C95.2511 137.464 95.8429 138.084 95.8429 138.849C95.8429 139.614 95.2511 140.233 94.5213 140.233H91.5477C90.8178 140.233 90.2261 139.614 90.2261 138.849C90.2261 138.084 90.8178 137.464 91.5477 137.464Z" fill="#305680"/>
<path fill-rule="evenodd" clip-rule="evenodd" d="M106.085 137.734H103.112C102.542 137.734 102.06 138.221 102.06 138.849C102.06 139.477 102.542 139.964 103.112 139.964H106.085C106.655 139.964 107.137 139.477 107.137 138.849C107.137 138.221 106.655 137.734 106.085 137.734ZM103.112 137.464H106.085C106.815 137.464 107.407 138.084 107.407 138.849C107.407 139.614 106.815 140.233 106.085 140.233H103.112C102.382 140.233 101.79 139.614 101.79 138.849C101.79 138.084 102.382 137.464 103.112 137.464Z" fill="#305680"/>
<path fill-rule="evenodd" clip-rule="evenodd" d="M94.5213 149.676H91.5477C90.9784 149.676 90.4957 150.164 90.4957 150.791C90.4957 151.419 90.9784 151.906 91.5477 151.906H94.5213C95.0906 151.906 95.5733 151.419 95.5733 150.791C95.5733 150.164 95.0906 149.676 94.5213 149.676ZM91.5477 149.407H94.5213C95.2511 149.407 95.8429 150.027 95.8429 150.791C95.8429 151.556 95.2511 152.176 94.5213 152.176H91.5477C90.8178 152.176 90.2261 151.556 90.2261 150.791C90.2261 150.027 90.8178 149.407 91.5477 149.407Z" fill="#305680"/>
<path fill-rule="evenodd" clip-rule="evenodd" d="M106.085 149.676H103.112C102.542 149.676 102.06 150.164 102.06 150.791C102.06 151.419 102.542 151.906 103.112 151.906H106.085C106.655 151.906 107.137 151.419 107.137 150.791C107.137 150.164 106.655 149.676 106.085 149.676ZM103.112 149.407H106.085C106.815 149.407 107.407 150.027 107.407 150.791C107.407 151.556 106.815 152.176 106.085 152.176H103.112C102.382 152.176 101.79 151.556 101.79 150.791C101.79 150.027 102.382 149.407 103.112 149.407Z" fill="#305680"/>
<path fill-rule="evenodd" clip-rule="evenodd" d="M62.6376 142.06H59.8292C59.2599 142.06 58.7772 142.547 58.7772 143.175C58.7772 143.802 59.2599 144.29 59.8292 144.29H62.6376C63.2069 144.29 63.6896 143.802 63.6896 143.175C63.6896 142.547 63.2069 142.06 62.6376 142.06ZM59.8292 141.79H62.6376C63.3674 141.79 63.9592 142.41 63.9592 143.175C63.9592 143.939 63.3674 144.559 62.6376 144.559H59.8292C59.0993 144.559 58.5076 143.939 58.5076 143.175C58.5076 142.41 59.0993 141.79 59.8292 141.79Z" fill="#305680"/>
<path fill-rule="evenodd" clip-rule="evenodd" d="M73.7062 142.06H70.8978C70.3285 142.06 69.8458 142.547 69.8458 143.175C69.8458 143.802 70.3285 144.29 70.8978 144.29H73.7062C74.2755 144.29 74.7582 143.802 74.7582 143.175C74.7582 142.547 74.2755 142.06 73.7062 142.06ZM70.8978 141.79H73.7062C74.436 141.79 75.0278 142.41 75.0278 143.175C75.0278 143.939 74.436 144.559 73.7062 144.559H70.8978C70.1679 144.559 69.5762 143.939 69.5762 143.175C69.5762 142.41 70.1679 141.79 70.8978 141.79Z" fill="#305680"/>
<path fill-rule="evenodd" clip-rule="evenodd" d="M62.6376 154.003H59.8292C59.2599 154.003 58.7772 154.49 58.7772 155.117C58.7772 155.745 59.2599 156.232 59.8292 156.232H62.6376C63.2069 156.232 63.6896 155.745 63.6896 155.117C63.6896 154.49 63.2069 154.003 62.6376 154.003ZM59.8292 153.733H62.6376C63.3674 153.733 63.9592 154.353 63.9592 155.117C63.9592 155.882 63.3674 156.502 62.6376 156.502H59.8292C59.0993 156.502 58.5076 155.882 58.5076 155.117C58.5076 154.353 59.0993 153.733 59.8292 153.733Z" fill="#305680"/>
<path fill-rule="evenodd" clip-rule="evenodd" d="M73.7062 154.003H70.8978C70.3285 154.003 69.8458 154.49 69.8458 155.117C69.8458 155.745 70.3285 156.232 70.8978 156.232H73.7062C74.2755 156.232 74.7582 155.745 74.7582 155.117C74.7582 154.49 74.2755 154.003 73.7062 154.003ZM70.8978 153.733H73.7062C74.436 153.733 75.0278 154.353 75.0278 155.117C75.0278 155.882 74.436 156.502 73.7062 156.502H70.8978C70.1679 156.502 69.5762 155.882 69.5762 155.117C69.5762 154.353 70.1679 153.733 70.8978 153.733Z" fill="#305680"/>
<path fill-rule="evenodd" clip-rule="evenodd" d="M62.6376 165.944H59.8292C59.2599 165.944 58.7772 166.431 58.7772 167.059C58.7772 167.687 59.2599 168.174 59.8292 168.174H62.6376C63.2069 168.174 63.6896 167.687 63.6896 167.059C63.6896 166.431 63.2069 165.944 62.6376 165.944ZM59.8292 165.674H62.6376C63.3674 165.674 63.9592 166.294 63.9592 167.059C63.9592 167.823 63.3674 168.443 62.6376 168.443H59.8292C59.0993 168.443 58.5076 167.823 58.5076 167.059C58.5076 166.294 59.0993 165.674 59.8292 165.674Z" fill="#305680"/>
<path fill-rule="evenodd" clip-rule="evenodd" d="M73.7062 165.944H70.8978C70.3285 165.944 69.8458 166.431 69.8458 167.059C69.8458 167.687 70.3285 168.174 70.8978 168.174H73.7062C74.2755 168.174 74.7582 167.687 74.7582 167.059C74.7582 166.431 74.2755 165.944 73.7062 165.944ZM70.8978 165.674H73.7062C74.436 165.674 75.0278 166.294 75.0278 167.059C75.0278 167.823 74.436 168.443 73.7062 168.443H70.8978C70.1679 168.443 69.5762 167.823 69.5762 167.059C69.5762 166.294 70.1679 165.674 70.8978 165.674Z" fill="#305680"/>
<path fill-rule="evenodd" clip-rule="evenodd" d="M108.886 106.612C106.755 106.612 104.729 107.408 103.428 108.862C102.776 109.591 101.656 109.653 100.927 109C100.198 108.348 100.136 107.228 100.788 106.499C102.876 104.166 105.933 103.069 108.885 103.069C111.838 103.069 114.896 104.166 116.983 106.499C117.635 107.228 117.573 108.348 116.844 109C116.115 109.653 114.995 109.591 114.343 108.862C113.042 107.407 111.016 106.612 108.886 106.612Z" fill="#305680"/>
<path fill-rule="evenodd" clip-rule="evenodd" d="M109.434 98.8011C105.512 98.8011 101.756 100.299 99.4042 103.131C98.7792 103.884 97.6624 103.987 96.9098 103.363C96.1572 102.738 96.0537 101.621 96.6787 100.868C99.8294 97.0739 104.672 95.2583 109.434 95.2583C114.199 95.2583 119.1 97.0732 122.413 100.828C123.06 101.561 122.99 102.681 122.257 103.328C121.523 103.975 120.404 103.905 119.757 103.172C117.222 100.299 113.354 98.8011 109.434 98.8011Z" fill="#305680"/>
<path fill-rule="evenodd" clip-rule="evenodd" d="M109.128 110.127C110.106 110.127 110.899 110.921 110.899 111.899V115.231H114.885C116.352 115.231 117.542 116.42 117.542 117.888V160.8C117.542 161.778 116.749 162.571 115.771 162.571C114.792 162.571 113.999 161.778 113.999 160.8V118.773H84.7715V173.199H90.0856V161.034C90.0856 159.566 91.2752 158.377 92.7427 158.377H104.257C105.724 158.377 106.914 159.566 106.914 161.034V173.199L121.971 173.199C122.949 173.199 123.742 173.992 123.742 174.971C123.742 175.949 122.949 176.742 121.97 176.742L44.0297 176.742C43.0514 176.742 42.2583 175.949 42.2583 174.97C42.2583 173.992 43.0514 173.199 44.0297 173.199H48.4581V135.517C48.4581 134.05 49.6478 132.86 51.1152 132.86H57.7579V129.064C57.7579 128.086 58.551 127.293 59.5293 127.293C60.5076 127.293 61.3007 128.086 61.3007 129.064V132.86H81.2287V117.888C81.2287 116.42 82.4183 115.231 83.8858 115.231H107.357V111.899C107.357 110.921 108.15 110.127 109.128 110.127ZM81.2287 136.403H52.0009V173.199H81.2287V136.403ZM103.371 173.199V161.919H93.6284V173.199H103.371Z" fill="#305680"/>
<path fill-rule="evenodd" clip-rule="evenodd" d="M57.3149 143.446C57.3149 142.468 58.108 141.675 59.0863 141.675H63.5148C64.4931 141.675 65.2862 142.468 65.2862 143.446C65.2862 144.424 64.4931 145.218 63.5148 145.218H59.0863C58.108 145.218 57.3149 144.424 57.3149 143.446Z" fill="#305680"/>
<path fill-rule="evenodd" clip-rule="evenodd" d="M57.3149 155.509C57.3149 154.53 58.108 153.737 59.0863 153.737H63.5148C64.4931 153.737 65.2862 154.53 65.2862 155.509C65.2862 156.487 64.4931 157.28 63.5148 157.28H59.0863C58.108 157.28 57.3149 156.487 57.3149 155.509Z" fill="#305680"/>
<path fill-rule="evenodd" clip-rule="evenodd" d="M57.3149 166.643C57.3149 165.665 58.108 164.872 59.0863 164.872H63.5148C64.4931 164.872 65.2862 165.665 65.2862 166.643C65.2862 167.621 64.4931 168.414 63.5148 168.414H59.0863C58.108 168.414 57.3149 167.621 57.3149 166.643Z" fill="#305680"/>
<path fill-rule="evenodd" clip-rule="evenodd" d="M67.9434 166.643C67.9434 165.665 68.7364 164.872 69.7147 164.872H74.1432C75.1215 164.872 75.9146 165.665 75.9146 166.643C75.9146 167.621 75.1215 168.414 74.1432 168.414H69.7147C68.7364 168.414 67.9434 167.621 67.9434 166.643Z" fill="#305680"/>
<path fill-rule="evenodd" clip-rule="evenodd" d="M67.9434 155.509C67.9434 154.53 68.7364 153.737 69.7147 153.737H74.1432C75.1215 153.737 75.9146 154.53 75.9146 155.509C75.9146 156.487 75.1215 157.28 74.1432 157.28H69.7147C68.7364 157.28 67.9434 156.487 67.9434 155.509Z" fill="#305680"/>
<path fill-rule="evenodd" clip-rule="evenodd" d="M67.9434 143.446C67.9434 142.468 68.7364 141.675 69.7147 141.675H74.1432C75.1215 141.675 75.9146 142.468 75.9146 143.446C75.9146 144.424 75.1215 145.218 74.1432 145.218H69.7147C68.7364 145.218 67.9434 144.424 67.9434 143.446Z" fill="#305680"/>
<path fill-rule="evenodd" clip-rule="evenodd" d="M90.0857 126.746C90.0857 125.767 90.8788 124.974 91.8571 124.974H96.2855C97.2638 124.974 98.0569 125.767 98.0569 126.746C98.0569 127.724 97.2638 128.517 96.2855 128.517H91.8571C90.8788 128.517 90.0857 127.724 90.0857 126.746Z" fill="#305680"/>
<path fill-rule="evenodd" clip-rule="evenodd" d="M90.0857 138.808C90.0857 137.829 90.8788 137.036 91.8571 137.036H96.2855C97.2638 137.036 98.0569 137.829 98.0569 138.808C98.0569 139.786 97.2638 140.579 96.2855 140.579H91.8571C90.8788 140.579 90.0857 139.786 90.0857 138.808Z" fill="#305680"/>
<path fill-rule="evenodd" clip-rule="evenodd" d="M90.0857 150.869C90.0857 149.891 90.8788 149.098 91.8571 149.098H96.2855C97.2638 149.098 98.0569 149.891 98.0569 150.869C98.0569 151.847 97.2638 152.64 96.2855 152.64H91.8571C90.8788 152.64 90.0857 151.847 90.0857 150.869Z" fill="#305680"/>
<path fill-rule="evenodd" clip-rule="evenodd" d="M100.714 150.869C100.714 149.891 101.507 149.098 102.485 149.098H106.914C107.892 149.098 108.685 149.891 108.685 150.869C108.685 151.847 107.892 152.64 106.914 152.64H102.485C101.507 152.64 100.714 151.847 100.714 150.869Z" fill="#305680"/>
<path fill-rule="evenodd" clip-rule="evenodd" d="M100.714 138.808C100.714 137.829 101.507 137.036 102.485 137.036H106.914C107.892 137.036 108.685 137.829 108.685 138.808C108.685 139.786 107.892 140.579 106.914 140.579H102.485C101.507 140.579 100.714 139.786 100.714 138.808Z" fill="#305680"/>
<path fill-rule="evenodd" clip-rule="evenodd" d="M100.714 126.746C100.714 125.767 101.507 124.974 102.485 124.974H106.914C107.892 124.974 108.685 125.767 108.685 126.746C108.685 127.724 107.892 128.517 106.914 128.517H102.485C101.507 128.517 100.714 127.724 100.714 126.746Z" fill="#305680"/>
<path d="M117.542 167.885C117.542 168.863 116.749 169.657 115.771 169.657C114.792 169.657 113.999 168.863 113.999 167.885C113.999 166.907 114.792 166.114 115.771 166.114C116.749 166.114 117.542 166.907 117.542 167.885Z" fill="#305680"/>
<path fill-rule="evenodd" clip-rule="evenodd" d="M115.771 168.55C116.138 168.55 116.436 168.253 116.436 167.885C116.436 167.518 116.138 167.22 115.771 167.22C115.403 167.22 115.105 167.518 115.105 167.885C115.105 168.253 115.403 168.55 115.771 168.55ZM115.771 169.657C116.749 169.657 117.542 168.863 117.542 167.885C117.542 166.907 116.749 166.114 115.771 166.114C114.792 166.114 113.999 166.907 113.999 167.885C113.999 168.863 114.792 169.657 115.771 169.657Z" fill="#305680"/>
<path fill-rule="evenodd" clip-rule="evenodd" d="M59.41 122.507C57.2798 122.507 55.2537 123.303 53.9525 124.757C53.3 125.486 52.1802 125.548 51.4512 124.896C50.7222 124.243 50.6601 123.124 51.3125 122.395C53.4 120.062 56.457 118.964 59.4099 118.964C62.3629 118.964 65.4199 120.062 67.5075 122.395C68.1598 123.124 68.0977 124.244 67.3686 124.896C66.6396 125.548 65.5197 125.486 64.8674 124.757C63.5662 123.303 61.5401 122.507 59.41 122.507Z" fill="#305680"/>
<path fill-rule="evenodd" clip-rule="evenodd" d="M59.9588 114.696C56.0366 114.696 52.281 116.194 49.9289 119.026C49.3039 119.779 48.1871 119.883 47.4344 119.258C46.6818 118.633 46.5783 117.516 47.2033 116.763C50.3541 112.969 55.1967 111.153 59.9588 111.153C64.7232 111.153 69.6251 112.968 72.9378 116.723C73.585 117.456 73.515 118.576 72.7814 119.223C72.0478 119.87 70.9284 119.8 70.2812 119.067C67.747 116.194 63.8787 114.696 59.9588 114.696Z" fill="#305680"/>
</g>
<defs>
<clipPath id="clip0_13473_2856">
<rect width="232" height="273" fill="white" transform="matrix(0 1 -1 0 273 0)"/>
</clipPath>
</defs>
</svg>
