<svg width="181" height="40" viewBox="0 0 181 40" fill="none" xmlns="http://www.w3.org/2000/svg">
<path d="M19.9635 0.5C9.20192 0.5 0.5 9.21825 0.5 20C0.5 30.7817 9.20192 39.5 19.9635 39.5C30.725 39.5 39.4269 30.7817 39.4269 20C39.4784 9.21825 30.725 0.5 19.9635 0.5ZM19.9635 37.6944C10.2317 37.6944 2.30217 29.75 2.30217 20C2.30217 10.25 10.2317 2.30556 19.9635 2.30556C29.6952 2.30556 37.6248 10.25 37.6248 20C37.6248 29.75 29.6952 37.6944 19.9635 37.6944Z" fill="#B1B1B1"/>
<path d="M28.0474 7.82533H26.7086V14.5317H13.3211V7.82533H11.9308C7.96604 10.4563 5.39151 14.9444 5.39151 19.9999C5.39151 25.1071 8.01753 29.5436 11.9308 32.1745H13.3211V25.4682H26.7086V32.1745H28.0474C32.0122 29.5436 34.5867 25.1071 34.5867 19.9999C34.5867 14.9444 31.9607 10.4563 28.0474 7.82533ZM11.4674 29.5436C8.78989 27.1706 7.19368 23.7142 7.19368 19.9999C7.19368 16.2856 8.78989 12.8293 11.4674 10.4563V29.5436ZM26.7086 23.6626H13.3211V16.3372H26.7086V23.6626ZM28.5108 29.5436V10.5079C31.1883 12.8809 32.7845 16.3372 32.7845 20.0515C32.7845 23.7142 31.1883 27.119 28.5108 29.5436Z" fill="#B1B1B1"/>
<path fill-rule="evenodd" clip-rule="evenodd" d="M74.8337 19.4325C74.8337 19.4325 78.5804 18.1944 78.5804 14.1706C78.5804 9.42455 75.0509 7.10312 70.164 7.10312H57.458V32.8452H71.3043C75.5396 32.8452 79.775 30.0079 79.775 25.6746C79.7207 20.5158 74.8337 19.4325 74.8337 19.4325ZM69.0237 12.4166C70.5441 12.4166 71.5758 13.3968 71.5758 14.8412C71.5758 15.9761 70.5984 17.2142 68.8608 17.2142H64.0282V12.4166H69.0237ZM69.078 27.4285H64.1368V22.373H68.9694C71.4129 22.373 72.5532 23.4047 72.5532 24.9007C72.4989 26.7579 71.0871 27.4285 69.078 27.4285Z" fill="#B1B1B1"/>
<path fill-rule="evenodd" clip-rule="evenodd" d="M94.3812 6.43232C86.5621 6.43232 81.9467 12.3649 81.9467 19.8966C81.9467 27.4799 86.5621 33.4125 94.3812 33.4125C102.255 33.4125 106.816 27.4799 106.816 19.8966C106.87 12.3649 102.309 6.43232 94.3812 6.43232ZM94.3812 27.2736C90.526 27.2736 88.6255 24.0236 88.6255 19.9482C88.6255 15.9244 90.526 12.6228 94.3812 12.6228C98.2365 12.6228 100.191 15.8728 100.191 19.9482C100.191 23.972 98.2365 27.2736 94.3812 27.2736Z" fill="#B1B1B1"/>
<path fill-rule="evenodd" clip-rule="evenodd" d="M121.314 17.1627L120.337 16.9563C118.002 16.492 116.21 15.9246 116.21 14.377C116.21 12.6746 117.948 12.0039 119.522 12.0039C121.803 12.0039 123.758 13.0873 125.061 14.377L129.242 10.4047C127.341 8.34124 124.192 6.38092 119.359 6.38092C113.712 6.43251 109.368 9.47616 109.368 14.5317C109.368 19.123 112.898 21.4444 117.133 22.2698L118.11 22.4762C121.64 23.1984 122.943 23.7143 122.943 25.3135C122.943 26.8095 121.477 27.8412 119.305 27.8412C116.644 27.8412 114.255 26.7579 112.463 24.5396L108.119 28.5635C110.509 31.246 113.495 33.4127 119.414 33.4127C124.518 33.4127 129.893 30.6785 129.893 25.0039C129.839 19.0714 125.169 17.9365 121.314 17.1627Z" fill="#B1B1B1"/>
<path fill-rule="evenodd" clip-rule="evenodd" d="M144.934 27.2739C141.948 27.2739 138.798 24.9009 138.798 19.7938C138.798 15.2025 141.676 12.6231 144.717 12.6231C147.106 12.6231 148.518 13.7065 149.658 15.512L155.142 12.0557C152.427 8.13504 149.169 6.48424 144.717 6.48424C136.518 6.48424 132.119 12.52 132.119 19.7938C132.119 27.4287 137.061 33.4644 144.663 33.4644C150.038 33.4644 152.59 31.6589 155.359 27.893L149.821 24.3335C148.735 26.0358 147.54 27.2739 144.934 27.2739Z" fill="#B1B1B1"/>
<path fill-rule="evenodd" clip-rule="evenodd" d="M173.333 7.05173V16.5438H165.133V7.05173H158.02V32.7938H165.133V22.6311H173.333V32.7938H180.5V7.05173H173.333Z" fill="#B1B1B1"/>
</svg>
