<svg width="181" height="32" viewBox="0 0 181 32" fill="none" xmlns="http://www.w3.org/2000/svg">
<path d="M14.9995 31.9609C12.4626 31.9609 9.9252 31.9924 7.38885 31.954C2.91774 31.8863 -0.381981 27.5955 0.710445 23.1917C1.71481 19.1429 2.84286 15.1258 3.91528 11.0945C4.46397 9.0319 4.98893 6.96251 5.56276 4.90719C6.31352 2.21815 8.09198 0.631237 10.7707 0.103635C11.5338 -0.0466633 12.3264 0.00809486 13.1074 0.0171062C18.1169 0.0749433 23.1284 -0.00745108 28.1358 0.173216C31.2257 0.284695 33.8478 2.96914 34.0912 6.1037C34.1908 7.38646 33.8213 8.56726 33.5014 9.76656C31.9719 15.5006 30.4391 21.2337 28.903 26.9659C28.1039 29.9275 25.3458 32.01 22.3239 32C19.8825 31.9919 17.441 31.9983 14.9995 31.9983L14.9995 31.9609ZM21.8244 26.0829C21.3672 26.0829 20.9865 26.0853 20.6058 26.0825C16.6963 26.054 12.7866 25.9889 8.87749 26.0141C8.50346 26.0162 8.13413 25.9292 7.79903 25.7599C7.46392 25.5906 7.17234 25.3437 6.94761 25.0391C6.72287 24.7345 6.57121 24.3805 6.50475 24.0054C6.43829 23.6304 6.45888 23.2447 6.56487 22.8792C6.93232 21.5385 7.26813 20.1889 7.62837 18.8461C8.61317 15.1754 9.60059 11.5054 10.5906 7.83608C10.9383 6.54113 11.7704 5.89046 13.097 5.89407C13.7194 5.89576 14.3418 5.89885 14.9641 5.90335C18.9033 5.92836 22.8425 5.95591 26.7817 5.98602C27.1277 5.98922 27.2992 5.89246 27.3681 5.53561C27.4507 5.1078 27.5914 4.69169 27.7034 4.26956C27.8539 3.70238 27.8526 3.68752 27.2732 3.68197C24.8981 3.65925 22.523 3.64179 20.1479 3.62958C17.3876 3.61085 14.6273 3.57787 11.867 3.58066C11.1278 3.58518 10.4101 3.83461 9.82227 4.29128C9.23442 4.74795 8.80834 5.38708 8.60833 6.11218C7.01561 12.0312 5.43278 17.9529 3.85984 23.8773C3.25654 26.1616 4.90164 28.3202 7.22244 28.354C8.51444 28.3728 9.80657 28.3825 11.0988 28.3831C14.3373 28.3895 17.5758 28.3863 20.8143 28.3997C21.1171 28.4009 21.2724 28.3301 21.3406 28.0068C21.4706 27.3914 21.6448 26.7856 21.8244 26.0829ZM26.9035 7.21675C26.7093 7.20248 26.5677 7.18384 26.4259 7.18285C22.1345 7.15277 17.8431 7.12514 13.5517 7.09997C12.4011 7.09509 11.8553 7.57603 11.5523 8.7148C10.6169 12.231 9.67548 15.7455 8.72814 19.2584C8.40633 20.4608 8.07375 21.6608 7.77981 22.8703C7.52585 23.9154 8.14546 24.78 9.16211 24.7898C13.374 24.8303 17.5862 24.8494 21.7982 24.8871C22.0822 24.8897 22.1955 24.7727 22.2586 24.5192C22.3756 24.0483 22.5083 23.5815 22.6359 23.1134C22.7906 22.5455 22.7914 22.5324 22.2242 22.5264C18.6351 22.4882 15.046 22.4538 11.4568 22.4234C10.602 22.4159 10.4051 22.1686 10.6273 21.3184C10.93 20.1606 11.2463 19.0064 11.5553 17.8503C12.2192 15.3662 12.8776 12.8806 13.5488 10.3985C13.7267 9.74084 14.1389 9.43381 14.8055 9.41992C15.2681 9.41028 15.731 9.41382 16.1938 9.41739C19.4334 9.44239 22.6729 9.4681 25.9125 9.49451C26.0836 9.49585 26.2626 9.53576 26.3288 9.28553C26.5099 8.60114 26.7066 7.92101 26.9035 7.21675ZM29.5812 6.04246L29.5812 6.00822C29.3588 6.00822 29.1364 6.01007 28.914 6.00789C28.0766 5.99968 28.086 6.00113 27.9221 6.82762C27.877 7.05472 27.891 7.15608 28.1475 7.1575C28.7973 7.16111 29.4474 7.19992 30.0969 7.19076C30.8274 7.18045 30.843 7.13958 30.9861 6.40816C31.0428 6.11842 30.9497 6.02912 30.6758 6.03916C30.3114 6.05251 29.9461 6.04246 29.5812 6.04246ZM24.2563 26.0467V26.0518C24.5102 26.0518 24.7642 26.0533 25.0181 26.0515C25.7768 26.0464 25.7688 26.0442 25.9182 25.2944C25.9686 25.0419 25.9139 24.9424 25.6498 24.9412C25.0312 24.9382 24.4128 24.9091 23.7942 24.9019C23.0638 24.8935 23.0734 24.9013 22.8894 25.603C22.8079 25.9139 22.8194 26.0863 23.2094 26.0529C23.5561 26.0233 23.9072 26.0467 24.2563 26.0467Z" fill="#B1B1B1"/>
<path d="M75.2515 7.56562C76.8948 7.56562 78.5382 7.55203 80.1813 7.56885C82.5436 7.59304 84.1597 9.74678 83.5542 12.0732C83.0448 14.0299 82.509 15.9797 81.9699 17.9283C81.5426 19.4727 80.3356 20.4229 78.75 20.494C78.463 20.5068 78.1757 20.5281 77.8889 20.5241C77.5686 20.5196 77.4895 20.6188 77.6554 20.9192C78.3333 22.1472 79.0008 23.381 79.6713 24.6132C79.7405 24.7403 79.7996 24.8733 79.871 24.9991C79.977 25.1859 79.9735 25.296 79.7166 25.2899C78.6806 25.2649 77.6444 25.2439 76.6082 25.2268C76.3853 25.2233 76.28 25.1091 76.1777 24.9171C75.4644 23.5798 74.7302 22.254 74.0182 20.9159C73.8657 20.6291 73.6945 20.4995 73.3536 20.502C71.6621 20.5142 69.9702 20.5026 68.2787 20.4813C67.9728 20.4775 67.8371 20.5611 67.7576 20.8801C67.4288 22.1982 67.06 23.506 66.7213 24.8217C66.6493 25.1013 66.529 25.2202 66.2328 25.2115C65.2759 25.1831 64.3182 25.1659 63.3611 25.1732C63.0101 25.1758 62.9685 25.0664 63.0561 24.747C63.5264 23.0314 63.976 21.31 64.4363 19.5916C65.2649 16.4985 66.0954 13.4059 66.9279 10.3139C67.457 8.3606 68.6164 7.46583 70.6075 7.45803C72.1555 7.45196 73.7035 7.45681 75.2516 7.45681C75.2516 7.49308 75.2515 7.52935 75.2515 7.56562ZM73.6372 18.0767L73.6371 18.1354C74.8473 18.1354 76.0577 18.1479 77.2677 18.1307C77.9797 18.1206 78.3246 17.8453 78.5132 17.1571C78.9783 15.4596 79.4341 13.7595 79.8804 12.0567C80.1081 11.1828 79.6282 10.532 78.7355 10.5211C76.313 10.4915 73.8903 10.4796 71.4676 10.472C70.8292 10.47 70.484 10.729 70.3123 11.3516C69.8442 13.0494 69.3812 14.7489 68.9453 16.4554C68.6907 17.4523 69.1815 18.0681 70.1946 18.0749C71.3421 18.0827 72.4897 18.0767 73.6372 18.0767Z" fill="#B1B1B1"/>
<path d="M175.008 25.3681C174.514 25.3681 174.019 25.3635 173.525 25.37C173.276 25.3733 173.128 25.2788 173.002 25.0427C172.288 23.7068 171.547 22.3851 170.827 21.0528C170.692 20.8037 170.541 20.6726 170.238 20.6764C168.532 20.6977 166.827 20.7055 165.121 20.6998C164.805 20.699 164.683 20.8262 164.609 21.1285C164.295 22.3997 163.946 23.6619 163.63 24.9326C163.536 25.312 163.394 25.4962 162.958 25.4754C162.083 25.4336 161.203 25.4393 160.327 25.4784C159.861 25.4992 159.844 25.3215 159.946 24.9492C160.501 22.9057 161.043 20.8586 161.589 18.8127C162.353 15.9549 163.116 13.0971 163.88 10.2394C164.069 9.49573 164.498 8.83795 165.096 8.37075C165.695 7.90356 166.43 7.65379 167.184 7.66119C170.47 7.656 173.756 7.65682 177.042 7.66364C179.336 7.67137 180.957 9.79195 180.384 12.0447C179.866 14.0817 179.32 16.1115 178.774 18.141C178.414 19.4803 177.133 20.5225 175.769 20.6116C175.403 20.6356 175.036 20.6743 174.67 20.6692C174.309 20.6641 174.319 20.7797 174.471 21.0557C175.202 22.3827 175.911 23.7224 176.644 25.0482C176.804 25.3361 176.748 25.4081 176.444 25.4008C175.965 25.3895 175.487 25.3978 175.008 25.3978L175.008 25.3681ZM172.032 10.6507L172.032 10.6439C170.82 10.6439 169.609 10.6373 168.397 10.6464C167.647 10.652 167.352 10.8739 167.158 11.5971C166.7 13.2973 166.247 14.9991 165.812 16.7055C165.57 17.6538 166.047 18.2511 167.019 18.2521C169.362 18.2546 171.706 18.2538 174.049 18.2497C174.773 18.2488 175.141 17.9785 175.336 17.2708C175.803 15.5727 176.262 13.8724 176.713 12.1698C176.946 11.2864 176.475 10.6617 175.57 10.6534C174.391 10.6426 173.211 10.6507 172.032 10.6507Z" fill="#B1B1B1"/>
<path d="M148.95 25.4761C147.276 25.4761 145.6 25.4372 143.927 25.4884C142.587 25.5294 141.016 24.1386 141.208 22.3302C141.331 21.1683 141.724 20.0649 142.017 18.9418C142.789 15.9866 143.595 13.0407 144.382 10.0896C144.796 8.53802 145.78 7.71269 147.378 7.69131C149.93 7.65716 152.482 7.66571 155.034 7.65822C155.735 7.65616 156.437 7.64965 157.139 7.66528C159.06 7.70808 160.422 9.49877 159.927 11.3841C158.882 15.3545 157.82 19.3199 156.739 23.2803C156.37 24.6413 155.317 25.4484 153.925 25.4612C152.267 25.4763 150.609 25.4648 148.95 25.4648L148.95 25.4761ZM151.899 10.6849V10.6865C150.926 10.6865 149.953 10.6848 148.98 10.6871C148.165 10.689 147.842 10.9465 147.625 11.7564C146.82 14.7711 146.015 17.786 145.21 20.8011C145.14 21.0641 145.058 21.3302 145.107 21.613C145.221 22.2659 145.678 22.6144 146.48 22.6104C148.41 22.6007 150.34 22.5788 152.27 22.5588C152.951 22.5517 153.293 22.2909 153.478 21.6186C153.722 20.7305 153.948 19.8369 154.188 18.9476C154.796 16.7003 155.416 14.4566 156.012 12.2062C156.247 11.3216 155.763 10.6965 154.867 10.6872C153.878 10.6769 152.888 10.6849 151.899 10.6849Z" fill="#B1B1B1"/>
<path d="M110.623 25.3727C108.805 25.3727 106.986 25.3918 105.167 25.3676C103.097 25.3401 101.802 23.5911 102.34 21.5475C103.199 18.2799 104.085 15.0194 104.958 11.7552C105.275 10.5682 105.595 9.38182 105.893 8.18956C105.983 7.82491 106.122 7.64954 106.534 7.66399C107.458 7.69644 108.384 7.67638 109.309 7.66443C109.58 7.66094 109.681 7.71536 109.599 8.02303C108.857 10.7879 108.123 13.5547 107.396 16.3236C106.987 17.8711 106.56 19.4141 106.177 20.9683C105.943 21.9184 106.422 22.5047 107.397 22.5207C108.609 22.5406 109.822 22.5443 111.034 22.5515C112.134 22.5581 113.233 22.5603 114.333 22.564C115.203 22.5669 115.501 22.3419 115.729 21.4893C116.917 17.054 118.1 12.6174 119.279 8.17941C119.377 7.80544 119.538 7.67927 119.891 7.68267C120.768 7.69113 121.646 7.67055 122.523 7.68223C123.076 7.68959 123.081 7.7076 122.932 8.26785C121.638 13.1434 120.334 18.0162 119.055 22.8958C118.815 23.8135 118.416 24.5836 117.591 25.0711C117.177 25.3199 116.704 25.45 116.224 25.4476C114.357 25.4424 112.49 25.4455 110.623 25.4455V25.3727Z" fill="#B1B1B1"/>
<path d="M50.42 7.36319C52.3505 7.36319 54.2811 7.37199 56.2114 7.35623C56.6287 7.35283 56.7454 7.45203 56.6113 7.88351C56.4055 8.54604 56.2467 9.22481 56.0938 9.9027C56.0241 10.2116 55.8763 10.2983 55.5697 10.307C52.4282 10.3967 49.2861 10.3687 46.1442 10.373C46.0008 10.3732 45.8572 10.367 45.7139 10.371C44.8942 10.3937 44.5619 10.6418 44.3445 11.446C43.6312 14.0846 42.9234 16.7248 42.2212 19.3665C42.1002 19.8193 41.9749 20.2718 41.878 20.7301C41.7121 21.5138 42.2142 22.1565 43.0102 22.1652C46.0714 22.1986 49.1327 22.2261 52.1941 22.2475C52.7515 22.2522 52.7506 22.2498 52.6103 22.7963C52.4454 23.4384 52.2725 24.0788 52.1234 24.7248C52.0643 24.9808 51.9738 25.1019 51.6842 25.1065C48.3649 25.16 45.0458 25.1205 41.7278 25.0512C39.6102 25.0069 38.0069 22.79 38.5501 20.6556C39.3357 17.5683 40.1841 14.4976 41.0064 11.42C41.1442 10.9046 41.2678 10.3845 41.4285 9.87651C41.9042 8.37244 43.1298 7.4241 44.6756 7.40576C46.5902 7.38303 48.5052 7.40032 50.4201 7.40032L50.42 7.36319Z" fill="#B1B1B1"/>
<path d="M96.0055 7.66523C97.9682 7.66523 99.931 7.67532 101.894 7.65695C102.3 7.65314 102.338 7.79978 102.242 8.13975C102.049 8.82426 101.867 9.51231 101.707 10.2053C101.637 10.5064 101.527 10.6183 101.195 10.6164C98.1159 10.5995 95.0365 10.5971 91.957 10.6094C90.3502 10.6142 90.3413 10.6239 89.9083 12.2088C89.1369 15.0319 88.3725 17.857 87.6152 20.6841C87.3198 21.7862 87.7592 22.3855 88.8806 22.3993C91.864 22.4358 94.8476 22.4566 97.831 22.4855C98.3905 22.4909 98.3907 22.4948 98.246 23.0399C98.0758 23.6806 97.8977 24.3193 97.7384 24.9628C97.6742 25.2219 97.5518 25.3305 97.2769 25.3354C93.9092 25.3953 90.5417 25.3511 87.1764 25.252C85.2342 25.1948 83.7233 22.9708 84.2302 20.945C84.9484 18.0748 85.7331 15.2218 86.4928 12.3624C86.6963 11.5966 86.8857 10.8253 87.1285 10.0723C87.6087 8.58271 88.8673 7.65122 90.4056 7.63981C92.2721 7.62596 94.1388 7.63652 96.0055 7.63652C96.0055 7.64609 96.0055 7.65566 96.0055 7.66523Z" fill="#B1B1B1"/>
<path d="M133.937 7.74241C136.106 7.74241 138.276 7.74283 140.445 7.74366C141.071 7.74461 141.266 8.00924 141.112 8.63744C140.997 9.10878 140.854 9.5738 140.757 10.0486C140.67 10.4689 140.443 10.649 140.025 10.6504C138.782 10.6547 137.538 10.6932 136.295 10.6773C135.875 10.6719 135.683 10.7831 135.569 11.2183C134.507 15.2682 133.421 19.3116 132.342 23.3565C132.187 23.9343 132.001 24.5049 131.878 25.0892C131.807 25.4245 131.671 25.5416 131.336 25.5306C130.395 25.5 129.455 25.488 128.513 25.4946C128.195 25.4969 128.14 25.4084 128.223 25.1043C128.688 23.4053 129.134 21.7013 129.589 19.9996C130.378 17.0486 131.161 14.096 131.966 11.1498C132.071 10.7686 131.948 10.7118 131.628 10.71C130.099 10.7014 128.57 10.6862 127.041 10.6646C126.211 10.6527 126.029 10.3942 126.248 9.57985C126.361 9.15822 126.481 8.7383 126.583 8.31391C126.681 7.90691 126.907 7.73611 127.333 7.73896C129.534 7.75371 131.736 7.74581 133.937 7.74581V7.74241Z" fill="#B1B1B1"/>
<path d="M57.4873 25.1783C57.0408 25.1783 56.5933 25.1596 56.1481 25.184C55.7593 25.2052 55.6475 25.1021 55.763 24.6909C56.1559 23.2911 56.5131 21.8809 56.8879 20.4759C58.0085 16.2753 59.1279 12.0744 60.2462 7.87326C60.3386 7.52382 60.4708 7.36382 60.855 7.37626C61.7632 7.40569 62.6732 7.40062 63.5818 7.38115C63.9477 7.37331 64.0088 7.48649 63.9159 7.83198C62.9466 11.4369 61.9846 15.0438 61.0299 18.6528C60.4993 20.6526 59.9699 22.6527 59.457 24.6572C59.3648 25.0177 59.2442 25.2209 58.8261 25.1803C58.3836 25.1372 57.9339 25.1706 57.4873 25.1706L57.4873 25.1783Z" fill="#B1B1B1"/>
</svg>
