<svg version="1.2" xmlns="http://www.w3.org/2000/svg" viewBox="0 0 1543 296" width="179" height="40" fill="#B1B1B1" >
<g id="Layer">
<g id="Layer">
<g id="Layer">
<g id="Layer">
    <path id="Layer" class="s0" d="m0 261.6h1542.1v33.8h-1542.1z"/>
</g>
</g>
<g id="Layer">
<path id="Layer" class="s0" d="m755.2 219.2l22.4-129.9h0.6l22.9 129.9h63.9l59.6-213.3h-64.7l-26.6 133.5h-0.5l-25.2-133.5h-57.8l-25.6 131.8h-0.7l-25.9-131.8h-64.5l57.9 213.3z"/>
<path id="Layer" fill-rule="evenodd" class="s0" d="m892.4 219.2l78.4-213.3h64.2l77.5 213.3h-68l-8.9-30.5h-67.7l-9.6 30.5zm89.9-76.2h40.3l-19.2-65.7h-0.5z"/>
<path id="Layer" fill-rule="evenodd" class="s0" d="m1197 219.3h-65.6v-213.3h125.1c37.3 0 69.5 20.6 69.5 60.9 0 22.1-10.2 45.4-32 53.5 17.8 6.8 28.9 26.5 31.3 53.1 0.9 10.5 1.2 35.9 7.2 45.8h-65.6c-3.4-10.8-4.6-21.8-5.4-32.9-1.8-20.3-3.5-41.5-29.5-41.5h-35zm0-120.1h34.4c12.2 0 29-2.1 29-21.2 0-13.5-7.5-21.2-32.6-21.2h-30.8z"/>
<path id="Layer" class="s0" d="m1437.3 164.6l100-110.9v-47.8h-179.9v54.7h93.4l-99 107.3v51.3h190.3v-54.6z"/>
<path id="Layer" class="s0" d="m99.3 177.1c-12.1 0-26.5-2.7-31.3-15.6-1.5-3.9-2.4-8.6-2.4-14h-65.6c0.5 68.1 69.5 76.8 93.7 76.8 47.4 0 98.4-17.9 98.4-73.5 0-39.1-29.8-53.2-59.9-61.6-30.1-8.3-60.6-11.5-61.8-26.8 0-12 14.6-14.4 23.6-14.4 6.5 0 14 1.6 19.4 5.4 5.3 3.6 8.9 8.9 7.7 17h62c-1.7-52-42.6-69.6-88.9-69.6-43.8 0-85.9 21.2-85.9 70.4 0 43.1 38.5 52.3 72.2 61.9 36.7 10.5 45.9 13.4 45.9 24.5 0.1 15.9-16.3 19.5-27.1 19.5z"/>
<path id="Layer" class="s0" d="m490.6 134.6h61.5v84.6h65.7v-213.3h-65.7v74.2h-61.5v-74.2h-65.6v213.3h65.6z"/>
<path id="Layer" class="s0" d="m310 224.3c62.3 0 97.2-45.8 97.2-88.7h-64.4c-3.9 20.1-12.5 35.5-34.6 35.5-30.6 0-40.5-29.8-40.5-58.5 0-28.6 9.9-58.5 40.5-58.5 27.2 0 33.1 23.7 34.3 31.4h63.9c-5.7-53.5-37.9-84.2-96.4-84.5-65.6 0-108.1 44.5-108.1 111.7 0 62.9 39.2 111.6 108.1 111.6z"/>
</g>
</g>
</g>
</svg>