<svg width="181" height="30" viewBox="0 0 181 30" fill="none" xmlns="http://www.w3.org/2000/svg">
<path d="M0.531679 13.5245H6.57628V19.4974H0.531679V13.5245Z" fill="#B1B1B1"/>
<path d="M14.9239 23.1078C14.9239 25.003 15.2065 26.232 15.766 26.7988C16.2431 27.2815 17.0518 27.5776 18.1872 27.6913C18.5239 27.7199 19.0983 27.7324 19.9103 27.7324V29.391H5.35055V27.7324C6.51863 27.7324 7.38448 27.6755 7.9403 27.5662C9.06865 27.3303 9.78041 26.6821 10.0734 25.6167C10.223 25.0635 10.3025 24.2282 10.3025 23.1081V1.41058C7.82965 1.48065 5.8982 2.28921 4.50252 3.83736C3.17738 5.31727 2.36982 7.58666 2.07799 10.6426L0.5 10.3763L0.794062 0H24.4679L24.762 10.3763L23.1874 10.6426C22.8933 7.58666 22.0809 5.31727 20.7502 3.83736C19.3471 2.28884 17.4071 1.48065 14.925 1.41058V23.1078H14.9239Z" fill="#B1B1B1"/>
<path d="M18.7708 13.5251H24.8143V19.4979H18.7708V13.5251ZM36.9027 13.5251H42.9477V19.4979H36.9027V13.5251ZM77.6109 29.3903H76.2898L68.7333 3.64955V22.2105C68.7333 24.0671 68.8043 25.2605 68.9439 25.8009C69.3623 27.2805 70.3503 28.0186 71.9012 28.0186H72.4689V29.3899H63.5902V28.0186H64.2816C64.9395 28.0186 65.5195 27.8007 66.0266 27.3564C66.4993 26.9411 66.8082 26.3138 66.9489 25.4685C67.0447 24.8342 67.0952 23.7465 67.0952 22.2094V5.80632C67.0952 4.82643 67.0536 4.18333 66.9705 3.8781C66.8012 3.20161 66.4284 2.77349 65.857 2.59005C65.5195 2.4811 65.0297 2.42497 64.3859 2.42497H63.5899V1.07712H71.9004L78.0319 21.9052L84.2885 1.07712H92.6681V2.42497H92.08C90.9999 2.42497 90.2436 2.64839 89.81 3.09082C89.5181 3.36963 89.3399 3.753 89.285 4.24973C89.2025 4.87523 89.1569 5.66251 89.1569 6.61708V23.8507C89.1569 25.2884 89.2337 26.2452 89.3882 26.7162C89.6993 27.5861 90.5963 28.0197 92.08 28.0197H92.6681V29.391H81.8926V28.0197H82.2516C83.3276 28.0197 84.0891 27.8084 84.5388 27.3799C84.8339 27.1003 85.0081 26.7093 85.063 26.196C85.1492 25.5892 85.1885 24.8082 85.1885 23.8507V3.64955L77.6109 29.3903ZM101.826 9.246C104.507 9.246 106.679 10.2901 108.348 12.3779C109.805 14.2048 110.537 16.607 110.537 19.5812C110.537 22.5968 109.806 25.0254 108.348 26.8681C106.692 28.9552 104.477 30 101.702 30C99.0799 30 96.9387 28.9552 95.2835 26.8681C93.8258 25.0254 93.0981 22.6122 93.0981 19.6219C93.0981 16.6188 93.8258 14.2048 95.2835 12.3779C96.9547 10.2904 99.1345 9.246 101.826 9.246ZM101.826 10.6114C100.846 10.6114 99.9688 11.0073 99.1984 11.7935C97.92 13.094 97.284 15.6363 97.284 19.4154C97.284 22.5436 97.6765 24.9116 98.4614 26.5156C99.1627 27.9272 100.284 28.6342 101.826 28.6342C104.842 28.6342 106.351 25.601 106.351 19.5372C106.351 16.7428 106.021 14.6198 105.359 13.167C104.955 12.2649 104.36 11.5756 103.575 11.088C103.048 10.773 102.442 10.6081 101.826 10.6114ZM117.697 12.6134C118.063 11.7935 118.531 11.1566 119.105 10.6947C120.165 9.84728 121.398 9.42319 122.796 9.42319C124.868 9.42319 126.567 10.1496 127.897 11.6031C129.617 13.4979 130.474 16.0494 130.474 19.2602C130.474 22.3161 129.708 24.8775 128.168 26.9371C126.724 28.8587 124.826 29.821 122.477 29.821C121.203 29.821 120.037 29.482 118.97 28.8059C118.749 28.6679 118.273 28.3014 117.543 27.7071C117.265 27.4852 117.019 27.3769 116.809 27.3769C116.557 27.3769 116.277 27.5985 115.969 28.0391C115.654 28.4802 115.353 28.931 115.066 29.3906H113.636C113.777 28.9875 113.851 28.7464 113.867 28.6628C113.993 28.0975 114.054 26.9444 114.054 25.2018V5.76926C114.054 4.23542 113.881 3.27975 113.532 2.90775C113.235 2.56107 112.684 2.38718 111.872 2.38718H111.556V1.08043L117.694 0.790239V12.6134H117.697ZM122.222 10.9347C121.283 10.9347 120.409 11.2938 119.6 12.0114C118.089 13.3809 117.334 15.8491 117.334 19.4234C117.334 22.1874 117.691 24.3203 118.403 25.8262C118.781 26.6267 119.325 27.2629 120.039 27.7313C120.626 28.1165 121.291 28.3088 122.033 28.3088C124.872 28.3088 126.288 25.3214 126.288 19.342C126.288 16.6081 125.935 14.4976 125.22 13.0056C124.549 11.624 123.552 10.9347 122.222 10.9347ZM138.44 9.56076V24.6398C138.44 26.2019 138.617 27.1777 138.968 27.5633C139.26 27.9085 139.812 28.0821 140.626 28.0821H141.317V29.3903H131.924V28.0821H132.618C133.429 28.0821 133.98 27.9085 134.277 27.5633C134.627 27.1642 134.801 26.1887 134.801 24.6398V14.56C134.801 13.0247 134.627 12.0642 134.277 11.6768C133.98 11.3444 133.429 11.1779 132.618 11.1779H132.133V9.85168L138.44 9.56076ZM136.319 0.862511C136.946 0.862511 137.484 1.0918 137.931 1.54634C138.392 2.00381 138.625 2.5475 138.625 3.18217C138.625 3.81904 138.402 4.36309 137.952 4.81983C137.49 5.27584 136.934 5.50182 136.275 5.50182C135.617 5.50182 135.067 5.27547 134.62 4.81983C134.159 4.36309 133.925 3.81867 133.925 3.18217C133.925 2.51998 134.162 1.96676 134.639 1.52689C135.1 1.08446 135.66 0.862511 136.319 0.862511ZM149.321 0.782535V24.6372C149.321 26.1883 149.495 27.1616 149.848 27.563C150.158 27.9082 150.707 28.0817 151.507 28.0817H152.2V29.3884H142.804V28.0817H143.502C144.31 28.0817 144.863 27.9082 145.155 27.563C145.505 27.1616 145.682 26.1883 145.682 24.6372V5.781C145.682 4.24753 145.505 3.28599 145.155 2.89785C144.863 2.55337 144.31 2.37984 143.502 2.37984H143.017V1.07272L149.321 0.782535ZM169.276 19.4979H157.517C157.531 22.235 157.818 24.2557 158.377 25.5698C159.162 27.4213 160.507 28.344 162.409 28.344C163.893 28.344 165.132 27.764 166.126 26.6007C166.669 25.9678 167.217 25.0874 167.76 23.9666L169.044 24.6303C167.233 28.213 164.8 30 161.726 30C159.474 30 157.622 29.2391 156.181 27.7178C154.382 25.8218 153.488 23.0825 153.488 19.4979C153.488 16.2039 154.382 13.5709 156.181 11.5895C157.597 10.0274 159.296 9.24233 161.287 9.24233C164.243 9.24233 166.466 10.7149 167.947 13.6538C168.751 15.2203 169.189 17.1669 169.276 19.4979ZM165.306 17.9861C165.306 16.26 165.116 14.8377 164.738 13.7177C164.056 11.7428 162.976 10.7556 161.505 10.7556C159.853 10.7556 158.686 11.9703 158.004 14.404C157.724 15.3821 157.574 16.5755 157.562 17.9861H165.306ZM55.0317 13.5251H61.0755V19.4979H55.0317V13.5251ZM174.457 13.5251H180.5V19.4979H174.457V13.5251Z" fill="#B1B1B1"/>
</svg>
