<svg width="200" height="160" viewBox="0 0 200 160" fill="none" xmlns="http://www.w3.org/2000/svg">
<rect width="200" height="160" rx="4" fill="white"/>
<rect x="31.5771" y="65.0742" width="56.9901" height="29.852" rx="14.926" fill="#00695C"/>
<circle cx="73.6409" cy="80.0003" r="12.2122" fill="white"/>
<path d="M109.241 83.4717C109.241 83.1494 109.191 82.863 109.091 82.6123C108.998 82.3617 108.829 82.1325 108.586 81.9248C108.342 81.7171 107.999 81.5166 107.555 81.3232C107.118 81.1227 106.559 80.9186 105.879 80.7109C105.134 80.4818 104.447 80.2275 103.816 79.9482C103.193 79.6618 102.649 79.3324 102.184 78.96C101.718 78.5804 101.356 78.1471 101.099 77.6602C100.841 77.166 100.712 76.5967 100.712 75.9521C100.712 75.3148 100.844 74.7347 101.109 74.2119C101.382 73.6891 101.765 73.238 102.259 72.8584C102.76 72.4717 103.351 72.1745 104.031 71.9668C104.712 71.752 105.464 71.6445 106.287 71.6445C107.447 71.6445 108.446 71.8594 109.284 72.2891C110.129 72.7188 110.777 73.2952 111.229 74.0186C111.687 74.7419 111.916 75.5404 111.916 76.4141H109.241C109.241 75.8984 109.13 75.4437 108.908 75.0498C108.693 74.6488 108.364 74.3337 107.92 74.1045C107.483 73.8753 106.928 73.7607 106.255 73.7607C105.618 73.7607 105.088 73.8574 104.665 74.0508C104.243 74.2441 103.927 74.5055 103.72 74.835C103.512 75.1644 103.408 75.5368 103.408 75.9521C103.408 76.2458 103.476 76.5143 103.612 76.7578C103.748 76.9941 103.956 77.2161 104.235 77.4238C104.515 77.6243 104.866 77.8141 105.288 77.9932C105.711 78.1722 106.208 78.3441 106.781 78.5088C107.648 78.7666 108.403 79.0531 109.048 79.3682C109.692 79.6761 110.229 80.027 110.659 80.4209C111.089 80.8148 111.411 81.2624 111.626 81.7637C111.841 82.2578 111.948 82.82 111.948 83.4502C111.948 84.109 111.816 84.7035 111.551 85.2334C111.286 85.7562 110.906 86.2038 110.412 86.5762C109.925 86.9414 109.338 87.2243 108.65 87.4248C107.97 87.6182 107.211 87.7148 106.373 87.7148C105.621 87.7148 104.88 87.6146 104.149 87.4141C103.426 87.2135 102.767 86.9092 102.173 86.501C101.578 86.0856 101.106 85.57 100.755 84.9541C100.404 84.3311 100.229 83.6042 100.229 82.7734H102.925C102.925 83.2819 103.011 83.7152 103.183 84.0732C103.362 84.4313 103.609 84.7249 103.924 84.9541C104.239 85.1761 104.604 85.3408 105.02 85.4482C105.442 85.5557 105.893 85.6094 106.373 85.6094C107.003 85.6094 107.53 85.5199 107.952 85.3408C108.382 85.1618 108.704 84.9111 108.919 84.5889C109.134 84.2666 109.241 83.8942 109.241 83.4717ZM117.577 84.9219L120.263 75.877H121.917L121.466 78.584L118.759 87.5H117.276L117.577 84.9219ZM115.998 75.877L118.093 84.9648L118.265 87.5H116.61L113.463 75.877H115.998ZM124.431 84.8574L126.461 75.877H128.985L125.849 87.5H124.194L124.431 84.8574ZM122.196 75.877L124.85 84.8145L125.183 87.5H123.7L120.961 78.5732L120.51 75.877H122.196ZM133.862 75.877V87.5H131.263V75.877H133.862ZM131.091 72.8262C131.091 72.4323 131.22 72.1064 131.478 71.8486C131.743 71.5837 132.108 71.4512 132.573 71.4512C133.032 71.4512 133.393 71.5837 133.658 71.8486C133.923 72.1064 134.056 72.4323 134.056 72.8262C134.056 73.2129 133.923 73.5352 133.658 73.793C133.393 74.0508 133.032 74.1797 132.573 74.1797C132.108 74.1797 131.743 74.0508 131.478 73.793C131.22 73.5352 131.091 73.2129 131.091 72.8262ZM142.37 75.877V77.7676H135.817V75.877H142.37ZM137.708 73.0303H140.297V84.2881C140.297 84.6462 140.347 84.9219 140.447 85.1152C140.555 85.3014 140.701 85.4268 140.888 85.4912C141.074 85.5557 141.292 85.5879 141.543 85.5879C141.722 85.5879 141.894 85.5771 142.059 85.5557C142.223 85.5342 142.356 85.5127 142.456 85.4912L142.467 87.4678C142.252 87.5322 142.001 87.5895 141.715 87.6396C141.436 87.6898 141.113 87.7148 140.748 87.7148C140.154 87.7148 139.627 87.611 139.169 87.4033C138.711 87.1885 138.353 86.8411 138.095 86.3613C137.837 85.8815 137.708 85.2441 137.708 84.4492V73.0303ZM149.46 85.6523C149.882 85.6523 150.262 85.57 150.599 85.4053C150.942 85.2334 151.218 84.9971 151.426 84.6963C151.641 84.3955 151.759 84.0482 151.78 83.6543H154.219C154.204 84.4062 153.982 85.0902 153.553 85.7061C153.123 86.3219 152.554 86.8125 151.845 87.1777C151.136 87.5358 150.352 87.7148 149.492 87.7148C148.604 87.7148 147.831 87.5645 147.172 87.2637C146.513 86.9557 145.965 86.5332 145.528 85.9961C145.091 85.459 144.762 84.8395 144.54 84.1377C144.325 83.4359 144.218 82.6839 144.218 81.8818V81.5059C144.218 80.7038 144.325 79.9518 144.54 79.25C144.762 78.541 145.091 77.918 145.528 77.3809C145.965 76.8438 146.513 76.4248 147.172 76.124C147.831 75.8161 148.601 75.6621 149.481 75.6621C150.412 75.6621 151.229 75.8483 151.931 76.2207C152.632 76.5859 153.184 77.098 153.585 77.7568C153.993 78.4085 154.204 79.1676 154.219 80.0342H151.78C151.759 79.6045 151.651 79.2178 151.458 78.874C151.272 78.5231 151.007 78.2438 150.663 78.0361C150.326 77.8285 149.922 77.7246 149.449 77.7246C148.926 77.7246 148.493 77.832 148.149 78.0469C147.806 78.2546 147.537 78.541 147.344 78.9062C147.15 79.2643 147.011 79.6689 146.925 80.1201C146.846 80.5641 146.807 81.026 146.807 81.5059V81.8818C146.807 82.3617 146.846 82.8271 146.925 83.2783C147.004 83.7295 147.14 84.1341 147.333 84.4922C147.534 84.8431 147.806 85.126 148.149 85.3408C148.493 85.5485 148.93 85.6523 149.46 85.6523ZM159.106 71V87.5H156.528V71H159.106ZM158.655 81.2588L157.817 81.248C157.825 80.446 157.936 79.7048 158.15 79.0244C158.372 78.3441 158.68 77.7533 159.074 77.252C159.475 76.7435 159.955 76.3532 160.514 76.0811C161.072 75.8018 161.692 75.6621 162.372 75.6621C162.945 75.6621 163.461 75.7409 163.919 75.8984C164.384 76.056 164.785 76.3102 165.122 76.6611C165.459 77.0049 165.713 77.4561 165.885 78.0146C166.064 78.5661 166.153 79.2393 166.153 80.0342V87.5H163.554V80.0127C163.554 79.4541 163.471 79.0101 163.307 78.6807C163.149 78.3512 162.916 78.1149 162.608 77.9717C162.3 77.8213 161.924 77.7461 161.48 77.7461C161.015 77.7461 160.603 77.8392 160.245 78.0254C159.894 78.2116 159.601 78.4658 159.364 78.7881C159.128 79.1104 158.949 79.4827 158.827 79.9053C158.713 80.3278 158.655 80.779 158.655 81.2588Z" fill="black" fill-opacity="0.76"/>
</svg>
