<svg width="200" height="160" viewBox="0 0 200 160" fill="none" xmlns="http://www.w3.org/2000/svg">
<path d="M90.5064 60.918V63.168H78.2017L78.108 61.4688L85.4673 49.9375H87.7291L85.2798 54.1328L81.0494 60.918H90.5064ZM88.3736 49.9375V67H85.5494V49.9375H88.3736ZM103.609 62.3477C103.609 63.4102 103.363 64.3047 102.871 65.0312C102.379 65.7578 101.707 66.3086 100.855 66.6836C100.012 67.0508 99.0586 67.2344 97.9961 67.2344C96.9336 67.2344 95.9766 67.0508 95.125 66.6836C94.2734 66.3086 93.6016 65.7578 93.1094 65.0312C92.6172 64.3047 92.3711 63.4102 92.3711 62.3477C92.3711 61.6445 92.5078 61.0078 92.7813 60.4375C93.0547 59.8594 93.4414 59.3633 93.9414 58.9492C94.4492 58.5273 95.043 58.2031 95.7227 57.9766C96.4102 57.75 97.1602 57.6367 97.9727 57.6367C99.0508 57.6367 100.016 57.8359 100.867 58.2344C101.719 58.6328 102.387 59.1836 102.871 59.8867C103.363 60.5898 103.609 61.4102 103.609 62.3477ZM100.773 62.207C100.773 61.6367 100.656 61.1367 100.422 60.707C100.188 60.2773 99.8594 59.9453 99.4375 59.7109C99.0156 59.4766 98.5273 59.3594 97.9727 59.3594C97.4102 59.3594 96.9219 59.4766 96.5078 59.7109C96.0938 59.9453 95.7695 60.2773 95.5352 60.707C95.3086 61.1367 95.1953 61.6367 95.1953 62.207C95.1953 62.7852 95.3086 63.2852 95.5352 63.707C95.7617 64.1211 96.0859 64.4375 96.5078 64.6562C96.9297 64.875 97.4258 64.9844 97.9961 64.9844C98.5664 64.9844 99.0586 64.875 99.4727 64.6562C99.8867 64.4375 100.207 64.1211 100.434 63.707C100.66 63.2852 100.773 62.7852 100.773 62.207ZM103.223 54.4258C103.223 55.2773 102.996 56.0352 102.543 56.6992C102.098 57.3633 101.48 57.8867 100.691 58.2695C99.9023 58.6445 99.0039 58.832 97.9961 58.832C96.9805 58.832 96.0742 58.6445 95.2773 58.2695C94.4883 57.8867 93.8672 57.3633 93.4141 56.6992C92.9688 56.0352 92.7461 55.2773 92.7461 54.4258C92.7461 53.4102 92.9688 52.5547 93.4141 51.8594C93.8672 51.1562 94.4883 50.6211 95.2773 50.2539C96.0664 49.8867 96.9688 49.7031 97.9844 49.7031C99 49.7031 99.9023 49.8867 100.691 50.2539C101.48 50.6211 102.098 51.1562 102.543 51.8594C102.996 52.5547 103.223 53.4102 103.223 54.4258ZM100.398 54.5195C100.398 54.0117 100.297 53.5664 100.094 53.1836C99.8984 52.793 99.6211 52.4883 99.2617 52.2695C98.9023 52.0508 98.4766 51.9414 97.9844 51.9414C97.4922 51.9414 97.0664 52.0469 96.707 52.2578C96.3477 52.4688 96.0703 52.7656 95.875 53.1484C95.6797 53.5312 95.582 53.9883 95.582 54.5195C95.582 55.043 95.6797 55.5 95.875 55.8906C96.0703 56.2734 96.3477 56.5742 96.707 56.793C97.0742 57.0117 97.5039 57.1211 97.9961 57.1211C98.4883 57.1211 98.9141 57.0117 99.2734 56.793C99.6328 56.5742 99.9102 56.2734 100.105 55.8906C100.301 55.5 100.398 55.043 100.398 54.5195ZM106.037 54.1211V53.2188C106.037 52.5703 106.177 51.9805 106.458 51.4492C106.74 50.918 107.15 50.4922 107.689 50.1719C108.228 49.8516 108.876 49.6914 109.634 49.6914C110.415 49.6914 111.072 49.8516 111.603 50.1719C112.142 50.4922 112.552 50.918 112.833 51.4492C113.115 51.9805 113.255 52.5703 113.255 53.2188V54.1211C113.255 54.7539 113.115 55.3359 112.833 55.8672C112.56 56.3984 112.154 56.8242 111.615 57.1445C111.083 57.4648 110.431 57.625 109.658 57.625C108.892 57.625 108.236 57.4648 107.689 57.1445C107.15 56.8242 106.74 56.3984 106.458 55.8672C106.177 55.3359 106.037 54.7539 106.037 54.1211ZM107.994 53.2188V54.1211C107.994 54.4336 108.052 54.7305 108.169 55.0117C108.294 55.293 108.482 55.5195 108.732 55.6914C108.982 55.8633 109.29 55.9492 109.658 55.9492C110.033 55.9492 110.337 55.8633 110.572 55.6914C110.814 55.5195 110.994 55.293 111.111 55.0117C111.228 54.7305 111.287 54.4336 111.287 54.1211V53.2188C111.287 52.8984 111.224 52.5977 111.099 52.3164C110.982 52.0273 110.802 51.7969 110.56 51.625C110.318 51.4531 110.009 51.3672 109.634 51.3672C109.275 51.3672 108.97 51.4531 108.72 51.625C108.478 51.7969 108.294 52.0273 108.169 52.3164C108.052 52.5977 107.994 52.8984 107.994 53.2188ZM114.263 63.7305V62.8164C114.263 62.1758 114.404 61.5898 114.685 61.0586C114.974 60.5273 115.388 60.1016 115.927 59.7812C116.466 59.4609 117.115 59.3008 117.873 59.3008C118.654 59.3008 119.31 59.4609 119.841 59.7812C120.38 60.1016 120.787 60.5273 121.06 61.0586C121.341 61.5898 121.482 62.1758 121.482 62.8164V63.7305C121.482 64.3711 121.341 64.957 121.06 65.4883C120.787 66.0195 120.384 66.4453 119.853 66.7656C119.322 67.0859 118.673 67.2461 117.908 67.2461C117.134 67.2461 116.474 67.0859 115.927 66.7656C115.388 66.4453 114.974 66.0195 114.685 65.4883C114.404 64.957 114.263 64.3711 114.263 63.7305ZM116.232 62.8164V63.7305C116.232 64.043 116.294 64.3398 116.419 64.6211C116.552 64.9023 116.744 65.1328 116.994 65.3125C117.244 65.4844 117.544 65.5703 117.896 65.5703C118.294 65.5703 118.615 65.4844 118.857 65.3125C119.099 65.1328 119.271 64.9062 119.373 64.6328C119.482 64.3516 119.537 64.0508 119.537 63.7305V62.8164C119.537 62.4961 119.474 62.1953 119.349 61.9141C119.232 61.6328 119.048 61.4062 118.798 61.2344C118.556 61.0625 118.248 60.9766 117.873 60.9766C117.505 60.9766 117.201 61.0625 116.958 61.2344C116.716 61.4062 116.533 61.6328 116.408 61.9141C116.29 62.1953 116.232 62.4961 116.232 62.8164ZM118.576 52.375L110.244 65.7109L108.802 64.8789L117.134 51.543L118.576 52.375Z" fill="black" fill-opacity="0.87"/>
<rect y="79" width="200" height="8" rx="2.70174" fill="#00695C" fill-opacity="0.2"/>
<circle cx="2.91946" cy="83" r="0.568878" fill="#00695C" fill-opacity="0.82"/>
<circle cx="18.2525" cy="83" r="0.568878" fill="#00695C" fill-opacity="0.82"/>
<circle cx="33.5845" cy="83" r="0.568878" fill="#00695C" fill-opacity="0.82"/>
<circle cx="48.9165" cy="83" r="0.568878" fill="#00695C" fill-opacity="0.82"/>
<circle cx="64.2486" cy="83" r="0.568878" fill="#00695C" fill-opacity="0.82"/>
<circle cx="79.5806" cy="83" r="0.568878" fill="#00695C" fill-opacity="0.82"/>
<circle cx="94.9136" cy="83" r="0.568878" fill="#00695C" fill-opacity="0.82"/>
<circle cx="110.677" cy="83" r="1" fill="#00695C" fill-opacity="0.82"/>
<circle cx="126.871" cy="83" r="1" fill="#00695C" fill-opacity="0.82"/>
<circle cx="143.065" cy="83" r="1" fill="#00695C" fill-opacity="0.82"/>
<circle cx="159.26" cy="83" r="1" fill="#00695C" fill-opacity="0.82"/>
<circle cx="175.455" cy="83" r="1" fill="#00695C" fill-opacity="0.82"/>
<circle cx="191.649" cy="83" r="1" fill="#00695C" fill-opacity="0.82"/>
<rect y="79" width="101" height="8" rx="2.70174" fill="#00695C"/>
<path d="M5.55908 95.4668V96.6592C5.55908 97.3001 5.50179 97.8408 5.38721 98.2812C5.27262 98.7217 5.10791 99.0762 4.89307 99.3447C4.67822 99.6133 4.41862 99.8084 4.11426 99.9302C3.81348 100.048 3.47331 100.107 3.09375 100.107C2.79297 100.107 2.51546 100.07 2.26123 99.9946C2.007 99.9194 1.77783 99.7995 1.57373 99.6348C1.37321 99.4665 1.20133 99.248 1.05811 98.9795C0.914876 98.7109 0.805664 98.3851 0.730469 98.002C0.655273 97.6188 0.617676 97.1712 0.617676 96.6592V95.4668C0.617676 94.8258 0.674967 94.2887 0.789551 93.8555C0.907715 93.4222 1.07422 93.0749 1.28906 92.8135C1.50391 92.5485 1.76172 92.3587 2.0625 92.2441C2.36686 92.1296 2.70703 92.0723 3.08301 92.0723C3.38737 92.0723 3.66667 92.1099 3.9209 92.1851C4.17871 92.2567 4.40788 92.373 4.6084 92.5342C4.80892 92.6917 4.979 92.903 5.11865 93.168C5.26188 93.4294 5.37109 93.7498 5.44629 94.1294C5.52148 94.509 5.55908 94.9548 5.55908 95.4668ZM4.56006 96.8203V95.3003C4.56006 94.9494 4.53857 94.6414 4.49561 94.3765C4.45622 94.1079 4.39714 93.8787 4.31836 93.689C4.23958 93.4992 4.13932 93.3452 4.01758 93.2271C3.89941 93.1089 3.76156 93.0229 3.604 92.9692C3.45003 92.9119 3.27637 92.8833 3.08301 92.8833C2.84668 92.8833 2.63721 92.9281 2.45459 93.0176C2.27197 93.1035 2.118 93.2414 1.99268 93.4312C1.87093 93.6209 1.77783 93.8698 1.71338 94.1777C1.64893 94.4857 1.6167 94.8599 1.6167 95.3003V96.8203C1.6167 97.1712 1.63639 97.481 1.67578 97.7495C1.71875 98.0181 1.78141 98.2508 1.86377 98.4478C1.94613 98.6411 2.04639 98.8005 2.16455 98.9258C2.28271 99.0511 2.41878 99.1442 2.57275 99.2051C2.73031 99.2624 2.90397 99.291 3.09375 99.291C3.33724 99.291 3.55029 99.2445 3.73291 99.1514C3.91553 99.0583 4.06771 98.9132 4.18945 98.7163C4.31478 98.5158 4.40788 98.2598 4.46875 97.9482C4.52962 97.6331 4.56006 97.2572 4.56006 96.8203Z" fill="black" fill-opacity="0.54"/>
<path d="M184.853 92.1367V100H183.859V93.3774L181.856 94.1079V93.2109L184.697 92.1367H184.853ZM192.934 95.4668V96.6592C192.934 97.3001 192.877 97.8408 192.762 98.2812C192.648 98.7217 192.483 99.0762 192.268 99.3447C192.053 99.6133 191.794 99.8084 191.489 99.9302C191.188 100.048 190.848 100.107 190.469 100.107C190.168 100.107 189.89 100.07 189.636 99.9946C189.382 99.9194 189.153 99.7995 188.949 99.6348C188.748 99.4665 188.576 99.248 188.433 98.9795C188.29 98.7109 188.181 98.3851 188.105 98.002C188.03 97.6188 187.993 97.1712 187.993 96.6592V95.4668C187.993 94.8258 188.05 94.2887 188.165 93.8555C188.283 93.4222 188.449 93.0749 188.664 92.8135C188.879 92.5485 189.137 92.3587 189.438 92.2441C189.742 92.1296 190.082 92.0723 190.458 92.0723C190.762 92.0723 191.042 92.1099 191.296 92.1851C191.554 92.2567 191.783 92.373 191.983 92.5342C192.184 92.6917 192.354 92.903 192.494 93.168C192.637 93.4294 192.746 93.7498 192.821 94.1294C192.896 94.509 192.934 94.9548 192.934 95.4668ZM191.935 96.8203V95.3003C191.935 94.9494 191.914 94.6414 191.871 94.3765C191.831 94.1079 191.772 93.8787 191.693 93.689C191.615 93.4992 191.514 93.3452 191.393 93.2271C191.274 93.1089 191.137 93.0229 190.979 92.9692C190.825 92.9119 190.651 92.8833 190.458 92.8833C190.222 92.8833 190.012 92.9281 189.83 93.0176C189.647 93.1035 189.493 93.2414 189.368 93.4312C189.246 93.6209 189.153 93.8698 189.088 94.1777C189.024 94.4857 188.992 94.8599 188.992 95.3003V96.8203C188.992 97.1712 189.011 97.481 189.051 97.7495C189.094 98.0181 189.156 98.2508 189.239 98.4478C189.321 98.6411 189.421 98.8005 189.54 98.9258C189.658 99.0511 189.794 99.1442 189.948 99.2051C190.105 99.2624 190.279 99.291 190.469 99.291C190.712 99.291 190.925 99.2445 191.108 99.1514C191.291 99.0583 191.443 98.9132 191.564 98.7163C191.69 98.5158 191.783 98.2598 191.844 97.9482C191.905 97.6331 191.935 97.2572 191.935 96.8203ZM199.372 95.4668V96.6592C199.372 97.3001 199.314 97.8408 199.2 98.2812C199.085 98.7217 198.92 99.0762 198.706 99.3447C198.491 99.6133 198.231 99.8084 197.927 99.9302C197.626 100.048 197.286 100.107 196.906 100.107C196.605 100.107 196.328 100.07 196.074 99.9946C195.819 99.9194 195.59 99.7995 195.386 99.6348C195.186 99.4665 195.014 99.248 194.871 98.9795C194.727 98.7109 194.618 98.3851 194.543 98.002C194.468 97.6188 194.43 97.1712 194.43 96.6592V95.4668C194.43 94.8258 194.487 94.2887 194.602 93.8555C194.72 93.4222 194.887 93.0749 195.102 92.8135C195.316 92.5485 195.574 92.3587 195.875 92.2441C196.179 92.1296 196.52 92.0723 196.896 92.0723C197.2 92.0723 197.479 92.1099 197.733 92.1851C197.991 92.2567 198.22 92.373 198.421 92.5342C198.621 92.6917 198.792 92.903 198.931 93.168C199.074 93.4294 199.184 93.7498 199.259 94.1294C199.334 94.509 199.372 94.9548 199.372 95.4668ZM198.373 96.8203V95.3003C198.373 94.9494 198.351 94.6414 198.308 94.3765C198.269 94.1079 198.21 93.8787 198.131 93.689C198.052 93.4992 197.952 93.3452 197.83 93.2271C197.712 93.1089 197.574 93.0229 197.417 92.9692C197.263 92.9119 197.089 92.8833 196.896 92.8833C196.659 92.8833 196.45 92.9281 196.267 93.0176C196.084 93.1035 195.931 93.2414 195.805 93.4312C195.683 93.6209 195.59 93.8698 195.526 94.1777C195.461 94.4857 195.429 94.8599 195.429 95.3003V96.8203C195.429 97.1712 195.449 97.481 195.488 97.7495C195.531 98.0181 195.594 98.2508 195.676 98.4478C195.759 98.6411 195.859 98.8005 195.977 98.9258C196.095 99.0511 196.231 99.1442 196.385 99.2051C196.543 99.2624 196.716 99.291 196.906 99.291C197.15 99.291 197.363 99.2445 197.545 99.1514C197.728 99.0583 197.88 98.9132 198.002 98.7163C198.127 98.5158 198.22 98.2598 198.281 97.9482C198.342 97.6331 198.373 97.2572 198.373 96.8203Z" fill="black" fill-opacity="0.54"/>
<circle cx="100" cy="83" r="8" fill="#00695C"/>
</svg>
