<?xml version="1.0" encoding="UTF-8"?>
<svg width="200" height="160" fill="none" version="1.1" xmlns="http://www.w3.org/2000/svg">
 <rect x=".38" y="58.2" width="199.25" height="43.61" rx="2.63" stroke="#00695C" stroke-width=".75"/>
 <rect x="3.01" y="60.83" width="96.99" height="38.35" rx="1.5" fill="#00695C"/>
 <path d="M29.28 75.52V83H28v-7.48h1.28zm2.35 0v1.02h-5.96v-1.02h5.96zm1.92 2.98V83h-1.23v-5.56h1.18l.05 1.06zm1.7-1.1v1.15a2.44 2.44 0 0 0-1.07.06 1.06 1.06 0 0 0-.65.65c-.06.16-.1.34-.1.53l-.29.02c0-.35.04-.67.1-.97.07-.3.18-.56.31-.78.14-.23.32-.4.53-.53a1.4 1.4 0 0 1 .98-.17l.2.04zm3.92 4.48v-2.65c0-.2-.04-.37-.1-.51a.76.76 0 0 0-.34-.34 1.12 1.12 0 0 0-.54-.11c-.2 0-.38.03-.53.1a.85.85 0 0 0-.34.28.67.67 0 0 0-.12.4h-1.24c0-.23.06-.44.16-.65.1-.2.26-.38.46-.55.2-.16.45-.28.73-.38.28-.09.6-.13.94-.13.42 0 .8.07 1.12.2.32.15.58.36.76.64.19.28.28.64.28 1.06v2.47c0 .26.02.49.06.69.03.2.09.37.15.52V83h-1.27a2.2 2.2 0 0 1-.13-.5c-.03-.22-.05-.42-.05-.62zm.18-2.26.01.76h-.89c-.23 0-.43.03-.6.07-.18.04-.33.1-.44.19s-.2.18-.26.3a.87.87 0 0 0-.1.39c0 .15.04.28.11.4.07.13.17.22.3.29.13.07.3.1.48.1a1.36 1.36 0 0 0 1.12-.54c.1-.15.17-.3.17-.44l.4.55c-.04.14-.1.3-.2.46-.1.16-.24.31-.4.46a1.94 1.94 0 0 1-1.33.5c-.36 0-.69-.08-.97-.22-.29-.15-.5-.35-.67-.6a1.77 1.77 0 0 1-.08-1.63c.12-.22.28-.42.5-.57.22-.15.48-.27.8-.35.31-.08.67-.12 1.08-.12h.97zm5.94 2.23V75.1h1.24V83h-1.12l-.12-1.15zm-3.62-1.57v-.1c0-.43.05-.81.15-1.16.1-.35.24-.65.43-.9a1.9 1.9 0 0 1 1.6-.78 1.84 1.84 0 0 1 1.53.76c.18.23.33.52.43.85.11.34.18.7.23 1.11v.35c-.05.4-.12.76-.23 1.09-.1.33-.25.61-.42.85a1.84 1.84 0 0 1-1.55.75 1.95 1.95 0 0 1-1.59-.8 2.79 2.79 0 0 1-.43-.9c-.1-.34-.15-.72-.15-1.12zm1.24-.1v.1c0 .25.02.5.07.71.04.22.12.41.22.58.1.17.22.3.38.4.16.08.36.13.58.13.28 0 .51-.06.7-.18s.32-.3.42-.5c.1-.22.18-.45.21-.71v-.93c-.02-.2-.06-.4-.12-.57a1.51 1.51 0 0 0-.26-.46 1.24 1.24 0 0 0-.95-.42c-.22 0-.41.05-.57.15-.15.1-.28.22-.39.4-.1.16-.17.36-.22.58s-.07.46-.07.71zm6.43-2.74V83H48.1v-5.56h1.24zm-1.32-1.46c0-.19.06-.35.18-.47a.7.7 0 0 1 .53-.19c.21 0 .39.06.51.2.13.11.2.27.2.46 0 .18-.07.34-.2.46a.71.71 0 0 1-.51.19.72.72 0 0 1-.53-.19.63.63 0 0 1-.18-.46zm5.42 1.46v.9H50.3v-.9h3.14zm-2.23-1.36h1.23v5.38c0 .17.03.3.08.4.05.09.12.15.2.18.1.03.2.04.32.04a1.9 1.9 0 0 0 .44-.04v.94a3.17 3.17 0 0 1-.82.12c-.28 0-.54-.05-.76-.15-.21-.1-.39-.27-.5-.5a1.94 1.94 0 0 1-.2-.91v-5.46zm4.7 1.36V83h-1.25v-5.56h1.25zm-1.33-1.46c0-.19.06-.35.19-.47a.7.7 0 0 1 .52-.19c.22 0 .4.06.52.2.13.11.19.27.19.46 0 .18-.06.34-.2.46a.71.71 0 0 1-.51.19.72.72 0 0 1-.52-.19.63.63 0 0 1-.19-.46zm2.63 4.3v-.12c0-.4.06-.77.18-1.11.12-.35.28-.65.5-.9.23-.26.5-.46.82-.6.32-.14.68-.21 1.09-.21.4 0 .77.07 1.08.21.33.14.6.34.82.6.22.25.4.55.51.9.12.34.18.71.18 1.11v.12c0 .4-.06.77-.18 1.12a2.36 2.36 0 0 1-2.4 1.7c-.41 0-.78-.07-1.1-.2a2.36 2.36 0 0 1-.81-.6c-.22-.26-.4-.56-.51-.9a3.44 3.44 0 0 1-.18-1.12zm1.24-.12v.12c0 .25.03.49.08.71.05.22.13.42.24.59.11.16.25.3.42.4.18.09.38.14.62.14a1.18 1.18 0 0 0 1.01-.54c.11-.17.2-.37.24-.59.06-.22.09-.46.09-.7v-.13c0-.24-.03-.48-.09-.7a1.8 1.8 0 0 0-.24-.59 1.18 1.18 0 0 0-1.02-.55c-.24 0-.44.05-.61.15-.17.1-.3.23-.42.4-.1.17-.19.37-.24.6-.05.21-.08.45-.08.7zm6.39-1.53V83H63.6v-5.56h1.17l.07 1.19zM64.62 80h-.4c0-.4.06-.76.16-1.09.11-.33.26-.6.46-.84a2 2 0 0 1 1.6-.74c.27 0 .5.03.72.1.22.08.4.2.56.36.16.17.28.38.36.65.09.26.13.58.13.96V83h-1.25v-3.6c0-.27-.04-.48-.12-.63a.66.66 0 0 0-.33-.33c-.14-.07-.32-.1-.54-.1a1.2 1.2 0 0 0-1 .5c-.1.15-.2.32-.26.53-.06.2-.1.41-.1.64zm8.17 1.87v-2.65c0-.2-.03-.37-.1-.51a.76.76 0 0 0-.33-.34 1.12 1.12 0 0 0-.55-.11c-.2 0-.37.03-.52.1a.85.85 0 0 0-.35.28.67.67 0 0 0-.12.4H69.6c0-.23.05-.44.16-.65.1-.2.26-.38.46-.55.2-.16.44-.28.72-.38.28-.09.6-.13.95-.13.42 0 .79.07 1.11.2.33.15.58.36.77.64.18.28.28.64.28 1.06v2.47c0 .26.02.49.05.69.04.2.09.37.16.52V83h-1.27a2.2 2.2 0 0 1-.14-.5c-.03-.22-.05-.42-.05-.62zm.18-2.26.01.76h-.88c-.23 0-.44.03-.61.07-.18.04-.32.1-.44.19s-.2.18-.26.3a.87.87 0 0 0-.09.39c0 .15.04.28.1.4.07.13.17.22.3.29.14.07.3.1.49.1a1.36 1.36 0 0 0 1.11-.54c.11-.15.17-.3.18-.44l.4.55a2.2 2.2 0 0 1-.6.91 1.94 1.94 0 0 1-1.34.5c-.36 0-.68-.07-.97-.21-.28-.15-.5-.35-.66-.6a1.77 1.77 0 0 1-.08-1.63c.11-.22.28-.42.5-.57.21-.15.48-.27.8-.35.3-.08.67-.12 1.07-.12h.97zm3.88-4.52V83H75.6v-7.9h1.25z" fill="#fff"/>
 <path d="M136.86 78.64v1.02h-3.97v-1.02h3.97zm-3.65-3.12V83h-1.3v-7.48h1.3zm4.64 0V83h-1.28v-7.48h1.28zm2.93 1.92V83h-1.24v-5.56h1.24zm-1.33-1.46c0-.19.07-.35.19-.47.13-.13.3-.19.52-.19.22 0 .4.06.52.2.13.11.2.27.2.46 0 .18-.07.34-.2.46a.71.71 0 0 1-.52.19.72.72 0 0 1-.52-.19.63.63 0 0 1-.19-.46zm5.37 3.33v.99h-2.72v-1h2.72zm4.24.9h-1.95v-1.02h1.94c.34 0 .62-.06.83-.17.2-.1.36-.26.46-.45.1-.2.14-.42.14-.67 0-.24-.05-.46-.14-.66-.1-.21-.25-.38-.46-.5s-.49-.2-.82-.2h-1.56V83h-1.29v-7.48h2.85c.57 0 1.07.1 1.47.3.4.2.72.49.93.85.21.35.32.76.32 1.22 0 .48-.1.9-.32 1.24-.21.35-.52.62-.93.8-.4.19-.9.28-1.47.28zm6.32 2.9c-.41 0-.78-.07-1.11-.2a2.46 2.46 0 0 1-1.38-1.44 3.01 3.01 0 0 1-.18-1.06v-.2c0-.44.06-.84.19-1.19.12-.35.3-.65.53-.9.22-.26.49-.45.8-.58.3-.14.64-.2 1-.2.4 0 .75.06 1.04.2.3.13.55.32.74.56.2.24.35.53.45.86.1.33.15.7.15 1.1v.53h-4.3v-.89h3.07v-.1c0-.22-.05-.43-.13-.62-.08-.2-.2-.36-.37-.48a1.1 1.1 0 0 0-.65-.18c-.21 0-.4.05-.55.14-.16.08-.3.2-.4.37s-.19.36-.25.6a3.4 3.4 0 0 0-.08.77v.2c0 .25.03.48.1.69.07.2.17.38.3.54a1.34 1.34 0 0 0 1.1.5c.3 0 .57-.07.8-.19s.43-.29.6-.5l.66.62a2.34 2.34 0 0 1-1.17.89c-.28.1-.6.15-.96.15zM160 78.5V83h-1.24v-5.56h1.19l.05 1.06zm1.7-1.1v1.15a2.47 2.47 0 0 0-1.07.06 1.05 1.05 0 0 0-.65.65c-.06.16-.1.34-.1.53l-.29.02c0-.35.04-.67.1-.97.07-.3.18-.56.31-.78.14-.23.32-.4.53-.53a1.4 1.4 0 0 1 .97-.17l.2.04zm2.74 5.6h-1.24v-6.1c0-.41.08-.76.23-1.04.16-.28.38-.5.67-.64a2.58 2.58 0 0 1 1.75-.13l-.03.96a1.04 1.04 0 0 0-.97.06.72.72 0 0 0-.31.3c-.07.13-.1.3-.1.5V83zm1.14-5.56v.9h-3.24v-.9h3.24z" fill="#000" fill-opacity=".76"/>
</svg>
