<svg width="285" height="210" fill="none" xmlns="http://www.w3.org/2000/svg"><path d="M106.75 115.467c0-45.425 36.825-82.25 82.25-82.25s82.25 36.825 82.25 82.25c0 45.426-36.825 82.25-82.25 82.25s-82.25-36.824-82.25-82.25Z" stroke="#3E9AF8" stroke-width="1.5"/><path d="M143 161.041h92" stroke="#3E9AF8" stroke-width="4.553" stroke-linecap="round"/><path d="M192.888 160.946h2.276v-60.512a6.828 6.828 0 0 0-6.828-6.828h-32.627a6.829 6.829 0 0 0-6.829 6.828v60.512H192.888Z" stroke="#3E9AF8" stroke-width="4.553"/><path d="M149.639 122.343h12.424m33.101-4.363 33.196 13.563v10.149" stroke="#3E9AF8" stroke-width="4.553" stroke-linecap="round" stroke-linejoin="round"/><path d="M149.639 129.078h22.857" stroke="#3E9AF8" stroke-width="4.553" stroke-linecap="round"/><path d="M188.905 93.416V76.723a4.552 4.552 0 0 0-4.552-4.553h-24.47a4.553 4.553 0 0 0-4.553 4.553v16.693" stroke="#3E9AF8" stroke-width="4.553"/><rect x="163.296" y="79.568" width="17.641" height="6.26" rx="2.276" stroke="#3E9AF8" stroke-width="3.794"/><path d="M217.359 160.946h2.277v-18.59a3.415 3.415 0 0 0-3.415-3.415h-8.725a3.415 3.415 0 0 0-3.415 3.415v18.59h13.278ZM217.359 125.663V97.968c0-.628-.509-1.138-1.138-1.138h-8.725c-.629 0-1.139.51-1.139 1.138v23.545" stroke="#3E9AF8" stroke-width="4.553"/><path d="M206.357 115.61h11.002m-11.002-9.485h11.002" stroke="#3E9AF8" stroke-width="4.553" stroke-linecap="round"/><path d="M230.637 151.651a2.277 2.277 0 1 1-4.554-.002 2.277 2.277 0 0 1 4.554.002Z" fill="#3E9AF8"/><path fill-rule="evenodd" clip-rule="evenodd" d="M207.41 70.017a2.276 2.276 0 0 1 2.89 1.418c1.557 4.561.687 8.013-.033 10.595-.756 2.71-.979 3.66-.215 4.832a2.276 2.276 0 1 1-3.813 2.486c-1.944-2.98-1.108-5.907-.485-8.09l.128-.451c.655-2.35 1.208-4.684.109-7.9a2.276 2.276 0 0 1 1.419-2.89ZM215.187 70.017a2.276 2.276 0 0 1 2.89 1.418c1.557 4.561.687 8.013-.033 10.595-.755 2.71-.979 3.66-.214 4.832a2.277 2.277 0 0 1-3.814 2.486c-1.944-2.98-1.108-5.907-.485-8.09l.128-.451c.655-2.35 1.208-4.684.11-7.9a2.277 2.277 0 0 1 1.418-2.89Z" fill="#3E9AF8"/><path d="M187.551.467v16" stroke="#3E9AF8" stroke-width="1.5"/><path transform="matrix(1 0 0 -1 21.23 111.178)" stroke="#3E9AF8" stroke-width="1.5" d="M0-.75h70.773"/><path d="M188.232 15.461a96.718 96.718 0 0 0-37.147 7.318 96.86 96.86 0 0 0-31.51 21.022 97.064 97.064 0 0 0-21.061 31.516 97.198 97.198 0 0 0-7.396 37.196h1.348a95.847 95.847 0 0 1 7.292-36.679 95.71 95.71 0 0 1 20.768-31.077 95.52 95.52 0 0 1 31.072-20.73 95.374 95.374 0 0 1 36.63-7.216l.004-1.35Z" fill="#3E9AF8"/><path d="M10.616 121.949c5.448 0 9.866-4.425 9.866-9.886 0-5.46-4.418-9.885-9.866-9.885-5.448 0-9.866 4.425-9.866 9.885 0 5.461 4.418 9.886 9.866 9.886Z" fill="#F4F8FE" stroke="#3E9AF8" stroke-width="1.5"/></svg>