<svg width="262" height="322" fill="none" xmlns="http://www.w3.org/2000/svg"><path d="M60.25 108c0-51.5 41.749-93.25 93.25-93.25S246.75 56.5 246.75 108c0 51.501-41.749 93.25-93.25 93.25S60.25 159.501 60.25 108Z" stroke="#3E9AF8" stroke-width="1.5"/><path d="M107.5 153.573h92" stroke="#3E9AF8" stroke-width="4.553" stroke-linecap="round"/><path d="M157.388 153.478h2.276V92.967a6.828 6.828 0 0 0-6.828-6.829h-32.627a6.829 6.829 0 0 0-6.829 6.83V153.477H157.388Z" stroke="#3E9AF8" stroke-width="4.553"/><path d="M114.14 114.876h12.424m33.101-4.363 33.196 13.563v10.149" stroke="#3E9AF8" stroke-width="4.553" stroke-linecap="round" stroke-linejoin="round"/><path d="M114.14 121.61h22.857" stroke="#3E9AF8" stroke-width="4.553" stroke-linecap="round"/><path d="M153.405 85.948V69.256a4.552 4.552 0 0 0-4.552-4.553h-24.47a4.553 4.553 0 0 0-4.553 4.553v16.692" stroke="#3E9AF8" stroke-width="4.553"/><rect x="127.796" y="72.101" width="17.641" height="6.26" rx="2.276" stroke="#3E9AF8" stroke-width="3.794"/><path d="M181.859 153.478h2.276v-18.589a3.415 3.415 0 0 0-3.415-3.415h-8.725a3.415 3.415 0 0 0-3.415 3.415v18.589h13.279ZM181.859 118.196V90.501c0-.629-.51-1.138-1.139-1.138h-8.725c-.629 0-1.139.51-1.139 1.138v23.545" stroke="#3E9AF8" stroke-width="4.553"/><path d="M170.856 108.142h11.003m-11.003-9.484h11.003" stroke="#3E9AF8" stroke-width="4.553" stroke-linecap="round"/><path d="M195.138 144.184a2.277 2.277 0 1 1-4.554-.002 2.277 2.277 0 0 1 4.554.002Z" fill="#3E9AF8"/><path fill-rule="evenodd" clip-rule="evenodd" d="M171.91 62.55a2.276 2.276 0 0 1 2.89 1.418c1.557 4.56.687 8.013-.033 10.594-.756 2.71-.979 3.66-.215 4.832a2.276 2.276 0 1 1-3.813 2.487c-1.944-2.98-1.108-5.907-.485-8.09l.128-.451c.655-2.35 1.208-4.684.109-7.9a2.276 2.276 0 0 1 1.419-2.89ZM179.687 62.55a2.276 2.276 0 0 1 2.89 1.418c1.557 4.56.687 8.013-.033 10.594-.755 2.71-.979 3.66-.214 4.832a2.277 2.277 0 0 1-3.814 2.487c-1.944-2.98-1.108-5.907-.485-8.09l.128-.451c.655-2.35 1.208-4.684.11-7.9a2.277 2.277 0 0 1 1.418-2.89Z" fill="#3E9AF8"/><path d="M.5 110h43M151.25 298v-80" stroke="#3E9AF8" stroke-width="1.5"/><mask id="a" fill="#fff"><path d="M42.5 109.256a109.505 109.505 0 0 0 67.539 101.385 109.503 109.503 0 0 0 41.96 8.359v-1.396A108.104 108.104 0 0 1 43.896 109.259l-1.396-.003Z"/></mask><path d="M42.5 109.256a109.505 109.505 0 0 0 67.539 101.385 109.503 109.503 0 0 0 41.96 8.359v-1.396A108.104 108.104 0 0 1 43.896 109.259l-1.396-.003Z" fill="#91A3BE" stroke="#3E9AF8" stroke-width="2" mask="url(#a)"/><circle cx="12" cy="12" r="11.25" transform="matrix(1 0 0 -1 139.5 322)" fill="#F4F8FE" stroke="#3E9AF8" stroke-width="1.5"/></svg>