<svg width="285" height="210" fill="none" xmlns="http://www.w3.org/2000/svg"><rect x="12.75" y="33.717" width="164.5" height="164.5" rx="82.25" stroke="#91A3BE" stroke-width="1.5"/><path d="M132.482 141.962a2.152 2.152 0 1 1-4.304 0 2.152 2.152 0 0 1 4.304 0Z" fill="#305680" stroke="#305680" stroke-width=".187"/><rect x="53.841" y="150.05" width="82.316" height="11.412" rx="2.993" stroke="#305680" stroke-width="4.49"/><rect x="108.47" y="104.97" width="27.688" height="11.412" rx="2.993" stroke="#305680" stroke-width="4.49"/><path d="M128.341 134.717a2.245 2.245 0 1 0 4.49 0h-4.49Zm0-19v19h4.49v-19h-4.49Z" fill="#305680"/><path stroke="#305680" stroke-width="4.49" d="M73.485 133.09h20.579v16.837H73.485z"/><path d="M68.809 132.997h30.213M83.773 133.184v16.463" stroke="#305680" stroke-width="4.49" stroke-linecap="round"/><path d="M108 149.454V84.09c0-.62-.503-1.123-1.122-1.123H60.123c-.62 0-1.123.503-1.123 1.123v66.877" stroke="#305680" stroke-width="4.49"/><rect x="71.129" y="70.847" width="24.508" height="24.508" rx="2.619" fill="#fff" stroke="#305680" stroke-width="3.742"/><path d="M83.49 78.717v8.793M79 82.833h8.793" stroke="#305680" stroke-width="3.742" stroke-linecap="round"/><path d="M97.309.467v16M263.629 111.928h-70.773" stroke="#91A3BE" stroke-width="1.5"/><mask id="a" fill="#fff"><path d="M96.628 15.461a96.714 96.714 0 0 1 37.146 7.318A96.864 96.864 0 0 1 165.285 43.8a97.058 97.058 0 0 1 21.061 31.516 97.196 97.196 0 0 1 7.395 37.196h-1.347a95.865 95.865 0 0 0-7.293-36.679 95.699 95.699 0 0 0-20.768-31.077 95.52 95.52 0 0 0-31.072-20.73 95.37 95.37 0 0 0-36.63-7.216l-.003-1.35Z"/></mask><path d="M96.628 15.461a96.714 96.714 0 0 1 37.146 7.318A96.864 96.864 0 0 1 165.285 43.8a97.058 97.058 0 0 1 21.061 31.516 97.196 97.196 0 0 1 7.395 37.196h-1.347a95.865 95.865 0 0 0-7.293-36.679 95.699 95.699 0 0 0-20.768-31.077 95.52 95.52 0 0 0-31.072-20.73 95.37 95.37 0 0 0-36.63-7.216l-.003-1.35Z" fill="#B2BFD1" stroke="#91A3BE" stroke-width="2" mask="url(#a)"/><path d="M274.243 121.949c-5.447 0-9.866-4.425-9.866-9.886 0-5.46 4.419-9.885 9.866-9.885 5.448 0 9.866 4.425 9.866 9.885 0 5.461-4.418 9.886-9.866 9.886Z" fill="#F4F8FE" stroke="#91A3BE" stroke-width="1.5"/></svg>