<svg width="248" height="322" fill="none" xmlns="http://www.w3.org/2000/svg"><rect x="59.25" y="120.75" width="186.5" height="186.5" rx="93.25" stroke="#B2BFD1" stroke-width="1.5"/><path d="M189.983 239.995a2.151 2.151 0 1 1-4.302 0 2.151 2.151 0 0 1 4.302 0Z" fill="#305680" stroke="#305680" stroke-width=".187"/><rect x="111.342" y="248.083" width="82.316" height="11.412" rx="2.993" stroke="#305680" stroke-width="4.49"/><rect x="165.97" y="203.003" width="27.688" height="11.412" rx="2.993" stroke="#305680" stroke-width="4.49"/><path d="M185.842 232.75a2.245 2.245 0 1 0 4.49 0h-4.49Zm0-19v19h4.49v-19h-4.49Z" fill="#305680"/><path stroke="#305680" stroke-width="4.49" d="M130.985 231.123h20.579v16.837h-20.579z"/><path d="M126.309 231.029h30.213M141.275 231.217v16.463" stroke="#305680" stroke-width="4.49" stroke-linecap="round"/><path d="M165.5 247.487v-65.365c0-.619-.503-1.122-1.122-1.122h-46.756c-.619 0-1.122.503-1.122 1.122V249" stroke="#305680" stroke-width="4.49"/><rect x="128.629" y="168.879" width="24.508" height="24.508" rx="2.619" fill="#fff" stroke="#305680" stroke-width="3.742"/><path d="M140.99 176.75v8.793m-4.49-4.677h8.793" stroke="#305680" stroke-width="3.742" stroke-linecap="round"/><path d="M0 212h42.433M144.078 24v80" stroke="#B2BFD1" stroke-width="1.5"/><path d="M41.49 212.775c-.033-14.404 2.613-28.673 7.787-41.99 5.174-13.317 12.775-25.421 22.367-35.619 9.592-10.197 20.987-18.287 33.532-23.807 12.545-5.519 25.994-8.36 39.576-8.359v1.523c-13.393-.001-26.655 2.8-39.025 8.243-12.371 5.443-23.608 13.421-33.066 23.476-9.459 10.056-16.954 21.991-22.056 35.123-5.102 13.132-7.711 27.203-7.678 41.406l-1.436.004Z" fill="#B2BFD1"/><circle cx="144.973" cy="12" r="11.25" fill="#F4F8FE" stroke="#B2BFD1" stroke-width="1.5"/></svg>