<svg width="261" height="322" fill="none" xmlns="http://www.w3.org/2000/svg"><path d="M64.25 214c0-51.501 41.749-93.25 93.25-93.25s93.25 41.749 93.25 93.25-41.749 93.25-93.25 93.25S64.25 265.501 64.25 214Z" stroke="#91A3BE" stroke-width="1.5"/><path d="M139.881 190.095a2.285 2.285 0 1 1-4.57.001 2.285 2.285 0 0 1 4.57-.001Z" fill="#305680"/><path d="M120.453 178.571h-5.715a.762.762 0 0 0-.761.762v10c0 .421.341.762.761.762h14.096m-8.381-11.524v-9.238m0 9.238h14.857m0 0v-9.238m0 9.238h14.857m0 0v-9.238m0 9.238h14.857m0 0v-9.238m0 9.238h14.857m0 0v-9.238m0 9.238h14.857m0 0h5.715c.421 0 .762.341.762.762v10a.762.762 0 0 1-.762.762h-54.286m48.571-11.524v-9.238" stroke="#305680" stroke-width="4.571" stroke-linecap="round"/><path d="M120.452 190.286v67.238c0 .631.512 1.143 1.143 1.143h72c.631 0 1.143-.512 1.143-1.143v-67.238" stroke="#305680" stroke-width="4.571"/><path d="m111.5 223.048 92-.095m-92 11.619h92m-92 11.714h92M174.88 231.619l7.023 6.572M174.88 243.429l7.023 6.571M154.143 231.619l7.023 6.572M154.143 243.429l7.023 6.571M174.88 219.429l7.023 6.571M154.143 219.429l7.023 6.571M133.404 219.429l7.023 6.571M133.404 231.619l7.023 6.572M133.404 243.429l7.023 6.571" stroke="#305680" stroke-width="4.571" stroke-linecap="round"/><path d="M0 212h43M150.75 24v80" stroke="#91A3BE" stroke-width="1.5"/><path d="M42 212.741a109.495 109.495 0 0 1 67.374-101.313A109.506 109.506 0 0 1 151.259 103l.003 1.586a107.929 107.929 0 0 0-76.236 31.776 107.9 107.9 0 0 0-31.44 76.376l-1.586.003Z" fill="#91A3BE"/><circle cx="151" cy="12" r="11.25" fill="#F4F8FE" stroke="#91A3BE" stroke-width="1.5"/></svg>