<svg width="285" height="210" fill="none" xmlns="http://www.w3.org/2000/svg"><rect x="12.75" y="33.717" width="164.5" height="164.5" rx="82.25" stroke="#91A3BE" stroke-width="1.5"/><path d="M77.38 92.063a2.286 2.286 0 1 1-4.571 0 2.286 2.286 0 0 1 4.571 0Z" fill="#305680"/><path d="M57.953 80.538h-5.715a.762.762 0 0 0-.761.762v10c0 .422.34.763.762.763h14.095m-8.381-11.525v-9.237m0 9.237H72.81m0 0v-9.237m0 9.237h14.857m0 0v-9.237m0 9.237h14.857m0 0v-9.237m0 9.237h14.857m0 0v-9.237m0 9.237h14.857m0 0h5.715c.421 0 .762.341.762.762v10c0 .422-.341.763-.762.763H83.667m48.571-11.525v-9.237" stroke="#305680" stroke-width="4.571" stroke-linecap="round"/><path d="M57.953 92.253v67.238c0 .631.512 1.143 1.143 1.143h72c.631 0 1.143-.512 1.143-1.143V92.253" stroke="#305680" stroke-width="4.571"/><path d="m49 125.015 92-.095m-92 11.619h92m-92 11.714h92M112.379 133.586l7.023 6.572M112.379 145.396l7.023 6.571M91.643 133.586l7.023 6.572M91.643 145.396l7.023 6.571M112.379 121.396l7.023 6.571M91.643 121.396l7.023 6.571M70.904 121.396l7.023 6.571M70.904 133.586l7.023 6.572M70.904 145.396l7.023 6.571" stroke="#305680" stroke-width="4.571" stroke-linecap="round"/><path d="M97.309.467v16M263.629 111.928h-70.773" stroke="#91A3BE" stroke-width="1.5"/><mask id="a" fill="#fff"><path d="M96.628 15.461a96.714 96.714 0 0 1 37.146 7.318A96.864 96.864 0 0 1 165.285 43.8a97.058 97.058 0 0 1 21.061 31.516 97.196 97.196 0 0 1 7.395 37.196h-1.347a95.865 95.865 0 0 0-7.293-36.679 95.699 95.699 0 0 0-20.768-31.077 95.52 95.52 0 0 0-31.072-20.73 95.37 95.37 0 0 0-36.63-7.216l-.003-1.35Z"/></mask><path d="M96.628 15.461a96.714 96.714 0 0 1 37.146 7.318A96.864 96.864 0 0 1 165.285 43.8a97.058 97.058 0 0 1 21.061 31.516 97.196 97.196 0 0 1 7.395 37.196h-1.347a95.865 95.865 0 0 0-7.293-36.679 95.699 95.699 0 0 0-20.768-31.077 95.52 95.52 0 0 0-31.072-20.73 95.37 95.37 0 0 0-36.63-7.216l-.003-1.35Z" fill="#B2BFD1" stroke="#91A3BE" stroke-width="2" mask="url(#a)"/><path d="M274.243 121.949c-5.447 0-9.866-4.425-9.866-9.886 0-5.46 4.419-9.885 9.866-9.885 5.448 0 9.866 4.425 9.866 9.885 0 5.461-4.418 9.886-9.866 9.886Z" fill="#F4F8FE" stroke="#91A3BE" stroke-width="1.5"/></svg>