<svg width="261" height="322" fill="none" xmlns="http://www.w3.org/2000/svg"><rect x="63.75" y="120.75" width="186.5" height="186.5" rx="93.25" stroke="#91A3BE" stroke-width="1.5"/><path d="M111 258.624h6.26m85.74 0h-6.449m-79.291 0h19.576m-19.576 0v-20.01m19.576-33.767-19.576 12.899v11.773m19.576-24.672v-24.444l21.374-11.028 20.01 12.393v23.079m-41.384 0v24.672m0 29.105h41.384m-41.384 0v-20.01m41.384 20.01h18.331m-18.331 0v-20.01m18.331 20.01v-20.01m-18.331-33.767 18.331 12.899v11.773m-18.331-24.672v24.672m-41.384 4.889h11.438m-11.438 0v-4.889m0 4.889v4.206m41.384-4.206h-11.596m11.596 0v-4.889m0 4.889v4.206m-60.96-9.095h19.576m-19.576 0v9.095m0 0h19.576m41.384-9.095h18.331m0 0v9.095m-18.331 0h18.331" stroke="#305680" stroke-width="4.553" stroke-linecap="round" stroke-linejoin="round"/><path d="M164.464 258.625v-14.628a.38.38 0 0 0-.38-.38H151.2a.38.38 0 0 0-.38.38v14.628" stroke="#305680" stroke-width="4.553"/><circle cx="157.642" cy="234.522" r="2.729" fill="#305680"/><circle cx="157.568" cy="186.088" r="2.729" fill="#305680"/><path d="M156.772 194.501v9.664h7.618l6.025 9.096m-13.643-18.76h7.618m-7.618 0c-12.506.796-11.256 22.739 5.23 17.737" stroke="#305680" stroke-width="4.553" stroke-linecap="round" stroke-linejoin="round"/><path d="M0 212h43M150.75 24v80" stroke="#91A3BE" stroke-width="1.5"/><path d="M42 212.725a109.504 109.504 0 0 1 67.388-101.303A109.495 109.495 0 0 1 151.275 103l.003 1.552a107.943 107.943 0 0 0-99.594 66.843 107.95 107.95 0 0 0-8.132 41.327l-1.552.003Z" fill="#91A3BE"/><circle cx="151" cy="12" r="11.25" fill="#F7F9FC" stroke="#91A3BE" stroke-width="1.5"/></svg>