<svg width="261" height="322" viewBox="0 0 261 322" fill="none" xmlns="http://www.w3.org/2000/svg">
<rect x="63.75" y="120.75" width="186.5" height="186.5" rx="93.25" stroke="#91A3BE" stroke-width="1.5"/>
<path d="M111 258.624H117.26M203 258.624H196.551M117.26 258.624H136.836M117.26 258.624V238.614M136.836 204.847L117.26 217.746V229.519M136.836 204.847V180.403L158.21 169.375L178.22 181.768V204.847M136.836 204.847V229.519M136.836 258.624H178.22M136.836 258.624V238.614M178.22 258.624H196.551M178.22 258.624V238.614M196.551 258.624V238.614M178.22 204.847L196.551 217.746V229.519M178.22 204.847V229.519M136.836 234.408H148.274M136.836 234.408V229.519M136.836 234.408V238.614M178.22 234.408H166.624M178.22 234.408V229.519M178.22 234.408V238.614M117.26 229.519H136.836M117.26 229.519V238.614M117.26 238.614H136.836M178.22 229.519H196.551M196.551 229.519V238.614M178.22 238.614H196.551" stroke="#305680" stroke-width="4.55258" stroke-linecap="round" stroke-linejoin="round"/>
<path d="M164.464 258.625V243.997C164.464 243.787 164.294 243.617 164.084 243.617H151.2C150.99 243.617 150.82 243.787 150.82 243.997V258.625" stroke="#305680" stroke-width="4.55258"/>
<circle cx="157.642" cy="234.522" r="2.72865" fill="#305680"/>
<circle cx="157.568" cy="186.088" r="2.72865" fill="#305680"/>
<path d="M156.772 194.501V204.165H164.39L170.415 213.261M156.772 194.501H164.39M156.772 194.501C144.266 195.297 145.516 217.24 162.002 212.238" stroke="#305680" stroke-width="4.55258" stroke-linecap="round" stroke-linejoin="round"/>
<path d="M0 212H43" stroke="#91A3BE" stroke-width="1.5"/>
<line x1="150.75" y1="24" x2="150.75" y2="104" stroke="#91A3BE" stroke-width="1.5"/>
<path d="M42.0002 212.725C41.9706 198.346 44.7736 184.101 50.2492 170.804C55.7247 157.508 63.7655 145.42 73.9126 135.231C84.0597 125.042 96.1142 116.952 109.388 111.422C122.662 105.891 136.895 103.03 151.275 103L151.278 104.552C137.102 104.581 123.071 107.402 109.985 112.854C96.8993 118.306 85.0156 126.282 75.0123 136.327C65.0091 146.371 57.0822 158.287 51.6843 171.395C46.2864 184.503 43.5231 198.546 43.5523 212.722L42.0002 212.725Z" fill="#91A3BE"/>
<circle cx="151" cy="12" r="11.25" fill="#F7F9FC" stroke="#91A3BE" stroke-width="1.5"/>
</svg>
