<svg width="285" height="210" fill="none" xmlns="http://www.w3.org/2000/svg"><path d="M110.75 115.467c0-45.425 36.825-82.25 82.25-82.25s82.25 36.825 82.25 82.25c0 45.426-36.825 82.25-82.25 82.25s-82.25-36.824-82.25-82.25Z" stroke="#3E9AF8" stroke-width="1.5"/><path d="M153.738 150.724v-32.327M230.016 150.919v-32.327" stroke="#3E9AF8" stroke-width="4.688" stroke-linecap="round"/><circle cx="220.557" cy="89.181" r="18.444" stroke="#3E9AF8" stroke-width="4.688" stroke-linejoin="round"/><path d="M210.385 89.058h20.12m-17.424-4.014v8.272m15.004-8.272v8.272" stroke="#3E9AF8" stroke-width="4.688" stroke-linecap="round"/><path d="M213.217 84.8v8.272m15.004-8.272v8.272" stroke="#3E9AF8" stroke-width="5.86" stroke-linecap="round"/><path d="M156.18 110.584a2.343 2.343 0 1 1-4.687.001 2.343 2.343 0 0 1 4.687-.001Z" fill="#3E9AF8"/><rect x="144.656" y="151.017" width="94.149" height="11.524" rx="3.125" stroke="#3E9AF8" stroke-width="4.688"/><path d="M200.13 93.981h-52.349a.781.781 0 0 0-.781.781v7.423c0 .431.35.781.781.781h60.552" stroke="#3E9AF8" stroke-width="4.688" stroke-linecap="round"/><path d="M192.999 86.949a2.344 2.344 0 1 0 0-4.688v4.688Zm-34.671 0h34.671V82.26h-34.671v4.688Zm1.563 8.594V85.386h-4.688v10.157h4.688Zm-1.563-13.282a3.125 3.125 0 0 0-3.125 3.125h4.688c0 .863-.7 1.563-1.563 1.563V82.26Z" fill="#3E9AF8"/><rect x="169.853" y="115.076" width="44.34" height="35.941" rx="3.516" stroke="#3E9AF8" stroke-width="4.688"/><path d="M191.926 115.077v34.866" stroke="#3E9AF8" stroke-width="4.688" stroke-linecap="round"/><path d="M187.551.467v16" stroke="#3E9AF8" stroke-width="1.5"/><path transform="matrix(1 0 0 -1 21.23 111.178)" stroke="#3E9AF8" stroke-width="1.5" d="M0-.75h70.773"/><path d="M188.232 15.461a96.718 96.718 0 0 0-37.147 7.318 96.86 96.86 0 0 0-31.51 21.022 97.064 97.064 0 0 0-21.061 31.516 97.198 97.198 0 0 0-7.396 37.196h1.348a95.847 95.847 0 0 1 7.292-36.679 95.71 95.71 0 0 1 20.768-31.077 95.52 95.52 0 0 1 31.072-20.73 95.374 95.374 0 0 1 36.63-7.216l.004-1.35Z" fill="#3E9AF8"/><path d="M10.616 121.949c5.448 0 9.866-4.425 9.866-9.886 0-5.46-4.418-9.885-9.866-9.885-5.448 0-9.866 4.425-9.866 9.885 0 5.461 4.418 9.886 9.866 9.886Z" fill="#F4F8FE" stroke="#3E9AF8" stroke-width="1.5"/></svg>