<svg width="262" height="322" fill="none" xmlns="http://www.w3.org/2000/svg"><path d="M60.25 108c0-51.5 41.749-93.25 93.25-93.25S246.75 56.5 246.75 108c0 51.501-41.749 93.25-93.25 93.25S60.25 159.501 60.25 108Z" stroke="#3E9AF8" stroke-width="1.5"/><path d="M114.239 143.257V110.93M190.515 143.452v-32.327" stroke="#3E9AF8" stroke-width="4.688" stroke-linecap="round"/><circle cx="181.056" cy="81.713" r="18.444" stroke="#3E9AF8" stroke-width="4.688" stroke-linejoin="round"/><path d="M170.884 81.59h20.12m-17.424-4.013v8.272m15.004-8.272v8.272" stroke="#3E9AF8" stroke-width="4.688" stroke-linecap="round"/><path d="M173.717 77.333v8.272m15.004-8.272v8.272" stroke="#3E9AF8" stroke-width="5.86" stroke-linecap="round"/><path d="M116.68 103.117a2.344 2.344 0 1 1-4.688 0 2.344 2.344 0 0 1 4.688 0Z" fill="#3E9AF8"/><rect x="105.156" y="143.55" width="94.149" height="11.524" rx="3.125" stroke="#3E9AF8" stroke-width="4.688"/><path d="M160.63 86.514h-52.349a.781.781 0 0 0-.781.781v7.422c0 .432.35.782.781.782h60.552" stroke="#3E9AF8" stroke-width="4.688" stroke-linecap="round"/><path d="M153.5 79.482a2.344 2.344 0 1 0 0-4.688v4.688Zm-34.671 0H153.5v-4.688h-34.671v4.688Zm1.563 8.594V77.92h-4.688v10.157h4.688Zm-1.563-13.282a3.125 3.125 0 0 0-3.125 3.125h4.688c0 .863-.7 1.563-1.563 1.563v-4.688Z" fill="#3E9AF8"/><rect x="130.353" y="107.609" width="44.34" height="35.941" rx="3.516" stroke="#3E9AF8" stroke-width="4.688"/><path d="M152.426 107.609v34.867" stroke="#3E9AF8" stroke-width="4.688" stroke-linecap="round"/><path d="M.5 110h43M151.25 298v-80" stroke="#3E9AF8" stroke-width="1.5"/><mask id="a" fill="#fff"><path d="M42.5 109.5A109.5 109.5 0 0 0 152 219v-1.33A108.173 108.173 0 0 1 43.83 109.5H42.5Z"/></mask><path d="M42.5 109.5A109.5 109.5 0 0 0 152 219v-1.33A108.173 108.173 0 0 1 43.83 109.5H42.5Z" fill="#3E9AF8" stroke="#3E9AF8" stroke-width="2" mask="url(#a)"/><circle cx="12" cy="12" r="11.25" transform="matrix(1 0 0 -1 139.5 322)" fill="#F4F8FE" stroke="#3E9AF8" stroke-width="1.5"/></svg>