<svg width="295" height="374" fill="none" xmlns="http://www.w3.org/2000/svg"><rect y=".212" width="294.919" height="421" rx="8" fill="url(#a)" fill-opacity=".2"/><path d="M68.458 61.705a3.334 3.334 0 1 0-4.866-4.56l-7.987 8.524-3.702-3.29-.008-.006-.008-.006a3.334 3.334 0 0 0-4.426 4.98l.007.007.008.006 6.126 5.446a3.333 3.333 0 0 0 4.643-.21l10.213-10.891ZM35.05 42.063a13.003 13.003 0 0 1 9.194-3.808H71.47a13.003 13.003 0 0 1 13.002 13.002v27.226A13.002 13.002 0 0 1 71.47 91.486H44.244A13.002 13.002 0 0 1 31.24 78.483V51.257c0-3.448 1.37-6.756 3.809-9.194Z" fill="#fff" stroke="#fff" stroke-width="1.221"/><path d="M108.891 51.26h149.743M108.891 78.486h69.767" stroke="#fff" stroke-width="5.496" stroke-linecap="round" stroke-linejoin="round"/><path d="M68.458 150.188a3.328 3.328 0 0 0 .9-2.388 3.333 3.333 0 0 0-5.766-2.171l-7.987 8.523-3.702-3.289-.008-.006-.008-.007a3.333 3.333 0 0 0-4.426 4.98l.007.007.008.007 6.126 5.445a3.332 3.332 0 0 0 4.643-.21l10.213-10.891ZM35.05 130.546a13.004 13.004 0 0 1 9.194-3.808H71.47a13.004 13.004 0 0 1 13.002 13.003v27.226a13.004 13.004 0 0 1-13.002 13.002H44.244a13.004 13.004 0 0 1-13.003-13.002v-27.226c0-3.449 1.37-6.756 3.809-9.195Z" fill="#fff" stroke="#fff" stroke-width="1.221"/><path d="M108.891 139.744h149.743M108.891 166.97h69.767" stroke="#fff" stroke-width="5.496" stroke-linecap="round" stroke-linejoin="round"/><path d="M68.46 238.673v-.001a3.323 3.323 0 0 0 .9-2.388 3.34 3.34 0 0 0-2.158-3.012 3.345 3.345 0 0 0-2.55.083 3.335 3.335 0 0 0-1.058.758l-7.988 8.523-3.702-3.288-.007-.007-.008-.006a3.334 3.334 0 0 0-4.426 4.979l.007.007.008.007 6.125 5.445a3.332 3.332 0 0 0 4.644-.21l10.213-10.89Zm-33.408-19.642a13 13 0 0 1 9.194-3.809h27.226a13 13 0 0 1 13.002 13.003v27.226a13.002 13.002 0 0 1-13.002 13.002H44.246a13 13 0 0 1-13.003-13.002v-27.226a13 13 0 0 1 3.809-9.194Z" fill="#fff" stroke="#fff" stroke-width="1.221"/><path d="M108.895 228.228h149.743m-149.743 27.226h69.766" stroke="#fff" stroke-width="5.496" stroke-linecap="round" stroke-linejoin="round"/><defs><linearGradient id="a" x1="147.46" y1=".212" x2="147.46" y2="421.212" gradientUnits="userSpaceOnUse"><stop stop-color="#3E9AF8"/><stop offset="1" stop-color="#3E9AF8" stop-opacity="0"/></linearGradient></defs></svg>