<svg width="471" height="298" viewBox="0 0 471 298" fill="none" xmlns="http://www.w3.org/2000/svg">
<rect x="166" y="40" width="139" height="37" rx="6" fill="white"/>
<path d="M179 61C179 60.4477 179.448 60 180 60H182V65H180C179.448 65 179 64.5523 179 64V61Z" fill="#305680"/>
<path fill-rule="evenodd" clip-rule="evenodd" d="M181 61H180L180 64H181V61ZM180 60C179.448 60 179 60.4477 179 61V64C179 64.5523 179.448 65 180 65H182V60H180Z" fill="#305680"/>
<path fill-rule="evenodd" clip-rule="evenodd" d="M181 54C181 53.4477 181.448 53 182 53H189C189.552 53 190 53.4477 190 54V64C190 64.5523 189.552 65 189 65H182C181.448 65 181 64.5523 181 64V54ZM183 55H185V57H183V55ZM185 58H183V60H185V58ZM183 61H185V63H183V61ZM188 58H186V60H188V58ZM186 61H188V63H186V61ZM188 55H186V57H188V55Z" fill="#305680"/>
<path d="M207.445 63L206.59 60.6211H203.314L202.477 63H201L204.205 54.3984H205.729L208.934 63H207.445ZM206.221 59.4141L205.418 57.082C205.359 56.9258 205.277 56.6797 205.172 56.3438C205.07 56.0078 205 55.7617 204.961 55.6055C204.855 56.0859 204.701 56.6113 204.498 57.1816L203.725 59.4141H206.221Z" fill="#28232D"/>
<path d="M214.271 61.1543C214.271 61.7871 214.041 62.2734 213.58 62.6133C213.119 62.9492 212.459 63.1172 211.6 63.1172C210.736 63.1172 210.043 62.9863 209.52 62.7246V61.5352C210.281 61.8867 210.99 62.0625 211.646 62.0625C212.494 62.0625 212.918 61.8066 212.918 61.2949C212.918 61.1309 212.871 60.9941 212.777 60.8848C212.684 60.7754 212.529 60.6621 212.314 60.5449C212.1 60.4277 211.801 60.2949 211.418 60.1465C210.672 59.8574 210.166 59.5684 209.9 59.2793C209.639 58.9902 209.508 58.6152 209.508 58.1543C209.508 57.5996 209.73 57.1699 210.176 56.8652C210.625 56.5566 211.234 56.4023 212.004 56.4023C212.766 56.4023 213.486 56.5566 214.166 56.8652L213.721 57.9023C213.021 57.6133 212.434 57.4688 211.957 57.4688C211.23 57.4688 210.867 57.6758 210.867 58.0898C210.867 58.293 210.961 58.4648 211.148 58.6055C211.34 58.7461 211.754 58.9395 212.391 59.1855C212.926 59.3926 213.314 59.582 213.557 59.7539C213.799 59.9258 213.979 60.125 214.096 60.3516C214.213 60.5742 214.271 60.8418 214.271 61.1543Z" fill="#28232D"/>
<path d="M220.119 61.1543C220.119 61.7871 219.889 62.2734 219.428 62.6133C218.967 62.9492 218.307 63.1172 217.447 63.1172C216.584 63.1172 215.891 62.9863 215.367 62.7246V61.5352C216.129 61.8867 216.838 62.0625 217.494 62.0625C218.342 62.0625 218.766 61.8066 218.766 61.2949C218.766 61.1309 218.719 60.9941 218.625 60.8848C218.531 60.7754 218.377 60.6621 218.162 60.5449C217.947 60.4277 217.648 60.2949 217.266 60.1465C216.52 59.8574 216.014 59.5684 215.748 59.2793C215.486 58.9902 215.355 58.6152 215.355 58.1543C215.355 57.5996 215.578 57.1699 216.023 56.8652C216.473 56.5566 217.082 56.4023 217.852 56.4023C218.613 56.4023 219.334 56.5566 220.014 56.8652L219.568 57.9023C218.869 57.6133 218.281 57.4688 217.805 57.4688C217.078 57.4688 216.715 57.6758 216.715 58.0898C216.715 58.293 216.809 58.4648 216.996 58.6055C217.188 58.7461 217.602 58.9395 218.238 59.1855C218.773 59.3926 219.162 59.582 219.404 59.7539C219.646 59.9258 219.826 60.125 219.943 60.3516C220.061 60.5742 220.119 60.8418 220.119 61.1543Z" fill="#28232D"/>
<path d="M224.443 63.1172C223.436 63.1172 222.646 62.8242 222.076 62.2383C221.51 61.6484 221.227 60.8379 221.227 59.8066C221.227 58.748 221.49 57.916 222.018 57.3105C222.545 56.7051 223.27 56.4023 224.191 56.4023C225.047 56.4023 225.723 56.6621 226.219 57.1816C226.715 57.7012 226.963 58.416 226.963 59.3262V60.0703H222.645C222.664 60.6992 222.834 61.1836 223.154 61.5234C223.475 61.8594 223.926 62.0273 224.508 62.0273C224.891 62.0273 225.246 61.9922 225.574 61.9219C225.906 61.8477 226.262 61.7266 226.641 61.5586V62.6777C226.305 62.8379 225.965 62.9512 225.621 63.0176C225.277 63.084 224.885 63.1172 224.443 63.1172ZM224.191 57.4453C223.754 57.4453 223.402 57.584 223.137 57.8613C222.875 58.1387 222.719 58.543 222.668 59.0742H225.609C225.602 58.5391 225.473 58.1348 225.223 57.8613C224.973 57.584 224.629 57.4453 224.191 57.4453Z" fill="#28232D"/>
<path d="M230.941 62.0039C231.277 62.0039 231.613 61.9512 231.949 61.8457V62.8828C231.797 62.9492 231.6 63.0039 231.357 63.0469C231.119 63.0938 230.871 63.1172 230.613 63.1172C229.309 63.1172 228.656 62.4297 228.656 61.0547V57.5625H227.771V56.9531L228.721 56.4492L229.189 55.0781H230.039V56.5195H231.885V57.5625H230.039V61.0312C230.039 61.3633 230.121 61.6094 230.285 61.7695C230.453 61.9258 230.672 62.0039 230.941 62.0039Z" fill="#28232D"/>
<path d="M235.863 59.7129C235.863 58.6777 236.014 57.709 236.314 56.8066C236.619 55.9043 237.057 55.1133 237.627 54.4336H238.828C238.285 55.168 237.869 55.9922 237.58 56.9062C237.291 57.8164 237.146 58.748 237.146 59.7012C237.146 60.6543 237.291 61.5781 237.58 62.4727C237.869 63.3672 238.281 64.1758 238.816 64.8984H237.627C237.053 64.2344 236.615 63.459 236.314 62.5723C236.014 61.6855 235.863 60.7324 235.863 59.7129Z" fill="#28232D"/>
<path d="M245.262 60.6738C245.262 61.4355 244.986 62.0332 244.436 62.4668C243.885 62.9004 243.125 63.1172 242.156 63.1172C241.188 63.1172 240.395 62.9668 239.777 62.666V61.3418C240.168 61.5254 240.582 61.6699 241.02 61.7754C241.461 61.8809 241.871 61.9336 242.25 61.9336C242.805 61.9336 243.213 61.8281 243.475 61.6172C243.74 61.4062 243.873 61.123 243.873 60.7676C243.873 60.4473 243.752 60.1758 243.51 59.9531C243.268 59.7305 242.768 59.4668 242.01 59.1621C241.229 58.8457 240.678 58.4844 240.357 58.0781C240.037 57.6719 239.877 57.1836 239.877 56.6133C239.877 55.8984 240.131 55.3359 240.639 54.9258C241.146 54.5156 241.828 54.3105 242.684 54.3105C243.504 54.3105 244.32 54.4902 245.133 54.8496L244.688 55.9922C243.926 55.6719 243.246 55.5117 242.648 55.5117C242.195 55.5117 241.852 55.6113 241.617 55.8105C241.383 56.0059 241.266 56.2656 241.266 56.5898C241.266 56.8125 241.312 57.0039 241.406 57.1641C241.5 57.3203 241.654 57.4688 241.869 57.6094C242.084 57.75 242.471 57.9355 243.029 58.166C243.658 58.4277 244.119 58.6719 244.412 58.8984C244.705 59.125 244.92 59.3809 245.057 59.666C245.193 59.9512 245.262 60.2871 245.262 60.6738Z" fill="#28232D"/>
<path d="M249.188 62.0039C249.523 62.0039 249.859 61.9512 250.195 61.8457V62.8828C250.043 62.9492 249.846 63.0039 249.604 63.0469C249.365 63.0938 249.117 63.1172 248.859 63.1172C247.555 63.1172 246.902 62.4297 246.902 61.0547V57.5625H246.018V56.9531L246.967 56.4492L247.436 55.0781H248.285V56.5195H250.131V57.5625H248.285V61.0312C248.285 61.3633 248.367 61.6094 248.531 61.7695C248.699 61.9258 248.918 62.0039 249.188 62.0039Z" fill="#28232D"/>
<path d="M254.783 56.4023C255.061 56.4023 255.289 56.4219 255.469 56.4609L255.334 57.7441C255.139 57.6973 254.936 57.6738 254.725 57.6738C254.174 57.6738 253.727 57.8535 253.383 58.2129C253.043 58.5723 252.873 59.0391 252.873 59.6133V63H251.496V56.5195H252.574L252.756 57.6621H252.826C253.041 57.2754 253.32 56.9688 253.664 56.7422C254.012 56.5156 254.385 56.4023 254.783 56.4023Z" fill="#28232D"/>
<path d="M259.506 63.1172C258.498 63.1172 257.709 62.8242 257.139 62.2383C256.572 61.6484 256.289 60.8379 256.289 59.8066C256.289 58.748 256.553 57.916 257.08 57.3105C257.607 56.7051 258.332 56.4023 259.254 56.4023C260.109 56.4023 260.785 56.6621 261.281 57.1816C261.777 57.7012 262.025 58.416 262.025 59.3262V60.0703H257.707C257.727 60.6992 257.896 61.1836 258.217 61.5234C258.537 61.8594 258.988 62.0273 259.57 62.0273C259.953 62.0273 260.309 61.9922 260.637 61.9219C260.969 61.8477 261.324 61.7266 261.703 61.5586V62.6777C261.367 62.8379 261.027 62.9512 260.684 63.0176C260.34 63.084 259.947 63.1172 259.506 63.1172ZM259.254 57.4453C258.816 57.4453 258.465 57.584 258.199 57.8613C257.938 58.1387 257.781 58.543 257.73 59.0742H260.672C260.664 58.5391 260.535 58.1348 260.285 57.8613C260.035 57.584 259.691 57.4453 259.254 57.4453Z" fill="#28232D"/>
<path d="M266.42 63.1172C265.412 63.1172 264.623 62.8242 264.053 62.2383C263.486 61.6484 263.203 60.8379 263.203 59.8066C263.203 58.748 263.467 57.916 263.994 57.3105C264.521 56.7051 265.246 56.4023 266.168 56.4023C267.023 56.4023 267.699 56.6621 268.195 57.1816C268.691 57.7012 268.939 58.416 268.939 59.3262V60.0703H264.621C264.641 60.6992 264.811 61.1836 265.131 61.5234C265.451 61.8594 265.902 62.0273 266.484 62.0273C266.867 62.0273 267.223 61.9922 267.551 61.9219C267.883 61.8477 268.238 61.7266 268.617 61.5586V62.6777C268.281 62.8379 267.941 62.9512 267.598 63.0176C267.254 63.084 266.861 63.1172 266.42 63.1172ZM266.168 57.4453C265.73 57.4453 265.379 57.584 265.113 57.8613C264.852 58.1387 264.695 58.543 264.645 59.0742H267.586C267.578 58.5391 267.449 58.1348 267.199 57.8613C266.949 57.584 266.605 57.4453 266.168 57.4453Z" fill="#28232D"/>
<path d="M272.918 62.0039C273.254 62.0039 273.59 61.9512 273.926 61.8457V62.8828C273.773 62.9492 273.576 63.0039 273.334 63.0469C273.096 63.0938 272.848 63.1172 272.59 63.1172C271.285 63.1172 270.633 62.4297 270.633 61.0547V57.5625H269.748V56.9531L270.697 56.4492L271.166 55.0781H272.016V56.5195H273.861V57.5625H272.016V61.0312C272.016 61.3633 272.098 61.6094 272.262 61.7695C272.43 61.9258 272.648 62.0039 272.918 62.0039Z" fill="#28232D"/>
<path d="M283.805 63L282.949 60.6211H279.674L278.836 63H277.359L280.564 54.3984H282.088L285.293 63H283.805ZM282.58 59.4141L281.777 57.082C281.719 56.9258 281.637 56.6797 281.531 56.3438C281.43 56.0078 281.359 55.7617 281.32 55.6055C281.215 56.0859 281.061 56.6113 280.857 57.1816L280.084 59.4141H282.58Z" fill="#28232D"/>
<path d="M288.615 59.7129C288.615 60.7402 288.463 61.6973 288.158 62.584C287.857 63.4707 287.422 64.2422 286.852 64.8984H285.662C286.201 64.168 286.613 63.3574 286.898 62.4668C287.188 61.5762 287.332 60.6543 287.332 59.7012C287.332 58.7441 287.188 57.8125 286.898 56.9062C286.609 55.9961 286.193 55.1719 285.65 54.4336H286.852C287.426 55.1172 287.863 55.9121 288.164 56.8184C288.465 57.7207 288.615 58.6855 288.615 59.7129Z" fill="#28232D"/>
<rect x="166.5" y="40.5" width="138" height="36" rx="5.5" stroke="#305680" stroke-opacity="0.4"/>
<rect x="46" y="107" width="139" height="37" rx="6" fill="white"/>
<path d="M59 128C59 127.448 59.4477 127 60 127H62V132H60C59.4477 132 59 131.552 59 131V128Z" fill="#305680"/>
<path fill-rule="evenodd" clip-rule="evenodd" d="M61 128H60L60 131H61V128ZM60 127C59.4477 127 59 127.448 59 128V131C59 131.552 59.4477 132 60 132H62V127H60Z" fill="#305680"/>
<path fill-rule="evenodd" clip-rule="evenodd" d="M61 121C61 120.448 61.4477 120 62 120H69C69.5523 120 70 120.448 70 121V131C70 131.552 69.5523 132 69 132H62C61.4477 132 61 131.552 61 131V121ZM63 122H65V124H63V122ZM65 125H63V127H65V125ZM63 128H65V130H63V128ZM68 125H66V127H68V125ZM66 128H68V130H66V128ZM68 122H66V124H68V122Z" fill="#305680"/>
<path d="M87.4453 130L86.5898 127.621H83.3145L82.4766 130H81L84.2051 121.398H85.7285L88.9336 130H87.4453ZM86.2207 126.414L85.418 124.082C85.3594 123.926 85.2773 123.68 85.1719 123.344C85.0703 123.008 85 122.762 84.9609 122.605C84.8555 123.086 84.7012 123.611 84.498 124.182L83.7246 126.414H86.2207Z" fill="#28232D"/>
<path d="M94.2715 128.154C94.2715 128.787 94.041 129.273 93.5801 129.613C93.1191 129.949 92.459 130.117 91.5996 130.117C90.7363 130.117 90.043 129.986 89.5195 129.725V128.535C90.2812 128.887 90.9902 129.062 91.6465 129.062C92.4941 129.062 92.918 128.807 92.918 128.295C92.918 128.131 92.8711 127.994 92.7773 127.885C92.6836 127.775 92.5293 127.662 92.3145 127.545C92.0996 127.428 91.8008 127.295 91.418 127.146C90.6719 126.857 90.166 126.568 89.9004 126.279C89.6387 125.99 89.5078 125.615 89.5078 125.154C89.5078 124.6 89.7305 124.17 90.1758 123.865C90.625 123.557 91.2344 123.402 92.0039 123.402C92.7656 123.402 93.4863 123.557 94.166 123.865L93.7207 124.902C93.0215 124.613 92.4336 124.469 91.957 124.469C91.2305 124.469 90.8672 124.676 90.8672 125.09C90.8672 125.293 90.9609 125.465 91.1484 125.605C91.3398 125.746 91.7539 125.939 92.3906 126.186C92.9258 126.393 93.3145 126.582 93.5566 126.754C93.7988 126.926 93.9785 127.125 94.0957 127.352C94.2129 127.574 94.2715 127.842 94.2715 128.154Z" fill="#28232D"/>
<path d="M100.119 128.154C100.119 128.787 99.8887 129.273 99.4277 129.613C98.9668 129.949 98.3066 130.117 97.4473 130.117C96.584 130.117 95.8906 129.986 95.3672 129.725V128.535C96.1289 128.887 96.8379 129.062 97.4941 129.062C98.3418 129.062 98.7656 128.807 98.7656 128.295C98.7656 128.131 98.7188 127.994 98.625 127.885C98.5312 127.775 98.377 127.662 98.1621 127.545C97.9473 127.428 97.6484 127.295 97.2656 127.146C96.5195 126.857 96.0137 126.568 95.748 126.279C95.4863 125.99 95.3555 125.615 95.3555 125.154C95.3555 124.6 95.5781 124.17 96.0234 123.865C96.4727 123.557 97.082 123.402 97.8516 123.402C98.6133 123.402 99.334 123.557 100.014 123.865L99.5684 124.902C98.8691 124.613 98.2812 124.469 97.8047 124.469C97.0781 124.469 96.7148 124.676 96.7148 125.09C96.7148 125.293 96.8086 125.465 96.9961 125.605C97.1875 125.746 97.6016 125.939 98.2383 126.186C98.7734 126.393 99.1621 126.582 99.4043 126.754C99.6465 126.926 99.8262 127.125 99.9434 127.352C100.061 127.574 100.119 127.842 100.119 128.154Z" fill="#28232D"/>
<path d="M104.443 130.117C103.436 130.117 102.646 129.824 102.076 129.238C101.51 128.648 101.227 127.838 101.227 126.807C101.227 125.748 101.49 124.916 102.018 124.311C102.545 123.705 103.27 123.402 104.191 123.402C105.047 123.402 105.723 123.662 106.219 124.182C106.715 124.701 106.963 125.416 106.963 126.326V127.07H102.645C102.664 127.699 102.834 128.184 103.154 128.523C103.475 128.859 103.926 129.027 104.508 129.027C104.891 129.027 105.246 128.992 105.574 128.922C105.906 128.848 106.262 128.727 106.641 128.559V129.678C106.305 129.838 105.965 129.951 105.621 130.018C105.277 130.084 104.885 130.117 104.443 130.117ZM104.191 124.445C103.754 124.445 103.402 124.584 103.137 124.861C102.875 125.139 102.719 125.543 102.668 126.074H105.609C105.602 125.539 105.473 125.135 105.223 124.861C104.973 124.584 104.629 124.445 104.191 124.445Z" fill="#28232D"/>
<path d="M110.941 129.004C111.277 129.004 111.613 128.951 111.949 128.846V129.883C111.797 129.949 111.6 130.004 111.357 130.047C111.119 130.094 110.871 130.117 110.613 130.117C109.309 130.117 108.656 129.43 108.656 128.055V124.562H107.771V123.953L108.721 123.449L109.189 122.078H110.039V123.52H111.885V124.562H110.039V128.031C110.039 128.363 110.121 128.609 110.285 128.77C110.453 128.926 110.672 129.004 110.941 129.004Z" fill="#28232D"/>
<path d="M115.863 126.713C115.863 125.678 116.014 124.709 116.314 123.807C116.619 122.904 117.057 122.113 117.627 121.434H118.828C118.285 122.168 117.869 122.992 117.58 123.906C117.291 124.816 117.146 125.748 117.146 126.701C117.146 127.654 117.291 128.578 117.58 129.473C117.869 130.367 118.281 131.176 118.816 131.898H117.627C117.053 131.234 116.615 130.459 116.314 129.572C116.014 128.686 115.863 127.732 115.863 126.713Z" fill="#28232D"/>
<path d="M127.078 130H125.672V126.139H121.723V130H120.322V121.434H121.723V124.938H125.672V121.434H127.078V130Z" fill="#28232D"/>
<path d="M134.936 126.748C134.936 127.807 134.664 128.633 134.121 129.227C133.578 129.82 132.822 130.117 131.854 130.117C131.248 130.117 130.713 129.98 130.248 129.707C129.783 129.434 129.426 129.041 129.176 128.529C128.926 128.018 128.801 127.424 128.801 126.748C128.801 125.697 129.07 124.877 129.609 124.287C130.148 123.697 130.908 123.402 131.889 123.402C132.826 123.402 133.568 123.705 134.115 124.311C134.662 124.912 134.936 125.725 134.936 126.748ZM130.219 126.748C130.219 128.244 130.771 128.992 131.877 128.992C132.971 128.992 133.518 128.244 133.518 126.748C133.518 125.268 132.967 124.527 131.865 124.527C131.287 124.527 130.867 124.719 130.605 125.102C130.348 125.484 130.219 126.033 130.219 126.748Z" fill="#28232D"/>
<path d="M141.094 130L140.9 129.15H140.83C140.639 129.451 140.365 129.688 140.01 129.859C139.658 130.031 139.256 130.117 138.803 130.117C138.018 130.117 137.432 129.922 137.045 129.531C136.658 129.141 136.465 128.549 136.465 127.756V123.52H137.854V127.516C137.854 128.012 137.955 128.385 138.158 128.635C138.361 128.881 138.68 129.004 139.113 129.004C139.691 129.004 140.115 128.832 140.385 128.488C140.658 128.141 140.795 127.561 140.795 126.748V123.52H142.178V130H141.094Z" fill="#28232D"/>
<path d="M148.494 128.154C148.494 128.787 148.264 129.273 147.803 129.613C147.342 129.949 146.682 130.117 145.822 130.117C144.959 130.117 144.266 129.986 143.742 129.725V128.535C144.504 128.887 145.213 129.062 145.869 129.062C146.717 129.062 147.141 128.807 147.141 128.295C147.141 128.131 147.094 127.994 147 127.885C146.906 127.775 146.752 127.662 146.537 127.545C146.322 127.428 146.023 127.295 145.641 127.146C144.895 126.857 144.389 126.568 144.123 126.279C143.861 125.99 143.73 125.615 143.73 125.154C143.73 124.6 143.953 124.17 144.398 123.865C144.848 123.557 145.457 123.402 146.227 123.402C146.988 123.402 147.709 123.557 148.389 123.865L147.943 124.902C147.244 124.613 146.656 124.469 146.18 124.469C145.453 124.469 145.09 124.676 145.09 125.09C145.09 125.293 145.184 125.465 145.371 125.605C145.562 125.746 145.977 125.939 146.613 126.186C147.148 126.393 147.537 126.582 147.779 126.754C148.021 126.926 148.201 127.125 148.318 127.352C148.436 127.574 148.494 127.842 148.494 128.154Z" fill="#28232D"/>
<path d="M152.818 130.117C151.811 130.117 151.021 129.824 150.451 129.238C149.885 128.648 149.602 127.838 149.602 126.807C149.602 125.748 149.865 124.916 150.393 124.311C150.92 123.705 151.645 123.402 152.566 123.402C153.422 123.402 154.098 123.662 154.594 124.182C155.09 124.701 155.338 125.416 155.338 126.326V127.07H151.02C151.039 127.699 151.209 128.184 151.529 128.523C151.85 128.859 152.301 129.027 152.883 129.027C153.266 129.027 153.621 128.992 153.949 128.922C154.281 128.848 154.637 128.727 155.016 128.559V129.678C154.68 129.838 154.34 129.951 153.996 130.018C153.652 130.084 153.26 130.117 152.818 130.117ZM152.566 124.445C152.129 124.445 151.777 124.584 151.512 124.861C151.25 125.139 151.094 125.543 151.043 126.074H153.984C153.977 125.539 153.848 125.135 153.598 124.861C153.348 124.584 153.004 124.445 152.566 124.445Z" fill="#28232D"/>
<path d="M160.166 121.434H162.709C163.889 121.434 164.74 121.605 165.264 121.949C165.791 122.293 166.055 122.836 166.055 123.578C166.055 124.078 165.926 124.494 165.668 124.826C165.41 125.158 165.039 125.367 164.555 125.453V125.512C165.156 125.625 165.598 125.85 165.879 126.186C166.164 126.518 166.307 126.969 166.307 127.539C166.307 128.309 166.037 128.912 165.498 129.35C164.963 129.783 164.217 130 163.26 130H160.166V121.434ZM161.566 124.973H162.914C163.5 124.973 163.928 124.881 164.197 124.697C164.467 124.51 164.602 124.193 164.602 123.748C164.602 123.346 164.455 123.055 164.162 122.875C163.873 122.695 163.412 122.605 162.779 122.605H161.566V124.973ZM161.566 126.109V128.822H163.055C163.641 128.822 164.082 128.711 164.379 128.488C164.68 128.262 164.83 127.906 164.83 127.422C164.83 126.977 164.678 126.646 164.373 126.432C164.068 126.217 163.605 126.109 162.984 126.109H161.566Z" fill="#28232D"/>
<path d="M170.279 126.713C170.279 127.74 170.127 128.697 169.822 129.584C169.521 130.471 169.086 131.242 168.516 131.898H167.326C167.865 131.168 168.277 130.357 168.562 129.467C168.852 128.576 168.996 127.654 168.996 126.701C168.996 125.744 168.852 124.812 168.562 123.906C168.273 122.996 167.857 122.172 167.314 121.434H168.516C169.09 122.117 169.527 122.912 169.828 123.818C170.129 124.721 170.279 125.686 170.279 126.713Z" fill="#28232D"/>
<rect x="46.5" y="107.5" width="138" height="36" rx="5.5" stroke="#305680" stroke-opacity="0.4"/>
<rect x="286" y="107" width="139" height="37" rx="6" fill="white"/>
<path d="M299 128C299 127.448 299.448 127 300 127H302V132H300C299.448 132 299 131.552 299 131V128Z" fill="#305680"/>
<path fill-rule="evenodd" clip-rule="evenodd" d="M301 128H300L300 131H301V128ZM300 127C299.448 127 299 127.448 299 128V131C299 131.552 299.448 132 300 132H302V127H300Z" fill="#305680"/>
<path fill-rule="evenodd" clip-rule="evenodd" d="M301 121C301 120.448 301.448 120 302 120H309C309.552 120 310 120.448 310 121V131C310 131.552 309.552 132 309 132H302C301.448 132 301 131.552 301 131V121ZM303 122H305V124H303V122ZM305 125H303V127H305V125ZM303 128H305V130H303V128ZM308 125H306V127H308V125ZM306 128H308V130H306V128ZM308 122H306V124H308V122Z" fill="#305680"/>
<path d="M327.445 130L326.59 127.621H323.314L322.477 130H321L324.205 121.398H325.729L328.934 130H327.445ZM326.221 126.414L325.418 124.082C325.359 123.926 325.277 123.68 325.172 123.344C325.07 123.008 325 122.762 324.961 122.605C324.855 123.086 324.701 123.611 324.498 124.182L323.725 126.414H326.221Z" fill="#28232D"/>
<path d="M334.271 128.154C334.271 128.787 334.041 129.273 333.58 129.613C333.119 129.949 332.459 130.117 331.6 130.117C330.736 130.117 330.043 129.986 329.52 129.725V128.535C330.281 128.887 330.99 129.062 331.646 129.062C332.494 129.062 332.918 128.807 332.918 128.295C332.918 128.131 332.871 127.994 332.777 127.885C332.684 127.775 332.529 127.662 332.314 127.545C332.1 127.428 331.801 127.295 331.418 127.146C330.672 126.857 330.166 126.568 329.9 126.279C329.639 125.99 329.508 125.615 329.508 125.154C329.508 124.6 329.73 124.17 330.176 123.865C330.625 123.557 331.234 123.402 332.004 123.402C332.766 123.402 333.486 123.557 334.166 123.865L333.721 124.902C333.021 124.613 332.434 124.469 331.957 124.469C331.23 124.469 330.867 124.676 330.867 125.09C330.867 125.293 330.961 125.465 331.148 125.605C331.34 125.746 331.754 125.939 332.391 126.186C332.926 126.393 333.314 126.582 333.557 126.754C333.799 126.926 333.979 127.125 334.096 127.352C334.213 127.574 334.271 127.842 334.271 128.154Z" fill="#28232D"/>
<path d="M340.119 128.154C340.119 128.787 339.889 129.273 339.428 129.613C338.967 129.949 338.307 130.117 337.447 130.117C336.584 130.117 335.891 129.986 335.367 129.725V128.535C336.129 128.887 336.838 129.062 337.494 129.062C338.342 129.062 338.766 128.807 338.766 128.295C338.766 128.131 338.719 127.994 338.625 127.885C338.531 127.775 338.377 127.662 338.162 127.545C337.947 127.428 337.648 127.295 337.266 127.146C336.52 126.857 336.014 126.568 335.748 126.279C335.486 125.99 335.355 125.615 335.355 125.154C335.355 124.6 335.578 124.17 336.023 123.865C336.473 123.557 337.082 123.402 337.852 123.402C338.613 123.402 339.334 123.557 340.014 123.865L339.568 124.902C338.869 124.613 338.281 124.469 337.805 124.469C337.078 124.469 336.715 124.676 336.715 125.09C336.715 125.293 336.809 125.465 336.996 125.605C337.188 125.746 337.602 125.939 338.238 126.186C338.773 126.393 339.162 126.582 339.404 126.754C339.646 126.926 339.826 127.125 339.943 127.352C340.061 127.574 340.119 127.842 340.119 128.154Z" fill="#28232D"/>
<path d="M344.443 130.117C343.436 130.117 342.646 129.824 342.076 129.238C341.51 128.648 341.227 127.838 341.227 126.807C341.227 125.748 341.49 124.916 342.018 124.311C342.545 123.705 343.27 123.402 344.191 123.402C345.047 123.402 345.723 123.662 346.219 124.182C346.715 124.701 346.963 125.416 346.963 126.326V127.07H342.645C342.664 127.699 342.834 128.184 343.154 128.523C343.475 128.859 343.926 129.027 344.508 129.027C344.891 129.027 345.246 128.992 345.574 128.922C345.906 128.848 346.262 128.727 346.641 128.559V129.678C346.305 129.838 345.965 129.951 345.621 130.018C345.277 130.084 344.885 130.117 344.443 130.117ZM344.191 124.445C343.754 124.445 343.402 124.584 343.137 124.861C342.875 125.139 342.719 125.543 342.668 126.074H345.609C345.602 125.539 345.473 125.135 345.223 124.861C344.973 124.584 344.629 124.445 344.191 124.445Z" fill="#28232D"/>
<path d="M350.941 129.004C351.277 129.004 351.613 128.951 351.949 128.846V129.883C351.797 129.949 351.6 130.004 351.357 130.047C351.119 130.094 350.871 130.117 350.613 130.117C349.309 130.117 348.656 129.43 348.656 128.055V124.562H347.771V123.953L348.721 123.449L349.189 122.078H350.039V123.52H351.885V124.562H350.039V128.031C350.039 128.363 350.121 128.609 350.285 128.77C350.453 128.926 350.672 129.004 350.941 129.004Z" fill="#28232D"/>
<path d="M355.863 126.713C355.863 125.678 356.014 124.709 356.314 123.807C356.619 122.904 357.057 122.113 357.627 121.434H358.828C358.285 122.168 357.869 122.992 357.58 123.906C357.291 124.816 357.146 125.748 357.146 126.701C357.146 127.654 357.291 128.578 357.58 129.473C357.869 130.367 358.281 131.176 358.816 131.898H357.627C357.053 131.234 356.615 130.459 356.314 129.572C356.014 128.686 355.863 127.732 355.863 126.713Z" fill="#28232D"/>
<path d="M367.078 130H365.672V126.139H361.723V130H360.322V121.434H361.723V124.938H365.672V121.434H367.078V130Z" fill="#28232D"/>
<path d="M374.936 126.748C374.936 127.807 374.664 128.633 374.121 129.227C373.578 129.82 372.822 130.117 371.854 130.117C371.248 130.117 370.713 129.98 370.248 129.707C369.783 129.434 369.426 129.041 369.176 128.529C368.926 128.018 368.801 127.424 368.801 126.748C368.801 125.697 369.07 124.877 369.609 124.287C370.148 123.697 370.908 123.402 371.889 123.402C372.826 123.402 373.568 123.705 374.115 124.311C374.662 124.912 374.936 125.725 374.936 126.748ZM370.219 126.748C370.219 128.244 370.771 128.992 371.877 128.992C372.971 128.992 373.518 128.244 373.518 126.748C373.518 125.268 372.967 124.527 371.865 124.527C371.287 124.527 370.867 124.719 370.605 125.102C370.348 125.484 370.219 126.033 370.219 126.748Z" fill="#28232D"/>
<path d="M381.094 130L380.9 129.15H380.83C380.639 129.451 380.365 129.688 380.01 129.859C379.658 130.031 379.256 130.117 378.803 130.117C378.018 130.117 377.432 129.922 377.045 129.531C376.658 129.141 376.465 128.549 376.465 127.756V123.52H377.854V127.516C377.854 128.012 377.955 128.385 378.158 128.635C378.361 128.881 378.68 129.004 379.113 129.004C379.691 129.004 380.115 128.832 380.385 128.488C380.658 128.141 380.795 127.561 380.795 126.748V123.52H382.178V130H381.094Z" fill="#28232D"/>
<path d="M388.494 128.154C388.494 128.787 388.264 129.273 387.803 129.613C387.342 129.949 386.682 130.117 385.822 130.117C384.959 130.117 384.266 129.986 383.742 129.725V128.535C384.504 128.887 385.213 129.062 385.869 129.062C386.717 129.062 387.141 128.807 387.141 128.295C387.141 128.131 387.094 127.994 387 127.885C386.906 127.775 386.752 127.662 386.537 127.545C386.322 127.428 386.023 127.295 385.641 127.146C384.895 126.857 384.389 126.568 384.123 126.279C383.861 125.99 383.73 125.615 383.73 125.154C383.73 124.6 383.953 124.17 384.398 123.865C384.848 123.557 385.457 123.402 386.227 123.402C386.988 123.402 387.709 123.557 388.389 123.865L387.943 124.902C387.244 124.613 386.656 124.469 386.18 124.469C385.453 124.469 385.09 124.676 385.09 125.09C385.09 125.293 385.184 125.465 385.371 125.605C385.562 125.746 385.977 125.939 386.613 126.186C387.148 126.393 387.537 126.582 387.779 126.754C388.021 126.926 388.201 127.125 388.318 127.352C388.436 127.574 388.494 127.842 388.494 128.154Z" fill="#28232D"/>
<path d="M392.818 130.117C391.811 130.117 391.021 129.824 390.451 129.238C389.885 128.648 389.602 127.838 389.602 126.807C389.602 125.748 389.865 124.916 390.393 124.311C390.92 123.705 391.645 123.402 392.566 123.402C393.422 123.402 394.098 123.662 394.594 124.182C395.09 124.701 395.338 125.416 395.338 126.326V127.07H391.02C391.039 127.699 391.209 128.184 391.529 128.523C391.85 128.859 392.301 129.027 392.883 129.027C393.266 129.027 393.621 128.992 393.949 128.922C394.281 128.848 394.637 128.727 395.016 128.559V129.678C394.68 129.838 394.34 129.951 393.996 130.018C393.652 130.084 393.26 130.117 392.818 130.117ZM392.566 124.445C392.129 124.445 391.777 124.584 391.512 124.861C391.25 125.139 391.094 125.543 391.043 126.074H393.984C393.977 125.539 393.848 125.135 393.598 124.861C393.348 124.584 393.004 124.445 392.566 124.445Z" fill="#28232D"/>
<path d="M403.811 122.512C403.006 122.512 402.373 122.797 401.912 123.367C401.451 123.938 401.221 124.725 401.221 125.729C401.221 126.779 401.441 127.574 401.883 128.113C402.328 128.652 402.971 128.922 403.811 128.922C404.174 128.922 404.525 128.887 404.865 128.816C405.205 128.742 405.559 128.648 405.926 128.535V129.736C405.254 129.99 404.492 130.117 403.641 130.117C402.387 130.117 401.424 129.738 400.752 128.98C400.08 128.219 399.744 127.131 399.744 125.717C399.744 124.826 399.906 124.047 400.23 123.379C400.559 122.711 401.031 122.199 401.648 121.844C402.266 121.488 402.99 121.311 403.822 121.311C404.697 121.311 405.506 121.494 406.248 121.861L405.744 123.027C405.455 122.891 405.148 122.771 404.824 122.67C404.504 122.564 404.166 122.512 403.811 122.512Z" fill="#28232D"/>
<path d="M409.963 126.713C409.963 127.74 409.811 128.697 409.506 129.584C409.205 130.471 408.77 131.242 408.199 131.898H407.01C407.549 131.168 407.961 130.357 408.246 129.467C408.535 128.576 408.68 127.654 408.68 126.701C408.68 125.744 408.535 124.812 408.246 123.906C407.957 122.996 407.541 122.172 406.998 121.434H408.199C408.773 122.117 409.211 122.912 409.512 123.818C409.812 124.721 409.963 125.686 409.963 126.713Z" fill="#28232D"/>
<rect x="286.5" y="107.5" width="138" height="36" rx="5.5" stroke="#305680" stroke-opacity="0.4"/>
<path d="M354.68 103.83C355.078 104.398 355.92 104.398 356.318 103.83L357.898 101.573C358.362 100.911 357.887 100 357.078 100L353.92 100C353.111 100 352.637 100.911 353.1 101.573L354.68 103.83Z" fill="#28232D"/>
<path fill-rule="evenodd" clip-rule="evenodd" d="M356 97.5L356 100L355 100L355 97.5C355 94.4624 352.538 92 349.5 92L245.5 92C241.91 92 239 89.0899 239 85.5L239 80L240 80L240 85.5C240 88.5376 242.462 91 245.5 91L349.5 91C353.09 91 356 93.9101 356 97.5Z" fill="#28232D"/>
<path d="M116.32 103.83C115.922 104.398 115.08 104.398 114.682 103.83L113.102 101.573C112.638 100.911 113.113 100 113.922 100L117.08 100C117.889 100 118.363 100.911 117.9 101.573L116.32 103.83Z" fill="#28232D"/>
<path fill-rule="evenodd" clip-rule="evenodd" d="M115 97.5L115 100L116 100L116 97.5C116 94.4624 118.462 92 121.5 92L225.5 92C229.09 92 232 89.0899 232 85.5L232 80L231 80L231 85.5C231 88.5376 228.538 91 225.5 91L121.5 91C117.91 91 115 93.9101 115 97.5Z" fill="#28232D"/>
<rect x="0.5" y="174.5" width="229" height="83" rx="9.5" fill="#F4F4F4"/>
<rect x="0.5" y="174.5" width="229" height="83" rx="9.5" fill="white"/>
<path d="M15.1309 244V235.434H16.5312V244H15.1309Z" fill="#28232D"/>
<path d="M21.9395 237.402C22.2168 237.402 22.4453 237.422 22.625 237.461L22.4902 238.744C22.2949 238.697 22.0918 238.674 21.8809 238.674C21.3301 238.674 20.8828 238.854 20.5391 239.213C20.1992 239.572 20.0293 240.039 20.0293 240.613V244H18.6523V237.52H19.7305L19.9121 238.662H19.9824C20.1973 238.275 20.4766 237.969 20.8203 237.742C21.168 237.516 21.541 237.402 21.9395 237.402Z" fill="#28232D"/>
<path d="M27.1191 237.402C27.3965 237.402 27.625 237.422 27.8047 237.461L27.6699 238.744C27.4746 238.697 27.2715 238.674 27.0605 238.674C26.5098 238.674 26.0625 238.854 25.7188 239.213C25.3789 239.572 25.209 240.039 25.209 240.613V244H23.832V237.52H24.9102L25.0918 238.662H25.1621C25.377 238.275 25.6562 237.969 26 237.742C26.3477 237.516 26.7207 237.402 27.1191 237.402Z" fill="#28232D"/>
<path d="M30.3887 244H29.0117V237.52H30.3887V244ZM28.9297 235.803C28.9297 235.557 28.9961 235.367 29.1289 235.234C29.2656 235.102 29.459 235.035 29.709 235.035C29.9512 235.035 30.1387 235.102 30.2715 235.234C30.4082 235.367 30.4766 235.557 30.4766 235.803C30.4766 236.037 30.4082 236.223 30.2715 236.359C30.1387 236.492 29.9512 236.559 29.709 236.559C29.459 236.559 29.2656 236.492 29.1289 236.359C28.9961 236.223 28.9297 236.037 28.9297 235.803Z" fill="#28232D"/>
<path d="M37.8359 237.52V238.275L36.7285 238.48C36.8301 238.617 36.9141 238.785 36.9805 238.984C37.0469 239.184 37.0801 239.395 37.0801 239.617C37.0801 240.285 36.8496 240.811 36.3887 241.193C35.9277 241.576 35.293 241.768 34.4844 241.768C34.2773 241.768 34.0898 241.752 33.9219 241.721C33.625 241.904 33.4766 242.119 33.4766 242.365C33.4766 242.514 33.5449 242.625 33.6816 242.699C33.8223 242.773 34.0781 242.811 34.4492 242.811H35.5801C36.2949 242.811 36.8379 242.963 37.209 243.268C37.5801 243.572 37.7656 244.012 37.7656 244.586C37.7656 245.32 37.4629 245.887 36.8574 246.285C36.252 246.684 35.377 246.883 34.2324 246.883C33.3496 246.883 32.6758 246.727 32.2109 246.414C31.7461 246.102 31.5137 245.656 31.5137 245.078C31.5137 244.68 31.6387 244.344 31.8887 244.07C32.1426 243.801 32.4961 243.613 32.9492 243.508C32.7656 243.43 32.6133 243.305 32.4922 243.133C32.375 242.957 32.3164 242.773 32.3164 242.582C32.3164 242.34 32.3848 242.135 32.5215 241.967C32.6582 241.799 32.8613 241.633 33.1309 241.469C32.7949 241.324 32.5215 241.09 32.3105 240.766C32.1035 240.438 32 240.055 32 239.617C32 238.914 32.2207 238.369 32.6621 237.982C33.1074 237.596 33.7402 237.402 34.5605 237.402C34.7441 237.402 34.9355 237.416 35.1348 237.443C35.3379 237.467 35.4902 237.492 35.5918 237.52H37.8359ZM32.7441 245.008C32.7441 245.305 32.877 245.533 33.1426 245.693C33.4121 245.854 33.7891 245.934 34.2734 245.934C35.0234 245.934 35.582 245.826 35.9492 245.611C36.3164 245.396 36.5 245.111 36.5 244.756C36.5 244.475 36.3984 244.273 36.1953 244.152C35.9961 244.035 35.623 243.977 35.0762 243.977H34.0332C33.6387 243.977 33.3242 244.068 33.0898 244.252C32.8594 244.439 32.7441 244.691 32.7441 245.008ZM33.3359 239.617C33.3359 240.023 33.4395 240.336 33.6465 240.555C33.8574 240.773 34.1582 240.883 34.5488 240.883C35.3457 240.883 35.7441 240.457 35.7441 239.605C35.7441 239.184 35.6445 238.859 35.4453 238.633C35.25 238.402 34.9512 238.287 34.5488 238.287C34.1504 238.287 33.8477 238.4 33.6406 238.627C33.4375 238.854 33.3359 239.184 33.3359 239.617Z" fill="#28232D"/>
<path d="M43.0977 244L42.8223 243.098H42.7754C42.4629 243.492 42.1484 243.762 41.832 243.906C41.5156 244.047 41.1094 244.117 40.6133 244.117C39.9766 244.117 39.4785 243.945 39.1191 243.602C38.7637 243.258 38.5859 242.771 38.5859 242.143C38.5859 241.475 38.834 240.971 39.3301 240.631C39.8262 240.291 40.582 240.105 41.5977 240.074L42.7168 240.039V239.693C42.7168 239.279 42.6191 238.971 42.4238 238.768C42.2324 238.561 41.9336 238.457 41.5273 238.457C41.1953 238.457 40.877 238.506 40.5723 238.604C40.2676 238.701 39.9746 238.816 39.6934 238.949L39.248 237.965C39.5996 237.781 39.9844 237.643 40.4023 237.549C40.8203 237.451 41.2148 237.402 41.5859 237.402C42.4102 237.402 43.0312 237.582 43.4492 237.941C43.8711 238.301 44.082 238.865 44.082 239.635V244H43.0977ZM41.0469 243.062C41.5469 243.062 41.9473 242.924 42.248 242.646C42.5527 242.365 42.7051 241.973 42.7051 241.469V240.906L41.873 240.941C41.2246 240.965 40.752 241.074 40.4551 241.27C40.1621 241.461 40.0156 241.756 40.0156 242.154C40.0156 242.443 40.1016 242.668 40.2734 242.828C40.4453 242.984 40.7031 243.062 41.0469 243.062Z" fill="#28232D"/>
<path d="M48.418 243.004C48.7539 243.004 49.0898 242.951 49.4258 242.846V243.883C49.2734 243.949 49.0762 244.004 48.834 244.047C48.5957 244.094 48.3477 244.117 48.0898 244.117C46.7852 244.117 46.1328 243.43 46.1328 242.055V238.562H45.248V237.953L46.1973 237.449L46.666 236.078H47.5156V237.52H49.3613V238.562H47.5156V242.031C47.5156 242.363 47.5977 242.609 47.7617 242.77C47.9297 242.926 48.1484 243.004 48.418 243.004Z" fill="#28232D"/>
<path d="M52.1035 244H50.7266V237.52H52.1035V244ZM50.6445 235.803C50.6445 235.557 50.7109 235.367 50.8438 235.234C50.9805 235.102 51.1738 235.035 51.4238 235.035C51.666 235.035 51.8535 235.102 51.9863 235.234C52.123 235.367 52.1914 235.557 52.1914 235.803C52.1914 236.037 52.123 236.223 51.9863 236.359C51.8535 236.492 51.666 236.559 51.4238 236.559C51.1738 236.559 50.9805 236.492 50.8438 236.359C50.7109 236.223 50.6445 236.037 50.6445 235.803Z" fill="#28232D"/>
<path d="M59.8262 240.748C59.8262 241.807 59.5547 242.633 59.0117 243.227C58.4688 243.82 57.7129 244.117 56.7441 244.117C56.1387 244.117 55.6035 243.98 55.1387 243.707C54.6738 243.434 54.3164 243.041 54.0664 242.529C53.8164 242.018 53.6914 241.424 53.6914 240.748C53.6914 239.697 53.9609 238.877 54.5 238.287C55.0391 237.697 55.7988 237.402 56.7793 237.402C57.7168 237.402 58.459 237.705 59.0059 238.311C59.5527 238.912 59.8262 239.725 59.8262 240.748ZM55.1094 240.748C55.1094 242.244 55.6621 242.992 56.7676 242.992C57.8613 242.992 58.4082 242.244 58.4082 240.748C58.4082 239.268 57.8574 238.527 56.7559 238.527C56.1777 238.527 55.7578 238.719 55.4961 239.102C55.2383 239.484 55.1094 240.033 55.1094 240.748Z" fill="#28232D"/>
<path d="M67.1152 244H65.7324V240.016C65.7324 239.516 65.6309 239.143 65.4277 238.896C65.2285 238.65 64.9102 238.527 64.4727 238.527C63.8906 238.527 63.4648 238.699 63.1953 239.043C62.9258 239.387 62.791 239.963 62.791 240.771V244H61.4141V237.52H62.4922L62.6855 238.369H62.7559C62.9512 238.061 63.2285 237.822 63.5879 237.654C63.9473 237.486 64.3457 237.402 64.7832 237.402C66.3379 237.402 67.1152 238.193 67.1152 239.775V244Z" fill="#28232D"/>
<path d="M76.502 242.154C76.502 242.787 76.2715 243.273 75.8105 243.613C75.3496 243.949 74.6895 244.117 73.8301 244.117C72.9668 244.117 72.2734 243.986 71.75 243.725V242.535C72.5117 242.887 73.2207 243.062 73.877 243.062C74.7246 243.062 75.1484 242.807 75.1484 242.295C75.1484 242.131 75.1016 241.994 75.0078 241.885C74.9141 241.775 74.7598 241.662 74.5449 241.545C74.3301 241.428 74.0312 241.295 73.6484 241.146C72.9023 240.857 72.3965 240.568 72.1309 240.279C71.8691 239.99 71.7383 239.615 71.7383 239.154C71.7383 238.6 71.9609 238.17 72.4062 237.865C72.8555 237.557 73.4648 237.402 74.2344 237.402C74.9961 237.402 75.7168 237.557 76.3965 237.865L75.9512 238.902C75.252 238.613 74.6641 238.469 74.1875 238.469C73.4609 238.469 73.0977 238.676 73.0977 239.09C73.0977 239.293 73.1914 239.465 73.3789 239.605C73.5703 239.746 73.9844 239.939 74.6211 240.186C75.1562 240.393 75.5449 240.582 75.7871 240.754C76.0293 240.926 76.209 241.125 76.3262 241.352C76.4434 241.574 76.502 241.842 76.502 242.154Z" fill="#28232D"/>
<path d="M77.0117 237.52H78.5117L79.8301 241.193C80.0293 241.717 80.1621 242.209 80.2285 242.67H80.2754C80.3105 242.455 80.375 242.195 80.4688 241.891C80.5625 241.582 81.0586 240.125 81.957 237.52H83.4453L80.6738 244.861C80.1699 246.209 79.3301 246.883 78.1543 246.883C77.8496 246.883 77.5527 246.85 77.2637 246.783V245.693C77.4707 245.74 77.707 245.764 77.9727 245.764C78.6367 245.764 79.1035 245.379 79.373 244.609L79.6133 244L77.0117 237.52Z" fill="#28232D"/>
<path d="M88.7832 242.154C88.7832 242.787 88.5527 243.273 88.0918 243.613C87.6309 243.949 86.9707 244.117 86.1113 244.117C85.248 244.117 84.5547 243.986 84.0312 243.725V242.535C84.793 242.887 85.502 243.062 86.1582 243.062C87.0059 243.062 87.4297 242.807 87.4297 242.295C87.4297 242.131 87.3828 241.994 87.2891 241.885C87.1953 241.775 87.041 241.662 86.8262 241.545C86.6113 241.428 86.3125 241.295 85.9297 241.146C85.1836 240.857 84.6777 240.568 84.4121 240.279C84.1504 239.99 84.0195 239.615 84.0195 239.154C84.0195 238.6 84.2422 238.17 84.6875 237.865C85.1367 237.557 85.7461 237.402 86.5156 237.402C87.2773 237.402 87.998 237.557 88.6777 237.865L88.2324 238.902C87.5332 238.613 86.9453 238.469 86.4688 238.469C85.7422 238.469 85.3789 238.676 85.3789 239.09C85.3789 239.293 85.4727 239.465 85.6602 239.605C85.8516 239.746 86.2656 239.939 86.9023 240.186C87.4375 240.393 87.8262 240.582 88.0684 240.754C88.3105 240.926 88.4902 241.125 88.6074 241.352C88.7246 241.574 88.7832 241.842 88.7832 242.154Z" fill="#28232D"/>
<path d="M92.6914 243.004C93.0273 243.004 93.3633 242.951 93.6992 242.846V243.883C93.5469 243.949 93.3496 244.004 93.1074 244.047C92.8691 244.094 92.6211 244.117 92.3633 244.117C91.0586 244.117 90.4062 243.43 90.4062 242.055V238.562H89.5215V237.953L90.4707 237.449L90.9395 236.078H91.7891V237.52H93.6348V238.562H91.7891V242.031C91.7891 242.363 91.8711 242.609 92.0352 242.77C92.2031 242.926 92.4219 243.004 92.6914 243.004Z" fill="#28232D"/>
<path d="M97.8301 244.117C96.8223 244.117 96.0332 243.824 95.4629 243.238C94.8965 242.648 94.6133 241.838 94.6133 240.807C94.6133 239.748 94.877 238.916 95.4043 238.311C95.9316 237.705 96.6562 237.402 97.5781 237.402C98.4336 237.402 99.1094 237.662 99.6055 238.182C100.102 238.701 100.35 239.416 100.35 240.326V241.07H96.0312C96.0508 241.699 96.2207 242.184 96.541 242.523C96.8613 242.859 97.3125 243.027 97.8945 243.027C98.2773 243.027 98.6328 242.992 98.9609 242.922C99.293 242.848 99.6484 242.727 100.027 242.559V243.678C99.6914 243.838 99.3516 243.951 99.0078 244.018C98.6641 244.084 98.2715 244.117 97.8301 244.117ZM97.5781 238.445C97.1406 238.445 96.7891 238.584 96.5234 238.861C96.2617 239.139 96.1055 239.543 96.0547 240.074H98.9961C98.9883 239.539 98.8594 239.135 98.6094 238.861C98.3594 238.584 98.0156 238.445 97.5781 238.445Z" fill="#28232D"/>
<path d="M107.375 244H105.992V240.004C105.992 239.508 105.898 239.139 105.711 238.896C105.523 238.65 105.23 238.527 104.832 238.527C104.301 238.527 103.91 238.701 103.66 239.049C103.414 239.393 103.291 239.967 103.291 240.771V244H101.914V237.52H102.992L103.186 238.369H103.256C103.436 238.061 103.695 237.822 104.035 237.654C104.379 237.486 104.756 237.402 105.166 237.402C106.162 237.402 106.822 237.742 107.146 238.422H107.24C107.432 238.102 107.701 237.852 108.049 237.672C108.396 237.492 108.795 237.402 109.244 237.402C110.018 237.402 110.58 237.598 110.932 237.988C111.287 238.379 111.465 238.975 111.465 239.775V244H110.088V240.004C110.088 239.508 109.992 239.139 109.801 238.896C109.613 238.65 109.32 238.527 108.922 238.527C108.387 238.527 107.994 238.695 107.744 239.031C107.498 239.363 107.375 239.875 107.375 240.566V244Z" fill="#28232D"/>
<path d="M117.74 242.154C117.74 242.787 117.51 243.273 117.049 243.613C116.588 243.949 115.928 244.117 115.068 244.117C114.205 244.117 113.512 243.986 112.988 243.725V242.535C113.75 242.887 114.459 243.062 115.115 243.062C115.963 243.062 116.387 242.807 116.387 242.295C116.387 242.131 116.34 241.994 116.246 241.885C116.152 241.775 115.998 241.662 115.783 241.545C115.568 241.428 115.27 241.295 114.887 241.146C114.141 240.857 113.635 240.568 113.369 240.279C113.107 239.99 112.977 239.615 112.977 239.154C112.977 238.6 113.199 238.17 113.645 237.865C114.094 237.557 114.703 237.402 115.473 237.402C116.234 237.402 116.955 237.557 117.635 237.865L117.189 238.902C116.49 238.613 115.902 238.469 115.426 238.469C114.699 238.469 114.336 238.676 114.336 239.09C114.336 239.293 114.43 239.465 114.617 239.605C114.809 239.746 115.223 239.939 115.859 240.186C116.395 240.393 116.783 240.582 117.025 240.754C117.268 240.926 117.447 241.125 117.564 241.352C117.682 241.574 117.74 241.842 117.74 242.154Z" fill="#28232D"/>
<rect x="119" y="184" width="101" height="37" rx="6" fill="white"/>
<path fill-rule="evenodd" clip-rule="evenodd" d="M136 196.5C136 196.224 136.224 196 136.5 196C136.776 196 137 196.224 137 196.5V198H139V196.5C139 196.224 139.224 196 139.5 196C139.776 196 140 196.224 140 196.5V198H141C142.105 198 143 198.895 143 200V201H144.5C144.776 201 145 201.224 145 201.5C145 201.776 144.776 202 144.5 202H143V204H144.5C144.776 204 145 204.224 145 204.5C145 204.776 144.776 205 144.5 205H143V206C143 207.105 142.105 208 141 208H140V209.5C140 209.776 139.776 210 139.5 210C139.224 210 139 209.776 139 209.5V208H137V209.5C137 209.776 136.776 210 136.5 210C136.224 210 136 209.776 136 209.5V208H135C133.895 208 133 207.105 133 206V205H131.5C131.224 205 131 204.776 131 204.5C131 204.224 131.224 204 131.5 204H133V202H131.5C131.224 202 131 201.776 131 201.5C131 201.224 131.224 201 131.5 201H133V200C133 198.895 133.895 198 135 198H136V196.5ZM136 203C136 201.895 136.895 201 138 201C139.105 201 140 201.895 140 203C140 204.105 139.105 205 138 205C136.895 205 136 204.105 136 203ZM138 202C137.448 202 137 202.448 137 203C137 203.552 137.448 204 138 204C138.552 204 139 203.552 139 203C139 202.448 138.552 202 138 202Z" fill="#305680"/>
<path d="M162.098 202.635C162.098 204.049 161.705 205.131 160.92 205.881C160.135 206.627 159.004 207 157.527 207H155.131V198.434H157.779C159.143 198.434 160.203 198.801 160.961 199.535C161.719 200.27 162.098 201.303 162.098 202.635ZM160.621 202.682C160.621 200.631 159.662 199.605 157.744 199.605H156.531V205.822H157.527C159.59 205.822 160.621 204.775 160.621 202.682Z" fill="#28232D"/>
<path d="M166.627 207.117C165.619 207.117 164.83 206.824 164.26 206.238C163.693 205.648 163.41 204.838 163.41 203.807C163.41 202.748 163.674 201.916 164.201 201.311C164.729 200.705 165.453 200.402 166.375 200.402C167.23 200.402 167.906 200.662 168.402 201.182C168.898 201.701 169.146 202.416 169.146 203.326V204.07H164.828C164.848 204.699 165.018 205.184 165.338 205.523C165.658 205.859 166.109 206.027 166.691 206.027C167.074 206.027 167.43 205.992 167.758 205.922C168.09 205.848 168.445 205.727 168.824 205.559V206.678C168.488 206.838 168.148 206.951 167.805 207.018C167.461 207.084 167.068 207.117 166.627 207.117ZM166.375 201.445C165.938 201.445 165.586 201.584 165.32 201.861C165.059 202.139 164.902 202.543 164.852 203.074H167.793C167.785 202.539 167.656 202.135 167.406 201.861C167.156 201.584 166.812 201.445 166.375 201.445Z" fill="#28232D"/>
<path d="M172.188 207L169.727 200.52H171.18L172.498 204.287C172.725 204.92 172.861 205.432 172.908 205.822H172.955C172.99 205.541 173.127 205.029 173.365 204.287L174.684 200.52H176.148L173.676 207H172.188Z" fill="#28232D"/>
<path d="M178.51 207H177.133V200.52H178.51V207ZM177.051 198.803C177.051 198.557 177.117 198.367 177.25 198.234C177.387 198.102 177.58 198.035 177.83 198.035C178.072 198.035 178.26 198.102 178.393 198.234C178.529 198.367 178.598 198.557 178.598 198.803C178.598 199.037 178.529 199.223 178.393 199.359C178.26 199.492 178.072 199.559 177.83 199.559C177.58 199.559 177.387 199.492 177.25 199.359C177.117 199.223 177.051 199.037 177.051 198.803Z" fill="#28232D"/>
<path d="M183.098 207.117C182.117 207.117 181.371 206.832 180.859 206.262C180.352 205.688 180.098 204.865 180.098 203.795C180.098 202.705 180.363 201.867 180.895 201.281C181.43 200.695 182.201 200.402 183.209 200.402C183.893 200.402 184.508 200.529 185.055 200.783L184.639 201.891C184.057 201.664 183.576 201.551 183.197 201.551C182.076 201.551 181.516 202.295 181.516 203.783C181.516 204.51 181.654 205.057 181.932 205.424C182.213 205.787 182.623 205.969 183.162 205.969C183.775 205.969 184.355 205.816 184.902 205.512V206.713C184.656 206.857 184.393 206.961 184.111 207.023C183.834 207.086 183.496 207.117 183.098 207.117Z" fill="#28232D"/>
<path d="M189.256 207.117C188.248 207.117 187.459 206.824 186.889 206.238C186.322 205.648 186.039 204.838 186.039 203.807C186.039 202.748 186.303 201.916 186.83 201.311C187.357 200.705 188.082 200.402 189.004 200.402C189.859 200.402 190.535 200.662 191.031 201.182C191.527 201.701 191.775 202.416 191.775 203.326V204.07H187.457C187.477 204.699 187.646 205.184 187.967 205.523C188.287 205.859 188.738 206.027 189.32 206.027C189.703 206.027 190.059 205.992 190.387 205.922C190.719 205.848 191.074 205.727 191.453 205.559V206.678C191.117 206.838 190.777 206.951 190.434 207.018C190.09 207.084 189.697 207.117 189.256 207.117ZM189.004 201.445C188.566 201.445 188.215 201.584 187.949 201.861C187.688 202.139 187.531 202.543 187.48 203.074H190.422C190.414 202.539 190.285 202.135 190.035 201.861C189.785 201.584 189.441 201.445 189.004 201.445Z" fill="#28232D"/>
<path d="M200.107 202.354H203.26V206.654C202.744 206.822 202.248 206.941 201.771 207.012C201.299 207.082 200.787 207.117 200.236 207.117C198.939 207.117 197.939 206.734 197.236 205.969C196.533 205.199 196.182 204.115 196.182 202.717C196.182 201.338 196.578 200.26 197.371 199.482C198.164 198.701 199.256 198.311 200.646 198.311C201.541 198.311 202.389 198.482 203.189 198.826L202.697 199.992C202.002 199.672 201.307 199.512 200.611 199.512C199.697 199.512 198.975 199.799 198.443 200.373C197.912 200.947 197.646 201.732 197.646 202.729C197.646 203.775 197.885 204.572 198.361 205.119C198.842 205.662 199.531 205.934 200.43 205.934C200.883 205.934 201.367 205.877 201.883 205.764V203.555H200.107V202.354Z" fill="#28232D"/>
<rect x="119.5" y="184.5" width="100" height="36" rx="5.5" stroke="#305680" stroke-opacity="0.4"/>
<rect x="10" y="184" width="101" height="37" rx="6" fill="white"/>
<path fill-rule="evenodd" clip-rule="evenodd" d="M27 196.5C27 196.224 27.2239 196 27.5 196C27.7761 196 28 196.224 28 196.5V198H30V196.5C30 196.224 30.2239 196 30.5 196C30.7761 196 31 196.224 31 196.5V198H32C33.1046 198 34 198.895 34 200V201H35.5C35.7761 201 36 201.224 36 201.5C36 201.776 35.7761 202 35.5 202H34V204H35.5C35.7761 204 36 204.224 36 204.5C36 204.776 35.7761 205 35.5 205H34V206C34 207.105 33.1046 208 32 208H31V209.5C31 209.776 30.7761 210 30.5 210C30.2239 210 30 209.776 30 209.5V208H28V209.5C28 209.776 27.7761 210 27.5 210C27.2239 210 27 209.776 27 209.5V208H26C24.8954 208 24 207.105 24 206V205H22.5C22.2239 205 22 204.776 22 204.5C22 204.224 22.2239 204 22.5 204H24V202H22.5C22.2239 202 22 201.776 22 201.5C22 201.224 22.2239 201 22.5 201H24V200C24 198.895 24.8954 198 26 198H27V196.5ZM27 203C27 201.895 27.8954 201 29 201C30.1046 201 31 201.895 31 203C31 204.105 30.1046 205 29 205C27.8954 205 27 204.105 27 203ZM29 202C28.4477 202 28 202.448 28 203C28 203.552 28.4477 204 29 204C29.5523 204 30 203.552 30 203C30 202.448 29.5523 202 29 202Z" fill="#305680"/>
<path d="M53.0977 202.635C53.0977 204.049 52.7051 205.131 51.9199 205.881C51.1348 206.627 50.0039 207 48.5273 207H46.1309V198.434H48.7793C50.1426 198.434 51.2031 198.801 51.9609 199.535C52.7188 200.27 53.0977 201.303 53.0977 202.635ZM51.6211 202.682C51.6211 200.631 50.6621 199.605 48.7441 199.605H47.5312V205.822H48.5273C50.5898 205.822 51.6211 204.775 51.6211 202.682Z" fill="#28232D"/>
<path d="M57.627 207.117C56.6191 207.117 55.8301 206.824 55.2598 206.238C54.6934 205.648 54.4102 204.838 54.4102 203.807C54.4102 202.748 54.6738 201.916 55.2012 201.311C55.7285 200.705 56.4531 200.402 57.375 200.402C58.2305 200.402 58.9062 200.662 59.4023 201.182C59.8984 201.701 60.1465 202.416 60.1465 203.326V204.07H55.8281C55.8477 204.699 56.0176 205.184 56.3379 205.523C56.6582 205.859 57.1094 206.027 57.6914 206.027C58.0742 206.027 58.4297 205.992 58.7578 205.922C59.0898 205.848 59.4453 205.727 59.8242 205.559V206.678C59.4883 206.838 59.1484 206.951 58.8047 207.018C58.4609 207.084 58.0684 207.117 57.627 207.117ZM57.375 201.445C56.9375 201.445 56.5859 201.584 56.3203 201.861C56.0586 202.139 55.9023 202.543 55.8516 203.074H58.793C58.7852 202.539 58.6562 202.135 58.4062 201.861C58.1562 201.584 57.8125 201.445 57.375 201.445Z" fill="#28232D"/>
<path d="M63.1875 207L60.7266 200.52H62.1797L63.498 204.287C63.7246 204.92 63.8613 205.432 63.9082 205.822H63.9551C63.9902 205.541 64.127 205.029 64.3652 204.287L65.6836 200.52H67.1484L64.6758 207H63.1875Z" fill="#28232D"/>
<path d="M69.5098 207H68.1328V200.52H69.5098V207ZM68.0508 198.803C68.0508 198.557 68.1172 198.367 68.25 198.234C68.3867 198.102 68.5801 198.035 68.8301 198.035C69.0723 198.035 69.2598 198.102 69.3926 198.234C69.5293 198.367 69.5977 198.557 69.5977 198.803C69.5977 199.037 69.5293 199.223 69.3926 199.359C69.2598 199.492 69.0723 199.559 68.8301 199.559C68.5801 199.559 68.3867 199.492 68.25 199.359C68.1172 199.223 68.0508 199.037 68.0508 198.803Z" fill="#28232D"/>
<path d="M74.0977 207.117C73.1172 207.117 72.3711 206.832 71.8594 206.262C71.3516 205.688 71.0977 204.865 71.0977 203.795C71.0977 202.705 71.3633 201.867 71.8945 201.281C72.4297 200.695 73.2012 200.402 74.209 200.402C74.8926 200.402 75.5078 200.529 76.0547 200.783L75.6387 201.891C75.0566 201.664 74.5762 201.551 74.1973 201.551C73.0762 201.551 72.5156 202.295 72.5156 203.783C72.5156 204.51 72.6543 205.057 72.9316 205.424C73.2129 205.787 73.623 205.969 74.1621 205.969C74.7754 205.969 75.3555 205.816 75.9023 205.512V206.713C75.6562 206.857 75.3926 206.961 75.1113 207.023C74.834 207.086 74.4961 207.117 74.0977 207.117Z" fill="#28232D"/>
<path d="M80.2559 207.117C79.248 207.117 78.459 206.824 77.8887 206.238C77.3223 205.648 77.0391 204.838 77.0391 203.807C77.0391 202.748 77.3027 201.916 77.8301 201.311C78.3574 200.705 79.082 200.402 80.0039 200.402C80.8594 200.402 81.5352 200.662 82.0312 201.182C82.5273 201.701 82.7754 202.416 82.7754 203.326V204.07H78.457C78.4766 204.699 78.6465 205.184 78.9668 205.523C79.2871 205.859 79.7383 206.027 80.3203 206.027C80.7031 206.027 81.0586 205.992 81.3867 205.922C81.7188 205.848 82.0742 205.727 82.4531 205.559V206.678C82.1172 206.838 81.7773 206.951 81.4336 207.018C81.0898 207.084 80.6973 207.117 80.2559 207.117ZM80.0039 201.445C79.5664 201.445 79.2148 201.584 78.9492 201.861C78.6875 202.139 78.5312 202.543 78.4805 203.074H81.4219C81.4141 202.539 81.2852 202.135 81.0352 201.861C80.7852 201.584 80.4414 201.445 80.0039 201.445Z" fill="#28232D"/>
<path d="M92.4492 207H87.6035V198.434H92.4492V199.617H89.0039V201.949H92.2324V203.121H89.0039V205.811H92.4492V207Z" fill="#28232D"/>
<rect x="10.5" y="184.5" width="100" height="36" rx="5.5" stroke="#305680" stroke-opacity="0.4"/>
<rect x="0.5" y="174.5" width="229" height="83" rx="9.5" stroke="#B7B7B7" stroke-linecap="round" stroke-dasharray="5 5"/>
<rect x="241.5" y="174.5" width="229" height="83" rx="9.5" fill="#F4F4F4"/>
<rect x="241.5" y="174.5" width="229" height="83" rx="9.5" fill="white"/>
<path d="M259.834 244L257.35 236.846H257.303C257.369 237.908 257.402 238.904 257.402 239.834V244H256.131V235.434H258.105L260.484 242.248H260.52L262.969 235.434H264.949V244H263.602V239.764C263.602 239.338 263.611 238.783 263.631 238.1C263.654 237.416 263.674 237.002 263.689 236.857H263.643L261.07 244H259.834Z" fill="#28232D"/>
<path d="M272.807 240.748C272.807 241.807 272.535 242.633 271.992 243.227C271.449 243.82 270.693 244.117 269.725 244.117C269.119 244.117 268.584 243.98 268.119 243.707C267.654 243.434 267.297 243.041 267.047 242.529C266.797 242.018 266.672 241.424 266.672 240.748C266.672 239.697 266.941 238.877 267.48 238.287C268.02 237.697 268.779 237.402 269.76 237.402C270.697 237.402 271.439 237.705 271.986 238.311C272.533 238.912 272.807 239.725 272.807 240.748ZM268.09 240.748C268.09 242.244 268.643 242.992 269.748 242.992C270.842 242.992 271.389 242.244 271.389 240.748C271.389 239.268 270.838 238.527 269.736 238.527C269.158 238.527 268.738 238.719 268.477 239.102C268.219 239.484 268.09 240.033 268.09 240.748Z" fill="#28232D"/>
<path d="M275.771 244H274.395V237.52H275.771V244ZM274.312 235.803C274.312 235.557 274.379 235.367 274.512 235.234C274.648 235.102 274.842 235.035 275.092 235.035C275.334 235.035 275.521 235.102 275.654 235.234C275.791 235.367 275.859 235.557 275.859 235.803C275.859 236.037 275.791 236.223 275.654 236.359C275.521 236.492 275.334 236.559 275.092 236.559C274.842 236.559 274.648 236.492 274.512 236.359C274.379 236.223 274.312 236.037 274.312 235.803Z" fill="#28232D"/>
<path d="M282.1 242.154C282.1 242.787 281.869 243.273 281.408 243.613C280.947 243.949 280.287 244.117 279.428 244.117C278.564 244.117 277.871 243.986 277.348 243.725V242.535C278.109 242.887 278.818 243.062 279.475 243.062C280.322 243.062 280.746 242.807 280.746 242.295C280.746 242.131 280.699 241.994 280.605 241.885C280.512 241.775 280.357 241.662 280.143 241.545C279.928 241.428 279.629 241.295 279.246 241.146C278.5 240.857 277.994 240.568 277.729 240.279C277.467 239.99 277.336 239.615 277.336 239.154C277.336 238.6 277.559 238.17 278.004 237.865C278.453 237.557 279.062 237.402 279.832 237.402C280.594 237.402 281.314 237.557 281.994 237.865L281.549 238.902C280.85 238.613 280.262 238.469 279.785 238.469C279.059 238.469 278.695 238.676 278.695 239.09C278.695 239.293 278.789 239.465 278.977 239.605C279.168 239.746 279.582 239.939 280.219 240.186C280.754 240.393 281.143 240.582 281.385 240.754C281.627 240.926 281.807 241.125 281.924 241.352C282.041 241.574 282.1 241.842 282.1 242.154Z" fill="#28232D"/>
<path d="M286.008 243.004C286.344 243.004 286.68 242.951 287.016 242.846V243.883C286.863 243.949 286.666 244.004 286.424 244.047C286.186 244.094 285.938 244.117 285.68 244.117C284.375 244.117 283.723 243.43 283.723 242.055V238.562H282.838V237.953L283.787 237.449L284.256 236.078H285.105V237.52H286.951V238.562H285.105V242.031C285.105 242.363 285.188 242.609 285.352 242.77C285.52 242.926 285.738 243.004 286.008 243.004Z" fill="#28232D"/>
<path d="M292.887 244L292.693 243.15H292.623C292.432 243.451 292.158 243.688 291.803 243.859C291.451 244.031 291.049 244.117 290.596 244.117C289.811 244.117 289.225 243.922 288.838 243.531C288.451 243.141 288.258 242.549 288.258 241.756V237.52H289.646V241.516C289.646 242.012 289.748 242.385 289.951 242.635C290.154 242.881 290.473 243.004 290.906 243.004C291.484 243.004 291.908 242.832 292.178 242.488C292.451 242.141 292.588 241.561 292.588 240.748V237.52H293.971V244H292.887Z" fill="#28232D"/>
<path d="M299.221 237.402C299.498 237.402 299.727 237.422 299.906 237.461L299.771 238.744C299.576 238.697 299.373 238.674 299.162 238.674C298.611 238.674 298.164 238.854 297.82 239.213C297.48 239.572 297.311 240.039 297.311 240.613V244H295.934V237.52H297.012L297.193 238.662H297.264C297.479 238.275 297.758 237.969 298.102 237.742C298.449 237.516 298.822 237.402 299.221 237.402Z" fill="#28232D"/>
<path d="M303.943 244.117C302.936 244.117 302.146 243.824 301.576 243.238C301.01 242.648 300.727 241.838 300.727 240.807C300.727 239.748 300.99 238.916 301.518 238.311C302.045 237.705 302.77 237.402 303.691 237.402C304.547 237.402 305.223 237.662 305.719 238.182C306.215 238.701 306.463 239.416 306.463 240.326V241.07H302.145C302.164 241.699 302.334 242.184 302.654 242.523C302.975 242.859 303.426 243.027 304.008 243.027C304.391 243.027 304.746 242.992 305.074 242.922C305.406 242.848 305.762 242.727 306.141 242.559V243.678C305.805 243.838 305.465 243.951 305.121 244.018C304.777 244.084 304.385 244.117 303.943 244.117ZM303.691 238.445C303.254 238.445 302.902 238.584 302.637 238.861C302.375 239.139 302.219 239.543 302.168 240.074H305.109C305.102 239.539 304.973 239.135 304.723 238.861C304.473 238.584 304.129 238.445 303.691 238.445Z" fill="#28232D"/>
<path d="M315.498 242.154C315.498 242.787 315.268 243.273 314.807 243.613C314.346 243.949 313.686 244.117 312.826 244.117C311.963 244.117 311.27 243.986 310.746 243.725V242.535C311.508 242.887 312.217 243.062 312.873 243.062C313.721 243.062 314.145 242.807 314.145 242.295C314.145 242.131 314.098 241.994 314.004 241.885C313.91 241.775 313.756 241.662 313.541 241.545C313.326 241.428 313.027 241.295 312.645 241.146C311.898 240.857 311.393 240.568 311.127 240.279C310.865 239.99 310.734 239.615 310.734 239.154C310.734 238.6 310.957 238.17 311.402 237.865C311.852 237.557 312.461 237.402 313.23 237.402C313.992 237.402 314.713 237.557 315.393 237.865L314.947 238.902C314.248 238.613 313.66 238.469 313.184 238.469C312.457 238.469 312.094 238.676 312.094 239.09C312.094 239.293 312.188 239.465 312.375 239.605C312.566 239.746 312.98 239.939 313.617 240.186C314.152 240.393 314.541 240.582 314.783 240.754C315.025 240.926 315.205 241.125 315.322 241.352C315.439 241.574 315.498 241.842 315.498 242.154Z" fill="#28232D"/>
<path d="M319.822 244.117C318.814 244.117 318.025 243.824 317.455 243.238C316.889 242.648 316.605 241.838 316.605 240.807C316.605 239.748 316.869 238.916 317.396 238.311C317.924 237.705 318.648 237.402 319.57 237.402C320.426 237.402 321.102 237.662 321.598 238.182C322.094 238.701 322.342 239.416 322.342 240.326V241.07H318.023C318.043 241.699 318.213 242.184 318.533 242.523C318.854 242.859 319.305 243.027 319.887 243.027C320.27 243.027 320.625 242.992 320.953 242.922C321.285 242.848 321.641 242.727 322.02 242.559V243.678C321.684 243.838 321.344 243.951 321 244.018C320.656 244.084 320.264 244.117 319.822 244.117ZM319.57 238.445C319.133 238.445 318.781 238.584 318.516 238.861C318.254 239.139 318.098 239.543 318.047 240.074H320.988C320.98 239.539 320.852 239.135 320.602 238.861C320.352 238.584 320.008 238.445 319.57 238.445Z" fill="#28232D"/>
<path d="M329.607 244H328.225V240.016C328.225 239.516 328.123 239.143 327.92 238.896C327.721 238.65 327.402 238.527 326.965 238.527C326.383 238.527 325.957 238.699 325.688 239.043C325.418 239.387 325.283 239.963 325.283 240.771V244H323.906V237.52H324.984L325.178 238.369H325.248C325.443 238.061 325.721 237.822 326.08 237.654C326.439 237.486 326.838 237.402 327.275 237.402C328.83 237.402 329.607 238.193 329.607 239.775V244Z" fill="#28232D"/>
<path d="M335.877 242.154C335.877 242.787 335.646 243.273 335.186 243.613C334.725 243.949 334.064 244.117 333.205 244.117C332.342 244.117 331.648 243.986 331.125 243.725V242.535C331.887 242.887 332.596 243.062 333.252 243.062C334.1 243.062 334.523 242.807 334.523 242.295C334.523 242.131 334.477 241.994 334.383 241.885C334.289 241.775 334.135 241.662 333.92 241.545C333.705 241.428 333.406 241.295 333.023 241.146C332.277 240.857 331.771 240.568 331.506 240.279C331.244 239.99 331.113 239.615 331.113 239.154C331.113 238.6 331.336 238.17 331.781 237.865C332.23 237.557 332.84 237.402 333.609 237.402C334.371 237.402 335.092 237.557 335.771 237.865L335.326 238.902C334.627 238.613 334.039 238.469 333.562 238.469C332.836 238.469 332.473 238.676 332.473 239.09C332.473 239.293 332.566 239.465 332.754 239.605C332.945 239.746 333.359 239.939 333.996 240.186C334.531 240.393 334.92 240.582 335.162 240.754C335.404 240.926 335.584 241.125 335.701 241.352C335.818 241.574 335.877 241.842 335.877 242.154Z" fill="#28232D"/>
<path d="M343.119 240.748C343.119 241.807 342.848 242.633 342.305 243.227C341.762 243.82 341.006 244.117 340.037 244.117C339.432 244.117 338.896 243.98 338.432 243.707C337.967 243.434 337.609 243.041 337.359 242.529C337.109 242.018 336.984 241.424 336.984 240.748C336.984 239.697 337.254 238.877 337.793 238.287C338.332 237.697 339.092 237.402 340.072 237.402C341.01 237.402 341.752 237.705 342.299 238.311C342.846 238.912 343.119 239.725 343.119 240.748ZM338.402 240.748C338.402 242.244 338.955 242.992 340.061 242.992C341.154 242.992 341.701 242.244 341.701 240.748C341.701 239.268 341.15 238.527 340.049 238.527C339.471 238.527 339.051 238.719 338.789 239.102C338.531 239.484 338.402 240.033 338.402 240.748Z" fill="#28232D"/>
<path d="M347.994 237.402C348.271 237.402 348.5 237.422 348.68 237.461L348.545 238.744C348.35 238.697 348.146 238.674 347.936 238.674C347.385 238.674 346.938 238.854 346.594 239.213C346.254 239.572 346.084 240.039 346.084 240.613V244H344.707V237.52H345.785L345.967 238.662H346.037C346.252 238.275 346.531 237.969 346.875 237.742C347.223 237.516 347.596 237.402 347.994 237.402Z" fill="#28232D"/>
<path d="M354.24 242.154C354.24 242.787 354.01 243.273 353.549 243.613C353.088 243.949 352.428 244.117 351.568 244.117C350.705 244.117 350.012 243.986 349.488 243.725V242.535C350.25 242.887 350.959 243.062 351.615 243.062C352.463 243.062 352.887 242.807 352.887 242.295C352.887 242.131 352.84 241.994 352.746 241.885C352.652 241.775 352.498 241.662 352.283 241.545C352.068 241.428 351.77 241.295 351.387 241.146C350.641 240.857 350.135 240.568 349.869 240.279C349.607 239.99 349.477 239.615 349.477 239.154C349.477 238.6 349.699 238.17 350.145 237.865C350.594 237.557 351.203 237.402 351.973 237.402C352.734 237.402 353.455 237.557 354.135 237.865L353.689 238.902C352.99 238.613 352.402 238.469 351.926 238.469C351.199 238.469 350.836 238.676 350.836 239.09C350.836 239.293 350.93 239.465 351.117 239.605C351.309 239.746 351.723 239.939 352.359 240.186C352.895 240.393 353.283 240.582 353.525 240.754C353.768 240.926 353.947 241.125 354.064 241.352C354.182 241.574 354.24 241.842 354.24 242.154Z" fill="#28232D"/>
<rect x="360" y="184" width="101" height="37" rx="6" fill="white"/>
<path fill-rule="evenodd" clip-rule="evenodd" d="M377 196.5C377 196.224 377.224 196 377.5 196C377.776 196 378 196.224 378 196.5V198H380V196.5C380 196.224 380.224 196 380.5 196C380.776 196 381 196.224 381 196.5V198H382C383.105 198 384 198.895 384 200V201H385.5C385.776 201 386 201.224 386 201.5C386 201.776 385.776 202 385.5 202H384V204H385.5C385.776 204 386 204.224 386 204.5C386 204.776 385.776 205 385.5 205H384V206C384 207.105 383.105 208 382 208H381V209.5C381 209.776 380.776 210 380.5 210C380.224 210 380 209.776 380 209.5V208H378V209.5C378 209.776 377.776 210 377.5 210C377.224 210 377 209.776 377 209.5V208H376C374.895 208 374 207.105 374 206V205H372.5C372.224 205 372 204.776 372 204.5C372 204.224 372.224 204 372.5 204H374V202H372.5C372.224 202 372 201.776 372 201.5C372 201.224 372.224 201 372.5 201H374V200C374 198.895 374.895 198 376 198H377V196.5ZM377 203C377 201.895 377.895 201 379 201C380.105 201 381 201.895 381 203C381 204.105 380.105 205 379 205C377.895 205 377 204.105 377 203ZM379 202C378.448 202 378 202.448 378 203C378 203.552 378.448 204 379 204C379.552 204 380 203.552 380 203C380 202.448 379.552 202 379 202Z" fill="#305680"/>
<path d="M403.098 202.635C403.098 204.049 402.705 205.131 401.92 205.881C401.135 206.627 400.004 207 398.527 207H396.131V198.434H398.779C400.143 198.434 401.203 198.801 401.961 199.535C402.719 200.27 403.098 201.303 403.098 202.635ZM401.621 202.682C401.621 200.631 400.662 199.605 398.744 199.605H397.531V205.822H398.527C400.59 205.822 401.621 204.775 401.621 202.682Z" fill="#28232D"/>
<path d="M407.627 207.117C406.619 207.117 405.83 206.824 405.26 206.238C404.693 205.648 404.41 204.838 404.41 203.807C404.41 202.748 404.674 201.916 405.201 201.311C405.729 200.705 406.453 200.402 407.375 200.402C408.23 200.402 408.906 200.662 409.402 201.182C409.898 201.701 410.146 202.416 410.146 203.326V204.07H405.828C405.848 204.699 406.018 205.184 406.338 205.523C406.658 205.859 407.109 206.027 407.691 206.027C408.074 206.027 408.43 205.992 408.758 205.922C409.09 205.848 409.445 205.727 409.824 205.559V206.678C409.488 206.838 409.148 206.951 408.805 207.018C408.461 207.084 408.068 207.117 407.627 207.117ZM407.375 201.445C406.938 201.445 406.586 201.584 406.32 201.861C406.059 202.139 405.902 202.543 405.852 203.074H408.793C408.785 202.539 408.656 202.135 408.406 201.861C408.156 201.584 407.812 201.445 407.375 201.445Z" fill="#28232D"/>
<path d="M413.188 207L410.727 200.52H412.18L413.498 204.287C413.725 204.92 413.861 205.432 413.908 205.822H413.955C413.99 205.541 414.127 205.029 414.365 204.287L415.684 200.52H417.148L414.676 207H413.188Z" fill="#28232D"/>
<path d="M419.51 207H418.133V200.52H419.51V207ZM418.051 198.803C418.051 198.557 418.117 198.367 418.25 198.234C418.387 198.102 418.58 198.035 418.83 198.035C419.072 198.035 419.26 198.102 419.393 198.234C419.529 198.367 419.598 198.557 419.598 198.803C419.598 199.037 419.529 199.223 419.393 199.359C419.26 199.492 419.072 199.559 418.83 199.559C418.58 199.559 418.387 199.492 418.25 199.359C418.117 199.223 418.051 199.037 418.051 198.803Z" fill="#28232D"/>
<path d="M424.098 207.117C423.117 207.117 422.371 206.832 421.859 206.262C421.352 205.688 421.098 204.865 421.098 203.795C421.098 202.705 421.363 201.867 421.895 201.281C422.43 200.695 423.201 200.402 424.209 200.402C424.893 200.402 425.508 200.529 426.055 200.783L425.639 201.891C425.057 201.664 424.576 201.551 424.197 201.551C423.076 201.551 422.516 202.295 422.516 203.783C422.516 204.51 422.654 205.057 422.932 205.424C423.213 205.787 423.623 205.969 424.162 205.969C424.775 205.969 425.355 205.816 425.902 205.512V206.713C425.656 206.857 425.393 206.961 425.111 207.023C424.834 207.086 424.496 207.117 424.098 207.117Z" fill="#28232D"/>
<path d="M430.256 207.117C429.248 207.117 428.459 206.824 427.889 206.238C427.322 205.648 427.039 204.838 427.039 203.807C427.039 202.748 427.303 201.916 427.83 201.311C428.357 200.705 429.082 200.402 430.004 200.402C430.859 200.402 431.535 200.662 432.031 201.182C432.527 201.701 432.775 202.416 432.775 203.326V204.07H428.457C428.477 204.699 428.646 205.184 428.967 205.523C429.287 205.859 429.738 206.027 430.32 206.027C430.703 206.027 431.059 205.992 431.387 205.922C431.719 205.848 432.074 205.727 432.453 205.559V206.678C432.117 206.838 431.777 206.951 431.434 207.018C431.09 207.084 430.697 207.117 430.256 207.117ZM430.004 201.445C429.566 201.445 429.215 201.584 428.949 201.861C428.688 202.139 428.531 202.543 428.48 203.074H431.422C431.414 202.539 431.285 202.135 431.035 201.861C430.785 201.584 430.441 201.445 430.004 201.445Z" fill="#28232D"/>
<path d="M438.992 207H437.604V198.434H442.438V199.617H438.992V202.295H442.221V203.484H438.992V207Z" fill="#28232D"/>
<rect x="360.5" y="184.5" width="100" height="36" rx="5.5" stroke="#305680" stroke-opacity="0.4"/>
<rect x="251" y="184" width="101" height="37" rx="6" fill="white"/>
<path fill-rule="evenodd" clip-rule="evenodd" d="M268 196.5C268 196.224 268.224 196 268.5 196C268.776 196 269 196.224 269 196.5V198H271V196.5C271 196.224 271.224 196 271.5 196C271.776 196 272 196.224 272 196.5V198H273C274.105 198 275 198.895 275 200V201H276.5C276.776 201 277 201.224 277 201.5C277 201.776 276.776 202 276.5 202H275V204H276.5C276.776 204 277 204.224 277 204.5C277 204.776 276.776 205 276.5 205H275V206C275 207.105 274.105 208 273 208H272V209.5C272 209.776 271.776 210 271.5 210C271.224 210 271 209.776 271 209.5V208H269V209.5C269 209.776 268.776 210 268.5 210C268.224 210 268 209.776 268 209.5V208H267C265.895 208 265 207.105 265 206V205H263.5C263.224 205 263 204.776 263 204.5C263 204.224 263.224 204 263.5 204H265V202H263.5C263.224 202 263 201.776 263 201.5C263 201.224 263.224 201 263.5 201H265V200C265 198.895 265.895 198 267 198H268V196.5ZM268 203C268 201.895 268.895 201 270 201C271.105 201 272 201.895 272 203C272 204.105 271.105 205 270 205C268.895 205 268 204.105 268 203ZM270 202C269.448 202 269 202.448 269 203C269 203.552 269.448 204 270 204C270.552 204 271 203.552 271 203C271 202.448 270.552 202 270 202Z" fill="#305680"/>
<path d="M294.098 202.635C294.098 204.049 293.705 205.131 292.92 205.881C292.135 206.627 291.004 207 289.527 207H287.131V198.434H289.779C291.143 198.434 292.203 198.801 292.961 199.535C293.719 200.27 294.098 201.303 294.098 202.635ZM292.621 202.682C292.621 200.631 291.662 199.605 289.744 199.605H288.531V205.822H289.527C291.59 205.822 292.621 204.775 292.621 202.682Z" fill="#28232D"/>
<path d="M298.627 207.117C297.619 207.117 296.83 206.824 296.26 206.238C295.693 205.648 295.41 204.838 295.41 203.807C295.41 202.748 295.674 201.916 296.201 201.311C296.729 200.705 297.453 200.402 298.375 200.402C299.23 200.402 299.906 200.662 300.402 201.182C300.898 201.701 301.146 202.416 301.146 203.326V204.07H296.828C296.848 204.699 297.018 205.184 297.338 205.523C297.658 205.859 298.109 206.027 298.691 206.027C299.074 206.027 299.43 205.992 299.758 205.922C300.09 205.848 300.445 205.727 300.824 205.559V206.678C300.488 206.838 300.148 206.951 299.805 207.018C299.461 207.084 299.068 207.117 298.627 207.117ZM298.375 201.445C297.938 201.445 297.586 201.584 297.32 201.861C297.059 202.139 296.902 202.543 296.852 203.074H299.793C299.785 202.539 299.656 202.135 299.406 201.861C299.156 201.584 298.812 201.445 298.375 201.445Z" fill="#28232D"/>
<path d="M304.188 207L301.727 200.52H303.18L304.498 204.287C304.725 204.92 304.861 205.432 304.908 205.822H304.955C304.99 205.541 305.127 205.029 305.365 204.287L306.684 200.52H308.148L305.676 207H304.188Z" fill="#28232D"/>
<path d="M310.51 207H309.133V200.52H310.51V207ZM309.051 198.803C309.051 198.557 309.117 198.367 309.25 198.234C309.387 198.102 309.58 198.035 309.83 198.035C310.072 198.035 310.26 198.102 310.393 198.234C310.529 198.367 310.598 198.557 310.598 198.803C310.598 199.037 310.529 199.223 310.393 199.359C310.26 199.492 310.072 199.559 309.83 199.559C309.58 199.559 309.387 199.492 309.25 199.359C309.117 199.223 309.051 199.037 309.051 198.803Z" fill="#28232D"/>
<path d="M315.098 207.117C314.117 207.117 313.371 206.832 312.859 206.262C312.352 205.688 312.098 204.865 312.098 203.795C312.098 202.705 312.363 201.867 312.895 201.281C313.43 200.695 314.201 200.402 315.209 200.402C315.893 200.402 316.508 200.529 317.055 200.783L316.639 201.891C316.057 201.664 315.576 201.551 315.197 201.551C314.076 201.551 313.516 202.295 313.516 203.783C313.516 204.51 313.654 205.057 313.932 205.424C314.213 205.787 314.623 205.969 315.162 205.969C315.775 205.969 316.355 205.816 316.902 205.512V206.713C316.656 206.857 316.393 206.961 316.111 207.023C315.834 207.086 315.496 207.117 315.098 207.117Z" fill="#28232D"/>
<path d="M321.256 207.117C320.248 207.117 319.459 206.824 318.889 206.238C318.322 205.648 318.039 204.838 318.039 203.807C318.039 202.748 318.303 201.916 318.83 201.311C319.357 200.705 320.082 200.402 321.004 200.402C321.859 200.402 322.535 200.662 323.031 201.182C323.527 201.701 323.775 202.416 323.775 203.326V204.07H319.457C319.477 204.699 319.646 205.184 319.967 205.523C320.287 205.859 320.738 206.027 321.32 206.027C321.703 206.027 322.059 205.992 322.387 205.922C322.719 205.848 323.074 205.727 323.453 205.559V206.678C323.117 206.838 322.777 206.951 322.434 207.018C322.09 207.084 321.697 207.117 321.256 207.117ZM321.004 201.445C320.566 201.445 320.215 201.584 319.949 201.861C319.688 202.139 319.531 202.543 319.48 203.074H322.422C322.414 202.539 322.285 202.135 322.035 201.861C321.785 201.584 321.441 201.445 321.004 201.445Z" fill="#28232D"/>
<path d="M335.57 202.635C335.57 204.049 335.178 205.131 334.393 205.881C333.607 206.627 332.477 207 331 207H328.604V198.434H331.252C332.615 198.434 333.676 198.801 334.434 199.535C335.191 200.27 335.57 201.303 335.57 202.635ZM334.094 202.682C334.094 200.631 333.135 199.605 331.217 199.605H330.004V205.822H331C333.062 205.822 334.094 204.775 334.094 202.682Z" fill="#28232D"/>
<rect x="251.5" y="184.5" width="100" height="36" rx="5.5" stroke="#305680" stroke-opacity="0.4"/>
<rect x="241.5" y="174.5" width="229" height="83" rx="9.5" stroke="#B7B7B7" stroke-linecap="round" stroke-dasharray="5 5"/>
<path d="M409.68 180.83C410.078 181.398 410.92 181.398 411.318 180.83L412.898 178.573C413.362 177.911 412.887 177 412.078 177L408.92 177C408.111 177 407.637 177.911 408.1 178.573L409.68 180.83Z" fill="#28232D"/>
<path fill-rule="evenodd" clip-rule="evenodd" d="M411 171.5L411 177L410 177L410 171.5C410 168.462 407.538 166 404.5 166L365.5 166C361.91 166 359 163.09 359 159.5L359 147L360 147L360 159.5C360 162.538 362.462 165 365.5 165L404.5 165C408.09 165 411 167.91 411 171.5Z" fill="#28232D"/>
<path d="M61.3202 180.83C60.9221 181.398 60.0798 181.398 59.6817 180.83L58.1024 178.573C57.6384 177.911 58.1126 177 58.9216 177L62.0803 177C62.8893 177 63.3635 177.911 62.8995 178.573L61.3202 180.83Z" fill="#28232D"/>
<path fill-rule="evenodd" clip-rule="evenodd" d="M60 164.5L60 177L61 177L61 164.5C61 161.462 63.4624 159 66.5 159L105.5 159C109.09 159 112 156.09 112 152.5L112 147L111 147L111 152.5C111 155.538 108.538 158 105.5 158L66.5 158C62.9101 158 60 160.91 60 164.5Z" fill="#28232D"/>
<path d="M170.32 180.83C169.922 181.398 169.08 181.398 168.682 180.83L167.102 178.573C166.638 177.911 167.113 177 167.922 177L171.08 177C171.889 177 172.363 177.911 171.9 178.573L170.32 180.83Z" fill="#858288"/>
<path fill-rule="evenodd" clip-rule="evenodd" d="M169 171.5L169 177L170 177L170 171.5C170 168.462 172.462 166 175.5 166L345.5 166C349.09 166 352 163.09 352 159.5L352 147L351 147L351 159.5C351 162.538 348.538 165 345.5 165L175.5 165C171.91 165 169 167.91 169 171.5Z" fill="#858288"/>
<path d="M300.68 180.83C301.078 181.398 301.92 181.398 302.318 180.83L303.898 178.573C304.362 177.911 303.887 177 303.078 177L299.92 177C299.111 177 298.637 177.911 299.1 178.573L300.68 180.83Z" fill="#28232D"/>
<path fill-rule="evenodd" clip-rule="evenodd" d="M302 164.5L302 177L301 177L301 164.5C301 161.462 298.538 159 295.5 159L125.5 159C121.91 159 119 156.09 119 152.5L119 147L120 147L120 152.5C120 155.538 122.462 158 125.5 158L295.5 158C299.09 158 302 160.91 302 164.5Z" fill="#28232D"/>
</svg>
